<?xml version="1.0" encoding="UTF-8"?>
<svg width="200px" height="200px" viewBox="0 0 200 200" version="1.1" xmlns="http://www.w3.org/2000/svg" xmlns:xlink="http://www.w3.org/1999/xlink">
    <!-- Generator: Sketch 60.1 (88133) - https://sketch.com -->
    <title>AC_Power</title>
    <desc>Created with Sketch.</desc>
    <g id="AC_Power" stroke="none" stroke-width="1" fill="none" fill-rule="evenodd">
        <g id="Circuit_Symbol_Frame">
            <rect id="Rectangle" stroke="#3D3530" stroke-width="2" fill="#EEEEEE" x="1" y="1" width="198" height="198"></rect>
            <rect id="Rectangle-Copy" stroke="#3D3530" stroke-width="2" fill="#F8FAE4" x="1" y="156" width="198" height="43"></rect>
            <path d="M73.4266664,184 L75.4906664,178.96 L83.0266664,178.96 L85.0906664,184 L86.7226664,184 L80.0026664,167.872 L78.4906664,167.872 L71.7706664,184 L73.4266664,184 Z M82.3786664,177.376 L76.1386664,177.376 L79.2586664,169.72 L82.3786664,177.376 Z M95.4533331,184.192 C97.0213331,184.192 98.3853331,183.836 99.5453331,183.124 C100.705333,182.412 101.605333,181.432 102.245333,180.184 L102.245333,180.184 L100.757333,179.296 C100.261333,180.336 99.5533331,181.164 98.6333331,181.78 C97.7133331,182.396 96.6533331,182.704 95.4533331,182.704 C93.6293331,182.704 92.1693331,182.064 91.0733331,180.784 C89.9773331,179.504 89.4293331,177.896 89.4293331,175.96 C89.4293331,174.008 89.9773331,172.396 91.0733331,171.124 C92.1693331,169.852 93.6293331,169.216 95.4533331,169.216 C96.6373331,169.216 97.6893331,169.52 98.6093331,170.128 C99.5293331,170.736 100.245333,171.56 100.757333,172.6 L100.757333,172.6 L102.245333,171.736 C101.605333,170.488 100.705333,169.504 99.5453331,168.784 C98.3853331,168.064 97.0213331,167.704 95.4533331,167.704 C93.0853331,167.704 91.1973331,168.492 89.7893331,170.068 C88.3813331,171.644 87.6773331,173.608 87.6773331,175.96 C87.6773331,178.296 88.3813331,180.252 89.7893331,181.828 C91.1973331,183.404 93.0853331,184.192 95.4533331,184.192 Z M114.546666,184 L114.546666,177.904 L118.434666,177.904 C120.242666,177.904 121.682666,177.424 122.754666,176.464 C123.826666,175.504 124.362666,174.312 124.362666,172.888 C124.362666,171.448 123.826666,170.252 122.754666,169.3 C121.682666,168.348 120.242666,167.872 118.434666,167.872 L118.434666,167.872 L112.962666,167.872 L112.962666,184 L114.546666,184 Z M118.434666,176.392 L114.546666,176.392 L114.546666,169.384 L118.434666,169.384 C119.730666,169.384 120.770666,169.72 121.554666,170.392 C122.338666,171.064 122.730666,171.896 122.730666,172.888 C122.730666,173.896 122.338666,174.732 121.554666,175.396 C120.770666,176.06 119.730666,176.392 118.434666,176.392 L118.434666,176.392 Z M132.397333,184.192 C134.109333,184.192 135.565333,183.584 136.765333,182.368 C137.981333,181.152 138.589333,179.696 138.589333,178 C138.589333,176.288 137.985333,174.828 136.777333,173.62 C135.569333,172.412 134.109333,171.808 132.397333,171.808 C130.685333,171.808 129.225333,172.412 128.017333,173.62 C126.809333,174.828 126.205333,176.288 126.205333,178 C126.205333,179.712 126.809333,181.172 128.017333,182.38 C129.225333,183.588 130.685333,184.192 132.397333,184.192 Z M132.421333,182.68 C131.141333,182.68 130.053333,182.228 129.157333,181.324 C128.261333,180.42 127.813333,179.312 127.813333,178 C127.813333,176.688 128.261333,175.576 129.157333,174.664 C130.053333,173.752 131.141333,173.296 132.421333,173.296 C133.717333,173.296 134.809333,173.752 135.697333,174.664 C136.585333,175.576 137.029333,176.688 137.029333,178 C137.029333,179.312 136.585333,180.42 135.697333,181.324 C134.809333,182.228 133.717333,182.68 132.421333,182.68 Z M145.88,184 L149.264,174.112 L152.648,184 L154.232,184 L158.48,172 L156.896,172 L153.44,181.768 L149.984,172 L148.544,172 L145.088,181.768 L141.656,172 L140.072,172 L144.296,184 L145.88,184 Z M166.130667,184.072 C167.602667,184.088 168.870667,183.672 169.934667,182.824 C170.998667,181.976 171.714667,181.048 172.082667,180.04 L172.082667,180.04 L170.738667,179.56 C170.434667,180.376 169.858667,181.088 169.010667,181.696 C168.162667,182.304 167.202667,182.608 166.130667,182.608 C165.138667,182.624 164.234667,182.324 163.418667,181.708 C162.602667,181.092 162.058667,180.304 161.786667,179.344 L161.786667,179.344 L172.274667,177.448 C172.274667,177.32 172.266667,177.216 172.250667,177.136 C172.074667,175.6 171.402667,174.312 170.234667,173.272 C169.066667,172.232 167.698667,171.704 166.130667,171.688 C164.402667,171.704 162.938667,172.312 161.738667,173.512 C160.538667,174.712 159.938667,176.176 159.938667,177.904 C159.938667,178.528 160.018667,179.104 160.178667,179.632 C160.578667,180.928 161.334667,181.992 162.446667,182.824 C163.558667,183.656 164.786667,184.072 166.130667,184.072 Z M161.546667,178.048 C161.546667,177.968 161.542667,177.868 161.534667,177.748 C161.526667,177.628 161.522667,177.544 161.522667,177.496 C161.586667,176.312 162.046667,175.296 162.902667,174.448 C163.758667,173.6 164.786667,173.168 165.986667,173.152 C167.010667,173.136 167.938667,173.436 168.770667,174.052 C169.602667,174.668 170.170667,175.464 170.474667,176.44 L170.474667,176.44 L161.546667,178.048 Z M176.781333,184 L176.781333,176.968 C176.781333,175.928 177.125333,175.052 177.813333,174.34 C178.501333,173.628 179.349333,173.272 180.357333,173.272 C181.045333,173.272 181.725333,173.52 182.397333,174.016 L182.397333,174.016 L182.949333,172.432 C182.245333,172.016 181.469333,171.808 180.621333,171.808 C179.037333,171.808 177.757333,172.464 176.781333,173.776 L176.781333,173.776 L176.781333,172 L175.197333,172 L175.197333,184 L176.781333,184 Z" id="ACPower" fill="#23ABE3" fill-rule="nonzero"></path>
        </g>
        <g transform="translate(40.000000, 40.000000)" stroke="#3D3530">
            <g>
                <circle id="Oval" stroke-width="3" cx="40" cy="40" r="40"></circle>
                <path d="M17.3730469,40.2825859 C21.1573117,29.760862 24.9279491,24.5 28.6849589,24.5 C31.398915,24.5 34.0639684,27.2452248 36.6801192,32.7356743 C37.3504286,34.1424357 38.3486694,36.6580729 39.6748414,40.2825859 C43.6192824,51.2294893 47.4700078,56.702941 51.2270175,56.702941 C54.9840273,56.702941 58.7410371,51.2294893 62.4980469,40.2825859" id="Path-2" stroke-width="3"></path>
            </g>
        </g>
        <path d="M128.98,81.144 C129.012,82.2480055 129.135999,83.1799962 129.352,83.94 C129.568001,84.7000038 129.835998,85.2439984 130.156,85.572 C130.476002,85.9000016 130.771999,86.1279994 131.044,86.256 C131.316001,86.3840006 131.587999,86.448 131.86,86.448 C132.836005,86.448 133.555998,86.1040034 134.02,85.416 C134.484002,84.7279966 134.716,83.880005 134.716,82.872 C134.716,81.8959951 134.484002,81.0680034 134.02,80.388 C133.555998,79.7079966 132.836005,79.368 131.86,79.368 C131.155996,79.368 130.536003,79.5359983 130,79.872 C129.463997,80.2080017 129.124001,80.6319974 128.98,81.144 Z M129.004,79.824 C129.692003,78.8799953 130.643994,78.408 131.86,78.408 C133.188007,78.408 134.327995,78.8479956 135.28,79.728 C136.232005,80.6080044 136.708,81.6639938 136.708,82.896 C136.708,84.1280062 136.232005,85.1879956 135.28,86.076 C134.327995,86.9640044 133.188007,87.408 131.86,87.408 C131.459998,87.408 131.060002,87.3560005 130.66,87.252 C130.259998,87.1479995 129.832002,86.9400016 129.376,86.628 C128.919998,86.3159984 128.524002,85.9160024 128.188,85.428 C127.851998,84.9399976 127.572001,84.2840041 127.348,83.46 C127.123999,82.6359959 127.012,81.6880054 127.012,80.616 C127.012,79.1919929 127.207998,77.8520063 127.6,76.596 C127.992002,75.3399937 128.615996,74.2800043 129.472,73.416 C130.328004,72.5519957 131.347994,72.12 132.532,72.12 C133.476005,72.12 134.299996,72.319998 135.004,72.72 C135.708004,73.12 136.06,73.5279979 136.06,73.944 C136.06,74.136001 135.988001,74.2879994 135.844,74.4 C135.699999,74.5120006 135.556001,74.568 135.412,74.568 C135.219999,74.568 135.008001,74.4280014 134.776,74.148 C134.543999,73.8679986 134.240002,73.5880014 133.864,73.308 C133.487998,73.0279986 133.044003,72.888 132.532,72.888 C130.371989,72.888 129.196001,75.1999769 129.004,79.824 Z M142.444,77.856 C143.548006,76.7519945 144.867992,76.2 146.404,76.2 C147.940008,76.2 149.255995,76.7479945 150.352,77.844 C151.448005,78.9400055 151.996,80.2559923 151.996,81.792 C151.996,83.3440078 151.448005,84.6679945 150.352,85.764 C149.255995,86.8600055 147.940008,87.408 146.404,87.408 C144.867992,87.408 143.552005,86.8600055 142.456,85.764 C141.359995,84.6679945 140.812,83.3440078 140.812,81.792 C140.812,80.2559923 141.355995,78.9440054 142.444,77.856 Z M146.404,77.568 C145.283994,77.568 144.328004,77.9839958 143.536,78.816 C142.743996,79.6480042 142.348,80.6399942 142.348,81.792 C142.348,82.9600058 142.743996,83.9559959 143.536,84.78 C144.328004,85.6040041 145.283994,86.016 146.404,86.016 C147.508006,86.016 148.459996,85.6040041 149.26,84.78 C150.060004,83.9559959 150.46,82.9600058 150.46,81.792 C150.46,80.6399942 150.060004,79.6480042 149.26,78.816 C148.459996,77.9839958 147.508006,77.568 146.404,77.568 Z M159.82,79.8 L159.82,83.688 C159.82,84.888006 159.951999,85.6559983 160.216,85.992 C160.480001,86.3280017 161.107995,86.496 162.1,86.496 L162.1,87 L155.62,87 L155.62,86.496 C156.612005,86.496 157.239999,86.3280017 157.504,85.992 C157.768001,85.6559983 157.9,84.888006 157.9,83.688 L157.9,75.888 C157.9,74.687994 157.768001,73.9240016 157.504,73.596 C157.239999,73.2679984 156.612005,73.104 155.62,73.104 L155.62,72.6 L162.1,72.6 L162.1,73.104 C161.107995,73.104 160.480001,73.2679984 160.216,73.596 C159.951999,73.9240016 159.82,74.687994 159.82,75.888 L159.82,78.912 L167.98,78.912 L167.98,75.888 C167.98,74.687994 167.844001,73.9240016 167.572,73.596 C167.299999,73.2679984 166.668005,73.104 165.676,73.104 L165.676,72.6 L172.18,72.6 L172.18,73.104 C171.171995,73.104 170.536001,73.2679984 170.272,73.596 C170.007999,73.9240016 169.876,74.687994 169.876,75.888 L169.876,83.688 C169.876,84.9040061 170.007999,85.6759984 170.272,86.004 C170.536001,86.3320016 171.171995,86.496 172.18,86.496 L172.18,87 L165.676,87 L165.676,86.496 C166.668005,86.496 167.299999,86.3280017 167.572,85.992 C167.844001,85.6559983 167.98,84.888006 167.98,83.688 L167.98,79.8 L159.82,79.8 Z M182.044,79.008 L182.044,79.392 L177.46,86.232 L178.924,86.232 C179.964005,86.232 180.651998,86.132001 180.988,85.932 C181.324002,85.731999 181.555999,85.3600027 181.684,84.816 L181.804,84.336 L182.308,84.336 L182.14,87 L175.18,87 L175.18,86.592 L179.74,79.752 L178.612,79.752 C177.571995,79.752 176.884002,79.851999 176.548,80.052 C176.211998,80.252001 175.980001,80.6239973 175.852,81.168 L175.732,81.648 L175.228,81.648 L175.42,79.008 L182.044,79.008 Z" id="60Hz-Copy" fill="#524740"></path>
    </g>
</svg>