<?xml version="1.0" encoding="UTF-8"?>
<svg width="200px" height="200px" viewBox="0 0 200 200" version="1.1" xmlns="http://www.w3.org/2000/svg" xmlns:xlink="http://www.w3.org/1999/xlink">
    <!-- Generator: Sketch 60.1 (88133) - https://sketch.com -->
    <title>Chassis_Ground</title>
    <desc>Created with Sketch.</desc>
    <g id="Chassis_Ground" stroke="none" stroke-width="1" fill="none" fill-rule="evenodd">
        <g id="Circuit_Symbol_Frame">
            <rect id="Rectangle" stroke="#3D3530" stroke-width="2" fill="#EEEEEE" x="1" y="1" width="198" height="198"></rect>
            <rect id="Rectangle-Copy" stroke="#3D3530" stroke-width="2" fill="#F8FAE4" x="1" y="156" width="198" height="43"></rect>
            <path d="M18.8346662,184.192 C20.4026662,184.192 21.7666662,183.836 22.9266662,183.124 C24.0866662,182.412 24.9866662,181.432 25.6266662,180.184 L25.6266662,180.184 L24.1386662,179.296 C23.6426662,180.336 22.9346662,181.164 22.0146662,181.78 C21.0946662,182.396 20.0346662,182.704 18.8346662,182.704 C17.0106662,182.704 15.5506662,182.064 14.4546662,180.784 C13.3586662,179.504 12.8106662,177.896 12.8106662,175.96 C12.8106662,174.008 13.3586662,172.396 14.4546662,171.124 C15.5506662,169.852 17.0106662,169.216 18.8346662,169.216 C20.0186662,169.216 21.0706662,169.52 21.9906662,170.128 C22.9106662,170.736 23.6266662,171.56 24.1386662,172.6 L24.1386662,172.6 L25.6266662,171.736 C24.9866662,170.488 24.0866662,169.504 22.9266662,168.784 C21.7666662,168.064 20.4026662,167.704 18.8346662,167.704 C16.4666662,167.704 14.5786662,168.492 13.1706662,170.068 C11.7626662,171.644 11.0586662,173.608 11.0586662,175.96 C11.0586662,178.296 11.7626662,180.252 13.1706662,181.828 C14.5786662,183.404 16.4666662,184.192 18.8346662,184.192 Z M30.6853329,184 L30.6853329,176.968 C30.6853329,175.944 31.0333329,175.076 31.7293329,174.364 C32.4253329,173.652 33.2693329,173.296 34.2613329,173.296 C35.2693329,173.296 36.1173329,173.652 36.8053329,174.364 C37.4933329,175.076 37.8373329,175.952 37.8373329,176.992 L37.8373329,176.992 L37.8373329,184 L39.4453329,184 L39.4453329,176.968 C39.4453329,175.528 38.9733329,174.308 38.0293329,173.308 C37.0853329,172.308 35.9173329,171.808 34.5253329,171.808 C32.9413329,171.808 31.6613329,172.464 30.6853329,173.776 L30.6853329,173.776 L30.6853329,166.144 L29.1013329,166.144 L29.1013329,184 L30.6853329,184 Z M48.5599996,184.192 C50.4479996,184.192 52.0079996,183.48 53.2399996,182.056 L53.2399996,182.056 L53.2399996,184 L54.8239996,184 L54.8239996,172 L53.2399996,172 L53.2399996,173.944 C52.0239996,172.52 50.4639996,171.808 48.5599996,171.808 C46.8479996,171.808 45.3879996,172.412 44.1799996,173.62 C42.9719996,174.828 42.3679996,176.288 42.3679996,178 C42.3679996,179.712 42.9719996,181.172 44.1799996,182.38 C45.3879996,183.588 46.8479996,184.192 48.5599996,184.192 Z M48.5839996,182.68 C47.3039996,182.68 46.2119996,182.228 45.3079996,181.324 C44.4039996,180.42 43.9519996,179.312 43.9519996,178 C43.9519996,176.688 44.4039996,175.58 45.3079996,174.676 C46.2119996,173.772 47.3039996,173.32 48.5839996,173.32 C49.8799996,173.32 50.9719996,173.772 51.8599996,174.676 C52.7479996,175.58 53.1919996,176.688 53.1919996,178 C53.1919996,179.312 52.7479996,180.42 51.8599996,181.324 C50.9719996,182.228 49.8799996,182.68 48.5839996,182.68 Z M62.9306663,184.192 C64.4026663,184.192 65.5066663,183.88 66.2426663,183.256 C66.9786663,182.632 67.3466663,181.816 67.3466663,180.808 C67.3466663,180.088 67.0826663,179.476 66.5546663,178.972 C66.0266663,178.468 65.3826663,178.084 64.6226663,177.82 C63.8626663,177.556 63.1066663,177.312 62.3546663,177.088 C61.6026663,176.864 60.9626663,176.596 60.4346663,176.284 C59.9066663,175.972 59.6426663,175.6 59.6426663,175.168 C59.6426663,174.56 59.9106663,174.088 60.4466663,173.752 C60.9826663,173.416 61.6826663,173.248 62.5466663,173.248 C63.1546663,173.248 63.7626663,173.384 64.3706663,173.656 C64.9786663,173.928 65.3826663,174.144 65.5826663,174.304 C65.7826663,174.464 65.9386663,174.6 66.0506663,174.712 L66.0506663,174.712 L67.1786663,173.728 L66.6746663,173.248 C66.3386663,172.928 65.7866663,172.608 65.0186663,172.288 C64.2506663,171.968 63.4346663,171.808 62.5706663,171.808 C61.1146663,171.808 60.0146663,172.124 59.2706663,172.756 C58.5266663,173.388 58.1546663,174.2 58.1546663,175.192 C58.1546663,175.912 58.4186663,176.52 58.9466663,177.016 C59.4746663,177.512 60.1186663,177.896 60.8786663,178.168 C61.6386663,178.44 62.3946663,178.688 63.1466663,178.912 C63.8986663,179.136 64.5386663,179.404 65.0666663,179.716 C65.5946663,180.028 65.8586663,180.4 65.8586663,180.832 C65.8586663,181.44 65.5946663,181.912 65.0666663,182.248 C64.5386663,182.584 63.8346663,182.752 62.9546663,182.752 C62.3626663,182.752 61.7626663,182.616 61.1546663,182.344 C60.5466663,182.072 60.1426663,181.856 59.9426663,181.696 C59.7426663,181.536 59.5866663,181.4 59.4746663,181.288 L59.4746663,181.288 L58.3466663,182.248 L58.5386663,182.464 C58.6666663,182.592 58.8666663,182.752 59.1386663,182.944 C59.4106663,183.136 59.7186663,183.324 60.0626663,183.508 C60.4066663,183.692 60.8346663,183.852 61.3466663,183.988 C61.8586663,184.124 62.3866663,184.192 62.9306663,184.192 Z M74.685333,184.192 C76.157333,184.192 77.261333,183.88 77.997333,183.256 C78.733333,182.632 79.101333,181.816 79.101333,180.808 C79.101333,180.088 78.837333,179.476 78.309333,178.972 C77.781333,178.468 77.137333,178.084 76.377333,177.82 C75.617333,177.556 74.861333,177.312 74.109333,177.088 C73.357333,176.864 72.717333,176.596 72.189333,176.284 C71.661333,175.972 71.397333,175.6 71.397333,175.168 C71.397333,174.56 71.665333,174.088 72.201333,173.752 C72.737333,173.416 73.437333,173.248 74.301333,173.248 C74.909333,173.248 75.517333,173.384 76.125333,173.656 C76.733333,173.928 77.137333,174.144 77.337333,174.304 C77.537333,174.464 77.693333,174.6 77.805333,174.712 L77.805333,174.712 L78.933333,173.728 L78.429333,173.248 C78.093333,172.928 77.541333,172.608 76.773333,172.288 C76.005333,171.968 75.189333,171.808 74.325333,171.808 C72.869333,171.808 71.769333,172.124 71.025333,172.756 C70.281333,173.388 69.909333,174.2 69.909333,175.192 C69.909333,175.912 70.173333,176.52 70.701333,177.016 C71.229333,177.512 71.873333,177.896 72.633333,178.168 C73.393333,178.44 74.149333,178.688 74.901333,178.912 C75.653333,179.136 76.293333,179.404 76.821333,179.716 C77.349333,180.028 77.613333,180.4 77.613333,180.832 C77.613333,181.44 77.349333,181.912 76.821333,182.248 C76.293333,182.584 75.589333,182.752 74.709333,182.752 C74.117333,182.752 73.517333,182.616 72.909333,182.344 C72.301333,182.072 71.897333,181.856 71.697333,181.696 C71.497333,181.536 71.341333,181.4 71.229333,181.288 L71.229333,181.288 L70.101333,182.248 L70.293333,182.464 C70.421333,182.592 70.621333,182.752 70.893333,182.944 C71.165333,183.136 71.473333,183.324 71.817333,183.508 C72.161333,183.692 72.589333,183.852 73.101333,183.988 C73.613333,184.124 74.141333,184.192 74.685333,184.192 Z M83.4639997,168.688 C83.7359997,168.688 83.9599997,168.592 84.1359997,168.4 C84.3279997,168.208 84.4239997,167.984 84.4239997,167.728 C84.4239997,167.472 84.3319997,167.248 84.1479997,167.056 C83.9639997,166.864 83.7359997,166.768 83.4639997,166.768 C83.1919997,166.768 82.9639997,166.864 82.7799997,167.056 C82.5959997,167.248 82.5039997,167.472 82.5039997,167.728 C82.5039997,167.984 82.5959997,168.208 82.7799997,168.4 C82.9639997,168.592 83.1919997,168.688 83.4639997,168.688 Z M84.2559997,184 L84.2559997,172 L82.6719997,172 L82.6719997,184 L84.2559997,184 Z M92.5306664,184.192 C94.0026664,184.192 95.1066664,183.88 95.8426664,183.256 C96.5786664,182.632 96.9466664,181.816 96.9466664,180.808 C96.9466664,180.088 96.6826664,179.476 96.1546664,178.972 C95.6266664,178.468 94.9826664,178.084 94.2226664,177.82 C93.4626664,177.556 92.7066664,177.312 91.9546664,177.088 C91.2026664,176.864 90.5626664,176.596 90.0346664,176.284 C89.5066664,175.972 89.2426664,175.6 89.2426664,175.168 C89.2426664,174.56 89.5106664,174.088 90.0466664,173.752 C90.5826664,173.416 91.2826664,173.248 92.1466664,173.248 C92.7546664,173.248 93.3626664,173.384 93.9706664,173.656 C94.5786664,173.928 94.9826664,174.144 95.1826664,174.304 C95.3826664,174.464 95.5386664,174.6 95.6506664,174.712 L95.6506664,174.712 L96.7786664,173.728 L96.2746664,173.248 C95.9386664,172.928 95.3866664,172.608 94.6186664,172.288 C93.8506664,171.968 93.0346664,171.808 92.1706664,171.808 C90.7146664,171.808 89.6146664,172.124 88.8706664,172.756 C88.1266664,173.388 87.7546664,174.2 87.7546664,175.192 C87.7546664,175.912 88.0186664,176.52 88.5466664,177.016 C89.0746664,177.512 89.7186664,177.896 90.4786664,178.168 C91.2386664,178.44 91.9946664,178.688 92.7466664,178.912 C93.4986664,179.136 94.1386664,179.404 94.6666664,179.716 C95.1946664,180.028 95.4586664,180.4 95.4586664,180.832 C95.4586664,181.44 95.1946664,181.912 94.6666664,182.248 C94.1386664,182.584 93.4346664,182.752 92.5546664,182.752 C91.9626664,182.752 91.3626664,182.616 90.7546664,182.344 C90.1466664,182.072 89.7426664,181.856 89.5426664,181.696 C89.3426664,181.536 89.1866664,181.4 89.0746664,181.288 L89.0746664,181.288 L87.9466664,182.248 L88.1386664,182.464 C88.2666664,182.592 88.4666664,182.752 88.7386664,182.944 C89.0106664,183.136 89.3186664,183.324 89.6626664,183.508 C90.0066664,183.692 90.4346664,183.852 90.9466664,183.988 C91.4586664,184.124 91.9866664,184.192 92.5306664,184.192 Z M114.696,184.192 C116.072,184.192 117.284,183.888 118.332,183.28 C119.38,182.672 120.2,181.832 120.792,180.76 L120.792,180.76 L120.792,184 L122.232,184 L122.232,175.648 L115.344,175.648 L115.344,177.064 L120.576,177.064 C120.384,178.696 119.756,180.044 118.692,181.108 C117.628,182.172 116.296,182.704 114.696,182.704 C112.872,182.704 111.412,182.064 110.316,180.784 C109.22,179.504 108.672,177.896 108.672,175.96 C108.672,174.008 109.22,172.396 110.316,171.124 C111.412,169.852 112.872,169.216 114.696,169.216 C115.88,169.216 116.932,169.52 117.852,170.128 C118.772,170.736 119.48,171.56 119.976,172.6 L119.976,172.6 L121.464,171.736 C120.84,170.488 119.944,169.504 118.776,168.784 C117.608,168.064 116.248,167.704 114.696,167.704 C112.328,167.704 110.436,168.492 109.02,170.068 C107.604,171.644 106.896,173.608 106.896,175.96 C106.896,178.296 107.604,180.252 109.02,181.828 C110.436,183.404 112.328,184.192 114.696,184.192 Z M127.986666,184 L127.986666,176.968 C127.986666,175.928 128.330666,175.052 129.018666,174.34 C129.706666,173.628 130.554666,173.272 131.562666,173.272 C132.250666,173.272 132.930666,173.52 133.602666,174.016 L133.602666,174.016 L134.154666,172.432 C133.450666,172.016 132.674666,171.808 131.826666,171.808 C130.242666,171.808 128.962666,172.464 127.986666,173.776 L127.986666,173.776 L127.986666,172 L126.402666,172 L126.402666,184 L127.986666,184 Z M141.469333,184.192 C143.181333,184.192 144.637333,183.584 145.837333,182.368 C147.053333,181.152 147.661333,179.696 147.661333,178 C147.661333,176.288 147.057333,174.828 145.849333,173.62 C144.641333,172.412 143.181333,171.808 141.469333,171.808 C139.757333,171.808 138.297333,172.412 137.089333,173.62 C135.881333,174.828 135.277333,176.288 135.277333,178 C135.277333,179.712 135.881333,181.172 137.089333,182.38 C138.297333,183.588 139.757333,184.192 141.469333,184.192 Z M141.493333,182.68 C140.213333,182.68 139.125333,182.228 138.229333,181.324 C137.333333,180.42 136.885333,179.312 136.885333,178 C136.885333,176.688 137.333333,175.576 138.229333,174.664 C139.125333,173.752 140.213333,173.296 141.493333,173.296 C142.789333,173.296 143.881333,173.752 144.769333,174.664 C145.657333,175.576 146.101333,176.688 146.101333,178 C146.101333,179.312 145.657333,180.42 144.769333,181.324 C143.881333,182.228 142.789333,182.68 141.493333,182.68 Z M155.48,184.192 C157.064,184.192 158.344,183.536 159.32,182.224 L159.32,182.224 L159.32,184 L160.904,184 L160.904,172 L159.32,172 L159.32,179.032 C159.32,180.056 158.976,180.924 158.288,181.636 C157.6,182.348 156.752,182.704 155.744,182.704 C154.752,182.704 153.912,182.348 153.224,181.636 C152.536,180.924 152.192,180.056 152.192,179.032 L152.192,179.032 L152.192,172 L150.56,172 L150.56,179.08 C150.56,180.52 151.032,181.732 151.976,182.716 C152.92,183.7 154.088,184.192 155.48,184.192 Z M166.442667,184 L166.442667,176.968 C166.442667,175.944 166.790667,175.072 167.486667,174.352 C168.182667,173.632 169.026667,173.272 170.018667,173.272 C171.010667,173.272 171.854667,173.632 172.550667,174.352 C173.246667,175.072 173.594667,175.944 173.594667,176.968 L173.594667,176.968 L173.594667,184 L175.202667,184 L175.202667,176.92 C175.202667,175.48 174.730667,174.268 173.786667,173.284 C172.842667,172.3 171.674667,171.808 170.282667,171.808 C168.698667,171.808 167.418667,172.464 166.442667,173.776 L166.442667,173.776 L166.442667,172 L164.858667,172 L164.858667,184 L166.442667,184 Z M184.317333,184.192 C186.205333,184.192 187.765333,183.48 188.997333,182.056 L188.997333,182.056 L188.997333,184 L190.581333,184 L190.581333,166.144 L188.997333,166.144 L188.997333,173.944 C187.781333,172.52 186.221333,171.808 184.317333,171.808 C182.605333,171.808 181.145333,172.412 179.937333,173.62 C178.729333,174.828 178.125333,176.288 178.125333,178 C178.125333,179.712 178.729333,181.172 179.937333,182.38 C181.145333,183.588 182.605333,184.192 184.317333,184.192 Z M184.341333,182.68 C183.045333,182.68 181.949333,182.232 181.053333,181.336 C180.157333,180.424 179.709333,179.312 179.709333,178 C179.709333,176.688 180.157333,175.58 181.053333,174.676 C181.949333,173.772 183.045333,173.32 184.341333,173.32 C185.637333,173.32 186.729333,173.772 187.617333,174.676 C188.505333,175.58 188.949333,176.688 188.949333,178 C188.949333,179.312 188.505333,180.42 187.617333,181.324 C186.729333,182.228 185.637333,182.68 184.341333,182.68 Z" id="ChassisGround" fill="#23ABE3" fill-rule="nonzero"></path>
        </g>
        <g transform="translate(59.000000, 52.000000)" stroke="#3D3530">
            <g transform="translate(46.000000, 30.000000) rotate(-90.000000) translate(-46.000000, -30.000000) translate(16.000000, -16.000000)">
                <polyline id="Path-3-Copy" stroke-width="3" stroke-linejoin="round" points="0 26 32 -3.55271368e-15 32 66 7.10542736e-15 92"></polyline>
                <polyline id="Path-3-Copy-2" stroke-width="3" stroke-linejoin="bevel" points="0 58 32 32 60 32"></polyline>
            </g>
        </g>
    </g>
</svg>