<?xml version="1.0" encoding="UTF-8"?>
<svg width="200px" height="200px" viewBox="0 0 200 200" version="1.1" xmlns="http://www.w3.org/2000/svg" xmlns:xlink="http://www.w3.org/1999/xlink">
    <!-- Generator: Sketch 60.1 (88133) - https://sketch.com -->
    <title>Ground</title>
    <desc>Created with Sketch.</desc>
    <g id="Ground" stroke="none" stroke-width="1" fill="none" fill-rule="evenodd">
        <g id="Circuit_Symbol_Frame">
            <rect id="Rectangle" stroke="#3D3530" stroke-width="2" fill="#EEEEEE" x="1" y="1" width="198" height="198"></rect>
            <rect id="Rectangle-Copy" stroke="#3D3530" stroke-width="2" fill="#F8FAE4" x="1" y="156" width="198" height="43"></rect>
            <path d="M105.696,184.192 C107.072,184.192 108.284,183.888 109.332,183.28 C110.38,182.672 111.2,181.832 111.792,180.76 L111.792,180.76 L111.792,184 L113.232,184 L113.232,175.648 L106.344,175.648 L106.344,177.064 L111.576,177.064 C111.384,178.696 110.756,180.044 109.692,181.108 C108.628,182.172 107.296,182.704 105.696,182.704 C103.872,182.704 102.412,182.064 101.316,180.784 C100.22,179.504 99.6719998,177.896 99.6719998,175.96 C99.6719998,174.008 100.22,172.396 101.316,171.124 C102.412,169.852 103.872,169.216 105.696,169.216 C106.88,169.216 107.932,169.52 108.852,170.128 C109.772,170.736 110.48,171.56 110.976,172.6 L110.976,172.6 L112.464,171.736 C111.84,170.488 110.944,169.504 109.776,168.784 C108.608,168.064 107.248,167.704 105.696,167.704 C103.328,167.704 101.436,168.492 100.02,170.068 C98.6039998,171.644 97.8959998,173.608 97.8959998,175.96 C97.8959998,178.296 98.6039998,180.252 100.02,181.828 C101.436,183.404 103.328,184.192 105.696,184.192 Z M118.986666,184 L118.986666,176.968 C118.986666,175.928 119.330666,175.052 120.018666,174.34 C120.706666,173.628 121.554666,173.272 122.562666,173.272 C123.250666,173.272 123.930666,173.52 124.602666,174.016 L124.602666,174.016 L125.154666,172.432 C124.450666,172.016 123.674666,171.808 122.826666,171.808 C121.242666,171.808 119.962666,172.464 118.986666,173.776 L118.986666,173.776 L118.986666,172 L117.402666,172 L117.402666,184 L118.986666,184 Z M132.469333,184.192 C134.181333,184.192 135.637333,183.584 136.837333,182.368 C138.053333,181.152 138.661333,179.696 138.661333,178 C138.661333,176.288 138.057333,174.828 136.849333,173.62 C135.641333,172.412 134.181333,171.808 132.469333,171.808 C130.757333,171.808 129.297333,172.412 128.089333,173.62 C126.881333,174.828 126.277333,176.288 126.277333,178 C126.277333,179.712 126.881333,181.172 128.089333,182.38 C129.297333,183.588 130.757333,184.192 132.469333,184.192 Z M132.493333,182.68 C131.213333,182.68 130.125333,182.228 129.229333,181.324 C128.333333,180.42 127.885333,179.312 127.885333,178 C127.885333,176.688 128.333333,175.576 129.229333,174.664 C130.125333,173.752 131.213333,173.296 132.493333,173.296 C133.789333,173.296 134.881333,173.752 135.769333,174.664 C136.657333,175.576 137.101333,176.688 137.101333,178 C137.101333,179.312 136.657333,180.42 135.769333,181.324 C134.881333,182.228 133.789333,182.68 132.493333,182.68 Z M146.48,184.192 C148.064,184.192 149.344,183.536 150.32,182.224 L150.32,182.224 L150.32,184 L151.904,184 L151.904,172 L150.32,172 L150.32,179.032 C150.32,180.056 149.976,180.924 149.288,181.636 C148.6,182.348 147.752,182.704 146.744,182.704 C145.752,182.704 144.912,182.348 144.224,181.636 C143.536,180.924 143.192,180.056 143.192,179.032 L143.192,179.032 L143.192,172 L141.56,172 L141.56,179.08 C141.56,180.52 142.032,181.732 142.976,182.716 C143.92,183.7 145.088,184.192 146.48,184.192 Z M157.442667,184 L157.442667,176.968 C157.442667,175.944 157.790667,175.072 158.486667,174.352 C159.182667,173.632 160.026667,173.272 161.018667,173.272 C162.010667,173.272 162.854667,173.632 163.550667,174.352 C164.246667,175.072 164.594667,175.944 164.594667,176.968 L164.594667,176.968 L164.594667,184 L166.202667,184 L166.202667,176.92 C166.202667,175.48 165.730667,174.268 164.786667,173.284 C163.842667,172.3 162.674667,171.808 161.282667,171.808 C159.698667,171.808 158.418667,172.464 157.442667,173.776 L157.442667,173.776 L157.442667,172 L155.858667,172 L155.858667,184 L157.442667,184 Z M175.317333,184.192 C177.205333,184.192 178.765333,183.48 179.997333,182.056 L179.997333,182.056 L179.997333,184 L181.581333,184 L181.581333,166.144 L179.997333,166.144 L179.997333,173.944 C178.781333,172.52 177.221333,171.808 175.317333,171.808 C173.605333,171.808 172.145333,172.412 170.937333,173.62 C169.729333,174.828 169.125333,176.288 169.125333,178 C169.125333,179.712 169.729333,181.172 170.937333,182.38 C172.145333,183.588 173.605333,184.192 175.317333,184.192 Z M175.341333,182.68 C174.045333,182.68 172.949333,182.232 172.053333,181.336 C171.157333,180.424 170.709333,179.312 170.709333,178 C170.709333,176.688 171.157333,175.58 172.053333,174.676 C172.949333,173.772 174.045333,173.32 175.341333,173.32 C176.637333,173.32 177.729333,173.772 178.617333,174.676 C179.505333,175.58 179.949333,176.688 179.949333,178 C179.949333,179.312 179.505333,180.42 178.617333,181.324 C177.729333,182.228 176.637333,182.68 175.341333,182.68 Z" id="Ground" fill="#23ABE3" fill-rule="nonzero"></path>
        </g>
        <g transform="translate(67.000000, 43.000000)" stroke="#3D3530">
            <g transform="translate(33.000000, 37.500000) rotate(-90.000000) translate(-33.000000, -37.500000) translate(-4.500000, 4.500000)">
                <line x1="25" y1="33" x2="75" y2="33" id="Path-2-Copy" stroke-width="3"></line>
                <line x1="13" y1="13" x2="13" y2="53" id="Path-4" stroke-width="3"></line>
                <line x1="1" y1="27" x2="1" y2="39" id="Path-4-Copy" stroke-width="3"></line>
                <line x1="25" y1="0" x2="25" y2="66" id="Path-3-Copy" stroke-width="3"></line>
            </g>
        </g>
    </g>
</svg>