<?xml version="1.0" standalone="no"?>
<!DOCTYPE svg PUBLIC "-//W3C//DTD SVG 1.1//EN" "http://www.w3.org/Graphics/SVG/1.1/DTD/svg11.dtd" >
<svg xmlns="http://www.w3.org/2000/svg" xmlns:xlink="http://www.w3.org/1999/xlink" version="1.1">
<metadata>
Created by FontForge 20170910 at Tue Apr 16 15:01:17 2002
 By Jimmy Wärting
Copyright (c) Emigre Graphics, 1996. All rights reserved.
</metadata>
<defs>
<font id="MrsEavesOT-Roman" horiz-adv-x="458" >
  <font-face 
    font-family="Mrs Eaves OT"
    font-weight="400"
    font-stretch="normal"
    units-per-em="1000"
    panose-1="0 0 0 0 0 0 0 0 0 0"
    ascent="708"
    descent="-292"
    x-height="333"
    cap-height="600"
    bbox="-109 -270 1368 871"
    underline-thickness="25"
    underline-position="-86"
    stemh="20"
    stemv="71"
    unicode-range="U+0020-FB04"
  />
<missing-glyph horiz-adv-x="500" 
 />
    <glyph glyph-name="fi" unicode="fi" horiz-adv-x="598" 
d="M35 298v35h82v96c0 136 90 188 180 188c83 0 133 -56 133 -97c0 -21 -18 -34 -36 -34c-56 0 -19 98 -108 98c-54 0 -98 -28 -98 -155v-96h312v-195c0 -100 13 -117 79 -117v-21h-229v21c67 0 79 17 79 117v43c0 100 -12 117 -79 117h-162v-160c0 -100 12 -117 79 -117
v-21h-229v21c66 0 79 17 79 117v160h-82z" />
    <glyph glyph-name="fl" unicode="fl" horiz-adv-x="580" 
d="M340 572c-111 0 -152 -22 -152 -159v-80h100v-35h-100v-160c0 -100 12 -117 79 -117v-21h-229v21c66 0 79 17 79 117v160h-82v35h82v80c0 135 71 187 181 187h184v-462c0 -100 12 -117 79 -117v-21h-229v21c66 0 79 17 79 117v320c0 91 -18 114 -71 114z" />
    <glyph glyph-name="ff" unicode="ff" horiz-adv-x="625" 
d="M188 298v-160c0 -100 12 -117 79 -117v-21h-229v21c66 0 79 17 79 117v160h-82v35h82v55c0 135 82 187 164 187c106 0 127 -110 67 -110c-49 0 -22 78 -85 78c-51 0 -75 -40 -75 -155v-55h241v96c0 136 83 188 164 188c106 0 127 -110 67 -110c-48 0 -22 77 -85 77
c-51 0 -75 -40 -75 -155v-96h101v-35h-101v-160c0 -100 13 -117 79 -117v-21h-229v21c67 0 79 17 79 117v160h-241z" />
    <glyph glyph-name="ffi" unicode="ffi" horiz-adv-x="911" 
d="M117 333v55c0 135 82 187 164 187c106 0 127 -110 67 -110c-49 0 -22 78 -85 78c-51 0 -75 -40 -75 -155v-55h241v96c0 136 90 188 180 188c84 0 134 -56 134 -97c0 -21 -19 -34 -36 -34c-56 0 -19 98 -109 98c-54 0 -98 -28 -98 -155v-96h313v-195
c0 -100 12 -117 79 -117v-21h-229v21c66 0 79 17 79 117v43c0 100 -13 117 -79 117h-163v-160c0 -100 13 -117 79 -117v-21h-229v21c67 0 79 17 79 117v160h-241v-160c0 -100 12 -117 79 -117v-21h-229v21c66 0 79 17 79 117v160h-82v35h82z" />
    <glyph glyph-name="ffl" unicode="ffl" horiz-adv-x="893" 
d="M188 298v-160c0 -100 12 -117 79 -117v-21h-229v21c66 0 79 17 79 117v160h-82v35h82v55c0 135 82 187 164 187c106 0 127 -110 67 -110c-49 0 -22 78 -85 78c-51 0 -75 -40 -75 -155v-55h241v80c0 135 72 187 181 187h184v-462c0 -100 13 -117 79 -117v-21h-229v21
c67 0 79 17 79 117v320c0 91 -17 114 -70 114c-111 0 -153 -22 -153 -159v-80h101v-35h-101v-160c0 -100 13 -117 79 -117v-21h-229v21c67 0 79 17 79 117v160h-241z" />
    <glyph glyph-name="f_f_b" unicode="ffb" horiz-adv-x="1122" 
d="M778 231v-128c18 -48 55 -80 101 -80c78 0 114 64 114 144s-36 143 -114 143c-46 0 -83 -32 -101 -79zM429 298h-241v-160c0 -100 12 -117 79 -117v-21h-229v21c66 0 79 17 79 117v160h-82v35h82v55c0 135 82 187 164 187c106 0 127 -110 67 -110c-49 0 -22 78 -85 78
c-51 0 -75 -40 -75 -155v-55h241v80c0 135 72 187 181 187h168v-309c30 37 72 59 122 59c95 0 173 -82 173 -183s-78 -184 -173 -184c-53 0 -99 26 -128 67l-44 -67h-21v475c0 91 -18 114 -71 114c-88 0 -136 -22 -136 -159v-80h101v-35h-101v-160c0 -100 13 -117 79 -117
v-21h-229v21c67 0 79 17 79 117v160z" />
    <glyph glyph-name="f_f_h" unicode="ffh" horiz-adv-x="1147" 
d="M429 333v80c0 135 72 187 181 187h184v-322c28 34 73 72 131 72c92 0 123 -64 123 -149v-63c0 -100 13 -117 80 -117v-21h-221v21c63 0 71 14 71 117v58c0 65 -24 107 -76 107c-50 0 -108 -43 -108 -100v-65c0 -104 8 -117 63 -117v-21h-213v21c67 0 79 17 79 117v320
c0 91 -17 114 -70 114c-111 0 -153 -22 -153 -159v-80h101v-35h-101v-160c0 -100 13 -117 79 -117v-21h-229v21c67 0 79 17 79 117v160h-241v-160c0 -100 12 -117 79 -117v-21h-229v21c66 0 79 17 79 117v160h-82v35h82v55c0 135 82 187 164 187c106 0 127 -110 67 -110
c-49 0 -22 78 -85 78c-51 0 -75 -40 -75 -155v-55h241z" />
    <glyph glyph-name="f_f_j" unicode="ffj" horiz-adv-x="911" 
d="M429 333v96c0 136 90 188 180 188c84 0 134 -56 134 -97c0 -21 -19 -34 -36 -34c-56 0 -19 98 -109 98c-54 0 -98 -28 -98 -155v-96h313v-411c0 -133 -71 -189 -147 -189s-117 49 -117 82c0 16 10 29 29 29c53 0 22 -78 93 -78c39 0 71 30 71 156v259
c0 100 -13 117 -79 117h-163v-160c0 -100 13 -117 79 -117v-21h-229v21c67 0 79 17 79 117v160h-241v-160c0 -100 12 -117 79 -117v-21h-229v21c66 0 79 17 79 117v160h-82v35h82v55c0 135 82 187 164 187c106 0 127 -110 67 -110c-49 0 -22 78 -85 78
c-51 0 -75 -40 -75 -155v-55h241z" />
    <glyph glyph-name="f_f_r" unicode="ffr" horiz-adv-x="1018" 
d="M429 333v96c0 136 83 188 164 188c106 0 127 -110 67 -110c-48 0 -22 77 -85 77c-51 0 -75 -40 -75 -155v-96h313v-55c20 40 65 72 105 72c55 0 79 -37 79 -62c0 -22 -9 -47 -40 -47c-19 0 -35 17 -35 36c0 21 -12 33 -32 33c-23 0 -77 -37 -77 -117v-55
c0 -100 12 -117 79 -117v-21h-229v21c66 0 79 17 79 117v43c0 100 -13 117 -79 117h-163v-160c0 -100 13 -117 79 -117v-21h-229v21c67 0 79 17 79 117v160h-241v-160c0 -100 12 -117 79 -117v-21h-229v21c66 0 79 17 79 117v160h-82v35h82v55c0 135 82 187 164 187
c106 0 127 -110 67 -110c-49 0 -22 78 -85 78c-51 0 -75 -40 -75 -155v-55h241z" />
    <glyph glyph-name="f_f_t" unicode="fft" horiz-adv-x="920" 
d="M429 333v96c0 136 83 188 164 188c66 0 100 -42 100 -74c0 -20 -10 -36 -33 -36c-48 0 -22 77 -85 77c-51 0 -75 -40 -75 -155v-96h133c80 0 102 56 109 121h34v-121h87v-35h-87v-200c0 -47 13 -72 45 -72c18 0 42 12 65 34l17 -17c-28 -34 -72 -57 -105 -57
c-55 0 -93 35 -93 112v200h-205v-160c0 -100 13 -117 79 -117v-21h-229v21c67 0 79 17 79 117v160h-241v-160c0 -100 12 -117 79 -117v-21h-229v21c66 0 79 17 79 117v160h-82v35h82v55c0 135 82 187 164 187c106 0 127 -110 67 -110c-49 0 -22 78 -85 78
c-51 0 -75 -40 -75 -155v-55h241z" />
    <glyph glyph-name="f_b" unicode="fb" horiz-adv-x="809" 
d="M465 231v-128c18 -48 56 -80 102 -80c77 0 113 64 113 144s-36 143 -113 143c-46 0 -84 -32 -102 -79zM394 458c0 91 -17 114 -71 114c-88 0 -135 -22 -135 -159v-80h100v-35h-100v-160c0 -100 12 -117 79 -117v-21h-229v21c66 0 79 17 79 117v160h-82v35h82v80
c0 135 71 187 181 187h167v-309c30 37 73 59 123 59c95 0 173 -82 173 -183s-78 -184 -173 -184c-54 0 -100 26 -129 67l-44 -67h-21v475z" />
    <glyph glyph-name="f_h" unicode="fh" horiz-adv-x="834" 
d="M411 458c0 91 -18 114 -71 114c-111 0 -152 -22 -152 -159v-80h100v-35h-100v-160c0 -100 12 -117 79 -117v-21h-229v21c66 0 79 17 79 117v160h-82v35h82v80c0 135 71 187 181 187h184v-322c27 34 72 72 131 72c91 0 123 -64 123 -149v-63c0 -100 12 -117 79 -117v-21
h-221v21c64 0 71 14 71 117v58c0 65 -23 107 -76 107c-50 0 -107 -43 -107 -100v-65c0 -104 7 -117 62 -117v-21h-212v21c66 0 79 17 79 117v320z" />
    <glyph glyph-name="f_j" unicode="fj" horiz-adv-x="598" 
d="M500 -78c0 -133 -71 -189 -147 -189c-75 0 -116 49 -116 82c0 16 10 29 29 29c52 0 22 -78 92 -78c40 0 71 30 71 156v259c0 100 -12 117 -79 117h-162v-160c0 -100 12 -117 79 -117v-21h-229v21c66 0 79 17 79 117v160h-82v35h82v96c0 136 90 188 180 188
c83 0 133 -56 133 -97c0 -21 -18 -34 -36 -34c-56 0 -19 98 -108 98c-54 0 -98 -28 -98 -155v-96h312v-411z" />
    <glyph glyph-name="f_r" unicode="fr" horiz-adv-x="706" 
d="M188 333h312v-55c21 40 66 72 106 72c55 0 78 -37 78 -62c0 -22 -9 -47 -40 -47c-19 0 -35 17 -35 36c0 21 -11 33 -31 33c-24 0 -78 -37 -78 -117v-55c0 -100 13 -117 79 -117v-21h-229v21c67 0 79 17 79 117v43c0 100 -12 117 -79 117h-162v-160
c0 -100 12 -117 79 -117v-21h-229v21c66 0 79 17 79 117v160h-82v35h82v96c0 136 82 188 164 188c106 0 127 -110 67 -110c-49 0 -22 77 -85 77c-51 0 -75 -40 -75 -155v-96z" />
    <glyph glyph-name="f_t" unicode="ft" horiz-adv-x="608" 
d="M320 333c80 0 103 56 109 121h34v-121h87v-35h-87v-200c0 -47 14 -72 45 -72c19 0 43 12 65 34l17 -17c-27 -34 -72 -57 -105 -57c-55 0 -92 35 -92 112v200h-205v-160c0 -100 12 -117 79 -117v-21h-229v21c66 0 79 17 79 117v160h-82v35h82v96c0 136 82 188 164 188
c66 0 100 -42 100 -74c0 -20 -11 -36 -33 -36c-49 0 -22 77 -85 77c-51 0 -75 -40 -75 -155v-96h132z" />
    <glyph glyph-name=".notdef" horiz-adv-x="500" 
 />
    <glyph glyph-name="space" unicode=" " horiz-adv-x="233" 
 />
    <glyph glyph-name="exclam" unicode="!" horiz-adv-x="313" 
d="M194 40c0 -26 -22 -48 -48 -48s-47 22 -47 48s21 48 47 48s48 -22 48 -48zM99 568c0 26 21 49 47 49s48 -23 48 -49c0 -60 -23 -126 -31 -408h-34c-8 282 -30 348 -30 408z" />
    <glyph glyph-name="quotedbl" unicode="&#x22;" horiz-adv-x="412" 
d="M75 568c0 26 21 49 47 49s48 -23 48 -49s-32 -68 -40 -175h-17c-8 107 -38 149 -38 175zM242 568c0 26 21 49 46 49c26 0 49 -23 49 -49s-32 -68 -40 -175h-17c-8 107 -38 149 -38 175z" />
    <glyph glyph-name="numbersign" unicode="#" horiz-adv-x="435" 
d="M301 314h78l-9 -52h-78l-20 -123h-40l21 123h-107l-20 -123h-40l21 123h-79l10 52h77l19 111h-77l9 53h77l21 122h40l-21 -122h106l21 122h40l-21 -122h79l-10 -53h-78zM155 314h106l19 111h-106z" />
    <glyph glyph-name="dollar" unicode="$" horiz-adv-x="483" 
d="M252 582c116 -12 158 -89 112 -105c-32 -12 -40 53 -112 65v-197l71 -36c60 -32 93 -82 93 -130c0 -95 -75 -160 -164 -163v-99h-36v101c-123 10 -186 92 -149 118c39 27 45 -65 149 -80v227l-48 25c-52 26 -100 74 -100 140c0 73 64 133 148 135v100h36v-101zM252 54
c59 3 102 42 102 103c0 42 -43 78 -102 107v-210zM216 543c-46 -4 -86 -35 -86 -76c0 -42 25 -69 86 -103v179z" />
    <glyph glyph-name="percent" unicode="%" horiz-adv-x="763" 
d="M704 128c0 -79 -67 -144 -149 -144s-149 65 -149 144c0 78 67 143 149 143s149 -65 149 -143zM591 600l-383 -618l-36 18l383 618zM357 473c0 -78 -68 -143 -149 -143c-82 0 -150 65 -150 143c0 79 68 144 150 144c81 0 149 -65 149 -144zM638 128c0 60 -26 110 -83 110
s-82 -50 -82 -110c0 -61 25 -110 82 -110s83 49 83 110zM290 473c0 61 -26 110 -82 110c-57 0 -83 -49 -83 -110c0 -60 26 -110 83 -110c56 0 82 50 82 110z" />
    <glyph glyph-name="ampersand" unicode="&#x26;" horiz-adv-x="657" 
d="M233 357c70 40 135 77 135 145c0 44 -34 76 -79 76c-64 0 -95 -50 -95 -89c0 -46 14 -87 39 -132zM385 75c-72 76 -137 147 -183 212c-37 -32 -67 -70 -67 -137c0 -65 55 -128 133 -128c52 0 90 21 117 53zM409 50c-34 -42 -83 -67 -149 -67c-95 0 -197 55 -197 175
c0 80 52 126 114 165c-35 55 -55 105 -55 150c0 83 76 144 167 144c77 0 143 -47 143 -115c0 -89 -98 -120 -180 -176c37 -55 91 -117 163 -196c7 19 12 39 14 60c9 73 -5 90 -88 90v21h226v-21c-84 0 -94 -20 -104 -90c-4 -32 -11 -62 -23 -87c39 -45 84 -80 121 -80
c18 0 40 10 65 35l17 -17c-28 -38 -68 -58 -101 -58c-54 0 -94 29 -133 67z" />
    <glyph glyph-name="quoteright" unicode="&#x2019;" horiz-adv-x="251" 
d="M73 414c37 39 51 68 57 107c-2 -1 -6 -1 -8 -1c-26 0 -47 23 -47 48c0 26 21 49 47 49s54 -19 54 -64c0 -44 -30 -111 -92 -150z" />
    <glyph glyph-name="parenleft" unicode="(" horiz-adv-x="358" 
d="M330 -90l-22 -21c-127 104 -225 236 -225 406s98 302 224 406l23 -21c-56 -62 -177 -195 -177 -385s121 -323 177 -385z" />
    <glyph glyph-name="parenright" unicode=")" horiz-adv-x="358" 
d="M275 295c0 -170 -97 -302 -224 -406l-23 21c56 62 178 195 178 385s-122 323 -178 385l24 21c126 -104 223 -236 223 -406z" />
    <glyph glyph-name="asterisk" unicode="*" horiz-adv-x="407" 
d="M194 414c-65 -42 -65 -82 -86 -95c-23 -14 -53 -5 -66 18c-14 22 -4 51 18 64c22 12 56 -5 125 29c-70 35 -103 17 -125 29c-22 14 -32 42 -18 64c13 23 43 32 66 18c21 -13 21 -53 86 -95c-4 77 -37 97 -37 122c0 26 21 49 46 49c26 0 49 -23 49 -49
c0 -25 -34 -45 -39 -123c65 43 65 82 87 94c23 14 51 7 65 -16c13 -22 5 -52 -17 -65s-56 6 -126 -28c70 -34 104 -15 126 -27c22 -14 30 -44 17 -66c-14 -23 -42 -30 -65 -16c-22 12 -22 51 -88 94c6 -78 40 -98 40 -123c0 -26 -23 -49 -49 -49c-25 0 -46 23 -46 49
c0 25 33 45 37 122z" />
    <glyph glyph-name="plus" unicode="+" 
d="M251 243h157v-44h-157v-157h-44v157h-157v44h157v157h44v-157z" />
    <glyph glyph-name="comma" unicode="," horiz-adv-x="313" 
d="M154 -2c-2 -1 -6 -1 -8 -1c-26 0 -47 23 -47 49s21 48 47 48s54 -19 54 -63s-30 -112 -92 -151l-11 12c37 39 51 67 57 106z" />
    <glyph glyph-name="hyphen" unicode="-" 
d="M375 183h-292v44h292v-44z" />
    <glyph glyph-name="period" unicode="." horiz-adv-x="313" 
d="M211 44c0 -28 -26 -52 -57 -52s-55 24 -55 52c0 29 24 53 55 53s57 -24 57 -53z" />
    <glyph glyph-name="slash" unicode="/" horiz-adv-x="348" 
d="M338 604l-288 -622l-40 14l288 622z" />
    <glyph glyph-name="zero" unicode="0" horiz-adv-x="592" 
d="M296 450c128 0 233 -105 233 -233c0 -129 -105 -234 -233 -234s-233 105 -233 234c0 128 105 233 233 233zM296 393c-93 0 -169 -80 -169 -176c0 -97 76 -176 169 -176c92 0 169 79 169 176c0 96 -77 176 -169 176z" />
    <glyph glyph-name="one" unicode="1" horiz-adv-x="363" 
d="M313 0h-263v21c83 0 96 17 96 117v158c0 100 -13 117 -96 117v20h263v-20c-84 0 -96 -17 -96 -117v-158c0 -100 12 -117 96 -117v-21z" />
    <glyph glyph-name="two" unicode="2" horiz-adv-x="520" 
d="M338 176l-154 -118h259l-25 -137h-21c0 66 -17 79 -117 79h-206v24l177 139c77 61 96 115 96 152c0 58 -44 93 -108 93c-69 0 -136 -68 -86 -150l-30 -31c-120 72 -58 223 116 223c98 0 191 -51 191 -134c0 -80 -92 -140 -92 -140z" />
    <glyph glyph-name="three" unicode="3" horiz-adv-x="508" 
d="M258 115c-20 -16 -35 -46 -55 -46c-9 0 -21 8 -21 23c0 14 11 26 26 37l74 59c36 28 66 76 66 128c0 57 -44 92 -109 92c-59 0 -138 -60 -86 -150l-30 -31c-120 72 -58 223 116 223c98 0 191 -51 191 -134c0 -80 -92 -140 -92 -140l-46 -35c97 -20 156 -84 156 -161
c0 -91 -86 -167 -199 -167c-119 0 -185 74 -185 113c0 14 9 23 26 23c23 0 29 -35 53 -59c17 -18 44 -39 98 -39c83 0 118 56 118 129c0 57 -27 119 -101 135z" />
    <glyph glyph-name="four" unicode="4" horiz-adv-x="540" 
d="M333 492v-414h11c92 0 103 24 116 76l5 20h21l-8 -132h-145v-75c0 -100 13 -116 96 -116v-21h-262v21c83 0 96 16 96 116v75h-227v19l279 431h18zM263 78v267l-173 -267h173z" />
    <glyph glyph-name="five" unicode="5" horiz-adv-x="493" 
d="M125 186c22 27 71 44 112 44c114 0 193 -93 193 -208s-91 -209 -202 -209c-105 0 -163 70 -163 109c0 16 8 27 28 27c40 0 25 -98 135 -98c82 0 119 76 119 171s-35 166 -119 166c-53 0 -100 -22 -112 -98h-37l31 343h169c92 0 103 22 116 76h23l-25 -146h-253z" />
    <glyph glyph-name="six" unicode="6" horiz-adv-x="525" 
d="M145 244c5 -196 84 -221 120 -221c88 0 119 75 119 149c0 72 -31 146 -119 146c-59 0 -108 -32 -120 -74zM146 299c24 33 62 59 119 59c111 0 202 -84 202 -187s-91 -188 -202 -188c-76 0 -202 50 -202 283c0 170 75 354 230 354c82 0 147 -43 147 -76
c0 -17 -16 -26 -27 -26c-31 0 -45 70 -120 70c-111 0 -141 -149 -147 -289z" />
    <glyph glyph-name="seven" unicode="7" horiz-adv-x="471" 
d="M418 442v-28l-220 -552c-13 -33 -25 -55 -54 -47c-15 4 -34 24 -16 60l238 496h-163c-92 0 -103 -22 -116 -76l-5 -20h-21l42 246h20c0 -67 17 -79 117 -79h178z" />
    <glyph glyph-name="eight" unicode="8" horiz-adv-x="528" 
d="M273 358c49 27 78 76 78 131c0 39 -23 89 -87 89s-86 -50 -86 -89c0 -65 39 -100 95 -131zM241 310c-58 -33 -98 -87 -98 -160c0 -61 38 -128 121 -128s121 67 121 120c0 82 -68 125 -144 168zM304 342c79 -40 162 -81 162 -184c0 -100 -91 -175 -202 -175
s-201 74 -201 167c0 103 73 147 146 178c-60 37 -112 77 -112 145c0 83 76 144 167 144c92 0 168 -62 168 -136c0 -70 -61 -108 -128 -139z" />
    <glyph glyph-name="nine" unicode="9" horiz-adv-x="525" 
d="M463 168c0 -171 -76 -355 -230 -355c-83 0 -148 44 -148 76c0 18 16 27 28 27c30 0 44 -70 119 -70c111 0 141 148 147 288c-24 -32 -62 -59 -119 -59c-111 0 -202 84 -202 188c0 103 91 187 202 187c76 0 203 -50 203 -282zM380 189c-5 196 -84 221 -120 221
c-88 0 -119 -75 -119 -148s31 -147 119 -147c59 0 108 33 120 74z" />
    <glyph glyph-name="colon" unicode=":" horiz-adv-x="335" 
d="M215 40c0 -26 -22 -48 -48 -48s-47 22 -47 48s21 48 47 48s48 -22 48 -48zM215 230c0 -26 -22 -48 -48 -48s-47 22 -47 48s21 48 47 48s48 -22 48 -48z" />
    <glyph glyph-name="semicolon" unicode=";" horiz-adv-x="335" 
d="M215 230c0 -26 -22 -48 -48 -48s-47 22 -47 48s21 48 47 48s48 -22 48 -48zM175 -8h-8c-26 0 -47 22 -47 48s21 48 47 48s54 -19 54 -63s-30 -112 -92 -151l-11 12c37 39 51 67 57 106z" />
    <glyph glyph-name="less" unicode="&#x3c;" horiz-adv-x="483" 
d="M422 28l-18 -23l-329 218l329 217l18 -22l-231 -195z" />
    <glyph glyph-name="equal" unicode="=" 
d="M375 258h-292v45h292v-45zM375 133h-292v45h292v-45z" />
    <glyph glyph-name="greater" unicode="&#x3e;" horiz-adv-x="483" 
d="M62 28l231 195l-231 195l17 22l329 -217l-329 -218z" />
    <glyph glyph-name="question" unicode="?" horiz-adv-x="504" 
d="M273 40c0 -26 -22 -48 -48 -48s-47 22 -47 48s21 48 47 48s48 -22 48 -48zM388 459c0 80 -74 126 -155 126c-75 0 -117 -36 -117 -67c0 -15 10 -26 43 -26c22 0 40 -18 40 -39c0 -33 -31 -45 -51 -45c-34 0 -75 35 -75 93c0 62 71 116 168 116c109 0 213 -63 213 -169
c0 -176 -207 -194 -207 -194v-94h-44v164c85 0 185 35 185 135z" />
    <glyph glyph-name="at" unicode="@" horiz-adv-x="708" 
d="M426 116l31 177c-10 11 -29 25 -62 25c-58 0 -102 -71 -116 -151c-13 -80 1 -144 58 -144c37 0 79 39 89 93zM508 23c50 0 129 96 130 208c0 145 -110 226 -232 226c-170 0 -301 -147 -301 -309c0 -168 110 -275 265 -275c79 0 147 24 212 64l11 -18
c-80 -57 -159 -80 -231 -80c-179 0 -323 132 -323 306c0 193 159 351 352 351c157 0 279 -105 279 -263c0 -131 -102 -246 -186 -246c-38 0 -61 26 -66 51c-22 -30 -68 -55 -99 -55c-84 0 -121 83 -104 184c18 101 101 183 185 183c27 0 43 -5 64 -17h56l-44 -250
c-8 -43 3 -60 32 -60z" />
    <glyph glyph-name="A" unicode="A" horiz-adv-x="617" 
d="M166 208l-48 -111c-24 -54 -5 -76 78 -76v-21h-234v21c84 0 89 17 120 87l220 509h13l221 -509c31 -70 36 -87 119 -87v-21h-277v21c83 0 102 21 78 76l-48 111h-242zM391 245l-105 241l-104 -241h209z" />
    <glyph glyph-name="B" unicode="B" horiz-adv-x="608" 
d="M334 37c87 0 128 59 128 131c0 73 -41 133 -128 133h-121v-148c0 -100 12 -116 95 -116h26zM213 563v-225h89c75 0 110 50 110 112s-35 113 -110 113h-89zM422 326c77 -24 128 -86 128 -158c0 -93 -76 -168 -215 -168h-297v21c83 0 95 17 95 117v325
c0 100 -12 116 -95 116v21h269c127 0 193 -67 193 -150c0 -52 -32 -97 -78 -124z" />
    <glyph glyph-name="C" unicode="C" horiz-adv-x="692" 
d="M618 11h-20c-5 24 -21 48 -34 57c-51 -53 -116 -85 -186 -85c-169 0 -307 143 -307 317s138 317 307 317c70 0 135 -31 186 -85c13 10 29 32 34 57h20v-220h-20c-28 130 -105 209 -216 209c-160 0 -218 -154 -218 -278s58 -277 218 -277c111 0 188 80 216 208h20v-220z
" />
    <glyph glyph-name="D" unicode="D" horiz-adv-x="713" 
d="M38 0v21c83 0 95 17 95 117v325c0 100 -12 116 -95 116v21h271c233 0 334 -135 334 -300s-101 -300 -334 -300h-271zM213 563v-410c0 -100 11 -116 93 -116h4c195 0 237 146 237 263s-42 263 -237 263h-97z" />
    <glyph glyph-name="E" unicode="E" horiz-adv-x="583" 
d="M38 0v21c83 0 95 17 95 117v325c0 100 -12 116 -95 116v21h456l9 -132h-21l-5 20c-14 52 -24 75 -116 75h-148v-227h50c100 0 116 12 116 96h21v-229h-21c0 84 -16 96 -116 96h-50v-146c0 -100 12 -116 95 -116h86c92 0 103 23 116 76l5 20h21l-8 -133h-490z" />
    <glyph glyph-name="F" unicode="F" horiz-adv-x="550" 
d="M213 563v-227h50c100 0 116 12 116 96h21v-229h-21c0 84 -16 96 -116 96h-50v-161c0 -100 12 -117 95 -117v-21h-270v21c83 0 95 17 95 117v325c0 100 -12 116 -95 116v21h473l8 -132h-21l-5 20c-13 52 -24 75 -115 75h-165z" />
    <glyph glyph-name="G" unicode="G" horiz-adv-x="725" 
d="M565 163c0 43 -25 65 -94 65v20h262v-20c-83 0 -95 -17 -95 -117v-76c-111 0 -156 -52 -260 -52c-169 0 -307 143 -307 317s138 317 307 317c70 0 135 -31 186 -85c13 10 29 32 34 57h20v-220h-20c-27 130 -105 209 -217 209c-160 0 -218 -154 -218 -278
s52 -274 237 -274c87 0 165 47 165 137z" />
    <glyph glyph-name="H" unicode="H" horiz-adv-x="765" 
d="M213 300v-162c0 -100 12 -117 95 -117v-21h-270v21c83 0 95 17 95 117v325c0 100 -12 116 -95 116v21h270v-21c-83 0 -95 -16 -95 -116v-126h340v126c0 100 -13 116 -96 116v21h271v-21c-84 0 -96 -16 -96 -116v-325c0 -100 12 -117 96 -117v-21h-271v21
c83 0 96 17 96 117v162h-340z" />
    <glyph glyph-name="I" unicode="I" horiz-adv-x="346" 
d="M308 0h-270v21c83 0 95 17 95 117v325c0 100 -12 116 -95 116v21h270v-21c-83 0 -95 -16 -95 -116v-325c0 -100 12 -117 95 -117v-21z" />
    <glyph glyph-name="J" unicode="J" horiz-adv-x="346" 
d="M38 -193c59 0 95 42 95 138v518c0 100 -12 116 -95 116v21h270v-21c-83 0 -95 -16 -95 -116v-507c0 -143 -97 -179 -175 -179c-59 0 -147 33 -147 95c0 19 15 34 35 34c19 0 34 -15 34 -34c0 -30 26 -65 78 -65z" />
    <glyph glyph-name="K" unicode="K" horiz-adv-x="730" 
d="M296 348l310 -269c37 -32 102 -58 129 -58v-21h-281v21c66 0 78 24 38 58l-253 219l-26 -21v-139c0 -100 12 -117 95 -117v-21h-270v21c83 0 95 17 95 117v325c0 100 -12 116 -95 116v21h270v-21c-83 0 -95 -16 -95 -116v-140l205 175c63 54 67 81 4 81v21h232v-21
c-77 0 -113 -21 -183 -81z" />
    <glyph glyph-name="L" unicode="L" horiz-adv-x="575" 
d="M38 0v21c83 0 95 17 95 117v325c0 100 -12 116 -95 116v21h270v-21c-83 0 -95 -16 -95 -116v-310c0 -100 12 -116 95 -116h120c91 0 102 23 115 76l5 20h21l-8 -133h-523z" />
    <glyph glyph-name="M" unicode="M" horiz-adv-x="825" 
d="M170 494v-356c0 -100 13 -117 96 -117v-21h-228v21c83 0 95 17 95 117v325c0 100 -12 116 -95 116v21h170l212 -487l211 487h157v-21c-84 0 -96 -16 -96 -116v-325c0 -100 12 -117 96 -117v-21h-270v21c83 0 95 17 95 117v326l-208 -481h-13z" />
    <glyph glyph-name="N" unicode="N" horiz-adv-x="725" 
d="M563 124v339c0 100 -12 116 -95 116v21h228v-21c-83 0 -96 -16 -96 -116v-480h-23l-407 503v-348c0 -100 13 -117 96 -117v-21h-228v21c83 0 95 17 95 117v325c0 100 -12 116 -95 116v21h141z" />
    <glyph glyph-name="O" unicode="O" horiz-adv-x="775" 
d="M721 300c0 -174 -150 -317 -333 -317c-184 0 -334 143 -334 317s150 317 334 317c183 0 333 -143 333 -317zM388 578c-173 0 -239 -154 -239 -278s66 -277 239 -277c172 0 238 153 238 277s-66 278 -238 278z" />
    <glyph glyph-name="P" unicode="P" horiz-adv-x="550" 
d="M302 600c139 0 215 -76 215 -169s-76 -168 -215 -168h-89v-125c0 -100 12 -117 95 -117v-21h-270v21c83 0 95 17 95 117v325c0 100 -12 116 -95 116v21h264zM301 299c87 0 127 59 127 132c0 72 -40 132 -127 132h-88v-264h88z" />
    <glyph glyph-name="Q" unicode="Q" horiz-adv-x="808" 
d="M350 -13c-163 28 -279 159 -279 313c0 174 150 317 333 317c184 0 334 -143 334 -317c0 -168 -135 -297 -300 -315c-39 -4 -95 -22 -133 -57c195 39 254 -104 388 -104c91 0 140 31 173 97l16 -8c-24 -70 -90 -166 -208 -166c-126 0 -229 157 -326 157
c-96 0 -85 -62 -120 -67c-19 -3 -34 11 -34 32c0 30 66 91 156 118zM404 578c-172 0 -241 -154 -241 -278s69 -277 241 -277c173 0 242 153 242 277s-69 278 -242 278z" />
    <glyph glyph-name="R" unicode="R" horiz-adv-x="620" 
d="M301 299c87 0 127 59 127 132c0 72 -40 132 -127 132h-88v-264h88zM339 263l98 -115c59 -70 126 -120 186 -127v-21h-165l-198 263h-47v-125c0 -100 12 -117 95 -117v-21h-270v21c83 0 95 17 95 117v325c0 100 -12 116 -95 116v21h264c139 0 215 -76 215 -169
c0 -87 -65 -156 -178 -168z" />
    <glyph glyph-name="S" unicode="S" horiz-adv-x="507" 
d="M111 30c-12 -10 -24 -25 -29 -47h-20v220h21s1 -180 184 -180c71 0 125 46 125 110c0 46 -46 85 -115 121l-96 49c-58 30 -111 89 -111 165c0 83 69 149 166 149c59 0 92 -19 122 -41c12 10 24 25 29 46h20v-220h-21c-7 80 -37 175 -153 175c-56 0 -97 -39 -97 -89
c0 -52 35 -79 122 -124l95 -49c77 -39 105 -97 105 -152c0 -109 -88 -180 -191 -180c-76 0 -124 40 -156 47z" />
    <glyph glyph-name="T" unicode="T" horiz-adv-x="641" 
d="M624 600l9 -135h-21l-5 20c-14 53 -24 76 -116 76h-131v-423c0 -100 13 -117 96 -117v-21h-271v21c83 0 96 17 96 117v423h-131c-92 0 -102 -23 -116 -76l-5 -20h-21l9 135h607z" />
    <glyph glyph-name="U" unicode="U" horiz-adv-x="716" 
d="M557 463c0 100 -13 116 -96 116v21h234v-21c-83 0 -96 -16 -96 -116v-240c0 -157 -108 -240 -241 -240c-132 0 -240 83 -240 240v240c0 100 -12 116 -95 116v21h270v-21c-83 0 -95 -16 -95 -116v-245c0 -130 75 -190 175 -190c105 0 184 60 184 190v245z" />
    <glyph glyph-name="V" unicode="V" horiz-adv-x="617" 
d="M654 579c-83 0 -88 -16 -119 -87l-220 -509h-13l-221 509c-31 71 -36 87 -119 87v21h277v-21c-83 0 -102 -21 -78 -76l170 -389l168 389c24 54 5 76 -78 76v21h233v-21z" />
    <glyph glyph-name="W" unicode="W" horiz-adv-x="793" 
d="M397 426l-141 -443h-13l-162 509c-23 74 -36 87 -119 87v21h280v-21c-84 0 -96 -20 -79 -76l110 -345l140 442h14l140 -441l109 344c17 55 2 76 -70 76v21h225v-21c-83 0 -98 -20 -119 -87l-162 -509h-13z" />
    <glyph glyph-name="X" unicode="X" horiz-adv-x="623" 
d="M298 263l-130 -166c-30 -39 -30 -76 53 -76v-21h-238v21c71 0 111 44 145 87l146 190l-131 194c-35 51 -74 87 -144 87v21h284v-21c-83 0 -83 -31 -53 -76l95 -140l109 140c36 46 30 76 -53 76v21h237v-21c-83 0 -103 -35 -144 -87l-126 -164l149 -220
c38 -56 74 -87 144 -87v-21h-285v21c83 0 85 29 53 76z" />
    <glyph glyph-name="Y" unicode="Y" horiz-adv-x="625" 
d="M353 242v-104c0 -100 12 -117 95 -117v-21h-270v21c83 0 95 17 95 117v97l-166 257c-43 66 -74 87 -145 87v21h285v-21c-84 0 -84 -30 -54 -76l144 -220l146 220c35 54 30 76 -54 76v21h234v-21c-84 0 -105 -28 -145 -87z" />
    <glyph glyph-name="Z" unicode="Z" horiz-adv-x="575" 
d="M380 563h-184c-92 0 -103 -23 -116 -75l-5 -20h-21l9 132h426v-12l-345 -551h225c92 0 103 23 116 76l5 20h21l-8 -133h-460v23z" />
    <glyph glyph-name="bracketleft" unicode="[" horiz-adv-x="358" 
d="M319 -88h-202v766h202v-32h-137v-702h137v-32z" />
    <glyph glyph-name="backslash" unicode="\" horiz-adv-x="348" 
d="M9 604l40 14l288 -622l-40 -14z" />
    <glyph glyph-name="bracketright" unicode="]" horiz-adv-x="358" 
d="M242 -88h-203v32h138v702h-138v32h203v-766z" />
    <glyph glyph-name="asciicircum" unicode="^" horiz-adv-x="485" 
d="M243 617l200 -279l-18 -15l-182 182l-184 -182l-17 15z" />
    <glyph glyph-name="underscore" unicode="_" horiz-adv-x="358" 
d="M359 -44h-360v44h360v-44z" />
    <glyph glyph-name="quoteleft" unicode="&#x2018;" horiz-adv-x="251" 
d="M178 613c-37 -40 -51 -68 -57 -107c2 1 6 1 8 1c26 0 47 -23 47 -49c0 -25 -21 -48 -47 -48s-54 19 -54 63c0 45 30 112 92 151z" />
    <glyph glyph-name="a" unicode="a" horiz-adv-x="403" 
d="M387 20c-19 -20 -44 -31 -66 -31c-39 0 -63 22 -68 58c-49 -44 -85 -60 -125 -60c-49 0 -90 31 -90 84c0 85 99 122 213 142c0 75 -10 105 -67 105c-23 0 -57 -16 -57 -48c0 -20 -15 -35 -34 -35c-20 0 -35 15 -35 35c0 48 63 80 127 80c97 0 137 -41 137 -136v-151
c0 -25 8 -39 23 -39c10 0 21 8 28 15zM251 80v102c-95 -22 -138 -55 -138 -99c0 -32 22 -51 47 -51c21 0 45 7 91 48z" />
    <glyph glyph-name="b" unicode="b" horiz-adv-x="497" 
d="M153 231v-128c18 -48 55 -80 101 -80c78 0 114 64 114 144s-36 143 -114 143c-46 0 -83 -32 -101 -79zM147 50l-44 -67h-21v471c0 100 -13 117 -79 117v21l150 25v-326c30 37 72 59 122 59c95 0 173 -82 173 -183s-78 -184 -173 -184c-53 0 -99 26 -128 67z" />
    <glyph glyph-name="c" unicode="c" horiz-adv-x="393" 
d="M225 318c-53 0 -96 -68 -96 -160c0 -80 39 -133 121 -133c33 0 74 15 107 46l17 -22c-38 -41 -92 -66 -149 -66c-111 0 -177 75 -177 175c0 118 97 192 177 192c83 0 119 -35 119 -72c0 -16 -10 -43 -44 -43c-22 0 -39 18 -39 40c0 33 -18 43 -36 43z" />
    <glyph glyph-name="d" unicode="d" horiz-adv-x="513" 
d="M344 102v129c-18 47 -56 79 -101 79c-78 0 -114 -63 -114 -143s36 -144 114 -144c45 0 83 32 101 79zM344 291v163c0 100 -12 117 -79 117v21l150 25v-471c0 -100 13 -117 79 -117v-21l-133 -25c-5 10 -13 45 -16 61c-28 -35 -68 -61 -123 -61c-95 0 -174 83 -174 184
s79 183 174 183c50 0 92 -22 122 -59z" />
    <glyph glyph-name="e" unicode="e" horiz-adv-x="422" 
d="M134 229h166c11 32 -6 81 -72 81c-43 0 -80 -32 -94 -81zM128 192c-12 -94 27 -167 130 -167c33 0 81 19 110 46l18 -22c-35 -37 -96 -66 -153 -66c-110 0 -185 83 -185 184c0 106 92 183 185 183c89 0 160 -72 136 -158h-241z" />
    <glyph glyph-name="f" unicode="f" horiz-adv-x="313" 
d="M188 298v-160c0 -100 12 -117 79 -117v-21h-229v21c66 0 79 17 79 117v160h-82v35h82v96c0 136 82 188 164 188c66 0 100 -42 100 -74c0 -20 -11 -36 -33 -36c-49 0 -22 77 -85 77c-51 0 -75 -40 -75 -155v-96h100v-35h-100z" />
    <glyph glyph-name="g" unicode="g" horiz-adv-x="423" 
d="M263 214c0 59 -23 104 -72 104s-73 -45 -73 -104c0 -58 24 -103 73 -103s72 45 72 103zM98 36c0 -27 58 -35 91 -38c138 -11 182 -70 182 -131c0 -83 -79 -134 -177 -134c-169 0 -235 124 -112 188l18 -11c-83 -93 15 -138 94 -138c62 0 124 30 124 77s-50 62 -134 70
c-82 8 -142 33 -142 93c0 36 32 64 84 80c-50 24 -84 68 -84 122c0 75 67 136 149 136c40 0 76 -14 103 -38c18 22 54 38 75 38c69 0 73 -82 33 -84c-44 -3 -19 45 -60 45c-8 0 -20 -5 -31 -16c18 -22 29 -51 29 -81c0 -74 -65 -127 -130 -136c-44 -5 -112 -15 -112 -42z
" />
    <glyph glyph-name="h" unicode="h" horiz-adv-x="522" 
d="M503 0h-221v21c63 0 71 14 71 117v58c0 65 -24 107 -76 107c-50 0 -108 -43 -108 -100v-65c0 -104 8 -117 63 -117v-21h-213v21c67 0 79 17 79 117v316c0 100 -12 117 -79 117v21l150 25v-339c28 34 73 72 131 72c92 0 123 -64 123 -149v-63c0 -100 13 -117 80 -117v-21z
" />
    <glyph glyph-name="i" unicode="i" horiz-adv-x="286" 
d="M267 0h-229v21c66 0 79 17 79 117v50c0 100 -13 116 -79 116v21l150 25v-212c0 -100 12 -117 79 -117v-21zM196 493c0 -25 -20 -45 -44 -45s-44 20 -44 45c0 24 20 44 44 44s44 -20 44 -44z" />
    <glyph glyph-name="j" unicode="j" horiz-adv-x="273" 
d="M188 -78c0 -133 -71 -189 -147 -189s-117 49 -117 82c0 16 10 29 29 29c53 0 22 -78 93 -78c39 0 71 30 71 156v266c0 100 -13 116 -79 116v21l150 25v-428zM196 493c0 -25 -20 -45 -44 -45s-44 20 -44 45c0 24 20 44 44 44s44 -20 44 -44z" />
    <glyph glyph-name="k" unicode="k" horiz-adv-x="440" 
d="M233 207l161 -162c17 -17 46 -24 59 -24v-21h-111l-164 163l-9 -7v-18c0 -100 13 -117 79 -117v-21h-229v21c67 0 79 17 79 117v316c0 100 -12 117 -79 117v21l150 25v-425l84 68c33 27 19 53 -30 53v20h200v-20s-66 -5 -105 -36z" />
    <glyph glyph-name="l" unicode="l" horiz-adv-x="268" 
d="M248 0h-229v21c67 0 79 17 79 117v316c0 100 -12 117 -79 117v21l150 25v-479c0 -100 13 -117 79 -117v-21z" />
    <glyph glyph-name="m" unicode="m" horiz-adv-x="778" 
d="M433 203v-65c0 -106 7 -117 63 -117v-21h-196v21c55 0 63 11 63 117v58c0 65 -20 107 -72 107c-35 0 -103 -38 -103 -100v-65c0 -104 7 -117 62 -117v-21h-212v21c66 0 79 17 79 117v50c0 100 -13 116 -79 116v21l133 25c5 -10 14 -51 17 -72c27 34 72 72 130 72
c61 0 92 -29 106 -75c23 33 81 75 140 75c89 0 115 -64 115 -149v-63c0 -100 13 -117 79 -117v-21h-212v21c55 0 62 11 62 117v58c0 65 -19 107 -71 107c-34 0 -104 -38 -104 -100z" />
    <glyph glyph-name="n" unicode="n" horiz-adv-x="555" 
d="M188 278c27 34 73 72 139 72c90 0 130 -64 130 -149v-63c0 -100 12 -117 79 -117v-21h-229v21c65 0 79 17 79 117v58c0 65 -23 107 -83 107c-55 0 -115 -45 -115 -100v-65c0 -103 8 -117 70 -117v-21h-220v21c66 0 79 17 79 117v50c0 100 -13 116 -79 116v21l133 25
c5 -10 14 -51 17 -72z" />
    <glyph glyph-name="o" unicode="o" horiz-adv-x="500" 
d="M452 167c0 -101 -91 -184 -202 -184s-202 83 -202 184s91 183 202 183s202 -82 202 -183zM371 167c0 80 -38 145 -121 145c-82 0 -121 -65 -121 -145s39 -145 121 -145c83 0 121 65 121 145z" />
    <glyph glyph-name="p" unicode="p" horiz-adv-x="513" 
d="M384 167c0 80 -36 143 -113 143c-46 0 -83 -32 -102 -78v-129c19 -48 56 -80 102 -80c77 0 113 64 113 144zM169 -113c0 -100 13 -116 79 -116v-21h-229v21c67 0 79 16 79 116v301c0 100 -12 116 -79 116v21l134 25c5 -10 12 -45 15 -61c29 35 69 61 124 61
c95 0 173 -82 173 -183s-78 -184 -173 -184c-50 0 -93 23 -123 60v-156z" />
    <glyph glyph-name="q" unicode="q" horiz-adv-x="497" 
d="M344 103v128c-18 47 -56 79 -101 79c-78 0 -114 -63 -114 -143s36 -144 114 -144c45 0 83 32 101 80zM415 -113c0 -100 13 -116 79 -116v-21h-229v21c67 0 79 16 79 116v156c-30 -37 -72 -60 -122 -60c-95 0 -174 83 -174 184s79 183 174 183c53 0 99 -26 128 -67l44 67
h21v-463z" />
    <glyph glyph-name="r" unicode="r" horiz-adv-x="393" 
d="M372 288c0 -22 -9 -47 -40 -47c-19 0 -35 17 -35 36c0 21 -12 33 -32 33c-23 0 -77 -37 -77 -117v-55c0 -100 12 -117 79 -117v-21h-229v21c66 0 79 17 79 117v50c0 100 -13 116 -79 116v21l133 25c5 -10 14 -51 17 -72c20 40 65 72 105 72c55 0 79 -37 79 -62z" />
    <glyph glyph-name="s" unicode="s" horiz-adv-x="340" 
d="M295 92c0 -66 -54 -109 -119 -109c-69 0 -107 71 -107 0h-21v146h21c0 -45 38 -112 109 -112c33 0 57 23 57 51c0 25 -22 43 -56 61l-56 30c-48 26 -66 68 -66 100c0 54 50 91 101 91c75 0 91 -52 91 0h21v-116h-21c0 42 -30 84 -81 84c-34 0 -51 -18 -51 -43
c0 -24 16 -37 61 -61l48 -26c44 -25 69 -60 69 -96z" />
    <glyph glyph-name="t" unicode="t" horiz-adv-x="295" 
d="M80 298h-52v24c60 13 82 56 89 121h34v-110h87v-35h-87v-200c0 -47 13 -72 45 -72c18 0 42 12 65 34l17 -17c-28 -34 -72 -57 -105 -57c-55 0 -93 35 -93 112v200z" />
    <glyph glyph-name="u" unicode="u" horiz-adv-x="522" 
d="M503 8l-134 -25c-5 10 -13 46 -16 64c-25 -26 -73 -64 -131 -64c-92 0 -124 65 -124 150v63c0 100 -12 117 -79 117v20h150v-195c0 -65 22 -107 76 -107c39 0 108 37 108 99v66c0 100 -13 117 -80 117v20h150v-187c0 -100 13 -117 80 -117v-21z" />
    <glyph glyph-name="v" unicode="v" horiz-adv-x="373" 
d="M385 313c-35 0 -52 -15 -71 -59l-113 -272h-20l-122 272c-19 43 -35 59 -68 59v20h177v-20c-45 0 -52 -11 -31 -59l71 -160l66 160c19 43 15 59 -29 59v20h140v-20z" />
    <glyph glyph-name="w" unicode="w" horiz-adv-x="558" 
d="M282 213l-86 -231h-20l-118 272c-19 44 -37 59 -68 59v20h181v-20c-43 0 -53 -20 -36 -59l68 -156l81 235h22l102 -235l54 156c14 40 6 59 -29 59v20h140v-20c-35 0 -55 -15 -71 -59l-101 -272h-20z" />
    <glyph glyph-name="x" unicode="x" horiz-adv-x="403" 
d="M185 132l-50 -53c-40 -40 -28 -58 21 -58v-21h-154v21c20 0 43 14 87 58l76 80l-69 95c-36 47 -55 59 -88 59v20h202v-20c-57 0 -64 -13 -29 -59l32 -44l42 44c40 40 18 59 -21 59v20h163v-20c-28 0 -56 -17 -96 -59l-68 -71l75 -104c31 -45 55 -58 95 -58v-21h-210v21
c54 0 57 19 30 58z" />
    <glyph glyph-name="y" unicode="y" horiz-adv-x="373" 
d="M48 -237c0 39 45 39 76 117l50 125l-115 249c-21 44 -36 59 -67 59v20h177v-20c-44 0 -55 -10 -32 -59l73 -160l64 160c19 45 12 59 -29 59v20h140v-20c-31 0 -53 -15 -71 -59l-195 -487c-8 -20 -21 -37 -37 -37c-14 0 -34 8 -34 33z" />
    <glyph glyph-name="z" unicode="z" horiz-adv-x="372" 
d="M324 333v-16l-191 -285h61c92 0 105 17 115 59l5 20h21l-7 -111h-290v17l190 285h-47c-92 0 -105 -18 -115 -59l-5 -20h-21l8 110h276z" />
    <glyph glyph-name="braceleft" unicode="{" horiz-adv-x="358" 
d="M42 304c58 20 96 31 96 174c0 140 90 175 177 225l17 -21c-76 -52 -128 -87 -128 -202c0 -145 -29 -167 -100 -184c71 -17 100 -39 100 -184c0 -115 52 -150 128 -202l-17 -21c-87 50 -177 84 -177 225c0 143 -38 154 -96 174v16z" />
    <glyph glyph-name="bar" unicode="|" horiz-adv-x="274" 
d="M115 686h44v-782h-44v782z" />
    <glyph glyph-name="braceright" unicode="}" horiz-adv-x="358" 
d="M317 288c-59 -20 -96 -31 -96 -174c0 -141 -90 -175 -178 -225l-16 21c76 52 127 87 127 202c0 145 29 167 100 184c-71 17 -100 39 -100 184c0 115 -51 150 -127 202l16 21c88 -50 178 -85 178 -225c0 -143 37 -154 96 -174v-16z" />
    <glyph glyph-name="asciitilde" unicode="~" horiz-adv-x="423" 
d="M298 203c30 0 48 23 58 62h21c0 -83 -37 -132 -92 -132c-47 0 -125 74 -164 74c-24 0 -48 -29 -56 -62h-21c0 77 39 129 86 129c53 0 120 -71 168 -71z" />
    <glyph glyph-name="exclamdown" unicode="&#xa1;" horiz-adv-x="313" 
d="M194 390c0 -26 -22 -48 -48 -48s-47 22 -47 48s21 48 47 48s48 -22 48 -48zM194 -138c0 -26 -22 -49 -48 -49s-47 23 -47 49c0 60 22 126 30 408h34c8 -282 31 -348 31 -408z" />
    <glyph glyph-name="cent" unicode="&#xa2;" horiz-adv-x="447" 
d="M250 83v-166h-36v168c-99 12 -156 82 -156 173c0 104 79 174 156 189v170h36v-167c85 -2 121 -36 121 -72c0 -16 -10 -43 -44 -43c-22 0 -39 18 -39 40c0 32 -20 43 -38 43v-293c8 -1 17 -2 26 -2c37 0 74 19 108 48l18 -22c-39 -40 -94 -64 -152 -66zM214 133v278
c-45 -20 -81 -79 -81 -153c0 -60 26 -106 81 -125z" />
    <glyph glyph-name="sterling" unicode="&#xa3;" horiz-adv-x="513" 
d="M133 298h-81v35h81v96c0 136 91 188 173 188c106 0 127 -110 67 -110c-49 0 -22 77 -85 77c-51 0 -75 -40 -75 -155v-96h150v-35h-150v-145c0 -100 12 -116 95 -116h57c92 0 103 23 116 76l5 20h21l-9 -133h-460v21c83 0 95 17 95 117v160z" />
    <glyph glyph-name="fraction" unicode="&#x2044;" horiz-adv-x="281" 
d="M304 604l-287 -622l-40 14l287 622z" />
    <glyph glyph-name="yen" unicode="&#xa5;" horiz-adv-x="625" 
d="M353 267v-74h145v-44h-145v-11c0 -100 12 -117 95 -117v-21h-266v21c83 0 96 17 96 117v11h-145v44h145v74h-145v44h117l-117 181c-43 66 -74 87 -144 87v21h284v-21c-83 0 -82 -29 -53 -76l117 -187l123 187c35 54 30 76 -53 76v21h233v-21c-83 0 -105 -28 -144 -87
l-120 -181h122v-44h-145z" />
    <glyph glyph-name="florin" unicode="&#x192;" horiz-adv-x="316" 
d="M189 -78c0 -133 -71 -189 -146 -189c-112 0 -147 107 -91 111s25 -78 96 -78c39 0 70 30 70 156v376h-81v35h81v96c0 136 83 188 165 188c105 0 126 -110 66 -110c-48 0 -21 77 -85 77c-51 0 -75 -40 -75 -155v-96h101v-35h-101v-376z" />
    <glyph glyph-name="section" unicode="&#xa7;" horiz-adv-x="498" 
d="M148 336c-19 -18 -30 -42 -30 -68c0 -42 41 -78 104 -110l86 -44c10 -6 22 -12 33 -20c18 18 29 42 29 69c0 41 -41 77 -103 109l-86 44c-11 6 -23 12 -33 20zM376 66c27 -26 47 -61 47 -104c0 -83 -70 -149 -166 -149c-59 0 -93 19 -123 41c-11 -10 -23 -25 -28 -46h-20
v220h21c6 -80 36 -175 152 -175c57 0 98 39 98 89c0 52 -40 81 -118 121l-86 45c-70 35 -94 86 -94 136c0 51 21 92 54 120c-27 26 -47 61 -47 104c0 83 69 149 166 149c54 0 91 -20 110 -41c11 10 23 25 28 46h20v-208h-21c-8 98 -41 163 -140 163c-56 0 -97 -39 -97 -89
c0 -52 40 -81 117 -121l87 -44c69 -35 93 -87 93 -137s-21 -92 -53 -120z" />
    <glyph glyph-name="currency" unicode="&#xa4;" horiz-adv-x="554" 
d="M302 -17c-115 0 -198 99 -223 232h-61v45h55c-1 13 -2 27 -2 40s2 27 2 40h-55v44h61c25 133 108 233 223 233c58 0 107 -30 138 -72c11 9 24 27 28 52h20v-207h-21c-22 116 -68 188 -155 188c-94 0 -136 -91 -149 -194h194v-44h-198c-1 -13 -1 -27 -1 -40s0 -27 1 -40
h198v-45h-194c13 -103 55 -192 149 -192c88 0 133 74 155 187h21v-208h-20c-4 24 -17 44 -28 53c-32 -45 -80 -72 -138 -72z" />
    <glyph glyph-name="quotesingle" unicode="'" horiz-adv-x="245" 
d="M75 568c0 26 21 49 47 49s48 -23 48 -49s-32 -68 -40 -175h-17c-8 107 -38 149 -38 175z" />
    <glyph glyph-name="quotedblleft" unicode="&#x201c;" horiz-adv-x="418" 
d="M345 613c-37 -40 -52 -68 -57 -107c2 1 5 1 8 1c26 0 47 -23 47 -49c0 -25 -21 -48 -47 -48s-54 19 -54 63c0 45 30 112 91 151zM178 613c-37 -40 -51 -68 -57 -107c2 1 6 1 8 1c26 0 47 -23 47 -49c0 -25 -21 -48 -47 -48s-54 19 -54 63c0 45 30 112 92 151z" />
    <glyph glyph-name="guillemotleft" unicode="&#xab;" horiz-adv-x="520" 
d="M449 50l-224 154l224 153l14 -18l-142 -136l142 -135zM324 5l-267 199l267 198l14 -19l-185 -180l185 -179z" />
    <glyph glyph-name="guilsinglleft" unicode="&#x2039;" horiz-adv-x="393" 
d="M324 5l-267 199l267 198l14 -19l-179 -180l179 -179z" />
    <glyph glyph-name="guilsinglright" unicode="&#x203a;" horiz-adv-x="393" 
d="M69 5l-14 19l179 179l-179 180l14 19l268 -198z" />
    <glyph glyph-name="endash" unicode="&#x2013;" horiz-adv-x="525" 
d="M525 183h-526v44h526v-44z" />
    <glyph glyph-name="dagger" unicode="&#x2020;" horiz-adv-x="448" 
d="M238 426l27 -203l-37 -410h-8l-37 410l28 204l-92 -30c-27 -9 -57 16 -57 46c0 29 30 54 57 45l94 -30l-35 101c-8 29 17 58 46 58s54 -29 46 -58l-34 -101l92 30c28 9 58 -16 58 -45c0 -30 -30 -55 -58 -46z" />
    <glyph glyph-name="daggerdbl" unicode="&#x2021;" horiz-adv-x="448" 
d="M386 -12c0 -28 -30 -54 -58 -46l-92 31l34 -101c8 -28 -17 -58 -46 -58s-54 30 -46 58l35 101l-94 -31c-27 -8 -57 18 -57 46c0 30 30 55 57 46l92 -30l-26 211l26 212l-92 -31c-27 -8 -57 17 -57 47c0 28 30 54 57 45l94 -31l-35 102c-8 28 17 58 46 58s54 -30 46 -58
l-34 -102l92 31c28 9 58 -17 58 -45c0 -30 -30 -55 -58 -47l-90 30l25 -210l-25 -211l90 29c28 9 58 -16 58 -46z" />
    <glyph glyph-name="periodcentered" unicode="&#xb7;" horiz-adv-x="292" 
d="M173 204c0 -26 -22 -48 -48 -48s-47 22 -47 48s21 49 47 49s48 -23 48 -49z" />
    <glyph glyph-name="paragraph" unicode="&#xb6;" horiz-adv-x="513" 
d="M479 600v-21c-83 0 -96 -16 -96 -116v-496c0 -100 13 -116 96 -116v-21h-149v726h-87v-726h-150v21c84 0 96 16 96 116v295c-85 9 -151 81 -151 168c0 93 76 170 170 170h271z" />
    <glyph glyph-name="bullet" unicode="&#x2022;" horiz-adv-x="270" 
d="M135 336c43 0 77 -34 77 -77c0 -42 -34 -76 -77 -76c-42 0 -77 34 -77 76c0 43 35 77 77 77z" />
    <glyph glyph-name="quotesinglbase" unicode="&#x201a;" horiz-adv-x="251" 
d="M73 -106c37 39 51 68 57 107c-2 -1 -6 -1 -8 -1c-26 0 -47 23 -47 48c0 26 21 49 47 49s54 -19 54 -64c0 -44 -30 -111 -92 -151z" />
    <glyph glyph-name="quotedblbase" unicode="&#x201e;" horiz-adv-x="418" 
d="M130 1c-2 -1 -6 -1 -8 -1c-26 0 -47 23 -47 48c0 26 21 49 47 49s54 -19 54 -64c0 -44 -30 -111 -92 -151l-11 12c37 39 51 68 57 107zM297 1c-3 -1 -6 -1 -9 -1c-25 0 -46 23 -46 48c0 26 21 49 46 49c26 0 55 -19 55 -64c0 -44 -30 -111 -92 -151l-12 12
c38 39 52 68 58 107z" />
    <glyph glyph-name="quotedblright" unicode="&#x201d;" horiz-adv-x="418" 
d="M130 521c-2 -1 -6 -1 -8 -1c-26 0 -47 23 -47 48c0 26 21 49 47 49s54 -19 54 -64c0 -44 -30 -111 -92 -150l-11 11c37 39 51 68 57 107zM297 521c-3 -1 -6 -1 -9 -1c-25 0 -46 23 -46 48c0 26 21 49 46 49c26 0 55 -19 55 -64c0 -44 -30 -111 -92 -150l-12 11
c38 39 52 68 58 107z" />
    <glyph glyph-name="guillemotright" unicode="&#xbb;" horiz-adv-x="520" 
d="M196 5l-14 19l186 179l-186 180l14 19l267 -198zM71 50l-13 18l141 135l-141 136l13 18l224 -153z" />
    <glyph glyph-name="ellipsis" unicode="&#x2026;" horiz-adv-x="896" 
d="M194 40c0 -26 -22 -48 -48 -48s-47 22 -47 48s21 48 47 48s48 -22 48 -48zM486 40c0 -26 -23 -48 -48 -48c-26 0 -47 22 -47 48s21 48 47 48c25 0 48 -22 48 -48zM778 40c0 -26 -23 -48 -49 -48s-46 22 -46 48s20 48 46 48s49 -22 49 -48z" />
    <glyph glyph-name="perthousand" unicode="&#x2030;" horiz-adv-x="1133" 
d="M704 128c0 -79 -67 -144 -149 -144s-149 65 -149 144c0 78 67 143 149 143s149 -65 149 -143zM591 600l-383 -618l-36 18l383 618zM357 473c0 -78 -68 -143 -149 -143c-82 0 -150 65 -150 143c0 79 68 144 150 144c81 0 149 -65 149 -144zM638 128c0 60 -26 110 -83 110
s-82 -50 -82 -110c0 -61 25 -110 82 -110s83 49 83 110zM290 473c0 61 -26 110 -82 110c-57 0 -83 -49 -83 -110c0 -60 26 -110 83 -110c56 0 82 50 82 110zM1075 128c0 -79 -67 -144 -149 -144s-149 65 -149 144c0 78 67 143 149 143s149 -65 149 -143zM1008 128
c0 60 -25 110 -82 110s-83 -50 -83 -110c0 -61 26 -110 83 -110s82 49 82 110z" />
    <glyph glyph-name="questiondown" unicode="&#xbf;" horiz-adv-x="504" 
d="M352 390c0 -26 -21 -48 -47 -48s-48 22 -48 48s22 48 48 48s47 -22 47 -48zM457 -71c0 -62 -71 -116 -168 -116c-109 0 -213 63 -213 169c0 176 207 194 207 194v94h45v-164c-86 0 -185 -35 -185 -135c0 -80 73 -126 155 -126c74 0 116 36 116 67c0 15 -10 26 -43 26
c-22 0 -40 18 -40 39c0 33 32 45 51 45c34 0 75 -35 75 -93z" />
    <glyph glyph-name="grave" unicode="`" horiz-adv-x="404" 
d="M186 489l-5 -6l-138 58c-8 4 -23 15 -23 30c0 12 9 29 28 29c17 0 28 -8 45 -23z" />
    <glyph glyph-name="acute" unicode="&#xb4;" horiz-adv-x="227" 
d="M173 643c0 -15 -15 -26 -23 -30l-137 -59l-5 7l93 87c17 15 27 24 44 24c19 0 28 -17 28 -29z" />
    <glyph glyph-name="circumflex" unicode="&#x2c6;" horiz-adv-x="342" 
d="M273 533l-13 -11l-107 76l-106 -76l-13 11l119 130z" />
    <glyph glyph-name="tilde" unicode="&#x2dc;" horiz-adv-x="300" 
d="M212 603c22 0 36 18 43 48h16c0 -63 -28 -99 -69 -99c-35 0 -94 55 -123 55c-18 0 -36 -21 -42 -46h-15c0 57 29 97 64 97c40 0 90 -55 126 -55z" />
    <glyph glyph-name="macron" unicode="&#xaf;" horiz-adv-x="310" 
d="M259 603h-210v35h210v-35z" />
    <glyph glyph-name="breve" unicode="&#x2d8;" horiz-adv-x="308" 
d="M224 662c0 -55 -37 -90 -86 -90s-87 35 -87 90h16c10 -28 37 -48 71 -48c33 0 61 20 70 48h16z" />
    <glyph glyph-name="dotaccent" unicode="&#x2d9;" horiz-adv-x="310" 
d="M121 662c22 0 39 -18 39 -39c0 -22 -17 -40 -39 -40s-39 18 -39 40c0 21 17 39 39 39z" />
    <glyph glyph-name="dieresis" unicode="&#xa8;" horiz-adv-x="310" 
d="M71 662c22 0 39 -18 39 -39c0 -22 -17 -40 -39 -40s-39 18 -39 40c0 21 17 39 39 39zM237 662c21 0 39 -18 39 -39c0 -22 -18 -40 -39 -40c-22 0 -39 18 -39 40c0 21 17 39 39 39z" />
    <glyph glyph-name="ring" unicode="&#x2da;" horiz-adv-x="223" 
d="M94 669c46 0 83 -36 83 -82s-37 -83 -83 -83s-82 37 -82 83s36 82 82 82zM94 633c-25 0 -46 -21 -46 -46s21 -46 46 -46s46 21 46 46s-21 46 -46 46z" />
    <glyph glyph-name="cedilla" unicode="&#xb8;" horiz-adv-x="218" 
d="M199 -126c0 -73 -115 -98 -146 -102v27c25 8 85 27 85 75c0 33 -52 48 -101 33v14l108 107h45l-75 -76c35 -1 84 -24 84 -78z" />
    <glyph glyph-name="hungarumlaut" unicode="&#x2dd;" horiz-adv-x="328" 
d="M201 648c0 -15 -15 -26 -23 -30l-138 -59l-5 7l93 87c17 15 28 24 45 24c19 0 28 -17 28 -29zM318 648c0 -15 -15 -26 -24 -30l-137 -59l-5 7l93 87c17 15 28 24 44 24c19 0 29 -17 29 -29z" />
    <glyph glyph-name="ogonek" unicode="&#x2db;" horiz-adv-x="222" 
d="M192 -71c-5 -36 -37 -58 -75 -58c-40 0 -70 31 -70 70c0 48 55 88 103 73l8 -1l-5 -13h-7c-25 0 -52 -19 -52 -42s14 -45 42 -45c17 0 33 6 41 23l7 15l7 -19z" />
    <glyph glyph-name="caron" unicode="&#x2c7;" horiz-adv-x="340" 
d="M260 665l-119 -129l-119 129l12 12l107 -76l107 76z" />
    <glyph glyph-name="emdash" unicode="&#x2014;" horiz-adv-x="667" 
d="M667 183h-668v44h668v-44z" />
    <glyph glyph-name="AE" unicode="&#xc6;" horiz-adv-x="758" 
d="M358 547l-135 -261h135v261zM204 249l-78 -152c-28 -56 -17 -76 62 -76v-21h-234v21c74 0 99 16 136 87l254 492h325l9 -132h-21l-5 20c-14 52 -24 75 -116 75h-98v-277h12c100 0 104 12 104 96h21v-229h-21c0 84 -4 96 -104 96h-12v-96c0 -100 12 -116 95 -116h36
c92 0 103 23 116 76l5 20h21l-8 -133h-440v21c83 0 95 17 95 117v111h-154z" />
    <glyph glyph-name="ordfeminine" unicode="&#xaa;" horiz-adv-x="407" 
d="M368 303c-16 -19 -38 -29 -58 -29c-34 0 -55 20 -60 54c-42 -40 -74 -55 -109 -55c-43 0 -80 29 -80 79c0 81 87 115 188 135v1c0 70 -9 98 -59 98c-20 0 -51 -15 -51 -45c0 -19 -12 -33 -30 -33c-16 0 -30 14 -30 33c0 45 55 76 112 76c85 0 120 -39 120 -129v-145
c0 -23 7 -35 21 -35c9 0 18 6 24 14zM249 360v97c-84 -21 -120 -46 -120 -99c0 -27 18 -44 40 -44c19 0 39 8 80 46z" />
    <glyph glyph-name="Lslash" unicode="&#x141;" horiz-adv-x="575" 
d="M133 266l-70 -53l-25 29l95 71v150c0 100 -12 116 -95 116v21h270v-21c-83 0 -95 -16 -95 -116v-90l74 55l26 -29l-100 -74v-172c0 -100 12 -116 95 -116h120c91 0 102 23 115 76l5 20h21l-8 -133h-523v21c83 0 95 17 95 117v128z" />
    <glyph glyph-name="Oslash" unicode="&#xd8;" horiz-adv-x="808" 
d="M563 516l-285 -458c34 -22 75 -35 126 -35c173 0 241 153 241 277c0 74 -25 159 -82 216zM247 83l286 458c-35 23 -77 37 -129 37c-172 0 -241 -154 -241 -278c0 -75 25 -161 84 -217zM218 38c-89 56 -147 153 -147 262c0 174 150 317 333 317c55 0 108 -13 154 -36
l38 62l36 -18l-40 -63c88 -58 146 -154 146 -262c0 -174 -150 -317 -334 -317c-54 0 -106 13 -151 35l-38 -61l-36 18z" />
    <glyph glyph-name="OE" unicode="&#x152;" horiz-adv-x="918" 
d="M495 600h334l9 -132h-21l-5 20c-13 50 -24 75 -116 75h-148v-227h50c100 0 116 12 116 96h21v-229h-21c0 84 -16 96 -116 96h-50v-146c0 -100 12 -116 95 -116h86c92 0 104 25 116 76l5 20h21l-8 -133h-369c-33 -11 -69 -17 -106 -17c-184 0 -334 143 -334 317
s150 317 334 317c37 0 74 -6 107 -17zM388 578c-173 0 -239 -154 -239 -278s66 -277 239 -277c30 0 56 5 80 13v528c-24 9 -50 14 -80 14z" />
    <glyph glyph-name="ordmasculine" unicode="&#xba;" horiz-adv-x="513" 
d="M429 443c0 -96 -80 -175 -177 -175c-98 0 -178 79 -178 175c0 95 80 174 178 174c97 0 177 -79 177 -174zM358 443c0 75 -34 137 -106 137c-73 0 -107 -62 -107 -137c0 -76 34 -138 107 -138c72 0 106 62 106 138z" />
    <glyph glyph-name="ae" unicode="&#xe6;" horiz-adv-x="624" 
d="M337 229h166c10 32 -6 81 -67 81c-55 0 -85 -32 -99 -81zM275 73c-37 -63 -80 -86 -147 -86c-49 0 -90 31 -90 84c0 85 99 122 213 142v1c0 74 -10 104 -67 104c-23 0 -57 -16 -57 -48c0 -20 -15 -35 -34 -35c-20 0 -35 15 -35 35c0 48 63 80 127 80
c62 0 101 -17 121 -54c35 34 82 54 130 54c88 0 159 -72 136 -158h-242c-12 -94 28 -167 131 -167c32 0 81 19 110 46l17 -22c-35 -37 -95 -66 -152 -66c-73 0 -130 36 -161 90zM251 104v78c-95 -22 -136 -49 -136 -104c0 -29 20 -46 45 -46c21 0 75 18 91 72z" />
    <glyph glyph-name="dotlessi" unicode="&#x131;" horiz-adv-x="286" 
d="M267 0h-229v21c66 0 79 17 79 117v50c0 100 -13 116 -79 116v21l150 25v-212c0 -100 12 -117 79 -117v-21z" />
    <glyph glyph-name="lslash" unicode="&#x142;" horiz-adv-x="263" 
d="M163 338v-200c0 -100 12 -117 79 -117v-21h-221v21c67 0 79 17 79 117v154l-85 -64l-25 29l110 82v115c0 100 -12 117 -79 117v21l142 25v-232c0 1 76 58 76 58l26 -29z" />
    <glyph glyph-name="oslash" unicode="&#xf8;" horiz-adv-x="513" 
d="M343 276l-150 -242c16 -8 36 -12 59 -12c88 0 129 65 129 145c0 43 -13 82 -38 109zM160 58l151 241c-17 9 -37 13 -59 13c-89 0 -129 -65 -129 -145c0 -44 11 -83 37 -109zM135 18c-51 33 -85 87 -85 149c0 101 91 183 202 183c28 0 56 -6 81 -16l25 42l36 -18l-26 -42
c51 -33 85 -88 85 -149c0 -101 -90 -184 -201 -184c-29 0 -57 6 -82 16l-26 -42l-36 18z" />
    <glyph glyph-name="oe" unicode="&#x153;" horiz-adv-x="744" 
d="M457 229h166c10 32 -6 81 -67 81c-55 0 -85 -32 -99 -81zM408 53c-37 -42 -94 -70 -158 -70c-111 0 -202 83 -202 184s91 183 202 183c65 0 123 -28 160 -72c35 45 90 72 146 72c88 0 159 -72 136 -158h-242c-12 -94 28 -167 131 -167c32 0 81 19 110 46l17 -22
c-35 -37 -95 -66 -152 -66c-64 0 -116 28 -148 70zM371 167c0 80 -38 145 -121 145c-82 0 -121 -65 -121 -145s39 -145 121 -145c83 0 121 65 121 145z" />
    <glyph glyph-name="germandbls" unicode="&#xdf;" horiz-adv-x="525" 
d="M117 429c0 136 80 188 161 188c79 0 131 -59 131 -123c0 -102 -94 -116 -94 -206c0 -29 23 -49 61 -70l48 -26c44 -24 69 -62 69 -100c0 -66 -54 -109 -119 -109c-69 0 -106 71 -106 0h-21v146h21c0 -45 37 -112 109 -112c32 0 56 21 56 56c0 25 -27 50 -55 65l-56 30
c-49 25 -67 71 -67 108c0 94 93 128 93 226c0 45 -26 82 -71 82c-51 0 -89 -40 -89 -155v-429h-150v21c66 0 79 17 79 117v175h-79v20c54 0 79 7 79 96z" />
    <glyph glyph-name="onesuperior" unicode="&#xb9;" horiz-adv-x="325" 
d="M129 638c0 72 -17 79 -72 78v22l141 26v-245c0 -71 9 -83 65 -83v-19h-199v19c56 0 65 12 65 83v119z" />
    <glyph glyph-name="logicalnot" unicode="&#xac;" horiz-adv-x="570" 
d="M459 295v-172h-44v128h-332v44h376z" />
    <glyph glyph-name="mu" unicode="&#xb5;" horiz-adv-x="522" 
d="M169 -8v-41c0 -100 13 -117 79 -117v-21h-229v21c67 0 79 17 79 117v245c0 100 -12 117 -79 117v20h150v-195c0 -65 20 -107 84 -107c30 0 100 37 100 99v66c0 100 -13 117 -80 117v20h150v-187c0 -100 13 -117 80 -117v-21l-134 -25c-5 10 -13 46 -16 64
c-25 -26 -73 -64 -131 -64c-20 0 -38 4 -53 9z" />
    <glyph glyph-name="trademark" unicode="&#x2122;" horiz-adv-x="973" 
d="M191 568h-48c-79 0 -89 -16 -100 -55l-5 -19h-17l6 106h384l7 -106h-19l-4 19c-9 39 -21 55 -100 55h-47v-224c0 -86 11 -101 69 -101v-17h-194v17c57 0 68 15 68 101v224zM559 517v-173c0 -86 11 -101 69 -101v-17h-170v17c58 0 69 15 69 101v138c0 86 -11 101 -69 101
v17h129l125 -292l126 292h116v-17c-57 0 -67 -15 -67 -101v-138c0 -86 10 -101 67 -101v-17h-193v17c57 0 68 15 68 101v160l-126 -292h-12z" />
    <glyph glyph-name="Eth" unicode="&#xd0;" horiz-adv-x="713" 
d="M208 324h100v-45h-100v-126c0 -100 13 -116 96 -116h5c199 0 242 146 242 263s-43 263 -242 263h-101v-239zM133 279h-116v45h116v139c0 100 -12 116 -95 116v21h271c233 0 334 -135 334 -300s-101 -300 -334 -300h-271v21c83 0 95 17 95 117v141z" />
    <glyph glyph-name="onehalf" unicode="&#xbd;" horiz-adv-x="853" 
d="M636 600l-383 -618l-36 18l383 618zM781 48l-9 -48h-234v23l133 118c33 30 43 51 43 87c0 38 -26 65 -68 65c-43 0 -87 -45 -46 -105l-27 -25c-80 55 -40 167 75 167c64 0 123 -37 123 -99c0 -47 -33 -79 -60 -103l-89 -80h159zM270 287h-172v19c50 0 58 12 58 81v115
c0 69 -17 76 -69 75v18l126 26v-234c0 -69 9 -81 57 -81v-19z" />
    <glyph glyph-name="plusminus" unicode="&#xb1;" 
d="M408 39v-39h-358v39h358zM251 268h157v-44h-157v-141h-44v141h-157v44h157v140h44v-140z" />
    <glyph glyph-name="Thorn" unicode="&#xde;" horiz-adv-x="550" 
d="M301 174c87 0 127 59 127 132c0 72 -40 132 -127 132h-88v-264h88zM133 475c0 89 -15 104 -95 104v21h270v-21c-80 0 -95 -15 -95 -104h89c136 0 215 -76 215 -169s-79 -168 -215 -168h-89c0 -100 12 -117 95 -117v-21h-270v21c83 0 95 17 95 117v337z" />
    <glyph glyph-name="onequarter" unicode="&#xbc;" horiz-adv-x="853" 
d="M636 600l-383 -618l-36 18l383 618zM779 194l-6 -101h-71c0 -60 9 -74 56 -74v-19h-167v19c48 0 57 14 57 74h-143v17l173 229h24v-213c27 1 45 12 55 52l4 16h18zM648 126v124l-93 -124h93zM270 287h-172v19c50 0 58 12 58 81v115c0 69 -17 76 -69 75v18l126 26v-234
c0 -69 9 -81 57 -81v-19z" />
    <glyph glyph-name="divide" unicode="&#xf7;" 
d="M408 199h-358v44h358v-44zM277 84c0 -26 -23 -48 -49 -48c-25 0 -46 22 -46 48s21 49 46 49c26 0 49 -23 49 -49zM277 358c0 -25 -23 -48 -49 -48c-25 0 -46 23 -46 48c0 26 21 49 46 49c26 0 49 -23 49 -49z" />
    <glyph glyph-name="brokenbar" unicode="&#xa6;" horiz-adv-x="274" 
d="M115 686h44v-337h-44v337zM115 241h44v-337h-44v337z" />
    <glyph glyph-name="degree" unicode="&#xb0;" horiz-adv-x="400" 
d="M199 601c83 0 150 -68 150 -150c0 -83 -67 -150 -150 -150c-82 0 -150 67 -150 150c0 82 68 150 150 150zM199 553c-56 0 -101 -46 -101 -102s45 -102 101 -102s102 46 102 102s-46 102 -102 102z" />
    <glyph glyph-name="thorn" unicode="&#xfe;" horiz-adv-x="513" 
d="M384 167c0 80 -36 143 -113 143c-46 0 -83 -32 -102 -78v-129c19 -48 56 -80 102 -80c77 0 113 64 113 144zM98 454c0 100 -12 117 -79 117v21l150 25v-327c29 35 69 60 123 60c95 0 173 -82 173 -183s-78 -184 -173 -184c-50 0 -93 23 -123 60v-156
c0 -100 13 -116 79 -116v-21h-229v21c67 0 79 16 79 116v567z" />
    <glyph glyph-name="threequarters" unicode="&#xbe;" horiz-adv-x="853" 
d="M636 600l-383 -618l-36 18l383 618zM771 194l-6 -101h-72c0 -60 10 -74 57 -74v-19h-167v19c48 0 57 14 57 74h-143v17l172 229h24v-213c28 1 45 12 55 52l5 16h18zM640 126v124l-93 -124h93zM306 378c0 -58 -54 -108 -128 -108c-71 0 -109 43 -109 68c0 11 7 19 20 19
c25 0 21 -57 89 -57c49 0 70 39 70 78c0 35 -22 66 -57 73c-4 -4 -8 -10 -16 -23c-7 -12 -17 -16 -24 -16c-15 0 -26 18 -9 36l99 104h-89c-29 0 -56 -8 -63 -38l-5 -17h-20l19 103h215v-23l-79 -94c51 -17 87 -60 87 -105z" />
    <glyph glyph-name="twosuperior" unicode="&#xb2;" horiz-adv-x="375" 
d="M322 471l-11 -54h-257v23l147 123c37 32 46 54 46 91c0 39 -28 67 -74 67c-48 0 -91 -46 -50 -109l-30 -26c-88 57 -44 174 81 174c71 0 136 -39 136 -103c0 -49 -33 -84 -66 -108l-105 -78h183z" />
    <glyph glyph-name="registered" unicode="&#xae;" horiz-adv-x="512" 
d="M255 617c128 0 232 -103 232 -231s-104 -231 -232 -231c-127 0 -231 103 -231 231s104 231 231 231zM311 442c0 27 -15 51 -49 51h-32v-101h32c34 0 49 23 49 50zM414 263c26 34 43 76 43 123c0 111 -90 201 -202 201c-111 0 -201 -90 -201 -201s90 -201 201 -201
c63 0 120 30 157 75h-84l-85 108h-13v-29c0 -54 8 -64 42 -64v-15h-144v15c42 0 50 10 50 64v99c0 55 -8 64 -50 64v14h135c67 0 104 -32 104 -74c0 -34 -26 -64 -74 -73l35 -38c32 -33 54 -52 86 -56v-12z" />
    <glyph glyph-name="minus" unicode="&#x2212;" 
d="M375 203h-292v53h292v-53z" />
    <glyph glyph-name="eth" unicode="&#xf0;" horiz-adv-x="525" 
d="M390 244c-12 42 -71 74 -130 74c-88 0 -129 -74 -129 -146c0 -74 41 -149 129 -149c36 0 125 25 130 221zM326 586l81 60l28 -28s-77 -58 -78 -58c69 -68 106 -184 106 -294c0 -233 -127 -283 -203 -283c-111 0 -202 85 -202 188s91 187 202 187c57 0 105 -26 129 -59
c-3 87 -26 178 -68 234l-136 -101l-27 28l135 101c-21 17 -45 27 -75 27c-100 0 -125 -82 -153 -37c-18 30 35 69 154 69c40 0 76 -12 107 -34z" />
    <glyph glyph-name="multiply" unicode="&#xd7;" 
d="M260 221l120 -120l-32 -31l-119 120l-120 -120l-31 31l120 120l-120 119l32 31l119 -119l119 119l31 -31z" />
    <glyph glyph-name="threesuperior" unicode="&#xb3;" horiz-adv-x="375" 
d="M253 696h-105c-30 0 -59 -8 -65 -39l-5 -19h-20l19 112h238v-27l-89 -98c56 -15 97 -61 97 -108c0 -60 -60 -113 -140 -113s-121 45 -121 71c0 12 7 21 22 21c28 0 23 -60 99 -60c53 0 74 40 74 81c0 36 -22 69 -61 76c-4 -5 -8 -11 -18 -24c-7 -11 -18 -17 -25 -17
c-18 0 -29 20 -10 37z" />
    <glyph glyph-name="copyright" unicode="&#xa9;" horiz-adv-x="683" 
d="M342 617c175 0 316 -142 316 -317s-141 -317 -316 -317s-317 142 -317 317s142 317 317 317zM342 585c-158 0 -285 -127 -285 -285c0 -157 127 -285 285 -285c157 0 285 128 285 285c0 158 -128 285 -285 285zM506 105h-17c-3 17 -10 38 -16 44c-27 -33 -75 -59 -119 -59
c-111 0 -203 94 -203 210c0 115 92 210 203 210c44 0 92 -26 119 -59c6 7 13 29 16 44h17v-156h-18c-17 84 -65 137 -134 137c-101 0 -136 -100 -136 -176c0 -77 35 -176 136 -176c69 0 117 54 134 138h18v-157z" />
    <glyph glyph-name="Aacute" unicode="&#xc1;" horiz-adv-x="617" 
d="M166 208l-48 -111c-24 -54 -5 -76 78 -76v-21h-234v21c84 0 89 17 120 87l220 509h13l221 -509c31 -70 36 -87 119 -87v-21h-277v21c83 0 102 21 78 76l-48 111h-242zM391 245l-105 241l-104 -241h209zM434 763c0 -15 -15 -26 -23 -30l-138 -59l-5 7l94 87
c16 15 27 24 44 24c19 0 28 -17 28 -29z" />
    <glyph glyph-name="Acircumflex" unicode="&#xc2;" horiz-adv-x="617" 
d="M166 208l-48 -111c-24 -54 -5 -76 78 -76v-21h-234v21c84 0 89 17 120 87l220 509h13l221 -509c31 -70 36 -87 119 -87v-21h-277v21c83 0 102 21 78 76l-48 111h-242zM391 245l-105 241l-104 -241h209zM425 687l-12 -12l-107 76l-107 -76l-12 12l119 129z" />
    <glyph glyph-name="Adieresis" unicode="&#xc4;" horiz-adv-x="617" 
d="M166 208l-48 -111c-24 -54 -5 -76 78 -76v-21h-234v21c84 0 89 17 120 87l220 509h13l221 -509c31 -70 36 -87 119 -87v-21h-277v21c83 0 102 21 78 76l-48 111h-242zM391 245l-105 241l-104 -241h209zM223 753c22 0 40 -18 40 -40c0 -21 -18 -39 -40 -39
c-21 0 -39 18 -39 39c0 22 18 40 39 40zM389 753c22 0 39 -18 39 -40c0 -21 -17 -39 -39 -39c-21 0 -39 18 -39 39c0 22 18 40 39 40z" />
    <glyph glyph-name="Agrave" unicode="&#xc0;" horiz-adv-x="617" 
d="M166 208l-48 -111c-24 -54 -5 -76 78 -76v-21h-234v21c84 0 89 17 120 87l220 509h13l221 -509c31 -70 36 -87 119 -87v-21h-277v21c83 0 102 21 78 76l-48 111h-242zM391 245l-105 241l-104 -241h209zM338 681l-5 -7l-138 59c-8 4 -23 15 -23 30c0 12 9 29 28 29
c17 0 28 -9 44 -24z" />
    <glyph glyph-name="Aring" unicode="&#xc5;" horiz-adv-x="617" 
d="M305 840c46 0 83 -37 83 -82c0 -46 -37 -83 -83 -83s-82 37 -82 83c0 45 36 82 82 82zM305 803c-25 0 -46 -20 -46 -45s21 -46 46 -46s46 21 46 46s-21 45 -46 45zM166 208l-48 -111c-24 -54 -5 -76 78 -76v-21h-234v21c84 0 89 17 120 87l220 509h13l221 -509
c31 -70 36 -87 119 -87v-21h-277v21c83 0 102 21 78 76l-48 111h-242zM391 245l-105 241l-104 -241h209z" />
    <glyph glyph-name="Atilde" unicode="&#xc3;" horiz-adv-x="617" 
d="M166 208l-48 -111c-24 -54 -5 -76 78 -76v-21h-234v21c84 0 89 17 120 87l220 509h13l221 -509c31 -70 36 -87 119 -87v-21h-277v21c83 0 102 21 78 76l-48 111h-242zM391 245l-105 241l-104 -241h209zM366 726c22 0 36 17 43 47h16c0 -62 -27 -99 -69 -99
c-35 0 -93 55 -123 55c-18 0 -35 -21 -42 -46h-15c0 58 29 98 64 98c40 0 90 -55 126 -55z" />
    <glyph glyph-name="Ccedilla" unicode="&#xc7;" horiz-adv-x="692" 
d="M333 -13c-147 22 -262 155 -262 313c0 174 138 317 307 317c70 0 135 -31 186 -85c13 10 29 32 34 57h20v-220h-20c-28 130 -105 209 -216 209c-160 0 -218 -154 -218 -278s58 -277 218 -277c111 0 188 80 216 208h20v-220h-20c-5 24 -21 48 -34 57
c-51 -53 -116 -85 -186 -85h-3l-43 -44c35 -2 84 -24 84 -78c0 -74 -115 -99 -147 -103v28c25 7 86 26 86 75c0 33 -52 48 -102 32v14z" />
    <glyph glyph-name="Eacute" unicode="&#xc9;" horiz-adv-x="583" 
d="M38 0v21c83 0 95 17 95 117v325c0 100 -12 116 -95 116v21h456l9 -132h-21l-5 20c-14 52 -24 75 -116 75h-148v-227h50c100 0 116 12 116 96h21v-229h-21c0 84 -16 96 -116 96h-50v-146c0 -100 12 -116 95 -116h86c92 0 103 23 116 76l5 20h21l-8 -133h-490zM392 763
c0 -15 -15 -25 -24 -30l-137 -58l-5 7l93 87c17 15 28 24 44 24c20 0 29 -17 29 -30z" />
    <glyph glyph-name="Ecircumflex" unicode="&#xca;" horiz-adv-x="583" 
d="M38 0v21c83 0 95 17 95 117v325c0 100 -12 116 -95 116v21h456l9 -132h-21l-5 20c-14 52 -24 75 -116 75h-148v-227h50c100 0 116 12 116 96h21v-229h-21c0 84 -16 96 -116 96h-50v-146c0 -100 12 -116 95 -116h86c92 0 103 23 116 76l5 20h21l-8 -133h-490zM410 687
l-12 -12l-107 76l-107 -76l-12 12l119 129z" />
    <glyph glyph-name="Edieresis" unicode="&#xcb;" horiz-adv-x="583" 
d="M38 0v21c83 0 95 17 95 117v325c0 100 -12 116 -95 116v21h456l9 -132h-21l-5 20c-14 52 -24 75 -116 75h-148v-227h50c100 0 116 12 116 96h21v-229h-21c0 84 -16 96 -116 96h-50v-146c0 -100 12 -116 95 -116h86c92 0 103 23 116 76l5 20h21l-8 -133h-490zM208 753
c21 0 39 -18 39 -40c0 -21 -18 -39 -39 -39c-22 0 -40 18 -40 39c0 22 18 40 40 40zM373 753c22 0 40 -18 40 -40c0 -21 -18 -39 -40 -39c-21 0 -39 18 -39 39c0 22 18 40 39 40z" />
    <glyph glyph-name="Egrave" unicode="&#xc8;" horiz-adv-x="583" 
d="M38 0v21c83 0 95 17 95 117v325c0 100 -12 116 -95 116v21h456l9 -132h-21l-5 20c-14 52 -24 75 -116 75h-148v-227h50c100 0 116 12 116 96h21v-229h-21c0 84 -16 96 -116 96h-50v-146c0 -100 12 -116 95 -116h86c92 0 103 23 116 76l5 20h21l-8 -133h-490zM326 681
l-5 -7l-138 59c-8 4 -23 15 -23 30c0 12 9 29 28 29c17 0 28 -9 45 -24z" />
    <glyph glyph-name="Iacute" unicode="&#xcd;" horiz-adv-x="346" 
d="M308 0h-270v21c83 0 95 17 95 117v325c0 100 -12 116 -95 116v21h270v-21c-83 0 -95 -16 -95 -116v-325c0 -100 12 -117 95 -117v-21zM283 763c0 -15 -15 -26 -24 -30l-137 -59l-5 7l93 87c17 15 28 24 44 24c19 0 29 -17 29 -29z" />
    <glyph glyph-name="Icircumflex" unicode="&#xce;" horiz-adv-x="346" 
d="M308 0h-270v21c83 0 95 17 95 117v325c0 100 -12 116 -95 116v21h270v-21c-83 0 -95 -16 -95 -116v-325c0 -100 12 -117 95 -117v-21zM292 687l-13 -12l-106 76l-107 -76l-13 12l120 129z" />
    <glyph glyph-name="Idieresis" unicode="&#xcf;" horiz-adv-x="346" 
d="M308 0h-270v21c83 0 95 17 95 117v325c0 100 -12 116 -95 116v21h270v-21c-83 0 -95 -16 -95 -116v-325c0 -100 12 -117 95 -117v-21zM88 753c22 0 40 -18 40 -40c0 -21 -18 -39 -40 -39c-21 0 -39 18 -39 39c0 22 18 40 39 40zM254 753c22 0 39 -18 39 -40
c0 -21 -17 -39 -39 -39c-21 0 -39 18 -39 39c0 22 18 40 39 40z" />
    <glyph glyph-name="Igrave" unicode="&#xcc;" horiz-adv-x="346" 
d="M308 0h-270v21c83 0 95 17 95 117v325c0 100 -12 116 -95 116v21h270v-21c-83 0 -95 -16 -95 -116v-325c0 -100 12 -117 95 -117v-21zM219 681l-5 -7l-137 59c-9 4 -24 15 -24 30c0 12 10 29 29 29c16 0 27 -9 44 -24z" />
    <glyph glyph-name="Ntilde" unicode="&#xd1;" horiz-adv-x="725" 
d="M563 124v339c0 100 -12 116 -95 116v21h228v-21c-83 0 -96 -16 -96 -116v-480h-23l-407 503v-348c0 -100 13 -117 96 -117v-21h-228v21c83 0 95 17 95 117v325c0 100 -12 116 -95 116v21h141zM420 726c23 0 36 17 43 47h16c0 -62 -27 -99 -69 -99c-35 0 -93 55 -122 55
c-19 0 -36 -21 -43 -46h-15c0 58 29 98 64 98c40 0 90 -55 126 -55z" />
    <glyph glyph-name="Oacute" unicode="&#xd3;" horiz-adv-x="775" 
d="M721 300c0 -174 -150 -317 -333 -317c-184 0 -334 143 -334 317s150 317 334 317c183 0 333 -143 333 -317zM388 578c-173 0 -239 -154 -239 -278s66 -277 239 -277c172 0 238 153 238 277s-66 278 -238 278zM483 763c0 -15 -15 -27 -23 -30l-137 -59l-5 7l93 87
c17 15 27 24 44 24c19 0 28 -17 28 -29z" />
    <glyph glyph-name="Ocircumflex" unicode="&#xd4;" horiz-adv-x="775" 
d="M721 300c0 -174 -150 -317 -333 -317c-184 0 -334 143 -334 317s150 317 334 317c183 0 333 -143 333 -317zM388 578c-173 0 -239 -154 -239 -278s66 -277 239 -277c172 0 238 153 238 277s-66 278 -238 278zM507 686l-13 -12l-106 76l-107 -76l-13 12l120 129z" />
    <glyph glyph-name="Odieresis" unicode="&#xd6;" horiz-adv-x="775" 
d="M721 300c0 -174 -150 -317 -333 -317c-184 0 -334 143 -334 317s150 317 334 317c183 0 333 -143 333 -317zM388 578c-173 0 -239 -154 -239 -278s66 -277 239 -277c172 0 238 153 238 277s-66 278 -238 278zM303 753c21 0 39 -18 39 -40c0 -21 -18 -39 -39 -39
c-22 0 -40 18 -40 39c0 22 18 40 40 40zM468 753c22 0 40 -18 40 -40c0 -21 -18 -39 -40 -39c-21 0 -39 18 -39 39c0 22 18 40 39 40z" />
    <glyph glyph-name="Ograve" unicode="&#xd2;" horiz-adv-x="775" 
d="M721 300c0 -174 -150 -317 -333 -317c-184 0 -334 143 -334 317s150 317 334 317c183 0 333 -143 333 -317zM388 578c-173 0 -239 -154 -239 -278s66 -277 239 -277c172 0 238 153 238 277s-66 278 -238 278zM436 681l-5 -7l-138 59c-8 3 -23 15 -23 30c0 12 9 29 28 29
c17 0 28 -9 45 -24z" />
    <glyph glyph-name="Otilde" unicode="&#xd5;" horiz-adv-x="775" 
d="M721 300c0 -174 -150 -317 -333 -317c-184 0 -334 143 -334 317s150 317 334 317c183 0 333 -143 333 -317zM388 578c-173 0 -239 -154 -239 -278s66 -277 239 -277c172 0 238 153 238 277s-66 278 -238 278zM452 726c22 0 36 17 43 47h16c0 -62 -28 -99 -69 -99
c-35 0 -94 55 -123 55c-18 0 -36 -21 -42 -46h-15c0 58 29 98 64 98c40 0 90 -55 126 -55z" />
    <glyph glyph-name="Scaron" unicode="&#x160;" horiz-adv-x="507" 
d="M111 30c-12 -10 -24 -25 -29 -47h-20v220h21s1 -180 184 -180c71 0 125 46 125 110c0 46 -46 85 -115 121l-96 49c-58 30 -111 89 -111 165c0 83 69 149 166 149c59 0 92 -19 122 -41c12 10 24 25 29 46h20v-220h-21c-7 80 -37 175 -153 175c-56 0 -97 -39 -97 -89
c0 -52 35 -79 122 -124l95 -49c77 -39 105 -97 105 -152c0 -109 -88 -180 -191 -180c-76 0 -124 40 -156 47zM368 803l-119 -129l-119 129l13 12l106 -76l107 76z" />
    <glyph glyph-name="Uacute" unicode="&#xda;" horiz-adv-x="716" 
d="M557 463c0 100 -13 116 -96 116v21h234v-21c-83 0 -96 -16 -96 -116v-240c0 -157 -108 -240 -241 -240c-132 0 -240 83 -240 240v240c0 100 -12 116 -95 116v21h270v-21c-83 0 -95 -16 -95 -116v-245c0 -130 75 -190 175 -190c105 0 184 60 184 190v245zM494 763
c0 -15 -15 -26 -23 -30l-138 -59l-5 7l94 87c16 15 27 24 44 24c19 0 28 -17 28 -29z" />
    <glyph glyph-name="Ucircumflex" unicode="&#xdb;" horiz-adv-x="716" 
d="M557 463c0 100 -13 116 -96 116v21h234v-21c-83 0 -96 -16 -96 -116v-240c0 -157 -108 -240 -241 -240c-132 0 -240 83 -240 240v240c0 100 -12 116 -95 116v21h270v-21c-83 0 -95 -16 -95 -116v-245c0 -130 75 -190 175 -190c105 0 184 60 184 190v245zM499 687l-12 -12
l-107 76l-107 -76l-12 12l119 129z" />
    <glyph glyph-name="Udieresis" unicode="&#xdc;" horiz-adv-x="716" 
d="M557 463c0 100 -13 116 -96 116v21h234v-21c-83 0 -96 -16 -96 -116v-240c0 -157 -108 -240 -241 -240c-132 0 -240 83 -240 240v240c0 100 -12 116 -95 116v21h270v-21c-83 0 -95 -16 -95 -116v-245c0 -130 75 -190 175 -190c105 0 184 60 184 190v245zM285 753
c22 0 39 -17 39 -39c0 -21 -17 -39 -39 -39s-39 18 -39 39c0 22 17 39 39 39zM451 753c22 0 39 -17 39 -39c0 -21 -17 -39 -39 -39s-39 18 -39 39c0 22 17 39 39 39z" />
    <glyph glyph-name="Ugrave" unicode="&#xd9;" horiz-adv-x="716" 
d="M557 463c0 100 -13 116 -96 116v21h234v-21c-83 0 -96 -16 -96 -116v-240c0 -157 -108 -240 -241 -240c-132 0 -240 83 -240 240v240c0 100 -12 116 -95 116v21h270v-21c-83 0 -95 -16 -95 -116v-245c0 -130 75 -190 175 -190c105 0 184 60 184 190v245zM398 681l-5 -7
l-138 59c-8 4 -23 15 -23 30c0 12 9 29 28 29c17 0 28 -9 44 -24z" />
    <glyph glyph-name="Yacute" unicode="&#xdd;" horiz-adv-x="625" 
d="M353 242v-104c0 -100 12 -117 95 -117v-21h-270v21c83 0 95 17 95 117v97l-166 257c-43 66 -74 87 -145 87v21h285v-21c-84 0 -84 -30 -54 -76l144 -220l146 220c35 54 30 76 -54 76v21h234v-21c-84 0 -105 -28 -145 -87zM463 763c0 -15 -15 -25 -23 -30l-137 -58l-5 7
l93 87c17 15 27 24 44 24c19 0 28 -17 28 -30z" />
    <glyph glyph-name="Ydieresis" unicode="&#x178;" horiz-adv-x="625" 
d="M353 242v-104c0 -100 12 -117 95 -117v-21h-270v21c83 0 95 17 95 117v97l-166 257c-43 66 -74 87 -145 87v21h285v-21c-84 0 -84 -30 -54 -76l144 -220l146 220c35 54 30 76 -54 76v21h234v-21c-84 0 -105 -28 -145 -87zM238 753c22 0 40 -18 40 -40
c0 -21 -18 -39 -40 -39c-21 0 -39 18 -39 39c0 22 18 40 39 40zM404 753c22 0 39 -18 39 -40c0 -21 -17 -39 -39 -39c-21 0 -39 18 -39 39c0 22 18 40 39 40z" />
    <glyph glyph-name="Zcaron" unicode="&#x17d;" horiz-adv-x="575" 
d="M380 563h-184c-92 0 -103 -23 -116 -75l-5 -20h-21l9 132h426v-12l-345 -551h225c92 0 103 23 116 76l5 20h21l-8 -133h-460v23zM390 803l-119 -129l-119 129l12 12l107 -76l107 76z" />
    <glyph glyph-name="aacute" unicode="&#xe1;" horiz-adv-x="403" 
d="M387 20c-19 -20 -44 -31 -66 -31c-39 0 -63 22 -68 58c-49 -44 -85 -60 -125 -60c-49 0 -90 31 -90 84c0 85 99 122 213 142c0 75 -10 105 -67 105c-23 0 -57 -16 -57 -48c0 -20 -15 -35 -34 -35c-20 0 -35 15 -35 35c0 48 63 80 127 80c97 0 137 -41 137 -136v-151
c0 -25 8 -39 23 -39c10 0 21 8 28 15zM251 80v102c-95 -22 -138 -55 -138 -99c0 -32 22 -51 47 -51c21 0 45 7 91 48zM306 497c0 -15 -15 -26 -23 -30l-138 -59l-5 7l93 88c17 15 28 23 45 23c19 0 28 -17 28 -29z" />
    <glyph glyph-name="acircumflex" unicode="&#xe2;" horiz-adv-x="403" 
d="M387 20c-19 -20 -44 -31 -66 -31c-39 0 -63 22 -68 58c-49 -44 -85 -60 -125 -60c-49 0 -90 31 -90 84c0 85 99 122 213 142c0 75 -10 105 -67 105c-23 0 -57 -16 -57 -48c0 -20 -15 -35 -34 -35c-20 0 -35 15 -35 35c0 48 63 80 127 80c97 0 137 -41 137 -136v-151
c0 -25 8 -39 23 -39c10 0 21 8 28 15zM251 80v102c-95 -22 -138 -55 -138 -99c0 -32 22 -51 47 -51c21 0 45 7 91 48zM305 420l-12 -12l-107 76l-107 -76l-12 12l119 129z" />
    <glyph glyph-name="adieresis" unicode="&#xe4;" horiz-adv-x="403" 
d="M387 20c-19 -20 -44 -31 -66 -31c-39 0 -63 22 -68 58c-49 -44 -85 -60 -125 -60c-49 0 -90 31 -90 84c0 85 99 122 213 142c0 75 -10 105 -67 105c-23 0 -57 -16 -57 -48c0 -20 -15 -35 -34 -35c-20 0 -35 15 -35 35c0 48 63 80 127 80c97 0 137 -41 137 -136v-151
c0 -25 8 -39 23 -39c10 0 21 8 28 15zM251 80v102c-95 -22 -138 -55 -138 -99c0 -32 22 -51 47 -51c21 0 45 7 91 48zM106 487c22 0 39 -18 39 -39c0 -22 -17 -40 -39 -40s-39 18 -39 40c0 21 17 39 39 39zM272 487c21 0 39 -18 39 -39c0 -22 -18 -40 -39 -40
c-22 0 -39 18 -39 40c0 21 17 39 39 39z" />
    <glyph glyph-name="agrave" unicode="&#xe0;" horiz-adv-x="403" 
d="M387 20c-19 -20 -44 -31 -66 -31c-39 0 -63 22 -68 58c-49 -44 -85 -60 -125 -60c-49 0 -90 31 -90 84c0 85 99 122 213 142c0 75 -10 105 -67 105c-23 0 -57 -16 -57 -48c0 -20 -15 -35 -34 -35c-20 0 -35 15 -35 35c0 48 63 80 127 80c97 0 137 -41 137 -136v-151
c0 -25 8 -39 23 -39c10 0 21 8 28 15zM251 80v102c-95 -22 -138 -55 -138 -99c0 -32 22 -51 47 -51c21 0 45 7 91 48zM239 415l-5 -7l-137 59c-9 4 -24 15 -24 30c0 12 10 29 29 29c16 0 27 -8 44 -23z" />
    <glyph glyph-name="aring" unicode="&#xe5;" horiz-adv-x="403" 
d="M387 20c-19 -20 -44 -31 -66 -31c-39 0 -63 22 -68 58c-49 -44 -85 -60 -125 -60c-49 0 -90 31 -90 84c0 85 99 122 213 142c0 75 -10 105 -67 105c-23 0 -57 -16 -57 -48c0 -20 -15 -35 -34 -35c-20 0 -35 15 -35 35c0 48 63 80 127 80c97 0 137 -41 137 -136v-151
c0 -25 8 -39 23 -39c10 0 21 8 28 15zM251 80v102c-95 -22 -138 -55 -138 -99c0 -32 22 -51 47 -51c21 0 45 7 91 48zM188 573c46 0 83 -37 83 -83s-37 -82 -83 -82c-45 0 -82 36 -82 82s37 83 82 83zM188 536c-25 0 -45 -21 -45 -46s20 -46 45 -46s46 21 46 46
s-21 46 -46 46z" />
    <glyph glyph-name="atilde" unicode="&#xe3;" horiz-adv-x="403" 
d="M387 20c-19 -20 -44 -31 -66 -31c-39 0 -63 22 -68 58c-49 -44 -85 -60 -125 -60c-49 0 -90 31 -90 84c0 85 99 122 213 142c0 75 -10 105 -67 105c-23 0 -57 -16 -57 -48c0 -20 -15 -35 -34 -35c-20 0 -35 15 -35 35c0 48 63 80 127 80c97 0 137 -41 137 -136v-151
c0 -25 8 -39 23 -39c10 0 21 8 28 15zM251 80v102c-95 -22 -138 -55 -138 -99c0 -32 22 -51 47 -51c21 0 45 7 91 48zM253 460c22 0 35 18 43 48h16c0 -63 -28 -100 -69 -100c-35 0 -94 55 -123 55c-18 0 -36 -20 -42 -45h-15c0 57 29 97 64 97c40 0 90 -55 126 -55z" />
    <glyph glyph-name="ccedilla" unicode="&#xe7;" horiz-adv-x="393" 
d="M191 -14c-90 14 -143 82 -143 172c0 118 97 192 177 192c83 0 119 -35 119 -72c0 -16 -10 -43 -44 -43c-22 0 -39 18 -39 40c0 33 -18 43 -36 43c-53 0 -96 -68 -96 -160c0 -80 39 -133 121 -133c33 0 74 15 107 46l17 -22c-36 -39 -86 -63 -140 -66l-44 -44
c35 -2 84 -24 84 -78c0 -74 -115 -99 -146 -103v28c25 7 85 26 85 75c0 33 -52 48 -101 32v14z" />
    <glyph glyph-name="eacute" unicode="&#xe9;" horiz-adv-x="422" 
d="M134 229h166c11 32 -6 81 -72 81c-43 0 -80 -32 -94 -81zM128 192c-12 -94 27 -167 130 -167c33 0 81 19 110 46l18 -22c-35 -37 -96 -66 -153 -66c-110 0 -185 83 -185 184c0 106 92 183 185 183c89 0 160 -72 136 -158h-241zM343 497c0 -15 -15 -26 -24 -30l-137 -59
l-5 7l93 88c17 15 28 23 44 23c19 0 29 -17 29 -29z" />
    <glyph glyph-name="ecircumflex" unicode="&#xea;" horiz-adv-x="422" 
d="M134 229h166c11 32 -6 81 -72 81c-43 0 -80 -32 -94 -81zM128 192c-12 -94 27 -167 130 -167c33 0 81 19 110 46l18 -22c-35 -37 -96 -66 -153 -66c-110 0 -185 83 -185 184c0 106 92 183 185 183c89 0 160 -72 136 -158h-241zM341 420l-13 -12l-106 76l-107 -76l-12 12
l119 129z" />
    <glyph glyph-name="edieresis" unicode="&#xeb;" horiz-adv-x="422" 
d="M134 229h166c11 32 -6 81 -72 81c-43 0 -80 -32 -94 -81zM128 192c-12 -94 27 -167 130 -167c33 0 81 19 110 46l18 -22c-35 -37 -96 -66 -153 -66c-110 0 -185 83 -185 184c0 106 92 183 185 183c89 0 160 -72 136 -158h-241zM141 487c22 0 39 -18 39 -39
c0 -22 -17 -40 -39 -40s-39 18 -39 40c0 21 17 39 39 39zM307 487c21 0 39 -18 39 -39c0 -22 -18 -40 -39 -40c-22 0 -39 18 -39 40c0 21 17 39 39 39z" />
    <glyph glyph-name="egrave" unicode="&#xe8;" horiz-adv-x="422" 
d="M134 229h166c11 32 -6 81 -72 81c-43 0 -80 -32 -94 -81zM128 192c-12 -94 27 -167 130 -167c33 0 81 19 110 46l18 -22c-35 -37 -96 -66 -153 -66c-110 0 -185 83 -185 184c0 106 92 183 185 183c89 0 160 -72 136 -158h-241zM272 415l-5 -7l-138 59c-8 4 -23 15 -23 30
c0 12 9 29 28 29c17 0 28 -8 44 -23z" />
    <glyph glyph-name="iacute" unicode="&#xed;" horiz-adv-x="286" 
d="M267 0h-229v21c66 0 79 17 79 117v50c0 100 -13 116 -79 116v21l150 25v-212c0 -100 12 -117 79 -117v-21zM253 497c0 -15 -15 -26 -24 -30l-137 -59l-5 7l93 88c17 15 28 23 44 23c19 0 29 -17 29 -29z" />
    <glyph glyph-name="icircumflex" unicode="&#xee;" horiz-adv-x="286" 
d="M267 0h-229v21c66 0 79 17 79 117v50c0 100 -13 116 -79 116v21l150 25v-212c0 -100 12 -117 79 -117v-21zM257 419l-13 -11l-106 75l-107 -75l-13 11l120 129z" />
    <glyph glyph-name="idieresis" unicode="&#xef;" horiz-adv-x="286" 
d="M267 0h-229v21c66 0 79 17 79 117v50c0 100 -13 116 -79 116v21l150 25v-212c0 -100 12 -117 79 -117v-21zM53 487c22 0 40 -18 40 -39c0 -22 -18 -40 -40 -40c-21 0 -39 18 -39 40c0 21 18 39 39 39zM219 487c22 0 39 -18 39 -39c0 -22 -17 -40 -39 -40
c-21 0 -39 18 -39 40c0 21 18 39 39 39z" />
    <glyph glyph-name="igrave" unicode="&#xec;" horiz-adv-x="286" 
d="M267 0h-229v21c66 0 79 17 79 117v50c0 100 -13 116 -79 116v21l150 25v-212c0 -100 12 -117 79 -117v-21zM178 415l-5 -7l-138 59c-8 4 -23 15 -23 30c0 12 9 29 28 29c17 0 28 -8 44 -23z" />
    <glyph glyph-name="ntilde" unicode="&#xf1;" horiz-adv-x="555" 
d="M188 278c27 34 73 72 139 72c90 0 130 -64 130 -149v-63c0 -100 12 -117 79 -117v-21h-229v21c65 0 79 17 79 117v58c0 65 -23 107 -83 107c-55 0 -115 -45 -115 -100v-65c0 -103 8 -117 70 -117v-21h-220v21c66 0 79 17 79 117v50c0 100 -13 116 -79 116v21l133 25
c5 -10 14 -51 17 -72zM340 460c23 0 36 18 43 48h16c0 -63 -27 -100 -69 -100c-35 0 -93 55 -122 55c-19 0 -36 -20 -43 -45h-15c0 57 29 97 64 97c40 0 90 -55 126 -55z" />
    <glyph glyph-name="oacute" unicode="&#xf3;" horiz-adv-x="500" 
d="M452 167c0 -101 -91 -184 -202 -184s-202 83 -202 184s91 183 202 183s202 -82 202 -183zM371 167c0 80 -38 145 -121 145c-82 0 -121 -65 -121 -145s39 -145 121 -145c83 0 121 65 121 145zM356 497c0 -15 -15 -26 -23 -30l-138 -59l-5 7l93 88c17 15 28 23 45 23
c19 0 28 -17 28 -29z" />
    <glyph glyph-name="ocircumflex" unicode="&#xf4;" horiz-adv-x="500" 
d="M452 167c0 -101 -91 -184 -202 -184s-202 83 -202 184s91 183 202 183s202 -82 202 -183zM371 167c0 80 -38 145 -121 145c-82 0 -121 -65 -121 -145s39 -145 121 -145c83 0 121 65 121 145zM368 420l-12 -12l-107 76l-106 -76l-13 12l119 129z" />
    <glyph glyph-name="odieresis" unicode="&#xf6;" horiz-adv-x="500" 
d="M452 167c0 -101 -91 -184 -202 -184s-202 83 -202 184s91 183 202 183s202 -82 202 -183zM371 167c0 80 -38 145 -121 145c-82 0 -121 -65 -121 -145s39 -145 121 -145c83 0 121 65 121 145zM167 487c21 0 39 -18 39 -39c0 -22 -18 -40 -39 -40c-22 0 -39 18 -39 40
c0 21 17 39 39 39zM333 487c21 0 39 -18 39 -39c0 -22 -18 -40 -39 -40c-22 0 -40 18 -40 40c0 21 18 39 40 39z" />
    <glyph glyph-name="ograve" unicode="&#xf2;" horiz-adv-x="500" 
d="M452 167c0 -101 -91 -184 -202 -184s-202 83 -202 184s91 183 202 183s202 -82 202 -183zM371 167c0 80 -38 145 -121 145c-82 0 -121 -65 -121 -145s39 -145 121 -145c83 0 121 65 121 145zM278 415l-5 -7l-137 59c-8 4 -23 15 -23 30c0 12 9 29 28 29
c17 0 27 -8 44 -23z" />
    <glyph glyph-name="otilde" unicode="&#xf5;" horiz-adv-x="500" 
d="M452 167c0 -101 -91 -184 -202 -184s-202 83 -202 184s91 183 202 183s202 -82 202 -183zM371 167c0 80 -38 145 -121 145c-82 0 -121 -65 -121 -145s39 -145 121 -145c83 0 121 65 121 145zM311 460c22 0 36 18 43 48h16c0 -63 -27 -100 -69 -100c-35 0 -93 55 -123 55
c-18 0 -35 -20 -42 -45h-15c0 57 29 97 64 97c40 0 90 -55 126 -55z" />
    <glyph glyph-name="scaron" unicode="&#x161;" horiz-adv-x="340" 
d="M295 92c0 -66 -54 -109 -119 -109c-69 0 -107 71 -107 0h-21v146h21c0 -45 38 -112 109 -112c33 0 57 23 57 51c0 25 -22 43 -56 61l-56 30c-48 26 -66 68 -66 100c0 54 50 91 101 91c75 0 91 -52 91 0h21v-116h-21c0 42 -30 84 -81 84c-34 0 -51 -18 -51 -43
c0 -24 16 -37 61 -61l48 -26c44 -25 69 -60 69 -96zM287 537l-119 -129l-120 129l13 11l107 -75l106 75z" />
    <glyph glyph-name="uacute" unicode="&#xfa;" horiz-adv-x="522" 
d="M503 8l-134 -25c-5 10 -13 46 -16 64c-25 -26 -73 -64 -131 -64c-92 0 -124 65 -124 150v63c0 100 -12 117 -79 117v20h150v-195c0 -65 22 -107 76 -107c39 0 108 37 108 99v66c0 100 -13 117 -80 117v20h150v-187c0 -100 13 -117 80 -117v-21zM354 496
c0 -15 -15 -26 -23 -30l-138 -58l-5 6l94 88c16 15 27 23 44 23c19 0 28 -17 28 -29z" />
    <glyph glyph-name="ucircumflex" unicode="&#xfb;" horiz-adv-x="522" 
d="M503 8l-134 -25c-5 10 -13 46 -16 64c-25 -26 -73 -64 -131 -64c-92 0 -124 65 -124 150v63c0 100 -12 117 -79 117v20h150v-195c0 -65 22 -107 76 -107c39 0 108 37 108 99v66c0 100 -13 117 -80 117v20h150v-187c0 -100 13 -117 80 -117v-21zM350 420l-12 -12l-107 76
l-107 -76l-12 12l119 129z" />
    <glyph glyph-name="udieresis" unicode="&#xfc;" horiz-adv-x="522" 
d="M503 8l-134 -25c-5 10 -13 46 -16 64c-25 -26 -73 -64 -131 -64c-92 0 -124 65 -124 150v63c0 100 -12 117 -79 117v20h150v-195c0 -65 22 -107 76 -107c39 0 108 37 108 99v66c0 100 -13 117 -80 117v20h150v-187c0 -100 13 -117 80 -117v-21zM162 487
c21 0 39 -18 39 -39c0 -22 -18 -40 -39 -40c-22 0 -39 18 -39 40c0 21 17 39 39 39zM328 487c21 0 39 -18 39 -39c0 -22 -18 -40 -39 -40c-22 0 -40 18 -40 40c0 21 18 39 40 39z" />
    <glyph glyph-name="ugrave" unicode="&#xf9;" horiz-adv-x="522" 
d="M503 8l-134 -25c-5 10 -13 46 -16 64c-25 -26 -73 -64 -131 -64c-92 0 -124 65 -124 150v63c0 100 -12 117 -79 117v20h150v-195c0 -65 22 -107 76 -107c39 0 108 37 108 99v66c0 100 -13 117 -80 117v20h150v-187c0 -100 13 -117 80 -117v-21zM277 414l-5 -6l-138 58
c-8 4 -23 15 -23 30c0 12 9 29 28 29c17 0 28 -8 44 -23z" />
    <glyph glyph-name="yacute" unicode="&#xfd;" horiz-adv-x="373" 
d="M329 497c0 -15 -15 -26 -23 -30l-138 -59l-5 7l94 88c16 15 27 23 44 23c19 0 28 -17 28 -29zM48 -237c0 39 45 39 76 117l50 125l-115 249c-21 44 -36 59 -67 59v20h177v-20c-44 0 -55 -10 -32 -59l73 -160l64 160c19 45 12 59 -29 59v20h140v-20c-31 0 -53 -15 -71 -59
l-195 -487c-8 -20 -21 -37 -37 -37c-14 0 -34 8 -34 33z" />
    <glyph glyph-name="ydieresis" unicode="&#xff;" horiz-adv-x="373" 
d="M48 -237c0 39 45 39 76 117l50 125l-115 249c-21 44 -36 59 -67 59v20h177v-20c-44 0 -55 -10 -32 -59l73 -160l64 160c19 45 12 59 -29 59v20h140v-20c-31 0 -53 -15 -71 -59l-195 -487c-8 -20 -21 -37 -37 -37c-14 0 -34 8 -34 33zM108 487c21 0 39 -18 39 -39
c0 -22 -18 -40 -39 -40c-22 0 -40 18 -40 40c0 21 18 39 40 39zM273 487c22 0 40 -18 40 -39c0 -22 -18 -40 -40 -40c-21 0 -39 18 -39 40c0 21 18 39 39 39z" />
    <glyph glyph-name="zcaron" unicode="&#x17e;" horiz-adv-x="372" 
d="M324 333v-16l-191 -285h61c92 0 105 17 115 59l5 20h21l-7 -111h-290v17l190 285h-47c-92 0 -105 -18 -115 -59l-5 -20h-21l8 110h276zM303 537l-119 -129l-119 129l13 11l106 -75l107 75z" />
    <glyph glyph-name="asuperior" unicode="&#xf6e9;" horiz-adv-x="306" 
d="M188 293v67c-64 -15 -92 -33 -92 -70c0 -19 13 -31 29 -31c14 0 32 6 63 34zM188 389c0 50 -8 69 -45 69c-15 0 -39 -9 -39 -30c0 -16 -12 -29 -27 -29c-16 0 -29 13 -29 29c0 35 47 60 95 60c72 0 102 -30 102 -100v-110c0 -15 4 -24 13 -24c7 0 14 4 20 14l15 -20
c-16 -18 -35 -25 -52 -25c-28 0 -46 13 -52 37c-33 -28 -59 -39 -86 -39c-38 0 -70 24 -70 63c0 64 73 91 155 105z" />
    <glyph glyph-name="bsuperior" unicode="&#xf6ea;" horiz-adv-x="361" 
d="M328 353c0 -74 -58 -135 -128 -135c-37 0 -72 18 -92 46l-31 -45h-19v299c0 70 -9 81 -58 81v21l115 20v-188c22 22 51 36 85 36c70 0 128 -60 128 -135zM263 353c0 56 -24 100 -78 100c-32 0 -57 -21 -70 -54v-91c13 -32 38 -55 70 -55c54 0 78 45 78 100z" />
    <glyph glyph-name="dsuperior" unicode="&#xf6eb;" horiz-adv-x="373" 
d="M361 237l-100 -19c-6 8 -10 27 -13 40c-20 -23 -49 -40 -86 -40c-71 0 -129 61 -129 135c0 75 58 135 129 135c33 0 62 -14 84 -36v66c0 70 -8 81 -57 81v21l115 20v-302c0 -68 8 -80 57 -80v-21zM246 308v90c-12 33 -38 55 -69 55c-54 0 -79 -44 -79 -100
c0 -55 25 -100 79 -100c31 0 57 23 69 55z" />
    <glyph glyph-name="esuperior" unicode="&#xf6ec;" horiz-adv-x="315" 
d="M284 268c-28 -29 -72 -50 -114 -50c-82 0 -137 61 -137 135c0 79 68 135 137 135c66 0 118 -53 100 -120h-173c-8 -65 20 -113 91 -113c22 0 56 13 79 34zM215 402c7 21 -7 51 -45 51c-37 0 -57 -20 -67 -51h112z" />
    <glyph glyph-name="isuperior" unicode="&#xf6ed;" horiz-adv-x="209" 
d="M146 588c0 -19 -16 -35 -35 -35s-34 16 -34 35s15 35 34 35s35 -16 35 -35zM197 230h-172v22c49 0 58 11 58 81v35c0 69 -9 81 -58 81v22l115 18v-156c0 -70 8 -81 57 -81v-22z" />
    <glyph glyph-name="lsuperior" unicode="&#xf6ee;" horiz-adv-x="196" 
d="M184 230h-171v22c48 0 56 11 56 81v185c0 70 -8 81 -56 81v21l114 20v-307c0 -70 8 -81 57 -81v-22z" />
    <glyph glyph-name="msuperior" unicode="&#xf6ef;" horiz-adv-x="563" 
d="M551 230h-159v22c41 0 45 7 45 81v41c0 44 -12 74 -52 74c-20 0 -68 -25 -68 -68v-47c0 -74 3 -81 45 -81v-22h-148v22c42 0 45 7 45 81v41c0 44 -11 74 -51 74c-20 0 -68 -25 -68 -68v-47c0 -71 3 -81 45 -81v-22h-160v22c49 0 58 11 58 81v35c0 69 -9 81 -58 81v21
l103 19c3 -8 9 -31 11 -48c21 23 53 47 92 47c43 0 66 -19 77 -50c19 24 60 50 100 50c66 0 86 -46 86 -110v-45c0 -70 9 -81 57 -81v-22z" />
    <glyph glyph-name="nsuperior" unicode="&#x207f;" horiz-adv-x="403" 
d="M391 230h-172v22c48 0 57 11 57 81v41c0 44 -13 74 -62 74c-26 0 -74 -26 -74 -68v-47c0 -71 5 -81 51 -81v-22h-166v22c49 0 58 11 58 81v35c0 69 -9 81 -58 81v21l103 19c3 -7 9 -31 11 -48c21 23 53 47 98 47c67 0 97 -47 97 -110v-45c0 -70 8 -81 57 -81v-22z" />
    <glyph glyph-name="osuperior" unicode="&#xf6f0;" horiz-adv-x="371" 
d="M330 353c0 -74 -67 -135 -148 -135c-82 0 -149 61 -149 135c0 75 67 135 149 135c81 0 148 -60 148 -135zM265 353c0 56 -26 101 -83 101c-58 0 -84 -45 -84 -101c0 -55 26 -100 84 -100c57 0 83 45 83 100z" />
    <glyph glyph-name="rsuperior" unicode="&#xf6f1;" horiz-adv-x="287" 
d="M273 434c0 -11 -8 -31 -32 -31c-16 0 -29 14 -29 30c0 13 -7 20 -19 20c-16 0 -53 -25 -53 -81v-39c0 -70 8 -81 57 -81v-22h-172v22c49 0 58 11 58 81v35c0 69 -9 81 -58 81v21l103 19c3 -8 8 -29 10 -46c18 25 48 45 75 45c47 0 60 -30 60 -54z" />
    <glyph glyph-name="ssuperior" unicode="&#xf6f2;" horiz-adv-x="261" 
d="M226 299c0 -49 -41 -81 -89 -81s-74 52 -74 0h-21v112h21c0 -34 26 -82 75 -82c22 0 38 15 38 38c0 17 -19 27 -38 37l-40 22c-37 20 -50 51 -50 75c0 41 37 68 76 68c52 0 62 -38 62 0h22v-90h-22c0 32 -20 61 -55 61c-22 0 -33 -11 -33 -31c0 -16 15 -23 41 -37l35 -19
c33 -19 52 -46 52 -73z" />
    <glyph glyph-name="tsuperior" unicode="&#xf6f3;" horiz-adv-x="233" 
d="M215 263c-23 -28 -56 -45 -77 -45c-45 0 -74 26 -74 85v141h-37v24c44 10 59 39 64 87h31v-78h62v-33h-62v-141c0 -32 8 -50 29 -50c12 0 29 10 47 27z" />
    <glyph glyph-name="Asmall" unicode="&#xf761;" horiz-adv-x="514" 
d="M158 143l-20 -46c-25 -59 -25 -76 54 -76v-21h-189v21c61 0 70 12 103 87l147 342h14l147 -342c33 -75 45 -87 98 -87v-21h-224v21c72 0 79 17 54 76l-20 46h-164zM306 180l-66 153l-66 -153h132z" />
    <glyph glyph-name="Bsmall" unicode="&#xf762;" horiz-adv-x="490" 
d="M363 122c0 47 -27 86 -84 86h-83v-95c0 -65 7 -76 61 -76h22c57 0 84 38 84 85zM327 321c0 40 -23 76 -70 76h-61v-149h61c47 0 70 34 70 73zM46 0v20c67 0 79 17 79 117v160c0 100 -12 116 -79 116v20h112h99c94 0 144 -48 144 -110c0 -35 -17 -65 -43 -86
c50 -22 78 -64 78 -114c0 -70 -56 -123 -159 -123h-119h-112z" />
    <glyph glyph-name="Csmall" unicode="&#xf763;" horiz-adv-x="517" 
d="M452 0h-19c-4 18 -11 42 -18 49c-30 -37 -84 -66 -132 -66c-125 0 -226 105 -226 234c0 127 101 233 226 233c48 0 102 -28 132 -66c7 8 14 33 18 49h19v-173h-20c-19 93 -72 152 -149 152c-112 0 -145 -111 -145 -195c0 -85 33 -195 145 -195c77 0 130 59 149 152h20
v-174z" />
    <glyph glyph-name="Dsmall" unicode="&#xf764;" horiz-adv-x="558" 
d="M419 217c0 79 -26 180 -158 180h-65v-284c0 -65 7 -76 57 -76h8c132 0 158 100 158 180zM46 0v20c67 0 79 17 79 117v160c0 100 -12 116 -79 116v20h212c170 0 244 -98 244 -216c0 -119 -74 -217 -244 -217h-212z" />
    <glyph glyph-name="Esmall" unicode="&#xf765;" horiz-adv-x="475" 
d="M287 37c91 0 104 17 116 64l5 20h20l-8 -121h-374v20c67 0 79 17 79 117v160c0 100 -12 116 -79 116v20h221h129l8 -120h-21l-5 20c-11 46 -24 64 -115 64h-67v-149h6c100 0 108 12 108 79h20v-195h-20c0 66 -8 79 -108 79h-6v-58c0 -100 12 -116 79 -116h12z" />
    <glyph glyph-name="Fsmall" unicode="&#xf766;" horiz-adv-x="442" 
d="M192 137c0 -100 12 -117 79 -117v-20h-229v20c66 0 79 17 79 117v160c0 100 -13 116 -79 116v20h232h129l9 -120h-21l-5 20c-12 46 -24 64 -116 64h-78v-149h6c100 0 108 12 108 79h20v-195h-20c0 66 -8 79 -108 79h-6v-74z" />
    <glyph glyph-name="Gsmall" unicode="&#xf767;" horiz-adv-x="558" 
d="M466 21c-63 0 -125 -38 -183 -38c-125 0 -226 105 -226 234c0 127 101 233 226 233c48 0 102 -28 132 -66c7 8 14 33 18 49h19v-173h-20c-19 93 -72 152 -149 152c-112 0 -147 -111 -147 -195c0 -85 35 -195 147 -195c50 0 127 31 127 85c0 40 -37 61 -86 61v20h221v-20
c-67 0 -79 -17 -79 -117v-30z" />
    <glyph glyph-name="Hsmall" unicode="&#xf768;" horiz-adv-x="620" 
d="M196 248h227v49c0 100 -12 116 -79 116v20h229v-20c-66 0 -79 -16 -79 -116v-160c0 -100 13 -117 79 -117v-20h-229v20c67 0 79 17 79 117v74h-227v-74c0 -100 12 -117 79 -117v-20h-229v20c67 0 79 17 79 117v160c0 100 -12 116 -79 116v20h229v-20
c-67 0 -79 -16 -79 -116v-49z" />
    <glyph glyph-name="Ismall" unicode="&#xf769;" horiz-adv-x="322" 
d="M275 0h-229v20c67 0 79 17 79 117v160c0 100 -12 116 -79 116v20h229v-20c-67 0 -79 -16 -79 -116v-160c0 -100 12 -117 79 -117v-20z" />
    <glyph glyph-name="Jsmall" unicode="&#xf76a;" horiz-adv-x="322" 
d="M125 297c0 100 -12 116 -79 116v20h229v-20c-67 0 -79 -16 -79 -116v-271c0 -133 -71 -189 -147 -189c-112 0 -147 107 -90 111c55 4 24 -78 95 -78c39 0 71 30 71 156v271z" />
    <glyph glyph-name="Ksmall" unicode="&#xf76b;" horiz-adv-x="571" 
d="M222 210l-26 -22v-51c0 -100 12 -117 79 -117v-20h-229v20c67 0 79 17 79 117v160c0 100 -12 116 -79 116v20h229v-20c-67 0 -79 -16 -79 -116v-64l122 104c72 62 67 76 12 76v20h188v-20c-50 0 -80 -17 -163 -88l-86 -74l163 -143c82 -72 109 -87 144 -87v-21h-235v21
c55 -1 65 17 2 76z" />
    <glyph glyph-name="Lsmall" unicode="&#xf76c;" horiz-adv-x="443" 
d="M125 297c0 100 -12 116 -79 116v20h229v-20c-67 0 -79 -16 -79 -116v-144c0 -100 12 -116 79 -116h35c92 0 104 17 116 64l5 20h21l-7 -121h-399v20c67 0 79 17 79 117v160z" />
    <glyph glyph-name="Msmall" unicode="&#xf76d;" horiz-adv-x="678" 
d="M162 337v-200c0 -100 12 -117 79 -117v-20h-195v20c67 0 79 17 79 117v160c0 100 -12 116 -79 116v20h150l149 -334l148 334h140v-20c-67 0 -80 -16 -80 -116v-160c0 -100 13 -117 80 -117v-20h-229v20c67 0 79 17 79 117v187l-151 -341h-14z" />
    <glyph glyph-name="Nsmall" unicode="&#xf76e;" horiz-adv-x="588" 
d="M125 297c0 100 -12 116 -79 116v20h123l266 -316v180c0 100 -12 116 -79 116v20h195v-20c-67 0 -79 -16 -79 -116v-313h-19l-291 349v-196c0 -100 12 -117 79 -117v-20h-195v20c67 0 79 17 79 117v160z" />
    <glyph glyph-name="Osmall" unicode="&#xf76f;" horiz-adv-x="593" 
d="M541 217c0 -129 -110 -234 -244 -234s-244 105 -244 234c0 127 110 233 244 233s244 -106 244 -233zM459 217c0 86 -44 195 -162 195c-119 0 -162 -109 -162 -195c0 -87 43 -195 162 -195c118 0 162 108 162 195z" />
    <glyph glyph-name="Psmall" unicode="&#xf770;" horiz-adv-x="444" 
d="M335 309c0 48 -26 88 -82 88h-57v-174h57c56 0 82 39 82 86zM196 137c0 -100 12 -117 79 -117v-20h-229v20c67 0 79 17 79 117v160c0 100 -12 116 -79 116v20h207c103 0 160 -53 160 -124c0 -69 -57 -123 -160 -123h-57v-49z" />
    <glyph glyph-name="Qsmall" unicode="&#xf771;" horiz-adv-x="602" 
d="M637 -68c-20 -58 -69 -127 -158 -127s-162 118 -231 118c-67 0 -60 -53 -85 -56c-17 -3 -31 10 -31 30s56 73 121 91c-116 26 -196 117 -196 229c0 127 110 232 244 232s244 -105 244 -232c0 -124 -98 -218 -219 -232c-15 -2 -70 -18 -93 -36c110 11 174 -82 259 -82
c61 0 103 22 129 73zM465 217c0 86 -46 195 -164 195s-163 -109 -163 -195c0 -87 45 -195 163 -195s164 108 164 195z" />
    <glyph glyph-name="Rsmall" unicode="&#xf772;" horiz-adv-x="485" 
d="M335 309c0 48 -26 88 -82 88h-57v-174h57c56 0 82 39 82 86zM292 188l62 -75c40 -47 86 -86 134 -93v-20h-128l-136 186h-28v-49c0 -100 12 -117 79 -117v-20h-229v20c67 0 79 17 79 117v160c0 100 -12 116 -79 116v20h207c103 0 160 -53 160 -124
c0 -61 -46 -111 -121 -121z" />
    <glyph glyph-name="Ssmall" unicode="&#xf773;" horiz-adv-x="406" 
d="M358 120c0 -82 -65 -137 -143 -137c-52 0 -94 25 -112 37c-6 -7 -16 -20 -19 -37h-18v172h20c8 -85 62 -133 137 -133c43 0 77 24 77 67c0 35 -28 62 -82 89l-68 35c-48 25 -82 66 -82 122c0 63 52 114 125 114c41 0 73 -15 94 -30c6 6 13 15 16 31h19v-169h-20
c-6 60 -33 131 -105 131c-39 0 -72 -21 -72 -58c0 -35 26 -54 87 -86l67 -35c57 -29 79 -74 79 -113z" />
    <glyph glyph-name="Tsmall" unicode="&#xf774;" horiz-adv-x="464" 
d="M198 394h-58c-92 0 -100 -17 -112 -64l-5 -20h-20l6 123h446l7 -123h-21l-5 20c-12 47 -24 64 -116 64h-52v-257c0 -100 13 -117 80 -117v-20h-230v20c67 0 80 17 80 117v257z" />
    <glyph glyph-name="Usmall" unicode="&#xf775;" horiz-adv-x="573" 
d="M179 155c0 -87 48 -127 118 -127s122 40 122 127v142c0 100 -12 116 -79 116v20h204v-20c-66 0 -79 -16 -79 -116v-135c0 -117 -81 -178 -179 -178s-178 61 -178 178v135c0 100 -12 116 -79 116v20h229v-20c-66 0 -79 -16 -79 -116v-142z" />
    <glyph glyph-name="Vsmall" unicode="&#xf776;" horiz-adv-x="489" 
d="M502 413c-61 0 -70 -12 -103 -88l-147 -342h-14l-147 342c-33 76 -45 88 -98 88v20h225v-20c-73 0 -80 -18 -55 -76l102 -236l102 236c26 59 26 76 -54 76v20h189v-20z" />
    <glyph glyph-name="Wsmall" unicode="&#xf777;" horiz-adv-x="648" 
d="M353 433l98 -300l69 204c20 59 11 76 -53 76v20h188v-20c-62 0 -78 -15 -102 -88l-115 -342h-13l-102 313l-104 -313h-13l-111 342c-24 73 -40 88 -98 88v20h222v-20c-59 0 -74 -14 -54 -76l67 -204l101 300h20z" />
    <glyph glyph-name="Xsmall" unicode="&#xf778;" horiz-adv-x="513" 
d="M245 180l-67 -83c-45 -58 -32 -76 26 -76v-21h-188v21c47 0 74 23 125 87l82 104l-80 113c-47 68 -68 88 -120 88v20h224v-20c-64 0 -65 -20 -26 -76l47 -69l55 69c47 61 35 76 -26 76v20h188v-20c-51 0 -76 -25 -125 -88l-70 -87l91 -130c47 -67 73 -87 121 -87v-21
h-224v21c63 0 66 17 25 76z" />
    <glyph glyph-name="Ysmall" unicode="&#xf779;" horiz-adv-x="471" 
d="M271 179v-42c0 -100 12 -117 79 -117v-20h-229v20c67 0 79 17 79 117v41l-99 147c-47 69 -65 88 -118 88v20h223v-20c-63 0 -69 -17 -29 -76l77 -115l78 115c41 61 39 76 -29 76v20h189v-20c-55 0 -79 -23 -123 -88z" />
    <glyph glyph-name="Zsmall" unicode="&#xf77a;" horiz-adv-x="445" 
d="M288 397h-86c-92 0 -104 -18 -116 -64l-5 -20h-21l7 120h318v-13l-240 -383h115c92 0 104 17 116 64l5 20h21l-7 -121h-342v23z" />
    <glyph glyph-name="Lslashsmall" unicode="&#xf6f9;" horiz-adv-x="443" 
d="M125 164c0 1 -72 -53 -72 -53l-25 28l97 73v85c0 100 -12 116 -79 116v20h229v-20c-67 0 -79 -16 -79 -116v-33l81 61l26 -28l-107 -79v-65c0 -100 12 -116 79 -116h35c92 0 104 17 116 64l5 20h21l-7 -121h-399v20c67 0 79 17 79 117v27z" />
    <glyph glyph-name="Scaronsmall" unicode="&#xf6fd;" horiz-adv-x="398" 
d="M353 120c0 -82 -65 -137 -142 -137c-52 0 -94 25 -112 37c-6 -7 -16 -20 -19 -37h-18v172h20c8 -85 62 -133 137 -133c43 0 77 24 77 67c0 35 -28 62 -82 89l-68 35c-48 25 -83 66 -83 122c0 63 53 114 125 114c42 0 74 -15 95 -30c5 6 13 15 15 31h20v-169h-20
c-6 60 -33 131 -105 131c-39 0 -72 -21 -72 -58c0 -35 26 -54 87 -86l67 -35c57 -29 78 -74 78 -113zM310 637l-119 -129l-119 129l12 12l107 -76l107 76z" />
    <glyph glyph-name="Zcaronsmall" unicode="&#xf6ff;" horiz-adv-x="445" 
d="M288 397h-86c-92 0 -104 -18 -116 -64l-5 -20h-21l7 120h318v-13l-240 -383h115c92 0 104 17 116 64l5 20h21l-7 -121h-342v23zM337 637l-119 -129l-119 129l12 12l107 -76l107 76z" />
    <glyph glyph-name="oneeighth" unicode="&#x215b;" horiz-adv-x="853" 
d="M628 600l-384 -618l-36 18l384 618zM799 83c0 -55 -58 -100 -131 -100c-72 0 -130 45 -130 100c0 50 36 70 78 86c-32 19 -60 43 -60 75c0 48 51 86 112 86c62 0 113 -38 113 -86c0 -34 -32 -51 -68 -66c45 -20 86 -45 86 -95zM725 253c0 23 -24 48 -57 48
c-32 0 -56 -25 -56 -48c0 -27 36 -45 66 -60c24 12 47 32 47 60zM743 75c0 38 -50 57 -93 76c-29 -14 -57 -37 -57 -76c0 -31 29 -63 75 -63c47 0 75 32 75 63zM270 287h-172v19c50 0 58 12 58 81v115c0 69 -17 76 -69 75v18l126 26v-234c0 -69 9 -81 57 -81v-19z" />
    <glyph glyph-name="threeeighths" unicode="&#x215c;" horiz-adv-x="853" 
d="M636 600l-383 -618l-36 18l383 618zM791 83c0 -55 -58 -100 -131 -100c-72 0 -131 45 -131 100c0 50 37 70 79 86c-32 19 -60 43 -60 75c0 48 50 86 112 86s113 -38 113 -86c0 -34 -32 -51 -69 -66c45 -20 87 -45 87 -95zM717 253c0 23 -24 48 -57 48
c-32 0 -57 -25 -57 -48c0 -27 36 -45 66 -60c24 12 48 32 48 60zM735 75c0 38 -50 57 -93 76c-29 -14 -57 -37 -57 -76c0 -31 28 -63 75 -63s75 32 75 63zM306 378c0 -58 -54 -108 -128 -108c-71 0 -109 43 -109 68c0 11 7 19 20 19c25 0 21 -57 89 -57c49 0 70 39 70 78
c0 35 -22 66 -57 73c-4 -4 -8 -10 -16 -23c-7 -12 -17 -16 -24 -16c-15 0 -26 18 -9 36l99 104h-89c-29 0 -56 -8 -63 -38l-5 -17h-20l19 103h215v-23l-79 -94c51 -17 87 -60 87 -105z" />
    <glyph glyph-name="fiveeighths" unicode="&#x215d;" horiz-adv-x="853" 
d="M313 385c0 -63 -60 -115 -133 -115c-102 0 -130 87 -83 87c25 0 15 -58 83 -58c48 0 75 43 75 86s-22 83 -69 83c-28 0 -58 -21 -68 -56h-33l18 188h195l-10 -48h-154l-7 -78c11 13 37 26 59 26c77 0 127 -52 127 -115zM636 600l-383 -618l-36 18l383 618zM791 83
c0 -55 -58 -100 -131 -100c-72 0 -131 45 -131 100c0 50 37 70 79 86c-32 19 -60 43 -60 75c0 48 50 86 112 86s113 -38 113 -86c0 -34 -32 -51 -69 -66c45 -20 87 -45 87 -95zM717 253c0 23 -24 48 -57 48c-32 0 -57 -25 -57 -48c0 -27 36 -45 66 -60c24 12 48 32 48 60z
M735 75c0 38 -50 57 -93 76c-29 -14 -57 -37 -57 -76c0 -31 28 -63 75 -63s75 32 75 63z" />
    <glyph glyph-name="seveneighths" unicode="&#x215e;" horiz-adv-x="853" 
d="M342 577l-139 -277c-12 -24 -22 -39 -45 -33c-12 4 -29 20 -9 51l149 234h-129c-28 0 -55 -8 -62 -38l-4 -17h-24l19 103h244v-23zM628 600l-384 -618l-36 18l384 618zM791 83c0 -55 -58 -100 -131 -100c-72 0 -131 45 -131 100c0 50 37 70 79 86c-32 19 -60 43 -60 75
c0 48 50 86 112 86s113 -38 113 -86c0 -34 -32 -51 -69 -66c45 -20 87 -45 87 -95zM717 253c0 23 -24 48 -57 48c-32 0 -57 -25 -57 -48c0 -27 36 -45 66 -60c24 12 48 32 48 60zM735 75c0 38 -50 57 -93 76c-29 -14 -57 -37 -57 -76c0 -31 28 -63 75 -63s75 32 75 63z" />
    <glyph glyph-name="onethird" unicode="&#x2153;" horiz-adv-x="853" 
d="M628 600l-384 -618l-36 18l384 618zM781 92c0 -59 -54 -109 -128 -109c-71 0 -109 44 -109 69c0 11 7 18 20 18c25 0 21 -57 89 -57c49 0 70 40 70 79c0 34 -22 66 -57 72c-4 -4 -8 -10 -16 -22c-7 -13 -17 -17 -24 -17c-15 0 -26 18 -9 36l99 104h-89
c-29 0 -56 -7 -63 -37l-5 -18h-20l19 103h215v-23l-79 -94c51 -17 87 -59 87 -104zM270 287h-172v19c50 0 58 12 58 81v115c0 69 -17 76 -69 75v18l126 26v-234c0 -69 9 -81 57 -81v-19z" />
    <glyph glyph-name="twothirds" unicode="&#x2154;" horiz-adv-x="853" 
d="M636 600l-383 -618l-36 18l383 618zM789 92c0 -59 -54 -109 -127 -109c-72 0 -109 44 -109 69c0 11 6 18 20 18c25 0 20 -57 89 -57c48 0 70 40 70 79c0 34 -23 66 -58 72c-4 -4 -8 -10 -16 -22c-7 -13 -16 -17 -24 -17c-15 0 -26 18 -9 36l99 104h-89
c-29 0 -56 -7 -62 -37l-5 -18h-20l18 103h216v-23l-79 -94c50 -17 86 -59 86 -104zM314 335l-9 -48h-233v22l132 119c34 30 44 50 44 87c0 38 -26 64 -69 64s-86 -45 -46 -105l-26 -25c-80 55 -40 168 74 168c64 0 123 -38 123 -99c0 -47 -32 -80 -60 -104l-89 -79h159z" />
    <glyph glyph-name="zerosuperior" unicode="&#x2070;" horiz-adv-x="392" 
d="M335 583c0 -98 -62 -180 -138 -180c-77 0 -139 82 -139 180c0 99 62 180 139 180c76 0 138 -81 138 -180zM267 583c0 80 -22 149 -70 149c-49 0 -70 -69 -70 -149c0 -79 21 -148 70 -148c48 0 70 69 70 148z" />
    <glyph glyph-name="foursuperior" unicode="&#x2074;" horiz-adv-x="375" 
d="M323 618l-5 -105h-75c0 -63 10 -77 59 -77v-19h-178v19c50 0 60 14 60 77h-152v18l186 238h25v-221c29 0 49 14 58 53l4 17h18zM184 548v128l-100 -128h100z" />
    <glyph glyph-name="fivesuperior" unicode="&#x2075;" horiz-adv-x="375" 
d="M322 523c0 -65 -66 -119 -146 -119c-78 0 -116 42 -116 69c0 12 8 23 23 23c28 0 17 -62 93 -62c53 0 80 44 80 89s-21 87 -73 87c-32 0 -65 -22 -75 -59h-37l22 199h213l-10 -55h-171l-7 -81c11 14 41 29 73 29c74 0 131 -54 131 -120z" />
    <glyph glyph-name="sixsuperior" unicode="&#x2076;" horiz-adv-x="375" 
d="M322 513c0 -60 -57 -109 -127 -109c-50 0 -141 32 -141 164c0 95 53 195 149 195c59 0 100 -27 100 -49c0 -15 -6 -22 -23 -22c-18 0 -30 38 -76 38c-54 0 -79 -73 -85 -137c17 17 45 30 77 30c72 0 126 -50 126 -110zM258 513c0 34 -25 78 -70 78c-30 0 -60 -16 -70 -38
c1 -75 39 -118 77 -118c44 0 63 44 63 78z" />
    <glyph glyph-name="sevensuperior" unicode="&#x2077;" horiz-adv-x="358" 
d="M309 726l-114 -284c-11 -28 -25 -44 -52 -39c-13 3 -31 24 -12 58l130 234h-118c-29 0 -59 -11 -65 -38l-4 -19h-21l20 112h236v-24z" />
    <glyph glyph-name="eightsuperior" unicode="&#x2078;" horiz-adv-x="375" 
d="M326 508c0 -58 -62 -104 -138 -104c-75 0 -136 41 -136 99c0 51 40 77 81 93c-32 19 -63 44 -63 77c0 50 55 90 118 90c64 0 119 -33 119 -82c0 -35 -34 -61 -73 -77c47 -20 92 -45 92 -96zM245 682c0 25 -24 51 -57 51c-32 0 -57 -21 -57 -51c0 -28 36 -46 66 -61
c25 12 48 32 48 61zM264 499c0 39 -51 59 -95 79c-29 -15 -57 -39 -57 -79c0 -31 29 -65 76 -65c48 0 76 34 76 65z" />
    <glyph glyph-name="ninesuperior" unicode="&#x2079;" horiz-adv-x="375" 
d="M54 653c0 60 57 109 127 109c50 0 141 -32 141 -164c0 -95 -53 -195 -149 -195c-59 0 -100 27 -100 49c0 15 6 22 23 22c18 0 30 -38 76 -38c54 0 79 73 85 137c-17 -17 -45 -30 -77 -30c-72 0 -126 50 -126 110zM118 653c0 -34 25 -78 70 -78c30 0 60 16 70 38
c-1 75 -39 118 -77 118c-44 0 -63 -44 -63 -78z" />
    <glyph glyph-name="zeroinferior" unicode="&#x2080;" horiz-adv-x="392" 
d="M335 17c0 -99 -62 -180 -138 -180c-77 0 -139 81 -139 180c0 98 62 180 139 180c76 0 138 -82 138 -180zM267 17c0 80 -22 148 -70 148c-49 0 -70 -68 -70 -148c0 -79 21 -149 70 -149c48 0 70 70 70 149z" />
    <glyph glyph-name="oneinferior" unicode="&#x2081;" horiz-adv-x="325" 
d="M129 72c0 71 -17 78 -72 77v22l141 27v-245c0 -71 9 -84 65 -84v-19h-199v19c56 0 65 13 65 84v119z" />
    <glyph glyph-name="twoinferior" unicode="&#x2082;" horiz-adv-x="375" 
d="M322 -96l-11 -54h-257v23l147 124c37 31 46 53 46 91c0 39 -28 66 -74 66c-48 0 -91 -46 -50 -109l-30 -26c-88 58 -44 174 81 174c71 0 136 -39 136 -103c0 -48 -33 -83 -66 -107l-105 -79h183z" />
    <glyph glyph-name="threeinferior" unicode="&#x2083;" horiz-adv-x="375" 
d="M253 129h-105c-30 0 -59 -8 -65 -39l-5 -18h-20l19 111h238v-26l-89 -99c56 -15 97 -60 97 -108c0 -60 -60 -113 -140 -113s-121 46 -121 71c0 12 7 21 22 21c28 0 23 -60 99 -60c53 0 74 40 74 81c0 36 -22 69 -61 76c-4 -4 -8 -11 -18 -23c-7 -11 -18 -18 -25 -18
c-18 0 -29 20 -10 38z" />
    <glyph glyph-name="fourinferior" unicode="&#x2084;" horiz-adv-x="375" 
d="M323 52l-5 -106h-75c0 -63 10 -77 59 -77v-19h-178v19c50 0 60 14 60 77h-152v18l186 239h25v-222c29 1 49 13 58 53l4 18h18zM184 -19v128l-100 -128h100z" />
    <glyph glyph-name="fiveinferior" unicode="&#x2085;" horiz-adv-x="375" 
d="M322 -43c0 -66 -66 -120 -146 -120c-78 0 -116 42 -116 70c0 11 8 22 23 22c28 0 17 -61 93 -61c53 0 80 44 80 89s-21 86 -73 86c-32 0 -65 -22 -75 -59h-37l22 199h213l-10 -55h-171l-7 -80c11 13 41 29 73 29c74 0 131 -54 131 -120z" />
    <glyph glyph-name="sixinferior" unicode="&#x2086;" horiz-adv-x="375" 
d="M322 -54c0 -59 -57 -109 -127 -109c-50 0 -141 32 -141 164c0 95 53 196 149 196c59 0 100 -28 100 -49c0 -15 -6 -23 -23 -23c-18 0 -30 38 -76 38c-54 0 -79 -73 -85 -136c17 16 45 29 77 29c72 0 126 -50 126 -110zM258 -54c0 34 -25 78 -70 78c-30 0 -60 -16 -70 -38
c1 -75 39 -118 77 -118c44 0 63 45 63 78z" />
    <glyph glyph-name="seveninferior" unicode="&#x2087;" horiz-adv-x="358" 
d="M309 159l-114 -284c-11 -28 -25 -44 -52 -38c-13 2 -31 23 -12 57l130 234h-118c-29 0 -59 -10 -65 -38l-4 -18h-21l20 111h236v-24z" />
    <glyph glyph-name="eightinferior" unicode="&#x2088;" horiz-adv-x="375" 
d="M326 -59c0 -58 -62 -104 -138 -104c-75 0 -136 41 -136 99c0 52 40 77 81 93c-32 19 -63 44 -63 78c0 50 55 89 118 89c64 0 119 -33 119 -82c0 -35 -34 -61 -73 -76c47 -20 92 -45 92 -97zM245 115c0 25 -24 51 -57 51c-32 0 -57 -21 -57 -51c0 -27 36 -46 66 -61
c25 12 48 33 48 61zM264 -67c0 39 -51 58 -95 78c-29 -15 -57 -38 -57 -78c0 -32 29 -65 76 -65c48 0 76 33 76 65z" />
    <glyph glyph-name="nineinferior" unicode="&#x2089;" horiz-adv-x="375" 
d="M54 87c0 59 57 108 127 108c50 0 141 -32 141 -163c0 -95 -53 -196 -149 -196c-59 0 -100 27 -100 49c0 15 6 23 23 23c18 0 30 -39 76 -39c54 0 79 74 85 137c-17 -17 -45 -29 -77 -29c-72 0 -126 50 -126 110zM118 87c0 -34 25 -79 70 -79c30 0 60 16 70 39
c-1 75 -39 117 -77 117c-44 0 -63 -44 -63 -77z" />
    <glyph glyph-name="Agravesmall" unicode="&#xf7e0;" horiz-adv-x="514" 
d="M158 143l-20 -46c-25 -59 -25 -76 54 -76v-21h-189v21c61 0 70 12 103 87l147 342h14l147 -342c33 -75 45 -87 98 -87v-21h-224v21c72 0 79 17 54 76l-20 46h-164zM306 180l-66 153l-66 -153h132zM297 515l-5 -7l-138 59c-8 4 -23 15 -23 30c0 12 9 29 28 29
c17 0 28 -8 44 -23z" />
    <glyph glyph-name="Aacutesmall" unicode="&#xf7e1;" horiz-adv-x="514" 
d="M158 143l-20 -46c-25 -59 -25 -76 54 -76v-21h-189v21c61 0 70 12 103 87l147 342h14l147 -342c33 -75 45 -87 98 -87v-21h-224v21c72 0 79 17 54 76l-20 46h-164zM306 180l-66 153l-66 -153h132zM401 597c0 -15 -15 -26 -23 -30l-138 -59l-5 7l93 88c17 15 28 23 45 23
c19 0 28 -17 28 -29z" />
    <glyph glyph-name="Acircumflexsmall" unicode="&#xf7e2;" horiz-adv-x="514" 
d="M375 520l-12 -12l-107 76l-107 -76l-12 12l119 129zM158 143l-20 -46c-25 -59 -25 -76 54 -76v-21h-189v21c61 0 70 12 103 87l147 342h14l147 -342c33 -75 45 -87 98 -87v-21h-224v21c72 0 79 17 54 76l-20 46h-164zM306 180l-66 153l-66 -153h132z" />
    <glyph glyph-name="Atildesmall" unicode="&#xf7e3;" horiz-adv-x="514" 
d="M382 608c0 -63 -28 -100 -69 -100c-35 0 -94 55 -123 55c-18 0 -36 -20 -42 -45h-15c0 57 29 97 64 97c40 0 90 -55 126 -55c22 0 35 18 43 48h16zM158 143l-20 -46c-25 -59 -25 -76 54 -76v-21h-189v21c61 0 70 12 103 87l147 342h14l147 -342c33 -75 45 -87 98 -87v-21
h-224v21c72 0 79 17 54 76l-20 46h-164zM306 180l-66 153l-66 -153h132z" />
    <glyph glyph-name="Adieresissmall" unicode="&#xf7e4;" horiz-adv-x="514" 
d="M158 143l-20 -46c-25 -59 -25 -76 54 -76v-21h-189v21c61 0 70 12 103 87l147 342h14l147 -342c33 -75 45 -87 98 -87v-21h-224v21c72 0 79 17 54 76l-20 46h-164zM306 180l-66 153l-66 -153h132zM174 587c22 0 39 -18 39 -39c0 -22 -17 -40 -39 -40s-39 18 -39 40
c0 21 17 39 39 39zM340 587c21 0 39 -18 39 -39c0 -22 -18 -40 -39 -40c-22 0 -39 18 -39 40c0 21 17 39 39 39z" />
    <glyph glyph-name="Aringsmall" unicode="&#xf7e5;" horiz-adv-x="514" 
d="M158 143l-20 -46c-25 -59 -25 -76 54 -76v-21h-189v21c61 0 70 12 103 87l147 342h14l147 -342c33 -75 45 -87 98 -87v-21h-224v21c72 0 79 17 54 76l-20 46h-164zM306 180l-66 153l-66 -153h132zM258 672c46 0 83 -36 83 -82s-37 -83 -83 -83s-82 37 -82 83s36 82 82 82
zM258 636c-25 0 -46 -21 -46 -46s21 -46 46 -46s46 21 46 46s-21 46 -46 46z" />
    <glyph glyph-name="AEsmall" unicode="&#xf7e6;" horiz-adv-x="657" 
d="M198 182l-50 -85c-35 -60 -27 -76 39 -76v-21h-184v21c51 0 74 11 118 87l187 325h150h129l8 -120h-21l-5 20c-11 46 -24 64 -116 64h-66v-179h6c100 0 108 13 108 80h20v-195h-20c0 66 -8 79 -108 79h-6v-29c0 -100 12 -116 79 -116h12c91 0 104 17 115 64l5 20h21
l-8 -121h-374v20c66 0 79 17 79 117v45h-118zM316 385l-97 -167h97v167z" />
    <glyph glyph-name="Ccedillasmall" unicode="&#xf7e7;" horiz-adv-x="517" 
d="M242 -13c-105 21 -185 116 -185 230c0 127 101 233 226 233c48 0 102 -28 132 -66c7 8 14 33 18 49h19v-173h-20c-19 93 -72 152 -149 152c-112 0 -145 -111 -145 -195c0 -85 33 -195 145 -195c77 0 130 59 149 152h20v-174h-19c-4 18 -11 42 -18 49
c-30 -37 -83 -66 -132 -66l-40 -41c35 -2 84 -25 84 -79c0 -73 -115 -98 -147 -102v27c25 8 86 27 86 75c0 34 -53 49 -102 33v14z" />
    <glyph glyph-name="Egravesmall" unicode="&#xf7e8;" horiz-adv-x="475" 
d="M287 37c91 0 104 17 116 64l5 20h20l-8 -121h-374v20c67 0 79 17 79 117v160c0 100 -12 116 -79 116v20h221h129l8 -120h-21l-5 20c-11 46 -24 64 -115 64h-67v-149h6c100 0 108 12 108 79h20v-195h-20c0 66 -8 79 -108 79h-6v-58c0 -100 12 -116 79 -116h12zM309 515
l-5 -6l-138 58c-8 4 -23 15 -23 30c0 12 9 29 28 29c17 0 28 -8 45 -23z" />
    <glyph glyph-name="Eacutesmall" unicode="&#xf7e9;" horiz-adv-x="475" 
d="M287 37c91 0 104 17 116 64l5 20h20l-8 -121h-374v20c67 0 79 17 79 117v160c0 100 -12 116 -79 116v20h221h129l8 -120h-21l-5 20c-11 46 -24 64 -115 64h-67v-149h6c100 0 108 12 108 79h20v-195h-20c0 66 -8 79 -108 79h-6v-58c0 -100 12 -116 79 -116h12zM357 597
c0 -15 -15 -26 -23 -30l-137 -59l-5 7l93 87c17 15 27 24 44 24c19 0 28 -17 28 -29z" />
    <glyph glyph-name="Ecircumflexsmall" unicode="&#xf7ea;" horiz-adv-x="475" 
d="M356 520l-13 -12l-106 76l-107 -76l-12 12l119 129zM287 37c91 0 104 17 116 64l5 20h20l-8 -121h-374v20c67 0 79 17 79 117v160c0 100 -12 116 -79 116v20h221h129l8 -120h-21l-5 20c-11 46 -24 64 -115 64h-67v-149h6c100 0 108 12 108 79h20v-195h-20
c0 66 -8 79 -108 79h-6v-58c0 -100 12 -116 79 -116h12z" />
    <glyph glyph-name="Edieresissmall" unicode="&#xf7eb;" horiz-adv-x="475" 
d="M287 37c91 0 104 17 116 64l5 20h20l-8 -121h-374v20c67 0 79 17 79 117v160c0 100 -12 116 -79 116v20h221h129l8 -120h-21l-5 20c-11 46 -24 64 -115 64h-67v-149h6c100 0 108 12 108 79h20v-195h-20c0 66 -8 79 -108 79h-6v-58c0 -100 12 -116 79 -116h12zM149 587
c22 0 39 -18 39 -39c0 -22 -17 -40 -39 -40s-39 18 -39 40c0 21 17 39 39 39zM315 587c21 0 39 -18 39 -39c0 -22 -18 -40 -39 -40c-22 0 -39 18 -39 40c0 21 17 39 39 39z" />
    <glyph glyph-name="Igravesmall" unicode="&#xf7ec;" horiz-adv-x="322" 
d="M210 515l-5 -7l-137 59c-9 4 -24 15 -24 30c0 12 9 29 29 29c16 0 27 -8 44 -23zM275 0h-229v20c67 0 79 17 79 117v160c0 100 -12 116 -79 116v20h229v-20c-67 0 -79 -16 -79 -116v-160c0 -100 12 -117 79 -117v-20z" />
    <glyph glyph-name="Iacutesmall" unicode="&#xf7ed;" horiz-adv-x="322" 
d="M270 597c0 -15 -15 -26 -23 -30l-138 -59l-5 7l94 88c16 15 27 23 44 23c19 0 28 -17 28 -29zM275 0h-229v20c67 0 79 17 79 117v160c0 100 -12 116 -79 116v20h229v-20c-67 0 -79 -16 -79 -116v-160c0 -100 12 -117 79 -117v-20z" />
    <glyph glyph-name="Icircumflexsmall" unicode="&#xf7ee;" horiz-adv-x="322" 
d="M279 519l-12 -11l-107 75l-107 -75l-12 11l119 129zM275 0h-229v20c67 0 79 17 79 117v160c0 100 -12 116 -79 116v20h229v-20c-67 0 -79 -16 -79 -116v-160c0 -100 12 -117 79 -117v-20z" />
    <glyph glyph-name="Idieresissmall" unicode="&#xf7ef;" horiz-adv-x="322" 
d="M76 587c22 0 39 -18 39 -39c0 -22 -17 -40 -39 -40s-39 18 -39 40c0 21 17 39 39 39zM242 587c21 0 39 -18 39 -39c0 -22 -18 -40 -39 -40c-22 0 -39 18 -39 40c0 21 17 39 39 39zM275 0h-229v20c67 0 79 17 79 117v160c0 100 -12 116 -79 116v20h229v-20
c-67 0 -79 -16 -79 -116v-160c0 -100 12 -117 79 -117v-20z" />
    <glyph glyph-name="Ethsmall" unicode="&#xf7f0;" horiz-adv-x="558" 
d="M196 243h95v-44h-95v-86c0 -65 7 -76 57 -76h8c132 0 158 100 158 180c0 79 -26 180 -158 180h-65v-154zM125 199h-83v44h83v54c0 100 -12 116 -79 116v20h212c170 0 244 -98 244 -216c0 -119 -74 -217 -244 -217h-212v20c67 0 79 17 79 117v62z" />
    <glyph glyph-name="Ntildesmall" unicode="&#xf7f1;" horiz-adv-x="597" 
d="M414 608c0 -63 -27 -100 -69 -100c-35 0 -93 55 -122 55c-19 0 -36 -20 -43 -45h-15c0 57 29 97 64 97c40 0 90 -55 126 -55c23 0 36 18 43 48h16zM125 297c0 100 -12 116 -79 116v20h123l266 -316v180c0 100 -12 116 -79 116v20h195v-20c-67 0 -79 -16 -79 -116v-313
h-19l-291 349v-196c0 -100 12 -117 79 -117v-20h-195v20c67 0 79 17 79 117v160z" />
    <glyph glyph-name="Ogravesmall" unicode="&#xf7f2;" horiz-adv-x="602" 
d="M545 217c0 -129 -110 -234 -244 -234s-244 105 -244 234c0 127 110 233 244 233s244 -106 244 -233zM463 217c0 86 -44 195 -162 195s-162 -109 -162 -195c0 -87 44 -195 162 -195s162 108 162 195zM359 515l-5 -6l-138 58c-8 4 -23 15 -23 30c0 12 9 29 28 29
c17 0 28 -8 45 -23z" />
    <glyph glyph-name="Oacutesmall" unicode="&#xf7f3;" horiz-adv-x="602" 
d="M545 217c0 -129 -110 -234 -244 -234s-244 105 -244 234c0 127 110 233 244 233s244 -106 244 -233zM463 217c0 86 -44 195 -162 195s-162 -109 -162 -195c0 -87 44 -195 162 -195s162 108 162 195zM408 597c0 -15 -15 -26 -23 -30l-137 -59l-5 7l93 87
c17 15 27 24 44 24c19 0 28 -17 28 -29z" />
    <glyph glyph-name="Ocircumflexsmall" unicode="&#xf7f4;" horiz-adv-x="602" 
d="M417 520l-13 -12l-106 76l-107 -76l-13 12l120 129zM545 217c0 -129 -110 -234 -244 -234s-244 105 -244 234c0 127 110 233 244 233s244 -106 244 -233zM463 217c0 86 -44 195 -162 195s-162 -109 -162 -195c0 -87 44 -195 162 -195s162 108 162 195z" />
    <glyph glyph-name="Otildesmall" unicode="&#xf7f5;" horiz-adv-x="602" 
d="M441 608c0 -63 -28 -100 -69 -100c-35 0 -94 55 -123 55c-18 0 -36 -20 -42 -45h-15c0 57 29 97 64 97c40 0 90 -55 126 -55c22 0 36 18 43 48h16zM545 217c0 -129 -110 -234 -244 -234s-244 105 -244 234c0 127 110 233 244 233s244 -106 244 -233zM463 217
c0 86 -44 195 -162 195s-162 -109 -162 -195c0 -87 44 -195 162 -195s162 108 162 195z" />
    <glyph glyph-name="Odieresissmall" unicode="&#xf7f6;" horiz-adv-x="602" 
d="M545 217c0 -129 -110 -234 -244 -234s-244 105 -244 234c0 127 110 233 244 233s244 -106 244 -233zM463 217c0 86 -44 195 -162 195s-162 -109 -162 -195c0 -87 44 -195 162 -195s162 108 162 195zM221 587c22 0 39 -18 39 -39c0 -22 -17 -40 -39 -40s-39 18 -39 40
c0 21 17 39 39 39zM387 587c21 0 39 -18 39 -39c0 -22 -18 -40 -39 -40c-22 0 -39 18 -39 40c0 21 17 39 39 39z" />
    <glyph glyph-name="OEsmall" unicode="&#xf6fa;" horiz-adv-x="758" 
d="M413 363c-25 30 -62 49 -112 49c-118 0 -162 -109 -162 -195c0 -87 44 -195 162 -195c50 0 87 19 112 48v293zM391 0c-28 -11 -58 -17 -90 -17c-134 0 -244 105 -244 234c0 127 110 233 244 233c32 0 62 -6 90 -17h164h129l9 -120h-21l-5 20c-12 46 -24 64 -116 64h-67
v-149h6c100 0 108 12 108 79h20v-195h-20c0 66 -8 79 -108 79h-6v-58c0 -100 13 -116 79 -116h12c92 0 104 17 116 64l5 20h21l-9 -121h-317z" />
    <glyph glyph-name="Oslashsmall" unicode="&#xf7f8;" horiz-adv-x="602" 
d="M421 354l-212 -303c24 -18 54 -29 92 -29c118 0 162 108 162 195c0 46 -12 98 -42 137zM182 79l211 304c-24 18 -55 29 -92 29c-118 0 -162 -109 -162 -195c0 -47 13 -99 43 -138zM150 33c-57 44 -93 110 -93 184c0 127 110 233 244 233c42 0 83 -11 118 -30l40 58
l34 -20l-40 -59c55 -43 92 -109 92 -182c0 -129 -110 -234 -244 -234c-43 0 -83 11 -118 30l-40 -57l-34 19z" />
    <glyph glyph-name="Ugravesmall" unicode="&#xf7f9;" horiz-adv-x="573" 
d="M179 155c0 -87 48 -127 118 -127s122 40 122 127v142c0 100 -12 116 -79 116v20h204v-20c-66 0 -79 -16 -79 -116v-135c0 -117 -81 -178 -179 -178s-178 61 -178 178v135c0 100 -12 116 -79 116v20h229v-20c-66 0 -79 -16 -79 -116v-142zM329 514l-5 -6l-138 58
c-8 4 -23 15 -23 30c0 12 9 29 28 29c17 0 28 -8 45 -23z" />
    <glyph glyph-name="Uacutesmall" unicode="&#xf7fa;" horiz-adv-x="573" 
d="M179 155c0 -87 48 -127 118 -127s122 40 122 127v142c0 100 -12 116 -79 116v20h204v-20c-66 0 -79 -16 -79 -116v-135c0 -117 -81 -178 -179 -178s-178 61 -178 178v135c0 100 -12 116 -79 116v20h229v-20c-66 0 -79 -16 -79 -116v-142zM414 596c0 -15 -15 -26 -23 -30
l-137 -59l-5 7l93 87c17 15 27 24 44 24c19 0 28 -17 28 -29z" />
    <glyph glyph-name="Ucircumflexsmall" unicode="&#xf7fb;" horiz-adv-x="573" 
d="M408 520l-13 -12l-107 76l-106 -76l-13 12l119 129zM179 155c0 -87 48 -127 118 -127s122 40 122 127v142c0 100 -12 116 -79 116v20h204v-20c-66 0 -79 -16 -79 -116v-135c0 -117 -81 -178 -179 -178s-178 61 -178 178v135c0 100 -12 116 -79 116v20h229v-20
c-66 0 -79 -16 -79 -116v-142z" />
    <glyph glyph-name="Udieresissmall" unicode="&#xf7fc;" horiz-adv-x="573" 
d="M179 155c0 -87 48 -127 118 -127s122 40 122 127v142c0 100 -12 116 -79 116v20h204v-20c-66 0 -79 -16 -79 -116v-135c0 -117 -81 -178 -179 -178s-178 61 -178 178v135c0 100 -12 116 -79 116v20h229v-20c-66 0 -79 -16 -79 -116v-142zM211 587c22 0 39 -18 39 -39
c0 -22 -17 -40 -39 -40s-39 18 -39 40c0 21 17 39 39 39zM377 587c21 0 39 -18 39 -39c0 -22 -18 -40 -39 -40c-22 0 -39 18 -39 40c0 21 17 39 39 39z" />
    <glyph glyph-name="Yacutesmall" unicode="&#xf7fd;" horiz-adv-x="483" 
d="M283 179v-42c0 -100 13 -117 80 -117v-20h-230v20c67 0 80 17 80 117v41l-100 147c-46 69 -65 88 -117 88v20h222v-20c-63 0 -69 -18 -29 -76l78 -115l77 115c42 61 39 76 -28 76v20h188v-20c-55 0 -78 -23 -122 -88zM374 597c0 -15 -15 -26 -23 -30l-137 -59l-5 7l93 87
c17 15 27 24 44 24c19 0 28 -17 28 -29z" />
    <glyph glyph-name="Thornsmall" unicode="&#xf7fe;" horiz-adv-x="433" 
d="M335 223c0 47 -26 70 -82 70h-57v-140h57c56 0 82 22 82 70zM196 116c2 -82 17 -96 79 -96v-20h-229v20c67 0 79 17 79 117v160c0 100 -12 116 -79 116v20h229v-20c-58 0 -75 -12 -78 -83h56c103 0 160 -35 160 -106c0 -69 -57 -108 -160 -108h-57z" />
    <glyph glyph-name="Ydieresissmall" unicode="&#xf7ff;" horiz-adv-x="483" 
d="M283 179v-42c0 -100 13 -117 80 -117v-20h-230v20c67 0 80 17 80 117v41l-100 147c-46 69 -65 88 -117 88v20h222v-20c-63 0 -69 -18 -29 -76l78 -115l77 115c42 61 39 76 -28 76v20h188v-20c-55 0 -78 -23 -122 -88zM155 587c22 0 39 -18 39 -39c0 -22 -17 -40 -39 -40
s-39 18 -39 40c0 21 17 39 39 39zM321 587c21 0 39 -18 39 -39c0 -22 -18 -40 -39 -40c-22 0 -39 18 -39 40c0 21 17 39 39 39z" />
    <glyph glyph-name=".null" unicode="&#xf001;" horiz-adv-x="0" 
 />
    <glyph glyph-name="CR" unicode="&#xf002;" horiz-adv-x="233" 
 />
    <glyph glyph-name="notequal" unicode="&#x2260;" 
d="M311 310h64v-44h-96l-56 -81h152v-44h-183l-77 -108l-32 18l64 90h-64v44h95l57 81h-152v44h183l77 109l32 -19z" />
    <glyph glyph-name="infinity" unicode="&#x221e;" horiz-adv-x="713" 
d="M668 223c0 -72 -53 -130 -135 -130c-55 0 -131 55 -175 100c-46 -45 -123 -100 -177 -100c-83 0 -136 58 -136 130c0 73 53 131 136 131c54 0 131 -56 177 -101c44 45 120 101 175 101c82 0 135 -58 135 -131zM618 223c0 47 -34 85 -82 85c-46 0 -151 -85 -151 -85
s105 -85 151 -85c48 0 82 40 82 85zM313 223c0 0 -90 85 -135 85c-49 0 -83 -38 -83 -85c0 -45 34 -85 83 -85c45 0 135 85 135 85z" />
    <glyph glyph-name="lessequal" unicode="&#x2264;" 
d="M408 38v-38h-358v38h358zM369 123l-11 -21l-308 166l308 165l11 -20l-204 -145z" />
    <glyph glyph-name="greaterequal" unicode="&#x2265;" 
d="M89 123l204 145l-204 145l12 20l307 -165l-307 -166zM50 38h358v-38h-358v38z" />
    <glyph glyph-name="partialdiff" unicode="&#x2202;" horiz-adv-x="525" 
d="M463 266c0 -233 -127 -283 -203 -283c-111 0 -202 85 -202 188s91 187 202 187c57 0 97 -26 121 -59c-6 140 -38 289 -149 289c-86 0 -91 -92 -134 -65c-45 28 30 97 135 97c154 0 230 -184 230 -354zM382 244c-12 42 -63 74 -122 74c-88 0 -121 -74 -121 -146
c0 -74 33 -149 121 -149c36 0 117 25 122 221z" />
    <glyph glyph-name="summation" unicode="&#x2211;" horiz-adv-x="598" 
d="M49 -170v17l240 386l-238 350v17h482l9 -132h-21l-5 20c-13 52 -24 75 -116 75h-258l234 -344l-219 -352h268c92 0 103 23 116 75l5 20h21l-9 -132h-509z" />
    <glyph glyph-name="product" unicode="&#x220f;" horiz-adv-x="692" 
d="M208 556v-418c0 -100 13 -117 96 -117v-21h-266v21c83 0 95 17 95 117v325c0 100 -12 116 -95 116v21h616v-21c-83 0 -96 -16 -96 -116v-325c0 -100 13 -117 96 -117v-21h-266v21c83 0 95 17 95 117v418h-275z" />
    <glyph glyph-name="pi" unicode="&#x3c0;" horiz-adv-x="488" 
d="M333 278v-218c0 -23 5 -42 19 -42c11 0 30 15 36 23l4 -23c-16 -21 -41 -35 -59 -35c-35 0 -55 30 -55 70v225h-84l-19 -225c-5 -51 -26 -70 -49 -70c-18 0 -35 14 -47 35l6 23c6 -8 22 -30 33 -30c14 0 20 14 23 42l19 225h-49c-44 0 -48 -30 -41 -55l-17 -4
c-30 64 0 114 61 114h274c44 0 47 30 40 55l18 4c29 -64 -1 -114 -62 -114h-51z" />
    <glyph glyph-name="integral" unicode="&#x222b;" horiz-adv-x="251" 
d="M157 -78c0 -133 -71 -189 -147 -189c-112 0 -147 107 -90 111c55 4 24 -78 95 -78c39 0 71 30 71 156v507c0 136 82 188 164 188c106 0 127 -110 67 -110c-49 0 -22 77 -85 77c-51 0 -75 -40 -75 -155v-507z" />
    <glyph glyph-name="Omega" unicode="&#x2126;" horiz-adv-x="575" 
d="M338 204c81 24 100 111 100 177c0 78 -25 183 -150 183c-126 0 -152 -105 -152 -183c0 -66 19 -153 100 -177v-204h-163l-6 158h24l3 -20c10 -53 19 -76 88 -76h17v109c-86 35 -141 118 -141 207c0 116 94 225 230 225c135 0 229 -109 229 -225c0 -88 -56 -172 -141 -206
v-110h17c70 0 78 23 88 76l3 20h24l-6 -158h-164v204z" />
    <glyph glyph-name="radical" unicode="&#x221a;" horiz-adv-x="549" 
d="M135 268l55 26l83 -205l242 652h41l-284 -763h-15z" />
    <glyph glyph-name="approxequal" unicode="&#x2248;" 
d="M95 311c0 0 28 33 67 33c40 0 92 -33 133 -33c38 0 67 33 67 33v-50s-28 -33 -67 -33c-40 0 -92 33 -133 33c-38 0 -67 -33 -67 -33v50zM95 178c0 0 28 33 67 33c40 0 92 -33 133 -33c38 0 67 33 67 33v-50s-28 -33 -67 -33c-40 0 -92 33 -133 33c-38 0 -67 -33 -67 -33
v50z" />
    <glyph glyph-name="Delta" unicode="&#x2206;" horiz-adv-x="557" 
d="M107 43h317l-155 442zM45 0l228 617h21l218 -617h-467z" />
    <glyph glyph-name="nbspace" unicode="&#xf003;" horiz-adv-x="233" 
 />
    <glyph glyph-name="lozenge" unicode="&#x25ca;" horiz-adv-x="494" 
d="M250 626l192 -331l-192 -341l-192 341zM250 34l143 262l-143 251l-144 -251z" />
    <glyph glyph-name="Euro" unicode="&#x20ac;" horiz-adv-x="554" 
d="M302 -17c-115 0 -198 99 -223 232h-61v45h55c-1 13 -2 27 -2 40s2 27 2 40h-55v44h61c25 133 108 233 223 233c58 0 107 -30 138 -72c11 9 24 27 28 52h20v-207h-21c-22 116 -68 188 -155 188c-94 0 -136 -91 -149 -194h194v-44h-198c-1 -13 -1 -27 -1 -40s0 -27 1 -40
h198v-45h-194c13 -103 55 -192 149 -192c88 0 133 74 155 187h21v-208h-20c-4 24 -17 44 -28 53c-32 -45 -80 -72 -138 -72z" />
    <glyph glyph-name="DLE" unicode="&#xf004;" horiz-adv-x="500" 
d="M133 298l-45 45l34 35s46 -46 45 -46c23 16 51 26 81 26s57 -10 80 -25l45 45l35 -34l-46 -46c16 -23 25 -50 25 -80s-9 -57 -25 -80l46 -46l-35 -34l-45 46c-23 -16 -50 -25 -80 -25s-58 9 -80 25l-46 -46l-34 35l45 45c-15 22 -25 50 -25 80s10 57 25 80zM248 304
c-48 0 -86 -39 -86 -86s38 -85 86 -85c47 0 85 38 85 85s-38 86 -85 86z" />
    <glyph glyph-name="published" unicode="&#xf005;" horiz-adv-x="683" 
d="M444 383c0 43 -24 79 -71 79h-62v-157h62c47 0 71 36 71 78zM374 273h-63v-45c0 -90 12 -105 71 -105v-18h-202v18c60 0 72 15 72 105v144c0 90 -12 105 -72 105v18h194c84 0 136 -48 136 -112c0 -62 -52 -110 -136 -110zM342 617c175 0 316 -142 316 -317
s-141 -317 -316 -317s-317 142 -317 317s142 317 317 317zM342 585c-158 0 -285 -127 -285 -285c0 -157 127 -285 285 -285c157 0 285 128 285 285c0 158 -128 285 -285 285z" />
    <glyph glyph-name="quotedblleft.alt" unicode="&#xf006;" horiz-adv-x="418" 
d="M345 414l-12 -11c-61 39 -91 106 -91 150c0 45 28 64 54 64s47 -23 47 -49c0 -25 -21 -48 -47 -48c-3 0 -6 0 -8 1c5 -39 20 -68 57 -107zM178 414l-11 -11c-62 39 -92 106 -92 150c0 45 28 64 54 64s47 -23 47 -49c0 -25 -21 -48 -47 -48c-2 0 -6 0 -8 1
c6 -39 20 -68 57 -107z" />
    <glyph glyph-name="quoteleft.alt" unicode="&#xf007;" horiz-adv-x="252" 
d="M178 414l-11 -11c-62 39 -92 106 -92 150c0 45 28 64 54 64s47 -23 47 -49c0 -25 -21 -48 -47 -48c-2 0 -6 0 -8 1c6 -39 20 -68 57 -107z" />
    <glyph glyph-name="s_s" unicode="&#xf008;" horiz-adv-x="553" 
d="M519 92c0 -66 -54 -109 -119 -109c-69 0 -107 71 -107 0h-20v146h20c0 -45 38 -112 110 -112c32 0 56 23 56 51c0 25 -21 43 -56 61l-55 30c-49 26 -67 68 -67 100c0 54 50 91 102 91c75 0 90 -52 90 0h21v-116h-21c0 42 -30 84 -81 84c-34 0 -51 -18 -51 -43
c0 -24 17 -37 61 -61l48 -26c44 -25 69 -60 69 -96zM153 -97c0 -118 -59 -160 -117 -160c-59 0 -92 42 -91 71c-1 16 8 28 27 28c44 0 15 -70 68 -70c30 0 42 35 42 131v526c0 136 82 188 164 188c106 0 127 -110 67 -110c-49 0 -22 77 -85 77c-51 0 -75 -40 -75 -155v-526z
" />
    <glyph glyph-name="s.alt_s" unicode="&#xf009;" horiz-adv-x="598" 
d="M117 427v2c0 136 82 188 164 188c106 0 127 -110 67 -110c-49 0 -22 77 -85 77c-51 0 -75 -40 -75 -155v-429h-150v21c66 0 79 17 79 117v160h-79v20c66 0 79 16 79 109zM564 92c0 -66 -54 -109 -119 -109c-69 0 -107 71 -107 0h-20v146h20c0 -45 38 -112 110 -112
c32 0 56 23 56 51c0 25 -21 43 -56 61l-55 30c-49 26 -67 68 -67 100c0 54 50 91 102 91c75 0 90 -52 90 0h21v-116h-21c0 42 -30 84 -81 84c-34 0 -51 -18 -51 -43c0 -24 17 -37 61 -61l48 -26c44 -25 69 -60 69 -96z" />
    <glyph glyph-name="registered.alt" unicode="&#xf329;" horiz-adv-x="683" 
d="M342 617c175 0 316 -142 316 -317s-141 -317 -316 -317s-317 142 -317 317s142 317 317 317zM428 383c0 43 -24 79 -75 79h-59v-157h59c51 0 75 36 75 78zM550 105h-100l-125 168h-31v-45c0 -90 12 -105 71 -105v-18h-202v18c60 0 72 15 72 105v144c0 90 -12 105 -72 105
v18h195c83 0 135 -48 135 -112c0 -55 -41 -100 -109 -109l57 -66c36 -44 85 -85 124 -85c39 49 62 110 62 177c0 158 -128 285 -285 285c-158 0 -285 -127 -285 -285c0 -157 127 -285 285 -285c81 0 156 35 208 90z" />
    <glyph glyph-name="published.alt" unicode="&#xf32a;" horiz-adv-x="512" 
d="M326 271c0 27 -16 52 -50 52h-33v-104h33c34 0 50 24 50 52zM243 167c0 -55 8 -65 51 -65v-15h-154v15c43 0 51 10 51 65v100c0 56 -8 65 -51 65v15h136c68 0 106 -34 106 -76s-38 -76 -106 -76h-33v-28zM256 418c-111 0 -201 -90 -201 -201s90 -201 201 -201
s201 90 201 201s-90 201 -201 201zM256 451c129 0 234 -105 234 -234s-105 -235 -234 -235s-234 106 -234 235s105 234 234 234z" />
    <glyph glyph-name="zero.nfra" unicode="&#xf00a;" horiz-adv-x="353" 
d="M303 440c0 -94 -57 -173 -126 -173c-70 0 -127 79 -127 173s57 173 127 173c69 0 126 -79 126 -173zM244 440c0 77 -21 143 -67 143c-48 0 -68 -66 -68 -143c0 -76 20 -142 68 -142c46 0 67 66 67 142z" />
    <glyph glyph-name="one.nfra" unicode="&#xf00b;" horiz-adv-x="286" 
d="M228 280h-171v19c49 0 57 12 57 81v118c0 70 -16 76 -69 75v19l127 26v-238c0 -69 8 -81 56 -81v-19z" />
    <glyph glyph-name="two.nfra" unicode="&#xf00c;" horiz-adv-x="344" 
d="M293 328l-9 -48h-233v23l132 121c33 30 44 51 44 88s-26 64 -69 64s-86 -45 -45 -105l-27 -25c-80 55 -40 167 74 167c64 0 123 -37 123 -99c0 -46 -32 -78 -60 -103l-90 -83h160z" />
    <glyph glyph-name="three.nfra" unicode="&#xf00d;" horiz-adv-x="344" 
d="M293 375c0 -58 -54 -108 -127 -108c-72 0 -109 43 -109 68c0 11 6 18 20 18c25 0 21 -56 89 -56c48 0 70 39 70 78c0 34 -23 66 -58 73c-4 -5 -8 -10 -15 -23c-8 -12 -17 -17 -25 -17c-15 0 -25 19 -9 36l99 108h-89c-29 0 -56 -8 -62 -38l-5 -17h-20l18 103h216v-23
l-79 -98c51 -16 86 -59 86 -104z" />
    <glyph glyph-name="four.nfra" unicode="&#xf00e;" horiz-adv-x="344" 
d="M300 478l-6 -102h-71c0 -60 9 -77 56 -77v-19h-167v19c48 0 57 17 57 77h-143v17l172 230h25v-214c27 1 45 13 55 52l4 17h18zM169 409v124l-93 -124h93z" />
    <glyph glyph-name="five.nfra" unicode="&#xf00f;" horiz-adv-x="344" 
d="M292 382c0 -64 -60 -115 -133 -115c-70 0 -105 41 -105 66c0 12 7 20 21 20c25 0 16 -57 84 -57c49 0 75 42 75 86c0 43 -21 83 -69 83c-28 0 -58 -22 -67 -57h-34l19 192h195l-10 -48h-155l-7 -83c12 13 38 28 67 28c67 0 119 -52 119 -115z" />
    <glyph glyph-name="six.nfra" unicode="&#xf010;" horiz-adv-x="344" 
d="M298 371c0 -58 -55 -104 -119 -104c-45 0 -130 30 -130 156c0 92 50 190 139 190c52 0 90 -27 90 -48c0 -13 -8 -20 -21 -20c-18 0 -27 37 -69 37c-50 0 -73 -72 -80 -132c19 16 48 25 76 25c64 0 114 -47 114 -104zM238 371c0 32 -23 75 -65 75c-29 0 -57 -15 -65 -37
c0 -72 35 -113 71 -113c41 0 59 42 59 75z" />
    <glyph glyph-name="seven.nfra" unicode="&#xf011;" horiz-adv-x="328" 
d="M288 577l-120 -280c-11 -25 -22 -39 -45 -34c-12 4 -27 20 -9 52l129 237h-114c-28 0 -56 -11 -62 -38l-4 -17h-21l19 103h227v-23z" />
    <glyph glyph-name="eight.nfra" unicode="&#xf012;" horiz-adv-x="344" 
d="M298 367c0 -56 -56 -100 -125 -100c-70 0 -126 39 -126 95c0 50 36 75 76 91c-30 18 -59 42 -59 75c0 47 50 85 109 85c58 0 108 -31 108 -78c0 -34 -32 -59 -67 -74c44 -20 84 -44 84 -94zM226 536c0 23 -23 48 -53 48c-31 0 -55 -20 -55 -48c0 -27 35 -45 63 -59
c23 11 45 31 45 59zM243 358c0 39 -47 57 -88 76c-27 -14 -54 -36 -54 -76c0 -30 27 -63 72 -63c44 0 70 33 70 63z" />
    <glyph glyph-name="nine.nfra" unicode="&#xf013;" horiz-adv-x="344" 
d="M47 509c0 58 54 104 118 104c45 0 130 -30 130 -156c0 -92 -50 -190 -138 -190c-53 0 -91 27 -91 48c0 13 8 20 22 20c17 0 26 -37 68 -37c50 0 73 72 80 132c-18 -16 -48 -25 -76 -25c-64 0 -113 47 -113 104zM107 509c0 -32 22 -75 64 -75c29 0 57 15 66 37
c-1 72 -36 113 -72 113c-41 0 -58 -42 -58 -75z" />
    <glyph glyph-name="zero.dfra" unicode="&#xf014;" horiz-adv-x="353" 
d="M303 160c0 -94 -57 -173 -126 -173c-70 0 -127 79 -127 173s57 173 127 173c69 0 126 -79 126 -173zM244 160c0 77 -21 143 -67 143c-48 0 -68 -66 -68 -143c0 -76 20 -142 68 -142c46 0 67 66 67 142z" />
    <glyph glyph-name="one.dfra" unicode="&#xf015;" horiz-adv-x="286" 
d="M228 0h-171v19c49 0 57 12 57 81v118c0 70 -16 76 -69 75v19l127 26v-238c0 -69 8 -81 56 -81v-19z" />
    <glyph glyph-name="two.dfra" unicode="&#xf016;" horiz-adv-x="344" 
d="M293 48l-9 -48h-233v23l132 121c33 30 44 51 44 88s-26 64 -69 64s-86 -45 -45 -105l-27 -25c-80 55 -40 167 74 167c64 0 123 -37 123 -99c0 -46 -32 -78 -60 -103l-90 -83h160z" />
    <glyph glyph-name="three.dfra" unicode="&#xf017;" horiz-adv-x="344" 
d="M293 95c0 -58 -54 -108 -127 -108c-72 0 -109 43 -109 68c0 11 6 18 20 18c25 0 21 -56 89 -56c48 0 70 39 70 78c0 34 -23 66 -58 73c-4 -5 -8 -10 -15 -23c-8 -12 -17 -17 -25 -17c-15 0 -25 19 -9 36l99 108h-89c-29 0 -56 -8 -62 -38l-5 -17h-20l18 103h216v-23
l-79 -98c51 -16 86 -59 86 -104z" />
    <glyph glyph-name="four.dfra" unicode="&#xf018;" horiz-adv-x="344" 
d="M300 198l-6 -102h-71c0 -60 9 -77 56 -77v-19h-167v19c48 0 57 17 57 77h-143v17l172 230h25v-214c27 1 45 13 55 52l4 17h18zM169 129v124l-93 -124h93z" />
    <glyph glyph-name="five.dfra" unicode="&#xf019;" horiz-adv-x="344" 
d="M292 102c0 -64 -60 -115 -133 -115c-70 0 -105 41 -105 66c0 12 7 20 21 20c25 0 16 -57 84 -57c49 0 75 42 75 86c0 43 -21 83 -69 83c-28 0 -58 -22 -67 -57h-34l19 192h195l-10 -48h-155l-7 -83c12 13 38 28 67 28c67 0 119 -52 119 -115z" />
    <glyph glyph-name="six.dfra" unicode="&#xf01a;" horiz-adv-x="344" 
d="M298 91c0 -58 -55 -104 -119 -104c-45 0 -130 30 -130 156c0 92 50 190 139 190c52 0 90 -27 90 -48c0 -13 -8 -20 -21 -20c-18 0 -27 37 -69 37c-50 0 -73 -72 -80 -132c19 16 48 25 76 25c64 0 114 -47 114 -104zM238 91c0 32 -23 75 -65 75c-29 0 -57 -15 -65 -37
c0 -72 35 -113 71 -113c41 0 59 42 59 75z" />
    <glyph glyph-name="seven.dfra" unicode="&#xf01b;" horiz-adv-x="328" 
d="M288 297l-120 -280c-11 -25 -22 -40 -45 -34c-12 4 -27 20 -9 52l129 237h-114c-28 0 -56 -11 -62 -38l-4 -17h-21l19 103h227v-23z" />
    <glyph glyph-name="eight.dfra" unicode="&#xf01c;" horiz-adv-x="344" 
d="M298 87c0 -56 -56 -100 -125 -100c-70 0 -126 39 -126 95c0 50 36 75 76 91c-30 18 -59 42 -59 75c0 47 50 85 109 85c58 0 108 -31 108 -78c0 -34 -32 -59 -67 -74c44 -20 84 -44 84 -94zM226 256c0 23 -23 48 -53 48c-31 0 -55 -20 -55 -48c0 -27 35 -45 63 -59
c23 11 45 31 45 59zM243 78c0 39 -47 57 -88 76c-27 -14 -54 -36 -54 -76c0 -30 27 -63 72 -63c44 0 70 33 70 63z" />
    <glyph glyph-name="nine.dfra" unicode="&#xf01d;" horiz-adv-x="344" 
d="M47 229c0 58 54 104 118 104c45 0 130 -30 130 -156c0 -92 -50 -190 -138 -190c-53 0 -91 27 -91 48c0 13 8 20 22 20c17 0 26 -37 68 -37c50 0 73 72 80 132c-18 -16 -48 -25 -76 -25c-64 0 -113 47 -113 104zM107 229c0 -32 22 -75 64 -75c29 0 57 15 66 37
c-1 72 -36 113 -72 113c-41 0 -58 -42 -58 -75z" />
    <glyph glyph-name="zero.numr" unicode="&#xf01e;" horiz-adv-x="392" 
d="M335 433c0 -98 -62 -180 -138 -180c-77 0 -139 82 -139 180c0 99 62 180 139 180c76 0 138 -81 138 -180zM267 433c0 80 -22 149 -70 149c-49 0 -70 -69 -70 -149c0 -79 21 -148 70 -148c48 0 70 69 70 148z" />
    <glyph glyph-name="one.numr" unicode="&#xf01f;" horiz-adv-x="325" 
d="M129 488c0 72 -17 79 -72 78v22l141 26v-245c0 -71 9 -83 65 -83v-19h-199v19c56 0 65 12 65 83v119z" />
    <glyph glyph-name="two.numr" unicode="&#xf020;" horiz-adv-x="375" 
d="M322 321l-11 -54h-257v23l147 123c37 32 46 54 46 91c0 39 -28 67 -74 67c-48 0 -91 -46 -50 -109l-30 -26c-88 57 -44 174 81 174c71 0 136 -39 136 -103c0 -49 -33 -84 -66 -108l-105 -78h183z" />
    <glyph glyph-name="three.numr" unicode="&#xf021;" horiz-adv-x="375" 
d="M253 546h-105c-30 0 -59 -8 -65 -39l-5 -19h-20l19 112h238v-27l-89 -98c56 -15 97 -61 97 -108c0 -60 -60 -113 -140 -113s-121 45 -121 71c0 12 7 21 22 21c28 0 23 -60 99 -60c53 0 74 40 74 81c0 36 -22 69 -61 76c-4 -5 -8 -11 -18 -24c-7 -11 -18 -17 -25 -17
c-18 0 -29 20 -10 37z" />
    <glyph glyph-name="four.numr" unicode="&#xf022;" horiz-adv-x="375" 
d="M323 468l-5 -105h-75c0 -63 10 -77 59 -77v-19h-178v19c50 0 60 14 60 77h-152v18l186 238h25v-221c29 0 49 14 58 53l4 17h18zM184 398v128l-100 -128h100z" />
    <glyph glyph-name="five.numr" unicode="&#xf023;" horiz-adv-x="375" 
d="M322 373c0 -65 -66 -119 -146 -119c-78 0 -116 42 -116 69c0 12 8 23 23 23c28 0 17 -62 93 -62c53 0 80 44 80 89s-21 87 -73 87c-32 0 -65 -22 -75 -59h-37l22 199h213l-10 -55h-171l-7 -81c11 14 41 29 73 29c74 0 131 -54 131 -120z" />
    <glyph glyph-name="six.numr" unicode="&#xf024;" horiz-adv-x="375" 
d="M322 363c0 -60 -57 -109 -127 -109c-50 0 -141 32 -141 164c0 95 53 195 149 195c59 0 100 -27 100 -49c0 -15 -6 -22 -23 -22c-18 0 -30 38 -76 38c-54 0 -79 -73 -85 -137c17 17 45 30 77 30c72 0 126 -50 126 -110zM258 363c0 34 -25 78 -70 78c-30 0 -60 -16 -70 -38
c1 -75 39 -118 77 -118c44 0 63 44 63 78z" />
    <glyph glyph-name="seven.numr" unicode="&#xf025;" horiz-adv-x="358" 
d="M309 576l-114 -284c-11 -28 -25 -44 -52 -39c-13 3 -31 24 -12 58l130 234h-118c-29 0 -59 -11 -65 -38l-4 -19h-21l20 112h236v-24z" />
    <glyph glyph-name="eight.numr" unicode="&#xf026;" horiz-adv-x="375" 
d="M326 358c0 -58 -62 -104 -138 -104c-75 0 -136 41 -136 99c0 51 40 77 81 93c-32 19 -63 44 -63 77c0 50 55 90 118 90c64 0 119 -33 119 -82c0 -35 -34 -61 -73 -77c47 -20 92 -45 92 -96zM245 532c0 25 -24 51 -57 51c-32 0 -57 -21 -57 -51c0 -28 36 -46 66 -61
c25 12 48 32 48 61zM264 349c0 39 -51 59 -95 79c-29 -15 -57 -39 -57 -79c0 -31 29 -65 76 -65c48 0 76 34 76 65z" />
    <glyph glyph-name="nine.numr" unicode="&#xf027;" horiz-adv-x="375" 
d="M54 503c0 60 57 109 127 109c50 0 141 -32 141 -164c0 -95 -53 -195 -149 -195c-59 0 -100 27 -100 49c0 15 6 22 23 22c18 0 30 -38 76 -38c54 0 79 73 85 137c-17 -17 -45 -30 -77 -30c-72 0 -126 50 -126 110zM118 503c0 -34 25 -78 70 -78c30 0 60 16 70 38
c-1 75 -39 118 -77 118c-44 0 -63 -44 -63 -78z" />
    <glyph glyph-name="parenleft.numr" unicode="&#xf028;" horiz-adv-x="258" 
d="M239 173l-16 -19c-87 72 -162 167 -162 284s75 212 161 283l17 -18c-39 -43 -112 -134 -112 -265s73 -222 112 -265z" />
    <glyph glyph-name="parenright.numr" unicode="&#xf029;" horiz-adv-x="258" 
d="M19 173c39 43 113 134 113 265s-74 222 -113 265l18 18c86 -71 161 -166 161 -283s-75 -212 -162 -284z" />
    <glyph glyph-name="comma.numr" horiz-adv-x="246" 
d="M121 265c-3 -1 -6 -1 -8 -1c-26 0 -46 22 -46 48c0 25 20 48 46 48c25 0 52 -20 52 -63s-29 -109 -89 -148l-12 11c37 39 51 67 57 105z" />
    <glyph glyph-name="period.numr" horiz-adv-x="246" 
d="M115 259c-27 0 -49 21 -49 49c0 27 22 50 49 50c28 0 49 -23 49 -50c0 -28 -21 -49 -49 -49z" />
    <glyph glyph-name="cent.numr" unicode="&#xf02c;" horiz-adv-x="375" 
d="M219 256v-56h-29v55c-77 9 -136 86 -136 179c0 92 59 169 136 178v55h29v-56c28 -4 55 -21 72 -45c4 8 7 22 10 34h16v-137h-19c-12 67 -39 110 -79 117v-293c40 8 67 52 79 118h19v-138h-16c-3 14 -6 28 -9 35c-18 -22 -45 -41 -73 -46zM190 288v292
c-55 -11 -68 -87 -68 -146s13 -134 68 -146z" />
    <glyph glyph-name="dollar.numr" unicode="&#xf02d;" horiz-adv-x="375" 
d="M209 255v-88h-29v88c-33 5 -62 22 -75 33c-5 -5 -13 -20 -16 -34h-20v138h20c7 -57 43 -93 91 -103v123c0 1 -38 18 -38 18c-42 20 -72 49 -72 93c0 48 46 89 109 89h1v88h29v-91c20 -4 38 -14 50 -23c4 4 10 15 13 27h19v-118h-19c-6 39 -26 72 -63 83v-109l45 -21
c49 -23 68 -57 68 -87c0 -60 -50 -102 -113 -106zM209 399v-112c39 2 62 19 62 48c0 25 -15 41 -62 64zM180 482v99c-35 -1 -58 -17 -58 -41s13 -36 58 -58z" />
    <glyph glyph-name="hyphen.numr" unicode="&#xf02e;" horiz-adv-x="425" 
d="M342 425h-259v44h259v-44z" />
    <glyph glyph-name="A.numr" unicode="&#xf02f;" horiz-adv-x="443" 
d="M140 375l-15 -33c-19 -40 -19 -56 43 -56v-19h-159v19c50 0 59 13 84 68l122 259h18l121 -259c25 -54 35 -68 80 -68v-19h-193v19c57 0 63 16 44 56l-15 33h-130zM255 405l-50 107l-50 -107h100z" />
    <glyph glyph-name="B.numr" unicode="&#xf030;" horiz-adv-x="423" 
d="M301 363c0 35 -21 64 -64 64h-60v-77c0 -44 5 -52 46 -52h14c43 0 64 30 64 65zM272 513c0 30 -17 57 -54 57h-41v-112h41c37 0 54 26 54 55zM43 267v19c56 0 65 13 65 84v128c0 71 -9 83 -65 83v19h179c80 0 121 -38 121 -87c0 -24 -11 -46 -30 -63
c38 -17 60 -50 60 -87c0 -53 -47 -96 -135 -96h-195z" />
    <glyph glyph-name="C.numr" unicode="&#xf031;" horiz-adv-x="442" 
d="M382 267h-19c-4 14 -8 28 -12 35c-26 -27 -69 -48 -108 -48c-105 0 -190 81 -190 180c0 98 85 179 190 179c39 0 82 -19 107 -47c5 8 9 22 13 34h19v-137h-20c-16 74 -58 119 -119 119c-90 0 -114 -84 -114 -148s24 -148 114 -148c61 0 103 45 119 119h20v-138z" />
    <glyph glyph-name="D.numr" unicode="&#xf032;" horiz-adv-x="479" 
d="M348 435c0 59 -19 135 -123 135h-48v-217c0 -46 5 -55 41 -55h7c104 0 123 76 123 137zM43 267v19c56 0 65 13 65 84v128c0 71 -9 83 -65 83v19h179c143 0 205 -75 205 -166s-62 -167 -205 -167h-179z" />
    <glyph glyph-name="E.numr" unicode="&#xf033;" horiz-adv-x="408" 
d="M337 600l7 -94h-16l-5 19c-9 33 -20 45 -91 45h-55v-112c78 0 84 7 84 59h19v-149h-19c0 52 -6 59 -84 59v-46c0 -71 9 -83 61 -83h14c71 0 82 12 91 45l5 18h15l-6 -94h-314v19c56 0 65 13 65 84v128c0 71 -9 83 -65 83v19h294z" />
    <glyph glyph-name="F.numr" unicode="&#xf034;" horiz-adv-x="392" 
d="M177 370c0 -71 9 -84 65 -84v-19h-199v19c56 0 65 13 65 84v128c0 71 -9 83 -65 83v19h305l8 -94h-17l-5 19c-8 33 -19 45 -91 45h-66v-112c78 0 84 7 84 59h19v-149h-19c0 52 -6 59 -84 59v-57z" />
    <glyph glyph-name="G.numr" unicode="&#xf035;" horiz-adv-x="479" 
d="M243 254c-105 0 -190 81 -190 180c0 98 85 179 190 179c39 0 82 -19 107 -47c5 8 9 22 13 34h19v-137h-20c-16 74 -58 119 -119 119c-90 0 -114 -84 -114 -148s24 -148 114 -148c51 0 93 18 93 64c0 34 -15 47 -63 47v19h189v-19c-56 0 -65 -12 -65 -83v-30
c-43 0 -112 -30 -154 -30z" />
    <glyph glyph-name="H.numr" unicode="&#xf036;" horiz-adv-x="530" 
d="M177 428v-58c0 -71 9 -84 65 -84v-19h-199v19c56 0 65 13 65 84v128c0 71 -9 83 -65 83v19h199v-19c-56 0 -65 -12 -65 -83v-39h176v39c0 71 -10 83 -65 83v19h198v-19c-56 0 -65 -12 -65 -83v-128c0 -71 9 -84 65 -84v-19h-198v19c55 0 65 13 65 84v58h-176z" />
    <glyph glyph-name="I.numr" unicode="&#xf037;" horiz-adv-x="286" 
d="M242 267h-199v19c56 0 65 13 65 84v128c0 71 -9 83 -65 83v19h199v-19c-56 0 -65 -12 -65 -83v-128c0 -71 9 -84 65 -84v-19z" />
    <glyph glyph-name="J.numr" unicode="&#xf038;" horiz-adv-x="286" 
d="M108 498c0 71 -9 83 -65 83v19h199v-19c-56 0 -65 -12 -65 -83v-208c0 -102 -62 -145 -126 -145c-96 0 -124 89 -74 91c46 3 20 -58 78 -58c31 0 53 22 53 112v208z" />
    <glyph glyph-name="K.numr" unicode="&#xf039;" horiz-adv-x="490" 
d="M242 600v-19c-56 0 -65 -12 -65 -83v-44l92 73c54 41 54 54 9 54v19h163v-19c-45 0 -69 -17 -136 -69l-60 -47l123 -109c70 -61 88 -70 120 -70v-19h-197v19c43 -1 50 13 4 54l-96 89l-22 -18v-41c0 -71 9 -84 65 -84v-19h-199v19c56 0 65 13 65 84v128
c0 71 -9 83 -65 83v19h199z" />
    <glyph glyph-name="L.numr" unicode="&#xf03a;" horiz-adv-x="384" 
d="M177 381c0 -71 9 -83 61 -83h35c72 0 83 12 91 45l5 18h16l-7 -94h-335v19c56 0 65 13 65 84v128c0 71 -9 83 -65 83v19h199v-19c-56 0 -65 -12 -65 -83v-117z" />
    <glyph glyph-name="M.numr" unicode="&#xf03b;" horiz-adv-x="570" 
d="M526 267h-191v19c56 0 65 13 65 84v146l-122 -262h-17l-121 260v-144c0 -71 9 -84 65 -84v-19h-161v19c56 0 65 13 65 84v128c0 71 -9 83 -65 83v19h123l119 -255l119 255h121v-19c-56 0 -65 -12 -65 -83v-128c0 -71 9 -84 65 -84v-19z" />
    <glyph glyph-name="N.numr" unicode="&#xf03c;" horiz-adv-x="495" 
d="M459 581c-56 0 -65 -12 -65 -83v-243h-21l-233 253v-138c0 -71 9 -84 65 -84v-19h-161v19c56 0 65 13 65 84v128c0 71 -9 83 -65 83v19h99l220 -238v136c0 71 -9 83 -65 83v19h161v-19z" />
    <glyph glyph-name="O.numr" unicode="&#xf03d;" horiz-adv-x="498" 
d="M449 434c0 -99 -90 -180 -200 -180s-200 81 -200 180c0 98 90 179 200 179s200 -81 200 -179zM374 434c0 65 -32 148 -125 148c-92 0 -124 -83 -124 -148c0 -66 32 -148 124 -148c93 0 125 82 125 148z" />
    <glyph glyph-name="P.numr" unicode="&#xf03e;" horiz-adv-x="383" 
d="M282 503c0 36 -20 67 -64 67h-41v-133h41c44 0 64 31 64 66zM177 370c0 -71 9 -84 65 -84v-19h-199v19c56 0 65 13 65 84v128c0 71 -9 83 -65 83v19h175c88 0 135 -42 135 -97c0 -53 -47 -97 -135 -97h-41v-36z" />
    <glyph glyph-name="Q.numr" unicode="&#xf03f;" horiz-adv-x="515" 
d="M378 434c0 65 -32 148 -125 148c-92 0 -124 -83 -124 -148c0 -66 32 -148 124 -148c93 0 125 82 125 148zM278 255c-24 -3 -39 -7 -60 -17c81 -1 130 -62 196 -62c49 0 82 15 105 54l19 -10c-18 -46 -60 -100 -135 -100c-72 0 -132 89 -189 89c-55 0 -49 -40 -68 -42
c-18 -2 -31 10 -31 27c0 14 38 50 86 67c-85 21 -148 91 -148 173c0 98 90 179 200 179s200 -81 200 -179c0 -91 -75 -165 -175 -179z" />
    <glyph glyph-name="R.numr" unicode="&#xf040;" horiz-adv-x="419" 
d="M283 503c0 36 -20 67 -65 67h-41v-133h41c45 0 65 31 65 66zM194 406h-17v-36c0 -71 9 -84 65 -84v-19h-199v19c56 0 65 13 65 84v128c0 71 -9 83 -65 83v19h176c88 0 135 -42 135 -97c0 -44 -33 -83 -95 -94l46 -50c40 -44 69 -67 112 -73v-19h-112z" />
    <glyph glyph-name="S.numr" unicode="&#xf041;" horiz-adv-x="356" 
d="M309 361c0 -63 -55 -107 -121 -107c-40 0 -76 21 -91 34c-5 -5 -14 -20 -16 -34h-19v138h21c7 -66 53 -105 112 -105c32 0 58 18 58 48c0 26 -23 46 -64 65l-56 27c-41 19 -70 52 -70 96c0 48 45 89 106 89c33 0 61 -12 79 -26c4 4 10 15 12 27h19v-118h-21
c-7 47 -33 86 -85 86c-29 0 -55 -16 -55 -41c0 -26 21 -40 69 -62l56 -27c48 -23 66 -60 66 -90z" />
    <glyph glyph-name="T.numr" unicode="&#xf042;" horiz-adv-x="403" 
d="M168 570h-45c-72 0 -83 -12 -91 -45l-5 -19h-17l8 94h368l7 -94h-16l-5 19c-9 33 -19 45 -91 45h-45v-200c0 -71 9 -84 65 -84v-19h-198v19c55 0 65 13 65 84v200z" />
    <glyph glyph-name="U.numr" unicode="&#xf043;" horiz-adv-x="488" 
d="M458 581c-56 0 -65 -12 -65 -83v-98c0 -95 -62 -145 -145 -145s-152 50 -152 145v98c0 71 -9 83 -65 83v19h197v-19c-55 0 -65 -12 -65 -83v-103c0 -66 40 -98 95 -98s97 32 97 98v103c0 71 -8 83 -64 83v19h167v-19z" />
    <glyph glyph-name="V.numr" unicode="&#xf044;" horiz-adv-x="418" 
d="M424 581c-50 0 -58 -12 -84 -67l-122 -260h-17l-122 260c-26 54 -35 67 -80 67v19h194v-19c-58 0 -64 -16 -45 -56l80 -170l80 170c20 41 20 56 -43 56v19h159v-19z" />
    <glyph glyph-name="W.numr" unicode="&#xf045;" horiz-adv-x="546" 
d="M550 581c-52 0 -65 -16 -84 -67l-94 -260h-18l-81 231l-85 -231h-18l-92 260c-18 52 -30 67 -80 67v19h190v-19c-48 0 -59 -14 -44 -56l53 -147l82 222h23l79 -224l54 149c15 41 8 56 -43 56v19h158v-19z" />
    <glyph glyph-name="X.numr" unicode="&#xf046;" horiz-adv-x="442" 
d="M210 401l-54 -60c-31 -34 -24 -55 22 -55v-19h-158v19c39 0 60 21 103 69l66 74l-64 84c-38 50 -54 68 -100 68v19h193v-19c-50 0 -51 -18 -23 -55l38 -49l43 49c36 40 27 55 -22 55v19h159v-19c-45 0 -61 -21 -104 -68l-56 -63l74 -95c39 -50 57 -69 100 -69v-19h-193
v19c49 0 53 14 22 55z" />
    <glyph glyph-name="Y.numr" unicode="&#xf047;" horiz-adv-x="406" 
d="M417 581c-48 0 -64 -17 -101 -68l-80 -109v-34c0 -71 9 -84 65 -84v-19h-198v19c55 0 65 13 65 84v33l-80 110c-38 52 -54 68 -98 68v19h193v-19c-50 0 -55 -15 -25 -55l62 -85l63 85c30 41 26 55 -25 55v19h159v-19z" />
    <glyph glyph-name="Z.numr" unicode="&#xf048;" horiz-adv-x="387" 
d="M346 361l-7 -94h-289v23l192 280h-75c-72 0 -82 -12 -91 -45l-5 -19h-16l7 94h269v-20l-193 -282h96c72 0 82 12 91 45l5 18h16z" />
    <glyph glyph-name="at.numr" unicode="&#xf049;" 
d="M268 595c-98 0 -175 -81 -175 -173c0 -95 64 -155 152 -155c46 0 86 14 131 42l7 -14c-56 -39 -102 -52 -147 -52c-111 0 -197 77 -197 178c0 113 97 204 214 204c98 0 171 -61 171 -155c0 -77 -64 -145 -116 -145c-20 0 -35 12 -42 23c-15 -14 -38 -24 -55 -24
c-54 0 -80 48 -68 111c10 60 63 108 115 108c17 0 27 -3 38 -9h42l-29 -155c-3 -18 0 -24 12 -24c27 0 78 54 78 115c0 80 -64 125 -131 125zM256 515c-32 0 -53 -40 -63 -84c-8 -41 -1 -76 29 -76c18 0 40 22 45 50l16 100c-5 6 -13 10 -27 10z" />
    <glyph glyph-name="Aacute.numr" unicode="&#xf04a;" horiz-adv-x="443" 
d="M140 375l-15 -33c-19 -40 -19 -56 43 -56v-19h-159v19c50 0 59 13 84 68l122 259h18l121 -259c25 -54 35 -68 80 -68v-19h-193v19c57 0 63 16 44 56l-15 33h-130zM255 405l-50 107l-50 -107h100zM352 764c0 -15 -15 -26 -23 -30l-137 -59l-5 7l93 87c17 15 27 24 44 24
c19 0 28 -17 28 -29z" />
    <glyph glyph-name="Agrave.numr" unicode="&#xf04b;" horiz-adv-x="443" 
d="M140 375l-15 -33c-19 -40 -19 -56 43 -56v-19h-159v19c50 0 59 13 84 68l122 259h18l121 -259c25 -54 35 -68 80 -68v-19h-193v19c57 0 63 16 44 56l-15 33h-130zM255 405l-50 107l-50 -107h100zM259 682l-5 -6l-138 58c-8 4 -23 15 -23 30c0 12 9 29 28 29
c17 0 28 -8 45 -23z" />
    <glyph glyph-name="Acircumflex.numr" unicode="&#xf04c;" horiz-adv-x="443" 
d="M338 690l-12 -11l-107 76l-106 -76l-13 11l119 130zM140 375l-15 -33c-19 -40 -19 -56 43 -56v-19h-159v19c50 0 59 13 84 68l122 259h18l121 -259c25 -54 35 -68 80 -68v-19h-193v19c57 0 63 16 44 56l-15 33h-130zM255 405l-50 107l-50 -107h100z" />
    <glyph glyph-name="Adieresis.numr" unicode="&#xf04d;" horiz-adv-x="443" 
d="M140 375l-15 -33c-19 -40 -19 -56 43 -56v-19h-159v19c50 0 59 13 84 68l122 259h18l121 -259c25 -54 35 -68 80 -68v-19h-193v19c57 0 63 16 44 56l-15 33h-130zM255 405l-50 107l-50 -107h100zM140 754c22 0 39 -18 39 -39c0 -22 -17 -40 -39 -40s-39 18 -39 40
c0 21 17 39 39 39zM306 754c21 0 39 -18 39 -39c0 -22 -18 -40 -39 -40c-22 0 -39 18 -39 40c0 21 17 39 39 39z" />
    <glyph glyph-name="Atilde.numr" unicode="&#xf04e;" horiz-adv-x="443" 
d="M352 775c0 -63 -28 -100 -69 -100c-35 0 -94 55 -123 55c-18 0 -36 -20 -42 -45h-15c0 57 29 97 64 97c40 0 90 -55 126 -55c22 0 35 18 43 48h16zM140 375l-15 -33c-19 -40 -19 -56 43 -56v-19h-159v19c50 0 59 13 84 68l122 259h18l121 -259c25 -54 35 -68 80 -68v-19
h-193v19c57 0 63 16 44 56l-15 33h-130zM255 405l-50 107l-50 -107h100z" />
    <glyph glyph-name="Aring.numr" unicode="&#xf04f;" horiz-adv-x="443" 
d="M140 375l-15 -33c-19 -40 -19 -56 43 -56v-19h-159v19c50 0 59 13 84 68l122 259h18l121 -259c25 -54 35 -68 80 -68v-19h-193v19c57 0 63 16 44 56l-15 33h-130zM255 405l-50 107l-50 -107h100zM220 839c46 0 83 -36 83 -82s-37 -83 -83 -83s-82 37 -82 83s36 82 82 82z
M220 803c-25 0 -46 -21 -46 -46s21 -46 46 -46s46 21 46 46s-21 46 -46 46z" />
    <glyph glyph-name="Ccedilla.numr" unicode="&#xf050;" horiz-adv-x="442" 
d="M200 259c-84 19 -147 90 -147 175c0 98 85 179 190 179c39 0 82 -19 107 -47c5 8 9 22 13 34h19v-137h-20c-16 74 -58 119 -119 119c-90 0 -115 -84 -115 -148s25 -148 115 -148c61 0 103 45 119 119h20v-138h-19c-4 14 -8 28 -12 35c-26 -27 -69 -48 -108 -48h-7
l-34 -35c31 -1 76 -21 76 -70c0 -66 -104 -89 -133 -92v24c23 7 78 24 78 68c0 30 -48 43 -92 29v13z" />
    <glyph glyph-name="Eacute.numr" unicode="&#xf051;" horiz-adv-x="408" 
d="M337 600l7 -94h-16l-5 19c-9 33 -20 45 -91 45h-55v-112c78 0 84 7 84 59h19v-149h-19c0 52 -6 59 -84 59v-46c0 -71 9 -83 61 -83h14c71 0 82 12 91 45l5 18h15l-6 -94h-314v19c56 0 65 13 65 84v128c0 71 -9 83 -65 83v19h294zM327 764c0 -15 -15 -26 -23 -30l-137 -59
l-5 7l93 87c17 15 27 24 44 24c19 0 28 -17 28 -29z" />
    <glyph glyph-name="Egrave.numr" unicode="&#xf052;" horiz-adv-x="408" 
d="M337 600l7 -94h-16l-5 19c-9 33 -20 45 -91 45h-55v-112c78 0 84 7 84 59h19v-149h-19c0 52 -6 59 -84 59v-46c0 -71 9 -83 61 -83h14c71 0 82 12 91 45l5 18h15l-6 -94h-314v19c56 0 65 13 65 84v128c0 71 -9 83 -65 83v19h294zM278 682l-5 -6l-138 58
c-8 4 -23 15 -23 30c0 12 9 29 28 29c17 0 28 -8 45 -23z" />
    <glyph glyph-name="Ecircumflex.numr" unicode="&#xf053;" horiz-adv-x="408" 
d="M323 684l-13 -12l-107 76l-106 -76l-13 12l119 129zM337 600l7 -94h-16l-5 19c-9 33 -20 45 -91 45h-55v-112c78 0 84 7 84 59h19v-149h-19c0 52 -6 59 -84 59v-46c0 -71 9 -83 61 -83h14c71 0 82 12 91 45l5 18h15l-6 -94h-314v19c56 0 65 13 65 84v128
c0 71 -9 83 -65 83v19h294z" />
    <glyph glyph-name="Edieresis.numr" unicode="&#xf054;" horiz-adv-x="408" 
d="M337 600l7 -94h-16l-5 19c-9 33 -20 45 -91 45h-55v-112c78 0 84 7 84 59h19v-149h-19c0 52 -6 59 -84 59v-46c0 -71 9 -83 61 -83h14c71 0 82 12 91 45l5 18h15l-6 -94h-314v19c56 0 65 13 65 84v128c0 71 -9 83 -65 83v19h294zM127 754c22 0 39 -18 39 -39
c0 -22 -17 -40 -39 -40s-39 18 -39 40c0 21 17 39 39 39zM293 754c21 0 39 -18 39 -39c0 -22 -18 -40 -39 -40c-22 0 -39 18 -39 40c0 21 17 39 39 39z" />
    <glyph glyph-name="Iacute.numr" unicode="&#xf055;" horiz-adv-x="286" 
d="M242 267h-199v19c56 0 65 13 65 84v128c0 71 -9 83 -65 83v19h199v-19c-56 0 -65 -12 -65 -83v-128c0 -71 9 -84 65 -84v-19zM266 764c0 -15 -15 -26 -23 -30l-137 -59l-5 7l93 87c17 15 27 24 44 24c19 0 28 -17 28 -29z" />
    <glyph glyph-name="Igrave.numr" unicode="&#xf056;" horiz-adv-x="286" 
d="M242 267h-199v19c56 0 65 13 65 84v128c0 71 -9 83 -65 83v19h199v-19c-56 0 -65 -12 -65 -83v-128c0 -71 9 -84 65 -84v-19zM194 682l-5 -6l-138 58c-8 4 -23 15 -23 30c0 12 9 29 28 29c17 0 28 -8 45 -23z" />
    <glyph glyph-name="Icircumflex.numr" unicode="&#xf057;" horiz-adv-x="286" 
d="M266 690l-13 -12l-106 76l-107 -76l-12 12l119 129zM242 267h-199v19c56 0 65 13 65 84v128c0 71 -9 83 -65 83v19h199v-19c-56 0 -65 -12 -65 -83v-128c0 -71 9 -84 65 -84v-19z" />
    <glyph glyph-name="Idieresis.numr" unicode="&#xf058;" horiz-adv-x="286" 
d="M242 267h-199v19c56 0 65 13 65 84v128c0 71 -9 83 -65 83v19h199v-19c-56 0 -65 -12 -65 -83v-128c0 -71 9 -84 65 -84v-19zM61 754c22 0 39 -18 39 -39c0 -22 -17 -40 -39 -40s-39 18 -39 40c0 21 17 39 39 39zM227 754c21 0 39 -18 39 -39c0 -22 -18 -40 -39 -40
c-22 0 -39 18 -39 40c0 21 17 39 39 39z" />
    <glyph glyph-name="Ntilde.numr" unicode="&#xf059;" horiz-adv-x="503" 
d="M373 773c0 -63 -27 -99 -69 -99c-35 0 -93 55 -122 55c-19 0 -36 -21 -43 -46h-15c0 57 29 97 64 97c40 0 90 -55 126 -55c23 0 36 18 44 48h15zM459 581c-56 0 -65 -12 -65 -83v-243h-21l-233 253v-138c0 -71 9 -84 65 -84v-19h-161v19c56 0 65 13 65 84v128
c0 71 -9 83 -65 83v19h99l220 -238v136c0 71 -9 83 -65 83v19h161v-19z" />
    <glyph glyph-name="Oacute.numr" unicode="&#xf05a;" horiz-adv-x="507" 
d="M453 434c0 -99 -90 -180 -200 -180s-200 81 -200 180c0 98 90 179 200 179s200 -81 200 -179zM378 434c0 65 -32 148 -125 148c-92 0 -124 -83 -124 -148c0 -66 32 -148 124 -148c93 0 125 82 125 148zM373 764c0 -15 -15 -26 -23 -30l-137 -59l-5 7l93 87
c17 15 27 24 44 24c19 0 28 -17 28 -29z" />
    <glyph glyph-name="Ograve.numr" unicode="&#xf05b;" horiz-adv-x="507" 
d="M453 434c0 -99 -90 -180 -200 -180s-200 81 -200 180c0 98 90 179 200 179s200 -81 200 -179zM378 434c0 65 -32 148 -125 148c-92 0 -124 -83 -124 -148c0 -66 32 -148 124 -148c93 0 125 82 125 148zM285 682l-5 -6l-138 58c-8 4 -23 15 -23 30c0 12 9 29 28 29
c17 0 28 -8 45 -23z" />
    <glyph glyph-name="Ocircumflex.numr" unicode="&#xf05c;" horiz-adv-x="507" 
d="M357 687l-13 -12l-106 76l-107 -76l-13 12l120 129zM453 434c0 -99 -90 -180 -200 -180s-200 81 -200 180c0 98 90 179 200 179s200 -81 200 -179zM378 434c0 65 -32 148 -125 148c-92 0 -124 -83 -124 -148c0 -66 32 -148 124 -148c93 0 125 82 125 148z" />
    <glyph glyph-name="Odieresis.numr" unicode="&#xf05d;" horiz-adv-x="507" 
d="M453 434c0 -99 -90 -180 -200 -180s-200 81 -200 180c0 98 90 179 200 179s200 -81 200 -179zM378 434c0 65 -32 148 -125 148c-92 0 -124 -83 -124 -148c0 -66 32 -148 124 -148c93 0 125 82 125 148zM161 754c22 0 39 -18 39 -39c0 -22 -17 -40 -39 -40s-39 18 -39 40
c0 21 17 39 39 39zM327 754c21 0 39 -18 39 -39c0 -22 -18 -40 -39 -40c-22 0 -39 18 -39 40c0 21 17 39 39 39z" />
    <glyph glyph-name="Otilde.numr" unicode="&#xf05e;" horiz-adv-x="507" 
d="M375 774c0 -63 -27 -99 -69 -99c-35 0 -93 55 -123 55c-18 0 -35 -21 -42 -46h-15c0 57 29 97 64 97c40 0 90 -55 126 -55c22 0 36 18 43 48h16zM453 434c0 -99 -90 -180 -200 -180s-200 81 -200 180c0 98 90 179 200 179s200 -81 200 -179zM378 434
c0 65 -32 148 -125 148c-92 0 -124 -83 -124 -148c0 -66 32 -148 124 -148c93 0 125 82 125 148z" />
    <glyph glyph-name="Uacute.numr" unicode="&#xf05f;" horiz-adv-x="488" 
d="M458 581c-56 0 -65 -12 -65 -83v-98c0 -95 -62 -145 -145 -145s-152 50 -152 145v98c0 71 -9 83 -65 83v19h197v-19c-55 0 -65 -12 -65 -83v-103c0 -66 40 -98 95 -98s97 32 97 98v103c0 71 -8 83 -64 83v19h167v-19zM356 763c0 -15 -15 -26 -23 -30l-137 -59l-5 7l93 87
c17 15 27 24 44 24c19 0 28 -17 28 -29z" />
    <glyph glyph-name="Ugrave.numr" unicode="&#xf060;" horiz-adv-x="488" 
d="M458 581c-56 0 -65 -12 -65 -83v-98c0 -95 -62 -145 -145 -145s-152 50 -152 145v98c0 71 -9 83 -65 83v19h197v-19c-55 0 -65 -12 -65 -83v-103c0 -66 40 -98 95 -98s97 32 97 98v103c0 71 -8 83 -64 83v19h167v-19zM278 681l-5 -6l-138 58c-8 4 -23 15 -23 30
c0 12 9 29 28 29c17 0 28 -8 45 -23z" />
    <glyph glyph-name="Ucircumflex.numr" unicode="&#xf061;" horiz-adv-x="488" 
d="M359 687l-12 -12l-107 76l-107 -76l-12 12l119 129zM458 581c-56 0 -65 -12 -65 -83v-98c0 -95 -62 -145 -145 -145s-152 50 -152 145v98c0 71 -9 83 -65 83v19h197v-19c-55 0 -65 -12 -65 -83v-103c0 -66 40 -98 95 -98s97 32 97 98v103c0 71 -8 83 -64 83v19h167v-19z
" />
    <glyph glyph-name="Udieresis.numr" unicode="&#xf062;" horiz-adv-x="488" 
d="M458 581c-56 0 -65 -12 -65 -83v-98c0 -95 -62 -145 -145 -145s-152 50 -152 145v98c0 71 -9 83 -65 83v19h197v-19c-55 0 -65 -12 -65 -83v-103c0 -66 40 -98 95 -98s97 32 97 98v103c0 71 -8 83 -64 83v19h167v-19zM168 754c22 0 39 -18 39 -39c0 -22 -17 -40 -39 -40
s-39 18 -39 40c0 21 17 39 39 39zM334 754c21 0 39 -18 39 -39c0 -22 -18 -40 -39 -40c-22 0 -39 18 -39 40c0 21 17 39 39 39z" />
    <glyph glyph-name="Ydieresis.numr" unicode="&#xf063;" horiz-adv-x="406" 
d="M417 581c-48 0 -64 -17 -101 -68l-80 -109v-34c0 -71 9 -84 65 -84v-19h-198v19c55 0 65 13 65 84v33l-80 110c-38 52 -54 68 -98 68v19h193v-19c-50 0 -55 -16 -25 -55l62 -85l63 85c30 41 26 55 -25 55v19h159v-19zM128 754c21 0 39 -18 39 -39c0 -22 -18 -40 -39 -40
c-22 0 -40 18 -40 40c0 21 18 39 40 39zM293 754c22 0 40 -18 40 -39c0 -22 -18 -40 -40 -40c-21 0 -39 18 -39 40c0 21 18 39 39 39z" />
    <glyph glyph-name="Scaron.numr" unicode="&#xf064;" horiz-adv-x="356" 
d="M309 361c0 -63 -55 -107 -121 -107c-40 0 -76 21 -91 34c-5 -5 -14 -20 -16 -34h-19v138h21c7 -66 53 -105 112 -105c32 0 58 18 58 48c0 26 -23 46 -64 65l-56 27c-41 19 -70 52 -70 96c0 48 45 89 106 89c33 0 61 -12 79 -26c4 4 10 15 12 27h19v-118h-21
c-7 47 -33 86 -85 86c-29 0 -55 -16 -55 -41c0 -26 21 -40 69 -62l56 -27c48 -23 66 -60 66 -90zM304 804l-119 -129l-119 129l12 11l107 -75l107 75z" />
    <glyph glyph-name="Yacute.numr" unicode="&#xf065;" horiz-adv-x="406" 
d="M338 764c0 -15 -15 -27 -23 -30l-137 -59l-5 7l93 88c17 15 27 23 44 23c19 0 28 -17 28 -29zM417 581c-48 0 -64 -17 -101 -68l-80 -109v-34c0 -71 9 -84 65 -84v-19h-198v19c55 0 65 13 65 84v33l-80 110c-38 52 -54 68 -98 68v19h193v-19c-50 0 -55 -16 -25 -55
l62 -85l63 85c30 41 26 55 -25 55v19h159v-19z" />
    <glyph glyph-name="Thorn.numr" unicode="&#xf066;" horiz-adv-x="383" 
d="M108 498c0 71 -9 83 -65 83v19h199v-19c-40 0 -60 -6 -63 -44h39c88 0 135 -42 135 -97c0 -54 -47 -97 -135 -97h-40c3 -46 14 -57 64 -57v-19h-199v19c56 0 65 13 65 84v128zM282 440c0 35 -20 68 -64 68h-41v-136h41c44 0 64 33 64 68z" />
    <glyph glyph-name="Zcaron.numr" unicode="&#xf067;" horiz-adv-x="387" 
d="M346 361l-7 -94h-289v23l192 280h-75c-72 0 -82 -12 -91 -45l-5 -19h-16l7 94h269v-20l-193 -282h96c72 0 82 12 91 45l5 18h16zM310 804l-119 -129l-119 129l12 11l107 -75l107 75z" />
    <glyph glyph-name="AE.numr" unicode="&#xf068;" horiz-adv-x="573" 
d="M279 535l-75 -102h75v102zM287 600h220l7 -94h-16l-5 19c-9 33 -20 45 -91 45h-56v-137c78 0 85 7 85 59h19v-149h-19c0 52 -7 59 -85 59v-21c0 -71 9 -83 61 -83h15c71 0 82 12 91 45l5 18h15l-6 -94h-313v19c56 0 65 13 65 84v32h-97l-44 -60c-30 -40 -30 -56 29 -56
v-19h-159v19c44 0 59 14 98 68z" />
    <glyph glyph-name="Oslash.numr" unicode="&#xf069;" horiz-adv-x="507" 
d="M347 538l-162 -233c18 -12 40 -20 68 -20c93 0 125 83 125 149c0 34 -9 74 -31 104zM160 330l162 232c-18 13 -40 20 -69 20c-92 0 -124 -83 -124 -148c0 -35 9 -74 31 -104zM133 290c-48 34 -80 86 -80 144c0 98 90 179 200 179c33 0 64 -7 90 -19l35 49l30 -18l-35 -49
c49 -32 80 -85 80 -142c0 -99 -90 -180 -200 -180c-32 0 -63 7 -90 20l-35 -50l-29 18z" />
    <glyph glyph-name="Eth.numr" unicode="&#xf06a;" horiz-adv-x="479" 
d="M177 459h79v-41h-79v-65c0 -46 5 -55 41 -55h7c104 0 123 76 123 137c0 59 -19 135 -123 135h-48v-111zM108 418h-68v41h68v39c0 71 -9 83 -65 83v19h179c143 0 205 -75 205 -166s-62 -167 -205 -167h-179v19c56 0 65 13 65 84v48z" />
    <glyph glyph-name="Lslash.numr" unicode="&#xf06b;" horiz-adv-x="384" 
d="M177 481l36 28l21 -27l-57 -43v-58c0 -71 9 -83 61 -83h35c72 0 83 12 91 45l5 18h16l-7 -94h-335v19c56 0 65 13 65 84v18l-37 -28l-20 27l57 43v68c0 71 -9 83 -65 83v19h199v-19c-56 0 -65 -12 -65 -83v-17z" />
    <glyph glyph-name="OE.numr" unicode="&#xf06c;" horiz-adv-x="614" 
d="M318 304v260c-17 6 -40 14 -69 14c-92 0 -126 -79 -126 -144c0 -66 34 -144 126 -144c29 0 56 6 69 14zM323 600h223l7 -94h-16l-5 19c-9 33 -19 45 -91 45h-56v-112c78 0 85 7 85 59h19v-149h-19c0 52 -7 59 -85 59v-46c0 -71 9 -83 61 -83h15c72 0 82 12 91 45l5 18h16
l-7 -94h-243c-19 -6 -48 -8 -74 -8c-110 0 -200 76 -200 175c0 98 90 175 200 175c26 0 54 -5 74 -9z" />
    <glyph glyph-name="germandbls.numr" unicode="&#xf06d;" horiz-adv-x="695" 
d="M653 361c0 -63 -55 -107 -122 -107c-40 0 -76 21 -91 34c-5 -5 -13 -20 -16 -34h-19v138h21c7 -66 53 -105 112 -105c32 0 59 18 59 48c0 26 -24 46 -64 65l-57 27c-41 19 -70 52 -70 96c0 48 45 89 107 89c32 0 60 -12 78 -26c4 4 10 15 12 27h20v-118h-21
c-8 47 -34 86 -86 86c-28 0 -54 -16 -54 -41c0 -26 21 -40 68 -62l56 -27c48 -23 67 -60 67 -90zM305 361c0 -63 -55 -107 -122 -107c-40 0 -75 21 -90 34c-5 -5 -14 -20 -16 -34h-19v138h20c8 -66 54 -105 113 -105c32 0 58 18 58 48c0 26 -23 46 -64 65l-57 27
c-40 19 -70 52 -70 96c0 48 45 89 107 89c33 0 61 -12 78 -26c5 4 10 15 13 27h19v-118h-21c-7 47 -33 86 -86 86c-28 0 -54 -16 -54 -41c0 -26 21 -40 69 -62l55 -27c48 -23 67 -60 67 -90z" />
    <glyph glyph-name="fi.numr" unicode="&#xf06e;" horiz-adv-x="678" 
d="M177 370c0 -71 9 -84 65 -84v-19h-199v19c56 0 65 13 65 84v128c0 71 -9 83 -65 83v19h305l8 -94h-17l-5 19c-8 33 -19 45 -91 45h-66v-112c78 0 84 7 84 59h19v-149h-19c0 52 -6 59 -84 59v-57zM633 267h-198v19c56 0 65 13 65 84v128c0 71 -9 83 -65 83v19h198v-19
c-55 0 -65 -12 -65 -83v-128c0 -71 10 -84 65 -84v-19z" />
    <glyph glyph-name="fl.numr" unicode="&#xf06f;" horiz-adv-x="776" 
d="M177 370c0 -71 9 -84 65 -84v-19h-199v19c56 0 65 13 65 84v128c0 71 -9 83 -65 83v19h305l8 -94h-17l-5 19c-8 33 -19 45 -91 45h-66v-112c78 0 84 7 84 59h19v-149h-19c0 52 -6 59 -84 59v-57zM568 381c0 -71 10 -83 61 -83h36c72 0 83 12 91 45l5 18h16l-7 -94h-335
v19c56 0 65 13 65 84v128c0 71 -9 83 -65 83v19h198v-19c-55 0 -65 -12 -65 -83v-117z" />
    <glyph glyph-name="endash.numr" unicode="&#xf070;" horiz-adv-x="408" 
d="M408 425h-409v44h409v-44z" />
    <glyph glyph-name="emdash.numr" unicode="&#xf071;" horiz-adv-x="550" 
d="M550 425h-551v44h551v-44z" />
    <glyph glyph-name="periodcentered.numr" unicode="&#xf072;" horiz-adv-x="292" 
d="M173 467c0 -26 -22 -48 -48 -48s-47 22 -47 48s21 48 47 48s48 -22 48 -48z" />
    <glyph glyph-name="guillemotleft.numr" unicode="&#xf073;" horiz-adv-x="435" 
d="M388 306l-202 139l202 137l12 -16l-123 -121l123 -122zM276 265l-241 180l241 178l12 -17l-163 -161l163 -162z" />
    <glyph glyph-name="guillemotright.numr" unicode="&#xf074;" horiz-adv-x="435" 
d="M159 265l-12 18l163 162l-163 161l12 17l241 -178zM47 306l-12 17l123 122l-123 121l12 16l202 -137z" />
    <glyph glyph-name="asciitilde.numr" unicode="&#xf075;" horiz-adv-x="363" 
d="M257 446c26 0 41 20 49 54h18c0 -72 -31 -114 -79 -114c-40 0 -107 64 -141 64c-21 0 -41 -25 -48 -54h-18c0 66 34 112 74 112c46 0 103 -62 145 -62z" />
    <glyph glyph-name="guilsinglleft.numr" unicode="&#xf076;" horiz-adv-x="359" 
d="M301 267l-241 179l241 178l12 -17l-152 -162l152 -160z" />
    <glyph glyph-name="guilsinglright.numr" unicode="&#xf077;" horiz-adv-x="359" 
d="M58 267l-12 18l152 160l-152 162l12 17l241 -178z" />
    <glyph glyph-name="ellipsis.numr" horiz-adv-x="696" 
d="M161 307c0 -26 -23 -48 -48 -48c-26 0 -47 22 -47 48s21 48 47 48c25 0 48 -22 48 -48zM386 307c0 -26 -23 -48 -48 -48c-26 0 -47 22 -47 48s21 48 47 48c25 0 48 -22 48 -48zM611 307c0 -26 -23 -48 -48 -48c-26 0 -47 22 -47 48s21 48 47 48c25 0 48 -22 48 -48z" />
    <glyph glyph-name="colon.numr" horiz-adv-x="268" 
d="M182 307c0 -26 -23 -48 -49 -48c-25 0 -46 22 -46 48s21 48 46 48c26 0 49 -22 49 -48zM182 497c0 -26 -23 -48 -49 -48c-25 0 -46 22 -46 48s21 48 46 48c26 0 49 -22 49 -48z" />
    <glyph glyph-name="semicolon.numr" horiz-adv-x="268" 
d="M182 497c0 -26 -23 -48 -49 -48c-25 0 -46 22 -46 48s21 48 46 48c26 0 49 -22 49 -48zM142 265c-3 -1 -6 -1 -9 -1c-25 0 -45 22 -45 48c0 25 20 48 45 48s53 -20 53 -63s-29 -109 -89 -148l-12 11c37 39 51 67 57 105z" />
    <glyph glyph-name="ampersand.numr" unicode="&#xf07b;" horiz-adv-x="419" 
d="M157 469c37 20 70 41 70 76c0 23 -18 39 -41 39c-33 0 -50 -25 -50 -45c0 -25 7 -48 21 -70zM239 299c-43 41 -81 80 -108 116c-18 -15 -31 -33 -31 -65c0 -34 31 -67 73 -67c26 0 48 6 66 16zM263 278c-24 -17 -55 -27 -95 -27c-60 0 -125 33 -125 104c0 42 31 67 67 89
c-19 30 -31 58 -31 83c0 49 48 86 107 86c50 0 92 -29 92 -70c0 -48 -55 -68 -105 -98c24 -31 59 -66 105 -113c9 13 15 28 20 43c10 36 -5 40 -54 40v19h145v-19c-51 0 -52 -11 -61 -45c-6 -22 -15 -42 -29 -59c21 -20 37 -28 56 -28c15 0 28 8 39 22l14 -15
c-22 -27 -49 -39 -70 -39c-27 0 -52 11 -75 27z" />
    <glyph glyph-name="sterling.numr" unicode="&#xf07c;" horiz-adv-x="375" 
d="M187 381c0 -71 9 -83 61 -83h2c72 0 82 12 91 45l5 18h16l-7 -94h-302v19c56 0 65 13 65 84v52h-65v35h65v6c0 108 66 150 132 150c84 0 101 -88 53 -88c-39 0 -17 62 -68 62c-41 0 -48 -32 -48 -124v-6h81v-35h-81v-41z" />
    <glyph glyph-name="yen.numr" unicode="&#xf07d;" horiz-adv-x="375" 
d="M223 390v-20c0 -71 10 -84 65 -84v-19h-191v19c56 0 65 13 65 84v20h-110v36h95l-57 87c-35 54 -46 68 -85 68v19h173v-19c-50 0 -53 -10 -25 -55l55 -85l54 85c24 39 26 55 -24 55v19h145v-19c-38 0 -54 -16 -88 -68l-57 -87h95v-36h-110z" />
    <glyph glyph-name="Euro.numr" unicode="&#xf07e;" horiz-adv-x="375" 
d="M69 459h-39v33h45c19 70 73 121 136 121c30 0 62 -19 82 -47c4 8 6 22 9 34h15v-137h-19c-12 74 -42 119 -86 119c-46 0 -66 -42 -74 -90h95v-33h-99c-1 -9 -1 -17 -1 -25c0 -9 0 -17 1 -25h99v-34h-95c8 -47 29 -89 74 -89c44 0 74 45 86 119h19v-138h-15
c-3 14 -5 28 -9 35c-20 -27 -52 -48 -82 -48c-63 0 -116 51 -136 121h-45v34h39c-1 8 -1 16 -1 25c0 8 0 16 1 25z" />
    <glyph glyph-name="perthousand.numr" unicode="&#xf07f;" horiz-adv-x="808" 
d="M232 501c0 -61 -42 -111 -94 -111c-50 0 -92 50 -92 111s42 112 92 112c52 0 94 -51 94 -112zM180 501c0 48 -13 86 -42 86c-28 0 -41 -38 -41 -86c0 -47 13 -86 41 -86c29 0 42 39 42 86zM166 263l218 352l29 -14l-219 -352zM577 362c0 61 41 112 93 112
c51 0 93 -51 93 -112s-42 -112 -93 -112c-52 0 -93 51 -93 112zM628 362c0 -47 14 -86 42 -86s42 39 42 86c0 48 -14 86 -42 86s-42 -38 -42 -86zM347 362c0 61 41 112 93 112c51 0 93 -51 93 -112s-42 -112 -93 -112c-52 0 -93 51 -93 112zM398 362c0 -47 14 -86 42 -86
s42 39 42 86c0 48 -14 86 -42 86s-42 -38 -42 -86z" />
    <glyph glyph-name="florin.numr" unicode="&#xf080;" horiz-adv-x="399" 
d="M229 261c0 -127 -67 -181 -141 -181c-106 0 -140 103 -85 107c52 4 23 -75 90 -75c38 0 69 28 69 149v108h-79v35h79v29c0 130 79 180 157 180c102 0 122 -106 64 -106c-46 0 -20 74 -81 74c-49 0 -73 -38 -73 -148v-29h98v-35h-98v-108z" />
    <glyph glyph-name="percent.numr" unicode="&#xf081;" horiz-adv-x="578" 
d="M232 501c0 -61 -42 -111 -94 -111c-50 0 -92 50 -92 111s42 112 92 112c52 0 94 -51 94 -112zM180 501c0 48 -13 86 -42 86c-28 0 -41 -38 -41 -86c0 -47 13 -86 41 -86c29 0 42 39 42 86zM166 263l218 352l29 -14l-219 -352zM347 362c0 61 41 112 93 112
c51 0 93 -51 93 -112s-42 -112 -93 -112c-52 0 -93 51 -93 112zM398 362c0 -47 14 -86 42 -86s42 39 42 86c0 48 -14 86 -42 86s-42 -38 -42 -86z" />
    <glyph glyph-name="asterisk.numr" unicode="&#xf082;" horiz-adv-x="244" 
d="M117 491c-39 -25 -41 -49 -53 -56c-13 -9 -31 -4 -39 10s-2 30 11 39c12 7 33 -4 75 17c-42 21 -62 10 -75 18c-13 7 -19 25 -11 38s26 19 39 10c12 -8 14 -31 53 -57c-3 47 -23 59 -23 74c0 16 13 29 28 29c16 0 29 -13 29 -29c0 -15 -20 -27 -23 -74c39 26 40 49 52 56
c13 9 31 4 39 -9c8 -12 3 -32 -11 -40c-11 -7 -33 4 -75 -16c42 -21 64 -9 75 -16c14 -9 19 -28 11 -40c-8 -14 -26 -18 -39 -10c-12 8 -13 31 -53 57c4 -47 24 -59 24 -74c0 -16 -13 -29 -29 -29c-15 0 -28 13 -28 29c0 15 20 27 23 73z" />
    <glyph glyph-name="plus.numr" unicode="&#xf083;" horiz-adv-x="425" 
d="M234 460h133v-44h-133v-132h-44v132h-132v44h132v132h44v-132z" />
    <glyph glyph-name="less.numr" unicode="&#xf084;" horiz-adv-x="400" 
d="M339 257l-275 181l275 182l14 -20l-184 -162l184 -160z" />
    <glyph glyph-name="greater.numr" unicode="&#xf085;" horiz-adv-x="400" 
d="M61 257l-14 21l184 160l-184 162l14 20l275 -182z" />
    <glyph glyph-name="equal.numr" unicode="&#xf086;" horiz-adv-x="392" 
d="M325 479h-258v44h258v-44zM325 354h-258v44h258v-44z" />
    <glyph glyph-name="approxequal.numr" unicode="&#xf087;" horiz-adv-x="390" 
d="M62 513c0 0 27 33 66 33c40 0 93 -33 134 -33c37 0 66 33 66 33v-50s-27 -33 -66 -33c-40 0 -93 33 -134 33c-37 0 -66 -33 -66 -33v50zM62 380c0 0 27 33 66 33c40 0 93 -33 134 -33c37 0 66 33 66 33v-50s-27 -33 -66 -33c-40 0 -93 33 -134 33c-37 0 -66 -33 -66 -33
v50z" />
    <glyph glyph-name="notequal.numr" unicode="&#xf088;" horiz-adv-x="408" 
d="M286 523h56v-44h-88l-56 -81h144v-44h-175l-65 -92l-32 18l52 74h-55v44h86l57 81h-143v44h174l66 92l31 -19z" />
    <glyph glyph-name="lessequal.numr" unicode="&#xf089;" horiz-adv-x="408" 
d="M336 380l-10 -23l-259 128l259 127l10 -22l-149 -105zM363 306v-39h-300v39h300z" />
    <glyph glyph-name="greaterequal.numr" unicode="&#xf08a;" horiz-adv-x="408" 
d="M73 380l149 105l-149 105l10 22l259 -127l-259 -128zM46 306h300v-39h-300v39z" />
    <glyph glyph-name="partialdiff.numr" unicode="&#xf08b;" horiz-adv-x="353" 
d="M40 363c0 60 54 110 126 110c32 0 60 -13 77 -29c-6 63 -31 136 -85 136c-46 0 -58 -38 -76 -38c-17 0 -24 8 -24 23c0 21 42 49 100 49c97 0 150 -101 150 -196c0 -132 -91 -164 -141 -164c-70 0 -127 50 -127 109zM104 363c0 -33 19 -78 63 -78c38 0 76 43 76 118
c-9 22 -39 38 -70 38c-45 0 -69 -44 -69 -78z" />
    <glyph glyph-name="summation.numr" unicode="&#xf08c;" horiz-adv-x="381" 
d="M31 180l142 211l-140 192v17h294l7 -95h-17l-6 25c-6 24 -13 36 -63 36h-141l136 -182l-127 -187h147c50 0 57 12 63 37l6 24h17l-6 -95h-312v17z" />
    <glyph glyph-name="product.numr" unicode="&#xf08d;" horiz-adv-x="482" 
d="M440 600v-19c-56 0 -65 -12 -65 -83v-128c0 -71 9 -84 65 -84v-19h-172v19c38 0 49 13 49 84v196h-152v-196c0 -71 9 -84 48 -84v-19h-171v19c56 0 65 13 65 84v128c0 71 -9 83 -65 83v19h398z" />
    <glyph glyph-name="pi.numr" unicode="&#xf08e;" horiz-adv-x="482" 
d="M440 600v-19c-56 0 -65 -12 -65 -83v-128c0 -71 9 -84 65 -84v-19h-172v19c38 0 49 13 49 84v196h-152v-196c0 -71 9 -84 48 -84v-19h-171v19c56 0 65 13 65 84v128c0 71 -9 83 -65 83v19h398z" />
    <glyph glyph-name="integral.numr" unicode="&#xf08f;" horiz-adv-x="399" 
d="M229 261c0 -127 -67 -181 -141 -181c-106 0 -140 103 -85 107c52 4 23 -75 90 -75c38 0 69 28 69 149v172c0 130 79 180 157 180c102 0 122 -106 64 -106c-46 0 -20 74 -81 74c-49 0 -73 -38 -73 -148v-172z" />
    <glyph glyph-name="Omega.numr" unicode="&#xf090;" horiz-adv-x="378" 
d="M273 484c0 40 -13 94 -84 94s-84 -54 -84 -94c0 -34 10 -78 60 -92v-125h-111l-4 100h18l4 -16c6 -26 12 -36 46 -36h11v50c-51 20 -85 68 -85 118c0 67 59 130 145 130s144 -63 144 -130c0 -50 -33 -98 -84 -118v-50h12c30 0 40 10 46 36l3 16h18l-4 -100h-111v125
c50 14 60 58 60 92z" />
    <glyph glyph-name="radical.numr" unicode="&#xf091;" horiz-adv-x="441" 
d="M60 535l55 26l83 -205l184 495h41l-226 -606h-15z" />
    <glyph glyph-name="divide.numr" unicode="&#xf092;" horiz-adv-x="425" 
d="M371 425h-317v44h317v-44zM260 326c0 -26 -22 -48 -48 -48s-47 22 -47 48s21 49 47 49s48 -23 48 -49zM260 567c0 -26 -22 -48 -48 -48s-47 22 -47 48s21 48 47 48s48 -22 48 -48z" />
    <glyph glyph-name="plusminus.numr" unicode="&#xf093;" horiz-adv-x="425" 
d="M358 306v-39h-291v39h291zM234 498h124v-44h-124v-104h-44v104h-123v44h123v102h44v-102z" />
    <glyph glyph-name="Delta.numr" unicode="&#xf094;" horiz-adv-x="356" 
d="M172 613h19l145 -346h-317zM254 299l-89 219l-95 -219h184z" />
    <glyph glyph-name="infinity.numr" unicode="&#xf095;" horiz-adv-x="513" 
d="M378 341c-39 0 -93 39 -127 72c-33 -33 -88 -72 -127 -72c-61 0 -101 44 -101 98c0 55 40 98 101 98c39 0 94 -39 127 -71c33 32 87 71 127 71c60 0 101 -43 101 -98c0 -54 -41 -98 -101 -98zM379 497c-27 0 -86 -46 -101 -58c15 -12 74 -57 101 -57c34 0 57 26 57 57
s-23 58 -57 58zM122 497c-33 0 -56 -27 -56 -58s23 -57 56 -57c27 0 78 45 91 57c-13 12 -64 58 -91 58z" />
    <glyph glyph-name="braceleft.numr" unicode="&#xf096;" horiz-adv-x="293" 
d="M50 443c48 14 63 22 63 119c0 98 73 125 145 159l10 -24c-61 -35 -95 -54 -95 -132c0 -100 -14 -116 -71 -127c57 -12 71 -28 71 -128c0 -78 34 -97 95 -132l-10 -24c-72 34 -145 61 -145 159c0 97 -15 105 -63 119v11z" />
    <glyph glyph-name="braceright.numr" unicode="&#xf097;" horiz-adv-x="293" 
d="M243 443v-11c-49 -14 -63 -22 -63 -119c0 -98 -73 -125 -145 -159l-11 24c62 35 95 54 95 132c0 100 14 116 72 128c-58 11 -72 27 -72 127c0 78 -33 97 -95 132l11 24c72 -34 145 -61 145 -159c0 -97 14 -105 63 -119z" />
    <glyph glyph-name="bracketleft.numr" unicode="&#xf098;" horiz-adv-x="300" 
d="M261 179h-169v509h169v-32h-104v-445h104v-32z" />
    <glyph glyph-name="bracketright.numr" unicode="&#xf099;" horiz-adv-x="300" 
d="M39 179v32h104v445h-104v32h169v-509h-169z" />
    <glyph glyph-name="paragraph.numr" unicode="&#xf09a;" horiz-adv-x="407" 
d="M379 600v-16c-68 0 -79 -14 -79 -97v-277c0 -82 11 -96 79 -96v-17h-123v468h-56v-468h-123v17c69 0 79 14 79 96v111c-69 9 -125 67 -125 139c0 78 63 140 140 140h208z" />
    <glyph glyph-name="section.numr" unicode="&#xf09b;" horiz-adv-x="348" 
d="M98 440c-25 19 -40 45 -40 79c0 51 42 93 107 93c33 0 53 -12 70 -26c4 4 10 15 13 27h19v-110h-21c-8 44 -25 78 -78 78c-30 0 -54 -18 -54 -46c0 -27 19 -41 69 -65l39 -19c59 -27 83 -66 83 -102c0 -44 -22 -78 -56 -96c26 -19 41 -44 41 -79c0 -50 -42 -93 -107 -93
c-32 0 -60 13 -78 26c-4 -4 -10 -15 -12 -27h-20v119h21c8 -48 34 -87 86 -87c31 0 54 18 54 46c0 27 -16 41 -68 66l-39 18c-59 28 -84 67 -84 103c0 44 22 77 55 95zM215 273c24 6 38 24 38 50c0 28 -20 51 -68 73l-52 24c-24 -5 -38 -24 -38 -50c0 -28 22 -51 68 -73z
" />
    <glyph glyph-name="dagger.numr" unicode="&#xf09c;" horiz-adv-x="358" 
d="M190 467l22 -121l-30 -273h-6l-29 273l21 122l-73 -24c-22 -7 -46 13 -46 36c0 24 24 45 46 37l75 -25l-27 82c-8 22 13 46 36 46c24 0 44 -24 37 -46l-28 -82l75 25c22 8 45 -13 45 -37c0 -23 -23 -44 -45 -36z" />
    <glyph glyph-name="daggerdbl.numr" unicode="&#xf09d;" horiz-adv-x="358" 
d="M308 214c0 -23 -23 -45 -45 -37l-75 24l28 -81c7 -22 -13 -46 -37 -46c-23 0 -44 24 -36 46l27 81l-75 -24c-22 -7 -46 14 -46 37s24 43 46 36l73 -24l-20 120l20 122l-73 -25c-22 -8 -46 14 -46 37s24 45 46 37l75 -26l-27 83c-8 21 13 46 36 46c24 0 44 -25 37 -46
l-28 -83l75 26c22 8 45 -14 45 -37s-24 -45 -45 -37l-73 24l20 -120l-20 -120l73 23c22 8 45 -13 45 -36z" />
    <glyph glyph-name="copyright.numr" unicode="&#xf09e;" horiz-adv-x="424" 
d="M212 589c-87 0 -157 -70 -157 -157s70 -157 157 -157c86 0 156 70 156 157s-70 157 -156 157zM299 332h-11c-2 8 -5 18 -8 21c-15 -16 -42 -29 -65 -29c-64 0 -115 50 -115 109c0 60 51 109 115 109c23 0 50 -12 65 -28c3 5 6 13 8 21h11v-85h-12c-6 46 -34 74 -69 74
c-52 0 -65 -52 -65 -91c0 -38 13 -89 65 -89c35 0 65 26 69 71h12v-83zM212 615c101 0 182 -82 182 -183s-81 -183 -182 -183s-184 82 -184 183s83 183 184 183z" />
    <glyph glyph-name="registered.numr" unicode="&#xf09f;" horiz-adv-x="256" 
d="M128 613c65 0 116 -51 116 -115c0 -65 -51 -116 -116 -116c-64 0 -115 51 -115 116c0 64 51 115 115 115zM156 525c0 15 -8 26 -25 26h-16v-51h16c17 0 25 12 25 25zM208 436c12 17 20 39 20 62c0 55 -45 100 -100 100s-100 -45 -100 -100c0 -56 45 -101 100 -101
c31 0 60 15 78 38h-42l-42 54h-7v-14c0 -28 4 -33 21 -33v-7h-72v7c21 0 25 5 25 33v49c0 27 -4 31 -25 31v8h68c33 0 51 -16 51 -38c0 -16 -12 -31 -36 -35l17 -20c16 -17 27 -25 44 -28v-6z" />
    <glyph glyph-name="trademark.numr" unicode="&#xf0a0;" horiz-adv-x="487" 
d="M96 585h-24c-39 0 -44 -8 -50 -28l-3 -9h-8l2 52h193l3 -52h-9l-2 9c-6 20 -10 28 -50 28h-24v-112c0 -44 6 -51 34 -51v-9h-96v9c28 0 34 7 34 51v112zM280 559v-86c0 -44 5 -51 34 -51v-9h-85v9c29 0 34 7 34 51v68c0 44 -5 51 -34 51v8h64l63 -145l63 145h59v-8
c-30 0 -35 -7 -35 -51v-68c0 -44 5 -51 35 -51v-9h-97v9c28 0 34 7 34 51v80l-63 -147h-6z" />
    <glyph glyph-name="ordfeminine.numr" unicode="&#xf0a1;" horiz-adv-x="266" 
d="M84 470l-9 -20c-12 -24 -12 -33 26 -33v-12h-95v12c30 0 35 8 50 40l73 156h10l74 -156c15 -32 20 -40 48 -40v-12h-117v12c35 0 39 9 27 33l-9 20h-78zM153 489l-30 63l-30 -63h60z" />
    <glyph glyph-name="ordmasculine.numr" unicode="&#xf0a2;" horiz-adv-x="304" 
d="M272 505c0 -59 -54 -107 -120 -107s-120 48 -120 107c0 60 54 108 120 108s120 -48 120 -108zM227 505c0 40 -19 90 -75 90c-55 0 -74 -50 -74 -90c0 -39 19 -88 74 -88c56 0 75 49 75 88z" />
    <glyph glyph-name="numbersign.numr" unicode="&#xf0a3;" horiz-adv-x="352" 
d="M307 390l-8 -46h-62l-15 -96h-38l17 96h-79l-16 -96h-38l17 96h-62l9 46h61l14 83h-61l7 47h62l18 95h36l-16 -95h77l18 95h36l-16 -95h61l-7 -47h-63l-14 -83h62zM208 390l14 83h-78l-14 -83h78z" />
    <glyph glyph-name="asciicircum.numr" unicode="&#xf0a4;" horiz-adv-x="291" 
d="M272 448l-17 -15l-109 109l-109 -109l-17 15l127 175z" />
    <glyph glyph-name="quotesinglbase.numr" horiz-adv-x="209" 
d="M108 265c-1 -1 -5 -1 -7 -1c-23 0 -41 21 -41 44c0 22 18 42 41 42c22 0 47 -17 47 -56s-25 -98 -80 -133l-10 13c31 29 45 53 50 91z" />
    <glyph glyph-name="question.numr" unicode="&#xf0a6;" horiz-adv-x="311" 
d="M139 582c-39 0 -63 -15 -63 -30c0 -6 6 -7 20 -7c16 0 30 -14 30 -29c0 -22 -23 -31 -37 -31c-23 0 -51 22 -51 58c0 37 45 70 106 70c70 0 139 -38 139 -100c0 -88 -109 -108 -136 -112v-23h-29v74c54 0 108 17 108 68c0 40 -42 62 -87 62zM140 338c22 0 39 -18 39 -39
c0 -22 -17 -40 -39 -40s-39 18 -39 40c0 21 17 39 39 39z" />
    <glyph glyph-name="exclam.numr" unicode="&#xf0a7;" horiz-adv-x="196" 
d="M48 568c0 24 21 45 45 45c23 0 44 -21 44 -45c0 -39 -31 -80 -34 -190h-22c-3 110 -33 151 -33 190zM92 338c21 0 39 -18 39 -39c0 -22 -18 -40 -39 -40c-22 0 -39 18 -39 40c0 21 17 39 39 39z" />
    <glyph glyph-name="underscore.numr" unicode="&#xf0a8;" horiz-adv-x="358" 
d="M359 223h-360v44h360v-44z" />
    <glyph glyph-name="quotedbl.numr" horiz-adv-x="325" 
d="M48 570c0 22 19 42 41 42c23 0 42 -20 42 -42c0 -23 -28 -60 -34 -152h-15c-7 92 -34 129 -34 152zM193 570c0 22 19 42 41 42c23 0 42 -20 42 -42c0 -23 -28 -60 -34 -152h-15c-7 92 -34 129 -34 152z" />
    <glyph glyph-name="quotesingle.numr" horiz-adv-x="193" 
d="M55 570c0 22 18 42 41 42c22 0 42 -20 42 -42c0 -23 -28 -60 -35 -152h-15c-6 92 -33 129 -33 152z" />
    <glyph glyph-name="slash.numr" horiz-adv-x="263" 
d="M250 595l-207 -345l-30 18l207 345z" />
    <glyph glyph-name="bar.numr" horiz-adv-x="263" 
d="M110 696h43v-525h-43v525z" />
    <glyph glyph-name="backslash.numr" horiz-adv-x="263" 
d="M12 595l30 18l207 -345l-30 -18z" />
    <glyph glyph-name="quotedblbase.numr" horiz-adv-x="347" 
d="M247 265c-2 -1 -5 -1 -8 -1c-22 0 -41 21 -41 44c0 22 19 42 41 42c23 0 48 -17 48 -56s-26 -98 -80 -133l-11 13c32 29 46 53 51 91zM108 265c-1 -1 -5 -1 -7 -1c-23 0 -41 21 -41 44c0 22 18 42 41 42c22 0 47 -17 47 -56s-25 -98 -80 -133l-10 13c31 29 45 53 50 91z
" />
    <glyph glyph-name="quotedblleft.numr" horiz-adv-x="347" 
d="M238 515c2 1 5 1 8 1c22 0 41 -20 41 -43s-19 -43 -41 -43c-23 0 -48 18 -48 57c0 38 26 98 80 133l11 -14c-31 -28 -46 -52 -51 -91zM100 515c2 1 5 1 8 1c22 0 40 -20 40 -43s-18 -43 -40 -43c-23 0 -48 18 -48 57c0 38 26 98 80 133l11 -14c-32 -28 -46 -52 -51 -91z
" />
    <glyph glyph-name="quotedblright.numr" horiz-adv-x="347" 
d="M247 528c-2 -1 -5 -1 -8 -1c-22 0 -41 20 -41 43s19 43 41 43c23 0 48 -18 48 -57c0 -38 -26 -97 -80 -132l-11 13c32 28 46 53 51 91zM108 528c-1 -1 -5 -1 -7 -1c-23 0 -41 20 -41 43s18 43 41 43c22 0 47 -18 47 -57c0 -38 -25 -97 -80 -132l-10 13c31 28 45 53 50 91
z" />
    <glyph glyph-name="quoteleft.numr" horiz-adv-x="209" 
d="M100 515c2 1 5 1 8 1c22 0 40 -20 40 -43s-18 -43 -40 -43c-23 0 -48 18 -48 57c0 38 26 98 80 133l11 -14c-32 -28 -46 -52 -51 -91z" />
    <glyph glyph-name="quoteright.numr" horiz-adv-x="209" 
d="M108 528c-1 -1 -5 -1 -7 -1c-23 0 -41 20 -41 43s18 43 41 43c22 0 47 -18 47 -57c0 -38 -25 -97 -80 -132l-10 13c31 28 45 53 50 91z" />
    <glyph glyph-name="questiondown.numr" unicode="&#xf0b3;" horiz-adv-x="311" 
d="M171 525c-22 0 -39 18 -39 40c0 21 17 39 39 39s39 -18 39 -39c0 -22 -17 -40 -39 -40zM172 281c39 0 63 15 63 30c0 6 -6 8 -20 8c-16 0 -30 13 -30 28c0 23 23 31 37 31c23 0 51 -22 51 -58s-45 -70 -106 -70c-70 0 -139 38 -139 100c0 89 109 109 136 112v23h29v-74
c-54 0 -108 -16 -108 -67c0 -41 42 -63 87 -63z" />
    <glyph glyph-name="lozenge.numr" unicode="&#xf0b4;" horiz-adv-x="317" 
d="M282 430l-124 -201l-123 201l124 194zM237 430l-79 125l-79 -125l79 -130z" />
    <glyph glyph-name="degree.numr" unicode="&#xf0b5;" horiz-adv-x="240" 
d="M119 584c-34 0 -61 -28 -61 -62s27 -61 61 -61s62 27 62 61s-28 62 -62 62zM119 613c50 0 91 -41 91 -91s-41 -90 -91 -90s-91 40 -91 90s41 91 91 91z" />
    <glyph glyph-name="logicalnot.numr" unicode="&#xf0b6;" horiz-adv-x="409" 
d="M334 477v-172h-44v128h-232v44h276z" />
    <glyph glyph-name="mu.numr" unicode="&#xf0b7;" horiz-adv-x="488" 
d="M163 276v-77c0 -70 10 -83 65 -83v-19h-197v19c56 0 65 13 65 83v299c0 71 -9 83 -65 83v19h197v-19c-55 0 -65 -12 -65 -83v-103c0 -66 40 -98 95 -98s97 32 97 98v103c0 71 -8 83 -64 83v19h167v-19c-56 0 -65 -12 -65 -83v-98c0 -95 -62 -145 -145 -145
c-31 0 -60 7 -85 21z" />
    <glyph glyph-name="exclamdown.numr" unicode="&#xf0b8;" horiz-adv-x="196" 
d="M104 525c-21 0 -39 18 -39 40c0 21 18 39 39 39c22 0 39 -18 39 -39c0 -22 -17 -40 -39 -40zM148 295c0 -24 -21 -45 -45 -45c-23 0 -44 21 -44 45c0 40 31 80 34 190h22c3 -110 33 -150 33 -190z" />
    <glyph glyph-name="minus.numr" unicode="&#xf0b9;" horiz-adv-x="425" 
d="M358 416h-291v44h291v-44z" />
    <glyph glyph-name="multiply.numr" unicode="&#xf0ba;" horiz-adv-x="425" 
d="M243 438l112 -112l-32 -31l-110 112l-112 -112l-31 31l111 112l-111 111l32 31l111 -111l110 111l31 -31z" />
    <glyph glyph-name="bullet.numr" horiz-adv-x="270" 
d="M135 530c43 0 77 -34 77 -76c0 -43 -34 -77 -77 -77c-42 0 -77 34 -77 77c0 42 35 76 77 76z" />
    <glyph glyph-name="parenleft.sups" unicode="&#xf0bb;" horiz-adv-x="258" 
d="M239 323l-16 -19c-87 72 -162 167 -162 284s75 212 161 283l17 -18c-39 -43 -112 -134 -112 -265s73 -222 112 -265z" />
    <glyph glyph-name="parenright.sups" unicode="&#xf0bc;" horiz-adv-x="258" 
d="M19 323c39 43 113 134 113 265s-74 222 -113 265l18 18c86 -71 161 -166 161 -283s-75 -212 -162 -284z" />
    <glyph glyph-name="comma.sups" unicode="&#xf0bd;" horiz-adv-x="279" 
d="M138 415c-3 -1 -6 -1 -9 -1c-26 0 -46 23 -46 49s20 48 46 48s54 -19 54 -63s-30 -112 -91 -151l-12 12c38 39 52 67 58 106z" />
    <glyph glyph-name="period.sups" unicode="&#xf0be;" horiz-adv-x="279" 
d="M194 461c0 -28 -26 -52 -56 -52c-31 0 -55 24 -55 52c0 29 24 53 55 53c30 0 56 -24 56 -53z" />
    <glyph glyph-name="cent.sups" unicode="&#xf0bf;" horiz-adv-x="375" 
d="M219 406v-56h-29v55c-77 9 -136 86 -136 179c0 92 59 169 136 178v55h29v-56c28 -4 55 -21 72 -45c4 8 7 22 10 34h16v-137h-19c-12 67 -39 110 -79 117v-293c40 8 67 52 79 118h19v-138h-16c-3 14 -6 28 -9 35c-18 -22 -45 -41 -73 -46zM190 438v292
c-55 -11 -68 -87 -68 -146s13 -134 68 -146z" />
    <glyph glyph-name="dollar.sups" unicode="&#xf0c0;" horiz-adv-x="375" 
d="M209 405v-88h-29v88c-33 5 -62 22 -75 33c-5 -5 -13 -20 -16 -34h-20v138h20c7 -57 43 -93 91 -103v123c0 1 -38 18 -38 18c-42 20 -72 49 -72 93c0 48 46 89 109 89h1v88h29v-91c20 -4 38 -14 50 -23c4 4 10 15 13 27h19v-118h-19c-6 39 -26 72 -63 83v-109l45 -21
c49 -23 68 -57 68 -87c0 -60 -50 -102 -113 -106zM209 549v-112c39 2 62 19 62 48c0 25 -15 41 -62 64zM180 632v99c-35 -1 -58 -17 -58 -41s13 -36 58 -58z" />
    <glyph glyph-name="hyphen.sups" unicode="&#xf0c1;" horiz-adv-x="425" 
d="M342 575h-259v44h259v-44z" />
    <glyph glyph-name="sterling.sups" unicode="&#xf323;" horiz-adv-x="375" 
d="M187 531c0 -71 9 -83 61 -83h2c72 0 82 12 91 45l5 18h16l-7 -94h-302v19c56 0 65 13 65 84v52h-65v35h65v6c0 108 66 150 132 150c84 0 101 -88 53 -88c-39 0 -17 62 -68 62c-41 0 -48 -32 -48 -124v-6h81v-35h-81v-41z" />
    <glyph glyph-name="yen.sups" unicode="&#xf324;" horiz-adv-x="375" 
d="M223 540v-20c0 -71 10 -84 65 -84v-19h-191v19c56 0 65 13 65 84v20h-110v36h95l-57 87c-35 54 -46 68 -85 68v19h173v-19c-50 0 -53 -10 -25 -55l55 -85l54 85c24 39 26 55 -24 55v19h145v-19c-38 0 -54 -16 -88 -68l-57 -87h95v-36h-110z" />
    <glyph glyph-name="Euro.sups" unicode="&#xf325;" horiz-adv-x="375" 
d="M69 609h-39v33h45c19 70 73 121 136 121c30 0 62 -19 82 -47c4 8 6 22 9 34h15v-137h-19c-12 74 -42 119 -86 119c-46 0 -66 -42 -74 -90h95v-33h-99c-1 -9 -1 -17 -1 -25c0 -9 0 -17 1 -25h99v-34h-95c8 -47 29 -89 74 -89c44 0 74 45 86 119h19v-138h-15
c-3 14 -5 28 -9 35c-20 -27 -52 -48 -82 -48c-63 0 -116 51 -136 121h-45v34h39c-1 8 -1 16 -1 25c0 8 0 16 1 25z" />
    <glyph glyph-name="parenleft.sinf" unicode="&#xf0c2;" horiz-adv-x="258" 
d="M239 -244l-16 -19c-87 72 -162 167 -162 284s75 212 161 283l17 -18c-39 -43 -112 -134 -112 -265s73 -222 112 -265z" />
    <glyph glyph-name="parenright.sinf" unicode="&#xf0c3;" horiz-adv-x="258" 
d="M19 -244c39 43 113 134 113 265s-74 222 -113 265l18 18c86 -71 161 -166 161 -283s-75 -212 -162 -284z" />
    <glyph glyph-name="hyphen.sinf" unicode="&#xf0c4;" horiz-adv-x="425" 
d="M342 8h-259v44h259v-44z" />
    <glyph glyph-name="cent.sinf" unicode="&#xf0c5;" horiz-adv-x="375" 
d="M219 -161v-56h-29v55c-77 9 -136 86 -136 179c0 92 59 169 136 178v55h29v-56c28 -4 55 -21 72 -45c4 8 7 22 10 34h16v-137h-19c-12 67 -39 110 -79 117v-293c40 8 67 52 79 118h19v-138h-16c-3 14 -6 28 -9 35c-18 -22 -45 -41 -73 -46zM190 -129v292
c-55 -11 -68 -87 -68 -146s13 -134 68 -146z" />
    <glyph glyph-name="dollar.sinf" unicode="&#xf0c6;" horiz-adv-x="375" 
d="M209 -162v-88h-29v88c-33 5 -62 22 -75 33c-5 -5 -13 -20 -16 -34h-20v138h20c7 -57 43 -93 91 -103v123c0 1 -38 18 -38 18c-42 20 -72 49 -72 93c0 48 46 89 109 89h1v88h29v-91c20 -4 38 -14 50 -23c4 4 10 15 13 27h19v-118h-19c-6 39 -26 72 -63 83v-109l45 -21
c49 -23 68 -57 68 -87c0 -60 -50 -102 -113 -106zM209 -18v-112c39 2 62 19 62 48c0 25 -15 41 -62 64zM180 65v99c-35 -1 -58 -17 -58 -41s13 -36 58 -58z" />
    <glyph glyph-name="comma.sinf" unicode="&#xf0c7;" horiz-adv-x="246" 
d="M121 -152c-3 -1 -6 -1 -8 -1c-26 0 -46 22 -46 48c0 25 20 48 46 48c25 0 52 -20 52 -63s-29 -109 -89 -148l-12 11c37 39 51 67 57 105z" />
    <glyph glyph-name="period.sinf" unicode="&#xf0c8;" horiz-adv-x="246" 
d="M115 -158c-27 0 -49 21 -49 49c0 27 22 50 49 50c28 0 49 -23 49 -50c0 -28 -21 -49 -49 -49z" />
    <glyph glyph-name="sterling.sinf" unicode="&#xf326;" horiz-adv-x="375" 
d="M187 -36c0 -71 9 -83 61 -83h2c72 0 82 12 91 45l5 18h16l-7 -94h-302v19c56 0 65 13 65 84v52h-65v35h65v6c0 108 66 150 132 150c84 0 101 -88 53 -88c-39 0 -17 62 -68 62c-41 0 -48 -32 -48 -124v-6h81v-35h-81v-41z" />
    <glyph glyph-name="yen.sinf" unicode="&#xf327;" horiz-adv-x="375" 
d="M223 -27v-20c0 -71 10 -84 65 -84v-19h-191v19c56 0 65 13 65 84v20h-110v36h95l-57 87c-35 54 -46 68 -85 68v19h173v-19c-50 0 -53 -10 -25 -55l55 -85l54 85c24 39 26 55 -24 55v19h145v-19c-38 0 -54 -16 -88 -68l-57 -87h95v-36h-110z" />
    <glyph glyph-name="Euro.sinf" unicode="&#xf328;" horiz-adv-x="375" 
d="M69 42h-39v33h45c19 70 73 121 136 121c30 0 62 -19 82 -47c4 8 6 22 9 34h15v-137h-19c-12 74 -42 119 -86 119c-46 0 -66 -42 -74 -90h95v-33h-99c-1 -9 -1 -17 -1 -25c0 -9 0 -17 1 -25h99v-34h-95c8 -47 29 -89 74 -89c44 0 74 45 86 119h19v-138h-15
c-3 14 -5 28 -9 35c-20 -27 -52 -48 -82 -48c-63 0 -116 51 -136 121h-45v34h39c-1 8 -1 16 -1 25c0 8 0 16 1 25z" />
    <glyph glyph-name="hsuperior" unicode="&#xf0c9;" horiz-adv-x="395" 
d="M74 518c0 70 -8 81 -57 81v21l115 20v-198c21 23 52 46 96 46c68 0 98 -47 98 -110v-45c0 -70 7 -81 57 -81v-22h-172v22c47 0 57 11 57 81v41c0 44 -14 74 -62 74c-27 0 -74 -26 -74 -68v-47c0 -71 5 -81 51 -81v-22h-166v22c49 0 57 11 57 81v185z" />
    <glyph glyph-name="arrowup" unicode="&#x2191;" horiz-adv-x="667" 
d="M345 503l21 -107l-22 -163l74 24c21 6 45 -14 45 -37s-24 -43 -45 -37l-75 25l27 -81c7 -23 -13 -46 -37 -46c-23 0 -43 23 -36 46l27 81l-74 -25c-22 -6 -46 14 -46 37s24 43 46 37l73 -24l-22 163l22 107h22zM525 452l-17 -25l-163 109h-22l-164 -109l-16 25l191 183z
" />
    <glyph glyph-name="arrowdown" unicode="&#x2193;" horiz-adv-x="667" 
d="M463 220c0 -23 -24 -43 -45 -37l-74 25l22 -164l-21 -107h-22l-22 107l22 163l-73 -24c-22 -6 -46 14 -46 37s24 43 46 37l74 -25l-27 81c-7 23 13 46 36 46c24 0 44 -23 37 -46l-27 -81l75 25c21 6 45 -14 45 -37zM525 -12l-191 -183l-191 183l16 25l164 -109h22
l163 109z" />
    <glyph glyph-name="arrowleft" unicode="&#x2190;" horiz-adv-x="667" 
d="M608 220c0 -23 -23 -43 -45 -37l-82 28l25 -74c7 -22 -13 -46 -37 -46c-23 0 -43 24 -36 46l23 72l-163 -21l-106 21v23l106 21l164 -22l-24 73c-7 22 13 46 36 46c24 0 44 -24 37 -46l-25 -75l82 28c22 6 45 -14 45 -37zM263 46l-25 -17l-184 192l184 191l25 -17
l-110 -163v-23z" />
    <glyph glyph-name="arrowright" unicode="&#x2192;" horiz-adv-x="667" 
d="M613 220l-184 -192l-25 17l109 163v23l-109 163l25 17zM480 208l-107 -21l-162 21l23 -72c7 -22 -13 -46 -36 -46c-24 0 -44 24 -37 46l25 74l-82 -27c-22 -7 -46 13 -46 36c0 24 24 44 46 37l82 -28l-25 75c-7 22 13 46 37 46c23 0 43 -24 36 -46l-24 -73l163 22
l107 -21v-23z" />
    <glyph glyph-name="orn.001" unicode="&#xf0ca;" horiz-adv-x="333" 
d="M151 500l-68 -22c-22 -6 -46 14 -46 37s24 43 46 37l74 -25l-28 81c-6 23 14 46 37 46s43 -23 37 -46l-28 -81l75 25c22 6 46 -14 46 -37s-24 -43 -46 -37l-72 24c8 -67 118 -139 118 -224c0 -89 -69 -138 -127 -158l-8 16c51 26 72 67 72 129c0 79 -80 139 -82 235z
M155 -62c-8 68 -118 140 -118 225c0 89 69 138 126 158l9 -16c-51 -26 -73 -67 -73 -129c0 -79 80 -139 83 -235l68 21c22 7 46 -13 46 -36c0 -24 -24 -44 -46 -37l-74 25l27 -82c7 -22 -13 -45 -36 -45c-24 0 -44 23 -37 45l28 82l-75 -25c-22 -7 -46 13 -46 37
c0 23 24 43 46 36z" />
    <glyph glyph-name="orn.002" unicode="&#xf0cb;" horiz-adv-x="984" 
d="M772 236l-22 68c-7 22 13 46 37 46c23 0 43 -24 36 -46l-25 -74l82 28c23 6 46 -14 46 -37s-23 -43 -46 -37l-82 28l25 -75c7 -22 -13 -46 -36 -46c-24 0 -44 24 -37 46l23 72c-66 -8 -138 -118 -224 -118c-88 0 -137 69 -157 127l16 8c25 -51 67 -73 129 -73
c79 0 139 80 235 83zM210 232c68 8 139 118 225 118c88 0 138 -69 158 -127l-16 -8c-26 51 -68 73 -129 73c-80 0 -140 -80 -235 -83l21 -68c7 -22 -13 -46 -36 -46c-24 0 -44 24 -37 46l25 74l-82 -28c-22 -6 -46 14 -46 37s24 43 46 37l82 -28l-25 75c-7 22 13 46 37 46
c23 0 43 -24 36 -46z" />
    <glyph glyph-name="orn.003" unicode="&#xf0cc;" horiz-adv-x="583" 
d="M584 317c12 -20 2 -50 -21 -54l-108 -23l-81 71c-17 15 -11 47 9 58c20 12 50 2 55 -21l20 -100l68 79c16 16 47 10 58 -10zM390 475l-35 -104l-101 -34c-22 -8 -46 13 -46 36c0 24 24 44 46 37l96 -32l-33 97c-7 23 13 46 36 46c24 0 45 -23 37 -46zM523 15
c-12 -20 -44 -27 -59 -9l-72 82l21 105c4 23 34 33 54 21c20 -11 26 -41 9 -58l-76 -67l101 -19c22 -6 33 -35 22 -55zM192 350l-22 -103c-3 -24 -33 -34 -53 -22s-26 42 -10 58l76 66l-100 20c-23 5 -34 34 -22 54s42 27 58 10zM375 65c0 -23 -23 -43 -46 -37l-96 33
l34 -98c6 -22 -14 -46 -37 -46s-44 24 -37 46l35 105l101 34c23 7 46 -14 46 -37zM208 128c19 -15 12 -46 -8 -58s-49 -2 -55 22l-20 99l-67 -78c-16 -17 -47 -11 -59 9s-2 50 22 55l107 21z" />
    <glyph glyph-name="orn.004" unicode="&#xf0cd;" horiz-adv-x="583" 
d="M578 344c12 -20 1 -50 -21 -55l-74 -16l-20 -10l-51 -57c-15 -17 -47 -12 -59 8c-11 20 0 50 21 55l79 16l-66 57c-16 16 -10 46 10 57c20 12 49 2 54 -21l17 -84l51 59c16 16 48 12 59 -9zM365 316c7 -22 -13 -46 -37 -46c-23 0 -43 24 -36 46l25 75l-82 -28
c-22 -6 -46 14 -46 37s24 43 46 37l82 -28l-25 74c-7 22 13 46 36 46c24 0 44 -24 37 -46l-23 -72v-22zM542 34c-12 -20 -43 -25 -59 -8l-50 56l-20 11l-75 16c-21 5 -33 35 -21 55c11 20 44 25 59 9l52 -60l17 85c6 23 35 33 55 21c20 -11 26 -41 9 -57l-66 -58l78 -15
c22 -5 32 -34 21 -55zM268 276c-12 -20 -45 -24 -60 -8l-51 60l-18 -86c-5 -23 -34 -33 -54 -21s-26 42 -10 57l66 59l-78 14c-22 5 -32 35 -20 56c11 20 42 24 58 7l51 -55l19 -11l75 -16c22 -5 33 -36 22 -56zM396 40c0 -23 -23 -43 -46 -37l-82 28l25 -74
c7 -22 -13 -46 -36 -46c-24 0 -44 24 -37 46l23 72v22l-23 73c-7 22 13 46 37 46c23 0 43 -24 36 -46l-25 -75l82 28c23 6 46 -14 46 -37zM231 226c12 -20 1 -49 -21 -54l-78 -16l66 -58c16 -15 10 -45 -10 -57s-49 -2 -55 21l-17 85l-51 -59c-16 -17 -47 -12 -59 9
c-12 20 -1 49 22 54l74 17l19 10l52 57c15 17 46 11 58 -9z" />
    <glyph glyph-name="orn.005" unicode="&#xf0ce;" horiz-adv-x="583" 
d="M348 416c-8 22 13 46 36 46c24 0 44 -24 37 -46l-34 -100l100 34c21 8 46 -13 46 -37c0 -23 -24 -44 -46 -36l-104 35zM235 416l-35 -104l-104 -35c-23 -8 -46 13 -46 36c0 24 24 45 46 37l100 -34l-34 100c-8 22 13 46 36 46c24 0 45 -24 37 -46zM430 220
c0 -23 -23 -43 -46 -37l-81 28l25 -75c6 -22 -14 -46 -37 -46s-43 24 -37 46l25 75l-81 -28c-23 -6 -46 14 -46 37s23 43 46 37l81 -28l-25 74c-6 22 14 46 37 46s43 -24 37 -46l-25 -74l81 28c23 6 46 -14 46 -37zM348 23l35 105l104 35c22 7 46 -14 46 -37
s-25 -44 -46 -37l-100 34l34 -100c7 -21 -13 -46 -37 -46c-23 0 -44 24 -36 46zM235 23c8 -22 -13 -46 -37 -46c-23 0 -43 24 -36 46l34 100l-100 -34c-23 -6 -46 14 -46 37s23 44 46 37l104 -35z" />
    <glyph glyph-name="orn.006" unicode="&#xf0cf;" horiz-adv-x="583" 
d="M323 290c-21 -7 -45 13 -45 37c0 23 24 44 45 36l75 -25l-27 82c-8 23 13 46 37 46c23 0 44 -23 36 -46l-27 -82l74 25c22 8 46 -13 46 -36c0 -24 -24 -44 -46 -37l-73 23h-21zM175 -27c-23 0 -44 24 -37 46l28 82l-74 -25c-22 -8 -46 13 -46 37c0 23 24 43 46 36l72 -23
h22l73 23c22 7 46 -13 46 -36c0 -24 -24 -45 -46 -37l-75 25l28 -82c7 -22 -14 -46 -37 -46zM223 252c7 -22 -13 -46 -36 -46c-24 0 -44 24 -37 46l25 75l-82 -28c-22 -6 -45 14 -45 37s23 43 45 37l82 -28l-25 74c-7 22 13 46 37 46c23 0 43 -24 36 -46l-23 -72v-22z
M538 103c0 -24 -24 -45 -46 -37l-82 27l25 -74c7 -21 -13 -46 -37 -46c-23 0 -43 24 -36 46l23 73v21l-23 74c-7 21 13 46 36 46c24 0 44 -25 37 -46l-25 -75l82 27c22 8 46 -13 46 -36z" />
    <glyph glyph-name="orn.007" unicode="&#xf0d0;" horiz-adv-x="583" 
d="M390 122c-17 -16 -48 -14 -58 6l-38 76l-36 -70c-11 -20 -42 -22 -59 -6c-16 15 -13 48 7 58l71 36l-78 38c-20 10 -22 42 -6 58c17 17 48 15 59 -6l38 -78l34 71c10 20 43 23 59 6c15 -17 14 -48 -6 -58l-70 -35l76 -38c22 -11 24 -42 7 -58zM60 127c-7 22 13 46 37 46
c23 0 44 -25 36 -46l-34 -100l100 34c22 7 46 -13 46 -37c0 -23 -23 -44 -46 -37l-104 36zM523 127l-35 -104l-105 -36c-22 -7 -45 14 -45 37c0 24 24 44 45 37l100 -34l-34 100c-7 21 14 46 37 46s44 -24 37 -46zM60 313l35 104l104 35c23 7 46 -14 46 -37s-24 -44 -46 -37
l-100 35l34 -100c8 -22 -13 -46 -36 -46c-24 0 -44 23 -37 46zM523 313c7 -23 -14 -46 -37 -46s-43 23 -37 46l34 100l-100 -35c-22 -6 -45 14 -45 37s23 44 45 37l105 -35z" />
    <glyph glyph-name="orn.008" unicode="&#xf0d1;" horiz-adv-x="583" 
d="M470 318c11 21 42 23 58 7c17 -16 15 -48 -6 -58l-95 -47l95 -47c21 -10 23 -41 6 -58c-16 -17 -47 -15 -58 7l-49 98zM391 398l-99 -49l-99 49c-20 10 -22 41 -5 58c16 17 48 14 58 -7l46 -94l46 94c10 21 42 24 59 7c16 -17 15 -48 -6 -58zM390 122
c-17 -16 -48 -14 -58 6l-38 76l-36 -70c-11 -20 -42 -22 -59 -6c-16 15 -13 48 7 58l71 36l-78 38c-20 10 -22 42 -6 58c17 17 48 15 59 -6l38 -78l34 71c10 20 43 23 59 6c15 -17 14 -48 -6 -58l-70 -35l76 -38c22 -11 24 -42 7 -58zM193 41l98 48l98 -48
c22 -11 24 -42 7 -59c-17 -16 -48 -14 -58 7l-47 94l-47 -94c-10 -21 -41 -23 -58 -7c-17 17 -15 48 7 59zM113 120c-11 -21 -42 -22 -59 -7c-16 16 -14 49 7 59l95 46l-95 47c-22 11 -23 42 -7 58c16 17 48 15 59 -6l49 -99z" />
    <glyph glyph-name="onequarter.small" unicode="&#xf0d2;" horiz-adv-x="853" 
d="M769 187l-6 -98h-69c0 -58 9 -71 55 -71v-18h-161v18c46 0 55 13 55 71h-137v17l165 220h23v-205c27 1 44 4 54 49l3 17h18zM643 121v119l-90 -119h90zM255 133h-165v18c48 0 56 12 56 77v111c0 67 -17 73 -67 72v17l122 25v-225c0 -65 7 -77 54 -77v-18zM573 433
l-281 -450l-34 17l280 451z" />
    <glyph glyph-name="onehalf.small" unicode="&#xf0d3;" horiz-adv-x="853" 
d="M783 47l-9 -47h-224v22l128 113c32 28 41 49 41 84c0 36 -25 62 -66 62s-83 -43 -44 -101l-26 -24c-76 53 -38 161 72 161c62 0 118 -36 118 -95c0 -45 -30 -75 -57 -99l-86 -76h153zM255 133h-165v18c48 0 56 12 56 77v111c0 67 -17 73 -67 72v17l122 25v-225
c0 -65 7 -77 54 -77v-18zM564 433l-281 -450l-34 17l281 451z" />
    <glyph glyph-name="threequarters.small" unicode="&#xf0d4;" horiz-adv-x="853" 
d="M769 187l-6 -98h-68c0 -58 8 -71 54 -71v-18h-161v18c47 0 55 13 55 71h-137v17l166 220h23v-205c26 1 44 17 53 49l4 17h17zM643 121v119l-89 -119h89zM289 221c0 -56 -51 -104 -122 -104c-69 0 -104 41 -104 66c0 10 5 17 19 17c24 0 20 -54 85 -54c46 0 67 37 67 75
c0 32 -21 63 -55 69c-4 -3 -8 -9 -15 -22c-6 -12 -16 -15 -23 -15c-15 0 -25 18 -9 35l95 100h-85c-29 0 -54 -8 -60 -37l-5 -17h-19l17 99h208v-22l-77 -90c49 -16 83 -57 83 -100zM581 433l-281 -450l-34 17l281 451z" />
    <glyph glyph-name="oneeighth.small" unicode="&#xf0d5;" horiz-adv-x="853" 
d="M797 80c0 -53 -57 -96 -126 -96c-70 0 -126 43 -126 96c0 48 35 68 75 83c-30 17 -57 40 -57 71c0 46 49 83 108 83s108 -37 108 -83c0 -32 -31 -49 -66 -64c44 -19 84 -42 84 -90zM725 243c0 22 -23 46 -54 46c-32 0 -54 -24 -54 -46c0 -26 34 -44 62 -57
c24 11 46 30 46 57zM743 72c0 37 -48 55 -90 73c-28 -14 -54 -35 -54 -73c0 -29 27 -61 72 -61s72 32 72 61zM247 133h-165v18c47 0 56 12 56 77v111c0 67 -17 73 -67 72v17l122 25v-225c0 -65 7 -77 54 -77v-18zM556 433l-281 -450l-34 17l281 451z" />
    <glyph glyph-name="threeeighths.small" unicode="&#xf0d6;" horiz-adv-x="853" 
d="M797 80c0 -53 -56 -96 -126 -96c-69 0 -125 43 -125 96c0 48 35 68 75 83c-31 17 -58 40 -58 71c0 46 49 83 108 83s108 -37 108 -83c0 -32 -31 -49 -66 -64c44 -19 84 -42 84 -90zM726 243c0 22 -23 46 -55 46c-31 0 -54 -24 -54 -46c0 -26 34 -44 63 -57
c23 11 46 30 46 57zM743 72c0 37 -48 55 -90 73c-27 -14 -54 -35 -54 -73c0 -29 28 -61 72 -61c45 0 72 32 72 61zM289 221c0 -56 -51 -104 -122 -104c-69 0 -104 41 -104 66c0 10 5 17 19 17c24 0 20 -54 85 -54c46 0 67 37 67 75c0 32 -21 63 -55 69c-4 -3 -8 -9 -15 -22
c-6 -12 -16 -15 -23 -15c-15 0 -25 18 -9 35l95 100h-85c-29 0 -54 -8 -60 -37l-5 -17h-19l17 99h208v-22l-77 -90c49 -16 83 -57 83 -100zM573 433l-281 -450l-34 17l280 451z" />
    <glyph glyph-name="fiveeighths.small" unicode="&#xf0d7;" horiz-adv-x="853" 
d="M288 228c0 -61 -58 -111 -128 -111c-97 0 -124 83 -80 83c24 0 15 -55 80 -55c47 0 73 41 73 83c0 40 -21 80 -67 80c-28 0 -56 -21 -65 -55h-32l18 180h186l-9 -45h-147l-8 -75c11 12 36 25 57 25c74 0 122 -50 122 -110zM797 80c0 -53 -56 -96 -126 -96
c-69 0 -125 43 -125 96c0 48 35 68 75 83c-31 17 -58 40 -58 71c0 46 49 83 108 83s108 -37 108 -83c0 -32 -31 -49 -66 -64c44 -19 84 -42 84 -90zM726 243c0 22 -23 46 -55 46c-31 0 -54 -24 -54 -46c0 -26 34 -44 63 -57c23 11 46 30 46 57zM743 72c0 37 -48 55 -90 73
c-27 -14 -54 -35 -54 -73c0 -29 28 -61 72 -61c45 0 72 32 72 61zM573 433l-281 -450l-34 17l280 451z" />
    <glyph glyph-name="seveneighths.small" unicode="&#xf0d8;" horiz-adv-x="853" 
d="M316 411l-134 -265c-12 -23 -21 -38 -43 -33c-11 4 -28 20 -8 50l142 225h-123c-27 0 -54 -12 -60 -37l-4 -17h-23l19 99h234v-22zM788 80c0 -53 -55 -96 -125 -96s-125 43 -125 96c0 48 35 68 75 83c-31 17 -58 40 -58 71c0 46 48 83 108 83c59 0 108 -37 108 -83
c0 -32 -31 -49 -66 -64c43 -19 83 -42 83 -90zM718 243c0 22 -24 46 -55 46s-55 -24 -55 -46c0 -26 35 -44 64 -57c23 11 46 30 46 57zM735 72c0 37 -48 55 -90 73c-27 -14 -54 -35 -54 -73c0 -29 27 -61 72 -61s72 32 72 61zM556 433l-281 -450l-34 17l281 451z" />
    <glyph glyph-name="onethird.small" unicode="&#xf0d9;" horiz-adv-x="853" 
d="M556 433l-281 -450l-34 17l281 451zM788 88c0 -56 -53 -104 -123 -104c-69 0 -105 42 -105 66c0 10 7 18 19 18c24 0 20 -55 86 -55c46 0 67 37 67 75c0 33 -22 63 -55 70c-4 -5 -9 -10 -15 -22c-7 -13 -16 -16 -24 -16c-14 0 -25 18 -9 34l96 100h-86
c-28 0 -53 -6 -60 -36l-5 -16h-19l18 99h207v-23l-76 -90c49 -16 84 -57 84 -100zM247 133h-165v18c47 0 56 12 56 77v111c0 67 -17 73 -67 72v17l122 25v-225c0 -65 7 -77 54 -77v-18z" />
    <glyph glyph-name="twothirds.small" unicode="&#xf0da;" horiz-adv-x="853" 
d="M795 88c0 -56 -52 -104 -122 -104c-69 0 -105 42 -105 66c0 10 6 18 20 18c23 0 20 -55 85 -55c46 0 67 37 67 75c0 33 -22 63 -55 70c-4 -5 -8 -10 -16 -22c-6 -12 -16 -16 -22 -16c-15 0 -25 18 -9 34l95 100h-85c-29 0 -55 -6 -60 -36l-5 -16h-20l18 99h207v-23
l-76 -90c49 -16 83 -57 83 -100zM289 179l-9 -46h-223v21l126 114c33 29 42 49 42 84c0 36 -25 61 -66 61s-82 -43 -43 -100l-26 -25c-77 54 -38 161 71 161c62 0 118 -36 118 -95c0 -45 -31 -75 -57 -99l-85 -76h152zM581 433l-281 -450l-34 17l281 451z" />
    <glyph glyph-name="dollar.small" unicode="&#xf0db;" horiz-adv-x="406" 
d="M228 529c25 -4 45 -13 60 -24c6 6 12 13 15 28h19v-169h-20c-5 51 -25 109 -74 126v-147l51 -26c52 -27 79 -74 79 -114c0 -77 -59 -130 -130 -135v-85h-36v85c-40 6 -72 25 -91 32c-7 -7 -14 -17 -17 -33h-18v171h20s6 -115 106 -131v168l-42 22c-43 21 -82 66 -82 121
c0 63 52 115 124 115v84h36v-88zM228 106c41 4 72 29 72 75c0 29 -31 53 -72 76v-151zM192 495c-36 -2 -67 -25 -67 -60c0 -31 23 -48 67 -72v132z" />
    <glyph glyph-name="cent.small" unicode="&#xf0dc;" horiz-adv-x="525" 
d="M303 68v-85h-36v85c-115 10 -206 110 -206 232c0 121 91 222 206 232v85h36v-84c44 -5 90 -32 116 -65c7 7 14 32 18 49h19v-174h-20c-18 87 -64 144 -133 151c0 1 0 -388 0 -388c69 7 115 65 133 152h20v-175h-19c-4 19 -11 42 -18 50c-26 -34 -72 -60 -116 -65z
M267 106v387c-96 -11 -125 -114 -125 -193c0 -80 29 -182 125 -194z" />
    <glyph glyph-name="mu.small" unicode="&#xf0dd;" horiz-adv-x="573" 
d="M108 162v135c0 100 -12 116 -79 116v20h229v-20c-66 0 -79 -16 -79 -116v-142c0 -87 48 -127 118 -127s122 40 122 127v142c0 100 -12 116 -79 116v20h204v-20c-66 0 -79 -16 -79 -116v-135c0 -117 -81 -178 -179 -178c-40 0 -77 10 -107 30v-47c0 -100 13 -117 79 -117
v-20h-229v20c67 0 79 17 79 117v195z" />
    <glyph glyph-name="at.small" unicode="&#xf0de;" horiz-adv-x="552" 
d="M484 263c0 104 -79 162 -166 162c-122 0 -216 -106 -216 -222c0 -121 78 -198 190 -198c57 0 106 18 157 49l10 -20c-61 -44 -119 -61 -173 -61c-133 0 -239 99 -239 228c0 142 118 259 261 259c116 0 207 -77 207 -196c0 -96 -77 -182 -139 -182c-27 0 -43 16 -51 34
c-17 -21 -48 -37 -70 -37c-63 0 -92 62 -80 139c13 75 76 136 139 136c20 0 31 -4 47 -12h45l-33 -188c-5 -26 0 -40 20 -40c36 0 91 70 91 149zM352 308c-8 7 -20 16 -41 16c-42 0 -72 -51 -82 -108c-10 -56 -1 -101 39 -101c26 0 55 28 62 66z" />
    <glyph glyph-name="germandbls.small" unicode="&#xf0df;" horiz-adv-x="795" 
d="M751 120c0 -82 -65 -137 -143 -137c-51 0 -94 25 -111 37c-7 -7 -17 -20 -19 -37h-19v172h20c9 -85 63 -133 138 -133c42 0 76 24 76 67c0 35 -28 62 -81 89l-69 35c-48 25 -82 66 -82 122c0 63 52 114 125 114c42 0 73 -15 94 -30c6 6 13 15 16 31h19v-169h-20
c-6 60 -32 131 -105 131c-38 0 -72 -21 -72 -58c0 -35 26 -54 87 -86l68 -35c56 -29 78 -74 78 -113zM353 120c0 -82 -65 -137 -142 -137c-52 0 -94 25 -112 37c-6 -7 -16 -20 -19 -37h-18v172h20c8 -85 62 -133 137 -133c43 0 77 24 77 67c0 35 -28 62 -82 89l-68 35
c-48 25 -83 66 -83 122c0 63 53 114 125 114c42 0 74 -15 95 -30c5 6 13 15 15 31h20v-169h-20c-6 60 -33 131 -105 131c-39 0 -72 -21 -72 -58c0 -35 26 -54 87 -86l67 -35c57 -29 78 -74 78 -113z" />
    <glyph glyph-name="fi.small" unicode="&#xf0e0;" horiz-adv-x="763" 
d="M192 137c0 -100 12 -117 79 -117v-20h-229v20c66 0 79 17 79 117v160c0 100 -13 116 -79 116v20h232h129l9 -120h-21l-5 20c-12 46 -24 64 -116 64h-78v-149h6c100 0 108 12 108 79h20v-195h-20c0 66 -8 79 -108 79h-6v-74zM717 0h-229v20c66 0 79 17 79 117v160
c0 100 -13 116 -79 116v20h229v-20c-67 0 -79 -16 -79 -116v-160c0 -100 12 -117 79 -117v-20z" />
    <glyph glyph-name="fl.small" unicode="&#xf0e1;" horiz-adv-x="884" 
d="M192 137c0 -100 12 -117 79 -117v-20h-229v20c66 0 79 17 79 117v160c0 100 -13 116 -79 116v20h232h129l9 -120h-21l-5 20c-12 46 -24 64 -116 64h-78v-149h6c100 0 108 12 108 79h20v-195h-20c0 66 -8 79 -108 79h-6v-74zM567 297c0 100 -13 116 -79 116v20h229v-20
c-67 0 -79 -16 -79 -116v-144c0 -100 12 -116 79 -116h35c91 0 104 17 116 64l5 20h20l-6 -121h-399v20c66 0 79 17 79 117v160z" />
    <glyph glyph-name="ordfeminine.small" unicode="&#xf0e2;" horiz-adv-x="443" 
d="M140 374l-15 -32c-18 -40 -19 -56 43 -56v-19h-159v19c50 0 59 12 84 67l122 260h18l121 -260c26 -54 35 -67 80 -67v-19h-193v19c57 0 62 16 44 56l-15 32h-130zM255 405l-50 107l-50 -107h100z" />
    <glyph glyph-name="ordmasculine.small" unicode="&#xf0e3;" horiz-adv-x="507" 
d="M453 433c0 -98 -90 -179 -200 -179s-200 81 -200 179c0 99 90 180 200 180s200 -81 200 -180zM378 433c0 65 -32 149 -125 149c-92 0 -124 -84 -124 -149s32 -147 124 -147c93 0 125 82 125 147z" />
    <glyph glyph-name="exclamdown.small" unicode="&#xf0e4;" horiz-adv-x="313" 
d="M194 560c0 -26 -22 -48 -48 -48s-47 22 -47 48s21 48 47 48s48 -22 48 -48zM194 32c0 -26 -22 -49 -48 -49s-47 23 -47 49c0 60 22 126 30 408h34c8 -282 31 -348 31 -408z" />
    <glyph glyph-name="questiondown.small" unicode="&#xf0e5;" horiz-adv-x="504" 
d="M352 560c0 -26 -21 -48 -47 -48s-48 22 -48 48s22 48 48 48s47 -22 47 -48zM457 99c0 -62 -71 -116 -168 -116c-109 0 -213 63 -213 170c0 175 207 193 207 193v94h45v-164c-86 0 -185 -35 -185 -135c0 -80 73 -126 155 -126c74 0 116 36 116 68c0 15 -10 25 -43 25
c-22 0 -40 18 -40 40c0 32 32 44 51 44c34 0 75 -35 75 -93z" />
    <glyph glyph-name="bullet.small" unicode="&#xf0e6;" horiz-adv-x="270" 
d="M135 360c43 0 77 -34 77 -77c0 -42 -34 -76 -77 -76c-42 0 -77 34 -77 76c0 43 35 77 77 77z" />
    <glyph glyph-name="periodcentered.small" unicode="&#xf0e7;" horiz-adv-x="292" 
d="M173 229c0 -26 -22 -48 -48 -48s-47 22 -47 48s21 49 47 49s48 -23 48 -49z" />
    <glyph glyph-name="endash.small" unicode="&#xf0e8;" horiz-adv-x="525" 
d="M525 208h-526v44h526v-44z" />
    <glyph glyph-name="emdash.small" unicode="&#xf0e9;" horiz-adv-x="667" 
d="M667 208h-668v44h668v-44z" />
    <glyph glyph-name="hyphen.small" unicode="&#xf0ea;" 
d="M375 208h-292v44h292v-44z" />
    <glyph glyph-name="guilsinglleft.small" unicode="&#xf0eb;" horiz-adv-x="393" 
d="M324 30l-267 199l267 198l14 -19l-179 -180l179 -179z" />
    <glyph glyph-name="guilsinglright.small" unicode="&#xf0ec;" horiz-adv-x="393" 
d="M69 30l-14 19l179 179l-179 180l14 19l268 -198z" />
    <glyph glyph-name="guillemotleft.small" unicode="&#xf0ed;" horiz-adv-x="520" 
d="M449 75l-224 154l224 153l14 -18l-142 -136l142 -135zM324 30l-267 199l267 198l14 -19l-185 -180l185 -179z" />
    <glyph glyph-name="guillemotright.small" unicode="&#xf0ee;" horiz-adv-x="520" 
d="M196 30l-14 19l186 179l-186 180l14 19l267 -198zM71 75l-13 18l141 135l-141 136l13 18l224 -153z" />
    <glyph glyph-name="asciitilde.small" unicode="&#xf0ef;" horiz-adv-x="423" 
d="M298 227c30 0 48 23 58 62h21c0 -83 -37 -131 -92 -131c-47 0 -125 73 -164 73c-24 0 -48 -29 -56 -62h-21c0 77 39 129 86 129c53 0 120 -71 168 -71z" />
    <glyph glyph-name="zero.small" unicode="&#xf0f0;" horiz-adv-x="475" 
d="M408 217c0 -129 -76 -234 -170 -234c-95 0 -171 105 -171 234c0 128 76 233 171 233c94 0 170 -105 170 -233zM336 217c0 109 -31 196 -98 196c-68 0 -99 -87 -99 -196s31 -196 99 -196c67 0 98 87 98 196z" />
    <glyph glyph-name="one.small" unicode="&#xf0f1;" horiz-adv-x="358" 
d="M293 0h-229v21c67 0 79 17 79 117v153c0 100 -23 110 -95 108v21l166 33v-315c0 -100 13 -117 79 -117v-21z" />
    <glyph glyph-name="two.small" unicode="&#xf0f2;" 
d="M66 0v24l182 164c39 34 62 77 62 113c0 74 -44 107 -104 107c-57 0 -123 -68 -67 -150l-31 -31c-104 72 -49 223 105 223c86 0 166 -51 166 -134c0 -80 -81 -140 -81 -140l-135 -118h229l-11 -58h-315z" />
    <glyph glyph-name="three.small" unicode="&#xf0f3;" 
d="M236 235c-6 -7 -12 -15 -23 -34c-9 -14 -19 -20 -28 -20c-11 0 -22 8 -22 19c0 7 3 15 10 23l135 152h-121c-43 0 -81 -12 -92 -56l-5 -20h-22l23 134h292v-27l-114 -133c72 -20 124 -80 124 -143c0 -79 -73 -147 -172 -147c-96 0 -151 58 -151 89c0 12 9 23 27 23
c35 0 29 -70 124 -70c70 0 101 48 101 105c0 51 -34 98 -86 105z" />
    <glyph glyph-name="four.small" unicode="&#xf0f4;" 
d="M223 165v183l-137 -183h137zM294 128c0 -90 13 -107 79 -107v-21h-229v21c67 0 79 17 79 107h-193v20l238 315h26v-298c44 0 67 13 83 76l5 20h21l-9 -133h-100z" />
    <glyph glyph-name="five.small" unicode="&#xf0f5;" 
d="M391 138c0 -85 -81 -155 -180 -155c-94 0 -144 55 -144 88c0 13 9 24 28 24c35 0 21 -70 116 -70c70 0 109 52 109 113c0 63 -32 115 -101 115c-41 0 -85 -25 -96 -73h-40l26 253h259l-10 -58h-215l-11 -115c23 21 61 34 96 34c95 0 163 -70 163 -156z" />
    <glyph glyph-name="six.small" unicode="&#xf0f6;" 
d="M390 124c0 -77 -68 -141 -152 -141c-57 0 -167 36 -167 208c0 125 65 259 179 259c83 0 138 -61 102 -83c-31 -19 -38 46 -101 46c-72 0 -102 -93 -108 -182c16 18 54 33 89 33c82 0 158 -62 158 -140zM320 124c0 48 -31 101 -88 101c-41 0 -84 -19 -92 -47
c3 -105 49 -158 98 -158c58 0 82 57 82 104z" />
    <glyph glyph-name="seven.small" unicode="&#xf0f7;" horiz-adv-x="433" 
d="M383 433v-27l-176 -383c-15 -32 -27 -52 -56 -44c-15 4 -34 26 -11 65l194 331h-161c-42 0 -80 -12 -91 -56l-5 -20h-23l24 134h305z" />
    <glyph glyph-name="eight.small" unicode="&#xf0f8;" 
d="M394 116c0 -76 -76 -133 -165 -133c-88 0 -165 60 -165 125c0 70 56 104 109 126c-41 26 -86 59 -86 105c0 64 68 111 142 111c75 0 143 -45 143 -102c0 -49 -51 -80 -99 -101c59 -28 121 -61 121 -131zM305 351c0 34 -32 62 -76 62c-43 0 -75 -28 -75 -62
c0 -40 48 -68 87 -88c32 17 64 46 64 88zM328 104c0 55 -66 84 -121 112c-39 -22 -75 -51 -75 -108c0 -49 36 -87 97 -87c62 0 99 38 99 83z" />
    <glyph glyph-name="nine.small" unicode="&#xf0f9;" 
d="M388 243c0 -125 -65 -260 -179 -260c-83 0 -137 61 -101 84c30 19 37 -46 100 -46c72 0 102 92 109 182c-17 -19 -54 -34 -89 -34c-83 0 -159 63 -159 140c0 78 69 141 152 141c57 0 167 -36 167 -207zM319 255c-2 106 -49 158 -98 158c-58 0 -82 -56 -82 -104
c0 -47 31 -101 89 -101c40 0 83 20 91 47z" />
    <glyph glyph-name="ellipsis.allsmall" unicode="&#xf0fa;" horiz-adv-x="896" 
d="M194 40c0 -26 -22 -48 -48 -48s-47 22 -47 48s21 48 47 48s48 -22 48 -48zM486 40c0 -26 -23 -48 -48 -48c-26 0 -47 22 -47 48s21 48 47 48c25 0 48 -22 48 -48zM778 40c0 -26 -23 -48 -49 -48s-46 22 -46 48s20 48 46 48s49 -22 49 -48z" />
    <glyph glyph-name="colon.allsmall" unicode="&#xf0fb;" horiz-adv-x="335" 
d="M215 40c0 -26 -22 -48 -48 -48s-47 22 -47 48s21 48 47 48s48 -22 48 -48zM215 230c0 -26 -22 -48 -48 -48s-47 22 -47 48s21 48 47 48s48 -22 48 -48z" />
    <glyph glyph-name="semicolon.allsmall" unicode="&#xf0fc;" horiz-adv-x="335" 
d="M215 230c0 -26 -22 -48 -48 -48s-47 22 -47 48s21 48 47 48s48 -22 48 -48zM175 -8h-8c-26 0 -47 22 -47 48s21 48 47 48s54 -19 54 -63s-30 -112 -92 -151l-11 12c37 39 51 67 57 106z" />
    <glyph glyph-name="comma.allsmall" unicode="&#xf0fd;" horiz-adv-x="313" 
d="M154 -2c-2 -1 -6 -1 -8 -1c-26 0 -47 23 -47 49s21 48 47 48s54 -19 54 -63s-30 -112 -92 -151l-11 12c37 39 51 67 57 106z" />
    <glyph glyph-name="period.allsmall" unicode="&#xf0fe;" horiz-adv-x="313" 
d="M211 44c0 -28 -26 -52 -57 -52s-55 24 -55 52c0 29 24 53 55 53s57 -24 57 -53z" />
    <glyph glyph-name="quotesinglbase.allsmall" unicode="&#xf0ff;" horiz-adv-x="251" 
d="M73 -106c37 39 51 68 57 107c-2 -1 -6 -1 -8 -1c-26 0 -47 23 -47 48c0 26 21 49 47 49s54 -19 54 -64c0 -44 -30 -111 -92 -151z" />
    </font>
</defs>
</svg>
