<?xml version="1.0" standalone="no"?>
<!DOCTYPE svg PUBLIC "-//W3C//DTD SVG 1.1//EN" "http://www.w3.org/Graphics/SVG/1.1/DTD/svg11.dtd" >
<svg xmlns="http://www.w3.org/2000/svg" xmlns:xlink="http://www.w3.org/1999/xlink" version="1.1">
<metadata>
Created by FontForge 20170910 at Fri Jan  1 01:00:00 1904
 By Jimmy Wärting
Copyright (C) 1996 Emigre Graphics, Designed by Zuzana Licko
</metadata>
<defs>
<font id="MrsEavesSmallCaps" horiz-adv-x="336" >
  <font-face 
    font-family="MrsEavesSmallCaps"
    font-weight="400"
    font-variant="small-caps"
    font-stretch="normal"
    units-per-em="1000"
    panose-1="2 11 5 0 0 0 0 0 0 0"
    ascent="800"
    descent="-200"
    x-height="433"
    cap-height="600.003"
    bbox="-119 -267.001 888.001 816"
    underline-thickness="25"
    underline-position="-86"
    unicode-range="U+0020-2122"
  />
<missing-glyph horiz-adv-x="502" 
d="M-1 0h500v500h-500v-500zM9 10v480h480v-480h-480z" />
    <glyph glyph-name=".notdef" horiz-adv-x="502" 
d="M-1 0h500v500h-500v-500zM9 10v480h480v-480h-480z" />
    <glyph glyph-name="space" unicode=" " horiz-adv-x="233" 
 />
    <glyph glyph-name="exclam" unicode="!" horiz-adv-x="313" 
d="M194 40c0 13.333 -4.66699 24.668 -14 34.001s-20.666 14 -33.999 14c-12.667 0 -23.667 -4.66699 -33 -14s-14 -20.666 -14 -33.999c0 -12.667 4.66699 -23.834 14 -33.501s20.333 -14.5 33 -14.5c13.333 0 24.666 4.66699 33.999 14s14 20.666 14 33.999zM99 568.002
c0 -14 2.00195 -38.332 6.00195 -72.999c6 -46 11 -93 15 -141s7 -112.667 9 -194h34c2 80 5.16699 144.667 9.5 194s9.16602 96.666 14.499 141.999c4.66699 34 7 58 7 72c0 13.333 -4.83301 24.833 -14.5 34.5s-20.834 14.5 -33.501 14.5s-23.667 -4.83301 -33 -14.5
s-14 -21.167 -14 -34.5z" />
    <glyph glyph-name="quotedbl" unicode="&#x22;" horiz-adv-x="412" 
d="M75 568c0 -6 3.00195 -18.001 9.00195 -36.001c7.33301 -21.333 13.5 -42.166 18.5 -62.499s8.5 -45.833 10.5 -76.5h17c2 30 5.66699 55.5 11 76.5s11.666 41.833 18.999 62.5c6.66699 18 10 30 10 36c0 13.333 -4.83301 24.833 -14.5 34.5s-20.834 14.5 -33.501 14.5
s-23.667 -4.83301 -33 -14.5s-14 -21.167 -14 -34.5zM242.002 567.999c0 -6 3.00098 -18.001 9.00098 -36.001c7.33301 -21.333 13.5 -42.166 18.5 -62.499s8.5 -45.833 10.5 -76.5h17c2 30 5.66699 55.5 11 76.5s11.666 41.833 18.999 62.5c6.66699 18 10 30 10 36
c0 12.667 -5 24 -15 34s-21.333 15 -34 15s-23.5 -4.83301 -32.5 -14.5s-13.5 -21.167 -13.5 -34.5z" />
    <glyph glyph-name="numbersign" unicode="#" horiz-adv-x="435" 
d="M301 314l19 111h78l10 53h-79l21 122h-40l-21 -122h-106l21 122h-40l-21 -122h-77l-9 -53h77l-19 -111h-77l-10 -52h79l-21 -123h40l20 123h107l-21 -123h40l20 123h78l9 52h-78zM155 314l19 111h106l-19 -111h-106z" />
    <glyph glyph-name="dollar" unicode="$" horiz-adv-x="498" 
d="M252 582l-0.000976562 101.005h-36v-100c-42 -0.666992 -77.167 -14.167 -105.5 -40.5s-42.5 -57.833 -42.5 -94.5c0 -30.667 9.5 -58 28.5 -82s42.833 -43.333 71.5 -58l48 -25v-227c-24.667 3.33301 -44.5 10.333 -59.5 21s-29.833 24 -44.5 40
c-14 16 -24.333 24 -31 24c-4.66699 0 -9.33398 -1.66699 -14.001 -5c-7.33301 -4.66699 -11 -11.334 -11 -20.001c0 -20 15.167 -40.333 45.5 -61s68.5 -33 114.5 -37v-101h36v99c46 1.33301 84.833 17.166 116.5 47.499s47.5 68.833 47.5 115.5
c0 24.667 -8.16699 48.667 -24.5 72s-39.166 42.666 -68.499 57.999l-71 36v197c17.333 -2.66699 31.333 -7.83398 42 -15.501s21.667 -17.834 33 -30.501c12.667 -13.333 22.334 -20 29.001 -20h4c2 0.666992 3.33301 1 4 1c12 4 18 12 18 24c0 16 -11.833 32.5 -35.5 49.5
s-55.167 27.5 -94.5 31.5zM251.999 54.0049v210c32 -15.333 57 -32 75 -50s27 -37 27 -57c0 -30 -9.5 -54.333 -28.5 -73s-43.5 -28.667 -73.5 -30zM215.999 543.005v-178.999c-31.333 17.333 -53.5 33.666 -66.5 48.999s-19.5 33.333 -19.5 54c0 20 8.5 37.167 25.5 51.5
s37.167 22.5 60.5 24.5z" />
    <glyph glyph-name="percent" unicode="%" horiz-adv-x="763" 
d="M704 128c0 19.333 -3.83203 37.666 -11.499 54.999s-18.334 32.666 -32.001 45.999s-29.667 23.666 -48 30.999s-37.5 11 -57.5 11s-39.167 -3.66699 -57.5 -11s-34.333 -17.666 -48 -30.999s-24.334 -28.666 -32.001 -45.999s-11.5 -35.666 -11.5 -54.999
s3.83301 -37.833 11.5 -55.5s18.5 -33.167 32.5 -46.5s30 -23.666 48 -30.999s37 -11 57 -11s39.167 3.66699 57.5 11s34.333 17.666 48 30.999s24.334 28.833 32.001 46.5s11.5 36.167 11.5 55.5zM591.001 600l-36 18l-383 -618l36 -18zM357.001 473
c0 19.333 -3.83301 37.8301 -11.5 55.4971s-18.5 33.167 -32.5 46.5s-30 23.666 -48 30.999s-37 11 -57 11s-39.167 -3.66699 -57.5 -11s-34.333 -17.666 -48 -30.999s-24.5 -28.833 -32.5 -46.5s-12 -36.167 -12 -55.5s4 -37.666 12 -54.999s18.833 -32.666 32.5 -45.999
s29.667 -23.666 48 -30.999s37.5 -11 57.5 -11s39 3.66699 57 11s34 17.666 48 30.999s24.833 28.833 32.5 46.5s11.5 35.834 11.5 54.501zM638.001 127.997c0 -32 -7 -58.333 -21 -79s-34.667 -31 -62 -31s-47.833 10.167 -61.5 30.5s-20.5 46.833 -20.5 79.5
c0 32 6.83301 58.333 20.5 79s34.167 31 61.5 31s48 -10.333 62 -31s21 -47 21 -79zM290.001 472.997c0 -32 -7 -58.333 -21 -79s-34.333 -31 -61 -31c-27.333 0 -48 10.333 -62 31s-21 47 -21 79c0 32.667 7 59.167 21 79.5s34.667 30.5 62 30.5
c26.667 0 47 -10.333 61 -31s21 -47 21 -79z" />
    <glyph glyph-name="ampersand" unicode="&#x26;" horiz-adv-x="657" 
d="M233 357c-26 46.667 -39 90.667 -39 132c0 22 8.5 42.333 25.5 61s40.167 28 69.5 28c22.667 0 41.5 -7.16699 56.5 -21.5s22.5 -32.5 22.5 -54.5c0 -30 -11 -55 -33 -75s-56 -43.333 -102 -70v0zM385 75c-14 -16.667 -30.6689 -29.666 -50.002 -38.999
s-41.666 -14 -66.999 -14c-38 0 -69.667 12.833 -95 38.5s-38 55.5 -38 89.5c0 30.667 5.83301 56.5 17.5 77.5s28.167 40.833 49.5 59.5c20.667 -29.333 45.834 -60.833 75.501 -94.5s65.5 -72.834 107.5 -117.501zM408.998 50.001
c22 -21.333 43.501 -37.834 64.501 -49.501s43.833 -17.5 68.5 -17.5c17.333 0 35.166 5.16699 53.499 15.5s34.166 24.5 47.499 42.5l-17 17c-23.333 -23.333 -45 -35 -65 -35c-17.333 0 -36.5 7.33301 -57.5 22s-42.167 34 -63.5 58
c10.667 22.667 18.334 51.667 23.001 87c2.66699 19.333 5.66699 34.333 9 45s8.5 19.334 15.5 26.001s16.667 11.5 29 14.5s29.166 4.5 50.499 4.5v21h-226v-21c34.667 0 58.334 -4 71.001 -12s19 -23.333 19 -46c0 -8 -0.666992 -18.667 -2 -32
c-2 -20 -6.66699 -40 -14 -60c-79.333 87.333 -133.666 152.666 -162.999 195.999c12.667 8.66699 32 20.667 58 36c41.333 24 72 45.667 92 65s30 44.333 30 75c0 33.333 -14 60.833 -42 82.5s-61.667 32.5 -101 32.5c-22.667 0 -44 -3.5 -64 -10.5s-38 -17.167 -54 -30.5
c-32.667 -27.333 -49 -61.666 -49 -102.999c0 -42.667 18.333 -92.667 55 -150c-36 -22.667 -64 -46.667 -84 -72s-30 -56.333 -30 -93c0 -28.667 5.5 -54.167 16.5 -76.5s26.167 -40.833 45.5 -55.5s40.666 -25.5 63.999 -32.5s47 -10.5 71 -10.5
c63.333 0 113 22.333 149 67z" />
    <glyph glyph-name="quotesingle" unicode="'" horiz-adv-x="245" 
d="M75 568c0 -6 3.00195 -18.001 9.00195 -36.001c7.33301 -21.333 13.5 -42.166 18.5 -62.499s8.5 -45.833 10.5 -76.5h17c2 30 5.66699 55.5 11 76.5s11.666 41.833 18.999 62.5c6.66699 18 10 30 10 36c0 13.333 -4.83301 24.833 -14.5 34.5s-20.834 14.5 -33.501 14.5
s-23.667 -4.83301 -33 -14.5s-14 -21.167 -14 -34.5z" />
    <glyph glyph-name="parenleft" unicode="(" horiz-adv-x="358" 
d="M330 -90l-0.999023 1c-22 24 -41.667 47.167 -59 69.5s-35.166 49.333 -53.499 81s-33.5 67.5 -45.5 107.5s-18 82 -18 126s6 86 18 126s27.167 75.833 45.5 107.5s36.166 58.667 53.499 81s37 45.5 59 69.5l1 1l-23 21c-69.333 -57.333 -124 -119.333 -164 -186
s-60 -140 -60 -220s20.167 -153.5 60.5 -220.5s95.166 -128.833 164.499 -185.5z" />
    <glyph glyph-name="parenright" unicode=")" horiz-adv-x="358" 
d="M275 295c0 80 -19.833 153.333 -59.5 220s-94.167 128.667 -163.5 186l-24 -21l2 -2c21.333 -24 40.833 -47 58.5 -69s35.667 -49 54 -81s33.5 -67.833 45.5 -107.5s18 -81.5 18 -125.5s-6 -85.833 -18 -125.5s-27.167 -75.5 -45.5 -107.5s-36.333 -59 -54 -81
s-37.167 -45 -58.5 -69l-2 -2l23 -21c69.333 56.667 124 118.5 164 185.5s60 140.5 60 220.5z" />
    <glyph glyph-name="asterisk" unicode="*" horiz-adv-x="407" 
d="M194 414c-1.33301 -20.667 -4.16699 -37.8291 -8.5 -51.4961s-10.166 -27.5 -17.499 -41.5c-7.33301 -12.667 -11 -22.334 -11 -29.001c0 -13.333 4.5 -24.833 13.5 -34.5s19.833 -14.5 32.5 -14.5s24 5 34 15s15 21.333 15 34c0 6 -3.66699 16 -11 30
c-8 14 -14.333 27.667 -19 41s-8 30.666 -10 51.999c18 -11.333 31.833 -22.5 41.5 -33.5s18.5 -23.167 26.5 -36.5c8 -12.667 14.667 -20.667 20 -24c8 -4.66699 16.333 -7 25 -7c17.333 0 30.666 7.66699 39.999 23c4 7.33301 6 15 6 23c0 18.667 -7.66699 33 -23 43
c-5.33301 2.66699 -15.666 4.33398 -30.999 5.00098c-15.333 0 -30.166 1.33301 -44.499 4s-31.166 8.66699 -50.499 18c18.667 9.33301 35.167 15.333 49.5 18s29.166 4 44.499 4c16 0.666992 26.667 2.66699 32 6c15.333 9.33301 23 23.333 23 42
c0 8.66699 -2 16.334 -6 23.001c-9.33301 15.333 -22.666 23 -39.999 23c-8.66699 0 -17 -2.33301 -25 -7c-5.33301 -3.33301 -12 -11.333 -20 -24c-8 -13.333 -16.667 -25.333 -26 -36s-23 -22 -41 -34c1.33301 21.333 4.5 38.833 9.5 52.5s11.167 27.5 18.5 41.5
c7.33301 13.333 11 23 11 29c0 12.667 -5 24 -15 34s-21.333 15 -34 15s-23.5 -4.83301 -32.5 -14.5s-13.5 -21.167 -13.5 -34.5c0 -6 3.66699 -15.667 11 -29c7.33301 -14 13.166 -27.667 17.499 -41s7.16602 -30.666 8.49902 -51.999c-18 11.333 -31.667 22.5 -41 33.5
s-18 23.5 -26 37.5c-7.33301 12.667 -13.666 20.667 -18.999 24c-7.33301 4.66699 -15.333 7 -24 7c-18.667 0 -32.667 -8.33301 -42 -25c-4.66699 -6.66699 -7 -14 -7 -22c0 -17.333 8.33301 -31.333 25 -42c5.33301 -2.66699 15.333 -4.33398 30 -5.00098
c15.333 -0.666992 30.166 -2.33398 44.499 -5.00098s31.166 -9 50.499 -19c-19.333 -9.33301 -35.833 -15.333 -49.5 -18s-28.5 -4.33398 -44.5 -5.00098c-15.333 -1.33301 -25.666 -3.33301 -30.999 -6c-16.667 -9.33301 -25 -23.333 -25 -42c0 -8 2.33301 -15.333 7 -22
c9.33301 -16.667 23.333 -25 42 -25c8.66699 0 16.667 2.33301 24 7c5.33301 3.33301 11.666 11.333 18.999 24c8 13.333 16.667 25.666 26 36.999s23 22.666 41 33.999z" />
    <glyph glyph-name="plus" unicode="+" horiz-adv-x="458" 
d="M251 243v157h-44v-157h-157v-44h157v-157h44v157h157v44h-157z" />
    <glyph glyph-name="comma" unicode="," horiz-adv-x="313" 
d="M154 -2c-3.33301 -20 -9.16602 -37.835 -17.499 -53.502s-21.5 -33.167 -39.5 -52.5l11 -12c29.333 18 52 41.667 68 71s24 56 24 80c0 20.667 -5.33301 36.334 -16 47.001s-23.334 16 -38.001 16c-12.667 0 -23.667 -4.66699 -33 -14s-14 -20.666 -14 -33.999
s4.66699 -24.833 14 -34.5s20.333 -14.5 33 -14.5c4 0 6.66699 0.333008 8 1z" />
    <glyph glyph-name="hyphen" unicode="-" horiz-adv-x="458" 
d="M375 199v44h-292v-44h292z" />
    <glyph glyph-name="period" unicode="." horiz-adv-x="313" 
d="M211 44c0 14.667 -5.66699 27.167 -17 37.5s-24.666 15.5 -39.999 15.5s-28.333 -5.16699 -39 -15.5s-16 -22.833 -16 -37.5c0 -14 5.33301 -26.167 16 -36.5s23.667 -15.5 39 -15.5s28.666 5.16699 39.999 15.5s17 22.5 17 36.5z" />
    <glyph glyph-name="slash" unicode="/" horiz-adv-x="181" 
d="M300 600l-36 18l-383 -618l36 -18z" />
    <glyph glyph-name="zero" unicode="0" horiz-adv-x="467" 
d="M404 217c0 31.333 -4.33301 61.167 -13 89.5s-21 53.333 -37 75s-34.333 38.5 -55 50.5s-42.667 18 -66 18c-22.667 0 -44.5 -6 -65.5 -18s-39.333 -28.667 -55 -50s-27.834 -46.333 -36.501 -75s-13 -58.667 -13 -90s4.33301 -61.333 13 -90s21 -53.834 37 -75.501
s34.333 -38.5 55 -50.5s42.334 -18 65.001 -18c23.333 0 45.333 6 66 18s39 28.833 55 50.5s28.333 46.834 37 75.501s13 58.667 13 90zM332 217.001c0 -57.333 -8.33301 -104.333 -25 -141s-41.334 -55 -74.001 -55c-32 0 -56.333 18.333 -73 55s-25 83.667 -25 141
s8.33301 104.333 25 141s41 55 73 55c32.667 0 57.334 -18.167 74.001 -54.5s25 -83.5 25 -141.5z" />
    <glyph glyph-name="one" unicode="1" horiz-adv-x="467" 
d="M348 0l-0.00292969 20.999c-18 0 -32 1.5 -42 4.5s-17.667 8.5 -23 16.5s-9.16602 19.5 -11.499 34.5s-3.5 35.5 -3.5 61.5v315l-166 -33v-21c38.667 0 64.334 -6.66699 77.001 -20s19 -42.666 19 -87.999v-153c0 -26 -1.16699 -46.5 -3.5 -61.5
s-6.16602 -26.5 -11.499 -34.5s-13 -13.5 -23 -16.5s-24 -4.5 -42 -4.5v-21h230z" />
    <glyph glyph-name="two" unicode="2" horiz-adv-x="467" 
d="M70 0h315l11 58h-228l135 118c3.33301 2.66699 8.83301 7.5 16.5 14.5s16.5 16.667 26.5 29s18.667 27 26 44s11 34.5 11 52.5c0 40 -16.5 72.333 -49.5 97s-71.833 37 -116.5 37c-47.333 0 -85.5 -12.667 -114.5 -38s-43.5 -55.333 -43.5 -90
c0 -38.667 18 -70.334 54 -95.001l30 31c-14 20.667 -21 41.334 -21 62.001c0 24.667 9.16699 45.5 27.5 62.5s38.5 25.5 60.5 25.5c31.333 0 56.5 -9 75.5 -27s28.5 -44.667 28.5 -80c0 -18 -5.33301 -37 -16 -57s-25.667 -38.667 -45 -56l-183 -164v-24z" />
    <glyph glyph-name="three" unicode="3" horiz-adv-x="467" 
d="M240 235c26 -3.33301 46.834 -14.9971 62.501 -34.9971s23.5 -43.333 23.5 -70c0 -30.667 -8.5 -55.834 -25.5 -75.501s-42.167 -29.5 -75.5 -29.5c-26 0 -45.5 4.16699 -58.5 12.5s-24.833 20.166 -35.5 35.499c-6 7.33301 -11 12.833 -15 16.5s-9 5.5 -15 5.5
c-18 0 -27 -7.66699 -27 -23c0 -18.667 13.333 -37.334 40 -56.001c13.333 -10 29.5 -18 48.5 -24s39.833 -9 62.5 -9c24 0 46.667 3.83301 68 11.5s39.666 18.334 54.999 32.001s27.333 29.5 36 47.5s13 36.667 13 56c0 31.333 -11.667 60.5 -35 87.5s-53 45.5 -89 55.5
l115 133v27h-293l-23 -134h22l5 20c5.33301 20.667 16 35.167 32 43.5s36 12.5 60 12.5h121l-135 -152c-6 -6.66699 -9 -14.334 -9 -23.001c0 -5.33301 2.16699 -9.83301 6.5 -13.5s9.16602 -5.5 14.499 -5.5c10 0 19.333 6.66699 28 20c4.66699 8 8.83398 14.667 12.501 20
s7.16699 10 10.5 14z" />
    <glyph glyph-name="four" unicode="4" horiz-adv-x="467" 
d="M228 165h-138l138 183v-183zM298 128h100l9 133h-21l-5 -20c-7.33301 -30.667 -17 -51 -29 -61s-30 -15 -54 -15v298h-26l-238 -315v-20h194c0 -44.667 -5 -73.667 -15 -87s-31.667 -20 -65 -20v-21h230v21c-33.333 0 -55 6.66699 -65 20s-15 42.333 -15 87z" />
    <glyph glyph-name="five" unicode="5" horiz-adv-x="467" 
d="M395 138c0 43.333 -15.5 80.168 -46.5 110.501s-69.833 45.5 -116.5 45.5c-18 0 -35.667 -3 -53 -9s-31.666 -14.333 -42.999 -25l12 115h215l10 58h-260l-25 -253h39c5.33301 22.667 17.166 40.5 35.499 53.5s38.5 19.5 60.5 19.5c33.333 0 58.5 -10.833 75.5 -32.5
s25.5 -49.167 25.5 -82.5c0 -32 -9.66699 -58.833 -29 -80.5s-46 -32.5 -80 -32.5c-26 0 -45 4.16699 -57 12.5s-22.667 20.166 -32 35.499c-4.66699 8 -8.83398 13.667 -12.501 17s-8.5 5 -14.5 5c-18.667 0 -28 -8 -28 -24c0 -19.333 13.333 -38.833 40 -58.5
s61.334 -29.5 104.001 -29.5c24 0 47 4 69 12s41.333 19.167 58 33.5s29.667 31 39 50s14 38.833 14 59.5z" />
    <glyph glyph-name="six" unicode="6" horiz-adv-x="467" 
d="M394 124c0 18.667 -4.33105 36.6641 -12.998 53.9971s-20.334 32.333 -35.001 45s-31.667 22.667 -51 30s-39 11 -59 11c-17.333 0 -34.5 -3.16699 -51.5 -9.5s-29.5 -14.166 -37.5 -23.499c1.33301 24 4.5 46.667 9.5 68s11.833 40.5 20.5 57.5s19.5 30.667 32.5 41
s28.167 15.5 45.5 15.5c14.667 0 26.667 -2.83301 36 -8.5s18.666 -13.5 27.999 -23.5c11.333 -11.333 20 -17 26 -17c3.33301 0 7 1 11 3c7.33301 4.66699 11 11 11 19c0 14.667 -11.167 29 -33.5 43s-48.833 21 -79.5 21c-27.333 0 -52.166 -7.33301 -74.499 -22
s-41.333 -34.5 -57 -59.5s-27.5 -53 -35.5 -84s-12 -62.167 -12 -93.5c0 -40.667 5.66699 -74.667 17 -102s25.666 -48.666 42.999 -63.999s35.5 -26.166 54.5 -32.499s36.833 -9.5 53.5 -9.5c20.667 0 40.167 3.66699 58.5 11s34.333 17.5 48 30.5s24.5 28.167 32.5 45.5
s12 35.333 12 54zM324.002 123.997c0 -26.667 -6.83203 -50.667 -20.499 -72s-33.834 -32 -60.501 -32s-49.5 13.833 -68.5 41.5s-29.167 66.5 -30.5 116.5c4.66699 14 16 25.333 34 34s37.333 13 58 13c26.667 0 48 -10.333 64 -31s24 -44 24 -70z" />
    <glyph glyph-name="seven" unicode="7" horiz-adv-x="467" 
d="M412 433h-330l-24 -134h23l5 20c5.33301 20.667 16 35.167 32 43.5s36 12.5 60 12.5h185l-210 -331c-8 -12 -12 -23.333 -12 -34c0 -8 2.16699 -14.833 6.5 -20.5s9.5 -9.16699 15.5 -10.5c4 -1.33301 8 -2 12 -2c9.33301 0 16.833 3.33301 22.5 10s12.5 18 20.5 34l1 2
l193 383v27z" />
    <glyph glyph-name="eight" unicode="8" horiz-adv-x="467" 
d="M398 116c0 31.333 -10.5 56.499 -31.5 75.499s-50.5 37.5 -88.5 55.5c28.667 12.667 52.167 27.167 70.5 43.5s27.5 35.5 27.5 57.5c0 28 -14.333 52 -43 72s-62 30 -100 30s-71.167 -10.667 -99.5 -32s-42.5 -47.666 -42.5 -78.999c0 -20.667 8 -39.334 24 -56.001
s37 -33 63 -49c-32.667 -13.333 -59.167 -29.666 -79.5 -48.999s-30.5 -45 -30.5 -77c0 -16 4.33301 -31.5 13 -46.5s20.834 -28.5 36.501 -40.5s33.5 -21.333 53.5 -28s40.667 -10 62 -10c45.333 0 84.166 12.833 116.499 38.5s48.5 57.167 48.5 94.5zM309 350.999
c0 -19.333 -5.99902 -36.5 -17.999 -51.5s-27.333 -27.167 -46 -36.5c-26 13.333 -47 26.833 -63 40.5s-24 29.5 -24 47.5c0 17.333 7.16699 32 21.5 44s32.166 18 53.499 18c22 0 40.167 -6 54.5 -18s21.5 -26.667 21.5 -44zM332.001 103.999
c0 -23.333 -8.99902 -42.999 -26.999 -58.999s-42 -24 -72 -24s-53.667 8.16699 -71 24.5s-26 37.166 -26 62.499c0 26 6.66699 47.167 20 63.5s31.666 31.166 54.999 44.499l12 -6c35.333 -17.333 62.333 -33.666 81 -48.999s28 -34.333 28 -57z" />
    <glyph glyph-name="nine" unicode="9" horiz-adv-x="467" 
d="M393 243c0 40.667 -5.66797 74.666 -17.001 101.999s-25.666 48.5 -42.999 63.5s-35.333 25.667 -54 32s-36.667 9.5 -54 9.5c-20.667 0 -40.167 -3.66699 -58.5 -11s-34.5 -17.5 -48.5 -30.5s-25 -28 -33 -45s-12 -35.167 -12 -54.5c0 -18.667 4.33301 -36.5 13 -53.5
s20.5 -32 35.5 -45s32 -23.167 51 -30.5s38.833 -11 59.5 -11c17.333 0 34.333 3.33301 51 10s29.334 14.667 38.001 24c-2 -23.333 -5.5 -45.833 -10.5 -67.5s-11.833 -41.167 -20.5 -58.5s-19.334 -31 -32.001 -41s-27.667 -15 -45 -15c-14.667 0 -26.667 2.83301 -36 8.5
s-19 13.834 -29 24.501c-10.667 11.333 -19 17 -25 17c-3.33301 0 -7 -1.33301 -11 -4c-7.33301 -4.66699 -11 -11 -11 -19c0 -14.667 11 -29.167 33 -43.5s48.333 -21.5 79 -21.5c28 0 53.167 7.33301 75.5 22s41.333 34.667 57 60s27.5 53.5 35.5 84.5s12 62.167 12 93.5z
M322.999 254.999c-4 -13.333 -15 -24.5 -33 -33.5s-37.333 -13.5 -58 -13.5c-27.333 0 -49 10.333 -65 31s-24 44 -24 70c0 27.333 7 51.5 21 72.5s34.333 31.5 61 31.5s49.5 -13.833 68.5 -41.5s28.833 -66.5 29.5 -116.5z" />
    <glyph glyph-name="colon" unicode=":" horiz-adv-x="335" 
d="M215 40c0 13.333 -4.66699 24.668 -14 34.001s-20.666 14 -33.999 14c-12.667 0 -23.667 -4.66699 -33 -14s-14 -20.666 -14 -33.999c0 -12.667 4.66699 -23.834 14 -33.501s20.333 -14.5 33 -14.5c13.333 0 24.666 4.66699 33.999 14s14 20.666 14 33.999zM215 230.002
c0 13.333 -4.66699 24.668 -14 34.001s-20.666 14 -33.999 14c-12.667 0 -23.667 -4.66699 -33 -14s-14 -20.666 -14 -33.999c0 -12.667 4.66699 -23.834 14 -33.501s20.333 -14.5 33 -14.5c13.333 0 24.666 4.66699 33.999 14s14 20.666 14 33.999z" />
    <glyph glyph-name="semicolon" unicode=";" horiz-adv-x="335" 
d="M215 230c0 13.333 -4.66699 24.668 -14 34.001s-20.666 14 -33.999 14c-12.667 0 -23.667 -4.66699 -33 -14s-14 -20.666 -14 -33.999c0 -12.667 4.66699 -23.834 14 -33.501s20.333 -14.5 33 -14.5c13.333 0 24.666 4.66699 33.999 14s14 20.666 14 33.999z
M175 -7.99805c-3.33301 -20 -9.16602 -37.834 -17.499 -53.501s-21.5 -33.167 -39.5 -52.5l11 -12c29.333 18 52 41.667 68 71s24 56 24 80c0 20.667 -5.33301 36.334 -16 47.001s-23.334 16 -38.001 16c-12.667 0 -23.667 -4.66699 -33 -14s-14 -20.666 -14 -33.999
c0 -12.667 4.66699 -23.834 14 -33.501s20.333 -14.5 33 -14.5h8z" />
    <glyph glyph-name="less" unicode="&#x3c;" horiz-adv-x="500" 
d="M428 68l-233 200l233 200l-15 17l-330 -217l330 -218z" />
    <glyph glyph-name="equal" unicode="=" horiz-adv-x="458" 
d="M375 258v45h-292v-45h292zM375 133v45h-292v-45h292z" />
    <glyph glyph-name="greater" unicode="&#x3e;" horiz-adv-x="500" 
d="M417 268l-329 217l-15 -17l232 -200l-232 -200l15 -18z" />
    <glyph glyph-name="question" unicode="?" horiz-adv-x="504" 
d="M273 40c0 13.333 -4.66699 24.668 -14 34.001s-20.666 14 -33.999 14c-12.667 0 -23.667 -4.66699 -33 -14s-14 -20.666 -14 -33.999c0 -12.667 4.66699 -23.834 14 -33.501s20.333 -14.5 33 -14.5c13.333 0 24.666 4.66699 33.999 14s14 20.666 14 33.999zM388 459.002
c0 -24 -5.33398 -44.668 -16.001 -62.001s-25 -31.333 -43 -42s-37.833 -18.5 -59.5 -23.5s-43.834 -7.5 -66.501 -7.5v-164h44v94c8.66699 0.666992 22.667 3.16699 42 7.5s42 13.166 68 26.499s48.667 33.333 68 60s29 60 29 100c0 25.333 -5.83301 48.666 -17.5 69.999
s-27.5 39.333 -47.5 54s-42.833 25.834 -68.5 33.501s-52.167 11.5 -79.5 11.5c-47.333 0 -87.166 -11.333 -119.499 -34s-48.5 -50 -48.5 -82c0 -27.333 7.83301 -49.666 23.5 -66.999s32.834 -26 51.501 -26c12.667 0 24.334 3.83301 35.001 11.5s16 18.834 16 33.501
c0 10.667 -4 19.834 -12 27.501s-17.333 11.5 -28 11.5c-15.333 0 -26.333 2.33301 -33 7s-10 11 -10 19c0 16.667 10.667 32 32 46s49.666 21 84.999 21c42.667 0 79.167 -11.333 109.5 -34s45.5 -53.334 45.5 -92.001z" />
    <glyph glyph-name="at" unicode="@" horiz-adv-x="708" 
d="M426 246c-4.66699 -26.667 -15.833 -48.834 -33.5 -66.501s-36.167 -26.5 -55.5 -26.5c-21.333 0 -37 8.33301 -47 25s-15 39.334 -15 68.001c0 15.333 1.33301 32.333 4 51c7.33301 42 21.5 77.667 42.5 107s45.5 44 73.5 44c14.667 0 27.167 -2.5 37.5 -7.5
s18.5 -10.833 24.5 -17.5zM508.001 153c-22.667 0 -34.0039 11.9971 -34.0039 35.9971c0 7.33301 0.666992 15.333 2 24l44 250h-56c-10.667 6 -20.667 10.333 -30 13s-20.666 4 -33.999 4c-20.667 0 -41.167 -4.66699 -61.5 -14s-39 -22.5 -56 -39.5
s-31.333 -36.667 -43 -59s-19.834 -45.833 -24.501 -70.5c-2.66699 -16 -4 -31.667 -4 -47c0 -40.667 9.5 -73.667 28.5 -99s45.5 -38 79.5 -38c16 0 33.833 5.5 53.5 16.5s34.834 23.833 45.501 38.5c2.66699 -14 9.83398 -26 21.501 -36s26.5 -15 44.5 -15
c20.667 0 42 6.66699 64 20s42.333 31.5 61 54.5s33.5 49.333 44.5 79s16.5 60.5 16.5 92.5c0 38.667 -7 74.334 -21 107.001s-33.667 60.667 -59 84s-55 41.166 -89 53.499s-70.667 18.5 -110 18.5c-47.333 0 -92.333 -9 -135 -27s-80.334 -43.333 -113.001 -76
s-58.167 -70.334 -76.5 -113.001s-27.5 -87.667 -27.5 -135c0 -42.667 8.33301 -82.667 25 -120s39.834 -70 69.501 -98s64.167 -49.667 103.5 -65s81 -23 125 -23c38 0 76.333 6.5 115 19.5s77.334 33.167 116.001 60.5l-11 19c-34 -21.333 -68.333 -37.5 -103 -48.5
s-71 -16.5 -109 -16.5c-38.667 0 -74.167 6.5 -106.5 19.5s-60.333 31.5 -84 55.5s-42 53 -55 87s-19.5 71.667 -19.5 113c0 40 7.66699 78.667 23 116s36.833 70.5 64.5 99.5s59.834 51.833 96.501 68.5s75.667 25 117 25c30.667 0 60 -5 88 -15s52.833 -24.667 74.5 -44
s38.667 -43.166 51 -71.499s18.5 -60.166 18.5 -95.499c0 -26.667 -4.33301 -52.667 -13 -78s-19.667 -47.666 -33 -66.999s-27.5 -34.666 -42.5 -45.999s-28.833 -17 -41.5 -17z" />
    <glyph glyph-name="A" unicode="A" horiz-adv-x="617" 
d="M166 208h241.999l48 -111c6.66699 -14.667 10 -26.667 10 -36c0 -14 -7 -24.167 -21 -30.5s-36.333 -9.5 -67 -9.5v-21h277v21c-20.667 0 -36.834 1.16699 -48.501 3.5s-21.167 6.33301 -28.5 12s-13.666 13.334 -18.999 23.001s-12 23.834 -20 42.501l-3 6l-221 509h-13
l-220 -509l-3 -6c-8 -18.667 -14.667 -32.834 -20 -42.501s-11.666 -17.334 -18.999 -23.001s-17 -9.66699 -29 -12s-28.333 -3.5 -49 -3.5v-21h234v21c-30.667 0 -53 3.16699 -67 9.5s-21 16.5 -21 30.5c0 9.33301 3.33301 21.333 10 36zM390.999 245h-209l104 241z" />
    <glyph glyph-name="B" unicode="B" horiz-adv-x="598" 
d="M334 37h-26.001c-22 0 -39 1.5 -51 4.5s-21.167 8.33301 -27.5 16s-10.666 19 -12.999 34s-3.5 35.5 -3.5 61.5v148h121c41.333 0 73 -12.5 95 -37.5s33 -56.833 33 -95.5c0 -38 -11 -69.333 -33 -94s-53.667 -37 -95 -37zM212.999 563h89c36 0 63.333 -10.667 82 -32
s28 -48.333 28 -81s-9.33301 -59.5 -28 -80.5s-46 -31.5 -82 -31.5h-89v225zM421.999 326c23.333 14 42.167 31.8359 56.5 53.5029s21.5 45.167 21.5 70.5c0 43.333 -16.833 79.166 -50.5 107.499s-81.167 42.5 -142.5 42.5h-269v-21c22 0 39 -1.5 51 -4.5
s21.167 -8.33301 27.5 -16s10.666 -18.834 12.999 -33.501s3.5 -35.334 3.5 -62.001v-325c0 -26.667 -1.16699 -47.334 -3.5 -62.001s-6.66602 -26 -12.999 -34s-15.5 -13.5 -27.5 -16.5s-29 -4.5 -51 -4.5v-21h297c67.333 0 120 15.833 158 47.5s57 71.834 57 120.501
c0 36 -11.667 68.333 -35 97s-54.333 49 -93 61z" />
    <glyph glyph-name="C" unicode="C" horiz-adv-x="692" 
d="M618 11l-0.000976562 220.002h-20c-14 -64.667 -39.833 -115.5 -77.5 -152.5s-83.834 -55.5 -138.501 -55.5c-38 0 -71 8.16699 -99 24.5s-50.833 38.166 -68.5 65.499s-30.5 57.166 -38.5 89.499s-12 64.833 -12 97.5s4 65.334 12 98.001s20.667 62.667 38 90
s40.166 49.166 68.499 65.499s61.5 24.5 99.5 24.5c54.667 0 100.834 -18.5 138.501 -55.5s63.5 -88.167 77.5 -153.5h20v220h-20c-2 -11.333 -6.33301 -22.333 -13 -33s-13.667 -18.667 -21 -24c-26 27.333 -54.833 48.333 -86.5 63s-64.834 22 -99.501 22
c-41.333 0 -80.666 -8.16699 -117.999 -24.5s-70.166 -39.166 -98.499 -68.499s-50.5 -63.333 -66.5 -102s-24 -79.334 -24 -122.001s8 -83.334 24 -122.001s38.167 -72.667 66.5 -102s61.166 -52.166 98.499 -68.499s76.666 -24.5 117.999 -24.5
c34.667 0 67.834 7.33301 99.501 22s60.5 35.667 86.5 63c6.66699 -4.66699 13.334 -12.5 20.001 -23.5s11.334 -22.167 14.001 -33.5h20z" />
    <glyph glyph-name="D" unicode="D" horiz-adv-x="713" 
d="M38 0l271 0.00683594c56.667 0 106.167 7.66699 148.5 23s77.166 36.666 104.499 63.999s47.666 59.166 60.999 95.499s20 75.5 20 117.5s-6.66699 81.167 -20 117.5s-33.666 68.166 -60.999 95.499s-62.166 48.666 -104.499 63.999s-91.833 23 -148.5 23h-271v-21
c22 0 39 -1.5 51 -4.5s21.167 -8.33301 27.5 -16s10.666 -18.834 12.999 -33.501s3.5 -35.334 3.5 -62.001v-325c0 -26.667 -1.16699 -47.334 -3.5 -62.001s-6.66602 -26 -12.999 -34s-15.5 -13.5 -27.5 -16.5s-29 -4.5 -51 -4.5v-21zM213 563.007l97 -0.00292969
c46.667 0 85.667 -7.66699 117 -23s55.666 -35.833 72.999 -61.5s29.5 -53.667 36.5 -84s10.5 -61.833 10.5 -94.5s-3.5 -64.167 -10.5 -94.5s-19.167 -58.166 -36.5 -83.499s-41.666 -45.833 -72.999 -61.5s-70.333 -23.5 -117 -23.5h-4c-22 0 -38.833 1.5 -50.5 4.5
s-20.5 8.33301 -26.5 16s-10.167 18.834 -12.5 33.501s-3.5 35.334 -3.5 62.001v410z" />
    <glyph glyph-name="E" unicode="E" horiz-adv-x="583" 
d="M38 0l490 -0.00195312l8 133h-21l-5 -20c-7.33301 -29.333 -17.833 -49.333 -31.5 -60s-41.834 -16 -84.501 -16h-86c-22 0 -39 1.5 -51 4.5s-21.167 8.33301 -27.5 16s-10.666 19 -12.999 34s-3.5 35.5 -3.5 61.5v146h50c26.667 0 47.334 -1.16699 62.001 -3.5
s25.834 -6.66602 33.501 -12.999s13 -15.666 16 -27.999s4.5 -29.5 4.5 -51.5h21v229h-21c0 -22 -1.5 -39.167 -4.5 -51.5s-8.33301 -21.666 -16 -27.999s-18.834 -10.666 -33.501 -12.999s-35.334 -3.5 -62.001 -3.5h-50v227h148c42.667 0 70.667 -5.16699 84 -15.5
s24 -30.166 32 -59.499l5 -20h21l-9 132h-456v-21c22 0 39 -1.5 51 -4.5s21.167 -8.33301 27.5 -16s10.666 -18.834 12.999 -33.501s3.5 -35.334 3.5 -62.001v-325c0 -26.667 -1.16699 -47.334 -3.5 -62.001s-6.66602 -26 -12.999 -34s-15.5 -13.5 -27.5 -16.5
s-29 -4.5 -51 -4.5v-21z" />
    <glyph glyph-name="F" unicode="F" horiz-adv-x="536" 
d="M213 563l165 -0.00292969c42.667 0 70.667 -5.16699 84 -15.5s23.666 -30.166 30.999 -59.499l5 -20h21l-8 132h-473v-21c22 0 39 -1.5 51 -4.5s21.167 -8.33301 27.5 -16s10.666 -18.834 12.999 -33.501s3.5 -35.334 3.5 -62.001v-325
c0 -26.667 -1.16699 -47.334 -3.5 -62.001s-6.66602 -26 -12.999 -34s-15.5 -13.5 -27.5 -16.5s-29 -4.5 -51 -4.5v-21h270v21c-22 0 -39 1.5 -51 4.5s-21.167 8.5 -27.5 16.5s-10.666 19.333 -12.999 34s-3.5 35.334 -3.5 62.001v161h50
c26.667 0 47.334 -1.16699 62.001 -3.5s25.834 -6.66602 33.501 -12.999s13 -15.666 16 -27.999s4.5 -29.5 4.5 -51.5h21v229h-21c0 -22 -1.5 -39.167 -4.5 -51.5s-8.33301 -21.666 -16 -27.999s-18.834 -10.666 -33.501 -12.999s-35.334 -3.5 -62.001 -3.5h-50v227z" />
    <glyph glyph-name="G" unicode="G" horiz-adv-x="725" 
d="M565 163c0 -42.667 -15.999 -76.1699 -47.999 -100.503s-71 -36.5 -117 -36.5c-44 0 -81.5 8 -112.5 24s-55.5 37.333 -73.5 64s-31 55.834 -39 87.501s-12 64.5 -12 98.5c0 32.667 4 65.334 12 98.001s20.667 62.667 38 90s40.166 49.166 68.499 65.499
s61.5 24.5 99.5 24.5c55.333 0 102 -18.5 140 -55.5s63.667 -88.167 77 -153.5h20v220h-20c-2 -11.333 -6.33301 -22.333 -13 -33s-13.667 -18.667 -21 -24c-26 27.333 -54.833 48.333 -86.5 63s-64.834 22 -99.501 22c-41.333 0 -80.666 -8.16699 -117.999 -24.5
s-70.166 -39.166 -98.499 -68.499s-50.5 -63.333 -66.5 -102s-24 -79.334 -24 -122.001s8 -83.334 24 -122.001s38.167 -72.667 66.5 -102s61.166 -52.166 98.499 -68.499s76.666 -24.5 117.999 -24.5c22.667 0 42.834 2 60.501 6s39.5 10.333 65.5 19
c25.333 8.66699 47.833 15.334 67.5 20.001s41.834 7 66.501 7v76c0 26.667 1.16699 47.334 3.5 62.001s6.66602 26 12.999 34s15.5 13.5 27.5 16.5s29 4.5 51 4.5v20h-262v-20c34 0 58.167 -5.33301 72.5 -16s21.5 -27 21.5 -49z" />
    <glyph glyph-name="H" unicode="H" horiz-adv-x="765" 
d="M213 300l340.002 -0.00292969v-162c0 -26 -1.16699 -46.5 -3.5 -61.5s-6.83301 -26.5 -13.5 -34.5s-16 -13.5 -28 -16.5s-29 -4.5 -51 -4.5v-21h271v21c-22 0 -39.167 1.5 -51.5 4.5s-21.666 8.5 -27.999 16.5s-10.666 19.333 -12.999 34s-3.5 35.334 -3.5 62.001v325
c0 26.667 1.16699 47.334 3.5 62.001s6.66602 25.834 12.999 33.501s15.666 13 27.999 16s29.5 4.5 51.5 4.5v21h-271v-21c22 0 39.167 -1.5 51.5 -4.5s21.666 -8.33301 27.999 -16s10.666 -19 12.999 -34s3.5 -35.5 3.5 -61.5v-126h-340v126
c0 26.667 1.16699 47.334 3.5 62.001s6.66602 25.834 12.999 33.501s15.5 13 27.5 16s29 4.5 51 4.5v21h-270v-21c22 0 39 -1.5 51 -4.5s21.167 -8.33301 27.5 -16s10.666 -18.834 12.999 -33.501s3.5 -35.334 3.5 -62.001v-325c0 -26.667 -1.16699 -47.334 -3.5 -62.001
s-6.66602 -26 -12.999 -34s-15.5 -13.5 -27.5 -16.5s-29 -4.5 -51 -4.5v-21h270v21c-22 0 -39 1.5 -51 4.5s-21.167 8.5 -27.5 16.5s-10.666 19.333 -12.999 34s-3.5 35.334 -3.5 62.001v162z" />
    <glyph glyph-name="I" unicode="I" horiz-adv-x="346" 
d="M308 0v21c-22 0 -39 1.5 -51 4.5s-21.167 8.5 -27.5 16.5s-10.666 19.333 -12.999 34s-3.5 35.334 -3.5 62.001v325c0 26.667 1.16699 47.334 3.5 62.001s6.66602 25.834 12.999 33.501s15.5 13 27.5 16s29 4.5 51 4.5v21h-270v-21c22 0 39 -1.5 51 -4.5
s21.167 -8.33301 27.5 -16s10.666 -18.834 12.999 -33.501s3.5 -35.334 3.5 -62.001v-325c0 -26.667 -1.16699 -47.334 -3.5 -62.001s-6.66602 -26 -12.999 -34s-15.5 -13.5 -27.5 -16.5s-29 -4.5 -51 -4.5v-21h270z" />
    <glyph glyph-name="J" unicode="J" horiz-adv-x="346" 
d="M38 -193c-24 0 -42.9961 6.66797 -56.9961 20.001s-21 28.333 -21 45c0 9.33301 -3.33301 17.333 -10 24s-14.667 10 -24 10c-10 0 -18.333 -3.33301 -25 -10s-10 -14.667 -10 -24c0 -14.667 4.66699 -28 14 -40s21.333 -22 36 -30s30.667 -14.167 48 -18.5
s33.666 -6.5 48.999 -6.5c21.333 0 42.166 2.83301 62.499 8.5s39 15.167 56 28.5s30.667 31.833 41 55.5s15.5 52.5 15.5 86.5v507c0 26.667 1.16699 47.334 3.5 62.001s6.66602 25.834 12.999 33.501s15.5 13 27.5 16s29 4.5 51 4.5v21h-270v-21c22 0 39 -1.5 51 -4.5
s21.167 -8.33301 27.5 -16s10.666 -18.834 12.999 -33.501s3.5 -35.334 3.5 -62.001v-518c0 -46.667 -8.16699 -81.334 -24.5 -104.001s-39.833 -34 -70.5 -34z" />
    <glyph glyph-name="K" unicode="K" horiz-adv-x="730" 
d="M296 348l175.001 150.001c36.667 31.333 67 52.666 91 63.999s54.667 17 92 17v21h-232v-21c30 0 45 -6.33301 45 -19c0 -13.333 -16.333 -34 -49 -62l-205 -175v140c0 26.667 1.16699 47.334 3.5 62.001s6.66602 25.834 12.999 33.501s15.5 13 27.5 16s29 4.5 51 4.5v21
h-270v-21c22 0 39 -1.5 51 -4.5s21.167 -8.33301 27.5 -16s10.666 -18.834 12.999 -33.501s3.5 -35.334 3.5 -62.001v-325c0 -26.667 -1.16699 -47.334 -3.5 -62.001s-6.66602 -26 -12.999 -34s-15.5 -13.5 -27.5 -16.5s-29 -4.5 -51 -4.5v-21h270v21c-22 0 -39 1.5 -51 4.5
s-21.167 8.5 -27.5 16.5s-10.666 19.333 -12.999 34s-3.5 35.334 -3.5 62.001v139l26 21l253 -219c15.333 -12.667 23 -24 23 -34c0 -16 -20.333 -24 -61 -24v-21h281v21c-14.667 0 -35.334 5.83301 -62.001 17.5s-49 25.167 -67 40.5z" />
    <glyph glyph-name="L" unicode="L" horiz-adv-x="575" 
d="M38 0l522.999 0.000976562l8 133h-21l-5 -20c-7.33301 -29.333 -17.666 -49.333 -30.999 -60s-41.333 -16 -84 -16h-120c-22 0 -39 1.5 -51 4.5s-21.167 8.33301 -27.5 16s-10.666 19 -12.999 34s-3.5 35.5 -3.5 61.5v310c0 26.667 1.16699 47.334 3.5 62.001
s6.66602 25.834 12.999 33.501s15.5 13 27.5 16s29 4.5 51 4.5v21h-270v-21c22 0 39 -1.5 51 -4.5s21.167 -8.33301 27.5 -16s10.666 -18.834 12.999 -33.501s3.5 -35.334 3.5 -62.001v-325c0 -26.667 -1.16699 -47.334 -3.5 -62.001s-6.66602 -26 -12.999 -34
s-15.5 -13.5 -27.5 -16.5s-29 -4.5 -51 -4.5v-21z" />
    <glyph glyph-name="M" unicode="M" horiz-adv-x="825" 
d="M170 494l221.999 -510.999h13l208 481v-326c0 -26.667 -1.16699 -47.334 -3.5 -62.001s-6.66602 -26 -12.999 -34s-15.5 -13.5 -27.5 -16.5s-29 -4.5 -51 -4.5v-21h270v21c-22 0 -39.167 1.5 -51.5 4.5s-21.666 8.5 -27.999 16.5s-10.666 19.333 -12.999 34
s-3.5 35.334 -3.5 62.001v325c0 26.667 1.16699 47.334 3.5 62.001s6.66602 25.834 12.999 33.501s15.666 13 27.999 16s29.5 4.5 51.5 4.5v21h-157l-211 -487l-212 487h-170v-21c22 0 39 -1.5 51 -4.5s21.167 -8.33301 27.5 -16s10.666 -18.834 12.999 -33.501
s3.5 -35.334 3.5 -62.001v-325c0 -26.667 -1.16699 -47.334 -3.5 -62.001s-6.66602 -26 -12.999 -34s-15.5 -13.5 -27.5 -16.5s-29 -4.5 -51 -4.5v-21h228v21c-22 0 -39 1.5 -51 4.5s-21.333 8.5 -28 16.5s-11.167 19.5 -13.5 34.5s-3.5 35.5 -3.5 61.5v356z" />
    <glyph glyph-name="N" unicode="N" horiz-adv-x="725" 
d="M563 124l-383.999 476.005h-141v-21c22 0 39 -1.5 51 -4.5s21.167 -8.33301 27.5 -16s10.666 -18.834 12.999 -33.501s3.5 -35.334 3.5 -62.001v-325c0 -26.667 -1.16699 -47.334 -3.5 -62.001s-6.66602 -26 -12.999 -34s-15.5 -13.5 -27.5 -16.5s-29 -4.5 -51 -4.5v-21
h228v21c-22 0 -39 1.5 -51 4.5s-21.333 8.5 -28 16.5s-11.167 19.5 -13.5 34.5s-3.5 35.5 -3.5 61.5v348l407 -503h23v480c0 26 1.16699 46.5 3.5 61.5s6.83301 26.333 13.5 34s16 13 28 16s29 4.5 51 4.5v21h-228v-21c22 0 39 -1.5 51 -4.5s21.167 -8.33301 27.5 -16
s10.666 -18.834 12.999 -33.501s3.5 -35.334 3.5 -62.001v-339z" />
    <glyph glyph-name="O" unicode="O" horiz-adv-x="808" 
d="M738 300c0 42.667 -8.66699 83.334 -26 122.001s-41.333 72.667 -72 102s-66.334 52.166 -107.001 68.499s-83.667 24.5 -129 24.5c-44.667 0 -87.334 -8.16699 -128.001 -24.5s-76.334 -39.166 -107.001 -68.499s-54.667 -63.333 -72 -102s-26 -79.334 -26 -122.001
s8.66699 -83.334 26 -122.001s41.333 -72.667 72 -102s66.334 -52.166 107.001 -68.499s83.334 -24.5 128.001 -24.5c45.333 0 88.333 8.16699 129 24.5s76.334 39.166 107.001 68.499s54.667 63.333 72 102s26 79.334 26 122.001zM404 578
c41.333 0 77.333 -8.16699 108 -24.5s55.667 -38.166 75 -65.499s33.5 -57.333 42.5 -90s13.5 -65.334 13.5 -98.001s-4.5 -65.167 -13.5 -97.5s-23.167 -62.166 -42.5 -89.499s-44.333 -49.166 -75 -65.499s-66.667 -24.5 -108 -24.5s-77.166 8.16699 -107.499 24.5
s-55.166 38.166 -74.499 65.499s-33.5 57.166 -42.5 89.499s-13.5 64.833 -13.5 97.5s4.5 65.334 13.5 98.001s23.167 62.667 42.5 90s44.166 49.166 74.499 65.499s66.166 24.5 107.499 24.5z" />
    <glyph glyph-name="P" unicode="P" horiz-adv-x="540" 
d="M302 600l-264.001 0.000976562v-21c22 0 39 -1.5 51 -4.5s21.167 -8.33301 27.5 -16s10.666 -18.834 12.999 -33.501s3.5 -35.334 3.5 -62.001v-325c0 -26.667 -1.16699 -47.334 -3.5 -62.001s-6.66602 -26 -12.999 -34s-15.5 -13.5 -27.5 -16.5s-29 -4.5 -51 -4.5v-21
h270v21c-22 0 -39 1.5 -51 4.5s-21.167 8.5 -27.5 16.5s-10.666 19.333 -12.999 34s-3.5 35.334 -3.5 62.001v125h89c67.333 0 120 15.833 158 47.5s57 71.834 57 120.501s-19 89 -57 121s-90.667 48 -158 48zM300.999 299.001l-88 0.00195312v264h88
c41.333 0 72.833 -12.333 94.5 -37s32.5 -56.334 32.5 -95.001s-10.833 -70.334 -32.5 -95.001s-53.167 -37 -94.5 -37z" />
    <glyph glyph-name="Q" unicode="Q" horiz-adv-x="808" 
d="M350 -13c-21.333 -6.66699 -41.667 -14.998 -61 -24.998s-36 -20.667 -50 -32s-25 -22.5 -33 -33.5s-12 -20.167 -12 -27.5c0 -21.333 11.333 -32 34 -32c6 0.666992 10.833 2.83398 14.5 6.50098s7.83398 8.83398 12.501 15.501c10 14 21.333 25 34 33
s32.334 12 59.001 12c20 0 40.5 -5.83301 61.5 -17.5s47.833 -29.5 80.5 -53.5c38.667 -28 71.667 -49.333 99 -64s55.666 -22 84.999 -22c28 0 53.667 5 77 15s43.5 23.333 60.5 40s31.333 34.667 43 54s20.834 38.333 27.501 57l-16 8
c-16.667 -33.333 -38.5 -57.833 -65.5 -73.5s-62.833 -23.5 -107.5 -23.5c-24.667 0 -47.334 4.16699 -68.001 12.5s-46 21.166 -76 38.499c-34 20 -63.833 35 -89.5 45s-55.5 15 -89.5 15c-21.333 0 -43 -2.33301 -65 -7c17.333 16 38.333 29 63 39s48 16 70 18
c40.667 4.66699 79.334 15.667 116.001 33s68.834 40.166 96.501 68.499s49.167 60.666 64.5 96.999s23 75.166 23 116.499c0 42.667 -8.66699 83.334 -26 122.001s-41.333 72.667 -72 102s-66.334 52.166 -107.001 68.499s-83.667 24.5 -129 24.5
c-44.667 0 -87.334 -8.16699 -128.001 -24.5s-76.334 -39.166 -107.001 -68.499s-54.667 -63.333 -72 -102s-26 -79.334 -26 -122.001c0 -38 6.83301 -74.333 20.5 -109s33 -66.167 58 -94.5s54.667 -52 89 -71s71.5 -31.833 111.5 -38.5zM403.999 578.002
c41.333 0 77.5 -8.16406 108.5 -24.4971s56.333 -38.166 76 -65.499s34.167 -57.333 43.5 -90s14 -65.334 14 -98.001s-4.66699 -65.334 -14 -98.001s-23.833 -62.5 -43.5 -89.5s-45 -48.667 -76 -65s-67.167 -24.5 -108.5 -24.5s-77.333 8.16699 -108 24.5
s-55.834 38.166 -75.501 65.499s-34.167 57.166 -43.5 89.499s-14 64.833 -14 97.5s4.66699 65.334 14 98.001s23.833 62.667 43.5 90s44.834 49.166 75.501 65.499s66.667 24.5 108 24.5z" />
    <glyph glyph-name="R" unicode="R" horiz-adv-x="620" 
d="M301 299l-88 0.00195312v264h88c41.333 0 72.833 -12.333 94.5 -37s32.5 -56.334 32.5 -95.001s-10.833 -70.334 -32.5 -95.001s-53.167 -37 -94.5 -37zM339 263.002c55.333 6 98.832 24.334 130.499 55.001s47.5 68.334 47.5 113.001c0 48.667 -19 89 -57 121
s-90.667 48 -158 48h-264v-21c22 0 39 -1.5 51 -4.5s21.167 -8.33301 27.5 -16s10.666 -18.834 12.999 -33.501s3.5 -35.334 3.5 -62.001v-325c0 -26.667 -1.16699 -47.334 -3.5 -62.001s-6.66602 -26 -12.999 -34s-15.5 -13.5 -27.5 -16.5s-29 -4.5 -51 -4.5v-21h270v21
c-22 0 -39 1.5 -51 4.5s-21.167 8.5 -27.5 16.5s-10.666 19.333 -12.999 34s-3.5 35.334 -3.5 62.001v125h47l198 -263h165v21c-29.333 3.33301 -60 16.333 -92 39s-63.333 52 -94 88z" />
    <glyph glyph-name="S" unicode="S" horiz-adv-x="498" 
d="M107 30c7.33301 -1.33301 19.334 -6.33398 36.001 -15.001c20.667 -9.33301 40.167 -17 58.5 -23s38.833 -9 61.5 -9c26 0 50.5 4.33301 73.5 13s43.167 20.834 60.5 36.501s31 34.667 41 57s15 46.833 15 73.5c0 30 -8.33301 58.333 -25 85s-43 49 -79 67l-96 49
c-45.333 24 -76.833 44.5 -94.5 61.5s-26.5 37.833 -26.5 62.5c0 25.333 9.16699 46.5 27.5 63.5s41.5 25.5 69.5 25.5s51.5 -5 70.5 -15s34.167 -23.5 45.5 -40.5s19.833 -35.5 25.5 -55.5s9.5 -41.333 11.5 -64h21v220h-20c-4 -18 -13.667 -33.333 -29 -46
c-18 13.333 -36.167 23.5 -54.5 30.5s-40.833 10.5 -67.5 10.5c-48 0 -87.667 -14.333 -119 -43s-47 -64 -47 -106c0 -36 10.667 -68.333 32 -97s47.666 -51.334 78.999 -68.001l96 -49c36.667 -19.333 65 -38.833 85 -58.5s30 -40.5 30 -62.5
c0 -32 -11.833 -58.333 -35.5 -79s-53.5 -31 -89.5 -31c-42 0 -76 8.5 -102 25.5s-44.833 36.667 -56.5 59s-19 42 -22 59s-4.5 29.167 -4.5 36.5h-20v-220h20c4 18.667 13.667 34.334 29 47.001z" />
    <glyph glyph-name="T" unicode="T" horiz-adv-x="641" 
d="M624 600h-607l-9 -135h21l5 20c8 30 18.667 50.167 32 60.5s41.333 15.5 84 15.5h131v-423c0 -26 -1.16699 -46.5 -3.5 -61.5s-6.83301 -26.5 -13.5 -34.5s-16 -13.5 -28 -16.5s-29 -4.5 -51 -4.5v-21h271v21c-22 0 -39 1.5 -51 4.5s-21.333 8.5 -28 16.5
s-11.167 19.5 -13.5 34.5s-3.5 35.5 -3.5 61.5v423h131c42.667 0 70.667 -5.16699 84 -15.5s24 -30.5 32 -60.5l5 -20h21z" />
    <glyph glyph-name="U" unicode="U" horiz-adv-x="716" 
d="M557 463l0.00488281 -245c0 -62.667 -16.833 -110 -50.5 -142s-78.167 -48 -133.5 -48c-52.667 0 -95 16 -127 48s-48 79.333 -48 142v245c0 26.667 1.16699 47.334 3.5 62.001s6.66602 25.834 12.999 33.501s15.5 13 27.5 16s29 4.5 51 4.5v21h-270v-21
c22 0 39 -1.5 51 -4.5s21.167 -8.33301 27.5 -16s10.666 -18.834 12.999 -33.501s3.5 -35.334 3.5 -62.001v-240c0 -75.333 22.667 -134.166 68 -176.499s102.666 -63.5 171.999 -63.5c70 0 127.667 21.167 173 63.5s68 101.166 68 176.499v240c0 26 1.16699 46.5 3.5 61.5
s6.83301 26.333 13.5 34s16 13 28 16s29 4.5 51 4.5v21h-234v-21c22 0 39.167 -1.5 51.5 -4.5s21.666 -8.33301 27.999 -16s10.666 -19 12.999 -34s3.5 -35.5 3.5 -61.5z" />
    <glyph glyph-name="V" unicode="V" horiz-adv-x="617" 
d="M654 579l-0.00195312 21.001h-233v-21c30.667 0 53 -3.16699 67 -9.5s21 -16.5 21 -30.5c0 -9.33301 -3.33301 -21.333 -10 -36l-168 -389l-170 389c-6.66699 14.667 -10 27 -10 37c0 13.333 7 23.166 21 29.499s36.333 9.5 67 9.5v21h-277v-21
c20.667 0 37 -1.16699 49 -3.5s21.5 -6.33301 28.5 -12s13.167 -13.167 18.5 -22.5s12.333 -24 21 -44c0.666992 -2 1.33398 -3.66699 2.00098 -5l221 -509h13l220 509c0.666992 1.33301 1.33398 3 2.00098 5c8.66699 20 15.667 34.667 21 44s11.5 16.833 18.5 22.5
s16.5 9.66699 28.5 12s28.333 3.5 49 3.5z" />
    <glyph glyph-name="W" unicode="W" horiz-adv-x="793" 
d="M393 426l139.999 -443.003h13l162 509c6 18 11.5 32.333 16.5 43s11.5 19.334 19.5 26.001s18.667 11.334 32 14.001s30.333 4 51 4v21h-225v-21c27.333 0 46.833 -3.33301 58.5 -10s17.5 -17.667 17.5 -33c0 -8.66699 -2 -19.667 -6 -33l-109 -344l-140 441h-15
l-140 -442l-109 345c-4.66699 14.667 -7 26.334 -7 35.001c0 15.333 6.5 26 19.5 32s35.167 9 66.5 9v21h-281v-21c22 0 39.333 -1.16699 52 -3.5s22.834 -6.5 30.501 -12.5s14.167 -14.333 19.5 -25s11.333 -26 18 -46l161 -509h14z" />
    <glyph glyph-name="X" unicode="X" horiz-adv-x="614" 
d="M293 263l111.997 -165.999c13.333 -18.667 20 -33.334 20 -44.001s-5.83301 -18.667 -17.5 -24s-30.167 -8 -55.5 -8v-21h285v21c-32.667 0 -59.5 7 -80.5 21s-42.167 36 -63.5 66l-150 220l127 164c1.33301 2 4.33301 6 9 12c21.333 27.333 40.5 46.666 57.5 57.999
s42.833 17 77.5 17v21h-237v-21c49.333 0 74 -10.667 74 -32c0 -11.333 -7 -26 -21 -44l-109 -140l-95 140c-12.667 18 -19 32.333 -19 43s5.83301 18.834 17.5 24.501s29.834 8.5 54.501 8.5v21h-284v-21c32.667 0 59.834 -7.33301 81.501 -22s42.5 -36.334 62.5 -65.001
l131 -194l-147 -190c-22 -27.333 -43.5 -48.666 -64.5 -63.999s-47.5 -23 -79.5 -23v-21h238v21c-25.333 0 -43.666 3.16699 -54.999 9.5s-17 14.833 -17 25.5c0 11.333 6 25 18 41z" />
    <glyph glyph-name="Y" unicode="Y" horiz-adv-x="625" 
d="M353 242l164.997 249.999c22.667 34 42.834 57 60.501 69s45.834 18 84.501 18v21h-234v-21c49.333 0 74 -9.66699 74 -29c0 -10.667 -6.66699 -26.334 -20 -47.001l-146 -220l-144 220c-12 18.667 -18 33.334 -18 44.001s5.66699 18.667 17 24s29.666 8 54.999 8v21
h-285v-21c34.667 0 62 -6.16699 82 -18.5s41 -35.166 63 -68.499l166 -257v-97c0 -26.667 -1.16699 -47.334 -3.5 -62.001s-6.66602 -26 -12.999 -34s-15.5 -13.5 -27.5 -16.5s-29 -4.5 -51 -4.5v-21h270v21c-22 0 -39 1.5 -51 4.5s-21.167 8.5 -27.5 16.5
s-10.666 19.333 -12.999 34s-3.5 35.334 -3.5 62.001v104z" />
    <glyph glyph-name="Z" unicode="Z" horiz-adv-x="575" 
d="M380 563l-337 -539.999v-23h460l8 133h-21l-5 -20c-7.33301 -29.333 -17.833 -49.333 -31.5 -60s-41.834 -16 -84.501 -16h-225l345 551v12h-426l-9 -132h21l5 20c7.33301 29.333 17.833 49.166 31.5 59.499s41.834 15.5 84.501 15.5h184z" />
    <glyph glyph-name="bracketleft" unicode="[" horiz-adv-x="358" 
d="M319 -88v32h-137v702h137v32h-202v-766h202z" />
    <glyph glyph-name="backslash" unicode="\" horiz-adv-x="348" 
d="M383 0l-384 618l-36 -18l384 -618z" />
    <glyph glyph-name="bracketright" unicode="]" horiz-adv-x="358" 
d="M242 -88v766h-203v-32h138v-702h-138v-32h203z" />
    <glyph glyph-name="asciicircum" unicode="^" horiz-adv-x="485" 
d="M243 617l-201 -279l17 -15l184 182l182 -182l18 15z" />
    <glyph glyph-name="underscore" unicode="_" horiz-adv-x="358" 
d="M359 -44v44h-360v-44h360z" />
    <glyph glyph-name="grave" unicode="`" horiz-adv-x="404" 
d="M186 489l-93.001 88c-9.33301 8 -17.166 13.833 -23.499 17.5s-13.5 5.5 -21.5 5.5c-8.66699 0 -15.5 -3.16699 -20.5 -9.5s-7.5 -12.833 -7.5 -19.5s2.5 -12.667 7.5 -18s10.167 -9.33301 15.5 -12l138 -58z" />
    <glyph glyph-name="a" unicode="a" horiz-adv-x="514" 
d="M158 143l163.999 0.000976562l20 -46c8.66699 -20.667 13 -36 13 -46c0 -11.333 -5.16699 -19.166 -15.5 -23.499s-27.5 -6.5 -51.5 -6.5v-21h224v21c-14 0 -25.167 1 -33.5 3s-15.833 6 -22.5 12s-13.167 14.5 -19.5 25.5s-13.833 26.5 -22.5 46.5l-147 342h-14
l-147 -342c-8.66699 -20.667 -16 -36.334 -22 -47.001s-12.333 -19 -19 -25s-14.667 -10 -24 -12s-22 -3 -38 -3v-21h189v21c-25.333 0 -43.166 2 -53.499 6s-15.5 11 -15.5 21c0 9.33301 5 25.666 15 48.999zM305.999 180.001h-132l66 153z" />
    <glyph glyph-name="b" unicode="b" horiz-adv-x="490" 
d="M359 122c0 -24.667 -7 -45 -21 -61s-34.667 -24 -62 -24h-19c-26.667 0 -43.5 4.5 -50.5 13.5s-10.5 29.833 -10.5 62.5v95h80c27.333 0 48 -8 62 -24s21 -36.667 21 -62zM323 321c0 -20.667 -6 -38 -18 -52s-29.333 -21 -52 -21h-57v149h57c22.667 0 40 -7.33301 52 -22
s18 -32.667 18 -54zM46 0l111.998 0.00292969h119c50 0 89 11.5 117 34.5s42 52.5 42 88.5c0 25.333 -6.66699 48 -20 68s-32.666 35.333 -57.999 46c28.667 23.333 43 52 43 86c0 32 -12.667 58.333 -38 79s-60.666 31 -105.999 31h-99h-112v-20c18 0 32 -1.5 42 -4.5
s17.667 -8.33301 23 -16s9 -18.834 11 -33.501s3 -35.334 3 -62.001v-160c0 -26.667 -1 -47.334 -3 -62.001s-5.66699 -26 -11 -34s-13 -13.5 -23 -16.5s-24 -4.5 -42 -4.5v-20z" />
    <glyph glyph-name="c" unicode="c" horiz-adv-x="517" 
d="M452 0l0.000976562 173.997h-20c-9.33301 -47.333 -27 -84.5 -53 -111.5s-58 -40.5 -96 -40.5c-26.667 0 -49.334 5.83301 -68.001 17.5s-33.667 27.167 -45 46.5s-19.5 40.333 -24.5 63s-7.5 45.334 -7.5 68.001s2.5 45.334 7.5 68.001s13 43.667 24 63
s26 34.833 45 46.5s41.833 17.5 68.5 17.5c38 0 70 -13.5 96 -40.5s43.667 -64.167 53 -111.5h20v173h-19c-2.66699 -10 -5.5 -19.833 -8.5 -29.5s-6.16699 -16.167 -9.5 -19.5c-14.667 19.333 -34.334 35.166 -59.001 47.499s-49 18.5 -73 18.5
c-30.667 0 -59.667 -6 -87 -18s-51.5 -28.833 -72.5 -50.5s-37.333 -46.667 -49 -75s-17.5 -58.166 -17.5 -89.499s5.83301 -61.333 17.5 -90s27.834 -53.834 48.501 -75.501s44.834 -38.5 72.501 -50.5s56.834 -18 87.501 -18c24 0 48.167 6.33301 72.5 19
s44.166 28.334 59.499 47.001c3.33301 -3.33301 6.66602 -9.66602 9.99902 -18.999s6 -19.333 8 -30h19z" />
    <glyph glyph-name="d" unicode="d" horiz-adv-x="558" 
d="M419 217c0 -22.667 -2.16602 -44.332 -6.49902 -64.999s-12.333 -39.667 -24 -57s-28 -31.333 -49 -42s-47.167 -16 -78.5 -16h-8c-24.667 0 -40.334 4.5 -47.001 13.5s-10 29.833 -10 62.5v284h65c31.333 0 57.5 -5.33301 78.5 -16s37.333 -24.834 49 -42.501
s19.667 -36.667 24 -57s6.5 -41.833 6.5 -64.5zM46.001 0.00195312l212 0.00292969c80.667 0 142.667 21.333 186 64c19.333 19.333 33.833 42 43.5 68s14.5 54.333 14.5 85c0 30 -4.83301 58.167 -14.5 84.5s-24.5 49.333 -44.5 69s-45.5 35 -76.5 46
s-67.167 16.5 -108.5 16.5h-212v-20c18 0 32 -1.5 42 -4.5s17.667 -8.33301 23 -16s9 -18.834 11 -33.501s3 -35.334 3 -62.001v-160c0 -26.667 -1 -47.334 -3 -62.001s-5.66699 -26 -11 -34s-13 -13.5 -23 -16.5s-24 -4.5 -42 -4.5v-20z" />
    <glyph glyph-name="e" unicode="e" horiz-adv-x="475" 
d="M287 37l-11.998 0.00292969c-18 0 -32 1.5 -42 4.5s-17.667 8.33301 -23 16s-9 18.834 -11 33.501s-3 35.334 -3 62.001v58h6c26 0 46 -1 60 -3s24.5 -5.83301 31.5 -11.5s11.5 -13.334 13.5 -23.001s3 -23.5 3 -41.5h20v195h-20c0 -18.667 -1 -32.834 -3 -42.501
s-6.5 -17.167 -13.5 -22.5s-17.333 -9 -31 -11s-33.834 -3 -60.501 -3h-6v149h67c42.667 0 71 -4.5 85 -13.5s24 -25.833 30 -50.5l5 -20h21l-8 120h-129h-221v-20c18 0 32 -1.5 42 -4.5s17.667 -8.33301 23 -16s9 -18.834 11 -33.501s3 -35.334 3 -62.001v-160
c0 -26.667 -1 -47.334 -3 -62.001s-5.66699 -26 -11 -34s-13 -13.5 -23 -16.5s-24 -4.5 -42 -4.5v-20h374l8 121h-20l-5 -20c-6.66699 -25.333 -16.834 -42.333 -30.501 -51s-42.167 -13 -85.5 -13z" />
    <glyph glyph-name="f" unicode="f" horiz-adv-x="435" 
d="M196 137l0.000976562 74.0039h6c26 0 46 -1 60 -3s24.5 -5.83301 31.5 -11.5s11.5 -13.334 13.5 -23.001s3 -23.5 3 -41.5h20v195h-20c0 -18.667 -1 -32.834 -3 -42.501s-6.5 -17.167 -13.5 -22.5s-17.333 -9 -31 -11s-33.834 -3 -60.501 -3h-6v149h78
c43.333 0 71.833 -4.33301 85.5 -13s23.834 -25.667 30.501 -51l5 -20h21l-8 120h-130h-232v-20c18 0 32 -1.5 42 -4.5s17.667 -8.33301 23 -16s9 -18.834 11 -33.501s3 -35.334 3 -62.001v-160c0 -26.667 -1 -47.334 -3 -62.001s-5.66699 -26 -11 -34s-13 -13.5 -23 -16.5
s-24 -4.5 -42 -4.5v-20h229v20c-18 0 -31.833 1.5 -41.5 4.5s-17.334 8.5 -23.001 16.5s-9.5 19.333 -11.5 34s-3 35.334 -3 62.001z" />
    <glyph glyph-name="g" unicode="g" horiz-adv-x="558" 
d="M466 21l-0.00292969 29.999c0 26.667 1 47.334 3 62.001s5.83301 26 11.5 34s13.334 13.5 23.001 16.5s23.5 4.5 41.5 4.5v20h-221v-20c25.333 0 46 -5.33301 62 -16s24 -25.667 24 -45c0 -12.667 -4 -24.334 -12 -35.001s-18.5 -19.667 -31.5 -27s-27 -13 -42 -17
s-28.833 -6 -41.5 -6c-26.667 0 -49.5 5.83301 -68.5 17.5s-34.333 27.167 -46 46.5s-20 40.333 -25 63s-7.5 45.334 -7.5 68.001s2.5 45.334 7.5 68.001s13.333 43.667 25 63s27 34.833 46 46.5s41.833 17.5 68.5 17.5c38 0 70 -13.5 96 -40.5s43.667 -64.167 53 -111.5h20
v173h-19c-2.66699 -10 -5.5 -19.833 -8.5 -29.5s-6.16699 -16.167 -9.5 -19.5c-14.667 19.333 -34.334 35.166 -59.001 47.499s-49 18.5 -73 18.5c-30.667 0 -59.667 -6 -87 -18s-51.5 -28.833 -72.5 -50.5s-37.333 -46.667 -49 -75s-17.5 -58.166 -17.5 -89.499
s5.83301 -61.333 17.5 -90s27.834 -53.834 48.501 -75.501s44.834 -38.5 72.501 -50.5s56.834 -18 87.501 -18c18.667 0 48 6 88 18c42 13.333 73.667 20 95 20z" />
    <glyph glyph-name="h" unicode="h" horiz-adv-x="620" 
d="M196 248v49.0029c0 26.667 1 47.334 3 62.001s5.83301 25.834 11.5 33.501s13.334 13 23.001 16s23.5 4.5 41.5 4.5v20h-229v-20c18 0 32 -1.5 42 -4.5s17.667 -8.33301 23 -16s9 -18.834 11 -33.501s3 -35.334 3 -62.001v-160c0 -26.667 -1 -47.334 -3 -62.001
s-5.66699 -26 -11 -34s-13 -13.5 -23 -16.5s-24 -4.5 -42 -4.5v-20h229v20c-18 0 -31.833 1.5 -41.5 4.5s-17.334 8.5 -23.001 16.5s-9.5 19.333 -11.5 34s-3 35.334 -3 62.001v74h227v-74c0 -26.667 -1 -47.334 -3 -62.001s-5.66699 -26 -11 -34s-13 -13.5 -23 -16.5
s-24 -4.5 -42 -4.5v-20h229v20c-17.333 0 -31 1.5 -41 4.5s-17.667 8.5 -23 16.5s-9.16602 19.5 -11.499 34.5s-3.5 35.5 -3.5 61.5v160c0 26 1.16699 46.5 3.5 61.5s6.16602 26.333 11.499 34s13 13 23 16s23.667 4.5 41 4.5v20h-229v-20c18 0 32 -1.5 42 -4.5
s17.667 -8.33301 23 -16s9 -18.834 11 -33.501s3 -35.334 3 -62.001v-49h-227z" />
    <glyph glyph-name="i" unicode="i" horiz-adv-x="322" 
d="M275 0v20c-18 0 -31.833 1.5 -41.5 4.5s-17.334 8.5 -23.001 16.5s-9.5 19.333 -11.5 34s-3 35.334 -3 62.001v160c0 26.667 1 47.334 3 62.001s5.83301 25.834 11.5 33.501s13.334 13 23.001 16s23.5 4.5 41.5 4.5v20h-229v-20c18 0 32 -1.5 42 -4.5
s17.667 -8.33301 23 -16s9 -18.834 11 -33.501s3 -35.334 3 -62.001v-160c0 -26.667 -1 -47.334 -3 -62.001s-5.66699 -26 -11 -34s-13 -13.5 -23 -16.5s-24 -4.5 -42 -4.5v-20h229z" />
    <glyph glyph-name="j" unicode="j" horiz-adv-x="322" 
d="M125 297v-271.001c0 -58.667 -6.33301 -99.334 -19 -122.001s-30 -34 -52 -34c-16.667 0 -28.5 3.66699 -35.5 11s-13.5 18 -19.5 32c-4.66699 11.333 -9.66699 20 -15 26s-13.666 9 -24.999 9c-18 -1.33301 -27 -10.666 -27 -27.999c0 -19.333 10.667 -38 32 -56
s49.666 -27 84.999 -27c41.333 0 76.166 15.833 104.499 47.5s42.5 78.834 42.5 141.501v271c0 26.667 1 47.334 3 62.001s5.83301 25.834 11.5 33.501s13.334 13 23.001 16s23.5 4.5 41.5 4.5v20h-229v-20c18 0 32 -1.5 42 -4.5s17.667 -8.33301 23 -16
s9 -18.834 11 -33.501s3 -35.334 3 -62.001z" />
    <glyph glyph-name="k" unicode="k" horiz-adv-x="571" 
d="M222 210l120.999 -112.999c28.667 -27.333 43 -47 43 -59c0 -11.333 -15 -17 -45 -17v-21h235v21c-8.66699 0 -17.334 1.16699 -26.001 3.5s-18 6.5 -28 12.5s-22.167 14.667 -36.5 26s-32.166 26.333 -53.499 45l-163 143l86 74c21.333 18.667 39.333 33.5 54 44.5
s28 19.667 40 26s23.333 10.833 34 13.5s22.334 4 35.001 4v20h-188v-20c28 0 42 -4.66699 42 -14c0 -10.667 -18 -31.334 -54 -62.001l-122 -104v64c0 26.667 1 47.334 3 62.001s5.83301 25.834 11.5 33.501s13.334 13 23.001 16s23.5 4.5 41.5 4.5v20h-229v-20
c18 0 32 -1.5 42 -4.5s17.667 -8.33301 23 -16s9 -18.834 11 -33.501s3 -35.334 3 -62.001v-160c0 -26.667 -1 -47.334 -3 -62.001s-5.66699 -26 -11 -34s-13 -13.5 -23 -16.5s-24 -4.5 -42 -4.5v-20h229v20c-18 0 -31.833 1.5 -41.5 4.5s-17.334 8.5 -23.001 16.5
s-9.5 19.333 -11.5 34s-3 35.334 -3 62.001v51z" />
    <glyph glyph-name="l" unicode="l" horiz-adv-x="443" 
d="M125 297v-160.001c0 -26.667 -1 -47.334 -3 -62.001s-5.66699 -26 -11 -34s-13 -13.5 -23 -16.5s-24 -4.5 -42 -4.5v-20h399l7 121h-21l-5 -20c-6.66699 -25.333 -16.834 -42.333 -30.501 -51s-42.167 -13 -85.5 -13h-35c-18 0 -32 1.5 -42 4.5s-17.667 8.33301 -23 16
s-9 18.834 -11 33.501s-3 35.334 -3 62.001v144c0 26.667 1 47.334 3 62.001s5.83301 25.834 11.5 33.501s13.334 13 23.001 16s23.5 4.5 41.5 4.5v20h-229v-20c18 0 32 -1.5 42 -4.5s17.667 -8.33301 23 -16s9 -18.834 11 -33.501s3 -35.334 3 -62.001z" />
    <glyph glyph-name="m" unicode="m" horiz-adv-x="678" 
d="M162 337l156.001 -353.997h14l151 341v-187c0 -26.667 -1 -47.334 -3 -62.001s-5.66699 -26 -11 -34s-13 -13.5 -23 -16.5s-24 -4.5 -42 -4.5v-20h229v20c-18 0 -32 1.5 -42 4.5s-17.667 8.5 -23 16.5s-9.16602 19.5 -11.499 34.5s-3.5 35.5 -3.5 61.5v160
c0 26 1.16699 46.5 3.5 61.5s6.16602 26.333 11.499 34s13 13 23 16s24 4.5 42 4.5v20h-140l-148 -334l-149 334h-150v-20c18 0 32 -1.5 42 -4.5s17.667 -8.33301 23 -16s9 -18.834 11 -33.501s3 -35.334 3 -62.001v-160c0 -26.667 -1 -47.334 -3 -62.001
s-5.66699 -26 -11 -34s-13 -13.5 -23 -16.5s-24 -4.5 -42 -4.5v-20h195v20c-18 0 -31.833 1.5 -41.5 4.5s-17.334 8.5 -23.001 16.5s-9.5 19.333 -11.5 34s-3 35.334 -3 62.001v200z" />
    <glyph glyph-name="n" unicode="n" horiz-adv-x="597" 
d="M125 297v-159.998c0 -26.667 -1 -47.334 -3 -62.001s-5.66699 -26 -11 -34s-13 -13.5 -23 -16.5s-24 -4.5 -42 -4.5v-20h195v20c-18 0 -31.833 1.5 -41.5 4.5s-17.334 8.5 -23.001 16.5s-9.5 19.333 -11.5 34s-3 35.334 -3 62.001v196l291 -349h19v313
c0 26.667 1 47.334 3 62.001s5.83301 25.834 11.5 33.501s13.334 13 23.001 16s23.5 4.5 41.5 4.5v20h-195v-20c18 0 32 -1.5 42 -4.5s17.667 -8.33301 23 -16s9 -18.834 11 -33.501s3 -35.334 3 -62.001v-180l-266 316h-123v-20c18 0 32 -1.5 42 -4.5
s17.667 -8.33301 23 -16s9 -18.834 11 -33.501s3 -35.334 3 -62.001z" />
    <glyph glyph-name="o" unicode="o" horiz-adv-x="602" 
d="M545 217c0 31.333 -6.33301 61.166 -19 89.499s-30.334 53.333 -53.001 75s-48.834 38.5 -78.501 50.5s-60.834 18 -93.501 18s-63.834 -6 -93.501 -18s-55.834 -28.833 -78.501 -50.5s-40.334 -46.667 -53.001 -75s-19 -58.166 -19 -89.499s6.33301 -61.333 19 -90
s30.334 -53.834 53.001 -75.501s48.834 -38.5 78.501 -50.5s60.834 -18 93.501 -18s63.834 6 93.501 18s55.834 28.833 78.501 50.5s40.334 46.834 53.001 75.501s19 58.667 19 90zM463 217c0 -23.333 -3 -46.333 -9 -69s-15.5 -43.5 -28.5 -62.5s-30 -34.333 -51 -46
s-45.5 -17.5 -73.5 -17.5s-52.5 5.83301 -73.5 17.5s-38 27 -51 46s-22.5 39.833 -28.5 62.5s-9 45.667 -9 69s3 46.333 9 69s15.5 43.5 28.5 62.5s30 34.333 51 46s45.5 17.5 73.5 17.5s52.5 -5.83301 73.5 -17.5s38 -27 51 -46s22.5 -39.833 28.5 -62.5s9 -45.667 9 -69z
" />
    <glyph glyph-name="p" unicode="p" horiz-adv-x="433" 
d="M335 309c0 -24.667 -7 -45.167 -21 -61.5s-34.333 -24.5 -61 -24.5h-57v174h57c26.667 0 47 -8.33301 61 -25s21 -37.667 21 -63zM196 137l0.000976562 49.002h57c50 0 89.167 11.5 117.5 34.5s42.5 52.5 42.5 88.5c0 36.667 -14.167 66.5 -42.5 89.5
s-67.5 34.5 -117.5 34.5h-207v-20c18 0 32 -1.5 42 -4.5s17.667 -8.33301 23 -16s9 -18.834 11 -33.501s3 -35.334 3 -62.001v-160c0 -26.667 -1 -47.334 -3 -62.001s-5.66699 -26 -11 -34s-13 -13.5 -23 -16.5s-24 -4.5 -42 -4.5v-20h229v20c-18 0 -31.833 1.5 -41.5 4.5
s-17.334 8.5 -23.001 16.5s-9.5 19.333 -11.5 34s-3 35.334 -3 62.001z" />
    <glyph glyph-name="q" unicode="q" horiz-adv-x="602" 
d="M637 -68l-15.9941 8c-24.667 -48.667 -67.667 -73 -129 -73c-16.667 0 -33 3.16699 -49 9.5s-35.333 15.833 -58 28.5c-26.667 14.667 -49.834 25.834 -69.501 33.501s-41.167 11.5 -64.5 11.5c-2 0 -5 -0.333008 -9 -1h-9c10 8 25.5 15.667 46.5 23
s36.5 11.666 46.5 12.999c30 3.33301 58.333 11.5 85 24.5s50 29.833 70 50.5s35.667 44.334 47 71.001s17 55.334 17 86.001c0 31.333 -6.33301 61 -19 89s-30.334 52.833 -53.001 74.5s-48.834 38.5 -78.501 50.5s-60.834 18 -93.501 18s-63.834 -6 -93.501 -18
s-55.834 -28.833 -78.501 -50.5s-40.334 -46.5 -53.001 -74.5s-19 -57.667 -19 -89c0 -56 18.167 -104.833 54.5 -146.5s83.5 -69.167 141.5 -82.5c-15.333 -4.66699 -30.166 -10.834 -44.499 -18.501s-27.333 -16.167 -39 -25.5s-20.834 -18.333 -27.501 -27
s-10 -15.334 -10 -20.001c0 -20 10.333 -30 31 -30c6 0.666992 12.667 7 20 19c7.33301 11.333 15.333 20.333 24 27s22.334 10 41.001 10c14.667 0 29.334 -4.33301 44.001 -13s33.667 -22 57 -40c27.333 -21.333 50.666 -37.5 69.999 -48.5s39.333 -16.5 60 -16.5
c40.667 0 74.167 12.5 100.5 37.5s45.5 54.833 57.5 89.5zM465.006 217c0 -22.667 -3.16699 -45.501 -9.5 -68.501s-16.166 -44 -29.499 -63s-30.5 -34.333 -51.5 -46s-45.5 -17.5 -73.5 -17.5s-52.5 5.83301 -73.5 17.5s-38.167 27 -51.5 46s-23 40 -29 63
s-9 45.833 -9 68.5s3 45.334 9 68.001s15.667 43.667 29 63s30.5 34.833 51.5 46.5s45.5 17.5 73.5 17.5s52.5 -5.83301 73.5 -17.5s38.167 -27 51.5 -46s23.166 -40 29.499 -63s9.5 -45.833 9.5 -68.5z" />
    <glyph glyph-name="r" unicode="r" horiz-adv-x="485" 
d="M335 309c0 -24.667 -7 -45.167 -21 -61.5s-34.333 -24.5 -61 -24.5h-57v174h57c26.667 0 47 -8.33301 61 -25s21 -37.667 21 -63zM292 188c36.667 4.66699 66.001 18.335 88.001 41.002s33 49.334 33 80.001c0 36.667 -14.167 66.5 -42.5 89.5s-67.5 34.5 -117.5 34.5
h-207v-20c18 0 32 -1.5 42 -4.5s17.667 -8.33301 23 -16s9 -18.834 11 -33.501s3 -35.334 3 -62.001v-160c0 -26.667 -1 -47.334 -3 -62.001s-5.66699 -26 -11 -34s-13 -13.5 -23 -16.5s-24 -4.5 -42 -4.5v-20h229v20c-18 0 -31.833 1.5 -41.5 4.5s-17.334 8.5 -23.001 16.5
s-9.5 19.333 -11.5 34s-3 35.334 -3 62.001v49h28l136 -186h128v20c-22.667 3.33301 -45.167 13.166 -67.5 29.499s-44.5 37.5 -66.5 63.5z" />
    <glyph glyph-name="s" unicode="s" horiz-adv-x="398" 
d="M353 120c0 21.333 -6.33203 42.1689 -18.999 62.502s-32.334 37.166 -59.001 50.499l-67 35c-32.667 17.333 -55.334 31.833 -68.001 43.5s-19 25.834 -19 42.501c0 18 6.83301 32.167 20.5 42.5s30.834 15.5 51.501 15.5c17.333 0 32.333 -3.83301 45 -11.5
s23.167 -17.834 31.5 -30.501s14.833 -26.5 19.5 -41.5s7.66699 -30.833 9 -47.5h20v169h-20c-1.33301 -10 -6 -20 -14 -30l-1 -1c-12 8.66699 -26 15.834 -42 21.501s-33.667 8.5 -53 8.5c-35.333 0 -65 -11 -89 -33s-36 -49 -36 -81c0 -26.667 7.5 -50.334 22.5 -71.001
s35.167 -37.667 60.5 -51l68 -35c54.667 -27.333 82 -57 82 -89c0 -20.667 -7.33301 -37 -22 -49s-33 -18 -55 -18c-38 0 -69.333 11.667 -94 35s-39 56 -43 98h-20v-172h18c1.33301 7.33301 3.83301 14.166 7.5 20.499s7.5 11.833 11.5 16.5
c14 -9.33301 30.5 -17.833 49.5 -25.5s39.833 -11.5 62.5 -11.5c39.333 0 72.833 12.833 100.5 38.5s41.5 58.5 41.5 98.5z" />
    <glyph glyph-name="t" unicode="t" horiz-adv-x="464" 
d="M198 394l-0.00195312 -257c0 -26 -1.16699 -46.5 -3.5 -61.5s-6.16602 -26.5 -11.499 -34.5s-13 -13.5 -23 -16.5s-24 -4.5 -42 -4.5v-20h230v20c-18 0 -32 1.5 -42 4.5s-17.667 8.5 -23 16.5s-9.16602 19.5 -11.499 34.5s-3.5 35.5 -3.5 61.5v257h52
c43.333 0 71.833 -4.33301 85.5 -13s23.834 -25.667 30.501 -51l5 -20h21l-7 123h-446l-6 -123h20l5 20c3.33301 14 6.83301 24.667 10.5 32s9.16699 13.333 16.5 18s17.666 8.16699 30.999 10.5s31.333 3.5 54 3.5h58z" />
    <glyph glyph-name="u" unicode="u" horiz-adv-x="573" 
d="M179 155l0.00195312 142.004c0 26 1.16699 46.5 3.5 61.5s6.16602 26.333 11.499 34s13 13 23 16s23.667 4.5 41 4.5v20h-229v-20c18 0 32 -1.5 42 -4.5s17.667 -8.33301 23 -16s9 -18.834 11 -33.501s3 -35.334 3 -62.001v-135c0 -56 16.833 -99.667 50.5 -131
s76.167 -47 127.5 -47s94 15.667 128 47s51 75 51 131v135c0 26 1.16699 46.5 3.5 61.5s6.16602 26.333 11.499 34s13 13 23 16s23.667 4.5 41 4.5v20h-204v-20c18 0 32 -1.5 42 -4.5s17.667 -8.33301 23 -16s9 -18.834 11 -33.501s3 -35.334 3 -62.001v-142
c0 -42 -11.167 -73.667 -33.5 -95s-51.833 -32 -88.5 -32c-36 0 -64.667 10.667 -86 32s-32 53 -32 95z" />
    <glyph glyph-name="v" unicode="v" horiz-adv-x="514" 
d="M514 413l0.00195312 19.998h-188v-20c25.333 0 43.166 -2 53.499 -6s15.5 -11 15.5 -21c0 -9.33301 -5.33301 -25.666 -16 -48.999l-101 -236l-102 236c-8.66699 20.667 -13 36 -13 46c0 10.667 5.16699 18.334 15.5 23.001s27.5 7 51.5 7v20h-224v-20
c14 0 25.167 -1.16699 33.5 -3.5s15.833 -6.33301 22.5 -12s13 -14.167 19 -25.5s13.333 -27 22 -47l148 -342h13l148 342c9.33301 21.333 16.666 37.333 21.999 48s11.333 19 18 25s14.667 10 24 12s22 3 38 3z" />
    <glyph glyph-name="w" unicode="w" horiz-adv-x="664" 
d="M358 433l-19.002 0.000976562l-101 -300l-67 204c-6 17.333 -9 31 -9 41c0 13.333 5 22.5 15 27.5s26 7.5 48 7.5v20h-222v-20c29.333 0 50 -5.5 62 -16.5s24 -34.833 36 -71.5l111 -342h13l104 313l102 -313h13l114 342c6.66699 19.333 12.834 34.5 18.501 45.5
s12 19.667 19 26s15.667 10.666 26 12.999s23.5 3.5 39.5 3.5v20h-188v-20c22.667 0 38.834 -2.5 48.501 -7.5s14.5 -13.5 14.5 -25.5c0 -10 -3.33301 -24.333 -10 -43l-69 -204z" />
    <glyph glyph-name="x" unicode="x" horiz-adv-x="513" 
d="M245 180l58 -83c18 -26 27 -44.333 27 -55c0 -14 -17.333 -21 -52 -21v-21h224v21c-24 0 -44.167 6 -60.5 18s-36.5 35 -60.5 69l-91 130l70 87c26.667 34 48.167 57.167 64.5 69.5s36.5 18.5 60.5 18.5v20h-188v-20c36.667 0 55 -7.33301 55 -22
c0 -11.333 -9.66699 -29.333 -29 -54l-55 -69l-47 69c-17.333 25.333 -26 43.333 -26 54c0 14.667 17.333 22 52 22v20h-224v-20c25.333 0 45.5 -5.83301 60.5 -17.5s34.833 -35.167 59.5 -70.5l80 -113l-82 -104c-26.667 -33.333 -48.5 -56.166 -65.5 -68.499
s-36.833 -18.5 -59.5 -18.5v-21h188v21c-35.333 0 -53 8 -53 24c0 11.333 9 28.666 27 51.999z" />
    <glyph glyph-name="y" unicode="y" horiz-adv-x="483" 
d="M283 179l98.998 146.001c23.333 34 42.833 57.167 58.5 69.5s36.834 18.5 63.501 18.5v20h-188v-20c37.333 0 56 -6.66699 56 -20c0 -10.667 -9.33301 -29.334 -28 -56.001l-77 -115l-78 115c-16.667 24 -25 41.667 -25 53c0 15.333 18 23 54 23v20h-222v-20
c25.333 0 45.166 -5.66699 59.499 -17s33.5 -35 57.5 -71l100 -147v-41c0 -26 -1.16699 -46.5 -3.5 -61.5s-6.16602 -26.5 -11.499 -34.5s-13 -13.5 -23 -16.5s-24 -4.5 -42 -4.5v-20h230v20c-18 0 -32 1.5 -42 4.5s-17.667 8.5 -23 16.5s-9.16602 19.5 -11.499 34.5
s-3.5 35.5 -3.5 61.5v42z" />
    <glyph glyph-name="z" unicode="z" horiz-adv-x="445" 
d="M288 397l-235 -374v-23h342l7 121h-21l-5 -20c-6.66699 -25.333 -16.834 -42.333 -30.501 -51s-42.167 -13 -85.5 -13h-115l240 383v13h-318l-7 -120h21l5 20c6.66699 25.333 16.834 42.333 30.501 51s42.167 13 85.5 13h86z" />
    <glyph glyph-name="braceleft" unicode="{" horiz-adv-x="358" 
d="M42 304l-0.00390625 -15.999l3 -1c17.333 -6 31 -11.667 41 -17s19 -13.666 27 -24.999s14.167 -27.5 18.5 -48.5s6.5 -48.5 6.5 -82.5c0 -30 4 -56 12 -78s18.833 -40.667 32.5 -56s28.5 -28.333 44.5 -39s36.667 -23 62 -37c14.667 -8 23.334 -13 26.001 -15l17 21
c-22.667 16 -41 29.5 -55 40.5s-26.167 23.833 -36.5 38.5s-18.333 31.834 -24 51.501s-8.5 43.5 -8.5 71.5c0 35.333 -2 64.333 -6 87s-10.167 40.167 -18.5 52.5s-18.666 21.666 -30.999 27.999s-28.5 11.833 -48.5 16.5c20 4.66699 36.167 10.167 48.5 16.5
s22.666 15.833 30.999 28.5s14.5 30.167 18.5 52.5s6 51.166 6 86.499c0 28 2.83301 52 8.5 72s13.667 37 24 51s22.5 26.667 36.5 38s32.333 25 55 41l-17 21c-1.33301 -0.666992 -9.66602 -5.33398 -24.999 -14.001c-25.333 -14 -46.166 -26.333 -62.499 -37
s-31.333 -23.834 -45 -39.501s-24.5 -34.5 -32.5 -56.5s-12 -48 -12 -78c0 -34 -2.16699 -61.5 -6.5 -82.5s-10.333 -37.167 -18 -48.5s-16.667 -19.666 -27 -24.999s-24.166 -11 -41.499 -17z" />
    <glyph glyph-name="bar" unicode="|" horiz-adv-x="467" 
d="M268 138l-0.00292969 479l-166 -34v-20c38.667 0 64.334 -6.5 77.001 -19.5s19 -42.833 19 -89.5v-316c0 -26 -1.16699 -46.5 -3.5 -61.5s-6.16602 -26.5 -11.499 -34.5s-13 -13.5 -23 -16.5s-24 -4.5 -42 -4.5v-21h230v21c-18 0 -32 1.5 -42 4.5s-17.667 8.5 -23 16.5
s-9.16602 19.5 -11.499 34.5s-3.5 35.5 -3.5 61.5z" />
    <glyph glyph-name="braceright" unicode="}" horiz-adv-x="358" 
d="M317 288v16.001l-2 1c-18 6 -32.167 11.667 -42.5 17s-19.333 13.666 -27 24.999s-13.667 27.333 -18 48s-6.5 48.334 -6.5 83.001c0 30.667 -4 57 -12 79s-19 40.667 -33 56s-29 28.166 -45 38.499s-37 22.833 -63 37.5c-11.333 6 -19.666 10.667 -24.999 14l-16 -21
c23.333 -16 41.833 -29.5 55.5 -40.5s25.5 -23.667 35.5 -38s17.833 -31.5 23.5 -51.5s8.5 -44 8.5 -72c0 -35.333 2 -64.166 6 -86.499s10.167 -39.833 18.5 -52.5s18.666 -22.167 30.999 -28.5s28.5 -11.833 48.5 -16.5c-20 -4.66699 -36 -10.167 -48 -16.5
s-22.333 -15.833 -31 -28.5s-15 -30.167 -19 -52.5s-6 -51.166 -6 -86.499c0 -28 -2.83301 -52 -8.5 -72s-13.5 -37.167 -23.5 -51.5s-21.833 -27 -35.5 -38s-32.167 -24.5 -55.5 -40.5l16 -21c7.33301 4 16 8.66699 26 14c26 14.667 47 27.167 63 37.5
s30.833 23.166 44.5 38.499s24.5 34.166 32.5 56.499s12 48.5 12 78.5c0 34.667 2.16699 62.5 6.5 83.5s10.333 37 18 48s16.667 19.167 27 24.5s24.5 11 42.5 17z" />
    <glyph glyph-name="asciitilde" unicode="~" horiz-adv-x="423" 
d="M298 258c-10.667 0 -22.001 2.99902 -34.001 8.99902s-27.333 14.667 -46 26c-20 12 -36.667 21.167 -50 27.5s-26 9.5 -38 9.5c-24 0 -44.333 -12 -61 -36s-25 -55 -25 -93h21c4 16.667 11.5 31.167 22.5 43.5s22.167 18.5 33.5 18.5c8 0 17.667 -2.83301 29 -8.5
s26.666 -14.167 45.999 -25.5c21.333 -13.333 38.833 -23.333 52.5 -30s25.834 -10 36.501 -10c28 0 50.333 11.833 67 35.5s25 55.834 25 96.501h-21c-5.33301 -20 -12.666 -35.5 -21.999 -46.5s-21.333 -16.5 -36 -16.5z" />
    <glyph glyph-name="nbspace" unicode="&#xa0;" horiz-adv-x="233" 
 />
    <glyph glyph-name="exclamdown" unicode="&#xa1;" 
d="M253 0l0.000976562 21.999c-24 0 -39.333 4.83301 -46 14.5s-10 31.834 -10 66.501v231l-127 -26v-20c28 0 46.5 -4.16699 55.5 -12.5s13.5 -29.166 13.5 -62.499v-110c0 -34.667 -3.33301 -56.834 -10 -66.501s-22.334 -14.5 -47.001 -14.5v-22h171z" />
    <glyph glyph-name="cent" unicode="&#xa2;" 
d="M296 194h-21l-4 -16c-5.33301 -20 -11.833 -33.5 -19.5 -40.5s-18.834 -10.833 -33.501 -11.5v213h-24l-172 -229v-17h139c0 -30 -3.5 -49.333 -10.5 -58s-22.833 -13 -47.5 -13v-22h172v22c-23.333 0 -38.666 4.33301 -45.999 13s-11 28 -11 58h72zM161 126h-89l89 118
v-118z" />
    <glyph glyph-name="sterling" unicode="&#xa3;" 
d="M289 92c0 22 -8 42.666 -24 61.999s-36.667 33.333 -62 42l79 94v23h-216l-18 -103h22l5 18c3.33301 14 10.333 23.667 21 29s24.667 8 42 8h86l-99 -104c-6 -6 -9 -12 -9 -18c0 -12 6 -18 18 -18c10 0 18 5.66699 24 17c8 12 13.333 19.333 16 22
c17.333 -2.66699 31.333 -11 42 -25s16 -29.667 16 -47c0 -21.333 -6 -39.833 -18 -55.5s-29.333 -23.5 -52 -23.5c-18.667 0 -32.667 3.5 -42 10.5s-18 16.5 -26 28.5s-15 18 -21 18c-13.333 0 -20 -6 -20 -18c0 -15.333 10 -30.666 30 -45.999s46.333 -23 79 -23
c36 0 66.167 10.667 90.5 32s36.5 47 36.5 77z" />
    <glyph glyph-name="currency" unicode="&#xa4;" 
d="M289 335l-159 0.00292969l89 79c18 15.333 32.5 31.166 43.5 47.499s16.5 35.166 16.5 56.499c0 29.333 -12.167 53.166 -36.5 71.499s-53.166 27.5 -86.499 27.5c-34.667 0 -62.667 -9.33301 -84 -28s-32 -40.667 -32 -66c0 -30 14 -54.667 42 -74l26 25
c-10.667 16 -16 31.333 -16 46c0 17.333 6.33301 31.5 19 42.5s27 16.5 43 16.5c21.333 0 38.166 -5.83301 50.499 -17.5s18.5 -27.167 18.5 -46.5c0 -18.667 -3.16699 -34.167 -9.5 -46.5s-17.833 -25.833 -34.5 -40.5l-132 -119v-22h233z" />
    <glyph glyph-name="yen" unicode="&#xa5;" horiz-adv-x="625" 
d="M353 234l121.997 -0.000976562v44h-98l141 214c22.667 34 42.834 57 60.501 69s45.834 18 84.501 18v21h-234v-21c49.333 0 74 -9.66699 74 -29c0 -10.667 -6.66699 -26.334 -20 -47.001l-146 -220l-144 220c-12 18.667 -18 33.334 -18 44.001s5.66699 18.667 17 24
s29.666 8 54.999 8v21h-285v-21c34.667 0 62 -6.16699 82 -18.5s41 -35.166 63 -68.499l138 -214h-122v-44h150v-46h-150v-44h150v-6c0 -26.667 -1.16699 -47.334 -3.5 -62.001s-6.66602 -26 -12.999 -34s-15.5 -13.5 -27.5 -16.5s-29 -4.5 -51 -4.5v-21h270v21
c-22 0 -39 1.5 -51 4.5s-21.167 8.5 -27.5 16.5s-10.666 19.333 -12.999 34s-3.5 35.334 -3.5 62.001v6h122v44h-122v46z" />
    <glyph glyph-name="brokenbar" unicode="&#xa6;" horiz-adv-x="211" 
d="M128 708h-45v-300h45v300zM128 300h-45v-300h45v300z" />
    <glyph glyph-name="section" unicode="&#xa7;" 
d="M291 88c0 28 -12.1641 52.3311 -36.4971 72.998s-52.833 31 -85.5 31c-10.667 0 -21.834 -1.83301 -33.501 -5.5s-21.834 -8.5 -30.501 -14.5c4 35.333 12.5 65.166 25.5 89.499s30.833 36.5 53.5 36.5c11.333 0 20.5 -2 27.5 -6s14.167 -10 21.5 -18
c8.66699 -8 15.334 -12 20.001 -12s9 1.66699 13 5s6 7 6 11c0 12 -8.66699 23.667 -26 35s-38.333 17 -63 17c-21.333 0 -40.333 -5.5 -57 -16.5s-30.834 -26 -42.501 -45s-20.5 -40 -26.5 -63s-9 -46.167 -9 -69.5c0 -30 4.16699 -55.167 12.5 -75.5
s19.166 -36.166 32.499 -47.499s27 -19.166 41 -23.499s27.667 -6.5 41 -6.5c32 0 59.333 10.333 82 31s34 45.334 34 74.001zM233.003 87.998c0 -19.333 -5 -36.667 -15 -52s-24.333 -23 -43 -23c-19.333 0 -36 10.167 -50 30.5s-21.333 47.833 -22 82.5
c4.66699 10.667 13.167 19.5 25.5 26.5s25.833 10.5 40.5 10.5c19.333 0 34.833 -8 46.5 -24s17.5 -33 17.5 -51z" />
    <glyph glyph-name="dieresis" unicode="&#xa8;" horiz-adv-x="310" 
d="M71 662c-10.667 0 -19.834 -3.83301 -27.501 -11.5s-11.5 -16.834 -11.5 -27.501c0 -11.333 3.83301 -20.833 11.5 -28.5s16.834 -11.5 27.501 -11.5s19.834 3.83301 27.501 11.5s11.5 17.167 11.5 28.5c0 10.667 -3.83301 19.834 -11.5 27.501
s-16.834 11.5 -27.501 11.5zM237 662c-10.667 0 -19.834 -3.83301 -27.501 -11.5s-11.5 -16.834 -11.5 -27.501c0 -11.333 3.83301 -20.833 11.5 -28.5s16.834 -11.5 27.501 -11.5s19.834 4 27.501 12s11.5 17.333 11.5 28s-3.83301 19.834 -11.5 27.501
s-16.834 11.5 -27.501 11.5z" />
    <glyph glyph-name="copyright" unicode="&#xa9;" horiz-adv-x="683" 
d="M342 617c-43.333 0 -84.166 -8.16992 -122.499 -24.5029s-72.166 -39.166 -101.499 -68.499s-52.166 -63.166 -68.499 -101.499s-24.5 -79.166 -24.5 -122.499s8.16699 -84.166 24.5 -122.499s39.166 -72.166 68.499 -101.499s63.166 -52.166 101.499 -68.499
s79.166 -24.5 122.499 -24.5s84.166 8.16699 122.499 24.5s72 39.166 101 68.499s51.667 63.166 68 101.499s24.5 79.166 24.5 122.499s-8.16699 84.333 -24.5 123s-39 72.5 -68 101.5s-62.667 51.667 -101 68s-79.166 24.5 -122.499 24.5zM342 584.997
c38.667 0 75.335 -7.33203 110.002 -21.999s65.167 -35.167 91.5 -61.5s46.833 -56.833 61.5 -91.5s22 -71.334 22 -110.001s-7.33301 -75.334 -22 -110.001s-35.167 -65.167 -61.5 -91.5s-56.833 -46.833 -91.5 -61.5s-71.334 -22 -110.001 -22
s-75.334 7.33301 -110.001 22s-65.167 35.167 -91.5 61.5s-46.833 56.833 -61.5 91.5s-22 71.334 -22 110.001s7.33301 75.5 22 110.5s35 65.5 61 91.5s56.5 46.333 91.5 61s71.833 22 110.5 22zM506.001 104.998v157.004h-18
c-8.66699 -42.667 -24.667 -76.334 -48 -101.001s-52 -37 -86 -37c-24 0 -44.833 5.33301 -62.5 16s-31.834 24.667 -42.501 42s-18.5 36.166 -23.5 56.499s-7.5 40.833 -7.5 61.5c0 20 2.5 40.167 7.5 60.5s12.833 39.333 23.5 57s24.834 31.834 42.501 42.501
s38.5 16 62.5 16c34 0 62.667 -12.167 86 -36.5s39.333 -57.833 48 -100.5h18v156h-17c-1.33301 -8.66699 -3.66602 -17.334 -6.99902 -26.001s-6.33301 -14.667 -9 -18c-14 17.333 -32 31.5 -54 42.5s-43.667 16.5 -65 16.5c-27.333 0 -53.333 -5.5 -78 -16.5
s-46.334 -26.167 -65.001 -45.5s-33.334 -41.833 -44.001 -67.5s-16 -52.5 -16 -80.5c0 -28.667 5.33301 -55.834 16 -81.501s25.334 -48 44.001 -67s40.334 -34 65.001 -45s50.667 -16.5 78 -16.5c21.333 0 43 5.5 65 16.5s40 25.167 54 42.5
c2.66699 -2.66699 5.66699 -8.33398 9 -17.001s5.66602 -17.667 6.99902 -27h17z" />
    <glyph glyph-name="ordfeminine" unicode="&#xaa;" 
d="M288 178c0 30 -4.16699 55.001 -12.5 75.001s-19 35.5 -32 46.5s-26.833 18.833 -41.5 23.5s-28.334 7 -41.001 7c-32 0 -59.333 -10.167 -82 -30.5s-34 -44.833 -34 -73.5s12.167 -53.167 36.5 -73.5s52.833 -30.5 85.5 -30.5c10.667 0 21.834 1.83301 33.501 5.5
s21.834 8.5 30.501 14.5c-4 -35.333 -12.5 -65.333 -25.5 -90s-30.833 -37 -53.5 -37c-11.333 0 -20.5 2.16699 -27.5 6.5s-14.167 10.166 -21.5 17.499c-8.66699 8.66699 -15.334 13 -20.001 13s-9 -1.66699 -13 -5s-6 -7.33301 -6 -12c0 -11.333 8.66699 -22.833 26 -34.5
s38.333 -17.5 63 -17.5c21.333 0 40.5 5.66699 57.5 17s31.167 26.5 42.5 45.5s20 40 26 63s9 46.167 9 69.5zM233 188.001c-4.66699 -10.667 -13.167 -19.502 -25.5 -26.502s-25.833 -10.5 -40.5 -10.5c-19.333 0 -34.833 7.83301 -46.5 23.5s-17.5 32.834 -17.5 51.501
s5 35.834 15 51.501s24.333 23.5 43 23.5c19.333 0 36 -10.167 50 -30.5s21.333 -47.833 22 -82.5z" />
    <glyph glyph-name="guillemotleft" unicode="&#xab;" horiz-adv-x="667" 
d="M428 68l-233 200l233 200l-15 17l-330 -217l330 -218zM579 122l-174 146l174 146l-11 19l-275 -165l275 -166z" />
    <glyph glyph-name="logicalnot" unicode="&#xac;" horiz-adv-x="570" 
d="M459 295h-376v-44h332v-128h44v172z" />
    <glyph glyph-name="minus" unicode="&#xad;" horiz-adv-x="458" 
d="M375 208v44h-292v-44h292z" />
    <glyph glyph-name="minus" unicode="&#x2212;" horiz-adv-x="458" 
d="M375 208v44h-292v-44h292z" />
    <glyph glyph-name="registered" unicode="&#xae;" horiz-adv-x="683" 
d="M342 617c-43.333 0 -84.166 -8.16992 -122.499 -24.5029s-72.166 -39.166 -101.499 -68.499s-52.166 -63.166 -68.499 -101.499s-24.5 -79.166 -24.5 -122.499s8.16699 -84.166 24.5 -122.499s39.166 -72.166 68.499 -101.499s63.166 -52.166 101.499 -68.499
s79.166 -24.5 122.499 -24.5s84.166 8.16699 122.499 24.5s72 39.166 101 68.499s51.667 63.166 68 101.499s24.5 79.166 24.5 122.499s-8.16699 84.333 -24.5 123s-39 72.5 -68 101.5s-62.667 51.667 -101 68s-79.166 24.5 -122.499 24.5zM428 382.997
c0 -22.667 -6.5 -41.333 -19.5 -56s-31.5 -22 -55.5 -22h-59v157h59c24 0 42.5 -7.5 55.5 -22.5s19.5 -33.833 19.5 -56.5zM550 104.998c-26.667 -28 -57.999 -49.999 -93.999 -65.999s-74 -24 -114 -24c-38.667 0 -75.334 7.33301 -110.001 22s-65.167 35.167 -91.5 61.5
s-46.833 56.833 -61.5 91.5s-22 71.334 -22 110.001s7.33301 75.5 22 110.5s35 65.5 61 91.5s56.5 46.333 91.5 61s71.833 22 110.5 22s75.334 -7.33301 110.001 -22s65.167 -35.167 91.5 -61.5s46.833 -56.833 61.5 -91.5s22 -71.334 22 -110.001
c0 -32.667 -5.33301 -64 -16 -94s-26 -57.667 -46 -83c-18.667 0 -39 8.16699 -61 24.5s-43 36.5 -63 60.5l-57 66c33.333 4.66699 59.833 17 79.5 37s29.5 44 29.5 72c0 32.667 -12.333 59.5 -37 80.5s-57.334 31.5 -98.001 31.5h-195v-18c30 0 49.5 -6.33301 58.5 -19
s13.5 -41.334 13.5 -86.001v-144c0 -44.667 -4.5 -73.334 -13.5 -86.001s-28.5 -19 -58.5 -19v-18h202v18c-30 0 -49.333 6.33301 -58 19s-13 41.334 -13 86.001v45h31l125 -168h100z" />
    <glyph glyph-name="macron" unicode="&#xaf;" horiz-adv-x="258" 
d="M203 621v23h-181v-23h181z" />
    <glyph glyph-name="degree" unicode="&#xb0;" 
d="M294 370c0 22.667 -7.33105 40.8311 -21.998 54.498s-35.334 26.834 -62.001 39.501c19.333 8.66699 35.333 19.167 48 31.5s19 26.5 19 42.5c0 23.333 -10.667 42.333 -32 57s-47 22 -77 22c-29.333 0 -54.666 -8.5 -75.999 -25.5s-32 -37.167 -32 -60.5
c0 -15.333 5.33301 -29 16 -41s24.667 -23.333 42 -34c-22.667 -9.33301 -40.834 -21.166 -54.501 -35.499s-20.5 -32.833 -20.5 -55.5c0 -27.333 12.167 -50 36.5 -68s53.833 -27 88.5 -27c35.333 0 65.166 9.66699 89.499 29s36.5 43 36.5 71zM222.002 538.997
c0 -12.667 -4.33105 -23.998 -12.998 -33.998s-19.334 -18.333 -32.001 -25c-19.333 9.33301 -34.666 18.666 -45.999 27.999s-17 19.666 -17 30.999c0 14.667 5.16699 26.5 15.5 35.5s23.166 13.5 38.499 13.5s28.166 -5 38.499 -15s15.5 -21.333 15.5 -34z
M239.004 361.999c0 -16.667 -6.49902 -31.5 -19.499 -44.5s-30.167 -19.5 -51.5 -19.5c-20.667 0 -37.667 6.5 -51 19.5s-20 27.833 -20 44.5c0 18 5 33 15 45s23 22.333 39 31c2.66699 -1.33301 7 -3.33301 13 -6c25.333 -12 44.166 -22.833 56.499 -32.5
s18.5 -22.167 18.5 -37.5z" />
    <glyph glyph-name="plusminus" unicode="&#xb1;" horiz-adv-x="458" 
d="M408 43h-358v-44h358v44zM251 268v140h-44v-140h-157v-44h157v-141h44v141h157v44h-157z" />
    <glyph glyph-name="twosuperior" unicode="&#xb2;" 
d="M289 335l-159 0.00292969l89 79c18 15.333 32.5 31.166 43.5 47.499s16.5 35.166 16.5 56.499c0 29.333 -12.167 53.166 -36.5 71.499s-53.166 27.5 -86.499 27.5c-34.667 0 -62.667 -9.33301 -84 -28s-32 -40.667 -32 -66c0 -30 14 -54.667 42 -74l26 25
c-10.667 16 -16 31.333 -16 46c0 17.333 6.33301 31.5 19 42.5s27 16.5 43 16.5c21.333 0 38.166 -5.83301 50.499 -17.5s18.5 -27.167 18.5 -46.5c0 -18.667 -3.16699 -34.167 -9.5 -46.5s-17.833 -25.833 -34.5 -40.5l-132 -119v-22h233z" />
    <glyph glyph-name="threesuperior" unicode="&#xb3;" 
d="M289 378c0 22.667 -7.99902 43.667 -23.999 63s-36.667 33.333 -62 42l79 94v23h-216l-18 -103h22l5 17c3.33301 14 10.5 23.833 21.5 29.5s24.833 8.5 41.5 8.5h86l-99 -104c-6 -6 -9 -12 -9 -18c0 -12 6 -18 18 -18c10 0 18 5.33301 24 16
c7.33301 12 12.666 19.667 15.999 23c17.333 -3.33301 31.333 -11.833 42 -25.5s16 -29.5 16 -47.5c0 -21.333 -6 -39.666 -18 -54.999s-29.333 -23 -52 -23c-18.667 0 -32.667 3.5 -42 10.5s-18 16.5 -26 28.5s-15 18 -21 18c-13.333 0 -20 -6.33301 -20 -19
c0 -14.667 10 -29.667 30 -45s46.333 -23 79 -23c36 0 66.167 10.667 90.5 32s36.5 46.666 36.5 75.999z" />
    <glyph glyph-name="acute" unicode="&#xb4;" horiz-adv-x="227" 
d="M173 643c0 6.66699 -2.5 13.167 -7.5 19.5s-11.833 9.5 -20.5 9.5c-7.33301 0 -13.833 -1.66699 -19.5 -5s-13.5 -9.33301 -23.5 -18l-1 -1l-93 -87l5 -7l137 59c5.33301 2.66699 10.5 6.66699 15.5 12s7.5 11.333 7.5 18z" />
    <glyph glyph-name="mu" unicode="&#xb5;" horiz-adv-x="522" 
d="M169 -8c18 -6 35.667 -8.99512 53 -8.99512c26 0 50.333 6.5 73 19.5s42 27.833 58 44.5c2 -10.667 4.66699 -22.834 8 -36.501s6 -22.834 8 -27.501l134 25v21c-18 0 -32 1.5 -42 4.5s-17.667 8.5 -23 16.5s-9.16602 19.5 -11.499 34.5s-3.5 35.5 -3.5 61.5v187h-150
v-20c18 0 32 -1.5 42 -4.5s17.667 -8.5 23 -16.5s9.16602 -19.5 11.499 -34.5s3.5 -35.5 3.5 -61.5v-66c0 -14.667 -3.5 -28.167 -10.5 -40.5s-16 -22.833 -27 -31.5s-22.167 -15.334 -33.5 -20.001s-21 -7 -29 -7c-30.667 0 -52.334 9.16699 -65.001 27.5
s-19 44.833 -19 79.5v195h-150v-20c18 0 32 -1.5 42 -4.5s17.667 -8.5 23 -16.5s9 -19.333 11 -34s3 -35.334 3 -62.001v-245c0 -26.667 -1 -47.334 -3 -62.001s-5.66699 -26 -11 -34s-13 -13.5 -23 -16.5s-24 -4.5 -42 -4.5v-21h229v21c-17.333 0 -31 1.5 -41 4.5
s-17.667 8.5 -23 16.5s-9.16602 19.5 -11.499 34.5s-3.5 35.5 -3.5 61.5v41z" />
    <glyph glyph-name="paragraph" unicode="&#xb6;" 
d="M300 290l-0.00195312 23h-243l-19 -103h23l4 18c4 14 11.333 23.667 22 29s24.334 8 41.001 8h128l-148 -233c-6 -10 -9 -19 -9 -27c0 -12.667 6 -21 18 -25c0.666992 0 2.33398 -0.333008 5.00098 -1h4c7.33301 0 13.5 2.66699 18.5 8s10.5 14 16.5 26z" />
    <glyph glyph-name="periodcentered" unicode="&#xb7;" 
d="M288 464c0 30 -4.16602 55.1699 -12.499 75.5029s-19.166 36.166 -32.499 47.499s-27 19.166 -41 23.499s-27.667 6.5 -41 6.5c-32 0 -59.333 -10.167 -82 -30.5s-34 -44.833 -34 -73.5s12.333 -53.334 37 -74.001s53 -31 85 -31c11.333 0 22.666 2 33.999 6
s21.333 8.66699 30 14c-4 -35.333 -12.5 -65.166 -25.5 -89.499s-30.833 -36.5 -53.5 -36.5c-11.333 0 -20.5 2.16699 -27.5 6.5s-14.167 10.166 -21.5 17.499c-8.66699 8 -15.334 12 -20.001 12s-9 -1.5 -13 -4.5s-6 -6.83301 -6 -11.5c0 -11.333 8.66699 -22.833 26 -34.5
s38.333 -17.5 63 -17.5c21.333 0 40.5 5.66699 57.5 17s31.167 26.333 42.5 45s20 39.5 26 62.5s9 46.167 9 69.5zM233.001 474.003c-4.66699 -10.667 -13.167 -19.334 -25.5 -26.001s-25.833 -10 -40.5 -10c-19.333 0 -34.833 7.83301 -46.5 23.5
s-17.5 32.834 -17.5 51.501s5 35.834 15 51.501s24.333 23.5 43 23.5c19.333 0 36 -10.333 50 -31s21.333 -48.334 22 -83.001z" />
    <glyph glyph-name="periodcentered" unicode="&#x2219;" 
d="M288 464c0 30 -4.16602 55.1699 -12.499 75.5029s-19.166 36.166 -32.499 47.499s-27 19.166 -41 23.499s-27.667 6.5 -41 6.5c-32 0 -59.333 -10.167 -82 -30.5s-34 -44.833 -34 -73.5s12.333 -53.334 37 -74.001s53 -31 85 -31c11.333 0 22.666 2 33.999 6
s21.333 8.66699 30 14c-4 -35.333 -12.5 -65.166 -25.5 -89.499s-30.833 -36.5 -53.5 -36.5c-11.333 0 -20.5 2.16699 -27.5 6.5s-14.167 10.166 -21.5 17.499c-8.66699 8 -15.334 12 -20.001 12s-9 -1.5 -13 -4.5s-6 -6.83301 -6 -11.5c0 -11.333 8.66699 -22.833 26 -34.5
s38.333 -17.5 63 -17.5c21.333 0 40.5 5.66699 57.5 17s31.167 26.333 42.5 45s20 39.5 26 62.5s9 46.167 9 69.5zM233.001 474.003c-4.66699 -10.667 -13.167 -19.334 -25.5 -26.001s-25.833 -10 -40.5 -10c-19.333 0 -34.833 7.83301 -46.5 23.5
s-17.5 32.834 -17.5 51.501s5 35.834 15 51.501s24.333 23.5 43 23.5c19.333 0 36 -10.333 50 -31s21.333 -48.334 22 -83.001z" />
    <glyph glyph-name="cedilla" unicode="&#xb8;" horiz-adv-x="218" 
d="M199 -126c0 24.667 -8.83301 43.668 -26.5 57.001s-36.834 20.333 -57.501 21l75 76h-45l-108 -107v-14c12.667 4 25.334 6 38.001 6c18 0 33 -3.5 45 -10.5s18 -16.5 18 -28.5c0 -11.333 -3 -21.333 -9 -30s-13.333 -15.834 -22 -21.501s-17 -10 -25 -13
s-17.667 -6.5 -29 -10.5v0v-27c10.667 1.33301 23.834 4 39.501 8s31.667 10 48 18s30.166 18.5 41.499 31.5s17 27.833 17 44.5z" />
    <glyph glyph-name="onesuperior" unicode="&#xb9;" 
d="M253 287l0.000976562 21c-24 0 -39.333 4.83301 -46 14.5s-10 31.834 -10 66.501v232l-127 -26v-21c28 0 46.5 -4.5 55.5 -13.5s13.5 -29.5 13.5 -61.5v-110c0 -34.667 -3.33301 -56.834 -10 -66.501s-22.334 -14.5 -47.001 -14.5v-21h171z" />
    <glyph glyph-name="ordmasculine" unicode="&#xba;" 
d="M294 157c0 23.333 -3.16797 45.5 -9.50098 66.5s-15.333 39.5 -27 55.5s-25.167 28.5 -40.5 37.5s-31.666 13.5 -48.999 13.5s-33.666 -4.5 -48.999 -13.5s-28.666 -21.5 -39.999 -37.5s-20.333 -34.5 -27 -55.5s-10 -43.167 -10 -66.5s3.16699 -45.5 9.5 -66.5
s15.333 -39.667 27 -56s25.167 -29 40.5 -38s31.666 -13.5 48.999 -13.5s33.666 4.5 48.999 13.5s28.833 21.667 40.5 38s20.667 35 27 56s9.5 43.167 9.5 66.5zM235.999 157c0 -40.667 -5.83301 -74.667 -17.5 -102s-28.5 -41 -50.5 -41s-38.667 13.5 -50 40.5
s-17 61.167 -17 102.5s5.66699 75.333 17 102s28 40 50 40c22.667 0 39.667 -13.5 51 -40.5s17 -60.833 17 -101.5z" />
    <glyph glyph-name="guillemotright" unicode="&#xbb;" horiz-adv-x="667" 
d="M583 268l-329 217l-15 -17l233 -200l-233 -200l15 -18zM373 268l-274 165l-11 -19l174 -146l-174 -146l11 -20z" />
    <glyph glyph-name="onequarter" unicode="&#xbc;" horiz-adv-x="853" 
d="M636 600l-36 18l-383 -618l36 -18zM779 194h-21l-4 -16c-5.33301 -20 -11.833 -33.5 -19.5 -40.5s-18.5 -10.833 -32.5 -11.5v213h-24l-173 -229v-17h139c0 -30 -3.5 -49.333 -10.5 -58s-22.5 -13 -46.5 -13v-22h171v22c-23.333 0 -38.5 4.33301 -45.5 13
s-10.5 28 -10.5 58h71zM644 126h-89l89 118v-118zM270 287v21c-24 0 -39.5 4.83301 -46.5 14.5s-10.5 31.834 -10.5 66.501v232l-126 -26v-21c28 0 46.5 -4.5 55.5 -13.5s13.5 -29.5 13.5 -61.5v-110c0 -34.667 -3.33301 -56.834 -10 -66.501s-22.667 -14.5 -48 -14.5v-21
h172z" />
    <glyph glyph-name="onehalf" unicode="&#xbd;" horiz-adv-x="853" 
d="M636 600l-36 18l-383 -618l36 -18zM781 48l-159.001 -0.00195312l89 80c18 16 32.5 32 43.5 48s16.5 34.333 16.5 55c0 30 -12 54 -36 72s-53 27 -87 27c-35.333 0 -63.666 -9.33301 -84.999 -28s-32 -40.667 -32 -66c0 -29.333 14 -53.666 42 -72.999l27 25
c-10.667 16 -16 31.667 -16 47c0 16.667 6 30.5 18 41.5s25.667 16.5 41 16.5c22.667 0 40.167 -5.66699 52.5 -17s18.5 -29 18.5 -53c0 -17.333 -3.83301 -32.666 -11.5 -45.999s-18.167 -25.333 -31.5 -36l-133 -118v-23h234zM269.999 286.998v21
c-24 0 -39.5 4.83301 -46.5 14.5s-10.5 31.834 -10.5 66.501v232l-126 -26v-21c28 0 46.5 -4.5 55.5 -13.5s13.5 -29.5 13.5 -61.5v-110c0 -34.667 -3.33301 -56.834 -10 -66.501s-22.667 -14.5 -48 -14.5v-21h172z" />
    <glyph glyph-name="threequarters" unicode="&#xbe;" horiz-adv-x="853" 
d="M636 600l-36 18l-383 -618l36 -18zM771 194h-21l-4 -16c-5.33301 -20 -11.833 -33.5 -19.5 -40.5s-18.834 -10.833 -33.501 -11.5v213h-24l-172 -229v-17h139c0 -30 -3.5 -49.333 -10.5 -58s-22.833 -13 -47.5 -13v-22h172v22c-23.333 0 -38.666 4.33301 -45.999 13
s-11 28 -11 58h72zM636 126h-89l89 118v-118zM306 378c0 22.667 -8.16602 43.667 -24.499 63s-37.166 33.333 -62.499 42l79 94v23h-215l-19 -103h23l5 17c2.66699 14 9.5 23.833 20.5 29.5s24.833 8.5 41.5 8.5h87l-99 -104c-6 -6 -9 -12 -9 -18c0 -12 6 -18 18 -18
c10 0 18 5.33301 24 16c7.33301 12 12.666 19.667 15.999 23c17.333 -3.33301 31.166 -11.833 41.499 -25.5s15.5 -29.5 15.5 -47.5c0 -21.333 -6 -39.666 -18 -54.999s-29.333 -23 -52 -23c-18.667 0 -32.667 3.5 -42 10.5s-18 16.5 -26 28.5s-15 18 -21 18
c-13.333 0 -20 -6.33301 -20 -19c0 -14.667 10.167 -29.667 30.5 -45s46.5 -23 78.5 -23c36.667 0 67.167 10.667 91.5 32s36.5 46.666 36.5 75.999z" />
    <glyph glyph-name="questiondown" unicode="&#xbf;" horiz-adv-x="504" 
d="M352 390c0 13.333 -4.5 24.6641 -13.5 33.9971s-20.167 14 -33.5 14s-24.666 -4.66699 -33.999 -14s-14 -20.666 -14 -33.999s4.66699 -24.666 14 -33.999s20.666 -14 33.999 -14s24.5 4.83301 33.5 14.5s13.5 20.834 13.5 33.501zM457 -71.002
c0 27.333 -7.83203 49.666 -23.499 66.999s-32.834 26 -51.501 26c-12 0 -23.5 -3.83301 -34.5 -11.5s-16.5 -18.834 -16.5 -33.501c0 -10.667 4 -19.834 12 -27.501s17.333 -11.5 28 -11.5c15.333 0 26.333 -2.33301 33 -7s10 -11 10 -19c0 -16.667 -10.667 -32 -32 -46
s-49.333 -21 -84 -21c-42.667 0 -79.167 11.333 -109.5 34s-45.5 53.334 -45.5 92.001c0 24 5.33301 44.667 16 62s25 31.333 43 42s37.833 18.5 59.5 23.5s43.834 7.5 66.501 7.5v164h-45v-94c-8.66699 -0.666992 -22.667 -3.16699 -42 -7.5s-42 -13.166 -68 -26.499
s-48.667 -33.166 -68 -59.499s-29 -59.833 -29 -100.5c0 -25.333 5.83301 -48.666 17.5 -69.999s27.5 -39.333 47.5 -54s42.833 -25.834 68.5 -33.501s52.167 -11.5 79.5 -11.5c47.333 0 87.166 11.333 119.499 34s48.5 50 48.5 82z" />
    <glyph glyph-name="Agrave" unicode="&#xc0;" horiz-adv-x="617" 
d="M342 681l-93.001 88c-9.33301 8 -17.166 13.833 -23.499 17.5s-13.5 5.5 -21.5 5.5c-8.66699 0 -15.5 -3.16699 -20.5 -9.5s-7.5 -12.833 -7.5 -19.5s2.5 -12.667 7.5 -18s10.167 -9.33301 15.5 -12l138 -58zM165.999 208h241.999l48 -111
c6.66699 -14.667 10 -26.667 10 -36c0 -14 -7 -24.167 -21 -30.5s-36.333 -9.5 -67 -9.5v-21h277v21c-20.667 0 -36.834 1.16699 -48.501 3.5s-21.167 6.33301 -28.5 12s-13.666 13.334 -18.999 23.001s-12 23.834 -20 42.501l-3 6l-221 509h-13l-220 -509l-3 -6
c-8 -18.667 -14.667 -32.834 -20 -42.501s-11.666 -17.334 -18.999 -23.001s-17 -9.66699 -29 -12s-28.333 -3.5 -49 -3.5v-21h234v21c-30.667 0 -53 3.16699 -67 9.5s-21 16.5 -21 30.5c0 9.33301 3.33301 21.333 10 36zM390.998 245h-209l104 241z" />
    <glyph glyph-name="Aacute" unicode="&#xc1;" 
d="M288 385c0 32 -11.4971 59.168 -34.4971 81.501s-51.5 33.5 -85.5 33.5c-12.667 0 -25.167 -2.83301 -37.5 -8.5s-21.833 -11.834 -28.5 -18.501l7 79h154l10 48h-195l-18 -188h33c4.66699 16.667 13.5 30.167 26.5 40.5s26.833 15.5 41.5 15.5c22 0 39 -8 51 -24
s18 -35.667 18 -59c0 -22.667 -6.83301 -42.667 -20.5 -60s-31.834 -26 -54.501 -26c-18.667 0 -32.334 3.5 -41.001 10.5s-16.334 16.5 -23.001 28.5c-7.33301 12.667 -14 19 -20 19c-14 0 -21 -6.66699 -21 -20c0 -15.333 9.5 -30.333 28.5 -45s44.5 -22 76.5 -22
c36.667 0 68 11.333 94 34s39 49.667 39 81z" />
    <glyph glyph-name="Acircumflex" unicode="&#xc2;" horiz-adv-x="287" 
d="M273 368c0 14 -4.66797 26.499 -14.001 37.499s-24.666 16.5 -45.999 16.5c-13.333 0 -26.833 -4.16699 -40.5 -12.5s-25.167 -19.166 -34.5 -32.499c-0.666992 8 -2.16699 16.5 -4.5 25.5s-4.16602 15.833 -5.49902 20.5l-103 -20v-20c24.667 0 40.5 -5 47.5 -15
s10.5 -32 10.5 -66v-36c0 -34.667 -3.5 -56.834 -10.5 -66.501s-22.833 -14.5 -47.5 -14.5v-22h172v22c-24.667 0 -40.334 4.83301 -47.001 14.5s-10 31.834 -10 66.501v39c0 25.333 6.16699 45.333 18.5 60s23.833 22 34.5 22c12.667 0 19 -7 19 -21
c0 -8 2.83301 -14.833 8.5 -20.5s12.5 -8.5 20.5 -8.5c10.667 0 18.667 3.33301 24 10s8 13.667 8 21z" />
    <glyph glyph-name="Atilde" unicode="&#xc3;" horiz-adv-x="617" 
d="M366 726c-7.33301 0 -15.667 2.16602 -25 6.49902s-21 10.833 -35 19.5c-15.333 10 -27.833 17.333 -37.5 22s-19.167 7 -28.5 7c-18 0 -33.167 -9.16699 -45.5 -27.5s-18.5 -41.833 -18.5 -70.5h15c3.33301 12.667 9 23.5 17 32.5s16.333 13.5 25 13.5
c6.66699 0 14.167 -2 22.5 -6s19.833 -10.667 34.5 -20c16 -9.33301 29 -16.5 39 -21.5s19 -7.5 27 -7.5c21.333 0 38.166 8.83301 50.499 26.5s18.5 41.834 18.5 72.501h-16c-7.33301 -31.333 -21.666 -47 -42.999 -47zM165.999 207.999h241.999l48 -111
c6.66699 -14.667 10 -26.667 10 -36c0 -14 -7 -24.167 -21 -30.5s-36.333 -9.5 -67 -9.5v-21h277v21c-20.667 0 -36.834 1.16699 -48.501 3.5s-21.167 6.33301 -28.5 12s-13.666 13.334 -18.999 23.001s-12 23.834 -20 42.501l-3 6l-221 509h-13l-220 -509l-3 -6
c-8 -18.667 -14.667 -32.834 -20 -42.501s-11.666 -17.334 -18.999 -23.001s-17 -9.66699 -29 -12s-28.333 -3.5 -49 -3.5v-21h234v21c-30.667 0 -53 3.16699 -67 9.5s-21 16.5 -21 30.5c0 9.33301 3.33301 21.333 10 36zM390.998 244.999h-209l104 241z" />
    <glyph glyph-name="Adieresis" unicode="&#xc4;" horiz-adv-x="307" 
d="M284 202l-17 20.998c-11.333 -10 -24.5 -18.333 -39.5 -25s-28.167 -10 -39.5 -10c-30.667 0 -53.667 8.5 -69 25.5s-23 39.5 -23 67.5v10c0.666992 6 1 9.66699 1 11h173c2.66699 9.33301 4 18 4 26c0 26.667 -10.167 49 -30.5 67s-44.833 27 -73.5 27
c-16.667 0 -33.334 -3.33301 -50.001 -10s-31.5 -16.167 -44.5 -28.5s-23.333 -26.666 -31 -42.999s-11.5 -34.166 -11.5 -53.499c0 -38 12.833 -70 38.5 -96s58.5 -39 98.5 -39c20.667 0 41.334 4.66699 62.001 14s38 21.333 52 36zM215 334.998h-112
c5.33301 16.667 13.5 29.5 24.5 38.5s25.167 13.5 42.5 13.5c14.667 0 26.167 -4.16699 34.5 -12.5s12.5 -17.833 12.5 -28.5c0 -4 -0.666992 -7.66699 -2 -11z" />
    <glyph glyph-name="Aring" unicode="&#xc5;" horiz-adv-x="293" 
d="M179 226c-14 -12.667 -25.833 -21.332 -35.5 -25.999s-18.5 -7 -26.5 -7s-14.833 2.66699 -20.5 8s-8.5 12.666 -8.5 21.999c0 18 7.16699 32.333 21.5 43s37.5 19.667 69.5 27v-67zM179 323.002c-46.667 -8.66699 -84 -21.167 -112 -37.5s-42 -38.833 -42 -67.5
c0 -19.333 6.66699 -34.833 20 -46.5s29.666 -17.5 48.999 -17.5c14 0 27.833 3 41.5 9s28.834 16 45.501 30c6 -24.667 23.333 -37 52 -37c19.333 0 36.333 8.33301 51 25l-14 20c-6.66699 -8.66699 -13.334 -13 -20.001 -13c-8.66699 0 -13 8 -13 24v109
c0 35.333 -8 61 -24 77s-42 24 -78 24c-25.333 0 -47.5 -5.83301 -66.5 -17.5s-28.5 -26.167 -28.5 -43.5c0 -8 2.83301 -14.667 8.5 -20s12.167 -8 19.5 -8s13.833 2.66699 19.5 8s8.5 12 8.5 20c0 10 4 17.667 12 23s16.667 8 26 8c18.667 0 30.834 -5 36.501 -15
s8.5 -28 8.5 -54z" />
    <glyph glyph-name="AE" unicode="&#xc6;" horiz-adv-x="758" 
d="M358 547v-261h-135zM204 249l153.997 -0.00292969v-111c0 -26.667 -1.16699 -47.334 -3.5 -62.001s-6.66602 -26 -12.999 -34s-15.5 -13.5 -27.5 -16.5s-29 -4.5 -51 -4.5v-21h440l8 133h-21l-5 -20c-7.33301 -29.333 -17.833 -49.333 -31.5 -60s-41.834 -16 -84.501 -16
h-36c-22 0 -39 1.5 -51 4.5s-21.167 8.33301 -27.5 16s-10.666 19 -12.999 34s-3.5 35.5 -3.5 61.5v96h12c26 0 45.833 -1.16699 59.5 -3.5s23.667 -6.66602 30 -12.999s10.333 -15.166 12 -26.499s2.5 -29 2.5 -53h21v229h-21c0 -23.333 -0.833008 -40.833 -2.5 -52.5
s-5.66699 -20.667 -12 -27s-16.333 -10.666 -30 -12.999s-33.5 -3.5 -59.5 -3.5h-12v277h98c42.667 0 70.667 -5.16699 84 -15.5s24 -30.166 32 -59.499l5 -20h21l-9 132h-325l-254 -492c-9.33301 -18 -18.166 -32.667 -26.499 -44s-17.5 -20 -27.5 -26
c-17.333 -11.333 -44.666 -17 -81.999 -17v-21h234v21c-26.667 0 -46 2.5 -58 7.5s-18 13.5 -18 25.5c0 10 4.66699 24.333 14 43z" />
    <glyph glyph-name="Ccedilla" unicode="&#xc7;" horiz-adv-x="525" 
d="M303 -16c22 2.66699 43.501 9.99902 64.501 21.999s38.167 26.333 51.5 43c3.33301 -3.33301 6.66602 -9.66602 9.99902 -18.999s6 -19.333 8 -30h19v174h-20c-9.33301 -44 -25.333 -79.333 -48 -106s-51 -41.667 -85 -45v388c34 -4 62.333 -19.167 85 -45.5
s38.667 -61.5 48 -105.5h20v173h-19c-2.66699 -10 -5.5 -19.833 -8.5 -29.5s-6.16699 -16.167 -9.5 -19.5c-12.667 17.333 -29.667 31.833 -51 43.5s-43 18.834 -65 21.501v168h-36v-169c-28.667 -2.66699 -55.5 -10.334 -80.5 -23.001s-47 -29.667 -66 -51
s-33.667 -45.333 -44 -72s-15.5 -55 -15.5 -85s5.16699 -58.5 15.5 -85.5s25 -51.167 44 -72.5s41 -38.5 66 -51.5s51.833 -20.833 80.5 -23.5v-167h36v167zM267.001 22.999c-22.667 2.66699 -42.167 10.334 -58.5 23.001s-29.333 28.334 -39 47.001s-16.667 38.667 -21 60
s-6.5 42.666 -6.5 63.999s2.16699 42.666 6.5 63.999s11.333 41.166 21 59.499s22.667 33.833 39 46.5s35.833 20.334 58.5 23.001v-387z" />
    <glyph glyph-name="Egrave" unicode="&#xc8;" horiz-adv-x="209" 
d="M146 522c0 9.33301 -3.5 17.5 -10.5 24.5s-15.167 10.5 -24.5 10.5s-17.333 -3.5 -24 -10.5s-10 -15.167 -10 -24.5s3.33301 -17.666 10 -24.999s14.667 -11 24 -11s17.5 3.66699 24.5 11s10.5 15.666 10.5 24.999zM197 163l0.000976562 22
c-24.667 0 -40.334 4.83301 -47.001 14.5s-10 31.834 -10 66.501v157l-115 -19v-21c24.667 0 40.5 -5 47.5 -15s10.5 -32 10.5 -66v-36c0 -34.667 -3.5 -56.834 -10.5 -66.501s-22.833 -14.5 -47.5 -14.5v-22h172z" />
    <glyph glyph-name="Eacute" unicode="&#xc9;" 
d="M296 481h-21l-4 -17c-5.33301 -20 -11.833 -33.5 -19.5 -40.5s-18.834 -10.5 -33.501 -10.5v213h-24l-172 -229v-18h139c0 -30 -3.5 -49.333 -10.5 -58s-22.833 -13 -47.5 -13v-21h172v21c-23.333 0 -38.666 4.33301 -45.999 13s-11 28 -11 58h72zM161 413h-89l89 118
v-118z" />
    <glyph glyph-name="Ecircumflex" unicode="&#xca;" horiz-adv-x="216" 
d="M207 197l-18 16c-17.333 -17.333 -32.666 -26 -45.999 -26c-20 0 -30 16.333 -30 49v142h63v32h-63v78h-30c-2.66699 -25.333 -8.83398 -45 -18.501 -59s-25.167 -23.333 -46.5 -28v-23h38v-142c0 -28 6.33301 -49 19 -63s30.667 -21 54 -21c11.333 0 24.333 4 39 12
s27.667 19 39 33z" />
    <glyph glyph-name="Edieresis" unicode="&#xcb;" 
d="M291 374c0 28.667 -12.1641 53.1641 -36.4971 73.4971s-52.833 30.5 -85.5 30.5c-10.667 0 -21.834 -1.83301 -33.501 -5.5s-21.834 -8.5 -30.501 -14.5c4 35.333 12.5 65.333 25.5 90s30.833 37 53.5 37c11.333 0 20.5 -2.16699 27.5 -6.5s14.167 -10.166 21.5 -17.499
c8.66699 -8.66699 15.334 -13 20.001 -13s9 1.66699 13 5s6 7.33301 6 12c0 12 -8.66699 23.667 -26 35s-38.333 17 -63 17c-21.333 0 -40.333 -5.66699 -57 -17s-30.834 -26.333 -42.501 -45s-20.5 -39.5 -26.5 -62.5s-9 -46.167 -9 -69.5
c0 -30 4.16699 -55.167 12.5 -75.5s19.166 -36.166 32.499 -47.499s27 -19.166 41 -23.499s27.667 -6.5 41 -6.5c32 0 59.333 10.167 82 30.5s34 44.833 34 73.5zM233.003 373.997c0 -18.667 -5 -35.834 -15 -51.501s-24.333 -23.5 -43 -23.5c-19.333 0 -36 10.333 -50 31
s-21.333 48.334 -22 83.001c4.66699 10.667 13.167 19.334 25.5 26.001s25.833 10 40.5 10c19.333 0 34.833 -7.83301 46.5 -23.5s17.5 -32.834 17.5 -51.501z" />
    <glyph glyph-name="Igrave" unicode="&#xcc;" horiz-adv-x="346" 
d="M223 681l-93.001 88c-9.33301 8 -17.166 13.833 -23.499 17.5s-13.5 5.5 -21.5 5.5c-8.66699 0 -15.5 -3.16699 -20.5 -9.5s-7.5 -12.833 -7.5 -19.5s2.5 -12.667 7.5 -18s10.167 -9.33301 15.5 -12l138 -58zM307.999 0v21c-22 0 -39 1.5 -51 4.5s-21.167 8.5 -27.5 16.5
s-10.666 19.333 -12.999 34s-3.5 35.334 -3.5 62.001v325c0 26.667 1.16699 47.334 3.5 62.001s6.66602 25.834 12.999 33.501s15.5 13 27.5 16s29 4.5 51 4.5v21h-270v-21c22 0 39 -1.5 51 -4.5s21.167 -8.33301 27.5 -16s10.666 -18.834 12.999 -33.501
s3.5 -35.334 3.5 -62.001v-325c0 -26.667 -1.16699 -47.334 -3.5 -62.001s-6.66602 -26 -12.999 -34s-15.5 -13.5 -27.5 -16.5s-29 -4.5 -51 -4.5v-21h270z" />
    <glyph glyph-name="Iacute" unicode="&#xcd;" horiz-adv-x="236" 
d="M213 233c0 13.333 -4.50195 26.5029 -13.502 39.5029s-21.5 23.833 -37.5 32.5l-35 19l-6 3c-13.333 7.33301 -22.666 13.166 -27.999 17.499s-8 10.166 -8 17.499c0 20.667 11 31 33 31c16.667 0 30 -6 40 -18s15 -26.333 15 -43h22v90h-22
c0 -11.333 -1.33301 -17 -4 -17c-2 0 -5 1.33301 -9 4c-7.33301 4 -14.666 7.16699 -21.999 9.5s-16 3.5 -26 3.5c-20 0 -37.833 -6.5 -53.5 -19.5s-23.5 -29.5 -23.5 -49.5c0 -13.333 4 -26.833 12 -40.5s20.667 -25.167 38 -34.5l40 -21
c12.667 -6.66699 22.167 -12.667 28.5 -18s9.5 -12 9.5 -20c0 -11.333 -3.33301 -20.333 -10 -27s-15.667 -10 -27 -10c-22.667 0 -40.834 8.66699 -54.501 26s-20.5 35.666 -20.5 54.999h-22v-111h22c0 15.333 3 23 9 23c2.66699 0 8.33398 -2.33301 17.001 -7
c18 -10.667 33.667 -16 47 -16c25.333 0 46.5 7.5 63.5 22.5s25.5 34.5 25.5 58.5z" />
    <glyph glyph-name="Icircumflex" unicode="&#xce;" horiz-adv-x="373" 
d="M361 170v20.998c-24.667 0 -40.334 4.83301 -47.001 14.5s-10 31.834 -10 66.501v343l-115 -20v-21c24.667 0 40.334 -4.66699 47.001 -14s10 -31.666 10 -66.999v-108c-23.333 24.667 -51.333 37 -84 37c-35.333 0 -65.666 -13.167 -90.999 -39.5
s-38 -58.166 -38 -95.499c0 -36.667 12.667 -68.334 38 -95.001s55.666 -40 90.999 -40s64 13.333 86 40v-1c2 -10 4 -18.333 6 -25s4.33301 -11.667 7 -15zM246 240.998c-6 -16 -15.167 -29 -27.5 -39s-26.166 -15 -41.499 -15c-26 0 -45.667 9.33301 -59 28
s-20 42.667 -20 72s6.66699 53.333 20 72s33 28 59 28c15.333 0 29.166 -5 41.499 -15s21.5 -23.333 27.5 -40v-91z" />
    <glyph glyph-name="Idieresis" unicode="&#xcf;" horiz-adv-x="361" 
d="M328 287c0 36.667 -12.501 68.333 -37.501 95s-55.167 40 -90.5 40c-33.333 0 -61.666 -12.333 -84.999 -37v230l-115 -20v-21c24.667 0 40.5 -4.83301 47.5 -14.5s10.5 -31.834 10.5 -66.501v-341l19 1l31 45c10 -14.667 23.167 -26 39.5 -34s33.833 -12 52.5 -12
c35.333 0 65.5 13.333 90.5 40s37.5 58.334 37.5 95.001zM262.999 286.999c0 -30 -6.5 -54.168 -19.5 -72.501s-32.5 -27.5 -58.5 -27.5c-15.333 0 -29.166 5 -41.499 15s-21.833 23.333 -28.5 40v91c6.66699 16.667 16.167 29.834 28.5 39.501s26.166 14.5 41.499 14.5
c26 0 45.5 -9.16699 58.5 -27.5s19.5 -42.5 19.5 -72.5z" />
    <glyph glyph-name="Eth" unicode="&#xd0;" horiz-adv-x="713" 
d="M208 324v239h101c47.333 0 87 -7.66699 119 -23s56.833 -35.833 74.5 -61.5s30.167 -53.5 37.5 -83.5s11 -61.667 11 -95c0 -32.667 -3.66699 -64.167 -11 -94.5s-19.833 -58.333 -37.5 -84s-42.5 -46.167 -74.5 -61.5s-71.667 -23 -119 -23h-5c-22 0 -39 1.5 -51 4.5
s-21.333 8.33301 -28 16s-11.167 19 -13.5 34s-3.5 35.5 -3.5 61.5v126h100v45h-100zM133 279v-140.993c0 -26.667 -1.16699 -47.334 -3.5 -62.001s-6.66602 -26 -12.999 -34s-15.5 -13.5 -27.5 -16.5s-29 -4.5 -51 -4.5v-21h271c56.667 0 106.167 7.66699 148.5 23
s77.166 36.666 104.499 63.999s47.666 59.166 60.999 95.499s20 75.5 20 117.5s-6.66699 81.167 -20 117.5s-33.666 68.166 -60.999 95.499s-62.166 48.666 -104.499 63.999s-91.833 23 -148.5 23h-271v-21c22 0 39 -1.5 51 -4.5s21.167 -8.33301 27.5 -16
s10.666 -18.834 12.999 -33.501s3.5 -35.334 3.5 -62.001v-139h-116v-45h116z" />
    <glyph glyph-name="Ntilde" unicode="&#xd1;" 
d="M300 577l-0.000976562 23h-243l-19 -103h23l4 17c4 14 11.5 23.833 22.5 29.5s24.5 8.5 40.5 8.5h128l-148 -234c-6 -10 -9 -19 -9 -27c0 -12 6 -20 18 -24c0.666992 0 2.33398 -0.333008 5.00098 -1h4c7.33301 0 13.5 2.66699 18.5 8s10.5 14 16.5 26z" />
    <glyph glyph-name="Ograve" unicode="&#xd2;" horiz-adv-x="196" 
d="M184 163l0.000976562 22.001c-24.667 0 -40.334 4.83301 -47.001 14.5s-10 31.834 -10 66.501v349l-114 -20v-21c24 0 39.333 -4.83301 46 -14.5s10 -31.834 10 -66.501v-227c0 -34.667 -3.33301 -56.834 -10 -66.501s-22 -14.5 -46 -14.5v-22h171z" />
    <glyph glyph-name="Oacute" unicode="&#xd3;" horiz-adv-x="403" 
d="M391 163l0.00195312 22.001c-24.667 0 -40.334 4.83301 -47.001 14.5s-10 31.834 -10 66.501v46c0 32.667 -8.16699 59.167 -24.5 79.5s-40.5 30.5 -72.5 30.5c-20.667 0 -39.167 -4.5 -55.5 -13.5s-30.5 -20.5 -42.5 -34.5c-0.666992 8 -2.16699 17 -4.5 27
s-4.5 17.333 -6.5 22l-103 -20v-20c24.667 0 40.5 -5 47.5 -15s10.5 -32 10.5 -66v-36c0 -34.667 -3.5 -56.834 -10.5 -66.501s-22.833 -14.5 -47.5 -14.5v-22h166v22c-22.667 0 -36.834 4.5 -42.501 13.5s-8.5 31.5 -8.5 67.5v47c0 19.333 8.5 35.5 25.5 48.5
s33.167 19.5 48.5 19.5c23.333 0 39.5 -6.16699 48.5 -18.5s13.5 -30.5 13.5 -54.5v-42c0 -34.667 -3.5 -56.834 -10.5 -66.501s-22.5 -14.5 -46.5 -14.5v-22h172z" />
    <glyph glyph-name="Ocircumflex" unicode="&#xd4;" horiz-adv-x="563" 
d="M551 163l0.00683594 22.001c-24 0 -39.5 4.83301 -46.5 14.5s-10.5 31.834 -10.5 66.501v46c0 34.667 -6.5 61.667 -19.5 81s-35.167 29 -66.5 29c-18.667 0 -37.334 -5.16699 -56.001 -15.5s-33.334 -21.833 -44.001 -34.5c-6 16 -15.167 28.333 -27.5 37
s-28.833 13 -49.5 13c-18 0 -34.833 -4.5 -50.5 -13.5s-29.5 -20.5 -41.5 -34.5c-0.666992 7.33301 -2.16699 15.833 -4.5 25.5s-4.5 17.5 -6.5 23.5l-103 -20v-20c24.667 0 40.5 -5 47.5 -15s10.5 -32 10.5 -66v-36c0 -34.667 -3.5 -56.834 -10.5 -66.501
s-22.833 -14.5 -47.5 -14.5v-22h160v22c-20.667 0 -33.334 4.5 -38.001 13.5s-7 31.5 -7 67.5v47c0 19.333 8.16699 35.5 24.5 48.5s30.833 19.5 43.5 19.5c19.333 0 32.666 -6.16699 39.999 -18.5s11 -30.5 11 -54.5v-42c0 -36.667 -2.33301 -59.334 -7 -68.001
s-17.334 -13 -38.001 -13v-22h148v22c-20.667 0 -33.334 4.33301 -38.001 13s-7 31.334 -7 68.001v47c0 19.333 8.16699 35.5 24.5 48.5s30.833 19.5 43.5 19.5c19.333 0 32.833 -6.33301 40.5 -19s11.5 -30.667 11.5 -54v-42c0 -36.667 -2.33301 -59.334 -7 -68.001
s-17.334 -13 -38.001 -13v-22h159z" />
    <glyph glyph-name="Otilde" unicode="&#xd5;" horiz-adv-x="808" 
d="M452 726c-7.33301 0 -15.6689 2.16602 -25.002 6.49902s-21 10.833 -35 19.5c-15.333 10 -27.833 17.333 -37.5 22s-19.167 7 -28.5 7c-18 0 -33.167 -9.16699 -45.5 -27.5s-18.5 -41.833 -18.5 -70.5h15c3.33301 12.667 9 23.5 17 32.5s16.333 13.5 25 13.5
c6 0 13.5 -2.16699 22.5 -6.5s20.167 -10.833 33.5 -19.5c16 -9.33301 29.167 -16.5 39.5 -21.5s19.5 -7.5 27.5 -7.5c20.667 0 37.334 8.83301 50.001 26.5s19 41.834 19 72.501h-16c-7.33301 -31.333 -21.666 -47 -42.999 -47zM737.997 299.999
c0 42.667 -8.66699 83.334 -26 122.001s-41.333 72.667 -72 102s-66.334 52.166 -107.001 68.499s-83.667 24.5 -129 24.5c-44.667 0 -87.334 -8.16699 -128.001 -24.5s-76.334 -39.166 -107.001 -68.499s-54.667 -63.333 -72 -102s-26 -79.334 -26 -122.001
s8.66699 -83.334 26 -122.001s41.333 -72.667 72 -102s66.334 -52.166 107.001 -68.499s83.334 -24.5 128.001 -24.5c45.333 0 88.333 8.16699 129 24.5s76.334 39.166 107.001 68.499s54.667 63.333 72 102s26 79.334 26 122.001zM403.997 577.999
c41.333 0 77.333 -8.16699 108 -24.5s55.667 -38.166 75 -65.499s33.5 -57.333 42.5 -90s13.5 -65.334 13.5 -98.001s-4.5 -65.167 -13.5 -97.5s-23.167 -62.166 -42.5 -89.499s-44.333 -49.166 -75 -65.499s-66.667 -24.5 -108 -24.5s-77.166 8.16699 -107.499 24.5
s-55.166 38.166 -74.499 65.499s-33.5 57.166 -42.5 89.499s-13.5 64.833 -13.5 97.5s4.5 65.334 13.5 98.001s23.167 62.667 42.5 90s44.166 49.166 74.499 65.499s66.166 24.5 107.499 24.5z" />
    <glyph glyph-name="Odieresis" unicode="&#xd6;" 
d="M288 464c0 30 -4.16602 55.1699 -12.499 75.5029s-19.166 36.166 -32.499 47.499s-27 19.166 -41 23.499s-27.667 6.5 -41 6.5c-32 0 -59.333 -10.167 -82 -30.5s-34 -44.833 -34 -73.5s12.333 -53.334 37 -74.001s53 -31 85 -31c11.333 0 22.666 2 33.999 6
s21.333 8.66699 30 14c-4 -35.333 -12.5 -65.166 -25.5 -89.499s-30.833 -36.5 -53.5 -36.5c-11.333 0 -20.5 2.16699 -27.5 6.5s-14.167 10.166 -21.5 17.499c-8.66699 8 -15.334 12 -20.001 12s-9 -1.5 -13 -4.5s-6 -6.83301 -6 -11.5c0 -11.333 8.66699 -22.833 26 -34.5
s38.333 -17.5 63 -17.5c21.333 0 40.5 5.66699 57.5 17s31.167 26.333 42.5 45s20 39.5 26 62.5s9 46.167 9 69.5zM233.001 474.003c-4.66699 -10.667 -13.167 -19.334 -25.5 -26.001s-25.833 -10 -40.5 -10c-19.333 0 -34.833 7.83301 -46.5 23.5
s-17.5 32.834 -17.5 51.501s5 35.834 15 51.501s24.333 23.5 43 23.5c19.333 0 36 -10.333 50 -31s21.333 -48.334 22 -83.001z" />
    <glyph glyph-name="multiply" unicode="&#xd7;" horiz-adv-x="0" 
 />
    <glyph glyph-name="Oslash" unicode="&#xd8;" horiz-adv-x="371" 
d="M330 287c0 37.333 -14.5 69.166 -43.5 95.499s-63.833 39.5 -104.5 39.5s-75.667 -13.167 -105 -39.5s-44 -58.166 -44 -95.499c0 -36.667 14.667 -68.334 44 -95.001s64.333 -40 105 -40s75.5 13.333 104.5 40s43.5 58.334 43.5 95.001zM265 287
c0 -29.333 -7 -53.5 -21 -72.5s-34.667 -28.5 -62 -28.5c-28 0 -49 9.33301 -63 28s-21 43 -21 73s7 54.333 21 73s35 28 63 28c27.333 0 48 -9.33301 62 -28s21 -43 21 -73z" />
    <glyph glyph-name="Ugrave" unicode="&#xd9;" horiz-adv-x="716" 
d="M402 681l-93.001 88c-9.33301 8 -17.166 13.833 -23.499 17.5s-13.5 5.5 -21.5 5.5c-8.66699 0 -15.5 -3.16699 -20.5 -9.5s-7.5 -12.833 -7.5 -19.5s2.5 -12.667 7.5 -18s10.167 -9.33301 15.5 -12l138 -58zM556.999 463l0.00488281 -245
c0 -62.667 -16.833 -110 -50.5 -142s-78.167 -48 -133.5 -48c-52.667 0 -95 16 -127 48s-48 79.333 -48 142v245c0 26.667 1.16699 47.334 3.5 62.001s6.66602 25.834 12.999 33.501s15.5 13 27.5 16s29 4.5 51 4.5v21h-270v-21c22 0 39 -1.5 51 -4.5
s21.167 -8.33301 27.5 -16s10.666 -18.834 12.999 -33.501s3.5 -35.334 3.5 -62.001v-240c0 -75.333 22.667 -134.166 68 -176.499s102.666 -63.5 171.999 -63.5c70 0 127.667 21.167 173 63.5s68 101.166 68 176.499v240c0 26 1.16699 46.5 3.5 61.5
s6.83301 26.333 13.5 34s16 13 28 16s29 4.5 51 4.5v21h-234v-21c22 0 39.167 -1.5 51.5 -4.5s21.666 -8.33301 27.999 -16s10.666 -19 12.999 -34s3.5 -35.5 3.5 -61.5z" />
    <glyph glyph-name="Uacute" unicode="&#xda;" horiz-adv-x="716" 
d="M495 763c0 6.66699 -2.5 13.167 -7.5 19.5s-11.833 9.5 -20.5 9.5c-7.33301 0 -13.833 -1.66699 -19.5 -5s-13.5 -9.33301 -23.5 -18l-1 -1l-93 -87l5 -7l137 59c5.33301 2.66699 10.5 6.66699 15.5 12s7.5 11.333 7.5 18zM557 463l0.00488281 -245
c0 -62.667 -16.833 -110 -50.5 -142s-78.167 -48 -133.5 -48c-52.667 0 -95 16 -127 48s-48 79.333 -48 142v245c0 26.667 1.16699 47.334 3.5 62.001s6.66602 25.834 12.999 33.501s15.5 13 27.5 16s29 4.5 51 4.5v21h-270v-21c22 0 39 -1.5 51 -4.5
s21.167 -8.33301 27.5 -16s10.666 -18.834 12.999 -33.501s3.5 -35.334 3.5 -62.001v-240c0 -75.333 22.667 -134.166 68 -176.499s102.666 -63.5 171.999 -63.5c70 0 127.667 21.167 173 63.5s68 101.166 68 176.499v240c0 26 1.16699 46.5 3.5 61.5
s6.83301 26.333 13.5 34s16 13 28 16s29 4.5 51 4.5v21h-234v-21c22 0 39.167 -1.5 51.5 -4.5s21.666 -8.33301 27.999 -16s10.666 -19 12.999 -34s3.5 -35.5 3.5 -61.5z" />
    <glyph glyph-name="Ucircumflex" unicode="&#xdb;" horiz-adv-x="749" 
d="M499 687l-119 129l-119 -129l12 -12l107 76l107 -76zM557 463l0.00488281 -245c0 -62.667 -16.833 -110 -50.5 -142s-78.167 -48 -133.5 -48c-52.667 0 -95 16 -127 48s-48 79.333 -48 142v245c0 26.667 1.16699 47.334 3.5 62.001s6.66602 25.834 12.999 33.501
s15.5 13 27.5 16s29 4.5 51 4.5v21h-270v-21c22 0 39 -1.5 51 -4.5s21.167 -8.33301 27.5 -16s10.666 -18.834 12.999 -33.501s3.5 -35.334 3.5 -62.001v-240c0 -75.333 22.667 -134.166 68 -176.499s102.666 -63.5 171.999 -63.5c70 0 127.667 21.167 173 63.5
s68 101.166 68 176.499v240c0 26 1.16699 46.5 3.5 61.5s6.83301 26.333 13.5 34s16 13 28 16s29 4.5 51 4.5v21h-234v-21c22 0 39.167 -1.5 51.5 -4.5s21.666 -8.33301 27.999 -16s10.666 -19 12.999 -34s3.5 -35.5 3.5 -61.5z" />
    <glyph glyph-name="Udieresis" unicode="&#xdc;" 
d="M294 443c0 23.333 -3.16699 45.666 -9.5 66.999s-15.333 40 -27 56s-25.167 28.5 -40.5 37.5s-31.666 13.5 -48.999 13.5s-33.666 -4.5 -48.999 -13.5s-28.833 -21.5 -40.5 -37.5s-20.667 -34.667 -27 -56s-9.5 -43.666 -9.5 -66.999s3.16699 -45.5 9.5 -66.5
s15.333 -39.5 27 -55.5s25.167 -28.5 40.5 -37.5s31.666 -13.5 48.999 -13.5s33.666 4.5 48.999 13.5s28.833 21.5 40.5 37.5s20.667 34.5 27 55.5s9.5 43.167 9.5 66.5zM236 443c0 -40 -5.83301 -73.667 -17.5 -101s-28.5 -41 -50.5 -41s-38.667 13.5 -50 40.5
s-17 60.833 -17 101.5c0 41.333 5.66699 75.5 17 102.5s28 40.5 50 40.5c22.667 0 39.667 -13.5 51 -40.5s17 -61.167 17 -102.5z" />
    <glyph glyph-name="Yacute" unicode="&#xdd;" horiz-adv-x="625" 
d="M464 764c0 6.66699 -2.5 13.167 -7.5 19.5s-11.833 9.5 -20.5 9.5c-7.33301 0 -13.833 -1.66699 -19.5 -5s-13.5 -9.33301 -23.5 -18l-1 -1l-93 -87l5 -7l137 59c5.33301 2.66699 10.5 6.66699 15.5 12s7.5 11.333 7.5 18zM353 242l164.997 249.999
c22.667 34 42.834 57 60.501 69s45.834 18 84.501 18v21h-234v-21c49.333 0 74 -9.66699 74 -29c0 -10.667 -6.66699 -26.334 -20 -47.001l-146 -220l-144 220c-12 18.667 -18 33.334 -18 44.001s5.66699 18.667 17 24s29.666 8 54.999 8v21h-285v-21
c34.667 0 62 -6.16699 82 -18.5s41 -35.166 63 -68.499l166 -257v-97c0 -26.667 -1.16699 -47.334 -3.5 -62.001s-6.66602 -26 -12.999 -34s-15.5 -13.5 -27.5 -16.5s-29 -4.5 -51 -4.5v-21h270v21c-22 0 -39 1.5 -51 4.5s-21.167 8.5 -27.5 16.5s-10.666 19.333 -12.999 34
s-3.5 35.334 -3.5 62.001v104z" />
    <glyph glyph-name="Thorn" unicode="&#xde;" horiz-adv-x="433" 
d="M335 223c0 -46.667 -27.333 -70 -82 -70h-57v140h57c54.667 0 82 -23.333 82 -70zM196 116l57.001 0.000976562c51.333 0 90.833 9.33301 118.5 28s41.5 45.334 41.5 80.001c0 70.667 -53.333 106 -160 106h-56c1.33301 34.667 7.16602 57.167 17.499 67.5
s30.5 15.5 60.5 15.5v20h-229v-20c18 0 32 -1.5 42 -4.5s17.667 -8.33301 23 -16s9 -18.834 11 -33.501s3 -35.334 3 -62.001v-160c0 -26.667 -1 -47.334 -3 -62.001s-5.66699 -26 -11 -34s-13 -13.5 -23 -16.5s-24 -4.5 -42 -4.5v-20h229v20
c-31.333 0 -52 5.83301 -62 17.5s-15.667 37.834 -17 78.501z" />
    <glyph glyph-name="germandbls" unicode="&#xdf;" horiz-adv-x="598" 
d="M117 427c0 -46 -5.00195 -75.667 -15.002 -89c-5.33301 -7.33301 -13 -12.5 -23 -15.5s-23.667 -4.5 -41 -4.5v-20h79v-160c0 -26 -1.16699 -46.5 -3.5 -61.5s-6.16602 -26.5 -11.499 -34.5s-13 -13.5 -23 -16.5s-23.667 -4.5 -41 -4.5v-21h150v429
c0 56 6 95.833 18 119.5s31 35.5 57 35.5c14.667 0 25.167 -3.5 31.5 -10.5s12.166 -17.5 17.499 -31.5c4.66699 -12 9.33398 -20.833 14.001 -26.5s12 -8.5 22 -8.5c22 0 33 11.333 33 34c0 18.667 -9 36 -27 52s-42.333 24 -73 24c-21.333 0 -41.666 -3.5 -60.999 -10.5
s-36.833 -18.167 -52.5 -33.5s-28 -34.833 -37 -58.5s-13.5 -52.167 -13.5 -85.5v-2zM563.998 92c0 18 -6.00391 35.335 -18.0039 52.002s-29 31.334 -51 44.001l-48 26c-23.333 12.667 -39.333 23.167 -48 31.5s-13 18.166 -13 29.499c0 28.667 17 43 51 43
c24.667 0 44.334 -8.33301 59.001 -25s22 -36.334 22 -59.001h21v116h-21c0 -15.333 -2.33301 -23 -7 -23c-2 0 -6.33301 1.66699 -13 5c-10 5.33301 -20.333 9.66602 -31 12.999s-23.667 5 -39 5c-27.333 0 -51.166 -8.66699 -71.499 -26s-30.5 -39 -30.5 -65
c0 -18 5.5 -36.167 16.5 -54.5s27.833 -33.5 50.5 -45.5l55 -30c18.667 -9.33301 32.667 -18.833 42 -28.5s14 -20.5 14 -32.5c0 -14 -5.33301 -26 -16 -36s-24 -15 -40 -15c-33.333 0 -60 12.167 -80 36.5s-30 49.5 -30 75.5h-20v-146h20c0 21.333 4 32 12 32
c4.66699 0 13 -3.33301 25 -10c12.667 -6.66699 24.334 -12 35.001 -16s22.334 -6 35.001 -6c33.333 0 61.5 10.167 84.5 30.5s34.5 46.5 34.5 78.5z" />
    <glyph glyph-name="agrave" unicode="&#xe0;" horiz-adv-x="514" 
d="M301 515l-93.001 88c-9.33301 8 -17.166 13.833 -23.499 17.5s-13.5 5.5 -21.5 5.5c-8.66699 0 -15.5 -3.16699 -20.5 -9.5s-7.5 -12.833 -7.5 -19.5s2.5 -12.667 7.5 -18s10.167 -9.33301 15.5 -12l138 -58zM157.999 143l163.999 0.000976562l20 -46
c8.66699 -20.667 13 -36 13 -46c0 -11.333 -5.16699 -19.166 -15.5 -23.499s-27.5 -6.5 -51.5 -6.5v-21h224v21c-14 0 -25.167 1 -33.5 3s-15.833 6 -22.5 12s-13.167 14.5 -19.5 25.5s-13.833 26.5 -22.5 46.5l-147 342h-14l-147 -342
c-8.66699 -20.667 -16 -36.334 -22 -47.001s-12.333 -19 -19 -25s-14.667 -10 -24 -12s-22 -3 -38 -3v-21h189v21c-25.333 0 -43.166 2 -53.499 6s-15.5 11 -15.5 21c0 9.33301 5 25.666 15 48.999zM305.998 180.001h-132l66 153z" />
    <glyph glyph-name="aacute" unicode="&#xe1;" horiz-adv-x="514" 
d="M402 597c0 6.66699 -2.5 13.167 -7.5 19.5s-11.833 9.5 -20.5 9.5c-7.33301 0 -13.833 -1.66699 -19.5 -5s-13.5 -9.33301 -23.5 -18l-1 -1l-93 -87l5 -7l137 59c5.33301 2.66699 10.5 6.66699 15.5 12s7.5 11.333 7.5 18zM158 143l163.999 0.000976562l20 -46
c8.66699 -20.667 13 -36 13 -46c0 -11.333 -5.16699 -19.166 -15.5 -23.499s-27.5 -6.5 -51.5 -6.5v-21h224v21c-14 0 -25.167 1 -33.5 3s-15.833 6 -22.5 12s-13.167 14.5 -19.5 25.5s-13.833 26.5 -22.5 46.5l-147 342h-14l-147 -342
c-8.66699 -20.667 -16 -36.334 -22 -47.001s-12.333 -19 -19 -25s-14.667 -10 -24 -12s-22 -3 -38 -3v-21h189v21c-25.333 0 -43.166 2 -53.499 6s-15.5 11 -15.5 21c0 9.33301 5 25.666 15 48.999zM305.999 180.001h-132l66 153z" />
    <glyph glyph-name="acircumflex" unicode="&#xe2;" horiz-adv-x="514" 
d="M375 520l-119 129l-119 -129l12 -12l107 76l107 -76zM158 143l163.999 0.000976562l20 -46c8.66699 -20.667 13 -36 13 -46c0 -11.333 -5.16699 -19.166 -15.5 -23.499s-27.5 -6.5 -51.5 -6.5v-21h224v21c-14 0 -25.167 1 -33.5 3s-15.833 6 -22.5 12
s-13.167 14.5 -19.5 25.5s-13.833 26.5 -22.5 46.5l-147 342h-14l-147 -342c-8.66699 -20.667 -16 -36.334 -22 -47.001s-12.333 -19 -19 -25s-14.667 -10 -24 -12s-22 -3 -38 -3v-21h189v21c-25.333 0 -43.166 2 -53.499 6s-15.5 11 -15.5 21c0 9.33301 5 25.666 15 48.999
zM305.999 180.001h-132l66 153z" />
    <glyph glyph-name="atilde" unicode="&#xe3;" horiz-adv-x="514" 
d="M382 608l-16.002 -0.000976562c-8.66699 -32 -23 -48 -43 -48c-7.33301 0 -15.666 2.16699 -24.999 6.5s-21 10.833 -35 19.5c-15.333 10 -27.833 17.333 -37.5 22s-19.167 7 -28.5 7c-18 0 -33.167 -9.16699 -45.5 -27.5s-18.5 -41.5 -18.5 -69.5h15
c3.33301 12.667 9 23.334 17 32.001s16.333 13 25 13c6 0 13.5 -2.16699 22.5 -6.5s20.167 -10.833 33.5 -19.5c16 -9.33301 29.167 -16.5 39.5 -21.5s19.5 -7.5 27.5 -7.5c20.667 0 37.334 8.83301 50.001 26.5s19 42.167 19 73.5zM157.998 142.999l163.999 0.000976562
l20 -46c8.66699 -20.667 13 -36 13 -46c0 -11.333 -5.16699 -19.166 -15.5 -23.499s-27.5 -6.5 -51.5 -6.5v-21h224v21c-14 0 -25.167 1 -33.5 3s-15.833 6 -22.5 12s-13.167 14.5 -19.5 25.5s-13.833 26.5 -22.5 46.5l-147 342h-14l-147 -342
c-8.66699 -20.667 -16 -36.334 -22 -47.001s-12.333 -19 -19 -25s-14.667 -10 -24 -12s-22 -3 -38 -3v-21h189v21c-25.333 0 -43.166 2 -53.499 6s-15.5 11 -15.5 21c0 9.33301 5 25.666 15 48.999zM305.997 180h-132l66 153z" />
    <glyph glyph-name="adieresis" unicode="&#xe4;" horiz-adv-x="514" 
d="M180 587c-10.667 0 -19.834 -3.83301 -27.501 -11.5s-11.5 -16.834 -11.5 -27.501c0 -11.333 3.83301 -20.833 11.5 -28.5s16.834 -11.5 27.501 -11.5s19.834 3.83301 27.501 11.5s11.5 17.167 11.5 28.5c0 10.667 -3.83301 19.834 -11.5 27.501
s-16.834 11.5 -27.501 11.5zM346 587c-10.667 0 -19.834 -3.83301 -27.501 -11.5s-11.5 -16.834 -11.5 -27.501c0 -11.333 3.83301 -20.833 11.5 -28.5s16.834 -11.5 27.501 -11.5s19.834 4 27.501 12s11.5 17.333 11.5 28s-3.83301 19.834 -11.5 27.501
s-16.834 11.5 -27.501 11.5zM158 143l163.999 0.000976562l20 -46c8.66699 -20.667 13 -36 13 -46c0 -11.333 -5.16699 -19.166 -15.5 -23.499s-27.5 -6.5 -51.5 -6.5v-21h224v21c-14 0 -25.167 1 -33.5 3s-15.833 6 -22.5 12s-13.167 14.5 -19.5 25.5
s-13.833 26.5 -22.5 46.5l-147 342h-14l-147 -342c-8.66699 -20.667 -16 -36.334 -22 -47.001s-12.333 -19 -19 -25s-14.667 -10 -24 -12s-22 -3 -38 -3v-21h189v21c-25.333 0 -43.166 2 -53.499 6s-15.5 11 -15.5 21c0 9.33301 5 25.666 15 48.999zM305.999 180.001h-132
l66 153z" />
    <glyph glyph-name="aring" unicode="&#xe5;" horiz-adv-x="514" 
d="M260 672c-22.667 0 -42 -8 -58 -24s-24 -35.333 -24 -58c0 -23.333 8 -43 24 -59s35.333 -24 58 -24c23.333 0 43 8 59 24s24 35.667 24 59c0 22.667 -8 42 -24 58s-35.667 24 -59 24zM260 636c12.667 0 23.5 -4.5 32.5 -13.5s13.5 -19.833 13.5 -32.5
s-4.5 -23.5 -13.5 -32.5s-19.833 -13.5 -32.5 -13.5s-23.5 4.5 -32.5 13.5s-13.5 19.833 -13.5 32.5s4.5 23.5 13.5 32.5s19.833 13.5 32.5 13.5zM158 143l163.999 0.000976562l20 -46c8.66699 -20.667 13 -36 13 -46c0 -11.333 -5.16699 -19.166 -15.5 -23.499
s-27.5 -6.5 -51.5 -6.5v-21h224v21c-14 0 -25.167 1 -33.5 3s-15.833 6 -22.5 12s-13.167 14.5 -19.5 25.5s-13.833 26.5 -22.5 46.5l-147 342h-14l-147 -342c-8.66699 -20.667 -16 -36.334 -22 -47.001s-12.333 -19 -19 -25s-14.667 -10 -24 -12s-22 -3 -38 -3v-21h189v21
c-25.333 0 -43.166 2 -53.499 6s-15.5 11 -15.5 21c0 9.33301 5 25.666 15 48.999zM305.999 180.001h-132l66 153z" />
    <glyph glyph-name="ae" unicode="&#xe6;" horiz-adv-x="657" 
d="M198 182h117.998v-45c0 -26 -1.16699 -46.5 -3.5 -61.5s-6.16602 -26.5 -11.499 -34.5s-13 -13.5 -23 -16.5s-23.667 -4.5 -41 -4.5v-20h374l8 121h-21l-5 -20c-6 -25.333 -15.833 -42.333 -29.5 -51s-42.167 -13 -85.5 -13h-12c-18 0 -32 1.5 -42 4.5
s-17.667 8.33301 -23 16s-9 18.834 -11 33.501s-3 35.334 -3 62.001v29h6c26 0 46 -1 60 -3s24.5 -5.83301 31.5 -11.5s11.5 -13.334 13.5 -23.001s3 -23.5 3 -41.5h20v195h-20c0 -18.667 -1 -32.834 -3 -42.501s-6.5 -17.167 -13.5 -22.5s-17.5 -9.16602 -31.5 -11.499
s-34 -3.5 -60 -3.5h-6v179h66c43.333 0 72 -4.5 86 -13.5s24 -25.833 30 -50.5l5 -20h21l-8 120h-129h-150l-187 -325c-21.333 -36.667 -39.666 -60.334 -54.999 -71.001s-36.333 -16 -63 -16v-21h184v21c-39.333 0 -59 8.33301 -59 25c0 10.667 6.66699 27.667 20 51z
M315.998 385v-167h-97z" />
    <glyph glyph-name="ccedilla" unicode="&#xe7;" horiz-adv-x="517" 
d="M242 -13l-77.9971 -77.002v-14c12.667 4 26 6 40 6c17.333 0 32 -3.5 44 -10.5s18 -16.5 18 -28.5c0 -11.333 -3 -21.166 -9 -29.499s-13.5 -15.5 -22.5 -21.5s-17.5 -10.5 -25.5 -13.5l-28 -10.5h-1v-27c10.667 1.33301 24 4 40 8s32.167 10 48.5 18
s30.166 18.5 41.499 31.5s17 27.833 17 44.5c0 24.667 -8.66699 43.667 -26 57s-36.666 20.666 -57.999 21.999l40 41c24 0 48.167 6.33301 72.5 19s44.166 28.334 59.499 47.001c3.33301 -3.33301 6.66602 -9.66602 9.99902 -18.999s6 -19.333 8 -30h19v174h-20
c-9.33301 -47.333 -27 -84.5 -53 -111.5s-58 -40.5 -96 -40.5c-26.667 0 -49.334 5.83301 -68.001 17.5s-33.667 27.167 -45 46.5s-19.5 40.333 -24.5 63s-7.5 45.334 -7.5 68.001s2.5 45.334 7.5 68.001s13 43.667 24 63s26 34.833 45 46.5s41.833 17.5 68.5 17.5
c38 0 70 -13.5 96 -40.5s43.667 -64.167 53 -111.5h20v173h-19c-2.66699 -10 -5.5 -19.833 -8.5 -29.5s-6.16699 -16.167 -9.5 -19.5c-14.667 19.333 -34.334 35.166 -59.001 47.499s-49 18.5 -73 18.5c-30.667 0 -59.667 -6 -87 -18s-51.5 -28.833 -72.5 -50.5
s-37.333 -46.667 -49 -75s-17.5 -58.166 -17.5 -89.499c0 -28 4.66699 -54.833 14 -80.5s22.333 -48.834 39 -69.501s36.334 -37.834 59.001 -51.501s47 -23.167 73 -28.5z" />
    <glyph glyph-name="egrave" unicode="&#xe8;" horiz-adv-x="475" 
d="M313 515l-93.001 88c-9.33301 8 -17.166 13.833 -23.499 17.5s-13.5 5.5 -21.5 5.5c-8.66699 0 -15.5 -3.16699 -20.5 -9.5s-7.5 -12.833 -7.5 -19.5s2.5 -12.667 7.5 -18s10.167 -9.33301 15.5 -12l138 -58zM286.999 37l-11.998 0.00292969c-18 0 -32 1.5 -42 4.5
s-17.667 8.33301 -23 16s-9 18.834 -11 33.501s-3 35.334 -3 62.001v58h6c26 0 46 -1 60 -3s24.5 -5.83301 31.5 -11.5s11.5 -13.334 13.5 -23.001s3 -23.5 3 -41.5h20v195h-20c0 -18.667 -1 -32.834 -3 -42.501s-6.5 -17.167 -13.5 -22.5s-17.333 -9 -31 -11
s-33.834 -3 -60.501 -3h-6v149h67c42.667 0 71 -4.5 85 -13.5s24 -25.833 30 -50.5l5 -20h21l-8 120h-129h-221v-20c18 0 32 -1.5 42 -4.5s17.667 -8.33301 23 -16s9 -18.834 11 -33.501s3 -35.334 3 -62.001v-160c0 -26.667 -1 -47.334 -3 -62.001s-5.66699 -26 -11 -34
s-13 -13.5 -23 -16.5s-24 -4.5 -42 -4.5v-20h374l8 121h-20l-5 -20c-6.66699 -25.333 -16.834 -42.333 -30.501 -51s-42.167 -13 -85.5 -13z" />
    <glyph glyph-name="eacute" unicode="&#xe9;" horiz-adv-x="475" 
d="M358 597c0 6.66699 -2.5 13.167 -7.5 19.5s-11.833 9.5 -20.5 9.5c-7.33301 0 -13.833 -1.66699 -19.5 -5s-13.5 -9.33301 -23.5 -18l-1 -1l-93 -87l5 -7l137 59c5.33301 2.66699 10.5 6.66699 15.5 12s7.5 11.333 7.5 18zM287 37l-11.998 0.00292969
c-18 0 -32 1.5 -42 4.5s-17.667 8.33301 -23 16s-9 18.834 -11 33.501s-3 35.334 -3 62.001v58h6c26 0 46 -1 60 -3s24.5 -5.83301 31.5 -11.5s11.5 -13.334 13.5 -23.001s3 -23.5 3 -41.5h20v195h-20c0 -18.667 -1 -32.834 -3 -42.501s-6.5 -17.167 -13.5 -22.5
s-17.333 -9 -31 -11s-33.834 -3 -60.501 -3h-6v149h67c42.667 0 71 -4.5 85 -13.5s24 -25.833 30 -50.5l5 -20h21l-8 120h-129h-221v-20c18 0 32 -1.5 42 -4.5s17.667 -8.33301 23 -16s9 -18.834 11 -33.501s3 -35.334 3 -62.001v-160c0 -26.667 -1 -47.334 -3 -62.001
s-5.66699 -26 -11 -34s-13 -13.5 -23 -16.5s-24 -4.5 -42 -4.5v-20h374l8 121h-20l-5 -20c-6.66699 -25.333 -16.834 -42.333 -30.501 -51s-42.167 -13 -85.5 -13z" />
    <glyph glyph-name="ecircumflex" unicode="&#xea;" horiz-adv-x="475" 
d="M356 520l-119 129l-119 -129l12 -12l107 76l106 -76zM287 37l-11.998 0.00292969c-18 0 -32 1.5 -42 4.5s-17.667 8.33301 -23 16s-9 18.834 -11 33.501s-3 35.334 -3 62.001v58h6c26 0 46 -1 60 -3s24.5 -5.83301 31.5 -11.5s11.5 -13.334 13.5 -23.001s3 -23.5 3 -41.5
h20v195h-20c0 -18.667 -1 -32.834 -3 -42.501s-6.5 -17.167 -13.5 -22.5s-17.333 -9 -31 -11s-33.834 -3 -60.501 -3h-6v149h67c42.667 0 71 -4.5 85 -13.5s24 -25.833 30 -50.5l5 -20h21l-8 120h-129h-221v-20c18 0 32 -1.5 42 -4.5s17.667 -8.33301 23 -16
s9 -18.834 11 -33.501s3 -35.334 3 -62.001v-160c0 -26.667 -1 -47.334 -3 -62.001s-5.66699 -26 -11 -34s-13 -13.5 -23 -16.5s-24 -4.5 -42 -4.5v-20h374l8 121h-20l-5 -20c-6.66699 -25.333 -16.834 -42.333 -30.501 -51s-42.167 -13 -85.5 -13z" />
    <glyph glyph-name="edieresis" unicode="&#xeb;" horiz-adv-x="475" 
d="M155 587c-10.667 0 -19.834 -3.83301 -27.501 -11.5s-11.5 -16.834 -11.5 -27.501c0 -11.333 3.83301 -20.833 11.5 -28.5s16.834 -11.5 27.501 -11.5s19.834 3.83301 27.501 11.5s11.5 17.167 11.5 28.5c0 10.667 -3.83301 19.834 -11.5 27.501
s-16.834 11.5 -27.501 11.5zM321 587c-10.667 0 -19.834 -3.83301 -27.501 -11.5s-11.5 -16.834 -11.5 -27.501c0 -11.333 3.83301 -20.833 11.5 -28.5s16.834 -11.5 27.501 -11.5s19.834 4 27.501 12s11.5 17.333 11.5 28s-3.83301 19.834 -11.5 27.501
s-16.834 11.5 -27.501 11.5zM287 37l-11.998 0.00292969c-18 0 -32 1.5 -42 4.5s-17.667 8.33301 -23 16s-9 18.834 -11 33.501s-3 35.334 -3 62.001v58h6c26 0 46 -1 60 -3s24.5 -5.83301 31.5 -11.5s11.5 -13.334 13.5 -23.001s3 -23.5 3 -41.5h20v195h-20
c0 -18.667 -1 -32.834 -3 -42.501s-6.5 -17.167 -13.5 -22.5s-17.333 -9 -31 -11s-33.834 -3 -60.501 -3h-6v149h67c42.667 0 71 -4.5 85 -13.5s24 -25.833 30 -50.5l5 -20h21l-8 120h-129h-221v-20c18 0 32 -1.5 42 -4.5s17.667 -8.33301 23 -16s9 -18.834 11 -33.501
s3 -35.334 3 -62.001v-160c0 -26.667 -1 -47.334 -3 -62.001s-5.66699 -26 -11 -34s-13 -13.5 -23 -16.5s-24 -4.5 -42 -4.5v-20h374l8 121h-20l-5 -20c-6.66699 -25.333 -16.834 -42.333 -30.501 -51s-42.167 -13 -85.5 -13z" />
    <glyph glyph-name="igrave" unicode="&#xec;" horiz-adv-x="322" 
d="M210 515l-93 88c-17.333 15.333 -32 23 -44 23c-9.33301 0 -16.5 -3 -21.5 -9s-7.5 -12.667 -7.5 -20c0 -6.66699 2.5 -12.667 7.5 -18s10.5 -9.33301 16.5 -12l137 -59zM275 0v20c-18 0 -31.833 1.5 -41.5 4.5s-17.334 8.5 -23.001 16.5s-9.5 19.333 -11.5 34
s-3 35.334 -3 62.001v160c0 26.667 1 47.334 3 62.001s5.83301 25.834 11.5 33.501s13.334 13 23.001 16s23.5 4.5 41.5 4.5v20h-229v-20c18 0 32 -1.5 42 -4.5s17.667 -8.33301 23 -16s9 -18.834 11 -33.501s3 -35.334 3 -62.001v-160c0 -26.667 -1 -47.334 -3 -62.001
s-5.66699 -26 -11 -34s-13 -13.5 -23 -16.5s-24 -4.5 -42 -4.5v-20h229z" />
    <glyph glyph-name="iacute" unicode="&#xed;" horiz-adv-x="322" 
d="M270 597c0 6.66699 -2.49902 13.167 -7.49902 19.5s-11.833 9.5 -20.5 9.5c-12.667 0 -27.334 -7.66699 -44.001 -23l-94 -88l5 -7l138 59c5.33301 2.66699 10.5 6.66699 15.5 12s7.5 11.333 7.5 18zM275.001 0v20c-18 0 -31.833 1.5 -41.5 4.5s-17.334 8.5 -23.001 16.5
s-9.5 19.333 -11.5 34s-3 35.334 -3 62.001v160c0 26.667 1 47.334 3 62.001s5.83301 25.834 11.5 33.501s13.334 13 23.001 16s23.5 4.5 41.5 4.5v20h-229v-20c18 0 32 -1.5 42 -4.5s17.667 -8.33301 23 -16s9 -18.834 11 -33.501s3 -35.334 3 -62.001v-160
c0 -26.667 -1 -47.334 -3 -62.001s-5.66699 -26 -11 -34s-13 -13.5 -23 -16.5s-24 -4.5 -42 -4.5v-20h229z" />
    <glyph glyph-name="icircumflex" unicode="&#xee;" horiz-adv-x="322" 
d="M279 519l-119 129l-119 -129l12 -11l107 75l107 -75zM275 0v20c-18 0 -31.833 1.5 -41.5 4.5s-17.334 8.5 -23.001 16.5s-9.5 19.333 -11.5 34s-3 35.334 -3 62.001v160c0 26.667 1 47.334 3 62.001s5.83301 25.834 11.5 33.501s13.334 13 23.001 16s23.5 4.5 41.5 4.5
v20h-229v-20c18 0 32 -1.5 42 -4.5s17.667 -8.33301 23 -16s9 -18.834 11 -33.501s3 -35.334 3 -62.001v-160c0 -26.667 -1 -47.334 -3 -62.001s-5.66699 -26 -11 -34s-13 -13.5 -23 -16.5s-24 -4.5 -42 -4.5v-20h229z" />
    <glyph glyph-name="idieresis" unicode="&#xef;" horiz-adv-x="322" 
d="M76 587c-10.667 0 -19.834 -3.83301 -27.501 -11.5s-11.5 -16.834 -11.5 -27.501c0 -11.333 3.83301 -20.833 11.5 -28.5s16.834 -11.5 27.501 -11.5s19.834 3.83301 27.501 11.5s11.5 17.167 11.5 28.5c0 10.667 -3.83301 19.834 -11.5 27.501
s-16.834 11.5 -27.501 11.5zM242 587c-10.667 0 -19.834 -3.83301 -27.501 -11.5s-11.5 -16.834 -11.5 -27.501c0 -11.333 3.83301 -20.833 11.5 -28.5s16.834 -11.5 27.501 -11.5s19.834 4 27.501 12s11.5 17.333 11.5 28s-3.83301 19.834 -11.5 27.501
s-16.834 11.5 -27.501 11.5zM275 0v20c-18 0 -31.833 1.5 -41.5 4.5s-17.334 8.5 -23.001 16.5s-9.5 19.333 -11.5 34s-3 35.334 -3 62.001v160c0 26.667 1 47.334 3 62.001s5.83301 25.834 11.5 33.501s13.334 13 23.001 16s23.5 4.5 41.5 4.5v20h-229v-20
c18 0 32 -1.5 42 -4.5s17.667 -8.33301 23 -16s9 -18.834 11 -33.501s3 -35.334 3 -62.001v-160c0 -26.667 -1 -47.334 -3 -62.001s-5.66699 -26 -11 -34s-13 -13.5 -23 -16.5s-24 -4.5 -42 -4.5v-20h229z" />
    <glyph glyph-name="eth" unicode="&#xf0;" horiz-adv-x="558" 
d="M196 243l0.000976562 154.002h65c31.333 0 57.5 -5.33301 78.5 -16s37.333 -24.834 49 -42.501s19.667 -36.667 24 -57s6.5 -41.833 6.5 -64.5s-2.16699 -44.334 -6.5 -65.001s-12.333 -39.667 -24 -57s-28 -31.333 -49 -42s-47.167 -16 -78.5 -16h-8
c-24.667 0 -40.334 4.5 -47.001 13.5s-10 29.833 -10 62.5v86h95v44h-95zM125.001 199.002v-61.9971c0 -26.667 -1 -47.334 -3 -62.001s-5.66699 -26 -11 -34s-13 -13.5 -23 -16.5s-24 -4.5 -42 -4.5v-20h212c80.667 0 142.667 21.333 186 64
c19.333 19.333 33.833 42 43.5 68s14.5 54.333 14.5 85c0 30 -4.83301 58.167 -14.5 84.5s-24.5 49.333 -44.5 69s-45.5 35 -76.5 46s-67.167 16.5 -108.5 16.5h-212v-20c18 0 32 -1.5 42 -4.5s17.667 -8.33301 23 -16s9 -18.834 11 -33.501s3 -35.334 3 -62.001v-54h-83
v-44h83z" />
    <glyph glyph-name="ntilde" unicode="&#xf1;" horiz-adv-x="597" 
d="M414 608l-16 -0.000976562c-7.33301 -32 -21.666 -48 -42.999 -48c-7.33301 0 -15.666 2.16699 -24.999 6.5s-21 10.833 -35 19.5c-15.333 10 -27.833 17.333 -37.5 22s-19.167 7 -28.5 7c-18 0 -33.167 -9.16699 -45.5 -27.5s-18.5 -41.5 -18.5 -69.5h15
c3.33301 12.667 9 23.334 17 32.001s16.667 13 26 13c6 0 13.5 -2.16699 22.5 -6.5s20.167 -10.833 33.5 -19.5c15.333 -9.33301 28.166 -16.5 38.499 -21.5s19.5 -7.5 27.5 -7.5c21.333 0 38.166 8.83301 50.499 26.5s18.5 42.167 18.5 73.5zM125 296.999v-159.998
c0 -26.667 -1 -47.334 -3 -62.001s-5.66699 -26 -11 -34s-13 -13.5 -23 -16.5s-24 -4.5 -42 -4.5v-20h195v20c-18 0 -31.833 1.5 -41.5 4.5s-17.334 8.5 -23.001 16.5s-9.5 19.333 -11.5 34s-3 35.334 -3 62.001v196l291 -349h19v313c0 26.667 1 47.334 3 62.001
s5.83301 25.834 11.5 33.501s13.334 13 23.001 16s23.5 4.5 41.5 4.5v20h-195v-20c18 0 32 -1.5 42 -4.5s17.667 -8.33301 23 -16s9 -18.834 11 -33.501s3 -35.334 3 -62.001v-180l-266 316h-123v-20c18 0 32 -1.5 42 -4.5s17.667 -8.33301 23 -16s9 -18.834 11 -33.501
s3 -35.334 3 -62.001z" />
    <glyph glyph-name="ograve" unicode="&#xf2;" horiz-adv-x="602" 
d="M363 515l-93.001 88c-9.33301 8 -17.166 13.833 -23.499 17.5s-13.5 5.5 -21.5 5.5c-8.66699 0 -15.5 -3.16699 -20.5 -9.5s-7.5 -12.833 -7.5 -19.5s2.5 -12.667 7.5 -18s10.167 -9.33301 15.5 -12l138 -58zM544.999 217c0 31.333 -6.33301 61.166 -19 89.499
s-30.334 53.333 -53.001 75s-48.834 38.5 -78.501 50.5s-60.834 18 -93.501 18s-63.834 -6 -93.501 -18s-55.834 -28.833 -78.501 -50.5s-40.334 -46.667 -53.001 -75s-19 -58.166 -19 -89.499s6.33301 -61.333 19 -90s30.334 -53.834 53.001 -75.501
s48.834 -38.5 78.501 -50.5s60.834 -18 93.501 -18s63.834 6 93.501 18s55.834 28.833 78.501 50.5s40.334 46.834 53.001 75.501s19 58.667 19 90zM462.999 217c0 -23.333 -3 -46.333 -9 -69s-15.5 -43.5 -28.5 -62.5s-30 -34.333 -51 -46s-45.5 -17.5 -73.5 -17.5
s-52.5 5.83301 -73.5 17.5s-38 27 -51 46s-22.5 39.833 -28.5 62.5s-9 45.667 -9 69s3 46.333 9 69s15.5 43.5 28.5 62.5s30 34.333 51 46s45.5 17.5 73.5 17.5s52.5 -5.83301 73.5 -17.5s38 -27 51 -46s22.5 -39.833 28.5 -62.5s9 -45.667 9 -69z" />
    <glyph glyph-name="oacute" unicode="&#xf3;" horiz-adv-x="602" 
d="M409 597c0 6.66699 -2.5 13.167 -7.5 19.5s-11.833 9.5 -20.5 9.5c-7.33301 0 -13.833 -1.66699 -19.5 -5s-13.5 -9.33301 -23.5 -18l-1 -1l-93 -87l5 -7l137 59c5.33301 2.66699 10.5 6.66699 15.5 12s7.5 11.333 7.5 18zM545 217c0 31.333 -6.33301 61.166 -19 89.499
s-30.334 53.333 -53.001 75s-48.834 38.5 -78.501 50.5s-60.834 18 -93.501 18s-63.834 -6 -93.501 -18s-55.834 -28.833 -78.501 -50.5s-40.334 -46.667 -53.001 -75s-19 -58.166 -19 -89.499s6.33301 -61.333 19 -90s30.334 -53.834 53.001 -75.501
s48.834 -38.5 78.501 -50.5s60.834 -18 93.501 -18s63.834 6 93.501 18s55.834 28.833 78.501 50.5s40.334 46.834 53.001 75.501s19 58.667 19 90zM463 217c0 -23.333 -3 -46.333 -9 -69s-15.5 -43.5 -28.5 -62.5s-30 -34.333 -51 -46s-45.5 -17.5 -73.5 -17.5
s-52.5 5.83301 -73.5 17.5s-38 27 -51 46s-22.5 39.833 -28.5 62.5s-9 45.667 -9 69s3 46.333 9 69s15.5 43.5 28.5 62.5s30 34.333 51 46s45.5 17.5 73.5 17.5s52.5 -5.83301 73.5 -17.5s38 -27 51 -46s22.5 -39.833 28.5 -62.5s9 -45.667 9 -69z" />
    <glyph glyph-name="ocircumflex" unicode="&#xf4;" horiz-adv-x="602" 
d="M417 520l-119 129l-120 -129l13 -12l107 76l106 -76zM545 217c0 31.333 -6.33301 61.166 -19 89.499s-30.334 53.333 -53.001 75s-48.834 38.5 -78.501 50.5s-60.834 18 -93.501 18s-63.834 -6 -93.501 -18s-55.834 -28.833 -78.501 -50.5s-40.334 -46.667 -53.001 -75
s-19 -58.166 -19 -89.499s6.33301 -61.333 19 -90s30.334 -53.834 53.001 -75.501s48.834 -38.5 78.501 -50.5s60.834 -18 93.501 -18s63.834 6 93.501 18s55.834 28.833 78.501 50.5s40.334 46.834 53.001 75.501s19 58.667 19 90zM463 217c0 -23.333 -3 -46.333 -9 -69
s-15.5 -43.5 -28.5 -62.5s-30 -34.333 -51 -46s-45.5 -17.5 -73.5 -17.5s-52.5 5.83301 -73.5 17.5s-38 27 -51 46s-22.5 39.833 -28.5 62.5s-9 45.667 -9 69s3 46.333 9 69s15.5 43.5 28.5 62.5s30 34.333 51 46s45.5 17.5 73.5 17.5s52.5 -5.83301 73.5 -17.5
s38 -27 51 -46s22.5 -39.833 28.5 -62.5s9 -45.667 9 -69z" />
    <glyph glyph-name="otilde" unicode="&#xf5;" horiz-adv-x="602" 
d="M441 608l-16.0029 -0.000976562c-7.33301 -32 -21.666 -48 -42.999 -48c-7.33301 0 -15.666 2.16699 -24.999 6.5s-21 10.833 -35 19.5c-15.333 10 -27.833 17.333 -37.5 22s-19.167 7 -28.5 7c-18 0 -33.167 -9.16699 -45.5 -27.5s-18.5 -41.5 -18.5 -69.5h15
c3.33301 12.667 9 23.334 17 32.001s16.333 13 25 13c6 0 13.5 -2.16699 22.5 -6.5s20.167 -10.833 33.5 -19.5c16 -9.33301 29.167 -16.5 39.5 -21.5s19.5 -7.5 27.5 -7.5c20.667 0 37.334 8.83301 50.001 26.5s19 42.167 19 73.5zM544.997 216.999
c0 31.333 -6.33301 61.166 -19 89.499s-30.334 53.333 -53.001 75s-48.834 38.5 -78.501 50.5s-60.834 18 -93.501 18s-63.834 -6 -93.501 -18s-55.834 -28.833 -78.501 -50.5s-40.334 -46.667 -53.001 -75s-19 -58.166 -19 -89.499s6.33301 -61.333 19 -90
s30.334 -53.834 53.001 -75.501s48.834 -38.5 78.501 -50.5s60.834 -18 93.501 -18s63.834 6 93.501 18s55.834 28.833 78.501 50.5s40.334 46.834 53.001 75.501s19 58.667 19 90zM462.997 216.999c0 -23.333 -3 -46.333 -9 -69s-15.5 -43.5 -28.5 -62.5
s-30 -34.333 -51 -46s-45.5 -17.5 -73.5 -17.5s-52.5 5.83301 -73.5 17.5s-38 27 -51 46s-22.5 39.833 -28.5 62.5s-9 45.667 -9 69s3 46.333 9 69s15.5 43.5 28.5 62.5s30 34.333 51 46s45.5 17.5 73.5 17.5s52.5 -5.83301 73.5 -17.5s38 -27 51 -46
s22.5 -39.833 28.5 -62.5s9 -45.667 9 -69z" />
    <glyph glyph-name="odieresis" unicode="&#xf6;" horiz-adv-x="602" 
d="M227 587c-10.667 0 -19.834 -3.83301 -27.501 -11.5s-11.5 -16.834 -11.5 -27.501c0 -11.333 3.83301 -20.833 11.5 -28.5s16.834 -11.5 27.501 -11.5s19.834 3.83301 27.501 11.5s11.5 17.167 11.5 28.5c0 10.667 -3.83301 19.834 -11.5 27.501
s-16.834 11.5 -27.501 11.5zM393 587c-10.667 0 -19.834 -3.83301 -27.501 -11.5s-11.5 -16.834 -11.5 -27.501c0 -11.333 3.83301 -20.833 11.5 -28.5s16.834 -11.5 27.501 -11.5s19.834 4 27.501 12s11.5 17.333 11.5 28s-3.83301 19.834 -11.5 27.501
s-16.834 11.5 -27.501 11.5zM545 217c0 31.333 -6.33301 61.166 -19 89.499s-30.334 53.333 -53.001 75s-48.834 38.5 -78.501 50.5s-60.834 18 -93.501 18s-63.834 -6 -93.501 -18s-55.834 -28.833 -78.501 -50.5s-40.334 -46.667 -53.001 -75s-19 -58.166 -19 -89.499
s6.33301 -61.333 19 -90s30.334 -53.834 53.001 -75.501s48.834 -38.5 78.501 -50.5s60.834 -18 93.501 -18s63.834 6 93.501 18s55.834 28.833 78.501 50.5s40.334 46.834 53.001 75.501s19 58.667 19 90zM463 217c0 -23.333 -3 -46.333 -9 -69s-15.5 -43.5 -28.5 -62.5
s-30 -34.333 -51 -46s-45.5 -17.5 -73.5 -17.5s-52.5 5.83301 -73.5 17.5s-38 27 -51 46s-22.5 39.833 -28.5 62.5s-9 45.667 -9 69s3 46.333 9 69s15.5 43.5 28.5 62.5s30 34.333 51 46s45.5 17.5 73.5 17.5s52.5 -5.83301 73.5 -17.5s38 -27 51 -46
s22.5 -39.833 28.5 -62.5s9 -45.667 9 -69z" />
    <glyph glyph-name="divide" unicode="&#xf7;" horiz-adv-x="458" 
d="M375 199v44h-292v-44h292zM277 84c0 12.667 -5 23.998 -15 33.998s-21.333 15 -34 15s-23.5 -4.83301 -32.5 -14.5s-13.5 -21.167 -13.5 -34.5s4.5 -24.666 13.5 -33.999s19.833 -14 32.5 -14c13.333 0 24.833 4.83301 34.5 14.5s14.5 20.834 14.5 33.501zM277 357.998
c0 12.667 -5 24 -15 34s-21.333 15 -34 15s-23.5 -4.83301 -32.5 -14.5s-13.5 -21.167 -13.5 -34.5c0 -12.667 4.5 -23.834 13.5 -33.501s19.833 -14.5 32.5 -14.5s24 4.83301 34 14.5s15 20.834 15 33.501z" />
    <glyph glyph-name="oslash" unicode="&#xf8;" horiz-adv-x="602" 
d="M421 354c14 -18 24.5 -39.167 31.5 -63.5s10.5 -48.833 10.5 -73.5c0 -23.333 -3 -46.333 -9 -69s-15.5 -43.5 -28.5 -62.5s-30 -34.333 -51 -46s-45.5 -17.5 -73.5 -17.5c-35.333 0 -66 9.66699 -92 29zM182 79c-14.667 18.667 -25.5 40.167 -32.5 64.5
s-10.5 48.833 -10.5 73.5c0 23.333 3 46.333 9 69s15.5 43.5 28.5 62.5s30 34.333 51 46s45.5 17.5 73.5 17.5c35.333 0 66 -9.66699 92 -29zM150 33l-40.999 -58l34 -19l40 57c36.667 -20 76 -30 118 -30c32.667 0 63.834 6 93.501 18s55.834 28.833 78.501 50.5
s40.334 46.834 53.001 75.501s19 58.667 19 90c0 35.333 -8.33301 69 -25 101s-39 59 -67 81l40 59l-34 20l-40 -58c-36.667 20 -76 30 -118 30c-32.667 0 -63.834 -6 -93.501 -18s-55.834 -28.833 -78.501 -50.5s-40.334 -46.667 -53.001 -75s-19 -58.166 -19 -89.499
c0 -36.667 8.16699 -70.834 24.5 -102.501s39.166 -58.834 68.499 -81.501z" />
    <glyph glyph-name="ugrave" unicode="&#xf9;" horiz-adv-x="573" 
d="M333 514l-93.001 88c-9.33301 8 -17.166 13.833 -23.499 17.5s-13.5 5.5 -21.5 5.5c-8.66699 0 -15.5 -3.16699 -20.5 -9.5s-7.5 -12.833 -7.5 -19.5s2.5 -12.667 7.5 -18s10.167 -9.33301 15.5 -12l138 -58zM178.999 155l0.00195312 142.004c0 26 1.16699 46.5 3.5 61.5
s6.16602 26.333 11.499 34s13 13 23 16s23.667 4.5 41 4.5v20h-229v-20c18 0 32 -1.5 42 -4.5s17.667 -8.33301 23 -16s9 -18.834 11 -33.501s3 -35.334 3 -62.001v-135c0 -56 16.833 -99.667 50.5 -131s76.167 -47 127.5 -47s94 15.667 128 47s51 75 51 131v135
c0 26 1.16699 46.5 3.5 61.5s6.16602 26.333 11.499 34s13 13 23 16s23.667 4.5 41 4.5v20h-204v-20c18 0 32 -1.5 42 -4.5s17.667 -8.33301 23 -16s9 -18.834 11 -33.501s3 -35.334 3 -62.001v-142c0 -42 -11.167 -73.667 -33.5 -95s-51.833 -32 -88.5 -32
c-36 0 -64.667 10.667 -86 32s-32 53 -32 95z" />
    <glyph glyph-name="uacute" unicode="&#xfa;" horiz-adv-x="573" 
d="M415 596c0 6.66699 -2.5 13.167 -7.5 19.5s-11.833 9.5 -20.5 9.5c-7.33301 0 -13.833 -1.66699 -19.5 -5s-13.5 -9.33301 -23.5 -18l-1 -1l-93 -87l5 -7l137 59c5.33301 2.66699 10.5 6.66699 15.5 12s7.5 11.333 7.5 18zM179 155l0.00195312 142.004
c0 26 1.16699 46.5 3.5 61.5s6.16602 26.333 11.499 34s13 13 23 16s23.667 4.5 41 4.5v20h-229v-20c18 0 32 -1.5 42 -4.5s17.667 -8.33301 23 -16s9 -18.834 11 -33.501s3 -35.334 3 -62.001v-135c0 -56 16.833 -99.667 50.5 -131s76.167 -47 127.5 -47s94 15.667 128 47
s51 75 51 131v135c0 26 1.16699 46.5 3.5 61.5s6.16602 26.333 11.499 34s13 13 23 16s23.667 4.5 41 4.5v20h-204v-20c18 0 32 -1.5 42 -4.5s17.667 -8.33301 23 -16s9 -18.834 11 -33.501s3 -35.334 3 -62.001v-142c0 -42 -11.167 -73.667 -33.5 -95
s-51.833 -32 -88.5 -32c-36 0 -64.667 10.667 -86 32s-32 53 -32 95z" />
    <glyph glyph-name="ucircumflex" unicode="&#xfb;" horiz-adv-x="573" 
d="M408 520l-120 129l-119 -129l13 -12l106 76l107 -76zM179 155l0.00195312 142.004c0 26 1.16699 46.5 3.5 61.5s6.16602 26.333 11.499 34s13 13 23 16s23.667 4.5 41 4.5v20h-229v-20c18 0 32 -1.5 42 -4.5s17.667 -8.33301 23 -16s9 -18.834 11 -33.501
s3 -35.334 3 -62.001v-135c0 -56 16.833 -99.667 50.5 -131s76.167 -47 127.5 -47s94 15.667 128 47s51 75 51 131v135c0 26 1.16699 46.5 3.5 61.5s6.16602 26.333 11.499 34s13 13 23 16s23.667 4.5 41 4.5v20h-204v-20c18 0 32 -1.5 42 -4.5s17.667 -8.33301 23 -16
s9 -18.834 11 -33.501s3 -35.334 3 -62.001v-142c0 -42 -11.167 -73.667 -33.5 -95s-51.833 -32 -88.5 -32c-36 0 -64.667 10.667 -86 32s-32 53 -32 95z" />
    <glyph glyph-name="udieresis" unicode="&#xfc;" horiz-adv-x="573" 
d="M217 587c-10.667 0 -19.834 -3.83301 -27.501 -11.5s-11.5 -16.834 -11.5 -27.501c0 -11.333 3.83301 -20.833 11.5 -28.5s16.834 -11.5 27.501 -11.5s19.834 3.83301 27.501 11.5s11.5 17.167 11.5 28.5c0 10.667 -3.83301 19.834 -11.5 27.501
s-16.834 11.5 -27.501 11.5zM383 587c-10.667 0 -19.834 -3.83301 -27.501 -11.5s-11.5 -16.834 -11.5 -27.501c0 -11.333 3.83301 -20.833 11.5 -28.5s16.834 -11.5 27.501 -11.5s19.834 4 27.501 12s11.5 17.333 11.5 28s-3.83301 19.834 -11.5 27.501
s-16.834 11.5 -27.501 11.5zM179 155l0.00195312 142.004c0 26 1.16699 46.5 3.5 61.5s6.16602 26.333 11.499 34s13 13 23 16s23.667 4.5 41 4.5v20h-229v-20c18 0 32 -1.5 42 -4.5s17.667 -8.33301 23 -16s9 -18.834 11 -33.501s3 -35.334 3 -62.001v-135
c0 -56 16.833 -99.667 50.5 -131s76.167 -47 127.5 -47s94 15.667 128 47s51 75 51 131v135c0 26 1.16699 46.5 3.5 61.5s6.16602 26.333 11.499 34s13 13 23 16s23.667 4.5 41 4.5v20h-204v-20c18 0 32 -1.5 42 -4.5s17.667 -8.33301 23 -16s9 -18.834 11 -33.501
s3 -35.334 3 -62.001v-142c0 -42 -11.167 -73.667 -33.5 -95s-51.833 -32 -88.5 -32c-36 0 -64.667 10.667 -86 32s-32 53 -32 95z" />
    <glyph glyph-name="yacute" unicode="&#xfd;" horiz-adv-x="483" 
d="M375 597c0 6.66699 -2.5 13.167 -7.5 19.5s-11.833 9.5 -20.5 9.5c-7.33301 0 -13.833 -1.66699 -19.5 -5s-13.5 -9.33301 -23.5 -18l-1 -1l-93 -87l5 -7l137 59c5.33301 2.66699 10.5 6.66699 15.5 12s7.5 11.333 7.5 18zM283 179l98.998 146.001
c23.333 34 42.833 57.167 58.5 69.5s36.834 18.5 63.501 18.5v20h-188v-20c37.333 0 56 -6.66699 56 -20c0 -10.667 -9.33301 -29.334 -28 -56.001l-77 -115l-78 115c-16.667 24 -25 41.667 -25 53c0 15.333 18 23 54 23v20h-222v-20c25.333 0 45.166 -5.66699 59.499 -17
s33.5 -35 57.5 -71l100 -147v-41c0 -26 -1.16699 -46.5 -3.5 -61.5s-6.16602 -26.5 -11.499 -34.5s-13 -13.5 -23 -16.5s-24 -4.5 -42 -4.5v-20h230v20c-18 0 -32 1.5 -42 4.5s-17.667 8.5 -23 16.5s-9.16602 19.5 -11.499 34.5s-3.5 35.5 -3.5 61.5v42z" />
    <glyph glyph-name="thorn" unicode="&#xfe;" horiz-adv-x="540" 
d="M301 174l-88 0.00195312v264h88c41.333 0 72.833 -12.333 94.5 -37s32.5 -56.334 32.5 -95.001s-10.833 -70.334 -32.5 -95.001s-53.167 -37 -94.5 -37zM133 475.002l-0.00195312 -337c0 -26.667 -1.16699 -47.334 -3.5 -62.001s-6.66602 -26 -12.999 -34
s-15.5 -13.5 -27.5 -16.5s-29 -4.5 -51 -4.5v-21h270v21c-22 0 -39 1.5 -51 4.5s-21.167 8.5 -27.5 16.5s-10.666 19.333 -12.999 34s-3.5 35.334 -3.5 62.001h89c66 0 118.333 16 157 48s58 72 58 120s-19.333 88.167 -58 120.5s-91 48.5 -157 48.5h-89
c0 23.333 1.33301 41.666 4 54.999s7.16699 23.5 13.5 30.5s15.5 11.833 27.5 14.5s28.667 4 50 4v21h-270v-21c21.333 0 38 -1.33301 50 -4s21.167 -7.5 27.5 -14.5s10.833 -17.167 13.5 -30.5s4 -31.666 4 -54.999z" />
    <glyph glyph-name="ydieresis" unicode="&#xff;" horiz-adv-x="483" 
d="M161 587c-10.667 0 -19.834 -3.83301 -27.501 -11.5s-11.5 -16.834 -11.5 -27.501c0 -11.333 3.83301 -20.833 11.5 -28.5s16.834 -11.5 27.501 -11.5s19.834 3.83301 27.501 11.5s11.5 17.167 11.5 28.5c0 10.667 -3.83301 19.834 -11.5 27.501
s-16.834 11.5 -27.501 11.5zM327 587c-10.667 0 -19.834 -3.83301 -27.501 -11.5s-11.5 -16.834 -11.5 -27.501c0 -11.333 3.83301 -20.833 11.5 -28.5s16.834 -11.5 27.501 -11.5s19.834 4 27.501 12s11.5 17.333 11.5 28s-3.83301 19.834 -11.5 27.501
s-16.834 11.5 -27.501 11.5zM283 179l98.998 146.001c23.333 34 42.833 57.167 58.5 69.5s36.834 18.5 63.501 18.5v20h-188v-20c37.333 0 56 -6.66699 56 -20c0 -10.667 -9.33301 -29.334 -28 -56.001l-77 -115l-78 115c-16.667 24 -25 41.667 -25 53c0 15.333 18 23 54 23
v20h-222v-20c25.333 0 45.166 -5.66699 59.499 -17s33.5 -35 57.5 -71l100 -147v-41c0 -26 -1.16699 -46.5 -3.5 -61.5s-6.16602 -26.5 -11.499 -34.5s-13 -13.5 -23 -16.5s-24 -4.5 -42 -4.5v-20h230v20c-18 0 -32 1.5 -42 4.5s-17.667 8.5 -23 16.5
s-9.16602 19.5 -11.499 34.5s-3.5 35.5 -3.5 61.5v42z" />
    <glyph glyph-name="OE" unicode="&#x152;" horiz-adv-x="934" 
d="M512 600c-34.667 11.333 -70.666 16.9961 -107.999 16.9961c-44.667 0 -87.334 -8.16699 -128.001 -24.5s-76.334 -39.166 -107.001 -68.499s-54.667 -63.333 -72 -102s-26 -79.334 -26 -122.001s8.66699 -83.334 26 -122.001s41.333 -72.667 72 -102
s66.334 -52.166 107.001 -68.499s83.334 -24.5 128.001 -24.5c37.333 0 73 5.66699 107 17h368l9 133h-21l-5 -20c-8 -29.333 -18.667 -49.333 -32 -60s-41.333 -16 -84 -16h-86c-22 0 -39 1.5 -51 4.5s-21.333 8.33301 -28 16s-11.167 19 -13.5 34s-3.5 35.5 -3.5 61.5v146
h50c26.667 0 47.334 -1.16699 62.001 -3.5s26 -6.66602 34 -12.999s13.5 -15.5 16.5 -27.5s4.5 -29.333 4.5 -52h21v229h-21c0 -22 -1.5 -39.167 -4.5 -51.5s-8.5 -21.666 -16.5 -27.999s-19.333 -10.666 -34 -12.999s-35.334 -3.5 -62.001 -3.5h-50v227h149
c42.667 0 70.667 -5.16699 84 -15.5s23.666 -30.166 30.999 -59.499l5 -20h21l-8 132h-334zM404.001 577.996c29.333 0 56.333 -4.66504 81 -13.998v-528c-26 -8.66699 -53 -13 -81 -13c-41.333 0 -77.166 8.16699 -107.499 24.5s-55.166 38.166 -74.499 65.499
s-33.5 57.166 -42.5 89.499s-13.5 64.833 -13.5 97.5s4.5 65.334 13.5 98.001s23.167 62.667 42.5 90s44.166 49.166 74.499 65.499s66.166 24.5 107.499 24.5z" />
    <glyph glyph-name="oe" unicode="&#x153;" horiz-adv-x="758" 
d="M413 363v-293c-27.333 -32 -64.666 -48 -111.999 -48c-28 0 -52.5 5.83301 -73.5 17.5s-38 27 -51 46s-22.5 39.833 -28.5 62.5s-9 45.667 -9 69s3 46.333 9 69s15.5 43.5 28.5 62.5s30 34.333 51 46s45.5 17.5 73.5 17.5c47.333 0 84.666 -16.333 111.999 -49zM391 0
l317 0.00195312l9 121h-21l-5 -20c-6.66699 -25.333 -16.834 -42.333 -30.501 -51s-42.167 -13 -85.5 -13h-12c-17.333 0 -31 1.5 -41 4.5s-17.667 8.33301 -23 16s-9.16602 19 -11.499 34s-3.5 35.5 -3.5 61.5v58h6c26 0 46 -1 60 -3s24.5 -5.83301 31.5 -11.5
s11.5 -13.334 13.5 -23.001s3 -23.5 3 -41.5h20v195h-20c0 -18.667 -1 -32.834 -3 -42.501s-6.5 -17.167 -13.5 -22.5s-17.333 -9 -31 -11s-33.834 -3 -60.501 -3h-6v149h67c43.333 0 71.833 -4.33301 85.5 -13s23.834 -25.667 30.501 -51l5 -20h21l-9 120h-129h-164
c-28.667 11.333 -58.667 17 -90 17c-32.667 0 -63.834 -6 -93.501 -18s-55.834 -28.833 -78.501 -50.5s-40.334 -46.667 -53.001 -75s-19 -58.166 -19 -89.499s6.33301 -61.333 19 -90s30.334 -53.834 53.001 -75.501s48.834 -38.5 78.501 -50.5s60.834 -18 93.501 -18
c31.333 0 61.333 5.66699 90 17z" />
    <glyph glyph-name="Scaron" unicode="&#x160;" horiz-adv-x="498" 
d="M364 803l-12 12l-107 -76l-107 76l-12 -12l119 -129zM107 30c7.33301 -1.33301 19.334 -6.33398 36.001 -15.001c20.667 -9.33301 40.167 -17 58.5 -23s38.833 -9 61.5 -9c26 0 50.5 4.33301 73.5 13s43.167 20.834 60.5 36.501s31 34.667 41 57s15 46.833 15 73.5
c0 30 -8.33301 58.333 -25 85s-43 49 -79 67l-96 49c-45.333 24 -76.833 44.5 -94.5 61.5s-26.5 37.833 -26.5 62.5c0 25.333 9.16699 46.5 27.5 63.5s41.5 25.5 69.5 25.5s51.5 -5 70.5 -15s34.167 -23.5 45.5 -40.5s19.833 -35.5 25.5 -55.5s9.5 -41.333 11.5 -64h21v220
h-20c-4 -18 -13.667 -33.333 -29 -46c-18 13.333 -36.167 23.5 -54.5 30.5s-40.833 10.5 -67.5 10.5c-48 0 -87.667 -14.333 -119 -43s-47 -64 -47 -106c0 -36 10.667 -68.333 32 -97s47.666 -51.334 78.999 -68.001l96 -49c36.667 -19.333 65 -38.833 85 -58.5
s30 -40.5 30 -62.5c0 -32 -11.833 -58.333 -35.5 -79s-53.5 -31 -89.5 -31c-42 0 -76 8.5 -102 25.5s-44.833 36.667 -56.5 59s-19 42 -22 59s-4.5 29.167 -4.5 36.5h-20v-220h20c4 18.667 13.667 34.334 29 47.001z" />
    <glyph glyph-name="scaron" unicode="&#x161;" horiz-adv-x="398" 
d="M314 637l-12 12l-107 -76l-107 76l-12 -12l119 -129zM353 120c0 21.333 -6.33203 42.1689 -18.999 62.502s-32.334 37.166 -59.001 50.499l-67 35c-32.667 17.333 -55.334 31.833 -68.001 43.5s-19 25.834 -19 42.501c0 18 6.83301 32.167 20.5 42.5
s30.834 15.5 51.501 15.5c17.333 0 32.333 -3.83301 45 -11.5s23.167 -17.834 31.5 -30.501s14.833 -26.5 19.5 -41.5s7.66699 -30.833 9 -47.5h20v169h-20c-1.33301 -10 -6 -20 -14 -30l-1 -1c-12 8.66699 -26 15.834 -42 21.501s-33.667 8.5 -53 8.5
c-35.333 0 -65 -11 -89 -33s-36 -49 -36 -81c0 -26.667 7.5 -50.334 22.5 -71.001s35.167 -37.667 60.5 -51l68 -35c54.667 -27.333 82 -57 82 -89c0 -20.667 -7.33301 -37 -22 -49s-33 -18 -55 -18c-38 0 -69.333 11.667 -94 35s-39 56 -43 98h-20v-172h18
c1.33301 7.33301 3.83301 14.166 7.5 20.499s7.5 11.833 11.5 16.5c14 -9.33301 30.5 -17.833 49.5 -25.5s39.833 -11.5 62.5 -11.5c39.333 0 72.833 12.833 100.5 38.5s41.5 58.5 41.5 98.5z" />
    <glyph glyph-name="Ydieresis" unicode="&#x178;" horiz-adv-x="625" 
d="M245 753c-10.667 0 -19.834 -3.83301 -27.501 -11.5s-11.5 -16.834 -11.5 -27.501c0 -11.333 3.83301 -20.833 11.5 -28.5s16.834 -11.5 27.501 -11.5s19.834 3.83301 27.501 11.5s11.5 17.167 11.5 28.5c0 10.667 -3.83301 19.834 -11.5 27.501
s-16.834 11.5 -27.501 11.5zM411 753c-10.667 0 -19.834 -3.83301 -27.501 -11.5s-11.5 -16.834 -11.5 -27.501c0 -11.333 3.83301 -20.833 11.5 -28.5s16.834 -11.5 27.501 -11.5s19.834 4 27.501 12s11.5 17.333 11.5 28s-3.83301 19.834 -11.5 27.501
s-16.834 11.5 -27.501 11.5zM353 242l164.997 249.999c22.667 34 42.834 57 60.501 69s45.834 18 84.501 18v21h-234v-21c49.333 0 74 -9.66699 74 -29c0 -10.667 -6.66699 -26.334 -20 -47.001l-146 -220l-144 220c-12 18.667 -18 33.334 -18 44.001s5.66699 18.667 17 24
s29.666 8 54.999 8v21h-285v-21c34.667 0 62 -6.16699 82 -18.5s41 -35.166 63 -68.499l166 -257v-97c0 -26.667 -1.16699 -47.334 -3.5 -62.001s-6.66602 -26 -12.999 -34s-15.5 -13.5 -27.5 -16.5s-29 -4.5 -51 -4.5v-21h270v21c-22 0 -39 1.5 -51 4.5
s-21.167 8.5 -27.5 16.5s-10.666 19.333 -12.999 34s-3.5 35.334 -3.5 62.001v104z" />
    <glyph glyph-name="florin" unicode="&#x192;" horiz-adv-x="316" 
d="M189 -78l0.00292969 375.999h101v35h-101v96c0 56 6 95.833 18 119.5s31 35.5 57 35.5c15.333 0 26.166 -3.66699 32.499 -11s12.166 -18 17.499 -32c4.66699 -11.333 9.16699 -19.833 13.5 -25.5s11.5 -8.5 21.5 -8.5c22 0 33 11.333 33 34
c0 18.667 -8.83301 36 -26.5 52s-41.834 24 -72.501 24c-21.333 0 -41.833 -3.5 -61.5 -10.5s-37.334 -18.167 -53.001 -33.5s-28 -35 -37 -59s-13.5 -52.333 -13.5 -85v-96h-81v-35h81v-376c0 -58.667 -6.16699 -99.334 -18.5 -122.001s-29.5 -34 -51.5 -34
c-16 0 -27.667 3.5 -35 10.5s-14 17.5 -20 31.5c-5.33301 12 -10.666 21 -15.999 27s-13.666 9 -24.999 9c-17.333 -1.33301 -26 -10.666 -26 -27.999c0 -19.333 10.667 -38 32 -56s49.666 -27 84.999 -27c41.333 0 76 15.833 104 47.5s42 78.834 42 141.501z" />
    <glyph glyph-name="circumflex" unicode="&#x2c6;" horiz-adv-x="403" 
d="M391 163l0.00195312 22.001c-24.667 0 -40.334 4.83301 -47.001 14.5s-10 31.834 -10 66.501v46c0 32.667 -8.16699 59.167 -24.5 79.5s-40.5 30.5 -72.5 30.5c-20.667 0 -39.167 -4.5 -55.5 -13.5s-30.5 -20.5 -42.5 -34.5c-0.666992 8 -2.16699 17 -4.5 27
s-4.5 17.333 -6.5 22l-103 -20v-20c24.667 0 40.5 -5 47.5 -15s10.5 -32 10.5 -66v-36c0 -34.667 -3.5 -56.834 -10.5 -66.501s-22.833 -14.5 -47.5 -14.5v-22h166v22c-22.667 0 -36.834 4.5 -42.501 13.5s-8.5 31.5 -8.5 67.5v47c0 19.333 8.5 35.5 25.5 48.5
s33.167 19.5 48.5 19.5c23.333 0 39.5 -6.16699 48.5 -18.5s13.5 -30.5 13.5 -54.5v-42c0 -34.667 -3.5 -56.834 -10.5 -66.501s-22.5 -14.5 -46.5 -14.5v-22h172z" />
    <glyph glyph-name="tilde" unicode="&#x2dc;" horiz-adv-x="563" 
d="M551 163l0.00683594 22.001c-24 0 -39.5 4.83301 -46.5 14.5s-10.5 31.834 -10.5 66.501v46c0 34.667 -6.5 61.667 -19.5 81s-35.167 29 -66.5 29c-18.667 0 -37.334 -5.16699 -56.001 -15.5s-33.334 -21.833 -44.001 -34.5c-6 16 -15.167 28.333 -27.5 37
s-28.833 13 -49.5 13c-18 0 -34.833 -4.5 -50.5 -13.5s-29.5 -20.5 -41.5 -34.5c-0.666992 7.33301 -2.16699 15.833 -4.5 25.5s-4.5 17.5 -6.5 23.5l-103 -20v-20c24.667 0 40.5 -5 47.5 -15s10.5 -32 10.5 -66v-36c0 -34.667 -3.5 -56.834 -10.5 -66.501
s-22.833 -14.5 -47.5 -14.5v-22h160v22c-20.667 0 -33.334 4.5 -38.001 13.5s-7 31.5 -7 67.5v47c0 19.333 8.16699 35.5 24.5 48.5s30.833 19.5 43.5 19.5c19.333 0 32.666 -6.16699 39.999 -18.5s11 -30.5 11 -54.5v-42c0 -36.667 -2.33301 -59.334 -7 -68.001
s-17.334 -13 -38.001 -13v-22h148v22c-20.667 0 -33.334 4.33301 -38.001 13s-7 31.334 -7 68.001v47c0 19.333 8.16699 35.5 24.5 48.5s30.833 19.5 43.5 19.5c19.333 0 32.833 -6.33301 40.5 -19s11.5 -30.667 11.5 -54v-42c0 -36.667 -2.33301 -59.334 -7 -68.001
s-17.334 -13 -38.001 -13v-22h159z" />
    <glyph glyph-name="endash" unicode="&#x2013;" horiz-adv-x="525" 
d="M525 199v44h-526v-44h526z" />
    <glyph glyph-name="emdash" unicode="&#x2014;" horiz-adv-x="667" 
d="M667 199v44h-668v-44h668z" />
    <glyph glyph-name="quoteleft" unicode="&#x2018;" horiz-adv-x="251" 
d="M178 414c-18 18.667 -31.167 36.166 -39.5 52.499s-14.166 34.5 -17.499 54.5c1.33301 -0.666992 4 -1 8 -1c12.667 0 23.667 4.83301 33 14.5s14 20.834 14 33.501c0 13.333 -4.66699 24.833 -14 34.5s-20.333 14.5 -33 14.5c-14.667 0 -27.334 -5.5 -38.001 -16.5
s-16 -26.833 -16 -47.5c0 -24 8 -50.5 24 -79.5s38.667 -52.5 68 -70.5z" />
    <glyph glyph-name="quoteright" unicode="&#x2019;" horiz-adv-x="251" 
d="M130 521c-3.33301 -20 -9.16602 -38.166 -17.499 -54.499s-21.5 -33.833 -39.5 -52.5l11 -11c29.333 18 52 41.5 68 70.5s24 55.5 24 79.5c0 20.667 -5.33301 36.5 -16 47.5s-23.334 16.5 -38.001 16.5c-12.667 0 -23.667 -4.83301 -33 -14.5s-14 -21.167 -14 -34.5
c0 -12.667 4.66699 -23.834 14 -33.501s20.333 -14.5 33 -14.5c4 0 6.66699 0.333008 8 1z" />
    <glyph glyph-name="quotesinglbase" unicode="&#x201a;" 
d="M294 443c0 23.333 -3.16699 45.666 -9.5 66.999s-15.333 40 -27 56s-25.167 28.5 -40.5 37.5s-31.666 13.5 -48.999 13.5s-33.666 -4.5 -48.999 -13.5s-28.833 -21.5 -40.5 -37.5s-20.667 -34.667 -27 -56s-9.5 -43.666 -9.5 -66.999s3.16699 -45.5 9.5 -66.5
s15.333 -39.5 27 -55.5s25.167 -28.5 40.5 -37.5s31.666 -13.5 48.999 -13.5s33.666 4.5 48.999 13.5s28.833 21.5 40.5 37.5s20.667 34.5 27 55.5s9.5 43.167 9.5 66.5zM236 443c0 -40 -5.83301 -73.667 -17.5 -101s-28.5 -41 -50.5 -41s-38.667 13.5 -50 40.5
s-17 60.833 -17 101.5c0 41.333 5.66699 75.5 17 102.5s28 40.5 50 40.5c22.667 0 39.667 -13.5 51 -40.5s17 -61.167 17 -102.5z" />
    <glyph glyph-name="quotedblleft" unicode="&#x201c;" horiz-adv-x="418" 
d="M345 414c-18.667 19.333 -32.166 37.168 -40.499 53.501s-13.833 34.166 -16.5 53.499c1.33301 -0.666992 4 -1 8 -1c12.667 0 23.667 4.83301 33 14.5s14 20.834 14 33.501c0 13.333 -4.66699 24.833 -14 34.5s-20.333 14.5 -33 14.5
c-14.667 0 -27.334 -5.5 -38.001 -16.5s-16 -26.833 -16 -47.5c0 -24 8 -50.333 24 -79s38.333 -52.334 67 -71.001zM178.001 414.002c-18 18.667 -31.167 36.166 -39.5 52.499s-14.166 34.5 -17.499 54.5c1.33301 -0.666992 4 -1 8 -1c12.667 0 23.667 4.83301 33 14.5
s14 20.834 14 33.501c0 13.333 -4.66699 24.833 -14 34.5s-20.333 14.5 -33 14.5c-14.667 0 -27.334 -5.5 -38.001 -16.5s-16 -26.833 -16 -47.5c0 -24 8 -50.5 24 -79.5s38.667 -52.5 68 -70.5z" />
    <glyph glyph-name="quotedblright" unicode="&#x201d;" horiz-adv-x="418" 
d="M130 521c-3.33301 -20 -9.16602 -38.166 -17.499 -54.499s-21.5 -33.833 -39.5 -52.5l11 -11c29.333 18 52 41.5 68 70.5s24 55.5 24 79.5c0 20.667 -5.33301 36.5 -16 47.5s-23.334 16.5 -38.001 16.5c-12.667 0 -23.667 -4.83301 -33 -14.5s-14 -21.167 -14 -34.5
c0 -12.667 4.66699 -23.834 14 -33.501s20.333 -14.5 33 -14.5c4 0 6.66699 0.333008 8 1zM297 521.001c-3.33301 -20 -9.16699 -37.999 -17.5 -53.999s-21.833 -33.667 -40.5 -53l12 -11c29.333 18 52 41.5 68 70.5s24 55.5 24 79.5c0 20.667 -5.5 36.5 -16.5 47.5
s-23.833 16.5 -38.5 16.5c-12.667 0 -23.5 -4.83301 -32.5 -14.5s-13.5 -21.167 -13.5 -34.5c0 -12.667 4.5 -23.834 13.5 -33.501s19.833 -14.5 32.5 -14.5c4 0 7 0.333008 9 1z" />
    <glyph glyph-name="quotedblbase" unicode="&#x201e;" horiz-adv-x="418" 
d="M130 -8c-3.33301 -20 -9.16602 -37.834 -17.499 -53.501s-21.5 -33.167 -39.5 -52.5l11 -12c29.333 18 52 41.667 68 71s24 56 24 80c0 20.667 -5.33301 36.334 -16 47.001s-23.334 16 -38.001 16c-12.667 0 -23.667 -4.66699 -33 -14s-14 -20.666 -14 -33.999
c0 -12.667 4.66699 -23.834 14 -33.501s20.333 -14.5 33 -14.5h8zM297 -8.00098c-3.33301 -20 -9.16699 -37.8359 -17.5 -53.5029s-21.833 -33.167 -40.5 -52.5l12 -12c29.333 18 52 41.667 68 71s24 56 24 80c0 20.667 -5.5 36.334 -16.5 47.001s-23.833 16 -38.5 16
c-12.667 0 -23.5 -4.66699 -32.5 -14s-13.5 -20.666 -13.5 -33.999s4.5 -24.666 13.5 -33.999s19.833 -14 32.5 -14h9z" />
    <glyph glyph-name="dagger" unicode="&#x2020;" horiz-adv-x="448" 
d="M238 426l90.001 -29c4 -1.33301 8 -2 12 -2c12 0 22.667 4.83301 32 14.5s14 20.834 14 33.501s-4.66699 23.667 -14 33s-20 14 -32 14c-4 0 -8 -0.666992 -12 -2l-92 -30l34 101c0 1.33301 0.333008 3.33301 1 6c0.666992 2 1 3.66699 1 5
c0 12.667 -4.83301 23.667 -14.5 33s-20.834 14 -33.501 14s-23.667 -4.66699 -33 -14s-14 -20.333 -14 -33v-5c0.666992 -2.66699 1 -4.66699 1 -6l35 -101l-94 30c-4 1.33301 -7.66699 2 -11 2c-12 0 -22.667 -4.66699 -32 -14s-14 -20.333 -14 -33
s4.66699 -23.834 14 -33.501s20 -14.5 32 -14.5c3.33301 0 7 0.666992 11 2l92 30l-28 -204l37 -410h8l37 410z" />
    <glyph glyph-name="daggerdbl" unicode="&#x2021;" 
d="M300 577l-0.000976562 23h-243l-19 -103h23l4 17c4 14 11.5 23.833 22.5 29.5s24.5 8.5 40.5 8.5h128l-148 -234c-6 -10 -9 -19 -9 -27c0 -12 6 -20 18 -24c0.666992 0 2.33398 -0.333008 5.00098 -1h4c7.33301 0 13.5 2.66699 18.5 8s10.5 14 16.5 26z" />
    <glyph glyph-name="bullet" unicode="&#x2022;" 
d="M294 83c0 22.667 -7.33301 41.165 -22 55.498s-35.334 27.5 -62.001 39.5c19.333 8.66699 35.333 19.167 48 31.5s19 26.5 19 42.5c0 22.667 -10.667 41.334 -32 56.001s-47 22 -77 22c-29.333 0 -54.666 -8.33301 -75.999 -25s-32 -37 -32 -61
c0 -14.667 5.33301 -28 16 -40s24.667 -23.667 42 -35c-22.667 -9.33301 -40.834 -21.166 -54.501 -35.499s-20.5 -32.833 -20.5 -55.5c0 -27.333 12.167 -50 36.5 -68s53.833 -27 88.5 -27s64.334 9.83301 89.001 29.5s37 43.167 37 70.5zM222 252.998
c0 -12.667 -4.16797 -24.167 -12.501 -34.5s-19.166 -18.833 -32.499 -25.5c-20 10 -35.5 19.5 -46.5 28.5s-16.5 19.5 -16.5 31.5c0 14 5.16699 25.5 15.5 34.5s23.166 13.5 38.499 13.5c14.667 0 27.334 -5 38.001 -15s16 -21 16 -33zM238.999 74.998
c0 -16.667 -6.5 -31.335 -19.5 -44.002s-30.167 -19 -51.5 -19s-38.5 6.33301 -51.5 19s-19.5 27.334 -19.5 44.001c0 18 5 33.167 15 45.5s23 22.5 39 30.5l8 -4c26 -11.333 45.833 -22.166 59.5 -32.499s20.5 -23.5 20.5 -39.5z" />
    <glyph glyph-name="ellipsis" unicode="&#x2026;" horiz-adv-x="896" 
d="M194 40c0 13.333 -4.66699 24.668 -14 34.001s-20.666 14 -33.999 14c-12.667 0 -23.667 -4.66699 -33 -14s-14 -20.666 -14 -33.999c0 -12.667 4.66699 -23.834 14 -33.501s20.333 -14.5 33 -14.5c13.333 0 24.666 4.66699 33.999 14s14 20.666 14 33.999zM486 40.002
c0 12.667 -4.83301 23.832 -14.5 33.499s-20.834 14.5 -33.501 14.5s-23.667 -4.66699 -33 -14s-14 -20.666 -14 -33.999c0 -12.667 4.66699 -23.834 14 -33.501s20.333 -14.5 33 -14.5s23.834 4.83301 33.501 14.5s14.5 20.834 14.5 33.501zM778 40
c0 12.667 -4.83301 23.8301 -14.5 33.4971s-21.167 14.5 -34.5 14.5s-24.333 -4.66699 -33 -14s-13 -20.666 -13 -33.999s4.33301 -24.666 13 -33.999s19.667 -14 33 -14s24.833 4.83301 34.5 14.5s14.5 20.834 14.5 33.501z" />
    <glyph glyph-name="perthousand" unicode="&#x2030;" horiz-adv-x="307" 
d="M284 202l-17 20.998c-11.333 -10 -24.5 -18.333 -39.5 -25s-28.167 -10 -39.5 -10c-30.667 0 -53.667 8.5 -69 25.5s-23 39.5 -23 67.5v10c0.666992 6 1 9.66699 1 11h173c2.66699 9.33301 4 18 4 26c0 26.667 -10.167 49 -30.5 67s-44.833 27 -73.5 27
c-16.667 0 -33.334 -3.33301 -50.001 -10s-31.5 -16.167 -44.5 -28.5s-23.333 -26.666 -31 -42.999s-11.5 -34.166 -11.5 -53.499c0 -38 12.833 -70 38.5 -96s58.5 -39 98.5 -39c20.667 0 41.334 4.66699 62.001 14s38 21.333 52 36zM215 334.998h-112
c5.33301 16.667 13.5 29.5 24.5 38.5s25.167 13.5 42.5 13.5c14.667 0 26.167 -4.16699 34.5 -12.5s12.5 -17.833 12.5 -28.5c0 -4 -0.666992 -7.66699 -2 -11z" />
    <glyph glyph-name="guilsinglleft" unicode="&#x2039;" 
d="M289 378c0 22.667 -7.99902 43.667 -23.999 63s-36.667 33.333 -62 42l79 94v23h-216l-18 -103h22l5 17c3.33301 14 10.5 23.833 21.5 29.5s24.833 8.5 41.5 8.5h86l-99 -104c-6 -6 -9 -12 -9 -18c0 -12 6 -18 18 -18c10 0 18 5.33301 24 16
c7.33301 12 12.666 19.667 15.999 23c17.333 -3.33301 31.333 -11.833 42 -25.5s16 -29.5 16 -47.5c0 -21.333 -6 -39.666 -18 -54.999s-29.333 -23 -52 -23c-18.667 0 -32.667 3.5 -42 10.5s-18 16.5 -26 28.5s-15 18 -21 18c-13.333 0 -20 -6.33301 -20 -19
c0 -14.667 10 -29.667 30 -45s46.333 -23 79 -23c36 0 66.167 10.667 90.5 32s36.5 46.666 36.5 75.999z" />
    <glyph glyph-name="guilsinglright" unicode="&#x203a;" 
d="M296 481h-21l-4 -17c-5.33301 -20 -11.833 -33.5 -19.5 -40.5s-18.834 -10.5 -33.501 -10.5v213h-24l-172 -229v-18h139c0 -30 -3.5 -49.333 -10.5 -58s-22.833 -13 -47.5 -13v-21h172v21c-23.333 0 -38.666 4.33301 -45.999 13s-11 28 -11 58h72zM161 413h-89l89 118
v-118z" />
    <glyph glyph-name="trademark" unicode="&#x2122;" 
d="M289 48l-158.999 0.000976562l89 80c18 15.333 32.5 31.166 43.5 47.499s16.5 34.833 16.5 55.5c0 30 -12 54 -36 72s-53 27 -87 27c-35.333 0 -63.5 -9.33301 -84.5 -28s-31.5 -40.667 -31.5 -66c0 -29.333 14 -53.666 42 -72.999l26 25c-10.667 16 -16 31.333 -16 46
c0 17.333 6.33301 31.5 19 42.5s27 16.5 43 16.5c21.333 0 38.166 -6 50.499 -18s18.5 -27.667 18.5 -47c0 -18 -3.16699 -33.333 -9.5 -46s-17.833 -26.334 -34.5 -41.001l-132 -118v-23h233z" />
    </font>
</defs>
</svg>
