<?xml version="1.0" encoding="UTF-8"?>
<svg width="900px" height="300px" viewBox="0 0 900 300" version="1.1" xmlns="http://www.w3.org/2000/svg" xmlns:xlink="http://www.w3.org/1999/xlink">
    <!-- Generator: Sketch 60.1 (88133) - https://sketch.com -->
    <title>Atom</title>
    <desc>Created with Sketch.</desc>
    <g id="Atom" stroke="none" stroke-width="1" fill="none" fill-rule="evenodd">
        <g id="Illustration_Frame">
            <rect id="Rectangle" stroke="#3D3530" stroke-width="2" fill="#EEEEEE" x="1" y="1" width="898" height="298"></rect>
            <rect id="Rectangle-Copy" stroke="#3D3530" stroke-width="2" fill="#F8FAE4" x="1" y="256" width="898" height="43"></rect>
            <path d="M818.773333,285 L820.837333,279.96 L828.373333,279.96 L830.437333,285 L832.069333,285 L825.349333,268.872 L823.837333,268.872 L817.117333,285 L818.773333,285 Z M827.725333,278.376 L821.485333,278.376 L824.605333,270.72 L827.725333,278.376 Z M838.592,285.192 C839.184,285.192 839.76,285.036 840.32,284.724 C840.88,284.412 841.24,284.168 841.4,283.992 C841.56,283.816 841.688,283.664 841.784,283.536 L841.784,283.536 L840.992,282.312 C840.992,282.376 840.908,282.516 840.74,282.732 C840.572,282.948 840.312,283.168 839.96,283.392 C839.608,283.616 839.248,283.728 838.88,283.728 C838.288,283.728 837.764,283.512 837.308,283.08 C836.852,282.648 836.624,282.064 836.624,281.328 L836.624,281.328 L836.624,274.44 L840.248,274.44 L840.248,272.976 L836.624,272.976 L836.624,268.992 L835.04,269.184 L835.04,272.976 L833.12,272.976 L833.12,274.44 L835.04,274.44 L835.04,281.688 C835.04,282.824 835.38,283.692 836.06,284.292 C836.74,284.892 837.584,285.192 838.592,285.192 Z M849.434667,285.192 C851.146667,285.192 852.602667,284.584 853.802667,283.368 C855.018667,282.152 855.626667,280.696 855.626667,279 C855.626667,277.288 855.022667,275.828 853.814667,274.62 C852.606667,273.412 851.146667,272.808 849.434667,272.808 C847.722667,272.808 846.262667,273.412 845.054667,274.62 C843.846667,275.828 843.242667,277.288 843.242667,279 C843.242667,280.712 843.846667,282.172 845.054667,283.38 C846.262667,284.588 847.722667,285.192 849.434667,285.192 Z M849.458667,283.68 C848.178667,283.68 847.090667,283.228 846.194667,282.324 C845.298667,281.42 844.850667,280.312 844.850667,279 C844.850667,277.688 845.298667,276.576 846.194667,275.664 C847.090667,274.752 848.178667,274.296 849.458667,274.296 C850.754667,274.296 851.846667,274.752 852.734667,275.664 C853.622667,276.576 854.066667,277.688 854.066667,279 C854.066667,280.312 853.622667,281.42 852.734667,282.324 C851.846667,283.228 850.754667,283.68 849.458667,283.68 Z M860.253333,285 L860.253333,277.968 C860.253333,276.944 860.601333,276.072 861.297333,275.352 C861.993333,274.632 862.837333,274.272 863.829333,274.272 C864.821333,274.272 865.665333,274.632 866.361333,275.352 C867.057333,276.072 867.405333,276.944 867.405333,277.968 L867.405333,277.968 L867.405333,285 L869.013333,285 L869.013333,277.968 C869.013333,276.928 869.357333,276.052 870.045333,275.34 C870.733333,274.628 871.581333,274.272 872.589333,274.272 C873.597333,274.272 874.441333,274.628 875.121333,275.34 C875.801333,276.052 876.141333,276.928 876.141333,277.968 L876.141333,277.968 L876.141333,285 L877.773333,285 L877.773333,277.92 C877.773333,276.48 877.301333,275.268 876.357333,274.284 C875.413333,273.3 874.245333,272.808 872.853333,272.808 C871.861333,272.808 870.973333,273.04 870.189333,273.504 C869.405333,273.968 868.805333,274.592 868.389333,275.376 C867.957333,274.592 867.361333,273.968 866.601333,273.504 C865.841333,273.04 865.005333,272.808 864.093333,272.808 C862.509333,272.808 861.229333,273.464 860.253333,274.776 L860.253333,274.776 L860.253333,273 L858.669333,273 L858.669333,285 L860.253333,285 Z" id="Atom" fill="#23ABE3" fill-rule="nonzero"></path>
        </g>
        <g transform="translate(353.000000, 38.000000)">
            <circle id="Oval-7-Copy-20" stroke="#524740" fill="#B09679" cx="95" cy="85" r="13"></circle>
            <circle id="Oval-7-Copy-15" stroke="#524740" fill="#23ABE3" cx="88" cy="94" r="13"></circle>
            <circle id="Oval-7-Copy-16" stroke="#524740" fill="#23ABE3" cx="108" cy="106" r="13"></circle>
            <circle id="Oval-7-Copy-19" stroke="#524740" fill="#23ABE3" cx="107" cy="88" r="13"></circle>
            <circle id="Oval-7-Copy-17" stroke="#524740" fill="#B09679" cx="89" cy="109" r="13"></circle>
            <circle id="Oval-7-Copy-18" stroke="#524740" fill="#B09679" cx="99" cy="92" r="13"></circle>
            <ellipse id="Oval-8" stroke="#979797" cx="97" cy="97.5" rx="24" ry="97.5"></ellipse>
            <ellipse id="Oval-8-Copy" stroke="#979797" transform="translate(97.000000, 97.500000) rotate(-315.000000) translate(-97.000000, -97.500000) " cx="97" cy="97.5" rx="24" ry="97.5"></ellipse>
            <ellipse id="Oval-8-Copy-2" stroke="#979797" transform="translate(97.000000, 97.500000) rotate(-240.000000) translate(-97.000000, -97.500000) " cx="97" cy="97.5" rx="24" ry="97.5"></ellipse>
            <circle id="Oval-7-Copy-21" stroke="#979797" fill="#F5A623" cx="110" cy="14" r="5"></circle>
            <circle id="Oval-7-Copy-22" stroke="#979797" fill="#F5A623" cx="50" cy="114" r="5"></circle>
            <circle id="Oval-7-Copy-23" stroke="#979797" fill="#F5A623" cx="140" cy="144" r="5"></circle>
        </g>
    </g>
</svg>