<?xml version="1.0" encoding="UTF-8"?>
<svg width="900px" height="300px" viewBox="0 0 900 300" version="1.1" xmlns="http://www.w3.org/2000/svg" xmlns:xlink="http://www.w3.org/1999/xlink">
    <!-- Generator: Sketch 60.1 (88133) - https://sketch.com -->
    <title>Atoms_Sharing_an_Electron</title>
    <desc>Created with Sketch.</desc>
    <g id="Atoms_Sharing_an_Electron" stroke="none" stroke-width="1" fill="none" fill-rule="evenodd">
        <g id="Illustration_Frame">
            <rect id="Rectangle" stroke="#3D3530" stroke-width="2" fill="#EEEEEE" x="1" y="1" width="898" height="298"></rect>
            <rect id="Rectangle-Copy" stroke="#3D3530" stroke-width="2" fill="#F8FAE4" x="1" y="256" width="898" height="43"></rect>
            <path d="M567.581332,285 L569.645332,279.96 L577.181332,279.96 L579.245332,285 L580.877332,285 L574.157332,268.872 L572.645332,268.872 L565.925332,285 L567.581332,285 Z M576.533332,278.376 L570.293332,278.376 L573.413332,270.72 L576.533332,278.376 Z M587.399999,285.192 C587.991999,285.192 588.567999,285.036 589.127999,284.724 C589.687999,284.412 590.047999,284.168 590.207999,283.992 C590.367999,283.816 590.495999,283.664 590.591999,283.536 L590.591999,283.536 L589.799999,282.312 C589.799999,282.376 589.715999,282.516 589.547999,282.732 C589.379999,282.948 589.119999,283.168 588.767999,283.392 C588.415999,283.616 588.055999,283.728 587.687999,283.728 C587.095999,283.728 586.571999,283.512 586.115999,283.08 C585.659999,282.648 585.431999,282.064 585.431999,281.328 L585.431999,281.328 L585.431999,274.44 L589.055999,274.44 L589.055999,272.976 L585.431999,272.976 L585.431999,268.992 L583.847999,269.184 L583.847999,272.976 L581.927999,272.976 L581.927999,274.44 L583.847999,274.44 L583.847999,281.688 C583.847999,282.824 584.187999,283.692 584.867999,284.292 C585.547999,284.892 586.391999,285.192 587.399999,285.192 Z M598.242666,285.192 C599.954666,285.192 601.410666,284.584 602.610666,283.368 C603.826666,282.152 604.434666,280.696 604.434666,279 C604.434666,277.288 603.830666,275.828 602.622666,274.62 C601.414666,273.412 599.954666,272.808 598.242666,272.808 C596.530666,272.808 595.070666,273.412 593.862666,274.62 C592.654666,275.828 592.050666,277.288 592.050666,279 C592.050666,280.712 592.654666,282.172 593.862666,283.38 C595.070666,284.588 596.530666,285.192 598.242666,285.192 Z M598.266666,283.68 C596.986666,283.68 595.898666,283.228 595.002666,282.324 C594.106666,281.42 593.658666,280.312 593.658666,279 C593.658666,277.688 594.106666,276.576 595.002666,275.664 C595.898666,274.752 596.986666,274.296 598.266666,274.296 C599.562666,274.296 600.654666,274.752 601.542666,275.664 C602.430666,276.576 602.874666,277.688 602.874666,279 C602.874666,280.312 602.430666,281.42 601.542666,282.324 C600.654666,283.228 599.562666,283.68 598.266666,283.68 Z M609.061333,285 L609.061333,277.968 C609.061333,276.944 609.409333,276.072 610.105333,275.352 C610.801333,274.632 611.645333,274.272 612.637333,274.272 C613.629333,274.272 614.473333,274.632 615.169333,275.352 C615.865333,276.072 616.213333,276.944 616.213333,277.968 L616.213333,277.968 L616.213333,285 L617.821333,285 L617.821333,277.968 C617.821333,276.928 618.165333,276.052 618.853333,275.34 C619.541333,274.628 620.389333,274.272 621.397333,274.272 C622.405333,274.272 623.249333,274.628 623.929333,275.34 C624.609333,276.052 624.949333,276.928 624.949333,277.968 L624.949333,277.968 L624.949333,285 L626.581333,285 L626.581333,277.92 C626.581333,276.48 626.109333,275.268 625.165333,274.284 C624.221333,273.3 623.053333,272.808 621.661333,272.808 C620.669333,272.808 619.781333,273.04 618.997333,273.504 C618.213333,273.968 617.613333,274.592 617.197333,275.376 C616.765333,274.592 616.169333,273.968 615.409333,273.504 C614.649333,273.04 613.813333,272.808 612.901333,272.808 C611.317333,272.808 610.037333,273.464 609.061333,274.776 L609.061333,274.776 L609.061333,273 L607.477333,273 L607.477333,285 L609.061333,285 Z M634.495999,285.192 C635.967999,285.192 637.071999,284.88 637.807999,284.256 C638.543999,283.632 638.911999,282.816 638.911999,281.808 C638.911999,281.088 638.647999,280.476 638.119999,279.972 C637.591999,279.468 636.947999,279.084 636.187999,278.82 C635.427999,278.556 634.671999,278.312 633.919999,278.088 C633.167999,277.864 632.527999,277.596 631.999999,277.284 C631.471999,276.972 631.207999,276.6 631.207999,276.168 C631.207999,275.56 631.475999,275.088 632.011999,274.752 C632.547999,274.416 633.247999,274.248 634.111999,274.248 C634.719999,274.248 635.327999,274.384 635.935999,274.656 C636.543999,274.928 636.947999,275.144 637.147999,275.304 C637.347999,275.464 637.503999,275.6 637.615999,275.712 L637.615999,275.712 L638.743999,274.728 L638.239999,274.248 C637.903999,273.928 637.351999,273.608 636.583999,273.288 C635.815999,272.968 634.999999,272.808 634.135999,272.808 C632.679999,272.808 631.579999,273.124 630.835999,273.756 C630.091999,274.388 629.719999,275.2 629.719999,276.192 C629.719999,276.912 629.983999,277.52 630.511999,278.016 C631.039999,278.512 631.683999,278.896 632.443999,279.168 C633.203999,279.44 633.959999,279.688 634.711999,279.912 C635.463999,280.136 636.103999,280.404 636.631999,280.716 C637.159999,281.028 637.423999,281.4 637.423999,281.832 C637.423999,282.44 637.159999,282.912 636.631999,283.248 C636.103999,283.584 635.399999,283.752 634.519999,283.752 C633.927999,283.752 633.327999,283.616 632.719999,283.344 C632.111999,283.072 631.707999,282.856 631.507999,282.696 C631.307999,282.536 631.151999,282.4 631.039999,282.288 L631.039999,282.288 L629.911999,283.248 L630.103999,283.464 C630.231999,283.592 630.431999,283.752 630.703999,283.944 C630.975999,284.136 631.283999,284.324 631.627999,284.508 C631.971999,284.692 632.399999,284.852 632.911999,284.988 C633.423999,285.124 633.951999,285.192 634.495999,285.192 Z M654.309333,285.192 C655.893333,285.192 657.125333,284.792 658.005333,283.992 C658.885333,283.192 659.325333,282.208 659.325333,281.04 C659.325333,280.128 659.025333,279.336 658.425333,278.664 C657.825333,277.992 657.093333,277.464 656.229333,277.08 C655.365333,276.696 654.505333,276.328 653.649333,275.976 C652.793333,275.624 652.065333,275.188 651.465333,274.668 C650.865333,274.148 650.565333,273.544 650.565333,272.856 C650.565333,272.04 650.873333,271.396 651.489333,270.924 C652.105333,270.452 652.949333,270.216 654.021333,270.216 C654.885333,270.216 655.709333,270.44 656.493333,270.888 C657.277333,271.336 657.877333,271.784 658.293333,272.232 L658.293333,272.232 L659.397333,271.152 C658.885333,270.608 658.129333,270.064 657.129333,269.52 C656.129333,268.976 655.093333,268.704 654.021333,268.704 C652.437333,268.704 651.205333,269.104 650.325333,269.904 C649.445333,270.704 649.005333,271.688 649.005333,272.856 C649.005333,273.768 649.305333,274.56 649.905333,275.232 C650.505333,275.904 651.237333,276.436 652.101333,276.828 C652.965333,277.22 653.825333,277.592 654.681333,277.944 C655.537333,278.296 656.265333,278.728 656.865333,279.24 C657.465333,279.752 657.765333,280.352 657.765333,281.04 C657.765333,281.856 657.457333,282.5 656.841333,282.972 C656.225333,283.444 655.381333,283.68 654.309333,283.68 C653.429333,283.68 652.597333,283.452 651.813333,282.996 C651.029333,282.54 650.437333,282.096 650.037333,281.664 L650.037333,281.664 L648.933333,282.744 C649.445333,283.288 650.201333,283.832 651.201333,284.376 C652.201333,284.92 653.237333,285.192 654.309333,285.192 Z M664.527999,285 L664.527999,277.968 C664.527999,276.944 664.875999,276.076 665.571999,275.364 C666.267999,274.652 667.111999,274.296 668.103999,274.296 C669.111999,274.296 669.959999,274.652 670.647999,275.364 C671.335999,276.076 671.679999,276.952 671.679999,277.992 L671.679999,277.992 L671.679999,285 L673.287999,285 L673.287999,277.968 C673.287999,276.528 672.815999,275.308 671.871999,274.308 C670.927999,273.308 669.759999,272.808 668.367999,272.808 C666.783999,272.808 665.503999,273.464 664.527999,274.776 L664.527999,274.776 L664.527999,267.144 L662.943999,267.144 L662.943999,285 L664.527999,285 Z M682.402666,285.192 C684.290666,285.192 685.850666,284.48 687.082666,283.056 L687.082666,283.056 L687.082666,285 L688.666666,285 L688.666666,273 L687.082666,273 L687.082666,274.944 C685.866666,273.52 684.306666,272.808 682.402666,272.808 C680.690666,272.808 679.230666,273.412 678.022666,274.62 C676.814666,275.828 676.210666,277.288 676.210666,279 C676.210666,280.712 676.814666,282.172 678.022666,283.38 C679.230666,284.588 680.690666,285.192 682.402666,285.192 Z M682.426666,283.68 C681.146666,283.68 680.054666,283.228 679.150666,282.324 C678.246666,281.42 677.794666,280.312 677.794666,279 C677.794666,277.688 678.246666,276.58 679.150666,275.676 C680.054666,274.772 681.146666,274.32 682.426666,274.32 C683.722666,274.32 684.814666,274.772 685.702666,275.676 C686.590666,276.58 687.034666,277.688 687.034666,279 C687.034666,280.312 686.590666,281.42 685.702666,282.324 C684.814666,283.228 683.722666,283.68 682.426666,283.68 Z M694.157333,285 L694.157333,277.968 C694.157333,276.928 694.501333,276.052 695.189333,275.34 C695.877333,274.628 696.725333,274.272 697.733333,274.272 C698.421333,274.272 699.101333,274.52 699.773333,275.016 L699.773333,275.016 L700.325333,273.432 C699.621333,273.016 698.845333,272.808 697.997333,272.808 C696.413333,272.808 695.133333,273.464 694.157333,274.776 L694.157333,274.776 L694.157333,273 L692.573333,273 L692.573333,285 L694.157333,285 Z M704.087999,269.688 C704.359999,269.688 704.583999,269.592 704.759999,269.4 C704.951999,269.208 705.047999,268.984 705.047999,268.728 C705.047999,268.472 704.955999,268.248 704.771999,268.056 C704.587999,267.864 704.359999,267.768 704.087999,267.768 C703.815999,267.768 703.587999,267.864 703.403999,268.056 C703.219999,268.248 703.127999,268.472 703.127999,268.728 C703.127999,268.984 703.219999,269.208 703.403999,269.4 C703.587999,269.592 703.815999,269.688 704.087999,269.688 Z M704.879999,285 L704.879999,273 L703.295999,273 L703.295999,285 L704.879999,285 Z M710.802666,285 L710.802666,277.968 C710.802666,276.944 711.150666,276.072 711.846666,275.352 C712.542666,274.632 713.386666,274.272 714.378666,274.272 C715.370666,274.272 716.214666,274.632 716.910666,275.352 C717.606666,276.072 717.954666,276.944 717.954666,277.968 L717.954666,277.968 L717.954666,285 L719.562666,285 L719.562666,277.92 C719.562666,276.48 719.090666,275.268 718.146666,274.284 C717.202666,273.3 716.034666,272.808 714.642666,272.808 C713.058666,272.808 711.778666,273.464 710.802666,274.776 L710.802666,274.776 L710.802666,273 L709.218666,273 L709.218666,285 L710.802666,285 Z M728.917333,290.112 C730.549333,290.112 731.985333,289.524 733.225333,288.348 C734.465333,287.172 735.093333,285.712 735.109333,283.968 L735.109333,283.968 L735.109333,273.024 L733.501333,273.024 L733.501333,274.968 C732.269333,273.544 730.709333,272.832 728.821333,272.832 C727.109333,272.832 725.649333,273.436 724.441333,274.644 C723.233333,275.852 722.629333,277.312 722.629333,279.024 C722.629333,280.736 723.233333,282.196 724.441333,283.404 C725.649333,284.612 727.109333,285.216 728.821333,285.216 C730.725333,285.216 732.285333,284.504 733.501333,283.08 L733.501333,283.08 L733.501333,283.968 L733.525333,283.968 C733.509333,285.216 733.057333,286.308 732.169333,287.244 C731.281333,288.18 730.197333,288.648 728.917333,288.648 C727.829333,288.648 726.861333,288.344 726.013333,287.736 C725.165333,287.128 724.589333,286.416 724.285333,285.6 L724.285333,285.6 L722.989333,286.248 C723.357333,287.24 724.065333,288.132 725.113333,288.924 C726.161333,289.716 727.429333,290.112 728.917333,290.112 Z M728.845333,283.728 C727.565333,283.728 726.477333,283.276 725.581333,282.372 C724.685333,281.468 724.237333,280.36 724.237333,279.048 C724.237333,277.736 724.685333,276.628 725.581333,275.724 C726.477333,274.82 727.565333,274.368 728.845333,274.368 C730.141333,274.368 731.233333,274.82 732.121333,275.724 C733.009333,276.628 733.453333,277.736 733.453333,279.048 C733.453333,280.36 733.009333,281.468 732.121333,282.372 C731.233333,283.276 730.141333,283.728 728.845333,283.728 Z M752.018666,285.192 C753.906666,285.192 755.466666,284.48 756.698666,283.056 L756.698666,283.056 L756.698666,285 L758.282666,285 L758.282666,273 L756.698666,273 L756.698666,274.944 C755.482666,273.52 753.922666,272.808 752.018666,272.808 C750.306666,272.808 748.846666,273.412 747.638666,274.62 C746.430666,275.828 745.826666,277.288 745.826666,279 C745.826666,280.712 746.430666,282.172 747.638666,283.38 C748.846666,284.588 750.306666,285.192 752.018666,285.192 Z M752.042666,283.68 C750.762666,283.68 749.670666,283.228 748.766666,282.324 C747.862666,281.42 747.410666,280.312 747.410666,279 C747.410666,277.688 747.862666,276.58 748.766666,275.676 C749.670666,274.772 750.762666,274.32 752.042666,274.32 C753.338666,274.32 754.430666,274.772 755.318666,275.676 C756.206666,276.58 756.650666,277.688 756.650666,279 C756.650666,280.312 756.206666,281.42 755.318666,282.324 C754.430666,283.228 753.338666,283.68 752.042666,283.68 Z M763.773333,285 L763.773333,277.968 C763.773333,276.944 764.121333,276.072 764.817333,275.352 C765.513333,274.632 766.357333,274.272 767.349333,274.272 C768.341333,274.272 769.185333,274.632 769.881333,275.352 C770.577333,276.072 770.925333,276.944 770.925333,277.968 L770.925333,277.968 L770.925333,285 L772.533333,285 L772.533333,277.92 C772.533333,276.48 772.061333,275.268 771.117333,274.284 C770.173333,273.3 769.005333,272.808 767.613333,272.808 C766.029333,272.808 764.749333,273.464 763.773333,274.776 L763.773333,274.776 L763.773333,273 L762.189333,273 L762.189333,285 L763.773333,285 Z M794.266666,285 L794.266666,283.416 L785.266666,283.416 L785.266666,277.584 L790.330666,277.584 L790.330666,276 L785.266666,276 L785.266666,270.456 L794.266666,270.456 L794.266666,268.872 L783.682666,268.872 L783.682666,285 L794.266666,285 Z M799.349333,285 L799.349333,267.144 L797.765333,267.144 L797.765333,285 L799.349333,285 Z M808.776,285.072 C810.248,285.088 811.516,284.672 812.58,283.824 C813.644,282.976 814.36,282.048 814.728,281.04 L814.728,281.04 L813.384,280.56 C813.08,281.376 812.504,282.088 811.656,282.696 C810.808,283.304 809.848,283.608 808.776,283.608 C807.784,283.624 806.88,283.324 806.064,282.708 C805.248,282.092 804.704,281.304 804.432,280.344 L804.432,280.344 L814.92,278.448 C814.92,278.32 814.912,278.216 814.896,278.136 C814.72,276.6 814.048,275.312 812.88,274.272 C811.712,273.232 810.344,272.704 808.776,272.688 C807.048,272.704 805.584,273.312 804.384,274.512 C803.184,275.712 802.584,277.176 802.584,278.904 C802.584,279.528 802.664,280.104 802.824,280.632 C803.224,281.928 803.98,282.992 805.092,283.824 C806.204,284.656 807.432,285.072 808.776,285.072 Z M804.192,279.048 C804.192,278.968 804.188,278.868 804.18,278.748 C804.172,278.628 804.168,278.544 804.168,278.496 C804.232,277.312 804.692,276.296 805.548,275.448 C806.404,274.6 807.432,274.168 808.632,274.152 C809.656,274.136 810.584,274.436 811.416,275.052 C812.248,275.668 812.816,276.464 813.12,277.44 L813.12,277.44 L804.192,279.048 Z M823.770666,285.192 C824.858666,285.192 825.870666,284.924 826.806666,284.388 C827.742666,283.852 828.482666,283.136 829.026666,282.24 L829.026666,282.24 L827.586666,281.544 C827.154666,282.2 826.602666,282.72 825.930666,283.104 C825.258666,283.488 824.538666,283.68 823.770666,283.68 C822.474666,283.68 821.382666,283.228 820.494666,282.324 C819.606666,281.42 819.162666,280.312 819.162666,279 C819.162666,277.688 819.606666,276.58 820.494666,275.676 C821.382666,274.772 822.474666,274.32 823.770666,274.32 C824.538666,274.32 825.258666,274.512 825.930666,274.896 C826.602666,275.28 827.154666,275.8 827.586666,276.456 L827.586666,276.456 L829.026666,275.76 C828.482666,274.864 827.742666,274.148 826.806666,273.612 C825.870666,273.076 824.858666,272.808 823.770666,272.808 C822.058666,272.808 820.598666,273.412 819.390666,274.62 C818.182666,275.828 817.578666,277.288 817.578666,279 C817.578666,280.712 818.182666,282.172 819.390666,283.38 C820.598666,284.588 822.058666,285.192 823.770666,285.192 Z M836.821333,285.192 C837.413333,285.192 837.989333,285.036 838.549333,284.724 C839.109333,284.412 839.469333,284.168 839.629333,283.992 C839.789333,283.816 839.917333,283.664 840.013333,283.536 L840.013333,283.536 L839.221333,282.312 C839.221333,282.376 839.137333,282.516 838.969333,282.732 C838.801333,282.948 838.541333,283.168 838.189333,283.392 C837.837333,283.616 837.477333,283.728 837.109333,283.728 C836.517333,283.728 835.993333,283.512 835.537333,283.08 C835.081333,282.648 834.853333,282.064 834.853333,281.328 L834.853333,281.328 L834.853333,274.44 L838.477333,274.44 L838.477333,272.976 L834.853333,272.976 L834.853333,268.992 L833.269333,269.184 L833.269333,272.976 L831.349333,272.976 L831.349333,274.44 L833.269333,274.44 L833.269333,281.688 C833.269333,282.824 833.609333,283.692 834.289333,284.292 C834.969333,284.892 835.813333,285.192 836.821333,285.192 Z M844.712,285 L844.712,277.968 C844.712,276.928 845.056,276.052 845.744,275.34 C846.432,274.628 847.28,274.272 848.288,274.272 C848.976,274.272 849.656,274.52 850.328,275.016 L850.328,275.016 L850.88,273.432 C850.176,273.016 849.4,272.808 848.552,272.808 C846.968,272.808 845.688,273.464 844.712,274.776 L844.712,274.776 L844.712,273 L843.128,273 L843.128,285 L844.712,285 Z M858.194667,285.192 C859.906667,285.192 861.362667,284.584 862.562667,283.368 C863.778667,282.152 864.386667,280.696 864.386667,279 C864.386667,277.288 863.782667,275.828 862.574667,274.62 C861.366667,273.412 859.906667,272.808 858.194667,272.808 C856.482667,272.808 855.022667,273.412 853.814667,274.62 C852.606667,275.828 852.002667,277.288 852.002667,279 C852.002667,280.712 852.606667,282.172 853.814667,283.38 C855.022667,284.588 856.482667,285.192 858.194667,285.192 Z M858.218667,283.68 C856.938667,283.68 855.850667,283.228 854.954667,282.324 C854.058667,281.42 853.610667,280.312 853.610667,279 C853.610667,277.688 854.058667,276.576 854.954667,275.664 C855.850667,274.752 856.938667,274.296 858.218667,274.296 C859.514667,274.296 860.606667,274.752 861.494667,275.664 C862.382667,276.576 862.826667,277.688 862.826667,279 C862.826667,280.312 862.382667,281.42 861.494667,282.324 C860.606667,283.228 859.514667,283.68 858.218667,283.68 Z M869.013333,285 L869.013333,277.968 C869.013333,276.944 869.361333,276.072 870.057333,275.352 C870.753333,274.632 871.597333,274.272 872.589333,274.272 C873.581333,274.272 874.425333,274.632 875.121333,275.352 C875.817333,276.072 876.165333,276.944 876.165333,277.968 L876.165333,277.968 L876.165333,285 L877.773333,285 L877.773333,277.92 C877.773333,276.48 877.301333,275.268 876.357333,274.284 C875.413333,273.3 874.245333,272.808 872.853333,272.808 C871.269333,272.808 869.989333,273.464 869.013333,274.776 L869.013333,274.776 L869.013333,273 L867.429333,273 L867.429333,285 L869.013333,285 Z" id="AtomsSharinganElectron" fill="#23ABE3" fill-rule="nonzero"></path>
        </g>
        <g transform="translate(253.000000, 54.000000)">
            <g id="Atom-Copy">
                <circle id="Oval-7-Copy-20" stroke="#524740" fill="#B09679" cx="95" cy="74" r="13"></circle>
                <circle id="Oval-7-Copy-15" stroke="#524740" fill="#23ABE3" cx="88" cy="83" r="13"></circle>
                <circle id="Oval-7-Copy-16" stroke="#524740" fill="#23ABE3" cx="108" cy="95" r="13"></circle>
                <circle id="Oval-7-Copy-19" stroke="#524740" fill="#23ABE3" cx="107" cy="77" r="13"></circle>
                <circle id="Oval-7-Copy-17" stroke="#524740" fill="#B09679" cx="89" cy="98" r="13"></circle>
                <circle id="Oval-7-Copy-18" stroke="#524740" fill="#B09679" cx="99" cy="81" r="13"></circle>
                <ellipse id="Oval-8-Copy" stroke="#979797" transform="translate(97.000000, 86.500000) rotate(-315.000000) translate(-97.000000, -86.500000) " cx="97" cy="86.5" rx="24" ry="97.5"></ellipse>
                <ellipse id="Oval-8-Copy-2" stroke="#979797" transform="translate(97.000000, 86.500000) rotate(-240.000000) translate(-97.000000, -86.500000) " cx="97" cy="86.5" rx="24" ry="97.5"></ellipse>
                <circle id="Oval-7-Copy-22" stroke="#979797" fill="#F5A623" cx="50" cy="103" r="5"></circle>
                <circle id="Oval-7-Copy-23" stroke="#979797" fill="#F5A623" cx="140" cy="133" r="5"></circle>
                <path d="M22.2617188,73.765625 C22.2617188,108.705834 48.8085937,148.453125 89.046875,147.679688 C129.285156,146.90625 189.464844,103.960937 201.762832,88.2265625 C214.06082,72.4921875 244.277344,12.6640625 299.679688,12.453125 C355.082031,12.2421875 380.464844,40.671875 381.253906,73.765625 C382.042969,106.859375 336.15625,147.679688 299.679688,147.679688 C263.203125,147.679688 224.578961,100.613281 195.332031,65.0117187 C166.085101,29.4101563 123.632812,11.703125 89.046875,12.453125 C54.4609375,13.203125 22.2617188,38.8254162 22.2617188,73.765625 Z" id="Path-6" stroke="#23ABE3" stroke-width="2"></path>
                <circle id="Oval-7-Copy-21" stroke="#999999" fill="#F5A623" cx="110" cy="14" r="5"></circle>
            </g>
            <g id="Atom-Copy-3" transform="translate(200.000000, 0.000000)">
                <circle id="Oval-7-Copy-20" stroke="#524740" fill="#B09679" cx="95" cy="74" r="13"></circle>
                <circle id="Oval-7-Copy-15" stroke="#524740" fill="#23ABE3" cx="88" cy="83" r="13"></circle>
                <circle id="Oval-7-Copy-16" stroke="#524740" fill="#23ABE3" cx="108" cy="95" r="13"></circle>
                <circle id="Oval-7-Copy-19" stroke="#524740" fill="#23ABE3" cx="107" cy="77" r="13"></circle>
                <circle id="Oval-7-Copy-17" stroke="#524740" fill="#B09679" cx="89" cy="98" r="13"></circle>
                <circle id="Oval-7-Copy-18" stroke="#524740" fill="#B09679" cx="99" cy="81" r="13"></circle>
                <ellipse id="Oval-8-Copy" stroke="#979797" transform="translate(97.000000, 86.500000) rotate(-315.000000) translate(-97.000000, -86.500000) " cx="97" cy="86.5" rx="24" ry="97.5"></ellipse>
                <ellipse id="Oval-8-Copy-2" stroke="#979797" transform="translate(97.000000, 86.500000) rotate(-240.000000) translate(-97.000000, -86.500000) " cx="97" cy="86.5" rx="24" ry="97.5"></ellipse>
                <circle id="Oval-7-Copy-22" stroke="#979797" fill="#F5A623" cx="50" cy="103" r="5"></circle>
                <circle id="Oval-7-Copy-23" stroke="#979797" fill="#F5A623" cx="140" cy="133" r="5"></circle>
            </g>
        </g>
    </g>
</svg>