<?xml version="1.0" encoding="UTF-8"?>
<svg width="900px" height="170px" viewBox="0 0 900 170" version="1.1" xmlns="http://www.w3.org/2000/svg" xmlns:xlink="http://www.w3.org/1999/xlink">
    <!-- Generator: Sketch 60.1 (88133) - https://sketch.com -->
    <title>Electromagnetic_Wave</title>
    <desc>Created with Sketch.</desc>
    <g id="Electromagnetic_Wave" stroke="none" stroke-width="1" fill="none" fill-rule="evenodd">
        <g id="Illustration_Frame">
            <rect id="Rectangle" stroke="#3D3530" stroke-width="2" fill="#EEEEEE" x="1" y="1" width="898" height="168"></rect>
            <rect id="Rectangle-Copy" stroke="#3D3530" stroke-width="2" fill="#F8FAE4" x="1" y="126" width="898" height="43"></rect>
            <path d="M622.850666,155 L622.850666,153.416 L613.850666,153.416 L613.850666,147.584 L618.914666,147.584 L618.914666,146 L613.850666,146 L613.850666,140.456 L622.850666,140.456 L622.850666,138.872 L612.266666,138.872 L612.266666,155 L622.850666,155 Z M627.933333,155 L627.933333,137.144 L626.349333,137.144 L626.349333,155 L627.933333,155 Z M637.359999,155.072 C638.831999,155.088 640.099999,154.672 641.163999,153.824 C642.227999,152.976 642.943999,152.048 643.311999,151.04 L643.311999,151.04 L641.967999,150.56 C641.663999,151.376 641.087999,152.088 640.239999,152.696 C639.391999,153.304 638.431999,153.608 637.359999,153.608 C636.367999,153.624 635.463999,153.324 634.647999,152.708 C633.831999,152.092 633.287999,151.304 633.015999,150.344 L633.015999,150.344 L643.503999,148.448 C643.503999,148.32 643.495999,148.216 643.479999,148.136 C643.303999,146.6 642.631999,145.312 641.463999,144.272 C640.295999,143.232 638.927999,142.704 637.359999,142.688 C635.631999,142.704 634.167999,143.312 632.967999,144.512 C631.767999,145.712 631.167999,147.176 631.167999,148.904 C631.167999,149.528 631.247999,150.104 631.407999,150.632 C631.807999,151.928 632.563999,152.992 633.675999,153.824 C634.787999,154.656 636.015999,155.072 637.359999,155.072 Z M632.775999,149.048 C632.775999,148.968 632.771999,148.868 632.763999,148.748 C632.755999,148.628 632.751999,148.544 632.751999,148.496 C632.815999,147.312 633.275999,146.296 634.131999,145.448 C634.987999,144.6 636.015999,144.168 637.215999,144.152 C638.239999,144.136 639.167999,144.436 639.999999,145.052 C640.831999,145.668 641.399999,146.464 641.703999,147.44 L641.703999,147.44 L632.775999,149.048 Z M652.354666,155.192 C653.442666,155.192 654.454666,154.924 655.390666,154.388 C656.326666,153.852 657.066666,153.136 657.610666,152.24 L657.610666,152.24 L656.170666,151.544 C655.738666,152.2 655.186666,152.72 654.514666,153.104 C653.842666,153.488 653.122666,153.68 652.354666,153.68 C651.058666,153.68 649.966666,153.228 649.078666,152.324 C648.190666,151.42 647.746666,150.312 647.746666,149 C647.746666,147.688 648.190666,146.58 649.078666,145.676 C649.966666,144.772 651.058666,144.32 652.354666,144.32 C653.122666,144.32 653.842666,144.512 654.514666,144.896 C655.186666,145.28 655.738666,145.8 656.170666,146.456 L656.170666,146.456 L657.610666,145.76 C657.066666,144.864 656.326666,144.148 655.390666,143.612 C654.454666,143.076 653.442666,142.808 652.354666,142.808 C650.642666,142.808 649.182666,143.412 647.974666,144.62 C646.766666,145.828 646.162666,147.288 646.162666,149 C646.162666,150.712 646.766666,152.172 647.974666,153.38 C649.182666,154.588 650.642666,155.192 652.354666,155.192 Z M665.405333,155.192 C665.997333,155.192 666.573333,155.036 667.133333,154.724 C667.693333,154.412 668.053333,154.168 668.213333,153.992 C668.373333,153.816 668.501333,153.664 668.597333,153.536 L668.597333,153.536 L667.805333,152.312 C667.805333,152.376 667.721333,152.516 667.553333,152.732 C667.385333,152.948 667.125333,153.168 666.773333,153.392 C666.421333,153.616 666.061333,153.728 665.693333,153.728 C665.101333,153.728 664.577333,153.512 664.121333,153.08 C663.665333,152.648 663.437333,152.064 663.437333,151.328 L663.437333,151.328 L663.437333,144.44 L667.061333,144.44 L667.061333,142.976 L663.437333,142.976 L663.437333,138.992 L661.853333,139.184 L661.853333,142.976 L659.933333,142.976 L659.933333,144.44 L661.853333,144.44 L661.853333,151.688 C661.853333,152.824 662.193333,153.692 662.873333,154.292 C663.553333,154.892 664.397333,155.192 665.405333,155.192 Z M673.295999,155 L673.295999,147.968 C673.295999,146.928 673.64,146.052 674.328,145.34 C675.016,144.628 675.864,144.272 676.872,144.272 C677.56,144.272 678.24,144.52 678.912,145.016 L678.912,145.016 L679.463999,143.432 C678.76,143.016 677.984,142.808 677.136,142.808 C675.552,142.808 674.271999,143.464 673.295999,144.776 L673.295999,144.776 L673.295999,143 L671.712,143 L671.712,155 L673.295999,155 Z M686.778666,155.192 C688.490666,155.192 689.946666,154.584 691.146666,153.368 C692.362666,152.152 692.970666,150.696 692.970666,149 C692.970666,147.288 692.366666,145.828 691.158666,144.62 C689.950666,143.412 688.490666,142.808 686.778666,142.808 C685.066666,142.808 683.606666,143.412 682.398666,144.62 C681.190666,145.828 680.586666,147.288 680.586666,149 C680.586666,150.712 681.190666,152.172 682.398666,153.38 C683.606666,154.588 685.066666,155.192 686.778666,155.192 Z M686.802666,153.68 C685.522666,153.68 684.434666,153.228 683.538666,152.324 C682.642666,151.42 682.194666,150.312 682.194666,149 C682.194666,147.688 682.642666,146.576 683.538666,145.664 C684.434666,144.752 685.522666,144.296 686.802666,144.296 C688.098666,144.296 689.190666,144.752 690.078666,145.664 C690.966666,146.576 691.410666,147.688 691.410666,149 C691.410666,150.312 690.966666,151.42 690.078666,152.324 C689.190666,153.228 688.098666,153.68 686.802666,153.68 Z M697.597333,155 L697.597333,147.968 C697.597333,146.944 697.945333,146.072 698.641333,145.352 C699.337333,144.632 700.181333,144.272 701.173333,144.272 C702.165333,144.272 703.009333,144.632 703.705333,145.352 C704.401333,146.072 704.749333,146.944 704.749333,147.968 L704.749333,147.968 L704.749333,155 L706.357333,155 L706.357333,147.968 C706.357333,146.928 706.701333,146.052 707.389333,145.34 C708.077333,144.628 708.925333,144.272 709.933333,144.272 C710.941333,144.272 711.785333,144.628 712.465333,145.34 C713.145333,146.052 713.485333,146.928 713.485333,147.968 L713.485333,147.968 L713.485333,155 L715.117333,155 L715.117333,147.92 C715.117333,146.48 714.645333,145.268 713.701333,144.284 C712.757333,143.3 711.589333,142.808 710.197333,142.808 C709.205333,142.808 708.317333,143.04 707.533333,143.504 C706.749333,143.968 706.149333,144.592 705.733333,145.376 C705.301333,144.592 704.705333,143.968 703.945333,143.504 C703.185333,143.04 702.349333,142.808 701.437333,142.808 C699.853333,142.808 698.573333,143.464 697.597333,144.776 L697.597333,144.776 L697.597333,143 L696.013333,143 L696.013333,155 L697.597333,155 Z M724.232,155.192 C726.12,155.192 727.68,154.48 728.912,153.056 L728.912,153.056 L728.912,155 L730.496,155 L730.496,143 L728.912,143 L728.912,144.944 C727.696,143.52 726.136,142.808 724.232,142.808 C722.52,142.808 721.06,143.412 719.852,144.62 C718.644,145.828 718.04,147.288 718.04,149 C718.04,150.712 718.644,152.172 719.852,153.38 C721.06,154.588 722.52,155.192 724.232,155.192 Z M724.256,153.68 C722.976,153.68 721.884,153.228 720.98,152.324 C720.076,151.42 719.624,150.312 719.624,149 C719.624,147.688 720.076,146.58 720.98,145.676 C721.884,144.772 722.976,144.32 724.256,144.32 C725.552,144.32 726.644,144.772 727.532,145.676 C728.42,146.58 728.864,147.688 728.864,149 C728.864,150.312 728.42,151.42 727.532,152.324 C726.644,153.228 725.552,153.68 724.256,153.68 Z M740.042666,160.112 C741.674666,160.112 743.110666,159.524 744.350666,158.348 C745.590666,157.172 746.218666,155.712 746.234666,153.968 L746.234666,153.968 L746.234666,143.024 L744.626666,143.024 L744.626666,144.968 C743.394666,143.544 741.834666,142.832 739.946666,142.832 C738.234666,142.832 736.774666,143.436 735.566666,144.644 C734.358666,145.852 733.754666,147.312 733.754666,149.024 C733.754666,150.736 734.358666,152.196 735.566666,153.404 C736.774666,154.612 738.234666,155.216 739.946666,155.216 C741.850666,155.216 743.410666,154.504 744.626666,153.08 L744.626666,153.08 L744.626666,153.968 L744.650666,153.968 C744.634666,155.216 744.182666,156.308 743.294666,157.244 C742.406666,158.18 741.322666,158.648 740.042666,158.648 C738.954666,158.648 737.986666,158.344 737.138666,157.736 C736.290666,157.128 735.714666,156.416 735.410666,155.6 L735.410666,155.6 L734.114666,156.248 C734.482666,157.24 735.190666,158.132 736.238666,158.924 C737.286666,159.716 738.554666,160.112 740.042666,160.112 Z M739.970666,153.728 C738.690666,153.728 737.602666,153.276 736.706666,152.372 C735.810666,151.468 735.362666,150.36 735.362666,149.048 C735.362666,147.736 735.810666,146.628 736.706666,145.724 C737.602666,144.82 738.690666,144.368 739.970666,144.368 C741.266666,144.368 742.358666,144.82 743.246666,145.724 C744.134666,146.628 744.578666,147.736 744.578666,149.048 C744.578666,150.36 744.134666,151.468 743.246666,152.372 C742.358666,153.276 741.266666,153.728 739.970666,153.728 Z M751.485333,155 L751.485333,147.968 C751.485333,146.944 751.833333,146.072 752.529333,145.352 C753.225333,144.632 754.069333,144.272 755.061333,144.272 C756.053333,144.272 756.897333,144.632 757.593333,145.352 C758.289333,146.072 758.637333,146.944 758.637333,147.968 L758.637333,147.968 L758.637333,155 L760.245333,155 L760.245333,147.92 C760.245333,146.48 759.773333,145.268 758.829333,144.284 C757.885333,143.3 756.717333,142.808 755.325333,142.808 C753.741333,142.808 752.461333,143.464 751.485333,144.776 L751.485333,144.776 L751.485333,143 L749.901333,143 L749.901333,155 L751.485333,155 Z M769.36,155.072 C770.832,155.088 772.1,154.672 773.164,153.824 C774.228,152.976 774.944,152.048 775.312,151.04 L775.312,151.04 L773.968,150.56 C773.664,151.376 773.088,152.088 772.24,152.696 C771.392,153.304 770.432,153.608 769.36,153.608 C768.368,153.624 767.464,153.324 766.648,152.708 C765.832,152.092 765.288,151.304 765.016,150.344 L765.016,150.344 L775.504,148.448 C775.504,148.32 775.496,148.216 775.48,148.136 C775.304,146.6 774.632,145.312 773.464,144.272 C772.296,143.232 770.928,142.704 769.36,142.688 C767.632,142.704 766.168,143.312 764.968,144.512 C763.768,145.712 763.168,147.176 763.168,148.904 C763.168,149.528 763.248,150.104 763.408,150.632 C763.808,151.928 764.564,152.992 765.676,153.824 C766.788,154.656 768.016,155.072 769.36,155.072 Z M764.776,149.048 C764.776,148.968 764.772,148.868 764.764,148.748 C764.756,148.628 764.752,148.544 764.752,148.496 C764.816,147.312 765.276,146.296 766.132,145.448 C766.988,144.6 768.016,144.168 769.216,144.152 C770.24,144.136 771.168,144.436 772,145.052 C772.832,145.668 773.4,146.464 773.704,147.44 L773.704,147.44 L764.776,149.048 Z M782.818666,155.192 C783.410666,155.192 783.986666,155.036 784.546666,154.724 C785.106666,154.412 785.466666,154.168 785.626666,153.992 C785.786666,153.816 785.914666,153.664 786.010666,153.536 L786.010666,153.536 L785.218666,152.312 C785.218666,152.376 785.134666,152.516 784.966666,152.732 C784.798666,152.948 784.538666,153.168 784.186666,153.392 C783.834666,153.616 783.474666,153.728 783.106666,153.728 C782.514666,153.728 781.990666,153.512 781.534666,153.08 C781.078666,152.648 780.850666,152.064 780.850666,151.328 L780.850666,151.328 L780.850666,144.44 L784.474666,144.44 L784.474666,142.976 L780.850666,142.976 L780.850666,138.992 L779.266666,139.184 L779.266666,142.976 L777.346666,142.976 L777.346666,144.44 L779.266666,144.44 L779.266666,151.688 C779.266666,152.824 779.606666,153.692 780.286666,154.292 C780.966666,154.892 781.810666,155.192 782.818666,155.192 Z M789.773333,139.688 C790.045333,139.688 790.269333,139.592 790.445333,139.4 C790.637333,139.208 790.733333,138.984 790.733333,138.728 C790.733333,138.472 790.641333,138.248 790.457333,138.056 C790.273333,137.864 790.045333,137.768 789.773333,137.768 C789.501333,137.768 789.273333,137.864 789.089333,138.056 C788.905333,138.248 788.813333,138.472 788.813333,138.728 C788.813333,138.984 788.905333,139.208 789.089333,139.4 C789.273333,139.592 789.501333,139.688 789.773333,139.688 Z M790.565333,155 L790.565333,143 L788.981333,143 L788.981333,155 L790.565333,155 Z M800.232,155.192 C801.32,155.192 802.332,154.924 803.268,154.388 C804.204,153.852 804.944,153.136 805.488,152.24 L805.488,152.24 L804.048,151.544 C803.616,152.2 803.064,152.72 802.392,153.104 C801.72,153.488 801,153.68 800.232,153.68 C798.936,153.68 797.844,153.228 796.956,152.324 C796.068,151.42 795.624,150.312 795.624,149 C795.624,147.688 796.068,146.58 796.956,145.676 C797.844,144.772 798.936,144.32 800.232,144.32 C801,144.32 801.72,144.512 802.392,144.896 C803.064,145.28 803.616,145.8 804.048,146.456 L804.048,146.456 L805.488,145.76 C804.944,144.864 804.204,144.148 803.268,143.612 C802.332,143.076 801.32,142.808 800.232,142.808 C798.52,142.808 797.06,143.412 795.852,144.62 C794.644,145.828 794.04,147.288 794.04,149 C794.04,150.712 794.644,152.172 795.852,153.38 C797.06,154.588 798.52,155.192 800.232,155.192 Z M822.541333,155 L827.317333,141.032 L832.069333,155 L833.701333,155 L839.269333,138.872 L837.637333,138.872 L832.885333,152.552 L828.037333,138.872 L826.573333,138.872 L821.749333,152.552 L816.973333,138.872 L815.341333,138.872 L820.933333,155 L822.541333,155 Z M845.576,155.192 C847.464,155.192 849.024,154.48 850.256,153.056 L850.256,153.056 L850.256,155 L851.84,155 L851.84,143 L850.256,143 L850.256,144.944 C849.04,143.52 847.48,142.808 845.576,142.808 C843.864,142.808 842.404,143.412 841.196,144.62 C839.988,145.828 839.384,147.288 839.384,149 C839.384,150.712 839.988,152.172 841.196,153.38 C842.404,154.588 843.864,155.192 845.576,155.192 Z M845.6,153.68 C844.32,153.68 843.228,153.228 842.324,152.324 C841.42,151.42 840.968,150.312 840.968,149 C840.968,147.688 841.42,146.58 842.324,145.676 C843.228,144.772 844.32,144.32 845.6,144.32 C846.896,144.32 847.988,144.772 848.876,145.676 C849.764,146.58 850.208,147.688 850.208,149 C850.208,150.312 849.764,151.42 848.876,152.324 C847.988,153.228 846.896,153.68 845.6,153.68 Z M860.114667,155 L864.362667,143 L862.778667,143 L859.322667,152.768 L855.890667,143 L854.306667,143 L858.530667,155 L860.114667,155 Z M872.037333,155.072 C873.509333,155.088 874.777333,154.672 875.841333,153.824 C876.905333,152.976 877.621333,152.048 877.989333,151.04 L877.989333,151.04 L876.645333,150.56 C876.341333,151.376 875.765333,152.088 874.917333,152.696 C874.069333,153.304 873.109333,153.608 872.037333,153.608 C871.045333,153.624 870.141333,153.324 869.325333,152.708 C868.509333,152.092 867.965333,151.304 867.693333,150.344 L867.693333,150.344 L878.181333,148.448 C878.181333,148.32 878.173333,148.216 878.157333,148.136 C877.981333,146.6 877.309333,145.312 876.141333,144.272 C874.973333,143.232 873.605333,142.704 872.037333,142.688 C870.309333,142.704 868.845333,143.312 867.645333,144.512 C866.445333,145.712 865.845333,147.176 865.845333,148.904 C865.845333,149.528 865.925333,150.104 866.085333,150.632 C866.485333,151.928 867.241333,152.992 868.353333,153.824 C869.465333,154.656 870.693333,155.072 872.037333,155.072 Z M867.453333,149.048 C867.453333,148.968 867.449333,148.868 867.441333,148.748 C867.433333,148.628 867.429333,148.544 867.429333,148.496 C867.493333,147.312 867.953333,146.296 868.809333,145.448 C869.665333,144.6 870.693333,144.168 871.893333,144.152 C872.917333,144.136 873.845333,144.436 874.677333,145.052 C875.509333,145.668 876.077333,146.464 876.381333,147.44 L876.381333,147.44 L867.453333,149.048 Z" id="ElectromagneticWave" fill="#23ABE3" fill-rule="nonzero"></path>
        </g>
        <g transform="translate(209.000000, 42.000000)">
            <ellipse id="Oval-6" stroke="#979797" fill="#EEEEEE" cx="57.5" cy="16.5" rx="7" ry="16"></ellipse>
            <path d="M74,30 C81.1797017,30 87,24.1797017 87,17 C87,9.82029825 81.1797017,4 74,4 C66.8202983,4 61,9.82029825 61,17 C61,24.1797017 66.8202983,30 74,30 Z" id="Oval-7-Copy" stroke="#979797" fill="#D8D8D8" stroke-dasharray="3,1"></path>
            <path id="Line-11-Copy-3" d="M31.1194786,28.7856351 L32.8805214,31.2143649 L15.862,43.554 L20.5585675,50.0305751 L-0.400023071,53.4928691 L9.4052961,34.6486202 L14.101,41.125 L31.1194786,28.7856351 Z" fill="#B09679" fill-rule="nonzero"></path>
            <path id="Line-11-Copy-4" d="M477.504765,6.69936191 L477.504,14.699 L505.5,14.6993619 L505.5,17.6993619 L477.504,17.699 L477.504765,25.6993619 L458.504765,16.1993619 L477.504765,6.69936191 Z" fill="#B09679" fill-rule="nonzero"></path>
            <path d="M100,30 C107.179702,30 113,24.1797017 113,17 C113,9.82029825 107.179702,4 100,4 C92.8202983,4 87,9.82029825 87,17 C87,24.1797017 92.8202983,30 100,30 Z" id="Oval-7-Copy-2" stroke="#979797" fill="#D8D8D8" stroke-dasharray="3,1"></path>
            <path d="M126,30 C133.179702,30 139,24.1797017 139,17 C139,9.82029825 133.179702,4 126,4 C118.820298,4 113,9.82029825 113,17 C113,24.1797017 118.820298,30 126,30 Z" id="Oval-7-Copy-5" stroke="#979797" fill="#D8D8D8" stroke-dasharray="3,1"></path>
            <path d="M152,30 C159.179702,30 165,24.1797017 165,17 C165,9.82029825 159.179702,4 152,4 C144.820298,4 139,9.82029825 139,17 C139,24.1797017 144.820298,30 152,30 Z" id="Oval-7-Copy-4" stroke="#979797" fill="#D8D8D8" stroke-dasharray="3,1"></path>
            <path d="M178,30 C185.179702,30 191,24.1797017 191,17 C191,9.82029825 185.179702,4 178,4 C170.820298,4 165,9.82029825 165,17 C165,24.1797017 170.820298,30 178,30 Z" id="Oval-7-Copy-3" stroke="#979797" fill="#D8D8D8" stroke-dasharray="3,1"></path>
            <path d="M204,30 C211.179702,30 217,24.1797017 217,17 C217,9.82029825 211.179702,4 204,4 C196.820298,4 191,9.82029825 191,17 C191,24.1797017 196.820298,30 204,30 Z" id="Oval-7-Copy-11" stroke="#979797" fill="#D8D8D8" stroke-dasharray="3,1"></path>
            <path d="M230,30 C237.179702,30 243,24.1797017 243,17 C243,9.82029825 237.179702,4 230,4 C222.820298,4 217,9.82029825 217,17 C217,24.1797017 222.820298,30 230,30 Z" id="Oval-7-Copy-10" stroke="#979797" fill="#D8D8D8" stroke-dasharray="3,1"></path>
            <path d="M256,30 C263.179702,30 269,24.1797017 269,17 C269,9.82029825 263.179702,4 256,4 C248.820298,4 243,9.82029825 243,17 C243,24.1797017 248.820298,30 256,30 Z" id="Oval-7-Copy-9" stroke="#979797" fill="#D8D8D8" stroke-dasharray="3,1"></path>
            <path d="M282,30 C289.179702,30 295,24.1797017 295,17 C295,9.82029825 289.179702,4 282,4 C274.820298,4 269,9.82029825 269,17 C269,24.1797017 274.820298,30 282,30 Z" id="Oval-7-Copy-8" stroke="#979797" fill="#D8D8D8" stroke-dasharray="3,1"></path>
            <path d="M308,30 C315.179702,30 321,24.1797017 321,17 C321,9.82029825 315.179702,4 308,4 C300.820298,4 295,9.82029825 295,17 C295,24.1797017 300.820298,30 308,30 Z" id="Oval-7-Copy-7" stroke="#979797" fill="#D8D8D8" stroke-dasharray="3,1"></path>
            <path d="M334,30 C341.179702,30 347,24.1797017 347,17 C347,9.82029825 341.179702,4 334,4 C326.820298,4 321,9.82029825 321,17 C321,24.1797017 326.820298,30 334,30 Z" id="Oval-7-Copy-6" stroke="#979797" fill="#D8D8D8" stroke-dasharray="3,1"></path>
            <path d="M360,30 C367.179702,30 373,24.1797017 373,17 C373,9.82029825 367.179702,4 360,4 C352.820298,4 347,9.82029825 347,17 C347,24.1797017 352.820298,30 360,30 Z" id="Oval-7-Copy-14" stroke="#979797" fill="#D8D8D8" stroke-dasharray="3,1"></path>
            <path d="M386,30 C393.179702,30 399,24.1797017 399,17 C399,9.82029825 393.179702,4 386,4 C378.820298,4 373,9.82029825 373,17 C373,24.1797017 378.820298,30 386,30 Z" id="Oval-7-Copy-13" stroke="#979797" fill="#D8D8D8" stroke-dasharray="3,1"></path>
            <path d="M412,30 C419.179702,30 425,24.1797017 425,17 C425,9.82029825 419.179702,4 412,4 C404.820298,4 399,9.82029825 399,17 C399,24.1797017 404.820298,30 412,30 Z" id="Oval-7-Copy-12" stroke="#979797" fill="#D8D8D8" stroke-dasharray="3,1"></path>
            <path d="M439,30 C446.179702,30 452,24.1797017 452,17 C452,9.82029825 446.179702,4 439,4 C431.820298,4 426,9.82029825 426,17 C426,24.1797017 431.820298,30 439,30 Z" id="Oval-7-Copy-15" stroke="#979797" fill="#23ABE3" stroke-dasharray="3,1"></path>
            <ellipse id="Oval-6-Copy-3" stroke="#979797" cx="57.5" cy="16.5" rx="7" ry="16"></ellipse>
            <path d="M437.5,33 C441.642136,33 445,25.6126984 445,16.5 C445,7.38730163 441.642136,0 437.5,0 C434.738576,0 307.905243,0 57,0 C52.3333333,2.66666667 50,8.33333333 50,17 C50,25.6666667 52.3333333,31 57,33 L437.5,33 Z" id="Oval-6-Copy-4" stroke="#979797"></path>
            <circle id="Oval-7" stroke="#979797" fill="#D8D8D8" cx="48" cy="17" r="13"></circle>
        </g>
    </g>
</svg>