<?xml version="1.0" encoding="UTF-8"?>
<svg width="900px" height="400px" viewBox="0 0 900 400" version="1.1" xmlns="http://www.w3.org/2000/svg" xmlns:xlink="http://www.w3.org/1999/xlink">
    <!-- Generator: Sketch 60.1 (88133) - https://sketch.com -->
    <title>Hole_Flow</title>
    <desc>Created with Sketch.</desc>
    <g id="Hole_Flow" stroke="none" stroke-width="1" fill="none" fill-rule="evenodd">
        <g id="Illustration_Frame">
            <rect id="Rectangle" stroke="#3D3530" stroke-width="2" fill="#EEEEEE" x="1" y="1" width="898" height="398"></rect>
            <rect id="Rectangle-Copy" stroke="#3D3530" stroke-width="2" fill="#F8FAE4" x="1" y="356" width="898" height="43"></rect>
            <path d="M773.392,385 L773.392,377.896 L781.336,377.896 L781.336,385 L782.92,385 L782.92,368.872 L781.336,368.872 L781.336,376.312 L773.392,376.312 L773.392,368.872 L771.808,368.872 L771.808,385 L773.392,385 Z M792.178666,385.192 C793.890666,385.192 795.346666,384.584 796.546666,383.368 C797.762666,382.152 798.370666,380.696 798.370666,379 C798.370666,377.288 797.766666,375.828 796.558666,374.62 C795.350666,373.412 793.890666,372.808 792.178666,372.808 C790.466666,372.808 789.006666,373.412 787.798666,374.62 C786.590666,375.828 785.986666,377.288 785.986666,379 C785.986666,380.712 786.590666,382.172 787.798666,383.38 C789.006666,384.588 790.466666,385.192 792.178666,385.192 Z M792.202666,383.68 C790.922666,383.68 789.834666,383.228 788.938666,382.324 C788.042666,381.42 787.594666,380.312 787.594666,379 C787.594666,377.688 788.042666,376.576 788.938666,375.664 C789.834666,374.752 790.922666,374.296 792.202666,374.296 C793.498666,374.296 794.590666,374.752 795.478666,375.664 C796.366666,376.576 796.810666,377.688 796.810666,379 C796.810666,380.312 796.366666,381.42 795.478666,382.324 C794.590666,383.228 793.498666,383.68 792.202666,383.68 Z M803.237333,385 L803.237333,367.144 L801.653333,367.144 L801.653333,385 L803.237333,385 Z M812.664,385.072 C814.136,385.088 815.404,384.672 816.468,383.824 C817.532,382.976 818.248,382.048 818.616,381.04 L818.616,381.04 L817.272,380.56 C816.968,381.376 816.392,382.088 815.544,382.696 C814.696,383.304 813.736,383.608 812.664,383.608 C811.672,383.624 810.768,383.324 809.952,382.708 C809.136,382.092 808.592,381.304 808.32,380.344 L808.32,380.344 L818.808,378.448 C818.808,378.32 818.8,378.216 818.784,378.136 C818.608,376.6 817.936,375.312 816.768,374.272 C815.6,373.232 814.232,372.704 812.664,372.688 C810.936,372.704 809.472,373.312 808.272,374.512 C807.072,375.712 806.472,377.176 806.472,378.904 C806.472,379.528 806.552,380.104 806.712,380.632 C807.112,381.928 807.868,382.992 808.98,383.824 C810.092,384.656 811.32,385.072 812.664,385.072 Z M808.08,379.048 C808.08,378.968 808.076,378.868 808.068,378.748 C808.06,378.628 808.056,378.544 808.056,378.496 C808.12,377.312 808.58,376.296 809.436,375.448 C810.292,374.6 811.32,374.168 812.52,374.152 C813.544,374.136 814.472,374.436 815.304,375.052 C816.136,375.668 816.704,376.464 817.008,377.44 L817.008,377.44 L808.08,379.048 Z M831.133333,385 L831.133333,377.752 L836.197333,377.752 L836.197333,376.168 L831.133333,376.168 L831.133333,370.456 L838.477333,370.456 L838.477333,368.872 L829.549333,368.872 L829.549333,385 L831.133333,385 Z M843.08,385 L843.08,367.144 L841.496,367.144 L841.496,385 L843.08,385 Z M852.506667,385.192 C854.218667,385.192 855.674667,384.584 856.874667,383.368 C858.090667,382.152 858.698667,380.696 858.698667,379 C858.698667,377.288 858.094667,375.828 856.886667,374.62 C855.678667,373.412 854.218667,372.808 852.506667,372.808 C850.794667,372.808 849.334667,373.412 848.126667,374.62 C846.918667,375.828 846.314667,377.288 846.314667,379 C846.314667,380.712 846.918667,382.172 848.126667,383.38 C849.334667,384.588 850.794667,385.192 852.506667,385.192 Z M852.530667,383.68 C851.250667,383.68 850.162667,383.228 849.266667,382.324 C848.370667,381.42 847.922667,380.312 847.922667,379 C847.922667,377.688 848.370667,376.576 849.266667,375.664 C850.162667,374.752 851.250667,374.296 852.530667,374.296 C853.826667,374.296 854.918667,374.752 855.806667,375.664 C856.694667,376.576 857.138667,377.688 857.138667,379 C857.138667,380.312 856.694667,381.42 855.806667,382.324 C854.918667,383.228 853.826667,383.68 852.530667,383.68 Z M865.989333,385 L869.373333,375.112 L872.757333,385 L874.341333,385 L878.589333,373 L877.005333,373 L873.549333,382.768 L870.093333,373 L868.653333,373 L865.197333,382.768 L861.765333,373 L860.181333,373 L864.405333,385 L865.989333,385 Z" id="HoleFlow" fill="#23ABE3" fill-rule="nonzero"></path>
        </g>
        <g transform="translate(315.000000, 18.000000)">
            <g id="Battery" transform="translate(8.309719, 91.831745)">
                <path d="M0.5,11.8185741 L0.5,161.052908 C0.5,165.200591 13.7152079,168.871482 29.9468668,168.871482 C46.1785258,168.871482 59.3937336,165.200591 59.3937336,161.052908 L59.3937336,11.8185741 L0.5,11.8185741 Z" id="Combined-Shape" stroke="#23ABE3" fill="#EEEEEE"></path>
                <ellipse id="Oval" stroke="#23ABE3" fill="#EEEEEE" cx="29.9468668" cy="11.3185741" rx="29.4468668" ry="7.81857412"></ellipse>
                <path d="M20.4645779,3.5 L20.4645779,9.65485929 C20.4645779,9.9889054 21.3713385,10.5248611 23.0095904,10.9344241 C24.826757,11.3887157 27.3018196,11.6504315 29.9468668,11.6504315 C32.5919141,11.6504315 35.0669767,11.3887157 36.8841432,10.9344241 C38.5223952,10.5248611 39.4291558,9.9889054 39.4291558,9.65485929 L39.4291558,3.5 L20.4645779,3.5 Z" id="Combined-Shape" stroke="#979797" fill="#F8E71C"></path>
                <ellipse id="Oval-2" stroke="#979797" fill="#F8E71C" cx="29.9468668" cy="3" rx="9.48228894" ry="1.99557223"></ellipse>
            </g>
            <g id="Path" transform="translate(36.000000, 19.000000)">
                <polyline id="Path-2" stroke="#23ABE3" stroke-width="7" points="2.91669048 73.2831063 2.91669048 4.15137138 222.99369 4.15137138 222.99369 295.083317 2.91669048 295.083317 2.91669048 240.611878"></polyline>
                <g id="Group-2" transform="translate(0.592871, 0.964578)" fill="#EEEEEE">
                    <circle id="Oval-5" cx="18.6371482" cy="2.83185741" r="2"></circle>
                    <circle id="Oval-5-Copy" cx="11.9822889" cy="2.83185741" r="2"></circle>
                    <circle id="Oval-5-Copy-2" cx="5.32742965" cy="2.83185741" r="2"></circle>
                    <circle id="Oval-5-Copy-38" cx="2" cy="7.82300188" r="2"></circle>
                    <circle id="Oval-5-Copy-39" cx="2" cy="14.4778612" r="2"></circle>
                    <circle id="Oval-5-Copy-41" cx="2" cy="21.1327205" r="2"></circle>
                    <circle id="Oval-5-Copy-40" cx="2" cy="27.7875798" r="2"></circle>
                    <circle id="Oval-5-Copy-45" cx="2" cy="34.4424391" r="2"></circle>
                    <circle id="Oval-5-Copy-44" cx="2" cy="41.0972983" r="2"></circle>
                    <circle id="Oval-5-Copy-43" cx="2" cy="47.7521576" r="2"></circle>
                    <circle id="Oval-5-Copy-42" cx="2" cy="54.4070169" r="2"></circle>
                    <circle id="Oval-5-Copy-101" cx="221.610357" cy="9.4867167" r="2"></circle>
                    <circle id="Oval-5-Copy-100" cx="221.610357" cy="16.141576" r="2"></circle>
                    <circle id="Oval-5-Copy-99" cx="221.610357" cy="22.7964353" r="2"></circle>
                    <circle id="Oval-5-Copy-98" cx="221.610357" cy="29.4512946" r="2"></circle>
                    <circle id="Oval-5-Copy-97" cx="221.610357" cy="36.1061539" r="2"></circle>
                    <circle id="Oval-5-Copy-96" cx="221.610357" cy="42.7610132" r="2"></circle>
                    <circle id="Oval-5-Copy-95" cx="221.610357" cy="49.4158725" r="2"></circle>
                    <circle id="Oval-5-Copy-94" cx="221.610357" cy="56.0707318" r="2"></circle>
                    <circle id="Oval-5-Copy-109" cx="221.610357" cy="152.566192" r="2"></circle>
                    <circle id="Oval-5-Copy-108" cx="221.610357" cy="159.221051" r="2"></circle>
                    <circle id="Oval-5-Copy-107" cx="221.610357" cy="165.87591" r="2"></circle>
                    <circle id="Oval-5-Copy-106" cx="221.610357" cy="172.530769" r="2"></circle>
                    <circle id="Oval-5-Copy-105" cx="221.610357" cy="179.185629" r="2"></circle>
                    <circle id="Oval-5-Copy-104" cx="221.610357" cy="185.840488" r="2"></circle>
                    <circle id="Oval-5-Copy-103" cx="221.610357" cy="192.495347" r="2"></circle>
                    <circle id="Oval-5-Copy-102" cx="221.610357" cy="199.150207" r="2"></circle>
                    <circle id="Oval-5-Copy-117" cx="221.610357" cy="205.805066" r="2"></circle>
                    <circle id="Oval-5-Copy-116" cx="221.610357" cy="212.459925" r="2"></circle>
                    <circle id="Oval-5-Copy-115" cx="221.610357" cy="219.114784" r="2"></circle>
                    <circle id="Oval-5-Copy-114" cx="221.610357" cy="225.769644" r="2"></circle>
                    <circle id="Oval-5-Copy-113" cx="221.610357" cy="232.424503" r="2"></circle>
                    <circle id="Oval-5-Copy-112" cx="221.610357" cy="239.079362" r="2"></circle>
                    <circle id="Oval-5-Copy-111" cx="221.610357" cy="245.734222" r="2"></circle>
                    <circle id="Oval-5-Copy-110" cx="221.610357" cy="252.389081" r="2"></circle>
                    <circle id="Oval-5-Copy-125" cx="221.610357" cy="259.04394" r="2"></circle>
                    <circle id="Oval-5-Copy-124" cx="221.610357" cy="265.698799" r="2"></circle>
                    <circle id="Oval-5-Copy-123" cx="221.610357" cy="272.353659" r="2"></circle>
                    <circle id="Oval-5-Copy-122" cx="221.610357" cy="279.008518" r="2"></circle>
                    <circle id="Oval-5-Copy-121" cx="221.610357" cy="285.663377" r="2"></circle>
                    <circle id="Oval-5-Copy-120" cx="221.610357" cy="292.318237" r="2"></circle>
                    <circle id="Oval-5-Copy-47" cx="2" cy="61.0618762" r="2"></circle>
                    <circle id="Oval-5-Copy-46" cx="2" cy="67.7167355" r="2"></circle>
                    <circle id="Oval-5-Copy-57" cx="2" cy="245.734222" r="2"></circle>
                    <circle id="Oval-5-Copy-56" cx="2" cy="252.389081" r="2"></circle>
                    <circle id="Oval-5-Copy-55" cx="2" cy="259.04394" r="2"></circle>
                    <circle id="Oval-5-Copy-54" cx="2" cy="265.698799" r="2"></circle>
                    <circle id="Oval-5-Copy-53" cx="2" cy="272.353659" r="2"></circle>
                    <circle id="Oval-5-Copy-52" cx="2" cy="279.008518" r="2"></circle>
                    <circle id="Oval-5-Copy-51" cx="2" cy="285.663377" r="2"></circle>
                    <circle id="Oval-5-Copy-50" cx="2" cy="292.318237" r="2"></circle>
                    <circle id="Oval-5-Copy-5" cx="38.6017261" cy="2.83185741" r="2"></circle>
                    <circle id="Oval-5-Copy-4" cx="31.9468668" cy="2.83185741" r="2"></circle>
                    <circle id="Oval-5-Copy-3" cx="25.2920075" cy="2.83185741" r="2"></circle>
                    <circle id="Oval-5-Copy-11" cx="51.9114447" cy="2.83185741" r="2"></circle>
                    <circle id="Oval-5-Copy-10" cx="45.2565854" cy="2.83185741" r="2"></circle>
                    <circle id="Oval-5-Copy-9" cx="38.6017261" cy="2.83185741" r="2"></circle>
                    <circle id="Oval-5-Copy-8" cx="71.8760226" cy="2.83185741" r="2"></circle>
                    <circle id="Oval-5-Copy-7" cx="65.2211633" cy="2.83185741" r="2"></circle>
                    <circle id="Oval-5-Copy-6" cx="58.566304" cy="2.83185741" r="2"></circle>
                    <circle id="Oval-5-Copy-23" cx="85.1857412" cy="2.83185741" r="2"></circle>
                    <circle id="Oval-5-Copy-22" cx="78.5308819" cy="2.83185741" r="2"></circle>
                    <circle id="Oval-5-Copy-21" cx="71.8760226" cy="2.83185741" r="2"></circle>
                    <circle id="Oval-5-Copy-20" cx="105.150319" cy="2.83185741" r="2"></circle>
                    <circle id="Oval-5-Copy-19" cx="98.4954598" cy="2.83185741" r="2"></circle>
                    <circle id="Oval-5-Copy-18" cx="91.8406005" cy="2.83185741" r="2"></circle>
                    <circle id="Oval-5-Copy-17" cx="118.460038" cy="2.83185741" r="2"></circle>
                    <circle id="Oval-5-Copy-16" cx="111.805178" cy="2.83185741" r="2"></circle>
                    <circle id="Oval-5-Copy-15" cx="105.150319" cy="2.83185741" r="2"></circle>
                    <circle id="Oval-5-Copy-14" cx="138.424616" cy="2.83185741" r="2"></circle>
                    <circle id="Oval-5-Copy-13" cx="131.769756" cy="2.83185741" r="2"></circle>
                    <circle id="Oval-5-Copy-12" cx="125.114897" cy="2.83185741" r="2"></circle>
                    <circle id="Oval-5-Copy-35" cx="151.734334" cy="2.83185741" r="2"></circle>
                    <circle id="Oval-5-Copy-34" cx="145.079475" cy="2.83185741" r="2"></circle>
                    <circle id="Oval-5-Copy-33" cx="138.424616" cy="2.83185741" r="2"></circle>
                    <circle id="Oval-5-Copy-32" cx="171.698912" cy="2.83185741" r="2"></circle>
                    <circle id="Oval-5-Copy-31" cx="165.044053" cy="2.83185741" r="2"></circle>
                    <circle id="Oval-5-Copy-30" cx="158.389193" cy="2.83185741" r="2"></circle>
                    <circle id="Oval-5-Copy-29" cx="185.008631" cy="2.83185741" r="2"></circle>
                    <circle id="Oval-5-Copy-28" cx="178.353771" cy="2.83185741" r="2"></circle>
                    <circle id="Oval-5-Copy-27" cx="171.698912" cy="2.83185741" r="2"></circle>
                    <circle id="Oval-5-Copy-26" cx="204.973208" cy="2.83185741" r="2"></circle>
                    <circle id="Oval-5-Copy-25" cx="198.318349" cy="2.83185741" r="2"></circle>
                    <circle id="Oval-5-Copy-24" cx="191.66349" cy="2.83185741" r="2"></circle>
                    <circle id="Oval-5-Copy-37" cx="218.282927" cy="2.83185741" r="2"></circle>
                    <circle id="Oval-5-Copy-36" cx="211.628068" cy="2.83185741" r="2"></circle>
                    <circle id="Oval-5-Copy-93" cx="21.9645779" cy="293.981951" r="2"></circle>
                    <circle id="Oval-5-Copy-92" cx="15.3097186" cy="293.981951" r="2"></circle>
                    <circle id="Oval-5-Copy-91" cx="8.65485929" cy="293.981951" r="2"></circle>
                    <circle id="Oval-5-Copy-90" cx="41.9291558" cy="293.981951" r="2"></circle>
                    <circle id="Oval-5-Copy-89" cx="35.2742965" cy="293.981951" r="2"></circle>
                    <circle id="Oval-5-Copy-88" cx="28.6194372" cy="293.981951" r="2"></circle>
                    <circle id="Oval-5-Copy-87" cx="55.2388743" cy="293.981951" r="2"></circle>
                    <circle id="Oval-5-Copy-86" cx="48.5840151" cy="293.981951" r="2"></circle>
                    <circle id="Oval-5-Copy-85" cx="41.9291558" cy="293.981951" r="2"></circle>
                    <circle id="Oval-5-Copy-84" cx="75.2034522" cy="293.981951" r="2"></circle>
                    <circle id="Oval-5-Copy-83" cx="68.5485929" cy="293.981951" r="2"></circle>
                    <circle id="Oval-5-Copy-82" cx="61.8937336" cy="293.981951" r="2"></circle>
                    <circle id="Oval-5-Copy-81" cx="88.5131708" cy="293.981951" r="2"></circle>
                    <circle id="Oval-5-Copy-80" cx="81.8583115" cy="293.981951" r="2"></circle>
                    <circle id="Oval-5-Copy-79" cx="75.2034522" cy="293.981951" r="2"></circle>
                    <circle id="Oval-5-Copy-78" cx="108.477749" cy="293.981951" r="2"></circle>
                    <circle id="Oval-5-Copy-77" cx="101.822889" cy="293.981951" r="2"></circle>
                    <circle id="Oval-5-Copy-76" cx="95.1680301" cy="293.981951" r="2"></circle>
                    <circle id="Oval-5-Copy-75" cx="121.787467" cy="293.981951" r="2"></circle>
                    <circle id="Oval-5-Copy-74" cx="115.132608" cy="293.981951" r="2"></circle>
                    <circle id="Oval-5-Copy-73" cx="108.477749" cy="293.981951" r="2"></circle>
                    <circle id="Oval-5-Copy-72" cx="141.752045" cy="293.981951" r="2"></circle>
                    <circle id="Oval-5-Copy-71" cx="135.097186" cy="293.981951" r="2"></circle>
                    <circle id="Oval-5-Copy-70" cx="128.442327" cy="293.981951" r="2"></circle>
                    <circle id="Oval-5-Copy-69" cx="155.061764" cy="293.981951" r="2"></circle>
                    <circle id="Oval-5-Copy-68" cx="148.406904" cy="293.981951" r="2"></circle>
                    <circle id="Oval-5-Copy-67" cx="141.752045" cy="293.981951" r="2"></circle>
                    <circle id="Oval-5-Copy-66" cx="175.026342" cy="293.981951" r="2"></circle>
                    <circle id="Oval-5-Copy-65" cx="168.371482" cy="293.981951" r="2"></circle>
                    <circle id="Oval-5-Copy-64" cx="161.716623" cy="293.981951" r="2"></circle>
                    <circle id="Oval-5-Copy-63" cx="188.33606" cy="293.981951" r="2"></circle>
                    <circle id="Oval-5-Copy-62" cx="181.681201" cy="293.981951" r="2"></circle>
                    <circle id="Oval-5-Copy-61" cx="175.026342" cy="293.981951" r="2"></circle>
                    <circle id="Oval-5-Copy-60" cx="208.300638" cy="293.981951" r="2"></circle>
                    <circle id="Oval-5-Copy-59" cx="201.645779" cy="293.981951" r="2"></circle>
                    <circle id="Oval-5-Copy-58" cx="194.99092" cy="293.981951" r="2"></circle>
                    <circle id="Oval-5-Copy-48" cx="214.955497" cy="293.981951" r="2"></circle>
                </g>
            </g>
            <text id="+" font-family="Lato-Medium, Lato" font-size="33" font-weight="400" letter-spacing="1.274258" fill="#555555">
                <tspan x="0" y="91.5220263">+</tspan>
            </text>
            <text id="-" font-family="Lato-Medium, Lato" font-size="33" font-weight="400" letter-spacing="1.274258" fill="#555555">
                <tspan x="4.15928706" y="282.849231">-</tspan>
            </text>
            <path id="Line-11" d="M158.676773,-7.00442777 L177.676773,2.49557223 L158.676773,11.9955722 L158.676,3.995 L122.274184,3.99557223 L122.274184,0.995572235 L158.676,0.995 L158.676773,-7.00442777 Z" fill="#B09679" fill-rule="nonzero"></path>
            <path id="Line-11-Copy" d="M158.676773,-7.00442777 L177.676773,2.49557223 L158.676773,11.9955722 L158.676,3.995 L122.274184,3.99557223 L122.274184,0.995572235 L158.676,0.995 L158.676773,-7.00442777 Z" fill="#B09679" fill-rule="nonzero"></path>
            <path id="Line-11-Copy-2" d="M158.676773,289.136811 L177.676773,298.636811 L158.676773,308.136811 L158.676,300.136 L122.274184,300.136811 L122.274184,297.136811 L158.676,297.136 L158.676773,289.136811 Z" fill="#B09679" fill-rule="nonzero"></path>
            <path id="Line-11-Copy-3" d="M280.995235,206.300638 L280.995,242.703 L288.995235,242.703227 L279.495235,261.703227 L269.995235,242.703227 L277.995,242.703 L277.995235,206.300638 L280.995235,206.300638 Z" fill="#B09679" fill-rule="nonzero"></path>
            <path d="M251.220938,164.707768 C248.459515,164.707768 246.220938,162.469191 246.220938,159.707768 L246.220938,133.538011 C246.220938,130.776587 248.459515,128.538011 251.220938,128.538011 L266.176661,128.538011 C268.938084,128.538011 271.176661,130.776587 271.176661,133.538011 L271.176661,159.707768 C271.176661,162.469191 268.938084,164.707768 266.176661,164.707768 L262.858087,164.707768 C262.858087,166.545456 260.99591,168.035197 258.698799,168.035197 C256.401689,168.035197 254.539512,166.545456 254.539512,164.707768 L254.539512,164.707768 L251.220938,164.707768 Z" id="Combined-Shape" stroke="#979797" fill="#D8D8D8"></path>
            <circle id="Oval-3" stroke="#979797" fill="#F8E71C" cx="257.866942" cy="111.468893" r="29.9468668"></circle>
            <polyline id="Path-3" stroke="#8B572A" stroke-linejoin="round" points="251.139994 140.707577 251.139994 111.08973 254.515207 121.554295 257.617676 111.08973 260.492523 121.554295 262.814862 111.08973 265.064002 121.554295 265.064002 140.707577"></polyline>
            <line x1="207.12364" y1="64.0530207" x2="223.760788" y2="79.0264541" id="Line" stroke="#999999" stroke-linecap="square"></line>
            <line x1="233.743077" y1="52.4070169" x2="240.397936" y2="70.70788" id="Line-2" stroke="#979797" stroke-linecap="square"></line>
            <line x1="280.327092" y1="50.7433021" x2="272.008518" y2="70.70788" id="Line-3" stroke="#979797" stroke-linecap="square"></line>
            <line x1="308.610244" y1="65.7167355" x2="290.309381" y2="79.0264541" id="Line-4" stroke="#979797" stroke-linecap="square"></line>
            <line x1="295.300526" y1="98.991032" x2="318.592533" y2="93.9998875" id="Line-5" stroke="#979797" stroke-linecap="square"></line>
            <line x1="296.96424" y1="120.619325" x2="321.919963" y2="123.946754" id="Line-6" stroke="#979797" stroke-linecap="square"></line>
            <line x1="283.654522" y1="135.592758" x2="300.29167" y2="157.221051" id="Line-7" stroke="#979797" stroke-linecap="square"></line>
            <line x1="215.442214" y1="95.6636023" x2="190.486492" y2="89.008743" id="Line-8" stroke="#979797" stroke-linecap="square"></line>
            <line x1="218.769644" y1="113.964465" x2="192.150207" y2="122.28304" id="Line-9" stroke="#979797" stroke-linecap="square"></line>
            <line x1="228.751933" y1="135.592758" x2="207.12364" y2="157.221051" id="Line-10" stroke="#979797" stroke-linecap="square"></line>
            <path d="M271.083607,140.732298 C264.705196,146.224289 249.438523,145.405053 246.487467,144.360201" id="Path-4" stroke="#979797"></path>
            <path d="M271.083607,145.723442 C264.705196,151.215433 249.438523,150.396197 246.487467,149.351345" id="Path-4-Copy" stroke="#979797"></path>
            <path d="M271.083607,150.714587 C264.705196,156.206578 249.438523,155.387342 246.487467,154.34249" id="Path-4-Copy-2" stroke="#979797"></path>
            <path d="M271.083607,155.705731 C264.705196,161.197722 249.438523,160.378486 246.487467,159.333634" id="Path-4-Copy-3" stroke="#979797"></path>
        </g>
    </g>
</svg>