<?xml version="1.0" encoding="UTF-8"?>
<svg width="900px" height="400px" viewBox="0 0 900 400" version="1.1" xmlns="http://www.w3.org/2000/svg" xmlns:xlink="http://www.w3.org/1999/xlink">
    <!-- Generator: Sketch 60.1 (88133) - https://sketch.com -->
    <title>Magnetic_Field</title>
    <desc>Created with Sketch.</desc>
    <g id="Magnetic_Field" stroke="none" stroke-width="1" fill="none" fill-rule="evenodd">
        <g id="Illustration_Frame">
            <rect id="Rectangle" stroke="#3D3530" stroke-width="2" fill="#EEEEEE" x="1" y="1" width="898" height="398"></rect>
            <rect id="Rectangle-Copy" stroke="#3D3530" stroke-width="2" fill="#F8FAE4" x="1" y="356" width="898" height="43"></rect>
            <path d="M703.482666,385 L706.578666,371.824 L710.730666,385 L711.786666,385 L715.962666,371.824 L719.058666,385 L720.642666,385 L716.922666,368.872 L715.458666,368.872 L711.282666,381.784 L707.058666,368.872 L705.618666,368.872 L701.898666,385 L703.482666,385 Z M728.725333,385.192 C730.613333,385.192 732.173333,384.48 733.405333,383.056 L733.405333,383.056 L733.405333,385 L734.989333,385 L734.989333,373 L733.405333,373 L733.405333,374.944 C732.189333,373.52 730.629333,372.808 728.725333,372.808 C727.013333,372.808 725.553333,373.412 724.345333,374.62 C723.137333,375.828 722.533333,377.288 722.533333,379 C722.533333,380.712 723.137333,382.172 724.345333,383.38 C725.553333,384.588 727.013333,385.192 728.725333,385.192 Z M728.749333,383.68 C727.469333,383.68 726.377333,383.228 725.473333,382.324 C724.569333,381.42 724.117333,380.312 724.117333,379 C724.117333,377.688 724.569333,376.58 725.473333,375.676 C726.377333,374.772 727.469333,374.32 728.749333,374.32 C730.045333,374.32 731.137333,374.772 732.025333,375.676 C732.913333,376.58 733.357333,377.688 733.357333,379 C733.357333,380.312 732.913333,381.42 732.025333,382.324 C731.137333,383.228 730.045333,383.68 728.749333,383.68 Z M744.536,390.112 C746.168,390.112 747.604,389.524 748.844,388.348 C750.084,387.172 750.712,385.712 750.728,383.968 L750.728,383.968 L750.728,373.024 L749.12,373.024 L749.12,374.968 C747.888,373.544 746.328,372.832 744.44,372.832 C742.728,372.832 741.268,373.436 740.06,374.644 C738.852,375.852 738.248,377.312 738.248,379.024 C738.248,380.736 738.852,382.196 740.06,383.404 C741.268,384.612 742.728,385.216 744.44,385.216 C746.344,385.216 747.904,384.504 749.12,383.08 L749.12,383.08 L749.12,383.968 L749.144,383.968 C749.128,385.216 748.676,386.308 747.788,387.244 C746.9,388.18 745.816,388.648 744.536,388.648 C743.448,388.648 742.48,388.344 741.632,387.736 C740.784,387.128 740.208,386.416 739.904,385.6 L739.904,385.6 L738.608,386.248 C738.976,387.24 739.684,388.132 740.732,388.924 C741.78,389.716 743.048,390.112 744.536,390.112 Z M744.464,383.728 C743.184,383.728 742.096,383.276 741.2,382.372 C740.304,381.468 739.856,380.36 739.856,379.048 C739.856,377.736 740.304,376.628 741.2,375.724 C742.096,374.82 743.184,374.368 744.464,374.368 C745.76,374.368 746.852,374.82 747.74,375.724 C748.628,376.628 749.072,377.736 749.072,379.048 C749.072,380.36 748.628,381.468 747.74,382.372 C746.852,383.276 745.76,383.728 744.464,383.728 Z M755.978666,385 L755.978666,377.968 C755.978666,376.944 756.326666,376.072 757.022666,375.352 C757.718666,374.632 758.562666,374.272 759.554666,374.272 C760.546666,374.272 761.390666,374.632 762.086666,375.352 C762.782666,376.072 763.130666,376.944 763.130666,377.968 L763.130666,377.968 L763.130666,385 L764.738666,385 L764.738666,377.92 C764.738666,376.48 764.266666,375.268 763.322666,374.284 C762.378666,373.3 761.210666,372.808 759.818666,372.808 C758.234666,372.808 756.954666,373.464 755.978666,374.776 L755.978666,374.776 L755.978666,373 L754.394666,373 L754.394666,385 L755.978666,385 Z M773.853333,385.072 C775.325333,385.088 776.593333,384.672 777.657333,383.824 C778.721333,382.976 779.437333,382.048 779.805333,381.04 L779.805333,381.04 L778.461333,380.56 C778.157333,381.376 777.581333,382.088 776.733333,382.696 C775.885333,383.304 774.925333,383.608 773.853333,383.608 C772.861333,383.624 771.957333,383.324 771.141333,382.708 C770.325333,382.092 769.781333,381.304 769.509333,380.344 L769.509333,380.344 L779.997333,378.448 C779.997333,378.32 779.989333,378.216 779.973333,378.136 C779.797333,376.6 779.125333,375.312 777.957333,374.272 C776.789333,373.232 775.421333,372.704 773.853333,372.688 C772.125333,372.704 770.661333,373.312 769.461333,374.512 C768.261333,375.712 767.661333,377.176 767.661333,378.904 C767.661333,379.528 767.741333,380.104 767.901333,380.632 C768.301333,381.928 769.057333,382.992 770.169333,383.824 C771.281333,384.656 772.509333,385.072 773.853333,385.072 Z M769.269333,379.048 C769.269333,378.968 769.265333,378.868 769.257333,378.748 C769.249333,378.628 769.245333,378.544 769.245333,378.496 C769.309333,377.312 769.769333,376.296 770.625333,375.448 C771.481333,374.6 772.509333,374.168 773.709333,374.152 C774.733333,374.136 775.661333,374.436 776.493333,375.052 C777.325333,375.668 777.893333,376.464 778.197333,377.44 L778.197333,377.44 L769.269333,379.048 Z M787.312,385.192 C787.904,385.192 788.48,385.036 789.04,384.724 C789.6,384.412 789.96,384.168 790.12,383.992 C790.28,383.816 790.408,383.664 790.504,383.536 L790.504,383.536 L789.712,382.312 C789.712,382.376 789.628,382.516 789.46,382.732 C789.292,382.948 789.032,383.168 788.68,383.392 C788.328,383.616 787.968,383.728 787.6,383.728 C787.008,383.728 786.484,383.512 786.028,383.08 C785.572,382.648 785.344,382.064 785.344,381.328 L785.344,381.328 L785.344,374.44 L788.968,374.44 L788.968,372.976 L785.344,372.976 L785.344,368.992 L783.76,369.184 L783.76,372.976 L781.84,372.976 L781.84,374.44 L783.76,374.44 L783.76,381.688 C783.76,382.824 784.1,383.692 784.78,384.292 C785.46,384.892 786.304,385.192 787.312,385.192 Z M794.266666,369.688 C794.538666,369.688 794.762666,369.592 794.938666,369.4 C795.130666,369.208 795.226666,368.984 795.226666,368.728 C795.226666,368.472 795.134666,368.248 794.950666,368.056 C794.766666,367.864 794.538666,367.768 794.266666,367.768 C793.994666,367.768 793.766666,367.864 793.582666,368.056 C793.398666,368.248 793.306666,368.472 793.306666,368.728 C793.306666,368.984 793.398666,369.208 793.582666,369.4 C793.766666,369.592 793.994666,369.688 794.266666,369.688 Z M795.058666,385 L795.058666,373 L793.474666,373 L793.474666,385 L795.058666,385 Z M804.725333,385.192 C805.813333,385.192 806.825333,384.924 807.761333,384.388 C808.697333,383.852 809.437333,383.136 809.981333,382.24 L809.981333,382.24 L808.541333,381.544 C808.109333,382.2 807.557333,382.72 806.885333,383.104 C806.213333,383.488 805.493333,383.68 804.725333,383.68 C803.429333,383.68 802.337333,383.228 801.449333,382.324 C800.561333,381.42 800.117333,380.312 800.117333,379 C800.117333,377.688 800.561333,376.58 801.449333,375.676 C802.337333,374.772 803.429333,374.32 804.725333,374.32 C805.493333,374.32 806.213333,374.512 806.885333,374.896 C807.557333,375.28 808.109333,375.8 808.541333,376.456 L808.541333,376.456 L809.981333,375.76 C809.437333,374.864 808.697333,374.148 807.761333,373.612 C806.825333,373.076 805.813333,372.808 804.725333,372.808 C803.013333,372.808 801.553333,373.412 800.345333,374.62 C799.137333,375.828 798.533333,377.288 798.533333,379 C798.533333,380.712 799.137333,382.172 800.345333,383.38 C801.553333,384.588 803.013333,385.192 804.725333,385.192 Z M824.616,386.44 L824.616,385 L812.904,385 L812.904,386.44 L824.616,386.44 Z M829.746666,385 L829.746666,377.752 L834.810666,377.752 L834.810666,376.168 L829.746666,376.168 L829.746666,370.456 L837.090666,370.456 L837.090666,368.872 L828.162666,368.872 L828.162666,385 L829.746666,385 Z M840.205333,369.688 C840.477333,369.688 840.701333,369.592 840.877333,369.4 C841.069333,369.208 841.165333,368.984 841.165333,368.728 C841.165333,368.472 841.073333,368.248 840.889333,368.056 C840.705333,367.864 840.477333,367.768 840.205333,367.768 C839.933333,367.768 839.705333,367.864 839.521333,368.056 C839.337333,368.248 839.245333,368.472 839.245333,368.728 C839.245333,368.984 839.337333,369.208 839.521333,369.4 C839.705333,369.592 839.933333,369.688 840.205333,369.688 Z M840.997333,385 L840.997333,373 L839.413333,373 L839.413333,385 L840.997333,385 Z M850.664,385.072 C852.136,385.088 853.404,384.672 854.468,383.824 C855.532,382.976 856.248,382.048 856.616,381.04 L856.616,381.04 L855.272,380.56 C854.968,381.376 854.392,382.088 853.544,382.696 C852.696,383.304 851.736,383.608 850.664,383.608 C849.672,383.624 848.768,383.324 847.952,382.708 C847.136,382.092 846.592,381.304 846.32,380.344 L846.32,380.344 L856.808,378.448 C856.808,378.32 856.8,378.216 856.784,378.136 C856.608,376.6 855.936,375.312 854.768,374.272 C853.6,373.232 852.232,372.704 850.664,372.688 C848.936,372.704 847.472,373.312 846.272,374.512 C845.072,375.712 844.472,377.176 844.472,378.904 C844.472,379.528 844.552,380.104 844.712,380.632 C845.112,381.928 845.868,382.992 846.98,383.824 C848.092,384.656 849.32,385.072 850.664,385.072 Z M846.08,379.048 C846.08,378.968 846.076,378.868 846.068,378.748 C846.06,378.628 846.056,378.544 846.056,378.496 C846.12,377.312 846.58,376.296 847.436,375.448 C848.292,374.6 849.32,374.168 850.52,374.152 C851.544,374.136 852.472,374.436 853.304,375.052 C854.136,375.668 854.704,376.464 855.008,377.44 L855.008,377.44 L846.08,379.048 Z M861.890667,385 L861.890667,367.144 L860.306667,367.144 L860.306667,385 L861.890667,385 Z M871.317333,385.192 C873.205333,385.192 874.765333,384.48 875.997333,383.056 L875.997333,383.056 L875.997333,385 L877.581333,385 L877.581333,367.144 L875.997333,367.144 L875.997333,374.944 C874.781333,373.52 873.221333,372.808 871.317333,372.808 C869.605333,372.808 868.145333,373.412 866.937333,374.62 C865.729333,375.828 865.125333,377.288 865.125333,379 C865.125333,380.712 865.729333,382.172 866.937333,383.38 C868.145333,384.588 869.605333,385.192 871.317333,385.192 Z M871.341333,383.68 C870.045333,383.68 868.949333,383.232 868.053333,382.336 C867.157333,381.424 866.709333,380.312 866.709333,379 C866.709333,377.688 867.157333,376.58 868.053333,375.676 C868.949333,374.772 870.045333,374.32 871.341333,374.32 C872.637333,374.32 873.729333,374.772 874.617333,375.676 C875.505333,376.58 875.949333,377.688 875.949333,379 C875.949333,380.312 875.505333,381.42 874.617333,382.324 C873.729333,383.228 872.637333,383.68 871.341333,383.68 Z" id="Magnetic_Field" fill="#23ABE3" fill-rule="nonzero"></path>
        </g>
        <g transform="translate(202.000000, 32.000000)">
            <rect id="Rectangle-5" stroke="#979797" fill="#B09679" x="111.5" y="137.5" width="134" height="23"></rect>
            <rect id="Rectangle-5-Copy" stroke="#979797" fill="#23ABE3" x="246.5" y="137.5" width="134" height="23"></rect>
            <text id="N" font-family="Lato-Bold, Lato" font-size="18" font-weight="bold" letter-spacing="0.6950495" fill="#EEEEEE">
                <tspan x="120.717975" y="155">N</tspan>
            </text>
            <text id="S" font-family="Lato-Bold, Lato" font-size="18" font-weight="bold" letter-spacing="0.6950495" fill="#EEEEEE">
                <tspan x="362.715975" y="155">S</tspan>
            </text>
            <path d="M216.53125,137.101563 C223.395833,127.033854 234.872396,122 250.960938,122 C267.049479,122 277.419271,127.033854 282.070313,137.101563" id="Path-7" stroke="#979797" stroke-width="2"></path>
            <path d="M195.324661,139.413622 C183.976158,113.01258 202.83362,99.8120592 251.897047,99.8120592 C300.960474,99.8120592 317.741556,113.01258 302.240293,139.413622" id="Path-7-Copy" stroke="#979797" stroke-width="2"></path>
            <path d="M173.496377,138.114935 C153.096251,93.2086435 178.727293,70.755498 250.389501,70.755498 C322.051709,70.755498 346.570807,93.2086435 323.946797,138.114935" id="Path-7-Copy-2" stroke="#979797" stroke-width="2"></path>
            <path d="M146.443823,137.305005 C93.7302992,73.8308351 128.21096,42.09375 249.885804,42.09375 C371.560649,42.09375 405.259036,73.8308351 350.980967,137.305005" id="Path-7-Copy-3" stroke="#979797" stroke-width="2"></path>
            <path d="M119.504755,136.771017 C20.9167878,52.1346098 64.4265554,8.87760417 250.034058,7 C435.641561,5.12239583 478.16421,48.3794015 377.602004,136.771017" id="Path-7-Copy-4" stroke="#979797" stroke-width="2"></path>
            <path d="M216.53125,176.101563 C223.395833,166.033854 234.872396,161 250.960938,161 C267.049479,161 277.419271,166.033854 282.070313,176.101563" id="Path-7-Copy-9" stroke="#979797" stroke-width="2" transform="translate(249.300781, 168.550781) scale(1, -1) translate(-249.300781, -168.550781) "></path>
            <path d="M195.324661,200.413622 C183.976158,174.01258 202.83362,160.812059 251.897047,160.812059 C300.960474,160.812059 317.741556,174.01258 302.240293,200.413622" id="Path-7-Copy-8" stroke="#979797" stroke-width="2" transform="translate(249.974858, 180.612840) scale(1, -1) translate(-249.974858, -180.612840) "></path>
            <path d="M173.496377,228.114935 C153.096251,183.208644 178.727293,160.755498 250.389501,160.755498 C322.051709,160.755498 346.570807,183.208644 323.946797,228.114935" id="Path-7-Copy-7" stroke="#979797" stroke-width="2" transform="translate(249.402713, 194.435216) scale(1, -1) translate(-249.402713, -194.435216) "></path>
            <path d="M146.443823,256.305005 C93.7302992,192.830835 128.21096,161.09375 249.885804,161.09375 C371.560649,161.09375 405.259036,192.830835 350.980967,256.305005" id="Path-7-Copy-6" stroke="#979797" stroke-width="2" transform="translate(249.319647, 208.699378) scale(1, -1) translate(-249.319647, -208.699378) "></path>
            <path d="M119.504755,290.771017 C20.9167878,206.13461 64.4265554,162.877604 250.034058,161 C435.641561,159.122396 478.16421,202.379401 377.602004,290.771017" id="Path-7-Copy-5" stroke="#979797" stroke-width="2" transform="translate(249.406851, 225.856218) scale(1, -1) translate(-249.406851, -225.856218) "></path>
            <path d="M381.082031,146.117188 C381.082031,146.117188 470.855469,123.875 495.96875,115.132812" id="Path-9" stroke="#979797" stroke-width="2"></path>
            <path d="M380.082031,183.117188 C380.082031,183.117188 469.855469,160.875 494.96875,152.132812" id="Path-9-Copy" stroke="#979797" stroke-width="2" transform="translate(437.525391, 167.625000) scale(1, -1) translate(-437.525391, -167.625000) "></path>
            <path d="M380.984375,141.960937 C380.984375,141.960937 453.917969,102.515625 491.167969,60.5351562" id="Path-8" stroke="#979797" stroke-width="2"></path>
            <path d="M380.984375,237.960937 C380.984375,237.960937 453.917969,198.515625 491.167969,156.535156" id="Path-8-Copy" stroke="#979797" stroke-width="2" transform="translate(436.076172, 197.248047) scale(1, -1) translate(-436.076172, -197.248047) "></path>
            <line x1="381.21875" y1="149" x2="494.882812" y2="149" id="Path-10" stroke="#979797" stroke-width="2"></line>
            <path d="M1.08203125,146.117188 C1.08203125,146.117188 90.8554688,123.875 115.96875,115.132812" id="Path-9-Copy-3" stroke="#979797" stroke-width="2" transform="translate(58.525391, 130.625000) scale(-1, 1) translate(-58.525391, -130.625000) "></path>
            <path d="M0.08203125,183.117188 C0.08203125,183.117188 89.8554688,160.875 114.96875,152.132812" id="Path-9-Copy-2" stroke="#979797" stroke-width="2" transform="translate(57.525391, 167.625000) scale(-1, -1) translate(-57.525391, -167.625000) "></path>
            <path d="M0.984375,141.960937 C0.984375,141.960937 73.9179688,102.515625 111.167969,60.5351562" id="Path-8-Copy-3" stroke="#979797" stroke-width="2" transform="translate(56.076172, 101.248047) scale(-1, 1) translate(-56.076172, -101.248047) "></path>
            <path d="M0.984375,237.960937 C0.984375,237.960937 73.9179688,198.515625 111.167969,156.535156" id="Path-8-Copy-2" stroke="#979797" stroke-width="2" transform="translate(56.076172, 197.248047) scale(-1, -1) translate(-56.076172, -197.248047) "></path>
            <line x1="1.21875" y1="149" x2="114.882812" y2="149" id="Path-10-Copy" stroke="#979797" stroke-width="2" transform="translate(58.050781, 149.000000) scale(-1, 1) translate(-58.050781, -149.000000) "></line>
            <polygon id="Triangle" fill="#555555" points="257 70.5 248 77 248 64"></polygon>
            <polygon id="Triangle-Copy" fill="#555555" points="257 42.5 248 49 248 36"></polygon>
            <polygon id="Triangle-Copy-2" fill="#555555" points="257 6.5 248 13 248 0"></polygon>
            <polygon id="Triangle-Copy-3" fill="#555555" points="257 99.5 248 106 248 93"></polygon>
            <polygon id="Triangle-Copy-4" fill="#555555" points="257 121.5 248 128 248 115"></polygon>
            <polygon id="Triangle-Copy-5" fill="#555555" points="257 175.5 248 182 248 169"></polygon>
            <polygon id="Triangle-Copy-6" fill="#555555" points="257 200.5 248 207 248 194"></polygon>
            <polygon id="Triangle-Copy-7" fill="#555555" points="257 228.5 248 235 248 222"></polygon>
            <polygon id="Triangle-Copy-8" fill="#555555" points="257 256.5 248 263 248 250"></polygon>
            <polygon id="Triangle-Copy-9" fill="#555555" points="257 290.5 248 297 248 284"></polygon>
            <polygon id="Triangle-Copy-10" fill="#555555" transform="translate(42.500000, 148.500000) scale(-1, 1) translate(-42.500000, -148.500000) " points="47 148.5 38 155 38 142"></polygon>
            <polygon id="Triangle-Copy-11" fill="#555555" transform="translate(48.500000, 128.500000) scale(-1, 1) rotate(-10.000000) translate(-48.500000, -128.500000) " points="53 128.5 44 135 44 122"></polygon>
            <polygon id="Triangle-Copy-13" fill="#555555" transform="translate(58.500000, 109.500000) scale(-1, 1) rotate(-28.000000) translate(-58.500000, -109.500000) " points="63 109.5 54 116 54 103"></polygon>
            <polygon id="Triangle-Copy-14" fill="#555555" transform="translate(58.500000, 189.500000) scale(-1, -1) rotate(-28.000000) translate(-58.500000, -189.500000) " points="63 189.5 54 196 54 183"></polygon>
            <polygon id="Triangle-Copy-12" fill="#555555" transform="translate(48.500000, 169.500000) scale(-1, 1) rotate(10.000000) translate(-48.500000, -169.500000) " points="53 169.5 44 176 44 163"></polygon>
            <polygon id="Triangle-Copy-19" fill="#555555" transform="translate(452.500000, 148.500000) scale(-1, 1) translate(-452.500000, -148.500000) " points="457 148.5 448 155 448 142"></polygon>
            <polygon id="Triangle-Copy-18" fill="#555555" transform="translate(448.500000, 128.500000) scale(-1, 1) rotate(20.000000) translate(-448.500000, -128.500000) " points="453 128.5 444 135 444 122"></polygon>
            <polygon id="Triangle-Copy-17" fill="#555555" transform="translate(438.500000, 106.500000) scale(-1, 1) rotate(32.000000) translate(-438.500000, -106.500000) " points="443 106.5 434 113 434 100"></polygon>
            <polygon id="Triangle-Copy-16" fill="#555555" transform="translate(438.500000, 192.500000) scale(-1, -1) rotate(32.000000) translate(-438.500000, -192.500000) " points="443 192.5 434 199 434 186"></polygon>
            <polygon id="Triangle-Copy-15" fill="#555555" transform="translate(448.500000, 169.500000) scale(-1, 1) rotate(-13.000000) translate(-448.500000, -169.500000) " points="453 169.5 444 176 444 163"></polygon>
        </g>
    </g>
</svg>