<?xml version="1.0" encoding="UTF-8"?>
<svg width="900px" height="170px" viewBox="0 0 900 170" version="1.1" xmlns="http://www.w3.org/2000/svg" xmlns:xlink="http://www.w3.org/1999/xlink">
    <!-- Generator: Sketch 60.1 (88133) - https://sketch.com -->
    <title>Tube_of_Marbles</title>
    <desc>Created with Sketch.</desc>
    <g id="Tube_of_Marbles" stroke="none" stroke-width="1" fill="none" fill-rule="evenodd">
        <g id="Illustration_Frame">
            <rect id="Rectangle" stroke="#3D3530" stroke-width="2" fill="#EEEEEE" x="1" y="1" width="898" height="168"></rect>
            <rect id="Rectangle-Copy" stroke="#3D3530" stroke-width="2" fill="#F8FAE4" x="1" y="126" width="898" height="43"></rect>
            <path d="M699.071999,155 L699.071999,140.456 L704.807999,140.456 L704.807999,138.872 L691.751999,138.872 L691.751999,140.456 L697.487999,140.456 L697.487999,155 L699.071999,155 Z M709.626666,155.192 C711.210666,155.192 712.490666,154.536 713.466666,153.224 L713.466666,153.224 L713.466666,155 L715.050666,155 L715.050666,143 L713.466666,143 L713.466666,150.032 C713.466666,151.056 713.122666,151.924 712.434666,152.636 C711.746666,153.348 710.898666,153.704 709.890666,153.704 C708.898666,153.704 708.058666,153.348 707.370666,152.636 C706.682666,151.924 706.338666,151.056 706.338666,150.032 L706.338666,150.032 L706.338666,143 L704.706666,143 L704.706666,150.08 C704.706666,151.52 705.178666,152.732 706.122666,153.716 C707.066666,154.7 708.234666,155.192 709.626666,155.192 Z M725.509333,155.192 C727.221333,155.192 728.681333,154.588 729.889333,153.38 C731.097333,152.172 731.701333,150.712 731.701333,149 C731.701333,147.288 731.097333,145.828 729.889333,144.62 C728.681333,143.412 727.221333,142.808 725.509333,142.808 C723.605333,142.808 722.037333,143.528 720.805333,144.968 L720.805333,144.968 L720.805333,137.144 L719.221333,137.144 L719.221333,155 L720.805333,155 L720.805333,153.008 C722.021333,154.464 723.589333,155.192 725.509333,155.192 Z M725.461333,153.68 C724.181333,153.68 723.093333,153.232 722.197333,152.336 C721.301333,151.424 720.853333,150.312 720.853333,149 C720.853333,147.688 721.301333,146.58 722.197333,145.676 C723.093333,144.772 724.181333,144.32 725.461333,144.32 C726.741333,144.32 727.829333,144.772 728.725333,145.676 C729.621333,146.58 730.069333,147.688 730.069333,149 C730.069333,150.312 729.621333,151.42 728.725333,152.324 C727.829333,153.228 726.741333,153.68 725.461333,153.68 Z M740.312,155.072 C741.784,155.088 743.052,154.672 744.116,153.824 C745.18,152.976 745.896,152.048 746.264,151.04 L746.264,151.04 L744.92,150.56 C744.616,151.376 744.04,152.088 743.192,152.696 C742.344,153.304 741.384,153.608 740.312,153.608 C739.32,153.624 738.416,153.324 737.6,152.708 C736.784,152.092 736.24,151.304 735.968,150.344 L735.968,150.344 L746.456,148.448 C746.456,148.32 746.448,148.216 746.432,148.136 C746.256,146.6 745.584,145.312 744.416,144.272 C743.248,143.232 741.88,142.704 740.312,142.688 C738.584,142.704 737.12,143.312 735.92,144.512 C734.72,145.712 734.12,147.176 734.12,148.904 C734.12,149.528 734.2,150.104 734.36,150.632 C734.76,151.928 735.516,152.992 736.628,153.824 C737.74,154.656 738.968,155.072 740.312,155.072 Z M735.728,149.048 C735.728,148.968 735.724,148.868 735.716,148.748 C735.708,148.628 735.704,148.544 735.704,148.496 C735.768,147.312 736.228,146.296 737.084,145.448 C737.94,144.6 738.968,144.168 740.168,144.152 C741.192,144.136 742.12,144.436 742.952,145.052 C743.784,145.668 744.352,146.464 744.656,147.44 L744.656,147.44 L735.728,149.048 Z M762.765333,155.192 C764.477333,155.192 765.933333,154.584 767.133333,153.368 C768.349333,152.152 768.957333,150.696 768.957333,149 C768.957333,147.288 768.353333,145.828 767.145333,144.62 C765.937333,143.412 764.477333,142.808 762.765333,142.808 C761.053333,142.808 759.593333,143.412 758.385333,144.62 C757.177333,145.828 756.573333,147.288 756.573333,149 C756.573333,150.712 757.177333,152.172 758.385333,153.38 C759.593333,154.588 761.053333,155.192 762.765333,155.192 Z M762.789333,153.68 C761.509333,153.68 760.421333,153.228 759.525333,152.324 C758.629333,151.42 758.181333,150.312 758.181333,149 C758.181333,147.688 758.629333,146.576 759.525333,145.664 C760.421333,144.752 761.509333,144.296 762.789333,144.296 C764.085333,144.296 765.177333,144.752 766.065333,145.664 C766.953333,146.576 767.397333,147.688 767.397333,149 C767.397333,150.312 766.953333,151.42 766.065333,152.324 C765.177333,153.228 764.085333,153.68 762.789333,153.68 Z M774.28,155 L774.28,144.272 L776.632,144.272 L776.632,142.952 L774.28,142.952 L774.28,140.048 C774.28,139.392 774.336,138.948 774.448,138.716 C774.56,138.484 774.792,138.368 775.144,138.368 C775.464,138.368 775.784,138.408 776.104,138.488 L776.104,138.488 L776.44,137.264 L776.224,137.192 C776.08,137.144 775.86,137.096 775.564,137.048 C775.268,137 774.976,136.976 774.688,136.976 C773.376,136.976 772.72,137.808 772.72,139.472 L772.72,139.472 L772.72,142.952 L771.304,142.952 L771.304,144.272 L772.72,144.272 L772.72,155 L774.28,155 Z M787.925333,155 L791.021333,141.824 L795.173333,155 L796.229333,155 L800.405333,141.824 L803.501333,155 L805.085333,155 L801.365333,138.872 L799.901333,138.872 L795.725333,151.784 L791.501333,138.872 L790.061333,138.872 L786.341333,155 L787.925333,155 Z M813.168,155.192 C815.056,155.192 816.616,154.48 817.848,153.056 L817.848,153.056 L817.848,155 L819.432,155 L819.432,143 L817.848,143 L817.848,144.944 C816.632,143.52 815.072,142.808 813.168,142.808 C811.456,142.808 809.996,143.412 808.788,144.62 C807.58,145.828 806.976,147.288 806.976,149 C806.976,150.712 807.58,152.172 808.788,153.38 C809.996,154.588 811.456,155.192 813.168,155.192 Z M813.192,153.68 C811.912,153.68 810.82,153.228 809.916,152.324 C809.012,151.42 808.56,150.312 808.56,149 C808.56,147.688 809.012,146.58 809.916,145.676 C810.82,144.772 811.912,144.32 813.192,144.32 C814.488,144.32 815.58,144.772 816.468,145.676 C817.356,146.58 817.8,147.688 817.8,149 C817.8,150.312 817.356,151.42 816.468,152.324 C815.58,153.228 814.488,153.68 813.192,153.68 Z M824.922666,155 L824.922666,147.968 C824.922666,146.928 825.266666,146.052 825.954666,145.34 C826.642666,144.628 827.490666,144.272 828.498666,144.272 C829.186666,144.272 829.866666,144.52 830.538666,145.016 L830.538666,145.016 L831.090666,143.432 C830.386666,143.016 829.610666,142.808 828.762666,142.808 C827.178666,142.808 825.898666,143.464 824.922666,144.776 L824.922666,144.776 L824.922666,143 L823.338666,143 L823.338666,155 L824.922666,155 Z M840.181333,155.192 C841.893333,155.192 843.353333,154.588 844.561333,153.38 C845.769333,152.172 846.373333,150.712 846.373333,149 C846.373333,147.288 845.769333,145.828 844.561333,144.62 C843.353333,143.412 841.893333,142.808 840.181333,142.808 C838.277333,142.808 836.709333,143.528 835.477333,144.968 L835.477333,144.968 L835.477333,137.144 L833.893333,137.144 L833.893333,155 L835.477333,155 L835.477333,153.008 C836.693333,154.464 838.261333,155.192 840.181333,155.192 Z M840.133333,153.68 C838.853333,153.68 837.765333,153.232 836.869333,152.336 C835.973333,151.424 835.525333,150.312 835.525333,149 C835.525333,147.688 835.973333,146.58 836.869333,145.676 C837.765333,144.772 838.853333,144.32 840.133333,144.32 C841.413333,144.32 842.501333,144.772 843.397333,145.676 C844.293333,146.58 844.741333,147.688 844.741333,149 C844.741333,150.312 844.293333,151.42 843.397333,152.324 C842.501333,153.228 841.413333,153.68 840.133333,153.68 Z M851.24,155 L851.24,137.144 L849.656,137.144 L849.656,155 L851.24,155 Z M860.666667,155.072 C862.138667,155.088 863.406667,154.672 864.470667,153.824 C865.534667,152.976 866.250667,152.048 866.618667,151.04 L866.618667,151.04 L865.274667,150.56 C864.970667,151.376 864.394667,152.088 863.546667,152.696 C862.698667,153.304 861.738667,153.608 860.666667,153.608 C859.674667,153.624 858.770667,153.324 857.954667,152.708 C857.138667,152.092 856.594667,151.304 856.322667,150.344 L856.322667,150.344 L866.810667,148.448 C866.810667,148.32 866.802667,148.216 866.786667,148.136 C866.610667,146.6 865.938667,145.312 864.770667,144.272 C863.602667,143.232 862.234667,142.704 860.666667,142.688 C858.938667,142.704 857.474667,143.312 856.274667,144.512 C855.074667,145.712 854.474667,147.176 854.474667,148.904 C854.474667,149.528 854.554667,150.104 854.714667,150.632 C855.114667,151.928 855.870667,152.992 856.982667,153.824 C858.094667,154.656 859.322667,155.072 860.666667,155.072 Z M856.082667,149.048 C856.082667,148.968 856.078667,148.868 856.070667,148.748 C856.062667,148.628 856.058667,148.544 856.058667,148.496 C856.122667,147.312 856.582667,146.296 857.438667,145.448 C858.294667,144.6 859.322667,144.168 860.522667,144.152 C861.546667,144.136 862.474667,144.436 863.306667,145.052 C864.138667,145.668 864.706667,146.464 865.010667,147.44 L865.010667,147.44 L856.082667,149.048 Z M873.933333,155.192 C875.405333,155.192 876.509333,154.88 877.245333,154.256 C877.981333,153.632 878.349333,152.816 878.349333,151.808 C878.349333,151.088 878.085333,150.476 877.557333,149.972 C877.029333,149.468 876.385333,149.084 875.625333,148.82 C874.865333,148.556 874.109333,148.312 873.357333,148.088 C872.605333,147.864 871.965333,147.596 871.437333,147.284 C870.909333,146.972 870.645333,146.6 870.645333,146.168 C870.645333,145.56 870.913333,145.088 871.449333,144.752 C871.985333,144.416 872.685333,144.248 873.549333,144.248 C874.157333,144.248 874.765333,144.384 875.373333,144.656 C875.981333,144.928 876.385333,145.144 876.585333,145.304 C876.785333,145.464 876.941333,145.6 877.053333,145.712 L877.053333,145.712 L878.181333,144.728 L877.677333,144.248 C877.341333,143.928 876.789333,143.608 876.021333,143.288 C875.253333,142.968 874.437333,142.808 873.573333,142.808 C872.117333,142.808 871.017333,143.124 870.273333,143.756 C869.529333,144.388 869.157333,145.2 869.157333,146.192 C869.157333,146.912 869.421333,147.52 869.949333,148.016 C870.477333,148.512 871.121333,148.896 871.881333,149.168 C872.641333,149.44 873.397333,149.688 874.149333,149.912 C874.901333,150.136 875.541333,150.404 876.069333,150.716 C876.597333,151.028 876.861333,151.4 876.861333,151.832 C876.861333,152.44 876.597333,152.912 876.069333,153.248 C875.541333,153.584 874.837333,153.752 873.957333,153.752 C873.365333,153.752 872.765333,153.616 872.157333,153.344 C871.549333,153.072 871.145333,152.856 870.945333,152.696 C870.745333,152.536 870.589333,152.4 870.477333,152.288 L870.477333,152.288 L869.349333,153.248 L869.541333,153.464 C869.669333,153.592 869.869333,153.752 870.141333,153.944 C870.413333,154.136 870.721333,154.324 871.065333,154.508 C871.409333,154.692 871.837333,154.852 872.349333,154.988 C872.861333,155.124 873.389333,155.192 873.933333,155.192 Z" id="TubeofMarbles" fill="#23ABE3" fill-rule="nonzero"></path>
        </g>
        <g transform="translate(259.000000, 42.000000)"></g>
        <path d="M274,72 C281.179702,72 287,66.1797017 287,59 C287,51.8202983 281.179702,46 274,46 C266.820298,46 261,51.8202983 261,59 C261,66.1797017 266.820298,72 274,72 Z" id="Oval-7" stroke="#979797" fill="#D8D8D8" stroke-dasharray="3,1,3,1"></path>
        <path d="M300,72 C307.179702,72 313,66.1797017 313,59 C313,51.8202983 307.179702,46 300,46 C292.820298,46 287,51.8202983 287,59 C287,66.1797017 292.820298,72 300,72 Z" id="Oval-7-Copy" stroke="#979797" fill="#D8D8D8" stroke-dasharray="3,1"></path>
        <path d="M326,72 C333.179702,72 339,66.1797017 339,59 C339,51.8202983 333.179702,46 326,46 C318.820298,46 313,51.8202983 313,59 C313,66.1797017 318.820298,72 326,72 Z" id="Oval-7-Copy-2" stroke="#979797" fill="#D8D8D8" stroke-dasharray="3,1"></path>
        <path d="M352,72 C359.179702,72 365,66.1797017 365,59 C365,51.8202983 359.179702,46 352,46 C344.820298,46 339,51.8202983 339,59 C339,66.1797017 344.820298,72 352,72 Z" id="Oval-7-Copy-5" stroke="#979797" fill="#D8D8D8" stroke-dasharray="3,1"></path>
        <path d="M378,72 C385.179702,72 391,66.1797017 391,59 C391,51.8202983 385.179702,46 378,46 C370.820298,46 365,51.8202983 365,59 C365,66.1797017 370.820298,72 378,72 Z" id="Oval-7-Copy-4" stroke="#979797" fill="#D8D8D8" stroke-dasharray="3,1"></path>
        <path d="M404,72 C411.179702,72 417,66.1797017 417,59 C417,51.8202983 411.179702,46 404,46 C396.820298,46 391,51.8202983 391,59 C391,66.1797017 396.820298,72 404,72 Z" id="Oval-7-Copy-3" stroke="#979797" fill="#D8D8D8" stroke-dasharray="3,1"></path>
        <path d="M430,72 C437.179702,72 443,66.1797017 443,59 C443,51.8202983 437.179702,46 430,46 C422.820298,46 417,51.8202983 417,59 C417,66.1797017 422.820298,72 430,72 Z" id="Oval-7-Copy-11" stroke="#979797" fill="#D8D8D8" stroke-dasharray="3,1"></path>
        <path d="M456,72 C463.179702,72 469,66.1797017 469,59 C469,51.8202983 463.179702,46 456,46 C448.820298,46 443,51.8202983 443,59 C443,66.1797017 448.820298,72 456,72 Z" id="Oval-7-Copy-10" stroke="#979797" fill="#D8D8D8" stroke-dasharray="3,1"></path>
        <path d="M482,72 C489.179702,72 495,66.1797017 495,59 C495,51.8202983 489.179702,46 482,46 C474.820298,46 469,51.8202983 469,59 C469,66.1797017 474.820298,72 482,72 Z" id="Oval-7-Copy-9" stroke="#979797" fill="#D8D8D8" stroke-dasharray="3,1"></path>
        <path d="M508,72 C515.179702,72 521,66.1797017 521,59 C521,51.8202983 515.179702,46 508,46 C500.820298,46 495,51.8202983 495,59 C495,66.1797017 500.820298,72 508,72 Z" id="Oval-7-Copy-8" stroke="#979797" fill="#D8D8D8" stroke-dasharray="3,1"></path>
        <path d="M534,72 C541.179702,72 547,66.1797017 547,59 C547,51.8202983 541.179702,46 534,46 C526.820298,46 521,51.8202983 521,59 C521,66.1797017 526.820298,72 534,72 Z" id="Oval-7-Copy-7" stroke="#979797" fill="#D8D8D8" stroke-dasharray="3,1"></path>
        <path d="M560,72 C567.179702,72 573,66.1797017 573,59 C573,51.8202983 567.179702,46 560,46 C552.820298,46 547,51.8202983 547,59 C547,66.1797017 552.820298,72 560,72 Z" id="Oval-7-Copy-6" stroke="#979797" fill="#D8D8D8" stroke-dasharray="3,1"></path>
        <path d="M586,72 C593.179702,72 599,66.1797017 599,59 C599,51.8202983 593.179702,46 586,46 C578.820298,46 573,51.8202983 573,59 C573,66.1797017 578.820298,72 586,72 Z" id="Oval-7-Copy-14" stroke="#979797" fill="#D8D8D8" stroke-dasharray="3,1"></path>
        <path d="M612,72 C619.179702,72 625,66.1797017 625,59 C625,51.8202983 619.179702,46 612,46 C604.820298,46 599,51.8202983 599,59 C599,66.1797017 604.820298,72 612,72 Z" id="Oval-7-Copy-13" stroke="#979797" fill="#D8D8D8" stroke-dasharray="3,1"></path>
        <path d="M638,72 C645.179702,72 651,66.1797017 651,59 C651,51.8202983 645.179702,46 638,46 C630.820298,46 625,51.8202983 625,59 C625,66.1797017 630.820298,72 638,72 Z" id="Oval-7-Copy-12" stroke="#979797" fill="#D8D8D8" stroke-dasharray="3,1"></path>
        <path d="M646.5,75 C650.642136,75 654,67.6126984 654,58.5 C654,49.3873016 650.642136,42 646.5,42 C643.738576,42 516.905243,42 266,42 C261.333333,44.6666667 259,50.3333333 259,59 C259,67.6666667 261.333333,73 266,75 L646.5,75 Z" id="Oval-6-Copy-4" stroke="#979797"></path>
        <path d="M266.5,75 C270.642136,75 274,67.6126984 274,58.5 C274,49.3873016 270.642136,42 266.5,42" id="Oval-6-Copy-2" stroke="#999999"></path>
    </g>
</svg>