<?xml version="1.0" encoding="UTF-8"?>
<svg width="900px" height="300px" viewBox="0 0 900 300" version="1.1" xmlns="http://www.w3.org/2000/svg" xmlns:xlink="http://www.w3.org/1999/xlink">
    <!-- Generator: Sketch 60.1 (88133) - https://sketch.com -->
    <title>Water_Molecules</title>
    <desc>Created with Sketch.</desc>
    <g id="Water_Molecules" stroke="none" stroke-width="1" fill="none" fill-rule="evenodd">
        <g id="Illustration_Frame">
            <rect id="Rectangle" stroke="#3D3530" stroke-width="2" fill="#EEEEEE" x="1" y="1" width="898" height="298"></rect>
            <rect id="Rectangle-Copy" stroke="#3D3530" stroke-width="2" fill="#F8FAE4" x="1" y="256" width="898" height="43"></rect>
            <path d="M690.143999,285 L694.919999,271.032 L699.671999,285 L701.303999,285 L706.871999,268.872 L705.239999,268.872 L700.488,282.552 L695.639999,268.872 L694.175999,268.872 L689.351999,282.552 L684.575999,268.872 L682.943999,268.872 L688.536,285 L690.143999,285 Z M713.178666,285.192 C715.066666,285.192 716.626666,284.48 717.858666,283.056 L717.858666,283.056 L717.858666,285 L719.442666,285 L719.442666,273 L717.858666,273 L717.858666,274.944 C716.642666,273.52 715.082666,272.808 713.178666,272.808 C711.466666,272.808 710.006666,273.412 708.798666,274.62 C707.590666,275.828 706.986666,277.288 706.986666,279 C706.986666,280.712 707.590666,282.172 708.798666,283.38 C710.006666,284.588 711.466666,285.192 713.178666,285.192 Z M713.202666,283.68 C711.922666,283.68 710.830666,283.228 709.926666,282.324 C709.022666,281.42 708.570666,280.312 708.570666,279 C708.570666,277.688 709.022666,276.58 709.926666,275.676 C710.830666,274.772 711.922666,274.32 713.202666,274.32 C714.498666,274.32 715.590666,274.772 716.478666,275.676 C717.366666,276.58 717.810666,277.688 717.810666,279 C717.810666,280.312 717.366666,281.42 716.478666,282.324 C715.590666,283.228 714.498666,283.68 713.202666,283.68 Z M727.525333,285.192 C728.117333,285.192 728.693333,285.036 729.253333,284.724 C729.813333,284.412 730.173333,284.168 730.333333,283.992 C730.493333,283.816 730.621333,283.664 730.717333,283.536 L730.717333,283.536 L729.925333,282.312 C729.925333,282.376 729.841333,282.516 729.673333,282.732 C729.505333,282.948 729.245333,283.168 728.893333,283.392 C728.541333,283.616 728.181333,283.728 727.813333,283.728 C727.221333,283.728 726.697333,283.512 726.241333,283.08 C725.785333,282.648 725.557333,282.064 725.557333,281.328 L725.557333,281.328 L725.557333,274.44 L729.181333,274.44 L729.181333,272.976 L725.557333,272.976 L725.557333,268.992 L723.973333,269.184 L723.973333,272.976 L722.053333,272.976 L722.053333,274.44 L723.973333,274.44 L723.973333,281.688 C723.973333,282.824 724.313333,283.692 724.993333,284.292 C725.673333,284.892 726.517333,285.192 727.525333,285.192 Z M738.368,285.072 C739.84,285.088 741.108,284.672 742.172,283.824 C743.236,282.976 743.952,282.048 744.32,281.04 L744.32,281.04 L742.976,280.56 C742.672,281.376 742.096,282.088 741.248,282.696 C740.4,283.304 739.44,283.608 738.368,283.608 C737.376,283.624 736.472,283.324 735.656,282.708 C734.84,282.092 734.296,281.304 734.024,280.344 L734.024,280.344 L744.512,278.448 C744.512,278.32 744.504,278.216 744.488,278.136 C744.312,276.6 743.64,275.312 742.472,274.272 C741.304,273.232 739.936,272.704 738.368,272.688 C736.64,272.704 735.176,273.312 733.976,274.512 C732.776,275.712 732.176,277.176 732.176,278.904 C732.176,279.528 732.256,280.104 732.416,280.632 C732.816,281.928 733.572,282.992 734.684,283.824 C735.796,284.656 737.024,285.072 738.368,285.072 Z M733.784,279.048 C733.784,278.968 733.78,278.868 733.772,278.748 C733.764,278.628 733.76,278.544 733.76,278.496 C733.824,277.312 734.284,276.296 735.14,275.448 C735.996,274.6 737.024,274.168 738.224,274.152 C739.248,274.136 740.176,274.436 741.008,275.052 C741.84,275.668 742.408,276.464 742.712,277.44 L742.712,277.44 L733.784,279.048 Z M749.018666,285 L749.018666,277.968 C749.018666,276.928 749.362666,276.052 750.050666,275.34 C750.738666,274.628 751.586666,274.272 752.594666,274.272 C753.282666,274.272 753.962666,274.52 754.634666,275.016 L754.634666,275.016 L755.186666,273.432 C754.482666,273.016 753.706666,272.808 752.858666,272.808 C751.274666,272.808 749.994666,273.464 749.018666,274.776 L749.018666,274.776 L749.018666,273 L747.434666,273 L747.434666,285 L749.018666,285 Z M765.88,285 L768.976,271.824 L773.128,285 L774.184,285 L778.36,271.824 L781.456,285 L783.04,285 L779.32,268.872 L777.856,268.872 L773.68,281.784 L769.456,268.872 L768.016,268.872 L764.296,285 L765.88,285 Z M791.122666,285.192 C792.834666,285.192 794.290666,284.584 795.490666,283.368 C796.706666,282.152 797.314666,280.696 797.314666,279 C797.314666,277.288 796.710666,275.828 795.502666,274.62 C794.294666,273.412 792.834666,272.808 791.122666,272.808 C789.410666,272.808 787.950666,273.412 786.742666,274.62 C785.534666,275.828 784.930666,277.288 784.930666,279 C784.930666,280.712 785.534666,282.172 786.742666,283.38 C787.950666,284.588 789.410666,285.192 791.122666,285.192 Z M791.146666,283.68 C789.866666,283.68 788.778666,283.228 787.882666,282.324 C786.986666,281.42 786.538666,280.312 786.538666,279 C786.538666,277.688 786.986666,276.576 787.882666,275.664 C788.778666,274.752 789.866666,274.296 791.146666,274.296 C792.442666,274.296 793.534666,274.752 794.422666,275.664 C795.310666,276.576 795.754666,277.688 795.754666,279 C795.754666,280.312 795.310666,281.42 794.422666,282.324 C793.534666,283.228 792.442666,283.68 791.146666,283.68 Z M802.181333,285 L802.181333,267.144 L800.597333,267.144 L800.597333,285 L802.181333,285 Z M811.608,285.072 C813.08,285.088 814.348,284.672 815.412,283.824 C816.476,282.976 817.192,282.048 817.56,281.04 L817.56,281.04 L816.216,280.56 C815.912,281.376 815.336,282.088 814.488,282.696 C813.64,283.304 812.68,283.608 811.608,283.608 C810.616,283.624 809.712,283.324 808.896,282.708 C808.08,282.092 807.536,281.304 807.264,280.344 L807.264,280.344 L817.752,278.448 C817.752,278.32 817.744,278.216 817.728,278.136 C817.552,276.6 816.88,275.312 815.712,274.272 C814.544,273.232 813.176,272.704 811.608,272.688 C809.88,272.704 808.416,273.312 807.216,274.512 C806.016,275.712 805.416,277.176 805.416,278.904 C805.416,279.528 805.496,280.104 805.656,280.632 C806.056,281.928 806.812,282.992 807.924,283.824 C809.036,284.656 810.264,285.072 811.608,285.072 Z M807.024,279.048 C807.024,278.968 807.02,278.868 807.012,278.748 C807.004,278.628 807,278.544 807,278.496 C807.064,277.312 807.524,276.296 808.38,275.448 C809.236,274.6 810.264,274.168 811.464,274.152 C812.488,274.136 813.416,274.436 814.248,275.052 C815.08,275.668 815.648,276.464 815.952,277.44 L815.952,277.44 L807.024,279.048 Z M826.602666,285.192 C827.690667,285.192 828.702666,284.924 829.638666,284.388 C830.574667,283.852 831.314666,283.136 831.858666,282.24 L831.858666,282.24 L830.418666,281.544 C829.986666,282.2 829.434666,282.72 828.762666,283.104 C828.090666,283.488 827.370666,283.68 826.602666,283.68 C825.306667,283.68 824.214667,283.228 823.326666,282.324 C822.438666,281.42 821.994666,280.312 821.994666,279 C821.994666,277.688 822.438666,276.58 823.326666,275.676 C824.214667,274.772 825.306667,274.32 826.602666,274.32 C827.370666,274.32 828.090666,274.512 828.762666,274.896 C829.434666,275.28 829.986666,275.8 830.418666,276.456 L830.418666,276.456 L831.858666,275.76 C831.314666,274.864 830.574667,274.148 829.638666,273.612 C828.702666,273.076 827.690667,272.808 826.602666,272.808 C824.890666,272.808 823.430666,273.412 822.222666,274.62 C821.014666,275.828 820.410666,277.288 820.410666,279 C820.410666,280.712 821.014666,282.172 822.222666,283.38 C823.430666,284.588 824.890666,285.192 826.602666,285.192 Z M840.061333,285.192 C841.645333,285.192 842.925333,284.536 843.901333,283.224 L843.901333,283.224 L843.901333,285 L845.485333,285 L845.485333,273 L843.901333,273 L843.901333,280.032 C843.901333,281.056 843.557333,281.924 842.869333,282.636 C842.181333,283.348 841.333333,283.704 840.325333,283.704 C839.333333,283.704 838.493333,283.348 837.805333,282.636 C837.117333,281.924 836.773333,281.056 836.773333,280.032 L836.773333,280.032 L836.773333,273 L835.141333,273 L835.141333,280.08 C835.141333,281.52 835.613333,282.732 836.557333,283.716 C837.501333,284.7 838.669333,285.192 840.061333,285.192 Z M851.24,285 L851.24,267.144 L849.656,267.144 L849.656,285 L851.24,285 Z M860.666667,285.072 C862.138667,285.088 863.406667,284.672 864.470667,283.824 C865.534667,282.976 866.250667,282.048 866.618667,281.04 L866.618667,281.04 L865.274667,280.56 C864.970667,281.376 864.394667,282.088 863.546667,282.696 C862.698667,283.304 861.738667,283.608 860.666667,283.608 C859.674667,283.624 858.770667,283.324 857.954667,282.708 C857.138667,282.092 856.594667,281.304 856.322667,280.344 L856.322667,280.344 L866.810667,278.448 C866.810667,278.32 866.802667,278.216 866.786667,278.136 C866.610667,276.6 865.938667,275.312 864.770667,274.272 C863.602667,273.232 862.234667,272.704 860.666667,272.688 C858.938667,272.704 857.474667,273.312 856.274667,274.512 C855.074667,275.712 854.474667,277.176 854.474667,278.904 C854.474667,279.528 854.554667,280.104 854.714667,280.632 C855.114667,281.928 855.870667,282.992 856.982667,283.824 C858.094667,284.656 859.322667,285.072 860.666667,285.072 Z M856.082667,279.048 C856.082667,278.968 856.078667,278.868 856.070667,278.748 C856.062667,278.628 856.058667,278.544 856.058667,278.496 C856.122667,277.312 856.582667,276.296 857.438667,275.448 C858.294667,274.6 859.322667,274.168 860.522667,274.152 C861.546667,274.136 862.474667,274.436 863.306667,275.052 C864.138667,275.668 864.706667,276.464 865.010667,277.44 L865.010667,277.44 L856.082667,279.048 Z M873.933333,285.192 C875.405333,285.192 876.509333,284.88 877.245333,284.256 C877.981333,283.632 878.349333,282.816 878.349333,281.808 C878.349333,281.088 878.085333,280.476 877.557333,279.972 C877.029333,279.468 876.385333,279.084 875.625333,278.82 C874.865333,278.556 874.109333,278.312 873.357333,278.088 C872.605333,277.864 871.965333,277.596 871.437333,277.284 C870.909333,276.972 870.645333,276.6 870.645333,276.168 C870.645333,275.56 870.913333,275.088 871.449333,274.752 C871.985333,274.416 872.685333,274.248 873.549333,274.248 C874.157333,274.248 874.765333,274.384 875.373333,274.656 C875.981333,274.928 876.385333,275.144 876.585333,275.304 C876.785333,275.464 876.941333,275.6 877.053333,275.712 L877.053333,275.712 L878.181333,274.728 L877.677333,274.248 C877.341333,273.928 876.789333,273.608 876.021333,273.288 C875.253333,272.968 874.437333,272.808 873.573333,272.808 C872.117333,272.808 871.017333,273.124 870.273333,273.756 C869.529333,274.388 869.157333,275.2 869.157333,276.192 C869.157333,276.912 869.421333,277.52 869.949333,278.016 C870.477333,278.512 871.121333,278.896 871.881333,279.168 C872.641333,279.44 873.397333,279.688 874.149333,279.912 C874.901333,280.136 875.541333,280.404 876.069333,280.716 C876.597333,281.028 876.861333,281.4 876.861333,281.832 C876.861333,282.44 876.597333,282.912 876.069333,283.248 C875.541333,283.584 874.837333,283.752 873.957333,283.752 C873.365333,283.752 872.765333,283.616 872.157333,283.344 C871.549333,283.072 871.145333,282.856 870.945333,282.696 C870.745333,282.536 870.589333,282.4 870.477333,282.288 L870.477333,282.288 L869.349333,283.248 L869.541333,283.464 C869.669333,283.592 869.869333,283.752 870.141333,283.944 C870.413333,284.136 870.721333,284.324 871.065333,284.508 C871.409333,284.692 871.837333,284.852 872.349333,284.988 C872.861333,285.124 873.389333,285.192 873.933333,285.192 Z" id="WaterMolecules" fill="#23ABE3" fill-rule="nonzero"></path>
        </g>
        <g transform="translate(289.000000, 46.000000)" stroke="#979797">
            <path d="M75.5,13 C116.695493,13 150.184944,19.7734979 150.985347,28.1915321 L151.546875,28.1914062 L142.421875,152.992187 C119.176841,162.882812 95.9528831,167.828125 72.75,167.828125 C49.5471169,167.828125 27.1337054,162.882812 5.50976562,152.992187 L5.50976562,152.992187 L0.760428981,30.7083096 C0.259277673,29.9870208 0,29.2497265 0,28.5 C0,19.9395864 33.8025014,13 75.5,13 Z" id="Combined-Shape" fill="#D8D8D8"></path>
            <path d="M2.37109375,69.3710938 L5.50976563,152.992188 C27.1337054,162.882812 49.5471169,167.828125 72.75,167.828125 C95.9528831,167.828125 119.176841,162.882812 142.421875,152.992188 L147.90625,69.3710938 C123.897135,75.9127604 99.641276,79.1835938 75.1386719,79.1835938 C50.6360677,79.1835938 26.3802083,75.9127604 2.37109375,69.3710938 Z" id="Combined-Shape-Copy-2" fill="#23ABE3"></path>
            <path d="M75.5,83 C116.092929,83 149,76.0604136 149,67.5 C149,58.9395864 116.092929,52 75.5,52 C34.9070709,52 2,58.9395864 2,67.5 C2,76.0604136 34.9070709,83 75.5,83 Z" id="Oval-9-Copy-2" fill="#23ABE3"></path>
            <ellipse id="Oval-9-Copy" fill="#D8D8D8" cx="75.5" cy="28.5" rx="75.5" ry="15.5"></ellipse>
            <circle id="Oval-10" stroke-width="2" cx="65.5" cy="101.5" r="11.5"></circle>
            <line x1="77.5" y1="95.5" x2="181.5" y2="75.5" id="Line-12" stroke-width="2" stroke-linecap="square"></line>
            <circle id="Oval-11" stroke-width="2" cx="261.5" cy="88.5" r="80.5"></circle>
            <g id="WaterMolecule" transform="translate(200.000000, 37.000000)">
                <circle id="Oval-12-Copy-2" fill="#23ABE3" cx="30" cy="20" r="10"></circle>
                <circle id="Oval-12" fill="#999999" cx="19" cy="15" r="15"></circle>
                <circle id="Oval-12-Copy" fill="#23ABE3" cx="10" cy="25" r="10"></circle>
            </g>
            <g id="WaterMolecule-Copy-5" transform="translate(270.000000, 127.000000)">
                <circle id="Oval-12-Copy-2" fill="#23ABE3" cx="30" cy="20" r="10"></circle>
                <circle id="Oval-12" fill="#999999" cx="19" cy="15" r="15"></circle>
                <circle id="Oval-12-Copy" fill="#23ABE3" cx="10" cy="25" r="10"></circle>
            </g>
            <g id="WaterMolecule-Copy-3" transform="translate(264.000000, 103.500000) rotate(-21.727212) translate(-264.000000, -103.500000) translate(244.000000, 86.000000)">
                <circle id="Oval-12-Copy-2" fill="#23ABE3" cx="30" cy="20" r="10"></circle>
                <circle id="Oval-12" fill="#999999" cx="19" cy="15" r="15"></circle>
                <circle id="Oval-12-Copy" fill="#23ABE3" cx="10" cy="25" r="10"></circle>
            </g>
            <g id="WaterMolecule-Copy" transform="translate(230.000000, 94.500000) rotate(136.000000) translate(-230.000000, -94.500000) translate(210.000000, 77.000000)">
                <circle id="Oval-12-Copy-2" fill="#23ABE3" cx="30" cy="20" r="10"></circle>
                <circle id="Oval-12" fill="#999999" cx="19" cy="15" r="15"></circle>
                <circle id="Oval-12-Copy" fill="#23ABE3" cx="10" cy="25" r="10"></circle>
            </g>
            <g id="WaterMolecule-Copy-2" transform="translate(267.000000, 67.500000) rotate(226.179343) translate(-267.000000, -67.500000) translate(247.000000, 50.000000)">
                <circle id="Oval-12-Copy-2" fill="#23ABE3" cx="30" cy="20" r="10"></circle>
                <circle id="Oval-12" fill="#999999" cx="19" cy="15" r="15"></circle>
                <circle id="Oval-12-Copy" fill="#23ABE3" cx="10" cy="25" r="10"></circle>
            </g>
            <g id="WaterMolecule-Copy-4" transform="translate(227.000000, 137.500000) rotate(226.179343) translate(-227.000000, -137.500000) translate(207.000000, 120.000000)">
                <circle id="Oval-12-Copy-2" fill="#23ABE3" cx="30" cy="20" r="10"></circle>
                <circle id="Oval-12" fill="#999999" cx="19" cy="15" r="15"></circle>
                <circle id="Oval-12-Copy" fill="#23ABE3" cx="10" cy="25" r="10"></circle>
            </g>
            <g id="WaterMolecule-Copy-7" transform="translate(277.000000, 27.500000) rotate(226.179343) translate(-277.000000, -27.500000) translate(257.000000, 10.000000)">
                <circle id="Oval-12-Copy-2" fill="#23ABE3" cx="30" cy="20" r="10"></circle>
                <circle id="Oval-12" fill="#999999" cx="19" cy="15" r="15"></circle>
                <circle id="Oval-12-Copy" fill="#23ABE3" cx="10" cy="25" r="10"></circle>
            </g>
            <g id="WaterMolecule-Copy-6" transform="translate(307.000000, 107.500000) rotate(263.548523) translate(-307.000000, -107.500000) translate(287.000000, 90.000000)">
                <circle id="Oval-12-Copy-2" fill="#23ABE3" cx="30" cy="20" r="10"></circle>
                <circle id="Oval-12" fill="#999999" cx="19" cy="15" r="15"></circle>
                <circle id="Oval-12-Copy" fill="#23ABE3" cx="10" cy="25" r="10"></circle>
            </g>
        </g>
    </g>
</svg>