<?xml version="1.0" encoding="UTF-8"?>
<svg width="900px" height="240px" viewBox="0 0 900 240" version="1.1" xmlns="http://www.w3.org/2000/svg" xmlns:xlink="http://www.w3.org/1999/xlink">
    <!-- Generator: Sketch 54.1 (76490) - https://sketchapp.com -->
    <title>50p_PWM_Signal</title>
    <desc>Created with Sketch.</desc>
    <g id="50p_PWM_Signal" stroke="none" stroke-width="1" fill="none" fill-rule="evenodd">
        <g id="Illustration_Frame">
            <rect id="Rectangle" stroke="#3D3530" stroke-width="2" fill="#EEEEEE" x="1" y="1" width="898" height="238"></rect>
            <rect id="Rectangle-Copy" stroke="#3D3530" stroke-width="2" fill="#F8FAE4" x="1" y="196" width="898" height="43"></rect>
            <path d="M499.447999,225 L499.447999,208.872 L504.919999,208.872 C506.728008,208.872 508.167994,209.347995 509.239999,210.3 C510.312004,211.252005 510.847999,212.447993 510.847999,213.888 C510.847999,215.312007 510.312004,216.503995 509.239999,217.464 C508.167994,218.424005 506.728008,218.904 504.919999,218.904 L501.031999,218.904 L501.031999,225 L499.447999,225 Z M501.031999,217.392 L504.919999,217.392 C506.216005,217.392 507.255995,217.060003 508.039999,216.396 C508.824003,215.731997 509.215999,214.896005 509.215999,213.888 C509.215999,212.895995 508.824003,212.064003 508.039999,211.392 C507.255995,210.719997 506.216005,210.384 504.919999,210.384 L501.031999,210.384 L501.031999,217.392 Z M535.970666,208.872 L537.602666,208.872 L532.034666,225 L530.402666,225 L525.650666,211.032 L520.874666,225 L519.266666,225 L513.674666,208.872 L515.306666,208.872 L520.082666,222.552 L524.906666,208.872 L526.370666,208.872 L531.218666,222.552 L535.970666,208.872 Z M558.789332,225 L557.205332,225 L554.109332,211.824 L549.933332,225 L548.877332,225 L544.725332,211.824 L541.629332,225 L540.045332,225 L543.765332,208.872 L545.205332,208.872 L549.429332,221.784 L553.605332,208.872 L555.069332,208.872 L558.789332,225 Z M574.090666,225.192 C573.01866,225.192 571.982671,224.920003 570.982666,224.376 C569.982661,223.831997 569.226668,223.288003 568.714666,222.744 L569.818666,221.664 C570.218668,222.096002 570.810662,222.539998 571.594666,222.996 C572.37867,223.452002 573.210661,223.68 574.090666,223.68 C575.162671,223.68 576.006663,223.444002 576.622666,222.972 C577.238669,222.499998 577.546666,221.856004 577.546666,221.04 C577.546666,220.351997 577.246669,219.752003 576.646666,219.24 C576.046663,218.727997 575.31867,218.296002 574.462666,217.944 C573.606662,217.591998 572.74667,217.220002 571.882666,216.828 C571.018661,216.435998 570.286669,215.904003 569.686666,215.232 C569.086663,214.559997 568.786666,213.768005 568.786666,212.856 C568.786666,211.687994 569.226661,210.704004 570.106666,209.904 C570.98667,209.103996 572.218658,208.704 573.802666,208.704 C574.874671,208.704 575.910661,208.975997 576.910666,209.52 C577.910671,210.064003 578.666663,210.607997 579.178666,211.152 L578.074666,212.232 C577.658664,211.783998 577.05867,211.336002 576.274666,210.888 C575.490662,210.439998 574.66667,210.216 573.802666,210.216 C572.73066,210.216 571.886669,210.451998 571.270666,210.924 C570.654663,211.396002 570.346666,212.039996 570.346666,212.856 C570.346666,213.544003 570.646663,214.147997 571.246666,214.668 C571.846669,215.188003 572.574662,215.623998 573.430666,215.976 C574.28667,216.328002 575.146661,216.695998 576.010666,217.08 C576.87467,217.464002 577.606663,217.991997 578.206666,218.664 C578.806669,219.336003 579.106666,220.127995 579.106666,221.04 C579.106666,222.208006 578.66667,223.191996 577.786666,223.992 C576.906661,224.792004 575.674674,225.192 574.090666,225.192 Z M584.429332,209.4 C584.253332,209.592001 584.029334,209.688 583.757332,209.688 C583.485331,209.688 583.257333,209.592001 583.073332,209.4 C582.889332,209.207999 582.797332,208.984001 582.797332,208.728 C582.797332,208.471999 582.889332,208.248001 583.073332,208.056 C583.257333,207.863999 583.485331,207.768 583.757332,207.768 C584.029334,207.768 584.257332,207.863999 584.441332,208.056 C584.625333,208.248001 584.717332,208.471999 584.717332,208.728 C584.717332,208.984001 584.621333,209.207999 584.429332,209.4 Z M582.965332,225 L582.965332,213 L584.549332,213 L584.549332,225 L582.965332,225 Z M599.063999,213.024 L600.671999,213.024 L600.671999,223.968 C600.655999,225.712009 600.028005,227.171994 598.787999,228.348 C597.547993,229.524006 596.112007,230.112 594.479999,230.112 C592.991992,230.112 591.724004,229.716004 590.675999,228.924 C589.627994,228.131996 588.920001,227.240005 588.551999,226.248 L589.847999,225.6 C590.152001,226.416004 590.727995,227.127997 591.575999,227.736 C592.424003,228.344003 593.391994,228.648 594.479999,228.648 C595.760006,228.648 596.843995,228.180005 597.731999,227.244 C598.620004,226.307995 599.071999,225.216006 599.087999,223.968 L599.063999,223.968 L599.063999,223.08 C597.847993,224.504007 596.288009,225.216 594.383999,225.216 C592.671991,225.216 591.212005,224.612006 590.003999,223.404 C588.795993,222.195994 588.191999,220.736009 588.191999,219.024 C588.191999,217.311991 588.795993,215.852006 590.003999,214.644 C591.212005,213.435994 592.671991,212.832 594.383999,212.832 C596.272009,212.832 597.831993,213.543993 599.063999,214.968 L599.063999,213.024 Z M594.407999,223.728 C595.704006,223.728 596.795995,223.276005 597.683999,222.372 C598.572004,221.467995 599.015999,220.360007 599.015999,219.048 C599.015999,217.735993 598.572004,216.628005 597.683999,215.724 C596.795995,214.819995 595.704006,214.368 594.407999,214.368 C593.127993,214.368 592.040004,214.819995 591.143999,215.724 C590.247995,216.628005 589.799999,217.735993 589.799999,219.048 C589.799999,220.360007 590.247995,221.467995 591.143999,222.372 C592.040004,223.276005 593.127993,223.728 594.407999,223.728 Z M609.762666,212.808 C611.154673,212.808 612.322661,213.299995 613.266666,214.284 C614.210671,215.268005 614.682666,216.479993 614.682666,217.92 L614.682666,225 L613.074666,225 L613.074666,217.968 C613.074666,216.943995 612.726669,216.072004 612.030666,215.352 C611.334662,214.631996 610.490671,214.272 609.498666,214.272 C608.506661,214.272 607.662669,214.631996 606.966666,215.352 C606.270662,216.072004 605.922666,216.943995 605.922666,217.968 L605.922666,225 L604.338666,225 L604.338666,213 L605.922666,213 L605.922666,214.776 C606.898671,213.463993 608.178658,212.808 609.762666,212.808 Z M628.477333,213 L630.061333,213 L630.061333,225 L628.477333,225 L628.477333,223.056 C627.245326,224.480007 625.685342,225.192 623.797333,225.192 C622.085324,225.192 620.625339,224.588006 619.417333,223.38 C618.209327,222.171994 617.605333,220.712009 617.605333,219 C617.605333,217.287991 618.209327,215.828006 619.417333,214.62 C620.625339,213.411994 622.085324,212.808 623.797333,212.808 C625.701342,212.808 627.261327,213.519993 628.477333,214.944 L628.477333,213 Z M623.821333,223.68 C625.117339,223.68 626.209328,223.228005 627.097333,222.324 C627.985337,221.419995 628.429333,220.312007 628.429333,219 C628.429333,217.687993 627.985337,216.580005 627.097333,215.676 C626.209328,214.771995 625.117339,214.32 623.821333,214.32 C622.541326,214.32 621.449337,214.771995 620.545333,215.676 C619.641328,216.580005 619.189333,217.687993 619.189333,219 C619.189333,220.312007 619.641328,221.419995 620.545333,222.324 C621.449337,223.228005 622.541326,223.68 623.821333,223.68 Z M634.111999,225 L634.111999,207.144 L635.695999,207.144 L635.695999,225 L634.111999,225 Z M662.877333,213 L664.461333,213 L660.213333,225 L658.629333,225 L655.245333,215.112 L651.861333,225 L650.277333,225 L646.053333,213 L647.637333,213 L651.069333,222.768 L654.525333,213 L655.965333,213 L659.421333,222.768 L662.877333,213 Z M668.919999,209.4 C668.743999,209.592001 668.520001,209.688 668.247999,209.688 C667.975998,209.688 667.748,209.592001 667.563999,209.4 C667.379998,209.207999 667.287999,208.984001 667.287999,208.728 C667.287999,208.471999 667.379998,208.248001 667.563999,208.056 C667.748,207.863999 667.975998,207.768 668.247999,207.768 C668.520001,207.768 668.747998,207.863999 668.931999,208.056 C669.116,208.248001 669.207999,208.471999 669.207999,208.728 C669.207999,208.984001 669.112,209.207999 668.919999,209.4 Z M667.455999,225 L667.455999,213 L669.039999,213 L669.039999,225 L667.455999,225 Z M679.522666,222.312 L680.314666,223.536 C680.218666,223.664001 680.090667,223.815999 679.930666,223.992 C679.770665,224.168001 679.410669,224.411998 678.850666,224.724 C678.290663,225.036002 677.714669,225.192 677.122666,225.192 C676.114661,225.192 675.270669,224.892003 674.590666,224.292 C673.910663,223.691997 673.570666,222.824006 673.570666,221.688 L673.570666,214.44 L671.650666,214.44 L671.650666,212.976 L673.570666,212.976 L673.570666,209.184 L675.154666,208.992 L675.154666,212.976 L678.778666,212.976 L678.778666,214.44 L675.154666,214.44 L675.154666,221.328 C675.154666,222.064004 675.382664,222.647998 675.838666,223.08 C676.294668,223.512002 676.818663,223.728 677.410666,223.728 C677.778668,223.728 678.138664,223.616001 678.490666,223.392 C678.842668,223.167999 679.102665,222.948001 679.270666,222.732 C679.438667,222.515999 679.522666,222.376 679.522666,222.312 Z M688.325333,212.808 C689.71734,212.808 690.885328,213.307995 691.829333,214.308 C692.773338,215.308005 693.245333,216.527993 693.245333,217.968 L693.245333,225 L691.637333,225 L691.637333,217.992 C691.637333,216.951995 691.293336,216.076004 690.605333,215.364 C689.917329,214.651996 689.069338,214.296 688.061333,214.296 C687.069328,214.296 686.225336,214.651996 685.529333,215.364 C684.833329,216.076004 684.485333,216.943995 684.485333,217.968 L684.485333,225 L682.901333,225 L682.901333,207.144 L684.485333,207.144 L684.485333,214.776 C685.461338,213.463993 686.741325,212.808 688.325333,212.808 Z M709.722666,225.192 C708.53866,225.192 707.442671,224.856003 706.434666,224.184 C705.426661,223.511997 704.754668,222.728004 704.418666,221.832 L705.810666,221.16 C705.986667,221.720003 706.450662,222.279997 707.202666,222.84 C707.95467,223.400003 708.794662,223.68 709.722666,223.68 C710.794672,223.68 711.726662,223.340003 712.518666,222.66 C713.31067,221.979997 713.706666,221.072006 713.706666,219.936 C713.706666,218.767994 713.32267,217.816004 712.554666,217.08 C711.786662,216.343996 710.890671,215.976 709.866666,215.976 C709.002662,215.976 708.19067,216.139998 707.430666,216.468 C706.670662,216.796002 706.178667,217.103999 705.954666,217.392 L704.610666,216.84 L704.610666,208.872 L714.906666,208.872 L714.906666,210.456 L706.194666,210.456 L706.194666,215.4 C707.122671,214.775997 708.346659,214.464 709.866666,214.464 C711.354674,214.464 712.630661,214.963995 713.694666,215.964 C714.758672,216.964005 715.290666,218.279992 715.290666,219.912 C715.290666,221.544008 714.762671,222.831995 713.706666,223.776 C712.650661,224.720005 711.322674,225.192 709.722666,225.192 Z M726.829333,224.568 C726.061329,224.984002 725.165338,225.192 724.141333,225.192 C723.117328,225.192 722.217337,224.980002 721.441333,224.556 C720.665329,224.131998 720.041335,223.540004 719.569333,222.78 C719.097331,222.019996 718.745334,221.152005 718.513333,220.176 C718.281332,219.199995 718.165333,218.128006 718.165333,216.96 C718.165333,214.527988 718.661328,212.544008 719.653333,211.008 C720.645338,209.471992 722.141323,208.704 724.141333,208.704 C726.141343,208.704 727.637328,209.471992 728.629333,211.008 C729.621338,212.544008 730.117333,214.527988 730.117333,216.96 C730.117333,218.128006 730.001334,219.199995 729.769333,220.176 C729.537332,221.152005 729.185335,222.019996 728.713333,222.78 C728.241331,223.540004 727.613337,224.135998 726.829333,224.568 Z M720.829333,221.856 C721.565337,223.088006 722.669326,223.704 724.141333,223.704 C725.61334,223.704 726.713329,223.084006 727.441333,221.844 C728.169337,220.603994 728.533333,218.97601 728.533333,216.96 C728.533333,214.94399 728.169337,213.316006 727.441333,212.076 C726.713329,210.835994 725.61334,210.216 724.141333,210.216 C722.669326,210.216 721.569337,210.835994 720.841333,212.076 C720.113329,213.316006 719.749333,214.94399 719.749333,216.96 C719.749333,218.97601 720.109329,220.607994 720.829333,221.856 Z M738.68,216.456 C737.991996,217.160004 737.152005,217.512 736.16,217.512 C735.167995,217.512 734.324003,217.160004 733.628,216.456 C732.931996,215.751996 732.584,214.912005 732.584,213.936 C732.584,212.959995 732.931996,212.120004 733.628,211.416 C734.324003,210.711996 735.167995,210.36 736.16,210.36 C737.152005,210.36 737.995996,210.711996 738.692,211.416 C739.388003,212.120004 739.736,212.959995 739.736,213.936 C739.736,214.912005 739.384003,215.751996 738.68,216.456 Z M734.12,225 L745.304,210.552 L746.84,210.552 L735.68,225 L734.12,225 Z M734.504,215.568 C734.968002,216.032002 735.519996,216.264 736.16,216.264 C736.800003,216.264 737.347997,216.036002 737.804,215.58 C738.260002,215.123998 738.488,214.576003 738.488,213.936 C738.488,213.295997 738.260002,212.748002 737.804,212.292 C737.347997,211.835998 736.800003,211.608 736.16,211.608 C735.519996,211.608 734.972002,211.843998 734.516,212.316 C734.059997,212.788002 733.832,213.327997 733.832,213.936 C733.832,214.560003 734.055997,215.103998 734.504,215.568 Z M744.8,225.192 C743.823995,225.192 742.988003,224.844003 742.292,224.148 C741.595996,223.451997 741.248,222.608005 741.248,221.616 C741.248,220.639995 741.591996,219.804003 742.28,219.108 C742.968003,218.411997 743.807995,218.064 744.8,218.064 C745.792005,218.064 746.635996,218.407997 747.332,219.096 C748.028003,219.784003 748.376,220.623995 748.376,221.616 C748.376,222.608005 748.028003,223.451997 747.332,224.148 C746.635996,224.844003 745.792005,225.192 744.8,225.192 Z M744.8,223.896 C745.424003,223.896 745.963997,223.672002 746.42,223.224 C746.876002,222.775998 747.104,222.240003 747.104,221.616 C747.104,220.975997 746.880002,220.436002 746.432,219.996 C745.983997,219.555998 745.440003,219.336 744.8,219.336 C744.159996,219.336 743.620002,219.559998 743.18,220.008 C742.739997,220.456002 742.52,220.991997 742.52,221.616 C742.52,222.240003 742.747997,222.775998 743.204,223.224 C743.660002,223.672002 744.191997,223.896 744.8,223.896 Z M759.093333,225 L759.093333,208.872 L762.741333,208.872 C765.397346,208.872 767.509325,209.639992 769.077333,211.176 C770.645341,212.712008 771.429333,214.631988 771.429333,216.936 C771.429333,219.224011 770.641341,221.139992 769.065333,222.684 C767.489325,224.228008 765.381346,225 762.741333,225 L759.093333,225 Z M760.677333,223.488 L762.741333,223.488 C764.853344,223.488 766.541327,222.868006 767.805333,221.628 C769.069339,220.387994 769.701333,218.824009 769.701333,216.936 C769.701333,215.047991 769.069339,213.484006 767.805333,212.244 C766.541327,211.003994 764.853344,210.384 762.741333,210.384 L760.677333,210.384 L760.677333,223.488 Z M783.184,213 L784.768,213 L784.768,225 L783.184,225 L783.184,223.224 C782.207995,224.536007 780.928008,225.192 779.344,225.192 C777.951993,225.192 776.784004,224.700005 775.84,223.716 C774.895995,222.731995 774.424,221.520007 774.424,220.08 L774.424,213 L776.056,213 L776.056,220.032 C776.056,221.056005 776.399996,221.923996 777.088,222.636 C777.776003,223.348004 778.615995,223.704 779.608,223.704 C780.616005,223.704 781.463996,223.348004 782.152,222.636 C782.840003,221.923996 783.184,221.056005 783.184,220.032 L783.184,213 Z M795.442666,222.312 L796.234666,223.536 C796.138666,223.664001 796.010667,223.815999 795.850666,223.992 C795.690666,224.168001 795.330669,224.411998 794.770666,224.724 C794.210664,225.036002 793.634669,225.192 793.042666,225.192 C792.034661,225.192 791.19067,224.892003 790.510666,224.292 C789.830663,223.691997 789.490666,222.824006 789.490666,221.688 L789.490666,214.44 L787.570666,214.44 L787.570666,212.976 L789.490666,212.976 L789.490666,209.184 L791.074666,208.992 L791.074666,212.976 L794.698666,212.976 L794.698666,214.44 L791.074666,214.44 L791.074666,221.328 C791.074666,222.064004 791.302664,222.647998 791.758666,223.08 C792.214669,223.512002 792.738663,223.728 793.330666,223.728 C793.698668,223.728 794.058665,223.616001 794.410666,223.392 C794.762668,223.167999 795.022666,222.948001 795.190666,222.732 C795.358667,222.515999 795.442666,222.376 795.442666,222.312 Z M806.189333,213 L807.773333,213 L801.221333,230.112 L799.637333,230.112 L802.157333,223.536 L797.717333,213 L799.301333,213 L802.901333,221.568 L806.189333,213 Z M825.282667,225.192 C822.914655,225.192 821.026674,224.404008 819.618667,222.828 C818.210659,221.251992 817.506666,219.296012 817.506666,216.96 C817.506666,214.607988 818.210659,212.644008 819.618667,211.068 C821.026674,209.491992 822.914655,208.704 825.282667,208.704 C826.850674,208.704 828.214661,209.063996 829.374666,209.784 C830.534672,210.504004 831.434663,211.487994 832.074667,212.736 L830.586667,213.6 C830.074664,212.559995 829.358671,211.736003 828.438666,211.128 C827.518662,210.519997 826.466672,210.216 825.282667,210.216 C823.458657,210.216 821.998672,210.851994 820.902667,212.124 C819.806661,213.396006 819.258667,215.00799 819.258667,216.96 C819.258667,218.89601 819.806661,220.503994 820.902667,221.784 C821.998672,223.064006 823.458657,223.704 825.282667,223.704 C826.482673,223.704 827.542662,223.396003 828.462667,222.78 C829.382671,222.163997 830.090664,221.336005 830.586667,220.296 L832.074667,221.184 C831.434663,222.432006 830.534672,223.411996 829.374666,224.124 C828.214661,224.836004 826.850674,225.192 825.282667,225.192 Z M842.821333,213 L844.405333,213 L837.853333,230.112 L836.269333,230.112 L838.789333,223.536 L834.349333,213 L835.933333,213 L839.533333,221.568 L842.821333,213 Z M852.296,225.192 C850.583991,225.192 849.124006,224.588006 847.916,223.38 C846.707994,222.171994 846.104,220.712009 846.104,219 C846.104,217.287991 846.707994,215.828006 847.916,214.62 C849.124006,213.411994 850.583991,212.808 852.296,212.808 C853.384005,212.808 854.395995,213.075997 855.332,213.612 C856.268005,214.148003 857.007997,214.863996 857.552,215.76 L856.112,216.456 C855.679998,215.799997 855.128003,215.280002 854.456,214.896 C853.783997,214.511998 853.064004,214.32 852.296,214.32 C850.999993,214.32 849.908004,214.771995 849.02,215.676 C848.131995,216.580005 847.688,217.687993 847.688,219 C847.688,220.312007 848.131995,221.419995 849.02,222.324 C849.908004,223.228005 850.999993,223.68 852.296,223.68 C853.064004,223.68 853.783997,223.488002 854.456,223.104 C855.128003,222.719998 855.679998,222.200003 856.112,221.544 L857.552,222.24 C857.007997,223.136004 856.268005,223.851997 855.332,224.388 C854.395995,224.924003 853.384005,225.192 852.296,225.192 Z M861.026667,225 L861.026667,207.144 L862.610667,207.144 L862.610667,225 L861.026667,225 Z M872.037333,223.608 C873.109339,223.608 874.069329,223.304003 874.917333,222.696 C875.765338,222.087997 876.341332,221.376004 876.645333,220.56 L877.989333,221.04 C877.621331,222.048005 876.905339,222.975996 875.841333,223.824 C874.777328,224.672004 873.509341,225.088 872.037333,225.072 C870.693327,225.072 869.465339,224.656004 868.353333,223.824 C867.241328,222.991996 866.485335,221.928006 866.085333,220.632 C865.925333,220.103997 865.845333,219.528003 865.845333,218.904 C865.845333,217.175991 866.445327,215.712006 867.645333,214.512 C868.845339,213.311994 870.309325,212.704 872.037333,212.688 C873.605341,212.704 874.973327,213.231995 876.141333,214.272 C877.309339,215.312005 877.981332,216.599992 878.157333,218.136 C878.173333,218.216 878.181333,218.319999 878.181333,218.448 L867.693333,220.344 C867.965335,221.304005 868.509329,222.091997 869.325333,222.708 C870.141337,223.324003 871.045328,223.624 872.037333,223.608 Z M871.893333,214.152 C870.693327,214.168 869.665338,214.599996 868.809333,215.448 C867.953329,216.296004 867.493334,217.311994 867.429333,218.496 C867.429333,218.544 867.433333,218.627999 867.441333,218.748 C867.449333,218.868001 867.453333,218.968 867.453333,219.048 L876.381333,217.44 C876.077332,216.463995 875.509337,215.668003 874.677333,215.052 C873.845329,214.435997 872.917338,214.136 871.893333,214.152 Z" id="PWMSignalwith50%DutyCycle" fill="#23ABE3" fill-rule="nonzero"></path>
        </g>
        <g id="PWM_50p_DutyCycle" transform="translate(24.000000, 44.000000)">
            <g id="Axis">
                <path d="M115.5,10.5 L115.5,97.7066511" id="Line" stroke="#524740" stroke-width="3" stroke-linecap="square"></path>
                <path d="M116.5,98.5 L846.502472,98.5" id="Line" stroke="#524740" stroke-width="3" stroke-linecap="square"></path>
                <path d="M115.5,10.5 L105.5,10.5" id="Line" stroke="#524740" stroke-width="3" stroke-linecap="square"></path>
                <path d="M115.5,98.5 L105.5,98.5" id="Line-Copy-8" stroke="#524740" stroke-width="3" stroke-linecap="square"></path>
                <path d="M760.196,45 L753.884,45 L753.884,44.496 C754.876005,44.496 755.507999,44.3280017 755.78,43.992 C756.052001,43.6559983 756.188,42.888006 756.188,41.688 L756.188,37.896 C756.188,36.695994 756.052001,35.9280017 755.78,35.592 C755.507999,35.2559983 754.876005,35.088 753.884,35.088 L753.884,34.608 L760.196,34.608 L760.196,35.088 C759.187995,35.088 758.552001,35.2519984 758.288,35.58 C758.023999,35.9080016 757.892,36.6799939 757.892,37.896 L757.892,41.688 C757.892,42.9040061 758.023999,43.6759984 758.288,44.004 C758.552001,44.3320016 759.187995,44.496 760.196,44.496 L760.196,45 Z M766.46,43.944 C766.46,44.2800017 766.324001,44.5719988 766.052,44.82 C765.779999,45.0680012 765.460002,45.192 765.092,45.192 C764.723998,45.192 764.412001,45.0680012 764.156,44.82 C763.899999,44.5719988 763.772,44.2800017 763.772,43.944 C763.772,43.5919982 763.899999,43.2920012 764.156,43.044 C764.412001,42.7959988 764.723998,42.672 765.092,42.672 C765.460002,42.672 765.779999,42.7959988 766.052,43.044 C766.324001,43.2920012 766.46,43.5919982 766.46,43.944 Z M772.388,39.144 C772.42,40.2480055 772.543999,41.1799962 772.76,41.94 C772.976001,42.7000038 773.243998,43.2439984 773.564,43.572 C773.884002,43.9000016 774.179999,44.1279994 774.452,44.256 C774.724001,44.3840006 774.995999,44.448 775.268,44.448 C776.244005,44.448 776.963998,44.1040034 777.428,43.416 C777.892002,42.7279966 778.124,41.880005 778.124,40.872 C778.124,39.8959951 777.892002,39.0680034 777.428,38.388 C776.963998,37.7079966 776.244005,37.368 775.268,37.368 C774.563996,37.368 773.944003,37.5359983 773.408,37.872 C772.871997,38.2080017 772.532001,38.6319974 772.388,39.144 Z M772.412,37.824 C773.100003,36.8799953 774.051994,36.408 775.268,36.408 C776.596007,36.408 777.735995,36.8479956 778.688,37.728 C779.640005,38.6080044 780.116,39.6639938 780.116,40.896 C780.116,42.1280062 779.640005,43.1879956 778.688,44.076 C777.735995,44.9640044 776.596007,45.408 775.268,45.408 C774.867998,45.408 774.468002,45.3560005 774.068,45.252 C773.667998,45.1479995 773.240002,44.9400016 772.784,44.628 C772.327998,44.3159984 771.932002,43.9160024 771.596,43.428 C771.259998,42.9399976 770.980001,42.2840041 770.756,41.46 C770.531999,40.6359959 770.42,39.6880054 770.42,38.616 C770.42,37.1919929 770.615998,35.8520063 771.008,34.596 C771.400002,33.3399937 772.023996,32.2800043 772.88,31.416 C773.736004,30.5519957 774.755994,30.12 775.94,30.12 C776.884005,30.12 777.707996,30.319998 778.412,30.72 C779.116004,31.120002 779.468,31.5279979 779.468,31.944 C779.468,32.136001 779.396001,32.2879994 779.252,32.4 C779.107999,32.5120006 778.964001,32.568 778.82,32.568 C778.627999,32.568 778.416001,32.4280014 778.184,32.148 C777.951999,31.8679986 777.648002,31.5880014 777.272,31.308 C776.895998,31.0279986 776.452003,30.888 775.94,30.888 C773.779989,30.888 772.604001,33.1999769 772.412,37.824 Z M797.204,31.104 C796.259995,31.104 795.648001,31.2199988 795.368,31.452 C795.087999,31.6840012 794.748002,32.2639954 794.348,33.192 L789.068,45.408 L788.756,45.408 L783.452,33.192 C783.051998,32.2639954 782.712001,31.6840012 782.432,31.452 C782.151999,31.2199988 781.540005,31.104 780.596,31.104 L780.596,30.6 L787.244,30.6 L787.244,31.104 C786.251995,31.104 785.616001,31.2439986 785.336,31.524 C785.055999,31.8040014 785.067998,32.2719967 785.372,32.928 L789.452,42.264 L793.484,32.928 C793.788002,32.2719967 793.800001,31.8040014 793.52,31.524 C793.239999,31.2439986 792.604005,31.104 791.612,31.104 L791.612,30.6 L797.204,30.6 L797.204,31.104 Z" id="1.6V" fill="#23ABE3" fill-rule="nonzero"></path>
                <path d="M61.34,14.24 C61.2279994,14.3360005 61.0880008,14.483999 60.92,14.684 C60.7519992,14.884001 60.5960007,15.0439994 60.452,15.164 C60.3079993,15.2840006 60.1640007,15.344 60.02,15.344 C59.8919994,15.344 59.7760005,15.2920005 59.672,15.188 C59.5679995,15.0839995 59.516,14.9520008 59.516,14.792 C59.516,14.5039986 59.7239979,14.2080015 60.14,13.904 L61.916,12.488 C62.3800023,12.1359982 62.7599985,11.6840028 63.056,11.132 C63.3520015,10.5799972 63.5,10.008003 63.5,9.416 C63.5,8.74399664 63.2600024,8.208002 62.78,7.808 C62.2999976,7.407998 61.6680039,7.208 60.884,7.208 C60.0519958,7.208 59.3560028,7.55999648 58.796,8.264 C58.2359972,8.96800352 58.2439971,9.81599504 58.82,10.808 L58.1,11.552 C57.1719954,10.9919972 56.6720004,10.2840043 56.6,9.428 C56.5279996,8.57199572 56.891996,7.82000324 57.692,7.172 C58.492004,6.52399676 59.5559934,6.2 60.884,6.2 C62.1160062,6.2 63.1879954,6.49599704 64.1,7.088 C65.0120046,7.68000296 65.468,8.4559952 65.468,9.416 C65.468,9.76800176 65.3920008,10.1279982 65.24,10.496 C65.0879992,10.8640018 64.9040011,11.1759987 64.688,11.432 C64.4719989,11.6880013 64.2560011,11.9239989 64.04,12.14 C63.8239989,12.3560011 63.6440007,12.5199994 63.5,12.632 L63.26,12.776 L62.156,13.616 C63.3080058,13.8560012 64.2199966,14.3279965 64.892,15.032 C65.5640034,15.7360035 65.9,16.5519954 65.9,17.48 C65.9,18.5840055 65.4400046,19.5279961 64.52,20.312 C63.5999954,21.0960039 62.4680067,21.488 61.124,21.488 C59.8279935,21.488 58.7640042,21.1760031 57.932,20.552 C57.0999958,19.9279969 56.684,19.3360028 56.684,18.776 C56.684,18.4079982 56.8919979,18.224 57.308,18.224 C57.4680008,18.224 57.6079994,18.2959993 57.728,18.44 C57.8480006,18.5840007 57.9839992,18.7839987 58.136,19.04 C58.2880008,19.2960013 58.4359993,19.4959993 58.58,19.64 C59.172003,20.2640031 59.9559951,20.576 60.932,20.576 C61.8760047,20.576 62.5839976,20.2920028 63.056,19.724 C63.5280024,19.1559972 63.764,18.4080046 63.764,17.48 C63.764,16.7119962 63.568002,16.024003 63.176,15.416 C62.783998,14.807997 62.1720042,14.4160009 61.34,14.24 Z M72.404,15.944 C72.404,16.2800017 72.2680014,16.5719988 71.996,16.82 C71.7239986,17.0680012 71.4040018,17.192 71.036,17.192 C70.6679982,17.192 70.3560013,17.0680012 70.1,16.82 C69.8439987,16.5719988 69.716,16.2800017 69.716,15.944 C69.716,15.5919982 69.8439987,15.2920012 70.1,15.044 C70.3560013,14.7959988 70.6679982,14.672 71.036,14.672 C71.4040018,14.672 71.7239986,14.7959988 71.996,15.044 C72.2680014,15.2920012 72.404,15.5919982 72.404,15.944 Z M81.044,14.24 C80.9319994,14.3360005 80.7920008,14.483999 80.624,14.684 C80.4559992,14.884001 80.3000007,15.0439994 80.156,15.164 C80.0119993,15.2840006 79.8680007,15.344 79.724,15.344 C79.5959994,15.344 79.4800005,15.2920005 79.376,15.188 C79.2719995,15.0839995 79.22,14.9520008 79.22,14.792 C79.22,14.5039986 79.4279979,14.2080015 79.844,13.904 L81.62,12.488 C82.0840023,12.1359982 82.4639985,11.6840028 82.76,11.132 C83.0560015,10.5799972 83.204,10.008003 83.204,9.416 C83.204,8.74399664 82.9640024,8.208002 82.484,7.808 C82.0039976,7.407998 81.3720039,7.208 80.588,7.208 C79.7559958,7.208 79.0600028,7.55999648 78.5,8.264 C77.9399972,8.96800352 77.9479971,9.81599504 78.524,10.808 L77.804,11.552 C76.8759954,10.9919972 76.3760004,10.2840043 76.304,9.428 C76.2319996,8.57199572 76.595996,7.82000324 77.396,7.172 C78.196004,6.52399676 79.2599934,6.2 80.588,6.2 C81.8200062,6.2 82.8919954,6.49599704 83.804,7.088 C84.7160046,7.68000296 85.172,8.4559952 85.172,9.416 C85.172,9.76800176 85.0960008,10.1279982 84.944,10.496 C84.7919992,10.8640018 84.6080011,11.1759987 84.392,11.432 C84.1759989,11.6880013 83.9600011,11.9239989 83.744,12.14 C83.5279989,12.3560011 83.3480007,12.5199994 83.204,12.632 L82.964,12.776 L81.86,13.616 C83.0120058,13.8560012 83.9239966,14.3279965 84.596,15.032 C85.2680034,15.7360035 85.604,16.5519954 85.604,17.48 C85.604,18.5840055 85.1440046,19.5279961 84.224,20.312 C83.3039954,21.0960039 82.1720067,21.488 80.828,21.488 C79.5319935,21.488 78.4680042,21.1760031 77.636,20.552 C76.8039958,19.9279969 76.388,19.3360028 76.388,18.776 C76.388,18.4079982 76.5959979,18.224 77.012,18.224 C77.1720008,18.224 77.3119994,18.2959993 77.432,18.44 C77.5520006,18.5840007 77.6879992,18.7839987 77.84,19.04 C77.9920008,19.2960013 78.1399993,19.4959993 78.284,19.64 C78.876003,20.2640031 79.6599951,20.576 80.636,20.576 C81.5800047,20.576 82.2879976,20.2920028 82.76,19.724 C83.2320024,19.1559972 83.468,18.4080046 83.468,17.48 C83.468,16.7119962 83.272002,16.024003 82.88,15.416 C82.487998,14.807997 81.8760042,14.4160009 81.044,14.24 Z M102.74,3.104 C101.795995,3.104 101.184001,3.21999884 100.904,3.452 C100.623999,3.68400116 100.284002,4.26399536 99.884,5.192 L94.604,17.408 L94.292,17.408 L88.988,5.192 C88.587998,4.26399536 88.2480014,3.68400116 87.968,3.452 C87.6879986,3.21999884 87.0760047,3.104 86.132,3.104 L86.132,2.6 L92.78,2.6 L92.78,3.104 C91.787995,3.104 91.1520014,3.2439986 90.872,3.524 C90.5919986,3.8040014 90.6039985,4.27199672 90.908,4.928 L94.988,14.264 L99.02,4.928 C99.3240015,4.27199672 99.3360014,3.8040014 99.056,3.524 C98.7759986,3.2439986 98.140005,3.104 97.148,3.104 L97.148,2.6 L102.74,2.6 L102.74,3.104 Z" id="3.3V" fill="#524740" fill-rule="nonzero"></path>
                <path d="M74.636,92.856 C75.7400055,91.7519945 77.0599923,91.2 78.596,91.2 C80.1320077,91.2 81.4479945,91.7479945 82.544,92.844 C83.6400055,93.9400055 84.188,95.2559923 84.188,96.792 C84.188,98.3440078 83.6400055,99.6679945 82.544,100.764 C81.4479945,101.860005 80.1320077,102.408 78.596,102.408 C77.0599923,102.408 75.7440055,101.860005 74.648,100.764 C73.5519945,99.6679945 73.004,98.3440078 73.004,96.792 C73.004,95.2559923 73.5479946,93.9440054 74.636,92.856 Z M78.596,92.568 C77.4759944,92.568 76.520004,92.9839958 75.728,93.816 C74.935996,94.6480042 74.54,95.6399942 74.54,96.792 C74.54,97.9600058 74.935996,98.9559959 75.728,99.78 C76.520004,100.604004 77.4759944,101.016 78.596,101.016 C79.7000055,101.016 80.651996,100.604004 81.452,99.78 C82.252004,98.9559959 82.652,97.9600058 82.652,96.792 C82.652,95.6399942 82.252004,94.6480042 81.452,93.816 C80.651996,92.9839958 79.7000055,92.568 78.596,92.568 Z M101.396,88.104 C100.451995,88.104 99.8400014,88.2199988 99.56,88.452 C99.2799986,88.6840012 98.940002,89.2639954 98.54,90.192 L93.26,102.408 L92.948,102.408 L87.644,90.192 C87.243998,89.2639954 86.9040014,88.6840012 86.624,88.452 C86.3439986,88.2199988 85.7320047,88.104 84.788,88.104 L84.788,87.6 L91.436,87.6 L91.436,88.104 C90.443995,88.104 89.8080014,88.2439986 89.528,88.524 C89.2479986,88.8040014 89.2599985,89.2719967 89.564,89.928 L93.644,99.264 L97.676,89.928 C97.9800015,89.2719967 97.9920014,88.8040014 97.712,88.524 C97.4319986,88.2439986 96.796005,88.104 95.804,88.104 L95.804,87.6 L101.396,87.6 L101.396,88.104 Z" id="0V" fill="#524740" fill-rule="nonzero"></path>
                <path d="M416.452,114.6 L416.668,117.84 L416.164,117.84 L416.044,117.36 C415.851999,116.639996 415.596002,116.156001 415.276,115.908 C414.955998,115.659999 414.284005,115.536 413.26,115.536 L410.116,115.536 L410.116,125.688 C410.116,126.888006 410.251999,127.655998 410.524,127.992 C410.796001,128.328002 411.427995,128.496 412.42,128.496 L412.42,129 L405.916,129 L405.916,128.496 C406.908005,128.496 407.539999,128.328002 407.812,127.992 C408.084001,127.655998 408.22,126.888006 408.22,125.688 L408.22,115.536 L405.076,115.536 C404.051995,115.536 403.380002,115.659999 403.06,115.908 C402.739998,116.156001 402.484001,116.639996 402.292,117.36 L402.172,117.84 L401.668,117.84 L401.884,114.6 L416.452,114.6 Z M423.268,129 L417.772,129 L417.772,128.496 C418.572004,128.496 419.087999,128.328002 419.32,127.992 C419.552001,127.655998 419.668,126.888006 419.668,125.688 L419.668,124.488 C419.668,123.303994 419.552001,122.544002 419.32,122.208 C419.087999,121.871998 418.572004,121.704 417.772,121.704 L417.772,121.2 L421.372,120.6 L421.372,125.688 C421.372,126.888006 421.487999,127.655998 421.72,127.992 C421.952001,128.328002 422.467996,128.496 423.268,128.496 L423.268,129 Z M421.564,117.168 C421.564,117.472002 421.460001,117.727999 421.252,117.936 C421.043999,118.144001 420.796001,118.248 420.508,118.248 C420.219999,118.248 419.972001,118.144001 419.764,117.936 C419.555999,117.727999 419.452,117.472002 419.452,117.168 C419.452,116.879999 419.555999,116.632001 419.764,116.424 C419.972001,116.215999 420.219999,116.112 420.508,116.112 C420.796001,116.112 421.043999,116.215999 421.252,116.424 C421.460001,116.632001 421.564,116.879999 421.564,117.168 Z M434.116,124.128 L434.116,125.688 C434.116,126.952006 434.199999,127.735998 434.368,128.04 C434.536001,128.344002 434.955997,128.496 435.628,128.496 L435.628,129 L430.924,129 L430.924,128.496 C431.596003,128.496 432.015999,128.344002 432.184,128.04 C432.352001,127.735998 432.436,126.952006 432.436,125.688 L432.436,124.296 C432.436,122.583991 431.860006,121.728 430.708,121.728 C430.211998,121.728 429.676003,121.959998 429.1,122.424 C428.523997,122.888002 428.236,123.455997 428.236,124.128 L428.236,125.688 C428.236,126.936006 428.319999,127.715998 428.488,128.028 C428.656001,128.340002 429.067997,128.496 429.724,128.496 L429.724,129 L424.636,129 L424.636,128.496 C425.436004,128.496 425.951999,128.328002 426.184,127.992 C426.416001,127.655998 426.532,126.888006 426.532,125.688 L426.532,124.488 C426.532,123.303994 426.416001,122.544002 426.184,122.208 C425.951999,121.871998 425.436004,121.704 424.636,121.704 L424.636,121.2 L427.828,120.6 C427.972001,120.904002 428.107999,121.479996 428.236,122.328 C429.148005,121.175994 430.187994,120.6 431.356,120.6 C432.684007,120.6 433.531998,121.199994 433.9,122.4 C434.220002,121.951998 434.695997,121.540002 435.328,121.164 C435.960003,120.787998 436.603997,120.6 437.26,120.6 C439.100009,120.6 440.02,121.791988 440.02,124.176 L440.02,125.688 C440.02,126.888006 440.135999,127.655998 440.368,127.992 C440.600001,128.328002 441.115996,128.496 441.916,128.496 L441.916,129 L436.828,129 L436.828,128.496 C437.500003,128.496 437.915999,128.344002 438.076,128.04 C438.236001,127.735998 438.316,126.952006 438.316,125.688 L438.316,124.296 C438.316,122.583991 437.748006,121.728 436.612,121.728 C436.115998,121.728 435.576003,121.959998 434.992,122.424 C434.407997,122.888002 434.116,123.455997 434.116,124.128 Z M445.612,123.504 L449.596,123.504 C449.756001,123.055998 449.688001,122.620002 449.392,122.196 C449.095999,121.771998 448.588004,121.56 447.868,121.56 C447.355997,121.56 446.896002,121.735998 446.488,122.088 C446.079998,122.440002 445.788001,122.911997 445.612,123.504 Z M445.468,124.392 C445.323999,125.576006 445.511997,126.539996 446.032,127.284 C446.552003,128.028004 447.403994,128.4 448.588,128.4 C448.988002,128.4 449.443997,128.296001 449.956,128.088 C450.468003,127.879999 450.891998,127.616002 451.228,127.296 L451.66,127.824 C451.227998,128.288002 450.676003,128.667999 450.004,128.964 C449.331997,129.260001 448.660003,129.408 447.988,129.408 C446.691994,129.408 445.628004,128.980004 444.796,128.124 C443.963996,127.267996 443.548,126.224006 443.548,124.992 C443.548,123.759994 443.999995,122.720004 444.904,121.872 C445.808005,121.023996 446.835994,120.6 447.988,120.6 C449.076005,120.6 449.963997,120.979996 450.652,121.74 C451.340003,122.500004 451.540001,123.383995 451.252,124.392 L445.468,124.392 Z" id="Time" fill="#524740" fill-rule="nonzero"></path>
                <path d="M17.56,45.104 C16.6159953,45.104 16.0040014,45.2199988 15.724,45.452 C15.4439986,45.6840012 15.104002,46.2639954 14.704,47.192 L9.424,59.408 L9.112,59.408 L3.808,47.192 C3.407998,46.2639954 3.0680014,45.6840012 2.788,45.452 C2.5079986,45.2199988 1.89600472,45.104 0.952,45.104 L0.952,44.6 L7.6,44.6 L7.6,45.104 C6.60799504,45.104 5.9720014,45.2439986 5.692,45.524 C5.4119986,45.8040014 5.42399848,46.2719967 5.728,46.928 L9.808,56.264 L13.84,46.928 C14.1440015,46.2719967 14.1560014,45.8040014 13.876,45.524 C13.5959986,45.2439986 12.960005,45.104 11.968,45.104 L11.968,44.6 L17.56,44.6 L17.56,45.104 Z M26.08,51.896 C27.0400048,52.7440042 27.52,53.7759939 27.52,54.992 C27.52,56.2080061 27.0440048,57.2479957 26.092,58.112 C25.1399952,58.9760043 24.0000066,59.408 22.672,59.408 C21.3439934,59.408 20.2040048,58.9760043 19.252,58.112 C18.2999952,57.2479957 17.824,56.2080061 17.824,54.992 C17.824,53.7759939 18.2999952,52.7400043 19.252,51.884 C20.2040048,51.0279957 21.3439934,50.6 22.672,50.6 C24.0000066,50.6 25.1359953,51.0319957 26.08,51.896 Z M24.832,57.512 C25.3280025,56.8559967 25.576,56.0160051 25.576,54.992 C25.576,53.9679949 25.3280025,53.1320032 24.832,52.484 C24.3359975,51.8359968 23.6160047,51.512 22.672,51.512 C21.7279953,51.512 21.0080025,51.8399967 20.512,52.496 C20.0159975,53.1520033 19.768,53.983995 19.768,54.992 C19.768,56.000005 20.0159975,56.8319967 20.512,57.488 C21.0080025,58.1440033 21.7279953,58.472 22.672,58.472 C23.6160047,58.472 24.3359975,58.1520032 24.832,57.512 Z M34.624,59 L29.128,59 L29.128,58.496 C29.928004,58.496 30.4439988,58.3280017 30.676,57.992 C30.9080012,57.6559983 31.024,56.888006 31.024,55.688 L31.024,48.104 C31.024,46.903994 30.9080012,46.1360017 30.676,45.8 C30.4439988,45.4639983 29.928004,45.296 29.128,45.296 L29.128,44.792 L32.728,44.192 L32.728,55.688 C32.728,56.888006 32.8439988,57.6559983 33.076,57.992 C33.3080012,58.3280017 33.823996,58.496 34.624,58.496 L34.624,59 Z M37.024,51.848 L35.776,51.848 L35.776,51.272 C36.4640034,51.1279993 36.9679984,50.8160024 37.288,50.336 C37.6080016,49.8559976 37.8159995,49.2000042 37.912,48.368 L38.728,48.368 L38.728,51.008 L40.816,51.008 L40.816,51.848 L38.728,51.848 L38.728,56.648 C38.728,57.8000058 39.0879964,58.376 39.808,58.376 C40.2720023,58.376 40.7919971,58.1040027 41.368,57.56 L41.776,57.968 C41.4399983,58.368002 41.0360024,58.6959987 40.564,58.952 C40.0919976,59.2080013 39.656002,59.336 39.256,59.336 C38.5679966,59.336 38.024002,59.1120022 37.624,58.664 C37.223998,58.2159978 37.024,57.5440045 37.024,56.648 L37.024,51.848 Z M51.472,58.52 C51.0079977,59.0160025 50.480003,59.264 49.888,59.264 C48.9279952,59.264 48.3840006,58.8000046 48.256,57.872 C47.1839946,58.8320048 46.1840046,59.312 45.256,59.312 C44.647997,59.312 44.1360021,59.1320018 43.72,58.772 C43.3039979,58.4119982 43.096,57.9200031 43.096,57.296 C43.096,55.6159916 44.799983,54.480003 48.208,53.888 C48.208,52.9439953 48.104001,52.2880018 47.896,51.92 C47.687999,51.5519982 47.2560033,51.368 46.6,51.368 C46.2799984,51.368 45.9720015,51.471999 45.676,51.68 C45.3799985,51.888001 45.232,52.1679982 45.232,52.52 C45.232,52.7600012 45.1520008,52.9599992 44.992,53.12 C44.8319992,53.2800008 44.6400011,53.36 44.416,53.36 C44.1759988,53.36 43.9760008,53.2800008 43.816,53.12 C43.6559992,52.9599992 43.576,52.7600012 43.576,52.52 C43.576,51.9599972 43.8839969,51.5000018 44.5,51.14 C45.1160031,50.7799982 45.823996,50.6 46.624,50.6 C47.7920058,50.6 48.6319974,50.8559974 49.144,51.368 C49.6560026,51.8800026 49.912,52.7119942 49.912,53.864 L49.912,57.488 C49.912,58.1120031 50.0959982,58.424 50.464,58.424 C50.672001,58.424 50.8959988,58.3040012 51.136,58.064 L51.472,58.52 Z M48.208,57.08 L48.208,54.632 C45.999989,55.1440026 44.896,55.9359946 44.896,57.008 C44.896,57.3760018 45.0039989,57.6719989 45.22,57.896 C45.4360011,58.1200011 45.7039984,58.232 46.024,58.232 C46.616003,58.232 47.3439957,57.8480038 48.208,57.08 Z M57.712,55.664 C58.0160015,55.1999977 58.168,54.6000037 58.168,53.864 C58.168,53.1279963 58.0200015,52.5280023 57.724,52.064 C57.4279985,51.5999977 57.0000028,51.368 56.44,51.368 C55.8799972,51.368 55.4480015,51.5999977 55.144,52.064 C54.8399985,52.5280023 54.688,53.1279963 54.688,53.864 C54.688,54.6000037 54.8399985,55.1959977 55.144,55.652 C55.4480015,56.1080023 55.8799972,56.336 56.44,56.336 C57.0000028,56.336 57.4239986,56.1120022 57.712,55.664 Z M54.208,58.136 C54.208,58.6160024 54.9359927,58.9199994 56.392,59.048 C57.9280077,59.1760006 59.0399966,59.5279971 59.728,60.104 C60.4160034,60.6800029 60.76,61.3759959 60.76,62.192 C60.76,63.1680049 60.356004,63.9479971 59.548,64.532 C58.739996,65.1160029 57.7280061,65.408 56.512,65.408 C55.2159935,65.408 54.172004,65.1400027 53.38,64.604 C52.587996,64.0679973 52.2239997,63.4400036 52.288,62.72 C52.3520003,61.9999964 52.8639952,61.3920025 53.824,60.896 L54.256,61.16 C53.7919977,61.6880026 53.5440002,62.1719978 53.512,62.612 C53.4799998,63.0520022 53.6199984,63.3999987 53.932,63.656 C54.2440016,63.9120013 54.6279977,64.1119993 55.084,64.256 C55.5400023,64.4000007 56.0159975,64.472 56.512,64.472 C57.2960039,64.472 57.987997,64.3000017 58.588,63.956 C59.188003,63.6119983 59.488,63.1680027 59.488,62.624 C59.488,62.0959974 59.2280026,61.7120012 58.708,61.472 C58.1879974,61.2319988 57.3760055,61.0560006 56.272,60.944 C53.9999886,60.7199989 52.864,59.9760063 52.864,58.712 C52.864,57.8479957 53.5359933,57.2080021 54.88,56.792 C54.2559969,56.5039986 53.7640018,56.1040026 53.404,55.592 C53.0439982,55.0799974 52.864,54.5040032 52.864,53.864 C52.864,52.9679955 53.2119965,52.2000032 53.908,51.56 C54.6040035,50.9199968 55.447995,50.6 56.44,50.6 C57.4000048,50.6 58.2239966,50.903997 58.912,51.512 C59.120001,51.2559987 59.4039982,51.0400009 59.764,50.864 C60.1240018,50.6879991 60.4399986,50.6 60.712,50.6 C61.4160035,50.6 61.863999,50.895997 62.056,51.488 C62.2000007,51.9360022 62.1280014,52.2719989 61.84,52.496 C61.7439995,52.5760004 61.6320006,52.616 61.504,52.616 C61.2639988,52.6320001 61.0840006,52.5840006 60.964,52.472 C60.8439994,52.3599994 60.7720001,52.2360007 60.748,52.1 C60.7239999,51.9639993 60.6600005,51.8360006 60.556,51.716 C60.4519995,51.5959994 60.2880011,51.536 60.064,51.536 C59.8239988,51.536 59.5760013,51.6639987 59.32,51.92 C59.7840023,52.4800028 60.016,53.1279963 60.016,53.864 C60.016,54.7120042 59.7040031,55.439997 59.08,56.048 C58.4559969,56.656003 57.7280042,57.0159994 56.896,57.128 C55.103991,57.336001 54.208,57.6719977 54.208,58.136 Z M65.224,53.504 L69.208,53.504 C69.3680008,53.0559978 69.3000015,52.6200021 69.004,52.196 C68.7079985,51.7719979 68.2000036,51.56 67.48,51.56 C66.9679974,51.56 66.508002,51.7359982 66.1,52.088 C65.691998,52.4400018 65.4000009,52.911997 65.224,53.504 Z M65.08,54.392 C64.9359993,55.5760059 65.1239974,56.5399963 65.644,57.284 C66.1640026,58.0280037 67.0159941,58.4 68.2,58.4 C68.600002,58.4 69.0559974,58.296001 69.568,58.088 C70.0800026,57.879999 70.5039983,57.6160016 70.84,57.296 L71.272,57.824 C70.8399978,58.2880023 70.2880034,58.6679985 69.616,58.964 C68.9439966,59.2600015 68.2720034,59.408 67.6,59.408 C66.3039935,59.408 65.2400042,58.9800043 64.408,58.124 C63.5759958,57.2679957 63.16,56.2240062 63.16,54.992 C63.16,53.7599938 63.6119955,52.7200042 64.516,51.872 C65.4200045,51.0239958 66.4479942,50.6 67.6,50.6 C68.6880054,50.6 69.5759966,50.9799962 70.264,51.74 C70.9520034,52.5000038 71.1520014,53.383995 70.864,54.392 L65.08,54.392 Z" id="Voltage" fill="#524740" fill-rule="nonzero"></path>
            </g>
            <g id="Signal" transform="translate(117.000000, 18.000000)">
                <path d="M1,81 L101,81" id="Line" stroke="#EF7D3B" stroke-width="5" stroke-linecap="square"></path>
                <path d="M101,4.4199765 L101,81" id="Line-Copy-7" stroke="#EF7D3B" stroke-width="5" stroke-linecap="square"></path>
                <path d="M201,4.4199765 L201,81" id="Line-Copy-9" stroke="#EF7D3B" stroke-width="5" stroke-linecap="square"></path>
                <path d="M301,4.4199765 L301,81" id="Line-Copy-10" stroke="#EF7D3B" stroke-width="5" stroke-linecap="square"></path>
                <path d="M401,4.4199765 L401,81" id="Line-Copy-11" stroke="#EF7D3B" stroke-width="5" stroke-linecap="square"></path>
                <path d="M501,4.4199765 L501,81" id="Line-Copy-12" stroke="#EF7D3B" stroke-width="5" stroke-linecap="square"></path>
                <path d="M601,4.4199765 L601,81" id="Line-Copy-13" stroke="#EF7D3B" stroke-width="5" stroke-linecap="square"></path>
                <path d="M101,1 L201,1" id="Line-Copy" stroke="#EF7D3B" stroke-width="5" stroke-linecap="square"></path>
                <path d="M201,81 L301,81" id="Line-Copy-2" stroke="#EF7D3B" stroke-width="5" stroke-linecap="square"></path>
                <path d="M301,1 L401,1" id="Line-Copy-3" stroke="#EF7D3B" stroke-width="5" stroke-linecap="square"></path>
                <path d="M401,81 L501,81" id="Line-Copy-4" stroke="#EF7D3B" stroke-width="5" stroke-linecap="square"></path>
                <path d="M501,1 L601,1" id="Line-Copy-5" stroke="#EF7D3B" stroke-width="5" stroke-linecap="square"></path>
                <path d="M601,81 L701,81" id="Line-Copy-6" stroke="#EF7D3B" stroke-width="5" stroke-linecap="square"></path>
                <path d="M0,40 L702,40" id="Average" stroke="#23ABE3" stroke-width="4"></path>
            </g>
        </g>
    </g>
</svg>