<?xml version="1.0" encoding="UTF-8"?>
<svg width="900px" height="240px" viewBox="0 0 900 240" version="1.1" xmlns="http://www.w3.org/2000/svg" xmlns:xlink="http://www.w3.org/1999/xlink">
    <!-- Generator: Sketch 54.1 (76490) - https://sketchapp.com -->
    <title>50p_2xF_PWM_Signal</title>
    <desc>Created with Sketch.</desc>
    <g id="50p_2xF_PWM_Signal" stroke="none" stroke-width="1" fill="none" fill-rule="evenodd">
        <g id="Illustration_Frame">
            <rect id="Rectangle" stroke="#3D3530" stroke-width="2" fill="#EEEEEE" x="1" y="1" width="898" height="238"></rect>
            <rect id="Rectangle-Copy" stroke="#3D3530" stroke-width="2" fill="#F8FAE4" x="1" y="196" width="898" height="43"></rect>
            <path d="M284.642665,225 L284.642665,208.872 L290.114665,208.872 C291.922674,208.872 293.36266,209.347995 294.434665,210.3 C295.50667,211.252005 296.042665,212.447993 296.042665,213.888 C296.042665,215.312007 295.50667,216.503995 294.434665,217.464 C293.36266,218.424005 291.922674,218.904 290.114665,218.904 L286.226665,218.904 L286.226665,225 L284.642665,225 Z M286.226665,217.392 L290.114665,217.392 C291.410672,217.392 292.450661,217.060003 293.234665,216.396 C294.018669,215.731997 294.410665,214.896005 294.410665,213.888 C294.410665,212.895995 294.018669,212.064003 293.234665,211.392 C292.450661,210.719997 291.410672,210.384 290.114665,210.384 L286.226665,210.384 L286.226665,217.392 Z M321.165332,208.872 L322.797332,208.872 L317.229332,225 L315.597332,225 L310.845332,211.032 L306.069332,225 L304.461332,225 L298.869332,208.872 L300.501332,208.872 L305.277332,222.552 L310.101332,208.872 L311.565332,208.872 L316.413332,222.552 L321.165332,208.872 Z M343.983999,225 L342.399999,225 L339.303999,211.824 L335.127999,225 L334.071999,225 L329.919999,211.824 L326.823999,225 L325.239999,225 L328.959999,208.872 L330.399999,208.872 L334.623999,221.784 L338.799999,208.872 L340.263999,208.872 L343.983999,225 Z M359.285332,225.192 C358.213327,225.192 357.177337,224.920003 356.177332,224.376 C355.177327,223.831997 354.421334,223.288003 353.909332,222.744 L355.013332,221.664 C355.413334,222.096002 356.005328,222.539998 356.789332,222.996 C357.573336,223.452002 358.405328,223.68 359.285332,223.68 C360.357337,223.68 361.201329,223.444002 361.817332,222.972 C362.433335,222.499998 362.741332,221.856004 362.741332,221.04 C362.741332,220.351997 362.441335,219.752003 361.841332,219.24 C361.241329,218.727997 360.513336,218.296002 359.657332,217.944 C358.801328,217.591998 357.941336,217.220002 357.077332,216.828 C356.213328,216.435998 355.481335,215.904003 354.881332,215.232 C354.281329,214.559997 353.981332,213.768005 353.981332,212.856 C353.981332,211.687994 354.421328,210.704004 355.301332,209.904 C356.181336,209.103996 357.413324,208.704 358.997332,208.704 C360.069337,208.704 361.105327,208.975997 362.105332,209.52 C363.105337,210.064003 363.861329,210.607997 364.373332,211.152 L363.269332,212.232 C362.85333,211.783998 362.253336,211.336002 361.469332,210.888 C360.685328,210.439998 359.861336,210.216 358.997332,210.216 C357.925327,210.216 357.081335,210.451998 356.465332,210.924 C355.849329,211.396002 355.541332,212.039996 355.541332,212.856 C355.541332,213.544003 355.841329,214.147997 356.441332,214.668 C357.041335,215.188003 357.769328,215.623998 358.625332,215.976 C359.481336,216.328002 360.341328,216.695998 361.205332,217.08 C362.069336,217.464002 362.801329,217.991997 363.401332,218.664 C364.001335,219.336003 364.301332,220.127995 364.301332,221.04 C364.301332,222.208006 363.861336,223.191996 362.981332,223.992 C362.101328,224.792004 360.86934,225.192 359.285332,225.192 Z M369.623999,209.4 C369.447998,209.592001 369.224,209.688 368.951999,209.688 C368.679997,209.688 368.452,209.592001 368.267999,209.4 C368.083998,209.207999 367.991999,208.984001 367.991999,208.728 C367.991999,208.471999 368.083998,208.248001 368.267999,208.056 C368.452,207.863999 368.679997,207.768 368.951999,207.768 C369.224,207.768 369.451998,207.863999 369.635999,208.056 C369.82,208.248001 369.911999,208.471999 369.911999,208.728 C369.911999,208.984001 369.816,209.207999 369.623999,209.4 Z M368.159999,225 L368.159999,213 L369.743999,213 L369.743999,225 L368.159999,225 Z M384.258665,213.024 L385.866665,213.024 L385.866665,223.968 C385.850665,225.712009 385.222672,227.171994 383.982665,228.348 C382.742659,229.524006 381.306673,230.112 379.674665,230.112 C378.186658,230.112 376.918671,229.716004 375.870665,228.924 C374.82266,228.131996 374.114667,227.240005 373.746665,226.248 L375.042665,225.6 C375.346667,226.416004 375.922661,227.127997 376.770665,227.736 C377.61867,228.344003 378.58666,228.648 379.674665,228.648 C380.954672,228.648 382.038661,228.180005 382.926665,227.244 C383.81467,226.307995 384.266665,225.216006 384.282665,223.968 L384.258665,223.968 L384.258665,223.08 C383.042659,224.504007 381.482675,225.216 379.578665,225.216 C377.866657,225.216 376.406671,224.612006 375.198665,223.404 C373.990659,222.195994 373.386665,220.736009 373.386665,219.024 C373.386665,217.311991 373.990659,215.852006 375.198665,214.644 C376.406671,213.435994 377.866657,212.832 379.578665,212.832 C381.466675,212.832 383.026659,213.543993 384.258665,214.968 L384.258665,213.024 Z M379.602665,223.728 C380.898672,223.728 381.990661,223.276005 382.878665,222.372 C383.76667,221.467995 384.210665,220.360007 384.210665,219.048 C384.210665,217.735993 383.76667,216.628005 382.878665,215.724 C381.990661,214.819995 380.898672,214.368 379.602665,214.368 C378.322659,214.368 377.23467,214.819995 376.338665,215.724 C375.442661,216.628005 374.994665,217.735993 374.994665,219.048 C374.994665,220.360007 375.442661,221.467995 376.338665,222.372 C377.23467,223.276005 378.322659,223.728 379.602665,223.728 Z M394.957332,212.808 C396.349339,212.808 397.517327,213.299995 398.461332,214.284 C399.405337,215.268005 399.877332,216.479993 399.877332,217.92 L399.877332,225 L398.269332,225 L398.269332,217.968 C398.269332,216.943995 397.921335,216.072004 397.225332,215.352 C396.529329,214.631996 395.685337,214.272 394.693332,214.272 C393.701327,214.272 392.857335,214.631996 392.161332,215.352 C391.465329,216.072004 391.117332,216.943995 391.117332,217.968 L391.117332,225 L389.533332,225 L389.533332,213 L391.117332,213 L391.117332,214.776 C392.093337,213.463993 393.373324,212.808 394.957332,212.808 Z M413.671999,213 L415.255999,213 L415.255999,225 L413.671999,225 L413.671999,223.056 C412.439993,224.480007 410.880008,225.192 408.991999,225.192 C407.27999,225.192 405.820005,224.588006 404.611999,223.38 C403.403993,222.171994 402.799999,220.712009 402.799999,219 C402.799999,217.287991 403.403993,215.828006 404.611999,214.62 C405.820005,213.411994 407.27999,212.808 408.991999,212.808 C410.896008,212.808 412.455993,213.519993 413.671999,214.944 L413.671999,213 Z M409.015999,223.68 C410.312005,223.68 411.403994,223.228005 412.291999,222.324 C413.180003,221.419995 413.623999,220.312007 413.623999,219 C413.623999,217.687993 413.180003,216.580005 412.291999,215.676 C411.403994,214.771995 410.312005,214.32 409.015999,214.32 C407.735992,214.32 406.644003,214.771995 405.739999,215.676 C404.835994,216.580005 404.383999,217.687993 404.383999,219 C404.383999,220.312007 404.835994,221.419995 405.739999,222.324 C406.644003,223.228005 407.735992,223.68 409.015999,223.68 Z M419.306665,225 L419.306665,207.144 L420.890665,207.144 L420.890665,225 L419.306665,225 Z M448.071999,213 L449.655999,213 L445.407999,225 L443.823999,225 L440.439999,215.112 L437.055999,225 L435.471999,225 L431.247999,213 L432.831999,213 L436.263999,222.768 L439.719999,213 L441.159999,213 L444.615999,222.768 L448.071999,213 Z M454.114666,209.4 C453.938665,209.592001 453.714667,209.688 453.442666,209.688 C453.170664,209.688 452.942666,209.592001 452.758666,209.4 C452.574665,209.207999 452.482666,208.984001 452.482666,208.728 C452.482666,208.471999 452.574665,208.248001 452.758666,208.056 C452.942666,207.863999 453.170664,207.768 453.442666,207.768 C453.714667,207.768 453.942665,207.863999 454.126666,208.056 C454.310666,208.248001 454.402666,208.471999 454.402666,208.728 C454.402666,208.984001 454.306666,209.207999 454.114666,209.4 Z M452.650666,225 L452.650666,213 L454.234666,213 L454.234666,225 L452.650666,225 Z M464.717332,222.312 L465.509332,223.536 C465.413332,223.664001 465.285333,223.815999 465.125332,223.992 C464.965331,224.168001 464.605335,224.411998 464.045332,224.724 C463.485329,225.036002 462.909335,225.192 462.317332,225.192 C461.309327,225.192 460.465336,224.892003 459.785332,224.292 C459.105329,223.691997 458.765332,222.824006 458.765332,221.688 L458.765332,214.44 L456.845332,214.44 L456.845332,212.976 L458.765332,212.976 L458.765332,209.184 L460.349332,208.992 L460.349332,212.976 L463.973332,212.976 L463.973332,214.44 L460.349332,214.44 L460.349332,221.328 C460.349332,222.064004 460.57733,222.647998 461.033332,223.08 C461.489334,223.512002 462.013329,223.728 462.605332,223.728 C462.973334,223.728 463.33333,223.616001 463.685332,223.392 C464.037334,223.167999 464.297331,222.948001 464.465332,222.732 C464.633333,222.515999 464.717332,222.376 464.717332,222.312 Z M473.519999,212.808 C474.912006,212.808 476.079994,213.307995 477.023999,214.308 C477.968004,215.308005 478.439999,216.527993 478.439999,217.968 L478.439999,225 L476.831999,225 L476.831999,217.992 C476.831999,216.951995 476.488002,216.076004 475.799999,215.364 C475.111995,214.651996 474.264004,214.296 473.255999,214.296 C472.263994,214.296 471.420002,214.651996 470.723999,215.364 C470.027995,216.076004 469.679999,216.943995 469.679999,217.968 L469.679999,225 L468.095999,225 L468.095999,207.144 L469.679999,207.144 L469.679999,214.776 C470.656004,213.463993 471.935991,212.808 473.519999,212.808 Z M494.917332,225.192 C493.733326,225.192 492.637337,224.856003 491.629332,224.184 C490.621327,223.511997 489.949334,222.728004 489.613332,221.832 L491.005332,221.16 C491.181333,221.720003 491.645329,222.279997 492.397332,222.84 C493.149336,223.400003 493.989328,223.68 494.917332,223.68 C495.989338,223.68 496.921328,223.340003 497.713332,222.66 C498.505336,221.979997 498.901332,221.072006 498.901332,219.936 C498.901332,218.767994 498.517336,217.816004 497.749332,217.08 C496.981328,216.343996 496.085337,215.976 495.061332,215.976 C494.197328,215.976 493.385336,216.139998 492.625332,216.468 C491.865329,216.796002 491.373333,217.103999 491.149332,217.392 L489.805332,216.84 L489.805332,208.872 L500.101332,208.872 L500.101332,210.456 L491.389332,210.456 L491.389332,215.4 C492.317337,214.775997 493.541325,214.464 495.061332,214.464 C496.54934,214.464 497.825327,214.963995 498.889332,215.964 C499.953338,216.964005 500.485332,218.279992 500.485332,219.912 C500.485332,221.544008 499.957338,222.831995 498.901332,223.776 C497.845327,224.720005 496.51734,225.192 494.917332,225.192 Z M512.023999,224.568 C511.255995,224.984002 510.360004,225.192 509.335999,225.192 C508.311994,225.192 507.412003,224.980002 506.635999,224.556 C505.859995,224.131998 505.236001,223.540004 504.763999,222.78 C504.291997,222.019996 503.94,221.152005 503.707999,220.176 C503.475998,219.199995 503.359999,218.128006 503.359999,216.96 C503.359999,214.527988 503.855994,212.544008 504.847999,211.008 C505.840004,209.471992 507.335989,208.704 509.335999,208.704 C511.336009,208.704 512.831994,209.471992 513.823999,211.008 C514.816004,212.544008 515.311999,214.527988 515.311999,216.96 C515.311999,218.128006 515.196,219.199995 514.963999,220.176 C514.731998,221.152005 514.380001,222.019996 513.907999,222.78 C513.435997,223.540004 512.808003,224.135998 512.023999,224.568 Z M506.023999,221.856 C506.760003,223.088006 507.863992,223.704 509.335999,223.704 C510.808006,223.704 511.907995,223.084006 512.635999,221.844 C513.364003,220.603994 513.727999,218.97601 513.727999,216.96 C513.727999,214.94399 513.364003,213.316006 512.635999,212.076 C511.907995,210.835994 510.808006,210.216 509.335999,210.216 C507.863992,210.216 506.764003,210.835994 506.035999,212.076 C505.307995,213.316006 504.943999,214.94399 504.943999,216.96 C504.943999,218.97601 505.303995,220.607994 506.023999,221.856 Z M523.874666,216.456 C523.186662,217.160004 522.346671,217.512 521.354666,217.512 C520.362661,217.512 519.518669,217.160004 518.822666,216.456 C518.126662,215.751996 517.778666,214.912005 517.778666,213.936 C517.778666,212.959995 518.126662,212.120004 518.822666,211.416 C519.518669,210.711996 520.362661,210.36 521.354666,210.36 C522.346671,210.36 523.190662,210.711996 523.886666,211.416 C524.582669,212.120004 524.930666,212.959995 524.930666,213.936 C524.930666,214.912005 524.578669,215.751996 523.874666,216.456 Z M519.314666,225 L530.498666,210.552 L532.034666,210.552 L520.874666,225 L519.314666,225 Z M519.698666,215.568 C520.162668,216.032002 520.714663,216.264 521.354666,216.264 C521.994669,216.264 522.542663,216.036002 522.998666,215.58 C523.454668,215.123998 523.682666,214.576003 523.682666,213.936 C523.682666,213.295997 523.454668,212.748002 522.998666,212.292 C522.542663,211.835998 521.994669,211.608 521.354666,211.608 C520.714663,211.608 520.166668,211.843998 519.710666,212.316 C519.254663,212.788002 519.026666,213.327997 519.026666,213.936 C519.026666,214.560003 519.250663,215.103998 519.698666,215.568 Z M529.994666,225.192 C529.018661,225.192 528.182669,224.844003 527.486666,224.148 C526.790662,223.451997 526.442666,222.608005 526.442666,221.616 C526.442666,220.639995 526.786662,219.804003 527.474666,219.108 C528.162669,218.411997 529.002661,218.064 529.994666,218.064 C530.986671,218.064 531.830662,218.407997 532.526666,219.096 C533.222669,219.784003 533.570666,220.623995 533.570666,221.616 C533.570666,222.608005 533.222669,223.451997 532.526666,224.148 C531.830662,224.844003 530.986671,225.192 529.994666,225.192 Z M529.994666,223.896 C530.618669,223.896 531.158663,223.672002 531.614666,223.224 C532.070668,222.775998 532.298666,222.240003 532.298666,221.616 C532.298666,220.975997 532.074668,220.436002 531.626666,219.996 C531.178663,219.555998 530.634669,219.336 529.994666,219.336 C529.354663,219.336 528.814668,219.559998 528.374666,220.008 C527.934664,220.456002 527.714666,220.991997 527.714666,221.616 C527.714666,222.240003 527.942663,222.775998 528.398666,223.224 C528.854668,223.672002 529.386663,223.896 529.994666,223.896 Z M544.287999,225 L544.287999,208.872 L547.935999,208.872 C550.592012,208.872 552.703991,209.639992 554.271999,211.176 C555.840007,212.712008 556.623999,214.631988 556.623999,216.936 C556.623999,219.224011 555.836007,221.139992 554.259999,222.684 C552.683991,224.228008 550.576012,225 547.935999,225 L544.287999,225 Z M545.871999,223.488 L547.935999,223.488 C550.04801,223.488 551.735993,222.868006 552.999999,221.628 C554.264005,220.387994 554.895999,218.824009 554.895999,216.936 C554.895999,215.047991 554.264005,213.484006 552.999999,212.244 C551.735993,211.003994 550.04801,210.384 547.935999,210.384 L545.871999,210.384 L545.871999,223.488 Z M568.378666,213 L569.962666,213 L569.962666,225 L568.378666,225 L568.378666,223.224 C567.402661,224.536007 566.122674,225.192 564.538666,225.192 C563.146659,225.192 561.978671,224.700005 561.034666,223.716 C560.090661,222.731995 559.618666,221.520007 559.618666,220.08 L559.618666,213 L561.250666,213 L561.250666,220.032 C561.250666,221.056005 561.594662,221.923996 562.282666,222.636 C562.970669,223.348004 563.810661,223.704 564.802666,223.704 C565.810671,223.704 566.658662,223.348004 567.346666,222.636 C568.034669,221.923996 568.378666,221.056005 568.378666,220.032 L568.378666,213 Z M580.637333,222.312 L581.429333,223.536 C581.333332,223.664001 581.205333,223.815999 581.045333,223.992 C580.885332,224.168001 580.525335,224.411998 579.965333,224.724 C579.40533,225.036002 578.829335,225.192 578.237333,225.192 C577.229327,225.192 576.385336,224.892003 575.705333,224.292 C575.025329,223.691997 574.685333,222.824006 574.685333,221.688 L574.685333,214.44 L572.765333,214.44 L572.765333,212.976 L574.685333,212.976 L574.685333,209.184 L576.269333,208.992 L576.269333,212.976 L579.893333,212.976 L579.893333,214.44 L576.269333,214.44 L576.269333,221.328 C576.269333,222.064004 576.49733,222.647998 576.953333,223.08 C577.409335,223.512002 577.93333,223.728 578.525333,223.728 C578.893334,223.728 579.253331,223.616001 579.605333,223.392 C579.957334,223.167999 580.217332,222.948001 580.385333,222.732 C580.553333,222.515999 580.637333,222.376 580.637333,222.312 Z M591.383999,213 L592.967999,213 L586.415999,230.112 L584.831999,230.112 L587.351999,223.536 L582.911999,213 L584.495999,213 L588.095999,221.568 L591.383999,213 Z M610.477333,225.192 C608.109321,225.192 606.22134,224.404008 604.813333,222.828 C603.405326,221.251992 602.701333,219.296012 602.701333,216.96 C602.701333,214.607988 603.405326,212.644008 604.813333,211.068 C606.22134,209.491992 608.109321,208.704 610.477333,208.704 C612.04534,208.704 613.409327,209.063996 614.569333,209.784 C615.729338,210.504004 616.629329,211.487994 617.269333,212.736 L615.781333,213.6 C615.26933,212.559995 614.553337,211.736003 613.633333,211.128 C612.713328,210.519997 611.661339,210.216 610.477333,210.216 C608.653323,210.216 607.193338,210.851994 606.097333,212.124 C605.001327,213.396006 604.453333,215.00799 604.453333,216.96 C604.453333,218.89601 605.001327,220.503994 606.097333,221.784 C607.193338,223.064006 608.653323,223.704 610.477333,223.704 C611.677339,223.704 612.737328,223.396003 613.657333,222.78 C614.577337,222.163997 615.28533,221.336005 615.781333,220.296 L617.269333,221.184 C616.629329,222.432006 615.729338,223.411996 614.569333,224.124 C613.409327,224.836004 612.04534,225.192 610.477333,225.192 Z M628.015999,213 L629.599999,213 L623.047999,230.112 L621.463999,230.112 L623.983999,223.536 L619.543999,213 L621.127999,213 L624.727999,221.568 L628.015999,213 Z M637.490666,225.192 C635.778657,225.192 634.318672,224.588006 633.110666,223.38 C631.90266,222.171994 631.298666,220.712009 631.298666,219 C631.298666,217.287991 631.90266,215.828006 633.110666,214.62 C634.318672,213.411994 635.778657,212.808 637.490666,212.808 C638.578671,212.808 639.590661,213.075997 640.526666,213.612 C641.462671,214.148003 642.202663,214.863996 642.746666,215.76 L641.306666,216.456 C640.874664,215.799997 640.322669,215.280002 639.650666,214.896 C638.978663,214.511998 638.25867,214.32 637.490666,214.32 C636.19466,214.32 635.10267,214.771995 634.214666,215.676 C633.326662,216.580005 632.882666,217.687993 632.882666,219 C632.882666,220.312007 633.326662,221.419995 634.214666,222.324 C635.10267,223.228005 636.19466,223.68 637.490666,223.68 C638.25867,223.68 638.978663,223.488002 639.650666,223.104 C640.322669,222.719998 640.874664,222.200003 641.306666,221.544 L642.746666,222.24 C642.202663,223.136004 641.462671,223.851997 640.526666,224.388 C639.590661,224.924003 638.578671,225.192 637.490666,225.192 Z M646.221333,225 L646.221333,207.144 L647.805333,207.144 L647.805333,225 L646.221333,225 Z M657.231999,223.608 C658.304005,223.608 659.263995,223.304003 660.111999,222.696 C660.960004,222.087997 661.535998,221.376004 661.839999,220.56 L663.183999,221.04 C662.815998,222.048005 662.100005,222.975996 661.035999,223.824 C659.971994,224.672004 658.704007,225.088 657.231999,225.072 C655.887993,225.072 654.660005,224.656004 653.547999,223.824 C652.435994,222.991996 651.680001,221.928006 651.279999,220.632 C651.119999,220.103997 651.039999,219.528003 651.039999,218.904 C651.039999,217.175991 651.639993,215.712006 652.839999,214.512 C654.040005,213.311994 655.503991,212.704 657.231999,212.688 C658.800007,212.704 660.167994,213.231995 661.335999,214.272 C662.504005,215.312005 663.175999,216.599992 663.351999,218.136 C663.367999,218.216 663.375999,218.319999 663.375999,218.448 L652.887999,220.344 C653.160001,221.304005 653.703995,222.091997 654.519999,222.708 C655.336003,223.324003 656.239994,223.624 657.231999,223.608 Z M657.087999,214.152 C655.887993,214.168 654.860004,214.599996 654.003999,215.448 C653.147995,216.296004 652.688,217.311994 652.623999,218.496 C652.623999,218.544 652.627999,218.627999 652.635999,218.748 C652.643999,218.868001 652.647999,218.968 652.647999,219.048 L661.575999,217.44 C661.271998,216.463995 660.704004,215.668003 659.871999,215.052 C659.039995,214.435997 658.112005,214.136 657.087999,214.152 Z M684.365333,213 L685.949333,213 L685.949333,225 L684.365333,225 L684.365333,223.056 C683.133327,224.480007 681.573342,225.192 679.685333,225.192 C677.973324,225.192 676.513339,224.588006 675.305333,223.38 C674.097327,222.171994 673.493333,220.712009 673.493333,219 C673.493333,217.287991 674.097327,215.828006 675.305333,214.62 C676.513339,213.411994 677.973324,212.808 679.685333,212.808 C681.589342,212.808 683.149327,213.519993 684.365333,214.944 L684.365333,213 Z M679.709333,223.68 C681.005339,223.68 682.097328,223.228005 682.985333,222.324 C683.873337,221.419995 684.317333,220.312007 684.317333,219 C684.317333,217.687993 683.873337,216.580005 682.985333,215.676 C682.097328,214.771995 681.005339,214.32 679.709333,214.32 C678.429326,214.32 677.337337,214.771995 676.433333,215.676 C675.529328,216.580005 675.077333,217.687993 675.077333,219 C675.077333,220.312007 675.529328,221.419995 676.433333,222.324 C677.337337,223.228005 678.429326,223.68 679.709333,223.68 Z M695.28,212.808 C696.672006,212.808 697.839995,213.299995 698.784,214.284 C699.728004,215.268005 700.2,216.479993 700.2,217.92 L700.2,225 L698.592,225 L698.592,217.968 C698.592,216.943995 698.244003,216.072004 697.548,215.352 C696.851996,214.631996 696.008004,214.272 695.016,214.272 C694.023995,214.272 693.180003,214.631996 692.484,215.352 C691.787996,216.072004 691.44,216.943995 691.44,217.968 L691.44,225 L689.856,225 L689.856,213 L691.44,213 L691.44,214.776 C692.416004,213.463993 693.695992,212.808 695.28,212.808 Z M713.994666,207.144 L715.578666,207.144 L715.578666,225 L713.994666,225 L713.994666,223.056 C712.76266,224.480007 711.202676,225.192 709.314666,225.192 C707.602658,225.192 706.142672,224.588006 704.934666,223.38 C703.72666,222.171994 703.122666,220.712009 703.122666,219 C703.122666,217.287991 703.72666,215.828006 704.934666,214.62 C706.142672,213.411994 707.602658,212.808 709.314666,212.808 C711.218676,212.808 712.77866,213.519993 713.994666,214.944 L713.994666,207.144 Z M706.050666,222.336 C706.946671,223.232004 708.04266,223.68 709.338666,223.68 C710.634673,223.68 711.726662,223.228005 712.614666,222.324 C713.502671,221.419995 713.946666,220.312007 713.946666,219 C713.946666,217.687993 713.502671,216.580005 712.614666,215.676 C711.726662,214.771995 710.634673,214.32 709.338666,214.32 C708.04266,214.32 706.946671,214.771995 706.050666,215.676 C705.154662,216.580005 704.706666,217.687993 704.706666,219 C704.706666,220.312007 705.154662,221.423995 706.050666,222.336 Z M727.28,225 L727.136,223.656 C727.184,223.608 727.643995,223.204004 728.516,222.444 C729.388004,221.683996 730.159996,220.980003 730.832,220.332 C731.504003,219.683997 732.263995,218.908005 733.112,218.004 C733.960004,217.099995 734.623997,216.240004 735.104,215.424 C735.584002,214.607996 735.824,213.904003 735.824,213.312 C735.824,212.447996 735.492003,211.716003 734.828,211.116 C734.163996,210.515997 733.336005,210.216 732.344,210.216 C730.679991,210.216 729.320005,211.20799 728.264,213.192 L727.184,212.112 C727.328,211.839999 727.515998,211.552002 727.748,211.248 C727.980001,210.943998 728.311997,210.580002 728.744,210.156 C729.176002,209.731998 729.723996,209.384001 730.388,209.112 C731.052003,208.839999 731.759996,208.704 732.512,208.704 C733.952007,208.704 735.135995,209.155995 736.064,210.06 C736.992004,210.964005 737.456,212.015994 737.456,213.216 C737.456,213.936004 737.244002,214.719996 736.82,215.568 C736.395997,216.416004 735.808003,217.263996 735.056,218.112 C734.303996,218.960004 733.628003,219.679997 733.028,220.272 C732.427997,220.864003 731.716004,221.515996 730.892,222.228 C730.067995,222.940004 729.616,223.336 729.536,223.416 L737.912,223.416 L737.912,225 L727.28,225 Z M751.418666,225 L749.618666,225 L746.258666,220.224 L742.874666,225 L741.098666,225 L745.370666,218.952 L741.170666,213 L742.946666,213 L746.258666,217.68 L749.546666,213 L751.346666,213 L747.146666,218.952 L751.418666,225 Z M770.68,210.456 L763.336,210.456 L763.336,216.168 L768.4,216.168 L768.4,217.752 L763.336,217.752 L763.336,225 L761.752,225 L761.752,208.872 L770.68,208.872 L770.68,210.456 Z M777.874666,212.808 C778.722671,212.808 779.498663,213.015998 780.202666,213.432 L779.650666,215.016 C778.978663,214.519998 778.29867,214.272 777.610666,214.272 C776.602661,214.272 775.75467,214.627996 775.066666,215.34 C774.378663,216.052004 774.034666,216.927995 774.034666,217.968 L774.034666,225 L772.450666,225 L772.450666,213 L774.034666,213 L774.034666,214.776 C775.010671,213.463993 776.290658,212.808 777.874666,212.808 Z M787.517333,223.608 C788.589338,223.608 789.549329,223.304003 790.397333,222.696 C791.245337,222.087997 791.821332,221.376004 792.125333,220.56 L793.469333,221.04 C793.101331,222.048005 792.385338,222.975996 791.321333,223.824 C790.257328,224.672004 788.98934,225.088 787.517333,225.072 C786.173326,225.072 784.945339,224.656004 783.833333,223.824 C782.721328,222.991996 781.965335,221.928006 781.565333,220.632 C781.405332,220.103997 781.325333,219.528003 781.325333,218.904 C781.325333,217.175991 781.925327,215.712006 783.125333,214.512 C784.325339,213.311994 785.789324,212.704 787.517333,212.688 C789.085341,212.704 790.453327,213.231995 791.621333,214.272 C792.789339,215.312005 793.461332,216.599992 793.637333,218.136 C793.653333,218.216 793.661333,218.319999 793.661333,218.448 L783.173333,220.344 C783.445334,221.304005 783.989329,222.091997 784.805333,222.708 C785.621337,223.324003 786.525328,223.624 787.517333,223.608 Z M787.373333,214.152 C786.173327,214.168 785.145337,214.599996 784.289333,215.448 C783.433329,216.296004 782.973333,217.311994 782.909333,218.496 C782.909333,218.544 782.913333,218.627999 782.921333,218.748 C782.929333,218.868001 782.933333,218.968 782.933333,219.048 L791.861333,217.44 C791.557332,216.463995 790.989337,215.668003 790.157333,215.052 C789.325329,214.435997 788.397338,214.136 787.373333,214.152 Z M807.192,212.976 L808.776,212.976 L808.776,230.832 L807.192,230.832 L807.192,223.032 C805.959994,224.456007 804.400009,225.168 802.512,225.168 C800.799991,225.168 799.340006,224.564006 798.132,223.356 C796.923994,222.147994 796.32,220.688009 796.32,218.976 C796.32,217.263991 796.923994,215.804006 798.132,214.596 C799.340006,213.387994 800.799991,212.784 802.512,212.784 C804.400009,212.784 805.959994,213.495993 807.192,214.92 L807.192,212.976 Z M799.248,222.312 C800.144004,223.208004 801.239993,223.656 802.536,223.656 C803.832006,223.656 804.923995,223.204005 805.812,222.3 C806.700004,221.395995 807.144,220.288007 807.144,218.976 C807.144,217.663993 806.700004,216.556005 805.812,215.652 C804.923995,214.747995 803.832006,214.296 802.536,214.296 C801.239993,214.296 800.144004,214.747995 799.248,215.652 C798.351995,216.556005 797.904,217.663993 797.904,218.976 C797.904,220.288007 798.351995,221.399995 799.248,222.312 Z M821.514667,213 L823.098667,213 L823.098667,225 L821.514667,225 L821.514667,223.224 C820.538662,224.536007 819.258674,225.192 817.674667,225.192 C816.28266,225.192 815.114671,224.700005 814.170667,223.716 C813.226662,222.731995 812.754667,221.520007 812.754667,220.08 L812.754667,213 L814.386667,213 L814.386667,220.032 C814.386667,221.056005 814.730663,221.923996 815.418667,222.636 C816.10667,223.348004 816.946662,223.704 817.938667,223.704 C818.946672,223.704 819.794663,223.348004 820.482667,222.636 C821.17067,221.923996 821.514667,221.056005 821.514667,220.032 L821.514667,213 Z M832.549333,223.608 C833.621339,223.608 834.581329,223.304003 835.429333,222.696 C836.277337,222.087997 836.853332,221.376004 837.157333,220.56 L838.501333,221.04 C838.133331,222.048005 837.417339,222.975996 836.353333,223.824 C835.289328,224.672004 834.021341,225.088 832.549333,225.072 C831.205326,225.072 829.977339,224.656004 828.865333,223.824 C827.753328,222.991996 826.997335,221.928006 826.597333,220.632 C826.437332,220.103997 826.357333,219.528003 826.357333,218.904 C826.357333,217.175991 826.957327,215.712006 828.157333,214.512 C829.357339,213.311994 830.821325,212.704 832.549333,212.688 C834.117341,212.704 835.485327,213.231995 836.653333,214.272 C837.821339,215.312005 838.493332,216.599992 838.669333,218.136 C838.685333,218.216 838.693333,218.319999 838.693333,218.448 L828.205333,220.344 C828.477335,221.304005 829.021329,222.091997 829.837333,222.708 C830.653337,223.324003 831.557328,223.624 832.549333,223.608 Z M832.405333,214.152 C831.205327,214.168 830.177337,214.599996 829.321333,215.448 C828.465329,216.296004 828.005334,217.311994 827.941333,218.496 C827.941333,218.544 827.945333,218.627999 827.953333,218.748 C827.961333,218.868001 827.965333,218.968 827.965333,219.048 L836.893333,217.44 C836.589332,216.463995 836.021337,215.668003 835.189333,215.052 C834.357329,214.435997 833.429338,214.136 832.405333,214.152 Z M847.04,212.808 C848.432007,212.808 849.599995,213.299995 850.544,214.284 C851.488005,215.268005 851.96,216.479993 851.96,217.92 L851.96,225 L850.352,225 L850.352,217.968 C850.352,216.943995 850.004003,216.072004 849.308,215.352 C848.611996,214.631996 847.768005,214.272 846.776,214.272 C845.783995,214.272 844.940003,214.631996 844.244,215.352 C843.547996,216.072004 843.2,216.943995 843.2,217.968 L843.2,225 L841.616,225 L841.616,213 L843.2,213 L843.2,214.776 C844.176005,213.463993 845.455992,212.808 847.04,212.808 Z M861.074667,225.192 C859.362658,225.192 857.902673,224.588006 856.694667,223.38 C855.486661,222.171994 854.882667,220.712009 854.882667,219 C854.882667,217.287991 855.486661,215.828006 856.694667,214.62 C857.902673,213.411994 859.362658,212.808 861.074667,212.808 C862.162672,212.808 863.174662,213.075997 864.110667,213.612 C865.046671,214.148003 865.786664,214.863996 866.330667,215.76 L864.890667,216.456 C864.458664,215.799997 863.90667,215.280002 863.234667,214.896 C862.562663,214.511998 861.84267,214.32 861.074667,214.32 C859.77866,214.32 858.686671,214.771995 857.798667,215.676 C856.910662,216.580005 856.466667,217.687993 856.466667,219 C856.466667,220.312007 856.910662,221.419995 857.798667,222.324 C858.686671,223.228005 859.77866,223.68 861.074667,223.68 C861.84267,223.68 862.562663,223.488002 863.234667,223.104 C863.90667,222.719998 864.458664,222.200003 864.890667,221.544 L866.330667,222.24 C865.786664,223.136004 865.046671,223.851997 864.110667,224.388 C863.174662,224.924003 862.162672,225.192 861.074667,225.192 Z M876.981333,213 L878.565333,213 L872.013333,230.112 L870.429333,230.112 L872.949333,223.536 L868.509333,213 L870.093333,213 L873.693333,221.568 L876.981333,213 Z" id="PWMSignalwith50%DutyCycleand2xFrequency" fill="#23ABE3" fill-rule="nonzero"></path>
        </g>
        <g id="PWM_50p_DutyCycle" transform="translate(24.000000, 44.000000)">
            <g id="Axis">
                <path d="M115.5,10.5 L115.5,97.7066511" id="Line" stroke="#524740" stroke-width="3" stroke-linecap="square"></path>
                <path d="M116.5,98.5 L846.502472,98.5" id="Line" stroke="#524740" stroke-width="3" stroke-linecap="square"></path>
                <path d="M115.5,10.5 L105.5,10.5" id="Line" stroke="#524740" stroke-width="3" stroke-linecap="square"></path>
                <path d="M115.5,98.5 L105.5,98.5" id="Line-Copy-8" stroke="#524740" stroke-width="3" stroke-linecap="square"></path>
                <path d="M61.34,14.24 C61.2279994,14.3360005 61.0880008,14.483999 60.92,14.684 C60.7519992,14.884001 60.5960007,15.0439994 60.452,15.164 C60.3079993,15.2840006 60.1640007,15.344 60.02,15.344 C59.8919994,15.344 59.7760005,15.2920005 59.672,15.188 C59.5679995,15.0839995 59.516,14.9520008 59.516,14.792 C59.516,14.5039986 59.7239979,14.2080015 60.14,13.904 L61.916,12.488 C62.3800023,12.1359982 62.7599985,11.6840028 63.056,11.132 C63.3520015,10.5799972 63.5,10.008003 63.5,9.416 C63.5,8.74399664 63.2600024,8.208002 62.78,7.808 C62.2999976,7.407998 61.6680039,7.208 60.884,7.208 C60.0519958,7.208 59.3560028,7.55999648 58.796,8.264 C58.2359972,8.96800352 58.2439971,9.81599504 58.82,10.808 L58.1,11.552 C57.1719954,10.9919972 56.6720004,10.2840043 56.6,9.428 C56.5279996,8.57199572 56.891996,7.82000324 57.692,7.172 C58.492004,6.52399676 59.5559934,6.2 60.884,6.2 C62.1160062,6.2 63.1879954,6.49599704 64.1,7.088 C65.0120046,7.68000296 65.468,8.4559952 65.468,9.416 C65.468,9.76800176 65.3920008,10.1279982 65.24,10.496 C65.0879992,10.8640018 64.9040011,11.1759987 64.688,11.432 C64.4719989,11.6880013 64.2560011,11.9239989 64.04,12.14 C63.8239989,12.3560011 63.6440007,12.5199994 63.5,12.632 L63.26,12.776 L62.156,13.616 C63.3080058,13.8560012 64.2199966,14.3279965 64.892,15.032 C65.5640034,15.7360035 65.9,16.5519954 65.9,17.48 C65.9,18.5840055 65.4400046,19.5279961 64.52,20.312 C63.5999954,21.0960039 62.4680067,21.488 61.124,21.488 C59.8279935,21.488 58.7640042,21.1760031 57.932,20.552 C57.0999958,19.9279969 56.684,19.3360028 56.684,18.776 C56.684,18.4079982 56.8919979,18.224 57.308,18.224 C57.4680008,18.224 57.6079994,18.2959993 57.728,18.44 C57.8480006,18.5840007 57.9839992,18.7839987 58.136,19.04 C58.2880008,19.2960013 58.4359993,19.4959993 58.58,19.64 C59.172003,20.2640031 59.9559951,20.576 60.932,20.576 C61.8760047,20.576 62.5839976,20.2920028 63.056,19.724 C63.5280024,19.1559972 63.764,18.4080046 63.764,17.48 C63.764,16.7119962 63.568002,16.024003 63.176,15.416 C62.783998,14.807997 62.1720042,14.4160009 61.34,14.24 Z M72.404,15.944 C72.404,16.2800017 72.2680014,16.5719988 71.996,16.82 C71.7239986,17.0680012 71.4040018,17.192 71.036,17.192 C70.6679982,17.192 70.3560013,17.0680012 70.1,16.82 C69.8439987,16.5719988 69.716,16.2800017 69.716,15.944 C69.716,15.5919982 69.8439987,15.2920012 70.1,15.044 C70.3560013,14.7959988 70.6679982,14.672 71.036,14.672 C71.4040018,14.672 71.7239986,14.7959988 71.996,15.044 C72.2680014,15.2920012 72.404,15.5919982 72.404,15.944 Z M81.044,14.24 C80.9319994,14.3360005 80.7920008,14.483999 80.624,14.684 C80.4559992,14.884001 80.3000007,15.0439994 80.156,15.164 C80.0119993,15.2840006 79.8680007,15.344 79.724,15.344 C79.5959994,15.344 79.4800005,15.2920005 79.376,15.188 C79.2719995,15.0839995 79.22,14.9520008 79.22,14.792 C79.22,14.5039986 79.4279979,14.2080015 79.844,13.904 L81.62,12.488 C82.0840023,12.1359982 82.4639985,11.6840028 82.76,11.132 C83.0560015,10.5799972 83.204,10.008003 83.204,9.416 C83.204,8.74399664 82.9640024,8.208002 82.484,7.808 C82.0039976,7.407998 81.3720039,7.208 80.588,7.208 C79.7559958,7.208 79.0600028,7.55999648 78.5,8.264 C77.9399972,8.96800352 77.9479971,9.81599504 78.524,10.808 L77.804,11.552 C76.8759954,10.9919972 76.3760004,10.2840043 76.304,9.428 C76.2319996,8.57199572 76.595996,7.82000324 77.396,7.172 C78.196004,6.52399676 79.2599934,6.2 80.588,6.2 C81.8200062,6.2 82.8919954,6.49599704 83.804,7.088 C84.7160046,7.68000296 85.172,8.4559952 85.172,9.416 C85.172,9.76800176 85.0960008,10.1279982 84.944,10.496 C84.7919992,10.8640018 84.6080011,11.1759987 84.392,11.432 C84.1759989,11.6880013 83.9600011,11.9239989 83.744,12.14 C83.5279989,12.3560011 83.3480007,12.5199994 83.204,12.632 L82.964,12.776 L81.86,13.616 C83.0120058,13.8560012 83.9239966,14.3279965 84.596,15.032 C85.2680034,15.7360035 85.604,16.5519954 85.604,17.48 C85.604,18.5840055 85.1440046,19.5279961 84.224,20.312 C83.3039954,21.0960039 82.1720067,21.488 80.828,21.488 C79.5319935,21.488 78.4680042,21.1760031 77.636,20.552 C76.8039958,19.9279969 76.388,19.3360028 76.388,18.776 C76.388,18.4079982 76.5959979,18.224 77.012,18.224 C77.1720008,18.224 77.3119994,18.2959993 77.432,18.44 C77.5520006,18.5840007 77.6879992,18.7839987 77.84,19.04 C77.9920008,19.2960013 78.1399993,19.4959993 78.284,19.64 C78.876003,20.2640031 79.6599951,20.576 80.636,20.576 C81.5800047,20.576 82.2879976,20.2920028 82.76,19.724 C83.2320024,19.1559972 83.468,18.4080046 83.468,17.48 C83.468,16.7119962 83.272002,16.024003 82.88,15.416 C82.487998,14.807997 81.8760042,14.4160009 81.044,14.24 Z M102.74,3.104 C101.795995,3.104 101.184001,3.21999884 100.904,3.452 C100.623999,3.68400116 100.284002,4.26399536 99.884,5.192 L94.604,17.408 L94.292,17.408 L88.988,5.192 C88.587998,4.26399536 88.2480014,3.68400116 87.968,3.452 C87.6879986,3.21999884 87.0760047,3.104 86.132,3.104 L86.132,2.6 L92.78,2.6 L92.78,3.104 C91.787995,3.104 91.1520014,3.2439986 90.872,3.524 C90.5919986,3.8040014 90.6039985,4.27199672 90.908,4.928 L94.988,14.264 L99.02,4.928 C99.3240015,4.27199672 99.3360014,3.8040014 99.056,3.524 C98.7759986,3.2439986 98.140005,3.104 97.148,3.104 L97.148,2.6 L102.74,2.6 L102.74,3.104 Z" id="3.3V" fill="#524740" fill-rule="nonzero"></path>
                <path d="M74.636,92.856 C75.7400055,91.7519945 77.0599923,91.2 78.596,91.2 C80.1320077,91.2 81.4479945,91.7479945 82.544,92.844 C83.6400055,93.9400055 84.188,95.2559923 84.188,96.792 C84.188,98.3440078 83.6400055,99.6679945 82.544,100.764 C81.4479945,101.860005 80.1320077,102.408 78.596,102.408 C77.0599923,102.408 75.7440055,101.860005 74.648,100.764 C73.5519945,99.6679945 73.004,98.3440078 73.004,96.792 C73.004,95.2559923 73.5479946,93.9440054 74.636,92.856 Z M78.596,92.568 C77.4759944,92.568 76.520004,92.9839958 75.728,93.816 C74.935996,94.6480042 74.54,95.6399942 74.54,96.792 C74.54,97.9600058 74.935996,98.9559959 75.728,99.78 C76.520004,100.604004 77.4759944,101.016 78.596,101.016 C79.7000055,101.016 80.651996,100.604004 81.452,99.78 C82.252004,98.9559959 82.652,97.9600058 82.652,96.792 C82.652,95.6399942 82.252004,94.6480042 81.452,93.816 C80.651996,92.9839958 79.7000055,92.568 78.596,92.568 Z M101.396,88.104 C100.451995,88.104 99.8400014,88.2199988 99.56,88.452 C99.2799986,88.6840012 98.940002,89.2639954 98.54,90.192 L93.26,102.408 L92.948,102.408 L87.644,90.192 C87.243998,89.2639954 86.9040014,88.6840012 86.624,88.452 C86.3439986,88.2199988 85.7320047,88.104 84.788,88.104 L84.788,87.6 L91.436,87.6 L91.436,88.104 C90.443995,88.104 89.8080014,88.2439986 89.528,88.524 C89.2479986,88.8040014 89.2599985,89.2719967 89.564,89.928 L93.644,99.264 L97.676,89.928 C97.9800015,89.2719967 97.9920014,88.8040014 97.712,88.524 C97.4319986,88.2439986 96.796005,88.104 95.804,88.104 L95.804,87.6 L101.396,87.6 L101.396,88.104 Z" id="0V" fill="#524740" fill-rule="nonzero"></path>
                <path d="M416.452,114.6 L416.668,117.84 L416.164,117.84 L416.044,117.36 C415.851999,116.639996 415.596002,116.156001 415.276,115.908 C414.955998,115.659999 414.284005,115.536 413.26,115.536 L410.116,115.536 L410.116,125.688 C410.116,126.888006 410.251999,127.655998 410.524,127.992 C410.796001,128.328002 411.427995,128.496 412.42,128.496 L412.42,129 L405.916,129 L405.916,128.496 C406.908005,128.496 407.539999,128.328002 407.812,127.992 C408.084001,127.655998 408.22,126.888006 408.22,125.688 L408.22,115.536 L405.076,115.536 C404.051995,115.536 403.380002,115.659999 403.06,115.908 C402.739998,116.156001 402.484001,116.639996 402.292,117.36 L402.172,117.84 L401.668,117.84 L401.884,114.6 L416.452,114.6 Z M423.268,129 L417.772,129 L417.772,128.496 C418.572004,128.496 419.087999,128.328002 419.32,127.992 C419.552001,127.655998 419.668,126.888006 419.668,125.688 L419.668,124.488 C419.668,123.303994 419.552001,122.544002 419.32,122.208 C419.087999,121.871998 418.572004,121.704 417.772,121.704 L417.772,121.2 L421.372,120.6 L421.372,125.688 C421.372,126.888006 421.487999,127.655998 421.72,127.992 C421.952001,128.328002 422.467996,128.496 423.268,128.496 L423.268,129 Z M421.564,117.168 C421.564,117.472002 421.460001,117.727999 421.252,117.936 C421.043999,118.144001 420.796001,118.248 420.508,118.248 C420.219999,118.248 419.972001,118.144001 419.764,117.936 C419.555999,117.727999 419.452,117.472002 419.452,117.168 C419.452,116.879999 419.555999,116.632001 419.764,116.424 C419.972001,116.215999 420.219999,116.112 420.508,116.112 C420.796001,116.112 421.043999,116.215999 421.252,116.424 C421.460001,116.632001 421.564,116.879999 421.564,117.168 Z M434.116,124.128 L434.116,125.688 C434.116,126.952006 434.199999,127.735998 434.368,128.04 C434.536001,128.344002 434.955997,128.496 435.628,128.496 L435.628,129 L430.924,129 L430.924,128.496 C431.596003,128.496 432.015999,128.344002 432.184,128.04 C432.352001,127.735998 432.436,126.952006 432.436,125.688 L432.436,124.296 C432.436,122.583991 431.860006,121.728 430.708,121.728 C430.211998,121.728 429.676003,121.959998 429.1,122.424 C428.523997,122.888002 428.236,123.455997 428.236,124.128 L428.236,125.688 C428.236,126.936006 428.319999,127.715998 428.488,128.028 C428.656001,128.340002 429.067997,128.496 429.724,128.496 L429.724,129 L424.636,129 L424.636,128.496 C425.436004,128.496 425.951999,128.328002 426.184,127.992 C426.416001,127.655998 426.532,126.888006 426.532,125.688 L426.532,124.488 C426.532,123.303994 426.416001,122.544002 426.184,122.208 C425.951999,121.871998 425.436004,121.704 424.636,121.704 L424.636,121.2 L427.828,120.6 C427.972001,120.904002 428.107999,121.479996 428.236,122.328 C429.148005,121.175994 430.187994,120.6 431.356,120.6 C432.684007,120.6 433.531998,121.199994 433.9,122.4 C434.220002,121.951998 434.695997,121.540002 435.328,121.164 C435.960003,120.787998 436.603997,120.6 437.26,120.6 C439.100009,120.6 440.02,121.791988 440.02,124.176 L440.02,125.688 C440.02,126.888006 440.135999,127.655998 440.368,127.992 C440.600001,128.328002 441.115996,128.496 441.916,128.496 L441.916,129 L436.828,129 L436.828,128.496 C437.500003,128.496 437.915999,128.344002 438.076,128.04 C438.236001,127.735998 438.316,126.952006 438.316,125.688 L438.316,124.296 C438.316,122.583991 437.748006,121.728 436.612,121.728 C436.115998,121.728 435.576003,121.959998 434.992,122.424 C434.407997,122.888002 434.116,123.455997 434.116,124.128 Z M445.612,123.504 L449.596,123.504 C449.756001,123.055998 449.688001,122.620002 449.392,122.196 C449.095999,121.771998 448.588004,121.56 447.868,121.56 C447.355997,121.56 446.896002,121.735998 446.488,122.088 C446.079998,122.440002 445.788001,122.911997 445.612,123.504 Z M445.468,124.392 C445.323999,125.576006 445.511997,126.539996 446.032,127.284 C446.552003,128.028004 447.403994,128.4 448.588,128.4 C448.988002,128.4 449.443997,128.296001 449.956,128.088 C450.468003,127.879999 450.891998,127.616002 451.228,127.296 L451.66,127.824 C451.227998,128.288002 450.676003,128.667999 450.004,128.964 C449.331997,129.260001 448.660003,129.408 447.988,129.408 C446.691994,129.408 445.628004,128.980004 444.796,128.124 C443.963996,127.267996 443.548,126.224006 443.548,124.992 C443.548,123.759994 443.999995,122.720004 444.904,121.872 C445.808005,121.023996 446.835994,120.6 447.988,120.6 C449.076005,120.6 449.963997,120.979996 450.652,121.74 C451.340003,122.500004 451.540001,123.383995 451.252,124.392 L445.468,124.392 Z" id="Time" fill="#524740" fill-rule="nonzero"></path>
                <path d="M17.56,45.104 C16.6159953,45.104 16.0040014,45.2199988 15.724,45.452 C15.4439986,45.6840012 15.104002,46.2639954 14.704,47.192 L9.424,59.408 L9.112,59.408 L3.808,47.192 C3.407998,46.2639954 3.0680014,45.6840012 2.788,45.452 C2.5079986,45.2199988 1.89600472,45.104 0.952,45.104 L0.952,44.6 L7.6,44.6 L7.6,45.104 C6.60799504,45.104 5.9720014,45.2439986 5.692,45.524 C5.4119986,45.8040014 5.42399848,46.2719967 5.728,46.928 L9.808,56.264 L13.84,46.928 C14.1440015,46.2719967 14.1560014,45.8040014 13.876,45.524 C13.5959986,45.2439986 12.960005,45.104 11.968,45.104 L11.968,44.6 L17.56,44.6 L17.56,45.104 Z M26.08,51.896 C27.0400048,52.7440042 27.52,53.7759939 27.52,54.992 C27.52,56.2080061 27.0440048,57.2479957 26.092,58.112 C25.1399952,58.9760043 24.0000066,59.408 22.672,59.408 C21.3439934,59.408 20.2040048,58.9760043 19.252,58.112 C18.2999952,57.2479957 17.824,56.2080061 17.824,54.992 C17.824,53.7759939 18.2999952,52.7400043 19.252,51.884 C20.2040048,51.0279957 21.3439934,50.6 22.672,50.6 C24.0000066,50.6 25.1359953,51.0319957 26.08,51.896 Z M24.832,57.512 C25.3280025,56.8559967 25.576,56.0160051 25.576,54.992 C25.576,53.9679949 25.3280025,53.1320032 24.832,52.484 C24.3359975,51.8359968 23.6160047,51.512 22.672,51.512 C21.7279953,51.512 21.0080025,51.8399967 20.512,52.496 C20.0159975,53.1520033 19.768,53.983995 19.768,54.992 C19.768,56.000005 20.0159975,56.8319967 20.512,57.488 C21.0080025,58.1440033 21.7279953,58.472 22.672,58.472 C23.6160047,58.472 24.3359975,58.1520032 24.832,57.512 Z M34.624,59 L29.128,59 L29.128,58.496 C29.928004,58.496 30.4439988,58.3280017 30.676,57.992 C30.9080012,57.6559983 31.024,56.888006 31.024,55.688 L31.024,48.104 C31.024,46.903994 30.9080012,46.1360017 30.676,45.8 C30.4439988,45.4639983 29.928004,45.296 29.128,45.296 L29.128,44.792 L32.728,44.192 L32.728,55.688 C32.728,56.888006 32.8439988,57.6559983 33.076,57.992 C33.3080012,58.3280017 33.823996,58.496 34.624,58.496 L34.624,59 Z M37.024,51.848 L35.776,51.848 L35.776,51.272 C36.4640034,51.1279993 36.9679984,50.8160024 37.288,50.336 C37.6080016,49.8559976 37.8159995,49.2000042 37.912,48.368 L38.728,48.368 L38.728,51.008 L40.816,51.008 L40.816,51.848 L38.728,51.848 L38.728,56.648 C38.728,57.8000058 39.0879964,58.376 39.808,58.376 C40.2720023,58.376 40.7919971,58.1040027 41.368,57.56 L41.776,57.968 C41.4399983,58.368002 41.0360024,58.6959987 40.564,58.952 C40.0919976,59.2080013 39.656002,59.336 39.256,59.336 C38.5679966,59.336 38.024002,59.1120022 37.624,58.664 C37.223998,58.2159978 37.024,57.5440045 37.024,56.648 L37.024,51.848 Z M51.472,58.52 C51.0079977,59.0160025 50.480003,59.264 49.888,59.264 C48.9279952,59.264 48.3840006,58.8000046 48.256,57.872 C47.1839946,58.8320048 46.1840046,59.312 45.256,59.312 C44.647997,59.312 44.1360021,59.1320018 43.72,58.772 C43.3039979,58.4119982 43.096,57.9200031 43.096,57.296 C43.096,55.6159916 44.799983,54.480003 48.208,53.888 C48.208,52.9439953 48.104001,52.2880018 47.896,51.92 C47.687999,51.5519982 47.2560033,51.368 46.6,51.368 C46.2799984,51.368 45.9720015,51.471999 45.676,51.68 C45.3799985,51.888001 45.232,52.1679982 45.232,52.52 C45.232,52.7600012 45.1520008,52.9599992 44.992,53.12 C44.8319992,53.2800008 44.6400011,53.36 44.416,53.36 C44.1759988,53.36 43.9760008,53.2800008 43.816,53.12 C43.6559992,52.9599992 43.576,52.7600012 43.576,52.52 C43.576,51.9599972 43.8839969,51.5000018 44.5,51.14 C45.1160031,50.7799982 45.823996,50.6 46.624,50.6 C47.7920058,50.6 48.6319974,50.8559974 49.144,51.368 C49.6560026,51.8800026 49.912,52.7119942 49.912,53.864 L49.912,57.488 C49.912,58.1120031 50.0959982,58.424 50.464,58.424 C50.672001,58.424 50.8959988,58.3040012 51.136,58.064 L51.472,58.52 Z M48.208,57.08 L48.208,54.632 C45.999989,55.1440026 44.896,55.9359946 44.896,57.008 C44.896,57.3760018 45.0039989,57.6719989 45.22,57.896 C45.4360011,58.1200011 45.7039984,58.232 46.024,58.232 C46.616003,58.232 47.3439957,57.8480038 48.208,57.08 Z M57.712,55.664 C58.0160015,55.1999977 58.168,54.6000037 58.168,53.864 C58.168,53.1279963 58.0200015,52.5280023 57.724,52.064 C57.4279985,51.5999977 57.0000028,51.368 56.44,51.368 C55.8799972,51.368 55.4480015,51.5999977 55.144,52.064 C54.8399985,52.5280023 54.688,53.1279963 54.688,53.864 C54.688,54.6000037 54.8399985,55.1959977 55.144,55.652 C55.4480015,56.1080023 55.8799972,56.336 56.44,56.336 C57.0000028,56.336 57.4239986,56.1120022 57.712,55.664 Z M54.208,58.136 C54.208,58.6160024 54.9359927,58.9199994 56.392,59.048 C57.9280077,59.1760006 59.0399966,59.5279971 59.728,60.104 C60.4160034,60.6800029 60.76,61.3759959 60.76,62.192 C60.76,63.1680049 60.356004,63.9479971 59.548,64.532 C58.739996,65.1160029 57.7280061,65.408 56.512,65.408 C55.2159935,65.408 54.172004,65.1400027 53.38,64.604 C52.587996,64.0679973 52.2239997,63.4400036 52.288,62.72 C52.3520003,61.9999964 52.8639952,61.3920025 53.824,60.896 L54.256,61.16 C53.7919977,61.6880026 53.5440002,62.1719978 53.512,62.612 C53.4799998,63.0520022 53.6199984,63.3999987 53.932,63.656 C54.2440016,63.9120013 54.6279977,64.1119993 55.084,64.256 C55.5400023,64.4000007 56.0159975,64.472 56.512,64.472 C57.2960039,64.472 57.987997,64.3000017 58.588,63.956 C59.188003,63.6119983 59.488,63.1680027 59.488,62.624 C59.488,62.0959974 59.2280026,61.7120012 58.708,61.472 C58.1879974,61.2319988 57.3760055,61.0560006 56.272,60.944 C53.9999886,60.7199989 52.864,59.9760063 52.864,58.712 C52.864,57.8479957 53.5359933,57.2080021 54.88,56.792 C54.2559969,56.5039986 53.7640018,56.1040026 53.404,55.592 C53.0439982,55.0799974 52.864,54.5040032 52.864,53.864 C52.864,52.9679955 53.2119965,52.2000032 53.908,51.56 C54.6040035,50.9199968 55.447995,50.6 56.44,50.6 C57.4000048,50.6 58.2239966,50.903997 58.912,51.512 C59.120001,51.2559987 59.4039982,51.0400009 59.764,50.864 C60.1240018,50.6879991 60.4399986,50.6 60.712,50.6 C61.4160035,50.6 61.863999,50.895997 62.056,51.488 C62.2000007,51.9360022 62.1280014,52.2719989 61.84,52.496 C61.7439995,52.5760004 61.6320006,52.616 61.504,52.616 C61.2639988,52.6320001 61.0840006,52.5840006 60.964,52.472 C60.8439994,52.3599994 60.7720001,52.2360007 60.748,52.1 C60.7239999,51.9639993 60.6600005,51.8360006 60.556,51.716 C60.4519995,51.5959994 60.2880011,51.536 60.064,51.536 C59.8239988,51.536 59.5760013,51.6639987 59.32,51.92 C59.7840023,52.4800028 60.016,53.1279963 60.016,53.864 C60.016,54.7120042 59.7040031,55.439997 59.08,56.048 C58.4559969,56.656003 57.7280042,57.0159994 56.896,57.128 C55.103991,57.336001 54.208,57.6719977 54.208,58.136 Z M65.224,53.504 L69.208,53.504 C69.3680008,53.0559978 69.3000015,52.6200021 69.004,52.196 C68.7079985,51.7719979 68.2000036,51.56 67.48,51.56 C66.9679974,51.56 66.508002,51.7359982 66.1,52.088 C65.691998,52.4400018 65.4000009,52.911997 65.224,53.504 Z M65.08,54.392 C64.9359993,55.5760059 65.1239974,56.5399963 65.644,57.284 C66.1640026,58.0280037 67.0159941,58.4 68.2,58.4 C68.600002,58.4 69.0559974,58.296001 69.568,58.088 C70.0800026,57.879999 70.5039983,57.6160016 70.84,57.296 L71.272,57.824 C70.8399978,58.2880023 70.2880034,58.6679985 69.616,58.964 C68.9439966,59.2600015 68.2720034,59.408 67.6,59.408 C66.3039935,59.408 65.2400042,58.9800043 64.408,58.124 C63.5759958,57.2679957 63.16,56.2240062 63.16,54.992 C63.16,53.7599938 63.6119955,52.7200042 64.516,51.872 C65.4200045,51.0239958 66.4479942,50.6 67.6,50.6 C68.6880054,50.6 69.5759966,50.9799962 70.264,51.74 C70.9520034,52.5000038 71.1520014,53.383995 70.864,54.392 L65.08,54.392 Z" id="Voltage" fill="#524740" fill-rule="nonzero"></path>
            </g>
            <g id="Signal" transform="translate(117.000000, 77.000000)"></g>
            <g id="Signal-Copy" transform="translate(117.000000, 18.000000)">
                <path d="M351,4.4199765 L351,81" id="Line-Copy-7" stroke="#EF7D3B" stroke-width="5" stroke-linecap="square"></path>
                <path d="M401,4.4199765 L401,81" id="Line-Copy-9" stroke="#EF7D3B" stroke-width="5" stroke-linecap="square"></path>
                <path d="M451,4.4199765 L451,81" id="Line-Copy-10" stroke="#EF7D3B" stroke-width="5" stroke-linecap="square"></path>
                <path d="M501,4.4199765 L501,81" id="Line-Copy-11" stroke="#EF7D3B" stroke-width="5" stroke-linecap="square"></path>
                <path d="M551,4.4199765 L551,81" id="Line-Copy-12" stroke="#EF7D3B" stroke-width="5" stroke-linecap="square"></path>
                <path d="M601,4.4199765 L601,81" id="Line-Copy-13" stroke="#EF7D3B" stroke-width="5" stroke-linecap="square"></path>
                <path d="M351,1 L401,1" id="Line-Copy" stroke="#EF7D3B" stroke-width="5" stroke-linecap="square"></path>
                <path d="M401,81 L451,81" id="Line-Copy-2" stroke="#EF7D3B" stroke-width="5" stroke-linecap="square"></path>
                <path d="M451,1 L501,1" id="Line-Copy-3" stroke="#EF7D3B" stroke-width="5" stroke-linecap="square"></path>
                <path d="M501,81 L551,81" id="Line-Copy-4" stroke="#EF7D3B" stroke-width="5" stroke-linecap="square"></path>
                <path d="M551,1 L601,1" id="Line-Copy-5" stroke="#EF7D3B" stroke-width="5" stroke-linecap="square"></path>
                <path d="M651,4.4199765 L651,81" id="Line-Copy-16" stroke="#EF7D3B" stroke-width="5" stroke-linecap="square"></path>
                <path d="M701,4.4199765 L701,81" id="Line-Copy-15" stroke="#EF7D3B" stroke-width="5" stroke-linecap="square"></path>
                <path d="M651,1 L701,1" id="Line-Copy-14" stroke="#EF7D3B" stroke-width="5" stroke-linecap="square"></path>
                <path d="M601,81 L651,81" id="Line-Copy-6" stroke="#EF7D3B" stroke-width="5" stroke-linecap="square"></path>
                <path d="M1,81 L51,81" id="Line" stroke="#EF7D3B" stroke-width="5" stroke-linecap="square"></path>
                <path d="M51,4.4199765 L51,81" id="Line-Copy-7" stroke="#EF7D3B" stroke-width="5" stroke-linecap="square"></path>
                <path d="M101,4.4199765 L101,81" id="Line-Copy-9" stroke="#EF7D3B" stroke-width="5" stroke-linecap="square"></path>
                <path d="M151,4.4199765 L151,81" id="Line-Copy-10" stroke="#EF7D3B" stroke-width="5" stroke-linecap="square"></path>
                <path d="M201,4.4199765 L201,81" id="Line-Copy-11" stroke="#EF7D3B" stroke-width="5" stroke-linecap="square"></path>
                <path d="M251,4.4199765 L251,81" id="Line-Copy-12" stroke="#EF7D3B" stroke-width="5" stroke-linecap="square"></path>
                <path d="M301,4.4199765 L301,81" id="Line-Copy-13" stroke="#EF7D3B" stroke-width="5" stroke-linecap="square"></path>
                <path d="M51,1 L101,1" id="Line-Copy" stroke="#EF7D3B" stroke-width="5" stroke-linecap="square"></path>
                <path d="M101,81 L151,81" id="Line-Copy-2" stroke="#EF7D3B" stroke-width="5" stroke-linecap="square"></path>
                <path d="M151,1 L201,1" id="Line-Copy-3" stroke="#EF7D3B" stroke-width="5" stroke-linecap="square"></path>
                <path d="M201,81 L251,81" id="Line-Copy-4" stroke="#EF7D3B" stroke-width="5" stroke-linecap="square"></path>
                <path d="M251,1 L301,1" id="Line-Copy-5" stroke="#EF7D3B" stroke-width="5" stroke-linecap="square"></path>
                <path d="M301,81 L351,81" id="Line-Copy-6" stroke="#EF7D3B" stroke-width="5" stroke-linecap="square"></path>
                <path d="M0,41 L702,41" id="Average" stroke="#23ABE3" stroke-width="3"></path>
            </g>
        </g>
    </g>
</svg>