<?xml version="1.0" encoding="UTF-8"?>
<svg width="900px" height="240px" viewBox="0 0 900 240" version="1.1" xmlns="http://www.w3.org/2000/svg" xmlns:xlink="http://www.w3.org/1999/xlink">
    <!-- Generator: Sketch 54.1 (76490) - https://sketchapp.com -->
    <title>PWM_Signal</title>
    <desc>Created with Sketch.</desc>
    <g id="PWM_Signal" stroke="none" stroke-width="1" fill="none" fill-rule="evenodd">
        <g id="Illustration_Frame">
            <rect id="Rectangle" stroke="#3D3530" stroke-width="2" fill="#EEEEEE" x="1" y="1" width="898" height="238"></rect>
            <rect id="Rectangle-Copy" stroke="#3D3530" stroke-width="2" fill="#F8FAE4" x="1" y="196" width="898" height="43"></rect>
            <path d="M741.333333,225 L741.333333,208.872 L746.805333,208.872 C748.613342,208.872 750.053328,209.347995 751.125333,210.3 C752.197338,211.252005 752.733333,212.447993 752.733333,213.888 C752.733333,215.312007 752.197338,216.503995 751.125333,217.464 C750.053328,218.424005 748.613342,218.904 746.805333,218.904 L742.917333,218.904 L742.917333,225 L741.333333,225 Z M742.917333,217.392 L746.805333,217.392 C748.101339,217.392 749.141329,217.060003 749.925333,216.396 C750.709337,215.731997 751.101333,214.896005 751.101333,213.888 C751.101333,212.895995 750.709337,212.064003 749.925333,211.392 C749.141329,210.719997 748.101339,210.384 746.805333,210.384 L742.917333,210.384 L742.917333,217.392 Z M777.856,208.872 L779.488,208.872 L773.92,225 L772.288,225 L767.536,211.032 L762.76,225 L761.152,225 L755.56,208.872 L757.192,208.872 L761.968,222.552 L766.792,208.872 L768.256,208.872 L773.104,222.552 L777.856,208.872 Z M800.674666,225 L799.090666,225 L795.994666,211.824 L791.818666,225 L790.762666,225 L786.610666,211.824 L783.514666,225 L781.930666,225 L785.650666,208.872 L787.090666,208.872 L791.314666,221.784 L795.490666,208.872 L796.954666,208.872 L800.674666,225 Z M815.976,225.192 C814.903994,225.192 813.868005,224.920003 812.868,224.376 C811.867995,223.831997 811.112002,223.288003 810.6,222.744 L811.704,221.664 C812.104002,222.096002 812.695996,222.539998 813.48,222.996 C814.264004,223.452002 815.095995,223.68 815.976,223.68 C817.048005,223.68 817.891997,223.444002 818.508,222.972 C819.124003,222.499998 819.432,221.856004 819.432,221.04 C819.432,220.351997 819.132003,219.752003 818.532,219.24 C817.931997,218.727997 817.204004,218.296002 816.348,217.944 C815.491996,217.591998 814.632004,217.220002 813.768,216.828 C812.903995,216.435998 812.172003,215.904003 811.572,215.232 C810.971997,214.559997 810.672,213.768005 810.672,212.856 C810.672,211.687994 811.111995,210.704004 811.992,209.904 C812.872004,209.103996 814.103992,208.704 815.688,208.704 C816.760005,208.704 817.795995,208.975997 818.796,209.52 C819.796005,210.064003 820.551997,210.607997 821.064,211.152 L819.96,212.232 C819.543998,211.783998 818.944004,211.336002 818.16,210.888 C817.375996,210.439998 816.552004,210.216 815.688,210.216 C814.615994,210.216 813.772003,210.451998 813.156,210.924 C812.539997,211.396002 812.232,212.039996 812.232,212.856 C812.232,213.544003 812.531997,214.147997 813.132,214.668 C813.732003,215.188003 814.459996,215.623998 815.316,215.976 C816.172004,216.328002 817.031995,216.695998 817.896,217.08 C818.760004,217.464002 819.491997,217.991997 820.092,218.664 C820.692003,219.336003 820.992,220.127995 820.992,221.04 C820.992,222.208006 820.552004,223.191996 819.672,223.992 C818.791995,224.792004 817.560008,225.192 815.976,225.192 Z M826.314666,209.4 C826.138666,209.592001 825.914668,209.688 825.642666,209.688 C825.370665,209.688 825.142667,209.592001 824.958666,209.4 C824.774666,209.207999 824.682666,208.984001 824.682666,208.728 C824.682666,208.471999 824.774666,208.248001 824.958666,208.056 C825.142667,207.863999 825.370665,207.768 825.642666,207.768 C825.914668,207.768 826.142666,207.863999 826.326666,208.056 C826.510667,208.248001 826.602666,208.471999 826.602666,208.728 C826.602666,208.984001 826.506667,209.207999 826.314666,209.4 Z M824.850666,225 L824.850666,213 L826.434666,213 L826.434666,225 L824.850666,225 Z M840.949333,213.024 L842.557333,213.024 L842.557333,223.968 C842.541333,225.712009 841.913339,227.171994 840.673333,228.348 C839.433327,229.524006 837.997341,230.112 836.365333,230.112 C834.877326,230.112 833.609338,229.716004 832.561333,228.924 C831.513328,228.131996 830.805335,227.240005 830.437333,226.248 L831.733333,225.6 C832.037335,226.416004 832.613329,227.127997 833.461333,227.736 C834.309337,228.344003 835.277328,228.648 836.365333,228.648 C837.64534,228.648 838.729329,228.180005 839.617333,227.244 C840.505338,226.307995 840.957333,225.216006 840.973333,223.968 L840.949333,223.968 L840.949333,223.08 C839.733327,224.504007 838.173343,225.216 836.269333,225.216 C834.557325,225.216 833.097339,224.612006 831.889333,223.404 C830.681327,222.195994 830.077333,220.736009 830.077333,219.024 C830.077333,217.311991 830.681327,215.852006 831.889333,214.644 C833.097339,213.435994 834.557325,212.832 836.269333,212.832 C838.157343,212.832 839.717327,213.543993 840.949333,214.968 L840.949333,213.024 Z M836.293333,223.728 C837.58934,223.728 838.681329,223.276005 839.569333,222.372 C840.457338,221.467995 840.901333,220.360007 840.901333,219.048 C840.901333,217.735993 840.457338,216.628005 839.569333,215.724 C838.681329,214.819995 837.58934,214.368 836.293333,214.368 C835.013327,214.368 833.925338,214.819995 833.029333,215.724 C832.133329,216.628005 831.685333,217.735993 831.685333,219.048 C831.685333,220.360007 832.133329,221.467995 833.029333,222.372 C833.925338,223.276005 835.013327,223.728 836.293333,223.728 Z M851.648,212.808 C853.040007,212.808 854.207995,213.299995 855.152,214.284 C856.096005,215.268005 856.568,216.479993 856.568,217.92 L856.568,225 L854.96,225 L854.96,217.968 C854.96,216.943995 854.612003,216.072004 853.916,215.352 C853.219996,214.631996 852.376005,214.272 851.384,214.272 C850.391995,214.272 849.548003,214.631996 848.852,215.352 C848.155996,216.072004 847.808,216.943995 847.808,217.968 L847.808,225 L846.224,225 L846.224,213 L847.808,213 L847.808,214.776 C848.784005,213.463993 850.063992,212.808 851.648,212.808 Z M870.362667,213 L871.946667,213 L871.946667,225 L870.362667,225 L870.362667,223.056 C869.13066,224.480007 867.570676,225.192 865.682667,225.192 C863.970658,225.192 862.510673,224.588006 861.302667,223.38 C860.094661,222.171994 859.490667,220.712009 859.490667,219 C859.490667,217.287991 860.094661,215.828006 861.302667,214.62 C862.510673,213.411994 863.970658,212.808 865.682667,212.808 C867.586676,212.808 869.146661,213.519993 870.362667,214.944 L870.362667,213 Z M865.706667,223.68 C867.002673,223.68 868.094662,223.228005 868.982667,222.324 C869.870671,221.419995 870.314667,220.312007 870.314667,219 C870.314667,217.687993 869.870671,216.580005 868.982667,215.676 C868.094662,214.771995 867.002673,214.32 865.706667,214.32 C864.42666,214.32 863.334671,214.771995 862.430667,215.676 C861.526662,216.580005 861.074667,217.687993 861.074667,219 C861.074667,220.312007 861.526662,221.419995 862.430667,222.324 C863.334671,223.228005 864.42666,223.68 865.706667,223.68 Z M875.997333,225 L875.997333,207.144 L877.581333,207.144 L877.581333,225 L875.997333,225 Z" id="PWMSignal" fill="#23ABE3" fill-rule="nonzero"></path>
        </g>
        <g id="PWM_50p_DutyCycle" transform="translate(24.000000, 33.000000)">
            <g id="Axis">
                <path d="M115.5,21.5 L115.5,108.706651" id="Line" stroke="#524740" stroke-width="3" stroke-linecap="square"></path>
                <path d="M116.5,109.5 L846.502472,109.5" id="Line" stroke="#524740" stroke-width="3" stroke-linecap="square"></path>
                <path d="M115.5,21.5 L105.5,21.5" id="Line" stroke="#524740" stroke-width="3" stroke-linecap="square"></path>
                <path d="M115.5,109.5 L105.5,109.5" id="Line-Copy-8" stroke="#524740" stroke-width="3" stroke-linecap="square"></path>
                <path d="M61.34,25.24 C61.2279994,25.3360005 61.0880008,25.483999 60.92,25.684 C60.7519992,25.884001 60.5960007,26.0439994 60.452,26.164 C60.3079993,26.2840006 60.1640007,26.344 60.02,26.344 C59.8919994,26.344 59.7760005,26.2920005 59.672,26.188 C59.5679995,26.0839995 59.516,25.9520008 59.516,25.792 C59.516,25.5039986 59.7239979,25.2080015 60.14,24.904 L61.916,23.488 C62.3800023,23.1359982 62.7599985,22.6840028 63.056,22.132 C63.3520015,21.5799972 63.5,21.008003 63.5,20.416 C63.5,19.7439966 63.2600024,19.208002 62.78,18.808 C62.2999976,18.407998 61.6680039,18.208 60.884,18.208 C60.0519958,18.208 59.3560028,18.5599965 58.796,19.264 C58.2359972,19.9680035 58.2439971,20.815995 58.82,21.808 L58.1,22.552 C57.1719954,21.9919972 56.6720004,21.2840043 56.6,20.428 C56.5279996,19.5719957 56.891996,18.8200032 57.692,18.172 C58.492004,17.5239968 59.5559934,17.2 60.884,17.2 C62.1160062,17.2 63.1879954,17.495997 64.1,18.088 C65.0120046,18.680003 65.468,19.4559952 65.468,20.416 C65.468,20.7680018 65.3920008,21.1279982 65.24,21.496 C65.0879992,21.8640018 64.9040011,22.1759987 64.688,22.432 C64.4719989,22.6880013 64.2560011,22.9239989 64.04,23.14 C63.8239989,23.3560011 63.6440007,23.5199994 63.5,23.632 L63.26,23.776 L62.156,24.616 C63.3080058,24.8560012 64.2199966,25.3279965 64.892,26.032 C65.5640034,26.7360035 65.9,27.5519954 65.9,28.48 C65.9,29.5840055 65.4400046,30.5279961 64.52,31.312 C63.5999954,32.0960039 62.4680067,32.488 61.124,32.488 C59.8279935,32.488 58.7640042,32.1760031 57.932,31.552 C57.0999958,30.9279969 56.684,30.3360028 56.684,29.776 C56.684,29.4079982 56.8919979,29.224 57.308,29.224 C57.4680008,29.224 57.6079994,29.2959993 57.728,29.44 C57.8480006,29.5840007 57.9839992,29.7839987 58.136,30.04 C58.2880008,30.2960013 58.4359993,30.4959993 58.58,30.64 C59.172003,31.2640031 59.9559951,31.576 60.932,31.576 C61.8760047,31.576 62.5839976,31.2920028 63.056,30.724 C63.5280024,30.1559972 63.764,29.4080046 63.764,28.48 C63.764,27.7119962 63.568002,27.024003 63.176,26.416 C62.783998,25.807997 62.1720042,25.4160009 61.34,25.24 Z M72.404,26.944 C72.404,27.2800017 72.2680014,27.5719988 71.996,27.82 C71.7239986,28.0680012 71.4040018,28.192 71.036,28.192 C70.6679982,28.192 70.3560013,28.0680012 70.1,27.82 C69.8439987,27.5719988 69.716,27.2800017 69.716,26.944 C69.716,26.5919982 69.8439987,26.2920012 70.1,26.044 C70.3560013,25.7959988 70.6679982,25.672 71.036,25.672 C71.4040018,25.672 71.7239986,25.7959988 71.996,26.044 C72.2680014,26.2920012 72.404,26.5919982 72.404,26.944 Z M81.044,25.24 C80.9319994,25.3360005 80.7920008,25.483999 80.624,25.684 C80.4559992,25.884001 80.3000007,26.0439994 80.156,26.164 C80.0119993,26.2840006 79.8680007,26.344 79.724,26.344 C79.5959994,26.344 79.4800005,26.2920005 79.376,26.188 C79.2719995,26.0839995 79.22,25.9520008 79.22,25.792 C79.22,25.5039986 79.4279979,25.2080015 79.844,24.904 L81.62,23.488 C82.0840023,23.1359982 82.4639985,22.6840028 82.76,22.132 C83.0560015,21.5799972 83.204,21.008003 83.204,20.416 C83.204,19.7439966 82.9640024,19.208002 82.484,18.808 C82.0039976,18.407998 81.3720039,18.208 80.588,18.208 C79.7559958,18.208 79.0600028,18.5599965 78.5,19.264 C77.9399972,19.9680035 77.9479971,20.815995 78.524,21.808 L77.804,22.552 C76.8759954,21.9919972 76.3760004,21.2840043 76.304,20.428 C76.2319996,19.5719957 76.595996,18.8200032 77.396,18.172 C78.196004,17.5239968 79.2599934,17.2 80.588,17.2 C81.8200062,17.2 82.8919954,17.495997 83.804,18.088 C84.7160046,18.680003 85.172,19.4559952 85.172,20.416 C85.172,20.7680018 85.0960008,21.1279982 84.944,21.496 C84.7919992,21.8640018 84.6080011,22.1759987 84.392,22.432 C84.1759989,22.6880013 83.9600011,22.9239989 83.744,23.14 C83.5279989,23.3560011 83.3480007,23.5199994 83.204,23.632 L82.964,23.776 L81.86,24.616 C83.0120058,24.8560012 83.9239966,25.3279965 84.596,26.032 C85.2680034,26.7360035 85.604,27.5519954 85.604,28.48 C85.604,29.5840055 85.1440046,30.5279961 84.224,31.312 C83.3039954,32.0960039 82.1720067,32.488 80.828,32.488 C79.5319935,32.488 78.4680042,32.1760031 77.636,31.552 C76.8039958,30.9279969 76.388,30.3360028 76.388,29.776 C76.388,29.4079982 76.5959979,29.224 77.012,29.224 C77.1720008,29.224 77.3119994,29.2959993 77.432,29.44 C77.5520006,29.5840007 77.6879992,29.7839987 77.84,30.04 C77.9920008,30.2960013 78.1399993,30.4959993 78.284,30.64 C78.876003,31.2640031 79.6599951,31.576 80.636,31.576 C81.5800047,31.576 82.2879976,31.2920028 82.76,30.724 C83.2320024,30.1559972 83.468,29.4080046 83.468,28.48 C83.468,27.7119962 83.272002,27.024003 82.88,26.416 C82.487998,25.807997 81.8760042,25.4160009 81.044,25.24 Z M102.74,14.104 C101.795995,14.104 101.184001,14.2199988 100.904,14.452 C100.623999,14.6840012 100.284002,15.2639954 99.884,16.192 L94.604,28.408 L94.292,28.408 L88.988,16.192 C88.587998,15.2639954 88.2480014,14.6840012 87.968,14.452 C87.6879986,14.2199988 87.0760047,14.104 86.132,14.104 L86.132,13.6 L92.78,13.6 L92.78,14.104 C91.787995,14.104 91.1520014,14.2439986 90.872,14.524 C90.5919986,14.8040014 90.6039985,15.2719967 90.908,15.928 L94.988,25.264 L99.02,15.928 C99.3240015,15.2719967 99.3360014,14.8040014 99.056,14.524 C98.7759986,14.2439986 98.140005,14.104 97.148,14.104 L97.148,13.6 L102.74,13.6 L102.74,14.104 Z" id="3.3V" fill="#524740" fill-rule="nonzero"></path>
                <path d="M74.636,103.856 C75.7400055,102.751994 77.0599923,102.2 78.596,102.2 C80.1320077,102.2 81.4479945,102.747995 82.544,103.844 C83.6400055,104.940005 84.188,106.255992 84.188,107.792 C84.188,109.344008 83.6400055,110.667995 82.544,111.764 C81.4479945,112.860005 80.1320077,113.408 78.596,113.408 C77.0599923,113.408 75.7440055,112.860005 74.648,111.764 C73.5519945,110.667995 73.004,109.344008 73.004,107.792 C73.004,106.255992 73.5479946,104.944005 74.636,103.856 Z M78.596,103.568 C77.4759944,103.568 76.520004,103.983996 75.728,104.816 C74.935996,105.648004 74.54,106.639994 74.54,107.792 C74.54,108.960006 74.935996,109.955996 75.728,110.78 C76.520004,111.604004 77.4759944,112.016 78.596,112.016 C79.7000055,112.016 80.651996,111.604004 81.452,110.78 C82.252004,109.955996 82.652,108.960006 82.652,107.792 C82.652,106.639994 82.252004,105.648004 81.452,104.816 C80.651996,103.983996 79.7000055,103.568 78.596,103.568 Z M101.396,99.104 C100.451995,99.104 99.8400014,99.2199988 99.56,99.452 C99.2799986,99.6840012 98.940002,100.263995 98.54,101.192 L93.26,113.408 L92.948,113.408 L87.644,101.192 C87.243998,100.263995 86.9040014,99.6840012 86.624,99.452 C86.3439986,99.2199988 85.7320047,99.104 84.788,99.104 L84.788,98.6 L91.436,98.6 L91.436,99.104 C90.443995,99.104 89.8080014,99.2439986 89.528,99.524 C89.2479986,99.8040014 89.2599985,100.271997 89.564,100.928 L93.644,110.264 L97.676,100.928 C97.9800015,100.271997 97.9920014,99.8040014 97.712,99.524 C97.4319986,99.2439986 96.796005,99.104 95.804,99.104 L95.804,98.6 L101.396,98.6 L101.396,99.104 Z" id="0V" fill="#524740" fill-rule="nonzero"></path>
                <path d="M416.452,125.6 L416.668,128.84 L416.164,128.84 L416.044,128.36 C415.851999,127.639996 415.596002,127.156001 415.276,126.908 C414.955998,126.659999 414.284005,126.536 413.26,126.536 L410.116,126.536 L410.116,136.688 C410.116,137.888006 410.251999,138.655998 410.524,138.992 C410.796001,139.328002 411.427995,139.496 412.42,139.496 L412.42,140 L405.916,140 L405.916,139.496 C406.908005,139.496 407.539999,139.328002 407.812,138.992 C408.084001,138.655998 408.22,137.888006 408.22,136.688 L408.22,126.536 L405.076,126.536 C404.051995,126.536 403.380002,126.659999 403.06,126.908 C402.739998,127.156001 402.484001,127.639996 402.292,128.36 L402.172,128.84 L401.668,128.84 L401.884,125.6 L416.452,125.6 Z M423.268,140 L417.772,140 L417.772,139.496 C418.572004,139.496 419.087999,139.328002 419.32,138.992 C419.552001,138.655998 419.668,137.888006 419.668,136.688 L419.668,135.488 C419.668,134.303994 419.552001,133.544002 419.32,133.208 C419.087999,132.871998 418.572004,132.704 417.772,132.704 L417.772,132.2 L421.372,131.6 L421.372,136.688 C421.372,137.888006 421.487999,138.655998 421.72,138.992 C421.952001,139.328002 422.467996,139.496 423.268,139.496 L423.268,140 Z M421.564,128.168 C421.564,128.472002 421.460001,128.727999 421.252,128.936 C421.043999,129.144001 420.796001,129.248 420.508,129.248 C420.219999,129.248 419.972001,129.144001 419.764,128.936 C419.555999,128.727999 419.452,128.472002 419.452,128.168 C419.452,127.879999 419.555999,127.632001 419.764,127.424 C419.972001,127.215999 420.219999,127.112 420.508,127.112 C420.796001,127.112 421.043999,127.215999 421.252,127.424 C421.460001,127.632001 421.564,127.879999 421.564,128.168 Z M434.116,135.128 L434.116,136.688 C434.116,137.952006 434.199999,138.735998 434.368,139.04 C434.536001,139.344002 434.955997,139.496 435.628,139.496 L435.628,140 L430.924,140 L430.924,139.496 C431.596003,139.496 432.015999,139.344002 432.184,139.04 C432.352001,138.735998 432.436,137.952006 432.436,136.688 L432.436,135.296 C432.436,133.583991 431.860006,132.728 430.708,132.728 C430.211998,132.728 429.676003,132.959998 429.1,133.424 C428.523997,133.888002 428.236,134.455997 428.236,135.128 L428.236,136.688 C428.236,137.936006 428.319999,138.715998 428.488,139.028 C428.656001,139.340002 429.067997,139.496 429.724,139.496 L429.724,140 L424.636,140 L424.636,139.496 C425.436004,139.496 425.951999,139.328002 426.184,138.992 C426.416001,138.655998 426.532,137.888006 426.532,136.688 L426.532,135.488 C426.532,134.303994 426.416001,133.544002 426.184,133.208 C425.951999,132.871998 425.436004,132.704 424.636,132.704 L424.636,132.2 L427.828,131.6 C427.972001,131.904002 428.107999,132.479996 428.236,133.328 C429.148005,132.175994 430.187994,131.6 431.356,131.6 C432.684007,131.6 433.531998,132.199994 433.9,133.4 C434.220002,132.951998 434.695997,132.540002 435.328,132.164 C435.960003,131.787998 436.603997,131.6 437.26,131.6 C439.100009,131.6 440.02,132.791988 440.02,135.176 L440.02,136.688 C440.02,137.888006 440.135999,138.655998 440.368,138.992 C440.600001,139.328002 441.115996,139.496 441.916,139.496 L441.916,140 L436.828,140 L436.828,139.496 C437.500003,139.496 437.915999,139.344002 438.076,139.04 C438.236001,138.735998 438.316,137.952006 438.316,136.688 L438.316,135.296 C438.316,133.583991 437.748006,132.728 436.612,132.728 C436.115998,132.728 435.576003,132.959998 434.992,133.424 C434.407997,133.888002 434.116,134.455997 434.116,135.128 Z M445.612,134.504 L449.596,134.504 C449.756001,134.055998 449.688001,133.620002 449.392,133.196 C449.095999,132.771998 448.588004,132.56 447.868,132.56 C447.355997,132.56 446.896002,132.735998 446.488,133.088 C446.079998,133.440002 445.788001,133.911997 445.612,134.504 Z M445.468,135.392 C445.323999,136.576006 445.511997,137.539996 446.032,138.284 C446.552003,139.028004 447.403994,139.4 448.588,139.4 C448.988002,139.4 449.443997,139.296001 449.956,139.088 C450.468003,138.879999 450.891998,138.616002 451.228,138.296 L451.66,138.824 C451.227998,139.288002 450.676003,139.667999 450.004,139.964 C449.331997,140.260001 448.660003,140.408 447.988,140.408 C446.691994,140.408 445.628004,139.980004 444.796,139.124 C443.963996,138.267996 443.548,137.224006 443.548,135.992 C443.548,134.759994 443.999995,133.720004 444.904,132.872 C445.808005,132.023996 446.835994,131.6 447.988,131.6 C449.076005,131.6 449.963997,131.979996 450.652,132.74 C451.340003,133.500004 451.540001,134.383995 451.252,135.392 L445.468,135.392 Z" id="Time" fill="#524740" fill-rule="nonzero"></path>
                <path d="M648.732,2.6 C650.348008,2.6 651.611995,2.98399616 652.524,3.752 C653.436005,4.52000384 653.892,5.48799416 653.892,6.656 C653.892,7.82400584 653.436005,8.7879962 652.524,9.548 C651.611995,10.3080038 650.348008,10.688 648.732,10.688 L646.596,10.688 L646.596,13.688 C646.596,14.888006 646.727999,15.6559983 646.992,15.992 C647.256001,16.3280017 647.883995,16.496 648.876,16.496 L648.876,17 L642.396,17 L642.396,16.496 C643.388005,16.496 644.015999,16.3280017 644.28,15.992 C644.544001,15.6559983 644.676,14.888006 644.676,13.688 L644.676,5.888 C644.676,4.687994 644.544001,3.92400164 644.28,3.596 C644.015999,3.26799836 643.388005,3.104 642.396,3.104 L642.396,2.6 L648.732,2.6 Z M648.708,9.824 C649.700005,9.824 650.455997,9.52800296 650.976,8.936 C651.496003,8.34399704 651.756,7.58400464 651.756,6.656 C651.756,5.72799536 651.496003,4.96800296 650.976,4.376 C650.455997,3.78399704 649.700005,3.488 648.708,3.488 L646.596,3.488 L646.596,9.824 L648.708,9.824 Z M664.212,6.776 L660.828,17.408 L660.516,17.408 L656.628,5.192 C656.339999,4.27999544 656.036002,3.7040012 655.716,3.464 C655.395998,3.2239988 654.748005,3.104 653.772,3.104 L653.772,2.6 L660.492,2.6 L660.492,3.104 C659.515995,3.104 658.904001,3.23599868 658.656,3.5 C658.407999,3.76400132 658.387999,4.23999656 658.596,4.928 L661.236,13.208 L664.596,2.6 L664.932,2.6 L668.292,13.184 L670.908,4.928 C671.116001,4.25599664 671.100001,3.78400136 670.86,3.512 C670.619999,3.23999864 670.076004,3.104 669.228,3.104 L669.228,2.6 L674.628,2.6 L674.628,3.104 C673.667995,3.104 673.020002,3.23999864 672.684,3.512 C672.347998,3.78400136 672.044001,4.34399576 671.772,5.192 L667.884,17.408 L667.572,17.408 L664.212,6.776 Z M677.796,5.144 L677.796,13.688 C677.796,14.888006 677.931999,15.6559983 678.204,15.992 C678.476001,16.3280017 679.107995,16.496 680.1,16.496 L680.1,17 L674.628,17 L674.628,16.496 C675.620005,16.496 676.247999,16.3280017 676.512,15.992 C676.776001,15.6559983 676.908,14.888006 676.908,13.688 L676.908,5.888 C676.908,4.687994 676.776001,3.92400164 676.512,3.596 C676.247999,3.26799836 675.620005,3.104 674.628,3.104 L674.628,2.6 L678.708,2.6 L683.796,14.288 L688.86,2.6 L692.628,2.6 L692.628,3.104 C691.619995,3.104 690.984001,3.26799836 690.72,3.596 C690.455999,3.92400164 690.324,4.687994 690.324,5.888 L690.324,13.688 C690.324,14.9040061 690.455999,15.6759984 690.72,16.004 C690.984001,16.3320016 691.619995,16.496 692.628,16.496 L692.628,17 L686.148,17 L686.148,16.496 C687.140005,16.496 687.767999,16.3280017 688.032,15.992 C688.296001,15.6559983 688.428,14.888006 688.428,13.688 L688.428,5.864 L683.436,17.408 L683.124,17.408 L677.796,5.144 Z" id="PWM" fill="#EF7D3B" fill-rule="nonzero"></path>
                <path d="M741.848,51.008 L740.696,53.672 C740.391998,54.3280033 740.379999,54.7959986 740.66,55.076 C740.940001,55.3560014 741.575995,55.496 742.568,55.496 L742.568,56 L736.952,56 L736.952,55.496 C737.464003,55.496 737.859999,55.4760002 738.14,55.436 C738.420001,55.3959998 738.667999,55.2680011 738.884,55.052 C739.100001,54.8359989 739.252,54.6400009 739.34,54.464 C739.428,54.2879991 739.591999,53.9360026 739.832,53.408 L745.112,41.192 L745.424,41.192 L750.728,53.408 C750.968001,53.9360026 751.132,54.2879991 751.22,54.464 C751.308,54.6400009 751.459999,54.8359989 751.676,55.052 C751.892001,55.2680011 752.135999,55.3959998 752.408,55.436 C752.680001,55.4760002 753.071997,55.496 753.584,55.496 L753.584,56 L746.936,56 L746.936,55.496 C747.928005,55.496 748.559999,55.3560014 748.832,55.076 C749.104001,54.7959986 749.096001,54.3280033 748.808,53.672 L747.656,51.008 L741.848,51.008 Z M747.248,50.12 L744.728,44.336 L742.232,50.12 L747.248,50.12 Z M761.912,48.488 C761.495998,48.488 761.164001,48.591999 760.916,48.8 C760.667999,49.008001 760.432001,49.3759974 760.208,49.904 L757.496,56.432 L757.016,56.432 L754.088,49.904 C753.847999,49.3759974 753.612001,49.008001 753.38,48.8 C753.147999,48.591999 752.840002,48.488 752.456,48.488 L752.456,48.008 L756.704,48.008 L756.704,48.488 C756.159997,48.488 755.84,48.5799991 755.744,48.764 C755.648,48.9480009 755.719999,49.3279971 755.96,49.904 L757.664,53.744 L759.248,49.904 C759.488001,49.3919974 759.56,49.0280011 759.464,48.812 C759.368,48.5959989 759.064003,48.488 758.552,48.488 L758.552,48.008 L761.912,48.008 L761.912,48.488 Z M764.84,50.504 L768.824,50.504 C768.984001,50.0559978 768.916001,49.6200021 768.62,49.196 C768.323999,48.7719979 767.816004,48.56 767.096,48.56 C766.583997,48.56 766.124002,48.7359982 765.716,49.088 C765.307998,49.4400018 765.016001,49.911997 764.84,50.504 Z M764.696,51.392 C764.551999,52.5760059 764.739997,53.5399963 765.26,54.284 C765.780003,55.0280037 766.631994,55.4 767.816,55.4 C768.216002,55.4 768.671997,55.296001 769.184,55.088 C769.696003,54.879999 770.119998,54.6160016 770.456,54.296 L770.888,54.824 C770.455998,55.2880023 769.904003,55.6679985 769.232,55.964 C768.559997,56.2600015 767.888003,56.408 767.216,56.408 C765.919994,56.408 764.856004,55.9800043 764.024,55.124 C763.191996,54.2679957 762.776,53.2240062 762.776,51.992 C762.776,50.7599938 763.227995,49.7200042 764.132,48.872 C765.036005,48.0239958 766.063994,47.6 767.216,47.6 C768.304005,47.6 769.191997,47.9799962 769.88,48.74 C770.568003,49.5000038 770.768001,50.383995 770.48,51.392 L764.696,51.392 Z M780.68,49.088 C780.68,49.8400038 780.360003,50.216 779.72,50.216 C779.495999,50.216 779.300001,50.1280009 779.132,49.952 C778.963999,49.7759991 778.88,49.5760011 778.88,49.352 C778.88,48.8239974 778.624003,48.56 778.112,48.56 C777.743998,48.56 777.344002,48.8159974 776.912,49.328 C776.479998,49.8400026 776.264,50.5199958 776.264,51.368 L776.264,52.688 C776.264,53.888006 776.379999,54.6559983 776.612,54.992 C776.844001,55.3280017 777.359996,55.496 778.16,55.496 L778.16,56 L772.664,56 L772.664,55.496 C773.464004,55.496 773.979999,55.3280017 774.212,54.992 C774.444001,54.6559983 774.56,53.888006 774.56,52.688 L774.56,51.488 C774.56,50.3039941 774.444001,49.5440017 774.212,49.208 C773.979999,48.8719983 773.464004,48.704 772.664,48.704 L772.664,48.2 L775.856,47.6 C776.000001,47.9040015 776.135999,48.4799958 776.264,49.328 C776.504001,48.8479976 776.863998,48.4400017 777.344,48.104 C777.824002,47.7679983 778.303998,47.6 778.784,47.6 C779.392003,47.6 779.859998,47.7599984 780.188,48.08 C780.516002,48.4000016 780.68,48.7359982 780.68,49.088 Z M790.472,55.52 C790.007998,56.0160025 789.480003,56.264 788.888,56.264 C787.927995,56.264 787.384001,55.8000046 787.256,54.872 C786.183995,55.8320048 785.184005,56.312 784.256,56.312 C783.647997,56.312 783.136002,56.1320018 782.72,55.772 C782.303998,55.4119982 782.096,54.9200031 782.096,54.296 C782.096,52.6159916 783.799983,51.480003 787.208,50.888 C787.208,49.9439953 787.104001,49.2880018 786.896,48.92 C786.687999,48.5519982 786.256003,48.368 785.6,48.368 C785.279998,48.368 784.972001,48.471999 784.676,48.68 C784.379999,48.888001 784.232,49.1679982 784.232,49.52 C784.232,49.7600012 784.152001,49.9599992 783.992,50.12 C783.831999,50.2800008 783.640001,50.36 783.416,50.36 C783.175999,50.36 782.976001,50.2800008 782.816,50.12 C782.655999,49.9599992 782.576,49.7600012 782.576,49.52 C782.576,48.9599972 782.883997,48.5000018 783.5,48.14 C784.116003,47.7799982 784.823996,47.6 785.624,47.6 C786.792006,47.6 787.631997,47.8559974 788.144,48.368 C788.656003,48.8800026 788.912,49.7119942 788.912,50.864 L788.912,54.488 C788.912,55.1120031 789.095998,55.424 789.464,55.424 C789.672001,55.424 789.895999,55.3040012 790.136,55.064 L790.472,55.52 Z M787.208,54.08 L787.208,51.632 C784.999989,52.1440026 783.896,52.9359946 783.896,54.008 C783.896,54.3760018 784.003999,54.6719989 784.22,54.896 C784.436001,55.1200011 784.703998,55.232 785.024,55.232 C785.616003,55.232 786.343996,54.8480038 787.208,54.08 Z M796.712,52.664 C797.016002,52.1999977 797.168,51.6000037 797.168,50.864 C797.168,50.1279963 797.020001,49.5280023 796.724,49.064 C796.427999,48.5999977 796.000003,48.368 795.44,48.368 C794.879997,48.368 794.448002,48.5999977 794.144,49.064 C793.839998,49.5280023 793.688,50.1279963 793.688,50.864 C793.688,51.6000037 793.839998,52.1959977 794.144,52.652 C794.448002,53.1080023 794.879997,53.336 795.44,53.336 C796.000003,53.336 796.423999,53.1120022 796.712,52.664 Z M793.208,55.136 C793.208,55.6160024 793.935993,55.9199994 795.392,56.048 C796.928008,56.1760006 798.039997,56.5279971 798.728,57.104 C799.416003,57.6800029 799.76,58.3759959 799.76,59.192 C799.76,60.1680049 799.356004,60.9479971 798.548,61.532 C797.739996,62.1160029 796.728006,62.408 795.512,62.408 C794.215994,62.408 793.172004,62.1400027 792.38,61.604 C791.587996,61.0679973 791.224,60.4400036 791.288,59.72 C791.352,58.9999964 791.863995,58.3920025 792.824,57.896 L793.256,58.16 C792.791998,58.6880026 792.544,59.1719978 792.512,59.612 C792.48,60.0520022 792.619998,60.3999987 792.932,60.656 C793.244002,60.9120013 793.627998,61.1119993 794.084,61.256 C794.540002,61.4000007 795.015998,61.472 795.512,61.472 C796.296004,61.472 796.987997,61.3000017 797.588,60.956 C798.188003,60.6119983 798.488,60.1680027 798.488,59.624 C798.488,59.0959974 798.228003,58.7120012 797.708,58.472 C797.187997,58.2319988 796.376006,58.0560006 795.272,57.944 C792.999989,57.7199989 791.864,56.9760063 791.864,55.712 C791.864,54.8479957 792.535993,54.2080021 793.88,53.792 C793.255997,53.5039986 792.764002,53.1040026 792.404,52.592 C792.043998,52.0799974 791.864,51.5040032 791.864,50.864 C791.864,49.9679955 792.211997,49.2000032 792.908,48.56 C793.604003,47.9199968 794.447995,47.6 795.44,47.6 C796.400005,47.6 797.223997,47.903997 797.912,48.512 C798.120001,48.2559987 798.403998,48.0400009 798.764,47.864 C799.124002,47.6879991 799.439999,47.6 799.712,47.6 C800.416004,47.6 800.863999,47.895997 801.056,48.488 C801.200001,48.9360022 801.128001,49.2719989 800.84,49.496 C800.744,49.5760004 800.632001,49.616 800.504,49.616 C800.263999,49.6320001 800.084001,49.5840006 799.964,49.472 C799.843999,49.3599994 799.772,49.2360007 799.748,49.1 C799.724,48.9639993 799.660001,48.8360006 799.556,48.716 C799.451999,48.5959994 799.288001,48.536 799.064,48.536 C798.823999,48.536 798.576001,48.6639987 798.32,48.92 C798.784002,49.4800028 799.016,50.1279963 799.016,50.864 C799.016,51.7120042 798.704003,52.439997 798.08,53.048 C797.455997,53.656003 796.728004,54.0159994 795.896,54.128 C794.103991,54.336001 793.208,54.6719977 793.208,55.136 Z M804.224,50.504 L808.208,50.504 C808.368001,50.0559978 808.300001,49.6200021 808.004,49.196 C807.707999,48.7719979 807.200004,48.56 806.48,48.56 C805.967997,48.56 805.508002,48.7359982 805.1,49.088 C804.691998,49.4400018 804.400001,49.911997 804.224,50.504 Z M804.08,51.392 C803.935999,52.5760059 804.123997,53.5399963 804.644,54.284 C805.164003,55.0280037 806.015994,55.4 807.2,55.4 C807.600002,55.4 808.055997,55.296001 808.568,55.088 C809.080003,54.879999 809.503998,54.6160016 809.84,54.296 L810.272,54.824 C809.839998,55.2880023 809.288003,55.6679985 808.616,55.964 C807.943997,56.2600015 807.272003,56.408 806.6,56.408 C805.303994,56.408 804.240004,55.9800043 803.408,55.124 C802.575996,54.2679957 802.16,53.2240062 802.16,51.992 C802.16,50.7599938 802.611995,49.7200042 803.516,48.872 C804.420005,48.0239958 805.447994,47.6 806.6,47.6 C807.688005,47.6 808.575997,47.9799962 809.264,48.74 C809.952003,49.5000038 810.152001,50.383995 809.864,51.392 L804.08,51.392 Z" id="Average" fill="#23ABE3" fill-rule="nonzero"></path>
                <path d="M17.56,56.104 C16.6159953,56.104 16.0040014,56.2199988 15.724,56.452 C15.4439986,56.6840012 15.104002,57.2639954 14.704,58.192 L9.424,70.408 L9.112,70.408 L3.808,58.192 C3.407998,57.2639954 3.0680014,56.6840012 2.788,56.452 C2.5079986,56.2199988 1.89600472,56.104 0.952,56.104 L0.952,55.6 L7.6,55.6 L7.6,56.104 C6.60799504,56.104 5.9720014,56.2439986 5.692,56.524 C5.4119986,56.8040014 5.42399848,57.2719967 5.728,57.928 L9.808,67.264 L13.84,57.928 C14.1440015,57.2719967 14.1560014,56.8040014 13.876,56.524 C13.5959986,56.2439986 12.960005,56.104 11.968,56.104 L11.968,55.6 L17.56,55.6 L17.56,56.104 Z M26.08,62.896 C27.0400048,63.7440042 27.52,64.7759939 27.52,65.992 C27.52,67.2080061 27.0440048,68.2479957 26.092,69.112 C25.1399952,69.9760043 24.0000066,70.408 22.672,70.408 C21.3439934,70.408 20.2040048,69.9760043 19.252,69.112 C18.2999952,68.2479957 17.824,67.2080061 17.824,65.992 C17.824,64.7759939 18.2999952,63.7400043 19.252,62.884 C20.2040048,62.0279957 21.3439934,61.6 22.672,61.6 C24.0000066,61.6 25.1359953,62.0319957 26.08,62.896 Z M24.832,68.512 C25.3280025,67.8559967 25.576,67.0160051 25.576,65.992 C25.576,64.9679949 25.3280025,64.1320032 24.832,63.484 C24.3359975,62.8359968 23.6160047,62.512 22.672,62.512 C21.7279953,62.512 21.0080025,62.8399967 20.512,63.496 C20.0159975,64.1520033 19.768,64.983995 19.768,65.992 C19.768,67.000005 20.0159975,67.8319967 20.512,68.488 C21.0080025,69.1440033 21.7279953,69.472 22.672,69.472 C23.6160047,69.472 24.3359975,69.1520032 24.832,68.512 Z M34.624,70 L29.128,70 L29.128,69.496 C29.928004,69.496 30.4439988,69.3280017 30.676,68.992 C30.9080012,68.6559983 31.024,67.888006 31.024,66.688 L31.024,59.104 C31.024,57.903994 30.9080012,57.1360017 30.676,56.8 C30.4439988,56.4639983 29.928004,56.296 29.128,56.296 L29.128,55.792 L32.728,55.192 L32.728,66.688 C32.728,67.888006 32.8439988,68.6559983 33.076,68.992 C33.3080012,69.3280017 33.823996,69.496 34.624,69.496 L34.624,70 Z M37.024,62.848 L35.776,62.848 L35.776,62.272 C36.4640034,62.1279993 36.9679984,61.8160024 37.288,61.336 C37.6080016,60.8559976 37.8159995,60.2000042 37.912,59.368 L38.728,59.368 L38.728,62.008 L40.816,62.008 L40.816,62.848 L38.728,62.848 L38.728,67.648 C38.728,68.8000058 39.0879964,69.376 39.808,69.376 C40.2720023,69.376 40.7919971,69.1040027 41.368,68.56 L41.776,68.968 C41.4399983,69.368002 41.0360024,69.6959987 40.564,69.952 C40.0919976,70.2080013 39.656002,70.336 39.256,70.336 C38.5679966,70.336 38.024002,70.1120022 37.624,69.664 C37.223998,69.2159978 37.024,68.5440045 37.024,67.648 L37.024,62.848 Z M51.472,69.52 C51.0079977,70.0160025 50.480003,70.264 49.888,70.264 C48.9279952,70.264 48.3840006,69.8000046 48.256,68.872 C47.1839946,69.8320048 46.1840046,70.312 45.256,70.312 C44.647997,70.312 44.1360021,70.1320018 43.72,69.772 C43.3039979,69.4119982 43.096,68.9200031 43.096,68.296 C43.096,66.6159916 44.799983,65.480003 48.208,64.888 C48.208,63.9439953 48.104001,63.2880018 47.896,62.92 C47.687999,62.5519982 47.2560033,62.368 46.6,62.368 C46.2799984,62.368 45.9720015,62.471999 45.676,62.68 C45.3799985,62.888001 45.232,63.1679982 45.232,63.52 C45.232,63.7600012 45.1520008,63.9599992 44.992,64.12 C44.8319992,64.2800008 44.6400011,64.36 44.416,64.36 C44.1759988,64.36 43.9760008,64.2800008 43.816,64.12 C43.6559992,63.9599992 43.576,63.7600012 43.576,63.52 C43.576,62.9599972 43.8839969,62.5000018 44.5,62.14 C45.1160031,61.7799982 45.823996,61.6 46.624,61.6 C47.7920058,61.6 48.6319974,61.8559974 49.144,62.368 C49.6560026,62.8800026 49.912,63.7119942 49.912,64.864 L49.912,68.488 C49.912,69.1120031 50.0959982,69.424 50.464,69.424 C50.672001,69.424 50.8959988,69.3040012 51.136,69.064 L51.472,69.52 Z M48.208,68.08 L48.208,65.632 C45.999989,66.1440026 44.896,66.9359946 44.896,68.008 C44.896,68.3760018 45.0039989,68.6719989 45.22,68.896 C45.4360011,69.1200011 45.7039984,69.232 46.024,69.232 C46.616003,69.232 47.3439957,68.8480038 48.208,68.08 Z M57.712,66.664 C58.0160015,66.1999977 58.168,65.6000037 58.168,64.864 C58.168,64.1279963 58.0200015,63.5280023 57.724,63.064 C57.4279985,62.5999977 57.0000028,62.368 56.44,62.368 C55.8799972,62.368 55.4480015,62.5999977 55.144,63.064 C54.8399985,63.5280023 54.688,64.1279963 54.688,64.864 C54.688,65.6000037 54.8399985,66.1959977 55.144,66.652 C55.4480015,67.1080023 55.8799972,67.336 56.44,67.336 C57.0000028,67.336 57.4239986,67.1120022 57.712,66.664 Z M54.208,69.136 C54.208,69.6160024 54.9359927,69.9199994 56.392,70.048 C57.9280077,70.1760006 59.0399966,70.5279971 59.728,71.104 C60.4160034,71.6800029 60.76,72.3759959 60.76,73.192 C60.76,74.1680049 60.356004,74.9479971 59.548,75.532 C58.739996,76.1160029 57.7280061,76.408 56.512,76.408 C55.2159935,76.408 54.172004,76.1400027 53.38,75.604 C52.587996,75.0679973 52.2239997,74.4400036 52.288,73.72 C52.3520003,72.9999964 52.8639952,72.3920025 53.824,71.896 L54.256,72.16 C53.7919977,72.6880026 53.5440002,73.1719978 53.512,73.612 C53.4799998,74.0520022 53.6199984,74.3999987 53.932,74.656 C54.2440016,74.9120013 54.6279977,75.1119993 55.084,75.256 C55.5400023,75.4000007 56.0159975,75.472 56.512,75.472 C57.2960039,75.472 57.987997,75.3000017 58.588,74.956 C59.188003,74.6119983 59.488,74.1680027 59.488,73.624 C59.488,73.0959974 59.2280026,72.7120012 58.708,72.472 C58.1879974,72.2319988 57.3760055,72.0560006 56.272,71.944 C53.9999886,71.7199989 52.864,70.9760063 52.864,69.712 C52.864,68.8479957 53.5359933,68.2080021 54.88,67.792 C54.2559969,67.5039986 53.7640018,67.1040026 53.404,66.592 C53.0439982,66.0799974 52.864,65.5040032 52.864,64.864 C52.864,63.9679955 53.2119965,63.2000032 53.908,62.56 C54.6040035,61.9199968 55.447995,61.6 56.44,61.6 C57.4000048,61.6 58.2239966,61.903997 58.912,62.512 C59.120001,62.2559987 59.4039982,62.0400009 59.764,61.864 C60.1240018,61.6879991 60.4399986,61.6 60.712,61.6 C61.4160035,61.6 61.863999,61.895997 62.056,62.488 C62.2000007,62.9360022 62.1280014,63.2719989 61.84,63.496 C61.7439995,63.5760004 61.6320006,63.616 61.504,63.616 C61.2639988,63.6320001 61.0840006,63.5840006 60.964,63.472 C60.8439994,63.3599994 60.7720001,63.2360007 60.748,63.1 C60.7239999,62.9639993 60.6600005,62.8360006 60.556,62.716 C60.4519995,62.5959994 60.2880011,62.536 60.064,62.536 C59.8239988,62.536 59.5760013,62.6639987 59.32,62.92 C59.7840023,63.4800028 60.016,64.1279963 60.016,64.864 C60.016,65.7120042 59.7040031,66.439997 59.08,67.048 C58.4559969,67.656003 57.7280042,68.0159994 56.896,68.128 C55.103991,68.336001 54.208,68.6719977 54.208,69.136 Z M65.224,64.504 L69.208,64.504 C69.3680008,64.0559978 69.3000015,63.6200021 69.004,63.196 C68.7079985,62.7719979 68.2000036,62.56 67.48,62.56 C66.9679974,62.56 66.508002,62.7359982 66.1,63.088 C65.691998,63.4400018 65.4000009,63.911997 65.224,64.504 Z M65.08,65.392 C64.9359993,66.5760059 65.1239974,67.5399963 65.644,68.284 C66.1640026,69.0280037 67.0159941,69.4 68.2,69.4 C68.600002,69.4 69.0559974,69.296001 69.568,69.088 C70.0800026,68.879999 70.5039983,68.6160016 70.84,68.296 L71.272,68.824 C70.8399978,69.2880023 70.2880034,69.6679985 69.616,69.964 C68.9439966,70.2600015 68.2720034,70.408 67.6,70.408 C66.3039935,70.408 65.2400042,69.9800043 64.408,69.124 C63.5759958,68.2679957 63.16,67.2240062 63.16,65.992 C63.16,64.7599938 63.6119955,63.7200042 64.516,62.872 C65.4200045,62.0239958 66.4479942,61.6 67.6,61.6 C68.6880054,61.6 69.5759966,61.9799962 70.264,62.74 C70.9520034,63.5000038 71.1520014,64.383995 70.864,65.392 L65.08,65.392 Z" id="Voltage" fill="#524740" fill-rule="nonzero"></path>
            </g>
            <g id="Signal" transform="translate(117.000000, 29.000000)">
                <path d="M1,81 L101,81" id="Line" stroke="#EF7D3B" stroke-width="5" stroke-linecap="square"></path>
                <path d="M101,4.4199765 L101,81" id="Line-Copy-7" stroke="#EF7D3B" stroke-width="5" stroke-linecap="square"></path>
                <path d="M201,4.4199765 L201,81" id="Line-Copy-9" stroke="#EF7D3B" stroke-width="5" stroke-linecap="square"></path>
                <path d="M301,4.4199765 L301,81" id="Line-Copy-10" stroke="#EF7D3B" stroke-width="5" stroke-linecap="square"></path>
                <path d="M401,4.4199765 L401,81" id="Line-Copy-11" stroke="#EF7D3B" stroke-width="5" stroke-linecap="square"></path>
                <path d="M501,4.4199765 L501,81" id="Line-Copy-12" stroke="#EF7D3B" stroke-width="5" stroke-linecap="square"></path>
                <path d="M601,4.4199765 L601,81" id="Line-Copy-13" stroke="#EF7D3B" stroke-width="5" stroke-linecap="square"></path>
                <path d="M101,1 L201,1" id="Line-Copy" stroke="#EF7D3B" stroke-width="5" stroke-linecap="square"></path>
                <path d="M201,81 L301,81" id="Line-Copy-2" stroke="#EF7D3B" stroke-width="5" stroke-linecap="square"></path>
                <path d="M301,1 L401,1" id="Line-Copy-3" stroke="#EF7D3B" stroke-width="5" stroke-linecap="square"></path>
                <path d="M401,81 L501,81" id="Line-Copy-4" stroke="#EF7D3B" stroke-width="5" stroke-linecap="square"></path>
                <path d="M501,1 L601,1" id="Line-Copy-5" stroke="#EF7D3B" stroke-width="5" stroke-linecap="square"></path>
                <path d="M601,81 L701,81" id="Line-Copy-6" stroke="#EF7D3B" stroke-width="5" stroke-linecap="square"></path>
                <path d="M0,40 L702,40" id="Average" stroke="#23ABE3" stroke-width="4"></path>
            </g>
        </g>
    </g>
</svg>