<?xml version="1.0" encoding="UTF-8"?>
<svg width="196px" height="455px" viewBox="0 0 196 455" version="1.1" xmlns="http://www.w3.org/2000/svg" xmlns:xlink="http://www.w3.org/1999/xlink">
    <!-- Generator: Sketch 46 (44423) - http://www.bohemiancoding.com/sketch -->
    <title>Resistors_in_Parallel</title>
    <desc>Created with Sketch.</desc>
    <defs></defs>
    <g id="Page-1" stroke="none" stroke-width="1" fill="none" fill-rule="evenodd">
        <g id="Letter" transform="translate(-1633.000000, -527.000000)">
            <g id="Resistors_in_Parallel" transform="translate(1633.000000, 522.000000)">
                <text id="Source-Voltage-(V)" font-family="Lato-Regular, Lato" font-size="18" font-weight="normal" letter-spacing="0.695049465" fill="#524740">
                    <tspan x="21.2040548" y="456">Source Voltage (V)</tspan>
                </text>
                <polyline id="Path-2" stroke="#524740" stroke-width="2" points="133 270 191 270 191 382 138 382"></polyline>
                <polyline id="Path-2-Copy-2" stroke="#524740" stroke-width="2" transform="translate(34.000000, 326.000000) scale(-1, 1) translate(-34.000000, -326.000000) " points="5 270 63 270 63 382 10 382"></polyline>
                <text id="R3" font-family="Lato-Regular, Lato" font-size="18" font-weight="normal" letter-spacing="0.695049465" fill="#524740">
                    <tspan x="87.9464505" y="242">R3</tspan>
                </text>
                <polyline id="Resistor" stroke="#524740" stroke-width="2" stroke-linejoin="bevel" points="63 270 68 270 73 257 83 283 93 257 103 283 113 257 123 283 128 270 133 270"></polyline>
                <polyline id="Path-2-Copy" stroke="#524740" stroke-width="2" points="133 158 191 158 191 270 138 270"></polyline>
                <polyline id="Path-2-Copy-3" stroke="#524740" stroke-width="2" transform="translate(34.000000, 214.000000) scale(-1, 1) translate(-34.000000, -214.000000) " points="5 158 63 158 63 270 10 270"></polyline>
                <text id="R2" font-family="Lato-Regular, Lato" font-size="18" font-weight="normal" letter-spacing="0.695049465" fill="#524740">
                    <tspan x="87.9464505" y="130">R2</tspan>
                </text>
                <polyline id="Resistor-Copy" stroke="#524740" stroke-width="2" stroke-linejoin="bevel" points="63 158 68 158 73 145 83 171 93 145 103 171 113 145 123 171 128 158 133 158"></polyline>
                <polyline id="Path-2-Copy-5" stroke="#524740" stroke-width="2" points="133 46 191 46 191 158 138 158"></polyline>
                <polyline id="Path-2-Copy-4" stroke="#524740" stroke-width="2" transform="translate(34.000000, 102.000000) scale(-1, 1) translate(-34.000000, -102.000000) " points="5 46 63 46 63 158 10 158"></polyline>
                <circle id="Oval-2" fill="#524740" cx="5" cy="158" r="5"></circle>
                <circle id="Oval-2-Copy-2" fill="#524740" cx="191" cy="158" r="5"></circle>
                <circle id="Oval-2-Copy-4" fill="#524740" cx="5" cy="270" r="5"></circle>
                <circle id="Oval-2-Copy-3" fill="#524740" cx="191" cy="270" r="5"></circle>
                <text id="R1" font-family="Lato-Regular, Lato" font-size="18" font-weight="normal" letter-spacing="0.695049465" fill="#524740">
                    <tspan x="87.9464505" y="18">R1</tspan>
                </text>
                <polyline id="Resistor-Copy-2" stroke="#524740" stroke-width="2" stroke-linejoin="bevel" points="63 46 68 46 73 33 83 59 93 33 103 59 113 33 123 59 128 46 133 46"></polyline>
                <g id="DC_Power" transform="translate(58.000000, 342.000000)">
                    <circle id="Oval" stroke="#524740" stroke-width="2" cx="40" cy="40" r="39"></circle>
                    <text id="+" font-family="Lato-Regular, Lato" font-size="18" font-weight="normal" letter-spacing="0.899999917" fill="#524740">
                        <tspan x="58.33" y="47">+</tspan>
                    </text>
                    <text id="-" font-family="Lato-Regular, Lato" font-size="18" font-weight="normal" letter-spacing="0.899999917" fill="#524740">
                        <tspan x="13.2065" y="46.5">-</tspan>
                    </text>
                </g>
            </g>
        </g>
    </g>
</svg>