<?xml version="1.0"?>
<!DOCTYPE svg PUBLIC "-//W3C//DTD SVG 1.1//EN" "http://www.w3.org/Graphics/SVG/1.1/DTD/svg11.dtd">
<svg viewBox="246 308 276 325" preserveAspectRatio="xMinYMin meet" version="1.1" xmlns="http://www.w3.org/2000/svg">
<g class="Resistor">
<line x1="352" y1="480" x2="368" y2="480" stroke="#877777" stroke-width="3" stroke-linecap="round" fill="none" />
<line x1="400" y1="480" x2="416" y2="480" stroke="#07F707" stroke-width="3" stroke-linecap="round" fill="none" />
<polyline stroke="#877777" stroke-linecap="round" stroke-linejoin="round" stroke-width="3" fill="none" points="368,480 370.6667,472 373.3333,480 376,488 378.6667,480 " />
<polyline stroke="#5F9F5F" stroke-linecap="round" stroke-linejoin="round" stroke-width="3" fill="none" points="378.6667,480 381.3333,472 384,480 386.6667,488 389.3333,480 " />
<polyline stroke="#37C737" stroke-linecap="round" stroke-linejoin="round" stroke-width="3" fill="none" points="389.3333,480 392,472 394.6667,480 397.3333,488 400,480 " />
<text x="369" y="465" font-family="sans-serif">300</text>
</g>
<g class="DC Source">
<line x1="352" y1="576" x2="380" y2="576" stroke="#877777" stroke-width="3" stroke-linecap="round" fill="none" />
<line x1="388" y1="576" x2="416" y2="576" stroke="#07F707" stroke-width="3" stroke-linecap="round" fill="none" />
<line x1="380" y1="566" x2="380" y2="586" stroke="#877777" stroke-width="3" stroke-linecap="round" fill="none" />
<line x1="388" y1="560" x2="388" y2="592" stroke="#07F707" stroke-width="3" stroke-linecap="round" fill="none" />
<text x="374" y="546" font-family="sans-serif">5V</text>
</g>
<g class="Wire">
<line x1="416" y1="480" x2="480" y2="480" stroke="#07F707" stroke-width="1.5" stroke-linecap="round" fill="none" />
<ellipse cx="480" cy="480" rx="4" ry="4" fill="#07F707" stroke="none" />
</g>
<g class="Wire">
<line x1="352" y1="480" x2="288" y2="480" stroke="#877777" stroke-width="1.5" stroke-linecap="round" fill="none" />
<ellipse cx="288" cy="480" rx="4" ry="4" fill="#877777" stroke="none" />
</g>
<g class="Resistor">
<line x1="352" y1="416" x2="368" y2="416" stroke="#877777" stroke-width="3" stroke-linecap="round" fill="none" />
<line x1="400" y1="416" x2="416" y2="416" stroke="#07F707" stroke-width="3" stroke-linecap="round" fill="none" />
<polyline stroke="#877777" stroke-linecap="round" stroke-linejoin="round" stroke-width="3" fill="none" points="368,416 370.6667,408 373.3333,416 376,424 378.6667,416 " />
<polyline stroke="#5F9F5F" stroke-linecap="round" stroke-linejoin="round" stroke-width="3" fill="none" points="378.6667,416 381.3333,408 384,416 386.6667,424 389.3333,416 " />
<polyline stroke="#37C737" stroke-linecap="round" stroke-linejoin="round" stroke-width="3" fill="none" points="389.3333,416 392,408 394.6667,416 397.3333,424 400,416 " />
<text x="369" y="401" font-family="sans-serif">300</text>
</g>
<g class="Resistor">
<line x1="352" y1="352" x2="368" y2="352" stroke="#877777" stroke-width="3" stroke-linecap="round" fill="none" />
<line x1="400" y1="352" x2="416" y2="352" stroke="#07F707" stroke-width="3" stroke-linecap="round" fill="none" />
<polyline stroke="#877777" stroke-linecap="round" stroke-linejoin="round" stroke-width="3" fill="none" points="368,352 370.6667,344 373.3333,352 376,360 378.6667,352 " />
<polyline stroke="#5F9F5F" stroke-linecap="round" stroke-linejoin="round" stroke-width="3" fill="none" points="378.6667,352 381.3333,344 384,352 386.6667,360 389.3333,352 " />
<polyline stroke="#37C737" stroke-linecap="round" stroke-linejoin="round" stroke-width="3" fill="none" points="389.3333,352 392,344 394.6667,352 397.3333,360 400,352 " />
<text x="369" y="337" font-family="sans-serif">300</text>
</g>
<g class="Wire">
<line x1="480" y1="480" x2="480" y2="416" stroke="#07F707" stroke-width="1.5" stroke-linecap="round" fill="none" />
<ellipse cx="480" cy="480" rx="4" ry="4" fill="#07F707" stroke="none" />
<ellipse cx="480" cy="416" rx="4" ry="4" fill="#07F707" stroke="none" />
</g>
<g class="Wire">
<line x1="480" y1="416" x2="416" y2="416" stroke="#07F707" stroke-width="1.5" stroke-linecap="round" fill="none" />
<ellipse cx="480" cy="416" rx="4" ry="4" fill="#07F707" stroke="none" />
</g>
<g class="Wire">
<line x1="480" y1="416" x2="480" y2="352" stroke="#07F707" stroke-width="1.5" stroke-linecap="round" fill="none" />
<ellipse cx="480" cy="416" rx="4" ry="4" fill="#07F707" stroke="none" />
</g>
<g class="Wire">
<line x1="480" y1="352" x2="416" y2="352" stroke="#07F707" stroke-width="1.5" stroke-linecap="round" fill="none" />
</g>
<g class="Wire">
<line x1="288" y1="480" x2="288" y2="416" stroke="#877777" stroke-width="1.5" stroke-linecap="round" fill="none" />
<ellipse cx="288" cy="480" rx="4" ry="4" fill="#877777" stroke="none" />
<ellipse cx="288" cy="416" rx="4" ry="4" fill="#877777" stroke="none" />
</g>
<g class="Wire">
<line x1="288" y1="416" x2="352" y2="416" stroke="#877777" stroke-width="1.5" stroke-linecap="round" fill="none" />
<ellipse cx="288" cy="416" rx="4" ry="4" fill="#877777" stroke="none" />
</g>
<g class="Wire">
<line x1="288" y1="416" x2="288" y2="352" stroke="#877777" stroke-width="1.5" stroke-linecap="round" fill="none" />
<ellipse cx="288" cy="416" rx="4" ry="4" fill="#877777" stroke="none" />
</g>
<g class="Wire">
<line x1="288" y1="352" x2="352" y2="352" stroke="#877777" stroke-width="1.5" stroke-linecap="round" fill="none" />
</g>
<g class="Wire">
<line x1="480" y1="480" x2="480" y2="576" stroke="#07F707" stroke-width="1.5" stroke-linecap="round" fill="none" />
<ellipse cx="480" cy="480" rx="4" ry="4" fill="#07F707" stroke="none" />
</g>
<g class="Wire">
<line x1="416" y1="576" x2="480" y2="576" stroke="#07F707" stroke-width="1.5" stroke-linecap="round" fill="none" />
</g>
<g class="Wire">
<line x1="288" y1="480" x2="288" y2="576" stroke="#877777" stroke-width="1.5" stroke-linecap="round" fill="none" />
<text x="303" y="533" font-family="sans-serif">50mA</text>
<polygon fill="#000000" stroke="none" points="276,548 270,562 264,548 " />
<line x1="270" y1="494" x2="270" y2="548" stroke="#000000" stroke-width="2" stroke-linecap="round" fill="none" />
<ellipse cx="288" cy="480" rx="4" ry="4" fill="#877777" stroke="none" />
</g>
<g class="Wire">
<line x1="352" y1="576" x2="288" y2="576" stroke="#877777" stroke-width="1.5" stroke-linecap="round" fill="none" />
</g>
</svg>
