<?xml version="1.0" encoding="UTF-8"?>
<svg width="900px" height="300px" viewBox="0 0 900 300" version="1.1" xmlns="http://www.w3.org/2000/svg" xmlns:xlink="http://www.w3.org/1999/xlink">
    <!-- Generator: Sketch 60.1 (88133) - https://sketch.com -->
    <title>Battery_EMF</title>
    <desc>Created with Sketch.</desc>
    <g id="Battery_EMF" stroke="none" stroke-width="1" fill="none" fill-rule="evenodd">
        <g id="Illustration_Frame">
            <rect id="Rectangle" stroke="#3D3530" stroke-width="2" fill="#EEEEEE" x="1" y="1" width="898" height="298"></rect>
            <rect id="Rectangle-Copy" stroke="#3D3530" stroke-width="2" fill="#F8FAE4" x="1" y="256" width="898" height="43"></rect>
            <path d="M477.197332,285 L477.197332,283.416 L468.197332,283.416 L468.197332,277.584 L473.261332,277.584 L473.261332,276 L468.197332,276 L468.197332,270.456 L477.197332,270.456 L477.197332,268.872 L466.613332,268.872 L466.613332,285 L477.197332,285 Z M482.279999,285 L482.279999,267.144 L480.695999,267.144 L480.695999,285 L482.279999,285 Z M491.706666,285.072 C493.178666,285.088 494.446666,284.672 495.510666,283.824 C496.574666,282.976 497.290666,282.048 497.658666,281.04 L497.658666,281.04 L496.314666,280.56 C496.010666,281.376 495.434666,282.088 494.586666,282.696 C493.738666,283.304 492.778666,283.608 491.706666,283.608 C490.714666,283.624 489.810666,283.324 488.994666,282.708 C488.178666,282.092 487.634666,281.304 487.362666,280.344 L487.362666,280.344 L497.850666,278.448 C497.850666,278.32 497.842666,278.216 497.826666,278.136 C497.650666,276.6 496.978666,275.312 495.810666,274.272 C494.642666,273.232 493.274666,272.704 491.706666,272.688 C489.978666,272.704 488.514666,273.312 487.314666,274.512 C486.114666,275.712 485.514666,277.176 485.514666,278.904 C485.514666,279.528 485.594666,280.104 485.754666,280.632 C486.154666,281.928 486.910666,282.992 488.022666,283.824 C489.134666,284.656 490.362666,285.072 491.706666,285.072 Z M487.122666,279.048 C487.122666,278.968 487.118666,278.868 487.110666,278.748 C487.102666,278.628 487.098666,278.544 487.098666,278.496 C487.162666,277.312 487.622666,276.296 488.478666,275.448 C489.334666,274.6 490.362666,274.168 491.562666,274.152 C492.586666,274.136 493.514666,274.436 494.346666,275.052 C495.178666,275.668 495.746666,276.464 496.050666,277.44 L496.050666,277.44 L487.122666,279.048 Z M506.701332,285.192 C507.789332,285.192 508.801332,284.924 509.737332,284.388 C510.673332,283.852 511.413332,283.136 511.957332,282.24 L511.957332,282.24 L510.517332,281.544 C510.085332,282.2 509.533332,282.72 508.861332,283.104 C508.189332,283.488 507.469332,283.68 506.701332,283.68 C505.405332,283.68 504.313332,283.228 503.425332,282.324 C502.537332,281.42 502.093332,280.312 502.093332,279 C502.093332,277.688 502.537332,276.58 503.425332,275.676 C504.313332,274.772 505.405332,274.32 506.701332,274.32 C507.469332,274.32 508.189332,274.512 508.861332,274.896 C509.533332,275.28 510.085332,275.8 510.517332,276.456 L510.517332,276.456 L511.957332,275.76 C511.413332,274.864 510.673332,274.148 509.737332,273.612 C508.801332,273.076 507.789332,272.808 506.701332,272.808 C504.989332,272.808 503.529332,273.412 502.321332,274.62 C501.113332,275.828 500.509332,277.288 500.509332,279 C500.509332,280.712 501.113332,282.172 502.321332,283.38 C503.529332,284.588 504.989332,285.192 506.701332,285.192 Z M519.751999,285.192 C520.343999,285.192 520.919999,285.036 521.479999,284.724 C522.039999,284.412 522.399999,284.168 522.559999,283.992 C522.719999,283.816 522.847999,283.664 522.943999,283.536 L522.943999,283.536 L522.151999,282.312 C522.151999,282.376 522.067999,282.516 521.899999,282.732 C521.731999,282.948 521.471999,283.168 521.119999,283.392 C520.767999,283.616 520.407999,283.728 520.039999,283.728 C519.447999,283.728 518.923999,283.512 518.467999,283.08 C518.011999,282.648 517.783999,282.064 517.783999,281.328 L517.783999,281.328 L517.783999,274.44 L521.407999,274.44 L521.407999,272.976 L517.783999,272.976 L517.783999,268.992 L516.199999,269.184 L516.199999,272.976 L514.279999,272.976 L514.279999,274.44 L516.199999,274.44 L516.199999,281.688 C516.199999,282.824 516.539999,283.692 517.219999,284.292 C517.899999,284.892 518.743999,285.192 519.751999,285.192 Z M527.642666,285 L527.642666,277.968 C527.642666,276.928 527.986666,276.052 528.674666,275.34 C529.362666,274.628 530.210666,274.272 531.218666,274.272 C531.906666,274.272 532.586666,274.52 533.258666,275.016 L533.258666,275.016 L533.810666,273.432 C533.106666,273.016 532.330666,272.808 531.482666,272.808 C529.898666,272.808 528.618666,273.464 527.642666,274.776 L527.642666,274.776 L527.642666,273 L526.058666,273 L526.058666,285 L527.642666,285 Z M541.125332,285.192 C542.837332,285.192 544.293332,284.584 545.493332,283.368 C546.709332,282.152 547.317332,280.696 547.317332,279 C547.317332,277.288 546.713332,275.828 545.505332,274.62 C544.297332,273.412 542.837332,272.808 541.125332,272.808 C539.413332,272.808 537.953332,273.412 536.745332,274.62 C535.537332,275.828 534.933332,277.288 534.933332,279 C534.933332,280.712 535.537332,282.172 536.745332,283.38 C537.953332,284.588 539.413332,285.192 541.125332,285.192 Z M541.149332,283.68 C539.869332,283.68 538.781332,283.228 537.885332,282.324 C536.989332,281.42 536.541332,280.312 536.541332,279 C536.541332,277.688 536.989332,276.576 537.885332,275.664 C538.781332,274.752 539.869332,274.296 541.149332,274.296 C542.445332,274.296 543.537332,274.752 544.425332,275.664 C545.313332,276.576 545.757332,277.688 545.757332,279 C545.757332,280.312 545.313332,281.42 544.425332,282.324 C543.537332,283.228 542.445332,283.68 541.149332,283.68 Z M551.943999,285 L551.943999,277.968 C551.943999,276.944 552.291999,276.072 552.987999,275.352 C553.683999,274.632 554.527999,274.272 555.519999,274.272 C556.511999,274.272 557.355999,274.632 558.051999,275.352 C558.747999,276.072 559.095999,276.944 559.095999,277.968 L559.095999,277.968 L559.095999,285 L560.703999,285 L560.703999,277.968 C560.703999,276.928 561.047999,276.052 561.735999,275.34 C562.423999,274.628 563.271999,274.272 564.279999,274.272 C565.287999,274.272 566.131999,274.628 566.811999,275.34 C567.491999,276.052 567.831999,276.928 567.831999,277.968 L567.831999,277.968 L567.831999,285 L569.463999,285 L569.463999,277.92 C569.463999,276.48 568.991999,275.268 568.047999,274.284 C567.103999,273.3 565.935999,272.808 564.543999,272.808 C563.551999,272.808 562.663999,273.04 561.879999,273.504 C561.095999,273.968 560.495999,274.592 560.079999,275.376 C559.647999,274.592 559.051999,273.968 558.291999,273.504 C557.531999,273.04 556.695999,272.808 555.783999,272.808 C554.199999,272.808 552.919999,273.464 551.943999,274.776 L551.943999,274.776 L551.943999,273 L550.359999,273 L550.359999,285 L551.943999,285 Z M578.578666,285.192 C580.466666,285.192 582.026666,284.48 583.258666,283.056 L583.258666,283.056 L583.258666,285 L584.842666,285 L584.842666,273 L583.258666,273 L583.258666,274.944 C582.042666,273.52 580.482666,272.808 578.578666,272.808 C576.866666,272.808 575.406666,273.412 574.198666,274.62 C572.990666,275.828 572.386666,277.288 572.386666,279 C572.386666,280.712 572.990666,282.172 574.198666,283.38 C575.406666,284.588 576.866666,285.192 578.578666,285.192 Z M578.602666,283.68 C577.322666,283.68 576.230666,283.228 575.326666,282.324 C574.422666,281.42 573.970666,280.312 573.970666,279 C573.970666,277.688 574.422666,276.58 575.326666,275.676 C576.230666,274.772 577.322666,274.32 578.602666,274.32 C579.898666,274.32 580.990666,274.772 581.878666,275.676 C582.766666,276.58 583.210666,277.688 583.210666,279 C583.210666,280.312 582.766666,281.42 581.878666,282.324 C580.990666,283.228 579.898666,283.68 578.602666,283.68 Z M594.389333,290.112 C596.021332,290.112 597.457333,289.524 598.697333,288.348 C599.937333,287.172 600.565333,285.712 600.581333,283.968 L600.581333,283.968 L600.581333,273.024 L598.973332,273.024 L598.973332,274.968 C597.741332,273.544 596.181333,272.832 594.293333,272.832 C592.581333,272.832 591.121332,273.436 589.913333,274.644 C588.705333,275.852 588.101333,277.312 588.101333,279.024 C588.101333,280.736 588.705333,282.196 589.913333,283.404 C591.121332,284.612 592.581333,285.216 594.293333,285.216 C596.197333,285.216 597.757332,284.504 598.973332,283.08 L598.973332,283.08 L598.973332,283.968 L598.997332,283.968 C598.981333,285.216 598.529333,286.308 597.641332,287.244 C596.753332,288.18 595.669332,288.648 594.389333,288.648 C593.301332,288.648 592.333332,288.344 591.485333,287.736 C590.637332,287.128 590.061332,286.416 589.757332,285.6 L589.757332,285.6 L588.461333,286.248 C588.829333,287.24 589.537333,288.132 590.585333,288.924 C591.633332,289.716 592.901332,290.112 594.389333,290.112 Z M594.317333,283.728 C593.037332,283.728 591.949332,283.276 591.053333,282.372 C590.157332,281.468 589.709332,280.36 589.709332,279.048 C589.709332,277.736 590.157332,276.628 591.053333,275.724 C591.949332,274.82 593.037332,274.368 594.317333,274.368 C595.613332,274.368 596.705332,274.82 597.593332,275.724 C598.481333,276.628 598.925332,277.736 598.925332,279.048 C598.925332,280.36 598.481333,281.468 597.593332,282.372 C596.705332,283.276 595.613332,283.728 594.317333,283.728 Z M605.831999,285 L605.831999,277.968 C605.831999,276.944 606.179999,276.072 606.875999,275.352 C607.571999,274.632 608.415999,274.272 609.407999,274.272 C610.399999,274.272 611.243999,274.632 611.939999,275.352 C612.635999,276.072 612.983999,276.944 612.983999,277.968 L612.983999,277.968 L612.983999,285 L614.591999,285 L614.591999,277.92 C614.591999,276.48 614.119999,275.268 613.175999,274.284 C612.231999,273.3 611.063999,272.808 609.671999,272.808 C608.087999,272.808 606.807999,273.464 605.831999,274.776 L605.831999,274.776 L605.831999,273 L604.247999,273 L604.247999,285 L605.831999,285 Z M623.706666,285.072 C625.178666,285.088 626.446666,284.672 627.510666,283.824 C628.574666,282.976 629.290666,282.048 629.658666,281.04 L629.658666,281.04 L628.314666,280.56 C628.010666,281.376 627.434666,282.088 626.586666,282.696 C625.738666,283.304 624.778666,283.608 623.706666,283.608 C622.714666,283.624 621.810666,283.324 620.994666,282.708 C620.178666,282.092 619.634666,281.304 619.362666,280.344 L619.362666,280.344 L629.850666,278.448 C629.850666,278.32 629.842666,278.216 629.826666,278.136 C629.650666,276.6 628.978666,275.312 627.810666,274.272 C626.642666,273.232 625.274666,272.704 623.706666,272.688 C621.978666,272.704 620.514666,273.312 619.314666,274.512 C618.114666,275.712 617.514666,277.176 617.514666,278.904 C617.514666,279.528 617.594666,280.104 617.754666,280.632 C618.154666,281.928 618.910666,282.992 620.022666,283.824 C621.134666,284.656 622.362666,285.072 623.706666,285.072 Z M619.122666,279.048 C619.122666,278.968 619.118666,278.868 619.110666,278.748 C619.102666,278.628 619.098666,278.544 619.098666,278.496 C619.162666,277.312 619.622666,276.296 620.478666,275.448 C621.334666,274.6 622.362666,274.168 623.562666,274.152 C624.586666,274.136 625.514666,274.436 626.346666,275.052 C627.178666,275.668 627.746666,276.464 628.050666,277.44 L628.050666,277.44 L619.122666,279.048 Z M637.165333,285.192 C637.757333,285.192 638.333333,285.036 638.893333,284.724 C639.453333,284.412 639.813333,284.168 639.973333,283.992 C640.133333,283.816 640.261333,283.664 640.357333,283.536 L640.357333,283.536 L639.565333,282.312 C639.565333,282.376 639.481333,282.516 639.313333,282.732 C639.145333,282.948 638.885333,283.168 638.533333,283.392 C638.181333,283.616 637.821333,283.728 637.453333,283.728 C636.861333,283.728 636.337333,283.512 635.881333,283.08 C635.425333,282.648 635.197333,282.064 635.197333,281.328 L635.197333,281.328 L635.197333,274.44 L638.821333,274.44 L638.821333,272.976 L635.197333,272.976 L635.197333,268.992 L633.613333,269.184 L633.613333,272.976 L631.693333,272.976 L631.693333,274.44 L633.613333,274.44 L633.613333,281.688 C633.613333,282.824 633.953333,283.692 634.633333,284.292 C635.313333,284.892 636.157333,285.192 637.165333,285.192 Z M644.119999,269.688 C644.391999,269.688 644.615999,269.592 644.791999,269.4 C644.983999,269.208 645.079999,268.984 645.079999,268.728 C645.079999,268.472 644.987999,268.248 644.803999,268.056 C644.619999,267.864 644.391999,267.768 644.119999,267.768 C643.847999,267.768 643.619999,267.864 643.435999,268.056 C643.251999,268.248 643.159999,268.472 643.159999,268.728 C643.159999,268.984 643.251999,269.208 643.435999,269.4 C643.619999,269.592 643.847999,269.688 644.119999,269.688 Z M644.911999,285 L644.911999,273 L643.327999,273 L643.327999,285 L644.911999,285 Z M654.578666,285.192 C655.666666,285.192 656.678666,284.924 657.614666,284.388 C658.550666,283.852 659.290666,283.136 659.834666,282.24 L659.834666,282.24 L658.394666,281.544 C657.962666,282.2 657.410666,282.72 656.738666,283.104 C656.066666,283.488 655.346666,283.68 654.578666,283.68 C653.282666,283.68 652.190666,283.228 651.302666,282.324 C650.414666,281.42 649.970666,280.312 649.970666,279 C649.970666,277.688 650.414666,276.58 651.302666,275.676 C652.190666,274.772 653.282666,274.32 654.578666,274.32 C655.346666,274.32 656.066666,274.512 656.738666,274.896 C657.410666,275.28 657.962666,275.8 658.394666,276.456 L658.394666,276.456 L659.834666,275.76 C659.290666,274.864 658.550666,274.148 657.614666,273.612 C656.678666,273.076 655.666666,272.808 654.578666,272.808 C652.866666,272.808 651.406666,273.412 650.198666,274.62 C648.990666,275.828 648.386666,277.288 648.386666,279 C648.386666,280.712 648.990666,282.172 650.198666,283.38 C651.406666,284.588 652.866666,285.192 654.578666,285.192 Z M672.135999,285 L672.135999,277.752 L677.199999,277.752 L677.199999,276.168 L672.135999,276.168 L672.135999,270.456 L679.479999,270.456 L679.479999,268.872 L670.551999,268.872 L670.551999,285 L672.135999,285 Z M686.218666,285.192 C687.930666,285.192 689.386666,284.584 690.586666,283.368 C691.802666,282.152 692.410666,280.696 692.410666,279 C692.410666,277.288 691.806666,275.828 690.598666,274.62 C689.390666,273.412 687.930666,272.808 686.218666,272.808 C684.506666,272.808 683.046666,273.412 681.838666,274.62 C680.630666,275.828 680.026666,277.288 680.026666,279 C680.026666,280.712 680.630666,282.172 681.838666,283.38 C683.046666,284.588 684.506666,285.192 686.218666,285.192 Z M686.242666,283.68 C684.962666,283.68 683.874666,283.228 682.978666,282.324 C682.082666,281.42 681.634666,280.312 681.634666,279 C681.634666,277.688 682.082666,276.576 682.978666,275.664 C683.874666,274.752 684.962666,274.296 686.242666,274.296 C687.538666,274.296 688.630666,274.752 689.518666,275.664 C690.406666,276.576 690.850666,277.688 690.850666,279 C690.850666,280.312 690.406666,281.42 689.518666,282.324 C688.630666,283.228 687.538666,283.68 686.242666,283.68 Z M697.037333,285 L697.037333,277.968 C697.037333,276.928 697.381333,276.052 698.069333,275.34 C698.757333,274.628 699.605333,274.272 700.613333,274.272 C701.301333,274.272 701.981333,274.52 702.653333,275.016 L702.653333,275.016 L703.205333,273.432 C702.501333,273.016 701.725333,272.808 700.877333,272.808 C699.293333,272.808 698.013333,273.464 697.037333,274.776 L697.037333,274.776 L697.037333,273 L695.453333,273 L695.453333,285 L697.037333,285 Z M710.52,285.192 C711.608,285.192 712.619999,284.924 713.555999,284.388 C714.492,283.852 715.232,283.136 715.776,282.24 L715.776,282.24 L714.336,281.544 C713.904,282.2 713.352,282.72 712.68,283.104 C712.008,283.488 711.288,283.68 710.52,283.68 C709.224,283.68 708.132,283.228 707.243999,282.324 C706.355999,281.42 705.911999,280.312 705.911999,279 C705.911999,277.688 706.355999,276.58 707.243999,275.676 C708.132,274.772 709.224,274.32 710.52,274.32 C711.288,274.32 712.008,274.512 712.68,274.896 C713.352,275.28 713.904,275.8 714.336,276.456 L714.336,276.456 L715.776,275.76 C715.232,274.864 714.492,274.148 713.555999,273.612 C712.619999,273.076 711.608,272.808 710.52,272.808 C708.808,272.808 707.348,273.412 706.14,274.62 C704.932,275.828 704.328,277.288 704.328,279 C704.328,280.712 704.932,282.172 706.14,283.38 C707.348,284.588 708.808,285.192 710.52,285.192 Z M724.338666,285.072 C725.810666,285.088 727.078666,284.672 728.142666,283.824 C729.206666,282.976 729.922666,282.048 730.290666,281.04 L730.290666,281.04 L728.946666,280.56 C728.642666,281.376 728.066666,282.088 727.218666,282.696 C726.370666,283.304 725.410666,283.608 724.338666,283.608 C723.346666,283.624 722.442666,283.324 721.626666,282.708 C720.810666,282.092 720.266666,281.304 719.994666,280.344 L719.994666,280.344 L730.482666,278.448 C730.482666,278.32 730.474666,278.216 730.458666,278.136 C730.282666,276.6 729.610666,275.312 728.442666,274.272 C727.274666,273.232 725.906666,272.704 724.338666,272.688 C722.610666,272.704 721.146666,273.312 719.946666,274.512 C718.746666,275.712 718.146666,277.176 718.146666,278.904 C718.146666,279.528 718.226666,280.104 718.386666,280.632 C718.786666,281.928 719.542666,282.992 720.654666,283.824 C721.766666,284.656 722.994666,285.072 724.338666,285.072 Z M719.754666,279.048 C719.754666,278.968 719.750666,278.868 719.742666,278.748 C719.734666,278.628 719.730666,278.544 719.730666,278.496 C719.794666,277.312 720.254666,276.296 721.110666,275.448 C721.966666,274.6 722.994666,274.168 724.194666,274.152 C725.218666,274.136 726.146666,274.436 726.978666,275.052 C727.810666,275.668 728.378666,276.464 728.682666,277.44 L728.682666,277.44 L719.754666,279.048 Z M746.792,285.192 C748.504,285.192 749.96,284.584 751.16,283.368 C752.376,282.152 752.984,280.696 752.984,279 C752.984,277.288 752.38,275.828 751.172,274.62 C749.964,273.412 748.504,272.808 746.792,272.808 C745.08,272.808 743.62,273.412 742.412,274.62 C741.204,275.828 740.6,277.288 740.6,279 C740.6,280.712 741.204,282.172 742.412,283.38 C743.62,284.588 745.08,285.192 746.792,285.192 Z M746.816,283.68 C745.536,283.68 744.448,283.228 743.552,282.324 C742.656,281.42 742.208,280.312 742.208,279 C742.208,277.688 742.656,276.576 743.552,275.664 C744.448,274.752 745.536,274.296 746.816,274.296 C748.112,274.296 749.204,274.752 750.092,275.664 C750.98,276.576 751.424,277.688 751.424,279 C751.424,280.312 750.98,281.42 750.092,282.324 C749.204,283.228 748.112,283.68 746.816,283.68 Z M758.306666,285 L758.306666,274.272 L760.658666,274.272 L760.658666,272.952 L758.306666,272.952 L758.306666,270.048 C758.306666,269.392 758.362666,268.948 758.474666,268.716 C758.586666,268.484 758.818666,268.368 759.170666,268.368 C759.490666,268.368 759.810666,268.408 760.130666,268.488 L760.130666,268.488 L760.466666,267.264 L760.250666,267.192 C760.106666,267.144 759.886666,267.096 759.590666,267.048 C759.294666,267 759.002666,266.976 758.714666,266.976 C757.402666,266.976 756.746666,267.808 756.746666,269.472 L756.746666,269.472 L756.746666,272.952 L755.330666,272.952 L755.330666,274.272 L756.746666,274.272 L756.746666,285 L758.306666,285 Z M776.8,285.192 C778.688,285.192 780.248,284.48 781.48,283.056 L781.48,283.056 L781.48,285 L783.064,285 L783.064,273 L781.48,273 L781.48,274.944 C780.264,273.52 778.704,272.808 776.8,272.808 C775.088,272.808 773.628,273.412 772.42,274.62 C771.212,275.828 770.608,277.288 770.608,279 C770.608,280.712 771.212,282.172 772.42,283.38 C773.628,284.588 775.088,285.192 776.8,285.192 Z M776.824,283.68 C775.544,283.68 774.452,283.228 773.548,282.324 C772.644,281.42 772.192,280.312 772.192,279 C772.192,277.688 772.644,276.58 773.548,275.676 C774.452,274.772 775.544,274.32 776.824,274.32 C778.12,274.32 779.212,274.772 780.1,275.676 C780.988,276.58 781.432,277.688 781.432,279 C781.432,280.312 780.988,281.42 780.1,282.324 C779.212,283.228 778.12,283.68 776.824,283.68 Z M799.877333,285 C801.685333,285 803.125333,284.58 804.197333,283.74 C805.269333,282.9 805.805333,281.848 805.805333,280.584 C805.805333,279.784 805.569333,279.064 805.097333,278.424 C804.625333,277.784 803.965333,277.288 803.117333,276.936 C803.965333,276.584 804.625333,276.088 805.097333,275.448 C805.569333,274.808 805.805333,274.096 805.805333,273.312 C805.805333,272.048 805.269333,270.992 804.197333,270.144 C803.125333,269.296 801.685333,268.872 799.877333,268.872 L799.877333,268.872 L794.405333,268.872 L794.405333,285 L799.877333,285 Z M799.877333,276.264 L795.989333,276.264 L795.989333,270.384 L799.877333,270.384 C801.173333,270.384 802.213333,270.664 802.997333,271.224 C803.781333,271.784 804.173333,272.488 804.173333,273.336 C804.173333,274.168 803.781333,274.864 802.997333,275.424 C802.213333,275.984 801.173333,276.264 799.877333,276.264 L799.877333,276.264 Z M799.877333,283.488 L795.989333,283.488 L795.989333,277.608 L799.877333,277.608 C801.173333,277.608 802.213333,277.888 802.997333,278.448 C803.781333,279.008 804.173333,279.704 804.173333,280.536 C804.173333,281.384 803.781333,282.088 802.997333,282.648 C802.213333,283.208 801.173333,283.488 799.877333,283.488 L799.877333,283.488 Z M814.8,285.192 C816.688,285.192 818.248,284.48 819.48,283.056 L819.48,283.056 L819.48,285 L821.064,285 L821.064,273 L819.48,273 L819.48,274.944 C818.264,273.52 816.704,272.808 814.8,272.808 C813.088,272.808 811.628,273.412 810.42,274.62 C809.212,275.828 808.608,277.288 808.608,279 C808.608,280.712 809.212,282.172 810.42,283.38 C811.628,284.588 813.088,285.192 814.8,285.192 Z M814.824,283.68 C813.544,283.68 812.452,283.228 811.548,282.324 C810.644,281.42 810.192,280.312 810.192,279 C810.192,277.688 810.644,276.58 811.548,275.676 C812.452,274.772 813.544,274.32 814.824,274.32 C816.12,274.32 817.212,274.772 818.1,275.676 C818.988,276.58 819.432,277.688 819.432,279 C819.432,280.312 818.988,281.42 818.1,282.324 C817.212,283.228 816.12,283.68 814.824,283.68 Z M829.146667,285.192 C829.738667,285.192 830.314667,285.036 830.874667,284.724 C831.434667,284.412 831.794666,284.168 831.954667,283.992 C832.114667,283.816 832.242667,283.664 832.338667,283.536 L832.338667,283.536 L831.546667,282.312 C831.546667,282.376 831.462667,282.516 831.294667,282.732 C831.126667,282.948 830.866667,283.168 830.514667,283.392 C830.162667,283.616 829.802666,283.728 829.434667,283.728 C828.842667,283.728 828.318667,283.512 827.862667,283.08 C827.406667,282.648 827.178667,282.064 827.178667,281.328 L827.178667,281.328 L827.178667,274.44 L830.802667,274.44 L830.802667,272.976 L827.178667,272.976 L827.178667,268.992 L825.594667,269.184 L825.594667,272.976 L823.674667,272.976 L823.674667,274.44 L825.594667,274.44 L825.594667,281.688 C825.594667,282.824 825.934667,283.692 826.614667,284.292 C827.294667,284.892 828.138666,285.192 829.146667,285.192 Z M838.525333,285.192 C839.117333,285.192 839.693333,285.036 840.253333,284.724 C840.813333,284.412 841.173333,284.168 841.333333,283.992 C841.493333,283.816 841.621333,283.664 841.717333,283.536 L841.717333,283.536 L840.925333,282.312 C840.925333,282.376 840.841333,282.516 840.673333,282.732 C840.505333,282.948 840.245333,283.168 839.893333,283.392 C839.541333,283.616 839.181333,283.728 838.813333,283.728 C838.221333,283.728 837.697333,283.512 837.241333,283.08 C836.785333,282.648 836.557333,282.064 836.557333,281.328 L836.557333,281.328 L836.557333,274.44 L840.181333,274.44 L840.181333,272.976 L836.557333,272.976 L836.557333,268.992 L834.973333,269.184 L834.973333,272.976 L833.053333,272.976 L833.053333,274.44 L834.973333,274.44 L834.973333,281.688 C834.973333,282.824 835.313333,283.692 835.993333,284.292 C836.673333,284.892 837.517333,285.192 838.525333,285.192 Z M849.368,285.072 C850.84,285.088 852.108,284.672 853.172,283.824 C854.236,282.976 854.952,282.048 855.32,281.04 L855.32,281.04 L853.976,280.56 C853.672,281.376 853.096,282.088 852.248,282.696 C851.4,283.304 850.44,283.608 849.368,283.608 C848.376,283.624 847.472,283.324 846.656,282.708 C845.84,282.092 845.296,281.304 845.024,280.344 L845.024,280.344 L855.512,278.448 C855.512,278.32 855.504,278.216 855.488,278.136 C855.312,276.6 854.64,275.312 853.472,274.272 C852.304,273.232 850.936,272.704 849.368,272.688 C847.64,272.704 846.176,273.312 844.976,274.512 C843.776,275.712 843.176,277.176 843.176,278.904 C843.176,279.528 843.256,280.104 843.416,280.632 C843.816,281.928 844.572,282.992 845.684,283.824 C846.796,284.656 848.024,285.072 849.368,285.072 Z M844.784,279.048 C844.784,278.968 844.78,278.868 844.772,278.748 C844.764,278.628 844.76,278.544 844.76,278.496 C844.824,277.312 845.284,276.296 846.14,275.448 C846.996,274.6 848.024,274.168 849.224,274.152 C850.248,274.136 851.176,274.436 852.008,275.052 C852.84,275.668 853.408,276.464 853.712,277.44 L853.712,277.44 L844.784,279.048 Z M860.018667,285 L860.018667,277.968 C860.018667,276.928 860.362667,276.052 861.050667,275.34 C861.738667,274.628 862.586667,274.272 863.594667,274.272 C864.282667,274.272 864.962667,274.52 865.634667,275.016 L865.634667,275.016 L866.186667,273.432 C865.482667,273.016 864.706667,272.808 863.858667,272.808 C862.274667,272.808 860.994667,273.464 860.018667,274.776 L860.018667,274.776 L860.018667,273 L858.434667,273 L858.434667,285 L860.018667,285 Z M872.013333,290.112 L878.565333,273 L876.981333,273 L873.693333,281.568 L870.093333,273 L868.509333,273 L872.949333,283.536 L870.429333,290.112 L872.013333,290.112 Z" id="ElectromagneticForceofaBattery" fill="#23ABE3" fill-rule="nonzero"></path>
        </g>
        <g transform="translate(238.000000, 34.000000)">
            <g id="Battery" transform="translate(172.000000, 2.000000)">
                <path d="M0.5,11.8185741 L0.5,161.052908 C0.5,165.200591 13.7152079,168.871482 29.9468668,168.871482 C46.1785258,168.871482 59.3937336,165.200591 59.3937336,161.052908 L59.3937336,11.8185741 L0.5,11.8185741 Z" id="Combined-Shape" stroke="#23ABE3" fill="#EEEEEE"></path>
                <ellipse id="Oval" stroke="#23ABE3" fill="#EEEEEE" cx="29.9468668" cy="11.3185741" rx="29.4468668" ry="7.81857412"></ellipse>
                <path d="M20.4645779,3.5 L20.4645779,9.65485929 C20.4645779,9.9889054 21.3713385,10.5248611 23.0095904,10.9344241 C24.826757,11.3887157 27.3018196,11.6504315 29.9468668,11.6504315 C32.5919141,11.6504315 35.0669767,11.3887157 36.8841432,10.9344241 C38.5223952,10.5248611 39.4291558,9.9889054 39.4291558,9.65485929 L39.4291558,3.5 L20.4645779,3.5 Z" id="Combined-Shape" stroke="#979797" fill="#F8E71C"></path>
                <ellipse id="Oval-2" stroke="#979797" fill="#F8E71C" cx="29.9468668" cy="3" rx="9.48228894" ry="1.99557223"></ellipse>
                <text id="+" font-family="Lato-Regular, Lato" font-size="24" font-weight="normal" letter-spacing="0.926733" fill="#555555">
                    <tspan x="4.55892244" y="41">+</tspan>
                </text>
                <text id="-" font-family="Lato-Regular, Lato" font-size="24" font-weight="normal" letter-spacing="0.926733" fill="#555555">
                    <tspan x="6.73349279" y="162">-</tspan>
                </text>
            </g>
            <path d="M7.58,21 L7.58,20.496 C6.572,20.496 5.936,20.332 5.672,20.004 C5.408,19.676 5.276,18.904 5.276,17.688 L5.276,17.688 L5.276,13.896 C5.276,12.68 5.408,11.908 5.672,11.58 C5.936,11.252 6.572,11.088 7.58,11.088 L7.58,11.088 L7.58,10.608 L1.268,10.608 L1.268,11.088 C2.26,11.088 2.892,11.256 3.164,11.592 C3.436,11.928 3.572,12.696 3.572,13.896 L3.572,13.896 L3.572,17.688 C3.572,18.888 3.436,19.656 3.164,19.992 C2.892,20.328 2.26,20.496 1.268,20.496 L1.268,20.496 L1.268,21 L7.58,21 Z M12.476,21.192 C12.844,21.192 13.164,21.068 13.436,20.82 C13.708,20.572 13.844,20.28 13.844,19.944 C13.844,19.592 13.708,19.292 13.436,19.044 C13.164,18.796 12.844,18.672 12.476,18.672 C12.108,18.672 11.796,18.796 11.54,19.044 C11.284,19.292 11.156,19.592 11.156,19.944 C11.156,20.28 11.284,20.572 11.54,20.82 C11.796,21.068 12.108,21.192 12.476,21.192 Z M21.764,25.488 C23.092,25.488 24.232,24.996 25.184,24.012 C26.136,23.028 26.612,21.848 26.612,20.472 C26.612,19.064 26.176,17.88 25.304,16.92 C24.432,15.96 23.324,15.48 21.98,15.48 C21.468,15.48 20.956,15.576 20.444,15.768 C19.932,15.96 19.548,16.216 19.292,16.536 L19.292,16.536 L19.652,12.288 L25.724,12.288 L26.324,8.784 L25.772,8.784 C25.596,9.504 25.348,9.988 25.028,10.236 C24.708,10.484 24.028,10.608 22.988,10.608 L22.988,10.608 L18.932,10.608 L18.188,18.84 L19.076,18.84 C19.316,17.272 20.212,16.488 21.764,16.488 C22.724,16.488 23.44,16.848 23.912,17.568 C24.384,18.288 24.62,19.256 24.62,20.472 C24.62,21.688 24.38,22.676 23.9,23.436 C23.42,24.196 22.708,24.576 21.764,24.576 C21.172,24.576 20.68,24.452 20.288,24.204 C19.896,23.956 19.636,23.688 19.508,23.4 C19.38,23.112 19.236,22.844 19.076,22.596 C18.916,22.348 18.732,22.224 18.524,22.224 C18.076,22.224 17.852,22.44 17.852,22.872 C17.852,23.432 18.216,24.008 18.944,24.6 C19.672,25.192 20.612,25.488 21.764,25.488 Z M35.684,21.408 L40.964,9.192 C41.364,8.264 41.704,7.684 41.984,7.452 C42.264,7.22 42.876,7.104 43.82,7.104 L43.82,7.104 L43.82,6.6 L38.228,6.6 L38.228,7.104 C39.22,7.104 39.856,7.244 40.136,7.524 C40.416,7.804 40.404,8.272 40.1,8.928 L40.1,8.928 L36.068,18.264 L31.988,8.928 C31.684,8.272 31.672,7.804 31.952,7.524 C32.232,7.244 32.868,7.104 33.86,7.104 L33.86,7.104 L33.86,6.6 L27.212,6.6 L27.212,7.104 C28.156,7.104 28.768,7.22 29.048,7.452 C29.328,7.684 29.668,8.264 30.068,9.192 L30.068,9.192 L35.372,21.408 L35.684,21.408 Z" id="1.5V" fill="#524740" fill-rule="nonzero"></path>
            <path d="M22.096,170.408 C23.632,170.408 24.948,169.86 26.044,168.764 C27.14,167.668 27.688,166.344 27.688,164.792 C27.688,163.256 27.14,161.94 26.044,160.844 C24.948,159.748 23.632,159.2 22.096,159.2 C20.56,159.2 19.24,159.752 18.136,160.856 C17.048,161.944 16.504,163.256 16.504,164.792 C16.504,166.344 17.052,167.668 18.148,168.764 C19.244,169.86 20.56,170.408 22.096,170.408 Z M22.096,169.016 C20.976,169.016 20.02,168.604 19.228,167.78 C18.436,166.956 18.04,165.96 18.04,164.792 C18.04,163.64 18.436,162.648 19.228,161.816 C20.02,160.984 20.976,160.568 22.096,160.568 C23.2,160.568 24.152,160.984 24.952,161.816 C25.752,162.648 26.152,163.64 26.152,164.792 C26.152,165.96 25.752,166.956 24.952,167.78 C24.152,168.604 23.2,169.016 22.096,169.016 Z M36.76,170.408 L42.04,158.192 C42.44,157.264 42.78,156.684 43.06,156.452 C43.34,156.22 43.952,156.104 44.896,156.104 L44.896,156.104 L44.896,155.6 L39.304,155.6 L39.304,156.104 C40.296,156.104 40.932,156.244 41.212,156.524 C41.492,156.804 41.48,157.272 41.176,157.928 L41.176,157.928 L37.144,167.264 L33.064,157.928 C32.76,157.272 32.748,156.804 33.028,156.524 C33.308,156.244 33.944,156.104 34.936,156.104 L34.936,156.104 L34.936,155.6 L28.288,155.6 L28.288,156.104 C29.232,156.104 29.844,156.22 30.124,156.452 C30.404,156.684 30.744,157.264 31.144,158.192 L31.144,158.192 L36.448,170.408 L36.76,170.408 Z" id="0V" fill="#524740" fill-rule="nonzero"></path>
            <path d="M18.264,84 L18.456,80.808 L17.952,80.808 L17.832,81.288 C17.72,81.768 17.596,82.12 17.46,82.344 C17.324,82.568 17.068,82.752 16.692,82.896 C16.316,83.04 15.768,83.112 15.048,83.112 L15.048,83.112 L12.984,83.112 C11.992,83.112 11.364,82.948 11.1,82.62 C10.836,82.292 10.704,81.528 10.704,80.328 L10.704,80.328 L10.704,76.824 L11.904,76.824 C13.104,76.824 13.868,76.956 14.196,77.22 C14.524,77.484 14.688,78.12 14.688,79.128 L14.688,79.128 L15.192,79.128 L15.192,73.632 L14.688,73.632 C14.688,74.64 14.524,75.276 14.196,75.54 C13.868,75.804 13.104,75.936 11.904,75.936 L11.904,75.936 L10.704,75.936 L10.704,70.488 L14.256,70.488 C15.28,70.488 15.952,70.612 16.272,70.86 C16.592,71.108 16.848,71.584 17.04,72.288 L17.04,72.288 L17.16,72.768 L17.664,72.768 L17.448,69.6 L6.504,69.6 L6.504,70.104 C7.496,70.104 8.124,70.268 8.388,70.596 C8.652,70.924 8.784,71.688 8.784,72.888 L8.784,72.888 L8.784,80.688 C8.784,81.888 8.652,82.656 8.388,82.992 C8.124,83.328 7.496,83.496 6.504,83.496 L6.504,83.496 L6.504,84 L18.264,84 Z M25.536,84 L25.536,83.496 C24.736,83.496 24.22,83.328 23.988,82.992 C23.756,82.656 23.64,81.888 23.64,80.688 L23.64,80.688 L23.64,69.192 L20.04,69.792 L20.04,70.296 C20.84,70.296 21.356,70.464 21.588,70.8 C21.82,71.136 21.936,71.904 21.936,73.104 L21.936,73.104 L21.936,80.688 C21.936,81.888 21.82,82.656 21.588,82.992 C21.356,83.328 20.84,83.496 20.04,83.496 L20.04,83.496 L20.04,84 L25.536,84 Z M31.608,84.408 C32.28,84.408 32.952,84.26 33.624,83.964 C34.296,83.668 34.848,83.288 35.28,82.824 L35.28,82.824 L34.848,82.296 C34.512,82.616 34.088,82.88 33.576,83.088 C33.064,83.296 32.608,83.4 32.208,83.4 C31.024,83.4 30.172,83.028 29.652,82.284 C29.132,81.54 28.944,80.576 29.088,79.392 L29.088,79.392 L34.872,79.392 C35.16,78.384 34.96,77.5 34.272,76.74 C33.584,75.98 32.696,75.6 31.608,75.6 C30.456,75.6 29.428,76.024 28.524,76.872 C27.62,77.72 27.168,78.76 27.168,79.992 C27.168,81.224 27.584,82.268 28.416,83.124 C29.248,83.98 30.312,84.408 31.608,84.408 Z M33.216,78.504 L29.232,78.504 C29.408,77.912 29.7,77.44 30.108,77.088 C30.516,76.736 30.976,76.56 31.488,76.56 C32.208,76.56 32.716,76.772 33.012,77.196 C33.308,77.62 33.376,78.056 33.216,78.504 L33.216,78.504 Z M41.544,84.408 C42.952,84.408 44.144,83.88 45.12,82.824 L45.12,82.824 L44.712,82.296 C43.928,83.032 43.072,83.4 42.144,83.4 C41.184,83.4 40.46,83.116 39.972,82.548 C39.484,81.98 39.24,81.2 39.24,80.208 C39.24,79.12 39.464,78.208 39.912,77.472 C40.36,76.736 40.904,76.368 41.544,76.368 C42.12,76.368 42.408,76.712 42.408,77.4 C42.408,77.672 42.5,77.9 42.684,78.084 C42.868,78.268 43.088,78.36 43.344,78.36 C43.712,78.36 43.98,78.252 44.148,78.036 C44.316,77.82 44.4,77.584 44.4,77.328 C44.4,76.848 44.16,76.44 43.68,76.104 C43.2,75.768 42.488,75.6 41.544,75.6 C40.504,75.6 39.536,76.036 38.64,76.908 C37.744,77.78 37.296,78.88 37.296,80.208 C37.296,81.44 37.676,82.448 38.436,83.232 C39.196,84.016 40.232,84.408 41.544,84.408 Z M49.728,84.336 C50.128,84.336 50.564,84.208 51.036,83.952 C51.508,83.696 51.912,83.368 52.248,82.968 L52.248,82.968 L51.84,82.56 C51.264,83.104 50.744,83.376 50.28,83.376 C49.56,83.376 49.2,82.8 49.2,81.648 L49.2,81.648 L49.2,76.848 L51.288,76.848 L51.288,76.008 L49.2,76.008 L49.2,73.368 L48.384,73.368 C48.288,74.2 48.08,74.856 47.76,75.336 C47.44,75.816 46.936,76.128 46.248,76.272 L46.248,76.272 L46.248,76.848 L47.496,76.848 L47.496,81.648 C47.496,82.544 47.696,83.216 48.096,83.664 C48.496,84.112 49.04,84.336 49.728,84.336 Z M59.064,84 L59.064,83.496 C58.264,83.496 57.748,83.328 57.516,82.992 C57.284,82.656 57.168,81.888 57.168,80.688 L57.168,80.688 L57.168,79.368 C57.168,78.52 57.384,77.84 57.816,77.328 C58.248,76.816 58.648,76.56 59.016,76.56 C59.528,76.56 59.784,76.824 59.784,77.352 C59.784,77.576 59.868,77.776 60.036,77.952 C60.204,78.128 60.4,78.216 60.624,78.216 C61.264,78.216 61.584,77.84 61.584,77.088 C61.584,76.736 61.42,76.4 61.092,76.08 C60.764,75.76 60.296,75.6 59.688,75.6 C59.208,75.6 58.728,75.768 58.248,76.104 C57.768,76.44 57.408,76.848 57.168,77.328 C57.04,76.48 56.904,75.904 56.76,75.6 L56.76,75.6 L53.568,76.2 L53.568,76.704 C54.368,76.704 54.884,76.872 55.116,77.208 C55.348,77.544 55.464,78.304 55.464,79.488 L55.464,79.488 L55.464,80.688 C55.464,81.888 55.348,82.656 55.116,82.992 C54.884,83.328 54.368,83.496 53.568,83.496 L53.568,83.496 L53.568,84 L59.064,84 Z M68.088,84.408 C69.416,84.408 70.556,83.976 71.508,83.112 C72.46,82.248 72.936,81.208 72.936,79.992 C72.936,78.776 72.456,77.744 71.496,76.896 C70.552,76.032 69.416,75.6 68.088,75.6 C66.76,75.6 65.62,76.028 64.668,76.884 C63.716,77.74 63.24,78.776 63.24,79.992 C63.24,81.208 63.716,82.248 64.668,83.112 C65.62,83.976 66.76,84.408 68.088,84.408 Z M68.088,83.472 C67.144,83.472 66.424,83.144 65.928,82.488 C65.432,81.832 65.184,81 65.184,79.992 C65.184,78.984 65.432,78.152 65.928,77.496 C66.424,76.84 67.144,76.512 68.088,76.512 C69.032,76.512 69.752,76.836 70.248,77.484 C70.744,78.132 70.992,78.968 70.992,79.992 C70.992,81.016 70.744,81.856 70.248,82.512 C69.752,83.152 69.032,83.472 68.088,83.472 Z M80.088,84 L80.088,83.496 C79.432,83.496 79.02,83.34 78.852,83.028 C78.684,82.716 78.6,81.936 78.6,80.688 L78.6,80.688 L78.6,79.128 C78.6,78.456 78.888,77.888 79.464,77.424 C80.04,76.96 80.576,76.728 81.072,76.728 C82.224,76.728 82.8,77.584 82.8,79.296 L82.8,79.296 L82.8,80.688 C82.8,81.952 82.716,82.736 82.548,83.04 C82.38,83.344 81.96,83.496 81.288,83.496 L81.288,83.496 L81.288,84 L85.992,84 L85.992,83.496 C85.32,83.496 84.9,83.344 84.732,83.04 C84.564,82.736 84.48,81.952 84.48,80.688 L84.48,80.688 L84.48,79.128 C84.48,78.456 84.772,77.888 85.356,77.424 C85.94,76.96 86.48,76.728 86.976,76.728 C88.112,76.728 88.68,77.584 88.68,79.296 L88.68,79.296 L88.68,80.688 C88.68,81.952 88.6,82.736 88.44,83.04 C88.28,83.344 87.864,83.496 87.192,83.496 L87.192,83.496 L87.192,84 L92.28,84 L92.28,83.496 C91.48,83.496 90.964,83.328 90.732,82.992 C90.5,82.656 90.384,81.888 90.384,80.688 L90.384,80.688 L90.384,79.176 C90.384,76.792 89.464,75.6 87.624,75.6 C86.968,75.6 86.324,75.788 85.692,76.164 C85.06,76.54 84.584,76.952 84.264,77.4 C83.896,76.2 83.048,75.6 81.72,75.6 C80.552,75.6 79.512,76.176 78.6,77.328 C78.472,76.48 78.336,75.904 78.192,75.6 L78.192,75.6 L75,76.2 L75,76.704 C75.8,76.704 76.316,76.872 76.548,77.208 C76.78,77.544 76.896,78.304 76.896,79.488 L76.896,79.488 L76.896,80.688 C76.896,81.888 76.78,82.656 76.548,82.992 C76.316,83.328 75.8,83.496 75,83.496 L75,83.496 L75,84 L80.088,84 Z M95.832,84.312 C96.76,84.312 97.76,83.832 98.832,82.872 C98.96,83.8 99.504,84.264 100.464,84.264 C101.056,84.264 101.584,84.016 102.048,83.52 L102.048,83.52 L101.712,83.064 C101.472,83.304 101.248,83.424 101.04,83.424 C100.672,83.424 100.488,83.112 100.488,82.488 L100.488,82.488 L100.488,78.864 C100.488,77.712 100.232,76.88 99.72,76.368 C99.208,75.856 98.368,75.6 97.2,75.6 C96.4,75.6 95.692,75.78 95.076,76.14 C94.46,76.5 94.152,76.96 94.152,77.52 C94.152,77.76 94.232,77.96 94.392,78.12 C94.552,78.28 94.752,78.36 94.992,78.36 C95.216,78.36 95.408,78.28 95.568,78.12 C95.728,77.96 95.808,77.76 95.808,77.52 C95.808,77.168 95.956,76.888 96.252,76.68 C96.548,76.472 96.856,76.368 97.176,76.368 C97.832,76.368 98.264,76.552 98.472,76.92 C98.68,77.288 98.784,77.944 98.784,78.888 C95.376,79.48 93.672,80.616 93.672,82.296 C93.672,82.92 93.88,83.412 94.296,83.772 C94.712,84.132 95.224,84.312 95.832,84.312 Z M96.6,83.232 C96.28,83.232 96.012,83.12 95.796,82.896 C95.58,82.672 95.472,82.376 95.472,82.008 C95.472,80.936 96.576,80.144 98.784,79.632 L98.784,79.632 L98.784,82.08 C97.92,82.848 97.192,83.232 96.6,83.232 Z M107.088,90.408 C108.304,90.408 109.316,90.116 110.124,89.532 C110.932,88.948 111.336,88.168 111.336,87.192 C111.336,86.376 110.992,85.68 110.304,85.104 C109.616,84.528 108.504,84.176 106.968,84.048 C105.512,83.92 104.784,83.616 104.784,83.136 C104.784,82.672 105.68,82.336 107.472,82.128 C108.304,82.016 109.032,81.656 109.656,81.048 C110.28,80.44 110.592,79.712 110.592,78.864 C110.592,78.128 110.36,77.48 109.896,76.92 C110.152,76.664 110.4,76.536 110.64,76.536 C110.864,76.536 111.028,76.596 111.132,76.716 C111.236,76.836 111.3,76.964 111.324,77.1 C111.348,77.236 111.42,77.36 111.54,77.472 C111.66,77.584 111.84,77.632 112.08,77.616 C112.208,77.616 112.32,77.576 112.416,77.496 C112.704,77.272 112.776,76.936 112.632,76.488 C112.44,75.896 111.992,75.6 111.288,75.6 C111.016,75.6 110.7,75.688 110.34,75.864 C109.98,76.04 109.696,76.256 109.488,76.512 C108.8,75.904 107.976,75.6 107.016,75.6 C106.024,75.6 105.18,75.92 104.484,76.56 C103.788,77.2 103.44,77.968 103.44,78.864 C103.44,79.504 103.62,80.08 103.98,80.592 C104.34,81.104 104.832,81.504 105.456,81.792 C104.112,82.208 103.44,82.848 103.44,83.712 C103.44,84.976 104.576,85.72 106.848,85.944 C107.952,86.056 108.764,86.232 109.284,86.472 C109.804,86.712 110.064,87.096 110.064,87.624 C110.064,88.168 109.764,88.612 109.164,88.956 C108.564,89.3 107.872,89.472 107.088,89.472 C106.592,89.472 106.116,89.4 105.66,89.256 C105.204,89.112 104.82,88.912 104.508,88.656 C104.196,88.4 104.056,88.052 104.088,87.612 C104.12,87.172 104.368,86.688 104.832,86.16 L104.832,86.16 L104.4,85.896 C103.44,86.392 102.928,87 102.864,87.72 C102.8,88.44 103.164,89.068 103.956,89.604 C104.748,90.14 105.792,90.408 107.088,90.408 Z M107.016,81.336 C106.456,81.336 106.024,81.108 105.72,80.652 C105.416,80.196 105.264,79.6 105.264,78.864 C105.264,78.128 105.416,77.528 105.72,77.064 C106.024,76.6 106.456,76.368 107.016,76.368 C107.576,76.368 108.004,76.6 108.3,77.064 C108.596,77.528 108.744,78.128 108.744,78.864 C108.744,79.6 108.592,80.2 108.288,80.664 C108,81.112 107.576,81.336 107.016,81.336 Z M118.776,84 L118.776,83.496 C118.04,83.496 117.576,83.336 117.384,83.016 C117.192,82.696 117.096,81.92 117.096,80.688 L117.096,80.688 L117.096,79.128 C117.096,78.488 117.384,77.928 117.96,77.448 C118.536,76.968 119.168,76.728 119.856,76.728 C121.184,76.728 121.848,77.584 121.848,79.296 L121.848,79.296 L121.848,80.688 C121.848,81.872 121.728,82.636 121.488,82.98 C121.248,83.324 120.736,83.496 119.952,83.496 L119.952,83.496 L119.952,84 L125.448,84 L125.448,83.496 C124.648,83.496 124.132,83.328 123.9,82.992 C123.668,82.656 123.552,81.888 123.552,80.688 L123.552,80.688 L123.552,79.176 C123.552,78.104 123.292,77.24 122.772,76.584 C122.252,75.928 121.472,75.6 120.432,75.6 C119.12,75.6 118.008,76.176 117.096,77.328 C116.968,76.48 116.832,75.904 116.688,75.6 L116.688,75.6 L113.496,76.2 L113.496,76.704 C114.296,76.704 114.812,76.872 115.044,77.208 C115.276,77.544 115.392,78.304 115.392,79.488 L115.392,79.488 L115.392,80.688 C115.392,81.888 115.276,82.656 115.044,82.992 C114.812,83.328 114.296,83.496 113.496,83.496 L113.496,83.496 L113.496,84 L118.776,84 Z M131.496,84.408 C132.168,84.408 132.84,84.26 133.512,83.964 C134.184,83.668 134.736,83.288 135.168,82.824 L135.168,82.824 L134.736,82.296 C134.4,82.616 133.976,82.88 133.464,83.088 C132.952,83.296 132.496,83.4 132.096,83.4 C130.912,83.4 130.06,83.028 129.54,82.284 C129.02,81.54 128.832,80.576 128.976,79.392 L128.976,79.392 L134.76,79.392 C135.048,78.384 134.848,77.5 134.16,76.74 C133.472,75.98 132.584,75.6 131.496,75.6 C130.344,75.6 129.316,76.024 128.412,76.872 C127.508,77.72 127.056,78.76 127.056,79.992 C127.056,81.224 127.472,82.268 128.304,83.124 C129.136,83.98 130.2,84.408 131.496,84.408 Z M133.104,78.504 L129.12,78.504 C129.296,77.912 129.588,77.44 129.996,77.088 C130.404,76.736 130.864,76.56 131.376,76.56 C132.096,76.56 132.604,76.772 132.9,77.196 C133.196,77.62 133.264,78.056 133.104,78.504 L133.104,78.504 Z M140.184,84.336 C140.584,84.336 141.02,84.208 141.492,83.952 C141.964,83.696 142.368,83.368 142.704,82.968 L142.704,82.968 L142.296,82.56 C141.72,83.104 141.2,83.376 140.736,83.376 C140.016,83.376 139.656,82.8 139.656,81.648 L139.656,81.648 L139.656,76.848 L141.744,76.848 L141.744,76.008 L139.656,76.008 L139.656,73.368 L138.84,73.368 C138.744,74.2 138.536,74.856 138.216,75.336 C137.896,75.816 137.392,76.128 136.704,76.272 L136.704,76.272 L136.704,76.848 L137.952,76.848 L137.952,81.648 C137.952,82.544 138.152,83.216 138.552,83.664 C138.952,84.112 139.496,84.336 140.184,84.336 Z M146.76,73.248 C147.048,73.248 147.296,73.144 147.504,72.936 C147.712,72.728 147.816,72.472 147.816,72.168 C147.816,71.88 147.712,71.632 147.504,71.424 C147.296,71.216 147.048,71.112 146.76,71.112 C146.472,71.112 146.224,71.216 146.016,71.424 C145.808,71.632 145.704,71.88 145.704,72.168 C145.704,72.472 145.808,72.728 146.016,72.936 C146.224,73.144 146.472,73.248 146.76,73.248 Z M149.52,84 L149.52,83.496 C148.72,83.496 148.204,83.328 147.972,82.992 C147.74,82.656 147.624,81.888 147.624,80.688 L147.624,80.688 L147.624,75.6 L144.024,76.2 L144.024,76.704 C144.824,76.704 145.34,76.872 145.572,77.208 C145.804,77.544 145.92,78.304 145.92,79.488 L145.92,79.488 L145.92,80.688 C145.92,81.888 145.804,82.656 145.572,82.992 C145.34,83.328 144.824,83.496 144.024,83.496 L144.024,83.496 L144.024,84 L149.52,84 Z M155.376,84.408 C156.784,84.408 157.976,83.88 158.952,82.824 L158.952,82.824 L158.544,82.296 C157.76,83.032 156.904,83.4 155.976,83.4 C155.016,83.4 154.292,83.116 153.804,82.548 C153.316,81.98 153.072,81.2 153.072,80.208 C153.072,79.12 153.296,78.208 153.744,77.472 C154.192,76.736 154.736,76.368 155.376,76.368 C155.952,76.368 156.24,76.712 156.24,77.4 C156.24,77.672 156.332,77.9 156.516,78.084 C156.7,78.268 156.92,78.36 157.176,78.36 C157.544,78.36 157.812,78.252 157.98,78.036 C158.148,77.82 158.232,77.584 158.232,77.328 C158.232,76.848 157.992,76.44 157.512,76.104 C157.032,75.768 156.32,75.6 155.376,75.6 C154.336,75.6 153.368,76.036 152.472,76.908 C151.576,77.78 151.128,78.88 151.128,80.208 C151.128,81.44 151.508,82.448 152.268,83.232 C153.028,84.016 154.064,84.408 155.376,84.408 Z M22.872,108 L22.872,107.496 C21.88,107.496 21.252,107.328 20.988,106.992 C20.724,106.656 20.592,105.888 20.592,104.688 L20.592,104.688 L20.592,100.824 L21.792,100.824 C22.992,100.824 23.756,100.956 24.084,101.22 C24.412,101.484 24.576,102.12 24.576,103.128 L24.576,103.128 L25.08,103.128 L25.08,97.632 L24.576,97.632 C24.576,98.64 24.412,99.276 24.084,99.54 C23.756,99.804 22.992,99.936 21.792,99.936 L21.792,99.936 L20.592,99.936 L20.592,94.488 L24.552,94.488 C25.576,94.488 26.248,94.616 26.568,94.872 C26.888,95.128 27.136,95.6 27.312,96.288 L27.312,96.288 L27.432,96.768 L27.936,96.768 L27.744,93.6 L16.392,93.6 L16.392,94.104 C17.384,94.104 18.012,94.268 18.276,94.596 C18.54,94.924 18.672,95.688 18.672,96.888 L18.672,96.888 L18.672,104.688 C18.672,105.888 18.54,106.656 18.276,106.992 C18.012,107.328 17.384,107.496 16.392,107.496 L16.392,107.496 L16.392,108 L22.872,108 Z M34.68,108.408 C36.008,108.408 37.148,107.976 38.1,107.112 C39.052,106.248 39.528,105.208 39.528,103.992 C39.528,102.776 39.048,101.744 38.088,100.896 C37.144,100.032 36.008,99.6 34.68,99.6 C33.352,99.6 32.212,100.028 31.26,100.884 C30.308,101.74 29.832,102.776 29.832,103.992 C29.832,105.208 30.308,106.248 31.26,107.112 C32.212,107.976 33.352,108.408 34.68,108.408 Z M34.68,107.472 C33.736,107.472 33.016,107.144 32.52,106.488 C32.024,105.832 31.776,105 31.776,103.992 C31.776,102.984 32.024,102.152 32.52,101.496 C33.016,100.84 33.736,100.512 34.68,100.512 C35.624,100.512 36.344,100.836 36.84,101.484 C37.336,102.132 37.584,102.968 37.584,103.992 C37.584,105.016 37.336,105.856 36.84,106.512 C36.344,107.152 35.624,107.472 34.68,107.472 Z M47.088,108 L47.088,107.496 C46.288,107.496 45.772,107.328 45.54,106.992 C45.308,106.656 45.192,105.888 45.192,104.688 L45.192,104.688 L45.192,103.368 C45.192,102.52 45.408,101.84 45.84,101.328 C46.272,100.816 46.672,100.56 47.04,100.56 C47.552,100.56 47.808,100.824 47.808,101.352 C47.808,101.576 47.892,101.776 48.06,101.952 C48.228,102.128 48.424,102.216 48.648,102.216 C49.288,102.216 49.608,101.84 49.608,101.088 C49.608,100.736 49.444,100.4 49.116,100.08 C48.788,99.76 48.32,99.6 47.712,99.6 C47.232,99.6 46.752,99.768 46.272,100.104 C45.792,100.44 45.432,100.848 45.192,101.328 C45.064,100.48 44.928,99.904 44.784,99.6 L44.784,99.6 L41.592,100.2 L41.592,100.704 C42.392,100.704 42.908,100.872 43.14,101.208 C43.372,101.544 43.488,102.304 43.488,103.488 L43.488,103.488 L43.488,104.688 C43.488,105.888 43.372,106.656 43.14,106.992 C42.908,107.328 42.392,107.496 41.592,107.496 L41.592,107.496 L41.592,108 L47.088,108 Z M55.512,108.408 C56.92,108.408 58.112,107.88 59.088,106.824 L59.088,106.824 L58.68,106.296 C57.896,107.032 57.04,107.4 56.112,107.4 C55.152,107.4 54.428,107.116 53.94,106.548 C53.452,105.98 53.208,105.2 53.208,104.208 C53.208,103.12 53.432,102.208 53.88,101.472 C54.328,100.736 54.872,100.368 55.512,100.368 C56.088,100.368 56.376,100.712 56.376,101.4 C56.376,101.672 56.468,101.9 56.652,102.084 C56.836,102.268 57.056,102.36 57.312,102.36 C57.68,102.36 57.948,102.252 58.116,102.036 C58.284,101.82 58.368,101.584 58.368,101.328 C58.368,100.848 58.128,100.44 57.648,100.104 C57.168,99.768 56.456,99.6 55.512,99.6 C54.472,99.6 53.504,100.036 52.608,100.908 C51.712,101.78 51.264,102.88 51.264,104.208 C51.264,105.44 51.644,106.448 52.404,107.232 C53.164,108.016 54.2,108.408 55.512,108.408 Z M65.136,108.408 C65.808,108.408 66.48,108.26 67.152,107.964 C67.824,107.668 68.376,107.288 68.808,106.824 L68.808,106.824 L68.376,106.296 C68.04,106.616 67.616,106.88 67.104,107.088 C66.592,107.296 66.136,107.4 65.736,107.4 C64.552,107.4 63.7,107.028 63.18,106.284 C62.66,105.54 62.472,104.576 62.616,103.392 L62.616,103.392 L68.4,103.392 C68.688,102.384 68.488,101.5 67.8,100.74 C67.112,99.98 66.224,99.6 65.136,99.6 C63.984,99.6 62.956,100.024 62.052,100.872 C61.148,101.72 60.696,102.76 60.696,103.992 C60.696,105.224 61.112,106.268 61.944,107.124 C62.776,107.98 63.84,108.408 65.136,108.408 Z M66.744,102.504 L62.76,102.504 C62.936,101.912 63.228,101.44 63.636,101.088 C64.044,100.736 64.504,100.56 65.016,100.56 C65.736,100.56 66.244,100.772 66.54,101.196 C66.836,101.62 66.904,102.056 66.744,102.504 L66.744,102.504 Z M78.912,97.248 C79.2,97.248 79.448,97.144 79.656,96.936 C79.864,96.728 79.968,96.472 79.968,96.168 C79.968,95.88 79.864,95.632 79.656,95.424 C79.448,95.216 79.2,95.112 78.912,95.112 C78.624,95.112 78.376,95.216 78.168,95.424 C77.96,95.632 77.856,95.88 77.856,96.168 C77.856,96.472 77.96,96.728 78.168,96.936 C78.376,97.144 78.624,97.248 78.912,97.248 Z M81.672,108 L81.672,107.496 C80.872,107.496 80.356,107.328 80.124,106.992 C79.892,106.656 79.776,105.888 79.776,104.688 L79.776,104.688 L79.776,99.6 L76.176,100.2 L76.176,100.704 C76.976,100.704 77.492,100.872 77.724,101.208 C77.956,101.544 78.072,102.304 78.072,103.488 L78.072,103.488 L78.072,104.688 C78.072,105.888 77.956,106.656 77.724,106.992 C77.492,107.328 76.976,107.496 76.176,107.496 L76.176,107.496 L76.176,108 L81.672,108 Z M88.32,108 L88.32,107.496 C87.584,107.496 87.12,107.336 86.928,107.016 C86.736,106.696 86.64,105.92 86.64,104.688 L86.64,104.688 L86.64,103.128 C86.64,102.488 86.928,101.928 87.504,101.448 C88.08,100.968 88.712,100.728 89.4,100.728 C90.728,100.728 91.392,101.584 91.392,103.296 L91.392,103.296 L91.392,104.688 C91.392,105.872 91.272,106.636 91.032,106.98 C90.792,107.324 90.28,107.496 89.496,107.496 L89.496,107.496 L89.496,108 L94.992,108 L94.992,107.496 C94.192,107.496 93.676,107.328 93.444,106.992 C93.212,106.656 93.096,105.888 93.096,104.688 L93.096,104.688 L93.096,103.176 C93.096,102.104 92.836,101.24 92.316,100.584 C91.796,99.928 91.016,99.6 89.976,99.6 C88.664,99.6 87.552,100.176 86.64,101.328 C86.512,100.48 86.376,99.904 86.232,99.6 L86.232,99.6 L83.04,100.2 L83.04,100.704 C83.84,100.704 84.356,100.872 84.588,101.208 C84.82,101.544 84.936,102.304 84.936,103.488 L84.936,103.488 L84.936,104.688 C84.936,105.888 84.82,106.656 84.588,106.992 C84.356,107.328 83.84,107.496 83.04,107.496 L83.04,107.496 L83.04,108 L88.32,108 Z M108.6,108.408 L113.88,96.192 C114.28,95.264 114.62,94.684 114.9,94.452 C115.18,94.22 115.792,94.104 116.736,94.104 L116.736,94.104 L116.736,93.6 L111.144,93.6 L111.144,94.104 C112.136,94.104 112.772,94.244 113.052,94.524 C113.332,94.804 113.32,95.272 113.016,95.928 L113.016,95.928 L108.984,105.264 L104.904,95.928 C104.6,95.272 104.588,94.804 104.868,94.524 C105.148,94.244 105.784,94.104 106.776,94.104 L106.776,94.104 L106.776,93.6 L100.128,93.6 L100.128,94.104 C101.072,94.104 101.684,94.22 101.964,94.452 C102.244,94.684 102.584,95.264 102.984,96.192 L102.984,96.192 L108.288,108.408 L108.6,108.408 Z M121.848,108.408 C123.176,108.408 124.316,107.976 125.268,107.112 C126.22,106.248 126.696,105.208 126.696,103.992 C126.696,102.776 126.216,101.744 125.256,100.896 C124.312,100.032 123.176,99.6 121.848,99.6 C120.52,99.6 119.38,100.028 118.428,100.884 C117.476,101.74 117,102.776 117,103.992 C117,105.208 117.476,106.248 118.428,107.112 C119.38,107.976 120.52,108.408 121.848,108.408 Z M121.848,107.472 C120.904,107.472 120.184,107.144 119.688,106.488 C119.192,105.832 118.944,105 118.944,103.992 C118.944,102.984 119.192,102.152 119.688,101.496 C120.184,100.84 120.904,100.512 121.848,100.512 C122.792,100.512 123.512,100.836 124.008,101.484 C124.504,102.132 124.752,102.968 124.752,103.992 C124.752,105.016 124.504,105.856 124.008,106.512 C123.512,107.152 122.792,107.472 121.848,107.472 Z M133.8,108 L133.8,107.496 C133,107.496 132.484,107.328 132.252,106.992 C132.02,106.656 131.904,105.888 131.904,104.688 L131.904,104.688 L131.904,93.192 L128.304,93.792 L128.304,94.296 C129.104,94.296 129.62,94.464 129.852,94.8 C130.084,95.136 130.2,95.904 130.2,97.104 L130.2,97.104 L130.2,104.688 C130.2,105.888 130.084,106.656 129.852,106.992 C129.62,107.328 129.104,107.496 128.304,107.496 L128.304,107.496 L128.304,108 L133.8,108 Z M138.432,108.336 C138.832,108.336 139.268,108.208 139.74,107.952 C140.212,107.696 140.616,107.368 140.952,106.968 L140.952,106.968 L140.544,106.56 C139.968,107.104 139.448,107.376 138.984,107.376 C138.264,107.376 137.904,106.8 137.904,105.648 L137.904,105.648 L137.904,100.848 L139.992,100.848 L139.992,100.008 L137.904,100.008 L137.904,97.368 L137.088,97.368 C136.992,98.2 136.784,98.856 136.464,99.336 C136.144,99.816 135.64,100.128 134.952,100.272 L134.952,100.272 L134.952,100.848 L136.2,100.848 L136.2,105.648 C136.2,106.544 136.4,107.216 136.8,107.664 C137.2,108.112 137.744,108.336 138.432,108.336 Z M143.016,108.408 C143.016,108.088 143.048,107.872 143.112,107.76 C143.176,107.648 143.288,107.62 143.448,107.676 C143.608,107.732 143.78,107.812 143.964,107.916 C144.148,108.02 144.392,108.128 144.696,108.24 C145,108.352 145.296,108.408 145.584,108.408 C146.384,108.408 147.06,108.164 147.612,107.676 C148.164,107.188 148.44,106.56 148.44,105.792 C148.44,104.88 147.888,104.112 146.784,103.488 L146.784,103.488 L145.632,102.864 C145.072,102.56 144.688,102.308 144.48,102.108 C144.272,101.908 144.168,101.672 144.168,101.4 C144.168,101.096 144.272,100.848 144.48,100.656 C144.688,100.464 144.992,100.368 145.392,100.368 C145.968,100.368 146.436,100.572 146.796,100.98 C147.156,101.388 147.336,101.856 147.336,102.384 L147.336,102.384 L147.84,102.384 L147.84,99.6 L147.336,99.6 C147.336,99.92 147.3,100.1 147.228,100.14 C147.156,100.18 147.024,100.144 146.832,100.032 C146.256,99.744 145.696,99.6 145.152,99.6 C144.512,99.6 143.948,99.808 143.46,100.224 C142.972,100.64 142.728,101.16 142.728,101.784 C142.728,102.808 143.256,103.608 144.312,104.184 L144.312,104.184 L145.656,104.904 C146.552,105.384 147,105.872 147,106.368 C147,106.704 146.868,106.992 146.604,107.232 C146.34,107.472 146.016,107.592 145.632,107.592 C144.848,107.592 144.216,107.3 143.736,106.716 C143.256,106.132 143.016,105.528 143.016,104.904 L143.016,104.904 L142.512,104.904 L142.512,108.408 L143.016,108.408 Z" id="ElectromagneticForceinVolts" fill="#524740" fill-rule="nonzero"></path>
            <line x1="53.5" y1="15" x2="120.5" y2="15" id="Line-7" stroke="#B09679" stroke-width="2" stroke-linecap="square"></line>
            <line x1="87" y1="15.6176339" x2="87" y2="48.5" id="Line-7-Copy-2" stroke="#B09679" stroke-width="2" stroke-linecap="square"></line>
            <line x1="87" y1="130.617634" x2="87" y2="163.5" id="Line-7-Copy-3" stroke="#B09679" stroke-width="2" stroke-linecap="square"></line>
            <line x1="53.5" y1="164" x2="120.5" y2="164" id="Line-7-Copy" stroke="#B09679" stroke-width="2" stroke-linecap="square"></line>
            <path id="Line-8" d="M201.5,19 L211,38 L203,38 L203,166 L200,166 L200,38 L192,38 L201.5,19 Z" fill="#B09679" fill-rule="nonzero"></path>
            <path id="Line-8-Copy" d="M422.5,18 L422.5,146 L430.5,146 L421,165 L411.5,146 L419.5,146 L419.5,18 L422.5,18 Z" fill="#B09679" fill-rule="nonzero"></path>
            <path id="Line-8-Copy-2" d="M248.5,171 L248.5,179 L376.5,179 L376.5,182 L248.5,182 L248.5,190 L229.5,180.5 L248.5,171 Z" fill="#B09679" fill-rule="nonzero"></path>
            <path id="Line-8-Copy-3" d="M364.5,-9 L383.5,0.5 L364.5,10 L364.5,2 L236.5,2 L236.5,-1 L364.5,-1 L364.5,-9 Z" fill="#B09679" fill-rule="nonzero"></path>
            <g id="Potential" transform="translate(233.000000, 31.000000)">
                <path d="M16.004,53 L16.004,52.496 C15.012,52.496 14.384,52.328 14.12,51.992 C13.856,51.656 13.724,50.888 13.724,49.688 L13.724,49.688 L13.724,46.688 L15.86,46.688 C17.476,46.688 18.74,46.308 19.652,45.548 C20.564,44.788 21.02,43.824 21.02,42.656 C21.02,41.488 20.564,40.52 19.652,39.752 C18.74,38.984 17.476,38.6 15.86,38.6 L15.86,38.6 L9.524,38.6 L9.524,39.104 C10.516,39.104 11.144,39.268 11.408,39.596 C11.672,39.924 11.804,40.688 11.804,41.888 L11.804,41.888 L11.804,49.688 C11.804,50.888 11.672,51.656 11.408,51.992 C11.144,52.328 10.516,52.496 9.524,52.496 L9.524,52.496 L9.524,53 L16.004,53 Z M15.836,45.824 L13.724,45.824 L13.724,39.488 L15.836,39.488 C16.828,39.488 17.584,39.784 18.104,40.376 C18.624,40.968 18.884,41.728 18.884,42.656 C18.884,43.584 18.624,44.344 18.104,44.936 C17.584,45.528 16.828,45.824 15.836,45.824 L15.836,45.824 Z M27.812,53.408 C29.14,53.408 30.28,52.976 31.232,52.112 C32.184,51.248 32.66,50.208 32.66,48.992 C32.66,47.776 32.18,46.744 31.22,45.896 C30.276,45.032 29.14,44.6 27.812,44.6 C26.484,44.6 25.344,45.028 24.392,45.884 C23.44,46.74 22.964,47.776 22.964,48.992 C22.964,50.208 23.44,51.248 24.392,52.112 C25.344,52.976 26.484,53.408 27.812,53.408 Z M27.812,52.472 C26.868,52.472 26.148,52.144 25.652,51.488 C25.156,50.832 24.908,50 24.908,48.992 C24.908,47.984 25.156,47.152 25.652,46.496 C26.148,45.84 26.868,45.512 27.812,45.512 C28.756,45.512 29.476,45.836 29.972,46.484 C30.468,47.132 30.716,47.968 30.716,48.992 C30.716,50.016 30.468,50.856 29.972,51.512 C29.476,52.152 28.756,52.472 27.812,52.472 Z M37.964,53.336 C38.364,53.336 38.8,53.208 39.272,52.952 C39.744,52.696 40.148,52.368 40.484,51.968 L40.484,51.968 L40.076,51.56 C39.5,52.104 38.98,52.376 38.516,52.376 C37.796,52.376 37.436,51.8 37.436,50.648 L37.436,50.648 L37.436,45.848 L39.524,45.848 L39.524,45.008 L37.436,45.008 L37.436,42.368 L36.62,42.368 C36.524,43.2 36.316,43.856 35.996,44.336 C35.676,44.816 35.172,45.128 34.484,45.272 L34.484,45.272 L34.484,45.848 L35.732,45.848 L35.732,50.648 C35.732,51.544 35.932,52.216 36.332,52.664 C36.732,53.112 37.276,53.336 37.964,53.336 Z M46.484,53.408 C47.156,53.408 47.828,53.26 48.5,52.964 C49.172,52.668 49.724,52.288 50.156,51.824 L50.156,51.824 L49.724,51.296 C49.388,51.616 48.964,51.88 48.452,52.088 C47.94,52.296 47.484,52.4 47.084,52.4 C45.9,52.4 45.048,52.028 44.528,51.284 C44.008,50.54 43.82,49.576 43.964,48.392 L43.964,48.392 L49.748,48.392 C50.036,47.384 49.836,46.5 49.148,45.74 C48.46,44.98 47.572,44.6 46.484,44.6 C45.332,44.6 44.304,45.024 43.4,45.872 C42.496,46.72 42.044,47.76 42.044,48.992 C42.044,50.224 42.46,51.268 43.292,52.124 C44.124,52.98 45.188,53.408 46.484,53.408 Z M48.092,47.504 L44.108,47.504 C44.284,46.912 44.576,46.44 44.984,46.088 C45.392,45.736 45.852,45.56 46.364,45.56 C47.084,45.56 47.592,45.772 47.888,46.196 C48.184,46.62 48.252,47.056 48.092,47.504 L48.092,47.504 Z M57.212,53 L57.212,52.496 C56.476,52.496 56.012,52.336 55.82,52.016 C55.628,51.696 55.532,50.92 55.532,49.688 L55.532,49.688 L55.532,48.128 C55.532,47.488 55.82,46.928 56.396,46.448 C56.972,45.968 57.604,45.728 58.292,45.728 C59.62,45.728 60.284,46.584 60.284,48.296 L60.284,48.296 L60.284,49.688 C60.284,50.872 60.164,51.636 59.924,51.98 C59.684,52.324 59.172,52.496 58.388,52.496 L58.388,52.496 L58.388,53 L63.884,53 L63.884,52.496 C63.084,52.496 62.568,52.328 62.336,51.992 C62.104,51.656 61.988,50.888 61.988,49.688 L61.988,49.688 L61.988,48.176 C61.988,47.104 61.728,46.24 61.208,45.584 C60.688,44.928 59.908,44.6 58.868,44.6 C57.556,44.6 56.444,45.176 55.532,46.328 C55.404,45.48 55.268,44.904 55.124,44.6 L55.124,44.6 L51.932,45.2 L51.932,45.704 C52.732,45.704 53.248,45.872 53.48,46.208 C53.712,46.544 53.828,47.304 53.828,48.488 L53.828,48.488 L53.828,49.688 C53.828,50.888 53.712,51.656 53.48,51.992 C53.248,52.328 52.732,52.496 51.932,52.496 L51.932,52.496 L51.932,53 L57.212,53 Z M68.492,53.336 C68.892,53.336 69.328,53.208 69.8,52.952 C70.272,52.696 70.676,52.368 71.012,51.968 L71.012,51.968 L70.604,51.56 C70.028,52.104 69.508,52.376 69.044,52.376 C68.324,52.376 67.964,51.8 67.964,50.648 L67.964,50.648 L67.964,45.848 L70.052,45.848 L70.052,45.008 L67.964,45.008 L67.964,42.368 L67.148,42.368 C67.052,43.2 66.844,43.856 66.524,44.336 C66.204,44.816 65.7,45.128 65.012,45.272 L65.012,45.272 L65.012,45.848 L66.26,45.848 L66.26,50.648 C66.26,51.544 66.46,52.216 66.86,52.664 C67.26,53.112 67.804,53.336 68.492,53.336 Z M75.068,42.248 C75.356,42.248 75.604,42.144 75.812,41.936 C76.02,41.728 76.124,41.472 76.124,41.168 C76.124,40.88 76.02,40.632 75.812,40.424 C75.604,40.216 75.356,40.112 75.068,40.112 C74.78,40.112 74.532,40.216 74.324,40.424 C74.116,40.632 74.012,40.88 74.012,41.168 C74.012,41.472 74.116,41.728 74.324,41.936 C74.532,42.144 74.78,42.248 75.068,42.248 Z M77.828,53 L77.828,52.496 C77.028,52.496 76.512,52.328 76.28,51.992 C76.048,51.656 75.932,50.888 75.932,49.688 L75.932,49.688 L75.932,44.6 L72.332,45.2 L72.332,45.704 C73.132,45.704 73.648,45.872 73.88,46.208 C74.112,46.544 74.228,47.304 74.228,48.488 L74.228,48.488 L74.228,49.688 C74.228,50.888 74.112,51.656 73.88,51.992 C73.648,52.328 73.132,52.496 72.332,52.496 L72.332,52.496 L72.332,53 L77.828,53 Z M81.356,53.312 C82.284,53.312 83.284,52.832 84.356,51.872 C84.484,52.8 85.028,53.264 85.988,53.264 C86.58,53.264 87.108,53.016 87.572,52.52 L87.572,52.52 L87.236,52.064 C86.996,52.304 86.772,52.424 86.564,52.424 C86.196,52.424 86.012,52.112 86.012,51.488 L86.012,51.488 L86.012,47.864 C86.012,46.712 85.756,45.88 85.244,45.368 C84.732,44.856 83.892,44.6 82.724,44.6 C81.924,44.6 81.216,44.78 80.6,45.14 C79.984,45.5 79.676,45.96 79.676,46.52 C79.676,46.76 79.756,46.96 79.916,47.12 C80.076,47.28 80.276,47.36 80.516,47.36 C80.74,47.36 80.932,47.28 81.092,47.12 C81.252,46.96 81.332,46.76 81.332,46.52 C81.332,46.168 81.48,45.888 81.776,45.68 C82.072,45.472 82.38,45.368 82.7,45.368 C83.356,45.368 83.788,45.552 83.996,45.92 C84.204,46.288 84.308,46.944 84.308,47.888 C80.9,48.48 79.196,49.616 79.196,51.296 C79.196,51.92 79.404,52.412 79.82,52.772 C80.236,53.132 80.748,53.312 81.356,53.312 Z M82.124,52.232 C81.804,52.232 81.536,52.12 81.32,51.896 C81.104,51.672 80.996,51.376 80.996,51.008 C80.996,49.936 82.1,49.144 84.308,48.632 L84.308,48.632 L84.308,51.08 C83.444,51.848 82.716,52.232 82.124,52.232 Z M93.908,53 L93.908,52.496 C93.108,52.496 92.592,52.328 92.36,51.992 C92.128,51.656 92.012,50.888 92.012,49.688 L92.012,49.688 L92.012,38.192 L88.412,38.792 L88.412,39.296 C89.212,39.296 89.728,39.464 89.96,39.8 C90.192,40.136 90.308,40.904 90.308,42.104 L90.308,42.104 L90.308,49.688 C90.308,50.888 90.192,51.656 89.96,51.992 C89.728,52.328 89.212,52.496 88.412,52.496 L88.412,52.496 L88.412,53 L93.908,53 Z M8.144,77 C10.8,77 12.8,76.328 14.144,74.984 C15.488,73.64 16.16,71.912 16.16,69.8 C16.16,67.688 15.488,65.96 14.144,64.616 C12.8,63.272 10.8,62.6 8.144,62.6 L8.144,62.6 L1.64,62.6 L1.64,63.104 C2.632,63.104 3.26,63.268 3.524,63.596 C3.788,63.924 3.92,64.688 3.92,65.888 L3.92,65.888 L3.92,73.688 C3.92,74.888 3.788,75.656 3.524,75.992 C3.26,76.328 2.632,76.496 1.64,76.496 L1.64,76.496 L1.64,77 L8.144,77 Z M8.168,76.112 L8.072,76.112 C7.096,76.112 6.48,75.952 6.224,75.632 C5.968,75.312 5.84,74.544 5.84,73.328 L5.84,73.328 L5.84,63.488 L8.168,63.488 C9.272,63.488 10.22,63.68 11.012,64.064 C11.804,64.448 12.396,64.964 12.788,65.612 C13.18,66.26 13.456,66.924 13.616,67.604 C13.776,68.284 13.856,69.016 13.856,69.8 C13.856,70.584 13.776,71.316 13.616,71.996 C13.456,72.676 13.18,73.34 12.788,73.988 C12.396,74.636 11.804,75.152 11.012,75.536 C10.22,75.92 9.272,76.112 8.168,76.112 L8.168,76.112 Z M21.488,66.248 C21.776,66.248 22.024,66.144 22.232,65.936 C22.44,65.728 22.544,65.472 22.544,65.168 C22.544,64.88 22.44,64.632 22.232,64.424 C22.024,64.216 21.776,64.112 21.488,64.112 C21.2,64.112 20.952,64.216 20.744,64.424 C20.536,64.632 20.432,64.88 20.432,65.168 C20.432,65.472 20.536,65.728 20.744,65.936 C20.952,66.144 21.2,66.248 21.488,66.248 Z M24.248,77 L24.248,76.496 C23.448,76.496 22.932,76.328 22.7,75.992 C22.468,75.656 22.352,74.888 22.352,73.688 L22.352,73.688 L22.352,68.6 L18.752,69.2 L18.752,69.704 C19.552,69.704 20.068,69.872 20.3,70.208 C20.532,70.544 20.648,71.304 20.648,72.488 L20.648,72.488 L20.648,73.688 C20.648,74.888 20.532,75.656 20.3,75.992 C20.068,76.328 19.552,76.496 18.752,76.496 L18.752,76.496 L18.752,77 L24.248,77 Z M31.112,77 L31.112,76.496 C30.312,76.496 29.796,76.328 29.564,75.992 C29.332,75.656 29.216,74.888 29.216,73.688 L29.216,73.688 L29.216,69.848 L35,69.848 L35,73.688 C35,74.888 34.884,75.656 34.652,75.992 C34.42,76.328 33.904,76.496 33.104,76.496 L33.104,76.496 L33.104,77 L38.6,77 L38.6,76.496 C37.8,76.496 37.284,76.328 37.052,75.992 C36.82,75.656 36.704,74.888 36.704,73.688 L36.704,73.688 L36.704,69.848 L39.128,69.848 L39.128,69.008 L36.704,69.008 L36.704,66.704 C36.704,65.36 36.848,64.404 37.136,63.836 C37.424,63.268 37.88,62.984 38.504,62.984 C38.84,62.984 39.104,63.08 39.296,63.272 C39.488,63.464 39.608,63.676 39.656,63.908 C39.704,64.14 39.8,64.352 39.944,64.544 C40.088,64.736 40.288,64.832 40.544,64.832 C40.816,64.832 41.016,64.752 41.144,64.592 C41.432,64.256 41.424,63.824 41.12,63.296 C40.704,62.56 39.976,62.192 38.936,62.192 C37.848,62.192 36.92,62.564 36.152,63.308 C35.384,64.052 35,65.184 35,66.704 L35,66.704 L35,69.008 L29.216,69.008 L29.216,67.688 C29.216,66.344 29.36,65.388 29.648,64.82 C29.936,64.252 30.392,63.968 31.016,63.968 C31.352,63.968 31.616,64.064 31.808,64.256 C32,64.448 32.12,64.664 32.168,64.904 C32.216,65.144 32.312,65.36 32.456,65.552 C32.6,65.744 32.8,65.84 33.056,65.84 C33.328,65.84 33.528,65.76 33.656,65.6 C33.944,65.264 33.936,64.832 33.632,64.304 C33.216,63.568 32.488,63.2 31.448,63.2 C30.344,63.2 29.412,63.572 28.652,64.316 C27.892,65.06 27.512,66.184 27.512,67.688 L27.512,67.688 L27.512,69.008 L25.544,69.008 L25.544,69.848 L27.512,69.848 L27.512,73.688 C27.512,74.888 27.396,75.656 27.164,75.992 C26.932,76.328 26.416,76.496 25.616,76.496 L25.616,76.496 L25.616,77 L31.112,77 Z M45.296,77.408 C45.968,77.408 46.64,77.26 47.312,76.964 C47.984,76.668 48.536,76.288 48.968,75.824 L48.968,75.824 L48.536,75.296 C48.2,75.616 47.776,75.88 47.264,76.088 C46.752,76.296 46.296,76.4 45.896,76.4 C44.712,76.4 43.86,76.028 43.34,75.284 C42.82,74.54 42.632,73.576 42.776,72.392 L42.776,72.392 L48.56,72.392 C48.848,71.384 48.648,70.5 47.96,69.74 C47.272,68.98 46.384,68.6 45.296,68.6 C44.144,68.6 43.116,69.024 42.212,69.872 C41.308,70.72 40.856,71.76 40.856,72.992 C40.856,74.224 41.272,75.268 42.104,76.124 C42.936,76.98 44,77.408 45.296,77.408 Z M46.904,71.504 L42.92,71.504 C43.096,70.912 43.388,70.44 43.796,70.088 C44.204,69.736 44.664,69.56 45.176,69.56 C45.896,69.56 46.404,69.772 46.7,70.196 C46.996,70.62 47.064,71.056 46.904,71.504 L46.904,71.504 Z M56.24,77 L56.24,76.496 C55.44,76.496 54.924,76.328 54.692,75.992 C54.46,75.656 54.344,74.888 54.344,73.688 L54.344,73.688 L54.344,72.368 C54.344,71.52 54.56,70.84 54.992,70.328 C55.424,69.816 55.824,69.56 56.192,69.56 C56.704,69.56 56.96,69.824 56.96,70.352 C56.96,70.576 57.044,70.776 57.212,70.952 C57.38,71.128 57.576,71.216 57.8,71.216 C58.44,71.216 58.76,70.84 58.76,70.088 C58.76,69.736 58.596,69.4 58.268,69.08 C57.94,68.76 57.472,68.6 56.864,68.6 C56.384,68.6 55.904,68.768 55.424,69.104 C54.944,69.44 54.584,69.848 54.344,70.328 C54.216,69.48 54.08,68.904 53.936,68.6 L53.936,68.6 L50.744,69.2 L50.744,69.704 C51.544,69.704 52.06,69.872 52.292,70.208 C52.524,70.544 52.64,71.304 52.64,72.488 L52.64,72.488 L52.64,73.688 C52.64,74.888 52.524,75.656 52.292,75.992 C52.06,76.328 51.544,76.496 50.744,76.496 L50.744,76.496 L50.744,77 L56.24,77 Z M64.856,77.408 C65.528,77.408 66.2,77.26 66.872,76.964 C67.544,76.668 68.096,76.288 68.528,75.824 L68.528,75.824 L68.096,75.296 C67.76,75.616 67.336,75.88 66.824,76.088 C66.312,76.296 65.856,76.4 65.456,76.4 C64.272,76.4 63.42,76.028 62.9,75.284 C62.38,74.54 62.192,73.576 62.336,72.392 L62.336,72.392 L68.12,72.392 C68.408,71.384 68.208,70.5 67.52,69.74 C66.832,68.98 65.944,68.6 64.856,68.6 C63.704,68.6 62.676,69.024 61.772,69.872 C60.868,70.72 60.416,71.76 60.416,72.992 C60.416,74.224 60.832,75.268 61.664,76.124 C62.496,76.98 63.56,77.408 64.856,77.408 Z M66.464,71.504 L62.48,71.504 C62.656,70.912 62.948,70.44 63.356,70.088 C63.764,69.736 64.224,69.56 64.736,69.56 C65.456,69.56 65.964,69.772 66.26,70.196 C66.556,70.62 66.624,71.056 66.464,71.504 L66.464,71.504 Z M75.584,77 L75.584,76.496 C74.848,76.496 74.384,76.336 74.192,76.016 C74,75.696 73.904,74.92 73.904,73.688 L73.904,73.688 L73.904,72.128 C73.904,71.488 74.192,70.928 74.768,70.448 C75.344,69.968 75.976,69.728 76.664,69.728 C77.992,69.728 78.656,70.584 78.656,72.296 L78.656,72.296 L78.656,73.688 C78.656,74.872 78.536,75.636 78.296,75.98 C78.056,76.324 77.544,76.496 76.76,76.496 L76.76,76.496 L76.76,77 L82.256,77 L82.256,76.496 C81.456,76.496 80.94,76.328 80.708,75.992 C80.476,75.656 80.36,74.888 80.36,73.688 L80.36,73.688 L80.36,72.176 C80.36,71.104 80.1,70.24 79.58,69.584 C79.06,68.928 78.28,68.6 77.24,68.6 C75.928,68.6 74.816,69.176 73.904,70.328 C73.776,69.48 73.64,68.904 73.496,68.6 L73.496,68.6 L70.304,69.2 L70.304,69.704 C71.104,69.704 71.62,69.872 71.852,70.208 C72.084,70.544 72.2,71.304 72.2,72.488 L72.2,72.488 L72.2,73.688 C72.2,74.888 72.084,75.656 71.852,75.992 C71.62,76.328 71.104,76.496 70.304,76.496 L70.304,76.496 L70.304,77 L75.584,77 Z M88.112,77.408 C89.52,77.408 90.712,76.88 91.688,75.824 L91.688,75.824 L91.28,75.296 C90.496,76.032 89.64,76.4 88.712,76.4 C87.752,76.4 87.028,76.116 86.54,75.548 C86.052,74.98 85.808,74.2 85.808,73.208 C85.808,72.12 86.032,71.208 86.48,70.472 C86.928,69.736 87.472,69.368 88.112,69.368 C88.688,69.368 88.976,69.712 88.976,70.4 C88.976,70.672 89.068,70.9 89.252,71.084 C89.436,71.268 89.656,71.36 89.912,71.36 C90.28,71.36 90.548,71.252 90.716,71.036 C90.884,70.82 90.968,70.584 90.968,70.328 C90.968,69.848 90.728,69.44 90.248,69.104 C89.768,68.768 89.056,68.6 88.112,68.6 C87.072,68.6 86.104,69.036 85.208,69.908 C84.312,70.78 83.864,71.88 83.864,73.208 C83.864,74.44 84.244,75.448 85.004,76.232 C85.764,77.016 86.8,77.408 88.112,77.408 Z M97.736,77.408 C98.408,77.408 99.08,77.26 99.752,76.964 C100.424,76.668 100.976,76.288 101.408,75.824 L101.408,75.824 L100.976,75.296 C100.64,75.616 100.216,75.88 99.704,76.088 C99.192,76.296 98.736,76.4 98.336,76.4 C97.152,76.4 96.3,76.028 95.78,75.284 C95.26,74.54 95.072,73.576 95.216,72.392 L95.216,72.392 L101,72.392 C101.288,71.384 101.088,70.5 100.4,69.74 C99.712,68.98 98.824,68.6 97.736,68.6 C96.584,68.6 95.556,69.024 94.652,69.872 C93.748,70.72 93.296,71.76 93.296,72.992 C93.296,74.224 93.712,75.268 94.544,76.124 C95.376,76.98 96.44,77.408 97.736,77.408 Z M99.344,71.504 L95.36,71.504 C95.536,70.912 95.828,70.44 96.236,70.088 C96.644,69.736 97.104,69.56 97.616,69.56 C98.336,69.56 98.844,69.772 99.14,70.196 C99.436,70.62 99.504,71.056 99.344,71.504 L99.344,71.504 Z" id="PotentialDiference" fill="#524740" fill-rule="nonzero"></path>
                <line x1="49" y1="0.617633905" x2="49" y2="33.5" id="Line-7-Copy-5" stroke="#B09679" stroke-width="2" stroke-linecap="square"></line>
                <line x1="49" y1="86.6176339" x2="49" y2="119.5" id="Line-7-Copy-4" stroke="#B09679" stroke-width="2" stroke-linecap="square"></line>
            </g>
            <g id="Charge-Carriers" transform="translate(213.000000, 14.000000)" fill="#23ABE3">
                <circle id="Oval-3-Copy-14" cx="18.5" cy="5.5" r="5.5"></circle>
                <circle id="Oval-3-Copy" cx="5.5" cy="5.5" r="5.5"></circle>
                <circle id="Oval-3-Copy-16" cx="44.5" cy="5.5" r="5.5"></circle>
                <circle id="Oval-3-Copy-15" cx="31.5" cy="5.5" r="5.5"></circle>
                <circle id="Oval-3-Copy-20" cx="70.5" cy="5.5" r="5.5"></circle>
                <circle id="Oval-3-Copy-19" cx="57.5" cy="5.5" r="5.5"></circle>
                <circle id="Oval-3-Copy-18" cx="96.5" cy="5.5" r="5.5"></circle>
                <circle id="Oval-3-Copy-17" cx="83.5" cy="5.5" r="5.5"></circle>
                <circle id="Oval-3-Copy-29" cx="109.5" cy="5.5" r="5.5"></circle>
                <circle id="Oval-3-Copy-28" cx="135.5" cy="5.5" r="5.5"></circle>
                <circle id="Oval-3-Copy-27" cx="122.5" cy="5.5" r="5.5"></circle>
                <circle id="Oval-3-Copy-26" cx="161.5" cy="5.5" r="5.5"></circle>
                <circle id="Oval-3-Copy-25" cx="148.5" cy="5.5" r="5.5"></circle>
                <circle id="Oval-3-Copy-24" cx="187.5" cy="5.5" r="5.5"></circle>
                <circle id="Oval-3-Copy-23" cx="174.5" cy="5.5" r="5.5"></circle>
                <circle id="Oval-3-Copy-40" cx="70.5" cy="148.5" r="5.5"></circle>
                <circle id="Oval-3-Copy-39" cx="57.5" cy="148.5" r="5.5"></circle>
                <circle id="Oval-3-Copy-38" cx="96.5" cy="148.5" r="5.5"></circle>
                <circle id="Oval-3-Copy-37" cx="83.5" cy="148.5" r="5.5"></circle>
                <circle id="Oval-3-Copy-36" cx="109.5" cy="148.5" r="5.5"></circle>
                <circle id="Oval-3-Copy-35" cx="135.5" cy="148.5" r="5.5"></circle>
                <circle id="Oval-3-Copy-34" cx="122.5" cy="148.5" r="5.5"></circle>
                <circle id="Oval-3-Copy-33" cx="161.5" cy="148.5" r="5.5"></circle>
                <circle id="Oval-3-Copy-32" cx="148.5" cy="148.5" r="5.5"></circle>
                <circle id="Oval-3-Copy-30" cx="174.5" cy="145.5" r="5.5"></circle>
                <circle id="Oval-3-Copy-2" cx="5.5" cy="18.5" r="5.5"></circle>
                <circle id="Oval-3-Copy-5" cx="5.5" cy="31.5" r="5.5"></circle>
                <circle id="Oval-3-Copy-4" cx="5.5" cy="44.5" r="5.5"></circle>
                <circle id="Oval-3-Copy-3" cx="5.5" cy="57.5" r="5.5"></circle>
                <circle id="Oval-3-Copy-11" cx="5.5" cy="70.5" r="5.5"></circle>
                <circle id="Oval-3-Copy-10" cx="5.5" cy="83.5" r="5.5"></circle>
                <circle id="Oval-3-Copy-9" cx="5.5" cy="96.5" r="5.5"></circle>
                <circle id="Oval-3-Copy-8" cx="5.5" cy="109.5" r="5.5"></circle>
                <circle id="Oval-3-Copy-7" cx="5.5" cy="122.5" r="5.5"></circle>
                <circle id="Oval-3-Copy-6" cx="5.5" cy="135.5" r="5.5"></circle>
                <circle id="Oval-3-Copy-50" cx="187.5" cy="18.5" r="5.5"></circle>
                <circle id="Oval-3-Copy-49" cx="187.5" cy="31.5" r="5.5"></circle>
                <circle id="Oval-3-Copy-48" cx="187.5" cy="44.5" r="5.5"></circle>
                <circle id="Oval-3-Copy-47" cx="187.5" cy="57.5" r="5.5"></circle>
                <circle id="Oval-3-Copy-46" cx="187.5" cy="70.5" r="5.5"></circle>
                <circle id="Oval-3-Copy-45" cx="187.5" cy="83.5" r="5.5"></circle>
                <circle id="Oval-3-Copy-44" cx="187.5" cy="96.5" r="5.5"></circle>
                <circle id="Oval-3-Copy-43" cx="187.5" cy="109.5" r="5.5"></circle>
                <circle id="Oval-3-Copy-42" cx="187.5" cy="122.5" r="5.5"></circle>
                <circle id="Oval-3-Copy-41" cx="184.5" cy="135.5" r="5.5"></circle>
                <circle id="Oval-3-Copy-13" cx="5.5" cy="148.5" r="5.5"></circle>
                <circle id="Oval-3-Copy-12" cx="18.5" cy="148.5" r="5.5"></circle>
                <circle id="Oval-3-Copy-22" cx="31.5" cy="148.5" r="5.5"></circle>
                <circle id="Oval-3-Copy-21" cx="44.5" cy="148.5" r="5.5"></circle>
            </g>
            <g id="Water-Wheel" transform="translate(330.000000, 92.000000)">
                <line x1="40" y1="0.5" x2="40" y2="78.5" id="Line-5" stroke="#B09679" stroke-width="4" stroke-linecap="square"></line>
                <line x1="40" y1="0.5" x2="40" y2="78.5" id="Line-5-Copy" stroke="#B09679" stroke-width="4" stroke-linecap="square" transform="translate(40.000000, 39.500000) rotate(-270.000000) translate(-40.000000, -39.500000) "></line>
                <line x1="40" y1="0.5" x2="40" y2="78.5" id="Line-5-Copy-2" stroke="#B09679" stroke-width="4" stroke-linecap="square" transform="translate(40.000000, 39.500000) rotate(-225.000000) translate(-40.000000, -39.500000) "></line>
                <line x1="11.9228355" y1="67.0771645" x2="67.0771645" y2="11.9228355" id="Line-5-Copy-3" stroke="#B09679" stroke-width="4" stroke-linecap="square"></line>
                <circle id="Oval-Copy-2" stroke="#555555" stroke-width="2" cx="39.5" cy="39.5" r="38.5"></circle>
                <circle id="Oval" fill="#B09679" cx="39.5" cy="39.5" r="22.5"></circle>
                <circle id="Oval-Copy" fill="#555555" cx="39.5" cy="39.5" r="7.5"></circle>
            </g>
        </g>
    </g>
</svg>