<?xml version="1.0" encoding="UTF-8"?>
<svg width="900px" height="270px" viewBox="0 0 900 270" version="1.1" xmlns="http://www.w3.org/2000/svg" xmlns:xlink="http://www.w3.org/1999/xlink">
    <!-- Generator: Sketch 60.1 (88133) - https://sketch.com -->
    <title>Electric_Drill</title>
    <desc>Created with Sketch.</desc>
    <g id="Electric_Drill" stroke="none" stroke-width="1" fill="none" fill-rule="evenodd">
        <g id="Illustration_Frame">
            <rect id="Rectangle" stroke="#3D3530" stroke-width="2" fill="#EEEEEE" x="1" y="1" width="898" height="268"></rect>
            <rect id="Rectangle-Copy" stroke="#3D3530" stroke-width="2" fill="#F8FAE4" x="1" y="226" width="898" height="43"></rect>
            <path d="M751.146666,255 L751.146666,253.416 L742.146666,253.416 L742.146666,247.584 L747.210666,247.584 L747.210666,246 L742.146666,246 L742.146666,240.456 L751.146666,240.456 L751.146666,238.872 L740.562666,238.872 L740.562666,255 L751.146666,255 Z M756.229333,255 L756.229333,237.144 L754.645333,237.144 L754.645333,255 L756.229333,255 Z M765.656,255.072 C767.128,255.088 768.396,254.672 769.46,253.824 C770.524,252.976 771.24,252.048 771.608,251.04 L771.608,251.04 L770.264,250.56 C769.96,251.376 769.384,252.088 768.536,252.696 C767.688,253.304 766.728,253.608 765.656,253.608 C764.664,253.624 763.76,253.324 762.944,252.708 C762.128,252.092 761.584,251.304 761.312,250.344 L761.312,250.344 L771.8,248.448 C771.8,248.32 771.792,248.216 771.776,248.136 C771.6,246.6 770.928,245.312 769.76,244.272 C768.592,243.232 767.224,242.704 765.656,242.688 C763.928,242.704 762.464,243.312 761.264,244.512 C760.064,245.712 759.464,247.176 759.464,248.904 C759.464,249.528 759.544,250.104 759.704,250.632 C760.104,251.928 760.86,252.992 761.972,253.824 C763.084,254.656 764.312,255.072 765.656,255.072 Z M761.072,249.048 C761.072,248.968 761.068,248.868 761.06,248.748 C761.052,248.628 761.048,248.544 761.048,248.496 C761.112,247.312 761.572,246.296 762.428,245.448 C763.284,244.6 764.312,244.168 765.512,244.152 C766.536,244.136 767.464,244.436 768.296,245.052 C769.128,245.668 769.696,246.464 770,247.44 L770,247.44 L761.072,249.048 Z M780.650666,255.192 C781.738666,255.192 782.750666,254.924 783.686666,254.388 C784.622666,253.852 785.362666,253.136 785.906666,252.24 L785.906666,252.24 L784.466666,251.544 C784.034666,252.2 783.482666,252.72 782.810666,253.104 C782.138666,253.488 781.418666,253.68 780.650666,253.68 C779.354666,253.68 778.262666,253.228 777.374666,252.324 C776.486666,251.42 776.042666,250.312 776.042666,249 C776.042666,247.688 776.486666,246.58 777.374666,245.676 C778.262666,244.772 779.354666,244.32 780.650666,244.32 C781.418666,244.32 782.138666,244.512 782.810666,244.896 C783.482666,245.28 784.034666,245.8 784.466666,246.456 L784.466666,246.456 L785.906666,245.76 C785.362666,244.864 784.622666,244.148 783.686666,243.612 C782.750666,243.076 781.738666,242.808 780.650666,242.808 C778.938666,242.808 777.478666,243.412 776.270666,244.62 C775.062666,245.828 774.458666,247.288 774.458666,249 C774.458666,250.712 775.062666,252.172 776.270666,253.38 C777.478666,254.588 778.938666,255.192 780.650666,255.192 Z M793.701333,255.192 C794.293333,255.192 794.869333,255.036 795.429333,254.724 C795.989333,254.412 796.349333,254.168 796.509333,253.992 C796.669333,253.816 796.797333,253.664 796.893333,253.536 L796.893333,253.536 L796.101333,252.312 C796.101333,252.376 796.017333,252.516 795.849333,252.732 C795.681333,252.948 795.421333,253.168 795.069333,253.392 C794.717333,253.616 794.357333,253.728 793.989333,253.728 C793.397333,253.728 792.873333,253.512 792.417333,253.08 C791.961333,252.648 791.733333,252.064 791.733333,251.328 L791.733333,251.328 L791.733333,244.44 L795.357333,244.44 L795.357333,242.976 L791.733333,242.976 L791.733333,238.992 L790.149333,239.184 L790.149333,242.976 L788.229333,242.976 L788.229333,244.44 L790.149333,244.44 L790.149333,251.688 C790.149333,252.824 790.489333,253.692 791.169333,254.292 C791.849333,254.892 792.693333,255.192 793.701333,255.192 Z M801.592,255 L801.592,247.968 C801.592,246.928 801.936,246.052 802.624,245.34 C803.312,244.628 804.16,244.272 805.168,244.272 C805.856,244.272 806.536,244.52 807.208,245.016 L807.208,245.016 L807.76,243.432 C807.056,243.016 806.28,242.808 805.432,242.808 C803.848,242.808 802.568,243.464 801.592,244.776 L801.592,244.776 L801.592,243 L800.008,243 L800.008,255 L801.592,255 Z M811.522666,239.688 C811.794666,239.688 812.018666,239.592 812.194666,239.4 C812.386666,239.208 812.482666,238.984 812.482666,238.728 C812.482666,238.472 812.390666,238.248 812.206666,238.056 C812.022666,237.864 811.794666,237.768 811.522666,237.768 C811.250666,237.768 811.022666,237.864 810.838666,238.056 C810.654666,238.248 810.562666,238.472 810.562666,238.728 C810.562666,238.984 810.654666,239.208 810.838666,239.4 C811.022666,239.592 811.250666,239.688 811.522666,239.688 Z M812.314666,255 L812.314666,243 L810.730666,243 L810.730666,255 L812.314666,255 Z M821.981333,255.192 C823.069333,255.192 824.081333,254.924 825.017333,254.388 C825.953333,253.852 826.693333,253.136 827.237333,252.24 L827.237333,252.24 L825.797333,251.544 C825.365333,252.2 824.813333,252.72 824.141333,253.104 C823.469333,253.488 822.749333,253.68 821.981333,253.68 C820.685333,253.68 819.593333,253.228 818.705333,252.324 C817.817333,251.42 817.373333,250.312 817.373333,249 C817.373333,247.688 817.817333,246.58 818.705333,245.676 C819.593333,244.772 820.685333,244.32 821.981333,244.32 C822.749333,244.32 823.469333,244.512 824.141333,244.896 C824.813333,245.28 825.365333,245.8 825.797333,246.456 L825.797333,246.456 L827.237333,245.76 C826.693333,244.864 825.953333,244.148 825.017333,243.612 C824.081333,243.076 823.069333,242.808 821.981333,242.808 C820.269333,242.808 818.809333,243.412 817.601333,244.62 C816.393333,245.828 815.789333,247.288 815.789333,249 C815.789333,250.712 816.393333,252.172 817.601333,253.38 C818.809333,254.588 820.269333,255.192 821.981333,255.192 Z M841.602666,255 C844.242666,255 846.350666,254.228 847.926667,252.684 C849.502666,251.14 850.290666,249.224 850.290666,246.936 C850.290666,244.632 849.506666,242.712 847.938666,241.176 C846.370666,239.64 844.258667,238.872 841.602666,238.872 L841.602666,238.872 L837.954666,238.872 L837.954666,255 L841.602666,255 Z M841.602666,253.488 L839.538666,253.488 L839.538666,240.384 L841.602666,240.384 C843.714666,240.384 845.402667,241.004 846.666667,242.244 C847.930667,243.484 848.562666,245.048 848.562666,246.936 C848.562666,248.824 847.930667,250.388 846.666667,251.628 C845.402667,252.868 843.714666,253.488 841.602666,253.488 L841.602666,253.488 Z M855.349333,255 L855.349333,247.968 C855.349333,246.928 855.693333,246.052 856.381333,245.34 C857.069333,244.628 857.917333,244.272 858.925333,244.272 C859.613333,244.272 860.293333,244.52 860.965333,245.016 L860.965333,245.016 L861.517333,243.432 C860.813333,243.016 860.037333,242.808 859.189333,242.808 C857.605333,242.808 856.325333,243.464 855.349333,244.776 L855.349333,244.776 L855.349333,243 L853.765333,243 L853.765333,255 L855.349333,255 Z M865.28,239.688 C865.552,239.688 865.776,239.592 865.952,239.4 C866.144,239.208 866.24,238.984 866.24,238.728 C866.24,238.472 866.148,238.248 865.964,238.056 C865.78,237.864 865.552,237.768 865.28,237.768 C865.008,237.768 864.78,237.864 864.596,238.056 C864.412,238.248 864.32,238.472 864.32,238.728 C864.32,238.984 864.412,239.208 864.596,239.4 C864.78,239.592 865.008,239.688 865.28,239.688 Z M866.072,255 L866.072,243 L864.488,243 L864.488,255 L866.072,255 Z M871.994667,255 L871.994667,237.144 L870.410667,237.144 L870.410667,255 L871.994667,255 Z M877.581333,255 L877.581333,237.144 L875.997333,237.144 L875.997333,255 L877.581333,255 Z" id="ElectricDrill" fill="#23ABE3" fill-rule="nonzero"></path>
        </g>
        <g id="Drill" transform="translate(220.000000, 21.000000)">
            <path d="M192.355469,13.5585938 C192.355469,13.5585938 194.372396,9.57942708 198.40625,1.62109375 L212.894531,1.62109375 L341.417969,1.62109375 L358.4375,13.5585938 L358.4375,43.7578125 L341.417969,57.6835938 L302.449219,57.6835938 L267.675781,64.5703125 L267.675781,85.0351562 L250.375,85.0351562 L250.375,130.773437 L262.359375,140.230469 L262.359375,179.710938 L192.355469,179.710938 L192.355469,140.230469 L205.144531,130.773437 L205.144531,57.6835937 C196.61849,55.1158854 192.355469,53.7552083 192.355469,53.6015625 C192.355469,53.3710937 181.253906,43.7578125 192.355469,13.5585938 Z" id="Path-6" stroke="#555555" fill="#999999"></path>
            <line x1="269.5" y1="146" x2="297" y2="158" id="Line-7" stroke="#B09679" stroke-width="2" stroke-linecap="square"></line>
            <line x1="276.5" y1="86" x2="304" y2="98" id="Line-7-Copy-9" stroke="#B09679" stroke-width="2" stroke-linecap="square"></line>
            <line x1="221" y1="17" x2="150" y2="30" id="Line-7-Copy-8" stroke="#B09679" stroke-width="2" stroke-linecap="square"></line>
            <path d="M317.572,166 C319.188,166 320.452,165.62 321.364,164.86 C322.276,164.1 322.732,163.136 322.732,161.968 C322.732,161.104 322.452,160.328 321.892,159.64 C321.332,158.952 320.588,158.464 319.66,158.176 C320.908,157.44 321.532,156.448 321.532,155.2 C321.532,154.16 321.128,153.3 320.32,152.62 C319.512,151.94 318.372,151.6 316.9,151.6 L316.9,151.6 L310.444,151.6 L310.444,152.104 C311.436,152.104 312.064,152.268 312.328,152.596 C312.592,152.924 312.724,153.688 312.724,154.888 L312.724,154.888 L312.724,162.688 C312.724,163.888 312.592,164.656 312.328,164.992 C312.064,165.328 311.436,165.496 310.444,165.496 L310.444,165.496 L310.444,166 L317.572,166 Z M316.78,157.888 L314.644,157.888 L314.644,152.488 L316.78,152.488 C317.644,152.488 318.3,152.744 318.748,153.256 C319.196,153.768 319.42,154.416 319.42,155.2 C319.42,155.984 319.196,156.628 318.748,157.132 C318.3,157.636 317.644,157.888 316.78,157.888 L316.78,157.888 Z M317.548,165.112 L316.924,165.112 C315.932,165.112 315.304,164.948 315.04,164.62 C314.776,164.292 314.644,163.528 314.644,162.328 L314.644,162.328 L314.644,158.776 L317.548,158.776 C318.54,158.776 319.3,159.076 319.828,159.676 C320.356,160.276 320.62,161.04 320.62,161.968 C320.62,162.88 320.356,163.632 319.828,164.224 C319.3,164.816 318.54,165.112 317.548,165.112 L317.548,165.112 Z M327.196,166.312 C328.124,166.312 329.124,165.832 330.196,164.872 C330.324,165.8 330.868,166.264 331.828,166.264 C332.42,166.264 332.948,166.016 333.412,165.52 L333.412,165.52 L333.076,165.064 C332.836,165.304 332.612,165.424 332.404,165.424 C332.036,165.424 331.852,165.112 331.852,164.488 L331.852,164.488 L331.852,160.864 C331.852,159.712 331.596,158.88 331.084,158.368 C330.572,157.856 329.732,157.6 328.564,157.6 C327.764,157.6 327.056,157.78 326.44,158.14 C325.824,158.5 325.516,158.96 325.516,159.52 C325.516,159.76 325.596,159.96 325.756,160.12 C325.916,160.28 326.116,160.36 326.356,160.36 C326.58,160.36 326.772,160.28 326.932,160.12 C327.092,159.96 327.172,159.76 327.172,159.52 C327.172,159.168 327.32,158.888 327.616,158.68 C327.912,158.472 328.22,158.368 328.54,158.368 C329.196,158.368 329.628,158.552 329.836,158.92 C330.044,159.288 330.148,159.944 330.148,160.888 C326.74,161.48 325.036,162.616 325.036,164.296 C325.036,164.92 325.244,165.412 325.66,165.772 C326.076,166.132 326.588,166.312 327.196,166.312 Z M327.964,165.232 C327.644,165.232 327.376,165.12 327.16,164.896 C326.944,164.672 326.836,164.376 326.836,164.008 C326.836,162.936 327.94,162.144 330.148,161.632 L330.148,161.632 L330.148,164.08 C329.284,164.848 328.556,165.232 327.964,165.232 Z M337.948,166.336 C338.348,166.336 338.784,166.208 339.256,165.952 C339.728,165.696 340.132,165.368 340.468,164.968 L340.468,164.968 L340.06,164.56 C339.484,165.104 338.964,165.376 338.5,165.376 C337.78,165.376 337.42,164.8 337.42,163.648 L337.42,163.648 L337.42,158.848 L339.508,158.848 L339.508,158.008 L337.42,158.008 L337.42,155.368 L336.604,155.368 C336.508,156.2 336.3,156.856 335.98,157.336 C335.66,157.816 335.156,158.128 334.468,158.272 L334.468,158.272 L334.468,158.848 L335.716,158.848 L335.716,163.648 C335.716,164.544 335.916,165.216 336.316,165.664 C336.716,166.112 337.26,166.336 337.948,166.336 Z M345.028,166.336 C345.428,166.336 345.864,166.208 346.336,165.952 C346.808,165.696 347.212,165.368 347.548,164.968 L347.548,164.968 L347.14,164.56 C346.564,165.104 346.044,165.376 345.58,165.376 C344.86,165.376 344.5,164.8 344.5,163.648 L344.5,163.648 L344.5,158.848 L346.588,158.848 L346.588,158.008 L344.5,158.008 L344.5,155.368 L343.684,155.368 C343.588,156.2 343.38,156.856 343.06,157.336 C342.74,157.816 342.236,158.128 341.548,158.272 L341.548,158.272 L341.548,158.848 L342.796,158.848 L342.796,163.648 C342.796,164.544 342.996,165.216 343.396,165.664 C343.796,166.112 344.34,166.336 345.028,166.336 Z M353.548,166.408 C354.22,166.408 354.892,166.26 355.564,165.964 C356.236,165.668 356.788,165.288 357.22,164.824 L357.22,164.824 L356.788,164.296 C356.452,164.616 356.028,164.88 355.516,165.088 C355.004,165.296 354.548,165.4 354.148,165.4 C352.964,165.4 352.112,165.028 351.592,164.284 C351.072,163.54 350.884,162.576 351.028,161.392 L351.028,161.392 L356.812,161.392 C357.1,160.384 356.9,159.5 356.212,158.74 C355.524,157.98 354.636,157.6 353.548,157.6 C352.396,157.6 351.368,158.024 350.464,158.872 C349.56,159.72 349.108,160.76 349.108,161.992 C349.108,163.224 349.524,164.268 350.356,165.124 C351.188,165.98 352.252,166.408 353.548,166.408 Z M355.156,160.504 L351.172,160.504 C351.348,159.912 351.64,159.44 352.048,159.088 C352.456,158.736 352.916,158.56 353.428,158.56 C354.148,158.56 354.656,158.772 354.952,159.196 C355.248,159.62 355.316,160.056 355.156,160.504 L355.156,160.504 Z M364.492,166 L364.492,165.496 C363.692,165.496 363.176,165.328 362.944,164.992 C362.712,164.656 362.596,163.888 362.596,162.688 L362.596,162.688 L362.596,161.368 C362.596,160.52 362.812,159.84 363.244,159.328 C363.676,158.816 364.076,158.56 364.444,158.56 C364.956,158.56 365.212,158.824 365.212,159.352 C365.212,159.576 365.296,159.776 365.464,159.952 C365.632,160.128 365.828,160.216 366.052,160.216 C366.692,160.216 367.012,159.84 367.012,159.088 C367.012,158.736 366.848,158.4 366.52,158.08 C366.192,157.76 365.724,157.6 365.116,157.6 C364.636,157.6 364.156,157.768 363.676,158.104 C363.196,158.44 362.836,158.848 362.596,159.328 C362.468,158.48 362.332,157.904 362.188,157.6 L362.188,157.6 L358.996,158.2 L358.996,158.704 C359.796,158.704 360.312,158.872 360.544,159.208 C360.776,159.544 360.892,160.304 360.892,161.488 L360.892,161.488 L360.892,162.688 C360.892,163.888 360.776,164.656 360.544,164.992 C360.312,165.328 359.796,165.496 358.996,165.496 L358.996,165.496 L358.996,166 L364.492,166 Z M369.484,172.48 C369.836,172.48 370.132,172.184 370.372,171.592 L370.372,171.592 L375.052,159.904 C375.436,158.96 376.004,158.488 376.756,158.488 L376.756,158.488 L376.756,158.008 L373.396,158.008 L373.396,158.488 C373.892,158.488 374.188,158.588 374.284,158.788 C374.38,158.988 374.316,159.36 374.092,159.904 L374.092,159.904 L372.556,163.744 L370.804,159.904 C370.548,159.312 370.476,158.928 370.588,158.752 C370.7,158.576 371.028,158.488 371.572,158.488 L371.572,158.488 L371.572,158.008 L367.324,158.008 L367.324,158.488 C367.692,158.488 367.988,158.588 368.212,158.788 C368.436,158.988 368.676,159.36 368.932,159.904 L368.932,159.904 L371.692,165.88 L370.492,168.88 C370.284,169.408 370.024,169.844 369.712,170.188 C369.4,170.532 369.148,170.804 368.956,171.004 C368.764,171.204 368.668,171.432 368.668,171.688 C368.668,171.96 368.752,172.16 368.92,172.288 C369.088,172.416 369.276,172.48 369.484,172.48 Z" id="Battery" fill="#524740" fill-rule="nonzero"></path>
            <path d="M321.672,106 L321.672,105.496 C320.68,105.496 320.048,105.328 319.776,104.992 C319.504,104.656 319.368,103.888 319.368,102.688 L319.368,102.688 L319.368,92.536 L322.512,92.536 C323.536,92.536 324.208,92.66 324.528,92.908 C324.848,93.156 325.104,93.64 325.296,94.36 L325.296,94.36 L325.416,94.84 L325.92,94.84 L325.704,91.6 L311.136,91.6 L310.92,94.84 L311.424,94.84 L311.544,94.36 C311.736,93.64 311.992,93.156 312.312,92.908 C312.632,92.66 313.304,92.536 314.328,92.536 L314.328,92.536 L317.472,92.536 L317.472,102.688 C317.472,103.888 317.336,104.656 317.064,104.992 C316.792,105.328 316.16,105.496 315.168,105.496 L315.168,105.496 L315.168,106 L321.672,106 Z M332.52,106 L332.52,105.496 C331.72,105.496 331.204,105.328 330.972,104.992 C330.74,104.656 330.624,103.888 330.624,102.688 L330.624,102.688 L330.624,101.368 C330.624,100.52 330.84,99.84 331.272,99.328 C331.704,98.816 332.104,98.56 332.472,98.56 C332.984,98.56 333.24,98.824 333.24,99.352 C333.24,99.576 333.324,99.776 333.492,99.952 C333.66,100.128 333.856,100.216 334.08,100.216 C334.72,100.216 335.04,99.84 335.04,99.088 C335.04,98.736 334.876,98.4 334.548,98.08 C334.22,97.76 333.752,97.6 333.144,97.6 C332.664,97.6 332.184,97.768 331.704,98.104 C331.224,98.44 330.864,98.848 330.624,99.328 C330.496,98.48 330.36,97.904 330.216,97.6 L330.216,97.6 L327.024,98.2 L327.024,98.704 C327.824,98.704 328.34,98.872 328.572,99.208 C328.804,99.544 328.92,100.304 328.92,101.488 L328.92,101.488 L328.92,102.688 C328.92,103.888 328.804,104.656 328.572,104.992 C328.34,105.328 327.824,105.496 327.024,105.496 L327.024,105.496 L327.024,106 L332.52,106 Z M339.192,95.248 C339.48,95.248 339.728,95.144 339.936,94.936 C340.144,94.728 340.248,94.472 340.248,94.168 C340.248,93.88 340.144,93.632 339.936,93.424 C339.728,93.216 339.48,93.112 339.192,93.112 C338.904,93.112 338.656,93.216 338.448,93.424 C338.24,93.632 338.136,93.88 338.136,94.168 C338.136,94.472 338.24,94.728 338.448,94.936 C338.656,95.144 338.904,95.248 339.192,95.248 Z M341.952,106 L341.952,105.496 C341.152,105.496 340.636,105.328 340.404,104.992 C340.172,104.656 340.056,103.888 340.056,102.688 L340.056,102.688 L340.056,97.6 L336.456,98.2 L336.456,98.704 C337.256,98.704 337.772,98.872 338.004,99.208 C338.236,99.544 338.352,100.304 338.352,101.488 L338.352,101.488 L338.352,102.688 C338.352,103.888 338.236,104.656 338.004,104.992 C337.772,105.328 337.256,105.496 336.456,105.496 L336.456,105.496 L336.456,106 L341.952,106 Z M347.064,112.408 C348.28,112.408 349.292,112.116 350.1,111.532 C350.908,110.948 351.312,110.168 351.312,109.192 C351.312,108.376 350.968,107.68 350.28,107.104 C349.592,106.528 348.48,106.176 346.944,106.048 C345.488,105.92 344.76,105.616 344.76,105.136 C344.76,104.672 345.656,104.336 347.448,104.128 C348.28,104.016 349.008,103.656 349.632,103.048 C350.256,102.44 350.568,101.712 350.568,100.864 C350.568,100.128 350.336,99.48 349.872,98.92 C350.128,98.664 350.376,98.536 350.616,98.536 C350.84,98.536 351.004,98.596 351.108,98.716 C351.212,98.836 351.276,98.964 351.3,99.1 L351.327,99.19975 C351.363,99.29725 351.426,99.388 351.516,99.472 C351.636,99.584 351.816,99.632 352.056,99.616 C352.184,99.616 352.296,99.576 352.392,99.496 C352.68,99.272 352.752,98.936 352.608,98.488 C352.416,97.896 351.968,97.6 351.264,97.6 C350.992,97.6 350.676,97.688 350.316,97.864 C349.956,98.04 349.672,98.256 349.464,98.512 C348.776,97.904 347.952,97.6 346.992,97.6 C346,97.6 345.156,97.92 344.46,98.56 C343.764,99.2 343.416,99.968 343.416,100.864 C343.416,101.504 343.596,102.08 343.956,102.592 C344.316,103.104 344.808,103.504 345.432,103.792 C344.088,104.208 343.416,104.848 343.416,105.712 C343.416,106.976 344.552,107.72 346.824,107.944 C347.928,108.056 348.74,108.232 349.26,108.472 C349.78,108.712 350.04,109.096 350.04,109.624 C350.04,110.168 349.74,110.612 349.14,110.956 C348.54,111.3 347.848,111.472 347.064,111.472 C346.568,111.472 346.092,111.4 345.636,111.256 C345.18,111.112 344.796,110.912 344.484,110.656 C344.172,110.4 344.032,110.052 344.064,109.612 C344.096,109.172 344.344,108.688 344.808,108.16 L344.808,108.16 L344.376,107.896 C343.416,108.392 342.904,109 342.84,109.72 C342.776,110.44 343.14,111.068 343.932,111.604 C344.724,112.14 345.768,112.408 347.064,112.408 Z M346.992,103.336 C346.432,103.336 346,103.108 345.696,102.652 C345.392,102.196 345.24,101.6 345.24,100.864 C345.24,100.128 345.392,99.528 345.696,99.064 C346,98.6 346.432,98.368 346.992,98.368 C347.552,98.368 347.98,98.6 348.276,99.064 C348.572,99.528 348.72,100.128 348.72,100.864 C348.72,101.6 348.568,102.2 348.264,102.664 C347.976,103.112 347.552,103.336 346.992,103.336 Z M357.216,112.408 C358.432,112.408 359.444,112.116 360.252,111.532 C361.06,110.948 361.464,110.168 361.464,109.192 C361.464,108.376 361.12,107.68 360.432,107.104 C359.744,106.528 358.632,106.176 357.096,106.048 C355.64,105.92 354.912,105.616 354.912,105.136 C354.912,104.672 355.808,104.336 357.6,104.128 C358.432,104.016 359.16,103.656 359.784,103.048 C360.408,102.44 360.72,101.712 360.72,100.864 C360.72,100.128 360.488,99.48 360.024,98.92 C360.28,98.664 360.528,98.536 360.768,98.536 C360.992,98.536 361.156,98.596 361.26,98.716 C361.364,98.836 361.428,98.964 361.452,99.1 C361.476,99.236 361.548,99.36 361.668,99.472 C361.788,99.584 361.968,99.632 362.208,99.616 C362.336,99.616 362.448,99.576 362.544,99.496 C362.832,99.272 362.904,98.936 362.76,98.488 C362.568,97.896 362.12,97.6 361.416,97.6 C361.144,97.6 360.828,97.688 360.468,97.864 C360.108,98.04 359.824,98.256 359.616,98.512 C358.928,97.904 358.104,97.6 357.144,97.6 C356.152,97.6 355.308,97.92 354.612,98.56 C353.916,99.2 353.568,99.968 353.568,100.864 C353.568,101.504 353.748,102.08 354.108,102.592 C354.468,103.104 354.96,103.504 355.584,103.792 C354.24,104.208 353.568,104.848 353.568,105.712 C353.568,106.976 354.704,107.72 356.976,107.944 C358.08,108.056 358.892,108.232 359.412,108.472 C359.932,108.712 360.192,109.096 360.192,109.624 C360.192,110.168 359.892,110.612 359.292,110.956 C358.692,111.3 358,111.472 357.216,111.472 C356.72,111.472 356.244,111.4 355.788,111.256 C355.332,111.112 354.948,110.912 354.636,110.656 C354.324,110.4 354.184,110.052 354.216,109.612 C354.248,109.172 354.496,108.688 354.96,108.16 L354.96,108.16 L354.528,107.896 C353.568,108.392 353.056,109 352.992,109.72 C352.928,110.44 353.292,111.068 354.084,111.604 C354.876,112.14 355.92,112.408 357.216,112.408 Z M357.144,103.336 C356.584,103.336 356.152,103.108 355.848,102.652 C355.544,102.196 355.392,101.6 355.392,100.864 C355.392,100.128 355.544,99.528 355.848,99.064 C356.152,98.6 356.584,98.368 357.144,98.368 C357.704,98.368 358.132,98.6 358.428,99.064 C358.724,99.528 358.872,100.128 358.872,100.864 C358.872,101.6 358.72,102.2 358.416,102.664 C358.128,103.112 357.704,103.336 357.144,103.336 Z M368.304,106.408 C368.976,106.408 369.648,106.26 370.32,105.964 C370.992,105.668 371.544,105.288 371.976,104.824 L371.976,104.824 L371.544,104.296 C371.208,104.616 370.784,104.88 370.272,105.088 C369.76,105.296 369.304,105.4 368.904,105.4 C367.72,105.4 366.868,105.028 366.348,104.284 C365.828,103.54 365.64,102.576 365.784,101.392 L365.784,101.392 L371.568,101.392 C371.856,100.384 371.656,99.5 370.968,98.74 C370.28,97.98 369.392,97.6 368.304,97.6 C367.152,97.6 366.124,98.024 365.22,98.872 C364.316,99.72 363.864,100.76 363.864,101.992 C363.864,103.224 364.28,104.268 365.112,105.124 C365.944,105.98 367.008,106.408 368.304,106.408 Z M369.912,100.504 L365.928,100.504 C366.104,99.912 366.396,99.44 366.804,99.088 C367.212,98.736 367.672,98.56 368.184,98.56 C368.904,98.56 369.412,98.772 369.708,99.196 C370.004,99.62 370.072,100.056 369.912,100.504 L369.912,100.504 Z M379.248,106 L379.248,105.496 C378.448,105.496 377.932,105.328 377.7,104.992 C377.468,104.656 377.352,103.888 377.352,102.688 L377.352,102.688 L377.352,101.368 C377.352,100.52 377.568,99.84 378,99.328 C378.432,98.816 378.832,98.56 379.2,98.56 C379.712,98.56 379.968,98.824 379.968,99.352 C379.968,99.576 380.052,99.776 380.22,99.952 C380.388,100.128 380.584,100.216 380.808,100.216 C381.448,100.216 381.768,99.84 381.768,99.088 C381.768,98.736 381.604,98.4 381.276,98.08 C380.948,97.76 380.48,97.6 379.872,97.6 C379.392,97.6 378.912,97.768 378.432,98.104 C377.952,98.44 377.592,98.848 377.352,99.328 C377.224,98.48 377.088,97.904 376.944,97.6 L376.944,97.6 L373.752,98.2 L373.752,98.704 C374.552,98.704 375.068,98.872 375.3,99.208 C375.532,99.544 375.648,100.304 375.648,101.488 L375.648,101.488 L375.648,102.688 C375.648,103.888 375.532,104.656 375.3,104.992 C375.068,105.328 374.552,105.496 373.752,105.496 L373.752,105.496 L373.752,106 L379.248,106 Z" id="Trigger" fill="#524740" fill-rule="nonzero"></path>
            <path d="M13.324,35 L13.516,31.808 L13.012,31.808 L12.892,32.288 C12.78,32.768 12.656,33.12 12.52,33.344 C12.384,33.568 12.128,33.752 11.752,33.896 C11.376,34.04 10.828,34.112 10.108,34.112 L10.108,34.112 L8.044,34.112 C7.052,34.112 6.424,33.948 6.16,33.62 C5.896,33.292 5.764,32.528 5.764,31.328 L5.764,31.328 L5.764,27.824 L6.964,27.824 C8.164,27.824 8.928,27.956 9.256,28.22 C9.584,28.484 9.748,29.12 9.748,30.128 L9.748,30.128 L10.252,30.128 L10.252,24.632 L9.748,24.632 C9.748,25.64 9.584,26.276 9.256,26.54 C8.928,26.804 8.164,26.936 6.964,26.936 L6.964,26.936 L5.764,26.936 L5.764,21.488 L9.316,21.488 C10.34,21.488 11.012,21.612 11.332,21.86 C11.652,22.108 11.908,22.584 12.1,23.288 L12.1,23.288 L12.22,23.768 L12.724,23.768 L12.508,20.6 L1.564,20.6 L1.564,21.104 C2.556,21.104 3.184,21.268 3.448,21.596 C3.712,21.924 3.844,22.688 3.844,23.888 L3.844,23.888 L3.844,31.688 C3.844,32.888 3.712,33.656 3.448,33.992 C3.184,34.328 2.556,34.496 1.564,34.496 L1.564,34.496 L1.564,35 L13.324,35 Z M20.596,35 L20.596,34.496 C19.796,34.496 19.28,34.328 19.048,33.992 C18.816,33.656 18.7,32.888 18.7,31.688 L18.7,31.688 L18.7,20.192 L15.1,20.792 L15.1,21.296 C15.9,21.296 16.416,21.464 16.648,21.8 C16.88,22.136 16.996,22.904 16.996,24.104 L16.996,24.104 L16.996,31.688 C16.996,32.888 16.88,33.656 16.648,33.992 C16.416,34.328 15.9,34.496 15.1,34.496 L15.1,34.496 L15.1,35 L20.596,35 Z M26.668,35.408 C27.34,35.408 28.012,35.26 28.684,34.964 C29.356,34.668 29.908,34.288 30.34,33.824 L30.34,33.824 L29.908,33.296 C29.572,33.616 29.148,33.88 28.636,34.088 C28.124,34.296 27.668,34.4 27.268,34.4 C26.084,34.4 25.232,34.028 24.712,33.284 C24.192,32.54 24.004,31.576 24.148,30.392 L24.148,30.392 L29.932,30.392 C30.22,29.384 30.02,28.5 29.332,27.74 C28.644,26.98 27.756,26.6 26.668,26.6 C25.516,26.6 24.488,27.024 23.584,27.872 C22.68,28.72 22.228,29.76 22.228,30.992 C22.228,32.224 22.644,33.268 23.476,34.124 C24.308,34.98 25.372,35.408 26.668,35.408 Z M28.276,29.504 L24.292,29.504 C24.468,28.912 24.76,28.44 25.168,28.088 C25.576,27.736 26.036,27.56 26.548,27.56 C27.268,27.56 27.776,27.772 28.072,28.196 C28.368,28.62 28.436,29.056 28.276,29.504 L28.276,29.504 Z M36.604,35.408 C38.012,35.408 39.204,34.88 40.18,33.824 L40.18,33.824 L39.772,33.296 C38.988,34.032 38.132,34.4 37.204,34.4 C36.244,34.4 35.52,34.116 35.032,33.548 C34.544,32.98 34.3,32.2 34.3,31.208 C34.3,30.12 34.524,29.208 34.972,28.472 C35.42,27.736 35.964,27.368 36.604,27.368 C37.18,27.368 37.468,27.712 37.468,28.4 C37.468,28.672 37.56,28.9 37.744,29.084 C37.928,29.268 38.148,29.36 38.404,29.36 C38.772,29.36 39.04,29.252 39.208,29.036 C39.376,28.82 39.46,28.584 39.46,28.328 C39.46,27.848 39.22,27.44 38.74,27.104 C38.26,26.768 37.548,26.6 36.604,26.6 C35.564,26.6 34.596,27.036 33.7,27.908 C32.804,28.78 32.356,29.88 32.356,31.208 C32.356,32.44 32.736,33.448 33.496,34.232 C34.256,35.016 35.292,35.408 36.604,35.408 Z M44.788,35.336 C45.188,35.336 45.624,35.208 46.096,34.952 C46.568,34.696 46.972,34.368 47.308,33.968 L47.308,33.968 L46.9,33.56 C46.324,34.104 45.804,34.376 45.34,34.376 C44.62,34.376 44.26,33.8 44.26,32.648 L44.26,32.648 L44.26,27.848 L46.348,27.848 L46.348,27.008 L44.26,27.008 L44.26,24.368 L43.444,24.368 C43.348,25.2 43.14,25.856 42.82,26.336 C42.5,26.816 41.996,27.128 41.308,27.272 L41.308,27.272 L41.308,27.848 L42.556,27.848 L42.556,32.648 C42.556,33.544 42.756,34.216 43.156,34.664 C43.556,35.112 44.1,35.336 44.788,35.336 Z M54.124,35 L54.124,34.496 C53.324,34.496 52.808,34.328 52.576,33.992 C52.344,33.656 52.228,32.888 52.228,31.688 L52.228,31.688 L52.228,30.368 C52.228,29.52 52.444,28.84 52.876,28.328 C53.308,27.816 53.708,27.56 54.076,27.56 C54.588,27.56 54.844,27.824 54.844,28.352 C54.844,28.576 54.928,28.776 55.096,28.952 C55.264,29.128 55.46,29.216 55.684,29.216 C56.324,29.216 56.644,28.84 56.644,28.088 C56.644,27.736 56.48,27.4 56.152,27.08 C55.824,26.76 55.356,26.6 54.748,26.6 C54.268,26.6 53.788,26.768 53.308,27.104 C52.828,27.44 52.468,27.848 52.228,28.328 C52.1,27.48 51.964,26.904 51.82,26.6 L51.82,26.6 L48.628,27.2 L48.628,27.704 C49.428,27.704 49.944,27.872 50.176,28.208 C50.408,28.544 50.524,29.304 50.524,30.488 L50.524,30.488 L50.524,31.688 C50.524,32.888 50.408,33.656 50.176,33.992 C49.944,34.328 49.428,34.496 48.628,34.496 L48.628,34.496 L48.628,35 L54.124,35 Z M60.796,24.248 C61.084,24.248 61.332,24.144 61.54,23.936 C61.748,23.728 61.852,23.472 61.852,23.168 C61.852,22.88 61.748,22.632 61.54,22.424 C61.332,22.216 61.084,22.112 60.796,22.112 C60.508,22.112 60.26,22.216 60.052,22.424 C59.844,22.632 59.74,22.88 59.74,23.168 C59.74,23.472 59.844,23.728 60.052,23.936 C60.26,24.144 60.508,24.248 60.796,24.248 Z M63.556,35 L63.556,34.496 C62.756,34.496 62.24,34.328 62.008,33.992 C61.776,33.656 61.66,32.888 61.66,31.688 L61.66,31.688 L61.66,26.6 L58.06,27.2 L58.06,27.704 C58.86,27.704 59.376,27.872 59.608,28.208 C59.84,28.544 59.956,29.304 59.956,30.488 L59.956,30.488 L59.956,31.688 C59.956,32.888 59.84,33.656 59.608,33.992 C59.376,34.328 58.86,34.496 58.06,34.496 L58.06,34.496 L58.06,35 L63.556,35 Z M69.412,35.408 C70.82,35.408 72.012,34.88 72.988,33.824 L72.988,33.824 L72.58,33.296 C71.796,34.032 70.94,34.4 70.012,34.4 C69.052,34.4 68.328,34.116 67.84,33.548 C67.352,32.98 67.108,32.2 67.108,31.208 C67.108,30.12 67.332,29.208 67.78,28.472 C68.228,27.736 68.772,27.368 69.412,27.368 C69.988,27.368 70.276,27.712 70.276,28.4 C70.276,28.672 70.368,28.9 70.552,29.084 C70.736,29.268 70.956,29.36 71.212,29.36 C71.58,29.36 71.848,29.252 72.016,29.036 C72.184,28.82 72.268,28.584 72.268,28.328 C72.268,27.848 72.028,27.44 71.548,27.104 C71.068,26.768 70.356,26.6 69.412,26.6 C68.372,26.6 67.404,27.036 66.508,27.908 C65.612,28.78 65.164,29.88 65.164,31.208 C65.164,32.44 65.544,33.448 66.304,34.232 C67.064,35.016 68.1,35.408 69.412,35.408 Z M88.756,35.408 L93.748,23.864 L93.748,31.688 C93.748,32.888 93.616,33.656 93.352,33.992 C93.088,34.328 92.46,34.496 91.468,34.496 L91.468,34.496 L91.468,35 L97.948,35 L97.948,34.496 C96.94,34.496 96.304,34.332 96.04,34.004 C95.776,33.676 95.644,32.904 95.644,31.688 L95.644,31.688 L95.644,23.888 C95.644,22.688 95.776,21.924 96.04,21.596 C96.304,21.268 96.94,21.104 97.948,21.104 L97.948,21.104 L97.948,20.6 L94.18,20.6 L89.116,32.288 L84.028,20.6 L79.948,20.6 L79.948,21.104 C80.94,21.104 81.568,21.268 81.832,21.596 C82.096,21.924 82.228,22.688 82.228,23.888 L82.228,23.888 L82.228,31.688 C82.228,32.888 82.096,33.656 81.832,33.992 C81.568,34.328 80.94,34.496 79.948,34.496 L79.948,34.496 L79.948,35 L85.42,35 L85.42,34.496 C84.428,34.496 83.796,34.328 83.524,33.992 C83.252,33.656 83.116,32.888 83.116,31.688 L83.116,31.688 L83.116,23.144 L88.444,35.408 L88.756,35.408 Z M104.836,35.408 C106.164,35.408 107.304,34.976 108.256,34.112 C109.208,33.248 109.684,32.208 109.684,30.992 C109.684,29.776 109.204,28.744 108.244,27.896 C107.3,27.032 106.164,26.6 104.836,26.6 C103.508,26.6 102.368,27.028 101.416,27.884 C100.464,28.74 99.988,29.776 99.988,30.992 C99.988,32.208 100.464,33.248 101.416,34.112 C102.368,34.976 103.508,35.408 104.836,35.408 Z M104.836,34.472 C103.892,34.472 103.172,34.144 102.676,33.488 C102.18,32.832 101.932,32 101.932,30.992 C101.932,29.984 102.18,29.152 102.676,28.496 C103.172,27.84 103.892,27.512 104.836,27.512 C105.78,27.512 106.5,27.836 106.996,28.484 C107.492,29.132 107.74,29.968 107.74,30.992 C107.74,32.016 107.492,32.856 106.996,33.512 C106.5,34.152 105.78,34.472 104.836,34.472 Z M114.988,35.336 C115.388,35.336 115.824,35.208 116.296,34.952 C116.768,34.696 117.172,34.368 117.508,33.968 L117.508,33.968 L117.1,33.56 C116.524,34.104 116.004,34.376 115.54,34.376 C114.82,34.376 114.46,33.8 114.46,32.648 L114.46,32.648 L114.46,27.848 L116.548,27.848 L116.548,27.008 L114.46,27.008 L114.46,24.368 L113.644,24.368 C113.548,25.2 113.34,25.856 113.02,26.336 C112.7,26.816 112.196,27.128 111.508,27.272 L111.508,27.272 L111.508,27.848 L112.756,27.848 L112.756,32.648 C112.756,33.544 112.956,34.216 113.356,34.664 C113.756,35.112 114.3,35.336 114.988,35.336 Z M123.916,35.408 C125.244,35.408 126.384,34.976 127.336,34.112 C128.288,33.248 128.764,32.208 128.764,30.992 C128.764,29.776 128.284,28.744 127.324,27.896 C126.38,27.032 125.244,26.6 123.916,26.6 C122.588,26.6 121.448,27.028 120.496,27.884 C119.544,28.74 119.068,29.776 119.068,30.992 C119.068,32.208 119.544,33.248 120.496,34.112 C121.448,34.976 122.588,35.408 123.916,35.408 Z M123.916,34.472 C122.972,34.472 122.252,34.144 121.756,33.488 C121.26,32.832 121.012,32 121.012,30.992 C121.012,29.984 121.26,29.152 121.756,28.496 C122.252,27.84 122.972,27.512 123.916,27.512 C124.86,27.512 125.58,27.836 126.076,28.484 C126.572,29.132 126.82,29.968 126.82,30.992 C126.82,32.016 126.572,32.856 126.076,33.512 C125.58,34.152 124.86,34.472 123.916,34.472 Z M136.324,35 L136.324,34.496 C135.524,34.496 135.008,34.328 134.776,33.992 C134.544,33.656 134.428,32.888 134.428,31.688 L134.428,31.688 L134.428,30.368 C134.428,29.52 134.644,28.84 135.076,28.328 C135.508,27.816 135.908,27.56 136.276,27.56 C136.788,27.56 137.044,27.824 137.044,28.352 C137.044,28.576 137.128,28.776 137.296,28.952 C137.464,29.128 137.66,29.216 137.884,29.216 C138.524,29.216 138.844,28.84 138.844,28.088 C138.844,27.736 138.68,27.4 138.352,27.08 C138.024,26.76 137.556,26.6 136.948,26.6 C136.468,26.6 135.988,26.768 135.508,27.104 C135.028,27.44 134.668,27.848 134.428,28.328 C134.3,27.48 134.164,26.904 134.02,26.6 L134.02,26.6 L130.828,27.2 L130.828,27.704 C131.628,27.704 132.144,27.872 132.376,28.208 C132.608,28.544 132.724,29.304 132.724,30.488 L132.724,30.488 L132.724,31.688 C132.724,32.888 132.608,33.656 132.376,33.992 C132.144,34.328 131.628,34.496 130.828,34.496 L130.828,34.496 L130.828,35 L136.324,35 Z" id="ElectricMotor" fill="#524740" fill-rule="nonzero"></path>
            <line x1="341.882812" y1="2.22460938" x2="341.882812" y2="57.2880859" id="Path-7" stroke="#555555"></line>
            <polyline id="Path-8" stroke="#524740" points="268.226562 63.4257812 251.238281 63.4257812 251.238281 85.3242188"></polyline>
            <line x1="310.050781" y1="1.5" x2="310.050781" y2="57.5" id="Path-9" stroke="#555555"></line>
            <line x1="205.385742" y1="130.612305" x2="250.389648" y2="130.612305" id="Path-10" stroke="#524740"></line>
        </g>
    </g>
</svg>