<?xml version="1.0" encoding="UTF-8"?>
<svg width="900px" height="410px" viewBox="0 0 900 410" version="1.1" xmlns="http://www.w3.org/2000/svg" xmlns:xlink="http://www.w3.org/1999/xlink">
    <!-- Generator: Sketch 60.1 (88133) - https://sketch.com -->
    <title>Electricity_in_Equilibrium</title>
    <desc>Created with Sketch.</desc>
    <g id="Electricity_in_Equilibrium" stroke="none" stroke-width="1" fill="none" fill-rule="evenodd">
        <g id="Illustration_Frame">
            <rect id="Rectangle" stroke="#3D3530" stroke-width="2" fill="#EEEEEE" x="1" y="1" width="898" height="408"></rect>
            <rect id="Rectangle-Copy" stroke="#3D3530" stroke-width="2" fill="#F8FAE4" x="1" y="366" width="898" height="43"></rect>
            <path d="M609.322666,395 L609.322666,393.416 L600.322666,393.416 L600.322666,387.584 L605.386666,387.584 L605.386666,386 L600.322666,386 L600.322666,380.456 L609.322666,380.456 L609.322666,378.872 L598.738666,378.872 L598.738666,395 L609.322666,395 Z M614.405332,395 L614.405332,377.144 L612.821332,377.144 L612.821332,395 L614.405332,395 Z M623.831999,395.072 C625.303999,395.088 626.571999,394.672 627.635999,393.824 C628.699999,392.976 629.415999,392.048 629.783999,391.04 L629.783999,391.04 L628.439999,390.56 C628.135999,391.376 627.559999,392.088 626.711999,392.696 C625.863999,393.304 624.903999,393.608 623.831999,393.608 C622.839999,393.624 621.935999,393.324 621.119999,392.708 C620.303999,392.092 619.759999,391.304 619.487999,390.344 L619.487999,390.344 L629.975999,388.448 C629.975999,388.32 629.967999,388.216 629.951999,388.136 C629.775999,386.6 629.103999,385.312 627.935999,384.272 C626.767999,383.232 625.399999,382.704 623.831999,382.688 C622.103999,382.704 620.639999,383.312 619.439999,384.512 C618.239999,385.712 617.639999,387.176 617.639999,388.904 C617.639999,389.528 617.719999,390.104 617.879999,390.632 C618.279999,391.928 619.035999,392.992 620.147999,393.824 C621.259999,394.656 622.487999,395.072 623.831999,395.072 Z M619.247999,389.048 C619.247999,388.968 619.243999,388.868 619.235999,388.748 C619.227999,388.628 619.223999,388.544 619.223999,388.496 C619.287999,387.312 619.747999,386.296 620.603999,385.448 C621.459999,384.6 622.487999,384.168 623.687999,384.152 C624.711999,384.136 625.639999,384.436 626.471999,385.052 C627.303999,385.668 627.871999,386.464 628.175999,387.44 L628.175999,387.44 L619.247999,389.048 Z M638.826666,395.192 C639.914666,395.192 640.926666,394.924 641.862666,394.388 C642.798666,393.852 643.538666,393.136 644.082666,392.24 L644.082666,392.24 L642.642666,391.544 C642.210666,392.2 641.658666,392.72 640.986666,393.104 C640.314666,393.488 639.594666,393.68 638.826666,393.68 C637.530666,393.68 636.438666,393.228 635.550666,392.324 C634.662666,391.42 634.218666,390.312 634.218666,389 C634.218666,387.688 634.662666,386.58 635.550666,385.676 C636.438666,384.772 637.530666,384.32 638.826666,384.32 C639.594666,384.32 640.314666,384.512 640.986666,384.896 C641.658666,385.28 642.210666,385.8 642.642666,386.456 L642.642666,386.456 L644.082666,385.76 C643.538666,384.864 642.798666,384.148 641.862666,383.612 C640.926666,383.076 639.914666,382.808 638.826666,382.808 C637.114666,382.808 635.654666,383.412 634.446666,384.62 C633.238666,385.828 632.634666,387.288 632.634666,389 C632.634666,390.712 633.238666,392.172 634.446666,393.38 C635.654666,394.588 637.114666,395.192 638.826666,395.192 Z M651.877333,395.192 C652.469333,395.192 653.045333,395.036 653.605333,394.724 C654.165333,394.412 654.525333,394.168 654.685333,393.992 C654.845333,393.816 654.973333,393.664 655.069333,393.536 L655.069333,393.536 L654.277333,392.312 C654.277333,392.376 654.193333,392.516 654.025333,392.732 C653.857333,392.948 653.597333,393.168 653.245333,393.392 C652.893333,393.616 652.533333,393.728 652.165333,393.728 C651.573333,393.728 651.049333,393.512 650.593333,393.08 C650.137333,392.648 649.909333,392.064 649.909333,391.328 L649.909333,391.328 L649.909333,384.44 L653.533333,384.44 L653.533333,382.976 L649.909333,382.976 L649.909333,378.992 L648.325333,379.184 L648.325333,382.976 L646.405333,382.976 L646.405333,384.44 L648.325333,384.44 L648.325333,391.688 C648.325333,392.824 648.665333,393.692 649.345333,394.292 C650.025333,394.892 650.869333,395.192 651.877333,395.192 Z M659.767999,395 L659.767999,387.968 C659.767999,386.928 660.111999,386.052 660.799999,385.34 C661.487999,384.628 662.335999,384.272 663.343999,384.272 C664.031999,384.272 664.711999,384.52 665.383999,385.016 L665.383999,385.016 L665.935999,383.432 C665.231999,383.016 664.455999,382.808 663.607999,382.808 C662.023999,382.808 660.743999,383.464 659.767999,384.776 L659.767999,384.776 L659.767999,383 L658.183999,383 L658.183999,395 L659.767999,395 Z M669.698666,379.688 C669.970666,379.688 670.194666,379.592 670.370666,379.4 C670.562666,379.208 670.658666,378.984 670.658666,378.728 C670.658666,378.472 670.566666,378.248 670.382666,378.056 C670.198666,377.864 669.970666,377.768 669.698666,377.768 C669.426666,377.768 669.198666,377.864 669.014666,378.056 C668.830666,378.248 668.738666,378.472 668.738666,378.728 C668.738666,378.984 668.830666,379.208 669.014666,379.4 C669.198666,379.592 669.426666,379.688 669.698666,379.688 Z M670.490666,395 L670.490666,383 L668.906666,383 L668.906666,395 L670.490666,395 Z M680.157333,395.192 C681.245333,395.192 682.257333,394.924 683.193333,394.388 C684.129333,393.852 684.869333,393.136 685.413333,392.24 L685.413333,392.24 L683.973333,391.544 C683.541333,392.2 682.989333,392.72 682.317333,393.104 C681.645333,393.488 680.925333,393.68 680.157333,393.68 C678.861333,393.68 677.769333,393.228 676.881333,392.324 C675.993333,391.42 675.549333,390.312 675.549333,389 C675.549333,387.688 675.993333,386.58 676.881333,385.676 C677.769333,384.772 678.861333,384.32 680.157333,384.32 C680.925333,384.32 681.645333,384.512 682.317333,384.896 C682.989333,385.28 683.541333,385.8 683.973333,386.456 L683.973333,386.456 L685.413333,385.76 C684.869333,384.864 684.129333,384.148 683.193333,383.612 C682.257333,383.076 681.245333,382.808 680.157333,382.808 C678.445333,382.808 676.985333,383.412 675.777333,384.62 C674.569333,385.828 673.965333,387.288 673.965333,389 C673.965333,390.712 674.569333,392.172 675.777333,393.38 C676.985333,394.588 678.445333,395.192 680.157333,395.192 Z M689.919999,379.688 C690.191999,379.688 690.415999,379.592 690.591999,379.4 C690.783999,379.208 690.879999,378.984 690.879999,378.728 C690.879999,378.472 690.787999,378.248 690.603999,378.056 C690.419999,377.864 690.191999,377.768 689.919999,377.768 C689.647999,377.768 689.419999,377.864 689.235999,378.056 C689.051999,378.248 688.959999,378.472 688.959999,378.728 C688.959999,378.984 689.051999,379.208 689.235999,379.4 C689.419999,379.592 689.647999,379.688 689.919999,379.688 Z M690.711999,395 L690.711999,383 L689.127999,383 L689.127999,395 L690.711999,395 Z M698.794666,395.192 C699.386666,395.192 699.962666,395.036 700.522666,394.724 C701.082666,394.412 701.442666,394.168 701.602666,393.992 C701.762666,393.816 701.890666,393.664 701.986666,393.536 L701.986666,393.536 L701.194666,392.312 C701.194666,392.376 701.110666,392.516 700.942666,392.732 C700.774666,392.948 700.514666,393.168 700.162666,393.392 C699.810666,393.616 699.450666,393.728 699.082666,393.728 C698.490666,393.728 697.966666,393.512 697.510666,393.08 C697.054666,392.648 696.826666,392.064 696.826666,391.328 L696.826666,391.328 L696.826666,384.44 L700.450666,384.44 L700.450666,382.976 L696.826666,382.976 L696.826666,378.992 L695.242666,379.184 L695.242666,382.976 L693.322666,382.976 L693.322666,384.44 L695.242666,384.44 L695.242666,391.688 C695.242666,392.824 695.582666,393.692 696.262666,394.292 C696.942666,394.892 697.786666,395.192 698.794666,395.192 Z M706.973333,400.112 L713.525333,383 L711.941333,383 L708.653333,391.568 L705.053333,383 L703.469333,383 L707.909333,393.536 L705.389333,400.112 L706.973333,400.112 Z M724.842666,379.688 C725.114666,379.688 725.338666,379.592 725.514666,379.4 C725.706666,379.208 725.802666,378.984 725.802666,378.728 C725.802666,378.472 725.710666,378.248 725.526666,378.056 C725.342666,377.864 725.114666,377.768 724.842666,377.768 C724.570666,377.768 724.342666,377.864 724.158666,378.056 C723.974666,378.248 723.882666,378.472 723.882666,378.728 C723.882666,378.984 723.974666,379.208 724.158666,379.4 C724.342666,379.592 724.570666,379.688 724.842666,379.688 Z M725.634666,395 L725.634666,383 L724.050666,383 L724.050666,395 L725.634666,395 Z M731.557333,395 L731.557333,387.968 C731.557333,386.944 731.905333,386.072 732.601333,385.352 C733.297333,384.632 734.141333,384.272 735.133333,384.272 C736.125333,384.272 736.969333,384.632 737.665333,385.352 C738.361333,386.072 738.709333,386.944 738.709333,387.968 L738.709333,387.968 L738.709333,395 L740.317333,395 L740.317333,387.92 C740.317333,386.48 739.845333,385.268 738.901333,384.284 C737.957333,383.3 736.789333,382.808 735.397333,382.808 C733.813333,382.808 732.533333,383.464 731.557333,384.776 L731.557333,384.776 L731.557333,383 L729.973333,383 L729.973333,395 L731.557333,395 Z M762.050666,395 L762.050666,393.416 L753.050666,393.416 L753.050666,387.584 L758.114666,387.584 L758.114666,386 L753.050666,386 L753.050666,380.456 L762.050666,380.456 L762.050666,378.872 L751.466666,378.872 L751.466666,395 L762.050666,395 Z M775.965333,400.832 L775.965333,382.976 L774.381333,382.976 L774.381333,384.92 C773.149333,383.496 771.589333,382.784 769.701333,382.784 C767.989333,382.784 766.529333,383.388 765.321333,384.596 C764.113333,385.804 763.509333,387.264 763.509333,388.976 C763.509333,390.688 764.113333,392.148 765.321333,393.356 C766.529333,394.564 767.989333,395.168 769.701333,395.168 C771.589333,395.168 773.149333,394.456 774.381333,393.032 L774.381333,393.032 L774.381333,400.832 L775.965333,400.832 Z M769.725333,393.656 C768.429333,393.656 767.333333,393.208 766.437333,392.312 C765.541333,391.4 765.093333,390.288 765.093333,388.976 C765.093333,387.664 765.541333,386.556 766.437333,385.652 C767.333333,384.748 768.429333,384.296 769.725333,384.296 C771.021333,384.296 772.113333,384.748 773.001333,385.652 C773.889333,386.556 774.333333,387.664 774.333333,388.976 C774.333333,390.288 773.889333,391.396 773.001333,392.3 C772.113333,393.204 771.021333,393.656 769.725333,393.656 Z M784.864,395.192 C786.448,395.192 787.728,394.536 788.704,393.224 L788.704,393.224 L788.704,395 L790.288,395 L790.288,383 L788.704,383 L788.704,390.032 C788.704,391.056 788.36,391.924 787.672,392.636 C786.984,393.348 786.136,393.704 785.128,393.704 C784.136,393.704 783.296,393.348 782.608,392.636 C781.92,391.924 781.576,391.056 781.576,390.032 L781.576,390.032 L781.576,383 L779.944,383 L779.944,390.08 C779.944,391.52 780.416,392.732 781.36,393.716 C782.304,394.7 783.472,395.192 784.864,395.192 Z M795.418666,379.688 C795.690666,379.688 795.914666,379.592 796.090666,379.4 C796.282666,379.208 796.378666,378.984 796.378666,378.728 C796.378666,378.472 796.286666,378.248 796.102666,378.056 C795.918666,377.864 795.690666,377.768 795.418666,377.768 C795.146666,377.768 794.918666,377.864 794.734666,378.056 C794.550666,378.248 794.458666,378.472 794.458666,378.728 C794.458666,378.984 794.550666,379.208 794.734666,379.4 C794.918666,379.592 795.146666,379.688 795.418666,379.688 Z M796.210666,395 L796.210666,383 L794.626666,383 L794.626666,395 L796.210666,395 Z M802.133333,395 L802.133333,377.144 L800.549333,377.144 L800.549333,395 L802.133333,395 Z M807.264,379.688 C807.536,379.688 807.76,379.592 807.936,379.4 C808.128,379.208 808.224,378.984 808.224,378.728 C808.224,378.472 808.132,378.248 807.948,378.056 C807.764,377.864 807.536,377.768 807.264,377.768 C806.992,377.768 806.764,377.864 806.58,378.056 C806.396,378.248 806.304,378.472 806.304,378.728 C806.304,378.984 806.396,379.208 806.58,379.4 C806.764,379.592 806.992,379.688 807.264,379.688 Z M808.056,395 L808.056,383 L806.472,383 L806.472,395 L808.056,395 Z M818.682666,395.192 C820.394666,395.192 821.854667,394.588 823.062666,393.38 C824.270666,392.172 824.874666,390.712 824.874666,389 C824.874666,387.288 824.270666,385.828 823.062666,384.62 C821.854667,383.412 820.394666,382.808 818.682666,382.808 C816.778666,382.808 815.210667,383.528 813.978666,384.968 L813.978666,384.968 L813.978666,377.144 L812.394666,377.144 L812.394666,395 L813.978666,395 L813.978666,393.008 C815.194666,394.464 816.762667,395.192 818.682666,395.192 Z M818.634666,393.68 C817.354667,393.68 816.266667,393.232 815.370666,392.336 C814.474666,391.424 814.026666,390.312 814.026666,389 C814.026666,387.688 814.474666,386.58 815.370666,385.676 C816.266667,384.772 817.354667,384.32 818.634666,384.32 C819.914666,384.32 821.002666,384.772 821.898666,385.676 C822.794666,386.58 823.242666,387.688 823.242666,389 C823.242666,390.312 822.794666,391.42 821.898666,392.324 C821.002666,393.228 819.914666,393.68 818.634666,393.68 Z M829.501333,395 L829.501333,387.968 C829.501333,386.928 829.845333,386.052 830.533333,385.34 C831.221333,384.628 832.069333,384.272 833.077333,384.272 C833.765333,384.272 834.445333,384.52 835.117333,385.016 L835.117333,385.016 L835.669333,383.432 C834.965333,383.016 834.189333,382.808 833.341333,382.808 C831.757333,382.808 830.477333,383.464 829.501333,384.776 L829.501333,384.776 L829.501333,383 L827.917333,383 L827.917333,395 L829.501333,395 Z M839.432,379.688 C839.704,379.688 839.928,379.592 840.104,379.4 C840.296,379.208 840.392,378.984 840.392,378.728 C840.392,378.472 840.3,378.248 840.116,378.056 C839.932,377.864 839.704,377.768 839.432,377.768 C839.16,377.768 838.932,377.864 838.748,378.056 C838.564,378.248 838.472,378.472 838.472,378.728 C838.472,378.984 838.564,379.208 838.748,379.4 C838.932,379.592 839.16,379.688 839.432,379.688 Z M840.224,395 L840.224,383 L838.64,383 L838.64,395 L840.224,395 Z M849.290667,395.192 C850.874667,395.192 852.154667,394.536 853.130667,393.224 L853.130667,393.224 L853.130667,395 L854.714667,395 L854.714667,383 L853.130667,383 L853.130667,390.032 C853.130667,391.056 852.786667,391.924 852.098667,392.636 C851.410667,393.348 850.562667,393.704 849.554667,393.704 C848.562667,393.704 847.722667,393.348 847.034667,392.636 C846.346667,391.924 846.002667,391.056 846.002667,390.032 L846.002667,390.032 L846.002667,383 L844.370667,383 L844.370667,390.08 C844.370667,391.52 844.842667,392.732 845.786667,393.716 C846.730667,394.7 847.898667,395.192 849.290667,395.192 Z M860.253333,395 L860.253333,387.968 C860.253333,386.944 860.601333,386.072 861.297333,385.352 C861.993333,384.632 862.837333,384.272 863.829333,384.272 C864.821333,384.272 865.665333,384.632 866.361333,385.352 C867.057333,386.072 867.405333,386.944 867.405333,387.968 L867.405333,387.968 L867.405333,395 L869.013333,395 L869.013333,387.968 C869.013333,386.928 869.357333,386.052 870.045333,385.34 C870.733333,384.628 871.581333,384.272 872.589333,384.272 C873.597333,384.272 874.441333,384.628 875.121333,385.34 C875.801333,386.052 876.141333,386.928 876.141333,387.968 L876.141333,387.968 L876.141333,395 L877.773333,395 L877.773333,387.92 C877.773333,386.48 877.301333,385.268 876.357333,384.284 C875.413333,383.3 874.245333,382.808 872.853333,382.808 C871.861333,382.808 870.973333,383.04 870.189333,383.504 C869.405333,383.968 868.805333,384.592 868.389333,385.376 C867.957333,384.592 867.361333,383.968 866.601333,383.504 C865.841333,383.04 865.005333,382.808 864.093333,382.808 C862.509333,382.808 861.229333,383.464 860.253333,384.776 L860.253333,384.776 L860.253333,383 L858.669333,383 L858.669333,395 L860.253333,395 Z" id="ElectricityinEquilibrium" fill="#23ABE3" fill-rule="nonzero"></path>
        </g>
        <g id="Water_in_Equilibrium" transform="translate(267.000000, 16.000000)">
            <g id="Water-Tower" transform="translate(87.000000, 13.000000)" stroke="#555555">
                <line x1="40.5" y1="123.5" x2="59.5" y2="285.5" id="Line-Copy-2" stroke-width="6" transform="translate(50.000000, 204.500000) scale(-1, 1) translate(-50.000000, -204.500000) "></line>
                <line x1="106.5" y1="123.5" x2="125.5" y2="285.5" id="Line-Copy-3" stroke-width="6"></line>
                <path d="M267.833015,54.805145 L253.833015,54.805145 L253.833,274.999145 L89,274.999145 L89,159 L75,159 L75,288.999995 L253.832742,288.99914 L253.832757,289.05785 L267.833015,289.05785 L267.833015,54.805145 Z" id="Combined-Shape" stroke-width="2" fill="#23ABE3"></path>
                <line x1="145.5" y1="153.5" x2="164.5" y2="315.5" id="Line" stroke-width="6"></line>
                <line x1="0.5" y1="153.5" x2="19.5" y2="315.5" id="Line-Copy" stroke-width="6" transform="translate(10.000000, 234.500000) scale(-1, 1) translate(-10.000000, -234.500000) "></line>
                <path d="M2,30.8945312 L2,147.894531 C21.3333333,158.561198 47,163.894531 79,163.894531 C111,163.894531 139.333333,158.561198 164,147.894531 L164,30.8945312 C137,21.6315104 110,17 83,17 C56,17 29,21.6315104 2,30.8945312 Z" id="Path-3" stroke-width="2" fill="#D8D8D8"></path>
                <path d="M2,57 L2,147.109406 C21.3333333,158.299489 47,163.894531 79,163.894531 C111,163.894531 139.333333,158.299489 164,147.109406 L164,57 C137,52.3333333 110,50 83,50 C56,50 29,52.3333333 2,57 Z" id="Path-3-Copy" fill="#23ABE3"></path>
                <path d="M2,31 L83.4909091,0 L164,31 C148.63608,23.0703125 121.799716,19.1054687 83.4909091,19.1054687 C45.1821023,19.1054687 18.0184659,23.0703125 2,31 Z" id="Path-2" stroke-width="2" fill="#D8D8D8"></path>
            </g>
            <g id="Valve" transform="translate(336.000000, 61.000000)" stroke="#555555">
                <rect id="Rectangle-2" fill="#D8D8D8" x="0.5" y="0.5" width="23" height="24"></rect>
                <rect id="Rectangle-3" fill="#B09679" x="7.5" y="11.5" width="7" height="28"></rect>
            </g>
            <g id="Labels">
                <line x1="66.5" y1="95.5" x2="114.5" y2="111.5" id="Line-4" stroke="#B09679" stroke-width="2" stroke-linecap="square"></line>
                <line x1="267" y1="61" x2="288" y2="27" id="Line-4-Copy-2" stroke="#B09679" stroke-width="2" stroke-linecap="square"></line>
                <path d="M7.972,99.408 L11.356,88.776 L14.716,99.408 L15.028,99.408 L18.916,87.192 C19.188,86.344 19.492,85.784 19.828,85.512 C20.164,85.24 20.812,85.104 21.772,85.104 L21.772,85.104 L21.772,84.6 L16.372,84.6 L16.372,85.104 C17.22,85.104 17.764,85.24 18.004,85.512 C18.244,85.784 18.26,86.256 18.052,86.928 L18.052,86.928 L15.436,95.184 L12.076,84.6 L11.74,84.6 L8.38,95.208 L5.74,86.928 C5.532,86.24 5.552,85.764 5.8,85.5 C6.048,85.236 6.66,85.104 7.636,85.104 L7.636,85.104 L7.636,84.6 L0.916,84.6 L0.916,85.104 C1.892,85.104 2.54,85.224 2.86,85.464 C3.18,85.704 3.484,86.28 3.772,87.192 L3.772,87.192 L7.66,99.408 L7.972,99.408 Z M23.932,99.312 C24.86,99.312 25.86,98.832 26.932,97.872 C27.06,98.8 27.604,99.264 28.564,99.264 C29.156,99.264 29.684,99.016 30.148,98.52 L30.148,98.52 L29.812,98.064 C29.572,98.304 29.348,98.424 29.14,98.424 C28.772,98.424 28.588,98.112 28.588,97.488 L28.588,97.488 L28.588,93.864 C28.588,92.712 28.332,91.88 27.82,91.368 C27.308,90.856 26.468,90.6 25.3,90.6 C24.5,90.6 23.792,90.78 23.176,91.14 C22.56,91.5 22.252,91.96 22.252,92.52 C22.252,92.76 22.332,92.96 22.492,93.12 C22.652,93.28 22.852,93.36 23.092,93.36 C23.316,93.36 23.508,93.28 23.668,93.12 C23.828,92.96 23.908,92.76 23.908,92.52 C23.908,92.168 24.056,91.888 24.352,91.68 C24.648,91.472 24.956,91.368 25.276,91.368 C25.932,91.368 26.364,91.552 26.572,91.92 C26.78,92.288 26.884,92.944 26.884,93.888 C23.476,94.48 21.772,95.616 21.772,97.296 C21.772,97.92 21.98,98.412 22.396,98.772 C22.812,99.132 23.324,99.312 23.932,99.312 Z M24.7,98.232 C24.38,98.232 24.112,98.12 23.896,97.896 C23.68,97.672 23.572,97.376 23.572,97.008 C23.572,95.936 24.676,95.144 26.884,94.632 L26.884,94.632 L26.884,97.08 C26.02,97.848 25.292,98.232 24.7,98.232 Z M34.684,99.336 C35.084,99.336 35.52,99.208 35.992,98.952 C36.464,98.696 36.868,98.368 37.204,97.968 L37.204,97.968 L36.796,97.56 C36.22,98.104 35.7,98.376 35.236,98.376 C34.516,98.376 34.156,97.8 34.156,96.648 L34.156,96.648 L34.156,91.848 L36.244,91.848 L36.244,91.008 L34.156,91.008 L34.156,88.368 L33.34,88.368 C33.244,89.2 33.036,89.856 32.716,90.336 C32.396,90.816 31.892,91.128 31.204,91.272 L31.204,91.272 L31.204,91.848 L32.452,91.848 L32.452,96.648 C32.452,97.544 32.652,98.216 33.052,98.664 C33.452,99.112 33.996,99.336 34.684,99.336 Z M43.204,99.408 C43.876,99.408 44.548,99.26 45.22,98.964 C45.892,98.668 46.444,98.288 46.876,97.824 L46.876,97.824 L46.444,97.296 C46.108,97.616 45.684,97.88 45.172,98.088 C44.66,98.296 44.204,98.4 43.804,98.4 C42.62,98.4 41.768,98.028 41.248,97.284 C40.728,96.54 40.54,95.576 40.684,94.392 L40.684,94.392 L46.468,94.392 C46.756,93.384 46.556,92.5 45.868,91.74 C45.18,90.98 44.292,90.6 43.204,90.6 C42.052,90.6 41.024,91.024 40.12,91.872 C39.216,92.72 38.764,93.76 38.764,94.992 C38.764,96.224 39.18,97.268 40.012,98.124 C40.844,98.98 41.908,99.408 43.204,99.408 Z M44.812,93.504 L40.828,93.504 C41.004,92.912 41.296,92.44 41.704,92.088 C42.112,91.736 42.572,91.56 43.084,91.56 C43.804,91.56 44.312,91.772 44.608,92.196 C44.904,92.62 44.972,93.056 44.812,93.504 L44.812,93.504 Z M54.148,99 L54.148,98.496 C53.348,98.496 52.832,98.328 52.6,97.992 C52.368,97.656 52.252,96.888 52.252,95.688 L52.252,95.688 L52.252,94.368 C52.252,93.52 52.468,92.84 52.9,92.328 C53.332,91.816 53.732,91.56 54.1,91.56 C54.612,91.56 54.868,91.824 54.868,92.352 C54.868,92.576 54.952,92.776 55.12,92.952 C55.288,93.128 55.484,93.216 55.708,93.216 C56.348,93.216 56.668,92.84 56.668,92.088 C56.668,91.736 56.504,91.4 56.176,91.08 C55.848,90.76 55.38,90.6 54.772,90.6 C54.292,90.6 53.812,90.768 53.332,91.104 C52.852,91.44 52.492,91.848 52.252,92.328 C52.124,91.48 51.988,90.904 51.844,90.6 L51.844,90.6 L48.652,91.2 L48.652,91.704 C49.452,91.704 49.968,91.872 50.2,92.208 C50.432,92.544 50.548,93.304 50.548,94.488 L50.548,94.488 L50.548,95.688 C50.548,96.888 50.432,97.656 50.2,97.992 C49.968,98.328 49.452,98.496 48.652,98.496 L48.652,98.496 L48.652,99 L54.148,99 Z" id="Water" fill="#524740" fill-rule="nonzero"></path>
                <path d="M269.156,17 L269.348,13.808 L268.844,13.808 L268.724,14.288 C268.612,14.768 268.488,15.12 268.352,15.344 C268.216,15.568 267.96,15.752 267.584,15.896 C267.208,16.04 266.66,16.112 265.94,16.112 L265.94,16.112 L263.876,16.112 C262.884,16.112 262.256,15.948 261.992,15.62 C261.728,15.292 261.596,14.528 261.596,13.328 L261.596,13.328 L261.596,9.824 L262.796,9.824 C263.996,9.824 264.76,9.956 265.088,10.22 C265.416,10.484 265.58,11.12 265.58,12.128 L265.58,12.128 L266.084,12.128 L266.084,6.632 L265.58,6.632 C265.58,7.64 265.416,8.276 265.088,8.54 C264.76,8.804 263.996,8.936 262.796,8.936 L262.796,8.936 L261.596,8.936 L261.596,3.488 L265.148,3.488 C266.172,3.488 266.844,3.612 267.164,3.86 C267.484,4.108 267.74,4.584 267.932,5.288 L267.932,5.288 L268.052,5.768 L268.556,5.768 L268.34,2.6 L257.396,2.6 L257.396,3.104 C258.388,3.104 259.016,3.268 259.28,3.596 C259.544,3.924 259.676,4.688 259.676,5.888 L259.676,5.888 L259.676,13.688 C259.676,14.888 259.544,15.656 259.28,15.992 C259.016,16.328 258.388,16.496 257.396,16.496 L257.396,16.496 L257.396,17 L269.156,17 Z M282.332,23 L282.332,22.496 C281.532,22.496 281.016,22.328 280.784,21.992 C280.552,21.656 280.436,20.896 280.436,19.712 L280.436,19.712 L280.436,8.6 L279.932,8.6 L278.876,10.208 C278.124,9.136 277.1,8.6 275.804,8.6 C274.668,8.6 273.688,9.028 272.864,9.884 C272.04,10.74 271.628,11.776 271.628,12.992 C271.628,14.208 272.04,15.248 272.864,16.112 C273.688,16.976 274.668,17.408 275.804,17.408 C276.972,17.408 277.948,16.928 278.732,15.968 L278.732,15.968 L278.732,19.712 C278.732,20.912 278.616,21.676 278.384,22.004 C278.152,22.332 277.636,22.496 276.836,22.496 L276.836,22.496 L276.836,23 L282.332,23 Z M276.308,16.448 C275.412,16.448 274.732,16.128 274.268,15.488 C273.804,14.848 273.572,14.016 273.572,12.992 C273.572,11.984 273.804,11.16 274.268,10.52 C274.732,9.88 275.412,9.56 276.308,9.56 C276.836,9.56 277.316,9.732 277.748,10.076 C278.18,10.42 278.508,10.88 278.732,11.456 L278.732,11.456 L278.732,14.528 C278.508,15.104 278.18,15.568 277.748,15.92 C277.316,16.272 276.836,16.448 276.308,16.448 Z M291.26,17.408 L294.476,16.808 L294.476,16.304 C293.66,16.304 293.136,16.136 292.904,15.8 C292.672,15.464 292.556,14.696 292.556,13.496 L292.556,13.496 L292.556,9.008 L288.956,9.008 L288.956,9.488 C289.772,9.488 290.296,9.656 290.528,9.992 C290.76,10.328 290.876,11.096 290.876,12.296 L290.876,12.296 L290.876,13.88 C290.876,14.552 290.58,15.116 289.988,15.572 C289.396,16.028 288.828,16.256 288.284,16.256 C287.068,16.256 286.46,15.4 286.46,13.688 L286.46,13.688 L286.46,9.008 L282.86,9.008 L282.86,9.488 C283.66,9.488 284.176,9.656 284.408,9.992 C284.64,10.328 284.756,11.096 284.756,12.296 L284.756,12.296 L284.756,13.808 C284.756,16.208 285.748,17.408 287.732,17.408 C288.836,17.408 289.884,16.896 290.876,15.872 C291.004,16.64 291.132,17.152 291.26,17.408 L291.26,17.408 Z M298.58,6.248 C298.868,6.248 299.116,6.144 299.324,5.936 C299.532,5.728 299.636,5.472 299.636,5.168 C299.636,4.88 299.532,4.632 299.324,4.424 C299.116,4.216 298.868,4.112 298.58,4.112 C298.292,4.112 298.044,4.216 297.836,4.424 C297.628,4.632 297.524,4.88 297.524,5.168 C297.524,5.472 297.628,5.728 297.836,5.936 C298.044,6.144 298.292,6.248 298.58,6.248 Z M301.34,17 L301.34,16.496 C300.54,16.496 300.024,16.328 299.792,15.992 C299.56,15.656 299.444,14.888 299.444,13.688 L299.444,13.688 L299.444,8.6 L295.844,9.2 L295.844,9.704 C296.644,9.704 297.16,9.872 297.392,10.208 C297.624,10.544 297.74,11.304 297.74,12.488 L297.74,12.488 L297.74,13.688 C297.74,14.888 297.624,15.656 297.392,15.992 C297.16,16.328 296.644,16.496 295.844,16.496 L295.844,16.496 L295.844,17 L301.34,17 Z M307.748,17 L307.748,16.496 C306.948,16.496 306.432,16.328 306.2,15.992 C305.968,15.656 305.852,14.888 305.852,13.688 L305.852,13.688 L305.852,2.192 L302.252,2.792 L302.252,3.296 C303.052,3.296 303.568,3.464 303.8,3.8 C304.032,4.136 304.148,4.904 304.148,6.104 L304.148,6.104 L304.148,13.688 C304.148,14.888 304.032,15.656 303.8,15.992 C303.568,16.328 303.052,16.496 302.252,16.496 L302.252,16.496 L302.252,17 L307.748,17 Z M311.876,6.248 C312.164,6.248 312.412,6.144 312.62,5.936 C312.828,5.728 312.932,5.472 312.932,5.168 C312.932,4.88 312.828,4.632 312.62,4.424 C312.412,4.216 312.164,4.112 311.876,4.112 C311.588,4.112 311.34,4.216 311.132,4.424 C310.924,4.632 310.82,4.88 310.82,5.168 C310.82,5.472 310.924,5.728 311.132,5.936 C311.34,6.144 311.588,6.248 311.876,6.248 Z M314.636,17 L314.636,16.496 C313.836,16.496 313.32,16.328 313.088,15.992 C312.856,15.656 312.74,14.888 312.74,13.688 L312.74,13.688 L312.74,8.6 L309.14,9.2 L309.14,9.704 C309.94,9.704 310.456,9.872 310.688,10.208 C310.92,10.544 311.036,11.304 311.036,12.488 L311.036,12.488 L311.036,13.688 C311.036,14.888 310.92,15.656 310.688,15.992 C310.456,16.328 309.94,16.496 309.14,16.496 L309.14,16.496 L309.14,17 L314.636,17 Z M317.564,17.408 L318.62,15.8 C319.372,16.872 320.396,17.408 321.692,17.408 C322.828,17.408 323.804,16.976 324.62,16.112 C325.436,15.248 325.844,14.208 325.844,12.992 C325.844,11.776 325.436,10.74 324.62,9.884 C323.804,9.028 322.828,8.6 321.692,8.6 C320.508,8.6 319.532,9.072 318.764,10.016 L318.764,10.016 L318.764,2.192 L315.164,2.792 L315.164,3.296 C315.964,3.296 316.48,3.464 316.712,3.8 C316.944,4.136 317.06,4.904 317.06,6.104 L317.06,6.104 L317.06,17.408 L317.564,17.408 Z M321.188,16.448 C320.644,16.448 320.16,16.276 319.736,15.932 C319.312,15.588 318.988,15.12 318.764,14.528 L318.764,14.528 L318.764,11.456 C318.988,10.88 319.312,10.42 319.736,10.076 C320.16,9.732 320.644,9.56 321.188,9.56 C322.084,9.56 322.764,9.88 323.228,10.52 C323.692,11.16 323.924,11.984 323.924,12.992 C323.924,14.016 323.692,14.848 323.228,15.488 C322.764,16.128 322.084,16.448 321.188,16.448 Z M333.428,17 L333.428,16.496 C332.628,16.496 332.112,16.328 331.88,15.992 C331.648,15.656 331.532,14.888 331.532,13.688 L331.532,13.688 L331.532,12.368 C331.532,11.52 331.748,10.84 332.18,10.328 C332.612,9.816 333.012,9.56 333.38,9.56 C333.892,9.56 334.148,9.824 334.148,10.352 C334.148,10.576 334.232,10.776 334.4,10.952 C334.568,11.128 334.764,11.216 334.988,11.216 C335.628,11.216 335.948,10.84 335.948,10.088 C335.948,9.736 335.784,9.4 335.456,9.08 C335.128,8.76 334.66,8.6 334.052,8.6 C333.572,8.6 333.092,8.768 332.612,9.104 C332.132,9.44 331.772,9.848 331.532,10.328 C331.404,9.48 331.268,8.904 331.124,8.6 L331.124,8.6 L327.932,9.2 L327.932,9.704 C328.732,9.704 329.248,9.872 329.48,10.208 C329.712,10.544 329.828,11.304 329.828,12.488 L329.828,12.488 L329.828,13.688 C329.828,14.888 329.712,15.656 329.48,15.992 C329.248,16.328 328.732,16.496 327.932,16.496 L327.932,16.496 L327.932,17 L333.428,17 Z M340.1,6.248 C340.388,6.248 340.636,6.144 340.844,5.936 C341.052,5.728 341.156,5.472 341.156,5.168 C341.156,4.88 341.052,4.632 340.844,4.424 C340.636,4.216 340.388,4.112 340.1,4.112 C339.812,4.112 339.564,4.216 339.356,4.424 C339.148,4.632 339.044,4.88 339.044,5.168 C339.044,5.472 339.148,5.728 339.356,5.936 C339.564,6.144 339.812,6.248 340.1,6.248 Z M342.86,17 L342.86,16.496 C342.06,16.496 341.544,16.328 341.312,15.992 C341.08,15.656 340.964,14.888 340.964,13.688 L340.964,13.688 L340.964,8.6 L337.364,9.2 L337.364,9.704 C338.164,9.704 338.68,9.872 338.912,10.208 C339.144,10.544 339.26,11.304 339.26,12.488 L339.26,12.488 L339.26,13.688 C339.26,14.888 339.144,15.656 338.912,15.992 C338.68,16.328 338.164,16.496 337.364,16.496 L337.364,16.496 L337.364,17 L342.86,17 Z M352.172,17.408 L355.388,16.808 L355.388,16.304 C354.572,16.304 354.048,16.136 353.816,15.8 C353.584,15.464 353.468,14.696 353.468,13.496 L353.468,13.496 L353.468,9.008 L349.868,9.008 L349.868,9.488 C350.684,9.488 351.208,9.656 351.44,9.992 C351.672,10.328 351.788,11.096 351.788,12.296 L351.788,12.296 L351.788,13.88 C351.788,14.552 351.492,15.116 350.9,15.572 C350.308,16.028 349.74,16.256 349.196,16.256 C347.98,16.256 347.372,15.4 347.372,13.688 L347.372,13.688 L347.372,9.008 L343.772,9.008 L343.772,9.488 C344.572,9.488 345.088,9.656 345.32,9.992 C345.552,10.328 345.668,11.096 345.668,12.296 L345.668,12.296 L345.668,13.808 C345.668,16.208 346.66,17.408 348.644,17.408 C349.748,17.408 350.796,16.896 351.788,15.872 C351.916,16.64 352.044,17.152 352.172,17.408 L352.172,17.408 Z M361.844,17 L361.844,16.496 C361.188,16.496 360.776,16.34 360.608,16.028 C360.44,15.716 360.356,14.936 360.356,13.688 L360.356,13.688 L360.356,12.128 C360.356,11.456 360.644,10.888 361.22,10.424 C361.796,9.96 362.332,9.728 362.828,9.728 C363.98,9.728 364.556,10.584 364.556,12.296 L364.556,12.296 L364.556,13.688 C364.556,14.952 364.472,15.736 364.304,16.04 C364.136,16.344 363.716,16.496 363.044,16.496 L363.044,16.496 L363.044,17 L367.748,17 L367.748,16.496 C367.076,16.496 366.656,16.344 366.488,16.04 C366.32,15.736 366.236,14.952 366.236,13.688 L366.236,13.688 L366.236,12.128 C366.236,11.456 366.528,10.888 367.112,10.424 C367.696,9.96 368.236,9.728 368.732,9.728 C369.868,9.728 370.436,10.584 370.436,12.296 L370.436,12.296 L370.436,13.688 C370.436,14.952 370.356,15.736 370.196,16.04 C370.036,16.344 369.62,16.496 368.948,16.496 L368.948,16.496 L368.948,17 L374.036,17 L374.036,16.496 C373.236,16.496 372.72,16.328 372.488,15.992 C372.256,15.656 372.14,14.888 372.14,13.688 L372.14,13.688 L372.14,12.176 C372.14,9.792 371.22,8.6 369.38,8.6 C368.724,8.6 368.08,8.788 367.448,9.164 C366.816,9.54 366.34,9.952 366.02,10.4 C365.652,9.2 364.804,8.6 363.476,8.6 C362.308,8.6 361.268,9.176 360.356,10.328 C360.228,9.48 360.092,8.904 359.948,8.6 L359.948,8.6 L356.756,9.2 L356.756,9.704 C357.556,9.704 358.072,9.872 358.304,10.208 C358.536,10.544 358.652,11.304 358.652,12.488 L358.652,12.488 L358.652,13.688 C358.652,14.888 358.536,15.656 358.304,15.992 C358.072,16.328 357.556,16.496 356.756,16.496 L356.756,16.496 L356.756,17 L361.844,17 Z" id="Equilibrium" fill="#524740" fill-rule="nonzero"></path>
            </g>
            <line x1="193.5" y1="64.5" x2="346.5" y2="64.5" id="Line-6" stroke="#B09679" stroke-linecap="square" stroke-dasharray="3,4"></line>
        </g>
    </g>
</svg>