<?xml version="1.0" encoding="UTF-8"?>
<svg width="900px" height="450px" viewBox="0 0 900 450" version="1.1" xmlns="http://www.w3.org/2000/svg" xmlns:xlink="http://www.w3.org/1999/xlink">
    <!-- Generator: Sketch 60.1 (88133) - https://sketch.com -->
    <title>Electricity_Doing_Work</title>
    <desc>Created with Sketch.</desc>
    <g id="Electricity_Doing_Work" stroke="none" stroke-width="1" fill="none" fill-rule="evenodd">
        <g id="Illustration_Frame">
            <rect id="Rectangle" stroke="#3D3530" stroke-width="2" fill="#EEEEEE" x="1" y="1" width="898" height="448"></rect>
            <rect id="Rectangle-Copy" stroke="#3D3530" stroke-width="2" fill="#F8FAE4" x="1" y="406" width="898" height="43"></rect>
            <path d="M633.013333,435 L633.013333,433.416 L624.013333,433.416 L624.013333,427.584 L629.077333,427.584 L629.077333,426 L624.013333,426 L624.013333,420.456 L633.013333,420.456 L633.013333,418.872 L622.429333,418.872 L622.429333,435 L633.013333,435 Z M638.095999,435 L638.095999,417.144 L636.511999,417.144 L636.511999,435 L638.095999,435 Z M647.522666,435.072 C648.994666,435.088 650.262666,434.672 651.326666,433.824 C652.390666,432.976 653.106666,432.048 653.474666,431.04 L653.474666,431.04 L652.130666,430.56 C651.826666,431.376 651.250666,432.088 650.402666,432.696 C649.554666,433.304 648.594666,433.608 647.522666,433.608 C646.530666,433.624 645.626666,433.324 644.810666,432.708 C643.994666,432.092 643.450666,431.304 643.178666,430.344 L643.178666,430.344 L653.666666,428.448 C653.666666,428.32 653.658666,428.216 653.642666,428.136 C653.466666,426.6 652.794666,425.312 651.626666,424.272 C650.458666,423.232 649.090666,422.704 647.522666,422.688 C645.794666,422.704 644.330666,423.312 643.130666,424.512 C641.930666,425.712 641.330666,427.176 641.330666,428.904 C641.330666,429.528 641.410666,430.104 641.570666,430.632 C641.970666,431.928 642.726666,432.992 643.838666,433.824 C644.950666,434.656 646.178666,435.072 647.522666,435.072 Z M642.938666,429.048 C642.938666,428.968 642.934666,428.868 642.926666,428.748 C642.918666,428.628 642.914666,428.544 642.914666,428.496 C642.978666,427.312 643.438666,426.296 644.294666,425.448 C645.150666,424.6 646.178666,424.168 647.378666,424.152 C648.402666,424.136 649.330666,424.436 650.162666,425.052 C650.994666,425.668 651.562666,426.464 651.866666,427.44 L651.866666,427.44 L642.938666,429.048 Z M662.517333,435.192 C663.605333,435.192 664.617333,434.924 665.553333,434.388 C666.489333,433.852 667.229333,433.136 667.773333,432.24 L667.773333,432.24 L666.333333,431.544 C665.901333,432.2 665.349333,432.72 664.677333,433.104 C664.005333,433.488 663.285333,433.68 662.517333,433.68 C661.221333,433.68 660.129333,433.228 659.241333,432.324 C658.353333,431.42 657.909333,430.312 657.909333,429 C657.909333,427.688 658.353333,426.58 659.241333,425.676 C660.129333,424.772 661.221333,424.32 662.517333,424.32 C663.285333,424.32 664.005333,424.512 664.677333,424.896 C665.349333,425.28 665.901333,425.8 666.333333,426.456 L666.333333,426.456 L667.773333,425.76 C667.229333,424.864 666.489333,424.148 665.553333,423.612 C664.617333,423.076 663.605333,422.808 662.517333,422.808 C660.805333,422.808 659.345333,423.412 658.137333,424.62 C656.929333,425.828 656.325333,427.288 656.325333,429 C656.325333,430.712 656.929333,432.172 658.137333,433.38 C659.345333,434.588 660.805333,435.192 662.517333,435.192 Z M675.567999,435.192 C676.159999,435.192 676.735999,435.036 677.295999,434.724 C677.855999,434.412 678.215999,434.168 678.375999,433.992 C678.535999,433.816 678.663999,433.664 678.759999,433.536 L678.759999,433.536 L677.967999,432.312 C677.967999,432.376 677.883999,432.516 677.715999,432.732 C677.547999,432.948 677.287999,433.168 676.935999,433.392 C676.583999,433.616 676.223999,433.728 675.855999,433.728 C675.263999,433.728 674.739999,433.512 674.283999,433.08 C673.827999,432.648 673.599999,432.064 673.599999,431.328 L673.599999,431.328 L673.599999,424.44 L677.223999,424.44 L677.223999,422.976 L673.599999,422.976 L673.599999,418.992 L672.015999,419.184 L672.015999,422.976 L670.095999,422.976 L670.095999,424.44 L672.015999,424.44 L672.015999,431.688 C672.015999,432.824 672.355999,433.692 673.035999,434.292 C673.715999,434.892 674.559999,435.192 675.567999,435.192 Z M683.458666,435 L683.458666,427.968 C683.458666,426.928 683.802666,426.052 684.490666,425.34 C685.178666,424.628 686.026666,424.272 687.034666,424.272 C687.722666,424.272 688.402666,424.52 689.074666,425.016 L689.074666,425.016 L689.626666,423.432 C688.922666,423.016 688.146666,422.808 687.298666,422.808 C685.714666,422.808 684.434666,423.464 683.458666,424.776 L683.458666,424.776 L683.458666,423 L681.874666,423 L681.874666,435 L683.458666,435 Z M693.389333,419.688 C693.661333,419.688 693.885333,419.592 694.061333,419.4 C694.253333,419.208 694.349333,418.984 694.349333,418.728 C694.349333,418.472 694.257333,418.248 694.073333,418.056 C693.889333,417.864 693.661333,417.768 693.389333,417.768 C693.117333,417.768 692.889333,417.864 692.705333,418.056 C692.521333,418.248 692.429333,418.472 692.429333,418.728 C692.429333,418.984 692.521333,419.208 692.705333,419.4 C692.889333,419.592 693.117333,419.688 693.389333,419.688 Z M694.181333,435 L694.181333,423 L692.597333,423 L692.597333,435 L694.181333,435 Z M703.847999,435.192 C704.935999,435.192 705.947999,434.924 706.883999,434.388 C707.819999,433.852 708.559999,433.136 709.103999,432.24 L709.103999,432.24 L707.663999,431.544 C707.231999,432.2 706.679999,432.72 706.007999,433.104 C705.335999,433.488 704.615999,433.68 703.847999,433.68 C702.551999,433.68 701.459999,433.228 700.571999,432.324 C699.683999,431.42 699.239999,430.312 699.239999,429 C699.239999,427.688 699.683999,426.58 700.571999,425.676 C701.459999,424.772 702.551999,424.32 703.847999,424.32 C704.615999,424.32 705.335999,424.512 706.007999,424.896 C706.679999,425.28 707.231999,425.8 707.663999,426.456 L707.663999,426.456 L709.103999,425.76 C708.559999,424.864 707.819999,424.148 706.883999,423.612 C705.947999,423.076 704.935999,422.808 703.847999,422.808 C702.135999,422.808 700.675999,423.412 699.467999,424.62 C698.259999,425.828 697.655999,427.288 697.655999,429 C697.655999,430.712 698.259999,432.172 699.467999,433.38 C700.675999,434.588 702.135999,435.192 703.847999,435.192 Z M713.610666,419.688 C713.882666,419.688 714.106666,419.592 714.282666,419.4 C714.474666,419.208 714.570666,418.984 714.570666,418.728 C714.570666,418.472 714.478666,418.248 714.294666,418.056 C714.110666,417.864 713.882666,417.768 713.610666,417.768 C713.338666,417.768 713.110666,417.864 712.926666,418.056 C712.742666,418.248 712.650666,418.472 712.650666,418.728 C712.650666,418.984 712.742666,419.208 712.926666,419.4 C713.110666,419.592 713.338666,419.688 713.610666,419.688 Z M714.402666,435 L714.402666,423 L712.818666,423 L712.818666,435 L714.402666,435 Z M722.485333,435.192 C723.077333,435.192 723.653333,435.036 724.213333,434.724 C724.773333,434.412 725.133333,434.168 725.293333,433.992 C725.453333,433.816 725.581333,433.664 725.677333,433.536 L725.677333,433.536 L724.885333,432.312 C724.885333,432.376 724.801333,432.516 724.633333,432.732 C724.465333,432.948 724.205333,433.168 723.853333,433.392 C723.501333,433.616 723.141333,433.728 722.773333,433.728 C722.181333,433.728 721.657333,433.512 721.201333,433.08 C720.745333,432.648 720.517333,432.064 720.517333,431.328 L720.517333,431.328 L720.517333,424.44 L724.141333,424.44 L724.141333,422.976 L720.517333,422.976 L720.517333,418.992 L718.933333,419.184 L718.933333,422.976 L717.013333,422.976 L717.013333,424.44 L718.933333,424.44 L718.933333,431.688 C718.933333,432.824 719.273333,433.692 719.953333,434.292 C720.633333,434.892 721.477333,435.192 722.485333,435.192 Z M730.664,440.112 L737.216,423 L735.632,423 L732.344,431.568 L728.744,423 L727.16,423 L731.6,433.536 L729.08,440.112 L730.664,440.112 Z M751.221333,435 C753.861333,435 755.969333,434.228 757.545333,432.684 C759.121333,431.14 759.909333,429.224 759.909333,426.936 C759.909333,424.632 759.125333,422.712 757.557333,421.176 C755.989333,419.64 753.877333,418.872 751.221333,418.872 L751.221333,418.872 L747.573333,418.872 L747.573333,435 L751.221333,435 Z M751.221333,433.488 L749.157333,433.488 L749.157333,420.384 L751.221333,420.384 C753.333333,420.384 755.021333,421.004 756.285333,422.244 C757.549333,423.484 758.181333,425.048 758.181333,426.936 C758.181333,428.824 757.549333,430.388 756.285333,431.628 C755.021333,432.868 753.333333,433.488 751.221333,433.488 L751.221333,433.488 Z M768.376,435.192 C770.088,435.192 771.544,434.584 772.744,433.368 C773.96,432.152 774.568,430.696 774.568,429 C774.568,427.288 773.964,425.828 772.756,424.62 C771.548,423.412 770.088,422.808 768.376,422.808 C766.664,422.808 765.204,423.412 763.996,424.62 C762.788,425.828 762.184,427.288 762.184,429 C762.184,430.712 762.788,432.172 763.996,433.38 C765.204,434.588 766.664,435.192 768.376,435.192 Z M768.4,433.68 C767.12,433.68 766.032,433.228 765.136,432.324 C764.24,431.42 763.792,430.312 763.792,429 C763.792,427.688 764.24,426.576 765.136,425.664 C766.032,424.752 767.12,424.296 768.4,424.296 C769.696,424.296 770.788,424.752 771.676,425.664 C772.564,426.576 773.008,427.688 773.008,429 C773.008,430.312 772.564,431.42 771.676,432.324 C770.788,433.228 769.696,433.68 768.4,433.68 Z M778.978666,419.688 C779.250666,419.688 779.474666,419.592 779.650666,419.4 C779.842666,419.208 779.938666,418.984 779.938666,418.728 C779.938666,418.472 779.846666,418.248 779.662666,418.056 C779.478666,417.864 779.250666,417.768 778.978666,417.768 C778.706666,417.768 778.478666,417.864 778.294666,418.056 C778.110666,418.248 778.018666,418.472 778.018666,418.728 C778.018666,418.984 778.110666,419.208 778.294666,419.4 C778.478666,419.592 778.706666,419.688 778.978666,419.688 Z M779.770666,435 L779.770666,423 L778.186666,423 L778.186666,435 L779.770666,435 Z M785.693333,435 L785.693333,427.968 C785.693333,426.944 786.041333,426.072 786.737333,425.352 C787.433333,424.632 788.277333,424.272 789.269333,424.272 C790.261333,424.272 791.105333,424.632 791.801333,425.352 C792.497333,426.072 792.845333,426.944 792.845333,427.968 L792.845333,427.968 L792.845333,435 L794.453333,435 L794.453333,427.92 C794.453333,426.48 793.981333,425.268 793.037333,424.284 C792.093333,423.3 790.925333,422.808 789.533333,422.808 C787.949333,422.808 786.669333,423.464 785.693333,424.776 L785.693333,424.776 L785.693333,423 L784.109333,423 L784.109333,435 L785.693333,435 Z M803.808,440.112 C805.44,440.112 806.876,439.524 808.116,438.348 C809.356,437.172 809.984,435.712 810,433.968 L810,433.968 L810,423.024 L808.392,423.024 L808.392,424.968 C807.16,423.544 805.6,422.832 803.712,422.832 C802,422.832 800.54,423.436 799.332,424.644 C798.124,425.852 797.52,427.312 797.52,429.024 C797.52,430.736 798.124,432.196 799.332,433.404 C800.54,434.612 802,435.216 803.712,435.216 C805.616,435.216 807.176,434.504 808.392,433.08 L808.392,433.08 L808.392,433.968 L808.416,433.968 C808.4,435.216 807.948,436.308 807.06,437.244 C806.172,438.18 805.088,438.648 803.808,438.648 C802.72,438.648 801.752,438.344 800.904,437.736 C800.056,437.128 799.48,436.416 799.176,435.6 L799.176,435.6 L797.88,436.248 C798.248,437.24 798.956,438.132 800.004,438.924 C801.052,439.716 802.32,440.112 803.808,440.112 Z M803.736,433.728 C802.456,433.728 801.368,433.276 800.472,432.372 C799.576,431.468 799.128,430.36 799.128,429.048 C799.128,427.736 799.576,426.628 800.472,425.724 C801.368,424.82 802.456,424.368 803.736,424.368 C805.032,424.368 806.124,424.82 807.012,425.724 C807.9,426.628 808.344,427.736 808.344,429.048 C808.344,430.36 807.9,431.468 807.012,432.372 C806.124,433.276 805.032,433.728 803.736,433.728 Z M827.677333,435 L832.453333,421.032 L837.205333,435 L838.837333,435 L844.405333,418.872 L842.773333,418.872 L838.021333,432.552 L833.173333,418.872 L831.709333,418.872 L826.885333,432.552 L822.109333,418.872 L820.477333,418.872 L826.069333,435 L827.677333,435 Z M850.712,435.192 C852.424,435.192 853.88,434.584 855.08,433.368 C856.296,432.152 856.904,430.696 856.904,429 C856.904,427.288 856.3,425.828 855.092,424.62 C853.884,423.412 852.424,422.808 850.712,422.808 C849,422.808 847.54,423.412 846.332,424.62 C845.124,425.828 844.52,427.288 844.52,429 C844.52,430.712 845.124,432.172 846.332,433.38 C847.54,434.588 849,435.192 850.712,435.192 Z M850.736,433.68 C849.456,433.68 848.368,433.228 847.472,432.324 C846.576,431.42 846.128,430.312 846.128,429 C846.128,427.688 846.576,426.576 847.472,425.664 C848.368,424.752 849.456,424.296 850.736,424.296 C852.032,424.296 853.124,424.752 854.012,425.664 C854.9,426.576 855.344,427.688 855.344,429 C855.344,430.312 854.9,431.42 854.012,432.324 C853.124,433.228 852.032,433.68 850.736,433.68 Z M861.530667,435 L861.530667,427.968 C861.530667,426.928 861.874667,426.052 862.562667,425.34 C863.250667,424.628 864.098667,424.272 865.106667,424.272 C865.794667,424.272 866.474667,424.52 867.146667,425.016 L867.146667,425.016 L867.698667,423.432 C866.994667,423.016 866.218667,422.808 865.370667,422.808 C863.786667,422.808 862.506667,423.464 861.530667,424.776 L861.530667,424.776 L861.530667,423 L859.946667,423 L859.946667,435 L861.530667,435 Z M878.565333,435 L874.221333,428.208 L878.565333,423 L876.813333,423 L872.085333,428.688 L872.085333,417.12 L870.501333,417.12 L870.501333,434.976 L872.085333,434.976 L872.085333,430.776 L873.285333,429.336 L876.885333,435 L878.565333,435 Z" id="ElectricityDoingWork" fill="#23ABE3" fill-rule="nonzero"></path>
        </g>
        <g id="Water_Tower_w_Wheel" transform="translate(268.000000, 27.000000)">
            <g id="Water-Tower" transform="translate(94.000000, 0.000000)" stroke="#555555">
                <line x1="40.5" y1="123.5" x2="59.5" y2="285.5" id="Line-Copy-2" stroke-width="6" transform="translate(50.000000, 204.500000) scale(-1, 1) translate(-50.000000, -204.500000) "></line>
                <line x1="106.5" y1="123.5" x2="125.5" y2="285.5" id="Line-Copy-3" stroke-width="6"></line>
                <path d="M89,159 L75,159 L75,289 L200,289 L200,275 L89,275 L89,159 Z" id="Combined-Shape" stroke-width="2" fill="#23ABE3"></path>
                <line x1="145.5" y1="153.5" x2="164.5" y2="315.5" id="Line" stroke-width="6"></line>
                <line x1="0.5" y1="153.5" x2="19.5" y2="315.5" id="Line-Copy" stroke-width="6" transform="translate(10.000000, 234.500000) scale(-1, 1) translate(-10.000000, -234.500000) "></line>
                <path d="M2,30.8945312 L2,147.894531 C21.3333333,158.561198 47,163.894531 79,163.894531 C111,163.894531 139.333333,158.561198 164,147.894531 L164,30.8945312 C137,21.6315104 110,17 83,17 C56,17 29,21.6315104 2,30.8945312 Z" id="Path-3" stroke-width="2" fill="#D8D8D8"></path>
                <path d="M2,57 L2,147.109406 C21.3333333,158.299489 47,163.894531 79,163.894531 C111,163.894531 139.333333,158.299489 164,147.109406 L164,57 C137,52.3333333 110,50 83,50 C56,50 29,52.3333333 2,57 Z" id="Path-3-Copy" fill="#23ABE3"></path>
                <path d="M2,31 L83.4909091,0 L164,31 C148.63608,23.0703125 121.799716,19.1054687 83.4909091,19.1054687 C45.1821023,19.1054687 18.0184659,23.0703125 2,31 Z" id="Path-2" stroke-width="2" fill="#D8D8D8"></path>
            </g>
            <g id="Valve" transform="translate(279.000000, 269.000000)" stroke="#555555">
                <rect id="Rectangle-2" fill="#D8D8D8" x="14.5" y="0.5" width="23" height="24"></rect>
                <rect id="Rectangle-3" fill="#B09679" transform="translate(15.000000, 12.500000) rotate(-270.000000) translate(-15.000000, -12.500000) " x="11.5" y="-1.5" width="7" height="28"></rect>
            </g>
            <path d="M317,275 C344.666667,275 364.166667,277.666667 375.5,283 C386.833333,288.333333 400.5,314.666667 416.5,362 L375.5,362 C378,329.333333 376,309.166667 369.5,301.5 C363,293.833333 345.5,290.333333 317,291 L317,275 Z" id="Path-4" fill="#23ABE3"></path>
            <g id="Labels" transform="translate(0.000000, 59.000000)">
                <line x1="69.5" y1="1" x2="0.5" y2="1" id="Line-2" stroke="#B09679" stroke-width="2" stroke-linecap="square"></line>
                <line x1="69.5" y1="224" x2="0.5" y2="224" id="Line-2-Copy" stroke="#B09679" stroke-width="2" stroke-linecap="square"></line>
                <line x1="33" y1="1.5" x2="33" y2="81.5" id="Line-3" stroke="#B09679" stroke-width="2" stroke-linecap="square"></line>
                <line x1="33" y1="144.5" x2="33" y2="224.5" id="Line-3-Copy" stroke="#B09679" stroke-width="2" stroke-linecap="square"></line>
                <line x1="243.5" y1="23.5" x2="291.5" y2="39.5" id="Line-4" stroke="#B09679" stroke-width="2" stroke-linecap="square" transform="translate(267.500000, 31.500000) scale(-1, 1) translate(-267.500000, -31.500000) "></line>
                <line x1="388" y1="230" x2="420" y2="208" id="Line-4-Copy" stroke="#B09679" stroke-width="2" stroke-linecap="square"></line>
                <path d="M311.972,27.408 L315.356,16.776 L318.716,27.408 L319.028,27.408 L322.916,15.192 C323.188,14.344 323.492,13.784 323.828,13.512 C324.164,13.24 324.812,13.104 325.772,13.104 L325.772,13.104 L325.772,12.6 L320.372,12.6 L320.372,13.104 C321.22,13.104 321.764,13.24 322.004,13.512 C322.244,13.784 322.26,14.256 322.052,14.928 L322.052,14.928 L319.436,23.184 L316.076,12.6 L315.74,12.6 L312.38,23.208 L309.74,14.928 C309.532,14.24 309.552,13.764 309.8,13.5 C310.048,13.236 310.66,13.104 311.636,13.104 L311.636,13.104 L311.636,12.6 L304.916,12.6 L304.916,13.104 C305.892,13.104 306.54,13.224 306.86,13.464 C307.18,13.704 307.484,14.28 307.772,15.192 L307.772,15.192 L311.66,27.408 L311.972,27.408 Z M327.932,27.312 C328.86,27.312 329.86,26.832 330.932,25.872 C331.06,26.8 331.604,27.264 332.564,27.264 C333.156,27.264 333.684,27.016 334.148,26.52 L334.148,26.52 L333.812,26.064 C333.572,26.304 333.348,26.424 333.14,26.424 C332.772,26.424 332.588,26.112 332.588,25.488 L332.588,25.488 L332.588,21.864 C332.588,20.712 332.332,19.88 331.82,19.368 C331.308,18.856 330.468,18.6 329.3,18.6 C328.5,18.6 327.792,18.78 327.176,19.14 C326.56,19.5 326.252,19.96 326.252,20.52 C326.252,20.76 326.332,20.96 326.492,21.12 C326.652,21.28 326.852,21.36 327.092,21.36 C327.316,21.36 327.508,21.28 327.668,21.12 C327.828,20.96 327.908,20.76 327.908,20.52 C327.908,20.168 328.056,19.888 328.352,19.68 C328.648,19.472 328.956,19.368 329.276,19.368 C329.932,19.368 330.364,19.552 330.572,19.92 C330.78,20.288 330.884,20.944 330.884,21.888 C327.476,22.48 325.772,23.616 325.772,25.296 C325.772,25.92 325.98,26.412 326.396,26.772 C326.812,27.132 327.324,27.312 327.932,27.312 Z M328.7,26.232 C328.38,26.232 328.112,26.12 327.896,25.896 C327.68,25.672 327.572,25.376 327.572,25.008 C327.572,23.936 328.676,23.144 330.884,22.632 L330.884,22.632 L330.884,25.08 C330.02,25.848 329.292,26.232 328.7,26.232 Z M338.684,27.336 C339.084,27.336 339.52,27.208 339.992,26.952 C340.464,26.696 340.868,26.368 341.204,25.968 L341.204,25.968 L340.796,25.56 C340.22,26.104 339.7,26.376 339.236,26.376 C338.516,26.376 338.156,25.8 338.156,24.648 L338.156,24.648 L338.156,19.848 L340.244,19.848 L340.244,19.008 L338.156,19.008 L338.156,16.368 L337.34,16.368 C337.244,17.2 337.036,17.856 336.716,18.336 C336.396,18.816 335.892,19.128 335.204,19.272 L335.204,19.272 L335.204,19.848 L336.452,19.848 L336.452,24.648 C336.452,25.544 336.652,26.216 337.052,26.664 C337.452,27.112 337.996,27.336 338.684,27.336 Z M347.204,27.408 C347.876,27.408 348.548,27.26 349.22,26.964 C349.892,26.668 350.444,26.288 350.876,25.824 L350.876,25.824 L350.444,25.296 C350.108,25.616 349.684,25.88 349.172,26.088 C348.66,26.296 348.204,26.4 347.804,26.4 C346.62,26.4 345.768,26.028 345.248,25.284 C344.728,24.54 344.54,23.576 344.684,22.392 L344.684,22.392 L350.468,22.392 C350.756,21.384 350.556,20.5 349.868,19.74 C349.18,18.98 348.292,18.6 347.204,18.6 C346.052,18.6 345.024,19.024 344.12,19.872 C343.216,20.72 342.764,21.76 342.764,22.992 C342.764,24.224 343.18,25.268 344.012,26.124 C344.844,26.98 345.908,27.408 347.204,27.408 Z M348.812,21.504 L344.828,21.504 C345.004,20.912 345.296,20.44 345.704,20.088 C346.112,19.736 346.572,19.56 347.084,19.56 C347.804,19.56 348.312,19.772 348.608,20.196 C348.904,20.62 348.972,21.056 348.812,21.504 L348.812,21.504 Z M358.148,27 L358.148,26.496 C357.348,26.496 356.832,26.328 356.6,25.992 C356.368,25.656 356.252,24.888 356.252,23.688 L356.252,23.688 L356.252,22.368 C356.252,21.52 356.468,20.84 356.9,20.328 C357.332,19.816 357.732,19.56 358.1,19.56 C358.612,19.56 358.868,19.824 358.868,20.352 C358.868,20.576 358.952,20.776 359.12,20.952 C359.288,21.128 359.484,21.216 359.708,21.216 C360.348,21.216 360.668,20.84 360.668,20.088 C360.668,19.736 360.504,19.4 360.176,19.08 C359.848,18.76 359.38,18.6 358.772,18.6 C358.292,18.6 357.812,18.768 357.332,19.104 C356.852,19.44 356.492,19.848 356.252,20.328 C356.124,19.48 355.988,18.904 355.844,18.6 L355.844,18.6 L352.652,19.2 L352.652,19.704 C353.452,19.704 353.968,19.872 354.2,20.208 C354.432,20.544 354.548,21.304 354.548,22.488 L354.548,22.488 L354.548,23.688 C354.548,24.888 354.432,25.656 354.2,25.992 C353.968,26.328 353.452,26.496 352.652,26.496 L352.652,26.496 L352.652,27 L358.148,27 Z" id="Water" fill="#524740" fill-rule="nonzero"></path>
                <path d="M428.052,213.408 L431.436,202.776 L434.796,213.408 L435.108,213.408 L438.996,201.192 C439.268,200.344 439.572,199.784 439.908,199.512 C440.244,199.24 440.892,199.104 441.852,199.104 L441.852,199.104 L441.852,198.6 L436.452,198.6 L436.452,199.104 C437.3,199.104 437.844,199.24 438.084,199.512 C438.324,199.784 438.34,200.256 438.132,200.928 L438.132,200.928 L435.516,209.184 L432.156,198.6 L431.82,198.6 L428.46,209.208 L425.82,200.928 C425.612,200.24 425.632,199.764 425.88,199.5 C426.128,199.236 426.74,199.104 427.716,199.104 L427.716,199.104 L427.716,198.6 L420.996,198.6 L420.996,199.104 C421.972,199.104 422.62,199.224 422.94,199.464 C423.26,199.704 423.564,200.28 423.852,201.192 L423.852,201.192 L427.74,213.408 L428.052,213.408 Z M444.012,213.312 C444.94,213.312 445.94,212.832 447.012,211.872 C447.14,212.8 447.684,213.264 448.644,213.264 C449.236,213.264 449.764,213.016 450.228,212.52 L450.228,212.52 L449.892,212.064 C449.652,212.304 449.428,212.424 449.22,212.424 C448.852,212.424 448.668,212.112 448.668,211.488 L448.668,211.488 L448.668,207.864 C448.668,206.712 448.412,205.88 447.9,205.368 C447.388,204.856 446.548,204.6 445.38,204.6 C444.58,204.6 443.872,204.78 443.256,205.14 C442.64,205.5 442.332,205.96 442.332,206.52 C442.332,206.76 442.412,206.96 442.572,207.12 C442.732,207.28 442.932,207.36 443.172,207.36 C443.396,207.36 443.588,207.28 443.748,207.12 C443.908,206.96 443.988,206.76 443.988,206.52 C443.988,206.168 444.136,205.888 444.432,205.68 C444.728,205.472 445.036,205.368 445.356,205.368 C446.012,205.368 446.444,205.552 446.652,205.92 C446.86,206.288 446.964,206.944 446.964,207.888 C443.556,208.48 441.852,209.616 441.852,211.296 C441.852,211.92 442.06,212.412 442.476,212.772 C442.892,213.132 443.404,213.312 444.012,213.312 Z M444.78,212.232 C444.46,212.232 444.192,212.12 443.976,211.896 C443.76,211.672 443.652,211.376 443.652,211.008 C443.652,209.936 444.756,209.144 446.964,208.632 L446.964,208.632 L446.964,211.08 C446.1,211.848 445.372,212.232 444.78,212.232 Z M454.764,213.336 C455.164,213.336 455.6,213.208 456.072,212.952 C456.544,212.696 456.948,212.368 457.284,211.968 L457.284,211.968 L456.876,211.56 C456.3,212.104 455.78,212.376 455.316,212.376 C454.596,212.376 454.236,211.8 454.236,210.648 L454.236,210.648 L454.236,205.848 L456.324,205.848 L456.324,205.008 L454.236,205.008 L454.236,202.368 L453.42,202.368 C453.324,203.2 453.116,203.856 452.796,204.336 C452.476,204.816 451.972,205.128 451.284,205.272 L451.284,205.272 L451.284,205.848 L452.532,205.848 L452.532,210.648 C452.532,211.544 452.732,212.216 453.132,212.664 C453.532,213.112 454.076,213.336 454.764,213.336 Z M463.284,213.408 C463.956,213.408 464.628,213.26 465.3,212.964 C465.972,212.668 466.524,212.288 466.956,211.824 L466.956,211.824 L466.524,211.296 C466.188,211.616 465.764,211.88 465.252,212.088 C464.74,212.296 464.284,212.4 463.884,212.4 C462.7,212.4 461.848,212.028 461.328,211.284 C460.808,210.54 460.62,209.576 460.764,208.392 L460.764,208.392 L466.548,208.392 C466.836,207.384 466.636,206.5 465.948,205.74 C465.26,204.98 464.372,204.6 463.284,204.6 C462.132,204.6 461.104,205.024 460.2,205.872 C459.296,206.72 458.844,207.76 458.844,208.992 C458.844,210.224 459.26,211.268 460.092,212.124 C460.924,212.98 461.988,213.408 463.284,213.408 Z M464.892,207.504 L460.908,207.504 C461.084,206.912 461.376,206.44 461.784,206.088 C462.192,205.736 462.652,205.56 463.164,205.56 C463.884,205.56 464.392,205.772 464.688,206.196 C464.984,206.62 465.052,207.056 464.892,207.504 L464.892,207.504 Z M474.228,213 L474.228,212.496 C473.428,212.496 472.912,212.328 472.68,211.992 C472.448,211.656 472.332,210.888 472.332,209.688 L472.332,209.688 L472.332,208.368 C472.332,207.52 472.548,206.84 472.98,206.328 C473.412,205.816 473.812,205.56 474.18,205.56 C474.692,205.56 474.948,205.824 474.948,206.352 C474.948,206.576 475.032,206.776 475.2,206.952 C475.368,207.128 475.564,207.216 475.788,207.216 C476.428,207.216 476.748,206.84 476.748,206.088 C476.748,205.736 476.584,205.4 476.256,205.08 C475.928,204.76 475.46,204.6 474.852,204.6 C474.372,204.6 473.892,204.768 473.412,205.104 C472.932,205.44 472.572,205.848 472.332,206.328 C472.204,205.48 472.068,204.904 471.924,204.6 L471.924,204.6 L468.732,205.2 L468.732,205.704 C469.532,205.704 470.048,205.872 470.28,206.208 C470.512,206.544 470.628,207.304 470.628,208.488 L470.628,208.488 L470.628,209.688 C470.628,210.888 470.512,211.656 470.28,211.992 C470.048,212.328 469.532,212.496 468.732,212.496 L468.732,212.496 L468.732,213 L474.228,213 Z M488.988,213.408 L492.372,202.776 L495.732,213.408 L496.044,213.408 L499.932,201.192 C500.204,200.344 500.508,199.784 500.844,199.512 C501.18,199.24 501.828,199.104 502.788,199.104 L502.788,199.104 L502.788,198.6 L497.388,198.6 L497.388,199.104 C498.236,199.104 498.78,199.24 499.02,199.512 C499.26,199.784 499.276,200.256 499.068,200.928 L499.068,200.928 L496.452,209.184 L493.092,198.6 L492.756,198.6 L489.396,209.208 L486.756,200.928 C486.548,200.24 486.568,199.764 486.816,199.5 C487.064,199.236 487.676,199.104 488.652,199.104 L488.652,199.104 L488.652,198.6 L481.932,198.6 L481.932,199.104 C482.908,199.104 483.556,199.224 483.876,199.464 C484.196,199.704 484.5,200.28 484.788,201.192 L484.788,201.192 L488.676,213.408 L488.988,213.408 Z M507.444,213 L507.444,212.496 C506.788,212.496 506.372,212.34 506.196,212.028 C506.02,211.716 505.932,210.936 505.932,209.688 L505.932,209.688 L505.932,208.128 C505.932,207.472 506.204,206.908 506.748,206.436 C507.292,205.964 507.884,205.728 508.524,205.728 C509.74,205.728 510.348,206.584 510.348,208.296 L510.348,208.296 L510.348,209.688 C510.348,210.92 510.252,211.696 510.06,212.016 C509.868,212.336 509.396,212.496 508.644,212.496 L508.644,212.496 L508.644,213 L513.948,213 L513.948,212.496 C513.132,212.496 512.608,212.328 512.376,211.992 C512.144,211.656 512.028,210.888 512.028,209.688 L512.028,209.688 L512.028,208.176 C512.028,205.792 511.044,204.6 509.076,204.6 C507.924,204.6 506.876,205.176 505.932,206.328 L505.932,206.328 L505.932,198.192 L502.332,198.792 L502.332,199.296 C503.132,199.296 503.648,199.464 503.88,199.8 C504.112,200.136 504.228,200.904 504.228,202.104 L504.228,202.104 L504.228,209.688 C504.228,210.888 504.112,211.656 503.88,211.992 C503.648,212.328 503.132,212.496 502.332,212.496 L502.332,212.496 L502.332,213 L507.444,213 Z M519.996,213.408 C520.668,213.408 521.34,213.26 522.012,212.964 C522.684,212.668 523.236,212.288 523.668,211.824 L523.668,211.824 L523.236,211.296 C522.9,211.616 522.476,211.88 521.964,212.088 C521.452,212.296 520.996,212.4 520.596,212.4 C519.412,212.4 518.56,212.028 518.04,211.284 C517.52,210.54 517.332,209.576 517.476,208.392 L517.476,208.392 L523.26,208.392 C523.548,207.384 523.348,206.5 522.66,205.74 C521.972,204.98 521.084,204.6 519.996,204.6 C518.844,204.6 517.816,205.024 516.912,205.872 C516.008,206.72 515.556,207.76 515.556,208.992 C515.556,210.224 515.972,211.268 516.804,212.124 C517.636,212.98 518.7,213.408 519.996,213.408 Z M521.604,207.504 L517.62,207.504 C517.796,206.912 518.088,206.44 518.496,206.088 C518.904,205.736 519.364,205.56 519.876,205.56 C520.596,205.56 521.104,205.772 521.4,206.196 C521.696,206.62 521.764,207.056 521.604,207.504 L521.604,207.504 Z M530.124,213.408 C530.796,213.408 531.468,213.26 532.14,212.964 C532.812,212.668 533.364,212.288 533.796,211.824 L533.796,211.824 L533.364,211.296 C533.028,211.616 532.604,211.88 532.092,212.088 C531.58,212.296 531.124,212.4 530.724,212.4 C529.54,212.4 528.688,212.028 528.168,211.284 C527.648,210.54 527.46,209.576 527.604,208.392 L527.604,208.392 L533.388,208.392 C533.676,207.384 533.476,206.5 532.788,205.74 C532.1,204.98 531.212,204.6 530.124,204.6 C528.972,204.6 527.944,205.024 527.04,205.872 C526.136,206.72 525.684,207.76 525.684,208.992 C525.684,210.224 526.1,211.268 526.932,212.124 C527.764,212.98 528.828,213.408 530.124,213.408 Z M531.732,207.504 L527.748,207.504 C527.924,206.912 528.216,206.44 528.624,206.088 C529.032,205.736 529.492,205.56 530.004,205.56 C530.724,205.56 531.232,205.772 531.528,206.196 C531.824,206.62 531.892,207.056 531.732,207.504 L531.732,207.504 Z M540.612,213 L540.612,212.496 C539.812,212.496 539.296,212.328 539.064,211.992 C538.832,211.656 538.716,210.888 538.716,209.688 L538.716,209.688 L538.716,198.192 L535.116,198.792 L535.116,199.296 C535.916,199.296 536.432,199.464 536.664,199.8 C536.896,200.136 537.012,200.904 537.012,202.104 L537.012,202.104 L537.012,209.688 C537.012,210.888 536.896,211.656 536.664,211.992 C536.432,212.328 535.916,212.496 535.116,212.496 L535.116,212.496 L535.116,213 L540.612,213 Z" id="WaterWheel" fill="#524740" fill-rule="nonzero"></path>
                <path d="M14.488,119 C17.144,119 19.144,118.328 20.488,116.984 C21.832,115.64 22.504,113.912 22.504,111.8 C22.504,109.688 21.832,107.96 20.488,106.616 C19.144,105.272 17.144,104.6 14.488,104.6 L14.488,104.6 L7.984,104.6 L7.984,105.104 C8.976,105.104 9.604,105.268 9.868,105.596 C10.132,105.924 10.264,106.688 10.264,107.888 L10.264,107.888 L10.264,115.688 C10.264,116.888 10.132,117.656 9.868,117.992 C9.604,118.328 8.976,118.496 7.984,118.496 L7.984,118.496 L7.984,119 L14.488,119 Z M14.512,118.112 L14.416,118.112 C13.44,118.112 12.824,117.952 12.568,117.632 C12.312,117.312 12.184,116.544 12.184,115.328 L12.184,115.328 L12.184,105.488 L14.512,105.488 C15.616,105.488 16.564,105.68 17.356,106.064 C18.148,106.448 18.74,106.964 19.132,107.612 C19.524,108.26 19.8,108.924 19.96,109.604 C20.12,110.284 20.2,111.016 20.2,111.8 C20.2,112.584 20.12,113.316 19.96,113.996 C19.8,114.676 19.524,115.34 19.132,115.988 C18.74,116.636 18.148,117.152 17.356,117.536 C16.564,117.92 15.616,118.112 14.512,118.112 L14.512,118.112 Z M30.592,119 L30.592,118.496 C29.792,118.496 29.276,118.328 29.044,117.992 C28.812,117.656 28.696,116.888 28.696,115.688 L28.696,115.688 L28.696,114.368 C28.696,113.52 28.912,112.84 29.344,112.328 C29.776,111.816 30.176,111.56 30.544,111.56 C31.056,111.56 31.312,111.824 31.312,112.352 C31.312,112.576 31.396,112.776 31.564,112.952 C31.732,113.128 31.928,113.216 32.152,113.216 C32.792,113.216 33.112,112.84 33.112,112.088 C33.112,111.736 32.948,111.4 32.62,111.08 C32.292,110.76 31.824,110.6 31.216,110.6 C30.736,110.6 30.256,110.768 29.776,111.104 C29.296,111.44 28.936,111.848 28.696,112.328 C28.568,111.48 28.432,110.904 28.288,110.6 L28.288,110.6 L25.096,111.2 L25.096,111.704 C25.896,111.704 26.412,111.872 26.644,112.208 C26.876,112.544 26.992,113.304 26.992,114.488 L26.992,114.488 L26.992,115.688 C26.992,116.888 26.876,117.656 26.644,117.992 C26.412,118.328 25.896,118.496 25.096,118.496 L25.096,118.496 L25.096,119 L30.592,119 Z M39.616,119.408 C40.944,119.408 42.084,118.976 43.036,118.112 C43.988,117.248 44.464,116.208 44.464,114.992 C44.464,113.776 43.984,112.744 43.024,111.896 C42.08,111.032 40.944,110.6 39.616,110.6 C38.288,110.6 37.148,111.028 36.196,111.884 C35.244,112.74 34.768,113.776 34.768,114.992 C34.768,116.208 35.244,117.248 36.196,118.112 C37.148,118.976 38.288,119.408 39.616,119.408 Z M39.616,118.472 C38.672,118.472 37.952,118.144 37.456,117.488 C36.96,116.832 36.712,116 36.712,114.992 C36.712,113.984 36.96,113.152 37.456,112.496 C37.952,111.84 38.672,111.512 39.616,111.512 C40.56,111.512 41.28,111.836 41.776,112.484 C42.272,113.132 42.52,113.968 42.52,114.992 C42.52,116.016 42.272,116.856 41.776,117.512 C41.28,118.152 40.56,118.472 39.616,118.472 Z M51.568,125 L51.568,124.496 C50.768,124.496 50.252,124.328 50.02,123.992 C49.788,123.656 49.672,122.896 49.672,121.712 L49.672,121.712 L49.672,117.968 C50.456,118.928 51.44,119.408 52.624,119.408 C53.76,119.408 54.736,118.976 55.552,118.112 C56.368,117.248 56.776,116.208 56.776,114.992 C56.776,113.776 56.368,112.74 55.552,111.884 C54.736,111.028 53.76,110.6 52.624,110.6 C51.456,110.6 50.464,111.088 49.648,112.064 C49.504,111.264 49.384,110.776 49.288,110.6 L49.288,110.6 L46.072,111.2 L46.072,111.704 C46.872,111.704 47.388,111.868 47.62,112.196 C47.852,112.524 47.968,113.288 47.968,114.488 L47.968,114.488 L47.968,121.712 C47.968,122.912 47.852,123.676 47.62,124.004 C47.388,124.332 46.872,124.496 46.072,124.496 L46.072,124.496 L46.072,125 L51.568,125 Z M52.12,118.448 C51.576,118.448 51.092,118.276 50.668,117.932 C50.244,117.588 49.912,117.12 49.672,116.528 L49.672,116.528 L49.672,113.432 C49.912,112.856 50.244,112.4 50.668,112.064 C51.092,111.728 51.576,111.56 52.12,111.56 C53,111.56 53.672,111.88 54.136,112.52 C54.6,113.16 54.832,113.984 54.832,114.992 C54.832,116 54.6,116.832 54.136,117.488 C53.672,118.128 53,118.448 52.12,118.448 Z" id="Drop" fill="#524740" fill-rule="nonzero"></path>
            </g>
            <g id="Water-Wheel" transform="translate(316.000000, 276.000000)">
                <line x1="40" y1="0.5" x2="40" y2="78.5" id="Line-5" stroke="#B09679" stroke-width="4" stroke-linecap="square"></line>
                <line x1="40" y1="0.5" x2="40" y2="78.5" id="Line-5-Copy" stroke="#B09679" stroke-width="4" stroke-linecap="square" transform="translate(40.000000, 39.500000) rotate(-270.000000) translate(-40.000000, -39.500000) "></line>
                <line x1="40" y1="0.5" x2="40" y2="78.5" id="Line-5-Copy-2" stroke="#B09679" stroke-width="4" stroke-linecap="square" transform="translate(40.000000, 39.500000) rotate(-225.000000) translate(-40.000000, -39.500000) "></line>
                <line x1="11.9228355" y1="67.0771645" x2="67.0771645" y2="11.9228355" id="Line-5-Copy-3" stroke="#B09679" stroke-width="4" stroke-linecap="square"></line>
                <circle id="Oval-Copy-2" stroke="#555555" stroke-width="2" cx="39.5" cy="39.5" r="38.5"></circle>
                <circle id="Oval" fill="#B09679" cx="39.5" cy="39.5" r="22.5"></circle>
                <circle id="Oval-Copy" fill="#555555" cx="39.5" cy="39.5" r="7.5"></circle>
            </g>
        </g>
    </g>
</svg>