<?xml version="1.0" encoding="UTF-8"?>
<svg width="900px" height="290px" viewBox="0 0 900 290" version="1.1" xmlns="http://www.w3.org/2000/svg" xmlns:xlink="http://www.w3.org/1999/xlink">
    <!-- Generator: Sketch 60.1 (88133) - https://sketch.com -->
    <title>Source_Load_Ground</title>
    <desc>Created with Sketch.</desc>
    <g id="Source_Load_Ground" stroke="none" stroke-width="1" fill="none" fill-rule="evenodd">
        <g id="Illustration_Frame">
            <rect id="Rectangle" stroke="#3D3530" stroke-width="2" fill="#EEEEEE" x="1" y="1" width="898" height="288"></rect>
            <rect id="Rectangle-Copy" stroke="#3D3530" stroke-width="2" fill="#F8FAE4" x="1" y="246" width="898" height="43"></rect>
            <path d="M584.879999,276.147355 C586.463999,276.147355 587.695999,275.773161 588.575999,275.024774 C589.455999,274.276387 589.895999,273.355871 589.895999,272.263226 C589.895999,271.410065 589.595999,270.669161 588.995999,270.040516 C588.395999,269.411871 587.663999,268.917935 586.799999,268.55871 C585.935999,268.199484 585.075999,267.855226 584.219999,267.525935 C583.363999,267.196645 582.635999,266.788774 582.035999,266.302323 C581.435999,265.815871 581.135999,265.250839 581.135999,264.607226 C581.135999,263.843871 581.443999,263.241419 582.059999,262.799871 C582.675999,262.358323 583.519999,262.137548 584.591999,262.137548 C585.455999,262.137548 586.279999,262.347097 587.063999,262.766194 C587.847999,263.18529 588.447999,263.604387 588.863999,264.023484 L588.863999,264.023484 L589.967999,263.013161 C589.455999,262.504258 588.699999,261.995355 587.699999,261.486452 C586.699999,260.977548 585.663999,260.723097 584.591999,260.723097 C583.007999,260.723097 581.775999,261.09729 580.895999,261.845677 C580.015999,262.594065 579.575999,263.514581 579.575999,264.607226 C579.575999,265.460387 579.875999,266.20129 580.475999,266.829935 C581.075999,267.458581 581.807999,267.956258 582.671999,268.322968 C583.535999,268.689677 584.395999,269.037677 585.251999,269.366968 C586.107999,269.696258 586.835999,270.100387 587.435999,270.579355 C588.035999,271.058323 588.335999,271.619613 588.335999,272.263226 C588.335999,273.026581 588.027999,273.629032 587.411999,274.070581 C586.795999,274.512129 585.951999,274.732903 584.879999,274.732903 C583.999999,274.732903 583.167999,274.519613 582.383999,274.093032 C581.599999,273.666452 581.007999,273.251097 580.607999,272.846968 L580.607999,272.846968 L579.503999,273.85729 C580.015999,274.366194 580.771999,274.875097 581.771999,275.384 C582.771999,275.892903 583.807999,276.147355 584.879999,276.147355 Z M598.482666,276.147355 C600.194666,276.147355 601.650666,275.578581 602.850666,274.441032 C604.066666,273.303484 604.674666,271.941419 604.674666,270.354839 C604.674666,268.75329 604.070666,267.387484 602.862666,266.257419 C601.654666,265.127355 600.194666,264.562323 598.482666,264.562323 C596.770666,264.562323 595.310666,265.127355 594.102666,266.257419 C592.894666,267.387484 592.290666,268.75329 592.290666,270.354839 C592.290666,271.956387 592.894666,273.322194 594.102666,274.452258 C595.310666,275.582323 596.770666,276.147355 598.482666,276.147355 Z M598.506666,274.732903 C597.226666,274.732903 596.138666,274.310065 595.242666,273.464387 C594.346666,272.61871 593.898666,271.582194 593.898666,270.354839 C593.898666,269.127484 594.346666,268.087226 595.242666,267.234065 C596.138666,266.380903 597.226666,265.954323 598.506666,265.954323 C599.802666,265.954323 600.894666,266.380903 601.782666,267.234065 C602.670666,268.087226 603.114666,269.127484 603.114666,270.354839 C603.114666,271.582194 602.670666,272.61871 601.782666,273.464387 C600.894666,274.310065 599.802666,274.732903 598.506666,274.732903 Z M612.493333,276.147355 C614.077333,276.147355 615.357333,275.533677 616.333333,274.306323 L616.333333,274.306323 L616.333333,275.967742 L617.917333,275.967742 L617.917333,264.741935 L616.333333,264.741935 L616.333333,271.320258 C616.333333,272.278194 615.989333,273.090194 615.301333,273.756258 C614.613333,274.422323 613.765333,274.755355 612.757333,274.755355 C611.765333,274.755355 610.925333,274.422323 610.237333,273.756258 C609.549333,273.090194 609.205333,272.278194 609.205333,271.320258 L609.205333,271.320258 L609.205333,264.741935 L607.573333,264.741935 L607.573333,271.365161 C607.573333,272.712258 608.045333,273.846065 608.989333,274.766581 C609.933333,275.687097 611.101333,276.147355 612.493333,276.147355 Z M623.455999,275.967742 L623.455999,269.389419 C623.455999,268.416516 623.799999,267.597032 624.487999,266.930968 C625.175999,266.264903 626.023999,265.931871 627.031999,265.931871 C627.719999,265.931871 628.399999,266.163871 629.071999,266.627871 L629.071999,266.627871 L629.623999,265.146065 C628.919999,264.756903 628.143999,264.562323 627.295999,264.562323 C625.711999,264.562323 624.431999,265.176 623.455999,266.403355 L623.455999,266.403355 L623.455999,264.741935 L621.871999,264.741935 L621.871999,275.967742 L623.455999,275.967742 Z M636.938666,276.147355 C638.026666,276.147355 639.038666,275.896645 639.974666,275.395226 C640.910666,274.893806 641.650666,274.224 642.194666,273.385806 L642.194666,273.385806 L640.754666,272.73471 C640.322666,273.348387 639.770666,273.834839 639.098666,274.194065 C638.426666,274.55329 637.706666,274.732903 636.938666,274.732903 C635.642666,274.732903 634.550666,274.310065 633.662666,273.464387 C632.774666,272.61871 632.330666,271.582194 632.330666,270.354839 C632.330666,269.127484 632.774666,268.090968 633.662666,267.24529 C634.550666,266.399613 635.642666,265.976774 636.938666,265.976774 C637.706666,265.976774 638.426666,266.156387 639.098666,266.515613 C639.770666,266.874839 640.322666,267.36129 640.754666,267.974968 L640.754666,267.974968 L642.194666,267.323871 C641.650666,266.485677 640.910666,265.815871 639.974666,265.314452 C639.038666,264.813032 638.026666,264.562323 636.938666,264.562323 C635.226666,264.562323 633.766666,265.127355 632.558666,266.257419 C631.350666,267.387484 630.746666,268.75329 630.746666,270.354839 C630.746666,271.956387 631.350666,273.322194 632.558666,274.452258 C633.766666,275.582323 635.226666,276.147355 636.938666,276.147355 Z M650.757333,276.035097 C652.229333,276.050065 653.497333,275.660903 654.561333,274.867613 C655.625333,274.074323 656.341333,273.206194 656.709333,272.263226 L656.709333,272.263226 L655.365333,271.814194 C655.061333,272.577548 654.485333,273.243613 653.637333,273.812387 C652.789333,274.381161 651.829333,274.665548 650.757333,274.665548 C649.765333,274.680516 648.861333,274.399871 648.045333,273.823613 C647.229333,273.247355 646.685333,272.510194 646.413333,271.612129 L646.413333,271.612129 L656.901333,269.838452 C656.901333,269.71871 656.893333,269.621419 656.877333,269.546581 C656.701333,268.109677 656.029333,266.904774 654.861333,265.931871 C653.693333,264.958968 652.325333,264.465032 650.757333,264.450065 C649.029333,264.465032 647.565333,265.033806 646.365333,266.156387 C645.165333,267.278968 644.565333,268.648516 644.565333,270.265032 C644.565333,270.848774 644.645333,271.387613 644.805333,271.881548 C645.205333,273.093935 645.961333,274.08929 647.073333,274.867613 C648.185333,275.645935 649.413333,276.035097 650.757333,276.035097 Z M646.173333,270.399742 C646.173333,270.324903 646.169333,270.231355 646.161333,270.119097 C646.153333,270.006839 646.149333,269.928258 646.149333,269.883355 C646.213333,268.775742 646.673333,267.82529 647.529333,267.032 C648.385333,266.23871 649.413333,265.834581 650.613333,265.819613 C651.637333,265.804645 652.565333,266.08529 653.397333,266.661548 C654.229333,267.237806 654.797333,267.982452 655.101333,268.895484 L655.101333,268.895484 L646.173333,270.399742 Z M659.799999,277.045419 L661.215999,273.475613 L659.583999,273.475613 L658.503999,277.045419 L659.799999,277.045419 Z M680.621333,275.967742 L680.621333,274.485935 L673.277333,274.485935 L673.277333,260.880258 L671.693333,260.880258 L671.693333,275.967742 L680.621333,275.967742 Z M688.583999,276.147355 C690.295999,276.147355 691.751999,275.578581 692.951999,274.441032 C694.167999,273.303484 694.775999,271.941419 694.775999,270.354839 C694.775999,268.75329 694.171999,267.387484 692.963999,266.257419 C691.755999,265.127355 690.295999,264.562323 688.583999,264.562323 C686.871999,264.562323 685.411999,265.127355 684.203999,266.257419 C682.995999,267.387484 682.391999,268.75329 682.391999,270.354839 C682.391999,271.956387 682.995999,273.322194 684.203999,274.452258 C685.411999,275.582323 686.871999,276.147355 688.583999,276.147355 Z M688.607999,274.732903 C687.327999,274.732903 686.239999,274.310065 685.343999,273.464387 C684.447999,272.61871 683.999999,271.582194 683.999999,270.354839 C683.999999,269.127484 684.447999,268.087226 685.343999,267.234065 C686.239999,266.380903 687.327999,265.954323 688.607999,265.954323 C689.903999,265.954323 690.995999,266.380903 691.883999,267.234065 C692.771999,268.087226 693.215999,269.127484 693.215999,270.354839 C693.215999,271.582194 692.771999,272.61871 691.883999,273.464387 C690.995999,274.310065 689.903999,274.732903 688.607999,274.732903 Z M703.386666,276.147355 C705.274666,276.147355 706.834666,275.48129 708.066666,274.149161 L708.066666,274.149161 L708.066666,275.967742 L709.650666,275.967742 L709.650666,264.741935 L708.066666,264.741935 L708.066666,266.560516 C706.850666,265.228387 705.290666,264.562323 703.386666,264.562323 C701.674666,264.562323 700.214666,265.127355 699.006666,266.257419 C697.798666,267.387484 697.194666,268.75329 697.194666,270.354839 C697.194666,271.956387 697.798666,273.322194 699.006666,274.452258 C700.214666,275.582323 701.674666,276.147355 703.386666,276.147355 Z M703.410666,274.732903 C702.130666,274.732903 701.038666,274.310065 700.134666,273.464387 C699.230666,272.61871 698.778666,271.582194 698.778666,270.354839 C698.778666,269.127484 699.230666,268.090968 700.134666,267.24529 C701.038666,266.399613 702.130666,265.976774 703.410666,265.976774 C704.706666,265.976774 705.798666,266.399613 706.686666,267.24529 C707.574666,268.090968 708.018666,269.127484 708.018666,270.354839 C708.018666,271.582194 707.574666,272.61871 706.686666,273.464387 C705.798666,274.310065 704.706666,274.732903 703.410666,274.732903 Z M718.957333,276.147355 C720.845333,276.147355 722.405333,275.48129 723.637333,274.149161 L723.637333,274.149161 L723.637333,275.967742 L725.221333,275.967742 L725.221333,259.263742 L723.637333,259.263742 L723.637333,266.560516 C722.421333,265.228387 720.861333,264.562323 718.957333,264.562323 C717.245333,264.562323 715.785333,265.127355 714.577333,266.257419 C713.369333,267.387484 712.765333,268.75329 712.765333,270.354839 C712.765333,271.956387 713.369333,273.322194 714.577333,274.452258 C715.785333,275.582323 717.245333,276.147355 718.957333,276.147355 Z M718.981333,274.732903 C717.685333,274.732903 716.589333,274.313806 715.693333,273.475613 C714.797333,272.622452 714.349333,271.582194 714.349333,270.354839 C714.349333,269.127484 714.797333,268.090968 715.693333,267.24529 C716.589333,266.399613 717.685333,265.976774 718.981333,265.976774 C720.277333,265.976774 721.369333,266.399613 722.257333,267.24529 C723.145333,268.090968 723.589333,269.127484 723.589333,270.354839 C723.589333,271.582194 723.145333,272.61871 722.257333,273.464387 C721.369333,274.310065 720.277333,274.732903 718.981333,274.732903 Z M729.824,277.045419 L731.24,273.475613 L729.608,273.475613 L728.528,277.045419 L729.824,277.045419 Z M747.285333,276.147355 C749.173333,276.147355 750.733333,275.48129 751.965333,274.149161 L751.965333,274.149161 L751.965333,275.967742 L753.549333,275.967742 L753.549333,264.741935 L751.965333,264.741935 L751.965333,266.560516 C750.749333,265.228387 749.189333,264.562323 747.285333,264.562323 C745.573333,264.562323 744.113333,265.127355 742.905333,266.257419 C741.697333,267.387484 741.093333,268.75329 741.093333,270.354839 C741.093333,271.956387 741.697333,273.322194 742.905333,274.452258 C744.113333,275.582323 745.573333,276.147355 747.285333,276.147355 Z M747.309333,274.732903 C746.029333,274.732903 744.937333,274.310065 744.033333,273.464387 C743.129333,272.61871 742.677333,271.582194 742.677333,270.354839 C742.677333,269.127484 743.129333,268.090968 744.033333,267.24529 C744.937333,266.399613 746.029333,265.976774 747.309333,265.976774 C748.605333,265.976774 749.697333,266.399613 750.585333,267.24529 C751.473333,268.090968 751.917333,269.127484 751.917333,270.354839 C751.917333,271.582194 751.473333,272.61871 750.585333,273.464387 C749.697333,274.310065 748.605333,274.732903 747.309333,274.732903 Z M759.04,275.967742 L759.04,269.389419 C759.04,268.431484 759.388,267.615742 760.084,266.942194 C760.78,266.268645 761.624,265.931871 762.616,265.931871 C763.608,265.931871 764.452,266.268645 765.148,266.942194 C765.844,267.615742 766.192,268.431484 766.192,269.389419 L766.192,269.389419 L766.192,275.967742 L767.8,275.967742 L767.8,269.344516 C767.8,267.997419 767.328,266.863613 766.384,265.943097 C765.44,265.022581 764.272,264.562323 762.88,264.562323 C761.296,264.562323 760.016,265.176 759.04,266.403355 L759.04,266.403355 L759.04,264.741935 L757.456,264.741935 L757.456,275.967742 L759.04,275.967742 Z M776.914666,276.147355 C778.802666,276.147355 780.362666,275.48129 781.594666,274.149161 L781.594666,274.149161 L781.594666,275.967742 L783.178666,275.967742 L783.178666,259.263742 L781.594666,259.263742 L781.594666,266.560516 C780.378666,265.228387 778.818666,264.562323 776.914666,264.562323 C775.202666,264.562323 773.742666,265.127355 772.534666,266.257419 C771.326666,267.387484 770.722666,268.75329 770.722666,270.354839 C770.722666,271.956387 771.326666,273.322194 772.534666,274.452258 C773.742666,275.582323 775.202666,276.147355 776.914666,276.147355 Z M776.938666,274.732903 C775.642666,274.732903 774.546666,274.313806 773.650666,273.475613 C772.754666,272.622452 772.306666,271.582194 772.306666,270.354839 C772.306666,269.127484 772.754666,268.090968 773.650666,267.24529 C774.546666,266.399613 775.642666,265.976774 776.938666,265.976774 C778.234666,265.976774 779.326666,266.399613 780.214666,267.24529 C781.102666,268.090968 781.546666,269.127484 781.546666,270.354839 C781.546666,271.582194 781.102666,272.61871 780.214666,273.464387 C779.326666,274.310065 778.234666,274.732903 776.938666,274.732903 Z M801.696,276.147355 C803.072,276.147355 804.284,275.862968 805.332,275.294194 C806.38,274.725419 807.2,273.939613 807.792,272.936774 L807.792,272.936774 L807.792,275.967742 L809.232,275.967742 L809.232,268.154581 L802.344,268.154581 L802.344,269.479226 L807.576,269.479226 C807.384,271.005935 806.756,272.266968 805.692,273.262323 C804.628,274.257677 803.296,274.755355 801.696,274.755355 C799.872,274.755355 798.412,274.156645 797.316,272.959226 C796.22,271.761806 795.672,270.257548 795.672,268.446452 C795.672,266.620387 796.22,265.112387 797.316,263.922452 C798.412,262.732516 799.872,262.137548 801.696,262.137548 C802.88,262.137548 803.932,262.421935 804.852,262.99071 C805.772,263.559484 806.48,264.330323 806.976,265.303226 L806.976,265.303226 L808.464,264.494968 C807.84,263.327484 806.944,262.406968 805.776,261.733419 C804.608,261.059871 803.248,260.723097 801.696,260.723097 C799.328,260.723097 797.436,261.460258 796.02,262.934581 C794.604,264.408903 793.896,266.246194 793.896,268.446452 C793.896,270.631742 794.604,272.461548 796.02,273.935871 C797.436,275.410194 799.328,276.147355 801.696,276.147355 Z M814.986666,275.967742 L814.986666,269.389419 C814.986666,268.416516 815.330666,267.597032 816.018666,266.930968 C816.706666,266.264903 817.554666,265.931871 818.562666,265.931871 C819.250666,265.931871 819.930666,266.163871 820.602666,266.627871 L820.602666,266.627871 L821.154666,265.146065 C820.450666,264.756903 819.674666,264.562323 818.826666,264.562323 C817.242666,264.562323 815.962666,265.176 814.986666,266.403355 L814.986666,266.403355 L814.986666,264.741935 L813.402666,264.741935 L813.402666,275.967742 L814.986666,275.967742 Z M828.469333,276.147355 C830.181333,276.147355 831.637333,275.578581 832.837333,274.441032 C834.053333,273.303484 834.661333,271.941419 834.661333,270.354839 C834.661333,268.75329 834.057333,267.387484 832.849333,266.257419 C831.641333,265.127355 830.181333,264.562323 828.469333,264.562323 C826.757333,264.562323 825.297333,265.127355 824.089333,266.257419 C822.881333,267.387484 822.277333,268.75329 822.277333,270.354839 C822.277333,271.956387 822.881333,273.322194 824.089333,274.452258 C825.297333,275.582323 826.757333,276.147355 828.469333,276.147355 Z M828.493333,274.732903 C827.213333,274.732903 826.125333,274.310065 825.229333,273.464387 C824.333333,272.61871 823.885333,271.582194 823.885333,270.354839 C823.885333,269.127484 824.333333,268.087226 825.229333,267.234065 C826.125333,266.380903 827.213333,265.954323 828.493333,265.954323 C829.789333,265.954323 830.881333,266.380903 831.769333,267.234065 C832.657333,268.087226 833.101333,269.127484 833.101333,270.354839 C833.101333,271.582194 832.657333,272.61871 831.769333,273.464387 C830.881333,274.310065 829.789333,274.732903 828.493333,274.732903 Z M842.48,276.147355 C844.064,276.147355 845.344,275.533677 846.32,274.306323 L846.32,274.306323 L846.32,275.967742 L847.904,275.967742 L847.904,264.741935 L846.32,264.741935 L846.32,271.320258 C846.32,272.278194 845.976,273.090194 845.288,273.756258 C844.6,274.422323 843.752,274.755355 842.744,274.755355 C841.752,274.755355 840.912,274.422323 840.224,273.756258 C839.536,273.090194 839.192,272.278194 839.192,271.320258 L839.192,271.320258 L839.192,264.741935 L837.56,264.741935 L837.56,271.365161 C837.56,272.712258 838.032,273.846065 838.976,274.766581 C839.92,275.687097 841.088,276.147355 842.48,276.147355 Z M853.442667,275.967742 L853.442667,269.389419 C853.442667,268.431484 853.790667,267.615742 854.486667,266.942194 C855.182667,266.268645 856.026667,265.931871 857.018667,265.931871 C858.010667,265.931871 858.854667,266.268645 859.550667,266.942194 C860.246667,267.615742 860.594667,268.431484 860.594667,269.389419 L860.594667,269.389419 L860.594667,275.967742 L862.202667,275.967742 L862.202667,269.344516 C862.202667,267.997419 861.730667,266.863613 860.786667,265.943097 C859.842667,265.022581 858.674667,264.562323 857.282667,264.562323 C855.698667,264.562323 854.418667,265.176 853.442667,266.403355 L853.442667,266.403355 L853.442667,264.741935 L851.858667,264.741935 L851.858667,275.967742 L853.442667,275.967742 Z M871.317333,276.147355 C873.205333,276.147355 874.765333,275.48129 875.997333,274.149161 L875.997333,274.149161 L875.997333,275.967742 L877.581333,275.967742 L877.581333,259.263742 L875.997333,259.263742 L875.997333,266.560516 C874.781333,265.228387 873.221333,264.562323 871.317333,264.562323 C869.605333,264.562323 868.145333,265.127355 866.937333,266.257419 C865.729333,267.387484 865.125333,268.75329 865.125333,270.354839 C865.125333,271.956387 865.729333,273.322194 866.937333,274.452258 C868.145333,275.582323 869.605333,276.147355 871.317333,276.147355 Z M871.341333,274.732903 C870.045333,274.732903 868.949333,274.313806 868.053333,273.475613 C867.157333,272.622452 866.709333,271.582194 866.709333,270.354839 C866.709333,269.127484 867.157333,268.090968 868.053333,267.24529 C868.949333,266.399613 870.045333,265.976774 871.341333,265.976774 C872.637333,265.976774 873.729333,266.399613 874.617333,267.24529 C875.505333,268.090968 875.949333,269.127484 875.949333,270.354839 C875.949333,271.582194 875.505333,272.61871 874.617333,273.464387 C873.729333,274.310065 872.637333,274.732903 871.341333,274.732903 Z" id="Source,Load,andGround" fill="#23ABE3" fill-rule="nonzero"></path>
        </g>
        <g transform="translate(120.000000, 33.000000)">
            <g id="Battery" transform="translate(237.000000, 2.000000)">
                <path d="M0.5,11.8185741 L0.5,161.052908 C0.5,165.200591 13.7152079,168.871482 29.9468668,168.871482 C46.1785258,168.871482 59.3937336,165.200591 59.3937336,161.052908 L59.3937336,11.8185741 L0.5,11.8185741 Z" id="Combined-Shape" stroke="#23ABE3" fill="#EEEEEE"></path>
                <ellipse id="Oval" stroke="#23ABE3" fill="#EEEEEE" cx="29.9468668" cy="11.3185741" rx="29.4468668" ry="7.81857412"></ellipse>
                <path d="M20.4645779,3.5 L20.4645779,9.65485929 C20.4645779,9.9889054 21.3713385,10.5248611 23.0095904,10.9344241 C24.826757,11.3887157 27.3018196,11.6504315 29.9468668,11.6504315 C32.5919141,11.6504315 35.0669767,11.3887157 36.8841432,10.9344241 C38.5223952,10.5248611 39.4291558,9.9889054 39.4291558,9.65485929 L39.4291558,3.5 L20.4645779,3.5 Z" id="Combined-Shape" stroke="#979797" fill="#F8E71C"></path>
                <ellipse id="Oval-2" stroke="#979797" fill="#F8E71C" cx="29.9468668" cy="3" rx="9.48228894" ry="1.99557223"></ellipse>
                <text id="+" font-family="Lato-Regular, Lato" font-size="24" font-weight="normal" letter-spacing="0.926733" fill="#555555">
                    <tspan x="4.55892244" y="41">+</tspan>
                </text>
                <text id="-" font-family="Lato-Regular, Lato" font-size="24" font-weight="normal" letter-spacing="0.926733" fill="#555555">
                    <tspan x="6.73349279" y="162">-</tspan>
                </text>
            </g>
            <path d="M112.624,28.408 C112.72,27.96 112.952,27.584 113.32,27.28 C113.48,27.312 113.76,27.428 114.16,27.628 C114.56,27.828 115.008,28.008 115.504,28.168 C116,28.328 116.52,28.408 117.064,28.408 C118.344,28.408 119.428,28.008 120.316,27.208 C121.204,26.408 121.648,25.368 121.648,24.088 C121.648,22.504 120.808,21.288 119.128,20.44 L119.128,20.44 L116.848,19.264 C115.744,18.688 114.98,18.196 114.556,17.788 C114.132,17.38 113.92,16.88 113.92,16.288 C113.92,15.68 114.14,15.172 114.58,14.764 C115.02,14.356 115.576,14.152 116.248,14.152 C118.456,14.152 119.68,15.552 119.92,18.352 L119.92,18.352 L120.424,18.352 L120.424,13.072 L119.944,13.072 C119.848,13.504 119.616,13.872 119.248,14.176 C118.352,13.52 117.376,13.192 116.32,13.192 C115.168,13.192 114.216,13.536 113.464,14.224 C112.712,14.912 112.336,15.76 112.336,16.768 C112.336,17.632 112.592,18.408 113.104,19.096 C113.616,19.784 114.248,20.328 115,20.728 L115,20.728 L117.304,21.904 C119.144,22.864 120.064,23.832 120.064,24.808 C120.064,25.576 119.78,26.208 119.212,26.704 C118.644,27.2 117.928,27.448 117.064,27.448 C116.472,27.448 115.932,27.368 115.444,27.208 C114.956,27.048 114.564,26.848 114.268,26.608 C113.972,26.368 113.712,26.08 113.488,25.744 C113.264,25.408 113.1,25.104 112.996,24.832 C112.892,24.56 112.812,24.276 112.756,23.98 C112.7,23.684 112.668,23.484 112.66,23.38 C112.652,23.276 112.648,23.192 112.648,23.128 L112.648,23.128 L112.144,23.128 L112.144,28.408 L112.624,28.408 Z M128.824,28.408 C130.152,28.408 131.292,27.976 132.244,27.112 C133.196,26.248 133.672,25.208 133.672,23.992 C133.672,22.776 133.192,21.744 132.232,20.896 C131.288,20.032 130.152,19.6 128.824,19.6 C127.496,19.6 126.356,20.028 125.404,20.884 C124.452,21.74 123.976,22.776 123.976,23.992 C123.976,25.208 124.452,26.248 125.404,27.112 C126.356,27.976 127.496,28.408 128.824,28.408 Z M128.824,27.472 C127.88,27.472 127.16,27.144 126.664,26.488 C126.168,25.832 125.92,25 125.92,23.992 C125.92,22.984 126.168,22.152 126.664,21.496 C127.16,20.84 127.88,20.512 128.824,20.512 C129.768,20.512 130.488,20.836 130.984,21.484 C131.48,22.132 131.728,22.968 131.728,23.992 C131.728,25.016 131.48,25.856 130.984,26.512 C130.488,27.152 129.768,27.472 128.824,27.472 Z M143.68,28.408 L146.896,27.808 L146.896,27.304 C146.08,27.304 145.556,27.136 145.324,26.8 C145.092,26.464 144.976,25.696 144.976,24.496 L144.976,24.496 L144.976,20.008 L141.376,20.008 L141.376,20.488 C142.192,20.488 142.716,20.656 142.948,20.992 C143.18,21.328 143.296,22.096 143.296,23.296 L143.296,23.296 L143.296,24.88 C143.296,25.552 143,26.116 142.408,26.572 C141.816,27.028 141.248,27.256 140.704,27.256 C139.488,27.256 138.88,26.4 138.88,24.688 L138.88,24.688 L138.88,20.008 L135.28,20.008 L135.28,20.488 C136.08,20.488 136.596,20.656 136.828,20.992 C137.06,21.328 137.176,22.096 137.176,23.296 L137.176,23.296 L137.176,24.808 C137.176,27.208 138.168,28.408 140.152,28.408 C141.256,28.408 142.304,27.896 143.296,26.872 C143.424,27.64 143.552,28.152 143.68,28.408 L143.68,28.408 Z M153.76,28 L153.76,27.496 C152.96,27.496 152.444,27.328 152.212,26.992 C151.98,26.656 151.864,25.888 151.864,24.688 L151.864,24.688 L151.864,23.368 C151.864,22.52 152.08,21.84 152.512,21.328 C152.944,20.816 153.344,20.56 153.712,20.56 C154.224,20.56 154.48,20.824 154.48,21.352 C154.48,21.576 154.564,21.776 154.732,21.952 C154.9,22.128 155.096,22.216 155.32,22.216 C155.96,22.216 156.28,21.84 156.28,21.088 C156.28,20.736 156.116,20.4 155.788,20.08 C155.46,19.76 154.992,19.6 154.384,19.6 C153.904,19.6 153.424,19.768 152.944,20.104 C152.464,20.44 152.104,20.848 151.864,21.328 C151.736,20.48 151.6,19.904 151.456,19.6 L151.456,19.6 L148.264,20.2 L148.264,20.704 C149.064,20.704 149.58,20.872 149.812,21.208 C150.044,21.544 150.16,22.304 150.16,23.488 L150.16,23.488 L150.16,24.688 C150.16,25.888 150.044,26.656 149.812,26.992 C149.58,27.328 149.064,27.496 148.264,27.496 L148.264,27.496 L148.264,28 L153.76,28 Z M162.184,28.408 C163.592,28.408 164.784,27.88 165.76,26.824 L165.76,26.824 L165.352,26.296 C164.568,27.032 163.712,27.4 162.784,27.4 C161.824,27.4 161.1,27.116 160.612,26.548 C160.124,25.98 159.88,25.2 159.88,24.208 C159.88,23.12 160.104,22.208 160.552,21.472 C161,20.736 161.544,20.368 162.184,20.368 C162.76,20.368 163.048,20.712 163.048,21.4 C163.048,21.672 163.14,21.9 163.324,22.084 C163.508,22.268 163.728,22.36 163.984,22.36 C164.352,22.36 164.62,22.252 164.788,22.036 C164.956,21.82 165.04,21.584 165.04,21.328 C165.04,20.848 164.8,20.44 164.32,20.104 C163.84,19.768 163.128,19.6 162.184,19.6 C161.144,19.6 160.176,20.036 159.28,20.908 C158.384,21.78 157.936,22.88 157.936,24.208 C157.936,25.44 158.316,26.448 159.076,27.232 C159.836,28.016 160.872,28.408 162.184,28.408 Z M171.808,28.408 C172.48,28.408 173.152,28.26 173.824,27.964 C174.496,27.668 175.048,27.288 175.48,26.824 L175.48,26.824 L175.048,26.296 C174.712,26.616 174.288,26.88 173.776,27.088 C173.264,27.296 172.808,27.4 172.408,27.4 C171.224,27.4 170.372,27.028 169.852,26.284 C169.332,25.54 169.144,24.576 169.288,23.392 L169.288,23.392 L175.072,23.392 C175.36,22.384 175.16,21.5 174.472,20.74 C173.784,19.98 172.896,19.6 171.808,19.6 C170.656,19.6 169.628,20.024 168.724,20.872 C167.82,21.72 167.368,22.76 167.368,23.992 C167.368,25.224 167.784,26.268 168.616,27.124 C169.448,27.98 170.512,28.408 171.808,28.408 Z M173.416,22.504 L169.432,22.504 C169.608,21.912 169.9,21.44 170.308,21.088 C170.716,20.736 171.176,20.56 171.688,20.56 C172.408,20.56 172.916,20.772 173.212,21.196 C173.508,21.62 173.576,22.056 173.416,22.504 L173.416,22.504 Z" id="Source" fill="#524740" fill-rule="nonzero"></path>
            <path d="M9.264,169.408 C10.08,169.408 11.1,169.2 12.324,168.784 C13.548,168.368 14.608,168.16 15.504,168.16 L15.504,168.16 L15.504,166.336 C15.504,165.136 15.636,164.368 15.9,164.032 C16.164,163.696 16.792,163.528 17.784,163.528 L17.784,163.528 L17.784,163.048 L11.496,163.048 L11.496,163.528 C12.296,163.528 12.872,163.656 13.224,163.912 C13.576,164.168 13.752,164.56 13.752,165.088 C13.752,166.112 13.368,166.916 12.6,167.5 C11.832,168.084 10.896,168.376 9.792,168.376 C8.944,168.376 8.18,168.24 7.5,167.968 C6.82,167.696 6.272,167.348 5.856,166.924 C5.44,166.5 5.096,165.992 4.824,165.4 C4.552,164.808 4.364,164.22 4.26,163.636 C4.156,163.052 4.104,162.44 4.104,161.8 C4.104,161.016 4.2,160.248 4.392,159.496 C4.584,158.744 4.876,158.032 5.268,157.36 C5.66,156.688 6.208,156.148 6.912,155.74 C7.616,155.332 8.424,155.128 9.336,155.128 C10.664,155.128 11.784,155.572 12.696,156.46 C13.608,157.348 14.224,158.576 14.544,160.144 L14.544,160.144 L15.024,160.144 L15.024,154.864 L14.544,154.864 C14.432,155.44 14.16,155.896 13.728,156.232 C12.448,154.872 10.96,154.192 9.264,154.192 C7.232,154.192 5.496,154.936 4.056,156.424 C2.616,157.912 1.896,159.704 1.896,161.8 C1.896,163.896 2.616,165.688 4.056,167.176 C5.496,168.664 7.232,169.408 9.264,169.408 Z M24,169 L24,168.496 C23.2,168.496 22.684,168.328 22.452,167.992 C22.22,167.656 22.104,166.888 22.104,165.688 L22.104,165.688 L22.104,164.368 C22.104,163.52 22.32,162.84 22.752,162.328 C23.184,161.816 23.584,161.56 23.952,161.56 C24.464,161.56 24.72,161.824 24.72,162.352 C24.72,162.576 24.804,162.776 24.972,162.952 C25.14,163.128 25.336,163.216 25.56,163.216 C26.2,163.216 26.52,162.84 26.52,162.088 C26.52,161.736 26.356,161.4 26.028,161.08 C25.7,160.76 25.232,160.6 24.624,160.6 C24.144,160.6 23.664,160.768 23.184,161.104 C22.704,161.44 22.344,161.848 22.104,162.328 C21.976,161.48 21.84,160.904 21.696,160.6 L21.696,160.6 L18.504,161.2 L18.504,161.704 C19.304,161.704 19.82,161.872 20.052,162.208 C20.284,162.544 20.4,163.304 20.4,164.488 L20.4,164.488 L20.4,165.688 C20.4,166.888 20.284,167.656 20.052,167.992 C19.82,168.328 19.304,168.496 18.504,168.496 L18.504,168.496 L18.504,169 L24,169 Z M33.024,169.408 C34.352,169.408 35.492,168.976 36.444,168.112 C37.396,167.248 37.872,166.208 37.872,164.992 C37.872,163.776 37.392,162.744 36.432,161.896 C35.488,161.032 34.352,160.6 33.024,160.6 C31.696,160.6 30.556,161.028 29.604,161.884 C28.652,162.74 28.176,163.776 28.176,164.992 C28.176,166.208 28.652,167.248 29.604,168.112 C30.556,168.976 31.696,169.408 33.024,169.408 Z M33.024,168.472 C32.08,168.472 31.36,168.144 30.864,167.488 C30.368,166.832 30.12,166 30.12,164.992 C30.12,163.984 30.368,163.152 30.864,162.496 C31.36,161.84 32.08,161.512 33.024,161.512 C33.968,161.512 34.688,161.836 35.184,162.484 C35.68,163.132 35.928,163.968 35.928,164.992 C35.928,166.016 35.68,166.856 35.184,167.512 C34.688,168.152 33.968,168.472 33.024,168.472 Z M47.88,169.408 L51.096,168.808 L51.096,168.304 C50.28,168.304 49.756,168.136 49.524,167.8 C49.292,167.464 49.176,166.696 49.176,165.496 L49.176,165.496 L49.176,161.008 L45.576,161.008 L45.576,161.488 C46.392,161.488 46.916,161.656 47.148,161.992 C47.38,162.328 47.496,163.096 47.496,164.296 L47.496,164.296 L47.496,165.88 C47.496,166.552 47.2,167.116 46.608,167.572 C46.016,168.028 45.448,168.256 44.904,168.256 C43.688,168.256 43.08,167.4 43.08,165.688 L43.08,165.688 L43.08,161.008 L39.48,161.008 L39.48,161.488 C40.28,161.488 40.796,161.656 41.028,161.992 C41.26,162.328 41.376,163.096 41.376,164.296 L41.376,164.296 L41.376,165.808 C41.376,168.208 42.368,169.408 44.352,169.408 C45.456,169.408 46.504,168.896 47.496,167.872 C47.624,168.64 47.752,169.152 47.88,169.408 L47.88,169.408 Z M57.744,169 L57.744,168.496 C57.008,168.496 56.544,168.336 56.352,168.016 C56.16,167.696 56.064,166.92 56.064,165.688 L56.064,165.688 L56.064,164.128 C56.064,163.488 56.352,162.928 56.928,162.448 C57.504,161.968 58.136,161.728 58.824,161.728 C60.152,161.728 60.816,162.584 60.816,164.296 L60.816,164.296 L60.816,165.688 C60.816,166.872 60.696,167.636 60.456,167.98 C60.216,168.324 59.704,168.496 58.92,168.496 L58.92,168.496 L58.92,169 L64.416,169 L64.416,168.496 C63.616,168.496 63.1,168.328 62.868,167.992 C62.636,167.656 62.52,166.888 62.52,165.688 L62.52,165.688 L62.52,164.176 C62.52,163.104 62.26,162.24 61.74,161.584 C61.22,160.928 60.44,160.6 59.4,160.6 C58.088,160.6 56.976,161.176 56.064,162.328 C55.936,161.48 55.8,160.904 55.656,160.6 L55.656,160.6 L52.464,161.2 L52.464,161.704 C53.264,161.704 53.78,161.872 54.012,162.208 C54.244,162.544 54.36,163.304 54.36,164.488 L54.36,164.488 L54.36,165.688 C54.36,166.888 54.244,167.656 54.012,167.992 C53.78,168.328 53.264,168.496 52.464,168.496 L52.464,168.496 L52.464,169 L57.744,169 Z M73.536,169.408 L76.728,168.808 L76.728,168.304 C75.928,168.304 75.412,168.136 75.18,167.8 C74.948,167.464 74.832,166.696 74.832,165.496 L74.832,165.496 L74.832,154.192 L71.232,154.792 L71.232,155.296 C72.032,155.296 72.548,155.464 72.78,155.8 C73.012,156.136 73.128,156.904 73.128,158.104 L73.128,158.104 L73.128,162.016 C72.36,161.072 71.384,160.6 70.2,160.6 C69.064,160.6 68.084,161.028 67.26,161.884 C66.436,162.74 66.024,163.776 66.024,164.992 C66.024,166.208 66.436,167.248 67.26,168.112 C68.084,168.976 69.064,169.408 70.2,169.408 C71.384,169.408 72.368,168.92 73.152,167.944 C73.296,168.68 73.424,169.168 73.536,169.408 L73.536,169.408 Z M70.704,168.448 C69.808,168.448 69.128,168.128 68.664,167.488 C68.2,166.848 67.968,166.016 67.968,164.992 C67.968,163.984 68.2,163.16 68.664,162.52 C69.128,161.88 69.808,161.56 70.704,161.56 C71.232,161.56 71.712,161.732 72.144,162.076 C72.576,162.42 72.904,162.88 73.128,163.456 L73.128,163.456 L73.128,166.552 C72.904,167.128 72.576,167.588 72.144,167.932 C71.712,168.276 71.232,168.448 70.704,168.448 Z M78.384,169.432 L85.296,154.504 L84.336,154.168 L77.424,169.096 L78.384,169.432 Z M94.608,169.408 C96.272,169.408 97.76,168.728 99.072,167.368 C99.488,167.656 99.76,168.112 99.888,168.736 L99.888,168.736 L100.368,168.736 L100.368,163.456 L99.888,163.456 C99.552,165.008 98.932,166.228 98.028,167.116 C97.124,168.004 96.016,168.448 94.704,168.448 C93.792,168.448 92.984,168.244 92.28,167.836 C91.576,167.428 91.028,166.892 90.636,166.228 C90.244,165.564 89.952,164.856 89.76,164.104 C89.568,163.352 89.472,162.584 89.472,161.8 C89.472,161.016 89.568,160.248 89.76,159.496 C89.952,158.744 90.244,158.032 90.636,157.36 C91.028,156.688 91.576,156.148 92.28,155.74 C92.984,155.332 93.792,155.128 94.704,155.128 C96.016,155.128 97.124,155.568 98.028,156.448 C98.932,157.328 99.552,158.56 99.888,160.144 L99.888,160.144 L100.368,160.144 L100.368,154.864 L99.888,154.864 C99.776,155.44 99.504,155.896 99.072,156.232 C97.792,154.872 96.304,154.192 94.608,154.192 C92.576,154.192 90.84,154.936 89.4,156.424 C87.96,157.912 87.24,159.704 87.24,161.8 C87.24,163.896 87.96,165.688 89.4,167.176 C90.84,168.664 92.576,169.408 94.608,169.408 Z M108.144,169.408 C109.472,169.408 110.612,168.976 111.564,168.112 C112.516,167.248 112.992,166.208 112.992,164.992 C112.992,163.776 112.512,162.744 111.552,161.896 C110.608,161.032 109.472,160.6 108.144,160.6 C106.816,160.6 105.676,161.028 104.724,161.884 C103.772,162.74 103.296,163.776 103.296,164.992 C103.296,166.208 103.772,167.248 104.724,168.112 C105.676,168.976 106.816,169.408 108.144,169.408 Z M108.144,168.472 C107.2,168.472 106.48,168.144 105.984,167.488 C105.488,166.832 105.24,166 105.24,164.992 C105.24,163.984 105.488,163.152 105.984,162.496 C106.48,161.84 107.2,161.512 108.144,161.512 C109.088,161.512 109.808,161.836 110.304,162.484 C110.8,163.132 111.048,163.968 111.048,164.992 C111.048,166.016 110.8,166.856 110.304,167.512 C109.808,168.152 109.088,168.472 108.144,168.472 Z M120.144,169 L120.144,168.496 C119.488,168.496 119.076,168.34 118.908,168.028 C118.74,167.716 118.656,166.936 118.656,165.688 L118.656,165.688 L118.656,164.128 C118.656,163.456 118.944,162.888 119.52,162.424 C120.096,161.96 120.632,161.728 121.128,161.728 C122.28,161.728 122.856,162.584 122.856,164.296 L122.856,164.296 L122.856,165.688 C122.856,166.952 122.772,167.736 122.604,168.04 C122.436,168.344 122.016,168.496 121.344,168.496 L121.344,168.496 L121.344,169 L126.048,169 L126.048,168.496 C125.376,168.496 124.956,168.344 124.788,168.04 C124.62,167.736 124.536,166.952 124.536,165.688 L124.536,165.688 L124.536,164.128 C124.536,163.456 124.828,162.888 125.412,162.424 C125.996,161.96 126.536,161.728 127.032,161.728 C128.168,161.728 128.736,162.584 128.736,164.296 L128.736,164.296 L128.736,165.688 C128.736,166.952 128.656,167.736 128.496,168.04 C128.336,168.344 127.92,168.496 127.248,168.496 L127.248,168.496 L127.248,169 L132.336,169 L132.336,168.496 C131.536,168.496 131.02,168.328 130.788,167.992 C130.556,167.656 130.44,166.888 130.44,165.688 L130.44,165.688 L130.44,164.176 C130.44,161.792 129.52,160.6 127.68,160.6 C127.024,160.6 126.38,160.788 125.748,161.164 C125.116,161.54 124.64,161.952 124.32,162.4 C123.952,161.2 123.104,160.6 121.776,160.6 C120.608,160.6 119.568,161.176 118.656,162.328 C118.528,161.48 118.392,160.904 118.248,160.6 L118.248,160.6 L115.056,161.2 L115.056,161.704 C115.856,161.704 116.372,161.872 116.604,162.208 C116.836,162.544 116.952,163.304 116.952,164.488 L116.952,164.488 L116.952,165.688 C116.952,166.888 116.836,167.656 116.604,167.992 C116.372,168.328 115.856,168.496 115.056,168.496 L115.056,168.496 L115.056,169 L120.144,169 Z M138.816,169 L138.816,168.496 C138.16,168.496 137.748,168.34 137.58,168.028 C137.412,167.716 137.328,166.936 137.328,165.688 L137.328,165.688 L137.328,164.128 C137.328,163.456 137.616,162.888 138.192,162.424 C138.768,161.96 139.304,161.728 139.8,161.728 C140.952,161.728 141.528,162.584 141.528,164.296 L141.528,164.296 L141.528,165.688 C141.528,166.952 141.444,167.736 141.276,168.04 C141.108,168.344 140.688,168.496 140.016,168.496 L140.016,168.496 L140.016,169 L144.72,169 L144.72,168.496 C144.048,168.496 143.628,168.344 143.46,168.04 C143.292,167.736 143.208,166.952 143.208,165.688 L143.208,165.688 L143.208,164.128 C143.208,163.456 143.5,162.888 144.084,162.424 C144.668,161.96 145.208,161.728 145.704,161.728 C146.84,161.728 147.408,162.584 147.408,164.296 L147.408,164.296 L147.408,165.688 C147.408,166.952 147.328,167.736 147.168,168.04 C147.008,168.344 146.592,168.496 145.92,168.496 L145.92,168.496 L145.92,169 L151.008,169 L151.008,168.496 C150.208,168.496 149.692,168.328 149.46,167.992 C149.228,167.656 149.112,166.888 149.112,165.688 L149.112,165.688 L149.112,164.176 C149.112,161.792 148.192,160.6 146.352,160.6 C145.696,160.6 145.052,160.788 144.42,161.164 C143.788,161.54 143.312,161.952 142.992,162.4 C142.624,161.2 141.776,160.6 140.448,160.6 C139.28,160.6 138.24,161.176 137.328,162.328 C137.2,161.48 137.064,160.904 136.92,160.6 L136.92,160.6 L133.728,161.2 L133.728,161.704 C134.528,161.704 135.044,161.872 135.276,162.208 C135.508,162.544 135.624,163.304 135.624,164.488 L135.624,164.488 L135.624,165.688 C135.624,166.888 135.508,167.656 135.276,167.992 C135.044,168.328 134.528,168.496 133.728,168.496 L133.728,168.496 L133.728,169 L138.816,169 Z M157.488,169.408 C158.816,169.408 159.956,168.976 160.908,168.112 C161.86,167.248 162.336,166.208 162.336,164.992 C162.336,163.776 161.856,162.744 160.896,161.896 C159.952,161.032 158.816,160.6 157.488,160.6 C156.16,160.6 155.02,161.028 154.068,161.884 C153.116,162.74 152.64,163.776 152.64,164.992 C152.64,166.208 153.116,167.248 154.068,168.112 C155.02,168.976 156.16,169.408 157.488,169.408 Z M157.488,168.472 C156.544,168.472 155.824,168.144 155.328,167.488 C154.832,166.832 154.584,166 154.584,164.992 C154.584,163.984 154.832,163.152 155.328,162.496 C155.824,161.84 156.544,161.512 157.488,161.512 C158.432,161.512 159.152,161.836 159.648,162.484 C160.144,163.132 160.392,163.968 160.392,164.992 C160.392,166.016 160.144,166.856 159.648,167.512 C159.152,168.152 158.432,168.472 157.488,168.472 Z M169.68,169 L169.68,168.496 C168.944,168.496 168.48,168.336 168.288,168.016 C168.096,167.696 168,166.92 168,165.688 L168,165.688 L168,164.128 C168,163.488 168.288,162.928 168.864,162.448 C169.44,161.968 170.072,161.728 170.76,161.728 C172.088,161.728 172.752,162.584 172.752,164.296 L172.752,164.296 L172.752,165.688 C172.752,166.872 172.632,167.636 172.392,167.98 C172.152,168.324 171.64,168.496 170.856,168.496 L170.856,168.496 L170.856,169 L176.352,169 L176.352,168.496 C175.552,168.496 175.036,168.328 174.804,167.992 C174.572,167.656 174.456,166.888 174.456,165.688 L174.456,165.688 L174.456,164.176 C174.456,163.104 174.196,162.24 173.676,161.584 C173.156,160.928 172.376,160.6 171.336,160.6 C170.024,160.6 168.912,161.176 168,162.328 C167.872,161.48 167.736,160.904 167.592,160.6 L167.592,160.6 L164.4,161.2 L164.4,161.704 C165.2,161.704 165.716,161.872 165.948,162.208 C166.18,162.544 166.296,163.304 166.296,164.488 L166.296,164.488 L166.296,165.688 C166.296,166.888 166.18,167.656 165.948,167.992 C165.716,168.328 165.2,168.496 164.4,168.496 L164.4,168.496 L164.4,169 L169.68,169 Z" id="Ground/Common" fill="#524740" fill-rule="nonzero"></path>
            <line x1="448.5" y1="121" x2="504" y2="92" id="Line-7" stroke="#B09679" stroke-width="2" stroke-linecap="square"></line>
            <line x1="184" y1="21" x2="254" y2="7" id="Line-7-Copy-6" stroke="#B09679" stroke-width="2" stroke-linecap="square"></line>
            <line x1="191" y1="165" x2="267" y2="172" id="Line-7-Copy-7" stroke="#B09679" stroke-width="2" stroke-linecap="square"></line>
            <path id="Line-8" d="M266.5,19 L276,38 L268,38 L268,166 L265,166 L265,38 L257,38 L266.5,19 Z" fill="#B09679" fill-rule="nonzero"></path>
            <path id="Line-8-Copy-2" d="M313.5,171 L313.5,179 L441.5,179 L441.5,182 L313.5,182 L313.5,190 L294.5,180.5 L313.5,171 Z" fill="#B09679" fill-rule="nonzero"></path>
            <path id="Line-8-Copy-3" d="M429.5,-9 L448.5,0.5 L429.5,10 L429.5,2 L301.5,2 L301.5,-1 L429.5,-1 L429.5,-9 Z" fill="#B09679" fill-rule="nonzero"></path>
            <g id="Potential" transform="translate(511.000000, 81.000000)" fill="#524740" fill-rule="nonzero">
                <path d="M14.072,17 L14.264,13.808 L13.76,13.808 L13.64,14.288 C13.464,14.992 13.216,15.472 12.896,15.728 C12.576,15.984 11.904,16.112 10.88,16.112 L10.88,16.112 L8,16.112 C7.008,16.112 6.38,15.948 6.116,15.62 C5.852,15.292 5.72,14.528 5.72,13.328 L5.72,13.328 L5.72,5.888 C5.72,4.688 5.852,3.924 6.116,3.596 C6.38,3.268 7.008,3.104 8,3.104 L8,3.104 L8,2.6 L1.52,2.6 L1.52,3.104 C2.512,3.104 3.14,3.268 3.404,3.596 C3.668,3.924 3.8,4.688 3.8,5.888 L3.8,5.888 L3.8,13.688 C3.8,14.888 3.668,15.656 3.404,15.992 C3.14,16.328 2.512,16.496 1.52,16.496 L1.52,16.496 L1.52,17 L14.072,17 Z M20.408,17.408 C21.736,17.408 22.876,16.976 23.828,16.112 C24.78,15.248 25.256,14.208 25.256,12.992 C25.256,11.776 24.776,10.744 23.816,9.896 C22.872,9.032 21.736,8.6 20.408,8.6 C19.08,8.6 17.94,9.028 16.988,9.884 C16.036,10.74 15.56,11.776 15.56,12.992 C15.56,14.208 16.036,15.248 16.988,16.112 C17.94,16.976 19.08,17.408 20.408,17.408 Z M20.408,16.472 C19.464,16.472 18.744,16.144 18.248,15.488 C17.752,14.832 17.504,14 17.504,12.992 C17.504,11.984 17.752,11.152 18.248,10.496 C18.744,9.84 19.464,9.512 20.408,9.512 C21.352,9.512 22.072,9.836 22.568,10.484 C23.064,11.132 23.312,11.968 23.312,12.992 C23.312,14.016 23.064,14.856 22.568,15.512 C22.072,16.152 21.352,16.472 20.408,16.472 Z M29.48,17.312 C30.408,17.312 31.408,16.832 32.48,15.872 C32.608,16.8 33.152,17.264 34.112,17.264 C34.704,17.264 35.232,17.016 35.696,16.52 L35.696,16.52 L35.36,16.064 C35.12,16.304 34.896,16.424 34.688,16.424 C34.32,16.424 34.136,16.112 34.136,15.488 L34.136,15.488 L34.136,11.864 C34.136,10.712 33.88,9.88 33.368,9.368 C32.856,8.856 32.016,8.6 30.848,8.6 C30.048,8.6 29.34,8.78 28.724,9.14 C28.108,9.5 27.8,9.96 27.8,10.52 C27.8,10.76 27.88,10.96 28.04,11.12 C28.2,11.28 28.4,11.36 28.64,11.36 C28.864,11.36 29.056,11.28 29.216,11.12 C29.376,10.96 29.456,10.76 29.456,10.52 C29.456,10.168 29.604,9.888 29.9,9.68 C30.196,9.472 30.504,9.368 30.824,9.368 C31.48,9.368 31.912,9.552 32.12,9.92 C32.328,10.288 32.432,10.944 32.432,11.888 C29.024,12.48 27.32,13.616 27.32,15.296 C27.32,15.92 27.528,16.412 27.944,16.772 C28.36,17.132 28.872,17.312 29.48,17.312 Z M30.248,16.232 C29.928,16.232 29.66,16.12 29.444,15.896 C29.228,15.672 29.12,15.376 29.12,15.008 C29.12,13.936 30.224,13.144 32.432,12.632 L32.432,12.632 L32.432,15.08 C31.568,15.848 30.84,16.232 30.248,16.232 Z M44.744,17.408 L47.936,16.808 L47.936,16.304 C47.136,16.304 46.62,16.136 46.388,15.8 C46.156,15.464 46.04,14.696 46.04,13.496 L46.04,13.496 L46.04,2.192 L42.44,2.792 L42.44,3.296 C43.24,3.296 43.756,3.464 43.988,3.8 C44.22,4.136 44.336,4.904 44.336,6.104 L44.336,6.104 L44.336,10.016 C43.568,9.072 42.592,8.6 41.408,8.6 C40.272,8.6 39.292,9.028 38.468,9.884 C37.644,10.74 37.232,11.776 37.232,12.992 C37.232,14.208 37.644,15.248 38.468,16.112 C39.292,16.976 40.272,17.408 41.408,17.408 C42.592,17.408 43.576,16.92 44.36,15.944 C44.504,16.68 44.632,17.168 44.744,17.408 L44.744,17.408 Z M41.912,16.448 C41.016,16.448 40.336,16.128 39.872,15.488 C39.408,14.848 39.176,14.016 39.176,12.992 C39.176,11.984 39.408,11.16 39.872,10.52 C40.336,9.88 41.016,9.56 41.912,9.56 C42.44,9.56 42.92,9.732 43.352,10.076 C43.784,10.42 44.112,10.88 44.336,11.456 L44.336,11.456 L44.336,14.552 C44.112,15.128 43.784,15.588 43.352,15.932 C42.92,16.276 42.44,16.448 41.912,16.448 Z" id="Load"></path>
            </g>
            <g id="Charge-Carriers" transform="translate(278.000000, 14.000000)" fill="#23ABE3">
                <circle id="Oval-3-Copy-14" cx="18.5" cy="5.5" r="5.5"></circle>
                <circle id="Oval-3-Copy" cx="5.5" cy="5.5" r="5.5"></circle>
                <circle id="Oval-3-Copy-16" cx="44.5" cy="5.5" r="5.5"></circle>
                <circle id="Oval-3-Copy-15" cx="31.5" cy="5.5" r="5.5"></circle>
                <circle id="Oval-3-Copy-20" cx="70.5" cy="5.5" r="5.5"></circle>
                <circle id="Oval-3-Copy-19" cx="57.5" cy="5.5" r="5.5"></circle>
                <circle id="Oval-3-Copy-18" cx="96.5" cy="5.5" r="5.5"></circle>
                <circle id="Oval-3-Copy-17" cx="83.5" cy="5.5" r="5.5"></circle>
                <circle id="Oval-3-Copy-29" cx="109.5" cy="5.5" r="5.5"></circle>
                <circle id="Oval-3-Copy-28" cx="135.5" cy="5.5" r="5.5"></circle>
                <circle id="Oval-3-Copy-27" cx="122.5" cy="5.5" r="5.5"></circle>
                <circle id="Oval-3-Copy-26" cx="161.5" cy="5.5" r="5.5"></circle>
                <circle id="Oval-3-Copy-25" cx="148.5" cy="5.5" r="5.5"></circle>
                <circle id="Oval-3-Copy-24" cx="187.5" cy="5.5" r="5.5"></circle>
                <circle id="Oval-3-Copy-23" cx="174.5" cy="5.5" r="5.5"></circle>
                <circle id="Oval-3-Copy-40" cx="70.5" cy="148.5" r="5.5"></circle>
                <circle id="Oval-3-Copy-39" cx="57.5" cy="148.5" r="5.5"></circle>
                <circle id="Oval-3-Copy-38" cx="96.5" cy="148.5" r="5.5"></circle>
                <circle id="Oval-3-Copy-37" cx="83.5" cy="148.5" r="5.5"></circle>
                <circle id="Oval-3-Copy-36" cx="109.5" cy="148.5" r="5.5"></circle>
                <circle id="Oval-3-Copy-35" cx="135.5" cy="148.5" r="5.5"></circle>
                <circle id="Oval-3-Copy-34" cx="122.5" cy="148.5" r="5.5"></circle>
                <circle id="Oval-3-Copy-33" cx="161.5" cy="148.5" r="5.5"></circle>
                <circle id="Oval-3-Copy-32" cx="148.5" cy="148.5" r="5.5"></circle>
                <circle id="Oval-3-Copy-30" cx="174.5" cy="145.5" r="5.5"></circle>
                <circle id="Oval-3-Copy-2" cx="5.5" cy="18.5" r="5.5"></circle>
                <circle id="Oval-3-Copy-5" cx="5.5" cy="31.5" r="5.5"></circle>
                <circle id="Oval-3-Copy-4" cx="5.5" cy="44.5" r="5.5"></circle>
                <circle id="Oval-3-Copy-3" cx="5.5" cy="57.5" r="5.5"></circle>
                <circle id="Oval-3-Copy-11" cx="5.5" cy="70.5" r="5.5"></circle>
                <circle id="Oval-3-Copy-10" cx="5.5" cy="83.5" r="5.5"></circle>
                <circle id="Oval-3-Copy-9" cx="5.5" cy="96.5" r="5.5"></circle>
                <circle id="Oval-3-Copy-8" cx="5.5" cy="109.5" r="5.5"></circle>
                <circle id="Oval-3-Copy-7" cx="5.5" cy="122.5" r="5.5"></circle>
                <circle id="Oval-3-Copy-6" cx="5.5" cy="135.5" r="5.5"></circle>
                <circle id="Oval-3-Copy-50" cx="187.5" cy="18.5" r="5.5"></circle>
                <circle id="Oval-3-Copy-49" cx="187.5" cy="31.5" r="5.5"></circle>
                <circle id="Oval-3-Copy-48" cx="187.5" cy="44.5" r="5.5"></circle>
                <circle id="Oval-3-Copy-47" cx="187.5" cy="57.5" r="5.5"></circle>
                <circle id="Oval-3-Copy-46" cx="187.5" cy="70.5" r="5.5"></circle>
                <circle id="Oval-3-Copy-45" cx="187.5" cy="83.5" r="5.5"></circle>
                <circle id="Oval-3-Copy-44" cx="187.5" cy="96.5" r="5.5"></circle>
                <circle id="Oval-3-Copy-43" cx="187.5" cy="109.5" r="5.5"></circle>
                <circle id="Oval-3-Copy-42" cx="187.5" cy="122.5" r="5.5"></circle>
                <circle id="Oval-3-Copy-41" cx="184.5" cy="135.5" r="5.5"></circle>
                <circle id="Oval-3-Copy-13" cx="5.5" cy="148.5" r="5.5"></circle>
                <circle id="Oval-3-Copy-12" cx="18.5" cy="148.5" r="5.5"></circle>
                <circle id="Oval-3-Copy-22" cx="31.5" cy="148.5" r="5.5"></circle>
                <circle id="Oval-3-Copy-21" cx="44.5" cy="148.5" r="5.5"></circle>
            </g>
            <g id="Water-Wheel" transform="translate(395.000000, 92.000000)">
                <line x1="40" y1="0.5" x2="40" y2="78.5" id="Line-5" stroke="#B09679" stroke-width="4" stroke-linecap="square"></line>
                <line x1="40" y1="0.5" x2="40" y2="78.5" id="Line-5-Copy" stroke="#B09679" stroke-width="4" stroke-linecap="square" transform="translate(40.000000, 39.500000) rotate(-270.000000) translate(-40.000000, -39.500000) "></line>
                <line x1="40" y1="0.5" x2="40" y2="78.5" id="Line-5-Copy-2" stroke="#B09679" stroke-width="4" stroke-linecap="square" transform="translate(40.000000, 39.500000) rotate(-225.000000) translate(-40.000000, -39.500000) "></line>
                <line x1="11.9228355" y1="67.0771645" x2="67.0771645" y2="11.9228355" id="Line-5-Copy-3" stroke="#B09679" stroke-width="4" stroke-linecap="square"></line>
                <circle id="Oval-Copy-2" stroke="#555555" stroke-width="2" cx="39.5" cy="39.5" r="38.5"></circle>
                <circle id="Oval" fill="#B09679" cx="39.5" cy="39.5" r="22.5"></circle>
                <circle id="Oval-Copy" fill="#555555" cx="39.5" cy="39.5" r="7.5"></circle>
            </g>
        </g>
    </g>
</svg>