<?xml version="1.0" encoding="UTF-8"?>
<svg width="900px" height="380px" viewBox="0 0 900 380" version="1.1" xmlns="http://www.w3.org/2000/svg" xmlns:xlink="http://www.w3.org/1999/xlink">
    <!-- Generator: Sketch 60.1 (88133) - https://sketch.com -->
    <title>Water_Tower_Relative_Voltages</title>
    <desc>Created with Sketch.</desc>
    <g id="Water_Tower_Relative_Voltages" stroke="none" stroke-width="1" fill="none" fill-rule="evenodd">
        <g id="Illustration_Frame">
            <rect id="Rectangle" stroke="#3D3530" stroke-width="2" fill="#EEEEEE" x="1" y="1" width="898" height="378"></rect>
            <rect id="Rectangle-Copy" stroke="#3D3530" stroke-width="2" fill="#F8FAE4" x="1" y="336" width="898" height="43"></rect>
            <path d="M691.517333,365 L691.517333,358.904 L695.261333,358.904 L696.245333,358.856 L699.677333,365 L701.333333,365 L697.733333,358.52 C698.869333,358.168 699.753333,357.576 700.385333,356.744 C701.017333,355.912 701.333333,354.96 701.333333,353.888 C701.333333,352.448 700.797333,351.252 699.725333,350.3 C698.653333,349.348 697.213333,348.872 695.405333,348.872 L695.405333,348.872 L689.933333,348.872 L689.933333,365 L691.517333,365 Z M695.405333,357.392 L691.517333,357.392 L691.517333,350.384 L695.405333,350.384 C696.701333,350.384 697.741333,350.72 698.525333,351.392 C699.309333,352.064 699.701333,352.896 699.701333,353.888 C699.701333,354.896 699.309333,355.732 698.525333,356.396 C697.741333,357.06 696.701333,357.392 695.405333,357.392 L695.405333,357.392 Z M709.775999,365.072 C711.247999,365.088 712.516,364.672 713.579999,363.824 C714.643999,362.976 715.359999,362.048 715.727999,361.04 L715.727999,361.04 L714.383999,360.56 C714.079999,361.376 713.503999,362.088 712.656,362.696 C711.807999,363.304 710.847999,363.608 709.775999,363.608 C708.783999,363.624 707.879999,363.324 707.063999,362.708 C706.247999,362.092 705.704,361.304 705.431999,360.344 L705.431999,360.344 L715.919999,358.448 C715.919999,358.32 715.911999,358.216 715.895999,358.136 C715.719999,356.6 715.047999,355.312 713.879999,354.272 C712.711999,353.232 711.343999,352.704 709.775999,352.688 C708.047999,352.704 706.584,353.312 705.383999,354.512 C704.184,355.712 703.584,357.176 703.584,358.904 C703.584,359.528 703.663999,360.104 703.823999,360.632 C704.223999,361.928 704.979999,362.992 706.091999,363.824 C707.203999,364.656 708.431999,365.072 709.775999,365.072 Z M705.191999,359.048 C705.191999,358.968 705.187999,358.868 705.179999,358.748 C705.171999,358.628 705.167999,358.544 705.167999,358.496 C705.231999,357.312 705.691999,356.296 706.547999,355.448 C707.403999,354.6 708.431999,354.168 709.631999,354.152 C710.655999,354.136 711.584,354.436 712.415999,355.052 C713.247999,355.668 713.815999,356.464 714.119999,357.44 L714.119999,357.44 L705.191999,359.048 Z M721.002666,365 L721.002666,347.144 L719.418666,347.144 L719.418666,365 L721.002666,365 Z M730.429333,365.192 C732.317333,365.192 733.877333,364.48 735.109333,363.056 L735.109333,363.056 L735.109333,365 L736.693333,365 L736.693333,353 L735.109333,353 L735.109333,354.944 C733.893333,353.52 732.333333,352.808 730.429333,352.808 C728.717333,352.808 727.257333,353.412 726.049333,354.62 C724.841333,355.828 724.237333,357.288 724.237333,359 C724.237333,360.712 724.841333,362.172 726.049333,363.38 C727.257333,364.588 728.717333,365.192 730.429333,365.192 Z M730.453333,363.68 C729.173333,363.68 728.081333,363.228 727.177333,362.324 C726.273333,361.42 725.821333,360.312 725.821333,359 C725.821333,357.688 726.273333,356.58 727.177333,355.676 C728.081333,354.772 729.173333,354.32 730.453333,354.32 C731.749333,354.32 732.841333,354.772 733.729333,355.676 C734.617333,356.58 735.061333,357.688 735.061333,359 C735.061333,360.312 734.617333,361.42 733.729333,362.324 C732.841333,363.228 731.749333,363.68 730.453333,363.68 Z M744.776,365.192 C745.368,365.192 745.944,365.036 746.504,364.724 C747.064,364.412 747.424,364.168 747.584,363.992 C747.744,363.816 747.872,363.664 747.968,363.536 L747.968,363.536 L747.176,362.312 C747.176,362.376 747.092,362.516 746.924,362.732 C746.756,362.948 746.496,363.168 746.144,363.392 C745.792,363.616 745.432,363.728 745.064,363.728 C744.472,363.728 743.948,363.512 743.492,363.08 C743.036,362.648 742.808,362.064 742.808,361.328 L742.808,361.328 L742.808,354.44 L746.432,354.44 L746.432,352.976 L742.808,352.976 L742.808,348.992 L741.224,349.184 L741.224,352.976 L739.304,352.976 L739.304,354.44 L741.224,354.44 L741.224,361.688 C741.224,362.824 741.564,363.692 742.244,364.292 C742.924,364.892 743.768,365.192 744.776,365.192 Z M751.730666,349.688 C752.002666,349.688 752.226666,349.592 752.402666,349.4 C752.594666,349.208 752.690666,348.984 752.690666,348.728 C752.690666,348.472 752.598666,348.248 752.414666,348.056 C752.230666,347.864 752.002666,347.768 751.730666,347.768 C751.458666,347.768 751.230666,347.864 751.046666,348.056 C750.862666,348.248 750.770666,348.472 750.770666,348.728 C750.770666,348.984 750.862666,349.208 751.046666,349.4 C751.230666,349.592 751.458666,349.688 751.730666,349.688 Z M752.522666,365 L752.522666,353 L750.938666,353 L750.938666,365 L752.522666,365 Z M761.613333,365 L765.861333,353 L764.277333,353 L760.821333,362.768 L757.389333,353 L755.805333,353 L760.029333,365 L761.613333,365 Z M773.536,365.072 C775.008,365.088 776.276,364.672 777.34,363.824 C778.404,362.976 779.12,362.048 779.488,361.04 L779.488,361.04 L778.144,360.56 C777.84,361.376 777.264,362.088 776.416,362.696 C775.568,363.304 774.608,363.608 773.536,363.608 C772.544,363.624 771.64,363.324 770.824,362.708 C770.008,362.092 769.464,361.304 769.192,360.344 L769.192,360.344 L779.68,358.448 C779.68,358.32 779.672,358.216 779.656,358.136 C779.48,356.6 778.808,355.312 777.64,354.272 C776.472,353.232 775.104,352.704 773.536,352.688 C771.808,352.704 770.344,353.312 769.144,354.512 C767.944,355.712 767.344,357.176 767.344,358.904 C767.344,359.528 767.424,360.104 767.584,360.632 C767.984,361.928 768.74,362.992 769.852,363.824 C770.964,364.656 772.192,365.072 773.536,365.072 Z M768.952,359.048 C768.952,358.968 768.948,358.868 768.94,358.748 C768.932,358.628 768.928,358.544 768.928,358.496 C768.992,357.312 769.452,356.296 770.308,355.448 C771.164,354.6 772.192,354.168 773.392,354.152 C774.416,354.136 775.344,354.436 776.176,355.052 C777.008,355.668 777.576,356.464 777.88,357.44 L777.88,357.44 L768.952,359.048 Z M797.549333,365 L803.909333,348.872 L802.301333,348.872 L796.757333,362.96 L791.189333,348.872 L789.557333,348.872 L795.941333,365 L797.549333,365 Z M810.24,365.192 C811.952,365.192 813.408,364.584 814.608,363.368 C815.824,362.152 816.432,360.696 816.432,359 C816.432,357.288 815.828,355.828 814.62,354.62 C813.412,353.412 811.952,352.808 810.24,352.808 C808.528,352.808 807.068,353.412 805.86,354.62 C804.652,355.828 804.048,357.288 804.048,359 C804.048,360.712 804.652,362.172 805.86,363.38 C807.068,364.588 808.528,365.192 810.24,365.192 Z M810.264,363.68 C808.984,363.68 807.896,363.228 807,362.324 C806.104,361.42 805.656,360.312 805.656,359 C805.656,357.688 806.104,356.576 807,355.664 C807.896,354.752 808.984,354.296 810.264,354.296 C811.56,354.296 812.652,354.752 813.54,355.664 C814.428,356.576 814.872,357.688 814.872,359 C814.872,360.312 814.428,361.42 813.54,362.324 C812.652,363.228 811.56,363.68 810.264,363.68 Z M821.298666,365 L821.298666,347.144 L819.714667,347.144 L819.714667,365 L821.298666,365 Z M829.717333,365.192 C830.309333,365.192 830.885333,365.036 831.445333,364.724 C832.005333,364.412 832.365333,364.168 832.525333,363.992 C832.685333,363.816 832.813333,363.664 832.909333,363.536 L832.909333,363.536 L832.117333,362.312 C832.117333,362.376 832.033333,362.516 831.865333,362.732 C831.697333,362.948 831.437333,363.168 831.085333,363.392 C830.733333,363.616 830.373333,363.728 830.005333,363.728 C829.413333,363.728 828.889333,363.512 828.433333,363.08 C827.977333,362.648 827.749333,362.064 827.749333,361.328 L827.749333,361.328 L827.749333,354.44 L831.373333,354.44 L831.373333,352.976 L827.749333,352.976 L827.749333,348.992 L826.165333,349.184 L826.165333,352.976 L824.245333,352.976 L824.245333,354.44 L826.165333,354.44 L826.165333,361.688 C826.165333,362.824 826.505333,363.692 827.185333,364.292 C827.865333,364.892 828.709333,365.192 829.717333,365.192 Z M840.56,365.192 C842.448,365.192 844.008,364.48 845.24,363.056 L845.24,363.056 L845.24,365 L846.824,365 L846.824,353 L845.24,353 L845.24,354.944 C844.024,353.52 842.464,352.808 840.56,352.808 C838.848,352.808 837.388,353.412 836.18,354.62 C834.972,355.828 834.368,357.288 834.368,359 C834.368,360.712 834.972,362.172 836.18,363.38 C837.388,364.588 838.848,365.192 840.56,365.192 Z M840.584,363.68 C839.304,363.68 838.212,363.228 837.308,362.324 C836.404,361.42 835.952,360.312 835.952,359 C835.952,357.688 836.404,356.58 837.308,355.676 C838.212,354.772 839.304,354.32 840.584,354.32 C841.88,354.32 842.972,354.772 843.86,355.676 C844.748,356.58 845.192,357.688 845.192,359 C845.192,360.312 844.748,361.42 843.86,362.324 C842.972,363.228 841.88,363.68 840.584,363.68 Z M856.370667,370.112 C858.002667,370.112 859.438667,369.524 860.678667,368.348 C861.918667,367.172 862.546667,365.712 862.562667,363.968 L862.562667,363.968 L862.562667,353.024 L860.954667,353.024 L860.954667,354.968 C859.722667,353.544 858.162667,352.832 856.274667,352.832 C854.562667,352.832 853.102667,353.436 851.894667,354.644 C850.686667,355.852 850.082667,357.312 850.082667,359.024 C850.082667,360.736 850.686667,362.196 851.894667,363.404 C853.102667,364.612 854.562667,365.216 856.274667,365.216 C858.178667,365.216 859.738667,364.504 860.954667,363.08 L860.954667,363.08 L860.954667,363.968 L860.978667,363.968 C860.962667,365.216 860.510667,366.308 859.622667,367.244 C858.734667,368.18 857.650667,368.648 856.370667,368.648 C855.282667,368.648 854.314667,368.344 853.466667,367.736 C852.618667,367.128 852.042667,366.416 851.738667,365.6 L851.738667,365.6 L850.442667,366.248 C850.810667,367.24 851.518667,368.132 852.566667,368.924 C853.614667,369.716 854.882667,370.112 856.370667,370.112 Z M856.298667,363.728 C855.018667,363.728 853.930667,363.276 853.034667,362.372 C852.138667,361.468 851.690667,360.36 851.690667,359.048 C851.690667,357.736 852.138667,356.628 853.034667,355.724 C853.930667,354.82 855.018667,354.368 856.298667,354.368 C857.594667,354.368 858.686667,354.82 859.574667,355.724 C860.462667,356.628 860.906667,357.736 860.906667,359.048 C860.906667,360.36 860.462667,361.468 859.574667,362.372 C858.686667,363.276 857.594667,363.728 856.298667,363.728 Z M872.037333,365.072 C873.509333,365.088 874.777333,364.672 875.841333,363.824 C876.905333,362.976 877.621333,362.048 877.989333,361.04 L877.989333,361.04 L876.645333,360.56 C876.341333,361.376 875.765333,362.088 874.917333,362.696 C874.069333,363.304 873.109333,363.608 872.037333,363.608 C871.045333,363.624 870.141333,363.324 869.325333,362.708 C868.509333,362.092 867.965333,361.304 867.693333,360.344 L867.693333,360.344 L878.181333,358.448 C878.181333,358.32 878.173333,358.216 878.157333,358.136 C877.981333,356.6 877.309333,355.312 876.141333,354.272 C874.973333,353.232 873.605333,352.704 872.037333,352.688 C870.309333,352.704 868.845333,353.312 867.645333,354.512 C866.445333,355.712 865.845333,357.176 865.845333,358.904 C865.845333,359.528 865.925333,360.104 866.085333,360.632 C866.485333,361.928 867.241333,362.992 868.353333,363.824 C869.465333,364.656 870.693333,365.072 872.037333,365.072 Z M867.453333,359.048 C867.453333,358.968 867.449333,358.868 867.441333,358.748 C867.433333,358.628 867.429333,358.544 867.429333,358.496 C867.493333,357.312 867.953333,356.296 868.809333,355.448 C869.665333,354.6 870.693333,354.168 871.893333,354.152 C872.917333,354.136 873.845333,354.436 874.677333,355.052 C875.509333,355.668 876.077333,356.464 876.381333,357.44 L876.381333,357.44 L867.453333,359.048 Z" id="RelativeVoltage" fill="#23ABE3" fill-rule="nonzero"></path>
        </g>
        <g transform="translate(150.000000, 29.000000)">
            <g id="Water-Tower" transform="translate(423.000000, 139.000000)" stroke="#555555">
                <line x1="18.3430493" y1="55.9349776" x2="26.9484305" y2="129.307175" id="Line-Copy-2" stroke-width="6" transform="translate(22.645740, 92.621076) scale(-1, 1) translate(-22.645740, -92.621076) "></line>
                <line x1="48.235426" y1="55.9349776" x2="56.8408072" y2="129.307175" id="Line-Copy-3" stroke-width="6"></line>
                <path d="M40.2623258,72.0605381 L34.0156951,72.0605381 L34.0156951,130.845291 L90.5358744,130.845291 L90.5358744,124.598654 L40.261689,124.598537 L40.2623258,72.0605381 Z" id="Combined-Shape" fill="#23ABE3"></path>
                <line x1="65.8991031" y1="69.5224215" x2="74.5044843" y2="142.894619" id="Line" stroke-width="6"></line>
                <line x1="0.226457399" y1="69.5224215" x2="8.83183857" y2="142.894619" id="Line-Copy" stroke-width="6" transform="translate(4.529148, 106.208520) scale(-1, 1) translate(-4.529148, -106.208520) "></line>
                <path d="M0.905829596,13.9925904 L0.905829596,66.9836218 C9.66218236,71.814713 21.2869955,74.2302585 35.7802691,74.2302585 C50.2735426,74.2302585 63.1061286,71.814713 74.2780269,66.9836218 L74.2780269,13.9925904 C62.0493274,9.79723118 49.8206278,7.69955157 37.5919283,7.69955157 C25.3632287,7.69955157 13.1345291,9.79723118 0.905829596,13.9925904 Z" id="Path-3" fill="#D8D8D8"></path>
                <path d="M0.905829596,25.8161435 L0.905829596,66.6280268 C9.66218236,71.6961813 21.2869955,74.2302585 35.7802691,74.2302585 C50.2735426,74.2302585 63.1061286,71.6961813 74.2780269,66.6280268 L74.2780269,25.8161435 C62.0493274,23.7025411 49.8206278,22.6457399 37.5919283,22.6457399 C25.3632287,22.6457399 13.1345291,23.7025411 0.905829596,25.8161435 Z" id="Path-3-Copy" fill="#23ABE3"></path>
                <path d="M0.905829596,14.0403587 L37.8142682,0 L74.2780269,14.0403587 C67.31948,10.4488859 55.1648938,8.65314952 37.8142682,8.65314952 C20.4636427,8.65314952 8.16082985,10.4488859 0.905829596,14.0403587 Z" id="Path-2" fill="#D8D8D8"></path>
            </g>
            <g id="Water-Tower" transform="translate(93.000000, 0.000000)" stroke="#555555">
                <line x1="18.3430493" y1="55.9349776" x2="26.9484305" y2="129.307175" id="Line-Copy-2" stroke-width="6" transform="translate(22.645740, 92.621076) scale(-1, 1) translate(-22.645740, -92.621076) "></line>
                <line x1="48.235426" y1="55.9349776" x2="56.8408072" y2="129.307175" id="Line-Copy-3" stroke-width="6"></line>
                <path d="M40.2623258,72.0605381 L34.0156951,72.0605381 L34.0156951,130.845291 L90.5358744,130.845291 L90.5358744,124.598654 L40.261689,124.598537 L40.2623258,72.0605381 Z" id="Combined-Shape" fill="#23ABE3"></path>
                <line x1="65.8991031" y1="69.5224215" x2="74.5044843" y2="142.894619" id="Line" stroke-width="6"></line>
                <line x1="0.226457399" y1="69.5224215" x2="8.83183857" y2="142.894619" id="Line-Copy" stroke-width="6" transform="translate(4.529148, 106.208520) scale(-1, 1) translate(-4.529148, -106.208520) "></line>
                <path d="M0.905829596,13.9925904 L0.905829596,66.9836218 C9.66218236,71.814713 21.2869955,74.2302585 35.7802691,74.2302585 C50.2735426,74.2302585 63.1061286,71.814713 74.2780269,66.9836218 L74.2780269,13.9925904 C62.0493274,9.79723118 49.8206278,7.69955157 37.5919283,7.69955157 C25.3632287,7.69955157 13.1345291,9.79723118 0.905829596,13.9925904 Z" id="Path-3" fill="#D8D8D8"></path>
                <path d="M0.905829596,25.8161435 L0.905829596,66.6280268 C9.66218236,71.6961813 21.2869955,74.2302585 35.7802691,74.2302585 C50.2735426,74.2302585 63.1061286,71.6961813 74.2780269,66.6280268 L74.2780269,25.8161435 C62.0493274,23.7025411 49.8206278,22.6457399 37.5919283,22.6457399 C25.3632287,22.6457399 13.1345291,23.7025411 0.905829596,25.8161435 Z" id="Path-3-Copy" fill="#23ABE3"></path>
                <path d="M0.905829596,14.0403587 L37.8142682,0 L74.2780269,14.0403587 C67.31948,10.4488859 55.1648938,8.65314952 37.8142682,8.65314952 C20.4636427,8.65314952 8.16082985,10.4488859 0.905829596,14.0403587 Z" id="Path-2" fill="#D8D8D8"></path>
            </g>
            <g id="Valve" transform="translate(183.130045, 115.946188)" stroke="#555555">
                <rect id="Rectangle-2" fill="#D8D8D8" x="0.5" y="6.38789238" width="9.86995516" height="10.32287"></rect>
                <rect id="Rectangle-3" fill="#B09679" x="4.12331839" y="0.5" width="2.62331839" height="12.1345291"></rect>
            </g>
            <g id="Valve" transform="translate(513.130045, 254.946188)" stroke="#555555">
                <rect id="Rectangle-2" fill="#D8D8D8" x="0.5" y="6.38789238" width="9.86995516" height="10.32287"></rect>
                <rect id="Rectangle-3" fill="#B09679" x="4.12331839" y="0.5" width="2.62331839" height="12.1345291"></rect>
            </g>
            <path d="M0.430812773,2.86153089 C1.10463805,15.6642112 15.9287942,41.6064845 44.9032813,80.6883507 C88.3650118,139.31115 72.1932051,128.193033 94.4294393,140.321888 C116.665674,152.450743 175.288473,140.321888 203.589135,146.386316 C222.456243,150.429267 268.613274,182.099055 342.06023,241.39568 C372.382367,266.327215 405.736719,279.803721 442.123284,281.825197 C496.703132,284.857411 556.336669,273.739293 574.529951,281.825197" id="Path-5" stroke="#B09679" stroke-width="3"></path>
            <g id="Labels" transform="translate(201.000000, 24.000000)">
                <g id="x-Volts">
                    <line x1="69.5" y1="1" x2="0.5" y2="1" id="Line-2" stroke="#B09679" stroke-width="2" stroke-linecap="square"></line>
                    <line x1="69.5" y1="104" x2="0.5" y2="104" id="Line-2-Copy" stroke="#B09679" stroke-width="2" stroke-linecap="square"></line>
                    <line x1="33" y1="1.5" x2="33" y2="30.5" id="Line-3" stroke="#B09679" stroke-width="2" stroke-linecap="square"></line>
                    <line x1="33" y1="74.5" x2="33" y2="103.5" id="Line-3-Copy" stroke="#B09679" stroke-width="2" stroke-linecap="square"></line>
                    <path d="M7.372,61 L7.372,60.496 C6.108,60.496 5.94,60.032 6.868,59.104 L6.868,59.104 L8.068,57.832 L8.98,59.104 C9.332,59.568 9.456,59.916 9.352,60.148 C9.248,60.38 8.884,60.496 8.26,60.496 L8.26,60.496 L8.26,61 L13.3,61 L13.3,60.496 C12.804,60.496 12.392,60.396 12.064,60.196 C11.736,59.996 11.388,59.632 11.02,59.104 L11.02,59.104 L9.22,56.608 L10.852,54.904 C11.748,53.96 12.516,53.488 13.156,53.488 L13.156,53.488 L13.156,53.008 L9.244,53.008 L9.244,53.488 C9.756,53.488 10.076,53.604 10.204,53.836 C10.332,54.068 10.18,54.424 9.748,54.904 L9.748,54.904 L8.74,55.96 L7.972,54.904 C7.556,54.36 7.396,53.988 7.492,53.788 C7.588,53.588 7.98,53.488 8.668,53.488 L8.668,53.488 L8.668,53.008 L3.82,53.008 L3.82,53.488 C4.22,53.488 4.564,53.584 4.852,53.776 C5.14,53.968 5.5,54.344 5.932,54.904 L5.932,54.904 L7.588,57.184 L5.764,59.104 C4.836,60.032 4.14,60.496 3.676,60.496 L3.676,60.496 L3.676,61 L7.372,61 Z M26.452,61.408 L31.732,49.192 C32.132,48.264 32.472,47.684 32.752,47.452 C33.032,47.22 33.644,47.104 34.588,47.104 L34.588,47.104 L34.588,46.6 L28.996,46.6 L28.996,47.104 C29.988,47.104 30.624,47.244 30.904,47.524 C31.184,47.804 31.172,48.272 30.868,48.928 L30.868,48.928 L26.836,58.264 L22.756,48.928 C22.452,48.272 22.44,47.804 22.72,47.524 C23,47.244 23.636,47.104 24.628,47.104 L24.628,47.104 L24.628,46.6 L17.98,46.6 L17.98,47.104 C18.924,47.104 19.536,47.22 19.816,47.452 C20.096,47.684 20.436,48.264 20.836,49.192 L20.836,49.192 L26.14,61.408 L26.452,61.408 Z M39.7,61.408 C41.028,61.408 42.168,60.976 43.12,60.112 C44.072,59.248 44.548,58.208 44.548,56.992 C44.548,55.776 44.068,54.744 43.108,53.896 C42.164,53.032 41.028,52.6 39.7,52.6 C38.372,52.6 37.232,53.028 36.28,53.884 C35.328,54.74 34.852,55.776 34.852,56.992 C34.852,58.208 35.328,59.248 36.28,60.112 C37.232,60.976 38.372,61.408 39.7,61.408 Z M39.7,60.472 C38.756,60.472 38.036,60.144 37.54,59.488 C37.044,58.832 36.796,58 36.796,56.992 C36.796,55.984 37.044,55.152 37.54,54.496 C38.036,53.84 38.756,53.512 39.7,53.512 C40.644,53.512 41.364,53.836 41.86,54.484 C42.356,55.132 42.604,55.968 42.604,56.992 C42.604,58.016 42.356,58.856 41.86,59.512 C41.364,60.152 40.644,60.472 39.7,60.472 Z M51.652,61 L51.652,60.496 C50.852,60.496 50.336,60.328 50.104,59.992 C49.872,59.656 49.756,58.888 49.756,57.688 L49.756,57.688 L49.756,46.192 L46.156,46.792 L46.156,47.296 C46.956,47.296 47.472,47.464 47.704,47.8 C47.936,48.136 48.052,48.904 48.052,50.104 L48.052,50.104 L48.052,57.688 C48.052,58.888 47.936,59.656 47.704,59.992 C47.472,60.328 46.956,60.496 46.156,60.496 L46.156,60.496 L46.156,61 L51.652,61 Z M56.284,61.336 C56.684,61.336 57.12,61.208 57.592,60.952 C58.064,60.696 58.468,60.368 58.804,59.968 L58.804,59.968 L58.396,59.56 C57.82,60.104 57.3,60.376 56.836,60.376 C56.116,60.376 55.756,59.8 55.756,58.648 L55.756,58.648 L55.756,53.848 L57.844,53.848 L57.844,53.008 L55.756,53.008 L55.756,50.368 L54.94,50.368 C54.844,51.2 54.636,51.856 54.316,52.336 C53.996,52.816 53.492,53.128 52.804,53.272 L52.804,53.272 L52.804,53.848 L54.052,53.848 L54.052,58.648 C54.052,59.544 54.252,60.216 54.652,60.664 C55.052,61.112 55.596,61.336 56.284,61.336 Z M60.868,61.408 C60.868,61.088 60.9,60.872 60.964,60.76 C61.028,60.648 61.14,60.62 61.3,60.676 C61.46,60.732 61.632,60.812 61.816,60.916 C62,61.02 62.244,61.128 62.548,61.24 C62.852,61.352 63.148,61.408 63.436,61.408 C64.236,61.408 64.912,61.164 65.464,60.676 C66.016,60.188 66.292,59.56 66.292,58.792 C66.292,57.88 65.74,57.112 64.636,56.488 L64.636,56.488 L63.484,55.864 C62.924,55.56 62.54,55.308 62.332,55.108 C62.124,54.908 62.02,54.672 62.02,54.4 C62.02,54.096 62.124,53.848 62.332,53.656 C62.54,53.464 62.844,53.368 63.244,53.368 C63.82,53.368 64.288,53.572 64.648,53.98 C65.008,54.388 65.188,54.856 65.188,55.384 L65.188,55.384 L65.692,55.384 L65.692,52.6 L65.188,52.6 C65.188,52.92 65.152,53.1 65.08,53.14 C65.008,53.18 64.876,53.144 64.684,53.032 C64.108,52.744 63.548,52.6 63.004,52.6 C62.364,52.6 61.8,52.808 61.312,53.224 C60.824,53.64 60.58,54.16 60.58,54.784 C60.58,55.808 61.108,56.608 62.164,57.184 L62.164,57.184 L63.508,57.904 C64.404,58.384 64.852,58.872 64.852,59.368 C64.852,59.704 64.72,59.992 64.456,60.232 C64.192,60.472 63.868,60.592 63.484,60.592 C62.7,60.592 62.068,60.3 61.588,59.716 C61.108,59.132 60.868,58.528 60.868,57.904 L60.868,57.904 L60.364,57.904 L60.364,61.408 L60.868,61.408 Z" id="xVolts" fill="#524740" fill-rule="nonzero"></path>
                </g>
                <g id="x-Volts-Copy" transform="translate(329.000000, 138.000000)">
                    <line x1="69.5" y1="1" x2="0.5" y2="1" id="Line-2" stroke="#B09679" stroke-width="2" stroke-linecap="square"></line>
                    <line x1="69.5" y1="104" x2="0.5" y2="104" id="Line-2-Copy" stroke="#B09679" stroke-width="2" stroke-linecap="square"></line>
                    <line x1="33" y1="1.5" x2="33" y2="30.5" id="Line-3" stroke="#B09679" stroke-width="2" stroke-linecap="square"></line>
                    <line x1="33" y1="74.5" x2="33" y2="103.5" id="Line-3-Copy" stroke="#B09679" stroke-width="2" stroke-linecap="square"></line>
                    <path d="M7.372,61 L7.372,60.496 C6.108,60.496 5.94,60.032 6.868,59.104 L6.868,59.104 L8.068,57.832 L8.98,59.104 C9.332,59.568 9.456,59.916 9.352,60.148 C9.248,60.38 8.884,60.496 8.26,60.496 L8.26,60.496 L8.26,61 L13.3,61 L13.3,60.496 C12.804,60.496 12.392,60.396 12.064,60.196 C11.736,59.996 11.388,59.632 11.02,59.104 L11.02,59.104 L9.22,56.608 L10.852,54.904 C11.748,53.96 12.516,53.488 13.156,53.488 L13.156,53.488 L13.156,53.008 L9.244,53.008 L9.244,53.488 C9.756,53.488 10.076,53.604 10.204,53.836 C10.332,54.068 10.18,54.424 9.748,54.904 L9.748,54.904 L8.74,55.96 L7.972,54.904 C7.556,54.36 7.396,53.988 7.492,53.788 C7.588,53.588 7.98,53.488 8.668,53.488 L8.668,53.488 L8.668,53.008 L3.82,53.008 L3.82,53.488 C4.22,53.488 4.564,53.584 4.852,53.776 C5.14,53.968 5.5,54.344 5.932,54.904 L5.932,54.904 L7.588,57.184 L5.764,59.104 C4.836,60.032 4.14,60.496 3.676,60.496 L3.676,60.496 L3.676,61 L7.372,61 Z M26.452,61.408 L31.732,49.192 C32.132,48.264 32.472,47.684 32.752,47.452 C33.032,47.22 33.644,47.104 34.588,47.104 L34.588,47.104 L34.588,46.6 L28.996,46.6 L28.996,47.104 C29.988,47.104 30.624,47.244 30.904,47.524 C31.184,47.804 31.172,48.272 30.868,48.928 L30.868,48.928 L26.836,58.264 L22.756,48.928 C22.452,48.272 22.44,47.804 22.72,47.524 C23,47.244 23.636,47.104 24.628,47.104 L24.628,47.104 L24.628,46.6 L17.98,46.6 L17.98,47.104 C18.924,47.104 19.536,47.22 19.816,47.452 C20.096,47.684 20.436,48.264 20.836,49.192 L20.836,49.192 L26.14,61.408 L26.452,61.408 Z M39.7,61.408 C41.028,61.408 42.168,60.976 43.12,60.112 C44.072,59.248 44.548,58.208 44.548,56.992 C44.548,55.776 44.068,54.744 43.108,53.896 C42.164,53.032 41.028,52.6 39.7,52.6 C38.372,52.6 37.232,53.028 36.28,53.884 C35.328,54.74 34.852,55.776 34.852,56.992 C34.852,58.208 35.328,59.248 36.28,60.112 C37.232,60.976 38.372,61.408 39.7,61.408 Z M39.7,60.472 C38.756,60.472 38.036,60.144 37.54,59.488 C37.044,58.832 36.796,58 36.796,56.992 C36.796,55.984 37.044,55.152 37.54,54.496 C38.036,53.84 38.756,53.512 39.7,53.512 C40.644,53.512 41.364,53.836 41.86,54.484 C42.356,55.132 42.604,55.968 42.604,56.992 C42.604,58.016 42.356,58.856 41.86,59.512 C41.364,60.152 40.644,60.472 39.7,60.472 Z M51.652,61 L51.652,60.496 C50.852,60.496 50.336,60.328 50.104,59.992 C49.872,59.656 49.756,58.888 49.756,57.688 L49.756,57.688 L49.756,46.192 L46.156,46.792 L46.156,47.296 C46.956,47.296 47.472,47.464 47.704,47.8 C47.936,48.136 48.052,48.904 48.052,50.104 L48.052,50.104 L48.052,57.688 C48.052,58.888 47.936,59.656 47.704,59.992 C47.472,60.328 46.956,60.496 46.156,60.496 L46.156,60.496 L46.156,61 L51.652,61 Z M56.284,61.336 C56.684,61.336 57.12,61.208 57.592,60.952 C58.064,60.696 58.468,60.368 58.804,59.968 L58.804,59.968 L58.396,59.56 C57.82,60.104 57.3,60.376 56.836,60.376 C56.116,60.376 55.756,59.8 55.756,58.648 L55.756,58.648 L55.756,53.848 L57.844,53.848 L57.844,53.008 L55.756,53.008 L55.756,50.368 L54.94,50.368 C54.844,51.2 54.636,51.856 54.316,52.336 C53.996,52.816 53.492,53.128 52.804,53.272 L52.804,53.272 L52.804,53.848 L54.052,53.848 L54.052,58.648 C54.052,59.544 54.252,60.216 54.652,60.664 C55.052,61.112 55.596,61.336 56.284,61.336 Z M60.868,61.408 C60.868,61.088 60.9,60.872 60.964,60.76 C61.028,60.648 61.14,60.62 61.3,60.676 C61.46,60.732 61.632,60.812 61.816,60.916 C62,61.02 62.244,61.128 62.548,61.24 C62.852,61.352 63.148,61.408 63.436,61.408 C64.236,61.408 64.912,61.164 65.464,60.676 C66.016,60.188 66.292,59.56 66.292,58.792 C66.292,57.88 65.74,57.112 64.636,56.488 L64.636,56.488 L63.484,55.864 C62.924,55.56 62.54,55.308 62.332,55.108 C62.124,54.908 62.02,54.672 62.02,54.4 C62.02,54.096 62.124,53.848 62.332,53.656 C62.54,53.464 62.844,53.368 63.244,53.368 C63.82,53.368 64.288,53.572 64.648,53.98 C65.008,54.388 65.188,54.856 65.188,55.384 L65.188,55.384 L65.692,55.384 L65.692,52.6 L65.188,52.6 C65.188,52.92 65.152,53.1 65.08,53.14 C65.008,53.18 64.876,53.144 64.684,53.032 C64.108,52.744 63.548,52.6 63.004,52.6 C62.364,52.6 61.8,52.808 61.312,53.224 C60.824,53.64 60.58,54.16 60.58,54.784 C60.58,55.808 61.108,56.608 62.164,57.184 L62.164,57.184 L63.508,57.904 C64.404,58.384 64.852,58.872 64.852,59.368 C64.852,59.704 64.72,59.992 64.456,60.232 C64.192,60.472 63.868,60.592 63.484,60.592 C62.7,60.592 62.068,60.3 61.588,59.716 C61.108,59.132 60.868,58.528 60.868,57.904 L60.868,57.904 L60.364,57.904 L60.364,61.408 L60.868,61.408 Z" id="xVolts" fill="#524740" fill-rule="nonzero"></path>
                </g>
            </g>
        </g>
    </g>
</svg>