<?xml version="1.0" encoding="UTF-8"?>
<svg width="900px" height="420px" viewBox="0 0 900 420" version="1.1" xmlns="http://www.w3.org/2000/svg" xmlns:xlink="http://www.w3.org/1999/xlink">
    <!-- Generator: Sketch 60.1 (88133) - https://sketch.com -->
    <title>Water_Tower_as_Electrical_Source</title>
    <desc>Created with Sketch.</desc>
    <g id="Water_Tower_as_Electrical_Source" stroke="none" stroke-width="1" fill="none" fill-rule="evenodd">
        <g id="Illustration_Frame">
            <rect id="Rectangle" stroke="#3D3530" stroke-width="2" fill="#EEEEEE" x="1" y="1" width="898" height="418"></rect>
            <rect id="Rectangle-Copy" stroke="#3D3530" stroke-width="2" fill="#F8FAE4" x="1" y="376" width="898" height="43"></rect>
            <path d="M349.498665,405 L354.274665,391.032 L359.026665,405 L360.658665,405 L366.226665,388.872 L364.594665,388.872 L359.842665,402.552 L354.994665,388.872 L353.530665,388.872 L348.706665,402.552 L343.930665,388.872 L342.298665,388.872 L347.890665,405 L349.498665,405 Z M372.533332,405.192 C374.421332,405.192 375.981332,404.48 377.213332,403.056 L377.213332,403.056 L377.213332,405 L378.797332,405 L378.797332,393 L377.213332,393 L377.213332,394.944 C375.997332,393.52 374.437332,392.808 372.533332,392.808 C370.821332,392.808 369.361332,393.412 368.153332,394.62 C366.945332,395.828 366.341332,397.288 366.341332,399 C366.341332,400.712 366.945332,402.172 368.153332,403.38 C369.361332,404.588 370.821332,405.192 372.533332,405.192 Z M372.557332,403.68 C371.277332,403.68 370.185332,403.228 369.281332,402.324 C368.377332,401.42 367.925332,400.312 367.925332,399 C367.925332,397.688 368.377332,396.58 369.281332,395.676 C370.185332,394.772 371.277332,394.32 372.557332,394.32 C373.853332,394.32 374.945332,394.772 375.833332,395.676 C376.721332,396.58 377.165332,397.688 377.165332,399 C377.165332,400.312 376.721332,401.42 375.833332,402.324 C374.945332,403.228 373.853332,403.68 372.557332,403.68 Z M386.879999,405.192 C387.471999,405.192 388.047999,405.036 388.607999,404.724 C389.167999,404.412 389.527999,404.168 389.687999,403.992 C389.847999,403.816 389.975999,403.664 390.071999,403.536 L390.071999,403.536 L389.279999,402.312 C389.279999,402.376 389.195999,402.516 389.027999,402.732 C388.859999,402.948 388.599999,403.168 388.247999,403.392 C387.895999,403.616 387.535999,403.728 387.167999,403.728 C386.575999,403.728 386.051999,403.512 385.595999,403.08 C385.139999,402.648 384.911999,402.064 384.911999,401.328 L384.911999,401.328 L384.911999,394.44 L388.535999,394.44 L388.535999,392.976 L384.911999,392.976 L384.911999,388.992 L383.327999,389.184 L383.327999,392.976 L381.407999,392.976 L381.407999,394.44 L383.327999,394.44 L383.327999,401.688 C383.327999,402.824 383.667999,403.692 384.347999,404.292 C385.027999,404.892 385.871999,405.192 386.879999,405.192 Z M397.722665,405.072 C399.194665,405.088 400.462665,404.672 401.526665,403.824 C402.590665,402.976 403.306665,402.048 403.674665,401.04 L403.674665,401.04 L402.330665,400.56 C402.026665,401.376 401.450665,402.088 400.602665,402.696 C399.754665,403.304 398.794665,403.608 397.722665,403.608 C396.730665,403.624 395.826665,403.324 395.010665,402.708 C394.194665,402.092 393.650665,401.304 393.378665,400.344 L393.378665,400.344 L403.866665,398.448 C403.866665,398.32 403.858665,398.216 403.842665,398.136 C403.666665,396.6 402.994665,395.312 401.826665,394.272 C400.658665,393.232 399.290665,392.704 397.722665,392.688 C395.994665,392.704 394.530665,393.312 393.330665,394.512 C392.130665,395.712 391.530665,397.176 391.530665,398.904 C391.530665,399.528 391.610665,400.104 391.770665,400.632 C392.170665,401.928 392.926665,402.992 394.038665,403.824 C395.150665,404.656 396.378665,405.072 397.722665,405.072 Z M393.138665,399.048 C393.138665,398.968 393.134665,398.868 393.126665,398.748 C393.118665,398.628 393.114665,398.544 393.114665,398.496 C393.178665,397.312 393.638665,396.296 394.494665,395.448 C395.350665,394.6 396.378665,394.168 397.578665,394.152 C398.602665,394.136 399.530665,394.436 400.362665,395.052 C401.194665,395.668 401.762665,396.464 402.066665,397.44 L402.066665,397.44 L393.138665,399.048 Z M408.373332,405 L408.373332,397.968 C408.373332,396.928 408.717332,396.052 409.405332,395.34 C410.093332,394.628 410.941332,394.272 411.949332,394.272 C412.637332,394.272 413.317332,394.52 413.989332,395.016 L413.989332,395.016 L414.541332,393.432 C413.837332,393.016 413.061332,392.808 412.213332,392.808 C410.629332,392.808 409.349332,393.464 408.373332,394.776 L408.373332,394.776 L408.373332,393 L406.789332,393 L406.789332,405 L408.373332,405 Z M431.210665,405 L431.210665,390.456 L436.946665,390.456 L436.946665,388.872 L423.890665,388.872 L423.890665,390.456 L429.626665,390.456 L429.626665,405 L431.210665,405 Z M441.669332,405.192 C443.381332,405.192 444.837332,404.584 446.037332,403.368 C447.253332,402.152 447.861332,400.696 447.861332,399 C447.861332,397.288 447.257332,395.828 446.049332,394.62 C444.841332,393.412 443.381332,392.808 441.669332,392.808 C439.957332,392.808 438.497332,393.412 437.289332,394.62 C436.081332,395.828 435.477332,397.288 435.477332,399 C435.477332,400.712 436.081332,402.172 437.289332,403.38 C438.497332,404.588 439.957332,405.192 441.669332,405.192 Z M441.693332,403.68 C440.413332,403.68 439.325332,403.228 438.429332,402.324 C437.533332,401.42 437.085332,400.312 437.085332,399 C437.085332,397.688 437.533332,396.576 438.429332,395.664 C439.325332,394.752 440.413332,394.296 441.693332,394.296 C442.989332,394.296 444.081332,394.752 444.969332,395.664 C445.857332,396.576 446.301332,397.688 446.301332,399 C446.301332,400.312 445.857332,401.42 444.969332,402.324 C444.081332,403.228 442.989332,403.68 441.693332,403.68 Z M455.151999,405 L458.535999,395.112 L461.919999,405 L463.503999,405 L467.751999,393 L466.167999,393 L462.711999,402.768 L459.255999,393 L457.815999,393 L454.359999,402.768 L450.927999,393 L449.343999,393 L453.567999,405 L455.151999,405 Z M475.402666,405.072 C476.874666,405.088 478.142666,404.672 479.206666,403.824 C480.270666,402.976 480.986666,402.048 481.354666,401.04 L481.354666,401.04 L480.010666,400.56 C479.706666,401.376 479.130666,402.088 478.282666,402.696 C477.434666,403.304 476.474666,403.608 475.402666,403.608 C474.410666,403.624 473.506666,403.324 472.690666,402.708 C471.874666,402.092 471.330666,401.304 471.058666,400.344 L471.058666,400.344 L481.546666,398.448 C481.546666,398.32 481.538666,398.216 481.522666,398.136 C481.346666,396.6 480.674666,395.312 479.506666,394.272 C478.338666,393.232 476.970666,392.704 475.402666,392.688 C473.674666,392.704 472.210666,393.312 471.010666,394.512 C469.810666,395.712 469.210666,397.176 469.210666,398.904 C469.210666,399.528 469.290666,400.104 469.450666,400.632 C469.850666,401.928 470.606666,402.992 471.718666,403.824 C472.830666,404.656 474.058666,405.072 475.402666,405.072 Z M470.818666,399.048 C470.818666,398.968 470.814666,398.868 470.806666,398.748 C470.798666,398.628 470.794666,398.544 470.794666,398.496 C470.858666,397.312 471.318666,396.296 472.174666,395.448 C473.030666,394.6 474.058666,394.168 475.258666,394.152 C476.282666,394.136 477.210666,394.436 478.042666,395.052 C478.874666,395.668 479.442666,396.464 479.746666,397.44 L479.746666,397.44 L470.818666,399.048 Z M486.053332,405 L486.053332,397.968 C486.053332,396.928 486.397332,396.052 487.085332,395.34 C487.773332,394.628 488.621332,394.272 489.629332,394.272 C490.317332,394.272 490.997332,394.52 491.669332,395.016 L491.669332,395.016 L492.221332,393.432 C491.517332,393.016 490.741332,392.808 489.893332,392.808 C488.309332,392.808 487.029332,393.464 486.053332,394.776 L486.053332,394.776 L486.053332,393 L484.469332,393 L484.469332,405 L486.053332,405 Z M507.762666,405.192 C509.650666,405.192 511.210666,404.48 512.442666,403.056 L512.442666,403.056 L512.442666,405 L514.026666,405 L514.026666,393 L512.442666,393 L512.442666,394.944 C511.226666,393.52 509.666666,392.808 507.762666,392.808 C506.050666,392.808 504.590666,393.412 503.382666,394.62 C502.174666,395.828 501.570666,397.288 501.570666,399 C501.570666,400.712 502.174666,402.172 503.382666,403.38 C504.590666,404.588 506.050666,405.192 507.762666,405.192 Z M507.786666,403.68 C506.506666,403.68 505.414666,403.228 504.510666,402.324 C503.606666,401.42 503.154666,400.312 503.154666,399 C503.154666,397.688 503.606666,396.58 504.510666,395.676 C505.414666,394.772 506.506666,394.32 507.786666,394.32 C509.082666,394.32 510.174666,394.772 511.062666,395.676 C511.950666,396.58 512.394666,397.688 512.394666,399 C512.394666,400.312 511.950666,401.42 511.062666,402.324 C510.174666,403.228 509.082666,403.68 507.786666,403.68 Z M522.133332,405.192 C523.605332,405.192 524.709332,404.88 525.445332,404.256 C526.181332,403.632 526.549332,402.816 526.549332,401.808 C526.549332,401.088 526.285332,400.476 525.757332,399.972 C525.229332,399.468 524.585332,399.084 523.825332,398.82 C523.065332,398.556 522.309332,398.312 521.557332,398.088 C520.805332,397.864 520.165332,397.596 519.637332,397.284 C519.109332,396.972 518.845332,396.6 518.845332,396.168 C518.845332,395.56 519.113332,395.088 519.649332,394.752 C520.185332,394.416 520.885332,394.248 521.749332,394.248 C522.357332,394.248 522.965332,394.384 523.573332,394.656 C524.181332,394.928 524.585332,395.144 524.785332,395.304 C524.985332,395.464 525.141332,395.6 525.253332,395.712 L525.253332,395.712 L526.381332,394.728 L525.877332,394.248 C525.541332,393.928 524.989332,393.608 524.221332,393.288 C523.453332,392.968 522.637332,392.808 521.773332,392.808 C520.317332,392.808 519.217332,393.124 518.473332,393.756 C517.729332,394.388 517.357332,395.2 517.357332,396.192 C517.357332,396.912 517.621332,397.52 518.149332,398.016 C518.677332,398.512 519.321332,398.896 520.081332,399.168 C520.841332,399.44 521.597332,399.688 522.349332,399.912 C523.101332,400.136 523.741332,400.404 524.269332,400.716 C524.797332,401.028 525.061332,401.4 525.061332,401.832 C525.061332,402.44 524.797332,402.912 524.269332,403.248 C523.741332,403.584 523.037332,403.752 522.157332,403.752 C521.565332,403.752 520.965332,403.616 520.357332,403.344 C519.749332,403.072 519.345332,402.856 519.145332,402.696 C518.945332,402.536 518.789332,402.4 518.677332,402.288 L518.677332,402.288 L517.549332,403.248 L517.741332,403.464 C517.869332,403.592 518.069332,403.752 518.341332,403.944 C518.613332,404.136 518.921332,404.324 519.265332,404.508 C519.609332,404.692 520.037332,404.852 520.549332,404.988 C521.061332,405.124 521.589332,405.192 522.133332,405.192 Z M542.690666,405.192 C544.578666,405.192 546.138666,404.48 547.370666,403.056 L547.370666,403.056 L547.370666,405 L548.954666,405 L548.954666,393 L547.370666,393 L547.370666,394.944 C546.154666,393.52 544.594666,392.808 542.690666,392.808 C540.978666,392.808 539.518666,393.412 538.310666,394.62 C537.102666,395.828 536.498666,397.288 536.498666,399 C536.498666,400.712 537.102666,402.172 538.310666,403.38 C539.518666,404.588 540.978666,405.192 542.690666,405.192 Z M542.714666,403.68 C541.434666,403.68 540.342666,403.228 539.438666,402.324 C538.534666,401.42 538.082666,400.312 538.082666,399 C538.082666,397.688 538.534666,396.58 539.438666,395.676 C540.342666,394.772 541.434666,394.32 542.714666,394.32 C544.010666,394.32 545.102666,394.772 545.990666,395.676 C546.878666,396.58 547.322666,397.688 547.322666,399 C547.322666,400.312 546.878666,401.42 545.990666,402.324 C545.102666,403.228 544.010666,403.68 542.714666,403.68 Z M554.445332,405 L554.445332,397.968 C554.445332,396.944 554.793332,396.072 555.489332,395.352 C556.185332,394.632 557.029332,394.272 558.021332,394.272 C559.013332,394.272 559.857332,394.632 560.553332,395.352 C561.249332,396.072 561.597332,396.944 561.597332,397.968 L561.597332,397.968 L561.597332,405 L563.205332,405 L563.205332,397.92 C563.205332,396.48 562.733332,395.268 561.789332,394.284 C560.845332,393.3 559.677332,392.808 558.285332,392.808 C556.701332,392.808 555.421332,393.464 554.445332,394.776 L554.445332,394.776 L554.445332,393 L552.861332,393 L552.861332,405 L554.445332,405 Z M584.938666,405 L584.938666,403.416 L575.938666,403.416 L575.938666,397.584 L581.002666,397.584 L581.002666,396 L575.938666,396 L575.938666,390.456 L584.938666,390.456 L584.938666,388.872 L574.354666,388.872 L574.354666,405 L584.938666,405 Z M590.021333,405 L590.021333,387.144 L588.437333,387.144 L588.437333,405 L590.021333,405 Z M599.447999,405.072 C600.919999,405.088 602.187999,404.672 603.251999,403.824 C604.315999,402.976 605.031999,402.048 605.399999,401.04 L605.399999,401.04 L604.055999,400.56 C603.751999,401.376 603.175999,402.088 602.327999,402.696 C601.479999,403.304 600.519999,403.608 599.447999,403.608 C598.455999,403.624 597.551999,403.324 596.735999,402.708 C595.919999,402.092 595.375999,401.304 595.103999,400.344 L595.103999,400.344 L605.591999,398.448 C605.591999,398.32 605.583999,398.216 605.567999,398.136 C605.391999,396.6 604.719999,395.312 603.551999,394.272 C602.383999,393.232 601.015999,392.704 599.447999,392.688 C597.719999,392.704 596.255999,393.312 595.055999,394.512 C593.855999,395.712 593.255999,397.176 593.255999,398.904 C593.255999,399.528 593.335999,400.104 593.495999,400.632 C593.895999,401.928 594.651999,402.992 595.763999,403.824 C596.875999,404.656 598.103999,405.072 599.447999,405.072 Z M594.863999,399.048 C594.863999,398.968 594.859999,398.868 594.851999,398.748 C594.843999,398.628 594.839999,398.544 594.839999,398.496 C594.903999,397.312 595.363999,396.296 596.219999,395.448 C597.075999,394.6 598.103999,394.168 599.303999,394.152 C600.327999,394.136 601.255999,394.436 602.087999,395.052 C602.919999,395.668 603.487999,396.464 603.791999,397.44 L603.791999,397.44 L594.863999,399.048 Z M614.442666,405.192 C615.530666,405.192 616.542666,404.924 617.478666,404.388 C618.414666,403.852 619.154666,403.136 619.698666,402.24 L619.698666,402.24 L618.258666,401.544 C617.826666,402.2 617.274666,402.72 616.602666,403.104 C615.930666,403.488 615.210666,403.68 614.442666,403.68 C613.146666,403.68 612.054666,403.228 611.166666,402.324 C610.278666,401.42 609.834666,400.312 609.834666,399 C609.834666,397.688 610.278666,396.58 611.166666,395.676 C612.054666,394.772 613.146666,394.32 614.442666,394.32 C615.210666,394.32 615.930666,394.512 616.602666,394.896 C617.274666,395.28 617.826666,395.8 618.258666,396.456 L618.258666,396.456 L619.698666,395.76 C619.154666,394.864 618.414666,394.148 617.478666,393.612 C616.542666,393.076 615.530666,392.808 614.442666,392.808 C612.730666,392.808 611.270666,393.412 610.062666,394.62 C608.854666,395.828 608.250666,397.288 608.250666,399 C608.250666,400.712 608.854666,402.172 610.062666,403.38 C611.270666,404.588 612.730666,405.192 614.442666,405.192 Z M627.493333,405.192 C628.085333,405.192 628.661333,405.036 629.221333,404.724 C629.781333,404.412 630.141333,404.168 630.301333,403.992 C630.461333,403.816 630.589333,403.664 630.685333,403.536 L630.685333,403.536 L629.893333,402.312 C629.893333,402.376 629.809333,402.516 629.641333,402.732 C629.473333,402.948 629.213333,403.168 628.861333,403.392 C628.509333,403.616 628.149333,403.728 627.781333,403.728 C627.189333,403.728 626.665333,403.512 626.209333,403.08 C625.753333,402.648 625.525333,402.064 625.525333,401.328 L625.525333,401.328 L625.525333,394.44 L629.149333,394.44 L629.149333,392.976 L625.525333,392.976 L625.525333,388.992 L623.941333,389.184 L623.941333,392.976 L622.021333,392.976 L622.021333,394.44 L623.941333,394.44 L623.941333,401.688 C623.941333,402.824 624.281333,403.692 624.961333,404.292 C625.641333,404.892 626.485333,405.192 627.493333,405.192 Z M635.383999,405 L635.383999,397.968 C635.383999,396.928 635.727999,396.052 636.415999,395.34 C637.103999,394.628 637.951999,394.272 638.959999,394.272 C639.647999,394.272 640.327999,394.52 640.999999,395.016 L640.999999,395.016 L641.551999,393.432 C640.847999,393.016 640.071999,392.808 639.223999,392.808 C637.639999,392.808 636.359999,393.464 635.383999,394.776 L635.383999,394.776 L635.383999,393 L633.799999,393 L633.799999,405 L635.383999,405 Z M645.314666,389.688 C645.586666,389.688 645.810666,389.592 645.986666,389.4 C646.178666,389.208 646.274666,388.984 646.274666,388.728 C646.274666,388.472 646.182666,388.248 645.998666,388.056 C645.814666,387.864 645.586666,387.768 645.314666,387.768 C645.042666,387.768 644.814666,387.864 644.630666,388.056 C644.446666,388.248 644.354666,388.472 644.354666,388.728 C644.354666,388.984 644.446666,389.208 644.630666,389.4 C644.814666,389.592 645.042666,389.688 645.314666,389.688 Z M646.106666,405 L646.106666,393 L644.522666,393 L644.522666,405 L646.106666,405 Z M655.773333,405.192 C656.861333,405.192 657.873333,404.924 658.809333,404.388 C659.745333,403.852 660.485333,403.136 661.029333,402.24 L661.029333,402.24 L659.589333,401.544 C659.157333,402.2 658.605333,402.72 657.933333,403.104 C657.261333,403.488 656.541333,403.68 655.773333,403.68 C654.477333,403.68 653.385333,403.228 652.497333,402.324 C651.609333,401.42 651.165333,400.312 651.165333,399 C651.165333,397.688 651.609333,396.58 652.497333,395.676 C653.385333,394.772 654.477333,394.32 655.773333,394.32 C656.541333,394.32 657.261333,394.512 657.933333,394.896 C658.605333,395.28 659.157333,395.8 659.589333,396.456 L659.589333,396.456 L661.029333,395.76 C660.485333,394.864 659.745333,394.148 658.809333,393.612 C657.873333,393.076 656.861333,392.808 655.773333,392.808 C654.061333,392.808 652.601333,393.412 651.393333,394.62 C650.185333,395.828 649.581333,397.288 649.581333,399 C649.581333,400.712 650.185333,402.172 651.393333,403.38 C652.601333,404.588 654.061333,405.192 655.773333,405.192 Z M665.535999,389.688 C665.807999,389.688 666.031999,389.592 666.207999,389.4 C666.399999,389.208 666.495999,388.984 666.495999,388.728 C666.495999,388.472 666.403999,388.248 666.219999,388.056 C666.035999,387.864 665.807999,387.768 665.535999,387.768 C665.263999,387.768 665.035999,387.864 664.851999,388.056 C664.667999,388.248 664.575999,388.472 664.575999,388.728 C664.575999,388.984 664.667999,389.208 664.851999,389.4 C665.035999,389.592 665.263999,389.688 665.535999,389.688 Z M666.327999,405 L666.327999,393 L664.743999,393 L664.743999,405 L666.327999,405 Z M675.994666,405.192 C677.882666,405.192 679.442666,404.48 680.674666,403.056 L680.674666,403.056 L680.674666,405 L682.258666,405 L682.258666,393 L680.674666,393 L680.674666,394.944 C679.458666,393.52 677.898666,392.808 675.994666,392.808 C674.282666,392.808 672.822666,393.412 671.614666,394.62 C670.406666,395.828 669.802666,397.288 669.802666,399 C669.802666,400.712 670.406666,402.172 671.614666,403.38 C672.822666,404.588 674.282666,405.192 675.994666,405.192 Z M676.018666,403.68 C674.738666,403.68 673.646666,403.228 672.742666,402.324 C671.838666,401.42 671.386666,400.312 671.386666,399 C671.386666,397.688 671.838666,396.58 672.742666,395.676 C673.646666,394.772 674.738666,394.32 676.018666,394.32 C677.314666,394.32 678.406666,394.772 679.294666,395.676 C680.182666,396.58 680.626666,397.688 680.626666,399 C680.626666,400.312 680.182666,401.42 679.294666,402.324 C678.406666,403.228 677.314666,403.68 676.018666,403.68 Z M687.893333,405 L687.893333,387.144 L686.309333,387.144 L686.309333,405 L687.893333,405 Z M704.058666,405.192 C705.642666,405.192 706.874666,404.792 707.754666,403.992 C708.634666,403.192 709.074666,402.208 709.074666,401.04 C709.074666,400.128 708.774666,399.336 708.174666,398.664 C707.574666,397.992 706.842666,397.464 705.978666,397.08 C705.114666,396.696 704.254666,396.328 703.398666,395.976 C702.542666,395.624 701.814666,395.188 701.214666,394.668 C700.614666,394.148 700.314666,393.544 700.314666,392.856 C700.314666,392.04 700.622666,391.396 701.238666,390.924 C701.854666,390.452 702.698666,390.216 703.770666,390.216 C704.634666,390.216 705.458666,390.44 706.242666,390.888 C707.026666,391.336 707.626666,391.784 708.042666,392.232 L708.042666,392.232 L709.146666,391.152 C708.634666,390.608 707.878666,390.064 706.878666,389.52 C705.878666,388.976 704.842666,388.704 703.770666,388.704 C702.186666,388.704 700.954666,389.104 700.074666,389.904 C699.194666,390.704 698.754666,391.688 698.754666,392.856 C698.754666,393.768 699.054666,394.56 699.654666,395.232 C700.254666,395.904 700.986666,396.436 701.850666,396.828 C702.714666,397.22 703.574666,397.592 704.430666,397.944 C705.286666,398.296 706.014666,398.728 706.614666,399.24 C707.214666,399.752 707.514666,400.352 707.514666,401.04 C707.514666,401.856 707.206666,402.5 706.590666,402.972 C705.974666,403.444 705.130666,403.68 704.058666,403.68 C703.178666,403.68 702.346666,403.452 701.562666,402.996 C700.778666,402.54 700.186666,402.096 699.786666,401.664 L699.786666,401.664 L698.682666,402.744 C699.194666,403.288 699.950666,403.832 700.950666,404.376 C701.950666,404.92 702.986666,405.192 704.058666,405.192 Z M717.661333,405.192 C719.373333,405.192 720.829333,404.584 722.029333,403.368 C723.245333,402.152 723.853333,400.696 723.853333,399 C723.853333,397.288 723.249333,395.828 722.041333,394.62 C720.833333,393.412 719.373333,392.808 717.661333,392.808 C715.949333,392.808 714.489333,393.412 713.281333,394.62 C712.073333,395.828 711.469333,397.288 711.469333,399 C711.469333,400.712 712.073333,402.172 713.281333,403.38 C714.489333,404.588 715.949333,405.192 717.661333,405.192 Z M717.685333,403.68 C716.405333,403.68 715.317333,403.228 714.421333,402.324 C713.525333,401.42 713.077333,400.312 713.077333,399 C713.077333,397.688 713.525333,396.576 714.421333,395.664 C715.317333,394.752 716.405333,394.296 717.685333,394.296 C718.981333,394.296 720.073333,394.752 720.961333,395.664 C721.849333,396.576 722.293333,397.688 722.293333,399 C722.293333,400.312 721.849333,401.42 720.961333,402.324 C720.073333,403.228 718.981333,403.68 717.685333,403.68 Z M731.672,405.192 C733.256,405.192 734.536,404.536 735.512,403.224 L735.512,403.224 L735.512,405 L737.096,405 L737.096,393 L735.512,393 L735.512,400.032 C735.512,401.056 735.168,401.924 734.48,402.636 C733.792,403.348 732.944,403.704 731.936,403.704 C730.944,403.704 730.104,403.348 729.416,402.636 C728.728,401.924 728.384,401.056 728.384,400.032 L728.384,400.032 L728.384,393 L726.752,393 L726.752,400.08 C726.752,401.52 727.224,402.732 728.168,403.716 C729.112,404.7 730.28,405.192 731.672,405.192 Z M742.634666,405 L742.634666,397.968 C742.634666,396.928 742.978666,396.052 743.666666,395.34 C744.354666,394.628 745.202666,394.272 746.210666,394.272 C746.898666,394.272 747.578666,394.52 748.250666,395.016 L748.250666,395.016 L748.802666,393.432 C748.098666,393.016 747.322666,392.808 746.474666,392.808 C744.890666,392.808 743.610666,393.464 742.634666,394.776 L742.634666,394.776 L742.634666,393 L741.050666,393 L741.050666,405 L742.634666,405 Z M756.117333,405.192 C757.205333,405.192 758.217333,404.924 759.153333,404.388 C760.089333,403.852 760.829333,403.136 761.373333,402.24 L761.373333,402.24 L759.933333,401.544 C759.501333,402.2 758.949333,402.72 758.277333,403.104 C757.605333,403.488 756.885333,403.68 756.117333,403.68 C754.821333,403.68 753.729333,403.228 752.841333,402.324 C751.953333,401.42 751.509333,400.312 751.509333,399 C751.509333,397.688 751.953333,396.58 752.841333,395.676 C753.729333,394.772 754.821333,394.32 756.117333,394.32 C756.885333,394.32 757.605333,394.512 758.277333,394.896 C758.949333,395.28 759.501333,395.8 759.933333,396.456 L759.933333,396.456 L761.373333,395.76 C760.829333,394.864 760.089333,394.148 759.153333,393.612 C758.217333,393.076 757.205333,392.808 756.117333,392.808 C754.405333,392.808 752.945333,393.412 751.737333,394.62 C750.529333,395.828 749.925333,397.288 749.925333,399 C749.925333,400.712 750.529333,402.172 751.737333,403.38 C752.945333,404.588 754.405333,405.192 756.117333,405.192 Z M769.936,405.072 C771.408,405.088 772.676,404.672 773.74,403.824 C774.804,402.976 775.52,402.048 775.888,401.04 L775.888,401.04 L774.544,400.56 C774.24,401.376 773.664,402.088 772.816,402.696 C771.968,403.304 771.008,403.608 769.936,403.608 C768.944,403.624 768.04,403.324 767.224,402.708 C766.408,402.092 765.864,401.304 765.592,400.344 L765.592,400.344 L776.08,398.448 C776.08,398.32 776.072,398.216 776.056,398.136 C775.88,396.6 775.208,395.312 774.04,394.272 C772.872,393.232 771.504,392.704 769.936,392.688 C768.208,392.704 766.744,393.312 765.544,394.512 C764.344,395.712 763.744,397.176 763.744,398.904 C763.744,399.528 763.824,400.104 763.984,400.632 C764.384,401.928 765.14,402.992 766.252,403.824 C767.364,404.656 768.592,405.072 769.936,405.072 Z M765.352,399.048 C765.352,398.968 765.348,398.868 765.34,398.748 C765.332,398.628 765.328,398.544 765.328,398.496 C765.392,397.312 765.852,396.296 766.708,395.448 C767.564,394.6 768.592,394.168 769.792,394.152 C770.816,394.136 771.744,394.436 772.576,395.052 C773.408,395.668 773.976,396.464 774.28,397.44 L774.28,397.44 L765.352,399.048 Z M787.613333,405 L789.677333,399.96 L797.213333,399.96 L799.277333,405 L800.909333,405 L794.189333,388.872 L792.677333,388.872 L785.957333,405 L787.613333,405 Z M796.565333,398.376 L790.325333,398.376 L793.445333,390.72 L796.565333,398.376 Z M804.864,405 L804.864,397.968 C804.864,396.944 805.212,396.072 805.908,395.352 C806.604,394.632 807.448,394.272 808.44,394.272 C809.432,394.272 810.276,394.632 810.972,395.352 C811.668,396.072 812.016,396.944 812.016,397.968 L812.016,397.968 L812.016,405 L813.624,405 L813.624,397.92 C813.624,396.48 813.152,395.268 812.208,394.284 C811.264,393.3 810.096,392.808 808.704,392.808 C807.12,392.808 805.84,393.464 804.864,394.776 L804.864,394.776 L804.864,393 L803.28,393 L803.28,405 L804.864,405 Z M822.738667,405.192 C824.626667,405.192 826.186667,404.48 827.418667,403.056 L827.418667,403.056 L827.418667,405 L829.002667,405 L829.002667,393 L827.418667,393 L827.418667,394.944 C826.202667,393.52 824.642667,392.808 822.738667,392.808 C821.026667,392.808 819.566667,393.412 818.358667,394.62 C817.150667,395.828 816.546667,397.288 816.546667,399 C816.546667,400.712 817.150667,402.172 818.358667,403.38 C819.566667,404.588 821.026667,405.192 822.738667,405.192 Z M822.762667,403.68 C821.482667,403.68 820.390667,403.228 819.486667,402.324 C818.582667,401.42 818.130667,400.312 818.130667,399 C818.130667,397.688 818.582667,396.58 819.486667,395.676 C820.390667,394.772 821.482667,394.32 822.762667,394.32 C824.058667,394.32 825.150667,394.772 826.038667,395.676 C826.926667,396.58 827.370667,397.688 827.370667,399 C827.370667,400.312 826.926667,401.42 826.038667,402.324 C825.150667,403.228 824.058667,403.68 822.762667,403.68 Z M834.637333,405 L834.637333,387.144 L833.053333,387.144 L833.053333,405 L834.637333,405 Z M844.064,405.192 C845.776,405.192 847.232,404.584 848.432,403.368 C849.648,402.152 850.256,400.696 850.256,399 C850.256,397.288 849.652,395.828 848.444,394.62 C847.236,393.412 845.776,392.808 844.064,392.808 C842.352,392.808 840.892,393.412 839.684,394.62 C838.476,395.828 837.872,397.288 837.872,399 C837.872,400.712 838.476,402.172 839.684,403.38 C840.892,404.588 842.352,405.192 844.064,405.192 Z M844.088,403.68 C842.808,403.68 841.72,403.228 840.824,402.324 C839.928,401.42 839.48,400.312 839.48,399 C839.48,397.688 839.928,396.576 840.824,395.664 C841.72,394.752 842.808,394.296 844.088,394.296 C845.384,394.296 846.476,394.752 847.364,395.664 C848.252,396.576 848.696,397.688 848.696,399 C848.696,400.312 848.252,401.42 847.364,402.324 C846.476,403.228 845.384,403.68 844.088,403.68 Z M859.130667,410.112 C860.762667,410.112 862.198667,409.524 863.438667,408.348 C864.678667,407.172 865.306667,405.712 865.322667,403.968 L865.322667,403.968 L865.322667,393.024 L863.714667,393.024 L863.714667,394.968 C862.482667,393.544 860.922667,392.832 859.034667,392.832 C857.322667,392.832 855.862667,393.436 854.654667,394.644 C853.446667,395.852 852.842667,397.312 852.842667,399.024 C852.842667,400.736 853.446667,402.196 854.654667,403.404 C855.862667,404.612 857.322667,405.216 859.034667,405.216 C860.938667,405.216 862.498667,404.504 863.714667,403.08 L863.714667,403.08 L863.714667,403.968 L863.738667,403.968 C863.722667,405.216 863.270667,406.308 862.382667,407.244 C861.494667,408.18 860.410667,408.648 859.130667,408.648 C858.042667,408.648 857.074667,408.344 856.226667,407.736 C855.378667,407.128 854.802667,406.416 854.498667,405.6 L854.498667,405.6 L853.202667,406.248 C853.570667,407.24 854.278667,408.132 855.326667,408.924 C856.374667,409.716 857.642667,410.112 859.130667,410.112 Z M859.058667,403.728 C857.778667,403.728 856.690667,403.276 855.794667,402.372 C854.898667,401.468 854.450667,400.36 854.450667,399.048 C854.450667,397.736 854.898667,396.628 855.794667,395.724 C856.690667,394.82 857.778667,394.368 859.058667,394.368 C860.354667,394.368 861.446667,394.82 862.334667,395.724 C863.222667,396.628 863.666667,397.736 863.666667,399.048 C863.666667,400.36 863.222667,401.468 862.334667,402.372 C861.446667,403.276 860.354667,403.728 859.058667,403.728 Z M872.013333,410.112 L878.565333,393 L876.981333,393 L873.693333,401.568 L870.093333,393 L868.509333,393 L872.949333,403.536 L870.429333,410.112 L872.013333,410.112 Z" id="WaterTowerasanElectricialSourceAnalogy" fill="#23ABE3" fill-rule="nonzero"></path>
        </g>
        <g id="Water_Tower_Battery" transform="translate(268.000000, 37.000000)">
            <g id="Water-Tower" transform="translate(94.000000, 0.000000)" stroke="#555555">
                <line x1="40.5" y1="123.5" x2="59.5" y2="285.5" id="Line-Copy-2" stroke-width="6" transform="translate(50.000000, 204.500000) scale(-1, 1) translate(-50.000000, -204.500000) "></line>
                <line x1="106.5" y1="123.5" x2="125.5" y2="285.5" id="Line-Copy-3" stroke-width="6"></line>
                <path d="M89,159 L75,159 L75,289 L200,289 L200,275 L89,275 L89,159 Z" id="Combined-Shape" stroke-width="2" fill="#23ABE3"></path>
                <line x1="145.5" y1="153.5" x2="164.5" y2="315.5" id="Line" stroke-width="6"></line>
                <line x1="0.5" y1="153.5" x2="19.5" y2="315.5" id="Line-Copy" stroke-width="6" transform="translate(10.000000, 234.500000) scale(-1, 1) translate(-10.000000, -234.500000) "></line>
                <path d="M2,30.8945312 L2,147.894531 C21.3333333,158.561198 47,163.894531 79,163.894531 C111,163.894531 139.333333,158.561198 164,147.894531 L164,30.8945312 C137,21.6315104 110,17 83,17 C56,17 29,21.6315104 2,30.8945312 Z" id="Path-3" stroke-width="2" fill="#D8D8D8"></path>
                <path d="M2,57 L2,147.109406 C21.3333333,158.299489 47,163.894531 79,163.894531 C111,163.894531 139.333333,158.299489 164,147.109406 L164,57 C137,52.3333333 110,50 83,50 C56,50 29,52.3333333 2,57 Z" id="Path-3-Copy" fill="#23ABE3"></path>
                <path d="M2,31 L83.4909091,0 L164,31 C148.63608,23.0703125 121.799716,19.1054687 83.4909091,19.1054687 C45.1821023,19.1054687 18.0184659,23.0703125 2,31 Z" id="Path-2" stroke-width="2" fill="#D8D8D8"></path>
            </g>
            <g id="Valve" transform="translate(293.000000, 256.000000)" stroke="#555555">
                <rect id="Rectangle-2" fill="#D8D8D8" x="0.5" y="13.5" width="23" height="24"></rect>
                <rect id="Rectangle-3" fill="#B09679" x="8.5" y="0.5" width="7" height="28"></rect>
            </g>
            <g id="Labels" transform="translate(0.000000, 59.000000)">
                <line x1="69.5" y1="1" x2="0.5" y2="1" id="Line-2" stroke="#B09679" stroke-width="2" stroke-linecap="square"></line>
                <line x1="69.5" y1="224" x2="0.5" y2="224" id="Line-2-Copy" stroke="#B09679" stroke-width="2" stroke-linecap="square"></line>
                <line x1="33" y1="1.5" x2="33" y2="81.5" id="Line-3" stroke="#B09679" stroke-width="2" stroke-linecap="square"></line>
                <line x1="33" y1="144.5" x2="33" y2="224.5" id="Line-3-Copy" stroke="#B09679" stroke-width="2" stroke-linecap="square"></line>
                <line x1="243.5" y1="23.5" x2="291.5" y2="39.5" id="Line-4" stroke="#B09679" stroke-width="2" stroke-linecap="square" transform="translate(267.500000, 31.500000) scale(-1, 1) translate(-267.500000, -31.500000) "></line>
                <path d="M312.972,27.408 L316.356,16.776 L319.716,27.408 L320.028,27.408 L323.916,15.192 C324.188,14.344 324.492,13.784 324.828,13.512 C325.164,13.24 325.812,13.104 326.772,13.104 L326.772,13.104 L326.772,12.6 L321.372,12.6 L321.372,13.104 C322.22,13.104 322.764,13.24 323.004,13.512 C323.244,13.784 323.26,14.256 323.052,14.928 L323.052,14.928 L320.436,23.184 L317.076,12.6 L316.74,12.6 L313.38,23.208 L310.74,14.928 C310.532,14.24 310.552,13.764 310.8,13.5 C311.048,13.236 311.66,13.104 312.636,13.104 L312.636,13.104 L312.636,12.6 L305.916,12.6 L305.916,13.104 C306.892,13.104 307.54,13.224 307.86,13.464 C308.18,13.704 308.484,14.28 308.772,15.192 L308.772,15.192 L312.66,27.408 L312.972,27.408 Z M328.932,27.312 C329.86,27.312 330.86,26.832 331.932,25.872 C332.06,26.8 332.604,27.264 333.564,27.264 C334.156,27.264 334.684,27.016 335.148,26.52 L335.148,26.52 L334.812,26.064 C334.572,26.304 334.348,26.424 334.14,26.424 C333.772,26.424 333.588,26.112 333.588,25.488 L333.588,25.488 L333.588,21.864 C333.588,20.712 333.332,19.88 332.82,19.368 C332.308,18.856 331.468,18.6 330.3,18.6 C329.5,18.6 328.792,18.78 328.176,19.14 C327.56,19.5 327.252,19.96 327.252,20.52 C327.252,20.76 327.332,20.96 327.492,21.12 C327.652,21.28 327.852,21.36 328.092,21.36 C328.316,21.36 328.508,21.28 328.668,21.12 C328.828,20.96 328.908,20.76 328.908,20.52 C328.908,20.168 329.056,19.888 329.352,19.68 C329.648,19.472 329.956,19.368 330.276,19.368 C330.932,19.368 331.364,19.552 331.572,19.92 C331.78,20.288 331.884,20.944 331.884,21.888 C328.476,22.48 326.772,23.616 326.772,25.296 C326.772,25.92 326.98,26.412 327.396,26.772 C327.812,27.132 328.324,27.312 328.932,27.312 Z M329.7,26.232 C329.38,26.232 329.112,26.12 328.896,25.896 C328.68,25.672 328.572,25.376 328.572,25.008 C328.572,23.936 329.676,23.144 331.884,22.632 L331.884,22.632 L331.884,25.08 C331.02,25.848 330.292,26.232 329.7,26.232 Z M339.684,27.336 C340.084,27.336 340.52,27.208 340.992,26.952 C341.464,26.696 341.868,26.368 342.204,25.968 L342.204,25.968 L341.796,25.56 C341.22,26.104 340.7,26.376 340.236,26.376 C339.516,26.376 339.156,25.8 339.156,24.648 L339.156,24.648 L339.156,19.848 L341.244,19.848 L341.244,19.008 L339.156,19.008 L339.156,16.368 L338.34,16.368 C338.244,17.2 338.036,17.856 337.716,18.336 C337.396,18.816 336.892,19.128 336.204,19.272 L336.204,19.272 L336.204,19.848 L337.452,19.848 L337.452,24.648 C337.452,25.544 337.652,26.216 338.052,26.664 C338.452,27.112 338.996,27.336 339.684,27.336 Z M348.204,27.408 C348.876,27.408 349.548,27.26 350.22,26.964 C350.892,26.668 351.444,26.288 351.876,25.824 L351.876,25.824 L351.444,25.296 C351.108,25.616 350.684,25.88 350.172,26.088 C349.66,26.296 349.204,26.4 348.804,26.4 C347.62,26.4 346.768,26.028 346.248,25.284 C345.728,24.54 345.54,23.576 345.684,22.392 L345.684,22.392 L351.468,22.392 C351.756,21.384 351.556,20.5 350.868,19.74 C350.18,18.98 349.292,18.6 348.204,18.6 C347.052,18.6 346.024,19.024 345.12,19.872 C344.216,20.72 343.764,21.76 343.764,22.992 C343.764,24.224 344.18,25.268 345.012,26.124 C345.844,26.98 346.908,27.408 348.204,27.408 Z M349.812,21.504 L345.828,21.504 C346.004,20.912 346.296,20.44 346.704,20.088 C347.112,19.736 347.572,19.56 348.084,19.56 C348.804,19.56 349.312,19.772 349.608,20.196 C349.904,20.62 349.972,21.056 349.812,21.504 L349.812,21.504 Z M359.148,27 L359.148,26.496 C358.348,26.496 357.832,26.328 357.6,25.992 C357.368,25.656 357.252,24.888 357.252,23.688 L357.252,23.688 L357.252,22.368 C357.252,21.52 357.468,20.84 357.9,20.328 C358.332,19.816 358.732,19.56 359.1,19.56 C359.612,19.56 359.868,19.824 359.868,20.352 C359.868,20.576 359.952,20.776 360.12,20.952 C360.288,21.128 360.484,21.216 360.708,21.216 C361.348,21.216 361.668,20.84 361.668,20.088 C361.668,19.736 361.504,19.4 361.176,19.08 C360.848,18.76 360.38,18.6 359.772,18.6 C359.292,18.6 358.812,18.768 358.332,19.104 C357.852,19.44 357.492,19.848 357.252,20.328 C357.124,19.48 356.988,18.904 356.844,18.6 L356.844,18.6 L353.652,19.2 L353.652,19.704 C354.452,19.704 354.968,19.872 355.2,20.208 C355.432,20.544 355.548,21.304 355.548,22.488 L355.548,22.488 L355.548,23.688 C355.548,24.888 355.432,25.656 355.2,25.992 C354.968,26.328 354.452,26.496 353.652,26.496 L353.652,26.496 L353.652,27 L359.148,27 Z" id="Water" fill="#524740" fill-rule="nonzero"></path>
                <path d="M15.488,119 C18.144,119 20.144,118.328 21.488,116.984 C22.832,115.64 23.504,113.912 23.504,111.8 C23.504,109.688 22.832,107.96 21.488,106.616 C20.144,105.272 18.144,104.6 15.488,104.6 L15.488,104.6 L8.984,104.6 L8.984,105.104 C9.976,105.104 10.604,105.268 10.868,105.596 C11.132,105.924 11.264,106.688 11.264,107.888 L11.264,107.888 L11.264,115.688 C11.264,116.888 11.132,117.656 10.868,117.992 C10.604,118.328 9.976,118.496 8.984,118.496 L8.984,118.496 L8.984,119 L15.488,119 Z M15.512,118.112 L15.416,118.112 C14.44,118.112 13.824,117.952 13.568,117.632 C13.312,117.312 13.184,116.544 13.184,115.328 L13.184,115.328 L13.184,105.488 L15.512,105.488 C16.616,105.488 17.564,105.68 18.356,106.064 C19.148,106.448 19.74,106.964 20.132,107.612 C20.524,108.26 20.8,108.924 20.96,109.604 C21.12,110.284 21.2,111.016 21.2,111.8 C21.2,112.584 21.12,113.316 20.96,113.996 C20.8,114.676 20.524,115.34 20.132,115.988 C19.74,116.636 19.148,117.152 18.356,117.536 C17.564,117.92 16.616,118.112 15.512,118.112 L15.512,118.112 Z M31.592,119 L31.592,118.496 C30.792,118.496 30.276,118.328 30.044,117.992 C29.812,117.656 29.696,116.888 29.696,115.688 L29.696,115.688 L29.696,114.368 C29.696,113.52 29.912,112.84 30.344,112.328 C30.776,111.816 31.176,111.56 31.544,111.56 C32.056,111.56 32.312,111.824 32.312,112.352 C32.312,112.576 32.396,112.776 32.564,112.952 C32.732,113.128 32.928,113.216 33.152,113.216 C33.792,113.216 34.112,112.84 34.112,112.088 C34.112,111.736 33.948,111.4 33.62,111.08 C33.292,110.76 32.824,110.6 32.216,110.6 C31.736,110.6 31.256,110.768 30.776,111.104 C30.296,111.44 29.936,111.848 29.696,112.328 C29.568,111.48 29.432,110.904 29.288,110.6 L29.288,110.6 L26.096,111.2 L26.096,111.704 C26.896,111.704 27.412,111.872 27.644,112.208 C27.876,112.544 27.992,113.304 27.992,114.488 L27.992,114.488 L27.992,115.688 C27.992,116.888 27.876,117.656 27.644,117.992 C27.412,118.328 26.896,118.496 26.096,118.496 L26.096,118.496 L26.096,119 L31.592,119 Z M40.616,119.408 C41.944,119.408 43.084,118.976 44.036,118.112 C44.988,117.248 45.464,116.208 45.464,114.992 C45.464,113.776 44.984,112.744 44.024,111.896 C43.08,111.032 41.944,110.6 40.616,110.6 C39.288,110.6 38.148,111.028 37.196,111.884 C36.244,112.74 35.768,113.776 35.768,114.992 C35.768,116.208 36.244,117.248 37.196,118.112 C38.148,118.976 39.288,119.408 40.616,119.408 Z M40.616,118.472 C39.672,118.472 38.952,118.144 38.456,117.488 C37.96,116.832 37.712,116 37.712,114.992 C37.712,113.984 37.96,113.152 38.456,112.496 C38.952,111.84 39.672,111.512 40.616,111.512 C41.56,111.512 42.28,111.836 42.776,112.484 C43.272,113.132 43.52,113.968 43.52,114.992 C43.52,116.016 43.272,116.856 42.776,117.512 C42.28,118.152 41.56,118.472 40.616,118.472 Z M52.568,125 L52.568,124.496 C51.768,124.496 51.252,124.328 51.02,123.992 C50.788,123.656 50.672,122.896 50.672,121.712 L50.672,121.712 L50.672,117.968 C51.456,118.928 52.44,119.408 53.624,119.408 C54.76,119.408 55.736,118.976 56.552,118.112 C57.368,117.248 57.776,116.208 57.776,114.992 C57.776,113.776 57.368,112.74 56.552,111.884 C55.736,111.028 54.76,110.6 53.624,110.6 C52.456,110.6 51.464,111.088 50.648,112.064 C50.504,111.264 50.384,110.776 50.288,110.6 L50.288,110.6 L47.072,111.2 L47.072,111.704 C47.872,111.704 48.388,111.868 48.62,112.196 C48.852,112.524 48.968,113.288 48.968,114.488 L48.968,114.488 L48.968,121.712 C48.968,122.912 48.852,123.676 48.62,124.004 C48.388,124.332 47.872,124.496 47.072,124.496 L47.072,124.496 L47.072,125 L52.568,125 Z M53.12,118.448 C52.576,118.448 52.092,118.276 51.668,117.932 C51.244,117.588 50.912,117.12 50.672,116.528 L50.672,116.528 L50.672,113.432 C50.912,112.856 51.244,112.4 51.668,112.064 C52.092,111.728 52.576,111.56 53.12,111.56 C54,111.56 54.672,111.88 55.136,112.52 C55.6,113.16 55.832,113.984 55.832,114.992 C55.832,116 55.6,116.832 55.136,117.488 C54.672,118.128 54,118.448 53.12,118.448 Z" id="Drop" fill="#524740" fill-rule="nonzero"></path>
            </g>
        </g>
    </g>
</svg>