<?xml version="1.0" encoding="UTF-8"?>
<svg width="900px" height="450px" viewBox="0 0 900 450" version="1.1" xmlns="http://www.w3.org/2000/svg" xmlns:xlink="http://www.w3.org/1999/xlink">
    <!-- Generator: Sketch 60.1 (88133) - https://sketch.com -->
    <title>Water_Tower_Trading_volts_for_amps</title>
    <desc>Created with Sketch.</desc>
    <g id="Water_Tower_Trading_volts_for_amps" stroke="none" stroke-width="1" fill="none" fill-rule="evenodd">
        <g id="Illustration_Frame">
            <rect id="Rectangle" stroke="#3D3530" stroke-width="2" fill="#EEEEEE" x="1" y="1" width="898" height="448"></rect>
            <rect id="Rectangle-Copy" stroke="#3D3530" stroke-width="2" fill="#F8FAE4" x="1" y="406" width="898" height="43"></rect>
            <path d="M623.869333,435 L623.869333,420.456 L629.605333,420.456 L629.605333,418.872 L616.549333,418.872 L616.549333,420.456 L622.285333,420.456 L622.285333,435 L623.869333,435 Z M631.423999,435 L631.423999,427.968 C631.423999,426.928 631.767999,426.052 632.455999,425.34 C633.143999,424.628 633.991999,424.272 634.999999,424.272 C635.687999,424.272 636.367999,424.52 637.039999,425.016 L637.039999,425.016 L637.591999,423.432 C636.887999,423.016 636.111999,422.808 635.263999,422.808 C633.679999,422.808 632.399999,423.464 631.423999,424.776 L631.423999,424.776 L631.423999,423 L629.839999,423 L629.839999,435 L631.423999,435 Z M644.906666,435.192 C646.794666,435.192 648.354666,434.48 649.586666,433.056 L649.586666,433.056 L649.586666,435 L651.170666,435 L651.170666,423 L649.586666,423 L649.586666,424.944 C648.370666,423.52 646.810666,422.808 644.906666,422.808 C643.194666,422.808 641.734666,423.412 640.526666,424.62 C639.318666,425.828 638.714666,427.288 638.714666,429 C638.714666,430.712 639.318666,432.172 640.526666,433.38 C641.734666,434.588 643.194666,435.192 644.906666,435.192 Z M644.930666,433.68 C643.650666,433.68 642.558666,433.228 641.654666,432.324 C640.750666,431.42 640.298666,430.312 640.298666,429 C640.298666,427.688 640.750666,426.58 641.654666,425.676 C642.558666,424.772 643.650666,424.32 644.930666,424.32 C646.226666,424.32 647.318666,424.772 648.206666,425.676 C649.094666,426.58 649.538666,427.688 649.538666,429 C649.538666,430.312 649.094666,431.42 648.206666,432.324 C647.318666,433.228 646.226666,433.68 644.930666,433.68 Z M660.477333,435.192 C662.365333,435.192 663.925333,434.48 665.157333,433.056 L665.157333,433.056 L665.157333,435 L666.741333,435 L666.741333,417.144 L665.157333,417.144 L665.157333,424.944 C663.941333,423.52 662.381333,422.808 660.477333,422.808 C658.765333,422.808 657.305333,423.412 656.097333,424.62 C654.889333,425.828 654.285333,427.288 654.285333,429 C654.285333,430.712 654.889333,432.172 656.097333,433.38 C657.305333,434.588 658.765333,435.192 660.477333,435.192 Z M660.501333,433.68 C659.205333,433.68 658.109333,433.232 657.213333,432.336 C656.317333,431.424 655.869333,430.312 655.869333,429 C655.869333,427.688 656.317333,426.58 657.213333,425.676 C658.109333,424.772 659.205333,424.32 660.501333,424.32 C661.797333,424.32 662.889333,424.772 663.777333,425.676 C664.665333,426.58 665.109333,427.688 665.109333,429 C665.109333,430.312 664.665333,431.42 663.777333,432.324 C662.889333,433.228 661.797333,433.68 660.501333,433.68 Z M671.871999,419.688 C672.143999,419.688 672.367999,419.592 672.543999,419.4 C672.735999,419.208 672.831999,418.984 672.831999,418.728 C672.831999,418.472 672.739999,418.248 672.555999,418.056 C672.371999,417.864 672.143999,417.768 671.871999,417.768 C671.599999,417.768 671.371999,417.864 671.187999,418.056 C671.003999,418.248 670.911999,418.472 670.911999,418.728 C670.911999,418.984 671.003999,419.208 671.187999,419.4 C671.371999,419.592 671.599999,419.688 671.871999,419.688 Z M672.663999,435 L672.663999,423 L671.079999,423 L671.079999,435 L672.663999,435 Z M678.586666,435 L678.586666,427.968 C678.586666,426.944 678.934666,426.072 679.630666,425.352 C680.326666,424.632 681.170666,424.272 682.162666,424.272 C683.154666,424.272 683.998666,424.632 684.694666,425.352 C685.390666,426.072 685.738666,426.944 685.738666,427.968 L685.738666,427.968 L685.738666,435 L687.346666,435 L687.346666,427.92 C687.346666,426.48 686.874666,425.268 685.930666,424.284 C684.986666,423.3 683.818666,422.808 682.426666,422.808 C680.842666,422.808 679.562666,423.464 678.586666,424.776 L678.586666,424.776 L678.586666,423 L677.002666,423 L677.002666,435 L678.586666,435 Z M696.701333,440.112 C698.333333,440.112 699.769333,439.524 701.009333,438.348 C702.249333,437.172 702.877333,435.712 702.893333,433.968 L702.893333,433.968 L702.893333,423.024 L701.285333,423.024 L701.285333,424.968 C700.053333,423.544 698.493333,422.832 696.605333,422.832 C694.893333,422.832 693.433333,423.436 692.225333,424.644 C691.017333,425.852 690.413333,427.312 690.413333,429.024 C690.413333,430.736 691.017333,432.196 692.225333,433.404 C693.433333,434.612 694.893333,435.216 696.605333,435.216 C698.509333,435.216 700.069333,434.504 701.285333,433.08 L701.285333,433.08 L701.285333,433.968 L701.309333,433.968 C701.293333,435.216 700.841333,436.308 699.953333,437.244 C699.065333,438.18 697.981333,438.648 696.701333,438.648 C695.613333,438.648 694.645333,438.344 693.797333,437.736 C692.949333,437.128 692.373333,436.416 692.069333,435.6 L692.069333,435.6 L690.773333,436.248 C691.141333,437.24 691.849333,438.132 692.897333,438.924 C693.945333,439.716 695.213333,440.112 696.701333,440.112 Z M696.629333,433.728 C695.349333,433.728 694.261333,433.276 693.365333,432.372 C692.469333,431.468 692.021333,430.36 692.021333,429.048 C692.021333,427.736 692.469333,426.628 693.365333,425.724 C694.261333,424.82 695.349333,424.368 696.629333,424.368 C697.925333,424.368 699.017333,424.82 699.905333,425.724 C700.793333,426.628 701.237333,427.736 701.237333,429.048 C701.237333,430.36 700.793333,431.468 699.905333,432.372 C699.017333,433.276 697.925333,433.728 696.629333,433.728 Z M719.058666,435 L723.306666,423 L721.722666,423 L718.266666,432.768 L714.834666,423 L713.250666,423 L717.474666,435 L719.058666,435 Z M730.981333,435.192 C732.693333,435.192 734.149333,434.584 735.349333,433.368 C736.565333,432.152 737.173333,430.696 737.173333,429 C737.173333,427.288 736.569333,425.828 735.361333,424.62 C734.153333,423.412 732.693333,422.808 730.981333,422.808 C729.269333,422.808 727.809333,423.412 726.601333,424.62 C725.393333,425.828 724.789333,427.288 724.789333,429 C724.789333,430.712 725.393333,432.172 726.601333,433.38 C727.809333,434.588 729.269333,435.192 730.981333,435.192 Z M731.005333,433.68 C729.725333,433.68 728.637333,433.228 727.741333,432.324 C726.845333,431.42 726.397333,430.312 726.397333,429 C726.397333,427.688 726.845333,426.576 727.741333,425.664 C728.637333,424.752 729.725333,424.296 731.005333,424.296 C732.301333,424.296 733.393333,424.752 734.281333,425.664 C735.169333,426.576 735.613333,427.688 735.613333,429 C735.613333,430.312 735.169333,431.42 734.281333,432.324 C733.393333,433.228 732.301333,433.68 731.005333,433.68 Z M742.04,435 L742.04,417.144 L740.456,417.144 L740.456,435 L742.04,435 Z M750.458666,435.192 C751.050666,435.192 751.626666,435.036 752.186666,434.724 C752.746666,434.412 753.106666,434.168 753.266666,433.992 C753.426666,433.816 753.554666,433.664 753.650666,433.536 L753.650666,433.536 L752.858666,432.312 C752.858666,432.376 752.774666,432.516 752.606666,432.732 C752.438666,432.948 752.178666,433.168 751.826666,433.392 C751.474666,433.616 751.114666,433.728 750.746666,433.728 C750.154666,433.728 749.630666,433.512 749.174666,433.08 C748.718666,432.648 748.490666,432.064 748.490666,431.328 L748.490666,431.328 L748.490666,424.44 L752.114666,424.44 L752.114666,422.976 L748.490666,422.976 L748.490666,418.992 L746.906666,419.184 L746.906666,422.976 L744.986666,422.976 L744.986666,424.44 L746.906666,424.44 L746.906666,431.688 C746.906666,432.824 747.246666,433.692 747.926666,434.292 C748.606666,434.892 749.450666,435.192 750.458666,435.192 Z M760.821333,435.192 C762.293333,435.192 763.397333,434.88 764.133333,434.256 C764.869333,433.632 765.237333,432.816 765.237333,431.808 C765.237333,431.088 764.973333,430.476 764.445333,429.972 C763.917333,429.468 763.273333,429.084 762.513333,428.82 C761.753333,428.556 760.997333,428.312 760.245333,428.088 C759.493333,427.864 758.853333,427.596 758.325333,427.284 C757.797333,426.972 757.533333,426.6 757.533333,426.168 C757.533333,425.56 757.801333,425.088 758.337333,424.752 C758.873333,424.416 759.573333,424.248 760.437333,424.248 C761.045333,424.248 761.653333,424.384 762.261333,424.656 C762.869333,424.928 763.273333,425.144 763.473333,425.304 C763.673333,425.464 763.829333,425.6 763.941333,425.712 L763.941333,425.712 L765.069333,424.728 L764.565333,424.248 C764.229333,423.928 763.677333,423.608 762.909333,423.288 C762.141333,422.968 761.325333,422.808 760.461333,422.808 C759.005333,422.808 757.905333,423.124 757.161333,423.756 C756.417333,424.388 756.045333,425.2 756.045333,426.192 C756.045333,426.912 756.309333,427.52 756.837333,428.016 C757.365333,428.512 758.009333,428.896 758.769333,429.168 C759.529333,429.44 760.285333,429.688 761.037333,429.912 C761.789333,430.136 762.429333,430.404 762.957333,430.716 C763.485333,431.028 763.749333,431.4 763.749333,431.832 C763.749333,432.44 763.485333,432.912 762.957333,433.248 C762.429333,433.584 761.725333,433.752 760.845333,433.752 C760.253333,433.752 759.653333,433.616 759.045333,433.344 C758.437333,433.072 758.033333,432.856 757.833333,432.696 C757.633333,432.536 757.477333,432.4 757.365333,432.288 L757.365333,432.288 L756.237333,433.248 L756.429333,433.464 C756.557333,433.592 756.757333,433.752 757.029333,433.944 C757.301333,434.136 757.609333,434.324 757.953333,434.508 C758.297333,434.692 758.725333,434.852 759.237333,434.988 C759.749333,435.124 760.277333,435.192 760.821333,435.192 Z M777.922666,435 L777.922666,424.272 L780.274666,424.272 L780.274666,422.952 L777.922666,422.952 L777.922666,420.048 C777.922666,419.392 777.978666,418.948 778.090666,418.716 C778.202666,418.484 778.434666,418.368 778.786666,418.368 C779.106666,418.368 779.426666,418.408 779.746666,418.488 L779.746666,418.488 L780.082666,417.264 L779.866666,417.192 C779.722666,417.144 779.502666,417.096 779.206666,417.048 C778.910666,417 778.618666,416.976 778.330666,416.976 C777.018666,416.976 776.362666,417.808 776.362666,419.472 L776.362666,419.472 L776.362666,422.952 L774.946666,422.952 L774.946666,424.272 L776.362666,424.272 L776.362666,435 L777.922666,435 Z M788.357333,435.192 C790.069333,435.192 791.525333,434.584 792.725333,433.368 C793.941333,432.152 794.549333,430.696 794.549333,429 C794.549333,427.288 793.945333,425.828 792.737333,424.62 C791.529333,423.412 790.069333,422.808 788.357333,422.808 C786.645333,422.808 785.185333,423.412 783.977333,424.62 C782.769333,425.828 782.165333,427.288 782.165333,429 C782.165333,430.712 782.769333,432.172 783.977333,433.38 C785.185333,434.588 786.645333,435.192 788.357333,435.192 Z M788.381333,433.68 C787.101333,433.68 786.013333,433.228 785.117333,432.324 C784.221333,431.42 783.773333,430.312 783.773333,429 C783.773333,427.688 784.221333,426.576 785.117333,425.664 C786.013333,424.752 787.101333,424.296 788.381333,424.296 C789.677333,424.296 790.769333,424.752 791.657333,425.664 C792.545333,426.576 792.989333,427.688 792.989333,429 C792.989333,430.312 792.545333,431.42 791.657333,432.324 C790.769333,433.228 789.677333,433.68 788.381333,433.68 Z M799.176,435 L799.176,427.968 C799.176,426.928 799.52,426.052 800.208,425.34 C800.896,424.628 801.744,424.272 802.752,424.272 C803.44,424.272 804.12,424.52 804.792,425.016 L804.792,425.016 L805.344,423.432 C804.64,423.016 803.864,422.808 803.016,422.808 C801.432,422.808 800.152,423.464 799.176,424.776 L799.176,424.776 L799.176,423 L797.592,423 L797.592,435 L799.176,435 Z M820.885333,435.192 C822.773333,435.192 824.333333,434.48 825.565333,433.056 L825.565333,433.056 L825.565333,435 L827.149333,435 L827.149333,423 L825.565333,423 L825.565333,424.944 C824.349333,423.52 822.789333,422.808 820.885333,422.808 C819.173333,422.808 817.713333,423.412 816.505333,424.62 C815.297333,425.828 814.693333,427.288 814.693333,429 C814.693333,430.712 815.297333,432.172 816.505333,433.38 C817.713333,434.588 819.173333,435.192 820.885333,435.192 Z M820.909333,433.68 C819.629333,433.68 818.537333,433.228 817.633333,432.324 C816.729333,431.42 816.277333,430.312 816.277333,429 C816.277333,427.688 816.729333,426.58 817.633333,425.676 C818.537333,424.772 819.629333,424.32 820.909333,424.32 C822.205333,424.32 823.297333,424.772 824.185333,425.676 C825.073333,426.58 825.517333,427.688 825.517333,429 C825.517333,430.312 825.073333,431.42 824.185333,432.324 C823.297333,433.228 822.205333,433.68 820.909333,433.68 Z M832.64,435 L832.64,427.968 C832.64,426.944 832.988,426.072 833.684,425.352 C834.38,424.632 835.224,424.272 836.216,424.272 C837.208,424.272 838.052,424.632 838.748,425.352 C839.444,426.072 839.792,426.944 839.792,427.968 L839.792,427.968 L839.792,435 L841.4,435 L841.4,427.968 C841.4,426.928 841.744,426.052 842.432,425.34 C843.12,424.628 843.968,424.272 844.976,424.272 C845.984,424.272 846.828,424.628 847.508,425.34 C848.188,426.052 848.528,426.928 848.528,427.968 L848.528,427.968 L848.528,435 L850.16,435 L850.16,427.92 C850.16,426.48 849.688,425.268 848.744,424.284 C847.8,423.3 846.632,422.808 845.24,422.808 C844.248,422.808 843.36,423.04 842.576,423.504 C841.792,423.968 841.192,424.592 840.776,425.376 C840.344,424.592 839.748,423.968 838.988,423.504 C838.228,423.04 837.392,422.808 836.48,422.808 C834.896,422.808 833.616,423.464 832.64,424.776 L832.64,424.776 L832.64,423 L831.056,423 L831.056,435 L832.64,435 Z M855.722667,440.832 L855.722667,432.984 C856.938667,434.44 858.506667,435.168 860.426667,435.168 C862.138667,435.168 863.598667,434.564 864.806667,433.356 C866.014667,432.148 866.618667,430.688 866.618667,428.976 C866.618667,427.264 866.014667,425.804 864.806667,424.596 C863.598667,423.388 862.138667,422.784 860.426667,422.784 C858.522667,422.784 856.954667,423.504 855.722667,424.944 L855.722667,424.944 L855.722667,422.976 L854.138667,422.976 L854.138667,440.832 L855.722667,440.832 Z M860.378667,433.656 C859.098667,433.656 858.010667,433.208 857.114667,432.312 C856.218667,431.4 855.770667,430.288 855.770667,428.976 C855.770667,427.664 856.218667,426.552 857.114667,425.64 C858.010667,424.728 859.098667,424.272 860.378667,424.272 C861.658667,424.272 862.750667,424.728 863.654667,425.64 C864.558667,426.552 865.010667,427.664 865.010667,428.976 C865.010667,430.288 864.558667,431.396 863.654667,432.3 C862.750667,433.204 861.658667,433.656 860.378667,433.656 Z M873.933333,435.192 C875.405333,435.192 876.509333,434.88 877.245333,434.256 C877.981333,433.632 878.349333,432.816 878.349333,431.808 C878.349333,431.088 878.085333,430.476 877.557333,429.972 C877.029333,429.468 876.385333,429.084 875.625333,428.82 C874.865333,428.556 874.109333,428.312 873.357333,428.088 C872.605333,427.864 871.965333,427.596 871.437333,427.284 C870.909333,426.972 870.645333,426.6 870.645333,426.168 C870.645333,425.56 870.913333,425.088 871.449333,424.752 C871.985333,424.416 872.685333,424.248 873.549333,424.248 C874.157333,424.248 874.765333,424.384 875.373333,424.656 C875.981333,424.928 876.385333,425.144 876.585333,425.304 C876.785333,425.464 876.941333,425.6 877.053333,425.712 L877.053333,425.712 L878.181333,424.728 L877.677333,424.248 C877.341333,423.928 876.789333,423.608 876.021333,423.288 C875.253333,422.968 874.437333,422.808 873.573333,422.808 C872.117333,422.808 871.017333,423.124 870.273333,423.756 C869.529333,424.388 869.157333,425.2 869.157333,426.192 C869.157333,426.912 869.421333,427.52 869.949333,428.016 C870.477333,428.512 871.121333,428.896 871.881333,429.168 C872.641333,429.44 873.397333,429.688 874.149333,429.912 C874.901333,430.136 875.541333,430.404 876.069333,430.716 C876.597333,431.028 876.861333,431.4 876.861333,431.832 C876.861333,432.44 876.597333,432.912 876.069333,433.248 C875.541333,433.584 874.837333,433.752 873.957333,433.752 C873.365333,433.752 872.765333,433.616 872.157333,433.344 C871.549333,433.072 871.145333,432.856 870.945333,432.696 C870.745333,432.536 870.589333,432.4 870.477333,432.288 L870.477333,432.288 L869.349333,433.248 L869.541333,433.464 C869.669333,433.592 869.869333,433.752 870.141333,433.944 C870.413333,434.136 870.721333,434.324 871.065333,434.508 C871.409333,434.692 871.837333,434.852 872.349333,434.988 C872.861333,435.124 873.389333,435.192 873.933333,435.192 Z" id="Tradingvoltsforamps" fill="#23ABE3" fill-rule="nonzero"></path>
        </g>
        <g transform="translate(20.000000, 17.000000)">
            <g id="Water-2" transform="translate(433.000000, 80.000000)">
                <g id="Water-Tower" transform="translate(93.000000, 0.000000)" stroke="#555555">
                    <line x1="38.5" y1="43.5" x2="57.5" y2="205.5" id="Line-Copy-2" stroke-width="6" transform="translate(48.000000, 124.500000) scale(-1, 1) translate(-48.000000, -124.500000) "></line>
                    <line x1="104.5" y1="43.5" x2="123.5" y2="205.5" id="Line-Copy-3" stroke-width="6"></line>
                    <path d="M97.3238948,158.647882 L69.3238948,158.647882 L69.3238948,209.212679 L97.3238948,209.212679 L97.3238948,208.999881 L198,208.999999 L198,180.999999 L97.3238948,180.999881 L97.3238948,158.647882 Z" id="Combined-Shape" stroke-width="2" fill="#23ABE3"></path>
                    <line x1="133.5" y1="73.5" x2="152.5" y2="235.5" id="Line" stroke-width="6"></line>
                    <line x1="8.5" y1="73.5" x2="27.5" y2="235.5" id="Line-Copy" stroke-width="6" transform="translate(18.000000, 154.500000) scale(-1, 1) translate(-18.000000, -154.500000) "></line>
                    <path d="M0,30.8945312 L0,147.894531 C19.3333333,158.561198 45,163.894531 77,163.894531 C109,163.894531 137.333333,158.561198 162,147.894531 L162,30.8945312 C135,21.6315104 108,17 81,17 C54,17 27,21.6315104 0,30.8945312 Z" id="Path-3" stroke-width="2" fill="#D8D8D8"></path>
                    <path d="M0,57 L0,147.109406 C19.3333333,158.299489 45,163.894531 77,163.894531 C109,163.894531 137.333333,158.299489 162,147.109406 L162,57 C135,52.3333333 108,50 81,50 C54,50 27,52.3333333 0,57 Z" id="Path-3-Copy" fill="#23ABE3"></path>
                    <path d="M0,31 L81.4909091,0 L162,31 C146.63608,23.0703125 119.799716,19.1054687 81.4909091,19.1054687 C43.1821023,19.1054687 16.0184659,23.0703125 0,31 Z" id="Path-2" stroke-width="2" fill="#D8D8D8"></path>
                </g>
                <g id="Valve" transform="translate(276.000000, 178.000000)" stroke="#555555">
                    <path d="M14.5,0.5 L14.5,37.5 L37.5,37.5 L37.5,0.5 L14.5,0.5 Z" id="Rectangle-2" fill="#D8D8D8"></path>
                    <rect id="Rectangle-3" fill="#B09679" transform="translate(15.000000, 19.500000) rotate(-270.000000) translate(-15.000000, -19.500000) " x="11.5" y="5.5" width="7" height="28"></rect>
                </g>
                <path d="M314,181.635463 C335.330248,184.982294 356.360629,190.372841 377.091143,197.807105 C397.821657,205.241369 408.838567,235.93195 410.141872,289.878847 L366.5,289.878847 C373,251.959616 373,229.166667 366.5,221.5 C360,213.833333 342.5,210.333333 314,211 L314,181.635463 Z" id="Path-4" fill="#23ABE3"></path>
                <g id="Labels" transform="translate(0.000000, 59.000000)">
                    <line x1="50.7285714" y1="1" x2="13.2714286" y2="1" id="Line-2" stroke="#B09679" stroke-width="2" stroke-linecap="square"></line>
                    <line x1="50.7285714" y1="144" x2="13.2714286" y2="144" id="Line-2-Copy" stroke="#B09679" stroke-width="2" stroke-linecap="square"></line>
                    <line x1="30" y1="2.5" x2="30" y2="42.5" id="Line-3" stroke="#B09679" stroke-width="2" stroke-linecap="square"></line>
                    <line x1="30" y1="103.5" x2="30" y2="143.5" id="Line-3-Copy" stroke="#B09679" stroke-width="2" stroke-linecap="square"></line>
                    <line x1="258" y1="90" x2="287.5" y2="121.5" id="Line-4" stroke="#B09679" stroke-width="2" stroke-linecap="square" transform="translate(273.000000, 106.000000) scale(-1, 1) translate(-273.000000, -106.000000) "></line>
                    <line x1="306" y1="199" x2="245" y2="207" id="Line-4-Copy" stroke="#B09679" stroke-width="2" stroke-linecap="square"></line>
                    <path d="M299.496,90.312 C300.424,90.312 301.424,89.832 302.496,88.872 C302.624,89.8 303.168,90.264 304.128,90.264 C304.72,90.264 305.248,90.016 305.712,89.52 L305.712,89.52 L305.376,89.064 C305.136,89.304 304.912,89.424 304.704,89.424 C304.336,89.424 304.152,89.112 304.152,88.488 L304.152,88.488 L304.152,84.864 C304.152,83.712 303.896,82.88 303.384,82.368 C302.872,81.856 302.032,81.6 300.864,81.6 C300.064,81.6 299.356,81.78 298.74,82.14 C298.124,82.5 297.816,82.96 297.816,83.52 C297.816,83.76 297.896,83.96 298.056,84.12 C298.216,84.28 298.416,84.36 298.656,84.36 C298.88,84.36 299.072,84.28 299.232,84.12 C299.392,83.96 299.472,83.76 299.472,83.52 C299.472,83.168 299.62,82.888 299.916,82.68 C300.212,82.472 300.52,82.368 300.84,82.368 C301.496,82.368 301.928,82.552 302.136,82.92 C302.344,83.288 302.448,83.944 302.448,84.888 C299.04,85.48 297.336,86.616 297.336,88.296 C297.336,88.92 297.544,89.412 297.96,89.772 C298.376,90.132 298.888,90.312 299.496,90.312 Z M300.264,89.232 C299.944,89.232 299.676,89.12 299.46,88.896 C299.244,88.672 299.136,88.376 299.136,88.008 C299.136,86.936 300.24,86.144 302.448,85.632 L302.448,85.632 L302.448,88.08 C301.584,88.848 300.856,89.232 300.264,89.232 Z M312.096,90 L312.096,89.496 C311.44,89.496 311.028,89.34 310.86,89.028 C310.692,88.716 310.608,87.936 310.608,86.688 L310.608,86.688 L310.608,85.128 C310.608,84.456 310.896,83.888 311.472,83.424 C312.048,82.96 312.584,82.728 313.08,82.728 C314.232,82.728 314.808,83.584 314.808,85.296 L314.808,85.296 L314.808,86.688 C314.808,87.952 314.724,88.736 314.556,89.04 C314.388,89.344 313.968,89.496 313.296,89.496 L313.296,89.496 L313.296,90 L318,90 L318,89.496 C317.328,89.496 316.908,89.344 316.74,89.04 C316.572,88.736 316.488,87.952 316.488,86.688 L316.488,86.688 L316.488,85.128 C316.488,84.456 316.78,83.888 317.364,83.424 C317.948,82.96 318.488,82.728 318.984,82.728 C320.12,82.728 320.688,83.584 320.688,85.296 L320.688,85.296 L320.688,86.688 C320.688,87.952 320.608,88.736 320.448,89.04 C320.288,89.344 319.872,89.496 319.2,89.496 L319.2,89.496 L319.2,90 L324.288,90 L324.288,89.496 C323.488,89.496 322.972,89.328 322.74,88.992 C322.508,88.656 322.392,87.888 322.392,86.688 L322.392,86.688 L322.392,85.176 C322.392,82.792 321.472,81.6 319.632,81.6 C318.976,81.6 318.332,81.788 317.7,82.164 C317.068,82.54 316.592,82.952 316.272,83.4 C315.904,82.2 315.056,81.6 313.728,81.6 C312.56,81.6 311.52,82.176 310.608,83.328 C310.48,82.48 310.344,81.904 310.2,81.6 L310.2,81.6 L307.008,82.2 L307.008,82.704 C307.808,82.704 308.324,82.872 308.556,83.208 C308.788,83.544 308.904,84.304 308.904,85.488 L308.904,85.488 L308.904,86.688 C308.904,87.888 308.788,88.656 308.556,88.992 C308.324,89.328 307.808,89.496 307.008,89.496 L307.008,89.496 L307.008,90 L312.096,90 Z M330.72,96 L330.72,95.496 C329.92,95.496 329.404,95.328 329.172,94.992 C328.94,94.656 328.824,93.896 328.824,92.712 L328.824,92.712 L328.824,88.968 C329.608,89.928 330.592,90.408 331.776,90.408 C332.912,90.408 333.888,89.976 334.704,89.112 C335.52,88.248 335.928,87.208 335.928,85.992 C335.928,84.776 335.52,83.74 334.704,82.884 C333.888,82.028 332.912,81.6 331.776,81.6 C330.608,81.6 329.616,82.088 328.8,83.064 C328.656,82.264 328.536,81.776 328.44,81.6 L328.44,81.6 L325.224,82.2 L325.224,82.704 C326.024,82.704 326.54,82.868 326.772,83.196 C327.004,83.524 327.12,84.288 327.12,85.488 L327.12,85.488 L327.12,92.712 C327.12,93.912 327.004,94.676 326.772,95.004 C326.54,95.332 326.024,95.496 325.224,95.496 L325.224,95.496 L325.224,96 L330.72,96 Z M331.272,89.448 C330.728,89.448 330.244,89.276 329.82,88.932 C329.396,88.588 329.064,88.12 328.824,87.528 L328.824,87.528 L328.824,84.432 C329.064,83.856 329.396,83.4 329.82,83.064 C330.244,82.728 330.728,82.56 331.272,82.56 C332.152,82.56 332.824,82.88 333.288,83.52 C333.752,84.16 333.984,84.984 333.984,85.992 C333.984,87 333.752,87.832 333.288,88.488 C332.824,89.128 332.152,89.448 331.272,89.448 Z M338.736,90.408 C338.736,90.088 338.768,89.872 338.832,89.76 C338.896,89.648 339.008,89.62 339.168,89.676 C339.328,89.732 339.5,89.812 339.684,89.916 C339.868,90.02 340.112,90.128 340.416,90.24 C340.72,90.352 341.016,90.408 341.304,90.408 C342.104,90.408 342.78,90.164 343.332,89.676 C343.884,89.188 344.16,88.56 344.16,87.792 C344.16,86.88 343.608,86.112 342.504,85.488 L342.504,85.488 L341.352,84.864 C340.792,84.56 340.408,84.308 340.2,84.108 C339.992,83.908 339.888,83.672 339.888,83.4 C339.888,83.096 339.992,82.848 340.2,82.656 C340.408,82.464 340.712,82.368 341.112,82.368 C341.688,82.368 342.156,82.572 342.516,82.98 C342.876,83.388 343.056,83.856 343.056,84.384 L343.056,84.384 L343.56,84.384 L343.56,81.6 L343.056,81.6 C343.056,81.92 343.02,82.1 342.948,82.14 C342.876,82.18 342.744,82.144 342.552,82.032 C341.976,81.744 341.416,81.6 340.872,81.6 C340.232,81.6 339.668,81.808 339.18,82.224 C338.692,82.64 338.448,83.16 338.448,83.784 C338.448,84.808 338.976,85.608 340.032,86.184 L340.032,86.184 L341.376,86.904 C342.272,87.384 342.72,87.872 342.72,88.368 C342.72,88.704 342.588,88.992 342.324,89.232 C342.06,89.472 341.736,89.592 341.352,89.592 C340.568,89.592 339.936,89.3 339.456,88.716 C338.976,88.132 338.736,87.528 338.736,86.904 L338.736,86.904 L338.232,86.904 L338.232,90.408 L338.736,90.408 Z M354.576,90 L354.576,89.496 C353.312,89.496 353.144,89.032 354.072,88.104 L354.072,88.104 L355.272,86.832 L356.184,88.104 C356.536,88.568 356.66,88.916 356.556,89.148 C356.452,89.38 356.088,89.496 355.464,89.496 L355.464,89.496 L355.464,90 L360.504,90 L360.504,89.496 C360.008,89.496 359.596,89.396 359.268,89.196 C358.94,88.996 358.592,88.632 358.224,88.104 L358.224,88.104 L356.424,85.608 L358.056,83.904 C358.952,82.96 359.72,82.488 360.36,82.488 L360.36,82.488 L360.36,82.008 L356.448,82.008 L356.448,82.488 C356.96,82.488 357.28,82.604 357.408,82.836 C357.536,83.068 357.384,83.424 356.952,83.904 L356.952,83.904 L355.944,84.96 L355.176,83.904 C354.76,83.36 354.6,82.988 354.696,82.788 C354.792,82.588 355.184,82.488 355.872,82.488 L355.872,82.488 L355.872,82.008 L351.024,82.008 L351.024,82.488 C351.424,82.488 351.768,82.584 352.056,82.776 C352.344,82.968 352.704,83.344 353.136,83.904 L353.136,83.904 L354.792,86.184 L352.968,88.104 C352.04,89.032 351.344,89.496 350.88,89.496 L350.88,89.496 L350.88,90 L354.576,90 Z M376.128,91.896 L376.728,88.608 L370.512,88.608 L374.208,85.776 L374.448,85.632 C374.592,85.52 374.772,85.356 374.988,85.14 C375.204,84.924 375.42,84.688 375.636,84.432 C375.852,84.176 376.036,83.864 376.188,83.496 C376.34,83.128 376.416,82.768 376.416,82.416 C376.416,81.456 375.96,80.68 375.048,80.088 C374.136,79.496 373.064,79.2 371.832,79.2 C370.504,79.2 369.44,79.524 368.64,80.172 C367.84,80.82 367.476,81.572 367.548,82.428 C367.62,83.284 368.12,83.992 369.048,84.552 L369.048,84.552 L369.768,83.808 C369.24,82.816 369.224,81.968 369.72,81.264 C370.216,80.56 370.92,80.208 371.832,80.208 C372.616,80.208 373.244,80.408 373.716,80.808 C374.188,81.208 374.424,81.752 374.424,82.44 C374.424,83.656 373.656,84.872 372.12,86.088 L372.12,86.088 L367.872,89.424 L367.872,90 L372.816,90 C374.016,90 374.784,90.116 375.12,90.348 C375.456,90.58 375.624,91.096 375.624,91.896 L375.624,91.896 L376.128,91.896 Z" id="ampsx2" fill="#524740" fill-rule="nonzero"></path>
                    <path d="M30.176,207.408 C30.272,206.96 30.504,206.584 30.872,206.28 C31.032,206.312 31.312,206.428 31.712,206.628 C32.112,206.828 32.56,207.008 33.056,207.168 C33.552,207.328 34.072,207.408 34.616,207.408 C35.896,207.408 36.98,207.008 37.868,206.208 C38.756,205.408 39.2,204.368 39.2,203.088 C39.2,201.504 38.36,200.288 36.68,199.44 L36.68,199.44 L34.4,198.264 C33.296,197.688 32.532,197.196 32.108,196.788 C31.684,196.38 31.472,195.88 31.472,195.288 C31.472,194.68 31.692,194.172 32.132,193.764 C32.572,193.356 33.128,193.152 33.8,193.152 C36.008,193.152 37.232,194.552 37.472,197.352 L37.472,197.352 L37.976,197.352 L37.976,192.072 L37.496,192.072 C37.4,192.504 37.168,192.872 36.8,193.176 C35.904,192.52 34.928,192.192 33.872,192.192 C32.72,192.192 31.768,192.536 31.016,193.224 C30.264,193.912 29.888,194.76 29.888,195.768 C29.888,196.632 30.144,197.408 30.656,198.096 C31.168,198.784 31.8,199.328 32.552,199.728 L32.552,199.728 L34.856,200.904 C36.696,201.864 37.616,202.832 37.616,203.808 C37.616,204.576 37.332,205.208 36.764,205.704 C36.196,206.2 35.48,206.448 34.616,206.448 C34.024,206.448 33.484,206.368 32.996,206.208 C32.508,206.048 32.116,205.848 31.82,205.608 C31.524,205.368 31.264,205.08 31.04,204.744 C30.816,204.408 30.652,204.104 30.548,203.832 C30.444,203.56 30.364,203.276 30.308,202.98 C30.252,202.684 30.22,202.484 30.212,202.38 C30.204,202.276 30.2,202.192 30.2,202.128 L30.2,202.128 L29.696,202.128 L29.696,207.408 L30.176,207.408 Z M43.448,207.312 C44.376,207.312 45.376,206.832 46.448,205.872 C46.576,206.8 47.12,207.264 48.08,207.264 C48.672,207.264 49.2,207.016 49.664,206.52 L49.664,206.52 L49.328,206.064 C49.088,206.304 48.864,206.424 48.656,206.424 C48.288,206.424 48.104,206.112 48.104,205.488 L48.104,205.488 L48.104,201.864 C48.104,200.712 47.848,199.88 47.336,199.368 C46.824,198.856 45.984,198.6 44.816,198.6 C44.016,198.6 43.308,198.78 42.692,199.14 C42.076,199.5 41.768,199.96 41.768,200.52 C41.768,200.76 41.848,200.96 42.008,201.12 C42.168,201.28 42.368,201.36 42.608,201.36 C42.832,201.36 43.024,201.28 43.184,201.12 C43.344,200.96 43.424,200.76 43.424,200.52 C43.424,200.168 43.572,199.888 43.868,199.68 C44.164,199.472 44.472,199.368 44.792,199.368 C45.448,199.368 45.88,199.552 46.088,199.92 C46.296,200.288 46.4,200.944 46.4,201.888 C42.992,202.48 41.288,203.616 41.288,205.296 C41.288,205.92 41.496,206.412 41.912,206.772 C42.328,207.132 42.84,207.312 43.448,207.312 Z M44.216,206.232 C43.896,206.232 43.628,206.12 43.412,205.896 C43.196,205.672 43.088,205.376 43.088,205.008 C43.088,203.936 44.192,203.144 46.4,202.632 L46.4,202.632 L46.4,205.08 C45.536,205.848 44.808,206.232 44.216,206.232 Z M56.048,207 L56.048,206.496 C55.392,206.496 54.98,206.34 54.812,206.028 C54.644,205.716 54.56,204.936 54.56,203.688 L54.56,203.688 L54.56,202.128 C54.56,201.456 54.848,200.888 55.424,200.424 C56,199.96 56.536,199.728 57.032,199.728 C58.184,199.728 58.76,200.584 58.76,202.296 L58.76,202.296 L58.76,203.688 C58.76,204.952 58.676,205.736 58.508,206.04 C58.34,206.344 57.92,206.496 57.248,206.496 L57.248,206.496 L57.248,207 L61.952,207 L61.952,206.496 C61.28,206.496 60.86,206.344 60.692,206.04 C60.524,205.736 60.44,204.952 60.44,203.688 L60.44,203.688 L60.44,202.128 C60.44,201.456 60.732,200.888 61.316,200.424 C61.9,199.96 62.44,199.728 62.936,199.728 C64.072,199.728 64.64,200.584 64.64,202.296 L64.64,202.296 L64.64,203.688 C64.64,204.952 64.56,205.736 64.4,206.04 C64.24,206.344 63.824,206.496 63.152,206.496 L63.152,206.496 L63.152,207 L68.24,207 L68.24,206.496 C67.44,206.496 66.924,206.328 66.692,205.992 C66.46,205.656 66.344,204.888 66.344,203.688 L66.344,203.688 L66.344,202.176 C66.344,199.792 65.424,198.6 63.584,198.6 C62.928,198.6 62.284,198.788 61.652,199.164 C61.02,199.54 60.544,199.952 60.224,200.4 C59.856,199.2 59.008,198.6 57.68,198.6 C56.512,198.6 55.472,199.176 54.56,200.328 C54.432,199.48 54.296,198.904 54.152,198.6 L54.152,198.6 L50.96,199.2 L50.96,199.704 C51.76,199.704 52.276,199.872 52.508,200.208 C52.74,200.544 52.856,201.304 52.856,202.488 L52.856,202.488 L52.856,203.688 C52.856,204.888 52.74,205.656 52.508,205.992 C52.276,206.328 51.76,206.496 50.96,206.496 L50.96,206.496 L50.96,207 L56.048,207 Z M74.312,207.408 C74.984,207.408 75.656,207.26 76.328,206.964 C77,206.668 77.552,206.288 77.984,205.824 L77.984,205.824 L77.552,205.296 C77.216,205.616 76.792,205.88 76.28,206.088 C75.768,206.296 75.312,206.4 74.912,206.4 C73.728,206.4 72.876,206.028 72.356,205.284 C71.836,204.54 71.648,203.576 71.792,202.392 L71.792,202.392 L77.576,202.392 C77.864,201.384 77.664,200.5 76.976,199.74 C76.288,198.98 75.4,198.6 74.312,198.6 C73.16,198.6 72.132,199.024 71.228,199.872 C70.324,200.72 69.872,201.76 69.872,202.992 C69.872,204.224 70.288,205.268 71.12,206.124 C71.952,206.98 73.016,207.408 74.312,207.408 Z M75.92,201.504 L71.936,201.504 C72.112,200.912 72.404,200.44 72.812,200.088 C73.22,199.736 73.68,199.56 74.192,199.56 C74.912,199.56 75.42,199.772 75.716,200.196 C76.012,200.62 76.08,201.056 75.92,201.504 L75.92,201.504 Z M87.512,207.312 C88.44,207.312 89.44,206.832 90.512,205.872 C90.64,206.8 91.184,207.264 92.144,207.264 C92.736,207.264 93.264,207.016 93.728,206.52 L93.728,206.52 L93.392,206.064 C93.152,206.304 92.928,206.424 92.72,206.424 C92.352,206.424 92.168,206.112 92.168,205.488 L92.168,205.488 L92.168,201.864 C92.168,200.712 91.912,199.88 91.4,199.368 C90.888,198.856 90.048,198.6 88.88,198.6 C88.08,198.6 87.372,198.78 86.756,199.14 C86.14,199.5 85.832,199.96 85.832,200.52 C85.832,200.76 85.912,200.96 86.072,201.12 C86.232,201.28 86.432,201.36 86.672,201.36 C86.896,201.36 87.088,201.28 87.248,201.12 C87.408,200.96 87.488,200.76 87.488,200.52 C87.488,200.168 87.636,199.888 87.932,199.68 C88.228,199.472 88.536,199.368 88.856,199.368 C89.512,199.368 89.944,199.552 90.152,199.92 C90.36,200.288 90.464,200.944 90.464,201.888 C87.056,202.48 85.352,203.616 85.352,205.296 C85.352,205.92 85.56,206.412 85.976,206.772 C86.392,207.132 86.904,207.312 87.512,207.312 Z M88.28,206.232 C87.96,206.232 87.692,206.12 87.476,205.896 C87.26,205.672 87.152,205.376 87.152,205.008 C87.152,203.936 88.256,203.144 90.464,202.632 L90.464,202.632 L90.464,205.08 C89.6,205.848 88.872,206.232 88.28,206.232 Z M100.112,207 L100.112,206.496 C99.456,206.496 99.044,206.34 98.876,206.028 C98.708,205.716 98.624,204.936 98.624,203.688 L98.624,203.688 L98.624,202.128 C98.624,201.456 98.912,200.888 99.488,200.424 C100.064,199.96 100.6,199.728 101.096,199.728 C102.248,199.728 102.824,200.584 102.824,202.296 L102.824,202.296 L102.824,203.688 C102.824,204.952 102.74,205.736 102.572,206.04 C102.404,206.344 101.984,206.496 101.312,206.496 L101.312,206.496 L101.312,207 L106.016,207 L106.016,206.496 C105.344,206.496 104.924,206.344 104.756,206.04 C104.588,205.736 104.504,204.952 104.504,203.688 L104.504,203.688 L104.504,202.128 C104.504,201.456 104.796,200.888 105.38,200.424 C105.964,199.96 106.504,199.728 107,199.728 C108.136,199.728 108.704,200.584 108.704,202.296 L108.704,202.296 L108.704,203.688 C108.704,204.952 108.624,205.736 108.464,206.04 C108.304,206.344 107.888,206.496 107.216,206.496 L107.216,206.496 L107.216,207 L112.304,207 L112.304,206.496 C111.504,206.496 110.988,206.328 110.756,205.992 C110.524,205.656 110.408,204.888 110.408,203.688 L110.408,203.688 L110.408,202.176 C110.408,199.792 109.488,198.6 107.648,198.6 C106.992,198.6 106.348,198.788 105.716,199.164 C105.084,199.54 104.608,199.952 104.288,200.4 C103.92,199.2 103.072,198.6 101.744,198.6 C100.576,198.6 99.536,199.176 98.624,200.328 C98.496,199.48 98.36,198.904 98.216,198.6 L98.216,198.6 L95.024,199.2 L95.024,199.704 C95.824,199.704 96.34,199.872 96.572,200.208 C96.804,200.544 96.92,201.304 96.92,202.488 L96.92,202.488 L96.92,203.688 C96.92,204.888 96.804,205.656 96.572,205.992 C96.34,206.328 95.824,206.496 95.024,206.496 L95.024,206.496 L95.024,207 L100.112,207 Z M118.784,207.408 C120.112,207.408 121.252,206.976 122.204,206.112 C123.156,205.248 123.632,204.208 123.632,202.992 C123.632,201.776 123.152,200.744 122.192,199.896 C121.248,199.032 120.112,198.6 118.784,198.6 C117.456,198.6 116.316,199.028 115.364,199.884 C114.412,200.74 113.936,201.776 113.936,202.992 C113.936,204.208 114.412,205.248 115.364,206.112 C116.316,206.976 117.456,207.408 118.784,207.408 Z M118.784,206.472 C117.84,206.472 117.12,206.144 116.624,205.488 C116.128,204.832 115.88,204 115.88,202.992 C115.88,201.984 116.128,201.152 116.624,200.496 C117.12,199.84 117.84,199.512 118.784,199.512 C119.728,199.512 120.448,199.836 120.944,200.484 C121.44,201.132 121.688,201.968 121.688,202.992 C121.688,204.016 121.44,204.856 120.944,205.512 C120.448,206.152 119.728,206.472 118.784,206.472 Z M133.64,207.408 L136.856,206.808 L136.856,206.304 C136.04,206.304 135.516,206.136 135.284,205.8 C135.052,205.464 134.936,204.696 134.936,203.496 L134.936,203.496 L134.936,199.008 L131.336,199.008 L131.336,199.488 C132.152,199.488 132.676,199.656 132.908,199.992 C133.14,200.328 133.256,201.096 133.256,202.296 L133.256,202.296 L133.256,203.88 C133.256,204.552 132.96,205.116 132.368,205.572 C131.776,206.028 131.208,206.256 130.664,206.256 C129.448,206.256 128.84,205.4 128.84,203.688 L128.84,203.688 L128.84,199.008 L125.24,199.008 L125.24,199.488 C126.04,199.488 126.556,199.656 126.788,199.992 C127.02,200.328 127.136,201.096 127.136,202.296 L127.136,202.296 L127.136,203.808 C127.136,206.208 128.128,207.408 130.112,207.408 C131.216,207.408 132.264,206.896 133.256,205.872 C133.384,206.64 133.512,207.152 133.64,207.408 L133.64,207.408 Z M143.504,207 L143.504,206.496 C142.768,206.496 142.304,206.336 142.112,206.016 C141.92,205.696 141.824,204.92 141.824,203.688 L141.824,203.688 L141.824,202.128 C141.824,201.488 142.112,200.928 142.688,200.448 C143.264,199.968 143.896,199.728 144.584,199.728 C145.912,199.728 146.576,200.584 146.576,202.296 L146.576,202.296 L146.576,203.688 C146.576,204.872 146.456,205.636 146.216,205.98 C145.976,206.324 145.464,206.496 144.68,206.496 L144.68,206.496 L144.68,207 L150.176,207 L150.176,206.496 C149.376,206.496 148.86,206.328 148.628,205.992 C148.396,205.656 148.28,204.888 148.28,203.688 L148.28,203.688 L148.28,202.176 C148.28,201.104 148.02,200.24 147.5,199.584 C146.98,198.928 146.2,198.6 145.16,198.6 C143.848,198.6 142.736,199.176 141.824,200.328 C141.696,199.48 141.56,198.904 141.416,198.6 L141.416,198.6 L138.224,199.2 L138.224,199.704 C139.024,199.704 139.54,199.872 139.772,200.208 C140.004,200.544 140.12,201.304 140.12,202.488 L140.12,202.488 L140.12,203.688 C140.12,204.888 140.004,205.656 139.772,205.992 C139.54,206.328 139.024,206.496 138.224,206.496 L138.224,206.496 L138.224,207 L143.504,207 Z M154.784,207.336 C155.184,207.336 155.62,207.208 156.092,206.952 C156.564,206.696 156.968,206.368 157.304,205.968 L157.304,205.968 L156.896,205.56 C156.32,206.104 155.8,206.376 155.336,206.376 C154.616,206.376 154.256,205.8 154.256,204.648 L154.256,204.648 L154.256,199.848 L156.344,199.848 L156.344,199.008 L154.256,199.008 L154.256,196.368 L153.44,196.368 C153.344,197.2 153.136,197.856 152.816,198.336 C152.496,198.816 151.992,199.128 151.304,199.272 L151.304,199.272 L151.304,199.848 L152.552,199.848 L152.552,204.648 C152.552,205.544 152.752,206.216 153.152,206.664 C153.552,207.112 154.096,207.336 154.784,207.336 Z M169.304,207.408 C170.632,207.408 171.772,206.976 172.724,206.112 C173.676,205.248 174.152,204.208 174.152,202.992 C174.152,201.776 173.672,200.744 172.712,199.896 C171.768,199.032 170.632,198.6 169.304,198.6 C167.976,198.6 166.836,199.028 165.884,199.884 C164.932,200.74 164.456,201.776 164.456,202.992 C164.456,204.208 164.932,205.248 165.884,206.112 C166.836,206.976 167.976,207.408 169.304,207.408 Z M169.304,206.472 C168.36,206.472 167.64,206.144 167.144,205.488 C166.648,204.832 166.4,204 166.4,202.992 C166.4,201.984 166.648,201.152 167.144,200.496 C167.64,199.84 168.36,199.512 169.304,199.512 C170.248,199.512 170.968,199.836 171.464,200.484 C171.96,201.132 172.208,201.968 172.208,202.992 C172.208,204.016 171.96,204.856 171.464,205.512 C170.968,206.152 170.248,206.472 169.304,206.472 Z M181.712,207 L181.712,206.496 C180.912,206.496 180.396,206.328 180.164,205.992 C179.932,205.656 179.816,204.888 179.816,203.688 L179.816,203.688 L179.816,199.848 L182.216,199.848 L182.216,199.008 L179.816,199.008 L179.816,196.704 C179.816,195.36 179.96,194.404 180.248,193.836 C180.536,193.268 180.992,192.984 181.616,192.984 C181.952,192.984 182.216,193.08 182.408,193.272 C182.6,193.464 182.72,193.676 182.768,193.908 C182.816,194.14 182.912,194.352 183.056,194.544 C183.2,194.736 183.4,194.832 183.656,194.832 C183.912,194.832 184.108,194.752 184.244,194.592 C184.38,194.432 184.448,194.224 184.448,193.968 C184.448,193.536 184.232,193.132 183.8,192.756 C183.368,192.38 182.784,192.192 182.048,192.192 C180.944,192.192 180.012,192.564 179.252,193.308 C178.492,194.052 178.112,195.184 178.112,196.704 L178.112,196.704 L178.112,199.008 L176.144,199.008 L176.144,199.848 L178.112,199.848 L178.112,203.688 C178.112,204.888 177.996,205.656 177.764,205.992 C177.532,206.328 177.016,206.496 176.216,206.496 L176.216,206.496 L176.216,207 L181.712,207 Z M193.112,207.432 L195.176,201.888 L197.552,207.432 L198.032,207.432 L200.456,200.904 C200.648,200.376 200.872,200.008 201.128,199.8 C201.384,199.592 201.728,199.488 202.16,199.488 L202.16,199.488 L202.16,199.008 L198.8,199.008 L198.8,199.488 C199.6,199.488 199.832,199.96 199.496,200.904 L199.496,200.904 L198.2,204.648 L195.752,199.008 L195.224,199.008 L193.28,204.648 L191.648,200.904 C191.232,199.96 191.52,199.488 192.512,199.488 L192.512,199.488 L192.512,199.008 L188.168,199.008 L188.168,199.488 C188.536,199.488 188.844,199.592 189.092,199.8 C189.34,200.008 189.576,200.376 189.8,200.904 L189.8,200.904 L192.632,207.432 L193.112,207.432 Z M207.8,207.408 C209.128,207.408 210.268,206.976 211.22,206.112 C212.172,205.248 212.648,204.208 212.648,202.992 C212.648,201.776 212.168,200.744 211.208,199.896 C210.264,199.032 209.128,198.6 207.8,198.6 C206.472,198.6 205.332,199.028 204.38,199.884 C203.428,200.74 202.952,201.776 202.952,202.992 C202.952,204.208 203.428,205.248 204.38,206.112 C205.332,206.976 206.472,207.408 207.8,207.408 Z M207.8,206.472 C206.856,206.472 206.136,206.144 205.64,205.488 C205.144,204.832 204.896,204 204.896,202.992 C204.896,201.984 205.144,201.152 205.64,200.496 C206.136,199.84 206.856,199.512 207.8,199.512 C208.744,199.512 209.464,199.836 209.96,200.484 C210.456,201.132 210.704,201.968 210.704,202.992 C210.704,204.016 210.456,204.856 209.96,205.512 C209.464,206.152 208.744,206.472 207.8,206.472 Z M220.208,207 L220.208,206.496 C219.408,206.496 218.892,206.328 218.66,205.992 C218.428,205.656 218.312,204.888 218.312,203.688 L218.312,203.688 L218.312,202.368 C218.312,201.52 218.528,200.84 218.96,200.328 C219.392,199.816 219.792,199.56 220.16,199.56 C220.672,199.56 220.928,199.824 220.928,200.352 C220.928,200.576 221.012,200.776 221.18,200.952 C221.348,201.128 221.544,201.216 221.768,201.216 C222.408,201.216 222.728,200.84 222.728,200.088 C222.728,199.736 222.564,199.4 222.236,199.08 C221.908,198.76 221.44,198.6 220.832,198.6 C220.352,198.6 219.872,198.768 219.392,199.104 C218.912,199.44 218.552,199.848 218.312,200.328 C218.184,199.48 218.048,198.904 217.904,198.6 L217.904,198.6 L214.712,199.2 L214.712,199.704 C215.512,199.704 216.028,199.872 216.26,200.208 C216.492,200.544 216.608,201.304 216.608,202.488 L216.608,202.488 L216.608,203.688 C216.608,204.888 216.492,205.656 216.26,205.992 C216.028,206.328 215.512,206.496 214.712,206.496 L214.712,206.496 L214.712,207 L220.208,207 Z M229.184,207 L229.184,206.496 C228.384,206.496 227.868,206.328 227.636,205.992 C227.404,205.656 227.288,204.888 227.288,203.688 L227.288,203.688 L227.288,203.256 L227.504,203.088 L231.44,207 L234.104,207 L234.104,206.496 C233.544,206.496 233.072,206.304 232.688,205.92 L232.688,205.92 L228.824,202.032 L230.864,200.352 C231.488,199.856 232.328,199.568 233.384,199.488 L233.384,199.488 L233.384,199.008 L228.584,199.008 L228.584,199.488 C229.176,199.488 229.544,199.62 229.688,199.884 C229.832,200.148 229.704,200.44 229.304,200.76 L229.304,200.76 L227.288,202.392 L227.288,192.192 L223.688,192.792 L223.688,193.296 C224.488,193.296 225.004,193.464 225.236,193.8 C225.468,194.136 225.584,194.904 225.584,196.104 L225.584,196.104 L225.584,203.688 C225.584,204.888 225.468,205.656 225.236,205.992 C225.004,206.328 224.488,206.496 223.688,206.496 L223.688,206.496 L223.688,207 L229.184,207 Z M93.392,229.664 L93.92,229.16 C93.408,228.584 92.984,228.084 92.648,227.66 C92.312,227.236 91.876,226.604 91.34,225.764 C90.804,224.924 90.392,224.008 90.104,223.016 C89.816,222.024 89.672,220.992 89.672,219.92 C89.672,218.848 89.816,217.816 90.104,216.824 C90.392,215.832 90.804,214.916 91.34,214.076 C91.876,213.236 92.312,212.604 92.648,212.18 C92.984,211.756 93.408,211.256 93.92,210.68 L93.92,210.68 L93.368,210.176 C89.784,213.136 87.992,216.384 87.992,219.92 C87.992,223.472 89.792,226.72 93.392,229.664 L93.392,229.664 Z M100.736,227.408 L104.12,216.776 L107.48,227.408 L107.792,227.408 L111.68,215.192 C111.952,214.344 112.256,213.784 112.592,213.512 C112.928,213.24 113.576,213.104 114.536,213.104 L114.536,213.104 L114.536,212.6 L109.136,212.6 L109.136,213.104 C109.984,213.104 110.528,213.24 110.768,213.512 C111.008,213.784 111.024,214.256 110.816,214.928 L110.816,214.928 L108.2,223.184 L104.84,212.6 L104.504,212.6 L101.144,223.208 L98.504,214.928 C98.296,214.24 98.316,213.764 98.564,213.5 C98.812,213.236 99.424,213.104 100.4,213.104 L100.4,213.104 L100.4,212.6 L93.68,212.6 L93.68,213.104 C94.656,213.104 95.304,213.224 95.624,213.464 C95.944,213.704 96.248,214.28 96.536,215.192 L96.536,215.192 L100.424,227.408 L100.736,227.408 Z M116.696,227.312 C117.624,227.312 118.624,226.832 119.696,225.872 C119.824,226.8 120.368,227.264 121.328,227.264 C121.92,227.264 122.448,227.016 122.912,226.52 L122.912,226.52 L122.576,226.064 C122.336,226.304 122.112,226.424 121.904,226.424 C121.536,226.424 121.352,226.112 121.352,225.488 L121.352,225.488 L121.352,221.864 C121.352,220.712 121.096,219.88 120.584,219.368 C120.072,218.856 119.232,218.6 118.064,218.6 C117.264,218.6 116.556,218.78 115.94,219.14 C115.324,219.5 115.016,219.96 115.016,220.52 C115.016,220.76 115.096,220.96 115.256,221.12 C115.416,221.28 115.616,221.36 115.856,221.36 C116.08,221.36 116.272,221.28 116.432,221.12 C116.592,220.96 116.672,220.76 116.672,220.52 C116.672,220.168 116.82,219.888 117.116,219.68 C117.412,219.472 117.72,219.368 118.04,219.368 C118.696,219.368 119.128,219.552 119.336,219.92 C119.544,220.288 119.648,220.944 119.648,221.888 C116.24,222.48 114.536,223.616 114.536,225.296 C114.536,225.92 114.744,226.412 115.16,226.772 C115.576,227.132 116.088,227.312 116.696,227.312 Z M117.464,226.232 C117.144,226.232 116.876,226.12 116.66,225.896 C116.444,225.672 116.336,225.376 116.336,225.008 C116.336,223.936 117.44,223.144 119.648,222.632 L119.648,222.632 L119.648,225.08 C118.784,225.848 118.056,226.232 117.464,226.232 Z M127.448,227.336 C127.848,227.336 128.284,227.208 128.756,226.952 C129.228,226.696 129.632,226.368 129.968,225.968 L129.968,225.968 L129.56,225.56 C128.984,226.104 128.464,226.376 128,226.376 C127.28,226.376 126.92,225.8 126.92,224.648 L126.92,224.648 L126.92,219.848 L129.008,219.848 L129.008,219.008 L126.92,219.008 L126.92,216.368 L126.104,216.368 C126.008,217.2 125.8,217.856 125.48,218.336 C125.16,218.816 124.656,219.128 123.968,219.272 L123.968,219.272 L123.968,219.848 L125.216,219.848 L125.216,224.648 C125.216,225.544 125.416,226.216 125.816,226.664 C126.216,227.112 126.76,227.336 127.448,227.336 Z M134.528,227.336 C134.928,227.336 135.364,227.208 135.836,226.952 C136.308,226.696 136.712,226.368 137.048,225.968 L137.048,225.968 L136.64,225.56 C136.064,226.104 135.544,226.376 135.08,226.376 C134.36,226.376 134,225.8 134,224.648 L134,224.648 L134,219.848 L136.088,219.848 L136.088,219.008 L134,219.008 L134,216.368 L133.184,216.368 C133.088,217.2 132.88,217.856 132.56,218.336 C132.24,218.816 131.736,219.128 131.048,219.272 L131.048,219.272 L131.048,219.848 L132.296,219.848 L132.296,224.648 C132.296,225.544 132.496,226.216 132.896,226.664 C133.296,227.112 133.84,227.336 134.528,227.336 Z M140.528,227.312 C141.456,227.312 142.456,226.832 143.528,225.872 C143.656,226.8 144.2,227.264 145.16,227.264 C145.752,227.264 146.28,227.016 146.744,226.52 L146.744,226.52 L146.408,226.064 C146.168,226.304 145.944,226.424 145.736,226.424 C145.368,226.424 145.184,226.112 145.184,225.488 L145.184,225.488 L145.184,221.864 C145.184,220.712 144.928,219.88 144.416,219.368 C143.904,218.856 143.064,218.6 141.896,218.6 C141.096,218.6 140.388,218.78 139.772,219.14 C139.156,219.5 138.848,219.96 138.848,220.52 C138.848,220.76 138.928,220.96 139.088,221.12 C139.248,221.28 139.448,221.36 139.688,221.36 C139.912,221.36 140.104,221.28 140.264,221.12 C140.424,220.96 140.504,220.76 140.504,220.52 C140.504,220.168 140.652,219.888 140.948,219.68 C141.244,219.472 141.552,219.368 141.872,219.368 C142.528,219.368 142.96,219.552 143.168,219.92 C143.376,220.288 143.48,220.944 143.48,221.888 C140.072,222.48 138.368,223.616 138.368,225.296 C138.368,225.92 138.576,226.412 138.992,226.772 C139.408,227.132 139.92,227.312 140.528,227.312 Z M141.296,226.232 C140.976,226.232 140.708,226.12 140.492,225.896 C140.276,225.672 140.168,225.376 140.168,225.008 C140.168,223.936 141.272,223.144 143.48,222.632 L143.48,222.632 L143.48,225.08 C142.616,225.848 141.888,226.232 141.296,226.232 Z M151.784,233.408 C153,233.408 154.012,233.116 154.82,232.532 C155.628,231.948 156.032,231.168 156.032,230.192 C156.032,229.376 155.688,228.68 155,228.104 C154.312,227.528 153.2,227.176 151.664,227.048 C150.208,226.92 149.48,226.616 149.48,226.136 C149.48,225.672 150.376,225.336 152.168,225.128 C153,225.016 153.728,224.656 154.352,224.048 C154.976,223.44 155.288,222.712 155.288,221.864 C155.288,221.128 155.056,220.48 154.592,219.92 C154.848,219.664 155.096,219.536 155.336,219.536 C155.56,219.536 155.724,219.596 155.828,219.716 C155.932,219.836 155.996,219.964 156.02,220.1 C156.044,220.236 156.116,220.36 156.236,220.472 C156.356,220.584 156.536,220.632 156.776,220.616 C156.904,220.616 157.016,220.576 157.112,220.496 C157.4,220.272 157.472,219.936 157.328,219.488 C157.136,218.896 156.688,218.6 155.984,218.6 C155.712,218.6 155.396,218.688 155.036,218.864 C154.676,219.04 154.392,219.256 154.184,219.512 C153.496,218.904 152.672,218.6 151.712,218.6 C150.72,218.6 149.876,218.92 149.18,219.56 C148.484,220.2 148.136,220.968 148.136,221.864 C148.136,222.504 148.316,223.08 148.676,223.592 C149.036,224.104 149.528,224.504 150.152,224.792 C148.808,225.208 148.136,225.848 148.136,226.712 C148.136,227.976 149.272,228.72 151.544,228.944 C152.648,229.056 153.46,229.232 153.98,229.472 C154.5,229.712 154.76,230.096 154.76,230.624 C154.76,231.168 154.46,231.612 153.86,231.956 C153.26,232.3 152.568,232.472 151.784,232.472 C151.288,232.472 150.812,232.4 150.356,232.256 C149.9,232.112 149.516,231.912 149.204,231.656 C148.892,231.4 148.752,231.052 148.784,230.612 C148.816,230.172 149.064,229.688 149.528,229.16 L149.528,229.16 L149.096,228.896 C148.136,229.392 147.624,230 147.56,230.72 C147.496,231.44 147.86,232.068 148.652,232.604 C149.444,233.14 150.488,233.408 151.784,233.408 Z M151.712,224.336 C151.152,224.336 150.72,224.108 150.416,223.652 C150.112,223.196 149.96,222.6 149.96,221.864 C149.96,221.128 150.112,220.528 150.416,220.064 C150.72,219.6 151.152,219.368 151.712,219.368 C152.272,219.368 152.7,219.6 152.996,220.064 C153.292,220.528 153.44,221.128 153.44,221.864 C153.44,222.6 153.288,223.2 152.984,223.664 C152.696,224.112 152.272,224.336 151.712,224.336 Z M162.872,227.408 C163.544,227.408 164.216,227.26 164.888,226.964 C165.56,226.668 166.112,226.288 166.544,225.824 L166.544,225.824 L166.112,225.296 C165.776,225.616 165.352,225.88 164.84,226.088 C164.328,226.296 163.872,226.4 163.472,226.4 C162.288,226.4 161.436,226.028 160.916,225.284 C160.396,224.54 160.208,223.576 160.352,222.392 L160.352,222.392 L166.136,222.392 C166.424,221.384 166.224,220.5 165.536,219.74 C164.848,218.98 163.96,218.6 162.872,218.6 C161.72,218.6 160.692,219.024 159.788,219.872 C158.884,220.72 158.432,221.76 158.432,222.992 C158.432,224.224 158.848,225.268 159.68,226.124 C160.512,226.98 161.576,227.408 162.872,227.408 Z M164.48,221.504 L160.496,221.504 C160.672,220.912 160.964,220.44 161.372,220.088 C161.78,219.736 162.24,219.56 162.752,219.56 C163.472,219.56 163.98,219.772 164.276,220.196 C164.572,220.62 164.64,221.056 164.48,221.504 L164.48,221.504 Z M168.632,229.664 C172.216,226.736 174.008,223.488 174.008,219.92 C174.008,216.368 172.224,213.12 168.656,210.176 L168.656,210.176 L168.08,210.68 C168.608,211.272 169.036,211.776 169.364,212.192 C169.692,212.608 170.128,213.236 170.672,214.076 C171.216,214.916 171.632,215.832 171.92,216.824 C172.208,217.816 172.352,218.848 172.352,219.92 C172.352,220.992 172.208,222.024 171.92,223.016 C171.632,224.008 171.216,224.924 170.672,225.764 C170.128,226.604 169.692,227.232 169.364,227.648 C169.036,228.064 168.608,228.568 168.08,229.16 L168.08,229.16 L168.632,229.664 Z" id="Sameamountofwork(Wattage)" fill="#524740" fill-rule="nonzero"></path>
                    <path d="M5.596,79.432 L8.308,72.904 C8.532,72.376 8.768,72.008 9.016,71.8 C9.264,71.592 9.596,71.488 10.012,71.488 L10.012,71.488 L10.012,71.008 L6.652,71.008 L6.652,71.488 C7.164,71.488 7.468,71.596 7.564,71.812 C7.66,72.028 7.588,72.392 7.348,72.904 L7.348,72.904 L5.764,76.744 L4.06,72.904 C3.82,72.328 3.748,71.948 3.844,71.764 C3.94,71.58 4.26,71.488 4.804,71.488 L4.804,71.488 L4.804,71.008 L0.556,71.008 L0.556,71.488 C0.94,71.488 1.248,71.592 1.48,71.8 C1.712,72.008 1.948,72.376 2.188,72.904 L2.188,72.904 L5.116,79.432 L5.596,79.432 Z M15.724,79.408 C17.052,79.408 18.192,78.976 19.144,78.112 C20.096,77.248 20.572,76.208 20.572,74.992 C20.572,73.776 20.092,72.744 19.132,71.896 C18.188,71.032 17.052,70.6 15.724,70.6 C14.396,70.6 13.256,71.028 12.304,71.884 C11.352,72.74 10.876,73.776 10.876,74.992 C10.876,76.208 11.352,77.248 12.304,78.112 C13.256,78.976 14.396,79.408 15.724,79.408 Z M15.724,78.472 C14.78,78.472 14.06,78.144 13.564,77.488 C13.068,76.832 12.82,76 12.82,74.992 C12.82,73.984 13.068,73.152 13.564,72.496 C14.06,71.84 14.78,71.512 15.724,71.512 C16.668,71.512 17.388,71.836 17.884,72.484 C18.38,73.132 18.628,73.968 18.628,74.992 C18.628,76.016 18.38,76.856 17.884,77.512 C17.388,78.152 16.668,78.472 15.724,78.472 Z M27.676,79 L27.676,78.496 C26.876,78.496 26.36,78.328 26.128,77.992 C25.896,77.656 25.78,76.888 25.78,75.688 L25.78,75.688 L25.78,64.192 L22.18,64.792 L22.18,65.296 C22.98,65.296 23.496,65.464 23.728,65.8 C23.96,66.136 24.076,66.904 24.076,68.104 L24.076,68.104 L24.076,75.688 C24.076,76.888 23.96,77.656 23.728,77.992 C23.496,78.328 22.98,78.496 22.18,78.496 L22.18,78.496 L22.18,79 L27.676,79 Z M32.308,79.336 C32.708,79.336 33.144,79.208 33.616,78.952 C34.088,78.696 34.492,78.368 34.828,77.968 L34.828,77.968 L34.42,77.56 C33.844,78.104 33.324,78.376 32.86,78.376 C32.14,78.376 31.78,77.8 31.78,76.648 L31.78,76.648 L31.78,71.848 L33.868,71.848 L33.868,71.008 L31.78,71.008 L31.78,68.368 L30.964,68.368 C30.868,69.2 30.66,69.856 30.34,70.336 C30.02,70.816 29.516,71.128 28.828,71.272 L28.828,71.272 L28.828,71.848 L30.076,71.848 L30.076,76.648 C30.076,77.544 30.276,78.216 30.676,78.664 C31.076,79.112 31.62,79.336 32.308,79.336 Z M36.892,79.408 C36.892,79.088 36.924,78.872 36.988,78.76 C37.052,78.648 37.164,78.62 37.324,78.676 C37.484,78.732 37.656,78.812 37.84,78.916 C38.024,79.02 38.268,79.128 38.572,79.24 C38.876,79.352 39.172,79.408 39.46,79.408 C40.26,79.408 40.936,79.164 41.488,78.676 C42.04,78.188 42.316,77.56 42.316,76.792 C42.316,75.88 41.764,75.112 40.66,74.488 L40.66,74.488 L39.508,73.864 C38.948,73.56 38.564,73.308 38.356,73.108 C38.148,72.908 38.044,72.672 38.044,72.4 C38.044,72.096 38.148,71.848 38.356,71.656 C38.564,71.464 38.868,71.368 39.268,71.368 C39.844,71.368 40.312,71.572 40.672,71.98 C41.032,72.388 41.212,72.856 41.212,73.384 L41.212,73.384 L41.716,73.384 L41.716,70.6 L41.212,70.6 C41.212,70.92 41.176,71.1 41.104,71.14 C41.032,71.18 40.9,71.144 40.708,71.032 C40.132,70.744 39.572,70.6 39.028,70.6 C38.388,70.6 37.824,70.808 37.336,71.224 C36.848,71.64 36.604,72.16 36.604,72.784 C36.604,73.808 37.132,74.608 38.188,75.184 L38.188,75.184 L39.532,75.904 C40.428,76.384 40.876,76.872 40.876,77.368 C40.876,77.704 40.744,77.992 40.48,78.232 C40.216,78.472 39.892,78.592 39.508,78.592 C38.724,78.592 38.092,78.3 37.612,77.716 C37.132,77.132 36.892,76.528 36.892,75.904 L36.892,75.904 L36.388,75.904 L36.388,79.408 L36.892,79.408 Z M44.596,79.432 L51.508,64.504 L50.548,64.168 L43.636,79.096 L44.596,79.432 Z M61.78,80.896 L62.38,77.608 L56.164,77.608 L59.86,74.776 L60.1,74.632 C60.244,74.52 60.424,74.356 60.64,74.14 C60.856,73.924 61.072,73.688 61.288,73.432 C61.504,73.176 61.688,72.864 61.84,72.496 C61.992,72.128 62.068,71.768 62.068,71.416 C62.068,70.456 61.612,69.68 60.7,69.088 C59.788,68.496 58.716,68.2 57.484,68.2 C56.156,68.2 55.092,68.524 54.292,69.172 C53.492,69.82 53.128,70.572 53.2,71.428 C53.272,72.284 53.772,72.992 54.7,73.552 L54.7,73.552 L55.42,72.808 C54.892,71.816 54.876,70.968 55.372,70.264 C55.868,69.56 56.572,69.208 57.484,69.208 C58.268,69.208 58.896,69.408 59.368,69.808 C59.84,70.208 60.076,70.752 60.076,71.44 C60.076,72.656 59.308,73.872 57.772,75.088 L57.772,75.088 L53.524,78.424 L53.524,79 L58.468,79 C59.668,79 60.436,79.116 60.772,79.348 C61.108,79.58 61.276,80.096 61.276,80.896 L61.276,80.896 L61.78,80.896 Z" id="volts/2" fill="#524740" fill-rule="nonzero"></path>
                </g>
                <g id="Water-Wheel" transform="translate(314.000000, 197.000000)">
                    <line x1="46" y1="0.5" x2="46" y2="91.5" id="Line-5" stroke="#B09679" stroke-width="4" stroke-linecap="square"></line>
                    <line x1="45.5" y1="-1.42108547e-14" x2="45.5" y2="91" id="Line-5-Copy" stroke="#B09679" stroke-width="4" stroke-linecap="square" transform="translate(45.500000, 45.500000) rotate(-270.000000) translate(-45.500000, -45.500000) "></line>
                    <line x1="45.4038059" y1="-0.596194078" x2="45.4038059" y2="90.4038059" id="Line-5-Copy-2" stroke="#B09679" stroke-width="4" stroke-linecap="square" transform="translate(45.403806, 44.903806) rotate(-225.000000) translate(-45.403806, -44.903806) "></line>
                    <line x1="12.9228355" y1="78.0771645" x2="77.2695526" y2="13.7304474" id="Line-5-Copy-3" stroke="#B09679" stroke-width="4" stroke-linecap="square"></line>
                    <circle id="Oval-Copy-2" stroke="#555555" stroke-width="2" cx="45.5" cy="45.5" r="45.5"></circle>
                    <circle id="Oval" fill="#B09679" cx="45.5" cy="45.5" r="24.5"></circle>
                    <circle id="Oval-Copy" fill="#555555" cx="45.5" cy="45.5" r="7.5"></circle>
                </g>
            </g>
            <g id="Water-1">
                <g id="Water-Tower" transform="translate(84.000000, 0.000000)" stroke="#555555">
                    <line x1="40.5" y1="123.5" x2="59.5" y2="285.5" id="Line-Copy-2" stroke-width="6" transform="translate(50.000000, 204.500000) scale(-1, 1) translate(-50.000000, -204.500000) "></line>
                    <line x1="106.5" y1="123.5" x2="125.5" y2="285.5" id="Line-Copy-3" stroke-width="6"></line>
                    <path d="M89,159 L75,159 L75,289 L200,289 L200,275 L89,275 L89,159 Z" id="Combined-Shape" stroke-width="2" fill="#23ABE3"></path>
                    <line x1="145.5" y1="153.5" x2="164.5" y2="315.5" id="Line" stroke-width="6"></line>
                    <line x1="0.5" y1="153.5" x2="19.5" y2="315.5" id="Line-Copy" stroke-width="6" transform="translate(10.000000, 234.500000) scale(-1, 1) translate(-10.000000, -234.500000) "></line>
                    <path d="M2,30.8945312 L2,147.894531 C21.3333333,158.561198 47,163.894531 79,163.894531 C111,163.894531 139.333333,158.561198 164,147.894531 L164,30.8945312 C137,21.6315104 110,17 83,17 C56,17 29,21.6315104 2,30.8945312 Z" id="Path-3" stroke-width="2" fill="#D8D8D8"></path>
                    <path d="M2,57 L2,147.109406 C21.3333333,158.299489 47,163.894531 79,163.894531 C111,163.894531 139.333333,158.299489 164,147.109406 L164,57 C137,52.3333333 110,50 83,50 C56,50 29,52.3333333 2,57 Z" id="Path-3-Copy" fill="#23ABE3"></path>
                    <path d="M2,31 L83.4909091,0 L164,31 C148.63608,23.0703125 121.799716,19.1054687 83.4909091,19.1054687 C45.1821023,19.1054687 18.0184659,23.0703125 2,31 Z" id="Path-2" stroke-width="2" fill="#D8D8D8"></path>
                </g>
                <g id="Valve" transform="translate(269.000000, 269.000000)" stroke="#555555">
                    <rect id="Rectangle-2" fill="#D8D8D8" x="14.5" y="0.5" width="23" height="24"></rect>
                    <rect id="Rectangle-3" fill="#B09679" transform="translate(15.000000, 12.500000) rotate(-270.000000) translate(-15.000000, -12.500000) " x="11.5" y="-1.5" width="7" height="28"></rect>
                </g>
                <path d="M307,275 C334.666667,275 354.166667,277.666667 365.5,283 C376.833333,288.333333 390.5,314.666667 406.5,362 L365.5,362 C368,329.333333 366,309.166667 359.5,301.5 C353,293.833333 335.5,290.333333 307,291 L307,275 Z" id="Path-4" fill="#23ABE3"></path>
                <g id="Labels" transform="translate(0.000000, 59.000000)">
                    <line x1="48.6571429" y1="1" x2="1.34285714" y2="1" id="Line-2" stroke="#B09679" stroke-width="2" stroke-linecap="square"></line>
                    <line x1="48.6571429" y1="224" x2="1.34285714" y2="224" id="Line-2-Copy" stroke="#B09679" stroke-width="2" stroke-linecap="square"></line>
                    <line x1="23" y1="1.5" x2="23" y2="81.5" id="Line-3" stroke="#B09679" stroke-width="2" stroke-linecap="square"></line>
                    <line x1="268" y1="210" x2="300" y2="188" id="Line-4-Copy" stroke="#B09679" stroke-width="2" stroke-linecap="square"></line>
                    <path d="M312.164,191.312 C313.092,191.312 314.092,190.832 315.164,189.872 C315.292,190.8 315.836,191.264 316.796,191.264 C317.388,191.264 317.916,191.016 318.38,190.52 L318.38,190.52 L318.044,190.064 C317.804,190.304 317.58,190.424 317.372,190.424 C317.004,190.424 316.82,190.112 316.82,189.488 L316.82,189.488 L316.82,185.864 C316.82,184.712 316.564,183.88 316.052,183.368 C315.54,182.856 314.7,182.6 313.532,182.6 C312.732,182.6 312.024,182.78 311.408,183.14 C310.792,183.5 310.484,183.96 310.484,184.52 C310.484,184.76 310.564,184.96 310.724,185.12 C310.884,185.28 311.084,185.36 311.324,185.36 C311.548,185.36 311.74,185.28 311.9,185.12 C312.06,184.96 312.14,184.76 312.14,184.52 C312.14,184.168 312.288,183.888 312.584,183.68 C312.88,183.472 313.188,183.368 313.508,183.368 C314.164,183.368 314.596,183.552 314.804,183.92 C315.012,184.288 315.116,184.944 315.116,185.888 C311.708,186.48 310.004,187.616 310.004,189.296 C310.004,189.92 310.212,190.412 310.628,190.772 C311.044,191.132 311.556,191.312 312.164,191.312 Z M312.932,190.232 C312.612,190.232 312.344,190.12 312.128,189.896 C311.912,189.672 311.804,189.376 311.804,189.008 C311.804,187.936 312.908,187.144 315.116,186.632 L315.116,186.632 L315.116,189.08 C314.252,189.848 313.524,190.232 312.932,190.232 Z M324.764,191 L324.764,190.496 C324.108,190.496 323.696,190.34 323.528,190.028 C323.36,189.716 323.276,188.936 323.276,187.688 L323.276,187.688 L323.276,186.128 C323.276,185.456 323.564,184.888 324.14,184.424 C324.716,183.96 325.252,183.728 325.748,183.728 C326.9,183.728 327.476,184.584 327.476,186.296 L327.476,186.296 L327.476,187.688 C327.476,188.952 327.392,189.736 327.224,190.04 C327.056,190.344 326.636,190.496 325.964,190.496 L325.964,190.496 L325.964,191 L330.668,191 L330.668,190.496 C329.996,190.496 329.576,190.344 329.408,190.04 C329.24,189.736 329.156,188.952 329.156,187.688 L329.156,187.688 L329.156,186.128 C329.156,185.456 329.448,184.888 330.032,184.424 C330.616,183.96 331.156,183.728 331.652,183.728 C332.788,183.728 333.356,184.584 333.356,186.296 L333.356,186.296 L333.356,187.688 C333.356,188.952 333.276,189.736 333.116,190.04 C332.956,190.344 332.54,190.496 331.868,190.496 L331.868,190.496 L331.868,191 L336.956,191 L336.956,190.496 C336.156,190.496 335.64,190.328 335.408,189.992 C335.176,189.656 335.06,188.888 335.06,187.688 L335.06,187.688 L335.06,186.176 C335.06,183.792 334.14,182.6 332.3,182.6 C331.644,182.6 331,182.788 330.368,183.164 C329.736,183.54 329.26,183.952 328.94,184.4 C328.572,183.2 327.724,182.6 326.396,182.6 C325.228,182.6 324.188,183.176 323.276,184.328 C323.148,183.48 323.012,182.904 322.868,182.6 L322.868,182.6 L319.676,183.2 L319.676,183.704 C320.476,183.704 320.992,183.872 321.224,184.208 C321.456,184.544 321.572,185.304 321.572,186.488 L321.572,186.488 L321.572,187.688 C321.572,188.888 321.456,189.656 321.224,189.992 C320.992,190.328 320.476,190.496 319.676,190.496 L319.676,190.496 L319.676,191 L324.764,191 Z M343.388,197 L343.388,196.496 C342.588,196.496 342.072,196.328 341.84,195.992 C341.608,195.656 341.492,194.896 341.492,193.712 L341.492,193.712 L341.492,189.968 C342.276,190.928 343.26,191.408 344.444,191.408 C345.58,191.408 346.556,190.976 347.372,190.112 C348.188,189.248 348.596,188.208 348.596,186.992 C348.596,185.776 348.188,184.74 347.372,183.884 C346.556,183.028 345.58,182.6 344.444,182.6 C343.276,182.6 342.284,183.088 341.468,184.064 C341.324,183.264 341.204,182.776 341.108,182.6 L341.108,182.6 L337.892,183.2 L337.892,183.704 C338.692,183.704 339.208,183.868 339.44,184.196 C339.672,184.524 339.788,185.288 339.788,186.488 L339.788,186.488 L339.788,193.712 C339.788,194.912 339.672,195.676 339.44,196.004 C339.208,196.332 338.692,196.496 337.892,196.496 L337.892,196.496 L337.892,197 L343.388,197 Z M343.94,190.448 C343.396,190.448 342.912,190.276 342.488,189.932 C342.064,189.588 341.732,189.12 341.492,188.528 L341.492,188.528 L341.492,185.432 C341.732,184.856 342.064,184.4 342.488,184.064 C342.912,183.728 343.396,183.56 343.94,183.56 C344.82,183.56 345.492,183.88 345.956,184.52 C346.42,185.16 346.652,185.984 346.652,186.992 C346.652,188 346.42,188.832 345.956,189.488 C345.492,190.128 344.82,190.448 343.94,190.448 Z M351.404,191.408 C351.404,191.088 351.436,190.872 351.5,190.76 C351.564,190.648 351.676,190.62 351.836,190.676 C351.996,190.732 352.168,190.812 352.352,190.916 C352.536,191.02 352.78,191.128 353.084,191.24 C353.388,191.352 353.684,191.408 353.972,191.408 C354.772,191.408 355.448,191.164 356,190.676 C356.552,190.188 356.828,189.56 356.828,188.792 C356.828,187.88 356.276,187.112 355.172,186.488 L355.172,186.488 L354.02,185.864 C353.46,185.56 353.076,185.308 352.868,185.108 C352.66,184.908 352.556,184.672 352.556,184.4 C352.556,184.096 352.66,183.848 352.868,183.656 C353.076,183.464 353.38,183.368 353.78,183.368 C354.356,183.368 354.824,183.572 355.184,183.98 C355.544,184.388 355.724,184.856 355.724,185.384 L355.724,185.384 L356.228,185.384 L356.228,182.6 L355.724,182.6 C355.724,182.92 355.688,183.1 355.616,183.14 C355.544,183.18 355.412,183.144 355.22,183.032 C354.644,182.744 354.084,182.6 353.54,182.6 C352.9,182.6 352.336,182.808 351.848,183.224 C351.36,183.64 351.116,184.16 351.116,184.784 C351.116,185.808 351.644,186.608 352.7,187.184 L352.7,187.184 L354.044,187.904 C354.94,188.384 355.388,188.872 355.388,189.368 C355.388,189.704 355.256,189.992 354.992,190.232 C354.728,190.472 354.404,190.592 354.02,190.592 C353.236,190.592 352.604,190.3 352.124,189.716 C351.644,189.132 351.404,188.528 351.404,187.904 L351.404,187.904 L350.9,187.904 L350.9,191.408 L351.404,191.408 Z" id="amps" fill="#524740" fill-rule="nonzero"></path>
                    <path d="M5.512,119.432 L8.224,112.904 C8.448,112.376 8.684,112.008 8.932,111.8 C9.18,111.592 9.512,111.488 9.928,111.488 L9.928,111.488 L9.928,111.008 L6.568,111.008 L6.568,111.488 C7.08,111.488 7.384,111.596 7.48,111.812 C7.576,112.028 7.504,112.392 7.264,112.904 L7.264,112.904 L5.68,116.744 L3.976,112.904 C3.736,112.328 3.664,111.948 3.76,111.764 C3.856,111.58 4.176,111.488 4.72,111.488 L4.72,111.488 L4.72,111.008 L0.472,111.008 L0.472,111.488 C0.856,111.488 1.164,111.592 1.396,111.8 C1.628,112.008 1.864,112.376 2.104,112.904 L2.104,112.904 L5.032,119.432 L5.512,119.432 Z M15.64,119.408 C16.968,119.408 18.108,118.976 19.06,118.112 C20.012,117.248 20.488,116.208 20.488,114.992 C20.488,113.776 20.008,112.744 19.048,111.896 C18.104,111.032 16.968,110.6 15.64,110.6 C14.312,110.6 13.172,111.028 12.22,111.884 C11.268,112.74 10.792,113.776 10.792,114.992 C10.792,116.208 11.268,117.248 12.22,118.112 C13.172,118.976 14.312,119.408 15.64,119.408 Z M15.64,118.472 C14.696,118.472 13.976,118.144 13.48,117.488 C12.984,116.832 12.736,116 12.736,114.992 C12.736,113.984 12.984,113.152 13.48,112.496 C13.976,111.84 14.696,111.512 15.64,111.512 C16.584,111.512 17.304,111.836 17.8,112.484 C18.296,113.132 18.544,113.968 18.544,114.992 C18.544,116.016 18.296,116.856 17.8,117.512 C17.304,118.152 16.584,118.472 15.64,118.472 Z M27.592,119 L27.592,118.496 C26.792,118.496 26.276,118.328 26.044,117.992 C25.812,117.656 25.696,116.888 25.696,115.688 L25.696,115.688 L25.696,104.192 L22.096,104.792 L22.096,105.296 C22.896,105.296 23.412,105.464 23.644,105.8 C23.876,106.136 23.992,106.904 23.992,108.104 L23.992,108.104 L23.992,115.688 C23.992,116.888 23.876,117.656 23.644,117.992 C23.412,118.328 22.896,118.496 22.096,118.496 L22.096,118.496 L22.096,119 L27.592,119 Z M32.224,119.336 C32.624,119.336 33.06,119.208 33.532,118.952 C34.004,118.696 34.408,118.368 34.744,117.968 L34.744,117.968 L34.336,117.56 C33.76,118.104 33.24,118.376 32.776,118.376 C32.056,118.376 31.696,117.8 31.696,116.648 L31.696,116.648 L31.696,111.848 L33.784,111.848 L33.784,111.008 L31.696,111.008 L31.696,108.368 L30.88,108.368 C30.784,109.2 30.576,109.856 30.256,110.336 C29.936,110.816 29.432,111.128 28.744,111.272 L28.744,111.272 L28.744,111.848 L29.992,111.848 L29.992,116.648 C29.992,117.544 30.192,118.216 30.592,118.664 C30.992,119.112 31.536,119.336 32.224,119.336 Z M36.808,119.408 C36.808,119.088 36.84,118.872 36.904,118.76 C36.968,118.648 37.08,118.62 37.24,118.676 C37.4,118.732 37.572,118.812 37.756,118.916 C37.94,119.02 38.184,119.128 38.488,119.24 C38.792,119.352 39.088,119.408 39.376,119.408 C40.176,119.408 40.852,119.164 41.404,118.676 C41.956,118.188 42.232,117.56 42.232,116.792 C42.232,115.88 41.68,115.112 40.576,114.488 L40.576,114.488 L39.424,113.864 C38.864,113.56 38.48,113.308 38.272,113.108 C38.064,112.908 37.96,112.672 37.96,112.4 C37.96,112.096 38.064,111.848 38.272,111.656 C38.48,111.464 38.784,111.368 39.184,111.368 C39.76,111.368 40.228,111.572 40.588,111.98 C40.948,112.388 41.128,112.856 41.128,113.384 L41.128,113.384 L41.632,113.384 L41.632,110.6 L41.128,110.6 C41.128,110.92 41.092,111.1 41.02,111.14 C40.948,111.18 40.816,111.144 40.624,111.032 C40.048,110.744 39.488,110.6 38.944,110.6 C38.304,110.6 37.74,110.808 37.252,111.224 C36.764,111.64 36.52,112.16 36.52,112.784 C36.52,113.808 37.048,114.608 38.104,115.184 L38.104,115.184 L39.448,115.904 C40.344,116.384 40.792,116.872 40.792,117.368 C40.792,117.704 40.66,117.992 40.396,118.232 C40.132,118.472 39.808,118.592 39.424,118.592 C38.64,118.592 38.008,118.3 37.528,117.716 C37.048,117.132 36.808,116.528 36.808,115.904 L36.808,115.904 L36.304,115.904 L36.304,119.408 L36.808,119.408 Z" id="volts" fill="#524740" fill-rule="nonzero"></path>
                    <line x1="23" y1="143.5" x2="23" y2="223.5" id="Line-3-Copy" stroke="#B09679" stroke-width="2" stroke-linecap="square"></line>
                </g>
                <g id="Water-Wheel" transform="translate(306.000000, 276.000000)">
                    <line x1="40" y1="0.5" x2="40" y2="78.5" id="Line-5" stroke="#B09679" stroke-width="4" stroke-linecap="square"></line>
                    <line x1="40" y1="0.5" x2="40" y2="78.5" id="Line-5-Copy" stroke="#B09679" stroke-width="4" stroke-linecap="square" transform="translate(40.000000, 39.500000) rotate(-270.000000) translate(-40.000000, -39.500000) "></line>
                    <line x1="40" y1="0.5" x2="40" y2="78.5" id="Line-5-Copy-2" stroke="#B09679" stroke-width="4" stroke-linecap="square" transform="translate(40.000000, 39.500000) rotate(-225.000000) translate(-40.000000, -39.500000) "></line>
                    <line x1="11.9228355" y1="67.0771645" x2="67.0771645" y2="11.9228355" id="Line-5-Copy-3" stroke="#B09679" stroke-width="4" stroke-linecap="square"></line>
                    <circle id="Oval-Copy-2" stroke="#555555" stroke-width="2" cx="39.5" cy="39.5" r="38.5"></circle>
                    <circle id="Oval" fill="#B09679" cx="39.5" cy="39.5" r="22.5"></circle>
                    <circle id="Oval-Copy" fill="#555555" cx="39.5" cy="39.5" r="7.5"></circle>
                </g>
                <line x1="441" y1="340" x2="383" y2="315" id="Path-11" stroke="#B09679" stroke-width="2"></line>
            </g>
        </g>
    </g>
</svg>