<?xml version="1.0" standalone="no"?>
<!DOCTYPE svg PUBLIC "-//W3C//DTD SVG 1.1//EN" "http://www.w3.org/Graphics/SVG/1.1/DTD/svg11.dtd" >
<svg xmlns="http://www.w3.org/2000/svg" xmlns:xlink="http://www.w3.org/1999/xlink" version="1.1">
<metadata>
Created by FontForge 20170910 at Wed May 31 11:04:31 2017
 By Jimmy Wärting
Copyright \(c\) 2017 by Graham Paterson. All rights reserved.
</metadata>
<defs>
<font id="Wavehaus-158ExtraBold" horiz-adv-x="606" >
  <font-face 
    font-family="Wavehaus 158 ExtraBold"
    font-weight="800"
    font-stretch="normal"
    units-per-em="1000"
    panose-1="0 0 9 0 0 0 0 0 0 0"
    ascent="800"
    descent="-200"
    x-height="500"
    cap-height="671"
    bbox="-61 -245 946 880"
    underline-thickness="50"
    underline-position="-100"
    unicode-range="U+0020-2212"
  />
<missing-glyph horiz-adv-x="491" 
d="M402 745v-981h-311v981h311zM327 679h-162v-32h64v-36h-65v-33h163v33h-65v36h65v32zM262 553h-98v-102h163v33h-65v69zM229 519v-35h-33v35h33zM327 424h-163v-32h65v-36h-65v-33h98v69h65v32zM327 365h-33v-64h-130v-34h163v98zM327 246h-98v-55h33v22h32v-46h-98v79
h-32v-111h163v111zM327 76h-163v-111h163v111zM294 44v-47h-98v47h98zM327 -57h-163v-33h68l-68 -46v-32h163v32h-100l68 46h32v33z" />
    <glyph glyph-name=".notdef" horiz-adv-x="491" 
d="M402 745v-981h-311v981h311zM327 679h-162v-32h64v-36h-65v-33h163v33h-65v36h65v32zM262 553h-98v-102h163v33h-65v69zM229 519v-35h-33v35h33zM327 424h-163v-32h65v-36h-65v-33h98v69h65v32zM327 365h-33v-64h-130v-34h163v98zM327 246h-98v-55h33v22h32v-46h-98v79
h-32v-111h163v111zM327 76h-163v-111h163v111zM294 44v-47h-98v47h98zM327 -57h-163v-33h68l-68 -46v-32h163v32h-100l68 46h32v33z" />
    <glyph glyph-name="A" unicode="A" horiz-adv-x="736" 
d="M542 0l-51 139h-246l-51 -139h-168l268 671h148l268 -671h-168zM304 297h128l-64 174z" />
    <glyph glyph-name="B" unicode="B" horiz-adv-x="594" 
d="M44 0v671h248c168 0 268 -93 268 -207c0 -49 -18 -93 -51 -129c33 -35 51 -79 51 -128c0 -114 -100 -207 -268 -207h-248zM202 397h90c66 0 110 25 110 63s-44 63 -110 63h-90v-126zM202 148h90c66 0 110 25 110 63c0 37 -44 62 -110 62h-90v-125z" />
    <glyph glyph-name="C" unicode="C" horiz-adv-x="684" 
d="M373 -8c-211 0 -337 154 -337 343c0 190 126 344 337 344c124 0 218 -54 275 -137l-142 -92c-32 49 -85 81 -133 81c-99 0 -165 -78 -165 -196c0 -117 66 -195 165 -195c49 0 102 32 133 80l142 -91c-57 -83 -151 -137 -275 -137z" />
    <glyph glyph-name="D" unicode="D" horiz-adv-x="608" 
d="M44 0v671h192c211 0 336 -150 336 -336c0 -185 -125 -335 -336 -335h-192zM202 148h34c99 0 165 75 165 187c0 113 -66 188 -165 188h-34v-375z" />
    <glyph glyph-name="E" unicode="E" horiz-adv-x="592" 
d="M548 513h-346v-99h188v-158h-188v-98h346v-158h-504v671h504v-158z" />
    <glyph glyph-name="F" unicode="F" horiz-adv-x="481" 
d="M457 513h-255v-124h188v-158h-188v-231h-158v671h413v-158z" />
    <glyph glyph-name="G" unicode="G" horiz-adv-x="730" 
d="M373 -8c-211 0 -337 154 -337 343c0 190 126 344 337 344c124 0 218 -54 275 -137l-143 -92c-32 49 -84 81 -132 81c-99 0 -165 -78 -165 -196c0 -117 66 -195 165 -195c60 0 118 42 146 105h-158v136h325v-381h-134v39c-49 -30 -110 -47 -179 -47z" />
    <glyph glyph-name="H" unicode="H" horiz-adv-x="611" 
d="M409 671h158v-671h-158v263h-207v-263h-158v671h158v-250h207v250z" />
    <glyph glyph-name="I" unicode="I" horiz-adv-x="246" 
d="M44 0v671h158v-671h-158z" />
    <glyph glyph-name="J" unicode="J" horiz-adv-x="496" 
d="M249 -8c-111 0 -189 81 -213 163l131 55c8 -34 32 -73 68 -73c35 0 59 29 59 71v464h158v-451c0 -136 -69 -229 -203 -229z" />
    <glyph glyph-name="K" unicode="K" horiz-adv-x="637" 
d="M593 671l-227 -287l214 -384h-168l-144 259l-66 -83v-176h-158v671h158v-267l211 267h180z" />
    <glyph glyph-name="L" unicode="L" horiz-adv-x="502" 
d="M202 158h256v-158h-414v671h158v-513z" />
    <glyph glyph-name="M" unicode="M" horiz-adv-x="834" 
d="M808 0h-158l-62 384l-131 -384h-81l-130 383l-62 -383h-158l120 671h138l133 -332l133 332h138z" />
    <glyph glyph-name="N" unicode="N" horiz-adv-x="642" 
d="M440 671h158v-671h-158l-238 403v-403h-158v671h158l238 -403v403z" />
    <glyph glyph-name="O" unicode="O" horiz-adv-x="744" 
d="M372 -8c-210 0 -336 154 -336 343c0 190 126 344 336 344s336 -154 336 -344c0 -189 -126 -343 -336 -343zM372 140c99 0 165 78 165 195c0 118 -66 196 -165 196c-98 0 -164 -78 -164 -196c0 -117 66 -195 164 -195z" />
    <glyph glyph-name="P" unicode="P" horiz-adv-x="584" 
d="M44 0v671h249c167 0 267 -103 267 -230c0 -128 -100 -231 -267 -231h-91v-210h-158zM202 358h91c65 0 109 33 109 83c0 49 -44 82 -109 82h-91v-165z" />
    <glyph glyph-name="Q" unicode="Q" horiz-adv-x="748" 
d="M607 -23l-63 58c-48 -27 -106 -42 -172 -42c-210 0 -336 154 -336 344c0 189 126 343 336 343s335 -154 335 -343c0 -73 -18 -140 -52 -195l57 -52zM372 141c15 0 28 12 41 15l-47 43l105 114l54 -51c8 23 12 48 12 75c0 117 -66 195 -165 195s-165 -78 -165 -195
c0 -118 66 -196 165 -196z" />
    <glyph glyph-name="R" unicode="R" horiz-adv-x="594" 
d="M44 0v671h249c167 0 267 -103 267 -230c0 -84 -43 -157 -120 -198l120 -243h-158l-104 210h-96v-210h-158zM202 358h91c65 0 109 33 109 83c0 49 -44 82 -109 82h-91v-165z" />
    <glyph glyph-name="S" unicode="S" horiz-adv-x="572" 
d="M285 -8c-136 0 -249 125 -249 125l107 107s67 -84 143 -84c46 0 77 19 77 48c0 73 -309 111 -309 293c0 120 117 197 233 198c136 0 249 -125 249 -125l-107 -107s-67 84 -143 84c-46 0 -77 -19 -77 -48c0 -74 309 -111 309 -294c0 -119 -117 -197 -233 -197z" />
    <glyph glyph-name="T" unicode="T" horiz-adv-x="580" 
d="M544 671v-158h-175v-513h-158v513h-175v158h508z" />
    <glyph glyph-name="U" unicode="U" horiz-adv-x="640" 
d="M320 -8c-152 0 -276 101 -276 270v410h158v-410c0 -73 47 -122 118 -122s118 49 118 122v410h158v-410c0 -169 -123 -270 -276 -270z" />
    <glyph glyph-name="V" unicode="V" horiz-adv-x="674" 
d="M485 671h163l-229 -671h-163l-230 671h164l148 -432z" />
    <glyph glyph-name="W" unicode="W" horiz-adv-x="972" 
d="M783 671h163l-189 -671h-163l-107 403l-108 -403h-163l-190 671h164l108 -412l117 412h143l118 -412z" />
    <glyph glyph-name="X" unicode="X" horiz-adv-x="728" 
d="M684 671l-230 -335l230 -336h-180l-140 204l-140 -204h-180l230 336l-230 335h180l140 -204l140 204h180z" />
    <glyph glyph-name="Y" unicode="Y" horiz-adv-x="680" 
d="M654 671l-235 -343v-328h-158v327l-235 344h179l134 -195l135 195h180z" />
    <glyph glyph-name="Z" unicode="Z" horiz-adv-x="596" 
d="M552 671v-96l-293 -427h293v-148h-508v96l293 427h-293v148h508z" />
    <glyph glyph-name="a" unicode="a" 
d="M404 500h158v-500h-158v18c-34 -17 -72 -26 -112 -26c-143 0 -258 116 -258 258s115 258 258 258c40 0 78 -9 112 -26v18zM297 140c60 0 100 44 100 110s-40 110 -100 110s-100 -44 -100 -110s40 -110 100 -110z" />
    <glyph glyph-name="b" unicode="b" 
d="M314 508c143 0 258 -116 258 -258s-115 -258 -258 -258c-40 0 -78 9 -112 26v-18h-158v745h158v-263c34 17 72 26 112 26zM309 140c60 0 100 44 100 110s-40 110 -100 110s-100 -44 -100 -110s40 -110 100 -110z" />
    <glyph glyph-name="c" unicode="c" horiz-adv-x="552" 
d="M292 -8c-143 0 -258 116 -258 258s115 258 258 258c97 0 182 -54 226 -135l-142 -69c-22 34 -55 56 -84 56c-60 0 -100 -44 -100 -110s40 -110 100 -110c29 0 62 22 84 56l142 -69c-44 -81 -129 -135 -226 -135z" />
    <glyph glyph-name="d" unicode="d" 
d="M404 745h158v-745h-158v18c-34 -17 -72 -26 -112 -26c-143 0 -258 116 -258 258s115 258 258 258c40 0 78 -9 112 -26v263zM297 140c60 0 100 44 100 110s-40 110 -100 110s-100 -44 -100 -110s40 -110 100 -110z" />
    <glyph glyph-name="e" unicode="e" horiz-adv-x="588" 
d="M423 204l131 -41s-69 -164 -262 -165c-95 1 -194 59 -237 156c-14 32 -21 67 -21 103c0 142 115 258 258 258c142 0 258 -116 258 -258c0 -6 1 -10 -1 -14l-334 -60c16 -24 41 -42 77 -42c82 0 131 63 131 63zM197 312c0 2 -2 -2 -4 -12l177 31c-24 33 -64 50 -99 44
c-30 -5 -60 -31 -74 -63z" />
    <glyph glyph-name="f" unicode="f" horiz-adv-x="347" 
d="M318 503v-118h-76v-385h-159v385h-59v118h59v140c0 43 44 109 115 109s119 -19 119 -19l-31 -119s-14 5 -24 5c-11 0 -20 -4 -20 -21v-95h76z" />
    <glyph glyph-name="g" unicode="g" horiz-adv-x="607" 
d="M404 500h159v-461c-4 -153 -135 -251 -258 -251c-193 0 -255 140 -255 140l123 65s50 -63 132 -63c60 0 87 49 97 86c-33 -15 -71 -24 -110 -24c-142 0 -258 115 -258 258c0 142 116 258 258 258c40 0 78 -9 112 -25v17zM298 139c60 0 100 44 100 110s-40 110 -100 110
s-100 -44 -100 -110s40 -110 100 -110z" />
    <glyph glyph-name="h" unicode="h" horiz-adv-x="572" 
d="M324 508c126 0 206 -102 206 -236v-272h-161v267c0 58 -34 97 -84 97s-83 -39 -83 -98v-266h-158v745h158v-286c34 31 78 49 122 49z" />
    <glyph glyph-name="i" unicode="i" horiz-adv-x="256" 
d="M128 567c-46 0 -84 37 -84 84c0 46 38 84 84 84s84 -38 84 -84c0 -47 -38 -84 -84 -84zM49 0v500h158v-500h-158z" />
    <glyph glyph-name="j" unicode="j" horiz-adv-x="255" 
d="M127 567c-46 0 -84 37 -84 84c0 46 38 84 84 84c47 0 84 -38 84 -84c0 -47 -37 -84 -84 -84zM11 -211c-41 0 -72 20 -72 20l38 143s12 -4 34 -4c23 0 37 23 37 53v499h158v-499c0 -117 -69 -212 -195 -212z" />
    <glyph glyph-name="k" unicode="k" horiz-adv-x="519" 
d="M500 501l-168 -211l168 -290h-158l-101 175l-39 -49v-126h-158v745h158v-420l140 176h158z" />
    <glyph glyph-name="l" unicode="l" horiz-adv-x="246" 
d="M44 0v745h158v-745h-158z" />
    <glyph glyph-name="m" unicode="m" horiz-adv-x="900" 
d="M652 508c125 0 206 -102 206 -236v-272h-162v267c0 58 -33 96 -83 96s-83 -39 -83 -97v-266h-161v267c0 58 -34 96 -84 96s-83 -39 -83 -97v-266h-158v500h158v-41c34 31 78 49 122 49c64 0 117 -27 152 -70c37 43 96 70 176 70z" />
    <glyph glyph-name="n" unicode="n" horiz-adv-x="572" 
d="M323 508c126 0 207 -102 207 -236v-272h-162v267c0 58 -33 96 -83 96s-83 -39 -83 -97v-266h-158v500h158v-41c34 31 78 49 121 49z" />
    <glyph glyph-name="o" unicode="o" horiz-adv-x="584" 
d="M292 -8c-142 0 -258 116 -258 258s116 258 258 258c143 0 258 -116 258 -258s-115 -258 -258 -258zM298 140c60 0 100 44 100 110s-40 110 -100 110s-100 -44 -100 -110s40 -110 100 -110z" />
    <glyph glyph-name="p" unicode="p" 
d="M314 508c143 0 258 -116 258 -258s-115 -258 -258 -258c-40 0 -78 9 -112 26v-263h-158v745h158v-18c34 17 72 26 112 26zM309 140c60 0 100 44 100 110s-40 110 -100 110s-100 -44 -100 -110s40 -110 100 -110z" />
    <glyph glyph-name="q" unicode="q" 
d="M404 500h158v-745h-158v263c-34 -17 -72 -26 -112 -26c-143 0 -258 116 -258 258s115 258 258 258c40 0 78 -9 112 -26v18zM297 140c60 0 100 44 100 110s-40 110 -100 110s-100 -44 -100 -110s40 -110 100 -110z" />
    <glyph glyph-name="r" unicode="r" horiz-adv-x="384" 
d="M324 508c20 0 39 -3 56 -8l-42 -167c-21 18 -42 30 -53 30c-50 0 -83 -39 -83 -97v-266h-158v500h158v-41c34 31 78 49 122 49z" />
    <glyph glyph-name="s" unicode="s" horiz-adv-x="512" 
d="M263 -8c-152 0 -239 108 -239 108l98 88s61 -60 145 -60c37 0 60 10 60 22c0 30 -289 33 -289 201c0 94 78 157 210 157c152 0 240 -108 240 -108l-98 -88s-62 60 -145 60c-37 0 -61 -10 -61 -22c0 -30 290 -33 290 -201c0 -94 -79 -157 -211 -157z" />
    <glyph glyph-name="t" unicode="t" horiz-adv-x="383" 
d="M293 175l66 -128s-56 -55 -145 -55s-154 40 -154 146v221h-51v141h51v171h158v-171h103v-141h-103v-170c0 -30 13 -50 33 -50c25 0 42 14 42 36z" />
    <glyph glyph-name="u" unicode="u" horiz-adv-x="572" 
d="M370 500h158v-500h-158v41c-34 -31 -78 -49 -121 -49c-126 0 -207 102 -207 236v272h162v-267c0 -58 33 -96 83 -96s83 39 83 97v266z" />
    <glyph glyph-name="v" unicode="v" horiz-adv-x="538" 
d="M361 500h158l-171 -500h-158l-171 500h158l92 -269z" />
    <glyph glyph-name="w" unicode="w" horiz-adv-x="860" 
d="M683 500h158l-171 -500h-158l-82 272l-82 -272h-158l-171 500h158l92 -269l92 269h138l92 -269z" />
    <glyph glyph-name="x" unicode="x" horiz-adv-x="526" 
d="M507 0h-168l-76 123l-76 -123h-168l160 258l-150 242h168l66 -106l66 106h168l-150 -242z" />
    <glyph glyph-name="y" unicode="y" horiz-adv-x="538" 
d="M361 500h158l-253 -680h-158l84 226l-173 454h158l93 -244z" />
    <glyph glyph-name="z" unicode="z" horiz-adv-x="542" 
d="M508 500v-76l-218 -276h218v-148h-474v76l217 276h-217v148h474z" />
    <glyph glyph-name="zero" unicode="0" 
d="M303 -8c-180 0 -267 154 -267 343c0 190 87 344 267 344c181 0 267 -154 267 -344c0 -189 -86 -343 -267 -343zM303 140c65 0 108 78 108 195c0 118 -43 196 -108 196s-108 -78 -108 -196c0 -117 43 -195 108 -195z" />
    <glyph glyph-name="one" unicode="1" horiz-adv-x="342" 
d="M140 671h158v-671h-158v489l-57 -22l-69 152z" />
    <glyph glyph-name="two" unicode="2" horiz-adv-x="552" 
d="M74 0v134s267 216 267 309c0 53 -37 88 -92 88c-70 0 -114 -88 -114 -88l-91 125s101 111 227 111c147 0 233 -112 233 -221c0 -142 -192 -300 -192 -300h196v-158h-434z" />
    <glyph glyph-name="three" unicode="3" horiz-adv-x="552" 
d="M282 -8c-145 0 -246 97 -246 97l104 121s65 -70 126 -70c51 0 90 26 90 63c0 41 -52 78 -171 78h-3v109h3c119 0 171 37 171 78c0 37 -39 63 -90 63c-61 0 -126 -70 -126 -70l-104 121s101 97 246 97c179 0 234 -119 234 -204s-77 -139 -77 -139s77 -55 77 -140
s-55 -204 -234 -204z" />
    <glyph glyph-name="four" unicode="4" horiz-adv-x="605" 
d="M561 278v-158h-70v-120h-158v120h-289v128l255 423h192v-393h70zM227 278h106v175z" />
    <glyph glyph-name="five" unicode="5" horiz-adv-x="607" 
d="M299 -8c-116 0 -212 68 -255 142l138 78s38 -72 117 -72c64 0 106 29 106 73c0 47 -34 79 -86 79c-65 0 -111 -49 -112 -49l-131 59v368h473v-158h-315v-84c25 7 54 12 85 12c143 0 244 -99 244 -224c0 -123 -92 -224 -264 -224z" />
    <glyph glyph-name="six" unicode="6" horiz-adv-x="616" 
d="M330 431c122 0 238 -83 238 -215c0 -163 -139 -224 -234 -224c-203 0 -298 154 -298 343c0 190 111 344 298 344c145 0 246 -97 246 -97l-104 -121s-54 70 -142 70c-67 0 -113 -57 -131 -130c33 19 76 30 127 30zM323 140c52 0 86 30 86 76c0 53 -34 88 -86 88
c-58 0 -96 -34 -96 -86c0 -36 19 -62 49 -73l13 -3l-7 1c8 -2 17 -3 26 -3l-7 1c7 -1 14 -1 22 -1zM301 141c-4 0 -8 1 -12 1z" />
    <glyph glyph-name="seven" unicode="7" horiz-adv-x="547" 
d="M44 671h477v-86l-300 -585h-177l262 513h-262v158z" />
    <glyph glyph-name="eight" unicode="8" horiz-adv-x="613" 
d="M306 -8c-170 0 -272 91 -272 203c0 63 31 119 89 156c-46 34 -72 83 -72 138c0 105 95 190 254 190s254 -85 254 -190c0 -54 -25 -103 -71 -138c59 -37 91 -93 91 -156c0 -112 -102 -203 -273 -203zM305 395c49 0 81 27 81 68s-32 68 -81 68c-48 0 -80 -27 -80 -68
s32 -68 80 -68zM306 140c56 0 93 28 93 71s-37 72 -93 72s-93 -29 -93 -72s37 -71 93 -71z" />
    <glyph glyph-name="nine" unicode="9" horiz-adv-x="616" 
d="M282 679c203 0 298 -154 298 -344c0 -189 -111 -343 -298 -343c-145 0 -246 97 -246 97l104 121s54 -70 142 -70c68 0 114 57 131 130c-33 -19 -75 -30 -126 -30c-123 0 -238 83 -238 215c0 163 138 224 233 224zM293 367c58 0 96 34 96 86c0 32 -15 56 -39 69
c-17 7 -36 9 -57 9c-52 0 -86 -30 -86 -76c0 -53 34 -88 86 -88zM334 528c-8 2 -17 3 -26 3z" />
    <glyph glyph-name="fraction" unicode="&#x2044;" horiz-adv-x="600" 
 />
    <glyph glyph-name="asterisk" unicode="*" horiz-adv-x="336" 
d="M320 523l-86 -17l60 -64l-83 -61l-43 77l-43 -77l-83 61l60 64l-86 17l32 98l80 -38l-11 88h103l-11 -88l80 38zM165 526l3 -2l3 2l-1 4h-4z" />
    <glyph glyph-name="backslash" unicode="\" horiz-adv-x="438" 
d="M267 0l-241 671h145l241 -671h-145z" />
    <glyph glyph-name="periodcentered" unicode="&#xb7;" horiz-adv-x="230" 
d="M36 0v158h158v-158h-158z" />
    <glyph glyph-name="bullet" unicode="&#x2022;" horiz-adv-x="340" 
d="M36 220v232h232v-232h-232z" />
    <glyph glyph-name="colon" unicode=":" horiz-adv-x="246" 
d="M44 353v157h158v-157h-158zM44 0v158h158v-158h-158z" />
    <glyph glyph-name="comma" unicode="," horiz-adv-x="224" 
d="M26 -54l49 202h125l-68 -202h-106z" />
    <glyph glyph-name="exclam" unicode="!" horiz-adv-x="246" 
d="M64 220l-20 452h158l-20 -452h-118zM56 0v133h134v-133h-134z" />
    <glyph glyph-name="numbersign" unicode="#" horiz-adv-x="702" 
d="M666 359h-128l-22 -109h109v-99h-128l-29 -151h-117l29 151h-118l-29 -151h-117l29 151h-109v99h128l21 109h-109v99h128l29 151h118l-29 -151h117l29 151h118l-29 -151h109v-99zM399 250l21 109h-117l-22 -109h118z" />
    <glyph glyph-name="period" unicode="." horiz-adv-x="230" 
d="M36 0v158h158v-158h-158z" />
    <glyph glyph-name="question" unicode="?" horiz-adv-x="459" 
d="M140 208v69c0 103 126 172 126 221c0 16 -12 33 -38 33c-68 0 -120 -60 -120 -60l-82 115s92 93 206 93c109 0 193 -70 193 -161c0 -123 -127 -159 -127 -267v-43h-158zM139 0v150h158v-150h-158z" />
    <glyph glyph-name="quotedbl" unicode="&#x22;" horiz-adv-x="336" 
d="M55 410l-19 212h115l-20 -212h-76zM205 410l-20 212h115l-20 -212h-75z" />
    <glyph glyph-name="quotesingle" unicode="'" horiz-adv-x="148" 
d="M36 410l-20 212h116l-20 -212h-76z" />
    <glyph glyph-name="semicolon" unicode=";" horiz-adv-x="284" 
d="M82 352v158h158v-158h-158zM44 -62l39 212h145l-78 -212h-106z" />
    <glyph glyph-name="slash" unicode="/" horiz-adv-x="438" 
d="M26 0l241 671h145l-241 -671h-145z" />
    <glyph glyph-name="underscore" unicode="_" horiz-adv-x="601" 
d="M36 -138v138h529v-138h-529z" />
    <glyph glyph-name="braceleft" unicode="{" horiz-adv-x="376" 
d="M376 -209c-193 0 -247 129 -247 213v180c0 37 -23 91 -93 91v121c70 0 93 53 93 91v179c0 85 54 214 247 214v-158c-61 0 -88 -16 -88 -53v-202c0 -92 -68 -132 -68 -132s68 -41 68 -132v-201c0 -37 27 -53 88 -53v-158z" />
    <glyph glyph-name="braceright" unicode="}" horiz-adv-x="376" 
d="M0 -209v158c61 0 88 16 88 53v201c0 91 68 133 68 133s-68 39 -68 132v201c0 37 -27 53 -88 53v158c193 0 247 -129 247 -214v-179c0 -37 23 -91 93 -91v-121c-70 0 -93 -54 -93 -91v-179c0 -85 -54 -214 -247 -214z" />
    <glyph glyph-name="bracketleft" unicode="[" horiz-adv-x="264" 
d="M264 740h-81v-810h81v-110h-220v1031h220v-111z" />
    <glyph glyph-name="bracketright" unicode="]" horiz-adv-x="264" 
d="M220 851v-1031h-220v110h81v810h-81v111h220z" />
    <glyph glyph-name="parenleft" unicode="(" horiz-adv-x="400" 
d="M316 -180c0 0 -280 133 -280 511c0 377 280 520 280 520l80 -79s-227 -134 -227 -441s231 -418 231 -418z" />
    <glyph glyph-name="parenright" unicode=")" horiz-adv-x="400" 
d="M84 -180l-84 93s231 111 231 418s-227 441 -227 441l80 79s280 -143 280 -520c0 -378 -280 -511 -280 -511z" />
    <glyph glyph-name="hyphen" unicode="-" horiz-adv-x="395" 
d="M359 267h-323v138h323v-138z" />
    <glyph glyph-name="quotedblleft" unicode="&#x201c;" horiz-adv-x="419" 
d="M36 469l68 202h106l-49 -202h-125zM210 469l67 202h106l-48 -202h-125z" />
    <glyph glyph-name="quotedblright" unicode="&#x201d;" horiz-adv-x="419" 
d="M36 469l49 202h125l-68 -202h-106zM210 469l48 202h125l-68 -202h-105z" />
    <glyph glyph-name="quoteleft" unicode="&#x2018;" horiz-adv-x="245" 
d="M36 469l67 202h106l-48 -202h-125z" />
    <glyph glyph-name="quoteright" unicode="&#x2019;" horiz-adv-x="245" 
d="M36 469l48 202h125l-67 -202h-106z" />
    <glyph glyph-name="space" unicode=" " horiz-adv-x="200" 
 />
    <glyph glyph-name="dollar" unicode="$" horiz-adv-x="528" 
d="M194 470c0 -66 282 -101 282 -267c0 -85 -65 -147 -144 -170v-100h-136v101c-92 28 -160 103 -160 103l98 98s61 -70 130 -70c42 0 70 21 70 37c0 66 -281 101 -281 267c0 85 64 147 143 170v99h136v-100c92 -28 160 -103 160 -103l-97 -98s-62 68 -131 68
c-42 0 -70 -19 -70 -35z" />
    <glyph glyph-name="plus" unicode="+" horiz-adv-x="542" 
d="M498 405v-138h-158v-158h-138v158h-158v138h158v158h138v-158h158z" />
    <glyph glyph-name="minus" unicode="&#x2212;" horiz-adv-x="412" 
d="M44 267v138h324v-138h-324z" />
    <glyph glyph-name="equal" unicode="=" horiz-adv-x="476" 
d="M44 379v114h388v-114h-388zM44 178v114h388v-114h-388z" />
    <glyph glyph-name="greater" unicode="&#x3e;" horiz-adv-x="469" 
d="M44 101v142l216 93l-216 93v142l389 -189v-92z" />
    <glyph glyph-name="less" unicode="&#x3c;" horiz-adv-x="469" 
d="M425 101l-389 189v92l389 189v-142l-216 -93l216 -93v-142z" />
    <glyph glyph-name="asciitilde" unicode="~" horiz-adv-x="633" 
d="M421 488c-89 0 -119 59 -193 59c-46 0 -76 -59 -76 -59l-116 60s65 131 179 131c96 0 132 -61 193 -61c49 0 81 51 81 51l108 -72s-68 -109 -176 -109z" />
    <glyph glyph-name="percent" unicode="%" horiz-adv-x="792" 
d="M192 306c-86 0 -156 70 -156 156c0 87 70 157 156 157c87 0 157 -70 157 -157c0 -86 -70 -156 -157 -156zM113 0l440 610h126l-439 -610h-127zM192 416c26 0 47 21 47 46c0 26 -21 47 -47 47c-25 0 -46 -21 -46 -47c0 -25 21 -46 46 -46zM600 -7c-86 0 -156 70 -156 156
c0 87 70 157 156 157s156 -70 156 -157c0 -86 -70 -156 -156 -156zM600 103c26 0 46 21 46 46c0 26 -20 47 -46 47s-46 -21 -46 -47c0 -25 20 -46 46 -46z" />
    <glyph glyph-name="at" unicode="@" horiz-adv-x="882" 
d="M533 523l117 -26s-37 -114 -37 -189c0 -58 27 -83 49 -83c33 0 64 51 64 112c0 135 -115 285 -286 285c-167 0 -286 -140 -286 -271c0 -182 139 -300 274 -300c122 0 151 45 151 45l86 -85s-68 -81 -225 -81c-230 0 -404 192 -404 397c0 255 196 414 404 414
c230 0 406 -195 406 -404c0 -144 -92 -232 -183 -232c-48 0 -92 26 -123 65c-36 -31 -81 -48 -125 -48c-92 0 -189 84 -189 205c0 143 117 206 194 206c31 0 70 -11 104 -35c5 16 9 25 9 25zM420 240c30 0 67 36 73 76c0 6 0 12 1 18c-3 46 -33 78 -74 78
c-42 0 -75 -29 -75 -86c0 -46 36 -86 75 -86z" />
    <glyph glyph-name="ampersand" unicode="&#x26;" horiz-adv-x="544" 
d="M535 431v-139h-48v-79c0 -124 -75 -221 -218 -221c-156 0 -235 90 -235 204c0 103 92 153 92 153s-68 55 -68 169s94 163 176 163c112 0 175 -62 175 -62l-72 -122s-32 26 -75 26s-48 -24 -48 -41c0 -31 25 -51 72 -51h50v44h151v-44h48zM336 231v61h-64
c-59 0 -87 -34 -87 -74s23 -67 79 -67c49 0 72 40 72 80z" />
    <glyph glyph-name="bar" unicode="|" horiz-adv-x="315" 
d="M88 -180v1031h139v-1031h-139z" />
    <glyph glyph-name="asciicircum" unicode="^" horiz-adv-x="400" 
d="M36 399l132 272h64l132 -272l-123 1l-41 96l-42 -96z" />
    </font>
</defs>
</svg>
