<?xml version="1.0" standalone="no"?>
<!DOCTYPE svg PUBLIC "-//W3C//DTD SVG 1.1//EN" "http://www.w3.org/Graphics/SVG/1.1/DTD/svg11.dtd" >
<svg xmlns="http://www.w3.org/2000/svg" xmlns:xlink="http://www.w3.org/1999/xlink" version="1.1">
<metadata>
Created by FontForge 20170910 at Wed May 31 11:04:31 2017
 By Jimmy Wärting
Copyright \(c\) 2017 by Graham Paterson. All rights reserved.
</metadata>
<defs>
<font id="Wavehaus-128Bold" horiz-adv-x="617" >
  <font-face 
    font-family="Wavehaus 128 Bold"
    font-weight="700"
    font-stretch="normal"
    units-per-em="1000"
    panose-1="0 0 8 0 0 0 0 0 0 0"
    ascent="800"
    descent="-200"
    x-height="500"
    cap-height="671"
    bbox="-52 -244 975 857"
    underline-thickness="50"
    underline-position="-100"
    unicode-range="U+0020-2212"
  />
<missing-glyph horiz-adv-x="491" 
d="M402 745v-981h-311v981h311zM327 679h-162v-32h64v-36h-65v-33h163v33h-65v36h65v32zM262 553h-98v-102h163v33h-65v69zM229 519v-35h-33v35h33zM327 424h-163v-32h65v-36h-65v-33h98v69h65v32zM327 365h-33v-64h-130v-34h163v98zM327 246h-98v-55h33v22h32v-46h-98v79
h-32v-111h163v111zM327 76h-163v-111h163v111zM294 44v-47h-98v47h98zM327 -57h-163v-33h68l-68 -46v-32h163v32h-100l68 46h32v33z" />
    <glyph glyph-name=".notdef" horiz-adv-x="491" 
d="M402 745v-981h-311v981h311zM327 679h-162v-32h64v-36h-65v-33h163v33h-65v36h65v32zM262 553h-98v-102h163v33h-65v69zM229 519v-35h-33v35h33zM327 424h-163v-32h65v-36h-65v-33h98v69h65v32zM327 365h-33v-64h-130v-34h163v98zM327 246h-98v-55h33v22h32v-46h-98v79
h-32v-111h163v111zM327 76h-163v-111h163v111zM294 44v-47h-98v47h98zM327 -57h-163v-33h68l-68 -46v-32h163v32h-100l68 46h32v33z" />
    <glyph glyph-name="A" unicode="A" horiz-adv-x="724" 
d="M558 0l-62 162h-269l-62 -162h-135l272 671h120l272 -671h-136zM276 290h171l-85 224z" />
    <glyph glyph-name="B" unicode="B" horiz-adv-x="600" 
d="M53 0v671h242c164 0 261 -89 261 -199c0 -55 -25 -103 -71 -137c46 -33 71 -81 71 -135c0 -110 -97 -200 -261 -200h-242zM181 386h114c81 0 132 35 132 83s-51 82 -132 82h-114v-165zM181 120h114c81 0 132 35 132 83c0 47 -51 81 -132 81h-114v-164z" />
    <glyph glyph-name="C" unicode="C" horiz-adv-x="690" 
d="M372 -8c-208 0 -332 154 -332 343c0 190 124 344 332 344c128 0 223 -58 278 -147l-116 -74c-35 61 -96 101 -162 101c-117 0 -193 -93 -193 -224c0 -130 76 -223 193 -223c67 0 128 40 162 100l116 -73c-55 -89 -150 -147 -278 -147z" />
    <glyph glyph-name="D" unicode="D" 
d="M53 0v671h179c217 0 345 -150 345 -336c0 -185 -128 -335 -345 -335h-179zM181 120h51c126 0 206 90 206 215c0 126 -80 216 -206 216h-51v-431z" />
    <glyph glyph-name="E" unicode="E" horiz-adv-x="590" 
d="M537 543h-356v-142h196v-128h-196v-145h356v-128h-484v671h484v-128z" />
    <glyph glyph-name="F" unicode="F" horiz-adv-x="487" 
d="M453 543h-272v-161h196v-128h-196v-254h-128v671h400v-128z" />
    <glyph glyph-name="G" unicode="G" horiz-adv-x="739" 
d="M373 -8c-209 0 -333 154 -333 343c0 190 124 344 333 344c127 0 222 -58 277 -147l-117 -74c-34 61 -95 101 -160 101c-118 0 -193 -93 -193 -224c0 -130 75 -223 193 -223c85 0 154 62 178 147h-178v111h313v-370h-110v70c-49 -48 -118 -78 -203 -78z" />
    <glyph glyph-name="H" unicode="H" horiz-adv-x="610" 
d="M429 671h128v-671h-128v274h-248v-274h-128v671h128v-269h248v269z" />
    <glyph glyph-name="I" unicode="I" horiz-adv-x="235" 
d="M53 0v671h128v-671h-128z" />
    <glyph glyph-name="J" unicode="J" horiz-adv-x="486" 
d="M240 -8c-106 0 -179 79 -200 156l107 44c9 -39 38 -82 82 -82c49 0 75 37 75 84v477h128v-467c0 -124 -65 -212 -192 -212z" />
    <glyph glyph-name="K" unicode="K" horiz-adv-x="628" 
d="M575 671l-235 -294l224 -377h-138l-165 278l-80 -100v-178h-128v671h128v-308l247 308h147z" />
    <glyph glyph-name="L" unicode="L" horiz-adv-x="507" 
d="M181 128h273v-128h-401v671h128v-543z" />
    <glyph glyph-name="M" unicode="M" horiz-adv-x="841" 
d="M811 0h-128l-84 437l-145 -437h-69l-144 437l-83 -437h-128l131 671h113l146 -399l147 399h113z" />
    <glyph glyph-name="N" unicode="N" horiz-adv-x="646" 
d="M465 671h128v-671h-129l-283 462v-462h-128v671h129l283 -462v462z" />
    <glyph glyph-name="O" unicode="O" horiz-adv-x="743" 
d="M371 -8c-207 0 -331 154 -331 343c0 190 124 344 331 344c208 0 332 -154 332 -344c0 -189 -124 -343 -332 -343zM371 112c118 0 194 93 194 223c0 131 -76 224 -194 224c-116 0 -192 -93 -192 -224c0 -130 76 -223 192 -223z" />
    <glyph glyph-name="P" unicode="P" horiz-adv-x="590" 
d="M53 0v671h243c163 0 260 -100 260 -223c0 -124 -97 -224 -260 -224h-115v-224h-128zM181 345h115c80 0 131 43 131 103s-51 103 -131 103h-115v-206z" />
    <glyph glyph-name="Q" unicode="Q" horiz-adv-x="748" 
d="M623 -20l-70 63c-49 -32 -110 -50 -181 -50c-208 0 -332 154 -332 344c0 189 124 343 332 343c207 0 331 -154 331 -343c0 -79 -21 -150 -60 -207l65 -58zM372 113c29 0 54 15 75 28l-57 51l85 92l63 -57c17 31 27 68 27 110c0 130 -76 222 -193 222
c-118 0 -193 -92 -193 -222c0 -132 75 -224 193 -224z" />
    <glyph glyph-name="R" unicode="R" horiz-adv-x="600" 
d="M53 0v671h243c163 0 260 -100 260 -223c0 -85 -47 -159 -130 -196l130 -252h-129l-117 225l-31 -1h-98v-224h-128zM181 345h115c80 0 131 43 131 103s-51 103 -131 103h-115v-206z" />
    <glyph glyph-name="S" unicode="S" horiz-adv-x="560" 
d="M281 -8c-124 0 -231 107 -240 118l87 86c6 -7 75 -84 154 -84c60 0 99 27 99 68c0 101 -327 119 -327 309c0 111 102 189 225 190c125 0 231 -107 241 -118l-87 -86c-8 8 -77 84 -155 84c-60 0 -99 -27 -99 -68c0 -102 328 -119 328 -310c0 -110 -103 -189 -226 -189z
" />
    <glyph glyph-name="T" unicode="T" horiz-adv-x="599" 
d="M559 671v-128h-196v-543h-128v543h-195v128h519z" />
    <glyph glyph-name="U" unicode="U" horiz-adv-x="652" 
d="M326 -8c-150 0 -273 100 -273 268v412h128v-412c0 -90 61 -148 145 -148c85 0 145 58 145 148v412h128v-412c0 -168 -122 -268 -273 -268z" />
    <glyph glyph-name="V" unicode="V" horiz-adv-x="674" 
d="M512 671h132l-241 -671h-132l-241 671h132l175 -487z" />
    <glyph glyph-name="W" unicode="W" horiz-adv-x="1004" 
d="M843 671h132l-203 -671h-132l-137 471l-138 -471h-131l-204 671h132l138 -463l144 463h117l145 -463z" />
    <glyph glyph-name="X" unicode="X" horiz-adv-x="711" 
d="M658 0h-146l-156 230l-157 -230h-146l230 337l-228 334h145l156 -228l155 228h146l-228 -335z" />
    <glyph glyph-name="Y" unicode="Y" horiz-adv-x="652" 
d="M622 671l-232 -341v-330h-128v330l-232 341h145l150 -221l151 221h146z" />
    <glyph glyph-name="Z" unicode="Z" horiz-adv-x="601" 
d="M547 671v-79l-321 -472h321v-120h-494v79l322 472h-322v120h494z" />
    <glyph glyph-name="a" unicode="a" 
d="M435 500h128v-500h-128v33c-40 -26 -88 -41 -139 -41c-143 0 -258 116 -258 258s115 258 258 258c51 0 99 -15 139 -41v33zM300 112c75 0 130 58 130 138s-55 138 -130 138s-130 -58 -130 -138s55 -138 130 -138z" />
    <glyph glyph-name="b" unicode="b" 
d="M321 508c143 0 258 -116 258 -258s-115 -258 -258 -258c-52 0 -100 15 -140 42v-34h-128v745h128v-279c40 27 88 42 140 42zM317 112c75 0 130 58 130 138s-55 138 -130 138c-76 0 -130 -58 -130 -138s54 -138 130 -138z" />
    <glyph glyph-name="c" unicode="c" horiz-adv-x="558" 
d="M296 -8c-143 0 -258 116 -258 258s115 258 258 258c96 0 180 -52 224 -131l-115 -56c-27 41 -68 67 -109 67c-75 0 -130 -58 -130 -138s55 -138 130 -138c41 0 82 26 109 67l115 -56c-44 -79 -128 -131 -224 -131z" />
    <glyph glyph-name="d" unicode="d" 
d="M435 745h128v-745h-128v33c-40 -26 -88 -41 -139 -41c-143 0 -258 116 -258 258s115 258 258 258c51 0 99 -15 139 -41v278zM300 112c75 0 130 58 130 138s-55 138 -130 138c-76 0 -130 -58 -130 -138s54 -138 130 -138z" />
    <glyph glyph-name="e" unicode="e" horiz-adv-x="595" 
d="M447 198l107 -34c-9 -23 -84 -166 -258 -166c-100 0 -201 64 -240 165c-12 29 -18 61 -18 93c0 143 115 258 258 258c139 0 252 -110 257 -248c0 -5 1 -9 0 -13l-368 -67c18 -41 59 -72 111 -72c86 0 144 63 151 84zM170 299l-3 -16l241 43c-24 48 -76 79 -128 74
c-53 -4 -99 -47 -110 -101z" />
    <glyph glyph-name="f" unicode="f" horiz-adv-x="332" 
d="M299 503v-98h-84v-405h-128v405h-59v98h59v141c0 53 40 108 105 108c61 0 104 -17 104 -17l-26 -97s-16 5 -29 5c-17 0 -26 -8 -26 -37v-103h84z" />
    <glyph glyph-name="g" unicode="g" horiz-adv-x="618" 
d="M435 500h129v-460c-3 -152 -132 -252 -258 -252c-174 0 -244 124 -252 146l101 53c7 -21 65 -84 151 -84c82 0 125 75 130 130c-40 -26 -88 -41 -140 -41c-142 0 -258 115 -258 258c0 142 116 258 258 258c51 0 99 -15 139 -41v33zM301 111c75 0 130 57 130 138
c0 80 -55 137 -130 137c-76 0 -130 -57 -130 -137c0 -81 54 -138 130 -138z" />
    <glyph glyph-name="h" unicode="h" horiz-adv-x="571" 
d="M316 508c123 0 205 -100 205 -229v-279h-130v275c0 67 -44 116 -105 116s-105 -48 -105 -116v-275h-128v745h128v-296c36 37 85 59 135 59z" />
    <glyph glyph-name="i" unicode="i" horiz-adv-x="246" 
d="M123 590c-38 0 -70 31 -70 70c0 38 32 69 70 69s70 -31 70 -69c0 -39 -32 -70 -70 -70zM59 0v500h128v-500h-128z" />
    <glyph glyph-name="j" unicode="j" horiz-adv-x="267" 
d="M144 590c-38 0 -70 31 -70 70c0 38 32 69 70 69c39 0 70 -31 70 -69c0 -39 -31 -70 -70 -70zM31 -211c-49 0 -82 26 -83 27l35 114s17 -12 48 -12c33 0 49 35 49 75v507h128v-507c0 -112 -61 -204 -177 -204z" />
    <glyph glyph-name="k" unicode="k" horiz-adv-x="494" 
d="M470 501l-172 -213l172 -288h-129l-117 196l-43 -54v-142h-128v745h128v-442l159 198h130z" />
    <glyph glyph-name="l" unicode="l" horiz-adv-x="235" 
d="M53 0v745h128v-745h-128z" />
    <glyph glyph-name="m" unicode="m" horiz-adv-x="911" 
d="M656 508c122 0 205 -99 205 -229v-279h-131v276c0 67 -43 114 -104 114s-105 -48 -105 -115v-275h-130v276c0 67 -44 114 -105 114s-105 -48 -105 -115v-275h-128v500h128v-50c36 36 85 58 135 58c69 0 125 -31 161 -81c36 49 97 81 179 81z" />
    <glyph glyph-name="n" unicode="n" horiz-adv-x="571" 
d="M315 508c123 0 206 -99 206 -229v-279h-131v276c0 67 -43 114 -104 114s-105 -48 -105 -115v-275h-128v500h128v-50c36 36 84 58 134 58z" />
    <glyph glyph-name="o" unicode="o" horiz-adv-x="592" 
d="M296 -8c-142 0 -258 116 -258 258s116 258 258 258c143 0 258 -116 258 -258s-115 -258 -258 -258zM301 112c75 0 130 58 130 138s-55 138 -130 138c-76 0 -130 -58 -130 -138s54 -138 130 -138z" />
    <glyph glyph-name="p" unicode="p" 
d="M321 508c143 0 258 -115 258 -258c0 -142 -115 -258 -258 -258c-52 0 -100 15 -140 42v-278h-128v744h128v-33c40 26 88 41 140 41zM317 113c75 0 130 57 130 137c0 81 -55 138 -130 138c-76 0 -130 -57 -130 -138c0 -80 54 -137 130 -137z" />
    <glyph glyph-name="q" unicode="q" 
d="M435 500h128v-744h-128v277c-40 -26 -88 -41 -139 -41c-143 0 -258 116 -258 258s115 258 258 258c51 0 99 -15 139 -41v33zM300 113c75 0 130 57 130 137c0 81 -55 138 -130 138c-76 0 -130 -57 -130 -138c0 -80 54 -137 130 -137z" />
    <glyph glyph-name="r" unicode="r" horiz-adv-x="393" 
d="M316 508c25 0 48 -5 69 -14l-35 -134c-23 18 -47 30 -64 30c-61 0 -105 -48 -105 -115v-275h-128v500h128v-50c36 36 85 58 135 58z" />
    <glyph glyph-name="s" unicode="s" horiz-adv-x="497" 
d="M255 -8c-141 0 -223 99 -223 99l81 73s61 -61 145 -61c49 0 80 16 80 41c0 53 -299 46 -299 212c0 89 71 152 202 152c142 0 224 -99 224 -99l-81 -73s-62 61 -146 61c-48 0 -80 -16 -80 -41c0 -53 300 -46 300 -212c0 -89 -72 -152 -203 -152z" />
    <glyph glyph-name="t" unicode="t" horiz-adv-x="395" 
d="M312 154l55 -102s-54 -60 -141 -60c-86 0 -152 42 -152 146v247h-61v115h61v167l128 3v-170h118v-115h-118v-208c0 -41 24 -66 52 -66c34 0 58 27 58 43z" />
    <glyph glyph-name="u" unicode="u" horiz-adv-x="571" 
d="M390 500h128v-500h-128v50c-36 -36 -84 -58 -134 -58c-123 0 -206 99 -206 229v279h131v-276c0 -67 43 -114 104 -114s105 48 105 115v275z" />
    <glyph glyph-name="v" unicode="v" horiz-adv-x="520" 
d="M369 500h128l-173 -500h-128l-173 500h128l109 -315z" />
    <glyph glyph-name="w" unicode="w" horiz-adv-x="850" 
d="M699 500h128l-173 -500h-128l-101 322l-101 -322h-128l-173 500h128l109 -315l109 315h112l109 -315z" />
    <glyph glyph-name="x" unicode="x" horiz-adv-x="515" 
d="M492 0h-137l-97 150l-97 -150h-138l166 256l-158 244h137l90 -138l89 138h138l-158 -245z" />
    <glyph glyph-name="y" unicode="y" horiz-adv-x="520" 
d="M369 500h128l-260 -691h-128l91 242l-177 449h128l112 -283z" />
    <glyph glyph-name="z" unicode="z" horiz-adv-x="535" 
d="M497 500v-65l-254 -315h254v-120h-459v65l254 315h-254v120h459z" />
    <glyph glyph-name="zero" unicode="0" horiz-adv-x="602" 
d="M301 -8c-179 0 -261 154 -261 343c0 190 82 344 261 344s261 -154 261 -344c0 -189 -82 -343 -261 -343zM301 112c86 0 132 93 132 223c0 131 -46 224 -132 224s-133 -93 -133 -224c0 -130 47 -223 133 -223z" />
    <glyph glyph-name="one" unicode="1" horiz-adv-x="330" 
d="M148 671h128v-671h-128v524l-68 -35l-57 122z" />
    <glyph glyph-name="two" unicode="2" horiz-adv-x="569" 
d="M79 0l-2 109c18 17 298 243 298 348c0 60 -46 102 -110 102c-81 0 -127 -90 -132 -100l-76 99c5 10 96 121 225 121c140 0 225 -106 225 -210c0 -148 -217 -322 -237 -341h245v-128h-436z" />
    <glyph glyph-name="three" unicode="3" horiz-adv-x="544" 
d="M280 -8c-136 0 -232 91 -240 105l85 96c7 -12 74 -81 143 -81c61 0 107 34 107 82c0 49 -56 96 -177 96h-14v91h14c121 0 177 46 177 96c0 48 -46 81 -107 81c-77 0 -143 -80 -143 -80l-85 96c7 13 104 105 240 105c162 0 224 -108 224 -196c0 -84 -71 -141 -90 -147
c19 -6 90 -64 90 -148c0 -88 -62 -196 -224 -196z" />
    <glyph glyph-name="four" unicode="4" horiz-adv-x="606" 
d="M553 263v-128h-76v-135h-128v135h-296v105l270 431l26 -1v1h128v-408h76zM202 263h147v234z" />
    <glyph glyph-name="five" unicode="5" horiz-adv-x="605" 
d="M298 -8c-112 0 -206 68 -244 141l112 62c4 -13 51 -83 132 -83c71 0 125 38 125 100c0 65 -48 107 -110 107c-70 0 -123 -46 -128 -52l-107 47v357h459v-128h-331v-124c26 10 64 21 107 21c135 0 238 -95 238 -225c0 -129 -96 -223 -253 -223z" />
    <glyph glyph-name="six" unicode="6" horiz-adv-x="609" 
d="M326 434c123 0 234 -85 234 -218c0 -154 -128 -224 -232 -224c-193 0 -288 154 -288 343c0 190 107 344 288 344c136 0 233 -92 241 -105l-86 -96s-57 81 -155 81c-84 0 -140 -77 -154 -174c36 31 87 49 152 49zM320 112c64 0 111 43 111 104c0 67 -45 115 -111 115
c-70 0 -118 -43 -118 -113c0 -45 22 -79 56 -95c19 -8 39 -11 62 -11zM291 113c6 -1 11 -1 17 -1z" />
    <glyph glyph-name="seven" unicode="7" horiz-adv-x="544" 
d="M53 671h461v-72l-317 -599h-144l287 543h-287v128z" />
    <glyph glyph-name="eight" unicode="8" horiz-adv-x="606" 
d="M303 -8c-162 0 -260 90 -260 200c0 67 36 126 100 161c-52 32 -81 83 -81 141c0 102 89 185 240 185c150 0 240 -83 240 -185c0 -57 -29 -108 -80 -141c65 -35 100 -94 100 -161c0 -110 -97 -200 -259 -200zM302 389c62 0 101 36 100 85c1 49 -38 85 -100 85
c-61 0 -100 -36 -100 -85s39 -85 100 -85zM303 112c70 0 114 38 114 92s-44 93 -114 93c-71 0 -115 -39 -115 -93s45 -92 115 -92z" />
    <glyph glyph-name="nine" unicode="9" horiz-adv-x="609" 
d="M280 679c193 0 289 -154 289 -344c0 -189 -108 -343 -289 -343c-136 0 -233 91 -240 105l85 96s58 -81 155 -81c86 0 141 76 155 174c-35 -32 -86 -50 -151 -50c-124 0 -234 86 -234 219c0 154 126 224 230 224zM288 340c70 0 119 43 119 113c0 42 -20 75 -51 92
c-20 10 -42 14 -67 14c-64 0 -111 -43 -111 -104c0 -67 45 -115 110 -115zM317 558c-6 1 -11 1 -17 1z" />
    <glyph glyph-name="fraction" unicode="&#x2044;" horiz-adv-x="600" 
 />
    <glyph glyph-name="asterisk" unicode="*" horiz-adv-x="346" 
d="M326 528l-101 -22l69 -77l-68 -51l-53 90l-52 -90l-70 51l70 77l-101 22l26 82l95 -43l-10 104h85l-11 -104l96 43zM170 522l3 -3l3 3l-1 4h-4z" />
    <glyph glyph-name="backslash" unicode="\" horiz-adv-x="441" 
d="M292 0l-262 671h119l263 -671h-120z" />
    <glyph glyph-name="periodcentered" unicode="&#xb7;" horiz-adv-x="209" 
d="M40 0v162h129v-162h-129z" />
    <glyph glyph-name="bullet" unicode="&#x2022;" horiz-adv-x="321" 
d="M40 238v196h201v-196h-201z" />
    <glyph glyph-name="colon" unicode=":" horiz-adv-x="236" 
d="M53 350v161h129v-161h-129zM53 0v164h129v-164h-129z" />
    <glyph glyph-name="comma" unicode="," horiz-adv-x="212" 
d="M30 -52l47 188h107l-65 -188h-89z" />
    <glyph glyph-name="exclam" unicode="!" horiz-adv-x="235" 
d="M70 198l-17 474h128l-16 -474h-95zM63 0v113h109v-113h-109z" />
    <glyph glyph-name="numbersign" unicode="#" horiz-adv-x="687" 
d="M647 366h-133l-24 -125h119v-83h-135l-30 -158h-97l30 158h-123l-30 -158h-97l30 158h-117v83h133l23 125h-119v82h135l30 158h98l-30 -158h122l30 158h98l-30 -158h117v-82zM393 241l23 125h-122l-24 -125h123z" />
    <glyph glyph-name="period" unicode="." horiz-adv-x="209" 
d="M40 0v141h129v-141h-129z" />
    <glyph glyph-name="question" unicode="?" horiz-adv-x="463" 
d="M150 204v61c0 120 140 175 140 242c0 26 -21 52 -59 52c-79 0 -133 -69 -133 -69l-68 92s86 97 204 97c114 0 185 -77 185 -157c0 -125 -141 -160 -141 -275v-43h-128zM149 0v141h128v-141h-128z" />
    <glyph glyph-name="quotedbl" unicode="&#x22;" horiz-adv-x="311" 
d="M56 432l-16 189h96l-17 -189h-63zM191 432l-17 189h97l-17 -189h-63z" />
    <glyph glyph-name="quotesingle" unicode="'" horiz-adv-x="137" 
d="M37 432l-17 189h97l-17 -189h-63z" />
    <glyph glyph-name="semicolon" unicode=";" horiz-adv-x="282" 
d="M99 347v163h129v-163h-129zM57 -61l40 205h122l-73 -205h-89z" />
    <glyph glyph-name="slash" unicode="/" horiz-adv-x="443" 
d="M30 0l262 671h121l-263 -671h-120z" />
    <glyph glyph-name="underscore" unicode="_" horiz-adv-x="595" 
d="M40 -113v113h515v-113h-515z" />
    <glyph glyph-name="braceleft" unicode="{" horiz-adv-x="361" 
d="M358 -186c-168 0 -221 104 -221 190v183c0 50 -24 99 -97 99v99c73 0 97 48 97 99v182c0 86 53 191 221 191v-129c-65 0 -92 -16 -92 -60v-202c0 -83 -55 -125 -67 -131c12 -5 67 -48 67 -131v-201c0 -45 27 -61 92 -61v-128z" />
    <glyph glyph-name="braceright" unicode="}" horiz-adv-x="361" 
d="M4 -186v129c65 0 92 16 92 60v202c0 82 55 126 66 131c-11 5 -66 47 -66 131v201c0 44 -27 61 -92 61v128c167 0 220 -105 220 -190v-183c0 -50 24 -99 98 -99v-99c-74 0 -98 -49 -98 -99v-182c0 -86 -53 -191 -220 -191z" />
    <glyph glyph-name="bracketleft" unicode="[" horiz-adv-x="257" 
d="M254 743h-87v-816h87v-91h-201v999h201v-92z" />
    <glyph glyph-name="bracketright" unicode="]" horiz-adv-x="257" 
d="M204 835v-999h-200v91h86v816h-86v92h200z" />
    <glyph glyph-name="parenleft" unicode="(" horiz-adv-x="378" 
d="M306 -164c0 0 -266 133 -266 496s266 503 266 503l65 -65s-223 -135 -223 -438c0 -302 226 -421 226 -421z" />
    <glyph glyph-name="parenright" unicode=")" horiz-adv-x="378" 
d="M72 -164l-68 75s226 119 226 421c0 303 -223 438 -223 438l65 65s266 -140 266 -503s-266 -496 -266 -496z" />
    <glyph glyph-name="hyphen" unicode="-" horiz-adv-x="385" 
d="M345 280h-305v112h305v-112z" />
    <glyph glyph-name="quotedblleft" unicode="&#x201c;" horiz-adv-x="393" 
d="M40 483l65 188h89l-48 -188h-106zM200 483l64 188h89l-47 -188h-106z" />
    <glyph glyph-name="quotedblright" unicode="&#x201d;" horiz-adv-x="393" 
d="M40 483l48 188h106l-65 -188h-89zM200 483l47 188h106l-65 -188h-88z" />
    <glyph glyph-name="quoteleft" unicode="&#x2018;" horiz-adv-x="233" 
d="M40 483l64 188h89l-47 -188h-106z" />
    <glyph glyph-name="quoteright" unicode="&#x2019;" horiz-adv-x="233" 
d="M40 483l47 188h106l-64 -188h-89z" />
    <glyph glyph-name="space" unicode=" " horiz-adv-x="223" 
 />
    <glyph glyph-name="dollar" unicode="$" horiz-adv-x="516" 
d="M167 476c0 -90 297 -107 297 -279c0 -83 -64 -147 -150 -167v-100h-112v102c-87 23 -155 92 -162 99l80 80c6 -7 68 -72 140 -72c54 0 89 27 89 57c0 90 -296 107 -296 279c0 83 63 147 149 166v100h112v-102c87 -23 155 -91 162 -98l-79 -80c-7 8 -70 70 -141 70
c-54 0 -89 -25 -89 -55z" />
    <glyph glyph-name="plus" unicode="+" horiz-adv-x="561" 
d="M507 392v-112h-170v-171h-113v171h-171v112h171v171h113v-171h170z" />
    <glyph glyph-name="minus" unicode="&#x2212;" horiz-adv-x="413" 
d="M53 280v112h306v-112h-306z" />
    <glyph glyph-name="equal" unicode="=" horiz-adv-x="475" 
d="M53 382v94h368v-94h-368zM53 195v94h368v-94h-368z" />
    <glyph glyph-name="greater" unicode="&#x3e;" horiz-adv-x="465" 
d="M53 113v116l233 107l-233 107v116l372 -185v-76z" />
    <glyph glyph-name="less" unicode="&#x3c;" horiz-adv-x="465" 
d="M411 113l-371 185v76l371 185v-116l-232 -107l232 -107v-116z" />
    <glyph glyph-name="asciitilde" unicode="~" horiz-adv-x="590" 
d="M391 510c-83 0 -115 61 -181 61c-46 0 -75 -59 -75 -59l-95 48s58 119 160 119c86 0 123 -63 181 -63c48 0 81 54 81 54l88 -59s-61 -101 -159 -101z" />
    <glyph glyph-name="percent" unicode="%" horiz-adv-x="779" 
d="M193 308c-84 0 -153 69 -153 154s69 154 153 154c86 0 155 -69 155 -154s-69 -154 -155 -154zM112 0l449 607h106l-448 -607h-107zM193 399c35 0 64 29 64 63c0 35 -29 63 -64 63s-62 -29 -62 -63s28 -63 62 -63zM586 -7c-85 0 -154 69 -154 153c0 86 69 154 154 154
s153 -68 153 -154c0 -84 -68 -153 -153 -153zM586 84c34 0 62 28 62 62c0 35 -27 63 -62 63s-62 -28 -62 -63c0 -34 27 -62 62 -62z" />
    <glyph glyph-name="at" unicode="@" horiz-adv-x="861" 
d="M430 727c225 0 392 -193 392 -389c0 -126 -79 -221 -173 -221c-48 0 -91 28 -120 69c-34 -33 -79 -53 -124 -53c-92 0 -179 86 -179 198c0 128 105 196 183 196c34 0 75 -14 110 -42c6 21 10 33 10 33l96 -22s-34 -118 -34 -188c0 -60 28 -92 58 -92c39 0 74 55 74 122
c0 142 -125 291 -293 291c-172 0 -293 -145 -293 -278c0 -190 146 -307 284 -307c119 0 153 47 153 47l71 -70s-62 -77 -214 -77c-213 0 -391 174 -391 388c0 229 180 395 390 395zM409 230c37 0 77 41 83 87c0 6 1 12 1 18c-2 54 -38 92 -84 92c-47 0 -85 -37 -85 -98
c0 -54 40 -99 85 -99z" />
    <glyph glyph-name="ampersand" unicode="&#x26;" horiz-adv-x="559" 
d="M546 419v-114h-54v-98c0 -118 -75 -215 -216 -215c-148 0 -233 83 -233 200s105 160 105 160s-78 48 -78 163c0 113 91 166 178 166c116 0 174 -69 174 -69l-61 -98s-33 39 -92 39c-53 0 -72 -32 -72 -65c0 -41 32 -69 91 -69h81v48h123v-48h54zM369 224v81h-91
c-58 0 -112 -33 -112 -96c0 -50 33 -88 107 -88c61 0 96 49 96 103z" />
    <glyph glyph-name="bar" unicode="|" horiz-adv-x="327" 
d="M107 -164v999h113v-999h-113z" />
    <glyph glyph-name="asciicircum" unicode="^" horiz-adv-x="388" 
d="M40 415l127 256h54l127 -256l-102 1l-52 112l-53 -112z" />
    </font>
</defs>
</svg>
