<?xml version="1.0" encoding="UTF-8"?>
<svg width="407px" height="80px" viewBox="0 0 407 80" version="1.1" xmlns="http://www.w3.org/2000/svg" xmlns:xlink="http://www.w3.org/1999/xlink">
    <!-- Generator: Sketch 55.1 (78136) - https://sketchapp.com -->
    <title>Meadow.Foundation_Logo</title>
    <desc>Created with Sketch.</desc>
    <g id="Page-1" stroke="none" stroke-width="1" fill="none" fill-rule="evenodd">
        <g id="Dev_Home" transform="translate(-977.000000, -489.000000)" fill-rule="nonzero">
            <g id="Page_Content" transform="translate(0.000000, 126.000000)">
                <g id="Meadow.Foundation" transform="translate(800.000000, 320.000000)">
                    <g id="Meadow.Foundation_Logo" transform="translate(177.000000, 43.000000)">
                        <g id="meadow-logo-wordmark-mono-h" fill="#000000">
                            <path d="M192.271266,28.1766667 L192.271266,46.6051235 L188.016476,46.6051235 L188.016476,28.2839506 C188.016476,22.9197531 184.017171,18.6674074 178.760099,18.6674074 C173.503027,18.6674074 169.425112,22.9148765 169.425112,28.2839506 L169.425112,46.5904938 L165.234194,46.5904938 L165.234194,28.2839506 C165.234194,22.9197531 161.107146,18.6674074 155.899206,18.6674074 C150.691266,18.6674074 146.608437,22.9197531 146.608437,28.2839506 L146.608437,46.5904938 L142.48139,46.5904938 L142.48139,15.3659877 L146.608437,15.3659877 L146.608437,19.9938272 C148.938232,16.8090585 152.651397,14.9093177 156.616526,14.8734538 C161.307328,14.8706744 165.615581,17.4412442 167.813598,21.554321 C169.940993,17.5555556 174.200695,14.8734538 179.44794,14.8734538 C186.763623,14.8685802 192.271266,20.7399383 192.271266,28.1766667 Z" id="Path"></path>
                            <path d="M226.334144,35.047716 L229.832308,36.2961111 C228.206055,40.685 222.767196,46.8538272 214.321489,46.7953086 C207.172652,46.690532 200.907453,42.0222121 198.81067,35.2379012 C198.379469,33.7713446 198.167581,32.2498881 198.181787,30.7222222 C198.071715,22.2093685 204.706882,15.1064558 213.267496,14.573046 C221.82811,14.0396362 229.306157,20.2631578 230.269578,28.7228395 C230.320172,28.9896052 230.341586,29.2610148 230.333449,29.5323457 L203.001588,34.4869136 C204.441647,39.5006203 209.049261,42.9643844 214.301836,42.9818519 C220.197618,42.9818519 224.894591,38.9830864 226.334144,35.047716 Z M202.313747,29.6835185 C202.313747,30.0590123 202.372705,30.4979012 202.372705,31.1464815 L225.64139,26.9624074 C224.055584,21.8708224 219.312506,18.3988414 213.943176,18.3991975 C207.695374,18.566986 202.629609,23.4781736 202.313747,29.6737654 L202.313747,29.6835185 Z" id="Shape"></path>
                            <path d="M268.007494,15.3659877 L268.007494,46.6051235 L263.880447,46.6051235 L263.880447,41.5432716 C258.960612,47.0927695 250.860228,48.5933027 244.25485,45.1787605 C237.649472,41.7642184 234.244593,34.3162272 236.005515,27.1337812 C237.766437,19.9513352 244.238495,14.8889238 251.686005,14.8684077 C256.377734,14.8468334 260.840039,16.8811294 263.880447,20.4278395 L263.880447,15.3659877 L268.007494,15.3659877 Z M263.757618,30.9709259 C263.757618,24.1437654 258.500546,18.7795679 251.744963,18.7795679 C244.961316,18.7795679 239.462084,24.2378248 239.462084,30.9709259 C239.462084,37.704027 244.961316,43.1622873 251.744963,43.1622873 C258.500546,43.1671605 263.757618,37.7980864 263.757618,30.9855556 L263.757618,30.9709259 Z" id="Shape"></path>
                            <path d="M306.870521,0.126790123 L306.870521,46.6051235 L302.743474,46.6051235 L302.743474,41.5432716 C297.823639,47.0927695 289.723255,48.5933027 283.117877,45.1787605 C276.512499,41.7642184 273.10762,34.3162272 274.868543,27.1337812 C276.629465,19.9513352 283.101523,14.8889238 290.549032,14.8685802 C295.240762,14.8468334 299.703066,16.8811294 302.743474,20.4278395 L302.743474,0.126790123 L306.870521,0.126790123 Z M302.620645,30.9855556 C302.620645,24.1583951 297.363573,18.7941975 290.60799,18.7941975 C283.852407,18.7941975 278.536377,24.1583951 278.536377,30.9855556 C278.536377,37.812716 283.852407,43.1769136 290.60799,43.1769136 C297.363573,43.1769136 302.620645,37.7980864 302.620645,30.9855556 Z" id="Shape"></path>
                            <path d="M313.586529,30.9855556 C313.64099,22.1511565 320.890801,15.0279698 329.791611,15.0636392 C338.692422,15.0995773 345.883825,22.2808541 345.865905,31.115399 C345.847918,39.9499438 338.627385,47.1025309 329.726501,47.1025309 C325.429312,47.1013042 321.30992,45.3997471 318.280584,42.3746764 C315.251247,39.3496057 313.561952,35.2506556 313.586529,30.9855556 Z M341.798114,30.9855556 C341.798114,24.1583951 336.545955,18.7405556 329.790372,18.7405556 C323.034789,18.7405556 317.777717,24.1779012 317.777717,30.9855556 C317.777717,37.7932099 323.093747,43.1769136 329.790372,43.1769136 C336.486998,43.1769136 341.798114,37.7980864 341.798114,30.9855556 Z" id="Shape"></path>
                            <polygon id="Path" points="396 15.3659877 384.93067 46.6051235 380.769231 46.6051235 371.925558 20.8667284 363.081886 46.6051235 358.954839 46.6051235 347.94938 15.3659877 352.076427 15.3659877 361.023275 40.7971605 370.029082 15.3659877 373.777816 15.3659877 382.788536 40.7971605 391.794342 15.3659877"></polygon>
                            <g id="Mountain" transform="translate(0.000000, 6.827160)">
                                <path d="M51.0003143,71.8351501 L2.96862522,71.8351501 C1.88265214,71.8351501 0.890433617,71.224423 0.406935143,70.2592659 C-0.0769181011,69.2895619 0.0233886717,68.1331413 0.667106793,67.2597895 L49.4592975,1.49642768 C49.9975195,0.769300205 50.8517711,0.339212838 51.7608161,0.337689432 L51.7608161,0.337689432 C52.6604431,0.347562447 53.5030259,0.776751242 54.0356499,1.49642768 L78.0514944,33.8682637 C78.9944686,35.140448 78.726327,36.929525 77.4510984,37.8741873 C76.8427746,38.3261931 76.077709,38.5182126 75.3260347,38.407545 C74.5743604,38.2968774 73.8983952,37.8926977 73.4484577,37.2848862 L51.7608161,8.01184732 L8.67238826,66.1010512 L51.0003143,66.1010512 C52.5956288,66.1010512 53.8888862,67.3846729 53.8888862,68.9681006 C53.8888862,70.5515284 52.5956288,71.8351501 51.0003143,71.8351501 Z" id="Path"></path>
                                <path d="M148.571353,71.8351507 C147.659958,71.8351507 146.802778,71.4054179 146.263164,70.6764118 L99.785834,8.01184732 L53.3085035,70.6764118 C52.3669761,71.9346911 50.5779027,72.2010523 49.3058627,71.2723341 C48.0353664,70.3212375 47.770811,68.5333041 48.7121379,67.2597895 L97.4843154,1.49642768 C98.0222441,0.769205766 98.8768843,0.339651138 99.785834,0.339651138 C100.694783,0.339651138 101.549423,0.769205766 102.087352,1.49642768 L150.866201,67.2597895 C151.811321,68.5323664 151.546334,70.3232188 150.272476,71.2723341 C149.781263,71.6368113 149.184651,71.8342002 148.571353,71.8351507 Z" id="Path"></path>
                                <path d="M81.9273851,62.6976712 C81.68476,62.4256717 81.340208,62.2645469 80.9744121,62.2520273 C80.6086162,62.2395078 80.253701,62.3766922 79.9927753,62.6314575 L79.9327356,62.6976712 L73.2216416,69.3190328 C72.9501816,69.5556441 72.7869986,69.8914058 72.7693963,70.2495626 C72.7517939,70.6077193 72.8812776,70.9576513 73.1282465,71.2193636 C73.155966,71.2534736 73.187275,71.2845494 73.2216416,71.3120623 C73.456498,71.5762193 73.7877221,71.7366025 74.1420315,71.7577277 C74.4963405,71.7788524 74.8445267,71.6589777 75.1095534,71.4246256 L75.2162906,71.3120623 L80.9267246,65.6640412 L86.6438301,71.3120623 C86.9035192,71.5789658 87.2641116,71.7254908 87.6378191,71.7159654 C88.0107106,71.711182 88.3680574,71.5669436 88.6384792,71.3120623 C89.1865098,70.8098857 89.2280593,69.9644662 88.7318743,69.411732 L88.6384792,69.3190328 L81.9273851,62.6976712 Z" id="Path"></path>
                                <path d="M81.9273851,55.3678244 C81.6838216,55.0967252 81.3387592,54.9368258 80.972977,54.9255585 C80.6071948,54.9142913 80.2528068,55.0526451 79.9927753,55.3082321 L79.9327356,55.3678244 L73.2216416,62.0289138 C72.9501816,62.2655256 72.7869986,62.6012873 72.7693963,62.9594435 C72.7517939,63.3176003 72.8812776,63.6675322 73.1282465,63.9292446 C73.1576885,63.9617765 73.1888649,63.9927206 73.2216416,64.0219438 C73.4574252,64.2851586 73.7891376,64.4443036 74.1434239,64.4641843 C74.4977108,64.4840655 74.8453816,64.3630453 75.1095534,64.1278852 C75.1095534,64.1278852 75.1829352,64.0616715 75.2162906,64.0219438 L80.9267246,58.3673008 L86.6438301,64.0219438 C86.9046713,64.2864143 87.2651143,64.4304777 87.6378191,64.419225 C88.0108575,64.4216506 88.3700334,64.2790508 88.6384792,64.0219438 C89.1830386,63.5181623 89.2244477,62.6756087 88.7318743,62.1216129 L88.6384792,62.0289138 L81.9273851,55.3678244 Z" id="Path"></path>
                                <path d="M81.9273851,48.5941715 C81.6838216,48.3230725 81.3387592,48.1631732 80.972977,48.1519059 C80.6071948,48.1406386 80.2528068,48.2789926 79.9927753,48.5345792 L79.9327356,48.5941715 L73.2216416,55.2618825 C72.6721675,55.8117157 72.6721675,56.6984575 73.2216416,57.2482907 C73.4860389,57.5135571 73.8463596,57.6628227 74.2223016,57.6628227 C74.5982437,57.6628227 74.9585644,57.5135571 75.2229617,57.2482907 L80.9333957,51.6002696 L86.6505012,57.2482907 C86.9124867,57.5103327 87.2727833,57.6519378 87.6444902,57.638951 C88.0158252,57.6390686 88.3734009,57.4994702 88.6451503,57.2482907 C89.1849469,56.7431086 89.220466,55.902869 88.7252032,55.3545817 L88.6318081,55.2618825 L81.9273851,48.5941715 Z" id="Path"></path>
                                <path d="M100.793165,62.6976712 C100.555135,62.4323063 100.219656,62.2730072 99.8621239,62.255575 C99.5045915,62.2381428 99.1549976,62.36404 98.8919107,62.6049725 C98.8575447,62.6324855 98.8262356,62.6635612 98.7985156,62.6976712 L92.127448,69.3190328 C91.855988,69.5556441 91.6928051,69.8914058 91.6752027,70.2495626 C91.6576004,70.6077193 91.787084,70.9576513 92.0340529,71.2193636 C92.0617724,71.2534736 92.0930815,71.2845494 92.127448,71.3120623 C92.387137,71.5789658 92.7477294,71.7254908 93.121437,71.7159654 C93.4943285,71.711182 93.8516752,71.5669436 94.1220971,71.3120623 L99.82586,65.6640412 L105.536294,71.3120623 C105.798873,71.5806775 106.159875,71.7322745 106.536955,71.7322745 C106.914034,71.7322745 107.275035,71.5806775 107.537615,71.3120623 C108.087088,70.7622292 108.087088,69.8754873 107.537615,69.3256541 L100.793165,62.6976712 Z" id="Path"></path>
                                <path d="M100.793165,55.3678244 C100.555135,55.102459 100.219656,54.9431599 99.8621239,54.9257277 C99.5045915,54.9082956 99.1549976,55.0341928 98.8919107,55.2751252 L98.7985156,55.3678244 L92.127448,62.0289138 C91.7221646,62.4220275 91.5999893,63.0209967 91.8192991,63.539621 C92.0386094,64.0582448 92.5548848,64.3912415 93.121437,64.3794973 C93.4944754,64.3819224 93.8536513,64.2393225 94.1220971,63.9822156 L99.82586,58.3275726 L105.536294,63.9822156 C105.774324,64.2475805 106.109803,64.4068796 106.467335,64.4243118 C106.824868,64.4417439 107.174461,64.3158467 107.437548,64.0749143 C107.470325,64.0456916 107.501501,64.0147475 107.530943,63.9822156 C108.080417,63.4323819 108.080417,62.5456406 107.530943,61.9958069 L107.530943,61.9958069 L100.793165,55.3678244 Z" id="Path"></path>
                                <path d="M100.793165,48.5941715 C100.555135,48.3288064 100.219656,48.1695072 99.8621239,48.1520751 C99.5045915,48.1346429 99.1549976,48.2605402 98.8919107,48.5014724 C98.8591341,48.5306953 98.8279581,48.5616393 98.7985156,48.5941715 L92.127448,55.2618825 C91.855988,55.4984938 91.6928051,55.8342555 91.6752027,56.1924123 C91.6576004,56.550569 91.787084,56.900501 92.0340529,57.1622134 C92.063495,57.1947453 92.0946714,57.2256894 92.127448,57.2549121 C92.392908,57.5116781 92.7508365,57.6523518 93.121437,57.6455724 C93.492772,57.6456899 93.8503477,57.5060916 94.1220971,57.2549121 L99.7124521,51.6068909 L105.402873,57.2549121 C105.66727,57.5201785 106.027591,57.6694441 106.403533,57.6694441 C106.779476,57.6694441 107.139796,57.5201785 107.404194,57.2549121 C107.946514,56.7021739 107.946514,55.821242 107.404194,55.2685039 L100.793165,48.5941715 Z" id="Path"></path>
                                <path d="M119.645603,62.6976712 C119.407574,62.4323063 119.072094,62.2730072 118.714562,62.255575 C118.357029,62.2381428 118.007435,62.36404 117.744349,62.6049725 L117.650953,62.6976712 L110.979886,69.3190328 C110.708426,69.5556441 110.545243,69.8914058 110.527641,70.2495626 C110.510039,70.6077193 110.639522,70.9576513 110.886491,71.2193636 C110.91421,71.2534736 110.945519,71.2845494 110.979886,71.3120623 C111.214742,71.5762193 111.545966,71.7366025 111.900276,71.7577277 C112.254585,71.7788524 112.602771,71.6589777 112.867798,71.4246256 L112.974535,71.3120623 L118.684969,65.6640412 L124.342035,71.3716547 C124.60402,71.6336967 124.964317,71.7753018 125.336024,71.762315 C125.708786,71.7701326 126.069174,71.6294361 126.336684,71.3716547 C126.885921,70.8627703 126.921579,70.0104076 126.416737,69.4580816 L126.336684,69.3786251 L119.645603,62.6976712 Z" id="Path"></path>
                                <path d="M119.645603,55.3678244 C119.407574,55.102459 119.072094,54.9431599 118.714562,54.9257277 C118.357029,54.9082956 118.007435,55.0341928 117.744349,55.2751252 C117.716629,55.3092352 117.68532,55.340311 117.650953,55.3678244 L110.979886,62.0289138 C110.708426,62.2655256 110.545243,62.6012873 110.527641,62.9594435 C110.510039,63.3176003 110.639522,63.6675322 110.886491,63.9292446 C110.915933,63.9617765 110.947109,63.9927206 110.979886,64.0219438 C111.23919,64.2815422 111.592232,64.4275717 111.960533,64.4275717 C112.328834,64.4275717 112.681875,64.2815422 112.94118,64.0219438 L112.974535,64.0219438 L118.684969,58.3673008 L124.342035,64.0219438 C124.602876,64.2864143 124.963319,64.4304777 125.336024,64.419225 C125.709606,64.424538 126.06985,64.2815144 126.336684,64.0219438 C126.608144,63.785332 126.771327,63.4495703 126.788929,63.0914135 C126.806531,62.7332568 126.677048,62.3833253 126.430079,62.1216129 L126.336684,62.0289138 L119.645603,55.3678244 Z" id="Path"></path>
                                <path d="M119.645603,48.5941715 C119.407574,48.3288064 119.072094,48.1695072 118.714562,48.1520751 C118.357029,48.1346429 118.007435,48.2605402 117.744349,48.5014724 C117.714906,48.5340046 117.68373,48.5649486 117.650953,48.5941715 L110.979886,55.2618825 C110.430412,55.8117157 110.430412,56.6984575 110.979886,57.2482907 C111.244283,57.5135571 111.604604,57.6628227 111.980546,57.6628227 C112.356488,57.6628227 112.716809,57.5135571 112.981206,57.2482907 L118.69164,51.6002696 L124.348706,57.2482907 C124.610691,57.5103327 124.970988,57.6519378 125.342695,57.638951 C125.714283,57.6404018 126.072335,57.5006172 126.343355,57.2482907 C126.614815,57.0116793 126.777998,56.6759176 126.7956,56.3177609 C126.813202,55.9596042 126.683719,55.6096727 126.43675,55.3479603 L126.343355,55.2552611 L119.645603,48.5941715 Z" id="Path"></path>
                            </g>
                        </g>
                        <path d="M179.627777,77.0173502 C179.627777,77.7018961 179.343041,78.2967905 178.77356,78.8020505 C178.20408,79.3073105 177.534114,79.5599369 176.76364,79.5599369 C175.993167,79.5599369 175.339949,79.3073105 174.803968,78.8020505 C174.267987,78.2967905 174,77.7018961 174,77.0173502 C174,76.3002069 174.267987,75.689014 174.803968,75.1837539 C175.339949,74.6784939 175.993167,74.4258675 176.76364,74.4258675 C177.534114,74.4258675 178.20408,74.6784939 178.77356,75.1837539 C179.343041,75.689014 179.627777,76.3002069 179.627777,77.0173502 Z M194.199698,64.5977918 L194.199698,72.4211356 C194.199698,74.8659426 194.442561,76.430596 194.928294,77.115142 C195.414027,77.7996879 196.494349,78.1419558 198.16929,78.1419558 L198.16929,79.1687697 L186.662497,79.1687697 L186.662497,78.1419558 C188.337439,78.1419558 189.41776,77.7996879 189.903494,77.115142 C190.389227,76.430596 190.63209,74.8659426 190.63209,72.4211356 L190.63209,64.5977918 L186.511753,64.5977918 L186.511753,62.8864353 L190.63209,62.8864353 L190.63209,58.192429 C190.63209,55.0956734 191.427675,52.7894398 193.01887,51.2736593 C194.610065,49.7578788 196.561343,49 198.872763,49 C200.413709,49 201.636398,49.383014 202.540867,50.1490536 C203.445335,50.9150932 203.897563,51.738166 203.897563,52.6182965 C203.897563,53.1398552 203.755195,53.5636158 203.470455,53.8895899 C203.185715,54.215564 202.77536,54.3785489 202.239379,54.3785489 C201.703398,54.3785489 201.284668,54.1829672 200.983179,53.7917981 C200.681689,53.400629 200.480699,52.9687195 200.380203,52.4960568 C200.279706,52.023394 200.028469,51.5914846 199.626483,51.2003155 C199.224497,50.8091463 198.671774,50.6135647 197.968298,50.6135647 C196.661844,50.6135647 195.707141,51.1921604 195.104162,52.3493691 C194.501183,53.5065778 194.199698,55.4542448 194.199698,58.192429 L194.199698,62.8864353 L199.224499,62.8864353 L199.224499,64.5977918 L194.199698,64.5977918 Z M220.177917,64.6955836 C222.187847,66.4232473 223.192797,68.5257499 223.192797,71.0031546 C223.192797,73.4805593 222.196221,75.5993605 220.203041,77.3596215 C218.20986,79.1198824 215.823103,80 213.0427,80 C210.262297,80 207.87554,79.1198824 205.882359,77.3596215 C203.889179,75.5993605 202.892603,73.4805593 202.892603,71.0031546 C202.892603,68.5257499 203.889179,66.415098 205.882359,64.6711356 C207.87554,62.9271733 210.262297,62.055205 213.0427,62.055205 C215.823103,62.055205 218.201485,62.9353226 220.177917,64.6955836 Z M217.56502,76.137224 C218.603485,74.8007294 219.122709,73.0893901 219.122709,71.0031546 C219.122709,68.916919 218.603485,67.2137291 217.56502,65.8935331 C216.526556,64.5733371 215.019131,63.9132492 213.0427,63.9132492 C211.066269,63.9132492 209.558844,64.5814865 208.52038,65.9179811 C207.481915,67.2544757 206.962691,68.9495167 206.962691,71.0031546 C206.962691,73.0567924 207.481915,74.7518335 208.52038,76.0883281 C209.558844,77.4248227 211.066269,78.0930599 213.0427,78.0930599 C215.019131,78.0930599 216.526556,77.4411213 217.56502,76.137224 Z M250.879448,78.7776025 L244.146215,80 C243.878224,79.4784413 243.610238,78.4353389 243.342247,76.8706625 C241.265319,78.956898 239.071178,80 236.759758,80 C232.605903,80 230.529006,77.5552295 230.529006,72.6656151 L230.529006,69.5851735 C230.529006,67.1403661 230.286143,65.5757131 229.80041,64.8911672 C229.314677,64.2066213 228.234355,63.8643533 226.559413,63.8643533 L226.559413,62.8864353 L234.096614,62.8864353 L234.096614,72.4211356 C234.096614,75.9090604 235.369551,77.6529968 237.915463,77.6529968 C239.054423,77.6529968 240.243614,77.1884906 241.483071,76.2594637 C242.722528,75.3304368 243.342247,74.1813947 243.342247,72.8123028 L243.342247,69.5851735 C243.342247,67.1403661 243.099384,65.5757131 242.613651,64.8911672 C242.127918,64.2066213 241.030847,63.8643533 239.322407,63.8643533 L239.322407,62.8864353 L246.859608,62.8864353 L246.859608,72.0299685 C246.859608,74.4747754 247.10247,76.0394288 247.588204,76.7239748 C248.073937,77.4085207 249.171007,77.7507886 250.879448,77.7507886 L250.879448,78.7776025 Z M261.280785,65.5757098 C263.190219,63.2286951 265.518353,62.055205 268.265258,62.055205 C270.442682,62.055205 272.075726,62.7234423 273.164438,64.0599369 C274.25315,65.3964315 274.797498,67.1566662 274.797498,69.340694 L274.797498,72.4211356 C274.797498,74.8659426 275.040361,76.430596 275.526094,77.115142 C276.011828,77.7996879 277.092149,78.1419558 278.767091,78.1419558 L278.767091,79.1687697 L267.260298,79.1687697 L267.260298,78.1419558 C268.901741,78.1419558 269.973687,77.7915386 270.47617,77.090694 C270.978652,76.3898494 271.22989,74.8333453 271.22989,72.4211356 L271.22989,69.5851735 C271.22989,66.0972488 269.839709,64.3533123 267.059306,64.3533123 C265.618855,64.3533123 264.295671,64.8422665 263.089713,65.8201893 C261.883755,66.798112 261.280785,67.9390049 261.280785,69.2429022 L261.280785,72.4211356 C261.280785,74.9311376 261.481775,76.5120892 261.883761,77.1640379 C262.285747,77.8159865 263.257199,78.1419558 264.798145,78.1419558 L264.798145,79.1687697 L253.743584,79.1687697 L253.743584,78.1419558 C255.418526,78.1419558 256.498847,77.7996879 256.984581,77.115142 C257.470314,76.430596 257.713177,74.8659426 257.713177,72.4211356 L257.713177,69.9763407 C257.713177,67.564131 257.470314,66.0157762 256.984581,65.3312303 C256.498847,64.6466843 255.418526,64.3044164 253.743584,64.3044164 L253.743584,63.2776025 L260.426569,62.055205 C260.728058,62.674556 261.012794,63.8480461 261.280785,65.5757098 Z M297.007117,74.181388 L297.007117,67.873817 C296.538133,66.7003097 295.851417,65.7631474 294.946948,65.0623028 C294.04248,64.3614583 293.03753,64.011041 291.932068,64.011041 C290.056133,64.011041 288.632454,64.6629796 287.660988,65.966877 C286.689521,67.2707743 286.203796,68.9495167 286.203796,71.0031546 C286.203796,73.0893901 286.689521,74.7844307 287.660988,76.0883281 C288.632454,77.3922254 290.056133,78.044164 291.932068,78.044164 C293.03753,78.044164 294.04248,77.6937468 294.946948,76.9929022 C295.851417,76.2920576 296.538133,75.3548953 297.007117,74.181388 Z M297.007117,64.9400631 L297.007117,56.9700315 C297.007117,54.5252241 296.764254,52.9605712 296.278521,52.2760252 C295.792787,51.5914793 294.712466,51.2492114 293.037524,51.2492114 L293.037524,50.2223975 L300.574725,49 L300.574725,72.0299685 C300.574725,74.4747754 300.817588,76.0394288 301.303321,76.7239748 C301.789054,77.4085207 302.869376,77.7507886 304.544317,77.7507886 L304.544317,78.7776025 L297.861333,80 C297.626841,79.5110386 297.358854,78.5168321 297.057365,77.0173502 C295.415921,79.0057935 293.355774,80 290.87686,80 C288.498443,80 286.44667,79.1198824 284.721479,77.3596215 C282.996289,75.5993605 282.133707,73.4805593 282.133707,71.0031546 C282.133707,68.5257499 282.996289,66.415098 284.721479,64.6711356 C286.44667,62.9271733 288.498443,62.055205 290.87686,62.055205 C293.355774,62.055205 295.399173,63.0168148 297.007117,64.9400631 Z M324.945008,78.1908517 C323.973541,79.2013723 322.868096,79.7066246 321.628639,79.7066246 C319.618709,79.7066246 318.479766,78.7613135 318.211775,76.8706625 C315.967353,78.826508 313.873707,79.8044164 311.930774,79.8044164 C310.657818,79.8044164 309.585872,79.437701 308.714902,78.7042587 C307.843932,77.9708164 307.408454,76.9684605 307.408454,75.6971609 C307.408454,72.2744307 310.976027,69.9600483 318.111279,68.7539432 C318.111279,66.8306949 317.893539,65.4942204 317.458055,64.7444795 C317.02257,63.9947385 316.118115,63.6198738 314.744662,63.6198738 C314.074686,63.6198738 313.429843,63.8317541 312.810114,64.2555205 C312.190386,64.6792869 311.880526,65.2497338 311.880526,65.966877 C311.880526,66.4558384 311.713034,66.8633003 311.378046,67.1892744 C311.043058,67.5152485 310.641078,67.6782334 310.172094,67.6782334 C309.669612,67.6782334 309.250882,67.5152485 308.915894,67.1892744 C308.580906,66.8633003 308.413414,66.4558384 308.413414,65.966877 C308.413414,64.8259669 309.058257,63.8888051 310.347962,63.1553628 C311.637667,62.4219205 313.119969,62.055205 314.794911,62.055205 C317.240326,62.055205 318.998988,62.576756 320.070951,63.6198738 C321.142914,64.6629916 321.678887,66.3580327 321.678887,68.7050473 L321.678887,76.0883281 C321.678887,77.3596277 322.064118,77.9952681 322.834591,77.9952681 C323.270076,77.9952681 323.739053,77.750791 324.241535,77.2618297 L324.945008,78.1908517 Z M318.111279,75.2570978 L318.111279,70.2697161 C313.488439,71.3128339 311.177054,72.9263822 311.177054,75.1104101 C311.177054,75.860151 311.403168,76.4631942 311.855402,76.9195584 C312.307637,77.3759225 312.868734,77.6041009 313.53871,77.6041009 C314.778168,77.6041009 316.302342,76.8217742 318.111279,75.2570978 Z M329.768816,64.5977918 L327.15592,64.5977918 L327.15592,63.4242902 C328.59637,63.1309134 329.651567,62.4952729 330.321544,61.5173502 C330.991521,60.5394274 331.426999,59.2029529 331.627992,57.5078864 L333.336424,57.5078864 L333.336424,62.8864353 L337.708001,62.8864353 L337.708001,64.5977918 L333.336424,64.5977918 L333.336424,74.3769716 C333.336424,76.7239863 334.090137,77.8974763 335.597585,77.8974763 C336.569051,77.8974763 337.657747,77.3433286 338.863705,76.2350158 L339.717921,77.0662461 C339.014446,77.8811815 338.168613,78.5494193 337.180397,79.0709779 C336.192181,79.5925366 335.279351,79.8533123 334.441881,79.8533123 C333.00143,79.8533123 331.862487,79.3969554 331.025016,78.4842271 C330.187545,77.5714989 329.768816,76.2024276 329.768816,74.3769716 L329.768816,64.5977918 Z M353.988355,79.1687697 L342.481561,79.1687697 L342.481561,78.1419558 C344.156503,78.1419558 345.236825,77.7996879 345.722558,77.115142 C346.208291,76.430596 346.451154,74.8659426 346.451154,72.4211356 L346.451154,69.9763407 C346.451154,67.564131 346.208291,66.0157762 345.722558,65.3312303 C345.236825,64.6466843 344.156503,64.3044164 342.481561,64.3044164 L342.481561,63.2776025 L350.018762,62.055205 L350.018762,72.4211356 C350.018762,74.8659426 350.261625,76.430596 350.747358,77.115142 C351.233091,77.7996879 352.313413,78.1419558 353.988355,78.1419558 L353.988355,79.1687697 Z M350.420746,55.0630915 C350.420746,55.6824424 350.203007,56.2039939 349.767522,56.6277603 C349.332037,57.0515266 348.812813,57.2634069 348.209834,57.2634069 C347.606855,57.2634069 347.08763,57.0515266 346.652146,56.6277603 C346.216661,56.2039939 345.998922,55.6824424 345.998922,55.0630915 C345.998922,54.4763378 346.216661,53.971085 346.652146,53.5473186 C347.08763,53.1235522 347.606855,52.9116719 348.209834,52.9116719 C348.812813,52.9116719 349.332037,53.1235522 349.767522,53.5473186 C350.203007,53.971085 350.420746,54.4763378 350.420746,55.0630915 Z M374.640285,64.6955836 C376.650215,66.4232473 377.655165,68.5257499 377.655165,71.0031546 C377.655165,73.4805593 376.658589,75.5993605 374.665409,77.3596215 C372.672228,79.1198824 370.285471,80 367.505068,80 C364.724665,80 362.337908,79.1198824 360.344727,77.3596215 C358.351546,75.5993605 357.354971,73.4805593 357.354971,71.0031546 C357.354971,68.5257499 358.351546,66.415098 360.344727,64.6711356 C362.337908,62.9271733 364.724665,62.055205 367.505068,62.055205 C370.285471,62.055205 372.663853,62.9353226 374.640285,64.6955836 Z M372.027388,76.137224 C373.065853,74.8007294 373.585077,73.0893901 373.585077,71.0031546 C373.585077,68.916919 373.065853,67.2137291 372.027388,65.8935331 C370.988924,64.5733371 369.481499,63.9132492 367.505068,63.9132492 C365.528637,63.9132492 364.021212,64.5814865 362.982747,65.9179811 C361.944283,67.2544757 361.425059,68.9495167 361.425059,71.0031546 C361.425059,73.0567924 361.944283,74.7518335 362.982747,76.0883281 C364.021212,77.4248227 365.528637,78.0930599 367.505068,78.0930599 C369.481499,78.0930599 370.988924,77.4411213 372.027388,76.137224 Z M389.513694,65.5757098 C391.423128,63.2286951 393.751262,62.055205 396.498167,62.055205 C398.675591,62.055205 400.308635,62.7234423 401.397347,64.0599369 C402.48606,65.3964315 403.030408,67.1566662 403.030408,69.340694 L403.030408,72.4211356 C403.030408,74.8659426 403.27327,76.430596 403.759004,77.115142 C404.244737,77.7996879 405.325058,78.1419558 407,78.1419558 L407,79.1687697 L395.493207,79.1687697 L395.493207,78.1419558 C397.13465,78.1419558 398.206597,77.7915386 398.709079,77.090694 C399.211562,76.3898494 399.462799,74.8333453 399.462799,72.4211356 L399.462799,69.5851735 C399.462799,66.0972488 398.072618,64.3533123 395.292215,64.3533123 C393.851765,64.3533123 392.52858,64.8422665 391.322622,65.8201893 C390.116664,66.798112 389.513694,67.9390049 389.513694,69.2429022 L389.513694,72.4211356 C389.513694,74.9311376 389.714684,76.5120892 390.11667,77.1640379 C390.518656,77.8159865 391.490108,78.1419558 393.031055,78.1419558 L393.031055,79.1687697 L381.976493,79.1687697 L381.976493,78.1419558 C383.651435,78.1419558 384.731757,77.7996879 385.21749,77.115142 C385.703223,76.430596 385.946086,74.8659426 385.946086,72.4211356 L385.946086,69.9763407 C385.946086,67.564131 385.703223,66.0157762 385.21749,65.3312303 C384.731757,64.6466843 383.651435,64.3044164 381.976493,64.3044164 L381.976493,63.2776025 L388.659478,62.055205 C388.960968,62.674556 389.245703,63.8480461 389.513694,65.5757098 Z" id=".foundation-copy" fill="#1A80AA"></path>
                    </g>
                </g>
            </g>
        </g>
    </g>
</svg>