<?xml version="1.0" encoding="UTF-8"?>
<svg width="179px" height="35px" viewBox="0 0 179 35" version="1.1" xmlns="http://www.w3.org/2000/svg" xmlns:xlink="http://www.w3.org/1999/xlink">
    <!-- Generator: Sketch 59.1 (86144) - https://sketch.com -->
    <title>Netduino_Logo</title>
    <desc>Created with Sketch.</desc>
    <g id="Page-1" stroke="none" stroke-width="1" fill="none" fill-rule="evenodd">
        <g id="Dev_Home" transform="translate(-842.000000, -758.000000)" fill="#23ABE3" fill-rule="nonzero">
            <g id="Page_Content" transform="translate(0.000000, 126.000000)">
                <g id="Netduino" transform="translate(800.000000, 590.000000)">
                    <path d="M46.2890625,76 L42.0703125,76 L42.0703125,46.9609375 C42.0703125,45.3828046 42.3867156,44.1718792 43.0195312,43.328125 C43.6523469,42.4843708 44.5546816,42.0625 45.7265625,42.0625 C46.5546916,42.0625 47.3007779,42.3359348 47.9648438,42.8828125 C48.6289096,43.4296902 49.2421847,44.2734318 49.8046875,45.4140625 L61.8984375,70.5390625 L61.8984375,42.4375 L66.1640625,42.4375 L66.1640625,71.59375 C66.1640625,73.1250077 65.8515656,74.3203082 65.2265625,75.1796875 C64.6015594,76.0390668 63.7343805,76.46875 62.625,76.46875 C61.7499956,76.46875 60.9648472,76.191409 60.2695312,75.6367188 C59.5742153,75.0820285 58.9609402,74.2421931 58.4296875,73.1171875 L46.2890625,47.828125 L46.2890625,76 Z M93.8671875,65.828125 C93.2890596,69.1093914 91.9609479,71.7031155 89.8828125,73.609375 C87.8046771,75.5156345 85.2734524,76.46875 82.2890625,76.46875 C81.2734324,76.46875 80.2695362,76.3320326 79.2773438,76.0585938 C78.2851513,75.7851549 77.3515669,75.3828152 76.4765625,74.8515625 C74.6328033,73.7265569 73.2031301,72.2578216 72.1875,70.4453125 C71.1718699,68.6328034 70.6640625,66.6406359 70.6640625,64.46875 C70.6640625,62.874992 70.9570283,61.3593822 71.5429688,59.921875 C72.1289092,58.4843678 72.976557,57.1875058 74.0859375,56.03125 C75.195318,54.8906193 76.4570242,54.0234405 77.8710938,53.4296875 C79.2851633,52.8359345 80.7734297,52.5390625 82.3359375,52.5390625 C84.6640741,52.5390625 86.7460846,53.1523376 88.5820312,54.3789062 C90.4179779,55.6054749 91.9062443,57.3906133 93.046875,59.734375 L77.9765625,68.078125 L76.2421875,64.9609375 L87.421875,58.7265625 C86.7343716,57.9609337 85.9609418,57.3828145 85.1015625,56.9921875 C84.2421832,56.6015605 83.3046926,56.40625 82.2890625,56.40625 C80.2265522,56.40625 78.4882883,57.1757736 77.0742188,58.7148438 C75.6601492,60.2539139 74.953125,62.1562387 74.953125,64.421875 C74.953125,66.6718863 75.6640625,68.5703048 77.0859375,70.1171875 C78.5078196,71.6640702 80.2421773,72.4375 82.2890625,72.4375 C84.2421973,72.4375 85.8788996,71.7929752 87.1992188,70.5039062 C88.5195379,69.2148373 89.3437484,67.4453238 89.671875,65.1953125 L93.8671875,65.828125 Z M97.8046875,46.9140625 L101.929688,46.9140625 L101.929688,53.0078125 L108.890625,53.0078125 L108.890625,56.8984375 L101.929688,56.8984375 L101.929688,66.7421875 C101.929688,68.5859467 102.378902,69.9335895 103.277344,70.7851562 C104.175786,71.636723 105.609365,72.0625 107.578125,72.0625 L108.890625,72.0625 L108.890625,76 L107.53125,76 C104.281234,76 101.847664,75.2890696 100.230469,73.8671875 C98.6132732,72.4453054 97.8046875,70.3047018 97.8046875,67.4453125 L97.8046875,46.9140625 Z M135,42.4375 L135,62.6640625 L134.994792,63.4615654 C134.972222,65.1299024 134.876303,66.410933 134.707031,67.3046875 C134.511718,68.3359427 134.187502,69.2812457 133.734375,70.140625 C132.76562,72.1093848 131.367197,73.648432 129.539062,74.7578125 C127.710928,75.867193 125.687511,76.421875 123.46875,76.421875 C120.124983,76.421875 117.363292,75.29298 115.183594,73.0351562 C113.003895,70.7773325 111.914062,67.9218923 111.914062,64.46875 C111.914062,62.9218673 112.179685,61.4453195 112.710938,60.0390625 C113.24219,58.6328055 114.01562,57.3750055 115.03125,56.265625 C116.062505,55.1093692 117.296868,54.2148469 118.734375,53.5820312 C120.171882,52.9492156 121.671867,52.6328125 123.234375,52.6328125 C124.375006,52.6328125 125.464839,52.7617175 126.503906,53.0195312 C127.542974,53.277345 128.531245,53.6718723 129.46875,54.203125 L129.46875,58.6328125 C128.51562,57.9140589 127.566411,57.3828142 126.621094,57.0390625 C125.675777,56.6953108 124.70313,56.5234375 123.703125,56.5234375 C121.499989,56.5234375 119.687507,57.2812424 118.265625,58.796875 C116.843743,60.3125076 116.132812,62.2578006 116.132812,64.6328125 C116.132812,66.9609491 116.824212,68.8632739 118.207031,70.3398438 C119.589851,71.8164136 121.359364,72.5546875 123.515625,72.5546875 C125.687511,72.5546875 127.453118,71.8086012 128.8125,70.3164062 C130.171882,68.8242113 130.851562,66.875012 130.851562,64.46875 L130.851562,42.4375 L135,42.4375 Z M159.375,53.0078125 L159.375,65.546875 C159.375,68.8906417 158.48829,71.5390527 156.714844,73.4921875 C154.941397,75.4453223 152.562515,76.421875 149.578125,76.421875 C146.60936,76.421875 144.242196,75.4453223 142.476562,73.4921875 C140.710929,71.5390527 139.828125,68.8906417 139.828125,65.546875 L139.828125,53.0078125 L143.929688,53.0078125 L143.929688,66.296875 C143.929688,68.1093841 144.464838,69.5859318 145.535156,70.7265625 C146.605474,71.8671932 147.968742,72.4375 149.625,72.4375 C151.296883,72.4375 152.660151,71.8671932 153.714844,70.7265625 C154.769537,69.5859318 155.296875,68.1093841 155.296875,66.296875 L155.296875,53.0078125 L159.375,53.0078125 Z M164.765625,76 L164.765625,53.0078125 L168.890625,53.0078125 L168.890625,76 L164.765625,76 Z M164.320312,46.46875 C164.320312,45.7812466 164.562498,45.1953149 165.046875,44.7109375 C165.531252,44.2265601 166.124996,43.984375 166.828125,43.984375 C167.531254,43.984375 168.121091,44.2226539 168.597656,44.6992188 C169.074221,45.1757836 169.3125,45.7656215 169.3125,46.46875 C169.3125,47.1875036 169.074221,47.7929663 168.597656,48.2851562 C168.121091,48.7773462 167.531254,49.0234375 166.828125,49.0234375 C166.140622,49.0234375 165.550784,48.77344 165.058594,48.2734375 C164.566404,47.773435 164.320312,47.1718785 164.320312,46.46875 Z M174.210938,76 L174.210938,63.4609375 C174.210938,60.1171708 175.101554,57.4687598 176.882812,55.515625 C178.664071,53.5624902 181.039048,52.5859375 184.007812,52.5859375 C186.976577,52.5859375 189.343741,53.5624902 191.109375,55.515625 C192.875009,57.4687598 193.757812,60.1171708 193.757812,63.4609375 L193.757812,76 L189.679688,76 L189.679688,62.7109375 C189.679688,60.8984284 189.152349,59.4218807 188.097656,58.28125 C187.042963,57.1406193 185.679696,56.5703125 184.007812,56.5703125 C182.351554,56.5703125 180.988287,57.1406193 179.917969,58.28125 C178.847651,59.4218807 178.3125,60.8984284 178.3125,62.7109375 L178.3125,76 L174.210938,76 Z M202.03125,64.421875 C202.03125,66.6562612 202.746087,68.5507735 204.175781,70.1054688 C205.605476,71.660164 207.335927,72.4375 209.367188,72.4375 C211.398448,72.4375 213.128899,71.660164 214.558594,70.1054688 C215.988288,68.5507735 216.703125,66.6562612 216.703125,64.421875 C216.703125,62.2031139 215.992195,60.3203202 214.570312,58.7734375 C213.14843,57.2265548 211.414073,56.453125 209.367188,56.453125 C207.335927,56.453125 205.605476,57.2265548 204.175781,58.7734375 C202.746087,60.3203202 202.03125,62.2031139 202.03125,64.421875 Z M197.742188,64.46875 C197.742188,62.874992 198.03906,61.3593822 198.632812,59.921875 C199.226565,58.4843678 200.085932,57.1875058 201.210938,56.03125 C202.320318,54.9062444 203.566399,54.0507842 204.949219,53.4648438 C206.332038,52.8789033 207.80468,52.5859375 209.367188,52.5859375 C210.929695,52.5859375 212.414055,52.8789033 213.820312,53.4648438 C215.22657,54.0507842 216.476557,54.9062444 217.570312,56.03125 C218.679693,57.1562556 219.527341,58.4453052 220.113281,59.8984375 C220.699222,61.3515698 220.992188,62.874992 220.992188,64.46875 C220.992188,66.0937581 220.699222,67.6367114 220.113281,69.0976562 C219.527341,70.5586011 218.679693,71.8515569 217.570312,72.9765625 C216.476557,74.1015681 215.22657,74.9570283 213.820312,75.5429688 C212.414055,76.1289092 210.929695,76.421875 209.367188,76.421875 C207.80468,76.421875 206.332038,76.1289092 204.949219,75.5429688 C203.566399,74.9570283 202.320318,74.1015681 201.210938,72.9765625 C200.085932,71.8359318 199.226565,70.5390698 198.632812,69.0859375 C198.03906,67.6328052 197.742188,66.0937581 197.742188,64.46875 Z" id="Netduino_Logo"></path>
                </g>
            </g>
        </g>
    </g>
</svg>