<?xml version='1.0' encoding='UTF-8' standalone='no'?>
<!-- Created with Fritzing (http://www.fritzing.org/) -->
<svg xmlns:svg='http://www.w3.org/2000/svg' xmlns='http://www.w3.org/2000/svg' version='1.2' baseProfile='tiny' x='0in' y='0in' width='3.53651in' height='3.04084in' viewBox='0 0 254.629 218.94' >
<g partID='854636970'><g transform='translate(229.524,165.42)' ><g transform='matrix(-1,0,0,-1,0,0)'  ><g id="schematic" xmlns="http://www.w3.org/2000/svg">
<rect stroke="none" stroke-width="0" id="connector0pin" height="7.2" x="8.86342" y="0" width="3.6" fill="none" xmlns="http://www.w3.org/2000/svg"/>
<g stroke="none" stroke-width="0" id="connector0terminal" height="0.0072" x="12.4706" y="3.6" width="0.0072" fill="none" xmlns="http://www.w3.org/2000/svg"/>
<polygon stroke="#000000" stroke-width="0.24" points="12.3506,3.6,8.87062,0.12,0.12,0.12,0.12,7.08,8.87062,7.08" fill="white" xmlns="http://www.w3.org/2000/svg"/>
</g>
</g></g></g><g partID='854636930'><g transform='translate(227.587,151.02)' ><g transform='matrix(-1,0,0,-1,0,0)'  ><g id="schematic" xmlns="http://www.w3.org/2000/svg">
<rect stroke="none" stroke-width="0" id="connector0pin" height="7.2" x="6.92592" y="0" width="3.6" fill="none" xmlns="http://www.w3.org/2000/svg"/>
<g stroke="none" stroke-width="0" id="connector0terminal" height="0.0072" x="10.5331" y="3.6" width="0.0072" fill="none" xmlns="http://www.w3.org/2000/svg"/>
<polygon stroke="#000000" stroke-width="0.24" points="10.4131,3.6,6.93312,0.12,0.12,0.12,0.12,7.08,6.93312,7.08" fill="white" xmlns="http://www.w3.org/2000/svg"/>
</g>
</g></g></g><g partID='854636950'><g transform='translate(229.899,158.22)' ><g transform='matrix(-1,0,0,-1,0,0)'  ><g id="schematic" xmlns="http://www.w3.org/2000/svg">
<rect stroke="none" stroke-width="0" id="connector0pin" height="7.2" x="9.23839" y="0" width="3.6" fill="none" xmlns="http://www.w3.org/2000/svg"/>
<g stroke="none" stroke-width="0" id="connector0terminal" height="0.0072" x="12.8456" y="3.6" width="0.0072" fill="none" xmlns="http://www.w3.org/2000/svg"/>
<polygon stroke="#000000" stroke-width="0.24" points="12.7256,3.6,9.24559,0.12,0.12,0.12,0.12,7.08,9.24559,7.08" fill="white" xmlns="http://www.w3.org/2000/svg"/>
</g>
</g></g></g><g partID='854636910'><g transform='translate(227.587,143.82)' ><g transform='matrix(-1,0,0,-1,0,0)'  ><g id="schematic" xmlns="http://www.w3.org/2000/svg">
<rect stroke="none" stroke-width="0" id="connector0pin" height="7.2" x="6.92592" y="0" width="3.6" fill="none" xmlns="http://www.w3.org/2000/svg"/>
<g stroke="none" stroke-width="0" id="connector0terminal" height="0.0072" x="10.5331" y="3.6" width="0.0072" fill="none" xmlns="http://www.w3.org/2000/svg"/>
<polygon stroke="#000000" stroke-width="0.24" points="10.4131,3.6,6.93312,0.12,0.12,0.12,0.12,7.08,6.93312,7.08" fill="white" xmlns="http://www.w3.org/2000/svg"/>
</g>
</g></g></g><g partID='854632930'><g transform='translate(228.055,129.42)' ><g transform='matrix(-1,0,0,-1,0,0)'  ><g id="schematic" xmlns="http://www.w3.org/2000/svg">
<rect stroke="none" stroke-width="0" id="connector0pin" height="7.2" x="7.39469" y="0" width="3.6" fill="none" xmlns="http://www.w3.org/2000/svg"/>
<g stroke="none" stroke-width="0" id="connector0terminal" height="0.0072" x="11.0019" y="3.6" width="0.0072" fill="none" xmlns="http://www.w3.org/2000/svg"/>
<polygon stroke="#000000" stroke-width="0.24" points="10.8819,3.6,7.40189,0.12,0.12,0.12,0.12,7.08,7.40189,7.08" fill="white" xmlns="http://www.w3.org/2000/svg"/>
</g>
</g></g></g><g partID='854636860'><g transform='translate(229.524,136.62)' ><g transform='matrix(-1,0,0,-1,0,0)'  ><g id="schematic" xmlns="http://www.w3.org/2000/svg">
<rect stroke="none" stroke-width="0" id="connector0pin" height="7.2" x="8.86342" y="0" width="3.6" fill="none" xmlns="http://www.w3.org/2000/svg"/>
<g stroke="none" stroke-width="0" id="connector0terminal" height="0.0072" x="12.4706" y="3.6" width="0.0072" fill="none" xmlns="http://www.w3.org/2000/svg"/>
<polygon stroke="#000000" stroke-width="0.24" points="12.3506,3.6,8.87062,0.12,0.12,0.12,0.12,7.08,8.87062,7.08" fill="white" xmlns="http://www.w3.org/2000/svg"/>
</g>
</g></g></g><g partID='854640640'><g transform='translate(195.429,122.209)' ><g id="schematic" xmlns="http://www.w3.org/2000/svg">
<line stroke="#000000" stroke-width="0.7" id="connector0pin" y1="3.6" fill="none" y2="3.6" x1="0.35" x2="7.346" stroke-linejoin="round" xmlns="http://www.w3.org/2000/svg" stroke-linecap="round"/>
<g id="connector0terminal" height="0.208" x="-0.252" y="3.504" fill="none" width="0.546" xmlns="http://www.w3.org/2000/svg"/>
<polyline stroke="#000000" stroke-width="0.7" points="14.1,5.557,9.928,3.6,14.1,1.643" fill="none" stroke-linejoin="round" xmlns="http://www.w3.org/2000/svg" stroke-linecap="round"/>
<line stroke="#000000" stroke-width="0.7" id="line" y1="3.6" fill="none" y2="3.6" x1="10.11" x2="4.804" stroke-linejoin="round" xmlns="http://www.w3.org/2000/svg" stroke-linecap="round"/>
<text stroke="none" stroke-width="0" x="5.05" font-family="'Droid Sans'" y="2.58" fill="#8c8c8c" class="text" xmlns="http://www.w3.org/2000/svg" font-size="2.5" text-anchor="middle">1</text>
<line stroke="#000000" stroke-width="0.7" id="connector1pin" y1="10.8" fill="none" y2="10.8" x1="0.35" x2="7.346" stroke-linejoin="round" xmlns="http://www.w3.org/2000/svg" stroke-linecap="round"/>
<g id="connector1terminal" height="0.208" x="-0.252" y="10.704" fill="none" width="0.546" xmlns="http://www.w3.org/2000/svg"/>
<polyline stroke="#000000" stroke-width="0.7" points="14.1,12.757,9.928,10.8,14.1,8.843" fill="none" stroke-linejoin="round" xmlns="http://www.w3.org/2000/svg" stroke-linecap="round"/>
<line stroke="#000000" stroke-width="0.7" id="line" y1="10.8" fill="none" y2="10.8" x1="10.11" x2="4.804" stroke-linejoin="round" xmlns="http://www.w3.org/2000/svg" stroke-linecap="round"/>
<text stroke="none" stroke-width="0" x="5.05" font-family="'Droid Sans'" y="9.78" fill="#8c8c8c" class="text" xmlns="http://www.w3.org/2000/svg" font-size="2.5" text-anchor="middle">2</text>
<line stroke="#000000" stroke-width="0.7" id="connector2pin" y1="18" fill="none" y2="18" x1="0.35" x2="7.346" stroke-linejoin="round" xmlns="http://www.w3.org/2000/svg" stroke-linecap="round"/>
<g id="connector2terminal" height="0.208" x="-0.252" y="17.904" fill="none" width="0.546" xmlns="http://www.w3.org/2000/svg"/>
<polyline stroke="#000000" stroke-width="0.7" points="14.1,19.957,9.928,18,14.1,16.043" fill="none" stroke-linejoin="round" xmlns="http://www.w3.org/2000/svg" stroke-linecap="round"/>
<line stroke="#000000" stroke-width="0.7" id="line" y1="18" fill="none" y2="18" x1="10.11" x2="4.804" stroke-linejoin="round" xmlns="http://www.w3.org/2000/svg" stroke-linecap="round"/>
<text stroke="none" stroke-width="0" x="5.05" font-family="'Droid Sans'" y="16.98" fill="#8c8c8c" class="text" xmlns="http://www.w3.org/2000/svg" font-size="2.5" text-anchor="middle">3</text>
<line stroke="#000000" stroke-width="0.7" id="connector3pin" y1="25.2" fill="none" y2="25.2" x1="0.35" x2="7.346" stroke-linejoin="round" xmlns="http://www.w3.org/2000/svg" stroke-linecap="round"/>
<g id="connector3terminal" height="0.208" x="-0.252" y="25.104" fill="none" width="0.546" xmlns="http://www.w3.org/2000/svg"/>
<polyline stroke="#000000" stroke-width="0.7" points="14.1,27.157,9.928,25.2,14.1,23.243" fill="none" stroke-linejoin="round" xmlns="http://www.w3.org/2000/svg" stroke-linecap="round"/>
<line stroke="#000000" stroke-width="0.7" id="line" y1="25.2" fill="none" y2="25.2" x1="10.11" x2="4.804" stroke-linejoin="round" xmlns="http://www.w3.org/2000/svg" stroke-linecap="round"/>
<text stroke="none" stroke-width="0" x="5.05" font-family="'Droid Sans'" y="24.18" fill="#8c8c8c" class="text" xmlns="http://www.w3.org/2000/svg" font-size="2.5" text-anchor="middle">4</text>
<line stroke="#000000" stroke-width="0.7" id="connector4pin" y1="32.4" fill="none" y2="32.4" x1="0.35" x2="7.346" stroke-linejoin="round" xmlns="http://www.w3.org/2000/svg" stroke-linecap="round"/>
<g id="connector4terminal" height="0.208" x="-0.252" y="32.304" fill="none" width="0.546" xmlns="http://www.w3.org/2000/svg"/>
<polyline stroke="#000000" stroke-width="0.7" points="14.1,34.357,9.928,32.4,14.1,30.443" fill="none" stroke-linejoin="round" xmlns="http://www.w3.org/2000/svg" stroke-linecap="round"/>
<line stroke="#000000" stroke-width="0.7" id="line" y1="32.4" fill="none" y2="32.4" x1="10.11" x2="4.804" stroke-linejoin="round" xmlns="http://www.w3.org/2000/svg" stroke-linecap="round"/>
<text stroke="none" stroke-width="0" x="5.05" font-family="'Droid Sans'" y="31.38" fill="#8c8c8c" class="text" xmlns="http://www.w3.org/2000/svg" font-size="2.5" text-anchor="middle">5</text>
<line stroke="#000000" stroke-width="0.7" id="connector5pin" y1="39.6" fill="none" y2="39.6" x1="0.35" x2="7.346" stroke-linejoin="round" xmlns="http://www.w3.org/2000/svg" stroke-linecap="round"/>
<g id="connector5terminal" height="0.208" x="-0.252" y="39.504" fill="none" width="0.546" xmlns="http://www.w3.org/2000/svg"/>
<polyline stroke="#000000" stroke-width="0.7" points="14.1,41.557,9.928,39.6,14.1,37.643" fill="none" stroke-linejoin="round" xmlns="http://www.w3.org/2000/svg" stroke-linecap="round"/>
<line stroke="#000000" stroke-width="0.7" id="line" y1="39.6" fill="none" y2="39.6" x1="10.11" x2="4.804" stroke-linejoin="round" xmlns="http://www.w3.org/2000/svg" stroke-linecap="round"/>
<text stroke="none" stroke-width="0" x="5.05" font-family="'Droid Sans'" y="38.58" fill="#8c8c8c" class="text" xmlns="http://www.w3.org/2000/svg" font-size="2.5" text-anchor="middle">6</text>
</g>
</g></g><g partID='854637010'><g transform='translate(101.849,204.54)' ><g id="schematic" xmlns="http://www.w3.org/2000/svg">
<path stroke="#787878" stroke-width="0.75" d="M7.201,7.575l0,-7.2" id="connector0pin" fill="none" xmlns="http://www.w3.org/2000/svg" stroke-linecap="round"/>
<g id="connector0terminal" height="0.953" x="6.728" y="0" fill="none" width="0.945" xmlns="http://www.w3.org/2000/svg"/>
<path stroke="#000000" stroke-width="0.9" d="M0.5,7.711L13.9,7.711" id="path4098" fill="none" xmlns="http://www.w3.org/2000/svg" stroke-linecap="round"/>
<path stroke="#000000" stroke-width="0.9" d="M2.732,10.456l8.935,0" id="path4100" fill="none" xmlns="http://www.w3.org/2000/svg" stroke-linecap="round"/>
<path stroke="#000000" stroke-width="0.9" d="M9.431,13.175L4.967,13.175" id="path4102" fill="none" xmlns="http://www.w3.org/2000/svg" stroke-linecap="round"/>
</g>
</g></g><g partID='854637900'><g transform='translate(41.038,6.56667)' ><g transform='matrix(0,1,-1,0,0,0)'  ><g id="schematic">
<line stroke="#000000" stroke-width="0.9" y1="11.188" fill="none" y2="11.188" x1="22.05" x2="0.45" stroke-linecap="round"/>
<line stroke="#000000" stroke-width="0.9" y1="14.788" fill="none" y2="14.788" x1="14.851" x2="7.65" stroke-linecap="round"/>
<line stroke="#000000" stroke-width="0.9" y1="18.388" fill="none" y2="18.388" x1="22.05" x2="0.45" stroke-linecap="round"/>
<line stroke="#000000" stroke-width="0.9" y1="21.988" fill="none" y2="21.988" x1="14.851" x2="7.65" stroke-linecap="round"/>
<line stroke="#000000" stroke-width="0.75" y1="7.588" fill="none" y2="11.188" x1="11.25" x2="11.25" stroke-linecap="round"/>
<line stroke="#787878" stroke-width="0.75" id="connector1pin" y1="29.188" fill="none" y2="21.988" x1="11.25" x2="11.25" stroke-linecap="round"/>
<g id="connector1terminal" height="0" x="11.25" y="29.188" fill="none" width="0"/>
<g transform="matrix(1, 0, 0, 1, 12.3809, 26.3574)">
<text font-family="'DroidSans'" fill="#8C8C8C" font-size="2.5">1</text>
</g>
<line stroke="#787878" stroke-width="0.75" id="connector0pin" y1="0.388" fill="none" y2="7.588" x1="11.25" x2="11.25" stroke-linecap="round"/>
<g id="connector0terminal" height="0" x="11.25" y="0.388" fill="none" width="0"/>
<g transform="matrix(1, 0, 0, 1, 12.3809, 4.7578)">
<text font-family="'DroidSans'" fill="#8C8C8C" font-size="2.5">2</text>
</g>
<g transform="matrix(1, 0, 0, 1, 7.8984, 4.7578)">
<text font-family="'DroidSans'" fill="#F8141F" font-size="2.5">+</text>
</g>
<g transform="matrix(1, 0, 0, 1, 8.792, 26.0723)">
<text font-family="'DroidSans'" font-size="2.5">-</text>
</g>
</g>
</g></g></g><g partID='854637040'><g transform='translate(185.038,6.56667)' ><g transform='matrix(0,1,-1,0,0,0)'  ><g id="schematic">
<line stroke="#000000" stroke-width="0.9" y1="11.188" fill="none" y2="11.188" x1="22.05" x2="0.45" stroke-linecap="round"/>
<line stroke="#000000" stroke-width="0.9" y1="14.788" fill="none" y2="14.788" x1="14.851" x2="7.65" stroke-linecap="round"/>
<line stroke="#000000" stroke-width="0.9" y1="18.388" fill="none" y2="18.388" x1="22.05" x2="0.45" stroke-linecap="round"/>
<line stroke="#000000" stroke-width="0.9" y1="21.988" fill="none" y2="21.988" x1="14.851" x2="7.65" stroke-linecap="round"/>
<line stroke="#000000" stroke-width="0.75" y1="7.588" fill="none" y2="11.188" x1="11.25" x2="11.25" stroke-linecap="round"/>
<line stroke="#787878" stroke-width="0.75" id="connector1pin" y1="29.188" fill="none" y2="21.988" x1="11.25" x2="11.25" stroke-linecap="round"/>
<g id="connector1terminal" height="0" x="11.25" y="29.188" fill="none" width="0"/>
<g transform="matrix(1, 0, 0, 1, 12.3809, 26.3574)">
<text font-family="'DroidSans'" fill="#8C8C8C" font-size="2.5">1</text>
</g>
<line stroke="#787878" stroke-width="0.75" id="connector0pin" y1="0.388" fill="none" y2="7.588" x1="11.25" x2="11.25" stroke-linecap="round"/>
<g id="connector0terminal" height="0" x="11.25" y="0.388" fill="none" width="0"/>
<g transform="matrix(1, 0, 0, 1, 12.3809, 4.7578)">
<text font-family="'DroidSans'" fill="#8C8C8C" font-size="2.5">2</text>
</g>
<g transform="matrix(1, 0, 0, 1, 7.8984, 4.7578)">
<text font-family="'DroidSans'" fill="#F8141F" font-size="2.5">+</text>
</g>
<g transform="matrix(1, 0, 0, 1, 8.792, 26.0723)">
<text font-family="'DroidSans'" font-size="2.5">-</text>
</g>
</g>
</g></g></g><g partID='854637340'><g transform='translate(22.65,39.4182)' ><g id="schematic">
<rect stroke="#000000" height="121.5" x="14.85" y="14.85" fill="#FFFFFF" width="63.9" stroke-linecap="round"/>
<line stroke="#787878" stroke-width="0.75" id="connector2pin" y1="28.8" fill="none" y2="28.8" x1="78.85" x2="93.25" stroke-linecap="round"/>
<g transform="matrix(1, 0, 0, 1, 85.3625, 27.75)">
<text font-family="'DroidSans'" fill="#8C8C8C" font-size="2.5">3</text>
</g>
<g transform="matrix(1, 0, 0, 1, 61.8254, 29.5)">
<text font-family="'DroidSans'" fill="#8C8C8C" font-size="3.5">D</text>
</g>
<g transform="matrix(1, 0, 0, 1, 64.219, 29.5)">
<text font-family="'DroidSans'" fill="#8C8C8C" font-size="3.5">1</text>
</g>
<g transform="matrix(1, 0, 0, 1, 66.1458, 29.5)">
<text font-family="'DroidSans'" fill="#8C8C8C" font-size="3.5">3</text>
</g>
<g transform="matrix(1, 0, 0, 1, 68.0754, 29.5)">
<text font-family="'DroidSans'" fill="#8C8C8C" font-size="3.5">_</text>
</g>
<g transform="matrix(1, 0, 0, 1, 69.5129, 29.5)">
<text font-family="'DroidSans'" fill="#8C8C8C" font-size="3.5">S</text>
</g>
<g transform="matrix(1, 0, 0, 1, 71.3293, 29.5)">
<text font-family="'DroidSans'" fill="#8C8C8C" font-size="3.5">P</text>
</g>
<g transform="matrix(1, 0, 0, 1, 73.3118, 29.5)">
<text font-family="'DroidSans'" fill="#8C8C8C" font-size="3.5">C</text>
</g>
<g transform="matrix(1, 0, 0, 1, 75.4231, 29.5)">
<text font-family="'DroidSans'" fill="#8C8C8C" font-size="3.5">K</text>
</g>
<g id="connector2terminal" height="0.7" x="93.25" y="28.45" fill="none" width="0.699"/>
<line stroke="#787878" stroke-width="0.75" id="connector3pin" y1="36" fill="none" y2="36" x1="78.85" x2="93.25" stroke-linecap="round"/>
<g transform="matrix(1, 0, 0, 1, 85.3625, 34.9492)">
<text font-family="'DroidSans'" fill="#8C8C8C" font-size="2.5">4</text>
</g>
<g transform="matrix(1, 0, 0, 1, 61.1165, 36.6992)">
<text font-family="'DroidSans'" fill="#8C8C8C" font-size="3.5">D12_MISO</text>
</g>
<g id="connector3terminal" height="0.7" x="93.25" y="35.65" fill="none" width="0.699"/>
<line stroke="#787878" stroke-width="0.75" id="connector4pin" y1="43.2" fill="none" y2="43.2" x1="78.85" x2="93.25" stroke-linecap="round"/>
<g transform="matrix(1, 0, 0, 1, 85.3625, 42.1504)">
<text font-family="'DroidSans'" fill="#8C8C8C" font-size="2.5">5</text>
</g>
<g transform="matrix(1, 0, 0, 1, 61.1165, 43.9004)">
<text font-family="'DroidSans'" fill="#8C8C8C" font-size="3.5">D11_MOSI</text>
</g>
<g id="connector4terminal" height="0.7" x="93.25" y="42.85" fill="none" width="0.699"/>
<line stroke="#787878" stroke-width="0.75" id="connector5pin" y1="50.4" fill="none" y2="50.4" x1="78.85" x2="93.25" stroke-linecap="round"/>
<g transform="matrix(1, 0, 0, 1, 85.3625, 49.3496)">
<text font-family="'DroidSans'" fill="#8C8C8C" font-size="2.5">6</text>
</g>
<g transform="matrix(1, 0, 0, 1, 59.679, 51.0996)">
<text font-family="'DroidSans'" fill="#8C8C8C" font-size="3.5">D10_PWM3</text>
</g>
<g id="connector5terminal" height="0.7" x="93.25" y="50.05" fill="none" width="0.699"/>
<line stroke="#787878" stroke-width="0.75" id="connector6pin" y1="57.6" fill="none" y2="57.6" x1="78.85" x2="93.25" stroke-linecap="round"/>
<g transform="matrix(1, 0, 0, 1, 85.3625, 56.5488)">
<text font-family="'DroidSans'" fill="#8C8C8C" font-size="2.5">7</text>
</g>
<g transform="matrix(1, 0, 0, 1, 61.6047, 58.2988)">
<text font-family="'DroidSans'" fill="#8C8C8C" font-size="3.5">D9_PWM2</text>
</g>
<g id="connector6terminal" height="0.7" x="93.25" y="57.25" fill="none" width="0.699"/>
<line stroke="#787878" stroke-width="0.75" id="connector7pin" y1="64.8" fill="none" y2="64.8" x1="78.85" x2="93.25" stroke-linecap="round"/>
<g transform="matrix(1, 0, 0, 1, 85.3625, 63.75)">
<text font-family="'DroidSans'" fill="#8C8C8C" font-size="2.5">8</text>
</g>
<g transform="matrix(1, 0, 0, 1, 64.05, 65.5)">
<text font-family="'DroidSans'" fill="#8C8C8C" font-size="3.5">D</text>
</g>
<g transform="matrix(1, 0, 0, 1, 66.4465, 65.5)">
<text font-family="'DroidSans'" fill="#8C8C8C" font-size="3.5">8</text>
</g>
<g transform="matrix(1, 0, 0, 1, 68.3733, 65.5)">
<text font-family="'DroidSans'" fill="#8C8C8C" font-size="3.5">_</text>
</g>
<g transform="matrix(1, 0, 0, 1, 69.8118, 65.5)">
<text font-family="'DroidSans'" fill="#8C8C8C" font-size="3.5">C</text>
</g>
<g transform="matrix(1, 0, 0, 1, 71.9231, 65.5)">
<text font-family="'DroidSans'" fill="#8C8C8C" font-size="3.5">T</text>
</g>
<g transform="matrix(1, 0, 0, 1, 73.7043, 65.5)">
<text font-family="'DroidSans'" fill="#8C8C8C" font-size="3.5">S</text>
</g>
<g transform="matrix(1, 0, 0, 1, 75.5208, 65.5)">
<text font-family="'DroidSans'" fill="#8C8C8C" font-size="3.5">1</text>
</g>
<g id="connector7terminal" height="0.7" x="93.25" y="64.45" fill="none" width="0.699"/>
<line stroke="#787878" stroke-width="0.75" id="connector8pin" y1="72" fill="none" y2="72" x1="78.85" x2="93.25" stroke-linecap="round"/>
<g transform="matrix(1, 0, 0, 1, 85.3625, 70.9492)">
<text font-family="'DroidSans'" fill="#8C8C8C" font-size="2.5">9</text>
</g>
<g transform="matrix(1, 0, 0, 1, 64.1311, 72.6992)">
<text font-family="'DroidSans'" fill="#8C8C8C" font-size="3.5">D</text>
</g>
<g transform="matrix(1, 0, 0, 1, 66.5247, 72.6992)">
<text font-family="'DroidSans'" fill="#8C8C8C" font-size="3.5">7</text>
</g>
<g transform="matrix(1, 0, 0, 1, 68.4543, 72.6992)">
<text font-family="'DroidSans'" fill="#8C8C8C" font-size="3.5">_</text>
</g>
<g transform="matrix(1, 0, 0, 1, 69.8918, 72.6992)">
<text font-family="'DroidSans'" fill="#8C8C8C" font-size="3.5">R</text>
</g>
<g transform="matrix(1, 0, 0, 1, 71.9211, 72.6992)">
<text font-family="'DroidSans'" fill="#8C8C8C" font-size="3.5">T</text>
</g>
<g transform="matrix(1, 0, 0, 1, 73.7043, 72.6992)">
<text font-family="'DroidSans'" fill="#8C8C8C" font-size="3.5">S</text>
</g>
<g transform="matrix(1, 0, 0, 1, 75.5208, 72.6992)">
<text font-family="'DroidSans'" fill="#8C8C8C" font-size="3.5">1</text>
</g>
<g id="connector8terminal" height="0.7" x="93.25" y="71.65" fill="none" width="0.699"/>
<line stroke="#787878" stroke-width="0.75" id="connector9pin" y1="79.2" fill="none" y2="79.2" x1="78.85" x2="93.25" stroke-linecap="round"/>
<g transform="matrix(1, 0, 0, 1, 84.675, 78.1509)">
<text font-family="'DroidSans'" fill="#8C8C8C" font-size="2.5">10</text>
</g>
<g transform="matrix(1, 0, 0, 1, 61.6047, 79.8989)">
<text font-family="'DroidSans'" fill="#8C8C8C" font-size="3.5">D6_PWM1</text>
</g>
<g id="connector9terminal" height="0.699" x="93.25" y="78.85" fill="none" width="0.699"/>
<line stroke="#787878" stroke-width="0.75" id="connector10pin" y1="86.4" fill="none" y2="86.4" x1="78.85" x2="93.25" stroke-linecap="round"/>
<g transform="matrix(1, 0, 0, 1, 84.675, 85.3501)">
<text font-family="'DroidSans'" fill="#8C8C8C" font-size="2.5">11</text>
</g>
<g transform="matrix(1, 0, 0, 1, 61.6047, 87.1001)">
<text font-family="'DroidSans'" fill="#8C8C8C" font-size="3.5">D5_PWM0</text>
</g>
<g id="connector10terminal" height="0.701" x="93.25" y="86.049" fill="none" width="0.699"/>
<line stroke="#787878" stroke-width="0.75" id="connector11pin" y1="93.6" fill="none" y2="93.6" x1="78.85" x2="93.25" stroke-linecap="round"/>
<g transform="matrix(1, 0, 0, 1, 84.675, 92.5493)">
<text font-family="'DroidSans'" fill="#8C8C8C" font-size="2.5">12</text>
</g>
<g transform="matrix(1, 0, 0, 1, 65.8333, 94.2993)">
<text font-family="'DroidSans'" fill="#8C8C8C" font-size="3.5">D4_CS0</text>
</g>
<g id="connector11terminal" height="0.697" x="93.25" y="93.25" fill="none" width="0.699"/>
<line stroke="#787878" stroke-width="0.75" id="connector12pin" y1="100.799" fill="none" y2="100.799" x1="78.85" x2="93.25" stroke-linecap="round"/>
<g transform="matrix(1, 0, 0, 1, 84.675, 99.7505)">
<text font-family="'DroidSans'" fill="#8C8C8C" font-size="2.5">13</text>
</g>
<g transform="matrix(1, 0, 0, 1, 66.0315, 101.501)">
<text font-family="'DroidSans'" fill="#8C8C8C" font-size="3.5">D3_TX1</text>
</g>
<g id="connector12terminal" height="0.7" x="93.25" y="100.45" fill="none" width="0.699"/>
<line stroke="#787878" stroke-width="0.75" id="connector13pin" y1="108" fill="none" y2="108" x1="78.85" x2="93.25" stroke-linecap="round"/>
<g transform="matrix(1, 0, 0, 1, 84.675, 106.95)">
<text font-family="'DroidSans'" fill="#8C8C8C" font-size="2.5">14</text>
</g>
<g transform="matrix(1, 0, 0, 1, 65.7825, 108.7)">
<text font-family="'DroidSans'" fill="#8C8C8C" font-size="3.5">D2_RX1</text>
</g>
<g id="connector13terminal" height="0.7" x="93.25" y="107.65" fill="none" width="0.699"/>
<line stroke="#787878" stroke-width="0.75" id="connector14pin" y1="115.2" fill="none" y2="115.2" x1="78.85" x2="93.25" stroke-linecap="round"/>
<g transform="matrix(1, 0, 0, 1, 84.675, 114.151)">
<text font-family="'DroidSans'" fill="#8C8C8C" font-size="2.5">15</text>
</g>
<g transform="matrix(1, 0, 0, 1, 66.0315, 115.901)">
<text font-family="'DroidSans'" fill="#8C8C8C" font-size="3.5">D1_TX0</text>
</g>
<g id="connector14terminal" height="0.699" x="93.25" y="114.85" fill="none" width="0.699"/>
<line stroke="#787878" stroke-width="0.75" id="connector15pin" y1="122.4" fill="none" y2="122.4" x1="78.85" x2="93.25" stroke-linecap="round"/>
<g transform="matrix(1, 0, 0, 1, 84.675, 121.35)">
<text font-family="'DroidSans'" fill="#8C8C8C" font-size="2.5">16</text>
</g>
<g transform="matrix(1, 0, 0, 1, 65.7825, 123.1)">
<text font-family="'DroidSans'" fill="#8C8C8C" font-size="3.5">D0_RX0</text>
</g>
<g id="connector15terminal" height="0.701" x="93.25" y="122.049" fill="none" width="0.699"/>
<line stroke="#787878" stroke-width="0.75" id="connector16pin" y1="28.8" fill="none" y2="28.8" x1="0.35" x2="14.75" stroke-linecap="round"/>
<g transform="matrix(1, 0, 0, 1, 6.1746, 27.75)">
<text font-family="'DroidSans'" fill="#8C8C8C" font-size="2.5">17</text>
</g>
<g transform="matrix(1, 0, 0, 1, 16.1501, 29.5)">
<text font-family="'DroidSans'" fill="#8C8C8C" font-size="3.5">RST</text>
</g>
<g id="connector16terminal" height="0.7" x="-0.35" y="28.45" fill="none" width="0.7"/>
<line stroke="#787878" stroke-width="0.75" id="connector0pin" y1="36" fill="none" y2="36" x1="0.35" x2="14.75" stroke-linecap="round"/>
<g transform="matrix(1, 0, 0, 1, 6.8621, 34.9492)">
<text font-family="'DroidSans'" fill="#8C8C8C" font-size="2.5">1</text>
</g>
<g transform="matrix(1, 0, 0, 1, 16.1501, 36.6992)">
<text font-family="'DroidSans'" fill="#8C8C8C" font-size="3.5">Aref</text>
</g>
<g id="connector0terminal" height="0.7" x="-0.35" y="35.65" fill="none" width="0.7"/>
<line stroke="#787878" stroke-width="0.75" id="connector22pin" y1="79.2" fill="none" y2="79.2" x1="0.35" x2="14.75" stroke-linecap="round"/>
<g transform="matrix(1, 0, 0, 1, 6.1746, 78.1489)">
<text font-family="'DroidSans'" fill="#8C8C8C" font-size="2.5">23</text>
</g>
<g transform="matrix(1, 0, 0, 1, 16.1501, 79.8989)">
<text font-family="'DroidSans'" fill="#8C8C8C" font-size="3.5">A0</text>
</g>
<g id="connector22terminal" height="0.7" x="-0.35" y="78.849" fill="none" width="0.7"/>
<line stroke="#787878" stroke-width="0.75" id="connector23pin" y1="86.4" fill="none" y2="86.4" x1="0.35" x2="14.75" stroke-linecap="round"/>
<g transform="matrix(1, 0, 0, 1, 6.1746, 85.3481)">
<text font-family="'DroidSans'" fill="#8C8C8C" font-size="2.5">24</text>
</g>
<g transform="matrix(1, 0, 0, 1, 16.1501, 87.0981)">
<text font-family="'DroidSans'" fill="#8C8C8C" font-size="3.5">A1</text>
</g>
<g id="connector23terminal" height="0.699" x="-0.35" y="86.049" fill="none" width="0.7"/>
<line stroke="#787878" stroke-width="0.75" id="connector51pin" y1="57.6" fill="none" y2="57.6" x1="0.35" x2="14.75" stroke-linecap="round"/>
<g transform="matrix(1, 0, 0, 1, 16.1501, 58.2988)">
<text font-family="'DroidSans'" fill="#8C8C8C" font-size="3.5">SD</text>
</g>
<g id="connector51terminal" height="0.701" x="-0.35" y="57.249" fill="none" width="0.7"/>
<line stroke="#787878" stroke-width="0.75" id="connector52pin" y1="43.2" fill="none" y2="43.2" x1="0.35" x2="14.75" stroke-linecap="round"/>
<g transform="matrix(1, 0, 0, 1, 16.1501, 43.9004)">
<text font-family="'DroidSans'" fill="#8C8C8C" font-size="3.5">IoRef</text>
</g>
<g id="connector52terminal" height="0.701" x="-0.35" y="42.849" fill="none" width="0.7"/>
<line stroke="#787878" stroke-width="0.75" id="connector50pin" y1="64.8" fill="none" y2="64.8" x1="0.35" x2="14.75" stroke-linecap="round"/>
<g transform="matrix(1, 0, 0, 1, 16.1501, 65.498)">
<text font-family="'DroidSans'" fill="#8C8C8C" font-size="3.5">SC</text>
</g>
<g id="connector50terminal" height="0.699" x="-0.35" y="64.45" fill="none" width="0.7"/>
<line stroke="#787878" stroke-width="0.75" id="connector24pin" y1="93.599" fill="none" y2="93.599" x1="0.35" x2="14.75" stroke-linecap="round"/>
<g transform="matrix(1, 0, 0, 1, 6.1746, 92.5493)">
<text font-family="'DroidSans'" fill="#8C8C8C" font-size="2.5">25</text>
</g>
<g transform="matrix(1, 0, 0, 1, 16.1501, 94.2993)">
<text font-family="'DroidSans'" fill="#8C8C8C" font-size="3.5">A2</text>
</g>
<g id="connector24terminal" height="0.699" x="-0.35" y="93.25" fill="none" width="0.7"/>
<line stroke="#787878" stroke-width="0.75" id="connector25pin" y1="100.799" fill="none" y2="100.799" x1="0.35" x2="14.75" stroke-linecap="round"/>
<g transform="matrix(1, 0, 0, 1, 6.1746, 99.7485)">
<text font-family="'DroidSans'" fill="#8C8C8C" font-size="2.5">26</text>
</g>
<g transform="matrix(1, 0, 0, 1, 16.1501, 101.499)">
<text font-family="'DroidSans'" fill="#8C8C8C" font-size="3.5">A3</text>
</g>
<g id="connector25terminal" height="0.7" x="-0.35" y="100.45" fill="none" width="0.7"/>
<line stroke="#787878" stroke-width="0.75" id="connector26pin" y1="108" fill="none" y2="108" x1="0.35" x2="14.75" stroke-linecap="round"/>
<g transform="matrix(1, 0, 0, 1, 6.1746, 106.95)">
<text font-family="'DroidSans'" fill="#8C8C8C" font-size="2.5">27</text>
</g>
<g transform="matrix(1, 0, 0, 1, 16.1501, 108.7)">
<text font-family="'DroidSans'" fill="#8C8C8C" font-size="3.5">A4_TWD</text>
</g>
<g id="connector26terminal" height="0.699" x="-0.35" y="107.65" fill="none" width="0.7"/>
<line stroke="#787878" stroke-width="0.75" id="connector27pin" y1="115.2" fill="none" y2="115.2" x1="0.35" x2="14.75" stroke-linecap="round"/>
<g transform="matrix(1, 0, 0, 1, 6.1746, 114.149)">
<text font-family="'DroidSans'" fill="#8C8C8C" font-size="2.5">28</text>
</g>
<g transform="matrix(1, 0, 0, 1, 16.1501, 115.899)">
<text font-family="'DroidSans'" fill="#8C8C8C" font-size="3.5">A</text>
</g>
<g transform="matrix(1, 0, 0, 1, 18.2791, 115.899)">
<text font-family="'DroidSans'" fill="#8C8C8C" font-size="3.5">5</text>
</g>
<g transform="matrix(1, 0, 0, 1, 20.2063, 115.899)">
<text font-family="'DroidSans'" fill="#8C8C8C" font-size="3.5">_</text>
</g>
<g transform="matrix(1, 0, 0, 1, 21.6453, 115.899)">
<text font-family="'DroidSans'" fill="#8C8C8C" font-size="3.5">T</text>
</g>
<g transform="matrix(1, 0, 0, 1, 23.4622, 115.899)">
<text font-family="'DroidSans'" fill="#8C8C8C" font-size="3.5">W</text>
</g>
<g transform="matrix(1, 0, 0, 1, 26.5208, 115.899)">
<text font-family="'DroidSans'" fill="#8C8C8C" font-size="3.5">C</text>
</g>
<g transform="matrix(1, 0, 0, 1, 28.6306, 115.899)">
<text font-family="'DroidSans'" fill="#8C8C8C" font-size="3.5">K</text>
</g>
<g id="connector27terminal" height="0.7" x="-0.35" y="114.849" fill="none" width="0.7"/>
<line stroke="#787878" stroke-width="0.75" id="connector53pin" y1="129.599" fill="none" y2="129.599" x1="0.35" x2="14.75" stroke-linecap="round"/>
<g transform="matrix(1, 0, 0, 1, 16.1501, 130.299)">
<text font-family="'DroidSans'" fill="#8C8C8C" font-size="3.5">NC</text>
</g>
<g id="connector53terminal" height="0.701" x="-0.35" y="129.249" fill="none" width="0.7"/>
<line id="connector19pin" y1="136.45" fill="none" y2="150.85" x1="43.2" x2="43.2"/>
<g id="connector19terminal" height="0.699" x="42.85" y="150.85" fill="none" width="0.7"/>
<line id="connector20pin" y1="136.45" fill="none" y2="150.85" x1="43.2" x2="43.2"/>
<g id="connector20terminal" height="0.699" x="42.85" y="150.85" fill="none" width="0.7"/>
<line stroke="#787878" stroke-width="0.75" id="connector1pin" y1="136.45" fill="none" y2="150.85" x1="43.2" x2="43.2" stroke-linecap="round"/>
<g transform="matrix(1, 0, 0, 1, 14.8696, 50.6765)">
<g>
<g transform="rotate(270)">
<g>
<g transform="matrix(1, 0, 0, 1, -93.6619, 27.281)">
<text font-family="'DroidSans'" fill="#8C8C8C" font-size="2.5">2</text>
</g>
</g>
</g>
</g>
</g>
<g transform="matrix(1, 0, 0, 1, 15.4869, 47.6426)">
<g>
<g transform="rotate(270)">
<g>
<g transform="matrix(1, 0, 0, 1, -87.4067, 28.4137)">
<text font-family="'DroidSans'" fill="#8C8C8C" font-size="3.5">GND</text>
</g>
</g>
</g>
</g>
</g>
<g id="connector1terminal" height="0.699" x="42.85" y="150.85" fill="none" width="0.7"/>
<line stroke="#787878" stroke-width="0.75" id="connector17pin" y1="0.35" fill="none" y2="14.75" x1="28.8" x2="28.8" stroke-linecap="round"/>
<g transform="matrix(1, 0, 0, 1, 9.78958, 2.66347)">
<g>
<g transform="rotate(270)">
<g>
<g transform="matrix(1, 0, 0, 1, -6.2628, 17.9607)">
<text font-family="'DroidSans'" fill="#8C8C8C" font-size="2.5">18</text>
</g>
</g>
</g>
</g>
</g>
<g transform="matrix(1, 0, 0, 1, 10.4069, 5.69736)">
<g>
<g transform="rotate(270)">
<g>
<g transform="matrix(1, 0, 0, 1, -16.2953, 19.0933)">
<text font-family="'DroidSans'" fill="#8C8C8C" font-size="3.5">3V3</text>
</g>
</g>
</g>
</g>
</g>
<g id="connector17terminal" height="0.7" x="28.449" y="-0.35" fill="none" width="0.698"/>
<line stroke="#787878" stroke-width="0.75" id="connector18pin" y1="0.35" fill="none" y2="14.75" x1="36" x2="36" stroke-linecap="round"/>
<g transform="matrix(1, 0, 0, 1, 12.3296, 2.66347)">
<g>
<g transform="rotate(270)">
<g>
<g transform="matrix(1, 0, 0, 1, -6.2628, 22.6199)">
<text font-family="'DroidSans'" fill="#8C8C8C" font-size="2.5">19</text>
</g>
</g>
</g>
</g>
</g>
<g transform="matrix(1, 0, 0, 1, 12.9469, 5.69736)">
<g>
<g transform="rotate(270)">
<g>
<g transform="matrix(1, 0, 0, 1, -16.2953, 23.7526)">
<text font-family="'DroidSans'" fill="#8C8C8C" font-size="3.5">+5V</text>
</g>
</g>
</g>
</g>
</g>
<g id="connector18terminal" height="0.7" x="35.65" y="-0.35" fill="none" width="0.7"/>
<line stroke="#787878" stroke-width="0.75" id="connector21pin" y1="0.35" fill="none" y2="14.75" x1="57.6" x2="57.6" stroke-linecap="round"/>
<g transform="matrix(1, 0, 0, 1, 19.9496, 2.66347)">
<g>
<g transform="rotate(270)">
<g>
<g transform="matrix(1, 0, 0, 1, -6.2628, 36.6014)">
<text font-family="'DroidSans'" fill="#8C8C8C" font-size="2.5">22</text>
</g>
</g>
</g>
</g>
</g>
<g transform="matrix(1, 0, 0, 1, 20.5669, 5.69736)">
<g>
<g transform="rotate(270)">
<g>
<g transform="matrix(1, 0, 0, 1, -16.1781, 37.7341)">
<text font-family="'DroidSans'" fill="#8C8C8C" font-size="3.5">VIN</text>
</g>
</g>
</g>
</g>
</g>
<g id="connector21terminal" height="0.7" x="57.25" y="-0.35" fill="none" width="0.699"/>
<g transform="matrix(1, 0, 0, 1, 38.3181, 73.7832)">
<text id="label" font-family="'DroidSans'" font-size="4.25">Netduino</text>
</g>
</g>
</g></g><g partID='854632931'><g transform='translate(228.055,129.42)' ><g transform='matrix(-1,0,0,-1,0,0)'  ><g xmlns="http://www.w3.org/2000/svg" id="schematicText">
 <text xmlns="http://www.w3.org/2000/svg" id="label" x="0.48" y="5.28" font-family="Droid Sans" fill="#000000" font-size="4.8">VCC</text>
</g>
</g></g></g><g partID='854636861'><g transform='translate(229.524,136.62)' ><g transform='matrix(-1,0,0,-1,0,0)'  ><g xmlns="http://www.w3.org/2000/svg" id="schematicText">
 <text xmlns="http://www.w3.org/2000/svg" id="label" x="0.48" y="5.28" font-family="Droid Sans" fill="#000000" font-size="4.8">GND</text>
</g>
</g></g></g><g partID='854636911'><g transform='translate(227.587,143.82)' ><g transform='matrix(-1,0,0,-1,0,0)'  ><g xmlns="http://www.w3.org/2000/svg" id="schematicText">
 <text xmlns="http://www.w3.org/2000/svg" id="label" x="0.48" y="5.28" font-family="Droid Sans" fill="#000000" font-size="4.8">IN1</text>
</g>
</g></g></g><g partID='854636931'><g transform='translate(227.587,151.02)' ><g transform='matrix(-1,0,0,-1,0,0)'  ><g xmlns="http://www.w3.org/2000/svg" id="schematicText">
 <text xmlns="http://www.w3.org/2000/svg" id="label" x="0.48" y="5.28" font-family="Droid Sans" fill="#000000" font-size="4.8">IN2</text>
</g>
</g></g></g><g partID='854636951'><g transform='translate(229.899,158.22)' ><g transform='matrix(-1,0,0,-1,0,0)'  ><g xmlns="http://www.w3.org/2000/svg" id="schematicText">
 <text xmlns="http://www.w3.org/2000/svg" id="label" x="0.48" y="5.28" font-family="Droid Sans" fill="#000000" font-size="4.8">COM</text>
</g>
</g></g></g><g partID='854636971'><g transform='translate(229.524,165.42)' ><g transform='matrix(-1,0,0,-1,0,0)'  ><g xmlns="http://www.w3.org/2000/svg" id="schematicText">
 <text xmlns="http://www.w3.org/2000/svg" id="label" x="0.48" y="5.28" font-family="Droid Sans" fill="#000000" font-size="4.8">GND</text>
</g>
</g></g></g><g partID='854637950'><line stroke-linecap='round' stroke='#404040' x1='80.25' y1='17.8167' x2='37.05' y2='17.8167' stroke-width='0.699998' /></g><g partID='854637920'><line stroke-linecap='round' stroke='#404040' x1='80.2495' y1='39.4182' x2='80.25' y2='17.8167' stroke-width='0.699998' /></g><g partID='854638190'><line stroke-linecap='round' stroke='#404040' x1='1.05' y1='17.8167' x2='15.45' y2='17.8167' stroke-width='0.699998' /></g><g partID='854638120'><line stroke-linecap='round' stroke='#404040' x1='109.05' y1='197.817' x2='1.05' y2='197.817' stroke-width='0.699998' /></g><g partID='854637980'><line stroke-linecap='round' stroke='#404040' x1='109.05' y1='205.017' x2='109.05' y2='197.817' stroke-width='0.699998' /></g><circle  fill="black" cx="109.05" cy="205.017" r="1.44" stroke-width="0" stroke="none" /><g partID='854638050'><line stroke-linecap='round' stroke='#404040' x1='1.05' y1='197.817' x2='1.05' y2='17.8167' stroke-width='0.699998' /></g><g partID='854640820'><line stroke-linecap='round' stroke='#404040' x1='159.45' y1='17.8167' x2='159.45' y2='17.8167' stroke-width='0.699998' /></g><g partID='854640850'><line stroke-linecap='round' stroke='#404040' x1='152.25' y1='17.8167' x2='159.45' y2='17.8167' stroke-width='0.699998' /></g><g partID='854640790'><line stroke-linecap='round' stroke='#404040' x1='152.25' y1='133.017' x2='152.25' y2='17.8167' stroke-width='0.699998' /></g><g partID='854640760'><line stroke-linecap='round' stroke='#404040' x1='195.45' y1='133.017' x2='152.25' y2='133.017' stroke-width='0.699998' /></g><g partID='854640880'><line stroke-linecap='round' stroke='#404040' x1='116.249' y1='140.218' x2='195.45' y2='140.217' stroke-width='0.699998' /></g><g partID='854640950'><line stroke-linecap='round' stroke='#404040' x1='116.249' y1='147.418' x2='195.45' y2='147.417' stroke-width='0.699998' /></g><g partID='854641160'><line stroke-linecap='round' stroke='#404040' x1='152.25' y1='154.617' x2='195.45' y2='154.617' stroke-width='0.699998' /></g><g partID='854641020'><line stroke-linecap='round' stroke='#404040' x1='109.05' y1='205.017' x2='109.05' y2='197.817' stroke-width='0.699998' /></g><circle  fill="black" cx="109.05" cy="205.017" r="1.44" stroke-width="0" stroke="none" /><g partID='854641230'><line stroke-linecap='round' stroke='#404040' x1='152.25' y1='197.817' x2='152.25' y2='154.617' stroke-width='0.699998' /></g><g partID='854641090'><line stroke-linecap='round' stroke='#404040' x1='109.05' y1='197.817' x2='152.25' y2='197.817' stroke-width='0.699998' /></g><g partID='854641330'><line stroke-linecap='round' stroke='#404040' x1='188.25' y1='125.817' x2='195.45' y2='125.817' stroke-width='0.699998' /></g><g partID='854641300'><line stroke-linecap='round' stroke='#404040' x1='181.05' y1='17.8167' x2='188.25' y2='17.8167' stroke-width='0.699998' /></g><g partID='854641360'><line stroke-linecap='round' stroke='#404040' x1='188.25' y1='17.8167' x2='188.25' y2='125.817' stroke-width='0.699998' /></g><g partID='854641700'><line stroke-linecap='round' stroke='#404040' x1='65.85' y1='197.817' x2='65.85' y2='190.618' stroke-width='0.699998' /></g><g partID='854641630'><line stroke-linecap='round' stroke='#404040' x1='109.05' y1='205.017' x2='109.05' y2='197.817' stroke-width='0.699998' /></g><circle  fill="black" cx="109.05" cy="205.017" r="1.44" stroke-width="0" stroke="none" /><g partID='854641770'><line stroke-linecap='round' stroke='#404040' x1='109.05' y1='197.817' x2='65.85' y2='197.817' stroke-width='0.699998' /></g><g partID='854637040' id='partLabel'><g transform='translate(174.638,0)' ><g font-size='5' font-style='normal' font-weight='normal' fill='#000000' font-family="'DroidSans'" id='schematicLabel' fill-opacity='1' stroke='none' ><text x='0' y='3.75'>5V Relay Power</text></g></g></g><g partID='854637900' id='partLabel'><g transform='translate(30.638,2.66667e-06)' ><g font-size='5' font-style='normal' font-weight='normal' fill='#000000' font-family="'DroidSans'" id='schematicLabel' fill-opacity='1' stroke='none' ><text x='0' y='3.75'>5V Relay Power1</text></g></g></g><g partID='854637340' id='partLabel'><g transform='translate(104.783,54.0848)' ><g font-size='5' font-style='normal' font-weight='normal' fill='#000000' font-family="'DroidSans'" id='schematicLabel' fill-opacity='1' stroke='none' ><text x='0' y='3.75'>Netduino</text></g></g></g><g partID='854640640' id='partLabel'><g transform='translate(209.829,116.609)' ><g font-size='5' font-style='normal' font-weight='normal' fill='#000000' font-family="'DroidSans'" id='schematicLabel' fill-opacity='1' stroke='none' ><text x='0' y='3.75'>Relay Header</text></g></g></g></svg>