<?xml version="1.0" encoding="UTF-8"?>
<svg width="825px" height="305px" viewBox="0 0 825 305" version="1.1" xmlns="http://www.w3.org/2000/svg" xmlns:xlink="http://www.w3.org/1999/xlink">
    <!-- Generator: Sketch 48.2 (47327) - http://www.bohemiancoding.com/sketch -->
    <title>Netduino_Foundation_Banner</title>
    <desc>Created with Sketch.</desc>
    <defs></defs>
    <g id="Developer-Home-Page" stroke="none" stroke-width="1" fill="none" fill-rule="evenodd" transform="translate(-465.000000, -371.000000)">
        <g id="Page-Content" transform="translate(465.000000, 102.000000)">
            <g id="Netduino_Foundation_Banner" transform="translate(0.000000, 269.000000)">
                <rect id="Rectangle" fill="#23ABE3" x="0" y="0" width="825" height="305"></rect>
                <g id="NetduinoFoundation_BlogImage" transform="translate(54.000000, 16.000000)">
                    <g id="Logos">
                        <g id="ByWLabs_Logo" transform="translate(557.000000, 100.000000)">
                            <rect id="Rectangle-3" x="14.215859" y="0" width="141.784141" height="81.6676652"></rect>
                            <g id="MountainLogo-Copy" transform="translate(39.547959, 7.939912)">
                                <g id="MountainTree-Copy-2" transform="translate(-0.000000, -0.000000)">
                                    <path d="M63.836971,32.42043 L62.597929,35.4932043 L57.670607,27.1728014 L42.9046103,24.0435811 L38.63484,27.7192611 C38.63484,27.7192611 38.1217263,28.2175594 37.6428587,28.2098056 C37.163991,28.2020518 36.5379393,27.6805843 36.5379393,27.6805843 L33.0736432,25.2191618 L27.6113538,35.4945428 L26.1900508,32.6002448 L42.657688,1.49131809 C42.657688,1.49131809 43.0768443,0.365537238 44.0579449,0.36406032 C45.0390455,0.362583402 45.4937401,1.5070565 45.4937401,1.5070565 L63.836971,32.42043 Z" id="Path-3" fill="#EEEEEE"></path>
                                    <path d="M44.1128678,4.3826161 L55.8229824,24.0786348 L42.75738,21.3263748 C42.75738,21.3263748 42.4373042,21.2993749 42.2145895,21.3378671 C41.9918749,21.3763592 41.7684449,21.552851 41.7684449,21.552851 L37.545659,25.1947465 L34.3146006,22.8604543 L44.1128678,4.3826161 Z" id="Path-4" fill="#EEEEEE"></path>
                                    <path d="M29.3767556,43.3078551 C29.3767556,43.3078551 30.125253,43.3025474 30.4832211,42.6478804 C30.8411891,41.9932133 30.559467,41.4547151 30.559467,41.4547151 L15.416833,10.6953565 C15.416833,10.6953565 15.1607954,10.0416818 14.25886,10.0416818 C13.3569245,10.0416818 13.1124023,10.6953565 13.1124023,10.6953565 L0.411944775,41.2788234 C0.411944775,41.2788234 0.133176477,42.0714208 0.518236727,42.6746034 C0.903296978,43.277786 1.58145625,43.3043936 1.58145625,43.3043936 L13.8675228,43.3014628 L13.8675228,46.2550452 C13.8675228,46.2550452 13.9056227,47.5534409 15.2135952,47.5613332 C16.5215678,47.5692254 16.5215678,46.241176 16.5215678,46.241176 L16.5215678,43.3065397 L29.3767556,43.3078551 Z" id="Path-5" fill="#EEEEEE"></path>
                                    <polygon id="Path-2" fill="#23ABE3" points="14.3757904 14.5654128 27.2177782 40.6608947 3.53151895 40.6608947"></polygon>
                                    <path d="M89.1151403,43.3078551 C89.1151403,43.3078551 89.8636378,43.3025474 90.2216058,42.6478804 C90.5795738,41.9932133 90.2978517,41.4547151 90.2978517,41.4547151 L75.1552178,10.6953565 C75.1552178,10.6953565 74.8991802,10.0416818 73.9972447,10.0416818 C73.0953093,10.0416818 72.850787,10.6953565 72.850787,10.6953565 L60.1503295,41.2788234 C60.1503295,41.2788234 59.8715612,42.0714208 60.2566215,42.6746034 C60.6416817,43.277786 61.319841,43.3043936 61.319841,43.3043936 L73.6059076,43.3014628 L73.6059076,46.2550452 C73.6059076,46.2550452 73.6440074,47.5534409 74.95198,47.5613332 C76.2599525,47.5692254 76.2599525,46.241176 76.2599525,46.241176 L76.2599525,43.3065397 L89.1151403,43.3078551 Z" id="Path-5" fill="#EEEEEE"></path>
                                    <polygon id="Path-2" fill="#23ABE3" points="74.1141751 14.5654128 86.9561629 40.6608947 63.2699037 40.6608947"></polygon>
                                </g>
                            </g>
                            <path d="M22.9225866,60.0455837 L24.7037498,60.0455837 L25.6342083,66.3992855 L25.7848539,67.3386055 C25.8557463,67.8466678 25.9089149,68.3104155 25.9443611,68.7298623 L26.0418377,69.89072 C26.0477454,69.9202585 26.053653,69.973427 26.0595607,70.0502271 C26.0654684,70.1270273 26.0743298,70.2245029 26.0861452,70.3426569 L26.1304528,69.8995815 C26.2013452,69.1256725 26.2766673,68.4138051 26.3564212,67.7639579 C26.4361752,67.1141106 26.5233125,66.5144879 26.6178357,65.9650716 L27.6014632,60.0455837 L29.0193046,60.0455837 L29.9409015,65.7967029 C30.0767787,66.647412 30.1905003,67.4360784 30.2820696,68.1627258 C30.373639,68.8893731 30.4489611,69.5835177 30.5080381,70.2451803 C30.5671151,69.5480715 30.6335758,68.8746036 30.7074221,68.2247563 C30.7812683,67.5749091 30.8595442,66.9368868 30.942252,66.3106704 L31.0751747,65.397935 L31.863849,60.0455837 L33.6272892,60.0455837 L31.2080973,73.7277533 L29.7725329,73.7277533 L28.8066284,67.8171269 C28.8007207,67.7934961 28.7859517,67.6960205 28.7623209,67.5246971 C28.7386901,67.3533738 28.7032444,67.1082078 28.6559828,66.7891919 L28.4698911,65.4245195 C28.4580757,65.3181809 28.4388759,65.1586753 28.4122913,64.9459981 C28.3857066,64.7333208 28.3576455,64.4645244 28.3281069,64.1396008 L28.2837994,63.5724642 C28.271984,63.7083414 28.2601688,63.8264936 28.2483534,63.9269246 C28.236538,64.0273555 28.2276765,64.1100621 28.2217688,64.1750468 C28.1922303,64.5649551 28.167123,64.8677203 28.146446,65.0833515 C28.1257691,65.2989826 28.1124769,65.430427 28.1065692,65.4776886 L27.9204775,66.7891919 C27.8791236,67.0904847 27.8466317,67.3267892 27.8230009,67.4981126 C27.7993701,67.669436 27.7816473,67.775773 27.7698319,67.8171269 L26.7684814,73.7277533 L25.2886094,73.7277533 L22.9225866,60.0455837 Z M36.1829484,60.0455837 L38.0261422,60.0455837 L38.0261422,73.7277533 L36.1829484,73.7277533 L36.1829484,60.0455837 Z M41.6097364,60.0455837 L43.4529303,60.0455837 L43.4529303,72.1681278 L46.4658432,72.1681278 L46.4658432,73.7277533 L41.6097364,73.7277533 L41.6097364,60.0455837 Z M49.0923945,60.0455837 L51.3609408,60.0455837 C52.0521419,60.0455837 52.6340418,60.1223827 53.106658,60.2759829 C53.5438279,60.4236755 53.9337304,60.6865643 54.2763772,61.0646572 C54.7903472,61.6317966 55.1566193,62.3702483 55.3752042,63.2800344 C55.5937892,64.160282 55.7030801,65.4215575 55.7030801,67.0638987 C55.7030801,68.5703627 55.581974,69.7991463 55.3397582,70.7502863 C55.1034501,71.6600725 54.7135476,72.354217 54.170039,72.8327409 C53.5024687,73.4294188 52.306177,73.7277533 50.581128,73.7277533 L49.0923945,73.7277533 L49.0923945,60.0455837 Z M50.9355883,72.1149587 C52.0580517,72.1149587 52.8083186,71.7752709 53.1864116,71.0958852 C53.5763199,70.4164994 53.7712711,69.0961478 53.7712711,67.1347907 C53.7712711,65.0257411 53.5851813,63.575422 53.2129961,62.7837899 C52.8408109,61.9921578 52.1584815,61.5963477 51.1659876,61.5963477 L50.9355883,61.5963477 L50.9355883,72.1149587 Z M59.0119675,60.0455837 L63.9123819,60.0455837 L63.9123819,61.6052093 L60.8551613,61.6052093 L60.8551613,65.9384871 L63.566783,65.9384871 L63.566783,67.4981126 L60.8551613,67.4981126 L60.8551613,72.1681278 L63.9123819,72.1681278 L63.9123819,73.7277533 L59.0119675,73.7277533 L59.0119675,60.0455837 Z M67.0794852,60.0455837 L69.5075386,60.0455837 C70.5118479,60.0455837 71.259161,60.284842 71.7495003,60.7633659 C72.369809,61.3836746 72.6799587,62.3318466 72.6799587,63.6079102 C72.6799587,64.5885888 72.5160224,65.3757783 72.188145,65.9695023 C71.8602675,66.5632264 71.3920891,66.9309753 70.7835958,67.0727602 L73.3002643,73.7277533 L71.430486,73.7277533 L68.922679,67.0284526 L68.922679,73.7277533 L67.0794852,73.7277533 L67.0794852,60.0455837 Z M68.922679,66.1068557 C69.6375109,66.1068557 70.1426119,65.9414425 70.437997,65.6106112 C70.7333821,65.2797799 70.8810724,64.7215104 70.8810724,63.9357861 C70.8810724,63.5104315 70.8500575,63.1471133 70.7880266,62.8458205 C70.7259957,62.5445277 70.6285201,62.2993617 70.4955968,62.1103153 C70.3626735,61.9212688 70.1913527,61.7824399 69.9816293,61.6938243 C69.7719059,61.6052088 69.5223092,61.5609017 69.2328318,61.5609017 L68.922679,61.5609017 L68.922679,66.1068557 Z M76.2015224,60.0455837 L77.9206551,60.0455837 L79.7549874,65.5042731 C80.2866806,67.0461834 80.7563358,68.6914537 81.1639673,70.4401335 C81.0162747,69.3826549 80.9069839,68.4256215 80.8360915,67.5690047 C80.765199,66.7123879 80.7297534,65.9059986 80.7297534,65.1498128 L80.7297534,60.0455837 L82.5818087,60.0455837 L82.5818087,73.7277533 L80.8538145,73.7277533 L78.7890829,67.5690047 C78.6000365,66.9959576 78.4213312,66.40815 78.2529616,65.8055644 C78.0845921,65.2029788 77.9295173,64.5708642 77.7877324,63.9092015 C77.775917,63.8264937 77.7567173,63.7260643 77.7301326,63.6079102 C77.703548,63.4897562 77.672533,63.3538811 77.6370868,63.2002808 C77.6548099,63.3538811 77.6695789,63.4853255 77.6813943,63.594618 C77.6932097,63.7039105 77.7020712,63.7969554 77.7079789,63.8737555 L77.8054555,65.2650124 L77.902932,66.9575606 C77.9088398,67.0520838 77.9132705,67.1672823 77.9162243,67.3031594 C77.9191782,67.4390366 77.9206551,67.5926345 77.9206551,67.7639579 L78.0181317,73.7277533 L76.2015224,73.7277533 L76.2015224,60.0455837 Z M86.1654029,60.0455837 L91.0658173,60.0455837 L91.0658173,61.6052093 L88.0085967,61.6052093 L88.0085967,65.9384871 L90.7202184,65.9384871 L90.7202184,67.4981126 L88.0085967,67.4981126 L88.0085967,72.1681278 L91.0658173,72.1681278 L91.0658173,73.7277533 L86.1654029,73.7277533 L86.1654029,60.0455837 Z M98.7965976,60.329152 L98.7965976,62.1280383 C98.2353659,61.7263145 97.7302649,61.5254557 97.2812796,61.5254557 C96.796848,61.5254557 96.4010379,61.6967765 96.0938374,62.0394232 C95.7866369,62.3643468 95.6330389,62.7985564 95.6330389,63.342065 C95.6330389,63.8205888 95.7423298,64.231168 95.9609148,64.5738147 C96.0731611,64.7569535 96.257774,64.993258 96.5147591,65.2827354 C96.7717441,65.5722128 97.1040474,65.920762 97.5116788,66.3283934 C98.261957,67.090487 98.7729655,67.7491859 99.0447198,68.3045099 C99.3164741,68.8421108 99.4523492,69.5008097 99.4523492,70.2806264 C99.4523492,71.338105 99.1540148,72.209478 98.5573369,72.8947715 C97.9606589,73.5623418 97.195623,73.896122 96.2622061,73.896122 C95.4764817,73.896122 94.8059676,73.6804941 94.2506436,73.2492318 L94.2506436,71.423761 C94.9063985,71.9022849 95.5030675,72.1415432 96.0406684,72.1415432 C96.542823,72.1415432 96.9356793,71.9746531 97.219249,71.640868 C97.5028187,71.3070828 97.6446014,70.8536735 97.6446014,70.2806264 C97.6446014,69.7843794 97.5353106,69.3383546 97.3167256,68.9425385 C97.2044793,68.7534921 97.0479275,68.5363873 96.8470657,68.2912176 C96.6462038,68.046048 96.3951302,67.7728209 96.0938374,67.4715281 C95.6271289,67.0107273 95.2401803,66.603102 94.9329798,66.2486399 C94.6257792,65.8941777 94.3983361,65.584028 94.2506436,65.3181814 C93.9670739,64.7983037 93.8252912,64.1425586 93.8252912,63.3509265 C93.8252912,62.2816324 94.102949,61.4338899 94.658273,60.8076735 C95.2195047,60.1755493 95.9727254,59.859492 96.9179577,59.859492 C97.5737127,59.859492 98.1999197,60.0160438 98.7965976,60.329152 Z M107.041345,60.329152 L107.041345,62.1280383 C106.480114,61.7263145 105.975013,61.5254557 105.526027,61.5254557 C105.041596,61.5254557 104.645786,61.6967765 104.338585,62.0394232 C104.031385,62.3643468 103.877787,62.7985564 103.877787,63.342065 C103.877787,63.8205888 103.987078,64.231168 104.205663,64.5738147 C104.317909,64.7569535 104.502522,64.993258 104.759507,65.2827354 C105.016492,65.5722128 105.348795,65.920762 105.756427,66.3283934 C106.506705,67.090487 107.017713,67.7491859 107.289468,68.3045099 C107.561222,68.8421108 107.697097,69.5008097 107.697097,70.2806264 C107.697097,71.338105 107.398763,72.209478 106.802085,72.8947715 C106.205407,73.5623418 105.440371,73.896122 104.506954,73.896122 C103.72123,73.896122 103.050715,73.6804941 102.495391,73.2492318 L102.495391,71.423761 C103.151146,71.9022849 103.747815,72.1415432 104.285416,72.1415432 C104.787571,72.1415432 105.180427,71.9746531 105.463997,71.640868 C105.747567,71.3070828 105.889349,70.8536735 105.889349,70.2806264 C105.889349,69.7843794 105.780058,69.3383546 105.561473,68.9425385 C105.449227,68.7534921 105.292675,68.5363873 105.091813,68.2912176 C104.890952,68.046048 104.639878,67.7728209 104.338585,67.4715281 C103.871877,67.0107273 103.484928,66.603102 103.177728,66.2486399 C102.870527,65.8941777 102.643084,65.584028 102.495391,65.3181814 C102.211822,64.7983037 102.070039,64.1425586 102.070039,63.3509265 C102.070039,62.2816324 102.347697,61.4338899 102.903021,60.8076735 C103.464253,60.1755493 104.217473,59.859492 105.162706,59.859492 C105.81846,59.859492 106.444668,60.0160438 107.041345,60.329152 Z M115.954251,60.0455837 L117.797445,60.0455837 L117.797445,72.1681278 L120.810358,72.1681278 L120.810358,73.7277533 L115.954251,73.7277533 L115.954251,60.0455837 Z M126.113085,60.0455837 L127.548649,60.0455837 L130.481809,73.7277533 L128.656338,73.7277533 L128.14237,71.0604392 L125.430749,71.0604392 L124.90792,73.7277533 L123.135618,73.7277533 L126.113085,60.0455837 Z M127.876525,69.6337362 L127.468896,67.4538051 C127.197141,65.9709718 126.975606,64.3877314 126.804282,62.7040363 C126.721575,63.5252069 126.615238,64.3567035 126.485268,65.1985511 C126.355299,66.0403986 126.201701,66.9339252 126.02447,67.8791575 L125.687732,69.6337362 L127.876525,69.6337362 Z M133.037468,60.0455837 L135.536413,60.0455837 C137.491863,60.0455837 138.469573,61.2595983 138.469573,63.6876638 C138.469573,64.615173 138.342559,65.30341 138.088528,65.7523954 C137.834497,66.2013807 137.385518,66.5410685 136.741579,66.7714689 C137.480041,67.066854 137.985142,67.4449413 138.256897,67.905742 C138.534559,68.3606351 138.673387,69.0459182 138.673387,69.9616121 C138.673387,72.4723854 137.598202,73.7277533 135.447798,73.7277533 L133.037468,73.7277533 L133.037468,60.0455837 Z M134.774324,66.0714097 C135.489155,66.0714097 135.985395,65.9059965 136.263057,65.5751652 C136.540719,65.2266108 136.679548,64.6151728 136.679548,63.7408329 C136.679548,62.2639074 136.147863,61.5254557 135.084476,61.5254557 L134.862939,61.5254557 C134.815677,61.5254557 134.786139,61.5284095 134.774324,61.5343172 L134.774324,66.0714097 Z M134.774324,72.1504047 C135.530509,72.1504047 136.053333,71.9879454 136.342811,71.6630218 C136.632288,71.3380981 136.777025,70.7502906 136.777025,69.8995815 C136.777025,69.0252416 136.62638,68.4138036 136.325088,68.0652492 C136.029702,67.710787 135.512786,67.5335586 134.774324,67.5335586 L134.774324,72.1504047 Z M146.545952,60.329152 L146.545952,62.1280383 C145.98472,61.7263145 145.479619,61.5254557 145.030634,61.5254557 C144.546202,61.5254557 144.150392,61.6967765 143.843192,62.0394232 C143.535991,62.3643468 143.382393,62.7985564 143.382393,63.342065 C143.382393,63.8205888 143.491684,64.231168 143.710269,64.5738147 C143.822515,64.7569535 144.007128,64.993258 144.264113,65.2827354 C144.521098,65.5722128 144.853402,65.920762 145.261033,66.3283934 C146.011311,67.090487 146.52232,67.7491859 146.794074,68.3045099 C147.065828,68.8421108 147.201704,69.5008097 147.201704,70.2806264 C147.201704,71.338105 146.903369,72.209478 146.306691,72.8947715 C145.710013,73.5623418 144.944977,73.896122 144.01156,73.896122 C143.225836,73.896122 142.555322,73.6804941 141.999998,73.2492318 L141.999998,71.423761 C142.655753,71.9022849 143.252422,72.1415432 143.790023,72.1415432 C144.292177,72.1415432 144.685034,71.9746531 144.968603,71.640868 C145.252173,71.3070828 145.393956,70.8536735 145.393956,70.2806264 C145.393956,69.7843794 145.284665,69.3383546 145.06608,68.9425385 C144.953834,68.7534921 144.797282,68.5363873 144.59642,68.2912176 C144.395558,68.046048 144.144485,67.7728209 143.843192,67.4715281 C143.376483,67.0107273 142.989535,66.603102 142.682334,66.2486399 C142.375134,65.8941777 142.14769,65.584028 141.999998,65.3181814 C141.716428,64.7983037 141.574645,64.1425586 141.574645,63.3509265 C141.574645,62.2816324 141.852303,61.4338899 142.407627,60.8076735 C142.968859,60.1755493 143.72208,59.859492 144.667312,59.859492 C145.323067,59.859492 145.949274,60.0160438 146.545952,60.329152 Z" id="WILDERNESS-LABS" fill="#EEEEEE"></path>
                            <path d="M6.28237713,69.73305 C6.28237713,70.8722639 6.0302229,71.7761918 5.52590687,72.4448608 C5.02159084,73.1135298 4.34392634,73.4478593 3.49289303,73.4478593 C2.47525533,73.4478593 1.70528437,73.069628 1.18295705,72.3131539 L1.14918605,73.3127753 L0.39271579,73.3127753 L0.39271579,62.938326 L1.19646545,62.938326 L1.19646545,67.0651415 C1.70978712,66.268142 2.47075257,65.8696483 3.47938464,65.8696483 C4.3439264,65.8696483 5.02721935,66.199475 5.52928397,66.8591384 C6.03134859,67.5188018 6.28237713,68.4362379 6.28237713,69.6114744 L6.28237713,69.73305 Z M5.47187328,69.5912118 C5.47187328,68.627608 5.28500898,67.8835278 4.91127478,67.3589491 C4.53754058,66.8343704 4.01071834,66.5720849 3.33079226,66.5720849 C2.81296777,66.5720849 2.37394924,66.6992877 2.0137235,66.9536972 C1.65349776,67.2081066 1.38108114,67.5807095 1.19646545,68.0715171 L1.19646545,71.3675661 C1.6017194,72.2861417 2.31765731,72.7454226 3.34430066,72.7454226 C4.01071827,72.7454226 4.53191207,72.4820115 4.90789768,71.9551814 C5.28388329,71.4283512 5.47187328,70.6403693 5.47187328,69.5912118 Z M10.3821758,72.1510531 L12.5165026,66.0047322 L13.3877943,66.0047322 L10.2673544,74.5555479 L10.1052536,74.933783 C9.70450252,75.8208389 9.08537382,76.2643602 8.24784898,76.2643602 C8.05422765,76.2643602 7.84710096,76.2328409 7.62646269,76.1698014 L7.61970849,75.5011357 L8.03846882,75.5416609 C8.43471713,75.5416609 8.75553836,75.443726 9.00094215,75.2478533 C9.24634593,75.0519805 9.45459831,74.7153997 9.62570553,74.2381006 L9.98367807,73.2519875 L7.22796496,66.0047322 L8.11276501,66.0047322 L10.3821758,72.1510531 Z M14.4414493,72.826473 C14.4414493,72.6688743 14.4921053,72.5349173 14.5934187,72.4245982 C14.6947322,72.3142791 14.8354433,72.2591203 15.0155562,72.2591203 C15.195669,72.2591203 15.3375058,72.3142791 15.4410707,72.4245982 C15.5446356,72.5349173 15.5964173,72.6688743 15.5964173,72.826473 C15.5964173,72.9840718 15.5446356,73.113526 15.4410707,73.2148394 C15.3375058,73.3161529 15.195669,73.3668089 15.0155562,73.3668089 C14.8354433,73.3668089 14.6947322,73.3161529 14.5934187,73.2148394 C14.4921053,73.113526 14.4414493,72.9840718 14.4414493,72.826473 Z M14.4549577,66.5923475 C14.4549577,66.4347488 14.5056137,66.3007918 14.6069271,66.1904727 C14.7082406,66.0801536 14.8489517,66.0249948 15.0290646,66.0249948 C15.2091774,66.0249948 15.3510142,66.0801536 15.4545791,66.1904727 C15.558144,66.3007918 15.6099257,66.4347488 15.6099257,66.5923475 C15.6099257,66.7499463 15.558144,66.8794005 15.4545791,66.980714 C15.3510142,67.0820275 15.2091774,67.1326834 15.0290646,67.1326834 C14.8489517,67.1326834 14.7082406,67.0820275 14.6069271,66.980714 C14.5056137,66.8794005 14.4549577,66.7499463 14.4549577,66.5923475 Z" id="by:" fill="#EEEEEE"></path>
                        </g>
                        <g id="Netduino_Foundation_Banner_Logo">
                            <text id="beta" font-family="Roboto-Light, Roboto" font-size="31" font-weight="300" fill="#EEEEEE">
                                <tspan x="639.5" y="36">beta</tspan>
                            </text>
                            <path d="M15.2714844,69 L8.94335938,69 L8.94335938,25.4414062 C8.94335938,23.0742069 9.417964,21.2578188 10.3671875,19.9921875 C11.316411,18.7265562 12.6699131,18.09375 14.4277344,18.09375 C15.6699281,18.09375 16.7890575,18.5039021 17.7851562,19.3242188 C18.781255,20.1445354 19.7011677,21.4101477 20.5449219,23.1210938 L38.6855469,60.8085938 L38.6855469,18.65625 L45.0839844,18.65625 L45.0839844,62.390625 C45.0839844,64.6875115 44.6152391,66.4804623 43.6777344,67.7695312 C42.7402297,69.0586002 41.4394614,69.703125 39.7753906,69.703125 C38.4628841,69.703125 37.2851615,69.2871135 36.2421875,68.4550781 C35.1992135,67.6230427 34.2793009,66.3632897 33.4824219,64.6757812 L15.2714844,26.7421875 L15.2714844,69 Z M86.6386719,53.7421875 C85.77148,58.6640871 83.7793125,62.5546732 80.6621094,65.4140625 C77.5449063,68.2734518 73.7480693,69.703125 69.2714844,69.703125 C67.7480393,69.703125 66.2421949,69.4980489 64.7539062,69.0878906 C63.2656176,68.6777323 61.8652409,68.0742227 60.5527344,67.2773438 C57.7870955,65.5898353 55.6425857,63.3867323 54.1191406,60.6679688 C52.5956955,57.9492052 51.8339844,54.9609538 51.8339844,51.703125 C51.8339844,49.312488 52.2734331,47.0390733 53.1523438,44.8828125 C54.0312544,42.7265517 55.3027261,40.7812587 56.9667969,39.046875 C58.6308677,37.3359289 60.5234269,36.0351607 62.6445313,35.1445312 C64.7656356,34.2539018 66.9980352,33.8085938 69.3417969,33.8085938 C72.8340018,33.8085938 75.9570175,34.7285064 78.7109375,36.5683594 C81.4648575,38.4082123 83.6972571,41.0859199 85.4082031,44.6015625 L62.8027344,57.1171875 L60.2011719,52.4414062 L76.9707031,43.0898438 C75.939448,41.9414005 74.7793033,41.0742217 73.4902344,40.4882812 C72.2011654,39.9023408 70.7949295,39.609375 69.2714844,39.609375 C66.1777189,39.609375 63.5703231,40.7636603 61.4492188,43.0722656 C59.3281144,45.3808709 58.2675781,48.234358 58.2675781,51.6328125 C58.2675781,55.0078294 59.3339737,57.8554571 61.4667969,60.1757812 C63.59962,62.4961054 66.2011565,63.65625 69.2714844,63.65625 C72.2011865,63.65625 74.6562401,62.6894628 76.6367188,60.7558594 C78.6171974,58.822256 79.8535132,56.1679856 80.3457031,52.7929688 L86.6386719,53.7421875 Z M92.5449219,25.3710938 L98.7324219,25.3710938 L98.7324219,34.5117188 L109.173828,34.5117188 L109.173828,40.3476562 L98.7324219,40.3476562 L98.7324219,55.1132812 C98.7324219,57.8789201 99.4062433,59.9003842 100.753906,61.1777344 C102.101569,62.4550845 104.251938,63.09375 107.205078,63.09375 L109.173828,63.09375 L109.173828,69 L107.134766,69 C102.259741,69 98.6093871,67.9336044 96.1835938,65.8007812 C93.7578004,63.6679581 92.5449219,60.4570527 92.5449219,56.1679688 L92.5449219,25.3710938 Z M148.337891,18.65625 L148.337891,48.9960938 C148.337891,52.0898592 148.191408,54.4101485 147.898438,55.9570312 C147.605467,57.503914 147.119144,58.9218686 146.439453,60.2109375 C144.986321,63.1640773 142.888686,65.4726479 140.146484,67.1367188 C137.404283,68.8007896 134.369157,69.6328125 131.041016,69.6328125 C126.025366,69.6328125 121.882829,67.9394701 118.613281,64.5527344 C115.343734,61.1659987 113.708984,56.8828384 113.708984,51.703125 C113.708984,49.3828009 114.107418,47.1679793 114.904297,45.0585938 C115.701176,42.9492082 116.861321,41.0625083 118.384766,39.3984375 C119.931648,37.6640538 121.783192,36.3222704 123.939453,35.3730469 C126.095714,34.4238234 128.345691,33.9492188 130.689453,33.9492188 C132.400399,33.9492188 134.035148,34.1425762 135.59375,34.5292969 C137.152352,34.9160176 138.634759,35.5078085 140.041016,36.3046875 L140.041016,42.9492188 C138.611321,41.8710884 137.187507,41.0742213 135.769531,40.5585938 C134.351555,40.0429662 132.892586,39.7851562 131.392578,39.7851562 C128.087874,39.7851562 125.369151,40.9218636 123.236328,43.1953125 C121.103505,45.4687614 120.037109,48.3867009 120.037109,51.9492188 C120.037109,55.4414237 121.074208,58.2949108 123.148438,60.5097656 C125.222667,62.7246204 127.876937,63.8320312 131.111328,63.8320312 C134.369157,63.8320312 137.017568,62.7129018 139.056641,60.4746094 C141.095713,58.2363169 142.115234,55.312518 142.115234,51.703125 L142.115234,18.65625 L148.337891,18.65625 Z M184.900391,34.5117188 L184.900391,53.3203125 C184.900391,58.3359626 183.570326,62.3085791 180.910156,65.2382812 C178.249987,68.1679834 174.681663,69.6328125 170.205078,69.6328125 C165.751931,69.6328125 162.201185,68.1679834 159.552734,65.2382812 C156.904284,62.3085791 155.580078,58.3359626 155.580078,53.3203125 L155.580078,34.5117188 L161.732422,34.5117188 L161.732422,54.4453125 C161.732422,57.1640761 162.535148,59.3788977 164.140625,61.0898438 C165.746102,62.8007898 167.791003,63.65625 170.275391,63.65625 C172.783216,63.65625 174.828117,62.8007898 176.410156,61.0898438 C177.992195,59.3788977 178.783203,57.1640761 178.783203,54.4453125 L178.783203,34.5117188 L184.900391,34.5117188 Z M192.986328,69 L192.986328,34.5117188 L199.173828,34.5117188 L199.173828,69 L192.986328,69 Z M192.318359,24.703125 C192.318359,23.6718698 192.681637,22.7929724 193.408203,22.0664062 C194.134769,21.3398401 195.025385,20.9765625 196.080078,20.9765625 C197.134771,20.9765625 198.019528,21.3339808 198.734375,22.0488281 C199.449222,22.7636754 199.806641,23.6484322 199.806641,24.703125 C199.806641,25.7812554 199.449222,26.6894494 198.734375,27.4277344 C198.019528,28.1660193 197.134771,28.5351562 196.080078,28.5351562 C195.048823,28.5351562 194.164066,28.16016 193.425781,27.4101562 C192.687496,26.6601525 192.318359,25.7578178 192.318359,24.703125 Z M207.154297,69 L207.154297,50.1914062 C207.154297,45.1757562 208.490221,41.2031396 211.162109,38.2734375 C213.833998,35.3437354 217.396462,33.8789062 221.849609,33.8789062 C226.302757,33.8789062 229.853502,35.3437354 232.501953,38.2734375 C235.150404,41.2031396 236.474609,45.1757562 236.474609,50.1914062 L236.474609,69 L230.357422,69 L230.357422,49.0664062 C230.357422,46.3476427 229.566414,44.1328211 227.984375,42.421875 C226.402336,40.7109289 224.357434,39.8554688 221.849609,39.8554688 C219.365222,39.8554688 217.320321,40.7109289 215.714844,42.421875 C214.109367,44.1328211 213.306641,46.3476427 213.306641,49.0664062 L213.306641,69 L207.154297,69 Z M248.884766,51.6328125 C248.884766,54.9843918 249.957021,57.8261602 252.101563,60.1582031 C254.246104,62.490246 256.841782,63.65625 259.888672,63.65625 C262.935562,63.65625 265.531239,62.490246 267.675781,60.1582031 C269.820323,57.8261602 270.892578,54.9843918 270.892578,51.6328125 C270.892578,48.3046709 269.826183,45.4804804 267.693359,43.1601562 C265.560536,40.8398321 262.959,39.6796875 259.888672,39.6796875 C256.841782,39.6796875 254.246104,40.8398321 252.101563,43.1601562 C249.957021,45.4804804 248.884766,48.3046709 248.884766,51.6328125 Z M242.451172,51.703125 C242.451172,49.312488 242.89648,47.0390733 243.787109,44.8828125 C244.677739,42.7265517 245.966788,40.7812587 247.654297,39.046875 C249.318368,37.3593666 251.18749,36.0761763 253.261719,35.1972656 C255.335948,34.318355 257.54491,33.8789062 259.888672,33.8789062 C262.232434,33.8789062 264.458974,34.318355 266.568359,35.1972656 C268.677745,36.0761763 270.552726,37.3593666 272.193359,39.046875 C273.85743,40.7343834 275.128902,42.6679579 276.007812,44.8476562 C276.886723,47.0273546 277.326172,49.312488 277.326172,51.703125 C277.326172,54.1406372 276.886723,56.4550672 276.007812,58.6464844 C275.128902,60.8379016 273.85743,62.7773353 272.193359,64.4648438 C270.552726,66.1523522 268.677745,67.4355425 266.568359,68.3144531 C264.458974,69.1933638 262.232434,69.6328125 259.888672,69.6328125 C257.54491,69.6328125 255.335948,69.1933638 253.261719,68.3144531 C251.18749,67.4355425 249.318368,66.1523522 247.654297,64.4648438 C245.966788,62.7538977 244.677739,60.8086046 243.787109,58.6289062 C242.89648,56.4492079 242.451172,54.1406372 242.451172,51.703125 Z M285.095703,65.4140625 C285.095703,64.2421816 285.494137,63.2519572 286.291016,62.4433594 C287.087895,61.6347616 288.083978,61.2304688 289.279297,61.2304688 C290.451178,61.2304688 291.435543,61.6347616 292.232422,62.4433594 C293.029301,63.2519572 293.427734,64.2421816 293.427734,65.4140625 C293.427734,66.5390681 293.023442,67.499996 292.214844,68.296875 C291.406246,69.093754 290.42774,69.4921875 289.279297,69.4921875 C288.107416,69.4921875 287.117192,69.093754 286.308594,68.296875 C285.499996,67.499996 285.095703,66.5390681 285.095703,65.4140625 Z M303.166016,69 L303.166016,36.1640625 C303.166016,30.257783 304.630845,25.8632957 307.560547,22.9804688 C310.490249,20.0976418 314.955048,18.65625 320.955078,18.65625 L328.126953,18.65625 L328.126953,24.8789062 L319.794922,24.8789062 C316.583968,24.8789062 314.111337,25.763663 312.376953,27.5332031 C310.642569,29.3027432 309.775391,31.8398272 309.775391,35.1445312 L309.775391,40.7695312 L328.126953,40.7695312 L328.126953,46.9570312 L309.775391,46.9570312 L309.775391,69 L303.166016,69 Z M339.974609,51.6328125 C339.974609,54.9843918 341.046864,57.8261602 343.191406,60.1582031 C345.335948,62.490246 347.931625,63.65625 350.978516,63.65625 C354.025406,63.65625 356.621083,62.490246 358.765625,60.1582031 C360.910167,57.8261602 361.982422,54.9843918 361.982422,51.6328125 C361.982422,48.3046709 360.916026,45.4804804 358.783203,43.1601562 C356.65038,40.8398321 354.048843,39.6796875 350.978516,39.6796875 C347.931625,39.6796875 345.335948,40.8398321 343.191406,43.1601562 C341.046864,45.4804804 339.974609,48.3046709 339.974609,51.6328125 Z M333.541016,51.703125 C333.541016,49.312488 333.986324,47.0390733 334.876953,44.8828125 C335.767583,42.7265517 337.056632,40.7812587 338.744141,39.046875 C340.408211,37.3593666 342.277333,36.0761763 344.351563,35.1972656 C346.425792,34.318355 348.634754,33.8789062 350.978516,33.8789062 C353.322277,33.8789062 355.548818,34.318355 357.658203,35.1972656 C359.767589,36.0761763 361.64257,37.3593666 363.283203,39.046875 C364.947274,40.7343834 366.218746,42.6679579 367.097656,44.8476562 C367.976567,47.0273546 368.416016,49.312488 368.416016,51.703125 C368.416016,54.1406372 367.976567,56.4550672 367.097656,58.6464844 C366.218746,60.8379016 364.947274,62.7773353 363.283203,64.4648438 C361.64257,66.1523522 359.767589,67.4355425 357.658203,68.3144531 C355.548818,69.1933638 353.322277,69.6328125 350.978516,69.6328125 C348.634754,69.6328125 346.425792,69.1933638 344.351563,68.3144531 C342.277333,67.4355425 340.408211,66.1523522 338.744141,64.4648438 C337.056632,62.7538977 335.767583,60.8086046 334.876953,58.6289062 C333.986324,56.4492079 333.541016,54.1406372 333.541016,51.703125 Z M403.607422,34.5117188 L403.607422,53.3203125 C403.607422,58.3359626 402.277357,62.3085791 399.617188,65.2382812 C396.957018,68.1679834 393.388694,69.6328125 388.912109,69.6328125 C384.458962,69.6328125 380.908216,68.1679834 378.259766,65.2382812 C375.611315,62.3085791 374.287109,58.3359626 374.287109,53.3203125 L374.287109,34.5117188 L380.439453,34.5117188 L380.439453,54.4453125 C380.439453,57.1640761 381.242179,59.3788977 382.847656,61.0898438 C384.453133,62.8007898 386.498034,63.65625 388.982422,63.65625 C391.490247,63.65625 393.535148,62.8007898 395.117188,61.0898438 C396.699227,59.3788977 397.490234,57.1640761 397.490234,54.4453125 L397.490234,34.5117188 L403.607422,34.5117188 Z M411.166016,69 L411.166016,50.1914062 C411.166016,45.1757562 412.50194,41.2031396 415.173828,38.2734375 C417.845716,35.3437354 421.408181,33.8789062 425.861328,33.8789062 C430.314475,33.8789062 433.865221,35.3437354 436.513672,38.2734375 C439.162123,41.2031396 440.486328,45.1757562 440.486328,50.1914062 L440.486328,69 L434.369141,69 L434.369141,49.0664062 C434.369141,46.3476427 433.578133,44.1328211 431.996094,42.421875 C430.414055,40.7109289 428.369153,39.8554688 425.861328,39.8554688 C423.376941,39.8554688 421.332039,40.7109289 419.726563,42.421875 C418.121086,44.1328211 417.318359,46.3476427 417.318359,49.0664062 L417.318359,69 L411.166016,69 Z M481.267578,18.65625 L481.267578,48.9960938 C481.267578,52.0898592 481.121095,54.4101485 480.828125,55.9570312 C480.535155,57.503914 480.048832,58.9218686 479.369141,60.2109375 C477.916008,63.1640773 475.818373,65.4726479 473.076172,67.1367188 C470.333971,68.8007896 467.298845,69.6328125 463.970703,69.6328125 C458.955053,69.6328125 454.812516,67.9394701 451.542969,64.5527344 C448.273421,61.1659987 446.638672,56.8828384 446.638672,51.703125 C446.638672,49.3828009 447.037105,47.1679793 447.833984,45.0585938 C448.630863,42.9492082 449.791008,41.0625083 451.314453,39.3984375 C452.861336,37.6640538 454.71288,36.3222704 456.869141,35.3730469 C459.025401,34.4238234 461.275379,33.9492188 463.619141,33.9492188 C465.330087,33.9492188 466.964836,34.1425762 468.523438,34.5292969 C470.082039,34.9160176 471.564446,35.5078085 472.970703,36.3046875 L472.970703,42.9492188 C471.541008,41.8710884 470.117195,41.0742213 468.699219,40.5585938 C467.281243,40.0429662 465.822273,39.7851562 464.322266,39.7851562 C461.017562,39.7851562 458.298839,40.9218636 456.166016,43.1953125 C454.033192,45.4687614 452.966797,48.3867009 452.966797,51.9492188 C452.966797,55.4414237 454.003896,58.2949108 456.078125,60.5097656 C458.152354,62.7246204 460.806624,63.8320312 464.041016,63.8320312 C467.298844,63.8320312 469.947255,62.7129018 471.986328,60.4746094 C474.025401,58.2363169 475.044922,55.312518 475.044922,51.703125 L475.044922,18.65625 L481.267578,18.65625 Z M515.369141,69 L515.369141,51.8085938 C515.369141,48.1992007 514.34962,45.2754018 512.310547,43.0371094 C510.271474,40.7988169 507.623063,39.6796875 504.365234,39.6796875 C501.130843,39.6796875 498.476573,40.7870983 496.402344,43.0019531 C494.328115,45.2168079 493.291016,48.070295 493.291016,51.5625 C493.291016,55.1250178 494.357411,58.0429574 496.490234,60.3164062 C498.623058,62.5898551 501.34178,63.7265625 504.646484,63.7265625 C506.146492,63.7265625 507.605462,63.4687526 509.023438,62.953125 C510.441413,62.4374974 511.865227,61.6406304 513.294922,60.5625 L513.294922,67.2070312 C511.888665,68.0039102 510.406258,68.5957012 508.847656,68.9824219 C507.289055,69.3691426 505.654305,69.5625 503.943359,69.5625 C502.302726,69.5625 500.673836,69.3105494 499.056641,68.8066406 C497.439445,68.3027319 495.974616,67.5937546 494.662109,66.6796875 C492.177722,64.9687414 490.279303,62.830091 488.966797,60.2636719 C487.65429,57.6972528 486.998047,54.8437657 486.998047,51.703125 C486.998047,46.5468492 488.626937,42.2871262 491.884766,38.9238281 C495.142594,35.5605301 499.279272,33.8789062 504.294922,33.8789062 C507.599626,33.8789062 510.623033,34.7109292 513.365234,36.375 C516.107436,38.0390708 518.216789,40.3242042 519.693359,43.2304688 C520.37305,44.5429753 520.859374,45.9785078 521.152344,47.5371094 C521.445314,49.0957109 521.591797,51.4218595 521.591797,54.515625 L521.591797,69 L515.369141,69 Z M529.080078,25.3710938 L535.267578,25.3710938 L535.267578,34.5117188 L545.708984,34.5117188 L545.708984,40.3476562 L535.267578,40.3476562 L535.267578,55.1132812 C535.267578,57.8789201 535.9414,59.9003842 537.289062,61.1777344 C538.636725,62.4550845 540.787095,63.09375 543.740234,63.09375 L545.708984,63.09375 L545.708984,69 L543.669922,69 C538.794898,69 535.144543,67.9336044 532.71875,65.8007812 C530.292957,63.6679581 529.080078,60.4570527 529.080078,56.1679688 L529.080078,25.3710938 Z M552.177734,69 L552.177734,34.5117188 L558.365234,34.5117188 L558.365234,69 L552.177734,69 Z M551.509766,24.703125 C551.509766,23.6718698 551.873043,22.7929724 552.599609,22.0664062 C553.326176,21.3398401 554.216792,20.9765625 555.271484,20.9765625 C556.326177,20.9765625 557.210934,21.3339808 557.925781,22.0488281 C558.640629,22.7636754 558.998047,23.6484322 558.998047,24.703125 C558.998047,25.7812554 558.640629,26.6894494 557.925781,27.4277344 C557.210934,28.1660193 556.326177,28.5351562 555.271484,28.5351562 C554.240229,28.5351562 553.355472,28.16016 552.617188,27.4101562 C551.878903,26.6601525 551.509766,25.7578178 551.509766,24.703125 Z M571.197266,51.6328125 C571.197266,54.9843918 572.269521,57.8261602 574.414062,60.1582031 C576.558604,62.490246 579.154282,63.65625 582.201172,63.65625 C585.248062,63.65625 587.843739,62.490246 589.988281,60.1582031 C592.132823,57.8261602 593.205078,54.9843918 593.205078,51.6328125 C593.205078,48.3046709 592.138683,45.4804804 590.005859,43.1601562 C587.873036,40.8398321 585.2715,39.6796875 582.201172,39.6796875 C579.154282,39.6796875 576.558604,40.8398321 574.414062,43.1601562 C572.269521,45.4804804 571.197266,48.3046709 571.197266,51.6328125 Z M564.763672,51.703125 C564.763672,49.312488 565.20898,47.0390733 566.099609,44.8828125 C566.990239,42.7265517 568.279288,40.7812587 569.966797,39.046875 C571.630868,37.3593666 573.49999,36.0761763 575.574219,35.1972656 C577.648448,34.318355 579.85741,33.8789062 582.201172,33.8789062 C584.544934,33.8789062 586.771474,34.318355 588.880859,35.1972656 C590.990245,36.0761763 592.865226,37.3593666 594.505859,39.046875 C596.16993,40.7343834 597.441402,42.6679579 598.320312,44.8476562 C599.199223,47.0273546 599.638672,49.312488 599.638672,51.703125 C599.638672,54.1406372 599.199223,56.4550672 598.320312,58.6464844 C597.441402,60.8379016 596.16993,62.7773353 594.505859,64.4648438 C592.865226,66.1523522 590.990245,67.4355425 588.880859,68.3144531 C586.771474,69.1933638 584.544934,69.6328125 582.201172,69.6328125 C579.85741,69.6328125 577.648448,69.1933638 575.574219,68.3144531 C573.49999,67.4355425 571.630868,66.1523522 569.966797,64.4648438 C568.279288,62.7538977 566.990239,60.8086046 566.099609,58.6289062 C565.20898,56.4492079 564.763672,54.1406372 564.763672,51.703125 Z M605.509766,69 L605.509766,50.1914062 C605.509766,45.1757562 606.84569,41.2031396 609.517578,38.2734375 C612.189466,35.3437354 615.751931,33.8789062 620.205078,33.8789062 C624.658225,33.8789062 628.208971,35.3437354 630.857422,38.2734375 C633.505873,41.2031396 634.830078,45.1757562 634.830078,50.1914062 L634.830078,69 L628.712891,69 L628.712891,49.0664062 C628.712891,46.3476427 627.921883,44.1328211 626.339844,42.421875 C624.757805,40.7109289 622.712903,39.8554688 620.205078,39.8554688 C617.720691,39.8554688 615.675789,40.7109289 614.070312,42.421875 C612.464836,44.1328211 611.662109,46.3476427 611.662109,49.0664062 L611.662109,69 L605.509766,69 Z" id="Netduino.Foundation-Copy" fill="#EEEEEE"></path>
                            <path d="M12.0234375,67.7773438 C12.1747857,70.8518845 12.9278277,73.2633001 14.2825634,75.0115903 C15.6372992,76.7598806 17.8673301,77.6974234 20.9726562,77.8242188 L640.933884,77.8242188" id="Path-2" stroke="#EEEEEE" stroke-width="6.5"></path>
                            <path d="M41.8546134,18.8571739 C41.7625615,16.3720296 40.7444701,14.0153819 38.8003391,11.7872308 C36.8562082,9.5590797 34.344099,8.34642249 31.2640116,8.14925918 L11.9837052,8.14925918 C8.87367398,8.51633299 6.10432989,9.99935369 3.6756729,12.5983213 C1.24701591,15.1972889 0.0971592259,17.2416379 0.226102857,18.7313684 L0.226102857,70.2194775 C0.306536537,77.5116897 1.33242225,82.5907808 3.30375998,85.4567508 C5.27509772,88.3227207 8.16841279,90.2747747 11.9837052,91.312913 L567.979303,90.0800195 C573.237222,90.3369258 576.673573,91.3173037 578.288355,93.0211533 C579.903136,94.725003 580.574874,96.6912128 580.303568,98.9197829" id="Path-3" stroke="#EEEEEE" stroke-width="6.5"></path>
                            <circle id="Oval" stroke="#EEEEEE" stroke-width="6.5" cx="652" cy="78" r="11"></circle>
                            <circle id="Oval-Copy" stroke="#EEEEEE" stroke-width="6.5" cx="580" cy="113" r="11"></circle>
                        </g>
                    </g>
                </g>
            </g>
        </g>
    </g>
</svg>