<?xml version="1.0"?>
<!DOCTYPE svg PUBLIC "-//W3C//DTD SVG 1.1//EN" "http://www.w3.org/Graphics/SVG/1.1/DTD/svg11.dtd">
<svg viewBox="278 276 340 197" preserveAspectRatio="xMinYMin meet" version="1.1" xmlns="http://www.w3.org/2000/svg">
<g class="Resistor">
<line x1="416" y1="320" x2="432" y2="320" stroke="#5F9F5F" stroke-width="3" stroke-linecap="round" fill="none" />
<line x1="464" y1="320" x2="480" y2="320" stroke="#37C737" stroke-width="3" stroke-linecap="round" fill="none" />
<polyline stroke="#5F9F5F" stroke-linecap="round" stroke-linejoin="round" stroke-width="3" fill="none" points="432,320 434.6667,312 437.3333,320 440,328 442.6667,320 " />
<polyline stroke="#4FAF4F" stroke-linecap="round" stroke-linejoin="round" stroke-width="3" fill="none" points="442.6667,320 445.3333,312 448,320 450.6667,328 453.3333,320 " />
<polyline stroke="#3FBF3F" stroke-linecap="round" stroke-linejoin="round" stroke-width="3" fill="none" points="453.3333,320 456,312 458.6667,320 461.3333,328 464,320 " />
<text x="423" y="305" font-family="sans-serif">33.33</text>
</g>
<g class="DC Source">
<line x1="416" y1="416" x2="444" y2="416" stroke="#877777" stroke-width="3" stroke-linecap="round" fill="none" />
<line x1="452" y1="416" x2="480" y2="416" stroke="#07F707" stroke-width="3" stroke-linecap="round" fill="none" />
<line x1="444" y1="406" x2="444" y2="426" stroke="#877777" stroke-width="3" stroke-linecap="round" fill="none" />
<line x1="452" y1="400" x2="452" y2="432" stroke="#07F707" stroke-width="3" stroke-linecap="round" fill="none" />
<text x="438" y="386" font-family="sans-serif">5V</text>
</g>
<g class="Resistor">
<line x1="480" y1="320" x2="496" y2="320" stroke="#37C737" stroke-width="3" stroke-linecap="round" fill="none" />
<line x1="528" y1="320" x2="544" y2="320" stroke="#07F707" stroke-width="3" stroke-linecap="round" fill="none" />
<polyline stroke="#37C737" stroke-linecap="round" stroke-linejoin="round" stroke-width="3" fill="none" points="496,320 498.6667,312 501.3333,320 504,328 506.6667,320 " />
<polyline stroke="#27D727" stroke-linecap="round" stroke-linejoin="round" stroke-width="3" fill="none" points="506.6667,320 509.3333,312 512,320 514.6667,328 517.3333,320 " />
<polyline stroke="#17E717" stroke-linecap="round" stroke-linejoin="round" stroke-width="3" fill="none" points="517.3333,320 520,312 522.6667,320 525.3333,328 528,320 " />
<text x="487" y="305" font-family="sans-serif">33.33</text>
</g>
<g class="Resistor">
<line x1="352" y1="320" x2="368" y2="320" stroke="#877777" stroke-width="3" stroke-linecap="round" fill="none" />
<line x1="400" y1="320" x2="416" y2="320" stroke="#5F9F5F" stroke-width="3" stroke-linecap="round" fill="none" />
<polyline stroke="#877777" stroke-linecap="round" stroke-linejoin="round" stroke-width="3" fill="none" points="368,320 370.6667,312 373.3333,320 376,328 378.6667,320 " />
<polyline stroke="#778777" stroke-linecap="round" stroke-linejoin="round" stroke-width="3" fill="none" points="378.6667,320 381.3333,312 384,320 386.6667,328 389.3333,320 " />
<polyline stroke="#6F8F6F" stroke-linecap="round" stroke-linejoin="round" stroke-width="3" fill="none" points="389.3333,320 392,312 394.6667,320 397.3333,328 400,320 " />
<text x="359" y="305" font-family="sans-serif">33.33</text>
</g>
<g class="Wire">
<line x1="352" y1="320" x2="320" y2="320" stroke="#877777" stroke-width="1.5" stroke-linecap="round" fill="none" />
</g>
<g class="Wire">
<line x1="320" y1="320" x2="320" y2="416" stroke="#877777" stroke-width="1.5" stroke-linecap="round" fill="none" />
<text x="335" y="373" font-family="sans-serif">50mA</text>
<polygon fill="#000000" stroke="none" points="308,388 302,402 296,388 " />
<line x1="302" y1="334" x2="302" y2="388" stroke="#000000" stroke-width="2" stroke-linecap="round" fill="none" />
</g>
<g class="Wire">
<line x1="320" y1="416" x2="416" y2="416" stroke="#877777" stroke-width="1.5" stroke-linecap="round" fill="none" />
</g>
<g class="Wire">
<line x1="544" y1="320" x2="576" y2="320" stroke="#07F707" stroke-width="1.5" stroke-linecap="round" fill="none" />
</g>
<g class="Wire">
<line x1="576" y1="320" x2="576" y2="416" stroke="#07F707" stroke-width="1.5" stroke-linecap="round" fill="none" />
</g>
<g class="Wire">
<line x1="576" y1="416" x2="480" y2="416" stroke="#07F707" stroke-width="1.5" stroke-linecap="round" fill="none" />
</g>
</svg>
