<?xml version="1.0" encoding="UTF-8"?>
<svg width="765px" height="511px" viewBox="0 0 765 511" version="1.1" xmlns="http://www.w3.org/2000/svg" xmlns:xlink="http://www.w3.org/1999/xlink">
    <!-- Generator: Sketch 45.2 (43514) - http://www.bohemiancoding.com/sketch -->
    <title>Resistance_Calc_Circuit</title>
    <desc>Created with Sketch.</desc>
    <defs></defs>
    <g id="Page-1" stroke="none" stroke-width="1" fill="none" fill-rule="evenodd">
        <g id="Letter" transform="translate(-677.000000, -583.000000)">
            <g id="Resistance_Calc_Circuit" transform="translate(676.000000, 578.000000)">
                <g id="Multicell_Battery" transform="translate(184.000000, 264.000000) rotate(90.000000) translate(-184.000000, -264.000000) translate(114.000000, 238.000000)" stroke="#524740" stroke-width="3">
                    <path d="M0,26 L52,26" id="Path-2"></path>
                    <path d="M88,26 L140,26" id="Path-2-Copy"></path>
                    <path d="M52,14 L52,38" id="Path-3"></path>
                    <path d="M64,1.42108547e-14 L64,52" id="Path-4"></path>
                    <path d="M76,14 L76,38" id="Path-3-Copy"></path>
                    <path d="M88,1.42108547e-14 L88,52" id="Path-4-Copy"></path>
                </g>
                <path d="M649.005858,109.757813 L742,109.757813 C742,205.779948 742,272.369792 742,309.527344 C742,346.684896 742,383.842448 742,421 L661,421" id="Path-2" stroke="#524740" stroke-width="3"></path>
                <polyline id="Path-3" stroke="#524740" stroke-width="3" points="184 334.5 184 421 530.359375 421"></polyline>
                <text id="Voltmeter" font-family="Lato-Regular, Lato" font-size="18" font-weight="normal" letter-spacing="0.695049465" fill="#555555">
                    <tspan x="415.145777" y="271">Voltmeter</tspan>
                </text>
                <text id="+" font-family="Lato-Regular, Lato" font-size="18" font-weight="normal" letter-spacing="0.695049465" fill="#555555">
                    <tspan x="195.932475" y="301">+</tspan>
                </text>
                <text id="-" font-family="Lato-Regular, Lato" font-size="18" font-weight="normal" letter-spacing="0.695049465" fill="#555555">
                    <tspan x="197.808975" y="241">-</tspan>
                </text>
                <text id="Variable-Resistance" font-family="Lato-Regular, Lato" font-size="18" font-weight="normal" letter-spacing="0.695049465" fill="#555555">
                    <tspan x="515.12153" y="491">Variable Resistance</tspan>
                    <tspan x="530.908154" y="513">(Potentiometer)</tspan>
                </text>
                <text id="Ammeter" font-family="Lato-Regular, Lato" font-size="18" font-weight="normal" letter-spacing="0.695049465" fill="#555555">
                    <tspan x="541.234827" y="18">Ammeter</tspan>
                </text>
                <text id="Battery-(Source-Volt" font-family="Lato-Regular, Lato" font-size="18" font-weight="normal" letter-spacing="0.695049465" fill="#555555">
                    <tspan x="38.4618516" y="260">Battery</tspan>
                    <tspan x="0.620104282" y="282">(Source Voltage)</tspan>
                </text>
                <path d="M760.15895,301.203227 L760.15895,246.300638" id="Line-11-Copy-3" stroke="#B09679" stroke-width="3"></path>
                <path id="Line-11-Copy-3-decoration-1" d="M760.15895,246.300638 L757.15895,257.100638 L763.15895,257.100638 L760.15895,246.300638 Z" stroke="#B09679" stroke-width="3"></path>
                <path d="M168.495235,336.300638 L168.495235,391.203227" id="Line-11-Copy-4" stroke="#B09679" stroke-width="3"></path>
                <path id="Line-11-Copy-4-decoration-1" d="M168.495235,391.203227 L171.495235,380.403227 L165.495235,380.403227 L168.495235,391.203227 Z" stroke="#B09679" stroke-width="3"></path>
                <g id="Voltmeter" transform="translate(263.000000, 197.000000)">
                    <circle id="Oval" stroke="#524740" stroke-width="3" cx="68.716774" cy="68.9677754" r="68.5225525"></circle>
                    <g id="V" transform="translate(56.000000, 47.000000)" font-size="36" font-family="Lato-Regular, Lato" fill="#524740" font-weight="normal">
                        <text>
                            <tspan x="0.914" y="36">V</tspan>
                        </text>
                    </g>
                </g>
                <g id="Ammeter" transform="translate(511.000000, 42.000000)">
                    <circle id="Oval" stroke="#524740" stroke-width="3" cx="68.716774" cy="68.9677754" r="68.5225525"></circle>
                    <g id="A" transform="translate(56.000000, 47.000000)" font-size="36" font-family="Lato-Regular, Lato" fill="#524740" font-weight="normal">
                        <text>
                            <tspan x="0.914" y="36">A</tspan>
                        </text>
                    </g>
                </g>
                <g id="Potentiometer" transform="translate(530.000000, 341.000000)">
                    <polyline id="Resistor-Copy" stroke="#524740" stroke-width="3" stroke-linejoin="bevel" points="0 80 10 80 20 54 41 106 60 54 80 106 100 54 120 106 130 80 140 80"></polyline>
                    <g id="Line" transform="translate(95.000000, 0.000000)">
                        <polygon id="Triangle" fill="#524740" fill-rule="nonzero" transform="translate(5.000000, 40.000000) scale(-1, 1) rotate(-180.000000) translate(-5.000000, -40.000000) " points="5 27 10 53 0 53"></polygon>
                        <path d="M5,0 L5,40" id="Path-3" stroke="#524740" stroke-width="3"></path>
                    </g>
                </g>
                <polyline id="Path-4" stroke="#524740" stroke-width="3" points="742.976562 306.445313 630 306.445313 630 341.144531"></polyline>
                <path d="M332.330529,110.214147 L332.330529,196.214147" id="Path-5" stroke="#524740" stroke-width="3"></path>
                <path d="M332.330529,335.214147 L332.330529,421.214147" id="Path-5-Copy" stroke="#524740" stroke-width="3"></path>
                <polyline id="Path-6" stroke="#524740" stroke-width="3" points="184 196.708562 184 109.757812 510 109.757812"></polyline>
            </g>
        </g>
    </g>
</svg>