<?xml version="1.0" encoding="UTF-8"?>
<svg width="603px" height="285px" viewBox="0 0 603 285" version="1.1" xmlns="http://www.w3.org/2000/svg" xmlns:xlink="http://www.w3.org/1999/xlink">
    <!-- Generator: Sketch 45.1 (43504) - http://www.bohemiancoding.com/sketch -->
    <title>Water_Tower_Relative_Voltages</title>
    <desc>Created with Sketch.</desc>
    <defs>
        <path d="M40.7623318,124.098655 L40.7623318,71.5605381 L33.5156951,71.5605381 L33.5156951,127.721973 L33.5156951,131.345291 L91.0358744,131.345291 L91.0358744,124.098655 L40.7623318,124.098655 Z" id="path-1"></path>
        <path d="M40.7623318,124.098655 L40.7623318,71.5605381 L33.5156951,71.5605381 L33.5156951,127.721973 L33.5156951,131.345291 L91.0358744,131.345291 L91.0358744,124.098655 L40.7623318,124.098655 Z" id="path-2"></path>
        <rect id="path-3" x="0" y="5.88789238" width="10.8699552" height="11.32287"></rect>
        <rect id="path-4" x="3.62331839" y="0" width="3.62331839" height="13.1345291"></rect>
        <rect id="path-5" x="0" y="5.88789238" width="10.8699552" height="11.32287"></rect>
        <rect id="path-6" x="3.62331839" y="0" width="3.62331839" height="13.1345291"></rect>
    </defs>
    <g id="Page-1" stroke="none" stroke-width="1" fill="none" fill-rule="evenodd">
        <g id="Letter" transform="translate(-152.000000, -518.000000)">
            <g id="Water_Tower_Relative_Voltages" transform="translate(154.000000, 519.000000)">
                <g id="Water-Tower" transform="translate(423.000000, 139.000000)">
                    <path d="M18.3430493,55.9349776 L26.9484305,129.307175" id="Line-Copy-2" stroke="#555555" stroke-width="6" transform="translate(22.645740, 92.621076) scale(-1, 1) translate(-22.645740, -92.621076) "></path>
                    <path d="M48.235426,55.9349776 L56.8408072,129.307175" id="Line-Copy-3" stroke="#555555" stroke-width="6"></path>
                    <g id="Combined-Shape">
                        <use fill="#23ABE3" fill-rule="evenodd" xlink:href="#path-1"></use>
                        <path stroke="#555555" stroke-width="1" d="M40.2623318,72.0605381 L34.0156951,72.0605381 L34.0156951,130.845291 L90.5358744,130.845291 L90.5358744,124.598655 L40.2623318,124.598655 L40.2623318,72.0605381 Z"></path>
                    </g>
                    <path d="M65.8991031,69.5224215 L74.5044843,142.894619" id="Line" stroke="#555555" stroke-width="6"></path>
                    <path d="M0.226457399,69.5224215 L8.83183857,142.894619" id="Line-Copy" stroke="#555555" stroke-width="6" transform="translate(4.529148, 106.208520) scale(-1, 1) translate(-4.529148, -106.208520) "></path>
                    <path d="M0.905829596,13.9925904 L0.905829596,66.9836218 C9.66218236,71.814713 21.2869955,74.2302585 35.7802691,74.2302585 C50.2735426,74.2302585 63.1061286,71.814713 74.2780269,66.9836218 L74.2780269,13.9925904 C62.0493274,9.79723118 49.8206278,7.69955157 37.5919283,7.69955157 C25.3632287,7.69955157 13.1345291,9.79723118 0.905829596,13.9925904 Z" id="Path-3" stroke="#555555" fill="#D8D8D8"></path>
                    <path d="M0.905829596,25.8161435 L0.905829596,66.6280268 C9.66218236,71.6961813 21.2869955,74.2302585 35.7802691,74.2302585 C50.2735426,74.2302585 63.1061286,71.6961813 74.2780269,66.6280268 L74.2780269,25.8161435 C62.0493274,23.7025411 49.8206278,22.6457399 37.5919283,22.6457399 C25.3632287,22.6457399 13.1345291,23.7025411 0.905829596,25.8161435 Z" id="Path-3-Copy" stroke="#555555" fill="#23ABE3"></path>
                    <path d="M0.905829596,14.0403587 L37.8142682,0 L74.2780269,14.0403587 C67.31948,10.4488859 55.1648938,8.65314952 37.8142682,8.65314952 C20.4636427,8.65314952 8.16082985,10.4488859 0.905829596,14.0403587 Z" id="Path-2" stroke="#555555" fill="#D8D8D8"></path>
                </g>
                <g id="Water-Tower" transform="translate(93.000000, 0.000000)">
                    <path d="M18.3430493,55.9349776 L26.9484305,129.307175" id="Line-Copy-2" stroke="#555555" stroke-width="6" transform="translate(22.645740, 92.621076) scale(-1, 1) translate(-22.645740, -92.621076) "></path>
                    <path d="M48.235426,55.9349776 L56.8408072,129.307175" id="Line-Copy-3" stroke="#555555" stroke-width="6"></path>
                    <g id="Combined-Shape">
                        <use fill="#23ABE3" fill-rule="evenodd" xlink:href="#path-2"></use>
                        <path stroke="#555555" stroke-width="1" d="M40.2623318,72.0605381 L34.0156951,72.0605381 L34.0156951,130.845291 L90.5358744,130.845291 L90.5358744,124.598655 L40.2623318,124.598655 L40.2623318,72.0605381 Z"></path>
                    </g>
                    <path d="M65.8991031,69.5224215 L74.5044843,142.894619" id="Line" stroke="#555555" stroke-width="6"></path>
                    <path d="M0.226457399,69.5224215 L8.83183857,142.894619" id="Line-Copy" stroke="#555555" stroke-width="6" transform="translate(4.529148, 106.208520) scale(-1, 1) translate(-4.529148, -106.208520) "></path>
                    <path d="M0.905829596,13.9925904 L0.905829596,66.9836218 C9.66218236,71.814713 21.2869955,74.2302585 35.7802691,74.2302585 C50.2735426,74.2302585 63.1061286,71.814713 74.2780269,66.9836218 L74.2780269,13.9925904 C62.0493274,9.79723118 49.8206278,7.69955157 37.5919283,7.69955157 C25.3632287,7.69955157 13.1345291,9.79723118 0.905829596,13.9925904 Z" id="Path-3" stroke="#555555" fill="#D8D8D8"></path>
                    <path d="M0.905829596,25.8161435 L0.905829596,66.6280268 C9.66218236,71.6961813 21.2869955,74.2302585 35.7802691,74.2302585 C50.2735426,74.2302585 63.1061286,71.6961813 74.2780269,66.6280268 L74.2780269,25.8161435 C62.0493274,23.7025411 49.8206278,22.6457399 37.5919283,22.6457399 C25.3632287,22.6457399 13.1345291,23.7025411 0.905829596,25.8161435 Z" id="Path-3-Copy" stroke="#555555" fill="#23ABE3"></path>
                    <path d="M0.905829596,14.0403587 L37.8142682,0 L74.2780269,14.0403587 C67.31948,10.4488859 55.1648938,8.65314952 37.8142682,8.65314952 C20.4636427,8.65314952 8.16082985,10.4488859 0.905829596,14.0403587 Z" id="Path-2" stroke="#555555" fill="#D8D8D8"></path>
                </g>
                <g id="Valve" transform="translate(183.130045, 115.946188)">
                    <g id="Rectangle-2">
                        <use fill="#D8D8D8" fill-rule="evenodd" xlink:href="#path-3"></use>
                        <rect stroke="#555555" stroke-width="1" x="0.5" y="6.38789238" width="9.86995516" height="10.32287"></rect>
                    </g>
                    <g id="Rectangle-3">
                        <use fill="#B09679" fill-rule="evenodd" xlink:href="#path-4"></use>
                        <rect stroke="#555555" stroke-width="1" x="4.12331839" y="0.5" width="2.62331839" height="12.1345291"></rect>
                    </g>
                </g>
                <g id="Valve" transform="translate(513.130045, 254.946188)">
                    <g id="Rectangle-2">
                        <use fill="#D8D8D8" fill-rule="evenodd" xlink:href="#path-5"></use>
                        <rect stroke="#555555" stroke-width="1" x="0.5" y="6.38789238" width="9.86995516" height="10.32287"></rect>
                    </g>
                    <g id="Rectangle-3">
                        <use fill="#B09679" fill-rule="evenodd" xlink:href="#path-6"></use>
                        <rect stroke="#555555" stroke-width="1" x="4.12331839" y="0.5" width="2.62331839" height="12.1345291"></rect>
                    </g>
                </g>
                <path d="M0.430812773,2.86153089 C1.10463805,15.6642112 15.9287942,41.6064845 44.9032813,80.6883507 C88.3650118,139.31115 72.1932051,128.193033 94.4294393,140.321888 C116.665674,152.450743 175.288473,140.321888 203.589135,146.386316 C222.456243,150.429267 268.613274,182.099055 342.06023,241.39568 C372.382367,266.327215 405.736719,279.803721 442.123284,281.825197 C496.703132,284.857411 556.336669,273.739293 574.529951,281.825197" id="Path-5" stroke="#B09679" stroke-width="3"></path>
                <g id="Labels" transform="translate(201.000000, 24.000000)">
                    <g id="x-Volts">
                        <path d="M69.5,1 L0.5,1" id="Line-2" stroke="#B09679" stroke-width="2" stroke-linecap="square"></path>
                        <path d="M69.5,104 L0.5,104" id="Line-2-Copy" stroke="#B09679" stroke-width="2" stroke-linecap="square"></path>
                        <path d="M33,1.5 L33,30.5" id="Line-3" stroke="#B09679" stroke-width="2" stroke-linecap="square"></path>
                        <path d="M33,74.5 L33,103.5" id="Line-3-Copy" stroke="#B09679" stroke-width="2" stroke-linecap="square"></path>
                        <text font-family="Lato-Regular, Lato" font-size="18" font-weight="normal" letter-spacing="0.695049524" fill="#555555">
                            <tspan x="6.83682666" y="61">x Volts</tspan>
                        </text>
                    </g>
                    <g id="x-Volts-Copy" transform="translate(329.000000, 138.000000)">
                        <path d="M69.5,1 L0.5,1" id="Line-2" stroke="#B09679" stroke-width="2" stroke-linecap="square"></path>
                        <path d="M69.5,104 L0.5,104" id="Line-2-Copy" stroke="#B09679" stroke-width="2" stroke-linecap="square"></path>
                        <path d="M33,1.5 L33,30.5" id="Line-3" stroke="#B09679" stroke-width="2" stroke-linecap="square"></path>
                        <path d="M33,74.5 L33,103.5" id="Line-3-Copy" stroke="#B09679" stroke-width="2" stroke-linecap="square"></path>
                        <text id="x-Volts" font-family="Lato-Regular, Lato" font-size="18" font-weight="normal" letter-spacing="0.695049524" fill="#555555">
                            <tspan x="6.83682666" y="61">x Volts</tspan>
                        </text>
                    </g>
                </g>
            </g>
        </g>
    </g>
</svg>