<?xml version="1.0" encoding="UTF-8"?>
<svg width="318px" height="318px" viewBox="0 0 318 318" version="1.1" xmlns="http://www.w3.org/2000/svg" xmlns:xlink="http://www.w3.org/1999/xlink">
    <!-- Generator: Sketch 45.1 (43504) - http://www.bohemiancoding.com/sketch -->
    <title>Water_Tower_Battery</title>
    <desc>Created with Sketch.</desc>
    <defs>
        <path d="M184,274 L184,158 L168,158 L168,282 L168,290 L295,290 L295,274 L184,274 Z" id="path-1"></path>
        <rect id="path-2" x="293" y="269" width="24" height="25"></rect>
        <rect id="path-3" x="301" y="255" width="8" height="29"></rect>
    </defs>
    <g id="Page-1" stroke="none" stroke-width="1" fill="none" fill-rule="evenodd">
        <g id="Letter" transform="translate(-177.000000, -65.000000)">
            <g id="Water_Tower_Battery" transform="translate(178.000000, 67.000000)">
                <text id="Water" font-family="Lato-Regular, Lato" font-size="18" font-weight="normal" letter-spacing="0.695049524" fill="#555555">
                    <tspan x="10.3048762" y="86">Water</tspan>
                </text>
                <text id="Drop" font-family="Lato-Regular, Lato" font-size="18" font-weight="normal" letter-spacing="0.695049524" fill="#555555">
                    <tspan x="14.120901" y="223">Drop</tspan>
                </text>
                <path d="M134.5,123.5 L153.5,285.5" id="Line-Copy-2" stroke="#555555" stroke-width="6" transform="translate(144.000000, 204.500000) scale(-1, 1) translate(-144.000000, -204.500000) "></path>
                <path d="M200.5,123.5 L219.5,285.5" id="Line-Copy-3" stroke="#555555" stroke-width="6"></path>
                <g id="Combined-Shape">
                    <use fill="#23ABE3" fill-rule="evenodd" xlink:href="#path-1"></use>
                    <path stroke="#555555" stroke-width="2" d="M183,159 L169,159 L169,289 L294,289 L294,275 L183,275 L183,159 Z"></path>
                </g>
                <path d="M239.5,153.5 L258.5,315.5" id="Line" stroke="#555555" stroke-width="6"></path>
                <path d="M94.5,153.5 L113.5,315.5" id="Line-Copy" stroke="#555555" stroke-width="6" transform="translate(104.000000, 234.500000) scale(-1, 1) translate(-104.000000, -234.500000) "></path>
                <path d="M96,30.8945312 L96,147.894531 C115.333333,158.561198 141,163.894531 173,163.894531 C205,163.894531 233.333333,158.561198 258,147.894531 L258,30.8945312 C231,21.6315104 204,17 177,17 C150,17 123,21.6315104 96,30.8945312 Z" id="Path-3" stroke="#555555" stroke-width="2" fill="#D8D8D8"></path>
                <path d="M96,57 L96,147.109406 C115.333333,158.299489 141,163.894531 173,163.894531 C205,163.894531 233.333333,158.299489 258,147.109406 L258,57 C231,52.3333333 204,50 177,50 C150,50 123,52.3333333 96,57 Z" id="Path-3-Copy" stroke="#555555" fill="#23ABE3"></path>
                <path d="M96,31 L177.490909,0 L258,31 C242.63608,23.0703125 215.799716,19.1054688 177.490909,19.1054688 C139.182102,19.1054688 112.018466,23.0703125 96,31 Z" id="Path-2" stroke="#555555" stroke-width="2" fill="#D8D8D8"></path>
                <g id="Rectangle-2">
                    <use fill="#D8D8D8" fill-rule="evenodd" xlink:href="#path-2"></use>
                    <rect stroke="#555555" stroke-width="1" x="293.5" y="269.5" width="23" height="24"></rect>
                </g>
                <g id="Rectangle-3">
                    <use fill="#B09679" fill-rule="evenodd" xlink:href="#path-3"></use>
                    <rect stroke="#555555" stroke-width="1" x="301.5" y="255.5" width="7" height="28"></rect>
                </g>
                <path d="M69.5,147 L0.5,147" id="Line-2" stroke="#B09679" stroke-width="2" stroke-linecap="square"></path>
                <path d="M69.5,283 L0.5,283" id="Line-2-Copy" stroke="#B09679" stroke-width="2" stroke-linecap="square"></path>
                <path d="M33,147.5 L33,196.5" id="Line-3" stroke="#B09679" stroke-width="2" stroke-linecap="square"></path>
                <path d="M33,234.5 L33,283.5" id="Line-3-Copy" stroke="#B09679" stroke-width="2" stroke-linecap="square"></path>
                <path d="M73.5,82.5 L121.5,98.5" id="Line-4" stroke="#B09679" stroke-width="2" stroke-linecap="square"></path>
            </g>
        </g>
    </g>
</svg>