<?xml version="1.0" encoding="UTF-8"?>
<svg width="540px" height="364px" viewBox="0 0 540 364" version="1.1" xmlns="http://www.w3.org/2000/svg" xmlns:xlink="http://www.w3.org/1999/xlink">
    <!-- Generator: Sketch 45.1 (43504) - http://www.bohemiancoding.com/sketch -->
    <title>Water_Tower_w_Wheel</title>
    <desc>Created with Sketch.</desc>
    <defs>
        <path d="M90,274 L90,158 L74,158 L74,282 L74,290 L201,290 L201,274 L90,274 Z" id="path-1"></path>
        <rect id="path-2" x="14" y="0" width="24" height="25"></rect>
        <rect id="path-3" x="11" y="-2" width="8" height="29"></rect>
    </defs>
    <g id="Page-1" stroke="none" stroke-width="1" fill="none" fill-rule="evenodd">
        <g id="Letter" transform="translate(-627.000000, -65.000000)">
            <g id="Water_Tower_w_Wheel" transform="translate(628.000000, 67.000000)">
                <g id="Water-Tower" transform="translate(94.000000, 0.000000)">
                    <path d="M40.5,123.5 L59.5,285.5" id="Line-Copy-2" stroke="#555555" stroke-width="6" transform="translate(50.000000, 204.500000) scale(-1, 1) translate(-50.000000, -204.500000) "></path>
                    <path d="M106.5,123.5 L125.5,285.5" id="Line-Copy-3" stroke="#555555" stroke-width="6"></path>
                    <g id="Combined-Shape">
                        <use fill="#23ABE3" fill-rule="evenodd" xlink:href="#path-1"></use>
                        <path stroke="#555555" stroke-width="2" d="M89,159 L75,159 L75,289 L200,289 L200,275 L89,275 L89,159 Z"></path>
                    </g>
                    <path d="M145.5,153.5 L164.5,315.5" id="Line" stroke="#555555" stroke-width="6"></path>
                    <path d="M0.5,153.5 L19.5,315.5" id="Line-Copy" stroke="#555555" stroke-width="6" transform="translate(10.000000, 234.500000) scale(-1, 1) translate(-10.000000, -234.500000) "></path>
                    <path d="M2,30.8945312 L2,147.894531 C21.3333333,158.561198 47,163.894531 79,163.894531 C111,163.894531 139.333333,158.561198 164,147.894531 L164,30.8945312 C137,21.6315104 110,17 83,17 C56,17 29,21.6315104 2,30.8945312 Z" id="Path-3" stroke="#555555" stroke-width="2" fill="#D8D8D8"></path>
                    <path d="M2,57 L2,147.109406 C21.3333333,158.299489 47,163.894531 79,163.894531 C111,163.894531 139.333333,158.299489 164,147.109406 L164,57 C137,52.3333333 110,50 83,50 C56,50 29,52.3333333 2,57 Z" id="Path-3-Copy" stroke="#555555" fill="#23ABE3"></path>
                    <path d="M2,31 L83.4909091,0 L164,31 C148.63608,23.0703125 121.799716,19.1054688 83.4909091,19.1054688 C45.1821023,19.1054688 18.0184659,23.0703125 2,31 Z" id="Path-2" stroke="#555555" stroke-width="2" fill="#D8D8D8"></path>
                </g>
                <g id="Valve" transform="translate(279.000000, 269.000000)">
                    <g id="Rectangle-2">
                        <use fill="#D8D8D8" fill-rule="evenodd" xlink:href="#path-2"></use>
                        <rect stroke="#555555" stroke-width="1" x="14.5" y="0.5" width="23" height="24"></rect>
                    </g>
                    <g id="Rectangle-3" transform="translate(15.000000, 12.500000) rotate(-270.000000) translate(-15.000000, -12.500000) ">
                        <use fill="#B09679" fill-rule="evenodd" xlink:href="#path-3"></use>
                        <rect stroke="#555555" stroke-width="1" x="11.5" y="-1.5" width="7" height="28"></rect>
                    </g>
                </g>
                <path d="M317,275 C344.666667,275 364.166667,277.666667 375.5,283 C386.833333,288.333333 400.5,314.666667 416.5,362 L375.5,362 C378,329.333333 376,309.166667 369.5,301.5 C363,293.833333 345.5,290.333333 317,291 L317,275 Z" id="Path-4" fill="#23ABE3"></path>
                <g id="Labels" transform="translate(0.000000, 59.000000)">
                    <path d="M69.5,1 L0.5,1" id="Line-2" stroke="#B09679" stroke-width="2" stroke-linecap="square"></path>
                    <path d="M69.5,224 L0.5,224" id="Line-2-Copy" stroke="#B09679" stroke-width="2" stroke-linecap="square"></path>
                    <path d="M33,1.5 L33,81.5" id="Line-3" stroke="#B09679" stroke-width="2" stroke-linecap="square"></path>
                    <path d="M33,144.5 L33,224.5" id="Line-3-Copy" stroke="#B09679" stroke-width="2" stroke-linecap="square"></path>
                    <path d="M243.5,23.5 L291.5,39.5" id="Line-4" stroke="#B09679" stroke-width="2" stroke-linecap="square" transform="translate(267.500000, 31.500000) scale(-1, 1) translate(-267.500000, -31.500000) "></path>
                    <path d="M388,230 L420,208" id="Line-4-Copy" stroke="#B09679" stroke-width="2" stroke-linecap="square"></path>
                    <text id="Water" font-family="Lato-Regular, Lato" font-size="18" font-weight="normal" letter-spacing="0.695049524" fill="#555555">
                        <tspan x="310.304876" y="27">Water</tspan>
                    </text>
                    <text id="Water-Wheel" font-family="Lato-Regular, Lato" font-size="18" font-weight="normal" letter-spacing="0.695049524" fill="#555555">
                        <tspan x="428.301728" y="213">Water Wheel</tspan>
                    </text>
                    <text id="Drop" font-family="Lato-Regular, Lato" font-size="18" font-weight="normal" letter-spacing="0.695049524" fill="#555555">
                        <tspan x="14.120901" y="119">Drop</tspan>
                    </text>
                </g>
                <g id="Water-Wheel" transform="translate(316.000000, 276.000000)">
                    <path d="M40,0.5 L40,78.5" id="Line-5" stroke="#B09679" stroke-width="4" stroke-linecap="square"></path>
                    <path d="M40,0.5 L40,78.5" id="Line-5-Copy" stroke="#B09679" stroke-width="4" stroke-linecap="square" transform="translate(40.000000, 39.500000) rotate(-270.000000) translate(-40.000000, -39.500000) "></path>
                    <path d="M40,0.5 L40,78.5" id="Line-5-Copy-2" stroke="#B09679" stroke-width="4" stroke-linecap="square" transform="translate(40.000000, 39.500000) rotate(-225.000000) translate(-40.000000, -39.500000) "></path>
                    <path d="M11.9228355,67.0771645 L67.0771645,11.9228355" id="Line-5-Copy-3" stroke="#B09679" stroke-width="4" stroke-linecap="square"></path>
                    <circle id="Oval-Copy-2" stroke="#555555" stroke-width="2" cx="39.5" cy="39.5" r="38.5"></circle>
                    <circle id="Oval" fill="#B09679" cx="39.5" cy="39.5" r="22.5"></circle>
                    <circle id="Oval-Copy" fill="#555555" cx="39.5" cy="39.5" r="7.5"></circle>
                </g>
            </g>
        </g>
    </g>
</svg>