<?xml version="1.0" encoding="UTF-8"?>
<svg width="372px" height="150px" viewBox="0 0 372 150" version="1.1" xmlns="http://www.w3.org/2000/svg" xmlns:xlink="http://www.w3.org/1999/xlink">
    <!-- Generator: Sketch 45.1 (43504) - http://www.bohemiancoding.com/sketch -->
    <title>Atoms_Sharing_an_Electron</title>
    <desc>Created with Sketch.</desc>
    <defs></defs>
    <g id="Page-1" stroke="none" stroke-width="1" fill="none" fill-rule="evenodd">
        <g id="Letter" transform="translate(-875.000000, -464.000000)">
            <g id="Atoms_Sharing_an_Electron" transform="translate(864.000000, 456.000000)">
                <g id="Atom-Copy">
                    <circle id="Oval-7-Copy-20" stroke="#524740" fill="#B09679" cx="95" cy="74" r="13"></circle>
                    <circle id="Oval-7-Copy-15" stroke="#524740" fill="#23ABE3" cx="88" cy="83" r="13"></circle>
                    <circle id="Oval-7-Copy-16" stroke="#524740" fill="#23ABE3" cx="108" cy="95" r="13"></circle>
                    <circle id="Oval-7-Copy-19" stroke="#524740" fill="#23ABE3" cx="107" cy="77" r="13"></circle>
                    <circle id="Oval-7-Copy-17" stroke="#524740" fill="#B09679" cx="89" cy="98" r="13"></circle>
                    <circle id="Oval-7-Copy-18" stroke="#524740" fill="#B09679" cx="99" cy="81" r="13"></circle>
                    <ellipse id="Oval-8-Copy" stroke="#979797" transform="translate(97.000000, 86.500000) rotate(-315.000000) translate(-97.000000, -86.500000) " cx="97" cy="86.5" rx="24" ry="97.5"></ellipse>
                    <ellipse id="Oval-8-Copy-2" stroke="#979797" transform="translate(97.000000, 86.500000) rotate(-240.000000) translate(-97.000000, -86.500000) " cx="97" cy="86.5" rx="24" ry="97.5"></ellipse>
                    <circle id="Oval-7-Copy-22" stroke="#979797" fill="#F5A623" cx="50" cy="103" r="5"></circle>
                    <circle id="Oval-7-Copy-23" stroke="#979797" fill="#F5A623" cx="140" cy="133" r="5"></circle>
                    <path d="M22.2617188,73.765625 C22.2617187,108.705834 48.8085937,148.453125 89.046875,147.679688 C129.285156,146.90625 189.464844,103.960938 201.762832,88.2265625 C214.06082,72.4921875 244.277344,12.6640625 299.679688,12.453125 C355.082031,12.2421875 380.464844,40.671875 381.253906,73.765625 C382.042969,106.859375 336.15625,147.679688 299.679688,147.679688 C263.203125,147.679688 224.578961,100.613281 195.332031,65.0117188 C166.085101,29.4101563 123.632812,11.703125 89.046875,12.453125 C54.4609375,13.203125 22.2617188,38.8254162 22.2617188,73.765625 Z" id="Path-6" stroke="#23ABE3" stroke-width="2"></path>
                    <circle id="Oval-7-Copy-21" stroke="#999999" fill="#F5A623" cx="110" cy="14" r="5"></circle>
                </g>
                <g id="Atom-Copy-3" transform="translate(200.000000, 0.000000)">
                    <circle id="Oval-7-Copy-20" stroke="#524740" fill="#B09679" cx="95" cy="74" r="13"></circle>
                    <circle id="Oval-7-Copy-15" stroke="#524740" fill="#23ABE3" cx="88" cy="83" r="13"></circle>
                    <circle id="Oval-7-Copy-16" stroke="#524740" fill="#23ABE3" cx="108" cy="95" r="13"></circle>
                    <circle id="Oval-7-Copy-19" stroke="#524740" fill="#23ABE3" cx="107" cy="77" r="13"></circle>
                    <circle id="Oval-7-Copy-17" stroke="#524740" fill="#B09679" cx="89" cy="98" r="13"></circle>
                    <circle id="Oval-7-Copy-18" stroke="#524740" fill="#B09679" cx="99" cy="81" r="13"></circle>
                    <ellipse id="Oval-8-Copy" stroke="#979797" transform="translate(97.000000, 86.500000) rotate(-315.000000) translate(-97.000000, -86.500000) " cx="97" cy="86.5" rx="24" ry="97.5"></ellipse>
                    <ellipse id="Oval-8-Copy-2" stroke="#979797" transform="translate(97.000000, 86.500000) rotate(-240.000000) translate(-97.000000, -86.500000) " cx="97" cy="86.5" rx="24" ry="97.5"></ellipse>
                    <circle id="Oval-7-Copy-22" stroke="#979797" fill="#F5A623" cx="50" cy="103" r="5"></circle>
                    <circle id="Oval-7-Copy-23" stroke="#979797" fill="#F5A623" cx="140" cy="133" r="5"></circle>
                </g>
            </g>
        </g>
    </g>
</svg>