<?xml version="1.0" encoding="UTF-8"?>
<svg width="511px" height="57px" viewBox="0 0 511 57" version="1.1" xmlns="http://www.w3.org/2000/svg" xmlns:xlink="http://www.w3.org/1999/xlink">
    <!-- Generator: Sketch 45 (43475) - http://www.bohemiancoding.com/sketch -->
    <title>Electromagnetic_Wave</title>
    <desc>Created with Sketch.</desc>
    <defs>
        <path d="M56.4684525,0.000142883464 C56.3111113,0.0015683574 56.1549133,0.0136528085 56,0.0360850102 L56,-5.68434189e-14 C56.1561987,4.76570516e-05 56.3123496,9.5284873e-05 56.4684525,0.000142883464 Z M56.5336709,0.000162768859 C310.844557,0.0777000892 438,0.0776458329 438,-5.68434189e-14 C445.606282,5.01219194 446.262394,27.1283064 438,33 C438,33 310.666667,33 56,33 L56,32.963915 C56.1652618,32.9878457 56.3319857,33 56.5,33 C60.6421356,33 64,25.6126984 64,16.5 C64,7.41200633 60.6603174,0.0400669116 56.5336709,0.000162768859 Z" id="path-1"></path>
        <ellipse id="path-2" cx="57.5" cy="16.5" rx="7.5" ry="16.5"></ellipse>
    </defs>
    <g id="Page-1" stroke="none" stroke-width="1" fill="none" fill-rule="evenodd">
        <g id="Letter" transform="translate(-454.000000, -192.000000)">
            <g id="Electromagnetic_Wave" transform="translate(459.000000, 192.000000)">
                <g id="Combined-Shape">
                    <use fill="#EEEEEE" fill-rule="evenodd" xlink:href="#path-1"></use>
                    <path stroke="#999999" stroke-width="1" d="M437.837662,32.5 C437.79547,32.5312939 437.753037,32.5621071 437.710362,32.5924341 L438,32.5 C437.942995,32.5 437.889257,32.5 437.837662,32.5 Z M59.2492664,0.500989274 C58.4088197,-0.138056486 57.4975394,-0.490540122 56.5385056,-0.499813856 L56.5335184,0.500162746 C57.4403847,0.500439242 58.345634,0.500714751 59.2492664,0.500989274 Z M59.248037,32.5 C58.1720908,32.5 57.0894349,32.5 56,32.5 L56,32.963915 L55.9283449,33.4587539 C56.1179142,33.4862045 56.3085848,33.5 56.5,33.5 C57.4726013,33.5 58.3966257,33.1470552 59.248037,32.5 Z"></path>
                </g>
                <g id="Oval-6">
                    <use fill="#EEEEEE" fill-rule="evenodd" xlink:href="#path-2"></use>
                    <ellipse stroke="#979797" stroke-width="1" cx="57.5" cy="16.5" rx="7" ry="16"></ellipse>
                </g>
                <circle id="Oval-7-Copy" stroke="#979797" fill="#D8D8D8" stroke-dasharray="3,1" cx="74" cy="17" r="13"></circle>
                <path d="M32,30 L0.00476521597,53.1993619" id="Line-11-Copy-3" stroke="#B09679" stroke-width="3"></path>
                <path id="Line-11-Copy-3-decoration-1" d="M0.00476521597,53.1993619 L10.5092351,49.2883373 L6.98714935,44.4308779 L0.00476521597,53.1993619 Z" stroke="#B09679" stroke-width="3"></path>
                <path d="M505.5,16.1993619 L459.004765,16.1993619" id="Line-11-Copy-4" stroke="#B09679" stroke-width="3"></path>
                <path id="Line-11-Copy-4-decoration-1" d="M459.004765,16.1993619 L469.804765,19.1993619 L469.804765,13.1993619 L459.004765,16.1993619 Z" stroke="#B09679" stroke-width="3"></path>
                <circle id="Oval-7-Copy-2" stroke="#979797" fill="#D8D8D8" stroke-dasharray="3,1" cx="100" cy="17" r="13"></circle>
                <circle id="Oval-7-Copy-5" stroke="#979797" fill="#D8D8D8" stroke-dasharray="3,1" cx="126" cy="17" r="13"></circle>
                <circle id="Oval-7-Copy-4" stroke="#979797" fill="#D8D8D8" stroke-dasharray="3,1" cx="152" cy="17" r="13"></circle>
                <circle id="Oval-7-Copy-3" stroke="#979797" fill="#D8D8D8" stroke-dasharray="3,1" cx="178" cy="17" r="13"></circle>
                <circle id="Oval-7-Copy-11" stroke="#979797" fill="#D8D8D8" stroke-dasharray="3,1" cx="204" cy="17" r="13"></circle>
                <circle id="Oval-7-Copy-10" stroke="#979797" fill="#D8D8D8" stroke-dasharray="3,1" cx="230" cy="17" r="13"></circle>
                <circle id="Oval-7-Copy-9" stroke="#979797" fill="#D8D8D8" stroke-dasharray="3,1" cx="256" cy="17" r="13"></circle>
                <circle id="Oval-7-Copy-8" stroke="#979797" fill="#D8D8D8" stroke-dasharray="3,1" cx="282" cy="17" r="13"></circle>
                <circle id="Oval-7-Copy-7" stroke="#979797" fill="#D8D8D8" stroke-dasharray="3,1" cx="308" cy="17" r="13"></circle>
                <circle id="Oval-7-Copy-6" stroke="#979797" fill="#D8D8D8" stroke-dasharray="3,1" cx="334" cy="17" r="13"></circle>
                <circle id="Oval-7-Copy-14" stroke="#979797" fill="#D8D8D8" stroke-dasharray="3,1" cx="360" cy="17" r="13"></circle>
                <circle id="Oval-7-Copy-13" stroke="#979797" fill="#D8D8D8" stroke-dasharray="3,1" cx="386" cy="17" r="13"></circle>
                <circle id="Oval-7-Copy-12" stroke="#979797" fill="#D8D8D8" stroke-dasharray="3,1" cx="412" cy="17" r="13"></circle>
                <circle id="Oval-7-Copy-15" stroke="#979797" fill="#23ABE3" stroke-dasharray="3,1" cx="439" cy="17" r="13"></circle>
                <ellipse id="Oval-6-Copy-3" stroke="#979797" cx="57.5" cy="16.5" rx="7" ry="16"></ellipse>
                <circle id="Oval-7" stroke="#979797" fill="#D8D8D8" cx="48" cy="17" r="13"></circle>
                <path d="M437.853112,0.504111416 C446.212517,0.427049207 438.5,0.571305563 438.5,2.84217094e-14 L438,2.84217094e-14 L437.724883,0.417505312 C437.767864,0.445827442 437.810606,0.474698201 437.853112,0.504111416 Z M437.837662,32.5 C437.79547,32.5312939 437.753037,32.5621071 437.710362,32.5924341 L438,32.5 C437.942057,32.5 437.888614,32.5 437.837662,32.5 Z M58.7959102,32.5 C56.7254482,32.5 56.6219828,32.5 56,32.5 L56.0458218,33.4978959 C57.0506935,33.4054168 57.9677734,33.0573013 58.7959102,32.5 Z M58.7304621,0.500818555 C57.9279151,-0.0235773278 57.0396984,-0.368182978 56.0648894,-0.495771489 L55.9998474,0.499999977 L55.9999689,0.500000014 L56.000333,0.500000125 L56.0017888,0.500000569 L56.007606,0.500002342 L56.0308271,0.500009412 L56.1233337,0.500037521 L56.4903366,0.500148574 C57.0568161,0.500319302 57.0568161,0.500319302 57.9341679,0.500581717 C58.2360959,0.500671534 58.496787,0.500749084 58.7304621,0.500818555 Z M58.7304621,0.500818555 C60.2077042,0.501257736 60.605258,0.501374061 63.5160581,0.502225764 C69.5953432,0.503996275 76.5588876,0.505969131 84.296159,0.508093744 C106.402648,0.514164069 130.277655,0.520234393 155.036923,0.525900029 C186.870268,0.533184419 217.819354,0.539254744 246.999924,0.543706316 C300.71872,0.551901258 345.48439,0.554177631 378.312576,0.549169606 C396.965013,0.546324128 411.51393,0.541145353 421.586319,0.533462507 C426.902423,0.529407579 430.959486,0.52466256 433.710953,0.519205896 C435.121909,0.51640771 436.188946,0.513423424 436.906387,0.510249447 C437.269979,0.508640906 437.543919,0.506983228 437.727782,0.505272249 C437.769954,0.504879805 437.81173,0.504492899 437.853112,0.504111416 C445.196312,5.5855409 445.445529,26.8571733 437.837662,32.5 C437.232532,32.5 436.978678,32.5 433.709961,32.5 L60.2900391,32.5 C59.7005122,32.5 59.2090518,32.5 58.7959102,32.5 C66.2404282,27.4901517 66.4973897,5.57584212 58.7304621,0.500818555 Z M437.5,-0.492962568 C437.583405,-0.493531331 437.656244,-0.494105341 437.718477,-0.494684456 C437.644333,-0.493994497 437.571513,-0.493323235 437.5,-0.492669968 L437.5,-0.492962568 Z" id="Combined-Shape-Copy" stroke="#999999"></path>
            </g>
        </g>
    </g>
</svg>