<?xml version="1.0" encoding="UTF-8"?>
<svg width="394px" height="33px" viewBox="0 0 394 33" version="1.1" xmlns="http://www.w3.org/2000/svg" xmlns:xlink="http://www.w3.org/1999/xlink">
    <!-- Generator: Sketch 45 (43475) - http://www.bohemiancoding.com/sketch -->
    <title>Tube_of_Marbles</title>
    <desc>Created with Sketch.</desc>
    <defs>
        <path d="M6.46845253,0.000142883464 C6.31111127,0.0015683574 6.15491327,0.0136528085 6,0.0360850102 L6,-5.68434189e-14 C6.15619875,4.76570516e-05 6.31234959,9.5284873e-05 6.46845253,0.000142883464 Z M6.53367088,0.000162768859 C260.844557,0.0777000892 388,0.0776458329 388,-5.68434189e-14 C395.606282,5.01219194 396.262394,27.1283064 388,33 C388,33 260.666667,33 6,33 L6,32.963915 C6.16526181,32.9878457 6.33198572,33 6.5,33 C10.6421356,33 14,25.6126984 14,16.5 C14,7.41200633 10.6603174,0.0400669116 6.53367088,0.000162768859 Z" id="path-1"></path>
        <ellipse id="path-2" cx="7.5" cy="16.5" rx="7.5" ry="16.5"></ellipse>
    </defs>
    <g id="Page-1" stroke="none" stroke-width="1" fill="none" fill-rule="evenodd">
        <g id="Letter" transform="translate(-509.000000, -92.000000)">
            <g id="Tube_of_Marbles" transform="translate(509.000000, 92.000000)">
                <g id="Combined-Shape">
                    <use fill="#EEEEEE" fill-rule="evenodd" xlink:href="#path-1"></use>
                    <path stroke="#999999" stroke-width="1" d="M387.837662,32.5 C387.79547,32.5312939 387.753037,32.5621071 387.710362,32.5924341 L388,32.5 C387.942995,32.5 387.889257,32.5 387.837662,32.5 Z M9.24926637,0.500989274 C8.40881973,-0.138056486 7.49753938,-0.490540122 6.53850559,-0.499813856 L6.53351844,0.500162746 C7.44038468,0.500439242 8.34563399,0.500714751 9.24926637,0.500989274 Z M9.24803696,32.5 C8.17209084,32.5 7.08943486,32.5 6,32.5 L6,32.963915 L5.9283449,33.4587539 C6.11791418,33.4862045 6.30858475,33.5 6.5,33.5 C7.47260127,33.5 8.39662575,33.1470552 9.24803696,32.5 Z"></path>
                </g>
                <g id="Oval-6">
                    <use fill="#EEEEEE" fill-rule="evenodd" xlink:href="#path-2"></use>
                    <ellipse stroke="#979797" stroke-width="1" cx="7.5" cy="16.5" rx="7" ry="16"></ellipse>
                </g>
                <circle id="Oval-7" stroke="#979797" fill="#D8D8D8" stroke-dasharray="3,1,3,1" cx="15" cy="17" r="13"></circle>
                <circle id="Oval-7-Copy" stroke="#979797" fill="#D8D8D8" stroke-dasharray="3,1" cx="41" cy="17" r="13"></circle>
                <circle id="Oval-7-Copy-2" stroke="#979797" fill="#D8D8D8" stroke-dasharray="3,1" cx="67" cy="17" r="13"></circle>
                <circle id="Oval-7-Copy-5" stroke="#979797" fill="#D8D8D8" stroke-dasharray="3,1" cx="93" cy="17" r="13"></circle>
                <circle id="Oval-7-Copy-4" stroke="#979797" fill="#D8D8D8" stroke-dasharray="3,1" cx="119" cy="17" r="13"></circle>
                <circle id="Oval-7-Copy-3" stroke="#979797" fill="#D8D8D8" stroke-dasharray="3,1" cx="145" cy="17" r="13"></circle>
                <circle id="Oval-7-Copy-11" stroke="#979797" fill="#D8D8D8" stroke-dasharray="3,1" cx="171" cy="17" r="13"></circle>
                <circle id="Oval-7-Copy-10" stroke="#979797" fill="#D8D8D8" stroke-dasharray="3,1" cx="197" cy="17" r="13"></circle>
                <circle id="Oval-7-Copy-9" stroke="#979797" fill="#D8D8D8" stroke-dasharray="3,1" cx="223" cy="17" r="13"></circle>
                <circle id="Oval-7-Copy-8" stroke="#979797" fill="#D8D8D8" stroke-dasharray="3,1" cx="249" cy="17" r="13"></circle>
                <circle id="Oval-7-Copy-7" stroke="#979797" fill="#D8D8D8" stroke-dasharray="3,1" cx="275" cy="17" r="13"></circle>
                <circle id="Oval-7-Copy-6" stroke="#979797" fill="#D8D8D8" stroke-dasharray="3,1" cx="301" cy="17" r="13"></circle>
                <circle id="Oval-7-Copy-14" stroke="#979797" fill="#D8D8D8" stroke-dasharray="3,1" cx="327" cy="17" r="13"></circle>
                <circle id="Oval-7-Copy-13" stroke="#979797" fill="#D8D8D8" stroke-dasharray="3,1" cx="353" cy="17" r="13"></circle>
                <circle id="Oval-7-Copy-12" stroke="#979797" fill="#D8D8D8" stroke-dasharray="3,1" cx="379" cy="17" r="13"></circle>
                <ellipse id="Oval-6-Copy-3" stroke="#979797" cx="7.5" cy="16.5" rx="7" ry="16"></ellipse>
            </g>
        </g>
    </g>
</svg>