<?xml version="1.0" encoding="UTF-8"?>
<svg width="344px" height="163px" viewBox="0 0 344 163" version="1.1" xmlns="http://www.w3.org/2000/svg" xmlns:xlink="http://www.w3.org/1999/xlink">
    <!-- Generator: Sketch 45 (43475) - http://www.bohemiancoding.com/sketch -->
    <title>Water_Molecules</title>
    <desc>Created with Sketch.</desc>
    <defs></defs>
    <g id="Page-1" stroke="none" stroke-width="1" fill="none" fill-rule="evenodd">
        <g id="Letter" transform="translate(-382.000000, -371.000000)" stroke="#979797">
            <g id="Water_Molecules" transform="translate(383.000000, 364.000000)">
                <path d="M0.761867956,30.7103797 C0.259773997,29.9884314 0,29.2504438 0,28.5 C0,19.9395864 33.8025014,13 75.5,13 C116.695288,13 150.184611,19.7734304 150.985335,28.1914063 L151.546875,28.1914062 L142.421875,152.992188 C119.176841,162.882813 95.9528831,167.828125 72.75,167.828125 C49.5471169,167.828125 27.1337054,162.882813 5.50976562,152.992188 L0.761867956,30.7103797 Z" id="Combined-Shape" fill="#D8D8D8"></path>
                <path d="M2.37109375,69.3710938 L5.50976563,152.992188 C27.1337054,162.882812 49.5471169,167.828125 72.75,167.828125 C95.9528831,167.828125 119.176841,162.882812 142.421875,152.992188 L147.90625,69.3710938 C123.897135,75.9127604 99.641276,79.1835938 75.1386719,79.1835938 C50.6360677,79.1835938 26.3802083,75.9127604 2.37109375,69.3710938 Z" id="Combined-Shape-Copy-2" fill="#23ABE3"></path>
                <path d="M75.5,83 C116.092929,83 149,76.0604136 149,67.5 C149,58.9395864 116.092929,52 75.5,52 C34.9070709,52 2,58.9395864 2,67.5 C2,76.0604136 34.9070709,83 75.5,83 Z" id="Oval-9-Copy-2" fill="#23ABE3"></path>
                <ellipse id="Oval-9-Copy" fill="#D8D8D8" cx="75.5" cy="28.5" rx="75.5" ry="15.5"></ellipse>
                <circle id="Oval-10" stroke-width="2" cx="65.5" cy="101.5" r="11.5"></circle>
                <path d="M77.5,95.5 L181.5,75.5" id="Line-12" stroke-width="2" stroke-linecap="square"></path>
                <circle id="Oval-11" stroke-width="2" cx="261.5" cy="88.5" r="80.5"></circle>
                <g id="WaterMolecule" transform="translate(200.000000, 37.000000)">
                    <circle id="Oval-12-Copy-2" fill="#23ABE3" cx="30" cy="20" r="10"></circle>
                    <circle id="Oval-12" fill="#999999" cx="19" cy="15" r="15"></circle>
                    <circle id="Oval-12-Copy" fill="#23ABE3" cx="10" cy="25" r="10"></circle>
                </g>
                <g id="WaterMolecule-Copy-5" transform="translate(270.000000, 127.000000)">
                    <circle id="Oval-12-Copy-2" fill="#23ABE3" cx="30" cy="20" r="10"></circle>
                    <circle id="Oval-12" fill="#999999" cx="19" cy="15" r="15"></circle>
                    <circle id="Oval-12-Copy" fill="#23ABE3" cx="10" cy="25" r="10"></circle>
                </g>
                <g id="WaterMolecule-Copy-3" transform="translate(264.000000, 103.500000) rotate(-21.727212) translate(-264.000000, -103.500000) translate(244.000000, 86.000000)">
                    <circle id="Oval-12-Copy-2" fill="#23ABE3" cx="30" cy="20" r="10"></circle>
                    <circle id="Oval-12" fill="#999999" cx="19" cy="15" r="15"></circle>
                    <circle id="Oval-12-Copy" fill="#23ABE3" cx="10" cy="25" r="10"></circle>
                </g>
                <g id="WaterMolecule-Copy" transform="translate(230.000000, 94.500000) rotate(136.000000) translate(-230.000000, -94.500000) translate(210.000000, 77.000000)">
                    <circle id="Oval-12-Copy-2" fill="#23ABE3" cx="30" cy="20" r="10"></circle>
                    <circle id="Oval-12" fill="#999999" cx="19" cy="15" r="15"></circle>
                    <circle id="Oval-12-Copy" fill="#23ABE3" cx="10" cy="25" r="10"></circle>
                </g>
                <g id="WaterMolecule-Copy-2" transform="translate(267.000000, 67.500000) rotate(226.179343) translate(-267.000000, -67.500000) translate(247.000000, 50.000000)">
                    <circle id="Oval-12-Copy-2" fill="#23ABE3" cx="30" cy="20" r="10"></circle>
                    <circle id="Oval-12" fill="#999999" cx="19" cy="15" r="15"></circle>
                    <circle id="Oval-12-Copy" fill="#23ABE3" cx="10" cy="25" r="10"></circle>
                </g>
                <g id="WaterMolecule-Copy-4" transform="translate(227.000000, 137.500000) rotate(226.179343) translate(-227.000000, -137.500000) translate(207.000000, 120.000000)">
                    <circle id="Oval-12-Copy-2" fill="#23ABE3" cx="30" cy="20" r="10"></circle>
                    <circle id="Oval-12" fill="#999999" cx="19" cy="15" r="15"></circle>
                    <circle id="Oval-12-Copy" fill="#23ABE3" cx="10" cy="25" r="10"></circle>
                </g>
                <g id="WaterMolecule-Copy-7" transform="translate(277.000000, 27.500000) rotate(226.179343) translate(-277.000000, -27.500000) translate(257.000000, 10.000000)">
                    <circle id="Oval-12-Copy-2" fill="#23ABE3" cx="30" cy="20" r="10"></circle>
                    <circle id="Oval-12" fill="#999999" cx="19" cy="15" r="15"></circle>
                    <circle id="Oval-12-Copy" fill="#23ABE3" cx="10" cy="25" r="10"></circle>
                </g>
                <g id="WaterMolecule-Copy-6" transform="translate(307.000000, 107.500000) rotate(263.548523) translate(-307.000000, -107.500000) translate(287.000000, 90.000000)">
                    <circle id="Oval-12-Copy-2" fill="#23ABE3" cx="30" cy="20" r="10"></circle>
                    <circle id="Oval-12" fill="#999999" cx="19" cy="15" r="15"></circle>
                    <circle id="Oval-12-Copy" fill="#23ABE3" cx="10" cy="25" r="10"></circle>
                </g>
            </g>
        </g>
    </g>
</svg>