<?xml version="1.0" encoding="UTF-8"?>
<svg width="900px" height="280px" viewBox="0 0 900 280" version="1.1" xmlns="http://www.w3.org/2000/svg" xmlns:xlink="http://www.w3.org/1999/xlink">
    <!-- Generator: Sketch 52.5 (67469) - http://www.bohemiancoding.com/sketch -->
    <title>CMOS_Digital_Logic_Levels</title>
    <desc>Created with Sketch.</desc>
    <g id="CMOS_Digital_Logic_Levels" stroke="none" stroke-width="1" fill="none" fill-rule="evenodd">
        <rect id="Rectangle" stroke="#3D3530" stroke-width="2" fill="#EEEEEE" x="1" y="1" width="898" height="528"></rect>
        <g id="Illustration" transform="translate(235.000000, 17.000000)">
            <g id="Labels">
                <path d="M15.068,102.736 L14.588,102.736 C14.4599994,102.111997 14.1880021,101.656001 13.772,101.368 C12.4599934,102.728007 10.9720083,103.408 9.308,103.408 C7.27598984,103.408 5.5400072,102.664007 4.1,101.176 C2.6599928,99.6879926 1.94,97.8960105 1.94,95.8 C1.94,93.7039895 2.6599928,91.9120074 4.1,90.424 C5.5400072,88.9359926 7.27598984,88.192 9.308,88.192 C11.0040085,88.192 12.4919936,88.8719932 13.772,90.232 C14.2040022,89.8959983 14.4759994,89.4400029 14.588,88.864 L15.068,88.864 L15.068,94.144 L14.588,94.144 C14.2519983,92.5599921 13.6320045,91.3280044 12.728,90.448 C11.8239955,89.5679956 10.7160066,89.128 9.404,89.128 C8.49199544,89.128 7.68400352,89.331998 6.98,89.74 C6.27599648,90.148002 5.72800196,90.6879966 5.336,91.36 C4.94399804,92.0320034 4.65200096,92.7439962 4.46,93.496 C4.26799904,94.2480038 4.172,95.0159961 4.172,95.8 C4.172,96.5840039 4.26799904,97.3519962 4.46,98.104 C4.65200096,98.8560038 4.94399804,99.5639967 5.336,100.228 C5.72800196,100.892003 6.27599648,101.427998 6.98,101.836 C7.68400352,102.244002 8.49199544,102.448 9.404,102.448 C10.7160066,102.448 11.8239955,102.004004 12.728,101.116 C13.6320045,100.227996 14.2519983,99.0080078 14.588,97.456 L15.068,97.456 L15.068,102.736 Z M28.916,102.808 L25.7,103.408 C25.5719994,103.151999 25.4440006,102.640004 25.316,101.872 C24.323995,102.896005 23.2760055,103.408 22.172,103.408 C20.1879901,103.408 19.196,102.208012 19.196,99.808 L19.196,98.296 C19.196,97.095994 19.0800012,96.3280017 18.848,95.992 C18.6159988,95.6559983 18.100004,95.488 17.3,95.488 L17.3,95.008 L20.9,95.008 L20.9,99.688 C20.9,101.400009 21.5079939,102.256 22.724,102.256 C23.2680027,102.256 23.835997,102.028002 24.428,101.572 C25.020003,101.115998 25.316,100.552003 25.316,99.88 L25.316,98.296 C25.316,97.095994 25.2000012,96.3280017 24.968,95.992 C24.7359988,95.6559983 24.2120041,95.488 23.396,95.488 L23.396,95.008 L26.996,95.008 L26.996,99.496 C26.996,100.696006 27.1119988,101.463998 27.344,101.8 C27.5760012,102.136002 28.0999959,102.304 28.916,102.304 L28.916,102.808 Z M38.3,96.088 C38.3,96.8400038 37.9800032,97.216 37.34,97.216 C37.1159989,97.216 36.9200008,97.1280009 36.752,96.952 C36.5839992,96.7759991 36.5,96.5760011 36.5,96.352 C36.5,95.8239974 36.2440026,95.56 35.732,95.56 C35.3639982,95.56 34.9640022,95.8159974 34.532,96.328 C34.0999978,96.8400026 33.884,97.5199958 33.884,98.368 L33.884,99.688 C33.884,100.888006 33.9999988,101.655998 34.232,101.992 C34.4640012,102.328002 34.979996,102.496 35.78,102.496 L35.78,103 L30.284,103 L30.284,102.496 C31.084004,102.496 31.5999988,102.328002 31.832,101.992 C32.0640012,101.655998 32.18,100.888006 32.18,99.688 L32.18,98.488 C32.18,97.3039941 32.0640012,96.5440017 31.832,96.208 C31.5999988,95.8719983 31.084004,95.704 30.284,95.704 L30.284,95.2 L33.476,94.6 C33.6200007,94.9040015 33.7559994,95.4799958 33.884,96.328 C34.1240012,95.8479976 34.4839976,95.4400017 34.964,95.104 C35.4440024,94.7679983 35.9239976,94.6 36.404,94.6 C37.012003,94.6 37.4799984,94.7599984 37.808,95.08 C38.1360016,95.4000016 38.3,95.7359982 38.3,96.088 Z M47.732,96.088 C47.732,96.8400038 47.4120032,97.216 46.772,97.216 C46.5479989,97.216 46.3520008,97.1280009 46.184,96.952 C46.0159992,96.7759991 45.932,96.5760011 45.932,96.352 C45.932,95.8239974 45.6760026,95.56 45.164,95.56 C44.7959982,95.56 44.3960022,95.8159974 43.964,96.328 C43.5319978,96.8400026 43.316,97.5199958 43.316,98.368 L43.316,99.688 C43.316,100.888006 43.4319988,101.655998 43.664,101.992 C43.8960012,102.328002 44.411996,102.496 45.212,102.496 L45.212,103 L39.716,103 L39.716,102.496 C40.516004,102.496 41.0319988,102.328002 41.264,101.992 C41.4960012,101.655998 41.612,100.888006 41.612,99.688 L41.612,98.488 C41.612,97.3039941 41.4960012,96.5440017 41.264,96.208 C41.0319988,95.8719983 40.516004,95.704 39.716,95.704 L39.716,95.2 L42.908,94.6 C43.0520007,94.9040015 43.1879994,95.4799958 43.316,96.328 C43.5560012,95.8479976 43.9159976,95.4400017 44.396,95.104 C44.8760024,94.7679983 45.3559976,94.6 45.836,94.6 C46.444003,94.6 46.9119984,94.7599984 47.24,95.08 C47.5680016,95.4000016 47.732,95.7359982 47.732,96.088 Z M51.452,97.504 L55.436,97.504 C55.5960008,97.0559978 55.5280015,96.6200021 55.232,96.196 C54.9359985,95.7719979 54.4280036,95.56 53.708,95.56 C53.1959974,95.56 52.736002,95.7359982 52.328,96.088 C51.919998,96.4400018 51.6280009,96.911997 51.452,97.504 Z M51.308,98.392 C51.1639993,99.5760059 51.3519974,100.539996 51.872,101.284 C52.3920026,102.028004 53.2439941,102.4 54.428,102.4 C54.828002,102.4 55.2839974,102.296001 55.796,102.088 C56.3080026,101.879999 56.7319983,101.616002 57.068,101.296 L57.5,101.824 C57.0679978,102.288002 56.5160034,102.667999 55.844,102.964 C55.1719966,103.260001 54.5000034,103.408 53.828,103.408 C52.5319935,103.408 51.4680042,102.980004 50.636,102.124 C49.8039958,101.267996 49.388,100.224006 49.388,98.992 C49.388,97.7599938 49.8399955,96.7200042 50.744,95.872 C51.6480045,95.0239958 52.6759942,94.6 53.828,94.6 C54.9160054,94.6 55.8039966,94.9799962 56.492,95.74 C57.1800034,96.5000038 57.3800014,97.383995 57.092,98.392 L51.308,98.392 Z M62.876,96.328 C63.7880046,95.1759942 64.8999934,94.6 66.212,94.6 C67.2520052,94.6 68.0319974,94.9279967 68.552,95.584 C69.0720026,96.2400033 69.332,97.1039946 69.332,98.176 L69.332,99.688 C69.332,100.888006 69.4479988,101.655998 69.68,101.992 C69.9120012,102.328002 70.427996,102.496 71.228,102.496 L71.228,103 L65.732,103 L65.732,102.496 C66.5160039,102.496 67.0279988,102.324002 67.268,101.98 C67.5080012,101.635998 67.628,100.872006 67.628,99.688 L67.628,98.296 C67.628,96.5839914 66.9640066,95.728 65.636,95.728 C64.9479966,95.728 64.3160029,95.9679976 63.74,96.448 C63.1639971,96.9280024 62.876,97.4879968 62.876,98.128 L62.876,99.688 C62.876,100.920006 62.971999,101.695998 63.164,102.016 C63.356001,102.336002 63.8199963,102.496 64.556,102.496 L64.556,103 L59.276,103 L59.276,102.496 C60.076004,102.496 60.5919988,102.328002 60.824,101.992 C61.0560012,101.655998 61.172,100.888006 61.172,99.688 L61.172,98.488 C61.172,97.3039941 61.0560012,96.5440017 60.824,96.208 C60.5919988,95.8719983 60.076004,95.704 59.276,95.704 L59.276,95.2 L62.468,94.6 C62.6120007,94.9040015 62.7479994,95.4799958 62.876,96.328 Z M73.604,95.848 L72.356,95.848 L72.356,95.272 C73.0440034,95.1279993 73.5479984,94.8160024 73.868,94.336 C74.1880016,93.8559976 74.3959995,93.2000042 74.492,92.368 L75.308,92.368 L75.308,95.008 L77.396,95.008 L77.396,95.848 L75.308,95.848 L75.308,100.648 C75.308,101.800006 75.6679964,102.376 76.388,102.376 C76.8520023,102.376 77.3719971,102.104003 77.948,101.56 L78.356,101.968 C78.0199983,102.368002 77.6160024,102.695999 77.144,102.952 C76.6719976,103.208001 76.236002,103.336 75.836,103.336 C75.1479966,103.336 74.604002,103.112002 74.204,102.664 C73.803998,102.215998 73.604,101.544004 73.604,100.648 L73.604,95.848 Z" id="Current-Copy" fill="#524740"></path>
                <path d="M129.128,174.856 C130.232006,173.751994 131.551992,173.2 133.088,173.2 C134.624008,173.2 135.939995,173.747995 137.036,174.844 C138.132005,175.940005 138.68,177.255992 138.68,178.792 C138.68,180.344008 138.132005,181.667995 137.036,182.764 C135.939995,183.860005 134.624008,184.408 133.088,184.408 C131.551992,184.408 130.236005,183.860005 129.14,182.764 C128.043995,181.667995 127.496,180.344008 127.496,178.792 C127.496,177.255992 128.039995,175.944005 129.128,174.856 Z M133.088,174.568 C131.967994,174.568 131.012004,174.983996 130.22,175.816 C129.427996,176.648004 129.032,177.639994 129.032,178.792 C129.032,179.960006 129.427996,180.955996 130.22,181.78 C131.012004,182.604004 131.967994,183.016 133.088,183.016 C134.192006,183.016 135.143996,182.604004 135.944,181.78 C136.744004,180.955996 137.144,179.960006 137.144,178.792 C137.144,177.639994 136.744004,176.648004 135.944,175.816 C135.143996,174.983996 134.192006,174.568 133.088,174.568 Z M155.888,170.104 C154.943995,170.104 154.332001,170.219999 154.052,170.452 C153.771999,170.684001 153.432002,171.263995 153.032,172.192 L147.752,184.408 L147.44,184.408 L142.136,172.192 C141.735998,171.263995 141.396001,170.684001 141.116,170.452 C140.835999,170.219999 140.224005,170.104 139.28,170.104 L139.28,169.6 L145.928,169.6 L145.928,170.104 C144.935995,170.104 144.300001,170.243999 144.02,170.524 C143.739999,170.804001 143.751998,171.271997 144.056,171.928 L148.136,181.264 L152.168,171.928 C152.472002,171.271997 152.484001,170.804001 152.204,170.524 C151.923999,170.243999 151.288005,170.104 150.296,170.104 L150.296,169.6 L155.888,169.6 L155.888,170.104 Z" id="0V-Copy" fill="#1A80AA"></path>
                <g id="ON" transform="translate(201.000000, 10.000000)">
                    <rect id="Rectangle" fill="#CAEBF8" x="0" y="0" width="179" height="55"></rect>
                    <path d="M58.064,22.424 C59.6320078,23.9120074 60.416,25.7039895 60.416,27.8 C60.416,29.8960105 59.6320078,31.6879926 58.064,33.176 C56.4959922,34.6640074 54.616011,35.408 52.424,35.408 C50.215989,35.408 48.3280078,34.6640074 46.76,33.176 C45.1919922,31.6879926 44.408,29.8960105 44.408,27.8 C44.408,25.7039895 45.1919922,23.9120074 46.76,22.424 C48.3280078,20.9359926 50.215989,20.192 52.424,20.192 C54.616011,20.192 56.4959922,20.9359926 58.064,22.424 Z M55.04,21.752 C54.2879962,21.3359979 53.416005,21.128 52.424,21.128 C51.431995,21.128 50.5520038,21.331998 49.784,21.74 C49.0159962,22.148002 48.4160022,22.6879966 47.984,23.36 C47.5519978,24.0320034 47.2280011,24.7439962 47.012,25.496 C46.7959989,26.2480038 46.688,27.0159961 46.688,27.8 C46.688,28.5840039 46.7959989,29.3519962 47.012,30.104 C47.2280011,30.8560038 47.5519978,31.5639967 47.984,32.228 C48.4160022,32.8920033 49.0159962,33.427998 49.784,33.836 C50.5520038,34.244002 51.431995,34.448 52.424,34.448 C53.416005,34.448 54.2919962,34.244002 55.052,33.836 C55.8120038,33.427998 56.4079978,32.8920033 56.84,32.228 C57.2720022,31.5639967 57.5959989,30.8560038 57.812,30.104 C58.0280011,29.3519962 58.136,28.5840039 58.136,27.8 C58.136,27.0159961 58.0280011,26.2480038 57.812,25.496 C57.5959989,24.7439962 57.2720022,24.0320034 56.84,23.36 C56.4079978,22.6879966 55.8080038,22.152002 55.04,21.752 Z M75.224,32.024 L75.224,23.888 C75.224,22.687994 75.0920013,21.9240016 74.828,21.596 C74.5639987,21.2679984 73.936005,21.104 72.944,21.104 L72.944,20.6 L78.416,20.6 L78.416,21.104 C77.423995,21.104 76.7920014,21.2679984 76.52,21.596 C76.2479986,21.9240016 76.112,22.687994 76.112,23.888 L76.112,35.408 L75.56,35.408 L65.792,23.336 L65.792,31.688 C65.792,32.888006 65.9279986,33.6559983 66.2,33.992 C66.4720014,34.3280017 67.103995,34.496 68.096,34.496 L68.096,35 L62.624,35 L62.624,34.496 C63.616005,34.496 64.2439987,34.3280017 64.508,33.992 C64.7720013,33.6559983 64.904,32.888006 64.904,31.688 L64.904,23.888 C64.904,22.687994 64.7720013,21.9240016 64.508,21.596 C64.2439987,21.2679984 63.616005,21.104 62.624,21.104 L62.624,20.6 L66.008,20.6 L75.224,32.024 Z M87.224,20.504 L80.312,35.432 L79.352,35.096 L86.264,20.168 L87.224,20.504 Z M92.576,27.8 L92.576,31.688 C92.576,32.888006 92.7079987,33.6559983 92.972,33.992 C93.2360013,34.3280017 93.863995,34.496 94.856,34.496 L94.856,35 L88.376,35 L88.376,34.496 C89.368005,34.496 89.9959987,34.3280017 90.26,33.992 C90.5240013,33.6559983 90.656,32.888006 90.656,31.688 L90.656,23.888 C90.656,22.687994 90.5240013,21.9240016 90.26,21.596 C89.9959987,21.2679984 89.368005,21.104 88.376,21.104 L88.376,20.6 L94.856,20.6 L94.856,21.104 C93.863995,21.104 93.2360013,21.2679984 92.972,21.596 C92.7079987,21.9240016 92.576,22.687994 92.576,23.888 L92.576,26.912 L100.736,26.912 L100.736,23.888 C100.736,22.687994 100.600001,21.9240016 100.328,21.596 C100.055999,21.2679984 99.424005,21.104 98.432,21.104 L98.432,20.6 L104.936,20.6 L104.936,21.104 C103.927995,21.104 103.292001,21.2679984 103.028,21.596 C102.763999,21.9240016 102.632,22.687994 102.632,23.888 L102.632,31.688 C102.632,32.9040061 102.763999,33.6759984 103.028,34.004 C103.292001,34.3320016 103.927995,34.496 104.936,34.496 L104.936,35 L98.432,35 L98.432,34.496 C99.424005,34.496 100.055999,34.3280017 100.328,33.992 C100.600001,33.6559983 100.736,32.888006 100.736,31.688 L100.736,27.8 L92.576,27.8 Z M113.216,35 L106.736,35 L106.736,34.496 C107.728005,34.496 108.355999,34.3280017 108.62,33.992 C108.884001,33.6559983 109.016,32.888006 109.016,31.688 L109.016,23.888 C109.016,22.687994 108.884001,21.9240016 108.62,21.596 C108.355999,21.2679984 107.728005,21.104 106.736,21.104 L106.736,20.6 L113.216,20.6 L113.216,21.104 C112.223995,21.104 111.596001,21.2679984 111.332,21.596 C111.067999,21.9240016 110.936,22.687994 110.936,23.888 L110.936,31.688 C110.936,32.888006 111.067999,33.6559983 111.332,33.992 C111.596001,34.3280017 112.223995,34.496 113.216,34.496 L113.216,35 Z M127.688,31.088 C127.688,30.5599974 127.512002,30.1680013 127.16,29.912 C126.807998,29.6559987 126.232004,29.528 125.432,29.528 L125.432,29.048 L131.72,29.048 L131.72,29.528 C130.727995,29.528 130.100001,29.6959983 129.836,30.032 C129.571999,30.3680017 129.44,31.135994 129.44,32.336 L129.44,34.16 C128.543996,34.16 127.484006,34.3679979 126.26,34.784 C125.035994,35.2000021 124.016004,35.408 123.2,35.408 C121.16799,35.408 119.432007,34.6640074 117.992,33.176 C116.551993,31.6879926 115.832,29.8960105 115.832,27.8 C115.832,25.7039895 116.551993,23.9120074 117.992,22.424 C119.432007,20.9359926 121.16799,20.192 123.2,20.192 C124.896008,20.192 126.383994,20.8719932 127.664,22.232 C128.096002,21.8959983 128.367999,21.4400029 128.48,20.864 L128.96,20.864 L128.96,26.144 L128.48,26.144 C128.159998,24.5759922 127.544005,23.3480044 126.632,22.46 C125.719995,21.5719956 124.600007,21.128 123.272,21.128 C122.359995,21.128 121.552004,21.331998 120.848,21.74 C120.143996,22.148002 119.596002,22.6879966 119.204,23.36 C118.811998,24.0320034 118.520001,24.7439962 118.328,25.496 C118.135999,26.2480038 118.04,27.0159961 118.04,27.8 C118.04,28.4400032 118.091999,29.0519971 118.196,29.636 C118.300001,30.2200029 118.487999,30.807997 118.76,31.4 C119.032001,31.992003 119.375998,32.4999979 119.792,32.924 C120.208002,33.3480021 120.755997,33.6959986 121.436,33.968 C122.116003,34.2400014 122.879996,34.376 123.728,34.376 C124.832006,34.376 125.767996,34.0840029 126.536,33.5 C127.304004,32.9159971 127.688,32.1120051 127.688,31.088 Z M136.64,27.8 L136.64,31.688 C136.64,32.888006 136.771999,33.6559983 137.036,33.992 C137.300001,34.3280017 137.927995,34.496 138.92,34.496 L138.92,35 L132.44,35 L132.44,34.496 C133.432005,34.496 134.059999,34.3280017 134.324,33.992 C134.588001,33.6559983 134.72,32.888006 134.72,31.688 L134.72,23.888 C134.72,22.687994 134.588001,21.9240016 134.324,21.596 C134.059999,21.2679984 133.432005,21.104 132.44,21.104 L132.44,20.6 L138.92,20.6 L138.92,21.104 C137.927995,21.104 137.300001,21.2679984 137.036,21.596 C136.771999,21.9240016 136.64,22.687994 136.64,23.888 L136.64,26.912 L144.8,26.912 L144.8,23.888 C144.8,22.687994 144.664001,21.9240016 144.392,21.596 C144.119999,21.2679984 143.488005,21.104 142.496,21.104 L142.496,20.6 L149,20.6 L149,21.104 C147.991995,21.104 147.356001,21.2679984 147.092,21.596 C146.827999,21.9240016 146.696,22.687994 146.696,23.888 L146.696,31.688 C146.696,32.9040061 146.827999,33.6759984 147.092,34.004 C147.356001,34.3320016 147.991995,34.496 149,34.496 L149,35 L142.496,35 L142.496,34.496 C143.488005,34.496 144.119999,34.3280017 144.392,33.992 C144.664001,33.6559983 144.8,32.888006 144.8,31.688 L144.8,27.8 L136.64,27.8 Z" id="ON/HIGH-Copy" fill="#524740"></path>
                </g>
                <g id="ON-Copy" transform="translate(201.000000, 121.000000)">
                    <rect id="Rectangle" fill="#CAEBF8" x="0" y="0" width="179" height="55"></rect>
                    <path d="M59.06,22.424 C60.6280078,23.9120074 61.412,25.7039895 61.412,27.8 C61.412,29.8960105 60.6280078,31.6879926 59.06,33.176 C57.4919922,34.6640074 55.612011,35.408 53.42,35.408 C51.211989,35.408 49.3240078,34.6640074 47.756,33.176 C46.1879922,31.6879926 45.404,29.8960105 45.404,27.8 C45.404,25.7039895 46.1879922,23.9120074 47.756,22.424 C49.3240078,20.9359926 51.211989,20.192 53.42,20.192 C55.612011,20.192 57.4919922,20.9359926 59.06,22.424 Z M56.036,21.752 C55.2839962,21.3359979 54.412005,21.128 53.42,21.128 C52.427995,21.128 51.5480038,21.331998 50.78,21.74 C50.0119962,22.148002 49.4120022,22.6879966 48.98,23.36 C48.5479978,24.0320034 48.2240011,24.7439962 48.008,25.496 C47.7919989,26.2480038 47.684,27.0159961 47.684,27.8 C47.684,28.5840039 47.7919989,29.3519962 48.008,30.104 C48.2240011,30.8560038 48.5479978,31.5639967 48.98,32.228 C49.4120022,32.8920033 50.0119962,33.427998 50.78,33.836 C51.5480038,34.244002 52.427995,34.448 53.42,34.448 C54.412005,34.448 55.2879962,34.244002 56.048,33.836 C56.8080038,33.427998 57.4039978,32.8920033 57.836,32.228 C58.2680022,31.5639967 58.5919989,30.8560038 58.808,30.104 C59.0240011,29.3519962 59.132,28.5840039 59.132,27.8 C59.132,27.0159961 59.0240011,26.2480038 58.808,25.496 C58.5919989,24.7439962 58.2680022,24.0320034 57.836,23.36 C57.4039978,22.6879966 56.8040038,22.152002 56.036,21.752 Z M67.82,21.488 L67.82,26.936 L69.02,26.936 C70.220006,26.936 70.9839984,26.8040013 71.312,26.54 C71.6400016,26.2759987 71.804,25.640005 71.804,24.632 L72.308,24.632 L72.308,30.128 L71.804,30.128 C71.804,29.119995 71.6400016,28.4840013 71.312,28.22 C70.9839984,27.9559987 70.220006,27.824 69.02,27.824 L67.82,27.824 L67.82,31.688 C67.82,32.888006 67.9519987,33.6559983 68.216,33.992 C68.4800013,34.3280017 69.107995,34.496 70.1,34.496 L70.1,35 L63.62,35 L63.62,34.496 C64.612005,34.496 65.2399987,34.3280017 65.504,33.992 C65.7680013,33.6559983 65.9,32.888006 65.9,31.688 L65.9,23.888 C65.9,22.687994 65.7680013,21.9240016 65.504,21.596 C65.2399987,21.2679984 64.612005,21.104 63.62,21.104 L63.62,20.6 L74.972,20.6 L75.164,23.768 L74.66,23.768 L74.54,23.288 C74.3639991,22.5999966 74.1160016,22.1280013 73.796,21.872 C73.4759984,21.6159987 72.8040051,21.488 71.78,21.488 L67.82,21.488 Z M81.02,21.488 L81.02,26.936 L82.22,26.936 C83.420006,26.936 84.1839984,26.8040013 84.512,26.54 C84.8400016,26.2759987 85.004,25.640005 85.004,24.632 L85.508,24.632 L85.508,30.128 L85.004,30.128 C85.004,29.119995 84.8400016,28.4840013 84.512,28.22 C84.1839984,27.9559987 83.420006,27.824 82.22,27.824 L81.02,27.824 L81.02,31.688 C81.02,32.888006 81.1519987,33.6559983 81.416,33.992 C81.6800013,34.3280017 82.307995,34.496 83.3,34.496 L83.3,35 L76.82,35 L76.82,34.496 C77.812005,34.496 78.4399987,34.3280017 78.704,33.992 C78.9680013,33.6559983 79.1,32.888006 79.1,31.688 L79.1,23.888 C79.1,22.687994 78.9680013,21.9240016 78.704,21.596 C78.4399987,21.2679984 77.812005,21.104 76.82,21.104 L76.82,20.6 L88.172,20.6 L88.364,23.768 L87.86,23.768 L87.74,23.288 C87.5639991,22.5999966 87.3160016,22.1280013 86.996,21.872 C86.6759984,21.6159987 86.0040051,21.488 84.98,21.488 L81.02,21.488 Z M97.22,20.504 L90.308,35.432 L89.348,35.096 L96.26,20.168 L97.22,20.504 Z M98.372,35 L98.372,34.496 C99.364005,34.496 99.9919987,34.3280017 100.256,33.992 C100.520001,33.6559983 100.652,32.888006 100.652,31.688 L100.652,23.888 C100.652,22.687994 100.520001,21.9240016 100.256,21.596 C99.9919987,21.2679984 99.364005,21.104 98.372,21.104 L98.372,20.6 L104.852,20.6 L104.852,21.104 C103.859995,21.104 103.232001,21.2679984 102.968,21.596 C102.703999,21.9240016 102.572,22.687994 102.572,23.888 L102.572,31.328 C102.572,32.528006 102.703999,33.2919984 102.968,33.62 C103.232001,33.9480016 103.859995,34.112 104.852,34.112 L107.732,34.112 C108.756005,34.112 109.427998,33.9840013 109.748,33.728 C110.068002,33.4719987 110.315999,32.9920035 110.492,32.288 L110.612,31.808 L111.116,31.808 L110.924,35 L98.372,35 Z M126.212,22.424 C127.780008,23.9120074 128.564,25.7039895 128.564,27.8 C128.564,29.8960105 127.780008,31.6879926 126.212,33.176 C124.643992,34.6640074 122.764011,35.408 120.572,35.408 C118.363989,35.408 116.476008,34.6640074 114.908,33.176 C113.339992,31.6879926 112.556,29.8960105 112.556,27.8 C112.556,25.7039895 113.339992,23.9120074 114.908,22.424 C116.476008,20.9359926 118.363989,20.192 120.572,20.192 C122.764011,20.192 124.643992,20.9359926 126.212,22.424 Z M123.188,21.752 C122.435996,21.3359979 121.564005,21.128 120.572,21.128 C119.579995,21.128 118.700004,21.331998 117.932,21.74 C117.163996,22.148002 116.564002,22.6879966 116.132,23.36 C115.699998,24.0320034 115.376001,24.7439962 115.16,25.496 C114.943999,26.2480038 114.836,27.0159961 114.836,27.8 C114.836,28.5840039 114.943999,29.3519962 115.16,30.104 C115.376001,30.8560038 115.699998,31.5639967 116.132,32.228 C116.564002,32.8920033 117.163996,33.427998 117.932,33.836 C118.700004,34.244002 119.579995,34.448 120.572,34.448 C121.564005,34.448 122.439996,34.244002 123.2,33.836 C123.960004,33.427998 124.555998,32.8920033 124.988,32.228 C125.420002,31.5639967 125.743999,30.8560038 125.96,30.104 C126.176001,29.3519962 126.284,28.5840039 126.284,27.8 C126.284,27.0159961 126.176001,26.2480038 125.96,25.496 C125.743999,24.7439962 125.420002,24.0320034 124.988,23.36 C124.555998,22.6879966 123.956004,22.152002 123.188,21.752 Z M139.388,24.776 L136.004,35.408 L135.692,35.408 L131.804,23.192 C131.515999,22.2799954 131.212002,21.7040012 130.892,21.464 C130.571998,21.2239988 129.924005,21.104 128.948,21.104 L128.948,20.6 L135.668,20.6 L135.668,21.104 C134.691995,21.104 134.080001,21.2359987 133.832,21.5 C133.583999,21.7640013 133.563999,22.2399966 133.772,22.928 L136.412,31.208 L139.772,20.6 L140.108,20.6 L143.468,31.184 L146.084,22.928 C146.292001,22.2559966 146.276001,21.7840014 146.036,21.512 C145.795999,21.2399986 145.252004,21.104 144.404,21.104 L144.404,20.6 L149.804,20.6 L149.804,21.104 C148.843995,21.104 148.196002,21.2399986 147.86,21.512 C147.523998,21.7840014 147.220001,22.3439958 146.948,23.192 L143.06,35.408 L142.748,35.408 L139.388,24.776 Z" id="OFF/LOW-Copy" fill="#524740"></path>
                </g>
                <g id="1.1V" transform="translate(115.000000, 110.000000)">
                    <path d="M7.768,17 L1.456,17 L1.456,16.496 C2.44800496,16.496 3.07999864,16.3280017 3.352,15.992 C3.62400136,15.6559983 3.76,14.888006 3.76,13.688 L3.76,9.896 C3.76,8.695994 3.62400136,7.92800168 3.352,7.592 C3.07999864,7.25599832 2.44800496,7.088 1.456,7.088 L1.456,6.608 L7.768,6.608 L7.768,7.088 C6.75999496,7.088 6.12400132,7.25199836 5.86,7.58 C5.59599868,7.90800164 5.464,8.67999392 5.464,9.896 L5.464,13.688 C5.464,14.9040061 5.59599868,15.6759984 5.86,16.004 C6.12400132,16.3320016 6.75999496,16.496 7.768,16.496 L7.768,17 Z M14.032,15.944 C14.032,16.2800017 13.8960014,16.5719988 13.624,16.82 C13.3519986,17.0680012 13.0320018,17.192 12.664,17.192 C12.2959982,17.192 11.9840013,17.0680012 11.728,16.82 C11.4719987,16.5719988 11.344,16.2800017 11.344,15.944 C11.344,15.5919982 11.4719987,15.2920012 11.728,15.044 C11.9840013,14.7959988 12.2959982,14.672 12.664,14.672 C13.0320018,14.672 13.3519986,14.7959988 13.624,15.044 C13.8960014,15.2920012 14.032,15.5919982 14.032,15.944 Z M23.992,17 L17.68,17 L17.68,16.496 C18.672005,16.496 19.3039986,16.3280017 19.576,15.992 C19.8480014,15.6559983 19.984,14.888006 19.984,13.688 L19.984,9.896 C19.984,8.695994 19.8480014,7.92800168 19.576,7.592 C19.3039986,7.25599832 18.672005,7.088 17.68,7.088 L17.68,6.608 L23.992,6.608 L23.992,7.088 C22.983995,7.088 22.3480013,7.25199836 22.084,7.58 C21.8199987,7.90800164 21.688,8.67999392 21.688,9.896 L21.688,13.688 C21.688,14.9040061 21.8199987,15.6759984 22.084,16.004 C22.3480013,16.3320016 22.983995,16.496 23.992,16.496 L23.992,17 Z M40.888,3.104 C39.9439953,3.104 39.3320014,3.21999884 39.052,3.452 C38.7719986,3.68400116 38.432002,4.26399536 38.032,5.192 L32.752,17.408 L32.44,17.408 L27.136,5.192 C26.735998,4.26399536 26.3960014,3.68400116 26.116,3.452 C25.8359986,3.21999884 25.2240047,3.104 24.28,3.104 L24.28,2.6 L30.928,2.6 L30.928,3.104 C29.935995,3.104 29.3000014,3.2439986 29.02,3.524 C28.7399986,3.8040014 28.7519985,4.27199672 29.056,4.928 L33.136,14.264 L37.168,4.928 C37.4720015,4.27199672 37.4840014,3.8040014 37.204,3.524 C36.9239986,3.2439986 36.288005,3.104 35.296,3.104 L35.296,2.6 L40.888,2.6 L40.888,3.104 Z" id="1.1V-Copy" fill="#1A80AA"></path>
                    <path d="M86,10.5 L45,10.5" id="Line-7-Copy" stroke="#23ABE3" stroke-width="2" stroke-linecap="square"></path>
                </g>
                <g id="2.2V" transform="translate(107.000000, 55.000000)">
                    <path d="M8.832,12.776 L5.136,15.608 L11.352,15.608 L10.752,18.896 L10.248,18.896 C10.248,18.095996 10.0800017,17.5800012 9.744,17.348 C9.40799832,17.1159988 8.640006,17 7.44,17 L2.496,17 L2.496,16.424 L6.744,13.088 C8.28000768,11.8719939 9.048,10.6560061 9.048,9.44 C9.048,8.75199656 8.81200236,8.208002 8.34,7.808 C7.86799764,7.407998 7.24000392,7.208 6.456,7.208 C5.54399544,7.208 4.84000248,7.55999648 4.344,8.264 C3.84799752,8.96800352 3.86399736,9.81599504 4.392,10.808 L3.672,11.552 C2.74399536,10.9919972 2.24400036,10.2840043 2.172,9.428 C2.09999964,8.57199572 2.463996,7.82000324 3.264,7.172 C4.064004,6.52399676 5.12799336,6.2 6.456,6.2 C7.68800616,6.2 8.75999544,6.49599704 9.672,7.088 C10.5840046,7.68000296 11.04,8.4559952 11.04,9.416 C11.04,9.76800176 10.9640008,10.1279982 10.812,10.496 C10.6599992,10.8640018 10.4760011,11.1759987 10.26,11.432 C10.0439989,11.6880013 9.82800108,11.9239989 9.612,12.14 C9.39599892,12.3560011 9.21600072,12.5199994 9.072,12.632 L8.832,12.776 Z M18.264,15.944 C18.264,16.2800017 18.1280014,16.5719988 17.856,16.82 C17.5839986,17.0680012 17.2640018,17.192 16.896,17.192 C16.5279982,17.192 16.2160013,17.0680012 15.96,16.82 C15.7039987,16.5719988 15.576,16.2800017 15.576,15.944 C15.576,15.5919982 15.7039987,15.2920012 15.96,15.044 C16.2160013,14.7959988 16.5279982,14.672 16.896,14.672 C17.2640018,14.672 17.5839986,14.7959988 17.856,15.044 C18.1280014,15.2920012 18.264,15.5919982 18.264,15.944 Z M28.824,12.776 L25.128,15.608 L31.344,15.608 L30.744,18.896 L30.24,18.896 C30.24,18.095996 30.0720017,17.5800012 29.736,17.348 C29.3999983,17.1159988 28.632006,17 27.432,17 L22.488,17 L22.488,16.424 L26.736,13.088 C28.2720077,11.8719939 29.04,10.6560061 29.04,9.44 C29.04,8.75199656 28.8040024,8.208002 28.332,7.808 C27.8599976,7.407998 27.2320039,7.208 26.448,7.208 C25.5359954,7.208 24.8320025,7.55999648 24.336,8.264 C23.8399975,8.96800352 23.8559974,9.81599504 24.384,10.808 L23.664,11.552 C22.7359954,10.9919972 22.2360004,10.2840043 22.164,9.428 C22.0919996,8.57199572 22.455996,7.82000324 23.256,7.172 C24.056004,6.52399676 25.1199934,6.2 26.448,6.2 C27.6800062,6.2 28.7519954,6.49599704 29.664,7.088 C30.5760046,7.68000296 31.032,8.4559952 31.032,9.416 C31.032,9.76800176 30.9560008,10.1279982 30.804,10.496 C30.6519992,10.8640018 30.4680011,11.1759987 30.252,11.432 C30.0359989,11.6880013 29.8200011,11.9239989 29.604,12.14 C29.3879989,12.3560011 29.2080007,12.5199994 29.064,12.632 L28.824,12.776 Z M48.888,3.104 C47.9439953,3.104 47.3320014,3.21999884 47.052,3.452 C46.7719986,3.68400116 46.432002,4.26399536 46.032,5.192 L40.752,17.408 L40.44,17.408 L35.136,5.192 C34.735998,4.26399536 34.3960014,3.68400116 34.116,3.452 C33.8359986,3.21999884 33.2240047,3.104 32.28,3.104 L32.28,2.6 L38.928,2.6 L38.928,3.104 C37.935995,3.104 37.3000014,3.2439986 37.02,3.524 C36.7399986,3.8040014 36.7519985,4.27199672 37.056,4.928 L41.136,14.264 L45.168,4.928 C45.4720015,4.27199672 45.4840014,3.8040014 45.204,3.524 C44.9239986,3.2439986 44.288005,3.104 43.296,3.104 L43.296,2.6 L48.888,2.6 L48.888,3.104 Z" id="2.2V-Copy" fill="#1A80AA"></path>
                    <path d="M94,10.5 L53,10.5" id="Line-7-Copy" stroke="#23ABE3" stroke-width="2" stroke-linecap="square"></path>
                    <path d="M271.931874,10.5 L93,10.5" id="Line-7-Copy-2" stroke="#EF7D3B" stroke-width="2" stroke-linecap="square"></path>
                    <path d="M271.931874,65.5 L93,65.5" id="Line-7-Copy-3" stroke="#EF7D3B" stroke-width="2" stroke-linecap="square"></path>
                </g>
                <g id="3.3V" transform="translate(108.000000, 0.000000)">
                    <path d="M6.488,14.24 C6.37599944,14.3360005 6.23600084,14.483999 6.068,14.684 C5.89999916,14.884001 5.74400072,15.0439994 5.6,15.164 C5.45599928,15.2840006 5.31200072,15.344 5.168,15.344 C5.03999936,15.344 4.92400052,15.2920005 4.82,15.188 C4.71599948,15.0839995 4.664,14.9520008 4.664,14.792 C4.664,14.5039986 4.87199792,14.2080015 5.288,13.904 L7.064,12.488 C7.52800232,12.1359982 7.90799852,11.6840028 8.204,11.132 C8.50000148,10.5799972 8.648,10.008003 8.648,9.416 C8.648,8.74399664 8.4080024,8.208002 7.928,7.808 C7.4479976,7.407998 6.81600392,7.208 6.032,7.208 C5.19999584,7.208 4.5040028,7.55999648 3.944,8.264 C3.3839972,8.96800352 3.39199712,9.81599504 3.968,10.808 L3.248,11.552 C2.31999536,10.9919972 1.82000036,10.2840043 1.748,9.428 C1.67599964,8.57199572 2.039996,7.82000324 2.84,7.172 C3.640004,6.52399676 4.70399336,6.2 6.032,6.2 C7.26400616,6.2 8.33599544,6.49599704 9.248,7.088 C10.1600046,7.68000296 10.616,8.4559952 10.616,9.416 C10.616,9.76800176 10.5400008,10.1279982 10.388,10.496 C10.2359992,10.8640018 10.0520011,11.1759987 9.836,11.432 C9.61999892,11.6880013 9.40400108,11.9239989 9.188,12.14 C8.97199892,12.3560011 8.79200072,12.5199994 8.648,12.632 L8.408,12.776 L7.304,13.616 C8.45600576,13.8560012 9.36799664,14.3279965 10.04,15.032 C10.7120034,15.7360035 11.048,16.5519954 11.048,17.48 C11.048,18.5840055 10.5880046,19.5279961 9.668,20.312 C8.7479954,21.0960039 7.61600672,21.488 6.272,21.488 C4.97599352,21.488 3.91200416,21.1760031 3.08,20.552 C2.24799584,19.9279969 1.832,19.3360028 1.832,18.776 C1.832,18.4079982 2.03999792,18.224 2.456,18.224 C2.6160008,18.224 2.7559994,18.2959993 2.876,18.44 C2.9960006,18.5840007 3.13199924,18.7839987 3.284,19.04 C3.43600076,19.2960013 3.58399928,19.4959993 3.728,19.64 C4.32000296,20.2640031 5.10399512,20.576 6.08,20.576 C7.02400472,20.576 7.73199764,20.2920028 8.204,19.724 C8.67600236,19.1559972 8.912,18.4080046 8.912,17.48 C8.912,16.7119962 8.71600196,16.024003 8.324,15.416 C7.93199804,14.807997 7.32000416,14.4160009 6.488,14.24 Z M17.552,15.944 C17.552,16.2800017 17.4160014,16.5719988 17.144,16.82 C16.8719986,17.0680012 16.5520018,17.192 16.184,17.192 C15.8159982,17.192 15.5040013,17.0680012 15.248,16.82 C14.9919987,16.5719988 14.864,16.2800017 14.864,15.944 C14.864,15.5919982 14.9919987,15.2920012 15.248,15.044 C15.5040013,14.7959988 15.8159982,14.672 16.184,14.672 C16.5520018,14.672 16.8719986,14.7959988 17.144,15.044 C17.4160014,15.2920012 17.552,15.5919982 17.552,15.944 Z M26.192,14.24 C26.0799994,14.3360005 25.9400008,14.483999 25.772,14.684 C25.6039992,14.884001 25.4480007,15.0439994 25.304,15.164 C25.1599993,15.2840006 25.0160007,15.344 24.872,15.344 C24.7439994,15.344 24.6280005,15.2920005 24.524,15.188 C24.4199995,15.0839995 24.368,14.9520008 24.368,14.792 C24.368,14.5039986 24.5759979,14.2080015 24.992,13.904 L26.768,12.488 C27.2320023,12.1359982 27.6119985,11.6840028 27.908,11.132 C28.2040015,10.5799972 28.352,10.008003 28.352,9.416 C28.352,8.74399664 28.1120024,8.208002 27.632,7.808 C27.1519976,7.407998 26.5200039,7.208 25.736,7.208 C24.9039958,7.208 24.2080028,7.55999648 23.648,8.264 C23.0879972,8.96800352 23.0959971,9.81599504 23.672,10.808 L22.952,11.552 C22.0239954,10.9919972 21.5240004,10.2840043 21.452,9.428 C21.3799996,8.57199572 21.743996,7.82000324 22.544,7.172 C23.344004,6.52399676 24.4079934,6.2 25.736,6.2 C26.9680062,6.2 28.0399954,6.49599704 28.952,7.088 C29.8640046,7.68000296 30.32,8.4559952 30.32,9.416 C30.32,9.76800176 30.2440008,10.1279982 30.092,10.496 C29.9399992,10.8640018 29.7560011,11.1759987 29.54,11.432 C29.3239989,11.6880013 29.1080011,11.9239989 28.892,12.14 C28.6759989,12.3560011 28.4960007,12.5199994 28.352,12.632 L28.112,12.776 L27.008,13.616 C28.1600058,13.8560012 29.0719966,14.3279965 29.744,15.032 C30.4160034,15.7360035 30.752,16.5519954 30.752,17.48 C30.752,18.5840055 30.2920046,19.5279961 29.372,20.312 C28.4519954,21.0960039 27.3200067,21.488 25.976,21.488 C24.6799935,21.488 23.6160042,21.1760031 22.784,20.552 C21.9519958,19.9279969 21.536,19.3360028 21.536,18.776 C21.536,18.4079982 21.7439979,18.224 22.16,18.224 C22.3200008,18.224 22.4599994,18.2959993 22.58,18.44 C22.7000006,18.5840007 22.8359992,18.7839987 22.988,19.04 C23.1400008,19.2960013 23.2879993,19.4959993 23.432,19.64 C24.024003,20.2640031 24.8079951,20.576 25.784,20.576 C26.7280047,20.576 27.4359976,20.2920028 27.908,19.724 C28.3800024,19.1559972 28.616,18.4080046 28.616,17.48 C28.616,16.7119962 28.420002,16.024003 28.028,15.416 C27.635998,14.807997 27.0240042,14.4160009 26.192,14.24 Z M47.888,3.104 C46.9439953,3.104 46.3320014,3.21999884 46.052,3.452 C45.7719986,3.68400116 45.432002,4.26399536 45.032,5.192 L39.752,17.408 L39.44,17.408 L34.136,5.192 C33.735998,4.26399536 33.3960014,3.68400116 33.116,3.452 C32.8359986,3.21999884 32.2240047,3.104 31.28,3.104 L31.28,2.6 L37.928,2.6 L37.928,3.104 C36.935995,3.104 36.3000014,3.2439986 36.02,3.524 C35.7399986,3.8040014 35.7519985,4.27199672 36.056,4.928 L40.136,14.264 L44.168,4.928 C44.4720015,4.27199672 44.4840014,3.8040014 44.204,3.524 C43.9239986,3.2439986 43.288005,3.104 42.296,3.104 L42.296,2.6 L47.888,2.6 L47.888,3.104 Z" id="3.3V-Copy" fill="#1A80AA"></path>
                    <path d="M271.130641,10.5 L52,10.5" id="Line-7" stroke="#23ABE3" stroke-width="2" stroke-linecap="square"></path>
                </g>
            </g>
            <g id="Graph-Lines" transform="translate(174.000000, 0.000000)" stroke="#3D3530" stroke-linecap="square" stroke-width="3">
                <path d="M0.634456872,177.5 L205.521,177.5" id="Line-5"></path>
                <path d="M26.352001,1 L26.352001,190.683582" id="Line-6"></path>
            </g>
        </g>
        <rect id="Rectangle-Copy" stroke="#3D3530" stroke-width="2" fill="#F8FAE4" x="1" y="236" width="898" height="43"></rect>
        <text id="CMOS-Digital-Logic-L" font-family="Wavehaus-66Book, Wavehaus" font-size="24" font-weight="300" letter-spacing="0.6666667" fill="#23ABE3">
            <tspan x="580.645332" y="265">CMOS Digital Logic Levels</tspan>
        </text>
    </g>
</svg>