<?xml version="1.0" encoding="UTF-8"?>
<svg width="382px" height="252px" viewBox="0 0 382 252" version="1.1" xmlns="http://www.w3.org/2000/svg" xmlns:xlink="http://www.w3.org/1999/xlink">
    <!-- Generator: Sketch 46 (44423) - http://www.bohemiancoding.com/sketch -->
    <title>Complex_AC_Waveform</title>
    <desc>Created with Sketch.</desc>
    <defs></defs>
    <g id="Page-1" stroke="none" stroke-width="1" fill="none" fill-rule="evenodd">
        <g id="Desktop-HD" transform="translate(-1391.000000, -542.000000)">
            <g id="Complex-Waveform" transform="translate(1386.000000, 535.000000)">
                <g id="Complex_AC_Waveform">
                    <path d="M89,12 L89,212" id="Line-7-Copy-2" stroke="#524740" stroke-width="2" stroke-linecap="square"></path>
                    <path d="M386,111 L73,111" id="Line-7-Copy-6" stroke="#524740" stroke-width="2" stroke-linecap="square"></path>
                    <text id="Complex-Waveform" font-family="Lato-Regular, Lato" font-size="18" font-weight="normal" letter-spacing="0.695049703" fill="#555555">
                        <tspan x="145.283602" y="255">Complex Waveform</tspan>
                    </text>
                    <text id="Voltage" transform="translate(11.500000, 110.000000) rotate(-90.000000) translate(-11.500000, -110.000000) " font-family="Lato-Regular, Lato" font-size="18" font-weight="normal" letter-spacing="0.695049703" fill="#555555">
                        <tspan x="-20.2743479" y="117">Voltage</tspan>
                    </text>
                    <text id="+" font-family="Lato-Regular, Lato" font-size="18" font-weight="normal" letter-spacing="0.695049703" fill="#555555">
                        <tspan x="47.8649503" y="18">+</tspan>
                    </text>
                    <text id="0V" font-family="Lato-Regular, Lato" font-size="18" font-weight="normal" letter-spacing="0.695049703" fill="#555555">
                        <tspan x="40.9839006" y="117">0V</tspan>
                    </text>
                    <text id="-" font-family="Lato-Regular, Lato" font-size="18" font-weight="normal" letter-spacing="0.695049703" fill="#555555">
                        <tspan x="51.6179503" y="217">-</tspan>
                    </text>
                    <path d="M89.7460938,110.019531 C104.962263,72.7532522 116.380232,48.6777042 124,37.7928875 C135.990342,20.664719 148.054026,63 160,63 C171.969347,63 183.336965,20.5976292 195,37.7928875 C199.760945,44.8121307 204.944943,53.2640298 209.654846,63.1485848 C213.817878,71.8854356 220.017565,87.5090844 228.253906,110.019531 C245.198814,151.164281 257.828194,177.391256 266.142045,188.700454 C277.561007,204.233485 287.846992,163 299,163 C310.36674,163 322.733481,203.932963 334.100221,187.798889 C342.07795,176.475214 354.044543,150.548762 370,110.019531" id="Path-2" stroke="#23ABE3" stroke-width="2"></path>
                </g>
            </g>
        </g>
    </g>
</svg>