<?xml version="1.0" encoding="UTF-8"?>
<svg width="423px" height="191px" viewBox="0 0 423 191" version="1.1" xmlns="http://www.w3.org/2000/svg" xmlns:xlink="http://www.w3.org/1999/xlink">
    <!-- Generator: Sketch 46 (44423) - http://www.bohemiancoding.com/sketch -->
    <title>Battery_EMF</title>
    <desc>Created with Sketch.</desc>
    <defs>
        <path d="M0,161.052908 C0,165.64713 13.407669,169.371482 29.9468668,169.371482 C46.4860647,169.371482 59.8937336,165.64713 59.8937336,161.052908 L59.8937336,11.3185741 L0,11.3185741 L0,161.052908 Z" id="path-1"></path>
        <ellipse id="path-2" cx="29.9468668" cy="11.3185741" rx="29.9468668" ry="8.31857412"></ellipse>
        <path d="M19.9645779,9.65485929 C19.9645779,11.0331258 24.4338009,12.1504315 29.9468668,12.1504315 C35.4599328,12.1504315 39.9291558,11.0331258 39.9291558,9.65485929 L39.9291558,3 L19.9645779,3 L19.9645779,9.65485929 Z" id="path-3"></path>
        <ellipse id="path-4" cx="29.9468668" cy="3" rx="9.98228894" ry="2.49557223"></ellipse>
    </defs>
    <g id="Page-1" stroke="none" stroke-width="1" fill="none" fill-rule="evenodd">
        <g id="Desktop-HD" transform="translate(-221.000000, -636.000000)">
            <g id="Battery_EMF" transform="translate(219.000000, 641.000000)">
                <g id="Battery" transform="translate(171.000000, 2.000000)">
                    <g id="Combined-Shape">
                        <use fill="#EEEEEE" fill-rule="evenodd" xlink:href="#path-1"></use>
                        <path stroke="#23ABE3" stroke-width="1" d="M59.3937336,11.8185741 L0.5,11.8185741 L0.5,161.052908 C0.5,165.200591 13.7152079,168.871482 29.9468668,168.871482 C46.1785258,168.871482 59.3937336,165.200591 59.3937336,161.052908 L59.3937336,11.8185741 Z"></path>
                    </g>
                    <g id="Oval">
                        <use fill="#EEEEEE" fill-rule="evenodd" xlink:href="#path-2"></use>
                        <ellipse stroke="#23ABE3" stroke-width="1" cx="29.9468668" cy="11.3185741" rx="29.4468668" ry="7.81857412"></ellipse>
                    </g>
                    <g id="Combined-Shape">
                        <use fill="#F8E71C" fill-rule="evenodd" xlink:href="#path-3"></use>
                        <path stroke="#979797" stroke-width="1" d="M39.4291558,3.5 L20.4645779,3.5 L20.4645779,9.65485929 C20.4645779,9.9889054 21.3713385,10.5248611 23.0095904,10.9344241 C24.826757,11.3887157 27.3018196,11.6504315 29.9468668,11.6504315 C32.5919141,11.6504315 35.0669767,11.3887157 36.8841432,10.9344241 C38.5223952,10.5248611 39.4291558,9.9889054 39.4291558,9.65485929 L39.4291558,3.5 Z"></path>
                    </g>
                    <g id="Oval-2">
                        <use fill="#F8E71C" fill-rule="evenodd" xlink:href="#path-4"></use>
                        <ellipse stroke="#979797" stroke-width="1" cx="29.9468668" cy="3" rx="9.48228894" ry="1.99557223"></ellipse>
                    </g>
                    <text id="+" font-family="Lato-Regular, Lato" font-size="24" font-weight="normal" letter-spacing="0.926732957" fill="#555555">
                        <tspan x="4.55892246" y="41">+</tspan>
                    </text>
                    <text id="-" font-family="Lato-Regular, Lato" font-size="24" font-weight="normal" letter-spacing="0.926732957" fill="#555555">
                        <tspan x="6.73349281" y="162">-</tspan>
                    </text>
                </g>
                <text id="1.5V" font-family="Lato-Regular, Lato" font-size="18" font-weight="normal" letter-spacing="0.695049703" fill="#555555">
                    <tspan x="0.905801188" y="21">1.5V</tspan>
                </text>
                <text id="0V" font-family="Lato-Regular, Lato" font-size="18" font-weight="normal" letter-spacing="0.695049703" fill="#555555">
                    <tspan x="16.9839006" y="170">0V</tspan>
                </text>
                <text id="Electromagnetic-Forc" font-family="Lato-Regular, Lato" font-size="18" font-weight="normal" letter-spacing="0.695049524" fill="#555555">
                    <tspan x="12.7436533" y="84">Electromagnetic</tspan>
                    <tspan x="23.5391533" y="106">Force in Volts</tspan>
                </text>
                <path d="M52.5,15 L119.5,15" id="Line-7" stroke="#B09679" stroke-width="2" stroke-linecap="square"></path>
                <path d="M86,15.6176339 L86,48.5" id="Line-7-Copy-2" stroke="#B09679" stroke-width="2" stroke-linecap="square"></path>
                <path d="M86,130.617634 L86,163.5" id="Line-7-Copy-3" stroke="#B09679" stroke-width="2" stroke-linecap="square"></path>
                <path d="M52.5,164 L119.5,164" id="Line-7-Copy" stroke="#B09679" stroke-width="2" stroke-linecap="square"></path>
                <path d="M200.5,164.5 L200.5,19.5" id="Line-8" stroke="#B09679" stroke-width="3" stroke-linecap="square"></path>
                <path id="Line-8-decoration-1" d="M200.5,19.5 L197.5,30.3 L203.5,30.3 L200.5,19.5 Z" stroke="#B09679" stroke-width="3" stroke-linecap="square"></path>
                <path d="M420,19.5 L420,164.5" id="Line-8-Copy" stroke="#B09679" stroke-width="3" stroke-linecap="square"></path>
                <path id="Line-8-Copy-decoration-1" d="M420,164.5 L423,153.7 L417,153.7 L420,164.5 Z" stroke="#B09679" stroke-width="3" stroke-linecap="square"></path>
                <path d="M374,180.5 L229,180.5" id="Line-8-Copy-2" stroke="#B09679" stroke-width="3" stroke-linecap="square"></path>
                <path id="Line-8-Copy-2-decoration-1" d="M229,180.5 L239.8,183.5 L239.8,177.5 L229,180.5 Z" stroke="#B09679" stroke-width="3" stroke-linecap="square"></path>
                <path d="M237,0.5 L382,0.5" id="Line-8-Copy-3" stroke="#B09679" stroke-width="3" stroke-linecap="square"></path>
                <path id="Line-8-Copy-3-decoration-1" d="M382,0.5 L371.2,-2.5 L371.2,3.5 L382,0.5 Z" stroke="#B09679" stroke-width="3" stroke-linecap="square"></path>
                <g id="Potential" transform="translate(234.000000, 31.000000)">
                    <text id="Potential-Difference" font-family="Lato-Regular, Lato" font-size="18" font-weight="normal" letter-spacing="0.695049524" fill="#555555">
                        <tspan x="6.4758019" y="53">Potential </tspan>
                        <tspan x="0.0307771406" y="75">Difference</tspan>
                    </text>
                    <path d="M47,0.617633905 L47,33.5" id="Line-7-Copy-5" stroke="#B09679" stroke-width="2" stroke-linecap="square"></path>
                    <path d="M47,86.6176339 L47,119.5" id="Line-7-Copy-4" stroke="#B09679" stroke-width="2" stroke-linecap="square"></path>
                </g>
                <g id="Charge-Carriers" transform="translate(212.000000, 14.000000)" fill="#23ABE3">
                    <circle id="Oval-3-Copy-14" cx="18.5" cy="5.5" r="5.5"></circle>
                    <circle id="Oval-3-Copy" cx="5.5" cy="5.5" r="5.5"></circle>
                    <circle id="Oval-3-Copy-16" cx="44.5" cy="5.5" r="5.5"></circle>
                    <circle id="Oval-3-Copy-15" cx="31.5" cy="5.5" r="5.5"></circle>
                    <circle id="Oval-3-Copy-20" cx="70.5" cy="5.5" r="5.5"></circle>
                    <circle id="Oval-3-Copy-19" cx="57.5" cy="5.5" r="5.5"></circle>
                    <circle id="Oval-3-Copy-18" cx="96.5" cy="5.5" r="5.5"></circle>
                    <circle id="Oval-3-Copy-17" cx="83.5" cy="5.5" r="5.5"></circle>
                    <circle id="Oval-3-Copy-29" cx="109.5" cy="5.5" r="5.5"></circle>
                    <circle id="Oval-3-Copy-28" cx="135.5" cy="5.5" r="5.5"></circle>
                    <circle id="Oval-3-Copy-27" cx="122.5" cy="5.5" r="5.5"></circle>
                    <circle id="Oval-3-Copy-26" cx="161.5" cy="5.5" r="5.5"></circle>
                    <circle id="Oval-3-Copy-25" cx="148.5" cy="5.5" r="5.5"></circle>
                    <circle id="Oval-3-Copy-23" cx="174.5" cy="8.5" r="5.5"></circle>
                    <circle id="Oval-3-Copy-40" cx="70.5" cy="148.5" r="5.5"></circle>
                    <circle id="Oval-3-Copy-39" cx="57.5" cy="148.5" r="5.5"></circle>
                    <circle id="Oval-3-Copy-38" cx="96.5" cy="148.5" r="5.5"></circle>
                    <circle id="Oval-3-Copy-37" cx="83.5" cy="148.5" r="5.5"></circle>
                    <circle id="Oval-3-Copy-36" cx="109.5" cy="148.5" r="5.5"></circle>
                    <circle id="Oval-3-Copy-35" cx="135.5" cy="148.5" r="5.5"></circle>
                    <circle id="Oval-3-Copy-34" cx="122.5" cy="148.5" r="5.5"></circle>
                    <circle id="Oval-3-Copy-33" cx="161.5" cy="148.5" r="5.5"></circle>
                    <circle id="Oval-3-Copy-32" cx="148.5" cy="148.5" r="5.5"></circle>
                    <circle id="Oval-3-Copy-30" cx="174.5" cy="148.5" r="5.5"></circle>
                    <circle id="Oval-3-Copy-2" cx="5.5" cy="18.5" r="5.5"></circle>
                    <circle id="Oval-3-Copy-5" cx="5.5" cy="31.5" r="5.5"></circle>
                    <circle id="Oval-3-Copy-4" cx="5.5" cy="44.5" r="5.5"></circle>
                    <circle id="Oval-3-Copy-3" cx="5.5" cy="57.5" r="5.5"></circle>
                    <circle id="Oval-3-Copy-11" cx="5.5" cy="70.5" r="5.5"></circle>
                    <circle id="Oval-3-Copy-10" cx="5.5" cy="83.5" r="5.5"></circle>
                    <circle id="Oval-3-Copy-9" cx="5.5" cy="96.5" r="5.5"></circle>
                    <circle id="Oval-3-Copy-8" cx="5.5" cy="109.5" r="5.5"></circle>
                    <circle id="Oval-3-Copy-7" cx="5.5" cy="122.5" r="5.5"></circle>
                    <circle id="Oval-3-Copy-6" cx="5.5" cy="135.5" r="5.5"></circle>
                    <circle id="Oval-3-Copy-50" cx="184.5" cy="18.5" r="5.5"></circle>
                    <circle id="Oval-3-Copy-49" cx="187.5" cy="31.5" r="5.5"></circle>
                    <circle id="Oval-3-Copy-48" cx="187.5" cy="44.5" r="5.5"></circle>
                    <circle id="Oval-3-Copy-47" cx="187.5" cy="57.5" r="5.5"></circle>
                    <circle id="Oval-3-Copy-46" cx="187.5" cy="70.5" r="5.5"></circle>
                    <circle id="Oval-3-Copy-45" cx="187.5" cy="83.5" r="5.5"></circle>
                    <circle id="Oval-3-Copy-44" cx="187.5" cy="96.5" r="5.5"></circle>
                    <circle id="Oval-3-Copy-43" cx="187.5" cy="109.5" r="5.5"></circle>
                    <circle id="Oval-3-Copy-42" cx="187.5" cy="122.5" r="5.5"></circle>
                    <circle id="Oval-3-Copy-41" cx="187.5" cy="135.5" r="5.5"></circle>
                    <circle id="Oval-3-Copy-68" cx="187.5" cy="148.5" r="5.5"></circle>
                    <circle id="Oval-3-Copy-13" cx="5.5" cy="148.5" r="5.5"></circle>
                    <circle id="Oval-3-Copy-12" cx="18.5" cy="148.5" r="5.5"></circle>
                    <circle id="Oval-3-Copy-22" cx="31.5" cy="148.5" r="5.5"></circle>
                    <circle id="Oval-3-Copy-21" cx="44.5" cy="148.5" r="5.5"></circle>
                </g>
                <g id="Water-Wheel" transform="translate(329.000000, 12.000000)">
                    <path d="M40,0.5 L40,78.5" id="Line-5" stroke="#B09679" stroke-width="4" stroke-linecap="square"></path>
                    <path d="M40,0.5 L40,78.5" id="Line-5-Copy" stroke="#B09679" stroke-width="4" stroke-linecap="square" transform="translate(40.000000, 39.500000) rotate(-270.000000) translate(-40.000000, -39.500000) "></path>
                    <path d="M40,0.5 L40,78.5" id="Line-5-Copy-2" stroke="#B09679" stroke-width="4" stroke-linecap="square" transform="translate(40.000000, 39.500000) rotate(-225.000000) translate(-40.000000, -39.500000) "></path>
                    <path d="M11.9228355,67.0771645 L67.0771645,11.9228355" id="Line-5-Copy-3" stroke="#B09679" stroke-width="4" stroke-linecap="square"></path>
                    <circle id="Oval-Copy-2" stroke="#555555" stroke-width="2" cx="39.5" cy="39.5" r="38.5"></circle>
                    <circle id="Oval" fill="#B09679" cx="39.5" cy="39.5" r="22.5"></circle>
                    <circle id="Oval-Copy" fill="#555555" cx="39.5" cy="39.5" r="7.5"></circle>
                </g>
            </g>
        </g>
    </g>
</svg>