<?xml version="1.0" encoding="UTF-8"?>
<svg width="425px" height="130px" viewBox="0 0 425 130" version="1.1" xmlns="http://www.w3.org/2000/svg" xmlns:xlink="http://www.w3.org/1999/xlink">
    <!-- Generator: Sketch 54.1 (76490) - https://sketchapp.com -->
    <title>Meadow_F7_Micro_Top</title>
    <desc>Created with Sketch.</desc>
    <g id="Page-1" stroke="none" stroke-width="1" fill="none" fill-rule="evenodd">
        <g id="Meadow-Boards" transform="translate(-10.000000, -180.000000)">
            <g id="Meadow_F7_Micro_Top" transform="translate(10.000000, 180.000000)">
                <rect id="Rectangle-2-Copy" fill="#555555" x="7" y="0" width="417.6" height="129.6" rx="14"></rect>
                <g id="Board">
                    <g id="Bolt-Holes" transform="translate(14.000000, 7.000000)" fill="#FFFFFF" stroke="#F8E71C" stroke-width="2">
                        <circle id="Oval" cx="7.4" cy="7.4" r="8.2"></circle>
                        <circle id="Oval-Copy" cx="396.2" cy="7.4" r="8.2"></circle>
                        <circle id="Oval-Copy-3" cx="7.4" cy="108.2" r="8.2"></circle>
                        <circle id="Oval-Copy-2" cx="396.2" cy="108.2" r="8.2"></circle>
                    </g>
                    <g id="Short-Header-Holes" transform="translate(132.000000, 7.000000)" fill="#FFFFFF" stroke="#F8E71C" stroke-width="2">
                        <circle id="Oval-Copy-9" cx="4.2" cy="3.8" r="4.6"></circle>
                        <circle id="Oval-Copy-10" cx="18.6307692" cy="3.8" r="4.6"></circle>
                        <circle id="Oval-Copy-11" cx="33.0615385" cy="3.8" r="4.6"></circle>
                        <circle id="Oval-Copy-12" cx="47.4923077" cy="3.8" r="4.6"></circle>
                        <circle id="Oval-Copy-13" cx="61.9230769" cy="3.8" r="4.6"></circle>
                        <circle id="Oval-Copy-14" cx="76.3538462" cy="3.8" r="4.6"></circle>
                        <circle id="Oval-Copy-15" cx="90.7846154" cy="3.8" r="4.6"></circle>
                        <circle id="Oval-Copy-16" cx="105.215385" cy="3.8" r="4.6"></circle>
                        <circle id="Oval-Copy-17" cx="134.076923" cy="3.8" r="4.6"></circle>
                        <circle id="Oval-Copy-18" cx="162.938462" cy="3.8" r="4.6"></circle>
                        <circle id="Oval-Copy-21" cx="119.646154" cy="3.8" r="4.6"></circle>
                        <circle id="Oval-Copy-20" cx="148.507692" cy="3.8" r="4.6"></circle>
                        <circle id="Oval-Copy-19" cx="177.369231" cy="3.8" r="4.6"></circle>
                        <circle id="Oval-Copy-5" cx="191.8" cy="3.8" r="4.6"></circle>
                    </g>
                    <g id="Long-Header-Holes" transform="translate(75.000000, 115.000000)" fill="#FFFFFF" stroke="#F8E71C" stroke-width="2">
                        <circle id="Oval-Copy-4" cx="4" cy="3.8" r="4.6"></circle>
                        <circle id="Oval-Copy-6" cx="18.4" cy="3.8" r="4.6"></circle>
                        <circle id="Oval-Copy-7" cx="32.8" cy="3.8" r="4.6"></circle>
                        <circle id="Oval-Copy-8" cx="47.2" cy="3.8" r="4.6"></circle>
                        <circle id="Oval-Copy-9" cx="61.6" cy="3.8" r="4.6"></circle>
                        <circle id="Oval-Copy-10" cx="76" cy="3.8" r="4.6"></circle>
                        <circle id="Oval-Copy-11" cx="90.4" cy="3.8" r="4.6"></circle>
                        <circle id="Oval-Copy-12" cx="104.8" cy="3.8" r="4.6"></circle>
                        <circle id="Oval-Copy-13" cx="119.2" cy="3.8" r="4.6"></circle>
                        <circle id="Oval-Copy-14" cx="133.6" cy="3.8" r="4.6"></circle>
                        <circle id="Oval-Copy-15" cx="148" cy="3.8" r="4.6"></circle>
                        <circle id="Oval-Copy-16" cx="162.4" cy="3.8" r="4.6"></circle>
                        <circle id="Oval-Copy-17" cx="191.2" cy="3.8" r="4.6"></circle>
                        <circle id="Oval-Copy-18" cx="220" cy="3.8" r="4.6"></circle>
                        <circle id="Oval-Copy-21" cx="176.8" cy="3.8" r="4.6"></circle>
                        <circle id="Oval-Copy-20" cx="205.6" cy="3.8" r="4.6"></circle>
                        <circle id="Oval-Copy-19" cx="234.4" cy="3.8" r="4.6"></circle>
                        <circle id="Oval-Copy-5" cx="248.8" cy="3.8" r="4.6"></circle>
                    </g>
                    <g id="MCU" transform="translate(212.000000, 36.000000)">
                        <rect id="Rectangle" fill="#333333" x="0" y="0" width="57" height="57"></rect>
                        <path d="M6.38671875,4.91601562 C7.30469209,4.91601562 8.10546533,5.11132617 8.7890625,5.50195312 C8.9296882,5.58398479 9,5.69335869 9,5.83007812 C9,5.91601605 8.97460963,6.01171822 8.92382812,6.1171875 C8.84570273,6.29296963 8.73828193,6.38085938 8.6015625,6.38085938 C8.54296846,6.38085938 8.47851598,6.36132832 8.40820312,6.32226562 C7.80663762,5.96288883 7.13281623,5.78320312 6.38671875,5.78320312 C5.92187268,5.78320312 5.55957161,5.88671771 5.29980469,6.09375 C5.04003776,6.30078229 4.91015625,6.58398258 4.91015625,6.94335938 C4.91015625,7.09961016 4.94824181,7.23242133 5.02441406,7.34179688 C5.10058632,7.45117242 5.21288988,7.54296838 5.36132812,7.6171875 C5.49804756,7.68750035 5.65527255,7.74414041 5.83300781,7.78710938 C6.01074308,7.83007834 6.26562334,7.88085908 6.59765625,7.93945312 C6.91797035,7.9941409 7.1855458,8.04589819 7.40039062,8.09472656 C7.61523545,8.14355493 7.82031152,8.20703086 8.015625,8.28515625 C8.39453314,8.43750076 8.69042862,8.65429547 8.90332031,8.93554688 C9.116212,9.21679828 9.22265625,9.59960695 9.22265625,10.0839844 C9.22265625,10.4941427 9.12597753,10.8525375 8.93261719,11.1591797 C8.73925685,11.4658218 8.45019724,11.7041007 8.06542969,11.8740234 C7.68066214,12.0439462 7.20703406,12.1289062 6.64453125,12.1289062 C6.19921652,12.1289062 5.763674,12.0693365 5.33789062,11.9501953 C4.91210725,11.8310541 4.52539236,11.6640636 4.17773438,11.4492188 C4.04492121,11.3671871 3.97851562,11.2597663 3.97851562,11.1269531 C3.97851562,11.0371089 4.0058591,10.9394537 4.06054688,10.8339844 C4.15039107,10.6621085 4.25781187,10.5761719 4.3828125,10.5761719 C4.44921908,10.5761719 4.51562467,10.597656 4.58203125,10.640625 C4.87500146,10.8281259 5.20019353,10.9785151 5.55761719,11.0917969 C5.91504085,11.2050787 6.27734191,11.2617188 6.64453125,11.2617188 C7.19531525,11.2617188 7.61230327,11.1552745 7.89550781,10.9423828 C8.17871235,10.7294911 8.3203125,10.4433612 8.3203125,10.0839844 C8.3203125,9.84179566 8.25878968,9.64453201 8.13574219,9.4921875 C8.0126947,9.33984299 7.83789176,9.21484424 7.61132812,9.1171875 C7.45898361,9.05078092 7.29492275,8.99707052 7.11914062,8.95605469 C6.9433585,8.91503886 6.70312652,8.86718777 6.3984375,8.8125 C6.07031086,8.75390596 5.79687609,8.69824245 5.578125,8.64550781 C5.35937391,8.59277317 5.15625094,8.52343793 4.96875,8.4375 C4.66406098,8.30078057 4.42773521,8.11328244 4.25976562,7.875 C4.09179604,7.63671756 4.0078125,7.32617379 4.0078125,6.94335938 C4.0078125,6.52538854 4.10742088,6.16406402 4.30664062,5.859375 C4.50586037,5.55468598 4.78515445,5.32128987 5.14453125,5.15917969 C5.50390805,4.9970695 5.91796641,4.91601562 6.38671875,4.91601562 Z M16.3066406,5.04492188 C16.4394538,5.04492188 16.5341794,5.07714812 16.5908203,5.14160156 C16.6474612,5.20605501 16.6757812,5.31445236 16.6757812,5.46679688 C16.6757812,5.61914139 16.6474612,5.72753874 16.5908203,5.79199219 C16.5341794,5.85644563 16.4394538,5.88867188 16.3066406,5.88867188 L14.2324219,5.88867188 L14.2324219,11.6777344 C14.2324219,11.8144538 14.2001956,11.9121091 14.1357422,11.9707031 C14.0712887,12.0292972 13.9589852,12.0585938 13.7988281,12.0585938 L13.7871094,12.0585938 C13.6269523,12.0585938 13.5146488,12.0292972 13.4501953,11.9707031 C13.3857419,11.9121091 13.3535156,11.8144538 13.3535156,11.6777344 L13.3535156,5.88867188 L11.2792969,5.88867188 C11.1464837,5.88867188 11.0517581,5.85644563 10.9951172,5.79199219 C10.9384763,5.72753874 10.9101562,5.61914139 10.9101562,5.46679688 C10.9101562,5.31445236 10.9384763,5.20605501 10.9951172,5.14160156 C11.0517581,5.07714812 11.1464837,5.04492188 11.2792969,5.04492188 L16.3066406,5.04492188 Z M23.1210938,4.98632812 C23.2656257,4.98632812 23.3740231,5.01464815 23.4462891,5.07128906 C23.518555,5.12792997 23.5566406,5.2265618 23.5605469,5.3671875 L23.7363281,11.6777344 C23.7402344,11.8144538 23.7099613,11.9121091 23.6455078,11.9707031 C23.5810544,12.0292972 23.4687508,12.0585938 23.3085938,12.0585938 L23.296875,12.0585938 C23.1367179,12.0585938 23.0253909,12.0292972 22.9628906,11.9707031 C22.9003903,11.9121091 22.8671875,11.8144538 22.8632812,11.6777344 L22.7402344,6.9140625 L21.5273438,9.52734375 C21.4648434,9.66406318 21.3925785,9.7607419 21.3105469,9.81738281 C21.2285152,9.87402372 21.1210944,9.90234375 20.9882812,9.90234375 C20.8554681,9.90234375 20.7480473,9.87402372 20.6660156,9.81738281 C20.583984,9.7607419 20.5117191,9.66406318 20.4492188,9.52734375 L19.2363281,6.9140625 L19.1132812,11.6777344 C19.109375,11.8144538 19.0761722,11.9121091 19.0136719,11.9707031 C18.9511716,12.0292972 18.8398446,12.0585938 18.6796875,12.0585938 L18.6679688,12.0585938 C18.5078117,12.0585938 18.3955081,12.0292972 18.3310547,11.9707031 C18.2666012,11.9121091 18.2363281,11.8144538 18.2402344,11.6777344 L18.4160156,5.3671875 C18.4199219,5.2265618 18.458984,5.12792997 18.5332031,5.07128906 C18.6074222,5.01464815 18.7167962,4.98632812 18.8613281,4.98632812 L18.8730469,4.98632812 C19.0097663,4.98632812 19.1220699,5.01660126 19.2099609,5.07714844 C19.297852,5.13769562 19.3730466,5.23437434 19.4355469,5.3671875 L20.9882812,8.70703125 L22.5410156,5.3671875 C22.6035159,5.23437434 22.6796871,5.13769562 22.7695312,5.07714844 C22.8593754,5.01660126 22.9726556,4.98632812 23.109375,4.98632812 L23.1210938,4.98632812 Z M27.984375,4.91601562 C28.433596,4.91601562 28.8261702,4.9951164 29.1621094,5.15332031 C29.4980486,5.31152423 29.7578116,5.53613136 29.9414062,5.82714844 C30.1250009,6.11816552 30.2167969,6.45898242 30.2167969,6.84960938 C30.2167969,7.18554855 30.1386727,7.47558472 29.9824219,7.71972656 C29.8261711,7.96386841 29.6054702,8.1582024 29.3203125,8.30273438 C29.6718768,8.44726635 29.9453115,8.6630845 30.140625,8.95019531 C30.3359385,9.23730612 30.4335938,9.58007613 30.4335938,9.97851562 C30.4335938,10.404299 30.3388681,10.7792953 30.1494141,11.1035156 C29.95996,11.427736 29.6855487,11.6796866 29.3261719,11.859375 C28.9667951,12.0390634 28.5351588,12.1289062 28.03125,12.1289062 C27.6484356,12.1289062 27.2617207,12.0625007 26.8710938,11.9296875 C26.4804668,11.7968743 26.1308609,11.6171886 25.8222656,11.390625 C25.7050775,11.3046871 25.6464844,11.2070318 25.6464844,11.0976562 C25.6464844,11.0195309 25.6796872,10.9238287 25.7460938,10.8105469 C25.8476568,10.6464836 25.9609369,10.5644531 26.0859375,10.5644531 C26.1484378,10.5644531 26.2148434,10.5898435 26.2851562,10.640625 C26.54297,10.8320322 26.8222641,10.9833979 27.1230469,11.0947266 C27.4238296,11.2060552 27.726561,11.2617188 28.03125,11.2617188 C28.5156274,11.2617188 28.8867175,11.1464855 29.1445312,10.9160156 C29.402345,10.6855457 29.53125,10.3730488 29.53125,9.97851562 C29.53125,9.57616986 29.4013685,9.27050886 29.1416016,9.06152344 C28.8818346,8.85253802 28.5214867,8.74804688 28.0605469,8.74804688 L27.6328125,8.74804688 C27.4999993,8.74804688 27.4052737,8.71777374 27.3486328,8.65722656 C27.2919919,8.59667938 27.2636719,8.49414135 27.2636719,8.34960938 C27.2636719,8.2050774 27.2919919,8.10253937 27.3486328,8.04199219 C27.4052737,7.98144501 27.4999993,7.95117188 27.6328125,7.95117188 L27.9550781,7.95117188 C28.4003929,7.95117188 28.7382801,7.85742281 28.96875,7.66992188 C29.1992199,7.48242094 29.3144531,7.20898617 29.3144531,6.84960938 C29.3144531,6.51757646 29.1992199,6.25683688 28.96875,6.06738281 C28.7382801,5.87792874 28.4121115,5.78320312 27.9902344,5.78320312 C27.4746068,5.78320312 26.958987,5.93945156 26.4433594,6.25195312 C26.3730465,6.29101582 26.3105471,6.31054688 26.2558594,6.31054688 C26.1308588,6.31054688 26.0214848,6.22656334 25.9277344,6.05859375 C25.8730466,5.95312447 25.8457031,5.85937541 25.8457031,5.77734375 C25.8457031,5.65234312 25.9082025,5.55273475 26.0332031,5.47851562 C26.6699251,5.10351375 27.3203092,4.91601562 27.984375,4.91601562 Z M37.3710938,11.15625 C37.5039069,11.15625 37.5986325,11.1884762 37.6552734,11.2529297 C37.7119143,11.3173831 37.7402344,11.4257805 37.7402344,11.578125 C37.7402344,11.7304695 37.7119143,11.8388669 37.6552734,11.9033203 C37.5986325,11.9677738 37.5039069,12 37.3710938,12 L33.3046875,12 C33.1718743,12 33.0771487,11.9697269 33.0205078,11.9091797 C32.9638669,11.8486325 32.9355469,11.7460945 32.9355469,11.6015625 C32.9355469,11.4531243 32.9648435,11.3476566 33.0234375,11.2851562 L35.6015625,8.671875 C35.9609393,8.30859193 36.2138665,8.00390748 36.3603516,7.7578125 C36.5068367,7.51171752 36.5800781,7.24804828 36.5800781,6.96679688 C36.5800781,6.60351381 36.4638683,6.31543075 36.2314453,6.10253906 C35.9990223,5.88964737 35.669924,5.78320312 35.2441406,5.78320312 C34.9863268,5.78320312 34.7187514,5.83203076 34.4414062,5.9296875 C34.1640611,6.02734424 33.902345,6.16210852 33.65625,6.33398438 C33.5937497,6.38085961 33.5273441,6.40429688 33.4570312,6.40429688 C33.3281244,6.40429688 33.2148442,6.32421955 33.1171875,6.1640625 C33.0507809,6.05078068 33.0175781,5.95507852 33.0175781,5.87695312 C33.0175781,5.76757758 33.0761713,5.6699223 33.1933594,5.58398438 C33.4902359,5.37304582 33.8183576,5.20898496 34.1777344,5.09179688 C34.5371112,4.97460879 34.8906233,4.91601562 35.2382812,4.91601562 C35.6914085,4.91601562 36.0869124,4.9970695 36.4248047,5.15917969 C36.762697,5.32128987 37.0234366,5.55663908 37.2070312,5.86523438 C37.3906259,6.17382967 37.4824219,6.5410135 37.4824219,6.96679688 C37.4824219,7.36523637 37.3857432,7.73339675 37.1923828,8.07128906 C36.9990225,8.40918138 36.6972677,8.78710729 36.2871094,9.20507812 L34.3652344,11.15625 L37.3710938,11.15625 Z M44.7011719,5.04492188 C44.833985,5.04492188 44.9287107,5.07714812 44.9853516,5.14160156 C45.0419925,5.20605501 45.0703125,5.31445236 45.0703125,5.46679688 C45.0703125,5.61914139 45.0419925,5.72753874 44.9853516,5.79199219 C44.9287107,5.85644563 44.833985,5.88867188 44.7011719,5.88867188 L41.2910156,5.88867188 L41.2910156,8.2265625 L44.0273438,8.2265625 C44.1601569,8.2265625 44.2548825,8.25878874 44.3115234,8.32324219 C44.3681643,8.38769563 44.3964844,8.49609299 44.3964844,8.6484375 C44.3964844,8.80078201 44.3681643,8.90917937 44.3115234,8.97363281 C44.2548825,9.03808626 44.1601569,9.0703125 44.0273438,9.0703125 L41.2910156,9.0703125 L41.2910156,11.6777344 C41.2910156,11.8144538 41.2587894,11.9121091 41.1943359,11.9707031 C41.1298825,12.0292972 41.0175789,12.0585938 40.8574219,12.0585938 L40.8457031,12.0585938 C40.6855461,12.0585938 40.5732425,12.0292972 40.5087891,11.9707031 C40.4443356,11.9121091 40.4121094,11.8144538 40.4121094,11.6777344 L40.4121094,5.44335938 C40.4121094,5.2988274 40.4423825,5.19628937 40.5029297,5.13574219 C40.5634769,5.07519501 40.6562494,5.04492188 40.78125,5.04492188 L44.7011719,5.04492188 Z M51.8320312,5.04492188 C51.9648444,5.04492188 52.05957,5.07519501 52.1162109,5.13574219 C52.1728518,5.19628937 52.2011719,5.2988274 52.2011719,5.44335938 C52.2011719,5.53710984 52.1894532,5.61523406 52.1660156,5.67773438 L49.6699219,11.859375 C49.6347654,11.9492192 49.5791019,12.0166013 49.5029297,12.0615234 C49.4267574,12.1064455 49.335938,12.1289062 49.2304688,12.1289062 C49.0859368,12.1289062 48.9707036,12.1005862 48.8847656,12.0439453 C48.7988277,11.9873044 48.7558594,11.9101567 48.7558594,11.8125 C48.7558594,11.7773436 48.7656249,11.730469 48.7851562,11.671875 L51.1523438,5.88867188 L47.7070312,5.88867188 C47.5742181,5.88867188 47.4794925,5.85644563 47.4228516,5.79199219 C47.3662107,5.72753874 47.3378906,5.61914139 47.3378906,5.46679688 C47.3378906,5.31445236 47.3662107,5.20605501 47.4228516,5.14160156 C47.4794925,5.07714812 47.5742181,5.04492188 47.7070312,5.04492188 L51.8320312,5.04492188 Z" id="STM32F7-Copy" fill="#999999"></path>
                    </g>
                    <g id="FLASH" transform="translate(300.000000, 43.000000)" fill="#333333">
                        <rect id="Rectangle" x="0" y="0" width="37" height="43"></rect>
                    </g>
                    <g id="ESP32" transform="translate(357.000000, 53.000000)" fill="#333333">
                        <rect id="Rectangle" x="0" y="0" width="28" height="28"></rect>
                    </g>
                    <g id="Antenna" transform="translate(412.000000, 31.000000)">
                        <rect id="Rectangle" fill="#333333" x="0" y="0" width="11" height="23"></rect>
                        <rect id="Rectangle-Copy-27" fill="#999999" x="0.733333333" y="0.766666667" width="9.53333333" height="6.9"></rect>
                        <rect id="Rectangle-Copy-29" fill="#999999" x="0.733333333" y="6.9" width="4.4" height="7.66666667"></rect>
                        <rect id="Rectangle-Copy-30" fill="#999999" x="5.86666667" y="8.43333333" width="4.4" height="7.66666667"></rect>
                        <rect id="Rectangle-Copy-28" fill="#999999" x="0.733333333" y="15.3333333" width="9.53333333" height="6.9"></rect>
                    </g>
                    <g id="ANTENNA-PLUG" transform="translate(383.000000, 115.500000) rotate(91.000000) translate(-383.000000, -115.500000) translate(372.000000, 108.000000)">
                        <rect id="Rectangle-Copy-23" fill="#EEEEEE" x="0" y="0" width="22" height="15" rx="1"></rect>
                        <circle id="Oval-Copy" stroke="#F8E71C" fill="#FFFFFF" cx="11.5" cy="7.5" r="6"></circle>
                        <circle id="Oval-Copy-22" fill="#F8E71C" cx="11.5" cy="7.5" r="1"></circle>
                    </g>
                    <g id="RST-Button" transform="translate(335.000000, 112.000000)">
                        <rect id="Rectangle-Copy-23" fill="#EEEEEE" x="0" y="0" width="28" height="16"></rect>
                        <ellipse id="Oval-2" fill="#333333" cx="13.5" cy="8" rx="7.5" ry="5"></ellipse>
                    </g>
                    <g id="BOOT-Button" transform="translate(335.000000, 3.000000)">
                        <rect id="Rectangle-Copy-23" fill="#EEEEEE" x="0" y="0" width="28" height="16"></rect>
                        <ellipse id="Oval-2" fill="#333333" cx="13.5" cy="8" rx="7.5" ry="5"></ellipse>
                    </g>
                    <g id="RAM" transform="translate(150.000000, 42.000000)" fill="#333333">
                        <rect id="Rectangle" x="0" y="0" width="32" height="46"></rect>
                    </g>
                    <g id="LDO" transform="translate(64.000000, 72.000000)">
                        <rect id="Rectangle" fill="#333333" x="7" y="0" width="22" height="35"></rect>
                        <rect id="Rectangle-Copy" fill="#999999" x="29" y="10" width="7" height="16"></rect>
                        <rect id="Rectangle-Copy-2" fill="#999999" x="0" y="3" width="7" height="5"></rect>
                        <rect id="Rectangle-Copy-15" fill="#999999" x="0" y="11" width="7" height="5"></rect>
                        <rect id="Rectangle-Copy-16" fill="#999999" x="0" y="19" width="7" height="5"></rect>
                        <rect id="Rectangle-Copy-17" fill="#999999" x="0" y="27" width="7" height="5"></rect>
                    </g>
                    <g id="USB" transform="translate(0.000000, 42.000000)">
                        <rect id="Rectangle-Copy-18" fill="#999999" x="1" y="0" width="32" height="46"></rect>
                        <rect id="Rectangle-Copy-24" fill="#555555" x="26" y="7" width="7" height="6"></rect>
                        <rect id="Rectangle-Copy-25" fill="#555555" x="26" y="34" width="7" height="6"></rect>
                        <rect id="Rectangle-Copy-26" fill="#888888" x="0" y="3" width="4" height="40"></rect>
                    </g>
                    <g id="Battery" transform="translate(65.000000, 3.000000)">
                        <rect id="Rectangle-Copy-18" fill="#EEEEEE" x="0" y="0" width="52" height="37.3043478"></rect>
                        <polygon id="Rectangle-Copy-19" fill="#B09679" points="11.3043478 13.5652174 13.5652174 13.5652174 13.5652174 37.3043478 11.3043478 37.3043478"></polygon>
                        <polygon id="Rectangle-Copy-20" fill="#B09679" points="38.4347826 13.5652174 40.6956522 13.5652174 40.6956522 37.3043478 38.4347826 37.3043478"></polygon>
                        <polygon id="Rectangle-Copy-21" fill="#EEEEEE" points="48.6086957 36.173913 52 36.173913 52 41.826087 48.6086957 41.826087"></polygon>
                        <rect id="Rectangle-Copy-22" fill="#EEEEEE" x="0" y="36.173913" width="3.39130435" height="5.65217391"></rect>
                    </g>
                </g>
                <g id="Meadow_F7_Micro_Top_Silk" transform="translate(14.000000, 7.000000)">
                    <g id="Short-Header-Labels" transform="translate(115.000000, 11.000000)" fill="#FFFFFF" font-family="Wavehaus-66Book, Wavehaus" font-size="10" font-weight="300" letter-spacing="-0.300000012">
                        <text id="D05" transform="translate(194.000000, 9.000000) rotate(-90.000000) translate(-194.000000, -9.000000) ">
                            <tspan x="185.39" y="13">D0</tspan>
                            <tspan x="197" y="13">5</tspan>
                        </text>
                        <text id="D06" transform="translate(179.576923, 9.000000) rotate(-90.000000) translate(-179.576923, -9.000000) ">
                            <tspan x="171.036923" y="13">D0</tspan>
                            <tspan x="182.646923" y="13">6</tspan>
                        </text>
                        <text id="D07" transform="translate(165.153846, 8.500000) rotate(-90.000000) translate(-165.153846, -8.500000) ">
                            <tspan x="156.683846" y="12.5">D0</tspan>
                            <tspan x="168.293846" y="12.5">7</tspan>
                        </text>
                        <text id="D08" transform="translate(150.730769, 9.000000) rotate(-90.000000) translate(-150.730769, -9.000000) ">
                            <tspan x="142.210769" y="13">D0</tspan>
                            <tspan x="153.820769" y="13">8</tspan>
                        </text>
                        <text id="D09" transform="translate(136.307692, 9.000000) rotate(-90.000000) translate(-136.307692, -9.000000) ">
                            <tspan x="127.767692" y="13">D0</tspan>
                            <tspan x="139.377692" y="13">9</tspan>
                        </text>
                        <text id="D10" transform="translate(121.884615, 7.500000) rotate(-90.000000) translate(-121.884615, -7.500000) ">
                            <tspan x="115.124615" y="11.5">D1</tspan>
                            <tspan x="123.454615" y="11.5">0</tspan>
                        </text>
                        <text id="D11" transform="translate(107.461538, 6.000000) rotate(-90.000000) translate(-107.461538, -6.000000) ">
                            <tspan x="102.091538" y="10">D1</tspan>
                            <tspan x="110.421538" y="10">1</tspan>
                        </text>
                        <text id="D12" transform="translate(93.038462, 7.500000) rotate(-90.000000) translate(-93.038462, -7.500000) ">
                            <tspan x="86.1684616" y="11.5">D1</tspan>
                            <tspan x="94.4984615" y="11.5">2</tspan>
                        </text>
                        <text id="D13" transform="translate(78.615385, 7.000000) rotate(-90.000000) translate(-78.615385, -7.000000) ">
                            <tspan x="72.0153846" y="11">D1</tspan>
                            <tspan x="80.3453846" y="11">3</tspan>
                        </text>
                        <text id="D14" transform="translate(64.192308, 7.500000) rotate(-90.000000) translate(-64.192308, -7.500000) ">
                            <tspan x="57.2723077" y="11.5">D1</tspan>
                            <tspan x="65.6023077" y="11.5">4</tspan>
                        </text>
                        <text id="D15" transform="translate(49.769231, 7.500000) rotate(-90.000000) translate(-49.769231, -7.500000) ">
                            <tspan x="42.9392308" y="11.5">D1</tspan>
                            <tspan x="51.2692308" y="11.5">5</tspan>
                        </text>
                        <text id="5V" transform="translate(35.346154, 6.500000) rotate(-90.000000) translate(-35.346154, -6.500000) ">
                            <tspan x="29.4161539" y="10.5">5</tspan>
                            <tspan x="35.1161538" y="10.5">V</tspan>
                        </text>
                        <text id="EN" transform="translate(20.923077, 6.500000) rotate(-90.000000) translate(-20.923077, -6.500000) ">
                            <tspan x="15.3030769" y="10.5">E</tspan>
                            <tspan x="20.8730769" y="10.5">N</tspan>
                        </text>
                        <text id="BAT" transform="translate(6.500000, 9.500000) rotate(-90.000000) translate(-6.500000, -9.500000) ">
                            <tspan x="-2.39999998" y="13.5">BA</tspan>
                            <tspan x="9.62" y="13.5">T</tspan>
                        </text>
                    </g>
                    <g id="Long-Header-Labels" transform="translate(87.000000, 82.200000)" fill="#FFFFFF" font-family="Wavehaus-66Book, Wavehaus" font-weight="300">
                        <text id="AREF" transform="translate(6.788235, 12.000000) rotate(-90.000000) translate(-6.788235, -12.000000) " font-size="10" letter-spacing="-0.300000012">
                            <tspan x="-4.71176471" y="16">ARE</tspan>
                            <tspan x="12.9682353" y="16">F</tspan>
                        </text>
                        <text id="GND" transform="translate(20.504706, 13.000000) rotate(-90.000000) translate(-20.504706, -13.000000) " font-size="10" letter-spacing="-0.300000012">
                            <tspan x="10.5047059" y="17">GN</tspan>
                            <tspan x="23.9747059" y="17">D</tspan>
                        </text>
                        <text id="A0" transform="translate(35.221176, 16.500000) rotate(-90.000000) translate(-35.221176, -16.500000) " font-size="10" letter-spacing="-0.300000012">
                            <tspan x="28.7211765" y="20.5">A</tspan>
                            <tspan x="35.4011765" y="20.5">0</tspan>
                        </text>
                        <text id="A1" transform="translate(48.937647, 18.000000) rotate(-90.000000) translate(-48.937647, -18.000000) " font-size="10" letter-spacing="-0.300000012">
                            <tspan x="43.9376471" y="22">A</tspan>
                            <tspan x="50.617647" y="22">1</tspan>
                        </text>
                        <text id="A2" transform="translate(63.244706, 16.500000) rotate(-90.000000) translate(-63.244706, -16.500000) " font-size="10" letter-spacing="-0.300000012">
                            <tspan x="56.7447059" y="20.5">A</tspan>
                            <tspan x="63.4247059" y="20.5">2</tspan>
                        </text>
                        <text id="A3" transform="translate(77.654118, 17.000000) rotate(-90.000000) translate(-77.654118, -17.000000) " font-size="10" letter-spacing="-0.300000012">
                            <tspan x="71.6541176" y="21">A</tspan>
                            <tspan x="78.3341176" y="21">3</tspan>
                        </text>
                        <text id="A4" transform="translate(92.370588, 16.500000) rotate(-90.000000) translate(-92.370588, -16.500000) " font-size="10" letter-spacing="-0.300000012">
                            <tspan x="85.8705882" y="20.5">A</tspan>
                            <tspan x="92.5505882" y="20.5">4</tspan>
                        </text>
                        <text id="A5" transform="translate(107.087059, 16.500000) rotate(-90.000000) translate(-107.087059, -16.500000) " font-size="10" letter-spacing="-0.300000012">
                            <tspan x="100.587059" y="20.5">A</tspan>
                            <tspan x="107.267059" y="20.5">5</tspan>
                        </text>
                        <text id="SCK" transform="translate(121.701176, 14.000000) rotate(-90.000000) translate(-121.701176, -14.000000) " font-size="10" letter-spacing="-0.300000012">
                            <tspan x="112.701176" y="18">SC</tspan>
                            <tspan x="124.471176" y="18">K</tspan>
                        </text>
                        <text id="MOSI" transform="translate(136.315294, 14.500000) rotate(-90.000000) translate(-136.315294, -14.500000) " font-size="8" letter-spacing="-0.48">
                            <tspan x="127.815294" y="17.5">MOSI</tspan>
                        </text>
                        <text id="MISO" transform="translate(149.929412, 14.500000) rotate(-90.000000) translate(-149.929412, -14.500000) " font-size="8" letter-spacing="-0.48">
                            <tspan x="141.429412" y="17.5">MISO</tspan>
                        </text>
                        <text id="D00" transform="translate(163.543529, 14.000000) rotate(-90.000000) translate(-163.543529, -14.000000) " font-size="10" letter-spacing="-0.300000012">
                            <tspan x="154.543529" y="18">D0</tspan>
                            <tspan x="166.153529" y="18">0</tspan>
                        </text>
                        <text id="D01" transform="translate(178.157647, 15.500000) rotate(-90.000000) translate(-178.157647, -15.500000) " font-size="10" letter-spacing="-0.300000012">
                            <tspan x="170.657647" y="19.5">D0</tspan>
                            <tspan x="182.267647" y="19.5">1</tspan>
                        </text>
                        <text id="D02" transform="translate(192.771765, 14.000000) rotate(-90.000000) translate(-192.771765, -14.000000) " font-size="10" letter-spacing="-0.300000012">
                            <tspan x="183.771765" y="18">D0</tspan>
                            <tspan x="195.381765" y="18">2</tspan>
                        </text>
                        <text id="D03" transform="translate(207.385882, 14.500000) rotate(-90.000000) translate(-207.385882, -14.500000) " font-size="10" letter-spacing="-0.300000012">
                            <tspan x="198.885882" y="18.5">D0</tspan>
                            <tspan x="210.495882" y="18.5">3</tspan>
                        </text>
                        <text id="D04" transform="translate(222.000000, 14.000000) rotate(-90.000000) translate(-222.000000, -14.000000) " font-size="10" letter-spacing="-0.300000012">
                            <tspan x="213" y="18">D0</tspan>
                            <tspan x="224.61" y="18">4</tspan>
                        </text>
                    </g>
                    <g id="RST" transform="translate(324.000000, 91.000000)" fill="#FFFFFF">
                        <path d="M1.466,12.5 L1.466,4.436 L4.202,4.436 C5.10600452,4.436 5.82599732,4.67399762 6.362,5.15 C6.89800268,5.62600238 7.166,6.2239964 7.166,6.944 C7.166,7.48000268 7.00800158,7.95599792 6.692,8.372 C6.37599842,8.78800208 5.93400284,9.08399912 5.366,9.26 L7.166,12.5 L6.338,12.5 L4.622,9.428 L4.13,9.452 L2.258,9.452 L2.258,12.5 L1.466,12.5 Z M2.258,8.696 L4.202,8.696 C4.85000324,8.696 5.36999804,8.53000166 5.762,8.198 C6.15400196,7.86599834 6.35,7.44800252 6.35,6.944 C6.35,6.44799752 6.15400196,6.03200168 5.762,5.696 C5.36999804,5.35999832 4.85000324,5.192 4.202,5.192 L2.258,5.192 L2.258,8.696 Z M11.21,12.596 C10.6739973,12.596 10.1560025,12.4600014 9.656,12.188 C9.1559975,11.9159986 8.77800128,11.6440014 8.522,11.372 L9.074,10.832 C9.274001,11.0480011 9.56999804,11.2699989 9.962,11.498 C10.354002,11.7260011 10.7699978,11.84 11.21,11.84 C11.7460027,11.84 12.1679985,11.7220012 12.476,11.486 C12.7840015,11.2499988 12.938,10.928002 12.938,10.52 C12.938,10.1759983 12.7880015,9.87600128 12.488,9.62 C12.1879985,9.36399872 11.8240021,9.14800088 11.396,8.972 C10.9679979,8.79599912 10.5380022,8.61000098 10.106,8.414 C9.67399784,8.21799902 9.3080015,7.95200168 9.008,7.616 C8.7079985,7.27999832 8.558,6.88400228 8.558,6.428 C8.558,5.84399708 8.7779978,5.352002 9.218,4.952 C9.6580022,4.551998 10.273996,4.352 11.066,4.352 C11.6020027,4.352 12.1199975,4.48799864 12.62,4.76 C13.1200025,5.03200136 13.4979987,5.30399864 13.754,5.576 L13.202,6.116 C12.993999,5.89199888 12.694002,5.66800112 12.302,5.444 C11.909998,5.21999888 11.4980022,5.108 11.066,5.108 C10.5299973,5.108 10.1080015,5.22599882 9.8,5.462 C9.49199846,5.69800118 9.338,6.01999796 9.338,6.428 C9.338,6.77200172 9.4879985,7.0739987 9.788,7.334 C10.0880015,7.5940013 10.4519979,7.81199912 10.88,7.988 C11.3080021,8.16400088 11.7379978,8.34799904 12.17,8.54 C12.6020022,8.73200096 12.9679985,8.99599832 13.268,9.332 C13.5680015,9.66800168 13.718,10.0639977 13.718,10.52 C13.718,11.1040029 13.4980022,11.595998 13.058,11.996 C12.6179978,12.396002 12.002004,12.596 11.21,12.596 Z M21.446,4.436 L21.446,5.228 L18.578,5.228 L18.578,12.5 L17.786,12.5 L17.786,5.228 L14.918,5.228 L14.918,4.436 L21.446,4.436 Z" id="RST-Copy-2"></path>
                    </g>
                    <g id="USB" transform="translate(19.000000, 48.000000)" fill="#FFFFFF">
                        <path d="M0.618,15.796 C-0.28600452,15.796 -1.04399694,15.5100029 -1.656,14.938 C-2.26800306,14.3659971 -2.574,13.6000048 -2.574,12.64 L-2.574,7.636 L-1.782,7.636 L-1.782,12.64 C-1.782,13.3680036 -1.55400228,13.9499978 -1.098,14.386 C-0.64199772,14.8220022 -0.07000344,15.04 0.618,15.04 C1.30600344,15.04 1.87799772,14.8220022 2.334,14.386 C2.79000228,13.9499978 3.018,13.3680036 3.018,12.64 L3.018,7.636 L3.81,7.636 L3.81,12.64 C3.81,13.6000048 3.50600304,14.3659971 2.898,14.938 C2.28999696,15.5100029 1.53000456,15.796 0.618,15.796 Z M7.974,15.796 C7.43799732,15.796 6.9200025,15.6600014 6.42,15.388 C5.9199975,15.1159986 5.54200128,14.8440014 5.286,14.572 L5.838,14.032 C6.038001,14.2480011 6.33399804,14.4699989 6.726,14.698 C7.11800196,14.9260011 7.5339978,15.04 7.974,15.04 C8.51000268,15.04 8.93199846,14.9220012 9.24,14.686 C9.54800154,14.4499988 9.702,14.128002 9.702,13.72 C9.702,13.3759983 9.5520015,13.0760013 9.252,12.82 C8.9519985,12.5639987 8.58800214,12.3480009 8.16,12.172 C7.73199786,11.9959991 7.30200216,11.810001 6.87,11.614 C6.43799784,11.417999 6.0720015,11.1520017 5.772,10.816 C5.4719985,10.4799983 5.322,10.0840023 5.322,9.628 C5.322,9.04399708 5.5419978,8.552002 5.982,8.152 C6.4220022,7.751998 7.03799604,7.552 7.83,7.552 C8.36600268,7.552 8.8839975,7.68799864 9.384,7.96 C9.8840025,8.23200136 10.2619987,8.50399864 10.518,8.776 L9.966,9.316 C9.75799896,9.09199888 9.45800196,8.86800112 9.066,8.644 C8.67399804,8.41999888 8.26200216,8.308 7.83,8.308 C7.29399732,8.308 6.87200154,8.42599882 6.564,8.662 C6.25599846,8.89800118 6.102,9.21999796 6.102,9.628 C6.102,9.97200172 6.2519985,10.2739987 6.552,10.534 C6.8520015,10.7940013 7.21599786,11.0119991 7.644,11.188 C8.07200214,11.3640009 8.50199784,11.547999 8.934,11.74 C9.36600216,11.932001 9.7319985,12.1959983 10.032,12.532 C10.3320015,12.8680017 10.482,13.2639977 10.482,13.72 C10.482,14.3040029 10.2620022,14.795998 9.822,15.196 C9.3819978,15.596002 8.76600396,15.796 7.974,15.796 Z M11.994,15.7 L11.994,7.636 L14.73,7.636 C15.6340045,7.636 16.3539973,7.84799788 16.89,8.272 C17.4260027,8.69600212 17.694,9.22399684 17.694,9.856 C17.694,10.248002 17.5760012,10.6039984 17.34,10.924 C17.1039988,11.2440016 16.7740021,11.4919991 16.35,11.668 C16.7740021,11.8440009 17.1039988,12.0919984 17.34,12.412 C17.5760012,12.7320016 17.694,13.091998 17.694,13.492 C17.694,14.1240032 17.4260027,14.6499979 16.89,15.07 C16.3539973,15.4900021 15.6340045,15.7 14.73,15.7 L11.994,15.7 Z M12.786,11.332 L14.73,11.332 C15.3780032,11.332 15.897998,11.1920014 16.29,10.912 C16.682002,10.6319986 16.878,10.2840021 16.878,9.868 C16.878,9.44399788 16.682002,9.0920014 16.29,8.812 C15.897998,8.5319986 15.3780032,8.392 14.73,8.392 L12.786,8.392 L12.786,11.332 Z M12.786,14.944 L14.73,14.944 C15.3780032,14.944 15.897998,14.8040014 16.29,14.524 C16.682002,14.2439986 16.878,13.8920021 16.878,13.468 C16.878,13.0519979 16.682002,12.7040014 16.29,12.424 C15.897998,12.1439986 15.3780032,12.004 14.73,12.004 L12.786,12.004 L12.786,14.944 Z" id="USB-Copy-2" transform="translate(7.560000, 11.674000) rotate(-90.000000) translate(-7.560000, -11.674000) "></path>
                    </g>
                    <g id="Boot" transform="translate(318.000000, 10.000000)" fill="#FFFFFF">
                        <path d="M1.802,12.5 L1.802,4.436 L4.538,4.436 C5.44200452,4.436 6.16199732,4.64799788 6.698,5.072 C7.23400268,5.49600212 7.502,6.02399684 7.502,6.656 C7.502,7.04800196 7.38400118,7.4039984 7.148,7.724 C6.91199882,8.0440016 6.58200212,8.29199912 6.158,8.468 C6.58200212,8.64400088 6.91199882,8.8919984 7.148,9.212 C7.38400118,9.5320016 7.502,9.891998 7.502,10.292 C7.502,10.9240032 7.23400268,11.4499979 6.698,11.87 C6.16199732,12.2900021 5.44200452,12.5 4.538,12.5 L1.802,12.5 Z M2.594,8.132 L4.538,8.132 C5.18600324,8.132 5.70599804,7.9920014 6.098,7.712 C6.49000196,7.4319986 6.686,7.08400208 6.686,6.668 C6.686,6.24399788 6.49000196,5.8920014 6.098,5.612 C5.70599804,5.3319986 5.18600324,5.192 4.538,5.192 L2.594,5.192 L2.594,8.132 Z M2.594,11.744 L4.538,11.744 C5.18600324,11.744 5.70599804,11.6040014 6.098,11.324 C6.49000196,11.0439986 6.686,10.6920021 6.686,10.268 C6.686,9.85199792 6.49000196,9.5040014 6.098,9.224 C5.70599804,8.9439986 5.18600324,8.804 4.538,8.804 L2.594,8.804 L2.594,11.744 Z M15.518,11.42 C14.8219965,12.2040039 13.8820059,12.596 12.698,12.596 C11.5139941,12.596 10.5720035,12.2040039 9.872,11.42 C9.1719965,10.6359961 8.822,9.65600588 8.822,8.48 C8.822,7.30399412 9.1719965,6.32200394 9.872,5.534 C10.5720035,4.74599606 11.5139941,4.352 12.698,4.352 C13.8820059,4.352 14.8219965,4.74599606 15.518,5.534 C16.2140035,6.32200394 16.562,7.30399412 16.562,8.48 C16.562,9.65600588 16.2140035,10.6359961 15.518,11.42 Z M10.502,10.892 C11.0540028,11.5320032 11.7859954,11.852 12.698,11.852 C13.6100046,11.852 14.3439972,11.5300032 14.9,10.886 C15.4560028,10.2419968 15.734,9.4400048 15.734,8.48 C15.734,7.51199516 15.4560028,6.7080032 14.9,6.068 C14.3439972,5.4279968 13.6100046,5.108 12.698,5.108 C11.7859954,5.108 11.0540028,5.4279968 10.502,6.068 C9.94999724,6.7080032 9.674,7.51199516 9.674,8.48 C9.674,9.44800484 9.94999724,10.2519968 10.502,10.892 Z M24.398,11.42 C23.7019965,12.2040039 22.7620059,12.596 21.578,12.596 C20.3939941,12.596 19.4520035,12.2040039 18.752,11.42 C18.0519965,10.6359961 17.702,9.65600588 17.702,8.48 C17.702,7.30399412 18.0519965,6.32200394 18.752,5.534 C19.4520035,4.74599606 20.3939941,4.352 21.578,4.352 C22.7620059,4.352 23.7019965,4.74599606 24.398,5.534 C25.0940035,6.32200394 25.442,7.30399412 25.442,8.48 C25.442,9.65600588 25.0940035,10.6359961 24.398,11.42 Z M19.382,10.892 C19.9340028,11.5320032 20.6659954,11.852 21.578,11.852 C22.4900046,11.852 23.2239972,11.5300032 23.78,10.886 C24.3360028,10.2419968 24.614,9.4400048 24.614,8.48 C24.614,7.51199516 24.3360028,6.7080032 23.78,6.068 C23.2239972,5.4279968 22.4900046,5.108 21.578,5.108 C20.6659954,5.108 19.9340028,5.4279968 19.382,6.068 C18.8299972,6.7080032 18.554,7.51199516 18.554,8.48 C18.554,9.44800484 18.8299972,10.2519968 19.382,10.892 Z M33.11,4.436 L33.11,5.228 L30.242,5.228 L30.242,12.5 L29.45,12.5 L29.45,5.228 L26.582,5.228 L26.582,4.436 L33.11,4.436 Z" id="BOOT-Copy-2"></path>
                    </g>
                    <g id="Registration" stroke="#FFFFFF">
                        <g id="Registration-Copy" transform="translate(388.750000, 0.000000)">
                            <path d="M7.40000153,0.199996948 L7.40000153,14.6999969" id="Path-6"></path>
                            <path d="M0.25,7.5 L14.75,7.5" id="Path-7"></path>
                        </g>
                        <g id="Registration-Copy-2" transform="translate(388.750000, 100.750000)">
                            <path d="M7.40000153,0.199996948 L7.40000153,14.6999969" id="Path-6"></path>
                            <path d="M0.25,7.5 L14.75,7.5" id="Path-7"></path>
                        </g>
                        <g id="Registration-Copy-3" transform="translate(0.000000, 100.750000)">
                            <path d="M7.40000153,0.199996948 L7.40000153,14.6999969" id="Path-6"></path>
                            <path d="M0.25,7.5 L14.5,7.5" id="Path-7"></path>
                        </g>
                        <g id="Registration-Copy-4">
                            <path d="M7.40000153,0.199996948 L7.40000153,14.6999969" id="Path-6"></path>
                            <path d="M0.25,7.5 L14.5,7.5" id="Path-7"></path>
                        </g>
                    </g>
                </g>
            </g>
        </g>
    </g>
</svg>