<?xml version="1.0" encoding="UTF-8"?>
<svg width="236px" height="62px" viewBox="0 0 236 62" version="1.1" xmlns="http://www.w3.org/2000/svg" xmlns:xlink="http://www.w3.org/1999/xlink">
    <!-- Generator: Sketch 41.2 (35397) - http://www.bohemiancoding.com/sketch -->
    <title>Resistor</title>
    <desc>Created with Sketch.</desc>
    <defs></defs>
    <g id="Page-1" stroke="none" stroke-width="1" fill="none" fill-rule="evenodd">
        <g id="Desktop-HD" transform="translate(-307.000000, -364.000000)" stroke-width="5" stroke="#524740">
            <g id="Resitor" transform="translate(310.000000, 366.000000)">
                <g id="Resistor">
                    <path d="M64.5,29 L-1.13686838e-13,29" id="Line" stroke-linecap="square"></path>
                    <path d="M230,29 L165.5,29" id="Line-Copy" stroke-linecap="square"></path>
                    <path d="M74.5,0.5 L66,29" id="Line" stroke-linecap="round"></path>
                    <path d="M162.5,29 L154.5,57.5" id="Line-Copy-2" stroke-linecap="round"></path>
                    <path d="M90.5,0.5 L74.5,57.5" id="Line-Copy-3" stroke-linecap="round" transform="translate(82.500000, 29.000000) scale(-1, 1) translate(-82.500000, -29.000000) "></path>
                    <path d="M154.5,0.5 L138.5,57.5" id="Line-Copy-7" stroke-linecap="round" transform="translate(146.500000, 29.000000) scale(-1, 1) translate(-146.500000, -29.000000) "></path>
                    <path d="M106.5,0.5 L90.5,57.5" id="Line-Copy-4" stroke-linecap="round"></path>
                    <path d="M122.5,0.5 L106.5,57.5" id="Line-Copy-6" stroke-linecap="round" transform="translate(114.500000, 29.000000) scale(-1, 1) translate(-114.500000, -29.000000) "></path>
                    <path d="M138.5,0.5 L122.5,57.5" id="Line-Copy-5" stroke-linecap="round"></path>
                </g>
            </g>
        </g>
    </g>
</svg>