<?xml version="1.0" encoding="UTF-8"?>
<svg width="187px" height="225px" viewBox="0 0 187 225" version="1.1" xmlns="http://www.w3.org/2000/svg" xmlns:xlink="http://www.w3.org/1999/xlink">
    <!-- Generator: Sketch 45.2 (43514) - http://www.bohemiancoding.com/sketch -->
    <title>Drill</title>
    <desc>Created with Sketch.</desc>
    <defs></defs>
    <g id="Page-1" stroke="none" stroke-width="1" fill="none" fill-rule="evenodd">
        <g id="Letter" transform="translate(-2429.000000, -612.000000)">
            <g id="Drill" transform="translate(2430.000000, 608.000000)">
                <path d="M5.35546875,61.5585938 C5.35546875,61.5585938 7.37239583,57.5794271 11.40625,49.6210938 L25.8945313,49.6210938 L154.417969,49.6210938 L171.4375,61.5585938 L171.4375,91.7578125 L154.417969,105.683594 L115.449219,105.683594 L80.6757813,112.570312 L80.6757813,133.035156 L63.375,133.035156 L63.375,178.773437 L75.359375,188.230469 L75.359375,227.710937 L5.35546875,227.710937 L5.35546875,188.230469 L18.1445313,178.773437 L18.1445313,105.683594 C9.61848958,103.115885 5.35546875,101.755208 5.35546875,101.601562 C5.35546875,101.371094 -5.74609375,91.7578125 5.35546875,61.5585938 Z" id="Path-6" stroke="#555555" fill="#999999"></path>
                <path d="M82.5,194 L110,206" id="Line-7" stroke="#B09679" stroke-width="2" stroke-linecap="square"></path>
                <text id="Battery" font-family="Lato-Regular, Lato" font-size="18" font-weight="normal" letter-spacing="0.695049524" fill="#555555">
                    <tspan x="121" y="212">Battery</tspan>
                </text>
                <path d="M89.5,134 L117,146" id="Line-7-Copy-9" stroke="#B09679" stroke-width="2" stroke-linecap="square"></path>
                <text id="Trigger" font-family="Lato-Regular, Lato" font-size="18" font-weight="normal" letter-spacing="0.695049524" fill="#555555">
                    <tspan x="128" y="152">Trigger</tspan>
                </text>
                <path d="M34,65 L45,28" id="Line-7-Copy-8" stroke="#B09679" stroke-width="2" stroke-linecap="square"></path>
                <text id="Electric-Motor" font-family="Lato-Regular, Lato" font-size="18" font-weight="normal" letter-spacing="0.695049524" fill="#555555">
                    <tspan x="23" y="18">Electric Motor</tspan>
                </text>
                <path d="M154.882812,50.2246094 L154.882812,105.288086" id="Path-7" stroke="#555555"></path>
                <polyline id="Path-8" stroke="#524740" points="81.2265625 111.425781 64.2382812 111.425781 64.2382812 133.324219"></polyline>
                <path d="M123.050781,49.5 L123.050781,105.5" id="Path-9" stroke="#555555"></path>
                <path d="M18.3857422,178.612305 L63.3896484,178.612305" id="Path-10" stroke="#524740"></path>
            </g>
        </g>
    </g>
</svg>