<?xml version="1.0" encoding="UTF-8"?>
<svg width="523px" height="290px" viewBox="0 0 523 290" version="1.1" xmlns="http://www.w3.org/2000/svg" xmlns:xlink="http://www.w3.org/1999/xlink">
    <!-- Generator: Sketch 47.1 (45422) - http://www.bohemiancoding.com/sketch -->
    <title>VoltageDrop_Simplification</title>
    <desc>Created with Sketch.</desc>
    <defs>
        <circle id="path-1" cx="399" cy="105" r="5"></circle>
        <circle id="path-2" cx="399" cy="289" r="5"></circle>
    </defs>
    <g id="Page-1" stroke="none" stroke-width="1" fill="none" fill-rule="evenodd">
        <g id="Desktop-HD" transform="translate(-102.000000, -889.000000)">
            <g id="VoltageDrop_Simplification" transform="translate(100.000000, 885.000000)">
                <path d="M105.5,119.5 L105.5,149.5" id="Line-11-Copy-5" stroke="#B09679" stroke-width="3"></path>
                <path id="Line-11-Copy-5-decoration-1" d="M105.5,119.5 L108.5,130.3 L102.5,130.3 L105.5,119.5 Z" stroke="#B09679" stroke-width="3"></path>
                <g id="VS" transform="translate(109.000000, 186.000000)" font-size="18" font-family="Lato-Regular, Lato" letter-spacing="0.695049465" fill="#524740" font-weight="normal">
                    <text id="Vs">
                        <tspan x="0.435950535" y="18">Vs</tspan>
                    </text>
                </g>
                <path d="M287.5888,-39.676 C285.216855,-39.676 283.034193,-39.0866726 281.04075,-37.908 C279.047307,-36.7293274 277.306224,-35.0480109 275.81745,-32.864 C274.328676,-30.6799891 273.167954,-28.0626819 272.33525,-25.012 C271.502546,-21.9613181 271.0862,-18.5293524 271.0862,-14.716 C271.0862,-10.7639802 271.351147,-6.86401924 271.88105,-3.016 C272.410953,0.83201924 273.00393,4.67998076 273.66,8.528 C274.31607,12.3760192 274.909047,16.2239808 275.43895,20.072 C275.968853,23.9200192 276.2338,27.7853139 276.2338,31.668 C276.2338,34.3026798 275.893153,36.6426564 275.21185,38.688 C274.530547,40.7333436 273.647389,42.4839927 272.56235,43.94 C271.477311,45.3960073 270.27874,46.557329 268.9666,47.424 C267.65446,48.290671 266.367573,48.8626653 265.1059,49.14 C266.367573,49.4173347 267.65446,49.989329 268.9666,50.856 C270.27874,51.722671 271.477311,52.8839927 272.56235,54.34 C273.647389,55.7960073 274.530547,57.5466564 275.21185,59.592 C275.893153,61.6373436 276.2338,63.9773202 276.2338,66.612 C276.2338,70.4946861 275.968853,74.3599808 275.43895,78.208 C274.909047,82.0560192 274.31607,85.9039808 273.66,89.752 C273.00393,93.6000192 272.410953,97.4479808 271.88105,101.296 C271.351147,105.144019 271.0862,109.04398 271.0862,112.996 C271.0862,116.809352 271.502546,120.241318 272.33525,123.292 C273.167954,126.342682 274.328676,128.959989 275.81745,131.144 C277.306224,133.328011 279.047307,135.009327 281.04075,136.188 C283.034193,137.366673 285.216855,137.956 287.5888,137.956 L290.9196,137.956 C291.525203,137.956 291.828,138.302663 291.828,138.996 L291.828,139.828 L287.5888,139.828 C284.914053,139.828 282.453828,139.134674 280.20805,137.748 C277.962272,136.361326 276.044558,134.454679 274.45485,132.028 C272.865142,129.601321 271.628721,126.758683 270.74555,123.5 C269.862379,120.241317 269.4208,116.740019 269.4208,112.996 C269.4208,108.905313 269.685747,104.936019 270.21565,101.088 C270.745553,97.2399808 271.33853,93.4440187 271.9946,89.7 C272.65067,85.9559813 273.243647,82.1946856 273.77355,78.416 C274.303453,74.6373144 274.5684,70.7026871 274.5684,66.612 C274.5684,64.2546549 274.24037,62.0706767 273.5843,60.06 C272.92823,58.0493233 272.019839,56.3160073 270.8591,54.86 C269.698361,53.4039927 268.323158,52.2600042 266.73345,51.428 C265.143742,50.5959958 263.415276,50.18 261.548,50.18 L261.548,48.1 C263.415276,48.1 265.143742,47.7013373 266.73345,46.904 C268.323158,46.1066627 269.698361,44.9800073 270.8591,43.524 C272.019839,42.0679927 272.92823,40.3346767 273.5843,38.324 C274.24037,36.3133233 274.5684,34.0946788 274.5684,31.668 C274.5684,27.6466466 274.303453,23.7293524 273.77355,19.916 C273.243647,16.1026476 272.65067,12.3240187 271.9946,8.58 C271.33853,4.83598128 270.745553,1.04001924 270.21565,-2.808 C269.685747,-6.65601924 269.4208,-10.6253129 269.4208,-14.716 C269.4208,-18.4600187 269.862379,-21.961317 270.74555,-25.22 C271.628721,-28.478683 272.865142,-31.3213212 274.45485,-33.748 C276.044558,-36.1746788 277.962272,-38.0813264 280.20805,-39.468 C282.453828,-40.8546736 284.914053,-41.548 287.5888,-41.548 L291.828,-41.548 L291.828,-40.716 C291.828,-40.0226632 291.525203,-39.676 290.9196,-39.676 L287.5888,-39.676 Z" id="{" fill="#23ABE3" transform="translate(276.688000, 49.140000) rotate(-270.000000) translate(-276.688000, -49.140000) "></path>
                <g id="R1" transform="translate(184.000000, 62.000000)">
                    <polyline id="Resistor" stroke="#524740" stroke-width="2" stroke-linejoin="bevel" points="0 43 5 43 10 30 20 56 30 30 40 56 50 30 60 56 65 43 70 43"></polyline>
                    <g transform="translate(26.000000, 0.000000)" font-weight="normal" fill="#524740">
                        <text id="R" font-family="Lato-Italic, Lato" font-size="18" font-style="italic" letter-spacing="0.695049465">
                            <tspan x="0.400975268" y="18">R</tspan>
                        </text>
                        <text id="1-copy" font-family="Lato-Regular, Lato" font-size="12" letter-spacing="0.46336633">
                            <tspan x="10.2883168" y="21">1</tspan>
                        </text>
                    </g>
                </g>
                <g id="R1-Copy" transform="translate(193.000000, 0.000000)">
                    <g id="V1" font-size="18" font-family="Lato-Regular, Lato" letter-spacing="0.695049465" fill="#23ABE3" font-weight="normal">
                        <text id="V-=-Vs---Vf">
                            <tspan x="165.903228" y="223">V = Vs - Vf</tspan>
                        </text>
                        <text id="Vf-=-I-*-SeriesR">
                            <tspan x="24.6201043" y="154">Vf = I * SeriesR</tspan>
                        </text>
                        <text id="SeriesR-=-∑(R1…Rn)">
                            <tspan x="0.214554818" y="18">SeriesR = ∑(R1…Rn)</tspan>
                        </text>
                    </g>
                    <polyline id="Resistor" stroke="#524740" stroke-width="2" stroke-linejoin="bevel" points="111 105 116 105 121 92 131 118 141 92 151 118 161 92 171 118 176 105 181 105"></polyline>
                    <g id="R1" transform="translate(137.000000, 62.000000)" font-weight="normal" fill="#524740">
                        <text id="R" font-family="Lato-Italic, Lato" font-size="18" font-style="italic" letter-spacing="0.695049465">
                            <tspan x="0.400975268" y="18">R</tspan>
                        </text>
                        <text id="n" font-family="Lato-Regular, Lato" font-size="12" letter-spacing="0.46336633">
                            <tspan x="10.4203168" y="21">n</tspan>
                        </text>
                    </g>
                </g>
                <g id="R1-Copy-2" transform="translate(424.000000, 62.000000)">
                    <polyline id="Resistor" stroke="#524740" stroke-width="2" stroke-linejoin="bevel" points="0 43 5 43 10 30 20 56 30 30 40 56 50 30 60 56 65 43 70 43"></polyline>
                    <g id="R1" transform="translate(26.000000, 0.000000)" font-weight="normal" fill="#524740">
                        <text id="R" font-family="Lato-Italic, Lato" font-size="18" font-style="italic" letter-spacing="0.695049465">
                            <tspan x="0.400975268" y="18">R</tspan>
                        </text>
                        <text id="n+1" font-family="Lato-Regular, Lato" font-size="12" letter-spacing="0.46336633">
                            <tspan x="12.5" y="21">n+1</tspan>
                        </text>
                    </g>
                </g>
                <text id="Voltage-Source" font-family="Lato-Regular, Lato" font-size="18" font-weight="normal" letter-spacing="0.695049465" fill="#524740">
                    <tspan x="2.86282687" y="189">Voltage </tspan>
                    <tspan x="5.87885161" y="211">Source</tspan>
                </text>
                <text id="A" font-family="Lato-Regular, Lato" font-size="18" font-weight="normal" letter-spacing="0.695049465" fill="#23ABE3">
                    <tspan x="113.059475" y="89">A</tspan>
                </text>
                <text id="B" font-family="Lato-Regular, Lato" font-size="18" font-weight="normal" letter-spacing="0.695049465" fill="#23ABE3">
                    <tspan x="393.333975" y="89">B</tspan>
                </text>
                <circle id="Oval-2" fill="#524740" cx="119" cy="105" r="5"></circle>
                <g id="DC_Power" transform="translate(79.000000, 105.000000)">
                    <g id="Group-2" transform="translate(0.000000, 52.000000)">
                        <circle id="Oval" stroke="#524740" stroke-width="2" cx="40" cy="40" r="39"></circle>
                        <text id="+" font-family="Lato-Regular, Lato" font-size="18" font-weight="normal" letter-spacing="0.899999917" fill="#524740">
                            <tspan x="35.33" y="21">+</tspan>
                        </text>
                        <text id="-" font-family="Lato-Regular, Lato" font-size="18" font-weight="normal" letter-spacing="0.899999917" fill="#524740">
                            <tspan x="37.2065" y="72.5">-</tspan>
                        </text>
                    </g>
                    <polyline id="Path-5" stroke="#524740" stroke-width="2" points="40 52 40 0 105 0"></polyline>
                </g>
                <path d="M254,105 L304,105" id="Path-11" stroke="#524740" stroke-width="2"></path>
                <g id="Oval-2-Copy-10">
                    <use fill="#524740" fill-rule="evenodd" xlink:href="#path-1"></use>
                    <circle stroke="#524740" stroke-width="2" cx="399" cy="105" r="4"></circle>
                </g>
                <g id="Oval-2-Copy-17">
                    <use fill="#524740" fill-rule="evenodd" xlink:href="#path-2"></use>
                    <circle stroke="#524740" stroke-width="2" cx="399" cy="289" r="4"></circle>
                </g>
                <text id="C" font-family="Lato-Regular, Lato" font-size="18" font-weight="normal" letter-spacing="0.695049465" fill="#23ABE3">
                    <tspan x="513.140475" y="89">C</tspan>
                </text>
                <circle id="Oval-2-Copy-13" fill="#524740" cx="519" cy="105" r="5"></circle>
                <circle id="Oval-2-Copy-15" stroke="#524740" stroke-width="2" cx="399" cy="139" r="4"></circle>
                <circle id="Oval-2-Copy-11" stroke="#524740" stroke-width="2" cx="399" cy="256" r="4"></circle>
                <path d="M374,105 L424,105" id="Path-11-Copy" stroke="#524740" stroke-width="2"></path>
                <path d="M399,105 L399,136" id="Path-12-Copy" stroke="#524740" stroke-width="2"></path>
                <path d="M399,259 L399,290" id="Path-12-Copy-6" stroke="#524740" stroke-width="2"></path>
                <polyline id="Path-12-Copy-2" stroke="#524740" stroke-width="2" points="494 105 519 105 519 254.906288"></polyline>
                <polyline id="Path-12-Copy-3" stroke="#524740" stroke-width="2" transform="translate(319.000000, 263.000000) scale(1, -1) translate(-319.000000, -263.000000) " points="119 289 119 237 519 237 519 289"></polyline>
                <g id="Group-4-Copy" transform="translate(396.000000, 144.000000)">
                    <path d="M3,1 L3,56.5202666" id="Path-14" stroke="#23ABE3"></path>
                    <polygon id="Triangle" fill="#23ABE3" points="3 0 6 6 0 6"></polygon>
                </g>
                <g id="Group-3-Copy" transform="translate(396.000000, 231.000000)">
                    <path d="M3,0.493244477 L3,19" id="Path-14-Copy" stroke="#23ABE3"></path>
                    <polygon id="Triangle-Copy" fill="#23ABE3" points="3 20 0 14 6 14"></polygon>
                </g>
            </g>
        </g>
    </g>
</svg>