<?xml version="1.0" encoding="UTF-8"?>
<svg width="498px" height="297px" viewBox="0 0 498 297" version="1.1" xmlns="http://www.w3.org/2000/svg" xmlns:xlink="http://www.w3.org/1999/xlink">
    <!-- Generator: Sketch 45.1 (43504) - http://www.bohemiancoding.com/sketch -->
    <title>Magnetic_Field</title>
    <desc>Created with Sketch.</desc>
    <defs>
        <rect id="path-1" x="111" y="137" width="135" height="24"></rect>
        <rect id="path-2" x="246" y="137" width="135" height="24"></rect>
    </defs>
    <g id="Page-1" stroke="none" stroke-width="1" fill="none" fill-rule="evenodd">
        <g id="Letter" transform="translate(-1028.000000, -11.000000)">
            <g id="Magnetic_Field" transform="translate(1029.000000, 11.000000)">
                <g id="Rectangle-5">
                    <use fill="#B09679" fill-rule="evenodd" xlink:href="#path-1"></use>
                    <rect stroke="#979797" stroke-width="1" x="111.5" y="137.5" width="134" height="23"></rect>
                </g>
                <g id="Rectangle-5-Copy">
                    <use fill="#23ABE3" fill-rule="evenodd" xlink:href="#path-2"></use>
                    <rect stroke="#979797" stroke-width="1" x="246.5" y="137.5" width="134" height="23"></rect>
                </g>
                <text id="N" font-family="Lato-Bold, Lato" font-size="18" font-weight="bold" letter-spacing="0.6950495" fill="#EEEEEE">
                    <tspan x="120.717975" y="155">N</tspan>
                </text>
                <text id="S" font-family="Lato-Bold, Lato" font-size="18" font-weight="bold" letter-spacing="0.6950495" fill="#EEEEEE">
                    <tspan x="362.715975" y="155">S</tspan>
                </text>
                <path d="M216.53125,137.101562 C223.395833,127.033854 234.872396,122 250.960938,122 C267.049479,122 277.419271,127.033854 282.070313,137.101562" id="Path-7" stroke="#979797" stroke-width="2"></path>
                <path d="M195.324661,139.413622 C183.976158,113.01258 202.83362,99.8120592 251.897047,99.8120592 C300.960474,99.8120592 317.741556,113.01258 302.240293,139.413622" id="Path-7-Copy" stroke="#979797" stroke-width="2"></path>
                <path d="M173.496377,138.114935 C153.096251,93.2086435 178.727293,70.755498 250.389501,70.755498 C322.051709,70.755498 346.570807,93.2086435 323.946797,138.114935" id="Path-7-Copy-2" stroke="#979797" stroke-width="2"></path>
                <path d="M146.443823,137.305005 C93.7302992,73.8308351 128.21096,42.09375 249.885804,42.09375 C371.560649,42.09375 405.259036,73.8308351 350.980967,137.305005" id="Path-7-Copy-3" stroke="#979797" stroke-width="2"></path>
                <path d="M119.504755,136.771017 C20.9167878,52.1346098 64.4265554,8.87760417 250.034058,7 C435.641561,5.12239583 478.16421,48.3794015 377.602004,136.771017" id="Path-7-Copy-4" stroke="#979797" stroke-width="2"></path>
                <path d="M216.53125,176.101562 C223.395833,166.033854 234.872396,161 250.960938,161 C267.049479,161 277.419271,166.033854 282.070313,176.101562" id="Path-7-Copy-9" stroke="#979797" stroke-width="2" transform="translate(249.300781, 168.550781) scale(1, -1) translate(-249.300781, -168.550781) "></path>
                <path d="M195.324661,200.413622 C183.976158,174.01258 202.83362,160.812059 251.897047,160.812059 C300.960474,160.812059 317.741556,174.01258 302.240293,200.413622" id="Path-7-Copy-8" stroke="#979797" stroke-width="2" transform="translate(249.974858, 180.612840) scale(1, -1) translate(-249.974858, -180.612840) "></path>
                <path d="M173.496377,228.114935 C153.096251,183.208644 178.727293,160.755498 250.389501,160.755498 C322.051709,160.755498 346.570807,183.208644 323.946797,228.114935" id="Path-7-Copy-7" stroke="#979797" stroke-width="2" transform="translate(249.402713, 194.435216) scale(1, -1) translate(-249.402713, -194.435216) "></path>
                <path d="M146.443823,256.305005 C93.7302992,192.830835 128.21096,161.09375 249.885804,161.09375 C371.560649,161.09375 405.259036,192.830835 350.980967,256.305005" id="Path-7-Copy-6" stroke="#979797" stroke-width="2" transform="translate(249.319647, 208.699378) scale(1, -1) translate(-249.319647, -208.699378) "></path>
                <path d="M119.504755,290.771017 C20.9167878,206.13461 64.4265554,162.877604 250.034058,161 C435.641561,159.122396 478.16421,202.379401 377.602004,290.771017" id="Path-7-Copy-5" stroke="#979797" stroke-width="2" transform="translate(249.406851, 225.856218) scale(1, -1) translate(-249.406851, -225.856218) "></path>
                <path d="M381.082031,146.117188 C381.082031,146.117188 470.855469,123.875 495.96875,115.132812" id="Path-9" stroke="#979797" stroke-width="2"></path>
                <path d="M380.082031,183.117188 C380.082031,183.117188 469.855469,160.875 494.96875,152.132812" id="Path-9-Copy" stroke="#979797" stroke-width="2" transform="translate(437.525391, 167.625000) scale(1, -1) translate(-437.525391, -167.625000) "></path>
                <path d="M380.984375,141.960937 C380.984375,141.960937 453.917969,102.515625 491.167969,60.5351562" id="Path-8" stroke="#979797" stroke-width="2"></path>
                <path d="M380.984375,237.960937 C380.984375,237.960937 453.917969,198.515625 491.167969,156.535156" id="Path-8-Copy" stroke="#979797" stroke-width="2" transform="translate(436.076172, 197.248047) scale(1, -1) translate(-436.076172, -197.248047) "></path>
                <path d="M381.21875,149 L494.882812,149" id="Path-10" stroke="#979797" stroke-width="2"></path>
                <path d="M1.08203125,146.117188 C1.08203125,146.117188 90.8554688,123.875 115.96875,115.132812" id="Path-9-Copy-3" stroke="#979797" stroke-width="2" transform="translate(58.525391, 130.625000) scale(-1, 1) translate(-58.525391, -130.625000) "></path>
                <path d="M0.08203125,183.117188 C0.08203125,183.117188 89.8554688,160.875 114.96875,152.132812" id="Path-9-Copy-2" stroke="#979797" stroke-width="2" transform="translate(57.525391, 167.625000) scale(-1, -1) translate(-57.525391, -167.625000) "></path>
                <path d="M0.984375,141.960937 C0.984375,141.960937 73.9179688,102.515625 111.167969,60.5351562" id="Path-8-Copy-3" stroke="#979797" stroke-width="2" transform="translate(56.076172, 101.248047) scale(-1, 1) translate(-56.076172, -101.248047) "></path>
                <path d="M0.984375,237.960937 C0.984375,237.960937 73.9179688,198.515625 111.167969,156.535156" id="Path-8-Copy-2" stroke="#979797" stroke-width="2" transform="translate(56.076172, 197.248047) scale(-1, -1) translate(-56.076172, -197.248047) "></path>
                <path d="M1.21875,149 L114.882812,149" id="Path-10-Copy" stroke="#979797" stroke-width="2" transform="translate(58.050781, 149.000000) scale(-1, 1) translate(-58.050781, -149.000000) "></path>
                <polygon id="Triangle" fill="#555555" points="257 70.5 248 77 248 64"></polygon>
                <polygon id="Triangle-Copy" fill="#555555" points="257 42.5 248 49 248 36"></polygon>
                <polygon id="Triangle-Copy-2" fill="#555555" points="257 6.5 248 13 248 0"></polygon>
                <polygon id="Triangle-Copy-3" fill="#555555" points="257 99.5 248 106 248 93"></polygon>
                <polygon id="Triangle-Copy-4" fill="#555555" points="257 121.5 248 128 248 115"></polygon>
                <polygon id="Triangle-Copy-5" fill="#555555" points="257 175.5 248 182 248 169"></polygon>
                <polygon id="Triangle-Copy-6" fill="#555555" points="257 200.5 248 207 248 194"></polygon>
                <polygon id="Triangle-Copy-7" fill="#555555" points="257 228.5 248 235 248 222"></polygon>
                <polygon id="Triangle-Copy-8" fill="#555555" points="257 256.5 248 263 248 250"></polygon>
                <polygon id="Triangle-Copy-9" fill="#555555" points="257 290.5 248 297 248 284"></polygon>
                <polygon id="Triangle-Copy-10" fill="#555555" transform="translate(42.500000, 148.500000) scale(-1, 1) translate(-42.500000, -148.500000) " points="47 148.5 38 155 38 142"></polygon>
                <polygon id="Triangle-Copy-11" fill="#555555" transform="translate(48.500000, 128.500000) scale(-1, 1) rotate(-10.000000) translate(-48.500000, -128.500000) " points="53 128.5 44 135 44 122"></polygon>
                <polygon id="Triangle-Copy-13" fill="#555555" transform="translate(58.500000, 109.500000) scale(-1, 1) rotate(-28.000000) translate(-58.500000, -109.500000) " points="63 109.5 54 116 54 103"></polygon>
                <polygon id="Triangle-Copy-14" fill="#555555" transform="translate(58.500000, 189.500000) scale(-1, -1) rotate(-28.000000) translate(-58.500000, -189.500000) " points="63 189.5 54 196 54 183"></polygon>
                <polygon id="Triangle-Copy-12" fill="#555555" transform="translate(48.500000, 169.500000) scale(-1, 1) rotate(10.000000) translate(-48.500000, -169.500000) " points="53 169.5 44 176 44 163"></polygon>
                <polygon id="Triangle-Copy-19" fill="#555555" transform="translate(452.500000, 148.500000) scale(-1, 1) translate(-452.500000, -148.500000) " points="457 148.5 448 155 448 142"></polygon>
                <polygon id="Triangle-Copy-18" fill="#555555" transform="translate(448.500000, 128.500000) scale(-1, 1) rotate(20.000000) translate(-448.500000, -128.500000) " points="453 128.5 444 135 444 122"></polygon>
                <polygon id="Triangle-Copy-17" fill="#555555" transform="translate(438.500000, 106.500000) scale(-1, 1) rotate(32.000000) translate(-438.500000, -106.500000) " points="443 106.5 434 113 434 100"></polygon>
                <polygon id="Triangle-Copy-16" fill="#555555" transform="translate(438.500000, 192.500000) scale(-1, -1) rotate(32.000000) translate(-438.500000, -192.500000) " points="443 192.5 434 199 434 186"></polygon>
                <polygon id="Triangle-Copy-15" fill="#555555" transform="translate(448.500000, 169.500000) scale(-1, 1) rotate(-13.000000) translate(-448.500000, -169.500000) " points="453 169.5 444 176 444 163"></polygon>
            </g>
        </g>
    </g>
</svg>