<?xml version="1.0" encoding="utf-8"?>
<!-- Generator: Adobe Illustrator 22.1.0, SVG Export Plug-In . SVG Version: 6.00 Build 0)  -->
<svg version="1.1" id="Layer_1" xmlns="http://www.w3.org/2000/svg" xmlns:xlink="http://www.w3.org/1999/xlink" x="0px" y="0px"
	 viewBox="0 0 257 130" style="enable-background:new 0 0 257 130;" xml:space="preserve">
<style type="text/css">
	.st0{fill:#98A645;}
	.st1{fill:#2E2825;}
</style>
<g>
	<polyline class="st0" points="124.2,65.4 87.3,16.5 12.2,115.9 86.1,115.9 	"/>
	<path class="st1" d="M86.8,124h-80c-1.8,0-3.5-1-4.3-2.6s-0.6-3.5,0.4-5L84.2,6.9C85.1,5.7,86.5,5,88,5l0,0c1.5,0,2.9,0.7,3.8,1.9
		l40,53.9c1.6,2.1,1.1,5.1-1,6.7s-5.1,1.1-6.7-1L87.9,17.8l-71.8,96.7h70.5c2.6,0,4.8,2.1,4.8,4.8S89.4,124,86.8,124z"/>
	<g>
		<path class="st1" d="M249.3,124c-1.5,0-2.9-0.7-3.8-1.9L168,17.7L90.6,122c-1.6,2.1-4.6,2.6-6.7,1s-2.6-4.6-1-6.7L164.2,6.9
			c0.9-1.2,2.3-1.9,3.8-1.9s2.9,0.7,3.8,1.9L253,116.4c1.6,2.1,1.1,5.1-1,6.7C251.3,123.7,250.3,124,249.3,124z"/>
	</g>
	<g>
		<path class="st0" d="M138.3,108.8c-0.9-0.9-2.3-1-3.2-0.1l-0.1,0.1l-11.2,11c-0.9,0.8-1,2.2-0.2,3.2c0,0.1,0.1,0.1,0.2,0.2
			c0.8,0.9,2.2,1,3.1,0.2c0.1-0.1,0.1-0.1,0.2-0.2l9.5-9.4l9.5,9.4c0.4,0.4,1,0.7,1.7,0.7c0.6,0,1.2-0.2,1.7-0.7
			c0.9-0.8,1-2.2,0.2-3.2c0-0.1-0.1-0.1-0.2-0.2L138.3,108.8z"/>
		<path class="st0" d="M138.3,96.6c-0.9-0.9-2.3-1-3.2-0.1l-0.1,0.1l-11.2,11.1c-0.9,0.8-1,2.2-0.2,3.2c0,0.1,0.1,0.1,0.2,0.2
			c0.8,0.9,2.2,1,3.1,0.2c0.1-0.1,0.1-0.1,0.2-0.2l9.5-9.4l9.5,9.4c0.4,0.4,1,0.7,1.7,0.7c0.6,0,1.2-0.2,1.7-0.7
			c0.9-0.8,1-2.2,0.2-3.2c0-0.1-0.1-0.1-0.2-0.2L138.3,96.6z"/>
		<path class="st0" d="M138.3,85.3c-0.9-0.9-2.3-1-3.2-0.1l-0.1,0.1l-11.2,11.1c-0.9,0.9-0.9,2.4,0,3.3s2.4,0.9,3.3,0l9.5-9.4
			l9.5,9.4c0.4,0.4,1,0.7,1.7,0.6c0.6,0,1.2-0.2,1.7-0.6c0.9-0.8,1-2.2,0.2-3.2c0-0.1-0.1-0.1-0.2-0.2L138.3,85.3z"/>
		<path class="st0" d="M169.7,108.8c-0.8-0.9-2.2-1-3.2-0.2c-0.1,0-0.1,0.1-0.2,0.2l-11.1,11c-0.9,0.8-1,2.2-0.2,3.2
			c0,0.1,0.1,0.1,0.2,0.2c0.4,0.4,1,0.7,1.7,0.7c0.6,0,1.2-0.2,1.7-0.7l9.5-9.4l9.5,9.4c0.9,0.9,2.4,0.9,3.3,0
			c0.9-0.9,0.9-2.4,0-3.3L169.7,108.8z"/>
		<path class="st0" d="M169.7,96.6c-0.8-0.9-2.2-1-3.2-0.2c-0.1,0-0.1,0.1-0.2,0.2l-11.1,11.1c-0.9,0.9-0.9,2.3,0,3.2
			c0.4,0.4,1,0.7,1.7,0.7c0.6,0,1.2-0.2,1.7-0.7l9.5-9.4l9.5,9.4c0.8,0.9,2.2,1,3.2,0.2c0.1,0,0.1-0.1,0.2-0.2
			c0.9-0.9,0.9-2.4,0-3.3l0,0L169.7,96.6z"/>
		<path class="st0" d="M169.7,85.3c-0.8-0.9-2.2-1-3.2-0.2c-0.1,0-0.1,0.1-0.2,0.2l-11.1,11.1c-0.9,0.8-1,2.2-0.2,3.2
			c0,0.1,0.1,0.1,0.2,0.2c0.4,0.4,1,0.7,1.7,0.6c0.6,0,1.2-0.2,1.7-0.6l9.3-9.4l9.5,9.4c0.9,0.9,2.4,0.9,3.3,0
			c0.9-0.9,0.9-2.4,0-3.3L169.7,85.3z"/>
		<path class="st0" d="M201.1,108.8c-0.8-0.9-2.2-1-3.2-0.2c-0.1,0-0.1,0.1-0.2,0.2l-11.1,11c-0.9,0.8-1,2.2-0.2,3.2
			c0,0.1,0.1,0.1,0.2,0.2c0.8,0.9,2.2,1,3.1,0.2c0.1-0.1,0.1-0.1,0.2-0.2l9.5-9.4l9.4,9.5c0.4,0.4,1,0.7,1.7,0.6
			c0.6,0,1.2-0.2,1.7-0.6c0.9-0.8,1-2.3,0.1-3.2l-0.1-0.1L201.1,108.8z"/>
		<path class="st0" d="M201.1,96.6c-0.8-0.9-2.2-1-3.2-0.2c-0.1,0-0.1,0.1-0.2,0.2l-11.1,11.1c-0.9,0.8-1,2.2-0.2,3.2
			c0,0.1,0.1,0.1,0.2,0.2c0.9,0.9,2.3,0.9,3.3,0.1c0,0,0,0,0.1-0.1l9.5-9.4l9.4,9.4c0.4,0.4,1,0.7,1.7,0.7c0.6,0,1.2-0.2,1.7-0.7
			c0.9-0.8,1-2.2,0.2-3.2c0-0.1-0.1-0.1-0.2-0.2L201.1,96.6z"/>
		<path class="st0" d="M201.1,85.3c-0.8-0.9-2.2-1-3.2-0.2c-0.1,0-0.1,0.1-0.2,0.2l-11.1,11.1c-0.9,0.9-0.9,2.4,0,3.3s2.4,0.9,3.3,0
			l9.5-9.4l9.4,9.4c0.4,0.4,1,0.7,1.7,0.6c0.6,0,1.2-0.2,1.7-0.6c0.9-0.8,1-2.2,0.2-3.2c0-0.1-0.1-0.1-0.2-0.2L201.1,85.3z"/>
	</g>
</g>
</svg>
