<svg id="Layer_1" data-name="Layer 1" xmlns="http://www.w3.org/2000/svg" viewBox="0 0 45.1 40"><defs><style>.cls-1{fill:#f8f8f8;}</style></defs><title>check-white</title><path id="Check" class="cls-1" d="M7,31.78a18.58,18.58,0,0,1,5-14.34,19,19,0,0,1,28.74,1L49.32,10a1.6,1.6,0,0,1,2.27,2.26l-24,23.88a1.53,1.53,0,0,1-1.15.46h0a1.8,1.8,0,0,1-1.16-.46l-7.86-8a1.56,1.56,0,0,1,0-2.27,1.6,1.6,0,0,1,2.26,0l6.8,6.8,12-11.93A15.83,15.83,0,0,0,26,14.66a15.84,15.84,0,0,0-15.78,17,15.8,15.8,0,0,0,31.37,1.3,14.17,14.17,0,0,0,.19-2.46,1.62,1.62,0,0,1,3.24,0,20.52,20.52,0,0,1-.23,2.92A19.18,19.18,0,0,1,25.91,49.5a12,12,0,0,1-1.34,0A19.18,19.18,0,0,1,7,31.78Z" transform="translate(-6.97 -9.5)"/></svg>