<?xml version="1.0" encoding="UTF-8"?>
<svg width="542px" height="100px" viewBox="0 0 542 100" version="1.1" xmlns="http://www.w3.org/2000/svg" xmlns:xlink="http://www.w3.org/1999/xlink">
    <title>Bluetooth_Logo</title>
    <g id="Bluetooth_Logo" stroke="none" stroke-width="1" fill="none" fill-rule="evenodd">
        <g id="BluetoothLogo" transform="translate(98.000000, 7.000000)">
            <path d="M87.2,45.6 C97.6,45.112 98.7,48.53 98.8,54.6 C98.8,60.62 97.35,64.1 87.3,63.6 L87.3,45.6 L87.2,45.6 Z M87.2,21.5 C96.14,21.092 97.5,24.1 97.6,29.8 C97.6,37.3 92.87,37.3 87.1,37.3 L87.1,21.5 L87.2,21.5 Z M77.1,72 L93.1,72 C104.6,72 108.9,64.7 108.9,55 C108.9,47.4 105.9,43.4 100.8,41.1 C105.7,39.1 107.8,33.9 107.8,28.8 C107.8,18.8 103,13.3 92.2,13.3 L77.2,13.3 L77.2,72 L77.1,72 Z" id="Shape" fill="#000000" fill-rule="nonzero"></path>
            <path d="M122,72 L122,13.2 L112.9,13.2 L112.9,72 L122,72 Z M146,28.2 L146,62.5 C143.9,64 142.1,65.3 140.1,65.3 C138.1,65.3 136.8,64.3 136.8,62.1 L136.8,28.2 L127.7,28.2 L127.7,63.6 C127.7,69.3 130.5,72.8 135.3,72.8 C140.6,72.8 142.5,70.8 146.4,67.6 L146.4,72 L155,72 L155,28.2 L146,28.2 Z" id="Shape" fill="#000000" fill-rule="nonzero"></path>
            <path d="M169.999968,44.3 C169.999968,39.97 169.94,34.94 175,34.8 C180.34,34.8 180,40.02 180,44.3 L169.999968,44.3 Z M189.3,43.6 C189.3,34 185.6,27.3 175.1,27.3 C164.7,27.3 160.9,34 160.9,43.6 L160.9,56.5 C160.9,66.1 164.6,72.8 175.1,72.8 C185.3,72.8 189.1,66.5 189.3,57.2 L180.2,57.2 C180.11,61.3 180.056,65.4 175.2,65.4 C171.9,65.4 170.2,63.3 170.2,58.2 L170.2,51.9 L189.4,51.9 L189.4,43.6 L189.3,43.6 Z" id="Shape" fill="#000000" fill-rule="nonzero"></path>
            <path d="M346.9,19.5 C346.9,23 343.9,25.9 340.5,25.9 C336.9,25.9 334.1,23.1 334.1,19.5 C334.1,16 337,13.1 340.5,13.1 C344.1,13.1 346.9,15.9 346.9,19.5 Z M335.4,19.4 C335.4,22.1 337.6,24.5 340.4,24.5 C343.2,24.5 345.4,22.2 345.4,19.5 C345.4,16.7 343.2,14.4 340.4,14.4 C337.7,14.4 335.4,16.7 335.4,19.4 Z M341.6,23 L339.6,19.9 L339.5,19.9 L339.5,23 L338.3,23 L338.3,15.9 L340.4,15.9 C342.1,15.9 342.8,16.6 342.8,17.7 C342.8,18.9 342.1,19.6 340.9,19.7 C341.1,19.9 341.3,20.3 341.6,20.7 L343.1,22.9 L341.6,22.9 L341.6,23 Z M340.4,16.9 L339.6,16.9 L339.6,19.1 L340.1,19.1 C341.2,19.1 341.6,18.5 341.6,17.9 C341.6,17.2 341.2,16.9 340.4,16.9 Z" id="Shape" fill="#000000" fill-rule="nonzero"></path>
            <path d="M197,35.7 L197,63 C197,69.7 200.8,72.8 207.7,72.8 C210,72.8 211,72.6 212.3,72.3 L212.3,64.5 L209.3,64.5 C207.2,64.5 206.2,63.2 206.2,60.9 L206.2,35.7 L212.3,35.7 L212.3,28.2 L206.2,28.2 L206.2,16.4 L197.1,16.4 L197.1,28.2 L192.1,28.2 L192.1,35.7 L197,35.7 Z" id="A" fill="#000000" fill-rule="nonzero"></path>
            <path d="M236,58.1 C236,63.1 234.2,65.3 231,65.3 C227.7,65.3 226,63.2 226,58.1 L226,42 C226,30.8 236.8,33.06 236,42 L236,58.1 Z M216.8,56.5 C216.8,66.1 220.5,72.8 231,72.8 C241.4,72.8 245.2,66.1 245.2,56.5 L245.2,43.6 C245.2,34 241.5,27.3 231,27.3 C220.6,27.3 216.8,34 216.8,43.6 L216.8,56.5 Z" id="B" fill="#000000" fill-rule="nonzero"></path>
            <path d="M316,72 L316,37.6 C318.86,35 325.2,32.48 325.2,38 L325.2,72 L334.3,72 L334.3,36.6 C333.396,23.3 322.2,26 316.1,32.3 L316.1,13.3 L307,13.3 L307,72 L316,72 Z" id="Path" fill="#000000" fill-rule="nonzero"></path>
            <path d="M34.8,21 L41.8,28 L34.8,35 L34.8,21 Z M34.8,64.1 L41.8,57.1 L34.8,50.1 L34.8,64.1 Z M27.3,42.6 L12.1,27.3 L16.5,22.9 L28.6,35 L28.6,6 L50.6,28 L36.1,42.6 L50.7,57.2 L28.7,79.2 L28.7,50.1 L16.5,62.2 L12.1,57.8 L27.3,42.6 Z M31.4,85.1 C50,85.1 62.8,76.3 62.8,42.5 C62.8,8.8 50,0 31.4,0 C12.8,0 0,8.8 0,42.6 C0,76.3 12.8,85.1 31.4,85.1 Z" id="Shape" fill="#0082FC"></path>
            <g id="B-link" transform="translate(249.100000, 27.000000)" fill="#000000" fill-rule="nonzero">
                <path d="M20,31.1 C20,36.1 18.2,38.3 15,38.3 C11.7,38.3 10,36.2 10,31.1 L10,15 C10,3.8 20.8,6.06 20,15 L20,31.1 Z M0.8,29.5 C0.8,39.1 4.5,45.8 15,45.8 C25.4,45.8 29.2,39.1 29.2,29.5 L29.2,16.6 C29.2,7 25.5,0.3 15,0.3 C4.6,0.3 0.8,7 0.8,16.6 L0.8,29.5 Z" id="B"></path>
            </g>
            <g id="A-link" transform="translate(280.200000, 16.000000)" fill="#000000" fill-rule="nonzero">
                <path d="M5,19.7 L5,47 C5,53.7 8.8,56.8 15.7,56.8 C18,56.8 19,56.6 20.3,56.3 L20.3,48.5 L17.3,48.5 C15.2,48.5 14.2,47.2 14.2,44.9 L14.2,19.7 L20.3,19.7 L20.3,12.2 L14.2,12.2 L14.2,0.4 L5.1,0.4 L5.1,12.2 L0.1,12.2 L0.1,19.7 L5,19.7 Z" id="A"></path>
            </g>
        </g>
        <rect id="Rectangle" x="0" y="0" width="542" height="100"></rect>
    </g>
</svg>