<?xml version="1.0" encoding="UTF-8"?>
<svg width="321px" height="321px" viewBox="0 0 321 321" version="1.1" xmlns="http://www.w3.org/2000/svg" xmlns:xlink="http://www.w3.org/1999/xlink">
    <!-- Generator: Sketch 45 (43475) - http://www.bohemiancoding.com/sketch -->
    <title>Hole_Flow</title>
    <desc>Created with Sketch.</desc>
    <defs>
        <path d="M1.55478752e-27,158.052908 C1.66717631e-13,162.64713 13.407669,166.371482 29.9468668,166.371482 C46.4860647,166.371482 59.8937336,162.64713 59.8937336,158.052908 L59.8937336,8.31857412 L0,8.31857412 L0,158.052908 Z" id="path-1"></path>
        <ellipse id="path-2" cx="29.9468668" cy="8.31857412" rx="29.9468668" ry="8.31857412"></ellipse>
        <path d="M28.2742965,101.486604 C28.2742965,102.864871 32.7435195,103.982176 38.2565854,103.982176 C43.7696514,103.982176 48.2388743,102.864871 48.2388743,101.486604 L48.2388743,94.8317449 L28.2742965,94.8317449 L28.2742965,101.486604 Z" id="path-3"></path>
        <ellipse id="path-4" cx="38.2565854" cy="94.8317449" rx="9.98228894" ry="2.49557223"></ellipse>
    </defs>
    <g id="Page-1" stroke="none" stroke-width="1" fill="none" fill-rule="evenodd">
        <g id="Letter" transform="translate(-46.000000, -15.000000)">
            <g id="Hole_Flow" transform="translate(45.000000, 18.000000)">
                <g id="Group" transform="translate(8.309719, 94.831745)">
                    <g id="Combined-Shape">
                        <use fill="#EEEEEE" fill-rule="evenodd" xlink:href="#path-1"></use>
                        <path stroke="#23ABE3" stroke-width="1" d="M59.3937336,8.81857412 L0.5,8.81857412 L0.5,158.052908 C0.5,162.200591 13.7152079,165.871482 29.9468668,165.871482 C46.1785258,165.871482 59.3937336,162.200591 59.3937336,158.052908 L59.3937336,8.81857412 Z"></path>
                    </g>
                    <g id="Oval">
                        <use fill="#EEEEEE" fill-rule="evenodd" xlink:href="#path-2"></use>
                        <ellipse stroke="#23ABE3" stroke-width="1" cx="29.9468668" cy="8.31857412" rx="29.4468668" ry="7.81857412"></ellipse>
                    </g>
                </g>
                <g id="Combined-Shape">
                    <use fill="#F8E71C" fill-rule="evenodd" xlink:href="#path-3"></use>
                    <path stroke="#979797" stroke-width="1" d="M47.7388743,95.3317449 L28.7742965,95.3317449 L28.7742965,101.486604 C28.7742965,101.82065 29.6810571,102.356606 31.319309,102.766169 C33.1364756,103.220461 35.6115382,103.482176 38.2565854,103.482176 C40.9016327,103.482176 43.3766953,103.220461 45.1938618,102.766169 C46.8321138,102.356606 47.7388743,101.82065 47.7388743,101.486604 L47.7388743,95.3317449 Z"></path>
                </g>
                <g id="Oval-2">
                    <use fill="#F8E71C" fill-rule="evenodd" xlink:href="#path-4"></use>
                    <ellipse stroke="#979797" stroke-width="1" cx="38.2565854" cy="94.8317449" rx="9.48228894" ry="1.99557223"></ellipse>
                </g>
                <text id="+" font-family="Lato-Medium, Lato" font-size="33" font-weight="400" letter-spacing="1.27425778" fill="#555555">
                    <tspan x="0" y="91.5220263">+</tspan>
                </text>
                <text id="-" font-family="Lato-Medium, Lato" font-size="33" font-weight="400" letter-spacing="1.27425778" fill="#555555">
                    <tspan x="4.15928706" y="282.849231">-</tspan>
                </text>
                <polyline id="Path-2" stroke="#23ABE3" stroke-width="7" points="38.9166905 92.2831063 38.9166905 23.1513714 258.99369 23.1513714 258.99369 314.083317 38.9166905 314.083317 38.9166905 259.611878"></polyline>
                <path d="M122.274184,2.49557223 L177.176773,2.49557223" id="Line-11" stroke="#B09679" stroke-width="3"></path>
                <path id="Line-11-decoration-1" d="M177.176773,2.49557223 L166.376773,-0.504427765 L166.376773,5.49557223 L177.176773,2.49557223 Z" stroke="#B09679" stroke-width="3"></path>
                <path d="M122.274184,2.49557223 L177.176773,2.49557223" id="Line-11-Copy" stroke="#B09679" stroke-width="3"></path>
                <path id="Line-11-Copy-decoration-1" d="M177.176773,2.49557223 L166.376773,-0.504427765 L166.376773,5.49557223 L177.176773,2.49557223 Z" stroke="#B09679" stroke-width="3"></path>
                <path d="M122.274184,298.636811 L177.176773,298.636811" id="Line-11-Copy-2" stroke="#B09679" stroke-width="3" transform="translate(149.725479, 298.636811) scale(-1, 1) translate(-149.725479, -298.636811) "></path>
                <path id="Line-11-Copy-2-decoration-1" d="M177.176773,298.636811 L166.376773,295.636811 L166.376773,301.636811 L177.176773,298.636811 Z" stroke="#B09679" stroke-width="3"></path>
                <path d="M279.495235,206.300638 L279.495235,261.203227" id="Line-11-Copy-3" stroke="#B09679" stroke-width="3"></path>
                <path id="Line-11-Copy-3-decoration-1" d="M279.495235,261.203227 L282.495235,250.403227 L276.495235,250.403227 L279.495235,261.203227 Z" stroke="#B09679" stroke-width="3"></path>
                <path d="M254.539512,164.707768 C254.539512,166.545456 256.401689,168.035197 258.698799,168.035197 C260.99591,168.035197 262.858087,166.545456 262.858087,164.707768 L266.176661,164.707768 C268.938084,164.707768 271.176661,162.469191 271.176661,159.707768 L271.176661,133.538011 C271.176661,130.776587 268.938084,128.538011 266.176661,128.538011 L266.176661,128.538011 L251.220938,128.538011 L251.220938,128.538011 C248.459515,128.538011 246.220938,130.776587 246.220938,133.538011 L246.220938,133.538011 L246.220938,159.707768 C246.220938,162.469191 248.459515,164.707768 251.220938,164.707768 L251.220938,164.707768 L254.539512,164.707768 Z" id="Combined-Shape" stroke="#979797" fill="#D8D8D8"></path>
                <circle id="Oval-3" stroke="#979797" fill="#F8E71C" cx="257.866942" cy="111.468893" r="29.9468668"></circle>
                <polyline id="Path-3" stroke="#8B572A" stroke-linejoin="round" points="251.139994 140.707577 251.139994 111.08973 254.515207 121.554295 257.617676 111.08973 260.492523 121.554295 262.814862 111.08973 265.064002 121.554295 265.064002 140.707577"></polyline>
                <path d="M207.12364,64.0530207 L223.760788,79.0264541" id="Line" stroke="#999999" stroke-linecap="square"></path>
                <path d="M233.743077,52.4070169 L240.397936,70.70788" id="Line-2" stroke="#979797" stroke-linecap="square"></path>
                <path d="M280.327092,50.7433021 L272.008518,70.70788" id="Line-3" stroke="#979797" stroke-linecap="square"></path>
                <path d="M308.610244,65.7167355 L290.309381,79.0264541" id="Line-4" stroke="#979797" stroke-linecap="square"></path>
                <path d="M295.300526,98.991032 L318.592533,93.9998875" id="Line-5" stroke="#979797" stroke-linecap="square"></path>
                <path d="M296.96424,120.619325 L321.919963,123.946754" id="Line-6" stroke="#979797" stroke-linecap="square"></path>
                <path d="M283.654522,135.592758 L300.29167,157.221051" id="Line-7" stroke="#979797" stroke-linecap="square"></path>
                <path d="M215.442214,95.6636023 L190.486492,89.008743" id="Line-8" stroke="#979797" stroke-linecap="square"></path>
                <path d="M218.769644,113.964465 L192.150207,122.28304" id="Line-9" stroke="#979797" stroke-linecap="square"></path>
                <path d="M228.751933,135.592758 L207.12364,157.221051" id="Line-10" stroke="#979797" stroke-linecap="square"></path>
                <path d="M271.083607,140.732298 C264.705196,146.224289 249.438523,145.405053 246.487467,144.360201" id="Path-4" stroke="#979797"></path>
                <path d="M271.083607,145.723442 C264.705196,151.215433 249.438523,150.396197 246.487467,149.351345" id="Path-4-Copy" stroke="#979797"></path>
                <path d="M271.083607,150.714587 C264.705196,156.206578 249.438523,155.387342 246.487467,154.34249" id="Path-4-Copy-2" stroke="#979797"></path>
                <path d="M271.083607,155.705731 C264.705196,161.197722 249.438523,160.378486 246.487467,159.333634" id="Path-4-Copy-3" stroke="#979797"></path>
                <g id="Group-2" transform="translate(36.592871, 19.964578)" fill="#EEEEEE">
                    <circle id="Oval-5" cx="18.6371482" cy="2.83185741" r="2"></circle>
                    <circle id="Oval-5-Copy" cx="11.9822889" cy="2.83185741" r="2"></circle>
                    <circle id="Oval-5-Copy-2" cx="5.32742965" cy="2.83185741" r="2"></circle>
                    <circle id="Oval-5-Copy-38" cx="2" cy="7.82300188" r="2"></circle>
                    <circle id="Oval-5-Copy-39" cx="2" cy="14.4778612" r="2"></circle>
                    <circle id="Oval-5-Copy-41" cx="2" cy="21.1327205" r="2"></circle>
                    <circle id="Oval-5-Copy-40" cx="2" cy="27.7875798" r="2"></circle>
                    <circle id="Oval-5-Copy-45" cx="2" cy="34.4424391" r="2"></circle>
                    <circle id="Oval-5-Copy-44" cx="2" cy="41.0972983" r="2"></circle>
                    <circle id="Oval-5-Copy-43" cx="2" cy="47.7521576" r="2"></circle>
                    <circle id="Oval-5-Copy-42" cx="2" cy="54.4070169" r="2"></circle>
                    <circle id="Oval-5-Copy-101" cx="221.610357" cy="9.4867167" r="2"></circle>
                    <circle id="Oval-5-Copy-100" cx="221.610357" cy="16.141576" r="2"></circle>
                    <circle id="Oval-5-Copy-99" cx="221.610357" cy="22.7964353" r="2"></circle>
                    <circle id="Oval-5-Copy-98" cx="221.610357" cy="29.4512946" r="2"></circle>
                    <circle id="Oval-5-Copy-97" cx="221.610357" cy="36.1061539" r="2"></circle>
                    <circle id="Oval-5-Copy-96" cx="221.610357" cy="42.7610132" r="2"></circle>
                    <circle id="Oval-5-Copy-95" cx="221.610357" cy="49.4158725" r="2"></circle>
                    <circle id="Oval-5-Copy-94" cx="221.610357" cy="56.0707318" r="2"></circle>
                    <circle id="Oval-5-Copy-109" cx="221.610357" cy="152.566192" r="2"></circle>
                    <circle id="Oval-5-Copy-108" cx="221.610357" cy="159.221051" r="2"></circle>
                    <circle id="Oval-5-Copy-107" cx="221.610357" cy="165.87591" r="2"></circle>
                    <circle id="Oval-5-Copy-106" cx="221.610357" cy="172.530769" r="2"></circle>
                    <circle id="Oval-5-Copy-105" cx="221.610357" cy="179.185629" r="2"></circle>
                    <circle id="Oval-5-Copy-104" cx="221.610357" cy="185.840488" r="2"></circle>
                    <circle id="Oval-5-Copy-103" cx="221.610357" cy="192.495347" r="2"></circle>
                    <circle id="Oval-5-Copy-102" cx="221.610357" cy="199.150207" r="2"></circle>
                    <circle id="Oval-5-Copy-117" cx="221.610357" cy="205.805066" r="2"></circle>
                    <circle id="Oval-5-Copy-116" cx="221.610357" cy="212.459925" r="2"></circle>
                    <circle id="Oval-5-Copy-115" cx="221.610357" cy="219.114784" r="2"></circle>
                    <circle id="Oval-5-Copy-114" cx="221.610357" cy="225.769644" r="2"></circle>
                    <circle id="Oval-5-Copy-113" cx="221.610357" cy="232.424503" r="2"></circle>
                    <circle id="Oval-5-Copy-112" cx="221.610357" cy="239.079362" r="2"></circle>
                    <circle id="Oval-5-Copy-111" cx="221.610357" cy="245.734222" r="2"></circle>
                    <circle id="Oval-5-Copy-110" cx="221.610357" cy="252.389081" r="2"></circle>
                    <circle id="Oval-5-Copy-125" cx="221.610357" cy="259.04394" r="2"></circle>
                    <circle id="Oval-5-Copy-124" cx="221.610357" cy="265.698799" r="2"></circle>
                    <circle id="Oval-5-Copy-123" cx="221.610357" cy="272.353659" r="2"></circle>
                    <circle id="Oval-5-Copy-122" cx="221.610357" cy="279.008518" r="2"></circle>
                    <circle id="Oval-5-Copy-121" cx="221.610357" cy="285.663377" r="2"></circle>
                    <circle id="Oval-5-Copy-120" cx="221.610357" cy="292.318237" r="2"></circle>
                    <circle id="Oval-5-Copy-47" cx="2" cy="61.0618762" r="2"></circle>
                    <circle id="Oval-5-Copy-46" cx="2" cy="67.7167355" r="2"></circle>
                    <circle id="Oval-5-Copy-57" cx="2" cy="245.734222" r="2"></circle>
                    <circle id="Oval-5-Copy-56" cx="2" cy="252.389081" r="2"></circle>
                    <circle id="Oval-5-Copy-55" cx="2" cy="259.04394" r="2"></circle>
                    <circle id="Oval-5-Copy-54" cx="2" cy="265.698799" r="2"></circle>
                    <circle id="Oval-5-Copy-53" cx="2" cy="272.353659" r="2"></circle>
                    <circle id="Oval-5-Copy-52" cx="2" cy="279.008518" r="2"></circle>
                    <circle id="Oval-5-Copy-51" cx="2" cy="285.663377" r="2"></circle>
                    <circle id="Oval-5-Copy-50" cx="2" cy="292.318237" r="2"></circle>
                    <circle id="Oval-5-Copy-5" cx="38.6017261" cy="2.83185741" r="2"></circle>
                    <circle id="Oval-5-Copy-4" cx="31.9468668" cy="2.83185741" r="2"></circle>
                    <circle id="Oval-5-Copy-3" cx="25.2920075" cy="2.83185741" r="2"></circle>
                    <circle id="Oval-5-Copy-11" cx="51.9114447" cy="2.83185741" r="2"></circle>
                    <circle id="Oval-5-Copy-10" cx="45.2565854" cy="2.83185741" r="2"></circle>
                    <circle id="Oval-5-Copy-9" cx="38.6017261" cy="2.83185741" r="2"></circle>
                    <circle id="Oval-5-Copy-8" cx="71.8760226" cy="2.83185741" r="2"></circle>
                    <circle id="Oval-5-Copy-7" cx="65.2211633" cy="2.83185741" r="2"></circle>
                    <circle id="Oval-5-Copy-6" cx="58.566304" cy="2.83185741" r="2"></circle>
                    <circle id="Oval-5-Copy-23" cx="85.1857412" cy="2.83185741" r="2"></circle>
                    <circle id="Oval-5-Copy-22" cx="78.5308819" cy="2.83185741" r="2"></circle>
                    <circle id="Oval-5-Copy-21" cx="71.8760226" cy="2.83185741" r="2"></circle>
                    <circle id="Oval-5-Copy-20" cx="105.150319" cy="2.83185741" r="2"></circle>
                    <circle id="Oval-5-Copy-19" cx="98.4954598" cy="2.83185741" r="2"></circle>
                    <circle id="Oval-5-Copy-18" cx="91.8406005" cy="2.83185741" r="2"></circle>
                    <circle id="Oval-5-Copy-17" cx="118.460038" cy="2.83185741" r="2"></circle>
                    <circle id="Oval-5-Copy-16" cx="111.805178" cy="2.83185741" r="2"></circle>
                    <circle id="Oval-5-Copy-15" cx="105.150319" cy="2.83185741" r="2"></circle>
                    <circle id="Oval-5-Copy-14" cx="138.424616" cy="2.83185741" r="2"></circle>
                    <circle id="Oval-5-Copy-13" cx="131.769756" cy="2.83185741" r="2"></circle>
                    <circle id="Oval-5-Copy-12" cx="125.114897" cy="2.83185741" r="2"></circle>
                    <circle id="Oval-5-Copy-35" cx="151.734334" cy="2.83185741" r="2"></circle>
                    <circle id="Oval-5-Copy-34" cx="145.079475" cy="2.83185741" r="2"></circle>
                    <circle id="Oval-5-Copy-33" cx="138.424616" cy="2.83185741" r="2"></circle>
                    <circle id="Oval-5-Copy-32" cx="171.698912" cy="2.83185741" r="2"></circle>
                    <circle id="Oval-5-Copy-31" cx="165.044053" cy="2.83185741" r="2"></circle>
                    <circle id="Oval-5-Copy-30" cx="158.389193" cy="2.83185741" r="2"></circle>
                    <circle id="Oval-5-Copy-29" cx="185.008631" cy="2.83185741" r="2"></circle>
                    <circle id="Oval-5-Copy-28" cx="178.353771" cy="2.83185741" r="2"></circle>
                    <circle id="Oval-5-Copy-27" cx="171.698912" cy="2.83185741" r="2"></circle>
                    <circle id="Oval-5-Copy-26" cx="204.973208" cy="2.83185741" r="2"></circle>
                    <circle id="Oval-5-Copy-25" cx="198.318349" cy="2.83185741" r="2"></circle>
                    <circle id="Oval-5-Copy-24" cx="191.66349" cy="2.83185741" r="2"></circle>
                    <circle id="Oval-5-Copy-37" cx="218.282927" cy="2.83185741" r="2"></circle>
                    <circle id="Oval-5-Copy-36" cx="211.628068" cy="2.83185741" r="2"></circle>
                    <circle id="Oval-5-Copy-93" cx="21.9645779" cy="293.981951" r="2"></circle>
                    <circle id="Oval-5-Copy-92" cx="15.3097186" cy="293.981951" r="2"></circle>
                    <circle id="Oval-5-Copy-91" cx="8.65485929" cy="293.981951" r="2"></circle>
                    <circle id="Oval-5-Copy-90" cx="41.9291558" cy="293.981951" r="2"></circle>
                    <circle id="Oval-5-Copy-89" cx="35.2742965" cy="293.981951" r="2"></circle>
                    <circle id="Oval-5-Copy-88" cx="28.6194372" cy="293.981951" r="2"></circle>
                    <circle id="Oval-5-Copy-87" cx="55.2388743" cy="293.981951" r="2"></circle>
                    <circle id="Oval-5-Copy-86" cx="48.5840151" cy="293.981951" r="2"></circle>
                    <circle id="Oval-5-Copy-85" cx="41.9291558" cy="293.981951" r="2"></circle>
                    <circle id="Oval-5-Copy-84" cx="75.2034522" cy="293.981951" r="2"></circle>
                    <circle id="Oval-5-Copy-83" cx="68.5485929" cy="293.981951" r="2"></circle>
                    <circle id="Oval-5-Copy-82" cx="61.8937336" cy="293.981951" r="2"></circle>
                    <circle id="Oval-5-Copy-81" cx="88.5131708" cy="293.981951" r="2"></circle>
                    <circle id="Oval-5-Copy-80" cx="81.8583115" cy="293.981951" r="2"></circle>
                    <circle id="Oval-5-Copy-79" cx="75.2034522" cy="293.981951" r="2"></circle>
                    <circle id="Oval-5-Copy-78" cx="108.477749" cy="293.981951" r="2"></circle>
                    <circle id="Oval-5-Copy-77" cx="101.822889" cy="293.981951" r="2"></circle>
                    <circle id="Oval-5-Copy-76" cx="95.1680301" cy="293.981951" r="2"></circle>
                    <circle id="Oval-5-Copy-75" cx="121.787467" cy="293.981951" r="2"></circle>
                    <circle id="Oval-5-Copy-74" cx="115.132608" cy="293.981951" r="2"></circle>
                    <circle id="Oval-5-Copy-73" cx="108.477749" cy="293.981951" r="2"></circle>
                    <circle id="Oval-5-Copy-72" cx="141.752045" cy="293.981951" r="2"></circle>
                    <circle id="Oval-5-Copy-71" cx="135.097186" cy="293.981951" r="2"></circle>
                    <circle id="Oval-5-Copy-70" cx="128.442327" cy="293.981951" r="2"></circle>
                    <circle id="Oval-5-Copy-69" cx="155.061764" cy="293.981951" r="2"></circle>
                    <circle id="Oval-5-Copy-68" cx="148.406904" cy="293.981951" r="2"></circle>
                    <circle id="Oval-5-Copy-67" cx="141.752045" cy="293.981951" r="2"></circle>
                    <circle id="Oval-5-Copy-66" cx="175.026342" cy="293.981951" r="2"></circle>
                    <circle id="Oval-5-Copy-65" cx="168.371482" cy="293.981951" r="2"></circle>
                    <circle id="Oval-5-Copy-64" cx="161.716623" cy="293.981951" r="2"></circle>
                    <circle id="Oval-5-Copy-63" cx="188.33606" cy="293.981951" r="2"></circle>
                    <circle id="Oval-5-Copy-62" cx="181.681201" cy="293.981951" r="2"></circle>
                    <circle id="Oval-5-Copy-61" cx="175.026342" cy="293.981951" r="2"></circle>
                    <circle id="Oval-5-Copy-60" cx="208.300638" cy="293.981951" r="2"></circle>
                    <circle id="Oval-5-Copy-59" cx="201.645779" cy="293.981951" r="2"></circle>
                    <circle id="Oval-5-Copy-58" cx="194.99092" cy="293.981951" r="2"></circle>
                    <circle id="Oval-5-Copy-48" cx="214.955497" cy="293.981951" r="2"></circle>
                </g>
            </g>
        </g>
    </g>
</svg>