<?xml version="1.0" encoding="UTF-8"?>
<svg width="327px" height="249px" viewBox="0 0 327 249" version="1.1" xmlns="http://www.w3.org/2000/svg" xmlns:xlink="http://www.w3.org/1999/xlink">
    <!-- Generator: Sketch 46.2 (44496) - http://www.bohemiancoding.com/sketch -->
    <title>Current_Law_Parallel_Circuit</title>
    <desc>Created with Sketch.</desc>
    <defs></defs>
    <g id="Page-1" stroke="none" stroke-width="1" fill="none" fill-rule="evenodd">
        <g id="Desktop-HD" transform="translate(-525.000000, -38.000000)">
            <g id="Current_Law_Parallel_Circuit" transform="translate(525.000000, 33.000000)">
                <polyline id="Path-2" stroke="#524740" stroke-width="2" transform="translate(96.000000, 192.000000) rotate(90.000000) translate(-96.000000, -192.000000) " points="67 136 125 136 125 248 72 248"></polyline>
                <polyline id="Path-2-Copy-3" stroke="#524740" stroke-width="2" transform="translate(96.000000, 65.000000) scale(1, -1) rotate(90.000000) translate(-96.000000, -65.000000) " points="67 9 125 9 125 121 72 121"></polyline>
                <polyline id="Path-2-Copy-2" stroke="#524740" stroke-width="2" transform="translate(208.000000, 64.500000) scale(-1, 1) rotate(-90.000000) translate(-208.000000, -64.500000) " points="178.5 8.5 237.5 8.5 237.5 120.5 178.5 120.5"></polyline>
                <text id="1.5立" font-family="Lato-Regular, Lato" font-size="18" font-weight="normal" letter-spacing="0.695049465" fill="#524740">
                    <tspan x="286" y="134">1.5立</tspan>
                </text>
                <polyline id="Resistor" stroke="#524740" stroke-width="2" stroke-linejoin="bevel" transform="translate(152.000000, 129.000000) rotate(90.000000) translate(-152.000000, -129.000000) " points="117 129 122 129 127 116 137 142 147 116 157 142 167 116 177 142 182 129 187 129"></polyline>
                <polyline id="Path-2-Copy" stroke="#524740" stroke-width="2" transform="translate(208.000000, 192.000000) rotate(90.000000) translate(-208.000000, -192.000000) " points="179 136 237 136 237 248 184 248"></polyline>
                <text id="10立" font-family="Lato-Regular, Lato" font-size="18" font-weight="normal" letter-spacing="0.695049465" fill="#524740">
                    <tspan x="174.5" y="134">10立</tspan>
                </text>
                <text id="12V" font-family="Lato-Regular, Lato" font-size="18" font-weight="normal" letter-spacing="0.695049465" fill="#524740">
                    <tspan x="23.9244258" y="134">12V</tspan>
                </text>
                <text id="A" font-family="Lato-Regular, Lato" font-size="18" font-weight="normal" letter-spacing="0.695049465" fill="#23ABE3">
                    <tspan x="147.059475" y="18">A</tspan>
                </text>
                <text id="B" font-family="Lato-Regular, Lato" font-size="18" font-weight="normal" letter-spacing="0.695049465" fill="#23ABE3">
                    <tspan x="259.333975" y="18">B</tspan>
                </text>
                <text id="D" font-family="Lato-Regular, Lato" font-size="18" font-weight="normal" letter-spacing="0.695049465" fill="#23ABE3">
                    <tspan x="146.307975" y="253">D</tspan>
                </text>
                <text id="C" font-family="Lato-Regular, Lato" font-size="18" font-weight="normal" letter-spacing="0.695049465" fill="#23ABE3">
                    <tspan x="259.140475" y="253">C</tspan>
                </text>
                <polyline id="Resistor-Copy" stroke="#524740" stroke-width="2" stroke-linejoin="bevel" transform="translate(264.000000, 129.000000) rotate(90.000000) translate(-264.000000, -129.000000) " points="229 129 234 129 239 116 249 142 259 116 269 142 279 116 289 142 294 129 299 129"></polyline>
                <circle id="Oval-2" fill="#524740" cx="152" cy="35" r="5"></circle>
                <circle id="Oval-2-Copy-3" fill="#524740" cx="264" cy="35" r="5"></circle>
                <circle id="Oval-2-Copy-5" fill="#524740" cx="264" cy="220" r="5"></circle>
                <circle id="Oval-2-Copy-4" fill="#524740" cx="152" cy="222" r="5"></circle>
                <g id="DC_Power" transform="translate(0.000000, 88.000000)">
                    <circle id="Oval" stroke="#524740" stroke-width="2" cx="40" cy="40" r="39"></circle>
                    <text id="+" font-family="Lato-Regular, Lato" font-size="18" font-weight="normal" letter-spacing="0.899999917" fill="#524740">
                        <tspan x="35.33" y="21">+</tspan>
                    </text>
                    <text id="-" font-family="Lato-Regular, Lato" font-size="18" font-weight="normal" letter-spacing="0.899999917" fill="#524740">
                        <tspan x="37.2065" y="72.5">-</tspan>
                    </text>
                </g>
            </g>
        </g>
    </g>
</svg>