<?xml version="1.0" encoding="UTF-8"?>
<svg width="407px" height="204px" viewBox="0 0 407 204" version="1.1" xmlns="http://www.w3.org/2000/svg" xmlns:xlink="http://www.w3.org/1999/xlink">
    <!-- Generator: Sketch 46.2 (44496) - http://www.bohemiancoding.com/sketch -->
    <title>VoltageLaw_Calculation_Circuit</title>
    <desc>Created with Sketch.</desc>
    <defs></defs>
    <g id="Page-1" stroke="none" stroke-width="1" fill="none" fill-rule="evenodd">
        <g id="Desktop-HD" transform="translate(-947.000000, -85.000000)">
            <g id="VoltageLaw_Calculation_Circuit" transform="translate(947.000000, 81.000000)">
                <polyline id="Path-2" stroke="#524740" stroke-width="2" points="348 56 406 56 406 168 263 168"></polyline>
                <polyline id="Path-2-Copy-2" stroke="#524740" stroke-width="2" transform="translate(69.000000, 64.000000) scale(-1, 1) translate(-69.000000, -64.000000) " points="40 56 98 56 98 72"></polyline>
                <g id="Ammeter-Copy" transform="translate(183.000000, 128.000000)">
                    <circle id="Oval" stroke="#524740" stroke-width="2" cx="40" cy="40" r="39"></circle>
                    <text id="0.25A" font-family="Lato-Regular, Lato" font-size="18" font-weight="normal" letter-spacing="0.899999976" fill="#524740">
                        <tspan x="15.3730001" y="47">0.25A</tspan>
                    </text>
                </g>
                <text id="6Ω" font-family="Lato-Regular, Lato" font-size="18" font-weight="normal" letter-spacing="0.695049465" fill="#524740">
                    <tspan x="211.312951" y="18">6Ω</tspan>
                </text>
                <text id="12Ω" font-family="Lato-Regular, Lato" font-size="18" font-weight="normal" letter-spacing="0.695049465" fill="#524740">
                    <tspan x="115.745426" y="18">12Ω</tspan>
                </text>
                <text id="2Ω" font-family="Lato-Regular, Lato" font-size="18" font-weight="normal" letter-spacing="0.695049465" fill="#524740">
                    <tspan x="301.312951" y="18">2Ω</tspan>
                </text>
                <polyline id="Resistor" stroke="#524740" stroke-width="2" stroke-linejoin="bevel" points="188 56 193 56 198 43 208 69 218 43 228 69 238 43 248 69 253 56 258 56"></polyline>
                <polyline id="Resistor-Copy-3" stroke="#524740" stroke-width="2" stroke-linejoin="bevel" points="278 56 283 56 288 43 298 69 308 43 318 69 328 43 338 69 343 56 348 56"></polyline>
                <polyline id="Resistor-Copy-4" stroke="#524740" stroke-width="2" stroke-linejoin="bevel" points="98 56 103 56 108 43 118 69 128 43 138 69 148 43 158 69 163 56 168 56"></polyline>
                <g id="DC_Power" transform="translate(0.000000, 72.000000)">
                    <circle id="Oval" stroke="#524740" stroke-width="2" cx="40" cy="40" r="39"></circle>
                    <text id="+" font-family="Lato-Regular, Lato" font-size="18" font-weight="normal" letter-spacing="0.899999917" fill="#524740">
                        <tspan x="35.33" y="18">+</tspan>
                    </text>
                    <text id="-" font-family="Lato-Regular, Lato" font-size="18" font-weight="normal" letter-spacing="0.899999917" fill="#524740">
                        <tspan x="37.2065" y="75.5">-</tspan>
                    </text>
                    <text id="5V" font-family="Lato-Regular, Lato" font-size="18" font-weight="normal" letter-spacing="0.695049465" fill="#524740">
                        <tspan x="29.4919505" y="46">5V</tspan>
                    </text>
                </g>
                <path d="M168,56 L188,56" id="Path-4" stroke="#524740" stroke-width="2"></path>
                <path d="M258,56 L278,56" id="Path-4-Copy" stroke="#524740" stroke-width="2"></path>
                <path d="M258,56 L278,56" id="Path-4-Copy-2" stroke="#524740" stroke-width="2"></path>
                <polyline id="Path-13" stroke="#524740" stroke-width="2" points="40 152 40 168 183 168"></polyline>
            </g>
        </g>
    </g>
</svg>