<?xml version="1.0" encoding="UTF-8"?>
<svg width="330px" height="190px" viewBox="0 0 330 190" version="1.1" xmlns="http://www.w3.org/2000/svg" xmlns:xlink="http://www.w3.org/1999/xlink">
    <!-- Generator: Sketch 46.2 (44496) - http://www.bohemiancoding.com/sketch -->
    <title>Voltage_Divider_Network_2</title>
    <desc>Created with Sketch.</desc>
    <defs>
        <circle id="path-1" cx="237" cy="92" r="5"></circle>
    </defs>
    <g id="Page-1" stroke="none" stroke-width="1" fill="none" fill-rule="evenodd">
        <g id="Desktop-HD" transform="translate(-1260.000000, -868.000000)">
            <g id="Voltage_Divider_Network_2" transform="translate(1258.000000, 869.000000)">
                <path d="M105.5,14.5 L105.5,44.5" id="Line-11-Copy-5" stroke="#B09679" stroke-width="3"></path>
                <path id="Line-11-Copy-5-decoration-1" d="M105.5,14.5 L108.5,25.3 L102.5,25.3 L105.5,14.5 Z" stroke="#B09679" stroke-width="3"></path>
                <g id="Vout" transform="translate(303.000000, 126.000000)" font-weight="normal" fill="#23ABE3">
                    <text id="V" font-family="Lato-Italic, Lato" font-size="18" font-style="italic" letter-spacing="0.695049465">
                        <tspan x="0.486975268" y="18">V</tspan>
                    </text>
                    <text id="out" font-family="Lato-Regular, Lato" font-size="12" letter-spacing="0.46336633">
                        <tspan x="10.5" y="21">out</tspan>
                    </text>
                </g>
                <g id="R1" transform="translate(224.000000, 11.000000)" stroke-width="2" stroke="#524740" stroke-linejoin="bevel">
                    <polyline id="Resistor" transform="translate(13.000000, 35.000000) rotate(90.000000) translate(-13.000000, -35.000000) " points="-22 35 -17 35 -12 22 -2 48 8 22 18 48 28 22 38 48 43 35 48 35"></polyline>
                </g>
                <g id="R1-Copy" transform="translate(224.000000, 103.000000)" stroke-width="2" stroke="#524740" stroke-linejoin="bevel">
                    <polyline id="Resistor" transform="translate(13.000000, 35.000000) rotate(-270.000000) translate(-13.000000, -35.000000) " points="-22 35 -17 35 -12 22 -2 48 8 22 18 48 28 22 38 48 43 35 48 35"></polyline>
                </g>
                <g id="R2" transform="translate(258.000000, 123.000000)" font-weight="normal" fill="#524740">
                    <text id="R" font-family="Lato-Italic, Lato" font-size="18" font-style="italic" letter-spacing="0.695049465">
                        <tspan x="0.400975268" y="18">R</tspan>
                    </text>
                    <text id="2" font-family="Lato-Regular, Lato" font-size="12" letter-spacing="0.46336633">
                        <tspan x="10.2883168" y="21">2</tspan>
                    </text>
                </g>
                <g id="R1" transform="translate(258.000000, 33.000000)" font-weight="normal" fill="#524740">
                    <text id="R" font-family="Lato-Italic, Lato" font-size="18" font-style="italic" letter-spacing="0.695049465">
                        <tspan x="0.400975268" y="18">R</tspan>
                    </text>
                    <text id="1" font-family="Lato-Regular, Lato" font-size="12" letter-spacing="0.46336633">
                        <tspan x="10.2883168" y="21">1</tspan>
                    </text>
                </g>
                <g id="DC_Power" transform="translate(0.000000, 52.000000)">
                    <g id="Group-2" transform="translate(79.000000, 0.000000)">
                        <circle id="Oval" stroke="#524740" stroke-width="2" cx="40" cy="40" r="39"></circle>
                        <text id="+" font-family="Lato-Regular, Lato" font-size="18" font-weight="normal" letter-spacing="0.899999917" fill="#524740">
                            <tspan x="35.33" y="21">+</tspan>
                        </text>
                        <text id="-" font-family="Lato-Regular, Lato" font-size="18" font-weight="normal" letter-spacing="0.899999917" fill="#524740">
                            <tspan x="37.2065" y="72.5">-</tspan>
                        </text>
                    </g>
                    <text id="Voltage-Source" font-family="Lato-Regular, Lato" font-size="18" font-weight="normal" letter-spacing="0.695049465" fill="#524740">
                        <tspan x="2.86282687" y="32">Voltage </tspan>
                        <tspan x="5.87885161" y="54">Source</tspan>
                    </text>
                    <g id="VS" transform="translate(111.000000, 29.000000)" font-weight="normal" fill="#23ABE3">
                        <text id="V" font-family="Lato-Italic, Lato" font-size="18" font-style="italic" letter-spacing="0.695049465">
                            <tspan x="0.486975268" y="18">V</tspan>
                        </text>
                        <text id="s" font-family="Lato-Regular, Lato" font-size="12" letter-spacing="0.46336633">
                            <tspan x="9.67031684" y="21">s</tspan>
                        </text>
                    </g>
                </g>
                <polyline id="Path-5" stroke="#524740" stroke-width="2" points="119 52 119 0 237 0 237 11"></polyline>
                <circle id="Oval-2-Copy-14" stroke="#524740" stroke-width="2" cx="308" cy="92" r="4"></circle>
                <g id="Oval-2-Copy-19">
                    <use fill="#524740" fill-rule="evenodd" xlink:href="#path-1"></use>
                    <circle stroke="#524740" stroke-width="2" cx="237" cy="92" r="4"></circle>
                </g>
                <circle id="Oval-2-Copy-16" stroke="#524740" stroke-width="2" cx="308" cy="184" r="4"></circle>
                <path d="M308,103 L308,121" id="Path-14" stroke="#23ABE3"></path>
                <polygon id="Triangle" fill="#23ABE3" points="308 97 311 103 305 103"></polygon>
                <path d="M308,154 L308,173" id="Path-14-Copy" stroke="#23ABE3"></path>
                <polygon id="Triangle-Copy" fill="#23ABE3" points="308 179 305 173 311 173"></polygon>
                <polyline id="Path-15" stroke="#524740" stroke-width="2" points="119 132 119 184 237 184 237 173"></polyline>
                <path d="M237,81 L237,103" id="Path-17" stroke="#524740" stroke-width="2"></path>
                <path d="M237,92 L303,92" id="Path-18" stroke="#524740" stroke-width="2"></path>
                <path d="M237,184 L303,184" id="Path-20" stroke="#524740" stroke-width="2"></path>
            </g>
        </g>
    </g>
</svg>