<?xml version="1.0" encoding="UTF-8"?>
<svg width="358px" height="113px" viewBox="0 0 358 113" version="1.1" xmlns="http://www.w3.org/2000/svg" xmlns:xlink="http://www.w3.org/1999/xlink">
    <!-- Generator: Sketch 46.2 (44496) - http://www.bohemiancoding.com/sketch -->
    <title>Voltage_Divider_Circuit</title>
    <desc>Created with Sketch.</desc>
    <defs></defs>
    <g id="Page-1" stroke="none" stroke-width="1" fill="none" fill-rule="evenodd">
        <g id="Desktop-HD" transform="translate(-1966.000000, -451.000000)">
            <g id="Voltage_Divider_Circuit" transform="translate(1965.000000, 446.000000)">
                <g id="R1" transform="translate(70.000000, 30.000000)" stroke-width="2" stroke="#524740" stroke-linejoin="bevel">
                    <polyline id="Resistor" transform="translate(35.000000, 13.000000) rotate(-360.000000) translate(-35.000000, -13.000000) " points="0 13 5 13 10 0 20 26 30 0 40 26 50 0 60 26 65 13 70 13"></polyline>
                    <polyline id="Resistor-Copy-8" transform="translate(195.000000, 13.000000) rotate(-360.000000) translate(-195.000000, -13.000000) " points="160 13 165 13 170 0 180 26 190 0 200 26 210 0 220 26 225 13 230 13"></polyline>
                </g>
                <g id="R1" transform="translate(96.000000, 0.000000)" font-weight="normal" fill="#524740">
                    <text id="R" font-family="Lato-Italic, Lato" font-size="18" font-style="italic" letter-spacing="0.695049465">
                        <tspan x="0.400975268" y="18">R</tspan>
                    </text>
                    <text id="1" font-family="Lato-Regular, Lato" font-size="12" letter-spacing="0.46336633">
                        <tspan x="10.2883168" y="21">1</tspan>
                    </text>
                </g>
                <g id="R2" transform="translate(260.000000, 0.000000)" font-weight="normal" fill="#524740">
                    <text id="R" font-family="Lato-Italic, Lato" font-size="18" font-style="italic" letter-spacing="0.695049465">
                        <tspan x="0.400975268" y="18">R</tspan>
                    </text>
                    <text id="2" font-family="Lato-Regular, Lato" font-size="12" letter-spacing="0.46336633">
                        <tspan x="10.2883168" y="21">2</tspan>
                    </text>
                </g>
                <g id="Vin" transform="translate(0.000000, 29.000000)" font-weight="normal" fill="#23ABE3">
                    <text id="V" font-family="Lato-Italic, Lato" font-size="18" font-style="italic" letter-spacing="0.695049465">
                        <tspan x="0.486975268" y="18">V</tspan>
                    </text>
                    <text id="in" font-family="Lato-Regular, Lato" font-size="12" letter-spacing="0.46336633">
                        <tspan x="11" y="21">in</tspan>
                    </text>
                </g>
                <g id="Vout" transform="translate(171.000000, 96.000000)" font-weight="normal" fill="#23ABE3">
                    <text id="V" font-family="Lato-Italic, Lato" font-size="18" font-style="italic" letter-spacing="0.695049465">
                        <tspan x="0.486975268" y="18">V</tspan>
                    </text>
                    <text id="out" font-family="Lato-Regular, Lato" font-size="12" letter-spacing="0.46336633">
                        <tspan x="11" y="21">out</tspan>
                    </text>
                </g>
                <g id="Ground" transform="translate(339.500000, 43.500000) rotate(-180.000000) translate(-339.500000, -43.500000) translate(320.500000, 27.000000)" stroke="#524740" stroke-width="2">
                    <path d="M12.5,17 L37.5,17" id="Path-2-Copy"></path>
                    <path d="M7,6.5 L7,26.5" id="Path-4"></path>
                    <path d="M1,13.5 L1,19.5" id="Path-4-Copy"></path>
                    <path d="M13,0 L13,33" id="Path-3-Copy"></path>
                </g>
                <circle id="Oval-2-Copy-12" fill="#524740" cx="185" cy="43" r="5"></circle>
                <path d="M185,43 L185,95" id="Path-19" stroke="#524740" stroke-width="2"></path>
                <path d="M30,43 L70,43" id="Path-16" stroke="#524740" stroke-width="2"></path>
                <path d="M190,43 L230,43" id="Path-16-Copy" stroke="#524740" stroke-width="2"></path>
                <path d="M300,43 L340,43" id="Path-16-Copy-3" stroke="#524740" stroke-width="2"></path>
                <path d="M140,43 L180,43" id="Path-16-Copy-2" stroke="#524740" stroke-width="2"></path>
            </g>
        </g>
    </g>
</svg>