<?xml version="1.0" encoding="UTF-8"?>
<svg width="117px" height="245px" viewBox="0 0 117 245" version="1.1" xmlns="http://www.w3.org/2000/svg" xmlns:xlink="http://www.w3.org/1999/xlink">
    <!-- Generator: Sketch 47.1 (45422) - http://www.bohemiancoding.com/sketch -->
    <title>Voltage_Divider_Third_Leg</title>
    <desc>Created with Sketch.</desc>
    <defs>
        <circle id="path-1" cx="97" cy="120" r="5"></circle>
        <circle id="path-2" cx="17" cy="120" r="5"></circle>
        <circle id="path-3" cx="17" cy="212" r="5"></circle>
    </defs>
    <g id="Page-1" stroke="none" stroke-width="1" fill="none" fill-rule="evenodd">
        <g id="Desktop-HD" transform="translate(-2638.000000, -927.000000)">
            <g id="Voltage_Divider_Third_Leg" transform="translate(2638.000000, 922.000000)">
                <g id="Vout" transform="translate(79.000000, 154.000000)" font-weight="normal" font-family="Lato-Italic, Lato" letter-spacing="0.695049465" fill="#23ABE3" font-size="18" font-style="italic">
                    <text id="Load">
                        <tspan x="0.136901071" y="18">Load</tspan>
                    </text>
                </g>
                <g id="R1" transform="translate(4.000000, 39.000000)" stroke-width="2" stroke="#524740" stroke-linejoin="bevel">
                    <polyline id="Resistor" transform="translate(13.000000, 35.000000) rotate(90.000000) translate(-13.000000, -35.000000) " points="-22 35 -17 35 -12 22 -2 48 8 22 18 48 28 22 38 48 43 35 48 35"></polyline>
                </g>
                <g id="R1-Copy" transform="translate(4.000000, 131.000000)" stroke-width="2" stroke="#524740" stroke-linejoin="bevel">
                    <polyline id="Resistor" transform="translate(13.000000, 35.000000) rotate(-270.000000) translate(-13.000000, -35.000000) " points="-22 35 -17 35 -12 22 -2 48 8 22 18 48 28 22 38 48 43 35 48 35"></polyline>
                </g>
                <g id="R2" transform="translate(38.000000, 154.000000)" font-weight="normal" fill="#524740">
                    <text id="R" font-family="Lato-Italic, Lato" font-size="18" font-style="italic" letter-spacing="0.695049465">
                        <tspan x="0.400975268" y="18">R</tspan>
                    </text>
                    <text id="2" font-family="Lato-Regular, Lato" font-size="12" letter-spacing="0.46336633">
                        <tspan x="10.2883168" y="21">2</tspan>
                    </text>
                </g>
                <g id="R1" transform="translate(38.000000, 61.000000)" font-weight="normal" fill="#524740">
                    <text id="R" font-family="Lato-Italic, Lato" font-size="18" font-style="italic" letter-spacing="0.695049465">
                        <tspan x="0.400975268" y="18">R</tspan>
                    </text>
                    <text id="1" font-family="Lato-Regular, Lato" font-size="12" letter-spacing="0.46336633">
                        <tspan x="10.2883168" y="21">1</tspan>
                    </text>
                </g>
                <path d="M17,28 L17,39" id="Path-5" stroke="#524740" stroke-width="2"></path>
                <text id="Vs" font-family="Lato-Regular, Lato" font-size="18" font-weight="normal" letter-spacing="0.695049465" fill="#524740">
                    <tspan x="7.43595054" y="18">Vs</tspan>
                </text>
                <g id="Oval-2-Copy-14">
                    <use fill="#524740" fill-rule="evenodd" xlink:href="#path-1"></use>
                    <circle stroke="#524740" stroke-width="2" cx="97" cy="120" r="4"></circle>
                </g>
                <g id="Oval-2-Copy-19">
                    <use fill="#524740" fill-rule="evenodd" xlink:href="#path-2"></use>
                    <circle stroke="#524740" stroke-width="2" cx="17" cy="120" r="4"></circle>
                </g>
                <g id="Oval-2-Copy-23">
                    <use fill="#524740" fill-rule="evenodd" xlink:href="#path-3"></use>
                    <circle stroke="#524740" stroke-width="2" cx="17" cy="212" r="4"></circle>
                </g>
                <path d="M17,212 L17,201" id="Path-15" stroke="#524740" stroke-width="2"></path>
                <path d="M16,212 L97,212" id="Path-15-Copy" stroke="#524740" stroke-width="2"></path>
                <path d="M17,109 L17,131" id="Path-17" stroke="#524740" stroke-width="2"></path>
                <path d="M97,124 L97,146" id="Path-17-Copy" stroke="#524740" stroke-width="2"></path>
                <path d="M97,186 L97,213" id="Path-17-Copy-2" stroke="#524740" stroke-width="2"></path>
                <path d="M17,120 L93,120" id="Path-18" stroke="#524740" stroke-width="2"></path>
                <g id="Ground" transform="translate(16.500000, 230.500000) rotate(-90.000000) translate(-16.500000, -230.500000) translate(-2.500000, 214.000000)" stroke="#524740" stroke-width="2">
                    <path d="M12.5,17 L37.5,17" id="Path-2-Copy"></path>
                    <path d="M7,6.5 L7,26.5" id="Path-4"></path>
                    <path d="M1,13.5 L1,19.5" id="Path-4-Copy"></path>
                    <path d="M13,0 L13,33" id="Path-3-Copy"></path>
                </g>
            </g>
        </g>
    </g>
</svg>