<?xml version="1.0" encoding="UTF-8"?>
<svg width="368px" height="204px" viewBox="0 0 368 204" version="1.1" xmlns="http://www.w3.org/2000/svg" xmlns:xlink="http://www.w3.org/1999/xlink">
    <!-- Generator: Sketch 46.2 (44496) - http://www.bohemiancoding.com/sketch -->
    <title>VoltageLaw_Calculation_Circuit</title>
    <desc>Created with Sketch.</desc>
    <defs></defs>
    <g id="Page-1" stroke="none" stroke-width="1" fill="none" fill-rule="evenodd">
        <g id="Desktop-HD" transform="translate(-986.000000, -85.000000)">
            <g id="VoltageLaw_Calculation_Circuit" transform="translate(987.000000, 81.000000)">
                <polyline id="Path-2" stroke="#524740" stroke-width="2" points="308 56 366 56 366 168 323 168"></polyline>
                <polyline id="Path-2-Copy-2" stroke="#524740" stroke-width="2" transform="translate(29.000000, 112.000000) scale(-1, 1) translate(-29.000000, -112.000000) " points="-1.77635684e-14 56 58 56 58 168 15 168"></polyline>
                <g id="Ammeter" transform="translate(43.000000, 128.000000)">
                    <circle id="Oval" stroke="#524740" stroke-width="2" cx="40" cy="40" r="39"></circle>
                    <text id="0.25A" font-family="Lato-Regular, Lato" font-size="18" font-weight="normal" letter-spacing="0.899999976" fill="#524740">
                        <tspan x="15.8730001" y="47">0.25A</tspan>
                    </text>
                </g>
                <g id="Ammeter-Copy" transform="translate(243.000000, 128.000000)">
                    <circle id="Oval" stroke="#524740" stroke-width="2" cx="40" cy="40" r="39"></circle>
                    <text id="0.25A" font-family="Lato-Regular, Lato" font-size="18" font-weight="normal" letter-spacing="0.899999976" fill="#524740">
                        <tspan x="15.3730001" y="47">0.25A</tspan>
                    </text>
                </g>
                <text id="5V" font-family="Lato-Regular, Lato" font-size="18" font-weight="normal" letter-spacing="0.695049465" fill="#524740">
                    <tspan x="172.491951" y="174">5V</tspan>
                </text>
                <text id="6Ω" font-family="Lato-Regular, Lato" font-size="18" font-weight="normal" letter-spacing="0.695049465" fill="#524740">
                    <tspan x="171.312951" y="18">6Ω</tspan>
                </text>
                <text id="2Ω" font-family="Lato-Regular, Lato" font-size="18" font-weight="normal" letter-spacing="0.695049465" fill="#524740">
                    <tspan x="81.3129505" y="18">2Ω</tspan>
                </text>
                <text id="12kΩ" font-family="Lato-Regular, Lato" font-size="18" font-weight="normal" letter-spacing="0.695049465" fill="#524740">
                    <tspan x="250.825901" y="18">12kΩ</tspan>
                </text>
                <polyline id="Resistor" stroke="#524740" stroke-width="2" stroke-linejoin="bevel" points="148 56 153 56 158 43 168 69 178 43 188 69 198 43 208 69 213 56 218 56"></polyline>
                <polyline id="Resistor-Copy-3" stroke="#524740" stroke-width="2" stroke-linejoin="bevel" points="238 56 243 56 248 43 258 69 268 43 278 69 288 43 298 69 303 56 308 56"></polyline>
                <polyline id="Resistor-Copy-4" stroke="#524740" stroke-width="2" stroke-linejoin="bevel" points="58 56 63 56 68 43 78 69 88 43 98 69 108 43 118 69 123 56 128 56"></polyline>
                <g id="DC_Power" transform="translate(143.000000, 128.000000)">
                    <circle id="Oval" stroke="#524740" stroke-width="2" cx="40" cy="40" r="39"></circle>
                    <text id="+" font-family="Lato-Regular, Lato" font-size="18" font-weight="normal" letter-spacing="0.899999917" fill="#524740">
                        <tspan x="58.33" y="46">+</tspan>
                    </text>
                    <text id="-" font-family="Lato-Regular, Lato" font-size="18" font-weight="normal" letter-spacing="0.899999917" fill="#524740">
                        <tspan x="13.2065" y="45.5">-</tspan>
                    </text>
                </g>
                <path d="M128,56 L148,56" id="Path-4" stroke="#524740" stroke-width="2"></path>
                <path d="M218,56 L238,56" id="Path-4-Copy" stroke="#524740" stroke-width="2"></path>
                <path d="M218,56 L238,56" id="Path-4-Copy-2" stroke="#524740" stroke-width="2"></path>
                <path d="M123,168 L143,168" id="Path-4-Copy-4" stroke="#524740" stroke-width="2"></path>
                <path d="M223,168 L243,168" id="Path-4-Copy-3" stroke="#524740" stroke-width="2"></path>
            </g>
        </g>
    </g>
</svg>