<?xml version="1.0" encoding="UTF-8"?>
<svg width="557px" height="228px" viewBox="0 0 557 228" version="1.1" xmlns="http://www.w3.org/2000/svg" xmlns:xlink="http://www.w3.org/1999/xlink">
    <!-- Generator: Sketch 46.2 (44496) - http://www.bohemiancoding.com/sketch -->
    <title>VoltageLaw_Calculated_Circuit</title>
    <desc>Created with Sketch.</desc>
    <defs>
        <circle id="path-1" cx="279" cy="43" r="5"></circle>
        <circle id="path-2" cx="399" cy="43" r="5"></circle>
        <circle id="path-3" cx="279" cy="227" r="5"></circle>
        <circle id="path-4" cx="399" cy="227" r="5"></circle>
    </defs>
    <g id="Page-1" stroke="none" stroke-width="1" fill="none" fill-rule="evenodd">
        <g id="Desktop-HD" transform="translate(-1468.000000, -94.000000)">
            <g id="VoltageLaw_Calculated_Circuit" transform="translate(1466.000000, 90.000000)">
                <path d="M105.5,57.5 L105.5,87.5" id="Line-11-Copy-5" stroke="#B09679" stroke-width="3"></path>
                <path id="Line-11-Copy-5-decoration-1" d="M105.5,57.5 L108.5,68.3 L102.5,68.3 L105.5,57.5 Z" stroke="#B09679" stroke-width="3"></path>
                <path d="M507.5,214.5 L507.5,184.5" id="Line-11-Copy-10" stroke="#B09679" stroke-width="3"></path>
                <path id="Line-11-Copy-10-decoration-1" d="M507.5,214.5 L504.5,203.7 L510.5,203.7 L507.5,214.5 Z" stroke="#B09679" stroke-width="3"></path>
                <g id="VS" transform="translate(107.000000, 124.000000)" font-size="18" font-family="Lato-Regular, Lato" letter-spacing="0.695049465" fill="#524740" font-weight="normal">
                    <text id="5V">
                        <tspan x="0.491950535" y="18">5V</tspan>
                    </text>
                </g>
                <g id="R1" transform="translate(184.000000, 0.000000)">
                    <g id="V1" transform="translate(83.000000, 124.000000)" font-size="18" font-family="Lato-Regular, Lato" letter-spacing="0.695049465" fill="#23ABE3" font-weight="normal">
                        <text id="2V">
                            <tspan x="0.491950535" y="18">2V</tspan>
                        </text>
                    </g>
                    <polyline id="Resistor" stroke="#524740" stroke-width="2" stroke-linejoin="bevel" points="0 43 5 43 10 30 20 56 30 30 40 56 50 30 60 56 65 43 70 43"></polyline>
                    <g transform="translate(15.000000, 0.000000)" id="12Ω" font-size="18" font-family="Lato-Regular, Lato" letter-spacing="0.695049465" fill="#524740" font-weight="normal">
                        <text>
                            <tspan x="0.245425803" y="18">12Ω</tspan>
                        </text>
                    </g>
                </g>
                <g id="R1-Copy" transform="translate(304.000000, 0.000000)">
                    <g id="V1" transform="translate(79.000000, 124.000000)" font-size="18" font-family="Lato-Regular, Lato" letter-spacing="0.695049465" fill="#23ABE3" font-weight="normal">
                        <text id=".5V">
                            <tspan x="0.0204258029" y="18">.5V</tspan>
                        </text>
                    </g>
                    <polyline id="Resistor" stroke="#524740" stroke-width="2" stroke-linejoin="bevel" points="0 43 5 43 10 30 20 56 30 30 40 56 50 30 60 56 65 43 70 43"></polyline>
                    <g id="R1" transform="translate(20.000000, 0.000000)" font-size="18" font-family="Lato-Regular, Lato" letter-spacing="0.695049465" fill="#524740" font-weight="normal">
                        <text id="6Ω">
                            <tspan x="0.812950535" y="18">6Ω</tspan>
                        </text>
                    </g>
                </g>
                <g id="R1-Copy-2" transform="translate(424.000000, 0.000000)">
                    <g id="V1" transform="translate(83.000000, 124.000000)" font-size="18" font-family="Lato-Regular, Lato" letter-spacing="0.695049465" fill="#23ABE3" font-weight="normal">
                        <text id="0V">
                            <tspan x="0.491950535" y="18">0V</tspan>
                        </text>
                    </g>
                    <polyline id="Resistor" stroke="#524740" stroke-width="2" stroke-linejoin="bevel" points="0 43 5 43 10 30 20 56 30 30 40 56 50 30 60 56 65 43 70 43"></polyline>
                    <g id="R1" transform="translate(20.000000, 0.000000)" font-size="18" font-family="Lato-Regular, Lato" letter-spacing="0.695049465" fill="#524740" font-weight="normal">
                        <text id="2Ω">
                            <tspan x="0.812950535" y="18">2Ω</tspan>
                        </text>
                    </g>
                </g>
                <text id="Voltage-Source" font-family="Lato-Regular, Lato" font-size="18" font-weight="normal" letter-spacing="0.695049465" fill="#524740">
                    <tspan x="2.86282687" y="127">Voltage </tspan>
                    <tspan x="5.87885161" y="149">Source</tspan>
                </text>
                <text id="A" font-family="Lato-Regular, Lato" font-size="18" font-weight="normal" letter-spacing="0.695049465" fill="#23ABE3">
                    <tspan x="113.059475" y="27">A</tspan>
                </text>
                <text id="B" font-family="Lato-Regular, Lato" font-size="18" font-weight="normal" letter-spacing="0.695049465" fill="#23ABE3">
                    <tspan x="273.333975" y="27">B</tspan>
                </text>
                <text id="C" font-family="Lato-Regular, Lato" font-size="18" font-weight="normal" letter-spacing="0.695049465" fill="#23ABE3">
                    <tspan x="393.140475" y="27">C</tspan>
                </text>
                <circle id="Oval-2" fill="#524740" cx="119" cy="43" r="5"></circle>
                <g id="Oval-2-Copy-9">
                    <use fill="#524740" fill-rule="evenodd" xlink:href="#path-1"></use>
                    <circle stroke="#524740" stroke-width="2" cx="279" cy="43" r="4"></circle>
                </g>
                <g id="DC_Power" transform="translate(79.000000, 43.000000)">
                    <g id="Group-2" transform="translate(0.000000, 52.000000)">
                        <circle id="Oval" stroke="#524740" stroke-width="2" cx="40" cy="40" r="39"></circle>
                        <text id="+" font-family="Lato-Regular, Lato" font-size="18" font-weight="normal" letter-spacing="0.899999917" fill="#524740">
                            <tspan x="35.33" y="21">+</tspan>
                        </text>
                        <text id="-" font-family="Lato-Regular, Lato" font-size="18" font-weight="normal" letter-spacing="0.899999917" fill="#524740">
                            <tspan x="37.2065" y="72.5">-</tspan>
                        </text>
                    </g>
                    <polyline id="Path-5" stroke="#524740" stroke-width="2" points="40 52 40 0 105 0"></polyline>
                </g>
                <g id="Group-2-Copy-3" transform="translate(479.000000, 95.000000)" stroke-width="2" stroke="#524740">
                    <circle id="Oval" cx="40" cy="40" r="39"></circle>
                </g>
                <path d="M254,43 L304,43" id="Path-11" stroke="#524740" stroke-width="2"></path>
                <g id="Oval-2-Copy-10">
                    <use fill="#524740" fill-rule="evenodd" xlink:href="#path-2"></use>
                    <circle stroke="#524740" stroke-width="2" cx="399" cy="43" r="4"></circle>
                </g>
                <g id="Oval-2-Copy-18">
                    <use fill="#524740" fill-rule="evenodd" xlink:href="#path-3"></use>
                    <circle stroke="#524740" stroke-width="2" cx="279" cy="227" r="4"></circle>
                </g>
                <g id="Oval-2-Copy-17">
                    <use fill="#524740" fill-rule="evenodd" xlink:href="#path-4"></use>
                    <circle stroke="#524740" stroke-width="2" cx="399" cy="227" r="4"></circle>
                </g>
                <text id="D" font-family="Lato-Regular, Lato" font-size="18" font-weight="normal" letter-spacing="0.695049465" fill="#23ABE3">
                    <tspan x="512.307975" y="27">D</tspan>
                </text>
                <circle id="Oval-2-Copy-13" fill="#524740" cx="519" cy="43" r="5"></circle>
                <circle id="Oval-2-Copy-12" stroke="#524740" stroke-width="2" cx="279" cy="194" r="4"></circle>
                <circle id="Oval-2-Copy-14" stroke="#524740" stroke-width="2" cx="279" cy="77" r="4"></circle>
                <circle id="Oval-2-Copy-15" stroke="#524740" stroke-width="2" cx="399" cy="77" r="4"></circle>
                <circle id="Oval-2-Copy-11" stroke="#524740" stroke-width="2" cx="399" cy="194" r="4"></circle>
                <path d="M374,43 L424,43" id="Path-11-Copy" stroke="#524740" stroke-width="2"></path>
                <path d="M279,43 L279,74" id="Path-12" stroke="#524740" stroke-width="2"></path>
                <path d="M399,43 L399,74" id="Path-12-Copy" stroke="#524740" stroke-width="2"></path>
                <path d="M279,197 L279,228" id="Path-12-Copy-7" stroke="#524740" stroke-width="2"></path>
                <path d="M399,197 L399,228" id="Path-12-Copy-6" stroke="#524740" stroke-width="2"></path>
                <polyline id="Path-12-Copy-2" stroke="#524740" stroke-width="2" points="494 43 519 43 519 95"></polyline>
                <polyline id="Path-12-Copy-3" stroke="#524740" stroke-width="2" transform="translate(319.000000, 201.000000) scale(1, -1) translate(-319.000000, -201.000000) " points="119 227 119 175 519 175 519 227"></polyline>
                <g id="Group-4" transform="translate(276.000000, 82.000000)">
                    <path d="M3,1 L3,37" id="Path-14" stroke="#23ABE3"></path>
                    <polygon id="Triangle" fill="#23ABE3" points="3 0 6 6 0 6"></polygon>
                </g>
                <g id="Group-3" transform="translate(276.000000, 152.000000)">
                    <path d="M3,0 L3,36" id="Path-14-Copy" stroke="#23ABE3"></path>
                    <polygon id="Triangle-Copy" fill="#23ABE3" points="3 37 0 31 6 31"></polygon>
                </g>
                <g id="Group-4-Copy" transform="translate(396.000000, 82.000000)">
                    <path d="M3,1 L3,37" id="Path-14" stroke="#23ABE3"></path>
                    <polygon id="Triangle" fill="#23ABE3" points="3 0 6 6 0 6"></polygon>
                </g>
                <g id="Group-3-Copy" transform="translate(396.000000, 152.000000)">
                    <path d="M3,0 L3,36" id="Path-14-Copy" stroke="#23ABE3"></path>
                    <polygon id="Triangle-Copy" fill="#23ABE3" points="3 37 0 31 6 31"></polygon>
                </g>
            </g>
        </g>
    </g>
</svg>