<?xml version="1.0" encoding="UTF-8"?>
<svg width="882px" height="238px" viewBox="0 0 882 238" version="1.1" xmlns="http://www.w3.org/2000/svg" xmlns:xlink="http://www.w3.org/1999/xlink">
    <!-- Generator: Sketch 47.1 (45422) - http://www.bohemiancoding.com/sketch -->
    <title>5V_to_3.3V_Signal Division</title>
    <desc>Created with Sketch.</desc>
    <defs></defs>
    <g id="Page-1" stroke="none" stroke-width="1" fill="none" fill-rule="evenodd">
        <g id="Desktop-HD" transform="translate(-3028.000000, -118.000000)">
            <g id="Complex-Waveform" transform="translate(3023.000000, 117.000000)">
                <g id="5V_to_3.3V_Signal-Division">
                    <g id="3.3v-signal" transform="translate(524.000000, 0.000000)">
                        <path d="M65,2 L65,202" id="Line-7-Copy-2" stroke="#524740" stroke-width="2" stroke-linecap="square"></path>
                        <text id="3.3V-Signal" font-family="Lato-Regular, Lato" font-size="18" font-weight="normal" letter-spacing="0.695049703" fill="#555555">
                            <tspan x="157.239227" y="235">3.3V Signal</tspan>
                        </text>
                        <text id="5V" font-family="Lato-Regular, Lato" font-size="18" font-weight="normal" letter-spacing="0.695049703" fill="#555555">
                            <tspan x="16.9839006" y="18">5V</tspan>
                        </text>
                        <text id="3.3V" font-family="Lato-Regular, Lato" font-size="18" font-weight="normal" letter-spacing="0.695049703" fill="#555555">
                            <tspan x="0.905801188" y="74">3.3V</tspan>
                        </text>
                        <g id="Group-5" transform="translate(16.000000, 11.000000)">
                            <path d="M346,181 L33,181" id="Line-7-Copy-6" stroke="#524740" stroke-width="2" stroke-linecap="square"></path>
                            <path d="M49,1 L34,1" id="Line-7-Copy-7" stroke="#524740" stroke-width="2" stroke-linecap="square"></path>
                            <path d="M49,57 L34,57" id="Line-7-Copy-8" stroke="#524740" stroke-width="2" stroke-linecap="square"></path>
                            <text id="0V" font-family="Lato-Regular, Lato" font-size="18" font-weight="normal" letter-spacing="0.695049703" fill="#555555">
                                <tspan x="0.983900594" y="187">0V</tspan>
                            </text>
                        </g>
                        <path d="M65.7460938,129.942266 C80.9622628,104.431054 92.3802315,87.949763 100,80.4983922 C111.990342,68.7730377 124.054026,97.7543137 136,97.7543137 C147.969347,97.7543137 159.336965,68.7271102 171,80.4983922 C175.760945,85.3035245 180.944943,91.0894037 185.654846,97.8560297 C189.817878,103.836977 196.017565,114.532389 204.253906,129.942266 C221.198814,158.108546 233.828194,176.06263 242.142045,183.804518 C253.561007,194.437896 263.846992,166.210871 275,166.210871 C286.36674,166.210871 298.733481,194.232169 310.100221,183.187337 C318.07795,175.435539 330.044543,157.687182 346,129.942266" id="Path-2" stroke="#23ABE3" stroke-width="2"></path>
                    </g>
                    <g id="5V-Signal">
                        <path d="M109,2 L109,202" id="Line-7-Copy-2" stroke="#524740" stroke-width="2" stroke-linecap="square"></path>
                        <text font-family="Lato-Regular, Lato" font-size="18" font-weight="normal" letter-spacing="0.695049703" fill="#555555">
                            <tspan x="209.278276" y="235">5V Signal</tspan>
                        </text>
                        <text id="Voltage" transform="translate(11.500000, 100.000000) rotate(-90.000000) translate(-11.500000, -100.000000) " font-family="Lato-Regular, Lato" font-size="18" font-weight="normal" letter-spacing="0.695049703" fill="#555555">
                            <tspan x="-20.2743479" y="107">Voltage</tspan>
                        </text>
                        <text id="5V" font-family="Lato-Regular, Lato" font-size="18" font-weight="normal" letter-spacing="0.695049703" fill="#555555">
                            <tspan x="60.9839006" y="18">5V</tspan>
                        </text>
                        <text id="3.3V" font-family="Lato-Regular, Lato" font-size="18" font-weight="normal" letter-spacing="0.695049703" fill="#555555">
                            <tspan x="44.9058012" y="74">3.3V</tspan>
                        </text>
                        <g id="Group-5" transform="translate(60.000000, 11.000000)">
                            <path d="M346,181 L33,181" id="Line-7-Copy-6" stroke="#524740" stroke-width="2" stroke-linecap="square"></path>
                            <path d="M49,1 L34,1" id="Line-7-Copy-7" stroke="#524740" stroke-width="2" stroke-linecap="square"></path>
                            <path d="M49,57 L34,57" id="Line-7-Copy-8" stroke="#524740" stroke-width="2" stroke-linecap="square"></path>
                            <text id="0V" font-family="Lato-Regular, Lato" font-size="18" font-weight="normal" letter-spacing="0.695049703" fill="#555555">
                                <tspan x="0.983900594" y="187">0V</tspan>
                            </text>
                        </g>
                        <path d="M109.746094,100.019531 C124.962263,62.7532522 136.380232,38.6777042 144,27.7928875 C155.990342,10.664719 168.054026,53 180,53 C191.969347,53 203.336965,10.5976292 215,27.7928875 C219.760945,34.8121307 224.944943,43.2640298 229.654846,53.1485848 C233.817878,61.8854356 240.017565,77.5090844 248.253906,100.019531 C265.198814,141.164281 277.828194,167.391256 286.142045,178.700454 C297.561007,194.233485 307.846992,153 319,153 C330.36674,153 342.733481,193.932963 354.100221,177.798889 C362.07795,166.475214 374.044543,140.548762 390,100.019531" id="Path-2" stroke="#23ABE3" stroke-width="2"></path>
                    </g>
                    <text id="Signal-Division" font-family="Lato-Bold, Lato" font-size="18" font-weight="bold" letter-spacing="0.6950495" fill="#555555">
                        <tspan x="444.578351" y="74">Signal</tspan>
                        <tspan x="435.139802" y="96">Division</tspan>
                    </text>
                    <g id="Arrow" transform="translate(458.000000, 112.000000)">
                        <path d="M15,7 L0,7" id="Line-7-Copy-8" stroke="#23ABE3" stroke-width="2" stroke-linecap="square"></path>
                        <polygon id="Triangle-2" fill="#23ABE3" points="30 7 14 14 14 0"></polygon>
                    </g>
                </g>
            </g>
        </g>
    </g>
</svg>