<?xml version='1.0' encoding='UTF-8' standalone='no'?>
<!-- Created with Fritzing (http://www.fritzing.org/) -->
<svg xmlns:svg='http://www.w3.org/2000/svg' xmlns='http://www.w3.org/2000/svg' version='1.2' baseProfile='tiny' x='0in' y='0in' width='3.87499in' height='2.62917in' viewBox='0 0 279 189.3' >
<g partID='61130'><g transform='translate(137.85,37.05)' ><g id="schematic">
<rect x="0.45" stroke-width="0.9" y="14.85" stroke="#000000" width="27.9" height="27.9" stroke-linecap="round" class="interior rect" fill="#FFFFFF"/>
<line stroke-width="0.699999" id="connector2pin" stroke="#787878" y1="28.8" y2="28.8" x1="28.4499" stroke-linecap="round" class="pin" x2="42.8499" fill="none"/>
<text text-anchor="middle" stroke-width="0" x="35.6499" y="27.75" stroke="none" class="text" font-family="'Droid Sans'" font-size="2.5" fill="#8c8c8c">3</text>
<text text-anchor="end" stroke-width="0" x="27.05" y="29.4999" stroke="none" class="text" font-family="'Droid Sans'" font-size="3.49999" fill="#8c8c8c">S</text>
<g x="42.8499" stroke-width="0" id="connector2terminal" y="28.4499" stroke="none" width="0.699999" height="0.699999" class="terminal" fill="none"/>
<line stroke-width="0.699999" id="connector1pin" stroke="#787878" y1="42.8499" y2="57.2499" x1="14.4" stroke-linecap="round" class="pin" x2="14.4" fill="none"/>
<g transform="matrix(1, 0, 0, 1, 13.35, 50.0499)">
<g>
<g transform="rotate(270)">
<g>
<text text-anchor="middle" stroke-width="0" x="0" y="0" stroke="none" class="text" font-family="'Droid Sans'" font-size="2.5" fill="#8c8c8c">2</text>
</g>
</g>
</g>
</g>
<g transform="matrix(1, 0, 0, 1, 15.1, 41.4499)">
<g>
<g transform="rotate(270)">
<g>
<text text-anchor="start" stroke-width="0" x="0" y="0" stroke="none" class="text" font-family="'Droid Sans'" font-size="3.49999" fill="#8c8c8c">-</text>
</g>
</g>
</g>
</g>
<g x="14.05" stroke-width="0" id="connector1terminal" y="57.2499" stroke="none" width="0.699999" height="0.699999" class="terminal" fill="none"/>
<line stroke-width="0.699999" id="connector0pin" stroke="#787878" y1="0.349999" y2="14.75" x1="14.4" stroke-linecap="round" class="pin" x2="14.4" fill="none"/>
<g transform="matrix(1, 0, 0, 1, 13.35, 7.54999)">
<g>
<g transform="rotate(270)">
<g>
<text text-anchor="middle" stroke-width="0" x="0" y="0" stroke="none" class="text" font-family="'Droid Sans'" font-size="2.5" fill="#8c8c8c">1</text>
</g>
</g>
</g>
</g>
<g transform="matrix(1, 0, 0, 1, 15.1, 16.15)">
<g>
<g transform="rotate(270)">
<g>
<text text-anchor="end" stroke-width="0" x="0" y="0" stroke="none" class="text" font-family="'Droid Sans'" font-size="3.49999" fill="#8c8c8c">+</text>
</g>
</g>
</g>
</g>
<g x="14.05" stroke-width="0" id="connector0terminal" y="-0.349999" stroke="none" width="0.699999" height="0.699999" class="terminal" fill="none"/>
<text text-anchor="middle" id="label" stroke-width="0" x="14.85" y="27.9835" stroke="none" class="text" font-family="'Droid Sans'" font-size="4.25001" fill="#000000">LilyPad</text>
<text text-anchor="middle" id="label" stroke-width="0" x="14.85" y="32.5168" stroke="none" class="text" font-family="'Droid Sans'" font-size="4.25001" fill="#000000">Light</text>
<text text-anchor="middle" id="label" stroke-width="0" x="14.85" y="37.0505" stroke="none" class="text" font-family="'Droid Sans'" font-size="4.25001" fill="#000000">Sensor</text>
</g>
</g></g><g partID='61230'><g transform='translate(22.6505,29.8505)' ><g id="schematic">
<rect x="14.85" y="14.85" stroke="#000000" width="63.9" stroke-linecap="round" height="121.5" fill="#FFFFFF"/>
<line id="connector2pin" stroke-width="0.75" stroke="#787878" y1="28.8" y2="28.8" stroke-linecap="round" x1="78.85" x2="93.25" fill="none"/>
<g transform="matrix(1, 0, 0, 1, 85.3625, 27.75)">
<text font-family="'DroidSans'" font-size="2.5" fill="#8C8C8C">3</text>
</g>
<g transform="matrix(1, 0, 0, 1, 61.8254, 29.5)">
<text font-family="'DroidSans'" font-size="3.5" fill="#8C8C8C">D</text>
</g>
<g transform="matrix(1, 0, 0, 1, 64.219, 29.5)">
<text font-family="'DroidSans'" font-size="3.5" fill="#8C8C8C">1</text>
</g>
<g transform="matrix(1, 0, 0, 1, 66.1458, 29.5)">
<text font-family="'DroidSans'" font-size="3.5" fill="#8C8C8C">3</text>
</g>
<g transform="matrix(1, 0, 0, 1, 68.0754, 29.5)">
<text font-family="'DroidSans'" font-size="3.5" fill="#8C8C8C">_</text>
</g>
<g transform="matrix(1, 0, 0, 1, 69.5129, 29.5)">
<text font-family="'DroidSans'" font-size="3.5" fill="#8C8C8C">S</text>
</g>
<g transform="matrix(1, 0, 0, 1, 71.3293, 29.5)">
<text font-family="'DroidSans'" font-size="3.5" fill="#8C8C8C">P</text>
</g>
<g transform="matrix(1, 0, 0, 1, 73.3118, 29.5)">
<text font-family="'DroidSans'" font-size="3.5" fill="#8C8C8C">C</text>
</g>
<g transform="matrix(1, 0, 0, 1, 75.4231, 29.5)">
<text font-family="'DroidSans'" font-size="3.5" fill="#8C8C8C">K</text>
</g>
<g id="connector2terminal" x="93.25" y="28.45" width="0.699" height="0.7" fill="none"/>
<line id="connector3pin" stroke-width="0.75" stroke="#787878" y1="36" y2="36" stroke-linecap="round" x1="78.85" x2="93.25" fill="none"/>
<g transform="matrix(1, 0, 0, 1, 85.3625, 34.9492)">
<text font-family="'DroidSans'" font-size="2.5" fill="#8C8C8C">4</text>
</g>
<g transform="matrix(1, 0, 0, 1, 61.1165, 36.6992)">
<text font-family="'DroidSans'" font-size="3.5" fill="#8C8C8C">D12_MISO</text>
</g>
<g id="connector3terminal" x="93.25" y="35.65" width="0.699" height="0.7" fill="none"/>
<line id="connector4pin" stroke-width="0.75" stroke="#787878" y1="43.2" y2="43.2" stroke-linecap="round" x1="78.85" x2="93.25" fill="none"/>
<g transform="matrix(1, 0, 0, 1, 85.3625, 42.1504)">
<text font-family="'DroidSans'" font-size="2.5" fill="#8C8C8C">5</text>
</g>
<g transform="matrix(1, 0, 0, 1, 61.1165, 43.9004)">
<text font-family="'DroidSans'" font-size="3.5" fill="#8C8C8C">D11_MOSI</text>
</g>
<g id="connector4terminal" x="93.25" y="42.85" width="0.699" height="0.7" fill="none"/>
<line id="connector5pin" stroke-width="0.75" stroke="#787878" y1="50.4" y2="50.4" stroke-linecap="round" x1="78.85" x2="93.25" fill="none"/>
<g transform="matrix(1, 0, 0, 1, 85.3625, 49.3496)">
<text font-family="'DroidSans'" font-size="2.5" fill="#8C8C8C">6</text>
</g>
<g transform="matrix(1, 0, 0, 1, 59.679, 51.0996)">
<text font-family="'DroidSans'" font-size="3.5" fill="#8C8C8C">D10_PWM3</text>
</g>
<g id="connector5terminal" x="93.25" y="50.05" width="0.699" height="0.7" fill="none"/>
<line id="connector6pin" stroke-width="0.75" stroke="#787878" y1="57.6" y2="57.6" stroke-linecap="round" x1="78.85" x2="93.25" fill="none"/>
<g transform="matrix(1, 0, 0, 1, 85.3625, 56.5488)">
<text font-family="'DroidSans'" font-size="2.5" fill="#8C8C8C">7</text>
</g>
<g transform="matrix(1, 0, 0, 1, 61.6047, 58.2988)">
<text font-family="'DroidSans'" font-size="3.5" fill="#8C8C8C">D9_PWM2</text>
</g>
<g id="connector6terminal" x="93.25" y="57.25" width="0.699" height="0.7" fill="none"/>
<line id="connector7pin" stroke-width="0.75" stroke="#787878" y1="64.8" y2="64.8" stroke-linecap="round" x1="78.85" x2="93.25" fill="none"/>
<g transform="matrix(1, 0, 0, 1, 85.3625, 63.75)">
<text font-family="'DroidSans'" font-size="2.5" fill="#8C8C8C">8</text>
</g>
<g transform="matrix(1, 0, 0, 1, 64.05, 65.5)">
<text font-family="'DroidSans'" font-size="3.5" fill="#8C8C8C">D</text>
</g>
<g transform="matrix(1, 0, 0, 1, 66.4465, 65.5)">
<text font-family="'DroidSans'" font-size="3.5" fill="#8C8C8C">8</text>
</g>
<g transform="matrix(1, 0, 0, 1, 68.3733, 65.5)">
<text font-family="'DroidSans'" font-size="3.5" fill="#8C8C8C">_</text>
</g>
<g transform="matrix(1, 0, 0, 1, 69.8118, 65.5)">
<text font-family="'DroidSans'" font-size="3.5" fill="#8C8C8C">C</text>
</g>
<g transform="matrix(1, 0, 0, 1, 71.9231, 65.5)">
<text font-family="'DroidSans'" font-size="3.5" fill="#8C8C8C">T</text>
</g>
<g transform="matrix(1, 0, 0, 1, 73.7043, 65.5)">
<text font-family="'DroidSans'" font-size="3.5" fill="#8C8C8C">S</text>
</g>
<g transform="matrix(1, 0, 0, 1, 75.5208, 65.5)">
<text font-family="'DroidSans'" font-size="3.5" fill="#8C8C8C">1</text>
</g>
<g id="connector7terminal" x="93.25" y="64.45" width="0.699" height="0.7" fill="none"/>
<line id="connector8pin" stroke-width="0.75" stroke="#787878" y1="72" y2="72" stroke-linecap="round" x1="78.85" x2="93.25" fill="none"/>
<g transform="matrix(1, 0, 0, 1, 85.3625, 70.9492)">
<text font-family="'DroidSans'" font-size="2.5" fill="#8C8C8C">9</text>
</g>
<g transform="matrix(1, 0, 0, 1, 64.1311, 72.6992)">
<text font-family="'DroidSans'" font-size="3.5" fill="#8C8C8C">D</text>
</g>
<g transform="matrix(1, 0, 0, 1, 66.5247, 72.6992)">
<text font-family="'DroidSans'" font-size="3.5" fill="#8C8C8C">7</text>
</g>
<g transform="matrix(1, 0, 0, 1, 68.4543, 72.6992)">
<text font-family="'DroidSans'" font-size="3.5" fill="#8C8C8C">_</text>
</g>
<g transform="matrix(1, 0, 0, 1, 69.8918, 72.6992)">
<text font-family="'DroidSans'" font-size="3.5" fill="#8C8C8C">R</text>
</g>
<g transform="matrix(1, 0, 0, 1, 71.9211, 72.6992)">
<text font-family="'DroidSans'" font-size="3.5" fill="#8C8C8C">T</text>
</g>
<g transform="matrix(1, 0, 0, 1, 73.7043, 72.6992)">
<text font-family="'DroidSans'" font-size="3.5" fill="#8C8C8C">S</text>
</g>
<g transform="matrix(1, 0, 0, 1, 75.5208, 72.6992)">
<text font-family="'DroidSans'" font-size="3.5" fill="#8C8C8C">1</text>
</g>
<g id="connector8terminal" x="93.25" y="71.65" width="0.699" height="0.7" fill="none"/>
<line id="connector9pin" stroke-width="0.75" stroke="#787878" y1="79.2" y2="79.2" stroke-linecap="round" x1="78.85" x2="93.25" fill="none"/>
<g transform="matrix(1, 0, 0, 1, 84.675, 78.1509)">
<text font-family="'DroidSans'" font-size="2.5" fill="#8C8C8C">10</text>
</g>
<g transform="matrix(1, 0, 0, 1, 61.6047, 79.8989)">
<text font-family="'DroidSans'" font-size="3.5" fill="#8C8C8C">D6_PWM1</text>
</g>
<g id="connector9terminal" x="93.25" y="78.85" width="0.699" height="0.699" fill="none"/>
<line id="connector10pin" stroke-width="0.75" stroke="#787878" y1="86.4" y2="86.4" stroke-linecap="round" x1="78.85" x2="93.25" fill="none"/>
<g transform="matrix(1, 0, 0, 1, 84.675, 85.3501)">
<text font-family="'DroidSans'" font-size="2.5" fill="#8C8C8C">11</text>
</g>
<g transform="matrix(1, 0, 0, 1, 61.6047, 87.1001)">
<text font-family="'DroidSans'" font-size="3.5" fill="#8C8C8C">D5_PWM0</text>
</g>
<g id="connector10terminal" x="93.25" y="86.049" width="0.699" height="0.701" fill="none"/>
<line id="connector11pin" stroke-width="0.75" stroke="#787878" y1="93.6" y2="93.6" stroke-linecap="round" x1="78.85" x2="93.25" fill="none"/>
<g transform="matrix(1, 0, 0, 1, 84.675, 92.5493)">
<text font-family="'DroidSans'" font-size="2.5" fill="#8C8C8C">12</text>
</g>
<g transform="matrix(1, 0, 0, 1, 65.8333, 94.2993)">
<text font-family="'DroidSans'" font-size="3.5" fill="#8C8C8C">D4_CS0</text>
</g>
<g id="connector11terminal" x="93.25" y="93.25" width="0.699" height="0.697" fill="none"/>
<line id="connector12pin" stroke-width="0.75" stroke="#787878" y1="100.799" y2="100.799" stroke-linecap="round" x1="78.85" x2="93.25" fill="none"/>
<g transform="matrix(1, 0, 0, 1, 84.675, 99.7505)">
<text font-family="'DroidSans'" font-size="2.5" fill="#8C8C8C">13</text>
</g>
<g transform="matrix(1, 0, 0, 1, 66.0315, 101.501)">
<text font-family="'DroidSans'" font-size="3.5" fill="#8C8C8C">D3_TX1</text>
</g>
<g id="connector12terminal" x="93.25" y="100.45" width="0.699" height="0.7" fill="none"/>
<line id="connector13pin" stroke-width="0.75" stroke="#787878" y1="108" y2="108" stroke-linecap="round" x1="78.85" x2="93.25" fill="none"/>
<g transform="matrix(1, 0, 0, 1, 84.675, 106.95)">
<text font-family="'DroidSans'" font-size="2.5" fill="#8C8C8C">14</text>
</g>
<g transform="matrix(1, 0, 0, 1, 65.7825, 108.7)">
<text font-family="'DroidSans'" font-size="3.5" fill="#8C8C8C">D2_RX1</text>
</g>
<g id="connector13terminal" x="93.25" y="107.65" width="0.699" height="0.7" fill="none"/>
<line id="connector14pin" stroke-width="0.75" stroke="#787878" y1="115.2" y2="115.2" stroke-linecap="round" x1="78.85" x2="93.25" fill="none"/>
<g transform="matrix(1, 0, 0, 1, 84.675, 114.151)">
<text font-family="'DroidSans'" font-size="2.5" fill="#8C8C8C">15</text>
</g>
<g transform="matrix(1, 0, 0, 1, 66.0315, 115.901)">
<text font-family="'DroidSans'" font-size="3.5" fill="#8C8C8C">D1_TX0</text>
</g>
<g id="connector14terminal" x="93.25" y="114.85" width="0.699" height="0.699" fill="none"/>
<line id="connector15pin" stroke-width="0.75" stroke="#787878" y1="122.4" y2="122.4" stroke-linecap="round" x1="78.85" x2="93.25" fill="none"/>
<g transform="matrix(1, 0, 0, 1, 84.675, 121.35)">
<text font-family="'DroidSans'" font-size="2.5" fill="#8C8C8C">16</text>
</g>
<g transform="matrix(1, 0, 0, 1, 65.7825, 123.1)">
<text font-family="'DroidSans'" font-size="3.5" fill="#8C8C8C">D0_RX0</text>
</g>
<g id="connector15terminal" x="93.25" y="122.049" width="0.699" height="0.701" fill="none"/>
<line id="connector16pin" stroke-width="0.75" stroke="#787878" y1="28.8" y2="28.8" stroke-linecap="round" x1="0.35" x2="14.75" fill="none"/>
<g transform="matrix(1, 0, 0, 1, 6.1746, 27.75)">
<text font-family="'DroidSans'" font-size="2.5" fill="#8C8C8C">17</text>
</g>
<g transform="matrix(1, 0, 0, 1, 16.1501, 29.5)">
<text font-family="'DroidSans'" font-size="3.5" fill="#8C8C8C">RST</text>
</g>
<g id="connector16terminal" x="-0.35" y="28.45" width="0.7" height="0.7" fill="none"/>
<line id="connector0pin" stroke-width="0.75" stroke="#787878" y1="36" y2="36" stroke-linecap="round" x1="0.35" x2="14.75" fill="none"/>
<g transform="matrix(1, 0, 0, 1, 6.8621, 34.9492)">
<text font-family="'DroidSans'" font-size="2.5" fill="#8C8C8C">1</text>
</g>
<g transform="matrix(1, 0, 0, 1, 16.1501, 36.6992)">
<text font-family="'DroidSans'" font-size="3.5" fill="#8C8C8C">Aref</text>
</g>
<g id="connector0terminal" x="-0.35" y="35.65" width="0.7" height="0.7" fill="none"/>
<line id="connector22pin" stroke-width="0.75" stroke="#787878" y1="79.2" y2="79.2" stroke-linecap="round" x1="0.35" x2="14.75" fill="none"/>
<g transform="matrix(1, 0, 0, 1, 6.1746, 78.1489)">
<text font-family="'DroidSans'" font-size="2.5" fill="#8C8C8C">23</text>
</g>
<g transform="matrix(1, 0, 0, 1, 16.1501, 79.8989)">
<text font-family="'DroidSans'" font-size="3.5" fill="#8C8C8C">A0</text>
</g>
<g id="connector22terminal" x="-0.35" y="78.849" width="0.7" height="0.7" fill="none"/>
<line id="connector23pin" stroke-width="0.75" stroke="#787878" y1="86.4" y2="86.4" stroke-linecap="round" x1="0.35" x2="14.75" fill="none"/>
<g transform="matrix(1, 0, 0, 1, 6.1746, 85.3481)">
<text font-family="'DroidSans'" font-size="2.5" fill="#8C8C8C">24</text>
</g>
<g transform="matrix(1, 0, 0, 1, 16.1501, 87.0981)">
<text font-family="'DroidSans'" font-size="3.5" fill="#8C8C8C">A1</text>
</g>
<g id="connector23terminal" x="-0.35" y="86.049" width="0.7" height="0.699" fill="none"/>
<line id="connector51pin" stroke-width="0.75" stroke="#787878" y1="57.6" y2="57.6" stroke-linecap="round" x1="0.35" x2="14.75" fill="none"/>
<g transform="matrix(1, 0, 0, 1, 16.1501, 58.2988)">
<text font-family="'DroidSans'" font-size="3.5" fill="#8C8C8C">SD</text>
</g>
<g id="connector51terminal" x="-0.35" y="57.249" width="0.7" height="0.701" fill="none"/>
<line id="connector52pin" stroke-width="0.75" stroke="#787878" y1="43.2" y2="43.2" stroke-linecap="round" x1="0.35" x2="14.75" fill="none"/>
<g transform="matrix(1, 0, 0, 1, 16.1501, 43.9004)">
<text font-family="'DroidSans'" font-size="3.5" fill="#8C8C8C">IoRef</text>
</g>
<g id="connector52terminal" x="-0.35" y="42.849" width="0.7" height="0.701" fill="none"/>
<line id="connector50pin" stroke-width="0.75" stroke="#787878" y1="64.8" y2="64.8" stroke-linecap="round" x1="0.35" x2="14.75" fill="none"/>
<g transform="matrix(1, 0, 0, 1, 16.1501, 65.498)">
<text font-family="'DroidSans'" font-size="3.5" fill="#8C8C8C">SC</text>
</g>
<g id="connector50terminal" x="-0.35" y="64.45" width="0.7" height="0.699" fill="none"/>
<line id="connector24pin" stroke-width="0.75" stroke="#787878" y1="93.599" y2="93.599" stroke-linecap="round" x1="0.35" x2="14.75" fill="none"/>
<g transform="matrix(1, 0, 0, 1, 6.1746, 92.5493)">
<text font-family="'DroidSans'" font-size="2.5" fill="#8C8C8C">25</text>
</g>
<g transform="matrix(1, 0, 0, 1, 16.1501, 94.2993)">
<text font-family="'DroidSans'" font-size="3.5" fill="#8C8C8C">A2</text>
</g>
<g id="connector24terminal" x="-0.35" y="93.25" width="0.7" height="0.699" fill="none"/>
<line id="connector25pin" stroke-width="0.75" stroke="#787878" y1="100.799" y2="100.799" stroke-linecap="round" x1="0.35" x2="14.75" fill="none"/>
<g transform="matrix(1, 0, 0, 1, 6.1746, 99.7485)">
<text font-family="'DroidSans'" font-size="2.5" fill="#8C8C8C">26</text>
</g>
<g transform="matrix(1, 0, 0, 1, 16.1501, 101.499)">
<text font-family="'DroidSans'" font-size="3.5" fill="#8C8C8C">A3</text>
</g>
<g id="connector25terminal" x="-0.35" y="100.45" width="0.7" height="0.7" fill="none"/>
<line id="connector26pin" stroke-width="0.75" stroke="#787878" y1="108" y2="108" stroke-linecap="round" x1="0.35" x2="14.75" fill="none"/>
<g transform="matrix(1, 0, 0, 1, 6.1746, 106.95)">
<text font-family="'DroidSans'" font-size="2.5" fill="#8C8C8C">27</text>
</g>
<g transform="matrix(1, 0, 0, 1, 16.1501, 108.7)">
<text font-family="'DroidSans'" font-size="3.5" fill="#8C8C8C">A4_TWD</text>
</g>
<g id="connector26terminal" x="-0.35" y="107.65" width="0.7" height="0.699" fill="none"/>
<line id="connector27pin" stroke-width="0.75" stroke="#787878" y1="115.2" y2="115.2" stroke-linecap="round" x1="0.35" x2="14.75" fill="none"/>
<g transform="matrix(1, 0, 0, 1, 6.1746, 114.149)">
<text font-family="'DroidSans'" font-size="2.5" fill="#8C8C8C">28</text>
</g>
<g transform="matrix(1, 0, 0, 1, 16.1501, 115.899)">
<text font-family="'DroidSans'" font-size="3.5" fill="#8C8C8C">A</text>
</g>
<g transform="matrix(1, 0, 0, 1, 18.2791, 115.899)">
<text font-family="'DroidSans'" font-size="3.5" fill="#8C8C8C">5</text>
</g>
<g transform="matrix(1, 0, 0, 1, 20.2063, 115.899)">
<text font-family="'DroidSans'" font-size="3.5" fill="#8C8C8C">_</text>
</g>
<g transform="matrix(1, 0, 0, 1, 21.6453, 115.899)">
<text font-family="'DroidSans'" font-size="3.5" fill="#8C8C8C">T</text>
</g>
<g transform="matrix(1, 0, 0, 1, 23.4622, 115.899)">
<text font-family="'DroidSans'" font-size="3.5" fill="#8C8C8C">W</text>
</g>
<g transform="matrix(1, 0, 0, 1, 26.5208, 115.899)">
<text font-family="'DroidSans'" font-size="3.5" fill="#8C8C8C">C</text>
</g>
<g transform="matrix(1, 0, 0, 1, 28.6306, 115.899)">
<text font-family="'DroidSans'" font-size="3.5" fill="#8C8C8C">K</text>
</g>
<g id="connector27terminal" x="-0.35" y="114.849" width="0.7" height="0.7" fill="none"/>
<line id="connector53pin" stroke-width="0.75" stroke="#787878" y1="129.599" y2="129.599" stroke-linecap="round" x1="0.35" x2="14.75" fill="none"/>
<g transform="matrix(1, 0, 0, 1, 16.1501, 130.299)">
<text font-family="'DroidSans'" font-size="3.5" fill="#8C8C8C">NC</text>
</g>
<g id="connector53terminal" x="-0.35" y="129.249" width="0.7" height="0.701" fill="none"/>
<line id="connector19pin" y1="136.45" y2="150.85" x1="43.2" x2="43.2" fill="none"/>
<g id="connector19terminal" x="42.85" y="150.85" width="0.7" height="0.699" fill="none"/>
<line id="connector20pin" y1="136.45" y2="150.85" x1="43.2" x2="43.2" fill="none"/>
<g id="connector20terminal" x="42.85" y="150.85" width="0.7" height="0.699" fill="none"/>
<line id="connector1pin" stroke-width="0.75" stroke="#787878" y1="136.45" y2="150.85" stroke-linecap="round" x1="43.2" x2="43.2" fill="none"/>
<g transform="matrix(1, 0, 0, 1, 14.8696, 50.6765)">
<g>
<g transform="rotate(270)">
<g>
<g transform="matrix(1, 0, 0, 1, -93.6619, 27.281)">
<text font-family="'DroidSans'" font-size="2.5" fill="#8C8C8C">2</text>
</g>
</g>
</g>
</g>
</g>
<g transform="matrix(1, 0, 0, 1, 15.4869, 47.6426)">
<g>
<g transform="rotate(270)">
<g>
<g transform="matrix(1, 0, 0, 1, -87.4067, 28.4137)">
<text font-family="'DroidSans'" font-size="3.5" fill="#8C8C8C">GND</text>
</g>
</g>
</g>
</g>
</g>
<g id="connector1terminal" x="42.85" y="150.85" width="0.7" height="0.699" fill="none"/>
<line id="connector17pin" stroke-width="0.75" stroke="#787878" y1="0.35" y2="14.75" stroke-linecap="round" x1="28.8" x2="28.8" fill="none"/>
<g transform="matrix(1, 0, 0, 1, 9.78958, 2.66347)">
<g>
<g transform="rotate(270)">
<g>
<g transform="matrix(1, 0, 0, 1, -6.2628, 17.9607)">
<text font-family="'DroidSans'" font-size="2.5" fill="#8C8C8C">18</text>
</g>
</g>
</g>
</g>
</g>
<g transform="matrix(1, 0, 0, 1, 10.4069, 5.69736)">
<g>
<g transform="rotate(270)">
<g>
<g transform="matrix(1, 0, 0, 1, -16.2953, 19.0933)">
<text font-family="'DroidSans'" font-size="3.5" fill="#8C8C8C">3V3</text>
</g>
</g>
</g>
</g>
</g>
<g id="connector17terminal" x="28.449" y="-0.35" width="0.698" height="0.7" fill="none"/>
<line id="connector18pin" stroke-width="0.75" stroke="#787878" y1="0.35" y2="14.75" stroke-linecap="round" x1="36" x2="36" fill="none"/>
<g transform="matrix(1, 0, 0, 1, 12.3296, 2.66347)">
<g>
<g transform="rotate(270)">
<g>
<g transform="matrix(1, 0, 0, 1, -6.2628, 22.6199)">
<text font-family="'DroidSans'" font-size="2.5" fill="#8C8C8C">19</text>
</g>
</g>
</g>
</g>
</g>
<g transform="matrix(1, 0, 0, 1, 12.9469, 5.69736)">
<g>
<g transform="rotate(270)">
<g>
<g transform="matrix(1, 0, 0, 1, -16.2953, 23.7526)">
<text font-family="'DroidSans'" font-size="3.5" fill="#8C8C8C">+5V</text>
</g>
</g>
</g>
</g>
</g>
<g id="connector18terminal" x="35.65" y="-0.35" width="0.7" height="0.7" fill="none"/>
<line id="connector21pin" stroke-width="0.75" stroke="#787878" y1="0.35" y2="14.75" stroke-linecap="round" x1="57.6" x2="57.6" fill="none"/>
<g transform="matrix(1, 0, 0, 1, 19.9496, 2.66347)">
<g>
<g transform="rotate(270)">
<g>
<g transform="matrix(1, 0, 0, 1, -6.2628, 36.6014)">
<text font-family="'DroidSans'" font-size="2.5" fill="#8C8C8C">22</text>
</g>
</g>
</g>
</g>
</g>
<g transform="matrix(1, 0, 0, 1, 20.5669, 5.69736)">
<g>
<g transform="rotate(270)">
<g>
<g transform="matrix(1, 0, 0, 1, -16.1781, 37.7341)">
<text font-family="'DroidSans'" font-size="3.5" fill="#8C8C8C">VIN</text>
</g>
</g>
</g>
</g>
</g>
<g id="connector21terminal" x="57.25" y="-0.35" width="0.699" height="0.7" fill="none"/>
<g transform="matrix(1, 0, 0, 1, 38.3181, 73.7832)">
<text id="label" font-family="'DroidSans'" font-size="4.25">Netduino</text>
</g>
</g>
</g></g><g partID='61710'><g transform='translate(231.1,62.7538)' ><g id="schematic" xmlns="http://www.w3.org/2000/svg">
<line stroke-width="0.432002" stroke="#000000" y1="3.096" y2="0.216" x1="7.55002" stroke-linecap="round" class="other" x2="8.63003" xmlns="http://www.w3.org/2000/svg"/>
<line stroke-width="0.432002" stroke="#000000" y1="0.216" y2="5.976" x1="8.63003" stroke-linecap="round" class="other" x2="10.43" xmlns="http://www.w3.org/2000/svg"/>
<line stroke-width="0.432002" stroke="#000000" y1="5.976" y2="0.216" x1="10.43" stroke-linecap="round" class="other" x2="12.23" xmlns="http://www.w3.org/2000/svg"/>
<line stroke-width="0.432002" stroke="#000000" y1="0.216" y2="5.976" x1="12.23" stroke-linecap="round" class="other" x2="14.03" xmlns="http://www.w3.org/2000/svg"/>
<line stroke-width="0.432002" stroke="#000000" y1="5.976" y2="0.216" x1="14.03" stroke-linecap="round" class="other" x2="15.8301" xmlns="http://www.w3.org/2000/svg"/>
<line stroke-width="0.432002" stroke="#000000" y1="0.216" y2="5.976" x1="15.8301" stroke-linecap="round" class="other" x2="17.6301" xmlns="http://www.w3.org/2000/svg"/>
<line stroke-width="0.432002" stroke="#000000" y1="5.976" y2="0.216" x1="17.6301" stroke-linecap="round" class="other" x2="19.4301" xmlns="http://www.w3.org/2000/svg"/>
<line stroke-width="0.432002" stroke="#000000" y1="0.216" y2="5.976" x1="19.4301" stroke-linecap="round" class="other" x2="21.2301" xmlns="http://www.w3.org/2000/svg"/>
<line stroke-width="0.432002" stroke="#000000" y1="5.976" y2="3.096" x1="21.2301" stroke-linecap="round" class="other" x2="21.9501" xmlns="http://www.w3.org/2000/svg"/>
<line id="connector1pin" stroke-width="0.700001" stroke="#787878" y1="3.096" y2="3.096" x1="29.1502" stroke-linecap="round" class="pin" x2="21.9501" xmlns="http://www.w3.org/2000/svg" connectorname="2"/>
<g id="connector1terminal" x="29.1502" stroke-width="0" y="3.096" stroke="none" width="0.000283466" height="0.000283465" class="terminal" xmlns="http://www.w3.org/2000/svg" fill="none"/>
<text text-anchor="middle" stroke-width="0" x="25.5501" y="2.046" stroke="none" class="text" font-family="'Droid Sans'" xmlns="http://www.w3.org/2000/svg" font-size="2.50001" fill="#8c8c8c">2</text>
<line id="connector0pin" stroke-width="0.700001" stroke="#787878" y1="3.096" y2="3.096" x1="0.350001" stroke-linecap="round" class="pin" x2="7.55002" xmlns="http://www.w3.org/2000/svg" connectorname="1"/>
<g id="connector0terminal" x="0.350001" stroke-width="0" y="3.096" stroke="none" width="0.000283466" height="0.000283465" class="terminal" xmlns="http://www.w3.org/2000/svg" fill="none"/>
<text text-anchor="middle" stroke-width="0" x="3.95001" y="2.046" stroke="none" class="text" font-family="'Droid Sans'" xmlns="http://www.w3.org/2000/svg" font-size="2.50001" fill="#8c8c8c">1</text>
</g>
</g></g><g partID='61680'><g transform='translate(187.9,62.7538)' ><g id="schematic" xmlns="http://www.w3.org/2000/svg">
<line stroke-width="0.432002" stroke="#000000" y1="3.096" y2="0.216" x1="7.55002" stroke-linecap="round" class="other" x2="8.63003" xmlns="http://www.w3.org/2000/svg"/>
<line stroke-width="0.432002" stroke="#000000" y1="0.216" y2="5.976" x1="8.63003" stroke-linecap="round" class="other" x2="10.43" xmlns="http://www.w3.org/2000/svg"/>
<line stroke-width="0.432002" stroke="#000000" y1="5.976" y2="0.216" x1="10.43" stroke-linecap="round" class="other" x2="12.23" xmlns="http://www.w3.org/2000/svg"/>
<line stroke-width="0.432002" stroke="#000000" y1="0.216" y2="5.976" x1="12.23" stroke-linecap="round" class="other" x2="14.03" xmlns="http://www.w3.org/2000/svg"/>
<line stroke-width="0.432002" stroke="#000000" y1="5.976" y2="0.216" x1="14.03" stroke-linecap="round" class="other" x2="15.8301" xmlns="http://www.w3.org/2000/svg"/>
<line stroke-width="0.432002" stroke="#000000" y1="0.216" y2="5.976" x1="15.8301" stroke-linecap="round" class="other" x2="17.6301" xmlns="http://www.w3.org/2000/svg"/>
<line stroke-width="0.432002" stroke="#000000" y1="5.976" y2="0.216" x1="17.6301" stroke-linecap="round" class="other" x2="19.4301" xmlns="http://www.w3.org/2000/svg"/>
<line stroke-width="0.432002" stroke="#000000" y1="0.216" y2="5.976" x1="19.4301" stroke-linecap="round" class="other" x2="21.2301" xmlns="http://www.w3.org/2000/svg"/>
<line stroke-width="0.432002" stroke="#000000" y1="5.976" y2="3.096" x1="21.2301" stroke-linecap="round" class="other" x2="21.9501" xmlns="http://www.w3.org/2000/svg"/>
<line id="connector1pin" stroke-width="0.700001" stroke="#787878" y1="3.096" y2="3.096" x1="29.1502" stroke-linecap="round" class="pin" x2="21.9501" xmlns="http://www.w3.org/2000/svg" connectorname="2"/>
<g id="connector1terminal" x="29.1502" stroke-width="0" y="3.096" stroke="none" width="0.000283466" height="0.000283465" class="terminal" xmlns="http://www.w3.org/2000/svg" fill="none"/>
<text text-anchor="middle" stroke-width="0" x="25.5501" y="2.046" stroke="none" class="text" font-family="'Droid Sans'" xmlns="http://www.w3.org/2000/svg" font-size="2.50001" fill="#8c8c8c">2</text>
<line id="connector0pin" stroke-width="0.700001" stroke="#787878" y1="3.096" y2="3.096" x1="0.350001" stroke-linecap="round" class="pin" x2="7.55002" xmlns="http://www.w3.org/2000/svg" connectorname="1"/>
<g id="connector0terminal" x="0.350001" stroke-width="0" y="3.096" stroke="none" width="0.000283466" height="0.000283465" class="terminal" xmlns="http://www.w3.org/2000/svg" fill="none"/>
<text text-anchor="middle" stroke-width="0" x="3.95001" y="2.046" stroke="none" class="text" font-family="'Droid Sans'" xmlns="http://www.w3.org/2000/svg" font-size="2.50001" fill="#8c8c8c">1</text>
</g>
</g></g><g partID='61400'><line stroke-linecap='round' stroke='#404040' x1='152.25' y1='15.45' x2='58.65' y2='15.45' stroke-width='0.699998' /></g><g partID='61330'><line stroke-linecap='round' stroke='#404040' x1='58.65' y1='15.45' x2='58.6505' y2='29.8505' stroke-width='0.699998' /></g><g partID='61260'><line stroke-linecap='round' stroke='#404040' x1='152.25' y1='37.05' x2='152.25' y2='15.45' stroke-width='0.699998' /></g><g partID='62530'><line stroke-linecap='round' stroke='#404040' x1='65.85' y1='188.25' x2='65.8505' y2='181.05' stroke-width='0.699998' /></g><g partID='61540'><line stroke-linecap='round' stroke='#404040' x1='152.25' y1='188.25' x2='65.85' y2='188.25' stroke-width='0.699998' /></g><circle  fill="black" cx="152.25" cy="188.25" r="1.44" stroke-width="0" stroke="none" /><g partID='61470'><line stroke-linecap='round' stroke='#404040' x1='152.25' y1='94.6499' x2='152.25' y2='188.25' stroke-width='0.699998' /></g><g partID='62820'><line stroke-linecap='round' stroke='#404040' x1='274.65' y1='65.85' x2='260.25' y2='65.85' stroke-width='0.699998' /></g><g partID='62710'><line stroke-linecap='round' stroke='#404040' x1='274.65' y1='188.25' x2='274.65' y2='65.85' stroke-width='0.699998' /></g><g partID='62600'><line stroke-linecap='round' stroke='#404040' x1='152.25' y1='188.25' x2='274.65' y2='188.25' stroke-width='0.699998' /></g><g partID='62930'><line stroke-linecap='round' stroke='#404040' x1='188.25' y1='65.85' x2='181.05' y2='65.8499' stroke-width='0.699998' /></g><g partID='63070'><line stroke-linecap='round' stroke='#404040' x1='224.25' y1='65.85' x2='217.05' y2='65.85' stroke-width='0.699998' /></g><circle  fill="black" cx="224.25" cy="65.85" r="1.44" stroke-width="0" stroke="none" /><g partID='63000'><line stroke-linecap='round' stroke='#404040' x1='231.45' y1='65.85' x2='224.25' y2='65.85' stroke-width='0.699998' /></g><g partID='63470'><line stroke-linecap='round' stroke='#404040' x1='1.05' y1='1.05' x2='1.05' y2='123.45' stroke-width='0.699998' /></g><g partID='63360'><line stroke-linecap='round' stroke='#404040' x1='1.05' y1='123.45' x2='22.6505' y2='123.45' stroke-width='0.699998' /></g><g partID='63250'><line stroke-linecap='round' stroke='#404040' x1='224.25' y1='1.05' x2='1.05' y2='1.05' stroke-width='0.699998' /></g><g partID='63140'><line stroke-linecap='round' stroke='#404040' x1='224.25' y1='65.85' x2='224.25' y2='1.05' stroke-width='0.699998' /></g><g partID='61130' id='partLabel'><g transform='translate(159.05,42.25)' ><g font-size='5' font-style='normal' font-weight='normal' fill='#000000' font-family="'DroidSans'" id='schematicLabel' fill-opacity='1' stroke='none' ><text x='0' y='3.75'>5V Light Sensor</text></g></g></g><g partID='61230' id='partLabel'><g transform='translate(96.6505,33.0505)' ><g font-size='5' font-style='normal' font-weight='normal' fill='#000000' font-family="'DroidSans'" id='schematicLabel' fill-opacity='1' stroke='none' ><text x='0' y='3.75'>Netduino</text></g></g></g><g partID='61710' id='partLabel'><g transform='translate(260.6,51.5538)' ><g font-size='5' font-style='normal' font-weight='normal' fill='#000000' font-family="'DroidSans'" id='schematicLabel' fill-opacity='1' stroke='none' ><text x='0' y='3.75'>R2</text><text x='0' y='8.75'>2.2k&#x3a9;</text></g></g></g><g partID='61680' id='partLabel'><g transform='translate(211.8,73.1538)' ><g font-size='5' font-style='normal' font-weight='normal' fill='#000000' font-family="'DroidSans'" id='schematicLabel' fill-opacity='1' stroke='none' ><text x='0' y='3.75'>R1</text><text x='0' y='8.75'>1k&#x3a9;</text></g></g></g></svg>