<?xml version="1.0" encoding="UTF-8"?>
<svg width="595px" height="238px" viewBox="0 0 595 238" version="1.1" xmlns="http://www.w3.org/2000/svg" xmlns:xlink="http://www.w3.org/1999/xlink">
    <!-- Generator: Sketch 47.1 (45422) - http://www.bohemiancoding.com/sketch -->
    <title>Level_Shifting_Lab_Circuit</title>
    <desc>Created with Sketch.</desc>
    <defs>
        <rect id="path-1" x="0" y="0" width="269" height="238"></rect>
        <rect id="path-2" x="267" y="0" width="328" height="238"></rect>
    </defs>
    <g id="Page-1" stroke="none" stroke-width="1" fill="none" fill-rule="evenodd">
        <g id="Desktop-HD" transform="translate(-3090.000000, -489.000000)">
            <g id="Level_Shifting_Lab_Circuit" transform="translate(3090.000000, 489.000000)">
                <g id="Rectangle-4">
                    <use fill="#EEEEEE" fill-rule="evenodd" xlink:href="#path-1"></use>
                    <rect stroke="#23ABE3" stroke-width="2" x="1" y="1" width="267" height="236"></rect>
                </g>
                <text id="Sensor-Circuit" font-family="Lato-Regular, Lato" font-size="18" font-weight="normal" letter-spacing="0.695049465" fill="#23ABE3">
                    <tspan x="72.6491537" y="221">Sensor Circuit</tspan>
                </text>
                <g id="Rectangle-4-Copy">
                    <use fill="#EEEEEE" fill-rule="evenodd" xlink:href="#path-2"></use>
                    <rect stroke="#23ABE3" stroke-width="2" x="268" y="1" width="326" height="236"></rect>
                </g>
                <text id="Voltage-Divider-Circ" font-family="Lato-Regular, Lato" font-size="18" font-weight="normal" letter-spacing="0.695049465" fill="#23ABE3">
                    <tspan x="340.631931" y="221">Voltage Divider Circuit</tspan>
                </text>
                <g id="R1" transform="translate(285.000000, 77.000000)" stroke-width="2" stroke="#524740" stroke-linejoin="bevel">
                    <polyline id="Resistor" transform="translate(35.000000, 13.000000) rotate(-360.000000) translate(-35.000000, -13.000000) " points="0 13 5 13 10 0 20 26 30 0 40 26 50 0 60 26 65 13 70 13"></polyline>
                    <polyline id="Resistor-Copy-8" transform="translate(195.000000, 13.000000) rotate(-360.000000) translate(-195.000000, -13.000000) " points="160 13 165 13 170 0 180 26 190 0 200 26 210 0 220 26 225 13 230 13"></polyline>
                </g>
                <g id="R1" transform="translate(311.000000, 47.000000)" font-weight="normal" fill="#524740">
                    <text id="R" font-family="Lato-Italic, Lato" font-size="18" font-style="italic" letter-spacing="0.695049465">
                        <tspan x="0.400975268" y="18">R</tspan>
                    </text>
                    <text id="1" font-family="Lato-Regular, Lato" font-size="12" letter-spacing="0.46336633">
                        <tspan x="10.2883168" y="21">1</tspan>
                    </text>
                </g>
                <g id="R2" transform="translate(475.000000, 47.000000)" font-weight="normal" fill="#524740">
                    <text id="R" font-family="Lato-Italic, Lato" font-size="18" font-style="italic" letter-spacing="0.695049465">
                        <tspan x="0.400975268" y="18">R</tspan>
                    </text>
                    <text id="2" font-family="Lato-Regular, Lato" font-size="12" letter-spacing="0.46336633">
                        <tspan x="10.2883168" y="21">2</tspan>
                    </text>
                </g>
                <g id="Vout" transform="translate(366.000000, 143.000000)" font-weight="normal" fill="#23ABE3">
                    <text id="V" font-family="Lato-Italic, Lato" font-size="18" font-style="italic" letter-spacing="0.695049465">
                        <tspan x="20.4869753" y="18">V</tspan>
                    </text>
                    <text id="(to-ADC)" font-family="Lato-Regular, Lato" font-size="18" letter-spacing="0.695049465">
                        <tspan x="0.825802141" y="40">(to ADC)</tspan>
                    </text>
                    <text id="out" font-family="Lato-Regular, Lato" font-size="12" letter-spacing="0.46336633">
                        <tspan x="31" y="21">out</tspan>
                    </text>
                </g>
                <g id="Ground" transform="translate(554.500000, 136.000000) rotate(-90.000000) translate(-554.500000, -136.000000) translate(507.000000, 119.500000)" stroke="#524740" stroke-width="2">
                    <path d="M12.5,17 L37.5,17" id="Path-2-Copy"></path>
                    <path d="M35.5,17 L94.5,17" id="Path-2-Copy-4"></path>
                    <path d="M7,6.5 L7,26.5" id="Path-4"></path>
                    <path d="M1,13.5 L1,19.5" id="Path-4-Copy"></path>
                    <path d="M13,-1.13686838e-13 L13,33" id="Path-3-Copy"></path>
                </g>
                <circle id="Oval-2-Copy-12" fill="#524740" cx="400" cy="90" r="5"></circle>
                <path d="M400,90 L400,142" id="Path-19" stroke="#524740" stroke-width="2"></path>
                <path d="M245,90 L285,90" id="Path-16" stroke="#524740" stroke-width="2"></path>
                <g id="Ground-Copy" transform="translate(61.500000, 164.500000) rotate(-90.000000) translate(-61.500000, -164.500000) translate(42.500000, 148.000000)" stroke="#524740" stroke-width="2">
                    <path d="M12.5,17 L37.5,17" id="Path-2-Copy"></path>
                    <path d="M7,6.5 L7,26.5" id="Path-4"></path>
                    <path d="M1,13.5 L1,19.5" id="Path-4-Copy"></path>
                    <path d="M13,0 L13,33" id="Path-3-Copy"></path>
                </g>
                <g id="DC_Power" transform="translate(22.000000, 51.000000)">
                    <g id="Group-2">
                        <circle id="Oval" stroke="#524740" stroke-width="2" cx="40" cy="40" r="39"></circle>
                        <text id="5V" font-family="Lato-Regular, Lato" font-size="18" font-weight="normal" letter-spacing="0.695049465" fill="#524740">
                            <tspan x="29.4919505" y="46">5V</tspan>
                        </text>
                        <text id="+" font-family="Lato-Regular, Lato" font-size="18" font-weight="normal" letter-spacing="0.899999917" fill="#524740">
                            <tspan x="61.33" y="45">+</tspan>
                        </text>
                        <text id="-" font-family="Lato-Regular, Lato" font-size="18" font-weight="normal" letter-spacing="0.899999917" fill="#524740">
                            <tspan x="37.2065" y="72.5">-</tspan>
                        </text>
                    </g>
                </g>
                <path d="M102,90 L167,90" id="Path-5" stroke="#524740" stroke-width="2"></path>
                <g id="Light-Sensor" transform="translate(155.000000, 18.000000)">
                    <g id="Group-2">
                        <rect id="Rectangle-2" stroke="#524740" stroke-width="2" x="12" y="33" width="78" height="78"></rect>
                        <text id="Light-Sensor" font-family="Lato-Regular, Lato" font-size="18" font-weight="normal" letter-spacing="0.695049465" fill="#524740">
                            <tspan x="0" y="18">Light Sensor</tspan>
                        </text>
                        <text id="+" font-family="Lato-Regular, Lato" font-size="18" font-weight="normal" letter-spacing="0.899999917" fill="#524740">
                            <tspan x="20.33" y="78">+</tspan>
                        </text>
                        <text id="s" font-family="Lato-Regular, Lato" font-size="18" font-weight="normal" letter-spacing="0.899999917" fill="#524740">
                            <tspan x="72.653" y="77">s</tspan>
                        </text>
                        <text id="-" font-family="Lato-Regular, Lato" font-size="18" font-weight="normal" letter-spacing="0.899999917" fill="#524740">
                            <tspan x="48.2065" y="104.5">-</tspan>
                        </text>
                    </g>
                </g>
                <g id="Ground-Copy-2" transform="translate(206.500000, 164.500000) rotate(-90.000000) translate(-206.500000, -164.500000) translate(187.500000, 148.000000)" stroke="#524740" stroke-width="2">
                    <path d="M12.5,17 L37.5,17" id="Path-2-Copy"></path>
                    <path d="M7,6.5 L7,26.5" id="Path-4"></path>
                    <path d="M1,13.5 L1,19.5" id="Path-4-Copy"></path>
                    <path d="M13,0 L13,33" id="Path-3-Copy"></path>
                </g>
                <path d="M405,90 L445,90" id="Path-16-Copy" stroke="#524740" stroke-width="2"></path>
                <path d="M515,90 L555,90" id="Path-16-Copy-3" stroke="#524740" stroke-width="2"></path>
                <path d="M355,90 L395,90" id="Path-16-Copy-2" stroke="#524740" stroke-width="2"></path>
                <path d="M61.978189,147.582019 L61.978189,129.489949" id="Path-21" stroke="#524740" stroke-width="2"></path>
                <path d="M206.978189,147.582019 L206.978189,129.489949" id="Path-21-Copy" stroke="#524740" stroke-width="2"></path>
            </g>
        </g>
    </g>
</svg>