<?xml version="1.0" encoding="UTF-8"?>
<svg width="368px" height="242px" viewBox="0 0 368 242" version="1.1" xmlns="http://www.w3.org/2000/svg" xmlns:xlink="http://www.w3.org/1999/xlink">
    <!-- Generator: Sketch 46 (44423) - http://www.bohemiancoding.com/sketch -->
    <title>Resistors_in_Series</title>
    <desc>Created with Sketch.</desc>
    <defs></defs>
    <g id="Page-1" stroke="none" stroke-width="1" fill="none" fill-rule="evenodd">
        <g id="Letter" transform="translate(-1546.000000, -144.000000)">
            <g id="Resistors_in_Series" transform="translate(1547.000000, 140.000000)">
                <polyline id="Path-2" stroke="#524740" stroke-width="2" points="308 56 366 56 366 168 223 168"></polyline>
                <polyline id="Path-2-Copy-2" stroke="#524740" stroke-width="2" transform="translate(71.500000, 112.000000) scale(-1, 1) translate(-71.500000, -112.000000) " points="85 56 143 56 143 168 0 168"></polyline>
                <text id="Source-Voltage-(V)" font-family="Lato-Regular, Lato" font-size="18" font-weight="normal" letter-spacing="0.695049465" fill="#524740">
                    <tspan x="106.204055" y="242">Source Voltage (V)</tspan>
                </text>
                <text id="R2" font-family="Lato-Regular, Lato" font-size="18" font-weight="normal" letter-spacing="0.695049465" fill="#524740">
                    <tspan x="172.946451" y="18">R2</tspan>
                </text>
                <text id="R1-Copy" font-family="Lato-Regular, Lato" font-size="18" font-weight="normal" letter-spacing="0.695049465" fill="#524740">
                    <tspan x="82.9464505" y="18">R1</tspan>
                </text>
                <text id="R3" font-family="Lato-Regular, Lato" font-size="18" font-weight="normal" letter-spacing="0.695049465" fill="#524740">
                    <tspan x="262.946451" y="18">R3</tspan>
                </text>
                <polyline id="Resistor" stroke="#524740" stroke-width="2" stroke-linejoin="bevel" points="148 56 153 56 158 43 168 69 178 43 188 69 198 43 208 69 213 56 218 56"></polyline>
                <polyline id="Resistor-Copy-3" stroke="#524740" stroke-width="2" stroke-linejoin="bevel" points="238 56 243 56 248 43 258 69 268 43 278 69 288 43 298 69 303 56 308 56"></polyline>
                <polyline id="Resistor-Copy-4" stroke="#524740" stroke-width="2" stroke-linejoin="bevel" points="58 56 63 56 68 43 78 69 88 43 98 69 108 43 118 69 123 56 128 56"></polyline>
                <g id="DC_Power" transform="translate(143.000000, 128.000000)">
                    <circle id="Oval" stroke="#524740" stroke-width="2" cx="40" cy="40" r="39"></circle>
                    <text id="+" font-family="Lato-Regular, Lato" font-size="18" font-weight="normal" letter-spacing="0.899999917" fill="#524740">
                        <tspan x="58.33" y="47">+</tspan>
                    </text>
                    <text id="-" font-family="Lato-Regular, Lato" font-size="18" font-weight="normal" letter-spacing="0.899999917" fill="#524740">
                        <tspan x="13.2065" y="46.5">-</tspan>
                    </text>
                </g>
                <path d="M128,56 L148,56" id="Path-4" stroke="#524740" stroke-width="2"></path>
                <path d="M218,56 L238,56" id="Path-4-Copy" stroke="#524740" stroke-width="2"></path>
                <path d="M218,56 L238,56" id="Path-4-Copy-2" stroke="#524740" stroke-width="2"></path>
            </g>
        </g>
    </g>
</svg>