<?xml version="1.0" encoding="UTF-8"?>
<svg width="365px" height="158px" viewBox="0 0 365 158" version="1.1" xmlns="http://www.w3.org/2000/svg" xmlns:xlink="http://www.w3.org/1999/xlink">
    <!-- Generator: Sketch 46.2 (44496) - http://www.bohemiancoding.com/sketch -->
    <title>Resistive_Sensor_Circuit</title>
    <desc>Created with Sketch.</desc>
    <defs></defs>
    <g id="Page-1" stroke="none" stroke-width="1" fill="none" fill-rule="evenodd">
        <g id="Desktop-HD" transform="translate(-2449.000000, -403.000000)">
            <g id="Resistive_Sensor_Circuit" transform="translate(2449.000000, 399.000000)">
                <g id="R1" transform="translate(76.000000, 24.000000)">
                    <polyline id="Resistor" stroke="#524740" stroke-width="2" stroke-linejoin="bevel" transform="translate(35.000000, 65.000000) rotate(-360.000000) translate(-35.000000, -65.000000) " points="0 65 5 65 10 52 20 78 30 52 40 78 50 52 60 78 65 65 70 65"></polyline>
                    <g id="Photoresistor" transform="translate(150.000000, 0.000000)">
                        <polyline id="Resistor-Copy" stroke="#524740" stroke-width="2" stroke-linejoin="bevel" points="10 65 15 65 20 52 30.5 78 40 52 50 78 60 52 70 78 75 65 80 65"></polyline>
                        <g id="Line" transform="translate(68.500000, 13.500000) rotate(-330.000000) translate(-68.500000, -13.500000) translate(66.000000, 0.000000)">
                            <polygon id="Triangle" fill="#524740" transform="translate(2.500000, 20.000000) scale(1, -1) translate(-2.500000, -20.000000) " points="2.5 13.5 5 26.5 0 26.5"></polygon>
                            <path d="M2.5,0 L2.5,20" id="Path-3" stroke="#524740" stroke-width="2"></path>
                        </g>
                        <g id="Line-Copy" transform="translate(78.500000, 19.500000) rotate(-330.000000) translate(-78.500000, -19.500000) translate(76.000000, 6.000000)">
                            <polygon id="Triangle" fill="#524740" transform="translate(2.500000, 20.000000) scale(1, -1) translate(-2.500000, -20.000000) " points="2.5 13.5 5 26.5 0 26.5"></polygon>
                            <path d="M2.5,0 L2.5,20" id="Path-3" stroke="#524740" stroke-width="2"></path>
                        </g>
                        <circle id="Oval" stroke="#524740" stroke-width="2" cx="45" cy="65" r="39"></circle>
                        <path d="M10,65 L0,65" id="Path-4" stroke="#524740" stroke-width="2"></path>
                        <path d="M90,65 L80,65" id="Path-4-Copy" stroke="#524740" stroke-width="2"></path>
                    </g>
                </g>
                <g id="R1" transform="translate(96.000000, 46.000000)" letter-spacing="0.695049465" font-size="18" font-family="Lato-Regular, Lato" fill="#524740" font-weight="normal">
                    <text>
                        <tspan x="0.446450535" y="18">R1</tspan>
                    </text>
                </g>
                <g id="R2" transform="translate(183.000000, 0.000000)" font-size="18" font-family="Lato-Regular, Lato" letter-spacing="0.695049465" fill="#524740" font-weight="normal">
                    <text id="R2-(Resistive-Sensor">
                        <tspan x="0.190005353" y="18">R2 (Resistive Sensor)</tspan>
                    </text>
                </g>
                <g id="Vin" transform="translate(0.000000, 77.000000)" letter-spacing="0.695049465" font-size="18" font-family="Lato-Regular, Lato" fill="#524740" font-weight="normal">
                    <text>
                        <tspan x="0.182425803" y="18">Vin</tspan>
                    </text>
                </g>
                <g id="Vout" transform="translate(172.000000, 143.000000)" letter-spacing="0.695049465" font-size="18" font-family="Lato-Regular, Lato" fill="#524740" font-weight="normal">
                    <text>
                        <tspan x="0.344901071" y="18">Vout</tspan>
                    </text>
                </g>
                <g id="Ground" transform="translate(345.500000, 89.500000) rotate(-180.000000) translate(-345.500000, -89.500000) translate(326.500000, 73.000000)" stroke="#524740" stroke-width="2">
                    <path d="M12.5,17 L37.5,17" id="Path-2-Copy"></path>
                    <path d="M7,6.5 L7,26.5" id="Path-4"></path>
                    <path d="M1,13.5 L1,19.5" id="Path-4-Copy"></path>
                    <path d="M13,0 L13,33" id="Path-3-Copy"></path>
                </g>
                <circle id="Oval-2-Copy-12" fill="#524740" cx="191" cy="89" r="5"></circle>
                <path d="M191,89 L191,141" id="Path-19" stroke="#524740" stroke-width="2"></path>
                <path d="M36,89 L76,89" id="Path-16" stroke="#524740" stroke-width="2"></path>
                <path d="M196,89 L236,89" id="Path-16-Copy" stroke="#524740" stroke-width="2"></path>
                <path d="M306,89 L346,89" id="Path-16-Copy-3" stroke="#524740" stroke-width="2"></path>
                <path d="M146,89 L186,89" id="Path-16-Copy-2" stroke="#524740" stroke-width="2"></path>
            </g>
        </g>
    </g>
</svg>