<?xml version="1.0" encoding="UTF-8"?>
<svg width="371px" height="227px" viewBox="0 0 371 227" version="1.1" xmlns="http://www.w3.org/2000/svg" xmlns:xlink="http://www.w3.org/1999/xlink">
    <!-- Generator: Sketch 46.2 (44496) - http://www.bohemiancoding.com/sketch -->
    <title>Voltage_Divider_Network</title>
    <desc>Created with Sketch.</desc>
    <defs></defs>
    <g id="Page-1" stroke="none" stroke-width="1" fill="none" fill-rule="evenodd">
        <g id="Desktop-HD" transform="translate(-1258.000000, -451.000000)">
            <g id="Voltage_Divider_Network" transform="translate(1256.000000, 446.000000)">
                <path d="M105.5,57.5 L105.5,87.5" id="Line-11-Copy-5" stroke="#B09679" stroke-width="3"></path>
                <path id="Line-11-Copy-5-decoration-1" d="M105.5,57.5 L108.5,68.3 L102.5,68.3 L105.5,57.5 Z" stroke="#B09679" stroke-width="3"></path>
                <path d="M367.5,214.5 L367.5,184.5" id="Line-11-Copy-10" stroke="#B09679" stroke-width="3"></path>
                <path id="Line-11-Copy-10-decoration-1" d="M367.5,214.5 L364.5,203.7 L370.5,203.7 L367.5,214.5 Z" stroke="#B09679" stroke-width="3"></path>
                <g id="R1" transform="translate(144.000000, 0.000000)">
                    <g id="V1" transform="translate(90.000000, 124.000000)" font-weight="normal" fill="#23ABE3">
                        <text id="V" font-family="Lato-Italic, Lato" font-size="18" font-style="italic" letter-spacing="0.695049465">
                            <tspan x="0.486975268" y="18">V</tspan>
                        </text>
                        <text id="1" font-family="Lato-Regular, Lato" font-size="12" letter-spacing="0.46336633">
                            <tspan x="8.78831684" y="21">1</tspan>
                        </text>
                    </g>
                    <polyline id="Resistor" stroke="#524740" stroke-width="2" stroke-linejoin="bevel" points="0 43 5 43 10 30 20 56 30 30 40 56 50 30 60 56 65 43 70 43"></polyline>
                    <g transform="translate(28.000000, 0.000000)" font-weight="normal" fill="#524740">
                        <text id="R" font-family="Lato-Italic, Lato" font-size="18" font-style="italic" letter-spacing="0.695049465">
                            <tspan x="0.400975268" y="18">R</tspan>
                        </text>
                        <text id="1" font-family="Lato-Regular, Lato" font-size="12" letter-spacing="0.46336633">
                            <tspan x="10.2883168" y="21">1</tspan>
                        </text>
                    </g>
                </g>
                <g id="R1-Copy" transform="translate(264.000000, 0.000000)">
                    <polyline id="Resistor" stroke="#524740" stroke-width="2" stroke-linejoin="bevel" points="0 43 5 43 10 30 20 56 30 30 40 56 50 30 60 56 65 43 70 43"></polyline>
                    <g id="R1" transform="translate(28.000000, 0.000000)" font-weight="normal" fill="#524740">
                        <text id="R" font-family="Lato-Italic, Lato" font-size="18" font-style="italic" letter-spacing="0.695049465">
                            <tspan x="0.400975268" y="18">R</tspan>
                        </text>
                        <text id="2" font-family="Lato-Regular, Lato" font-size="12" letter-spacing="0.46336633">
                            <tspan x="10.2883168" y="21">2</tspan>
                        </text>
                    </g>
                </g>
                <circle id="Oval-2-Copy-9" fill="#524740" cx="239" cy="43" r="5"></circle>
                <g id="DC_Power" transform="translate(0.000000, 95.000000)">
                    <g id="Group-2" transform="translate(79.000000, 0.000000)">
                        <circle id="Oval" stroke="#524740" stroke-width="2" cx="40" cy="40" r="39"></circle>
                        <text id="+" font-family="Lato-Regular, Lato" font-size="18" font-weight="normal" letter-spacing="0.899999917" fill="#524740">
                            <tspan x="35.33" y="21">+</tspan>
                        </text>
                        <text id="-" font-family="Lato-Regular, Lato" font-size="18" font-weight="normal" letter-spacing="0.899999917" fill="#524740">
                            <tspan x="37.2065" y="72.5">-</tspan>
                        </text>
                    </g>
                    <text id="Voltage-Source" font-family="Lato-Regular, Lato" font-size="18" font-weight="normal" letter-spacing="0.695049465" fill="#524740">
                        <tspan x="2.86282687" y="32">Voltage </tspan>
                        <tspan x="5.87885161" y="54">Source</tspan>
                    </text>
                    <g id="VS" transform="translate(111.000000, 29.000000)" font-weight="normal" fill="#23ABE3">
                        <text id="V" font-family="Lato-Italic, Lato" font-size="18" font-style="italic" letter-spacing="0.695049465">
                            <tspan x="0.486975268" y="18">V</tspan>
                        </text>
                        <text id="s" font-family="Lato-Regular, Lato" font-size="12" letter-spacing="0.46336633">
                            <tspan x="9.67031684" y="21">s</tspan>
                        </text>
                    </g>
                </g>
                <polyline id="Path-5" stroke="#524740" stroke-width="2" points="119 95 119 43 144 43"></polyline>
                <path d="M214,43 L264,43" id="Path-11" stroke="#524740" stroke-width="2"></path>
                <circle id="Oval-2-Copy-12" fill="#524740" cx="239" cy="227" r="5"></circle>
                <polyline id="Path-12-Copy-2" stroke="#524740" stroke-width="2" points="334 43 359 43 359 175"></polyline>
                <circle id="Oval-2-Copy-12" stroke="#524740" stroke-width="2" cx="239" cy="194" r="4"></circle>
                <circle id="Oval-2-Copy-14" stroke="#524740" stroke-width="2" cx="239" cy="77" r="4"></circle>
                <path d="M239,43 L239,74" id="Path-12" stroke="#524740" stroke-width="2"></path>
                <path d="M239,197 L239,228" id="Path-12-Copy-7" stroke="#524740" stroke-width="2"></path>
                <path d="M239,83 L239,119" id="Path-14" stroke="#23ABE3"></path>
                <polygon id="Triangle" fill="#23ABE3" points="239 82 242 88 236 88"></polygon>
                <path d="M239,152 L239,188" id="Path-14-Copy" stroke="#23ABE3"></path>
                <polygon id="Triangle-Copy" fill="#23ABE3" points="239 189 236 183 242 183"></polygon>
                <polyline id="Path-15" stroke="#524740" stroke-width="2" points="119 175 119 227 359 227 359 175"></polyline>
            </g>
        </g>
    </g>
</svg>