<?xml version="1.0" encoding="UTF-8"?>
<svg width="362px" height="132px" viewBox="0 0 362 132" version="1.1" xmlns="http://www.w3.org/2000/svg" xmlns:xlink="http://www.w3.org/1999/xlink">
    <!-- Generator: Sketch 46.2 (44496) - http://www.bohemiancoding.com/sketch -->
    <title>Voltage_Divider_Circuit_Calculated</title>
    <desc>Created with Sketch.</desc>
    <defs></defs>
    <g id="Page-1" stroke="none" stroke-width="1" fill="none" fill-rule="evenodd">
        <g id="Desktop-HD" transform="translate(-1962.000000, -659.000000)">
            <g id="Voltage_Divider_Circuit_Calculated" transform="translate(1961.000000, 655.000000)">
                <g id="R1" transform="translate(74.000000, 30.000000)" stroke-width="2" stroke="#524740" stroke-linejoin="bevel">
                    <polyline id="Resistor" transform="translate(35.000000, 13.000000) rotate(-360.000000) translate(-35.000000, -13.000000) " points="0 13 5 13 10 0 20 26 30 0 40 26 50 0 60 26 65 13 70 13"></polyline>
                    <polyline id="Resistor-Copy-8" transform="translate(195.000000, 13.000000) rotate(-360.000000) translate(-195.000000, -13.000000) " points="160 13 165 13 170 0 180 26 190 0 200 26 210 0 220 26 225 13 230 13"></polyline>
                </g>
                <g id="R1" transform="translate(81.000000, 0.000000)" font-size="18" font-family="Lato-Regular, Lato" letter-spacing="0.695049465" fill="#524740" font-weight="normal">
                    <text id="170立">
                        <tspan x="0.677901071" y="18">170立</tspan>
                    </text>
                </g>
                <g id="R2" transform="translate(245.000000, 0.000000)" font-size="18" font-family="Lato-Regular, Lato" letter-spacing="0.695049465" fill="#524740" font-weight="normal">
                    <text id="330立">
                        <tspan x="0.677901071" y="18">330立</tspan>
                    </text>
                </g>
                <g id="Vin" transform="translate(0.000000, 31.000000)" font-size="18" font-family="Lato-Regular, Lato" letter-spacing="0.695049465" fill="#524740" font-weight="normal">
                    <text id="5V">
                        <tspan x="0.491950535" y="18">5V</tspan>
                    </text>
                </g>
                <g id="Vout" transform="translate(165.000000, 97.000000)" font-size="18" font-family="Lato-Regular, Lato" letter-spacing="0.695049465" fill="#524740" font-weight="normal">
                    <text id="3.3V">
                        <tspan x="5.45290107" y="18">3.3V</tspan>
                    </text>
                    <text id="10mA">
                        <tspan x="0.174401071" y="38">10mA</tspan>
                    </text>
                </g>
                <g id="Ground" transform="translate(343.500000, 43.500000) rotate(-180.000000) translate(-343.500000, -43.500000) translate(324.500000, 27.000000)" stroke="#524740" stroke-width="2">
                    <path d="M12.5,17 L37.5,17" id="Path-2-Copy"></path>
                    <path d="M7,6.5 L7,26.5" id="Path-4"></path>
                    <path d="M1,13.5 L1,19.5" id="Path-4-Copy"></path>
                    <path d="M13,0 L13,33" id="Path-3-Copy"></path>
                </g>
                <circle id="Oval-2-Copy-12" fill="#524740" cx="189" cy="43" r="5"></circle>
                <path d="M189,43 L189,95" id="Path-19" stroke="#524740" stroke-width="2"></path>
                <path d="M34,43 L74,43" id="Path-16" stroke="#524740" stroke-width="2"></path>
                <path d="M194,43 L234,43" id="Path-16-Copy" stroke="#524740" stroke-width="2"></path>
                <path d="M304,43 L344,43" id="Path-16-Copy-3" stroke="#524740" stroke-width="2"></path>
                <path d="M144,43 L184,43" id="Path-16-Copy-2" stroke="#524740" stroke-width="2"></path>
            </g>
        </g>
    </g>
</svg>