<?xml version="1.0" encoding="UTF-8"?>
<svg width="80px" height="43px" viewBox="0 0 80 43" version="1.1" xmlns="http://www.w3.org/2000/svg" xmlns:xlink="http://www.w3.org/1999/xlink">
    <!-- Generator: Sketch 41.2 (35397) - http://www.bohemiancoding.com/sketch -->
    <title>White Mountain Footer Logo</title>
    <desc>Created with Sketch.</desc>
    <defs></defs>
    <g id="Page-1" stroke="none" stroke-width="1" fill="none" fill-rule="evenodd">
        <g id="Home-Page" transform="translate(-186.000000, -923.000000)" fill="#FFFFFF">
            <g id="Footer" transform="translate(139.000000, 891.000000)">
                <g id="MountainLogo-Copy" transform="translate(47.000000, 32.000000)">
                    <g id="White-Mountain-Footer-Logo">
                        <g id="Mountain" transform="translate(23.077703, 0.000000)">
                            <path d="M33.3925027,28.6791229 L32.2964457,31.3973001 L27.9377351,24.037069 L14.8757295,21.2689597 L11.0986893,24.5204674 C11.0986893,24.5204674 10.6447888,24.9612623 10.2211823,24.9544032 C9.79757587,24.9475442 9.24377029,24.4862539 9.24377029,24.4862539 L6.17925283,22.3088787 L1.34730983,31.3984841 L0.0900247935,28.8381871 L14.657302,1.31922047 C14.657302,1.31922047 15.0280878,0.32335436 15.8959697,0.322047878 C16.7638516,0.320741396 17.1660746,1.33314267 17.1660746,1.33314267 L33.3925027,28.6791229 Z" id="Path-3"></path>
                            <path d="M15.9445545,3.87686363 L26.3033258,21.2999682 L14.7454896,18.8653181 C14.7454896,18.8653181 14.4623504,18.841434 14.2653369,18.8754842 C14.0683235,18.9095344 13.8706772,19.065659 13.8706772,19.065659 L10.1351995,22.2872809 L7.27700414,20.2223653 L15.9445545,3.87686363 Z" id="Path-4"></path>
                        </g>
                        <g id="L.Tree" transform="translate(0.000000, 8.695946)">
                            <path d="M25.9866875,29.6141968 C25.9866875,29.6141968 26.6488087,29.6095016 26.9654673,29.0303829 C27.2821259,28.4512643 27.0329144,27.9749086 27.0329144,27.9749086 L13.6377355,0.765169917 C13.6377355,0.765169917 13.4112446,0.186929033 12.6133922,0.186929033 C11.8155398,0.186929033 11.5992353,0.765169917 11.5992353,0.765169917 L0.364406483,27.8193147 C0.364406483,27.8193147 0.117807955,28.5204466 0.458432378,29.0540221 C0.799056801,29.5875976 1.39895671,29.6111347 1.39895671,29.6111347 L12.2672152,29.6085422 L12.2672152,32.2212821 C12.2672152,32.2212821 12.3009184,33.3698434 13.4579513,33.3768249 C14.6149843,33.3838064 14.6149843,32.2090134 14.6149843,32.2090134 L14.6149843,29.6130332 L25.9866875,29.6141968 Z" id="Path-5"></path>
                            <polygon id="Path-2" points="12.7168288 4.18862296 24.0768554 27.2726948 3.12398282 27.2726948"></polygon>
                        </g>
                        <g id="R.Tree" transform="translate(52.844595, 8.695946)">
                            <path d="M25.9866875,29.6141968 C25.9866875,29.6141968 26.6488087,29.6095016 26.9654673,29.0303829 C27.2821259,28.4512643 27.0329144,27.9749086 27.0329144,27.9749086 L13.6377355,0.765169917 C13.6377355,0.765169917 13.4112446,0.186929033 12.6133922,0.186929033 C11.8155398,0.186929033 11.5992353,0.765169917 11.5992353,0.765169917 L0.364406483,27.8193147 C0.364406483,27.8193147 0.117807955,28.5204466 0.458432378,29.0540221 C0.799056801,29.5875976 1.39895671,29.6111347 1.39895671,29.6111347 L12.2672152,29.6085422 L12.2672152,32.2212821 C12.2672152,32.2212821 12.3009184,33.3698434 13.4579513,33.3768249 C14.6149843,33.3838064 14.6149843,32.2090134 14.6149843,32.2090134 L14.6149843,29.6130332 L25.9866875,29.6141968 Z" id="Path-5"></path>
                            <polygon id="Path-2" points="12.7168288 4.18862296 24.0768554 27.2726948 3.12398282 27.2726948"></polygon>
                        </g>
                    </g>
                </g>
            </g>
        </g>
    </g>
</svg>