<?xml version="1.0" encoding="UTF-8"?>
<svg width="70px" height="47px" viewBox="0 0 70 47" version="1.1" xmlns="http://www.w3.org/2000/svg" xmlns:xlink="http://www.w3.org/1999/xlink">
    <!-- Generator: Sketch 48.2 (47327) - http://www.bohemiancoding.com/sketch -->
    <title>NF_Small_Logo</title>
    <desc>Created with Sketch.</desc>
    <defs></defs>
    <g id="Netduino.Foundation-Web-Site-Home" stroke="none" stroke-width="1" fill="none" fill-rule="evenodd" transform="translate(-161.000000, -18.000000)">
        <g id="Nav">
            <g id="NF_Small_Logo" transform="translate(161.000000, 17.000000)">
                <rect id="Rectangle-3" fill="#EEEEEE" x="0" y="1" width="70" height="47" rx="5"></rect>
                <path d="M12.9667969,35 L9.80273438,35 L9.80273438,13.2207031 C9.80273438,12.0371035 10.0400367,11.1289094 10.5146484,10.4960938 C10.9892602,9.86327809 11.6660112,9.546875 12.5449219,9.546875 C13.1660187,9.546875 13.7255834,9.75195107 14.2236328,10.1621094 C14.7216822,10.5722677 15.1816385,11.2050738 15.6035156,12.0605469 L24.6738281,30.9042969 L24.6738281,9.828125 L27.8730469,9.828125 L27.8730469,31.6953125 C27.8730469,32.8437557 27.6386742,33.7402312 27.1699219,34.3847656 C26.7011695,35.0293001 26.0507854,35.3515625 25.21875,35.3515625 C24.5624967,35.3515625 23.9736354,35.1435568 23.4521484,34.7275391 C22.9306615,34.3115214 22.4707051,33.6816448 22.0722656,32.8378906 L12.9667969,13.8710938 L12.9667969,35 Z M41.3144531,35 L41.3144531,18.5820312 C41.3144531,15.6288915 42.0468677,13.4316478 43.5117188,11.9902344 C44.9765698,10.5488209 47.2089694,9.828125 50.2089844,9.828125 L53.7949219,9.828125 L53.7949219,12.9394531 L49.6289062,12.9394531 C48.0234295,12.9394531 46.7871137,13.3818315 45.9199219,14.2666016 C45.05273,15.1513716 44.6191406,16.4199136 44.6191406,18.0722656 L44.6191406,20.8847656 L53.7949219,20.8847656 L53.7949219,23.9785156 L44.6191406,23.9785156 L44.6191406,35 L41.3144531,35 Z" id="N-F-Copy" fill="#524740"></path>
                <circle id="Oval-2-Copy-2" stroke="#524740" stroke-width="3" cx="55.75" cy="31.25" r="2.75"></circle>
                <circle id="Oval-2-Copy-4" stroke="#524740" stroke-width="3" cx="34.75" cy="31.25" r="2.75"></circle>
                <path d="M11.4025281,34.472755 C11.3978328,35.6016262 11.7383922,36.5552431 12.4242065,37.3336057 C13.1100208,38.1119683 13.9980388,38.5526653 15.0882603,38.6556966 L52.6282586,38.6556966 C53.8155749,38.6945796 54.6968374,38.381347 55.2720462,37.7159986 C55.8472551,37.0506503 56.0859999,36.1218753 55.9882807,34.9296736" id="Path-4" stroke="#524740" stroke-width="3"></path>
            </g>
        </g>
    </g>
</svg>