<svg id="Layer_1" data-name="Layer 1" xmlns="http://www.w3.org/2000/svg" viewBox="0 0 45.1 40"><defs><style>.cls-1{fill:#7cc08e;}</style></defs><title>check-green</title><path id="Check" class="cls-1" d="M7,31.28a18.58,18.58,0,0,1,5-14.34,19,19,0,0,1,28.73,1L49.3,9.49a1.6,1.6,0,1,1,2.27,2.26l-24,23.88a1.54,1.54,0,0,1-1.16.46h0a1.8,1.8,0,0,1-1.15-.46l-7.87-8a1.56,1.56,0,0,1,0-2.27,1.61,1.61,0,0,1,2.27,0l6.8,6.8,12-11.93a15.85,15.85,0,1,0,3.1,12.17A14.17,14.17,0,0,0,41.76,30,1.62,1.62,0,1,1,45,30a20.53,20.53,0,0,1-.24,2.92A19.16,19.16,0,0,1,25.89,49a12.18,12.18,0,0,1-1.35,0A19.17,19.17,0,0,1,7,31.28Z" transform="translate(-6.95 -9)"/></svg>