<?xml version="1.0" encoding="UTF-8"?>
<svg width="700px" height="450px" viewBox="0 0 700 450" version="1.1" xmlns="http://www.w3.org/2000/svg" xmlns:xlink="http://www.w3.org/1999/xlink">
    <!-- Generator: Sketch 48.2 (47327) - http://www.bohemiancoding.com/sketch -->
    <title>PID_Integral_Approximation</title>
    <desc>Created with Sketch.</desc>
    <defs></defs>
    <g id="Desktop-HD" stroke="none" stroke-width="1" fill="none" fill-rule="evenodd" transform="translate(-847.000000, -1136.000000)">
        <g id="PID_Integral_Approximation" transform="translate(847.000000, 1136.000000)">
            <rect id="Rectangle-3" fill="#EEEEEE" x="0" y="0" width="700" height="450"></rect>
            <text id="Time-(x-=-t)" font-family="Roboto-Regular, Roboto" font-size="18" font-weight="normal" fill="#555555">
                <tspan x="319.560547" y="433">Time (x = t)</tspan>
            </text>
            <g id="Axis" transform="translate(11.000000, 54.000000)">
                <path d="M92,340 L622,340" id="Line" stroke="#555555" stroke-width="2" stroke-linecap="square"></path>
                <path d="M92,100 L622,100" id="Line-Copy-3" stroke="#555555" stroke-linecap="square" stroke-dasharray="2,5"></path>
                <path d="M81,314 L91,314" id="Line-Copy" stroke="#555555" stroke-width="2" stroke-linecap="square"></path>
                <path d="M91,340 L91,0" id="Line-2" stroke="#555555" stroke-width="2" stroke-linecap="square"></path>
                <text id="100ºC" font-family="RobotoCondensed-Regular, Roboto Condensed" font-size="18" font-style="condensed" font-weight="normal" fill="#23ABEC">
                    <tspan x="30.8876953" y="17">100ºC</tspan>
                </text>
                <text id="20ºC" font-family="RobotoCondensed-Regular, Roboto Condensed" font-size="18" font-style="condensed" font-weight="normal" fill="#23ABEC">
                    <tspan x="38.7734375" y="320">20ºC</tspan>
                </text>
                <g id="Group" transform="translate(41.000000, 285.000000)">
                    <path d="M40,8 L581,8" id="Line-Copy-16" stroke="#555555" stroke-linecap="square" stroke-dasharray="2,5"></path>
                    <text id="24ºC" font-family="RobotoCondensed-Regular, Roboto Condensed" font-size="16" font-style="condensed" font-weight="normal" fill="#524740">
                        <tspan x="0.6875" y="15">24ºC</tspan>
                    </text>
                </g>
                <g id="Group-Copy" transform="translate(41.000000, 225.000000)">
                    <path d="M40,8 L581,8" id="Line-Copy-16" stroke="#555555" stroke-linecap="square" stroke-dasharray="2,5"></path>
                    <text id="38ºC" font-family="RobotoCondensed-Regular, Roboto Condensed" font-size="16" font-style="condensed" font-weight="normal" fill="#524740">
                        <tspan x="0.6875" y="15">38ºC</tspan>
                    </text>
                </g>
                <g id="Group-Copy-2" transform="translate(41.000000, 114.000000)">
                    <path d="M40,8 L581,8" id="Line-Copy-16" stroke="#555555" stroke-linecap="square" stroke-dasharray="2,5"></path>
                    <text id="70ºC" font-family="RobotoCondensed-Regular, Roboto Condensed" font-size="16" font-style="condensed" font-weight="normal" fill="#524740">
                        <tspan x="0.6875" y="15">70ºC</tspan>
                    </text>
                </g>
                <g id="Group-Copy-8" transform="translate(41.000000, 72.000000)">
                    <path d="M40,8 L581,8" id="Line-Copy-16" stroke="#555555" stroke-linecap="square" stroke-dasharray="2,5"></path>
                    <text id="80ºC" font-family="RobotoCondensed-Regular, Roboto Condensed" font-size="16" font-style="condensed" font-weight="normal" fill="#524740">
                        <tspan x="0.6875" y="15">80ºC</tspan>
                    </text>
                </g>
                <g id="Group-Copy-7" transform="translate(0.000000, 101.000000)">
                    <path d="M36,8 L622,8" id="Line-Copy-16" stroke="#555555" stroke-linecap="square" stroke-dasharray="2,5"></path>
                    <text id="73ºC" font-family="RobotoCondensed-Regular, Roboto Condensed" font-size="16" font-style="condensed" font-weight="normal" fill="#524740">
                        <tspan x="0.6875" y="15">73ºC</tspan>
                    </text>
                </g>
                <g id="Group-Copy-3" transform="translate(41.000000, 51.000000)">
                    <path d="M40,8 L581,8" id="Line-Copy-16" stroke="#555555" stroke-linecap="square" stroke-dasharray="2,5"></path>
                    <text id="86ºC" font-family="RobotoCondensed-Regular, Roboto Condensed" font-size="16" font-style="condensed" font-weight="normal" fill="#524740">
                        <tspan x="0.6875" y="15">86ºC</tspan>
                    </text>
                </g>
                <g id="Group-Copy-6" transform="translate(0.000000, 40.000000)">
                    <path d="M36,8 L622,8" id="Line-Copy-16" stroke="#555555" stroke-linecap="square" stroke-dasharray="2,5"></path>
                    <text id="88ºC" font-family="RobotoCondensed-Regular, Roboto Condensed" font-size="16" font-style="condensed" font-weight="normal" fill="#524740">
                        <tspan x="0.6875" y="15">88ºC</tspan>
                    </text>
                </g>
                <g id="Group-Copy-4" transform="translate(41.000000, 19.000000)">
                    <path d="M40,8 L581,8" id="Line-Copy-16" stroke="#555555" stroke-linecap="square" stroke-dasharray="2,5"></path>
                    <text id="97ºC" font-family="RobotoCondensed-Regular, Roboto Condensed" font-size="16" font-style="condensed" font-weight="normal" fill="#524740">
                        <tspan x="0.6875" y="15">97ºC</tspan>
                    </text>
                </g>
                <g id="Group-Copy-5" transform="translate(0.000000, 13.000000)">
                    <path d="M36,8 L622,8" id="Line-Copy-16" stroke="#555555" stroke-linecap="square" stroke-dasharray="2,5"></path>
                    <text id="98ºC" font-family="RobotoCondensed-Regular, Roboto Condensed" font-size="16" font-style="condensed" font-weight="normal" fill="#524740">
                        <tspan x="0.6875" y="15">98ºC</tspan>
                    </text>
                </g>
                <path d="M81,11 L91,11" id="Line-Copy-2" stroke="#555555" stroke-width="2" stroke-linecap="square"></path>
                <text id="75ºC" font-family="RobotoCondensed-Regular, Roboto Condensed" font-size="18" font-style="condensed" font-weight="normal" fill="#23ABEC">
                    <tspan x="39.7734375" y="106">75ºC</tspan>
                </text>
                <path d="M81,100 L91,100" id="Line-Copy-4" stroke="#555555" stroke-width="2" stroke-linecap="square"></path>
            </g>
            <g id="t1" transform="translate(148.000000, 34.000000)" fill="#23ABEC" font-family="RobotoCondensed-Regular, Roboto Condensed" font-style="condensed" font-weight="normal">
                <text id="t" font-size="18">
                    <tspan x="0.682617188" y="17">t</tspan>
                </text>
                <text id="1" font-size="13">
                    <tspan x="5.58251953" y="22">1</tspan>
                </text>
            </g>
            <g id="t10" transform="translate(238.000000, 34.000000)" fill="#23ABEC" font-family="RobotoCondensed-Regular, Roboto Condensed" font-style="condensed" font-weight="normal">
                <text id="t" font-size="18">
                    <tspan x="0.682617188" y="17">t</tspan>
                </text>
                <text id="10" font-size="13">
                    <tspan x="5.16503906" y="22">10</tspan>
                </text>
            </g>
            <text id="..." font-family="RobotoCondensed-Regular, Roboto Condensed" font-size="18" font-style="condensed" font-weight="normal" fill="#23ABEC">
                <tspan x="190.788086" y="51">...</tspan>
            </text>
            <g id="Time-slices" transform="translate(85.000000, 64.000000)">
                <path d="M-107,175 L243,175" id="Line-Copy-7" stroke="#555555" stroke-linecap="square" stroke-dasharray="2,5" transform="translate(68.000000, 175.000000) rotate(-270.000000) translate(-68.000000, -175.000000) "></path>
                <path d="M-117,175 L233,175" id="Line-Copy-17" stroke="#555555" stroke-linecap="square" stroke-dasharray="2,5" transform="translate(58.000000, 175.000000) rotate(-270.000000) translate(-58.000000, -175.000000) "></path>
                <g id="Group-2" transform="translate(0.000000, 334.000000)">
                    <polygon id="Triangle-Copy-2" fill="#555555" points="57.9047619 10 49 15.5 49 4.5"></polygon>
                    <path d="M55.304658,10 L38.0046588,10" id="Path-5" stroke="#555555" stroke-width="2"></path>
                    <text id="1min" font-family="RobotoCondensed-Regular, Roboto Condensed" font-size="16" font-style="condensed" font-weight="normal" fill="#524740">
                        <tspan x="0.65625" y="15">1min</tspan>
                    </text>
                </g>
                <g id="Group-2-Copy" transform="translate(78.000000, 344.000000) rotate(-180.000000) translate(-78.000000, -344.000000) translate(68.000000, 338.000000)">
                    <polygon id="Triangle-Copy-2" fill="#555555" points="19.9047619 6 11 11.5 11 0.5"></polygon>
                    <path d="M17.304658,6 L0.00465879498,6" id="Path-5" stroke="#555555" stroke-width="2"></path>
                </g>
                <path d="M-87,165 L243,165" id="Line-Copy-8" stroke="#555555" stroke-linecap="square" stroke-dasharray="2,5" transform="translate(78.000000, 165.000000) rotate(-270.000000) translate(-78.000000, -165.000000) "></path>
                <path d="M-77,165 L253,165" id="Line-Copy-9" stroke="#555555" stroke-linecap="square" stroke-dasharray="2,5" transform="translate(88.000000, 165.000000) rotate(-270.000000) translate(-88.000000, -165.000000) "></path>
                <path d="M-67,165 L263,165" id="Line-Copy-10" stroke="#555555" stroke-linecap="square" stroke-dasharray="2,5" transform="translate(98.000000, 165.000000) rotate(-270.000000) translate(-98.000000, -165.000000) "></path>
                <path d="M-57,165 L273,165" id="Line-Copy-11" stroke="#555555" stroke-linecap="square" stroke-dasharray="2,5" transform="translate(108.000000, 165.000000) rotate(-270.000000) translate(-108.000000, -165.000000) "></path>
                <path d="M-47,165 L283,165" id="Line-Copy-12" stroke="#555555" stroke-linecap="square" stroke-dasharray="2,5" transform="translate(118.000000, 165.000000) rotate(-270.000000) translate(-118.000000, -165.000000) "></path>
                <path d="M-37,165 L293,165" id="Line-Copy-13" stroke="#555555" stroke-linecap="square" stroke-dasharray="2,5" transform="translate(128.000000, 165.000000) rotate(-270.000000) translate(-128.000000, -165.000000) "></path>
                <path d="M-27,165 L303,165" id="Line-Copy-14" stroke="#555555" stroke-linecap="square" stroke-dasharray="2,5" transform="translate(138.000000, 165.000000) rotate(-270.000000) translate(-138.000000, -165.000000) "></path>
                <path d="M-17,165 L313,165" id="Line-Copy-15" stroke="#555555" stroke-linecap="square" stroke-dasharray="2,5" transform="translate(148.000000, 165.000000) rotate(-270.000000) translate(-148.000000, -165.000000) "></path>
                <path d="M-7,165 L323,165" id="Line-Copy-6" stroke="#555555" stroke-linecap="square" stroke-dasharray="2,5" transform="translate(158.000000, 165.000000) rotate(-270.000000) translate(-158.000000, -165.000000) "></path>
            </g>
            <text id="Temperature" transform="translate(22.500000, 241.500000) rotate(-270.000000) translate(-22.500000, -241.500000) " font-family="Roboto-Regular, Roboto" font-size="18" font-weight="normal" fill="#555555">
                <tspan x="-28.9995117" y="248">Temperature</tspan>
            </text>
            <polyline id="Reference" stroke="#7ED321" stroke-width="2" points="103 394 143 394 143 154 633 154"></polyline>
            <rect id="Rectangle-Copy" stroke="#524740" fill="#23ABE3" x="143" y="346" width="10" height="49"></rect>
            <rect id="Rectangle-Copy-2" stroke="#524740" fill="#23ABE3" x="153" y="286" width="10" height="109"></rect>
            <rect id="Rectangle-Copy-3" stroke="#524740" fill="#23ABE3" x="163" y="175" width="10" height="220"></rect>
            <rect id="Rectangle-Copy-4" stroke="#524740" fill="#23ABE3" x="173" y="112" width="10" height="283"></rect>
            <rect id="Rectangle-Copy-5" stroke="#524740" fill="#23ABE3" x="183" y="80" width="10" height="315"></rect>
            <rect id="Rectangle-Copy-6" stroke="#524740" fill="#23ABE3" x="193" y="75" width="10" height="320"></rect>
            <rect id="Rectangle-Copy-7" stroke="#524740" fill="#23ABE3" x="203" y="80" width="10" height="315"></rect>
            <rect id="Rectangle-Copy-8" stroke="#524740" fill="#23ABE3" x="213" y="102" width="10" height="293"></rect>
            <rect id="Rectangle-Copy-9" stroke="#524740" fill="#23ABE3" x="223" y="134" width="10" height="261"></rect>
            <rect id="Rectangle-Copy-10" stroke="#524740" fill="#23ABE3" x="233" y="163" width="10" height="232"></rect>
            <path d="M103,358 L142.900385,358 C146.729882,356.798591 150.208259,352.06398 153.335518,343.796166 C170.059532,299.581395 171.58983,74.9937182 200.281012,74.9937182 C228.972194,74.9937182 241.755431,212.164081 274.57464,212.164081 C307.39385,212.164081 319.508617,97.8170025 348.11245,97.8170025 C376.716284,97.8170025 393.194742,179.168348 421.671478,179.168348 C450.148215,179.168348 470.516052,127.684743 495.354055,127.684743 C508.138569,127.684743 542.41606,162.657537 563.175198,162.657537 C583.934337,162.657537 622.489676,145 631.078243,145" id="Proportional" stroke="#B09679" stroke-width="3"></path>
            <circle id="Oval" stroke="#EEEEEE" fill="#555555" cx="153" cy="346" r="2"></circle>
            <circle id="Oval-Copy" stroke="#EEEEEE" fill="#555555" cx="163" cy="286" r="2"></circle>
            <circle id="Oval-Copy-2" stroke="#EEEEEE" fill="#555555" cx="173" cy="175" r="2"></circle>
            <circle id="Oval-Copy-3" stroke="#EEEEEE" fill="#555555" cx="183" cy="112" r="2"></circle>
            <circle id="Oval-Copy-4" stroke="#EEEEEE" fill="#555555" cx="193" cy="80" r="2"></circle>
            <circle id="Oval-Copy-5" stroke="#EEEEEE" fill="#555555" cx="203" cy="75" r="2"></circle>
            <circle id="Oval-Copy-6" stroke="#EEEEEE" fill="#555555" cx="213" cy="80" r="2"></circle>
            <circle id="Oval-Copy-7" stroke="#EEEEEE" fill="#555555" cx="223" cy="102" r="2"></circle>
            <circle id="Oval-Copy-8" stroke="#EEEEEE" fill="#555555" cx="233" cy="134" r="2"></circle>
            <circle id="Oval-Copy-9" stroke="#EEEEEE" fill="#555555" cx="243" cy="163" r="2"></circle>
        </g>
    </g>
</svg>