<?xml version="1.0" standalone="no"?>
<!DOCTYPE svg PUBLIC "-//W3C//DTD SVG 1.1//EN" "http://www.w3.org/Graphics/SVG/1.1/DTD/svg11.dtd" >
<svg xmlns="http://www.w3.org/2000/svg" xmlns:xlink="http://www.w3.org/1999/xlink" version="1.1">
<metadata>
Created by FontForge 20170910 at Wed May 31 11:04:30 2017
 By Jimmy Wärting
Copyright \(c\) 2017 by Graham Paterson. All rights reserved.
</metadata>
<defs>
<font id="Wavehaus-28Thin" horiz-adv-x="653" >
  <font-face 
    font-family="Wavehaus 28 Thin"
    font-weight="300"
    font-stretch="normal"
    units-per-em="1000"
    panose-1="0 0 4 0 0 0 0 0 0 0"
    ascent="800"
    descent="-200"
    x-height="500"
    cap-height="672"
    bbox="-20 -242 1070 783"
    underline-thickness="50"
    underline-position="-100"
    unicode-range="U+0020-2212"
  />
<missing-glyph horiz-adv-x="491" 
d="M402 745v-981h-311v981h311zM327 679h-162v-32h64v-36h-65v-33h163v33h-65v36h65v32zM262 553h-98v-102h163v33h-65v69zM229 519v-35h-33v35h33zM327 424h-163v-32h65v-36h-65v-33h98v69h65v32zM327 365h-33v-64h-130v-34h163v98zM327 246h-98v-55h33v22h32v-46h-98v79
h-32v-111h163v111zM327 76h-163v-111h163v111zM294 44v-47h-98v47h98zM327 -57h-163v-33h68l-68 -46v-32h163v32h-100l68 46h32v33z" />
    <glyph glyph-name=".notdef" horiz-adv-x="491" 
d="M402 745v-981h-311v981h311zM327 679h-162v-32h64v-36h-65v-33h163v33h-65v36h65v32zM262 553h-98v-102h163v33h-65v69zM229 519v-35h-33v35h33zM327 424h-163v-32h65v-36h-65v-33h98v69h65v32zM327 365h-33v-64h-130v-34h163v98zM327 246h-98v-55h33v22h32v-46h-98v79
h-32v-111h163v111zM327 76h-163v-111h163v111zM294 44v-47h-98v47h98zM327 -57h-163v-33h68l-68 -46v-32h163v32h-100l68 46h32v33z" />
    <glyph glyph-name="A" unicode="A" horiz-adv-x="682" 
d="M612 0l-102 240h-338l-102 -240h-28l285 672h28l285 -672h-28zM184 268h314l-157 371z" />
    <glyph glyph-name="B" unicode="B" horiz-adv-x="618" 
d="M85 0v672h220c149 0 238 -78 238 -175c0 -72 -49 -134 -137 -161c88 -26 137 -89 137 -161c0 -97 -89 -175 -238 -175h-220zM113 350h192c130 0 207 66 207 147c0 82 -77 148 -207 148l-192 -1v-294zM113 28h192c130 0 207 66 207 147s-77 147 -207 147h-192v-294z" />
    <glyph glyph-name="C" unicode="C" horiz-adv-x="708" 
d="M370 -8c-199 0 -318 154 -318 343c0 190 119 344 318 344c138 0 237 -73 286 -181l-29 -13c-44 99 -133 166 -257 166c-179 0 -286 -142 -286 -316s107 -316 286 -316c124 0 214 68 257 167l29 -14c-49 -107 -148 -180 -286 -180z" />
    <glyph glyph-name="D" unicode="D" horiz-adv-x="645" 
d="M85 0v672h135c234 0 373 -150 373 -336c0 -185 -139 -336 -373 -336h-135zM113 28h107c214 0 342 138 342 308s-128 308 -342 308h-107v-616z" />
    <glyph glyph-name="E" unicode="E" horiz-adv-x="585" 
d="M500 644h-387v-285h221v-28h-221v-303h387v-28h-415v672h415v-28z" />
    <glyph glyph-name="F" unicode="F" horiz-adv-x="505" 
d="M440 644h-327v-285h221v-28h-221v-331h-28v672h355v-28z" />
    <glyph glyph-name="G" unicode="G" horiz-adv-x="771" 
d="M371 -8c-199 0 -319 154 -319 343c0 190 120 344 319 344c138 0 237 -73 286 -181l-29 -13c-44 99 -133 166 -257 166c-179 0 -286 -142 -286 -316s107 -316 286 -316c170 0 275 127 286 288h-242v28h271v-335h-29v174c-48 -108 -147 -182 -286 -182z" />
    <glyph glyph-name="H" unicode="H" horiz-adv-x="608" 
d="M495 672h28v-672h-28v310h-382v-310h-28v672h28v-334h382v334z" />
    <glyph glyph-name="I" unicode="I" horiz-adv-x="198" 
d="M85 0v672h28v-672h-28z" />
    <glyph glyph-name="J" unicode="J" horiz-adv-x="451" 
d="M211 -8c-92 0 -146 74 -159 132l27 7c13 -53 59 -111 132 -111c94 0 127 65 127 126v520h28v-520c0 -82 -51 -154 -155 -154z" />
    <glyph glyph-name="K" unicode="K" horiz-adv-x="599" 
d="M514 672l-262 -318l257 -354h-36l-240 331l-120 -146v-185h-28v672h28v-444l364 444h37z" />
    <glyph glyph-name="L" unicode="L" horiz-adv-x="525" 
d="M113 28h327v-28h-355v672h28v-644z" />
    <glyph glyph-name="M" unicode="M" horiz-adv-x="864" 
d="M652 672l170 -672h-28l-157 619l-1 2l-190 -621h-29l-190 619l-157 -619h-28l169 672h28l193 -622l192 622h28z" />
    <glyph glyph-name="N" unicode="N" horiz-adv-x="660" 
d="M547 672h28v-672h-30l-432 631v-631h-28v672h30l432 -631v631z" />
    <glyph glyph-name="O" unicode="O" horiz-adv-x="738" 
d="M369 -8c-200 0 -317 154 -317 343c0 190 117 344 317 344s317 -154 317 -344c0 -189 -117 -343 -317 -343zM369 19c179 0 289 142 289 316s-110 316 -289 316s-288 -142 -288 -316s109 -316 288 -316z" />
    <glyph glyph-name="P" unicode="P" horiz-adv-x="608" 
d="M85 0v672h220c149 0 238 -89 238 -200c0 -110 -89 -200 -238 -200h-192v-272h-28zM113 300h192c129 0 207 77 207 172s-78 172 -207 172h-192v-344z" />
    <glyph glyph-name="Q" unicode="Q" horiz-adv-x="748" 
d="M678 -9l-94 80c-53 -50 -125 -79 -213 -79c-200 0 -319 153 -319 343s119 343 319 343s319 -153 319 -343c0 -96 -31 -182 -86 -244l92 -79zM371 19c78 0 142 27 190 71l-90 77l18 21l91 -78c50 58 77 137 77 225c0 174 -107 315 -286 315c-180 0 -287 -141 -287 -315
c0 -175 107 -316 287 -316z" />
    <glyph glyph-name="R" unicode="R" horiz-adv-x="618" 
d="M85 0v672h220c149 0 238 -89 238 -200c0 -90 -59 -166 -162 -191l162 -281h-32l-159 275l-47 -3h-192v-272h-28zM113 300h192c129 0 207 77 207 172s-78 172 -207 172h-192v-344z" />
    <glyph glyph-name="S" unicode="S" horiz-adv-x="521" 
d="M269 -8c-87 0 -171 47 -213 93l20 19c30 -32 104 -84 193 -84c108 0 172 51 172 135c0 193 -389 142 -389 361c0 79 53 163 200 163c87 0 171 -47 213 -93l-20 -19c-33 35 -108 84 -193 84c-108 0 -172 -51 -172 -135c0 -194 389 -142 389 -361c0 -79 -53 -163 -200 -163
z" />
    <glyph glyph-name="T" unicode="T" horiz-adv-x="662" 
d="M610 672v-28h-265v-644h-28v644h-265v28h558z" />
    <glyph glyph-name="U" unicode="U" horiz-adv-x="694" 
d="M347 -8c-144 0 -262 97 -262 260v420h28v-420c0 -145 105 -232 234 -232s234 87 234 232v420h28v-420c0 -163 -117 -260 -262 -260z" />
    <glyph glyph-name="V" unicode="V" horiz-adv-x="672" 
d="M602 672h28l-280 -672h-28l-280 672h28l266 -638z" />
    <glyph glyph-name="W" unicode="W" horiz-adv-x="1112" 
d="M1042 672h28l-250 -672h-28l-236 634l-236 -634h-28l-250 672h28l236 -635l236 635h28l236 -635z" />
    <glyph glyph-name="X" unicode="X" horiz-adv-x="656" 
d="M571 0h-32l-211 316l-211 -316h-32l227 340l-222 332h32l206 -308l206 308h32l-222 -332z" />
    <glyph glyph-name="Y" unicode="Y" horiz-adv-x="559" 
d="M483 672h34l-223 -336v-336h-28v336l-224 336h34l204 -309z" />
    <glyph glyph-name="Z" unicode="Z" horiz-adv-x="616" 
d="M531 672v-22l-417 -624h417v-26h-446v23l417 623h-417v26h446z" />
    <glyph glyph-name="a" unicode="a" 
d="M540 500h28v-500h-28v133c-43 -83 -130 -141 -230 -141c-143 0 -258 116 -258 258c0 143 115 258 258 258c100 0 187 -57 230 -141v133zM310 20c127 0 230 103 230 230s-103 230 -230 230s-231 -103 -231 -230s104 -230 231 -230z" />
    <glyph glyph-name="b" unicode="b" 
d="M343 508c143 0 258 -115 258 -258c0 -142 -115 -258 -258 -258c-100 0 -187 58 -230 141v-133h-28v744h28v-377c43 84 130 141 230 141zM343 20c127 0 230 103 230 230s-103 230 -230 230s-230 -103 -230 -230s103 -230 230 -230z" />
    <glyph glyph-name="c" unicode="c" horiz-adv-x="579" 
d="M310 -8c-143 0 -258 116 -258 258c0 143 115 258 258 258c91 0 171 -47 217 -118l-26 -12c-41 62 -111 102 -191 102c-127 0 -230 -103 -230 -230s103 -230 230 -230c80 0 150 40 191 102l26 -12c-46 -71 -126 -118 -217 -118z" />
    <glyph glyph-name="d" unicode="d" 
d="M540 744h28v-744h-28v133c-43 -83 -130 -141 -230 -141c-143 0 -258 116 -258 258c0 143 115 258 258 258c100 0 187 -57 230 -141v377zM310 20c127 0 230 103 230 230s-103 230 -230 230c-128 0 -231 -103 -231 -230s103 -230 231 -230z" />
    <glyph glyph-name="e" unicode="e" horiz-adv-x="618" 
d="M310 24c100 0 185 64 217 153l26 -11c-37 -99 -132 -171 -243 -170c-117 0 -224 83 -252 198c-4 19 -6 40 -6 59c0 144 115 258 258 259c127 -1 233 -93 254 -214c1 -5 1 -9 2 -13l-480 -86c26 -102 120 -176 224 -175zM310 484c-128 -1 -231 -103 -231 -230
c0 -9 2 -18 2 -27l453 81c-25 100 -116 175 -224 176z" />
    <glyph glyph-name="f" unicode="f" horiz-adv-x="281" 
d="M234 501v-28h-107v-473h-26l1 473h-60v28h60v147c0 86 26 103 68 103c28 0 54 -9 54 -9l-7 -23s-23 5 -47 5c-38 0 -43 -22 -43 -91v-132h107z" />
    <glyph glyph-name="g" unicode="g" 
d="M540 498h28v-454c0 -146 -121 -258 -258 -258c-112 0 -207 71 -243 170l26 11c32 -89 117 -153 217 -153c122 0 230 100 230 230v87c-43 -84 -129 -141 -230 -141c-143 0 -258 115 -258 258c0 142 115 258 258 258c101 0 187 -57 230 -141v133zM310 17
c127 0 230 103 230 231c0 127 -103 230 -230 230s-230 -103 -230 -230c0 -128 103 -231 230 -231z" />
    <glyph glyph-name="h" unicode="h" horiz-adv-x="568" 
d="M289 508c112 0 204 -94 204 -206v-302h-28v303c0 97 -78 177 -176 177c-97 0 -176 -79 -176 -176v-304h-28v744h28v-337c36 61 101 101 176 101z" />
    <glyph glyph-name="i" unicode="i" horiz-adv-x="214" 
d="M107 667c-12 0 -22 10 -22 22s10 22 22 22s22 -10 22 -22s-10 -22 -22 -22zM93 0v500h28v-500h-28z" />
    <glyph glyph-name="j" unicode="j" horiz-adv-x="307" 
d="M200 667c-12 0 -22 10 -22 22s10 22 22 22s22 -10 22 -22s-10 -22 -22 -22zM99 -212c-78 0 -117 49 -119 51l22 17c1 -1 33 -40 97 -40c65 0 87 75 87 149v535h28v-535c0 -94 -33 -177 -115 -177z" />
    <glyph glyph-name="k" unicode="k" horiz-adv-x="409" 
d="M372 500l-187 -219l187 -281h-34l-172 258l-53 -62v-195h-28v744h28v-506l221 261h38z" />
    <glyph glyph-name="l" unicode="l" horiz-adv-x="198" 
d="M85 0v744h28v-744h-28z" />
    <glyph glyph-name="m" unicode="m" horiz-adv-x="948" 
d="M669 508c113 0 204 -91 204 -204v-304h-28v304c0 98 -78 177 -176 177c-97 0 -176 -79 -176 -177v-304h-28v304c0 98 -79 177 -176 177s-176 -79 -176 -177v-304h-28v500h28v-93c35 61 101 101 176 101c86 0 160 -54 190 -130c30 76 104 130 190 130z" />
    <glyph glyph-name="n" unicode="n" horiz-adv-x="568" 
d="M289 508c112 0 204 -91 204 -204v-304h-28v304c0 98 -79 177 -176 177s-176 -79 -176 -177v-304h-28v500h28v-93c35 61 101 101 176 101z" />
    <glyph glyph-name="o" unicode="o" horiz-adv-x="620" 
d="M310 -8c-143 0 -258 116 -258 258c0 143 115 258 258 258c142 0 258 -115 258 -258c0 -142 -116 -258 -258 -258zM310 20c127 0 230 103 230 230s-103 231 -230 231s-230 -104 -230 -231s103 -230 230 -230z" />
    <glyph glyph-name="p" unicode="p" 
d="M343 510c143 0 258 -115 258 -258c0 -142 -115 -258 -258 -258c-100 0 -187 58 -230 141v-377h-28v744h28v-133c43 84 130 141 230 141zM343 22c127 0 231 103 231 230s-104 231 -231 231s-230 -104 -230 -231s103 -230 230 -230z" />
    <glyph glyph-name="q" unicode="q" 
d="M540 502h28v-744h-28v377c-43 -84 -130 -141 -230 -141c-143 0 -258 115 -258 258c0 142 115 258 258 258c100 0 187 -58 230 -141v133zM310 22c127 0 230 103 230 230s-103 230 -230 230c-128 0 -231 -103 -231 -230s103 -230 231 -230z" />
    <glyph glyph-name="r" unicode="r" horiz-adv-x="424" 
d="M289 508c41 0 80 -12 113 -34l-14 -24c-28 19 -62 31 -99 31c-98 0 -176 -79 -176 -177v-304h-28v500h28v-93c35 61 101 101 176 101z" />
    <glyph glyph-name="s" unicode="s" horiz-adv-x="446" 
d="M230 -8c-108 0 -170 70 -170 70l25 20s61 -62 145 -62c85 0 146 36 146 105c0 128 -334 90 -334 248c0 72 47 135 174 135c109 0 171 -69 171 -69l-25 -21s-61 62 -146 62c-84 0 -146 -36 -146 -105c0 -127 334 -90 334 -248c0 -72 -46 -135 -174 -135z" />
    <glyph glyph-name="t" unicode="t" horiz-adv-x="435" 
d="M374 86l19 -19s-46 -74 -128 -75c-73 0 -145 48 -145 146v335h-93v28h93v153l28 12v-165h170v-28h-170v-335c0 -79 63 -120 118 -120c63 0 108 68 108 68z" />
    <glyph glyph-name="u" unicode="u" horiz-adv-x="568" 
d="M455 500h28v-500h-28v93c-35 -61 -101 -101 -176 -101c-112 0 -204 91 -204 204v304h28v-304c0 -97 79 -176 176 -176s176 79 176 176v304z" />
    <glyph glyph-name="v" unicode="v" horiz-adv-x="460" 
d="M395 500h28l-179 -500h-28l-179 500h28l165 -461z" />
    <glyph glyph-name="w" unicode="w" horiz-adv-x="818" 
d="M753 500h28l-179 -500h-28l-165 461l-165 -461h-28l-179 500h28l165 -461l165 461h28l165 -461z" />
    <glyph glyph-name="x" unicode="x" horiz-adv-x="480" 
d="M443 500l-185 -250l185 -250h-36l-167 226l-167 -226h-36l185 250l-185 250h36l167 -226l167 226h36z" />
    <glyph glyph-name="y" unicode="y" horiz-adv-x="460" 
d="M395 500h28l-281 -726h-28l113 293l-190 433h28l176 -399z" />
    <glyph glyph-name="z" unicode="z" horiz-adv-x="512" 
d="M460 500v-28l-375 -444h375v-28h-408v28l375 444h-375v28h408z" />
    <glyph glyph-name="zero" unicode="0" horiz-adv-x="587" 
d="M293 -8c-173 0 -241 154 -241 343c0 190 68 344 241 344s242 -154 242 -344c0 -189 -69 -343 -242 -343zM293 19c156 0 214 142 214 316s-58 316 -214 316c-155 0 -214 -142 -214 -316s59 -316 214 -316z" />
    <glyph glyph-name="one" unicode="1" horiz-adv-x="288" 
d="M175 672h28v-672h-28v638l-103 -75l-17 22z" />
    <glyph glyph-name="two" unicode="2" horiz-adv-x="625" 
d="M94 0l-9 24c81 75 402 333 402 481c0 80 -73 146 -167 146c-118 0 -171 -96 -194 -139l-25 12c22 43 80 155 219 155c117 0 195 -85 195 -174c0 -169 -298 -393 -386 -477h411v-28h-446z" />
    <glyph glyph-name="three" unicode="3" horiz-adv-x="517" 
d="M273 -8c-104 0 -187 71 -221 131l24 14c29 -51 102 -117 197 -117s164 60 164 142c0 79 -67 159 -194 159h-53v28h53c127 0 194 80 194 159c0 82 -69 142 -164 142c-129 0 -196 -116 -197 -117l-24 14c33 58 115 131 221 131c107 0 192 -70 192 -170
c0 -80 -54 -146 -133 -173c79 -27 133 -92 133 -173c0 -100 -85 -170 -192 -170z" />
    <glyph glyph-name="four" unicode="4" horiz-adv-x="610" 
d="M525 215v-28h-96v-187h-28v187h-316v28l316 457h28v-457h96zM119 215h282v409z" />
    <glyph glyph-name="five" unicode="5" horiz-adv-x="597" 
d="M293 -8c-96 0 -186 69 -207 139l26 8c17 -56 94 -119 181 -119c94 0 191 68 191 190c0 123 -97 201 -191 201c-85 0 -163 -37 -183 -64l-25 9v317h411v-28h-383v-256c28 22 99 50 180 50c110 0 219 -81 219 -229c0 -147 -109 -218 -219 -218z" />
    <glyph glyph-name="six" unicode="6" horiz-adv-x="584" 
d="M312 446c125 0 220 -95 220 -230c0 -123 -89 -224 -222 -224c-161 0 -258 154 -258 343c0 190 97 344 258 344c106 0 189 -74 222 -131l-25 -14c0 1 -68 117 -197 117c-142 0 -227 -142 -227 -316c0 -30 3 -59 8 -87c12 124 96 198 221 198zM310 19c103 0 193 85 193 197
c0 115 -82 203 -192 203s-194 -73 -194 -203c0 -48 15 -90 40 -122c22 -27 49 -48 80 -61c23 -9 47 -14 72 -14h1z" />
    <glyph glyph-name="seven" unicode="7" horiz-adv-x="532" 
d="M85 673h405v-28l-373 -645h-32l373 645h-373v28z" />
    <glyph glyph-name="eight" unicode="8" horiz-adv-x="582" 
d="M291 -8c-135 0 -216 85 -216 189c0 81 49 150 133 177c-71 26 -111 85 -111 154c0 92 72 167 194 167s194 -75 194 -167c0 -69 -40 -128 -111 -154c85 -27 133 -96 133 -177c0 -104 -81 -189 -216 -189zM292 371c104 0 166 62 165 140c1 77 -61 140 -165 140
c-105 0 -167 -63 -167 -140c0 -78 62 -140 167 -140zM292 20c117 0 186 72 186 161c0 90 -70 162 -187 162s-187 -72 -187 -162c0 -89 71 -161 188 -161z" />
    <glyph glyph-name="nine" unicode="9" horiz-adv-x="584" 
d="M274 679c161 0 258 -154 258 -344c0 -189 -97 -343 -258 -343c-106 0 -189 73 -222 131l25 14c0 -1 68 -117 197 -117c142 0 227 141 227 316c0 30 -3 59 -8 87c-12 -124 -96 -199 -221 -199s-220 96 -220 231c0 123 89 224 222 224zM467 455c0 50 -16 92 -42 125
c-20 23 -43 41 -69 53c-25 12 -52 18 -81 18h-1c-103 0 -193 -84 -193 -196c0 -115 82 -203 192 -203s194 73 194 203z" />
    <glyph glyph-name="fraction" unicode="&#x2044;" horiz-adv-x="600" 
 />
    <glyph glyph-name="asterisk" unicode="*" horiz-adv-x="380" 
d="M348 545l-143 -41l91 -118l-22 -16l-84 122l-84 -122l-23 16l92 118l-143 41l8 27l141 -51l-5 150h28l-5 -150l140 51zM190 505l3 3l-1 3h-4l-1 -3z" />
    <glyph glyph-name="backslash" unicode="\" horiz-adv-x="452" 
d="M377 0l-335 673h33l335 -673h-33z" />
    <glyph glyph-name="periodcentered" unicode="&#xb7;" horiz-adv-x="138" 
d="M52 0v175h34v-175h-34z" />
    <glyph glyph-name="bullet" unicode="&#x2022;" horiz-adv-x="257" 
d="M52 298v75h101v-75h-101z" />
    <glyph glyph-name="colon" unicode=":" horiz-adv-x="202" 
d="M85 339v175h32v-175h-32zM85 0v185h32v-185h-32z" />
    <glyph glyph-name="comma" unicode="," horiz-adv-x="172" 
d="M42 -46l43 142h45l-56 -142h-32z" />
    <glyph glyph-name="exclam" unicode="!" horiz-adv-x="198" 
d="M88 124l-3 548h28l-3 -548h-22zM85 0v47h28v-47h-28z" />
    <glyph glyph-name="numbersign" unicode="#" horiz-adv-x="636" 
d="M584 388h-150l-33 -179h155v-28h-160l-33 -181h-29l33 181h-141l-33 -181h-29l33 181h-145v28h150l33 179h-155v28h160l33 182h29l-33 -182h141l33 182h29l-33 -182h145v-28zM372 209l33 179h-141l-33 -179h141z" />
    <glyph glyph-name="period" unicode="." horiz-adv-x="138" 
d="M52 0v85h34v-85h-34z" />
    <glyph glyph-name="question" unicode="?" horiz-adv-x="475" 
d="M182 189v36c0 178 190 185 190 312c0 61 -54 114 -132 114c-113 0 -175 -98 -175 -98l-23 16s68 110 198 110s160 -102 160 -143c0 -131 -190 -162 -190 -304v-43h-28zM182 0v109h28v-109h-28z" />
    <glyph glyph-name="quotedbl" unicode="&#x22;" horiz-adv-x="226" 
d="M58 507l-6 112h35l-6 -112h-23zM145 507l-6 112h35l-6 -112h-23z" />
    <glyph glyph-name="quotesingle" unicode="'" horiz-adv-x="99" 
d="M39 507l-7 112h35l-6 -112h-22z" />
    <glyph glyph-name="semicolon" unicode=";" horiz-adv-x="275" 
d="M154 332v176h32v-176h-32zM100 -57l44 181h46l-56 -181h-34z" />
    <glyph glyph-name="slash" unicode="/" horiz-adv-x="458" 
d="M42 0l335 673h39l-335 -673h-39z" />
    <glyph glyph-name="underscore" unicode="_" horiz-adv-x="574" 
d="M52 -28v28h470v-28h-470z" />
    <glyph glyph-name="braceleft" unicode="{" horiz-adv-x="312" 
d="M296 -108c-83 0 -133 21 -133 111v193c0 95 -25 126 -111 126v28c86 0 111 30 111 126v192c0 89 50 111 133 111v-29c-78 0 -105 -16 -105 -85v-203c0 -53 -11 -103 -63 -126c52 -24 63 -74 63 -127v-203c0 -70 27 -86 105 -86v-28z" />
    <glyph glyph-name="braceright" unicode="}" horiz-adv-x="312" 
d="M16 -108v29c78 0 105 16 105 86v203c0 53 12 103 63 126c-51 23 -63 73 -63 126v204c0 68 -27 85 -105 85v28c83 0 133 -22 133 -110v-193c0 -96 26 -126 111 -126v-28c-85 0 -111 -30 -111 -126v-193c0 -89 -50 -111 -133 -111z" />
    <glyph glyph-name="bracketleft" unicode="[" horiz-adv-x="235" 
d="M219 754h-106v-837h106v-29h-134v895h134v-29z" />
    <glyph glyph-name="bracketright" unicode="]" horiz-adv-x="235" 
d="M150 783v-895h-134v29h106v837h-106v29h134z" />
    <glyph glyph-name="parenleft" unicode="(" horiz-adv-x="304" 
d="M272 -112c0 0 -220 133 -220 448s220 447 220 447l16 -18s-210 -141 -210 -429s210 -431 210 -431z" />
    <glyph glyph-name="parenright" unicode=")" horiz-adv-x="304" 
d="M32 -112l-16 17s210 143 210 431s-210 429 -210 429l16 18s220 -132 220 -447s-220 -448 -220 -448z" />
    <glyph glyph-name="hyphen" unicode="-" horiz-adv-x="350" 
d="M298 322h-246v28h246v-28z" />
    <glyph glyph-name="quotedblleft" unicode="&#x201c;" horiz-adv-x="306" 
d="M52 529l56 142h33l-44 -142h-45zM165 529l56 142h33l-44 -142h-45z" />
    <glyph glyph-name="quotedblright" unicode="&#x201d;" horiz-adv-x="306" 
d="M52 529l44 142h45l-56 -142h-33zM165 529l44 142h45l-56 -142h-33z" />
    <glyph glyph-name="quoteleft" unicode="&#x2018;" horiz-adv-x="193" 
d="M52 529l56 142h33l-44 -142h-45z" />
    <glyph glyph-name="quoteright" unicode="&#x2019;" horiz-adv-x="193" 
d="M52 529l44 142h45l-56 -142h-33z" />
    <glyph glyph-name="space" unicode=" " horiz-adv-x="300" 
 />
    <glyph glyph-name="dollar" unicode="$" horiz-adv-x="476" 
d="M424 175c0 -69 -46 -144 -172 -146v-109h-28v110c-70 7 -135 45 -169 83l19 16c26 -28 92 -75 172 -75c96 0 153 46 153 121c0 172 -347 127 -347 322c0 69 45 142 172 145v109h28v-110c69 -6 134 -44 169 -82l-19 -17c-29 32 -95 75 -171 75c-97 0 -154 -45 -154 -120
c0 -173 347 -127 347 -322z" />
    <glyph glyph-name="plus" unicode="+" horiz-adv-x="624" 
d="M539 350v-28h-213v-213h-28v213h-213v28h213v213h28v-213h213z" />
    <glyph glyph-name="minus" unicode="&#x2212;" horiz-adv-x="416" 
d="M85 322v28h246v-28h-246z" />
    <glyph glyph-name="equal" unicode="=" horiz-adv-x="471" 
d="M85 390v28h301v-28h-301zM85 253v28h301v-28h-301z" />
    <glyph glyph-name="greater" unicode="&#x3e;" horiz-adv-x="451" 
d="M85 154v27l286 155l-286 155v27l314 -170v-24z" />
    <glyph glyph-name="less" unicode="&#x3c;" horiz-adv-x="451" 
d="M366 154l-314 170v24l314 170v-27l-286 -155l286 -155v-27z" />
    <glyph glyph-name="asciitilde" unicode="~" horiz-adv-x="446" 
d="M293 582c-64 0 -102 69 -141 69c-48 0 -74 -60 -74 -60l-26 11s37 77 100 77c52 0 91 -69 138 -69c46 0 80 62 80 62l24 -13s-40 -77 -101 -77z" />
    <glyph glyph-name="percent" unicode="%" horiz-adv-x="736" 
d="M198 315c-80 0 -146 65 -146 146c0 80 66 145 146 145s145 -65 145 -145c0 -81 -65 -146 -145 -146zM110 0l477 598h39l-477 -598h-39zM198 343c64 0 117 53 117 118c0 64 -53 117 -117 117c-68 0 -118 -57 -118 -117c0 -63 53 -118 118 -118zM538 -8
c-80 0 -145 65 -145 145s65 145 145 145c81 0 146 -65 146 -145s-65 -145 -146 -145zM538 22c63 0 116 52 116 115c0 65 -51 115 -116 115c-64 0 -115 -51 -115 -115c0 -63 53 -115 115 -115z" />
    <glyph glyph-name="at" unicode="@" horiz-adv-x="792" 
d="M395 679c209 0 345 -184 345 -336c0 -68 -34 -184 -138 -184c-52 0 -90 42 -106 93c-24 -47 -68 -83 -125 -83c-91 0 -144 93 -144 174s62 162 144 162c54 0 102 -37 128 -85c7 47 16 81 16 81l26 -7s-16 -91 -22 -152c0 -8 -1 -16 -2 -24v-11c0 -64 33 -120 87 -120
c62 0 107 67 107 156c0 165 -156 308 -316 308c-188 0 -315 -161 -315 -302c0 -215 171 -329 316 -329c109 0 163 56 163 56l19 -21s-42 -63 -179 -63c-154 0 -347 114 -347 357c0 141 127 330 343 330zM371 197c65 0 117 63 117 140s-52 139 -117 139
c-64 0 -116 -62 -116 -139s52 -140 116 -140z" />
    <glyph glyph-name="ampersand" unicode="&#x26;" horiz-adv-x="608" 
d="M581 380v-31h-73v-161c0 -101 -73 -196 -208 -196c-120 0 -225 59 -225 186c0 166 146 184 146 184s-109 24 -109 145c0 108 77 174 183 174c131 0 169 -92 169 -92l-24 -18s-36 82 -146 82c-87 0 -154 -58 -154 -144c0 -77 57 -129 155 -129h183v62h30v-62h73zM478 201
v148h-181c-52 0 -194 -30 -194 -170c0 -84 64 -158 200 -158c103 0 175 81 175 180z" />
    <glyph glyph-name="bar" unicode="|" horiz-adv-x="368" 
d="M170 -112v895h28v-895h-28z" />
    <glyph glyph-name="asciicircum" unicode="^" horiz-adv-x="346" 
d="M52 468l111 203h21l110 -203h-33l-88 168l-88 -168h-33z" />
    </font>
</defs>
</svg>
