<?xml version="1.0" encoding="UTF-8"?>
<svg width="900px" height="280px" viewBox="0 0 900 280" version="1.1" xmlns="http://www.w3.org/2000/svg" xmlns:xlink="http://www.w3.org/1999/xlink">
    <!-- Generator: Sketch 60.1 (88133) - https://sketch.com -->
    <title>Common_Current_w_Values</title>
    <desc>Created with Sketch.</desc>
    <g id="Common_Current_w_Values" stroke="none" stroke-width="1" fill="none" fill-rule="evenodd">
        <g id="Illustration_Frame">
            <rect id="Rectangle" stroke="#3D3530" stroke-width="2" fill="#EEEEEE" x="1" y="1" width="898" height="278"></rect>
            <rect id="Rectangle-Copy" stroke="#3D3530" stroke-width="2" fill="#F8FAE4" x="1" y="236" width="898" height="43"></rect>
            <path d="M684.474666,265.192 C686.042666,265.192 687.406666,264.836 688.566666,264.124 C689.726666,263.412 690.626666,262.432 691.266666,261.184 L691.266666,261.184 L689.778666,260.296 C689.282666,261.336 688.574666,262.164 687.654666,262.78 C686.734666,263.396 685.674666,263.704 684.474666,263.704 C682.650666,263.704 681.190666,263.064 680.094666,261.784 C678.998666,260.504 678.450666,258.896 678.450666,256.96 C678.450666,255.008 678.998666,253.396 680.094666,252.124 C681.190666,250.852 682.650666,250.216 684.474666,250.216 C685.658666,250.216 686.710666,250.52 687.630666,251.128 C688.550666,251.736 689.266666,252.56 689.778666,253.6 L689.778666,253.6 L691.266666,252.736 C690.626666,251.488 689.726666,250.504 688.566666,249.784 C687.406666,249.064 686.042666,248.704 684.474666,248.704 C682.106666,248.704 680.218666,249.492 678.810666,251.068 C677.402666,252.644 676.698666,254.608 676.698666,256.96 C676.698666,259.296 677.402666,261.252 678.810666,262.828 C680.218666,264.404 682.106666,265.192 684.474666,265.192 Z M699.733333,265.192 C701.445333,265.192 702.901333,264.584 704.101333,263.368 C705.317333,262.152 705.925333,260.696 705.925333,259 C705.925333,257.288 705.321333,255.828 704.113333,254.62 C702.905333,253.412 701.445333,252.808 699.733333,252.808 C698.021333,252.808 696.561333,253.412 695.353333,254.62 C694.145333,255.828 693.541333,257.288 693.541333,259 C693.541333,260.712 694.145333,262.172 695.353333,263.38 C696.561333,264.588 698.021333,265.192 699.733333,265.192 Z M699.757333,263.68 C698.477333,263.68 697.389333,263.228 696.493333,262.324 C695.597333,261.42 695.149333,260.312 695.149333,259 C695.149333,257.688 695.597333,256.576 696.493333,255.664 C697.389333,254.752 698.477333,254.296 699.757333,254.296 C701.053333,254.296 702.145333,254.752 703.033333,255.664 C703.921333,256.576 704.365333,257.688 704.365333,259 C704.365333,260.312 703.921333,261.42 703.033333,262.324 C702.145333,263.228 701.053333,263.68 699.757333,263.68 Z M710.552,265 L710.552,257.968 C710.552,256.944 710.9,256.072 711.596,255.352 C712.292,254.632 713.136,254.272 714.128,254.272 C715.12,254.272 715.964,254.632 716.66,255.352 C717.356,256.072 717.704,256.944 717.704,257.968 L717.704,257.968 L717.704,265 L719.312,265 L719.312,257.968 C719.312,256.928 719.656,256.052 720.344,255.34 C721.032,254.628 721.88,254.272 722.888,254.272 C723.896,254.272 724.74,254.628 725.42,255.34 C726.1,256.052 726.44,256.928 726.44,257.968 L726.44,257.968 L726.44,265 L728.072,265 L728.072,257.92 C728.072,256.48 727.6,255.268 726.656,254.284 C725.712,253.3 724.544,252.808 723.152,252.808 C722.16,252.808 721.272,253.04 720.488,253.504 C719.704,253.968 719.104,254.592 718.688,255.376 C718.256,254.592 717.66,253.968 716.9,253.504 C716.14,253.04 715.304,252.808 714.392,252.808 C712.808,252.808 711.528,253.464 710.552,254.776 L710.552,254.776 L710.552,253 L708.968,253 L708.968,265 L710.552,265 Z M733.370666,265 L733.370666,257.968 C733.370666,256.944 733.718666,256.072 734.414666,255.352 C735.110666,254.632 735.954666,254.272 736.946666,254.272 C737.938666,254.272 738.782666,254.632 739.478666,255.352 C740.174666,256.072 740.522666,256.944 740.522666,257.968 L740.522666,257.968 L740.522666,265 L742.130666,265 L742.130666,257.968 C742.130666,256.928 742.474666,256.052 743.162666,255.34 C743.850666,254.628 744.698666,254.272 745.706666,254.272 C746.714666,254.272 747.558666,254.628 748.238666,255.34 C748.918666,256.052 749.258666,256.928 749.258666,257.968 L749.258666,257.968 L749.258666,265 L750.890666,265 L750.890666,257.92 C750.890666,256.48 750.418666,255.268 749.474666,254.284 C748.530666,253.3 747.362666,252.808 745.970666,252.808 C744.978666,252.808 744.090666,253.04 743.306666,253.504 C742.522666,253.968 741.922666,254.592 741.506666,255.376 C741.074666,254.592 740.478666,253.968 739.718666,253.504 C738.958666,253.04 738.122666,252.808 737.210666,252.808 C735.626666,252.808 734.346666,253.464 733.370666,254.776 L733.370666,254.776 L733.370666,253 L731.786666,253 L731.786666,265 L733.370666,265 Z M760.005333,265.192 C761.717333,265.192 763.173333,264.584 764.373333,263.368 C765.589333,262.152 766.197333,260.696 766.197333,259 C766.197333,257.288 765.593333,255.828 764.385333,254.62 C763.177333,253.412 761.717333,252.808 760.005333,252.808 C758.293333,252.808 756.833333,253.412 755.625333,254.62 C754.417333,255.828 753.813333,257.288 753.813333,259 C753.813333,260.712 754.417333,262.172 755.625333,263.38 C756.833333,264.588 758.293333,265.192 760.005333,265.192 Z M760.029333,263.68 C758.749333,263.68 757.661333,263.228 756.765333,262.324 C755.869333,261.42 755.421333,260.312 755.421333,259 C755.421333,257.688 755.869333,256.576 756.765333,255.664 C757.661333,254.752 758.749333,254.296 760.029333,254.296 C761.325333,254.296 762.417333,254.752 763.305333,255.664 C764.193333,256.576 764.637333,257.688 764.637333,259 C764.637333,260.312 764.193333,261.42 763.305333,262.324 C762.417333,263.228 761.325333,263.68 760.029333,263.68 Z M770.824,265 L770.824,257.968 C770.824,256.944 771.172,256.072 771.868,255.352 C772.564,254.632 773.408,254.272 774.4,254.272 C775.392,254.272 776.236,254.632 776.932,255.352 C777.628,256.072 777.976,256.944 777.976,257.968 L777.976,257.968 L777.976,265 L779.584,265 L779.584,257.92 C779.584,256.48 779.112,255.268 778.168,254.284 C777.224,253.3 776.056,252.808 774.664,252.808 C773.08,252.808 771.8,253.464 770.824,254.776 L770.824,254.776 L770.824,253 L769.24,253 L769.24,265 L770.824,265 Z M797.885333,265.192 C799.453333,265.192 800.817333,264.836 801.977333,264.124 C803.137333,263.412 804.037333,262.432 804.677333,261.184 L804.677333,261.184 L803.189333,260.296 C802.693333,261.336 801.985333,262.164 801.065333,262.78 C800.145333,263.396 799.085333,263.704 797.885333,263.704 C796.061333,263.704 794.601333,263.064 793.505333,261.784 C792.409333,260.504 791.861333,258.896 791.861333,256.96 C791.861333,255.008 792.409333,253.396 793.505333,252.124 C794.601333,250.852 796.061333,250.216 797.885333,250.216 C799.069333,250.216 800.121333,250.52 801.041333,251.128 C801.961333,251.736 802.677333,252.56 803.189333,253.6 L803.189333,253.6 L804.677333,252.736 C804.037333,251.488 803.137333,250.504 801.977333,249.784 C800.817333,249.064 799.453333,248.704 797.885333,248.704 C795.517333,248.704 793.629333,249.492 792.221333,251.068 C790.813333,252.644 790.109333,254.608 790.109333,256.96 C790.109333,259.296 790.813333,261.252 792.221333,262.828 C793.629333,264.404 795.517333,265.192 797.885333,265.192 Z M812.952,265.192 C814.536,265.192 815.816,264.536 816.792,263.224 L816.792,263.224 L816.792,265 L818.376,265 L818.376,253 L816.792,253 L816.792,260.032 C816.792,261.056 816.448,261.924 815.76,262.636 C815.072,263.348 814.224,263.704 813.216,263.704 C812.224,263.704 811.384,263.348 810.696,262.636 C810.008,261.924 809.664,261.056 809.664,260.032 L809.664,260.032 L809.664,253 L808.032,253 L808.032,260.08 C808.032,261.52 808.504,262.732 809.448,263.716 C810.392,264.7 811.56,265.192 812.952,265.192 Z M823.914666,265 L823.914666,257.968 C823.914666,256.928 824.258666,256.052 824.946666,255.34 C825.634666,254.628 826.482666,254.272 827.490666,254.272 C828.178666,254.272 828.858666,254.52 829.530666,255.016 L829.530666,255.016 L830.082666,253.432 C829.378666,253.016 828.602666,252.808 827.754666,252.808 C826.170666,252.808 824.890666,253.464 823.914666,254.776 L823.914666,254.776 L823.914666,253 L822.330666,253 L822.330666,265 L823.914666,265 Z M834.469333,265 L834.469333,257.968 C834.469333,256.928 834.813333,256.052 835.501333,255.34 C836.189333,254.628 837.037333,254.272 838.045333,254.272 C838.733333,254.272 839.413333,254.52 840.085333,255.016 L840.085333,255.016 L840.637333,253.432 C839.933333,253.016 839.157333,252.808 838.309333,252.808 C836.725333,252.808 835.445333,253.464 834.469333,254.776 L834.469333,254.776 L834.469333,253 L832.885333,253 L832.885333,265 L834.469333,265 Z M847.952,265.072 C849.424,265.088 850.692,264.672 851.756,263.824 C852.82,262.976 853.536,262.048 853.904,261.04 L853.904,261.04 L852.56,260.56 C852.256,261.376 851.68,262.088 850.832,262.696 C849.984,263.304 849.024,263.608 847.952,263.608 C846.96,263.624 846.056,263.324 845.24,262.708 C844.424,262.092 843.88,261.304 843.608,260.344 L843.608,260.344 L854.096,258.448 C854.096,258.32 854.088,258.216 854.072,258.136 C853.896,256.6 853.224,255.312 852.056,254.272 C850.888,253.232 849.52,252.704 847.952,252.688 C846.224,252.704 844.76,253.312 843.56,254.512 C842.36,255.712 841.76,257.176 841.76,258.904 C841.76,259.528 841.84,260.104 842,260.632 C842.4,261.928 843.156,262.992 844.268,263.824 C845.38,264.656 846.608,265.072 847.952,265.072 Z M843.368,259.048 C843.368,258.968 843.364,258.868 843.356,258.748 C843.348,258.628 843.344,258.544 843.344,258.496 C843.408,257.312 843.868,256.296 844.724,255.448 C845.58,254.6 846.608,254.168 847.808,254.152 C848.832,254.136 849.76,254.436 850.592,255.052 C851.424,255.668 851.992,256.464 852.296,257.44 L852.296,257.44 L843.368,259.048 Z M858.602667,265 L858.602667,257.968 C858.602667,256.944 858.950667,256.072 859.646667,255.352 C860.342667,254.632 861.186667,254.272 862.178667,254.272 C863.170667,254.272 864.014667,254.632 864.710667,255.352 C865.406667,256.072 865.754667,256.944 865.754667,257.968 L865.754667,257.968 L865.754667,265 L867.362667,265 L867.362667,257.92 C867.362667,256.48 866.890667,255.268 865.946667,254.284 C865.002667,253.3 863.834667,252.808 862.442667,252.808 C860.858667,252.808 859.578667,253.464 858.602667,254.776 L858.602667,254.776 L858.602667,253 L857.018667,253 L857.018667,265 L858.602667,265 Z M875.253333,265.192 C875.845333,265.192 876.421333,265.036 876.981333,264.724 C877.541333,264.412 877.901333,264.168 878.061333,263.992 C878.221333,263.816 878.349333,263.664 878.445333,263.536 L878.445333,263.536 L877.653333,262.312 C877.653333,262.376 877.569333,262.516 877.401333,262.732 C877.233333,262.948 876.973333,263.168 876.621333,263.392 C876.269333,263.616 875.909333,263.728 875.541333,263.728 C874.949333,263.728 874.425333,263.512 873.969333,263.08 C873.513333,262.648 873.285333,262.064 873.285333,261.328 L873.285333,261.328 L873.285333,254.44 L876.909333,254.44 L876.909333,252.976 L873.285333,252.976 L873.285333,248.992 L871.701333,249.184 L871.701333,252.976 L869.781333,252.976 L869.781333,254.44 L871.701333,254.44 L871.701333,261.688 C871.701333,262.824 872.041333,263.692 872.721333,264.292 C873.401333,264.892 874.245333,265.192 875.253333,265.192 Z" id="CommonCurrent" fill="#23ABE3" fill-rule="nonzero"></path>
        </g>
        <g id="Common_Current" transform="translate(267.000000, 17.000000)">
            <polyline id="Path-2" stroke="#524740" stroke-width="2" points="308 49 366 49 366 161 323 161"></polyline>
            <polyline id="Path-2-Copy-2" stroke="#524740" stroke-width="2" transform="translate(29.000000, 105.000000) scale(-1, 1) translate(-29.000000, -105.000000) " points="-1.77635684e-14 49 58 49 58 161 15 161"></polyline>
            <g id="Ammeter" transform="translate(43.000000, 121.000000)">
                <circle id="Oval" stroke="#524740" stroke-width="2" cx="40" cy="40" r="39"></circle>
                <path d="M28.576,51.08 L28.576,50.576 C27.584,50.576 26.952,50.412 26.68,50.084 C26.408,49.756 26.272,48.992 26.272,47.792 L26.272,47.792 L26.272,45.992 L29.752,45.992 L29.944,42.824 L29.44,42.824 L29.32,43.304 C29.144,44.008 28.892,44.488 28.564,44.744 C28.236,45 27.56,45.128 26.536,45.128 L26.536,45.128 L26.272,45.128 L26.272,35.192 L25.84,35.192 L19.144,45.536 L19.144,45.992 L24.592,45.992 L24.592,47.792 C24.592,48.992 24.456,49.756 24.184,50.084 C23.912,50.412 23.28,50.576 22.288,50.576 L22.288,50.576 L22.288,51.08 L28.576,51.08 Z M24.592,45.128 L20.44,45.128 L24.592,38.72 L24.592,45.128 Z M37.24,47 L37.24,46.496 C36.584,46.496 36.172,46.34 36.004,46.028 C35.836,45.716 35.752,44.936 35.752,43.688 L35.752,43.688 L35.752,42.128 C35.752,41.456 36.04,40.888 36.616,40.424 C37.192,39.96 37.728,39.728 38.224,39.728 C39.376,39.728 39.952,40.584 39.952,42.296 L39.952,42.296 L39.952,43.688 C39.952,44.952 39.868,45.736 39.7,46.04 C39.532,46.344 39.112,46.496 38.44,46.496 L38.44,46.496 L38.44,47 L43.144,47 L43.144,46.496 C42.472,46.496 42.052,46.344 41.884,46.04 C41.716,45.736 41.632,44.952 41.632,43.688 L41.632,43.688 L41.632,42.128 C41.632,41.456 41.924,40.888 42.508,40.424 C43.092,39.96 43.632,39.728 44.128,39.728 C45.264,39.728 45.832,40.584 45.832,42.296 L45.832,42.296 L45.832,43.688 C45.832,44.952 45.752,45.736 45.592,46.04 C45.432,46.344 45.016,46.496 44.344,46.496 L44.344,46.496 L44.344,47 L49.432,47 L49.432,46.496 C48.632,46.496 48.116,46.328 47.884,45.992 C47.652,45.656 47.536,44.888 47.536,43.688 L47.536,43.688 L47.536,42.176 C47.536,39.792 46.616,38.6 44.776,38.6 C44.12,38.6 43.476,38.788 42.844,39.164 C42.212,39.54 41.736,39.952 41.416,40.4 C41.048,39.2 40.2,38.6 38.872,38.6 C37.704,38.6 36.664,39.176 35.752,40.328 C35.624,39.48 35.488,38.904 35.344,38.6 L35.344,38.6 L32.152,39.2 L32.152,39.704 C32.952,39.704 33.468,39.872 33.7,40.208 C33.932,40.544 34.048,41.304 34.048,42.488 L34.048,42.488 L34.048,43.688 C34.048,44.888 33.932,45.656 33.7,45.992 C33.468,46.328 32.952,46.496 32.152,46.496 L32.152,46.496 L32.152,47 L37.24,47 Z M54.616,47 L54.616,46.496 C53.624,46.496 52.988,46.356 52.708,46.076 C52.428,45.796 52.44,45.328 52.744,44.672 L52.744,44.672 L53.896,42.008 L59.704,42.008 L60.856,44.672 C61.144,45.328 61.152,45.796 60.88,46.076 C60.608,46.356 59.976,46.496 58.984,46.496 L58.984,46.496 L58.984,47 L65.632,47 L65.632,46.496 C65.12,46.496 64.728,46.476 64.456,46.436 C64.184,46.396 63.94,46.268 63.724,46.052 C63.508,45.836 63.356,45.64 63.268,45.464 C63.18,45.288 63.016,44.936 62.776,44.408 L62.776,44.408 L57.472,32.192 L57.16,32.192 L51.88,44.408 C51.64,44.936 51.476,45.288 51.388,45.464 C51.3,45.64 51.148,45.836 50.932,46.052 C50.716,46.268 50.468,46.396 50.188,46.436 C49.908,46.476 49.512,46.496 49,46.496 L49,46.496 L49,47 L54.616,47 Z M59.296,41.12 L54.28,41.12 L56.776,35.336 L59.296,41.12 Z" id="4mA" fill="#524740" fill-rule="nonzero"></path>
            </g>
            <g id="Ammeter-Copy" transform="translate(243.000000, 121.000000)">
                <circle id="Oval" stroke="#524740" stroke-width="2" cx="40" cy="40" r="39"></circle>
                <path d="M28.576,51.08 L28.576,50.576 C27.584,50.576 26.952,50.412 26.68,50.084 C26.408,49.756 26.272,48.992 26.272,47.792 L26.272,47.792 L26.272,45.992 L29.752,45.992 L29.944,42.824 L29.44,42.824 L29.32,43.304 C29.144,44.008 28.892,44.488 28.564,44.744 C28.236,45 27.56,45.128 26.536,45.128 L26.536,45.128 L26.272,45.128 L26.272,35.192 L25.84,35.192 L19.144,45.536 L19.144,45.992 L24.592,45.992 L24.592,47.792 C24.592,48.992 24.456,49.756 24.184,50.084 C23.912,50.412 23.28,50.576 22.288,50.576 L22.288,50.576 L22.288,51.08 L28.576,51.08 Z M24.592,45.128 L20.44,45.128 L24.592,38.72 L24.592,45.128 Z M37.24,47 L37.24,46.496 C36.584,46.496 36.172,46.34 36.004,46.028 C35.836,45.716 35.752,44.936 35.752,43.688 L35.752,43.688 L35.752,42.128 C35.752,41.456 36.04,40.888 36.616,40.424 C37.192,39.96 37.728,39.728 38.224,39.728 C39.376,39.728 39.952,40.584 39.952,42.296 L39.952,42.296 L39.952,43.688 C39.952,44.952 39.868,45.736 39.7,46.04 C39.532,46.344 39.112,46.496 38.44,46.496 L38.44,46.496 L38.44,47 L43.144,47 L43.144,46.496 C42.472,46.496 42.052,46.344 41.884,46.04 C41.716,45.736 41.632,44.952 41.632,43.688 L41.632,43.688 L41.632,42.128 C41.632,41.456 41.924,40.888 42.508,40.424 C43.092,39.96 43.632,39.728 44.128,39.728 C45.264,39.728 45.832,40.584 45.832,42.296 L45.832,42.296 L45.832,43.688 C45.832,44.952 45.752,45.736 45.592,46.04 C45.432,46.344 45.016,46.496 44.344,46.496 L44.344,46.496 L44.344,47 L49.432,47 L49.432,46.496 C48.632,46.496 48.116,46.328 47.884,45.992 C47.652,45.656 47.536,44.888 47.536,43.688 L47.536,43.688 L47.536,42.176 C47.536,39.792 46.616,38.6 44.776,38.6 C44.12,38.6 43.476,38.788 42.844,39.164 C42.212,39.54 41.736,39.952 41.416,40.4 C41.048,39.2 40.2,38.6 38.872,38.6 C37.704,38.6 36.664,39.176 35.752,40.328 C35.624,39.48 35.488,38.904 35.344,38.6 L35.344,38.6 L32.152,39.2 L32.152,39.704 C32.952,39.704 33.468,39.872 33.7,40.208 C33.932,40.544 34.048,41.304 34.048,42.488 L34.048,42.488 L34.048,43.688 C34.048,44.888 33.932,45.656 33.7,45.992 C33.468,46.328 32.952,46.496 32.152,46.496 L32.152,46.496 L32.152,47 L37.24,47 Z M54.616,47 L54.616,46.496 C53.624,46.496 52.988,46.356 52.708,46.076 C52.428,45.796 52.44,45.328 52.744,44.672 L52.744,44.672 L53.896,42.008 L59.704,42.008 L60.856,44.672 C61.144,45.328 61.152,45.796 60.88,46.076 C60.608,46.356 59.976,46.496 58.984,46.496 L58.984,46.496 L58.984,47 L65.632,47 L65.632,46.496 C65.12,46.496 64.728,46.476 64.456,46.436 C64.184,46.396 63.94,46.268 63.724,46.052 C63.508,45.836 63.356,45.64 63.268,45.464 C63.18,45.288 63.016,44.936 62.776,44.408 L62.776,44.408 L57.472,32.192 L57.16,32.192 L51.88,44.408 C51.64,44.936 51.476,45.288 51.388,45.464 C51.3,45.64 51.148,45.836 50.932,46.052 C50.716,46.268 50.468,46.396 50.188,46.436 C49.908,46.476 49.512,46.496 49,46.496 L49,46.496 L49,47 L54.616,47 Z M59.296,41.12 L54.28,41.12 L56.776,35.336 L59.296,41.12 Z" id="4mA" fill="#524740" fill-rule="nonzero"></path>
            </g>
            <path d="M176.652,171.488 C177.98,171.488 179.12,170.996 180.072,170.012 C181.024,169.028 181.5,167.848 181.5,166.472 C181.5,165.064 181.064,163.88 180.192,162.92 C179.32,161.96 178.212,161.48 176.868,161.48 C176.356,161.48 175.844,161.576 175.332,161.768 C174.82,161.96 174.436,162.216 174.18,162.536 L174.18,162.536 L174.54,158.288 L180.612,158.288 L181.212,154.784 L180.66,154.784 C180.484,155.504 180.236,155.988 179.916,156.236 C179.596,156.484 178.916,156.608 177.876,156.608 L177.876,156.608 L173.82,156.608 L173.076,164.84 L173.964,164.84 C174.204,163.272 175.1,162.488 176.652,162.488 C177.612,162.488 178.328,162.848 178.8,163.568 C179.272,164.288 179.508,165.256 179.508,166.472 C179.508,167.688 179.268,168.676 178.788,169.436 C178.308,170.196 177.596,170.576 176.652,170.576 C176.06,170.576 175.568,170.452 175.176,170.204 C174.784,169.956 174.524,169.688 174.396,169.4 C174.268,169.112 174.124,168.844 173.964,168.596 C173.804,168.348 173.62,168.224 173.412,168.224 C172.964,168.224 172.74,168.44 172.74,168.872 C172.74,169.432 173.104,170.008 173.832,170.6 C174.56,171.192 175.5,171.488 176.652,171.488 Z M190.572,167.408 L195.852,155.192 C196.252,154.264 196.592,153.684 196.872,153.452 C197.152,153.22 197.764,153.104 198.708,153.104 L198.708,153.104 L198.708,152.6 L193.116,152.6 L193.116,153.104 C194.108,153.104 194.744,153.244 195.024,153.524 C195.304,153.804 195.292,154.272 194.988,154.928 L194.988,154.928 L190.956,164.264 L186.876,154.928 C186.572,154.272 186.56,153.804 186.84,153.524 C187.12,153.244 187.756,153.104 188.748,153.104 L188.748,153.104 L188.748,152.6 L182.1,152.6 L182.1,153.104 C183.044,153.104 183.656,153.22 183.936,153.452 C184.216,153.684 184.556,154.264 184.956,155.192 L184.956,155.192 L190.26,167.408 L190.572,167.408 Z" id="5V" fill="#524740" fill-rule="nonzero"></path>
            <path d="M174.511078,23.488 C175.839078,23.488 176.979078,22.996 177.931078,22.012 C178.883078,21.028 179.359078,19.848 179.359078,18.472 C179.359078,17.064 178.923078,15.88 178.051078,14.92 C177.179078,13.96 176.071078,13.48 174.727078,13.48 C174.215078,13.48 173.703078,13.576 173.191078,13.768 C172.679078,13.96 172.295078,14.216 172.039078,14.536 L172.039078,14.536 L172.399078,10.288 L178.471078,10.288 L179.071078,6.784 L178.519078,6.784 C178.343078,7.504 178.095078,7.988 177.775078,8.236 C177.455078,8.484 176.775078,8.608 175.735078,8.608 L175.735078,8.608 L171.679078,8.608 L170.935078,16.84 L171.823078,16.84 C172.063078,15.272 172.959078,14.488 174.511078,14.488 C175.471078,14.488 176.187078,14.848 176.659078,15.568 C177.131078,16.288 177.367078,17.256 177.367078,18.472 C177.367078,19.688 177.127078,20.676 176.647078,21.436 C176.167078,22.196 175.455078,22.576 174.511078,22.576 C173.919078,22.576 173.427078,22.452 173.035078,22.204 C172.643078,21.956 172.383078,21.688 172.255078,21.4 C172.127078,21.112 171.983078,20.844 171.823078,20.596 C171.663078,20.348 171.479078,20.224 171.271078,20.224 C170.823078,20.224 170.599078,20.44 170.599078,20.872 C170.599078,21.432 170.963078,22.008 171.691078,22.6 C172.419078,23.192 173.359078,23.488 174.511078,23.488 Z M188.898422,19 L188.898422,17.1953125 C187.570297,16.296875 186.574203,15.2011719 185.910141,13.9082031 C185.246078,12.6152344 184.914047,11.1210938 184.914047,9.42578125 C184.914047,7.42578125 185.402328,5.859375 186.378891,4.7265625 C187.355453,3.59375 188.699203,3.02734375 190.410141,3.02734375 C192.128891,3.02734375 193.474594,3.59375 194.44725,4.7265625 C195.419906,5.859375 195.906234,7.421875 195.906234,9.4140625 C195.906234,11.1171875 195.574203,12.6171875 194.910141,13.9140625 C194.246078,15.2109375 193.253891,16.3046875 191.933578,17.1953125 L191.933578,17.1953125 L191.933578,19 L199.082016,19 L199.082016,17.1953125 L194.312484,17.1953125 C195.710922,16.1484375 196.75975,14.9628906 197.458969,13.6386719 C198.158187,12.3144531 198.507797,10.8515625 198.507797,9.25 C198.507797,6.8984375 197.749984,4.97265625 196.234359,3.47265625 C194.718734,1.97265625 192.777328,1.22265625 190.410141,1.22265625 C188.042953,1.22265625 186.101547,1.97460938 184.585922,3.47851562 C183.070297,4.98242188 182.312484,6.90625 182.312484,9.25 C182.312484,10.84375 182.662094,12.3027344 183.361312,13.6269531 C184.060531,14.9511719 185.109359,16.140625 186.507797,17.1953125 L186.507797,17.1953125 L181.738266,17.1953125 L181.738266,19 L188.898422,19 Z" id="5Ω" fill="#524740" fill-rule="nonzero"></path>
            <path d="M73.9030781,19 L73.9030781,18.496 C72.8950781,18.496 72.2590781,18.332 71.9950781,18.004 C71.7310781,17.676 71.5990781,16.904 71.5990781,15.688 L71.5990781,15.688 L71.5990781,11.896 C71.5990781,10.68 71.7310781,9.908 71.9950781,9.58 C72.2590781,9.252 72.8950781,9.088 73.9030781,9.088 L73.9030781,9.088 L73.9030781,8.608 L67.5910781,8.608 L67.5910781,9.088 C68.5830781,9.088 69.2150781,9.256 69.4870781,9.592 C69.7590781,9.928 69.8950781,10.696 69.8950781,11.896 L69.8950781,11.896 L69.8950781,15.688 C69.8950781,16.888 69.7590781,17.656 69.4870781,17.992 C69.2150781,18.328 68.5830781,18.496 67.5910781,18.496 L67.5910781,18.496 L67.5910781,19 L73.9030781,19 Z M82.2070781,19.408 C83.7430781,19.408 85.0590781,18.86 86.1550781,17.764 C87.2510781,16.668 87.7990781,15.344 87.7990781,13.792 C87.7990781,12.256 87.2510781,10.94 86.1550781,9.844 C85.0590781,8.748 83.7430781,8.2 82.2070781,8.2 C80.6710781,8.2 79.3510781,8.752 78.2470781,9.856 C77.1590781,10.944 76.6150781,12.256 76.6150781,13.792 C76.6150781,15.344 77.1630781,16.668 78.2590781,17.764 C79.3550781,18.86 80.6710781,19.408 82.2070781,19.408 Z M82.2070781,18.016 C81.0870781,18.016 80.1310781,17.604 79.3390781,16.78 C78.5470781,15.956 78.1510781,14.96 78.1510781,13.792 C78.1510781,12.64 78.5470781,11.648 79.3390781,10.816 C80.1310781,9.984 81.0870781,9.568 82.2070781,9.568 C83.3110781,9.568 84.2630781,9.984 85.0630781,10.816 C85.8630781,11.648 86.2630781,12.64 86.2630781,13.792 C86.2630781,14.96 85.8630781,15.956 85.0630781,16.78 C84.2630781,17.604 83.3110781,18.016 82.2070781,18.016 Z M96.4150781,19.408 C97.9510781,19.408 99.2670781,18.86 100.363078,17.764 C101.459078,16.668 102.007078,15.344 102.007078,13.792 C102.007078,12.256 101.459078,10.94 100.363078,9.844 C99.2670781,8.748 97.9510781,8.2 96.4150781,8.2 C94.8790781,8.2 93.5590781,8.752 92.4550781,9.856 C91.3670781,10.944 90.8230781,12.256 90.8230781,13.792 C90.8230781,15.344 91.3710781,16.668 92.4670781,17.764 C93.5630781,18.86 94.8790781,19.408 96.4150781,19.408 Z M96.4150781,18.016 C95.2950781,18.016 94.3390781,17.604 93.5470781,16.78 C92.7550781,15.956 92.3590781,14.96 92.3590781,13.792 C92.3590781,12.64 92.7550781,11.648 93.5470781,10.816 C94.3390781,9.984 95.2950781,9.568 96.4150781,9.568 C97.5190781,9.568 98.4710781,9.984 99.2710781,10.816 C100.071078,11.648 100.471078,12.64 100.471078,13.792 C100.471078,14.96 100.071078,15.956 99.2710781,16.78 C98.4710781,17.604 97.5190781,18.016 96.4150781,18.016 Z M111.546422,19 L111.546422,17.1953125 C110.218297,16.296875 109.222203,15.2011719 108.558141,13.9082031 C107.894078,12.6152344 107.562047,11.1210938 107.562047,9.42578125 C107.562047,7.42578125 108.050328,5.859375 109.026891,4.7265625 C110.003453,3.59375 111.347203,3.02734375 113.058141,3.02734375 C114.776891,3.02734375 116.122594,3.59375 117.09525,4.7265625 C118.067906,5.859375 118.554234,7.421875 118.554234,9.4140625 C118.554234,11.1171875 118.222203,12.6171875 117.558141,13.9140625 C116.894078,15.2109375 115.901891,16.3046875 114.581578,17.1953125 L114.581578,17.1953125 L114.581578,19 L121.730016,19 L121.730016,17.1953125 L116.960484,17.1953125 C118.358922,16.1484375 119.40775,14.9628906 120.106969,13.6386719 C120.806187,12.3144531 121.155797,10.8515625 121.155797,9.25 C121.155797,6.8984375 120.397984,4.97265625 118.882359,3.47265625 C117.366734,1.97265625 115.425328,1.22265625 113.058141,1.22265625 C110.690953,1.22265625 108.749547,1.97460938 107.233922,3.47851562 C105.718297,4.98242188 104.960484,6.90625 104.960484,9.25 C104.960484,10.84375 105.310094,12.3027344 106.009312,13.6269531 C106.708531,14.9511719 107.757359,16.140625 109.155797,17.1953125 L109.155797,17.1953125 L104.386266,17.1953125 L104.386266,19 L111.546422,19 Z" id="100Ω" fill="#524740" fill-rule="nonzero"></path>
            <path d="M262.831078,19 L262.831078,18.496 C261.823078,18.496 261.187078,18.332 260.923078,18.004 C260.659078,17.676 260.527078,16.904 260.527078,15.688 L260.527078,15.688 L260.527078,11.896 C260.527078,10.68 260.659078,9.908 260.923078,9.58 C261.187078,9.252 261.823078,9.088 262.831078,9.088 L262.831078,9.088 L262.831078,8.608 L256.519078,8.608 L256.519078,9.088 C257.511078,9.088 258.143078,9.256 258.415078,9.592 C258.687078,9.928 258.823078,10.696 258.823078,11.896 L258.823078,11.896 L258.823078,15.688 C258.823078,16.888 258.687078,17.656 258.415078,17.992 C258.143078,18.328 257.511078,18.496 256.519078,18.496 L256.519078,18.496 L256.519078,19 L262.831078,19 Z M269.983078,19 L269.983078,18.496 C269.183078,18.496 268.667078,18.328 268.435078,17.992 C268.203078,17.656 268.087078,16.888 268.087078,15.688 L268.087078,15.688 L268.087078,15.256 L268.303078,15.088 L272.239078,19 L274.903078,19 L274.903078,18.496 C274.343078,18.496 273.871078,18.304 273.487078,17.92 L273.487078,17.92 L269.623078,14.032 L271.663078,12.352 C272.287078,11.856 273.127078,11.568 274.183078,11.488 L274.183078,11.488 L274.183078,11.008 L269.383078,11.008 L269.383078,11.488 C269.975078,11.488 270.343078,11.62 270.487078,11.884 C270.631078,12.148 270.503078,12.44 270.103078,12.76 L270.103078,12.76 L268.087078,14.392 L268.087078,4.192 L264.487078,4.792 L264.487078,5.296 C265.287078,5.296 265.803078,5.464 266.035078,5.8 C266.267078,6.136 266.383078,6.904 266.383078,8.104 L266.383078,8.104 L266.383078,15.688 C266.383078,16.888 266.267078,17.656 266.035078,17.992 C265.803078,18.328 265.287078,18.496 264.487078,18.496 L264.487078,18.496 L264.487078,19 L269.983078,19 Z M282.618422,19 L282.618422,17.1953125 C281.290297,16.296875 280.294203,15.2011719 279.630141,13.9082031 C278.966078,12.6152344 278.634047,11.1210938 278.634047,9.42578125 C278.634047,7.42578125 279.122328,5.859375 280.098891,4.7265625 C281.075453,3.59375 282.419203,3.02734375 284.130141,3.02734375 C285.848891,3.02734375 287.194594,3.59375 288.16725,4.7265625 C289.139906,5.859375 289.626234,7.421875 289.626234,9.4140625 C289.626234,11.1171875 289.294203,12.6171875 288.630141,13.9140625 C287.966078,15.2109375 286.973891,16.3046875 285.653578,17.1953125 L285.653578,17.1953125 L285.653578,19 L292.802016,19 L292.802016,17.1953125 L288.032484,17.1953125 C289.430922,16.1484375 290.47975,14.9628906 291.178969,13.6386719 C291.878188,12.3144531 292.227797,10.8515625 292.227797,9.25 C292.227797,6.8984375 291.469984,4.97265625 289.954359,3.47265625 C288.438734,1.97265625 286.497328,1.22265625 284.130141,1.22265625 C281.762953,1.22265625 279.821547,1.97460938 278.305922,3.47851562 C276.790297,4.98242188 276.032484,6.90625 276.032484,9.25 C276.032484,10.84375 276.382094,12.3027344 277.081313,13.6269531 C277.780531,14.9511719 278.829359,16.140625 280.227797,17.1953125 L280.227797,17.1953125 L275.458266,17.1953125 L275.458266,19 L282.618422,19 Z" id="1kΩ" fill="#524740" fill-rule="nonzero"></path>
            <polyline id="Resistor" stroke="#524740" stroke-width="2" stroke-linejoin="bevel" points="148 49 153 49 158 36 168 62 178 36 188 62 198 36 208 62 213 49 218 49"></polyline>
            <polyline id="Resistor-Copy-3" stroke="#524740" stroke-width="2" stroke-linejoin="bevel" points="238 49 243 49 248 36 258 62 268 36 278 62 288 36 298 62 303 49 308 49"></polyline>
            <polyline id="Resistor-Copy-4" stroke="#524740" stroke-width="2" stroke-linejoin="bevel" points="58 49 63 49 68 36 78 62 88 36 98 62 108 36 118 62 123 49 128 49"></polyline>
            <g id="DC_Power" transform="translate(143.000000, 121.000000)">
                <circle id="Oval" stroke="#524740" stroke-width="2" cx="40" cy="40" r="39"></circle>
                <text id="+" font-family="Lato-Regular, Lato" font-size="18" font-weight="normal" letter-spacing="0.8999999" fill="#524740">
                    <tspan x="58.3300001" y="46">+</tspan>
                </text>
                <text id="-" font-family="Lato-Regular, Lato" font-size="18" font-weight="normal" letter-spacing="0.8999999" fill="#524740">
                    <tspan x="13.2065" y="45.5">-</tspan>
                </text>
            </g>
            <line x1="128" y1="49" x2="148" y2="49" id="Path-4" stroke="#524740" stroke-width="2"></line>
            <line x1="218" y1="49" x2="238" y2="49" id="Path-4-Copy" stroke="#524740" stroke-width="2"></line>
            <line x1="218" y1="49" x2="238" y2="49" id="Path-4-Copy-2" stroke="#524740" stroke-width="2"></line>
            <line x1="123" y1="161" x2="143" y2="161" id="Path-4-Copy-4" stroke="#524740" stroke-width="2"></line>
            <line x1="223" y1="161" x2="243" y2="161" id="Path-4-Copy-3" stroke="#524740" stroke-width="2"></line>
        </g>
    </g>
</svg>