<?xml version="1.0" encoding="UTF-8"?>
<svg width="900px" height="210px" viewBox="0 0 900 210" version="1.1" xmlns="http://www.w3.org/2000/svg" xmlns:xlink="http://www.w3.org/1999/xlink">
    <!-- Generator: Sketch 53.2 (72643) - https://sketchapp.com -->
    <title>Floating_Button_Circuit</title>
    <desc>Created with Sketch.</desc>
    <g id="Floating_Button_Circuit" stroke="none" stroke-width="1" fill="none" fill-rule="evenodd">
        <g id="Illustration_Frame">
            <rect id="Rectangle" stroke="#3D3530" stroke-width="2" fill="#EEEEEE" x="1" y="1" width="898" height="208"></rect>
            <rect id="Rectangle-Copy" stroke="#3D3530" stroke-width="2" fill="#F8FAE4" x="1" y="166" width="898" height="43"></rect>
            <path d="M627.186666,180.456 L619.842666,180.456 L619.842666,186.168 L624.906666,186.168 L624.906666,187.752 L619.842666,187.752 L619.842666,195 L618.258666,195 L618.258666,178.872 L627.186666,178.872 L627.186666,180.456 Z M630.205333,195 L630.205333,177.144 L631.789333,177.144 L631.789333,195 L630.205333,195 Z M645.583999,193.368 C644.383993,194.584006 642.928008,195.192 641.215999,195.192 C639.503991,195.192 638.044005,194.588006 636.835999,193.38 C635.627993,192.171994 635.023999,190.712009 635.023999,189 C635.023999,187.287991 635.627993,185.828006 636.835999,184.62 C638.044005,183.411994 639.503991,182.808 641.215999,182.808 C642.928008,182.808 644.387993,183.411994 645.595999,184.62 C646.804005,185.828006 647.407999,187.287991 647.407999,189 C647.407999,190.696008 646.800005,192.151994 645.583999,193.368 Z M641.239999,193.68 C642.536006,193.68 643.627995,193.228005 644.515999,192.324 C645.404004,191.419995 645.847999,190.312007 645.847999,189 C645.847999,187.687993 645.404004,186.576005 644.515999,185.664 C643.627995,184.751995 642.536006,184.296 641.239999,184.296 C639.959993,184.296 638.872004,184.751995 637.975999,185.664 C637.079995,186.576005 636.631999,187.687993 636.631999,189 C636.631999,190.312007 637.079995,191.419995 637.975999,192.324 C638.872004,193.228005 639.959993,193.68 641.239999,193.68 Z M660.698666,183 L662.282666,183 L662.282666,195 L660.698666,195 L660.698666,193.056 C659.46666,194.480007 657.906675,195.192 656.018666,195.192 C654.306657,195.192 652.846672,194.588006 651.638666,193.38 C650.43066,192.171994 649.826666,190.712009 649.826666,189 C649.826666,187.287991 650.43066,185.828006 651.638666,184.62 C652.846672,183.411994 654.306657,182.808 656.018666,182.808 C657.922676,182.808 659.48266,183.519993 660.698666,184.944 L660.698666,183 Z M656.042666,193.68 C657.338672,193.68 658.430662,193.228005 659.318666,192.324 C660.20667,191.419995 660.650666,190.312007 660.650666,189 C660.650666,187.687993 660.20667,186.580005 659.318666,185.676 C658.430662,184.771995 657.338672,184.32 656.042666,184.32 C654.76266,184.32 653.670671,184.771995 652.766666,185.676 C651.862661,186.580005 651.410666,187.687993 651.410666,189 C651.410666,190.312007 651.862661,191.419995 652.766666,192.324 C653.670671,193.228005 654.76266,193.68 656.042666,193.68 Z M672.765333,192.312 L673.557333,193.536 C673.461332,193.664001 673.333333,193.815999 673.173333,193.992 C673.013332,194.168001 672.653335,194.411998 672.093333,194.724 C671.53333,195.036002 670.957336,195.192 670.365333,195.192 C669.357328,195.192 668.513336,194.892003 667.833333,194.292 C667.153329,193.691997 666.813333,192.824006 666.813333,191.688 L666.813333,184.44 L664.893333,184.44 L664.893333,182.976 L666.813333,182.976 L666.813333,179.184 L668.397333,178.992 L668.397333,182.976 L672.021333,182.976 L672.021333,184.44 L668.397333,184.44 L668.397333,191.328 C668.397333,192.064004 668.62533,192.647998 669.081333,193.08 C669.537335,193.512002 670.06133,193.728 670.653333,193.728 C671.021335,193.728 671.381331,193.616001 671.733333,193.392 C672.085334,193.167999 672.345332,192.948001 672.513333,192.732 C672.681334,192.515999 672.765333,192.376 672.765333,192.312 Z M677.991999,179.4 C677.815999,179.592001 677.592001,179.688 677.319999,179.688 C677.047998,179.688 676.82,179.592001 676.635999,179.4 C676.451998,179.207999 676.359999,178.984001 676.359999,178.728 C676.359999,178.471999 676.451998,178.248001 676.635999,178.056 C676.82,177.863999 677.047998,177.768 677.319999,177.768 C677.592001,177.768 677.819998,177.863999 678.003999,178.056 C678.188,178.248001 678.279999,178.471999 678.279999,178.728 C678.279999,178.984001 678.184,179.207999 677.991999,179.4 Z M676.527999,195 L676.527999,183 L678.111999,183 L678.111999,195 L676.527999,195 Z M687.874666,182.808 C689.266673,182.808 690.434661,183.299995 691.378666,184.284 C692.322671,185.268005 692.794666,186.479993 692.794666,187.92 L692.794666,195 L691.186666,195 L691.186666,187.968 C691.186666,186.943995 690.83867,186.072004 690.142666,185.352 C689.446663,184.631996 688.602671,184.272 687.610666,184.272 C686.618661,184.272 685.77467,184.631996 685.078666,185.352 C684.382663,186.072004 684.034666,186.943995 684.034666,187.968 L684.034666,195 L682.450666,195 L682.450666,183 L684.034666,183 L684.034666,184.776 C685.010671,183.463993 686.290658,182.808 687.874666,182.808 Z M706.733333,183.024 L708.341333,183.024 L708.341333,193.968 C708.325333,195.712009 707.697339,197.171994 706.457333,198.348 C705.217327,199.524006 703.781341,200.112 702.149333,200.112 C700.661325,200.112 699.393338,199.716004 698.345333,198.924 C697.297328,198.131996 696.589335,197.240005 696.221333,196.248 L697.517333,195.6 C697.821334,196.416004 698.397329,197.127997 699.245333,197.736 C700.093337,198.344003 701.061327,198.648 702.149333,198.648 C703.429339,198.648 704.513328,198.180005 705.401333,197.244 C706.289337,196.307995 706.741333,195.216006 706.757333,193.968 L706.733333,193.968 L706.733333,193.08 C705.517327,194.504007 703.957342,195.216 702.053333,195.216 C700.341324,195.216 698.881339,194.612006 697.673333,193.404 C696.465327,192.195994 695.861333,190.736009 695.861333,189.024 C695.861333,187.311991 696.465327,185.852006 697.673333,184.644 C698.881339,183.435994 700.341324,182.832 702.053333,182.832 C703.941342,182.832 705.501327,183.543993 706.733333,184.968 L706.733333,183.024 Z M702.077333,193.728 C703.373339,193.728 704.465328,193.276005 705.353333,192.372 C706.241337,191.467995 706.685333,190.360007 706.685333,189.048 C706.685333,187.735993 706.241337,186.628005 705.353333,185.724 C704.465328,184.819995 703.373339,184.368 702.077333,184.368 C700.797326,184.368 699.709337,184.819995 698.813333,185.724 C697.917328,186.628005 697.469333,187.735993 697.469333,189.048 C697.469333,190.360007 697.917328,191.467995 698.813333,192.372 C699.709337,193.276005 700.797326,193.728 702.077333,193.728 Z M719.682666,195 L719.682666,178.872 L725.154666,178.872 C726.962675,178.872 728.402661,179.295996 729.474666,180.144 C730.546672,180.992004 731.082666,182.047994 731.082666,183.312 C731.082666,184.096004 730.846669,184.807997 730.374666,185.448 C729.902664,186.088003 729.24267,186.583998 728.394666,186.936 C729.24267,187.288002 729.902664,187.783997 730.374666,188.424 C730.846669,189.064003 731.082666,189.783996 731.082666,190.584 C731.082666,191.848006 730.546672,192.899996 729.474666,193.74 C728.402661,194.580004 726.962675,195 725.154666,195 L719.682666,195 Z M721.266666,186.264 L725.154666,186.264 C726.450673,186.264 727.490662,185.984003 728.274666,185.424 C729.05867,184.863997 729.450666,184.168004 729.450666,183.336 C729.450666,182.487996 729.05867,181.784003 728.274666,181.224 C727.490662,180.663997 726.450673,180.384 725.154666,180.384 L721.266666,180.384 L721.266666,186.264 Z M721.266666,193.488 L725.154666,193.488 C726.450673,193.488 727.490662,193.208003 728.274666,192.648 C729.05867,192.087997 729.450666,191.384004 729.450666,190.536 C729.450666,189.703996 729.05867,189.008003 728.274666,188.448 C727.490662,187.887997 726.450673,187.608 725.154666,187.608 L721.266666,187.608 L721.266666,193.488 Z M742.909333,183 L744.493333,183 L744.493333,195 L742.909333,195 L742.909333,193.224 C741.933328,194.536007 740.653341,195.192 739.069333,195.192 C737.677326,195.192 736.509338,194.700005 735.565333,193.716 C734.621328,192.731995 734.149333,191.520007 734.149333,190.08 L734.149333,183 L735.781333,183 L735.781333,190.032 C735.781333,191.056005 736.125329,191.923996 736.813333,192.636 C737.501336,193.348004 738.341328,193.704 739.333333,193.704 C740.341338,193.704 741.189329,193.348004 741.877333,192.636 C742.565336,191.923996 742.909333,191.056005 742.909333,190.032 L742.909333,183 Z M755.168,192.312 L755.96,193.536 C755.863999,193.664001 755.736,193.815999 755.576,193.992 C755.415999,194.168001 755.056002,194.411998 754.496,194.724 C753.935997,195.036002 753.360003,195.192 752.768,195.192 C751.759995,195.192 750.916003,194.892003 750.236,194.292 C749.555996,193.691997 749.216,192.824006 749.216,191.688 L749.216,184.44 L747.296,184.44 L747.296,182.976 L749.216,182.976 L749.216,179.184 L750.8,178.992 L750.8,182.976 L754.424,182.976 L754.424,184.44 L750.8,184.44 L750.8,191.328 C750.8,192.064004 751.027997,192.647998 751.484,193.08 C751.940002,193.512002 752.463997,193.728 753.056,193.728 C753.424001,193.728 753.783998,193.616001 754.136,193.392 C754.488001,193.167999 754.747999,192.948001 754.916,192.732 C755.084,192.515999 755.168,192.376 755.168,192.312 Z M764.546666,192.312 L765.338666,193.536 C765.242666,193.664001 765.114667,193.815999 764.954666,193.992 C764.794665,194.168001 764.434669,194.411998 763.874666,194.724 C763.314663,195.036002 762.738669,195.192 762.146666,195.192 C761.138661,195.192 760.29467,194.892003 759.614666,194.292 C758.934663,193.691997 758.594666,192.824006 758.594666,191.688 L758.594666,184.44 L756.674666,184.44 L756.674666,182.976 L758.594666,182.976 L758.594666,179.184 L760.178666,178.992 L760.178666,182.976 L763.802666,182.976 L763.802666,184.44 L760.178666,184.44 L760.178666,191.328 C760.178666,192.064004 760.406664,192.647998 760.862666,193.08 C761.318669,193.512002 761.842663,193.728 762.434666,193.728 C762.802668,193.728 763.162665,193.616001 763.514666,193.392 C763.866668,193.167999 764.126665,192.948001 764.294666,192.732 C764.462667,192.515999 764.546666,192.376 764.546666,192.312 Z M777.357333,193.368 C776.157327,194.584006 774.701342,195.192 772.989333,195.192 C771.277324,195.192 769.817339,194.588006 768.609333,193.38 C767.401327,192.171994 766.797333,190.712009 766.797333,189 C766.797333,187.287991 767.401327,185.828006 768.609333,184.62 C769.817339,183.411994 771.277324,182.808 772.989333,182.808 C774.701342,182.808 776.161327,183.411994 777.369333,184.62 C778.577339,185.828006 779.181333,187.287991 779.181333,189 C779.181333,190.696008 778.573339,192.151994 777.357333,193.368 Z M773.013333,193.68 C774.309339,193.68 775.401329,193.228005 776.289333,192.324 C777.177337,191.419995 777.621333,190.312007 777.621333,189 C777.621333,187.687993 777.177337,186.576005 776.289333,185.664 C775.401329,184.751995 774.309339,184.296 773.013333,184.296 C771.733327,184.296 770.645337,184.751995 769.749333,185.664 C768.853329,186.576005 768.405333,187.687993 768.405333,189 C768.405333,190.312007 768.853329,191.419995 769.749333,192.324 C770.645337,193.228005 771.733327,193.68 773.013333,193.68 Z M787.648,182.808 C789.040007,182.808 790.207995,183.299995 791.152,184.284 C792.096004,185.268005 792.568,186.479993 792.568,187.92 L792.568,195 L790.96,195 L790.96,187.968 C790.96,186.943995 790.612003,186.072004 789.916,185.352 C789.219996,184.631996 788.376005,184.272 787.384,184.272 C786.391995,184.272 785.548003,184.631996 784.852,185.352 C784.155996,186.072004 783.808,186.943995 783.808,187.968 L783.808,195 L782.224,195 L782.224,183 L783.808,183 L783.808,184.776 C784.784005,183.463993 786.063992,182.808 787.648,182.808 Z M810.869333,195.192 C808.501321,195.192 806.61334,194.404008 805.205333,192.828 C803.797326,191.251992 803.093333,189.296012 803.093333,186.96 C803.093333,184.607988 803.797326,182.644008 805.205333,181.068 C806.61334,179.491992 808.501321,178.704 810.869333,178.704 C812.437341,178.704 813.801327,179.063996 814.961333,179.784 C816.121339,180.504004 817.02133,181.487994 817.661333,182.736 L816.173333,183.6 C815.661331,182.559995 814.945338,181.736003 814.025333,181.128 C813.105328,180.519997 812.053339,180.216 810.869333,180.216 C809.045324,180.216 807.585339,180.851994 806.489333,182.124 C805.393328,183.396006 804.845333,185.00799 804.845333,186.96 C804.845333,188.89601 805.393328,190.503994 806.489333,191.784 C807.585339,193.064006 809.045324,193.704 810.869333,193.704 C812.069339,193.704 813.129328,193.396003 814.049333,192.78 C814.969338,192.163997 815.677331,191.336005 816.173333,190.296 L817.661333,191.184 C817.02133,192.432006 816.121339,193.411996 814.961333,194.124 C813.801327,194.836004 812.437341,195.192 810.869333,195.192 Z M822.84,179.4 C822.663999,179.592001 822.440001,179.688 822.168,179.688 C821.895998,179.688 821.668001,179.592001 821.484,179.4 C821.299999,179.207999 821.208,178.984001 821.208,178.728 C821.208,178.471999 821.299999,178.248001 821.484,178.056 C821.668001,177.863999 821.895998,177.768 822.168,177.768 C822.440001,177.768 822.667999,177.863999 822.852,178.056 C823.036001,178.248001 823.128,178.471999 823.128,178.728 C823.128,178.984001 823.032001,179.207999 822.84,179.4 Z M821.376,195 L821.376,183 L822.96,183 L822.96,195 L821.376,195 Z M832.722666,182.808 C833.570671,182.808 834.346663,183.015998 835.050666,183.432 L834.498666,185.016 C833.826663,184.519998 833.14667,184.272 832.458666,184.272 C831.450661,184.272 830.60267,184.627996 829.914666,185.34 C829.226663,186.052004 828.882666,186.927995 828.882666,187.968 L828.882666,195 L827.298666,195 L827.298666,183 L828.882666,183 L828.882666,184.776 C829.858671,183.463993 831.138659,182.808 832.722666,182.808 Z M842.365333,195.192 C840.653325,195.192 839.193339,194.588006 837.985333,193.38 C836.777327,192.171994 836.173333,190.712009 836.173333,189 C836.173333,187.287991 836.777327,185.828006 837.985333,184.62 C839.193339,183.411994 840.653325,182.808 842.365333,182.808 C843.453339,182.808 844.465329,183.075997 845.401333,183.612 C846.337338,184.148003 847.07733,184.863996 847.621333,185.76 L846.181333,186.456 C845.749331,185.799997 845.197337,185.280002 844.525333,184.896 C843.85333,184.511998 843.133337,184.32 842.365333,184.32 C841.069327,184.32 839.977338,184.771995 839.089333,185.676 C838.201329,186.580005 837.757333,187.687993 837.757333,189 C837.757333,190.312007 838.201329,191.419995 839.089333,192.324 C839.977338,193.228005 841.069327,193.68 842.365333,193.68 C843.133337,193.68 843.85333,193.488002 844.525333,193.104 C845.197337,192.719998 845.749331,192.200003 846.181333,191.544 L847.621333,192.24 C847.07733,193.136004 846.337338,193.851997 845.401333,194.388 C844.465329,194.924003 843.453339,195.192 842.365333,195.192 Z M859.664,183 L861.248,183 L861.248,195 L859.664,195 L859.664,193.224 C858.687995,194.536007 857.408008,195.192 855.824,195.192 C854.431993,195.192 853.264005,194.700005 852.32,193.716 C851.375995,192.731995 850.904,191.520007 850.904,190.08 L850.904,183 L852.536,183 L852.536,190.032 C852.536,191.056005 852.879996,191.923996 853.568,192.636 C854.256003,193.348004 855.095995,193.704 856.088,193.704 C857.096005,193.704 857.943996,193.348004 858.632,192.636 C859.320003,191.923996 859.664,191.056005 859.664,190.032 L859.664,183 Z M867.050667,179.4 C866.874666,179.592001 866.650668,179.688 866.378667,179.688 C866.106665,179.688 865.878668,179.592001 865.694667,179.4 C865.510666,179.207999 865.418667,178.984001 865.418667,178.728 C865.418667,178.471999 865.510666,178.248001 865.694667,178.056 C865.878668,177.863999 866.106665,177.768 866.378667,177.768 C866.650668,177.768 866.878666,177.863999 867.062667,178.056 C867.246668,178.248001 867.338667,178.471999 867.338667,178.728 C867.338667,178.984001 867.242668,179.207999 867.050667,179.4 Z M865.586667,195 L865.586667,183 L867.170667,183 L867.170667,195 L865.586667,195 Z M877.653333,192.312 L878.445333,193.536 C878.349333,193.664001 878.221334,193.815999 878.061333,193.992 C877.901332,194.168001 877.541336,194.411998 876.981333,194.724 C876.42133,195.036002 875.845336,195.192 875.253333,195.192 C874.245328,195.192 873.401337,194.892003 872.721333,194.292 C872.04133,193.691997 871.701333,192.824006 871.701333,191.688 L871.701333,184.44 L869.781333,184.44 L869.781333,182.976 L871.701333,182.976 L871.701333,179.184 L873.285333,178.992 L873.285333,182.976 L876.909333,182.976 L876.909333,184.44 L873.285333,184.44 L873.285333,191.328 C873.285333,192.064004 873.513331,192.647998 873.969333,193.08 C874.425336,193.512002 874.94933,193.728 875.541333,193.728 C875.909335,193.728 876.269332,193.616001 876.621333,193.392 C876.973335,193.167999 877.233332,192.948001 877.401333,192.732 C877.569334,192.515999 877.653333,192.376 877.653333,192.312 Z" id="FloatingButtonCircuit" fill="#23ABE3" fill-rule="nonzero"></path>
        </g>
        <g id="Circuit" transform="translate(285.000000, 33.000000)">
            <g id="Output-Label" transform="translate(215.000000, 65.000000)">
                <rect id="Rectangle-Copy-2" stroke="#3D3530" stroke-width="2" fill="#E3F4FB" x="1" y="1" width="113" height="28" rx="5"></rect>
                <path d="M34.856,19 L29.36,19 L29.36,18.496 C30.160004,18.496 30.6759988,18.3280017 30.908,17.992 C31.1400012,17.6559983 31.256,16.888006 31.256,15.688 L31.256,14.488 C31.256,13.3039941 31.1400012,12.5440017 30.908,12.208 C30.6759988,11.8719983 30.160004,11.704 29.36,11.704 L29.36,11.2 L32.96,10.6 L32.96,15.688 C32.96,16.888006 33.0759988,17.6559983 33.308,17.992 C33.5400012,18.3280017 34.055996,18.496 34.856,18.496 L34.856,19 Z M33.152,7.168 C33.152,7.47200152 33.048001,7.72799896 32.84,7.936 C32.631999,8.14400104 32.3840014,8.248 32.096,8.248 C31.8079986,8.248 31.560001,8.14400104 31.352,7.936 C31.143999,7.72799896 31.04,7.47200152 31.04,7.168 C31.04,6.87999856 31.143999,6.63200104 31.352,6.424 C31.560001,6.21599896 31.8079986,6.112 32.096,6.112 C32.3840014,6.112 32.631999,6.21599896 32.84,6.424 C33.048001,6.63200104 33.152,6.87999856 33.152,7.168 Z M41.024,12.328 C41.9360046,11.1759942 43.0479934,10.6 44.36,10.6 C45.4000052,10.6 46.1799974,10.9279967 46.7,11.584 C47.2200026,12.2400033 47.48,13.1039946 47.48,14.176 L47.48,15.688 C47.48,16.888006 47.5959988,17.6559983 47.828,17.992 C48.0600012,18.3280017 48.575996,18.496 49.376,18.496 L49.376,19 L43.88,19 L43.88,18.496 C44.6640039,18.496 45.1759988,18.3240017 45.416,17.98 C45.6560012,17.6359983 45.776,16.8720059 45.776,15.688 L45.776,14.296 C45.776,12.5839914 45.1120066,11.728 43.784,11.728 C43.0959966,11.728 42.4640029,11.9679976 41.888,12.448 C41.3119971,12.9280024 41.024,13.4879968 41.024,14.128 L41.024,15.688 C41.024,16.9200062 41.119999,17.6959984 41.312,18.016 C41.504001,18.3360016 41.9679963,18.496 42.704,18.496 L42.704,19 L37.424,19 L37.424,18.496 C38.224004,18.496 38.7399988,18.3280017 38.972,17.992 C39.2040012,17.6559983 39.32,16.888006 39.32,15.688 L39.32,14.488 C39.32,13.3039941 39.2040012,12.5440017 38.972,12.208 C38.7399988,11.8719983 38.224004,11.704 37.424,11.704 L37.424,11.2 L40.616,10.6 C40.7600007,10.9040015 40.8959994,11.4799958 41.024,12.328 Z M59.552,17.488 C60.0160023,16.8319967 60.248,16.000005 60.248,14.992 C60.248,13.983995 60.0160023,13.1600032 59.552,12.52 C59.0879977,11.8799968 58.4160044,11.56 57.536,11.56 C56.9919973,11.56 56.5080021,11.7279983 56.084,12.064 C55.6599979,12.4000017 55.3280012,12.8559971 55.088,13.432 L55.088,16.528 C55.3280012,17.120003 55.6599979,17.5879983 56.084,17.932 C56.5080021,18.2760017 56.9919973,18.448 57.536,18.448 C58.4160044,18.448 59.0879977,18.1280032 59.552,17.488 Z M55.088,21.712 C55.088,22.8960059 55.2039988,23.6559983 55.436,23.992 C55.6680012,24.3280017 56.183996,24.496 56.984,24.496 L56.984,25 L51.488,25 L51.488,24.496 C52.288004,24.496 52.8039988,24.3320016 53.036,24.004 C53.2680012,23.6759984 53.384,22.912006 53.384,21.712 L53.384,14.488 C53.384,13.287994 53.2680012,12.5240016 53.036,12.196 C52.8039988,11.8679984 52.288004,11.704 51.488,11.704 L51.488,11.2 L54.704,10.6 C54.8000005,10.7760009 54.9199993,11.263996 55.064,12.064 C55.8800041,11.0879951 56.8719942,10.6 58.04,10.6 C59.1760057,10.6 60.1519959,11.0279957 60.968,11.884 C61.7840041,12.7400043 62.192,13.7759939 62.192,14.992 C62.192,16.2080061 61.7840041,17.2479957 60.968,18.112 C60.1519959,18.9760043 59.1760057,19.408 58.04,19.408 C56.8559941,19.408 55.8720039,18.9280048 55.088,17.968 L55.088,21.712 Z M76.616,18.808 L73.4,19.408 C73.2719994,19.1519987 73.1440006,18.6400038 73.016,17.872 C72.023995,18.8960051 70.9760055,19.408 69.872,19.408 C67.8879901,19.408 66.896,18.208012 66.896,15.808 L66.896,14.296 C66.896,13.095994 66.7800012,12.3280017 66.548,11.992 C66.3159988,11.6559983 65.800004,11.488 65,11.488 L65,11.008 L68.6,11.008 L68.6,15.688 C68.6,17.4000086 69.2079939,18.256 70.424,18.256 C70.9680027,18.256 71.535997,18.0280023 72.128,17.572 C72.720003,17.1159977 73.016,16.5520034 73.016,15.88 L73.016,14.296 C73.016,13.095994 72.9000012,12.3280017 72.668,11.992 C72.4359988,11.6559983 71.9120041,11.488 71.096,11.488 L71.096,11.008 L74.696,11.008 L74.696,15.496 C74.696,16.696006 74.8119988,17.4639983 75.044,17.8 C75.2760012,18.1360017 75.7999959,18.304 76.616,18.304 L76.616,18.808 Z M80.192,11.848 L78.944,11.848 L78.944,11.272 C79.6320034,11.1279993 80.1359984,10.8160024 80.456,10.336 C80.7760016,9.8559976 80.9839995,9.20000416 81.08,8.368 L81.896,8.368 L81.896,11.008 L83.984,11.008 L83.984,11.848 L81.896,11.848 L81.896,16.648 C81.896,17.8000058 82.2559964,18.376 82.976,18.376 C83.4400023,18.376 83.9599971,18.1040027 84.536,17.56 L84.944,17.968 C84.6079983,18.368002 84.2040024,18.6959987 83.732,18.952 C83.2599976,19.2080013 82.824002,19.336 82.424,19.336 C81.7359966,19.336 81.192002,19.1120022 80.792,18.664 C80.391998,18.2159978 80.192,17.5440045 80.192,16.648 L80.192,11.848 Z" id="input" fill="#B35E2C" fill-rule="nonzero"></path>
            </g>
            <g id="DC_Rail" transform="translate(11.000000, 30.000000)" stroke="#3D3530">
                <g transform="translate(15.000000, 25.500000) rotate(-90.000000) translate(-15.000000, -25.500000) translate(-10.500000, 10.500000)">
                    <path d="M-5.32907052e-15,15 L50,15" id="Path-2-Copy" stroke-width="3"></path>
                    <path d="M50,-4.26325641e-14 L50,30" id="Path-4" stroke-width="3"></path>
                </g>
            </g>
            <path d="M6.44,14.24 C6.32799944,14.3360005 6.18800084,14.483999 6.02,14.684 C5.85199916,14.884001 5.69600072,15.0439994 5.552,15.164 C5.40799928,15.2840006 5.26400072,15.344 5.12,15.344 C4.99199936,15.344 4.87600052,15.2920005 4.772,15.188 C4.66799948,15.0839995 4.616,14.9520008 4.616,14.792 C4.616,14.5039986 4.82399792,14.2080015 5.24,13.904 L7.016,12.488 C7.48000232,12.1359982 7.85999852,11.6840028 8.156,11.132 C8.45200148,10.5799972 8.6,10.008003 8.6,9.416 C8.6,8.74399664 8.3600024,8.208002 7.88,7.808 C7.3999976,7.407998 6.76800392,7.208 5.984,7.208 C5.15199584,7.208 4.4560028,7.55999648 3.896,8.264 C3.3359972,8.96800352 3.34399712,9.81599504 3.92,10.808 L3.2,11.552 C2.27199536,10.9919972 1.77200036,10.2840043 1.7,9.428 C1.62799964,8.57199572 1.991996,7.82000324 2.792,7.172 C3.592004,6.52399676 4.65599336,6.2 5.984,6.2 C7.21600616,6.2 8.28799544,6.49599704 9.2,7.088 C10.1120046,7.68000296 10.568,8.4559952 10.568,9.416 C10.568,9.76800176 10.4920008,10.1279982 10.34,10.496 C10.1879992,10.8640018 10.0040011,11.1759987 9.788,11.432 C9.57199892,11.6880013 9.35600108,11.9239989 9.14,12.14 C8.92399892,12.3560011 8.74400072,12.5199994 8.6,12.632 L8.36,12.776 L7.256,13.616 C8.40800576,13.8560012 9.31999664,14.3279965 9.992,15.032 C10.6640034,15.7360035 11,16.5519954 11,17.48 C11,18.5840055 10.5400046,19.5279961 9.62,20.312 C8.6999954,21.0960039 7.56800672,21.488 6.224,21.488 C4.92799352,21.488 3.86400416,21.1760031 3.032,20.552 C2.19999584,19.9279969 1.784,19.3360028 1.784,18.776 C1.784,18.4079982 1.99199792,18.224 2.408,18.224 C2.5680008,18.224 2.7079994,18.2959993 2.828,18.44 C2.9480006,18.5840007 3.08399924,18.7839987 3.236,19.04 C3.38800076,19.2960013 3.53599928,19.4959993 3.68,19.64 C4.27200296,20.2640031 5.05599512,20.576 6.032,20.576 C6.97600472,20.576 7.68399764,20.2920028 8.156,19.724 C8.62800236,19.1559972 8.864,18.4080046 8.864,17.48 C8.864,16.7119962 8.66800196,16.024003 8.276,15.416 C7.88399804,14.807997 7.27200416,14.4160009 6.44,14.24 Z M18.704,15.944 C18.704,16.2800017 18.5680014,16.5719988 18.296,16.82 C18.0239986,17.0680012 17.7040018,17.192 17.336,17.192 C16.9679982,17.192 16.6560013,17.0680012 16.4,16.82 C16.1439987,16.5719988 16.016,16.2800017 16.016,15.944 C16.016,15.5919982 16.1439987,15.2920012 16.4,15.044 C16.6560013,14.7959988 16.9679982,14.672 17.336,14.672 C17.7040018,14.672 18.0239986,14.7959988 18.296,15.044 C18.5680014,15.2920012 18.704,15.5919982 18.704,15.944 Z M28.544,14.24 C28.4319994,14.3360005 28.2920008,14.483999 28.124,14.684 C27.9559992,14.884001 27.8000007,15.0439994 27.656,15.164 C27.5119993,15.2840006 27.3680007,15.344 27.224,15.344 C27.0959994,15.344 26.9800005,15.2920005 26.876,15.188 C26.7719995,15.0839995 26.72,14.9520008 26.72,14.792 C26.72,14.5039986 26.9279979,14.2080015 27.344,13.904 L29.12,12.488 C29.5840023,12.1359982 29.9639985,11.6840028 30.26,11.132 C30.5560015,10.5799972 30.704,10.008003 30.704,9.416 C30.704,8.74399664 30.4640024,8.208002 29.984,7.808 C29.5039976,7.407998 28.8720039,7.208 28.088,7.208 C27.2559958,7.208 26.5600028,7.55999648 26,8.264 C25.4399972,8.96800352 25.4479971,9.81599504 26.024,10.808 L25.304,11.552 C24.3759954,10.9919972 23.8760004,10.2840043 23.804,9.428 C23.7319996,8.57199572 24.095996,7.82000324 24.896,7.172 C25.696004,6.52399676 26.7599934,6.2 28.088,6.2 C29.3200062,6.2 30.3919954,6.49599704 31.304,7.088 C32.2160046,7.68000296 32.672,8.4559952 32.672,9.416 C32.672,9.76800176 32.5960008,10.1279982 32.444,10.496 C32.2919992,10.8640018 32.1080011,11.1759987 31.892,11.432 C31.6759989,11.6880013 31.4600011,11.9239989 31.244,12.14 C31.0279989,12.3560011 30.8480007,12.5199994 30.704,12.632 L30.464,12.776 L29.36,13.616 C30.5120058,13.8560012 31.4239966,14.3279965 32.096,15.032 C32.7680034,15.7360035 33.104,16.5519954 33.104,17.48 C33.104,18.5840055 32.6440046,19.5279961 31.724,20.312 C30.8039954,21.0960039 29.6720067,21.488 28.328,21.488 C27.0319935,21.488 25.9680042,21.1760031 25.136,20.552 C24.3039958,19.9279969 23.888,19.3360028 23.888,18.776 C23.888,18.4079982 24.0959979,18.224 24.512,18.224 C24.6720008,18.224 24.8119994,18.2959993 24.932,18.44 C25.0520006,18.5840007 25.1879992,18.7839987 25.34,19.04 C25.4920008,19.2960013 25.6399993,19.4959993 25.784,19.64 C26.376003,20.2640031 27.1599951,20.576 28.136,20.576 C29.0800047,20.576 29.7879976,20.2920028 30.26,19.724 C30.7320024,19.1559972 30.968,18.4080046 30.968,17.48 C30.968,16.7119962 30.772002,16.024003 30.38,15.416 C29.987998,14.807997 29.3760042,14.4160009 28.544,14.24 Z M51.44,3.104 C50.4959953,3.104 49.8840014,3.21999884 49.604,3.452 C49.3239986,3.68400116 48.984002,4.26399536 48.584,5.192 L43.304,17.408 L42.992,17.408 L37.688,5.192 C37.287998,4.26399536 36.9480014,3.68400116 36.668,3.452 C36.3879986,3.21999884 35.7760047,3.104 34.832,3.104 L34.832,2.6 L41.48,2.6 L41.48,3.104 C40.487995,3.104 39.8520014,3.2439986 39.572,3.524 C39.2919986,3.8040014 39.3039985,4.27199672 39.608,4.928 L43.688,14.264 L47.72,4.928 C48.0240015,4.27199672 48.0360014,3.8040014 47.756,3.524 C47.4759986,3.2439986 46.840005,3.104 45.848,3.104 L45.848,2.6 L51.44,2.6 L51.44,3.104 Z" id="3.3V" fill="#524740" fill-rule="nonzero"></path>
            <g id="Pushbutton" transform="translate(85.000000, 62.000000)">
                <g>
                    <g id="Connection" transform="translate(0.000000, 13.000000)" fill="#3D3530">
                        <circle cx="5" cy="5" r="5"></circle>
                    </g>
                    <g id="Connection" transform="translate(60.000000, 13.000000)" fill="#3D3530">
                        <circle cx="5" cy="5" r="5"></circle>
                    </g>
                    <path d="M5,8 L65,8" id="Path" stroke="#3D3530" stroke-width="3"></path>
                    <rect id="Rectangle" fill="#3D3530" x="26" y="0" width="18" height="7"></rect>
                </g>
            </g>
            <path d="M25,80 L85,80" id="Path" stroke="#3D3530" stroke-width="2"></path>
            <path d="M155,80 L215,80" id="Path-Copy" stroke="#3D3530" stroke-width="2"></path>
        </g>
    </g>
</svg>