<?xml version="1.0" encoding="UTF-8"?>
<svg width="900px" height="300px" viewBox="0 0 900 300" version="1.1" xmlns="http://www.w3.org/2000/svg" xmlns:xlink="http://www.w3.org/1999/xlink">
    <!-- Generator: Sketch 60.1 (88133) - https://sketch.com -->
    <title>Ohms_Law_Pyramid</title>
    <desc>Created with Sketch.</desc>
    <g id="Ohms_Law_Pyramid" stroke="none" stroke-width="1" fill="none" fill-rule="evenodd">
        <g id="Illustration_Frame">
            <rect id="Rectangle" stroke="#3D3530" stroke-width="2" fill="#EEEEEE" x="1" y="1" width="898" height="298"></rect>
            <rect id="Rectangle-Copy" stroke="#3D3530" stroke-width="2" fill="#F8FAE4" x="1" y="256" width="898" height="43"></rect>
            <path d="M660.778666,285.192 C663.146666,285.192 665.026666,284.408 666.418666,282.84 C667.810666,281.272 668.506666,279.312 668.506666,276.96 C668.506666,274.608 667.810666,272.644 666.418666,271.068 C665.026666,269.492 663.146666,268.704 660.778666,268.704 C658.410666,268.704 656.526666,269.492 655.126666,271.068 C653.726666,272.644 653.026666,274.608 653.026666,276.96 C653.026666,279.312 653.726666,281.272 655.126666,282.84 C656.526666,284.408 658.410666,285.192 660.778666,285.192 Z M660.778666,283.704 C658.954666,283.704 657.490666,283.064 656.386666,281.784 C655.282666,280.504 654.730666,278.896 654.730666,276.96 C654.730666,275.024 655.282666,273.416 656.386666,272.136 C657.490666,270.856 658.954666,270.216 660.778666,270.216 C662.602666,270.216 664.070666,270.856 665.182666,272.136 C666.294666,273.416 666.850666,275.024 666.850666,276.96 C666.850666,278.88 666.294666,280.484 665.182666,281.772 C664.070666,283.06 662.602666,283.704 660.778666,283.704 Z M673.325333,285 L673.325333,277.968 C673.325333,276.944 673.673333,276.076 674.369333,275.364 C675.065333,274.652 675.909333,274.296 676.901333,274.296 C677.909333,274.296 678.757333,274.652 679.445333,275.364 C680.133333,276.076 680.477333,276.952 680.477333,277.992 L680.477333,277.992 L680.477333,285 L682.085333,285 L682.085333,277.968 C682.085333,276.528 681.613333,275.308 680.669333,274.308 C679.725333,273.308 678.557333,272.808 677.165333,272.808 C675.581333,272.808 674.301333,273.464 673.325333,274.776 L673.325333,274.776 L673.325333,267.144 L671.741333,267.144 L671.741333,285 L673.325333,285 Z M687.383999,285 L687.383999,277.968 C687.383999,276.944 687.731999,276.072 688.427999,275.352 C689.123999,274.632 689.967999,274.272 690.959999,274.272 C691.951999,274.272 692.795999,274.632 693.491999,275.352 C694.187999,276.072 694.535999,276.944 694.535999,277.968 L694.535999,277.968 L694.535999,285 L696.143999,285 L696.143999,277.968 C696.143999,276.928 696.487999,276.052 697.175999,275.34 C697.863999,274.628 698.711999,274.272 699.719999,274.272 C700.727999,274.272 701.571999,274.628 702.251999,275.34 C702.931999,276.052 703.271999,276.928 703.271999,277.968 L703.271999,277.968 L703.271999,285 L704.903999,285 L704.903999,277.92 C704.903999,276.48 704.431999,275.268 703.487999,274.284 C702.543999,273.3 701.375999,272.808 699.983999,272.808 C698.991999,272.808 698.103999,273.04 697.319999,273.504 C696.535999,273.968 695.935999,274.592 695.519999,275.376 C695.087999,274.592 694.491999,273.968 693.731999,273.504 C692.971999,273.04 692.135999,272.808 691.223999,272.808 C689.639999,272.808 688.359999,273.464 687.383999,274.776 L687.383999,274.776 L687.383999,273 L685.799999,273 L685.799999,285 L687.383999,285 Z M708.522666,273.504 L708.762666,270.12 L707.346666,270.12 L707.610666,273.504 L708.522666,273.504 Z M715.141333,285.192 C716.613333,285.192 717.717333,284.88 718.453333,284.256 C719.189333,283.632 719.557333,282.816 719.557333,281.808 C719.557333,281.088 719.293333,280.476 718.765333,279.972 C718.237333,279.468 717.593333,279.084 716.833333,278.82 C716.073333,278.556 715.317333,278.312 714.565333,278.088 C713.813333,277.864 713.173333,277.596 712.645333,277.284 C712.117333,276.972 711.853333,276.6 711.853333,276.168 C711.853333,275.56 712.121333,275.088 712.657333,274.752 C713.193333,274.416 713.893333,274.248 714.757333,274.248 C715.365333,274.248 715.973333,274.384 716.581333,274.656 C717.189333,274.928 717.593333,275.144 717.793333,275.304 C717.993333,275.464 718.149333,275.6 718.261333,275.712 L718.261333,275.712 L719.389333,274.728 L718.885333,274.248 C718.549333,273.928 717.997333,273.608 717.229333,273.288 C716.461333,272.968 715.645333,272.808 714.781333,272.808 C713.325333,272.808 712.225333,273.124 711.481333,273.756 C710.737333,274.388 710.365333,275.2 710.365333,276.192 C710.365333,276.912 710.629333,277.52 711.157333,278.016 C711.685333,278.512 712.329333,278.896 713.089333,279.168 C713.849333,279.44 714.605333,279.688 715.357333,279.912 C716.109333,280.136 716.749333,280.404 717.277333,280.716 C717.805333,281.028 718.069333,281.4 718.069333,281.832 C718.069333,282.44 717.805333,282.912 717.277333,283.248 C716.749333,283.584 716.045333,283.752 715.165333,283.752 C714.573333,283.752 713.973333,283.616 713.365333,283.344 C712.757333,283.072 712.353333,282.856 712.153333,282.696 C711.953333,282.536 711.797333,282.4 711.685333,282.288 L711.685333,282.288 L710.557333,283.248 L710.749333,283.464 C710.877333,283.592 711.077333,283.752 711.349333,283.944 C711.621333,284.136 711.929333,284.324 712.273333,284.508 C712.617333,284.692 713.045333,284.852 713.557333,284.988 C714.069333,285.124 714.597333,285.192 715.141333,285.192 Z M739.058666,285 L739.058666,283.416 L731.714666,283.416 L731.714666,268.872 L730.130666,268.872 L730.130666,285 L739.058666,285 Z M747.021333,285.192 C748.909333,285.192 750.469333,284.48 751.701333,283.056 L751.701333,283.056 L751.701333,285 L753.285333,285 L753.285333,273 L751.701333,273 L751.701333,274.944 C750.485333,273.52 748.925333,272.808 747.021333,272.808 C745.309333,272.808 743.849333,273.412 742.641333,274.62 C741.433333,275.828 740.829333,277.288 740.829333,279 C740.829333,280.712 741.433333,282.172 742.641333,283.38 C743.849333,284.588 745.309333,285.192 747.021333,285.192 Z M747.045333,283.68 C745.765333,283.68 744.673333,283.228 743.769333,282.324 C742.865333,281.42 742.413333,280.312 742.413333,279 C742.413333,277.688 742.865333,276.58 743.769333,275.676 C744.673333,274.772 745.765333,274.32 747.045333,274.32 C748.341333,274.32 749.433333,274.772 750.321333,275.676 C751.209333,276.58 751.653333,277.688 751.653333,279 C751.653333,280.312 751.209333,281.42 750.321333,282.324 C749.433333,283.228 748.341333,283.68 747.045333,283.68 Z M761.56,285 L764.944,275.112 L768.328,285 L769.912,285 L774.16,273 L772.576,273 L769.12,282.768 L765.664,273 L764.224,273 L760.768,282.768 L757.336,273 L755.752,273 L759.976,285 L761.56,285 Z M786.077333,285 L786.077333,278.904 L789.965333,278.904 C791.773333,278.904 793.213333,278.424 794.285333,277.464 C795.357333,276.504 795.893333,275.312 795.893333,273.888 C795.893333,272.448 795.357333,271.252 794.285333,270.3 C793.213333,269.348 791.773333,268.872 789.965333,268.872 L789.965333,268.872 L784.493333,268.872 L784.493333,285 L786.077333,285 Z M789.965333,277.392 L786.077333,277.392 L786.077333,270.384 L789.965333,270.384 C791.261333,270.384 792.301333,270.72 793.085333,271.392 C793.869333,272.064 794.261333,272.896 794.261333,273.888 C794.261333,274.896 793.869333,275.732 793.085333,276.396 C792.301333,277.06 791.261333,277.392 789.965333,277.392 L789.965333,277.392 Z M802.104,290.112 L808.656,273 L807.072,273 L803.784,281.568 L800.184,273 L798.6,273 L803.04,283.536 L800.52,290.112 L802.104,290.112 Z M813.162666,285 L813.162666,277.968 C813.162666,276.928 813.506666,276.052 814.194666,275.34 C814.882666,274.628 815.730666,274.272 816.738666,274.272 C817.426666,274.272 818.106666,274.52 818.778666,275.016 L818.778666,275.016 L819.330666,273.432 C818.626666,273.016 817.850666,272.808 817.002666,272.808 C815.418666,272.808 814.138666,273.464 813.162666,274.776 L813.162666,274.776 L813.162666,273 L811.578666,273 L811.578666,285 L813.162666,285 Z M826.645333,285.192 C828.533333,285.192 830.093333,284.48 831.325333,283.056 L831.325333,283.056 L831.325333,285 L832.909333,285 L832.909333,273 L831.325333,273 L831.325333,274.944 C830.109333,273.52 828.549333,272.808 826.645333,272.808 C824.933333,272.808 823.473333,273.412 822.265333,274.62 C821.057333,275.828 820.453333,277.288 820.453333,279 C820.453333,280.712 821.057333,282.172 822.265333,283.38 C823.473333,284.588 824.933333,285.192 826.645333,285.192 Z M826.669333,283.68 C825.389333,283.68 824.297333,283.228 823.393333,282.324 C822.489333,281.42 822.037333,280.312 822.037333,279 C822.037333,277.688 822.489333,276.58 823.393333,275.676 C824.297333,274.772 825.389333,274.32 826.669333,274.32 C827.965333,274.32 829.057333,274.772 829.945333,275.676 C830.833333,276.58 831.277333,277.688 831.277333,279 C831.277333,280.312 830.833333,281.42 829.945333,282.324 C829.057333,283.228 827.965333,283.68 826.669333,283.68 Z M838.4,285 L838.4,277.968 C838.4,276.944 838.748,276.072 839.444,275.352 C840.14,274.632 840.984,274.272 841.976,274.272 C842.968,274.272 843.812,274.632 844.508,275.352 C845.204,276.072 845.552,276.944 845.552,277.968 L845.552,277.968 L845.552,285 L847.16,285 L847.16,277.968 C847.16,276.928 847.504,276.052 848.192,275.34 C848.88,274.628 849.728,274.272 850.736,274.272 C851.744,274.272 852.588,274.628 853.268,275.34 C853.948,276.052 854.288,276.928 854.288,277.968 L854.288,277.968 L854.288,285 L855.92,285 L855.92,277.92 C855.92,276.48 855.448,275.268 854.504,274.284 C853.56,273.3 852.392,272.808 851,272.808 C850.008,272.808 849.12,273.04 848.336,273.504 C847.552,273.968 846.952,274.592 846.536,275.376 C846.104,274.592 845.508,273.968 844.748,273.504 C843.988,273.04 843.152,272.808 842.24,272.808 C840.656,272.808 839.376,273.464 838.4,274.776 L838.4,274.776 L838.4,273 L836.816,273 L836.816,285 L838.4,285 Z M860.858667,269.688 C861.130667,269.688 861.354667,269.592 861.530667,269.4 C861.722667,269.208 861.818667,268.984 861.818667,268.728 C861.818667,268.472 861.726667,268.248 861.542667,268.056 C861.358667,267.864 861.130667,267.768 860.858667,267.768 C860.586667,267.768 860.358667,267.864 860.174667,268.056 C859.990667,268.248 859.898667,268.472 859.898667,268.728 C859.898667,268.984 859.990667,269.208 860.174667,269.4 C860.358667,269.592 860.586667,269.688 860.858667,269.688 Z M861.650667,285 L861.650667,273 L860.066667,273 L860.066667,285 L861.650667,285 Z M871.317333,285.192 C873.205333,285.192 874.765333,284.48 875.997333,283.056 L875.997333,283.056 L875.997333,285 L877.581333,285 L877.581333,267.144 L875.997333,267.144 L875.997333,274.944 C874.781333,273.52 873.221333,272.808 871.317333,272.808 C869.605333,272.808 868.145333,273.412 866.937333,274.62 C865.729333,275.828 865.125333,277.288 865.125333,279 C865.125333,280.712 865.729333,282.172 866.937333,283.38 C868.145333,284.588 869.605333,285.192 871.317333,285.192 Z M871.341333,283.68 C870.045333,283.68 868.949333,283.232 868.053333,282.336 C867.157333,281.424 866.709333,280.312 866.709333,279 C866.709333,277.688 867.157333,276.58 868.053333,275.676 C868.949333,274.772 870.045333,274.32 871.341333,274.32 C872.637333,274.32 873.729333,274.772 874.617333,275.676 C875.505333,276.58 875.949333,277.688 875.949333,279 C875.949333,280.312 875.505333,281.42 874.617333,282.324 C873.729333,283.228 872.637333,283.68 871.341333,283.68 Z" id="Ohm'sLawPyramid" fill="#23ABE3" fill-rule="nonzero"></path>
        </g>
        <g transform="translate(304.000000, 19.000000)">
            <polygon id="Triangle" stroke="#555555" stroke-width="2" fill="#D8D8D8" points="147.569024 0 295.138049 215.246094 0 215.246094"></polygon>
            <path d="M116.956,96.408 L122.236,84.192 C122.636,83.264 122.976,82.684 123.256,82.452 C123.536,82.22 124.148,82.104 125.092,82.104 L125.092,82.104 L125.092,81.6 L119.5,81.6 L119.5,82.104 C120.492,82.104 121.128,82.244 121.408,82.524 C121.688,82.804 121.676,83.272 121.372,83.928 L121.372,83.928 L117.34,93.264 L113.26,83.928 C112.956,83.272 112.944,82.804 113.224,82.524 C113.504,82.244 114.14,82.104 115.132,82.104 L115.132,82.104 L115.132,81.6 L108.484,81.6 L108.484,82.104 C109.428,82.104 110.04,82.22 110.32,82.452 C110.6,82.684 110.94,83.264 111.34,84.192 L111.34,84.192 L116.644,96.408 L116.956,96.408 Z M137.188,98.664 L137.716,98.16 C137.204,97.584 136.78,97.084 136.444,96.66 C136.108,96.236 135.672,95.604 135.136,94.764 C134.6,93.924 134.188,93.008 133.9,92.016 C133.612,91.024 133.468,89.992 133.468,88.92 C133.468,87.848 133.612,86.816 133.9,85.824 C134.188,84.832 134.6,83.916 135.136,83.076 C135.672,82.236 136.108,81.604 136.444,81.18 C136.78,80.756 137.204,80.256 137.716,79.68 L137.716,79.68 L137.164,79.176 C133.58,82.136 131.788,85.384 131.788,88.92 C131.788,92.472 133.588,95.72 137.188,98.664 L137.188,98.664 Z M143.212,96.432 L145.924,89.904 C146.148,89.376 146.384,89.008 146.632,88.8 C146.88,88.592 147.212,88.488 147.628,88.488 L147.628,88.488 L147.628,88.008 L144.268,88.008 L144.268,88.488 C144.78,88.488 145.084,88.596 145.18,88.812 C145.276,89.028 145.204,89.392 144.964,89.904 L144.964,89.904 L143.38,93.744 L141.676,89.904 C141.436,89.328 141.364,88.948 141.46,88.764 C141.556,88.58 141.876,88.488 142.42,88.488 L142.42,88.488 L142.42,88.008 L138.172,88.008 L138.172,88.488 C138.556,88.488 138.864,88.592 139.096,88.8 C139.328,89.008 139.564,89.376 139.804,89.904 L139.804,89.904 L142.732,96.432 L143.212,96.432 Z M153.34,96.408 C154.668,96.408 155.808,95.976 156.76,95.112 C157.712,94.248 158.188,93.208 158.188,91.992 C158.188,90.776 157.708,89.744 156.748,88.896 C155.804,88.032 154.668,87.6 153.34,87.6 C152.012,87.6 150.872,88.028 149.92,88.884 C148.968,89.74 148.492,90.776 148.492,91.992 C148.492,93.208 148.968,94.248 149.92,95.112 C150.872,95.976 152.012,96.408 153.34,96.408 Z M153.34,95.472 C152.396,95.472 151.676,95.144 151.18,94.488 C150.684,93.832 150.436,93 150.436,91.992 C150.436,90.984 150.684,90.152 151.18,89.496 C151.676,88.84 152.396,88.512 153.34,88.512 C154.284,88.512 155.004,88.836 155.5,89.484 C155.996,90.132 156.244,90.968 156.244,91.992 C156.244,93.016 155.996,93.856 155.5,94.512 C155.004,95.152 154.284,95.472 153.34,95.472 Z M165.292,96 L165.292,95.496 C164.492,95.496 163.976,95.328 163.744,94.992 C163.512,94.656 163.396,93.888 163.396,92.688 L163.396,92.688 L163.396,81.192 L159.796,81.792 L159.796,82.296 C160.596,82.296 161.112,82.464 161.344,82.8 C161.576,83.136 161.692,83.904 161.692,85.104 L161.692,85.104 L161.692,92.688 C161.692,93.888 161.576,94.656 161.344,94.992 C161.112,95.328 160.596,95.496 159.796,95.496 L159.796,95.496 L159.796,96 L165.292,96 Z M169.924,96.336 C170.324,96.336 170.76,96.208 171.232,95.952 C171.704,95.696 172.108,95.368 172.444,94.968 L172.444,94.968 L172.036,94.56 C171.46,95.104 170.94,95.376 170.476,95.376 C169.756,95.376 169.396,94.8 169.396,93.648 L169.396,93.648 L169.396,88.848 L171.484,88.848 L171.484,88.008 L169.396,88.008 L169.396,85.368 L168.58,85.368 C168.484,86.2 168.276,86.856 167.956,87.336 C167.636,87.816 167.132,88.128 166.444,88.272 L166.444,88.272 L166.444,88.848 L167.692,88.848 L167.692,93.648 C167.692,94.544 167.892,95.216 168.292,95.664 C168.692,96.112 169.236,96.336 169.924,96.336 Z M174.508,96.408 C174.508,96.088 174.54,95.872 174.604,95.76 C174.668,95.648 174.78,95.62 174.94,95.676 C175.1,95.732 175.272,95.812 175.456,95.916 C175.64,96.02 175.884,96.128 176.188,96.24 C176.492,96.352 176.788,96.408 177.076,96.408 C177.876,96.408 178.552,96.164 179.104,95.676 C179.656,95.188 179.932,94.56 179.932,93.792 C179.932,92.88 179.38,92.112 178.276,91.488 L178.276,91.488 L177.124,90.864 C176.564,90.56 176.18,90.308 175.972,90.108 C175.764,89.908 175.66,89.672 175.66,89.4 C175.66,89.096 175.764,88.848 175.972,88.656 C176.18,88.464 176.484,88.368 176.884,88.368 C177.46,88.368 177.928,88.572 178.288,88.98 C178.648,89.388 178.828,89.856 178.828,90.384 L178.828,90.384 L179.332,90.384 L179.332,87.6 L178.828,87.6 C178.828,87.92 178.792,88.1 178.72,88.14 C178.648,88.18 178.516,88.144 178.324,88.032 C177.748,87.744 177.188,87.6 176.644,87.6 C176.004,87.6 175.44,87.808 174.952,88.224 C174.464,88.64 174.22,89.16 174.22,89.784 C174.22,90.808 174.748,91.608 175.804,92.184 L175.804,92.184 L177.148,92.904 C178.044,93.384 178.492,93.872 178.492,94.368 C178.492,94.704 178.36,94.992 178.096,95.232 C177.832,95.472 177.508,95.592 177.124,95.592 C176.34,95.592 175.708,95.3 175.228,94.716 C174.748,94.132 174.508,93.528 174.508,92.904 L174.508,92.904 L174.004,92.904 L174.004,96.408 L174.508,96.408 Z M182.236,98.664 C185.82,95.736 187.612,92.488 187.612,88.92 C187.612,85.368 185.828,82.12 182.26,79.176 L182.26,79.176 L181.684,79.68 C182.212,80.272 182.64,80.776 182.968,81.192 C183.296,81.608 183.732,82.236 184.276,83.076 C184.82,83.916 185.236,84.832 185.524,85.824 C185.812,86.816 185.956,87.848 185.956,88.92 C185.956,89.992 185.812,91.024 185.524,92.016 C185.236,93.008 184.82,93.924 184.276,94.764 C183.732,95.604 183.296,96.232 182.968,96.648 C182.64,97.064 182.212,97.568 181.684,98.16 L181.684,98.16 L182.236,98.664 Z" id="V(volts)" fill="#524740" fill-rule="nonzero"></path>
            <path d="M58.944,176 L58.944,175.496 C57.952,175.496 57.324,175.328 57.06,174.992 C56.796,174.656 56.664,173.888 56.664,172.688 L56.664,172.688 L56.664,164.888 C56.664,163.688 56.796,162.924 57.06,162.596 C57.324,162.268 57.952,162.104 58.944,162.104 L58.944,162.104 L58.944,161.6 L52.464,161.6 L52.464,162.104 C53.456,162.104 54.084,162.268 54.348,162.596 C54.612,162.924 54.744,163.688 54.744,164.888 L54.744,164.888 L54.744,172.688 C54.744,173.888 54.612,174.656 54.348,174.992 C54.084,175.328 53.456,175.496 52.464,175.496 L52.464,175.496 L52.464,176 L58.944,176 Z M72.84,178.664 L73.368,178.16 C72.856,177.584 72.432,177.084 72.096,176.66 C71.76,176.236 71.324,175.604 70.788,174.764 C70.252,173.924 69.84,173.008 69.552,172.016 C69.264,171.024 69.12,169.992 69.12,168.92 C69.12,167.848 69.264,166.816 69.552,165.824 C69.84,164.832 70.252,163.916 70.788,163.076 C71.324,162.236 71.76,161.604 72.096,161.18 C72.432,160.756 72.856,160.256 73.368,159.68 L73.368,159.68 L72.816,159.176 C69.232,162.136 67.44,165.384 67.44,168.92 C67.44,172.472 69.24,175.72 72.84,178.664 L72.84,178.664 Z M77.112,176.312 C78.04,176.312 79.04,175.832 80.112,174.872 C80.24,175.8 80.784,176.264 81.744,176.264 C82.336,176.264 82.864,176.016 83.328,175.52 L83.328,175.52 L82.992,175.064 C82.752,175.304 82.528,175.424 82.32,175.424 C81.952,175.424 81.768,175.112 81.768,174.488 L81.768,174.488 L81.768,170.864 C81.768,169.712 81.512,168.88 81,168.368 C80.488,167.856 79.648,167.6 78.48,167.6 C77.68,167.6 76.972,167.78 76.356,168.14 C75.74,168.5 75.432,168.96 75.432,169.52 C75.432,169.76 75.512,169.96 75.672,170.12 C75.832,170.28 76.032,170.36 76.272,170.36 C76.496,170.36 76.688,170.28 76.848,170.12 C77.008,169.96 77.088,169.76 77.088,169.52 C77.088,169.168 77.236,168.888 77.532,168.68 C77.828,168.472 78.136,168.368 78.456,168.368 C79.112,168.368 79.544,168.552 79.752,168.92 C79.96,169.288 80.064,169.944 80.064,170.888 C76.656,171.48 74.952,172.616 74.952,174.296 C74.952,174.92 75.16,175.412 75.576,175.772 C75.992,176.132 76.504,176.312 77.112,176.312 Z M77.88,175.232 C77.56,175.232 77.292,175.12 77.076,174.896 C76.86,174.672 76.752,174.376 76.752,174.008 C76.752,172.936 77.856,172.144 80.064,171.632 L80.064,171.632 L80.064,174.08 C79.2,174.848 78.472,175.232 77.88,175.232 Z M89.712,176 L89.712,175.496 C89.056,175.496 88.644,175.34 88.476,175.028 C88.308,174.716 88.224,173.936 88.224,172.688 L88.224,172.688 L88.224,171.128 C88.224,170.456 88.512,169.888 89.088,169.424 C89.664,168.96 90.2,168.728 90.696,168.728 C91.848,168.728 92.424,169.584 92.424,171.296 L92.424,171.296 L92.424,172.688 C92.424,173.952 92.34,174.736 92.172,175.04 C92.004,175.344 91.584,175.496 90.912,175.496 L90.912,175.496 L90.912,176 L95.616,176 L95.616,175.496 C94.944,175.496 94.524,175.344 94.356,175.04 C94.188,174.736 94.104,173.952 94.104,172.688 L94.104,172.688 L94.104,171.128 C94.104,170.456 94.396,169.888 94.98,169.424 C95.564,168.96 96.104,168.728 96.6,168.728 C97.736,168.728 98.304,169.584 98.304,171.296 L98.304,171.296 L98.304,172.688 C98.304,173.952 98.224,174.736 98.064,175.04 C97.904,175.344 97.488,175.496 96.816,175.496 L96.816,175.496 L96.816,176 L101.904,176 L101.904,175.496 C101.104,175.496 100.588,175.328 100.356,174.992 C100.124,174.656 100.008,173.888 100.008,172.688 L100.008,172.688 L100.008,171.176 C100.008,168.792 99.088,167.6 97.248,167.6 C96.592,167.6 95.948,167.788 95.316,168.164 C94.684,168.54 94.208,168.952 93.888,169.4 C93.52,168.2 92.672,167.6 91.344,167.6 C90.176,167.6 89.136,168.176 88.224,169.328 C88.096,168.48 87.96,167.904 87.816,167.6 L87.816,167.6 L84.624,168.2 L84.624,168.704 C85.424,168.704 85.94,168.872 86.172,169.208 C86.404,169.544 86.52,170.304 86.52,171.488 L86.52,171.488 L86.52,172.688 C86.52,173.888 86.404,174.656 86.172,174.992 C85.94,175.328 85.424,175.496 84.624,175.496 L84.624,175.496 L84.624,176 L89.712,176 Z M108.336,182 L108.336,181.496 C107.536,181.496 107.02,181.328 106.788,180.992 C106.556,180.656 106.44,179.896 106.44,178.712 L106.44,178.712 L106.44,174.968 C107.224,175.928 108.208,176.408 109.392,176.408 C110.528,176.408 111.504,175.976 112.32,175.112 C113.136,174.248 113.544,173.208 113.544,171.992 C113.544,170.776 113.136,169.74 112.32,168.884 C111.504,168.028 110.528,167.6 109.392,167.6 C108.224,167.6 107.232,168.088 106.416,169.064 C106.272,168.264 106.152,167.776 106.056,167.6 L106.056,167.6 L102.84,168.2 L102.84,168.704 C103.64,168.704 104.156,168.868 104.388,169.196 C104.62,169.524 104.736,170.288 104.736,171.488 L104.736,171.488 L104.736,178.712 C104.736,179.912 104.62,180.676 104.388,181.004 C104.156,181.332 103.64,181.496 102.84,181.496 L102.84,181.496 L102.84,182 L108.336,182 Z M108.888,175.448 C108.344,175.448 107.86,175.276 107.436,174.932 C107.012,174.588 106.68,174.12 106.44,173.528 L106.44,173.528 L106.44,170.432 C106.68,169.856 107.012,169.4 107.436,169.064 C107.86,168.728 108.344,168.56 108.888,168.56 C109.768,168.56 110.44,168.88 110.904,169.52 C111.368,170.16 111.6,170.984 111.6,171.992 C111.6,173 111.368,173.832 110.904,174.488 C110.44,175.128 109.768,175.448 108.888,175.448 Z M116.352,176.408 C116.352,176.088 116.384,175.872 116.448,175.76 C116.512,175.648 116.624,175.62 116.784,175.676 C116.944,175.732 117.116,175.812 117.3,175.916 C117.484,176.02 117.728,176.128 118.032,176.24 C118.336,176.352 118.632,176.408 118.92,176.408 C119.72,176.408 120.396,176.164 120.948,175.676 C121.5,175.188 121.776,174.56 121.776,173.792 C121.776,172.88 121.224,172.112 120.12,171.488 L120.12,171.488 L118.968,170.864 C118.408,170.56 118.024,170.308 117.816,170.108 C117.608,169.908 117.504,169.672 117.504,169.4 C117.504,169.096 117.608,168.848 117.816,168.656 C118.024,168.464 118.328,168.368 118.728,168.368 C119.304,168.368 119.772,168.572 120.132,168.98 C120.492,169.388 120.672,169.856 120.672,170.384 L120.672,170.384 L121.176,170.384 L121.176,167.6 L120.672,167.6 C120.672,167.92 120.636,168.1 120.564,168.14 C120.492,168.18 120.36,168.144 120.168,168.032 C119.592,167.744 119.032,167.6 118.488,167.6 C117.848,167.6 117.284,167.808 116.796,168.224 C116.308,168.64 116.064,169.16 116.064,169.784 C116.064,170.808 116.592,171.608 117.648,172.184 L117.648,172.184 L118.992,172.904 C119.888,173.384 120.336,173.872 120.336,174.368 C120.336,174.704 120.204,174.992 119.94,175.232 C119.676,175.472 119.352,175.592 118.968,175.592 C118.184,175.592 117.552,175.3 117.072,174.716 C116.592,174.132 116.352,173.528 116.352,172.904 L116.352,172.904 L115.848,172.904 L115.848,176.408 L116.352,176.408 Z M124.08,178.664 C127.664,175.736 129.456,172.488 129.456,168.92 C129.456,165.368 127.672,162.12 124.104,159.176 L124.104,159.176 L123.528,159.68 C124.056,160.272 124.484,160.776 124.812,161.192 C125.14,161.608 125.576,162.236 126.12,163.076 C126.664,163.916 127.08,164.832 127.368,165.824 C127.656,166.816 127.8,167.848 127.8,168.92 C127.8,169.992 127.656,171.024 127.368,172.016 C127.08,173.008 126.664,173.924 126.12,174.764 C125.576,175.604 125.14,176.232 124.812,176.648 C124.484,177.064 124.056,177.568 123.528,178.16 L123.528,178.16 L124.08,178.664 Z" id="I(amps)" fill="#524740" fill-rule="nonzero"></path>
            <path d="M167.384,176 L167.384,175.496 C166.392,175.496 165.764,175.328 165.5,174.992 C165.236,174.656 165.104,173.888 165.104,172.688 L165.104,172.688 L165.104,169.688 L166.232,169.688 L170.984,176 L174.944,176 L174.944,175.496 C173.536,175.336 172.048,174.32 170.48,172.448 L170.48,172.448 L168.128,169.688 C169.456,169.544 170.5,169.104 171.26,168.368 C172.02,167.632 172.4,166.728 172.4,165.656 C172.4,164.488 171.944,163.52 171.032,162.752 C170.12,161.984 168.856,161.6 167.24,161.6 L167.24,161.6 L160.904,161.6 L160.904,162.104 C161.896,162.104 162.524,162.268 162.788,162.596 C163.052,162.924 163.184,163.688 163.184,164.888 L163.184,164.888 L163.184,172.688 C163.184,173.888 163.052,174.656 162.788,174.992 C162.524,175.328 161.896,175.496 160.904,175.496 L160.904,175.496 L160.904,176 L167.384,176 Z M167.216,168.824 L165.104,168.824 L165.104,162.488 L167.216,162.488 C168.208,162.488 168.964,162.784 169.484,163.376 C170.004,163.968 170.264,164.728 170.264,165.656 C170.264,166.584 170.004,167.344 169.484,167.936 C168.964,168.528 168.208,168.824 167.216,168.824 L167.216,168.824 Z M187.856,178.664 L188.384,178.16 C187.872,177.584 187.448,177.084 187.112,176.66 C186.776,176.236 186.34,175.604 185.804,174.764 C185.268,173.924 184.856,173.008 184.568,172.016 C184.28,171.024 184.136,169.992 184.136,168.92 C184.136,167.848 184.28,166.816 184.568,165.824 C184.856,164.832 185.268,163.916 185.804,163.076 C186.34,162.236 186.776,161.604 187.112,161.18 C187.448,160.756 187.872,160.256 188.384,159.68 L188.384,159.68 L187.832,159.176 C184.248,162.136 182.456,165.384 182.456,168.92 C182.456,172.472 184.256,175.72 187.856,178.664 L187.856,178.664 Z M195.056,176.408 C196.384,176.408 197.524,175.976 198.476,175.112 C199.428,174.248 199.904,173.208 199.904,171.992 C199.904,170.776 199.424,169.744 198.464,168.896 C197.52,168.032 196.384,167.6 195.056,167.6 C193.728,167.6 192.588,168.028 191.636,168.884 C190.684,169.74 190.208,170.776 190.208,171.992 C190.208,173.208 190.684,174.248 191.636,175.112 C192.588,175.976 193.728,176.408 195.056,176.408 Z M195.056,175.472 C194.112,175.472 193.392,175.144 192.896,174.488 C192.4,173.832 192.152,173 192.152,171.992 C192.152,170.984 192.4,170.152 192.896,169.496 C193.392,168.84 194.112,168.512 195.056,168.512 C196,168.512 196.72,168.836 197.216,169.484 C197.712,170.132 197.96,170.968 197.96,171.992 C197.96,173.016 197.712,173.856 197.216,174.512 C196.72,175.152 196,175.472 195.056,175.472 Z M206.624,176 L206.624,175.496 C205.968,175.496 205.552,175.34 205.376,175.028 C205.2,174.716 205.112,173.936 205.112,172.688 L205.112,172.688 L205.112,171.128 C205.112,170.472 205.384,169.908 205.928,169.436 C206.472,168.964 207.064,168.728 207.704,168.728 C208.92,168.728 209.528,169.584 209.528,171.296 L209.528,171.296 L209.528,172.688 C209.528,173.92 209.432,174.696 209.24,175.016 C209.048,175.336 208.576,175.496 207.824,175.496 L207.824,175.496 L207.824,176 L213.128,176 L213.128,175.496 C212.312,175.496 211.788,175.328 211.556,174.992 C211.324,174.656 211.208,173.888 211.208,172.688 L211.208,172.688 L211.208,171.176 C211.208,168.792 210.224,167.6 208.256,167.6 C207.104,167.6 206.056,168.176 205.112,169.328 L205.112,169.328 L205.112,161.192 L201.512,161.792 L201.512,162.296 C202.312,162.296 202.828,162.464 203.06,162.8 C203.292,163.136 203.408,163.904 203.408,165.104 L203.408,165.104 L203.408,172.688 C203.408,173.888 203.292,174.656 203.06,174.992 C202.828,175.328 202.312,175.496 201.512,175.496 L201.512,175.496 L201.512,176 L206.624,176 Z M219.584,176 L219.584,175.496 C218.928,175.496 218.516,175.34 218.348,175.028 C218.18,174.716 218.096,173.936 218.096,172.688 L218.096,172.688 L218.096,171.128 C218.096,170.456 218.384,169.888 218.96,169.424 C219.536,168.96 220.072,168.728 220.568,168.728 C221.72,168.728 222.296,169.584 222.296,171.296 L222.296,171.296 L222.296,172.688 C222.296,173.952 222.212,174.736 222.044,175.04 C221.876,175.344 221.456,175.496 220.784,175.496 L220.784,175.496 L220.784,176 L225.488,176 L225.488,175.496 C224.816,175.496 224.396,175.344 224.228,175.04 C224.06,174.736 223.976,173.952 223.976,172.688 L223.976,172.688 L223.976,171.128 C223.976,170.456 224.268,169.888 224.852,169.424 C225.436,168.96 225.976,168.728 226.472,168.728 C227.608,168.728 228.176,169.584 228.176,171.296 L228.176,171.296 L228.176,172.688 C228.176,173.952 228.096,174.736 227.936,175.04 C227.776,175.344 227.36,175.496 226.688,175.496 L226.688,175.496 L226.688,176 L231.776,176 L231.776,175.496 C230.976,175.496 230.46,175.328 230.228,174.992 C229.996,174.656 229.88,173.888 229.88,172.688 L229.88,172.688 L229.88,171.176 C229.88,168.792 228.96,167.6 227.12,167.6 C226.464,167.6 225.82,167.788 225.188,168.164 C224.556,168.54 224.08,168.952 223.76,169.4 C223.392,168.2 222.544,167.6 221.216,167.6 C220.048,167.6 219.008,168.176 218.096,169.328 C217.968,168.48 217.832,167.904 217.688,167.6 L217.688,167.6 L214.496,168.2 L214.496,168.704 C215.296,168.704 215.812,168.872 216.044,169.208 C216.276,169.544 216.392,170.304 216.392,171.488 L216.392,171.488 L216.392,172.688 C216.392,173.888 216.276,174.656 216.044,174.992 C215.812,175.328 215.296,175.496 214.496,175.496 L214.496,175.496 L214.496,176 L219.584,176 Z M233.912,176.408 C233.912,176.088 233.944,175.872 234.008,175.76 C234.072,175.648 234.184,175.62 234.344,175.676 C234.504,175.732 234.676,175.812 234.86,175.916 C235.044,176.02 235.288,176.128 235.592,176.24 C235.896,176.352 236.192,176.408 236.48,176.408 C237.28,176.408 237.956,176.164 238.508,175.676 C239.06,175.188 239.336,174.56 239.336,173.792 C239.336,172.88 238.784,172.112 237.68,171.488 L237.68,171.488 L236.528,170.864 C235.968,170.56 235.584,170.308 235.376,170.108 C235.168,169.908 235.064,169.672 235.064,169.4 C235.064,169.096 235.168,168.848 235.376,168.656 C235.584,168.464 235.888,168.368 236.288,168.368 C236.864,168.368 237.332,168.572 237.692,168.98 C238.052,169.388 238.232,169.856 238.232,170.384 L238.232,170.384 L238.736,170.384 L238.736,167.6 L238.232,167.6 C238.232,167.92 238.196,168.1 238.124,168.14 C238.052,168.18 237.92,168.144 237.728,168.032 C237.152,167.744 236.592,167.6 236.048,167.6 C235.408,167.6 234.844,167.808 234.356,168.224 C233.868,168.64 233.624,169.16 233.624,169.784 C233.624,170.808 234.152,171.608 235.208,172.184 L235.208,172.184 L236.552,172.904 C237.448,173.384 237.896,173.872 237.896,174.368 C237.896,174.704 237.764,174.992 237.5,175.232 C237.236,175.472 236.912,175.592 236.528,175.592 C235.744,175.592 235.112,175.3 234.632,174.716 C234.152,174.132 233.912,173.528 233.912,172.904 L233.912,172.904 L233.408,172.904 L233.408,176.408 L233.912,176.408 Z M241.64,178.664 C245.224,175.736 247.016,172.488 247.016,168.92 C247.016,165.368 245.232,162.12 241.664,159.176 L241.664,159.176 L241.088,159.68 C241.616,160.272 242.044,160.776 242.372,161.192 C242.7,161.608 243.136,162.236 243.68,163.076 C244.224,163.916 244.64,164.832 244.928,165.824 C245.216,166.816 245.36,167.848 245.36,168.92 C245.36,169.992 245.216,171.024 244.928,172.016 C244.64,173.008 244.224,173.924 243.68,174.764 C243.136,175.604 242.7,176.232 242.372,176.648 C242.044,177.064 241.616,177.568 241.088,178.16 L241.088,178.16 L241.64,178.664 Z" id="R(ohms)" fill="#524740" fill-rule="nonzero"></path>
            <line x1="70.5" y1="114" x2="224.5" y2="114" id="Line-7" stroke="#555555" stroke-width="2" stroke-linecap="round"></line>
            <line x1="144" y1="114.5" x2="144" y2="214.5" id="Line-8" stroke="#555555" stroke-width="2" stroke-linecap="square"></line>
        </g>
    </g>
</svg>