<?xml version="1.0" encoding="UTF-8"?>
<svg width="900px" height="300px" viewBox="0 0 900 300" version="1.1" xmlns="http://www.w3.org/2000/svg" xmlns:xlink="http://www.w3.org/1999/xlink">
    <!-- Generator: Sketch 60.1 (88133) - https://sketch.com -->
    <title>Ohms_Circuit</title>
    <desc>Created with Sketch.</desc>
    <g id="Ohms_Circuit" stroke="none" stroke-width="1" fill="none" fill-rule="evenodd">
        <g id="Illustration_Frame">
            <rect id="Rectangle" stroke="#3D3530" stroke-width="2" fill="#EEEEEE" x="1" y="1" width="898" height="298"></rect>
            <rect id="Rectangle-Copy" stroke="#3D3530" stroke-width="2" fill="#F8FAE4" x="1" y="256" width="898" height="43"></rect>
            <path d="M734.365333,285.192 C736.733333,285.192 738.613333,284.408 740.005333,282.84 C741.397333,281.272 742.093333,279.312 742.093333,276.96 C742.093333,274.608 741.397333,272.644 740.005333,271.068 C738.613333,269.492 736.733333,268.704 734.365333,268.704 C731.997333,268.704 730.113333,269.492 728.713333,271.068 C727.313333,272.644 726.613333,274.608 726.613333,276.96 C726.613333,279.312 727.313333,281.272 728.713333,282.84 C730.113333,284.408 731.997333,285.192 734.365333,285.192 Z M734.365333,283.704 C732.541333,283.704 731.077333,283.064 729.973333,281.784 C728.869333,280.504 728.317333,278.896 728.317333,276.96 C728.317333,275.024 728.869333,273.416 729.973333,272.136 C731.077333,270.856 732.541333,270.216 734.365333,270.216 C736.189333,270.216 737.657333,270.856 738.769333,272.136 C739.881333,273.416 740.437333,275.024 740.437333,276.96 C740.437333,278.88 739.881333,280.484 738.769333,281.772 C737.657333,283.06 736.189333,283.704 734.365333,283.704 Z M746.912,285 L746.912,277.968 C746.912,276.944 747.26,276.076 747.956,275.364 C748.652,274.652 749.496,274.296 750.488,274.296 C751.496,274.296 752.344,274.652 753.032,275.364 C753.72,276.076 754.064,276.952 754.064,277.992 L754.064,277.992 L754.064,285 L755.672,285 L755.672,277.968 C755.672,276.528 755.2,275.308 754.256,274.308 C753.312,273.308 752.144,272.808 750.752,272.808 C749.168,272.808 747.888,273.464 746.912,274.776 L746.912,274.776 L746.912,267.144 L745.328,267.144 L745.328,285 L746.912,285 Z M760.970666,285 L760.970666,277.968 C760.970666,276.944 761.318666,276.072 762.014666,275.352 C762.710666,274.632 763.554666,274.272 764.546666,274.272 C765.538666,274.272 766.382666,274.632 767.078666,275.352 C767.774666,276.072 768.122666,276.944 768.122666,277.968 L768.122666,277.968 L768.122666,285 L769.730666,285 L769.730666,277.968 C769.730666,276.928 770.074666,276.052 770.762666,275.34 C771.450666,274.628 772.298666,274.272 773.306666,274.272 C774.314666,274.272 775.158666,274.628 775.838666,275.34 C776.518666,276.052 776.858666,276.928 776.858666,277.968 L776.858666,277.968 L776.858666,285 L778.490666,285 L778.490666,277.92 C778.490666,276.48 778.018666,275.268 777.074666,274.284 C776.130666,273.3 774.962666,272.808 773.570666,272.808 C772.578666,272.808 771.690666,273.04 770.906666,273.504 C770.122666,273.968 769.522666,274.592 769.106666,275.376 C768.674666,274.592 768.078666,273.968 767.318666,273.504 C766.558666,273.04 765.722666,272.808 764.810666,272.808 C763.226666,272.808 761.946666,273.464 760.970666,274.776 L760.970666,274.776 L760.970666,273 L759.386666,273 L759.386666,285 L760.970666,285 Z M782.109333,273.504 L782.349333,270.12 L780.933333,270.12 L781.197333,273.504 L782.109333,273.504 Z M788.728,285.192 C790.2,285.192 791.304,284.88 792.04,284.256 C792.776,283.632 793.144,282.816 793.144,281.808 C793.144,281.088 792.88,280.476 792.352,279.972 C791.824,279.468 791.18,279.084 790.42,278.82 C789.66,278.556 788.904,278.312 788.152,278.088 C787.4,277.864 786.76,277.596 786.232,277.284 C785.704,276.972 785.44,276.6 785.44,276.168 C785.44,275.56 785.708,275.088 786.244,274.752 C786.78,274.416 787.48,274.248 788.344,274.248 C788.952,274.248 789.56,274.384 790.168,274.656 C790.776,274.928 791.18,275.144 791.38,275.304 C791.58,275.464 791.736,275.6 791.848,275.712 L791.848,275.712 L792.976,274.728 L792.472,274.248 C792.136,273.928 791.584,273.608 790.816,273.288 C790.048,272.968 789.232,272.808 788.368,272.808 C786.912,272.808 785.812,273.124 785.068,273.756 C784.324,274.388 783.952,275.2 783.952,276.192 C783.952,276.912 784.216,277.52 784.744,278.016 C785.272,278.512 785.916,278.896 786.676,279.168 C787.436,279.44 788.192,279.688 788.944,279.912 C789.696,280.136 790.336,280.404 790.864,280.716 C791.392,281.028 791.656,281.4 791.656,281.832 C791.656,282.44 791.392,282.912 790.864,283.248 C790.336,283.584 789.632,283.752 788.752,283.752 C788.16,283.752 787.56,283.616 786.952,283.344 C786.344,283.072 785.94,282.856 785.74,282.696 C785.54,282.536 785.384,282.4 785.272,282.288 L785.272,282.288 L784.144,283.248 L784.336,283.464 C784.464,283.592 784.664,283.752 784.936,283.944 C785.208,284.136 785.516,284.324 785.86,284.508 C786.204,284.692 786.632,284.852 787.144,284.988 C787.656,285.124 788.184,285.192 788.728,285.192 Z M810.869333,285.192 C812.437333,285.192 813.801333,284.836 814.961333,284.124 C816.121333,283.412 817.021333,282.432 817.661333,281.184 L817.661333,281.184 L816.173333,280.296 C815.677333,281.336 814.969333,282.164 814.049333,282.78 C813.129333,283.396 812.069333,283.704 810.869333,283.704 C809.045333,283.704 807.585333,283.064 806.489333,281.784 C805.393333,280.504 804.845333,278.896 804.845333,276.96 C804.845333,275.008 805.393333,273.396 806.489333,272.124 C807.585333,270.852 809.045333,270.216 810.869333,270.216 C812.053333,270.216 813.105333,270.52 814.025333,271.128 C814.945333,271.736 815.661333,272.56 816.173333,273.6 L816.173333,273.6 L817.661333,272.736 C817.021333,271.488 816.121333,270.504 814.961333,269.784 C813.801333,269.064 812.437333,268.704 810.869333,268.704 C808.501333,268.704 806.613333,269.492 805.205333,271.068 C803.797333,272.644 803.093333,274.608 803.093333,276.96 C803.093333,279.296 803.797333,281.252 805.205333,282.828 C806.613333,284.404 808.501333,285.192 810.869333,285.192 Z M822.168,269.688 C822.44,269.688 822.664,269.592 822.84,269.4 C823.032,269.208 823.128,268.984 823.128,268.728 C823.128,268.472 823.036,268.248 822.852,268.056 C822.668,267.864 822.44,267.768 822.168,267.768 C821.896,267.768 821.668,267.864 821.484,268.056 C821.3,268.248 821.208,268.472 821.208,268.728 C821.208,268.984 821.3,269.208 821.484,269.4 C821.668,269.592 821.896,269.688 822.168,269.688 Z M822.96,285 L822.96,273 L821.376,273 L821.376,285 L822.96,285 Z M828.882666,285 L828.882666,277.968 C828.882666,276.928 829.226666,276.052 829.914666,275.34 C830.602666,274.628 831.450666,274.272 832.458666,274.272 C833.146666,274.272 833.826666,274.52 834.498666,275.016 L834.498666,275.016 L835.050666,273.432 C834.346666,273.016 833.570666,272.808 832.722666,272.808 C831.138666,272.808 829.858666,273.464 828.882666,274.776 L828.882666,274.776 L828.882666,273 L827.298666,273 L827.298666,285 L828.882666,285 Z M842.365333,285.192 C843.453333,285.192 844.465333,284.924 845.401333,284.388 C846.337333,283.852 847.077333,283.136 847.621333,282.24 L847.621333,282.24 L846.181333,281.544 C845.749333,282.2 845.197333,282.72 844.525333,283.104 C843.853333,283.488 843.133333,283.68 842.365333,283.68 C841.069333,283.68 839.977333,283.228 839.089333,282.324 C838.201333,281.42 837.757333,280.312 837.757333,279 C837.757333,277.688 838.201333,276.58 839.089333,275.676 C839.977333,274.772 841.069333,274.32 842.365333,274.32 C843.133333,274.32 843.853333,274.512 844.525333,274.896 C845.197333,275.28 845.749333,275.8 846.181333,276.456 L846.181333,276.456 L847.621333,275.76 C847.077333,274.864 846.337333,274.148 845.401333,273.612 C844.465333,273.076 843.453333,272.808 842.365333,272.808 C840.653333,272.808 839.193333,273.412 837.985333,274.62 C836.777333,275.828 836.173333,277.288 836.173333,279 C836.173333,280.712 836.777333,282.172 837.985333,283.38 C839.193333,284.588 840.653333,285.192 842.365333,285.192 Z M855.824,285.192 C857.408,285.192 858.688,284.536 859.664,283.224 L859.664,283.224 L859.664,285 L861.248,285 L861.248,273 L859.664,273 L859.664,280.032 C859.664,281.056 859.32,281.924 858.632,282.636 C857.944,283.348 857.096,283.704 856.088,283.704 C855.096,283.704 854.256,283.348 853.568,282.636 C852.88,281.924 852.536,281.056 852.536,280.032 L852.536,280.032 L852.536,273 L850.904,273 L850.904,280.08 C850.904,281.52 851.376,282.732 852.32,283.716 C853.264,284.7 854.432,285.192 855.824,285.192 Z M866.378667,269.688 C866.650667,269.688 866.874667,269.592 867.050667,269.4 C867.242667,269.208 867.338667,268.984 867.338667,268.728 C867.338667,268.472 867.246667,268.248 867.062667,268.056 C866.878667,267.864 866.650667,267.768 866.378667,267.768 C866.106667,267.768 865.878667,267.864 865.694667,268.056 C865.510667,268.248 865.418667,268.472 865.418667,268.728 C865.418667,268.984 865.510667,269.208 865.694667,269.4 C865.878667,269.592 866.106667,269.688 866.378667,269.688 Z M867.170667,285 L867.170667,273 L865.586667,273 L865.586667,285 L867.170667,285 Z M875.253333,285.192 C875.845333,285.192 876.421333,285.036 876.981333,284.724 C877.541333,284.412 877.901333,284.168 878.061333,283.992 C878.221333,283.816 878.349333,283.664 878.445333,283.536 L878.445333,283.536 L877.653333,282.312 C877.653333,282.376 877.569333,282.516 877.401333,282.732 C877.233333,282.948 876.973333,283.168 876.621333,283.392 C876.269333,283.616 875.909333,283.728 875.541333,283.728 C874.949333,283.728 874.425333,283.512 873.969333,283.08 C873.513333,282.648 873.285333,282.064 873.285333,281.328 L873.285333,281.328 L873.285333,274.44 L876.909333,274.44 L876.909333,272.976 L873.285333,272.976 L873.285333,268.992 L871.701333,269.184 L871.701333,272.976 L869.781333,272.976 L869.781333,274.44 L871.701333,274.44 L871.701333,281.688 C871.701333,282.824 872.041333,283.692 872.721333,284.292 C873.401333,284.892 874.245333,285.192 875.253333,285.192 Z" id="Ohm'sCircuit" fill="#23ABE3" fill-rule="nonzero"></path>
        </g>
        <g transform="translate(277.000000, 28.000000)">
            <polyline id="Path-2" stroke="#524740" stroke-width="2" points="147 45 205 45 205 157 152 157"></polyline>
            <polyline id="Path-2-Copy-2" stroke="#524740" stroke-width="2" transform="translate(48.000000, 101.000000) scale(-1, 1) translate(-48.000000, -101.000000) " points="19 45 77 45 77 157 24 157"></polyline>
            <path d="M156.4,196.408 C156.496,195.96 156.728,195.584 157.096,195.28 C157.256,195.312 157.536,195.428 157.936,195.628 C158.336,195.828 158.784,196.008 159.28,196.168 C159.776,196.328 160.296,196.408 160.84,196.408 C162.12,196.408 163.204,196.008 164.092,195.208 C164.98,194.408 165.424,193.368 165.424,192.088 C165.424,190.504 164.584,189.288 162.904,188.44 L162.904,188.44 L160.624,187.264 C159.52,186.688 158.756,186.196 158.332,185.788 C157.908,185.38 157.696,184.88 157.696,184.288 C157.696,183.68 157.916,183.172 158.356,182.764 C158.796,182.356 159.352,182.152 160.024,182.152 C162.232,182.152 163.456,183.552 163.696,186.352 L163.696,186.352 L164.2,186.352 L164.2,181.072 L163.72,181.072 C163.624,181.504 163.392,181.872 163.024,182.176 C162.128,181.52 161.152,181.192 160.096,181.192 C158.944,181.192 157.992,181.536 157.24,182.224 C156.488,182.912 156.112,183.76 156.112,184.768 C156.112,185.632 156.368,186.408 156.88,187.096 C157.392,187.784 158.024,188.328 158.776,188.728 L158.776,188.728 L161.08,189.904 C162.92,190.864 163.84,191.832 163.84,192.808 C163.84,193.576 163.556,194.208 162.988,194.704 C162.42,195.2 161.704,195.448 160.84,195.448 C160.248,195.448 159.708,195.368 159.22,195.208 C158.732,195.048 158.34,194.848 158.044,194.608 C157.748,194.368 157.488,194.08 157.264,193.744 C157.04,193.408 156.876,193.104 156.772,192.832 C156.668,192.56 156.588,192.276 156.532,191.98 C156.476,191.684 156.444,191.484 156.436,191.38 C156.428,191.276 156.424,191.192 156.424,191.128 L156.424,191.128 L155.92,191.128 L155.92,196.408 L156.4,196.408 Z M172.6,196.408 C173.928,196.408 175.068,195.976 176.02,195.112 C176.972,194.248 177.448,193.208 177.448,191.992 C177.448,190.776 176.968,189.744 176.008,188.896 C175.064,188.032 173.928,187.6 172.6,187.6 C171.272,187.6 170.132,188.028 169.18,188.884 C168.228,189.74 167.752,190.776 167.752,191.992 C167.752,193.208 168.228,194.248 169.18,195.112 C170.132,195.976 171.272,196.408 172.6,196.408 Z M172.6,195.472 C171.656,195.472 170.936,195.144 170.44,194.488 C169.944,193.832 169.696,193 169.696,191.992 C169.696,190.984 169.944,190.152 170.44,189.496 C170.936,188.84 171.656,188.512 172.6,188.512 C173.544,188.512 174.264,188.836 174.76,189.484 C175.256,190.132 175.504,190.968 175.504,191.992 C175.504,193.016 175.256,193.856 174.76,194.512 C174.264,195.152 173.544,195.472 172.6,195.472 Z M187.456,196.408 L190.672,195.808 L190.672,195.304 C189.856,195.304 189.332,195.136 189.1,194.8 C188.868,194.464 188.752,193.696 188.752,192.496 L188.752,192.496 L188.752,188.008 L185.152,188.008 L185.152,188.488 C185.968,188.488 186.492,188.656 186.724,188.992 C186.956,189.328 187.072,190.096 187.072,191.296 L187.072,191.296 L187.072,192.88 C187.072,193.552 186.776,194.116 186.184,194.572 C185.592,195.028 185.024,195.256 184.48,195.256 C183.264,195.256 182.656,194.4 182.656,192.688 L182.656,192.688 L182.656,188.008 L179.056,188.008 L179.056,188.488 C179.856,188.488 180.372,188.656 180.604,188.992 C180.836,189.328 180.952,190.096 180.952,191.296 L180.952,191.296 L180.952,192.808 C180.952,195.208 181.944,196.408 183.928,196.408 C185.032,196.408 186.08,195.896 187.072,194.872 C187.2,195.64 187.328,196.152 187.456,196.408 L187.456,196.408 Z M197.536,196 L197.536,195.496 C196.736,195.496 196.22,195.328 195.988,194.992 C195.756,194.656 195.64,193.888 195.64,192.688 L195.64,192.688 L195.64,191.368 C195.64,190.52 195.856,189.84 196.288,189.328 C196.72,188.816 197.12,188.56 197.488,188.56 C198,188.56 198.256,188.824 198.256,189.352 C198.256,189.576 198.34,189.776 198.508,189.952 C198.676,190.128 198.872,190.216 199.096,190.216 C199.736,190.216 200.056,189.84 200.056,189.088 C200.056,188.736 199.892,188.4 199.564,188.08 C199.236,187.76 198.768,187.6 198.16,187.6 C197.68,187.6 197.2,187.768 196.72,188.104 C196.24,188.44 195.88,188.848 195.64,189.328 C195.512,188.48 195.376,187.904 195.232,187.6 L195.232,187.6 L192.04,188.2 L192.04,188.704 C192.84,188.704 193.356,188.872 193.588,189.208 C193.82,189.544 193.936,190.304 193.936,191.488 L193.936,191.488 L193.936,192.688 C193.936,193.888 193.82,194.656 193.588,194.992 C193.356,195.328 192.84,195.496 192.04,195.496 L192.04,195.496 L192.04,196 L197.536,196 Z M205.96,196.408 C207.368,196.408 208.56,195.88 209.536,194.824 L209.536,194.824 L209.128,194.296 C208.344,195.032 207.488,195.4 206.56,195.4 C205.6,195.4 204.876,195.116 204.388,194.548 C203.9,193.98 203.656,193.2 203.656,192.208 C203.656,191.12 203.88,190.208 204.328,189.472 C204.776,188.736 205.32,188.368 205.96,188.368 C206.536,188.368 206.824,188.712 206.824,189.4 C206.824,189.672 206.916,189.9 207.1,190.084 C207.284,190.268 207.504,190.36 207.76,190.36 C208.128,190.36 208.396,190.252 208.564,190.036 C208.732,189.82 208.816,189.584 208.816,189.328 C208.816,188.848 208.576,188.44 208.096,188.104 C207.616,187.768 206.904,187.6 205.96,187.6 C204.92,187.6 203.952,188.036 203.056,188.908 C202.16,189.78 201.712,190.88 201.712,192.208 C201.712,193.44 202.092,194.448 202.852,195.232 C203.612,196.016 204.648,196.408 205.96,196.408 Z M215.584,196.408 C216.256,196.408 216.928,196.26 217.6,195.964 C218.272,195.668 218.824,195.288 219.256,194.824 L219.256,194.824 L218.824,194.296 C218.488,194.616 218.064,194.88 217.552,195.088 C217.04,195.296 216.584,195.4 216.184,195.4 C215,195.4 214.148,195.028 213.628,194.284 C213.108,193.54 212.92,192.576 213.064,191.392 L213.064,191.392 L218.848,191.392 C219.136,190.384 218.936,189.5 218.248,188.74 C217.56,187.98 216.672,187.6 215.584,187.6 C214.432,187.6 213.404,188.024 212.5,188.872 C211.596,189.72 211.144,190.76 211.144,191.992 C211.144,193.224 211.56,194.268 212.392,195.124 C213.224,195.98 214.288,196.408 215.584,196.408 Z M217.192,190.504 L213.208,190.504 C213.384,189.912 213.676,189.44 214.084,189.088 C214.492,188.736 214.952,188.56 215.464,188.56 C216.184,188.56 216.692,188.772 216.988,189.196 C217.284,189.62 217.352,190.056 217.192,190.504 L217.192,190.504 Z M233.272,196.408 L238.552,184.192 C238.952,183.264 239.292,182.684 239.572,182.452 C239.852,182.22 240.464,182.104 241.408,182.104 L241.408,182.104 L241.408,181.6 L235.816,181.6 L235.816,182.104 C236.808,182.104 237.444,182.244 237.724,182.524 C238.004,182.804 237.992,183.272 237.688,183.928 L237.688,183.928 L233.656,193.264 L229.576,183.928 C229.272,183.272 229.26,182.804 229.54,182.524 C229.82,182.244 230.456,182.104 231.448,182.104 L231.448,182.104 L231.448,181.6 L224.8,181.6 L224.8,182.104 C225.744,182.104 226.356,182.22 226.636,182.452 C226.916,182.684 227.256,183.264 227.656,184.192 L227.656,184.192 L232.96,196.408 L233.272,196.408 Z M246.52,196.408 C247.848,196.408 248.988,195.976 249.94,195.112 C250.892,194.248 251.368,193.208 251.368,191.992 C251.368,190.776 250.888,189.744 249.928,188.896 C248.984,188.032 247.848,187.6 246.52,187.6 C245.192,187.6 244.052,188.028 243.1,188.884 C242.148,189.74 241.672,190.776 241.672,191.992 C241.672,193.208 242.148,194.248 243.1,195.112 C244.052,195.976 245.192,196.408 246.52,196.408 Z M246.52,195.472 C245.576,195.472 244.856,195.144 244.36,194.488 C243.864,193.832 243.616,193 243.616,191.992 C243.616,190.984 243.864,190.152 244.36,189.496 C244.856,188.84 245.576,188.512 246.52,188.512 C247.464,188.512 248.184,188.836 248.68,189.484 C249.176,190.132 249.424,190.968 249.424,191.992 C249.424,193.016 249.176,193.856 248.68,194.512 C248.184,195.152 247.464,195.472 246.52,195.472 Z M258.472,196 L258.472,195.496 C257.672,195.496 257.156,195.328 256.924,194.992 C256.692,194.656 256.576,193.888 256.576,192.688 L256.576,192.688 L256.576,181.192 L252.976,181.792 L252.976,182.296 C253.776,182.296 254.292,182.464 254.524,182.8 C254.756,183.136 254.872,183.904 254.872,185.104 L254.872,185.104 L254.872,192.688 C254.872,193.888 254.756,194.656 254.524,194.992 C254.292,195.328 253.776,195.496 252.976,195.496 L252.976,195.496 L252.976,196 L258.472,196 Z M263.104,196.336 C263.504,196.336 263.94,196.208 264.412,195.952 C264.884,195.696 265.288,195.368 265.624,194.968 L265.624,194.968 L265.216,194.56 C264.64,195.104 264.12,195.376 263.656,195.376 C262.936,195.376 262.576,194.8 262.576,193.648 L262.576,193.648 L262.576,188.848 L264.664,188.848 L264.664,188.008 L262.576,188.008 L262.576,185.368 L261.76,185.368 C261.664,186.2 261.456,186.856 261.136,187.336 C260.816,187.816 260.312,188.128 259.624,188.272 L259.624,188.272 L259.624,188.848 L260.872,188.848 L260.872,193.648 C260.872,194.544 261.072,195.216 261.472,195.664 C261.872,196.112 262.416,196.336 263.104,196.336 Z M269.104,196.312 C270.032,196.312 271.032,195.832 272.104,194.872 C272.232,195.8 272.776,196.264 273.736,196.264 C274.328,196.264 274.856,196.016 275.32,195.52 L275.32,195.52 L274.984,195.064 C274.744,195.304 274.52,195.424 274.312,195.424 C273.944,195.424 273.76,195.112 273.76,194.488 L273.76,194.488 L273.76,190.864 C273.76,189.712 273.504,188.88 272.992,188.368 C272.48,187.856 271.64,187.6 270.472,187.6 C269.672,187.6 268.964,187.78 268.348,188.14 C267.732,188.5 267.424,188.96 267.424,189.52 C267.424,189.76 267.504,189.96 267.664,190.12 C267.824,190.28 268.024,190.36 268.264,190.36 C268.488,190.36 268.68,190.28 268.84,190.12 C269,189.96 269.08,189.76 269.08,189.52 C269.08,189.168 269.228,188.888 269.524,188.68 C269.82,188.472 270.128,188.368 270.448,188.368 C271.104,188.368 271.536,188.552 271.744,188.92 C271.952,189.288 272.056,189.944 272.056,190.888 C268.648,191.48 266.944,192.616 266.944,194.296 C266.944,194.92 267.152,195.412 267.568,195.772 C267.984,196.132 268.496,196.312 269.104,196.312 Z M269.872,195.232 C269.552,195.232 269.284,195.12 269.068,194.896 C268.852,194.672 268.744,194.376 268.744,194.008 C268.744,192.936 269.848,192.144 272.056,191.632 L272.056,191.632 L272.056,194.08 C271.192,194.848 270.464,195.232 269.872,195.232 Z M280.36,202.408 C281.576,202.408 282.588,202.116 283.396,201.532 C284.204,200.948 284.608,200.168 284.608,199.192 C284.608,198.376 284.264,197.68 283.576,197.104 C282.888,196.528 281.776,196.176 280.24,196.048 C278.784,195.92 278.056,195.616 278.056,195.136 C278.056,194.672 278.952,194.336 280.744,194.128 C281.576,194.016 282.304,193.656 282.928,193.048 C283.552,192.44 283.864,191.712 283.864,190.864 C283.864,190.128 283.632,189.48 283.168,188.92 C283.424,188.664 283.672,188.536 283.912,188.536 C284.136,188.536 284.3,188.596 284.404,188.716 C284.508,188.836 284.572,188.964 284.596,189.1 L284.623,189.19975 C284.659,189.29725 284.722,189.388 284.812,189.472 C284.932,189.584 285.112,189.632 285.352,189.616 C285.48,189.616 285.592,189.576 285.688,189.496 C285.976,189.272 286.048,188.936 285.904,188.488 C285.712,187.896 285.264,187.6 284.56,187.6 C284.288,187.6 283.972,187.688 283.612,187.864 C283.252,188.04 282.968,188.256 282.76,188.512 C282.072,187.904 281.248,187.6 280.288,187.6 C279.296,187.6 278.452,187.92 277.756,188.56 C277.06,189.2 276.712,189.968 276.712,190.864 C276.712,191.504 276.892,192.08 277.252,192.592 C277.612,193.104 278.104,193.504 278.728,193.792 C277.384,194.208 276.712,194.848 276.712,195.712 C276.712,196.976 277.848,197.72 280.12,197.944 C281.224,198.056 282.036,198.232 282.556,198.472 C283.076,198.712 283.336,199.096 283.336,199.624 C283.336,200.168 283.036,200.612 282.436,200.956 C281.836,201.3 281.144,201.472 280.36,201.472 C279.864,201.472 279.388,201.4 278.932,201.256 C278.476,201.112 278.092,200.912 277.78,200.656 C277.468,200.4 277.328,200.052 277.36,199.612 C277.392,199.172 277.64,198.688 278.104,198.16 L278.104,198.16 L277.672,197.896 C276.712,198.392 276.2,199 276.136,199.72 C276.072,200.44 276.436,201.068 277.228,201.604 C278.02,202.14 279.064,202.408 280.36,202.408 Z M280.288,193.336 C279.728,193.336 279.296,193.108 278.992,192.652 C278.688,192.196 278.536,191.6 278.536,190.864 C278.536,190.128 278.688,189.528 278.992,189.064 C279.296,188.6 279.728,188.368 280.288,188.368 C280.848,188.368 281.276,188.6 281.572,189.064 C281.868,189.528 282.016,190.128 282.016,190.864 C282.016,191.6 281.864,192.2 281.56,192.664 C281.272,193.112 280.848,193.336 280.288,193.336 Z M291.448,196.408 C292.12,196.408 292.792,196.26 293.464,195.964 C294.136,195.668 294.688,195.288 295.12,194.824 L295.12,194.824 L294.688,194.296 C294.352,194.616 293.928,194.88 293.416,195.088 C292.904,195.296 292.448,195.4 292.048,195.4 C290.864,195.4 290.012,195.028 289.492,194.284 C288.972,193.54 288.784,192.576 288.928,191.392 L288.928,191.392 L294.712,191.392 C295,190.384 294.8,189.5 294.112,188.74 C293.424,187.98 292.536,187.6 291.448,187.6 C290.296,187.6 289.268,188.024 288.364,188.872 C287.46,189.72 287.008,190.76 287.008,191.992 C287.008,193.224 287.424,194.268 288.256,195.124 C289.088,195.98 290.152,196.408 291.448,196.408 Z M293.056,190.504 L289.072,190.504 C289.248,189.912 289.54,189.44 289.948,189.088 C290.356,188.736 290.816,188.56 291.328,188.56 C292.048,188.56 292.556,188.772 292.852,189.196 C293.148,189.62 293.216,190.056 293.056,190.504 L293.056,190.504 Z M308.968,198.664 L309.496,198.16 C308.984,197.584 308.56,197.084 308.224,196.66 C307.888,196.236 307.452,195.604 306.916,194.764 C306.38,193.924 305.968,193.008 305.68,192.016 C305.392,191.024 305.248,189.992 305.248,188.92 C305.248,187.848 305.392,186.816 305.68,185.824 C305.968,184.832 306.38,183.916 306.916,183.076 C307.452,182.236 307.888,181.604 308.224,181.18 C308.56,180.756 308.984,180.256 309.496,179.68 L309.496,179.68 L308.944,179.176 C305.36,182.136 303.568,185.384 303.568,188.92 C303.568,192.472 305.368,195.72 308.968,198.664 L308.968,198.664 Z M317.728,196.408 L323.008,184.192 C323.408,183.264 323.748,182.684 324.028,182.452 C324.308,182.22 324.92,182.104 325.864,182.104 L325.864,182.104 L325.864,181.6 L320.272,181.6 L320.272,182.104 C321.264,182.104 321.9,182.244 322.18,182.524 C322.46,182.804 322.448,183.272 322.144,183.928 L322.144,183.928 L318.112,193.264 L314.032,183.928 C313.728,183.272 313.716,182.804 313.996,182.524 C314.276,182.244 314.912,182.104 315.904,182.104 L315.904,182.104 L315.904,181.6 L309.256,181.6 L309.256,182.104 C310.2,182.104 310.812,182.22 311.092,182.452 C311.372,182.684 311.712,183.264 312.112,184.192 L312.112,184.192 L317.416,196.408 L317.728,196.408 Z M326.2,198.664 C329.784,195.736 331.576,192.488 331.576,188.92 C331.576,185.368 329.792,182.12 326.224,179.176 L326.224,179.176 L325.648,179.68 C326.176,180.272 326.604,180.776 326.932,181.192 C327.26,181.608 327.696,182.236 328.24,183.076 C328.784,183.916 329.2,184.832 329.488,185.824 C329.776,186.816 329.92,187.848 329.92,188.92 C329.92,189.992 329.776,191.024 329.488,192.016 C329.2,193.008 328.784,193.924 328.24,194.764 C327.696,195.604 327.26,196.232 326.932,196.648 C326.604,197.064 326.176,197.568 325.648,198.16 L325.648,198.16 L326.2,198.664 Z" id="SourceVoltage(V)" fill="#524740" fill-rule="nonzero"></path>
            <path d="M8.032,17 L8.032,16.496 C7.04,16.496 6.412,16.328 6.148,15.992 C5.884,15.656 5.752,14.888 5.752,13.688 L5.752,13.688 L5.752,10.688 L6.88,10.688 L11.632,17 L15.592,17 L15.592,16.496 C14.184,16.336 12.696,15.32 11.128,13.448 L11.128,13.448 L8.776,10.688 C10.104,10.544 11.148,10.104 11.908,9.368 C12.668,8.632 13.048,7.728 13.048,6.656 C13.048,5.488 12.592,4.52 11.68,3.752 C10.768,2.984 9.504,2.6 7.888,2.6 L7.888,2.6 L1.552,2.6 L1.552,3.104 C2.544,3.104 3.172,3.268 3.436,3.596 C3.7,3.924 3.832,4.688 3.832,5.888 L3.832,5.888 L3.832,13.688 C3.832,14.888 3.7,15.656 3.436,15.992 C3.172,16.328 2.544,16.496 1.552,16.496 L1.552,16.496 L1.552,17 L8.032,17 Z M7.864,9.824 L5.752,9.824 L5.752,3.488 L7.864,3.488 C8.856,3.488 9.612,3.784 10.132,4.376 C10.652,4.968 10.912,5.728 10.912,6.656 C10.912,7.584 10.652,8.344 10.132,8.936 C9.612,9.528 8.856,9.824 7.864,9.824 L7.864,9.824 Z M21.112,17.408 C21.784,17.408 22.456,17.26 23.128,16.964 C23.8,16.668 24.352,16.288 24.784,15.824 L24.784,15.824 L24.352,15.296 C24.016,15.616 23.592,15.88 23.08,16.088 C22.568,16.296 22.112,16.4 21.712,16.4 C20.528,16.4 19.676,16.028 19.156,15.284 C18.636,14.54 18.448,13.576 18.592,12.392 L18.592,12.392 L24.376,12.392 C24.664,11.384 24.464,10.5 23.776,9.74 C23.088,8.98 22.2,8.6 21.112,8.6 C19.96,8.6 18.932,9.024 18.028,9.872 C17.124,10.72 16.672,11.76 16.672,12.992 C16.672,14.224 17.088,15.268 17.92,16.124 C18.752,16.98 19.816,17.408 21.112,17.408 Z M22.72,11.504 L18.736,11.504 C18.912,10.912 19.204,10.44 19.612,10.088 C20.02,9.736 20.48,9.56 20.992,9.56 C21.712,9.56 22.22,9.772 22.516,10.196 C22.812,10.62 22.88,11.056 22.72,11.504 L22.72,11.504 Z M27.304,17.408 C27.304,17.088 27.336,16.872 27.4,16.76 C27.464,16.648 27.576,16.62 27.736,16.676 C27.896,16.732 28.068,16.812 28.252,16.916 C28.436,17.02 28.68,17.128 28.984,17.24 C29.288,17.352 29.584,17.408 29.872,17.408 C30.672,17.408 31.348,17.164 31.9,16.676 C32.452,16.188 32.728,15.56 32.728,14.792 C32.728,13.88 32.176,13.112 31.072,12.488 L31.072,12.488 L29.92,11.864 C29.36,11.56 28.976,11.308 28.768,11.108 C28.56,10.908 28.456,10.672 28.456,10.4 C28.456,10.096 28.56,9.848 28.768,9.656 C28.976,9.464 29.28,9.368 29.68,9.368 C30.256,9.368 30.724,9.572 31.084,9.98 C31.444,10.388 31.624,10.856 31.624,11.384 L31.624,11.384 L32.128,11.384 L32.128,8.6 L31.624,8.6 C31.624,8.92 31.588,9.1 31.516,9.14 C31.444,9.18 31.312,9.144 31.12,9.032 C30.544,8.744 29.984,8.6 29.44,8.6 C28.8,8.6 28.236,8.808 27.748,9.224 C27.26,9.64 27.016,10.16 27.016,10.784 C27.016,11.808 27.544,12.608 28.6,13.184 L28.6,13.184 L29.944,13.904 C30.84,14.384 31.288,14.872 31.288,15.368 C31.288,15.704 31.156,15.992 30.892,16.232 C30.628,16.472 30.304,16.592 29.92,16.592 C29.136,16.592 28.504,16.3 28.024,15.716 C27.544,15.132 27.304,14.528 27.304,13.904 L27.304,13.904 L26.8,13.904 L26.8,17.408 L27.304,17.408 Z M37.456,6.248 C37.744,6.248 37.992,6.144 38.2,5.936 C38.408,5.728 38.512,5.472 38.512,5.168 C38.512,4.88 38.408,4.632 38.2,4.424 C37.992,4.216 37.744,4.112 37.456,4.112 C37.168,4.112 36.92,4.216 36.712,4.424 C36.504,4.632 36.4,4.88 36.4,5.168 C36.4,5.472 36.504,5.728 36.712,5.936 C36.92,6.144 37.168,6.248 37.456,6.248 Z M40.216,17 L40.216,16.496 C39.416,16.496 38.9,16.328 38.668,15.992 C38.436,15.656 38.32,14.888 38.32,13.688 L38.32,13.688 L38.32,8.6 L34.72,9.2 L34.72,9.704 C35.52,9.704 36.036,9.872 36.268,10.208 C36.5,10.544 36.616,11.304 36.616,12.488 L36.616,12.488 L36.616,13.688 C36.616,14.888 36.5,15.656 36.268,15.992 C36.036,16.328 35.52,16.496 34.72,16.496 L34.72,16.496 L34.72,17 L40.216,17 Z M42.328,17.408 C42.328,17.088 42.36,16.872 42.424,16.76 C42.488,16.648 42.6,16.62 42.76,16.676 C42.92,16.732 43.092,16.812 43.276,16.916 C43.46,17.02 43.704,17.128 44.008,17.24 C44.312,17.352 44.608,17.408 44.896,17.408 C45.696,17.408 46.372,17.164 46.924,16.676 C47.476,16.188 47.752,15.56 47.752,14.792 C47.752,13.88 47.2,13.112 46.096,12.488 L46.096,12.488 L44.944,11.864 C44.384,11.56 44,11.308 43.792,11.108 C43.584,10.908 43.48,10.672 43.48,10.4 C43.48,10.096 43.584,9.848 43.792,9.656 C44,9.464 44.304,9.368 44.704,9.368 C45.28,9.368 45.748,9.572 46.108,9.98 C46.468,10.388 46.648,10.856 46.648,11.384 L46.648,11.384 L47.152,11.384 L47.152,8.6 L46.648,8.6 C46.648,8.92 46.612,9.1 46.54,9.14 C46.468,9.18 46.336,9.144 46.144,9.032 C45.568,8.744 45.008,8.6 44.464,8.6 C43.824,8.6 43.26,8.808 42.772,9.224 C42.284,9.64 42.04,10.16 42.04,10.784 C42.04,11.808 42.568,12.608 43.624,13.184 L43.624,13.184 L44.968,13.904 C45.864,14.384 46.312,14.872 46.312,15.368 C46.312,15.704 46.18,15.992 45.916,16.232 C45.652,16.472 45.328,16.592 44.944,16.592 C44.16,16.592 43.528,16.3 43.048,15.716 C42.568,15.132 42.328,14.528 42.328,13.904 L42.328,13.904 L41.824,13.904 L41.824,17.408 L42.328,17.408 Z M52.984,17.336 C53.384,17.336 53.82,17.208 54.292,16.952 C54.764,16.696 55.168,16.368 55.504,15.968 L55.504,15.968 L55.096,15.56 C54.52,16.104 54,16.376 53.536,16.376 C52.816,16.376 52.456,15.8 52.456,14.648 L52.456,14.648 L52.456,9.848 L54.544,9.848 L54.544,9.008 L52.456,9.008 L52.456,6.368 L51.64,6.368 C51.544,7.2 51.336,7.856 51.016,8.336 C50.696,8.816 50.192,9.128 49.504,9.272 L49.504,9.272 L49.504,9.848 L50.752,9.848 L50.752,14.648 C50.752,15.544 50.952,16.216 51.352,16.664 C51.752,17.112 52.296,17.336 52.984,17.336 Z M58.984,17.312 C59.912,17.312 60.912,16.832 61.984,15.872 C62.112,16.8 62.656,17.264 63.616,17.264 C64.208,17.264 64.736,17.016 65.2,16.52 L65.2,16.52 L64.864,16.064 C64.624,16.304 64.4,16.424 64.192,16.424 C63.824,16.424 63.64,16.112 63.64,15.488 L63.64,15.488 L63.64,11.864 C63.64,10.712 63.384,9.88 62.872,9.368 C62.36,8.856 61.52,8.6 60.352,8.6 C59.552,8.6 58.844,8.78 58.228,9.14 C57.612,9.5 57.304,9.96 57.304,10.52 C57.304,10.76 57.384,10.96 57.544,11.12 C57.704,11.28 57.904,11.36 58.144,11.36 C58.368,11.36 58.56,11.28 58.72,11.12 C58.88,10.96 58.96,10.76 58.96,10.52 C58.96,10.168 59.108,9.888 59.404,9.68 C59.7,9.472 60.008,9.368 60.328,9.368 C60.984,9.368 61.416,9.552 61.624,9.92 C61.832,10.288 61.936,10.944 61.936,11.888 C58.528,12.48 56.824,13.616 56.824,15.296 C56.824,15.92 57.032,16.412 57.448,16.772 C57.864,17.132 58.376,17.312 58.984,17.312 Z M59.752,16.232 C59.432,16.232 59.164,16.12 58.948,15.896 C58.732,15.672 58.624,15.376 58.624,15.008 C58.624,13.936 59.728,13.144 61.936,12.632 L61.936,12.632 L61.936,15.08 C61.072,15.848 60.344,16.232 59.752,16.232 Z M71.776,17 L71.776,16.496 C71.04,16.496 70.576,16.336 70.384,16.016 C70.192,15.696 70.096,14.92 70.096,13.688 L70.096,13.688 L70.096,12.128 C70.096,11.488 70.384,10.928 70.96,10.448 C71.536,9.968 72.168,9.728 72.856,9.728 C74.184,9.728 74.848,10.584 74.848,12.296 L74.848,12.296 L74.848,13.688 C74.848,14.872 74.728,15.636 74.488,15.98 C74.248,16.324 73.736,16.496 72.952,16.496 L72.952,16.496 L72.952,17 L78.448,17 L78.448,16.496 C77.648,16.496 77.132,16.328 76.9,15.992 C76.668,15.656 76.552,14.888 76.552,13.688 L76.552,13.688 L76.552,12.176 C76.552,11.104 76.292,10.24 75.772,9.584 C75.252,8.928 74.472,8.6 73.432,8.6 C72.12,8.6 71.008,9.176 70.096,10.328 C69.968,9.48 69.832,8.904 69.688,8.6 L69.688,8.6 L66.496,9.2 L66.496,9.704 C67.296,9.704 67.812,9.872 68.044,10.208 C68.276,10.544 68.392,11.304 68.392,12.488 L68.392,12.488 L68.392,13.688 C68.392,14.888 68.276,15.656 68.044,15.992 C67.812,16.328 67.296,16.496 66.496,16.496 L66.496,16.496 L66.496,17 L71.776,17 Z M84.304,17.408 C85.712,17.408 86.904,16.88 87.88,15.824 L87.88,15.824 L87.472,15.296 C86.688,16.032 85.832,16.4 84.904,16.4 C83.944,16.4 83.22,16.116 82.732,15.548 C82.244,14.98 82,14.2 82,13.208 C82,12.12 82.224,11.208 82.672,10.472 C83.12,9.736 83.664,9.368 84.304,9.368 C84.88,9.368 85.168,9.712 85.168,10.4 C85.168,10.672 85.26,10.9 85.444,11.084 C85.628,11.268 85.848,11.36 86.104,11.36 C86.472,11.36 86.74,11.252 86.908,11.036 C87.076,10.82 87.16,10.584 87.16,10.328 C87.16,9.848 86.92,9.44 86.44,9.104 C85.96,8.768 85.248,8.6 84.304,8.6 C83.264,8.6 82.296,9.036 81.4,9.908 C80.504,10.78 80.056,11.88 80.056,13.208 C80.056,14.44 80.436,15.448 81.196,16.232 C81.956,17.016 82.992,17.408 84.304,17.408 Z M93.928,17.408 C94.6,17.408 95.272,17.26 95.944,16.964 C96.616,16.668 97.168,16.288 97.6,15.824 L97.6,15.824 L97.168,15.296 C96.832,15.616 96.408,15.88 95.896,16.088 C95.384,16.296 94.928,16.4 94.528,16.4 C93.344,16.4 92.492,16.028 91.972,15.284 C91.452,14.54 91.264,13.576 91.408,12.392 L91.408,12.392 L97.192,12.392 C97.48,11.384 97.28,10.5 96.592,9.74 C95.904,8.98 95.016,8.6 93.928,8.6 C92.776,8.6 91.748,9.024 90.844,9.872 C89.94,10.72 89.488,11.76 89.488,12.992 C89.488,14.224 89.904,15.268 90.736,16.124 C91.568,16.98 92.632,17.408 93.928,17.408 Z M95.536,11.504 L91.552,11.504 C91.728,10.912 92.02,10.44 92.428,10.088 C92.836,9.736 93.296,9.56 93.808,9.56 C94.528,9.56 95.036,9.772 95.332,10.196 C95.628,10.62 95.696,11.056 95.536,11.504 L95.536,11.504 Z M101.056,19.88 C101.744,19.448 102.284,18.884 102.676,18.188 C103.068,17.492 103.264,16.848 103.264,16.256 C103.264,15.76 103.136,15.384 102.88,15.128 C102.624,14.872 102.32,14.744 101.968,14.744 C101.664,14.744 101.4,14.856 101.176,15.08 C100.952,15.304 100.84,15.576 100.84,15.896 C100.84,16.216 100.952,16.492 101.176,16.724 C101.4,16.956 101.664,17.072 101.968,17.072 C102.064,17.072 102.128,17.064 102.16,17.048 C102.032,17.928 101.576,18.776 100.792,19.592 L100.792,19.592 L101.056,19.88 Z M115.216,6.248 C115.504,6.248 115.752,6.144 115.96,5.936 C116.168,5.728 116.272,5.472 116.272,5.168 C116.272,4.88 116.168,4.632 115.96,4.424 C115.752,4.216 115.504,4.112 115.216,4.112 C114.928,4.112 114.68,4.216 114.472,4.424 C114.264,4.632 114.16,4.88 114.16,5.168 C114.16,5.472 114.264,5.728 114.472,5.936 C114.68,6.144 114.928,6.248 115.216,6.248 Z M117.976,17 L117.976,16.496 C117.176,16.496 116.66,16.328 116.428,15.992 C116.196,15.656 116.08,14.888 116.08,13.688 L116.08,13.688 L116.08,8.6 L112.48,9.2 L112.48,9.704 C113.28,9.704 113.796,9.872 114.028,10.208 C114.26,10.544 114.376,11.304 114.376,12.488 L114.376,12.488 L114.376,13.688 C114.376,14.888 114.26,15.656 114.028,15.992 C113.796,16.328 113.28,16.496 112.48,16.496 L112.48,16.496 L112.48,17 L117.976,17 Z M124.624,17 L124.624,16.496 C123.888,16.496 123.424,16.336 123.232,16.016 C123.04,15.696 122.944,14.92 122.944,13.688 L122.944,13.688 L122.944,12.128 C122.944,11.488 123.232,10.928 123.808,10.448 C124.384,9.968 125.016,9.728 125.704,9.728 C127.032,9.728 127.696,10.584 127.696,12.296 L127.696,12.296 L127.696,13.688 C127.696,14.872 127.576,15.636 127.336,15.98 C127.096,16.324 126.584,16.496 125.8,16.496 L125.8,16.496 L125.8,17 L131.296,17 L131.296,16.496 C130.496,16.496 129.98,16.328 129.748,15.992 C129.516,15.656 129.4,14.888 129.4,13.688 L129.4,13.688 L129.4,12.176 C129.4,11.104 129.14,10.24 128.62,9.584 C128.1,8.928 127.32,8.6 126.28,8.6 C124.968,8.6 123.856,9.176 122.944,10.328 C122.816,9.48 122.68,8.904 122.536,8.6 L122.536,8.6 L119.344,9.2 L119.344,9.704 C120.144,9.704 120.66,9.872 120.892,10.208 C121.124,10.544 121.24,11.304 121.24,12.488 L121.24,12.488 L121.24,13.688 C121.24,14.888 121.124,15.656 120.892,15.992 C120.66,16.328 120.144,16.496 119.344,16.496 L119.344,16.496 L119.344,17 L124.624,17 Z M143.344,17.408 C144.672,17.408 145.812,16.976 146.764,16.112 C147.716,15.248 148.192,14.208 148.192,12.992 C148.192,11.776 147.712,10.744 146.752,9.896 C145.808,9.032 144.672,8.6 143.344,8.6 C142.016,8.6 140.876,9.028 139.924,9.884 C138.972,10.74 138.496,11.776 138.496,12.992 C138.496,14.208 138.972,15.248 139.924,16.112 C140.876,16.976 142.016,17.408 143.344,17.408 Z M143.344,16.472 C142.4,16.472 141.68,16.144 141.184,15.488 C140.688,14.832 140.44,14 140.44,12.992 C140.44,11.984 140.688,11.152 141.184,10.496 C141.68,9.84 142.4,9.512 143.344,9.512 C144.288,9.512 145.008,9.836 145.504,10.484 C146,11.132 146.248,11.968 146.248,12.992 C146.248,14.016 146,14.856 145.504,15.512 C145.008,16.152 144.288,16.472 143.344,16.472 Z M154.912,17 L154.912,16.496 C154.256,16.496 153.84,16.34 153.664,16.028 C153.488,15.716 153.4,14.936 153.4,13.688 L153.4,13.688 L153.4,12.128 C153.4,11.472 153.672,10.908 154.216,10.436 C154.76,9.964 155.352,9.728 155.992,9.728 C157.208,9.728 157.816,10.584 157.816,12.296 L157.816,12.296 L157.816,13.688 C157.816,14.92 157.72,15.696 157.528,16.016 C157.336,16.336 156.864,16.496 156.112,16.496 L156.112,16.496 L156.112,17 L161.416,17 L161.416,16.496 C160.6,16.496 160.076,16.328 159.844,15.992 C159.612,15.656 159.496,14.888 159.496,13.688 L159.496,13.688 L159.496,12.176 C159.496,9.792 158.512,8.6 156.544,8.6 C155.392,8.6 154.344,9.176 153.4,10.328 L153.4,10.328 L153.4,2.192 L149.8,2.792 L149.8,3.296 C150.6,3.296 151.116,3.464 151.348,3.8 C151.58,4.136 151.696,4.904 151.696,6.104 L151.696,6.104 L151.696,13.688 C151.696,14.888 151.58,15.656 151.348,15.992 C151.116,16.328 150.6,16.496 149.8,16.496 L149.8,16.496 L149.8,17 L154.912,17 Z M167.872,17 L167.872,16.496 C167.216,16.496 166.804,16.34 166.636,16.028 C166.468,15.716 166.384,14.936 166.384,13.688 L166.384,13.688 L166.384,12.128 C166.384,11.456 166.672,10.888 167.248,10.424 C167.824,9.96 168.36,9.728 168.856,9.728 C170.008,9.728 170.584,10.584 170.584,12.296 L170.584,12.296 L170.584,13.688 C170.584,14.952 170.5,15.736 170.332,16.04 C170.164,16.344 169.744,16.496 169.072,16.496 L169.072,16.496 L169.072,17 L173.776,17 L173.776,16.496 C173.104,16.496 172.684,16.344 172.516,16.04 C172.348,15.736 172.264,14.952 172.264,13.688 L172.264,13.688 L172.264,12.128 C172.264,11.456 172.556,10.888 173.14,10.424 C173.724,9.96 174.264,9.728 174.76,9.728 C175.896,9.728 176.464,10.584 176.464,12.296 L176.464,12.296 L176.464,13.688 C176.464,14.952 176.384,15.736 176.224,16.04 C176.064,16.344 175.648,16.496 174.976,16.496 L174.976,16.496 L174.976,17 L180.064,17 L180.064,16.496 C179.264,16.496 178.748,16.328 178.516,15.992 C178.284,15.656 178.168,14.888 178.168,13.688 L178.168,13.688 L178.168,12.176 C178.168,9.792 177.248,8.6 175.408,8.6 C174.752,8.6 174.108,8.788 173.476,9.164 C172.844,9.54 172.368,9.952 172.048,10.4 C171.68,9.2 170.832,8.6 169.504,8.6 C168.336,8.6 167.296,9.176 166.384,10.328 C166.256,9.48 166.12,8.904 165.976,8.6 L165.976,8.6 L162.784,9.2 L162.784,9.704 C163.584,9.704 164.1,9.872 164.332,10.208 C164.564,10.544 164.68,11.304 164.68,12.488 L164.68,12.488 L164.68,13.688 C164.68,14.888 164.564,15.656 164.332,15.992 C164.1,16.328 163.584,16.496 162.784,16.496 L162.784,16.496 L162.784,17 L167.872,17 Z M182.2,17.408 C182.2,17.088 182.232,16.872 182.296,16.76 C182.36,16.648 182.472,16.62 182.632,16.676 C182.792,16.732 182.964,16.812 183.148,16.916 C183.332,17.02 183.576,17.128 183.88,17.24 C184.184,17.352 184.48,17.408 184.768,17.408 C185.568,17.408 186.244,17.164 186.796,16.676 C187.348,16.188 187.624,15.56 187.624,14.792 C187.624,13.88 187.072,13.112 185.968,12.488 L185.968,12.488 L184.816,11.864 C184.256,11.56 183.872,11.308 183.664,11.108 C183.456,10.908 183.352,10.672 183.352,10.4 C183.352,10.096 183.456,9.848 183.664,9.656 C183.872,9.464 184.176,9.368 184.576,9.368 C185.152,9.368 185.62,9.572 185.98,9.98 C186.34,10.388 186.52,10.856 186.52,11.384 L186.52,11.384 L187.024,11.384 L187.024,8.6 L186.52,8.6 C186.52,8.92 186.484,9.1 186.412,9.14 C186.34,9.18 186.208,9.144 186.016,9.032 C185.44,8.744 184.88,8.6 184.336,8.6 C183.696,8.6 183.132,8.808 182.644,9.224 C182.156,9.64 181.912,10.16 181.912,10.784 C181.912,11.808 182.44,12.608 183.496,13.184 L183.496,13.184 L184.84,13.904 C185.736,14.384 186.184,14.872 186.184,15.368 C186.184,15.704 186.052,15.992 185.788,16.232 C185.524,16.472 185.2,16.592 184.816,16.592 C184.032,16.592 183.4,16.3 182.92,15.716 C182.44,15.132 182.2,14.528 182.2,13.904 L182.2,13.904 L181.696,13.904 L181.696,17.408 L182.2,17.408 Z M201.688,19.664 L202.216,19.16 C201.704,18.584 201.28,18.084 200.944,17.66 C200.608,17.236 200.172,16.604 199.636,15.764 C199.1,14.924 198.688,14.008 198.4,13.016 C198.112,12.024 197.968,10.992 197.968,9.92 C197.968,8.848 198.112,7.816 198.4,6.824 C198.688,5.832 199.1,4.916 199.636,4.076 C200.172,3.236 200.608,2.604 200.944,2.18 C201.28,1.756 201.704,1.256 202.216,0.68 L202.216,0.68 L201.664,0.176 C198.08,3.136 196.288,6.384 196.288,9.92 C196.288,13.472 198.088,16.72 201.688,19.664 L201.688,19.664 Z M210.28,17 L210.28,16.496 C209.288,16.496 208.66,16.328 208.396,15.992 C208.132,15.656 208,14.888 208,13.688 L208,13.688 L208,10.688 L209.128,10.688 L213.88,17 L217.84,17 L217.84,16.496 C216.432,16.336 214.944,15.32 213.376,13.448 L213.376,13.448 L211.024,10.688 C212.352,10.544 213.396,10.104 214.156,9.368 C214.916,8.632 215.296,7.728 215.296,6.656 C215.296,5.488 214.84,4.52 213.928,3.752 C213.016,2.984 211.752,2.6 210.136,2.6 L210.136,2.6 L203.8,2.6 L203.8,3.104 C204.792,3.104 205.42,3.268 205.684,3.596 C205.948,3.924 206.08,4.688 206.08,5.888 L206.08,5.888 L206.08,13.688 C206.08,14.888 205.948,15.656 205.684,15.992 C205.42,16.328 204.792,16.496 203.8,16.496 L203.8,16.496 L203.8,17 L210.28,17 Z M210.112,9.824 L208,9.824 L208,3.488 L210.112,3.488 C211.104,3.488 211.86,3.784 212.38,4.376 C212.9,4.968 213.16,5.728 213.16,6.656 C213.16,7.584 212.9,8.344 212.38,8.936 C211.86,9.528 211.104,9.824 210.112,9.824 L210.112,9.824 Z M218.992,19.664 C222.576,16.736 224.368,13.488 224.368,9.92 C224.368,6.368 222.584,3.12 219.016,0.176 L219.016,0.176 L218.44,0.68 C218.968,1.272 219.396,1.776 219.724,2.192 C220.052,2.608 220.488,3.236 221.032,4.076 C221.576,4.916 221.992,5.832 222.28,6.824 C222.568,7.816 222.712,8.848 222.712,9.92 C222.712,10.992 222.568,12.024 222.28,13.016 C221.992,14.008 221.576,14.924 221.032,15.764 C220.488,16.604 220.052,17.232 219.724,17.648 C219.396,18.064 218.968,18.568 218.44,19.16 L218.44,19.16 L218.992,19.664 Z" id="Resistance,inohms(R)" fill="#524740" fill-rule="nonzero"></path>
            <path d="M262.92,112.408 C264.584,112.408 266.072,111.728 267.384,110.368 C267.8,110.656 268.072,111.112 268.2,111.736 L268.2,111.736 L268.68,111.736 L268.68,106.456 L268.2,106.456 C267.864,108.008 267.244,109.228 266.34,110.116 C265.436,111.004 264.328,111.448 263.016,111.448 C262.104,111.448 261.296,111.244 260.592,110.836 C259.888,110.428 259.34,109.892 258.948,109.228 C258.556,108.564 258.264,107.856 258.072,107.104 C257.88,106.352 257.784,105.584 257.784,104.8 C257.784,104.016 257.88,103.248 258.072,102.496 C258.264,101.744 258.556,101.032 258.948,100.36 C259.34,99.688 259.888,99.148 260.592,98.74 C261.296,98.332 262.104,98.128 263.016,98.128 C264.328,98.128 265.436,98.568 266.34,99.448 C267.244,100.328 267.864,101.56 268.2,103.144 L268.2,103.144 L268.68,103.144 L268.68,97.864 L268.2,97.864 C268.088,98.44 267.816,98.896 267.384,99.232 C266.104,97.872 264.616,97.192 262.92,97.192 C260.888,97.192 259.152,97.936 257.712,99.424 C256.272,100.912 255.552,102.704 255.552,104.8 C255.552,106.896 256.272,108.688 257.712,110.176 C259.152,111.664 260.888,112.408 262.92,112.408 Z M279.312,112.408 L282.528,111.808 L282.528,111.304 C281.712,111.304 281.188,111.136 280.956,110.8 C280.724,110.464 280.608,109.696 280.608,108.496 L280.608,108.496 L280.608,104.008 L277.008,104.008 L277.008,104.488 C277.824,104.488 278.348,104.656 278.58,104.992 C278.812,105.328 278.928,106.096 278.928,107.296 L278.928,107.296 L278.928,108.88 C278.928,109.552 278.632,110.116 278.04,110.572 C277.448,111.028 276.88,111.256 276.336,111.256 C275.12,111.256 274.512,110.4 274.512,108.688 L274.512,108.688 L274.512,104.008 L270.912,104.008 L270.912,104.488 C271.712,104.488 272.228,104.656 272.46,104.992 C272.692,105.328 272.808,106.096 272.808,107.296 L272.808,107.296 L272.808,108.808 C272.808,111.208 273.8,112.408 275.784,112.408 C276.888,112.408 277.936,111.896 278.928,110.872 C279.056,111.64 279.184,112.152 279.312,112.408 L279.312,112.408 Z M289.392,112 L289.392,111.496 C288.592,111.496 288.076,111.328 287.844,110.992 C287.612,110.656 287.496,109.888 287.496,108.688 L287.496,108.688 L287.496,107.368 C287.496,106.52 287.712,105.84 288.144,105.328 C288.576,104.816 288.976,104.56 289.344,104.56 C289.856,104.56 290.112,104.824 290.112,105.352 C290.112,105.576 290.196,105.776 290.364,105.952 C290.532,106.128 290.728,106.216 290.952,106.216 C291.592,106.216 291.912,105.84 291.912,105.088 C291.912,104.736 291.748,104.4 291.42,104.08 C291.092,103.76 290.624,103.6 290.016,103.6 C289.536,103.6 289.056,103.768 288.576,104.104 C288.096,104.44 287.736,104.848 287.496,105.328 C287.368,104.48 287.232,103.904 287.088,103.6 L287.088,103.6 L283.896,104.2 L283.896,104.704 C284.696,104.704 285.212,104.872 285.444,105.208 C285.676,105.544 285.792,106.304 285.792,107.488 L285.792,107.488 L285.792,108.688 C285.792,109.888 285.676,110.656 285.444,110.992 C285.212,111.328 284.696,111.496 283.896,111.496 L283.896,111.496 L283.896,112 L289.392,112 Z M298.824,112 L298.824,111.496 C298.024,111.496 297.508,111.328 297.276,110.992 C297.044,110.656 296.928,109.888 296.928,108.688 L296.928,108.688 L296.928,107.368 C296.928,106.52 297.144,105.84 297.576,105.328 C298.008,104.816 298.408,104.56 298.776,104.56 C299.288,104.56 299.544,104.824 299.544,105.352 C299.544,105.576 299.628,105.776 299.796,105.952 C299.964,106.128 300.16,106.216 300.384,106.216 C301.024,106.216 301.344,105.84 301.344,105.088 C301.344,104.736 301.18,104.4 300.852,104.08 C300.524,103.76 300.056,103.6 299.448,103.6 C298.968,103.6 298.488,103.768 298.008,104.104 C297.528,104.44 297.168,104.848 296.928,105.328 C296.8,104.48 296.664,103.904 296.52,103.6 L296.52,103.6 L293.328,104.2 L293.328,104.704 C294.128,104.704 294.644,104.872 294.876,105.208 C295.108,105.544 295.224,106.304 295.224,107.488 L295.224,107.488 L295.224,108.688 C295.224,109.888 295.108,110.656 294.876,110.992 C294.644,111.328 294.128,111.496 293.328,111.496 L293.328,111.496 L293.328,112 L298.824,112 Z M307.44,112.408 C308.112,112.408 308.784,112.26 309.456,111.964 C310.128,111.668 310.68,111.288 311.112,110.824 L311.112,110.824 L310.68,110.296 C310.344,110.616 309.92,110.88 309.408,111.088 C308.896,111.296 308.44,111.4 308.04,111.4 C306.856,111.4 306.004,111.028 305.484,110.284 C304.964,109.54 304.776,108.576 304.92,107.392 L304.92,107.392 L310.704,107.392 C310.992,106.384 310.792,105.5 310.104,104.74 C309.416,103.98 308.528,103.6 307.44,103.6 C306.288,103.6 305.26,104.024 304.356,104.872 C303.452,105.72 303,106.76 303,107.992 C303,109.224 303.416,110.268 304.248,111.124 C305.08,111.98 306.144,112.408 307.44,112.408 Z M309.048,106.504 L305.064,106.504 C305.24,105.912 305.532,105.44 305.94,105.088 C306.348,104.736 306.808,104.56 307.32,104.56 C308.04,104.56 308.548,104.772 308.844,105.196 C309.14,105.62 309.208,106.056 309.048,106.504 L309.048,106.504 Z M318.168,112 L318.168,111.496 C317.432,111.496 316.968,111.336 316.776,111.016 C316.584,110.696 316.488,109.92 316.488,108.688 L316.488,108.688 L316.488,107.128 C316.488,106.488 316.776,105.928 317.352,105.448 C317.928,104.968 318.56,104.728 319.248,104.728 C320.576,104.728 321.24,105.584 321.24,107.296 L321.24,107.296 L321.24,108.688 C321.24,109.872 321.12,110.636 320.88,110.98 C320.64,111.324 320.128,111.496 319.344,111.496 L319.344,111.496 L319.344,112 L324.84,112 L324.84,111.496 C324.04,111.496 323.524,111.328 323.292,110.992 C323.06,110.656 322.944,109.888 322.944,108.688 L322.944,108.688 L322.944,107.176 C322.944,106.104 322.684,105.24 322.164,104.584 C321.644,103.928 320.864,103.6 319.824,103.6 C318.512,103.6 317.4,104.176 316.488,105.328 C316.36,104.48 316.224,103.904 316.08,103.6 L316.08,103.6 L312.888,104.2 L312.888,104.704 C313.688,104.704 314.204,104.872 314.436,105.208 C314.668,105.544 314.784,106.304 314.784,107.488 L314.784,107.488 L314.784,108.688 C314.784,109.888 314.668,110.656 314.436,110.992 C314.204,111.328 313.688,111.496 312.888,111.496 L312.888,111.496 L312.888,112 L318.168,112 Z M329.448,112.336 C329.848,112.336 330.284,112.208 330.756,111.952 C331.228,111.696 331.632,111.368 331.968,110.968 L331.968,110.968 L331.56,110.56 C330.984,111.104 330.464,111.376 330,111.376 C329.28,111.376 328.92,110.8 328.92,109.648 L328.92,109.648 L328.92,104.848 L331.008,104.848 L331.008,104.008 L328.92,104.008 L328.92,101.368 L328.104,101.368 C328.008,102.2 327.8,102.856 327.48,103.336 C327.16,103.816 326.656,104.128 325.968,104.272 L325.968,104.272 L325.968,104.848 L327.216,104.848 L327.216,109.648 C327.216,110.544 327.416,111.216 327.816,111.664 C328.216,112.112 328.76,112.336 329.448,112.336 Z M334.968,114.88 C335.656,114.448 336.196,113.884 336.588,113.188 C336.98,112.492 337.176,111.848 337.176,111.256 C337.176,110.76 337.048,110.384 336.792,110.128 C336.536,109.872 336.232,109.744 335.88,109.744 C335.576,109.744 335.312,109.856 335.088,110.08 C334.864,110.304 334.752,110.576 334.752,110.896 C334.752,111.216 334.864,111.492 335.088,111.724 C335.312,111.956 335.576,112.072 335.88,112.072 C335.976,112.072 336.04,112.064 336.072,112.048 C335.944,112.928 335.488,113.776 334.704,114.592 L334.704,114.592 L334.968,114.88 Z M349.128,101.248 C349.416,101.248 349.664,101.144 349.872,100.936 C350.08,100.728 350.184,100.472 350.184,100.168 C350.184,99.88 350.08,99.632 349.872,99.424 C349.664,99.216 349.416,99.112 349.128,99.112 C348.84,99.112 348.592,99.216 348.384,99.424 C348.176,99.632 348.072,99.88 348.072,100.168 C348.072,100.472 348.176,100.728 348.384,100.936 C348.592,101.144 348.84,101.248 349.128,101.248 Z M351.888,112 L351.888,111.496 C351.088,111.496 350.572,111.328 350.34,110.992 C350.108,110.656 349.992,109.888 349.992,108.688 L349.992,108.688 L349.992,103.6 L346.392,104.2 L346.392,104.704 C347.192,104.704 347.708,104.872 347.94,105.208 C348.172,105.544 348.288,106.304 348.288,107.488 L348.288,107.488 L348.288,108.688 C348.288,109.888 348.172,110.656 347.94,110.992 C347.708,111.328 347.192,111.496 346.392,111.496 L346.392,111.496 L346.392,112 L351.888,112 Z M358.536,112 L358.536,111.496 C357.8,111.496 357.336,111.336 357.144,111.016 C356.952,110.696 356.856,109.92 356.856,108.688 L356.856,108.688 L356.856,107.128 C356.856,106.488 357.144,105.928 357.72,105.448 C358.296,104.968 358.928,104.728 359.616,104.728 C360.944,104.728 361.608,105.584 361.608,107.296 L361.608,107.296 L361.608,108.688 C361.608,109.872 361.488,110.636 361.248,110.98 C361.008,111.324 360.496,111.496 359.712,111.496 L359.712,111.496 L359.712,112 L365.208,112 L365.208,111.496 C364.408,111.496 363.892,111.328 363.66,110.992 C363.428,110.656 363.312,109.888 363.312,108.688 L363.312,108.688 L363.312,107.176 C363.312,106.104 363.052,105.24 362.532,104.584 C362.012,103.928 361.232,103.6 360.192,103.6 C358.88,103.6 357.768,104.176 356.856,105.328 C356.728,104.48 356.592,103.904 356.448,103.6 L356.448,103.6 L353.256,104.2 L353.256,104.704 C354.056,104.704 354.572,104.872 354.804,105.208 C355.036,105.544 355.152,106.304 355.152,107.488 L355.152,107.488 L355.152,108.688 C355.152,109.888 355.036,110.656 354.804,110.992 C354.572,111.328 354.056,111.496 353.256,111.496 L353.256,111.496 L353.256,112 L358.536,112 Z M374.328,112.312 C375.256,112.312 376.256,111.832 377.328,110.872 C377.456,111.8 378,112.264 378.96,112.264 C379.552,112.264 380.08,112.016 380.544,111.52 L380.544,111.52 L380.208,111.064 C379.968,111.304 379.744,111.424 379.536,111.424 C379.168,111.424 378.984,111.112 378.984,110.488 L378.984,110.488 L378.984,106.864 C378.984,105.712 378.728,104.88 378.216,104.368 C377.704,103.856 376.864,103.6 375.696,103.6 C374.896,103.6 374.188,103.78 373.572,104.14 C372.956,104.5 372.648,104.96 372.648,105.52 C372.648,105.76 372.728,105.96 372.888,106.12 C373.048,106.28 373.248,106.36 373.488,106.36 C373.712,106.36 373.904,106.28 374.064,106.12 C374.224,105.96 374.304,105.76 374.304,105.52 C374.304,105.168 374.452,104.888 374.748,104.68 C375.044,104.472 375.352,104.368 375.672,104.368 C376.328,104.368 376.76,104.552 376.968,104.92 C377.176,105.288 377.28,105.944 377.28,106.888 C373.872,107.48 372.168,108.616 372.168,110.296 C372.168,110.92 372.376,111.412 372.792,111.772 C373.208,112.132 373.72,112.312 374.328,112.312 Z M375.096,111.232 C374.776,111.232 374.508,111.12 374.292,110.896 C374.076,110.672 373.968,110.376 373.968,110.008 C373.968,108.936 375.072,108.144 377.28,107.632 L377.28,107.632 L377.28,110.08 C376.416,110.848 375.688,111.232 375.096,111.232 Z M386.928,112 L386.928,111.496 C386.272,111.496 385.86,111.34 385.692,111.028 C385.524,110.716 385.44,109.936 385.44,108.688 L385.44,108.688 L385.44,107.128 C385.44,106.456 385.728,105.888 386.304,105.424 C386.88,104.96 387.416,104.728 387.912,104.728 C389.064,104.728 389.64,105.584 389.64,107.296 L389.64,107.296 L389.64,108.688 C389.64,109.952 389.556,110.736 389.388,111.04 C389.22,111.344 388.8,111.496 388.128,111.496 L388.128,111.496 L388.128,112 L392.832,112 L392.832,111.496 C392.16,111.496 391.74,111.344 391.572,111.04 C391.404,110.736 391.32,109.952 391.32,108.688 L391.32,108.688 L391.32,107.128 C391.32,106.456 391.612,105.888 392.196,105.424 C392.78,104.96 393.32,104.728 393.816,104.728 C394.952,104.728 395.52,105.584 395.52,107.296 L395.52,107.296 L395.52,108.688 C395.52,109.952 395.44,110.736 395.28,111.04 C395.12,111.344 394.704,111.496 394.032,111.496 L394.032,111.496 L394.032,112 L399.12,112 L399.12,111.496 C398.32,111.496 397.804,111.328 397.572,110.992 C397.34,110.656 397.224,109.888 397.224,108.688 L397.224,108.688 L397.224,107.176 C397.224,104.792 396.304,103.6 394.464,103.6 C393.808,103.6 393.164,103.788 392.532,104.164 C391.9,104.54 391.424,104.952 391.104,105.4 C390.736,104.2 389.888,103.6 388.56,103.6 C387.392,103.6 386.352,104.176 385.44,105.328 C385.312,104.48 385.176,103.904 385.032,103.6 L385.032,103.6 L381.84,104.2 L381.84,104.704 C382.64,104.704 383.156,104.872 383.388,105.208 C383.62,105.544 383.736,106.304 383.736,107.488 L383.736,107.488 L383.736,108.688 C383.736,109.888 383.62,110.656 383.388,110.992 C383.156,111.328 382.64,111.496 381.84,111.496 L381.84,111.496 L381.84,112 L386.928,112 Z M405.552,118 L405.552,117.496 C404.752,117.496 404.236,117.328 404.004,116.992 C403.772,116.656 403.656,115.896 403.656,114.712 L403.656,114.712 L403.656,110.968 C404.44,111.928 405.424,112.408 406.608,112.408 C407.744,112.408 408.72,111.976 409.536,111.112 C410.352,110.248 410.76,109.208 410.76,107.992 C410.76,106.776 410.352,105.74 409.536,104.884 C408.72,104.028 407.744,103.6 406.608,103.6 C405.44,103.6 404.448,104.088 403.632,105.064 C403.488,104.264 403.368,103.776 403.272,103.6 L403.272,103.6 L400.056,104.2 L400.056,104.704 C400.856,104.704 401.372,104.868 401.604,105.196 C401.836,105.524 401.952,106.288 401.952,107.488 L401.952,107.488 L401.952,114.712 C401.952,115.912 401.836,116.676 401.604,117.004 C401.372,117.332 400.856,117.496 400.056,117.496 L400.056,117.496 L400.056,118 L405.552,118 Z M406.104,111.448 C405.56,111.448 405.076,111.276 404.652,110.932 C404.228,110.588 403.896,110.12 403.656,109.528 L403.656,109.528 L403.656,106.432 C403.896,105.856 404.228,105.4 404.652,105.064 C405.076,104.728 405.56,104.56 406.104,104.56 C406.984,104.56 407.656,104.88 408.12,105.52 C408.584,106.16 408.816,106.984 408.816,107.992 C408.816,109 408.584,109.832 408.12,110.488 C407.656,111.128 406.984,111.448 406.104,111.448 Z M413.568,112.408 C413.568,112.088 413.6,111.872 413.664,111.76 C413.728,111.648 413.84,111.62 414,111.676 C414.16,111.732 414.332,111.812 414.516,111.916 C414.7,112.02 414.944,112.128 415.248,112.24 C415.552,112.352 415.848,112.408 416.136,112.408 C416.936,112.408 417.612,112.164 418.164,111.676 C418.716,111.188 418.992,110.56 418.992,109.792 C418.992,108.88 418.44,108.112 417.336,107.488 L417.336,107.488 L416.184,106.864 C415.624,106.56 415.24,106.308 415.032,106.108 C414.824,105.908 414.72,105.672 414.72,105.4 C414.72,105.096 414.824,104.848 415.032,104.656 C415.24,104.464 415.544,104.368 415.944,104.368 C416.52,104.368 416.988,104.572 417.348,104.98 C417.708,105.388 417.888,105.856 417.888,106.384 L417.888,106.384 L418.392,106.384 L418.392,103.6 L417.888,103.6 C417.888,103.92 417.852,104.1 417.78,104.14 C417.708,104.18 417.576,104.144 417.384,104.032 C416.808,103.744 416.248,103.6 415.704,103.6 C415.064,103.6 414.5,103.808 414.012,104.224 C413.524,104.64 413.28,105.16 413.28,105.784 C413.28,106.808 413.808,107.608 414.864,108.184 L414.864,108.184 L416.208,108.904 C417.104,109.384 417.552,109.872 417.552,110.368 C417.552,110.704 417.42,110.992 417.156,111.232 C416.892,111.472 416.568,111.592 416.184,111.592 C415.4,111.592 414.768,111.3 414.288,110.716 C413.808,110.132 413.568,109.528 413.568,108.904 L413.568,108.904 L413.064,108.904 L413.064,112.408 L413.568,112.408 Z M433.056,114.664 L433.584,114.16 C433.072,113.584 432.648,113.084 432.312,112.66 C431.976,112.236 431.54,111.604 431.004,110.764 C430.468,109.924 430.056,109.008 429.768,108.016 C429.48,107.024 429.336,105.992 429.336,104.92 C429.336,103.848 429.48,102.816 429.768,101.824 C430.056,100.832 430.468,99.916 431.004,99.076 C431.54,98.236 431.976,97.604 432.312,97.18 C432.648,96.756 433.072,96.256 433.584,95.68 L433.584,95.68 L433.032,95.176 C429.448,98.136 427.656,101.384 427.656,104.92 C427.656,108.472 429.456,111.72 433.056,114.664 L433.056,114.664 Z M441.648,112 L441.648,111.496 C440.656,111.496 440.028,111.328 439.764,110.992 C439.5,110.656 439.368,109.888 439.368,108.688 L439.368,108.688 L439.368,100.888 C439.368,99.688 439.5,98.924 439.764,98.596 C440.028,98.268 440.656,98.104 441.648,98.104 L441.648,98.104 L441.648,97.6 L435.168,97.6 L435.168,98.104 C436.16,98.104 436.788,98.268 437.052,98.596 C437.316,98.924 437.448,99.688 437.448,100.888 L437.448,100.888 L437.448,108.688 C437.448,109.888 437.316,110.656 437.052,110.992 C436.788,111.328 436.16,111.496 435.168,111.496 L435.168,111.496 L435.168,112 L441.648,112 Z M443.784,114.664 C447.368,111.736 449.16,108.488 449.16,104.92 C449.16,101.368 447.376,98.12 443.808,95.176 L443.808,95.176 L443.232,95.68 C443.76,96.272 444.188,96.776 444.516,97.192 C444.844,97.608 445.28,98.236 445.824,99.076 C446.368,99.916 446.784,100.832 447.072,101.824 C447.36,102.816 447.504,103.848 447.504,104.92 C447.504,105.992 447.36,107.024 447.072,108.016 C446.784,109.008 446.368,109.924 445.824,110.764 C445.28,111.604 444.844,112.232 444.516,112.648 C444.188,113.064 443.76,113.568 443.232,114.16 L443.232,114.16 L443.784,114.664 Z" id="Current,inamps(I)" fill="#524740" fill-rule="nonzero"></path>
            <path id="Line-11-Copy-3" d="M224.15895,75.8006381 L233.65895,94.8006381 L225.658,94.8 L225.65895,131.203227 L222.65895,131.203227 L222.658,94.8 L214.65895,94.8006381 L224.15895,75.8006381 Z" fill="#B09679" fill-rule="nonzero"></path>
            <path id="Line-11-Copy-4" d="M1.99523478,75.3006381 L1.995,111.703 L9.99523478,111.703227 L0.495234784,130.703227 L-9.00476522,111.703227 L-1.004,111.703 L-1.00476522,75.3006381 L1.99523478,75.3006381 Z" fill="#B09679" fill-rule="nonzero"></path>
            <polyline id="Resistor" stroke="#524740" stroke-width="2" stroke-linejoin="bevel" points="77 45 82 45 87 32 97 58 107 32 117 58 127 32 137 58 142 45 147 45"></polyline>
            <g id="DC_Power" transform="translate(72.000000, 117.000000)">
                <circle id="Oval" stroke="#524740" stroke-width="2" cx="40" cy="40" r="39"></circle>
                <text id="+" font-family="Lato-Regular, Lato" font-size="18" font-weight="normal" letter-spacing="0.8999999" fill="#524740">
                    <tspan x="58.3300001" y="47">+</tspan>
                </text>
                <text id="-" font-family="Lato-Regular, Lato" font-size="18" font-weight="normal" letter-spacing="0.8999999" fill="#524740">
                    <tspan x="13.2065" y="46.5">-</tspan>
                </text>
            </g>
        </g>
    </g>
</svg>