<?xml version="1.0" encoding="UTF-8"?>
<svg width="900px" height="370px" viewBox="0 0 900 370" version="1.1" xmlns="http://www.w3.org/2000/svg" xmlns:xlink="http://www.w3.org/1999/xlink">
    <!-- Generator: Sketch 60.1 (88133) - https://sketch.com -->
    <title>Parallel_Resistance</title>
    <desc>Created with Sketch.</desc>
    <g id="Parallel_Resistance" stroke="none" stroke-width="1" fill="none" fill-rule="evenodd">
        <g id="Illustration_Frame">
            <rect id="Rectangle" stroke="#3D3530" stroke-width="2" fill="#EEEEEE" x="1" y="1" width="898" height="368"></rect>
            <rect id="Rectangle-Copy" stroke="#3D3530" stroke-width="2" fill="#F8FAE4" x="1" y="326" width="898" height="43"></rect>
            <path d="M662.541333,355 L662.541333,348.904 L666.429333,348.904 C668.237333,348.904 669.677333,348.424 670.749333,347.464 C671.821333,346.504 672.357333,345.312 672.357333,343.888 C672.357333,342.448 671.821333,341.252 670.749333,340.3 C669.677333,339.348 668.237333,338.872 666.429333,338.872 L666.429333,338.872 L660.957333,338.872 L660.957333,355 L662.541333,355 Z M666.429333,347.392 L662.541333,347.392 L662.541333,340.384 L666.429333,340.384 C667.725333,340.384 668.765333,340.72 669.549333,341.392 C670.333333,342.064 670.725333,342.896 670.725333,343.888 C670.725333,344.896 670.333333,345.732 669.549333,346.396 C668.765333,347.06 667.725333,347.392 666.429333,347.392 L666.429333,347.392 Z M680.391999,355.192 C682.279999,355.192 683.839999,354.48 685.071999,353.056 L685.071999,353.056 L685.071999,355 L686.655999,355 L686.655999,343 L685.071999,343 L685.071999,344.944 C683.855999,343.52 682.295999,342.808 680.391999,342.808 C678.679999,342.808 677.219999,343.412 676.011999,344.62 C674.803999,345.828 674.199999,347.288 674.199999,349 C674.199999,350.712 674.803999,352.172 676.011999,353.38 C677.219999,354.588 678.679999,355.192 680.391999,355.192 Z M680.415999,353.68 C679.135999,353.68 678.043999,353.228 677.139999,352.324 C676.235999,351.42 675.783999,350.312 675.783999,349 C675.783999,347.688 676.235999,346.58 677.139999,345.676 C678.043999,344.772 679.135999,344.32 680.415999,344.32 C681.711999,344.32 682.803999,344.772 683.691999,345.676 C684.579999,346.58 685.023999,347.688 685.023999,349 C685.023999,350.312 684.579999,351.42 683.691999,352.324 C682.803999,353.228 681.711999,353.68 680.415999,353.68 Z M692.146666,355 L692.146666,347.968 C692.146666,346.928 692.490666,346.052 693.178666,345.34 C693.866666,344.628 694.714666,344.272 695.722666,344.272 C696.410666,344.272 697.090666,344.52 697.762666,345.016 L697.762666,345.016 L698.314666,343.432 C697.610666,343.016 696.834666,342.808 695.986666,342.808 C694.402666,342.808 693.122666,343.464 692.146666,344.776 L692.146666,344.776 L692.146666,343 L690.562666,343 L690.562666,355 L692.146666,355 Z M705.629333,355.192 C707.517333,355.192 709.077333,354.48 710.309333,353.056 L710.309333,353.056 L710.309333,355 L711.893333,355 L711.893333,343 L710.309333,343 L710.309333,344.944 C709.093333,343.52 707.533333,342.808 705.629333,342.808 C703.917333,342.808 702.457333,343.412 701.249333,344.62 C700.041333,345.828 699.437333,347.288 699.437333,349 C699.437333,350.712 700.041333,352.172 701.249333,353.38 C702.457333,354.588 703.917333,355.192 705.629333,355.192 Z M705.653333,353.68 C704.373333,353.68 703.281333,353.228 702.377333,352.324 C701.473333,351.42 701.021333,350.312 701.021333,349 C701.021333,347.688 701.473333,346.58 702.377333,345.676 C703.281333,344.772 704.373333,344.32 705.653333,344.32 C706.949333,344.32 708.041333,344.772 708.929333,345.676 C709.817333,346.58 710.261333,347.688 710.261333,349 C710.261333,350.312 709.817333,351.42 708.929333,352.324 C708.041333,353.228 706.949333,353.68 705.653333,353.68 Z M717.527999,355 L717.527999,337.144 L715.943999,337.144 L715.943999,355 L717.527999,355 Z M723.114666,355 L723.114666,337.144 L721.530666,337.144 L721.530666,355 L723.114666,355 Z M732.541333,355.072 C734.013333,355.088 735.281333,354.672 736.345333,353.824 C737.409333,352.976 738.125333,352.048 738.493333,351.04 L738.493333,351.04 L737.149333,350.56 C736.845333,351.376 736.269333,352.088 735.421333,352.696 C734.573333,353.304 733.613333,353.608 732.541333,353.608 C731.549333,353.624 730.645333,353.324 729.829333,352.708 C729.013333,352.092 728.469333,351.304 728.197333,350.344 L728.197333,350.344 L738.685333,348.448 C738.685333,348.32 738.677333,348.216 738.661333,348.136 C738.485333,346.6 737.813333,345.312 736.645333,344.272 C735.477333,343.232 734.109333,342.704 732.541333,342.688 C730.813333,342.704 729.349333,343.312 728.149333,344.512 C726.949333,345.712 726.349333,347.176 726.349333,348.904 C726.349333,349.528 726.429333,350.104 726.589333,350.632 C726.989333,351.928 727.745333,352.992 728.857333,353.824 C729.969333,354.656 731.197333,355.072 732.541333,355.072 Z M727.957333,349.048 C727.957333,348.968 727.953333,348.868 727.945333,348.748 C727.937333,348.628 727.933333,348.544 727.933333,348.496 C727.997333,347.312 728.457333,346.296 729.313333,345.448 C730.169333,344.6 731.197333,344.168 732.397333,344.152 C733.421333,344.136 734.349333,344.436 735.181333,345.052 C736.013333,345.668 736.581333,346.464 736.885333,347.44 L736.885333,347.44 L727.957333,349.048 Z M743.768,355 L743.768,337.144 L742.184,337.144 L742.184,355 L743.768,355 Z M756.693333,355 L756.693333,348.904 L760.437333,348.904 L761.421333,348.856 L764.853333,355 L766.509333,355 L762.909333,348.52 C764.045333,348.168 764.929333,347.576 765.561333,346.744 C766.193333,345.912 766.509333,344.96 766.509333,343.888 C766.509333,342.448 765.973333,341.252 764.901333,340.3 C763.829333,339.348 762.389333,338.872 760.581333,338.872 L760.581333,338.872 L755.109333,338.872 L755.109333,355 L756.693333,355 Z M760.581333,347.392 L756.693333,347.392 L756.693333,340.384 L760.581333,340.384 C761.877333,340.384 762.917333,340.72 763.701333,341.392 C764.485333,342.064 764.877333,342.896 764.877333,343.888 C764.877333,344.896 764.485333,345.732 763.701333,346.396 C762.917333,347.06 761.877333,347.392 760.581333,347.392 L760.581333,347.392 Z M774.952,355.072 C776.424,355.088 777.692,354.672 778.756,353.824 C779.82,352.976 780.536,352.048 780.904,351.04 L780.904,351.04 L779.56,350.56 C779.256,351.376 778.68,352.088 777.832,352.696 C776.984,353.304 776.024,353.608 774.952,353.608 C773.96,353.624 773.056,353.324 772.24,352.708 C771.424,352.092 770.88,351.304 770.608,350.344 L770.608,350.344 L781.096,348.448 C781.096,348.32 781.088,348.216 781.072,348.136 C780.896,346.6 780.224,345.312 779.056,344.272 C777.888,343.232 776.52,342.704 774.952,342.688 C773.224,342.704 771.76,343.312 770.56,344.512 C769.36,345.712 768.76,347.176 768.76,348.904 C768.76,349.528 768.84,350.104 769,350.632 C769.4,351.928 770.156,352.992 771.268,353.824 C772.38,354.656 773.608,355.072 774.952,355.072 Z M770.368,349.048 C770.368,348.968 770.364,348.868 770.356,348.748 C770.348,348.628 770.344,348.544 770.344,348.496 C770.408,347.312 770.868,346.296 771.724,345.448 C772.58,344.6 773.608,344.168 774.808,344.152 C775.832,344.136 776.76,344.436 777.592,345.052 C778.424,345.668 778.992,346.464 779.296,347.44 L779.296,347.44 L770.368,349.048 Z M788.218666,355.192 C789.690666,355.192 790.794666,354.88 791.530666,354.256 C792.266666,353.632 792.634666,352.816 792.634666,351.808 C792.634666,351.088 792.370666,350.476 791.842666,349.972 C791.314666,349.468 790.670666,349.084 789.910666,348.82 C789.150666,348.556 788.394666,348.312 787.642666,348.088 C786.890666,347.864 786.250666,347.596 785.722666,347.284 C785.194666,346.972 784.930666,346.6 784.930666,346.168 C784.930666,345.56 785.198666,345.088 785.734666,344.752 C786.270666,344.416 786.970666,344.248 787.834666,344.248 C788.442666,344.248 789.050666,344.384 789.658666,344.656 C790.266666,344.928 790.670666,345.144 790.870666,345.304 C791.070666,345.464 791.226666,345.6 791.338666,345.712 L791.338666,345.712 L792.466666,344.728 L791.962666,344.248 C791.626666,343.928 791.074666,343.608 790.306666,343.288 C789.538666,342.968 788.722666,342.808 787.858666,342.808 C786.402666,342.808 785.302666,343.124 784.558666,343.756 C783.814666,344.388 783.442666,345.2 783.442666,346.192 C783.442666,346.912 783.706666,347.52 784.234666,348.016 C784.762666,348.512 785.406666,348.896 786.166666,349.168 C786.926666,349.44 787.682666,349.688 788.434666,349.912 C789.186666,350.136 789.826666,350.404 790.354666,350.716 C790.882666,351.028 791.146666,351.4 791.146666,351.832 C791.146666,352.44 790.882666,352.912 790.354666,353.248 C789.826666,353.584 789.122666,353.752 788.242666,353.752 C787.650666,353.752 787.050666,353.616 786.442666,353.344 C785.834666,353.072 785.430666,352.856 785.230666,352.696 C785.030666,352.536 784.874666,352.4 784.762666,352.288 L784.762666,352.288 L783.634666,353.248 L783.826666,353.464 C783.954666,353.592 784.154666,353.752 784.426666,353.944 C784.698666,354.136 785.006666,354.324 785.350666,354.508 C785.694666,354.692 786.122666,354.852 786.634666,354.988 C787.146666,355.124 787.674666,355.192 788.218666,355.192 Z M796.997333,339.688 C797.269333,339.688 797.493333,339.592 797.669333,339.4 C797.861333,339.208 797.957333,338.984 797.957333,338.728 C797.957333,338.472 797.865333,338.248 797.681333,338.056 C797.497333,337.864 797.269333,337.768 796.997333,337.768 C796.725333,337.768 796.497333,337.864 796.313333,338.056 C796.129333,338.248 796.037333,338.472 796.037333,338.728 C796.037333,338.984 796.129333,339.208 796.313333,339.4 C796.497333,339.592 796.725333,339.688 796.997333,339.688 Z M797.789333,355 L797.789333,343 L796.205333,343 L796.205333,355 L797.789333,355 Z M806.064,355.192 C807.536,355.192 808.64,354.88 809.376,354.256 C810.112,353.632 810.48,352.816 810.48,351.808 C810.48,351.088 810.216,350.476 809.688,349.972 C809.16,349.468 808.516,349.084 807.756,348.82 C806.996,348.556 806.24,348.312 805.488,348.088 C804.736,347.864 804.096,347.596 803.568,347.284 C803.04,346.972 802.776,346.6 802.776,346.168 C802.776,345.56 803.044,345.088 803.58,344.752 C804.116,344.416 804.816,344.248 805.68,344.248 C806.288,344.248 806.896,344.384 807.504,344.656 C808.112,344.928 808.516,345.144 808.716,345.304 C808.916,345.464 809.072,345.6 809.184,345.712 L809.184,345.712 L810.312,344.728 L809.808,344.248 C809.472,343.928 808.92,343.608 808.152,343.288 C807.384,342.968 806.568,342.808 805.704,342.808 C804.248,342.808 803.148,343.124 802.404,343.756 C801.66,344.388 801.288,345.2 801.288,346.192 C801.288,346.912 801.552,347.52 802.08,348.016 C802.608,348.512 803.252,348.896 804.012,349.168 C804.772,349.44 805.528,349.688 806.28,349.912 C807.032,350.136 807.672,350.404 808.2,350.716 C808.728,351.028 808.992,351.4 808.992,351.832 C808.992,352.44 808.728,352.912 808.2,353.248 C807.672,353.584 806.968,353.752 806.088,353.752 C805.496,353.752 804.896,353.616 804.288,353.344 C803.68,353.072 803.276,352.856 803.076,352.696 C802.876,352.536 802.72,352.4 802.608,352.288 L802.608,352.288 L801.48,353.248 L801.672,353.464 C801.8,353.592 802,353.752 802.272,353.944 C802.544,354.136 802.852,354.324 803.196,354.508 C803.54,354.692 803.968,354.852 804.48,354.988 C804.992,355.124 805.52,355.192 806.064,355.192 Z M817.746666,355.192 C818.338666,355.192 818.914666,355.036 819.474666,354.724 C820.034666,354.412 820.394666,354.168 820.554666,353.992 C820.714666,353.816 820.842666,353.664 820.938666,353.536 L820.938666,353.536 L820.146666,352.312 C820.146666,352.376 820.062666,352.516 819.894666,352.732 C819.726666,352.948 819.466666,353.168 819.114666,353.392 C818.762666,353.616 818.402666,353.728 818.034666,353.728 C817.442666,353.728 816.918666,353.512 816.462666,353.08 C816.006666,352.648 815.778666,352.064 815.778666,351.328 L815.778666,351.328 L815.778666,344.44 L819.402666,344.44 L819.402666,342.976 L815.778666,342.976 L815.778666,338.992 L814.194666,339.184 L814.194666,342.976 L812.274666,342.976 L812.274666,344.44 L814.194666,344.44 L814.194666,351.688 C814.194666,352.824 814.534666,353.692 815.214666,354.292 C815.894666,354.892 816.738666,355.192 817.746666,355.192 Z M828.589333,355.192 C830.477333,355.192 832.037333,354.48 833.269333,353.056 L833.269333,353.056 L833.269333,355 L834.853333,355 L834.853333,343 L833.269333,343 L833.269333,344.944 C832.053333,343.52 830.493333,342.808 828.589333,342.808 C826.877333,342.808 825.417333,343.412 824.209333,344.62 C823.001333,345.828 822.397333,347.288 822.397333,349 C822.397333,350.712 823.001333,352.172 824.209333,353.38 C825.417333,354.588 826.877333,355.192 828.589333,355.192 Z M828.613333,353.68 C827.333333,353.68 826.241333,353.228 825.337333,352.324 C824.433333,351.42 823.981333,350.312 823.981333,349 C823.981333,347.688 824.433333,346.58 825.337333,345.676 C826.241333,344.772 827.333333,344.32 828.613333,344.32 C829.909333,344.32 831.001333,344.772 831.889333,345.676 C832.777333,346.58 833.221333,347.688 833.221333,349 C833.221333,350.312 832.777333,351.42 831.889333,352.324 C831.001333,353.228 829.909333,353.68 828.613333,353.68 Z M840.344,355 L840.344,347.968 C840.344,346.944 840.692,346.072 841.388,345.352 C842.084,344.632 842.928,344.272 843.92,344.272 C844.912,344.272 845.756,344.632 846.452,345.352 C847.148,346.072 847.496,346.944 847.496,347.968 L847.496,347.968 L847.496,355 L849.104,355 L849.104,347.92 C849.104,346.48 848.632,345.268 847.688,344.284 C846.744,343.3 845.576,342.808 844.184,342.808 C842.6,342.808 841.32,343.464 840.344,344.776 L840.344,344.776 L840.344,343 L838.76,343 L838.76,355 L840.344,355 Z M858.218667,355.192 C859.306667,355.192 860.318667,354.924 861.254667,354.388 C862.190667,353.852 862.930667,353.136 863.474667,352.24 L863.474667,352.24 L862.034667,351.544 C861.602667,352.2 861.050667,352.72 860.378667,353.104 C859.706667,353.488 858.986667,353.68 858.218667,353.68 C856.922667,353.68 855.830667,353.228 854.942667,352.324 C854.054667,351.42 853.610667,350.312 853.610667,349 C853.610667,347.688 854.054667,346.58 854.942667,345.676 C855.830667,344.772 856.922667,344.32 858.218667,344.32 C858.986667,344.32 859.706667,344.512 860.378667,344.896 C861.050667,345.28 861.602667,345.8 862.034667,346.456 L862.034667,346.456 L863.474667,345.76 C862.930667,344.864 862.190667,344.148 861.254667,343.612 C860.318667,343.076 859.306667,342.808 858.218667,342.808 C856.506667,342.808 855.046667,343.412 853.838667,344.62 C852.630667,345.828 852.026667,347.288 852.026667,349 C852.026667,350.712 852.630667,352.172 853.838667,353.38 C855.046667,354.588 856.506667,355.192 858.218667,355.192 Z M872.037333,355.072 C873.509333,355.088 874.777333,354.672 875.841333,353.824 C876.905333,352.976 877.621333,352.048 877.989333,351.04 L877.989333,351.04 L876.645333,350.56 C876.341333,351.376 875.765333,352.088 874.917333,352.696 C874.069333,353.304 873.109333,353.608 872.037333,353.608 C871.045333,353.624 870.141333,353.324 869.325333,352.708 C868.509333,352.092 867.965333,351.304 867.693333,350.344 L867.693333,350.344 L878.181333,348.448 C878.181333,348.32 878.173333,348.216 878.157333,348.136 C877.981333,346.6 877.309333,345.312 876.141333,344.272 C874.973333,343.232 873.605333,342.704 872.037333,342.688 C870.309333,342.704 868.845333,343.312 867.645333,344.512 C866.445333,345.712 865.845333,347.176 865.845333,348.904 C865.845333,349.528 865.925333,350.104 866.085333,350.632 C866.485333,351.928 867.241333,352.992 868.353333,353.824 C869.465333,354.656 870.693333,355.072 872.037333,355.072 Z M867.453333,349.048 C867.453333,348.968 867.449333,348.868 867.441333,348.748 C867.433333,348.628 867.429333,348.544 867.429333,348.496 C867.493333,347.312 867.953333,346.296 868.809333,345.448 C869.665333,344.6 870.693333,344.168 871.893333,344.152 C872.917333,344.136 873.845333,344.436 874.677333,345.052 C875.509333,345.668 876.077333,346.464 876.381333,347.44 L876.381333,347.44 L867.453333,349.048 Z" id="ParallelResistance" fill="#23ABE3" fill-rule="nonzero"></path>
        </g>
        <g id="Parallel_Resistances" transform="translate(310.000000, 22.000000)">
            <path d="M76.4,17.408 C76.496,16.96 76.728,16.584 77.096,16.28 C77.256,16.312 77.536,16.428 77.936,16.628 C78.336,16.828 78.784,17.008 79.28,17.168 C79.776,17.328 80.296,17.408 80.84,17.408 C82.12,17.408 83.204,17.008 84.092,16.208 C84.98,15.408 85.424,14.368 85.424,13.088 C85.424,11.504 84.584,10.288 82.904,9.44 L82.904,9.44 L80.624,8.264 C79.52,7.688 78.756,7.196 78.332,6.788 C77.908,6.38 77.696,5.88 77.696,5.288 C77.696,4.68 77.916,4.172 78.356,3.764 C78.796,3.356 79.352,3.152 80.024,3.152 C82.232,3.152 83.456,4.552 83.696,7.352 L83.696,7.352 L84.2,7.352 L84.2,2.072 L83.72,2.072 C83.624,2.504 83.392,2.872 83.024,3.176 C82.128,2.52 81.152,2.192 80.096,2.192 C78.944,2.192 77.992,2.536 77.24,3.224 C76.488,3.912 76.112,4.76 76.112,5.768 C76.112,6.632 76.368,7.408 76.88,8.096 C77.392,8.784 78.024,9.328 78.776,9.728 L78.776,9.728 L81.08,10.904 C82.92,11.864 83.84,12.832 83.84,13.808 C83.84,14.576 83.556,15.208 82.988,15.704 C82.42,16.2 81.704,16.448 80.84,16.448 C80.248,16.448 79.708,16.368 79.22,16.208 C78.732,16.048 78.34,15.848 78.044,15.608 C77.748,15.368 77.488,15.08 77.264,14.744 C77.04,14.408 76.876,14.104 76.772,13.832 C76.668,13.56 76.588,13.276 76.532,12.98 C76.476,12.684 76.444,12.484 76.436,12.38 C76.428,12.276 76.424,12.192 76.424,12.128 L76.424,12.128 L75.92,12.128 L75.92,17.408 L76.4,17.408 Z M92.6,17.408 C93.928,17.408 95.068,16.976 96.02,16.112 C96.972,15.248 97.448,14.208 97.448,12.992 C97.448,11.776 96.968,10.744 96.008,9.896 C95.064,9.032 93.928,8.6 92.6,8.6 C91.272,8.6 90.132,9.028 89.18,9.884 C88.228,10.74 87.752,11.776 87.752,12.992 C87.752,14.208 88.228,15.248 89.18,16.112 C90.132,16.976 91.272,17.408 92.6,17.408 Z M92.6,16.472 C91.656,16.472 90.936,16.144 90.44,15.488 C89.944,14.832 89.696,14 89.696,12.992 C89.696,11.984 89.944,11.152 90.44,10.496 C90.936,9.84 91.656,9.512 92.6,9.512 C93.544,9.512 94.264,9.836 94.76,10.484 C95.256,11.132 95.504,11.968 95.504,12.992 C95.504,14.016 95.256,14.856 94.76,15.512 C94.264,16.152 93.544,16.472 92.6,16.472 Z M107.456,17.408 L110.672,16.808 L110.672,16.304 C109.856,16.304 109.332,16.136 109.1,15.8 C108.868,15.464 108.752,14.696 108.752,13.496 L108.752,13.496 L108.752,9.008 L105.152,9.008 L105.152,9.488 C105.968,9.488 106.492,9.656 106.724,9.992 C106.956,10.328 107.072,11.096 107.072,12.296 L107.072,12.296 L107.072,13.88 C107.072,14.552 106.776,15.116 106.184,15.572 C105.592,16.028 105.024,16.256 104.48,16.256 C103.264,16.256 102.656,15.4 102.656,13.688 L102.656,13.688 L102.656,9.008 L99.056,9.008 L99.056,9.488 C99.856,9.488 100.372,9.656 100.604,9.992 C100.836,10.328 100.952,11.096 100.952,12.296 L100.952,12.296 L100.952,13.808 C100.952,16.208 101.944,17.408 103.928,17.408 C105.032,17.408 106.08,16.896 107.072,15.872 C107.2,16.64 107.328,17.152 107.456,17.408 L107.456,17.408 Z M117.536,17 L117.536,16.496 C116.736,16.496 116.22,16.328 115.988,15.992 C115.756,15.656 115.64,14.888 115.64,13.688 L115.64,13.688 L115.64,12.368 C115.64,11.52 115.856,10.84 116.288,10.328 C116.72,9.816 117.12,9.56 117.488,9.56 C118,9.56 118.256,9.824 118.256,10.352 C118.256,10.576 118.34,10.776 118.508,10.952 C118.676,11.128 118.872,11.216 119.096,11.216 C119.736,11.216 120.056,10.84 120.056,10.088 C120.056,9.736 119.892,9.4 119.564,9.08 C119.236,8.76 118.768,8.6 118.16,8.6 C117.68,8.6 117.2,8.768 116.72,9.104 C116.24,9.44 115.88,9.848 115.64,10.328 C115.512,9.48 115.376,8.904 115.232,8.6 L115.232,8.6 L112.04,9.2 L112.04,9.704 C112.84,9.704 113.356,9.872 113.588,10.208 C113.82,10.544 113.936,11.304 113.936,12.488 L113.936,12.488 L113.936,13.688 C113.936,14.888 113.82,15.656 113.588,15.992 C113.356,16.328 112.84,16.496 112.04,16.496 L112.04,16.496 L112.04,17 L117.536,17 Z M125.96,17.408 C127.368,17.408 128.56,16.88 129.536,15.824 L129.536,15.824 L129.128,15.296 C128.344,16.032 127.488,16.4 126.56,16.4 C125.6,16.4 124.876,16.116 124.388,15.548 C123.9,14.98 123.656,14.2 123.656,13.208 C123.656,12.12 123.88,11.208 124.328,10.472 C124.776,9.736 125.32,9.368 125.96,9.368 C126.536,9.368 126.824,9.712 126.824,10.4 C126.824,10.672 126.916,10.9 127.1,11.084 C127.284,11.268 127.504,11.36 127.76,11.36 C128.128,11.36 128.396,11.252 128.564,11.036 C128.732,10.82 128.816,10.584 128.816,10.328 C128.816,9.848 128.576,9.44 128.096,9.104 C127.616,8.768 126.904,8.6 125.96,8.6 C124.92,8.6 123.952,9.036 123.056,9.908 C122.16,10.78 121.712,11.88 121.712,13.208 C121.712,14.44 122.092,15.448 122.852,16.232 C123.612,17.016 124.648,17.408 125.96,17.408 Z M135.584,17.408 C136.256,17.408 136.928,17.26 137.6,16.964 C138.272,16.668 138.824,16.288 139.256,15.824 L139.256,15.824 L138.824,15.296 C138.488,15.616 138.064,15.88 137.552,16.088 C137.04,16.296 136.584,16.4 136.184,16.4 C135,16.4 134.148,16.028 133.628,15.284 C133.108,14.54 132.92,13.576 133.064,12.392 L133.064,12.392 L138.848,12.392 C139.136,11.384 138.936,10.5 138.248,9.74 C137.56,8.98 136.672,8.6 135.584,8.6 C134.432,8.6 133.404,9.024 132.5,9.872 C131.596,10.72 131.144,11.76 131.144,12.992 C131.144,14.224 131.56,15.268 132.392,16.124 C133.224,16.98 134.288,17.408 135.584,17.408 Z M137.192,11.504 L133.208,11.504 C133.384,10.912 133.676,10.44 134.084,10.088 C134.492,9.736 134.952,9.56 135.464,9.56 C136.184,9.56 136.692,9.772 136.988,10.196 C137.284,10.62 137.352,11.056 137.192,11.504 L137.192,11.504 Z M153.272,17.408 L158.552,5.192 C158.952,4.264 159.292,3.684 159.572,3.452 C159.852,3.22 160.464,3.104 161.408,3.104 L161.408,3.104 L161.408,2.6 L155.816,2.6 L155.816,3.104 C156.808,3.104 157.444,3.244 157.724,3.524 C158.004,3.804 157.992,4.272 157.688,4.928 L157.688,4.928 L153.656,14.264 L149.576,4.928 C149.272,4.272 149.26,3.804 149.54,3.524 C149.82,3.244 150.456,3.104 151.448,3.104 L151.448,3.104 L151.448,2.6 L144.8,2.6 L144.8,3.104 C145.744,3.104 146.356,3.22 146.636,3.452 C146.916,3.684 147.256,4.264 147.656,5.192 L147.656,5.192 L152.96,17.408 L153.272,17.408 Z M166.52,17.408 C167.848,17.408 168.988,16.976 169.94,16.112 C170.892,15.248 171.368,14.208 171.368,12.992 C171.368,11.776 170.888,10.744 169.928,9.896 C168.984,9.032 167.848,8.6 166.52,8.6 C165.192,8.6 164.052,9.028 163.1,9.884 C162.148,10.74 161.672,11.776 161.672,12.992 C161.672,14.208 162.148,15.248 163.1,16.112 C164.052,16.976 165.192,17.408 166.52,17.408 Z M166.52,16.472 C165.576,16.472 164.856,16.144 164.36,15.488 C163.864,14.832 163.616,14 163.616,12.992 C163.616,11.984 163.864,11.152 164.36,10.496 C164.856,9.84 165.576,9.512 166.52,9.512 C167.464,9.512 168.184,9.836 168.68,10.484 C169.176,11.132 169.424,11.968 169.424,12.992 C169.424,14.016 169.176,14.856 168.68,15.512 C168.184,16.152 167.464,16.472 166.52,16.472 Z M178.472,17 L178.472,16.496 C177.672,16.496 177.156,16.328 176.924,15.992 C176.692,15.656 176.576,14.888 176.576,13.688 L176.576,13.688 L176.576,2.192 L172.976,2.792 L172.976,3.296 C173.776,3.296 174.292,3.464 174.524,3.8 C174.756,4.136 174.872,4.904 174.872,6.104 L174.872,6.104 L174.872,13.688 C174.872,14.888 174.756,15.656 174.524,15.992 C174.292,16.328 173.776,16.496 172.976,16.496 L172.976,16.496 L172.976,17 L178.472,17 Z M183.104,17.336 C183.504,17.336 183.94,17.208 184.412,16.952 C184.884,16.696 185.288,16.368 185.624,15.968 L185.624,15.968 L185.216,15.56 C184.64,16.104 184.12,16.376 183.656,16.376 C182.936,16.376 182.576,15.8 182.576,14.648 L182.576,14.648 L182.576,9.848 L184.664,9.848 L184.664,9.008 L182.576,9.008 L182.576,6.368 L181.76,6.368 C181.664,7.2 181.456,7.856 181.136,8.336 C180.816,8.816 180.312,9.128 179.624,9.272 L179.624,9.272 L179.624,9.848 L180.872,9.848 L180.872,14.648 C180.872,15.544 181.072,16.216 181.472,16.664 C181.872,17.112 182.416,17.336 183.104,17.336 Z M189.104,17.312 C190.032,17.312 191.032,16.832 192.104,15.872 C192.232,16.8 192.776,17.264 193.736,17.264 C194.328,17.264 194.856,17.016 195.32,16.52 L195.32,16.52 L194.984,16.064 C194.744,16.304 194.52,16.424 194.312,16.424 C193.944,16.424 193.76,16.112 193.76,15.488 L193.76,15.488 L193.76,11.864 C193.76,10.712 193.504,9.88 192.992,9.368 C192.48,8.856 191.64,8.6 190.472,8.6 C189.672,8.6 188.964,8.78 188.348,9.14 C187.732,9.5 187.424,9.96 187.424,10.52 C187.424,10.76 187.504,10.96 187.664,11.12 C187.824,11.28 188.024,11.36 188.264,11.36 C188.488,11.36 188.68,11.28 188.84,11.12 C189,10.96 189.08,10.76 189.08,10.52 C189.08,10.168 189.228,9.888 189.524,9.68 C189.82,9.472 190.128,9.368 190.448,9.368 C191.104,9.368 191.536,9.552 191.744,9.92 C191.952,10.288 192.056,10.944 192.056,11.888 C188.648,12.48 186.944,13.616 186.944,15.296 C186.944,15.92 187.152,16.412 187.568,16.772 C187.984,17.132 188.496,17.312 189.104,17.312 Z M189.872,16.232 C189.552,16.232 189.284,16.12 189.068,15.896 C188.852,15.672 188.744,15.376 188.744,15.008 C188.744,13.936 189.848,13.144 192.056,12.632 L192.056,12.632 L192.056,15.08 C191.192,15.848 190.464,16.232 189.872,16.232 Z M200.36,23.408 C201.576,23.408 202.588,23.116 203.396,22.532 C204.204,21.948 204.608,21.168 204.608,20.192 C204.608,19.376 204.264,18.68 203.576,18.104 C202.888,17.528 201.776,17.176 200.24,17.048 C198.784,16.92 198.056,16.616 198.056,16.136 C198.056,15.672 198.952,15.336 200.744,15.128 C201.576,15.016 202.304,14.656 202.928,14.048 C203.552,13.44 203.864,12.712 203.864,11.864 C203.864,11.128 203.632,10.48 203.168,9.92 C203.424,9.664 203.672,9.536 203.912,9.536 C204.136,9.536 204.3,9.596 204.404,9.716 C204.508,9.836 204.572,9.964 204.596,10.1 L204.623,10.19975 C204.659,10.29725 204.722,10.388 204.812,10.472 C204.932,10.584 205.112,10.632 205.352,10.616 C205.48,10.616 205.592,10.576 205.688,10.496 C205.976,10.272 206.048,9.936 205.904,9.488 C205.712,8.896 205.264,8.6 204.56,8.6 C204.288,8.6 203.972,8.688 203.612,8.864 C203.252,9.04 202.968,9.256 202.76,9.512 C202.072,8.904 201.248,8.6 200.288,8.6 C199.296,8.6 198.452,8.92 197.756,9.56 C197.06,10.2 196.712,10.968 196.712,11.864 C196.712,12.504 196.892,13.08 197.252,13.592 C197.612,14.104 198.104,14.504 198.728,14.792 C197.384,15.208 196.712,15.848 196.712,16.712 C196.712,17.976 197.848,18.72 200.12,18.944 C201.224,19.056 202.036,19.232 202.556,19.472 C203.076,19.712 203.336,20.096 203.336,20.624 C203.336,21.168 203.036,21.612 202.436,21.956 C201.836,22.3 201.144,22.472 200.36,22.472 C199.864,22.472 199.388,22.4 198.932,22.256 C198.476,22.112 198.092,21.912 197.78,21.656 C197.468,21.4 197.328,21.052 197.36,20.612 C197.392,20.172 197.64,19.688 198.104,19.16 L198.104,19.16 L197.672,18.896 C196.712,19.392 196.2,20 196.136,20.72 C196.072,21.44 196.436,22.068 197.228,22.604 C198.02,23.14 199.064,23.408 200.36,23.408 Z M200.288,14.336 C199.728,14.336 199.296,14.108 198.992,13.652 C198.688,13.196 198.536,12.6 198.536,11.864 C198.536,11.128 198.688,10.528 198.992,10.064 C199.296,9.6 199.728,9.368 200.288,9.368 C200.848,9.368 201.276,9.6 201.572,10.064 C201.868,10.528 202.016,11.128 202.016,11.864 C202.016,12.6 201.864,13.2 201.56,13.664 C201.272,14.112 200.848,14.336 200.288,14.336 Z M211.448,17.408 C212.12,17.408 212.792,17.26 213.464,16.964 C214.136,16.668 214.688,16.288 215.12,15.824 L215.12,15.824 L214.688,15.296 C214.352,15.616 213.928,15.88 213.416,16.088 C212.904,16.296 212.448,16.4 212.048,16.4 C210.864,16.4 210.012,16.028 209.492,15.284 C208.972,14.54 208.784,13.576 208.928,12.392 L208.928,12.392 L214.712,12.392 C215,11.384 214.8,10.5 214.112,9.74 C213.424,8.98 212.536,8.6 211.448,8.6 C210.296,8.6 209.268,9.024 208.364,9.872 C207.46,10.72 207.008,11.76 207.008,12.992 C207.008,14.224 207.424,15.268 208.256,16.124 C209.088,16.98 210.152,17.408 211.448,17.408 Z M213.056,11.504 L209.072,11.504 C209.248,10.912 209.54,10.44 209.948,10.088 C210.356,9.736 210.816,9.56 211.328,9.56 C212.048,9.56 212.556,9.772 212.852,10.196 C213.148,10.62 213.216,11.056 213.056,11.504 L213.056,11.504 Z M228.968,19.664 L229.496,19.16 C228.984,18.584 228.56,18.084 228.224,17.66 C227.888,17.236 227.452,16.604 226.916,15.764 C226.38,14.924 225.968,14.008 225.68,13.016 C225.392,12.024 225.248,10.992 225.248,9.92 C225.248,8.848 225.392,7.816 225.68,6.824 C225.968,5.832 226.38,4.916 226.916,4.076 C227.452,3.236 227.888,2.604 228.224,2.18 C228.56,1.756 228.984,1.256 229.496,0.68 L229.496,0.68 L228.944,0.176 C225.36,3.136 223.568,6.384 223.568,9.92 C223.568,13.472 225.368,16.72 228.968,19.664 L228.968,19.664 Z M237.728,17.408 L243.008,5.192 C243.408,4.264 243.748,3.684 244.028,3.452 C244.308,3.22 244.92,3.104 245.864,3.104 L245.864,3.104 L245.864,2.6 L240.272,2.6 L240.272,3.104 C241.264,3.104 241.9,3.244 242.18,3.524 C242.46,3.804 242.448,4.272 242.144,4.928 L242.144,4.928 L238.112,14.264 L234.032,4.928 C233.728,4.272 233.716,3.804 233.996,3.524 C234.276,3.244 234.912,3.104 235.904,3.104 L235.904,3.104 L235.904,2.6 L229.256,2.6 L229.256,3.104 C230.2,3.104 230.812,3.22 231.092,3.452 C231.372,3.684 231.712,4.264 232.112,5.192 L232.112,5.192 L237.416,17.408 L237.728,17.408 Z M246.2,19.664 C249.784,16.736 251.576,13.488 251.576,9.92 C251.576,6.368 249.792,3.12 246.224,0.176 L246.224,0.176 L245.648,0.68 C246.176,1.272 246.604,1.776 246.932,2.192 C247.26,2.608 247.696,3.236 248.24,4.076 C248.784,4.916 249.2,5.832 249.488,6.824 C249.776,7.816 249.92,8.848 249.92,9.92 C249.92,10.992 249.776,12.024 249.488,13.016 C249.2,14.008 248.784,14.924 248.24,15.764 C247.696,16.604 247.26,17.232 246.932,17.648 C246.604,18.064 246.176,18.568 245.648,19.16 L245.648,19.16 L246.2,19.664 Z" id="SourceVoltage(V)" fill="#524740" fill-rule="nonzero"></path>
            <path d="M204.664,94.408 L209.944,82.192 C210.344,81.264 210.684,80.684 210.964,80.452 C211.244,80.22 211.856,80.104 212.8,80.104 L212.8,80.104 L212.8,79.6 L207.208,79.6 L207.208,80.104 C208.2,80.104 208.836,80.244 209.116,80.524 C209.396,80.804 209.384,81.272 209.08,81.928 L209.08,81.928 L205.048,91.264 L200.968,81.928 C200.664,81.272 200.652,80.804 200.932,80.524 C201.212,80.244 201.848,80.104 202.84,80.104 L202.84,80.104 L202.84,79.6 L196.192,79.6 L196.192,80.104 C197.136,80.104 197.748,80.22 198.028,80.452 C198.308,80.684 198.648,81.264 199.048,82.192 L199.048,82.192 L204.352,94.408 L204.664,94.408 Z M214.984,94.312 C215.912,94.312 216.912,93.832 217.984,92.872 C218.112,93.8 218.656,94.264 219.616,94.264 C220.208,94.264 220.736,94.016 221.2,93.52 L221.2,93.52 L220.864,93.064 C220.624,93.304 220.4,93.424 220.192,93.424 C219.824,93.424 219.64,93.112 219.64,92.488 L219.64,92.488 L219.64,88.864 C219.64,87.712 219.384,86.88 218.872,86.368 C218.36,85.856 217.52,85.6 216.352,85.6 C215.552,85.6 214.844,85.78 214.228,86.14 C213.612,86.5 213.304,86.96 213.304,87.52 C213.304,87.76 213.384,87.96 213.544,88.12 C213.704,88.28 213.904,88.36 214.144,88.36 C214.368,88.36 214.56,88.28 214.72,88.12 C214.88,87.96 214.96,87.76 214.96,87.52 C214.96,87.168 215.108,86.888 215.404,86.68 C215.7,86.472 216.008,86.368 216.328,86.368 C216.984,86.368 217.416,86.552 217.624,86.92 C217.832,87.288 217.936,87.944 217.936,88.888 C214.528,89.48 212.824,90.616 212.824,92.296 C212.824,92.92 213.032,93.412 213.448,93.772 C213.864,94.132 214.376,94.312 214.984,94.312 Z M215.752,93.232 C215.432,93.232 215.164,93.12 214.948,92.896 C214.732,92.672 214.624,92.376 214.624,92.008 C214.624,90.936 215.728,90.144 217.936,89.632 L217.936,89.632 L217.936,92.08 C217.072,92.848 216.344,93.232 215.752,93.232 Z M227.536,94 L227.536,93.496 C226.736,93.496 226.22,93.328 225.988,92.992 C225.756,92.656 225.64,91.888 225.64,90.688 L225.64,90.688 L225.64,79.192 L222.04,79.792 L222.04,80.296 C222.84,80.296 223.356,80.464 223.588,80.8 C223.82,81.136 223.936,81.904 223.936,83.104 L223.936,83.104 L223.936,90.688 C223.936,91.888 223.82,92.656 223.588,92.992 C223.356,93.328 222.84,93.496 222.04,93.496 L222.04,93.496 L222.04,94 L227.536,94 Z M232.84,94.432 L235.552,87.904 C235.776,87.376 236.012,87.008 236.26,86.8 C236.508,86.592 236.84,86.488 237.256,86.488 L237.256,86.488 L237.256,86.008 L233.896,86.008 L233.896,86.488 C234.408,86.488 234.712,86.596 234.808,86.812 C234.904,87.028 234.832,87.392 234.592,87.904 L234.592,87.904 L233.008,91.744 L231.304,87.904 C231.064,87.328 230.992,86.948 231.088,86.764 C231.184,86.58 231.504,86.488 232.048,86.488 L232.048,86.488 L232.048,86.008 L227.8,86.008 L227.8,86.488 C228.184,86.488 228.492,86.592 228.724,86.8 C228.956,87.008 229.192,87.376 229.432,87.904 L229.432,87.904 L232.36,94.432 L232.84,94.432 Z M242.56,94.408 C243.232,94.408 243.904,94.26 244.576,93.964 C245.248,93.668 245.8,93.288 246.232,92.824 L246.232,92.824 L245.8,92.296 C245.464,92.616 245.04,92.88 244.528,93.088 C244.016,93.296 243.56,93.4 243.16,93.4 C241.976,93.4 241.124,93.028 240.604,92.284 C240.084,91.54 239.896,90.576 240.04,89.392 L240.04,89.392 L245.824,89.392 C246.112,88.384 245.912,87.5 245.224,86.74 C244.536,85.98 243.648,85.6 242.56,85.6 C241.408,85.6 240.38,86.024 239.476,86.872 C238.572,87.72 238.12,88.76 238.12,89.992 C238.12,91.224 238.536,92.268 239.368,93.124 C240.2,93.98 241.264,94.408 242.56,94.408 Z M244.168,88.504 L240.184,88.504 C240.36,87.912 240.652,87.44 241.06,87.088 C241.468,86.736 241.928,86.56 242.44,86.56 C243.16,86.56 243.668,86.772 243.964,87.196 C244.26,87.62 244.328,88.056 244.168,88.504 L244.168,88.504 Z M248.752,94.408 C248.752,94.088 248.784,93.872 248.848,93.76 C248.912,93.648 249.024,93.62 249.184,93.676 C249.344,93.732 249.516,93.812 249.7,93.916 C249.884,94.02 250.128,94.128 250.432,94.24 C250.736,94.352 251.032,94.408 251.32,94.408 C252.12,94.408 252.796,94.164 253.348,93.676 C253.9,93.188 254.176,92.56 254.176,91.792 C254.176,90.88 253.624,90.112 252.52,89.488 L252.52,89.488 L251.368,88.864 C250.808,88.56 250.424,88.308 250.216,88.108 C250.008,87.908 249.904,87.672 249.904,87.4 C249.904,87.096 250.008,86.848 250.216,86.656 C250.424,86.464 250.728,86.368 251.128,86.368 C251.704,86.368 252.172,86.572 252.532,86.98 C252.892,87.388 253.072,87.856 253.072,88.384 L253.072,88.384 L253.576,88.384 L253.576,85.6 L253.072,85.6 C253.072,85.92 253.036,86.1 252.964,86.14 C252.892,86.18 252.76,86.144 252.568,86.032 C251.992,85.744 251.432,85.6 250.888,85.6 C250.248,85.6 249.684,85.808 249.196,86.224 C248.708,86.64 248.464,87.16 248.464,87.784 C248.464,88.808 248.992,89.608 250.048,90.184 L250.048,90.184 L251.392,90.904 C252.288,91.384 252.736,91.872 252.736,92.368 C252.736,92.704 252.604,92.992 252.34,93.232 C252.076,93.472 251.752,93.592 251.368,93.592 C250.584,93.592 249.952,93.3 249.472,92.716 C248.992,92.132 248.752,91.528 248.752,90.904 L248.752,90.904 L248.248,90.904 L248.248,94.408 L248.752,94.408 Z M268.24,96.664 L268.768,96.16 C268.256,95.584 267.832,95.084 267.496,94.66 C267.16,94.236 266.724,93.604 266.188,92.764 C265.652,91.924 265.24,91.008 264.952,90.016 C264.664,89.024 264.52,87.992 264.52,86.92 C264.52,85.848 264.664,84.816 264.952,83.824 C265.24,82.832 265.652,81.916 266.188,81.076 C266.724,80.236 267.16,79.604 267.496,79.18 C267.832,78.756 268.256,78.256 268.768,77.68 L268.768,77.68 L268.216,77.176 C264.632,80.136 262.84,83.384 262.84,86.92 C262.84,90.472 264.64,93.72 268.24,96.664 L268.24,96.664 Z M276.832,94 L276.832,93.496 C275.84,93.496 275.212,93.328 274.948,92.992 C274.684,92.656 274.552,91.888 274.552,90.688 L274.552,90.688 L274.552,87.688 L275.68,87.688 L280.432,94 L284.392,94 L284.392,93.496 C282.984,93.336 281.496,92.32 279.928,90.448 L279.928,90.448 L277.576,87.688 C278.904,87.544 279.948,87.104 280.708,86.368 C281.468,85.632 281.848,84.728 281.848,83.656 C281.848,82.488 281.392,81.52 280.48,80.752 C279.568,79.984 278.304,79.6 276.688,79.6 L276.688,79.6 L270.352,79.6 L270.352,80.104 C271.344,80.104 271.972,80.268 272.236,80.596 C272.5,80.924 272.632,81.688 272.632,82.888 L272.632,82.888 L272.632,90.688 C272.632,91.888 272.5,92.656 272.236,92.992 C271.972,93.328 271.344,93.496 270.352,93.496 L270.352,93.496 L270.352,94 L276.832,94 Z M276.664,86.824 L274.552,86.824 L274.552,80.488 L276.664,80.488 C277.656,80.488 278.412,80.784 278.932,81.376 C279.452,81.968 279.712,82.728 279.712,83.656 C279.712,84.584 279.452,85.344 278.932,85.936 C278.412,86.528 277.656,86.824 276.664,86.824 L276.664,86.824 Z M289.912,94.408 C290.584,94.408 291.256,94.26 291.928,93.964 C292.6,93.668 293.152,93.288 293.584,92.824 L293.584,92.824 L293.152,92.296 C292.816,92.616 292.392,92.88 291.88,93.088 C291.368,93.296 290.912,93.4 290.512,93.4 C289.328,93.4 288.476,93.028 287.956,92.284 C287.436,91.54 287.248,90.576 287.392,89.392 L287.392,89.392 L293.176,89.392 C293.464,88.384 293.264,87.5 292.576,86.74 C291.888,85.98 291,85.6 289.912,85.6 C288.76,85.6 287.732,86.024 286.828,86.872 C285.924,87.72 285.472,88.76 285.472,89.992 C285.472,91.224 285.888,92.268 286.72,93.124 C287.552,93.98 288.616,94.408 289.912,94.408 Z M291.52,88.504 L287.536,88.504 C287.712,87.912 288.004,87.44 288.412,87.088 C288.82,86.736 289.28,86.56 289.792,86.56 C290.512,86.56 291.02,86.772 291.316,87.196 C291.612,87.62 291.68,88.056 291.52,88.504 L291.52,88.504 Z M296.104,94.408 C296.104,94.088 296.136,93.872 296.2,93.76 C296.264,93.648 296.376,93.62 296.536,93.676 C296.696,93.732 296.868,93.812 297.052,93.916 C297.236,94.02 297.48,94.128 297.784,94.24 C298.088,94.352 298.384,94.408 298.672,94.408 C299.472,94.408 300.148,94.164 300.7,93.676 C301.252,93.188 301.528,92.56 301.528,91.792 C301.528,90.88 300.976,90.112 299.872,89.488 L299.872,89.488 L298.72,88.864 C298.16,88.56 297.776,88.308 297.568,88.108 C297.36,87.908 297.256,87.672 297.256,87.4 C297.256,87.096 297.36,86.848 297.568,86.656 C297.776,86.464 298.08,86.368 298.48,86.368 C299.056,86.368 299.524,86.572 299.884,86.98 C300.244,87.388 300.424,87.856 300.424,88.384 L300.424,88.384 L300.928,88.384 L300.928,85.6 L300.424,85.6 C300.424,85.92 300.388,86.1 300.316,86.14 C300.244,86.18 300.112,86.144 299.92,86.032 C299.344,85.744 298.784,85.6 298.24,85.6 C297.6,85.6 297.036,85.808 296.548,86.224 C296.06,86.64 295.816,87.16 295.816,87.784 C295.816,88.808 296.344,89.608 297.4,90.184 L297.4,90.184 L298.744,90.904 C299.64,91.384 300.088,91.872 300.088,92.368 C300.088,92.704 299.956,92.992 299.692,93.232 C299.428,93.472 299.104,93.592 298.72,93.592 C297.936,93.592 297.304,93.3 296.824,92.716 C296.344,92.132 296.104,91.528 296.104,90.904 L296.104,90.904 L295.6,90.904 L295.6,94.408 L296.104,94.408 Z M306.256,83.248 C306.544,83.248 306.792,83.144 307,82.936 C307.208,82.728 307.312,82.472 307.312,82.168 C307.312,81.88 307.208,81.632 307,81.424 C306.792,81.216 306.544,81.112 306.256,81.112 C305.968,81.112 305.72,81.216 305.512,81.424 C305.304,81.632 305.2,81.88 305.2,82.168 C305.2,82.472 305.304,82.728 305.512,82.936 C305.72,83.144 305.968,83.248 306.256,83.248 Z M309.016,94 L309.016,93.496 C308.216,93.496 307.7,93.328 307.468,92.992 C307.236,92.656 307.12,91.888 307.12,90.688 L307.12,90.688 L307.12,85.6 L303.52,86.2 L303.52,86.704 C304.32,86.704 304.836,86.872 305.068,87.208 C305.3,87.544 305.416,88.304 305.416,89.488 L305.416,89.488 L305.416,90.688 C305.416,91.888 305.3,92.656 305.068,92.992 C304.836,93.328 304.32,93.496 303.52,93.496 L303.52,93.496 L303.52,94 L309.016,94 Z M311.128,94.408 C311.128,94.088 311.16,93.872 311.224,93.76 C311.288,93.648 311.4,93.62 311.56,93.676 C311.72,93.732 311.892,93.812 312.076,93.916 C312.26,94.02 312.504,94.128 312.808,94.24 C313.112,94.352 313.408,94.408 313.696,94.408 C314.496,94.408 315.172,94.164 315.724,93.676 C316.276,93.188 316.552,92.56 316.552,91.792 C316.552,90.88 316,90.112 314.896,89.488 L314.896,89.488 L313.744,88.864 C313.184,88.56 312.8,88.308 312.592,88.108 C312.384,87.908 312.28,87.672 312.28,87.4 C312.28,87.096 312.384,86.848 312.592,86.656 C312.8,86.464 313.104,86.368 313.504,86.368 C314.08,86.368 314.548,86.572 314.908,86.98 C315.268,87.388 315.448,87.856 315.448,88.384 L315.448,88.384 L315.952,88.384 L315.952,85.6 L315.448,85.6 C315.448,85.92 315.412,86.1 315.34,86.14 C315.268,86.18 315.136,86.144 314.944,86.032 C314.368,85.744 313.808,85.6 313.264,85.6 C312.624,85.6 312.06,85.808 311.572,86.224 C311.084,86.64 310.84,87.16 310.84,87.784 C310.84,88.808 311.368,89.608 312.424,90.184 L312.424,90.184 L313.768,90.904 C314.664,91.384 315.112,91.872 315.112,92.368 C315.112,92.704 314.98,92.992 314.716,93.232 C314.452,93.472 314.128,93.592 313.744,93.592 C312.96,93.592 312.328,93.3 311.848,92.716 C311.368,92.132 311.128,91.528 311.128,90.904 L311.128,90.904 L310.624,90.904 L310.624,94.408 L311.128,94.408 Z M321.784,94.336 C322.184,94.336 322.62,94.208 323.092,93.952 C323.564,93.696 323.968,93.368 324.304,92.968 L324.304,92.968 L323.896,92.56 C323.32,93.104 322.8,93.376 322.336,93.376 C321.616,93.376 321.256,92.8 321.256,91.648 L321.256,91.648 L321.256,86.848 L323.344,86.848 L323.344,86.008 L321.256,86.008 L321.256,83.368 L320.44,83.368 C320.344,84.2 320.136,84.856 319.816,85.336 C319.496,85.816 318.992,86.128 318.304,86.272 L318.304,86.272 L318.304,86.848 L319.552,86.848 L319.552,91.648 C319.552,92.544 319.752,93.216 320.152,93.664 C320.552,94.112 321.096,94.336 321.784,94.336 Z M330.712,94.408 C332.04,94.408 333.18,93.976 334.132,93.112 C335.084,92.248 335.56,91.208 335.56,89.992 C335.56,88.776 335.08,87.744 334.12,86.896 C333.176,86.032 332.04,85.6 330.712,85.6 C329.384,85.6 328.244,86.028 327.292,86.884 C326.34,87.74 325.864,88.776 325.864,89.992 C325.864,91.208 326.34,92.248 327.292,93.112 C328.244,93.976 329.384,94.408 330.712,94.408 Z M330.712,93.472 C329.768,93.472 329.048,93.144 328.552,92.488 C328.056,91.832 327.808,91 327.808,89.992 C327.808,88.984 328.056,88.152 328.552,87.496 C329.048,86.84 329.768,86.512 330.712,86.512 C331.656,86.512 332.376,86.836 332.872,87.484 C333.368,88.132 333.616,88.968 333.616,89.992 C333.616,91.016 333.368,91.856 332.872,92.512 C332.376,93.152 331.656,93.472 330.712,93.472 Z M343.12,94 L343.12,93.496 C342.32,93.496 341.804,93.328 341.572,92.992 C341.34,92.656 341.224,91.888 341.224,90.688 L341.224,90.688 L341.224,89.368 C341.224,88.52 341.44,87.84 341.872,87.328 C342.304,86.816 342.704,86.56 343.072,86.56 C343.584,86.56 343.84,86.824 343.84,87.352 C343.84,87.576 343.924,87.776 344.092,87.952 C344.26,88.128 344.456,88.216 344.68,88.216 C345.32,88.216 345.64,87.84 345.64,87.088 C345.64,86.736 345.476,86.4 345.148,86.08 C344.82,85.76 344.352,85.6 343.744,85.6 C343.264,85.6 342.784,85.768 342.304,86.104 C341.824,86.44 341.464,86.848 341.224,87.328 C341.096,86.48 340.96,85.904 340.816,85.6 L340.816,85.6 L337.624,86.2 L337.624,86.704 C338.424,86.704 338.94,86.872 339.172,87.208 C339.404,87.544 339.52,88.304 339.52,89.488 L339.52,89.488 L339.52,90.688 C339.52,91.888 339.404,92.656 339.172,92.992 C338.94,93.328 338.424,93.496 337.624,93.496 L337.624,93.496 L337.624,94 L343.12,94 Z M347.8,94.408 C347.8,94.088 347.832,93.872 347.896,93.76 C347.96,93.648 348.072,93.62 348.232,93.676 C348.392,93.732 348.564,93.812 348.748,93.916 C348.932,94.02 349.176,94.128 349.48,94.24 C349.784,94.352 350.08,94.408 350.368,94.408 C351.168,94.408 351.844,94.164 352.396,93.676 C352.948,93.188 353.224,92.56 353.224,91.792 C353.224,90.88 352.672,90.112 351.568,89.488 L351.568,89.488 L350.416,88.864 C349.856,88.56 349.472,88.308 349.264,88.108 C349.056,87.908 348.952,87.672 348.952,87.4 C348.952,87.096 349.056,86.848 349.264,86.656 C349.472,86.464 349.776,86.368 350.176,86.368 C350.752,86.368 351.22,86.572 351.58,86.98 C351.94,87.388 352.12,87.856 352.12,88.384 L352.12,88.384 L352.624,88.384 L352.624,85.6 L352.12,85.6 C352.12,85.92 352.084,86.1 352.012,86.14 C351.94,86.18 351.808,86.144 351.616,86.032 C351.04,85.744 350.48,85.6 349.936,85.6 C349.296,85.6 348.732,85.808 348.244,86.224 C347.756,86.64 347.512,87.16 347.512,87.784 C347.512,88.808 348.04,89.608 349.096,90.184 L349.096,90.184 L350.44,90.904 C351.336,91.384 351.784,91.872 351.784,92.368 C351.784,92.704 351.652,92.992 351.388,93.232 C351.124,93.472 350.8,93.592 350.416,93.592 C349.632,93.592 349,93.3 348.52,92.716 C348.04,92.132 347.8,91.528 347.8,90.904 L347.8,90.904 L347.296,90.904 L347.296,94.408 L347.8,94.408 Z M355.528,96.664 C359.112,93.736 360.904,90.488 360.904,86.92 C360.904,83.368 359.12,80.12 355.552,77.176 L355.552,77.176 L354.976,77.68 C355.504,78.272 355.932,78.776 356.26,79.192 C356.588,79.608 357.024,80.236 357.568,81.076 C358.112,81.916 358.528,82.832 358.816,83.824 C359.104,84.816 359.248,85.848 359.248,86.92 C359.248,87.992 359.104,89.024 358.816,90.016 C358.528,91.008 358.112,91.924 357.568,92.764 C357.024,93.604 356.588,94.232 356.26,94.648 C355.932,95.064 355.504,95.568 354.976,96.16 L354.976,96.16 L355.528,96.664 Z" id="Valves(Resistors)" fill="#524740" fill-rule="nonzero"></path>
            <line x1="26" y1="24" x2="65" y2="13" id="Line-4-Copy" stroke="#B09679" stroke-width="2" stroke-linecap="square"></line>
            <g id="Valve" transform="translate(118.000000, 107.000000)" stroke="#555555">
                <path d="M12.1761052,12.8521177 L12.1761052,49.8521177 L35.1761052,49.8521177 L35.1761052,12.8521177 L12.1761052,12.8521177 Z" id="Rectangle-2" fill="#D8D8D8"></path>
                <path d="M2.67610518,25.3521177 L2.67610518,38.3521177 L45.6761052,38.3521177 L45.6761052,25.3521177 L2.67610518,25.3521177 Z" id="Rectangle-Copy-2" stroke-width="2" fill="#23ABE3"></path>
                <rect id="Rectangle-3" fill="#B09679" transform="translate(13.676105, 13.852118) rotate(-45.000000) translate(-13.676105, -13.852118) " x="10.1761052" y="-0.147882343" width="7" height="28"></rect>
            </g>
            <g id="Valve-Copy" transform="translate(118.000000, 167.000000)" stroke="#555555">
                <path d="M12.1761052,12.8521177 L12.1761052,49.8521177 L35.1761052,49.8521177 L35.1761052,12.8521177 L12.1761052,12.8521177 Z" id="Rectangle-2" fill="#D8D8D8"></path>
                <path d="M2.67610518,25.3521177 L2.67610518,38.3521177 L61.1761052,38.3521177 L61.1761052,25.3521177 L2.67610518,25.3521177 Z" id="Rectangle-Copy-2" stroke-width="2" fill="#23ABE3"></path>
                <rect id="Rectangle-3" fill="#B09679" transform="translate(13.676105, 13.852118) rotate(-45.000000) translate(-13.676105, -13.852118) " x="10.1761052" y="-0.147882343" width="7" height="28"></rect>
            </g>
            <g id="Valve-Copy-2" transform="translate(118.000000, 227.000000)" stroke="#555555">
                <path d="M12.1761052,12.8521177 L12.1761052,49.8521177 L35.1761052,49.8521177 L35.1761052,12.8521177 L12.1761052,12.8521177 Z" id="Rectangle-2" fill="#D8D8D8"></path>
                <path d="M2.67610518,25.3521177 L2.67610518,38.3521177 L45.6761052,38.3521177 L45.6761052,25.3521177 L2.67610518,25.3521177 Z" id="Rectangle-Copy-2" stroke-width="2" fill="#23ABE3"></path>
                <rect id="Rectangle-3" fill="#B09679" transform="translate(13.676105, 13.852118) rotate(-45.000000) translate(-13.676105, -13.852118) " x="10.1761052" y="-0.147882343" width="7" height="28"></rect>
            </g>
            <rect id="Rectangle-Copy-3" stroke="#555555" stroke-width="2" fill="#23ABE3" x="153.676105" y="124.352118" width="125" height="28"></rect>
            <rect id="Rectangle-Copy-4" stroke="#555555" stroke-width="2" fill="#23ABE3" x="153.676105" y="184.352118" width="125" height="28"></rect>
            <rect id="Rectangle-Copy-5" stroke="#555555" stroke-width="2" fill="#23ABE3" x="153.676105" y="244.352118" width="125" height="28"></rect>
            <path d="M29,30.4735225 L1,30.4735225 L1,272.564797 L29,272.564797 L29,272.351517 L129.676105,272.352112 L129.676105,244.352112 L29,244.351517 L29,212.351517 L129.676105,212.352112 L129.676105,184.352112 L29,184.351517 L29,152.351517 L129.676105,152.352112 L129.676105,124.352112 L29,124.351517 L29,30.4735225 Z" id="Combined-Shape" stroke="#555555" stroke-width="2" fill="#23ABE3"></path>
            <line x1="157.5" y1="112" x2="190" y2="92" id="Line-4-Copy" stroke="#B09679" stroke-width="2" stroke-linecap="square"></line>
        </g>
    </g>
</svg>