<?xml version="1.0" encoding="UTF-8"?>
<svg width="900px" height="360px" viewBox="0 0 900 360" version="1.1" xmlns="http://www.w3.org/2000/svg" xmlns:xlink="http://www.w3.org/1999/xlink">
    <!-- Generator: Sketch 53.2 (72643) - https://sketchapp.com -->
    <title>Pull-Down_Circuit</title>
    <desc>Created with Sketch.</desc>
    <g id="Pull-Down_Circuit" stroke="none" stroke-width="1" fill="none" fill-rule="evenodd">
        <g id="Illustration_Frame">
            <rect id="Rectangle" stroke="#3D3530" stroke-width="2" fill="#EEEEEE" x="1" y="1" width="898" height="358"></rect>
            <rect id="Rectangle-Copy" stroke="#3D3530" stroke-width="2" fill="#F8FAE4" x="1" y="316" width="898" height="43"></rect>
            <path d="M525.271999,345 L525.271999,328.872 L530.743999,328.872 C532.552008,328.872 533.991994,329.295996 535.063999,330.144 C536.136004,330.992004 536.671999,332.047994 536.671999,333.312 C536.671999,334.096004 536.436001,334.807997 535.963999,335.448 C535.491997,336.088003 534.832003,336.583998 533.983999,336.936 C534.832003,337.288002 535.491997,337.783997 535.963999,338.424 C536.436001,339.064003 536.671999,339.783996 536.671999,340.584 C536.671999,341.848006 536.136004,342.899996 535.063999,343.74 C533.991994,344.580004 532.552008,345 530.743999,345 L525.271999,345 Z M526.855999,336.264 L530.743999,336.264 C532.040005,336.264 533.079995,335.984003 533.863999,335.424 C534.648003,334.863997 535.039999,334.168004 535.039999,333.336 C535.039999,332.487996 534.648003,331.784003 533.863999,331.224 C533.079995,330.663997 532.040005,330.384 530.743999,330.384 L526.855999,330.384 L526.855999,336.264 Z M526.855999,343.488 L530.743999,343.488 C532.040005,343.488 533.079995,343.208003 533.863999,342.648 C534.648003,342.087997 535.039999,341.384004 535.039999,340.536 C535.039999,339.703996 534.648003,339.008003 533.863999,338.448 C533.079995,337.887997 532.040005,337.608 530.743999,337.608 L526.855999,337.608 L526.855999,343.488 Z M548.498666,333 L550.082666,333 L550.082666,345 L548.498666,345 L548.498666,343.224 C547.522661,344.536007 546.242674,345.192 544.658666,345.192 C543.266659,345.192 542.09867,344.700005 541.154666,343.716 C540.210661,342.731995 539.738666,341.520007 539.738666,340.08 L539.738666,333 L541.370666,333 L541.370666,340.032 C541.370666,341.056005 541.714662,341.923996 542.402666,342.636 C543.090669,343.348004 543.930661,343.704 544.922666,343.704 C545.930671,343.704 546.778662,343.348004 547.466666,342.636 C548.154669,341.923996 548.498666,341.056005 548.498666,340.032 L548.498666,333 Z M560.757332,342.312 L561.549332,343.536 C561.453332,343.664001 561.325333,343.815999 561.165332,343.992 C561.005332,344.168001 560.645335,344.411998 560.085332,344.724 C559.52533,345.036002 558.949335,345.192 558.357332,345.192 C557.349327,345.192 556.505336,344.892003 555.825332,344.292 C555.145329,343.691997 554.805332,342.824006 554.805332,341.688 L554.805332,334.44 L552.885332,334.44 L552.885332,332.976 L554.805332,332.976 L554.805332,329.184 L556.389332,328.992 L556.389332,332.976 L560.013332,332.976 L560.013332,334.44 L556.389332,334.44 L556.389332,341.328 C556.389332,342.064004 556.61733,342.647998 557.073332,343.08 C557.529335,343.512002 558.053329,343.728 558.645332,343.728 C559.013334,343.728 559.373331,343.616001 559.725332,343.392 C560.077334,343.167999 560.337332,342.948001 560.505332,342.732 C560.673333,342.515999 560.757332,342.376 560.757332,342.312 Z M570.135999,342.312 L570.927999,343.536 C570.831999,343.664001 570.704,343.815999 570.543999,343.992 C570.383998,344.168001 570.024002,344.411998 569.463999,344.724 C568.903996,345.036002 568.328002,345.192 567.735999,345.192 C566.727994,345.192 565.884002,344.892003 565.203999,344.292 C564.523996,343.691997 564.183999,342.824006 564.183999,341.688 L564.183999,334.44 L562.263999,334.44 L562.263999,332.976 L564.183999,332.976 L564.183999,329.184 L565.767999,328.992 L565.767999,332.976 L569.391999,332.976 L569.391999,334.44 L565.767999,334.44 L565.767999,341.328 C565.767999,342.064004 565.995997,342.647998 566.451999,343.08 C566.908001,343.512002 567.431996,343.728 568.023999,343.728 C568.392001,343.728 568.751997,343.616001 569.103999,343.392 C569.456001,343.167999 569.715998,342.948001 569.883999,342.732 C570.052,342.515999 570.135999,342.376 570.135999,342.312 Z M582.946666,343.368 C581.74666,344.584006 580.290674,345.192 578.578666,345.192 C576.866657,345.192 575.406672,344.588006 574.198666,343.38 C572.99066,342.171994 572.386666,340.712009 572.386666,339 C572.386666,337.287991 572.99066,335.828006 574.198666,334.62 C575.406672,333.411994 576.866657,332.808 578.578666,332.808 C580.290674,332.808 581.75066,333.411994 582.958666,334.62 C584.166672,335.828006 584.770666,337.287991 584.770666,339 C584.770666,340.696008 584.162672,342.151994 582.946666,343.368 Z M578.602666,343.68 C579.898672,343.68 580.990661,343.228005 581.878666,342.324 C582.76667,341.419995 583.210666,340.312007 583.210666,339 C583.210666,337.687993 582.76667,336.576005 581.878666,335.664 C580.990661,334.751995 579.898672,334.296 578.602666,334.296 C577.322659,334.296 576.23467,334.751995 575.338666,335.664 C574.442661,336.576005 573.994666,337.687993 573.994666,339 C573.994666,340.312007 574.442661,341.419995 575.338666,342.324 C576.23467,343.228005 577.322659,343.68 578.602666,343.68 Z M593.237332,332.808 C594.629339,332.808 595.797328,333.299995 596.741332,334.284 C597.685337,335.268005 598.157332,336.479993 598.157332,337.92 L598.157332,345 L596.549332,345 L596.549332,337.968 C596.549332,336.943995 596.201336,336.072004 595.505332,335.352 C594.809329,334.631996 593.965337,334.272 592.973332,334.272 C591.981328,334.272 591.137336,334.631996 590.441332,335.352 C589.745329,336.072004 589.397332,336.943995 589.397332,337.968 L589.397332,345 L587.813332,345 L587.813332,333 L589.397332,333 L589.397332,334.776 C590.373337,333.463993 591.653325,332.808 593.237332,332.808 Z M625.146666,333 L626.730666,333 L622.482666,345 L620.898666,345 L617.514666,335.112 L614.130666,345 L612.546666,345 L608.322666,333 L609.906666,333 L613.338666,342.768 L616.794666,333 L618.234666,333 L621.690666,342.768 L625.146666,333 Z M631.189333,329.4 C631.013332,329.592001 630.789334,329.688 630.517333,329.688 C630.245331,329.688 630.017334,329.592001 629.833333,329.4 C629.649332,329.207999 629.557333,328.984001 629.557333,328.728 C629.557333,328.471999 629.649332,328.248001 629.833333,328.056 C630.017334,327.863999 630.245331,327.768 630.517333,327.768 C630.789334,327.768 631.017332,327.863999 631.201333,328.056 C631.385334,328.248001 631.477333,328.471999 631.477333,328.728 C631.477333,328.984001 631.381334,329.207999 631.189333,329.4 Z M629.725333,345 L629.725333,333 L631.309333,333 L631.309333,345 L629.725333,345 Z M641.791999,342.312 L642.583999,343.536 C642.487999,343.664001 642.36,343.815999 642.199999,343.992 C642.039998,344.168001 641.680002,344.411998 641.119999,344.724 C640.559996,345.036002 639.984002,345.192 639.391999,345.192 C638.383994,345.192 637.540003,344.892003 636.859999,344.292 C636.179996,343.691997 635.839999,342.824006 635.839999,341.688 L635.839999,334.44 L633.919999,334.44 L633.919999,332.976 L635.839999,332.976 L635.839999,329.184 L637.423999,328.992 L637.423999,332.976 L641.047999,332.976 L641.047999,334.44 L637.423999,334.44 L637.423999,341.328 C637.423999,342.064004 637.651997,342.647998 638.107999,343.08 C638.564002,343.512002 639.087996,343.728 639.679999,343.728 C640.048001,343.728 640.407998,343.616001 640.759999,343.392 C641.112001,343.167999 641.371998,342.948001 641.539999,342.732 C641.708,342.515999 641.791999,342.376 641.791999,342.312 Z M650.594666,332.808 C651.986673,332.808 653.154661,333.307995 654.098666,334.308 C655.042671,335.308005 655.514666,336.527993 655.514666,337.968 L655.514666,345 L653.906666,345 L653.906666,337.992 C653.906666,336.951995 653.562669,336.076004 652.874666,335.364 C652.186663,334.651996 651.338671,334.296 650.330666,334.296 C649.338661,334.296 648.494669,334.651996 647.798666,335.364 C647.102663,336.076004 646.754666,336.943995 646.754666,337.968 L646.754666,345 L645.170666,345 L645.170666,327.144 L646.754666,327.144 L646.754666,334.776 C647.730671,333.463993 649.010658,332.808 650.594666,332.808 Z M666.663999,345 L666.663999,328.872 L672.135999,328.872 C673.944008,328.872 675.383994,329.347995 676.455999,330.3 C677.528005,331.252005 678.063999,332.447993 678.063999,333.888 C678.063999,335.312007 677.528005,336.503995 676.455999,337.464 C675.383994,338.424005 673.944008,338.904 672.135999,338.904 L668.247999,338.904 L668.247999,345 L666.663999,345 Z M668.247999,337.392 L672.135999,337.392 C673.432006,337.392 674.471995,337.060003 675.255999,336.396 C676.040003,335.731997 676.431999,334.896005 676.431999,333.888 C676.431999,332.895995 676.040003,332.064003 675.255999,331.392 C674.471995,330.719997 673.432006,330.384 672.135999,330.384 L668.247999,330.384 L668.247999,337.392 Z M690.322666,333 L691.906666,333 L691.906666,345 L690.322666,345 L690.322666,343.224 C689.346661,344.536007 688.066674,345.192 686.482666,345.192 C685.090659,345.192 683.922671,344.700005 682.978666,343.716 C682.034661,342.731995 681.562666,341.520007 681.562666,340.08 L681.562666,333 L683.194666,333 L683.194666,340.032 C683.194666,341.056005 683.538663,341.923996 684.226666,342.636 C684.91467,343.348004 685.754661,343.704 686.746666,343.704 C687.754671,343.704 688.602663,343.348004 689.290666,342.636 C689.97867,341.923996 690.322666,341.056005 690.322666,340.032 L690.322666,333 Z M696.077333,345 L696.077333,327.144 L697.661333,327.144 L697.661333,345 L696.077333,345 Z M701.663999,345 L701.663999,327.144 L703.247999,327.144 L703.247999,345 L701.663999,345 Z M713.250666,337.656 L706.794666,337.656 L706.794666,336.216 L713.250666,336.216 L713.250666,337.656 Z M726.877333,327.144 L728.461333,327.144 L728.461333,345 L726.877333,345 L726.877333,343.056 C725.645327,344.480007 724.085342,345.192 722.197333,345.192 C720.485324,345.192 719.025339,344.588006 717.817333,343.38 C716.609327,342.171994 716.005333,340.712009 716.005333,339 C716.005333,337.287991 716.609327,335.828006 717.817333,334.62 C719.025339,333.411994 720.485324,332.808 722.197333,332.808 C724.101342,332.808 725.661327,333.519993 726.877333,334.944 L726.877333,327.144 Z M718.933333,342.336 C719.829337,343.232004 720.925326,343.68 722.221333,343.68 C723.517339,343.68 724.609328,343.228005 725.497333,342.324 C726.385337,341.419995 726.829333,340.312007 726.829333,339 C726.829333,337.687993 726.385337,336.580005 725.497333,335.676 C724.609328,334.771995 723.517339,334.32 722.221333,334.32 C720.925326,334.32 719.829337,334.771995 718.933333,335.676 C718.037328,336.580005 717.589333,337.687993 717.589333,339 C717.589333,340.312007 718.037328,341.423995 718.933333,342.336 Z M742.256,343.368 C741.055994,344.584006 739.600008,345.192 737.888,345.192 C736.175991,345.192 734.716006,344.588006 733.508,343.38 C732.299994,342.171994 731.696,340.712009 731.696,339 C731.696,337.287991 732.299994,335.828006 733.508,334.62 C734.716006,333.411994 736.175991,332.808 737.888,332.808 C739.600008,332.808 741.059994,333.411994 742.268,334.62 C743.476006,335.828006 744.08,337.287991 744.08,339 C744.08,340.696008 743.472006,342.151994 742.256,343.368 Z M737.912,343.68 C739.208006,343.68 740.299995,343.228005 741.188,342.324 C742.076004,341.419995 742.52,340.312007 742.52,339 C742.52,337.687993 742.076004,336.576005 741.188,335.664 C740.299995,334.751995 739.208006,334.296 737.912,334.296 C736.631993,334.296 735.544004,334.751995 734.648,335.664 C733.751995,336.576005 733.304,337.687993 733.304,339 C733.304,340.312007 733.751995,341.419995 734.648,342.324 C735.544004,343.228005 736.631993,343.68 737.912,343.68 Z M762.386666,333 L763.970666,333 L759.722666,345 L758.138666,345 L754.754666,335.112 L751.370666,345 L749.786666,345 L745.562666,333 L747.146666,333 L750.578666,342.768 L754.034666,333 L755.474666,333 L758.930666,342.768 L762.386666,333 Z M772.413333,332.808 C773.80534,332.808 774.973328,333.299995 775.917333,334.284 C776.861338,335.268005 777.333333,336.479993 777.333333,337.92 L777.333333,345 L775.725333,345 L775.725333,337.968 C775.725333,336.943995 775.377336,336.072004 774.681333,335.352 C773.98533,334.631996 773.141338,334.272 772.149333,334.272 C771.157328,334.272 770.313336,334.631996 769.617333,335.352 C768.92133,336.072004 768.573333,336.943995 768.573333,337.968 L768.573333,345 L766.989333,345 L766.989333,333 L768.573333,333 L768.573333,334.776 C769.549338,333.463993 770.829325,332.808 772.413333,332.808 Z M788.482666,345 L788.482666,328.872 L793.954666,328.872 C795.762675,328.872 797.202661,329.347995 798.274666,330.3 C799.346672,331.252005 799.882666,332.447993 799.882666,333.888 C799.882666,334.960005 799.56667,335.911996 798.934666,336.744 C798.302663,337.576004 797.418672,338.167998 796.282666,338.52 L799.882666,345 L798.226666,345 L794.794666,338.856 L793.810666,338.904 L790.066666,338.904 L790.066666,345 L788.482666,345 Z M790.066666,337.392 L793.954666,337.392 C795.250673,337.392 796.290662,337.060003 797.074666,336.396 C797.85867,335.731997 798.250666,334.896005 798.250666,333.888 C798.250666,332.895995 797.85867,332.064003 797.074666,331.392 C796.290662,330.719997 795.250673,330.384 793.954666,330.384 L790.066666,330.384 L790.066666,337.392 Z M808.325333,343.608 C809.397338,343.608 810.357329,343.304003 811.205333,342.696 C812.053337,342.087997 812.629332,341.376004 812.933333,340.56 L814.277333,341.04 C813.909331,342.048005 813.193338,342.975996 812.129333,343.824 C811.065328,344.672004 809.79734,345.088 808.325333,345.072 C806.981326,345.072 805.753339,344.656004 804.641333,343.824 C803.529328,342.991996 802.773335,341.928006 802.373333,340.632 C802.213332,340.103997 802.133333,339.528003 802.133333,338.904 C802.133333,337.175991 802.733327,335.712006 803.933333,334.512 C805.133339,333.311994 806.597324,332.704 808.325333,332.688 C809.893341,332.704 811.261327,333.231995 812.429333,334.272 C813.597339,335.312005 814.269332,336.599992 814.445333,338.136 C814.461333,338.216 814.469333,338.319999 814.469333,338.448 L803.981333,340.344 C804.253334,341.304005 804.797329,342.091997 805.613333,342.708 C806.429337,343.324003 807.333328,343.624 808.325333,343.608 Z M808.181333,334.152 C806.981327,334.168 805.953337,334.599996 805.097333,335.448 C804.241329,336.296004 803.781333,337.311994 803.717333,338.496 C803.717333,338.544 803.721333,338.627999 803.729333,338.748 C803.737333,338.868001 803.741333,338.968 803.741333,339.048 L812.669333,337.44 C812.365332,336.463995 811.797337,335.668003 810.965333,335.052 C810.133329,334.435997 809.205338,334.136 808.181333,334.152 Z M821.592,345.192 C821.047997,345.192 820.520002,345.124001 820.008,344.988 C819.495997,344.851999 819.068002,344.692001 818.724,344.508 C818.379998,344.323999 818.072001,344.136001 817.8,343.944 C817.527998,343.751999 817.328,343.592001 817.2,343.464 L817.008,343.248 L818.136,342.288 C818.248,342.400001 818.403999,342.535999 818.604,342.696 C818.804001,342.856001 819.207997,343.071999 819.816,343.344 C820.424003,343.616001 821.023997,343.752 821.616,343.752 C822.496004,343.752 823.199997,343.584002 823.728,343.248 C824.256002,342.911998 824.52,342.440003 824.52,341.832 C824.52,341.399998 824.256002,341.028002 823.728,340.716 C823.199997,340.403998 822.560004,340.136001 821.808,339.912 C821.055996,339.687999 820.300004,339.440001 819.54,339.168 C818.779996,338.895999 818.136002,338.512002 817.608,338.016 C817.079997,337.519998 816.816,336.912004 816.816,336.192 C816.816,335.199995 817.187996,334.388003 817.932,333.756 C818.676004,333.123997 819.775993,332.808 821.232,332.808 C822.096004,332.808 822.911996,332.967998 823.68,333.288 C824.448004,333.608002 824.999998,333.927998 825.336,334.248 L825.84,334.728 L824.712,335.712 C824.599999,335.599999 824.444001,335.464001 824.244,335.304 C824.043999,335.143999 823.640003,334.928001 823.032,334.656 C822.423997,334.383999 821.816003,334.248 821.208,334.248 C820.343995,334.248 819.644002,334.415998 819.108,334.752 C818.571997,335.088002 818.304,335.559997 818.304,336.168 C818.304,336.600002 818.567997,336.971998 819.096,337.284 C819.624002,337.596002 820.263996,337.863999 821.016,338.088 C821.768004,338.312001 822.523996,338.555999 823.284,338.82 C824.044004,339.084001 824.687997,339.467997 825.216,339.972 C825.744002,340.476003 826.008,341.087996 826.008,341.808 C826.008,342.816005 825.640003,343.631997 824.904,344.256 C824.167996,344.880003 823.064007,345.192 821.592,345.192 Z M831.042666,329.4 C830.866666,329.592001 830.642668,329.688 830.370666,329.688 C830.098665,329.688 829.870667,329.592001 829.686667,329.4 C829.502666,329.207999 829.410666,328.984001 829.410666,328.728 C829.410666,328.471999 829.502666,328.248001 829.686667,328.056 C829.870667,327.863999 830.098665,327.768 830.370666,327.768 C830.642668,327.768 830.870666,327.863999 831.054666,328.056 C831.238667,328.248001 831.330667,328.471999 831.330667,328.728 C831.330667,328.984001 831.234667,329.207999 831.042666,329.4 Z M829.578667,345 L829.578667,333 L831.162667,333 L831.162667,345 L829.578667,345 Z M839.437333,345.192 C838.89333,345.192 838.365336,345.124001 837.853333,344.988 C837.341331,344.851999 836.913335,344.692001 836.569333,344.508 C836.225331,344.323999 835.917335,344.136001 835.645333,343.944 C835.373332,343.751999 835.173334,343.592001 835.045333,343.464 L834.853333,343.248 L835.981333,342.288 C836.093334,342.400001 836.249332,342.535999 836.449333,342.696 C836.649334,342.856001 837.05333,343.071999 837.661333,343.344 C838.269336,343.616001 838.86933,343.752 839.461333,343.752 C840.341338,343.752 841.045331,343.584002 841.573333,343.248 C842.101336,342.911998 842.365333,342.440003 842.365333,341.832 C842.365333,341.399998 842.101336,341.028002 841.573333,340.716 C841.045331,340.403998 840.405337,340.136001 839.653333,339.912 C838.901329,339.687999 838.145337,339.440001 837.385333,339.168 C836.625329,338.895999 835.981336,338.512002 835.453333,338.016 C834.925331,337.519998 834.661333,336.912004 834.661333,336.192 C834.661333,335.199995 835.033329,334.388003 835.777333,333.756 C836.521337,333.123997 837.621326,332.808 839.077333,332.808 C839.941338,332.808 840.757329,332.967998 841.525333,333.288 C842.293337,333.608002 842.845332,333.927998 843.181333,334.248 L843.685333,334.728 L842.557333,335.712 C842.445333,335.599999 842.289334,335.464001 842.089333,335.304 C841.889332,335.143999 841.485336,334.928001 840.877333,334.656 C840.26933,334.383999 839.661336,334.248 839.053333,334.248 C838.189329,334.248 837.489336,334.415998 836.953333,334.752 C836.417331,335.088002 836.149333,335.559997 836.149333,336.168 C836.149333,336.600002 836.413331,336.971998 836.941333,337.284 C837.469336,337.596002 838.109329,337.863999 838.861333,338.088 C839.613337,338.312001 840.369329,338.555999 841.129333,338.82 C841.889337,339.084001 842.533331,339.467997 843.061333,339.972 C843.589336,340.476003 843.853333,341.087996 843.853333,341.808 C843.853333,342.816005 843.485337,343.631997 842.749333,344.256 C842.01333,344.880003 840.909341,345.192 839.437333,345.192 Z M853.52,342.312 L854.312,343.536 C854.215999,343.664001 854.088001,343.815999 853.928,343.992 C853.767999,344.168001 853.408003,344.411998 852.848,344.724 C852.287997,345.036002 851.712003,345.192 851.12,345.192 C850.111995,345.192 849.268003,344.892003 848.588,344.292 C847.907996,343.691997 847.568,342.824006 847.568,341.688 L847.568,334.44 L845.648,334.44 L845.648,332.976 L847.568,332.976 L847.568,329.184 L849.152,328.992 L849.152,332.976 L852.776,332.976 L852.776,334.44 L849.152,334.44 L849.152,341.328 C849.152,342.064004 849.379998,342.647998 849.836,343.08 C850.292002,343.512002 850.815997,343.728 851.408,343.728 C851.776002,343.728 852.135998,343.616001 852.488,343.392 C852.840002,343.167999 853.099999,342.948001 853.268,342.732 C853.436001,342.515999 853.52,342.376 853.52,342.312 Z M866.330667,343.368 C865.130661,344.584006 863.674675,345.192 861.962667,345.192 C860.250658,345.192 858.790673,344.588006 857.582667,343.38 C856.374661,342.171994 855.770667,340.712009 855.770667,339 C855.770667,337.287991 856.374661,335.828006 857.582667,334.62 C858.790673,333.411994 860.250658,332.808 861.962667,332.808 C863.674675,332.808 865.134661,333.411994 866.342667,334.62 C867.550673,335.828006 868.154667,337.287991 868.154667,339 C868.154667,340.696008 867.546673,342.151994 866.330667,343.368 Z M861.986667,343.68 C863.282673,343.68 864.374662,343.228005 865.262667,342.324 C866.150671,341.419995 866.594667,340.312007 866.594667,339 C866.594667,337.687993 866.150671,336.576005 865.262667,335.664 C864.374662,334.751995 863.282673,334.296 861.986667,334.296 C860.70666,334.296 859.618671,334.751995 858.722667,335.664 C857.826662,336.576005 857.378667,337.687993 857.378667,339 C857.378667,340.312007 857.826662,341.419995 858.722667,342.324 C859.618671,343.228005 860.70666,343.68 861.986667,343.68 Z M876.621333,332.808 C877.469338,332.808 878.24533,333.015998 878.949333,333.432 L878.397333,335.016 C877.72533,334.519998 877.045337,334.272 876.357333,334.272 C875.349328,334.272 874.501337,334.627996 873.813333,335.34 C873.12533,336.052004 872.781333,336.927995 872.781333,337.968 L872.781333,345 L871.197333,345 L871.197333,333 L872.781333,333 L872.781333,334.776 C873.757338,333.463993 875.037325,332.808 876.621333,332.808 Z" id="ButtonwithPull-downResistor" fill="#23ABE3" fill-rule="nonzero"></path>
        </g>
        <g id="Ground" transform="translate(436.000000, 212.000000)" stroke="#3D3530">
            <g transform="translate(33.000000, 37.500000) rotate(-90.000000) translate(-33.000000, -37.500000) translate(-4.500000, 4.500000)">
                <path d="M25,33 L75,33" id="Path-2-Copy" stroke-width="3"></path>
                <path d="M13,13 L13,53" id="Path-4" stroke-width="3"></path>
                <path d="M1,27 L1,39" id="Path-4-Copy" stroke-width="3"></path>
                <path d="M25,0 L25,66" id="Path-3-Copy" stroke-width="3"></path>
            </g>
        </g>
        <g id="Resistor" transform="translate(469.000000, 178.000000) rotate(-270.000000) translate(-469.000000, -178.000000) translate(434.000000, 165.000000)" stroke="#3D3530" stroke-linejoin="round" stroke-width="3">
            <polyline points="0 13 5 13 10 0 20 26 30 0 40 26 50 0 60 26 65 13 70 13"></polyline>
        </g>
        <g id="Circuit" transform="translate(285.000000, 33.000000)">
            <g id="Output-Label" transform="translate(215.000000, 65.000000)">
                <rect id="Rectangle-Copy-2" stroke="#3D3530" stroke-width="2" fill="#E3F4FB" x="1" y="1" width="113" height="28" rx="5"></rect>
                <path d="M34.856,19 L29.36,19 L29.36,18.496 C30.160004,18.496 30.6759988,18.3280017 30.908,17.992 C31.1400012,17.6559983 31.256,16.888006 31.256,15.688 L31.256,14.488 C31.256,13.3039941 31.1400012,12.5440017 30.908,12.208 C30.6759988,11.8719983 30.160004,11.704 29.36,11.704 L29.36,11.2 L32.96,10.6 L32.96,15.688 C32.96,16.888006 33.0759988,17.6559983 33.308,17.992 C33.5400012,18.3280017 34.055996,18.496 34.856,18.496 L34.856,19 Z M33.152,7.168 C33.152,7.47200152 33.048001,7.72799896 32.84,7.936 C32.631999,8.14400104 32.3840014,8.248 32.096,8.248 C31.8079986,8.248 31.560001,8.14400104 31.352,7.936 C31.143999,7.72799896 31.04,7.47200152 31.04,7.168 C31.04,6.87999856 31.143999,6.63200104 31.352,6.424 C31.560001,6.21599896 31.8079986,6.112 32.096,6.112 C32.3840014,6.112 32.631999,6.21599896 32.84,6.424 C33.048001,6.63200104 33.152,6.87999856 33.152,7.168 Z M41.024,12.328 C41.9360046,11.1759942 43.0479934,10.6 44.36,10.6 C45.4000052,10.6 46.1799974,10.9279967 46.7,11.584 C47.2200026,12.2400033 47.48,13.1039946 47.48,14.176 L47.48,15.688 C47.48,16.888006 47.5959988,17.6559983 47.828,17.992 C48.0600012,18.3280017 48.575996,18.496 49.376,18.496 L49.376,19 L43.88,19 L43.88,18.496 C44.6640039,18.496 45.1759988,18.3240017 45.416,17.98 C45.6560012,17.6359983 45.776,16.8720059 45.776,15.688 L45.776,14.296 C45.776,12.5839914 45.1120066,11.728 43.784,11.728 C43.0959966,11.728 42.4640029,11.9679976 41.888,12.448 C41.3119971,12.9280024 41.024,13.4879968 41.024,14.128 L41.024,15.688 C41.024,16.9200062 41.119999,17.6959984 41.312,18.016 C41.504001,18.3360016 41.9679963,18.496 42.704,18.496 L42.704,19 L37.424,19 L37.424,18.496 C38.224004,18.496 38.7399988,18.3280017 38.972,17.992 C39.2040012,17.6559983 39.32,16.888006 39.32,15.688 L39.32,14.488 C39.32,13.3039941 39.2040012,12.5440017 38.972,12.208 C38.7399988,11.8719983 38.224004,11.704 37.424,11.704 L37.424,11.2 L40.616,10.6 C40.7600007,10.9040015 40.8959994,11.4799958 41.024,12.328 Z M59.552,17.488 C60.0160023,16.8319967 60.248,16.000005 60.248,14.992 C60.248,13.983995 60.0160023,13.1600032 59.552,12.52 C59.0879977,11.8799968 58.4160044,11.56 57.536,11.56 C56.9919973,11.56 56.5080021,11.7279983 56.084,12.064 C55.6599979,12.4000017 55.3280012,12.8559971 55.088,13.432 L55.088,16.528 C55.3280012,17.120003 55.6599979,17.5879983 56.084,17.932 C56.5080021,18.2760017 56.9919973,18.448 57.536,18.448 C58.4160044,18.448 59.0879977,18.1280032 59.552,17.488 Z M55.088,21.712 C55.088,22.8960059 55.2039988,23.6559983 55.436,23.992 C55.6680012,24.3280017 56.183996,24.496 56.984,24.496 L56.984,25 L51.488,25 L51.488,24.496 C52.288004,24.496 52.8039988,24.3320016 53.036,24.004 C53.2680012,23.6759984 53.384,22.912006 53.384,21.712 L53.384,14.488 C53.384,13.287994 53.2680012,12.5240016 53.036,12.196 C52.8039988,11.8679984 52.288004,11.704 51.488,11.704 L51.488,11.2 L54.704,10.6 C54.8000005,10.7760009 54.9199993,11.263996 55.064,12.064 C55.8800041,11.0879951 56.8719942,10.6 58.04,10.6 C59.1760057,10.6 60.1519959,11.0279957 60.968,11.884 C61.7840041,12.7400043 62.192,13.7759939 62.192,14.992 C62.192,16.2080061 61.7840041,17.2479957 60.968,18.112 C60.1519959,18.9760043 59.1760057,19.408 58.04,19.408 C56.8559941,19.408 55.8720039,18.9280048 55.088,17.968 L55.088,21.712 Z M76.616,18.808 L73.4,19.408 C73.2719994,19.1519987 73.1440006,18.6400038 73.016,17.872 C72.023995,18.8960051 70.9760055,19.408 69.872,19.408 C67.8879901,19.408 66.896,18.208012 66.896,15.808 L66.896,14.296 C66.896,13.095994 66.7800012,12.3280017 66.548,11.992 C66.3159988,11.6559983 65.800004,11.488 65,11.488 L65,11.008 L68.6,11.008 L68.6,15.688 C68.6,17.4000086 69.2079939,18.256 70.424,18.256 C70.9680027,18.256 71.535997,18.0280023 72.128,17.572 C72.720003,17.1159977 73.016,16.5520034 73.016,15.88 L73.016,14.296 C73.016,13.095994 72.9000012,12.3280017 72.668,11.992 C72.4359988,11.6559983 71.9120041,11.488 71.096,11.488 L71.096,11.008 L74.696,11.008 L74.696,15.496 C74.696,16.696006 74.8119988,17.4639983 75.044,17.8 C75.2760012,18.1360017 75.7999959,18.304 76.616,18.304 L76.616,18.808 Z M80.192,11.848 L78.944,11.848 L78.944,11.272 C79.6320034,11.1279993 80.1359984,10.8160024 80.456,10.336 C80.7760016,9.8559976 80.9839995,9.20000416 81.08,8.368 L81.896,8.368 L81.896,11.008 L83.984,11.008 L83.984,11.848 L81.896,11.848 L81.896,16.648 C81.896,17.8000058 82.2559964,18.376 82.976,18.376 C83.4400023,18.376 83.9599971,18.1040027 84.536,17.56 L84.944,17.968 C84.6079983,18.368002 84.2040024,18.6959987 83.732,18.952 C83.2599976,19.2080013 82.824002,19.336 82.424,19.336 C81.7359966,19.336 81.192002,19.1120022 80.792,18.664 C80.391998,18.2159978 80.192,17.5440045 80.192,16.648 L80.192,11.848 Z" id="input" fill="#B35E2C" fill-rule="nonzero"></path>
            </g>
            <g id="DC_Rail" transform="translate(11.000000, 30.000000)" stroke="#3D3530">
                <g transform="translate(15.000000, 25.500000) rotate(-90.000000) translate(-15.000000, -25.500000) translate(-10.500000, 10.500000)">
                    <path d="M-5.32907052e-15,15 L50,15" id="Path-2-Copy" stroke-width="3"></path>
                    <path d="M50,-4.26325641e-14 L50,30" id="Path-4" stroke-width="3"></path>
                </g>
            </g>
            <path d="M6.44,14.24 C6.32799944,14.3360005 6.18800084,14.483999 6.02,14.684 C5.85199916,14.884001 5.69600072,15.0439994 5.552,15.164 C5.40799928,15.2840006 5.26400072,15.344 5.12,15.344 C4.99199936,15.344 4.87600052,15.2920005 4.772,15.188 C4.66799948,15.0839995 4.616,14.9520008 4.616,14.792 C4.616,14.5039986 4.82399792,14.2080015 5.24,13.904 L7.016,12.488 C7.48000232,12.1359982 7.85999852,11.6840028 8.156,11.132 C8.45200148,10.5799972 8.6,10.008003 8.6,9.416 C8.6,8.74399664 8.3600024,8.208002 7.88,7.808 C7.3999976,7.407998 6.76800392,7.208 5.984,7.208 C5.15199584,7.208 4.4560028,7.55999648 3.896,8.264 C3.3359972,8.96800352 3.34399712,9.81599504 3.92,10.808 L3.2,11.552 C2.27199536,10.9919972 1.77200036,10.2840043 1.7,9.428 C1.62799964,8.57199572 1.991996,7.82000324 2.792,7.172 C3.592004,6.52399676 4.65599336,6.2 5.984,6.2 C7.21600616,6.2 8.28799544,6.49599704 9.2,7.088 C10.1120046,7.68000296 10.568,8.4559952 10.568,9.416 C10.568,9.76800176 10.4920008,10.1279982 10.34,10.496 C10.1879992,10.8640018 10.0040011,11.1759987 9.788,11.432 C9.57199892,11.6880013 9.35600108,11.9239989 9.14,12.14 C8.92399892,12.3560011 8.74400072,12.5199994 8.6,12.632 L8.36,12.776 L7.256,13.616 C8.40800576,13.8560012 9.31999664,14.3279965 9.992,15.032 C10.6640034,15.7360035 11,16.5519954 11,17.48 C11,18.5840055 10.5400046,19.5279961 9.62,20.312 C8.6999954,21.0960039 7.56800672,21.488 6.224,21.488 C4.92799352,21.488 3.86400416,21.1760031 3.032,20.552 C2.19999584,19.9279969 1.784,19.3360028 1.784,18.776 C1.784,18.4079982 1.99199792,18.224 2.408,18.224 C2.5680008,18.224 2.7079994,18.2959993 2.828,18.44 C2.9480006,18.5840007 3.08399924,18.7839987 3.236,19.04 C3.38800076,19.2960013 3.53599928,19.4959993 3.68,19.64 C4.27200296,20.2640031 5.05599512,20.576 6.032,20.576 C6.97600472,20.576 7.68399764,20.2920028 8.156,19.724 C8.62800236,19.1559972 8.864,18.4080046 8.864,17.48 C8.864,16.7119962 8.66800196,16.024003 8.276,15.416 C7.88399804,14.807997 7.27200416,14.4160009 6.44,14.24 Z M18.704,15.944 C18.704,16.2800017 18.5680014,16.5719988 18.296,16.82 C18.0239986,17.0680012 17.7040018,17.192 17.336,17.192 C16.9679982,17.192 16.6560013,17.0680012 16.4,16.82 C16.1439987,16.5719988 16.016,16.2800017 16.016,15.944 C16.016,15.5919982 16.1439987,15.2920012 16.4,15.044 C16.6560013,14.7959988 16.9679982,14.672 17.336,14.672 C17.7040018,14.672 18.0239986,14.7959988 18.296,15.044 C18.5680014,15.2920012 18.704,15.5919982 18.704,15.944 Z M28.544,14.24 C28.4319994,14.3360005 28.2920008,14.483999 28.124,14.684 C27.9559992,14.884001 27.8000007,15.0439994 27.656,15.164 C27.5119993,15.2840006 27.3680007,15.344 27.224,15.344 C27.0959994,15.344 26.9800005,15.2920005 26.876,15.188 C26.7719995,15.0839995 26.72,14.9520008 26.72,14.792 C26.72,14.5039986 26.9279979,14.2080015 27.344,13.904 L29.12,12.488 C29.5840023,12.1359982 29.9639985,11.6840028 30.26,11.132 C30.5560015,10.5799972 30.704,10.008003 30.704,9.416 C30.704,8.74399664 30.4640024,8.208002 29.984,7.808 C29.5039976,7.407998 28.8720039,7.208 28.088,7.208 C27.2559958,7.208 26.5600028,7.55999648 26,8.264 C25.4399972,8.96800352 25.4479971,9.81599504 26.024,10.808 L25.304,11.552 C24.3759954,10.9919972 23.8760004,10.2840043 23.804,9.428 C23.7319996,8.57199572 24.095996,7.82000324 24.896,7.172 C25.696004,6.52399676 26.7599934,6.2 28.088,6.2 C29.3200062,6.2 30.3919954,6.49599704 31.304,7.088 C32.2160046,7.68000296 32.672,8.4559952 32.672,9.416 C32.672,9.76800176 32.5960008,10.1279982 32.444,10.496 C32.2919992,10.8640018 32.1080011,11.1759987 31.892,11.432 C31.6759989,11.6880013 31.4600011,11.9239989 31.244,12.14 C31.0279989,12.3560011 30.8480007,12.5199994 30.704,12.632 L30.464,12.776 L29.36,13.616 C30.5120058,13.8560012 31.4239966,14.3279965 32.096,15.032 C32.7680034,15.7360035 33.104,16.5519954 33.104,17.48 C33.104,18.5840055 32.6440046,19.5279961 31.724,20.312 C30.8039954,21.0960039 29.6720067,21.488 28.328,21.488 C27.0319935,21.488 25.9680042,21.1760031 25.136,20.552 C24.3039958,19.9279969 23.888,19.3360028 23.888,18.776 C23.888,18.4079982 24.0959979,18.224 24.512,18.224 C24.6720008,18.224 24.8119994,18.2959993 24.932,18.44 C25.0520006,18.5840007 25.1879992,18.7839987 25.34,19.04 C25.4920008,19.2960013 25.6399993,19.4959993 25.784,19.64 C26.376003,20.2640031 27.1599951,20.576 28.136,20.576 C29.0800047,20.576 29.7879976,20.2920028 30.26,19.724 C30.7320024,19.1559972 30.968,18.4080046 30.968,17.48 C30.968,16.7119962 30.772002,16.024003 30.38,15.416 C29.987998,14.807997 29.3760042,14.4160009 28.544,14.24 Z M51.44,3.104 C50.4959953,3.104 49.8840014,3.21999884 49.604,3.452 C49.3239986,3.68400116 48.984002,4.26399536 48.584,5.192 L43.304,17.408 L42.992,17.408 L37.688,5.192 C37.287998,4.26399536 36.9480014,3.68400116 36.668,3.452 C36.3879986,3.21999884 35.7760047,3.104 34.832,3.104 L34.832,2.6 L41.48,2.6 L41.48,3.104 C40.487995,3.104 39.8520014,3.2439986 39.572,3.524 C39.2919986,3.8040014 39.3039985,4.27199672 39.608,4.928 L43.688,14.264 L47.72,4.928 C48.0240015,4.27199672 48.0360014,3.8040014 47.756,3.524 C47.4759986,3.2439986 46.840005,3.104 45.848,3.104 L45.848,2.6 L51.44,2.6 L51.44,3.104 Z" id="3.3V" fill="#524740" fill-rule="nonzero"></path>
            <g id="Pushbutton" transform="translate(85.000000, 62.000000)">
                <g>
                    <g id="Connection" transform="translate(0.000000, 13.000000)" fill="#3D3530">
                        <circle cx="5" cy="5" r="5"></circle>
                    </g>
                    <g id="Connection" transform="translate(60.000000, 13.000000)" fill="#3D3530">
                        <circle cx="5" cy="5" r="5"></circle>
                    </g>
                    <path d="M5,8 L65,8" id="Path" stroke="#3D3530" stroke-width="3"></path>
                    <rect id="Rectangle" fill="#3D3530" x="26" y="0" width="18" height="7"></rect>
                </g>
            </g>
            <path d="M25,80 L85,80" id="Path" stroke="#3D3530" stroke-width="2"></path>
            <path d="M155,80 L215,80" id="Path-Copy" stroke="#3D3530" stroke-width="2"></path>
        </g>
        <path d="M469,113 L469,143" id="Path-2" stroke="#3D3530" stroke-width="2"></path>
    </g>
</svg>