<?xml version="1.0"?>
<!DOCTYPE svg PUBLIC "-//W3C//DTD SVG 1.1//EN" "http://www.w3.org/Graphics/SVG/1.1/DTD/svg11.dtd">
<svg viewBox="79 96 377 150" preserveAspectRatio="xMinYMin meet" version="1.1" xmlns="http://www.w3.org/2000/svg">
<g class="SPST Push Switch">
<line x1="192" y1="192" x2="224" y2="192" stroke="#07F707" stroke-opacity="1" stroke-width="3" stroke-linecap="round" fill="none" />
<line x1="256" y1="192" x2="288" y2="192" stroke="#877777" stroke-opacity="1" stroke-width="3" stroke-linecap="round" fill="none" />
<ellipse cx="224" cy="192" rx="4" ry="4" fill="#07F707" fill-opacity="1" stroke="none" />
<ellipse cx="256" cy="192" rx="4" ry="4" fill="#877777" fill-opacity="1" stroke="none" />
<line x1="224" y1="180" x2="256" y2="180" stroke="#000000" stroke-opacity="1" stroke-width="3" stroke-linecap="round" fill="none" />
<line x1="240" y1="177" x2="240" y2="174" stroke="#000000" stroke-opacity="1" stroke-width="6" stroke-linecap="round" fill="none" />
</g>
<g class="DC Rail">
<line x1="118" y1="145" x2="138" y2="145" stroke="#07F707" stroke-opacity="1" stroke-width="3" stroke-linecap="round" fill="none" />
<line x1="128" y1="192" x2="128" y2="145" stroke="#07F707" stroke-opacity="1" stroke-width="3" stroke-linecap="round" fill="none" />
<text x="103" y="141" font-family="sans-serif" font-size="15">+3.3V</text>
</g>
<g class="Port">
<polygon fill="#FFFFFF" fill-opacity="0.831372549019608" stroke="none" points="352,192 360,182 416,182 416,202 360,202 " />
<polygon stroke="#000000" stroke-opacity="1" stroke-width="1" fill="none" points="352,192 360,182 416,182 416,202 360,202 " />
<text x="379" y="197" font-family="sans-serif" font-size="15">1</text>
</g>
<g class="Wire">
<line x1="192" y1="192" x2="128" y2="192" stroke="#07F707" stroke-opacity="1" stroke-width="1.5" stroke-linecap="round" fill="none" />
</g>
<g class="Wire">
<line x1="352" y1="192" x2="288" y2="192" stroke="#877777" stroke-opacity="1" stroke-width="1.5" stroke-linecap="round" fill="none" />
</g>
</svg>
