<?xml version="1.0"?>
<!DOCTYPE svg PUBLIC "-//W3C//DTD SVG 1.1//EN" "http://www.w3.org/Graphics/SVG/1.1/DTD/svg11.dtd">
<svg viewBox="47 64 377 298" preserveAspectRatio="xMinYMin meet" version="1.1" xmlns="http://www.w3.org/2000/svg">
<g class="SPST Push Switch">
<line x1="160" y1="160" x2="192" y2="160" stroke="#07F707" stroke-opacity="1" stroke-width="3" stroke-linecap="round" fill="none" />
<line x1="224" y1="160" x2="256" y2="160" stroke="#877777" stroke-opacity="1" stroke-width="3" stroke-linecap="round" fill="none" />
<ellipse cx="192" cy="160" rx="4" ry="4" fill="#07F707" fill-opacity="1" stroke="none" />
<ellipse cx="224" cy="160" rx="4" ry="4" fill="#877777" fill-opacity="1" stroke="none" />
<line x1="192" y1="148" x2="224" y2="148" stroke="#000000" stroke-opacity="1" stroke-width="3" stroke-linecap="round" fill="none" />
<line x1="208" y1="145" x2="208" y2="142" stroke="#000000" stroke-opacity="1" stroke-width="6" stroke-linecap="round" fill="none" />
</g>
<g class="DC Rail">
<line x1="86" y1="113" x2="106" y2="113" stroke="#07F707" stroke-opacity="1" stroke-width="3" stroke-linecap="round" fill="none" />
<line x1="96" y1="160" x2="96" y2="113" stroke="#07F707" stroke-opacity="1" stroke-width="3" stroke-linecap="round" fill="none" />
<text x="71" y="109" font-family="sans-serif" font-size="15">+3.3V</text>
</g>
<g class="Port">
<polygon fill="#FFFFFF" fill-opacity="0.831372549019608" stroke="none" points="320,160 328,150 384,150 384,170 328,170 " />
<polygon stroke="#000000" stroke-opacity="1" stroke-width="1" fill="none" points="320,160 328,150 384,150 384,170 328,170 " />
<text x="347" y="165" font-family="sans-serif" font-size="15">1</text>
</g>
<g class="Wire">
<line x1="160" y1="160" x2="96" y2="160" stroke="#07F707" stroke-opacity="1" stroke-width="1.5" stroke-linecap="round" fill="none" />
</g>
<g class="Wire">
<line x1="320" y1="160" x2="288" y2="160" stroke="#877777" stroke-opacity="1" stroke-width="1.5" stroke-linecap="round" fill="none" />
<ellipse cx="288" cy="160" rx="4" ry="4" fill="#877777" fill-opacity="1" stroke="none" />
</g>
<g class="Resistor">
<line x1="288" y1="192" x2="288" y2="208" stroke="#877777" stroke-opacity="1" stroke-width="3" stroke-linecap="round" fill="none" />
<line x1="288" y1="240" x2="288" y2="256" stroke="#877777" stroke-opacity="1" stroke-width="3" stroke-linecap="round" fill="none" />
<polyline stroke="#877777" stroke-opacity="1" stroke-linecap="round" stroke-linejoin="round" stroke-width="3" fill="none" points="288,208 296,210.6667 288,213.3333 280,216 288,218.6667 " />
<polyline stroke="#877777" stroke-opacity="1" stroke-linecap="round" stroke-linejoin="round" stroke-width="3" fill="none" points="288,218.6667 296,221.3333 288,224 280,226.6667 288,229.3333 " />
<polyline stroke="#877777" stroke-opacity="1" stroke-linecap="round" stroke-linejoin="round" stroke-width="3" fill="none" points="288,229.3333 296,232 288,234.6667 280,237.3333 288,240 " />
<text x="303" y="229" font-family="sans-serif" font-size="15">10k</text>
</g>
<g class="Ground">
<line x1="288" y1="256" x2="288" y2="320" stroke="#877777" stroke-opacity="1" stroke-width="3" stroke-linecap="round" fill="none" />
<line x1="298" y1="320" x2="278" y2="320" stroke="#877777" stroke-opacity="1" stroke-width="3" stroke-linecap="round" fill="none" />
<line x1="294" y1="325" x2="282" y2="325" stroke="#877777" stroke-opacity="1" stroke-width="3" stroke-linecap="round" fill="none" />
<line x1="290" y1="330" x2="286" y2="330" stroke="#877777" stroke-opacity="1" stroke-width="3" stroke-linecap="round" fill="none" />
</g>
<g class="Wire">
<line x1="288" y1="160" x2="256" y2="160" stroke="#877777" stroke-opacity="1" stroke-width="1.5" stroke-linecap="round" fill="none" />
<ellipse cx="288" cy="160" rx="4" ry="4" fill="#877777" fill-opacity="1" stroke="none" />
</g>
<g class="Wire">
<line x1="288" y1="192" x2="288" y2="160" stroke="#877777" stroke-opacity="1" stroke-width="1.5" stroke-linecap="round" fill="none" />
<ellipse cx="288" cy="160" rx="4" ry="4" fill="#877777" fill-opacity="1" stroke="none" />
</g>
</svg>
