<?xml version="1.0" encoding="UTF-8"?>
<svg width="900px" height="520px" viewBox="0 0 900 520" version="1.1" xmlns="http://www.w3.org/2000/svg" xmlns:xlink="http://www.w3.org/1999/xlink">
    <!-- Generator: Sketch 60.1 (88133) - https://sketch.com -->
    <title>Resistors_in_Parallel</title>
    <desc>Created with Sketch.</desc>
    <g id="Resistors_in_Parallel" stroke="none" stroke-width="1" fill="none" fill-rule="evenodd">
        <g id="Illustration_Frame">
            <rect id="Rectangle" stroke="#3D3530" stroke-width="2" fill="#EEEEEE" x="1" y="1" width="898" height="518"></rect>
            <rect id="Rectangle-Copy" stroke="#3D3530" stroke-width="2" fill="#F8FAE4" x="1" y="476" width="898" height="43"></rect>
            <path d="M657.127999,505 L657.127999,498.904 L660.871999,498.904 L661.855999,498.856 L665.287999,505 L666.943999,505 L663.343999,498.52 C664.479999,498.168 665.363999,497.576 665.995999,496.744 C666.627999,495.912 666.943999,494.96 666.943999,493.888 C666.943999,492.448 666.407999,491.252 665.335999,490.3 C664.263999,489.348 662.823999,488.872 661.015999,488.872 L661.015999,488.872 L655.543999,488.872 L655.543999,505 L657.127999,505 Z M661.015999,497.392 L657.127999,497.392 L657.127999,490.384 L661.015999,490.384 C662.311999,490.384 663.351999,490.72 664.135999,491.392 C664.919999,492.064 665.311999,492.896 665.311999,493.888 C665.311999,494.896 664.919999,495.732 664.135999,496.396 C663.351999,497.06 662.311999,497.392 661.015999,497.392 L661.015999,497.392 Z M675.386666,505.072 C676.858666,505.088 678.126666,504.672 679.190666,503.824 C680.254666,502.976 680.970666,502.048 681.338666,501.04 L681.338666,501.04 L679.994666,500.56 C679.690666,501.376 679.114666,502.088 678.266666,502.696 C677.418666,503.304 676.458666,503.608 675.386666,503.608 C674.394666,503.624 673.490666,503.324 672.674666,502.708 C671.858666,502.092 671.314666,501.304 671.042666,500.344 L671.042666,500.344 L681.530666,498.448 C681.530666,498.32 681.522666,498.216 681.506666,498.136 C681.330666,496.6 680.658666,495.312 679.490666,494.272 C678.322666,493.232 676.954666,492.704 675.386666,492.688 C673.658666,492.704 672.194666,493.312 670.994666,494.512 C669.794666,495.712 669.194666,497.176 669.194666,498.904 C669.194666,499.528 669.274666,500.104 669.434666,500.632 C669.834666,501.928 670.590666,502.992 671.702666,503.824 C672.814666,504.656 674.042666,505.072 675.386666,505.072 Z M670.802666,499.048 C670.802666,498.968 670.798666,498.868 670.790666,498.748 C670.782666,498.628 670.778666,498.544 670.778666,498.496 C670.842666,497.312 671.302666,496.296 672.158666,495.448 C673.014666,494.6 674.042666,494.168 675.242666,494.152 C676.266666,494.136 677.194666,494.436 678.026666,495.052 C678.858666,495.668 679.426666,496.464 679.730666,497.44 L679.730666,497.44 L670.802666,499.048 Z M688.653333,505.192 C690.125333,505.192 691.229333,504.88 691.965333,504.256 C692.701333,503.632 693.069333,502.816 693.069333,501.808 C693.069333,501.088 692.805333,500.476 692.277333,499.972 C691.749333,499.468 691.105333,499.084 690.345333,498.82 C689.585333,498.556 688.829333,498.312 688.077333,498.088 C687.325333,497.864 686.685333,497.596 686.157333,497.284 C685.629333,496.972 685.365333,496.6 685.365333,496.168 C685.365333,495.56 685.633333,495.088 686.169333,494.752 C686.705333,494.416 687.405333,494.248 688.269333,494.248 C688.877333,494.248 689.485333,494.384 690.093333,494.656 C690.701333,494.928 691.105333,495.144 691.305333,495.304 C691.505333,495.464 691.661333,495.6 691.773333,495.712 L691.773333,495.712 L692.901333,494.728 L692.397333,494.248 C692.061333,493.928 691.509333,493.608 690.741333,493.288 C689.973333,492.968 689.157333,492.808 688.293333,492.808 C686.837333,492.808 685.737333,493.124 684.993333,493.756 C684.249333,494.388 683.877333,495.2 683.877333,496.192 C683.877333,496.912 684.141333,497.52 684.669333,498.016 C685.197333,498.512 685.841333,498.896 686.601333,499.168 C687.361333,499.44 688.117333,499.688 688.869333,499.912 C689.621333,500.136 690.261333,500.404 690.789333,500.716 C691.317333,501.028 691.581333,501.4 691.581333,501.832 C691.581333,502.44 691.317333,502.912 690.789333,503.248 C690.261333,503.584 689.557333,503.752 688.677333,503.752 C688.085333,503.752 687.485333,503.616 686.877333,503.344 C686.269333,503.072 685.865333,502.856 685.665333,502.696 C685.465333,502.536 685.309333,502.4 685.197333,502.288 L685.197333,502.288 L684.069333,503.248 L684.261333,503.464 C684.389333,503.592 684.589333,503.752 684.861333,503.944 C685.133333,504.136 685.441333,504.324 685.785333,504.508 C686.129333,504.692 686.557333,504.852 687.069333,504.988 C687.581333,505.124 688.109333,505.192 688.653333,505.192 Z M697.431999,489.688 C697.703999,489.688 697.927999,489.592 698.103999,489.4 C698.295999,489.208 698.391999,488.984 698.391999,488.728 C698.391999,488.472 698.299999,488.248 698.115999,488.056 C697.931999,487.864 697.703999,487.768 697.431999,487.768 C697.159999,487.768 696.931999,487.864 696.747999,488.056 C696.563999,488.248 696.471999,488.472 696.471999,488.728 C696.471999,488.984 696.563999,489.208 696.747999,489.4 C696.931999,489.592 697.159999,489.688 697.431999,489.688 Z M698.223999,505 L698.223999,493 L696.639999,493 L696.639999,505 L698.223999,505 Z M706.498666,505.192 C707.970666,505.192 709.074666,504.88 709.810666,504.256 C710.546666,503.632 710.914666,502.816 710.914666,501.808 C710.914666,501.088 710.650666,500.476 710.122666,499.972 C709.594666,499.468 708.950666,499.084 708.190666,498.82 C707.430666,498.556 706.674666,498.312 705.922666,498.088 C705.170666,497.864 704.530666,497.596 704.002666,497.284 C703.474666,496.972 703.210666,496.6 703.210666,496.168 C703.210666,495.56 703.478666,495.088 704.014666,494.752 C704.550666,494.416 705.250666,494.248 706.114666,494.248 C706.722666,494.248 707.330666,494.384 707.938666,494.656 C708.546666,494.928 708.950666,495.144 709.150666,495.304 C709.350666,495.464 709.506666,495.6 709.618666,495.712 L709.618666,495.712 L710.746666,494.728 L710.242666,494.248 C709.906666,493.928 709.354666,493.608 708.586666,493.288 C707.818666,492.968 707.002666,492.808 706.138666,492.808 C704.682666,492.808 703.582666,493.124 702.838666,493.756 C702.094666,494.388 701.722666,495.2 701.722666,496.192 C701.722666,496.912 701.986666,497.52 702.514666,498.016 C703.042666,498.512 703.686666,498.896 704.446666,499.168 C705.206666,499.44 705.962666,499.688 706.714666,499.912 C707.466666,500.136 708.106666,500.404 708.634666,500.716 C709.162666,501.028 709.426666,501.4 709.426666,501.832 C709.426666,502.44 709.162666,502.912 708.634666,503.248 C708.106666,503.584 707.402666,503.752 706.522666,503.752 C705.930666,503.752 705.330666,503.616 704.722666,503.344 C704.114666,503.072 703.710666,502.856 703.510666,502.696 C703.310666,502.536 703.154666,502.4 703.042666,502.288 L703.042666,502.288 L701.914666,503.248 L702.106666,503.464 C702.234666,503.592 702.434666,503.752 702.706666,503.944 C702.978666,504.136 703.286666,504.324 703.630666,504.508 C703.974666,504.692 704.402666,504.852 704.914666,504.988 C705.426666,505.124 705.954666,505.192 706.498666,505.192 Z M718.181333,505.192 C718.773333,505.192 719.349333,505.036 719.909333,504.724 C720.469333,504.412 720.829333,504.168 720.989333,503.992 C721.149333,503.816 721.277333,503.664 721.373333,503.536 L721.373333,503.536 L720.581333,502.312 C720.581333,502.376 720.497333,502.516 720.329333,502.732 C720.161333,502.948 719.901333,503.168 719.549333,503.392 C719.197333,503.616 718.837333,503.728 718.469333,503.728 C717.877333,503.728 717.353333,503.512 716.897333,503.08 C716.441333,502.648 716.213333,502.064 716.213333,501.328 L716.213333,501.328 L716.213333,494.44 L719.837333,494.44 L719.837333,492.976 L716.213333,492.976 L716.213333,488.992 L714.629333,489.184 L714.629333,492.976 L712.709333,492.976 L712.709333,494.44 L714.629333,494.44 L714.629333,501.688 C714.629333,502.824 714.969333,503.692 715.649333,504.292 C716.329333,504.892 717.173333,505.192 718.181333,505.192 Z M729.023999,505.192 C730.735999,505.192 732.191999,504.584 733.391999,503.368 C734.607999,502.152 735.215999,500.696 735.215999,499 C735.215999,497.288 734.611999,495.828 733.403999,494.62 C732.195999,493.412 730.735999,492.808 729.023999,492.808 C727.311999,492.808 725.851999,493.412 724.643999,494.62 C723.435999,495.828 722.831999,497.288 722.831999,499 C722.831999,500.712 723.435999,502.172 724.643999,503.38 C725.851999,504.588 727.311999,505.192 729.023999,505.192 Z M729.047999,503.68 C727.767999,503.68 726.679999,503.228 725.783999,502.324 C724.887999,501.42 724.439999,500.312 724.439999,499 C724.439999,497.688 724.887999,496.576 725.783999,495.664 C726.679999,494.752 727.767999,494.296 729.047999,494.296 C730.343999,494.296 731.435999,494.752 732.323999,495.664 C733.211999,496.576 733.655999,497.688 733.655999,499 C733.655999,500.312 733.211999,501.42 732.323999,502.324 C731.435999,503.228 730.343999,503.68 729.047999,503.68 Z M739.842666,505 L739.842666,497.968 C739.842666,496.928 740.186666,496.052 740.874666,495.34 C741.562666,494.628 742.410666,494.272 743.418666,494.272 C744.106666,494.272 744.786666,494.52 745.458666,495.016 L745.458666,495.016 L746.010666,493.432 C745.306666,493.016 744.530666,492.808 743.682666,492.808 C742.098666,492.808 740.818666,493.464 739.842666,494.776 L739.842666,494.776 L739.842666,493 L738.258666,493 L738.258666,505 L739.842666,505 Z M752.197333,505.192 C753.669333,505.192 754.773333,504.88 755.509333,504.256 C756.245333,503.632 756.613333,502.816 756.613333,501.808 C756.613333,501.088 756.349333,500.476 755.821333,499.972 C755.293333,499.468 754.649333,499.084 753.889333,498.82 C753.129333,498.556 752.373333,498.312 751.621333,498.088 C750.869333,497.864 750.229333,497.596 749.701333,497.284 C749.173333,496.972 748.909333,496.6 748.909333,496.168 C748.909333,495.56 749.177333,495.088 749.713333,494.752 C750.249333,494.416 750.949333,494.248 751.813333,494.248 C752.421333,494.248 753.029333,494.384 753.637333,494.656 C754.245333,494.928 754.649333,495.144 754.849333,495.304 C755.049333,495.464 755.205333,495.6 755.317333,495.712 L755.317333,495.712 L756.445333,494.728 L755.941333,494.248 C755.605333,493.928 755.053333,493.608 754.285333,493.288 C753.517333,492.968 752.701333,492.808 751.837333,492.808 C750.381333,492.808 749.281333,493.124 748.537333,493.756 C747.793333,494.388 747.421333,495.2 747.421333,496.192 C747.421333,496.912 747.685333,497.52 748.213333,498.016 C748.741333,498.512 749.385333,498.896 750.145333,499.168 C750.905333,499.44 751.661333,499.688 752.413333,499.912 C753.165333,500.136 753.805333,500.404 754.333333,500.716 C754.861333,501.028 755.125333,501.4 755.125333,501.832 C755.125333,502.44 754.861333,502.912 754.333333,503.248 C753.805333,503.584 753.101333,503.752 752.221333,503.752 C751.629333,503.752 751.029333,503.616 750.421333,503.344 C749.813333,503.072 749.409333,502.856 749.209333,502.696 C749.009333,502.536 748.853333,502.4 748.741333,502.288 L748.741333,502.288 L747.613333,503.248 L747.805333,503.464 C747.933333,503.592 748.133333,503.752 748.405333,503.944 C748.677333,504.136 748.985333,504.324 749.329333,504.508 C749.673333,504.692 750.101333,504.852 750.613333,504.988 C751.125333,505.124 751.653333,505.192 752.197333,505.192 Z M768.146666,489.688 C768.418666,489.688 768.642666,489.592 768.818666,489.4 C769.010666,489.208 769.106666,488.984 769.106666,488.728 C769.106666,488.472 769.014666,488.248 768.830666,488.056 C768.646666,487.864 768.418666,487.768 768.146666,487.768 C767.874666,487.768 767.646666,487.864 767.462666,488.056 C767.278666,488.248 767.186666,488.472 767.186666,488.728 C767.186666,488.984 767.278666,489.208 767.462666,489.4 C767.646666,489.592 767.874666,489.688 768.146666,489.688 Z M768.938666,505 L768.938666,493 L767.354666,493 L767.354666,505 L768.938666,505 Z M774.861333,505 L774.861333,497.968 C774.861333,496.944 775.209333,496.072 775.905333,495.352 C776.601333,494.632 777.445333,494.272 778.437333,494.272 C779.429333,494.272 780.273333,494.632 780.969333,495.352 C781.665333,496.072 782.013333,496.944 782.013333,497.968 L782.013333,497.968 L782.013333,505 L783.621333,505 L783.621333,497.92 C783.621333,496.48 783.149333,495.268 782.205333,494.284 C781.261333,493.3 780.093333,492.808 778.701333,492.808 C777.117333,492.808 775.837333,493.464 774.861333,494.776 L774.861333,494.776 L774.861333,493 L773.277333,493 L773.277333,505 L774.861333,505 Z M796.354666,505 L796.354666,498.904 L800.242666,498.904 C802.050666,498.904 803.490666,498.424 804.562666,497.464 C805.634666,496.504 806.170666,495.312 806.170666,493.888 C806.170666,492.448 805.634666,491.252 804.562666,490.3 C803.490666,489.348 802.050666,488.872 800.242666,488.872 L800.242666,488.872 L794.770666,488.872 L794.770666,505 L796.354666,505 Z M800.242666,497.392 L796.354666,497.392 L796.354666,490.384 L800.242666,490.384 C801.538666,490.384 802.578666,490.72 803.362666,491.392 C804.146666,492.064 804.538666,492.896 804.538666,493.888 C804.538666,494.896 804.146666,495.732 803.362666,496.396 C802.578666,497.06 801.538666,497.392 800.242666,497.392 L800.242666,497.392 Z M814.205333,505.192 C816.093333,505.192 817.653333,504.48 818.885333,503.056 L818.885333,503.056 L818.885333,505 L820.469333,505 L820.469333,493 L818.885333,493 L818.885333,494.944 C817.669333,493.52 816.109333,492.808 814.205333,492.808 C812.493333,492.808 811.033333,493.412 809.825333,494.62 C808.617333,495.828 808.013333,497.288 808.013333,499 C808.013333,500.712 808.617333,502.172 809.825333,503.38 C811.033333,504.588 812.493333,505.192 814.205333,505.192 Z M814.229333,503.68 C812.949333,503.68 811.857333,503.228 810.953333,502.324 C810.049333,501.42 809.597333,500.312 809.597333,499 C809.597333,497.688 810.049333,496.58 810.953333,495.676 C811.857333,494.772 812.949333,494.32 814.229333,494.32 C815.525333,494.32 816.617333,494.772 817.505333,495.676 C818.393333,496.58 818.837333,497.688 818.837333,499 C818.837333,500.312 818.393333,501.42 817.505333,502.324 C816.617333,503.228 815.525333,503.68 814.229333,503.68 Z M825.96,505 L825.96,497.968 C825.96,496.928 826.304,496.052 826.992,495.34 C827.68,494.628 828.528,494.272 829.536,494.272 C830.224,494.272 830.904,494.52 831.576,495.016 L831.576,495.016 L832.128,493.432 C831.424,493.016 830.648,492.808 829.8,492.808 C828.216,492.808 826.936,493.464 825.96,494.776 L825.96,494.776 L825.96,493 L824.376,493 L824.376,505 L825.96,505 Z M839.442666,505.192 C841.330666,505.192 842.890666,504.48 844.122666,503.056 L844.122666,503.056 L844.122666,505 L845.706666,505 L845.706666,493 L844.122666,493 L844.122666,494.944 C842.906666,493.52 841.346666,492.808 839.442666,492.808 C837.730666,492.808 836.270666,493.412 835.062666,494.62 C833.854666,495.828 833.250666,497.288 833.250666,499 C833.250666,500.712 833.854666,502.172 835.062666,503.38 C836.270666,504.588 837.730666,505.192 839.442666,505.192 Z M839.466666,503.68 C838.186666,503.68 837.094666,503.228 836.190666,502.324 C835.286666,501.42 834.834666,500.312 834.834666,499 C834.834666,497.688 835.286666,496.58 836.190666,495.676 C837.094666,494.772 838.186666,494.32 839.466666,494.32 C840.762666,494.32 841.854666,494.772 842.742666,495.676 C843.630666,496.58 844.074666,497.688 844.074666,499 C844.074666,500.312 843.630666,501.42 842.742666,502.324 C841.854666,503.228 840.762666,503.68 839.466666,503.68 Z M851.341333,505 L851.341333,487.144 L849.757333,487.144 L849.757333,505 L851.341333,505 Z M856.928,505 L856.928,487.144 L855.344,487.144 L855.344,505 L856.928,505 Z M866.354667,505.072 C867.826667,505.088 869.094667,504.672 870.158667,503.824 C871.222667,502.976 871.938667,502.048 872.306667,501.04 L872.306667,501.04 L870.962667,500.56 C870.658667,501.376 870.082667,502.088 869.234667,502.696 C868.386667,503.304 867.426667,503.608 866.354667,503.608 C865.362667,503.624 864.458667,503.324 863.642667,502.708 C862.826667,502.092 862.282667,501.304 862.010667,500.344 L862.010667,500.344 L872.498667,498.448 C872.498667,498.32 872.490667,498.216 872.474667,498.136 C872.298667,496.6 871.626667,495.312 870.458667,494.272 C869.290667,493.232 867.922667,492.704 866.354667,492.688 C864.626667,492.704 863.162667,493.312 861.962667,494.512 C860.762667,495.712 860.162667,497.176 860.162667,498.904 C860.162667,499.528 860.242667,500.104 860.402667,500.632 C860.802667,501.928 861.558667,502.992 862.670667,503.824 C863.782667,504.656 865.010667,505.072 866.354667,505.072 Z M861.770667,499.048 C861.770667,498.968 861.766667,498.868 861.758667,498.748 C861.750667,498.628 861.746667,498.544 861.746667,498.496 C861.810667,497.312 862.270667,496.296 863.126667,495.448 C863.982667,494.6 865.010667,494.168 866.210667,494.152 C867.234667,494.136 868.162667,494.436 868.994667,495.052 C869.826667,495.668 870.394667,496.464 870.698667,497.44 L870.698667,497.44 L861.770667,499.048 Z M877.581333,505 L877.581333,487.144 L875.997333,487.144 L875.997333,505 L877.581333,505 Z" id="ResistorsinParallel" fill="#23ABE3" fill-rule="nonzero"></path>
        </g>
        <g transform="translate(352.000000, 16.000000)">
            <polyline id="Path-2" stroke="#524740" stroke-width="2" points="133 265 191 265 191 377 138 377"></polyline>
            <polyline id="Path-2-Copy-2" stroke="#524740" stroke-width="2" transform="translate(34.000000, 321.000000) scale(-1, 1) translate(-34.000000, -321.000000) " points="5 265 63 265 63 377 10 377"></polyline>
            <polyline id="Resistor" stroke="#524740" stroke-width="2" stroke-linejoin="bevel" points="63 265 68 265 73 252 83 278 93 252 103 278 113 252 123 278 128 265 133 265"></polyline>
            <polyline id="Path-2-Copy" stroke="#524740" stroke-width="2" points="133 153 191 153 191 265 138 265"></polyline>
            <polyline id="Path-2-Copy-3" stroke="#524740" stroke-width="2" transform="translate(34.000000, 209.000000) scale(-1, 1) translate(-34.000000, -209.000000) " points="5 153 63 153 63 265 10 265"></polyline>
            <polyline id="Resistor-Copy" stroke="#524740" stroke-width="2" stroke-linejoin="bevel" points="63 153 68 153 73 140 83 166 93 140 103 166 113 140 123 166 128 153 133 153"></polyline>
            <polyline id="Path-2-Copy-5" stroke="#524740" stroke-width="2" points="133 41 191 41 191 153 138 153"></polyline>
            <polyline id="Path-2-Copy-4" stroke="#524740" stroke-width="2" transform="translate(34.000000, 97.000000) scale(-1, 1) translate(-34.000000, -97.000000) " points="5 41 63 41 63 153 10 153"></polyline>
            <circle id="Oval-2" fill="#524740" cx="5" cy="153" r="5"></circle>
            <circle id="Oval-2-Copy-2" fill="#524740" cx="191" cy="153" r="5"></circle>
            <circle id="Oval-2-Copy-4" fill="#524740" cx="5" cy="265" r="5"></circle>
            <circle id="Oval-2-Copy-3" fill="#524740" cx="191" cy="265" r="5"></circle>
            <path d="M141.9,411.408 C141.996,410.96 142.228,410.584 142.596,410.28 C142.756,410.312 143.036,410.428 143.436,410.628 C143.836,410.828 144.284,411.008 144.78,411.168 C145.276,411.328 145.796,411.408 146.34,411.408 C147.62,411.408 148.704,411.008 149.592,410.208 C150.48,409.408 150.924,408.368 150.924,407.088 C150.924,405.504 150.084,404.288 148.404,403.44 L148.404,403.44 L146.124,402.264 C145.02,401.688 144.256,401.196 143.832,400.788 C143.408,400.38 143.196,399.88 143.196,399.288 C143.196,398.68 143.416,398.172 143.856,397.764 C144.296,397.356 144.852,397.152 145.524,397.152 C147.732,397.152 148.956,398.552 149.196,401.352 L149.196,401.352 L149.7,401.352 L149.7,396.072 L149.22,396.072 C149.124,396.504 148.892,396.872 148.524,397.176 C147.628,396.52 146.652,396.192 145.596,396.192 C144.444,396.192 143.492,396.536 142.74,397.224 C141.988,397.912 141.612,398.76 141.612,399.768 C141.612,400.632 141.868,401.408 142.38,402.096 C142.892,402.784 143.524,403.328 144.276,403.728 L144.276,403.728 L146.58,404.904 C148.42,405.864 149.34,406.832 149.34,407.808 C149.34,408.576 149.056,409.208 148.488,409.704 C147.92,410.2 147.204,410.448 146.34,410.448 C145.748,410.448 145.208,410.368 144.72,410.208 C144.232,410.048 143.84,409.848 143.544,409.608 C143.248,409.368 142.988,409.08 142.764,408.744 C142.54,408.408 142.376,408.104 142.272,407.832 C142.168,407.56 142.088,407.276 142.032,406.98 C141.976,406.684 141.944,406.484 141.936,406.38 C141.928,406.276 141.924,406.192 141.924,406.128 L141.924,406.128 L141.42,406.128 L141.42,411.408 L141.9,411.408 Z M158.1,411.408 C159.428,411.408 160.568,410.976 161.52,410.112 C162.472,409.248 162.948,408.208 162.948,406.992 C162.948,405.776 162.468,404.744 161.508,403.896 C160.564,403.032 159.428,402.6 158.1,402.6 C156.772,402.6 155.632,403.028 154.68,403.884 C153.728,404.74 153.252,405.776 153.252,406.992 C153.252,408.208 153.728,409.248 154.68,410.112 C155.632,410.976 156.772,411.408 158.1,411.408 Z M158.1,410.472 C157.156,410.472 156.436,410.144 155.94,409.488 C155.444,408.832 155.196,408 155.196,406.992 C155.196,405.984 155.444,405.152 155.94,404.496 C156.436,403.84 157.156,403.512 158.1,403.512 C159.044,403.512 159.764,403.836 160.26,404.484 C160.756,405.132 161.004,405.968 161.004,406.992 C161.004,408.016 160.756,408.856 160.26,409.512 C159.764,410.152 159.044,410.472 158.1,410.472 Z M172.956,411.408 L176.172,410.808 L176.172,410.304 C175.356,410.304 174.832,410.136 174.6,409.8 C174.368,409.464 174.252,408.696 174.252,407.496 L174.252,407.496 L174.252,403.008 L170.652,403.008 L170.652,403.488 C171.468,403.488 171.992,403.656 172.224,403.992 C172.456,404.328 172.572,405.096 172.572,406.296 L172.572,406.296 L172.572,407.88 C172.572,408.552 172.276,409.116 171.684,409.572 C171.092,410.028 170.524,410.256 169.98,410.256 C168.764,410.256 168.156,409.4 168.156,407.688 L168.156,407.688 L168.156,403.008 L164.556,403.008 L164.556,403.488 C165.356,403.488 165.872,403.656 166.104,403.992 C166.336,404.328 166.452,405.096 166.452,406.296 L166.452,406.296 L166.452,407.808 C166.452,410.208 167.444,411.408 169.428,411.408 C170.532,411.408 171.58,410.896 172.572,409.872 C172.7,410.64 172.828,411.152 172.956,411.408 L172.956,411.408 Z M183.036,411 L183.036,410.496 C182.236,410.496 181.72,410.328 181.488,409.992 C181.256,409.656 181.14,408.888 181.14,407.688 L181.14,407.688 L181.14,406.368 C181.14,405.52 181.356,404.84 181.788,404.328 C182.22,403.816 182.62,403.56 182.988,403.56 C183.5,403.56 183.756,403.824 183.756,404.352 C183.756,404.576 183.84,404.776 184.008,404.952 C184.176,405.128 184.372,405.216 184.596,405.216 C185.236,405.216 185.556,404.84 185.556,404.088 C185.556,403.736 185.392,403.4 185.064,403.08 C184.736,402.76 184.268,402.6 183.66,402.6 C183.18,402.6 182.7,402.768 182.22,403.104 C181.74,403.44 181.38,403.848 181.14,404.328 C181.012,403.48 180.876,402.904 180.732,402.6 L180.732,402.6 L177.54,403.2 L177.54,403.704 C178.34,403.704 178.856,403.872 179.088,404.208 C179.32,404.544 179.436,405.304 179.436,406.488 L179.436,406.488 L179.436,407.688 C179.436,408.888 179.32,409.656 179.088,409.992 C178.856,410.328 178.34,410.496 177.54,410.496 L177.54,410.496 L177.54,411 L183.036,411 Z M191.46,411.408 C192.868,411.408 194.06,410.88 195.036,409.824 L195.036,409.824 L194.628,409.296 C193.844,410.032 192.988,410.4 192.06,410.4 C191.1,410.4 190.376,410.116 189.888,409.548 C189.4,408.98 189.156,408.2 189.156,407.208 C189.156,406.12 189.38,405.208 189.828,404.472 C190.276,403.736 190.82,403.368 191.46,403.368 C192.036,403.368 192.324,403.712 192.324,404.4 C192.324,404.672 192.416,404.9 192.6,405.084 C192.784,405.268 193.004,405.36 193.26,405.36 C193.628,405.36 193.896,405.252 194.064,405.036 C194.232,404.82 194.316,404.584 194.316,404.328 C194.316,403.848 194.076,403.44 193.596,403.104 C193.116,402.768 192.404,402.6 191.46,402.6 C190.42,402.6 189.452,403.036 188.556,403.908 C187.66,404.78 187.212,405.88 187.212,407.208 C187.212,408.44 187.592,409.448 188.352,410.232 C189.112,411.016 190.148,411.408 191.46,411.408 Z M201.084,411.408 C201.756,411.408 202.428,411.26 203.1,410.964 C203.772,410.668 204.324,410.288 204.756,409.824 L204.756,409.824 L204.324,409.296 C203.988,409.616 203.564,409.88 203.052,410.088 C202.54,410.296 202.084,410.4 201.684,410.4 C200.5,410.4 199.648,410.028 199.128,409.284 C198.608,408.54 198.42,407.576 198.564,406.392 L198.564,406.392 L204.348,406.392 C204.636,405.384 204.436,404.5 203.748,403.74 C203.06,402.98 202.172,402.6 201.084,402.6 C199.932,402.6 198.904,403.024 198,403.872 C197.096,404.72 196.644,405.76 196.644,406.992 C196.644,408.224 197.06,409.268 197.892,410.124 C198.724,410.98 199.788,411.408 201.084,411.408 Z M202.692,405.504 L198.708,405.504 C198.884,404.912 199.176,404.44 199.584,404.088 C199.992,403.736 200.452,403.56 200.964,403.56 C201.684,403.56 202.192,403.772 202.488,404.196 C202.784,404.62 202.852,405.056 202.692,405.504 L202.692,405.504 Z M218.772,411.408 L224.052,399.192 C224.452,398.264 224.792,397.684 225.072,397.452 C225.352,397.22 225.964,397.104 226.908,397.104 L226.908,397.104 L226.908,396.6 L221.316,396.6 L221.316,397.104 C222.308,397.104 222.944,397.244 223.224,397.524 C223.504,397.804 223.492,398.272 223.188,398.928 L223.188,398.928 L219.156,408.264 L215.076,398.928 C214.772,398.272 214.76,397.804 215.04,397.524 C215.32,397.244 215.956,397.104 216.948,397.104 L216.948,397.104 L216.948,396.6 L210.3,396.6 L210.3,397.104 C211.244,397.104 211.856,397.22 212.136,397.452 C212.416,397.684 212.756,398.264 213.156,399.192 L213.156,399.192 L218.46,411.408 L218.772,411.408 Z M232.02,411.408 C233.348,411.408 234.488,410.976 235.44,410.112 C236.392,409.248 236.868,408.208 236.868,406.992 C236.868,405.776 236.388,404.744 235.428,403.896 C234.484,403.032 233.348,402.6 232.02,402.6 C230.692,402.6 229.552,403.028 228.6,403.884 C227.648,404.74 227.172,405.776 227.172,406.992 C227.172,408.208 227.648,409.248 228.6,410.112 C229.552,410.976 230.692,411.408 232.02,411.408 Z M232.02,410.472 C231.076,410.472 230.356,410.144 229.86,409.488 C229.364,408.832 229.116,408 229.116,406.992 C229.116,405.984 229.364,405.152 229.86,404.496 C230.356,403.84 231.076,403.512 232.02,403.512 C232.964,403.512 233.684,403.836 234.18,404.484 C234.676,405.132 234.924,405.968 234.924,406.992 C234.924,408.016 234.676,408.856 234.18,409.512 C233.684,410.152 232.964,410.472 232.02,410.472 Z M243.972,411 L243.972,410.496 C243.172,410.496 242.656,410.328 242.424,409.992 C242.192,409.656 242.076,408.888 242.076,407.688 L242.076,407.688 L242.076,396.192 L238.476,396.792 L238.476,397.296 C239.276,397.296 239.792,397.464 240.024,397.8 C240.256,398.136 240.372,398.904 240.372,400.104 L240.372,400.104 L240.372,407.688 C240.372,408.888 240.256,409.656 240.024,409.992 C239.792,410.328 239.276,410.496 238.476,410.496 L238.476,410.496 L238.476,411 L243.972,411 Z M248.604,411.336 C249.004,411.336 249.44,411.208 249.912,410.952 C250.384,410.696 250.788,410.368 251.124,409.968 L251.124,409.968 L250.716,409.56 C250.14,410.104 249.62,410.376 249.156,410.376 C248.436,410.376 248.076,409.8 248.076,408.648 L248.076,408.648 L248.076,403.848 L250.164,403.848 L250.164,403.008 L248.076,403.008 L248.076,400.368 L247.26,400.368 C247.164,401.2 246.956,401.856 246.636,402.336 C246.316,402.816 245.812,403.128 245.124,403.272 L245.124,403.272 L245.124,403.848 L246.372,403.848 L246.372,408.648 C246.372,409.544 246.572,410.216 246.972,410.664 C247.372,411.112 247.916,411.336 248.604,411.336 Z M254.604,411.312 C255.532,411.312 256.532,410.832 257.604,409.872 C257.732,410.8 258.276,411.264 259.236,411.264 C259.828,411.264 260.356,411.016 260.82,410.52 L260.82,410.52 L260.484,410.064 C260.244,410.304 260.02,410.424 259.812,410.424 C259.444,410.424 259.26,410.112 259.26,409.488 L259.26,409.488 L259.26,405.864 C259.26,404.712 259.004,403.88 258.492,403.368 C257.98,402.856 257.14,402.6 255.972,402.6 C255.172,402.6 254.464,402.78 253.848,403.14 C253.232,403.5 252.924,403.96 252.924,404.52 C252.924,404.76 253.004,404.96 253.164,405.12 C253.324,405.28 253.524,405.36 253.764,405.36 C253.988,405.36 254.18,405.28 254.34,405.12 C254.5,404.96 254.58,404.76 254.58,404.52 C254.58,404.168 254.728,403.888 255.024,403.68 C255.32,403.472 255.628,403.368 255.948,403.368 C256.604,403.368 257.036,403.552 257.244,403.92 C257.452,404.288 257.556,404.944 257.556,405.888 C254.148,406.48 252.444,407.616 252.444,409.296 C252.444,409.92 252.652,410.412 253.068,410.772 C253.484,411.132 253.996,411.312 254.604,411.312 Z M255.372,410.232 C255.052,410.232 254.784,410.12 254.568,409.896 C254.352,409.672 254.244,409.376 254.244,409.008 C254.244,407.936 255.348,407.144 257.556,406.632 L257.556,406.632 L257.556,409.08 C256.692,409.848 255.964,410.232 255.372,410.232 Z M265.86,417.408 C267.076,417.408 268.088,417.116 268.896,416.532 C269.704,415.948 270.108,415.168 270.108,414.192 C270.108,413.376 269.764,412.68 269.076,412.104 C268.388,411.528 267.276,411.176 265.74,411.048 C264.284,410.92 263.556,410.616 263.556,410.136 C263.556,409.672 264.452,409.336 266.244,409.128 C267.076,409.016 267.804,408.656 268.428,408.048 C269.052,407.44 269.364,406.712 269.364,405.864 C269.364,405.128 269.132,404.48 268.668,403.92 C268.924,403.664 269.172,403.536 269.412,403.536 C269.636,403.536 269.8,403.596 269.904,403.716 C270.008,403.836 270.072,403.964 270.096,404.1 L270.123,404.19975 C270.159,404.29725 270.222,404.388 270.312,404.472 C270.432,404.584 270.612,404.632 270.852,404.616 C270.98,404.616 271.092,404.576 271.188,404.496 C271.476,404.272 271.548,403.936 271.404,403.488 C271.212,402.896 270.764,402.6 270.06,402.6 C269.788,402.6 269.472,402.688 269.112,402.864 C268.752,403.04 268.468,403.256 268.26,403.512 C267.572,402.904 266.748,402.6 265.788,402.6 C264.796,402.6 263.952,402.92 263.256,403.56 C262.56,404.2 262.212,404.968 262.212,405.864 C262.212,406.504 262.392,407.08 262.752,407.592 C263.112,408.104 263.604,408.504 264.228,408.792 C262.884,409.208 262.212,409.848 262.212,410.712 C262.212,411.976 263.348,412.72 265.62,412.944 C266.724,413.056 267.536,413.232 268.056,413.472 C268.576,413.712 268.836,414.096 268.836,414.624 C268.836,415.168 268.536,415.612 267.936,415.956 C267.336,416.3 266.644,416.472 265.86,416.472 C265.364,416.472 264.888,416.4 264.432,416.256 C263.976,416.112 263.592,415.912 263.28,415.656 C262.968,415.4 262.828,415.052 262.86,414.612 C262.892,414.172 263.14,413.688 263.604,413.16 L263.604,413.16 L263.172,412.896 C262.212,413.392 261.7,414 261.636,414.72 C261.572,415.44 261.936,416.068 262.728,416.604 C263.52,417.14 264.564,417.408 265.86,417.408 Z M265.788,408.336 C265.228,408.336 264.796,408.108 264.492,407.652 C264.188,407.196 264.036,406.6 264.036,405.864 C264.036,405.128 264.188,404.528 264.492,404.064 C264.796,403.6 265.228,403.368 265.788,403.368 C266.348,403.368 266.776,403.6 267.072,404.064 C267.368,404.528 267.516,405.128 267.516,405.864 C267.516,406.6 267.364,407.2 267.06,407.664 C266.772,408.112 266.348,408.336 265.788,408.336 Z M276.948,411.408 C277.62,411.408 278.292,411.26 278.964,410.964 C279.636,410.668 280.188,410.288 280.62,409.824 L280.62,409.824 L280.188,409.296 C279.852,409.616 279.428,409.88 278.916,410.088 C278.404,410.296 277.948,410.4 277.548,410.4 C276.364,410.4 275.512,410.028 274.992,409.284 C274.472,408.54 274.284,407.576 274.428,406.392 L274.428,406.392 L280.212,406.392 C280.5,405.384 280.3,404.5 279.612,403.74 C278.924,402.98 278.036,402.6 276.948,402.6 C275.796,402.6 274.768,403.024 273.864,403.872 C272.96,404.72 272.508,405.76 272.508,406.992 C272.508,408.224 272.924,409.268 273.756,410.124 C274.588,410.98 275.652,411.408 276.948,411.408 Z M278.556,405.504 L274.572,405.504 C274.748,404.912 275.04,404.44 275.448,404.088 C275.856,403.736 276.316,403.56 276.828,403.56 C277.548,403.56 278.056,403.772 278.352,404.196 C278.648,404.62 278.716,405.056 278.556,405.504 L278.556,405.504 Z M294.468,413.664 L294.996,413.16 C294.484,412.584 294.06,412.084 293.724,411.66 C293.388,411.236 292.952,410.604 292.416,409.764 C291.88,408.924 291.468,408.008 291.18,407.016 C290.892,406.024 290.748,404.992 290.748,403.92 C290.748,402.848 290.892,401.816 291.18,400.824 C291.468,399.832 291.88,398.916 292.416,398.076 C292.952,397.236 293.388,396.604 293.724,396.18 C294.06,395.756 294.484,395.256 294.996,394.68 L294.996,394.68 L294.444,394.176 C290.86,397.136 289.068,400.384 289.068,403.92 C289.068,407.472 290.868,410.72 294.468,413.664 L294.468,413.664 Z M303.228,411.408 L308.508,399.192 C308.908,398.264 309.248,397.684 309.528,397.452 C309.808,397.22 310.42,397.104 311.364,397.104 L311.364,397.104 L311.364,396.6 L305.772,396.6 L305.772,397.104 C306.764,397.104 307.4,397.244 307.68,397.524 C307.96,397.804 307.948,398.272 307.644,398.928 L307.644,398.928 L303.612,408.264 L299.532,398.928 C299.228,398.272 299.216,397.804 299.496,397.524 C299.776,397.244 300.412,397.104 301.404,397.104 L301.404,397.104 L301.404,396.6 L294.756,396.6 L294.756,397.104 C295.7,397.104 296.312,397.22 296.592,397.452 C296.872,397.684 297.212,398.264 297.612,399.192 L297.612,399.192 L302.916,411.408 L303.228,411.408 Z M311.7,413.664 C315.284,410.736 317.076,407.488 317.076,403.92 C317.076,400.368 315.292,397.12 311.724,394.176 L311.724,394.176 L311.148,394.68 C311.676,395.272 312.104,395.776 312.432,396.192 C312.76,396.608 313.196,397.236 313.74,398.076 C314.284,398.916 314.7,399.832 314.988,400.824 C315.276,401.816 315.42,402.848 315.42,403.92 C315.42,404.992 315.276,406.024 314.988,407.016 C314.7,408.008 314.284,408.924 313.74,409.764 C313.196,410.604 312.76,411.232 312.432,411.648 C312.104,412.064 311.676,412.568 311.148,413.16 L311.148,413.16 L311.7,413.664 Z" id="SourceVoltage(V)" fill="#524740" fill-rule="nonzero"></path>
            <path d="M93.356,241 L93.356,240.496 C92.364,240.496 91.736,240.328 91.472,239.992 C91.208,239.656 91.076,238.888 91.076,237.688 L91.076,237.688 L91.076,234.688 L92.204,234.688 L96.956,241 L100.916,241 L100.916,240.496 C99.508,240.336 98.02,239.32 96.452,237.448 L96.452,237.448 L94.1,234.688 C95.428,234.544 96.472,234.104 97.232,233.368 C97.992,232.632 98.372,231.728 98.372,230.656 C98.372,229.488 97.916,228.52 97.004,227.752 C96.092,226.984 94.828,226.6 93.212,226.6 L93.212,226.6 L86.876,226.6 L86.876,227.104 C87.868,227.104 88.496,227.268 88.76,227.596 C89.024,227.924 89.156,228.688 89.156,229.888 L89.156,229.888 L89.156,237.688 C89.156,238.888 89.024,239.656 88.76,239.992 C88.496,240.328 87.868,240.496 86.876,240.496 L86.876,240.496 L86.876,241 L93.356,241 Z M93.188,233.824 L91.076,233.824 L91.076,227.488 L93.188,227.488 C94.18,227.488 94.936,227.784 95.456,228.376 C95.976,228.968 96.236,229.728 96.236,230.656 C96.236,231.584 95.976,232.344 95.456,232.936 C94.936,233.528 94.18,233.824 93.188,233.824 L93.188,233.824 Z M106.82,245.488 C108.164,245.488 109.296,245.096 110.216,244.312 C111.136,243.528 111.596,242.584 111.596,241.48 C111.596,240.552 111.26,239.736 110.588,239.032 C109.916,238.328 109.004,237.856 107.852,237.616 L107.852,237.616 L108.956,236.776 L109.196,236.632 C109.34,236.52 109.52,236.356 109.736,236.14 C109.952,235.924 110.168,235.688 110.384,235.432 C110.6,235.176 110.784,234.864 110.936,234.496 C111.088,234.128 111.164,233.768 111.164,233.416 C111.164,232.456 110.708,231.68 109.796,231.088 C108.884,230.496 107.812,230.2 106.58,230.2 C105.252,230.2 104.188,230.524 103.388,231.172 C102.588,231.82 102.224,232.572 102.296,233.428 C102.368,234.284 102.868,234.992 103.796,235.552 L103.796,235.552 L104.516,234.808 C103.94,233.816 103.932,232.968 104.492,232.264 C105.052,231.56 105.748,231.208 106.58,231.208 C107.364,231.208 107.996,231.408 108.476,231.808 C108.956,232.208 109.196,232.744 109.196,233.416 C109.196,234.008 109.048,234.58 108.752,235.132 C108.456,235.684 108.076,236.136 107.612,236.488 L107.612,236.488 L105.836,237.904 C105.42,238.208 105.212,238.504 105.212,238.792 C105.212,238.952 105.264,239.084 105.368,239.188 C105.472,239.292 105.588,239.344 105.716,239.344 C105.86,239.344 106.004,239.284 106.148,239.164 C106.292,239.044 106.448,238.884 106.616,238.684 C106.784,238.484 106.924,238.336 107.036,238.24 C107.868,238.416 108.48,238.808 108.872,239.416 C109.264,240.024 109.46,240.712 109.46,241.48 C109.46,242.408 109.224,243.156 108.752,243.724 C108.28,244.292 107.572,244.576 106.628,244.576 C105.652,244.576 104.868,244.264 104.276,243.64 C104.132,243.496 103.984,243.296 103.832,243.04 C103.68,242.784 103.544,242.584 103.424,242.44 C103.304,242.296 103.164,242.224 103.004,242.224 C102.588,242.224 102.38,242.408 102.38,242.776 C102.38,243.336 102.796,243.928 103.628,244.552 C104.46,245.176 105.524,245.488 106.82,245.488 Z" id="R3" fill="#524740" fill-rule="nonzero"></path>
            <path d="M93.212,129 L93.212,128.496 C92.22,128.496 91.592,128.328 91.328,127.992 C91.064,127.656 90.932,126.888 90.932,125.688 L90.932,125.688 L90.932,122.688 L92.06,122.688 L96.812,129 L100.772,129 L100.772,128.496 C99.364,128.336 97.876,127.32 96.308,125.448 L96.308,125.448 L93.956,122.688 C95.284,122.544 96.328,122.104 97.088,121.368 C97.848,120.632 98.228,119.728 98.228,118.656 C98.228,117.488 97.772,116.52 96.86,115.752 C95.948,114.984 94.684,114.6 93.068,114.6 L93.068,114.6 L86.732,114.6 L86.732,115.104 C87.724,115.104 88.352,115.268 88.616,115.596 C88.88,115.924 89.012,116.688 89.012,117.888 L89.012,117.888 L89.012,125.688 C89.012,126.888 88.88,127.656 88.616,127.992 C88.352,128.328 87.724,128.496 86.732,128.496 L86.732,128.496 L86.732,129 L93.212,129 Z M93.044,121.824 L90.932,121.824 L90.932,115.488 L93.044,115.488 C94.036,115.488 94.792,115.784 95.312,116.376 C95.832,116.968 96.092,117.728 96.092,118.656 C96.092,119.584 95.832,120.344 95.312,120.936 C94.792,121.528 94.036,121.824 93.044,121.824 L93.044,121.824 Z M110.732,130.896 L111.332,127.608 L105.116,127.608 L108.812,124.776 L109.052,124.632 C109.196,124.52 109.376,124.356 109.592,124.14 C109.808,123.924 110.024,123.688 110.24,123.432 C110.456,123.176 110.64,122.864 110.792,122.496 C110.944,122.128 111.02,121.768 111.02,121.416 C111.02,120.456 110.564,119.68 109.652,119.088 C108.74,118.496 107.668,118.2 106.436,118.2 C105.108,118.2 104.044,118.524 103.244,119.172 C102.444,119.82 102.08,120.572 102.152,121.428 C102.224,122.284 102.724,122.992 103.652,123.552 L103.652,123.552 L104.372,122.808 C103.844,121.816 103.828,120.968 104.324,120.264 C104.82,119.56 105.524,119.208 106.436,119.208 C107.22,119.208 107.848,119.408 108.32,119.808 C108.792,120.208 109.028,120.752 109.028,121.44 C109.028,122.656 108.26,123.872 106.724,125.088 L106.724,125.088 L102.476,128.424 L102.476,129 L107.42,129 C108.62,129 109.388,129.116 109.724,129.348 C110.06,129.58 110.228,130.096 110.228,130.896 L110.228,130.896 L110.732,130.896 Z" id="R2" fill="#524740" fill-rule="nonzero"></path>
            <path d="M95.096,17 L95.096,16.496 C94.104,16.496 93.476,16.328 93.212,15.992 C92.948,15.656 92.816,14.888 92.816,13.688 L92.816,13.688 L92.816,10.688 L93.944,10.688 L98.696,17 L102.656,17 L102.656,16.496 C101.248,16.336 99.76,15.32 98.192,13.448 L98.192,13.448 L95.84,10.688 C97.168,10.544 98.212,10.104 98.972,9.368 C99.732,8.632 100.112,7.728 100.112,6.656 C100.112,5.488 99.656,4.52 98.744,3.752 C97.832,2.984 96.568,2.6 94.952,2.6 L94.952,2.6 L88.616,2.6 L88.616,3.104 C89.608,3.104 90.236,3.268 90.5,3.596 C90.764,3.924 90.896,4.688 90.896,5.888 L90.896,5.888 L90.896,13.688 C90.896,14.888 90.764,15.656 90.5,15.992 C90.236,16.328 89.608,16.496 88.616,16.496 L88.616,16.496 L88.616,17 L95.096,17 Z M94.928,9.824 L92.816,9.824 L92.816,3.488 L94.928,3.488 C95.92,3.488 96.676,3.784 97.196,4.376 C97.716,4.968 97.976,5.728 97.976,6.656 C97.976,7.584 97.716,8.344 97.196,8.936 C96.676,9.528 95.92,9.824 94.928,9.824 L94.928,9.824 Z M110.096,17 L110.096,16.496 C109.088,16.496 108.452,16.332 108.188,16.004 C107.924,15.676 107.792,14.904 107.792,13.688 L107.792,13.688 L107.792,9.896 C107.792,8.68 107.924,7.908 108.188,7.58 C108.452,7.252 109.088,7.088 110.096,7.088 L110.096,7.088 L110.096,6.608 L103.784,6.608 L103.784,7.088 C104.776,7.088 105.408,7.256 105.68,7.592 C105.952,7.928 106.088,8.696 106.088,9.896 L106.088,9.896 L106.088,13.688 C106.088,14.888 105.952,15.656 105.68,15.992 C105.408,16.328 104.776,16.496 103.784,16.496 L103.784,16.496 L103.784,17 L110.096,17 Z" id="R1" fill="#524740" fill-rule="nonzero"></path>
            <polyline id="Resistor-Copy-2" stroke="#524740" stroke-width="2" stroke-linejoin="bevel" points="63 41 68 41 73 28 83 54 93 28 103 54 113 28 123 54 128 41 133 41"></polyline>
            <g id="DC_Power" transform="translate(58.000000, 337.000000)">
                <circle id="Oval" stroke="#524740" stroke-width="2" cx="40" cy="40" r="39"></circle>
                <text id="+" font-family="Lato-Regular, Lato" font-size="18" font-weight="normal" letter-spacing="0.8999999" fill="#524740">
                    <tspan x="58.3300001" y="47">+</tspan>
                </text>
                <text id="-" font-family="Lato-Regular, Lato" font-size="18" font-weight="normal" letter-spacing="0.8999999" fill="#524740">
                    <tspan x="13.2065" y="46.5">-</tspan>
                </text>
            </g>
        </g>
    </g>
</svg>