<?xml version="1.0" encoding="UTF-8"?>
<svg width="900px" height="290px" viewBox="0 0 900 290" version="1.1" xmlns="http://www.w3.org/2000/svg" xmlns:xlink="http://www.w3.org/1999/xlink">
    <!-- Generator: Sketch 60.1 (88133) - https://sketch.com -->
    <title>Resistor_Valve</title>
    <desc>Created with Sketch.</desc>
    <g id="Resistor_Valve" stroke="none" stroke-width="1" fill="none" fill-rule="evenodd">
        <g id="Illustration_Frame">
            <rect id="Rectangle" stroke="#3D3530" stroke-width="2" fill="#EEEEEE" x="1" y="1" width="898" height="288"></rect>
            <rect id="Rectangle-Copy" stroke="#3D3530" stroke-width="2" fill="#F8FAE4" x="1" y="246" width="898" height="43"></rect>
            <text id="Illustration-Title" font-family="Wavehaus-66Book, Wavehaus" font-size="24" font-weight="300" letter-spacing="0.6666667" fill="#23ABE3">
                <tspan x="600.954666" y="275">Water Valve as Resistor</tspan>
            </text>
            <path d="M609.042666,275 L613.818666,261.032 L618.570666,275 L620.202666,275 L625.770666,258.872 L624.138666,258.872 L619.386666,272.552 L614.538666,258.872 L613.074666,258.872 L608.250666,272.552 L603.474666,258.872 L601.842666,258.872 L607.434666,275 L609.042666,275 Z M632.077333,275.192 C633.965333,275.192 635.525333,274.48 636.757333,273.056 L636.757333,273.056 L636.757333,275 L638.341333,275 L638.341333,263 L636.757333,263 L636.757333,264.944 C635.541333,263.52 633.981333,262.808 632.077333,262.808 C630.365333,262.808 628.905333,263.412 627.697333,264.62 C626.489333,265.828 625.885333,267.288 625.885333,269 C625.885333,270.712 626.489333,272.172 627.697333,273.38 C628.905333,274.588 630.365333,275.192 632.077333,275.192 Z M632.101333,273.68 C630.821333,273.68 629.729333,273.228 628.825333,272.324 C627.921333,271.42 627.469333,270.312 627.469333,269 C627.469333,267.688 627.921333,266.58 628.825333,265.676 C629.729333,264.772 630.821333,264.32 632.101333,264.32 C633.397333,264.32 634.489333,264.772 635.377333,265.676 C636.265333,266.58 636.709333,267.688 636.709333,269 C636.709333,270.312 636.265333,271.42 635.377333,272.324 C634.489333,273.228 633.397333,273.68 632.101333,273.68 Z M646.423999,275.192 C647.015999,275.192 647.591999,275.036 648.151999,274.724 C648.711999,274.412 649.071999,274.168 649.231999,273.992 C649.391999,273.816 649.519999,273.664 649.615999,273.536 L649.615999,273.536 L648.823999,272.312 C648.823999,272.376 648.739999,272.516 648.571999,272.732 C648.403999,272.948 648.143999,273.168 647.791999,273.392 C647.439999,273.616 647.079999,273.728 646.711999,273.728 C646.119999,273.728 645.595999,273.512 645.139999,273.08 C644.683999,272.648 644.455999,272.064 644.455999,271.328 L644.455999,271.328 L644.455999,264.44 L648.079999,264.44 L648.079999,262.976 L644.455999,262.976 L644.455999,258.992 L642.871999,259.184 L642.871999,262.976 L640.951999,262.976 L640.951999,264.44 L642.871999,264.44 L642.871999,271.688 C642.871999,272.824 643.211999,273.692 643.891999,274.292 C644.571999,274.892 645.415999,275.192 646.423999,275.192 Z M657.266666,275.072 C658.738666,275.088 660.006666,274.672 661.070666,273.824 C662.134666,272.976 662.850666,272.048 663.218666,271.04 L663.218666,271.04 L661.874666,270.56 C661.570666,271.376 660.994666,272.088 660.146666,272.696 C659.298666,273.304 658.338666,273.608 657.266666,273.608 C656.274666,273.624 655.370666,273.324 654.554666,272.708 C653.738666,272.092 653.194666,271.304 652.922666,270.344 L652.922666,270.344 L663.410666,268.448 C663.410666,268.32 663.402666,268.216 663.386666,268.136 C663.210666,266.6 662.538666,265.312 661.370666,264.272 C660.202666,263.232 658.834666,262.704 657.266666,262.688 C655.538666,262.704 654.074666,263.312 652.874666,264.512 C651.674666,265.712 651.074666,267.176 651.074666,268.904 C651.074666,269.528 651.154666,270.104 651.314666,270.632 C651.714666,271.928 652.470666,272.992 653.582666,273.824 C654.694666,274.656 655.922666,275.072 657.266666,275.072 Z M652.682666,269.048 C652.682666,268.968 652.678666,268.868 652.670666,268.748 C652.662666,268.628 652.658666,268.544 652.658666,268.496 C652.722666,267.312 653.182666,266.296 654.038666,265.448 C654.894666,264.6 655.922666,264.168 657.122666,264.152 C658.146666,264.136 659.074666,264.436 659.906666,265.052 C660.738666,265.668 661.306666,266.464 661.610666,267.44 L661.610666,267.44 L652.682666,269.048 Z M667.917333,275 L667.917333,267.968 C667.917333,266.928 668.261333,266.052 668.949333,265.34 C669.637333,264.628 670.485333,264.272 671.493333,264.272 C672.181333,264.272 672.861333,264.52 673.533333,265.016 L673.533333,265.016 L674.085333,263.432 C673.381333,263.016 672.605333,262.808 671.757333,262.808 C670.173333,262.808 668.893333,263.464 667.917333,264.776 L667.917333,264.776 L667.917333,263 L666.333333,263 L666.333333,275 L667.917333,275 Z M691.186666,275 L697.546666,258.872 L695.938666,258.872 L690.394666,272.96 L684.826666,258.872 L683.194666,258.872 L689.578666,275 L691.186666,275 Z M703.877333,275.192 C705.765333,275.192 707.325333,274.48 708.557333,273.056 L708.557333,273.056 L708.557333,275 L710.141333,275 L710.141333,263 L708.557333,263 L708.557333,264.944 C707.341333,263.52 705.781333,262.808 703.877333,262.808 C702.165333,262.808 700.705333,263.412 699.497333,264.62 C698.289333,265.828 697.685333,267.288 697.685333,269 C697.685333,270.712 698.289333,272.172 699.497333,273.38 C700.705333,274.588 702.165333,275.192 703.877333,275.192 Z M703.901333,273.68 C702.621333,273.68 701.529333,273.228 700.625333,272.324 C699.721333,271.42 699.269333,270.312 699.269333,269 C699.269333,267.688 699.721333,266.58 700.625333,265.676 C701.529333,264.772 702.621333,264.32 703.901333,264.32 C705.197333,264.32 706.289333,264.772 707.177333,265.676 C708.065333,266.58 708.509333,267.688 708.509333,269 C708.509333,270.312 708.065333,271.42 707.177333,272.324 C706.289333,273.228 705.197333,273.68 703.901333,273.68 Z M715.775999,275 L715.775999,257.144 L714.191999,257.144 L714.191999,275 L715.775999,275 Z M724.746666,275 L728.994666,263 L727.410666,263 L723.954666,272.768 L720.522666,263 L718.938666,263 L723.162666,275 L724.746666,275 Z M736.669333,275.072 C738.141333,275.088 739.409333,274.672 740.473333,273.824 C741.537333,272.976 742.253333,272.048 742.621333,271.04 L742.621333,271.04 L741.277333,270.56 C740.973333,271.376 740.397333,272.088 739.549333,272.696 C738.701333,273.304 737.741333,273.608 736.669333,273.608 C735.677333,273.624 734.773333,273.324 733.957333,272.708 C733.141333,272.092 732.597333,271.304 732.325333,270.344 L732.325333,270.344 L742.813333,268.448 C742.813333,268.32 742.805333,268.216 742.789333,268.136 C742.613333,266.6 741.941333,265.312 740.773333,264.272 C739.605333,263.232 738.237333,262.704 736.669333,262.688 C734.941333,262.704 733.477333,263.312 732.277333,264.512 C731.077333,265.712 730.477333,267.176 730.477333,268.904 C730.477333,269.528 730.557333,270.104 730.717333,270.632 C731.117333,271.928 731.873333,272.992 732.985333,273.824 C734.097333,274.656 735.325333,275.072 736.669333,275.072 Z M732.085333,269.048 C732.085333,268.968 732.081333,268.868 732.073333,268.748 C732.065333,268.628 732.061333,268.544 732.061333,268.496 C732.125333,267.312 732.585333,266.296 733.441333,265.448 C734.297333,264.6 735.325333,264.168 736.525333,264.152 C737.549333,264.136 738.477333,264.436 739.309333,265.052 C740.141333,265.668 740.709333,266.464 741.013333,267.44 L741.013333,267.44 L732.085333,269.048 Z M759.122666,275.192 C761.010666,275.192 762.570666,274.48 763.802666,273.056 L763.802666,273.056 L763.802666,275 L765.386666,275 L765.386666,263 L763.802666,263 L763.802666,264.944 C762.586666,263.52 761.026666,262.808 759.122666,262.808 C757.410666,262.808 755.950666,263.412 754.742666,264.62 C753.534666,265.828 752.930666,267.288 752.930666,269 C752.930666,270.712 753.534666,272.172 754.742666,273.38 C755.950666,274.588 757.410666,275.192 759.122666,275.192 Z M759.146666,273.68 C757.866666,273.68 756.774666,273.228 755.870666,272.324 C754.966666,271.42 754.514666,270.312 754.514666,269 C754.514666,267.688 754.966666,266.58 755.870666,265.676 C756.774666,264.772 757.866666,264.32 759.146666,264.32 C760.442666,264.32 761.534666,264.772 762.422666,265.676 C763.310666,266.58 763.754666,267.688 763.754666,269 C763.754666,270.312 763.310666,271.42 762.422666,272.324 C761.534666,273.228 760.442666,273.68 759.146666,273.68 Z M773.493333,275.192 C774.965333,275.192 776.069333,274.88 776.805333,274.256 C777.541333,273.632 777.909333,272.816 777.909333,271.808 C777.909333,271.088 777.645333,270.476 777.117333,269.972 C776.589333,269.468 775.945333,269.084 775.185333,268.82 C774.425333,268.556 773.669333,268.312 772.917333,268.088 C772.165333,267.864 771.525333,267.596 770.997333,267.284 C770.469333,266.972 770.205333,266.6 770.205333,266.168 C770.205333,265.56 770.473333,265.088 771.009333,264.752 C771.545333,264.416 772.245333,264.248 773.109333,264.248 C773.717333,264.248 774.325333,264.384 774.933333,264.656 C775.541333,264.928 775.945333,265.144 776.145333,265.304 C776.345333,265.464 776.501333,265.6 776.613333,265.712 L776.613333,265.712 L777.741333,264.728 L777.237333,264.248 C776.901333,263.928 776.349333,263.608 775.581333,263.288 C774.813333,262.968 773.997333,262.808 773.133333,262.808 C771.677333,262.808 770.577333,263.124 769.833333,263.756 C769.089333,264.388 768.717333,265.2 768.717333,266.192 C768.717333,266.912 768.981333,267.52 769.509333,268.016 C770.037333,268.512 770.681333,268.896 771.441333,269.168 C772.201333,269.44 772.957333,269.688 773.709333,269.912 C774.461333,270.136 775.101333,270.404 775.629333,270.716 C776.157333,271.028 776.421333,271.4 776.421333,271.832 C776.421333,272.44 776.157333,272.912 775.629333,273.248 C775.101333,273.584 774.397333,273.752 773.517333,273.752 C772.925333,273.752 772.325333,273.616 771.717333,273.344 C771.109333,273.072 770.705333,272.856 770.505333,272.696 C770.305333,272.536 770.149333,272.4 770.037333,272.288 L770.037333,272.288 L768.909333,273.248 L769.101333,273.464 C769.229333,273.592 769.429333,273.752 769.701333,273.944 C769.973333,274.136 770.281333,274.324 770.625333,274.508 C770.969333,274.692 771.397333,274.852 771.909333,274.988 C772.421333,275.124 772.949333,275.192 773.493333,275.192 Z M790.066666,275 L790.066666,268.904 L793.810666,268.904 L794.794666,268.856 L798.226666,275 L799.882666,275 L796.282666,268.52 C797.418666,268.168 798.302666,267.576 798.934666,266.744 C799.566666,265.912 799.882666,264.96 799.882666,263.888 C799.882666,262.448 799.346666,261.252 798.274666,260.3 C797.202666,259.348 795.762666,258.872 793.954666,258.872 L793.954666,258.872 L788.482666,258.872 L788.482666,275 L790.066666,275 Z M793.954666,267.392 L790.066666,267.392 L790.066666,260.384 L793.954666,260.384 C795.250666,260.384 796.290666,260.72 797.074666,261.392 C797.858666,262.064 798.250666,262.896 798.250666,263.888 C798.250666,264.896 797.858666,265.732 797.074666,266.396 C796.290666,267.06 795.250666,267.392 793.954666,267.392 L793.954666,267.392 Z M808.325333,275.072 C809.797333,275.088 811.065333,274.672 812.129333,273.824 C813.193333,272.976 813.909333,272.048 814.277333,271.04 L814.277333,271.04 L812.933333,270.56 C812.629333,271.376 812.053333,272.088 811.205333,272.696 C810.357333,273.304 809.397333,273.608 808.325333,273.608 C807.333333,273.624 806.429333,273.324 805.613333,272.708 C804.797333,272.092 804.253333,271.304 803.981333,270.344 L803.981333,270.344 L814.469333,268.448 C814.469333,268.32 814.461333,268.216 814.445333,268.136 C814.269333,266.6 813.597333,265.312 812.429333,264.272 C811.261333,263.232 809.893333,262.704 808.325333,262.688 C806.597333,262.704 805.133333,263.312 803.933333,264.512 C802.733333,265.712 802.133333,267.176 802.133333,268.904 C802.133333,269.528 802.213333,270.104 802.373333,270.632 C802.773333,271.928 803.529333,272.992 804.641333,273.824 C805.753333,274.656 806.981333,275.072 808.325333,275.072 Z M803.741333,269.048 C803.741333,268.968 803.737333,268.868 803.729333,268.748 C803.721333,268.628 803.717333,268.544 803.717333,268.496 C803.781333,267.312 804.241333,266.296 805.097333,265.448 C805.953333,264.6 806.981333,264.168 808.181333,264.152 C809.205333,264.136 810.133333,264.436 810.965333,265.052 C811.797333,265.668 812.365333,266.464 812.669333,267.44 L812.669333,267.44 L803.741333,269.048 Z M821.592,275.192 C823.064,275.192 824.168,274.88 824.904,274.256 C825.64,273.632 826.008,272.816 826.008,271.808 C826.008,271.088 825.744,270.476 825.216,269.972 C824.688,269.468 824.044,269.084 823.284,268.82 C822.524,268.556 821.768,268.312 821.016,268.088 C820.264,267.864 819.624,267.596 819.096,267.284 C818.568,266.972 818.304,266.6 818.304,266.168 C818.304,265.56 818.572,265.088 819.108,264.752 C819.644,264.416 820.344,264.248 821.208,264.248 C821.816,264.248 822.424,264.384 823.032,264.656 C823.64,264.928 824.044,265.144 824.244,265.304 C824.444,265.464 824.6,265.6 824.712,265.712 L824.712,265.712 L825.84,264.728 L825.336,264.248 C825,263.928 824.448,263.608 823.68,263.288 C822.912,262.968 822.096,262.808 821.232,262.808 C819.776,262.808 818.676,263.124 817.932,263.756 C817.188,264.388 816.816,265.2 816.816,266.192 C816.816,266.912 817.08,267.52 817.608,268.016 C818.136,268.512 818.78,268.896 819.54,269.168 C820.3,269.44 821.056,269.688 821.808,269.912 C822.56,270.136 823.2,270.404 823.728,270.716 C824.256,271.028 824.52,271.4 824.52,271.832 C824.52,272.44 824.256,272.912 823.728,273.248 C823.2,273.584 822.496,273.752 821.616,273.752 C821.024,273.752 820.424,273.616 819.816,273.344 C819.208,273.072 818.804,272.856 818.604,272.696 C818.404,272.536 818.248,272.4 818.136,272.288 L818.136,272.288 L817.008,273.248 L817.2,273.464 C817.328,273.592 817.528,273.752 817.8,273.944 C818.072,274.136 818.38,274.324 818.724,274.508 C819.068,274.692 819.496,274.852 820.008,274.988 C820.52,275.124 821.048,275.192 821.592,275.192 Z M830.370666,259.688 C830.642666,259.688 830.866666,259.592 831.042666,259.4 C831.234666,259.208 831.330666,258.984 831.330666,258.728 C831.330666,258.472 831.238666,258.248 831.054666,258.056 C830.870666,257.864 830.642666,257.768 830.370666,257.768 C830.098666,257.768 829.870666,257.864 829.686666,258.056 C829.502666,258.248 829.410666,258.472 829.410666,258.728 C829.410666,258.984 829.502666,259.208 829.686666,259.4 C829.870666,259.592 830.098666,259.688 830.370666,259.688 Z M831.162666,275 L831.162666,263 L829.578666,263 L829.578666,275 L831.162666,275 Z M839.437333,275.192 C840.909333,275.192 842.013333,274.88 842.749333,274.256 C843.485333,273.632 843.853333,272.816 843.853333,271.808 C843.853333,271.088 843.589333,270.476 843.061333,269.972 C842.533333,269.468 841.889333,269.084 841.129333,268.82 C840.369333,268.556 839.613333,268.312 838.861333,268.088 C838.109333,267.864 837.469333,267.596 836.941333,267.284 C836.413333,266.972 836.149333,266.6 836.149333,266.168 C836.149333,265.56 836.417333,265.088 836.953333,264.752 C837.489333,264.416 838.189333,264.248 839.053333,264.248 C839.661333,264.248 840.269333,264.384 840.877333,264.656 C841.485333,264.928 841.889333,265.144 842.089333,265.304 C842.289333,265.464 842.445333,265.6 842.557333,265.712 L842.557333,265.712 L843.685333,264.728 L843.181333,264.248 C842.845333,263.928 842.293333,263.608 841.525333,263.288 C840.757333,262.968 839.941333,262.808 839.077333,262.808 C837.621333,262.808 836.521333,263.124 835.777333,263.756 C835.033333,264.388 834.661333,265.2 834.661333,266.192 C834.661333,266.912 834.925333,267.52 835.453333,268.016 C835.981333,268.512 836.625333,268.896 837.385333,269.168 C838.145333,269.44 838.901333,269.688 839.653333,269.912 C840.405333,270.136 841.045333,270.404 841.573333,270.716 C842.101333,271.028 842.365333,271.4 842.365333,271.832 C842.365333,272.44 842.101333,272.912 841.573333,273.248 C841.045333,273.584 840.341333,273.752 839.461333,273.752 C838.869333,273.752 838.269333,273.616 837.661333,273.344 C837.053333,273.072 836.649333,272.856 836.449333,272.696 C836.249333,272.536 836.093333,272.4 835.981333,272.288 L835.981333,272.288 L834.853333,273.248 L835.045333,273.464 C835.173333,273.592 835.373333,273.752 835.645333,273.944 C835.917333,274.136 836.225333,274.324 836.569333,274.508 C836.913333,274.692 837.341333,274.852 837.853333,274.988 C838.365333,275.124 838.893333,275.192 839.437333,275.192 Z M851.12,275.192 C851.712,275.192 852.288,275.036 852.848,274.724 C853.408,274.412 853.768,274.168 853.928,273.992 C854.088,273.816 854.216,273.664 854.312,273.536 L854.312,273.536 L853.52,272.312 C853.52,272.376 853.436,272.516 853.268,272.732 C853.1,272.948 852.84,273.168 852.488,273.392 C852.136,273.616 851.776,273.728 851.408,273.728 C850.816,273.728 850.292,273.512 849.836,273.08 C849.38,272.648 849.152,272.064 849.152,271.328 L849.152,271.328 L849.152,264.44 L852.776,264.44 L852.776,262.976 L849.152,262.976 L849.152,258.992 L847.568,259.184 L847.568,262.976 L845.648,262.976 L845.648,264.44 L847.568,264.44 L847.568,271.688 C847.568,272.824 847.908,273.692 848.588,274.292 C849.268,274.892 850.112,275.192 851.12,275.192 Z M861.962667,275.192 C863.674667,275.192 865.130667,274.584 866.330667,273.368 C867.546667,272.152 868.154667,270.696 868.154667,269 C868.154667,267.288 867.550667,265.828 866.342667,264.62 C865.134667,263.412 863.674667,262.808 861.962667,262.808 C860.250667,262.808 858.790667,263.412 857.582667,264.62 C856.374667,265.828 855.770667,267.288 855.770667,269 C855.770667,270.712 856.374667,272.172 857.582667,273.38 C858.790667,274.588 860.250667,275.192 861.962667,275.192 Z M861.986667,273.68 C860.706667,273.68 859.618667,273.228 858.722667,272.324 C857.826667,271.42 857.378667,270.312 857.378667,269 C857.378667,267.688 857.826667,266.576 858.722667,265.664 C859.618667,264.752 860.706667,264.296 861.986667,264.296 C863.282667,264.296 864.374667,264.752 865.262667,265.664 C866.150667,266.576 866.594667,267.688 866.594667,269 C866.594667,270.312 866.150667,271.42 865.262667,272.324 C864.374667,273.228 863.282667,273.68 861.986667,273.68 Z M872.781333,275 L872.781333,267.968 C872.781333,266.928 873.125333,266.052 873.813333,265.34 C874.501333,264.628 875.349333,264.272 876.357333,264.272 C877.045333,264.272 877.725333,264.52 878.397333,265.016 L878.397333,265.016 L878.949333,263.432 C878.245333,263.016 877.469333,262.808 876.621333,262.808 C875.037333,262.808 873.757333,263.464 872.781333,264.776 L872.781333,264.776 L872.781333,263 L871.197333,263 L871.197333,275 L872.781333,275 Z" id="WaterValveasResistor" fill="#23ABE3" fill-rule="nonzero"></path>
        </g>
        <g transform="translate(68.000000, 24.000000)">
            <path d="M2.4,17.408 C2.496,16.96 2.728,16.584 3.096,16.28 C3.256,16.312 3.536,16.428 3.936,16.628 C4.336,16.828 4.784,17.008 5.28,17.168 C5.776,17.328 6.296,17.408 6.84,17.408 C8.12,17.408 9.204,17.008 10.092,16.208 C10.98,15.408 11.424,14.368 11.424,13.088 C11.424,11.504 10.584,10.288 8.904,9.44 L8.904,9.44 L6.624,8.264 C5.52,7.688 4.756,7.196 4.332,6.788 C3.908,6.38 3.696,5.88 3.696,5.288 C3.696,4.68 3.916,4.172 4.356,3.764 C4.796,3.356 5.352,3.152 6.024,3.152 C8.232,3.152 9.456,4.552 9.696,7.352 L9.696,7.352 L10.2,7.352 L10.2,2.072 L9.72,2.072 C9.624,2.504 9.392,2.872 9.024,3.176 C8.128,2.52 7.152,2.192 6.096,2.192 C4.944,2.192 3.992,2.536 3.24,3.224 C2.488,3.912 2.112,4.76 2.112,5.768 C2.112,6.632 2.368,7.408 2.88,8.096 C3.392,8.784 4.024,9.328 4.776,9.728 L4.776,9.728 L7.08,10.904 C8.92,11.864 9.84,12.832 9.84,13.808 C9.84,14.576 9.556,15.208 8.988,15.704 C8.42,16.2 7.704,16.448 6.84,16.448 C6.248,16.448 5.708,16.368 5.22,16.208 C4.732,16.048 4.34,15.848 4.044,15.608 C3.748,15.368 3.488,15.08 3.264,14.744 C3.04,14.408 2.876,14.104 2.772,13.832 C2.668,13.56 2.588,13.276 2.532,12.98 C2.476,12.684 2.444,12.484 2.436,12.38 C2.428,12.276 2.424,12.192 2.424,12.128 L2.424,12.128 L1.92,12.128 L1.92,17.408 L2.4,17.408 Z M18.6,17.408 C19.928,17.408 21.068,16.976 22.02,16.112 C22.972,15.248 23.448,14.208 23.448,12.992 C23.448,11.776 22.968,10.744 22.008,9.896 C21.064,9.032 19.928,8.6 18.6,8.6 C17.272,8.6 16.132,9.028 15.18,9.884 C14.228,10.74 13.752,11.776 13.752,12.992 C13.752,14.208 14.228,15.248 15.18,16.112 C16.132,16.976 17.272,17.408 18.6,17.408 Z M18.6,16.472 C17.656,16.472 16.936,16.144 16.44,15.488 C15.944,14.832 15.696,14 15.696,12.992 C15.696,11.984 15.944,11.152 16.44,10.496 C16.936,9.84 17.656,9.512 18.6,9.512 C19.544,9.512 20.264,9.836 20.76,10.484 C21.256,11.132 21.504,11.968 21.504,12.992 C21.504,14.016 21.256,14.856 20.76,15.512 C20.264,16.152 19.544,16.472 18.6,16.472 Z M33.456,17.408 L36.672,16.808 L36.672,16.304 C35.856,16.304 35.332,16.136 35.1,15.8 C34.868,15.464 34.752,14.696 34.752,13.496 L34.752,13.496 L34.752,9.008 L31.152,9.008 L31.152,9.488 C31.968,9.488 32.492,9.656 32.724,9.992 C32.956,10.328 33.072,11.096 33.072,12.296 L33.072,12.296 L33.072,13.88 C33.072,14.552 32.776,15.116 32.184,15.572 C31.592,16.028 31.024,16.256 30.48,16.256 C29.264,16.256 28.656,15.4 28.656,13.688 L28.656,13.688 L28.656,9.008 L25.056,9.008 L25.056,9.488 C25.856,9.488 26.372,9.656 26.604,9.992 C26.836,10.328 26.952,11.096 26.952,12.296 L26.952,12.296 L26.952,13.808 C26.952,16.208 27.944,17.408 29.928,17.408 C31.032,17.408 32.08,16.896 33.072,15.872 C33.2,16.64 33.328,17.152 33.456,17.408 L33.456,17.408 Z M43.536,17 L43.536,16.496 C42.736,16.496 42.22,16.328 41.988,15.992 C41.756,15.656 41.64,14.888 41.64,13.688 L41.64,13.688 L41.64,12.368 C41.64,11.52 41.856,10.84 42.288,10.328 C42.72,9.816 43.12,9.56 43.488,9.56 C44,9.56 44.256,9.824 44.256,10.352 C44.256,10.576 44.34,10.776 44.508,10.952 C44.676,11.128 44.872,11.216 45.096,11.216 C45.736,11.216 46.056,10.84 46.056,10.088 C46.056,9.736 45.892,9.4 45.564,9.08 C45.236,8.76 44.768,8.6 44.16,8.6 C43.68,8.6 43.2,8.768 42.72,9.104 C42.24,9.44 41.88,9.848 41.64,10.328 C41.512,9.48 41.376,8.904 41.232,8.6 L41.232,8.6 L38.04,9.2 L38.04,9.704 C38.84,9.704 39.356,9.872 39.588,10.208 C39.82,10.544 39.936,11.304 39.936,12.488 L39.936,12.488 L39.936,13.688 C39.936,14.888 39.82,15.656 39.588,15.992 C39.356,16.328 38.84,16.496 38.04,16.496 L38.04,16.496 L38.04,17 L43.536,17 Z M51.96,17.408 C53.368,17.408 54.56,16.88 55.536,15.824 L55.536,15.824 L55.128,15.296 C54.344,16.032 53.488,16.4 52.56,16.4 C51.6,16.4 50.876,16.116 50.388,15.548 C49.9,14.98 49.656,14.2 49.656,13.208 C49.656,12.12 49.88,11.208 50.328,10.472 C50.776,9.736 51.32,9.368 51.96,9.368 C52.536,9.368 52.824,9.712 52.824,10.4 C52.824,10.672 52.916,10.9 53.1,11.084 C53.284,11.268 53.504,11.36 53.76,11.36 C54.128,11.36 54.396,11.252 54.564,11.036 C54.732,10.82 54.816,10.584 54.816,10.328 C54.816,9.848 54.576,9.44 54.096,9.104 C53.616,8.768 52.904,8.6 51.96,8.6 C50.92,8.6 49.952,9.036 49.056,9.908 C48.16,10.78 47.712,11.88 47.712,13.208 C47.712,14.44 48.092,15.448 48.852,16.232 C49.612,17.016 50.648,17.408 51.96,17.408 Z M61.584,17.408 C62.256,17.408 62.928,17.26 63.6,16.964 C64.272,16.668 64.824,16.288 65.256,15.824 L65.256,15.824 L64.824,15.296 C64.488,15.616 64.064,15.88 63.552,16.088 C63.04,16.296 62.584,16.4 62.184,16.4 C61,16.4 60.148,16.028 59.628,15.284 C59.108,14.54 58.92,13.576 59.064,12.392 L59.064,12.392 L64.848,12.392 C65.136,11.384 64.936,10.5 64.248,9.74 C63.56,8.98 62.672,8.6 61.584,8.6 C60.432,8.6 59.404,9.024 58.5,9.872 C57.596,10.72 57.144,11.76 57.144,12.992 C57.144,14.224 57.56,15.268 58.392,16.124 C59.224,16.98 60.288,17.408 61.584,17.408 Z M63.192,11.504 L59.208,11.504 C59.384,10.912 59.676,10.44 60.084,10.088 C60.492,9.736 60.952,9.56 61.464,9.56 C62.184,9.56 62.692,9.772 62.988,10.196 C63.284,10.62 63.352,11.056 63.192,11.504 L63.192,11.504 Z M79.272,17.408 L84.552,5.192 C84.952,4.264 85.292,3.684 85.572,3.452 C85.852,3.22 86.464,3.104 87.408,3.104 L87.408,3.104 L87.408,2.6 L81.816,2.6 L81.816,3.104 C82.808,3.104 83.444,3.244 83.724,3.524 C84.004,3.804 83.992,4.272 83.688,4.928 L83.688,4.928 L79.656,14.264 L75.576,4.928 C75.272,4.272 75.26,3.804 75.54,3.524 C75.82,3.244 76.456,3.104 77.448,3.104 L77.448,3.104 L77.448,2.6 L70.8,2.6 L70.8,3.104 C71.744,3.104 72.356,3.22 72.636,3.452 C72.916,3.684 73.256,4.264 73.656,5.192 L73.656,5.192 L78.96,17.408 L79.272,17.408 Z M92.52,17.408 C93.848,17.408 94.988,16.976 95.94,16.112 C96.892,15.248 97.368,14.208 97.368,12.992 C97.368,11.776 96.888,10.744 95.928,9.896 C94.984,9.032 93.848,8.6 92.52,8.6 C91.192,8.6 90.052,9.028 89.1,9.884 C88.148,10.74 87.672,11.776 87.672,12.992 C87.672,14.208 88.148,15.248 89.1,16.112 C90.052,16.976 91.192,17.408 92.52,17.408 Z M92.52,16.472 C91.576,16.472 90.856,16.144 90.36,15.488 C89.864,14.832 89.616,14 89.616,12.992 C89.616,11.984 89.864,11.152 90.36,10.496 C90.856,9.84 91.576,9.512 92.52,9.512 C93.464,9.512 94.184,9.836 94.68,10.484 C95.176,11.132 95.424,11.968 95.424,12.992 C95.424,14.016 95.176,14.856 94.68,15.512 C94.184,16.152 93.464,16.472 92.52,16.472 Z M104.472,17 L104.472,16.496 C103.672,16.496 103.156,16.328 102.924,15.992 C102.692,15.656 102.576,14.888 102.576,13.688 L102.576,13.688 L102.576,2.192 L98.976,2.792 L98.976,3.296 C99.776,3.296 100.292,3.464 100.524,3.8 C100.756,4.136 100.872,4.904 100.872,6.104 L100.872,6.104 L100.872,13.688 C100.872,14.888 100.756,15.656 100.524,15.992 C100.292,16.328 99.776,16.496 98.976,16.496 L98.976,16.496 L98.976,17 L104.472,17 Z M109.104,17.336 C109.504,17.336 109.94,17.208 110.412,16.952 C110.884,16.696 111.288,16.368 111.624,15.968 L111.624,15.968 L111.216,15.56 C110.64,16.104 110.12,16.376 109.656,16.376 C108.936,16.376 108.576,15.8 108.576,14.648 L108.576,14.648 L108.576,9.848 L110.664,9.848 L110.664,9.008 L108.576,9.008 L108.576,6.368 L107.76,6.368 C107.664,7.2 107.456,7.856 107.136,8.336 C106.816,8.816 106.312,9.128 105.624,9.272 L105.624,9.272 L105.624,9.848 L106.872,9.848 L106.872,14.648 C106.872,15.544 107.072,16.216 107.472,16.664 C107.872,17.112 108.416,17.336 109.104,17.336 Z M115.104,17.312 C116.032,17.312 117.032,16.832 118.104,15.872 C118.232,16.8 118.776,17.264 119.736,17.264 C120.328,17.264 120.856,17.016 121.32,16.52 L121.32,16.52 L120.984,16.064 C120.744,16.304 120.52,16.424 120.312,16.424 C119.944,16.424 119.76,16.112 119.76,15.488 L119.76,15.488 L119.76,11.864 C119.76,10.712 119.504,9.88 118.992,9.368 C118.48,8.856 117.64,8.6 116.472,8.6 C115.672,8.6 114.964,8.78 114.348,9.14 C113.732,9.5 113.424,9.96 113.424,10.52 C113.424,10.76 113.504,10.96 113.664,11.12 C113.824,11.28 114.024,11.36 114.264,11.36 C114.488,11.36 114.68,11.28 114.84,11.12 C115,10.96 115.08,10.76 115.08,10.52 C115.08,10.168 115.228,9.888 115.524,9.68 C115.82,9.472 116.128,9.368 116.448,9.368 C117.104,9.368 117.536,9.552 117.744,9.92 C117.952,10.288 118.056,10.944 118.056,11.888 C114.648,12.48 112.944,13.616 112.944,15.296 C112.944,15.92 113.152,16.412 113.568,16.772 C113.984,17.132 114.496,17.312 115.104,17.312 Z M115.872,16.232 C115.552,16.232 115.284,16.12 115.068,15.896 C114.852,15.672 114.744,15.376 114.744,15.008 C114.744,13.936 115.848,13.144 118.056,12.632 L118.056,12.632 L118.056,15.08 C117.192,15.848 116.464,16.232 115.872,16.232 Z M126.36,23.408 C127.576,23.408 128.588,23.116 129.396,22.532 C130.204,21.948 130.608,21.168 130.608,20.192 C130.608,19.376 130.264,18.68 129.576,18.104 C128.888,17.528 127.776,17.176 126.24,17.048 C124.784,16.92 124.056,16.616 124.056,16.136 C124.056,15.672 124.952,15.336 126.744,15.128 C127.576,15.016 128.304,14.656 128.928,14.048 C129.552,13.44 129.864,12.712 129.864,11.864 C129.864,11.128 129.632,10.48 129.168,9.92 C129.424,9.664 129.672,9.536 129.912,9.536 C130.136,9.536 130.3,9.596 130.404,9.716 C130.508,9.836 130.572,9.964 130.596,10.1 L130.623,10.19975 C130.659,10.29725 130.722,10.388 130.812,10.472 C130.932,10.584 131.112,10.632 131.352,10.616 C131.48,10.616 131.592,10.576 131.688,10.496 C131.976,10.272 132.048,9.936 131.904,9.488 C131.712,8.896 131.264,8.6 130.56,8.6 C130.288,8.6 129.972,8.688 129.612,8.864 C129.252,9.04 128.968,9.256 128.76,9.512 C128.072,8.904 127.248,8.6 126.288,8.6 C125.296,8.6 124.452,8.92 123.756,9.56 C123.06,10.2 122.712,10.968 122.712,11.864 C122.712,12.504 122.892,13.08 123.252,13.592 C123.612,14.104 124.104,14.504 124.728,14.792 C123.384,15.208 122.712,15.848 122.712,16.712 C122.712,17.976 123.848,18.72 126.12,18.944 C127.224,19.056 128.036,19.232 128.556,19.472 C129.076,19.712 129.336,20.096 129.336,20.624 C129.336,21.168 129.036,21.612 128.436,21.956 C127.836,22.3 127.144,22.472 126.36,22.472 C125.864,22.472 125.388,22.4 124.932,22.256 C124.476,22.112 124.092,21.912 123.78,21.656 C123.468,21.4 123.328,21.052 123.36,20.612 C123.392,20.172 123.64,19.688 124.104,19.16 L124.104,19.16 L123.672,18.896 C122.712,19.392 122.2,20 122.136,20.72 C122.072,21.44 122.436,22.068 123.228,22.604 C124.02,23.14 125.064,23.408 126.36,23.408 Z M126.288,14.336 C125.728,14.336 125.296,14.108 124.992,13.652 C124.688,13.196 124.536,12.6 124.536,11.864 C124.536,11.128 124.688,10.528 124.992,10.064 C125.296,9.6 125.728,9.368 126.288,9.368 C126.848,9.368 127.276,9.6 127.572,10.064 C127.868,10.528 128.016,11.128 128.016,11.864 C128.016,12.6 127.864,13.2 127.56,13.664 C127.272,14.112 126.848,14.336 126.288,14.336 Z M137.448,17.408 C138.12,17.408 138.792,17.26 139.464,16.964 C140.136,16.668 140.688,16.288 141.12,15.824 L141.12,15.824 L140.688,15.296 C140.352,15.616 139.928,15.88 139.416,16.088 C138.904,16.296 138.448,16.4 138.048,16.4 C136.864,16.4 136.012,16.028 135.492,15.284 C134.972,14.54 134.784,13.576 134.928,12.392 L134.928,12.392 L140.712,12.392 C141,11.384 140.8,10.5 140.112,9.74 C139.424,8.98 138.536,8.6 137.448,8.6 C136.296,8.6 135.268,9.024 134.364,9.872 C133.46,10.72 133.008,11.76 133.008,12.992 C133.008,14.224 133.424,15.268 134.256,16.124 C135.088,16.98 136.152,17.408 137.448,17.408 Z M139.056,11.504 L135.072,11.504 C135.248,10.912 135.54,10.44 135.948,10.088 C136.356,9.736 136.816,9.56 137.328,9.56 C138.048,9.56 138.556,9.772 138.852,10.196 C139.148,10.62 139.216,11.056 139.056,11.504 L139.056,11.504 Z M154.968,19.664 L155.496,19.16 C154.984,18.584 154.56,18.084 154.224,17.66 C153.888,17.236 153.452,16.604 152.916,15.764 C152.38,14.924 151.968,14.008 151.68,13.016 C151.392,12.024 151.248,10.992 151.248,9.92 C151.248,8.848 151.392,7.816 151.68,6.824 C151.968,5.832 152.38,4.916 152.916,4.076 C153.452,3.236 153.888,2.604 154.224,2.18 C154.56,1.756 154.984,1.256 155.496,0.68 L155.496,0.68 L154.944,0.176 C151.36,3.136 149.568,6.384 149.568,9.92 C149.568,13.472 151.368,16.72 154.968,19.664 L154.968,19.664 Z M163.728,17.408 L169.008,5.192 C169.408,4.264 169.748,3.684 170.028,3.452 C170.308,3.22 170.92,3.104 171.864,3.104 L171.864,3.104 L171.864,2.6 L166.272,2.6 L166.272,3.104 C167.264,3.104 167.9,3.244 168.18,3.524 C168.46,3.804 168.448,4.272 168.144,4.928 L168.144,4.928 L164.112,14.264 L160.032,4.928 C159.728,4.272 159.716,3.804 159.996,3.524 C160.276,3.244 160.912,3.104 161.904,3.104 L161.904,3.104 L161.904,2.6 L155.256,2.6 L155.256,3.104 C156.2,3.104 156.812,3.22 157.092,3.452 C157.372,3.684 157.712,4.264 158.112,5.192 L158.112,5.192 L163.416,17.408 L163.728,17.408 Z M172.2,19.664 C175.784,16.736 177.576,13.488 177.576,9.92 C177.576,6.368 175.792,3.12 172.224,0.176 L172.224,0.176 L171.648,0.68 C172.176,1.272 172.604,1.776 172.932,2.192 C173.26,2.608 173.696,3.236 174.24,4.076 C174.784,4.916 175.2,5.832 175.488,6.824 C175.776,7.816 175.92,8.848 175.92,9.92 C175.92,10.992 175.776,12.024 175.488,13.016 C175.2,14.008 174.784,14.924 174.24,15.764 C173.696,16.604 173.26,17.232 172.932,17.648 C172.604,18.064 172.176,18.568 171.648,19.16 L171.648,19.16 L172.2,19.664 Z" id="SourceVoltage(V)" fill="#524740" fill-rule="nonzero"></path>
            <path d="M316.324,198.408 L321.604,186.192 C322.004,185.264 322.344,184.684 322.624,184.452 C322.904,184.22 323.516,184.104 324.46,184.104 L324.46,184.104 L324.46,183.6 L318.868,183.6 L318.868,184.104 C319.86,184.104 320.496,184.244 320.776,184.524 C321.056,184.804 321.044,185.272 320.74,185.928 L320.74,185.928 L316.708,195.264 L312.628,185.928 C312.324,185.272 312.312,184.804 312.592,184.524 C312.872,184.244 313.508,184.104 314.5,184.104 L314.5,184.104 L314.5,183.6 L307.852,183.6 L307.852,184.104 C308.796,184.104 309.408,184.22 309.688,184.452 C309.968,184.684 310.308,185.264 310.708,186.192 L310.708,186.192 L316.012,198.408 L316.324,198.408 Z M326.644,198.312 C327.572,198.312 328.572,197.832 329.644,196.872 C329.772,197.8 330.316,198.264 331.276,198.264 C331.868,198.264 332.396,198.016 332.86,197.52 L332.86,197.52 L332.524,197.064 C332.284,197.304 332.06,197.424 331.852,197.424 C331.484,197.424 331.3,197.112 331.3,196.488 L331.3,196.488 L331.3,192.864 C331.3,191.712 331.044,190.88 330.532,190.368 C330.02,189.856 329.18,189.6 328.012,189.6 C327.212,189.6 326.504,189.78 325.888,190.14 C325.272,190.5 324.964,190.96 324.964,191.52 C324.964,191.76 325.044,191.96 325.204,192.12 C325.364,192.28 325.564,192.36 325.804,192.36 C326.028,192.36 326.22,192.28 326.38,192.12 C326.54,191.96 326.62,191.76 326.62,191.52 C326.62,191.168 326.768,190.888 327.064,190.68 C327.36,190.472 327.668,190.368 327.988,190.368 C328.644,190.368 329.076,190.552 329.284,190.92 C329.492,191.288 329.596,191.944 329.596,192.888 C326.188,193.48 324.484,194.616 324.484,196.296 C324.484,196.92 324.692,197.412 325.108,197.772 C325.524,198.132 326.036,198.312 326.644,198.312 Z M327.412,197.232 C327.092,197.232 326.824,197.12 326.608,196.896 C326.392,196.672 326.284,196.376 326.284,196.008 C326.284,194.936 327.388,194.144 329.596,193.632 L329.596,193.632 L329.596,196.08 C328.732,196.848 328.004,197.232 327.412,197.232 Z M339.196,198 L339.196,197.496 C338.396,197.496 337.88,197.328 337.648,196.992 C337.416,196.656 337.3,195.888 337.3,194.688 L337.3,194.688 L337.3,183.192 L333.7,183.792 L333.7,184.296 C334.5,184.296 335.016,184.464 335.248,184.8 C335.48,185.136 335.596,185.904 335.596,187.104 L335.596,187.104 L335.596,194.688 C335.596,195.888 335.48,196.656 335.248,196.992 C335.016,197.328 334.5,197.496 333.7,197.496 L333.7,197.496 L333.7,198 L339.196,198 Z M344.5,198.432 L347.212,191.904 C347.436,191.376 347.672,191.008 347.92,190.8 C348.168,190.592 348.5,190.488 348.916,190.488 L348.916,190.488 L348.916,190.008 L345.556,190.008 L345.556,190.488 C346.068,190.488 346.372,190.596 346.468,190.812 C346.564,191.028 346.492,191.392 346.252,191.904 L346.252,191.904 L344.668,195.744 L342.964,191.904 C342.724,191.328 342.652,190.948 342.748,190.764 C342.844,190.58 343.164,190.488 343.708,190.488 L343.708,190.488 L343.708,190.008 L339.46,190.008 L339.46,190.488 C339.844,190.488 340.152,190.592 340.384,190.8 C340.616,191.008 340.852,191.376 341.092,191.904 L341.092,191.904 L344.02,198.432 L344.5,198.432 Z M354.22,198.408 C354.892,198.408 355.564,198.26 356.236,197.964 C356.908,197.668 357.46,197.288 357.892,196.824 L357.892,196.824 L357.46,196.296 C357.124,196.616 356.7,196.88 356.188,197.088 C355.676,197.296 355.22,197.4 354.82,197.4 C353.636,197.4 352.784,197.028 352.264,196.284 C351.744,195.54 351.556,194.576 351.7,193.392 L351.7,193.392 L357.484,193.392 C357.772,192.384 357.572,191.5 356.884,190.74 C356.196,189.98 355.308,189.6 354.22,189.6 C353.068,189.6 352.04,190.024 351.136,190.872 C350.232,191.72 349.78,192.76 349.78,193.992 C349.78,195.224 350.196,196.268 351.028,197.124 C351.86,197.98 352.924,198.408 354.22,198.408 Z M355.828,192.504 L351.844,192.504 C352.02,191.912 352.312,191.44 352.72,191.088 C353.128,190.736 353.588,190.56 354.1,190.56 C354.82,190.56 355.328,190.772 355.624,191.196 C355.92,191.62 355.988,192.056 355.828,192.504 L355.828,192.504 Z M371.74,200.664 L372.268,200.16 C371.756,199.584 371.332,199.084 370.996,198.66 C370.66,198.236 370.224,197.604 369.688,196.764 C369.152,195.924 368.74,195.008 368.452,194.016 C368.164,193.024 368.02,191.992 368.02,190.92 C368.02,189.848 368.164,188.816 368.452,187.824 C368.74,186.832 369.152,185.916 369.688,185.076 C370.224,184.236 370.66,183.604 370.996,183.18 C371.332,182.756 371.756,182.256 372.268,181.68 L372.268,181.68 L371.716,181.176 C368.132,184.136 366.34,187.384 366.34,190.92 C366.34,194.472 368.14,197.72 371.74,200.664 L371.74,200.664 Z M380.332,198 L380.332,197.496 C379.34,197.496 378.712,197.328 378.448,196.992 C378.184,196.656 378.052,195.888 378.052,194.688 L378.052,194.688 L378.052,191.688 L379.18,191.688 L383.932,198 L387.892,198 L387.892,197.496 C386.484,197.336 384.996,196.32 383.428,194.448 L383.428,194.448 L381.076,191.688 C382.404,191.544 383.448,191.104 384.208,190.368 C384.968,189.632 385.348,188.728 385.348,187.656 C385.348,186.488 384.892,185.52 383.98,184.752 C383.068,183.984 381.804,183.6 380.188,183.6 L380.188,183.6 L373.852,183.6 L373.852,184.104 C374.844,184.104 375.472,184.268 375.736,184.596 C376,184.924 376.132,185.688 376.132,186.888 L376.132,186.888 L376.132,194.688 C376.132,195.888 376,196.656 375.736,196.992 C375.472,197.328 374.844,197.496 373.852,197.496 L373.852,197.496 L373.852,198 L380.332,198 Z M380.164,190.824 L378.052,190.824 L378.052,184.488 L380.164,184.488 C381.156,184.488 381.912,184.784 382.432,185.376 C382.952,185.968 383.212,186.728 383.212,187.656 C383.212,188.584 382.952,189.344 382.432,189.936 C381.912,190.528 381.156,190.824 380.164,190.824 L380.164,190.824 Z M393.412,198.408 C394.084,198.408 394.756,198.26 395.428,197.964 C396.1,197.668 396.652,197.288 397.084,196.824 L397.084,196.824 L396.652,196.296 C396.316,196.616 395.892,196.88 395.38,197.088 C394.868,197.296 394.412,197.4 394.012,197.4 C392.828,197.4 391.976,197.028 391.456,196.284 C390.936,195.54 390.748,194.576 390.892,193.392 L390.892,193.392 L396.676,193.392 C396.964,192.384 396.764,191.5 396.076,190.74 C395.388,189.98 394.5,189.6 393.412,189.6 C392.26,189.6 391.232,190.024 390.328,190.872 C389.424,191.72 388.972,192.76 388.972,193.992 C388.972,195.224 389.388,196.268 390.22,197.124 C391.052,197.98 392.116,198.408 393.412,198.408 Z M395.02,192.504 L391.036,192.504 C391.212,191.912 391.504,191.44 391.912,191.088 C392.32,190.736 392.78,190.56 393.292,190.56 C394.012,190.56 394.52,190.772 394.816,191.196 C395.112,191.62 395.18,192.056 395.02,192.504 L395.02,192.504 Z M399.604,198.408 C399.604,198.088 399.636,197.872 399.7,197.76 C399.764,197.648 399.876,197.62 400.036,197.676 C400.196,197.732 400.368,197.812 400.552,197.916 C400.736,198.02 400.98,198.128 401.284,198.24 C401.588,198.352 401.884,198.408 402.172,198.408 C402.972,198.408 403.648,198.164 404.2,197.676 C404.752,197.188 405.028,196.56 405.028,195.792 C405.028,194.88 404.476,194.112 403.372,193.488 L403.372,193.488 L402.22,192.864 C401.66,192.56 401.276,192.308 401.068,192.108 C400.86,191.908 400.756,191.672 400.756,191.4 C400.756,191.096 400.86,190.848 401.068,190.656 C401.276,190.464 401.58,190.368 401.98,190.368 C402.556,190.368 403.024,190.572 403.384,190.98 C403.744,191.388 403.924,191.856 403.924,192.384 L403.924,192.384 L404.428,192.384 L404.428,189.6 L403.924,189.6 C403.924,189.92 403.888,190.1 403.816,190.14 C403.744,190.18 403.612,190.144 403.42,190.032 C402.844,189.744 402.284,189.6 401.74,189.6 C401.1,189.6 400.536,189.808 400.048,190.224 C399.56,190.64 399.316,191.16 399.316,191.784 C399.316,192.808 399.844,193.608 400.9,194.184 L400.9,194.184 L402.244,194.904 C403.14,195.384 403.588,195.872 403.588,196.368 C403.588,196.704 403.456,196.992 403.192,197.232 C402.928,197.472 402.604,197.592 402.22,197.592 C401.436,197.592 400.804,197.3 400.324,196.716 C399.844,196.132 399.604,195.528 399.604,194.904 L399.604,194.904 L399.1,194.904 L399.1,198.408 L399.604,198.408 Z M409.756,187.248 C410.044,187.248 410.292,187.144 410.5,186.936 C410.708,186.728 410.812,186.472 410.812,186.168 C410.812,185.88 410.708,185.632 410.5,185.424 C410.292,185.216 410.044,185.112 409.756,185.112 C409.468,185.112 409.22,185.216 409.012,185.424 C408.804,185.632 408.7,185.88 408.7,186.168 C408.7,186.472 408.804,186.728 409.012,186.936 C409.22,187.144 409.468,187.248 409.756,187.248 Z M412.516,198 L412.516,197.496 C411.716,197.496 411.2,197.328 410.968,196.992 C410.736,196.656 410.62,195.888 410.62,194.688 L410.62,194.688 L410.62,189.6 L407.02,190.2 L407.02,190.704 C407.82,190.704 408.336,190.872 408.568,191.208 C408.8,191.544 408.916,192.304 408.916,193.488 L408.916,193.488 L408.916,194.688 C408.916,195.888 408.8,196.656 408.568,196.992 C408.336,197.328 407.82,197.496 407.02,197.496 L407.02,197.496 L407.02,198 L412.516,198 Z M414.628,198.408 C414.628,198.088 414.66,197.872 414.724,197.76 C414.788,197.648 414.9,197.62 415.06,197.676 C415.22,197.732 415.392,197.812 415.576,197.916 C415.76,198.02 416.004,198.128 416.308,198.24 C416.612,198.352 416.908,198.408 417.196,198.408 C417.996,198.408 418.672,198.164 419.224,197.676 C419.776,197.188 420.052,196.56 420.052,195.792 C420.052,194.88 419.5,194.112 418.396,193.488 L418.396,193.488 L417.244,192.864 C416.684,192.56 416.3,192.308 416.092,192.108 C415.884,191.908 415.78,191.672 415.78,191.4 C415.78,191.096 415.884,190.848 416.092,190.656 C416.3,190.464 416.604,190.368 417.004,190.368 C417.58,190.368 418.048,190.572 418.408,190.98 C418.768,191.388 418.948,191.856 418.948,192.384 L418.948,192.384 L419.452,192.384 L419.452,189.6 L418.948,189.6 C418.948,189.92 418.912,190.1 418.84,190.14 C418.768,190.18 418.636,190.144 418.444,190.032 C417.868,189.744 417.308,189.6 416.764,189.6 C416.124,189.6 415.56,189.808 415.072,190.224 C414.584,190.64 414.34,191.16 414.34,191.784 C414.34,192.808 414.868,193.608 415.924,194.184 L415.924,194.184 L417.268,194.904 C418.164,195.384 418.612,195.872 418.612,196.368 C418.612,196.704 418.48,196.992 418.216,197.232 C417.952,197.472 417.628,197.592 417.244,197.592 C416.46,197.592 415.828,197.3 415.348,196.716 C414.868,196.132 414.628,195.528 414.628,194.904 L414.628,194.904 L414.124,194.904 L414.124,198.408 L414.628,198.408 Z M425.284,198.336 C425.684,198.336 426.12,198.208 426.592,197.952 C427.064,197.696 427.468,197.368 427.804,196.968 L427.804,196.968 L427.396,196.56 C426.82,197.104 426.3,197.376 425.836,197.376 C425.116,197.376 424.756,196.8 424.756,195.648 L424.756,195.648 L424.756,190.848 L426.844,190.848 L426.844,190.008 L424.756,190.008 L424.756,187.368 L423.94,187.368 C423.844,188.2 423.636,188.856 423.316,189.336 C422.996,189.816 422.492,190.128 421.804,190.272 L421.804,190.272 L421.804,190.848 L423.052,190.848 L423.052,195.648 C423.052,196.544 423.252,197.216 423.652,197.664 C424.052,198.112 424.596,198.336 425.284,198.336 Z M434.212,198.408 C435.54,198.408 436.68,197.976 437.632,197.112 C438.584,196.248 439.06,195.208 439.06,193.992 C439.06,192.776 438.58,191.744 437.62,190.896 C436.676,190.032 435.54,189.6 434.212,189.6 C432.884,189.6 431.744,190.028 430.792,190.884 C429.84,191.74 429.364,192.776 429.364,193.992 C429.364,195.208 429.84,196.248 430.792,197.112 C431.744,197.976 432.884,198.408 434.212,198.408 Z M434.212,197.472 C433.268,197.472 432.548,197.144 432.052,196.488 C431.556,195.832 431.308,195 431.308,193.992 C431.308,192.984 431.556,192.152 432.052,191.496 C432.548,190.84 433.268,190.512 434.212,190.512 C435.156,190.512 435.876,190.836 436.372,191.484 C436.868,192.132 437.116,192.968 437.116,193.992 C437.116,195.016 436.868,195.856 436.372,196.512 C435.876,197.152 435.156,197.472 434.212,197.472 Z M446.62,198 L446.62,197.496 C445.82,197.496 445.304,197.328 445.072,196.992 C444.84,196.656 444.724,195.888 444.724,194.688 L444.724,194.688 L444.724,193.368 C444.724,192.52 444.94,191.84 445.372,191.328 C445.804,190.816 446.204,190.56 446.572,190.56 C447.084,190.56 447.34,190.824 447.34,191.352 C447.34,191.576 447.424,191.776 447.592,191.952 C447.76,192.128 447.956,192.216 448.18,192.216 C448.82,192.216 449.14,191.84 449.14,191.088 C449.14,190.736 448.976,190.4 448.648,190.08 C448.32,189.76 447.852,189.6 447.244,189.6 C446.764,189.6 446.284,189.768 445.804,190.104 C445.324,190.44 444.964,190.848 444.724,191.328 C444.596,190.48 444.46,189.904 444.316,189.6 L444.316,189.6 L441.124,190.2 L441.124,190.704 C441.924,190.704 442.44,190.872 442.672,191.208 C442.904,191.544 443.02,192.304 443.02,193.488 L443.02,193.488 L443.02,194.688 C443.02,195.888 442.904,196.656 442.672,196.992 C442.44,197.328 441.924,197.496 441.124,197.496 L441.124,197.496 L441.124,198 L446.62,198 Z M450.868,200.664 C454.452,197.736 456.244,194.488 456.244,190.92 C456.244,187.368 454.46,184.12 450.892,181.176 L450.892,181.176 L450.316,181.68 C450.844,182.272 451.272,182.776 451.6,183.192 C451.928,183.608 452.364,184.236 452.908,185.076 C453.452,185.916 453.868,186.832 454.156,187.824 C454.444,188.816 454.588,189.848 454.588,190.92 C454.588,191.992 454.444,193.024 454.156,194.016 C453.868,195.008 453.452,195.924 452.908,196.764 C452.364,197.604 451.928,198.232 451.6,198.648 C451.272,199.064 450.844,199.568 450.316,200.16 L450.316,200.16 L450.868,200.664 Z" id="Valve(Resistor)" fill="#524740" fill-rule="nonzero"></path>
            <path d="M565.572,120.408 L568.956,109.776 L572.316,120.408 L572.628,120.408 L576.516,108.192 C576.788,107.344 577.092,106.784 577.428,106.512 C577.764,106.24 578.412,106.104 579.372,106.104 L579.372,106.104 L579.372,105.6 L573.972,105.6 L573.972,106.104 C574.82,106.104 575.364,106.24 575.604,106.512 C575.844,106.784 575.86,107.256 575.652,107.928 L575.652,107.928 L573.036,116.184 L569.676,105.6 L569.34,105.6 L565.98,116.208 L563.34,107.928 C563.132,107.24 563.152,106.764 563.4,106.5 C563.648,106.236 564.26,106.104 565.236,106.104 L565.236,106.104 L565.236,105.6 L558.516,105.6 L558.516,106.104 C559.492,106.104 560.14,106.224 560.46,106.464 C560.78,106.704 561.084,107.28 561.372,108.192 L561.372,108.192 L565.26,120.408 L565.572,120.408 Z M581.532,120.312 C582.46,120.312 583.46,119.832 584.532,118.872 C584.66,119.8 585.204,120.264 586.164,120.264 C586.756,120.264 587.284,120.016 587.748,119.52 L587.748,119.52 L587.412,119.064 C587.172,119.304 586.948,119.424 586.74,119.424 C586.372,119.424 586.188,119.112 586.188,118.488 L586.188,118.488 L586.188,114.864 C586.188,113.712 585.932,112.88 585.42,112.368 C584.908,111.856 584.068,111.6 582.9,111.6 C582.1,111.6 581.392,111.78 580.776,112.14 C580.16,112.5 579.852,112.96 579.852,113.52 C579.852,113.76 579.932,113.96 580.092,114.12 C580.252,114.28 580.452,114.36 580.692,114.36 C580.916,114.36 581.108,114.28 581.268,114.12 C581.428,113.96 581.508,113.76 581.508,113.52 C581.508,113.168 581.656,112.888 581.952,112.68 C582.248,112.472 582.556,112.368 582.876,112.368 C583.532,112.368 583.964,112.552 584.172,112.92 C584.38,113.288 584.484,113.944 584.484,114.888 C581.076,115.48 579.372,116.616 579.372,118.296 C579.372,118.92 579.58,119.412 579.996,119.772 C580.412,120.132 580.924,120.312 581.532,120.312 Z M582.3,119.232 C581.98,119.232 581.712,119.12 581.496,118.896 C581.28,118.672 581.172,118.376 581.172,118.008 C581.172,116.936 582.276,116.144 584.484,115.632 L584.484,115.632 L584.484,118.08 C583.62,118.848 582.892,119.232 582.3,119.232 Z M592.284,120.336 C592.684,120.336 593.12,120.208 593.592,119.952 C594.064,119.696 594.468,119.368 594.804,118.968 L594.804,118.968 L594.396,118.56 C593.82,119.104 593.3,119.376 592.836,119.376 C592.116,119.376 591.756,118.8 591.756,117.648 L591.756,117.648 L591.756,112.848 L593.844,112.848 L593.844,112.008 L591.756,112.008 L591.756,109.368 L590.94,109.368 C590.844,110.2 590.636,110.856 590.316,111.336 C589.996,111.816 589.492,112.128 588.804,112.272 L588.804,112.272 L588.804,112.848 L590.052,112.848 L590.052,117.648 C590.052,118.544 590.252,119.216 590.652,119.664 C591.052,120.112 591.596,120.336 592.284,120.336 Z M600.804,120.408 C601.476,120.408 602.148,120.26 602.82,119.964 C603.492,119.668 604.044,119.288 604.476,118.824 L604.476,118.824 L604.044,118.296 C603.708,118.616 603.284,118.88 602.772,119.088 C602.26,119.296 601.804,119.4 601.404,119.4 C600.22,119.4 599.368,119.028 598.848,118.284 C598.328,117.54 598.14,116.576 598.284,115.392 L598.284,115.392 L604.068,115.392 C604.356,114.384 604.156,113.5 603.468,112.74 C602.78,111.98 601.892,111.6 600.804,111.6 C599.652,111.6 598.624,112.024 597.72,112.872 C596.816,113.72 596.364,114.76 596.364,115.992 C596.364,117.224 596.78,118.268 597.612,119.124 C598.444,119.98 599.508,120.408 600.804,120.408 Z M602.412,114.504 L598.428,114.504 C598.604,113.912 598.896,113.44 599.304,113.088 C599.712,112.736 600.172,112.56 600.684,112.56 C601.404,112.56 601.912,112.772 602.208,113.196 C602.504,113.62 602.572,114.056 602.412,114.504 L602.412,114.504 Z M611.748,120 L611.748,119.496 C610.948,119.496 610.432,119.328 610.2,118.992 C609.968,118.656 609.852,117.888 609.852,116.688 L609.852,116.688 L609.852,115.368 C609.852,114.52 610.068,113.84 610.5,113.328 C610.932,112.816 611.332,112.56 611.7,112.56 C612.212,112.56 612.468,112.824 612.468,113.352 C612.468,113.576 612.552,113.776 612.72,113.952 C612.888,114.128 613.084,114.216 613.308,114.216 C613.948,114.216 614.268,113.84 614.268,113.088 C614.268,112.736 614.104,112.4 613.776,112.08 C613.448,111.76 612.98,111.6 612.372,111.6 C611.892,111.6 611.412,111.768 610.932,112.104 C610.452,112.44 610.092,112.848 609.852,113.328 C609.724,112.48 609.588,111.904 609.444,111.6 L609.444,111.6 L606.252,112.2 L606.252,112.704 C607.052,112.704 607.568,112.872 607.8,113.208 C608.032,113.544 608.148,114.304 608.148,115.488 L608.148,115.488 L608.148,116.688 C608.148,117.888 608.032,118.656 607.8,118.992 C607.568,119.328 607.052,119.496 606.252,119.496 L606.252,119.496 L606.252,120 L611.748,120 Z M629.676,120.408 C631.868,120.408 633.748,119.664 635.316,118.176 C636.884,116.688 637.668,114.896 637.668,112.8 C637.668,110.704 636.884,108.912 635.316,107.424 C633.748,105.936 631.868,105.192 629.676,105.192 C627.468,105.192 625.58,105.936 624.012,107.424 C622.444,108.912 621.66,110.704 621.66,112.8 C621.66,114.896 622.444,116.688 624.012,118.176 C625.58,119.664 627.468,120.408 629.676,120.408 Z M629.676,119.448 C628.684,119.448 627.804,119.244 627.036,118.836 C626.268,118.428 625.668,117.892 625.236,117.228 C624.804,116.564 624.48,115.856 624.264,115.104 C624.048,114.352 623.94,113.584 623.94,112.8 C623.94,112.016 624.048,111.248 624.264,110.496 C624.48,109.744 624.804,109.032 625.236,108.36 C625.668,107.688 626.268,107.148 627.036,106.74 C627.804,106.332 628.684,106.128 629.676,106.128 C630.668,106.128 631.54,106.336 632.292,106.752 C633.06,107.152 633.66,107.688 634.092,108.36 C634.524,109.032 634.848,109.744 635.064,110.496 C635.28,111.248 635.388,112.016 635.388,112.8 C635.388,113.584 635.28,114.352 635.064,115.104 C634.848,115.856 634.524,116.564 634.092,117.228 C633.66,117.892 633.064,118.428 632.304,118.836 C631.544,119.244 630.668,119.448 629.676,119.448 Z M647.82,120.408 L651.036,119.808 L651.036,119.304 C650.22,119.304 649.696,119.136 649.464,118.8 C649.232,118.464 649.116,117.696 649.116,116.496 L649.116,116.496 L649.116,112.008 L645.516,112.008 L645.516,112.488 C646.332,112.488 646.856,112.656 647.088,112.992 C647.32,113.328 647.436,114.096 647.436,115.296 L647.436,115.296 L647.436,116.88 C647.436,117.552 647.14,118.116 646.548,118.572 C645.956,119.028 645.388,119.256 644.844,119.256 C643.628,119.256 643.02,118.4 643.02,116.688 L643.02,116.688 L643.02,112.008 L639.42,112.008 L639.42,112.488 C640.22,112.488 640.736,112.656 640.968,112.992 C641.2,113.328 641.316,114.096 641.316,115.296 L641.316,115.296 L641.316,116.808 C641.316,119.208 642.308,120.408 644.292,120.408 C645.396,120.408 646.444,119.896 647.436,118.872 C647.564,119.64 647.692,120.152 647.82,120.408 L647.82,120.408 Z M655.644,120.336 C656.044,120.336 656.48,120.208 656.952,119.952 C657.424,119.696 657.828,119.368 658.164,118.968 L658.164,118.968 L657.756,118.56 C657.18,119.104 656.66,119.376 656.196,119.376 C655.476,119.376 655.116,118.8 655.116,117.648 L655.116,117.648 L655.116,112.848 L657.204,112.848 L657.204,112.008 L655.116,112.008 L655.116,109.368 L654.3,109.368 C654.204,110.2 653.996,110.856 653.676,111.336 C653.356,111.816 652.852,112.128 652.164,112.272 L652.164,112.272 L652.164,112.848 L653.412,112.848 L653.412,117.648 C653.412,118.544 653.612,119.216 654.012,119.664 C654.412,120.112 654.956,120.336 655.644,120.336 Z M574.212,142.664 L574.74,142.16 C574.228,141.584 573.804,141.084 573.468,140.66 C573.132,140.236 572.696,139.604 572.16,138.764 C571.624,137.924 571.212,137.008 570.924,136.016 C570.636,135.024 570.492,133.992 570.492,132.92 C570.492,131.848 570.636,130.816 570.924,129.824 C571.212,128.832 571.624,127.916 572.16,127.076 C572.696,126.236 573.132,125.604 573.468,125.18 C573.804,124.756 574.228,124.256 574.74,123.68 L574.74,123.68 L574.188,123.176 C570.604,126.136 568.812,129.384 568.812,132.92 C568.812,136.472 570.612,139.72 574.212,142.664 L574.212,142.664 Z M580.116,140.432 L582.18,134.888 L584.556,140.432 L585.036,140.432 L587.46,133.904 C587.652,133.376 587.876,133.008 588.132,132.8 C588.388,132.592 588.732,132.488 589.164,132.488 L589.164,132.488 L589.164,132.008 L585.804,132.008 L585.804,132.488 C586.604,132.488 586.836,132.96 586.5,133.904 L586.5,133.904 L585.204,137.648 L582.756,132.008 L582.228,132.008 L580.284,137.648 L578.652,133.904 C578.236,132.96 578.524,132.488 579.516,132.488 L579.516,132.488 L579.516,132.008 L575.172,132.008 L575.172,132.488 C575.54,132.488 575.848,132.592 576.096,132.8 C576.344,133.008 576.58,133.376 576.804,133.904 L576.804,133.904 L579.636,140.432 L580.116,140.432 Z M591.876,140.312 C592.804,140.312 593.804,139.832 594.876,138.872 C595.004,139.8 595.548,140.264 596.508,140.264 C597.1,140.264 597.628,140.016 598.092,139.52 L598.092,139.52 L597.756,139.064 C597.516,139.304 597.292,139.424 597.084,139.424 C596.716,139.424 596.532,139.112 596.532,138.488 L596.532,138.488 L596.532,134.864 C596.532,133.712 596.276,132.88 595.764,132.368 C595.252,131.856 594.412,131.6 593.244,131.6 C592.444,131.6 591.736,131.78 591.12,132.14 C590.504,132.5 590.196,132.96 590.196,133.52 C590.196,133.76 590.276,133.96 590.436,134.12 C590.596,134.28 590.796,134.36 591.036,134.36 C591.26,134.36 591.452,134.28 591.612,134.12 C591.772,133.96 591.852,133.76 591.852,133.52 C591.852,133.168 592,132.888 592.296,132.68 C592.592,132.472 592.9,132.368 593.22,132.368 C593.876,132.368 594.308,132.552 594.516,132.92 C594.724,133.288 594.828,133.944 594.828,134.888 C591.42,135.48 589.716,136.616 589.716,138.296 C589.716,138.92 589.924,139.412 590.34,139.772 C590.756,140.132 591.268,140.312 591.876,140.312 Z M592.644,139.232 C592.324,139.232 592.056,139.12 591.84,138.896 C591.624,138.672 591.516,138.376 591.516,138.008 C591.516,136.936 592.62,136.144 594.828,135.632 L594.828,135.632 L594.828,138.08 C593.964,138.848 593.236,139.232 592.644,139.232 Z M602.628,140.336 C603.028,140.336 603.464,140.208 603.936,139.952 C604.408,139.696 604.812,139.368 605.148,138.968 L605.148,138.968 L604.74,138.56 C604.164,139.104 603.644,139.376 603.18,139.376 C602.46,139.376 602.1,138.8 602.1,137.648 L602.1,137.648 L602.1,132.848 L604.188,132.848 L604.188,132.008 L602.1,132.008 L602.1,129.368 L601.284,129.368 C601.188,130.2 600.98,130.856 600.66,131.336 C600.34,131.816 599.836,132.128 599.148,132.272 L599.148,132.272 L599.148,132.848 L600.396,132.848 L600.396,137.648 C600.396,138.544 600.596,139.216 600.996,139.664 C601.396,140.112 601.94,140.336 602.628,140.336 Z M609.708,140.336 C610.108,140.336 610.544,140.208 611.016,139.952 C611.488,139.696 611.892,139.368 612.228,138.968 L612.228,138.968 L611.82,138.56 C611.244,139.104 610.724,139.376 610.26,139.376 C609.54,139.376 609.18,138.8 609.18,137.648 L609.18,137.648 L609.18,132.848 L611.268,132.848 L611.268,132.008 L609.18,132.008 L609.18,129.368 L608.364,129.368 C608.268,130.2 608.06,130.856 607.74,131.336 C607.42,131.816 606.916,132.128 606.228,132.272 L606.228,132.272 L606.228,132.848 L607.476,132.848 L607.476,137.648 C607.476,138.544 607.676,139.216 608.076,139.664 C608.476,140.112 609.02,140.336 609.708,140.336 Z M615.708,140.312 C616.636,140.312 617.636,139.832 618.708,138.872 C618.836,139.8 619.38,140.264 620.34,140.264 C620.932,140.264 621.46,140.016 621.924,139.52 L621.924,139.52 L621.588,139.064 C621.348,139.304 621.124,139.424 620.916,139.424 C620.548,139.424 620.364,139.112 620.364,138.488 L620.364,138.488 L620.364,134.864 C620.364,133.712 620.108,132.88 619.596,132.368 C619.084,131.856 618.244,131.6 617.076,131.6 C616.276,131.6 615.568,131.78 614.952,132.14 C614.336,132.5 614.028,132.96 614.028,133.52 C614.028,133.76 614.108,133.96 614.268,134.12 C614.428,134.28 614.628,134.36 614.868,134.36 C615.092,134.36 615.284,134.28 615.444,134.12 C615.604,133.96 615.684,133.76 615.684,133.52 C615.684,133.168 615.832,132.888 616.128,132.68 C616.424,132.472 616.732,132.368 617.052,132.368 C617.708,132.368 618.14,132.552 618.348,132.92 C618.556,133.288 618.66,133.944 618.66,134.888 C615.252,135.48 613.548,136.616 613.548,138.296 C613.548,138.92 613.756,139.412 614.172,139.772 C614.588,140.132 615.1,140.312 615.708,140.312 Z M616.476,139.232 C616.156,139.232 615.888,139.12 615.672,138.896 C615.456,138.672 615.348,138.376 615.348,138.008 C615.348,136.936 616.452,136.144 618.66,135.632 L618.66,135.632 L618.66,138.08 C617.796,138.848 617.068,139.232 616.476,139.232 Z M626.964,146.408 C628.18,146.408 629.192,146.116 630,145.532 C630.808,144.948 631.212,144.168 631.212,143.192 C631.212,142.376 630.868,141.68 630.18,141.104 C629.492,140.528 628.38,140.176 626.844,140.048 C625.388,139.92 624.66,139.616 624.66,139.136 C624.66,138.672 625.556,138.336 627.348,138.128 C628.18,138.016 628.908,137.656 629.532,137.048 C630.156,136.44 630.468,135.712 630.468,134.864 C630.468,134.128 630.236,133.48 629.772,132.92 C630.028,132.664 630.276,132.536 630.516,132.536 C630.74,132.536 630.904,132.596 631.008,132.716 C631.112,132.836 631.176,132.964 631.2,133.1 C631.224,133.236 631.296,133.36 631.416,133.472 C631.536,133.584 631.716,133.632 631.956,133.616 C632.084,133.616 632.196,133.576 632.292,133.496 C632.58,133.272 632.652,132.936 632.508,132.488 C632.316,131.896 631.868,131.6 631.164,131.6 C630.892,131.6 630.576,131.688 630.216,131.864 C629.856,132.04 629.572,132.256 629.364,132.512 C628.676,131.904 627.852,131.6 626.892,131.6 C625.9,131.6 625.056,131.92 624.36,132.56 C623.664,133.2 623.316,133.968 623.316,134.864 C623.316,135.504 623.496,136.08 623.856,136.592 C624.216,137.104 624.708,137.504 625.332,137.792 C623.988,138.208 623.316,138.848 623.316,139.712 C623.316,140.976 624.452,141.72 626.724,141.944 C627.828,142.056 628.64,142.232 629.16,142.472 C629.68,142.712 629.94,143.096 629.94,143.624 C629.94,144.168 629.64,144.612 629.04,144.956 C628.44,145.3 627.748,145.472 626.964,145.472 C626.468,145.472 625.992,145.4 625.536,145.256 C625.08,145.112 624.696,144.912 624.384,144.656 C624.072,144.4 623.932,144.052 623.964,143.612 C623.996,143.172 624.244,142.688 624.708,142.16 L624.708,142.16 L624.276,141.896 C623.316,142.392 622.804,143 622.74,143.72 C622.676,144.44 623.04,145.068 623.832,145.604 C624.624,146.14 625.668,146.408 626.964,146.408 Z M626.892,137.336 C626.332,137.336 625.9,137.108 625.596,136.652 C625.292,136.196 625.14,135.6 625.14,134.864 C625.14,134.128 625.292,133.528 625.596,133.064 C625.9,132.6 626.332,132.368 626.892,132.368 C627.452,132.368 627.88,132.6 628.176,133.064 C628.472,133.528 628.62,134.128 628.62,134.864 C628.62,135.6 628.468,136.2 628.164,136.664 C627.876,137.112 627.452,137.336 626.892,137.336 Z M638.052,140.408 C638.724,140.408 639.396,140.26 640.068,139.964 C640.74,139.668 641.292,139.288 641.724,138.824 L641.724,138.824 L641.292,138.296 C640.956,138.616 640.532,138.88 640.02,139.088 C639.508,139.296 639.052,139.4 638.652,139.4 C637.468,139.4 636.616,139.028 636.096,138.284 C635.576,137.54 635.388,136.576 635.532,135.392 L635.532,135.392 L641.316,135.392 C641.604,134.384 641.404,133.5 640.716,132.74 C640.028,131.98 639.14,131.6 638.052,131.6 C636.9,131.6 635.872,132.024 634.968,132.872 C634.064,133.72 633.612,134.76 633.612,135.992 C633.612,137.224 634.028,138.268 634.86,139.124 C635.692,139.98 636.756,140.408 638.052,140.408 Z M639.66,134.504 L635.676,134.504 C635.852,133.912 636.144,133.44 636.552,133.088 C636.96,132.736 637.42,132.56 637.932,132.56 C638.652,132.56 639.16,132.772 639.456,133.196 C639.752,133.62 639.82,134.056 639.66,134.504 L639.66,134.504 Z M643.812,142.664 C647.396,139.736 649.188,136.488 649.188,132.92 C649.188,129.368 647.404,126.12 643.836,123.176 L643.836,123.176 L643.26,123.68 C643.788,124.272 644.216,124.776 644.544,125.192 C644.872,125.608 645.308,126.236 645.852,127.076 C646.396,127.916 646.812,128.832 647.1,129.824 C647.388,130.816 647.532,131.848 647.532,132.92 C647.532,133.992 647.388,135.024 647.1,136.016 C646.812,137.008 646.396,137.924 645.852,138.764 C645.308,139.604 644.872,140.232 644.544,140.648 C644.216,141.064 643.788,141.568 643.26,142.16 L643.26,142.16 L643.812,142.664 Z" id="WaterOut(wattage)" fill="#524740" fill-rule="nonzero"></path>
            <line x1="371" y1="172" x2="371" y2="153" id="Line-4-Copy" stroke="#B09679" stroke-width="2" stroke-linecap="square"></line>
            <line x1="537" y1="124" x2="518" y2="124" id="Line-4-Copy-2" stroke="#B09679" stroke-width="2" stroke-linecap="square"></line>
            <line x1="239" y1="6" x2="188" y2="10" id="Line-4-Copy" stroke="#B09679" stroke-width="2" stroke-linecap="square"></line>
            <path d="M358.176105,105.852118 L358.176105,142.852118 L381.176105,142.852118 L381.176105,105.852118 L358.176105,105.852118 Z" id="Rectangle-2" stroke="#555555" fill="#D8D8D8"></path>
            <path d="M348.676105,118.352118 L348.676105,131.352118 L391.676105,131.352118 L391.676105,118.352118 L348.676105,118.352118 Z" id="Rectangle-Copy-2" stroke="#555555" stroke-width="2" fill="#23ABE3"></path>
            <path d="M257,16.4735225 L229,16.4735225 L229,138.564797 L257,138.564797 L257,138.351517 L357.676105,138.352112 L357.676105,110.352112 L257,110.351517 L257,16.4735225 Z" id="Combined-Shape" stroke="#555555" stroke-width="2" fill="#23ABE3"></path>
            <rect id="Rectangle-Copy-3" stroke="#555555" stroke-width="2" fill="#23ABE3" x="381.676105" y="110.352118" width="125" height="28"></rect>
            <rect id="Rectangle-3" stroke="#555555" fill="#B09679" transform="translate(359.676105, 106.852118) rotate(-45.000000) translate(-359.676105, -106.852118) " x="356.176105" y="92.8521177" width="7" height="28"></rect>
            <polygon id="Triangle-2" fill="#B09679" points="551.5 123.962402 533.5 128.5 533.5 119.424805"></polygon>
        </g>
    </g>
</svg>