<?xml version="1.0" encoding="UTF-8"?>
<svg width="900px" height="400px" viewBox="0 0 900 400" version="1.1" xmlns="http://www.w3.org/2000/svg" xmlns:xlink="http://www.w3.org/1999/xlink">
    <!-- Generator: Sketch 60.1 (88133) - https://sketch.com -->
    <title>Resistance_Calc_Circuit</title>
    <desc>Created with Sketch.</desc>
    <g id="Resistance_Calc_Circuit" stroke="none" stroke-width="1" fill="none" fill-rule="evenodd">
        <g id="Illustration_Frame">
            <rect id="Rectangle" stroke="#3D3530" stroke-width="2" fill="#EEEEEE" x="1" y="1" width="898" height="398"></rect>
            <rect id="Rectangle-Copy" stroke="#3D3530" stroke-width="2" fill="#F8FAE4" x="1" y="356" width="898" height="43"></rect>
            <path d="M459.341332,385 L459.341332,378.904 L463.085332,378.904 L464.069332,378.856 L467.501332,385 L469.157332,385 L465.557332,378.52 C466.693332,378.168 467.577332,377.576 468.209332,376.744 C468.841332,375.912 469.157332,374.96 469.157332,373.888 C469.157332,372.448 468.621332,371.252 467.549332,370.3 C466.477332,369.348 465.037332,368.872 463.229332,368.872 L463.229332,368.872 L457.757332,368.872 L457.757332,385 L459.341332,385 Z M463.229332,377.392 L459.341332,377.392 L459.341332,370.384 L463.229332,370.384 C464.525332,370.384 465.565332,370.72 466.349332,371.392 C467.133332,372.064 467.525332,372.896 467.525332,373.888 C467.525332,374.896 467.133332,375.732 466.349332,376.396 C465.565332,377.06 464.525332,377.392 463.229332,377.392 L463.229332,377.392 Z M477.599999,385.072 C479.071999,385.088 480.339999,384.672 481.403999,383.824 C482.467999,382.976 483.183999,382.048 483.551999,381.04 L483.551999,381.04 L482.207999,380.56 C481.903999,381.376 481.327999,382.088 480.479999,382.696 C479.631999,383.304 478.671999,383.608 477.599999,383.608 C476.607999,383.624 475.703999,383.324 474.887999,382.708 C474.071999,382.092 473.527999,381.304 473.255999,380.344 L473.255999,380.344 L483.743999,378.448 C483.743999,378.32 483.735999,378.216 483.719999,378.136 C483.543999,376.6 482.871999,375.312 481.703999,374.272 C480.535999,373.232 479.167999,372.704 477.599999,372.688 C475.871999,372.704 474.407999,373.312 473.207999,374.512 C472.007999,375.712 471.407999,377.176 471.407999,378.904 C471.407999,379.528 471.487999,380.104 471.647999,380.632 C472.047999,381.928 472.803999,382.992 473.915999,383.824 C475.027999,384.656 476.255999,385.072 477.599999,385.072 Z M473.015999,379.048 C473.015999,378.968 473.011999,378.868 473.003999,378.748 C472.995999,378.628 472.991999,378.544 472.991999,378.496 C473.055999,377.312 473.515999,376.296 474.371999,375.448 C475.227999,374.6 476.255999,374.168 477.455999,374.152 C478.479999,374.136 479.407999,374.436 480.239999,375.052 C481.071999,375.668 481.639999,376.464 481.943999,377.44 L481.943999,377.44 L473.015999,379.048 Z M490.866666,385.192 C492.338666,385.192 493.442666,384.88 494.178666,384.256 C494.914666,383.632 495.282666,382.816 495.282666,381.808 C495.282666,381.088 495.018666,380.476 494.490666,379.972 C493.962666,379.468 493.318666,379.084 492.558666,378.82 C491.798666,378.556 491.042666,378.312 490.290666,378.088 C489.538666,377.864 488.898666,377.596 488.370666,377.284 C487.842666,376.972 487.578666,376.6 487.578666,376.168 C487.578666,375.56 487.846666,375.088 488.382666,374.752 C488.918666,374.416 489.618666,374.248 490.482666,374.248 C491.090666,374.248 491.698666,374.384 492.306666,374.656 C492.914666,374.928 493.318666,375.144 493.518666,375.304 C493.718666,375.464 493.874666,375.6 493.986666,375.712 L493.986666,375.712 L495.114666,374.728 L494.610666,374.248 C494.274666,373.928 493.722666,373.608 492.954666,373.288 C492.186666,372.968 491.370666,372.808 490.506666,372.808 C489.050666,372.808 487.950666,373.124 487.206666,373.756 C486.462666,374.388 486.090666,375.2 486.090666,376.192 C486.090666,376.912 486.354666,377.52 486.882666,378.016 C487.410666,378.512 488.054666,378.896 488.814666,379.168 C489.574666,379.44 490.330666,379.688 491.082666,379.912 C491.834666,380.136 492.474666,380.404 493.002666,380.716 C493.530666,381.028 493.794666,381.4 493.794666,381.832 C493.794666,382.44 493.530666,382.912 493.002666,383.248 C492.474666,383.584 491.770666,383.752 490.890666,383.752 C490.298666,383.752 489.698666,383.616 489.090666,383.344 C488.482666,383.072 488.078666,382.856 487.878666,382.696 C487.678666,382.536 487.522666,382.4 487.410666,382.288 L487.410666,382.288 L486.282666,383.248 L486.474666,383.464 C486.602666,383.592 486.802666,383.752 487.074666,383.944 C487.346666,384.136 487.654666,384.324 487.998666,384.508 C488.342666,384.692 488.770666,384.852 489.282666,384.988 C489.794666,385.124 490.322666,385.192 490.866666,385.192 Z M499.645332,369.688 C499.917332,369.688 500.141332,369.592 500.317332,369.4 C500.509332,369.208 500.605332,368.984 500.605332,368.728 C500.605332,368.472 500.513332,368.248 500.329332,368.056 C500.145332,367.864 499.917332,367.768 499.645332,367.768 C499.373332,367.768 499.145332,367.864 498.961332,368.056 C498.777332,368.248 498.685332,368.472 498.685332,368.728 C498.685332,368.984 498.777332,369.208 498.961332,369.4 C499.145332,369.592 499.373332,369.688 499.645332,369.688 Z M500.437332,385 L500.437332,373 L498.853332,373 L498.853332,385 L500.437332,385 Z M508.711999,385.192 C510.183999,385.192 511.287999,384.88 512.023999,384.256 C512.759999,383.632 513.127999,382.816 513.127999,381.808 C513.127999,381.088 512.863999,380.476 512.335999,379.972 C511.807999,379.468 511.163999,379.084 510.403999,378.82 C509.643999,378.556 508.887999,378.312 508.135999,378.088 C507.383999,377.864 506.743999,377.596 506.215999,377.284 C505.687999,376.972 505.423999,376.6 505.423999,376.168 C505.423999,375.56 505.691999,375.088 506.227999,374.752 C506.763999,374.416 507.463999,374.248 508.327999,374.248 C508.935999,374.248 509.543999,374.384 510.151999,374.656 C510.759999,374.928 511.163999,375.144 511.363999,375.304 C511.563999,375.464 511.719999,375.6 511.831999,375.712 L511.831999,375.712 L512.959999,374.728 L512.455999,374.248 C512.119999,373.928 511.567999,373.608 510.799999,373.288 C510.031999,372.968 509.215999,372.808 508.351999,372.808 C506.895999,372.808 505.795999,373.124 505.051999,373.756 C504.307999,374.388 503.935999,375.2 503.935999,376.192 C503.935999,376.912 504.199999,377.52 504.727999,378.016 C505.255999,378.512 505.899999,378.896 506.659999,379.168 C507.419999,379.44 508.175999,379.688 508.927999,379.912 C509.679999,380.136 510.319999,380.404 510.847999,380.716 C511.375999,381.028 511.639999,381.4 511.639999,381.832 C511.639999,382.44 511.375999,382.912 510.847999,383.248 C510.319999,383.584 509.615999,383.752 508.735999,383.752 C508.143999,383.752 507.543999,383.616 506.935999,383.344 C506.327999,383.072 505.923999,382.856 505.723999,382.696 C505.523999,382.536 505.367999,382.4 505.255999,382.288 L505.255999,382.288 L504.127999,383.248 L504.319999,383.464 C504.447999,383.592 504.647999,383.752 504.919999,383.944 C505.191999,384.136 505.499999,384.324 505.843999,384.508 C506.187999,384.692 506.615999,384.852 507.127999,384.988 C507.639999,385.124 508.167999,385.192 508.711999,385.192 Z M520.394666,385.192 C520.986666,385.192 521.562666,385.036 522.122666,384.724 C522.682666,384.412 523.042666,384.168 523.202666,383.992 C523.362666,383.816 523.490666,383.664 523.586666,383.536 L523.586666,383.536 L522.794666,382.312 C522.794666,382.376 522.710666,382.516 522.542666,382.732 C522.374666,382.948 522.114666,383.168 521.762666,383.392 C521.410666,383.616 521.050666,383.728 520.682666,383.728 C520.090666,383.728 519.566666,383.512 519.110666,383.08 C518.654666,382.648 518.426666,382.064 518.426666,381.328 L518.426666,381.328 L518.426666,374.44 L522.050666,374.44 L522.050666,372.976 L518.426666,372.976 L518.426666,368.992 L516.842666,369.184 L516.842666,372.976 L514.922666,372.976 L514.922666,374.44 L516.842666,374.44 L516.842666,381.688 C516.842666,382.824 517.182666,383.692 517.862666,384.292 C518.542666,384.892 519.386666,385.192 520.394666,385.192 Z M531.237332,385.192 C533.125332,385.192 534.685332,384.48 535.917332,383.056 L535.917332,383.056 L535.917332,385 L537.501332,385 L537.501332,373 L535.917332,373 L535.917332,374.944 C534.701332,373.52 533.141332,372.808 531.237332,372.808 C529.525332,372.808 528.065332,373.412 526.857332,374.62 C525.649332,375.828 525.045332,377.288 525.045332,379 C525.045332,380.712 525.649332,382.172 526.857332,383.38 C528.065332,384.588 529.525332,385.192 531.237332,385.192 Z M531.261332,383.68 C529.981332,383.68 528.889332,383.228 527.985332,382.324 C527.081332,381.42 526.629332,380.312 526.629332,379 C526.629332,377.688 527.081332,376.58 527.985332,375.676 C528.889332,374.772 529.981332,374.32 531.261332,374.32 C532.557332,374.32 533.649332,374.772 534.537332,375.676 C535.425332,376.58 535.869332,377.688 535.869332,379 C535.869332,380.312 535.425332,381.42 534.537332,382.324 C533.649332,383.228 532.557332,383.68 531.261332,383.68 Z M542.991999,385 L542.991999,377.968 C542.991999,376.944 543.339999,376.072 544.035999,375.352 C544.731999,374.632 545.575999,374.272 546.567999,374.272 C547.559999,374.272 548.403999,374.632 549.099999,375.352 C549.795999,376.072 550.143999,376.944 550.143999,377.968 L550.143999,377.968 L550.143999,385 L551.751999,385 L551.751999,377.92 C551.751999,376.48 551.279999,375.268 550.335999,374.284 C549.391999,373.3 548.223999,372.808 546.831999,372.808 C545.247999,372.808 543.967999,373.464 542.991999,374.776 L542.991999,374.776 L542.991999,373 L541.407999,373 L541.407999,385 L542.991999,385 Z M560.866666,385.192 C561.954666,385.192 562.966666,384.924 563.902666,384.388 C564.838666,383.852 565.578666,383.136 566.122666,382.24 L566.122666,382.24 L564.682666,381.544 C564.250666,382.2 563.698666,382.72 563.026666,383.104 C562.354666,383.488 561.634666,383.68 560.866666,383.68 C559.570666,383.68 558.478666,383.228 557.590666,382.324 C556.702666,381.42 556.258666,380.312 556.258666,379 C556.258666,377.688 556.702666,376.58 557.590666,375.676 C558.478666,374.772 559.570666,374.32 560.866666,374.32 C561.634666,374.32 562.354666,374.512 563.026666,374.896 C563.698666,375.28 564.250666,375.8 564.682666,376.456 L564.682666,376.456 L566.122666,375.76 C565.578666,374.864 564.838666,374.148 563.902666,373.612 C562.966666,373.076 561.954666,372.808 560.866666,372.808 C559.154666,372.808 557.694666,373.412 556.486666,374.62 C555.278666,375.828 554.674666,377.288 554.674666,379 C554.674666,380.712 555.278666,382.172 556.486666,383.38 C557.694666,384.588 559.154666,385.192 560.866666,385.192 Z M574.685332,385.072 C576.157332,385.088 577.425332,384.672 578.489332,383.824 C579.553332,382.976 580.269332,382.048 580.637332,381.04 L580.637332,381.04 L579.293332,380.56 C578.989332,381.376 578.413332,382.088 577.565332,382.696 C576.717332,383.304 575.757332,383.608 574.685332,383.608 C573.693332,383.624 572.789332,383.324 571.973332,382.708 C571.157332,382.092 570.613332,381.304 570.341332,380.344 L570.341332,380.344 L580.829332,378.448 C580.829332,378.32 580.821332,378.216 580.805332,378.136 C580.629332,376.6 579.957333,375.312 578.789333,374.272 C577.621332,373.232 576.253332,372.704 574.685332,372.688 C572.957333,372.704 571.493332,373.312 570.293332,374.512 C569.093332,375.712 568.493332,377.176 568.493332,378.904 C568.493332,379.528 568.573332,380.104 568.733332,380.632 C569.133332,381.928 569.889333,382.992 571.001332,383.824 C572.113332,384.656 573.341332,385.072 574.685332,385.072 Z M570.101332,379.048 C570.101332,378.968 570.097332,378.868 570.089332,378.748 C570.081332,378.628 570.077332,378.544 570.077332,378.496 C570.141332,377.312 570.601332,376.296 571.457332,375.448 C572.313333,374.6 573.341333,374.168 574.541332,374.152 C575.565332,374.136 576.493332,374.436 577.325332,375.052 C578.157332,375.668 578.725332,376.464 579.029332,377.44 L579.029332,377.44 L570.101332,379.048 Z M593.154666,385 L593.154666,378.904 L597.042666,378.904 C598.850666,378.904 600.290666,378.424 601.362666,377.464 C602.434666,376.504 602.970666,375.312 602.970666,373.888 C602.970666,372.448 602.434666,371.252 601.362666,370.3 C600.290666,369.348 598.850666,368.872 597.042666,368.872 L597.042666,368.872 L591.570666,368.872 L591.570666,385 L593.154666,385 Z M597.042666,377.392 L593.154666,377.392 L593.154666,370.384 L597.042666,370.384 C598.338666,370.384 599.378666,370.72 600.162666,371.392 C600.946666,372.064 601.338666,372.896 601.338666,373.888 C601.338666,374.896 600.946666,375.732 600.162666,376.396 C599.378666,377.06 598.338666,377.392 597.042666,377.392 L597.042666,377.392 Z M607.573333,385 L607.573333,377.968 C607.573333,376.928 607.917333,376.052 608.605333,375.34 C609.293333,374.628 610.141333,374.272 611.149333,374.272 C611.837333,374.272 612.517333,374.52 613.189333,375.016 L613.189333,375.016 L613.741333,373.432 C613.037333,373.016 612.261333,372.808 611.413333,372.808 C609.829333,372.808 608.549333,373.464 607.573333,374.776 L607.573333,374.776 L607.573333,373 L605.989333,373 L605.989333,385 L607.573333,385 Z M621.055999,385.192 C622.767999,385.192 624.223999,384.584 625.423999,383.368 C626.639999,382.152 627.247999,380.696 627.247999,379 C627.247999,377.288 626.643999,375.828 625.435999,374.62 C624.227999,373.412 622.767999,372.808 621.055999,372.808 C619.343999,372.808 617.883999,373.412 616.675999,374.62 C615.467999,375.828 614.863999,377.288 614.863999,379 C614.863999,380.712 615.467999,382.172 616.675999,383.38 C617.883999,384.588 619.343999,385.192 621.055999,385.192 Z M621.079999,383.68 C619.799999,383.68 618.711999,383.228 617.815999,382.324 C616.919999,381.42 616.471999,380.312 616.471999,379 C616.471999,377.688 616.919999,376.576 617.815999,375.664 C618.711999,374.752 619.799999,374.296 621.079999,374.296 C622.375999,374.296 623.467999,374.752 624.355999,375.664 C625.243999,376.576 625.687999,377.688 625.687999,379 C625.687999,380.312 625.243999,381.42 624.355999,382.324 C623.467999,383.228 622.375999,383.68 621.079999,383.68 Z M636.818666,385.192 C638.530666,385.192 639.990666,384.588 641.198666,383.38 C642.406666,382.172 643.010666,380.712 643.010666,379 C643.010666,377.288 642.406666,375.828 641.198666,374.62 C639.990666,373.412 638.530666,372.808 636.818666,372.808 C634.914666,372.808 633.346666,373.528 632.114666,374.968 L632.114666,374.968 L632.114666,367.144 L630.530666,367.144 L630.530666,385 L632.114666,385 L632.114666,383.008 C633.330666,384.464 634.898666,385.192 636.818666,385.192 Z M636.770666,383.68 C635.490666,383.68 634.402666,383.232 633.506666,382.336 C632.610666,381.424 632.162666,380.312 632.162666,379 C632.162666,377.688 632.610666,376.58 633.506666,375.676 C634.402666,374.772 635.490666,374.32 636.770666,374.32 C638.050666,374.32 639.138666,374.772 640.034666,375.676 C640.930666,376.58 641.378666,377.688 641.378666,379 C641.378666,380.312 640.930666,381.42 640.034666,382.324 C639.138666,383.228 638.050666,383.68 636.770666,383.68 Z M647.877333,385 L647.877333,367.144 L646.293333,367.144 L646.293333,385 L647.877333,385 Z M657.303999,385.072 C658.775999,385.088 660.043999,384.672 661.107999,383.824 C662.171999,382.976 662.887999,382.048 663.255999,381.04 L663.255999,381.04 L661.911999,380.56 C661.607999,381.376 661.031999,382.088 660.183999,382.696 C659.335999,383.304 658.375999,383.608 657.303999,383.608 C656.311999,383.624 655.407999,383.324 654.591999,382.708 C653.775999,382.092 653.231999,381.304 652.959999,380.344 L652.959999,380.344 L663.447999,378.448 C663.447999,378.32 663.439999,378.216 663.423999,378.136 C663.247999,376.6 662.575999,375.312 661.407999,374.272 C660.239999,373.232 658.871999,372.704 657.303999,372.688 C655.575999,372.704 654.111999,373.312 652.911999,374.512 C651.711999,375.712 651.111999,377.176 651.111999,378.904 C651.111999,379.528 651.191999,380.104 651.351999,380.632 C651.751999,381.928 652.507999,382.992 653.619999,383.824 C654.731999,384.656 655.959999,385.072 657.303999,385.072 Z M652.719999,379.048 C652.719999,378.968 652.715999,378.868 652.707999,378.748 C652.699999,378.628 652.695999,378.544 652.695999,378.496 C652.759999,377.312 653.219999,376.296 654.075999,375.448 C654.931999,374.6 655.959999,374.168 657.159999,374.152 C658.183999,374.136 659.111999,374.436 659.943999,375.052 C660.775999,375.668 661.343999,376.464 661.647999,377.44 L661.647999,377.44 L652.719999,379.048 Z M667.954666,385 L667.954666,377.968 C667.954666,376.944 668.302666,376.072 668.998666,375.352 C669.694666,374.632 670.538666,374.272 671.530666,374.272 C672.522666,374.272 673.366666,374.632 674.062666,375.352 C674.758666,376.072 675.106666,376.944 675.106666,377.968 L675.106666,377.968 L675.106666,385 L676.714666,385 L676.714666,377.968 C676.714666,376.928 677.058666,376.052 677.746666,375.34 C678.434666,374.628 679.282666,374.272 680.290666,374.272 C681.298666,374.272 682.142666,374.628 682.822666,375.34 C683.502666,376.052 683.842666,376.928 683.842666,377.968 L683.842666,377.968 L683.842666,385 L685.474666,385 L685.474666,377.92 C685.474666,376.48 685.002666,375.268 684.058666,374.284 C683.114666,373.3 681.946666,372.808 680.554666,372.808 C679.562666,372.808 678.674666,373.04 677.890666,373.504 C677.106666,373.968 676.506666,374.592 676.090666,375.376 C675.658666,374.592 675.062666,373.968 674.302666,373.504 C673.542666,373.04 672.706666,372.808 671.794666,372.808 C670.210666,372.808 668.930666,373.464 667.954666,374.776 L667.954666,374.776 L667.954666,373 L666.370666,373 L666.370666,385 L667.954666,385 Z M693.389333,385.192 C694.861333,385.192 695.965333,384.88 696.701333,384.256 C697.437333,383.632 697.805333,382.816 697.805333,381.808 C697.805333,381.088 697.541333,380.476 697.013333,379.972 C696.485333,379.468 695.841333,379.084 695.081333,378.82 C694.321333,378.556 693.565333,378.312 692.813333,378.088 C692.061333,377.864 691.421333,377.596 690.893333,377.284 C690.365333,376.972 690.101333,376.6 690.101333,376.168 C690.101333,375.56 690.369333,375.088 690.905333,374.752 C691.441333,374.416 692.141333,374.248 693.005333,374.248 C693.613333,374.248 694.221333,374.384 694.829333,374.656 C695.437333,374.928 695.841333,375.144 696.041333,375.304 C696.241333,375.464 696.397333,375.6 696.509333,375.712 L696.509333,375.712 L697.637333,374.728 L697.133333,374.248 C696.797333,373.928 696.245333,373.608 695.477333,373.288 C694.709333,372.968 693.893333,372.808 693.029333,372.808 C691.573333,372.808 690.473333,373.124 689.729333,373.756 C688.985333,374.388 688.613333,375.2 688.613333,376.192 C688.613333,376.912 688.877333,377.52 689.405333,378.016 C689.933333,378.512 690.577333,378.896 691.337333,379.168 C692.097333,379.44 692.853333,379.688 693.605333,379.912 C694.357333,380.136 694.997333,380.404 695.525333,380.716 C696.053333,381.028 696.317333,381.4 696.317333,381.832 C696.317333,382.44 696.053333,382.912 695.525333,383.248 C694.997333,383.584 694.293333,383.752 693.413333,383.752 C692.821333,383.752 692.221333,383.616 691.613333,383.344 C691.005333,383.072 690.601333,382.856 690.401333,382.696 C690.201333,382.536 690.045333,382.4 689.933333,382.288 L689.933333,382.288 L688.805333,383.248 L688.997333,383.464 C689.125333,383.592 689.325333,383.752 689.597333,383.944 C689.869333,384.136 690.177333,384.324 690.521333,384.508 C690.865333,384.692 691.293333,384.852 691.805333,384.988 C692.317333,385.124 692.845333,385.192 693.389333,385.192 Z M713.202666,385.192 C714.786666,385.192 716.018666,384.792 716.898666,383.992 C717.778666,383.192 718.218666,382.208 718.218666,381.04 C718.218666,380.128 717.918666,379.336 717.318666,378.664 C716.718666,377.992 715.986666,377.464 715.122666,377.08 C714.258666,376.696 713.398666,376.328 712.542666,375.976 C711.686666,375.624 710.958666,375.188 710.358666,374.668 C709.758666,374.148 709.458666,373.544 709.458666,372.856 C709.458666,372.04 709.766666,371.396 710.382666,370.924 C710.998666,370.452 711.842666,370.216 712.914666,370.216 C713.778666,370.216 714.602666,370.44 715.386666,370.888 C716.170666,371.336 716.770666,371.784 717.186666,372.232 L717.186666,372.232 L718.290666,371.152 C717.778666,370.608 717.022666,370.064 716.022666,369.52 C715.022666,368.976 713.986666,368.704 712.914666,368.704 C711.330666,368.704 710.098666,369.104 709.218666,369.904 C708.338666,370.704 707.898666,371.688 707.898666,372.856 C707.898666,373.768 708.198666,374.56 708.798666,375.232 C709.398666,375.904 710.130666,376.436 710.994666,376.828 C711.858666,377.22 712.718666,377.592 713.574666,377.944 C714.430666,378.296 715.158666,378.728 715.758666,379.24 C716.358666,379.752 716.658666,380.352 716.658666,381.04 C716.658666,381.856 716.350666,382.5 715.734666,382.972 C715.118666,383.444 714.274666,383.68 713.202666,383.68 C712.322666,383.68 711.490666,383.452 710.706666,382.996 C709.922666,382.54 709.330666,382.096 708.930666,381.664 L708.930666,381.664 L707.826666,382.744 C708.338666,383.288 709.094666,383.832 710.094666,384.376 C711.094666,384.92 712.130666,385.192 713.202666,385.192 Z M726.805333,385.192 C728.693333,385.192 730.253333,384.48 731.485333,383.056 L731.485333,383.056 L731.485333,385 L733.069333,385 L733.069333,373 L731.485333,373 L731.485333,374.944 C730.269333,373.52 728.709333,372.808 726.805333,372.808 C725.093333,372.808 723.633333,373.412 722.425333,374.62 C721.217333,375.828 720.613333,377.288 720.613333,379 C720.613333,380.712 721.217333,382.172 722.425333,383.38 C723.633333,384.588 725.093333,385.192 726.805333,385.192 Z M726.829333,383.68 C725.549333,383.68 724.457333,383.228 723.553333,382.324 C722.649333,381.42 722.197333,380.312 722.197333,379 C722.197333,377.688 722.649333,376.58 723.553333,375.676 C724.457333,374.772 725.549333,374.32 726.829333,374.32 C728.125333,374.32 729.217333,374.772 730.105333,375.676 C730.993333,376.58 731.437333,377.688 731.437333,379 C731.437333,380.312 730.993333,381.42 730.105333,382.324 C729.217333,383.228 728.125333,383.68 726.829333,383.68 Z M738.56,385 L738.56,377.968 C738.56,376.944 738.908,376.072 739.604,375.352 C740.3,374.632 741.144,374.272 742.136,374.272 C743.128,374.272 743.972,374.632 744.668,375.352 C745.364,376.072 745.712,376.944 745.712,377.968 L745.712,377.968 L745.712,385 L747.32,385 L747.32,377.968 C747.32,376.928 747.664,376.052 748.352,375.34 C749.04,374.628 749.888,374.272 750.896,374.272 C751.904,374.272 752.748,374.628 753.428,375.34 C754.108,376.052 754.448,376.928 754.448,377.968 L754.448,377.968 L754.448,385 L756.08,385 L756.08,377.92 C756.08,376.48 755.608,375.268 754.664,374.284 C753.72,373.3 752.552,372.808 751.16,372.808 C750.168,372.808 749.28,373.04 748.496,373.504 C747.712,373.968 747.112,374.592 746.696,375.376 C746.264,374.592 745.668,373.968 744.908,373.504 C744.148,373.04 743.312,372.808 742.4,372.808 C740.816,372.808 739.536,373.464 738.56,374.776 L738.56,374.776 L738.56,373 L736.976,373 L736.976,385 L738.56,385 Z M761.642666,390.832 L761.642666,382.984 C762.858666,384.44 764.426666,385.168 766.346666,385.168 C768.058666,385.168 769.518666,384.564 770.726666,383.356 C771.934666,382.148 772.538666,380.688 772.538666,378.976 C772.538666,377.264 771.934666,375.804 770.726666,374.596 C769.518666,373.388 768.058666,372.784 766.346666,372.784 C764.442666,372.784 762.874666,373.504 761.642666,374.944 L761.642666,374.944 L761.642666,372.976 L760.058666,372.976 L760.058666,390.832 L761.642666,390.832 Z M766.298666,383.656 C765.018666,383.656 763.930666,383.208 763.034666,382.312 C762.138666,381.4 761.690666,380.288 761.690666,378.976 C761.690666,377.664 762.138666,376.552 763.034666,375.64 C763.930666,374.728 765.018666,374.272 766.298666,374.272 C767.578666,374.272 768.670666,374.728 769.574666,375.64 C770.478666,376.552 770.930666,377.664 770.930666,378.976 C770.930666,380.288 770.478666,381.396 769.574666,382.3 C768.670666,383.204 767.578666,383.656 766.298666,383.656 Z M777.405333,385 L777.405333,367.144 L775.821333,367.144 L775.821333,385 L777.405333,385 Z M786.832,385.072 C788.304,385.088 789.572,384.672 790.636,383.824 C791.7,382.976 792.416,382.048 792.784,381.04 L792.784,381.04 L791.44,380.56 C791.136,381.376 790.56,382.088 789.712,382.696 C788.864,383.304 787.904,383.608 786.832,383.608 C785.84,383.624 784.936,383.324 784.12,382.708 C783.304,382.092 782.76,381.304 782.488,380.344 L782.488,380.344 L792.976,378.448 C792.976,378.32 792.968,378.216 792.952,378.136 C792.776,376.6 792.104,375.312 790.936,374.272 C789.768,373.232 788.4,372.704 786.832,372.688 C785.104,372.704 783.64,373.312 782.44,374.512 C781.24,375.712 780.64,377.176 780.64,378.904 C780.64,379.528 780.72,380.104 780.88,380.632 C781.28,381.928 782.036,382.992 783.148,383.824 C784.26,384.656 785.488,385.072 786.832,385.072 Z M782.248,379.048 C782.248,378.968 782.244,378.868 782.236,378.748 C782.228,378.628 782.224,378.544 782.224,378.496 C782.288,377.312 782.748,376.296 783.604,375.448 C784.46,374.6 785.488,374.168 786.688,374.152 C787.712,374.136 788.64,374.436 789.472,375.052 C790.304,375.668 790.872,376.464 791.176,377.44 L791.176,377.44 L782.248,379.048 Z M810.869333,385.192 C812.437333,385.192 813.801333,384.836 814.961333,384.124 C816.121333,383.412 817.021333,382.432 817.661333,381.184 L817.661333,381.184 L816.173333,380.296 C815.677333,381.336 814.969333,382.164 814.049333,382.78 C813.129333,383.396 812.069333,383.704 810.869333,383.704 C809.045333,383.704 807.585333,383.064 806.489333,381.784 C805.393333,380.504 804.845333,378.896 804.845333,376.96 C804.845333,375.008 805.393333,373.396 806.489333,372.124 C807.585333,370.852 809.045333,370.216 810.869333,370.216 C812.053333,370.216 813.105333,370.52 814.025333,371.128 C814.945333,371.736 815.661333,372.56 816.173333,373.6 L816.173333,373.6 L817.661333,372.736 C817.021333,371.488 816.121333,370.504 814.961333,369.784 C813.801333,369.064 812.437333,368.704 810.869333,368.704 C808.501333,368.704 806.613333,369.492 805.205333,371.068 C803.797333,372.644 803.093333,374.608 803.093333,376.96 C803.093333,379.296 803.797333,381.252 805.205333,382.828 C806.613333,384.404 808.501333,385.192 810.869333,385.192 Z M822.168,369.688 C822.44,369.688 822.664,369.592 822.84,369.4 C823.032,369.208 823.128,368.984 823.128,368.728 C823.128,368.472 823.036,368.248 822.852,368.056 C822.668,367.864 822.44,367.768 822.168,367.768 C821.896,367.768 821.668,367.864 821.484,368.056 C821.3,368.248 821.208,368.472 821.208,368.728 C821.208,368.984 821.3,369.208 821.484,369.4 C821.668,369.592 821.896,369.688 822.168,369.688 Z M822.96,385 L822.96,373 L821.376,373 L821.376,385 L822.96,385 Z M828.882667,385 L828.882667,377.968 C828.882667,376.928 829.226666,376.052 829.914667,375.34 C830.602666,374.628 831.450666,374.272 832.458666,374.272 C833.146667,374.272 833.826667,374.52 834.498667,375.016 L834.498667,375.016 L835.050667,373.432 C834.346667,373.016 833.570667,372.808 832.722667,372.808 C831.138666,372.808 829.858667,373.464 828.882667,374.776 L828.882667,374.776 L828.882667,373 L827.298667,373 L827.298667,385 L828.882667,385 Z M842.365333,385.192 C843.453333,385.192 844.465333,384.924 845.401333,384.388 C846.337333,383.852 847.077333,383.136 847.621333,382.24 L847.621333,382.24 L846.181333,381.544 C845.749333,382.2 845.197333,382.72 844.525333,383.104 C843.853333,383.488 843.133333,383.68 842.365333,383.68 C841.069333,383.68 839.977333,383.228 839.089333,382.324 C838.201333,381.42 837.757333,380.312 837.757333,379 C837.757333,377.688 838.201333,376.58 839.089333,375.676 C839.977333,374.772 841.069333,374.32 842.365333,374.32 C843.133333,374.32 843.853333,374.512 844.525333,374.896 C845.197333,375.28 845.749333,375.8 846.181333,376.456 L846.181333,376.456 L847.621333,375.76 C847.077333,374.864 846.337333,374.148 845.401333,373.612 C844.465333,373.076 843.453333,372.808 842.365333,372.808 C840.653333,372.808 839.193333,373.412 837.985333,374.62 C836.777333,375.828 836.173333,377.288 836.173333,379 C836.173333,380.712 836.777333,382.172 837.985333,383.38 C839.193333,384.588 840.653333,385.192 842.365333,385.192 Z M855.824,385.192 C857.408,385.192 858.688,384.536 859.664,383.224 L859.664,383.224 L859.664,385 L861.248,385 L861.248,373 L859.664,373 L859.664,380.032 C859.664,381.056 859.32,381.924 858.632,382.636 C857.944,383.348 857.096,383.704 856.088,383.704 C855.096,383.704 854.256,383.348 853.568,382.636 C852.88,381.924 852.536,381.056 852.536,380.032 L852.536,380.032 L852.536,373 L850.904,373 L850.904,380.08 C850.904,381.52 851.376,382.732 852.32,383.716 C853.264,384.7 854.432,385.192 855.824,385.192 Z M866.378667,369.688 C866.650667,369.688 866.874667,369.592 867.050667,369.4 C867.242667,369.208 867.338667,368.984 867.338667,368.728 C867.338667,368.472 867.246667,368.248 867.062667,368.056 C866.878667,367.864 866.650667,367.768 866.378667,367.768 C866.106667,367.768 865.878667,367.864 865.694667,368.056 C865.510667,368.248 865.418667,368.472 865.418667,368.728 C865.418667,368.984 865.510667,369.208 865.694667,369.4 C865.878667,369.592 866.106667,369.688 866.378667,369.688 Z M867.170667,385 L867.170667,373 L865.586667,373 L865.586667,385 L867.170667,385 Z M875.253333,385.192 C875.845333,385.192 876.421333,385.036 876.981333,384.724 C877.541333,384.412 877.901333,384.168 878.061333,383.992 C878.221333,383.816 878.349333,383.664 878.445333,383.536 L878.445333,383.536 L877.653333,382.312 C877.653333,382.376 877.569333,382.516 877.401333,382.732 C877.233333,382.948 876.973333,383.168 876.621333,383.392 C876.269333,383.616 875.909333,383.728 875.541333,383.728 C874.949333,383.728 874.425333,383.512 873.969333,383.08 C873.513333,382.648 873.285333,382.064 873.285333,381.328 L873.285333,381.328 L873.285333,374.44 L876.909333,374.44 L876.909333,372.976 L873.285333,372.976 L873.285333,368.992 L871.701333,369.184 L871.701333,372.976 L869.781333,372.976 L869.781333,374.44 L871.701333,374.44 L871.701333,381.688 C871.701333,382.824 872.041333,383.692 872.721333,384.292 C873.401333,384.892 874.245333,385.192 875.253333,385.192 Z" id="ResistanceProblemsSampleCircuit" fill="#23ABE3" fill-rule="nonzero"></path>
        </g>
        <g transform="translate(88.000000, 25.000000)">
            <polyline id="Path-3" stroke="#524740" stroke-width="2" points="205 164 205 244 397 244"></polyline>
            <polyline id="Path-3-Copy" stroke="#524740" stroke-width="2" points="477 244 547 244 547 159"></polyline>
            <path id="Line-11-Copy-3" d="M567.5,29 L567.5,42.5 L575.5,42.5 L566,61.5 L556.5,42.5 L564.5,42.5 L564.5,29 L567.5,29 Z" fill="#B09679" fill-rule="nonzero"></path>
            <path id="Line-11-Copy-4" d="M186,32.5 L195.5,51.5 L187.5,51.5 L187.5,65 L184.5,65 L184.5,51.5 L176.5,51.5 L186,32.5 Z" fill="#B09679" fill-rule="nonzero"></path>
            <g id="Voltmeter" transform="translate(281.000000, 84.000000)">
                <circle id="Oval" stroke="#524740" stroke-width="2" cx="40" cy="40" r="39"></circle>
                <path d="M42.31,46.408 L47.59,34.192 C47.99,33.264 48.33,32.684 48.61,32.452 C48.89,32.22 49.502,32.104 50.446,32.104 L50.446,32.104 L50.446,31.6 L44.854,31.6 L44.854,32.104 C45.846,32.104 46.482,32.244 46.762,32.524 C47.042,32.804 47.03,33.272 46.726,33.928 L46.726,33.928 L42.694,43.264 L38.614,33.928 C38.31,33.272 38.298,32.804 38.578,32.524 C38.858,32.244 39.494,32.104 40.486,32.104 L40.486,32.104 L40.486,31.6 L33.838,31.6 L33.838,32.104 C34.782,32.104 35.394,32.22 35.674,32.452 C35.954,32.684 36.294,33.264 36.694,34.192 L36.694,34.192 L41.998,46.408 L42.31,46.408 Z" id="V" fill="#524740" fill-rule="nonzero"></path>
            </g>
            <g id="Ammeter" transform="translate(397.000000, 204.000000)">
                <circle id="Oval" stroke="#524740" stroke-width="2" cx="40" cy="40" r="39"></circle>
                <path d="M39.454,46 L39.454,45.496 C38.462,45.496 37.826,45.356 37.546,45.076 C37.266,44.796 37.278,44.328 37.582,43.672 L37.582,43.672 L38.734,41.008 L44.542,41.008 L45.694,43.672 C45.982,44.328 45.99,44.796 45.718,45.076 C45.446,45.356 44.814,45.496 43.822,45.496 L43.822,45.496 L43.822,46 L50.47,46 L50.47,45.496 C49.958,45.496 49.566,45.476 49.294,45.436 C49.022,45.396 48.778,45.268 48.562,45.052 C48.346,44.836 48.194,44.64 48.106,44.464 C48.018,44.288 47.854,43.936 47.614,43.408 L47.614,43.408 L42.31,31.192 L41.998,31.192 L36.718,43.408 C36.478,43.936 36.314,44.288 36.226,44.464 C36.138,44.64 35.986,44.836 35.77,45.052 C35.554,45.268 35.306,45.396 35.026,45.436 C34.746,45.476 34.35,45.496 33.838,45.496 L33.838,45.496 L33.838,46 L39.454,46 Z M44.134,40.12 L39.118,40.12 L41.614,34.336 L44.134,40.12 Z" id="A" fill="#524740" fill-rule="nonzero"></path>
            </g>
            <g id="DC_Power" transform="translate(165.000000, 84.000000)">
                <circle id="Oval" stroke="#524740" stroke-width="2" cx="40" cy="40" r="39"></circle>
                <text id="+" font-family="Lato-Regular, Lato" font-size="18" font-weight="normal" letter-spacing="0.8999999" fill="#524740">
                    <tspan x="35.3300001" y="21">+</tspan>
                </text>
                <text id="-" font-family="Lato-Regular, Lato" font-size="18" font-weight="normal" letter-spacing="0.8999999" fill="#524740">
                    <tspan x="37.2065001" y="72.5">-</tspan>
                </text>
            </g>
            <polyline id="Resistor" stroke="#524740" stroke-width="2" stroke-linejoin="bevel" transform="translate(547.000000, 124.000000) rotate(-270.000000) translate(-547.000000, -124.000000) " points="512 124 517 124 522 111 532 137 542 111 552 137 562 111 572 137 577 124 582 124"></polyline>
            <path d="M381.18,130.408 L386.46,118.192 C386.86,117.264 387.2,116.684 387.48,116.452 C387.76,116.22 388.372,116.104 389.316,116.104 L389.316,116.104 L389.316,115.6 L383.724,115.6 L383.724,116.104 C384.716,116.104 385.352,116.244 385.632,116.524 C385.912,116.804 385.9,117.272 385.596,117.928 L385.596,117.928 L381.564,127.264 L377.484,117.928 C377.18,117.272 377.168,116.804 377.448,116.524 C377.728,116.244 378.364,116.104 379.356,116.104 L379.356,116.104 L379.356,115.6 L372.708,115.6 L372.708,116.104 C373.652,116.104 374.264,116.22 374.544,116.452 C374.824,116.684 375.164,117.264 375.564,118.192 L375.564,118.192 L380.868,130.408 L381.18,130.408 Z M394.428,130.408 C395.756,130.408 396.896,129.976 397.848,129.112 C398.8,128.248 399.276,127.208 399.276,125.992 C399.276,124.776 398.796,123.744 397.836,122.896 C396.892,122.032 395.756,121.6 394.428,121.6 C393.1,121.6 391.96,122.028 391.008,122.884 C390.056,123.74 389.58,124.776 389.58,125.992 C389.58,127.208 390.056,128.248 391.008,129.112 C391.96,129.976 393.1,130.408 394.428,130.408 Z M394.428,129.472 C393.484,129.472 392.764,129.144 392.268,128.488 C391.772,127.832 391.524,127 391.524,125.992 C391.524,124.984 391.772,124.152 392.268,123.496 C392.764,122.84 393.484,122.512 394.428,122.512 C395.372,122.512 396.092,122.836 396.588,123.484 C397.084,124.132 397.332,124.968 397.332,125.992 C397.332,127.016 397.084,127.856 396.588,128.512 C396.092,129.152 395.372,129.472 394.428,129.472 Z M406.38,130 L406.38,129.496 C405.58,129.496 405.064,129.328 404.832,128.992 C404.6,128.656 404.484,127.888 404.484,126.688 L404.484,126.688 L404.484,115.192 L400.884,115.792 L400.884,116.296 C401.684,116.296 402.2,116.464 402.432,116.8 C402.664,117.136 402.78,117.904 402.78,119.104 L402.78,119.104 L402.78,126.688 C402.78,127.888 402.664,128.656 402.432,128.992 C402.2,129.328 401.684,129.496 400.884,129.496 L400.884,129.496 L400.884,130 L406.38,130 Z M411.012,130.336 C411.412,130.336 411.848,130.208 412.32,129.952 C412.792,129.696 413.196,129.368 413.532,128.968 L413.532,128.968 L413.124,128.56 C412.548,129.104 412.028,129.376 411.564,129.376 C410.844,129.376 410.484,128.8 410.484,127.648 L410.484,127.648 L410.484,122.848 L412.572,122.848 L412.572,122.008 L410.484,122.008 L410.484,119.368 L409.668,119.368 C409.572,120.2 409.364,120.856 409.044,121.336 C408.724,121.816 408.22,122.128 407.532,122.272 L407.532,122.272 L407.532,122.848 L408.78,122.848 L408.78,127.648 C408.78,128.544 408.98,129.216 409.38,129.664 C409.78,130.112 410.324,130.336 411.012,130.336 Z M419.94,130 L419.94,129.496 C419.284,129.496 418.872,129.34 418.704,129.028 C418.536,128.716 418.452,127.936 418.452,126.688 L418.452,126.688 L418.452,125.128 C418.452,124.456 418.74,123.888 419.316,123.424 C419.892,122.96 420.428,122.728 420.924,122.728 C422.076,122.728 422.652,123.584 422.652,125.296 L422.652,125.296 L422.652,126.688 C422.652,127.952 422.568,128.736 422.4,129.04 C422.232,129.344 421.812,129.496 421.14,129.496 L421.14,129.496 L421.14,130 L425.844,130 L425.844,129.496 C425.172,129.496 424.752,129.344 424.584,129.04 C424.416,128.736 424.332,127.952 424.332,126.688 L424.332,126.688 L424.332,125.128 C424.332,124.456 424.624,123.888 425.208,123.424 C425.792,122.96 426.332,122.728 426.828,122.728 C427.964,122.728 428.532,123.584 428.532,125.296 L428.532,125.296 L428.532,126.688 C428.532,127.952 428.452,128.736 428.292,129.04 C428.132,129.344 427.716,129.496 427.044,129.496 L427.044,129.496 L427.044,130 L432.132,130 L432.132,129.496 C431.332,129.496 430.816,129.328 430.584,128.992 C430.352,128.656 430.236,127.888 430.236,126.688 L430.236,126.688 L430.236,125.176 C430.236,122.792 429.316,121.6 427.476,121.6 C426.82,121.6 426.176,121.788 425.544,122.164 C424.912,122.54 424.436,122.952 424.116,123.4 C423.748,122.2 422.9,121.6 421.572,121.6 C420.404,121.6 419.364,122.176 418.452,123.328 C418.324,122.48 418.188,121.904 418.044,121.6 L418.044,121.6 L414.852,122.2 L414.852,122.704 C415.652,122.704 416.168,122.872 416.4,123.208 C416.632,123.544 416.748,124.304 416.748,125.488 L416.748,125.488 L416.748,126.688 C416.748,127.888 416.632,128.656 416.4,128.992 C416.168,129.328 415.652,129.496 414.852,129.496 L414.852,129.496 L414.852,130 L419.94,130 Z M438.204,130.408 C438.876,130.408 439.548,130.26 440.22,129.964 C440.892,129.668 441.444,129.288 441.876,128.824 L441.876,128.824 L441.444,128.296 C441.108,128.616 440.684,128.88 440.172,129.088 C439.66,129.296 439.204,129.4 438.804,129.4 C437.62,129.4 436.768,129.028 436.248,128.284 C435.728,127.54 435.54,126.576 435.684,125.392 L435.684,125.392 L441.468,125.392 C441.756,124.384 441.556,123.5 440.868,122.74 C440.18,121.98 439.292,121.6 438.204,121.6 C437.052,121.6 436.024,122.024 435.12,122.872 C434.216,123.72 433.764,124.76 433.764,125.992 C433.764,127.224 434.18,128.268 435.012,129.124 C435.844,129.98 436.908,130.408 438.204,130.408 Z M439.812,124.504 L435.828,124.504 C436.004,123.912 436.296,123.44 436.704,123.088 C437.112,122.736 437.572,122.56 438.084,122.56 C438.804,122.56 439.312,122.772 439.608,123.196 C439.904,123.62 439.972,124.056 439.812,124.504 L439.812,124.504 Z M446.892,130.336 C447.292,130.336 447.728,130.208 448.2,129.952 C448.672,129.696 449.076,129.368 449.412,128.968 L449.412,128.968 L449.004,128.56 C448.428,129.104 447.908,129.376 447.444,129.376 C446.724,129.376 446.364,128.8 446.364,127.648 L446.364,127.648 L446.364,122.848 L448.452,122.848 L448.452,122.008 L446.364,122.008 L446.364,119.368 L445.548,119.368 C445.452,120.2 445.244,120.856 444.924,121.336 C444.604,121.816 444.1,122.128 443.412,122.272 L443.412,122.272 L443.412,122.848 L444.66,122.848 L444.66,127.648 C444.66,128.544 444.86,129.216 445.26,129.664 C445.66,130.112 446.204,130.336 446.892,130.336 Z M455.412,130.408 C456.084,130.408 456.756,130.26 457.428,129.964 C458.1,129.668 458.652,129.288 459.084,128.824 L459.084,128.824 L458.652,128.296 C458.316,128.616 457.892,128.88 457.38,129.088 C456.868,129.296 456.412,129.4 456.012,129.4 C454.828,129.4 453.976,129.028 453.456,128.284 C452.936,127.54 452.748,126.576 452.892,125.392 L452.892,125.392 L458.676,125.392 C458.964,124.384 458.764,123.5 458.076,122.74 C457.388,121.98 456.5,121.6 455.412,121.6 C454.26,121.6 453.232,122.024 452.328,122.872 C451.424,123.72 450.972,124.76 450.972,125.992 C450.972,127.224 451.388,128.268 452.22,129.124 C453.052,129.98 454.116,130.408 455.412,130.408 Z M457.02,124.504 L453.036,124.504 C453.212,123.912 453.504,123.44 453.912,123.088 C454.32,122.736 454.78,122.56 455.292,122.56 C456.012,122.56 456.52,122.772 456.816,123.196 C457.112,123.62 457.18,124.056 457.02,124.504 L457.02,124.504 Z M466.356,130 L466.356,129.496 C465.556,129.496 465.04,129.328 464.808,128.992 C464.576,128.656 464.46,127.888 464.46,126.688 L464.46,126.688 L464.46,125.368 C464.46,124.52 464.676,123.84 465.108,123.328 C465.54,122.816 465.94,122.56 466.308,122.56 C466.82,122.56 467.076,122.824 467.076,123.352 C467.076,123.576 467.16,123.776 467.328,123.952 C467.496,124.128 467.692,124.216 467.916,124.216 C468.556,124.216 468.876,123.84 468.876,123.088 C468.876,122.736 468.712,122.4 468.384,122.08 C468.056,121.76 467.588,121.6 466.98,121.6 C466.5,121.6 466.02,121.768 465.54,122.104 C465.06,122.44 464.7,122.848 464.46,123.328 C464.332,122.48 464.196,121.904 464.052,121.6 L464.052,121.6 L460.86,122.2 L460.86,122.704 C461.66,122.704 462.176,122.872 462.408,123.208 C462.64,123.544 462.756,124.304 462.756,125.488 L462.756,125.488 L462.756,126.688 C462.756,127.888 462.64,128.656 462.408,128.992 C462.176,129.328 461.66,129.496 460.86,129.496 L460.86,129.496 L460.86,130 L466.356,130 Z" id="Voltmeter" fill="#524740" fill-rule="nonzero"></path>
            <path d="M578.54,130 L578.54,129.496 C577.548,129.496 576.92,129.328 576.656,128.992 C576.392,128.656 576.26,127.888 576.26,126.688 L576.26,126.688 L576.26,123.688 L577.388,123.688 L582.14,130 L586.1,130 L586.1,129.496 C584.692,129.336 583.204,128.32 581.636,126.448 L581.636,126.448 L579.284,123.688 C580.612,123.544 581.656,123.104 582.416,122.368 C583.176,121.632 583.556,120.728 583.556,119.656 C583.556,118.488 583.1,117.52 582.188,116.752 C581.276,115.984 580.012,115.6 578.396,115.6 L578.396,115.6 L572.06,115.6 L572.06,116.104 C573.052,116.104 573.68,116.268 573.944,116.596 C574.208,116.924 574.34,117.688 574.34,118.888 L574.34,118.888 L574.34,126.688 C574.34,127.888 574.208,128.656 573.944,128.992 C573.68,129.328 573.052,129.496 572.06,129.496 L572.06,129.496 L572.06,130 L578.54,130 Z M578.372,122.824 L576.26,122.824 L576.26,116.488 L578.372,116.488 C579.364,116.488 580.12,116.784 580.64,117.376 C581.16,117.968 581.42,118.728 581.42,119.656 C581.42,120.584 581.16,121.344 580.64,121.936 C580.12,122.528 579.364,122.824 578.372,122.824 L578.372,122.824 Z M591.62,130.408 C592.292,130.408 592.964,130.26 593.636,129.964 C594.308,129.668 594.86,129.288 595.292,128.824 L595.292,128.824 L594.86,128.296 C594.524,128.616 594.1,128.88 593.588,129.088 C593.076,129.296 592.62,129.4 592.22,129.4 C591.036,129.4 590.184,129.028 589.664,128.284 C589.144,127.54 588.956,126.576 589.1,125.392 L589.1,125.392 L594.884,125.392 C595.172,124.384 594.972,123.5 594.284,122.74 C593.596,121.98 592.708,121.6 591.62,121.6 C590.468,121.6 589.44,122.024 588.536,122.872 C587.632,123.72 587.18,124.76 587.18,125.992 C587.18,127.224 587.596,128.268 588.428,129.124 C589.26,129.98 590.324,130.408 591.62,130.408 Z M593.228,124.504 L589.244,124.504 C589.42,123.912 589.712,123.44 590.12,123.088 C590.528,122.736 590.988,122.56 591.5,122.56 C592.22,122.56 592.728,122.772 593.024,123.196 C593.32,123.62 593.388,124.056 593.228,124.504 L593.228,124.504 Z M597.812,130.408 C597.812,130.088 597.844,129.872 597.908,129.76 C597.972,129.648 598.084,129.62 598.244,129.676 C598.404,129.732 598.576,129.812 598.76,129.916 C598.944,130.02 599.188,130.128 599.492,130.24 C599.796,130.352 600.092,130.408 600.38,130.408 C601.18,130.408 601.856,130.164 602.408,129.676 C602.96,129.188 603.236,128.56 603.236,127.792 C603.236,126.88 602.684,126.112 601.58,125.488 L601.58,125.488 L600.428,124.864 C599.868,124.56 599.484,124.308 599.276,124.108 C599.068,123.908 598.964,123.672 598.964,123.4 C598.964,123.096 599.068,122.848 599.276,122.656 C599.484,122.464 599.788,122.368 600.188,122.368 C600.764,122.368 601.232,122.572 601.592,122.98 C601.952,123.388 602.132,123.856 602.132,124.384 L602.132,124.384 L602.636,124.384 L602.636,121.6 L602.132,121.6 C602.132,121.92 602.096,122.1 602.024,122.14 C601.952,122.18 601.82,122.144 601.628,122.032 C601.052,121.744 600.492,121.6 599.948,121.6 C599.308,121.6 598.744,121.808 598.256,122.224 C597.768,122.64 597.524,123.16 597.524,123.784 C597.524,124.808 598.052,125.608 599.108,126.184 L599.108,126.184 L600.452,126.904 C601.348,127.384 601.796,127.872 601.796,128.368 C601.796,128.704 601.664,128.992 601.4,129.232 C601.136,129.472 600.812,129.592 600.428,129.592 C599.644,129.592 599.012,129.3 598.532,128.716 C598.052,128.132 597.812,127.528 597.812,126.904 L597.812,126.904 L597.308,126.904 L597.308,130.408 L597.812,130.408 Z M607.964,119.248 C608.252,119.248 608.5,119.144 608.708,118.936 C608.916,118.728 609.02,118.472 609.02,118.168 C609.02,117.88 608.916,117.632 608.708,117.424 C608.5,117.216 608.252,117.112 607.964,117.112 C607.676,117.112 607.428,117.216 607.22,117.424 C607.012,117.632 606.908,117.88 606.908,118.168 C606.908,118.472 607.012,118.728 607.22,118.936 C607.428,119.144 607.676,119.248 607.964,119.248 Z M610.724,130 L610.724,129.496 C609.924,129.496 609.408,129.328 609.176,128.992 C608.944,128.656 608.828,127.888 608.828,126.688 L608.828,126.688 L608.828,121.6 L605.228,122.2 L605.228,122.704 C606.028,122.704 606.544,122.872 606.776,123.208 C607.008,123.544 607.124,124.304 607.124,125.488 L607.124,125.488 L607.124,126.688 C607.124,127.888 607.008,128.656 606.776,128.992 C606.544,129.328 606.028,129.496 605.228,129.496 L605.228,129.496 L605.228,130 L610.724,130 Z M612.836,130.408 C612.836,130.088 612.868,129.872 612.932,129.76 C612.996,129.648 613.108,129.62 613.268,129.676 C613.428,129.732 613.6,129.812 613.784,129.916 C613.968,130.02 614.212,130.128 614.516,130.24 C614.82,130.352 615.116,130.408 615.404,130.408 C616.204,130.408 616.88,130.164 617.432,129.676 C617.984,129.188 618.26,128.56 618.26,127.792 C618.26,126.88 617.708,126.112 616.604,125.488 L616.604,125.488 L615.452,124.864 C614.892,124.56 614.508,124.308 614.3,124.108 C614.092,123.908 613.988,123.672 613.988,123.4 C613.988,123.096 614.092,122.848 614.3,122.656 C614.508,122.464 614.812,122.368 615.212,122.368 C615.788,122.368 616.256,122.572 616.616,122.98 C616.976,123.388 617.156,123.856 617.156,124.384 L617.156,124.384 L617.66,124.384 L617.66,121.6 L617.156,121.6 C617.156,121.92 617.12,122.1 617.048,122.14 C616.976,122.18 616.844,122.144 616.652,122.032 C616.076,121.744 615.516,121.6 614.972,121.6 C614.332,121.6 613.768,121.808 613.28,122.224 C612.792,122.64 612.548,123.16 612.548,123.784 C612.548,124.808 613.076,125.608 614.132,126.184 L614.132,126.184 L615.476,126.904 C616.372,127.384 616.82,127.872 616.82,128.368 C616.82,128.704 616.688,128.992 616.424,129.232 C616.16,129.472 615.836,129.592 615.452,129.592 C614.668,129.592 614.036,129.3 613.556,128.716 C613.076,128.132 612.836,127.528 612.836,126.904 L612.836,126.904 L612.332,126.904 L612.332,130.408 L612.836,130.408 Z M623.492,130.336 C623.892,130.336 624.328,130.208 624.8,129.952 C625.272,129.696 625.676,129.368 626.012,128.968 L626.012,128.968 L625.604,128.56 C625.028,129.104 624.508,129.376 624.044,129.376 C623.324,129.376 622.964,128.8 622.964,127.648 L622.964,127.648 L622.964,122.848 L625.052,122.848 L625.052,122.008 L622.964,122.008 L622.964,119.368 L622.148,119.368 C622.052,120.2 621.844,120.856 621.524,121.336 C621.204,121.816 620.7,122.128 620.012,122.272 L620.012,122.272 L620.012,122.848 L621.26,122.848 L621.26,127.648 C621.26,128.544 621.46,129.216 621.86,129.664 C622.26,130.112 622.804,130.336 623.492,130.336 Z M632.42,130.408 C633.748,130.408 634.888,129.976 635.84,129.112 C636.792,128.248 637.268,127.208 637.268,125.992 C637.268,124.776 636.788,123.744 635.828,122.896 C634.884,122.032 633.748,121.6 632.42,121.6 C631.092,121.6 629.952,122.028 629,122.884 C628.048,123.74 627.572,124.776 627.572,125.992 C627.572,127.208 628.048,128.248 629,129.112 C629.952,129.976 631.092,130.408 632.42,130.408 Z M632.42,129.472 C631.476,129.472 630.756,129.144 630.26,128.488 C629.764,127.832 629.516,127 629.516,125.992 C629.516,124.984 629.764,124.152 630.26,123.496 C630.756,122.84 631.476,122.512 632.42,122.512 C633.364,122.512 634.084,122.836 634.58,123.484 C635.076,124.132 635.324,124.968 635.324,125.992 C635.324,127.016 635.076,127.856 634.58,128.512 C634.084,129.152 633.364,129.472 632.42,129.472 Z M644.828,130 L644.828,129.496 C644.028,129.496 643.512,129.328 643.28,128.992 C643.048,128.656 642.932,127.888 642.932,126.688 L642.932,126.688 L642.932,125.368 C642.932,124.52 643.148,123.84 643.58,123.328 C644.012,122.816 644.412,122.56 644.78,122.56 C645.292,122.56 645.548,122.824 645.548,123.352 C645.548,123.576 645.632,123.776 645.8,123.952 C645.968,124.128 646.164,124.216 646.388,124.216 C647.028,124.216 647.348,123.84 647.348,123.088 C647.348,122.736 647.184,122.4 646.856,122.08 C646.528,121.76 646.06,121.6 645.452,121.6 C644.972,121.6 644.492,121.768 644.012,122.104 C643.532,122.44 643.172,122.848 642.932,123.328 C642.804,122.48 642.668,121.904 642.524,121.6 L642.524,121.6 L639.332,122.2 L639.332,122.704 C640.132,122.704 640.648,122.872 640.88,123.208 C641.112,123.544 641.228,124.304 641.228,125.488 L641.228,125.488 L641.228,126.688 C641.228,127.888 641.112,128.656 640.88,128.992 C640.648,129.328 640.132,129.496 639.332,129.496 L639.332,129.496 L639.332,130 L644.828,130 Z" id="Resistor" fill="#524740" fill-rule="nonzero"></path>
            <path d="M396.744,306 L396.744,305.496 C395.752,305.496 395.116,305.356 394.836,305.076 C394.556,304.796 394.568,304.328 394.872,303.672 L394.872,303.672 L396.024,301.008 L401.832,301.008 L402.984,303.672 C403.272,304.328 403.28,304.796 403.008,305.076 C402.736,305.356 402.104,305.496 401.112,305.496 L401.112,305.496 L401.112,306 L407.76,306 L407.76,305.496 C407.248,305.496 406.856,305.476 406.584,305.436 C406.312,305.396 406.068,305.268 405.852,305.052 C405.636,304.836 405.484,304.64 405.396,304.464 C405.308,304.288 405.144,303.936 404.904,303.408 L404.904,303.408 L399.6,291.192 L399.288,291.192 L394.008,303.408 C393.768,303.936 393.604,304.288 393.516,304.464 C393.428,304.64 393.276,304.836 393.06,305.052 C392.844,305.268 392.596,305.396 392.316,305.436 C392.036,305.476 391.64,305.496 391.128,305.496 L391.128,305.496 L391.128,306 L396.744,306 Z M401.424,300.12 L396.408,300.12 L398.904,294.336 L401.424,300.12 Z M412.848,306 L412.848,305.496 C412.192,305.496 411.78,305.34 411.612,305.028 C411.444,304.716 411.36,303.936 411.36,302.688 L411.36,302.688 L411.36,301.128 C411.36,300.456 411.648,299.888 412.224,299.424 C412.8,298.96 413.336,298.728 413.832,298.728 C414.984,298.728 415.56,299.584 415.56,301.296 L415.56,301.296 L415.56,302.688 C415.56,303.952 415.476,304.736 415.308,305.04 C415.14,305.344 414.72,305.496 414.048,305.496 L414.048,305.496 L414.048,306 L418.752,306 L418.752,305.496 C418.08,305.496 417.66,305.344 417.492,305.04 C417.324,304.736 417.24,303.952 417.24,302.688 L417.24,302.688 L417.24,301.128 C417.24,300.456 417.532,299.888 418.116,299.424 C418.7,298.96 419.24,298.728 419.736,298.728 C420.872,298.728 421.44,299.584 421.44,301.296 L421.44,301.296 L421.44,302.688 C421.44,303.952 421.36,304.736 421.2,305.04 C421.04,305.344 420.624,305.496 419.952,305.496 L419.952,305.496 L419.952,306 L425.04,306 L425.04,305.496 C424.24,305.496 423.724,305.328 423.492,304.992 C423.26,304.656 423.144,303.888 423.144,302.688 L423.144,302.688 L423.144,301.176 C423.144,298.792 422.224,297.6 420.384,297.6 C419.728,297.6 419.084,297.788 418.452,298.164 C417.82,298.54 417.344,298.952 417.024,299.4 C416.656,298.2 415.808,297.6 414.48,297.6 C413.312,297.6 412.272,298.176 411.36,299.328 C411.232,298.48 411.096,297.904 410.952,297.6 L410.952,297.6 L407.76,298.2 L407.76,298.704 C408.56,298.704 409.076,298.872 409.308,299.208 C409.54,299.544 409.656,300.304 409.656,301.488 L409.656,301.488 L409.656,302.688 C409.656,303.888 409.54,304.656 409.308,304.992 C409.076,305.328 408.56,305.496 407.76,305.496 L407.76,305.496 L407.76,306 L412.848,306 Z M431.52,306 L431.52,305.496 C430.864,305.496 430.452,305.34 430.284,305.028 C430.116,304.716 430.032,303.936 430.032,302.688 L430.032,302.688 L430.032,301.128 C430.032,300.456 430.32,299.888 430.896,299.424 C431.472,298.96 432.008,298.728 432.504,298.728 C433.656,298.728 434.232,299.584 434.232,301.296 L434.232,301.296 L434.232,302.688 C434.232,303.952 434.148,304.736 433.98,305.04 C433.812,305.344 433.392,305.496 432.72,305.496 L432.72,305.496 L432.72,306 L437.424,306 L437.424,305.496 C436.752,305.496 436.332,305.344 436.164,305.04 C435.996,304.736 435.912,303.952 435.912,302.688 L435.912,302.688 L435.912,301.128 C435.912,300.456 436.204,299.888 436.788,299.424 C437.372,298.96 437.912,298.728 438.408,298.728 C439.544,298.728 440.112,299.584 440.112,301.296 L440.112,301.296 L440.112,302.688 C440.112,303.952 440.032,304.736 439.872,305.04 C439.712,305.344 439.296,305.496 438.624,305.496 L438.624,305.496 L438.624,306 L443.712,306 L443.712,305.496 C442.912,305.496 442.396,305.328 442.164,304.992 C441.932,304.656 441.816,303.888 441.816,302.688 L441.816,302.688 L441.816,301.176 C441.816,298.792 440.896,297.6 439.056,297.6 C438.4,297.6 437.756,297.788 437.124,298.164 C436.492,298.54 436.016,298.952 435.696,299.4 C435.328,298.2 434.48,297.6 433.152,297.6 C431.984,297.6 430.944,298.176 430.032,299.328 C429.904,298.48 429.768,297.904 429.624,297.6 L429.624,297.6 L426.432,298.2 L426.432,298.704 C427.232,298.704 427.748,298.872 427.98,299.208 C428.212,299.544 428.328,300.304 428.328,301.488 L428.328,301.488 L428.328,302.688 C428.328,303.888 428.212,304.656 427.98,304.992 C427.748,305.328 427.232,305.496 426.432,305.496 L426.432,305.496 L426.432,306 L431.52,306 Z M449.784,306.408 C450.456,306.408 451.128,306.26 451.8,305.964 C452.472,305.668 453.024,305.288 453.456,304.824 L453.456,304.824 L453.024,304.296 C452.688,304.616 452.264,304.88 451.752,305.088 C451.24,305.296 450.784,305.4 450.384,305.4 C449.2,305.4 448.348,305.028 447.828,304.284 C447.308,303.54 447.12,302.576 447.264,301.392 L447.264,301.392 L453.048,301.392 C453.336,300.384 453.136,299.5 452.448,298.74 C451.76,297.98 450.872,297.6 449.784,297.6 C448.632,297.6 447.604,298.024 446.7,298.872 C445.796,299.72 445.344,300.76 445.344,301.992 C445.344,303.224 445.76,304.268 446.592,305.124 C447.424,305.98 448.488,306.408 449.784,306.408 Z M451.392,300.504 L447.408,300.504 C447.584,299.912 447.876,299.44 448.284,299.088 C448.692,298.736 449.152,298.56 449.664,298.56 C450.384,298.56 450.892,298.772 451.188,299.196 C451.484,299.62 451.552,300.056 451.392,300.504 L451.392,300.504 Z M458.472,306.336 C458.872,306.336 459.308,306.208 459.78,305.952 C460.252,305.696 460.656,305.368 460.992,304.968 L460.992,304.968 L460.584,304.56 C460.008,305.104 459.488,305.376 459.024,305.376 C458.304,305.376 457.944,304.8 457.944,303.648 L457.944,303.648 L457.944,298.848 L460.032,298.848 L460.032,298.008 L457.944,298.008 L457.944,295.368 L457.128,295.368 C457.032,296.2 456.824,296.856 456.504,297.336 C456.184,297.816 455.68,298.128 454.992,298.272 L454.992,298.272 L454.992,298.848 L456.24,298.848 L456.24,303.648 C456.24,304.544 456.44,305.216 456.84,305.664 C457.24,306.112 457.784,306.336 458.472,306.336 Z M466.992,306.408 C467.664,306.408 468.336,306.26 469.008,305.964 C469.68,305.668 470.232,305.288 470.664,304.824 L470.664,304.824 L470.232,304.296 C469.896,304.616 469.472,304.88 468.96,305.088 C468.448,305.296 467.992,305.4 467.592,305.4 C466.408,305.4 465.556,305.028 465.036,304.284 C464.516,303.54 464.328,302.576 464.472,301.392 L464.472,301.392 L470.256,301.392 C470.544,300.384 470.344,299.5 469.656,298.74 C468.968,297.98 468.08,297.6 466.992,297.6 C465.84,297.6 464.812,298.024 463.908,298.872 C463.004,299.72 462.552,300.76 462.552,301.992 C462.552,303.224 462.968,304.268 463.8,305.124 C464.632,305.98 465.696,306.408 466.992,306.408 Z M468.6,300.504 L464.616,300.504 C464.792,299.912 465.084,299.44 465.492,299.088 C465.9,298.736 466.36,298.56 466.872,298.56 C467.592,298.56 468.1,298.772 468.396,299.196 C468.692,299.62 468.76,300.056 468.6,300.504 L468.6,300.504 Z M477.936,306 L477.936,305.496 C477.136,305.496 476.62,305.328 476.388,304.992 C476.156,304.656 476.04,303.888 476.04,302.688 L476.04,302.688 L476.04,301.368 C476.04,300.52 476.256,299.84 476.688,299.328 C477.12,298.816 477.52,298.56 477.888,298.56 C478.4,298.56 478.656,298.824 478.656,299.352 C478.656,299.576 478.74,299.776 478.908,299.952 C479.076,300.128 479.272,300.216 479.496,300.216 C480.136,300.216 480.456,299.84 480.456,299.088 C480.456,298.736 480.292,298.4 479.964,298.08 C479.636,297.76 479.168,297.6 478.56,297.6 C478.08,297.6 477.6,297.768 477.12,298.104 C476.64,298.44 476.28,298.848 476.04,299.328 C475.912,298.48 475.776,297.904 475.632,297.6 L475.632,297.6 L472.44,298.2 L472.44,298.704 C473.24,298.704 473.756,298.872 473.988,299.208 C474.22,299.544 474.336,300.304 474.336,301.488 L474.336,301.488 L474.336,302.688 C474.336,303.888 474.22,304.656 473.988,304.992 C473.756,305.328 473.24,305.496 472.44,305.496 L472.44,305.496 L472.44,306 L477.936,306 Z" id="Ammeter" fill="#524740" fill-rule="nonzero"></path>
            <path d="M2.692,130.408 C2.788,129.96 3.02,129.584 3.388,129.28 C3.548,129.312 3.828,129.428 4.228,129.628 C4.628,129.828 5.076,130.008 5.572,130.168 C6.068,130.328 6.588,130.408 7.132,130.408 C8.412,130.408 9.496,130.008 10.384,129.208 C11.272,128.408 11.716,127.368 11.716,126.088 C11.716,124.504 10.876,123.288 9.196,122.44 L9.196,122.44 L6.916,121.264 C5.812,120.688 5.048,120.196 4.624,119.788 C4.2,119.38 3.988,118.88 3.988,118.288 C3.988,117.68 4.208,117.172 4.648,116.764 C5.088,116.356 5.644,116.152 6.316,116.152 C8.524,116.152 9.748,117.552 9.988,120.352 L9.988,120.352 L10.492,120.352 L10.492,115.072 L10.012,115.072 C9.916,115.504 9.684,115.872 9.316,116.176 C8.42,115.52 7.444,115.192 6.388,115.192 C5.236,115.192 4.284,115.536 3.532,116.224 C2.78,116.912 2.404,117.76 2.404,118.768 C2.404,119.632 2.66,120.408 3.172,121.096 C3.684,121.784 4.316,122.328 5.068,122.728 L5.068,122.728 L7.372,123.904 C9.212,124.864 10.132,125.832 10.132,126.808 C10.132,127.576 9.848,128.208 9.28,128.704 C8.712,129.2 7.996,129.448 7.132,129.448 C6.54,129.448 6,129.368 5.512,129.208 C5.024,129.048 4.632,128.848 4.336,128.608 C4.04,128.368 3.78,128.08 3.556,127.744 C3.332,127.408 3.168,127.104 3.064,126.832 C2.96,126.56 2.88,126.276 2.824,125.98 C2.768,125.684 2.736,125.484 2.728,125.38 C2.72,125.276 2.716,125.192 2.716,125.128 L2.716,125.128 L2.212,125.128 L2.212,130.408 L2.692,130.408 Z M18.892,130.408 C20.22,130.408 21.36,129.976 22.312,129.112 C23.264,128.248 23.74,127.208 23.74,125.992 C23.74,124.776 23.26,123.744 22.3,122.896 C21.356,122.032 20.22,121.6 18.892,121.6 C17.564,121.6 16.424,122.028 15.472,122.884 C14.52,123.74 14.044,124.776 14.044,125.992 C14.044,127.208 14.52,128.248 15.472,129.112 C16.424,129.976 17.564,130.408 18.892,130.408 Z M18.892,129.472 C17.948,129.472 17.228,129.144 16.732,128.488 C16.236,127.832 15.988,127 15.988,125.992 C15.988,124.984 16.236,124.152 16.732,123.496 C17.228,122.84 17.948,122.512 18.892,122.512 C19.836,122.512 20.556,122.836 21.052,123.484 C21.548,124.132 21.796,124.968 21.796,125.992 C21.796,127.016 21.548,127.856 21.052,128.512 C20.556,129.152 19.836,129.472 18.892,129.472 Z M33.748,130.408 L36.964,129.808 L36.964,129.304 C36.148,129.304 35.624,129.136 35.392,128.8 C35.16,128.464 35.044,127.696 35.044,126.496 L35.044,126.496 L35.044,122.008 L31.444,122.008 L31.444,122.488 C32.26,122.488 32.784,122.656 33.016,122.992 C33.248,123.328 33.364,124.096 33.364,125.296 L33.364,125.296 L33.364,126.88 C33.364,127.552 33.068,128.116 32.476,128.572 C31.884,129.028 31.316,129.256 30.772,129.256 C29.556,129.256 28.948,128.4 28.948,126.688 L28.948,126.688 L28.948,122.008 L25.348,122.008 L25.348,122.488 C26.148,122.488 26.664,122.656 26.896,122.992 C27.128,123.328 27.244,124.096 27.244,125.296 L27.244,125.296 L27.244,126.808 C27.244,129.208 28.236,130.408 30.22,130.408 C31.324,130.408 32.372,129.896 33.364,128.872 C33.492,129.64 33.62,130.152 33.748,130.408 L33.748,130.408 Z M43.828,130 L43.828,129.496 C43.028,129.496 42.512,129.328 42.28,128.992 C42.048,128.656 41.932,127.888 41.932,126.688 L41.932,126.688 L41.932,125.368 C41.932,124.52 42.148,123.84 42.58,123.328 C43.012,122.816 43.412,122.56 43.78,122.56 C44.292,122.56 44.548,122.824 44.548,123.352 C44.548,123.576 44.632,123.776 44.8,123.952 C44.968,124.128 45.164,124.216 45.388,124.216 C46.028,124.216 46.348,123.84 46.348,123.088 C46.348,122.736 46.184,122.4 45.856,122.08 C45.528,121.76 45.06,121.6 44.452,121.6 C43.972,121.6 43.492,121.768 43.012,122.104 C42.532,122.44 42.172,122.848 41.932,123.328 C41.804,122.48 41.668,121.904 41.524,121.6 L41.524,121.6 L38.332,122.2 L38.332,122.704 C39.132,122.704 39.648,122.872 39.88,123.208 C40.112,123.544 40.228,124.304 40.228,125.488 L40.228,125.488 L40.228,126.688 C40.228,127.888 40.112,128.656 39.88,128.992 C39.648,129.328 39.132,129.496 38.332,129.496 L38.332,129.496 L38.332,130 L43.828,130 Z M52.252,130.408 C53.66,130.408 54.852,129.88 55.828,128.824 L55.828,128.824 L55.42,128.296 C54.636,129.032 53.78,129.4 52.852,129.4 C51.892,129.4 51.168,129.116 50.68,128.548 C50.192,127.98 49.948,127.2 49.948,126.208 C49.948,125.12 50.172,124.208 50.62,123.472 C51.068,122.736 51.612,122.368 52.252,122.368 C52.828,122.368 53.116,122.712 53.116,123.4 C53.116,123.672 53.208,123.9 53.392,124.084 C53.576,124.268 53.796,124.36 54.052,124.36 C54.42,124.36 54.688,124.252 54.856,124.036 C55.024,123.82 55.108,123.584 55.108,123.328 C55.108,122.848 54.868,122.44 54.388,122.104 C53.908,121.768 53.196,121.6 52.252,121.6 C51.212,121.6 50.244,122.036 49.348,122.908 C48.452,123.78 48.004,124.88 48.004,126.208 C48.004,127.44 48.384,128.448 49.144,129.232 C49.904,130.016 50.94,130.408 52.252,130.408 Z M61.876,130.408 C62.548,130.408 63.22,130.26 63.892,129.964 C64.564,129.668 65.116,129.288 65.548,128.824 L65.548,128.824 L65.116,128.296 C64.78,128.616 64.356,128.88 63.844,129.088 C63.332,129.296 62.876,129.4 62.476,129.4 C61.292,129.4 60.44,129.028 59.92,128.284 C59.4,127.54 59.212,126.576 59.356,125.392 L59.356,125.392 L65.14,125.392 C65.428,124.384 65.228,123.5 64.54,122.74 C63.852,121.98 62.964,121.6 61.876,121.6 C60.724,121.6 59.696,122.024 58.792,122.872 C57.888,123.72 57.436,124.76 57.436,125.992 C57.436,127.224 57.852,128.268 58.684,129.124 C59.516,129.98 60.58,130.408 61.876,130.408 Z M63.484,124.504 L59.5,124.504 C59.676,123.912 59.968,123.44 60.376,123.088 C60.784,122.736 61.244,122.56 61.756,122.56 C62.476,122.56 62.984,122.772 63.28,123.196 C63.576,123.62 63.644,124.056 63.484,124.504 L63.484,124.504 Z M79.564,130.408 L84.844,118.192 C85.244,117.264 85.584,116.684 85.864,116.452 C86.144,116.22 86.756,116.104 87.7,116.104 L87.7,116.104 L87.7,115.6 L82.108,115.6 L82.108,116.104 C83.1,116.104 83.736,116.244 84.016,116.524 C84.296,116.804 84.284,117.272 83.98,117.928 L83.98,117.928 L79.948,127.264 L75.868,117.928 C75.564,117.272 75.552,116.804 75.832,116.524 C76.112,116.244 76.748,116.104 77.74,116.104 L77.74,116.104 L77.74,115.6 L71.092,115.6 L71.092,116.104 C72.036,116.104 72.648,116.22 72.928,116.452 C73.208,116.684 73.548,117.264 73.948,118.192 L73.948,118.192 L79.252,130.408 L79.564,130.408 Z M92.812,130.408 C94.14,130.408 95.28,129.976 96.232,129.112 C97.184,128.248 97.66,127.208 97.66,125.992 C97.66,124.776 97.18,123.744 96.22,122.896 C95.276,122.032 94.14,121.6 92.812,121.6 C91.484,121.6 90.344,122.028 89.392,122.884 C88.44,123.74 87.964,124.776 87.964,125.992 C87.964,127.208 88.44,128.248 89.392,129.112 C90.344,129.976 91.484,130.408 92.812,130.408 Z M92.812,129.472 C91.868,129.472 91.148,129.144 90.652,128.488 C90.156,127.832 89.908,127 89.908,125.992 C89.908,124.984 90.156,124.152 90.652,123.496 C91.148,122.84 91.868,122.512 92.812,122.512 C93.756,122.512 94.476,122.836 94.972,123.484 C95.468,124.132 95.716,124.968 95.716,125.992 C95.716,127.016 95.468,127.856 94.972,128.512 C94.476,129.152 93.756,129.472 92.812,129.472 Z M104.764,130 L104.764,129.496 C103.964,129.496 103.448,129.328 103.216,128.992 C102.984,128.656 102.868,127.888 102.868,126.688 L102.868,126.688 L102.868,115.192 L99.268,115.792 L99.268,116.296 C100.068,116.296 100.584,116.464 100.816,116.8 C101.048,117.136 101.164,117.904 101.164,119.104 L101.164,119.104 L101.164,126.688 C101.164,127.888 101.048,128.656 100.816,128.992 C100.584,129.328 100.068,129.496 99.268,129.496 L99.268,129.496 L99.268,130 L104.764,130 Z M109.396,130.336 C109.796,130.336 110.232,130.208 110.704,129.952 C111.176,129.696 111.58,129.368 111.916,128.968 L111.916,128.968 L111.508,128.56 C110.932,129.104 110.412,129.376 109.948,129.376 C109.228,129.376 108.868,128.8 108.868,127.648 L108.868,127.648 L108.868,122.848 L110.956,122.848 L110.956,122.008 L108.868,122.008 L108.868,119.368 L108.052,119.368 C107.956,120.2 107.748,120.856 107.428,121.336 C107.108,121.816 106.604,122.128 105.916,122.272 L105.916,122.272 L105.916,122.848 L107.164,122.848 L107.164,127.648 C107.164,128.544 107.364,129.216 107.764,129.664 C108.164,130.112 108.708,130.336 109.396,130.336 Z M115.396,130.312 C116.324,130.312 117.324,129.832 118.396,128.872 C118.524,129.8 119.068,130.264 120.028,130.264 C120.62,130.264 121.148,130.016 121.612,129.52 L121.612,129.52 L121.276,129.064 C121.036,129.304 120.812,129.424 120.604,129.424 C120.236,129.424 120.052,129.112 120.052,128.488 L120.052,128.488 L120.052,124.864 C120.052,123.712 119.796,122.88 119.284,122.368 C118.772,121.856 117.932,121.6 116.764,121.6 C115.964,121.6 115.256,121.78 114.64,122.14 C114.024,122.5 113.716,122.96 113.716,123.52 C113.716,123.76 113.796,123.96 113.956,124.12 C114.116,124.28 114.316,124.36 114.556,124.36 C114.78,124.36 114.972,124.28 115.132,124.12 C115.292,123.96 115.372,123.76 115.372,123.52 C115.372,123.168 115.52,122.888 115.816,122.68 C116.112,122.472 116.42,122.368 116.74,122.368 C117.396,122.368 117.828,122.552 118.036,122.92 C118.244,123.288 118.348,123.944 118.348,124.888 C114.94,125.48 113.236,126.616 113.236,128.296 C113.236,128.92 113.444,129.412 113.86,129.772 C114.276,130.132 114.788,130.312 115.396,130.312 Z M116.164,129.232 C115.844,129.232 115.576,129.12 115.36,128.896 C115.144,128.672 115.036,128.376 115.036,128.008 C115.036,126.936 116.14,126.144 118.348,125.632 L118.348,125.632 L118.348,128.08 C117.484,128.848 116.756,129.232 116.164,129.232 Z M126.652,136.408 C127.868,136.408 128.88,136.116 129.688,135.532 C130.496,134.948 130.9,134.168 130.9,133.192 C130.9,132.376 130.556,131.68 129.868,131.104 C129.18,130.528 128.068,130.176 126.532,130.048 C125.076,129.92 124.348,129.616 124.348,129.136 C124.348,128.672 125.244,128.336 127.036,128.128 C127.868,128.016 128.596,127.656 129.22,127.048 C129.844,126.44 130.156,125.712 130.156,124.864 C130.156,124.128 129.924,123.48 129.46,122.92 C129.716,122.664 129.964,122.536 130.204,122.536 C130.428,122.536 130.592,122.596 130.696,122.716 C130.8,122.836 130.864,122.964 130.888,123.1 C130.912,123.236 130.984,123.36 131.104,123.472 C131.224,123.584 131.404,123.632 131.644,123.616 C131.772,123.616 131.884,123.576 131.98,123.496 C132.268,123.272 132.34,122.936 132.196,122.488 C132.004,121.896 131.556,121.6 130.852,121.6 C130.58,121.6 130.264,121.688 129.904,121.864 C129.544,122.04 129.26,122.256 129.052,122.512 C128.364,121.904 127.54,121.6 126.58,121.6 C125.588,121.6 124.744,121.92 124.048,122.56 C123.352,123.2 123.004,123.968 123.004,124.864 C123.004,125.504 123.184,126.08 123.544,126.592 C123.904,127.104 124.396,127.504 125.02,127.792 C123.676,128.208 123.004,128.848 123.004,129.712 C123.004,130.976 124.14,131.72 126.412,131.944 C127.516,132.056 128.328,132.232 128.848,132.472 C129.368,132.712 129.628,133.096 129.628,133.624 C129.628,134.168 129.328,134.612 128.728,134.956 C128.128,135.3 127.436,135.472 126.652,135.472 C126.156,135.472 125.68,135.4 125.224,135.256 C124.768,135.112 124.384,134.912 124.072,134.656 C123.76,134.4 123.62,134.052 123.652,133.612 C123.684,133.172 123.932,132.688 124.396,132.16 L124.396,132.16 L123.964,131.896 C123.004,132.392 122.492,133 122.428,133.72 C122.364,134.44 122.728,135.068 123.52,135.604 C124.312,136.14 125.356,136.408 126.652,136.408 Z M126.58,127.336 C126.02,127.336 125.588,127.108 125.284,126.652 C124.98,126.196 124.828,125.6 124.828,124.864 C124.828,124.128 124.98,123.528 125.284,123.064 C125.588,122.6 126.02,122.368 126.58,122.368 C127.14,122.368 127.568,122.6 127.864,123.064 C128.16,123.528 128.308,124.128 128.308,124.864 C128.308,125.6 128.156,126.2 127.852,126.664 C127.564,127.112 127.14,127.336 126.58,127.336 Z M137.74,130.408 C138.412,130.408 139.084,130.26 139.756,129.964 C140.428,129.668 140.98,129.288 141.412,128.824 L141.412,128.824 L140.98,128.296 C140.644,128.616 140.22,128.88 139.708,129.088 C139.196,129.296 138.74,129.4 138.34,129.4 C137.156,129.4 136.304,129.028 135.784,128.284 C135.264,127.54 135.076,126.576 135.22,125.392 L135.22,125.392 L141.004,125.392 C141.292,124.384 141.092,123.5 140.404,122.74 C139.716,121.98 138.828,121.6 137.74,121.6 C136.588,121.6 135.56,122.024 134.656,122.872 C133.752,123.72 133.3,124.76 133.3,125.992 C133.3,127.224 133.716,128.268 134.548,129.124 C135.38,129.98 136.444,130.408 137.74,130.408 Z M139.348,124.504 L135.364,124.504 C135.54,123.912 135.832,123.44 136.24,123.088 C136.648,122.736 137.108,122.56 137.62,122.56 C138.34,122.56 138.848,122.772 139.144,123.196 C139.44,123.62 139.508,124.056 139.348,124.504 L139.348,124.504 Z" id="SourceVoltage" fill="#524740" fill-rule="nonzero"></path>
            <line x1="321" y1="5.2141472" x2="321" y2="85" id="Path-5" stroke="#524740" stroke-width="2"></line>
            <line x1="321" y1="163.214147" x2="321" y2="243" id="Path-5-Copy" stroke="#524740" stroke-width="2"></line>
            <polyline id="Path-6" stroke="#524740" stroke-width="2" points="205 84 205 5 547 5 547 89.7554793"></polyline>
            <circle id="Oval-2" fill="#524740" cx="321" cy="5" r="5"></circle>
            <circle id="Oval-2-Copy" fill="#524740" cx="321" cy="244" r="5"></circle>
        </g>
    </g>
</svg>