<?xml version="1.0" encoding="utf-8"?>
<svg width="900px" height="290px" viewBox="0 0 900 290" version="1.1" xmlns:xlink="http://www.w3.org/1999/xlink" xmlns="http://www.w3.org/2000/svg">
  <defs>
    <filter id="filter_1">
      <feColorMatrix in="SourceGraphic" type="matrix" values="0 0 0 0 0.32156864 0 0 0 0 0.2784314 0 0 0 0 0.2509804 0 0 0 1 0" color-interpolation-filters="sRGB" />
    </filter>
    <path d="M900 0L900 0L900 290L0 290L0 0L900 0Z" id="path_1" />
    <clipPath id="clip_1">
      <use xlink:href="#path_1" clip-rule="evenodd" fill-rule="evenodd" />
    </clipPath>
  </defs>
  <g id="Resistors_in_Series" clip-path="url(#clip_1)">
    <path d="M900 0L900 0L900 290L0 290L0 0L900 0Z" id="Resistors_in_Series" fill="none" stroke="none" />
    <g id="Resistors_in_Series" transform="translate(2 1)">
      <g id="Illustration_Frame">
        <path d="M0 0L898 0L898 241L0 241L0 0Z" id="Rectangle" fill="#EEEEEE" fill-rule="evenodd" stroke="#3D3530" stroke-width="2" />
      </g>
      <g id="Group" transform="translate(266 18.599998)">
        <path d="M308 43.4L366 43.4L366 155.4L223 155.4" id="Path-2" fill="none" fill-rule="evenodd" stroke="#524740" stroke-width="2" />
        <path d="M58 43.4L0 43.4L0 155.4L143 155.4" id="Path-2-Copy-2" fill="none" fill-rule="evenodd" stroke="#524740" stroke-width="2" />
        <path d="M226.9 189.808C226.996 189.36 227.228 188.984 227.596 188.68C227.756 188.712 228.036 188.828 228.436 189.028C228.836 189.228 229.284 189.408 229.78 189.568C230.276 189.728 230.796 189.808 231.34 189.808C232.62 189.808 233.704 189.408 234.592 188.608C235.48 187.808 235.924 186.768 235.924 185.488C235.924 183.904 235.084 182.688 233.404 181.84L233.404 181.84L231.124 180.664C230.02 180.088 229.256 179.596 228.832 179.188C228.408 178.78 228.196 178.28 228.196 177.688C228.196 177.08 228.416 176.572 228.856 176.164C229.296 175.756 229.852 175.552 230.524 175.552C232.732 175.552 233.956 176.952 234.196 179.752L234.196 179.752L234.7 179.752L234.7 174.472L234.22 174.472C234.124 174.904 233.892 175.272 233.524 175.576C232.628 174.92 231.652 174.592 230.596 174.592C229.444 174.592 228.492 174.936 227.74 175.624C226.988 176.312 226.612 177.16 226.612 178.168C226.612 179.032 226.868 179.808 227.38 180.496C227.892 181.184 228.524 181.728 229.276 182.128L229.276 182.128L231.58 183.304C233.42 184.264 234.34 185.232 234.34 186.208C234.34 186.976 234.056 187.608 233.488 188.104C232.92 188.6 232.204 188.848 231.34 188.848C230.748 188.848 230.208 188.768 229.72 188.608C229.232 188.448 228.84 188.248 228.544 188.008C228.248 187.768 227.988 187.48 227.764 187.144C227.54 186.808 227.376 186.504 227.272 186.232C227.168 185.96 227.088 185.676 227.032 185.38C226.976 185.084 226.944 184.884 226.936 184.78C226.928 184.676 226.924 184.592 226.924 184.528L226.924 184.528L226.42 184.528L226.42 189.808L226.9 189.808L226.9 189.808ZM243.1 189.808C244.428 189.808 245.568 189.376 246.52 188.512C247.472 187.648 247.948 186.608 247.948 185.392C247.948 184.176 247.468 183.144 246.508 182.296C245.564 181.432 244.428 181 243.1 181C241.772 181 240.632 181.428 239.68 182.284C238.728 183.14 238.252 184.176 238.252 185.392C238.252 186.608 238.728 187.648 239.68 188.512C240.632 189.376 241.772 189.808 243.1 189.808L243.1 189.808ZM243.1 188.872C242.156 188.872 241.436 188.544 240.94 187.888C240.444 187.232 240.196 186.4 240.196 185.392C240.196 184.384 240.444 183.552 240.94 182.896C241.436 182.24 242.156 181.912 243.1 181.912C244.044 181.912 244.764 182.236 245.26 182.884C245.756 183.532 246.004 184.368 246.004 185.392C246.004 186.416 245.756 187.256 245.26 187.912C244.764 188.552 244.044 188.872 243.1 188.872L243.1 188.872ZM257.956 189.808L261.172 189.208L261.172 188.704C260.356 188.704 259.832 188.536 259.6 188.2C259.368 187.864 259.252 187.096 259.252 185.896L259.252 185.896L259.252 181.408L255.652 181.408L255.652 181.888C256.468 181.888 256.992 182.056 257.224 182.392C257.456 182.728 257.572 183.496 257.572 184.696L257.572 184.696L257.572 186.28C257.572 186.952 257.276 187.516 256.684 187.972C256.092 188.428 255.524 188.656 254.98 188.656C253.764 188.656 253.156 187.8 253.156 186.088L253.156 186.088L253.156 181.408L249.556 181.408L249.556 181.888C250.356 181.888 250.872 182.056 251.104 182.392C251.336 182.728 251.452 183.496 251.452 184.696L251.452 184.696L251.452 186.208C251.452 188.608 252.444 189.808 254.428 189.808C255.532 189.808 256.58 189.296 257.572 188.272C257.7 189.04 257.828 189.552 257.956 189.808L257.956 189.808L257.956 189.808ZM268.036 189.4L268.036 188.896C267.236 188.896 266.72 188.728 266.488 188.392C266.256 188.056 266.14 187.288 266.14 186.088L266.14 186.088L266.14 184.768C266.14 183.92 266.356 183.24 266.788 182.728C267.22 182.216 267.62 181.96 267.988 181.96C268.5 181.96 268.756 182.224 268.756 182.752C268.756 182.976 268.84 183.176 269.008 183.352C269.176 183.528 269.372 183.616 269.596 183.616C270.236 183.616 270.556 183.24 270.556 182.488C270.556 182.136 270.392 181.8 270.064 181.48C269.736 181.16 269.268 181 268.66 181C268.18 181 267.7 181.168 267.22 181.504C266.74 181.84 266.38 182.248 266.14 182.728C266.012 181.88 265.876 181.304 265.732 181L265.732 181L262.54 181.6L262.54 182.104C263.34 182.104 263.856 182.272 264.088 182.608C264.32 182.944 264.436 183.704 264.436 184.888L264.436 184.888L264.436 186.088C264.436 187.288 264.32 188.056 264.088 188.392C263.856 188.728 263.34 188.896 262.54 188.896L262.54 188.896L262.54 189.4L268.036 189.4L268.036 189.4ZM276.46 189.808C277.868 189.808 279.06 189.28 280.036 188.224L280.036 188.224L279.628 187.696C278.844 188.432 277.988 188.8 277.06 188.8C276.1 188.8 275.376 188.516 274.888 187.948C274.4 187.38 274.156 186.6 274.156 185.608C274.156 184.52 274.38 183.608 274.828 182.872C275.276 182.136 275.82 181.768 276.46 181.768C277.036 181.768 277.324 182.112 277.324 182.8C277.324 183.072 277.416 183.3 277.6 183.484C277.784 183.668 278.004 183.76 278.26 183.76C278.628 183.76 278.896 183.652 279.064 183.436C279.232 183.22 279.316 182.984 279.316 182.728C279.316 182.248 279.076 181.84 278.596 181.504C278.116 181.168 277.404 181 276.46 181C275.42 181 274.452 181.436 273.556 182.308C272.66 183.18 272.212 184.28 272.212 185.608C272.212 186.84 272.592 187.848 273.352 188.632C274.112 189.416 275.148 189.808 276.46 189.808L276.46 189.808ZM286.084 189.808C286.756 189.808 287.428 189.66 288.1 189.364C288.772 189.068 289.324 188.688 289.756 188.224L289.756 188.224L289.324 187.696C288.988 188.016 288.564 188.28 288.052 188.488C287.54 188.696 287.084 188.8 286.684 188.8C285.5 188.8 284.648 188.428 284.128 187.684C283.608 186.94 283.42 185.976 283.564 184.792L283.564 184.792L289.348 184.792C289.636 183.784 289.436 182.9 288.748 182.14C288.06 181.38 287.172 181 286.084 181C284.932 181 283.904 181.424 283 182.272C282.096 183.12 281.644 184.16 281.644 185.392C281.644 186.624 282.06 187.668 282.892 188.524C283.724 189.38 284.788 189.808 286.084 189.808L286.084 189.808ZM287.692 183.904L283.708 183.904C283.884 183.312 284.176 182.84 284.584 182.488C284.992 182.136 285.452 181.96 285.964 181.96C286.684 181.96 287.192 182.172 287.488 182.596C287.784 183.02 287.852 183.456 287.692 183.904L287.692 183.904L287.692 183.904ZM303.772 189.808L309.052 177.592C309.452 176.664 309.792 176.084 310.072 175.852C310.352 175.62 310.964 175.504 311.908 175.504L311.908 175.504L311.908 175L306.316 175L306.316 175.504C307.308 175.504 307.944 175.644 308.224 175.924C308.504 176.204 308.492 176.672 308.188 177.328L308.188 177.328L304.156 186.664L300.076 177.328C299.772 176.672 299.76 176.204 300.04 175.924C300.32 175.644 300.956 175.504 301.948 175.504L301.948 175.504L301.948 175L295.3 175L295.3 175.504C296.244 175.504 296.856 175.62 297.136 175.852C297.416 176.084 297.756 176.664 298.156 177.592L298.156 177.592L303.46 189.808L303.772 189.808L303.772 189.808ZM317.02 189.808C318.348 189.808 319.488 189.376 320.44 188.512C321.392 187.648 321.868 186.608 321.868 185.392C321.868 184.176 321.388 183.144 320.428 182.296C319.484 181.432 318.348 181 317.02 181C315.692 181 314.552 181.428 313.6 182.284C312.648 183.14 312.172 184.176 312.172 185.392C312.172 186.608 312.648 187.648 313.6 188.512C314.552 189.376 315.692 189.808 317.02 189.808L317.02 189.808ZM317.02 188.872C316.076 188.872 315.356 188.544 314.86 187.888C314.364 187.232 314.116 186.4 314.116 185.392C314.116 184.384 314.364 183.552 314.86 182.896C315.356 182.24 316.076 181.912 317.02 181.912C317.964 181.912 318.684 182.236 319.18 182.884C319.676 183.532 319.924 184.368 319.924 185.392C319.924 186.416 319.676 187.256 319.18 187.912C318.684 188.552 317.964 188.872 317.02 188.872L317.02 188.872ZM328.972 189.4L328.972 188.896C328.172 188.896 327.656 188.728 327.424 188.392C327.192 188.056 327.076 187.288 327.076 186.088L327.076 186.088L327.076 174.592L323.476 175.192L323.476 175.696C324.276 175.696 324.792 175.864 325.024 176.2C325.256 176.536 325.372 177.304 325.372 178.504L325.372 178.504L325.372 186.088C325.372 187.288 325.256 188.056 325.024 188.392C324.792 188.728 324.276 188.896 323.476 188.896L323.476 188.896L323.476 189.4L328.972 189.4L328.972 189.4ZM333.604 189.736C334.004 189.736 334.44 189.608 334.912 189.352C335.384 189.096 335.788 188.768 336.124 188.368L336.124 188.368L335.716 187.96C335.14 188.504 334.62 188.776 334.156 188.776C333.436 188.776 333.076 188.2 333.076 187.048L333.076 187.048L333.076 182.248L335.164 182.248L335.164 181.408L333.076 181.408L333.076 178.768L332.26 178.768C332.164 179.6 331.956 180.256 331.636 180.736C331.316 181.216 330.812 181.528 330.124 181.672L330.124 181.672L330.124 182.248L331.372 182.248L331.372 187.048C331.372 187.944 331.572 188.616 331.972 189.064C332.372 189.512 332.916 189.736 333.604 189.736L333.604 189.736ZM339.604 189.712C340.532 189.712 341.532 189.232 342.604 188.272C342.732 189.2 343.276 189.664 344.236 189.664C344.828 189.664 345.356 189.416 345.82 188.92L345.82 188.92L345.484 188.464C345.244 188.704 345.02 188.824 344.812 188.824C344.444 188.824 344.26 188.512 344.26 187.888L344.26 187.888L344.26 184.264C344.26 183.112 344.004 182.28 343.492 181.768C342.98 181.256 342.14 181 340.972 181C340.172 181 339.464 181.18 338.848 181.54C338.232 181.9 337.924 182.36 337.924 182.92C337.924 183.16 338.004 183.36 338.164 183.52C338.324 183.68 338.524 183.76 338.764 183.76C338.988 183.76 339.18 183.68 339.34 183.52C339.5 183.36 339.58 183.16 339.58 182.92C339.58 182.568 339.728 182.288 340.024 182.08C340.32 181.872 340.628 181.768 340.948 181.768C341.604 181.768 342.036 181.952 342.244 182.32C342.452 182.688 342.556 183.344 342.556 184.288C339.148 184.88 337.444 186.016 337.444 187.696C337.444 188.32 337.652 188.812 338.068 189.172C338.484 189.532 338.996 189.712 339.604 189.712L339.604 189.712ZM340.372 188.632C340.052 188.632 339.784 188.52 339.568 188.296C339.352 188.072 339.244 187.776 339.244 187.408C339.244 186.336 340.348 185.544 342.556 185.032L342.556 185.032L342.556 187.48C341.692 188.248 340.964 188.632 340.372 188.632L340.372 188.632ZM350.86 195.808C352.076 195.808 353.088 195.516 353.896 194.932C354.704 194.348 355.108 193.568 355.108 192.592C355.108 191.776 354.764 191.08 354.076 190.504C353.388 189.928 352.276 189.576 350.74 189.448C349.284 189.32 348.556 189.016 348.556 188.536C348.556 188.072 349.452 187.736 351.244 187.528C352.076 187.416 352.804 187.056 353.428 186.448C354.052 185.84 354.364 185.112 354.364 184.264C354.364 183.528 354.132 182.88 353.668 182.32C353.924 182.064 354.172 181.936 354.412 181.936C354.636 181.936 354.8 181.996 354.904 182.116C355.008 182.236 355.072 182.364 355.096 182.5L355.123 182.6C355.159 182.697 355.222 182.788 355.312 182.872C355.432 182.984 355.612 183.032 355.852 183.016C355.98 183.016 356.092 182.976 356.188 182.896C356.476 182.672 356.548 182.336 356.404 181.888C356.212 181.296 355.764 181 355.06 181C354.788 181 354.472 181.088 354.112 181.264C353.752 181.44 353.468 181.656 353.26 181.912C352.572 181.304 351.748 181 350.788 181C349.796 181 348.952 181.32 348.256 181.96C347.56 182.6 347.212 183.368 347.212 184.264C347.212 184.904 347.392 185.48 347.752 185.992C348.112 186.504 348.604 186.904 349.228 187.192C347.884 187.608 347.212 188.248 347.212 189.112C347.212 190.376 348.348 191.12 350.62 191.344C351.724 191.456 352.536 191.632 353.056 191.872C353.576 192.112 353.836 192.496 353.836 193.024C353.836 193.568 353.536 194.012 352.936 194.356C352.336 194.7 351.644 194.872 350.86 194.872C350.364 194.872 349.888 194.8 349.432 194.656C348.976 194.512 348.592 194.312 348.28 194.056C347.968 193.8 347.828 193.452 347.86 193.012C347.892 192.572 348.14 192.088 348.604 191.56L348.604 191.56L348.172 191.296C347.212 191.792 346.7 192.4 346.636 193.12C346.572 193.84 346.936 194.468 347.728 195.004C348.52 195.54 349.564 195.808 350.86 195.808L350.86 195.808ZM350.788 186.736C350.228 186.736 349.796 186.508 349.492 186.052C349.188 185.596 349.036 185 349.036 184.264C349.036 183.528 349.188 182.928 349.492 182.464C349.796 182 350.228 181.768 350.788 181.768C351.348 181.768 351.776 182 352.072 182.464C352.368 182.928 352.516 183.528 352.516 184.264C352.516 185 352.364 185.6 352.06 186.064C351.772 186.512 351.348 186.736 350.788 186.736L350.788 186.736ZM361.948 189.808C362.62 189.808 363.292 189.66 363.964 189.364C364.636 189.068 365.188 188.688 365.62 188.224L365.62 188.224L365.188 187.696C364.852 188.016 364.428 188.28 363.916 188.488C363.404 188.696 362.948 188.8 362.548 188.8C361.364 188.8 360.512 188.428 359.992 187.684C359.472 186.94 359.284 185.976 359.428 184.792L359.428 184.792L365.212 184.792C365.5 183.784 365.3 182.9 364.612 182.14C363.924 181.38 363.036 181 361.948 181C360.796 181 359.768 181.424 358.864 182.272C357.96 183.12 357.508 184.16 357.508 185.392C357.508 186.624 357.924 187.668 358.756 188.524C359.588 189.38 360.652 189.808 361.948 189.808L361.948 189.808ZM363.556 183.904L359.572 183.904C359.748 183.312 360.04 182.84 360.448 182.488C360.856 182.136 361.316 181.96 361.828 181.96C362.548 181.96 363.056 182.172 363.352 182.596C363.648 183.02 363.716 183.456 363.556 183.904L363.556 183.904L363.556 183.904ZM379.468 192.064L379.996 191.56C379.484 190.984 379.06 190.484 378.724 190.06C378.388 189.636 377.952 189.004 377.416 188.164C376.88 187.324 376.468 186.408 376.18 185.416C375.892 184.424 375.748 183.392 375.748 182.32C375.748 181.248 375.892 180.216 376.18 179.224C376.468 178.232 376.88 177.316 377.416 176.476C377.952 175.636 378.388 175.004 378.724 174.58C379.06 174.156 379.484 173.656 379.996 173.08L379.996 173.08L379.444 172.576C375.86 175.536 374.068 178.784 374.068 182.32C374.068 185.872 375.868 189.12 379.468 192.064L379.468 192.064L379.468 192.064ZM388.228 189.808L393.508 177.592C393.908 176.664 394.248 176.084 394.528 175.852C394.808 175.62 395.42 175.504 396.364 175.504L396.364 175.504L396.364 175L390.772 175L390.772 175.504C391.764 175.504 392.4 175.644 392.68 175.924C392.96 176.204 392.948 176.672 392.644 177.328L392.644 177.328L388.612 186.664L384.532 177.328C384.228 176.672 384.216 176.204 384.496 175.924C384.776 175.644 385.412 175.504 386.404 175.504L386.404 175.504L386.404 175L379.756 175L379.756 175.504C380.7 175.504 381.312 175.62 381.592 175.852C381.872 176.084 382.212 176.664 382.612 177.592L382.612 177.592L387.916 189.808L388.228 189.808L388.228 189.808ZM396.7 192.064C400.284 189.136 402.076 185.888 402.076 182.32C402.076 178.768 400.292 175.52 396.724 172.576L396.724 172.576L396.148 173.08C396.676 173.672 397.104 174.176 397.432 174.592C397.76 175.008 398.196 175.636 398.74 176.476C399.284 177.316 399.7 178.232 399.988 179.224C400.276 180.216 400.42 181.248 400.42 182.32C400.42 183.392 400.276 184.424 399.988 185.416C399.7 186.408 399.284 187.324 398.74 188.164C398.196 189.004 397.76 189.632 397.432 190.048C397.104 190.464 396.676 190.968 396.148 191.56L396.148 191.56L396.7 192.064L396.7 192.064Z" id="SourceVoltage(V)" fill="#524740" fill-rule="evenodd" stroke="none" />
        <path d="M180.096 14.4L180.096 13.896C179.104 13.896 178.476 13.728 178.212 13.392C177.948 13.056 177.816 12.288 177.816 11.088L177.816 11.088L177.816 8.088L178.944 8.088L183.696 14.4L187.656 14.4L187.656 13.896C186.248 13.736 184.76 12.72 183.192 10.848L183.192 10.848L180.84 8.088C182.168 7.944 183.212 7.504 183.972 6.768C184.732 6.032 185.112 5.128 185.112 4.056C185.112 2.888 184.656 1.92 183.744 1.152C182.832 0.384 181.568 0 179.952 0L179.952 0L173.616 0L173.616 0.504C174.608 0.504 175.236 0.668 175.5 0.996C175.764 1.324 175.896 2.088 175.896 3.288L175.896 3.288L175.896 11.088C175.896 12.288 175.764 13.056 175.5 13.392C175.236 13.728 174.608 13.896 173.616 13.896L173.616 13.896L173.616 14.4L180.096 14.4L180.096 14.4ZM179.928 7.224L177.816 7.224L177.816 0.888L179.928 0.888C180.92 0.888 181.676 1.184 182.196 1.776C182.716 2.368 182.976 3.128 182.976 4.056C182.976 4.984 182.716 5.744 182.196 6.336C181.676 6.928 180.92 7.224 179.928 7.224L179.928 7.224L179.928 7.224ZM195.096 14.4L195.096 13.896C194.088 13.896 193.452 13.732 193.188 13.404C192.924 13.076 192.792 12.304 192.792 11.088L192.792 11.088L192.792 7.296C192.792 6.08 192.924 5.308 193.188 4.98C193.452 4.652 194.088 4.488 195.096 4.488L195.096 4.488L195.096 4.008L188.784 4.008L188.784 4.488C189.776 4.488 190.408 4.656 190.68 4.992C190.952 5.328 191.088 6.096 191.088 7.296L191.088 7.296L191.088 11.088C191.088 12.288 190.952 13.056 190.68 13.392C190.408 13.728 189.776 13.896 188.784 13.896L188.784 13.896L188.784 14.4L195.096 14.4L195.096 14.4Z" id="R1" fill="#524740" fill-rule="evenodd" stroke="none" />
        <path d="M148 43.4L153 43.4L158 30.4L168 56.4L178 30.4L188 56.4L198 30.4L208 56.4L213 43.4L218 43.4" id="Resistor-Copy-4" fill="none" fill-rule="evenodd" stroke="#524740" stroke-width="2" stroke-linejoin="bevel" />
        <g id="DC_Power" transform="translate(144 116.4)">
          <path d="M0 39C0 17.4609 17.4609 0 39 0C60.5391 0 78 17.4609 78 39C78 60.5391 60.5391 78 39 78C17.4609 78 0 60.5391 0 39Z" id="Oval" fill="none" fill-rule="evenodd" stroke="#524740" stroke-width="2" />
          <g id="+" transform="translate(57.33 31.510002)" filter="url(#filter_1)">
            <g id="Text">
              <g id="+" fill="#524740">
                <path d="M9.54 9.054L5.868 9.054L5.868 12.924L4.563 12.924L4.563 9.054L0.909 9.054L0.909 7.839L4.563 7.839L4.563 3.996L5.868 3.996L5.868 7.839L9.54 7.839L9.54 9.054Z" />
              </g>
            </g>
          </g>
          <g id="-" transform="translate(12.206501 31.010002)" filter="url(#filter_1)">
            <g id="Text">
              <g id="-" fill="#524740">
                <path d="M1.125 8.415L5.571 8.415L5.571 9.774L1.125 9.774L1.125 8.415Z" />
              </g>
            </g>
          </g>
        </g>
        <path d="M217.363 43.4L308 43.4" id="Path-4-Copy-2" fill="none" fill-rule="evenodd" stroke="#524740" stroke-width="2" />
        <path d="M57.3629 43.4L148.3 43.4" id="Path-4-Copy-2-2" fill="none" fill-rule="evenodd" stroke="#524740" stroke-width="2" />
      </g>
    </g>
  </g>
</svg>