<?xml version="1.0" encoding="UTF-8"?>
<svg width="900px" height="290px" viewBox="0 0 900 290" version="1.1" xmlns="http://www.w3.org/2000/svg" xmlns:xlink="http://www.w3.org/1999/xlink">
    <!-- Generator: Sketch 60.1 (88133) - https://sketch.com -->
    <title>Resistors_in_Series</title>
    <desc>Created with Sketch.</desc>
    <g id="Resistors_in_Series" stroke="none" stroke-width="1" fill="none" fill-rule="evenodd">
        <g id="Illustration_Frame">
            <rect id="Rectangle" stroke="#3D3530" stroke-width="2" fill="#EEEEEE" x="1" y="1" width="898" height="288"></rect>
            <rect id="Rectangle-Copy" stroke="#3D3530" stroke-width="2" fill="#F8FAE4" x="1" y="246" width="898" height="43"></rect>
            <path d="M673.557333,275 L673.557333,268.904 L677.301333,268.904 L678.285333,268.856 L681.717333,275 L683.373333,275 L679.773333,268.52 C680.909333,268.168 681.793333,267.576 682.425333,266.744 C683.057333,265.912 683.373333,264.96 683.373333,263.888 C683.373333,262.448 682.837333,261.252 681.765333,260.3 C680.693333,259.348 679.253333,258.872 677.445333,258.872 L677.445333,258.872 L671.973333,258.872 L671.973333,275 L673.557333,275 Z M677.445333,267.392 L673.557333,267.392 L673.557333,260.384 L677.445333,260.384 C678.741333,260.384 679.781333,260.72 680.565333,261.392 C681.349333,262.064 681.741333,262.896 681.741333,263.888 C681.741333,264.896 681.349333,265.732 680.565333,266.396 C679.781333,267.06 678.741333,267.392 677.445333,267.392 L677.445333,267.392 Z M691.815999,275.072 C693.287999,275.088 694.555999,274.672 695.619999,273.824 C696.683999,272.976 697.399999,272.048 697.767999,271.04 L697.767999,271.04 L696.423999,270.56 C696.119999,271.376 695.543999,272.088 694.695999,272.696 C693.847999,273.304 692.887999,273.608 691.815999,273.608 C690.823999,273.624 689.919999,273.324 689.103999,272.708 C688.287999,272.092 687.743999,271.304 687.471999,270.344 L687.471999,270.344 L697.959999,268.448 C697.959999,268.32 697.951999,268.216 697.935999,268.136 C697.759999,266.6 697.087999,265.312 695.919999,264.272 C694.751999,263.232 693.383999,262.704 691.815999,262.688 C690.087999,262.704 688.623999,263.312 687.423999,264.512 C686.223999,265.712 685.623999,267.176 685.623999,268.904 C685.623999,269.528 685.703999,270.104 685.863999,270.632 C686.263999,271.928 687.019999,272.992 688.131999,273.824 C689.243999,274.656 690.471999,275.072 691.815999,275.072 Z M687.231999,269.048 C687.231999,268.968 687.227999,268.868 687.219999,268.748 C687.211999,268.628 687.207999,268.544 687.207999,268.496 C687.271999,267.312 687.731999,266.296 688.587999,265.448 C689.443999,264.6 690.471999,264.168 691.671999,264.152 C692.695999,264.136 693.623999,264.436 694.455999,265.052 C695.287999,265.668 695.855999,266.464 696.159999,267.44 L696.159999,267.44 L687.231999,269.048 Z M705.082666,275.192 C706.554666,275.192 707.658666,274.88 708.394666,274.256 C709.130666,273.632 709.498666,272.816 709.498666,271.808 C709.498666,271.088 709.234666,270.476 708.706666,269.972 C708.178666,269.468 707.534666,269.084 706.774666,268.82 C706.014666,268.556 705.258666,268.312 704.506666,268.088 C703.754666,267.864 703.114666,267.596 702.586666,267.284 C702.058666,266.972 701.794666,266.6 701.794666,266.168 C701.794666,265.56 702.062666,265.088 702.598666,264.752 C703.134666,264.416 703.834666,264.248 704.698666,264.248 C705.306666,264.248 705.914666,264.384 706.522666,264.656 C707.130666,264.928 707.534666,265.144 707.734666,265.304 C707.934666,265.464 708.090666,265.6 708.202666,265.712 L708.202666,265.712 L709.330666,264.728 L708.826666,264.248 C708.490666,263.928 707.938666,263.608 707.170666,263.288 C706.402666,262.968 705.586666,262.808 704.722666,262.808 C703.266666,262.808 702.166666,263.124 701.422666,263.756 C700.678666,264.388 700.306666,265.2 700.306666,266.192 C700.306666,266.912 700.570666,267.52 701.098666,268.016 C701.626666,268.512 702.270666,268.896 703.030666,269.168 C703.790666,269.44 704.546666,269.688 705.298666,269.912 C706.050666,270.136 706.690666,270.404 707.218666,270.716 C707.746666,271.028 708.010666,271.4 708.010666,271.832 C708.010666,272.44 707.746666,272.912 707.218666,273.248 C706.690666,273.584 705.986666,273.752 705.106666,273.752 C704.514666,273.752 703.914666,273.616 703.306666,273.344 C702.698666,273.072 702.294666,272.856 702.094666,272.696 C701.894666,272.536 701.738666,272.4 701.626666,272.288 L701.626666,272.288 L700.498666,273.248 L700.690666,273.464 C700.818666,273.592 701.018666,273.752 701.290666,273.944 C701.562666,274.136 701.870666,274.324 702.214666,274.508 C702.558666,274.692 702.986666,274.852 703.498666,274.988 C704.010666,275.124 704.538666,275.192 705.082666,275.192 Z M713.861333,259.688 C714.133333,259.688 714.357333,259.592 714.533333,259.4 C714.725333,259.208 714.821333,258.984 714.821333,258.728 C714.821333,258.472 714.729333,258.248 714.545333,258.056 C714.361333,257.864 714.133333,257.768 713.861333,257.768 C713.589333,257.768 713.361333,257.864 713.177333,258.056 C712.993333,258.248 712.901333,258.472 712.901333,258.728 C712.901333,258.984 712.993333,259.208 713.177333,259.4 C713.361333,259.592 713.589333,259.688 713.861333,259.688 Z M714.653333,275 L714.653333,263 L713.069333,263 L713.069333,275 L714.653333,275 Z M722.927999,275.192 C724.399999,275.192 725.503999,274.88 726.239999,274.256 C726.975999,273.632 727.343999,272.816 727.343999,271.808 C727.343999,271.088 727.079999,270.476 726.551999,269.972 C726.023999,269.468 725.379999,269.084 724.619999,268.82 C723.859999,268.556 723.103999,268.312 722.351999,268.088 C721.599999,267.864 720.959999,267.596 720.431999,267.284 C719.903999,266.972 719.639999,266.6 719.639999,266.168 C719.639999,265.56 719.907999,265.088 720.443999,264.752 C720.979999,264.416 721.679999,264.248 722.543999,264.248 C723.151999,264.248 723.759999,264.384 724.367999,264.656 C724.975999,264.928 725.379999,265.144 725.579999,265.304 C725.779999,265.464 725.935999,265.6 726.047999,265.712 L726.047999,265.712 L727.175999,264.728 L726.671999,264.248 C726.335999,263.928 725.783999,263.608 725.015999,263.288 C724.247999,262.968 723.431999,262.808 722.567999,262.808 C721.111999,262.808 720.011999,263.124 719.267999,263.756 C718.523999,264.388 718.151999,265.2 718.151999,266.192 C718.151999,266.912 718.415999,267.52 718.943999,268.016 C719.471999,268.512 720.115999,268.896 720.875999,269.168 C721.635999,269.44 722.391999,269.688 723.143999,269.912 C723.895999,270.136 724.535999,270.404 725.063999,270.716 C725.591999,271.028 725.855999,271.4 725.855999,271.832 C725.855999,272.44 725.591999,272.912 725.063999,273.248 C724.535999,273.584 723.831999,273.752 722.951999,273.752 C722.359999,273.752 721.759999,273.616 721.151999,273.344 C720.543999,273.072 720.139999,272.856 719.939999,272.696 C719.739999,272.536 719.583999,272.4 719.471999,272.288 L719.471999,272.288 L718.343999,273.248 L718.535999,273.464 C718.663999,273.592 718.863999,273.752 719.135999,273.944 C719.407999,274.136 719.715999,274.324 720.059999,274.508 C720.403999,274.692 720.831999,274.852 721.343999,274.988 C721.855999,275.124 722.383999,275.192 722.927999,275.192 Z M734.610666,275.192 C735.202666,275.192 735.778666,275.036 736.338666,274.724 C736.898666,274.412 737.258666,274.168 737.418666,273.992 C737.578666,273.816 737.706666,273.664 737.802666,273.536 L737.802666,273.536 L737.010666,272.312 C737.010666,272.376 736.926666,272.516 736.758666,272.732 C736.590666,272.948 736.330666,273.168 735.978666,273.392 C735.626666,273.616 735.266666,273.728 734.898666,273.728 C734.306666,273.728 733.782666,273.512 733.326666,273.08 C732.870666,272.648 732.642666,272.064 732.642666,271.328 L732.642666,271.328 L732.642666,264.44 L736.266666,264.44 L736.266666,262.976 L732.642666,262.976 L732.642666,258.992 L731.058666,259.184 L731.058666,262.976 L729.138666,262.976 L729.138666,264.44 L731.058666,264.44 L731.058666,271.688 C731.058666,272.824 731.398666,273.692 732.078666,274.292 C732.758666,274.892 733.602666,275.192 734.610666,275.192 Z M745.453333,275.192 C747.165333,275.192 748.621333,274.584 749.821333,273.368 C751.037333,272.152 751.645333,270.696 751.645333,269 C751.645333,267.288 751.041333,265.828 749.833333,264.62 C748.625333,263.412 747.165333,262.808 745.453333,262.808 C743.741333,262.808 742.281333,263.412 741.073333,264.62 C739.865333,265.828 739.261333,267.288 739.261333,269 C739.261333,270.712 739.865333,272.172 741.073333,273.38 C742.281333,274.588 743.741333,275.192 745.453333,275.192 Z M745.477333,273.68 C744.197333,273.68 743.109333,273.228 742.213333,272.324 C741.317333,271.42 740.869333,270.312 740.869333,269 C740.869333,267.688 741.317333,266.576 742.213333,265.664 C743.109333,264.752 744.197333,264.296 745.477333,264.296 C746.773333,264.296 747.865333,264.752 748.753333,265.664 C749.641333,266.576 750.085333,267.688 750.085333,269 C750.085333,270.312 749.641333,271.42 748.753333,272.324 C747.865333,273.228 746.773333,273.68 745.477333,273.68 Z M756.272,275 L756.272,267.968 C756.272,266.928 756.616,266.052 757.304,265.34 C757.992,264.628 758.84,264.272 759.848,264.272 C760.536,264.272 761.216,264.52 761.888,265.016 L761.888,265.016 L762.44,263.432 C761.736,263.016 760.96,262.808 760.112,262.808 C758.528,262.808 757.248,263.464 756.272,264.776 L756.272,264.776 L756.272,263 L754.688,263 L754.688,275 L756.272,275 Z M768.626666,275.192 C770.098666,275.192 771.202666,274.88 771.938666,274.256 C772.674666,273.632 773.042666,272.816 773.042666,271.808 C773.042666,271.088 772.778666,270.476 772.250666,269.972 C771.722666,269.468 771.078666,269.084 770.318666,268.82 C769.558666,268.556 768.802666,268.312 768.050666,268.088 C767.298666,267.864 766.658666,267.596 766.130666,267.284 C765.602666,266.972 765.338666,266.6 765.338666,266.168 C765.338666,265.56 765.606666,265.088 766.142666,264.752 C766.678666,264.416 767.378666,264.248 768.242666,264.248 C768.850666,264.248 769.458666,264.384 770.066666,264.656 C770.674666,264.928 771.078666,265.144 771.278666,265.304 C771.478666,265.464 771.634666,265.6 771.746666,265.712 L771.746666,265.712 L772.874666,264.728 L772.370666,264.248 C772.034666,263.928 771.482666,263.608 770.714666,263.288 C769.946666,262.968 769.130666,262.808 768.266666,262.808 C766.810666,262.808 765.710666,263.124 764.966666,263.756 C764.222666,264.388 763.850666,265.2 763.850666,266.192 C763.850666,266.912 764.114666,267.52 764.642666,268.016 C765.170666,268.512 765.814666,268.896 766.574666,269.168 C767.334666,269.44 768.090666,269.688 768.842666,269.912 C769.594666,270.136 770.234666,270.404 770.762666,270.716 C771.290666,271.028 771.554666,271.4 771.554666,271.832 C771.554666,272.44 771.290666,272.912 770.762666,273.248 C770.234666,273.584 769.530666,273.752 768.650666,273.752 C768.058666,273.752 767.458666,273.616 766.850666,273.344 C766.242666,273.072 765.838666,272.856 765.638666,272.696 C765.438666,272.536 765.282666,272.4 765.170666,272.288 L765.170666,272.288 L764.042666,273.248 L764.234666,273.464 C764.362666,273.592 764.562666,273.752 764.834666,273.944 C765.106666,274.136 765.414666,274.324 765.758666,274.508 C766.102666,274.692 766.530666,274.852 767.042666,274.988 C767.554666,275.124 768.082666,275.192 768.626666,275.192 Z M784.576,259.688 C784.848,259.688 785.072,259.592 785.248,259.4 C785.44,259.208 785.536,258.984 785.536,258.728 C785.536,258.472 785.444,258.248 785.26,258.056 C785.076,257.864 784.848,257.768 784.576,257.768 C784.304,257.768 784.076,257.864 783.892,258.056 C783.708,258.248 783.616,258.472 783.616,258.728 C783.616,258.984 783.708,259.208 783.892,259.4 C784.076,259.592 784.304,259.688 784.576,259.688 Z M785.368,275 L785.368,263 L783.784,263 L783.784,275 L785.368,275 Z M791.290666,275 L791.290666,267.968 C791.290666,266.944 791.638666,266.072 792.334666,265.352 C793.030666,264.632 793.874666,264.272 794.866666,264.272 C795.858666,264.272 796.702666,264.632 797.398666,265.352 C798.094666,266.072 798.442666,266.944 798.442666,267.968 L798.442666,267.968 L798.442666,275 L800.050666,275 L800.050666,267.92 C800.050666,266.48 799.578666,265.268 798.634666,264.284 C797.690666,263.3 796.522666,262.808 795.130666,262.808 C793.546666,262.808 792.266666,263.464 791.290666,264.776 L791.290666,264.776 L791.290666,263 L789.706666,263 L789.706666,275 L791.290666,275 Z M816.024,275.192 C817.608,275.192 818.84,274.792 819.72,273.992 C820.6,273.192 821.04,272.208 821.04,271.04 C821.04,270.128 820.74,269.336 820.14,268.664 C819.54,267.992 818.808,267.464 817.944,267.08 C817.08,266.696 816.22,266.328 815.364,265.976 C814.508,265.624 813.78,265.188 813.18,264.668 C812.58,264.148 812.28,263.544 812.28,262.856 C812.28,262.04 812.588,261.396 813.204,260.924 C813.82,260.452 814.664,260.216 815.736,260.216 C816.6,260.216 817.424,260.44 818.208,260.888 C818.992,261.336 819.592,261.784 820.008,262.232 L820.008,262.232 L821.112,261.152 C820.6,260.608 819.844,260.064 818.844,259.52 C817.844,258.976 816.808,258.704 815.736,258.704 C814.152,258.704 812.92,259.104 812.04,259.904 C811.16,260.704 810.72,261.688 810.72,262.856 C810.72,263.768 811.02,264.56 811.62,265.232 C812.22,265.904 812.952,266.436 813.816,266.828 C814.68,267.22 815.54,267.592 816.396,267.944 C817.252,268.296 817.98,268.728 818.58,269.24 C819.18,269.752 819.48,270.352 819.48,271.04 C819.48,271.856 819.172,272.5 818.556,272.972 C817.94,273.444 817.096,273.68 816.024,273.68 C815.144,273.68 814.312,273.452 813.528,272.996 C812.744,272.54 812.152,272.096 811.752,271.664 L811.752,271.664 L810.648,272.744 C811.16,273.288 811.916,273.832 812.916,274.376 C813.916,274.92 814.952,275.192 816.024,275.192 Z M829.626666,275.072 C831.098666,275.088 832.366666,274.672 833.430666,273.824 C834.494666,272.976 835.210666,272.048 835.578666,271.04 L835.578666,271.04 L834.234666,270.56 C833.930666,271.376 833.354666,272.088 832.506666,272.696 C831.658666,273.304 830.698666,273.608 829.626666,273.608 C828.634666,273.624 827.730666,273.324 826.914666,272.708 C826.098666,272.092 825.554666,271.304 825.282666,270.344 L825.282666,270.344 L835.770666,268.448 C835.770666,268.32 835.762666,268.216 835.746666,268.136 C835.570666,266.6 834.898666,265.312 833.730666,264.272 C832.562666,263.232 831.194666,262.704 829.626666,262.688 C827.898666,262.704 826.434666,263.312 825.234666,264.512 C824.034666,265.712 823.434666,267.176 823.434666,268.904 C823.434666,269.528 823.514666,270.104 823.674666,270.632 C824.074666,271.928 824.830666,272.992 825.942666,273.824 C827.054666,274.656 828.282666,275.072 829.626666,275.072 Z M825.042666,269.048 C825.042666,268.968 825.038666,268.868 825.030666,268.748 C825.022666,268.628 825.018666,268.544 825.018666,268.496 C825.082666,267.312 825.542666,266.296 826.398666,265.448 C827.254666,264.6 828.282666,264.168 829.482666,264.152 C830.506666,264.136 831.434666,264.436 832.266666,265.052 C833.098666,265.668 833.666666,266.464 833.970666,267.44 L833.970666,267.44 L825.042666,269.048 Z M840.277333,275 L840.277333,267.968 C840.277333,266.928 840.621333,266.052 841.309333,265.34 C841.997333,264.628 842.845333,264.272 843.853333,264.272 C844.541333,264.272 845.221333,264.52 845.893333,265.016 L845.893333,265.016 L846.445333,263.432 C845.741333,263.016 844.965333,262.808 844.117333,262.808 C842.533333,262.808 841.253333,263.464 840.277333,264.776 L840.277333,264.776 L840.277333,263 L838.693333,263 L838.693333,275 L840.277333,275 Z M850.208,259.688 C850.48,259.688 850.704,259.592 850.88,259.4 C851.072,259.208 851.168,258.984 851.168,258.728 C851.168,258.472 851.076,258.248 850.892,258.056 C850.708,257.864 850.48,257.768 850.208,257.768 C849.936,257.768 849.708,257.864 849.524,258.056 C849.34,258.248 849.248,258.472 849.248,258.728 C849.248,258.984 849.34,259.208 849.524,259.4 C849.708,259.592 849.936,259.688 850.208,259.688 Z M851,275 L851,263 L849.416,263 L849.416,275 L851,275 Z M860.666667,275.072 C862.138667,275.088 863.406667,274.672 864.470667,273.824 C865.534667,272.976 866.250667,272.048 866.618667,271.04 L866.618667,271.04 L865.274667,270.56 C864.970667,271.376 864.394667,272.088 863.546667,272.696 C862.698667,273.304 861.738667,273.608 860.666667,273.608 C859.674667,273.624 858.770667,273.324 857.954667,272.708 C857.138667,272.092 856.594667,271.304 856.322667,270.344 L856.322667,270.344 L866.810667,268.448 C866.810667,268.32 866.802667,268.216 866.786667,268.136 C866.610667,266.6 865.938667,265.312 864.770667,264.272 C863.602667,263.232 862.234667,262.704 860.666667,262.688 C858.938667,262.704 857.474667,263.312 856.274667,264.512 C855.074667,265.712 854.474667,267.176 854.474667,268.904 C854.474667,269.528 854.554667,270.104 854.714667,270.632 C855.114667,271.928 855.870667,272.992 856.982667,273.824 C858.094667,274.656 859.322667,275.072 860.666667,275.072 Z M856.082667,269.048 C856.082667,268.968 856.078667,268.868 856.070667,268.748 C856.062667,268.628 856.058667,268.544 856.058667,268.496 C856.122667,267.312 856.582667,266.296 857.438667,265.448 C858.294667,264.6 859.322667,264.168 860.522667,264.152 C861.546667,264.136 862.474667,264.436 863.306667,265.052 C864.138667,265.668 864.706667,266.464 865.010667,267.44 L865.010667,267.44 L856.082667,269.048 Z M873.933333,275.192 C875.405333,275.192 876.509333,274.88 877.245333,274.256 C877.981333,273.632 878.349333,272.816 878.349333,271.808 C878.349333,271.088 878.085333,270.476 877.557333,269.972 C877.029333,269.468 876.385333,269.084 875.625333,268.82 C874.865333,268.556 874.109333,268.312 873.357333,268.088 C872.605333,267.864 871.965333,267.596 871.437333,267.284 C870.909333,266.972 870.645333,266.6 870.645333,266.168 C870.645333,265.56 870.913333,265.088 871.449333,264.752 C871.985333,264.416 872.685333,264.248 873.549333,264.248 C874.157333,264.248 874.765333,264.384 875.373333,264.656 C875.981333,264.928 876.385333,265.144 876.585333,265.304 C876.785333,265.464 876.941333,265.6 877.053333,265.712 L877.053333,265.712 L878.181333,264.728 L877.677333,264.248 C877.341333,263.928 876.789333,263.608 876.021333,263.288 C875.253333,262.968 874.437333,262.808 873.573333,262.808 C872.117333,262.808 871.017333,263.124 870.273333,263.756 C869.529333,264.388 869.157333,265.2 869.157333,266.192 C869.157333,266.912 869.421333,267.52 869.949333,268.016 C870.477333,268.512 871.121333,268.896 871.881333,269.168 C872.641333,269.44 873.397333,269.688 874.149333,269.912 C874.901333,270.136 875.541333,270.404 876.069333,270.716 C876.597333,271.028 876.861333,271.4 876.861333,271.832 C876.861333,272.44 876.597333,272.912 876.069333,273.248 C875.541333,273.584 874.837333,273.752 873.957333,273.752 C873.365333,273.752 872.765333,273.616 872.157333,273.344 C871.549333,273.072 871.145333,272.856 870.945333,272.696 C870.745333,272.536 870.589333,272.4 870.477333,272.288 L870.477333,272.288 L869.349333,273.248 L869.541333,273.464 C869.669333,273.592 869.869333,273.752 870.141333,273.944 C870.413333,274.136 870.721333,274.324 871.065333,274.508 C871.409333,274.692 871.837333,274.852 872.349333,274.988 C872.861333,275.124 873.389333,275.192 873.933333,275.192 Z" id="ResistorsinSeries" fill="#23ABE3" fill-rule="nonzero"></path>
        </g>
        <g transform="translate(267.000000, 17.000000)">
            <polyline id="Path-2" stroke="#524740" stroke-width="2" points="308 46 366 46 366 158 223 158"></polyline>
            <polyline id="Path-2-Copy-2" stroke="#524740" stroke-width="2" transform="translate(71.500000, 102.000000) scale(-1, 1) translate(-71.500000, -102.000000) " points="85 46 143 46 143 158 0 158"></polyline>
            <path d="M226.9,192.408 C226.996,191.96 227.228,191.584 227.596,191.28 C227.756,191.312 228.036,191.428 228.436,191.628 C228.836,191.828 229.284,192.008 229.78,192.168 C230.276,192.328 230.796,192.408 231.34,192.408 C232.62,192.408 233.704,192.008 234.592,191.208 C235.48,190.408 235.924,189.368 235.924,188.088 C235.924,186.504 235.084,185.288 233.404,184.44 L233.404,184.44 L231.124,183.264 C230.02,182.688 229.256,182.196 228.832,181.788 C228.408,181.38 228.196,180.88 228.196,180.288 C228.196,179.68 228.416,179.172 228.856,178.764 C229.296,178.356 229.852,178.152 230.524,178.152 C232.732,178.152 233.956,179.552 234.196,182.352 L234.196,182.352 L234.7,182.352 L234.7,177.072 L234.22,177.072 C234.124,177.504 233.892,177.872 233.524,178.176 C232.628,177.52 231.652,177.192 230.596,177.192 C229.444,177.192 228.492,177.536 227.74,178.224 C226.988,178.912 226.612,179.76 226.612,180.768 C226.612,181.632 226.868,182.408 227.38,183.096 C227.892,183.784 228.524,184.328 229.276,184.728 L229.276,184.728 L231.58,185.904 C233.42,186.864 234.34,187.832 234.34,188.808 C234.34,189.576 234.056,190.208 233.488,190.704 C232.92,191.2 232.204,191.448 231.34,191.448 C230.748,191.448 230.208,191.368 229.72,191.208 C229.232,191.048 228.84,190.848 228.544,190.608 C228.248,190.368 227.988,190.08 227.764,189.744 C227.54,189.408 227.376,189.104 227.272,188.832 C227.168,188.56 227.088,188.276 227.032,187.98 C226.976,187.684 226.944,187.484 226.936,187.38 C226.928,187.276 226.924,187.192 226.924,187.128 L226.924,187.128 L226.42,187.128 L226.42,192.408 L226.9,192.408 Z M243.1,192.408 C244.428,192.408 245.568,191.976 246.52,191.112 C247.472,190.248 247.948,189.208 247.948,187.992 C247.948,186.776 247.468,185.744 246.508,184.896 C245.564,184.032 244.428,183.6 243.1,183.6 C241.772,183.6 240.632,184.028 239.68,184.884 C238.728,185.74 238.252,186.776 238.252,187.992 C238.252,189.208 238.728,190.248 239.68,191.112 C240.632,191.976 241.772,192.408 243.1,192.408 Z M243.1,191.472 C242.156,191.472 241.436,191.144 240.94,190.488 C240.444,189.832 240.196,189 240.196,187.992 C240.196,186.984 240.444,186.152 240.94,185.496 C241.436,184.84 242.156,184.512 243.1,184.512 C244.044,184.512 244.764,184.836 245.26,185.484 C245.756,186.132 246.004,186.968 246.004,187.992 C246.004,189.016 245.756,189.856 245.26,190.512 C244.764,191.152 244.044,191.472 243.1,191.472 Z M257.956,192.408 L261.172,191.808 L261.172,191.304 C260.356,191.304 259.832,191.136 259.6,190.8 C259.368,190.464 259.252,189.696 259.252,188.496 L259.252,188.496 L259.252,184.008 L255.652,184.008 L255.652,184.488 C256.468,184.488 256.992,184.656 257.224,184.992 C257.456,185.328 257.572,186.096 257.572,187.296 L257.572,187.296 L257.572,188.88 C257.572,189.552 257.276,190.116 256.684,190.572 C256.092,191.028 255.524,191.256 254.98,191.256 C253.764,191.256 253.156,190.4 253.156,188.688 L253.156,188.688 L253.156,184.008 L249.556,184.008 L249.556,184.488 C250.356,184.488 250.872,184.656 251.104,184.992 C251.336,185.328 251.452,186.096 251.452,187.296 L251.452,187.296 L251.452,188.808 C251.452,191.208 252.444,192.408 254.428,192.408 C255.532,192.408 256.58,191.896 257.572,190.872 C257.7,191.64 257.828,192.152 257.956,192.408 L257.956,192.408 Z M268.036,192 L268.036,191.496 C267.236,191.496 266.72,191.328 266.488,190.992 C266.256,190.656 266.14,189.888 266.14,188.688 L266.14,188.688 L266.14,187.368 C266.14,186.52 266.356,185.84 266.788,185.328 C267.22,184.816 267.62,184.56 267.988,184.56 C268.5,184.56 268.756,184.824 268.756,185.352 C268.756,185.576 268.84,185.776 269.008,185.952 C269.176,186.128 269.372,186.216 269.596,186.216 C270.236,186.216 270.556,185.84 270.556,185.088 C270.556,184.736 270.392,184.4 270.064,184.08 C269.736,183.76 269.268,183.6 268.66,183.6 C268.18,183.6 267.7,183.768 267.22,184.104 C266.74,184.44 266.38,184.848 266.14,185.328 C266.012,184.48 265.876,183.904 265.732,183.6 L265.732,183.6 L262.54,184.2 L262.54,184.704 C263.34,184.704 263.856,184.872 264.088,185.208 C264.32,185.544 264.436,186.304 264.436,187.488 L264.436,187.488 L264.436,188.688 C264.436,189.888 264.32,190.656 264.088,190.992 C263.856,191.328 263.34,191.496 262.54,191.496 L262.54,191.496 L262.54,192 L268.036,192 Z M276.46,192.408 C277.868,192.408 279.06,191.88 280.036,190.824 L280.036,190.824 L279.628,190.296 C278.844,191.032 277.988,191.4 277.06,191.4 C276.1,191.4 275.376,191.116 274.888,190.548 C274.4,189.98 274.156,189.2 274.156,188.208 C274.156,187.12 274.38,186.208 274.828,185.472 C275.276,184.736 275.82,184.368 276.46,184.368 C277.036,184.368 277.324,184.712 277.324,185.4 C277.324,185.672 277.416,185.9 277.6,186.084 C277.784,186.268 278.004,186.36 278.26,186.36 C278.628,186.36 278.896,186.252 279.064,186.036 C279.232,185.82 279.316,185.584 279.316,185.328 C279.316,184.848 279.076,184.44 278.596,184.104 C278.116,183.768 277.404,183.6 276.46,183.6 C275.42,183.6 274.452,184.036 273.556,184.908 C272.66,185.78 272.212,186.88 272.212,188.208 C272.212,189.44 272.592,190.448 273.352,191.232 C274.112,192.016 275.148,192.408 276.46,192.408 Z M286.084,192.408 C286.756,192.408 287.428,192.26 288.1,191.964 C288.772,191.668 289.324,191.288 289.756,190.824 L289.756,190.824 L289.324,190.296 C288.988,190.616 288.564,190.88 288.052,191.088 C287.54,191.296 287.084,191.4 286.684,191.4 C285.5,191.4 284.648,191.028 284.128,190.284 C283.608,189.54 283.42,188.576 283.564,187.392 L283.564,187.392 L289.348,187.392 C289.636,186.384 289.436,185.5 288.748,184.74 C288.06,183.98 287.172,183.6 286.084,183.6 C284.932,183.6 283.904,184.024 283,184.872 C282.096,185.72 281.644,186.76 281.644,187.992 C281.644,189.224 282.06,190.268 282.892,191.124 C283.724,191.98 284.788,192.408 286.084,192.408 Z M287.692,186.504 L283.708,186.504 C283.884,185.912 284.176,185.44 284.584,185.088 C284.992,184.736 285.452,184.56 285.964,184.56 C286.684,184.56 287.192,184.772 287.488,185.196 C287.784,185.62 287.852,186.056 287.692,186.504 L287.692,186.504 Z M303.772,192.408 L309.052,180.192 C309.452,179.264 309.792,178.684 310.072,178.452 C310.352,178.22 310.964,178.104 311.908,178.104 L311.908,178.104 L311.908,177.6 L306.316,177.6 L306.316,178.104 C307.308,178.104 307.944,178.244 308.224,178.524 C308.504,178.804 308.492,179.272 308.188,179.928 L308.188,179.928 L304.156,189.264 L300.076,179.928 C299.772,179.272 299.76,178.804 300.04,178.524 C300.32,178.244 300.956,178.104 301.948,178.104 L301.948,178.104 L301.948,177.6 L295.3,177.6 L295.3,178.104 C296.244,178.104 296.856,178.22 297.136,178.452 C297.416,178.684 297.756,179.264 298.156,180.192 L298.156,180.192 L303.46,192.408 L303.772,192.408 Z M317.02,192.408 C318.348,192.408 319.488,191.976 320.44,191.112 C321.392,190.248 321.868,189.208 321.868,187.992 C321.868,186.776 321.388,185.744 320.428,184.896 C319.484,184.032 318.348,183.6 317.02,183.6 C315.692,183.6 314.552,184.028 313.6,184.884 C312.648,185.74 312.172,186.776 312.172,187.992 C312.172,189.208 312.648,190.248 313.6,191.112 C314.552,191.976 315.692,192.408 317.02,192.408 Z M317.02,191.472 C316.076,191.472 315.356,191.144 314.86,190.488 C314.364,189.832 314.116,189 314.116,187.992 C314.116,186.984 314.364,186.152 314.86,185.496 C315.356,184.84 316.076,184.512 317.02,184.512 C317.964,184.512 318.684,184.836 319.18,185.484 C319.676,186.132 319.924,186.968 319.924,187.992 C319.924,189.016 319.676,189.856 319.18,190.512 C318.684,191.152 317.964,191.472 317.02,191.472 Z M328.972,192 L328.972,191.496 C328.172,191.496 327.656,191.328 327.424,190.992 C327.192,190.656 327.076,189.888 327.076,188.688 L327.076,188.688 L327.076,177.192 L323.476,177.792 L323.476,178.296 C324.276,178.296 324.792,178.464 325.024,178.8 C325.256,179.136 325.372,179.904 325.372,181.104 L325.372,181.104 L325.372,188.688 C325.372,189.888 325.256,190.656 325.024,190.992 C324.792,191.328 324.276,191.496 323.476,191.496 L323.476,191.496 L323.476,192 L328.972,192 Z M333.604,192.336 C334.004,192.336 334.44,192.208 334.912,191.952 C335.384,191.696 335.788,191.368 336.124,190.968 L336.124,190.968 L335.716,190.56 C335.14,191.104 334.62,191.376 334.156,191.376 C333.436,191.376 333.076,190.8 333.076,189.648 L333.076,189.648 L333.076,184.848 L335.164,184.848 L335.164,184.008 L333.076,184.008 L333.076,181.368 L332.26,181.368 C332.164,182.2 331.956,182.856 331.636,183.336 C331.316,183.816 330.812,184.128 330.124,184.272 L330.124,184.272 L330.124,184.848 L331.372,184.848 L331.372,189.648 C331.372,190.544 331.572,191.216 331.972,191.664 C332.372,192.112 332.916,192.336 333.604,192.336 Z M339.604,192.312 C340.532,192.312 341.532,191.832 342.604,190.872 C342.732,191.8 343.276,192.264 344.236,192.264 C344.828,192.264 345.356,192.016 345.82,191.52 L345.82,191.52 L345.484,191.064 C345.244,191.304 345.02,191.424 344.812,191.424 C344.444,191.424 344.26,191.112 344.26,190.488 L344.26,190.488 L344.26,186.864 C344.26,185.712 344.004,184.88 343.492,184.368 C342.98,183.856 342.14,183.6 340.972,183.6 C340.172,183.6 339.464,183.78 338.848,184.14 C338.232,184.5 337.924,184.96 337.924,185.52 C337.924,185.76 338.004,185.96 338.164,186.12 C338.324,186.28 338.524,186.36 338.764,186.36 C338.988,186.36 339.18,186.28 339.34,186.12 C339.5,185.96 339.58,185.76 339.58,185.52 C339.58,185.168 339.728,184.888 340.024,184.68 C340.32,184.472 340.628,184.368 340.948,184.368 C341.604,184.368 342.036,184.552 342.244,184.92 C342.452,185.288 342.556,185.944 342.556,186.888 C339.148,187.48 337.444,188.616 337.444,190.296 C337.444,190.92 337.652,191.412 338.068,191.772 C338.484,192.132 338.996,192.312 339.604,192.312 Z M340.372,191.232 C340.052,191.232 339.784,191.12 339.568,190.896 C339.352,190.672 339.244,190.376 339.244,190.008 C339.244,188.936 340.348,188.144 342.556,187.632 L342.556,187.632 L342.556,190.08 C341.692,190.848 340.964,191.232 340.372,191.232 Z M350.86,198.408 C352.076,198.408 353.088,198.116 353.896,197.532 C354.704,196.948 355.108,196.168 355.108,195.192 C355.108,194.376 354.764,193.68 354.076,193.104 C353.388,192.528 352.276,192.176 350.74,192.048 C349.284,191.92 348.556,191.616 348.556,191.136 C348.556,190.672 349.452,190.336 351.244,190.128 C352.076,190.016 352.804,189.656 353.428,189.048 C354.052,188.44 354.364,187.712 354.364,186.864 C354.364,186.128 354.132,185.48 353.668,184.92 C353.924,184.664 354.172,184.536 354.412,184.536 C354.636,184.536 354.8,184.596 354.904,184.716 C355.008,184.836 355.072,184.964 355.096,185.1 L355.123,185.19975 C355.159,185.29725 355.222,185.388 355.312,185.472 C355.432,185.584 355.612,185.632 355.852,185.616 C355.98,185.616 356.092,185.576 356.188,185.496 C356.476,185.272 356.548,184.936 356.404,184.488 C356.212,183.896 355.764,183.6 355.06,183.6 C354.788,183.6 354.472,183.688 354.112,183.864 C353.752,184.04 353.468,184.256 353.26,184.512 C352.572,183.904 351.748,183.6 350.788,183.6 C349.796,183.6 348.952,183.92 348.256,184.56 C347.56,185.2 347.212,185.968 347.212,186.864 C347.212,187.504 347.392,188.08 347.752,188.592 C348.112,189.104 348.604,189.504 349.228,189.792 C347.884,190.208 347.212,190.848 347.212,191.712 C347.212,192.976 348.348,193.72 350.62,193.944 C351.724,194.056 352.536,194.232 353.056,194.472 C353.576,194.712 353.836,195.096 353.836,195.624 C353.836,196.168 353.536,196.612 352.936,196.956 C352.336,197.3 351.644,197.472 350.86,197.472 C350.364,197.472 349.888,197.4 349.432,197.256 C348.976,197.112 348.592,196.912 348.28,196.656 C347.968,196.4 347.828,196.052 347.86,195.612 C347.892,195.172 348.14,194.688 348.604,194.16 L348.604,194.16 L348.172,193.896 C347.212,194.392 346.7,195 346.636,195.72 C346.572,196.44 346.936,197.068 347.728,197.604 C348.52,198.14 349.564,198.408 350.86,198.408 Z M350.788,189.336 C350.228,189.336 349.796,189.108 349.492,188.652 C349.188,188.196 349.036,187.6 349.036,186.864 C349.036,186.128 349.188,185.528 349.492,185.064 C349.796,184.6 350.228,184.368 350.788,184.368 C351.348,184.368 351.776,184.6 352.072,185.064 C352.368,185.528 352.516,186.128 352.516,186.864 C352.516,187.6 352.364,188.2 352.06,188.664 C351.772,189.112 351.348,189.336 350.788,189.336 Z M361.948,192.408 C362.62,192.408 363.292,192.26 363.964,191.964 C364.636,191.668 365.188,191.288 365.62,190.824 L365.62,190.824 L365.188,190.296 C364.852,190.616 364.428,190.88 363.916,191.088 C363.404,191.296 362.948,191.4 362.548,191.4 C361.364,191.4 360.512,191.028 359.992,190.284 C359.472,189.54 359.284,188.576 359.428,187.392 L359.428,187.392 L365.212,187.392 C365.5,186.384 365.3,185.5 364.612,184.74 C363.924,183.98 363.036,183.6 361.948,183.6 C360.796,183.6 359.768,184.024 358.864,184.872 C357.96,185.72 357.508,186.76 357.508,187.992 C357.508,189.224 357.924,190.268 358.756,191.124 C359.588,191.98 360.652,192.408 361.948,192.408 Z M363.556,186.504 L359.572,186.504 C359.748,185.912 360.04,185.44 360.448,185.088 C360.856,184.736 361.316,184.56 361.828,184.56 C362.548,184.56 363.056,184.772 363.352,185.196 C363.648,185.62 363.716,186.056 363.556,186.504 L363.556,186.504 Z M379.468,194.664 L379.996,194.16 C379.484,193.584 379.06,193.084 378.724,192.66 C378.388,192.236 377.952,191.604 377.416,190.764 C376.88,189.924 376.468,189.008 376.18,188.016 C375.892,187.024 375.748,185.992 375.748,184.92 C375.748,183.848 375.892,182.816 376.18,181.824 C376.468,180.832 376.88,179.916 377.416,179.076 C377.952,178.236 378.388,177.604 378.724,177.18 C379.06,176.756 379.484,176.256 379.996,175.68 L379.996,175.68 L379.444,175.176 C375.86,178.136 374.068,181.384 374.068,184.92 C374.068,188.472 375.868,191.72 379.468,194.664 L379.468,194.664 Z M388.228,192.408 L393.508,180.192 C393.908,179.264 394.248,178.684 394.528,178.452 C394.808,178.22 395.42,178.104 396.364,178.104 L396.364,178.104 L396.364,177.6 L390.772,177.6 L390.772,178.104 C391.764,178.104 392.4,178.244 392.68,178.524 C392.96,178.804 392.948,179.272 392.644,179.928 L392.644,179.928 L388.612,189.264 L384.532,179.928 C384.228,179.272 384.216,178.804 384.496,178.524 C384.776,178.244 385.412,178.104 386.404,178.104 L386.404,178.104 L386.404,177.6 L379.756,177.6 L379.756,178.104 C380.7,178.104 381.312,178.22 381.592,178.452 C381.872,178.684 382.212,179.264 382.612,180.192 L382.612,180.192 L387.916,192.408 L388.228,192.408 Z M396.7,194.664 C400.284,191.736 402.076,188.488 402.076,184.92 C402.076,181.368 400.292,178.12 396.724,175.176 L396.724,175.176 L396.148,175.68 C396.676,176.272 397.104,176.776 397.432,177.192 C397.76,177.608 398.196,178.236 398.74,179.076 C399.284,179.916 399.7,180.832 399.988,181.824 C400.276,182.816 400.42,183.848 400.42,184.92 C400.42,185.992 400.276,187.024 399.988,188.016 C399.7,189.008 399.284,189.924 398.74,190.764 C398.196,191.604 397.76,192.232 397.432,192.648 C397.104,193.064 396.676,193.568 396.148,194.16 L396.148,194.16 L396.7,194.664 Z" id="SourceVoltage(V)" fill="#524740" fill-rule="nonzero"></path>
            <path d="M178.212,17 L178.212,16.496 C177.22,16.496 176.592,16.328 176.328,15.992 C176.064,15.656 175.932,14.888 175.932,13.688 L175.932,13.688 L175.932,10.688 L177.06,10.688 L181.812,17 L185.772,17 L185.772,16.496 C184.364,16.336 182.876,15.32 181.308,13.448 L181.308,13.448 L178.956,10.688 C180.284,10.544 181.328,10.104 182.088,9.368 C182.848,8.632 183.228,7.728 183.228,6.656 C183.228,5.488 182.772,4.52 181.86,3.752 C180.948,2.984 179.684,2.6 178.068,2.6 L178.068,2.6 L171.732,2.6 L171.732,3.104 C172.724,3.104 173.352,3.268 173.616,3.596 C173.88,3.924 174.012,4.688 174.012,5.888 L174.012,5.888 L174.012,13.688 C174.012,14.888 173.88,15.656 173.616,15.992 C173.352,16.328 172.724,16.496 171.732,16.496 L171.732,16.496 L171.732,17 L178.212,17 Z M178.044,9.824 L175.932,9.824 L175.932,3.488 L178.044,3.488 C179.036,3.488 179.792,3.784 180.312,4.376 C180.832,4.968 181.092,5.728 181.092,6.656 C181.092,7.584 180.832,8.344 180.312,8.936 C179.792,9.528 179.036,9.824 178.044,9.824 L178.044,9.824 Z M195.732,18.896 L196.332,15.608 L190.116,15.608 L193.812,12.776 L194.052,12.632 C194.196,12.52 194.376,12.356 194.592,12.14 C194.808,11.924 195.024,11.688 195.24,11.432 C195.456,11.176 195.64,10.864 195.792,10.496 C195.944,10.128 196.02,9.768 196.02,9.416 C196.02,8.456 195.564,7.68 194.652,7.088 C193.74,6.496 192.668,6.2 191.436,6.2 C190.108,6.2 189.044,6.524 188.244,7.172 C187.444,7.82 187.08,8.572 187.152,9.428 C187.224,10.284 187.724,10.992 188.652,11.552 L188.652,11.552 L189.372,10.808 C188.844,9.816 188.828,8.968 189.324,8.264 C189.82,7.56 190.524,7.208 191.436,7.208 C192.22,7.208 192.848,7.408 193.32,7.808 C193.792,8.208 194.028,8.752 194.028,9.44 C194.028,10.656 193.26,11.872 191.724,13.088 L191.724,13.088 L187.476,16.424 L187.476,17 L192.42,17 C193.62,17 194.388,17.116 194.724,17.348 C195.06,17.58 195.228,18.096 195.228,18.896 L195.228,18.896 L195.732,18.896 Z" id="R2" fill="#524740" fill-rule="nonzero"></path>
            <path d="M90.096,17 L90.096,16.496 C89.104,16.496 88.476,16.328 88.212,15.992 C87.948,15.656 87.816,14.888 87.816,13.688 L87.816,13.688 L87.816,10.688 L88.944,10.688 L93.696,17 L97.656,17 L97.656,16.496 C96.248,16.336 94.76,15.32 93.192,13.448 L93.192,13.448 L90.84,10.688 C92.168,10.544 93.212,10.104 93.972,9.368 C94.732,8.632 95.112,7.728 95.112,6.656 C95.112,5.488 94.656,4.52 93.744,3.752 C92.832,2.984 91.568,2.6 89.952,2.6 L89.952,2.6 L83.616,2.6 L83.616,3.104 C84.608,3.104 85.236,3.268 85.5,3.596 C85.764,3.924 85.896,4.688 85.896,5.888 L85.896,5.888 L85.896,13.688 C85.896,14.888 85.764,15.656 85.5,15.992 C85.236,16.328 84.608,16.496 83.616,16.496 L83.616,16.496 L83.616,17 L90.096,17 Z M89.928,9.824 L87.816,9.824 L87.816,3.488 L89.928,3.488 C90.92,3.488 91.676,3.784 92.196,4.376 C92.716,4.968 92.976,5.728 92.976,6.656 C92.976,7.584 92.716,8.344 92.196,8.936 C91.676,9.528 90.92,9.824 89.928,9.824 L89.928,9.824 Z M105.096,17 L105.096,16.496 C104.088,16.496 103.452,16.332 103.188,16.004 C102.924,15.676 102.792,14.904 102.792,13.688 L102.792,13.688 L102.792,9.896 C102.792,8.68 102.924,7.908 103.188,7.58 C103.452,7.252 104.088,7.088 105.096,7.088 L105.096,7.088 L105.096,6.608 L98.784,6.608 L98.784,7.088 C99.776,7.088 100.408,7.256 100.68,7.592 C100.952,7.928 101.088,8.696 101.088,9.896 L101.088,9.896 L101.088,13.688 C101.088,14.888 100.952,15.656 100.68,15.992 C100.408,16.328 99.776,16.496 98.784,16.496 L98.784,16.496 L98.784,17 L105.096,17 Z" id="R1" fill="#524740" fill-rule="nonzero"></path>
            <path d="M268.356,17 L268.356,16.496 C267.364,16.496 266.736,16.328 266.472,15.992 C266.208,15.656 266.076,14.888 266.076,13.688 L266.076,13.688 L266.076,10.688 L267.204,10.688 L271.956,17 L275.916,17 L275.916,16.496 C274.508,16.336 273.02,15.32 271.452,13.448 L271.452,13.448 L269.1,10.688 C270.428,10.544 271.472,10.104 272.232,9.368 C272.992,8.632 273.372,7.728 273.372,6.656 C273.372,5.488 272.916,4.52 272.004,3.752 C271.092,2.984 269.828,2.6 268.212,2.6 L268.212,2.6 L261.876,2.6 L261.876,3.104 C262.868,3.104 263.496,3.268 263.76,3.596 C264.024,3.924 264.156,4.688 264.156,5.888 L264.156,5.888 L264.156,13.688 C264.156,14.888 264.024,15.656 263.76,15.992 C263.496,16.328 262.868,16.496 261.876,16.496 L261.876,16.496 L261.876,17 L268.356,17 Z M268.188,9.824 L266.076,9.824 L266.076,3.488 L268.188,3.488 C269.18,3.488 269.936,3.784 270.456,4.376 C270.976,4.968 271.236,5.728 271.236,6.656 C271.236,7.584 270.976,8.344 270.456,8.936 C269.936,9.528 269.18,9.824 268.188,9.824 L268.188,9.824 Z M281.82,21.488 C283.164,21.488 284.296,21.096 285.216,20.312 C286.136,19.528 286.596,18.584 286.596,17.48 C286.596,16.552 286.26,15.736 285.588,15.032 C284.916,14.328 284.004,13.856 282.852,13.616 L282.852,13.616 L283.956,12.776 L284.196,12.632 C284.34,12.52 284.52,12.356 284.736,12.14 C284.952,11.924 285.168,11.688 285.384,11.432 C285.6,11.176 285.784,10.864 285.936,10.496 C286.088,10.128 286.164,9.768 286.164,9.416 C286.164,8.456 285.708,7.68 284.796,7.088 C283.884,6.496 282.812,6.2 281.58,6.2 C280.252,6.2 279.188,6.524 278.388,7.172 C277.588,7.82 277.224,8.572 277.296,9.428 C277.368,10.284 277.868,10.992 278.796,11.552 L278.796,11.552 L279.516,10.808 C278.94,9.816 278.932,8.968 279.492,8.264 C280.052,7.56 280.748,7.208 281.58,7.208 C282.364,7.208 282.996,7.408 283.476,7.808 C283.956,8.208 284.196,8.744 284.196,9.416 C284.196,10.008 284.048,10.58 283.752,11.132 C283.456,11.684 283.076,12.136 282.612,12.488 L282.612,12.488 L280.836,13.904 C280.42,14.208 280.212,14.504 280.212,14.792 C280.212,14.952 280.264,15.084 280.368,15.188 C280.472,15.292 280.588,15.344 280.716,15.344 C280.86,15.344 281.004,15.284 281.148,15.164 C281.292,15.044 281.448,14.884 281.616,14.684 C281.784,14.484 281.924,14.336 282.036,14.24 C282.868,14.416 283.48,14.808 283.872,15.416 C284.264,16.024 284.46,16.712 284.46,17.48 C284.46,18.408 284.224,19.156 283.752,19.724 C283.28,20.292 282.572,20.576 281.628,20.576 C280.652,20.576 279.868,20.264 279.276,19.64 C279.132,19.496 278.984,19.296 278.832,19.04 C278.68,18.784 278.544,18.584 278.424,18.44 C278.304,18.296 278.164,18.224 278.004,18.224 C277.588,18.224 277.38,18.408 277.38,18.776 C277.38,19.336 277.796,19.928 278.628,20.552 C279.46,21.176 280.524,21.488 281.82,21.488 Z" id="R3" fill="#524740" fill-rule="nonzero"></path>
            <polyline id="Resistor" stroke="#524740" stroke-width="2" stroke-linejoin="bevel" points="148 46 153 46 158 33 168 59 178 33 188 59 198 33 208 59 213 46 218 46"></polyline>
            <polyline id="Resistor-Copy-3" stroke="#524740" stroke-width="2" stroke-linejoin="bevel" points="238 46 243 46 248 33 258 59 268 33 278 59 288 33 298 59 303 46 308 46"></polyline>
            <polyline id="Resistor-Copy-4" stroke="#524740" stroke-width="2" stroke-linejoin="bevel" points="58 46 63 46 68 33 78 59 88 33 98 59 108 33 118 59 123 46 128 46"></polyline>
            <g id="DC_Power" transform="translate(143.000000, 118.000000)">
                <circle id="Oval" stroke="#524740" stroke-width="2" cx="40" cy="40" r="39"></circle>
                <text id="+" font-family="Lato-Regular, Lato" font-size="18" font-weight="normal" letter-spacing="0.8999999" fill="#524740">
                    <tspan x="58.3300001" y="47">+</tspan>
                </text>
                <text id="-" font-family="Lato-Regular, Lato" font-size="18" font-weight="normal" letter-spacing="0.8999999" fill="#524740">
                    <tspan x="13.2065" y="46.5">-</tspan>
                </text>
            </g>
            <line x1="128" y1="46" x2="148" y2="46" id="Path-4" stroke="#524740" stroke-width="2"></line>
            <line x1="218" y1="46" x2="238" y2="46" id="Path-4-Copy" stroke="#524740" stroke-width="2"></line>
            <line x1="218" y1="46" x2="238" y2="46" id="Path-4-Copy-2" stroke="#524740" stroke-width="2"></line>
        </g>
    </g>
</svg>