<?xml version="1.0" encoding="UTF-8"?>
<svg width="900px" height="320px" viewBox="0 0 900 320" version="1.1" xmlns="http://www.w3.org/2000/svg" xmlns:xlink="http://www.w3.org/1999/xlink">
    <!-- Generator: Sketch 60.1 (88133) - https://sketch.com -->
    <title>AC_DC</title>
    <desc>Created with Sketch.</desc>
    <g id="AC_DC" stroke="none" stroke-width="1" fill="none" fill-rule="evenodd">
        <g id="Illustration_Frame">
            <rect id="Rectangle" stroke="#3D3530" stroke-width="2" fill="#EEEEEE" x="1" y="1" width="898" height="318"></rect>
            <rect id="Rectangle-Copy" stroke="#3D3530" stroke-width="2" fill="#F8FAE4" x="1" y="276" width="898" height="43"></rect>
            <path d="M622.951999,306.063059 C624.519999,306.063059 625.883999,305.728 627.043999,305.057882 C628.203999,304.387765 629.103999,303.465412 629.743999,302.290824 L629.743999,302.290824 L628.255999,301.455059 C627.759999,302.433882 627.051999,303.213176 626.131999,303.792941 C625.211999,304.372706 624.151999,304.662588 622.951999,304.662588 C621.127999,304.662588 619.667999,304.060235 618.571999,302.855529 C617.475999,301.650824 616.927999,300.137412 616.927999,298.315294 C616.927999,296.478118 617.475999,294.960941 618.571999,293.763765 C619.667999,292.566588 621.127999,291.968 622.951999,291.968 C624.135999,291.968 625.187999,292.254118 626.107999,292.826353 C627.027999,293.398588 627.743999,294.174118 628.255999,295.152941 L628.255999,295.152941 L629.743999,294.339765 C629.103999,293.165176 628.203999,292.239059 627.043999,291.561412 C625.883999,290.883765 624.519999,290.544941 622.951999,290.544941 C620.583999,290.544941 618.695999,291.286588 617.287999,292.769882 C615.879999,294.253176 615.175999,296.101647 615.175999,298.315294 C615.175999,300.513882 615.879999,302.354824 617.287999,303.838118 C618.695999,305.321412 620.583999,306.063059 622.951999,306.063059 Z M638.018666,306.063059 C639.602666,306.063059 640.882666,305.445647 641.858666,304.210824 L641.858666,304.210824 L641.858666,305.882353 L643.442666,305.882353 L643.442666,294.588235 L641.858666,294.588235 L641.858666,301.206588 C641.858666,302.170353 641.514666,302.987294 640.826666,303.657412 C640.138666,304.327529 639.290666,304.662588 638.282666,304.662588 C637.290666,304.662588 636.450666,304.327529 635.762666,303.657412 C635.074666,302.987294 634.730666,302.170353 634.730666,301.206588 L634.730666,301.206588 L634.730666,294.588235 L633.098666,294.588235 L633.098666,301.251765 C633.098666,302.607059 633.570666,303.747765 634.514666,304.673882 C635.458666,305.6 636.626666,306.063059 638.018666,306.063059 Z M648.981333,305.882353 L648.981333,299.264 C648.981333,298.285176 649.325333,297.460706 650.013333,296.790588 C650.701333,296.120471 651.549333,295.785412 652.557333,295.785412 C653.245333,295.785412 653.925333,296.018824 654.597333,296.485647 L654.597333,296.485647 L655.149333,294.994824 C654.445333,294.603294 653.669333,294.407529 652.821333,294.407529 C651.237333,294.407529 649.957333,295.024941 648.981333,296.259765 L648.981333,296.259765 L648.981333,294.588235 L647.397333,294.588235 L647.397333,305.882353 L648.981333,305.882353 Z M659.535999,305.882353 L659.535999,299.264 C659.535999,298.285176 659.879999,297.460706 660.567999,296.790588 C661.255999,296.120471 662.103999,295.785412 663.111999,295.785412 C663.799999,295.785412 664.479999,296.018824 665.151999,296.485647 L665.151999,296.485647 L665.703999,294.994824 C664.999999,294.603294 664.223999,294.407529 663.375999,294.407529 C661.791999,294.407529 660.511999,295.024941 659.535999,296.259765 L659.535999,296.259765 L659.535999,294.588235 L657.951999,294.588235 L657.951999,305.882353 L659.535999,305.882353 Z M673.018666,305.950118 C674.490666,305.965176 675.758666,305.573647 676.822666,304.775529 C677.886666,303.977412 678.602666,303.104 678.970666,302.155294 L678.970666,302.155294 L677.626666,301.703529 C677.322666,302.471529 676.746666,303.141647 675.898666,303.713882 C675.050666,304.286118 674.090666,304.572235 673.018666,304.572235 C672.026666,304.587294 671.122666,304.304941 670.306666,303.725176 C669.490666,303.145412 668.946666,302.403765 668.674666,301.500235 L668.674666,301.500235 L679.162666,299.715765 C679.162666,299.595294 679.154666,299.497412 679.138666,299.422118 C678.962666,297.976471 678.290666,296.764235 677.122666,295.785412 C675.954666,294.806588 674.586666,294.309647 673.018666,294.294588 C671.290666,294.309647 669.826666,294.881882 668.626666,296.011294 C667.426666,297.140706 666.826666,298.518588 666.826666,300.144941 C666.826666,300.732235 666.906666,301.274353 667.066666,301.771294 C667.466666,302.991059 668.222666,303.992471 669.334666,304.775529 C670.446666,305.558588 671.674666,305.950118 673.018666,305.950118 Z M668.434666,300.280471 C668.434666,300.205176 668.430666,300.111059 668.422666,299.998118 C668.414666,299.885176 668.410666,299.806118 668.410666,299.760941 C668.474666,298.646588 668.934666,297.690353 669.790666,296.892235 C670.646666,296.094118 671.674666,295.687529 672.874666,295.672471 C673.898666,295.657412 674.826666,295.939765 675.658666,296.519529 C676.490666,297.099294 677.058666,297.848471 677.362666,298.767059 L677.362666,298.767059 L668.434666,300.280471 Z M683.669333,305.882353 L683.669333,299.264 C683.669333,298.300235 684.017333,297.479529 684.713333,296.801882 C685.409333,296.124235 686.253333,295.785412 687.245333,295.785412 C688.237333,295.785412 689.081333,296.124235 689.777333,296.801882 C690.473333,297.479529 690.821333,298.300235 690.821333,299.264 L690.821333,299.264 L690.821333,305.882353 L692.429333,305.882353 L692.429333,299.218824 C692.429333,297.863529 691.957333,296.722824 691.013333,295.796706 C690.069333,294.870588 688.901333,294.407529 687.509333,294.407529 C685.925333,294.407529 684.645333,295.024941 683.669333,296.259765 L683.669333,296.259765 L683.669333,294.588235 L682.085333,294.588235 L682.085333,305.882353 L683.669333,305.882353 Z M700.319999,306.063059 C700.911999,306.063059 701.487999,305.916235 702.047999,305.622588 C702.607999,305.328941 702.967999,305.099294 703.127999,304.933647 C703.287999,304.768 703.415999,304.624941 703.511999,304.504471 L703.511999,304.504471 L702.719999,303.352471 C702.719999,303.412706 702.635999,303.544471 702.467999,303.747765 C702.299999,303.951059 702.039999,304.158118 701.687999,304.368941 C701.335999,304.579765 700.975999,304.685176 700.607999,304.685176 C700.015999,304.685176 699.491999,304.481882 699.035999,304.075294 C698.579999,303.668706 698.351999,303.119059 698.351999,302.426353 L698.351999,302.426353 L698.351999,295.943529 L701.975999,295.943529 L701.975999,294.565647 L698.351999,294.565647 L698.351999,290.816 L696.767999,290.996706 L696.767999,294.565647 L694.847999,294.565647 L694.847999,295.943529 L696.767999,295.943529 L696.767999,302.765176 C696.767999,303.834353 697.107999,304.651294 697.787999,305.216 C698.467999,305.780706 699.311999,306.063059 700.319999,306.063059 Z M720.685333,305.882353 L720.685333,292.193882 L726.421333,292.193882 L726.421333,290.703059 L713.365333,290.703059 L713.365333,292.193882 L719.101333,292.193882 L719.101333,305.882353 L720.685333,305.882353 Z M729.32,310.693647 L735.872,294.588235 L734.288,294.588235 L731,302.652235 L727.4,294.588235 L725.816,294.588235 L730.256,304.504471 L727.736,310.693647 L729.32,310.693647 Z M740.642666,311.371294 L740.642666,303.984941 C741.858666,305.355294 743.426666,306.040471 745.346666,306.040471 C747.058666,306.040471 748.518666,305.472 749.726666,304.335059 C750.934666,303.198118 751.538666,301.824 751.538666,300.212706 C751.538666,298.601412 750.934666,297.227294 749.726666,296.090353 C748.518666,294.953412 747.058666,294.384941 745.346666,294.384941 C743.442666,294.384941 741.874666,295.062588 740.642666,296.417882 L740.642666,296.417882 L740.642666,294.565647 L739.058666,294.565647 L739.058666,311.371294 L740.642666,311.371294 Z M745.298666,304.617412 C744.018666,304.617412 742.930666,304.195765 742.034666,303.352471 C741.138666,302.494118 740.690666,301.447529 740.690666,300.212706 C740.690666,298.977882 741.138666,297.931294 742.034666,297.072941 C742.930666,296.214588 744.018666,295.785412 745.298666,295.785412 C746.578666,295.785412 747.670666,296.214588 748.574666,297.072941 C749.478666,297.931294 749.930666,298.977882 749.930666,300.212706 C749.930666,301.447529 749.478666,302.490353 748.574666,303.341176 C747.670666,304.192 746.578666,304.617412 745.298666,304.617412 Z M760.149333,305.950118 C761.621333,305.965176 762.889333,305.573647 763.953333,304.775529 C765.017333,303.977412 765.733333,303.104 766.101333,302.155294 L766.101333,302.155294 L764.757333,301.703529 C764.453333,302.471529 763.877333,303.141647 763.029333,303.713882 C762.181333,304.286118 761.221333,304.572235 760.149333,304.572235 C759.157333,304.587294 758.253333,304.304941 757.437333,303.725176 C756.621333,303.145412 756.077333,302.403765 755.805333,301.500235 L755.805333,301.500235 L766.293333,299.715765 C766.293333,299.595294 766.285333,299.497412 766.269333,299.422118 C766.093333,297.976471 765.421333,296.764235 764.253333,295.785412 C763.085333,294.806588 761.717333,294.309647 760.149333,294.294588 C758.421333,294.309647 756.957333,294.881882 755.757333,296.011294 C754.557333,297.140706 753.957333,298.518588 753.957333,300.144941 C753.957333,300.732235 754.037333,301.274353 754.197333,301.771294 C754.597333,302.991059 755.353333,303.992471 756.465333,304.775529 C757.577333,305.558588 758.805333,305.950118 760.149333,305.950118 Z M755.565333,300.280471 C755.565333,300.205176 755.561333,300.111059 755.553333,299.998118 C755.545333,299.885176 755.541333,299.806118 755.541333,299.760941 C755.605333,298.646588 756.065333,297.690353 756.921333,296.892235 C757.777333,296.094118 758.805333,295.687529 760.005333,295.672471 C761.029333,295.657412 761.957333,295.939765 762.789333,296.519529 C763.621333,297.099294 764.189333,297.848471 764.493333,298.767059 L764.493333,298.767059 L755.565333,300.280471 Z M773.416,306.063059 C774.888,306.063059 775.992,305.769412 776.728,305.182118 C777.464,304.594824 777.832,303.826824 777.832,302.878118 C777.832,302.200471 777.568,301.624471 777.04,301.150118 C776.512,300.675765 775.868,300.314353 775.108,300.065882 C774.348,299.817412 773.592,299.587765 772.84,299.376941 C772.088,299.166118 771.448,298.913882 770.92,298.620235 C770.392,298.326588 770.128,297.976471 770.128,297.569882 C770.128,296.997647 770.396,296.553412 770.932,296.237176 C771.468,295.920941 772.168,295.762824 773.032,295.762824 C773.64,295.762824 774.248,295.890824 774.856,296.146824 C775.464,296.402824 775.868,296.606118 776.068,296.756706 C776.268,296.907294 776.424,297.035294 776.536,297.140706 L776.536,297.140706 L777.664,296.214588 L777.16,295.762824 C776.824,295.461647 776.272,295.160471 775.504,294.859294 C774.736,294.558118 773.92,294.407529 773.056,294.407529 C771.6,294.407529 770.5,294.704941 769.756,295.299765 C769.012,295.894588 768.64,296.658824 768.64,297.592471 C768.64,298.270118 768.904,298.842353 769.432,299.309176 C769.96,299.776 770.604,300.137412 771.364,300.393412 C772.124,300.649412 772.88,300.882824 773.632,301.093647 C774.384,301.304471 775.024,301.556706 775.552,301.850353 C776.08,302.144 776.344,302.494118 776.344,302.900706 C776.344,303.472941 776.08,303.917176 775.552,304.233412 C775.024,304.549647 774.32,304.707765 773.44,304.707765 C772.848,304.707765 772.248,304.579765 771.64,304.323765 C771.032,304.067765 770.628,303.864471 770.428,303.713882 C770.228,303.563294 770.072,303.435294 769.96,303.329882 L769.96,303.329882 L768.832,304.233412 L769.024,304.436706 C769.152,304.557176 769.352,304.707765 769.624,304.888471 C769.896,305.069176 770.204,305.246118 770.548,305.419294 C770.892,305.592471 771.32,305.743059 771.832,305.871059 C772.344,305.999059 772.872,306.063059 773.416,306.063059 Z M793.493333,308.864 L794.357333,307.983059 L793.829333,307.644235 C793.477333,307.403294 793.045333,307.015529 792.533333,306.480941 C792.021333,305.946353 791.509333,305.321412 790.997333,304.606118 C790.485333,303.890824 790.053333,302.972235 789.701333,301.850353 C789.349333,300.728471 789.173333,299.550118 789.173333,298.315294 C789.173333,297.080471 789.357333,295.894588 789.725333,294.757647 C790.093333,293.620706 790.505333,292.705882 790.961333,292.013176 C791.417333,291.320471 791.941333,290.676706 792.533333,290.081882 C793.125333,289.487059 793.537333,289.106824 793.769333,288.941176 C794.001333,288.775529 794.189333,288.647529 794.333333,288.557176 L794.333333,288.557176 L793.493333,287.744 L792.893333,288.105412 C792.509333,288.346353 792.037333,288.749176 791.477333,289.313882 C790.917333,289.878588 790.357333,290.548706 789.797333,291.324235 C789.237333,292.099765 788.761333,293.108706 788.369333,294.351059 C787.977333,295.593412 787.781333,296.914824 787.781333,298.315294 C787.781333,299.339294 787.889333,300.325647 788.105333,301.274353 C788.321333,302.223059 788.589333,303.036235 788.909333,303.713882 C789.229333,304.391529 789.605333,305.031529 790.037333,305.633882 C790.469333,306.236235 790.865333,306.718118 791.225333,307.079529 C791.585333,307.440941 791.965333,307.776 792.365333,308.084706 C792.765333,308.393412 793.033333,308.589176 793.169333,308.672 C793.305333,308.754824 793.413333,308.818824 793.493333,308.864 L793.493333,308.864 Z M797.472,305.882353 L799.536,301.138824 L807.072,301.138824 L809.136,305.882353 L810.768,305.882353 L804.048,290.703059 L802.536,290.703059 L795.816,305.882353 L797.472,305.882353 Z M806.424,299.648 L800.184,299.648 L803.304,292.442353 L806.424,299.648 Z M819.498666,306.063059 C821.066666,306.063059 822.430667,305.728 823.590666,305.057882 C824.750666,304.387765 825.650666,303.465412 826.290666,302.290824 L826.290666,302.290824 L824.802666,301.455059 C824.306667,302.433882 823.598666,303.213176 822.678666,303.792941 C821.758667,304.372706 820.698666,304.662588 819.498666,304.662588 C817.674666,304.662588 816.214666,304.060235 815.118666,302.855529 C814.022666,301.650824 813.474666,300.137412 813.474666,298.315294 C813.474666,296.478118 814.022666,294.960941 815.118666,293.763765 C816.214666,292.566588 817.674666,291.968 819.498666,291.968 C820.682666,291.968 821.734667,292.254118 822.654666,292.826353 C823.574666,293.398588 824.290666,294.174118 824.802666,295.152941 L824.802666,295.152941 L826.290666,294.339765 C825.650666,293.165176 824.750666,292.239059 823.590666,291.561412 C822.430667,290.883765 821.066666,290.544941 819.498666,290.544941 C817.130666,290.544941 815.242666,291.286588 813.834666,292.769882 C812.426666,294.253176 811.722666,296.101647 811.722666,298.315294 C811.722666,300.513882 812.426666,302.354824 813.834666,303.838118 C815.242666,305.321412 817.130666,306.063059 819.498666,306.063059 Z M829.693333,305.882353 L837.085333,290.703059 L835.405333,290.703059 L828.013333,305.882353 L829.693333,305.882353 Z M843.536,305.882353 C846.176,305.882353 848.284,305.155765 849.86,303.702588 C851.436,302.249412 852.224,300.446118 852.224,298.292706 C852.224,296.124235 851.44,294.317176 849.872,292.871529 C848.304,291.425882 846.192,290.703059 843.536,290.703059 L843.536,290.703059 L839.888,290.703059 L839.888,305.882353 L843.536,305.882353 Z M843.536,304.459294 L841.472,304.459294 L841.472,292.126118 L843.536,292.126118 C845.648,292.126118 847.336,292.709647 848.6,293.876706 C849.864,295.043765 850.496,296.515765 850.496,298.292706 C850.496,300.069647 849.864,301.541647 848.6,302.708706 C847.336,303.875765 845.648,304.459294 843.536,304.459294 L843.536,304.459294 Z M862.778667,306.063059 C864.346667,306.063059 865.710667,305.728 866.870667,305.057882 C868.030667,304.387765 868.930667,303.465412 869.570667,302.290824 L869.570667,302.290824 L868.082667,301.455059 C867.586667,302.433882 866.878667,303.213176 865.958667,303.792941 C865.038667,304.372706 863.978667,304.662588 862.778667,304.662588 C860.954667,304.662588 859.494667,304.060235 858.398667,302.855529 C857.302667,301.650824 856.754667,300.137412 856.754667,298.315294 C856.754667,296.478118 857.302667,294.960941 858.398667,293.763765 C859.494667,292.566588 860.954667,291.968 862.778667,291.968 C863.962667,291.968 865.014667,292.254118 865.934667,292.826353 C866.854667,293.398588 867.570667,294.174118 868.082667,295.152941 L868.082667,295.152941 L869.570667,294.339765 C868.930667,293.165176 868.030667,292.239059 866.870667,291.561412 C865.710667,290.883765 864.346667,290.544941 862.778667,290.544941 C860.410667,290.544941 858.522667,291.286588 857.114667,292.769882 C855.706667,294.253176 855.002667,296.101647 855.002667,298.315294 C855.002667,300.513882 855.706667,302.354824 857.114667,303.838118 C858.522667,305.321412 860.410667,306.063059 862.778667,306.063059 Z M872.493333,308.864 L872.805333,308.683294 C873.013333,308.562824 873.285333,308.363294 873.621333,308.084706 C873.957333,307.806118 874.329333,307.474824 874.737333,307.090824 C875.145333,306.706824 875.553333,306.217412 875.961333,305.622588 C876.369333,305.027765 876.741333,304.387765 877.077333,303.702588 C877.413333,303.017412 877.685333,302.204235 877.893333,301.263059 C878.101333,300.321882 878.205333,299.339294 878.205333,298.315294 C878.205333,297.291294 878.097333,296.304941 877.881333,295.356235 C877.665333,294.407529 877.397333,293.598118 877.077333,292.928 C876.757333,292.257882 876.381333,291.614118 875.949333,290.996706 C875.517333,290.379294 875.121333,289.889882 874.761333,289.528471 C874.401333,289.167059 874.021333,288.832 873.621333,288.523294 C873.221333,288.214588 872.953333,288.018824 872.817333,287.936 C872.681333,287.853176 872.573333,287.789176 872.493333,287.744 L872.493333,287.744 L871.653333,288.557176 L872.181333,288.918588 C872.533333,289.159529 872.965333,289.554824 873.477333,290.104471 C873.989333,290.654118 874.497333,291.290353 875.001333,292.013176 C875.505333,292.736 875.933333,293.658353 876.285333,294.780235 C876.637333,295.902118 876.813333,297.080471 876.813333,298.315294 C876.813333,299.550118 876.625333,300.732235 876.249333,301.861647 C875.873333,302.991059 875.457333,303.898353 875.001333,304.583529 C874.545333,305.268706 874.021333,305.904941 873.429333,306.492235 C872.837333,307.079529 872.425333,307.456 872.193333,307.621647 C871.961333,307.787294 871.773333,307.907765 871.629333,307.983059 L871.629333,307.983059 L872.493333,308.864 Z" id="CurrentTypes(AC/DC)" fill="#23ABE3" fill-rule="nonzero"></path>
        </g>
        <g transform="translate(176.000000, 21.000000)">
            <line x1="90" y1="12" x2="90" y2="212" id="Line-7-Copy-2" stroke="#524740" stroke-width="2" stroke-linecap="square"></line>
            <line x1="387" y1="111" x2="74" y2="111" id="Line-7-Copy-6" stroke="#524740" stroke-width="2" stroke-linecap="square"></line>
            <line x1="390" y1="151" x2="356" y2="171" id="Line-7-Copy-9" stroke="#B09679" stroke-width="2" stroke-linecap="square" transform="translate(373.500000, 161.000000) scale(-1, 1) translate(-373.500000, -161.000000) "></line>
            <text id="+" font-family="Lato-Regular, Lato" font-size="18" font-weight="normal" letter-spacing="0.6950497" fill="#555555">
                <tspan x="48.8649503" y="18">+</tspan>
            </text>
            <line x1="390" y1="48" x2="356" y2="68" id="Line-7-Copy-10" stroke="#B09679" stroke-width="2" stroke-linecap="square" transform="translate(373.500000, 58.000000) scale(-1, 1) translate(-373.500000, -58.000000) "></line>
            <path d="M215.42,235 L215.42,234.496 C214.428,234.496 213.796,234.328 213.524,233.992 C213.252,233.656 213.116,232.888 213.116,231.688 L213.116,231.688 L213.116,221.536 L216.26,221.536 C217.284,221.536 217.956,221.66 218.276,221.908 C218.596,222.156 218.852,222.64 219.044,223.36 L219.044,223.36 L219.164,223.84 L219.668,223.84 L219.452,220.6 L204.884,220.6 L204.668,223.84 L205.172,223.84 L205.292,223.36 C205.484,222.64 205.74,222.156 206.06,221.908 C206.38,221.66 207.052,221.536 208.076,221.536 L208.076,221.536 L211.22,221.536 L211.22,231.688 C211.22,232.888 211.084,233.656 210.812,233.992 C210.54,234.328 209.908,234.496 208.916,234.496 L208.916,234.496 L208.916,235 L215.42,235 Z M223.508,224.248 C223.796,224.248 224.044,224.144 224.252,223.936 C224.46,223.728 224.564,223.472 224.564,223.168 C224.564,222.88 224.46,222.632 224.252,222.424 C224.044,222.216 223.796,222.112 223.508,222.112 C223.22,222.112 222.972,222.216 222.764,222.424 C222.556,222.632 222.452,222.88 222.452,223.168 C222.452,223.472 222.556,223.728 222.764,223.936 C222.972,224.144 223.22,224.248 223.508,224.248 Z M226.268,235 L226.268,234.496 C225.468,234.496 224.952,234.328 224.72,233.992 C224.488,233.656 224.372,232.888 224.372,231.688 L224.372,231.688 L224.372,226.6 L220.772,227.2 L220.772,227.704 C221.572,227.704 222.088,227.872 222.32,228.208 C222.552,228.544 222.668,229.304 222.668,230.488 L222.668,230.488 L222.668,231.688 C222.668,232.888 222.552,233.656 222.32,233.992 C222.088,234.328 221.572,234.496 220.772,234.496 L220.772,234.496 L220.772,235 L226.268,235 Z M232.724,235 L232.724,234.496 C232.068,234.496 231.656,234.34 231.488,234.028 C231.32,233.716 231.236,232.936 231.236,231.688 L231.236,231.688 L231.236,230.128 C231.236,229.456 231.524,228.888 232.1,228.424 C232.676,227.96 233.212,227.728 233.708,227.728 C234.86,227.728 235.436,228.584 235.436,230.296 L235.436,230.296 L235.436,231.688 C235.436,232.952 235.352,233.736 235.184,234.04 C235.016,234.344 234.596,234.496 233.924,234.496 L233.924,234.496 L233.924,235 L238.628,235 L238.628,234.496 C237.956,234.496 237.536,234.344 237.368,234.04 C237.2,233.736 237.116,232.952 237.116,231.688 L237.116,231.688 L237.116,230.128 C237.116,229.456 237.408,228.888 237.992,228.424 C238.576,227.96 239.116,227.728 239.612,227.728 C240.748,227.728 241.316,228.584 241.316,230.296 L241.316,230.296 L241.316,231.688 C241.316,232.952 241.236,233.736 241.076,234.04 C240.916,234.344 240.5,234.496 239.828,234.496 L239.828,234.496 L239.828,235 L244.916,235 L244.916,234.496 C244.116,234.496 243.6,234.328 243.368,233.992 C243.136,233.656 243.02,232.888 243.02,231.688 L243.02,231.688 L243.02,230.176 C243.02,227.792 242.1,226.6 240.26,226.6 C239.604,226.6 238.96,226.788 238.328,227.164 C237.696,227.54 237.22,227.952 236.9,228.4 C236.532,227.2 235.684,226.6 234.356,226.6 C233.188,226.6 232.148,227.176 231.236,228.328 C231.108,227.48 230.972,226.904 230.828,226.6 L230.828,226.6 L227.636,227.2 L227.636,227.704 C228.436,227.704 228.952,227.872 229.184,228.208 C229.416,228.544 229.532,229.304 229.532,230.488 L229.532,230.488 L229.532,231.688 C229.532,232.888 229.416,233.656 229.184,233.992 C228.952,234.328 228.436,234.496 227.636,234.496 L227.636,234.496 L227.636,235 L232.724,235 Z M250.988,235.408 C251.66,235.408 252.332,235.26 253.004,234.964 C253.676,234.668 254.228,234.288 254.66,233.824 L254.66,233.824 L254.228,233.296 C253.892,233.616 253.468,233.88 252.956,234.088 C252.444,234.296 251.988,234.4 251.588,234.4 C250.404,234.4 249.552,234.028 249.032,233.284 C248.512,232.54 248.324,231.576 248.468,230.392 L248.468,230.392 L254.252,230.392 C254.54,229.384 254.34,228.5 253.652,227.74 C252.964,226.98 252.076,226.6 250.988,226.6 C249.836,226.6 248.808,227.024 247.904,227.872 C247,228.72 246.548,229.76 246.548,230.992 C246.548,232.224 246.964,233.268 247.796,234.124 C248.628,234.98 249.692,235.408 250.988,235.408 Z M252.596,229.504 L248.612,229.504 C248.788,228.912 249.08,228.44 249.488,228.088 C249.896,227.736 250.356,227.56 250.868,227.56 C251.588,227.56 252.096,227.772 252.392,228.196 C252.688,228.62 252.756,229.056 252.596,229.504 L252.596,229.504 Z" id="Time" fill="#524740" fill-rule="nonzero"></path>
            <path d="M-16.076,118.408 L-10.796,106.192 C-10.396,105.264 -10.056,104.684 -9.776,104.452 C-9.496,104.22 -8.884,104.104 -7.94,104.104 L-7.94,104.104 L-7.94,103.6 L-13.532,103.6 L-13.532,104.104 C-12.54,104.104 -11.904,104.244 -11.624,104.524 C-11.344,104.804 -11.356,105.272 -11.66,105.928 L-11.66,105.928 L-15.692,115.264 L-19.772,105.928 C-20.076,105.272 -20.088,104.804 -19.808,104.524 C-19.528,104.244 -18.892,104.104 -17.9,104.104 L-17.9,104.104 L-17.9,103.6 L-24.548,103.6 L-24.548,104.104 C-23.604,104.104 -22.992,104.22 -22.712,104.452 C-22.432,104.684 -22.092,105.264 -21.692,106.192 L-21.692,106.192 L-16.388,118.408 L-16.076,118.408 Z M-2.828,118.408 C-1.5,118.408 -0.36,117.976 0.592,117.112 C1.544,116.248 2.02,115.208 2.02,113.992 C2.02,112.776 1.54,111.744 0.58,110.896 C-0.364,110.032 -1.5,109.6 -2.828,109.6 C-4.156,109.6 -5.296,110.028 -6.248,110.884 C-7.2,111.74 -7.676,112.776 -7.676,113.992 C-7.676,115.208 -7.2,116.248 -6.248,117.112 C-5.296,117.976 -4.156,118.408 -2.828,118.408 Z M-2.828,117.472 C-3.772,117.472 -4.492,117.144 -4.988,116.488 C-5.484,115.832 -5.732,115 -5.732,113.992 C-5.732,112.984 -5.484,112.152 -4.988,111.496 C-4.492,110.84 -3.772,110.512 -2.828,110.512 C-1.884,110.512 -1.164,110.836 -0.668,111.484 C-0.172,112.132 0.076,112.968 0.076,113.992 C0.076,115.016 -0.172,115.856 -0.668,116.512 C-1.164,117.152 -1.884,117.472 -2.828,117.472 Z M9.124,118 L9.124,117.496 C8.324,117.496 7.808,117.328 7.576,116.992 C7.344,116.656 7.228,115.888 7.228,114.688 L7.228,114.688 L7.228,103.192 L3.628,103.792 L3.628,104.296 C4.428,104.296 4.944,104.464 5.176,104.8 C5.408,105.136 5.524,105.904 5.524,107.104 L5.524,107.104 L5.524,114.688 C5.524,115.888 5.408,116.656 5.176,116.992 C4.944,117.328 4.428,117.496 3.628,117.496 L3.628,117.496 L3.628,118 L9.124,118 Z M13.756,118.336 C14.156,118.336 14.592,118.208 15.064,117.952 C15.536,117.696 15.94,117.368 16.276,116.968 L16.276,116.968 L15.868,116.56 C15.292,117.104 14.772,117.376 14.308,117.376 C13.588,117.376 13.228,116.8 13.228,115.648 L13.228,115.648 L13.228,110.848 L15.316,110.848 L15.316,110.008 L13.228,110.008 L13.228,107.368 L12.412,107.368 C12.316,108.2 12.108,108.856 11.788,109.336 C11.468,109.816 10.964,110.128 10.276,110.272 L10.276,110.272 L10.276,110.848 L11.524,110.848 L11.524,115.648 C11.524,116.544 11.724,117.216 12.124,117.664 C12.524,118.112 13.068,118.336 13.756,118.336 Z M19.756,118.312 C20.684,118.312 21.684,117.832 22.756,116.872 C22.884,117.8 23.428,118.264 24.388,118.264 C24.98,118.264 25.508,118.016 25.972,117.52 L25.972,117.52 L25.636,117.064 C25.396,117.304 25.172,117.424 24.964,117.424 C24.596,117.424 24.412,117.112 24.412,116.488 L24.412,116.488 L24.412,112.864 C24.412,111.712 24.156,110.88 23.644,110.368 C23.132,109.856 22.292,109.6 21.124,109.6 C20.324,109.6 19.616,109.78 19,110.14 C18.384,110.5 18.076,110.96 18.076,111.52 C18.076,111.76 18.156,111.96 18.316,112.12 C18.476,112.28 18.676,112.36 18.916,112.36 C19.14,112.36 19.332,112.28 19.492,112.12 C19.652,111.96 19.732,111.76 19.732,111.52 C19.732,111.168 19.88,110.888 20.176,110.68 C20.472,110.472 20.78,110.368 21.1,110.368 C21.756,110.368 22.188,110.552 22.396,110.92 C22.604,111.288 22.708,111.944 22.708,112.888 C19.3,113.48 17.596,114.616 17.596,116.296 C17.596,116.92 17.804,117.412 18.22,117.772 C18.636,118.132 19.148,118.312 19.756,118.312 Z M20.524,117.232 C20.204,117.232 19.936,117.12 19.72,116.896 C19.504,116.672 19.396,116.376 19.396,116.008 C19.396,114.936 20.5,114.144 22.708,113.632 L22.708,113.632 L22.708,116.08 C21.844,116.848 21.116,117.232 20.524,117.232 Z M31.012,124.408 C32.228,124.408 33.24,124.116 34.048,123.532 C34.856,122.948 35.26,122.168 35.26,121.192 C35.26,120.376 34.916,119.68 34.228,119.104 C33.54,118.528 32.428,118.176 30.892,118.048 C29.436,117.92 28.708,117.616 28.708,117.136 C28.708,116.672 29.604,116.336 31.396,116.128 C32.228,116.016 32.956,115.656 33.58,115.048 C34.204,114.44 34.516,113.712 34.516,112.864 C34.516,112.128 34.284,111.48 33.82,110.92 C34.076,110.664 34.324,110.536 34.564,110.536 C34.788,110.536 34.952,110.596 35.056,110.716 C35.16,110.836 35.224,110.964 35.248,111.1 C35.272,111.236 35.344,111.36 35.464,111.472 C35.584,111.584 35.764,111.632 36.004,111.616 C36.132,111.616 36.244,111.576 36.34,111.496 C36.628,111.272 36.7,110.936 36.556,110.488 C36.364,109.896 35.916,109.6 35.212,109.6 C34.94,109.6 34.624,109.688 34.264,109.864 C33.904,110.04 33.62,110.256 33.412,110.512 C32.724,109.904 31.9,109.6 30.94,109.6 C29.948,109.6 29.104,109.92 28.408,110.56 C27.712,111.2 27.364,111.968 27.364,112.864 C27.364,113.504 27.544,114.08 27.904,114.592 C28.264,115.104 28.756,115.504 29.38,115.792 C28.036,116.208 27.364,116.848 27.364,117.712 C27.364,118.976 28.5,119.72 30.772,119.944 C31.876,120.056 32.688,120.232 33.208,120.472 C33.728,120.712 33.988,121.096 33.988,121.624 C33.988,122.168 33.688,122.612 33.088,122.956 C32.488,123.3 31.796,123.472 31.012,123.472 C30.516,123.472 30.04,123.4 29.584,123.256 C29.128,123.112 28.744,122.912 28.432,122.656 C28.12,122.4 27.98,122.052 28.012,121.612 C28.044,121.172 28.292,120.688 28.756,120.16 L28.756,120.16 L28.324,119.896 C27.364,120.392 26.852,121 26.788,121.72 C26.724,122.44 27.088,123.068 27.88,123.604 C28.672,124.14 29.716,124.408 31.012,124.408 Z M30.94,115.336 C30.38,115.336 29.948,115.108 29.644,114.652 C29.34,114.196 29.188,113.6 29.188,112.864 C29.188,112.128 29.34,111.528 29.644,111.064 C29.948,110.6 30.38,110.368 30.94,110.368 C31.5,110.368 31.928,110.6 32.224,111.064 C32.52,111.528 32.668,112.128 32.668,112.864 C32.668,113.6 32.516,114.2 32.212,114.664 C31.924,115.112 31.5,115.336 30.94,115.336 Z M42.1,118.408 C42.772,118.408 43.444,118.26 44.116,117.964 C44.788,117.668 45.34,117.288 45.772,116.824 L45.772,116.824 L45.34,116.296 C45.004,116.616 44.58,116.88 44.068,117.088 C43.556,117.296 43.1,117.4 42.7,117.4 C41.516,117.4 40.664,117.028 40.144,116.284 C39.624,115.54 39.436,114.576 39.58,113.392 L39.58,113.392 L45.364,113.392 C45.652,112.384 45.452,111.5 44.764,110.74 C44.076,109.98 43.188,109.6 42.1,109.6 C40.948,109.6 39.92,110.024 39.016,110.872 C38.112,111.72 37.66,112.76 37.66,113.992 C37.66,115.224 38.076,116.268 38.908,117.124 C39.74,117.98 40.804,118.408 42.1,118.408 Z M43.708,112.504 L39.724,112.504 C39.9,111.912 40.192,111.44 40.6,111.088 C41.008,110.736 41.468,110.56 41.98,110.56 C42.7,110.56 43.208,110.772 43.504,111.196 C43.8,111.62 43.868,112.056 43.708,112.504 L43.708,112.504 Z" id="Voltage" fill="#524740" fill-rule="nonzero" transform="translate(10.612000, 113.800000) rotate(-90.000000) translate(-10.612000, -113.800000) "></path>
            <path d="M46.096,117.408 C47.632,117.408 48.948,116.86 50.044,115.764 C51.14,114.668 51.688,113.344 51.688,111.792 C51.688,110.256 51.14,108.94 50.044,107.844 C48.948,106.748 47.632,106.2 46.096,106.2 C44.56,106.2 43.24,106.752 42.136,107.856 C41.048,108.944 40.504,110.256 40.504,111.792 C40.504,113.344 41.052,114.668 42.148,115.764 C43.244,116.86 44.56,117.408 46.096,117.408 Z M46.096,116.016 C44.976,116.016 44.02,115.604 43.228,114.78 C42.436,113.956 42.04,112.96 42.04,111.792 C42.04,110.64 42.436,109.648 43.228,108.816 C44.02,107.984 44.976,107.568 46.096,107.568 C47.2,107.568 48.152,107.984 48.952,108.816 C49.752,109.648 50.152,110.64 50.152,111.792 C50.152,112.96 49.752,113.956 48.952,114.78 C48.152,115.604 47.2,116.016 46.096,116.016 Z M60.76,117.408 L66.04,105.192 C66.44,104.264 66.78,103.684 67.06,103.452 C67.34,103.22 67.952,103.104 68.896,103.104 L68.896,103.104 L68.896,102.6 L63.304,102.6 L63.304,103.104 C64.296,103.104 64.932,103.244 65.212,103.524 C65.492,103.804 65.48,104.272 65.176,104.928 L65.176,104.928 L61.144,114.264 L57.064,104.928 C56.76,104.272 56.748,103.804 57.028,103.524 C57.308,103.244 57.944,103.104 58.936,103.104 L58.936,103.104 L58.936,102.6 L52.288,102.6 L52.288,103.104 C53.232,103.104 53.844,103.22 54.124,103.452 C54.404,103.684 54.744,104.264 55.144,105.192 L55.144,105.192 L60.448,117.408 L60.76,117.408 Z" id="0V" fill="#524740" fill-rule="nonzero"></path>
            <path d="M402.5,177 L402.5,176.496 C401.508,176.496 400.872,176.356 400.592,176.076 C400.312,175.796 400.324,175.328 400.628,174.672 L400.628,174.672 L401.78,172.008 L407.588,172.008 L408.74,174.672 C409.028,175.328 409.036,175.796 408.764,176.076 C408.492,176.356 407.86,176.496 406.868,176.496 L406.868,176.496 L406.868,177 L413.516,177 L413.516,176.496 C413.004,176.496 412.612,176.476 412.34,176.436 C412.068,176.396 411.824,176.268 411.608,176.052 C411.392,175.836 411.24,175.64 411.152,175.464 C411.064,175.288 410.9,174.936 410.66,174.408 L410.66,174.408 L405.356,162.192 L405.044,162.192 L399.764,174.408 C399.524,174.936 399.36,175.288 399.272,175.464 C399.184,175.64 399.032,175.836 398.816,176.052 C398.6,176.268 398.352,176.396 398.072,176.436 C397.792,176.476 397.396,176.496 396.884,176.496 L396.884,176.496 L396.884,177 L402.5,177 Z M407.18,171.12 L402.164,171.12 L404.66,165.336 L407.18,171.12 Z M418.556,177 L418.556,176.496 C417.756,176.496 417.24,176.328 417.008,175.992 C416.776,175.656 416.66,174.888 416.66,173.688 L416.66,173.688 L416.66,162.192 L413.06,162.792 L413.06,163.296 C413.86,163.296 414.376,163.464 414.608,163.8 C414.84,164.136 414.956,164.904 414.956,166.104 L414.956,166.104 L414.956,173.688 C414.956,174.888 414.84,175.656 414.608,175.992 C414.376,176.328 413.86,176.496 413.06,176.496 L413.06,176.496 L413.06,177 L418.556,177 Z M423.188,177.336 C423.588,177.336 424.024,177.208 424.496,176.952 C424.968,176.696 425.372,176.368 425.708,175.968 L425.708,175.968 L425.3,175.56 C424.724,176.104 424.204,176.376 423.74,176.376 C423.02,176.376 422.66,175.8 422.66,174.648 L422.66,174.648 L422.66,169.848 L424.748,169.848 L424.748,169.008 L422.66,169.008 L422.66,166.368 L421.844,166.368 C421.748,167.2 421.54,167.856 421.22,168.336 C420.9,168.816 420.396,169.128 419.708,169.272 L419.708,169.272 L419.708,169.848 L420.956,169.848 L420.956,174.648 C420.956,175.544 421.156,176.216 421.556,176.664 C421.956,177.112 422.5,177.336 423.188,177.336 Z M431.708,177.408 C432.38,177.408 433.052,177.26 433.724,176.964 C434.396,176.668 434.948,176.288 435.38,175.824 L435.38,175.824 L434.948,175.296 C434.612,175.616 434.188,175.88 433.676,176.088 C433.164,176.296 432.708,176.4 432.308,176.4 C431.124,176.4 430.272,176.028 429.752,175.284 C429.232,174.54 429.044,173.576 429.188,172.392 L429.188,172.392 L434.972,172.392 C435.26,171.384 435.06,170.5 434.372,169.74 C433.684,168.98 432.796,168.6 431.708,168.6 C430.556,168.6 429.528,169.024 428.624,169.872 C427.72,170.72 427.268,171.76 427.268,172.992 C427.268,174.224 427.684,175.268 428.516,176.124 C429.348,176.98 430.412,177.408 431.708,177.408 Z M433.316,171.504 L429.332,171.504 C429.508,170.912 429.8,170.44 430.208,170.088 C430.616,169.736 431.076,169.56 431.588,169.56 C432.308,169.56 432.816,169.772 433.112,170.196 C433.408,170.62 433.476,171.056 433.316,171.504 L433.316,171.504 Z M442.652,177 L442.652,176.496 C441.852,176.496 441.336,176.328 441.104,175.992 C440.872,175.656 440.756,174.888 440.756,173.688 L440.756,173.688 L440.756,172.368 C440.756,171.52 440.972,170.84 441.404,170.328 C441.836,169.816 442.236,169.56 442.604,169.56 C443.116,169.56 443.372,169.824 443.372,170.352 C443.372,170.576 443.456,170.776 443.624,170.952 C443.792,171.128 443.988,171.216 444.212,171.216 C444.852,171.216 445.172,170.84 445.172,170.088 C445.172,169.736 445.008,169.4 444.68,169.08 C444.352,168.76 443.884,168.6 443.276,168.6 C442.796,168.6 442.316,168.768 441.836,169.104 C441.356,169.44 440.996,169.848 440.756,170.328 C440.628,169.48 440.492,168.904 440.348,168.6 L440.348,168.6 L437.156,169.2 L437.156,169.704 C437.956,169.704 438.472,169.872 438.704,170.208 C438.936,170.544 439.052,171.304 439.052,172.488 L439.052,172.488 L439.052,173.688 C439.052,174.888 438.936,175.656 438.704,175.992 C438.472,176.328 437.956,176.496 437.156,176.496 L437.156,176.496 L437.156,177 L442.652,177 Z M451.868,177 L451.868,176.496 C451.132,176.496 450.668,176.336 450.476,176.016 C450.284,175.696 450.188,174.92 450.188,173.688 L450.188,173.688 L450.188,172.128 C450.188,171.488 450.476,170.928 451.052,170.448 C451.628,169.968 452.26,169.728 452.948,169.728 C454.276,169.728 454.94,170.584 454.94,172.296 L454.94,172.296 L454.94,173.688 C454.94,174.872 454.82,175.636 454.58,175.98 C454.34,176.324 453.828,176.496 453.044,176.496 L453.044,176.496 L453.044,177 L458.54,177 L458.54,176.496 C457.74,176.496 457.224,176.328 456.992,175.992 C456.76,175.656 456.644,174.888 456.644,173.688 L456.644,173.688 L456.644,172.176 C456.644,171.104 456.384,170.24 455.864,169.584 C455.344,168.928 454.564,168.6 453.524,168.6 C452.212,168.6 451.1,169.176 450.188,170.328 C450.06,169.48 449.924,168.904 449.78,168.6 L449.78,168.6 L446.588,169.2 L446.588,169.704 C447.388,169.704 447.904,169.872 448.136,170.208 C448.368,170.544 448.484,171.304 448.484,172.488 L448.484,172.488 L448.484,173.688 C448.484,174.888 448.368,175.656 448.136,175.992 C447.904,176.328 447.388,176.496 446.588,176.496 L446.588,176.496 L446.588,177 L451.868,177 Z M462.068,177.312 C462.996,177.312 463.996,176.832 465.068,175.872 C465.196,176.8 465.74,177.264 466.7,177.264 C467.292,177.264 467.82,177.016 468.284,176.52 L468.284,176.52 L467.948,176.064 C467.708,176.304 467.484,176.424 467.276,176.424 C466.908,176.424 466.724,176.112 466.724,175.488 L466.724,175.488 L466.724,171.864 C466.724,170.712 466.468,169.88 465.956,169.368 C465.444,168.856 464.604,168.6 463.436,168.6 C462.636,168.6 461.928,168.78 461.312,169.14 C460.696,169.5 460.388,169.96 460.388,170.52 C460.388,170.76 460.468,170.96 460.628,171.12 C460.788,171.28 460.988,171.36 461.228,171.36 C461.452,171.36 461.644,171.28 461.804,171.12 C461.964,170.96 462.044,170.76 462.044,170.52 C462.044,170.168 462.192,169.888 462.488,169.68 C462.784,169.472 463.092,169.368 463.412,169.368 C464.068,169.368 464.5,169.552 464.708,169.92 C464.916,170.288 465.02,170.944 465.02,171.888 C461.612,172.48 459.908,173.616 459.908,175.296 C459.908,175.92 460.116,176.412 460.532,176.772 C460.948,177.132 461.46,177.312 462.068,177.312 Z M462.836,176.232 C462.516,176.232 462.248,176.12 462.032,175.896 C461.816,175.672 461.708,175.376 461.708,175.008 C461.708,173.936 462.812,173.144 465.02,172.632 L465.02,172.632 L465.02,175.08 C464.156,175.848 463.428,176.232 462.836,176.232 Z M472.82,177.336 C473.22,177.336 473.656,177.208 474.128,176.952 C474.6,176.696 475.004,176.368 475.34,175.968 L475.34,175.968 L474.932,175.56 C474.356,176.104 473.836,176.376 473.372,176.376 C472.652,176.376 472.292,175.8 472.292,174.648 L472.292,174.648 L472.292,169.848 L474.38,169.848 L474.38,169.008 L472.292,169.008 L472.292,166.368 L471.476,166.368 C471.38,167.2 471.172,167.856 470.852,168.336 C470.532,168.816 470.028,169.128 469.34,169.272 L469.34,169.272 L469.34,169.848 L470.588,169.848 L470.588,174.648 C470.588,175.544 470.788,176.216 471.188,176.664 C471.588,177.112 472.132,177.336 472.82,177.336 Z M479.396,166.248 C479.684,166.248 479.932,166.144 480.14,165.936 C480.348,165.728 480.452,165.472 480.452,165.168 C480.452,164.88 480.348,164.632 480.14,164.424 C479.932,164.216 479.684,164.112 479.396,164.112 C479.108,164.112 478.86,164.216 478.652,164.424 C478.444,164.632 478.34,164.88 478.34,165.168 C478.34,165.472 478.444,165.728 478.652,165.936 C478.86,166.144 479.108,166.248 479.396,166.248 Z M482.156,177 L482.156,176.496 C481.356,176.496 480.84,176.328 480.608,175.992 C480.376,175.656 480.26,174.888 480.26,173.688 L480.26,173.688 L480.26,168.6 L476.66,169.2 L476.66,169.704 C477.46,169.704 477.976,169.872 478.208,170.208 C478.44,170.544 478.556,171.304 478.556,172.488 L478.556,172.488 L478.556,173.688 C478.556,174.888 478.44,175.656 478.208,175.992 C477.976,176.328 477.46,176.496 476.66,176.496 L476.66,176.496 L476.66,177 L482.156,177 Z M488.804,177 L488.804,176.496 C488.068,176.496 487.604,176.336 487.412,176.016 C487.22,175.696 487.124,174.92 487.124,173.688 L487.124,173.688 L487.124,172.128 C487.124,171.488 487.412,170.928 487.988,170.448 C488.564,169.968 489.196,169.728 489.884,169.728 C491.212,169.728 491.876,170.584 491.876,172.296 L491.876,172.296 L491.876,173.688 C491.876,174.872 491.756,175.636 491.516,175.98 C491.276,176.324 490.764,176.496 489.98,176.496 L489.98,176.496 L489.98,177 L495.476,177 L495.476,176.496 C494.676,176.496 494.16,176.328 493.928,175.992 C493.696,175.656 493.58,174.888 493.58,173.688 L493.58,173.688 L493.58,172.176 C493.58,171.104 493.32,170.24 492.8,169.584 C492.28,168.928 491.5,168.6 490.46,168.6 C489.148,168.6 488.036,169.176 487.124,170.328 C486.996,169.48 486.86,168.904 486.716,168.6 L486.716,168.6 L483.524,169.2 L483.524,169.704 C484.324,169.704 484.84,169.872 485.072,170.208 C485.304,170.544 485.42,171.304 485.42,172.488 L485.42,172.488 L485.42,173.688 C485.42,174.888 485.304,175.656 485.072,175.992 C484.84,176.328 484.324,176.496 483.524,176.496 L483.524,176.496 L483.524,177 L488.804,177 Z M500.588,183.408 C501.804,183.408 502.816,183.116 503.624,182.532 C504.432,181.948 504.836,181.168 504.836,180.192 C504.836,179.376 504.492,178.68 503.804,178.104 C503.116,177.528 502.004,177.176 500.468,177.048 C499.012,176.92 498.284,176.616 498.284,176.136 C498.284,175.672 499.18,175.336 500.972,175.128 C501.804,175.016 502.532,174.656 503.156,174.048 C503.78,173.44 504.092,172.712 504.092,171.864 C504.092,171.128 503.86,170.48 503.396,169.92 C503.652,169.664 503.9,169.536 504.14,169.536 C504.364,169.536 504.528,169.596 504.632,169.716 C504.736,169.836 504.8,169.964 504.824,170.1 C504.848,170.236 504.92,170.36 505.04,170.472 C505.16,170.584 505.34,170.632 505.58,170.616 C505.708,170.616 505.82,170.576 505.916,170.496 C506.204,170.272 506.276,169.936 506.132,169.488 C505.94,168.896 505.492,168.6 504.788,168.6 C504.516,168.6 504.2,168.688 503.84,168.864 C503.48,169.04 503.196,169.256 502.988,169.512 C502.3,168.904 501.476,168.6 500.516,168.6 C499.524,168.6 498.68,168.92 497.984,169.56 C497.288,170.2 496.94,170.968 496.94,171.864 C496.94,172.504 497.12,173.08 497.48,173.592 C497.84,174.104 498.332,174.504 498.956,174.792 C497.612,175.208 496.94,175.848 496.94,176.712 C496.94,177.976 498.076,178.72 500.348,178.944 C501.452,179.056 502.264,179.232 502.784,179.472 C503.304,179.712 503.564,180.096 503.564,180.624 C503.564,181.168 503.264,181.612 502.664,181.956 C502.064,182.3 501.372,182.472 500.588,182.472 C500.092,182.472 499.616,182.4 499.16,182.256 C498.704,182.112 498.32,181.912 498.008,181.656 C497.696,181.4 497.556,181.052 497.588,180.612 C497.62,180.172 497.868,179.688 498.332,179.16 L498.332,179.16 L497.9,178.896 C496.94,179.392 496.428,180 496.364,180.72 C496.3,181.44 496.664,182.068 497.456,182.604 C498.248,183.14 499.292,183.408 500.588,183.408 Z M500.516,174.336 C499.956,174.336 499.524,174.108 499.22,173.652 C498.916,173.196 498.764,172.6 498.764,171.864 C498.764,171.128 498.916,170.528 499.22,170.064 C499.524,169.6 499.956,169.368 500.516,169.368 C501.076,169.368 501.504,169.6 501.8,170.064 C502.096,170.528 502.244,171.128 502.244,171.864 C502.244,172.6 502.092,173.2 501.788,173.664 C501.5,174.112 501.076,174.336 500.516,174.336 Z M520.748,177.408 C522.412,177.408 523.9,176.728 525.212,175.368 C525.628,175.656 525.9,176.112 526.028,176.736 L526.028,176.736 L526.508,176.736 L526.508,171.456 L526.028,171.456 C525.692,173.008 525.072,174.228 524.168,175.116 C523.264,176.004 522.156,176.448 520.844,176.448 C519.932,176.448 519.124,176.244 518.42,175.836 C517.716,175.428 517.168,174.892 516.776,174.228 C516.384,173.564 516.092,172.856 515.9,172.104 C515.708,171.352 515.612,170.584 515.612,169.8 C515.612,169.016 515.708,168.248 515.9,167.496 C516.092,166.744 516.384,166.032 516.776,165.36 C517.168,164.688 517.716,164.148 518.42,163.74 C519.124,163.332 519.932,163.128 520.844,163.128 C522.156,163.128 523.264,163.568 524.168,164.448 C525.072,165.328 525.692,166.56 526.028,168.144 L526.028,168.144 L526.508,168.144 L526.508,162.864 L526.028,162.864 C525.916,163.44 525.644,163.896 525.212,164.232 C523.932,162.872 522.444,162.192 520.748,162.192 C518.716,162.192 516.98,162.936 515.54,164.424 C514.1,165.912 513.38,167.704 513.38,169.8 C513.38,171.896 514.1,173.688 515.54,175.176 C516.98,176.664 518.716,177.408 520.748,177.408 Z M537.14,177.408 L540.356,176.808 L540.356,176.304 C539.54,176.304 539.016,176.136 538.784,175.8 C538.552,175.464 538.436,174.696 538.436,173.496 L538.436,173.496 L538.436,169.008 L534.836,169.008 L534.836,169.488 C535.652,169.488 536.176,169.656 536.408,169.992 C536.64,170.328 536.756,171.096 536.756,172.296 L536.756,172.296 L536.756,173.88 C536.756,174.552 536.46,175.116 535.868,175.572 C535.276,176.028 534.708,176.256 534.164,176.256 C532.948,176.256 532.34,175.4 532.34,173.688 L532.34,173.688 L532.34,169.008 L528.74,169.008 L528.74,169.488 C529.54,169.488 530.056,169.656 530.288,169.992 C530.52,170.328 530.636,171.096 530.636,172.296 L530.636,172.296 L530.636,173.808 C530.636,176.208 531.628,177.408 533.612,177.408 C534.716,177.408 535.764,176.896 536.756,175.872 C536.884,176.64 537.012,177.152 537.14,177.408 L537.14,177.408 Z M547.22,177 L547.22,176.496 C546.42,176.496 545.904,176.328 545.672,175.992 C545.44,175.656 545.324,174.888 545.324,173.688 L545.324,173.688 L545.324,172.368 C545.324,171.52 545.54,170.84 545.972,170.328 C546.404,169.816 546.804,169.56 547.172,169.56 C547.684,169.56 547.94,169.824 547.94,170.352 C547.94,170.576 548.024,170.776 548.192,170.952 C548.36,171.128 548.556,171.216 548.78,171.216 C549.42,171.216 549.74,170.84 549.74,170.088 C549.74,169.736 549.576,169.4 549.248,169.08 C548.92,168.76 548.452,168.6 547.844,168.6 C547.364,168.6 546.884,168.768 546.404,169.104 C545.924,169.44 545.564,169.848 545.324,170.328 C545.196,169.48 545.06,168.904 544.916,168.6 L544.916,168.6 L541.724,169.2 L541.724,169.704 C542.524,169.704 543.04,169.872 543.272,170.208 C543.504,170.544 543.62,171.304 543.62,172.488 L543.62,172.488 L543.62,173.688 C543.62,174.888 543.504,175.656 543.272,175.992 C543.04,176.328 542.524,176.496 541.724,176.496 L541.724,176.496 L541.724,177 L547.22,177 Z M556.652,177 L556.652,176.496 C555.852,176.496 555.336,176.328 555.104,175.992 C554.872,175.656 554.756,174.888 554.756,173.688 L554.756,173.688 L554.756,172.368 C554.756,171.52 554.972,170.84 555.404,170.328 C555.836,169.816 556.236,169.56 556.604,169.56 C557.116,169.56 557.372,169.824 557.372,170.352 C557.372,170.576 557.456,170.776 557.624,170.952 C557.792,171.128 557.988,171.216 558.212,171.216 C558.852,171.216 559.172,170.84 559.172,170.088 C559.172,169.736 559.008,169.4 558.68,169.08 C558.352,168.76 557.884,168.6 557.276,168.6 C556.796,168.6 556.316,168.768 555.836,169.104 C555.356,169.44 554.996,169.848 554.756,170.328 C554.628,169.48 554.492,168.904 554.348,168.6 L554.348,168.6 L551.156,169.2 L551.156,169.704 C551.956,169.704 552.472,169.872 552.704,170.208 C552.936,170.544 553.052,171.304 553.052,172.488 L553.052,172.488 L553.052,173.688 C553.052,174.888 552.936,175.656 552.704,175.992 C552.472,176.328 551.956,176.496 551.156,176.496 L551.156,176.496 L551.156,177 L556.652,177 Z M565.268,177.408 C565.94,177.408 566.612,177.26 567.284,176.964 C567.956,176.668 568.508,176.288 568.94,175.824 L568.94,175.824 L568.508,175.296 C568.172,175.616 567.748,175.88 567.236,176.088 C566.724,176.296 566.268,176.4 565.868,176.4 C564.684,176.4 563.832,176.028 563.312,175.284 C562.792,174.54 562.604,173.576 562.748,172.392 L562.748,172.392 L568.532,172.392 C568.82,171.384 568.62,170.5 567.932,169.74 C567.244,168.98 566.356,168.6 565.268,168.6 C564.116,168.6 563.088,169.024 562.184,169.872 C561.28,170.72 560.828,171.76 560.828,172.992 C560.828,174.224 561.244,175.268 562.076,176.124 C562.908,176.98 563.972,177.408 565.268,177.408 Z M566.876,171.504 L562.892,171.504 C563.068,170.912 563.36,170.44 563.768,170.088 C564.176,169.736 564.636,169.56 565.148,169.56 C565.868,169.56 566.376,169.772 566.672,170.196 C566.968,170.62 567.036,171.056 566.876,171.504 L566.876,171.504 Z M575.996,177 L575.996,176.496 C575.26,176.496 574.796,176.336 574.604,176.016 C574.412,175.696 574.316,174.92 574.316,173.688 L574.316,173.688 L574.316,172.128 C574.316,171.488 574.604,170.928 575.18,170.448 C575.756,169.968 576.388,169.728 577.076,169.728 C578.404,169.728 579.068,170.584 579.068,172.296 L579.068,172.296 L579.068,173.688 C579.068,174.872 578.948,175.636 578.708,175.98 C578.468,176.324 577.956,176.496 577.172,176.496 L577.172,176.496 L577.172,177 L582.668,177 L582.668,176.496 C581.868,176.496 581.352,176.328 581.12,175.992 C580.888,175.656 580.772,174.888 580.772,173.688 L580.772,173.688 L580.772,172.176 C580.772,171.104 580.512,170.24 579.992,169.584 C579.472,168.928 578.692,168.6 577.652,168.6 C576.34,168.6 575.228,169.176 574.316,170.328 C574.188,169.48 574.052,168.904 573.908,168.6 L573.908,168.6 L570.716,169.2 L570.716,169.704 C571.516,169.704 572.032,169.872 572.264,170.208 C572.496,170.544 572.612,171.304 572.612,172.488 L572.612,172.488 L572.612,173.688 C572.612,174.888 572.496,175.656 572.264,175.992 C572.032,176.328 571.516,176.496 570.716,176.496 L570.716,176.496 L570.716,177 L575.996,177 Z M587.276,177.336 C587.676,177.336 588.112,177.208 588.584,176.952 C589.056,176.696 589.46,176.368 589.796,175.968 L589.796,175.968 L589.388,175.56 C588.812,176.104 588.292,176.376 587.828,176.376 C587.108,176.376 586.748,175.8 586.748,174.648 L586.748,174.648 L586.748,169.848 L588.836,169.848 L588.836,169.008 L586.748,169.008 L586.748,166.368 L585.932,166.368 C585.836,167.2 585.628,167.856 585.308,168.336 C584.988,168.816 584.484,169.128 583.796,169.272 L583.796,169.272 L583.796,169.848 L585.044,169.848 L585.044,174.648 C585.044,175.544 585.244,176.216 585.644,176.664 C586.044,177.112 586.588,177.336 587.276,177.336 Z" id="AlternatingCurrent" fill="#524740" fill-rule="nonzero"></path>
            <path d="M404.332,74 C406.988,74 408.988,73.328 410.332,71.984 C411.676,70.64 412.348,68.912 412.348,66.8 C412.348,64.688 411.676,62.96 410.332,61.616 C408.988,60.272 406.988,59.6 404.332,59.6 L404.332,59.6 L397.828,59.6 L397.828,60.104 C398.82,60.104 399.448,60.268 399.712,60.596 C399.976,60.924 400.108,61.688 400.108,62.888 L400.108,62.888 L400.108,70.688 C400.108,71.888 399.976,72.656 399.712,72.992 C399.448,73.328 398.82,73.496 397.828,73.496 L397.828,73.496 L397.828,74 L404.332,74 Z M404.356,73.112 L404.26,73.112 C403.284,73.112 402.668,72.952 402.412,72.632 C402.156,72.312 402.028,71.544 402.028,70.328 L402.028,70.328 L402.028,60.488 L404.356,60.488 C405.46,60.488 406.408,60.68 407.2,61.064 C407.992,61.448 408.584,61.964 408.976,62.612 C409.368,63.26 409.644,63.924 409.804,64.604 C409.964,65.284 410.044,66.016 410.044,66.8 C410.044,67.584 409.964,68.316 409.804,68.996 C409.644,69.676 409.368,70.34 408.976,70.988 C408.584,71.636 407.992,72.152 407.2,72.536 C406.408,72.92 405.46,73.112 404.356,73.112 L404.356,73.112 Z M417.676,63.248 C417.964,63.248 418.212,63.144 418.42,62.936 C418.628,62.728 418.732,62.472 418.732,62.168 C418.732,61.88 418.628,61.632 418.42,61.424 C418.212,61.216 417.964,61.112 417.676,61.112 C417.388,61.112 417.14,61.216 416.932,61.424 C416.724,61.632 416.62,61.88 416.62,62.168 C416.62,62.472 416.724,62.728 416.932,62.936 C417.14,63.144 417.388,63.248 417.676,63.248 Z M420.436,74 L420.436,73.496 C419.636,73.496 419.12,73.328 418.888,72.992 C418.656,72.656 418.54,71.888 418.54,70.688 L418.54,70.688 L418.54,65.6 L414.94,66.2 L414.94,66.704 C415.74,66.704 416.256,66.872 416.488,67.208 C416.72,67.544 416.836,68.304 416.836,69.488 L416.836,69.488 L416.836,70.688 C416.836,71.888 416.72,72.656 416.488,72.992 C416.256,73.328 415.74,73.496 414.94,73.496 L414.94,73.496 L414.94,74 L420.436,74 Z M427.3,74 L427.3,73.496 C426.5,73.496 425.984,73.328 425.752,72.992 C425.52,72.656 425.404,71.888 425.404,70.688 L425.404,70.688 L425.404,69.368 C425.404,68.52 425.62,67.84 426.052,67.328 C426.484,66.816 426.884,66.56 427.252,66.56 C427.764,66.56 428.02,66.824 428.02,67.352 C428.02,67.576 428.104,67.776 428.272,67.952 C428.44,68.128 428.636,68.216 428.86,68.216 C429.5,68.216 429.82,67.84 429.82,67.088 C429.82,66.736 429.656,66.4 429.328,66.08 C429,65.76 428.532,65.6 427.924,65.6 C427.444,65.6 426.964,65.768 426.484,66.104 C426.004,66.44 425.644,66.848 425.404,67.328 C425.276,66.48 425.14,65.904 424.996,65.6 L424.996,65.6 L421.804,66.2 L421.804,66.704 C422.604,66.704 423.12,66.872 423.352,67.208 C423.584,67.544 423.7,68.304 423.7,69.488 L423.7,69.488 L423.7,70.688 C423.7,71.888 423.584,72.656 423.352,72.992 C423.12,73.328 422.604,73.496 421.804,73.496 L421.804,73.496 L421.804,74 L427.3,74 Z M435.916,74.408 C436.588,74.408 437.26,74.26 437.932,73.964 C438.604,73.668 439.156,73.288 439.588,72.824 L439.588,72.824 L439.156,72.296 C438.82,72.616 438.396,72.88 437.884,73.088 C437.372,73.296 436.916,73.4 436.516,73.4 C435.332,73.4 434.48,73.028 433.96,72.284 C433.44,71.54 433.252,70.576 433.396,69.392 L433.396,69.392 L439.18,69.392 C439.468,68.384 439.268,67.5 438.58,66.74 C437.892,65.98 437.004,65.6 435.916,65.6 C434.764,65.6 433.736,66.024 432.832,66.872 C431.928,67.72 431.476,68.76 431.476,69.992 C431.476,71.224 431.892,72.268 432.724,73.124 C433.556,73.98 434.62,74.408 435.916,74.408 Z M437.524,68.504 L433.54,68.504 C433.716,67.912 434.008,67.44 434.416,67.088 C434.824,66.736 435.284,66.56 435.796,66.56 C436.516,66.56 437.024,66.772 437.32,67.196 C437.616,67.62 437.684,68.056 437.524,68.504 L437.524,68.504 Z M445.852,74.408 C447.26,74.408 448.452,73.88 449.428,72.824 L449.428,72.824 L449.02,72.296 C448.236,73.032 447.38,73.4 446.452,73.4 C445.492,73.4 444.768,73.116 444.28,72.548 C443.792,71.98 443.548,71.2 443.548,70.208 C443.548,69.12 443.772,68.208 444.22,67.472 C444.668,66.736 445.212,66.368 445.852,66.368 C446.428,66.368 446.716,66.712 446.716,67.4 C446.716,67.672 446.808,67.9 446.992,68.084 C447.176,68.268 447.396,68.36 447.652,68.36 C448.02,68.36 448.288,68.252 448.456,68.036 C448.624,67.82 448.708,67.584 448.708,67.328 C448.708,66.848 448.468,66.44 447.988,66.104 C447.508,65.768 446.796,65.6 445.852,65.6 C444.812,65.6 443.844,66.036 442.948,66.908 C442.052,67.78 441.604,68.88 441.604,70.208 C441.604,71.44 441.984,72.448 442.744,73.232 C443.504,74.016 444.54,74.408 445.852,74.408 Z M454.036,74.336 C454.436,74.336 454.872,74.208 455.344,73.952 C455.816,73.696 456.22,73.368 456.556,72.968 L456.556,72.968 L456.148,72.56 C455.572,73.104 455.052,73.376 454.588,73.376 C453.868,73.376 453.508,72.8 453.508,71.648 L453.508,71.648 L453.508,66.848 L455.596,66.848 L455.596,66.008 L453.508,66.008 L453.508,63.368 L452.692,63.368 C452.596,64.2 452.388,64.856 452.068,65.336 C451.748,65.816 451.244,66.128 450.556,66.272 L450.556,66.272 L450.556,66.848 L451.804,66.848 L451.804,71.648 C451.804,72.544 452.004,73.216 452.404,73.664 C452.804,74.112 453.348,74.336 454.036,74.336 Z M471.628,74.408 C473.292,74.408 474.78,73.728 476.092,72.368 C476.508,72.656 476.78,73.112 476.908,73.736 L476.908,73.736 L477.388,73.736 L477.388,68.456 L476.908,68.456 C476.572,70.008 475.952,71.228 475.048,72.116 C474.144,73.004 473.036,73.448 471.724,73.448 C470.812,73.448 470.004,73.244 469.3,72.836 C468.596,72.428 468.048,71.892 467.656,71.228 C467.264,70.564 466.972,69.856 466.78,69.104 C466.588,68.352 466.492,67.584 466.492,66.8 C466.492,66.016 466.588,65.248 466.78,64.496 C466.972,63.744 467.264,63.032 467.656,62.36 C468.048,61.688 468.596,61.148 469.3,60.74 C470.004,60.332 470.812,60.128 471.724,60.128 C473.036,60.128 474.144,60.568 475.048,61.448 C475.952,62.328 476.572,63.56 476.908,65.144 L476.908,65.144 L477.388,65.144 L477.388,59.864 L476.908,59.864 C476.796,60.44 476.524,60.896 476.092,61.232 C474.812,59.872 473.324,59.192 471.628,59.192 C469.596,59.192 467.86,59.936 466.42,61.424 C464.98,62.912 464.26,64.704 464.26,66.8 C464.26,68.896 464.98,70.688 466.42,72.176 C467.86,73.664 469.596,74.408 471.628,74.408 Z M488.02,74.408 L491.236,73.808 L491.236,73.304 C490.42,73.304 489.896,73.136 489.664,72.8 C489.432,72.464 489.316,71.696 489.316,70.496 L489.316,70.496 L489.316,66.008 L485.716,66.008 L485.716,66.488 C486.532,66.488 487.056,66.656 487.288,66.992 C487.52,67.328 487.636,68.096 487.636,69.296 L487.636,69.296 L487.636,70.88 C487.636,71.552 487.34,72.116 486.748,72.572 C486.156,73.028 485.588,73.256 485.044,73.256 C483.828,73.256 483.22,72.4 483.22,70.688 L483.22,70.688 L483.22,66.008 L479.62,66.008 L479.62,66.488 C480.42,66.488 480.936,66.656 481.168,66.992 C481.4,67.328 481.516,68.096 481.516,69.296 L481.516,69.296 L481.516,70.808 C481.516,73.208 482.508,74.408 484.492,74.408 C485.596,74.408 486.644,73.896 487.636,72.872 C487.764,73.64 487.892,74.152 488.02,74.408 L488.02,74.408 Z M498.1,74 L498.1,73.496 C497.3,73.496 496.784,73.328 496.552,72.992 C496.32,72.656 496.204,71.888 496.204,70.688 L496.204,70.688 L496.204,69.368 C496.204,68.52 496.42,67.84 496.852,67.328 C497.284,66.816 497.684,66.56 498.052,66.56 C498.564,66.56 498.82,66.824 498.82,67.352 C498.82,67.576 498.904,67.776 499.072,67.952 C499.24,68.128 499.436,68.216 499.66,68.216 C500.3,68.216 500.62,67.84 500.62,67.088 C500.62,66.736 500.456,66.4 500.128,66.08 C499.8,65.76 499.332,65.6 498.724,65.6 C498.244,65.6 497.764,65.768 497.284,66.104 C496.804,66.44 496.444,66.848 496.204,67.328 C496.076,66.48 495.94,65.904 495.796,65.6 L495.796,65.6 L492.604,66.2 L492.604,66.704 C493.404,66.704 493.92,66.872 494.152,67.208 C494.384,67.544 494.5,68.304 494.5,69.488 L494.5,69.488 L494.5,70.688 C494.5,71.888 494.384,72.656 494.152,72.992 C493.92,73.328 493.404,73.496 492.604,73.496 L492.604,73.496 L492.604,74 L498.1,74 Z M507.532,74 L507.532,73.496 C506.732,73.496 506.216,73.328 505.984,72.992 C505.752,72.656 505.636,71.888 505.636,70.688 L505.636,70.688 L505.636,69.368 C505.636,68.52 505.852,67.84 506.284,67.328 C506.716,66.816 507.116,66.56 507.484,66.56 C507.996,66.56 508.252,66.824 508.252,67.352 C508.252,67.576 508.336,67.776 508.504,67.952 C508.672,68.128 508.868,68.216 509.092,68.216 C509.732,68.216 510.052,67.84 510.052,67.088 C510.052,66.736 509.888,66.4 509.56,66.08 C509.232,65.76 508.764,65.6 508.156,65.6 C507.676,65.6 507.196,65.768 506.716,66.104 C506.236,66.44 505.876,66.848 505.636,67.328 C505.508,66.48 505.372,65.904 505.228,65.6 L505.228,65.6 L502.036,66.2 L502.036,66.704 C502.836,66.704 503.352,66.872 503.584,67.208 C503.816,67.544 503.932,68.304 503.932,69.488 L503.932,69.488 L503.932,70.688 C503.932,71.888 503.816,72.656 503.584,72.992 C503.352,73.328 502.836,73.496 502.036,73.496 L502.036,73.496 L502.036,74 L507.532,74 Z M516.148,74.408 C516.82,74.408 517.492,74.26 518.164,73.964 C518.836,73.668 519.388,73.288 519.82,72.824 L519.82,72.824 L519.388,72.296 C519.052,72.616 518.628,72.88 518.116,73.088 C517.604,73.296 517.148,73.4 516.748,73.4 C515.564,73.4 514.712,73.028 514.192,72.284 C513.672,71.54 513.484,70.576 513.628,69.392 L513.628,69.392 L519.412,69.392 C519.7,68.384 519.5,67.5 518.812,66.74 C518.124,65.98 517.236,65.6 516.148,65.6 C514.996,65.6 513.968,66.024 513.064,66.872 C512.16,67.72 511.708,68.76 511.708,69.992 C511.708,71.224 512.124,72.268 512.956,73.124 C513.788,73.98 514.852,74.408 516.148,74.408 Z M517.756,68.504 L513.772,68.504 C513.948,67.912 514.24,67.44 514.648,67.088 C515.056,66.736 515.516,66.56 516.028,66.56 C516.748,66.56 517.256,66.772 517.552,67.196 C517.848,67.62 517.916,68.056 517.756,68.504 L517.756,68.504 Z M526.876,74 L526.876,73.496 C526.14,73.496 525.676,73.336 525.484,73.016 C525.292,72.696 525.196,71.92 525.196,70.688 L525.196,70.688 L525.196,69.128 C525.196,68.488 525.484,67.928 526.06,67.448 C526.636,66.968 527.268,66.728 527.956,66.728 C529.284,66.728 529.948,67.584 529.948,69.296 L529.948,69.296 L529.948,70.688 C529.948,71.872 529.828,72.636 529.588,72.98 C529.348,73.324 528.836,73.496 528.052,73.496 L528.052,73.496 L528.052,74 L533.548,74 L533.548,73.496 C532.748,73.496 532.232,73.328 532,72.992 C531.768,72.656 531.652,71.888 531.652,70.688 L531.652,70.688 L531.652,69.176 C531.652,68.104 531.392,67.24 530.872,66.584 C530.352,65.928 529.572,65.6 528.532,65.6 C527.22,65.6 526.108,66.176 525.196,67.328 C525.068,66.48 524.932,65.904 524.788,65.6 L524.788,65.6 L521.596,66.2 L521.596,66.704 C522.396,66.704 522.912,66.872 523.144,67.208 C523.376,67.544 523.492,68.304 523.492,69.488 L523.492,69.488 L523.492,70.688 C523.492,71.888 523.376,72.656 523.144,72.992 C522.912,73.328 522.396,73.496 521.596,73.496 L521.596,73.496 L521.596,74 L526.876,74 Z M538.156,74.336 C538.556,74.336 538.992,74.208 539.464,73.952 C539.936,73.696 540.34,73.368 540.676,72.968 L540.676,72.968 L540.268,72.56 C539.692,73.104 539.172,73.376 538.708,73.376 C537.988,73.376 537.628,72.8 537.628,71.648 L537.628,71.648 L537.628,66.848 L539.716,66.848 L539.716,66.008 L537.628,66.008 L537.628,63.368 L536.812,63.368 C536.716,64.2 536.508,64.856 536.188,65.336 C535.868,65.816 535.364,66.128 534.676,66.272 L534.676,66.272 L534.676,66.848 L535.924,66.848 L535.924,71.648 C535.924,72.544 536.124,73.216 536.524,73.664 C536.924,74.112 537.468,74.336 538.156,74.336 Z" id="DirectCurrent" fill="#524740" fill-rule="nonzero"></path>
            <text id="-" font-family="Lato-Regular, Lato" font-size="18" font-weight="normal" letter-spacing="0.6950497" fill="#555555">
                <tspan x="52.6179503" y="217">-</tspan>
            </text>
            <path d="M90.7460938,110.019531 C114.248698,44.6731771 137.666667,12 161,12 C184.333333,12 207.084635,44.6731771 229.253906,110.019531 C253.751302,178.00651 277.666667,212 301,212 C324.333333,212 347.666667,178.00651 371,110.019531" id="Path-2" stroke="#23ABE3" stroke-width="2"></path>
            <line x1="89.7041871" y1="46" x2="371.15213" y2="46" id="Path-3" stroke="#23ABE3" stroke-width="2"></line>
        </g>
    </g>
</svg>