<?xml version="1.0" encoding="utf-8"?>
<svg width="900px" height="340px" viewBox="0 0 900 340" version="1.1" xmlns:xlink="http://www.w3.org/1999/xlink" xmlns="http://www.w3.org/2000/svg">
  <defs>
    <filter id="filter_1">
      <feColorMatrix in="SourceGraphic" type="matrix" values="0 0 0 0 0.33333334 0 0 0 0 0.33333334 0 0 0 0 0.33333334 0 0 0 1 0" color-interpolation-filters="sRGB" />
    </filter>
    <path d="M900 0L900 0L900 340L0 340L0 0L900 0Z" id="path_1" />
    <clipPath id="clip_1">
      <use xlink:href="#path_1" clip-rule="evenodd" fill-rule="evenodd" />
    </clipPath>
  </defs>
  <g id="Alternating_Current" clip-path="url(#clip_1)">
    <path d="M900 0L900 0L900 340L0 340L0 0L900 0Z" id="Alternating_Current" fill="none" stroke="none" />
    <g id="Alternating_Current" transform="translate(1 1)">
      <g id="Illustration_Frame">
        <path d="M0 0L898 0L898 338L0 338L0 0Z" id="Rectangle" fill="#EEEEEE" fill-rule="evenodd" stroke="#3D3530" stroke-width="2" />
        <path d="M0 295L898 295L898 338L0 338L0 295Z" id="Rectangle-Copy" fill="#F8FAE4" fill-rule="evenodd" stroke="#3D3530" stroke-width="2" />
        <path d="M592.952 324L595.016 318.96L602.552 318.96L604.616 324L606.248 324L599.528 307.872L598.016 307.872L591.296 324L592.952 324L592.952 324ZM601.904 317.376L595.664 317.376L598.784 309.72L601.904 317.376L601.904 317.376ZM610.491 324L610.491 306.144L608.907 306.144L608.907 324L610.491 324L610.491 324ZM618.909 324.192C619.501 324.192 620.077 324.036 620.637 323.724C621.197 323.412 621.557 323.168 621.717 322.992C621.877 322.816 622.005 322.664 622.101 322.536L622.101 322.536L621.309 321.312C621.309 321.376 621.225 321.516 621.057 321.732C620.889 321.948 620.629 322.168 620.277 322.392C619.925 322.616 619.565 322.728 619.197 322.728C618.605 322.728 618.081 322.512 617.625 322.08C617.169 321.648 616.941 321.064 616.941 320.328L616.941 320.328L616.941 313.44L620.565 313.44L620.565 311.976L616.941 311.976L616.941 307.992L615.357 308.184L615.357 311.976L613.437 311.976L613.437 313.44L615.357 313.44L615.357 320.688C615.357 321.824 615.697 322.692 616.377 323.292C617.057 323.892 617.901 324.192 618.909 324.192L618.909 324.192ZM629.752 324.072C631.224 324.088 632.492 323.672 633.556 322.824C634.62 321.976 635.336 321.048 635.704 320.04L635.704 320.04L634.36 319.56C634.056 320.376 633.48 321.088 632.632 321.696C631.784 322.304 630.824 322.608 629.752 322.608C628.76 322.624 627.856 322.324 627.04 321.708C626.224 321.092 625.68 320.304 625.408 319.344L625.408 319.344L635.896 317.448C635.896 317.32 635.888 317.216 635.872 317.136C635.696 315.6 635.024 314.312 633.856 313.272C632.688 312.232 631.32 311.704 629.752 311.688C628.024 311.704 626.56 312.312 625.36 313.512C624.16 314.712 623.56 316.176 623.56 317.904C623.56 318.528 623.64 319.104 623.8 319.632C624.2 320.928 624.956 321.992 626.068 322.824C627.18 323.656 628.408 324.072 629.752 324.072L629.752 324.072ZM625.168 318.048C625.168 317.968 625.164 317.868 625.156 317.748C625.148 317.628 625.144 317.544 625.144 317.496C625.208 316.312 625.668 315.296 626.524 314.448C627.38 313.6 628.408 313.168 629.608 313.152C630.632 313.136 631.56 313.436 632.392 314.052C633.224 314.668 633.792 315.464 634.096 316.44L634.096 316.44L625.168 318.048L625.168 318.048ZM640.403 324L640.403 316.968C640.403 315.928 640.747 315.052 641.435 314.34C642.123 313.628 642.971 313.272 643.979 313.272C644.667 313.272 645.347 313.52 646.019 314.016L646.019 314.016L646.571 312.432C645.867 312.016 645.091 311.808 644.243 311.808C642.659 311.808 641.379 312.464 640.403 313.776L640.403 313.776L640.403 312L638.819 312L638.819 324L640.403 324L640.403 324ZM650.957 324L650.957 316.968C650.957 315.944 651.305 315.072 652.001 314.352C652.697 313.632 653.541 313.272 654.533 313.272C655.525 313.272 656.369 313.632 657.065 314.352C657.761 315.072 658.109 315.944 658.109 316.968L658.109 316.968L658.109 324L659.717 324L659.717 316.92C659.717 315.48 659.245 314.268 658.301 313.284C657.357 312.3 656.189 311.808 654.797 311.808C653.213 311.808 651.933 312.464 650.957 313.776L650.957 313.776L650.957 312L649.373 312L649.373 324L650.957 324L650.957 324ZM668.832 324.192C670.72 324.192 672.28 323.48 673.512 322.056L673.512 322.056L673.512 324L675.096 324L675.096 312L673.512 312L673.512 313.944C672.296 312.52 670.736 311.808 668.832 311.808C667.12 311.808 665.66 312.412 664.452 313.62C663.244 314.828 662.64 316.288 662.64 318C662.64 319.712 663.244 321.172 664.452 322.38C665.66 323.588 667.12 324.192 668.832 324.192L668.832 324.192ZM668.856 322.68C667.576 322.68 666.484 322.228 665.58 321.324C664.676 320.42 664.224 319.312 664.224 318C664.224 316.688 664.676 315.58 665.58 314.676C666.484 313.772 667.576 313.32 668.856 313.32C670.152 313.32 671.244 313.772 672.132 314.676C673.02 315.58 673.464 316.688 673.464 318C673.464 319.312 673.02 320.42 672.132 321.324C671.244 322.228 670.152 322.68 668.856 322.68L668.856 322.68ZM683.179 324.192C683.771 324.192 684.347 324.036 684.907 323.724C685.467 323.412 685.827 323.168 685.987 322.992C686.147 322.816 686.275 322.664 686.371 322.536L686.371 322.536L685.579 321.312C685.579 321.376 685.495 321.516 685.327 321.732C685.159 321.948 684.899 322.168 684.547 322.392C684.195 322.616 683.835 322.728 683.467 322.728C682.875 322.728 682.351 322.512 681.895 322.08C681.439 321.648 681.211 321.064 681.211 320.328L681.211 320.328L681.211 313.44L684.835 313.44L684.835 311.976L681.211 311.976L681.211 307.992L679.627 308.184L679.627 311.976L677.707 311.976L677.707 313.44L679.627 313.44L679.627 320.688C679.627 321.824 679.967 322.692 680.647 323.292C681.327 323.892 682.171 324.192 683.179 324.192L683.179 324.192ZM690.133 308.688C690.405 308.688 690.629 308.592 690.805 308.4C690.997 308.208 691.093 307.984 691.093 307.728C691.093 307.472 691.001 307.248 690.817 307.056C690.633 306.864 690.405 306.768 690.133 306.768C689.861 306.768 689.633 306.864 689.449 307.056C689.265 307.248 689.173 307.472 689.173 307.728C689.173 307.984 689.265 308.208 689.449 308.4C689.633 308.592 689.861 308.688 690.133 308.688L690.133 308.688ZM690.925 324L690.925 312L689.341 312L689.341 324L690.925 324L690.925 324ZM696.848 324L696.848 316.968C696.848 315.944 697.196 315.072 697.892 314.352C698.588 313.632 699.432 313.272 700.424 313.272C701.416 313.272 702.26 313.632 702.956 314.352C703.652 315.072 704 315.944 704 316.968L704 316.968L704 324L705.608 324L705.608 316.92C705.608 315.48 705.136 314.268 704.192 313.284C703.248 312.3 702.08 311.808 700.688 311.808C699.104 311.808 697.824 312.464 696.848 313.776L696.848 313.776L696.848 312L695.264 312L695.264 324L696.848 324L696.848 324ZM714.963 329.112C716.595 329.112 718.031 328.524 719.271 327.348C720.511 326.172 721.139 324.712 721.155 322.968L721.155 322.968L721.155 312.024L719.547 312.024L719.547 313.968C718.315 312.544 716.755 311.832 714.867 311.832C713.155 311.832 711.695 312.436 710.487 313.644C709.279 314.852 708.675 316.312 708.675 318.024C708.675 319.736 709.279 321.196 710.487 322.404C711.695 323.612 713.155 324.216 714.867 324.216C716.771 324.216 718.331 323.504 719.547 322.08L719.547 322.08L719.547 322.968L719.571 322.968C719.555 324.216 719.103 325.308 718.215 326.244C717.327 327.18 716.243 327.648 714.963 327.648C713.875 327.648 712.907 327.344 712.059 326.736C711.211 326.128 710.635 325.416 710.331 324.6L710.331 324.6L709.035 325.248C709.403 326.24 710.111 327.132 711.159 327.924C712.207 328.716 713.475 329.112 714.963 329.112L714.963 329.112ZM714.891 322.728C713.611 322.728 712.523 322.276 711.627 321.372C710.731 320.468 710.283 319.36 710.283 318.048C710.283 316.736 710.731 315.628 711.627 314.724C712.523 313.82 713.611 313.368 714.891 313.368C716.187 313.368 717.279 313.82 718.167 314.724C719.055 315.628 719.499 316.736 719.499 318.048C719.499 319.36 719.055 320.468 718.167 321.372C717.279 322.276 716.187 322.728 714.891 322.728L714.891 322.728ZM739.648 324.192C741.216 324.192 742.58 323.836 743.74 323.124C744.9 322.412 745.8 321.432 746.44 320.184L746.44 320.184L744.952 319.296C744.456 320.336 743.748 321.164 742.828 321.78C741.908 322.396 740.848 322.704 739.648 322.704C737.824 322.704 736.364 322.064 735.268 320.784C734.172 319.504 733.624 317.896 733.624 315.96C733.624 314.008 734.172 312.396 735.268 311.124C736.364 309.852 737.824 309.216 739.648 309.216C740.832 309.216 741.884 309.52 742.804 310.128C743.724 310.736 744.44 311.56 744.952 312.6L744.952 312.6L746.44 311.736C745.8 310.488 744.9 309.504 743.74 308.784C742.58 308.064 741.216 307.704 739.648 307.704C737.28 307.704 735.392 308.492 733.984 310.068C732.576 311.644 731.872 313.608 731.872 315.96C731.872 318.296 732.576 320.252 733.984 321.828C735.392 323.404 737.28 324.192 739.648 324.192L739.648 324.192ZM754.715 324.192C756.299 324.192 757.579 323.536 758.555 322.224L758.555 322.224L758.555 324L760.139 324L760.139 312L758.555 312L758.555 319.032C758.555 320.056 758.211 320.924 757.523 321.636C756.835 322.348 755.987 322.704 754.979 322.704C753.987 322.704 753.147 322.348 752.459 321.636C751.771 320.924 751.427 320.056 751.427 319.032L751.427 319.032L751.427 312L749.795 312L749.795 319.08C749.795 320.52 750.267 321.732 751.211 322.716C752.155 323.7 753.323 324.192 754.715 324.192L754.715 324.192ZM765.677 324L765.677 316.968C765.677 315.928 766.021 315.052 766.709 314.34C767.397 313.628 768.245 313.272 769.253 313.272C769.941 313.272 770.621 313.52 771.293 314.016L771.293 314.016L771.845 312.432C771.141 312.016 770.365 311.808 769.517 311.808C767.933 311.808 766.653 312.464 765.677 313.776L765.677 313.776L765.677 312L764.093 312L764.093 324L765.677 324L765.677 324ZM776.232 324L776.232 316.968C776.232 315.928 776.576 315.052 777.264 314.34C777.952 313.628 778.8 313.272 779.808 313.272C780.496 313.272 781.176 313.52 781.848 314.016L781.848 314.016L782.4 312.432C781.696 312.016 780.92 311.808 780.072 311.808C778.488 311.808 777.208 312.464 776.232 313.776L776.232 313.776L776.232 312L774.648 312L774.648 324L776.232 324L776.232 324ZM789.715 324.072C791.187 324.088 792.455 323.672 793.519 322.824C794.583 321.976 795.299 321.048 795.667 320.04L795.667 320.04L794.323 319.56C794.019 320.376 793.443 321.088 792.595 321.696C791.747 322.304 790.787 322.608 789.715 322.608C788.723 322.624 787.819 322.324 787.003 321.708C786.187 321.092 785.643 320.304 785.371 319.344L785.371 319.344L795.859 317.448C795.859 317.32 795.851 317.216 795.835 317.136C795.659 315.6 794.987 314.312 793.819 313.272C792.651 312.232 791.283 311.704 789.715 311.688C787.987 311.704 786.523 312.312 785.323 313.512C784.123 314.712 783.523 316.176 783.523 317.904C783.523 318.528 783.603 319.104 783.763 319.632C784.163 320.928 784.919 321.992 786.031 322.824C787.143 323.656 788.371 324.072 789.715 324.072L789.715 324.072ZM785.131 318.048C785.131 317.968 785.127 317.868 785.119 317.748C785.111 317.628 785.107 317.544 785.107 317.496C785.171 316.312 785.631 315.296 786.487 314.448C787.343 313.6 788.371 313.168 789.571 313.152C790.595 313.136 791.523 313.436 792.355 314.052C793.187 314.668 793.755 315.464 794.059 316.44L794.059 316.44L785.131 318.048L785.131 318.048ZM800.365 324L800.365 316.968C800.365 315.944 800.713 315.072 801.409 314.352C802.105 313.632 802.949 313.272 803.941 313.272C804.933 313.272 805.777 313.632 806.473 314.352C807.169 315.072 807.517 315.944 807.517 316.968L807.517 316.968L807.517 324L809.125 324L809.125 316.92C809.125 315.48 808.653 314.268 807.709 313.284C806.765 312.3 805.597 311.808 804.205 311.808C802.621 311.808 801.341 312.464 800.365 313.776L800.365 313.776L800.365 312L798.781 312L798.781 324L800.365 324L800.365 324ZM817.016 324.192C817.608 324.192 818.184 324.036 818.744 323.724C819.304 323.412 819.664 323.168 819.824 322.992C819.984 322.816 820.112 322.664 820.208 322.536L820.208 322.536L819.416 321.312C819.416 321.376 819.332 321.516 819.164 321.732C818.996 321.948 818.736 322.168 818.384 322.392C818.032 322.616 817.672 322.728 817.304 322.728C816.712 322.728 816.188 322.512 815.732 322.08C815.276 321.648 815.048 321.064 815.048 320.328L815.048 320.328L815.048 313.44L818.672 313.44L818.672 311.976L815.048 311.976L815.048 307.992L813.464 308.184L813.464 311.976L811.544 311.976L811.544 313.44L813.464 313.44L813.464 320.688C813.464 321.824 813.804 322.692 814.484 323.292C815.164 323.892 816.008 324.192 817.016 324.192L817.016 324.192ZM835.773 327.168L836.637 326.232L836.109 325.872C835.757 325.616 835.325 325.204 834.813 324.636C834.301 324.068 833.789 323.404 833.277 322.644C832.765 321.884 832.333 320.908 831.981 319.716C831.629 318.524 831.453 317.272 831.453 315.96C831.453 314.648 831.637 313.388 832.005 312.18C832.373 310.972 832.785 310 833.241 309.264C833.697 308.528 834.221 307.844 834.813 307.212C835.405 306.58 835.817 306.176 836.049 306C836.281 305.824 836.469 305.688 836.613 305.592L836.613 305.592L835.773 304.728L835.173 305.112C834.789 305.368 834.317 305.796 833.757 306.396C833.197 306.996 832.637 307.708 832.077 308.532C831.517 309.356 831.041 310.428 830.649 311.748C830.257 313.068 830.061 314.472 830.061 315.96C830.061 317.048 830.169 318.096 830.385 319.104C830.601 320.112 830.869 320.976 831.189 321.696C831.509 322.416 831.885 323.096 832.317 323.736C832.749 324.376 833.145 324.888 833.505 325.272C833.865 325.656 834.245 326.012 834.645 326.34C835.045 326.668 835.313 326.876 835.449 326.964C835.585 327.052 835.693 327.12 835.773 327.168L835.773 327.168L835.773 327.168ZM839.752 324L841.816 318.96L849.352 318.96L851.416 324L853.048 324L846.328 307.872L844.816 307.872L838.096 324L839.752 324L839.752 324ZM848.704 317.376L842.464 317.376L845.584 309.72L848.704 317.376L848.704 317.376ZM861.779 324.192C863.347 324.192 864.711 323.836 865.871 323.124C867.031 322.412 867.931 321.432 868.571 320.184L868.571 320.184L867.083 319.296C866.587 320.336 865.879 321.164 864.959 321.78C864.039 322.396 862.979 322.704 861.779 322.704C859.955 322.704 858.495 322.064 857.399 320.784C856.303 319.504 855.755 317.896 855.755 315.96C855.755 314.008 856.303 312.396 857.399 311.124C858.495 309.852 859.955 309.216 861.779 309.216C862.963 309.216 864.015 309.52 864.935 310.128C865.855 310.736 866.571 311.56 867.083 312.6L867.083 312.6L868.571 311.736C867.931 310.488 867.031 309.504 865.871 308.784C864.711 308.064 863.347 307.704 861.779 307.704C859.411 307.704 857.523 308.492 856.115 310.068C854.707 311.644 854.003 313.608 854.003 315.96C854.003 318.296 854.707 320.252 856.115 321.828C857.523 323.404 859.411 324.192 861.779 324.192L861.779 324.192ZM871.493 327.168L871.805 326.976C872.013 326.848 872.285 326.636 872.621 326.34C872.957 326.044 873.329 325.692 873.737 325.284C874.145 324.876 874.553 324.356 874.961 323.724C875.369 323.092 875.741 322.412 876.077 321.684C876.413 320.956 876.685 320.092 876.893 319.092C877.101 318.092 877.205 317.048 877.205 315.96C877.205 314.872 877.097 313.824 876.881 312.816C876.665 311.808 876.397 310.948 876.077 310.236C875.757 309.524 875.381 308.84 874.949 308.184C874.517 307.528 874.121 307.008 873.761 306.624C873.401 306.24 873.021 305.884 872.621 305.556C872.221 305.228 871.953 305.02 871.817 304.932C871.681 304.844 871.573 304.776 871.493 304.728L871.493 304.728L870.653 305.592L871.181 305.976C871.533 306.232 871.965 306.652 872.477 307.236C872.989 307.82 873.497 308.496 874.001 309.264C874.505 310.032 874.933 311.012 875.285 312.204C875.637 313.396 875.813 314.648 875.813 315.96C875.813 317.272 875.625 318.528 875.249 319.728C874.873 320.928 874.457 321.892 874.001 322.62C873.545 323.348 873.021 324.024 872.429 324.648C871.837 325.272 871.425 325.672 871.193 325.848C870.961 326.024 870.773 326.152 870.629 326.232L870.629 326.232L871.493 327.168L871.493 327.168Z" id="AlternatingCurrent(AC)" fill="#23ABE3" fill-rule="evenodd" stroke="none" />
      </g>
      <g id="Group" transform="translate(219.452 19.176)">
        <path d="M114.548 30.824L114.548 230.824" id="Line-7-Copy-2" fill="none" fill-rule="evenodd" stroke="#524740" stroke-width="2" stroke-linecap="square" />
        <path d="M411.548 129.824L98.548 129.824" id="Line-7-Copy-6" fill="none" fill-rule="evenodd" stroke="#524740" stroke-width="2" stroke-linecap="square" />
        <g id="Period" transform="translate(114.548004 0)">
          <path d="M279 16.824L279 10.824L223 10.824L223 8.824L279 8.824L279 2.824L281 2.824L281 16.824L279 16.824L279 16.824Z" id="Line-7-Copy-7" fill="#B09679" stroke="none" />
          <path d="M1.999 8.824L55 8.824L55 10.824L2 10.824L2 16.824L0 16.824L0.000999987 10.824L0 10.824L0 2.824L2 2.824L1.999 8.824L1.999 8.824Z" id="Line-7-Copy-8" fill="#B09679" stroke="none" />
          <path d="M71.608 16.824L71.608 16.32C70.616 16.32 69.988 16.152 69.724 15.816C69.46 15.48 69.328 14.712 69.328 13.512L69.328 13.512L69.328 10.512L71.464 10.512C73.08 10.512 74.344 10.132 75.256 9.372C76.168 8.612 76.624 7.648 76.624 6.48C76.624 5.312 76.168 4.344 75.256 3.576C74.344 2.808 73.08 2.424 71.464 2.424L71.464 2.424L65.128 2.424L65.128 2.928C66.12 2.928 66.748 3.092 67.012 3.42C67.276 3.748 67.408 4.512 67.408 5.712L67.408 5.712L67.408 13.512C67.408 14.712 67.276 15.48 67.012 15.816C66.748 16.152 66.12 16.32 65.128 16.32L65.128 16.32L65.128 16.824L71.608 16.824L71.608 16.824ZM71.44 9.648L69.328 9.648L69.328 3.312L71.44 3.312C72.432 3.312 73.188 3.608 73.708 4.2C74.228 4.792 74.488 5.552 74.488 6.48C74.488 7.408 74.228 8.168 73.708 8.76C73.188 9.352 72.432 9.648 71.44 9.648L71.44 9.648L71.44 9.648ZM83.008 17.232C83.68 17.232 84.352 17.084 85.024 16.788C85.696 16.492 86.248 16.112 86.68 15.648L86.68 15.648L86.248 15.12C85.912 15.44 85.488 15.704 84.976 15.912C84.464 16.12 84.008 16.224 83.608 16.224C82.424 16.224 81.572 15.852 81.052 15.108C80.532 14.364 80.344 13.4 80.488 12.216L80.488 12.216L86.272 12.216C86.56 11.208 86.36 10.324 85.672 9.564C84.984 8.804 84.096 8.424 83.008 8.424C81.856 8.424 80.828 8.848 79.924 9.696C79.02 10.544 78.568 11.584 78.568 12.816C78.568 14.048 78.984 15.092 79.816 15.948C80.648 16.804 81.712 17.232 83.008 17.232L83.008 17.232ZM84.616 11.328L80.632 11.328C80.808 10.736 81.1 10.264 81.508 9.912C81.916 9.56 82.376 9.384 82.888 9.384C83.608 9.384 84.116 9.596 84.412 10.02C84.708 10.444 84.776 10.88 84.616 11.328L84.616 11.328L84.616 11.328ZM93.952 16.824L93.952 16.32C93.152 16.32 92.636 16.152 92.404 15.816C92.172 15.48 92.056 14.712 92.056 13.512L92.056 13.512L92.056 12.192C92.056 11.344 92.272 10.664 92.704 10.152C93.136 9.64 93.536 9.384 93.904 9.384C94.416 9.384 94.672 9.648 94.672 10.176C94.672 10.4 94.756 10.6 94.924 10.776C95.092 10.952 95.288 11.04 95.512 11.04C96.152 11.04 96.472 10.664 96.472 9.912C96.472 9.56 96.308 9.224 95.98 8.904C95.652 8.584 95.184 8.424 94.576 8.424C94.096 8.424 93.616 8.592 93.136 8.928C92.656 9.264 92.296 9.672 92.056 10.152C91.928 9.304 91.792 8.728 91.648 8.424L91.648 8.424L88.456 9.024L88.456 9.528C89.256 9.528 89.772 9.696 90.004 10.032C90.236 10.368 90.352 11.128 90.352 12.312L90.352 12.312L90.352 13.512C90.352 14.712 90.236 15.48 90.004 15.816C89.772 16.152 89.256 16.32 88.456 16.32L88.456 16.32L88.456 16.824L93.952 16.824L93.952 16.824ZM100.624 6.072C100.912 6.072 101.16 5.968 101.368 5.76C101.576 5.552 101.68 5.296 101.68 4.992C101.68 4.704 101.576 4.456 101.368 4.248C101.16 4.04 100.912 3.936 100.624 3.936C100.336 3.936 100.088 4.04 99.88 4.248C99.672 4.456 99.568 4.704 99.568 4.992C99.568 5.296 99.672 5.552 99.88 5.76C100.088 5.968 100.336 6.072 100.624 6.072L100.624 6.072ZM103.384 16.824L103.384 16.32C102.584 16.32 102.068 16.152 101.836 15.816C101.604 15.48 101.488 14.712 101.488 13.512L101.488 13.512L101.488 8.424L97.888 9.024L97.888 9.528C98.688 9.528 99.204 9.696 99.436 10.032C99.668 10.368 99.784 11.128 99.784 12.312L99.784 12.312L99.784 13.512C99.784 14.712 99.668 15.48 99.436 15.816C99.204 16.152 98.688 16.32 97.888 16.32L97.888 16.32L97.888 16.824L103.384 16.824L103.384 16.824ZM109.84 17.232C111.168 17.232 112.308 16.8 113.26 15.936C114.212 15.072 114.688 14.032 114.688 12.816C114.688 11.6 114.208 10.568 113.248 9.72C112.304 8.856 111.168 8.424 109.84 8.424C108.512 8.424 107.372 8.852 106.42 9.708C105.468 10.564 104.992 11.6 104.992 12.816C104.992 14.032 105.468 15.072 106.42 15.936C107.372 16.8 108.512 17.232 109.84 17.232L109.84 17.232ZM109.84 16.296C108.896 16.296 108.176 15.968 107.68 15.312C107.184 14.656 106.936 13.824 106.936 12.816C106.936 11.808 107.184 10.976 107.68 10.32C108.176 9.664 108.896 9.336 109.84 9.336C110.784 9.336 111.504 9.66 112 10.308C112.496 10.956 112.744 11.792 112.744 12.816C112.744 13.84 112.496 14.68 112 15.336C111.504 15.976 110.784 16.296 109.84 16.296L109.84 16.296ZM124.504 17.232L127.696 16.632L127.696 16.128C126.896 16.128 126.38 15.96 126.148 15.624C125.916 15.288 125.8 14.52 125.8 13.32L125.8 13.32L125.8 2.016L122.2 2.616L122.2 3.12C123 3.12 123.516 3.288 123.748 3.624C123.98 3.96 124.096 4.728 124.096 5.928L124.096 5.928L124.096 9.84C123.328 8.896 122.352 8.424 121.168 8.424C120.032 8.424 119.052 8.852 118.228 9.708C117.404 10.564 116.992 11.6 116.992 12.816C116.992 14.032 117.404 15.072 118.228 15.936C119.052 16.8 120.032 17.232 121.168 17.232C122.352 17.232 123.336 16.744 124.12 15.768C124.264 16.504 124.392 16.992 124.504 17.232L124.504 17.232L124.504 17.232ZM121.672 16.272C120.776 16.272 120.096 15.952 119.632 15.312C119.168 14.672 118.936 13.84 118.936 12.816C118.936 11.808 119.168 10.984 119.632 10.344C120.096 9.704 120.776 9.384 121.672 9.384C122.2 9.384 122.68 9.556 123.112 9.9C123.544 10.244 123.872 10.704 124.096 11.28L124.096 11.28L124.096 14.376C123.872 14.952 123.544 15.412 123.112 15.756C122.68 16.1 122.2 16.272 121.672 16.272L121.672 16.272ZM141.136 19.488L141.664 18.984C141.152 18.408 140.728 17.908 140.392 17.484C140.056 17.06 139.62 16.428 139.084 15.588C138.548 14.748 138.136 13.832 137.848 12.84C137.56 11.848 137.416 10.816 137.416 9.744C137.416 8.672 137.56 7.64 137.848 6.648C138.136 5.656 138.548 4.74 139.084 3.9C139.62 3.06 140.056 2.428 140.392 2.004C140.728 1.58 141.152 1.08 141.664 0.504L141.664 0.504L141.112 0C137.528 2.96 135.736 6.208 135.736 9.744C135.736 13.296 137.536 16.544 141.136 19.488L141.136 19.488L141.136 19.488ZM149.848 16.824L149.848 16.32C148.84 16.32 148.204 16.156 147.94 15.828C147.676 15.5 147.544 14.728 147.544 13.512L147.544 13.512L147.544 9.72C147.544 8.504 147.676 7.732 147.94 7.404C148.204 7.076 148.84 6.912 149.848 6.912L149.848 6.912L149.848 6.432L143.536 6.432L143.536 6.912C144.528 6.912 145.16 7.08 145.432 7.416C145.704 7.752 145.84 8.52 145.84 9.72L145.84 9.72L145.84 13.512C145.84 14.712 145.704 15.48 145.432 15.816C145.16 16.152 144.528 16.32 143.536 16.32L143.536 16.32L143.536 16.824L149.848 16.824L149.848 16.824ZM165.712 17.232C167.376 17.232 168.864 16.552 170.176 15.192C170.592 15.48 170.864 15.936 170.992 16.56L170.992 16.56L171.472 16.56L171.472 11.28L170.992 11.28C170.656 12.832 170.036 14.052 169.132 14.94C168.228 15.828 167.12 16.272 165.808 16.272C164.896 16.272 164.088 16.068 163.384 15.66C162.68 15.252 162.132 14.716 161.74 14.052C161.348 13.388 161.056 12.68 160.864 11.928C160.672 11.176 160.576 10.408 160.576 9.624C160.576 8.84 160.672 8.072 160.864 7.32C161.056 6.568 161.348 5.856 161.74 5.184C162.132 4.512 162.68 3.972 163.384 3.564C164.088 3.156 164.896 2.952 165.808 2.952C167.12 2.952 168.228 3.392 169.132 4.272C170.036 5.152 170.656 6.384 170.992 7.968L170.992 7.968L171.472 7.968L171.472 2.688L170.992 2.688C170.88 3.264 170.608 3.72 170.176 4.056C168.896 2.696 167.408 2.016 165.712 2.016C163.68 2.016 161.944 2.76 160.504 4.248C159.064 5.736 158.344 7.528 158.344 9.624C158.344 11.72 159.064 13.512 160.504 15C161.944 16.488 163.68 17.232 165.712 17.232L165.712 17.232ZM175.216 23.304C175.568 23.304 175.864 23.008 176.104 22.416L176.104 22.416L180.784 10.728C181.168 9.784 181.736 9.312 182.488 9.312L182.488 9.312L182.488 8.832L179.128 8.832L179.128 9.312C179.624 9.312 179.92 9.412 180.016 9.612C180.112 9.812 180.048 10.184 179.824 10.728L179.824 10.728L178.288 14.568L176.536 10.728C176.28 10.136 176.208 9.752 176.32 9.576C176.432 9.4 176.76 9.312 177.304 9.312L177.304 9.312L177.304 8.832L173.056 8.832L173.056 9.312C173.424 9.312 173.72 9.412 173.944 9.612C174.168 9.812 174.408 10.184 174.664 10.728L174.664 10.728L177.424 16.704L176.224 19.704C176.016 20.232 175.756 20.668 175.444 21.012C175.132 21.356 174.88 21.628 174.688 21.828C174.496 22.028 174.4 22.256 174.4 22.512C174.4 22.784 174.484 22.984 174.652 23.112C174.82 23.24 175.008 23.304 175.216 23.304L175.216 23.304ZM187.6 17.232C189.008 17.232 190.2 16.704 191.176 15.648L191.176 15.648L190.768 15.12C189.984 15.856 189.128 16.224 188.2 16.224C187.24 16.224 186.516 15.94 186.028 15.372C185.54 14.804 185.296 14.024 185.296 13.032C185.296 11.944 185.52 11.032 185.968 10.296C186.416 9.56 186.96 9.192 187.6 9.192C188.176 9.192 188.464 9.536 188.464 10.224C188.464 10.496 188.556 10.724 188.74 10.908C188.924 11.092 189.144 11.184 189.4 11.184C189.768 11.184 190.036 11.076 190.204 10.86C190.372 10.644 190.456 10.408 190.456 10.152C190.456 9.672 190.216 9.264 189.736 8.928C189.256 8.592 188.544 8.424 187.6 8.424C186.56 8.424 185.592 8.86 184.696 9.732C183.8 10.604 183.352 11.704 183.352 13.032C183.352 14.264 183.732 15.272 184.492 16.056C185.252 16.84 186.288 17.232 187.6 17.232L187.6 17.232ZM197.584 16.824L197.584 16.32C196.784 16.32 196.268 16.152 196.036 15.816C195.804 15.48 195.688 14.712 195.688 13.512L195.688 13.512L195.688 2.016L192.088 2.616L192.088 3.12C192.888 3.12 193.404 3.288 193.636 3.624C193.868 3.96 193.984 4.728 193.984 5.928L193.984 5.928L193.984 13.512C193.984 14.712 193.868 15.48 193.636 15.816C193.404 16.152 192.888 16.32 192.088 16.32L192.088 16.32L192.088 16.824L197.584 16.824L197.584 16.824ZM203.656 17.232C204.328 17.232 205 17.084 205.672 16.788C206.344 16.492 206.896 16.112 207.328 15.648L207.328 15.648L206.896 15.12C206.56 15.44 206.136 15.704 205.624 15.912C205.112 16.12 204.656 16.224 204.256 16.224C203.072 16.224 202.22 15.852 201.7 15.108C201.18 14.364 200.992 13.4 201.136 12.216L201.136 12.216L206.92 12.216C207.208 11.208 207.008 10.324 206.32 9.564C205.632 8.804 204.744 8.424 203.656 8.424C202.504 8.424 201.476 8.848 200.572 9.696C199.668 10.544 199.216 11.584 199.216 12.816C199.216 14.048 199.632 15.092 200.464 15.948C201.296 16.804 202.36 17.232 203.656 17.232L203.656 17.232ZM205.264 11.328L201.28 11.328C201.456 10.736 201.748 10.264 202.156 9.912C202.564 9.56 203.024 9.384 203.536 9.384C204.256 9.384 204.764 9.596 205.06 10.02C205.356 10.444 205.424 10.88 205.264 11.328L205.264 11.328L205.264 11.328ZM209.416 19.488C213 16.56 214.792 13.312 214.792 9.744C214.792 6.192 213.008 2.944 209.44 0L209.44 0L208.864 0.504C209.392 1.096 209.82 1.6 210.148 2.016C210.476 2.432 210.912 3.06 211.456 3.9C212 4.74 212.416 5.656 212.704 6.648C212.992 7.64 213.136 8.672 213.136 9.744C213.136 10.816 212.992 11.848 212.704 12.84C212.416 13.832 212 14.748 211.456 15.588C210.912 16.428 210.476 17.056 210.148 17.472C209.82 17.888 209.392 18.392 208.864 18.984L208.864 18.984L209.416 19.488L209.416 19.488Z" id="Period(1Cycle)" fill="#524740" fill-rule="evenodd" stroke="none" />
        </g>
        <g id="Amplitude" transform="translate(283.568 30.324)">
          <path d="M56.48 0L56.48 2L50.48 2L50.48 32L48.48 32L48.48 1.999L42.48 2L42.48 0L50.48 0L50.48 0.000999987L56.48 0L56.48 0Z" id="Line-7-Copy-11" fill="#B09679" stroke="none" />
          <path d="M42.48 100L42.48 98L48.48 98L48.48 68L50.48 68L50.48 98L56.48 98L56.48 100L42.48 100L42.48 100Z" id="Line-7-Copy-12" fill="#B09679" stroke="none" />
          <path d="M5.616 56.5L5.616 55.996C4.624 55.996 3.988 55.856 3.708 55.576C3.428 55.296 3.44 54.828 3.744 54.172L3.744 54.172L4.896 51.508L10.704 51.508L11.856 54.172C12.144 54.828 12.152 55.296 11.88 55.576C11.608 55.856 10.976 55.996 9.984 55.996L9.984 55.996L9.984 56.5L16.632 56.5L16.632 55.996C16.12 55.996 15.728 55.976 15.456 55.936C15.184 55.896 14.94 55.768 14.724 55.552C14.508 55.336 14.356 55.14 14.268 54.964C14.18 54.788 14.016 54.436 13.776 53.908L13.776 53.908L8.472 41.692L8.16 41.692L2.88 53.908C2.64 54.436 2.476 54.788 2.388 54.964C2.3 55.14 2.148 55.336 1.932 55.552C1.716 55.768 1.468 55.896 1.188 55.936C0.908 55.976 0.512 55.996 0 55.996L0 55.996L0 56.5L5.616 56.5L5.616 56.5ZM10.296 50.62L5.28 50.62L7.776 44.836L10.296 50.62L10.296 50.62ZM21.72 56.5L21.72 55.996C21.064 55.996 20.652 55.84 20.484 55.528C20.316 55.216 20.232 54.436 20.232 53.188L20.232 53.188L20.232 51.628C20.232 50.956 20.52 50.388 21.096 49.924C21.672 49.46 22.208 49.228 22.704 49.228C23.856 49.228 24.432 50.084 24.432 51.796L24.432 51.796L24.432 53.188C24.432 54.452 24.348 55.236 24.18 55.54C24.012 55.844 23.592 55.996 22.92 55.996L22.92 55.996L22.92 56.5L27.624 56.5L27.624 55.996C26.952 55.996 26.532 55.844 26.364 55.54C26.196 55.236 26.112 54.452 26.112 53.188L26.112 53.188L26.112 51.628C26.112 50.956 26.404 50.388 26.988 49.924C27.572 49.46 28.112 49.228 28.608 49.228C29.744 49.228 30.312 50.084 30.312 51.796L30.312 51.796L30.312 53.188C30.312 54.452 30.232 55.236 30.072 55.54C29.912 55.844 29.496 55.996 28.824 55.996L28.824 55.996L28.824 56.5L33.912 56.5L33.912 55.996C33.112 55.996 32.596 55.828 32.364 55.492C32.132 55.156 32.016 54.388 32.016 53.188L32.016 53.188L32.016 51.676C32.016 49.292 31.096 48.1 29.256 48.1C28.6 48.1 27.956 48.288 27.324 48.664C26.692 49.04 26.216 49.452 25.896 49.9C25.528 48.7 24.68 48.1 23.352 48.1C22.184 48.1 21.144 48.676 20.232 49.828C20.104 48.98 19.968 48.404 19.824 48.1L19.824 48.1L16.632 48.7L16.632 49.204C17.432 49.204 17.948 49.372 18.18 49.708C18.412 50.044 18.528 50.804 18.528 51.988L18.528 51.988L18.528 53.188C18.528 54.388 18.412 55.156 18.18 55.492C17.948 55.828 17.432 55.996 16.632 55.996L16.632 55.996L16.632 56.5L21.72 56.5L21.72 56.5ZM40.344 62.5L40.344 61.996C39.544 61.996 39.028 61.828 38.796 61.492C38.564 61.156 38.448 60.396 38.448 59.212L38.448 59.212L38.448 55.468C39.232 56.428 40.216 56.908 41.4 56.908C42.536 56.908 43.512 56.476 44.328 55.612C45.144 54.748 45.552 53.708 45.552 52.492C45.552 51.276 45.144 50.24 44.328 49.384C43.512 48.528 42.536 48.1 41.4 48.1C40.232 48.1 39.24 48.588 38.424 49.564C38.28 48.764 38.16 48.276 38.064 48.1L38.064 48.1L34.848 48.7L34.848 49.204C35.648 49.204 36.164 49.368 36.396 49.696C36.628 50.024 36.744 50.788 36.744 51.988L36.744 51.988L36.744 59.212C36.744 60.412 36.628 61.176 36.396 61.504C36.164 61.832 35.648 61.996 34.848 61.996L34.848 61.996L34.848 62.5L40.344 62.5L40.344 62.5ZM40.896 55.948C40.352 55.948 39.868 55.776 39.444 55.432C39.02 55.088 38.688 54.62 38.448 54.028L38.448 54.028L38.448 50.932C38.688 50.356 39.02 49.9 39.444 49.564C39.868 49.228 40.352 49.06 40.896 49.06C41.776 49.06 42.448 49.38 42.912 50.02C43.376 50.66 43.608 51.484 43.608 52.492C43.608 53.5 43.376 54.332 42.912 54.988C42.448 55.628 41.776 55.948 40.896 55.948L40.896 55.948ZM52.656 56.5L52.656 55.996C51.856 55.996 51.34 55.828 51.108 55.492C50.876 55.156 50.76 54.388 50.76 53.188L50.76 53.188L50.76 41.692L47.16 42.292L47.16 42.796C47.96 42.796 48.476 42.964 48.708 43.3C48.94 43.636 49.056 44.404 49.056 45.604L49.056 45.604L49.056 53.188C49.056 54.388 48.94 55.156 48.708 55.492C48.476 55.828 47.96 55.996 47.16 55.996L47.16 55.996L47.16 56.5L52.656 56.5L52.656 56.5ZM56.784 45.748C57.072 45.748 57.32 45.644 57.528 45.436C57.736 45.228 57.84 44.972 57.84 44.668C57.84 44.38 57.736 44.132 57.528 43.924C57.32 43.716 57.072 43.612 56.784 43.612C56.496 43.612 56.248 43.716 56.04 43.924C55.832 44.132 55.728 44.38 55.728 44.668C55.728 44.972 55.832 45.228 56.04 45.436C56.248 45.644 56.496 45.748 56.784 45.748L56.784 45.748ZM59.544 56.5L59.544 55.996C58.744 55.996 58.228 55.828 57.996 55.492C57.764 55.156 57.648 54.388 57.648 53.188L57.648 53.188L57.648 48.1L54.048 48.7L54.048 49.204C54.848 49.204 55.364 49.372 55.596 49.708C55.828 50.044 55.944 50.804 55.944 51.988L55.944 51.988L55.944 53.188C55.944 54.388 55.828 55.156 55.596 55.492C55.364 55.828 54.848 55.996 54.048 55.996L54.048 55.996L54.048 56.5L59.544 56.5L59.544 56.5ZM64.152 56.836C64.552 56.836 64.988 56.708 65.46 56.452C65.932 56.196 66.336 55.868 66.672 55.468L66.672 55.468L66.264 55.06C65.688 55.604 65.168 55.876 64.704 55.876C63.984 55.876 63.624 55.3 63.624 54.148L63.624 54.148L63.624 49.348L65.712 49.348L65.712 48.508L63.624 48.508L63.624 45.868L62.808 45.868C62.712 46.7 62.504 47.356 62.184 47.836C61.864 48.316 61.36 48.628 60.672 48.772L60.672 48.772L60.672 49.348L61.92 49.348L61.92 54.148C61.92 55.044 62.12 55.716 62.52 56.164C62.92 56.612 63.464 56.836 64.152 56.836L64.152 56.836ZM75.936 56.908L79.152 56.308L79.152 55.804C78.336 55.804 77.812 55.636 77.58 55.3C77.348 54.964 77.232 54.196 77.232 52.996L77.232 52.996L77.232 48.508L73.632 48.508L73.632 48.988C74.448 48.988 74.972 49.156 75.204 49.492C75.436 49.828 75.552 50.596 75.552 51.796L75.552 51.796L75.552 53.38C75.552 54.052 75.256 54.616 74.664 55.072C74.072 55.528 73.504 55.756 72.96 55.756C71.744 55.756 71.136 54.9 71.136 53.188L71.136 53.188L71.136 48.508L67.536 48.508L67.536 48.988C68.336 48.988 68.852 49.156 69.084 49.492C69.316 49.828 69.432 50.596 69.432 51.796L69.432 51.796L69.432 53.308C69.432 55.708 70.424 56.908 72.408 56.908C73.512 56.908 74.56 56.396 75.552 55.372C75.68 56.14 75.808 56.652 75.936 56.908L75.936 56.908L75.936 56.908ZM88.272 56.908L91.464 56.308L91.464 55.804C90.664 55.804 90.148 55.636 89.916 55.3C89.684 54.964 89.568 54.196 89.568 52.996L89.568 52.996L89.568 41.692L85.968 42.292L85.968 42.796C86.768 42.796 87.284 42.964 87.516 43.3C87.748 43.636 87.864 44.404 87.864 45.604L87.864 45.604L87.864 49.516C87.096 48.572 86.12 48.1 84.936 48.1C83.8 48.1 82.82 48.528 81.996 49.384C81.172 50.24 80.76 51.276 80.76 52.492C80.76 53.708 81.172 54.748 81.996 55.612C82.82 56.476 83.8 56.908 84.936 56.908C86.12 56.908 87.104 56.42 87.888 55.444C88.032 56.18 88.16 56.668 88.272 56.908L88.272 56.908L88.272 56.908ZM85.44 55.948C84.544 55.948 83.864 55.628 83.4 54.988C82.936 54.348 82.704 53.516 82.704 52.492C82.704 51.484 82.936 50.66 83.4 50.02C83.864 49.38 84.544 49.06 85.44 49.06C85.968 49.06 86.448 49.232 86.88 49.576C87.312 49.92 87.64 50.38 87.864 50.956L87.864 50.956L87.864 54.052C87.64 54.628 87.312 55.088 86.88 55.432C86.448 55.776 85.968 55.948 85.44 55.948L85.44 55.948ZM97.512 56.908C98.184 56.908 98.856 56.76 99.528 56.464C100.2 56.168 100.752 55.788 101.184 55.324L101.184 55.324L100.752 54.796C100.416 55.116 99.992 55.38 99.48 55.588C98.968 55.796 98.512 55.9 98.112 55.9C96.928 55.9 96.076 55.528 95.556 54.784C95.036 54.04 94.848 53.076 94.992 51.892L94.992 51.892L100.776 51.892C101.064 50.884 100.864 50 100.176 49.24C99.488 48.48 98.6 48.1 97.512 48.1C96.36 48.1 95.332 48.524 94.428 49.372C93.524 50.22 93.072 51.26 93.072 52.492C93.072 53.724 93.488 54.768 94.32 55.624C95.152 56.48 96.216 56.908 97.512 56.908L97.512 56.908ZM99.12 51.004L95.136 51.004C95.312 50.412 95.604 49.94 96.012 49.588C96.42 49.236 96.88 49.06 97.392 49.06C98.112 49.06 98.62 49.272 98.916 49.696C99.212 50.12 99.28 50.556 99.12 51.004L99.12 51.004L99.12 51.004Z" id="Shape" fill="#524740" fill-rule="evenodd" stroke="none" />
        </g>
        <g id="+" transform="translate(73.41295 22.334)" filter="url(#filter_1)">
          <g id="Text">
            <g id="+" fill="#555555">
              <path d="M9.54 9.054L5.868 9.054L5.868 12.924L4.563 12.924L4.563 9.054L0.909 9.054L0.909 7.839L4.563 7.839L4.563 3.996L5.868 3.996L5.868 7.839L9.54 7.839L9.54 9.054Z" />
            </g>
          </g>
        </g>
        <path d="M239.968 253.824L239.968 253.32C238.976 253.32 238.344 253.152 238.072 252.816C237.8 252.48 237.664 251.712 237.664 250.512L237.664 250.512L237.664 240.36L240.808 240.36C241.832 240.36 242.504 240.484 242.824 240.732C243.144 240.98 243.4 241.464 243.592 242.184L243.592 242.184L243.712 242.664L244.216 242.664L244 239.424L229.432 239.424L229.216 242.664L229.72 242.664L229.84 242.184C230.032 241.464 230.288 240.98 230.608 240.732C230.928 240.484 231.6 240.36 232.624 240.36L232.624 240.36L235.768 240.36L235.768 250.512C235.768 251.712 235.632 252.48 235.36 252.816C235.088 253.152 234.456 253.32 233.464 253.32L233.464 253.32L233.464 253.824L239.968 253.824L239.968 253.824ZM248.056 243.072C248.344 243.072 248.592 242.968 248.8 242.76C249.008 242.552 249.112 242.296 249.112 241.992C249.112 241.704 249.008 241.456 248.8 241.248C248.592 241.04 248.344 240.936 248.056 240.936C247.768 240.936 247.52 241.04 247.312 241.248C247.104 241.456 247 241.704 247 241.992C247 242.296 247.104 242.552 247.312 242.76C247.52 242.968 247.768 243.072 248.056 243.072L248.056 243.072ZM250.816 253.824L250.816 253.32C250.016 253.32 249.5 253.152 249.268 252.816C249.036 252.48 248.92 251.712 248.92 250.512L248.92 250.512L248.92 245.424L245.32 246.024L245.32 246.528C246.12 246.528 246.636 246.696 246.868 247.032C247.1 247.368 247.216 248.128 247.216 249.312L247.216 249.312L247.216 250.512C247.216 251.712 247.1 252.48 246.868 252.816C246.636 253.152 246.12 253.32 245.32 253.32L245.32 253.32L245.32 253.824L250.816 253.824L250.816 253.824ZM257.272 253.824L257.272 253.32C256.616 253.32 256.204 253.164 256.036 252.852C255.868 252.54 255.784 251.76 255.784 250.512L255.784 250.512L255.784 248.952C255.784 248.28 256.072 247.712 256.648 247.248C257.224 246.784 257.76 246.552 258.256 246.552C259.408 246.552 259.984 247.408 259.984 249.12L259.984 249.12L259.984 250.512C259.984 251.776 259.9 252.56 259.732 252.864C259.564 253.168 259.144 253.32 258.472 253.32L258.472 253.32L258.472 253.824L263.176 253.824L263.176 253.32C262.504 253.32 262.084 253.168 261.916 252.864C261.748 252.56 261.664 251.776 261.664 250.512L261.664 250.512L261.664 248.952C261.664 248.28 261.956 247.712 262.54 247.248C263.124 246.784 263.664 246.552 264.16 246.552C265.296 246.552 265.864 247.408 265.864 249.12L265.864 249.12L265.864 250.512C265.864 251.776 265.784 252.56 265.624 252.864C265.464 253.168 265.048 253.32 264.376 253.32L264.376 253.32L264.376 253.824L269.464 253.824L269.464 253.32C268.664 253.32 268.148 253.152 267.916 252.816C267.684 252.48 267.568 251.712 267.568 250.512L267.568 250.512L267.568 249C267.568 246.616 266.648 245.424 264.808 245.424C264.152 245.424 263.508 245.612 262.876 245.988C262.244 246.364 261.768 246.776 261.448 247.224C261.08 246.024 260.232 245.424 258.904 245.424C257.736 245.424 256.696 246 255.784 247.152C255.656 246.304 255.52 245.728 255.376 245.424L255.376 245.424L252.184 246.024L252.184 246.528C252.984 246.528 253.5 246.696 253.732 247.032C253.964 247.368 254.08 248.128 254.08 249.312L254.08 249.312L254.08 250.512C254.08 251.712 253.964 252.48 253.732 252.816C253.5 253.152 252.984 253.32 252.184 253.32L252.184 253.32L252.184 253.824L257.272 253.824L257.272 253.824ZM275.536 254.232C276.208 254.232 276.88 254.084 277.552 253.788C278.224 253.492 278.776 253.112 279.208 252.648L279.208 252.648L278.776 252.12C278.44 252.44 278.016 252.704 277.504 252.912C276.992 253.12 276.536 253.224 276.136 253.224C274.952 253.224 274.1 252.852 273.58 252.108C273.06 251.364 272.872 250.4 273.016 249.216L273.016 249.216L278.8 249.216C279.088 248.208 278.888 247.324 278.2 246.564C277.512 245.804 276.624 245.424 275.536 245.424C274.384 245.424 273.356 245.848 272.452 246.696C271.548 247.544 271.096 248.584 271.096 249.816C271.096 251.048 271.512 252.092 272.344 252.948C273.176 253.804 274.24 254.232 275.536 254.232L275.536 254.232ZM277.144 248.328L273.16 248.328C273.336 247.736 273.628 247.264 274.036 246.912C274.444 246.56 274.904 246.384 275.416 246.384C276.136 246.384 276.644 246.596 276.94 247.02C277.236 247.444 277.304 247.88 277.144 248.328L277.144 248.328L277.144 248.328Z" id="Time" fill="#524740" fill-rule="evenodd" stroke="none" />
        <path d="M8.472 137.232L13.752 125.016C14.152 124.088 14.492 123.508 14.772 123.276C15.052 123.044 15.664 122.928 16.608 122.928L16.608 122.928L16.608 122.424L11.016 122.424L11.016 122.928C12.008 122.928 12.644 123.068 12.924 123.348C13.204 123.628 13.192 124.096 12.888 124.752L12.888 124.752L8.856 134.088L4.776 124.752C4.472 124.096 4.46 123.628 4.74 123.348C5.02 123.068 5.656 122.928 6.648 122.928L6.648 122.928L6.648 122.424L0 122.424L0 122.928C0.944 122.928 1.556 123.044 1.836 123.276C2.116 123.508 2.456 124.088 2.856 125.016L2.856 125.016L8.16 137.232L8.472 137.232L8.472 137.232ZM21.72 137.232C23.048 137.232 24.188 136.8 25.14 135.936C26.092 135.072 26.568 134.032 26.568 132.816C26.568 131.6 26.088 130.568 25.128 129.72C24.184 128.856 23.048 128.424 21.72 128.424C20.392 128.424 19.252 128.852 18.3 129.708C17.348 130.564 16.872 131.6 16.872 132.816C16.872 134.032 17.348 135.072 18.3 135.936C19.252 136.8 20.392 137.232 21.72 137.232L21.72 137.232ZM21.72 136.296C20.776 136.296 20.056 135.968 19.56 135.312C19.064 134.656 18.816 133.824 18.816 132.816C18.816 131.808 19.064 130.976 19.56 130.32C20.056 129.664 20.776 129.336 21.72 129.336C22.664 129.336 23.384 129.66 23.88 130.308C24.376 130.956 24.624 131.792 24.624 132.816C24.624 133.84 24.376 134.68 23.88 135.336C23.384 135.976 22.664 136.296 21.72 136.296L21.72 136.296ZM33.672 136.824L33.672 136.32C32.872 136.32 32.356 136.152 32.124 135.816C31.892 135.48 31.776 134.712 31.776 133.512L31.776 133.512L31.776 122.016L28.176 122.616L28.176 123.12C28.976 123.12 29.492 123.288 29.724 123.624C29.956 123.96 30.072 124.728 30.072 125.928L30.072 125.928L30.072 133.512C30.072 134.712 29.956 135.48 29.724 135.816C29.492 136.152 28.976 136.32 28.176 136.32L28.176 136.32L28.176 136.824L33.672 136.824L33.672 136.824ZM38.304 137.16C38.704 137.16 39.14 137.032 39.612 136.776C40.084 136.52 40.488 136.192 40.824 135.792L40.824 135.792L40.416 135.384C39.84 135.928 39.32 136.2 38.856 136.2C38.136 136.2 37.776 135.624 37.776 134.472L37.776 134.472L37.776 129.672L39.864 129.672L39.864 128.832L37.776 128.832L37.776 126.192L36.96 126.192C36.864 127.024 36.656 127.68 36.336 128.16C36.016 128.64 35.512 128.952 34.824 129.096L34.824 129.096L34.824 129.672L36.072 129.672L36.072 134.472C36.072 135.368 36.272 136.04 36.672 136.488C37.072 136.936 37.616 137.16 38.304 137.16L38.304 137.16ZM44.304 137.136C45.232 137.136 46.232 136.656 47.304 135.696C47.432 136.624 47.976 137.088 48.936 137.088C49.528 137.088 50.056 136.84 50.52 136.344L50.52 136.344L50.184 135.888C49.944 136.128 49.72 136.248 49.512 136.248C49.144 136.248 48.96 135.936 48.96 135.312L48.96 135.312L48.96 131.688C48.96 130.536 48.704 129.704 48.192 129.192C47.68 128.68 46.84 128.424 45.672 128.424C44.872 128.424 44.164 128.604 43.548 128.964C42.932 129.324 42.624 129.784 42.624 130.344C42.624 130.584 42.704 130.784 42.864 130.944C43.024 131.104 43.224 131.184 43.464 131.184C43.688 131.184 43.88 131.104 44.04 130.944C44.2 130.784 44.28 130.584 44.28 130.344C44.28 129.992 44.428 129.712 44.724 129.504C45.02 129.296 45.328 129.192 45.648 129.192C46.304 129.192 46.736 129.376 46.944 129.744C47.152 130.112 47.256 130.768 47.256 131.712C43.848 132.304 42.144 133.44 42.144 135.12C42.144 135.744 42.352 136.236 42.768 136.596C43.184 136.956 43.696 137.136 44.304 137.136L44.304 137.136ZM45.072 136.056C44.752 136.056 44.484 135.944 44.268 135.72C44.052 135.496 43.944 135.2 43.944 134.832C43.944 133.76 45.048 132.968 47.256 132.456L47.256 132.456L47.256 134.904C46.392 135.672 45.664 136.056 45.072 136.056L45.072 136.056ZM55.56 143.232C56.776 143.232 57.788 142.94 58.596 142.356C59.404 141.772 59.808 140.992 59.808 140.016C59.808 139.2 59.464 138.504 58.776 137.928C58.088 137.352 56.976 137 55.44 136.872C53.984 136.744 53.256 136.44 53.256 135.96C53.256 135.496 54.152 135.16 55.944 134.952C56.776 134.84 57.504 134.48 58.128 133.872C58.752 133.264 59.064 132.536 59.064 131.688C59.064 130.952 58.832 130.304 58.368 129.744C58.624 129.488 58.872 129.36 59.112 129.36C59.336 129.36 59.5 129.42 59.604 129.54C59.708 129.66 59.772 129.788 59.796 129.924C59.82 130.06 59.892 130.184 60.012 130.296C60.132 130.408 60.312 130.456 60.552 130.44C60.68 130.44 60.792 130.4 60.888 130.32C61.176 130.096 61.248 129.76 61.104 129.312C60.912 128.72 60.464 128.424 59.76 128.424C59.488 128.424 59.172 128.512 58.812 128.688C58.452 128.864 58.168 129.08 57.96 129.336C57.272 128.728 56.448 128.424 55.488 128.424C54.496 128.424 53.652 128.744 52.956 129.384C52.26 130.024 51.912 130.792 51.912 131.688C51.912 132.328 52.092 132.904 52.452 133.416C52.812 133.928 53.304 134.328 53.928 134.616C52.584 135.032 51.912 135.672 51.912 136.536C51.912 137.8 53.048 138.544 55.32 138.768C56.424 138.88 57.236 139.056 57.756 139.296C58.276 139.536 58.536 139.92 58.536 140.448C58.536 140.992 58.236 141.436 57.636 141.78C57.036 142.124 56.344 142.296 55.56 142.296C55.064 142.296 54.588 142.224 54.132 142.08C53.676 141.936 53.292 141.736 52.98 141.48C52.668 141.224 52.528 140.876 52.56 140.436C52.592 139.996 52.84 139.512 53.304 138.984L53.304 138.984L52.872 138.72C51.912 139.216 51.4 139.824 51.336 140.544C51.272 141.264 51.636 141.892 52.428 142.428C53.22 142.964 54.264 143.232 55.56 143.232L55.56 143.232ZM55.488 134.16C54.928 134.16 54.496 133.932 54.192 133.476C53.888 133.02 53.736 132.424 53.736 131.688C53.736 130.952 53.888 130.352 54.192 129.888C54.496 129.424 54.928 129.192 55.488 129.192C56.048 129.192 56.476 129.424 56.772 129.888C57.068 130.352 57.216 130.952 57.216 131.688C57.216 132.424 57.064 133.024 56.76 133.488C56.472 133.936 56.048 134.16 55.488 134.16L55.488 134.16ZM66.648 137.232C67.32 137.232 67.992 137.084 68.664 136.788C69.336 136.492 69.888 136.112 70.32 135.648L70.32 135.648L69.888 135.12C69.552 135.44 69.128 135.704 68.616 135.912C68.104 136.12 67.648 136.224 67.248 136.224C66.064 136.224 65.212 135.852 64.692 135.108C64.172 134.364 63.984 133.4 64.128 132.216L64.128 132.216L69.912 132.216C70.2 131.208 70 130.324 69.312 129.564C68.624 128.804 67.736 128.424 66.648 128.424C65.496 128.424 64.468 128.848 63.564 129.696C62.66 130.544 62.208 131.584 62.208 132.816C62.208 134.048 62.624 135.092 63.456 135.948C64.288 136.804 65.352 137.232 66.648 137.232L66.648 137.232ZM68.256 131.328L64.272 131.328C64.448 130.736 64.74 130.264 65.148 129.912C65.556 129.56 66.016 129.384 66.528 129.384C67.248 129.384 67.756 129.596 68.052 130.02C68.348 130.444 68.416 130.88 68.256 131.328L68.256 131.328L68.256 131.328Z" id="Voltage" fill="#524740" fill-rule="evenodd" stroke="none" />
        <path d="M70.644 136.232C72.18 136.232 73.496 135.684 74.592 134.588C75.688 133.492 76.236 132.168 76.236 130.616C76.236 129.08 75.688 127.764 74.592 126.668C73.496 125.572 72.18 125.024 70.644 125.024C69.108 125.024 67.788 125.576 66.684 126.68C65.596 127.768 65.052 129.08 65.052 130.616C65.052 132.168 65.6 133.492 66.696 134.588C67.792 135.684 69.108 136.232 70.644 136.232L70.644 136.232ZM70.644 134.84C69.524 134.84 68.568 134.428 67.776 133.604C66.984 132.78 66.588 131.784 66.588 130.616C66.588 129.464 66.984 128.472 67.776 127.64C68.568 126.808 69.524 126.392 70.644 126.392C71.748 126.392 72.7 126.808 73.5 127.64C74.3 128.472 74.7 129.464 74.7 130.616C74.7 131.784 74.3 132.78 73.5 133.604C72.7 134.428 71.748 134.84 70.644 134.84L70.644 134.84ZM85.308 136.232L90.588 124.016C90.988 123.088 91.328 122.508 91.608 122.276C91.888 122.044 92.5 121.928 93.444 121.928L93.444 121.928L93.444 121.424L87.852 121.424L87.852 121.928C88.844 121.928 89.48 122.068 89.76 122.348C90.04 122.628 90.028 123.096 89.724 123.752L89.724 123.752L85.692 133.088L81.612 123.752C81.308 123.096 81.296 122.628 81.576 122.348C81.856 122.068 82.492 121.928 83.484 121.928L83.484 121.928L83.484 121.424L76.836 121.424L76.836 121.928C77.78 121.928 78.392 122.044 78.672 122.276C78.952 122.508 79.292 123.088 79.692 124.016L79.692 124.016L84.996 136.232L85.308 136.232L85.308 136.232Z" id="0V" fill="#524740" fill-rule="evenodd" stroke="none" />
        <g id="-" transform="translate(77.165955 221.334)" filter="url(#filter_1)">
          <g id="Text">
            <g id="-" fill="#555555">
              <path d="M1.125 8.415L5.571 8.415L5.571 9.774L1.125 9.774L1.125 8.415Z" />
            </g>
          </g>
        </g>
        <path d="M115.294 128.844C138.797 63.4972 162.215 30.824 185.548 30.824C202.403 30.824 218.955 47.8735 235.203 81.9726C239.366 90.7094 245.566 106.333 253.802 128.844C278.299 196.831 302.215 230.824 325.548 230.824C348.881 230.824 372.215 196.831 395.548 128.844" id="Path-2" fill="none" fill-rule="evenodd" stroke="#23ABE3" stroke-width="2" />
      </g>
    </g>
  </g>
</svg>