<?xml version="1.0" encoding="UTF-8" standalone="no"?>
<svg
   width="900px"
   height="340px"
   viewBox="0 0 900 340"
   version="1.1"
   id="svg48"
   sodipodi:docname="Alternating_Current.svg"
   inkscape:version="1.2.2 (732a01da63, 2022-12-09)"
   xmlns:inkscape="http://www.inkscape.org/namespaces/inkscape"
   xmlns:sodipodi="http://sodipodi.sourceforge.net/DTD/sodipodi-0.dtd"
   xmlns:xlink="http://www.w3.org/1999/xlink"
   xmlns="http://www.w3.org/2000/svg"
   xmlns:svg="http://www.w3.org/2000/svg">
  <sodipodi:namedview
     id="namedview50"
     pagecolor="#ffffff"
     bordercolor="#000000"
     borderopacity="0.25"
     inkscape:showpageshadow="2"
     inkscape:pageopacity="0.0"
     inkscape:pagecheckerboard="0"
     inkscape:deskcolor="#d1d1d1"
     showgrid="false"
     inkscape:zoom="1.3444444"
     inkscape:cx="450.3719"
     inkscape:cy="170.33058"
     inkscape:window-width="1920"
     inkscape:window-height="1017"
     inkscape:window-x="-8"
     inkscape:window-y="-8"
     inkscape:window-maximized="1"
     inkscape:current-layer="g46" />
  <defs
     id="defs9">
    <filter
       id="filter_1"
       x="0"
       y="-2.4870587e-16"
       width="1"
       height="1">
      <feColorMatrix
         in="SourceGraphic"
         type="matrix"
         values="0 0 0 0 0.33333334 0 0 0 0 0.33333334 0 0 0 0 0.33333334 0 0 0 1 0"
         color-interpolation-filters="sRGB"
         id="feColorMatrix2" />
    </filter>
    <path
       d="M900 0L900 0L900 340L0 340L0 0L900 0Z"
       id="path_1" />
    <clipPath
       id="clip_1">
      <use
         xlink:href="#path_1"
         clip-rule="evenodd"
         fill-rule="evenodd"
         id="use6" />
    </clipPath>
  </defs>
  <g
     id="g46"
     clip-path="url(#clip_1)">
    <g
       id="g265">
      <path
         d="M900 0L900 0L900 340L0 340L0 0L900 0Z"
         id="Alternating_Current"
         fill="none"
         stroke="none" />
      <g
         id="Illustration_Frame"
         transform="translate(1,1)">
        <path
           d="M 0,0 H 898 V 338 H 0 Z"
           id="Rectangle"
           fill="#eeeeee"
           fill-rule="evenodd"
           stroke="#3d3530"
           stroke-width="2" />
        <path
           d="m 0,295 h 898 v 43 H 0 Z"
           id="Rectangle-Copy"
           fill="#f8fae4"
           fill-rule="evenodd"
           stroke="#3d3530"
           stroke-width="2" />
        <path
           d="m 592.952,324 2.064,-5.04 h 7.536 l 2.064,5.04 h 1.632 l -6.72,-16.128 h -1.512 L 591.296,324 Z m 8.952,-6.624 h -6.24 l 3.12,-7.656 z m 8.587,6.624 v -17.856 h -1.584 V 324 Z m 8.418,0.192 c 0.592,0 1.168,-0.156 1.728,-0.468 0.56,-0.312 0.92,-0.556 1.08,-0.732 0.16,-0.176 0.288,-0.328 0.384,-0.456 v 0 l -0.792,-1.224 c 0,0.064 -0.084,0.204 -0.252,0.42 -0.168,0.216 -0.428,0.436 -0.78,0.66 -0.352,0.224 -0.712,0.336 -1.08,0.336 -0.592,0 -1.116,-0.216 -1.572,-0.648 -0.456,-0.432 -0.684,-1.016 -0.684,-1.752 v 0 -6.888 h 3.624 v -1.464 h -3.624 v -3.984 l -1.584,0.192 v 3.792 h -1.92 v 1.464 h 1.92 v 7.248 c 0,1.136 0.34,2.004 1.02,2.604 0.68,0.6 1.524,0.9 2.532,0.9 z m 10.843,-0.12 c 1.472,0.016 2.74,-0.4 3.804,-1.248 1.064,-0.848 1.78,-1.776 2.148,-2.784 v 0 l -1.344,-0.48 c -0.304,0.816 -0.88,1.528 -1.728,2.136 -0.848,0.608 -1.808,0.912 -2.88,0.912 -0.992,0.016 -1.896,-0.284 -2.712,-0.9 -0.816,-0.616 -1.36,-1.404 -1.632,-2.364 v 0 l 10.488,-1.896 c 0,-0.128 -0.008,-0.232 -0.024,-0.312 -0.176,-1.536 -0.848,-2.824 -2.016,-3.864 -1.168,-1.04 -2.536,-1.568 -4.104,-1.584 -1.728,0.016 -3.192,0.624 -4.392,1.824 -1.2,1.2 -1.8,2.664 -1.8,4.392 0,0.624 0.08,1.2 0.24,1.728 0.4,1.296 1.156,2.36 2.268,3.192 1.112,0.832 2.34,1.248 3.684,1.248 z m -4.584,-6.024 c 0,-0.08 -0.004,-0.18 -0.012,-0.3 -0.008,-0.12 -0.012,-0.204 -0.012,-0.252 0.064,-1.184 0.524,-2.2 1.38,-3.048 0.856,-0.848 1.884,-1.28 3.084,-1.296 1.024,-0.016 1.952,0.284 2.784,0.9 0.832,0.616 1.4,1.412 1.704,2.388 v 0 z M 640.403,324 v -7.032 c 0,-1.04 0.344,-1.916 1.032,-2.628 0.688,-0.712 1.536,-1.068 2.544,-1.068 0.688,0 1.368,0.248 2.04,0.744 v 0 l 0.552,-1.584 c -0.704,-0.416 -1.48,-0.624 -2.328,-0.624 -1.584,0 -2.864,0.656 -3.84,1.968 v 0 V 312 h -1.584 v 12 z m 10.554,0 v -7.032 c 0,-1.024 0.348,-1.896 1.044,-2.616 0.696,-0.72 1.54,-1.08 2.532,-1.08 0.992,0 1.836,0.36 2.532,1.08 0.696,0.72 1.044,1.592 1.044,2.616 v 0 7.032 h 1.608 v -7.08 c 0,-1.44 -0.472,-2.652 -1.416,-3.636 -0.944,-0.984 -2.112,-1.476 -3.504,-1.476 -1.584,0 -2.864,0.656 -3.84,1.968 v 0 V 312 h -1.584 v 12 z m 17.875,0.192 c 1.888,0 3.448,-0.712 4.68,-2.136 v 0 1.944 h 1.584 v -12 h -1.584 v 1.944 c -1.216,-1.424 -2.776,-2.136 -4.68,-2.136 -1.712,0 -3.172,0.604 -4.38,1.812 -1.208,1.208 -1.812,2.668 -1.812,4.38 0,1.712 0.604,3.172 1.812,4.38 1.208,1.208 2.668,1.812 4.38,1.812 z m 0.024,-1.512 c -1.28,0 -2.372,-0.452 -3.276,-1.356 -0.904,-0.904 -1.356,-2.012 -1.356,-3.324 0,-1.312 0.452,-2.42 1.356,-3.324 0.904,-0.904 1.996,-1.356 3.276,-1.356 1.296,0 2.388,0.452 3.276,1.356 0.888,0.904 1.332,2.012 1.332,3.324 0,1.312 -0.444,2.42 -1.332,3.324 -0.888,0.904 -1.98,1.356 -3.276,1.356 z m 14.323,1.512 c 0.592,0 1.168,-0.156 1.728,-0.468 0.56,-0.312 0.92,-0.556 1.08,-0.732 0.16,-0.176 0.288,-0.328 0.384,-0.456 v 0 l -0.792,-1.224 c 0,0.064 -0.084,0.204 -0.252,0.42 -0.168,0.216 -0.428,0.436 -0.78,0.66 -0.352,0.224 -0.712,0.336 -1.08,0.336 -0.592,0 -1.116,-0.216 -1.572,-0.648 -0.456,-0.432 -0.684,-1.016 -0.684,-1.752 v 0 -6.888 h 3.624 v -1.464 h -3.624 v -3.984 l -1.584,0.192 v 3.792 h -1.92 v 1.464 h 1.92 v 7.248 c 0,1.136 0.34,2.004 1.02,2.604 0.68,0.6 1.524,0.9 2.532,0.9 z m 6.954,-15.504 c 0.272,0 0.496,-0.096 0.672,-0.288 0.192,-0.192 0.288,-0.416 0.288,-0.672 0,-0.256 -0.092,-0.48 -0.276,-0.672 -0.184,-0.192 -0.412,-0.288 -0.684,-0.288 -0.272,0 -0.5,0.096 -0.684,0.288 -0.184,0.192 -0.276,0.416 -0.276,0.672 0,0.256 0.092,0.48 0.276,0.672 0.184,0.192 0.412,0.288 0.684,0.288 z M 690.925,324 v -12 h -1.584 v 12 z m 5.923,0 v -7.032 c 0,-1.024 0.348,-1.896 1.044,-2.616 0.696,-0.72 1.54,-1.08 2.532,-1.08 0.992,0 1.836,0.36 2.532,1.08 0.696,0.72 1.044,1.592 1.044,2.616 v 0 7.032 h 1.608 v -7.08 c 0,-1.44 -0.472,-2.652 -1.416,-3.636 -0.944,-0.984 -2.112,-1.476 -3.504,-1.476 -1.584,0 -2.864,0.656 -3.84,1.968 v 0 V 312 h -1.584 v 12 z m 18.115,5.112 c 1.632,0 3.068,-0.588 4.308,-1.764 1.24,-1.176 1.868,-2.636 1.884,-4.38 v 0 -10.944 h -1.608 v 1.944 c -1.232,-1.424 -2.792,-2.136 -4.68,-2.136 -1.712,0 -3.172,0.604 -4.38,1.812 -1.208,1.208 -1.812,2.668 -1.812,4.38 0,1.712 0.604,3.172 1.812,4.38 1.208,1.208 2.668,1.812 4.38,1.812 1.904,0 3.464,-0.712 4.68,-2.136 v 0 0.888 h 0.024 c -0.016,1.248 -0.468,2.34 -1.356,3.276 -0.888,0.936 -1.972,1.404 -3.252,1.404 -1.088,0 -2.056,-0.304 -2.904,-0.912 -0.848,-0.608 -1.424,-1.32 -1.728,-2.136 v 0 l -1.296,0.648 c 0.368,0.992 1.076,1.884 2.124,2.676 1.048,0.792 2.316,1.188 3.804,1.188 z m -0.072,-6.384 c -1.28,0 -2.368,-0.452 -3.264,-1.356 -0.896,-0.904 -1.344,-2.012 -1.344,-3.324 0,-1.312 0.448,-2.42 1.344,-3.324 0.896,-0.904 1.984,-1.356 3.264,-1.356 1.296,0 2.388,0.452 3.276,1.356 0.888,0.904 1.332,2.012 1.332,3.324 0,1.312 -0.444,2.42 -1.332,3.324 -0.888,0.904 -1.98,1.356 -3.276,1.356 z m 24.757,1.464 c 1.568,0 2.932,-0.356 4.092,-1.068 1.16,-0.712 2.06,-1.692 2.7,-2.94 v 0 l -1.488,-0.888 c -0.496,1.04 -1.204,1.868 -2.124,2.484 -0.92,0.616 -1.98,0.924 -3.18,0.924 -1.824,0 -3.284,-0.64 -4.38,-1.92 -1.096,-1.28 -1.644,-2.888 -1.644,-4.824 0,-1.952 0.548,-3.564 1.644,-4.836 1.096,-1.272 2.556,-1.908 4.38,-1.908 1.184,0 2.236,0.304 3.156,0.912 0.92,0.608 1.636,1.432 2.148,2.472 v 0 l 1.488,-0.864 c -0.64,-1.248 -1.54,-2.232 -2.7,-2.952 -1.16,-0.72 -2.524,-1.08 -4.092,-1.08 -2.368,0 -4.256,0.788 -5.664,2.364 -1.408,1.576 -2.112,3.54 -2.112,5.892 0,2.336 0.704,4.292 2.112,5.868 1.408,1.576 3.296,2.364 5.664,2.364 z m 15.067,0 c 1.584,0 2.864,-0.656 3.84,-1.968 v 0 1.776 h 1.584 v -12 h -1.584 v 7.032 c 0,1.024 -0.344,1.892 -1.032,2.604 -0.688,0.712 -1.536,1.068 -2.544,1.068 -0.992,0 -1.832,-0.356 -2.52,-1.068 -0.688,-0.712 -1.032,-1.58 -1.032,-2.604 v 0 V 312 h -1.632 v 7.08 c 0,1.44 0.472,2.652 1.416,3.636 0.944,0.984 2.112,1.476 3.504,1.476 z M 765.677,324 v -7.032 c 0,-1.04 0.344,-1.916 1.032,-2.628 0.688,-0.712 1.536,-1.068 2.544,-1.068 0.688,0 1.368,0.248 2.04,0.744 v 0 l 0.552,-1.584 c -0.704,-0.416 -1.48,-0.624 -2.328,-0.624 -1.584,0 -2.864,0.656 -3.84,1.968 v 0 V 312 h -1.584 v 12 z m 10.555,0 v -7.032 c 0,-1.04 0.344,-1.916 1.032,-2.628 0.688,-0.712 1.536,-1.068 2.544,-1.068 0.688,0 1.368,0.248 2.04,0.744 v 0 l 0.552,-1.584 c -0.704,-0.416 -1.48,-0.624 -2.328,-0.624 -1.584,0 -2.864,0.656 -3.84,1.968 v 0 V 312 h -1.584 v 12 z m 13.483,0.072 c 1.472,0.016 2.74,-0.4 3.804,-1.248 1.064,-0.848 1.78,-1.776 2.148,-2.784 v 0 l -1.344,-0.48 c -0.304,0.816 -0.88,1.528 -1.728,2.136 -0.848,0.608 -1.808,0.912 -2.88,0.912 -0.992,0.016 -1.896,-0.284 -2.712,-0.9 -0.816,-0.616 -1.36,-1.404 -1.632,-2.364 v 0 l 10.488,-1.896 c 0,-0.128 -0.008,-0.232 -0.024,-0.312 -0.176,-1.536 -0.848,-2.824 -2.016,-3.864 -1.168,-1.04 -2.536,-1.568 -4.104,-1.584 -1.728,0.016 -3.192,0.624 -4.392,1.824 -1.2,1.2 -1.8,2.664 -1.8,4.392 0,0.624 0.08,1.2 0.24,1.728 0.4,1.296 1.156,2.36 2.268,3.192 1.112,0.832 2.34,1.248 3.684,1.248 z m -4.584,-6.024 c 0,-0.08 -0.004,-0.18 -0.012,-0.3 -0.008,-0.12 -0.012,-0.204 -0.012,-0.252 0.064,-1.184 0.524,-2.2 1.38,-3.048 0.856,-0.848 1.884,-1.28 3.084,-1.296 1.024,-0.016 1.952,0.284 2.784,0.9 0.832,0.616 1.4,1.412 1.704,2.388 v 0 z M 800.365,324 v -7.032 c 0,-1.024 0.348,-1.896 1.044,-2.616 0.696,-0.72 1.54,-1.08 2.532,-1.08 0.992,0 1.836,0.36 2.532,1.08 0.696,0.72 1.044,1.592 1.044,2.616 v 0 7.032 h 1.608 v -7.08 c 0,-1.44 -0.472,-2.652 -1.416,-3.636 -0.944,-0.984 -2.112,-1.476 -3.504,-1.476 -1.584,0 -2.864,0.656 -3.84,1.968 v 0 V 312 h -1.584 v 12 z m 16.651,0.192 c 0.592,0 1.168,-0.156 1.728,-0.468 0.56,-0.312 0.92,-0.556 1.08,-0.732 0.16,-0.176 0.288,-0.328 0.384,-0.456 v 0 l -0.792,-1.224 c 0,0.064 -0.084,0.204 -0.252,0.42 -0.168,0.216 -0.428,0.436 -0.78,0.66 -0.352,0.224 -0.712,0.336 -1.08,0.336 -0.592,0 -1.116,-0.216 -1.572,-0.648 -0.456,-0.432 -0.684,-1.016 -0.684,-1.752 v 0 -6.888 h 3.624 v -1.464 h -3.624 v -3.984 l -1.584,0.192 v 3.792 h -1.92 v 1.464 h 1.92 v 7.248 c 0,1.136 0.34,2.004 1.02,2.604 0.68,0.6 1.524,0.9 2.532,0.9 z m 18.757,2.976 0.864,-0.936 -0.528,-0.36 c -0.352,-0.256 -0.784,-0.668 -1.296,-1.236 -0.512,-0.568 -1.024,-1.232 -1.536,-1.992 -0.512,-0.76 -0.944,-1.736 -1.296,-2.928 -0.352,-1.192 -0.528,-2.444 -0.528,-3.756 0,-1.312 0.184,-2.572 0.552,-3.78 0.368,-1.208 0.78,-2.18 1.236,-2.916 0.456,-0.736 0.98,-1.42 1.572,-2.052 0.592,-0.632 1.004,-1.036 1.236,-1.212 0.232,-0.176 0.42,-0.312 0.564,-0.408 v 0 l -0.84,-0.864 -0.6,0.384 c -0.384,0.256 -0.856,0.684 -1.416,1.284 -0.56,0.6 -1.12,1.312 -1.68,2.136 -0.56,0.824 -1.036,1.896 -1.428,3.216 -0.392,1.32 -0.588,2.724 -0.588,4.212 0,1.088 0.108,2.136 0.324,3.144 0.216,1.008 0.484,1.872 0.804,2.592 0.32,0.72 0.696,1.4 1.128,2.04 0.432,0.64 0.828,1.152 1.188,1.536 0.36,0.384 0.74,0.74 1.14,1.068 0.4,0.328 0.668,0.536 0.804,0.624 0.136,0.088 0.244,0.156 0.324,0.204 z m 3.979,-3.168 2.064,-5.04 h 7.536 l 2.064,5.04 h 1.632 l -6.72,-16.128 h -1.512 L 838.096,324 Z m 8.952,-6.624 h -6.24 l 3.12,-7.656 z m 13.075,6.816 c 1.568,0 2.932,-0.356 4.092,-1.068 1.16,-0.712 2.06,-1.692 2.7,-2.94 v 0 l -1.488,-0.888 c -0.496,1.04 -1.204,1.868 -2.124,2.484 -0.92,0.616 -1.98,0.924 -3.18,0.924 -1.824,0 -3.284,-0.64 -4.38,-1.92 -1.096,-1.28 -1.644,-2.888 -1.644,-4.824 0,-1.952 0.548,-3.564 1.644,-4.836 1.096,-1.272 2.556,-1.908 4.38,-1.908 1.184,0 2.236,0.304 3.156,0.912 0.92,0.608 1.636,1.432 2.148,2.472 v 0 l 1.488,-0.864 c -0.64,-1.248 -1.54,-2.232 -2.7,-2.952 -1.16,-0.72 -2.524,-1.08 -4.092,-1.08 -2.368,0 -4.256,0.788 -5.664,2.364 -1.408,1.576 -2.112,3.54 -2.112,5.892 0,2.336 0.704,4.292 2.112,5.868 1.408,1.576 3.296,2.364 5.664,2.364 z m 9.714,2.976 0.312,-0.192 c 0.208,-0.128 0.48,-0.34 0.816,-0.636 0.336,-0.296 0.708,-0.648 1.116,-1.056 0.408,-0.408 0.816,-0.928 1.224,-1.56 0.408,-0.632 0.78,-1.312 1.116,-2.04 0.336,-0.728 0.608,-1.592 0.816,-2.592 0.208,-1 0.312,-2.044 0.312,-3.132 0,-1.088 -0.108,-2.136 -0.324,-3.144 -0.216,-1.008 -0.484,-1.868 -0.804,-2.58 -0.32,-0.712 -0.696,-1.396 -1.128,-2.052 -0.432,-0.656 -0.828,-1.176 -1.188,-1.56 -0.36,-0.384 -0.74,-0.74 -1.14,-1.068 -0.4,-0.328 -0.668,-0.536 -0.804,-0.624 -0.136,-0.088 -0.244,-0.156 -0.324,-0.204 v 0 l -0.84,0.864 0.528,0.384 c 0.352,0.256 0.784,0.676 1.296,1.26 0.512,0.584 1.02,1.26 1.524,2.028 0.504,0.768 0.932,1.748 1.284,2.94 0.352,1.192 0.528,2.444 0.528,3.756 0,1.312 -0.188,2.568 -0.564,3.768 -0.376,1.2 -0.792,2.164 -1.248,2.892 -0.456,0.728 -0.98,1.404 -1.572,2.028 -0.592,0.624 -1.004,1.024 -1.236,1.2 -0.232,0.176 -0.42,0.304 -0.564,0.384 v 0 z"
           id="AlternatingCurrent(AC)"
           fill="#23abe3"
           fill-rule="evenodd"
           stroke="none" />
      </g>
      <g
         id="Group"
         transform="translate(220.452,20.176)">
        <path
           d="m 114.548,30.824 v 200"
           id="Line-7-Copy-2"
           fill="none"
           fill-rule="evenodd"
           stroke="#524740"
           stroke-width="2"
           stroke-linecap="square" />
        <path
           d="m 411.548,129.824 h -313"
           id="Line-7-Copy-6"
           fill="none"
           fill-rule="evenodd"
           stroke="#524740"
           stroke-width="2"
           stroke-linecap="square" />
        <g
           id="Period"
           transform="translate(114.548)">
          <path
             d="m 279,16.824 v -6 h -56 v -2 h 56 v -6 h 2 v 14 z"
             id="Line-7-Copy-7"
             fill="#b09679"
             stroke="none" />
          <path
             d="M 1.999,8.824 H 55 v 2 H 2 v 6 H 0 l 9.99987e-4,-6 H 0 v -8 h 2 z"
             id="Line-7-Copy-8"
             fill="#b09679"
             stroke="none" />
          <path
             d="M 71.608,16.824 V 16.32 c -0.992,0 -1.62,-0.168 -1.884,-0.504 -0.264,-0.336 -0.396,-1.104 -0.396,-2.304 v 0 -3 h 2.136 c 1.616,0 2.88,-0.38 3.792,-1.14 0.912,-0.76 1.368,-1.724 1.368,-2.892 0,-1.168 -0.456,-2.136 -1.368,-2.904 C 74.344,2.808 73.08,2.424 71.464,2.424 v 0 h -6.336 v 0.504 c 0.992,0 1.62,0.164 1.884,0.492 0.264,0.328 0.396,1.092 0.396,2.292 v 0 7.8 c 0,1.2 -0.132,1.968 -0.396,2.304 -0.264,0.336 -0.892,0.504 -1.884,0.504 v 0 0.504 z M 71.44,9.648 H 69.328 V 3.312 h 2.112 c 0.992,0 1.748,0.296 2.268,0.888 0.52,0.592 0.78,1.352 0.78,2.28 0,0.928 -0.26,1.688 -0.78,2.28 -0.52,0.592 -1.276,0.888 -2.268,0.888 z m 11.568,7.584 c 0.672,0 1.344,-0.148 2.016,-0.444 0.672,-0.296 1.224,-0.676 1.656,-1.14 v 0 L 86.248,15.12 c -0.336,0.32 -0.76,0.584 -1.272,0.792 -0.512,0.208 -0.968,0.312 -1.368,0.312 -1.184,0 -2.036,-0.372 -2.556,-1.116 -0.52,-0.744 -0.708,-1.708 -0.564,-2.892 v 0 h 5.784 c 0.288,-1.008 0.088,-1.892 -0.6,-2.652 -0.688,-0.76 -1.576,-1.14 -2.664,-1.14 -1.152,0 -2.18,0.424 -3.084,1.272 -0.904,0.848 -1.356,1.888 -1.356,3.12 0,1.232 0.416,2.276 1.248,3.132 0.832,0.856 1.896,1.284 3.192,1.284 z m 1.608,-5.904 h -3.984 c 0.176,-0.592 0.468,-1.064 0.876,-1.416 0.408,-0.352 0.868,-0.528 1.38,-0.528 0.72,0 1.228,0.212 1.524,0.636 0.296,0.424 0.364,0.86 0.204,1.308 z m 9.336,5.496 V 16.32 c -0.8,0 -1.316,-0.168 -1.548,-0.504 -0.232,-0.336 -0.348,-1.104 -0.348,-2.304 v 0 -1.32 c 0,-0.848 0.216,-1.528 0.648,-2.04 0.432,-0.512 0.832,-0.768 1.2,-0.768 0.512,0 0.768,0.264 0.768,0.792 0,0.224 0.084,0.424 0.252,0.6 0.168,0.176 0.364,0.264 0.588,0.264 0.64,0 0.96,-0.376 0.96,-1.128 0,-0.352 -0.164,-0.688 -0.492,-1.008 -0.328,-0.32 -0.796,-0.48 -1.404,-0.48 -0.48,0 -0.96,0.168 -1.44,0.504 -0.48,0.336 -0.84,0.744 -1.08,1.224 C 91.928,9.304 91.792,8.728 91.648,8.424 v 0 l -3.192,0.6 v 0.504 c 0.8,0 1.316,0.168 1.548,0.504 0.232,0.336 0.348,1.096 0.348,2.28 v 0 1.2 c 0,1.2 -0.116,1.968 -0.348,2.304 -0.232,0.336 -0.748,0.504 -1.548,0.504 v 0 0.504 z m 6.672,-10.752 c 0.288,0 0.536,-0.104 0.744,-0.312 0.208,-0.208 0.312,-0.464 0.312,-0.768 0,-0.288 -0.104,-0.536 -0.312,-0.744 -0.208,-0.208 -0.456,-0.312 -0.744,-0.312 -0.288,0 -0.536,0.104 -0.744,0.312 -0.208,0.208 -0.312,0.456 -0.312,0.744 0,0.304 0.104,0.56 0.312,0.768 0.208,0.208 0.456,0.312 0.744,0.312 z m 2.76,10.752 V 16.32 c -0.8,0 -1.316,-0.168 -1.548,-0.504 -0.232,-0.336 -0.348,-1.104 -0.348,-2.304 v 0 -5.088 l -3.6,0.6 v 0.504 c 0.8,0 1.316,0.168 1.548,0.504 0.232,0.336 0.348,1.096 0.348,2.28 v 0 1.2 c 0,1.2 -0.116,1.968 -0.348,2.304 -0.232,0.336 -0.748,0.504 -1.548,0.504 v 0 0.504 z m 6.456,0.408 c 1.328,0 2.468,-0.432 3.42,-1.296 0.952,-0.864 1.428,-1.904 1.428,-3.12 0,-1.216 -0.48,-2.248 -1.44,-3.096 -0.944,-0.864 -2.08,-1.296 -3.408,-1.296 -1.328,0 -2.468,0.428 -3.42,1.284 -0.952,0.856 -1.428,1.892 -1.428,3.108 0,1.216 0.476,2.256 1.428,3.12 0.952,0.864 2.092,1.296 3.42,1.296 z m 0,-0.936 c -0.944,0 -1.664,-0.328 -2.16,-0.984 -0.496,-0.656 -0.744,-1.488 -0.744,-2.496 0,-1.008 0.248,-1.84 0.744,-2.496 0.496,-0.656 1.216,-0.984 2.16,-0.984 0.944,0 1.664,0.324 2.16,0.972 0.496,0.648 0.744,1.484 0.744,2.508 0,1.024 -0.248,1.864 -0.744,2.52 -0.496,0.64 -1.216,0.96 -2.16,0.96 z m 14.664,0.936 3.192,-0.6 v -0.504 c -0.8,0 -1.316,-0.168 -1.548,-0.504 C 125.916,15.288 125.8,14.52 125.8,13.32 v 0 -11.304 l -3.6,0.6 V 3.12 c 0.8,0 1.316,0.168 1.548,0.504 0.232,0.336 0.348,1.104 0.348,2.304 v 0 3.912 c -0.768,-0.944 -1.744,-1.416 -2.928,-1.416 -1.136,0 -2.116,0.428 -2.94,1.284 -0.824,0.856 -1.236,1.892 -1.236,3.108 0,1.216 0.412,2.256 1.236,3.12 0.824,0.864 1.804,1.296 2.94,1.296 1.184,0 2.168,-0.488 2.952,-1.464 0.144,0.736 0.272,1.224 0.384,1.464 z m -2.832,-0.96 c -0.896,0 -1.576,-0.32 -2.04,-0.96 -0.464,-0.64 -0.696,-1.472 -0.696,-2.496 0,-1.008 0.232,-1.832 0.696,-2.472 0.464,-0.64 1.144,-0.96 2.04,-0.96 0.528,0 1.008,0.172 1.44,0.516 0.432,0.344 0.76,0.804 0.984,1.38 v 0 3.096 c -0.224,0.576 -0.552,1.036 -0.984,1.38 -0.432,0.344 -0.912,0.516 -1.44,0.516 z m 19.464,3.216 0.528,-0.504 c -0.512,-0.576 -0.936,-1.076 -1.272,-1.5 -0.336,-0.424 -0.772,-1.056 -1.308,-1.896 -0.536,-0.84 -0.948,-1.756 -1.236,-2.748 -0.288,-0.992 -0.432,-2.024 -0.432,-3.096 0,-1.072 0.144,-2.104 0.432,-3.096 0.288,-0.992 0.7,-1.908 1.236,-2.748 0.536,-0.84 0.972,-1.472 1.308,-1.896 0.336,-0.424 0.76,-0.924 1.272,-1.5 v 0 L 141.112,0 c -3.584,2.96 -5.376,6.208 -5.376,9.744 0,3.552 1.8,6.8 5.4,9.744 z m 8.712,-2.664 V 16.32 c -1.008,0 -1.644,-0.164 -1.908,-0.492 -0.264,-0.328 -0.396,-1.1 -0.396,-2.316 v 0 -3.792 c 0,-1.216 0.132,-1.988 0.396,-2.316 0.264,-0.328 0.9,-0.492 1.908,-0.492 v 0 -0.48 h -6.312 v 0.48 c 0.992,0 1.624,0.168 1.896,0.504 0.272,0.336 0.408,1.104 0.408,2.304 v 0 3.792 c 0,1.2 -0.136,1.968 -0.408,2.304 -0.272,0.336 -0.904,0.504 -1.896,0.504 v 0 0.504 z m 15.864,0.408 c 1.664,0 3.152,-0.68 4.464,-2.04 0.416,0.288 0.688,0.744 0.816,1.368 v 0 h 0.48 v -5.28 h -0.48 c -0.336,1.552 -0.956,2.772 -1.86,3.66 -0.904,0.888 -2.012,1.332 -3.324,1.332 -0.912,0 -1.72,-0.204 -2.424,-0.612 -0.704,-0.408 -1.252,-0.944 -1.644,-1.608 -0.392,-0.664 -0.684,-1.372 -0.876,-2.124 -0.192,-0.752 -0.288,-1.52 -0.288,-2.304 0,-0.784 0.096,-1.552 0.288,-2.304 0.192,-0.752 0.484,-1.464 0.876,-2.136 0.392,-0.672 0.94,-1.212 1.644,-1.62 0.704,-0.408 1.512,-0.612 2.424,-0.612 1.312,0 2.42,0.44 3.324,1.32 0.904,0.88 1.524,2.112 1.86,3.696 v 0 h 0.48 v -5.28 h -0.48 c -0.112,0.576 -0.384,1.032 -0.816,1.368 -1.28,-1.36 -2.768,-2.04 -4.464,-2.04 -2.032,0 -3.768,0.744 -5.208,2.232 -1.44,1.488 -2.16,3.28 -2.16,5.376 0,2.096 0.72,3.888 2.16,5.376 1.44,1.488 3.176,2.232 5.208,2.232 z m 9.504,6.072 c 0.352,0 0.648,-0.296 0.888,-0.888 v 0 l 4.68,-11.688 c 0.384,-0.944 0.952,-1.416 1.704,-1.416 v 0 -0.48 h -3.36 v 0.48 c 0.496,0 0.792,0.1 0.888,0.3 0.096,0.2 0.032,0.572 -0.192,1.116 v 0 l -1.536,3.84 -1.752,-3.84 c -0.256,-0.592 -0.328,-0.976 -0.216,-1.152 0.112,-0.176 0.44,-0.264 0.984,-0.264 v 0 -0.48 h -4.248 v 0.48 c 0.368,0 0.664,0.1 0.888,0.3 0.224,0.2 0.464,0.572 0.72,1.116 v 0 l 2.76,5.976 -1.2,3 c -0.208,0.528 -0.468,0.964 -0.78,1.308 -0.312,0.344 -0.564,0.616 -0.756,0.816 -0.192,0.2 -0.288,0.428 -0.288,0.684 0,0.272 0.084,0.472 0.252,0.6 0.168,0.128 0.356,0.192 0.564,0.192 z M 187.6,17.232 c 1.408,0 2.6,-0.528 3.576,-1.584 v 0 l -0.408,-0.528 c -0.784,0.736 -1.64,1.104 -2.568,1.104 -0.96,0 -1.684,-0.284 -2.172,-0.852 -0.488,-0.568 -0.732,-1.348 -0.732,-2.34 0,-1.088 0.224,-2 0.672,-2.736 0.448,-0.736 0.992,-1.104 1.632,-1.104 0.576,0 0.864,0.344 0.864,1.032 0,0.272 0.092,0.5 0.276,0.684 0.184,0.184 0.404,0.276 0.66,0.276 0.368,0 0.636,-0.108 0.804,-0.324 0.168,-0.216 0.252,-0.452 0.252,-0.708 0,-0.48 -0.24,-0.888 -0.72,-1.224 -0.48,-0.336 -1.192,-0.504 -2.136,-0.504 -1.04,0 -2.008,0.436 -2.904,1.308 -0.896,0.872 -1.344,1.972 -1.344,3.3 0,1.232 0.38,2.24 1.14,3.024 0.76,0.784 1.796,1.176 3.108,1.176 z m 9.984,-0.408 V 16.32 c -0.8,0 -1.316,-0.168 -1.548,-0.504 -0.232,-0.336 -0.348,-1.104 -0.348,-2.304 v 0 -11.496 l -3.6,0.6 V 3.12 c 0.8,0 1.316,0.168 1.548,0.504 0.232,0.336 0.348,1.104 0.348,2.304 v 0 7.584 c 0,1.2 -0.116,1.968 -0.348,2.304 -0.232,0.336 -0.748,0.504 -1.548,0.504 v 0 0.504 z m 6.072,0.408 c 0.672,0 1.344,-0.148 2.016,-0.444 0.672,-0.296 1.224,-0.676 1.656,-1.14 v 0 l -0.432,-0.528 c -0.336,0.32 -0.76,0.584 -1.272,0.792 -0.512,0.208 -0.968,0.312 -1.368,0.312 -1.184,0 -2.036,-0.372 -2.556,-1.116 -0.52,-0.744 -0.708,-1.708 -0.564,-2.892 v 0 h 5.784 c 0.288,-1.008 0.088,-1.892 -0.6,-2.652 -0.688,-0.76 -1.576,-1.14 -2.664,-1.14 -1.152,0 -2.18,0.424 -3.084,1.272 -0.904,0.848 -1.356,1.888 -1.356,3.12 0,1.232 0.416,2.276 1.248,3.132 0.832,0.856 1.896,1.284 3.192,1.284 z m 1.608,-5.904 h -3.984 c 0.176,-0.592 0.468,-1.064 0.876,-1.416 0.408,-0.352 0.868,-0.528 1.38,-0.528 0.72,0 1.228,0.212 1.524,0.636 0.296,0.424 0.364,0.86 0.204,1.308 z m 4.152,8.16 c 3.584,-2.928 5.376,-6.176 5.376,-9.744 0,-3.552 -1.784,-6.8 -5.352,-9.744 v 0 l -0.576,0.504 c 0.528,0.592 0.956,1.096 1.284,1.512 0.328,0.416 0.764,1.044 1.308,1.884 0.544,0.84 0.96,1.756 1.248,2.748 0.288,0.992 0.432,2.024 0.432,3.096 0,1.072 -0.144,2.104 -0.432,3.096 -0.288,0.992 -0.704,1.908 -1.248,2.748 -0.544,0.84 -0.98,1.468 -1.308,1.884 -0.328,0.416 -0.756,0.92 -1.284,1.512 v 0 z"
             id="Period(1Cycle)"
             fill="#524740"
             fill-rule="evenodd"
             stroke="none" />
        </g>
        <g
           id="Amplitude"
           transform="translate(283.568,30.324)">
          <path
             d="m 56.48,0 v 2 h -6 v 30 h -2 V 1.999 L 42.48,2 V 0 h 8 v 9.99987e-4 z"
             id="Line-7-Copy-11"
             fill="#b09679"
             stroke="none" />
          <path
             d="m 42.48,100 v -2 h 6 V 68 h 2 v 30 h 6 v 2 z"
             id="Line-7-Copy-12"
             fill="#b09679"
             stroke="none" />
          <path
             d="m 5.616,56.5 v -0.504 c -0.992,0 -1.628,-0.14 -1.908,-0.42 -0.28,-0.28 -0.268,-0.748 0.036,-1.404 v 0 l 1.152,-2.664 h 5.808 l 1.152,2.664 c 0.288,0.656 0.296,1.124 0.024,1.404 -0.272,0.28 -0.904,0.42 -1.896,0.42 v 0 0.504 h 6.648 v -0.504 c -0.512,0 -0.904,-0.02 -1.176,-0.06 -0.272,-0.04 -0.516,-0.168 -0.732,-0.384 -0.216,-0.216 -0.368,-0.412 -0.456,-0.588 -0.088,-0.176 -0.252,-0.528 -0.492,-1.056 v 0 L 8.472,41.692 H 8.16 L 2.88,53.908 C 2.64,54.436 2.476,54.788 2.388,54.964 2.3,55.14 2.148,55.336 1.932,55.552 1.716,55.768 1.468,55.896 1.188,55.936 0.908,55.976 0.512,55.996 0,55.996 v 0 0.504 z m 4.68,-5.88 H 5.28 L 7.776,44.836 Z M 21.72,56.5 v -0.504 c -0.656,0 -1.068,-0.156 -1.236,-0.468 -0.168,-0.312 -0.252,-1.092 -0.252,-2.34 v 0 -1.56 c 0,-0.672 0.288,-1.24 0.864,-1.704 0.576,-0.464 1.112,-0.696 1.608,-0.696 1.152,0 1.728,0.856 1.728,2.568 v 0 1.392 c 0,1.264 -0.084,2.048 -0.252,2.352 -0.168,0.304 -0.588,0.456 -1.26,0.456 v 0 0.504 h 4.704 v -0.504 c -0.672,0 -1.092,-0.152 -1.26,-0.456 -0.168,-0.304 -0.252,-1.088 -0.252,-2.352 v 0 -1.56 c 0,-0.672 0.292,-1.24 0.876,-1.704 0.584,-0.464 1.124,-0.696 1.62,-0.696 1.136,0 1.704,0.856 1.704,2.568 v 0 1.392 c 0,1.264 -0.08,2.048 -0.24,2.352 -0.16,0.304 -0.576,0.456 -1.248,0.456 v 0 0.504 h 5.088 v -0.504 c -0.8,0 -1.316,-0.168 -1.548,-0.504 -0.232,-0.336 -0.348,-1.104 -0.348,-2.304 v 0 -1.512 c 0,-2.384 -0.92,-3.576 -2.76,-3.576 -0.656,0 -1.3,0.188 -1.932,0.564 -0.632,0.376 -1.108,0.788 -1.428,1.236 -0.368,-1.2 -1.216,-1.8 -2.544,-1.8 -1.168,0 -2.208,0.576 -3.12,1.728 C 20.104,48.98 19.968,48.404 19.824,48.1 v 0 l -3.192,0.6 v 0.504 c 0.8,0 1.316,0.168 1.548,0.504 0.232,0.336 0.348,1.096 0.348,2.28 v 0 1.2 c 0,1.2 -0.116,1.968 -0.348,2.304 -0.232,0.336 -0.748,0.504 -1.548,0.504 v 0 0.504 z m 18.624,6 v -0.504 c -0.8,0 -1.316,-0.168 -1.548,-0.504 -0.232,-0.336 -0.348,-1.096 -0.348,-2.28 v 0 -3.744 c 0.784,0.96 1.768,1.44 2.952,1.44 1.136,0 2.112,-0.432 2.928,-1.296 0.816,-0.864 1.224,-1.904 1.224,-3.12 0,-1.216 -0.408,-2.252 -1.224,-3.108 C 43.512,48.528 42.536,48.1 41.4,48.1 c -1.168,0 -2.16,0.488 -2.976,1.464 -0.144,-0.8 -0.264,-1.288 -0.36,-1.464 v 0 l -3.216,0.6 v 0.504 c 0.8,0 1.316,0.164 1.548,0.492 0.232,0.328 0.348,1.092 0.348,2.292 v 0 7.224 c 0,1.2 -0.116,1.964 -0.348,2.292 -0.232,0.328 -0.748,0.492 -1.548,0.492 v 0 0.504 z m 0.552,-6.552 c -0.544,0 -1.028,-0.172 -1.452,-0.516 -0.424,-0.344 -0.756,-0.812 -0.996,-1.404 v 0 -3.096 c 0.24,-0.576 0.572,-1.032 0.996,-1.368 0.424,-0.336 0.908,-0.504 1.452,-0.504 0.88,0 1.552,0.32 2.016,0.96 0.464,0.64 0.696,1.464 0.696,2.472 0,1.008 -0.232,1.84 -0.696,2.496 -0.464,0.64 -1.136,0.96 -2.016,0.96 z m 11.76,0.552 v -0.504 c -0.8,0 -1.316,-0.168 -1.548,-0.504 -0.232,-0.336 -0.348,-1.104 -0.348,-2.304 v 0 -11.496 l -3.6,0.6 v 0.504 c 0.8,0 1.316,0.168 1.548,0.504 0.232,0.336 0.348,1.104 0.348,2.304 v 0 7.584 c 0,1.2 -0.116,1.968 -0.348,2.304 -0.232,0.336 -0.748,0.504 -1.548,0.504 v 0 0.504 z m 4.128,-10.752 c 0.288,0 0.536,-0.104 0.744,-0.312 0.208,-0.208 0.312,-0.464 0.312,-0.768 0,-0.288 -0.104,-0.536 -0.312,-0.744 -0.208,-0.208 -0.456,-0.312 -0.744,-0.312 -0.288,0 -0.536,0.104 -0.744,0.312 -0.208,0.208 -0.312,0.456 -0.312,0.744 0,0.304 0.104,0.56 0.312,0.768 0.208,0.208 0.456,0.312 0.744,0.312 z m 2.76,10.752 v -0.504 c -0.8,0 -1.316,-0.168 -1.548,-0.504 -0.232,-0.336 -0.348,-1.104 -0.348,-2.304 v 0 -5.088 l -3.6,0.6 v 0.504 c 0.8,0 1.316,0.168 1.548,0.504 0.232,0.336 0.348,1.096 0.348,2.28 v 0 1.2 c 0,1.2 -0.116,1.968 -0.348,2.304 -0.232,0.336 -0.748,0.504 -1.548,0.504 v 0 0.504 z m 4.608,0.336 c 0.4,0 0.836,-0.128 1.308,-0.384 0.472,-0.256 0.876,-0.584 1.212,-0.984 v 0 L 66.264,55.06 c -0.576,0.544 -1.096,0.816 -1.56,0.816 -0.72,0 -1.08,-0.576 -1.08,-1.728 v 0 -4.8 h 2.088 v -0.84 h -2.088 v -2.64 h -0.816 c -0.096,0.832 -0.304,1.488 -0.624,1.968 -0.32,0.48 -0.824,0.792 -1.512,0.936 v 0 0.576 h 1.248 v 4.8 c 0,0.896 0.2,1.568 0.6,2.016 0.4,0.448 0.944,0.672 1.632,0.672 z m 11.784,0.072 3.216,-0.6 v -0.504 c -0.816,0 -1.34,-0.168 -1.572,-0.504 -0.232,-0.336 -0.348,-1.104 -0.348,-2.304 v 0 -4.488 h -3.6 v 0.48 c 0.816,0 1.34,0.168 1.572,0.504 0.232,0.336 0.348,1.104 0.348,2.304 v 0 1.584 c 0,0.672 -0.296,1.236 -0.888,1.692 -0.592,0.456 -1.16,0.684 -1.704,0.684 -1.216,0 -1.824,-0.856 -1.824,-2.568 v 0 -4.68 h -3.6 v 0.48 c 0.8,0 1.316,0.168 1.548,0.504 0.232,0.336 0.348,1.104 0.348,2.304 v 0 1.512 c 0,2.4 0.992,3.6 2.976,3.6 1.104,0 2.152,-0.512 3.144,-1.536 0.128,0.768 0.256,1.28 0.384,1.536 z m 12.336,0 3.192,-0.6 v -0.504 c -0.8,0 -1.316,-0.168 -1.548,-0.504 -0.232,-0.336 -0.348,-1.104 -0.348,-2.304 v 0 -11.304 l -3.6,0.6 v 0.504 c 0.8,0 1.316,0.168 1.548,0.504 0.232,0.336 0.348,1.104 0.348,2.304 v 0 3.912 C 87.096,48.572 86.12,48.1 84.936,48.1 c -1.136,0 -2.116,0.428 -2.94,1.284 -0.824,0.856 -1.236,1.892 -1.236,3.108 0,1.216 0.412,2.256 1.236,3.12 0.824,0.864 1.804,1.296 2.94,1.296 1.184,0 2.168,-0.488 2.952,-1.464 0.144,0.736 0.272,1.224 0.384,1.464 z m -2.832,-0.96 c -0.896,0 -1.576,-0.32 -2.04,-0.96 -0.464,-0.64 -0.696,-1.472 -0.696,-2.496 0,-1.008 0.232,-1.832 0.696,-2.472 0.464,-0.64 1.144,-0.96 2.04,-0.96 0.528,0 1.008,0.172 1.44,0.516 0.432,0.344 0.76,0.804 0.984,1.38 v 0 3.096 c -0.224,0.576 -0.552,1.036 -0.984,1.38 -0.432,0.344 -0.912,0.516 -1.44,0.516 z m 12.072,0.96 c 0.672,0 1.344,-0.148 2.016,-0.444 0.672,-0.296 1.224,-0.676 1.656,-1.14 v 0 l -0.432,-0.528 c -0.336,0.32 -0.76,0.584 -1.272,0.792 -0.512,0.208 -0.968,0.312 -1.368,0.312 -1.184,0 -2.036,-0.372 -2.556,-1.116 -0.52,-0.744 -0.708,-1.708 -0.564,-2.892 v 0 h 5.784 c 0.288,-1.008 0.088,-1.892 -0.6,-2.652 -0.688,-0.76 -1.576,-1.14 -2.664,-1.14 -1.152,0 -2.18,0.424 -3.084,1.272 -0.904,0.848 -1.356,1.888 -1.356,3.12 0,1.232 0.416,2.276 1.248,3.132 0.832,0.856 1.896,1.284 3.192,1.284 z m 1.608,-5.904 h -3.984 c 0.176,-0.592 0.468,-1.064 0.876,-1.416 0.408,-0.352 0.868,-0.528 1.38,-0.528 0.72,0 1.228,0.212 1.524,0.636 0.296,0.424 0.364,0.86 0.204,1.308 z"
             id="Shape"
             fill="#524740"
             fill-rule="evenodd"
             stroke="none" />
        </g>
        <g
           id="g30"
           transform="translate(73.41295,22.334)"
           filter="url(#filter_1)">
          <g
             id="Text">
            <g
               id="+"
               fill="#555555">
              <path
                 d="M 9.54,9.054 H 5.868 v 3.87 H 4.563 V 9.054 H 0.909 V 7.839 H 4.563 V 3.996 H 5.868 V 7.839 H 9.54 Z"
                 id="path26" />
            </g>
          </g>
        </g>
        <path
           d="m 239.968,253.824 v -0.504 c -0.992,0 -1.624,-0.168 -1.896,-0.504 -0.272,-0.336 -0.408,-1.104 -0.408,-2.304 v 0 -10.152 h 3.144 c 1.024,0 1.696,0.124 2.016,0.372 0.32,0.248 0.576,0.732 0.768,1.452 v 0 l 0.12,0.48 h 0.504 L 244,239.424 h -14.568 l -0.216,3.24 h 0.504 l 0.12,-0.48 c 0.192,-0.72 0.448,-1.204 0.768,-1.452 0.32,-0.248 0.992,-0.372 2.016,-0.372 v 0 h 3.144 v 10.152 c 0,1.2 -0.136,1.968 -0.408,2.304 -0.272,0.336 -0.904,0.504 -1.896,0.504 v 0 0.504 z m 8.088,-10.752 c 0.288,0 0.536,-0.104 0.744,-0.312 0.208,-0.208 0.312,-0.464 0.312,-0.768 0,-0.288 -0.104,-0.536 -0.312,-0.744 -0.208,-0.208 -0.456,-0.312 -0.744,-0.312 -0.288,0 -0.536,0.104 -0.744,0.312 -0.208,0.208 -0.312,0.456 -0.312,0.744 0,0.304 0.104,0.56 0.312,0.768 0.208,0.208 0.456,0.312 0.744,0.312 z m 2.76,10.752 v -0.504 c -0.8,0 -1.316,-0.168 -1.548,-0.504 -0.232,-0.336 -0.348,-1.104 -0.348,-2.304 v 0 -5.088 l -3.6,0.6 v 0.504 c 0.8,0 1.316,0.168 1.548,0.504 0.232,0.336 0.348,1.096 0.348,2.28 v 0 1.2 c 0,1.2 -0.116,1.968 -0.348,2.304 -0.232,0.336 -0.748,0.504 -1.548,0.504 v 0 0.504 z m 6.456,0 v -0.504 c -0.656,0 -1.068,-0.156 -1.236,-0.468 -0.168,-0.312 -0.252,-1.092 -0.252,-2.34 v 0 -1.56 c 0,-0.672 0.288,-1.24 0.864,-1.704 0.576,-0.464 1.112,-0.696 1.608,-0.696 1.152,0 1.728,0.856 1.728,2.568 v 0 1.392 c 0,1.264 -0.084,2.048 -0.252,2.352 -0.168,0.304 -0.588,0.456 -1.26,0.456 v 0 0.504 h 4.704 v -0.504 c -0.672,0 -1.092,-0.152 -1.26,-0.456 -0.168,-0.304 -0.252,-1.088 -0.252,-2.352 v 0 -1.56 c 0,-0.672 0.292,-1.24 0.876,-1.704 0.584,-0.464 1.124,-0.696 1.62,-0.696 1.136,0 1.704,0.856 1.704,2.568 v 0 1.392 c 0,1.264 -0.08,2.048 -0.24,2.352 -0.16,0.304 -0.576,0.456 -1.248,0.456 v 0 0.504 h 5.088 v -0.504 c -0.8,0 -1.316,-0.168 -1.548,-0.504 -0.232,-0.336 -0.348,-1.104 -0.348,-2.304 v 0 V 249 c 0,-2.384 -0.92,-3.576 -2.76,-3.576 -0.656,0 -1.3,0.188 -1.932,0.564 -0.632,0.376 -1.108,0.788 -1.428,1.236 -0.368,-1.2 -1.216,-1.8 -2.544,-1.8 -1.168,0 -2.208,0.576 -3.12,1.728 -0.128,-0.848 -0.264,-1.424 -0.408,-1.728 v 0 l -3.192,0.6 v 0.504 c 0.8,0 1.316,0.168 1.548,0.504 0.232,0.336 0.348,1.096 0.348,2.28 v 0 1.2 c 0,1.2 -0.116,1.968 -0.348,2.304 -0.232,0.336 -0.748,0.504 -1.548,0.504 v 0 0.504 z m 18.264,0.408 c 0.672,0 1.344,-0.148 2.016,-0.444 0.672,-0.296 1.224,-0.676 1.656,-1.14 v 0 l -0.432,-0.528 c -0.336,0.32 -0.76,0.584 -1.272,0.792 -0.512,0.208 -0.968,0.312 -1.368,0.312 -1.184,0 -2.036,-0.372 -2.556,-1.116 -0.52,-0.744 -0.708,-1.708 -0.564,-2.892 v 0 h 5.784 c 0.288,-1.008 0.088,-1.892 -0.6,-2.652 -0.688,-0.76 -1.576,-1.14 -2.664,-1.14 -1.152,0 -2.18,0.424 -3.084,1.272 -0.904,0.848 -1.356,1.888 -1.356,3.12 0,1.232 0.416,2.276 1.248,3.132 0.832,0.856 1.896,1.284 3.192,1.284 z m 1.608,-5.904 h -3.984 c 0.176,-0.592 0.468,-1.064 0.876,-1.416 0.408,-0.352 0.868,-0.528 1.38,-0.528 0.72,0 1.228,0.212 1.524,0.636 0.296,0.424 0.364,0.86 0.204,1.308 z"
           id="Time"
           fill="#524740"
           fill-rule="evenodd"
           stroke="none" />
        <path
           d="m 39.768,159.312 -12.216,-5.28 c -0.928,-0.4 -1.508,-0.74 -1.74,-1.02 -0.232,-0.28 -0.348,-0.892 -0.348,-1.836 v 0 H 24.96 v 5.592 h 0.504 c 0,-0.992 0.14,-1.628 0.42,-1.908 0.28,-0.28 0.748,-0.268 1.404,0.036 v 0 l 9.336,4.032 -9.336,4.08 c -0.656,0.304 -1.124,0.316 -1.404,0.036 -0.28,-0.28 -0.42,-0.916 -0.42,-1.908 v 0 H 24.96 v 6.648 h 0.504 c 0,-0.944 0.116,-1.556 0.348,-1.836 0.232,-0.28 0.812,-0.62 1.74,-1.02 v 0 l 12.216,-5.304 z m 0,-13.248 c 0,-1.328 -0.432,-2.468 -1.296,-3.42 -0.864,-0.952 -1.904,-1.428 -3.12,-1.428 -1.216,0 -2.248,0.48 -3.096,1.44 -0.864,0.944 -1.296,2.08 -1.296,3.408 0,1.328 0.428,2.468 1.284,3.42 0.856,0.952 1.892,1.428 3.108,1.428 1.216,0 2.256,-0.476 3.12,-1.428 0.864,-0.952 1.296,-2.092 1.296,-3.42 z m -0.936,0 c 0,0.944 -0.328,1.664 -0.984,2.16 -0.656,0.496 -1.488,0.744 -2.496,0.744 -1.008,0 -1.84,-0.248 -2.496,-0.744 -0.656,-0.496 -0.984,-1.216 -0.984,-2.16 0,-0.944 0.324,-1.664 0.972,-2.16 0.648,-0.496 1.484,-0.744 2.508,-0.744 1.024,0 1.864,0.248 2.52,0.744 0.64,0.496 0.96,1.216 0.96,2.16 z m 0.528,-11.952 h -0.504 c 0,0.8 -0.168,1.316 -0.504,1.548 -0.336,0.232 -1.104,0.348 -2.304,0.348 v 0 H 24.552 l 0.6,3.6 h 0.504 c 0,-0.8 0.168,-1.316 0.504,-1.548 0.336,-0.232 1.104,-0.348 2.304,-0.348 v 0 h 7.584 c 1.2,0 1.968,0.116 2.304,0.348 0.336,0.232 0.504,0.748 0.504,1.548 v 0 h 0.504 z m 0.336,-4.632 c 0,-0.4 -0.128,-0.836 -0.384,-1.308 -0.256,-0.472 -0.584,-0.876 -0.984,-1.212 v 0 l -0.408,0.408 c 0.544,0.576 0.816,1.096 0.816,1.56 0,0.72 -0.576,1.08 -1.728,1.08 v 0 h -4.8 v -2.088 h -0.84 v 2.088 h -2.64 v 0.816 c 0.832,0.096 1.488,0.304 1.968,0.624 0.48,0.32 0.792,0.824 0.936,1.512 v 0 h 0.576 v -1.248 h 4.8 c 0.896,0 1.568,-0.2 2.016,-0.6 0.448,-0.4 0.672,-0.944 0.672,-1.632 z m -0.024,-6 c 0,-0.928 -0.48,-1.928 -1.44,-3 0.928,-0.128 1.392,-0.672 1.392,-1.632 0,-0.592 -0.248,-1.12 -0.744,-1.584 v 0 l -0.456,0.336 c 0.24,0.24 0.36,0.464 0.36,0.672 0,0.368 -0.312,0.552 -0.936,0.552 v 0 h -3.624 c -1.152,0 -1.984,0.256 -2.496,0.768 -0.512,0.512 -0.768,1.352 -0.768,2.52 0,0.8 0.18,1.508 0.54,2.124 0.36,0.616 0.82,0.924 1.38,0.924 0.24,0 0.44,-0.08 0.6,-0.24 0.16,-0.16 0.24,-0.36 0.24,-0.6 0,-0.224 -0.08,-0.416 -0.24,-0.576 -0.16,-0.16 -0.36,-0.24 -0.6,-0.24 -0.352,0 -0.632,-0.148 -0.84,-0.444 -0.208,-0.296 -0.312,-0.604 -0.312,-0.924 0,-0.656 0.184,-1.088 0.552,-1.296 0.368,-0.208 1.024,-0.312 1.968,-0.312 0.592,3.408 1.728,5.112 3.408,5.112 0.624,0 1.116,-0.208 1.476,-0.624 0.36,-0.416 0.54,-0.928 0.54,-1.536 z m -1.08,-0.768 c 0,0.32 -0.112,0.588 -0.336,0.804 -0.224,0.216 -0.52,0.324 -0.888,0.324 -1.072,0 -1.864,-1.104 -2.376,-3.312 v 0 h 2.448 c 0.768,0.864 1.152,1.592 1.152,2.184 z m 7.176,-10.488 c 0,-1.216 -0.292,-2.228 -0.876,-3.036 -0.584,-0.808 -1.364,-1.212 -2.34,-1.212 -0.816,0 -1.512,0.344 -2.088,1.032 -0.576,0.688 -0.928,1.8 -1.056,3.336 -0.128,1.456 -0.432,2.184 -0.912,2.184 -0.464,0 -0.8,-0.896 -1.008,-2.688 -0.112,-0.832 -0.472,-1.56 -1.08,-2.184 -0.608,-0.624 -1.336,-0.936 -2.184,-0.936 -0.736,0 -1.384,0.232 -1.944,0.696 -0.256,-0.256 -0.384,-0.504 -0.384,-0.744 0,-0.224 0.06,-0.388 0.18,-0.492 0.12,-0.104 0.248,-0.168 0.384,-0.192 0.136,-0.024 0.26,-0.096 0.372,-0.216 0.112,-0.12 0.16,-0.3 0.144,-0.54 0,-0.128 -0.04,-0.24 -0.12,-0.336 -0.224,-0.288 -0.56,-0.36 -1.008,-0.216 -0.592,0.192 -0.888,0.64 -0.888,1.344 0,0.272 0.088,0.588 0.264,0.948 0.176,0.36 0.392,0.644 0.648,0.852 -0.608,0.688 -0.912,1.512 -0.912,2.472 0,0.992 0.32,1.836 0.96,2.532 0.64,0.696 1.408,1.044 2.304,1.044 0.64,0 1.216,-0.18 1.728,-0.54 0.512,-0.36 0.912,-0.852 1.2,-1.476 0.416,1.344 1.056,2.016 1.92,2.016 1.264,0 2.008,-1.136 2.232,-3.408 0.112,-1.104 0.288,-1.916 0.528,-2.436 0.24,-0.52 0.624,-0.78 1.152,-0.78 0.544,0 0.988,0.3 1.332,0.9 0.344,0.6 0.516,1.292 0.516,2.076 0,0.496 -0.072,0.972 -0.216,1.428 -0.144,0.456 -0.344,0.84 -0.6,1.152 -0.256,0.312 -0.604,0.452 -1.044,0.42 -0.44,-0.032 -0.924,-0.28 -1.452,-0.744 v 0 l -0.264,0.432 c 0.496,0.96 1.104,1.472 1.824,1.536 0.72,0.064 1.348,-0.3 1.884,-1.092 0.536,-0.792 0.804,-1.836 0.804,-3.132 z m -9.072,0.072 c 0,0.56 -0.228,0.992 -0.684,1.296 -0.456,0.304 -1.052,0.456 -1.788,0.456 -0.736,0 -1.336,-0.152 -1.8,-0.456 -0.464,-0.304 -0.696,-0.736 -0.696,-1.296 0,-0.56 0.232,-0.988 0.696,-1.284 0.464,-0.296 1.064,-0.444 1.8,-0.444 0.736,0 1.336,0.152 1.8,0.456 0.448,0.288 0.672,0.712 0.672,1.272 z m 3.072,-11.16 c 0,-0.672 -0.148,-1.344 -0.444,-2.016 -0.296,-0.672 -0.676,-1.224 -1.14,-1.656 v 0 l -0.528,0.432 c 0.32,0.336 0.584,0.76 0.792,1.272 0.208,0.512 0.312,0.968 0.312,1.368 0,1.184 -0.372,2.036 -1.116,2.556 -0.744,0.52 -1.708,0.708 -2.892,0.564 v 0 -5.784 c -1.008,-0.288 -1.892,-0.088 -2.652,0.6 -0.76,0.688 -1.14,1.576 -1.14,2.664 0,1.152 0.424,2.18 1.272,3.084 0.848,0.904 1.888,1.356 3.12,1.356 1.232,0 2.276,-0.416 3.132,-1.248 0.856,-0.832 1.284,-1.896 1.284,-3.192 z m -5.904,-1.608 v 3.984 c -0.592,-0.176 -1.064,-0.468 -1.416,-0.876 -0.352,-0.408 -0.528,-0.868 -0.528,-1.38 0,-0.72 0.212,-1.228 0.636,-1.524 0.424,-0.296 0.86,-0.364 1.308,-0.204 z"
           id="Voltage"
           fill="#524740"
           fill-rule="evenodd"
           stroke="none" />
        <path
           d="m 70.644,136.232 c 1.536,0 2.852,-0.548 3.948,-1.644 1.096,-1.096 1.644,-2.42 1.644,-3.972 0,-1.536 -0.548,-2.852 -1.644,-3.948 -1.096,-1.096 -2.412,-1.644 -3.948,-1.644 -1.536,0 -2.856,0.552 -3.96,1.656 -1.088,1.088 -1.632,2.4 -1.632,3.936 0,1.552 0.548,2.876 1.644,3.972 1.096,1.096 2.412,1.644 3.948,1.644 z m 0,-1.392 c -1.12,0 -2.076,-0.412 -2.868,-1.236 -0.792,-0.824 -1.188,-1.82 -1.188,-2.988 0,-1.152 0.396,-2.144 1.188,-2.976 0.792,-0.832 1.748,-1.248 2.868,-1.248 1.104,0 2.056,0.416 2.856,1.248 0.8,0.832 1.2,1.824 1.2,2.976 0,1.168 -0.4,2.164 -1.2,2.988 -0.8,0.824 -1.752,1.236 -2.856,1.236 z m 14.664,1.392 5.28,-12.216 c 0.4,-0.928 0.74,-1.508 1.02,-1.74 0.28,-0.232 0.892,-0.348 1.836,-0.348 v 0 -0.504 h -5.592 v 0.504 c 0.992,0 1.628,0.14 1.908,0.42 0.28,0.28 0.268,0.748 -0.036,1.404 v 0 l -4.032,9.336 -4.08,-9.336 c -0.304,-0.656 -0.316,-1.124 -0.036,-1.404 0.28,-0.28 0.916,-0.42 1.908,-0.42 v 0 -0.504 h -6.648 v 0.504 c 0.944,0 1.556,0.116 1.836,0.348 0.28,0.232 0.62,0.812 1.02,1.74 v 0 l 5.304,12.216 z"
           id="0V"
           fill="#524740"
           fill-rule="evenodd"
           stroke="none" />
        <g
           id="g40"
           transform="translate(77.165955,221.334)"
           filter="url(#filter_1)">
          <g
             id="g38">
            <g
               id="-"
               fill="#555555">
              <path
                 d="M 1.125,8.415 H 5.571 V 9.774 H 1.125 Z"
                 id="path35" />
            </g>
          </g>
        </g>
        <path
           d="m 115.294,128.844 c 23.503,-65.3468 46.921,-98.02 70.254,-98.02 16.855,0 33.407,17.0495 49.655,51.1486 4.163,8.7368 10.363,24.3604 18.599,46.8714 24.497,67.987 48.413,101.98 71.746,101.98 23.333,0 46.667,-33.993 70,-101.98"
           id="Path-2"
           fill="none"
           fill-rule="evenodd"
           stroke="#23abe3"
           stroke-width="2" />
      </g>
    </g>
  </g>
</svg>
