<?xml version="1.0" encoding="UTF-8"?>
<svg width="900px" height="340px" viewBox="0 0 900 340" version="1.1" xmlns="http://www.w3.org/2000/svg" xmlns:xlink="http://www.w3.org/1999/xlink">
    <!-- Generator: Sketch 60.1 (88133) - https://sketch.com -->
    <title>Alternating_Current</title>
    <desc>Created with Sketch.</desc>
    <g id="Alternating_Current" stroke="none" stroke-width="1" fill="none" fill-rule="evenodd">
        <g id="Illustration_Frame">
            <rect id="Rectangle" stroke="#3D3530" stroke-width="2" fill="#EEEEEE" x="1" y="1" width="898" height="338"></rect>
            <rect id="Rectangle-Copy" stroke="#3D3530" stroke-width="2" fill="#F8FAE4" x="1" y="296" width="898" height="43"></rect>
            <path d="M593.951999,325 L596.015999,319.96 L603.551999,319.96 L605.615999,325 L607.247999,325 L600.527999,308.872 L599.015999,308.872 L592.295999,325 L593.951999,325 Z M602.903999,318.376 L596.663999,318.376 L599.783999,310.72 L602.903999,318.376 Z M611.490666,325 L611.490666,307.144 L609.906666,307.144 L609.906666,325 L611.490666,325 Z M619.909333,325.192 C620.501333,325.192 621.077333,325.036 621.637333,324.724 C622.197333,324.412 622.557333,324.168 622.717333,323.992 C622.877333,323.816 623.005333,323.664 623.101333,323.536 L623.101333,323.536 L622.309333,322.312 C622.309333,322.376 622.225333,322.516 622.057333,322.732 C621.889333,322.948 621.629333,323.168 621.277333,323.392 C620.925333,323.616 620.565333,323.728 620.197333,323.728 C619.605333,323.728 619.081333,323.512 618.625333,323.08 C618.169333,322.648 617.941333,322.064 617.941333,321.328 L617.941333,321.328 L617.941333,314.44 L621.565333,314.44 L621.565333,312.976 L617.941333,312.976 L617.941333,308.992 L616.357333,309.184 L616.357333,312.976 L614.437333,312.976 L614.437333,314.44 L616.357333,314.44 L616.357333,321.688 C616.357333,322.824 616.697333,323.692 617.377333,324.292 C618.057333,324.892 618.901333,325.192 619.909333,325.192 Z M630.751999,325.072 C632.223999,325.088 633.491999,324.672 634.555999,323.824 C635.619999,322.976 636.335999,322.048 636.703999,321.04 L636.703999,321.04 L635.359999,320.56 C635.055999,321.376 634.479999,322.088 633.631999,322.696 C632.783999,323.304 631.823999,323.608 630.751999,323.608 C629.759999,323.624 628.855999,323.324 628.039999,322.708 C627.223999,322.092 626.679999,321.304 626.407999,320.344 L626.407999,320.344 L636.895999,318.448 C636.895999,318.32 636.887999,318.216 636.871999,318.136 C636.695999,316.6 636.023999,315.312 634.855999,314.272 C633.687999,313.232 632.319999,312.704 630.751999,312.688 C629.023999,312.704 627.559999,313.312 626.359999,314.512 C625.159999,315.712 624.559999,317.176 624.559999,318.904 C624.559999,319.528 624.639999,320.104 624.799999,320.632 C625.199999,321.928 625.955999,322.992 627.067999,323.824 C628.179999,324.656 629.407999,325.072 630.751999,325.072 Z M626.167999,319.048 C626.167999,318.968 626.163999,318.868 626.155999,318.748 C626.147999,318.628 626.143999,318.544 626.143999,318.496 C626.207999,317.312 626.667999,316.296 627.523999,315.448 C628.379999,314.6 629.407999,314.168 630.607999,314.152 C631.631999,314.136 632.559999,314.436 633.391999,315.052 C634.223999,315.668 634.791999,316.464 635.095999,317.44 L635.095999,317.44 L626.167999,319.048 Z M641.402666,325 L641.402666,317.968 C641.402666,316.928 641.746666,316.052 642.434666,315.34 C643.122666,314.628 643.970666,314.272 644.978666,314.272 C645.666666,314.272 646.346666,314.52 647.018666,315.016 L647.018666,315.016 L647.570666,313.432 C646.866666,313.016 646.090666,312.808 645.242666,312.808 C643.658666,312.808 642.378666,313.464 641.402666,314.776 L641.402666,314.776 L641.402666,313 L639.818666,313 L639.818666,325 L641.402666,325 Z M651.957333,325 L651.957333,317.968 C651.957333,316.944 652.305333,316.072 653.001333,315.352 C653.697333,314.632 654.541333,314.272 655.533333,314.272 C656.525333,314.272 657.369333,314.632 658.065333,315.352 C658.761333,316.072 659.109333,316.944 659.109333,317.968 L659.109333,317.968 L659.109333,325 L660.717333,325 L660.717333,317.92 C660.717333,316.48 660.245333,315.268 659.301333,314.284 C658.357333,313.3 657.189333,312.808 655.797333,312.808 C654.213333,312.808 652.933333,313.464 651.957333,314.776 L651.957333,314.776 L651.957333,313 L650.373333,313 L650.373333,325 L651.957333,325 Z M669.831999,325.192 C671.719999,325.192 673.279999,324.48 674.511999,323.056 L674.511999,323.056 L674.511999,325 L676.095999,325 L676.095999,313 L674.511999,313 L674.511999,314.944 C673.295999,313.52 671.735999,312.808 669.831999,312.808 C668.119999,312.808 666.659999,313.412 665.451999,314.62 C664.243999,315.828 663.639999,317.288 663.639999,319 C663.639999,320.712 664.243999,322.172 665.451999,323.38 C666.659999,324.588 668.119999,325.192 669.831999,325.192 Z M669.855999,323.68 C668.575999,323.68 667.483999,323.228 666.579999,322.324 C665.675999,321.42 665.223999,320.312 665.223999,319 C665.223999,317.688 665.675999,316.58 666.579999,315.676 C667.483999,314.772 668.575999,314.32 669.855999,314.32 C671.151999,314.32 672.243999,314.772 673.131999,315.676 C674.019999,316.58 674.463999,317.688 674.463999,319 C674.463999,320.312 674.019999,321.42 673.131999,322.324 C672.243999,323.228 671.151999,323.68 669.855999,323.68 Z M684.178666,325.192 C684.770666,325.192 685.346666,325.036 685.906666,324.724 C686.466666,324.412 686.826666,324.168 686.986666,323.992 C687.146666,323.816 687.274666,323.664 687.370666,323.536 L687.370666,323.536 L686.578666,322.312 C686.578666,322.376 686.494666,322.516 686.326666,322.732 C686.158666,322.948 685.898666,323.168 685.546666,323.392 C685.194666,323.616 684.834666,323.728 684.466666,323.728 C683.874666,323.728 683.350666,323.512 682.894666,323.08 C682.438666,322.648 682.210666,322.064 682.210666,321.328 L682.210666,321.328 L682.210666,314.44 L685.834666,314.44 L685.834666,312.976 L682.210666,312.976 L682.210666,308.992 L680.626666,309.184 L680.626666,312.976 L678.706666,312.976 L678.706666,314.44 L680.626666,314.44 L680.626666,321.688 C680.626666,322.824 680.966666,323.692 681.646666,324.292 C682.326666,324.892 683.170666,325.192 684.178666,325.192 Z M691.133333,309.688 C691.405333,309.688 691.629333,309.592 691.805333,309.4 C691.997333,309.208 692.093333,308.984 692.093333,308.728 C692.093333,308.472 692.001333,308.248 691.817333,308.056 C691.633333,307.864 691.405333,307.768 691.133333,307.768 C690.861333,307.768 690.633333,307.864 690.449333,308.056 C690.265333,308.248 690.173333,308.472 690.173333,308.728 C690.173333,308.984 690.265333,309.208 690.449333,309.4 C690.633333,309.592 690.861333,309.688 691.133333,309.688 Z M691.925333,325 L691.925333,313 L690.341333,313 L690.341333,325 L691.925333,325 Z M697.848,325 L697.848,317.968 C697.848,316.944 698.195999,316.072 698.891999,315.352 C699.588,314.632 700.431999,314.272 701.424,314.272 C702.415999,314.272 703.259999,314.632 703.955999,315.352 C704.651999,316.072 705,316.944 705,317.968 L705,317.968 L705,325 L706.608,325 L706.608,317.92 C706.608,316.48 706.136,315.268 705.192,314.284 C704.247999,313.3 703.079999,312.808 701.688,312.808 C700.103999,312.808 698.824,313.464 697.848,314.776 L697.848,314.776 L697.848,313 L696.263999,313 L696.263999,325 L697.848,325 Z M715.962666,330.112 C717.594666,330.112 719.030666,329.524 720.270666,328.348 C721.510666,327.172 722.138666,325.712 722.154666,323.968 L722.154666,323.968 L722.154666,313.024 L720.546666,313.024 L720.546666,314.968 C719.314666,313.544 717.754666,312.832 715.866666,312.832 C714.154666,312.832 712.694666,313.436 711.486666,314.644 C710.278666,315.852 709.674666,317.312 709.674666,319.024 C709.674666,320.736 710.278666,322.196 711.486666,323.404 C712.694666,324.612 714.154666,325.216 715.866666,325.216 C717.770666,325.216 719.330666,324.504 720.546666,323.08 L720.546666,323.08 L720.546666,323.968 L720.570666,323.968 C720.554666,325.216 720.102666,326.308 719.214666,327.244 C718.326666,328.18 717.242666,328.648 715.962666,328.648 C714.874666,328.648 713.906666,328.344 713.058666,327.736 C712.210666,327.128 711.634666,326.416 711.330666,325.6 L711.330666,325.6 L710.034666,326.248 C710.402666,327.24 711.110666,328.132 712.158666,328.924 C713.206666,329.716 714.474666,330.112 715.962666,330.112 Z M715.890666,323.728 C714.610666,323.728 713.522666,323.276 712.626666,322.372 C711.730666,321.468 711.282666,320.36 711.282666,319.048 C711.282666,317.736 711.730666,316.628 712.626666,315.724 C713.522666,314.82 714.610666,314.368 715.890666,314.368 C717.186666,314.368 718.278666,314.82 719.166666,315.724 C720.054666,316.628 720.498666,317.736 720.498666,319.048 C720.498666,320.36 720.054666,321.468 719.166666,322.372 C718.278666,323.276 717.186666,323.728 715.890666,323.728 Z M740.648,325.192 C742.216,325.192 743.58,324.836 744.74,324.124 C745.9,323.412 746.8,322.432 747.44,321.184 L747.44,321.184 L745.952,320.296 C745.456,321.336 744.748,322.164 743.828,322.78 C742.908,323.396 741.848,323.704 740.648,323.704 C738.824,323.704 737.364,323.064 736.268,321.784 C735.172,320.504 734.624,318.896 734.624,316.96 C734.624,315.008 735.172,313.396 736.268,312.124 C737.364,310.852 738.824,310.216 740.648,310.216 C741.832,310.216 742.884,310.52 743.804,311.128 C744.724,311.736 745.44,312.56 745.952,313.6 L745.952,313.6 L747.44,312.736 C746.8,311.488 745.9,310.504 744.74,309.784 C743.58,309.064 742.216,308.704 740.648,308.704 C738.28,308.704 736.392,309.492 734.984,311.068 C733.576,312.644 732.872,314.608 732.872,316.96 C732.872,319.296 733.576,321.252 734.984,322.828 C736.392,324.404 738.28,325.192 740.648,325.192 Z M755.714666,325.192 C757.298666,325.192 758.578666,324.536 759.554666,323.224 L759.554666,323.224 L759.554666,325 L761.138666,325 L761.138666,313 L759.554666,313 L759.554666,320.032 C759.554666,321.056 759.210666,321.924 758.522666,322.636 C757.834666,323.348 756.986666,323.704 755.978666,323.704 C754.986666,323.704 754.146666,323.348 753.458666,322.636 C752.770666,321.924 752.426666,321.056 752.426666,320.032 L752.426666,320.032 L752.426666,313 L750.794666,313 L750.794666,320.08 C750.794666,321.52 751.266666,322.732 752.210666,323.716 C753.154666,324.7 754.322666,325.192 755.714666,325.192 Z M766.677333,325 L766.677333,317.968 C766.677333,316.928 767.021333,316.052 767.709333,315.34 C768.397333,314.628 769.245333,314.272 770.253333,314.272 C770.941333,314.272 771.621333,314.52 772.293333,315.016 L772.293333,315.016 L772.845333,313.432 C772.141333,313.016 771.365333,312.808 770.517333,312.808 C768.933333,312.808 767.653333,313.464 766.677333,314.776 L766.677333,314.776 L766.677333,313 L765.093333,313 L765.093333,325 L766.677333,325 Z M777.232,325 L777.232,317.968 C777.232,316.928 777.576,316.052 778.264,315.34 C778.952,314.628 779.8,314.272 780.808,314.272 C781.496,314.272 782.176,314.52 782.848,315.016 L782.848,315.016 L783.4,313.432 C782.696,313.016 781.92,312.808 781.072,312.808 C779.488,312.808 778.208,313.464 777.232,314.776 L777.232,314.776 L777.232,313 L775.648,313 L775.648,325 L777.232,325 Z M790.714666,325.072 C792.186666,325.088 793.454666,324.672 794.518666,323.824 C795.582666,322.976 796.298666,322.048 796.666666,321.04 L796.666666,321.04 L795.322666,320.56 C795.018666,321.376 794.442666,322.088 793.594666,322.696 C792.746666,323.304 791.786666,323.608 790.714666,323.608 C789.722666,323.624 788.818666,323.324 788.002666,322.708 C787.186666,322.092 786.642666,321.304 786.370666,320.344 L786.370666,320.344 L796.858666,318.448 C796.858666,318.32 796.850666,318.216 796.834666,318.136 C796.658666,316.6 795.986666,315.312 794.818666,314.272 C793.650666,313.232 792.282666,312.704 790.714666,312.688 C788.986666,312.704 787.522666,313.312 786.322666,314.512 C785.122666,315.712 784.522666,317.176 784.522666,318.904 C784.522666,319.528 784.602666,320.104 784.762666,320.632 C785.162666,321.928 785.918666,322.992 787.030666,323.824 C788.142666,324.656 789.370666,325.072 790.714666,325.072 Z M786.130666,319.048 C786.130666,318.968 786.126666,318.868 786.118666,318.748 C786.110666,318.628 786.106666,318.544 786.106666,318.496 C786.170666,317.312 786.630666,316.296 787.486666,315.448 C788.342666,314.6 789.370666,314.168 790.570666,314.152 C791.594666,314.136 792.522666,314.436 793.354666,315.052 C794.186666,315.668 794.754666,316.464 795.058666,317.44 L795.058666,317.44 L786.130666,319.048 Z M801.365333,325 L801.365333,317.968 C801.365333,316.944 801.713333,316.072 802.409333,315.352 C803.105333,314.632 803.949333,314.272 804.941333,314.272 C805.933333,314.272 806.777333,314.632 807.473333,315.352 C808.169333,316.072 808.517333,316.944 808.517333,317.968 L808.517333,317.968 L808.517333,325 L810.125333,325 L810.125333,317.92 C810.125333,316.48 809.653333,315.268 808.709333,314.284 C807.765333,313.3 806.597333,312.808 805.205333,312.808 C803.621333,312.808 802.341333,313.464 801.365333,314.776 L801.365333,314.776 L801.365333,313 L799.781333,313 L799.781333,325 L801.365333,325 Z M818.016,325.192 C818.608,325.192 819.184,325.036 819.744,324.724 C820.304,324.412 820.664,324.168 820.824,323.992 C820.984,323.816 821.112,323.664 821.208,323.536 L821.208,323.536 L820.416,322.312 C820.416,322.376 820.332,322.516 820.164,322.732 C819.996,322.948 819.736,323.168 819.384,323.392 C819.032,323.616 818.672,323.728 818.304,323.728 C817.712,323.728 817.188,323.512 816.732,323.08 C816.276,322.648 816.048,322.064 816.048,321.328 L816.048,321.328 L816.048,314.44 L819.672,314.44 L819.672,312.976 L816.048,312.976 L816.048,308.992 L814.464,309.184 L814.464,312.976 L812.544,312.976 L812.544,314.44 L814.464,314.44 L814.464,321.688 C814.464,322.824 814.804,323.692 815.484,324.292 C816.164,324.892 817.008,325.192 818.016,325.192 Z M836.773333,328.168 L837.637333,327.232 L837.109333,326.872 C836.757333,326.616 836.325333,326.204 835.813333,325.636 C835.301333,325.068 834.789333,324.404 834.277333,323.644 C833.765333,322.884 833.333333,321.908 832.981333,320.716 C832.629333,319.524 832.453333,318.272 832.453333,316.96 C832.453333,315.648 832.637333,314.388 833.005333,313.18 C833.373333,311.972 833.785333,311 834.241333,310.264 C834.697333,309.528 835.221333,308.844 835.813333,308.212 C836.405333,307.58 836.817333,307.176 837.049333,307 C837.281333,306.824 837.469333,306.688 837.613333,306.592 L837.613333,306.592 L836.773333,305.728 L836.173333,306.112 C835.789333,306.368 835.317333,306.796 834.757333,307.396 C834.197333,307.996 833.637333,308.708 833.077333,309.532 C832.517333,310.356 832.041333,311.428 831.649333,312.748 C831.257333,314.068 831.061333,315.472 831.061333,316.96 C831.061333,318.048 831.169333,319.096 831.385333,320.104 C831.601333,321.112 831.869333,321.976 832.189333,322.696 C832.509333,323.416 832.885333,324.096 833.317333,324.736 C833.749333,325.376 834.145333,325.888 834.505333,326.272 C834.865333,326.656 835.245333,327.012 835.645333,327.34 C836.045333,327.668 836.313333,327.876 836.449333,327.964 C836.585333,328.052 836.693333,328.12 836.773333,328.168 L836.773333,328.168 Z M840.752,325 L842.816,319.96 L850.352,319.96 L852.416,325 L854.048,325 L847.328,308.872 L845.816,308.872 L839.096,325 L840.752,325 Z M849.704,318.376 L843.464,318.376 L846.584,310.72 L849.704,318.376 Z M862.778667,325.192 C864.346667,325.192 865.710667,324.836 866.870667,324.124 C868.030667,323.412 868.930667,322.432 869.570667,321.184 L869.570667,321.184 L868.082667,320.296 C867.586667,321.336 866.878667,322.164 865.958667,322.78 C865.038667,323.396 863.978667,323.704 862.778667,323.704 C860.954667,323.704 859.494667,323.064 858.398667,321.784 C857.302667,320.504 856.754667,318.896 856.754667,316.96 C856.754667,315.008 857.302667,313.396 858.398667,312.124 C859.494667,310.852 860.954667,310.216 862.778667,310.216 C863.962667,310.216 865.014667,310.52 865.934667,311.128 C866.854667,311.736 867.570667,312.56 868.082667,313.6 L868.082667,313.6 L869.570667,312.736 C868.930667,311.488 868.030667,310.504 866.870667,309.784 C865.710667,309.064 864.346667,308.704 862.778667,308.704 C860.410667,308.704 858.522667,309.492 857.114667,311.068 C855.706667,312.644 855.002667,314.608 855.002667,316.96 C855.002667,319.296 855.706667,321.252 857.114667,322.828 C858.522667,324.404 860.410667,325.192 862.778667,325.192 Z M872.493333,328.168 L872.805333,327.976 C873.013333,327.848 873.285333,327.636 873.621333,327.34 C873.957333,327.044 874.329333,326.692 874.737333,326.284 C875.145333,325.876 875.553333,325.356 875.961333,324.724 C876.369333,324.092 876.741333,323.412 877.077333,322.684 C877.413333,321.956 877.685333,321.092 877.893333,320.092 C878.101333,319.092 878.205333,318.048 878.205333,316.96 C878.205333,315.872 878.097333,314.824 877.881333,313.816 C877.665333,312.808 877.397333,311.948 877.077333,311.236 C876.757333,310.524 876.381333,309.84 875.949333,309.184 C875.517333,308.528 875.121333,308.008 874.761333,307.624 C874.401333,307.24 874.021333,306.884 873.621333,306.556 C873.221333,306.228 872.953333,306.02 872.817333,305.932 C872.681333,305.844 872.573333,305.776 872.493333,305.728 L872.493333,305.728 L871.653333,306.592 L872.181333,306.976 C872.533333,307.232 872.965333,307.652 873.477333,308.236 C873.989333,308.82 874.497333,309.496 875.001333,310.264 C875.505333,311.032 875.933333,312.012 876.285333,313.204 C876.637333,314.396 876.813333,315.648 876.813333,316.96 C876.813333,318.272 876.625333,319.528 876.249333,320.728 C875.873333,321.928 875.457333,322.892 875.001333,323.62 C874.545333,324.348 874.021333,325.024 873.429333,325.648 C872.837333,326.272 872.425333,326.672 872.193333,326.848 C871.961333,327.024 871.773333,327.152 871.629333,327.232 L871.629333,327.232 L872.493333,328.168 Z" id="AlternatingCurrent(AC)" fill="#23ABE3" fill-rule="nonzero"></path>
        </g>
        <g transform="translate(245.000000, 20.000000)">
            <line x1="90" y1="31" x2="90" y2="231" id="Line-7-Copy-2" stroke="#524740" stroke-width="2" stroke-linecap="square"></line>
            <line x1="387" y1="130" x2="74" y2="130" id="Line-7-Copy-6" stroke="#524740" stroke-width="2" stroke-linecap="square"></line>
            <g id="Period" transform="translate(91.000000, 0.000000)" fill-rule="nonzero">
                <path id="Line-7-Copy-7" d="M224,3 L224,9 L280,9 L280,11 L224,11 L224,17 L222,17 L222,3 L224,3 Z" fill="#B09679"></path>
                <path id="Line-7-Copy-8" d="M0.999,9 L54,9 L54,11 L1,11 L1,17 L-1,17 L-0.999,11 L-1,11 L-1,3 L1,3 L0.999,9 Z" fill="#B09679"></path>
                <path d="M70.608,17 L70.608,16.496 C69.616,16.496 68.988,16.328 68.724,15.992 C68.46,15.656 68.328,14.888 68.328,13.688 L68.328,13.688 L68.328,10.688 L70.464,10.688 C72.08,10.688 73.344,10.308 74.256,9.548 C75.168,8.788 75.624,7.824 75.624,6.656 C75.624,5.488 75.168,4.52 74.256,3.752 C73.344,2.984 72.08,2.6 70.464,2.6 L70.464,2.6 L64.128,2.6 L64.128,3.104 C65.12,3.104 65.748,3.268 66.012,3.596 C66.276,3.924 66.408,4.688 66.408,5.888 L66.408,5.888 L66.408,13.688 C66.408,14.888 66.276,15.656 66.012,15.992 C65.748,16.328 65.12,16.496 64.128,16.496 L64.128,16.496 L64.128,17 L70.608,17 Z M70.44,9.824 L68.328,9.824 L68.328,3.488 L70.44,3.488 C71.432,3.488 72.188,3.784 72.708,4.376 C73.228,4.968 73.488,5.728 73.488,6.656 C73.488,7.584 73.228,8.344 72.708,8.936 C72.188,9.528 71.432,9.824 70.44,9.824 L70.44,9.824 Z M82.008,17.408 C82.68,17.408 83.352,17.26 84.024,16.964 C84.696,16.668 85.248,16.288 85.68,15.824 L85.68,15.824 L85.248,15.296 C84.912,15.616 84.488,15.88 83.976,16.088 C83.464,16.296 83.008,16.4 82.608,16.4 C81.424,16.4 80.572,16.028 80.052,15.284 C79.532,14.54 79.344,13.576 79.488,12.392 L79.488,12.392 L85.272,12.392 C85.56,11.384 85.36,10.5 84.672,9.74 C83.984,8.98 83.096,8.6 82.008,8.6 C80.856,8.6 79.828,9.024 78.924,9.872 C78.02,10.72 77.568,11.76 77.568,12.992 C77.568,14.224 77.984,15.268 78.816,16.124 C79.648,16.98 80.712,17.408 82.008,17.408 Z M83.616,11.504 L79.632,11.504 C79.808,10.912 80.1,10.44 80.508,10.088 C80.916,9.736 81.376,9.56 81.888,9.56 C82.608,9.56 83.116,9.772 83.412,10.196 C83.708,10.62 83.776,11.056 83.616,11.504 L83.616,11.504 Z M92.952,17 L92.952,16.496 C92.152,16.496 91.636,16.328 91.404,15.992 C91.172,15.656 91.056,14.888 91.056,13.688 L91.056,13.688 L91.056,12.368 C91.056,11.52 91.272,10.84 91.704,10.328 C92.136,9.816 92.536,9.56 92.904,9.56 C93.416,9.56 93.672,9.824 93.672,10.352 C93.672,10.576 93.756,10.776 93.924,10.952 C94.092,11.128 94.288,11.216 94.512,11.216 C95.152,11.216 95.472,10.84 95.472,10.088 C95.472,9.736 95.308,9.4 94.98,9.08 C94.652,8.76 94.184,8.6 93.576,8.6 C93.096,8.6 92.616,8.768 92.136,9.104 C91.656,9.44 91.296,9.848 91.056,10.328 C90.928,9.48 90.792,8.904 90.648,8.6 L90.648,8.6 L87.456,9.2 L87.456,9.704 C88.256,9.704 88.772,9.872 89.004,10.208 C89.236,10.544 89.352,11.304 89.352,12.488 L89.352,12.488 L89.352,13.688 C89.352,14.888 89.236,15.656 89.004,15.992 C88.772,16.328 88.256,16.496 87.456,16.496 L87.456,16.496 L87.456,17 L92.952,17 Z M99.624,6.248 C99.912,6.248 100.16,6.144 100.368,5.936 C100.576,5.728 100.68,5.472 100.68,5.168 C100.68,4.88 100.576,4.632 100.368,4.424 C100.16,4.216 99.912,4.112 99.624,4.112 C99.336,4.112 99.088,4.216 98.88,4.424 C98.672,4.632 98.568,4.88 98.568,5.168 C98.568,5.472 98.672,5.728 98.88,5.936 C99.088,6.144 99.336,6.248 99.624,6.248 Z M102.384,17 L102.384,16.496 C101.584,16.496 101.068,16.328 100.836,15.992 C100.604,15.656 100.488,14.888 100.488,13.688 L100.488,13.688 L100.488,8.6 L96.888,9.2 L96.888,9.704 C97.688,9.704 98.204,9.872 98.436,10.208 C98.668,10.544 98.784,11.304 98.784,12.488 L98.784,12.488 L98.784,13.688 C98.784,14.888 98.668,15.656 98.436,15.992 C98.204,16.328 97.688,16.496 96.888,16.496 L96.888,16.496 L96.888,17 L102.384,17 Z M108.84,17.408 C110.168,17.408 111.308,16.976 112.26,16.112 C113.212,15.248 113.688,14.208 113.688,12.992 C113.688,11.776 113.208,10.744 112.248,9.896 C111.304,9.032 110.168,8.6 108.84,8.6 C107.512,8.6 106.372,9.028 105.42,9.884 C104.468,10.74 103.992,11.776 103.992,12.992 C103.992,14.208 104.468,15.248 105.42,16.112 C106.372,16.976 107.512,17.408 108.84,17.408 Z M108.84,16.472 C107.896,16.472 107.176,16.144 106.68,15.488 C106.184,14.832 105.936,14 105.936,12.992 C105.936,11.984 106.184,11.152 106.68,10.496 C107.176,9.84 107.896,9.512 108.84,9.512 C109.784,9.512 110.504,9.836 111,10.484 C111.496,11.132 111.744,11.968 111.744,12.992 C111.744,14.016 111.496,14.856 111,15.512 C110.504,16.152 109.784,16.472 108.84,16.472 Z M123.504,17.408 L126.696,16.808 L126.696,16.304 C125.896,16.304 125.38,16.136 125.148,15.8 C124.916,15.464 124.8,14.696 124.8,13.496 L124.8,13.496 L124.8,2.192 L121.2,2.792 L121.2,3.296 C122,3.296 122.516,3.464 122.748,3.8 C122.98,4.136 123.096,4.904 123.096,6.104 L123.096,6.104 L123.096,10.016 C122.328,9.072 121.352,8.6 120.168,8.6 C119.032,8.6 118.052,9.028 117.228,9.884 C116.404,10.74 115.992,11.776 115.992,12.992 C115.992,14.208 116.404,15.248 117.228,16.112 C118.052,16.976 119.032,17.408 120.168,17.408 C121.352,17.408 122.336,16.92 123.12,15.944 C123.264,16.68 123.392,17.168 123.504,17.408 L123.504,17.408 Z M120.672,16.448 C119.776,16.448 119.096,16.128 118.632,15.488 C118.168,14.848 117.936,14.016 117.936,12.992 C117.936,11.984 118.168,11.16 118.632,10.52 C119.096,9.88 119.776,9.56 120.672,9.56 C121.2,9.56 121.68,9.732 122.112,10.076 C122.544,10.42 122.872,10.88 123.096,11.456 L123.096,11.456 L123.096,14.552 C122.872,15.128 122.544,15.588 122.112,15.932 C121.68,16.276 121.2,16.448 120.672,16.448 Z M140.136,19.664 L140.664,19.16 C140.152,18.584 139.728,18.084 139.392,17.66 C139.056,17.236 138.62,16.604 138.084,15.764 C137.548,14.924 137.136,14.008 136.848,13.016 C136.56,12.024 136.416,10.992 136.416,9.92 C136.416,8.848 136.56,7.816 136.848,6.824 C137.136,5.832 137.548,4.916 138.084,4.076 C138.62,3.236 139.056,2.604 139.392,2.18 C139.728,1.756 140.152,1.256 140.664,0.68 L140.664,0.68 L140.112,0.176 C136.528,3.136 134.736,6.384 134.736,9.92 C134.736,13.472 136.536,16.72 140.136,19.664 L140.136,19.664 Z M148.848,17 L148.848,16.496 C147.84,16.496 147.204,16.332 146.94,16.004 C146.676,15.676 146.544,14.904 146.544,13.688 L146.544,13.688 L146.544,9.896 C146.544,8.68 146.676,7.908 146.94,7.58 C147.204,7.252 147.84,7.088 148.848,7.088 L148.848,7.088 L148.848,6.608 L142.536,6.608 L142.536,7.088 C143.528,7.088 144.16,7.256 144.432,7.592 C144.704,7.928 144.84,8.696 144.84,9.896 L144.84,9.896 L144.84,13.688 C144.84,14.888 144.704,15.656 144.432,15.992 C144.16,16.328 143.528,16.496 142.536,16.496 L142.536,16.496 L142.536,17 L148.848,17 Z M164.712,17.408 C166.376,17.408 167.864,16.728 169.176,15.368 C169.592,15.656 169.864,16.112 169.992,16.736 L169.992,16.736 L170.472,16.736 L170.472,11.456 L169.992,11.456 C169.656,13.008 169.036,14.228 168.132,15.116 C167.228,16.004 166.12,16.448 164.808,16.448 C163.896,16.448 163.088,16.244 162.384,15.836 C161.68,15.428 161.132,14.892 160.74,14.228 C160.348,13.564 160.056,12.856 159.864,12.104 C159.672,11.352 159.576,10.584 159.576,9.8 C159.576,9.016 159.672,8.248 159.864,7.496 C160.056,6.744 160.348,6.032 160.74,5.36 C161.132,4.688 161.68,4.148 162.384,3.74 C163.088,3.332 163.896,3.128 164.808,3.128 C166.12,3.128 167.228,3.568 168.132,4.448 C169.036,5.328 169.656,6.56 169.992,8.144 L169.992,8.144 L170.472,8.144 L170.472,2.864 L169.992,2.864 C169.88,3.44 169.608,3.896 169.176,4.232 C167.896,2.872 166.408,2.192 164.712,2.192 C162.68,2.192 160.944,2.936 159.504,4.424 C158.064,5.912 157.344,7.704 157.344,9.8 C157.344,11.896 158.064,13.688 159.504,15.176 C160.944,16.664 162.68,17.408 164.712,17.408 Z M174.216,23.48 C174.568,23.48 174.864,23.184 175.104,22.592 L175.104,22.592 L179.784,10.904 C180.168,9.96 180.736,9.488 181.488,9.488 L181.488,9.488 L181.488,9.008 L178.128,9.008 L178.128,9.488 C178.624,9.488 178.92,9.588 179.016,9.788 C179.112,9.988 179.048,10.36 178.824,10.904 L178.824,10.904 L177.288,14.744 L175.536,10.904 C175.28,10.312 175.208,9.928 175.32,9.752 C175.432,9.576 175.76,9.488 176.304,9.488 L176.304,9.488 L176.304,9.008 L172.056,9.008 L172.056,9.488 C172.424,9.488 172.72,9.588 172.944,9.788 C173.168,9.988 173.408,10.36 173.664,10.904 L173.664,10.904 L176.424,16.88 L175.224,19.88 C175.016,20.408 174.756,20.844 174.444,21.188 C174.132,21.532 173.88,21.804 173.688,22.004 C173.496,22.204 173.4,22.432 173.4,22.688 C173.4,22.96 173.484,23.16 173.652,23.288 C173.82,23.416 174.008,23.48 174.216,23.48 Z M186.6,17.408 C188.008,17.408 189.2,16.88 190.176,15.824 L190.176,15.824 L189.768,15.296 C188.984,16.032 188.128,16.4 187.2,16.4 C186.24,16.4 185.516,16.116 185.028,15.548 C184.54,14.98 184.296,14.2 184.296,13.208 C184.296,12.12 184.52,11.208 184.968,10.472 C185.416,9.736 185.96,9.368 186.6,9.368 C187.176,9.368 187.464,9.712 187.464,10.4 C187.464,10.672 187.556,10.9 187.74,11.084 C187.924,11.268 188.144,11.36 188.4,11.36 C188.768,11.36 189.036,11.252 189.204,11.036 C189.372,10.82 189.456,10.584 189.456,10.328 C189.456,9.848 189.216,9.44 188.736,9.104 C188.256,8.768 187.544,8.6 186.6,8.6 C185.56,8.6 184.592,9.036 183.696,9.908 C182.8,10.78 182.352,11.88 182.352,13.208 C182.352,14.44 182.732,15.448 183.492,16.232 C184.252,17.016 185.288,17.408 186.6,17.408 Z M196.584,17 L196.584,16.496 C195.784,16.496 195.268,16.328 195.036,15.992 C194.804,15.656 194.688,14.888 194.688,13.688 L194.688,13.688 L194.688,2.192 L191.088,2.792 L191.088,3.296 C191.888,3.296 192.404,3.464 192.636,3.8 C192.868,4.136 192.984,4.904 192.984,6.104 L192.984,6.104 L192.984,13.688 C192.984,14.888 192.868,15.656 192.636,15.992 C192.404,16.328 191.888,16.496 191.088,16.496 L191.088,16.496 L191.088,17 L196.584,17 Z M202.656,17.408 C203.328,17.408 204,17.26 204.672,16.964 C205.344,16.668 205.896,16.288 206.328,15.824 L206.328,15.824 L205.896,15.296 C205.56,15.616 205.136,15.88 204.624,16.088 C204.112,16.296 203.656,16.4 203.256,16.4 C202.072,16.4 201.22,16.028 200.7,15.284 C200.18,14.54 199.992,13.576 200.136,12.392 L200.136,12.392 L205.92,12.392 C206.208,11.384 206.008,10.5 205.32,9.74 C204.632,8.98 203.744,8.6 202.656,8.6 C201.504,8.6 200.476,9.024 199.572,9.872 C198.668,10.72 198.216,11.76 198.216,12.992 C198.216,14.224 198.632,15.268 199.464,16.124 C200.296,16.98 201.36,17.408 202.656,17.408 Z M204.264,11.504 L200.28,11.504 C200.456,10.912 200.748,10.44 201.156,10.088 C201.564,9.736 202.024,9.56 202.536,9.56 C203.256,9.56 203.764,9.772 204.06,10.196 C204.356,10.62 204.424,11.056 204.264,11.504 L204.264,11.504 Z M208.416,19.664 C212,16.736 213.792,13.488 213.792,9.92 C213.792,6.368 212.008,3.12 208.44,0.176 L208.44,0.176 L207.864,0.68 C208.392,1.272 208.82,1.776 209.148,2.192 C209.476,2.608 209.912,3.236 210.456,4.076 C211,4.916 211.416,5.832 211.704,6.824 C211.992,7.816 212.136,8.848 212.136,9.92 C212.136,10.992 211.992,12.024 211.704,13.016 C211.416,14.008 211,14.924 210.456,15.764 C209.912,16.604 209.476,17.232 209.148,17.648 C208.82,18.064 208.392,18.568 207.864,19.16 L207.864,19.16 L208.416,19.664 Z" id="Period(1Cycle)" fill="#524740"></path>
            </g>
            <g id="Amplitude" transform="translate(259.000000, 31.000000)" fill-rule="nonzero">
                <path id="Line-7-Copy-11" d="M56.5,-0.5 L56.5,1.5 L50.5,1.5 L50.5,31.5 L48.5,31.5 L48.5,1.499 L42.5,1.5 L42.5,-0.5 L50.5,-0.5 L50.5,-0.499 L56.5,-0.5 Z" fill="#B09679"></path>
                <path id="Line-7-Copy-12" d="M42.5,99.5 L42.5,97.5 L48.5,97.5 L48.5,67.5 L50.5,67.5 L50.5,97.5 L56.5,97.5 L56.5,99.5 L42.5,99.5 Z" fill="#B09679"></path>
                <path d="M5.636,56 L5.636,55.496 C4.644,55.496 4.008,55.356 3.728,55.076 C3.448,54.796 3.46,54.328 3.764,53.672 L3.764,53.672 L4.916,51.008 L10.724,51.008 L11.876,53.672 C12.164,54.328 12.172,54.796 11.9,55.076 C11.628,55.356 10.996,55.496 10.004,55.496 L10.004,55.496 L10.004,56 L16.652,56 L16.652,55.496 C16.14,55.496 15.748,55.476 15.476,55.436 C15.204,55.396 14.96,55.268 14.744,55.052 C14.528,54.836 14.376,54.64 14.288,54.464 C14.2,54.288 14.036,53.936 13.796,53.408 L13.796,53.408 L8.492,41.192 L8.18,41.192 L2.9,53.408 C2.66,53.936 2.496,54.288 2.408,54.464 C2.32,54.64 2.168,54.836 1.952,55.052 C1.736,55.268 1.488,55.396 1.208,55.436 C0.928,55.476 0.532,55.496 0.02,55.496 L0.02,55.496 L0.02,56 L5.636,56 Z M10.316,50.12 L5.3,50.12 L7.796,44.336 L10.316,50.12 Z M21.74,56 L21.74,55.496 C21.084,55.496 20.672,55.34 20.504,55.028 C20.336,54.716 20.252,53.936 20.252,52.688 L20.252,52.688 L20.252,51.128 C20.252,50.456 20.54,49.888 21.116,49.424 C21.692,48.96 22.228,48.728 22.724,48.728 C23.876,48.728 24.452,49.584 24.452,51.296 L24.452,51.296 L24.452,52.688 C24.452,53.952 24.368,54.736 24.2,55.04 C24.032,55.344 23.612,55.496 22.94,55.496 L22.94,55.496 L22.94,56 L27.644,56 L27.644,55.496 C26.972,55.496 26.552,55.344 26.384,55.04 C26.216,54.736 26.132,53.952 26.132,52.688 L26.132,52.688 L26.132,51.128 C26.132,50.456 26.424,49.888 27.008,49.424 C27.592,48.96 28.132,48.728 28.628,48.728 C29.764,48.728 30.332,49.584 30.332,51.296 L30.332,51.296 L30.332,52.688 C30.332,53.952 30.252,54.736 30.092,55.04 C29.932,55.344 29.516,55.496 28.844,55.496 L28.844,55.496 L28.844,56 L33.932,56 L33.932,55.496 C33.132,55.496 32.616,55.328 32.384,54.992 C32.152,54.656 32.036,53.888 32.036,52.688 L32.036,52.688 L32.036,51.176 C32.036,48.792 31.116,47.6 29.276,47.6 C28.62,47.6 27.976,47.788 27.344,48.164 C26.712,48.54 26.236,48.952 25.916,49.4 C25.548,48.2 24.7,47.6 23.372,47.6 C22.204,47.6 21.164,48.176 20.252,49.328 C20.124,48.48 19.988,47.904 19.844,47.6 L19.844,47.6 L16.652,48.2 L16.652,48.704 C17.452,48.704 17.968,48.872 18.2,49.208 C18.432,49.544 18.548,50.304 18.548,51.488 L18.548,51.488 L18.548,52.688 C18.548,53.888 18.432,54.656 18.2,54.992 C17.968,55.328 17.452,55.496 16.652,55.496 L16.652,55.496 L16.652,56 L21.74,56 Z M40.364,62 L40.364,61.496 C39.564,61.496 39.048,61.328 38.816,60.992 C38.584,60.656 38.468,59.896 38.468,58.712 L38.468,58.712 L38.468,54.968 C39.252,55.928 40.236,56.408 41.42,56.408 C42.556,56.408 43.532,55.976 44.348,55.112 C45.164,54.248 45.572,53.208 45.572,51.992 C45.572,50.776 45.164,49.74 44.348,48.884 C43.532,48.028 42.556,47.6 41.42,47.6 C40.252,47.6 39.26,48.088 38.444,49.064 C38.3,48.264 38.18,47.776 38.084,47.6 L38.084,47.6 L34.868,48.2 L34.868,48.704 C35.668,48.704 36.184,48.868 36.416,49.196 C36.648,49.524 36.764,50.288 36.764,51.488 L36.764,51.488 L36.764,58.712 C36.764,59.912 36.648,60.676 36.416,61.004 C36.184,61.332 35.668,61.496 34.868,61.496 L34.868,61.496 L34.868,62 L40.364,62 Z M40.916,55.448 C40.372,55.448 39.888,55.276 39.464,54.932 C39.04,54.588 38.708,54.12 38.468,53.528 L38.468,53.528 L38.468,50.432 C38.708,49.856 39.04,49.4 39.464,49.064 C39.888,48.728 40.372,48.56 40.916,48.56 C41.796,48.56 42.468,48.88 42.932,49.52 C43.396,50.16 43.628,50.984 43.628,51.992 C43.628,53 43.396,53.832 42.932,54.488 C42.468,55.128 41.796,55.448 40.916,55.448 Z M52.676,56 L52.676,55.496 C51.876,55.496 51.36,55.328 51.128,54.992 C50.896,54.656 50.78,53.888 50.78,52.688 L50.78,52.688 L50.78,41.192 L47.18,41.792 L47.18,42.296 C47.98,42.296 48.496,42.464 48.728,42.8 C48.96,43.136 49.076,43.904 49.076,45.104 L49.076,45.104 L49.076,52.688 C49.076,53.888 48.96,54.656 48.728,54.992 C48.496,55.328 47.98,55.496 47.18,55.496 L47.18,55.496 L47.18,56 L52.676,56 Z M56.804,45.248 C57.092,45.248 57.34,45.144 57.548,44.936 C57.756,44.728 57.86,44.472 57.86,44.168 C57.86,43.88 57.756,43.632 57.548,43.424 C57.34,43.216 57.092,43.112 56.804,43.112 C56.516,43.112 56.268,43.216 56.06,43.424 C55.852,43.632 55.748,43.88 55.748,44.168 C55.748,44.472 55.852,44.728 56.06,44.936 C56.268,45.144 56.516,45.248 56.804,45.248 Z M59.564,56 L59.564,55.496 C58.764,55.496 58.248,55.328 58.016,54.992 C57.784,54.656 57.668,53.888 57.668,52.688 L57.668,52.688 L57.668,47.6 L54.068,48.2 L54.068,48.704 C54.868,48.704 55.384,48.872 55.616,49.208 C55.848,49.544 55.964,50.304 55.964,51.488 L55.964,51.488 L55.964,52.688 C55.964,53.888 55.848,54.656 55.616,54.992 C55.384,55.328 54.868,55.496 54.068,55.496 L54.068,55.496 L54.068,56 L59.564,56 Z M64.172,56.336 C64.572,56.336 65.008,56.208 65.48,55.952 C65.952,55.696 66.356,55.368 66.692,54.968 L66.692,54.968 L66.284,54.56 C65.708,55.104 65.188,55.376 64.724,55.376 C64.004,55.376 63.644,54.8 63.644,53.648 L63.644,53.648 L63.644,48.848 L65.732,48.848 L65.732,48.008 L63.644,48.008 L63.644,45.368 L62.828,45.368 C62.732,46.2 62.524,46.856 62.204,47.336 C61.884,47.816 61.38,48.128 60.692,48.272 L60.692,48.272 L60.692,48.848 L61.94,48.848 L61.94,53.648 C61.94,54.544 62.14,55.216 62.54,55.664 C62.94,56.112 63.484,56.336 64.172,56.336 Z M75.956,56.408 L79.172,55.808 L79.172,55.304 C78.356,55.304 77.832,55.136 77.6,54.8 C77.368,54.464 77.252,53.696 77.252,52.496 L77.252,52.496 L77.252,48.008 L73.652,48.008 L73.652,48.488 C74.468,48.488 74.992,48.656 75.224,48.992 C75.456,49.328 75.572,50.096 75.572,51.296 L75.572,51.296 L75.572,52.88 C75.572,53.552 75.276,54.116 74.684,54.572 C74.092,55.028 73.524,55.256 72.98,55.256 C71.764,55.256 71.156,54.4 71.156,52.688 L71.156,52.688 L71.156,48.008 L67.556,48.008 L67.556,48.488 C68.356,48.488 68.872,48.656 69.104,48.992 C69.336,49.328 69.452,50.096 69.452,51.296 L69.452,51.296 L69.452,52.808 C69.452,55.208 70.444,56.408 72.428,56.408 C73.532,56.408 74.58,55.896 75.572,54.872 C75.7,55.64 75.828,56.152 75.956,56.408 L75.956,56.408 Z M88.292,56.408 L91.484,55.808 L91.484,55.304 C90.684,55.304 90.168,55.136 89.936,54.8 C89.704,54.464 89.588,53.696 89.588,52.496 L89.588,52.496 L89.588,41.192 L85.988,41.792 L85.988,42.296 C86.788,42.296 87.304,42.464 87.536,42.8 C87.768,43.136 87.884,43.904 87.884,45.104 L87.884,45.104 L87.884,49.016 C87.116,48.072 86.14,47.6 84.956,47.6 C83.82,47.6 82.84,48.028 82.016,48.884 C81.192,49.74 80.78,50.776 80.78,51.992 C80.78,53.208 81.192,54.248 82.016,55.112 C82.84,55.976 83.82,56.408 84.956,56.408 C86.14,56.408 87.124,55.92 87.908,54.944 C88.052,55.68 88.18,56.168 88.292,56.408 L88.292,56.408 Z M85.46,55.448 C84.564,55.448 83.884,55.128 83.42,54.488 C82.956,53.848 82.724,53.016 82.724,51.992 C82.724,50.984 82.956,50.16 83.42,49.52 C83.884,48.88 84.564,48.56 85.46,48.56 C85.988,48.56 86.468,48.732 86.9,49.076 C87.332,49.42 87.66,49.88 87.884,50.456 L87.884,50.456 L87.884,53.552 C87.66,54.128 87.332,54.588 86.9,54.932 C86.468,55.276 85.988,55.448 85.46,55.448 Z M97.532,56.408 C98.204,56.408 98.876,56.26 99.548,55.964 C100.22,55.668 100.772,55.288 101.204,54.824 L101.204,54.824 L100.772,54.296 C100.436,54.616 100.012,54.88 99.5,55.088 C98.988,55.296 98.532,55.4 98.132,55.4 C96.948,55.4 96.096,55.028 95.576,54.284 C95.056,53.54 94.868,52.576 95.012,51.392 L95.012,51.392 L100.796,51.392 C101.084,50.384 100.884,49.5 100.196,48.74 C99.508,47.98 98.62,47.6 97.532,47.6 C96.38,47.6 95.352,48.024 94.448,48.872 C93.544,49.72 93.092,50.76 93.092,51.992 C93.092,53.224 93.508,54.268 94.34,55.124 C95.172,55.98 96.236,56.408 97.532,56.408 Z M99.14,50.504 L95.156,50.504 C95.332,49.912 95.624,49.44 96.032,49.088 C96.44,48.736 96.9,48.56 97.412,48.56 C98.132,48.56 98.64,48.772 98.936,49.196 C99.232,49.62 99.3,50.056 99.14,50.504 L99.14,50.504 Z" fill="#524740"></path>
            </g>
            <text id="+" font-family="Lato-Regular, Lato" font-size="18" font-weight="normal" letter-spacing="0.6950497" fill="#555555">
                <tspan x="48.8649503" y="37">+</tspan>
            </text>
            <path d="M215.42,254 L215.42,253.496 C214.428,253.496 213.796,253.328 213.524,252.992 C213.252,252.656 213.116,251.888 213.116,250.688 L213.116,250.688 L213.116,240.536 L216.26,240.536 C217.284,240.536 217.956,240.66 218.276,240.908 C218.596,241.156 218.852,241.64 219.044,242.36 L219.044,242.36 L219.164,242.84 L219.668,242.84 L219.452,239.6 L204.884,239.6 L204.668,242.84 L205.172,242.84 L205.292,242.36 C205.484,241.64 205.74,241.156 206.06,240.908 C206.38,240.66 207.052,240.536 208.076,240.536 L208.076,240.536 L211.22,240.536 L211.22,250.688 C211.22,251.888 211.084,252.656 210.812,252.992 C210.54,253.328 209.908,253.496 208.916,253.496 L208.916,253.496 L208.916,254 L215.42,254 Z M223.508,243.248 C223.796,243.248 224.044,243.144 224.252,242.936 C224.46,242.728 224.564,242.472 224.564,242.168 C224.564,241.88 224.46,241.632 224.252,241.424 C224.044,241.216 223.796,241.112 223.508,241.112 C223.22,241.112 222.972,241.216 222.764,241.424 C222.556,241.632 222.452,241.88 222.452,242.168 C222.452,242.472 222.556,242.728 222.764,242.936 C222.972,243.144 223.22,243.248 223.508,243.248 Z M226.268,254 L226.268,253.496 C225.468,253.496 224.952,253.328 224.72,252.992 C224.488,252.656 224.372,251.888 224.372,250.688 L224.372,250.688 L224.372,245.6 L220.772,246.2 L220.772,246.704 C221.572,246.704 222.088,246.872 222.32,247.208 C222.552,247.544 222.668,248.304 222.668,249.488 L222.668,249.488 L222.668,250.688 C222.668,251.888 222.552,252.656 222.32,252.992 C222.088,253.328 221.572,253.496 220.772,253.496 L220.772,253.496 L220.772,254 L226.268,254 Z M232.724,254 L232.724,253.496 C232.068,253.496 231.656,253.34 231.488,253.028 C231.32,252.716 231.236,251.936 231.236,250.688 L231.236,250.688 L231.236,249.128 C231.236,248.456 231.524,247.888 232.1,247.424 C232.676,246.96 233.212,246.728 233.708,246.728 C234.86,246.728 235.436,247.584 235.436,249.296 L235.436,249.296 L235.436,250.688 C235.436,251.952 235.352,252.736 235.184,253.04 C235.016,253.344 234.596,253.496 233.924,253.496 L233.924,253.496 L233.924,254 L238.628,254 L238.628,253.496 C237.956,253.496 237.536,253.344 237.368,253.04 C237.2,252.736 237.116,251.952 237.116,250.688 L237.116,250.688 L237.116,249.128 C237.116,248.456 237.408,247.888 237.992,247.424 C238.576,246.96 239.116,246.728 239.612,246.728 C240.748,246.728 241.316,247.584 241.316,249.296 L241.316,249.296 L241.316,250.688 C241.316,251.952 241.236,252.736 241.076,253.04 C240.916,253.344 240.5,253.496 239.828,253.496 L239.828,253.496 L239.828,254 L244.916,254 L244.916,253.496 C244.116,253.496 243.6,253.328 243.368,252.992 C243.136,252.656 243.02,251.888 243.02,250.688 L243.02,250.688 L243.02,249.176 C243.02,246.792 242.1,245.6 240.26,245.6 C239.604,245.6 238.96,245.788 238.328,246.164 C237.696,246.54 237.22,246.952 236.9,247.4 C236.532,246.2 235.684,245.6 234.356,245.6 C233.188,245.6 232.148,246.176 231.236,247.328 C231.108,246.48 230.972,245.904 230.828,245.6 L230.828,245.6 L227.636,246.2 L227.636,246.704 C228.436,246.704 228.952,246.872 229.184,247.208 C229.416,247.544 229.532,248.304 229.532,249.488 L229.532,249.488 L229.532,250.688 C229.532,251.888 229.416,252.656 229.184,252.992 C228.952,253.328 228.436,253.496 227.636,253.496 L227.636,253.496 L227.636,254 L232.724,254 Z M250.988,254.408 C251.66,254.408 252.332,254.26 253.004,253.964 C253.676,253.668 254.228,253.288 254.66,252.824 L254.66,252.824 L254.228,252.296 C253.892,252.616 253.468,252.88 252.956,253.088 C252.444,253.296 251.988,253.4 251.588,253.4 C250.404,253.4 249.552,253.028 249.032,252.284 C248.512,251.54 248.324,250.576 248.468,249.392 L248.468,249.392 L254.252,249.392 C254.54,248.384 254.34,247.5 253.652,246.74 C252.964,245.98 252.076,245.6 250.988,245.6 C249.836,245.6 248.808,246.024 247.904,246.872 C247,247.72 246.548,248.76 246.548,249.992 C246.548,251.224 246.964,252.268 247.796,253.124 C248.628,253.98 249.692,254.408 250.988,254.408 Z M252.596,248.504 L248.612,248.504 C248.788,247.912 249.08,247.44 249.488,247.088 C249.896,246.736 250.356,246.56 250.868,246.56 C251.588,246.56 252.096,246.772 252.392,247.196 C252.688,247.62 252.756,248.056 252.596,248.504 L252.596,248.504 Z" id="Time" fill="#524740" fill-rule="nonzero"></path>
            <path d="M-16.076,137.408 L-10.796,125.192 C-10.396,124.264 -10.056,123.684 -9.776,123.452 C-9.496,123.22 -8.884,123.104 -7.94,123.104 L-7.94,123.104 L-7.94,122.6 L-13.532,122.6 L-13.532,123.104 C-12.54,123.104 -11.904,123.244 -11.624,123.524 C-11.344,123.804 -11.356,124.272 -11.66,124.928 L-11.66,124.928 L-15.692,134.264 L-19.772,124.928 C-20.076,124.272 -20.088,123.804 -19.808,123.524 C-19.528,123.244 -18.892,123.104 -17.9,123.104 L-17.9,123.104 L-17.9,122.6 L-24.548,122.6 L-24.548,123.104 C-23.604,123.104 -22.992,123.22 -22.712,123.452 C-22.432,123.684 -22.092,124.264 -21.692,125.192 L-21.692,125.192 L-16.388,137.408 L-16.076,137.408 Z M-2.828,137.408 C-1.5,137.408 -0.36,136.976 0.592,136.112 C1.544,135.248 2.02,134.208 2.02,132.992 C2.02,131.776 1.54,130.744 0.58,129.896 C-0.364,129.032 -1.5,128.6 -2.828,128.6 C-4.156,128.6 -5.296,129.028 -6.248,129.884 C-7.2,130.74 -7.676,131.776 -7.676,132.992 C-7.676,134.208 -7.2,135.248 -6.248,136.112 C-5.296,136.976 -4.156,137.408 -2.828,137.408 Z M-2.828,136.472 C-3.772,136.472 -4.492,136.144 -4.988,135.488 C-5.484,134.832 -5.732,134 -5.732,132.992 C-5.732,131.984 -5.484,131.152 -4.988,130.496 C-4.492,129.84 -3.772,129.512 -2.828,129.512 C-1.884,129.512 -1.164,129.836 -0.668,130.484 C-0.172,131.132 0.076,131.968 0.076,132.992 C0.076,134.016 -0.172,134.856 -0.668,135.512 C-1.164,136.152 -1.884,136.472 -2.828,136.472 Z M9.124,137 L9.124,136.496 C8.324,136.496 7.808,136.328 7.576,135.992 C7.344,135.656 7.228,134.888 7.228,133.688 L7.228,133.688 L7.228,122.192 L3.628,122.792 L3.628,123.296 C4.428,123.296 4.944,123.464 5.176,123.8 C5.408,124.136 5.524,124.904 5.524,126.104 L5.524,126.104 L5.524,133.688 C5.524,134.888 5.408,135.656 5.176,135.992 C4.944,136.328 4.428,136.496 3.628,136.496 L3.628,136.496 L3.628,137 L9.124,137 Z M13.756,137.336 C14.156,137.336 14.592,137.208 15.064,136.952 C15.536,136.696 15.94,136.368 16.276,135.968 L16.276,135.968 L15.868,135.56 C15.292,136.104 14.772,136.376 14.308,136.376 C13.588,136.376 13.228,135.8 13.228,134.648 L13.228,134.648 L13.228,129.848 L15.316,129.848 L15.316,129.008 L13.228,129.008 L13.228,126.368 L12.412,126.368 C12.316,127.2 12.108,127.856 11.788,128.336 C11.468,128.816 10.964,129.128 10.276,129.272 L10.276,129.272 L10.276,129.848 L11.524,129.848 L11.524,134.648 C11.524,135.544 11.724,136.216 12.124,136.664 C12.524,137.112 13.068,137.336 13.756,137.336 Z M19.756,137.312 C20.684,137.312 21.684,136.832 22.756,135.872 C22.884,136.8 23.428,137.264 24.388,137.264 C24.98,137.264 25.508,137.016 25.972,136.52 L25.972,136.52 L25.636,136.064 C25.396,136.304 25.172,136.424 24.964,136.424 C24.596,136.424 24.412,136.112 24.412,135.488 L24.412,135.488 L24.412,131.864 C24.412,130.712 24.156,129.88 23.644,129.368 C23.132,128.856 22.292,128.6 21.124,128.6 C20.324,128.6 19.616,128.78 19,129.14 C18.384,129.5 18.076,129.96 18.076,130.52 C18.076,130.76 18.156,130.96 18.316,131.12 C18.476,131.28 18.676,131.36 18.916,131.36 C19.14,131.36 19.332,131.28 19.492,131.12 C19.652,130.96 19.732,130.76 19.732,130.52 C19.732,130.168 19.88,129.888 20.176,129.68 C20.472,129.472 20.78,129.368 21.1,129.368 C21.756,129.368 22.188,129.552 22.396,129.92 C22.604,130.288 22.708,130.944 22.708,131.888 C19.3,132.48 17.596,133.616 17.596,135.296 C17.596,135.92 17.804,136.412 18.22,136.772 C18.636,137.132 19.148,137.312 19.756,137.312 Z M20.524,136.232 C20.204,136.232 19.936,136.12 19.72,135.896 C19.504,135.672 19.396,135.376 19.396,135.008 C19.396,133.936 20.5,133.144 22.708,132.632 L22.708,132.632 L22.708,135.08 C21.844,135.848 21.116,136.232 20.524,136.232 Z M31.012,143.408 C32.228,143.408 33.24,143.116 34.048,142.532 C34.856,141.948 35.26,141.168 35.26,140.192 C35.26,139.376 34.916,138.68 34.228,138.104 C33.54,137.528 32.428,137.176 30.892,137.048 C29.436,136.92 28.708,136.616 28.708,136.136 C28.708,135.672 29.604,135.336 31.396,135.128 C32.228,135.016 32.956,134.656 33.58,134.048 C34.204,133.44 34.516,132.712 34.516,131.864 C34.516,131.128 34.284,130.48 33.82,129.92 C34.076,129.664 34.324,129.536 34.564,129.536 C34.788,129.536 34.952,129.596 35.056,129.716 C35.16,129.836 35.224,129.964 35.248,130.1 C35.272,130.236 35.344,130.36 35.464,130.472 C35.584,130.584 35.764,130.632 36.004,130.616 C36.132,130.616 36.244,130.576 36.34,130.496 C36.628,130.272 36.7,129.936 36.556,129.488 C36.364,128.896 35.916,128.6 35.212,128.6 C34.94,128.6 34.624,128.688 34.264,128.864 C33.904,129.04 33.62,129.256 33.412,129.512 C32.724,128.904 31.9,128.6 30.94,128.6 C29.948,128.6 29.104,128.92 28.408,129.56 C27.712,130.2 27.364,130.968 27.364,131.864 C27.364,132.504 27.544,133.08 27.904,133.592 C28.264,134.104 28.756,134.504 29.38,134.792 C28.036,135.208 27.364,135.848 27.364,136.712 C27.364,137.976 28.5,138.72 30.772,138.944 C31.876,139.056 32.688,139.232 33.208,139.472 C33.728,139.712 33.988,140.096 33.988,140.624 C33.988,141.168 33.688,141.612 33.088,141.956 C32.488,142.3 31.796,142.472 31.012,142.472 C30.516,142.472 30.04,142.4 29.584,142.256 C29.128,142.112 28.744,141.912 28.432,141.656 C28.12,141.4 27.98,141.052 28.012,140.612 C28.044,140.172 28.292,139.688 28.756,139.16 L28.756,139.16 L28.324,138.896 C27.364,139.392 26.852,140 26.788,140.72 C26.724,141.44 27.088,142.068 27.88,142.604 C28.672,143.14 29.716,143.408 31.012,143.408 Z M30.94,134.336 C30.38,134.336 29.948,134.108 29.644,133.652 C29.34,133.196 29.188,132.6 29.188,131.864 C29.188,131.128 29.34,130.528 29.644,130.064 C29.948,129.6 30.38,129.368 30.94,129.368 C31.5,129.368 31.928,129.6 32.224,130.064 C32.52,130.528 32.668,131.128 32.668,131.864 C32.668,132.6 32.516,133.2 32.212,133.664 C31.924,134.112 31.5,134.336 30.94,134.336 Z M42.1,137.408 C42.772,137.408 43.444,137.26 44.116,136.964 C44.788,136.668 45.34,136.288 45.772,135.824 L45.772,135.824 L45.34,135.296 C45.004,135.616 44.58,135.88 44.068,136.088 C43.556,136.296 43.1,136.4 42.7,136.4 C41.516,136.4 40.664,136.028 40.144,135.284 C39.624,134.54 39.436,133.576 39.58,132.392 L39.58,132.392 L45.364,132.392 C45.652,131.384 45.452,130.5 44.764,129.74 C44.076,128.98 43.188,128.6 42.1,128.6 C40.948,128.6 39.92,129.024 39.016,129.872 C38.112,130.72 37.66,131.76 37.66,132.992 C37.66,134.224 38.076,135.268 38.908,136.124 C39.74,136.98 40.804,137.408 42.1,137.408 Z M43.708,131.504 L39.724,131.504 C39.9,130.912 40.192,130.44 40.6,130.088 C41.008,129.736 41.468,129.56 41.98,129.56 C42.7,129.56 43.208,129.772 43.504,130.196 C43.8,130.62 43.868,131.056 43.708,131.504 L43.708,131.504 Z" id="Voltage" fill="#524740" fill-rule="nonzero" transform="translate(10.612000, 132.800000) rotate(-90.000000) translate(-10.612000, -132.800000) "></path>
            <path d="M46.096,136.408 C47.632,136.408 48.948,135.86 50.044,134.764 C51.14,133.668 51.688,132.344 51.688,130.792 C51.688,129.256 51.14,127.94 50.044,126.844 C48.948,125.748 47.632,125.2 46.096,125.2 C44.56,125.2 43.24,125.752 42.136,126.856 C41.048,127.944 40.504,129.256 40.504,130.792 C40.504,132.344 41.052,133.668 42.148,134.764 C43.244,135.86 44.56,136.408 46.096,136.408 Z M46.096,135.016 C44.976,135.016 44.02,134.604 43.228,133.78 C42.436,132.956 42.04,131.96 42.04,130.792 C42.04,129.64 42.436,128.648 43.228,127.816 C44.02,126.984 44.976,126.568 46.096,126.568 C47.2,126.568 48.152,126.984 48.952,127.816 C49.752,128.648 50.152,129.64 50.152,130.792 C50.152,131.96 49.752,132.956 48.952,133.78 C48.152,134.604 47.2,135.016 46.096,135.016 Z M60.76,136.408 L66.04,124.192 C66.44,123.264 66.78,122.684 67.06,122.452 C67.34,122.22 67.952,122.104 68.896,122.104 L68.896,122.104 L68.896,121.6 L63.304,121.6 L63.304,122.104 C64.296,122.104 64.932,122.244 65.212,122.524 C65.492,122.804 65.48,123.272 65.176,123.928 L65.176,123.928 L61.144,133.264 L57.064,123.928 C56.76,123.272 56.748,122.804 57.028,122.524 C57.308,122.244 57.944,122.104 58.936,122.104 L58.936,122.104 L58.936,121.6 L52.288,121.6 L52.288,122.104 C53.232,122.104 53.844,122.22 54.124,122.452 C54.404,122.684 54.744,123.264 55.144,124.192 L55.144,124.192 L60.448,136.408 L60.76,136.408 Z" id="0V" fill="#524740" fill-rule="nonzero"></path>
            <text id="-" font-family="Lato-Regular, Lato" font-size="18" font-weight="normal" letter-spacing="0.6950497" fill="#555555">
                <tspan x="52.6179503" y="236">-</tspan>
            </text>
            <path d="M90.7460938,129.019531 C114.248698,63.6731771 137.666667,31 161,31 C177.855331,31 194.406946,48.0495283 210.654846,82.1485848 C214.817878,90.8854356 221.017565,106.509084 229.253906,129.019531 C253.751302,197.00651 277.666667,231 301,231 C324.333333,231 347.666667,197.00651 371,129.019531" id="Path-2" stroke="#23ABE3" stroke-width="2"></path>
        </g>
    </g>
</svg>