<?xml version="1.0" encoding="UTF-8"?>
<svg width="900px" height="300px" viewBox="0 0 900 300" version="1.1" xmlns="http://www.w3.org/2000/svg" xmlns:xlink="http://www.w3.org/1999/xlink">
    <!-- Generator: Sketch 60.1 (88133) - https://sketch.com -->
    <title>Complex_AC_Waveform</title>
    <desc>Created with Sketch.</desc>
    <g id="Complex_AC_Waveform" stroke="none" stroke-width="1" fill="none" fill-rule="evenodd">
        <g id="Illustration_Frame">
            <rect id="Rectangle" stroke="#3D3530" stroke-width="2" fill="#EEEEEE" x="1" y="1" width="898" height="298"></rect>
            <rect id="Rectangle-Copy" stroke="#3D3530" stroke-width="2" fill="#F8FAE4" x="1" y="256" width="898" height="43"></rect>
            <path d="M618.549333,285.192 C620.117333,285.192 621.481333,284.836 622.641333,284.124 C623.801333,283.412 624.701333,282.432 625.341333,281.184 L625.341333,281.184 L623.853333,280.296 C623.357333,281.336 622.649333,282.164 621.729333,282.78 C620.809333,283.396 619.749333,283.704 618.549333,283.704 C616.725333,283.704 615.265333,283.064 614.169333,281.784 C613.073333,280.504 612.525333,278.896 612.525333,276.96 C612.525333,275.008 613.073333,273.396 614.169333,272.124 C615.265333,270.852 616.725333,270.216 618.549333,270.216 C619.733333,270.216 620.785333,270.52 621.705333,271.128 C622.625333,271.736 623.341333,272.56 623.853333,273.6 L623.853333,273.6 L625.341333,272.736 C624.701333,271.488 623.801333,270.504 622.641333,269.784 C621.481333,269.064 620.117333,268.704 618.549333,268.704 C616.181333,268.704 614.293333,269.492 612.885333,271.068 C611.477333,272.644 610.773333,274.608 610.773333,276.96 C610.773333,279.296 611.477333,281.252 612.885333,282.828 C614.293333,284.404 616.181333,285.192 618.549333,285.192 Z M633.807999,285.192 C635.519999,285.192 636.975999,284.584 638.175999,283.368 C639.391999,282.152 639.999999,280.696 639.999999,279 C639.999999,277.288 639.395999,275.828 638.187999,274.62 C636.979999,273.412 635.519999,272.808 633.807999,272.808 C632.095999,272.808 630.635999,273.412 629.427999,274.62 C628.219999,275.828 627.615999,277.288 627.615999,279 C627.615999,280.712 628.219999,282.172 629.427999,283.38 C630.635999,284.588 632.095999,285.192 633.807999,285.192 Z M633.831999,283.68 C632.551999,283.68 631.463999,283.228 630.567999,282.324 C629.671999,281.42 629.223999,280.312 629.223999,279 C629.223999,277.688 629.671999,276.576 630.567999,275.664 C631.463999,274.752 632.551999,274.296 633.831999,274.296 C635.127999,274.296 636.219999,274.752 637.107999,275.664 C637.995999,276.576 638.439999,277.688 638.439999,279 C638.439999,280.312 637.995999,281.42 637.107999,282.324 C636.219999,283.228 635.127999,283.68 633.831999,283.68 Z M644.626666,285 L644.626666,277.968 C644.626666,276.944 644.974666,276.072 645.670666,275.352 C646.366666,274.632 647.210666,274.272 648.202666,274.272 C649.194666,274.272 650.038666,274.632 650.734666,275.352 C651.430666,276.072 651.778666,276.944 651.778666,277.968 L651.778666,277.968 L651.778666,285 L653.386666,285 L653.386666,277.968 C653.386666,276.928 653.730666,276.052 654.418666,275.34 C655.106666,274.628 655.954666,274.272 656.962666,274.272 C657.970666,274.272 658.814666,274.628 659.494666,275.34 C660.174666,276.052 660.514666,276.928 660.514666,277.968 L660.514666,277.968 L660.514666,285 L662.146666,285 L662.146666,277.92 C662.146666,276.48 661.674666,275.268 660.730666,274.284 C659.786666,273.3 658.618666,272.808 657.226666,272.808 C656.234666,272.808 655.346666,273.04 654.562666,273.504 C653.778666,273.968 653.178666,274.592 652.762666,275.376 C652.330666,274.592 651.734666,273.968 650.974666,273.504 C650.214666,273.04 649.378666,272.808 648.466666,272.808 C646.882666,272.808 645.602666,273.464 644.626666,274.776 L644.626666,274.776 L644.626666,273 L643.042666,273 L643.042666,285 L644.626666,285 Z M667.709333,290.832 L667.709333,282.984 C668.925333,284.44 670.493333,285.168 672.413333,285.168 C674.125333,285.168 675.585333,284.564 676.793333,283.356 C678.001333,282.148 678.605333,280.688 678.605333,278.976 C678.605333,277.264 678.001333,275.804 676.793333,274.596 C675.585333,273.388 674.125333,272.784 672.413333,272.784 C670.509333,272.784 668.941333,273.504 667.709333,274.944 L667.709333,274.944 L667.709333,272.976 L666.125333,272.976 L666.125333,290.832 L667.709333,290.832 Z M672.365333,283.656 C671.085333,283.656 669.997333,283.208 669.101333,282.312 C668.205333,281.4 667.757333,280.288 667.757333,278.976 C667.757333,277.664 668.205333,276.552 669.101333,275.64 C669.997333,274.728 671.085333,274.272 672.365333,274.272 C673.645333,274.272 674.737333,274.728 675.641333,275.64 C676.545333,276.552 676.997333,277.664 676.997333,278.976 C676.997333,280.288 676.545333,281.396 675.641333,282.3 C674.737333,283.204 673.645333,283.656 672.365333,283.656 Z M683.471999,285 L683.471999,267.144 L681.887999,267.144 L681.887999,285 L683.471999,285 Z M692.898666,285.072 C694.370666,285.088 695.638666,284.672 696.702666,283.824 C697.766666,282.976 698.482666,282.048 698.850666,281.04 L698.850666,281.04 L697.506666,280.56 C697.202666,281.376 696.626666,282.088 695.778666,282.696 C694.930666,283.304 693.970666,283.608 692.898666,283.608 C691.906666,283.624 691.002666,283.324 690.186666,282.708 C689.370666,282.092 688.826666,281.304 688.554666,280.344 L688.554666,280.344 L699.042666,278.448 C699.042666,278.32 699.034666,278.216 699.018666,278.136 C698.842666,276.6 698.170666,275.312 697.002666,274.272 C695.834666,273.232 694.466666,272.704 692.898666,272.688 C691.170666,272.704 689.706666,273.312 688.506666,274.512 C687.306666,275.712 686.706666,277.176 686.706666,278.904 C686.706666,279.528 686.786666,280.104 686.946666,280.632 C687.346666,281.928 688.102666,282.992 689.214666,283.824 C690.326666,284.656 691.554666,285.072 692.898666,285.072 Z M688.314666,279.048 C688.314666,278.968 688.310666,278.868 688.302666,278.748 C688.294666,278.628 688.290666,278.544 688.290666,278.496 C688.354666,277.312 688.814666,276.296 689.670666,275.448 C690.526666,274.6 691.554666,274.168 692.754666,274.152 C693.778666,274.136 694.706666,274.436 695.538666,275.052 C696.370666,275.668 696.938666,276.464 697.242666,277.44 L697.242666,277.44 L688.314666,279.048 Z M702.277333,285 L705.661333,280.224 L709.021333,285 L710.821333,285 L706.549333,278.952 L710.749333,273 L708.949333,273 L705.661333,277.68 L702.349333,273 L700.573333,273 L704.773333,278.952 L700.501333,285 L702.277333,285 Z M721.946666,285 L724.010666,279.96 L731.546666,279.96 L733.610666,285 L735.242666,285 L728.522666,268.872 L727.010666,268.872 L720.290666,285 L721.946666,285 Z M730.898666,278.376 L724.658666,278.376 L727.778666,270.72 L730.898666,278.376 Z M743.973333,285.192 C745.541333,285.192 746.905333,284.836 748.065333,284.124 C749.225333,283.412 750.125333,282.432 750.765333,281.184 L750.765333,281.184 L749.277333,280.296 C748.781333,281.336 748.073333,282.164 747.153333,282.78 C746.233333,283.396 745.173333,283.704 743.973333,283.704 C742.149333,283.704 740.689333,283.064 739.593333,281.784 C738.497333,280.504 737.949333,278.896 737.949333,276.96 C737.949333,275.008 738.497333,273.396 739.593333,272.124 C740.689333,270.852 742.149333,270.216 743.973333,270.216 C745.157333,270.216 746.209333,270.52 747.129333,271.128 C748.049333,271.736 748.765333,272.56 749.277333,273.6 L749.277333,273.6 L750.765333,272.736 C750.125333,271.488 749.225333,270.504 748.065333,269.784 C746.905333,269.064 745.541333,268.704 743.973333,268.704 C741.605333,268.704 739.717333,269.492 738.309333,271.068 C736.901333,272.644 736.197333,274.608 736.197333,276.96 C736.197333,279.296 736.901333,281.252 738.309333,282.828 C739.717333,284.404 741.605333,285.192 743.973333,285.192 Z M767.818666,285 L772.594666,271.032 L777.346666,285 L778.978666,285 L784.546666,268.872 L782.914666,268.872 L778.162666,282.552 L773.314666,268.872 L771.850666,268.872 L767.026666,282.552 L762.250666,268.872 L760.618666,268.872 L766.210666,285 L767.818666,285 Z M790.853333,285.192 C792.741333,285.192 794.301333,284.48 795.533333,283.056 L795.533333,283.056 L795.533333,285 L797.117333,285 L797.117333,273 L795.533333,273 L795.533333,274.944 C794.317333,273.52 792.757333,272.808 790.853333,272.808 C789.141333,272.808 787.681333,273.412 786.473333,274.62 C785.265333,275.828 784.661333,277.288 784.661333,279 C784.661333,280.712 785.265333,282.172 786.473333,283.38 C787.681333,284.588 789.141333,285.192 790.853333,285.192 Z M790.877333,283.68 C789.597333,283.68 788.505333,283.228 787.601333,282.324 C786.697333,281.42 786.245333,280.312 786.245333,279 C786.245333,277.688 786.697333,276.58 787.601333,275.676 C788.505333,274.772 789.597333,274.32 790.877333,274.32 C792.173333,274.32 793.265333,274.772 794.153333,275.676 C795.041333,276.58 795.485333,277.688 795.485333,279 C795.485333,280.312 795.041333,281.42 794.153333,282.324 C793.265333,283.228 792.173333,283.68 790.877333,283.68 Z M805.392,285 L809.64,273 L808.056,273 L804.6,282.768 L801.168,273 L799.584,273 L803.808,285 L805.392,285 Z M817.314666,285.072 C818.786666,285.088 820.054666,284.672 821.118666,283.824 C822.182666,282.976 822.898666,282.048 823.266666,281.04 L823.266666,281.04 L821.922666,280.56 C821.618666,281.376 821.042666,282.088 820.194666,282.696 C819.346666,283.304 818.386666,283.608 817.314666,283.608 C816.322666,283.624 815.418666,283.324 814.602666,282.708 C813.786666,282.092 813.242666,281.304 812.970666,280.344 L812.970666,280.344 L823.458666,278.448 C823.458666,278.32 823.450666,278.216 823.434666,278.136 C823.258666,276.6 822.586666,275.312 821.418666,274.272 C820.250666,273.232 818.882666,272.704 817.314666,272.688 C815.586666,272.704 814.122666,273.312 812.922666,274.512 C811.722666,275.712 811.122666,277.176 811.122666,278.904 C811.122666,279.528 811.202666,280.104 811.362666,280.632 C811.762666,281.928 812.518666,282.992 813.630666,283.824 C814.742666,284.656 815.970666,285.072 817.314666,285.072 Z M812.730666,279.048 C812.730666,278.968 812.726666,278.868 812.718666,278.748 C812.710667,278.628 812.706666,278.544 812.706666,278.496 C812.770666,277.312 813.230666,276.296 814.086666,275.448 C814.942666,274.6 815.970666,274.168 817.170666,274.152 C818.194666,274.136 819.122666,274.436 819.954666,275.052 C820.786666,275.668 821.354667,276.464 821.658666,277.44 L821.658666,277.44 L812.730666,279.048 Z M828.445333,285 L828.445333,274.272 L830.797333,274.272 L830.797333,272.952 L828.445333,272.952 L828.445333,270.048 C828.445333,269.392 828.501333,268.948 828.613333,268.716 C828.725333,268.484 828.957333,268.368 829.309333,268.368 C829.629333,268.368 829.949333,268.408 830.269333,268.488 L830.269333,268.488 L830.605333,267.264 L830.389333,267.192 C830.245333,267.144 830.025333,267.096 829.729333,267.048 C829.433333,267 829.141333,266.976 828.853333,266.976 C827.541333,266.976 826.885333,267.808 826.885333,269.472 L826.885333,269.472 L826.885333,272.952 L825.469333,272.952 L825.469333,274.272 L826.885333,274.272 L826.885333,285 L828.445333,285 Z M838.88,285.192 C840.592,285.192 842.048,284.584 843.248,283.368 C844.464,282.152 845.072,280.696 845.072,279 C845.072,277.288 844.468,275.828 843.26,274.62 C842.052,273.412 840.592,272.808 838.88,272.808 C837.168,272.808 835.708,273.412 834.5,274.62 C833.292,275.828 832.688,277.288 832.688,279 C832.688,280.712 833.292,282.172 834.5,283.38 C835.708,284.588 837.168,285.192 838.88,285.192 Z M838.904,283.68 C837.624,283.68 836.536,283.228 835.64,282.324 C834.744,281.42 834.296,280.312 834.296,279 C834.296,277.688 834.744,276.576 835.64,275.664 C836.536,274.752 837.624,274.296 838.904,274.296 C840.2,274.296 841.292,274.752 842.18,275.664 C843.068,276.576 843.512,277.688 843.512,279 C843.512,280.312 843.068,281.42 842.18,282.324 C841.292,283.228 840.2,283.68 838.904,283.68 Z M849.698667,285 L849.698667,277.968 C849.698667,276.928 850.042667,276.052 850.730667,275.34 C851.418667,274.628 852.266667,274.272 853.274667,274.272 C853.962667,274.272 854.642667,274.52 855.314667,275.016 L855.314667,275.016 L855.866667,273.432 C855.162667,273.016 854.386667,272.808 853.538667,272.808 C851.954667,272.808 850.674667,273.464 849.698667,274.776 L849.698667,274.776 L849.698667,273 L848.114667,273 L848.114667,285 L849.698667,285 Z M860.253333,285 L860.253333,277.968 C860.253333,276.944 860.601333,276.072 861.297333,275.352 C861.993333,274.632 862.837333,274.272 863.829333,274.272 C864.821333,274.272 865.665333,274.632 866.361333,275.352 C867.057333,276.072 867.405333,276.944 867.405333,277.968 L867.405333,277.968 L867.405333,285 L869.013333,285 L869.013333,277.968 C869.013333,276.928 869.357333,276.052 870.045333,275.34 C870.733333,274.628 871.581333,274.272 872.589333,274.272 C873.597333,274.272 874.441333,274.628 875.121333,275.34 C875.801333,276.052 876.141333,276.928 876.141333,277.968 L876.141333,277.968 L876.141333,285 L877.773333,285 L877.773333,277.92 C877.773333,276.48 877.301333,275.268 876.357333,274.284 C875.413333,273.3 874.245333,272.808 872.853333,272.808 C871.861333,272.808 870.973333,273.04 870.189333,273.504 C869.405333,273.968 868.805333,274.592 868.389333,275.376 C867.957333,274.592 867.361333,273.968 866.601333,273.504 C865.841333,273.04 865.005333,272.808 864.093333,272.808 C862.509333,272.808 861.229333,273.464 860.253333,274.776 L860.253333,274.776 L860.253333,273 L858.669333,273 L858.669333,285 L860.253333,285 Z" id="ComplexACWaveform" fill="#23ABE3" fill-rule="nonzero"></path>
        </g>
        <g transform="translate(256.000000, 21.000000)">
            <line x1="90" y1="12" x2="90" y2="212" id="Line-7-Copy-2" stroke="#524740" stroke-width="2" stroke-linecap="square"></line>
            <line x1="387" y1="111" x2="74" y2="111" id="Line-7-Copy-6" stroke="#524740" stroke-width="2" stroke-linecap="square"></line>
            <text id="+" font-family="Lato-Regular, Lato" font-size="18" font-weight="normal" letter-spacing="0.6950497" fill="#555555">
                <tspan x="48.8649503" y="18">+</tspan>
            </text>
            <path d="M-16.076,118.408 L-10.796,106.192 C-10.396,105.264 -10.056,104.684 -9.776,104.452 C-9.496,104.22 -8.884,104.104 -7.94,104.104 L-7.94,104.104 L-7.94,103.6 L-13.532,103.6 L-13.532,104.104 C-12.54,104.104 -11.904,104.244 -11.624,104.524 C-11.344,104.804 -11.356,105.272 -11.66,105.928 L-11.66,105.928 L-15.692,115.264 L-19.772,105.928 C-20.076,105.272 -20.088,104.804 -19.808,104.524 C-19.528,104.244 -18.892,104.104 -17.9,104.104 L-17.9,104.104 L-17.9,103.6 L-24.548,103.6 L-24.548,104.104 C-23.604,104.104 -22.992,104.22 -22.712,104.452 C-22.432,104.684 -22.092,105.264 -21.692,106.192 L-21.692,106.192 L-16.388,118.408 L-16.076,118.408 Z M-2.828,118.408 C-1.5,118.408 -0.36,117.976 0.592,117.112 C1.544,116.248 2.02,115.208 2.02,113.992 C2.02,112.776 1.54,111.744 0.58,110.896 C-0.364,110.032 -1.5,109.6 -2.828,109.6 C-4.156,109.6 -5.296,110.028 -6.248,110.884 C-7.2,111.74 -7.676,112.776 -7.676,113.992 C-7.676,115.208 -7.2,116.248 -6.248,117.112 C-5.296,117.976 -4.156,118.408 -2.828,118.408 Z M-2.828,117.472 C-3.772,117.472 -4.492,117.144 -4.988,116.488 C-5.484,115.832 -5.732,115 -5.732,113.992 C-5.732,112.984 -5.484,112.152 -4.988,111.496 C-4.492,110.84 -3.772,110.512 -2.828,110.512 C-1.884,110.512 -1.164,110.836 -0.668,111.484 C-0.172,112.132 0.076,112.968 0.076,113.992 C0.076,115.016 -0.172,115.856 -0.668,116.512 C-1.164,117.152 -1.884,117.472 -2.828,117.472 Z M9.124,118 L9.124,117.496 C8.324,117.496 7.808,117.328 7.576,116.992 C7.344,116.656 7.228,115.888 7.228,114.688 L7.228,114.688 L7.228,103.192 L3.628,103.792 L3.628,104.296 C4.428,104.296 4.944,104.464 5.176,104.8 C5.408,105.136 5.524,105.904 5.524,107.104 L5.524,107.104 L5.524,114.688 C5.524,115.888 5.408,116.656 5.176,116.992 C4.944,117.328 4.428,117.496 3.628,117.496 L3.628,117.496 L3.628,118 L9.124,118 Z M13.756,118.336 C14.156,118.336 14.592,118.208 15.064,117.952 C15.536,117.696 15.94,117.368 16.276,116.968 L16.276,116.968 L15.868,116.56 C15.292,117.104 14.772,117.376 14.308,117.376 C13.588,117.376 13.228,116.8 13.228,115.648 L13.228,115.648 L13.228,110.848 L15.316,110.848 L15.316,110.008 L13.228,110.008 L13.228,107.368 L12.412,107.368 C12.316,108.2 12.108,108.856 11.788,109.336 C11.468,109.816 10.964,110.128 10.276,110.272 L10.276,110.272 L10.276,110.848 L11.524,110.848 L11.524,115.648 C11.524,116.544 11.724,117.216 12.124,117.664 C12.524,118.112 13.068,118.336 13.756,118.336 Z M19.756,118.312 C20.684,118.312 21.684,117.832 22.756,116.872 C22.884,117.8 23.428,118.264 24.388,118.264 C24.98,118.264 25.508,118.016 25.972,117.52 L25.972,117.52 L25.636,117.064 C25.396,117.304 25.172,117.424 24.964,117.424 C24.596,117.424 24.412,117.112 24.412,116.488 L24.412,116.488 L24.412,112.864 C24.412,111.712 24.156,110.88 23.644,110.368 C23.132,109.856 22.292,109.6 21.124,109.6 C20.324,109.6 19.616,109.78 19,110.14 C18.384,110.5 18.076,110.96 18.076,111.52 C18.076,111.76 18.156,111.96 18.316,112.12 C18.476,112.28 18.676,112.36 18.916,112.36 C19.14,112.36 19.332,112.28 19.492,112.12 C19.652,111.96 19.732,111.76 19.732,111.52 C19.732,111.168 19.88,110.888 20.176,110.68 C20.472,110.472 20.78,110.368 21.1,110.368 C21.756,110.368 22.188,110.552 22.396,110.92 C22.604,111.288 22.708,111.944 22.708,112.888 C19.3,113.48 17.596,114.616 17.596,116.296 C17.596,116.92 17.804,117.412 18.22,117.772 C18.636,118.132 19.148,118.312 19.756,118.312 Z M20.524,117.232 C20.204,117.232 19.936,117.12 19.72,116.896 C19.504,116.672 19.396,116.376 19.396,116.008 C19.396,114.936 20.5,114.144 22.708,113.632 L22.708,113.632 L22.708,116.08 C21.844,116.848 21.116,117.232 20.524,117.232 Z M31.012,124.408 C32.228,124.408 33.24,124.116 34.048,123.532 C34.856,122.948 35.26,122.168 35.26,121.192 C35.26,120.376 34.916,119.68 34.228,119.104 C33.54,118.528 32.428,118.176 30.892,118.048 C29.436,117.92 28.708,117.616 28.708,117.136 C28.708,116.672 29.604,116.336 31.396,116.128 C32.228,116.016 32.956,115.656 33.58,115.048 C34.204,114.44 34.516,113.712 34.516,112.864 C34.516,112.128 34.284,111.48 33.82,110.92 C34.076,110.664 34.324,110.536 34.564,110.536 C34.788,110.536 34.952,110.596 35.056,110.716 C35.16,110.836 35.224,110.964 35.248,111.1 C35.272,111.236 35.344,111.36 35.464,111.472 C35.584,111.584 35.764,111.632 36.004,111.616 C36.132,111.616 36.244,111.576 36.34,111.496 C36.628,111.272 36.7,110.936 36.556,110.488 C36.364,109.896 35.916,109.6 35.212,109.6 C34.94,109.6 34.624,109.688 34.264,109.864 C33.904,110.04 33.62,110.256 33.412,110.512 C32.724,109.904 31.9,109.6 30.94,109.6 C29.948,109.6 29.104,109.92 28.408,110.56 C27.712,111.2 27.364,111.968 27.364,112.864 C27.364,113.504 27.544,114.08 27.904,114.592 C28.264,115.104 28.756,115.504 29.38,115.792 C28.036,116.208 27.364,116.848 27.364,117.712 C27.364,118.976 28.5,119.72 30.772,119.944 C31.876,120.056 32.688,120.232 33.208,120.472 C33.728,120.712 33.988,121.096 33.988,121.624 C33.988,122.168 33.688,122.612 33.088,122.956 C32.488,123.3 31.796,123.472 31.012,123.472 C30.516,123.472 30.04,123.4 29.584,123.256 C29.128,123.112 28.744,122.912 28.432,122.656 C28.12,122.4 27.98,122.052 28.012,121.612 C28.044,121.172 28.292,120.688 28.756,120.16 L28.756,120.16 L28.324,119.896 C27.364,120.392 26.852,121 26.788,121.72 C26.724,122.44 27.088,123.068 27.88,123.604 C28.672,124.14 29.716,124.408 31.012,124.408 Z M30.94,115.336 C30.38,115.336 29.948,115.108 29.644,114.652 C29.34,114.196 29.188,113.6 29.188,112.864 C29.188,112.128 29.34,111.528 29.644,111.064 C29.948,110.6 30.38,110.368 30.94,110.368 C31.5,110.368 31.928,110.6 32.224,111.064 C32.52,111.528 32.668,112.128 32.668,112.864 C32.668,113.6 32.516,114.2 32.212,114.664 C31.924,115.112 31.5,115.336 30.94,115.336 Z M42.1,118.408 C42.772,118.408 43.444,118.26 44.116,117.964 C44.788,117.668 45.34,117.288 45.772,116.824 L45.772,116.824 L45.34,116.296 C45.004,116.616 44.58,116.88 44.068,117.088 C43.556,117.296 43.1,117.4 42.7,117.4 C41.516,117.4 40.664,117.028 40.144,116.284 C39.624,115.54 39.436,114.576 39.58,113.392 L39.58,113.392 L45.364,113.392 C45.652,112.384 45.452,111.5 44.764,110.74 C44.076,109.98 43.188,109.6 42.1,109.6 C40.948,109.6 39.92,110.024 39.016,110.872 C38.112,111.72 37.66,112.76 37.66,113.992 C37.66,115.224 38.076,116.268 38.908,117.124 C39.74,117.98 40.804,118.408 42.1,118.408 Z M43.708,112.504 L39.724,112.504 C39.9,111.912 40.192,111.44 40.6,111.088 C41.008,110.736 41.468,110.56 41.98,110.56 C42.7,110.56 43.208,110.772 43.504,111.196 C43.8,111.62 43.868,112.056 43.708,112.504 L43.708,112.504 Z" id="Voltage" fill="#524740" fill-rule="nonzero" transform="translate(10.612000, 113.800000) rotate(-90.000000) translate(-10.612000, -113.800000) "></path>
            <path d="M46.096,117.408 C47.632,117.408 48.948,116.86 50.044,115.764 C51.14,114.668 51.688,113.344 51.688,111.792 C51.688,110.256 51.14,108.94 50.044,107.844 C48.948,106.748 47.632,106.2 46.096,106.2 C44.56,106.2 43.24,106.752 42.136,107.856 C41.048,108.944 40.504,110.256 40.504,111.792 C40.504,113.344 41.052,114.668 42.148,115.764 C43.244,116.86 44.56,117.408 46.096,117.408 Z M46.096,116.016 C44.976,116.016 44.02,115.604 43.228,114.78 C42.436,113.956 42.04,112.96 42.04,111.792 C42.04,110.64 42.436,109.648 43.228,108.816 C44.02,107.984 44.976,107.568 46.096,107.568 C47.2,107.568 48.152,107.984 48.952,108.816 C49.752,109.648 50.152,110.64 50.152,111.792 C50.152,112.96 49.752,113.956 48.952,114.78 C48.152,115.604 47.2,116.016 46.096,116.016 Z M60.76,117.408 L66.04,105.192 C66.44,104.264 66.78,103.684 67.06,103.452 C67.34,103.22 67.952,103.104 68.896,103.104 L68.896,103.104 L68.896,102.6 L63.304,102.6 L63.304,103.104 C64.296,103.104 64.932,103.244 65.212,103.524 C65.492,103.804 65.48,104.272 65.176,104.928 L65.176,104.928 L61.144,114.264 L57.064,104.928 C56.76,104.272 56.748,103.804 57.028,103.524 C57.308,103.244 57.944,103.104 58.936,103.104 L58.936,103.104 L58.936,102.6 L52.288,102.6 L52.288,103.104 C53.232,103.104 53.844,103.22 54.124,103.452 C54.404,103.684 54.744,104.264 55.144,105.192 L55.144,105.192 L60.448,117.408 L60.76,117.408 Z" id="0V" fill="#524740" fill-rule="nonzero"></path>
            <text id="-" font-family="Lato-Regular, Lato" font-size="18" font-weight="normal" letter-spacing="0.6950497" fill="#555555">
                <tspan x="52.6179503" y="217">-</tspan>
            </text>
            <path d="M90.7460938,110.019531 C105.962263,72.7532522 117.380232,48.6777042 125,37.7928875 C136.990342,20.664719 149.054026,63 161,63 C172.969347,63 184.336965,20.5976292 196,37.7928875 C200.760945,44.8121307 205.944943,53.2640298 210.654846,63.1485848 C214.817878,71.8854356 221.017565,87.5090844 229.253906,110.019531 C246.198814,151.164281 258.828194,177.391256 267.142045,188.700454 C278.561007,204.233485 288.846992,163 300,163 C311.36674,163 323.733481,203.932963 335.100221,187.798889 C343.07795,176.475214 355.044543,150.548762 371,110.019531" id="Path-2" stroke="#23ABE3" stroke-width="2"></path>
        </g>
    </g>
</svg>