<?xml version="1.0" encoding="UTF-8"?>
<svg width="900px" height="350px" viewBox="0 0 900 350" version="1.1" xmlns="http://www.w3.org/2000/svg" xmlns:xlink="http://www.w3.org/1999/xlink">
    <!-- Generator: Sketch 60.1 (88133) - https://sketch.com -->
    <title>Triangle_Square_AC_Waveforms</title>
    <desc>Created with Sketch.</desc>
    <g id="Triangle_Square_AC_Waveforms" stroke="none" stroke-width="1" fill="none" fill-rule="evenodd">
        <g id="Illustration_Frame">
            <rect id="Rectangle" stroke="#3D3530" stroke-width="2" fill="#EEEEEE" x="1" y="1" width="898" height="348"></rect>
            <rect id="Rectangle-Copy" stroke="#3D3530" stroke-width="2" fill="#F8FAE4" x="1" y="306" width="898" height="43"></rect>
            <path d="M631.274666,335 C633.914666,335 636.022666,334.228 637.598666,332.684 C639.174666,331.14 639.962666,329.224 639.962666,326.936 C639.962666,324.632 639.178666,322.712 637.610666,321.176 C636.042666,319.64 633.930666,318.872 631.274666,318.872 L631.274666,318.872 L627.626666,318.872 L627.626666,335 L631.274666,335 Z M631.274666,333.488 L629.210666,333.488 L629.210666,320.384 L631.274666,320.384 C633.386666,320.384 635.074666,321.004 636.338666,322.244 C637.602666,323.484 638.234666,325.048 638.234666,326.936 C638.234666,328.824 637.602666,330.388 636.338666,331.628 C635.074666,332.868 633.386666,333.488 631.274666,333.488 L631.274666,333.488 Z M644.397333,319.688 C644.669333,319.688 644.893333,319.592 645.069333,319.4 C645.261333,319.208 645.357333,318.984 645.357333,318.728 C645.357333,318.472 645.265333,318.248 645.081333,318.056 C644.897333,317.864 644.669333,317.768 644.397333,317.768 C644.125333,317.768 643.897333,317.864 643.713333,318.056 C643.529333,318.248 643.437333,318.472 643.437333,318.728 C643.437333,318.984 643.529333,319.208 643.713333,319.4 C643.897333,319.592 644.125333,319.688 644.397333,319.688 Z M645.189333,335 L645.189333,323 L643.605333,323 L643.605333,335 L645.189333,335 Z M655.119999,340.112 C656.751999,340.112 658.187999,339.524 659.427999,338.348 C660.667999,337.172 661.295999,335.712 661.311999,333.968 L661.311999,333.968 L661.311999,323.024 L659.703999,323.024 L659.703999,324.968 C658.471999,323.544 656.911999,322.832 655.023999,322.832 C653.311999,322.832 651.851999,323.436 650.643999,324.644 C649.435999,325.852 648.831999,327.312 648.831999,329.024 C648.831999,330.736 649.435999,332.196 650.643999,333.404 C651.851999,334.612 653.311999,335.216 655.023999,335.216 C656.927999,335.216 658.487999,334.504 659.703999,333.08 L659.703999,333.08 L659.703999,333.968 L659.727999,333.968 C659.711999,335.216 659.259999,336.308 658.371999,337.244 C657.483999,338.18 656.399999,338.648 655.119999,338.648 C654.031999,338.648 653.063999,338.344 652.215999,337.736 C651.367999,337.128 650.791999,336.416 650.487999,335.6 L650.487999,335.6 L649.191999,336.248 C649.559999,337.24 650.267999,338.132 651.315999,338.924 C652.363999,339.716 653.631999,340.112 655.119999,340.112 Z M655.047999,333.728 C653.767999,333.728 652.679999,333.276 651.783999,332.372 C650.887999,331.468 650.439999,330.36 650.439999,329.048 C650.439999,327.736 650.887999,326.628 651.783999,325.724 C652.679999,324.82 653.767999,324.368 655.047999,324.368 C656.343999,324.368 657.435999,324.82 658.323999,325.724 C659.211999,326.628 659.655999,327.736 659.655999,329.048 C659.655999,330.36 659.211999,331.468 658.323999,332.372 C657.435999,333.276 656.343999,333.728 655.047999,333.728 Z M666.442666,319.688 C666.714666,319.688 666.938666,319.592 667.114666,319.4 C667.306666,319.208 667.402666,318.984 667.402666,318.728 C667.402666,318.472 667.310666,318.248 667.126666,318.056 C666.942666,317.864 666.714666,317.768 666.442666,317.768 C666.170666,317.768 665.942666,317.864 665.758666,318.056 C665.574666,318.248 665.482666,318.472 665.482666,318.728 C665.482666,318.984 665.574666,319.208 665.758666,319.4 C665.942666,319.592 666.170666,319.688 666.442666,319.688 Z M667.234666,335 L667.234666,323 L665.650666,323 L665.650666,335 L667.234666,335 Z M675.317333,335.192 C675.909333,335.192 676.485333,335.036 677.045333,334.724 C677.605333,334.412 677.965333,334.168 678.125333,333.992 C678.285333,333.816 678.413333,333.664 678.509333,333.536 L678.509333,333.536 L677.717333,332.312 C677.717333,332.376 677.633333,332.516 677.465333,332.732 C677.297333,332.948 677.037333,333.168 676.685333,333.392 C676.333333,333.616 675.973333,333.728 675.605333,333.728 C675.013333,333.728 674.489333,333.512 674.033333,333.08 C673.577333,332.648 673.349333,332.064 673.349333,331.328 L673.349333,331.328 L673.349333,324.44 L676.973333,324.44 L676.973333,322.976 L673.349333,322.976 L673.349333,318.992 L671.765333,319.184 L671.765333,322.976 L669.845333,322.976 L669.845333,324.44 L671.765333,324.44 L671.765333,331.688 C671.765333,332.824 672.105333,333.692 672.785333,334.292 C673.465333,334.892 674.309333,335.192 675.317333,335.192 Z M686.159999,335.192 C688.047999,335.192 689.607999,334.48 690.839999,333.056 L690.839999,333.056 L690.839999,335 L692.423999,335 L692.423999,323 L690.839999,323 L690.839999,324.944 C689.623999,323.52 688.063999,322.808 686.159999,322.808 C684.447999,322.808 682.987999,323.412 681.779999,324.62 C680.571999,325.828 679.967999,327.288 679.967999,329 C679.967999,330.712 680.571999,332.172 681.779999,333.38 C682.987999,334.588 684.447999,335.192 686.159999,335.192 Z M686.183999,333.68 C684.903999,333.68 683.811999,333.228 682.907999,332.324 C682.003999,331.42 681.551999,330.312 681.551999,329 C681.551999,327.688 682.003999,326.58 682.907999,325.676 C683.811999,324.772 684.903999,324.32 686.183999,324.32 C687.479999,324.32 688.571999,324.772 689.459999,325.676 C690.347999,326.58 690.791999,327.688 690.791999,329 C690.791999,330.312 690.347999,331.42 689.459999,332.324 C688.571999,333.228 687.479999,333.68 686.183999,333.68 Z M698.058666,335 L698.058666,317.144 L696.474666,317.144 L696.474666,335 L698.058666,335 Z M710.192,335 L712.256,329.96 L719.792,329.96 L721.856,335 L723.488,335 L716.768,318.872 L715.256,318.872 L708.536,335 L710.192,335 Z M719.144,328.376 L712.904,328.376 L716.024,320.72 L719.144,328.376 Z M732.218666,335.192 C733.786666,335.192 735.150666,334.836 736.310666,334.124 C737.470666,333.412 738.370666,332.432 739.010666,331.184 L739.010666,331.184 L737.522666,330.296 C737.026666,331.336 736.318666,332.164 735.398666,332.78 C734.478666,333.396 733.418666,333.704 732.218666,333.704 C730.394666,333.704 728.934666,333.064 727.838666,331.784 C726.742666,330.504 726.194666,328.896 726.194666,326.96 C726.194666,325.008 726.742666,323.396 727.838666,322.124 C728.934666,320.852 730.394666,320.216 732.218666,320.216 C733.402666,320.216 734.454666,320.52 735.374666,321.128 C736.294666,321.736 737.010666,322.56 737.522666,323.6 L737.522666,323.6 L739.010666,322.736 C738.370666,321.488 737.470666,320.504 736.310666,319.784 C735.150666,319.064 733.786666,318.704 732.218666,318.704 C729.850666,318.704 727.962666,319.492 726.554666,321.068 C725.146666,322.644 724.442666,324.608 724.442666,326.96 C724.442666,329.296 725.146666,331.252 726.554666,332.828 C727.962666,334.404 729.850666,335.192 732.218666,335.192 Z M756.064,335 L760.84,321.032 L765.592,335 L767.224,335 L772.792,318.872 L771.16,318.872 L766.408,332.552 L761.56,318.872 L760.096,318.872 L755.272,332.552 L750.496,318.872 L748.864,318.872 L754.456,335 L756.064,335 Z M779.098666,335.192 C780.986666,335.192 782.546666,334.48 783.778666,333.056 L783.778666,333.056 L783.778666,335 L785.362666,335 L785.362666,323 L783.778666,323 L783.778666,324.944 C782.562666,323.52 781.002666,322.808 779.098666,322.808 C777.386666,322.808 775.926666,323.412 774.718666,324.62 C773.510666,325.828 772.906666,327.288 772.906666,329 C772.906666,330.712 773.510666,332.172 774.718666,333.38 C775.926666,334.588 777.386666,335.192 779.098666,335.192 Z M779.122666,333.68 C777.842666,333.68 776.750666,333.228 775.846666,332.324 C774.942666,331.42 774.490666,330.312 774.490666,329 C774.490666,327.688 774.942666,326.58 775.846666,325.676 C776.750666,324.772 777.842666,324.32 779.122666,324.32 C780.418666,324.32 781.510666,324.772 782.398666,325.676 C783.286666,326.58 783.730666,327.688 783.730666,329 C783.730666,330.312 783.286666,331.42 782.398666,332.324 C781.510666,333.228 780.418666,333.68 779.122666,333.68 Z M793.637333,335 L797.885333,323 L796.301333,323 L792.845333,332.768 L789.413333,323 L787.829333,323 L792.053333,335 L793.637333,335 Z M805.56,335.072 C807.032,335.088 808.3,334.672 809.364,333.824 C810.428,332.976 811.144,332.048 811.512,331.04 L811.512,331.04 L810.168,330.56 C809.864,331.376 809.288,332.088 808.44,332.696 C807.592,333.304 806.632,333.608 805.56,333.608 C804.568,333.624 803.664,333.324 802.848,332.708 C802.032,332.092 801.488,331.304 801.216,330.344 L801.216,330.344 L811.704,328.448 C811.704,328.32 811.696,328.216 811.68,328.136 C811.504,326.6 810.832,325.312 809.664,324.272 C808.496,323.232 807.128,322.704 805.56,322.688 C803.832,322.704 802.368,323.312 801.168,324.512 C799.968,325.712 799.368,327.176 799.368,328.904 C799.368,329.528 799.448,330.104 799.608,330.632 C800.008,331.928 800.764,332.992 801.876,333.824 C802.988,334.656 804.216,335.072 805.56,335.072 Z M800.976,329.048 C800.976,328.968 800.972,328.868 800.964,328.748 C800.956,328.628 800.952,328.544 800.952,328.496 C801.016,327.312 801.476,326.296 802.332,325.448 C803.188,324.6 804.216,324.168 805.416,324.152 C806.44,324.136 807.368,324.436 808.2,325.052 C809.032,325.668 809.6,326.464 809.904,327.44 L809.904,327.44 L800.976,329.048 Z M816.690666,335 L816.690666,324.272 L819.042666,324.272 L819.042666,322.952 L816.690666,322.952 L816.690666,320.048 C816.690666,319.392 816.746666,318.948 816.858666,318.716 C816.970666,318.484 817.202666,318.368 817.554666,318.368 C817.874666,318.368 818.194666,318.408 818.514666,318.488 L818.514666,318.488 L818.850666,317.264 L818.634666,317.192 C818.490666,317.144 818.270666,317.096 817.974666,317.048 C817.678666,317 817.386666,316.976 817.098666,316.976 C815.786666,316.976 815.130666,317.808 815.130666,319.472 L815.130666,319.472 L815.130666,322.952 L813.714666,322.952 L813.714666,324.272 L815.130666,324.272 L815.130666,335 L816.690666,335 Z M827.125333,335.192 C828.837333,335.192 830.293333,334.584 831.493333,333.368 C832.709333,332.152 833.317333,330.696 833.317333,329 C833.317333,327.288 832.713333,325.828 831.505333,324.62 C830.297333,323.412 828.837333,322.808 827.125333,322.808 C825.413333,322.808 823.953333,323.412 822.745333,324.62 C821.537333,325.828 820.933333,327.288 820.933333,329 C820.933333,330.712 821.537333,332.172 822.745333,333.38 C823.953333,334.588 825.413333,335.192 827.125333,335.192 Z M827.149333,333.68 C825.869333,333.68 824.781333,333.228 823.885333,332.324 C822.989333,331.42 822.541333,330.312 822.541333,329 C822.541333,327.688 822.989333,326.576 823.885333,325.664 C824.781333,324.752 825.869333,324.296 827.149333,324.296 C828.445333,324.296 829.537333,324.752 830.425333,325.664 C831.313333,326.576 831.757333,327.688 831.757333,329 C831.757333,330.312 831.313333,331.42 830.425333,332.324 C829.537333,333.228 828.445333,333.68 827.149333,333.68 Z M837.944,335 L837.944,327.968 C837.944,326.928 838.288,326.052 838.976,325.34 C839.664,324.628 840.512,324.272 841.52,324.272 C842.208,324.272 842.888,324.52 843.56,325.016 L843.56,325.016 L844.112,323.432 C843.408,323.016 842.632,322.808 841.784,322.808 C840.2,322.808 838.92,323.464 837.944,324.776 L837.944,324.776 L837.944,323 L836.36,323 L836.36,335 L837.944,335 Z M848.498667,335 L848.498667,327.968 C848.498667,326.944 848.846667,326.072 849.542667,325.352 C850.238667,324.632 851.082667,324.272 852.074667,324.272 C853.066667,324.272 853.910667,324.632 854.606667,325.352 C855.302667,326.072 855.650667,326.944 855.650667,327.968 L855.650667,327.968 L855.650667,335 L857.258667,335 L857.258667,327.968 C857.258667,326.928 857.602667,326.052 858.290667,325.34 C858.978667,324.628 859.826667,324.272 860.834667,324.272 C861.842667,324.272 862.686667,324.628 863.366667,325.34 C864.046667,326.052 864.386667,326.928 864.386667,327.968 L864.386667,327.968 L864.386667,335 L866.018667,335 L866.018667,327.92 C866.018667,326.48 865.546667,325.268 864.602667,324.284 C863.658667,323.3 862.490667,322.808 861.098667,322.808 C860.106667,322.808 859.218667,323.04 858.434667,323.504 C857.650667,323.968 857.050667,324.592 856.634667,325.376 C856.202667,324.592 855.606667,323.968 854.846667,323.504 C854.086667,323.04 853.250667,322.808 852.338667,322.808 C850.754667,322.808 849.474667,323.464 848.498667,324.776 L848.498667,324.776 L848.498667,323 L846.914667,323 L846.914667,335 L848.498667,335 Z M873.933333,335.192 C875.405333,335.192 876.509333,334.88 877.245333,334.256 C877.981333,333.632 878.349333,332.816 878.349333,331.808 C878.349333,331.088 878.085333,330.476 877.557333,329.972 C877.029333,329.468 876.385333,329.084 875.625333,328.82 C874.865333,328.556 874.109333,328.312 873.357333,328.088 C872.605333,327.864 871.965333,327.596 871.437333,327.284 C870.909333,326.972 870.645333,326.6 870.645333,326.168 C870.645333,325.56 870.913333,325.088 871.449333,324.752 C871.985333,324.416 872.685333,324.248 873.549333,324.248 C874.157333,324.248 874.765333,324.384 875.373333,324.656 C875.981333,324.928 876.385333,325.144 876.585333,325.304 C876.785333,325.464 876.941333,325.6 877.053333,325.712 L877.053333,325.712 L878.181333,324.728 L877.677333,324.248 C877.341333,323.928 876.789333,323.608 876.021333,323.288 C875.253333,322.968 874.437333,322.808 873.573333,322.808 C872.117333,322.808 871.017333,323.124 870.273333,323.756 C869.529333,324.388 869.157333,325.2 869.157333,326.192 C869.157333,326.912 869.421333,327.52 869.949333,328.016 C870.477333,328.512 871.121333,328.896 871.881333,329.168 C872.641333,329.44 873.397333,329.688 874.149333,329.912 C874.901333,330.136 875.541333,330.404 876.069333,330.716 C876.597333,331.028 876.861333,331.4 876.861333,331.832 C876.861333,332.44 876.597333,332.912 876.069333,333.248 C875.541333,333.584 874.837333,333.752 873.957333,333.752 C873.365333,333.752 872.765333,333.616 872.157333,333.344 C871.549333,333.072 871.145333,332.856 870.945333,332.696 C870.745333,332.536 870.589333,332.4 870.477333,332.288 L870.477333,332.288 L869.349333,333.248 L869.541333,333.464 C869.669333,333.592 869.869333,333.752 870.141333,333.944 C870.413333,334.136 870.721333,334.324 871.065333,334.508 C871.409333,334.692 871.837333,334.852 872.349333,334.988 C872.861333,335.124 873.389333,335.192 873.933333,335.192 Z" id="DigitalACWaveforms" fill="#23ABE3" fill-rule="nonzero"></path>
        </g>
        <g transform="translate(61.000000, 21.000000)">
            <g id="Alternating_Current-Copy-3">
                <line x1="90" y1="12" x2="90" y2="212" id="Line-7-Copy-2" stroke="#524740" stroke-width="2" stroke-linecap="square"></line>
                <line x1="387" y1="111" x2="74" y2="111" id="Line-7-Copy-6" stroke="#524740" stroke-width="2" stroke-linecap="square"></line>
                <text id="+" font-family="Lato-Regular, Lato" font-size="18" font-weight="normal" letter-spacing="0.6950497" fill="#555555">
                    <tspan x="48.8649503" y="18">+</tspan>
                </text>
                <path d="M149.756,255 L149.756,254.496 C148.764,254.496 148.132,254.328 147.86,253.992 C147.588,253.656 147.452,252.888 147.452,251.688 L147.452,251.688 L147.452,241.536 L150.596,241.536 C151.62,241.536 152.292,241.66 152.612,241.908 C152.932,242.156 153.188,242.64 153.38,243.36 L153.38,243.36 L153.5,243.84 L154.004,243.84 L153.788,240.6 L139.22,240.6 L139.004,243.84 L139.508,243.84 L139.628,243.36 C139.82,242.64 140.076,242.156 140.396,241.908 C140.716,241.66 141.388,241.536 142.412,241.536 L142.412,241.536 L145.556,241.536 L145.556,251.688 C145.556,252.888 145.42,253.656 145.148,253.992 C144.876,254.328 144.244,254.496 143.252,254.496 L143.252,254.496 L143.252,255 L149.756,255 Z M160.604,255 L160.604,254.496 C159.804,254.496 159.288,254.328 159.056,253.992 C158.824,253.656 158.708,252.888 158.708,251.688 L158.708,251.688 L158.708,250.368 C158.708,249.52 158.924,248.84 159.356,248.328 C159.788,247.816 160.188,247.56 160.556,247.56 C161.068,247.56 161.324,247.824 161.324,248.352 C161.324,248.576 161.408,248.776 161.576,248.952 C161.744,249.128 161.94,249.216 162.164,249.216 C162.804,249.216 163.124,248.84 163.124,248.088 C163.124,247.736 162.96,247.4 162.632,247.08 C162.304,246.76 161.836,246.6 161.228,246.6 C160.748,246.6 160.268,246.768 159.788,247.104 C159.308,247.44 158.948,247.848 158.708,248.328 C158.58,247.48 158.444,246.904 158.3,246.6 L158.3,246.6 L155.108,247.2 L155.108,247.704 C155.908,247.704 156.424,247.872 156.656,248.208 C156.888,248.544 157.004,249.304 157.004,250.488 L157.004,250.488 L157.004,251.688 C157.004,252.888 156.888,253.656 156.656,253.992 C156.424,254.328 155.908,254.496 155.108,254.496 L155.108,254.496 L155.108,255 L160.604,255 Z M167.276,244.248 C167.564,244.248 167.812,244.144 168.02,243.936 C168.228,243.728 168.332,243.472 168.332,243.168 C168.332,242.88 168.228,242.632 168.02,242.424 C167.812,242.216 167.564,242.112 167.276,242.112 C166.988,242.112 166.74,242.216 166.532,242.424 C166.324,242.632 166.22,242.88 166.22,243.168 C166.22,243.472 166.324,243.728 166.532,243.936 C166.74,244.144 166.988,244.248 167.276,244.248 Z M170.036,255 L170.036,254.496 C169.236,254.496 168.72,254.328 168.488,253.992 C168.256,253.656 168.14,252.888 168.14,251.688 L168.14,251.688 L168.14,246.6 L164.54,247.2 L164.54,247.704 C165.34,247.704 165.856,247.872 166.088,248.208 C166.32,248.544 166.436,249.304 166.436,250.488 L166.436,250.488 L166.436,251.688 C166.436,252.888 166.32,253.656 166.088,253.992 C165.856,254.328 165.34,254.496 164.54,254.496 L164.54,254.496 L164.54,255 L170.036,255 Z M173.564,255.312 C174.492,255.312 175.492,254.832 176.564,253.872 C176.692,254.8 177.236,255.264 178.196,255.264 C178.788,255.264 179.316,255.016 179.78,254.52 L179.78,254.52 L179.444,254.064 C179.204,254.304 178.98,254.424 178.772,254.424 C178.404,254.424 178.22,254.112 178.22,253.488 L178.22,253.488 L178.22,249.864 C178.22,248.712 177.964,247.88 177.452,247.368 C176.94,246.856 176.1,246.6 174.932,246.6 C174.132,246.6 173.424,246.78 172.808,247.14 C172.192,247.5 171.884,247.96 171.884,248.52 C171.884,248.76 171.964,248.96 172.124,249.12 C172.284,249.28 172.484,249.36 172.724,249.36 C172.948,249.36 173.14,249.28 173.3,249.12 C173.46,248.96 173.54,248.76 173.54,248.52 C173.54,248.168 173.688,247.888 173.984,247.68 C174.28,247.472 174.588,247.368 174.908,247.368 C175.564,247.368 175.996,247.552 176.204,247.92 C176.412,248.288 176.516,248.944 176.516,249.888 C173.108,250.48 171.404,251.616 171.404,253.296 C171.404,253.92 171.612,254.412 172.028,254.772 C172.444,255.132 172.956,255.312 173.564,255.312 Z M174.332,254.232 C174.012,254.232 173.744,254.12 173.528,253.896 C173.312,253.672 173.204,253.376 173.204,253.008 C173.204,251.936 174.308,251.144 176.516,250.632 L176.516,250.632 L176.516,253.08 C175.652,253.848 174.924,254.232 174.332,254.232 Z M186.356,255 L186.356,254.496 C185.62,254.496 185.156,254.336 184.964,254.016 C184.772,253.696 184.676,252.92 184.676,251.688 L184.676,251.688 L184.676,250.128 C184.676,249.488 184.964,248.928 185.54,248.448 C186.116,247.968 186.748,247.728 187.436,247.728 C188.764,247.728 189.428,248.584 189.428,250.296 L189.428,250.296 L189.428,251.688 C189.428,252.872 189.308,253.636 189.068,253.98 C188.828,254.324 188.316,254.496 187.532,254.496 L187.532,254.496 L187.532,255 L193.028,255 L193.028,254.496 C192.228,254.496 191.712,254.328 191.48,253.992 C191.248,253.656 191.132,252.888 191.132,251.688 L191.132,251.688 L191.132,250.176 C191.132,249.104 190.872,248.24 190.352,247.584 C189.832,246.928 189.052,246.6 188.012,246.6 C186.7,246.6 185.588,247.176 184.676,248.328 C184.548,247.48 184.412,246.904 184.268,246.6 L184.268,246.6 L181.076,247.2 L181.076,247.704 C181.876,247.704 182.392,247.872 182.624,248.208 C182.856,248.544 182.972,249.304 182.972,250.488 L182.972,250.488 L182.972,251.688 C182.972,252.888 182.856,253.656 182.624,253.992 C182.392,254.328 181.876,254.496 181.076,254.496 L181.076,254.496 L181.076,255 L186.356,255 Z M198.14,261.408 C199.356,261.408 200.368,261.116 201.176,260.532 C201.984,259.948 202.388,259.168 202.388,258.192 C202.388,257.376 202.044,256.68 201.356,256.104 C200.668,255.528 199.556,255.176 198.02,255.048 C196.564,254.92 195.836,254.616 195.836,254.136 C195.836,253.672 196.732,253.336 198.524,253.128 C199.356,253.016 200.084,252.656 200.708,252.048 C201.332,251.44 201.644,250.712 201.644,249.864 C201.644,249.128 201.412,248.48 200.948,247.92 C201.204,247.664 201.452,247.536 201.692,247.536 C201.916,247.536 202.08,247.596 202.184,247.716 C202.288,247.836 202.352,247.964 202.376,248.1 C202.4,248.236 202.472,248.36 202.592,248.472 C202.712,248.584 202.892,248.632 203.132,248.616 C203.26,248.616 203.372,248.576 203.468,248.496 C203.756,248.272 203.828,247.936 203.684,247.488 C203.492,246.896 203.044,246.6 202.34,246.6 C202.068,246.6 201.752,246.688 201.392,246.864 C201.032,247.04 200.748,247.256 200.54,247.512 C199.852,246.904 199.028,246.6 198.068,246.6 C197.076,246.6 196.232,246.92 195.536,247.56 C194.84,248.2 194.492,248.968 194.492,249.864 C194.492,250.504 194.672,251.08 195.032,251.592 C195.392,252.104 195.884,252.504 196.508,252.792 C195.164,253.208 194.492,253.848 194.492,254.712 C194.492,255.976 195.628,256.72 197.9,256.944 C199.004,257.056 199.816,257.232 200.336,257.472 C200.856,257.712 201.116,258.096 201.116,258.624 C201.116,259.168 200.816,259.612 200.216,259.956 C199.616,260.3 198.924,260.472 198.14,260.472 C197.644,260.472 197.168,260.4 196.712,260.256 C196.256,260.112 195.872,259.912 195.56,259.656 C195.248,259.4 195.108,259.052 195.14,258.612 C195.172,258.172 195.42,257.688 195.884,257.16 L195.884,257.16 L195.452,256.896 C194.492,257.392 193.98,258 193.916,258.72 C193.852,259.44 194.216,260.068 195.008,260.604 C195.8,261.14 196.844,261.408 198.14,261.408 Z M198.068,252.336 C197.508,252.336 197.076,252.108 196.772,251.652 C196.468,251.196 196.316,250.6 196.316,249.864 C196.316,249.128 196.468,248.528 196.772,248.064 C197.076,247.6 197.508,247.368 198.068,247.368 C198.628,247.368 199.056,247.6 199.352,248.064 C199.648,248.528 199.796,249.128 199.796,249.864 C199.796,250.6 199.644,251.2 199.34,251.664 C199.052,252.112 198.628,252.336 198.068,252.336 Z M209.588,255 L209.588,254.496 C208.788,254.496 208.272,254.328 208.04,253.992 C207.808,253.656 207.692,252.888 207.692,251.688 L207.692,251.688 L207.692,240.192 L204.092,240.792 L204.092,241.296 C204.892,241.296 205.408,241.464 205.64,241.8 C205.872,242.136 205.988,242.904 205.988,244.104 L205.988,244.104 L205.988,251.688 C205.988,252.888 205.872,253.656 205.64,253.992 C205.408,254.328 204.892,254.496 204.092,254.496 L204.092,254.496 L204.092,255 L209.588,255 Z M215.66,255.408 C216.332,255.408 217.004,255.26 217.676,254.964 C218.348,254.668 218.9,254.288 219.332,253.824 L219.332,253.824 L218.9,253.296 C218.564,253.616 218.14,253.88 217.628,254.088 C217.116,254.296 216.66,254.4 216.26,254.4 C215.076,254.4 214.224,254.028 213.704,253.284 C213.184,252.54 212.996,251.576 213.14,250.392 L213.14,250.392 L218.924,250.392 C219.212,249.384 219.012,248.5 218.324,247.74 C217.636,246.98 216.748,246.6 215.66,246.6 C214.508,246.6 213.48,247.024 212.576,247.872 C211.672,248.72 211.22,249.76 211.22,250.992 C211.22,252.224 211.636,253.268 212.468,254.124 C213.3,254.98 214.364,255.408 215.66,255.408 Z M217.268,249.504 L213.284,249.504 C213.46,248.912 213.752,248.44 214.16,248.088 C214.568,247.736 215.028,247.56 215.54,247.56 C216.26,247.56 216.768,247.772 217.064,248.196 C217.36,248.62 217.428,249.056 217.268,249.504 L217.268,249.504 Z M231.932,255.408 L235.316,244.776 L238.676,255.408 L238.988,255.408 L242.876,243.192 C243.148,242.344 243.452,241.784 243.788,241.512 C244.124,241.24 244.772,241.104 245.732,241.104 L245.732,241.104 L245.732,240.6 L240.332,240.6 L240.332,241.104 C241.18,241.104 241.724,241.24 241.964,241.512 C242.204,241.784 242.22,242.256 242.012,242.928 L242.012,242.928 L239.396,251.184 L236.036,240.6 L235.7,240.6 L232.34,251.208 L229.7,242.928 C229.492,242.24 229.512,241.764 229.76,241.5 C230.008,241.236 230.62,241.104 231.596,241.104 L231.596,241.104 L231.596,240.6 L224.876,240.6 L224.876,241.104 C225.852,241.104 226.5,241.224 226.82,241.464 C227.14,241.704 227.444,242.28 227.732,243.192 L227.732,243.192 L231.62,255.408 L231.932,255.408 Z M247.892,255.312 C248.82,255.312 249.82,254.832 250.892,253.872 C251.02,254.8 251.564,255.264 252.524,255.264 C253.116,255.264 253.644,255.016 254.108,254.52 L254.108,254.52 L253.772,254.064 C253.532,254.304 253.308,254.424 253.1,254.424 C252.732,254.424 252.548,254.112 252.548,253.488 L252.548,253.488 L252.548,249.864 C252.548,248.712 252.292,247.88 251.78,247.368 C251.268,246.856 250.428,246.6 249.26,246.6 C248.46,246.6 247.752,246.78 247.136,247.14 C246.52,247.5 246.212,247.96 246.212,248.52 C246.212,248.76 246.292,248.96 246.452,249.12 C246.612,249.28 246.812,249.36 247.052,249.36 C247.276,249.36 247.468,249.28 247.628,249.12 C247.788,248.96 247.868,248.76 247.868,248.52 C247.868,248.168 248.016,247.888 248.312,247.68 C248.608,247.472 248.916,247.368 249.236,247.368 C249.892,247.368 250.324,247.552 250.532,247.92 C250.74,248.288 250.844,248.944 250.844,249.888 C247.436,250.48 245.732,251.616 245.732,253.296 C245.732,253.92 245.94,254.412 246.356,254.772 C246.772,255.132 247.284,255.312 247.892,255.312 Z M248.66,254.232 C248.34,254.232 248.072,254.12 247.856,253.896 C247.64,253.672 247.532,253.376 247.532,253.008 C247.532,251.936 248.636,251.144 250.844,250.632 L250.844,250.632 L250.844,253.08 C249.98,253.848 249.252,254.232 248.66,254.232 Z M259.316,255.432 L262.028,248.904 C262.252,248.376 262.488,248.008 262.736,247.8 C262.984,247.592 263.316,247.488 263.732,247.488 L263.732,247.488 L263.732,247.008 L260.372,247.008 L260.372,247.488 C260.884,247.488 261.188,247.596 261.284,247.812 C261.38,248.028 261.308,248.392 261.068,248.904 L261.068,248.904 L259.484,252.744 L257.78,248.904 C257.54,248.328 257.468,247.948 257.564,247.764 C257.66,247.58 257.98,247.488 258.524,247.488 L258.524,247.488 L258.524,247.008 L254.276,247.008 L254.276,247.488 C254.66,247.488 254.968,247.592 255.2,247.8 C255.432,248.008 255.668,248.376 255.908,248.904 L255.908,248.904 L258.836,255.432 L259.316,255.432 Z M269.036,255.408 C269.708,255.408 270.38,255.26 271.052,254.964 C271.724,254.668 272.276,254.288 272.708,253.824 L272.708,253.824 L272.276,253.296 C271.94,253.616 271.516,253.88 271.004,254.088 C270.492,254.296 270.036,254.4 269.636,254.4 C268.452,254.4 267.6,254.028 267.08,253.284 C266.56,252.54 266.372,251.576 266.516,250.392 L266.516,250.392 L272.3,250.392 C272.588,249.384 272.388,248.5 271.7,247.74 C271.012,246.98 270.124,246.6 269.036,246.6 C267.884,246.6 266.856,247.024 265.952,247.872 C265.048,248.72 264.596,249.76 264.596,250.992 C264.596,252.224 265.012,253.268 265.844,254.124 C266.676,254.98 267.74,255.408 269.036,255.408 Z M270.644,249.504 L266.66,249.504 C266.836,248.912 267.128,248.44 267.536,248.088 C267.944,247.736 268.404,247.56 268.916,247.56 C269.636,247.56 270.144,247.772 270.44,248.196 C270.736,248.62 270.804,249.056 270.644,249.504 L270.644,249.504 Z M279.98,255 L279.98,254.496 C279.18,254.496 278.664,254.328 278.432,253.992 C278.2,253.656 278.084,252.888 278.084,251.688 L278.084,251.688 L278.084,247.848 L280.484,247.848 L280.484,247.008 L278.084,247.008 L278.084,244.704 C278.084,243.36 278.228,242.404 278.516,241.836 C278.804,241.268 279.26,240.984 279.884,240.984 C280.22,240.984 280.484,241.08 280.676,241.272 C280.868,241.464 280.988,241.676 281.036,241.908 C281.084,242.14 281.18,242.352 281.324,242.544 C281.468,242.736 281.668,242.832 281.924,242.832 C282.18,242.832 282.376,242.752 282.512,242.592 C282.648,242.432 282.716,242.224 282.716,241.968 C282.716,241.536 282.5,241.132 282.068,240.756 C281.636,240.38 281.052,240.192 280.316,240.192 C279.212,240.192 278.28,240.564 277.52,241.308 C276.76,242.052 276.38,243.184 276.38,244.704 L276.38,244.704 L276.38,247.008 L274.412,247.008 L274.412,247.848 L276.38,247.848 L276.38,251.688 C276.38,252.888 276.264,253.656 276.032,253.992 C275.8,254.328 275.284,254.496 274.484,254.496 L274.484,254.496 L274.484,255 L279.98,255 Z M287.084,255.408 C288.412,255.408 289.552,254.976 290.504,254.112 C291.456,253.248 291.932,252.208 291.932,250.992 C291.932,249.776 291.452,248.744 290.492,247.896 C289.548,247.032 288.412,246.6 287.084,246.6 C285.756,246.6 284.616,247.028 283.664,247.884 C282.712,248.74 282.236,249.776 282.236,250.992 C282.236,252.208 282.712,253.248 283.664,254.112 C284.616,254.976 285.756,255.408 287.084,255.408 Z M287.084,254.472 C286.14,254.472 285.42,254.144 284.924,253.488 C284.428,252.832 284.18,252 284.18,250.992 C284.18,249.984 284.428,249.152 284.924,248.496 C285.42,247.84 286.14,247.512 287.084,247.512 C288.028,247.512 288.748,247.836 289.244,248.484 C289.74,249.132 289.988,249.968 289.988,250.992 C289.988,252.016 289.74,252.856 289.244,253.512 C288.748,254.152 288.028,254.472 287.084,254.472 Z M299.492,255 L299.492,254.496 C298.692,254.496 298.176,254.328 297.944,253.992 C297.712,253.656 297.596,252.888 297.596,251.688 L297.596,251.688 L297.596,250.368 C297.596,249.52 297.812,248.84 298.244,248.328 C298.676,247.816 299.076,247.56 299.444,247.56 C299.956,247.56 300.212,247.824 300.212,248.352 C300.212,248.576 300.296,248.776 300.464,248.952 C300.632,249.128 300.828,249.216 301.052,249.216 C301.692,249.216 302.012,248.84 302.012,248.088 C302.012,247.736 301.848,247.4 301.52,247.08 C301.192,246.76 300.724,246.6 300.116,246.6 C299.636,246.6 299.156,246.768 298.676,247.104 C298.196,247.44 297.836,247.848 297.596,248.328 C297.468,247.48 297.332,246.904 297.188,246.6 L297.188,246.6 L293.996,247.2 L293.996,247.704 C294.796,247.704 295.312,247.872 295.544,248.208 C295.776,248.544 295.892,249.304 295.892,250.488 L295.892,250.488 L295.892,251.688 C295.892,252.888 295.776,253.656 295.544,253.992 C295.312,254.328 294.796,254.496 293.996,254.496 L293.996,254.496 L293.996,255 L299.492,255 Z M308.516,255 L308.516,254.496 C307.86,254.496 307.448,254.34 307.28,254.028 C307.112,253.716 307.028,252.936 307.028,251.688 L307.028,251.688 L307.028,250.128 C307.028,249.456 307.316,248.888 307.892,248.424 C308.468,247.96 309.004,247.728 309.5,247.728 C310.652,247.728 311.228,248.584 311.228,250.296 L311.228,250.296 L311.228,251.688 C311.228,252.952 311.144,253.736 310.976,254.04 C310.808,254.344 310.388,254.496 309.716,254.496 L309.716,254.496 L309.716,255 L314.42,255 L314.42,254.496 C313.748,254.496 313.328,254.344 313.16,254.04 C312.992,253.736 312.908,252.952 312.908,251.688 L312.908,251.688 L312.908,250.128 C312.908,249.456 313.2,248.888 313.784,248.424 C314.368,247.96 314.908,247.728 315.404,247.728 C316.54,247.728 317.108,248.584 317.108,250.296 L317.108,250.296 L317.108,251.688 C317.108,252.952 317.028,253.736 316.868,254.04 C316.708,254.344 316.292,254.496 315.62,254.496 L315.62,254.496 L315.62,255 L320.708,255 L320.708,254.496 C319.908,254.496 319.392,254.328 319.16,253.992 C318.928,253.656 318.812,252.888 318.812,251.688 L318.812,251.688 L318.812,250.176 C318.812,247.792 317.892,246.6 316.052,246.6 C315.396,246.6 314.752,246.788 314.12,247.164 C313.488,247.54 313.012,247.952 312.692,248.4 C312.324,247.2 311.476,246.6 310.148,246.6 C308.98,246.6 307.94,247.176 307.028,248.328 C306.9,247.48 306.764,246.904 306.62,246.6 L306.62,246.6 L303.428,247.2 L303.428,247.704 C304.228,247.704 304.744,247.872 304.976,248.208 C305.208,248.544 305.324,249.304 305.324,250.488 L305.324,250.488 L305.324,251.688 C305.324,252.888 305.208,253.656 304.976,253.992 C304.744,254.328 304.228,254.496 303.428,254.496 L303.428,254.496 L303.428,255 L308.516,255 Z" id="TriangleWaveform" fill="#524740" fill-rule="nonzero"></path>
                <path d="M-16.076,118.408 L-10.796,106.192 C-10.396,105.264 -10.056,104.684 -9.776,104.452 C-9.496,104.22 -8.884,104.104 -7.94,104.104 L-7.94,104.104 L-7.94,103.6 L-13.532,103.6 L-13.532,104.104 C-12.54,104.104 -11.904,104.244 -11.624,104.524 C-11.344,104.804 -11.356,105.272 -11.66,105.928 L-11.66,105.928 L-15.692,115.264 L-19.772,105.928 C-20.076,105.272 -20.088,104.804 -19.808,104.524 C-19.528,104.244 -18.892,104.104 -17.9,104.104 L-17.9,104.104 L-17.9,103.6 L-24.548,103.6 L-24.548,104.104 C-23.604,104.104 -22.992,104.22 -22.712,104.452 C-22.432,104.684 -22.092,105.264 -21.692,106.192 L-21.692,106.192 L-16.388,118.408 L-16.076,118.408 Z M-2.828,118.408 C-1.5,118.408 -0.36,117.976 0.592,117.112 C1.544,116.248 2.02,115.208 2.02,113.992 C2.02,112.776 1.54,111.744 0.58,110.896 C-0.364,110.032 -1.5,109.6 -2.828,109.6 C-4.156,109.6 -5.296,110.028 -6.248,110.884 C-7.2,111.74 -7.676,112.776 -7.676,113.992 C-7.676,115.208 -7.2,116.248 -6.248,117.112 C-5.296,117.976 -4.156,118.408 -2.828,118.408 Z M-2.828,117.472 C-3.772,117.472 -4.492,117.144 -4.988,116.488 C-5.484,115.832 -5.732,115 -5.732,113.992 C-5.732,112.984 -5.484,112.152 -4.988,111.496 C-4.492,110.84 -3.772,110.512 -2.828,110.512 C-1.884,110.512 -1.164,110.836 -0.668,111.484 C-0.172,112.132 0.076,112.968 0.076,113.992 C0.076,115.016 -0.172,115.856 -0.668,116.512 C-1.164,117.152 -1.884,117.472 -2.828,117.472 Z M9.124,118 L9.124,117.496 C8.324,117.496 7.808,117.328 7.576,116.992 C7.344,116.656 7.228,115.888 7.228,114.688 L7.228,114.688 L7.228,103.192 L3.628,103.792 L3.628,104.296 C4.428,104.296 4.944,104.464 5.176,104.8 C5.408,105.136 5.524,105.904 5.524,107.104 L5.524,107.104 L5.524,114.688 C5.524,115.888 5.408,116.656 5.176,116.992 C4.944,117.328 4.428,117.496 3.628,117.496 L3.628,117.496 L3.628,118 L9.124,118 Z M13.756,118.336 C14.156,118.336 14.592,118.208 15.064,117.952 C15.536,117.696 15.94,117.368 16.276,116.968 L16.276,116.968 L15.868,116.56 C15.292,117.104 14.772,117.376 14.308,117.376 C13.588,117.376 13.228,116.8 13.228,115.648 L13.228,115.648 L13.228,110.848 L15.316,110.848 L15.316,110.008 L13.228,110.008 L13.228,107.368 L12.412,107.368 C12.316,108.2 12.108,108.856 11.788,109.336 C11.468,109.816 10.964,110.128 10.276,110.272 L10.276,110.272 L10.276,110.848 L11.524,110.848 L11.524,115.648 C11.524,116.544 11.724,117.216 12.124,117.664 C12.524,118.112 13.068,118.336 13.756,118.336 Z M19.756,118.312 C20.684,118.312 21.684,117.832 22.756,116.872 C22.884,117.8 23.428,118.264 24.388,118.264 C24.98,118.264 25.508,118.016 25.972,117.52 L25.972,117.52 L25.636,117.064 C25.396,117.304 25.172,117.424 24.964,117.424 C24.596,117.424 24.412,117.112 24.412,116.488 L24.412,116.488 L24.412,112.864 C24.412,111.712 24.156,110.88 23.644,110.368 C23.132,109.856 22.292,109.6 21.124,109.6 C20.324,109.6 19.616,109.78 19,110.14 C18.384,110.5 18.076,110.96 18.076,111.52 C18.076,111.76 18.156,111.96 18.316,112.12 C18.476,112.28 18.676,112.36 18.916,112.36 C19.14,112.36 19.332,112.28 19.492,112.12 C19.652,111.96 19.732,111.76 19.732,111.52 C19.732,111.168 19.88,110.888 20.176,110.68 C20.472,110.472 20.78,110.368 21.1,110.368 C21.756,110.368 22.188,110.552 22.396,110.92 C22.604,111.288 22.708,111.944 22.708,112.888 C19.3,113.48 17.596,114.616 17.596,116.296 C17.596,116.92 17.804,117.412 18.22,117.772 C18.636,118.132 19.148,118.312 19.756,118.312 Z M20.524,117.232 C20.204,117.232 19.936,117.12 19.72,116.896 C19.504,116.672 19.396,116.376 19.396,116.008 C19.396,114.936 20.5,114.144 22.708,113.632 L22.708,113.632 L22.708,116.08 C21.844,116.848 21.116,117.232 20.524,117.232 Z M31.012,124.408 C32.228,124.408 33.24,124.116 34.048,123.532 C34.856,122.948 35.26,122.168 35.26,121.192 C35.26,120.376 34.916,119.68 34.228,119.104 C33.54,118.528 32.428,118.176 30.892,118.048 C29.436,117.92 28.708,117.616 28.708,117.136 C28.708,116.672 29.604,116.336 31.396,116.128 C32.228,116.016 32.956,115.656 33.58,115.048 C34.204,114.44 34.516,113.712 34.516,112.864 C34.516,112.128 34.284,111.48 33.82,110.92 C34.076,110.664 34.324,110.536 34.564,110.536 C34.788,110.536 34.952,110.596 35.056,110.716 C35.16,110.836 35.224,110.964 35.248,111.1 C35.272,111.236 35.344,111.36 35.464,111.472 C35.584,111.584 35.764,111.632 36.004,111.616 C36.132,111.616 36.244,111.576 36.34,111.496 C36.628,111.272 36.7,110.936 36.556,110.488 C36.364,109.896 35.916,109.6 35.212,109.6 C34.94,109.6 34.624,109.688 34.264,109.864 C33.904,110.04 33.62,110.256 33.412,110.512 C32.724,109.904 31.9,109.6 30.94,109.6 C29.948,109.6 29.104,109.92 28.408,110.56 C27.712,111.2 27.364,111.968 27.364,112.864 C27.364,113.504 27.544,114.08 27.904,114.592 C28.264,115.104 28.756,115.504 29.38,115.792 C28.036,116.208 27.364,116.848 27.364,117.712 C27.364,118.976 28.5,119.72 30.772,119.944 C31.876,120.056 32.688,120.232 33.208,120.472 C33.728,120.712 33.988,121.096 33.988,121.624 C33.988,122.168 33.688,122.612 33.088,122.956 C32.488,123.3 31.796,123.472 31.012,123.472 C30.516,123.472 30.04,123.4 29.584,123.256 C29.128,123.112 28.744,122.912 28.432,122.656 C28.12,122.4 27.98,122.052 28.012,121.612 C28.044,121.172 28.292,120.688 28.756,120.16 L28.756,120.16 L28.324,119.896 C27.364,120.392 26.852,121 26.788,121.72 C26.724,122.44 27.088,123.068 27.88,123.604 C28.672,124.14 29.716,124.408 31.012,124.408 Z M30.94,115.336 C30.38,115.336 29.948,115.108 29.644,114.652 C29.34,114.196 29.188,113.6 29.188,112.864 C29.188,112.128 29.34,111.528 29.644,111.064 C29.948,110.6 30.38,110.368 30.94,110.368 C31.5,110.368 31.928,110.6 32.224,111.064 C32.52,111.528 32.668,112.128 32.668,112.864 C32.668,113.6 32.516,114.2 32.212,114.664 C31.924,115.112 31.5,115.336 30.94,115.336 Z M42.1,118.408 C42.772,118.408 43.444,118.26 44.116,117.964 C44.788,117.668 45.34,117.288 45.772,116.824 L45.772,116.824 L45.34,116.296 C45.004,116.616 44.58,116.88 44.068,117.088 C43.556,117.296 43.1,117.4 42.7,117.4 C41.516,117.4 40.664,117.028 40.144,116.284 C39.624,115.54 39.436,114.576 39.58,113.392 L39.58,113.392 L45.364,113.392 C45.652,112.384 45.452,111.5 44.764,110.74 C44.076,109.98 43.188,109.6 42.1,109.6 C40.948,109.6 39.92,110.024 39.016,110.872 C38.112,111.72 37.66,112.76 37.66,113.992 C37.66,115.224 38.076,116.268 38.908,117.124 C39.74,117.98 40.804,118.408 42.1,118.408 Z M43.708,112.504 L39.724,112.504 C39.9,111.912 40.192,111.44 40.6,111.088 C41.008,110.736 41.468,110.56 41.98,110.56 C42.7,110.56 43.208,110.772 43.504,111.196 C43.8,111.62 43.868,112.056 43.708,112.504 L43.708,112.504 Z" id="Voltage" fill="#524740" fill-rule="nonzero" transform="translate(10.612000, 113.800000) rotate(-90.000000) translate(-10.612000, -113.800000) "></path>
                <path d="M46.096,117.408 C47.632,117.408 48.948,116.86 50.044,115.764 C51.14,114.668 51.688,113.344 51.688,111.792 C51.688,110.256 51.14,108.94 50.044,107.844 C48.948,106.748 47.632,106.2 46.096,106.2 C44.56,106.2 43.24,106.752 42.136,107.856 C41.048,108.944 40.504,110.256 40.504,111.792 C40.504,113.344 41.052,114.668 42.148,115.764 C43.244,116.86 44.56,117.408 46.096,117.408 Z M46.096,116.016 C44.976,116.016 44.02,115.604 43.228,114.78 C42.436,113.956 42.04,112.96 42.04,111.792 C42.04,110.64 42.436,109.648 43.228,108.816 C44.02,107.984 44.976,107.568 46.096,107.568 C47.2,107.568 48.152,107.984 48.952,108.816 C49.752,109.648 50.152,110.64 50.152,111.792 C50.152,112.96 49.752,113.956 48.952,114.78 C48.152,115.604 47.2,116.016 46.096,116.016 Z M60.76,117.408 L66.04,105.192 C66.44,104.264 66.78,103.684 67.06,103.452 C67.34,103.22 67.952,103.104 68.896,103.104 L68.896,103.104 L68.896,102.6 L63.304,102.6 L63.304,103.104 C64.296,103.104 64.932,103.244 65.212,103.524 C65.492,103.804 65.48,104.272 65.176,104.928 L65.176,104.928 L61.144,114.264 L57.064,104.928 C56.76,104.272 56.748,103.804 57.028,103.524 C57.308,103.244 57.944,103.104 58.936,103.104 L58.936,103.104 L58.936,102.6 L52.288,102.6 L52.288,103.104 C53.232,103.104 53.844,103.22 54.124,103.452 C54.404,103.684 54.744,104.264 55.144,105.192 L55.144,105.192 L60.448,117.408 L60.76,117.408 Z" id="0V" fill="#524740" fill-rule="nonzero"></path>
                <text id="-" font-family="Lato-Regular, Lato" font-size="18" font-weight="normal" letter-spacing="0.6950497" fill="#555555">
                    <tspan x="52.6179503" y="217">-</tspan>
                </text>
                <polyline id="Path-2" stroke="#23ABE3" stroke-width="2" points="90.7460938 110.019531 161 12 229.253906 110.019531 301 212 371 110.019531"></polyline>
            </g>
            <g id="Alternating_Current-Copy-4" transform="translate(408.000000, 0.000000)">
                <line x1="52" y1="12" x2="52" y2="212" id="Line-7-Copy-2" stroke="#524740" stroke-width="2" stroke-linecap="square"></line>
                <line x1="349" y1="111" x2="36" y2="111" id="Line-7-Copy-6" stroke="#524740" stroke-width="2" stroke-linecap="square"></line>
                <text id="+" font-family="Lato-Regular, Lato" font-size="18" font-weight="normal" letter-spacing="0.6950497" fill="#555555">
                    <tspan x="10.8649503" y="18">+</tspan>
                </text>
                <path d="M110.544,255.408 C110.64,254.96 110.872,254.584 111.24,254.28 C111.4,254.312 111.68,254.428 112.08,254.628 C112.48,254.828 112.928,255.008 113.424,255.168 C113.92,255.328 114.44,255.408 114.984,255.408 C116.264,255.408 117.348,255.008 118.236,254.208 C119.124,253.408 119.568,252.368 119.568,251.088 C119.568,249.504 118.728,248.288 117.048,247.44 L117.048,247.44 L114.768,246.264 C113.664,245.688 112.9,245.196 112.476,244.788 C112.052,244.38 111.84,243.88 111.84,243.288 C111.84,242.68 112.06,242.172 112.5,241.764 C112.94,241.356 113.496,241.152 114.168,241.152 C116.376,241.152 117.6,242.552 117.84,245.352 L117.84,245.352 L118.344,245.352 L118.344,240.072 L117.864,240.072 C117.768,240.504 117.536,240.872 117.168,241.176 C116.272,240.52 115.296,240.192 114.24,240.192 C113.088,240.192 112.136,240.536 111.384,241.224 C110.632,241.912 110.256,242.76 110.256,243.768 C110.256,244.632 110.512,245.408 111.024,246.096 C111.536,246.784 112.168,247.328 112.92,247.728 L112.92,247.728 L115.224,248.904 C117.064,249.864 117.984,250.832 117.984,251.808 C117.984,252.576 117.7,253.208 117.132,253.704 C116.564,254.2 115.848,254.448 114.984,254.448 C114.392,254.448 113.852,254.368 113.364,254.208 C112.876,254.048 112.484,253.848 112.188,253.608 C111.892,253.368 111.632,253.08 111.408,252.744 C111.184,252.408 111.02,252.104 110.916,251.832 C110.812,251.56 110.732,251.276 110.676,250.98 C110.62,250.684 110.588,250.484 110.58,250.38 C110.572,250.276 110.568,250.192 110.568,250.128 L110.568,250.128 L110.064,250.128 L110.064,255.408 L110.544,255.408 Z M132.6,261 L132.6,260.496 C131.8,260.496 131.284,260.328 131.052,259.992 C130.82,259.656 130.704,258.896 130.704,257.712 L130.704,257.712 L130.704,246.6 L130.2,246.6 L129.144,248.208 C128.392,247.136 127.368,246.6 126.072,246.6 C124.936,246.6 123.956,247.028 123.132,247.884 C122.308,248.74 121.896,249.776 121.896,250.992 C121.896,252.208 122.308,253.248 123.132,254.112 C123.956,254.976 124.936,255.408 126.072,255.408 C127.24,255.408 128.216,254.928 129,253.968 L129,253.968 L129,257.712 C129,258.912 128.884,259.676 128.652,260.004 C128.42,260.332 127.904,260.496 127.104,260.496 L127.104,260.496 L127.104,261 L132.6,261 Z M126.576,254.448 C125.68,254.448 125,254.128 124.536,253.488 C124.072,252.848 123.84,252.016 123.84,250.992 C123.84,249.984 124.072,249.16 124.536,248.52 C125,247.88 125.68,247.56 126.576,247.56 C127.104,247.56 127.584,247.732 128.016,248.076 C128.448,248.42 128.776,248.88 129,249.456 L129,249.456 L129,252.528 C128.776,253.104 128.448,253.568 128.016,253.92 C127.584,254.272 127.104,254.448 126.576,254.448 Z M141.528,255.408 L144.744,254.808 L144.744,254.304 C143.928,254.304 143.404,254.136 143.172,253.8 C142.94,253.464 142.824,252.696 142.824,251.496 L142.824,251.496 L142.824,247.008 L139.224,247.008 L139.224,247.488 C140.04,247.488 140.564,247.656 140.796,247.992 C141.028,248.328 141.144,249.096 141.144,250.296 L141.144,250.296 L141.144,251.88 C141.144,252.552 140.848,253.116 140.256,253.572 C139.664,254.028 139.096,254.256 138.552,254.256 C137.336,254.256 136.728,253.4 136.728,251.688 L136.728,251.688 L136.728,247.008 L133.128,247.008 L133.128,247.488 C133.928,247.488 134.444,247.656 134.676,247.992 C134.908,248.328 135.024,249.096 135.024,250.296 L135.024,250.296 L135.024,251.808 C135.024,254.208 136.016,255.408 138,255.408 C139.104,255.408 140.152,254.896 141.144,253.872 C141.272,254.64 141.4,255.152 141.528,255.408 L141.528,255.408 Z M148.272,255.312 C149.2,255.312 150.2,254.832 151.272,253.872 C151.4,254.8 151.944,255.264 152.904,255.264 C153.496,255.264 154.024,255.016 154.488,254.52 L154.488,254.52 L154.152,254.064 C153.912,254.304 153.688,254.424 153.48,254.424 C153.112,254.424 152.928,254.112 152.928,253.488 L152.928,253.488 L152.928,249.864 C152.928,248.712 152.672,247.88 152.16,247.368 C151.648,246.856 150.808,246.6 149.64,246.6 C148.84,246.6 148.132,246.78 147.516,247.14 C146.9,247.5 146.592,247.96 146.592,248.52 C146.592,248.76 146.672,248.96 146.832,249.12 C146.992,249.28 147.192,249.36 147.432,249.36 C147.656,249.36 147.848,249.28 148.008,249.12 C148.168,248.96 148.248,248.76 148.248,248.52 C148.248,248.168 148.396,247.888 148.692,247.68 C148.988,247.472 149.296,247.368 149.616,247.368 C150.272,247.368 150.704,247.552 150.912,247.92 C151.12,248.288 151.224,248.944 151.224,249.888 C147.816,250.48 146.112,251.616 146.112,253.296 C146.112,253.92 146.32,254.412 146.736,254.772 C147.152,255.132 147.664,255.312 148.272,255.312 Z M149.04,254.232 C148.72,254.232 148.452,254.12 148.236,253.896 C148.02,253.672 147.912,253.376 147.912,253.008 C147.912,251.936 149.016,251.144 151.224,250.632 L151.224,250.632 L151.224,253.08 C150.36,253.848 149.632,254.232 149.04,254.232 Z M161.28,255 L161.28,254.496 C160.48,254.496 159.964,254.328 159.732,253.992 C159.5,253.656 159.384,252.888 159.384,251.688 L159.384,251.688 L159.384,250.368 C159.384,249.52 159.6,248.84 160.032,248.328 C160.464,247.816 160.864,247.56 161.232,247.56 C161.744,247.56 162,247.824 162,248.352 C162,248.576 162.084,248.776 162.252,248.952 C162.42,249.128 162.616,249.216 162.84,249.216 C163.48,249.216 163.8,248.84 163.8,248.088 C163.8,247.736 163.636,247.4 163.308,247.08 C162.98,246.76 162.512,246.6 161.904,246.6 C161.424,246.6 160.944,246.768 160.464,247.104 C159.984,247.44 159.624,247.848 159.384,248.328 C159.256,247.48 159.12,246.904 158.976,246.6 L158.976,246.6 L155.784,247.2 L155.784,247.704 C156.584,247.704 157.1,247.872 157.332,248.208 C157.564,248.544 157.68,249.304 157.68,250.488 L157.68,250.488 L157.68,251.688 C157.68,252.888 157.564,253.656 157.332,253.992 C157.1,254.328 156.584,254.496 155.784,254.496 L155.784,254.496 L155.784,255 L161.28,255 Z M169.896,255.408 C170.568,255.408 171.24,255.26 171.912,254.964 C172.584,254.668 173.136,254.288 173.568,253.824 L173.568,253.824 L173.136,253.296 C172.8,253.616 172.376,253.88 171.864,254.088 C171.352,254.296 170.896,254.4 170.496,254.4 C169.312,254.4 168.46,254.028 167.94,253.284 C167.42,252.54 167.232,251.576 167.376,250.392 L167.376,250.392 L173.16,250.392 C173.448,249.384 173.248,248.5 172.56,247.74 C171.872,246.98 170.984,246.6 169.896,246.6 C168.744,246.6 167.716,247.024 166.812,247.872 C165.908,248.72 165.456,249.76 165.456,250.992 C165.456,252.224 165.872,253.268 166.704,254.124 C167.536,254.98 168.6,255.408 169.896,255.408 Z M171.504,249.504 L167.52,249.504 C167.696,248.912 167.988,248.44 168.396,248.088 C168.804,247.736 169.264,247.56 169.776,247.56 C170.496,247.56 171.004,247.772 171.3,248.196 C171.596,248.62 171.664,249.056 171.504,249.504 L171.504,249.504 Z M186.168,255.408 L189.552,244.776 L192.912,255.408 L193.224,255.408 L197.112,243.192 C197.384,242.344 197.688,241.784 198.024,241.512 C198.36,241.24 199.008,241.104 199.968,241.104 L199.968,241.104 L199.968,240.6 L194.568,240.6 L194.568,241.104 C195.416,241.104 195.96,241.24 196.2,241.512 C196.44,241.784 196.456,242.256 196.248,242.928 L196.248,242.928 L193.632,251.184 L190.272,240.6 L189.936,240.6 L186.576,251.208 L183.936,242.928 C183.728,242.24 183.748,241.764 183.996,241.5 C184.244,241.236 184.856,241.104 185.832,241.104 L185.832,241.104 L185.832,240.6 L179.112,240.6 L179.112,241.104 C180.088,241.104 180.736,241.224 181.056,241.464 C181.376,241.704 181.68,242.28 181.968,243.192 L181.968,243.192 L185.856,255.408 L186.168,255.408 Z M202.128,255.312 C203.056,255.312 204.056,254.832 205.128,253.872 C205.256,254.8 205.8,255.264 206.76,255.264 C207.352,255.264 207.88,255.016 208.344,254.52 L208.344,254.52 L208.008,254.064 C207.768,254.304 207.544,254.424 207.336,254.424 C206.968,254.424 206.784,254.112 206.784,253.488 L206.784,253.488 L206.784,249.864 C206.784,248.712 206.528,247.88 206.016,247.368 C205.504,246.856 204.664,246.6 203.496,246.6 C202.696,246.6 201.988,246.78 201.372,247.14 C200.756,247.5 200.448,247.96 200.448,248.52 C200.448,248.76 200.528,248.96 200.688,249.12 C200.848,249.28 201.048,249.36 201.288,249.36 C201.512,249.36 201.704,249.28 201.864,249.12 C202.024,248.96 202.104,248.76 202.104,248.52 C202.104,248.168 202.252,247.888 202.548,247.68 C202.844,247.472 203.152,247.368 203.472,247.368 C204.128,247.368 204.56,247.552 204.768,247.92 C204.976,248.288 205.08,248.944 205.08,249.888 C201.672,250.48 199.968,251.616 199.968,253.296 C199.968,253.92 200.176,254.412 200.592,254.772 C201.008,255.132 201.52,255.312 202.128,255.312 Z M202.896,254.232 C202.576,254.232 202.308,254.12 202.092,253.896 C201.876,253.672 201.768,253.376 201.768,253.008 C201.768,251.936 202.872,251.144 205.08,250.632 L205.08,250.632 L205.08,253.08 C204.216,253.848 203.488,254.232 202.896,254.232 Z M213.552,255.432 L216.264,248.904 C216.488,248.376 216.724,248.008 216.972,247.8 C217.22,247.592 217.552,247.488 217.968,247.488 L217.968,247.488 L217.968,247.008 L214.608,247.008 L214.608,247.488 C215.12,247.488 215.424,247.596 215.52,247.812 C215.616,248.028 215.544,248.392 215.304,248.904 L215.304,248.904 L213.72,252.744 L212.016,248.904 C211.776,248.328 211.704,247.948 211.8,247.764 C211.896,247.58 212.216,247.488 212.76,247.488 L212.76,247.488 L212.76,247.008 L208.512,247.008 L208.512,247.488 C208.896,247.488 209.204,247.592 209.436,247.8 C209.668,248.008 209.904,248.376 210.144,248.904 L210.144,248.904 L213.072,255.432 L213.552,255.432 Z M223.272,255.408 C223.944,255.408 224.616,255.26 225.288,254.964 C225.96,254.668 226.512,254.288 226.944,253.824 L226.944,253.824 L226.512,253.296 C226.176,253.616 225.752,253.88 225.24,254.088 C224.728,254.296 224.272,254.4 223.872,254.4 C222.688,254.4 221.836,254.028 221.316,253.284 C220.796,252.54 220.608,251.576 220.752,250.392 L220.752,250.392 L226.536,250.392 C226.824,249.384 226.624,248.5 225.936,247.74 C225.248,246.98 224.36,246.6 223.272,246.6 C222.12,246.6 221.092,247.024 220.188,247.872 C219.284,248.72 218.832,249.76 218.832,250.992 C218.832,252.224 219.248,253.268 220.08,254.124 C220.912,254.98 221.976,255.408 223.272,255.408 Z M224.88,249.504 L220.896,249.504 C221.072,248.912 221.364,248.44 221.772,248.088 C222.18,247.736 222.64,247.56 223.152,247.56 C223.872,247.56 224.38,247.772 224.676,248.196 C224.972,248.62 225.04,249.056 224.88,249.504 L224.88,249.504 Z M234.216,255 L234.216,254.496 C233.416,254.496 232.9,254.328 232.668,253.992 C232.436,253.656 232.32,252.888 232.32,251.688 L232.32,251.688 L232.32,247.848 L234.72,247.848 L234.72,247.008 L232.32,247.008 L232.32,244.704 C232.32,243.36 232.464,242.404 232.752,241.836 C233.04,241.268 233.496,240.984 234.12,240.984 C234.456,240.984 234.72,241.08 234.912,241.272 C235.104,241.464 235.224,241.676 235.272,241.908 C235.32,242.14 235.416,242.352 235.56,242.544 C235.704,242.736 235.904,242.832 236.16,242.832 C236.416,242.832 236.612,242.752 236.748,242.592 C236.884,242.432 236.952,242.224 236.952,241.968 C236.952,241.536 236.736,241.132 236.304,240.756 C235.872,240.38 235.288,240.192 234.552,240.192 C233.448,240.192 232.516,240.564 231.756,241.308 C230.996,242.052 230.616,243.184 230.616,244.704 L230.616,244.704 L230.616,247.008 L228.648,247.008 L228.648,247.848 L230.616,247.848 L230.616,251.688 C230.616,252.888 230.5,253.656 230.268,253.992 C230.036,254.328 229.52,254.496 228.72,254.496 L228.72,254.496 L228.72,255 L234.216,255 Z M241.32,255.408 C242.648,255.408 243.788,254.976 244.74,254.112 C245.692,253.248 246.168,252.208 246.168,250.992 C246.168,249.776 245.688,248.744 244.728,247.896 C243.784,247.032 242.648,246.6 241.32,246.6 C239.992,246.6 238.852,247.028 237.9,247.884 C236.948,248.74 236.472,249.776 236.472,250.992 C236.472,252.208 236.948,253.248 237.9,254.112 C238.852,254.976 239.992,255.408 241.32,255.408 Z M241.32,254.472 C240.376,254.472 239.656,254.144 239.16,253.488 C238.664,252.832 238.416,252 238.416,250.992 C238.416,249.984 238.664,249.152 239.16,248.496 C239.656,247.84 240.376,247.512 241.32,247.512 C242.264,247.512 242.984,247.836 243.48,248.484 C243.976,249.132 244.224,249.968 244.224,250.992 C244.224,252.016 243.976,252.856 243.48,253.512 C242.984,254.152 242.264,254.472 241.32,254.472 Z M253.728,255 L253.728,254.496 C252.928,254.496 252.412,254.328 252.18,253.992 C251.948,253.656 251.832,252.888 251.832,251.688 L251.832,251.688 L251.832,250.368 C251.832,249.52 252.048,248.84 252.48,248.328 C252.912,247.816 253.312,247.56 253.68,247.56 C254.192,247.56 254.448,247.824 254.448,248.352 C254.448,248.576 254.532,248.776 254.7,248.952 C254.868,249.128 255.064,249.216 255.288,249.216 C255.928,249.216 256.248,248.84 256.248,248.088 C256.248,247.736 256.084,247.4 255.756,247.08 C255.428,246.76 254.96,246.6 254.352,246.6 C253.872,246.6 253.392,246.768 252.912,247.104 C252.432,247.44 252.072,247.848 251.832,248.328 C251.704,247.48 251.568,246.904 251.424,246.6 L251.424,246.6 L248.232,247.2 L248.232,247.704 C249.032,247.704 249.548,247.872 249.78,248.208 C250.012,248.544 250.128,249.304 250.128,250.488 L250.128,250.488 L250.128,251.688 C250.128,252.888 250.012,253.656 249.78,253.992 C249.548,254.328 249.032,254.496 248.232,254.496 L248.232,254.496 L248.232,255 L253.728,255 Z M262.752,255 L262.752,254.496 C262.096,254.496 261.684,254.34 261.516,254.028 C261.348,253.716 261.264,252.936 261.264,251.688 L261.264,251.688 L261.264,250.128 C261.264,249.456 261.552,248.888 262.128,248.424 C262.704,247.96 263.24,247.728 263.736,247.728 C264.888,247.728 265.464,248.584 265.464,250.296 L265.464,250.296 L265.464,251.688 C265.464,252.952 265.38,253.736 265.212,254.04 C265.044,254.344 264.624,254.496 263.952,254.496 L263.952,254.496 L263.952,255 L268.656,255 L268.656,254.496 C267.984,254.496 267.564,254.344 267.396,254.04 C267.228,253.736 267.144,252.952 267.144,251.688 L267.144,251.688 L267.144,250.128 C267.144,249.456 267.436,248.888 268.02,248.424 C268.604,247.96 269.144,247.728 269.64,247.728 C270.776,247.728 271.344,248.584 271.344,250.296 L271.344,250.296 L271.344,251.688 C271.344,252.952 271.264,253.736 271.104,254.04 C270.944,254.344 270.528,254.496 269.856,254.496 L269.856,254.496 L269.856,255 L274.944,255 L274.944,254.496 C274.144,254.496 273.628,254.328 273.396,253.992 C273.164,253.656 273.048,252.888 273.048,251.688 L273.048,251.688 L273.048,250.176 C273.048,247.792 272.128,246.6 270.288,246.6 C269.632,246.6 268.988,246.788 268.356,247.164 C267.724,247.54 267.248,247.952 266.928,248.4 C266.56,247.2 265.712,246.6 264.384,246.6 C263.216,246.6 262.176,247.176 261.264,248.328 C261.136,247.48 261,246.904 260.856,246.6 L260.856,246.6 L257.664,247.2 L257.664,247.704 C258.464,247.704 258.98,247.872 259.212,248.208 C259.444,248.544 259.56,249.304 259.56,250.488 L259.56,250.488 L259.56,251.688 C259.56,252.888 259.444,253.656 259.212,253.992 C258.98,254.328 258.464,254.496 257.664,254.496 L257.664,254.496 L257.664,255 L262.752,255 Z" id="SquareWaveform" fill="#524740" fill-rule="nonzero"></path>
                <path d="M8.096,117.408 C9.632,117.408 10.948,116.86 12.044,115.764 C13.14,114.668 13.688,113.344 13.688,111.792 C13.688,110.256 13.14,108.94 12.044,107.844 C10.948,106.748 9.632,106.2 8.096,106.2 C6.56,106.2 5.24,106.752 4.136,107.856 C3.048,108.944 2.504,110.256 2.504,111.792 C2.504,113.344 3.052,114.668 4.148,115.764 C5.244,116.86 6.56,117.408 8.096,117.408 Z M8.096,116.016 C6.976,116.016 6.02,115.604 5.228,114.78 C4.436,113.956 4.04,112.96 4.04,111.792 C4.04,110.64 4.436,109.648 5.228,108.816 C6.02,107.984 6.976,107.568 8.096,107.568 C9.2,107.568 10.152,107.984 10.952,108.816 C11.752,109.648 12.152,110.64 12.152,111.792 C12.152,112.96 11.752,113.956 10.952,114.78 C10.152,115.604 9.2,116.016 8.096,116.016 Z M22.76,117.408 L28.04,105.192 C28.44,104.264 28.78,103.684 29.06,103.452 C29.34,103.22 29.952,103.104 30.896,103.104 L30.896,103.104 L30.896,102.6 L25.304,102.6 L25.304,103.104 C26.296,103.104 26.932,103.244 27.212,103.524 C27.492,103.804 27.48,104.272 27.176,104.928 L27.176,104.928 L23.144,114.264 L19.064,104.928 C18.76,104.272 18.748,103.804 19.028,103.524 C19.308,103.244 19.944,103.104 20.936,103.104 L20.936,103.104 L20.936,102.6 L14.288,102.6 L14.288,103.104 C15.232,103.104 15.844,103.22 16.124,103.452 C16.404,103.684 16.744,104.264 17.144,105.192 L17.144,105.192 L22.448,117.408 L22.76,117.408 Z" id="0V" fill="#524740" fill-rule="nonzero"></path>
                <text id="-" font-family="Lato-Regular, Lato" font-size="18" font-weight="normal" letter-spacing="0.6950497" fill="#555555">
                    <tspan x="14.6179503" y="217">-</tspan>
                </text>
                <polyline id="Path-2" stroke="#23ABE3" stroke-width="2" points="52.7460938 110.019531 57.5298927 12 185.575492 12 191.253906 110.019531 197.011504 212 328.719883 212 333 110.019531"></polyline>
            </g>
        </g>
    </g>
</svg>