<?xml version="1.0" standalone="no"?>
<!DOCTYPE svg PUBLIC "-//W3C//DTD SVG 1.1//EN" "http://www.w3.org/Graphics/SVG/1.1/DTD/svg11.dtd" >
<svg xmlns="http://www.w3.org/2000/svg" xmlns:xlink="http://www.w3.org/1999/xlink" version="1.1">
<metadata>
Created by FontForge 20170910 at Sun Oct  5 02:47:52 2003
 By Jimmy Wärting
Copr. Copyright 1998, Neufville Digital. ALL RIGHTS RESERVED. This font is licensed, not sold, and may not be reproduced without the written consent of Neufville Digital. Parts Copr. Visualogik Technology &#38; Design, 1998.The digitally encoded machine readable outline data for producing the typefaces licensed to you is copyrighted (c), 1998 by and the property of Visualogik, a subsidiary of VISINOVA bv.
</metadata>
<defs>
<font id="FuturaND-7BoldPlain" horiz-adv-x="680" >
  <font-face 
    font-family="Futura ND"
    font-weight="700"
    font-stretch="normal"
    units-per-em="1000"
    panose-1="2 0 8 3 0 0 0 0 0 0"
    ascent="800"
    descent="-200"
    x-height="513"
    cap-height="754"
    bbox="-169 -282 1459 1045"
    underline-thickness="90"
    underline-position="-100"
    stemh="151"
    stemv="181"
    unicode-range="U+0020-FFFD"
  />
<missing-glyph horiz-adv-x="500" 
 />
    <glyph glyph-name=".notdef" unicode="&#xfffd;" horiz-adv-x="500" 
 />
    <glyph glyph-name=".null" horiz-adv-x="500" 
 />
    <glyph glyph-name=".null" horiz-adv-x="500" 
 />
    <glyph glyph-name="space" unicode=" " horiz-adv-x="340" 
 />
    <glyph glyph-name="exclam" unicode="!" horiz-adv-x="385" 
d="M286 256h-188v498h188v-498zM75 98c0 31 11 58 34 81s51 34 83 34c65 0 117 -52 117 -117c0 -33 -11 -60 -34 -83s-51 -34 -83 -34c-33 0 -60 12 -83 35s-34 51 -34 84z" />
    <glyph glyph-name="quotedbl" unicode="&#x22;" horiz-adv-x="464" 
d="M418 754l-27 -303h-107l-27 303h161zM208 754l-28 -303h-107l-27 303h162z" />
    <glyph glyph-name="numbersign" unicode="#" 
d="M382 337l13 96h-97l-13 -96h97zM531 337h104v-130h-120l-27 -207h-149l27 207h-97l-27 -207h-148l28 207h-104v130h120l12 96h-102v129h119l25 192h147l-25 -192h97l26 192h148l-25 -192h102v-129h-118z" />
    <glyph glyph-name="dollar" unicode="$" 
d="M312 873h92v-121c71 -7 131 -26 182 -58l-74 -144c-43 33 -85 49 -126 49c-25 0 -45 -6 -61 -17c-17 -11 -25 -25 -25 -40c0 -27 28 -54 69 -67l59 -20c65 -22 113 -50 142 -83c30 -33 45 -76 45 -129c0 -81 -27 -142 -82 -184c-27 -21 -69 -41 -129 -58v-124h-92v119
c-41 0 -86 9 -133 26c-49 19 -87 40 -114 65l81 151c62 -55 123 -83 183 -83c25 0 47 7 66 20c17 14 26 31 26 52c0 30 -22 52 -65 65l-57 18c-69 21 -118 48 -147 80c-29 31 -44 74 -44 128c0 79 29 142 87 190c30 24 69 39 117 44v121z" />
    <glyph glyph-name="percent" unicode="%" horiz-adv-x="1013" 
d="M684 177c0 -48 37 -86 85 -86c47 0 85 38 85 85c0 23 -8 43 -25 60s-37 25 -60 25s-44 -8 -61 -25c-16 -17 -24 -36 -24 -59zM562 179c0 55 19 99 58 132s90 49 153 49c59 0 108 -17 145 -51c38 -33 57 -77 57 -131c0 -57 -19 -102 -58 -136s-89 -51 -151 -51
c-61 0 -111 17 -148 51s-56 80 -56 137zM238 0l438 754h97l-437 -754h-98zM159 579c0 -23 8 -44 25 -61c16 -17 36 -25 60 -25c47 0 85 38 85 85c0 23 -8 43 -25 60s-37 25 -60 25s-43 -8 -60 -25s-25 -36 -25 -59zM38 581c0 55 19 99 57 131c39 33 90 50 154 50
c59 0 107 -17 145 -51c37 -34 56 -78 56 -131c0 -57 -19 -102 -57 -136c-39 -34 -89 -51 -152 -51c-62 0 -111 17 -148 51s-55 80 -55 137z" />
    <glyph glyph-name="ampersand" unicode="&#x26;" horiz-adv-x="855" 
d="M400 479c47 28 70 59 70 94c0 19 -6 36 -19 49c-12 13 -28 20 -47 20c-36 0 -63 -28 -63 -63c0 -24 20 -57 59 -100zM438 187l-119 128c-47 -29 -71 -59 -71 -88c0 -21 8 -38 25 -52s37 -21 62 -21c34 0 68 11 103 33zM486 388l95 -100c39 37 72 73 98 108l111 -107
c-23 -29 -52 -61 -88 -96l-15 -14l168 -179h-244l-66 69c-90 -60 -176 -90 -259 -90c-71 0 -128 20 -173 61c-45 40 -68 92 -68 155c0 45 12 85 37 120c13 19 28 35 45 47c17 13 43 27 78 43l21 10l-13 15c-39 48 -58 94 -58 139c0 59 22 108 67 147s101 59 168 59
s123 -20 168 -59s67 -88 67 -147c0 -40 -10 -73 -31 -100s-57 -54 -108 -81z" />
    <glyph glyph-name="quotesingle" unicode="'" horiz-adv-x="253" 
d="M207 754l-27 -303h-107l-27 303h161z" />
    <glyph glyph-name="parenleft" unicode="(" horiz-adv-x="382" 
d="M220 860l109 -62c-77 -131 -115 -287 -115 -468c0 -91 10 -178 31 -263s49 -155 84 -209l-109 -62c-47 68 -83 148 -108 241c-25 92 -37 192 -37 300c0 98 13 193 38 285c25 93 61 172 107 238z" />
    <glyph glyph-name="parenright" unicode=")" horiz-adv-x="382" 
d="M162 -204l-109 62c77 131 115 287 115 468c0 88 -11 175 -32 262s-49 157 -83 210l109 62c47 -68 83 -148 108 -241c25 -92 37 -192 37 -301c0 -98 -13 -193 -38 -285c-26 -91 -62 -170 -107 -237z" />
    <glyph glyph-name="asterisk" unicode="*" 
d="M312 692l-17 138h90l-18 -137l125 58l28 -84l-136 -26l95 -100l-73 -53l-66 121l-66 -121l-72 53l94 100l-135 26l27 84z" />
    <glyph glyph-name="plus" unicode="+" 
d="M72 313v128h204v204h128v-204h203v-128h-203v-204h-128v204h-204z" />
    <glyph glyph-name="comma" unicode="," horiz-adv-x="340" 
d="M-12 -140l130 331h170l-184 -331h-116z" />
    <glyph glyph-name="hyphen" unicode="-" horiz-adv-x="287" 
d="M0 192v151h287v-151h-287z" />
    <glyph glyph-name="period" unicode="." horiz-adv-x="340" 
d="M53 98c0 31 11 58 34 81s50 34 82 34c65 0 118 -52 118 -117c0 -33 -12 -60 -35 -83s-50 -34 -82 -34c-33 0 -61 12 -84 35c-22 23 -33 51 -33 84z" />
    <glyph glyph-name="slash" unicode="/" horiz-adv-x="560" 
d="M-1 -173l411 1003h143l-412 -1003h-142z" />
    <glyph glyph-name="zero" unicode="0" 
d="M214 378c0 -70 12 -127 35 -170s53 -65 91 -65c37 0 67 22 90 65s35 99 35 167c0 69 -12 125 -35 168s-53 65 -90 65s-67 -22 -91 -65c-23 -43 -35 -98 -35 -165zM20 383c0 119 30 215 89 288c59 75 136 112 231 112c85 0 157 -32 216 -96c69 -75 103 -178 103 -310
s-34 -235 -103 -310c-59 -63 -131 -95 -216 -95c-87 0 -159 32 -216 95c-69 76 -104 181 -104 316z" />
    <glyph glyph-name="one" unicode="1" 
d="M265 0v588h-107v166h303v-754h-196z" />
    <glyph glyph-name="two" unicode="2" 
d="M515 284l-127 -118h247v-166h-605l192 200c136 144 202 248 202 321c0 55 -40 98 -88 98c-23 0 -43 -9 -58 -26s-22 -39 -22 -66c0 -7 1 -17 3 -31h-216c0 51 13 101 39 150c49 93 134 140 253 140c85 0 155 -26 210 -77s82 -116 82 -195c0 -90 -34 -155 -112 -230z" />
    <glyph glyph-name="three" unicode="3" 
d="M302 331v133c10 -1 18 -1 23 -1c49 0 83 35 83 84c0 22 -7 40 -22 54c-14 14 -32 21 -54 21c-49 0 -81 -34 -81 -86h-181c9 79 38 140 86 183c49 43 112 64 191 64c73 0 132 -20 176 -60c45 -39 67 -92 67 -158c0 -70 -26 -122 -79 -157c76 -24 123 -98 123 -193
c0 -73 -28 -133 -83 -180c-55 -46 -125 -69 -212 -69c-121 0 -211 49 -270 148c-26 45 -39 87 -39 127h200c5 -67 43 -105 108 -105c29 0 54 9 73 28s28 42 28 71c0 27 -10 51 -30 72c-20 19 -44 29 -73 29c-7 0 -19 -2 -34 -5z" />
    <glyph glyph-name="four" unicode="4" 
d="M201 305h177v291zM560 754v-449h91v-150h-91v-155h-182v155h-364v126l290 473h256z" />
    <glyph glyph-name="five" unicode="5" 
d="M560 754v-166h-260l-14 -83c24 3 44 5 61 5c77 0 141 -25 192 -75s76 -113 76 -189c0 -83 -29 -148 -86 -197c-57 -48 -134 -72 -230 -72c-91 0 -173 22 -246 67l29 184c69 -59 138 -88 206 -88c35 0 65 11 89 32c24 23 36 50 36 81c0 76 -70 127 -167 127
c-49 0 -97 -10 -144 -31l66 405h392z" />
    <glyph glyph-name="six" unicode="6" 
d="M460 248c0 35 -12 64 -36 88c-24 25 -53 37 -88 37s-64 -12 -88 -37c-25 -24 -37 -53 -37 -87c0 -35 12 -64 37 -88s55 -36 88 -36s62 12 87 36s37 53 37 87zM134 533l169 221h222l-214 -256c39 15 74 23 105 23c69 0 127 -25 174 -76c47 -50 70 -113 70 -188
c0 -85 -30 -155 -90 -208c-59 -53 -137 -79 -234 -79c-103 0 -182 29 -237 86c-52 53 -78 116 -78 191c0 41 10 88 30 140c20 51 48 99 83 146z" />
    <glyph glyph-name="seven" unicode="7" 
d="M51 0l344 588h-315v166h619l-432 -754h-216z" />
    <glyph glyph-name="eight" unicode="8" 
d="M250 228c0 -51 39 -92 90 -92c25 0 46 9 64 27c17 17 26 39 26 64c0 51 -41 90 -90 90c-25 0 -46 -9 -64 -26c-17 -17 -26 -38 -26 -63zM257 561c0 -24 8 -44 24 -60s36 -24 59 -24c45 0 83 38 83 83s-38 83 -83 83s-83 -38 -83 -82zM201 397c-79 33 -118 88 -118 166
c0 48 18 93 53 135c45 51 113 76 204 76c77 0 139 -19 186 -58s71 -90 71 -153c0 -39 -9 -72 -28 -97c-18 -23 -50 -46 -95 -69c103 -40 154 -104 154 -193c0 -64 -27 -117 -82 -160c-54 -42 -123 -63 -206 -63s-152 21 -207 63c-54 42 -81 95 -81 160c0 90 50 154 149 193z
" />
    <glyph glyph-name="nine" unicode="9" 
d="M221 507c0 -34 12 -64 36 -89c23 -25 53 -37 88 -37c34 0 63 12 88 37c24 25 36 54 36 88c0 35 -12 64 -36 88c-25 24 -54 36 -88 36s-63 -12 -88 -36c-24 -24 -36 -53 -36 -87zM546 221l-169 -221h-222l215 256c-39 -15 -75 -23 -106 -23c-69 0 -127 25 -174 76
c-47 50 -70 113 -70 188c0 85 30 155 89 208c60 53 138 79 235 79c103 0 182 -29 237 -86c52 -53 78 -116 78 -190c0 -42 -10 -89 -30 -141c-20 -51 -48 -99 -83 -146z" />
    <glyph glyph-name="colon" unicode=":" horiz-adv-x="340" 
d="M53 435c0 31 11 58 34 81s50 34 82 34c33 0 60 -11 83 -34s35 -50 35 -82c0 -33 -12 -60 -35 -83s-50 -34 -82 -34c-33 0 -61 11 -84 34c-22 23 -33 51 -33 84zM53 98c0 31 11 58 34 81s50 34 82 34c65 0 118 -52 118 -117c0 -33 -12 -60 -35 -83s-50 -34 -82 -34
c-33 0 -61 12 -84 35c-22 23 -33 51 -33 84z" />
    <glyph glyph-name="semicolon" unicode=";" horiz-adv-x="340" 
d="M80 435c0 31 11 58 34 81s50 34 82 34c33 0 60 -11 83 -34s34 -50 34 -82c0 -33 -11 -60 -34 -83s-50 -34 -82 -34c-33 0 -61 11 -84 34c-22 23 -33 51 -33 84zM-12 -140l130 331h170l-184 -331h-116z" />
    <glyph glyph-name="less" unicode="&#x3c;" 
d="M95 472l490 271v-213l-264 -148l262 -149l2 -211l-490 272v178z" />
    <glyph glyph-name="equal" unicode="=" 
d="M72 213v128h535v-128h-535zM72 413v129h535v-129h-535z" />
    <glyph glyph-name="greater" unicode="&#x3e;" 
d="M585 293l-490 -271v213l263 148l-262 149l-1 211l490 -271v-179z" />
    <glyph glyph-name="question" unicode="?" horiz-adv-x="618" 
d="M188 97c0 32 12 59 35 81c23 23 50 34 82 34c33 0 60 -11 83 -34c23 -22 34 -49 34 -82s-11 -60 -34 -83s-50 -34 -82 -34c-33 0 -61 12 -84 35s-34 50 -34 83zM392 253h-184v195c16 -3 29 -5 41 -5c37 0 68 9 93 28s37 43 37 72c0 41 -33 74 -74 74s-68 -31 -68 -76
h-199c0 67 26 123 77 167c51 45 115 67 194 67c75 0 138 -23 188 -70c51 -48 76 -104 76 -167c0 -100 -60 -171 -181 -213v-72z" />
    <glyph glyph-name="at" unicode="@" horiz-adv-x="778" 
d="M479 382c0 25 -9 46 -26 62c-17 17 -38 25 -63 25c-27 0 -50 -11 -67 -32s-26 -47 -26 -80c0 -57 30 -96 73 -96c29 0 54 12 76 36c22 25 33 53 33 85zM496 567h104l-30 -249c-2 -17 -3 -33 -3 -48c0 -13 4 -20 13 -20c28 0 53 18 76 55s35 77 35 121
c0 74 -27 136 -82 185c-54 50 -122 75 -203 75c-87 0 -161 -30 -220 -90s-89 -134 -89 -221c0 -50 11 -97 32 -141c22 -45 52 -81 90 -108c51 -38 116 -57 195 -57c69 0 129 12 178 35l35 17l7 3c1 1 4 2 11 5c1 1 3 3 7 4l36 -91l-6 -3c-4 -3 -8 -4 -9 -4l-5 -3l-27 -12
c-67 -31 -142 -47 -226 -47c-103 0 -190 25 -261 76c-51 37 -92 84 -121 141s-43 119 -43 185c0 113 40 208 119 285c80 77 179 116 296 116c107 0 198 -34 272 -101s111 -149 111 -246c0 -74 -21 -138 -64 -192s-95 -81 -154 -81c-36 0 -65 16 -86 48
c-33 -33 -73 -50 -119 -50c-53 0 -96 19 -131 58c-34 39 -51 89 -51 149c0 62 19 113 57 154c39 41 87 61 145 61c35 0 70 -11 105 -33z" />
    <glyph glyph-name="A" unicode="A" horiz-adv-x="803" 
d="M321 280h163l-81 241zM585 0l-48 131h-270l-52 -131h-208l290 754h214l284 -754h-210z" />
    <glyph glyph-name="B" unicode="B" horiz-adv-x="699" 
d="M275 312v-160h43c97 0 138 24 138 80c0 27 -10 47 -31 61c-17 13 -53 19 -110 19h-40zM275 604v-146h36c61 0 92 24 92 73s-31 73 -92 73h-36zM394 0h-315v754h292c137 0 212 -69 212 -197c0 -71 -28 -122 -83 -155c55 -11 93 -30 115 -58c26 -34 39 -77 39 -130
c0 -133 -100 -214 -260 -214z" />
    <glyph glyph-name="C" unicode="C" horiz-adv-x="667" 
d="M622 731v-234c-45 55 -102 83 -169 83c-59 0 -108 -20 -146 -59s-57 -89 -57 -149c0 -58 19 -106 58 -145c38 -39 86 -58 144 -58c63 0 119 27 170 80v-232l-20 -7c-60 -20 -112 -30 -155 -30c-101 0 -192 34 -271 101c-87 74 -131 171 -131 290c0 127 47 229 142 306
c76 62 162 93 258 93c55 0 114 -13 177 -39z" />
    <glyph glyph-name="D" unicode="D" horiz-adv-x="786" 
d="M275 588v-422h45c77 0 134 25 172 76c29 39 43 84 43 135s-14 96 -43 135c-38 51 -95 76 -172 76h-45zM369 0h-290v754h290c106 0 196 -41 271 -123c67 -75 100 -159 100 -254s-33 -179 -100 -254c-75 -82 -165 -123 -271 -123z" />
    <glyph glyph-name="E" unicode="E" horiz-adv-x="553" 
d="M508 754v-166h-233v-126h220v-166h-220v-130h233v-166h-429v754h429z" />
    <glyph glyph-name="F" unicode="F" horiz-adv-x="549" 
d="M511 754v-166h-236v-126h215v-166h-215v-296h-196v754h432z" />
    <glyph glyph-name="G" unicode="G" horiz-adv-x="880" 
d="M446 266v152h389c0 -83 -9 -151 -27 -203c-28 -76 -73 -135 -136 -178c-63 -42 -138 -63 -224 -63c-119 0 -216 37 -291 110c-75 74 -112 170 -112 289c0 110 33 202 99 277c74 85 178 128 311 128c157 0 270 -71 339 -212l-186 -77c-33 79 -87 119 -162 119
c-56 0 -103 -22 -140 -67s-56 -101 -56 -168c0 -69 19 -126 57 -171c37 -44 86 -66 145 -66c91 0 142 43 155 130h-161z" />
    <glyph glyph-name="H" unicode="H" horiz-adv-x="833" 
d="M275 754v-291h283v291h196v-754h-196v311h-283v-311h-196v754h196z" />
    <glyph glyph-name="I" unicode="I" horiz-adv-x="354" 
d="M79 754h196v-754h-196v754z" />
    <glyph glyph-name="J" unicode="J" horiz-adv-x="530" 
d="M254 754h196v-522c0 -44 -5 -80 -15 -109c-11 -27 -30 -54 -57 -79c-47 -43 -105 -64 -174 -64c-81 0 -146 37 -197 111l128 131c5 -45 31 -74 64 -74c37 0 56 29 56 87l-1 42v477z" />
    <glyph glyph-name="K" unicode="K" horiz-adv-x="792" 
d="M275 754v-311l239 311h242l-299 -357l327 -397h-254l-255 327v-327h-196v754h196z" />
    <glyph glyph-name="L" unicode="L" horiz-adv-x="532" 
d="M79 754h196v-588h235v-166h-431v754z" />
    <glyph glyph-name="M" unicode="M" horiz-adv-x="1035" 
d="M240 0h-195l128 754h194l153 -402l162 402h194l114 -754h-196l-56 434l-182 -434h-78l-173 434z" />
    <glyph glyph-name="N" unicode="N" horiz-adv-x="911" 
d="M275 0h-196v754h196l361 -462v462h196v-754h-196l-361 461v-461z" />
    <glyph glyph-name="O" unicode="O" horiz-adv-x="925" 
d="M250 377c0 -60 21 -111 62 -152s92 -62 151 -62s109 21 150 62s62 91 62 150s-21 108 -62 149s-92 62 -151 62c-58 0 -108 -21 -149 -62c-42 -41 -63 -90 -63 -147zM45 381c0 103 36 193 109 269c79 84 182 126 308 126c127 0 230 -42 309 -126c73 -77 109 -168 109 -275
s-36 -199 -109 -276c-79 -84 -183 -126 -312 -126c-119 0 -217 39 -296 116c-79 78 -118 175 -118 292z" />
    <glyph glyph-name="P" unicode="P" horiz-adv-x="678" 
d="M275 596v-188h65c75 0 108 29 108 93c0 63 -36 95 -107 95h-66zM398 250h-123v-250h-196v754h312c49 0 88 -6 118 -18c31 -12 59 -32 84 -59c40 -45 60 -103 60 -174c0 -164 -91 -253 -255 -253z" />
    <glyph glyph-name="Q" unicode="Q" horiz-adv-x="925" 
d="M402 293l185 23l52 -55c24 34 36 72 36 113c0 57 -21 107 -63 148c-43 42 -93 63 -150 63c-58 0 -108 -21 -150 -63c-41 -41 -62 -92 -62 -152c0 -59 20 -108 61 -147s91 -59 150 -59c21 0 42 3 61 9zM781 108l128 -129l-180 -28l-60 71c-58 -32 -123 -48 -195 -48
c-145 0 -256 47 -333 141c-64 77 -96 164 -96 260c0 97 32 184 97 261c79 93 185 139 320 139c121 0 221 -38 300 -113s118 -171 118 -287c0 -94 -33 -183 -99 -267z" />
    <glyph glyph-name="R" unicode="R" horiz-adv-x="709" 
d="M275 603v-186h37c77 0 120 33 120 93c0 59 -43 93 -120 93h-37zM469 309l237 -309h-244l-187 290v-290h-196v754h305c89 0 155 -27 197 -81c35 -44 52 -95 52 -152c0 -113 -56 -187 -164 -212z" />
    <glyph glyph-name="S" unicode="S" horiz-adv-x="646" 
d="M571 711l-78 -153c-43 34 -85 51 -128 51c-24 0 -44 -6 -60 -19c-16 -12 -24 -27 -24 -46c0 -20 12 -37 36 -51c11 -6 45 -17 100 -34c131 -39 185 -101 185 -209c0 -85 -26 -151 -78 -198c-51 -47 -123 -71 -216 -71c-94 0 -182 28 -263 85l84 158
c58 -51 116 -77 173 -77s94 30 94 74c0 40 -25 60 -117 87c-72 21 -120 41 -144 60c-39 33 -59 83 -59 150c0 75 23 137 70 184s109 70 186 70c82 0 162 -20 239 -61z" />
    <glyph glyph-name="T" unicode="T" horiz-adv-x="533" 
d="M525 588h-162v-588h-196v588h-160v166h518v-166z" />
    <glyph glyph-name="U" unicode="U" horiz-adv-x="816" 
d="M79 754h196v-408c0 -47 1 -77 5 -96c3 -17 11 -33 23 -49c24 -32 58 -48 103 -48c47 0 83 17 108 50c11 15 18 32 21 50c4 20 6 49 6 93v408h195v-435c0 -61 -7 -110 -21 -148c-13 -37 -37 -72 -71 -104c-61 -57 -142 -86 -241 -86c-107 0 -190 29 -249 88
c-27 27 -47 60 -58 98c-11 39 -17 89 -17 152v435z" />
    <glyph glyph-name="V" unicode="V" horiz-adv-x="791" 
d="M0 754h213l182 -459l183 459h213l-322 -754h-152z" />
    <glyph glyph-name="W" unicode="W" horiz-adv-x="1146" 
d="M0 754h205l130 -487l160 487h156l149 -487l142 487h204l-240 -754h-200l-138 437l-144 -437h-199z" />
    <glyph glyph-name="X" unicode="X" horiz-adv-x="804" 
d="M0 0l295 402l-242 352h242l112 -195l117 195h241l-246 -352l285 -402h-237l-161 246l-169 -246h-237z" />
    <glyph glyph-name="Y" unicode="Y" horiz-adv-x="724" 
d="M259 0v362l-272 392h234l142 -206l137 206h238l-283 -392v-362h-196z" />
    <glyph glyph-name="Z" unicode="Z" horiz-adv-x="714" 
d="M699 754l-355 -588h316v-166h-645l357 588h-297v166h624z" />
    <glyph glyph-name="bracketleft" unicode="[" horiz-adv-x="381" 
d="M335 724h-102v-790h102v-107h-245v1003h245v-106z" />
    <glyph glyph-name="backslash" unicode="\" horiz-adv-x="560" 
d="M6 830h144l411 -1003h-143z" />
    <glyph glyph-name="bracketright" unicode="]" horiz-adv-x="381" 
d="M45 -67h102v790h-102v107h246v-1003h-246v106z" />
    <glyph glyph-name="asciicircum" unicode="^" horiz-adv-x="565" 
d="M283 615l-89 -234h-187l158 379h236l158 -379h-187z" />
    <glyph glyph-name="underscore" unicode="_" horiz-adv-x="565" 
d="M0 -179v125h565v-125h-565z" />
    <glyph glyph-name="grave" unicode="`" horiz-adv-x="565" 
d="M283 588l-174 154l115 83l143 -175z" />
    <glyph glyph-name="a" unicode="a" horiz-adv-x="701" 
d="M230 258c0 -33 11 -61 34 -84s50 -34 83 -34s60 11 83 34s34 50 34 82c0 33 -11 60 -34 83s-50 34 -83 34s-60 -11 -83 -34s-34 -50 -34 -81zM458 462v51h182v-513h-182v57c-39 -49 -91 -73 -157 -73c-73 0 -135 26 -185 78c-49 53 -74 119 -74 196c0 76 25 140 74 192
c49 53 110 79 183 79c63 0 116 -22 159 -67z" />
    <glyph glyph-name="b" unicode="b" horiz-adv-x="701" 
d="M471 255c0 33 -11 61 -34 84s-50 34 -83 34c-32 0 -59 -11 -82 -34s-34 -50 -34 -83c0 -32 11 -59 34 -82s50 -34 83 -34c32 0 59 11 82 34s34 50 34 81zM62 830h181v-368c43 45 97 67 160 67c73 0 134 -26 183 -79c49 -52 74 -116 74 -192c0 -77 -25 -143 -75 -196
c-49 -52 -111 -78 -184 -78c-67 0 -119 24 -158 73v-57h-181v830z" />
    <glyph glyph-name="c" unicode="c" horiz-adv-x="490" 
d="M449 500v-154c-32 21 -64 32 -95 32c-36 0 -66 -12 -89 -35s-35 -52 -35 -89c0 -35 12 -65 35 -88c24 -23 54 -35 89 -35s66 12 95 35v-154c-43 -19 -86 -29 -127 -29c-76 0 -142 26 -198 77c-55 50 -82 114 -82 192c0 79 27 145 81 197c54 53 122 79 204 79
c44 0 85 -9 122 -28z" />
    <glyph glyph-name="d" unicode="d" horiz-adv-x="701" 
d="M230 258c0 -33 11 -61 34 -84s50 -34 83 -34s60 11 83 34s34 50 34 82c0 33 -11 60 -34 83s-50 34 -83 34s-60 -11 -83 -34s-34 -50 -34 -81zM458 462v368h182v-830h-182v57c-39 -49 -91 -73 -157 -73c-73 0 -135 26 -185 78c-49 53 -74 119 -74 196c0 76 25 140 74 192
c49 53 110 79 183 79c63 0 116 -22 159 -67z" />
    <glyph glyph-name="e" unicode="e" horiz-adv-x="647" 
d="M230 328h207c-12 52 -52 82 -105 82c-55 0 -93 -29 -102 -82zM606 242v-19h-381c0 -77 37 -115 110 -115c39 0 69 16 89 48h175c-35 -117 -123 -176 -265 -176c-87 0 -158 25 -212 74c-53 49 -80 115 -80 197c0 85 25 153 76 202s121 74 209 74c87 0 156 -25 205 -76
s74 -120 74 -209z" />
    <glyph glyph-name="f" unicode="f" horiz-adv-x="391" 
d="M385 362h-127v-362h-181v362h-65v151h65v77c0 43 4 77 12 102c9 26 24 50 45 73c48 51 105 76 172 76c26 0 52 -6 79 -19v-158c-24 12 -45 18 -63 18c-23 0 -41 -9 -54 -27c-7 -11 -10 -37 -10 -78v-64h127v-151z" />
    <glyph glyph-name="g" unicode="g" horiz-adv-x="697" 
d="M230 259c0 -33 11 -61 34 -84s50 -34 83 -34c65 0 117 52 117 117c0 33 -11 60 -34 82c-23 23 -50 35 -83 35s-60 -12 -83 -35c-23 -22 -34 -49 -34 -81zM455 513h181v-478c0 -57 -6 -103 -19 -137c-12 -32 -35 -62 -68 -90c-52 -44 -122 -66 -211 -66
c-91 0 -163 24 -217 72c-41 37 -65 78 -74 124h204c13 -34 41 -51 86 -51c76 0 118 45 118 121v49c-27 -25 -53 -42 -77 -53c-24 -9 -52 -14 -85 -14c-73 0 -134 24 -181 72s-70 110 -70 187c0 79 25 145 74 198s111 80 186 80c61 0 112 -23 153 -68v54z" />
    <glyph glyph-name="h" unicode="h" horiz-adv-x="664" 
d="M62 0v830h181v-382c24 29 48 48 72 59c26 11 57 17 92 17c56 0 101 -15 136 -45c23 -19 38 -40 46 -62c9 -23 14 -53 14 -91v-326h-181v259c0 44 -5 74 -16 89c-15 21 -38 32 -68 32c-61 0 -95 -38 -95 -106v-274h-181z" />
    <glyph glyph-name="i" unicode="i" horiz-adv-x="305" 
d="M50 711c0 27 10 51 30 71s44 30 72 30c56 0 102 -46 102 -103c0 -56 -46 -101 -102 -101s-102 44 -102 103zM62 513h181v-513h-181v513z" />
    <glyph glyph-name="j" unicode="j" horiz-adv-x="305" 
d="M50 711c0 27 10 51 30 71s44 30 72 30c56 0 102 -46 102 -103c0 -56 -46 -101 -102 -101s-102 44 -102 103zM62 513h181v-769h-181v769z" />
    <glyph glyph-name="k" unicode="k" horiz-adv-x="698" 
d="M62 830h181v-502l190 185h248l-257 -237l272 -276h-254l-199 209v-209h-181v830z" />
    <glyph glyph-name="l" unicode="l" horiz-adv-x="305" 
d="M62 830h181v-830h-181v830z" />
    <glyph glyph-name="m" unicode="m" horiz-adv-x="992" 
d="M62 0v513h181v-63c49 47 105 71 166 71c77 0 135 -32 174 -96c41 65 99 97 174 97c57 0 102 -19 135 -57c25 -29 38 -73 38 -132v-333h-181v253c0 45 -5 75 -14 91c-14 24 -35 36 -62 36c-58 0 -87 -42 -87 -127v-253h-181v253c0 45 -4 75 -11 90c-15 27 -37 41 -68 41
c-28 0 -50 -12 -66 -36c-11 -16 -17 -48 -17 -95v-253h-181z" />
    <glyph glyph-name="n" unicode="n" horiz-adv-x="664" 
d="M62 0v513h181v-65c24 29 48 48 72 59c26 11 57 17 92 17c56 0 101 -15 136 -45c23 -19 38 -40 46 -62c9 -23 14 -53 14 -91v-326h-181v259c0 44 -5 74 -16 89c-15 21 -38 32 -68 32c-61 0 -95 -38 -95 -106v-274h-181z" />
    <glyph glyph-name="o" unicode="o" horiz-adv-x="700" 
d="M233 259c0 -34 11 -62 34 -85s51 -34 83 -34s59 11 82 34s35 51 35 84s-11 60 -34 83s-51 34 -83 34s-60 -11 -83 -34s-34 -50 -34 -82zM42 261c0 77 29 142 87 193c58 52 132 78 221 78c90 0 164 -26 222 -78c57 -51 86 -117 86 -198s-29 -148 -87 -199
s-133 -76 -224 -76c-90 0 -164 26 -221 78c-56 52 -84 119 -84 202z" />
    <glyph glyph-name="p" unicode="p" horiz-adv-x="701" 
d="M471 255c0 33 -11 61 -34 84s-50 34 -83 34c-32 0 -59 -11 -82 -34s-34 -50 -34 -83c0 -32 11 -59 34 -82s50 -34 83 -34c32 0 59 11 82 34s34 50 34 81zM243 50v-306h-181v769h181v-57c39 49 91 73 158 73c73 0 135 -26 184 -79c50 -53 75 -118 75 -195
c0 -76 -25 -140 -74 -193c-49 -52 -110 -78 -183 -78c-63 0 -117 22 -160 66z" />
    <glyph glyph-name="q" unicode="q" horiz-adv-x="701" 
d="M230 258c0 -33 11 -61 34 -84s50 -34 83 -34c65 0 117 52 117 117c0 32 -11 59 -34 82s-50 34 -83 34s-60 -11 -83 -34s-34 -50 -34 -81zM640 -256h-182v306c-43 -44 -96 -66 -159 -66c-73 0 -134 26 -183 78c-49 53 -74 117 -74 193c0 77 25 142 74 195
c50 53 112 79 185 79c66 0 118 -24 157 -73v57h182v-769z" />
    <glyph glyph-name="r" unicode="r" horiz-adv-x="465" 
d="M62 0v513h181v-84c39 61 96 91 169 91c8 0 20 -1 35 -2v-173c-24 12 -50 18 -78 18c-84 0 -126 -48 -126 -143v-220h-181z" />
    <glyph glyph-name="s" unicode="s" horiz-adv-x="509" 
d="M463 498l-61 -118c-33 17 -66 26 -98 26c-33 0 -56 -16 -56 -37c0 -11 5 -19 14 -25c11 -5 32 -11 68 -18c99 -21 149 -71 149 -152c0 -59 -22 -106 -66 -140c-45 -35 -104 -53 -178 -53c-70 0 -138 20 -205 59l66 128c51 -35 99 -52 144 -52c33 0 57 16 57 39
c0 13 -5 23 -14 29s-30 12 -63 19c-55 11 -93 28 -116 49c-23 22 -35 53 -35 93c0 115 88 186 229 186c57 0 112 -11 165 -33z" />
    <glyph glyph-name="t" unicode="t" horiz-adv-x="373" 
d="M367 362h-103v-362h-181v362h-60v151h60v154h181v-154h103v-151z" />
    <glyph glyph-name="u" unicode="u" horiz-adv-x="669" 
d="M62 513h181v-291c0 -63 31 -95 92 -95s92 32 92 95v291h181v-326c0 -137 -93 -208 -273 -208s-273 71 -273 208v326z" />
    <glyph glyph-name="v" unicode="v" horiz-adv-x="652" 
d="M0 513h204l122 -263l124 263h202l-267 -513h-121z" />
    <glyph glyph-name="w" unicode="w" horiz-adv-x="1025" 
d="M0 513h202l123 -270l128 270h114l128 -278l129 278h201l-268 -513h-121l-128 281l-122 -281h-123z" />
    <glyph glyph-name="x" unicode="x" horiz-adv-x="742" 
d="M0 0l256 278l-208 235h236l88 -106l90 106h236l-213 -235l257 -278h-240l-131 152l-132 -152h-239z" />
    <glyph glyph-name="y" unicode="y" horiz-adv-x="688" 
d="M73 -256l175 326l-248 443h210l137 -263l133 263h208l-412 -769h-203z" />
    <glyph glyph-name="z" unicode="z" horiz-adv-x="589" 
d="M566 513l-240 -362h216v-151h-520l242 362h-209v151h511z" />
    <glyph glyph-name="braceleft" unicode="{" horiz-adv-x="434" 
d="M230 328c52 -33 68 -68 68 -143v-154v-13c0 -55 10 -65 69 -65h21v-127l-37 -1l-37 -2h-12c-53 0 -92 13 -115 38s-34 66 -34 125v189c0 60 -17 89 -62 97v123c41 9 62 37 62 86v189c0 117 43 163 152 163h9l37 -1l37 -1v-128h-20c-30 0 -49 -4 -57 -12
c-9 -7 -13 -25 -13 -53v-13v-154c0 -39 -4 -68 -13 -87s-28 -37 -55 -56z" />
    <glyph glyph-name="bar" unicode="|" horiz-adv-x="565" 
d="M175 -188v942h216v-942h-216z" />
    <glyph glyph-name="braceright" unicode="}" horiz-adv-x="434" 
d="M203 328c-26 17 -44 36 -54 56c-9 21 -14 50 -14 87v154v14c0 27 -4 45 -12 52c-9 9 -28 13 -57 13l-21 -1v128l38 1l36 1h12c53 0 91 -13 114 -38s35 -66 35 -125v-189c0 -61 16 -89 62 -97v-123c-41 -9 -62 -37 -62 -86v-189c0 -59 -12 -101 -35 -126s-61 -37 -116 -37
h-10l-36 2l-38 1v128l20 -1c30 0 49 4 58 12c8 8 12 26 12 53v13v155c0 39 5 67 14 85c9 20 27 39 54 57z" />
    <glyph glyph-name="asciitilde" unicode="~" horiz-adv-x="754" 
d="M182 634l-80 53c4 8 7 14 9 19l14 31c31 71 80 106 148 106c26 0 65 -10 118 -30c47 -17 80 -26 97 -26c19 0 34 4 45 11c11 9 24 24 37 47l82 -48c-52 -111 -100 -150 -179 -150c-21 0 -59 10 -116 31c-46 17 -77 26 -92 26c-19 0 -34 -5 -45 -15
c-11 -9 -24 -27 -38 -55z" />
    <glyph glyph-name="nbspace" unicode="&#xa0;" horiz-adv-x="340" 
 />
    <glyph glyph-name="exclamdown" unicode="&#xa1;" horiz-adv-x="385" 
d="M98 -173v497h188v-497h-188zM75 488c0 31 11 58 34 81s51 34 83 34c33 0 60 -11 83 -34s34 -50 34 -83c0 -32 -11 -59 -34 -82s-50 -34 -83 -34s-60 11 -83 34s-34 51 -34 84z" />
    <glyph glyph-name="cent" unicode="&#xa2;" 
d="M391 743h92v-99c19 -4 38 -10 59 -18v-162c-29 25 -60 38 -92 38c-35 0 -64 -12 -87 -36s-35 -53 -35 -88s12 -64 35 -87c24 -23 53 -35 87 -35c35 0 66 13 92 39v-163c-23 -8 -43 -13 -59 -16v-105h-92v98c-72 5 -132 33 -181 84c-48 51 -72 113 -72 185
c0 74 22 135 67 184c45 48 107 77 186 88v93z" />
    <glyph glyph-name="sterling" unicode="&#xa3;" 
d="M184 290h-149v95h82c-19 35 -29 74 -29 119c0 60 18 114 54 161c52 69 134 103 245 103c93 0 161 -23 205 -69c43 -46 65 -118 65 -215h-198c3 16 5 28 5 36c0 25 -9 47 -27 66c-19 19 -41 28 -66 28c-55 0 -94 -46 -94 -107c0 -36 9 -71 26 -106c1 -4 4 -8 7 -16h169
v-95h-141c3 -25 5 -46 5 -63c0 -19 -3 -39 -10 -61l27 -8c65 -20 109 -30 133 -30c31 0 50 20 50 49h121c-3 -61 -22 -109 -55 -142c-32 -34 -76 -51 -132 -51c-25 0 -70 9 -134 28c-57 17 -99 25 -126 25c-34 0 -55 -12 -64 -37h-130c13 52 30 90 51 114
c35 42 76 63 121 63c7 14 10 27 10 38c0 25 -7 50 -21 75z" />
    <glyph glyph-name="Euro" unicode="&#x20ac;" 
d="M526 150v-170c-115 0 -213 34 -292 101c-80 68 -123 152 -129 253h368v-95h-143c7 -10 15 -20 26 -31c18 -19 44 -33 78 -44c31 -9 61 -14 92 -14zM526 770v-170c-31 0 -62 -5 -93 -15c-34 -11 -60 -25 -78 -44c-8 -9 -18 -21 -27 -36h145v-96h-368c7 109 54 198 140 268
c76 62 170 93 281 93z" />
    <glyph glyph-name="yen" unicode="&#xa5;" 
d="M236 373h-175v118h103l-160 263h223l114 -217l109 217h225l-166 -263h110v-118h-184l-7 -11v-60h191v-118h-191v-184h-186v184h-181v118h181v60z" />
    <glyph glyph-name="Scaron" unicode="&#x160;" horiz-adv-x="646" 
d="M571 711l-78 -153c-43 34 -85 51 -128 51c-24 0 -44 -6 -60 -19c-16 -12 -24 -27 -24 -46c0 -20 12 -37 36 -51c11 -6 45 -17 100 -34c131 -39 185 -101 185 -209c0 -85 -26 -151 -78 -198c-51 -47 -123 -71 -216 -71c-94 0 -182 28 -263 85l84 158
c58 -51 116 -77 173 -77s94 30 94 74c0 40 -25 60 -117 87c-72 21 -120 41 -144 60c-39 33 -59 83 -59 150c0 75 23 137 70 184s109 70 186 70c82 0 162 -20 239 -61zM561 950l-54 86l-176 -89l-176 89l-54 -86l230 -136z" />
    <glyph glyph-name="section" unicode="&#xa7;" 
d="M344 416c-47 0 -83 -37 -83 -82s37 -82 82 -82c22 0 41 8 57 24c17 16 25 35 25 58s-8 42 -24 58c-17 16 -36 24 -57 24zM566 634l1 -8h-157c-1 1 -1 2 -1 4v3c-4 51 -26 76 -67 76c-18 0 -33 -6 -45 -17s-18 -25 -18 -42s7 -32 22 -43s44 -26 91 -45s81 -35 102 -48
c21 -12 39 -28 54 -47c28 -33 42 -73 42 -119c0 -39 -9 -73 -26 -101s-46 -57 -89 -86c31 -20 53 -41 66 -64c13 -22 20 -49 20 -80c0 -57 -21 -104 -64 -141c-43 -38 -96 -57 -160 -57c-67 0 -121 20 -162 59s-62 91 -62 154v9h160v-8c0 -51 27 -82 70 -82c20 0 37 6 50 19
s20 29 20 48c0 22 -8 39 -23 52c-16 13 -46 27 -91 42s-80 28 -101 40c-22 12 -41 28 -56 47c-29 35 -44 79 -44 131c0 43 8 78 25 105c17 28 45 53 84 75c-59 43 -81 81 -81 144c0 54 20 98 59 132s90 51 153 51c71 0 126 -18 167 -54s61 -86 61 -149z" />
    <glyph glyph-name="scaron" unicode="&#x161;" horiz-adv-x="509" 
d="M463 498l-61 -118c-33 17 -66 26 -98 26c-33 0 -56 -16 -56 -37c0 -11 5 -19 14 -25c11 -5 32 -11 68 -18c99 -21 149 -71 149 -152c0 -59 -22 -106 -66 -140c-45 -35 -104 -53 -178 -53c-70 0 -138 20 -205 59l66 128c51 -35 99 -52 144 -52c33 0 57 16 57 39
c0 13 -5 23 -14 29s-30 12 -63 19c-55 11 -93 28 -116 49c-23 22 -35 53 -35 93c0 115 88 186 229 186c57 0 112 -11 165 -33zM275 588l-221 166l77 88l144 -112l144 112l80 -88z" />
    <glyph glyph-name="copyright" unicode="&#xa9;" horiz-adv-x="859" 
d="M435 700c-89 0 -165 -31 -227 -94c-61 -63 -92 -139 -92 -230c0 -88 31 -164 92 -228c62 -63 136 -94 222 -94c87 0 160 31 221 94s92 140 92 229s-30 164 -91 227c-61 64 -133 96 -217 96zM436 771c105 0 196 -39 272 -117c76 -77 114 -170 114 -278
c0 -109 -38 -201 -115 -277c-77 -77 -169 -116 -276 -116s-200 39 -278 116c-77 77 -115 169 -115 277c0 111 38 204 115 280c77 77 171 115 283 115zM562 590l5 -2v-161l-13 15c-27 30 -59 45 -98 45c-33 0 -60 -10 -81 -31s-31 -49 -31 -82c0 -32 10 -58 31 -79
s48 -31 81 -31c35 0 68 15 98 44l13 12v-157l-5 -2l-13 -4c-38 -12 -71 -18 -98 -18c-69 0 -128 23 -177 69c-48 45 -72 100 -72 167c0 66 24 122 72 168s107 69 176 69c35 0 72 -7 112 -22z" />
    <glyph glyph-name="ordfeminine" unicode="&#xaa;" horiz-adv-x="410" 
d="M36 320v68h342v-68h-342zM134 595c0 -39 30 -69 69 -69c37 0 68 30 68 69c0 37 -31 68 -68 68c-18 0 -34 -7 -49 -20c-13 -13 -20 -29 -20 -48zM269 715v29h105v-299h-105v33c-23 -29 -54 -43 -93 -43c-43 0 -79 15 -108 46s-44 69 -44 114s15 82 44 113s64 46 107 46
c37 0 68 -13 94 -39z" />
    <glyph glyph-name="guillemotleft" unicode="&#xab;" horiz-adv-x="601" 
d="M304 435l-126 -177l129 -174l-103 -72l-172 246l172 245zM552 435l-125 -177l128 -174l-103 -72l-171 246l171 245z" />
    <glyph glyph-name="logicalnot" unicode="&#xac;" horiz-adv-x="565" 
d="M528 0h-209v149h-281v188h490v-337z" />
    <glyph glyph-name="sfthyphen" unicode="&#xad;" horiz-adv-x="287" 
d="M0 192v151h287v-151h-287z" />
    <glyph glyph-name="registered" unicode="&#xae;" horiz-adv-x="859" 
d="M435 700c-89 0 -165 -31 -227 -94c-61 -63 -92 -139 -92 -230c0 -88 31 -164 92 -228c62 -63 136 -94 222 -94c87 0 160 31 221 94s92 140 92 229s-30 164 -91 227c-61 64 -133 96 -217 96zM436 771c105 0 196 -39 272 -117c76 -77 114 -170 114 -278
c0 -109 -38 -201 -115 -277c-77 -77 -169 -116 -276 -116s-200 39 -278 116c-77 77 -115 169 -115 277c0 111 38 204 115 280c77 77 171 115 283 115zM368 500v-93h15c45 0 67 16 67 47s-22 46 -67 46h-15zM494 333l149 -182h-171l-104 151v-151h-137v452h197
c49 0 88 -13 118 -39c29 -26 44 -61 44 -104c0 -66 -32 -108 -96 -127z" />
    <glyph glyph-name="macron" unicode="&#xaf;" horiz-adv-x="565" 
d="M85 611v111h396v-111h-396z" />
    <glyph glyph-name="degree" unicode="&#xb0;" horiz-adv-x="679" 
d="M267 616c0 -41 32 -73 72 -73c20 0 37 7 51 21s21 31 21 51s-7 37 -21 51s-31 21 -51 21c-40 0 -72 -32 -72 -71zM188 616c0 41 15 76 44 105c30 29 66 44 107 44c42 0 78 -15 107 -44s44 -65 44 -106c0 -42 -15 -78 -44 -107s-65 -44 -107 -44s-78 15 -107 44
c-29 30 -44 66 -44 108z" />
    <glyph glyph-name="plusminus" unicode="&#xb1;" 
d="M72 0v128h535v-128h-535zM72 362v128h204v204h128v-204h203v-128h-203v-181h-128v181h-204z" />
    <glyph glyph-name="twosuperior" unicode="&#xb2;" horiz-adv-x="452" 
d="M333 470l-68 -63h139v-105h-369l119 124c79 83 118 145 118 187c0 29 -20 54 -48 54c-25 0 -43 -22 -43 -51c0 -5 1 -12 2 -23h-135c0 54 16 97 48 130c33 33 75 50 128 50c51 0 93 -16 126 -47s49 -70 49 -118c0 -50 -22 -96 -66 -138z" />
    <glyph glyph-name="threesuperior" unicode="&#xb3;" horiz-adv-x="452" 
d="M201 496v87c7 0 13 -1 16 -1c28 0 46 18 46 45c0 25 -17 41 -42 41c-29 0 -43 -17 -43 -50h-115c12 100 69 153 168 153c88 0 147 -53 147 -132c0 -41 -14 -71 -42 -92c19 -7 36 -22 49 -43s19 -45 19 -71c0 -45 -17 -81 -50 -109c-34 -28 -77 -42 -128 -42
c-73 0 -128 30 -163 89c-15 27 -23 54 -23 81h126c2 -41 22 -62 60 -62c32 0 56 22 56 54c0 15 -5 28 -16 39s-24 17 -39 17c-7 0 -15 -1 -26 -4z" />
    <glyph glyph-name="Zcaron" unicode="&#x17d;" horiz-adv-x="714" 
d="M699 754l-355 -588h316v-166h-645l357 588h-297v166h624zM625 950l-54 86l-191 -89l-192 89l-54 -86l246 -136z" />
    <glyph glyph-name="paragraph" unicode="&#xb6;" 
d="M333 -104h-123v467h-14c-61 0 -109 18 -145 53c-37 36 -55 82 -55 139c0 133 86 199 259 199h378v-111h-83v-747h-123v747h-94v-747z" />
    <glyph glyph-name="middot" unicode="&#xb7;" horiz-adv-x="340" 
d="M53 378c0 32 11 59 34 82s50 34 82 34c65 0 118 -52 118 -117c0 -33 -12 -60 -35 -83s-50 -34 -82 -34c-33 0 -61 11 -84 34c-22 23 -33 51 -33 84z" />
    <glyph glyph-name="zcaron" unicode="&#x17e;" horiz-adv-x="589" 
d="M566 513l-240 -362h216v-151h-520l242 362h-209v151h511zM301 588l-221 166l77 88l144 -112l144 112l80 -88z" />
    <glyph glyph-name="onesuperior" unicode="&#xb9;" horiz-adv-x="452" 
d="M179 302v346h-64v106h186v-452h-122z" />
    <glyph glyph-name="ordmasculine" unicode="&#xba;" horiz-adv-x="409" 
d="M34 320v68h342v-68h-342zM136 595c0 -19 7 -36 20 -49s30 -20 49 -20s35 7 48 20s20 30 20 49s-7 35 -20 48s-29 20 -48 20c-39 0 -69 -31 -69 -68zM24 597c0 46 17 84 51 113c35 30 78 45 130 45s95 -15 129 -45s51 -68 51 -115c0 -48 -17 -87 -51 -117
c-34 -29 -78 -44 -131 -44s-96 15 -129 45c-33 31 -50 70 -50 118z" />
    <glyph glyph-name="guillemotright" unicode="&#xbb;" horiz-adv-x="601" 
d="M294 84l129 174l-126 177l100 68l172 -245l-172 -246zM45 84l129 174l-126 177l100 68l172 -245l-172 -246z" />
    <glyph glyph-name="OE" unicode="&#x152;" horiz-adv-x="1147" 
d="M250 381c0 -59 21 -110 62 -152c41 -41 90 -62 149 -62c58 0 107 21 148 62s62 91 62 149s-21 108 -62 149s-90 62 -149 62c-57 0 -106 -21 -148 -62c-41 -41 -62 -89 -62 -146zM1102 754v-167h-228v-125h212v-166h-212v-130h228v-166h-424v80
c-69 -69 -148 -103 -237 -103c-107 0 -200 40 -278 119c-79 79 -118 173 -118 282c0 60 13 116 38 168c25 53 59 99 104 137c77 64 163 96 258 96c89 0 167 -33 233 -99v74h424z" />
    <glyph glyph-name="oe" unicode="&#x153;" horiz-adv-x="1059" 
d="M230 257c0 -33 11 -62 33 -85s48 -35 78 -35c31 0 57 11 79 34s33 51 33 84s-11 60 -32 82c-21 23 -48 34 -79 34s-58 -11 -79 -34c-22 -22 -33 -49 -33 -80zM638 330h211c-17 55 -52 83 -105 83c-55 0 -91 -28 -106 -83zM1018 226h-385c9 -83 42 -116 113 -116
c40 0 69 16 87 48h175c-11 -55 -41 -99 -88 -130s-107 -47 -178 -47c-86 0 -152 30 -197 89c-35 -35 -66 -59 -95 -70c-27 -13 -65 -19 -114 -19c-89 0 -160 25 -214 75c-53 49 -80 115 -80 198s27 150 81 201s126 77 215 77c43 0 80 -6 112 -19c31 -12 63 -33 95 -63
c44 52 110 78 197 78c180 0 276 -107 276 -302z" />
    <glyph glyph-name="Ydieresis" unicode="&#x178;" horiz-adv-x="724" 
d="M259 0v362l-272 392h234l142 -206l137 206h238l-283 -392v-362h-196zM128 925c0 -28 10 -52 29 -71s43 -28 70 -28s49 9 68 28s29 43 29 70c0 53 -43 97 -98 97c-53 0 -98 -44 -98 -96zM400 925c0 -28 9 -52 28 -71s43 -28 70 -28s50 9 69 28s29 43 29 70
c0 53 -45 97 -98 97s-98 -44 -98 -96z" />
    <glyph glyph-name="questiondown" unicode="&#xbf;" horiz-adv-x="617" 
d="M429 485c0 -31 -11 -59 -34 -82c-23 -22 -51 -33 -83 -33s-60 11 -83 33c-23 23 -34 50 -34 83s11 60 34 83s51 34 83 34s60 -12 83 -35s34 -50 34 -83zM226 329h183v-195c-16 4 -29 5 -40 5c-37 0 -69 -10 -94 -29s-37 -42 -37 -71c0 -21 7 -38 22 -52
c14 -14 31 -21 52 -21c41 0 68 29 68 76h199c0 -67 -26 -123 -77 -167c-51 -45 -116 -67 -193 -67c-75 0 -137 23 -187 69c-51 48 -77 104 -77 167c0 99 60 170 181 213v72z" />
    <glyph glyph-name="Agrave" unicode="&#xc0;" horiz-adv-x="803" 
d="M321 280h163l-81 241zM585 0l-48 131h-270l-52 -131h-208l290 754h214l284 -754h-210zM222 946l192 -132l76 71l-163 156z" />
    <glyph glyph-name="Aacute" unicode="&#xc1;" horiz-adv-x="803" 
d="M321 280h163l-81 241zM585 0l-48 131h-270l-52 -131h-208l290 754h214l284 -754h-210zM588 946l-105 95l-163 -156l76 -71z" />
    <glyph glyph-name="Acircumflex" unicode="&#xc2;" horiz-adv-x="803" 
d="M321 280h163l-81 241zM585 0l-48 131h-270l-52 -131h-208l290 754h214l284 -754h-210zM171 900l55 -86l176 89l176 -89l54 86l-230 136z" />
    <glyph glyph-name="Atilde" unicode="&#xc3;" horiz-adv-x="803" 
d="M321 280h163l-81 241zM585 0l-48 131h-270l-52 -131h-208l290 754h214l284 -754h-210zM275 833c4 17 8 28 13 33s14 8 26 8c13 0 38 -7 76 -21c35 -13 65 -20 92 -20c45 0 78 12 99 37s35 66 42 125h-98c-7 -27 -22 -41 -45 -41c-13 0 -37 5 -70 16
c-49 16 -83 24 -103 24c-39 0 -70 -14 -93 -43s-34 -69 -34 -118h95z" />
    <glyph glyph-name="Adieresis" unicode="&#xc4;" horiz-adv-x="803" 
d="M321 280h163l-81 241zM585 0l-48 131h-270l-52 -131h-208l290 754h214l284 -754h-210zM167 925c0 -28 10 -52 29 -71s43 -28 70 -28s49 9 68 28s29 43 29 70c0 53 -43 97 -98 97c-53 0 -98 -44 -98 -96zM439 925c0 -28 9 -52 28 -71s43 -28 70 -28s50 9 69 28
s29 43 29 70c0 53 -45 97 -98 97s-98 -44 -98 -96z" />
    <glyph glyph-name="Aring" unicode="&#xc5;" horiz-adv-x="803" 
d="M321 280h163l-81 241zM585 0l-48 131h-270l-52 -131h-208l290 754h214l284 -754h-210zM246 929c0 -75 58 -118 155 -118c96 0 156 43 156 117c0 73 -60 117 -156 117s-155 -45 -155 -116zM343 929c0 25 22 42 57 42c39 0 59 -14 59 -43s-20 -43 -59 -43
c-38 0 -57 15 -57 44z" />
    <glyph glyph-name="AE" unicode="&#xc6;" horiz-adv-x="1045" 
d="M315 281h166l-82 224zM583 0l-50 133h-272l-47 -133h-207l291 754h461l61 -166h-248l47 -126h247l63 -166h-249l49 -130h248l60 -166h-454z" />
    <glyph glyph-name="Ccedilla" unicode="&#xc7;" horiz-adv-x="667" 
d="M622 731v-234c-45 55 -102 83 -169 83c-59 0 -108 -20 -146 -59s-57 -89 -57 -149c0 -58 19 -106 58 -145c38 -39 86 -58 144 -58c63 0 119 27 170 80v-232l-20 -7c-60 -20 -112 -30 -155 -30c-101 0 -192 34 -271 101c-87 74 -131 171 -131 290c0 127 47 229 142 306
c76 62 162 93 258 93c55 0 114 -13 177 -39zM509 -130l-112 79l-132 -170l88 -61z" />
    <glyph glyph-name="Egrave" unicode="&#xc8;" horiz-adv-x="553" 
d="M508 754v-166h-233v-126h220v-166h-220v-130h233v-166h-429v754h429zM135 946l192 -132l76 71l-163 156z" />
    <glyph glyph-name="Eacute" unicode="&#xc9;" horiz-adv-x="553" 
d="M508 754v-166h-233v-126h220v-166h-220v-130h233v-166h-429v754h429zM471 946l-105 95l-163 -156l76 -71z" />
    <glyph glyph-name="Ecircumflex" unicode="&#xca;" horiz-adv-x="554" 
d="M508 754v-166h-233v-126h220v-166h-220v-130h233v-166h-429v754h429zM63 900l55 -86l175 89l177 -89l54 86l-231 136z" />
    <glyph glyph-name="Edieresis" unicode="&#xcb;" horiz-adv-x="554" 
d="M508 754v-166h-233v-126h220v-166h-220v-130h233v-166h-429v754h429zM64 925c0 -28 9 -52 28 -71s43 -28 70 -28s50 9 69 28s29 43 29 70c0 53 -45 97 -98 97s-98 -44 -98 -96zM327 925c0 -28 9 -52 28 -71s43 -28 70 -28s50 9 69 28s29 43 29 70c0 53 -45 97 -98 97
s-98 -44 -98 -96z" />
    <glyph glyph-name="Igrave" unicode="&#xcc;" horiz-adv-x="354" 
d="M79 754h196v-754h-196v754zM-6 946l192 -132l76 71l-163 156z" />
    <glyph glyph-name="Iacute" unicode="&#xcd;" horiz-adv-x="354" 
d="M79 754h196v-754h-196v754zM360 946l-105 95l-163 -156l76 -71z" />
    <glyph glyph-name="Icircumflex" unicode="&#xce;" horiz-adv-x="354" 
d="M79 754h196v-754h-196v754zM-38 900l54 -86l161 89l161 -89l54 86l-215 136z" />
    <glyph glyph-name="Idieresis" unicode="&#xcf;" horiz-adv-x="354" 
d="M79 754h196v-754h-196v754zM-37 925c0 -28 9 -52 28 -71s43 -28 70 -28s49 9 68 28s29 43 29 70c0 53 -44 97 -97 97s-98 -44 -98 -96zM196 925c0 -28 10 -52 29 -71s42 -28 69 -28s50 9 69 28s29 43 29 70c0 53 -45 97 -98 97s-98 -44 -98 -96z" />
    <glyph glyph-name="Eth" unicode="&#xd0;" horiz-adv-x="786" 
d="M275 324v-158h45c77 0 134 25 172 76c29 39 43 84 43 135s-14 96 -43 135c-38 51 -95 76 -172 76h-45v-136h128v-128h-128zM369 0h-290v324h-68v128h68v302h290c106 0 196 -41 271 -123c67 -75 100 -159 100 -254s-33 -179 -100 -254c-75 -82 -165 -123 -271 -123z" />
    <glyph glyph-name="Ntilde" unicode="&#xd1;" horiz-adv-x="911" 
d="M275 0h-196v754h196l361 -462v462h196v-754h-196l-361 461v-461zM336 833c5 17 10 28 14 33c5 5 14 8 25 8c13 0 39 -7 76 -21c35 -13 66 -20 93 -20c44 0 77 12 99 37c21 25 35 66 42 125h-99c-7 -27 -22 -41 -44 -41c-14 0 -37 5 -70 16c-49 16 -84 24 -103 24
c-79 0 -127 -61 -127 -161h94z" />
    <glyph glyph-name="Ograve" unicode="&#xd2;" horiz-adv-x="925" 
d="M250 377c0 -60 21 -111 62 -152s92 -62 151 -62s109 21 150 62s62 91 62 150s-21 108 -62 149s-92 62 -151 62c-58 0 -108 -21 -149 -62c-42 -41 -63 -90 -63 -147zM45 381c0 103 36 193 109 269c79 84 182 126 308 126c127 0 230 -42 309 -126c73 -77 109 -168 109 -275
s-36 -199 -109 -276c-79 -84 -183 -126 -312 -126c-119 0 -217 39 -296 116c-79 78 -118 175 -118 292zM291 946l192 -132l76 71l-163 156z" />
    <glyph glyph-name="Oacute" unicode="&#xd3;" horiz-adv-x="925" 
d="M250 377c0 -60 21 -111 62 -152s92 -62 151 -62s109 21 150 62s62 91 62 150s-21 108 -62 149s-92 62 -151 62c-58 0 -108 -21 -149 -62c-42 -41 -63 -90 -63 -147zM45 381c0 103 36 193 109 269c79 84 182 126 308 126c127 0 230 -42 309 -126c73 -77 109 -168 109 -275
s-36 -199 -109 -276c-79 -84 -183 -126 -312 -126c-119 0 -217 39 -296 116c-79 78 -118 175 -118 292zM642 946l-105 95l-163 -156l76 -71z" />
    <glyph glyph-name="Ocircumflex" unicode="&#xd4;" horiz-adv-x="925" 
d="M250 377c0 -60 21 -111 62 -152s92 -62 151 -62s109 21 150 62s62 91 62 150s-21 108 -62 149s-92 62 -151 62c-58 0 -108 -21 -149 -62c-42 -41 -63 -90 -63 -147zM45 381c0 103 36 193 109 269c79 84 182 126 308 126c127 0 230 -42 309 -126c73 -77 109 -168 109 -275
s-36 -199 -109 -276c-79 -84 -183 -126 -312 -126c-119 0 -217 39 -296 116c-79 78 -118 175 -118 292zM232 900l55 -86l176 89l176 -89l54 86l-230 136z" />
    <glyph glyph-name="Otilde" unicode="&#xd5;" horiz-adv-x="925" 
d="M250 377c0 -60 21 -111 62 -152s92 -62 151 -62s109 21 150 62s62 91 62 150s-21 108 -62 149s-92 62 -151 62c-58 0 -108 -21 -149 -62c-42 -41 -63 -90 -63 -147zM45 381c0 103 36 193 109 269c79 84 182 126 308 126c127 0 230 -42 309 -126c73 -77 109 -168 109 -275
s-36 -199 -109 -276c-79 -84 -183 -126 -312 -126c-119 0 -217 39 -296 116c-79 78 -118 175 -118 292zM344 833c4 17 9 28 13 33c5 5 14 8 26 8c13 0 38 -7 75 -21c35 -13 67 -20 94 -20c44 0 77 12 98 37s35 66 42 125h-98c-7 -27 -22 -41 -45 -41c-13 0 -37 5 -70 16
c-49 16 -83 24 -103 24c-79 0 -127 -61 -127 -161h95z" />
    <glyph glyph-name="Odieresis" unicode="&#xd6;" horiz-adv-x="925" 
d="M250 377c0 -60 21 -111 62 -152s92 -62 151 -62s109 21 150 62s62 91 62 150s-21 108 -62 149s-92 62 -151 62c-58 0 -108 -21 -149 -62c-42 -41 -63 -90 -63 -147zM45 381c0 103 36 193 109 269c79 84 182 126 308 126c127 0 230 -42 309 -126c73 -77 109 -168 109 -275
s-36 -199 -109 -276c-79 -84 -183 -126 -312 -126c-119 0 -217 39 -296 116c-79 78 -118 175 -118 292zM229 925c0 -28 9 -52 28 -71s43 -28 70 -28s50 9 69 28s29 43 29 70c0 53 -43 97 -98 97c-26 0 -49 -9 -69 -28c-19 -19 -29 -42 -29 -68zM500 925c0 -28 10 -52 29 -71
s43 -28 70 -28s50 9 69 28s29 43 29 70c0 53 -45 97 -98 97c-55 0 -99 -44 -99 -96z" />
    <glyph glyph-name="multiply" unicode="&#xd7;" 
d="M105 521l91 90l144 -143l144 143l91 -90l-144 -144l144 -144l-91 -90l-144 143l-144 -143l-91 90l145 144z" />
    <glyph glyph-name="Oslash" unicode="&#xd8;" horiz-adv-x="925" 
d="M649 476l-298 -285c41 -19 77 -28 109 -28c59 0 109 20 152 61s64 90 64 147c0 33 -9 68 -27 105zM275 278l292 278c-31 20 -66 30 -107 30c-57 0 -106 -21 -148 -63c-41 -41 -62 -90 -62 -145c0 -38 8 -71 25 -100zM815 789l78 -82l-92 -90c53 -77 80 -157 80 -240
c0 -115 -40 -212 -119 -289c-80 -77 -179 -115 -297 -115c-94 0 -181 27 -262 82l-95 -89l-78 81l93 89c-52 76 -78 154 -78 234c0 101 32 189 96 265c78 94 184 141 319 141c105 0 192 -27 260 -80z" />
    <glyph glyph-name="Ugrave" unicode="&#xd9;" horiz-adv-x="816" 
d="M79 754h196v-408c0 -47 1 -77 5 -96c3 -17 11 -33 23 -49c24 -32 58 -48 103 -48c47 0 83 17 108 50c11 15 18 32 21 50c4 20 6 49 6 93v408h195v-435c0 -61 -7 -110 -21 -148c-13 -37 -37 -72 -71 -104c-61 -57 -142 -86 -241 -86c-107 0 -190 29 -249 88
c-27 27 -47 60 -58 98c-11 39 -17 89 -17 152v435zM221 946l192 -132l76 71l-163 156z" />
    <glyph glyph-name="Uacute" unicode="&#xda;" horiz-adv-x="816" 
d="M79 754h196v-408c0 -47 1 -77 5 -96c3 -17 11 -33 23 -49c24 -32 58 -48 103 -48c47 0 83 17 108 50c11 15 18 32 21 50c4 20 6 49 6 93v408h195v-435c0 -61 -7 -110 -21 -148c-13 -37 -37 -72 -71 -104c-61 -57 -142 -86 -241 -86c-107 0 -190 29 -249 88
c-27 27 -47 60 -58 98c-11 39 -17 89 -17 152v435zM595 946l-105 95l-164 -156l76 -71z" />
    <glyph glyph-name="Ucircumflex" unicode="&#xdb;" horiz-adv-x="816" 
d="M79 754h196v-408c0 -47 1 -77 5 -96c3 -17 11 -33 23 -49c24 -32 58 -48 103 -48c47 0 83 17 108 50c11 15 18 32 21 50c4 20 6 49 6 93v408h195v-435c0 -61 -7 -110 -21 -148c-13 -37 -37 -72 -71 -104c-61 -57 -142 -86 -241 -86c-107 0 -190 29 -249 88
c-27 27 -47 60 -58 98c-11 39 -17 89 -17 152v435zM178 900l54 -86l176 89l176 -89l54 86l-230 136z" />
    <glyph glyph-name="Udieresis" unicode="&#xdc;" horiz-adv-x="816" 
d="M79 754h196v-408c0 -47 1 -77 5 -96c3 -17 11 -33 23 -49c24 -32 58 -48 103 -48c47 0 83 17 108 50c11 15 18 32 21 50c4 20 6 49 6 93v408h195v-435c0 -61 -7 -110 -21 -148c-13 -37 -37 -72 -71 -104c-61 -57 -142 -86 -241 -86c-107 0 -190 29 -249 88
c-27 27 -47 60 -58 98c-11 39 -17 89 -17 152v435zM174 925c0 -28 10 -52 29 -71s42 -28 69 -28s50 9 69 28s29 43 29 70c0 53 -45 97 -98 97s-98 -44 -98 -96zM446 925c0 -28 9 -52 28 -71s43 -28 70 -28s50 9 69 28s29 43 29 70c0 53 -44 97 -99 97c-53 0 -97 -44 -97 -96
z" />
    <glyph glyph-name="Yacute" unicode="&#xdd;" horiz-adv-x="724" 
d="M452 1041l105 -95l-193 -132l-76 71zM259 0v362l-272 392h234l142 -206l137 206h238l-283 -392v-362h-196z" />
    <glyph glyph-name="Thorn" unicode="&#xde;" horiz-adv-x="678" 
d="M275 491v-189h65c75 0 108 29 108 94c0 63 -36 95 -107 95h-66zM398 145h-123v-145h-196v754h196v-106h116c49 0 88 -6 118 -18c31 -11 59 -31 84 -59c40 -45 60 -102 60 -173c0 -164 -90 -253 -255 -253z" />
    <glyph glyph-name="germandbls" unicode="&#xdf;" horiz-adv-x="672" 
d="M243 0h-181v605c0 156 90 240 258 240c76 0 137 -20 182 -61s68 -95 68 -164c0 -58 -30 -110 -89 -156c55 -26 94 -55 116 -86c22 -32 33 -75 33 -129c0 -78 -23 -141 -68 -189c-48 -50 -124 -75 -228 -75l-38 1v153c41 0 74 11 99 32c24 22 36 51 36 88
c0 76 -51 124 -135 124v146c67 0 100 27 100 82c0 47 -29 77 -76 77c-51 0 -77 -30 -77 -91v-50v-547z" />
    <glyph glyph-name="agrave" unicode="&#xe0;" horiz-adv-x="701" 
d="M230 258c0 -33 11 -61 34 -84s50 -34 83 -34s60 11 83 34s34 50 34 82c0 33 -11 60 -34 83s-50 34 -83 34s-60 -11 -83 -34s-34 -50 -34 -81zM458 462v51h182v-513h-182v57c-39 -49 -91 -73 -157 -73c-73 0 -135 26 -185 78c-49 53 -74 119 -74 196c0 76 25 140 74 192
c49 53 110 79 183 79c63 0 116 -22 159 -67zM366 588l-174 154l115 83l143 -175z" />
    <glyph glyph-name="aacute" unicode="&#xe1;" horiz-adv-x="701" 
d="M230 258c0 -33 11 -61 34 -84s50 -34 83 -34s60 11 83 34s34 50 34 82c0 33 -11 60 -34 83s-50 34 -83 34s-60 -11 -83 -34s-34 -50 -34 -81zM458 462v51h182v-513h-182v57c-39 -49 -91 -73 -157 -73c-73 0 -135 26 -185 78c-49 53 -74 119 -74 196c0 76 25 140 74 192
c49 53 110 79 183 79c63 0 116 -22 159 -67zM525 742l-115 83l-143 -175l84 -62z" />
    <glyph glyph-name="acircumflex" unicode="&#xe2;" horiz-adv-x="701" 
d="M230 258c0 -33 11 -61 34 -84s50 -34 83 -34s60 11 83 34s34 50 34 82c0 33 -11 60 -34 83s-50 34 -83 34s-60 -11 -83 -34s-34 -50 -34 -81zM458 462v51h182v-513h-182v57c-39 -49 -91 -73 -157 -73c-73 0 -135 26 -185 78c-49 53 -74 119 -74 196c0 76 25 140 74 192
c49 53 110 79 183 79c63 0 116 -22 159 -67zM135 676l77 -88l144 112l144 -112l80 88l-224 166z" />
    <glyph glyph-name="atilde" unicode="&#xe3;" horiz-adv-x="701" 
d="M230 258c0 -33 11 -61 34 -84s50 -34 83 -34s60 11 83 34s34 50 34 82c0 33 -11 60 -34 83s-50 34 -83 34s-60 -11 -83 -34s-34 -50 -34 -81zM458 462v51h182v-513h-182v57c-39 -49 -91 -73 -157 -73c-73 0 -135 26 -185 78c-49 53 -74 119 -74 196c0 76 25 140 74 192
c49 53 110 79 183 79c63 0 116 -22 159 -67zM250 593c8 35 12 43 37 43c10 0 19 -2 26 -5l41 -15c39 -15 72 -23 99 -23c33 0 59 12 78 37c18 25 30 65 36 121h-89c-5 -18 -10 -30 -15 -36c-4 -5 -12 -8 -23 -8c-15 0 -36 6 -65 17c-51 18 -85 27 -100 27
c-31 0 -58 -14 -79 -42s-31 -63 -31 -105v-11h85z" />
    <glyph glyph-name="adieresis" unicode="&#xe4;" horiz-adv-x="701" 
d="M230 258c0 -33 11 -61 34 -84s50 -34 83 -34s60 11 83 34s34 50 34 82c0 33 -11 60 -34 83s-50 34 -83 34s-60 -11 -83 -34s-34 -50 -34 -81zM458 462v51h182v-513h-182v57c-39 -49 -91 -73 -157 -73c-73 0 -135 26 -185 78c-49 53 -74 119 -74 196c0 76 25 140 74 192
c49 53 110 79 183 79c63 0 116 -22 159 -67zM132 691c0 -28 9 -51 28 -70s43 -29 70 -29c53 0 97 43 97 98c0 53 -44 98 -97 98c-55 0 -98 -45 -98 -97zM388 691c0 -28 9 -51 28 -70s43 -29 70 -29c53 0 98 43 98 98c0 53 -45 98 -98 98s-98 -45 -98 -97z" />
    <glyph glyph-name="aring" unicode="&#xe5;" horiz-adv-x="701" 
d="M230 258c0 -33 11 -61 34 -84s50 -34 83 -34s60 11 83 34s34 50 34 82c0 33 -11 60 -34 83s-50 34 -83 34s-60 -11 -83 -34s-34 -50 -34 -81zM458 462v51h182v-513h-182v57c-39 -49 -91 -73 -157 -73c-73 0 -135 26 -185 78c-49 53 -74 119 -74 196c0 76 25 140 74 192
c49 53 110 79 183 79c63 0 116 -22 159 -67zM202 710c0 -75 57 -118 156 -118c49 0 86 10 113 31c28 21 42 49 42 86s-14 65 -42 86c-27 21 -64 31 -113 31c-97 0 -156 -44 -156 -116zM298 710c0 27 23 44 59 44c41 0 61 -15 61 -45s-20 -45 -61 -45c-39 0 -59 15 -59 46z
" />
    <glyph glyph-name="ae" unicode="&#xe6;" horiz-adv-x="981" 
d="M219 164c0 -35 33 -58 81 -58c51 0 92 26 92 57c0 32 -41 55 -96 55c-47 0 -77 -22 -77 -54zM562 332h209c-16 56 -51 84 -105 84c-52 0 -87 -28 -104 -84zM940 227h-383c0 -71 47 -117 116 -117c41 0 69 16 83 48h176c-16 -55 -47 -98 -94 -129
c-46 -31 -103 -46 -171 -46c-103 0 -170 33 -203 100c-53 -65 -123 -97 -210 -97c-63 0 -115 15 -154 45s-58 70 -58 120c0 52 19 93 57 123c39 31 91 46 156 46c41 0 85 -9 132 -27v14c0 61 -41 92 -124 92c-33 0 -80 -10 -141 -29v137c55 16 106 24 151 24
c94 0 150 -26 191 -91c42 61 107 91 196 91c52 0 99 -10 141 -31c41 -20 74 -48 97 -84c28 -46 42 -109 42 -189z" />
    <glyph glyph-name="ccedilla" unicode="&#xe7;" horiz-adv-x="490" 
d="M449 500v-154c-32 21 -64 32 -95 32c-36 0 -66 -12 -89 -35s-35 -52 -35 -89c0 -35 12 -65 35 -88c24 -23 54 -35 89 -35s66 12 95 35v-154c-43 -19 -86 -29 -127 -29c-76 0 -142 26 -198 77c-55 50 -82 114 -82 192c0 79 27 145 81 197c54 53 122 79 204 79
c44 0 85 -9 122 -28zM393 -124l-104 67l-132 -161l82 -52z" />
    <glyph glyph-name="egrave" unicode="&#xe8;" horiz-adv-x="647" 
d="M230 328h207c-12 52 -52 82 -105 82c-55 0 -93 -29 -102 -82zM606 242v-19h-381c0 -77 37 -115 110 -115c39 0 69 16 89 48h175c-35 -117 -123 -176 -265 -176c-87 0 -158 25 -212 74c-53 49 -80 115 -80 197c0 85 25 153 76 202s121 74 209 74c87 0 156 -25 205 -76
s74 -120 74 -209zM339 588l-174 154l115 83l143 -175z" />
    <glyph glyph-name="eacute" unicode="&#xe9;" horiz-adv-x="647" 
d="M230 328h207c-12 52 -52 82 -105 82c-55 0 -93 -29 -102 -82zM606 242v-19h-381c0 -77 37 -115 110 -115c39 0 69 16 89 48h175c-35 -117 -123 -176 -265 -176c-87 0 -158 25 -212 74c-53 49 -80 115 -80 197c0 85 25 153 76 202s121 74 209 74c87 0 156 -25 205 -76
s74 -120 74 -209zM498 742l-115 83l-143 -175l84 -62z" />
    <glyph glyph-name="ecircumflex" unicode="&#xea;" horiz-adv-x="647" 
d="M230 328h207c-12 52 -52 82 -105 82c-55 0 -93 -29 -102 -82zM606 242v-19h-381c0 -77 37 -115 110 -115c39 0 69 16 89 48h175c-35 -117 -123 -176 -265 -176c-87 0 -158 25 -212 74c-53 49 -80 115 -80 197c0 85 25 153 76 202s121 74 209 74c87 0 156 -25 205 -76
s74 -120 74 -209zM104 676l77 -88l144 112l144 -112l80 88l-224 166z" />
    <glyph glyph-name="edieresis" unicode="&#xeb;" horiz-adv-x="647" 
d="M230 328h207c-12 52 -52 82 -105 82c-55 0 -93 -29 -102 -82zM606 242v-19h-381c0 -77 37 -115 110 -115c39 0 69 16 89 48h175c-35 -117 -123 -176 -265 -176c-87 0 -158 25 -212 74c-53 49 -80 115 -80 197c0 85 25 153 76 202s121 74 209 74c87 0 156 -25 205 -76
s74 -120 74 -209zM98 691c0 -28 9 -51 28 -70s43 -29 70 -29c53 0 97 43 97 98c0 53 -44 98 -97 98c-55 0 -98 -45 -98 -97zM354 691c0 -28 9 -51 28 -70s43 -29 70 -29c53 0 98 43 98 98c0 53 -45 98 -98 98s-98 -45 -98 -97z" />
    <glyph glyph-name="igrave" unicode="&#xec;" horiz-adv-x="305" 
d="M243 513h-181v-513h181v513zM153 588l-174 154l115 83l143 -175z" />
    <glyph glyph-name="iacute" unicode="&#xed;" horiz-adv-x="305" 
d="M243 513h-181v-513h181v513zM327 742l-115 83l-143 -175l84 -62z" />
    <glyph glyph-name="icircumflex" unicode="&#xee;" horiz-adv-x="305" 
d="M243 513h-181v-513h181v513zM-47 676l76 -88l123 112l120 -112l80 88l-200 166z" />
    <glyph glyph-name="idieresis" unicode="&#xef;" horiz-adv-x="305" 
d="M243 513h-181v-513h181v513zM-62 691c0 -56 45 -99 98 -99s97 43 97 98c0 53 -44 98 -97 98s-98 -45 -98 -97zM171 691c0 -28 10 -51 29 -70s43 -29 70 -29c53 0 97 43 97 98c0 53 -43 98 -98 98c-53 0 -98 -45 -98 -97z" />
    <glyph glyph-name="eth" unicode="&#xf0;" horiz-adv-x="700" 
d="M233 259c0 -34 11 -62 34 -85s51 -34 83 -34s59 11 82 34s35 51 35 84s-11 60 -34 83s-51 34 -83 34s-60 -11 -83 -34s-34 -50 -34 -82zM334 757l114 73l57 -94l-78 -49c154 -134 231 -274 231 -419c0 -85 -28 -153 -85 -206s-131 -79 -222 -79s-165 26 -223 77
c-57 51 -86 116 -86 197c0 82 28 148 85 198c57 51 132 76 223 76c-20 25 -40 48 -63 68l-99 -63l-55 90l68 44c-19 12 -40 26 -68 39l72 124c51 -24 94 -48 129 -76z" />
    <glyph glyph-name="ntilde" unicode="&#xf1;" horiz-adv-x="664" 
d="M62 0v513h181v-65c24 29 48 48 72 59c26 11 57 17 92 17c56 0 101 -15 136 -45c23 -19 38 -40 46 -62c9 -23 14 -53 14 -91v-326h-181v259c0 44 -5 74 -16 89c-15 21 -38 32 -68 32c-61 0 -95 -38 -95 -106v-274h-181zM216 593c8 35 12 43 37 43c10 0 19 -2 26 -5l41 -15
c39 -15 72 -23 99 -23c33 0 59 12 78 37c18 25 30 65 36 121h-89c-5 -18 -10 -30 -15 -36c-4 -5 -12 -8 -23 -8c-15 0 -36 6 -65 17c-51 18 -85 27 -100 27c-31 0 -58 -14 -79 -42s-31 -63 -31 -105v-11h85z" />
    <glyph glyph-name="ograve" unicode="&#xf2;" horiz-adv-x="700" 
d="M233 259c0 -34 11 -62 34 -85s51 -34 83 -34s59 11 82 34s35 51 35 84s-11 60 -34 83s-51 34 -83 34s-60 -11 -83 -34s-34 -50 -34 -82zM42 261c0 77 29 142 87 193c58 52 132 78 221 78c90 0 164 -26 222 -78c57 -51 86 -117 86 -198s-29 -148 -87 -199
s-133 -76 -224 -76c-90 0 -164 26 -221 78c-56 52 -84 119 -84 202zM358 588l-174 154l115 83l143 -175z" />
    <glyph glyph-name="oacute" unicode="&#xf3;" horiz-adv-x="700" 
d="M233 259c0 -34 11 -62 34 -85s51 -34 83 -34s59 11 82 34s35 51 35 84s-11 60 -34 83s-51 34 -83 34s-60 -11 -83 -34s-34 -50 -34 -82zM42 261c0 77 29 142 87 193c58 52 132 78 221 78c90 0 164 -26 222 -78c57 -51 86 -117 86 -198s-29 -148 -87 -199
s-133 -76 -224 -76c-90 0 -164 26 -221 78c-56 52 -84 119 -84 202zM517 742l-115 83l-143 -175l84 -62z" />
    <glyph glyph-name="ocircumflex" unicode="&#xf4;" horiz-adv-x="700" 
d="M233 259c0 -34 11 -62 34 -85s51 -34 83 -34s59 11 82 34s35 51 35 84s-11 60 -34 83s-51 34 -83 34s-60 -11 -83 -34s-34 -50 -34 -82zM42 261c0 77 29 142 87 193c58 52 132 78 221 78c90 0 164 -26 222 -78c57 -51 86 -117 86 -198s-29 -148 -87 -199
s-133 -76 -224 -76c-90 0 -164 26 -221 78c-56 52 -84 119 -84 202zM127 676l77 -88l144 112l144 -112l80 88l-224 166z" />
    <glyph glyph-name="otilde" unicode="&#xf5;" horiz-adv-x="700" 
d="M233 259c0 -34 11 -62 34 -85s51 -34 83 -34s59 11 82 34s35 51 35 84s-11 60 -34 83s-51 34 -83 34s-60 -11 -83 -34s-34 -50 -34 -82zM42 261c0 77 29 142 87 193c58 52 132 78 221 78c90 0 164 -26 222 -78c57 -51 86 -117 86 -198s-29 -148 -87 -199
s-133 -76 -224 -76c-90 0 -164 26 -221 78c-56 52 -84 119 -84 202zM242 593c8 35 12 43 37 43c10 0 19 -2 26 -5l41 -15c39 -15 72 -23 99 -23c33 0 59 12 78 37c18 25 30 65 36 121h-89c-5 -18 -10 -30 -15 -36c-4 -5 -12 -8 -23 -8c-15 0 -36 6 -65 17
c-51 18 -85 27 -100 27c-31 0 -58 -14 -79 -42s-31 -63 -31 -105v-11h85z" />
    <glyph glyph-name="odieresis" unicode="&#xf6;" horiz-adv-x="700" 
d="M233 259c0 -34 11 -62 34 -85s51 -34 83 -34s59 11 82 34s35 51 35 84s-11 60 -34 83s-51 34 -83 34s-60 -11 -83 -34s-34 -50 -34 -82zM42 261c0 77 29 142 87 193c58 52 132 78 221 78c90 0 164 -26 222 -78c57 -51 86 -117 86 -198s-29 -148 -87 -199
s-133 -76 -224 -76c-90 0 -164 26 -221 78c-56 52 -84 119 -84 202zM124 691c0 -28 9 -51 28 -70s43 -29 70 -29c53 0 97 43 97 98c0 53 -44 98 -97 98c-55 0 -98 -45 -98 -97zM380 691c0 -28 9 -51 28 -70s43 -29 70 -29c53 0 98 43 98 98c0 53 -45 98 -98 98
s-98 -45 -98 -97z" />
    <glyph glyph-name="divide" unicode="&#xf7;" 
d="M259 574c0 21 8 40 24 55c15 15 34 23 55 23c22 0 41 -8 56 -23s23 -34 23 -56c0 -21 -8 -40 -23 -56c-15 -15 -34 -23 -56 -23c-21 0 -40 8 -56 23c-15 17 -23 36 -23 57zM259 182c0 21 8 40 24 55c15 15 34 23 55 23c22 0 41 -8 56 -23s23 -34 23 -56s-8 -41 -23 -56
s-34 -23 -56 -23c-21 0 -40 8 -56 23c-15 16 -23 35 -23 57zM72 313v128h535v-128h-535z" />
    <glyph glyph-name="oslash" unicode="&#xf8;" horiz-adv-x="700" 
d="M460 298l-171 -139c18 -13 38 -19 60 -19c33 0 62 11 85 34s35 50 35 82c0 12 -3 26 -9 42zM242 210l175 144c-20 14 -41 21 -62 21c-35 0 -64 -11 -88 -34c-24 -22 -36 -49 -36 -82c0 -13 4 -30 11 -49zM68 -24l-53 65l76 58c-33 49 -49 102 -49 160c0 73 26 135 79 188
c55 57 133 85 234 85c71 0 136 -19 197 -58l85 67l53 -67l-76 -65c29 -44 44 -91 44 -142c0 -89 -28 -158 -84 -209c-55 -51 -131 -77 -228 -77c-81 0 -146 20 -194 59z" />
    <glyph glyph-name="ugrave" unicode="&#xf9;" horiz-adv-x="669" 
d="M62 513h181v-291c0 -63 31 -95 92 -95s92 32 92 95v291h181v-326c0 -137 -93 -208 -273 -208s-273 71 -273 208v326zM335 588l-174 154l115 83l143 -175z" />
    <glyph glyph-name="uacute" unicode="&#xfa;" horiz-adv-x="669" 
d="M62 513h181v-291c0 -63 31 -95 92 -95s92 32 92 95v291h181v-326c0 -137 -93 -208 -273 -208s-273 71 -273 208v326zM509 742l-115 83l-143 -175l84 -62z" />
    <glyph glyph-name="ucircumflex" unicode="&#xfb;" horiz-adv-x="669" 
d="M62 513h181v-291c0 -63 31 -95 92 -95s92 32 92 95v291h181v-326c0 -137 -93 -208 -273 -208s-273 71 -273 208v326zM112 676l77 -88l144 112l144 -112l80 88l-224 166z" />
    <glyph glyph-name="udieresis" unicode="&#xfc;" horiz-adv-x="669" 
d="M62 513h181v-291c0 -63 31 -95 92 -95s92 32 92 95v291h181v-326c0 -137 -93 -208 -273 -208s-273 71 -273 208v326zM109 691c0 -28 9 -51 28 -70s43 -29 70 -29c53 0 97 43 97 98c0 53 -44 98 -97 98c-55 0 -98 -45 -98 -97zM365 691c0 -28 9 -51 28 -70s43 -29 70 -29
c53 0 98 43 98 98c0 53 -45 98 -98 98s-98 -45 -98 -97z" />
    <glyph glyph-name="yacute" unicode="&#xfd;" horiz-adv-x="688" 
d="M411 825l115 -83l-174 -154l-84 62zM73 -256l175 326l-248 443h210l137 -263l133 263h208l-412 -769h-203z" />
    <glyph glyph-name="thorn" unicode="&#xfe;" horiz-adv-x="701" 
d="M471 255c0 33 -11 61 -34 84s-51 35 -83 35c-31 0 -59 -12 -82 -35s-34 -50 -34 -82c0 -31 11 -59 34 -83c24 -23 52 -35 83 -35s58 12 81 35s35 50 35 81zM243 50v-306h-181v1086h181v-374c39 49 92 74 159 74c63 0 119 -22 169 -66c59 -53 89 -122 89 -209
s-30 -156 -91 -209c-49 -42 -104 -63 -165 -63c-64 0 -118 22 -161 67z" />
    <glyph glyph-name="ydieresis" unicode="&#xff;" horiz-adv-x="688" 
d="M73 -256l175 326l-248 443h210l137 -263l133 263h208l-412 -769h-203zM374 691c0 52 45 97 98 97s98 -45 98 -98c0 -55 -45 -98 -98 -98c-27 0 -51 10 -70 29s-28 42 -28 70zM118 691c0 52 43 97 98 97c53 0 97 -45 97 -98c0 -55 -44 -98 -97 -98c-27 0 -51 10 -70 29
s-28 42 -28 70z" />
    <glyph glyph-name="foundryicon" horiz-adv-x="578" 
d="M396 290v139h15c41 0 71 -25 71 -70c0 -48 -32 -69 -72 -69h-14zM331 234h92c37 0 68 15 92 39c-37 -96 -126 -164 -235 -164c-94 0 -172 51 -217 125h40v154h1l119 -154h65v250h-65v-152h-1l-119 152h-40c45 74 123 125 217 125c108 0 199 -67 234 -163
c-23 25 -54 38 -91 38h-92v-250z" />
    <glyph glyph-name="dagger" unicode="&#x2020;" horiz-adv-x="679" 
d="M256 661v169h166v-169h177v-143h-177v-691h-166v691h-176v143h176z" />
    <glyph glyph-name="bullet" unicode="&#x2022;" horiz-adv-x="754" 
d="M379 542c42 0 78 -15 108 -46c31 -31 46 -68 46 -111c0 -45 -15 -82 -46 -113c-31 -30 -67 -45 -110 -45s-79 15 -110 46c-30 31 -45 68 -45 111c0 45 15 82 45 112c31 31 68 46 112 46z" />
    <glyph glyph-name="trademark" unicode="&#x2122;" horiz-adv-x="878" 
d="M437 324h-117l72 430h116l82 -220l86 220h117l64 -430h-118l-29 233l-96 -233h-52l-91 233zM298 653h-90v-329h-118v329h-90v101h298v-101z" />
    <glyph glyph-name="acute" unicode="&#xb4;" horiz-adv-x="565" 
d="M342 825l115 -83l-174 -154l-84 62z" />
    <glyph glyph-name="dieresis" unicode="&#xa8;" horiz-adv-x="565" 
d="M313 691c0 52 45 97 98 97s98 -45 98 -98c0 -55 -45 -98 -98 -98c-27 0 -51 10 -70 29s-28 42 -28 70zM57 691c0 52 43 97 98 97c53 0 97 -45 97 -98c0 -55 -44 -98 -97 -98c-27 0 -51 10 -70 29s-28 42 -28 70z" />
    <glyph glyph-name="notequal" unicode="&#x2260;" horiz-adv-x="565" 
d="M39 563h245l82 151l131 -73l-45 -78h76v-178h-148l-43 -74h190v-178h-255l-67 -122l-131 73l30 49h-66v178h131l43 74h-174z" />
    <glyph glyph-name="infinity" unicode="&#x221e;" horiz-adv-x="754" 
d="M309 384c-28 39 -57 58 -86 58c-17 0 -31 -6 -44 -17c-11 -11 -17 -25 -17 -42c0 -33 27 -58 62 -58c29 0 57 20 85 59zM445 384c28 -39 57 -59 86 -59c17 0 31 6 43 17s18 25 18 42s-6 30 -18 41s-27 17 -44 17c-29 0 -57 -19 -85 -58zM380 294
c-54 -62 -113 -93 -178 -93c-53 0 -97 17 -132 51c-34 35 -51 79 -51 132s17 97 51 131c35 35 79 52 132 52c61 0 119 -31 172 -92c51 61 110 91 177 91c53 0 98 -17 133 -50c34 -34 51 -78 51 -132c0 -53 -17 -97 -52 -132c-34 -34 -77 -51 -130 -51c-65 0 -122 31 -173 93
z" />
    <glyph glyph-name="lessequal" unicode="&#x2264;" horiz-adv-x="565" 
d="M38 196h490v-187h-490v187zM38 582l490 178v-200l-257 -68l255 -67l2 -200l-490 179v178z" />
    <glyph glyph-name="greaterequal" unicode="&#x2265;" horiz-adv-x="565" 
d="M528 9h-490v187h490v-187zM528 403l-490 -178l1 200l255 67l-256 68v200l490 -178v-179z" />
    <glyph glyph-name="mu" unicode="&#x3bc;" horiz-adv-x="669" 
d="M228 -2l15 -254h-181v769h181v-293c0 -62 31 -93 92 -93s92 32 92 95v291h181v-326c0 -66 -23 -117 -68 -154c-45 -36 -109 -54 -192 -54c-44 0 -84 6 -120 19z" />
    <glyph glyph-name="partialdiff" unicode="&#x2202;" horiz-adv-x="565" 
d="M284 338c-51 0 -91 -41 -91 -94c0 -25 9 -47 26 -66c17 -18 38 -27 63 -27c49 0 89 42 89 94c0 26 -9 48 -26 66s-38 27 -61 27zM55 592l23 156c312 -29 476 -182 476 -439c0 -200 -104 -318 -279 -318c-76 0 -139 25 -188 74s-73 113 -73 190c0 66 22 121 65 165
c43 45 97 67 162 67c51 0 92 -11 121 -34c-13 24 -27 42 -40 55s-32 25 -57 38c-52 25 -122 41 -210 46z" />
    <glyph glyph-name="summation" unicode="&#x2211;" horiz-adv-x="754" 
d="M38 848h679v-304h-182l-23 118h-246l269 -364l-267 -394h254l13 124h192v-310h-689v214l257 366l-257 335v215z" />
    <glyph glyph-name="product" unicode="&#x220f;" horiz-adv-x="754" 
d="M17 687v161h720v-161h-80v-808h80v-161h-328v161h67v808h-198v-808h66v-161h-327v161h81v808h-81z" />
    <glyph glyph-name="pi" unicode="&#x3c0;" horiz-adv-x="741" 
d="M294 0h-189v394h-82v148h695v-148h-82v-394h-190v394h-152v-394z" />
    <glyph glyph-name="integral" unicode="&#x222b;" horiz-adv-x="565" 
d="M32 -272l-10 1l33 192c21 -7 37 -11 50 -11c21 0 37 6 50 19s19 39 19 78v74v366v66v35c0 84 11 145 32 183c43 79 119 118 228 118c29 0 65 -4 109 -12l-32 -192c-21 7 -38 11 -52 11c-25 0 -43 -7 -53 -22c-9 -15 -14 -42 -14 -81v-429c0 -113 -2 -182 -6 -211
c-3 -29 -14 -58 -31 -86c-45 -73 -120 -109 -225 -109c-33 0 -65 3 -98 10z" />
    <glyph glyph-name="Ohm" unicode="&#x2126;" horiz-adv-x="753" 
d="M337 0h-305v130h155c-55 35 -95 74 -119 119c-24 44 -36 99 -36 165c0 103 33 188 98 256s147 102 247 102c99 0 182 -34 247 -102s97 -153 97 -255c0 -67 -12 -122 -36 -166s-64 -84 -119 -119h155v-130h-304v116c53 31 92 68 116 113c25 44 37 100 37 169
c0 72 -18 130 -53 173c-39 47 -85 71 -140 71c-56 0 -102 -23 -139 -69c-36 -45 -54 -104 -54 -175c0 -136 48 -223 153 -282v-116z" />
    <glyph glyph-name="radical" unicode="&#x221a;" horiz-adv-x="754" 
d="M429 935h325v-167h-176l-180 -768h-239l-54 268h-105v167h219l24 -102c8 -37 13 -89 17 -164h11c9 108 26 216 55 336z" />
    <glyph glyph-name="florin" unicode="&#x192;" horiz-adv-x="679" 
d="M479 569l-12 -68h110l-14 -75h-109l-53 -292c-21 -115 -55 -196 -102 -245s-115 -73 -205 -73c-32 0 -63 3 -103 10l29 165c31 -7 55 -10 74 -10c39 0 67 13 84 38s33 79 48 162l45 245h-87l12 75h88l23 120c26 137 100 206 223 206c47 0 90 -12 128 -35l-29 -156
c-29 20 -55 30 -79 30c-19 0 -34 -7 -45 -22c-10 -14 -19 -39 -26 -75z" />
    <glyph glyph-name="approxequal" unicode="&#x2248;" horiz-adv-x="565" 
d="M110 121l-102 72c45 117 97 169 177 169c22 0 64 -12 125 -35l40 -15c15 -6 28 -9 37 -9c23 0 46 16 69 48l101 -72c-24 -61 -50 -104 -77 -130c-27 -25 -61 -38 -101 -38c-25 0 -67 12 -126 35c-36 15 -62 22 -78 22c-21 0 -43 -16 -65 -47zM110 394l-102 72
c45 117 97 169 177 169c21 0 63 -12 125 -35l40 -16c13 -5 26 -7 37 -7c23 0 46 16 69 47l101 -72c-24 -61 -50 -104 -78 -130c-27 -25 -60 -38 -100 -38c-26 0 -68 12 -126 35c-37 15 -63 22 -78 22c-21 0 -43 -16 -65 -47z" />
    <glyph glyph-name="increment" unicode="&#x2206;" horiz-adv-x="749" 
d="M375 541l-107 -365h209zM738 0h-728l258 754h210z" />
    <glyph glyph-name="ellipsis" unicode="&#x2026;" horiz-adv-x="1029" 
d="M741 98c0 31 11 58 34 81s50 34 82 34c65 0 118 -52 118 -117c0 -33 -12 -60 -35 -83s-50 -34 -82 -34c-33 0 -60 11 -83 34s-34 52 -34 85zM398 98c0 31 11 58 34 81s50 34 83 34c32 0 59 -11 82 -34s34 -50 34 -83s-11 -60 -34 -83s-51 -34 -82 -34
c-33 0 -60 12 -83 35s-34 51 -34 84zM55 98c0 31 11 58 34 81s50 34 82 34c65 0 118 -52 118 -117c0 -33 -12 -60 -35 -83s-50 -34 -82 -34c-33 0 -61 12 -84 35c-22 23 -33 51 -33 84z" />
    <glyph glyph-name="endash" unicode="&#x2013;" horiz-adv-x="679" 
d="M72 192v151h535v-151h-535z" />
    <glyph glyph-name="emdash" unicode="&#x2014;" horiz-adv-x="867" 
d="M0 192v151h867v-151h-867z" />
    <glyph glyph-name="quotedblleft" unicode="&#x201c;" horiz-adv-x="647" 
d="M353 754l-130 -332h-170l184 332h116zM609 754l-130 -332h-170l184 332h116z" />
    <glyph glyph-name="quotedblright" unicode="&#x201d;" horiz-adv-x="647" 
d="M294 422l130 332h170l-184 -332h-116zM38 422l129 332h171l-184 -332h-116z" />
    <glyph glyph-name="quoteleft" unicode="&#x2018;" horiz-adv-x="391" 
d="M353 754l-130 -332h-170l184 332h116z" />
    <glyph glyph-name="quoteright" unicode="&#x2019;" horiz-adv-x="391" 
d="M38 422l129 332h171l-184 -332h-116z" />
    <glyph glyph-name="lozenge" unicode="&#x25ca;" horiz-adv-x="754" 
d="M600 377l-223 307l-223 -307l223 -306zM83 377l294 407l294 -407l-294 -406z" />
    <glyph glyph-name="fraction1" unicode="&#x2215;" horiz-adv-x="196" 
d="M-169 0l437 754h98l-437 -754h-98z" />
    <glyph glyph-name="currency" unicode="&#xa4;" 
d="M342 581c-43 0 -80 -15 -111 -45c-29 -30 -44 -67 -44 -110c0 -41 15 -78 44 -109c31 -30 67 -45 109 -45c43 0 79 15 109 45c30 31 45 68 45 110c0 41 -15 77 -45 108s-66 46 -107 46zM65 76l-79 79l116 117c-33 49 -49 100 -49 155s17 107 50 156l-118 117l80 80
l118 -117c50 33 103 49 158 49c53 0 105 -16 155 -48l116 115l79 -79l-115 -116c34 -53 51 -106 51 -157c0 -53 -16 -104 -48 -155l116 -116l-79 -80l-116 116c-51 -34 -105 -51 -161 -51c-52 0 -105 17 -158 50z" />
    <glyph glyph-name="guilsinglleft" unicode="&#x2039;" horiz-adv-x="352" 
d="M304 435l-126 -177l129 -174l-103 -72l-172 246l172 245z" />
    <glyph glyph-name="guilsinglright" unicode="&#x203a;" horiz-adv-x="352" 
d="M45 84l129 174l-126 177l100 68l172 -245l-172 -246z" />
    <glyph glyph-name="fi" unicode="&#xfb01;" horiz-adv-x="673" 
d="M611 608v-23h-181v23c0 25 -8 46 -25 65c-16 19 -36 28 -61 28s-45 -9 -62 -28c-16 -19 -24 -40 -24 -65v-95h104v-151h-104v-362h-181v362h-65v151h65v95c0 69 27 128 82 176c53 45 114 68 185 68s133 -23 185 -68c55 -47 82 -106 82 -176zM611 513v-513h-181v513h181z
" />
    <glyph glyph-name="fl" unicode="&#xfb02;" horiz-adv-x="673" 
d="M611 608v-608h-181v608c0 25 -8 46 -25 65c-16 19 -36 28 -61 28s-46 -9 -62 -28s-24 -40 -24 -65v-95h104v-151h-104v-362h-181v362h-65v151h65v95c0 70 27 129 82 176c52 45 114 68 185 68s132 -23 184 -68c55 -47 83 -106 83 -176z" />
    <glyph glyph-name="daggerdbl" unicode="&#x2021;" horiz-adv-x="679" 
d="M257 682v148h166v-148h176v-143h-176v-268h176v-143h-176v-301h-166v301h-177v143h177v268h-177v143h177z" />
    <glyph glyph-name="quotesinglbase" unicode="&#x201a;" horiz-adv-x="391" 
d="M38 -140l129 331h171l-184 -331h-116z" />
    <glyph glyph-name="quotedblbase" unicode="&#x201e;" horiz-adv-x="647" 
d="M294 -140l130 331h170l-184 -331h-116zM38 -140l129 331h171l-184 -331h-116z" />
    <glyph glyph-name="perthousand" unicode="&#x2030;" horiz-adv-x="1498" 
d="M1168 177c0 -48 38 -86 85 -86c48 0 85 38 85 85c0 23 -8 43 -25 60c-16 17 -36 25 -60 25c-23 0 -43 -8 -60 -25s-25 -36 -25 -59zM1047 179c0 55 19 99 58 132s90 49 153 49c59 0 108 -17 145 -51c37 -33 56 -77 56 -131c0 -57 -19 -102 -57 -136
c-39 -34 -89 -51 -151 -51c-61 0 -111 17 -148 51s-56 80 -56 137zM684 177c0 -48 37 -86 85 -86c47 0 85 38 85 85c0 23 -8 43 -25 60s-37 25 -60 25s-44 -8 -61 -25c-16 -17 -24 -36 -24 -59zM562 179c0 55 19 99 58 132s90 49 153 49c59 0 108 -17 145 -51
c38 -33 57 -77 57 -131c0 -57 -19 -102 -58 -136s-89 -51 -151 -51c-61 0 -111 17 -148 51s-56 80 -56 137zM238 0l438 754h97l-437 -754h-98zM159 579c0 -23 8 -44 25 -61c16 -17 36 -25 60 -25c47 0 85 38 85 85c0 23 -8 43 -25 60s-37 25 -60 25s-43 -8 -60 -25
s-25 -36 -25 -59zM38 581c0 55 19 99 57 131c39 33 90 50 154 50c59 0 107 -17 145 -51c37 -34 56 -78 56 -131c0 -57 -19 -102 -57 -136c-39 -34 -89 -51 -152 -51c-62 0 -111 17 -148 51s-55 80 -55 137z" />
    <glyph glyph-name="dotlessi" unicode="&#x131;" horiz-adv-x="305" 
d="M62 513h181v-513h-181v513z" />
    <glyph glyph-name="circumflex" unicode="&#x2c6;" horiz-adv-x="565" 
d="M137 588l-77 88l221 166l224 -166l-80 -88l-144 112z" />
    <glyph glyph-name="tilde" unicode="&#x2dc;" horiz-adv-x="565" 
d="M167 593h-85v11c0 42 10 77 31 105s48 42 79 42c15 0 49 -9 100 -27c29 -11 50 -17 65 -17c11 0 19 3 23 8c5 6 10 18 15 36h89c-6 -56 -18 -96 -36 -121c-19 -25 -45 -37 -78 -37c-27 0 -60 8 -99 23l-41 15c-7 3 -16 5 -26 5c-25 0 -29 -8 -37 -43z" />
    <glyph glyph-name="breve" unicode="&#x2d8;" horiz-adv-x="565" 
d="M365 785h115c-5 -125 -73 -189 -197 -189c-125 0 -193 64 -198 189h116c7 -55 34 -82 82 -82c47 0 75 27 82 82z" />
    <glyph glyph-name="dotaccent" unicode="&#x2d9;" horiz-adv-x="565" 
d="M180 696c0 27 10 51 30 71c20 21 44 31 73 31c56 0 103 -47 103 -103c0 -57 -47 -103 -103 -103c-29 0 -53 10 -74 30c-19 20 -29 45 -29 74z" />
    <glyph glyph-name="ring" unicode="&#x2da;" horiz-adv-x="565" 
d="M223 710c0 -31 20 -46 59 -46c41 0 61 15 61 45s-20 45 -61 45c-36 0 -59 -17 -59 -44zM127 710c0 72 59 116 156 116c49 0 86 -10 113 -31c28 -21 42 -49 42 -86s-14 -65 -42 -86c-27 -21 -64 -31 -113 -31c-99 0 -156 43 -156 118z" />
    <glyph glyph-name="cedilla" unicode="&#xb8;" horiz-adv-x="565" 
d="M342 -57l104 -67l-154 -146l-82 52z" />
    <glyph glyph-name="hungarumlaut" unicode="&#x2dd;" horiz-adv-x="565" 
d="M451 825l94 -83l-154 -154l-69 62zM247 825l95 -83l-155 -154l-69 62z" />
    <glyph glyph-name="ogonek" unicode="&#x2db;" horiz-adv-x="565" 
d="M289 0h83c-43 -28 -65 -54 -65 -78s20 -43 44 -43c15 0 34 7 57 21l-24 -98c-23 -13 -49 -20 -80 -20c-29 0 -53 9 -72 27c-19 17 -29 39 -29 64c0 49 29 91 86 127z" />
    <glyph glyph-name="caron" unicode="&#x2c7;" horiz-adv-x="565" 
d="M281 588l-221 166l77 88l144 -112l144 112l80 -88z" />
    <glyph glyph-name="Lslash" unicode="&#x141;" horiz-adv-x="543" 
d="M88 754h196v-256l131 90v-145l-131 -89v-188h237v-166h-433v260l-77 -58v145l77 57v350z" />
    <glyph glyph-name="lslash" unicode="&#x142;" horiz-adv-x="377" 
d="M98 830h181v-323l87 60v-146l-87 -56v-365h-181v277l-87 -60v145l87 57v411z" />
    <glyph glyph-name="brokenbar" unicode="&#xa6;" horiz-adv-x="565" 
d="M175 -188v361h216v-361h-216zM175 345v409h216v-409h-216z" />
    <glyph glyph-name="minus" unicode="&#x2212;" horiz-adv-x="679" 
d="M72 313v128h535v-128h-535z" />
    <glyph glyph-name="onehalf" unicode="&#xbd;" horiz-adv-x="1101" 
d="M980 168l-67 -63h139v-105h-369l119 125c79 82 118 144 118 186c0 29 -20 54 -48 54c-25 0 -43 -22 -43 -51c0 -4 1 -11 2 -22h-135c0 53 16 96 48 129c33 33 75 50 128 50c51 0 93 -16 126 -47s49 -70 49 -117c0 -51 -22 -97 -67 -139zM282 0l438 754h98l-438 -754h-98z
M179 302v346h-64v106h186v-452h-122z" />
    <glyph glyph-name="onequarter" unicode="&#xbc;" horiz-adv-x="1101" 
d="M799 187h95v155zM1008 452v-265h54v-96h-54v-91h-114v91h-216v79l173 282h157zM282 0l438 754h98l-438 -754h-98zM179 302v346h-64v106h186v-452h-122z" />
    <glyph glyph-name="threequarters" unicode="&#xbe;" horiz-adv-x="1101" 
d="M800 187h94v155zM1008 452v-265h54v-96h-54v-91h-114v91h-216v79l173 282h157zM283 0l437 754h98l-437 -754h-98zM201 496v87c7 0 13 -1 16 -1c28 0 46 18 46 45c0 25 -17 41 -42 41c-29 0 -43 -17 -43 -50h-115c12 100 69 153 168 153c88 0 147 -53 147 -132
c0 -41 -14 -71 -42 -92c19 -7 36 -22 49 -43s19 -45 19 -71c0 -45 -17 -81 -50 -109c-34 -28 -77 -42 -128 -42c-73 0 -128 30 -163 89c-15 27 -23 54 -23 81h126c2 -41 22 -62 60 -62c32 0 56 22 56 54c0 15 -5 28 -16 39s-24 17 -39 17c-7 0 -15 -1 -26 -4z" />
    <glyph glyph-name="Gbreve" unicode="&#x11e;" horiz-adv-x="880" 
d="M225 1000h127c10 -45 39 -67 88 -67s79 22 89 67h127c-3 -55 -24 -97 -62 -128c-37 -31 -89 -46 -154 -46c-64 0 -115 15 -154 46c-38 31 -58 73 -61 128zM446 266v152h389c0 -83 -9 -151 -27 -203c-28 -76 -73 -135 -136 -178c-63 -42 -138 -63 -224 -63
c-119 0 -216 37 -291 110c-75 74 -112 170 -112 289c0 110 33 202 99 277c74 85 178 128 311 128c157 0 270 -71 339 -212l-186 -77c-33 79 -87 119 -162 119c-56 0 -103 -22 -140 -67s-56 -101 -56 -168c0 -69 19 -126 57 -171c37 -44 86 -66 145 -66c91 0 142 43 155 130
h-161z" />
    <glyph glyph-name="gbreve" unicode="&#x11f;" horiz-adv-x="697" 
d="M151 785h116c5 -31 12 -52 23 -65c11 -11 28 -17 51 -17c29 0 50 5 62 16s21 33 28 66h115c-5 -125 -73 -189 -197 -189c-125 0 -191 64 -198 189zM230 259c0 -33 11 -61 34 -84s50 -34 83 -34c65 0 117 52 117 117c0 33 -11 60 -34 82c-23 23 -50 35 -83 35
s-60 -12 -83 -35c-23 -22 -34 -49 -34 -81zM455 513h181v-478c0 -57 -6 -103 -19 -137c-12 -32 -35 -62 -68 -90c-52 -44 -122 -66 -211 -66c-91 0 -163 24 -217 72c-41 37 -65 78 -74 124h204c13 -34 41 -51 86 -51c76 0 118 45 118 121v49c-27 -25 -53 -42 -77 -53
c-24 -9 -52 -14 -85 -14c-73 0 -134 24 -181 72s-70 110 -70 187c0 79 25 145 74 198s111 80 186 80c61 0 112 -23 153 -68v54z" />
    <glyph glyph-name="Idotaccent" unicode="&#x130;" horiz-adv-x="354" 
d="M79 925c0 52 45 96 98 96s98 -44 98 -97c0 -27 -10 -51 -29 -70s-42 -28 -69 -28s-51 9 -70 28s-28 43 -28 71zM79 754h196v-754h-196v754z" />
    <glyph glyph-name="Scommaaccent" unicode="&#x218;" horiz-adv-x="646" 
d="M281 -51l112 -79l-157 -152l-88 61zM571 711l-78 -153c-43 34 -85 51 -128 51c-24 0 -44 -6 -60 -19c-16 -12 -24 -27 -24 -46c0 -20 12 -37 36 -51c11 -6 45 -17 100 -34c131 -39 185 -101 185 -209c0 -85 -26 -151 -78 -198c-51 -47 -123 -71 -216 -71
c-94 0 -182 28 -263 85l84 158c58 -51 116 -77 173 -77s94 30 94 74c0 40 -25 60 -117 87c-72 21 -120 41 -144 60c-39 33 -59 83 -59 150c0 75 23 137 70 184s109 70 186 70c82 0 162 -20 239 -61z" />
    <glyph glyph-name="Cacute" unicode="&#x106;" horiz-adv-x="667" 
d="M491 1041l105 -95l-192 -132l-76 71zM622 731v-234c-45 55 -102 83 -169 83c-59 0 -108 -20 -146 -59s-57 -89 -57 -149c0 -58 19 -106 58 -145c38 -39 86 -58 144 -58c63 0 119 27 170 80v-232l-20 -7c-60 -20 -112 -30 -155 -30c-101 0 -192 34 -271 101
c-87 74 -131 171 -131 290c0 127 47 229 142 306c76 62 162 93 258 93c55 0 114 -13 177 -39z" />
    <glyph glyph-name="cacute" unicode="&#x107;" horiz-adv-x="490" 
d="M357 825l115 -83l-174 -154l-84 62zM449 500v-154c-32 21 -64 32 -95 32c-36 0 -66 -12 -89 -35s-35 -52 -35 -89c0 -35 12 -65 35 -88c24 -23 54 -35 89 -35s66 12 95 35v-154c-43 -19 -86 -29 -127 -29c-76 0 -142 26 -198 77c-55 50 -82 114 -82 192
c0 79 27 145 81 197c54 53 122 79 204 79c44 0 85 -9 122 -28z" />
    <glyph glyph-name="Ccaron" unicode="&#x10c;" horiz-adv-x="667" 
d="M585 1036l55 -86l-231 -136l-230 136l54 86l176 -89zM622 731v-234c-45 55 -102 83 -169 83c-59 0 -108 -20 -146 -59s-57 -89 -57 -149c0 -58 19 -106 58 -145c38 -39 86 -58 144 -58c63 0 119 27 170 80v-232l-20 -7c-60 -20 -112 -30 -155 -30
c-101 0 -192 34 -271 101c-87 74 -131 171 -131 290c0 127 47 229 142 306c76 62 162 93 258 93c55 0 114 -13 177 -39z" />
    <glyph glyph-name="ccaron" unicode="&#x10d;" horiz-adv-x="490" 
d="M296 588l-213 166l77 88l136 -112l137 112l80 -88zM449 500v-154c-32 21 -64 32 -95 32c-36 0 -66 -12 -89 -35s-35 -52 -35 -89c0 -35 12 -65 35 -88c24 -23 54 -35 89 -35s66 12 95 35v-154c-43 -19 -86 -29 -127 -29c-76 0 -142 26 -198 77c-55 50 -82 114 -82 192
c0 79 27 145 81 197c54 53 122 79 204 79c44 0 85 -9 122 -28z" />
    <glyph glyph-name="afii10022" unicode="&#x415;" horiz-adv-x="701" 
d="M230 258c0 -33 11 -62 34 -85s51 -34 83 -34c65 0 117 52 117 117c0 33 -11 60 -34 83s-51 35 -83 35s-60 -12 -83 -35s-34 -50 -34 -81zM458 739v91h182v-91h60v-121h-60v-618h-182v57c-38 -49 -91 -74 -158 -74c-73 0 -134 26 -184 79c-49 53 -74 118 -74 195
c0 78 24 143 73 195s110 78 183 78c65 0 118 -23 160 -68v156h-143v121h143z" />
    <glyph glyph-name="uniE009" unicode="&#xe009;" horiz-adv-x="803" 
d="M439 925c0 52 45 96 98 96s98 -44 98 -97c0 -27 -10 -51 -29 -70s-42 -28 -69 -28s-51 9 -70 28s-28 43 -28 71zM167 925c0 52 45 96 98 96c55 0 98 -44 98 -97c0 -27 -10 -51 -29 -70s-41 -28 -68 -28s-51 9 -70 28s-29 43 -29 71z" />
    <glyph glyph-name="uniE00A" unicode="&#xe00a;" horiz-adv-x="803" 
d="M483 1041l105 -95l-192 -132l-76 71z" />
    <glyph glyph-name="uniE00B" unicode="&#xe00b;" horiz-adv-x="803" 
d="M414 814l-192 132l105 95l163 -156z" />
    <glyph glyph-name="uniE00C" unicode="&#xe00c;" horiz-adv-x="803" 
d="M226 814l-55 86l231 136l230 -136l-54 -86l-176 89z" />
    <glyph glyph-name="uniE00D" unicode="&#xe00d;" horiz-adv-x="803" 
d="M275 833h-95c0 49 11 89 34 118s54 43 93 43c20 0 54 -8 103 -24c33 -11 57 -16 70 -16c23 0 38 14 45 41h98c-7 -59 -21 -100 -42 -125s-54 -37 -99 -37c-27 0 -57 7 -92 20c-38 14 -63 21 -76 21c-12 0 -21 -3 -26 -8s-9 -16 -13 -33z" />
    <glyph glyph-name="uniE00E" unicode="&#xe00e;" horiz-adv-x="803" 
d="M343 929c0 -29 19 -44 57 -44c39 0 59 14 59 43s-20 43 -59 43c-35 0 -57 -17 -57 -42zM246 929c0 71 59 116 155 116s156 -44 156 -117c0 -74 -60 -117 -156 -117c-97 0 -155 43 -155 118z" />
    <glyph glyph-name="uniE00F" unicode="&#xe00f;" horiz-adv-x="667" 
d="M397 -51l112 -79l-156 -152l-88 61z" />
    <glyph glyph-name="uniE010" unicode="&#xe010;" horiz-adv-x="554" 
d="M327 925c0 52 45 96 98 96s98 -44 98 -97c0 -27 -10 -51 -29 -70s-42 -28 -69 -28s-51 9 -70 28s-28 43 -28 71zM64 925c0 52 45 96 98 96s98 -44 98 -97c0 -27 -10 -51 -29 -70s-42 -28 -69 -28s-51 9 -70 28s-28 43 -28 71z" />
    <glyph glyph-name="uniE011" unicode="&#xe011;" horiz-adv-x="553" 
d="M366 1041l105 -95l-192 -132l-76 71z" />
    <glyph glyph-name="uniE012" unicode="&#xe012;" horiz-adv-x="553" 
d="M327 814l-192 132l105 95l163 -156z" />
    <glyph glyph-name="uniE013" unicode="&#xe013;" horiz-adv-x="554" 
d="M118 814l-55 86l230 136l231 -136l-54 -86l-177 89z" />
    <glyph glyph-name="uniE014" unicode="&#xe014;" horiz-adv-x="354" 
d="M196 925c0 52 45 96 98 96s98 -44 98 -97c0 -27 -10 -51 -29 -70s-42 -28 -69 -28s-50 9 -69 28s-29 43 -29 71zM-37 925c0 52 45 96 98 96s97 -44 97 -97c0 -27 -10 -51 -29 -70s-41 -28 -68 -28s-51 9 -70 28s-28 43 -28 71z" />
    <glyph glyph-name="uniE015" unicode="&#xe015;" horiz-adv-x="354" 
d="M255 1041l105 -95l-192 -132l-76 71z" />
    <glyph glyph-name="uniE016" unicode="&#xe016;" horiz-adv-x="354" 
d="M186 814l-192 132l105 95l163 -156z" />
    <glyph glyph-name="uniE017" unicode="&#xe017;" horiz-adv-x="354" 
d="M16 814l-54 86l215 136l215 -136l-54 -86l-161 89z" />
    <glyph glyph-name="uniE018" unicode="&#xe018;" horiz-adv-x="911" 
d="M336 833h-94c0 100 48 161 127 161c19 0 54 -8 103 -24c33 -11 56 -16 70 -16c22 0 37 14 44 41h99c-7 -59 -21 -100 -42 -125c-22 -25 -55 -37 -99 -37c-27 0 -58 7 -93 20c-37 14 -63 21 -76 21c-11 0 -20 -3 -25 -8c-4 -5 -9 -16 -14 -33z" />
    <glyph glyph-name="uniE019" unicode="&#xe019;" horiz-adv-x="925" 
d="M500 925c0 52 44 96 99 96c53 0 98 -44 98 -97c0 -27 -10 -51 -29 -70s-42 -28 -69 -28s-51 9 -70 28s-29 43 -29 71zM229 925c0 26 10 49 29 68c20 19 43 28 69 28c55 0 98 -44 98 -97c0 -27 -10 -51 -29 -70s-42 -28 -69 -28s-51 9 -70 28s-28 43 -28 71z" />
    <glyph glyph-name="uniE01A" unicode="&#xe01a;" horiz-adv-x="925" 
d="M537 1041l105 -95l-192 -132l-76 71z" />
    <glyph glyph-name="uniE01B" unicode="&#xe01b;" horiz-adv-x="925" 
d="M483 814l-192 132l105 95l163 -156z" />
    <glyph glyph-name="uniE01C" unicode="&#xe01c;" horiz-adv-x="925" 
d="M287 814l-55 86l231 136l230 -136l-54 -86l-176 89z" />
    <glyph glyph-name="uniE01D" unicode="&#xe01d;" horiz-adv-x="925" 
d="M344 833h-95c0 100 48 161 127 161c20 0 54 -8 103 -24c33 -11 57 -16 70 -16c23 0 38 14 45 41h98c-7 -59 -21 -100 -42 -125s-54 -37 -98 -37c-27 0 -59 7 -94 20c-37 14 -62 21 -75 21c-12 0 -21 -3 -26 -8c-4 -5 -9 -16 -13 -33z" />
    <glyph glyph-name="uniE01E" unicode="&#xe01e;" horiz-adv-x="646" 
d="M507 1036l54 -86l-230 -136l-230 136l54 86l176 -89z" />
    <glyph glyph-name="uniE01F" unicode="&#xe01f;" horiz-adv-x="816" 
d="M446 925c0 52 44 96 97 96c55 0 99 -44 99 -97c0 -27 -10 -51 -29 -70s-42 -28 -69 -28s-51 9 -70 28s-28 43 -28 71zM174 925c0 52 45 96 98 96s98 -44 98 -97c0 -27 -10 -51 -29 -70s-42 -28 -69 -28s-50 9 -69 28s-29 43 -29 71z" />
    <glyph glyph-name="uniE020" unicode="&#xe020;" horiz-adv-x="816" 
d="M490 1041l105 -95l-193 -132l-76 71z" />
    <glyph glyph-name="uniE021" unicode="&#xe021;" horiz-adv-x="816" 
d="M413 814l-192 132l105 95l163 -156z" />
    <glyph glyph-name="uniE022" unicode="&#xe022;" horiz-adv-x="816" 
d="M232 814l-54 86l230 136l230 -136l-54 -86l-176 89z" />
    <glyph glyph-name="uniE023" unicode="&#xe023;" horiz-adv-x="714" 
d="M571 1036l54 -86l-245 -136l-246 136l54 86l192 -89z" />
    <glyph glyph-name="uniE024" unicode="&#xe024;" horiz-adv-x="724" 
d="M400 925c0 52 45 96 98 96s98 -44 98 -97c0 -27 -10 -51 -29 -70s-42 -28 -69 -28s-51 9 -70 28s-28 43 -28 71zM128 925c0 52 45 96 98 96c55 0 98 -44 98 -97c0 -27 -10 -51 -29 -70s-41 -28 -68 -28s-51 9 -70 28s-29 43 -29 71z" />
    <glyph glyph-name="uniE025" unicode="&#xe025;" horiz-adv-x="305" 
d="M171 691c0 52 45 97 98 97c55 0 98 -45 98 -98c0 -55 -44 -98 -97 -98c-27 0 -51 10 -70 29s-29 42 -29 70zM-62 691c0 52 45 97 98 97s97 -45 97 -98c0 -55 -44 -98 -97 -98s-98 43 -98 99z" />
    <glyph glyph-name="uniE026" unicode="&#xe026;" horiz-adv-x="305" 
d="M29 588l-76 88l199 166l200 -166l-80 -88l-120 112z" />
    <glyph glyph-name="apple" horiz-adv-x="578" 
d="M396 290v139h15c41 0 71 -25 71 -70c0 -48 -32 -69 -72 -69h-14zM331 234h92c37 0 68 15 92 39c-37 -96 -126 -164 -235 -164c-94 0 -172 51 -217 125h40v154h1l119 -154h65v250h-65v-152h-1l-119 152h-40c45 74 123 125 217 125c108 0 199 -67 234 -163
c-23 25 -54 38 -91 38h-92v-250z" />
    <glyph glyph-name="Scedilla" unicode="&#x15e;" horiz-adv-x="646" 
d="M281 -51l112 -79l-157 -152l-88 61zM571 711l-78 -153c-43 34 -85 51 -128 51c-24 0 -44 -6 -60 -19c-16 -12 -24 -27 -24 -46c0 -20 12 -37 36 -51c11 -6 45 -17 100 -34c131 -39 185 -101 185 -209c0 -85 -26 -151 -78 -198c-51 -47 -123 -71 -216 -71
c-94 0 -182 28 -263 85l84 158c58 -51 116 -77 173 -77s94 30 94 74c0 40 -25 60 -117 87c-72 21 -120 41 -144 60c-39 33 -59 83 -59 150c0 75 23 137 70 184s109 70 186 70c82 0 162 -20 239 -61z" />
    <glyph glyph-name="scedilla" unicode="&#x15f;" horiz-adv-x="509" 
d="M463 498l-61 -118c-33 17 -66 26 -98 26c-33 0 -56 -16 -56 -37c0 -11 5 -19 14 -25c11 -5 32 -11 68 -18c99 -21 149 -71 149 -152c0 -59 -22 -106 -66 -140c-45 -35 -104 -53 -178 -53c-70 0 -138 20 -205 59l66 128c51 -35 99 -52 144 -52c33 0 57 16 57 39
c0 13 -5 23 -14 29s-30 12 -63 19c-55 11 -93 28 -116 49c-23 22 -35 53 -35 93c0 115 88 186 229 186c57 0 112 -11 165 -33zM251 -57l104 -67l-154 -146l-82 52z" />
    <glyph glyph-name="fraction" unicode="&#x2044;" horiz-adv-x="196" 
d="M-169 0l437 754h98l-437 -754h-98z" />
    <glyph glyph-name="eurocurrency" unicode="&#x20a0;" 
d="M526 150v-170c-115 0 -213 34 -292 101c-80 68 -123 152 -129 253h368v-95h-143c7 -10 15 -20 26 -31c18 -19 44 -33 78 -44c31 -9 61 -14 92 -14zM526 770v-170c-31 0 -62 -5 -93 -15c-34 -11 -60 -25 -78 -44c-8 -9 -18 -21 -27 -36h145v-96h-368c7 109 54 198 140 268
c76 62 170 93 281 93z" />
    <glyph glyph-name="Commaaccent" horiz-adv-x="305" 
d="M243 830v-204l-113 -159l-68 91l80 103l-1 10h-79v159h181z" />
    <glyph glyph-name="CR" horiz-adv-x="500" 
 />
    <glyph glyph-name="periodcentered" horiz-adv-x="340" 
d="M53 378c0 32 11 59 34 82s50 34 82 34c65 0 118 -52 118 -117c0 -33 -12 -60 -35 -83s-50 -34 -82 -34c-33 0 -61 11 -84 34c-22 23 -33 51 -33 84z" />
  </font>
</defs>
</svg>
