<?xml version="1.0" encoding="UTF-8"?>
<svg width="318px" height="200px" viewBox="0 0 318 200" version="1.1" xmlns="http://www.w3.org/2000/svg" xmlns:xlink="http://www.w3.org/1999/xlink">
    <!-- Generator: Sketch 48.1 (47250) - http://www.bohemiancoding.com/sketch -->
    <title>Netduino_3_WiFi</title>
    <desc>Created with Sketch.</desc>
    <defs></defs>
    <g id="Page-1" stroke="none" stroke-width="1" fill="none" fill-rule="evenodd">
        <g id="Netduino_3_WiFi" transform="translate(-1.000000, 0.000000)">
            <g id="Board" transform="translate(0.474249, -0.000029)">
                <path d="M23.5257505,2.93333333e-05 L308.525751,2.93333333e-05 L318.525751,10.0000293 L318.525751,190.000029 L308.525751,200.000029 L23.5257505,200.000029 L23.5257505,76.0000293 L0.525750533,53.0000293 L0.525750533,23.0000293 L23.5257505,2.93333333e-05 Z M273.025751,72.0000293 C276.339459,72.0000293 279.025751,69.3137378 279.025751,66.0000293 C279.025751,62.6863208 276.339459,60.0000293 273.025751,60.0000293 C269.712042,60.0000293 267.025751,62.6863208 267.025751,66.0000293 C267.025751,69.3137378 269.712042,72.0000293 273.025751,72.0000293 Z M273.025751,178.000029 C276.339459,178.000029 279.025751,175.313738 279.025751,172.000029 C279.025751,168.686321 276.339459,166.000029 273.025751,166.000029 C269.712042,166.000029 267.025751,168.686321 267.025751,172.000029 C267.025751,175.313738 269.712042,178.000029 273.025751,178.000029 Z M81.0257505,14.5000293 C84.339459,14.5000293 87.0257505,11.8137378 87.0257505,8.50002933 C87.0257505,5.18632083 84.339459,2.50002933 81.0257505,2.50002933 C77.712042,2.50002933 75.0257505,5.18632083 75.0257505,8.50002933 C75.0257505,11.8137378 77.712042,14.5000293 81.0257505,14.5000293 Z" id="Combined-Shape" fill="#1C1C1C"></path>
                <g id="GoPort3" transform="translate(282.525751, 14.000029)">
                    <rect id="Rectangle-6" fill="#23ABE3" x="11" y="0" width="19" height="48"></rect>
                    <rect id="Rectangle-6-Copy-3" fill="#2E2E2E" opacity="0.502038043" x="13" y="2" width="15" height="44"></rect>
                    <g id="Silk-Copy" transform="translate(0.474249, -0.000029)">
                        <text id="3" transform="translate(4.879215, 23.500029) rotate(-90.000000) translate(-4.879215, -23.500029) " font-family="ArialNarrow, Arial Narrow" font-size="6" font-weight="normal" fill="#FFFFFF">
                            <tspan x="3.51105068" y="26.0000293">3</tspan>
                        </text>
                        <polyline id="Path-5" stroke="#FFFFFF" stroke-width="0.5" points="10.6023819 47.7500293 0.525750533 47.7500293 0.525750533 0.250029333 10.6023819 0.250029333"></polyline>
                    </g>
                </g>
                <g id="GoPort2" transform="translate(282.525751, 76.000029)">
                    <rect id="Rectangle-6-Copy" fill="#23ABE3" x="11" y="0" width="19" height="48"></rect>
                    <rect id="Rectangle-6-Copy-4" fill="#2E2E2E" opacity="0.5" x="13" y="2" width="15" height="44"></rect>
                    <g id="Silk-Copy-2" transform="translate(0.474249, -0.000029)">
                        <text id="2" transform="translate(4.879215, 23.500029) rotate(-90.000000) translate(-4.879215, -23.500029) " font-family="ArialNarrow, Arial Narrow" font-size="6" font-weight="normal" fill="#FFFFFF">
                            <tspan x="3.51105068" y="26.0000293">2</tspan>
                        </text>
                        <polyline id="Path-5" stroke="#FFFFFF" stroke-width="0.5" points="10.6023819 47.7500293 0.525750533 47.7500293 0.525750533 0.250029333 10.6023819 0.250029333"></polyline>
                    </g>
                </g>
                <g id="GoPort1" transform="translate(282.525751, 138.000029)">
                    <rect id="Rectangle-6-Copy-2" fill="#23ABE3" x="11" y="0" width="19" height="48"></rect>
                    <rect id="Rectangle-6-Copy-5" fill="#2E2E2E" opacity="0.5" x="13" y="2" width="15" height="44"></rect>
                    <g id="Silk" transform="translate(0.474249, -0.000029)">
                        <text id="1" transform="translate(4.879215, 23.500029) rotate(-90.000000) translate(-4.879215, -23.500029) " font-family="ArialNarrow, Arial Narrow" font-size="6" font-weight="normal" fill="#FFFFFF">
                            <tspan x="3.51105068" y="26.0000293">1</tspan>
                        </text>
                        <polyline id="Path-5" stroke="#FFFFFF" stroke-width="0.5" points="10.6023819 47.7500293 0.525750533 47.7500293 0.525750533 0.250029333 10.6023819 0.250029333"></polyline>
                    </g>
                </g>
                <g id="JTAG" transform="translate(259.000000, 80.333333)">
                    <path d="M14.56,1.524 C12.5826667,1.524 10.9733333,3.124 10.9733333,5.10266667 C10.9733333,7.08133333 12.584,8.68933333 14.56,8.68933333 C16.5373333,8.68933333 18.1373333,7.07866667 18.1373333,5.10266667 C18.1373333,3.12533333 16.5386667,1.524 14.56,1.524 Z M14.56,3.32933333 C15.54,3.32933333 16.332,4.12133333 16.332,5.10133333 C16.332,6.08133333 15.54,6.88133333 14.56,6.88133333 C13.58,6.88133333 12.7786667,6.08133333 12.7786667,5.10133333 C12.7786667,4.12133333 13.58,3.32933333 14.56,3.32933333 Z" id="path10793" fill="#999999" fill-rule="nonzero"></path>
                    <path d="M1.784,1.70933333 L1.784,8.344 L8.41866667,8.344 L8.41866667,1.70933333 L1.784,1.70933333 Z M5.10133333,3.244 C6.08266667,3.244 6.88266667,4.044 6.88266667,5.024 C6.88266667,6.004 6.08266667,6.796 5.10133333,6.796 C4.12133333,6.796 3.32933333,6.004 3.32933333,5.024 C3.32933333,4.044 4.12,3.244 5.10133333,3.244 Z" id="rect10807" fill="#999999" fill-rule="nonzero"></path>
                    <path d="M14.56,11.2453333 C12.5826667,11.2453333 10.9733333,12.8466667 10.9733333,14.824 C10.9733333,16.8 12.584,18.4093333 14.56,18.4093333 C16.5373333,18.4093333 18.1373333,16.8 18.1373333,14.824 C18.1373333,12.8466667 16.5386667,11.2453333 14.56,11.2453333 Z M14.56,13.0506667 C15.54,13.0506667 16.332,13.8426667 16.332,14.824 C16.332,15.8053333 15.54,16.604 14.56,16.604 C13.58,16.604 12.7786667,15.804 12.7786667,14.824 C12.7786667,13.844 13.58,13.0506667 14.56,13.0506667 Z" id="path10799" fill="#999999" fill-rule="nonzero"></path>
                    <path d="M14.56,20.8093333 C12.5826667,20.8093333 10.9733333,22.4093333 10.9733333,24.3866667 C10.9733333,26.364 12.584,27.9733333 14.56,27.9733333 C16.5373333,27.9733333 18.1373333,26.364 18.1373333,24.3866667 C18.1373333,22.4093333 16.5386667,20.8093333 14.56,20.8093333 Z M14.56,22.616 C15.54,22.616 16.332,23.4066667 16.332,24.3866667 C16.332,25.368 15.54,26.168 14.56,26.168 C13.58,26.168 12.7786667,25.368 12.7786667,24.3866667 C12.7786667,23.4066667 13.58,22.616 14.56,22.616 Z" id="path10801" fill="#999999" fill-rule="nonzero"></path>
                    <path d="M5.224,20.8093333 C3.24666667,20.8093333 1.63866667,22.4093333 1.63866667,24.3866667 C1.63866667,26.364 3.248,27.9733333 5.224,27.9733333 C7.20133333,27.9733333 8.80266667,26.364 8.80266667,24.3866667 C8.80266667,22.4093333 7.20266667,20.8093333 5.224,20.8093333 Z M5.224,22.616 C6.20533333,22.616 6.996,23.4066667 6.996,24.3866667 C6.996,25.368 6.20533333,26.168 5.224,26.168 C4.244,26.168 3.444,25.368 3.444,24.3866667 C3.444,23.4066667 4.244,22.616 5.224,22.616 Z" id="path10803" fill="#999999" fill-rule="nonzero"></path>
                    <path d="M5.224,11.2453333 C3.24666667,11.2453333 1.63866667,12.8466667 1.63866667,14.824 C1.63866667,16.8 3.248,18.4093333 5.224,18.4093333 C7.20133333,18.4093333 8.80266667,16.8 8.80266667,14.824 C8.80266667,12.8466667 7.20266667,11.2453333 5.224,11.2453333 Z M5.224,13.0506667 C6.20533333,13.0506667 6.996,13.8426667 6.996,14.824 C6.996,15.8053333 6.20533333,16.604 5.224,16.604 C4.244,16.604 3.444,15.804 3.444,14.824 C3.444,13.844 4.244,13.0506667 5.224,13.0506667 Z" id="path10805" fill="#999999" fill-rule="nonzero"></path>
                    <rect id="Rectangle-2" stroke="#FFFFFF" stroke-width="0.5" x="0.275750533" y="0.416696" width="19.5" height="29"></rect>
                </g>
                <g id="Components" transform="translate(19.000000, 0.333333)">
                    <rect id="rect8858" fill="#2E2E2E" fill-rule="nonzero" x="147.525751" y="81.666696" width="65" height="65"></rect>
                    <rect id="rect8844-copy-5" fill="#999999" fill-rule="nonzero" x="150.521333" y="76.666696" width="59" height="5"></rect>
                    <rect id="rect8844-copy-7" fill="#999999" fill-rule="nonzero" x="150.521333" y="146.666696" width="59" height="5"></rect>
                    <rect id="rect8844-copy-8" fill="#999999" fill-rule="nonzero" x="142.521333" y="84.666696" width="5" height="59"></rect>
                    <rect id="rect8844-copy-9" fill="#999999" fill-rule="nonzero" x="212.521333" y="84.666696" width="5" height="59"></rect>
                    <rect id="rect4422-copy" fill="#2E2E2E" fill-rule="nonzero" x="29.5257505" y="133.666696" width="5" height="2"></rect>
                    <rect id="rect4422-copy-2" fill="#2E2E2E" fill-rule="nonzero" x="29.5257505" y="130.666696" width="5" height="2"></rect>
                    <rect id="rect4422-copy-3" fill="#F8E71C" fill-rule="nonzero" x="9.52575053" y="91.666696" width="14" height="5"></rect>
                    <rect id="rect4422-copy-4" fill="#2E2E2E" fill-rule="nonzero" x="12.5257505" y="91.666696" width="8" height="5"></rect>
                    <rect id="rect4422-copy-5" fill="#2E2E2E" fill-rule="nonzero" x="51.5257505" y="114.666696" width="26" height="12"></rect>
                    <rect id="rect4422-copy-6" fill="#2E2E2E" fill-rule="nonzero" x="85.5257505" y="114.666696" width="26" height="12"></rect>
                    <rect id="rect4422-copy-10" fill="#2E2E2E" fill-rule="nonzero" x="166.525751" y="155.666696" width="26" height="12"></rect>
                    <rect id="rect4422-copy-8" fill="#2E2E2E" fill-rule="nonzero" x="105.525751" y="130.666696" width="9" height="7"></rect>
                    <rect id="rect4422-copy-18" fill="#2E2E2E" fill-rule="nonzero" x="241.525751" y="113.666696" width="8" height="6"></rect>
                    <rect id="rect4422-copy-24" fill="#2E2E2E" fill-rule="nonzero" x="230.525751" y="112.666696" width="8" height="5"></rect>
                    <rect id="rect4422-copy-25" fill="#2E2E2E" fill-rule="nonzero" x="230.525751" y="123.666696" width="8" height="5"></rect>
                    <rect id="rect4422-copy-26" fill="#2E2E2E" fill-rule="nonzero" x="232.525751" y="132.666696" width="6" height="9"></rect>
                    <rect id="rect4422-copy-19" fill="#2E2E2E" fill-rule="nonzero" x="252.525751" y="113.666696" width="8" height="6"></rect>
                    <rect id="rect4422-copy-21" fill="#2E2E2E" fill-rule="nonzero" x="241.525751" y="125.666696" width="8" height="6"></rect>
                    <rect id="rect4422-copy-20" fill="#2E2E2E" fill-rule="nonzero" x="252.525751" y="125.666696" width="8" height="6"></rect>
                    <rect id="rect4422-copy-23" fill="#2E2E2E" fill-rule="nonzero" x="241.525751" y="137.666696" width="8" height="6"></rect>
                    <rect id="rect4422-copy-22" fill="#2E2E2E" fill-rule="nonzero" x="252.525751" y="137.666696" width="8" height="6"></rect>
                    <rect id="rect4422-copy-11" fill="#2E2E2E" fill-rule="nonzero" x="136.525751" y="146.666696" width="7" height="9"></rect>
                    <rect id="rect4422-copy-12" fill="#2E2E2E" fill-rule="nonzero" x="146.525751" y="152.666696" width="5" height="8"></rect>
                    <rect id="rect4422-copy-9" fill="#2E2E2E" fill-rule="nonzero" x="106.525751" y="142.666696" width="7" height="8"></rect>
                    <rect id="rect4422-copy-13" fill="#2E2E2E" fill-rule="nonzero" x="103.525751" y="30.666696" width="6" height="12"></rect>
                    <rect id="rect4422-copy-16" fill="#2E2E2E" fill-rule="nonzero" x="112.525751" y="29.666696" width="5" height="10"></rect>
                    <rect id="rect4422-copy-17" fill="#2E2E2E" fill-rule="nonzero" x="113.525751" y="40.666696" width="8" height="5"></rect>
                    <rect id="rect4422-copy-14" fill="#2E2E2E" fill-rule="nonzero" x="124.525751" y="48.666696" width="7" height="10"></rect>
                    <rect id="rect4422-copy-15" fill="#2E2E2E" fill-rule="nonzero" x="122.525751" y="32.666696" width="9" height="9"></rect>
                    <rect id="rect4422-copy-7" fill="#2E2E2E" fill-rule="nonzero" transform="translate(123.525751, 143.666696) rotate(-270.000000) translate(-123.525751, -143.666696) " x="110.525751" y="137.666696" width="26" height="12"></rect>
                    <g id="Group-3-Copy" transform="translate(100.000000, 50.000000)" fill-rule="nonzero">
                        <rect id="rect8844-copy-3" fill="#999999" x="2.52133333" y="28.666696" width="4" height="7"></rect>
                        <rect id="rect8844-copy-6" fill="#999999" x="17.5213333" y="28.666696" width="4" height="7"></rect>
                        <rect id="rect8844-copy-5" fill="#999999" x="2.52133333" y="0.666696" width="19" height="5"></rect>
                        <rect id="rect8844-copy" fill="#2E2E2E" x="0.521333333" y="5.666696" width="23" height="23"></rect>
                        <rect id="rect8844-copy-2" fill="#999999" x="11.5213333" y="28.666696" width="2" height="2"></rect>
                    </g>
                    <g id="Group-3" transform="translate(9.000000, 76.000000)" fill-rule="nonzero">
                        <rect id="rect8844-copy-3" fill="#999999" x="0.521333333" y="8.666696" width="2" height="2"></rect>
                        <rect id="rect8844-copy" fill="#2E2E2E" x="2.52133333" y="0.666696" width="6" height="11"></rect>
                        <rect id="rect8844-copy-2" fill="#999999" x="8.52133333" y="5.166696" width="2" height="2"></rect>
                        <rect id="rect8844-copy-4" fill="#999999" x="0.521333333" y="1.666696" width="2" height="2"></rect>
                    </g>
                    <rect id="rect8844" fill="#2E2E2E" fill-rule="nonzero" x="11.5213333" y="136.666696" width="20" height="11"></rect>
                    <g id="USB" transform="translate(0.666667, 98.178644)" fill-rule="nonzero">
                        <rect id="MicroUSB" fill="#999999" x="1.29066667" y="0.54" width="19.5173333" height="30.312"></rect>
                        <g id="g5520" transform="translate(11.021769, 15.341631) rotate(-90.000000) translate(-11.021769, -15.341631) translate(1.171861, 11.007672)" fill="#4D4D4D">
                            <path d="M18.9457067,4.33317145 L16.8646182,3.13227069 L16.8646182,4.02585433 L5.85714919,4.02585433 C6.26375339,3.6980494 6.65144576,3.26544144 7.03519817,2.83913743 C7.66638026,2.13467203 8.31805017,1.40577885 8.87673694,1.40577885 L10.6694202,1.40577885 C10.7813151,1.816323 11.1406398,2.12600411 11.5866436,2.12600411 C12.1201146,2.12600411 12.5519346,1.69339615 12.5519346,1.15992515 C12.5519346,0.626454138 12.1193266,0.194634179 11.5866436,0.194634179 C11.1406398,0.194634179 10.7813151,0.502739296 10.6694202,0.914071447 L8.87673694,0.914071447 C8.09898822,0.914071447 7.40319073,1.68945619 6.66799361,2.51212049 C6.0809391,3.16615437 5.47812474,3.83279614 4.89028224,4.02743031 L3.45455968,4.02743031 C3.30956903,3.22288984 2.60983158,2.61455954 1.76431549,2.61455954 C0.813996383,2.61455954 0.0433395945,3.38364034 0.0433395945,4.33553543 C0.0433395945,5.28743052 0.813996383,6.05729932 1.76431549,6.05729932 C2.60983158,6.05729932 3.30956903,5.44660504 3.45455968,4.64364055 L7.55054535,4.64364055 C8.13838785,4.83827473 8.74041421,5.50491649 9.32589274,6.15895037 C10.0634538,6.98082668 10.7584633,7.75463544 11.5346361,7.75463544 L13.2225163,7.75463544 L13.2225163,8.53159617 L15.2689331,8.53159617 L15.2689331,6.48596731 L13.2225163,6.48596731 L13.2225163,7.26214005 L11.5346361,7.26214005 C10.9783133,7.26214005 10.3242794,6.53403486 9.6930973,5.82956945 C9.31170887,5.40326544 8.92165252,4.9698695 8.51662431,4.64285256 L16.8654062,4.64285256 L16.8654062,5.53643619 L18.9457067,4.33317145 Z" id="path5522"></path>
                        </g>
                    </g>
                    <rect id="SD" fill="#999999" fill-rule="nonzero" x="50.5257505" y="131.666696" width="52" height="60"></rect>
                    <rect id="WiFI" fill="#999999" fill-rule="nonzero" x="30.5257505" y="28.666696" width="66" height="79"></rect>
                    <g id="ACT-LED" transform="translate(11.333333, 7.666692)" fill-rule="nonzero">
                        <rect id="rect4526" fill="#505050" x="0.1924172" y="3.97615735e-06" width="4" height="9"></rect>
                        <rect id="rect4528" fill="#F8E71C" x="0.1924172" y="2.00000398" width="4" height="5"></rect>
                    </g>
                    <g id="Power-LED" transform="translate(35.615026, 117.203230)">
                        <rect id="Rectangle-4" fill="#505050" x="0.910724707" y="5.46346644" width="12" height="5"></rect>
                        <rect id="Rectangle-4-Copy" fill="#FFFFFF" x="3.91072471" y="5.46346644" width="6" height="5"></rect>
                        <text id="tspan3167" fill="#FFFFFF" font-family="Helvetica" font-size="4.4645" font-weight="normal">
                            <tspan x="1.24956533" y="4.30865842">PWR</tspan>
                        </text>
                    </g>
                    <g id="text3453" transform="translate(10.000000, 0.000025)" fill="#FFFFFF" font-family="Helvetica" font-size="3.2007" font-weight="normal">
                        <text id="A">
                            <tspan x="0.2652" y="4.14586667">A</tspan>
                        </text>
                        <text id="C">
                            <tspan x="2.81853333" y="4.14586667">C</tspan>
                        </text>
                        <text id="T">
                            <tspan x="5.39146667" y="4.14586667">T</tspan>
                        </text>
                    </g>
                    <g id="text3471" transform="translate(67.000000, 192.000000)" fill="#FFFFFF" font-family="Helvetica" font-size="4.0009" font-weight="normal">
                        <text id="tspan3473">
                            <tspan x="3.11461607" y="4.07946667">MicroSD</tspan>
                        </text>
                    </g>
                    <g id="text3265" transform="translate(16.666667, 189.000000)" fill="#FFFFFF" font-family="Helvetica" font-size="4.8011" font-weight="normal">
                        <text id="tspan3267">
                            <tspan x="0.216266667" y="5.27346667">7.5-12V</tspan>
                        </text>
                    </g>
                    <g id="Button" transform="translate(22.000000, 2.000000)" fill-rule="nonzero">
                        <path d="M25.8450505,0.533414141 C24.4669091,0.533414141 23.3461818,1.64949495 23.3461818,3.02670707 C23.3461818,4.40577778 24.4678384,5.52650505 25.8450505,5.52650505 C27.2222626,5.52650505 28.3392727,4.40577778 28.3392727,3.02670707 C28.3392727,1.64949495 27.2222626,0.533414141 25.8450505,0.533414141 Z M25.8450505,1.79260606 C26.5290101,1.79260606 27.0800808,2.34367677 27.0800808,3.02763636 C27.0800808,3.71159596 26.5290101,4.26917172 25.8450505,4.26917172 C25.1610909,4.26917172 24.6035152,3.71159596 24.6035152,3.02763636 C24.6035152,2.34367677 25.1620202,1.79260606 25.8450505,1.79260606 Z" id="path10810" fill="#999999"></path>
                        <path d="M25.8450505,12.3196364 C24.4669091,12.3196364 23.3461818,13.4366465 23.3461818,14.8129293 C23.3461818,16.1901414 24.4678384,17.3127273 25.8450505,17.3127273 C27.2222626,17.3127273 28.3392727,16.1901414 28.3392727,14.8129293 C28.3392727,13.4366465 27.2222626,12.3196364 25.8450505,12.3196364 Z M25.8450505,13.5788283 C26.5290101,13.5788283 27.0800808,14.1308283 27.0800808,14.8138586 C27.0800808,15.4968889 26.5290101,16.0544646 25.8450505,16.0544646 C25.1610909,16.0544646 24.6035152,15.4968889 24.6035152,14.8138586 C24.6035152,14.1308283 25.1620202,13.5788283 25.8450505,13.5788283 Z" id="path10812" fill="#999999"></path>
                        <path d="M2.71446465,0.533414141 C1.33632323,0.533414141 0.21559596,1.64949495 0.21559596,3.02670707 C0.21559596,4.40577778 1.33725253,5.52650505 2.71446465,5.52650505 C4.09167677,5.52650505 5.20868687,4.40577778 5.20868687,3.02670707 C5.20868687,1.64949495 4.09260606,0.533414141 2.71446465,0.533414141 Z M2.71446465,1.79260606 C3.39842424,1.79260606 3.94856566,2.34367677 3.94856566,3.02763636 C3.94856566,3.71159596 3.39842424,4.26917172 2.71446465,4.26917172 C2.03050505,4.26917172 1.47292929,3.71159596 1.47292929,3.02763636 C1.47292929,2.34367677 2.03050505,1.79260606 2.71446465,1.79260606 Z" id="path10814" fill="#999999"></path>
                        <path d="M2.71446465,12.3196364 C1.33632323,12.3196364 0.21559596,13.4366465 0.21559596,14.8129293 C0.21559596,16.1901414 1.33725253,17.3127273 2.71446465,17.3127273 C4.09167677,17.3127273 5.20868687,16.1901414 5.20868687,14.8129293 C5.20868687,13.4366465 4.09260606,12.3196364 2.71446465,12.3196364 Z M2.71446465,13.5788283 C3.39842424,13.5788283 3.94856566,14.1308283 3.94856566,14.8138586 C3.94856566,15.4968889 3.39842424,16.0544646 2.71446465,16.0544646 C2.03050505,16.0544646 1.47292929,15.4968889 1.47292929,14.8138586 C1.47292929,14.1308283 2.03050505,13.5788283 2.71446465,13.5788283 Z" id="path10816" fill="#999999"></path>
                        <g id="g4265" transform="translate(1.420980, 0.906074)">
                            <path d="M6.45208081,2.07975758 C6.45208081,1.53054545 6.01252525,1.0779798 5.43729293,0.995272727 L5.43729293,0.978545455 L1.33725253,0.978545455 C0.673737374,0.978545455 0.133818182,1.47107071 0.133818182,2.08068687 C0.133818182,2.69030303 0.672808081,3.18282828 1.33725253,3.18282828 L5.43729293,3.18282828 L5.43729293,3.16517172 C6.01252525,3.08153535 6.45208081,2.6280404 6.45208081,2.07975758 Z" id="path6010-1" fill="#666666"></path>
                            <path d="M6.45208081,13.8929293 C6.45208081,13.3427879 6.01252525,12.8911515 5.43729293,12.8084444 L5.43729293,12.7907879 L1.33725253,12.7907879 C0.673737374,12.7907879 0.133818182,13.2842424 0.133818182,13.8929293 C0.133818182,14.5016162 0.672808081,14.996 1.33725253,14.996 L5.43729293,14.996 L5.43729293,14.9783434 C6.01252525,14.8937778 6.45208081,14.4421414 6.45208081,13.8929293 Z" id="path14215" fill="#666666"></path>
                            <path d="M25.5309495,2.07975758 C25.5309495,1.53054545 25.0913939,1.0779798 24.5161616,0.995272727 L24.5161616,0.978545455 L20.4161212,0.978545455 C19.7516768,0.978545455 19.2117576,1.47107071 19.2117576,2.08068687 C19.2117576,2.69030303 19.7507475,3.18282828 20.4161212,3.18282828 L24.5161616,3.18282828 L24.5161616,3.16517172 C25.0904646,3.08153535 25.5309495,2.6280404 25.5309495,2.07975758 Z" id="path14217" fill="#666666"></path>
                            <path d="M25.5309495,13.8929293 C25.5309495,13.3427879 25.0913939,12.8911515 24.5161616,12.8084444 L24.5161616,12.7907879 L20.4161212,12.7907879 C19.7516768,12.7907879 19.2117576,13.2842424 19.2117576,13.8929293 C19.2117576,14.5016162 19.7507475,14.996 20.4161212,14.996 L24.5161616,14.996 L24.5161616,14.9783434 C25.0904646,14.8937778 25.5309495,14.4421414 25.5309495,13.8929293 Z" id="path14219" fill="#666666"></path>
                            <rect id="rect6112-4" fill="#8C8C8C" x="4.88832323" y="0.158909091" width="15.7756768" height="16.131596"></rect>
                            <path d="M20.3099394,2.42638384 C20.3099394,3.22 19.667798,3.86307071 18.8723232,3.86307071 C18.0805657,3.86307071 17.4365657,3.22278788 17.4365657,2.42638384 C17.4365657,1.63555556 18.0768485,0.990626263 18.8723232,0.990626263 C19.6668687,0.993414141 20.3099394,1.63741414 20.3099394,2.42638384 Z" id="path6114-6" fill="#404040"></path>
                            <path d="M8.24307071,2.42638384 C8.24307071,3.22 7.60092929,3.86307071 6.80731313,3.86307071 C6.01276768,3.86307071 5.36969697,3.22278788 5.36969697,2.42638384 C5.36969697,1.63555556 6.01090909,0.990626263 6.80731313,0.990626263 C7.60278788,0.993414141 8.24307071,1.63741414 8.24307071,2.42638384 Z" id="path6116-8" fill="#404040"></path>
                            <circle id="circle6118-9" fill="#404040" cx="6.80731313" cy="14.4988283" r="1.43482828"></circle>
                            <circle id="circle6120-8" fill="#404040" cx="18.8760404" cy="14.4988283" r="1.43482828"></circle>
                            <circle id="circle6122-3" fill="#404040" cx="12.7705859" cy="8.22424242" r="4.66040404"></circle>
                        </g>
                    </g>
                    <g id="ONBOARD_LED" transform="translate(223.333333, 24.666692)">
                        <rect id="Rectangle-5" fill="#D8D8D8" x="1.1924172" y="8.00000398" width="10" height="4"></rect>
                        <rect id="Rectangle-5-Copy" fill="#23ABE3" x="3.1924172" y="8.00000398" width="6" height="4"></rect>
                        <text id="LED" font-family="Helvetica" font-size="6" font-weight="normal" fill="#FFFFFF">
                            <tspan x="0.1924172" y="6.00000398">LED</tspan>
                        </text>
                    </g>
                </g>
                <g id="Power-Header" transform="translate(123.493585, 161.902308)">
                    <rect id="rect9671" fill="#23ABE3" fill-rule="nonzero" x="1.03216576" y="24.0977213" width="76.25" height="9.5"></rect>
                    <g id="Power-Silk" transform="translate(0.506415, 0.097692)">
                        <g id="Group-2" transform="translate(38.525751, 13.500029) rotate(-180.000000) translate(-38.525751, -13.500029) translate(0.525751, 2.500029)" stroke="#FFFFFF" stroke-width="0.5">
                            <polyline id="Path-2-Copy-2" points="0.0257505333 0.5 0.0257505333 15.0000293 47.5 15.0000293 47.5 22 75.75 22 75.75 0.5"></polyline>
                            <path d="M8.52575053,15.0000293 L8.52575053,0.500029333" id="Path-3-Copy-12"></path>
                            <path d="M18.1090839,15.0000293 L18.1090839,0.500029333" id="Path-3-Copy-11"></path>
                            <path d="M27.6924172,15.0000293 L27.6924172,0.500029333" id="Path-3-Copy-10"></path>
                            <path d="M37.2757505,15.0000293 L37.2757505,0.500029333" id="Path-3-Copy-9"></path>
                            <path d="M47.5,22.0000293 L47.5,0.500029333" id="Path-3-Copy-8"></path>
                            <path d="M57.4424172,22.0000293 L57.4424172,0.500029333" id="Path-3-Copy-13"></path>
                            <path d="M67.0257505,22.0000293 L67.0257505,0.500029333" id="Path-3-Copy-14"></path>
                        </g>
                        <g id="Group-4" transform="translate(10.000000, 0.000000)" fill="#FFFFFF" font-size="6" font-weight="normal">
                            <text id="VIN" transform="translate(62.025751, 17.500029) rotate(-90.000000) translate(-62.025751, -17.500029) " font-family="ArialNarrow, Arial Narrow">
                                <tspan x="57.5257505" y="20.0000293">VIN</tspan>
                            </text>
                            <text id="GND" transform="translate(52.525751, 17.000029) rotate(-90.000000) translate(-52.525751, -17.000029) " font-family="ArialNarrow, Arial Narrow">
                                <tspan x="47.0257505" y="19.5000293">GND</tspan>
                            </text>
                            <text id="GND-Copy" transform="translate(42.525751, 17.000029) rotate(-90.000000) translate(-42.525751, -17.000029) " font-family="ArialNarrow, Arial Narrow">
                                <tspan x="37.0257505" y="19.5000293">GND</tspan>
                            </text>
                            <text id="5V" transform="translate(33.525751, 18.500029) rotate(-90.000000) translate(-33.525751, -18.500029) " font-family="ArialNarrow, Arial Narrow">
                                <tspan x="30.0257505" y="21.0000293">5V</tspan>
                            </text>
                            <text id="3V3" transform="translate(23.525751, 17.500029) rotate(-90.000000) translate(-23.525751, -17.500029) " font-family="ArialNarrow, Arial Narrow">
                                <tspan x="19.0257505" y="20.0000293">3V3</tspan>
                            </text>
                            <text id="/RESET" transform="translate(14.025751, 13.000029) rotate(-90.000000) translate(-14.025751, -13.000029) " font-family="ArialNarrow, Arial Narrow">
                                <tspan x="5.02575053" y="15.5000293">/RESET</tspan>
                            </text>
                            <text id="IOREF" transform="translate(4.025751, 14.000029) rotate(-90.000000) translate(-4.025751, -14.000029) " font-family="ArialNarrow, Arial Narrow">
                                <tspan x="-3.97424947" y="16.5000293">IOREF</tspan>
                            </text>
                            <text id="Power" font-family="HelveticaNeue, Helvetica Neue">
                                <tspan x="26.5257505" y="6.00002933">Power</tspan>
                            </text>
                        </g>
                    </g>
                    <g id="Analog-Silk" transform="translate(86.506415, 5.097692)">
                        <text id="0" transform="translate(5.293072, 13.500029) rotate(-90.000000) translate(-5.293072, -13.500029) " font-family="ArialNarrow, Arial Narrow" font-size="6" font-weight="normal" fill="#FFFFFF">
                            <tspan x="3.92490752" y="16.0000293">0</tspan>
                        </text>
                        <text id="1" transform="translate(14.939607, 13.500029) rotate(-90.000000) translate(-14.939607, -13.500029) " font-family="ArialNarrow, Arial Narrow" font-size="6" font-weight="normal" fill="#FFFFFF">
                            <tspan x="13.5714433" y="16.0000293">1</tspan>
                        </text>
                        <text id="2" transform="translate(24.586143, 13.500029) rotate(-90.000000) translate(-24.586143, -13.500029) " font-family="ArialNarrow, Arial Narrow" font-size="6" font-weight="normal" fill="#FFFFFF">
                            <tspan x="23.2179791" y="16.0000293">2</tspan>
                        </text>
                        <polyline id="Path-2-Copy-2" stroke="#FFFFFF" stroke-width="0.5" points="0.775750533 19.0000293 0.775750533 9.50002933 58.2757505 9.50002933 58.2757505 19.0000293"></polyline>
                        <path d="M10.5257505,19.0000293 L10.5257505,9.50002933" id="Path-3-Copy-10" stroke="#FFFFFF" stroke-width="0.5"></path>
                        <path d="M20.0257505,19.0000293 L20.0257505,9.50002933" id="Path-3-Copy-9" stroke="#FFFFFF" stroke-width="0.5"></path>
                        <path d="M29.5257505,19.0000293 L29.5257505,9.50002933" id="Path-3-Copy-8" stroke="#FFFFFF" stroke-width="0.5"></path>
                        <path d="M39.0257505,19.0000293 L39.0257505,9.50002933" id="Path-3-Copy-13" stroke="#FFFFFF" stroke-width="0.5"></path>
                        <path d="M48.5257505,19.0000293 L48.5257505,9.50002933" id="Path-3-Copy-14" stroke="#FFFFFF" stroke-width="0.5"></path>
                        <text id="3" transform="translate(34.232679, 13.500029) rotate(-90.000000) translate(-34.232679, -13.500029) " font-family="ArialNarrow, Arial Narrow" font-size="6" font-weight="normal" fill="#FFFFFF">
                            <tspan x="32.8645149" y="16.0000293">3</tspan>
                        </text>
                        <text id="4" transform="translate(43.879215, 13.500029) rotate(-90.000000) translate(-43.879215, -13.500029) " font-family="ArialNarrow, Arial Narrow" font-size="6" font-weight="normal" fill="#FFFFFF">
                            <tspan x="42.5110507" y="16.0000293">4</tspan>
                        </text>
                        <text id="5" transform="translate(53.525751, 13.500029) rotate(-90.000000) translate(-53.525751, -13.500029) " font-family="ArialNarrow, Arial Narrow" font-size="6" font-weight="normal" fill="#FFFFFF">
                            <tspan x="52.1575865" y="16.0000293">5</tspan>
                        </text>
                        <text id="Analog-In" font-family="HelveticaNeue, Helvetica Neue" font-size="6" font-weight="normal" fill="#FFFFFF">
                            <tspan x="16.5257505" y="6.00002933">Analog In</tspan>
                        </text>
                    </g>
                </g>
                <g id="Analog-Header" transform="translate(210.351193, 185.902308)" fill="#23ABE3" fill-rule="nonzero">
                    <rect id="rect9960" x="0.174557653" y="0.0977213467" width="58" height="9.5"></rect>
                </g>
                <g id="Digital-Headers" transform="translate(89.000000, 3.000000)">
                    <g id="Digital-Header-1" transform="translate(102.602383, 0.994889)" fill="#23ABE3" fill-rule="nonzero">
                        <rect id="rect10038" x="0.1733674" y="0.00514037333" width="76.25" height="9.5"></rect>
                    </g>
                    <g id="Digital-Header-2" transform="translate(0.714982, 0.994889)" fill="#23ABE3" fill-rule="nonzero">
                        <rect id="rect10336" x="0.310768653" y="0.00514037333" width="95.75" height="9.5"></rect>
                    </g>
                    <text id="Digital-I/O" font-family="HelveticaNeue, Helvetica Neue" font-size="6" font-weight="normal" fill="#FFFFFF">
                        <tspan x="87.5257505" y="28.0000293">Digital I/O</tspan>
                    </text>
                    <g id="Silk" transform="translate(0.525751, 10.000029)">
                        <polyline id="Path-2" stroke="#FFFFFF" stroke-width="0.5" points="0.75 0.5 0.75 10 29.75 10 29.75 0.5"></polyline>
                        <path d="M10.25,10 L10.25,0.5" id="Path-3" stroke="#FFFFFF" stroke-width="0.5"></path>
                        <path d="M20.25,10 L20.25,0.5" id="Path-3-Copy" stroke="#FFFFFF" stroke-width="0.5"></path>
                        <path d="M48.5,10 L48.5,0.5" id="Path-3-Copy-2" stroke="#FFFFFF" stroke-width="0.5"></path>
                        <polyline id="Path-4" stroke="#FFFFFF" stroke-width="0.5" points="29.7328422 9.91386917 29.7328422 14.9710711 38.75 14.9710711 38.75 9.97472318"></polyline>
                        <polyline id="Path-2-Copy" stroke="#FFFFFF" stroke-width="0.5" points="38.75 0.5 38.75 10 96 10 96 0.5"></polyline>
                        <path d="M48.5,10 L48.5,0.5" id="Path-3-Copy-3" stroke="#FFFFFF" stroke-width="0.5"></path>
                        <path d="M58.125,10 L58.125,0.5" id="Path-3-Copy-4" stroke="#FFFFFF" stroke-width="0.5"></path>
                        <path d="M67.75,10 L67.75,0.5" id="Path-3-Copy-5" stroke="#FFFFFF" stroke-width="0.5"></path>
                        <path d="M77.375,10 L77.375,0.5" id="Path-3-Copy-6" stroke="#FFFFFF" stroke-width="0.5"></path>
                        <path d="M87,10 L87,0.5" id="Path-3-Copy-7" stroke="#FFFFFF" stroke-width="0.5"></path>
                        <polyline id="Path-2-Copy-2" stroke="#FFFFFF" stroke-width="0.5" points="102.5 0.5 102.5 10 178.25 10 178.25 0.5"></polyline>
                        <path d="M112,10 L112,0.5" id="Path-3-Copy-12" stroke="#FFFFFF" stroke-width="0.5"></path>
                        <path d="M121.583333,10 L121.583333,0.5" id="Path-3-Copy-11" stroke="#FFFFFF" stroke-width="0.5"></path>
                        <path d="M131.166667,10 L131.166667,0.5" id="Path-3-Copy-10" stroke="#FFFFFF" stroke-width="0.5"></path>
                        <path d="M140.75,10 L140.75,0.5" id="Path-3-Copy-9" stroke="#FFFFFF" stroke-width="0.5"></path>
                        <path d="M150.333333,10 L150.333333,0.5" id="Path-3-Copy-8" stroke="#FFFFFF" stroke-width="0.5"></path>
                        <path d="M159.916667,10 L159.916667,0.5" id="Path-3-Copy-13" stroke="#FFFFFF" stroke-width="0.5"></path>
                        <path d="M169.5,10 L169.5,0.5" id="Path-3-Copy-14" stroke="#FFFFFF" stroke-width="0.5"></path>
                        <text id="SC" transform="translate(4.974249, 5.500000) rotate(-90.000000) translate(-4.974249, -5.500000) " font-family="ArialNarrow, Arial Narrow" font-size="6" font-weight="normal" fill="#FFFFFF">
                            <tspan x="1.64221822" y="8">SC</tspan>
                        </text>
                        <text id="SD" transform="translate(14.974249, 5.500000) rotate(-90.000000) translate(-14.974249, -5.500000) " font-family="ArialNarrow, Arial Narrow" font-size="6" font-weight="normal" fill="#FFFFFF">
                            <tspan x="11.6422182" y="8">SD</tspan>
                        </text>
                        <text id="GND" transform="translate(33.500000, 7.500000) rotate(-90.000000) translate(-33.500000, -7.500000) " font-family="ArialNarrow, Arial Narrow" font-size="6" font-weight="normal" fill="#FFFFFF">
                            <tspan x="28.0693359" y="10">GND</tspan>
                        </text>
                        <text id="13" transform="translate(43.162375, 5.000000) rotate(-90.000000) translate(-43.162375, -5.000000) " font-family="ArialNarrow, Arial Narrow" font-size="6" font-weight="normal" fill="#FFFFFF">
                            <tspan x="40.4260468" y="7.5">13</tspan>
                        </text>
                        <text id="12" transform="translate(52.824750, 5.000000) rotate(-90.000000) translate(-52.824750, -5.000000) " font-family="ArialNarrow, Arial Narrow" font-size="6" font-weight="normal" fill="#FFFFFF">
                            <tspan x="50.0884217" y="7.5">12</tspan>
                        </text>
                        <text id="11" transform="translate(62.487125, 5.000000) rotate(-90.000000) translate(-62.487125, -5.000000) " font-family="ArialNarrow, Arial Narrow" font-size="6" font-weight="normal" fill="#FFFFFF">
                            <tspan x="59.7507966" y="7.5">11</tspan>
                        </text>
                        <text id="10" transform="translate(72.149500, 5.000000) rotate(-90.000000) translate(-72.149500, -5.000000) " font-family="ArialNarrow, Arial Narrow" font-size="6" font-weight="normal" fill="#FFFFFF">
                            <tspan x="69.4131715" y="7.5">10</tspan>
                        </text>
                        <text id="9" transform="translate(81.811875, 3.500000) rotate(-90.000000) translate(-81.811875, -3.500000) " font-family="ArialNarrow, Arial Narrow" font-size="6" font-weight="normal" fill="#FFFFFF">
                            <tspan x="80.4437105" y="6">9</tspan>
                        </text>
                        <text id="8" transform="translate(91.474249, 3.500000) rotate(-90.000000) translate(-91.474249, -3.500000) " font-family="ArialNarrow, Arial Narrow" font-size="6" font-weight="normal" fill="#FFFFFF">
                            <tspan x="90.1060854" y="6">8</tspan>
                        </text>
                        <text id="7" transform="translate(106.474249, 3.500000) rotate(-90.000000) translate(-106.474249, -3.500000) " font-family="ArialNarrow, Arial Narrow" font-size="6" font-weight="normal" fill="#FFFFFF">
                            <tspan x="105.106085" y="6">7</tspan>
                        </text>
                        <text id="6" transform="translate(116.120785, 3.500000) rotate(-90.000000) translate(-116.120785, -3.500000) " font-family="ArialNarrow, Arial Narrow" font-size="6" font-weight="normal" fill="#FFFFFF">
                            <tspan x="114.752621" y="6">6</tspan>
                        </text>
                        <text id="5" transform="translate(125.767321, 3.500000) rotate(-90.000000) translate(-125.767321, -3.500000) " font-family="ArialNarrow, Arial Narrow" font-size="6" font-weight="normal" fill="#FFFFFF">
                            <tspan x="124.399157" y="6">5</tspan>
                        </text>
                        <text id="4" transform="translate(135.413857, 3.500000) rotate(-90.000000) translate(-135.413857, -3.500000) " font-family="ArialNarrow, Arial Narrow" font-size="6" font-weight="normal" fill="#FFFFFF">
                            <tspan x="134.045693" y="6">4</tspan>
                        </text>
                        <text id="3" transform="translate(145.060393, 3.500000) rotate(-90.000000) translate(-145.060393, -3.500000) " font-family="ArialNarrow, Arial Narrow" font-size="6" font-weight="normal" fill="#FFFFFF">
                            <tspan x="143.692229" y="6">3</tspan>
                        </text>
                        <text id="2" transform="translate(154.706928, 3.500000) rotate(-90.000000) translate(-154.706928, -3.500000) " font-family="ArialNarrow, Arial Narrow" font-size="6" font-weight="normal" fill="#FFFFFF">
                            <tspan x="153.338764" y="6">2</tspan>
                        </text>
                        <text id="1" transform="translate(164.353464, 3.500000) rotate(-90.000000) translate(-164.353464, -3.500000) " font-family="ArialNarrow, Arial Narrow" font-size="6" font-weight="normal" fill="#FFFFFF">
                            <tspan x="162.9853" y="6">1</tspan>
                        </text>
                        <text id="0" transform="translate(174.000000, 3.500000) rotate(-90.000000) translate(-174.000000, -3.500000) " font-family="ArialNarrow, Arial Narrow" font-size="6" font-weight="normal" fill="#FFFFFF">
                            <tspan x="172.631836" y="6">0</tspan>
                        </text>
                    </g>
                </g>
                <g id="PowerBarrel" transform="translate(19.333333, 148.000025)" fill-rule="nonzero">
                    <path d="M42.6813333,0.530641309 C40.2413333,0.530641309 38.2573333,2.50664131 38.2573333,4.94797464 C38.2573333,7.38530798 40.2413333,9.37197464 42.6813333,9.37197464 C45.1213333,9.37197464 47.096,7.38530798 47.096,4.94797464 C47.096,2.50797464 45.1213333,0.530641309 42.6813333,0.530641309 Z M42.6813333,2.75997464 C43.8906667,2.75997464 44.868,3.73597464 44.868,4.94664131 C44.868,6.15730798 43.892,7.14264131 42.6813333,7.14264131 C41.4706667,7.14264131 40.484,6.15597464 40.484,4.94664131 C40.484,3.73730798 41.472,2.75997464 42.6813333,2.75997464 Z" id="path5358-copy" fill="#999999"></path>
                    <path d="M42.6813333,31.5306413 C40.2413333,31.5306413 38.2573333,33.5066413 38.2573333,35.9479746 C38.2573333,38.385308 40.2413333,40.3719746 42.6813333,40.3719746 C45.1213333,40.3719746 47.096,38.385308 47.096,35.9479746 C47.096,33.5079746 45.1213333,31.5306413 42.6813333,31.5306413 Z M42.6813333,33.7599746 C43.8906667,33.7599746 44.868,34.7359746 44.868,35.9466413 C44.868,37.157308 43.892,38.1426413 42.6813333,38.1426413 C41.4706667,38.1426413 40.484,37.1559746 40.484,35.9466413 C40.484,34.737308 41.472,33.7599746 42.6813333,33.7599746 Z" id="path5358" fill="#999999"></path>
                    <rect id="rect3429" fill="#666666" x="39.5453333" y="34.844" width="6.048" height="3.03333333"></rect>
                    <rect id="rect3429-copy" fill="#666666" x="39.5453333" y="2.844" width="6.048" height="3.03333333"></rect>
                    <g id="g9337" transform="translate(0.938568, 4.888588)" fill="#4A4A4A">
                        <rect id="rect6264-2" x="0.253849267" y="0.111416429" width="45" height="30"></rect>
                    </g>
                </g>
                <g id="Netduino-3-Wi-Fi" transform="translate(193.525751, 39.000029)" fill="#FFFFFF">
                    <text id="netduino-3" font-family="BauhausITCbyBT-Medium, Bauhaus Md BT" font-size="16.5" font-weight="400" letter-spacing="0.637128949">
                        <tspan x="0" y="16">netduino 3</tspan>
                    </text>
                    <text id="wi-fi" font-family="BauhausITCbyBT-Medium, Bauhaus Md BT" font-size="16.5" font-weight="400" letter-spacing="0.637128949">
                        <tspan x="24" y="30">wi-fi</tspan>
                    </text>
                    <text id="TM" font-family="Helvetica" font-size="4" font-weight="normal" letter-spacing="0.154455498">
                        <tspan x="64" y="8">TM</tspan>
                    </text>
                </g>
            </g>
            <g id="Pins" transform="translate(93.000000, 6.000000)" fill="#000000" fill-rule="nonzero">
                <rect id="connector0pin" x="19.7386667" y="1.01466667" width="3.7" height="3.69733333"></rect>
                <rect id="connector1pin" x="29.1786667" y="1.01466667" width="3.696" height="3.69733333"></rect>
                <rect id="connector50pin" x="0.534666667" y="1.01466667" width="3.7" height="3.69733333"></rect>
                <rect id="connector51pin" x="9.97466667" y="1.01466667" width="3.696" height="3.69733333"></rect>
                <rect id="connector2pin" x="38.6186667" y="1.01466667" width="3.69733333" height="3.69733333"></rect>
                <rect id="connector3pin" x="48.324" y="1.01466667" width="3.69866667" height="3.69733333"></rect>
                <rect id="connector4pin" x="58.0266667" y="1.01466667" width="3.69733333" height="3.69733333"></rect>
                <rect id="connector5pin" x="67.336" y="1.01466667" width="3.69733333" height="3.69733333"></rect>
                <rect id="connector6pin" x="77.1786667" y="1.01466667" width="3.69733333" height="3.69733333"></rect>
                <rect id="connector7pin" x="86.74" y="1.01466667" width="3.69866667" height="3.69733333"></rect>
                <rect id="connector8pin" x="102.050667" y="0.882666667" width="3.69733333" height="3.69733333"></rect>
                <rect id="connector9pin" x="111.612" y="0.882666667" width="3.7" height="3.69733333"></rect>
                <rect id="connector10pin" x="120.921333" y="0.882666667" width="3.696" height="3.69733333"></rect>
                <rect id="connector11pin" x="130.762667" y="0.882666667" width="3.69733333" height="3.69733333"></rect>
                <rect id="connector12pin" x="140.34" y="0.882666667" width="3.69866667" height="3.69733333"></rect>
                <rect id="connector13pin" x="149.768" y="0.882666667" width="3.696" height="3.69733333"></rect>
                <rect id="connector14pin" x="159.477333" y="0.882666667" width="3.69466667" height="3.69733333"></rect>
                <rect id="connector15pin" x="169.188" y="0.882666667" width="3.7" height="3.69733333"></rect>
                <rect id="connector16pin" x="53.9106667" y="183.162667" width="3.7" height="3.696"></rect>
                <rect id="connector52pin" x="44.308" y="183.162667" width="3.7" height="3.696"></rect>
                <rect id="connector53pin" x="34.7066667" y="183.162667" width="3.7" height="3.696"></rect>
                <rect id="connector17pin" x="63.6413333" y="183.162667" width="3.7" height="3.696"></rect>
                <rect id="connector18pin" x="73.3773333" y="183.162667" width="3.69866667" height="3.696"></rect>
                <rect id="connector19pin" x="82.6866667" y="183.162667" width="3.696" height="3.696"></rect>
                <rect id="connector20pin" x="92.516" y="183.162667" width="3.69733333" height="3.696"></rect>
                <rect id="connector21pin" x="102.090667" y="183.162667" width="3.69733333" height="3.696"></rect>
                <rect id="connector22pin" x="120.989333" y="183.297333" width="3.69466667" height="3.69466667"></rect>
                <rect id="connector23pin" x="130.684" y="183.297333" width="3.69866667" height="3.69466667"></rect>
                <rect id="connector24pin" x="140.393333" y="183.297333" width="3.69733333" height="3.69466667"></rect>
                <rect id="connector25pin" x="149.701333" y="183.297333" width="3.696" height="3.69466667"></rect>
                <rect id="connector26pin" x="159.530667" y="183.297333" width="3.69733333" height="3.69466667"></rect>
                <rect id="connector27pin" x="169.106667" y="183.297333" width="3.69466667" height="3.69466667"></rect>
            </g>
        </g>
    </g>
</svg>