<?xml version="1.0" encoding="UTF-8"?>
<svg width="900px" height="300px" viewBox="0 0 900 300" version="1.1" xmlns="http://www.w3.org/2000/svg" xmlns:xlink="http://www.w3.org/1999/xlink">
    <!-- Generator: Sketch 60 (88103) - https://sketch.com -->
    <title>Sensor_Noise</title>
    <desc>Created with Sketch.</desc>
    <g id="Sensor_Noise" stroke="none" stroke-width="1" fill="none" fill-rule="evenodd">
        <g id="Illustration_Frame">
            <rect id="Rectangle" stroke="#3D3530" stroke-width="2" fill="#EEEEEE" x="1" y="1" width="898" height="298"></rect>
            <rect id="Rectangle-Copy" stroke="#3D3530" stroke-width="2" fill="#F8FAE4" x="1" y="256" width="898" height="43"></rect>
            <path d="M415.514665,285.192 C417.098665,285.192 418.330665,284.792 419.210665,283.992 C420.090665,283.192 420.530665,282.208 420.530665,281.04 C420.530665,280.128 420.230665,279.336 419.630665,278.664 C419.030665,277.992 418.298665,277.464 417.434665,277.08 C416.570665,276.696 415.710665,276.328 414.854665,275.976 C413.998665,275.624 413.270665,275.188 412.670665,274.668 C412.070665,274.148 411.770665,273.544 411.770665,272.856 C411.770665,272.04 412.078665,271.396 412.694665,270.924 C413.310665,270.452 414.154665,270.216 415.226665,270.216 C416.090665,270.216 416.914665,270.44 417.698665,270.888 C418.482665,271.336 419.082665,271.784 419.498665,272.232 L419.498665,272.232 L420.602665,271.152 C420.090665,270.608 419.334665,270.064 418.334665,269.52 C417.334665,268.976 416.298665,268.704 415.226665,268.704 C413.642665,268.704 412.410665,269.104 411.530665,269.904 C410.650665,270.704 410.210665,271.688 410.210665,272.856 C410.210665,273.768 410.510665,274.56 411.110665,275.232 C411.710665,275.904 412.442665,276.436 413.306665,276.828 C414.170665,277.22 415.030665,277.592 415.886665,277.944 C416.742665,278.296 417.470665,278.728 418.070665,279.24 C418.670665,279.752 418.970665,280.352 418.970665,281.04 C418.970665,281.856 418.662665,282.5 418.046665,282.972 C417.430665,283.444 416.586665,283.68 415.514665,283.68 C414.634665,283.68 413.802665,283.452 413.018665,282.996 C412.234665,282.54 411.642665,282.096 411.242665,281.664 L411.242665,281.664 L410.138665,282.744 C410.650665,283.288 411.406665,283.832 412.406665,284.376 C413.406665,284.92 414.442665,285.192 415.514665,285.192 Z M429.117332,285.072 C430.589332,285.088 431.857332,284.672 432.921332,283.824 C433.985332,282.976 434.701332,282.048 435.069332,281.04 L435.069332,281.04 L433.725332,280.56 C433.421332,281.376 432.845332,282.088 431.997332,282.696 C431.149332,283.304 430.189332,283.608 429.117332,283.608 C428.125332,283.624 427.221332,283.324 426.405332,282.708 C425.589332,282.092 425.045332,281.304 424.773332,280.344 L424.773332,280.344 L435.261332,278.448 C435.261332,278.32 435.253332,278.216 435.237332,278.136 C435.061332,276.6 434.389332,275.312 433.221332,274.272 C432.053332,273.232 430.685332,272.704 429.117332,272.688 C427.389332,272.704 425.925332,273.312 424.725332,274.512 C423.525332,275.712 422.925332,277.176 422.925332,278.904 C422.925332,279.528 423.005332,280.104 423.165332,280.632 C423.565332,281.928 424.321332,282.992 425.433332,283.824 C426.545332,284.656 427.773332,285.072 429.117332,285.072 Z M424.533332,279.048 C424.533332,278.968 424.529332,278.868 424.521332,278.748 C424.513332,278.628 424.509332,278.544 424.509332,278.496 C424.573332,277.312 425.033332,276.296 425.889332,275.448 C426.745332,274.6 427.773332,274.168 428.973332,274.152 C429.997332,274.136 430.925332,274.436 431.757332,275.052 C432.589332,275.668 433.157332,276.464 433.461332,277.44 L433.461332,277.44 L424.533332,279.048 Z M439.767999,285 L439.767999,277.968 C439.767999,276.944 440.115999,276.072 440.811999,275.352 C441.507999,274.632 442.351999,274.272 443.343999,274.272 C444.335999,274.272 445.179999,274.632 445.875999,275.352 C446.571999,276.072 446.919999,276.944 446.919999,277.968 L446.919999,277.968 L446.919999,285 L448.527999,285 L448.527999,277.92 C448.527999,276.48 448.055999,275.268 447.111999,274.284 C446.167999,273.3 444.999999,272.808 443.607999,272.808 C442.023999,272.808 440.743999,273.464 439.767999,274.776 L439.767999,274.776 L439.767999,273 L438.183999,273 L438.183999,285 L439.767999,285 Z M456.442665,285.192 C457.914666,285.192 459.018665,284.88 459.754665,284.256 C460.490665,283.632 460.858665,282.816 460.858665,281.808 C460.858665,281.088 460.594665,280.476 460.066665,279.972 C459.538665,279.468 458.894665,279.084 458.134665,278.82 C457.374665,278.556 456.618666,278.312 455.866666,278.088 C455.114666,277.864 454.474665,277.596 453.946665,277.284 C453.418665,276.972 453.154665,276.6 453.154665,276.168 C453.154665,275.56 453.422665,275.088 453.958665,274.752 C454.494665,274.416 455.194665,274.248 456.058665,274.248 C456.666666,274.248 457.274665,274.384 457.882665,274.656 C458.490665,274.928 458.894666,275.144 459.094666,275.304 C459.294666,275.464 459.450665,275.6 459.562665,275.712 L459.562665,275.712 L460.690666,274.728 L460.186666,274.248 C459.850665,273.928 459.298665,273.608 458.530665,273.288 C457.762666,272.968 456.946665,272.808 456.082665,272.808 C454.626666,272.808 453.526665,273.124 452.782666,273.756 C452.038666,274.388 451.666666,275.2 451.666666,276.192 C451.666666,276.912 451.930666,277.52 452.458665,278.016 C452.986665,278.512 453.630665,278.896 454.390666,279.168 C455.150666,279.44 455.906665,279.688 456.658665,279.912 C457.410665,280.136 458.050665,280.404 458.578665,280.716 C459.106665,281.028 459.370665,281.4 459.370665,281.832 C459.370665,282.44 459.106665,282.912 458.578665,283.248 C458.050665,283.584 457.346665,283.752 456.466665,283.752 C455.874665,283.752 455.274666,283.616 454.666666,283.344 C454.058666,283.072 453.654665,282.856 453.454665,282.696 C453.254665,282.536 453.098665,282.4 452.986666,282.288 L452.986666,282.288 L451.858665,283.248 L452.050665,283.464 C452.178665,283.592 452.378666,283.752 452.650666,283.944 C452.922665,284.136 453.230665,284.324 453.574665,284.508 C453.918665,284.692 454.346665,284.852 454.858665,284.988 C455.370665,285.124 455.898665,285.192 456.442665,285.192 Z M469.421332,285.192 C471.133332,285.192 472.589332,284.584 473.789332,283.368 C475.005332,282.152 475.613332,280.696 475.613332,279 C475.613332,277.288 475.009332,275.828 473.801332,274.62 C472.593332,273.412 471.133332,272.808 469.421332,272.808 C467.709332,272.808 466.249332,273.412 465.041332,274.62 C463.833332,275.828 463.229332,277.288 463.229332,279 C463.229332,280.712 463.833332,282.172 465.041332,283.38 C466.249332,284.588 467.709332,285.192 469.421332,285.192 Z M469.445332,283.68 C468.165332,283.68 467.077332,283.228 466.181332,282.324 C465.285332,281.42 464.837332,280.312 464.837332,279 C464.837332,277.688 465.285332,276.576 466.181332,275.664 C467.077332,274.752 468.165332,274.296 469.445332,274.296 C470.741332,274.296 471.833332,274.752 472.721332,275.664 C473.609332,276.576 474.053332,277.688 474.053332,279 C474.053332,280.312 473.609332,281.42 472.721332,282.324 C471.833332,283.228 470.741332,283.68 469.445332,283.68 Z M480.239999,285 L480.239999,277.968 C480.239999,276.928 480.583999,276.052 481.271999,275.34 C481.959999,274.628 482.807999,274.272 483.815999,274.272 C484.503999,274.272 485.183999,274.52 485.855999,275.016 L485.855999,275.016 L486.407999,273.432 C485.703999,273.016 484.927999,272.808 484.079999,272.808 C482.495999,272.808 481.215999,273.464 480.239999,274.776 L480.239999,274.776 L480.239999,273 L478.655999,273 L478.655999,285 L480.239999,285 Z M503.509332,285.192 C505.877332,285.192 507.757332,284.408 509.149332,282.84 C510.541332,281.272 511.237332,279.312 511.237332,276.96 C511.237332,274.608 510.541332,272.644 509.149332,271.068 C507.757332,269.492 505.877332,268.704 503.509332,268.704 C501.141332,268.704 499.257332,269.492 497.857332,271.068 C496.457332,272.644 495.757332,274.608 495.757332,276.96 C495.757332,279.312 496.457332,281.272 497.857332,282.84 C499.257332,284.408 501.141332,285.192 503.509332,285.192 Z M503.509332,283.704 C501.685332,283.704 500.221332,283.064 499.117332,281.784 C498.013332,280.504 497.461332,278.896 497.461332,276.96 C497.461332,275.024 498.013332,273.416 499.117332,272.136 C500.221332,270.856 501.685332,270.216 503.509332,270.216 C505.333332,270.216 506.801332,270.856 507.913332,272.136 C509.025332,273.416 509.581332,275.024 509.581332,276.96 C509.581332,278.88 509.025332,280.484 507.913332,281.772 C506.801332,283.06 505.333332,283.704 503.509332,283.704 Z M519.175999,285.192 C520.759999,285.192 522.039999,284.536 523.015999,283.224 L523.015999,283.224 L523.015999,285 L524.599999,285 L524.599999,273 L523.015999,273 L523.015999,280.032 C523.015999,281.056 522.671999,281.924 521.983999,282.636 C521.295999,283.348 520.447999,283.704 519.439999,283.704 C518.447999,283.704 517.607999,283.348 516.919999,282.636 C516.231999,281.924 515.887999,281.056 515.887999,280.032 L515.887999,280.032 L515.887999,273 L514.255999,273 L514.255999,280.08 C514.255999,281.52 514.727999,282.732 515.671999,283.716 C516.615999,284.7 517.783999,285.192 519.175999,285.192 Z M532.874666,285.192 C533.466666,285.192 534.042666,285.036 534.602666,284.724 C535.162666,284.412 535.522666,284.168 535.682666,283.992 C535.842666,283.816 535.970666,283.664 536.066666,283.536 L536.066666,283.536 L535.274666,282.312 C535.274666,282.376 535.190666,282.516 535.022666,282.732 C534.854666,282.948 534.594666,283.168 534.242666,283.392 C533.890666,283.616 533.530666,283.728 533.162666,283.728 C532.570666,283.728 532.046666,283.512 531.590666,283.08 C531.134666,282.648 530.906666,282.064 530.906666,281.328 L530.906666,281.328 L530.906666,274.44 L534.530666,274.44 L534.530666,272.976 L530.906666,272.976 L530.906666,268.992 L529.322666,269.184 L529.322666,272.976 L527.402666,272.976 L527.402666,274.44 L529.322666,274.44 L529.322666,281.688 C529.322666,282.824 529.662666,283.692 530.342666,284.292 C531.022666,284.892 531.866666,285.192 532.874666,285.192 Z M540.957332,290.832 L540.957332,282.984 C542.173332,284.44 543.741332,285.168 545.661332,285.168 C547.373332,285.168 548.833332,284.564 550.041332,283.356 C551.249332,282.148 551.853332,280.688 551.853332,278.976 C551.853332,277.264 551.249332,275.804 550.041332,274.596 C548.833332,273.388 547.373332,272.784 545.661332,272.784 C543.757332,272.784 542.189332,273.504 540.957332,274.944 L540.957332,274.944 L540.957332,272.976 L539.373332,272.976 L539.373332,290.832 L540.957332,290.832 Z M545.613332,283.656 C544.333332,283.656 543.245332,283.208 542.349332,282.312 C541.453332,281.4 541.005332,280.288 541.005332,278.976 C541.005332,277.664 541.453332,276.552 542.349332,275.64 C543.245332,274.728 544.333332,274.272 545.613332,274.272 C546.893332,274.272 547.985332,274.728 548.889332,275.64 C549.793332,276.552 550.245332,277.664 550.245332,278.976 C550.245332,280.288 549.793332,281.396 548.889332,282.3 C547.985332,283.204 546.893332,283.656 545.613332,283.656 Z M559.671999,285.192 C561.255999,285.192 562.535999,284.536 563.511999,283.224 L563.511999,283.224 L563.511999,285 L565.095999,285 L565.095999,273 L563.511999,273 L563.511999,280.032 C563.511999,281.056 563.167999,281.924 562.479999,282.636 C561.791999,283.348 560.943999,283.704 559.935999,283.704 C558.943999,283.704 558.103999,283.348 557.415999,282.636 C556.727999,281.924 556.383999,281.056 556.383999,280.032 L556.383999,280.032 L556.383999,273 L554.751999,273 L554.751999,280.08 C554.751999,281.52 555.223999,282.732 556.167999,283.716 C557.111999,284.7 558.279999,285.192 559.671999,285.192 Z M573.370666,285.192 C573.962666,285.192 574.538666,285.036 575.098666,284.724 C575.658666,284.412 576.018666,284.168 576.178666,283.992 C576.338666,283.816 576.466666,283.664 576.562666,283.536 L576.562666,283.536 L575.770666,282.312 C575.770666,282.376 575.686666,282.516 575.518666,282.732 C575.350666,282.948 575.090666,283.168 574.738666,283.392 C574.386666,283.616 574.026666,283.728 573.658666,283.728 C573.066666,283.728 572.542666,283.512 572.086666,283.08 C571.630666,282.648 571.402666,282.064 571.402666,281.328 L571.402666,281.328 L571.402666,274.44 L575.026666,274.44 L575.026666,272.976 L571.402666,272.976 L571.402666,268.992 L569.818666,269.184 L569.818666,272.976 L567.898666,272.976 L567.898666,274.44 L569.818666,274.44 L569.818666,281.688 C569.818666,282.824 570.158666,283.692 570.838666,284.292 C571.518666,284.892 572.362666,285.192 573.370666,285.192 Z M591.863999,285 L595.247999,275.112 L598.631999,285 L600.215999,285 L604.463999,273 L602.879999,273 L599.423999,282.768 L595.967999,273 L594.527999,273 L591.071999,282.768 L587.639999,273 L586.055999,273 L590.279999,285 L591.863999,285 Z M608.250666,269.688 C608.522666,269.688 608.746666,269.592 608.922666,269.4 C609.114666,269.208 609.210666,268.984 609.210666,268.728 C609.210666,268.472 609.118666,268.248 608.934666,268.056 C608.750666,267.864 608.522666,267.768 608.250666,267.768 C607.978666,267.768 607.750666,267.864 607.566666,268.056 C607.382666,268.248 607.290666,268.472 607.290666,268.728 C607.290666,268.984 607.382666,269.208 607.566666,269.4 C607.750666,269.592 607.978666,269.688 608.250666,269.688 Z M609.042666,285 L609.042666,273 L607.458666,273 L607.458666,285 L609.042666,285 Z M617.125333,285.192 C617.717333,285.192 618.293333,285.036 618.853333,284.724 C619.413333,284.412 619.773333,284.168 619.933333,283.992 C620.093333,283.816 620.221333,283.664 620.317333,283.536 L620.317333,283.536 L619.525333,282.312 C619.525333,282.376 619.441333,282.516 619.273333,282.732 C619.105333,282.948 618.845333,283.168 618.493333,283.392 C618.141333,283.616 617.781333,283.728 617.413333,283.728 C616.821333,283.728 616.297333,283.512 615.841333,283.08 C615.385333,282.648 615.157333,282.064 615.157333,281.328 L615.157333,281.328 L615.157333,274.44 L618.781333,274.44 L618.781333,272.976 L615.157333,272.976 L615.157333,268.992 L613.573333,269.184 L613.573333,272.976 L611.653333,272.976 L611.653333,274.44 L613.573333,274.44 L613.573333,281.688 C613.573333,282.824 613.913333,283.692 614.593333,284.292 C615.273333,284.892 616.117333,285.192 617.125333,285.192 Z M624.487999,285 L624.487999,277.968 C624.487999,276.944 624.835999,276.076 625.531999,275.364 C626.227999,274.652 627.071999,274.296 628.063999,274.296 C629.071999,274.296 629.919999,274.652 630.607999,275.364 C631.295999,276.076 631.639999,276.952 631.639999,277.992 L631.639999,277.992 L631.639999,285 L633.247999,285 L633.247999,277.968 C633.247999,276.528 632.775999,275.308 631.831999,274.308 C630.887999,273.308 629.719999,272.808 628.327999,272.808 C626.743999,272.808 625.463999,273.464 624.487999,274.776 L624.487999,274.776 L624.487999,267.144 L622.903999,267.144 L622.903999,285 L624.487999,285 Z M654.981333,285 L654.981333,283.416 L645.981333,283.416 L645.981333,277.584 L651.045333,277.584 L651.045333,276 L645.981333,276 L645.981333,270.456 L654.981333,270.456 L654.981333,268.872 L644.397333,268.872 L644.397333,285 L654.981333,285 Z M659.919999,285 L659.919999,277.968 C659.919999,276.944 660.267999,276.072 660.963999,275.352 C661.659999,274.632 662.503999,274.272 663.495999,274.272 C664.487999,274.272 665.331999,274.632 666.027999,275.352 C666.723999,276.072 667.071999,276.944 667.071999,277.968 L667.071999,277.968 L667.071999,285 L668.679999,285 L668.679999,277.92 C668.679999,276.48 668.207999,275.268 667.263999,274.284 C666.319999,273.3 665.151999,272.808 663.759999,272.808 C662.175999,272.808 660.895999,273.464 659.919999,274.776 L659.919999,274.776 L659.919999,273 L658.335999,273 L658.335999,285 L659.919999,285 Z M676.762666,285 L681.010666,273 L679.426666,273 L675.970666,282.768 L672.538666,273 L670.954666,273 L675.178666,285 L676.762666,285 Z M684.821333,269.688 C685.093333,269.688 685.317333,269.592 685.493333,269.4 C685.685333,269.208 685.781333,268.984 685.781333,268.728 C685.781333,268.472 685.689333,268.248 685.505333,268.056 C685.321333,267.864 685.093333,267.768 684.821333,267.768 C684.549333,267.768 684.321333,267.864 684.137333,268.056 C683.953333,268.248 683.861333,268.472 683.861333,268.728 C683.861333,268.984 683.953333,269.208 684.137333,269.4 C684.321333,269.592 684.549333,269.688 684.821333,269.688 Z M685.613333,285 L685.613333,273 L684.029333,273 L684.029333,285 L685.613333,285 Z M691.535999,285 L691.535999,277.968 C691.535999,276.928 691.879999,276.052 692.567999,275.34 C693.255999,274.628 694.103999,274.272 695.111999,274.272 C695.8,274.272 696.479999,274.52 697.151999,275.016 L697.151999,275.016 L697.704,273.432 C697,273.016 696.223999,272.808 695.375999,272.808 C693.791999,272.808 692.512,273.464 691.535999,274.776 L691.535999,274.776 L691.535999,273 L689.951999,273 L689.951999,285 L691.535999,285 Z M705.018666,285.192 C706.730666,285.192 708.186666,284.584 709.386666,283.368 C710.602666,282.152 711.210666,280.696 711.210666,279 C711.210666,277.288 710.606666,275.828 709.398666,274.62 C708.190666,273.412 706.730666,272.808 705.018666,272.808 C703.306666,272.808 701.846666,273.412 700.638666,274.62 C699.430666,275.828 698.826666,277.288 698.826666,279 C698.826666,280.712 699.430666,282.172 700.638666,283.38 C701.846666,284.588 703.306666,285.192 705.018666,285.192 Z M705.042666,283.68 C703.762666,283.68 702.674666,283.228 701.778666,282.324 C700.882666,281.42 700.434666,280.312 700.434666,279 C700.434666,277.688 700.882666,276.576 701.778666,275.664 C702.674666,274.752 703.762666,274.296 705.042666,274.296 C706.338666,274.296 707.430666,274.752 708.318666,275.664 C709.206666,276.576 709.650666,277.688 709.650666,279 C709.650666,280.312 709.206666,281.42 708.318666,282.324 C707.430666,283.228 706.338666,283.68 705.042666,283.68 Z M715.837333,285 L715.837333,277.968 C715.837333,276.944 716.185333,276.072 716.881333,275.352 C717.577333,274.632 718.421333,274.272 719.413333,274.272 C720.405333,274.272 721.249333,274.632 721.945333,275.352 C722.641333,276.072 722.989333,276.944 722.989333,277.968 L722.989333,277.968 L722.989333,285 L724.597333,285 L724.597333,277.92 C724.597333,276.48 724.125333,275.268 723.181333,274.284 C722.237333,273.3 721.069333,272.808 719.677333,272.808 C718.093333,272.808 716.813333,273.464 715.837333,274.776 L715.837333,274.776 L715.837333,273 L714.253333,273 L714.253333,285 L715.837333,285 Z M729.896,285 L729.896,277.968 C729.896,276.944 730.244,276.072 730.94,275.352 C731.636,274.632 732.48,274.272 733.472,274.272 C734.464,274.272 735.308,274.632 736.004,275.352 C736.7,276.072 737.048,276.944 737.048,277.968 L737.048,277.968 L737.048,285 L738.656,285 L738.656,277.968 C738.656,276.928 739,276.052 739.688,275.34 C740.376,274.628 741.224,274.272 742.232,274.272 C743.24,274.272 744.084,274.628 744.764,275.34 C745.444,276.052 745.784,276.928 745.784,277.968 L745.784,277.968 L745.784,285 L747.416,285 L747.416,277.92 C747.416,276.48 746.944,275.268 746,274.284 C745.056,273.3 743.888,272.808 742.496,272.808 C741.504,272.808 740.616,273.04 739.832,273.504 C739.048,273.968 738.448,274.592 738.032,275.376 C737.6,274.592 737.004,273.968 736.244,273.504 C735.484,273.04 734.648,272.808 733.736,272.808 C732.152,272.808 730.872,273.464 729.896,274.776 L729.896,274.776 L729.896,273 L728.312,273 L728.312,285 L729.896,285 Z M756.530666,285.072 C758.002666,285.088 759.270666,284.672 760.334666,283.824 C761.398666,282.976 762.114666,282.048 762.482666,281.04 L762.482666,281.04 L761.138666,280.56 C760.834666,281.376 760.258666,282.088 759.410666,282.696 C758.562666,283.304 757.602666,283.608 756.530666,283.608 C755.538666,283.624 754.634666,283.324 753.818666,282.708 C753.002666,282.092 752.458666,281.304 752.186666,280.344 L752.186666,280.344 L762.674666,278.448 C762.674666,278.32 762.666666,278.216 762.650666,278.136 C762.474666,276.6 761.802666,275.312 760.634666,274.272 C759.466666,273.232 758.098666,272.704 756.530666,272.688 C754.802666,272.704 753.338666,273.312 752.138666,274.512 C750.938666,275.712 750.338666,277.176 750.338666,278.904 C750.338666,279.528 750.418666,280.104 750.578666,280.632 C750.978666,281.928 751.734666,282.992 752.846666,283.824 C753.958666,284.656 755.186666,285.072 756.530666,285.072 Z M751.946666,279.048 C751.946666,278.968 751.942666,278.868 751.934666,278.748 C751.926666,278.628 751.922666,278.544 751.922666,278.496 C751.986666,277.312 752.446666,276.296 753.302666,275.448 C754.158666,274.6 755.186666,274.168 756.386666,274.152 C757.410666,274.136 758.338666,274.436 759.170666,275.052 C760.002666,275.668 760.570666,276.464 760.874666,277.44 L760.874666,277.44 L751.946666,279.048 Z M767.181333,285 L767.181333,277.968 C767.181333,276.944 767.529333,276.072 768.225333,275.352 C768.921333,274.632 769.765333,274.272 770.757333,274.272 C771.749333,274.272 772.593333,274.632 773.289333,275.352 C773.985333,276.072 774.333333,276.944 774.333333,277.968 L774.333333,277.968 L774.333333,285 L775.941333,285 L775.941333,277.92 C775.941333,276.48 775.469333,275.268 774.525333,274.284 C773.581333,273.3 772.413333,272.808 771.021333,272.808 C769.437333,272.808 768.157333,273.464 767.181333,274.776 L767.181333,274.776 L767.181333,273 L765.597333,273 L765.597333,285 L767.181333,285 Z M783.832,285.192 C784.424,285.192 785,285.036 785.56,284.724 C786.12,284.412 786.48,284.168 786.64,283.992 C786.8,283.816 786.928,283.664 787.024,283.536 L787.024,283.536 L786.232,282.312 C786.232,282.376 786.148,282.516 785.98,282.732 C785.812,282.948 785.552,283.168 785.2,283.392 C784.848,283.616 784.488,283.728 784.12,283.728 C783.528,283.728 783.004,283.512 782.548,283.08 C782.092,282.648 781.864,282.064 781.864,281.328 L781.864,281.328 L781.864,274.44 L785.488,274.44 L785.488,272.976 L781.864,272.976 L781.864,268.992 L780.28,269.184 L780.28,272.976 L778.36,272.976 L778.36,274.44 L780.28,274.44 L780.28,281.688 C780.28,282.824 780.62,283.692 781.3,284.292 C781.98,284.892 782.824,285.192 783.832,285.192 Z M794.674666,285.192 C796.562666,285.192 798.122666,284.48 799.354666,283.056 L799.354666,283.056 L799.354666,285 L800.938666,285 L800.938666,273 L799.354666,273 L799.354666,274.944 C798.138666,273.52 796.578666,272.808 794.674666,272.808 C792.962666,272.808 791.502666,273.412 790.294666,274.62 C789.086666,275.828 788.482666,277.288 788.482666,279 C788.482666,280.712 789.086666,282.172 790.294666,283.38 C791.502666,284.588 792.962666,285.192 794.674666,285.192 Z M794.698666,283.68 C793.418666,283.68 792.326666,283.228 791.422666,282.324 C790.518666,281.42 790.066666,280.312 790.066666,279 C790.066666,277.688 790.518666,276.58 791.422666,275.676 C792.326666,274.772 793.418666,274.32 794.698666,274.32 C795.994666,274.32 797.086666,274.772 797.974666,275.676 C798.862666,276.58 799.306666,277.688 799.306666,279 C799.306666,280.312 798.862666,281.42 797.974666,282.324 C797.086666,283.228 795.994666,283.68 794.698666,283.68 Z M806.573333,285 L806.573333,267.144 L804.989333,267.144 L804.989333,285 L806.573333,285 Z M819.498666,285 L819.498666,271.296 L828.498666,285 L830.130666,285 L830.130666,268.872 L828.546666,268.872 L828.546666,282.6 L819.522667,268.872 L817.914666,268.872 L817.914666,285 L819.498666,285 Z M839.389333,285.192 C841.101333,285.192 842.557333,284.584 843.757333,283.368 C844.973333,282.152 845.581333,280.696 845.581333,279 C845.581333,277.288 844.977333,275.828 843.769333,274.62 C842.561333,273.412 841.101333,272.808 839.389333,272.808 C837.677333,272.808 836.217333,273.412 835.009333,274.62 C833.801333,275.828 833.197333,277.288 833.197333,279 C833.197333,280.712 833.801333,282.172 835.009333,283.38 C836.217333,284.588 837.677333,285.192 839.389333,285.192 Z M839.413333,283.68 C838.133333,283.68 837.045333,283.228 836.149333,282.324 C835.253333,281.42 834.805333,280.312 834.805333,279 C834.805333,277.688 835.253333,276.576 836.149333,275.664 C837.045333,274.752 838.133333,274.296 839.413333,274.296 C840.709333,274.296 841.801333,274.752 842.689333,275.664 C843.577333,276.576 844.021333,277.688 844.021333,279 C844.021333,280.312 843.577333,281.42 842.689333,282.324 C841.801333,283.228 840.709333,283.68 839.413333,283.68 Z M849.992,269.688 C850.264,269.688 850.488,269.592 850.664,269.4 C850.856,269.208 850.952,268.984 850.952,268.728 C850.952,268.472 850.86,268.248 850.676,268.056 C850.492,267.864 850.264,267.768 849.992,267.768 C849.72,267.768 849.492,267.864 849.308,268.056 C849.124,268.248 849.032,268.472 849.032,268.728 C849.032,268.984 849.124,269.208 849.308,269.4 C849.492,269.592 849.72,269.688 849.992,269.688 Z M850.784,285 L850.784,273 L849.2,273 L849.2,285 L850.784,285 Z M859.058667,285.192 C860.530667,285.192 861.634667,284.88 862.370667,284.256 C863.106667,283.632 863.474667,282.816 863.474667,281.808 C863.474667,281.088 863.210667,280.476 862.682667,279.972 C862.154667,279.468 861.510667,279.084 860.750667,278.82 C859.990667,278.556 859.234667,278.312 858.482667,278.088 C857.730667,277.864 857.090667,277.596 856.562667,277.284 C856.034667,276.972 855.770667,276.6 855.770667,276.168 C855.770667,275.56 856.038667,275.088 856.574667,274.752 C857.110667,274.416 857.810667,274.248 858.674667,274.248 C859.282667,274.248 859.890667,274.384 860.498667,274.656 C861.106667,274.928 861.510667,275.144 861.710667,275.304 C861.910667,275.464 862.066667,275.6 862.178667,275.712 L862.178667,275.712 L863.306667,274.728 L862.802667,274.248 C862.466667,273.928 861.914667,273.608 861.146667,273.288 C860.378667,272.968 859.562667,272.808 858.698667,272.808 C857.242667,272.808 856.142667,273.124 855.398667,273.756 C854.654667,274.388 854.282667,275.2 854.282667,276.192 C854.282667,276.912 854.546667,277.52 855.074667,278.016 C855.602667,278.512 856.246667,278.896 857.006667,279.168 C857.766667,279.44 858.522667,279.688 859.274667,279.912 C860.026667,280.136 860.666667,280.404 861.194667,280.716 C861.722667,281.028 861.986667,281.4 861.986667,281.832 C861.986667,282.44 861.722667,282.912 861.194667,283.248 C860.666667,283.584 859.962667,283.752 859.082667,283.752 C858.490667,283.752 857.890667,283.616 857.282667,283.344 C856.674667,283.072 856.270667,282.856 856.070667,282.696 C855.870667,282.536 855.714667,282.4 855.602667,282.288 L855.602667,282.288 L854.474667,283.248 L854.666667,283.464 C854.794667,283.592 854.994667,283.752 855.266667,283.944 C855.538667,284.136 855.846667,284.324 856.190667,284.508 C856.534667,284.692 856.962667,284.852 857.474667,284.988 C857.986667,285.124 858.514667,285.192 859.058667,285.192 Z M872.037333,285.072 C873.509333,285.088 874.777333,284.672 875.841333,283.824 C876.905333,282.976 877.621333,282.048 877.989333,281.04 L877.989333,281.04 L876.645333,280.56 C876.341333,281.376 875.765333,282.088 874.917333,282.696 C874.069333,283.304 873.109333,283.608 872.037333,283.608 C871.045333,283.624 870.141333,283.324 869.325333,282.708 C868.509333,282.092 867.965333,281.304 867.693333,280.344 L867.693333,280.344 L878.181333,278.448 C878.181333,278.32 878.173333,278.216 878.157333,278.136 C877.981333,276.6 877.309333,275.312 876.141333,274.272 C874.973333,273.232 873.605333,272.704 872.037333,272.688 C870.309333,272.704 868.845333,273.312 867.645333,274.512 C866.445333,275.712 865.845333,277.176 865.845333,278.904 C865.845333,279.528 865.925333,280.104 866.085333,280.632 C866.485333,281.928 867.241333,282.992 868.353333,283.824 C869.465333,284.656 870.693333,285.072 872.037333,285.072 Z M867.453333,279.048 C867.453333,278.968 867.449333,278.868 867.441333,278.748 C867.433333,278.628 867.429333,278.544 867.429333,278.496 C867.493333,277.312 867.953333,276.296 868.809333,275.448 C869.665333,274.6 870.693333,274.168 871.893333,274.152 C872.917333,274.136 873.845333,274.436 874.677333,275.052 C875.509333,275.668 876.077333,276.464 876.381333,277.44 L876.381333,277.44 L867.453333,279.048 Z" id="SensorOutputwithEnvironmentalNoise" fill="#23ABE3" fill-rule="nonzero"></path>
        </g>
        <g id="Axis" transform="translate(20.000000, 31.000000)">
            <line x1="95" y1="10" x2="95.5" y2="190.5" id="Line-7-Copy-2" stroke="#3D3530" stroke-width="3" stroke-linecap="square"></line>
            <path d="M52.632,105.256 C53.7360055,104.151994 55.0559923,103.6 56.592,103.6 C58.1280077,103.6 59.4439945,104.147995 60.54,105.244 C61.6360055,106.340005 62.184,107.655992 62.184,109.192 C62.184,110.744008 61.6360055,112.067995 60.54,113.164 C59.4439945,114.260005 58.1280077,114.808 56.592,114.808 C55.0559923,114.808 53.7400055,114.260005 52.644,113.164 C51.5479945,112.067995 51,110.744008 51,109.192 C51,107.655992 51.5439946,106.344005 52.632,105.256 Z M56.592,104.968 C55.4719944,104.968 54.516004,105.383996 53.724,106.216 C52.931996,107.048004 52.536,108.039994 52.536,109.192 C52.536,110.360006 52.931996,111.355996 53.724,112.18 C54.516004,113.004004 55.4719944,113.416 56.592,113.416 C57.6960055,113.416 58.647996,113.004004 59.448,112.18 C60.248004,111.355996 60.648,110.360006 60.648,109.192 C60.648,108.039994 60.248004,107.048004 59.448,106.216 C58.647996,105.383996 57.6960055,104.968 56.592,104.968 Z M79.392,100.504 C78.4479953,100.504 77.8360014,100.619999 77.556,100.852 C77.2759986,101.084001 76.936002,101.663995 76.536,102.592 L71.256,114.808 L70.944,114.808 L65.64,102.592 C65.239998,101.663995 64.9000014,101.084001 64.62,100.852 C64.3399986,100.619999 63.7280047,100.504 62.784,100.504 L62.784,100 L69.432,100 L69.432,100.504 C68.439995,100.504 67.8040014,100.643999 67.524,100.924 C67.2439986,101.204001 67.2559985,101.671997 67.56,102.328 L71.64,111.664 L75.672,102.328 C75.9760015,101.671997 75.9880014,101.204001 75.708,100.924 C75.4279986,100.643999 74.792005,100.504 73.8,100.504 L73.8,100 L79.392,100 L79.392,100.504 Z" id="0V-Copy-2" fill="#524740"></path>
            <line x1="812.5" y1="179.5" x2="79" y2="179" id="Line-7-Copy-6" stroke="#3D3530" stroke-width="3" stroke-linecap="square"></line>
            <path d="M-7.94,79.104 C-8.88400472,79.104 -9.4959986,79.2199988 -9.776,79.452 C-10.0560014,79.6840012 -10.395998,80.2639954 -10.796,81.192 L-16.076,93.408 L-16.388,93.408 L-21.692,81.192 C-22.092002,80.2639954 -22.4319986,79.6840012 -22.712,79.452 C-22.9920014,79.2199988 -23.6039953,79.104 -24.548,79.104 L-24.548,78.6 L-17.9,78.6 L-17.9,79.104 C-18.892005,79.104 -19.5279986,79.2439986 -19.808,79.524 C-20.064668,79.780668 -20.0759737,80.195303 -19.841917,80.767916 L-15.692,90.264 L-11.66,80.928 C-11.3559985,80.2719967 -11.3439986,79.8040014 -11.624,79.524 C-11.9040014,79.2439986 -12.539995,79.104 -13.532,79.104 L-13.532,78.6 L-7.94,78.6 L-7.94,79.104 Z M0.58,85.896 C1.5400048,86.7440042 2.02,87.7759939 2.02,88.992 C2.02,90.2080061 1.54400476,91.2479957 0.592,92.112 C-0.36000476,92.9760043 -1.49999336,93.408 -2.828,93.408 C-4.15600664,93.408 -5.29599524,92.9760043 -6.248,92.112 C-7.20000476,91.2479957 -7.676,90.2080061 -7.676,88.992 C-7.676,87.7759939 -7.20000476,86.7400043 -6.248,85.884 C-5.29599524,85.0279957 -4.15600664,84.6 -2.828,84.6 C-1.49999336,84.6 -0.36400472,85.0319957 0.58,85.896 Z M-0.668,91.512 C-0.17199752,90.8559967 0.076,90.0160051 0.076,88.992 C0.076,87.9679949 -0.17199752,87.1320032 -0.668,86.484 C-1.16400248,85.8359968 -1.88399528,85.512 -2.828,85.512 C-3.77200472,85.512 -4.49199752,85.8399967 -4.988,86.496 C-5.48400248,87.1520033 -5.732,87.983995 -5.732,88.992 C-5.732,90.000005 -5.48400248,90.8319967 -4.988,91.488 C-4.49199752,92.1440033 -3.77200472,92.472 -2.828,92.472 C-1.88399528,92.472 -1.16400248,92.1520032 -0.668,91.512 Z M9.124,93 L3.628,93 L3.628,92.496 C4.428004,92.496 4.94399884,92.3280017 5.176,91.992 C5.40800116,91.6559983 5.524,90.888006 5.524,89.688 L5.524,82.104 C5.524,80.903994 5.40800116,80.1360017 5.176,79.8 C4.94399884,79.4639983 4.428004,79.296 3.628,79.296 L3.628,78.792 L7.228,78.192 L7.228,89.688 C7.228,90.888006 7.34399884,91.6559983 7.576,91.992 C7.80800116,92.3280017 8.323996,92.496 9.124,92.496 L9.124,93 Z M11.524,85.848 L10.276,85.848 L10.276,85.272 C10.9640034,85.1279993 11.4679984,84.8160024 11.788,84.336 C12.1080016,83.8559976 12.3159995,83.2000042 12.412,82.368 L13.228,82.368 L13.228,85.008 L15.316,85.008 L15.316,85.848 L13.228,85.848 L13.228,90.648 C13.228,91.8000058 13.5879964,92.376 14.308,92.376 C14.7720023,92.376 15.2919971,92.1040027 15.868,91.56 L16.276,91.968 C15.9399983,92.368 15.5360024,92.6959987 15.064,92.952 C14.5919976,93.2080013 14.156002,93.336 13.756,93.336 C13.0679966,93.336 12.524002,93.1120022 12.124,92.664 C11.723998,92.2159978 11.524,91.5440045 11.524,90.648 L11.524,85.848 Z M25.972,92.52 C25.5079977,93.0160025 24.980003,93.264 24.388,93.264 C23.4279952,93.264 22.8840006,92.8000046 22.756,91.872 C21.6839946,92.8320048 20.6840046,93.312 19.756,93.312 C19.147997,93.312 18.6360021,93.1320018 18.22,92.772 C17.8039979,92.4119982 17.596,91.9200031 17.596,91.296 C17.596,89.6159916 19.299983,88.480003 22.708,87.888 C22.708,86.9439953 22.604001,86.2880018 22.396,85.92 C22.187999,85.5519982 21.7560033,85.368 21.1,85.368 C20.7799984,85.368 20.4720015,85.471999 20.176,85.68 C19.9169987,85.8620009 19.7713122,86.0991239 19.7389374,86.3913745 L19.732,86.52 C19.732,86.7600012 19.6520008,86.9599992 19.492,87.12 C19.3319992,87.2800008 19.1400011,87.36 18.916,87.36 C18.6759988,87.36 18.4760008,87.2800008 18.316,87.12 C18.1559992,86.9599992 18.076,86.7600012 18.076,86.52 C18.076,85.9599972 18.3839969,85.5000018 19,85.14 C19.6160031,84.7799982 20.323996,84.6 21.124,84.6 C22.2920058,84.6 23.1319974,84.8559974 23.644,85.368 C24.1560026,85.8800026 24.412,86.7119942 24.412,87.864 L24.412,91.488 C24.412,92.1120031 24.596,92.424 24.964,92.424 C25.172001,92.424 25.3959988,92.3040012 25.636,92.064 L25.972,92.52 Z M22.708,91.08 L22.708,88.632 C20.499989,89.1440026 19.396,89.9359946 19.396,91.008 C19.396,91.3760018 19.5039989,91.6719989 19.72,91.896 C19.9360011,92.1200011 20.2039984,92.232 20.524,92.232 C21.116003,92.232 21.8439957,91.8480038 22.708,91.08 Z M32.212,89.664 C32.5160015,89.1999977 32.668,88.6000037 32.668,87.864 C32.668,87.1279963 32.5200015,86.5280023 32.224,86.064 C31.9279985,85.5999977 31.5000028,85.368 30.94,85.368 C30.3799972,85.368 29.9480015,85.5999977 29.644,86.064 C29.3399985,86.5280023 29.188,87.1279963 29.188,87.864 C29.188,88.6000037 29.3399985,89.1959977 29.644,89.652 C29.9480015,90.1080023 30.3799972,90.336 30.94,90.336 C31.5000028,90.336 31.9239986,90.1120022 32.212,89.664 Z M28.708,92.136 C28.708,92.5893356 29.3573515,92.8856787 30.656073,93.025037 L30.892,93.048 C32.4280077,93.1760006 33.5399966,93.5279971 34.228,94.104 C34.9160034,94.6800029 35.26,95.3759959 35.26,96.192 C35.26,97.1680049 34.856004,97.9479971 34.048,98.532 C33.239996,99.1160029 32.2280061,99.408 31.012,99.408 C29.7159935,99.408 28.672004,99.1400027 27.88,98.604 C27.087996,98.0679973 26.7239997,97.4400036 26.788,96.72 C26.8520003,95.9999964 27.3639952,95.3920025 28.324,94.896 L28.756,95.16 C28.2919977,95.6880026 28.0440002,96.1719978 28.012,96.612 C27.9799998,97.0520022 28.1199984,97.3999987 28.432,97.656 C28.7440016,97.9120013 29.1279977,98.1119993 29.584,98.256 C30.0400023,98.4000007 30.5159975,98.472 31.012,98.472 C31.7960039,98.472 32.487997,98.3000017 33.088,97.956 C33.688003,97.6119983 33.988,97.1680027 33.988,96.624 C33.988,96.0959974 33.7280026,95.7120012 33.208,95.472 C32.7352704,95.2538171 32.0212273,95.0885292 31.0658524,94.9761323 L30.772,94.944 C28.4999886,94.7199989 27.364,93.9760063 27.364,92.712 C27.364,91.8479957 28.0359933,91.2080021 29.38,90.792 C28.7559969,90.5039986 28.2640018,90.1040026 27.904,89.592 C27.5439982,89.0799974 27.364,88.5040032 27.364,87.864 C27.364,86.9679955 27.7119965,86.2000032 28.408,85.56 C29.1040035,84.9199968 29.947995,84.6 30.94,84.6 C31.9000048,84.6 32.7239966,84.903997 33.412,85.512 C33.620001,85.2559987 33.9039982,85.0400009 34.264,84.864 C34.6240018,84.6879991 34.9399986,84.6 35.212,84.6 C35.9160035,84.6 36.363999,84.895997 36.556,85.488 C36.7000007,85.9360022 36.6280005,86.2719989 36.34,86.496 C36.2439995,86.5760004 36.1320006,86.616 36.004,86.616 C35.7639988,86.6320001 35.5840006,86.5840006 35.464,86.472 C35.3739996,86.3879996 35.3109998,86.2972502 35.275,86.1997502 L35.248,86.1 C35.2239999,85.9639993 35.1600005,85.8360006 35.056,85.716 C34.9519995,85.5959994 34.7880011,85.536 34.564,85.536 C34.3239988,85.536 34.0760013,85.6639987 33.82,85.92 C34.2840023,86.4800028 34.516,87.1279963 34.516,87.864 C34.516,88.7120042 34.2040031,89.439997 33.58,90.048 C32.9559969,90.656003 32.2280042,91.0159994 31.396,91.128 C29.603991,91.336001 28.708,91.6719977 28.708,92.136 Z M39.724,87.504 L43.708,87.504 C43.8680008,87.0559978 43.8000015,86.6200021 43.504,86.196 C43.2079985,85.7719979 42.7000036,85.56 41.98,85.56 C41.4679974,85.56 41.008002,85.7359982 40.6,86.088 C40.191998,86.4400018 39.9000009,86.911997 39.724,87.504 Z M39.58,88.392 C39.4359993,89.5760059 39.6239974,90.5399963 40.144,91.284 C40.6640026,92.0280037 41.5159941,92.4 42.7,92.4 C43.100002,92.4 43.5559974,92.296001 44.068,92.088 C44.5800026,91.879999 45.0039983,91.6160016 45.34,91.296 L45.772,91.824 C45.3399978,92.2880023 44.7880034,92.6679985 44.116,92.964 C43.4439966,93.2600015 42.7720034,93.408 42.1,93.408 C40.8039935,93.408 39.7400042,92.9800043 38.908,92.124 C38.0759958,91.2679957 37.66,90.2240062 37.66,88.992 C37.66,87.7599938 38.1119955,86.7200042 39.016,85.872 C39.9200045,85.0239958 40.9479942,84.6 42.1,84.6 C43.1880054,84.6 44.0759966,84.9799962 44.764,85.74 C45.4520034,86.5000038 45.6520014,87.383995 45.364,88.392 L39.58,88.392 Z" id="Voltage" fill="#524740" fill-rule="nonzero" transform="translate(10.612000, 88.800000) rotate(-90.000000) translate(-10.612000, -88.800000) "></path>
            <path d="M427.952,193.6 L428.168,196.84 L427.664,196.84 L427.544,196.36 C427.351999,195.639996 427.096002,195.156001 426.776,194.908 C426.455998,194.659999 425.784005,194.536 424.76,194.536 L421.616,194.536 L421.616,204.688 C421.616,205.888006 421.751999,206.655998 422.024,206.992 C422.296001,207.328002 422.927995,207.496 423.92,207.496 L423.92,208 L417.416,208 L417.416,207.496 C418.408005,207.496 419.039999,207.328002 419.312,206.992 C419.584001,206.655998 419.72,205.888006 419.72,204.688 L419.72,194.536 L416.576,194.536 C415.551995,194.536 414.880002,194.659999 414.56,194.908 C414.239998,195.156001 413.984001,195.639996 413.792,196.36 L413.672,196.84 L413.168,196.84 L413.384,193.6 L427.952,193.6 Z M434.768,208 L429.272,208 L429.272,207.496 C430.072004,207.496 430.587999,207.328002 430.82,206.992 C431.052001,206.655998 431.168,205.888006 431.168,204.688 L431.168,203.488 C431.168,202.303994 431.052001,201.544002 430.82,201.208 C430.587999,200.871998 430.072004,200.704 429.272,200.704 L429.272,200.2 L432.872,199.6 L432.872,204.688 C432.872,205.888006 432.987999,206.655998 433.22,206.992 C433.452001,207.328002 433.967996,207.496 434.768,207.496 L434.768,208 Z M433.064,196.168 C433.064,196.472002 432.960001,196.727999 432.752,196.936 C432.543999,197.144001 432.296001,197.248 432.008,197.248 C431.719999,197.248 431.472001,197.144001 431.264,196.936 C431.055999,196.727999 430.952,196.472002 430.952,196.168 C430.952,195.879999 431.055999,195.632001 431.264,195.424 C431.472001,195.215999 431.719999,195.112 432.008,195.112 C432.296001,195.112 432.543999,195.215999 432.752,195.424 C432.960001,195.632001 433.064,195.879999 433.064,196.168 Z M445.616,203.128 L445.616,204.688 C445.616,205.952006 445.699999,206.735998 445.868,207.04 C446.036001,207.344002 446.455997,207.496 447.128,207.496 L447.128,208 L442.424,208 L442.424,207.496 C443.096003,207.496 443.515999,207.344002 443.684,207.04 C443.852001,206.735998 443.936,205.952006 443.936,204.688 L443.936,203.296 C443.936,201.583991 443.360006,200.728 442.208,200.728 C441.711998,200.728 441.176003,200.959998 440.6,201.424 C440.023997,201.888002 439.736,202.455997 439.736,203.128 L439.736,204.688 C439.736,205.936006 439.819999,206.715998 439.988,207.028 C440.156001,207.340002 440.567997,207.496 441.224,207.496 L441.224,208 L436.136,208 L436.136,207.496 C436.936004,207.496 437.451999,207.328002 437.684,206.992 C437.916001,206.655998 438.032,205.888006 438.032,204.688 L438.032,203.488 C438.032,202.303994 437.916001,201.544002 437.684,201.208 C437.451999,200.871998 436.936004,200.704 436.136,200.704 L436.136,200.2 L439.328,199.6 C439.472001,199.904002 439.607999,200.479996 439.736,201.328 C440.648005,200.175994 441.687994,199.6 442.856,199.6 C444.184007,199.6 445.031998,200.199994 445.4,201.4 C445.720002,200.951998 446.195997,200.540002 446.828,200.164 C447.460003,199.787998 448.103997,199.6 448.76,199.6 C450.600009,199.6 451.52,200.791988 451.52,203.176 L451.52,204.688 C451.52,205.888006 451.636,206.655998 451.868,206.992 C452.100001,207.328002 452.615996,207.496 453.416,207.496 L453.416,208 L448.328,208 L448.328,207.496 C449.000003,207.496 449.415999,207.344002 449.576,207.04 C449.736001,206.735998 449.816,205.952006 449.816,204.688 L449.816,203.296 C449.816,201.583991 449.248006,200.728 448.112,200.728 C447.615998,200.728 447.076003,200.959998 446.492,201.424 C445.907997,201.888002 445.616,202.455997 445.616,203.128 Z M457.112,202.504 L461.096,202.504 C461.256001,202.055998 461.188001,201.620002 460.892,201.196 C460.595999,200.771998 460.088004,200.56 459.368,200.56 C458.855997,200.56 458.396002,200.735998 457.988,201.088 C457.579998,201.440002 457.288001,201.911997 457.112,202.504 Z M456.968,203.392 C456.823999,204.576006 457.011997,205.539996 457.532,206.284 C458.052003,207.028004 458.903994,207.4 460.088,207.4 C460.488002,207.4 460.943997,207.296001 461.456,207.088 C461.968003,206.879999 462.391998,206.616002 462.728,206.296 L463.16,206.824 C462.727998,207.288002 462.176003,207.667999 461.504,207.964 C460.831997,208.260001 460.160003,208.408 459.488,208.408 C458.191994,208.408 457.128004,207.980004 456.296,207.124 C455.463996,206.267996 455.048,205.224006 455.048,203.992 C455.048,202.759994 455.499995,201.720004 456.404,200.872 C457.308005,200.023996 458.335994,199.6 459.488,199.6 C460.576005,199.6 461.463997,199.979996 462.152,200.74 C462.840003,201.500004 463.040001,202.383995 462.752,203.392 L456.968,203.392 Z" id="Time" fill="#524740" fill-rule="nonzero"></path>
            <path d="M38.488,14.24 C38.3983996,14.3168004 38.2908804,14.4268795 38.1654403,14.5702397 L38.068,14.684 C37.8999992,14.884001 37.7440007,15.0439994 37.6,15.164 C37.4559993,15.2840006 37.3120007,15.344 37.168,15.344 C37.0399994,15.344 36.9240005,15.2920005 36.82,15.188 C36.7159995,15.0839995 36.664,14.9520008 36.664,14.792 C36.664,14.5039986 36.8719979,14.2080015 37.288,13.904 L39.064,12.488 C39.5280023,12.1359982 39.9079985,11.6840028 40.204,11.132 C40.5000015,10.5799972 40.648,10.008003 40.648,9.416 C40.648,8.74399664 40.4080024,8.208002 39.928,7.808 C39.4479976,7.407998 38.8160039,7.208 38.032,7.208 C37.1999958,7.208 36.5040028,7.55999648 35.944,8.264 C35.3839972,8.96800352 35.3919971,9.81599504 35.968,10.808 L35.248,11.552 C34.3199954,10.9919972 33.8200004,10.2840043 33.748,9.428 C33.6759996,8.57199572 34.039996,7.82000324 34.84,7.172 C35.640004,6.52399676 36.7039934,6.2 38.032,6.2 C39.2640062,6.2 40.3359954,6.49599704 41.248,7.088 C42.1600046,7.68000296 42.616,8.4559952 42.616,9.416 C42.616,9.76800176 42.5400008,10.1279982 42.388,10.496 C42.2359992,10.8640018 42.0520011,11.1759987 41.836,11.432 C41.6199989,11.6880013 41.4040011,11.9239989 41.188,12.14 L40.9460797,12.3742403 C40.83376,12.4788801 40.7344004,12.5647997 40.648,12.632 L40.408,12.776 L39.304,13.616 C40.4560058,13.8560012 41.3679966,14.3279965 42.04,15.032 C42.7120034,15.7360035 43.048,16.5519954 43.048,17.48 C43.048,18.5840055 42.5880046,19.5279961 41.668,20.312 C40.7479954,21.0960039 39.6160067,21.488 38.272,21.488 C36.9759935,21.488 35.9120042,21.1760031 35.08,20.552 C34.2479958,19.9279969 33.832,19.3360028 33.832,18.776 C33.832,18.4079982 34.0399979,18.224 34.456,18.224 C34.6160008,18.224 34.7559994,18.2959993 34.876,18.44 C34.9480004,18.5264004 35.02576,18.6329599 35.1092798,18.7596797 L35.284,19.04 C35.4360008,19.2960013 35.5839993,19.4959993 35.728,19.64 C36.320003,20.2640031 37.1039951,20.576 38.08,20.576 C39.0240047,20.576 39.7319976,20.2920028 40.204,19.724 C40.6760024,19.1559972 40.912,18.4080046 40.912,17.48 C40.912,16.7119962 40.716002,16.024003 40.324,15.416 C39.931998,14.807997 39.3200042,14.4160009 38.488,14.24 Z M49.552,15.944 C49.552,16.2800017 49.4160014,16.5719988 49.144,16.82 C48.8719986,17.0680012 48.5520018,17.192 48.184,17.192 C47.8159982,17.192 47.5040013,17.0680012 47.248,16.82 C46.9919987,16.5719988 46.864,16.2800017 46.864,15.944 C46.864,15.5919982 46.9919987,15.2920012 47.248,15.044 C47.5040013,14.7959988 47.8159982,14.672 48.184,14.672 C48.5520018,14.672 48.8719986,14.7959988 49.144,15.044 C49.4160014,15.2920012 49.552,15.5919982 49.552,15.944 Z M58.192,14.24 C58.1023996,14.3168004 57.9948804,14.4268795 57.8694403,14.5702397 L57.772,14.684 C57.6039992,14.884001 57.4480007,15.0439994 57.304,15.164 C57.1599993,15.2840006 57.0160007,15.344 56.872,15.344 C56.7439994,15.344 56.6280005,15.2920005 56.524,15.188 C56.4199995,15.0839995 56.368,14.9520008 56.368,14.792 C56.368,14.5039986 56.5759979,14.2080015 56.992,13.904 L58.768,12.488 C59.2320023,12.1359982 59.6119985,11.6840028 59.908,11.132 C60.2040015,10.5799972 60.352,10.008003 60.352,9.416 C60.352,8.74399664 60.1120024,8.208002 59.632,7.808 C59.1519976,7.407998 58.5200039,7.208 57.736,7.208 C56.9039958,7.208 56.2080028,7.55999648 55.648,8.264 C55.0879972,8.96800352 55.0959971,9.81599504 55.672,10.808 L54.952,11.552 C54.0239954,10.9919972 53.5240004,10.2840043 53.452,9.428 C53.3799996,8.57199572 53.743996,7.82000324 54.544,7.172 C55.344004,6.52399676 56.4079934,6.2 57.736,6.2 C58.9680062,6.2 60.0399954,6.49599704 60.952,7.088 C61.8640046,7.68000296 62.32,8.4559952 62.32,9.416 C62.32,9.76800176 62.2440008,10.1279982 62.092,10.496 C61.9399992,10.8640018 61.7560011,11.1759987 61.54,11.432 C61.3239989,11.6880013 61.1080011,11.9239989 60.892,12.14 L60.6500797,12.3742403 C60.53776,12.4788801 60.4384004,12.5647997 60.352,12.632 L60.112,12.776 L59.008,13.616 C60.1600058,13.8560012 61.0719966,14.3279965 61.744,15.032 C62.4160034,15.7360035 62.752,16.5519954 62.752,17.48 C62.752,18.5840055 62.2920046,19.5279961 61.372,20.312 C60.4519954,21.0960039 59.3200067,21.488 57.976,21.488 C56.6799935,21.488 55.6160042,21.1760031 54.784,20.552 C53.9519958,19.9279969 53.536,19.3360028 53.536,18.776 C53.536,18.4079982 53.7439979,18.224 54.16,18.224 C54.3200008,18.224 54.4599994,18.2959993 54.58,18.44 C54.6520004,18.5264004 54.72976,18.6329599 54.8132798,18.7596797 L54.988,19.04 C55.1400008,19.2960013 55.2879993,19.4959993 55.432,19.64 C56.024003,20.2640031 56.8079951,20.576 57.784,20.576 C58.7280047,20.576 59.4359976,20.2920028 59.908,19.724 C60.3800024,19.1559972 60.616,18.4080046 60.616,17.48 C60.616,16.7119962 60.420002,16.024003 60.028,15.416 C59.635998,14.807997 59.0240042,14.4160009 58.192,14.24 Z M79.888,3.104 C78.9439953,3.104 78.3320014,3.21999884 78.052,3.452 C77.795332,3.66466773 77.4882515,4.16974628 77.1307504,4.96724905 L71.752,17.408 L71.44,17.408 L66.136,5.192 C65.735998,4.26399536 65.3960014,3.68400116 65.116,3.452 C64.8359986,3.21999884 64.2240047,3.104 63.28,3.104 L63.28,2.6 L69.928,2.6 L69.928,3.104 C68.935995,3.104 68.3000014,3.2439986 68.02,3.524 C67.763332,3.78066795 67.7520263,4.19530301 67.986083,4.767916 L72.136,14.264 L76.168,4.928 C76.4720015,4.27199672 76.4840014,3.8040014 76.204,3.524 C75.9239986,3.2439986 75.288005,3.104 74.296,3.104 L74.296,2.6 L79.888,2.6 L79.888,3.104 Z" id="3.3V" fill="#524740" fill-rule="nonzero"></path>
        </g>
        <g id="Sensor-Output" transform="translate(114.304938, 89.997651)">
            <path d="M500.595062,35.2823485 C500.22706,35.58635 499.995063,35.9623463 499.899062,36.4103485 L499.419062,36.4103485 L499.419062,31.1303485 L499.923062,31.1303485 L499.928396,31.285015 L499.928396,31.285015 L499.935062,31.3823485 C499.943062,31.486349 499.975062,31.686347 500.031062,31.9823485 C500.087063,32.27835 500.167062,32.5623472 500.271062,32.8343485 C500.375063,33.1063499 500.539061,33.4103468 500.763062,33.7463485 C500.987063,34.0823502 501.247061,34.3703473 501.543062,34.6103485 C501.839064,34.8503497 502.23106,35.0503477 502.719062,35.2103485 C503.207065,35.3703493 503.747059,35.4503485 504.339062,35.4503485 C505.203067,35.4503485 505.919062,35.202351 506.487062,34.7063485 C507.055065,34.210346 507.339062,33.5783524 507.339062,32.8103485 C507.339062,31.8343436 506.419062,30.8663533 504.579062,29.9063485 L502.275062,28.7303485 C501.523058,28.3303465 500.891065,27.786352 500.379062,27.0983485 C499.86706,26.4103451 499.611062,25.6343528 499.611062,24.7703485 C499.611062,23.7623435 499.987058,22.914352 500.739062,22.2263485 C501.491066,21.5383451 502.443056,21.1943485 503.595062,21.1943485 C504.651068,21.1943485 505.627058,21.5223452 506.523062,22.1783485 C506.891064,21.874347 507.123062,21.5063507 507.219062,21.0743485 L507.699062,21.0743485 L507.699062,26.3543485 L507.195062,26.3543485 C506.955061,23.5543345 505.731073,22.1543485 503.523062,22.1543485 C502.851059,22.1543485 502.295064,22.3583465 501.855062,22.7663485 C501.41506,23.1743506 501.195062,23.6823455 501.195062,24.2903485 C501.195062,24.8823515 501.40706,25.3823465 501.831062,25.7903485 C502.255064,26.1983506 503.019057,26.6903456 504.123062,27.2663485 L506.403062,28.4423485 C508.083071,29.2903528 508.923062,30.5063406 508.923062,32.0903485 C508.923062,33.3703549 508.479067,34.4103445 507.591062,35.2103485 C506.703058,36.0103525 505.619069,36.4103485 504.339062,36.4103485 C503.79506,36.4103485 503.275065,36.3303493 502.779062,36.1703485 C502.28306,36.0103477 501.835064,35.8303495 501.435062,35.6303485 C501.03506,35.4303475 500.755063,35.3143487 500.595062,35.2823485 Z M514.515062,30.5063485 L518.499062,30.5063485 C518.659063,30.0583463 518.591064,29.6223506 518.295062,29.1983485 C517.999061,28.7743464 517.491066,28.5623485 516.771062,28.5623485 C516.25906,28.5623485 515.799064,28.7383468 515.391062,29.0903485 C514.98306,29.4423503 514.691063,29.9143456 514.515062,30.5063485 Z M514.371062,31.3943485 C514.227062,32.5783544 514.41506,33.5423448 514.935062,34.2863485 C515.455065,35.0303522 516.307056,35.4023485 517.491062,35.4023485 C517.891064,35.4023485 518.34706,35.2983496 518.859062,35.0903485 C519.371065,34.8823475 519.795061,34.6183501 520.131062,34.2983485 L520.563062,34.8263485 C520.13106,35.2903508 519.579066,35.670347 518.907062,35.9663485 C518.235059,36.26235 517.563066,36.4103485 516.891062,36.4103485 C515.595056,36.4103485 514.531066,35.9823528 513.699062,35.1263485 C512.867058,34.2703442 512.451062,33.2263547 512.451062,31.9943485 C512.451062,30.7623424 512.903058,29.7223528 513.807062,28.8743485 C514.711067,28.0263443 515.739056,27.6023485 516.891062,27.6023485 C517.979068,27.6023485 518.867059,27.9823447 519.555062,28.7423485 C520.243066,29.5023523 520.443064,30.3863435 520.155062,31.3943485 L514.371062,31.3943485 Z M527.139062,29.3303485 C528.051067,28.1783428 529.163056,27.6023485 530.475062,27.6023485 C531.515067,27.6023485 532.29506,27.9303452 532.815062,28.5863485 C533.335065,29.2423518 533.595062,30.1063432 533.595062,31.1783485 L533.595062,32.6903485 C533.595062,33.8903545 533.711061,34.6583468 533.943062,34.9943485 C534.175063,35.3303502 534.691058,35.4983485 535.491062,35.4983485 L535.491062,36.0023485 L529.995062,36.0023485 L529.995062,35.4983485 C530.779066,35.4983485 531.291061,35.3263502 531.531062,34.9823485 C531.771063,34.6383468 531.891062,33.8743544 531.891062,32.6903485 L531.891062,31.2983485 C531.891062,29.58634 531.227069,28.7303485 529.899062,28.7303485 C529.211059,28.7303485 528.579065,28.9703461 528.003062,29.4503485 C527.427059,29.9303509 527.139062,30.4903453 527.139062,31.1303485 L527.139062,32.6903485 C527.139062,33.9223547 527.235061,34.6983469 527.427062,35.0183485 C527.619063,35.3383501 528.083059,35.4983485 528.819062,35.4983485 L528.819062,36.0023485 L523.539062,36.0023485 L523.539062,35.4983485 C524.339066,35.4983485 524.855061,35.3303502 525.087062,34.9943485 C525.319063,34.6583468 525.435062,33.8903545 525.435062,32.6903485 L525.435062,31.4903485 C525.435062,30.3063426 525.319063,29.5463502 525.087062,29.2103485 C524.855061,28.8743468 524.339066,28.7063485 523.539062,28.7063485 L523.539062,28.2023485 L526.731062,27.6023485 C526.875063,27.90635 527.011062,28.4823443 527.139062,29.3303485 Z M544.227062,33.7943485 C544.227062,34.5623524 543.951065,35.1903461 543.399062,35.6783485 C542.847059,36.166351 542.171066,36.4103485 541.371062,36.4103485 C541.083061,36.4103485 540.787064,36.3543491 540.483062,36.2423485 C540.239861,36.1527481 540.035062,36.0657087 539.868662,35.9812287 L539.751062,35.9183485 C539.567061,35.814348 539.395063,35.7343488 539.235062,35.6783485 C539.075061,35.6223482 538.963063,35.650348 538.899062,35.7623485 C538.835062,35.8743491 538.803062,36.0903469 538.803062,36.4103485 L538.299062,36.4103485 L538.299062,32.9063485 L538.803062,32.9063485 C538.803062,33.5303516 539.04306,34.1343456 539.523062,34.7183485 C540.003065,35.3023514 540.635058,35.5943485 541.419062,35.5943485 C541.803064,35.5943485 542.127061,35.4743497 542.391062,35.2343485 C542.655064,34.9943473 542.787062,34.7063502 542.787062,34.3703485 C542.787062,33.874346 542.339067,33.3863509 541.443062,32.9063485 L540.099062,32.1863485 C539.043057,31.6103456 538.515062,30.8103536 538.515062,29.7863485 C538.515062,29.1623454 538.75906,28.6423506 539.247062,28.2263485 C539.735065,27.8103464 540.299062,27.6023485 540.939062,27.6023485 C541.483065,27.6023485 542.043059,27.7463471 542.619062,28.0343485 C542.811063,28.1463491 542.943062,28.1823487 543.015062,28.1423485 C543.087063,28.1023485 543.123062,27.9223501 543.123062,27.6023485 L543.627062,27.6023485 L543.627062,30.3863485 L543.123062,30.3863485 C543.123062,29.8583459 542.943064,29.3903506 542.583062,28.9823485 C542.22306,28.5743465 541.755065,28.3703485 541.179062,28.3703485 C540.77906,28.3703485 540.475063,28.4663476 540.267062,28.6583485 C540.059061,28.8503495 539.955062,29.098347 539.955062,29.4023485 C539.955062,29.6743499 540.059061,29.9103475 540.267062,30.1103485 C540.475063,30.3103495 540.859059,30.562347 541.419062,30.8663485 L542.571062,31.4903485 C543.675068,32.1143516 544.227062,32.882344 544.227062,33.7943485 Z M555.915062,28.8983485 C556.875067,29.7463528 557.355062,30.7783424 557.355062,31.9943485 C557.355062,33.2103546 556.879067,34.2503442 555.927062,35.1143485 C554.975057,35.9783528 553.835069,36.4103485 552.507062,36.4103485 C551.179056,36.4103485 550.039067,35.9783528 549.087062,35.1143485 C548.135057,34.2503442 547.659062,33.2103546 547.659062,31.9943485 C547.659062,30.7783424 548.135057,29.7423528 549.087062,28.8863485 C550.039067,28.0303442 551.179056,27.6023485 552.507062,27.6023485 C553.835069,27.6023485 554.971058,28.0343442 555.915062,28.8983485 Z M554.667062,34.5143485 C555.163065,33.8583452 555.411062,33.0183536 555.411062,31.9943485 C555.411062,30.9703434 555.163065,30.1343518 554.667062,29.4863485 C554.17106,28.8383453 553.451067,28.5143485 552.507062,28.5143485 C551.563058,28.5143485 550.843065,28.8423452 550.347062,29.4983485 C549.85106,30.1543518 549.603062,30.9863435 549.603062,31.9943485 C549.603062,33.0023536 549.85106,33.8343452 550.347062,34.4903485 C550.843065,35.1463518 551.563058,35.4743485 552.507062,35.4743485 C553.451067,35.4743485 554.17106,35.1543517 554.667062,34.5143485 Z M568.635062,29.0903485 C568.635062,29.8423523 568.315065,30.2183485 567.675062,30.2183485 C567.451061,30.2183485 567.255063,30.1303494 567.087062,29.9543485 C566.919061,29.7783476 566.835062,29.5783496 566.835062,29.3543485 C566.835062,28.8263459 566.579065,28.5623485 566.067062,28.5623485 C565.69906,28.5623485 565.299064,28.818346 564.867062,29.3303485 C564.43506,29.8423511 564.219062,30.5223443 564.219062,31.3703485 L564.219062,32.6903485 C564.219062,33.8903545 564.335061,34.6583468 564.567062,34.9943485 C564.799063,35.3303502 565.315058,35.4983485 566.115062,35.4983485 L566.115062,36.0023485 L560.619062,36.0023485 L560.619062,35.4983485 C561.419066,35.4983485 561.935061,35.3303502 562.167062,34.9943485 C562.399063,34.6583468 562.515062,33.8903545 562.515062,32.6903485 L562.515062,31.4903485 C562.515062,30.3063426 562.399063,29.5463502 562.167062,29.2103485 C561.935061,28.8743468 561.419066,28.7063485 560.619062,28.7063485 L560.619062,28.2023485 L563.811062,27.6023485 C563.955063,27.90635 564.091062,28.4823443 564.219062,29.3303485 C564.459063,28.8503461 564.81906,28.4423502 565.299062,28.1063485 C565.779065,27.7703468 566.25906,27.6023485 566.739062,27.6023485 C567.347065,27.6023485 567.815061,27.7623469 568.143062,28.0823485 C568.471064,28.4023501 568.635062,28.7383468 568.635062,29.0903485 Z M592.083062,23.4263485 C593.65107,24.914356 594.435062,26.706338 594.435062,28.8023485 C594.435062,30.898359 593.65107,32.6903411 592.083062,34.1783485 C590.515054,35.666356 588.635073,36.4103485 586.443062,36.4103485 C584.235051,36.4103485 582.34707,35.666356 580.779062,34.1783485 C579.211054,32.6903411 578.427062,30.898359 578.427062,28.8023485 C578.427062,26.706338 579.211054,24.914356 580.779062,23.4263485 C582.34707,21.9383411 584.235051,21.1943485 586.443062,21.1943485 C588.635073,21.1943485 590.515054,21.9383411 592.083062,23.4263485 Z M589.059062,22.7543485 C588.307058,22.3383464 587.435067,22.1303485 586.443062,22.1303485 C585.451057,22.1303485 584.571066,22.3343465 583.803062,22.7423485 C583.035058,23.1503506 582.435064,23.6903452 582.003062,24.3623485 C581.57106,25.0343519 581.247063,25.7463448 581.031062,26.4983485 C580.815061,27.2503523 580.707062,28.0183446 580.707062,28.8023485 C580.707062,29.5863524 580.815061,30.3543448 581.031062,31.1063485 C581.247063,31.8583523 581.57106,32.5663452 582.003062,33.2303485 C582.435064,33.8943518 583.035058,34.4303465 583.803062,34.8383485 C584.571066,35.2463506 585.451057,35.4503485 586.443062,35.4503485 C587.435067,35.4503485 588.311058,35.2463506 589.071062,34.8383485 C589.831066,34.4303465 590.42706,33.8943518 590.859062,33.2303485 C591.291064,32.5663452 591.615061,31.8583523 591.831062,31.1063485 C592.047063,30.3543448 592.155062,29.5863524 592.155062,28.8023485 C592.155062,28.0183446 592.047063,27.2503523 591.831062,26.4983485 C591.615061,25.7463448 591.291064,25.0343519 590.859062,24.3623485 C590.42706,23.6903452 589.827066,23.1543505 589.059062,22.7543485 Z M609.003062,35.8103485 L605.787062,36.4103485 C605.659062,36.1543472 605.531063,35.6423524 605.403062,34.8743485 C604.411057,35.8983536 603.363068,36.4103485 602.259062,36.4103485 C600.275052,36.4103485 599.283062,35.2103605 599.283062,32.8103485 L599.283062,31.2983485 C599.283062,30.0983425 599.167063,29.3303502 598.935062,28.9943485 C598.703061,28.6583468 598.187066,28.4903485 597.387062,28.4903485 L597.387062,28.0103485 L600.987062,28.0103485 L600.987062,32.6903485 C600.987062,34.4023571 601.595056,35.2583485 602.811062,35.2583485 C603.355065,35.2583485 603.923059,35.0303508 604.515062,34.5743485 C605.107065,34.1183462 605.403062,33.5543519 605.403062,32.8823485 L605.403062,31.2983485 C605.403062,30.0983425 605.287063,29.3303502 605.055062,28.9943485 C604.823061,28.6583468 604.299066,28.4903485 603.483062,28.4903485 L603.483062,28.0103485 L607.083062,28.0103485 L607.083062,32.4983485 C607.083062,33.6983545 607.199061,34.4663468 607.431062,34.8023485 C607.663063,35.1383502 608.187058,35.3063485 609.003062,35.3063485 L609.003062,35.8103485 Z M612.579062,28.8503485 L611.331062,28.8503485 L611.331062,28.2743485 C612.019066,28.1303478 612.523061,27.8183509 612.843062,27.3383485 C613.163064,26.8583461 613.371062,26.2023527 613.467062,25.3703485 L614.283062,25.3703485 L614.283062,28.0103485 L616.371062,28.0103485 L616.371062,28.8503485 L614.283062,28.8503485 L614.283062,33.6503485 C614.283062,34.8023543 614.643059,35.3783485 615.363062,35.3783485 C615.827065,35.3783485 616.347059,35.1063512 616.923062,34.5623485 L617.331062,34.9703485 C616.995061,35.3703485 616.591065,35.6983472 616.119062,35.9543485 C615.64706,36.2103498 615.211064,36.3383485 614.811062,36.3383485 C614.123059,36.3383485 613.579064,36.1143508 613.179062,35.6663485 C612.77906,35.2183463 612.579062,34.546353 612.579062,33.6503485 L612.579062,28.8503485 Z M627.459062,34.4903485 C627.923065,33.8343452 628.155062,33.0023536 628.155062,31.9943485 C628.155062,30.9863435 627.923065,30.1623517 627.459062,29.5223485 C626.995062,28.8823453 626.323067,28.5623485 625.443062,28.5623485 C624.89906,28.5623485 624.415064,28.7303468 623.991062,29.0663485 C623.56706,29.4023502 623.235063,29.8583456 622.995062,30.4343485 L622.995062,33.5303485 C623.235063,34.1223515 623.56706,34.5903468 623.991062,34.9343485 C624.415064,35.2783502 624.89906,35.4503485 625.443062,35.4503485 C626.323067,35.4503485 626.995062,35.1303517 627.459062,34.4903485 Z M622.995062,34.9703485 L622.995062,38.7143485 C622.995062,39.8983544 623.111061,40.6583468 623.343062,40.9943485 C623.575063,41.3303502 624.091058,41.4983485 624.891062,41.4983485 L624.891062,42.0023485 L619.395062,42.0023485 L619.395062,41.4983485 C620.195066,41.4983485 620.711061,41.3343502 620.943062,41.0063485 C621.175063,40.6783469 621.291062,39.9143545 621.291062,38.7143485 L621.291062,31.4903485 C621.291062,30.2903425 621.175063,29.5263502 620.943062,29.1983485 C620.711061,28.8703469 620.195066,28.7063485 619.395062,28.7063485 L619.395062,28.2023485 L622.611062,27.6023485 C622.707063,27.7783494 622.827062,28.2663445 622.971062,29.0663485 C623.787066,28.0903436 624.779056,27.6023485 625.947062,27.6023485 C627.083068,27.6023485 628.059058,28.0303442 628.875062,28.8863485 C629.691066,29.7423528 630.099062,30.7783424 630.099062,31.9943485 C630.099062,33.2103546 629.691066,34.2503442 628.875062,35.1143485 C628.059058,35.9783528 627.083068,36.4103485 625.947062,36.4103485 C624.763056,36.4103485 623.779066,35.9303533 622.995062,34.9703485 Z M644.523062,35.8103485 L641.307062,36.4103485 C641.179062,36.1543472 641.051063,35.6423524 640.923062,34.8743485 C639.931057,35.8983536 638.883068,36.4103485 637.779062,36.4103485 C635.795052,36.4103485 634.803062,35.2103605 634.803062,32.8103485 L634.803062,31.2983485 C634.803062,30.0983425 634.687063,29.3303502 634.455062,28.9943485 C634.223061,28.6583468 633.707066,28.4903485 632.907062,28.4903485 L632.907062,28.0103485 L636.507062,28.0103485 L636.507062,32.6903485 C636.507062,34.4023571 637.115056,35.2583485 638.331062,35.2583485 C638.875065,35.2583485 639.443059,35.0303508 640.035062,34.5743485 C640.627065,34.1183462 640.923062,33.5543519 640.923062,32.8823485 L640.923062,31.2983485 C640.923062,30.0983425 640.807063,29.3303502 640.575062,28.9943485 C640.343061,28.6583468 639.819066,28.4903485 639.003062,28.4903485 L639.003062,28.0103485 L642.603062,28.0103485 L642.603062,32.4983485 C642.603062,33.6983545 642.719061,34.4663468 642.951062,34.8023485 C643.183063,35.1383502 643.707058,35.3063485 644.523062,35.3063485 L644.523062,35.8103485 Z M648.099062,28.8503485 L646.851062,28.8503485 L646.851062,28.2743485 C647.539066,28.1303478 648.043061,27.8183509 648.363062,27.3383485 C648.683064,26.8583461 648.891062,26.2023527 648.987062,25.3703485 L649.803062,25.3703485 L649.803062,28.0103485 L651.891062,28.0103485 L651.891062,28.8503485 L649.803062,28.8503485 L649.803062,33.6503485 C649.803062,34.8023543 650.163059,35.3783485 650.883062,35.3783485 C651.347065,35.3783485 651.867059,35.1063512 652.443062,34.5623485 L652.851062,34.9703485 C652.515061,35.3703485 652.111065,35.6983472 651.639062,35.9543485 C651.16706,36.2103498 650.731064,36.3383485 650.331062,36.3383485 C649.643059,36.3383485 649.099064,36.1143508 648.699062,35.6663485 C648.29906,35.2183463 648.099062,34.546353 648.099062,33.6503485 L648.099062,28.8503485 Z" id="SensorOutput" fill="#B35E2C" fill-rule="nonzero"></path>
            <path d="M0,18.8424404 C7.66203172,16.5705951 16.6365354,5.43561354 25.6950622,4.00234852 C28.8086066,3.50971497 30.5215425,16.0700834 33.6950622,16.0023485 C35.0484289,15.9734626 52.3225875,0.0926423552 53.6950622,0.00234851609 C56.7496051,-0.198607031 60.3788788,12.5573132 63.6950622,15.0023485 C67.3748177,17.715447 70.6831447,10.1938179 72.6950622,11.0023485 C76.4646628,12.5172404 79.2203607,2.98253396 81.6950622,2.00234852 C83.5919715,1.25101637 84.9107489,9.10753588 88.8863323,9.21150164 C89.5562679,9.22902117 92.9435843,0.953631722 93.6950622,1.00234852 C96.0925444,1.15777243 102.593155,9.45426807 105.695062,10.0023485 C109.513821,10.6770905 121.115846,6.0398119 125.695062,7.00234852 C130.575533,8.02820768 137.45086,21.5753935 142.695062,23.0023485 C145.241399,23.6952103 153.11612,17.3797819 155.695062,18.0023485 C160.954988,19.272115 165.675646,4.66120593 170.695062,6.00234852 C173.518004,6.75661294 177.950709,16.8712539 180.695062,18.0023485 C183.306656,19.0787261 193.210299,14.9404512 195.695062,16.0023485 C201.786691,18.6056883 206.513447,28.9743624 210.695062,32.0023485 C214.534709,34.7827085 218.388082,27.7489195 221.695062,28.0023485 C225.056832,28.2599763 227.871424,35.7832338 231.695062,36.0023485 C234.396655,36.1571641 240.676349,30.0905513 244.695062,30.0023485 C249.166673,29.9042056 254.878652,36.1540666 260.695062,36.0023485 C262.85282,35.9460645 267.373779,17.0937537 269.695062,17.0023485 C271.799927,16.9194653 274.474111,27.0224167 276.695062,27.0023485 C279.397761,26.9779273 284.834658,23.0172405 287.695062,23.0023485 C289.519482,22.9928501 297.819514,39.9933428 299.695062,40.0023485 C304.498247,40.0254117 310.731009,22.2654194 315.695062,22.0023485 C320.245009,21.7612233 324.038896,27.9688113 328.695062,28.0023485 C330.205713,28.0132294 335.16929,17.9892349 336.695062,18.0023485 C339.641969,18.0276764 344.74012,29.82209 347.695062,30.0023485 C351.946179,30.2616768 358.471959,18.8795012 362.695062,19.0023485 C368.20138,19.1625237 373.289179,32.1446932 378.695062,33.0023485 C383.860329,33.8218295 388.399432,27.0562535 393.695062,27.0023485 C397.345529,26.9651899 406.859696,41.6152432 410.695062,42.0023485 C416.828183,42.6213672 423.48202,31.5894677 428.695062,29.0023485 C433.83616,26.4509341 437.528352,32.3433407 444.695062,33.0023485 C446.570534,33.1748057 449.841706,25.7808575 451.695062,26.0023485 C457.519733,26.6984435 464.108836,39.8009053 469.695062,41.0023485 C473.155266,41.746543 481.332852,33.1385666 484.695062,34.0023485 C488.316562,34.9327441 493.214008,46.9023407 496.695062,48.0023485 C501.160976,49.4135703 508.472136,39.4568811 512.695062,41.0023485 C518.802701,43.2375656 525.152657,55.3290699 530.695062,58.0023485 C534.679875,59.9243505 542.999662,51.0634475 546.695062,53.0023485 C552.787326,56.1988352 558.545727,72.4185852 563.695062,76.0023485 C567.696985,78.7875513 575.205178,75.6363039 578.695062,78.0023485 C580.765198,79.4058429 582.86082,87.6343645 584.695062,89.0023485 C586.905587,90.650965 592.786281,83.6678424 594.695062,85.0023485 C598.636215,87.757767 601.266779,97.1274943 603.695062,100.002349 C606.050952,102.791496 612.749285,91.5027617 614.695062,92.0023485 C616.787217,92.5395186 621.125754,104.76273 623.695062,105.002349 C626.512783,105.265135 629.882371,99.0014367 632.695062,99.0023485 C638.534966,99.0042417 647.020309,103.705712 652.695062,103.002349 C655.277592,102.682254 659.207978,94.5292452 661.695062,94.0023485 C667.841246,92.7002598 672.325711,82.6630973 677.695062,81.0023485 C682.123809,79.6325301 684.681809,87.8185891 688.695062,87.0023485 C693.08399,86.109701 696.625555,77.7315188 700.695062,75.0023485 C707.180995,70.6526285 713.747087,71.0064218 717.695062,66.0023485" stroke="#EF7D3B" stroke-width="3"></path>
        </g>
    </g>
</svg>