<?xml version="1.0"?>
<!DOCTYPE svg PUBLIC "-//W3C//DTD SVG 1.1//EN" "http://www.w3.org/Graphics/SVG/1.1/DTD/svg11.dtd">
<svg viewBox="88 46 432 306" preserveAspectRatio="xMinYMin meet" version="1.1" xmlns="http://www.w3.org/2000/svg">
<g class="Port">
<polygon fill="#FFFFFF" stroke="none" points="192,96 184,106 128,106 128,86 184,86 " />
<polygon stroke="#000000" stroke-width="1" fill="none" points="192,96 184,106 128,106 128,86 184,86 " />
<text x="155" y="101" font-family="sans-serif">4</text>
<text x="50" y="101" font-family="sans-serif">Input A</text>
</g>
<g class="Port">
<polygon fill="#FFFFFF" stroke="none" points="192,160 184,170 128,170 128,150 184,150 " />
<polygon stroke="#000000" stroke-width="1" fill="none" points="192,160 184,170 128,170 128,150 184,150 " />
<text x="155" y="165" font-family="sans-serif">5</text>
<text x="50" y="165" font-family="sans-serif">Input B</text>
</g>
<g class="Wire">
<line x1="192" y1="160" x2="224" y2="160" stroke="#07F707" stroke-width="1.5" stroke-linecap="round" fill="none" />
</g>
<g class="Port">
<polygon fill="#FFFFFF" stroke="none" points="384,128 392,118 448,118 448,138 392,138 " />
<polygon stroke="#000000" stroke-width="1" fill="none" points="384,128 392,118 448,118 448,138 392,138 " />
<text x="411" y="133" font-family="sans-serif">6</text>
<text x="456" y="133" font-family="sans-serif">Out</text>
</g>
<g class="Wire">
<line x1="288" y1="128" x2="288" y2="160" stroke="#07F707" stroke-width="1.5" stroke-linecap="round" fill="none" />
<ellipse cx="288" cy="128" rx="4" ry="4" fill="#07F707" stroke="none" />
<ellipse cx="288" cy="160" rx="4" ry="4" fill="#07F707" stroke="none" />
</g>
<g class="Wire">
<line x1="288" y1="128" x2="384" y2="128" stroke="#07F707" stroke-width="1.5" stroke-linecap="round" fill="none" />
<ellipse cx="288" cy="128" rx="4" ry="4" fill="#07F707" stroke="none" />
</g>
<g class="AND Gate">
<rect x="376" y="216" width="96" height="26" fill="#FFFFFF" stroke="none" />
<rect x="376" y="216" width="96" height="26" rx="5" ry="5" stroke="#000000" stroke-width="2" fill="none" />
<text x="384" y="234" font-family="sans-serif">AND Gate</text>
</g>
<g class="DC Source">
<line x1="288" y1="320" x2="288" y2="292" stroke="#877777" stroke-width="3" stroke-linecap="round" fill="none" />
<line x1="288" y1="284" x2="288" y2="256" stroke="#07F707" stroke-width="3" stroke-linecap="round" fill="none" />
<line x1="278" y1="292" x2="298" y2="292" stroke="#877777" stroke-width="3" stroke-linecap="round" fill="none" />
<line x1="272" y1="284" x2="304" y2="284" stroke="#07F707" stroke-width="3" stroke-linecap="round" fill="none" />
<text x="312" y="293" font-family="sans-serif">5V</text>
<ellipse cx="288" cy="320" rx="4" ry="4" stroke="#877777" stroke-width="1" fill="none" />
</g>
<g class="Wire">
<line x1="288" y1="160" x2="288" y2="192" stroke="#07F707" stroke-width="1.5" stroke-linecap="round" fill="none" />
<ellipse cx="288" cy="160" rx="4" ry="4" fill="#07F707" stroke="none" />
</g>
<g class="Resistor">
<line x1="288" y1="192" x2="288" y2="208" stroke="#07F707" stroke-width="3" stroke-linecap="round" fill="none" />
<line x1="288" y1="240" x2="288" y2="256" stroke="#07F707" stroke-width="3" stroke-linecap="round" fill="none" />
<polyline stroke="#07F707" stroke-linecap="round" stroke-linejoin="round" stroke-width="3" fill="none" points="288,208 296,210.6667 288,213.3333 280,216 288,218.6667 " />
<polyline stroke="#07F707" stroke-linecap="round" stroke-linejoin="round" stroke-width="3" fill="none" points="288,218.6667 296,221.3333 288,224 280,226.6667 288,229.3333 " />
<polyline stroke="#07F707" stroke-linecap="round" stroke-linejoin="round" stroke-width="3" fill="none" points="288,229.3333 296,232 288,234.6667 280,237.3333 288,240 " />
<text x="303" y="229" font-family="sans-serif">10k</text>
</g>
<g class="Wire">
<line x1="288" y1="128" x2="288" y2="96" stroke="#07F707" stroke-width="1.5" stroke-linecap="round" fill="none" />
<ellipse cx="288" cy="128" rx="4" ry="4" fill="#07F707" stroke="none" />
</g>
<g class="Diode">
<line x1="288" y1="96" x2="265" y2="96" stroke="#07F707" stroke-width="3" stroke-linecap="round" fill="none" />
<line x1="246" y1="96" x2="224" y2="96" stroke="#07F707" stroke-width="3" stroke-linecap="round" fill="none" />
<polygon fill="#07F707" stroke="none" points="265,109 265,83 246,96 " />
<polygon stroke="#07F707" stroke-width="2" fill="none" points="265,109 265,83 246,96 " />
<line x1="246" y1="109" x2="246" y2="83" stroke="#07F707" stroke-width="3" stroke-linecap="round" fill="none" />
</g>
<g class="Wire">
<line x1="192" y1="96" x2="224" y2="96" stroke="#07F707" stroke-width="1.5" stroke-linecap="round" fill="none" />
</g>
<g class="Diode">
<line x1="288" y1="160" x2="265" y2="160" stroke="#07F707" stroke-width="3" stroke-linecap="round" fill="none" />
<line x1="246" y1="160" x2="224" y2="160" stroke="#07F707" stroke-width="3" stroke-linecap="round" fill="none" />
<polygon fill="#07F707" stroke="none" points="265,173 265,147 246,160 " />
<polygon stroke="#07F707" stroke-width="2" fill="none" points="265,173 265,147 246,160 " />
<line x1="246" y1="173" x2="246" y2="147" stroke="#07F707" stroke-width="3" stroke-linecap="round" fill="none" />
<ellipse cx="288" cy="160" rx="4" ry="4" fill="#07F707" stroke="none" />
</g>
</svg>
