<svg width="28" height="28" viewBox="0 0 28 28" fill="none" xmlns="http://www.w3.org/2000/svg">
<path d="M16.1672 17.7989C15.8883 17.5255 15.8883 17.0716 16.1617 16.7927L19.4812 13.4622L6.83203 13.4622C6.44375 13.4622 6.12656 13.145 6.12656 12.7513C6.12656 12.3575 6.44375 12.0403 6.83203 12.0403L19.4812 12.0403L16.1562 8.70988C15.8828 8.43097 15.8883 7.98254 16.1617 7.70363C16.4406 7.43019 16.8836 7.43019 17.1625 7.7091L21.6687 12.2482C21.7289 12.3138 21.7781 12.3849 21.8164 12.4724C21.8547 12.5599 21.8711 12.6528 21.8711 12.7458C21.8711 12.9318 21.8 13.1068 21.6687 13.2435L17.1625 17.7825C16.8945 18.0669 16.4461 18.0724 16.1672 17.7989Z" fill="#EA7F04"/>
</svg>
