<svg width="28" height="28" viewBox="0 0 28 28" fill="none" xmlns="http://www.w3.org/2000/svg">
<path d="M11.8328 10.2011C12.1117 10.4745 12.1117 10.9284 11.8383 11.2073L8.51875 14.5378H21.168C21.5563 14.5378 21.8734 14.855 21.8734 15.2487C21.8734 15.6425 21.5563 15.9597 21.168 15.9597H8.51875L11.8438 19.2901C12.1172 19.569 12.1117 20.0175 11.8383 20.2964C11.5594 20.5698 11.1164 20.5698 10.8375 20.2909L6.33125 15.7518C6.27109 15.6862 6.22188 15.6151 6.18359 15.5276C6.14531 15.4401 6.12891 15.3472 6.12891 15.2542C6.12891 15.0682 6.2 14.8932 6.33125 14.7565L10.8375 10.2175C11.1055 9.93309 11.5539 9.92762 11.8328 10.2011Z" fill="white"/>
</svg>
