<?xml version="1.0" encoding="UTF-8"?>
<svg width="228px" height="233px" viewBox="0 0 228 233" version="1.1" xmlns="http://www.w3.org/2000/svg" xmlns:xlink="http://www.w3.org/1999/xlink">
    <!-- Generator: Sketch 63.1 (92452) - https://sketch.com -->
    <title>ML.NET</title>
    <desc>Created with Sketch.</desc>
    <g id="Page-1" stroke="none" stroke-width="1" fill="none" fill-rule="evenodd">
        <g id="Artboard" transform="translate(-312.000000, -1071.000000)" fill="#4B4B4B" fill-rule="nonzero">
            <g id="ML.net" transform="translate(312.000000, 1071.000000)">
                <path d="M103.421381,136.425523 C103.477962,134.46378 101.80457,132.526086 99.953924,132.409937 C98.09076,132.293276 96.315222,134.083609 96.27216,136.121591 C96.228598,138.167759 97.856425,139.898738 99.850276,139.92688 C101.79756,139.953998 103.3643,138.417965 103.421381,136.425523 L103.421381,136.425523 Z M90.344185,139.23766 C91.372155,134.150638 91.216933,133.945459 86.639389,133.943924 C82.8049069,133.941877 78.9689228,133.872801 75.1364437,133.971554 C73.3909483,134.016581 72.7730649,133.37597 72.8211336,131.610709 C72.9112625,128.291506 72.8441666,124.966675 72.8431651,121.644402 C72.8411623,112.870799 72.7775714,104.09566 72.8792167,95.323079 C72.9062553,92.99754 71.6905173,92.941768 70.0391564,92.96684 C68.4498843,92.9914 67.1695539,92.877297 67.1857641,95.280611 C67.2812135,109.165285 67.2581806,123.050471 67.2015997,136.935658 C67.1945897,138.712687 67.7348621,139.327203 69.484864,139.269384 C72.8987446,139.155793 76.3196353,139.237149 79.7370209,139.23766 C83.2971106,139.238172 86.8567,139.23766 90.344185,139.23766 L90.344185,139.23766 Z M195.988219,138.944985 C201.405464,140.122338 201.721415,139.877248 201.721415,134.843439 C201.721916,123.509951 201.763976,112.175439 201.683361,100.842974 C201.66884,98.834158 202.237653,98.134194 204.234007,98.248808 C207.060548,98.410496 209.905616,98.204804 212.736663,98.315837 C214.584305,98.387982 214.771572,97.338547 214.714491,95.901774 C214.657409,94.475242 215.0004,92.899299 212.735662,92.908509 C203.479429,92.947908 194.222194,92.955583 184.966462,92.9016912 C182.660665,92.888554 183.105301,94.460916 183.005158,95.867496 C182.888992,97.505352 183.269536,98.413566 185.159237,98.321465 C187.904662,98.188431 190.669615,98.424311 193.410033,98.246761 C195.574127,98.106052 196.053813,98.972309 196.029778,101.029222 C195.929635,109.4641 195.988219,117.901025 195.988219,126.337439 L195.988219,138.944985 Z M179.1176,139.36609 C179.235268,138.550488 179.332407,138.141152 179.346928,137.728234 C179.482622,133.883035 179.478115,133.879453 175.793848,133.875872 C171.708007,133.871266 167.621164,133.803726 163.538828,133.905037 C161.754277,133.949552 160.958138,133.455279 161.025735,131.481768 C161.145907,127.993203 161.158425,124.492869 161.02223,121.004815 C160.940613,118.902875 161.822875,118.378414 163.684035,118.422417 C167.433896,118.511448 171.188764,118.371762 174.938625,118.465397 C176.930473,118.515541 177.262948,117.505505 177.235409,115.777084 C177.209372,114.140252 177.102719,112.978249 175.013232,113.034021 C171.097634,113.138914 167.176528,113.012531 163.258427,113.064722 C161.667152,113.0857 161.007208,112.470673 161.042759,110.813886 C161.111357,107.578597 161.185463,104.332563 161.014719,101.104438 C160.894047,98.823413 161.682173,98.171034 163.866296,98.24318 C168.600564,98.400262 173.343845,98.291788 178.013521,98.291788 C179.256298,93.530188 178.828186,92.921813 174.470957,92.920789 C168.884971,92.920278 163.297983,92.989353 157.7135,92.886507 C155.737675,92.850179 155.103769,93.578285 155.11178,95.552308 C155.166358,109.268643 155.179877,122.985489 155.098999,136.701824 C155.086744,138.92196 155.958991,139.428002 157.914787,139.395255 C163.332533,139.304177 168.752782,139.365066 174.171529,139.36609 L179.1176,139.36609 Z M147.635592,139.297526 C147.700685,138.133477 147.771286,137.460119 147.771787,136.786762 C147.777795,123.058658 147.71821,109.330043 147.830401,95.602451 C147.849898,93.107549 146.751828,92.898276 144.810553,92.870134 C142.777146,92.840457 141.827288,93.247235 141.854827,95.663852 C141.979005,106.49181 141.913912,117.321815 141.909405,128.150797 C141.908905,128.748939 141.832295,129.34657 141.756687,130.453823 C134.412688,118.712534 127.277487,107.503381 120.388638,96.137658 C118.848937,93.597217 117.155516,92.673141 114.353009,92.870646 C111.110374,93.099362 111.078328,92.934093 111.083657,96.373538 C111.106368,109.674908 111.139415,122.976279 111.182477,136.27765 C111.18498,137.183306 111.304151,138.088961 111.372749,139.049366 L116.784486,139.049366 L116.784486,101.141278 C117.303227,101.889851 117.504014,102.157966 117.682269,102.440919 C124.959673,113.968842 132.218551,125.509557 139.542021,137.007291 C140.124854,137.922157 141.063196,139.009967 141.994527,139.196727 C143.743528,139.547221 145.607693,139.297526 147.635592,139.297526 L147.635592,139.297526 Z M53.9376369,102.892724 C53.9376369,114.214444 53.9556627,125.717295 53.9166069,137.220146 C53.911099,138.808369 54.5495117,139.365578 56.0156077,139.236125 C57.1377119,139.137373 58.2658247,139.112813 59.5942238,139.044761 C59.5942238,136.637354 59.5932224,134.519041 59.5942238,132.401239 C59.5987303,120.125255 59.6182582,107.84927 59.5746959,95.573286 C59.5716916,94.755637 59.3248387,93.497441 58.7890728,93.198626 C56.2985121,91.811489 52.5957185,93.324497 51.440567,95.96062 C46.5120209,107.208148 41.5724591,118.451582 36.5793207,129.828051 C31.8770982,118.918225 27.1924007,108.118409 22.569792,97.290962 C20.349618,92.091372 21.3009781,93.174066 16.0609867,92.96684 C14.1863066,92.892647 13.3866634,93.423249 13.3986806,95.531841 C13.4757908,109.256874 13.4853044,122.982931 13.3928293,136.707453 C13.3776505,139.049878 14.4036173,139.292921 16.270286,139.281454 C18.1094153,139.268872 19.1544092,139.098998 19.1238656,136.717174 C18.9906752,126.318507 19.0507611,115.91677 19.040246,105.516567 C19.0397453,104.726037 19.040246,103.934996 19.040246,102.412778 C24.2371758,114.311661 29.1101424,125.500347 34.0226656,136.671124 C34.5298907,137.823405 34.7527093,139.70942 36.5743135,139.132768 C37.5421973,138.826278 38.5381211,137.762004 39.0007825,136.782668 C41.0306846,132.489758 42.8693131,128.101165 44.7800448,123.748901 C47.8689609,116.710881 50.9603805,109.673373 53.9376369,102.892724 L53.9376369,102.892724 Z M114.131192,0 C177.231403,0.2143897 228.413576,52.2660571 227.997481,117.333072 C227.5914,180.889125 177.477756,232.837947 113.976972,233.000363 C51.2022263,233.159788 -0.0415342,180.605149 -2.52304822e-05,116.406949 C0.0415847,52.2051684 51.2272621,0 114.131192,0 L114.131192,0 Z" id="ML.NET"></path>
            </g>
        </g>
    </g>
</svg>