<?xml version="1.0" encoding="UTF-8"?>
<svg width="222px" height="174px" viewBox="0 0 222 174" version="1.1" xmlns="http://www.w3.org/2000/svg" xmlns:xlink="http://www.w3.org/1999/xlink">
    <!-- Generator: Sketch 63.1 (92452) - https://sketch.com -->
    <title>googledev</title>
    <desc>Created with Sketch.</desc>
    <g id="Page-1" stroke="none" stroke-width="1" fill="none" fill-rule="evenodd">
        <g id="Artboard" transform="translate(-307.000000, -1921.000000)" fill="#4B4B4B" fill-rule="nonzero">
            <g id="googledev" transform="translate(307.000000, 1921.000000)">
                <g transform="translate(-0.000000, -0.000133)">
                    <path d="M76.7142251,0.0130087231 C83.0822452,0.0120651231 89.4502653,-5.68434189e-14 95.818285,0.0153678231 C100.644574,0.0257479231 102.347748,2.94868112 99.868516,7.15213752 C94.841604,15.6737027 89.7150881,24.1367622 84.6504114,32.6366237 C75.4443975,48.0859417 66.2383835,63.5357316 57.0644693,79.0039226 C53.7648058,84.5671676 53.8327817,90.3285786 57.0720222,95.7686786 C70.9353294,119.049759 84.9482781,142.242609 98.90694,165.467543 C99.068855,165.736953 99.235491,166.003532 99.392213,166.276245 C100.459057,168.139939 101.611343,170.047985 100.313664,172.213173 C99.101427,174.234455 96.970571,173.98958 95.020041,173.991939 C82.7555832,174.004678 70.4911258,173.996186 58.2266684,173.993355 C52.4444684,173.991939 47.992991,171.327092 45.1011829,166.551317 C31.9620078,144.849422 18.980027,123.05222 5.94281581,101.288989 C4.81224441,99.4021746 3.69961111,97.5045096 2.55912651,95.6243006 C-0.961930671,89.8190116 -0.789158591,84.1392256 2.70499151,78.3075146 C16.106157,55.9412952 29.4417069,33.5354433 42.7196661,11.0951484 C45.2900049,6.75156122 47.992519,2.70758042 53.026512,0.911828423 C54.5186774,0.379142123 56.0028179,-0.00822317694 57.6096927,-5.68434189e-14 C63.9777128,0.0337689231 70.346205,0.0139524231 76.7142251,0.0130087231" id="Fill-4"></path>
                    <path d="M144.66769,0.0175945231 C150.758923,0.0204264231 156.850632,0.0185385231 162.941866,0.0208984231 C168.820355,0.0227864231 173.439948,2.61779822 176.397951,7.47837142 C190.96667,31.4135558 205.429492,55.4124592 219.799238,79.4661136 C222.855539,84.5825066 222.675561,90.0170216 219.588868,95.1744776 C211.585308,108.546955 203.702368,121.996366 195.421956,135.197981 C188.939424,145.534133 182.805452,156.075129 176.336217,166.413169 C173.273267,171.30867 168.735827,174.024512 162.712026,174.000295 C150.450254,173.950881 138.188007,173.995248 125.926235,173.982032 C120.551115,173.976368 119.010617,171.454987 121.732606,166.803035 C126.104314,159.332818 130.657899,151.967855 135.107012,144.541062 C142.711201,131.850142 150.29307,119.145062 157.886336,106.44659 C160.066492,102.800925 162.320728,99.1967936 164.422054,95.5072326 C167.53819,90.0344856 167.808869,84.5131236 164.462418,78.9813776 C150.243208,55.478538 136.039194,31.9667304 121.829955,8.45822682 C121.789116,8.39120392 121.749701,8.32276512 121.711711,8.25385422 C120.653688,6.33662292 119.208165,4.46517472 120.526896,2.12598262 C121.85085,-0.221705377 124.163496,0.00201882306 126.393513,0.00862662306 C132.485222,0.0265623231 138.576456,0.0147625231 144.66769,0.0175945231" id="Fill-6"></path>
                </g>
            </g>
        </g>
    </g>
</svg>