<?xml version="1.0" encoding="UTF-8"?>
<svg width="215px" height="213px" viewBox="0 0 215 213" version="1.1" xmlns="http://www.w3.org/2000/svg" xmlns:xlink="http://www.w3.org/1999/xlink">
    <!-- Generator: Sketch 63.1 (92452) - https://sketch.com -->
    <title>Feather</title>
    <desc>Created with Sketch.</desc>
    <g id="Page-1" stroke="none" stroke-width="1" fill="none" fill-rule="evenodd">
        <g id="Artboard" transform="translate(-723.000000, -1082.000000)" fill="#464646">
            <g id="Sqlite" transform="translate(702.000000, 1062.000000)">
                <path d="M105.035772,82.9204782 C105.199785,82.8638209 105.363798,82.806541 105.527811,82.7498836 C105.527811,81.1118025 105.485565,79.4724761 105.545206,77.8368854 C105.576269,76.9864031 105.333977,76.4789777 104.525717,76.1085261 C102.805445,75.3209272 101.142329,74.4081841 99.4369679,73.5863418 C98.201901,72.9905061 96.935771,72.4594217 95.4273493,71.7851374 C95.8261988,72.8591359 96.1927428,73.6417539 96.4083204,74.4635962 C97.076176,77.0063265 98.413751,78.9283169 100.848473,80.1367986 C102.337636,80.8764567 103.646011,81.9803404 105.035772,82.9204782 M78.9546135,100.841622 C77.108847,95.6677506 75.3649673,90.7796567 73.517337,85.5995596 C72.217659,88.2313229 71.0136552,90.6040813 69.8941428,93.0173091 C69.7593292,93.308067 69.989817,93.8777532 70.2128497,94.2077353 C71.1348011,95.5712464 72.2686024,96.8108586 73.0470425,98.2472148 C74.3349165,100.623709 76.6074893,100.29684 78.9546135,100.841622 M91.4991159,81.6509808 C86.4594465,79.5808099 81.5533483,78.320029 76.2316264,77.6339152 C76.5130577,78.6400494 76.6950871,79.3379928 76.9038308,80.0278423 C77.5356533,82.1142011 78.1382765,84.2111442 78.8527266,86.268863 C78.9831915,86.6442955 79.562828,87.059575 79.9741028,87.1056479 C81.3595148,87.2594321 82.761701,87.273752 84.1582957,87.2980337 C84.5080657,87.3042598 84.949161,87.253206 85.1970441,87.0465002 C87.2428567,85.3368191 89.2532573,83.5841781 91.4991159,81.6509808 M90.3510255,71.9575998 C89.7073991,71.4950021 89.319111,71.2023765 88.9171551,70.9290516 C86.6017153,69.3563443 84.1850099,67.9131394 81.9913373,66.1860253 C79.5137484,64.235395 76.6683729,63.3270102 73.714898,62.5562217 C73.0470425,62.3818915 72.7463521,62.5244687 72.5568675,63.1937721 C72.1083171,64.7789316 71.6324311,66.3591103 71.0975254,67.916875 C70.8483997,68.6403453 71.0273229,69.0419273 71.6516902,69.4403964 C74.5983312,71.320672 77.5126666,73.2520014 80.4630352,75.1260509 C80.8010012,75.3408506 81.3613786,75.4952574 81.7012084,75.3670002 C84.5037168,74.3104347 87.2782685,73.1804015 90.3510255,71.9575998 M128.649282,92.0242497 C128.691528,91.9215194 128.733774,91.8187891 128.775398,91.7154362 C122.496934,87.3858214 116.21847,83.0568293 109.939385,78.7272145 C109.859243,78.7813814 109.7791,78.8349257 109.698957,78.88847 C110.747025,83.2355177 111.795092,87.5819429 112.876086,92.0640966 C111.319206,92.4140022 109.930688,92.7757373 108.521046,92.9980083 C108.25204,93.039723 107.755032,92.5945584 107.604686,92.2633311 C106.867871,90.6501542 106.277673,88.9666227 105.493642,87.3789728 C105.228363,86.8410396 104.613936,86.3018612 104.044861,86.1181919 C100.811197,85.0753238 97.3302718,84.781453 94.3861158,82.8600852 C94.2301793,82.7586002 94.0052828,82.7642036 93.5840678,82.6676994 C93.8903495,84.4514708 94.086668,86.121305 94.4873814,87.7394627 C94.7476897,88.7947829 94.3799032,89.2025911 93.4815598,89.5898531 C89.9627374,91.1065258 86.4805694,92.7091183 82.9648533,94.2338848 C82.1702605,94.5781869 81.9136797,94.9660716 82.1994597,95.8327417 C83.0269794,98.340606 83.8544991,100.852206 84.5372649,103.401162 C85.1026125,105.509935 86.2022445,107.082642 88.1095158,108.172829 C88.8568928,108.599938 89.4862302,108.91809 90.3870587,108.74625 C92.3676388,108.36895 94.3705843,108.1087 96.3635896,107.792415 C97.6222644,107.591936 98.8784542,107.376513 100.467019,107.11315 C99.8320899,107.882693 99.501579,108.425607 99.0424671,108.816605 C96.3151313,111.139555 93.5759915,113.44943 90.7983335,115.710741 C90.1609196,116.229374 89.9267042,116.592354 90.3274176,117.429762 C93.7294429,124.538698 97.8390845,131.171339 103.137198,137.035059 C103.83736,137.810206 104.579145,138.318254 105.623485,138.459586 C114.066422,139.605807 122.506253,140.7788 130.948569,141.927511 C132.1855,142.095616 133.433613,142.178422 134.677378,142.299831 C134.681727,142.423107 134.686697,142.546384 134.691667,142.669037 C126.704114,145.95018 118.164881,145.886674 109.540536,146.427721 C109.962372,146.932656 110.211498,147.256412 110.485474,147.557131 C113.876938,151.280949 117.486464,154.748252 121.476824,157.853197 C128.341758,163.192681 135.439665,168.131829 143.624779,171.203776 C147.620108,172.702393 151.766404,173.812503 155.879774,174.974289 C157.221076,175.352835 158.672963,175.338515 160.40566,175.54273 C152.040381,154.763194 140.022086,136.587404 127.269461,118.825648 C127.558969,118.936473 127.804367,119.079672 128.002549,119.271436 C133.003701,124.11657 138.177562,128.797958 142.957545,133.853533 C151.671352,143.069997 158.551196,153.684837 165.025978,164.52693 C169.042431,171.251717 172.527705,178.295279 175.447011,185.595978 C175.68309,186.185588 176.33852,186.782669 176.93928,187.018637 C179.583366,188.059015 182.274669,188.979229 184.957274,189.918745 C185.753731,190.198295 186.577523,190.399398 187.38889,190.636611 C187.481458,190.553182 187.573404,190.46913 187.665351,190.385078 C186.850257,188.656096 186.016524,186.934585 185.223795,185.195019 C183.529616,181.477428 181.842893,177.755478 180.192202,174.018586 C179.990292,173.560969 179.886542,172.975095 179.971033,172.488216 C181.068802,166.169369 181.140868,159.833712 180.23072,153.497432 C178.266914,139.834927 172.750738,127.893309 163.276507,117.759121 C156.883731,110.92102 149.600689,105.353038 141.236652,101.243204 C135.472592,98.4103381 129.578689,95.8427034 123.743805,93.1542829 C123.479148,93.0322517 123.222567,92.892165 122.716861,92.6356506 C124.892517,92.4115117 126.770589,92.2178807 128.649282,92.0242497 M128.428113,20 C140.131428,20.0458052 151.543372,21.8501227 162.678854,25.521641 C170.43157,28.0780687 177.682929,31.6356497 184.7038,35.7703882 C192.839213,40.5607328 199.874994,46.6535729 206.483347,53.341626 C216.264481,63.2404677 223.176009,74.9149869 228.513884,87.6877862 C233.044741,98.5280109 235.224745,109.8134 235.8429,121.473599 C236.590277,135.553253 234.68984,149.293584 229.737768,162.459872 C224.776999,175.650441 217.86547,187.810594 208.132174,198.115999 C201.69591,204.930442 194.721012,211.19948 186.690592,216.126175 C179.83125,220.334382 172.72713,224.09431 165.091211,226.717979 C156.217118,229.766267 147.139874,231.848891 137.758832,232.620302 C124.900593,233.678112 112.278433,232.525043 99.8209072,229.169186 C92.3421671,227.154428 85.2628978,224.210115 78.3681431,220.712927 C69.9904383,216.464874 62.5781731,210.903741 55.5771827,204.686379 C46.6136288,196.727584 39.7170102,187.21974 33.8237282,176.844603 C27.2383615,165.252268 23.4555032,152.77832 21.8514072,139.640673 C19.2240944,118.117121 22.6404087,97.5318384 32.6147543,78.256523 C38.0594859,67.7350735 44.9275264,58.1157828 53.6562436,50.0025803 C60.4056233,43.7298066 67.6203275,38.0254738 75.7638169,33.6410695 C82.6678905,29.9234782 89.7968607,26.6877854 97.3520159,24.5092807 C107.500936,21.5824013 117.844932,19.9542819 128.428113,20" id="Feather"></path>
            </g>
        </g>
    </g>
</svg>