<?xml version="1.0" encoding="UTF-8"?>
<svg width="256px" height="256px" viewBox="0 0 256 256" version="1.1" xmlns="http://www.w3.org/2000/svg" xmlns:xlink="http://www.w3.org/1999/xlink">
    <!-- Generator: Sketch 63.1 (92452) - https://sketch.com -->
    <title>Microsoft</title>
    <desc>Created with Sketch.</desc>
    <g id="Page-1" stroke="none" stroke-width="1" fill="none" fill-rule="evenodd">
        <g id="Artboard" transform="translate(-298.000000, -1469.000000)">
            <g id="Microsoft" transform="translate(298.000000, 1469.000000)">
                <path d="M207.48927,139.947708 C210.630414,141.862169 213.459111,141.250374 216.496106,139.385856 C220.108005,137.17174 224.044851,135.494505 227.773398,133.45935 C229.231489,132.664432 230.093846,132.897497 231.110343,134.187677 C233.63909,137.388157 236.267819,140.513723 238.971537,143.568537 C240.01303,144.746347 240.146341,145.728548 239.45479,147.131099 C237.463454,151.159791 235.497114,155.209293 233.772401,159.354517 C233.264152,160.578108 233.305812,162.213723 233.593264,163.553846 C234.997197,170.225327 239.046524,174.091706 245.899552,175.240383 C248.653261,175.706512 251.265327,177.009178 253.95238,177.899819 C255.402139,178.382596 256.039533,179.252427 255.997873,180.863072 C255.893724,184.525519 255.893724,188.192128 255.997873,191.854576 C256.039533,193.448573 255.472961,194.239329 253.960712,194.747077 C249.065692,196.391016 244.179004,198.059927 239.379802,199.957741 C238.163338,200.440518 237.08435,201.672432 236.321977,202.812785 C232.555936,208.464607 232.660086,213.89585 237.101014,219.322931 C239.025694,221.678551 240.163005,224.658451 241.775237,227.276268 C242.604266,228.616391 242.670922,229.544489 241.425296,230.713975 C238.575769,233.390058 235.817894,236.170189 233.114177,239.004424 C232.064351,240.10732 231.172833,240.182234 229.839721,239.537143 C224.973863,237.169038 220.08301,234.83839 215.121334,232.68254 C214.054845,232.220572 212.584256,232.320457 211.388621,232.578493 C204.635577,234.030987 200.64874,238.080488 199.490599,245.034976 C199.04484,247.71106 197.732558,250.228993 196.974351,252.867619 C196.536923,254.374217 195.83704,255.035955 194.195646,254.998498 C190.27963,254.890289 186.363614,254.911099 182.443433,254.990174 C180.952014,255.015145 180.202138,254.453293 179.727217,253.04658 C178.235799,248.630834 176.469426,244.302487 175.123816,239.849284 C174.328115,237.198171 172.982505,235.479318 170.295452,234.784286 C169.499751,234.576192 168.762373,234.139195 168,233.806246 C170.074655,228.495697 172.070157,223.156015 174.248961,217.895409 C175.727882,214.316199 177.460927,210.841036 179.085657,207.320092 C179.802205,207.528186 180.514587,207.736279 181.2353,207.944373 C189.888029,210.420687 198.857371,207.682175 204.368955,200.885838 C210.176323,193.719095 211.013684,184.554652 206.76439,176.405707 C204.339793,171.756896 200.411279,168.856071 195.949521,166.47548 C198.899031,159.283766 201.811047,152.071241 204.81888,144.900336 C205.54376,143.181483 206.589419,141.59581 207.48927,139.947708" id="Fill-4" fill="#464646"></path>
                <path d="M208,139.717123 C207.097594,141.376879 206.048966,142.973765 205.322028,144.704773 C202.305654,151.926387 199.385369,159.189915 196.427484,166.432486 C182.502864,161.893305 171.456751,168.863442 167.283125,179.517733 C166.999034,183.076149 166.710766,186.626182 166.430853,190.184598 C166.877878,192.037154 167.090946,193.990301 167.817884,195.729692 C170.119854,201.216107 174.23499,204.996662 179.515734,207.56593 C177.886391,211.111772 176.148425,214.61151 174.665304,218.21603 C172.480313,223.513837 170.479145,228.891278 168.398599,234.23938 C164.981155,232.009607 161.835269,232.600581 158.480493,234.68785 C154.950248,236.884092 151.098313,238.552231 147.43438,240.547291 C146.122549,241.255621 145.215966,241.163412 144.163159,240.052717 C141.455943,237.211014 138.690236,234.423798 135.845152,231.720408 C134.679545,230.613904 134.529144,229.658287 135.251904,228.224861 C137.42854,223.899437 139.371218,219.448273 141.63141,215.164762 C142.638261,213.253528 142.721817,211.631494 141.735855,209.762173 C140.800027,207.997634 140.056378,206.128313 139.229173,204.300906 C138.894949,202.322611 137.578941,201.429863 135.757418,200.851463 C131.011433,199.346786 126.31976,197.661882 121.573775,196.161396 C119.877586,195.624909 119.142293,194.719588 119.20496,192.917327 C119.288516,190.427694 119.184071,187.925486 119.163182,185.42747 C118.264954,180.242828 121.16435,178.298064 125.659667,177.195751 C129.281823,176.307195 132.787,174.869578 136.250399,173.448727 C137.349161,172.996066 138.456279,171.977579 139.011927,170.929754 C140.252735,168.574242 141.28883,166.080417 142.111858,163.54887 C142.395948,162.693844 141.965635,161.465792 141.543676,160.560471 C140.190068,157.63075 138.681881,154.776473 137.236361,151.888666 C136.359022,149.914562 135.327104,147.986563 134.671189,145.937016 C134.378743,145.031695 134.449766,143.552165 135.005414,142.889939 C137.537163,139.909923 140.340469,137.164619 142.959952,134.255855 C144.062892,133.027804 145.078098,133.057143 146.465129,133.75709 C150.931201,135.999437 155.434874,138.153767 159.955257,140.282949 C160.828418,140.689505 162.048337,141.314009 162.741852,141.008044 C167.525438,138.895627 173.875699,138.698636 174.853305,131.627909 C176.094113,127.910223 177.364165,124.196729 178.559017,120.462278 C179.118843,118.710314 180.129871,117.897201 182.043306,118.010366 C184.44972,118.148679 186.868669,118.043897 189.283439,118.043897 C190.022911,118.064853 190.774915,118.178018 191.501853,118.08581 C193.954224,117.779845 195.374677,118.739653 195.926147,121.216713 C196.231127,122.570504 196.895398,123.836277 197.396734,125.143963 C198.407763,127.943754 199.598437,130.697439 200.383864,133.555908 C201.064846,136.053924 202.405921,137.562793 204.866647,138.266932 C205.961232,138.58128 206.959727,139.22674 208,139.717123" id="Fill-6" fill="#464646"></path>
                <path d="M174,131.807215 C173.026111,138.854222 166.699991,139.046375 161.934592,141.151704 C161.243713,141.46082 160.028432,140.838411 159.158591,140.429041 C154.655392,138.31118 150.16468,136.164078 145.719749,133.929254 C144.337991,133.231655 143.326644,133.202414 142.223735,134.426346 C139.614211,137.321174 136.821562,140.061444 134.3036,143.031463 C133.745903,143.691467 133.679312,145.161856 133.970646,146.068317 C134.624068,148.106811 135.6479,150.028342 136.521904,152 C133.646016,149.915557 130.994873,147.342376 127.835975,145.851101 C122.271487,143.236148 116.46977,143.607922 111.021815,146.565409 C109.481905,147.400857 108.287433,147.430098 106.897352,146.460978 C97.0627332,139.606125 87.2197906,132.763804 77.3560385,125.9549 C75.8410993,124.91059 75.6288414,123.970711 76.5527878,122.249687 C81.3223489,113.40229 81.6636264,104.245777 77.9137359,94.9597695 C77.3185812,93.4893806 77.0438944,92.3322847 78.4381379,91.2002523 C87.8856979,83.5517235 97.2958007,75.8530677 106.801628,68.2755519 C107.346839,67.8369415 108.940855,67.9455498 109.519362,68.4342871 C121.767895,78.7228325 133.962322,89.0782137 146.09016,99.5129626 C146.760229,100.089422 147.322088,101.647533 147.026592,102.37855 C140.434109,118.644728 155.887321,136.126483 174,131.807215" id="Fill-8" fill="#464646"></path>
                <path d="M196.979886,124.50985 C196.479047,123.213161 195.815434,121.958032 195.510756,120.615626 C194.959833,118.159397 193.540787,117.207661 191.090845,117.511053 C190.364628,117.602486 189.613368,117.490272 188.874629,117.469492 C189.062444,116.255924 189.179307,115.029887 189.438074,113.832943 C191.31205,105.246532 188.945582,97.9401865 182.284413,92.300419 C175.485513,86.5359698 167.630676,85.3847424 159.333431,88.6514021 C157.133909,89.5158617 155.6773,89.3787119 154.012008,87.7994107 C143.799051,78.1324252 133.527662,68.5194684 123.285489,58.8774193 C122.884817,58.4992182 122.601008,57.9921794 122,57.1900607 C126.603552,54.9582588 130.944163,52.6890524 135.418332,50.719082 C148.774059,44.8382632 162.655668,40.7819529 177.234279,39.3481137 C180.297749,39.0447216 183.394608,38.9449763 186.466425,39.0280974 C187.217685,39.0488777 188.094154,40.046331 188.657599,40.786109 C198.286243,53.4288303 204.755424,67.5095469 207.935756,83.0781315 C210.940795,97.7947246 210.586033,112.453133 207.384832,127.086605 C207.213712,127.880412 206.946598,128.653438 206.558447,130 C203.916517,128.20874 201.587612,126.562942 199.17106,125.03767 C198.570053,124.659468 197.718625,124.676093 196.979886,124.50985" id="Fill-10" fill="#464646"></path>
                <path d="M118.90076,184.919382 C118.921684,187.406739 119.026302,189.894096 118.942607,192.377279 C118.879836,194.171848 119.616348,195.073306 121.315347,195.607504 C126.069196,197.101587 130.768644,198.775128 135.522493,200.277558 C137.347033,200.849316 138.665222,201.738254 139,203.71228 C132.27096,205.193843 125.533551,206.66706 118.808696,208.173663 C118.189357,208.31556 117.628603,208.716208 117.042742,209 C115.239125,208.357294 113.448062,207.672853 111.627706,207.084401 C106.354951,205.369127 104.463455,201.03712 106.873857,196.125008 C107.643847,194.555803 108.531009,193.028332 109.129424,191.400699 C109.393062,190.678698 109.3554,189.547702 108.953666,188.942556 C107.75265,187.15216 106.29218,185.532874 104.953068,183.838467 C104.040797,182.68243 102.998801,182.415332 101.672242,183.149853 C99.7054211,184.243288 97.6465358,185.178134 95.7341159,186.350864 C93.9053906,187.46934 92.1645445,187.577849 90.3274497,186.526148 C86.88342,185.653904 85.5359382,183.020477 84.6780693,179.923802 C84.2303036,178.317036 83.7699838,176.681056 83.0251025,175.216187 C82.6484771,174.477492 81.6650665,173.697063 80.8699685,173.592727 C73.9902787,172.70379 73.6513158,172.958368 71.5003666,179.473072 C71.3706401,179.869547 71.1906968,180.253502 71.1153718,180.658323 C70.546249,183.717438 68.8598043,185.557915 65.809139,186.609616 C63.8883496,187.264843 62.3860329,187.398392 60.6284479,186.417639 C58.6658113,185.328377 56.5985566,184.414399 54.5480408,183.479553 C53.9663638,183.220801 52.9620296,182.836847 52.7067613,183.083078 C50.371684,185.324204 47.0992282,186.851674 46.6054305,190.582709 C44.487959,189.101146 42.2993472,187.707225 40.2990481,186.079592 C39.6378614,185.541221 39.1566179,184.414399 39.1189553,183.533808 C38.4703228,168.626361 40.453883,154.082002 45.5718031,140.030105 C45.8605492,139.232983 46.8816224,138.331525 47.7060135,138.160414 C51.3550947,137.396679 55.1004246,137.079499 58.7160281,136.203082 C60.398288,135.794087 61.3984376,135.965197 62.7166263,137.062806 C73.5885449,146.123295 85.0923572,154.269805 97.7762623,160.663481 C99.2534707,161.406349 100.525627,162.11583 100.349869,164.144111 C99.5422168,173.672022 107.740095,182.882754 117.185022,184.552121 C117.762515,184.656457 118.327453,184.79418 118.90076,184.919382" id="Fill-12" fill="#464646"></path>
                <path d="M87,46.1995681 C82.8768947,49.3618649 78.8209,52.0759951 75.2346792,55.3053074 C68.515234,61.3534616 62.0935919,67.7325052 55.4580348,73.8811829 C54.6610969,74.6225425 53.344052,75.0665206 52.2283389,75.1544785 C47.8367914,75.5063102 43.4116885,75.531441 39.0285298,75.9502883 C37.547903,76.0885079 36.7341874,76.0298692 36.1134147,74.5513385 C30.6229317,61.4288541 27.6868445,47.9042765 29.5701347,33.6299622 C29.7295223,32.4153052 30.4090167,31.066617 31.260482,30.1786609 C38.6426441,22.467683 47.4173503,16.6415178 56.758302,11.5985969 C58.1089021,10.8698027 59.1575047,10.509594 60.2522458,12.2980718 C67.3240215,23.8540674 76.0064507,34.1618982 85.1670427,44.1011434 C85.7248993,44.7042835 86.2492006,45.3367428 87,46.1995681" id="Fill-14" fill="#464646"></path>
                <path d="M171,23.4019479 C169.135915,23.2329127 167.517872,23.1051056 165.904,22.944316 C151.174809,21.4683499 136.766723,23.1463337 122.800681,27.8504602 C116.12417,30.1015146 109.747915,33.2224819 103.184,35.828098 C102.40834,36.133186 100.915404,36.0342385 100.427489,35.5147644 C91.4615319,25.8838797 82.5914894,16.1622932 73.7172766,6.44895224 C73.4545532,6.16447833 73.3461277,5.73982887 73,5.03895113 C86.5615319,0.347193079 100.414979,-0.700000723 114.414383,0.400789612 C139.769277,2.39622977 161.487745,14.4389585 171,23.4019479" id="Fill-16" fill="#464646"></path>
                <path d="M46.675158,190.452823 C47.16447,186.698273 50.4030517,185.162893 52.7210634,182.910163 C52.9740128,182.666852 53.9692236,183.048599 54.5414698,183.312886 C56.5775051,184.248377 58.6259806,185.167088 60.5707883,186.266185 C62.3124072,187.247822 63.8010766,187.117776 65.7044172,186.459157 C68.7232232,185.40201 70.3984946,183.547807 70.9583007,180.477047 C71.0370882,180.065935 71.2112501,179.684187 71.3439449,179.285659 C73.4753546,172.733026 73.8070915,172.481325 80.628432,173.374866 C81.4163072,173.475546 82.3907844,174.264211 82.7639884,175.002536 C83.502103,176.479186 83.9582413,178.123637 84.4019394,179.734527 C85.2520153,182.851433 86.5872564,185.4943 90,186.371061 C89.5853288,187.184896 89.1167504,187.973562 88.7601333,188.808372 C86.8484992,193.355782 84.9617455,197.911582 83.0625516,202.463187 C82.0839277,202.295386 81.1094505,202.09822 80.1225332,201.959784 C77.4479042,201.578036 74.8437694,201.599011 72.5879583,203.432238 C68.9927594,204.598456 65.9822469,208.843824 65.6380698,213.252798 C65.161198,219.381733 68.0514559,223.606126 73.0772703,226.609766 C72.7870005,227.557842 72.5506379,228.522698 72.2023141,229.445604 C70.5270427,233.862969 68.826891,238.267747 67.1350327,242.676721 C64.8958084,241.292362 62.7561053,241.560844 60.6827495,243.071054 C60.4878541,243.21788 60.2431981,243.301781 60.0234224,243.419241 C53.1232944,247.148621 53.0901207,247.173791 47.9896656,241.254607 C47.4630332,240.650523 47.3013115,239.261969 47.595728,238.473304 C48.4499506,236.212184 49.5239488,234.02238 50.6974682,231.908086 C51.5973046,230.288805 51.4272894,228.925421 50.9006571,227.18029 C49.9635003,224.092749 48.1638275,222.351813 45.0994076,221.814849 C44.8547517,221.772899 44.6225358,221.663828 44.3861733,221.588318 C37.7804618,219.385928 37.8136355,219.385928 38.0873185,212.237601 C38.1412257,210.786122 38.5932173,209.888386 40.0030992,209.435323 C41.8152121,208.856409 43.5485375,207.895748 45.3979709,207.576926 C49.4617482,206.863771 50.3242642,203.570674 51.4314361,200.441184 C51.605598,199.958755 51.5102237,199.233016 51.261421,198.767368 C49.7768982,195.973479 48.213588,193.221541 46.675158,190.452823" id="Fill-18" fill="#464646"></path>
                <path d="M83.0692654,202.915767 C84.9853611,198.359567 86.8847224,193.799168 88.8175525,189.247167 C89.1731598,188.411514 89.6459083,187.617853 90.0684534,186.807395 C91.9050604,187.86561 93.6454443,187.760628 95.4695004,186.631026 C97.3855961,185.451034 99.4439347,184.510399 101.410234,183.410192 C102.73644,182.675321 103.77816,182.939874 104.686004,184.107269 C106.024761,185.81217 107.484843,187.437285 108.68554,189.238769 C109.091351,189.851861 109.129004,190.985662 108.865436,191.712134 C108.267179,193.354046 107.380253,194.886777 106.606284,196.4657 C104.196521,201.412431 106.087515,205.771266 111.35887,207.492964 C113.178743,208.08506 114.96933,208.777938 116.776652,209.420425 C118.240917,209.647186 118.826623,210.440846 118.893561,211.981976 C119.215699,219.200508 119.22825,219.129121 112.513548,221.648679 C110.451026,222.425542 108.0831,222.509528 106.815464,225.167661 C105.284261,228.371698 105.087631,231.046629 107.371885,233.897928 C108.455442,235.25429 109.082984,236.967589 110.074501,238.416335 C111.032548,239.81049 110.685308,240.717531 109.5641,241.851332 C104.497742,246.991229 104.556312,246.966034 98.0298729,244.005554 C95.9464326,243.06072 94.1349272,241.51959 91.2775182,242.649192 C88.0352165,243.934166 86.4621772,245.874226 85.5375983,249.141252 C83.5043614,256.317792 83.3495676,256.326191 75.9362018,255.801283 C75.1245804,255.742493 74.0242897,254.902641 73.6603152,254.134175 C72.7357362,252.177319 72.0119708,250.094485 71.4681009,247.990654 C70.8238242,245.513089 69.5394543,243.795591 67,243.1699 C68.7069149,238.756475 70.4221971,234.34305 72.108194,229.925426 C72.4638013,229.001588 72.7022673,228.031558 72.9951204,227.086724 C73.8820468,227.292488 74.7689732,227.515049 75.6600832,227.699816 C80.8226641,228.753831 86.0856519,226.658399 88.9890807,222.396147 C91.8423062,218.209482 91.8674079,212.418699 89.0476513,208.013672 C87.0562506,206.312971 85.0606662,204.61227 83.0692654,202.915767" id="Fill-20" fill="#464646"></path>
                <path d="M18.6063815,163 C5.7713636,144.470514 -0.544347474,123.919251 0.0367488434,101.458763 C0.545738319,81.6453444 6.47970728,63.4118302 18.1525326,47 C18.1525326,47.4627161 18.2246394,47.9337694 18.1440494,48.3839796 C15.8875294,60.8689762 17.4357057,72.9621231 22.1184089,84.7009379 C22.7885784,86.3767205 22.5680163,87.5981241 21.6094194,89.0904877 C13.7412905,101.296187 14.8822752,115.844647 24.3579626,126.95817 C24.9645084,127.671003 25.1087221,129.088331 24.9263342,130.08463 C23.3696747,138.605275 21.6263858,147.100909 20.0739679,155.625723 C19.6370852,158.022676 19.6413268,160.486326 19.4462142,162.920796 C19.16627,162.945808 18.8863257,162.97082 18.6063815,163" id="Fill-22" fill="#464646"></path>
                <path d="M89,208 C83.3319009,206.57489 77.6680991,205.154125 72,203.729014 C74.3420121,201.830316 77.0406977,201.808592 79.8124368,202.203973 C80.8351871,202.347353 81.8450455,202.551561 82.8592012,202.725354 C84.9047017,204.480673 86.9544995,206.240337 89,208" id="Fill-30" fill="#BCBCBC"></path>
            </g>
        </g>
    </g>
</svg>