<?xml version="1.0" encoding="UTF-8"?>
<svg width="242px" height="147px" viewBox="0 0 242 147" version="1.1" xmlns="http://www.w3.org/2000/svg" xmlns:xlink="http://www.w3.org/1999/xlink">
    <!-- Generator: Sketch 63.1 (92452) - https://sketch.com -->
    <title>Group 16</title>
    <desc>Created with Sketch.</desc>
    <defs>
        <polygon id="path-1" points="0 0 255 0 255 254.996813 0 254.996813"></polygon>
    </defs>
    <g id="Page-1" stroke="none" stroke-width="1" fill="none" fill-rule="evenodd">
        <g id="Artboard" transform="translate(-1142.000000, -1103.000000)">
            <g id="Group-16" transform="translate(1135.000000, 1049.000000)">
                <g id="aws">
                    <mask id="mask-2" fill="white">
                        <use xlink:href="#path-1"></use>
                    </mask>
                    <g id="Clip-2"></g>
                </g>
                <path d="M111.179314,107.549624 C114.344365,93.4839725 117.549178,79.43425 120.666514,65.3606334 C121.779848,60.3110165 122.781849,56.1056574 129.771999,56.0021164 C136.929148,55.8985753 138.654817,59.6021586 139.943103,65.3765628 C143.036583,79.2351326 146.559491,93.0060908 149.907446,106.832802 C154.28126,105.550486 154.066545,101.361056 154.957213,98.071637 C157.716692,87.8449682 160.87379,77.6581229 162.599458,67.2403015 C164.229698,57.3800087 168.86594,54.2020952 178.703045,57.1012443 C180.166284,64.3013289 175.840185,70.3146738 174.034993,76.7103242 C169.899751,91.3414695 164.682984,105.669956 160.595456,120.309066 C158.893645,126.433917 156.348881,129.110055 149.740446,128.950761 C143.243345,128.799432 142.479915,124.721508 141.350676,120.062161 C137.955006,105.980579 134.392336,91.9388216 128.873379,77.6899817 C125.660614,91.3653636 122.320611,105.016851 119.290751,118.740021 C118.105845,124.092297 117.660511,128.910937 110.018266,128.998549 C103.163307,129.078196 101.071829,125.876388 99.4177317,120.046231 C93.5329643,99.4495293 87.1631011,78.9961917 81,58.5508189 C93.0876305,54.2180246 94.7735369,55.0543176 97.7636349,66.10135 C101.501258,79.9678846 105.207071,93.8344191 108.928788,107.700954 L111.179314,107.549624 Z" id="Fill-4" fill="#464646"></path>
                <path d="M7.20067376,150.614859 C10.4959688,148.86935 12.4620023,151.274453 14.627027,152.456895 C79.4583747,187.640576 146.454747,190.375476 215.321637,166.39684 C218.90348,165.158091 223.822543,159.752642 226.449228,165.479844 C228.988356,171.013994 222.127138,172.912337 218.513457,174.971555 C160.519448,208.047755 101.697636,209.817396 42.2470119,179.033686 C30.1403845,172.767548 18.6068519,165.528107 8.99159497,155.593986 C7.8613247,154.435675 6.47634563,153.333672 7.20067376,150.614859" id="Fill-6" fill="#464646"></path>
                <path d="M58.9845931,97.8867137 C46.3186785,93.6162174 35.6879298,94.8759742 31.5058635,101.246065 C28.4810483,105.85725 28.5528777,110.777432 32.2002142,114.8657 C37.1803848,120.46726 43.7647449,119.191657 49.582925,116.838526 C58.0348491,113.423714 61.0357211,106.697088 58.9845931,97.8867137 M60.9000434,120.364261 C46.2707923,131.107847 31.8330862,132.961829 22.5990199,125.450826 C15.4240626,119.619499 12.9499394,108.39261 16.8207451,99.2653154 C21.9126503,87.2619725 35.0654085,83.3876262 58.1545647,87.1114355 C62.145086,70.5999064 55.2255221,62.9621357 38.537162,65.8302612 C32.7509061,66.820636 27.1003279,68.6270797 21.2661858,70.0928345 C18.2653138,63.4929766 20.1967261,59.5077083 26.5655981,57.6458036 C32.918508,55.7838989 39.2474748,53.9457632 46.02338,54.0012242 C65.4332756,54.1755302 73.565958,62.2649118 74.4119485,81.6445665 C74.9546594,94.3451333 71.881958,107.330928 77.5245551,119.698729 C79.4479864,123.92961 75.074375,125.205213 72.624195,127.114656 C69.7031334,129.412325 67.1412187,128.675486 65.0262424,125.783592 C63.6854272,123.953379 62.2807637,122.170705 60.9000434,120.364261" id="Fill-8" fill="#464646"></path>
                <path d="M186.351176,113.917353 C196.099949,117.679516 205.141598,120.571029 214.977768,118.438338 C219.943525,117.360011 223.757226,115.315184 224.162431,109.667946 C224.527911,104.364175 220.928731,101.880029 216.709824,100.362384 C211.116396,98.3574945 205.300502,96.9836261 199.71502,94.9707492 C190.593918,91.6958304 185.842683,84.9143521 185.882409,75.2493478 C185.93008,65.4086161 191.332823,59.3220597 200.406253,56.0870789 C209.590916,52.8041725 218.632565,53.6748216 227.578872,56.7500503 C233.863533,58.9067041 234.070108,59.6335764 232.775039,68.4039687 C226.180515,68.8193243 220.324895,64.314314 213.642973,65.0811243 C207.699956,65.7680584 200.811459,65.5444055 199.508444,73.1565948 C198.261046,80.4492799 204.315296,82.3822808 209.797491,84.2593684 C214.787083,85.9607286 219.729004,87.8138534 224.639144,89.7308791 C233.617231,93.2454261 238.654495,99.6195364 237.93148,109.58807 C237.264083,118.893632 230.192846,127.328545 221.039964,129.573062 C211.545438,131.905443 202.050911,131.274422 192.675563,128.438822 C185.572546,126.290156 183.236654,121.90496 186.351176,113.917353" id="Fill-10" fill="#464646"></path>
                <path d="M229.099594,189 C229.292805,181.634416 233.326086,175.681301 234.831522,169.081802 C237.58478,156.95213 235.902233,154.701757 223.593079,154.749637 C216.935348,154.773578 210.277617,155.028939 203.619885,155.14864 C203.418624,155.14864 203.201262,154.693777 203,154.462356 C210.575484,145.381062 235.185742,140.800515 245.152213,146.530189 C247.036021,147.607495 248.082581,148.988043 248.59781,151.078816 C251.262513,161.97158 240.225331,184.076311 229.099594,189" id="Fill-12" fill="#464646"></path>
            </g>
        </g>
    </g>
</svg>