<?xml version="1.0" encoding="UTF-8"?>
<svg width="226px" height="227px" viewBox="0 0 226 227" version="1.1" xmlns="http://www.w3.org/2000/svg" xmlns:xlink="http://www.w3.org/1999/xlink">
    <!-- Generator: Sketch 63.1 (92452) - https://sketch.com -->
    <title>Nlog</title>
    <desc>Created with Sketch.</desc>
    <g id="Page-1" stroke="none" stroke-width="1" fill="none" fill-rule="evenodd">
        <g id="Artboard" transform="translate(-1112.000000, -2234.000000)" fill="#464646">
            <g id="Nlog" transform="translate(1112.000000, 2234.000000)">
                <path d="M157.083227,134.303284 C155.611097,134.975472 154.138966,135.647661 152.658791,136.319849 C132.459227,108.403783 110.578378,81.524344 92.6312545,52.1991113 C80.4841652,32.3412073 65.867436,26.5749644 44.3405414,28.2837808 C33.1668281,29.1665342 29.0883021,31.6285256 29.2411463,43.4606617 C29.8444786,88.6673584 30.488033,133.922647 29.0239467,179.096949 C28.3803923,198.946754 40.8331699,194.792144 51.3070177,195.593911 C62.3117979,196.452368 70.3884056,195.448135 69.6885402,179.63146 C68.2646761,147.868532 69.2621854,115.992223 69.2621854,84.1726044 C91.5613453,108.590052 109.234958,134.853992 127.914124,160.389054 C141.94361,179.558572 153.688478,201.975652 184.860644,196.02314 C195.085115,194.071364 196.790534,191.68226 196.742267,182.854725 C196.468757,136.246961 195.728669,89.6229998 196.9836,43.0476303 C197.466266,25.3763633 187.209618,28.7049109 177.491946,28.7616015 C167.154854,28.8263907 155.659363,25.2224889 156.656873,44.0599623 C158.24967,74.065482 157.083227,104.208679 157.083227,134.303284 M0.127368598,113.3585 C0.159629204,87.9954345 -0.0984556425,62.616188 0.232215567,37.2612124 C0.546756473,12.9984263 12.5638321,0.523195755 36.8076774,0.329028744 C88.0213891,-0.0916664483 139.251231,-0.115937325 190.464943,0.296667575 C212.44248,0.474654002 225.290267,12.6909952 225.540286,34.4943325 C226.145173,87.2834888 226.169368,140.088826 225.516091,192.869892 C225.249941,214.657048 212.353764,226.557868 190.134272,226.727764 C138.928625,227.099918 87.7149133,227.091827 36.5012016,226.695403 C12.5799624,226.509326 0.538691322,213.904651 0.183824658,189.463879 C-0.179107157,164.100813 0.103173144,138.729657 0.127368598,113.3585" id="Fill-4"></path>
            </g>
        </g>
    </g>
</svg>