<?xml version="1.0" encoding="UTF-8"?>
<svg width="279px" height="249px" viewBox="0 0 279 249" version="1.1" xmlns="http://www.w3.org/2000/svg" xmlns:xlink="http://www.w3.org/1999/xlink">
    <!-- Generator: Sketch 63.1 (92452) - https://sketch.com -->
    <title>Google cloud</title>
    <desc>Created with Sketch.</desc>
    <g id="Page-1" stroke="none" stroke-width="1" fill="none" fill-rule="evenodd">
        <g id="Artboard" transform="translate(-670.000000, -2223.000000)">
            <g id="Google-cloud" transform="translate(670.000000, 2223.000000)">
                <path d="M238.483765,49 C250.70943,70.0802857 262.785889,91.2472347 275.237697,112.19167 C280.114907,120.398928 280.30841,127.884771 275.477827,136.239591 C256.041257,169.846251 236.849479,203.593446 217.725312,237.382802 C213.270078,245.255117 207.161908,249.241634 197.974007,248.98867 C183.652447,248.597514 169.321561,248.684177 155,248.569407 C161.649046,231.110246 173.863055,216.614036 180.934078,199.382073 C195.614668,178.817084 206.052179,155.701379 219.646355,134.520377 C224.633139,126.753463 223.989683,121.073497 219.441195,113.458829 C206.940428,92.5261054 195.37687,71.0312408 183.442624,49.7588903 C201.790448,49.5059269 220.135941,49.2529634 238.483765,49" id="Fill-4" fill="#464646"></path>
                <path d="M181,198.775227 C173.947067,215.918739 161.75394,230.340541 155.119855,247.710085 C130.012253,247.786983 104.909303,247.782322 79.8086813,248 C72.0413802,248.06428 66.489319,244.825259 62.7010727,238.223713 C42.6941061,203.375104 22.6778317,168.531155 2.71973067,133.654583 C-0.814879969,127.47481 -0.970784454,121.062013 2.6429419,114.865928 C10.2264153,101.863237 17.9588124,88.9467652 25.6283823,76 C36.7790434,90.9973687 43.1013193,108.984424 55.024522,123.494775 C66.1868178,148.253482 81.6539389,170.612052 94.4427605,194.459639 C97.1513101,199.50925 101.40727,198.462976 105.493364,198.486279 C130.663794,198.628423 155.831897,198.689009 181,198.775227" id="Fill-6" fill="#464646"></path>
                <path d="M53.5605708,124 C41.5683342,109.400052 35.2106938,91.3019318 24,76.2119586 C36.7901591,53.5465187 49.4375813,30.8013617 62.4664152,8.27894358 C66.0535564,2.07273488 72.2965393,0.0352602471 79.4474222,0.0493279661 C119.081472,0.13373428 158.717861,0.100909602 198.354251,0 C206.033962,-0.018666009 212.007851,2.86287176 215.807927,9.53097057 C223.309803,22.6960109 230.612782,35.9782823 238,49.2136612 C219.589284,49.4645355 201.176229,49.7177545 182.763173,49.9709734 C155.629129,49.80685 128.495085,49.7341668 101.365721,49.3918523 C96.7981412,49.3332368 94.3762944,51.2652036 92.2937401,55.0072168 C79.4661418,78.0524852 66.4887868,101.013347 53.5605708,124" id="Fill-8" fill="#464646"></path>
                <path d="M137.642821,162.418132 C162.876975,164.696388 175.718647,141.172342 176.263757,125.912237 C176.921165,107.50842 156.89948,87.7292278 139.081631,87.7292278 C118.374465,87.7315669 101.761473,104.605631 101.653239,125.743824 C101.543897,147.501871 116.158932,162.394741 137.642821,162.418132 M54,124.433944 C66.9258947,101.501683 79.9009196,78.5974912 92.7262146,55.6044146 C94.8083949,51.8712559 97.2298068,49.9461997 101.796566,50.001144 C128.921059,50.343842 156.050231,50.4163532 183.179403,50.5800882 C195.15311,71.8258781 206.757171,93.2915408 219.301723,114.193487 C223.866143,121.800149 224.511853,127.472398 219.507601,135.228761 C205.865811,156.380988 195.394081,179.465288 180.662071,200 C155.350712,199.913454 130.046373,199.852638 104.742033,199.709955 C100.633821,199.688903 96.3548232,200.739147 93.6316121,195.670378 C80.7712241,171.729977 65.222718,149.288922 54,124.433944" id="Fill-10" fill="#5C5C5C"></path>
                <path d="M138.169811,161.845738 C116.578334,161.822298 101.890111,146.898155 102,125.09442 C102.108777,103.911841 118.804963,87.002344 139.615827,87 C157.522904,87 177.644853,106.820725 176.984153,125.263187 C176.436313,140.555335 163.530333,164.128777 138.169811,161.845738" id="Fill-12"></path>
            </g>
        </g>
    </g>
</svg>