<?xml version="1.0" encoding="UTF-8"?>
<svg width="192px" height="192px" viewBox="0 0 192 192" version="1.1" xmlns="http://www.w3.org/2000/svg" xmlns:xlink="http://www.w3.org/1999/xlink">
    <!-- Generator: Sketch 63.1 (92452) - https://sketch.com -->
    <title>Rocket</title>
    <desc>Created with Sketch.</desc>
    <g id="Page-1" stroke="none" stroke-width="1" fill="none" fill-rule="evenodd">
        <g id="Artboard" transform="translate(-732.000000, -1508.000000)" fill="#4B4B4B" fill-rule="nonzero">
            <g id="Rocket" transform="translate(732.000000, 1508.000000)">
                <g transform="translate(0.000000, 0.000000)" id="Fill-4">
                    <g transform="translate(-0.000000, 0.000000)">
                        <g transform="translate(-0.000000, 0.000000)">
                            <path d="M165.662983,37.5987398 C165.647275,31.3605236 160.673076,26.3684686 154.4472,26.3427465 C148.134917,26.3170084 143.058675,31.3749325 143.07709,37.6720192 C143.095706,43.8785358 148.112287,48.911759 154.315531,48.9483884 C160.60971,48.9850384 165.678546,43.9151755 165.662983,37.5987398 M191.967039,10.6677435 C191.17538,27.4557206 188.367955,43.7789088 181.015078,59.0716572 C173.570032,74.5554259 162.922143,87.6522629 150.581076,99.417721 C144.478229,105.236021 138.08283,110.749266 131.754088,116.326732 C130.730775,117.228727 130.316429,118.119607 130.251418,119.460043 C129.582376,133.30326 128.835567,147.142771 128.143072,160.985164 C128.034034,163.172842 127.094248,164.670952 125.179702,165.78167 C110.720413,174.174218 96.293631,182.623577 81.8520359,191.045766 C79.348272,192.506002 77.8274977,192.314981 75.7837515,190.302269 C73.6824003,188.23192 71.6563471,186.08294 69.5052086,184.066522 C67.8441247,182.509953 67.5347031,180.82041 68.2070368,178.678429 C71.304956,168.810825 74.295483,158.909052 77.395871,149.042271 C77.8155652,147.706775 77.6863652,146.855417 76.6490622,145.826212 C66.469832,135.728478 56.3338056,125.587105 46.246332,115.398801 C45.2077946,114.350659 44.3515361,114.257207 43.0290879,114.672183 C33.2958856,117.723157 23.5215369,120.643217 13.8006785,123.731243 C11.3355923,124.514262 9.4691875,124.170508 7.7147012,122.24219 C5.7318518,120.062746 3.5465617,118.06897 1.491706,115.952513 C-0.284176564,114.123822 -0.444236404,112.822084 0.850643646,110.597355 C9.3663213,95.964944 17.9140932,81.3510594 26.4083746,66.7067101 C27.4868241,64.8475545 28.9824991,63.9937262 31.0727408,63.887924 C44.9049564,63.1888881 58.7347033,62.4466256 72.5681533,61.774349 C73.8959505,61.7097149 74.8176319,61.3457881 75.7092764,60.2922941 C86.4456301,47.6067273 97.686028,35.4407031 110.552947,24.8156044 C128.100691,10.3248124 148.105292,2.2480248 170.777008,0.765146497 C176.247434,0.407394907 181.727735,0.176853027 187.207213,0.00518166734 C190.566824,-0.100208903 191.997899,1.39996 192,4.6983556 C192,5.9334013 191.976091,7.1684471 191.967862,8.4034929 C191.962924,9.1585175 191.967039,9.9131305 191.967039,10.6677435"></path>
                        </g>
                    </g>
                </g>
            </g>
        </g>
    </g>
</svg>