<?xml version="1.0" encoding="UTF-8"?>
<svg width="255px" height="196px" viewBox="0 0 255 196" version="1.1" xmlns="http://www.w3.org/2000/svg" xmlns:xlink="http://www.w3.org/1999/xlink">
    <!-- Generator: Sketch 63.1 (92452) - https://sketch.com -->
    <title>Polly</title>
    <desc>Created with Sketch.</desc>
    <g id="Page-1" stroke="none" stroke-width="1" fill="none" fill-rule="evenodd">
        <g id="Artboard" transform="translate(-291.000000, -2250.000000)">
            <g id="Polly" transform="translate(291.000000, 2220.000000)">
                <path d="M169.8215,96.8680186 C177.582,96.9871282 183.23025,91.4166269 183.172875,83.6978987 C183.113375,75.6601269 177.273875,69.8641681 168.999125,69.8832634 C160.41625,69.9024533 156.019625,74.8029631 155.4905,82.9470828 C155.01025,90.3340056 161.973875,96.7467821 169.8215,96.8680186 M174.770625,50.6386006 C163.6335,42.9219993 150.273625,43.3941839 140.70475,50.9810407 C130.31775,59.2144926 127.149375,71.6997323 132.249375,84.2955737 C136.98175,95.9810774 145.500875,101.53669 159.137,100.281785 C145.853625,91.9781437 136.867,82.1026807 141.790625,66.7183982 C146.741875,51.2490374 160.533125,50.866185 174.770625,50.6386006 M0,142.43808 L0,0.0127617441 C85,0.0127617441 170,0.0127617441 255,0 L255,59.4378232 C253.5805,56.5940812 252.18225,53.7418314 250.739375,50.9108511 C239.78075,29.4158202 222.026375,24.3472808 201.3565,36.7644578 C194.786,40.7120907 188.153875,44.5576295 181.536625,48.4563424 C181.917,49.1603652 182.106125,49.9133082 182.586375,50.3280648 C190.623125,57.2874693 196.879125,65.4230812 196.768625,76.5449411 C196.662375,86.9096043 195.44475,97.1828083 184.715625,102.923466 C183.8975,103.361619 182.968875,104.554842 182.95825,105.405625 C182.835,116.90183 172.322625,117.816422 168.089625,121.50882 C166.325875,117.182588 165.63525,111.709927 162.534875,108.902343 C159.20075,105.882064 153.716125,104.846236 148.977375,103.855074 C135.275375,100.990062 129.489,94.9133448 128.0185,81.0519638 C127.795375,78.9356412 127.259875,76.85335 126.43325,72.4165169 C124.75025,76.2620558 123.723875,77.7445451 123.456125,79.3546518 C121.190875,92.9884484 128.662375,104.159228 143.422625,108.761964 C150.263,110.895302 156.601875,112.901023 153.720375,123.659173 C107.862875,124.507829 81.63825,96.751036 61.217,57.8149547 C55.859875,84.5529356 59.075,107.243317 72.692,128.58308 C46.03175,119.269133 25.757125,102.155635 8.187625,80.6882541 C5.191375,125.158678 29.24425,152.868679 65.10575,174 C54.1705,171.424255 43.377625,168.888921 33.83,163.941619 C22.012875,157.818108 11.230625,149.695258 0,142.43808" id="Fill-1"></path>
                <path d="M0,142.347889 C11.230625,149.605853 22.012875,157.727455 33.83,163.851628 C43.377625,168.801594 54.1705,171.337201 65.10575,173.913226 C29.24425,152.77749 5.191375,125.064489 8.187625,80.5892508 C25.757125,102.061083 46.03175,119.174307 72.692,128.489261 C59.075,107.149315 55.859875,84.4564779 61.217,57.7134753 C81.63825,96.6558988 107.862875,124.41357 153.720375,123.564822 C156.601875,112.805507 150.263,110.801696 143.422625,108.668127 C128.662375,104.062766 121.190875,92.8929039 123.456125,79.2576314 C123.723875,77.6473504 124.75025,76.1647006 126.43325,72.3187454 C127.259875,76.7560587 127.795375,78.8385754 128.0185,80.9551271 C129.489,94.8180087 135.275375,100.895384 148.977375,103.760705 C153.716125,104.751975 159.20075,105.787915 162.534875,108.806394 C165.63525,111.614282 166.325875,117.089663 168.089625,121.416363 C172.322625,117.721438 182.835,116.808874 182.95825,105.309298 C182.968875,104.458423 183.8975,103.267198 184.715625,102.828997 C195.44475,97.0877179 196.662375,86.8134018 196.768625,76.4476165 C196.879125,65.3245525 190.623125,57.1880599 182.586375,50.2279021 C182.106125,49.8131005 181.917,49.0600761 181.536625,48.355977 C188.153875,44.4547149 194.786,40.6108869 201.3565,36.6628267 C222.026375,24.2443054 239.78075,29.3112663 250.739375,50.8107515 C252.18225,53.639911 253.5805,56.4945968 255,59.3386466 L255,78.493971 C252.96,81.248679 250.92,84.0055141 248.299875,87.5472815 C234.678625,80.9870349 221.986,66.5349223 206.12075,80.3658961 C210.409,84.5160391 214.401875,88.3832662 218.392625,92.2483661 C217.810375,92.7099658 217.226,93.1715655 216.641625,93.6310381 C211.0125,92.3632342 205.383375,91.0933032 199.756375,89.8254994 C199.0615,91.3336754 198.366625,92.8439786 197.669625,94.3521547 C204.0765,98.8809371 210.483375,103.411847 217.172875,108.142712 C208.128875,120.556979 197.75675,113.354322 187.19975,108.508588 C185.98425,112.271583 184.25875,115.204975 184.23325,118.153257 C184.163125,127.144879 185.82275,136.253496 184.894125,145.113233 C180.36575,188.288759 150.64125,217.735418 105.223625,224.897658 C64.920875,231.251568 26.51575,209.696776 9.843,171.61799 C7.03375,165.200265 3.304375,159.188833 0,152.990208 L0,142.347889 Z" id="Fill-3" fill="#464646"></path>
                <path d="M175,50.6331229 C160.73469,50.8610683 146.916503,51.2502959 141.953452,66.890362 C137.022339,82.444411 146.026518,92.4288503 159.335838,100.824123 C145.673079,102.092876 137.137313,96.4759567 132.395695,84.6615027 C127.285733,71.9266655 130.460297,59.3036504 140.867585,50.9793419 C150.455151,43.3087636 163.841121,42.8313685 175,50.6331229" id="Fill-7" fill="#464646"></path>
                <path d="M170.506642,96.9981249 C162.57582,96.8768282 155.53837,90.4608746 156.023712,83.0702918 C156.558446,74.9221371 161.001682,70.0191994 169.675549,70 C178.038024,69.9808952 183.939431,75.7797256 183.999562,83.8214798 C184.057545,91.5440323 178.349415,97.1172935 170.506642,96.9981249" id="Fill-9" fill="#464646"></path>
            </g>
        </g>
    </g>
</svg>