<?xml version="1.0" encoding="UTF-8"?>
<svg width="223px" height="220px" viewBox="0 0 223 220" version="1.1" xmlns="http://www.w3.org/2000/svg" xmlns:xlink="http://www.w3.org/1999/xlink">
    <!-- Generator: Sketch 63.1 (92452) - https://sketch.com -->
    <title>Elastic</title>
    <desc>Created with Sketch.</desc>
    <g id="Page-1" stroke="none" stroke-width="1" fill="none" fill-rule="evenodd">
        <g id="Artboard" transform="translate(-1133.000000, -1900.000000)" fill="#464646">
            <g id="Elastic" transform="translate(1133.000000, 1900.000000)">
                <path d="M89.5545356,220 C55.0582936,220.110566 28.297454,192.685313 30.0845536,158.416794 C30.3193551,153.876362 32.5695353,148.363912 35.7784881,145.245627 C49.3447924,132.094031 63.4263553,119.451276 77.8405536,107.232556 C80.3581466,105.092812 85.9738139,104.362168 89.1240663,105.608177 C101.353307,110.435648 112.989022,116.743978 125.185651,121.662779 C132.960187,124.794112 137.330102,130.149995 141.393471,137.195493 C146.167767,145.454382 147.211329,153.321855 144.615469,162.226582 C143.304494,166.740919 142.645746,171.464012 141.804374,176.108822 C136.645265,204.734419 118.604689,219.901811 89.5545356,220" id="Fill-4"></path>
                <path d="M133.526397,0 C166.868033,0.150898388 193.942639,28.5118516 191.890546,61.8128052 C191.616933,66.3155797 189.102304,71.718909 185.838498,74.8055935 C172.366341,87.5373514 158.464221,99.8645122 144.066992,111.532571 C141.037711,113.986257 134.685993,114.664936 130.848903,113.320629 C120.386483,109.646626 110.464773,104.465173 100.328082,99.8840894 C80.2371084,90.8198087 74.0482546,78.8972451 78.243646,57.4274945 C79.1426584,52.7876791 80.0221271,48.1413379 80.8625083,43.4949967 C85.9243393,15.5973725 104.953436,-0.129709295 133.526397,0" id="Fill-6"></path>
                <path d="M223,115.72418 C222.230485,130.290044 216.199327,142.06753 203.413535,149.288715 C199.145028,151.70011 193.061253,152.395579 188.062693,151.797606 C179.315212,150.757651 170.587462,148.645243 162.22145,145.889363 C158.156831,144.550422 153.4937,141.489055 151.566624,137.914211 C142.615254,121.339934 141.733929,126.169224 155.743053,113.663769 C167.127932,103.498213 179.085015,93.9501296 190.312045,83.6285799 C195.711806,78.6627966 200.019776,79.0982776 205.491884,83.0891035 C216.718914,91.2852459 222.362026,102.18527 223,115.72418" id="Fill-8"></path>
                <path d="M28.4551447,67 C40.3152965,69.9584298 52.8299821,71.9481703 64.4545017,76.3138178 C74.4426869,80.0707619 75.8237531,96.1850412 67.8122599,103.496028 C55.5593878,114.655592 43.4177866,125.95915 30.6871049,136.555827 C28.1082419,138.709198 22.1061673,139.815336 19.4487602,138.29685 C6.04390873,130.632422 -0.763242392,118.438717 0.0680154858,102.926596 C0.912364039,87.1395766 8.72749716,75.462942 23.1992386,68.6035737 C24.6915756,67.8966922 26.3933634,67.6152487 28.4551447,67" id="Fill-10"></path>
                <path d="M66.9777171,67 C55.4732321,64.2800824 44.8967404,62.0819716 34.5506016,59.0815829 C32.3457947,58.4423696 29.8974718,55.0375807 29.4828364,52.5850891 C27.6465943,41.7510768 31.016329,32.5020525 40.1317248,25.8685845 C49.0957458,19.3460003 59.0338307,18.2110707 69.0838014,22.7116538 C71.4597276,23.7813575 74.3029413,27.8644952 73.9738657,30.1473997 C72.2560907,42.077206 69.5774149,53.8635156 66.9777171,67" id="Fill-12"></path>
                <path d="M165.221481,199.994833 C151.838611,199.726095 148.344593,195.491846 150.665246,182.048431 C151.923354,174.733535 152.855526,167.254776 155.169661,160.261054 C156.004053,157.770319 160.573655,154.8732 163.311505,155.004292 C169.25655,155.279583 175.136408,157.318053 181.009747,158.753503 C193.408295,161.788267 195.579019,165.29496 193.08888,178.010818 C190.637852,190.510376 178.284935,200.257015 165.221481,199.994833" id="Fill-14"></path>
            </g>
        </g>
    </g>
</svg>