<?xml version="1.0" encoding="UTF-8"?>
<svg width="148px" height="225px" viewBox="0 0 148 225" version="1.1" xmlns="http://www.w3.org/2000/svg" xmlns:xlink="http://www.w3.org/1999/xlink">
    <!-- Generator: Sketch 63.1 (92452) - https://sketch.com -->
    <title>RestSharp</title>
    <desc>Created with Sketch.</desc>
    <g id="Page-1" stroke="none" stroke-width="1" fill="none" fill-rule="evenodd">
        <g id="Artboard" transform="translate(-1188.000000, -1445.000000)" fill="#464646">
            <g id="RestSharp" transform="translate(1188.000000, 1445.000000)">
                <path d="M21.544017,0 C25.5884471,4.16833304 29.8462172,8.14961822 33.6344135,12.5412751 C45.0859188,25.8114699 56.1570241,39.4172173 67.7722029,52.5400411 C74.3834859,60.0072181 75.169119,67.8224174 71.4542936,76.6113992 C65.9514757,89.6344642 61.2049424,103.048629 54.7720071,115.591038 C46.5533369,131.618205 48.0941259,145.955139 58.8638461,159.818219 C64.0223852,166.460118 69.255424,173.044203 74.3180165,179.759787 C75.5224282,181.358196 76.6986202,183.308028 76.939051,185.21705 C77.1704516,187.058054 76.7482867,190.071225 75.5811249,190.734395 C74.0301768,191.614087 71.3470592,191.108491 69.3999082,190.450989 C67.9460355,189.96013 67.0046304,188.120259 65.6365451,187.169149 C60.8911407,183.870306 56.4132579,179.842542 51.1847342,177.659183 C41.1893593,173.488583 30.9467808,178.14324 26.7962451,187.708754 C22.71005,197.130298 26.9542747,209.370029 35.6594505,214.303558 C38.473507,215.898566 41.2548287,218.106864 43.1037755,220.713064 C45.1581609,223.610605 43.3712971,225.260027 40.0165535,224.966419 C21.2392455,223.322665 0.0327961054,200.709147 0,182.317242 C-0.0213854868,170.614848 5.57625025,161.984573 16.8336048,159.244606 C23.1762374,157.699477 30.1340569,158.37625 36.7950064,158.614311 C40.050417,158.731074 43.2584188,160.132233 48.1471787,161.37355 C46.412239,158.443134 45.5205003,156.760837 44.4673456,155.187368 C37.6528816,145.002896 31.0438561,134.668785 23.886242,124.731443 C18.6091807,117.405969 18.8439676,110.3605 22.2732109,102.414934 C28.769358,87.3604158 34.417789,71.9306684 41.0832536,56.955504 C44.6377918,48.9668603 43.12748,42.58116 38.3335378,35.9222565 C31.950269,27.057322 25.7645372,18.0234775 20.0404778,8.72209801 C18.6769077,6.50586437 19.4794726,2.9428862 19.2864506,0 L21.544017,0 Z" id="Fill-4"></path>
                <path d="M106.199411,141.084227 C113.210096,140.017666 119.446977,139.068733 125.781291,138.103965 L125.781291,112.53818 C118.968873,113.548189 112.593772,114.49486 106.199411,115.443794 L106.199411,141.084227 Z M84.4422708,104.722768 C90.2055792,103.752345 95.3876851,102.87919 101.169121,101.905374 C101.169121,94.0017416 101.051294,86.3254462 101.277884,78.65933 C101.31867,77.2907846 102.788104,75.9640873 103.598162,74.6181625 C104.3697,76.0104595 105.76096,77.382398 105.806278,78.7973156 C106.034001,85.9182756 105.911643,93.050546 105.911643,101.114784 C112.784107,100.214485 119.024387,99.3978821 126.133638,98.468176 C126.133638,91.0079072 125.990887,83.7421754 126.231072,76.4900159 C126.292251,74.6396521 127.564552,72.8288743 128.280575,71 C129.106495,72.9035222 130.558935,74.7810307 130.643906,76.7173528 C130.938472,83.4458457 130.758333,90.1958282 130.758333,97.5181115 C136.65533,96.7049015 141.831771,95.990091 147.90664,95.1531293 C147.90664,99.084587 148.20234,102.806804 147.74123,106.434015 C147.586016,107.649871 145.666801,109.200512 144.269876,109.596373 C139.978267,110.812229 133.846751,110.155101 131.647698,112.846951 C129.382934,115.617972 130.855767,121.467656 130.770796,125.972545 C130.705085,129.507011 130.758333,133.042609 130.758333,137.182176 C136.662127,136.451531 141.847632,135.809106 147.897577,135.060365 C147.897577,138.95563 148.138895,142.678978 147.751426,146.335595 C147.6336,147.437218 145.913784,148.958452 144.681136,149.249127 C140.298892,150.279494 135.81015,150.863105 130.756068,151.718164 C130.756068,159.783533 130.860299,167.652103 130.664299,175.513888 C130.628044,177.005715 129.401061,178.467005 128.724691,179.941867 C127.860252,178.463612 126.302447,177.010239 126.250332,175.503708 C125.994286,168.019688 126.133638,160.523226 126.133638,152.356064 C119.151277,153.359287 112.879275,154.258455 105.915041,155.258285 C105.915041,163.355323 106.036267,171.227287 105.815342,179.090202 C105.768891,180.744898 104.45807,182.364532 103.729584,184 C102.875341,182.310242 101.344728,180.644236 101.282415,178.923941 C101.010508,171.445575 101.165722,163.952507 101.165722,156.048874 C95.2211416,156.845119 90.0254404,157.53844 84.0944556,158.331291 C84.0944556,154.292386 83.7908254,150.5385 84.2723285,146.888669 C84.4241436,145.72484 86.5370923,144.185509 87.9600755,143.917455 C101.152126,141.429191 101.165722,141.498183 101.165722,127.919046 L101.165722,116.228728 C97.8144605,116.711678 95.2392688,117.096228 92.6618112,117.451371 C90.0537641,117.811038 87.4423181,118.14243 84.4422708,118.537159 L84.4422708,104.722768 Z" id="Fill-6"></path>
            </g>
        </g>
    </g>
</svg>