<svg width="17" height="17" viewBox="0 0 17 17" fill="none" xmlns="http://www.w3.org/2000/svg">
<path d="M13.3572 6.67859H7.89287C7.22224 6.67859 6.67859 7.22224 6.67859 7.89287V13.3572C6.67859 14.0278 7.22224 14.5714 7.89287 14.5714H13.3572C14.0278 14.5714 14.5714 14.0278 14.5714 13.3572V7.89287C14.5714 7.22224 14.0278 6.67859 13.3572 6.67859Z" stroke="#3C3424" stroke-linecap="round" stroke-linejoin="round"/>
<path d="M4.25002 10.3214H3.64287C3.32083 10.3214 3.01197 10.1935 2.78424 9.96579C2.55652 9.73807 2.42859 9.42921 2.42859 9.10716V3.64287C2.42859 3.32083 2.55652 3.01197 2.78424 2.78424C3.01197 2.55652 3.32083 2.42859 3.64287 2.42859H9.10716C9.42921 2.42859 9.73807 2.55652 9.96579 2.78424C10.1935 3.01197 10.3214 3.32083 10.3214 3.64287V4.25002" stroke="#3C3424" stroke-linecap="round" stroke-linejoin="round"/>
</svg>
