<svg width="16" height="16" viewBox="0 0 16 16" fill="none" xmlns="http://www.w3.org/2000/svg">
<path d="M11.0001 3.59258H13.8126C13.9157 3.59258 14.0001 3.5082 14.0001 3.40508C14.0001 3.14883 13.8844 2.90508 13.6876 2.73945L11.2782 0.733203C11.1251 0.605078 10.8344 0.501953 10.6344 0.501953C10.5063 0.501953 10.4032 0.605078 10.4032 0.733203V2.99883C10.4063 3.32695 10.6719 3.59258 11.0001 3.59258Z" fill="#3C3424"/>
<path d="M9.59375 3V0.5H5.5C4.95 0.5 4.5 0.95 4.5 1.5V12C4.5 12.55 4.95 13 5.5 13H13C13.55 13 14 12.55 14 12V4.40625H11C10.225 4.40625 9.59375 3.775 9.59375 3Z" fill="#3C3424"/>
<path d="M3.625 12.875V2.5H3C2.45 2.5 2 2.95 2 3.5V14.5C2 15.05 2.45 15.5 3 15.5H11C11.55 15.5 12 15.05 12 14.5V13.875H4.625C4.075 13.875 3.625 13.425 3.625 12.875Z" fill="#3C3424"/>
</svg>
