<svg width="37" height="37" viewBox="0 0 37 37" fill="none" xmlns="http://www.w3.org/2000/svg">
<path d="M18.4993 25.5648C18.0224 25.5648 17.6353 25.9519 17.6353 26.4288V29.0207C17.6353 29.4976 18.0224 29.8847 18.4993 29.8847C18.9762 29.8847 19.3633 29.4976 19.3633 29.0207V26.4288C19.3633 25.9519 18.9762 25.5648 18.4993 25.5648ZM18.4993 6.54623C18.0224 6.54623 17.6353 6.93334 17.6353 7.41021V10.0021C17.6353 10.479 18.0224 10.8661 18.4993 10.8661C18.9762 10.8661 19.3633 10.479 19.3633 10.0021V7.41021C19.3633 6.93334 18.9762 6.54623 18.4993 6.54623ZM11.1499 18.2155C11.1499 17.7386 10.7628 17.3515 10.286 17.3515H7.69405C7.21718 17.3515 6.83008 17.7386 6.83008 18.2155C6.83008 18.6923 7.21718 19.0794 7.69405 19.0794H10.286C10.7628 19.0794 11.1499 18.6923 11.1499 18.2155ZM29.3046 17.3515H26.7127C26.2358 17.3515 25.8487 17.7386 25.8487 18.2155C25.8487 18.6923 26.2358 19.0794 26.7127 19.0794H29.3046C29.7814 19.0794 30.1685 18.6923 30.1685 18.2155C30.1685 17.7386 29.7814 17.3515 29.3046 17.3515ZM12.6927 23.1581C12.4627 23.1581 12.2439 23.2478 12.0812 23.4105L10.2467 25.2451C10.084 25.4078 9.99424 25.6265 9.99424 25.8566C9.99424 26.0866 10.084 26.3054 10.2467 26.4681C10.4094 26.6308 10.6282 26.7205 10.8582 26.7205C11.0882 26.7205 11.307 26.6308 11.4697 26.4681L13.3043 24.6335C13.6409 24.2969 13.6409 23.7471 13.3043 23.4105C13.1416 23.2478 12.9228 23.1581 12.6927 23.1581ZM24.3059 13.2729C24.5359 13.2729 24.7547 13.1831 24.9174 13.0204L26.7519 11.1859C26.9146 11.0232 27.0044 10.8044 27.0044 10.5744C27.0044 10.3443 26.9146 10.1255 26.7519 9.96285C26.5892 9.80015 26.3704 9.71039 26.1404 9.71039C25.9104 9.71039 25.6916 9.80015 25.5289 9.96285L23.6944 11.7974C23.5317 11.9601 23.4419 12.1789 23.4419 12.4089C23.4419 12.6389 23.5317 12.8577 23.6944 13.0204C23.8571 13.1831 24.0759 13.2729 24.3059 13.2729ZM11.4697 9.96285C11.307 9.80015 11.0882 9.71039 10.8582 9.71039C10.6282 9.71039 10.4094 9.80015 10.2467 9.96285C10.084 10.1255 9.99424 10.3443 9.99424 10.5744C9.99424 10.8044 10.084 11.0232 10.2467 11.1859L12.0812 13.0204C12.2439 13.1831 12.4627 13.2729 12.6927 13.2729C12.9228 13.2729 13.1416 13.1831 13.3043 13.0204C13.467 12.8577 13.5567 12.6389 13.5567 12.4089C13.5567 12.1789 13.467 11.9601 13.3043 11.7974L11.4697 9.96285ZM24.9174 23.4105C24.7547 23.2478 24.5359 23.1581 24.3059 23.1581C24.0759 23.1581 23.8571 23.2478 23.6944 23.4105C23.3577 23.7471 23.3577 24.2969 23.6944 24.6335L25.5289 26.4681C25.6916 26.6308 25.9104 26.7205 26.1404 26.7205C26.3704 26.7205 26.5892 26.6308 26.7519 26.4681C26.9146 26.3054 27.0044 26.0866 27.0044 25.8566C27.0044 25.6265 26.9146 25.4078 26.7519 25.2451L24.9174 23.4105Z" fill="#F6F7F7"/>
<path d="M18.5 13C15.4618 13 13 15.4618 13 18.5C13 21.5382 15.4618 24 18.5 24C21.5382 24 24 21.5382 24 18.5C24 15.4618 21.5382 13 18.5 13ZM21.8661 21.8661C20.9671 22.7651 19.7719 23.2596 18.5 23.2596V13.7404C19.7719 13.7404 20.9671 14.2349 21.8661 15.1339C22.7651 16.0329 23.2596 17.2281 23.2596 18.5C23.2596 19.7719 22.7651 20.9671 21.8661 21.8661Z" fill="#F6F7F7"/>
</svg>
