<svg xmlns="http://www.w3.org/2000/svg" xmlns:xlink="http://www.w3.org/1999/xlink" viewBox="0 0 100 100"><defs><style>.cls-1{fill:none;}.cls-2{clip-path:url(#clip-path);}.cls-3{fill:#23abe3;}.cls-4{fill:#ef7d3b;}.cls-5{fill:#fff;}</style><clipPath id="clip-path"><rect class="cls-1" x="-137.07" width="99.83" height="99.83"/></clipPath></defs><g id="Circuit_Diagram" data-name="Circuit Diagram"><g class="cls-2"><polygon class="cls-3" points="-36.09 73.18 -85.54 48.53 -169.94 92.07 -82.35 140.58 2.42 91.47 -36.09 73.18"/><path class="cls-3" d="M-82.35,141.08a.53.53,0,0,1-.24-.06l-87.59-48.51a.51.51,0,0,1-.26-.45.51.51,0,0,1,.27-.43l84.4-43.55a.53.53,0,0,1,.46,0l49.44,24.65L2.63,91a.5.5,0,0,1,.29.43.5.5,0,0,1-.25.45L-82.1,141A.43.43,0,0,1-82.35,141.08Zm-86.53-49L-82.35,140,1.34,91.51-36.31,73.63h0L-85.53,49.09Z"/><path class="cls-3" d="M-108.33,155.07a7.32,7.32,0,0,1-2.74-.53l-.07,0L-239.28,76.86a2.44,2.44,0,0,1-1.08-1.55A4.44,4.44,0,0,1-240,72.2a6.42,6.42,0,0,1,3.3-2.31l.24-.11c.62-.26,117.85-54.38,121.25-56.08l3.41-1.71c.42-.21.84-.44,1.26-.68a10.6,10.6,0,0,1,5-1.76c1.65,0,3.73,1.2,5.74,2.36.79.46,1.53.89,2.24,1.24l63.2,31.63c6.84,3.43,52.14,26.09,58.12,29.07a2.63,2.63,0,0,1,1.4,2A4.38,4.38,0,0,1,24,79.46l-.1.08c-1.14.66-114.4,66.66-129.81,75A5.12,5.12,0,0,1-108.33,155.07Zm-2.32-1.43a5.61,5.61,0,0,0,4.27,0c15.26-8.24,126.6-73.11,129.73-74.93a3.46,3.46,0,0,0,.81-2.7,1.58,1.58,0,0,0-.86-1.27c-6-3-51.28-25.64-58.11-29.06L-98,14c-.73-.36-1.52-.82-2.29-1.26-1.89-1.1-3.86-2.23-5.24-2.23a9.75,9.75,0,0,0-4.52,1.64c-.44.24-.87.48-1.3.69l-3.41,1.71c-3.41,1.71-120.69,55.85-121.31,56.11l-.25.11a5.7,5.7,0,0,0-2.82,1.9,3.42,3.42,0,0,0-.23,2.34,1.43,1.43,0,0,0,.62.94Z"/></g></g><g id="simple_illo" data-name="simple illo"><path class="cls-3" d="M68.09,14.52l-10-10a.75.75,0,0,0-.53-.22H30.8a.74.74,0,0,0-.75.75V19.29a.72.72,0,0,0,.22.53l10,10a.75.75,0,0,0,.53.22H67.56a.92.92,0,0,0,.28-.05.76.76,0,0,0,.47-.7V15.05A.75.75,0,0,0,68.09,14.52ZM41.23,20l8.5,8.5H46.27L37.77,20Zm2.13,0h3.08l8.5,8.5H51.86Zm5.2,0h3.25l8.5,8.5H57.06Zm5.37,0h3.32l8.5,8.5H62.43Zm12.88,7.44L58.31,19V6.86l8.5,8.5ZM31.55,5.8H56.81V18.54H31.55ZM32.61,20h3l8.5,8.5h-3Z"/><path class="cls-3" d="M82.78,54.07l-8-8a.72.72,0,0,0-.53-.22H30.54a.75.75,0,0,0-.75.75V62.88a.72.72,0,0,0,.22.53l8,8a.71.71,0,0,0,.53.22H82.25a.74.74,0,0,0,.75-.75V54.6A.75.75,0,0,0,82.78,54.07Zm-1.28,15L75,62.57V48.41l6.5,6.5ZM31.29,47.35H73.5V62.13H31.29Zm1.06,16.28H73.94l6.5,6.5H38.85Z"/><path class="cls-3" d="M96.16,27.26a.75.75,0,0,0-.22-.53l-6-6a1,1,0,0,0-.21-.15l-.07,0a.71.71,0,0,0-.2,0H73.93a.75.75,0,0,0-.75.75V36.74s0,0,0,0a.71.71,0,0,0,0,.2s0,0,0,.07a.62.62,0,0,0,.15.21l6,6a.75.75,0,0,0,.53.22H95.41a.75.75,0,0,0,.26-.05h0l.06,0,.1-.06.08-.07.07-.08.06-.1,0-.06v0a.45.45,0,0,0,0-.11s0-.07,0-.11V27.26ZM74.68,22h14V36h-14Z"/><ellipse class="cls-3" cx="38.54" cy="65.52" rx="0.73" ry="1.76" transform="matrix(0.29, -0.96, 0.96, 0.29, -35.32, 83.48)"/><ellipse class="cls-3" cx="43.37" cy="65.52" rx="0.73" ry="1.76" transform="matrix(0.29, -0.96, 0.96, 0.29, -31.89, 88.1)"/><ellipse class="cls-3" cx="48.2" cy="65.52" rx="0.73" ry="1.76" transform="translate(-28.46 92.73) rotate(-73.2)"/><ellipse class="cls-3" cx="53.03" cy="65.52" rx="0.73" ry="1.76" transform="translate(-25.02 97.35) rotate(-73.2)"/><ellipse class="cls-3" cx="57.87" cy="65.52" rx="0.73" ry="1.76" transform="translate(-21.59 101.98) rotate(-73.2)"/><ellipse class="cls-3" cx="62.7" cy="65.52" rx="0.73" ry="1.76" transform="translate(-18.15 106.6) rotate(-73.2)"/><ellipse class="cls-3" cx="67.53" cy="65.52" rx="0.73" ry="1.76" transform="translate(-14.72 111.23) rotate(-73.2)"/><ellipse class="cls-3" cx="72.36" cy="65.52" rx="0.73" ry="1.76" transform="translate(-11.29 115.85) rotate(-73.2)"/><ellipse class="cls-3" cx="41.14" cy="68.24" rx="0.73" ry="1.76" transform="translate(-36.08 87.9) rotate(-73.2)"/><ellipse class="cls-3" cx="45.97" cy="68.24" rx="0.73" ry="1.76" transform="translate(-32.65 92.52) rotate(-73.2)"/><ellipse class="cls-3" cx="50.8" cy="68.24" rx="0.73" ry="1.76" transform="translate(-29.22 97.15) rotate(-73.2)"/><ellipse class="cls-3" cx="55.63" cy="68.24" rx="0.73" ry="1.76" transform="translate(-25.78 101.77) rotate(-73.2)"/><ellipse class="cls-3" cx="60.46" cy="68.24" rx="0.73" ry="1.76" transform="translate(-22.35 106.4) rotate(-73.2)"/><ellipse class="cls-3" cx="65.29" cy="68.24" rx="0.73" ry="1.76" transform="translate(-18.91 111.02) rotate(-73.2)"/><ellipse class="cls-3" cx="70.12" cy="68.24" rx="0.73" ry="1.76" transform="matrix(0.29, -0.96, 0.96, 0.29, -15.48, 115.65)"/><ellipse class="cls-3" cx="74.95" cy="68.24" rx="0.73" ry="1.76" transform="translate(-12.05 120.27) rotate(-73.2)"/><ellipse class="cls-3" cx="76.89" cy="55.03" rx="0.73" ry="1.76" transform="translate(-12.62 24.58) rotate(-16.8)"/><ellipse class="cls-3" cx="76.89" cy="59.86" rx="0.73" ry="1.76" transform="translate(-14.02 24.78) rotate(-16.8)"/><ellipse class="cls-3" cx="79.61" cy="57.62" rx="0.73" ry="1.76" transform="translate(-13.26 25.47) rotate(-16.8)"/><ellipse class="cls-3" cx="79.61" cy="62.45" rx="0.73" ry="1.76" transform="translate(-14.65 25.68) rotate(-16.8)"/><path class="cls-3" d="M100,78.16V0H0L-.57,100H100V78.16Zm-1.5-1.5-74.32.09V1.5H98.5ZM91,82H83.56V78.18H91Zm-9.13,0H74.43V78.19h7.44Zm-9.12,0H65.31V78.2h7.44Zm-9.13,0H56.18V78.21h7.44ZM54.5,82H47.05V78.22H54.5Zm-9.13,0H37.93V78.23h7.44Zm-9.13,0H28.8V78.24h7.44Zm-9.12,0H19.49l4.22-3.7h3.41ZM22.68,28.24v7.44H18.15l0-7.44ZM18.2,26.56l.05-7.44h4.43v7.44Zm4.48,10.81v7.44H18.1l0-7.44Zm0,9.12v7.45H18.05l0-7.45Zm0,9.13v7.44H18L18,55.62Zm0,9.13v7.44H17.94l0-7.44Zm0,9.12v3.29l-4.79,4.2,0-7.49Zm0-56.44H18.26l0-7.44h4.38Zm-4.79,64,.47.53h-.47ZM22.68,1.5V8.31H18.31l0-6.81ZM98.5,82H92.68V78.17H98.5Z"/><circle class="cls-4" cx="81.67" cy="32.64" r="2.12"/><path class="cls-4" d="M86.22,30a.74.74,0,0,1-.53-.22,5.7,5.7,0,0,0-8,0,.75.75,0,0,1-1.06,0,.74.74,0,0,1,0-1.06,7.19,7.19,0,0,1,10.16,0,.74.74,0,0,1,0,1.06A.73.73,0,0,1,86.22,30Z"/><path class="cls-4" d="M88.72,27.5a.74.74,0,0,1-.53-.22,9.24,9.24,0,0,0-13,0,.75.75,0,0,1-1.06-1.06,10.73,10.73,0,0,1,15.16,0,.74.74,0,0,1,0,1.06A.73.73,0,0,1,88.72,27.5Z"/><circle class="cls-4" cx="49.69" cy="54.78" r="2.12"/><path class="cls-4" d="M53.08,60.08a.71.71,0,0,1-.53-.22.74.74,0,0,1,0-1.06,5.7,5.7,0,0,0,0-8,.75.75,0,1,1,1.06-1.07,7.21,7.21,0,0,1,0,10.17A.74.74,0,0,1,53.08,60.08Z"/><path class="cls-4" d="M55.58,62.58a.71.71,0,0,1-.53-.22.74.74,0,0,1,0-1.06,9.22,9.22,0,0,0,0-13,.75.75,0,0,1,1.06-1.06,10.73,10.73,0,0,1,0,15.16A.74.74,0,0,1,55.58,62.58Z"/><circle class="cls-4" cx="45.43" cy="12.17" r="2.12"/><path class="cls-4" d="M42.05,17.47a.71.71,0,0,1-.53-.22,7.18,7.18,0,0,1,0-10.16.74.74,0,0,1,1.06,0,.75.75,0,0,1,0,1.06,5.67,5.67,0,0,0,0,8,.75.75,0,0,1,0,1.06A.74.74,0,0,1,42.05,17.47Z"/><path class="cls-4" d="M39.55,20a.71.71,0,0,1-.53-.22A10.73,10.73,0,0,1,39,4.59a.75.75,0,0,1,1.06,1.06,9.22,9.22,0,0,0,0,13,.75.75,0,0,1,0,1.06A.74.74,0,0,1,39.55,20Z"/><path class="cls-5" d="M15.24,33.16H11A1.81,1.81,0,0,0,9.18,35V54.74A1.81,1.81,0,0,0,11,56.55h4.25a1.81,1.81,0,0,0,1.81-1.81V35A1.81,1.81,0,0,0,15.24,33.16ZM11,34.66h4.25a.31.31,0,0,1,.31.31v1.15H10.68V35A.31.31,0,0,1,11,34.66Zm4.56,3V52.08H10.68V37.62Zm-.31,17.43H11a.31.31,0,0,1-.31-.31V53.58h4.87v1.16A.31.31,0,0,1,15.24,55.05Z"/><path class="cls-5" d="M87.76,82.34H79.11a1.81,1.81,0,0,0-1.81,1.81v4a1.81,1.81,0,0,0,1.81,1.81h8.65a1.82,1.82,0,0,0,1.81-1.81v-4A1.82,1.82,0,0,0,87.76,82.34Zm-3.44,1.5v4.59H83V83.84Zm-5.24,4.58a.8.8,0,0,0,.6-.77.82.82,0,0,0-.81-.82l-.07,0V85.42l.07,0a.82.82,0,0,0,.81-.82.8.8,0,0,0-.6-.77h2.38v4.59H79.08Zm6.74,0V83.84h2a.79.79,0,0,0-.61.77.82.82,0,0,0,.81.82l.09,0v1.43l-.09,0a.82.82,0,0,0-.81.82.8.8,0,0,0,.61.77h-2Z"/><path class="cls-5" d="M47.7,92.14H39.05A1.81,1.81,0,0,0,37.24,94v4a1.81,1.81,0,0,0,1.81,1.81H47.7a1.82,1.82,0,0,0,1.81-1.81V94A1.82,1.82,0,0,0,47.7,92.14Zm-3.44,1.5v4.59H42.9V93.64ZM39,98.22a.8.8,0,0,0,.6-.77.82.82,0,0,0-.81-.82l-.07,0V95.22l.07,0a.82.82,0,0,0,.81-.82.8.8,0,0,0-.6-.77H41.4v4.59H39Zm6.74,0V93.64h2a.8.8,0,0,0-.61.77.82.82,0,0,0,.81.82l.09,0v1.43l-.09,0a.82.82,0,0,0-.81.82.79.79,0,0,0,.61.77h-2Z"/><rect class="cls-5" x="8.48" y="50" width="0.91" height="2"/><rect class="cls-5" x="8.48" y="55" width="0.91" height="2"/><rect class="cls-5" x="8.48" y="65" width="0.91" height="2"/><rect class="cls-5" x="8.48" y="60" width="0.91" height="2"/><rect class="cls-5" x="8.48" y="75" width="0.91" height="2"/><rect class="cls-5" x="8.48" y="70" width="0.91" height="2"/><rect class="cls-5" x="8.48" y="45" width="0.91" height="2"/><rect class="cls-5" x="8.48" y="35" width="0.91" height="2"/><rect class="cls-5" x="8.48" y="10" width="0.91" height="2"/><rect class="cls-5" x="8.48" y="5" width="0.91" height="2"/><rect class="cls-5" x="8.48" width="0.91" height="2"/><rect class="cls-5" x="8.48" y="15" width="0.91" height="2"/><rect class="cls-5" x="8.48" y="30" width="0.91" height="2"/><rect class="cls-5" x="8.48" y="20" width="0.91" height="2"/><rect class="cls-5" x="8.48" y="40" width="0.91" height="2"/><rect class="cls-5" x="8.48" y="25" width="0.91" height="2"/><rect class="cls-5" x="83" y="90.67" width="2" height="0.91"/><rect class="cls-5" x="78" y="90.67" width="2" height="0.91"/><rect class="cls-5" x="73" y="90.67" width="2" height="0.91"/><rect class="cls-5" x="58" y="90.67" width="2" height="0.91"/><rect class="cls-5" x="68" y="90.67" width="2" height="0.91"/><rect class="cls-5" x="98" y="90.67" width="2" height="0.91"/><rect class="cls-5" x="93" y="90.67" width="2" height="0.91"/><rect class="cls-5" x="88" y="90.67" width="2" height="0.91"/><rect class="cls-5" x="63" y="90.67" width="2" height="0.91"/><rect class="cls-5" x="33" y="90.67" width="2" height="0.91"/><rect class="cls-5" x="38" y="90.67" width="2" height="0.91"/><rect class="cls-5" x="28" y="90.67" width="2" height="0.91"/><rect class="cls-5" x="23" y="90.67" width="2" height="0.91"/><rect class="cls-5" x="48" y="90.67" width="2" height="0.91"/><rect class="cls-5" x="53" y="90.67" width="2" height="0.91"/><rect class="cls-5" x="43" y="90.67" width="2" height="0.91"/><path class="cls-5" d="M19.11,82a.75.75,0,0,0-.75-.75h-9V80H8.48v1.2H0v1.5H8.19v7.8H0V92H8.19v8h1.5V92h7.92v8h1.5V91.58H20v-.91h-.89ZM9.69,90.5V82.7h7.92v7.8Z"/><circle class="cls-4" cx="12.73" cy="43.01" r="2.12"/><path class="cls-4" d="M12.73,49a7.16,7.16,0,0,1-5.08-2.1.75.75,0,0,1,0-1.06.74.74,0,0,1,1.06,0,5.7,5.7,0,0,0,8,0,.75.75,0,1,1,1.06,1.06A7.16,7.16,0,0,1,12.73,49Z"/><path class="cls-4" d="M12.73,52.56a10.67,10.67,0,0,1-7.58-3.13.77.77,0,0,1,0-1.07.75.75,0,0,1,1.06,0,9.2,9.2,0,0,0,13,0,.75.75,0,1,1,1.06,1.07A10.67,10.67,0,0,1,12.73,52.56Z"/></g></svg>