<?xml version="1.0" encoding="utf-8"?>
<!-- Generator: Adobe Illustrator 24.1.2, SVG Export Plug-In . SVG Version: 6.00 Build 0)  -->
<svg version="1.1" id="Layer_1" xmlns="http://www.w3.org/2000/svg" xmlns:xlink="http://www.w3.org/1999/xlink" x="0px" y="0px"
	 viewBox="0 0 100 61.8" style="enable-background:new 0 0 100 61.8;" xml:space="preserve">
<style type="text/css">
	.st0{fill:#EF7D3B;}
	.st1{fill:#23ABE3;}
	.st2{fill:none;}
</style>
<g id="simple_illo">
	<path class="st0" d="M63.8,4.9h-2.6V4.9c0-1.9-1.6-3.5-3.5-3.5s-3.5,1.6-3.5,3.5v0.1h-2.6c-1.4,0-2.5,1.1-2.5,2.5v0v46.4
		c0,1.4,1.1,2.5,2.5,2.5h12.2c1.4,0,2.5-1.1,2.5-2.5V7.4C66.3,6.1,65.2,4.9,63.8,4.9z M65.2,12.7v6.8h-5.5v-1.1h1.1v-4.5h-1.1v-1.1
		H65.2z M55.2,20.8h5v5h-5V20.8z M52.2,16.1v-3.4h5v3.4L52.2,16.1z M63.1,7.4c0.5,0,0.8,0.4,0.8,0.8c0,0.5-0.4,0.8-0.8,0.8
		s-0.8-0.4-0.8-0.8C62.3,7.8,62.7,7.4,63.1,7.4C63.1,7.4,63.2,7.4,63.1,7.4L63.1,7.4z M55.2,4.9c0-1.4,1.1-2.5,2.5-2.5
		s2.5,1.1,2.5,2.5V8h-5V4.9z M52.2,7.4c0.5,0,0.8,0.4,0.8,0.8c0,0.5-0.4,0.8-0.8,0.8s-0.8-0.4-0.8-0.8C51.4,7.8,51.8,7.4,52.2,7.4
		C52.2,7.4,52.3,7.4,52.2,7.4L52.2,7.4z M50.2,45.1V12.7h1.3v32.4H50.2z M52.2,54c-0.5,0-0.8-0.4-0.8-0.8c0-0.5,0.4-0.8,0.8-0.8
		s0.8,0.4,0.8,0.8C53,53.6,52.7,54,52.2,54L52.2,54z M59.6,51.4h-4v-4h4V51.4z M60.2,45.3h-5v-4h5V45.3z M61.3,37.4h-7.2v-7.3h7.3
		L61.3,37.4z M63.1,54c-0.5,0-0.8-0.4-0.8-0.8c0-0.5,0.4-0.8,0.8-0.8s0.8,0.4,0.8,0.8C63.9,53.6,63.6,54,63.1,54L63.1,54z
		 M65.2,45.1H64V20.9h1.2L65.2,45.1z"/>
	<path class="st1" d="M94.8,40.3H73.4c-0.9,0-1.6-0.7-1.6-1.6c0,0,0,0,0,0V10.4c0-0.9,0.7-1.6,1.6-1.6h21.4c0.9,0,1.6,0.7,1.6,1.6
		v28.2C96.5,39.5,95.8,40.3,94.8,40.3C94.8,40.3,94.8,40.3,94.8,40.3z M73.4,10c-0.2,0-0.4,0.2-0.4,0.4v28.2c0,0.2,0.2,0.4,0.4,0.4
		h21.4c0.2,0,0.4-0.2,0.4-0.4V10.4c0-0.2-0.2-0.4-0.4-0.4H73.4z"/>
	<path class="st1" d="M95.8,16.1H72.4V9.4H95c0.5,0,0.9,0.4,0.9,0.9c0,0,0,0,0,0L95.8,16.1z"/>
	<polygon class="st1" points="69.9,15.3 66.2,15.3 66.2,14.1 68.6,14.1 68.6,4.9 84.8,4.9 84.8,9.4 83.5,9.4 83.5,6.2 69.9,6.2 	"/>
	<path class="st1" d="M83,56.3H72.8V43H83V56.3z M74,55.1h7.7V44.2H74V55.1z"/>
	<polygon class="st1" points="72.8,50.3 68.8,50.3 68.8,41.3 66.2,41.3 66.2,40 70.1,40 70.1,49 72.8,49 	"/>
	<rect x="56.5" y="22.1" class="st0" width="2.5" height="2.5"/>
	<rect x="55.3" y="31.3" class="st0" width="4.8" height="4.8"/>
	<rect x="56.5" y="42.6" class="st0" width="2.5" height="1.5"/>
	<path class="st1" d="M50.6,18.4l-3.9-0.1c-0.3,0-0.6-0.3-0.6-0.6V9.6h-12c-0.3,0-0.6-0.4-0.5-0.7c0-0.3,0.3-0.5,0.5-0.5h12.6
		c0.3,0,0.6,0.3,0.6,0.6v8.2l3.2,0.1c0.3,0,0.7,0.2,0.7,0.5c0,0.3-0.2,0.7-0.5,0.7C50.7,18.4,50.6,18.4,50.6,18.4z"/>
	<path class="st1" d="M50.7,25.8c-0.1,0-0.2,0-0.2,0l-16.6-6.3c-0.3-0.1-0.5-0.5-0.3-0.8c0.1-0.3,0.5-0.5,0.8-0.3L51,24.6
		c0.3,0.1,0.5,0.5,0.3,0.8c0,0,0,0,0,0C51.2,25.7,51,25.8,50.7,25.8z"/>
	<path class="st1" d="M50.7,32.7h-0.1l-10.4-3.1c-0.3-0.1-0.5-0.4-0.5-0.7c0.1-0.3,0.4-0.6,0.7-0.5c0,0,0,0,0,0l10.4,3.1
		c0.3,0.1,0.5,0.4,0.5,0.8C51.2,32.5,50.9,32.7,50.7,32.7L50.7,32.7z"/>
	<path class="st1" d="M40.4,49.5c-0.3,0-0.6-0.3-0.6-0.6c0-0.3,0.2-0.5,0.4-0.6l10.2-4.3c0.3-0.1,0.7,0.1,0.8,0.4
		c0.1,0.3,0,0.6-0.3,0.7l-10.2,4.3C40.5,49.4,40.4,49.5,40.4,49.5z"/>
	<path class="st1" d="M40.4,46.2c-0.2,0-0.5-0.1-0.6-0.4c-0.1-0.3,0-0.7,0.3-0.8l10.2-3.9c0.3-0.1,0.7,0,0.8,0.3
		c0.1,0.3,0,0.7-0.3,0.8l-10.2,3.9C40.5,46.2,40.4,46.2,40.4,46.2z"/>
	<circle class="st1" cx="77.9" cy="52.2" r="1.7"/>
	<circle class="st1" cx="11.9" cy="23.7" r="0.8"/>
	<circle class="st1" cx="31.2" cy="23.7" r="0.8"/>
	<circle class="st1" cx="11.9" cy="38.1" r="0.8"/>
	<circle class="st1" cx="31.2" cy="38.1" r="0.8"/>
	<path class="st1" d="M34.3,41.3H8.8V20.6h25.5V41.3z M10,40h23V21.8H10V40z"/>
	<rect x="13.7" y="21.2" class="st1" width="15.2" height="19.4"/>
	<path class="st1" d="M22.6,15h3.8c0.1,0,0.2,0.1,0.2,0.2v3.8c0,0.1-0.1,0.2-0.2,0.2h-3.8c-0.1,0-0.2-0.1-0.2-0.2v-3.8
		C22.3,15.1,22.4,15,22.6,15z"/>
	<path class="st1" d="M16.7,8.8L16.7,8.8c0-1.5,1.2-2.6,2.6-2.6c0,0,0,0,0,0h3.8c0.7,0,1.3,0.6,1.3,1.3v2.7c0,0.7-0.6,1.3-1.4,1.3
		h-3.8C17.9,11.5,16.7,10.3,16.7,8.8z"/>
	<polygon class="st1" points="24.9,7.7 23.9,7 25,5 28.3,5 28.3,6.2 25.7,6.2 	"/>
	<polygon class="st1" points="28.3,12.9 25,12.9 23.9,10.9 24.9,10.2 25.7,11.7 28.3,11.7 	"/>
	<rect x="24.5" y="8.3" class="st1" width="3.7" height="1.2"/>
	<path class="st1" d="M34.3,57.5H14.6V43.2h19.7V57.5z M15.9,56.2H33V44.5H15.9V56.2z"/>
	<circle class="st1" cx="20" cy="48.3" r="0.8"/>
	<circle class="st1" cx="20" cy="52.4" r="0.8"/>
	<path class="st1" d="M30.7,48.6h-2.9v-1.3c0-1-0.8-1.9-1.9-1.9h-7c-1,0-1.9,0.8-1.9,1.9v5.8c0,1,0.8,1.9,1.9,1.9c0,0,0,0,0,0h7
		c1,0,1.9-0.8,1.9-1.9v-1.2h2.9c0.9,0,1.7-0.7,1.7-1.7C32.4,49.3,31.7,48.6,30.7,48.6L30.7,48.6z M26.6,53.1c0,0.3-0.3,0.6-0.6,0.6
		h-7c-0.3,0-0.6-0.3-0.6-0.6v-5.8c0-0.3,0.3-0.6,0.6-0.7c0,0,0,0,0,0h7c0.3,0,0.6,0.3,0.6,0.6v1.4h-0.8c0-0.1,0.1-0.2,0.1-0.3
		c0-0.5-0.4-0.8-0.8-0.8s-0.8,0.4-0.8,0.8c0,0.1,0,0.2,0.1,0.3h-1.8c-0.9,0-1.7,0.7-1.7,1.7c0,0.9,0.7,1.7,1.7,1.7h1.9
		c-0.1,0.1-0.2,0.3-0.2,0.5c0,0.5,0.4,0.8,0.8,0.8s0.8-0.4,0.8-0.8c0-0.2-0.1-0.3-0.2-0.5h0.9V53.1z"/>
	<polygon class="st2" points="7.1,59.1 42.6,59.1 42.6,2.2 6.3,2.2 6.3,58.2 6.6,58.2 	"/>
	<circle class="st1" cx="14.9" cy="5.6" r="0.8"/>
	<circle class="st1" cx="14.9" cy="8.9" r="0.8"/>
	<circle class="st1" cx="14.9" cy="15.6" r="0.8"/>
	<circle class="st1" cx="14.9" cy="18.9" r="0.8"/>
	<circle class="st1" cx="14.9" cy="12.3" r="0.8"/>
	<circle class="st1" cx="18.1" cy="5.6" r="0.8"/>
	<circle class="st1" cx="18.1" cy="8.9" r="0.8"/>
	<circle class="st1" cx="18.1" cy="15.6" r="0.8"/>
	<circle class="st1" cx="18.1" cy="18.9" r="0.8"/>
	<circle class="st1" cx="18.1" cy="12.3" r="0.8"/>
	<circle class="st1" cx="21.1" cy="5.6" r="0.8"/>
	<circle class="st1" cx="21.1" cy="8.9" r="0.8"/>
	<circle class="st1" cx="21.1" cy="15.6" r="0.8"/>
	<circle class="st1" cx="21.1" cy="18.9" r="0.8"/>
	<circle class="st1" cx="21.1" cy="12.3" r="0.8"/>
	<circle class="st1" cx="14.9" cy="18.9" r="0.8"/>
	<circle class="st1" cx="14.9" cy="22.3" r="0.8"/>
	<circle class="st1" cx="14.9" cy="29" r="0.8"/>
	<circle class="st1" cx="14.9" cy="32.3" r="0.8"/>
	<circle class="st1" cx="14.9" cy="25.6" r="0.8"/>
	<circle class="st1" cx="18.1" cy="18.9" r="0.8"/>
	<circle class="st1" cx="18.1" cy="22.3" r="0.8"/>
	<circle class="st1" cx="18.1" cy="29" r="0.8"/>
	<circle class="st1" cx="18.1" cy="32.3" r="0.8"/>
	<circle class="st1" cx="18.1" cy="25.6" r="0.8"/>
	<circle class="st1" cx="21.1" cy="18.9" r="0.8"/>
	<circle class="st1" cx="21.1" cy="22.3" r="0.8"/>
	<circle class="st1" cx="21.1" cy="29" r="0.8"/>
	<circle class="st1" cx="21.1" cy="32.3" r="0.8"/>
	<circle class="st1" cx="21.1" cy="25.6" r="0.8"/>
	<circle class="st1" cx="14.9" cy="32.3" r="0.8"/>
	<circle class="st1" cx="14.9" cy="35.6" r="0.8"/>
	<circle class="st1" cx="14.9" cy="39" r="0.8"/>
	<circle class="st1" cx="18.1" cy="32.3" r="0.8"/>
	<circle class="st1" cx="18.1" cy="35.6" r="0.8"/>
	<circle class="st1" cx="18.1" cy="39" r="0.8"/>
	<circle class="st1" cx="21.1" cy="32.3" r="0.8"/>
	<circle class="st1" cx="21.1" cy="35.6" r="0.8"/>
	<circle class="st1" cx="21.1" cy="39" r="0.8"/>
	<circle class="st1" cx="28" cy="5.6" r="0.8"/>
	<circle class="st1" cx="28" cy="8.9" r="0.8"/>
	<circle class="st1" cx="28" cy="15.6" r="0.8"/>
	<circle class="st1" cx="28" cy="18.9" r="0.8"/>
	<circle class="st1" cx="28" cy="12.3" r="0.8"/>
	<circle class="st1" cx="31.2" cy="5.6" r="0.8"/>
	<circle class="st1" cx="31.2" cy="8.9" r="0.8"/>
	<circle class="st1" cx="31.2" cy="15.6" r="0.8"/>
	<circle class="st1" cx="31.2" cy="18.9" r="0.8"/>
	<circle class="st1" cx="31.2" cy="12.3" r="0.8"/>
	<circle class="st1" cx="34.2" cy="5.6" r="0.8"/>
	<circle class="st1" cx="34.2" cy="8.9" r="0.8"/>
	<circle class="st1" cx="34.2" cy="15.6" r="0.8"/>
	<circle class="st1" cx="34.2" cy="18.9" r="0.8"/>
	<circle class="st1" cx="34.2" cy="12.3" r="0.8"/>
	<circle class="st1" cx="28" cy="18.9" r="0.8"/>
	<circle class="st1" cx="28" cy="22.3" r="0.8"/>
	<circle class="st1" cx="28" cy="29" r="0.8"/>
	<circle class="st1" cx="28" cy="32.3" r="0.8"/>
	<circle class="st1" cx="28" cy="25.6" r="0.8"/>
	<circle class="st1" cx="31.2" cy="18.9" r="0.8"/>
	<circle class="st1" cx="34.2" cy="18.9" r="0.8"/>
	<circle class="st1" cx="34.2" cy="22.3" r="0.8"/>
	<circle class="st1" cx="34.2" cy="29" r="0.8"/>
	<circle class="st1" cx="34.2" cy="32.3" r="0.8"/>
	<circle class="st1" cx="34.2" cy="25.6" r="0.8"/>
	<circle class="st1" cx="28" cy="32.3" r="0.8"/>
	<circle class="st1" cx="28" cy="35.6" r="0.8"/>
	<circle class="st1" cx="28" cy="39" r="0.8"/>
	<circle class="st1" cx="34.2" cy="32.3" r="0.8"/>
	<circle class="st1" cx="34.2" cy="35.6" r="0.8"/>
	<circle class="st1" cx="34.2" cy="39" r="0.8"/>
	<circle class="st1" cx="34.2" cy="45.6" r="0.8"/>
	<circle class="st1" cx="34.2" cy="42.3" r="0.8"/>
	<circle class="st1" cx="34.2" cy="49" r="0.8"/>
	<circle class="st1" cx="34.2" cy="52.3" r="0.8"/>
	<circle class="st1" cx="34.2" cy="55.6" r="0.8"/>
	<circle class="st1" cx="8.9" cy="22.3" r="0.8"/>
	<circle class="st1" cx="8.9" cy="29" r="0.8"/>
	<circle class="st1" cx="8.9" cy="25.6" r="0.8"/>
	<circle class="st1" cx="8.9" cy="32.3" r="0.8"/>
	<circle class="st1" cx="8.9" cy="35.6" r="0.8"/>
	<circle class="st1" cx="8.9" cy="39" r="0.8"/>
	<circle class="st1" cx="40.2" cy="5.6" r="0.8"/>
	<circle class="st1" cx="40.2" cy="8.9" r="0.8"/>
	<circle class="st1" cx="40.2" cy="15.6" r="0.8"/>
	<circle class="st1" cx="40.2" cy="18.9" r="0.8"/>
	<circle class="st1" cx="40.2" cy="12.3" r="0.8"/>
	<circle class="st1" cx="40.2" cy="22.3" r="0.8"/>
	<circle class="st1" cx="40.2" cy="29" r="0.8"/>
	<circle class="st1" cx="40.2" cy="32.3" r="0.8"/>
	<circle class="st1" cx="40.2" cy="25.6" r="0.8"/>
	<circle class="st1" cx="40.2" cy="32.3" r="0.8"/>
	<circle class="st1" cx="40.2" cy="35.6" r="0.8"/>
	<circle class="st1" cx="40.2" cy="42.3" r="0.8"/>
	<circle class="st1" cx="40.2" cy="45.6" r="0.8"/>
	<circle class="st1" cx="40.2" cy="39" r="0.8"/>
	<circle class="st1" cx="40.2" cy="49" r="0.8"/>
	<circle class="st1" cx="40.2" cy="55.6" r="0.8"/>
	<circle class="st1" cx="40.2" cy="52.3" r="0.8"/>
	<circle class="st1" cx="8.9" cy="5.6" r="0.8"/>
	<circle class="st1" cx="8.9" cy="8.9" r="0.8"/>
	<circle class="st1" cx="8.9" cy="15.6" r="0.8"/>
	<circle class="st1" cx="8.9" cy="18.9" r="0.8"/>
	<circle class="st1" cx="8.9" cy="12.3" r="0.8"/>
	<circle class="st1" cx="8.9" cy="42.3" r="0.8"/>
	<circle class="st1" cx="8.9" cy="45.6" r="0.8"/>
	<circle class="st1" cx="8.9" cy="49" r="0.8"/>
	<circle class="st1" cx="8.9" cy="55.6" r="0.8"/>
	<circle class="st1" cx="8.9" cy="52.3" r="0.8"/>
	<path class="st1" d="M8.7,0.9H5.1v1.7l0,0v57.6h38.8V0.9H8.7z M36.5,59.1H25.7v-1.8h-2.2v1.8h-11V40.6h-1.2v18.4H6.3V2.2h4.9v19
		h1.2v-19h11v41.1h2.2V2.2h10.8V59.1z M42.6,59.1h-4.9V2.2h4.9V59.1z"/>
</g>
</svg>
