<svg xmlns="http://www.w3.org/2000/svg" xmlns:xlink="http://www.w3.org/1999/xlink" viewBox="0 0 100 100"><defs><style>.cls-1{fill:none;}.cls-2{fill:#23abe3;}.cls-3{clip-path:url(#clip-path);}.cls-4{fill:#fff;}.cls-5{fill:#ef7d3b;}</style><clipPath id="clip-path"><rect class="cls-1" width="99.83" height="99.83"/></clipPath></defs><g id="Circuit_Diagram" data-name="Circuit Diagram"><path class="cls-2" d="M98.5,1.5v97H1.5V1.5h97M100,0H0V100H100V0Z"/><g class="cls-3"><polygon class="cls-2" points="100.97 73.18 51.53 48.53 -32.87 92.07 54.72 140.58 139.48 91.47 100.97 73.18"/><path class="cls-2" d="M54.72,141.08a.5.5,0,0,1-.24-.06L-33.11,92.51a.51.51,0,0,1-.26-.45.49.49,0,0,1,.27-.43L51.3,48.08a.51.51,0,0,1,.45,0l49.44,24.65L139.7,91a.47.47,0,0,1,.28.43.48.48,0,0,1-.24.45L55,141A.45.45,0,0,1,54.72,141.08Zm-86.53-49L54.71,140l83.7-48.5L100.76,73.63h0L51.53,49.09Z"/><path class="cls-2" d="M72.27,37.86c0-2.23-2.31-4-5.16-4S62,35.63,62,37.86v2c0,2.23,2.32,4,5.16,4s5.16-1.81,5.16-4Zm-5.16-3c2.3,0,4.16,1.36,4.16,3s-1.86,3-4.16,3S63,39.54,63,37.86,64.82,34.82,67.11,34.82Zm0,8.13C65,43,63.26,41.78,63,40.28a6,6,0,0,0,8.21,0C71,41.78,69.23,43,67.11,43Z"/><path class="cls-2" d="M86.59,45.35c0-2.23-2.32-4-5.16-4s-5.16,1.81-5.16,4v2c0,2.23,2.31,4,5.16,4s5.16-1.81,5.16-4Zm-5.16-3c2.29,0,4.16,1.37,4.16,3s-1.87,3-4.16,3-4.16-1.36-4.16-3S79.14,42.31,81.43,42.31Zm0,8.13c-2.12,0-3.86-1.17-4.11-2.67a6,6,0,0,0,8.22,0C85.29,49.27,83.55,50.44,81.43,50.44Z"/><path class="cls-2" d="M101.06,54.11a3.31,3.31,0,0,0,.38-1.57,3.47,3.47,0,0,0-1.13-2.48,5.76,5.76,0,0,0-4.09-1.46c-2.84,0-5.12,1.91-5.09,4.13,0,0,0,2.05,0,2.05a3.47,3.47,0,0,0,1.13,2.48,5.7,5.7,0,0,0,3.95,1.46h.14c2.84,0,5.13-1.91,5.09-4.13A.49.49,0,0,0,101.06,54.11ZM96.24,49.6h.11a4.81,4.81,0,0,1,3.27,1.18,2.52,2.52,0,0,1,.82,1.77c0,1.68-1.82,3.08-4.11,3.12A4.81,4.81,0,0,1,93,54.49a2.52,2.52,0,0,1-.82-1.77C92.1,51,94,49.64,96.24,49.6Zm.12,8.12A4.74,4.74,0,0,1,93,56.54a2.66,2.66,0,0,1-.79-1.4l.06.06a5.66,5.66,0,0,0,3.95,1.47h.14a5.71,5.71,0,0,0,4.08-1.7C100.2,56.48,98.48,57.68,96.36,57.72Z"/><path class="cls-2" d="M28.74,155.07a7.38,7.38,0,0,1-2.75-.53l-.06,0L-102.21,76.86a2.44,2.44,0,0,1-1.08-1.55A4.49,4.49,0,0,1-103,72.2a6.5,6.5,0,0,1,3.3-2.31l.24-.11c.63-.26,117.85-54.38,121.26-56.08L25.25,12c.41-.21.83-.44,1.26-.68a10.57,10.57,0,0,1,5-1.76c1.66,0,3.74,1.2,5.75,2.36.79.46,1.53.89,2.23,1.24L102.7,44.78l58.11,29.07a2.62,2.62,0,0,1,1.41,2,4.44,4.44,0,0,1-1.14,3.62l-.1.08c-1.14.66-114.4,66.66-129.82,75A5.06,5.06,0,0,1,28.74,155.07Zm-2.32-1.43a5.61,5.61,0,0,0,4.27,0C46,145.4,157.28,80.53,160.42,78.71a3.46,3.46,0,0,0,.81-2.7,1.62,1.62,0,0,0-.86-1.27c-6-3-51.28-25.64-58.12-29.06L39.05,14c-.74-.36-1.53-.82-2.29-1.26-1.9-1.1-3.86-2.23-5.25-2.23A9.75,9.75,0,0,0,27,12.19c-.43.24-.87.48-1.3.69l-3.41,1.71C18.88,16.3-98.4,70.44-99,70.7l-.25.11a5.68,5.68,0,0,0-2.83,1.9,3.54,3.54,0,0,0-.23,2.34,1.5,1.5,0,0,0,.62.94Z"/><path class="cls-2" d="M-6.34,61-27.86,47c-.41-.23-.39-1-.19-1.33A2.09,2.09,0,0,1-26.94,45c.53-.23,56.11-27,56.5-27.24a4.77,4.77,0,0,1,2-.8,8.15,8.15,0,0,1,2.61,1.19l4.05,2,10.44,5.23,6.07,3c.6.3.45,1.22,0,1.62L-4.75,61A2.11,2.11,0,0,1-6.34,61Z"/><path class="cls-2" d="M-5.52,61.67a2.76,2.76,0,0,1-1-.2l-.07,0-21.52-14a1.13,1.13,0,0,1-.5-.71,1.72,1.72,0,0,1,.15-1.29,2.39,2.39,0,0,1,1.26-.92c.76-.34,56.15-27.06,56.55-27.26l.41-.22a3.82,3.82,0,0,1,1.84-.63,4.68,4.68,0,0,1,2.1.84l.73.4,16.38,8.2L55,28a1.2,1.2,0,0,1,.65.91,1.82,1.82,0,0,1-.48,1.5.27.27,0,0,1-.12.09l-59.55,31A2.41,2.41,0,0,1-5.52,61.67Zm-.59-1.11a1.55,1.55,0,0,0,1.14,0L54.49,29.63a.9.9,0,0,0,.15-.59.22.22,0,0,0-.11-.18l-4.19-2.09L34,18.56c-.25-.12-.51-.27-.78-.43a4.46,4.46,0,0,0-1.6-.7,3,3,0,0,0-1.35.5l-.45.25c-.42.21-55.93,27-56.53,27.25a1.85,1.85,0,0,0-.87.53.76.76,0,0,0,0,.65Z"/><polygon class="cls-4" points="46.3 51.43 103.32 80.45 62.82 104.08 8.19 70.96 46.3 51.43"/><path class="cls-2" d="M101.2,68.58C90.94,63.44,52.14,44.35,51.75,44.16h0a.54.54,0,0,0-.21,0h0a.59.59,0,0,0-.2,0h0L-60.81,101.52a.5.5,0,0,0-.22.67.51.51,0,0,0,.45.27.48.48,0,0,0,.23,0L51,45.42v2.8L-57.67,104.3a.5.5,0,0,0-.21.67.5.5,0,0,0,.44.27.46.46,0,0,0,.23,0L51.53,49.09,99.6,72.83a.5.5,0,0,0,.45-.9L52,48.21v-2.8C57.37,48,91.26,64.72,100.75,69.47a.5.5,0,0,0,.67-.22A.5.5,0,0,0,101.2,68.58Z"/><path class="cls-2" d="M48.07,59.68a1.89,1.89,0,0,0-.1-.81,4.21,4.21,0,0,0-3.11-2.46,9.07,9.07,0,0,0-4.31.63l-1.13.34a2.64,2.64,0,0,1-2.77-.84.5.5,0,1,0-.76.66,3.66,3.66,0,0,0,3.79,1.15c.38-.1.77-.23,1.17-.35a8.23,8.23,0,0,1,3.83-.61A3.27,3.27,0,0,1,47,59.21a0,0,0,0,0,0,0l-2.56,1.2,2.62,1.43,2.57-1.34Z"/><path class="cls-2" d="M43.71,61.88a2,2,0,0,0-.1-.76,4.25,4.25,0,0,0-3.12-2.46,9.11,9.11,0,0,0-4.31.63c-.38.12-.76.24-1.13.34a2.67,2.67,0,0,1-2.77-.84.5.5,0,0,0-.75.65,3.63,3.63,0,0,0,3.78,1.16l1.17-.36a8.41,8.41,0,0,1,3.84-.6,3.29,3.29,0,0,1,2.35,1.82s0,0,0,.08L40.23,62.7l2.62,1.43,2.57-1.34Z"/><path class="cls-2" d="M39.35,64.08a2,2,0,0,0-.11-.72,4.24,4.24,0,0,0-3.11-2.46,9.26,9.26,0,0,0-4.32.64c-.38.12-.75.24-1.12.34A2.64,2.64,0,0,1,27.92,61l-.13-.17a.5.5,0,0,0-.81.6l.18.22A3.63,3.63,0,0,0,31,62.84c.38-.1.77-.22,1.17-.35a8.35,8.35,0,0,1,3.83-.6,3.27,3.27,0,0,1,2.35,1.82.57.57,0,0,1,0,.14L36,65l2.63,1.43,2.57-1.34Z"/><path class="cls-2" d="M35,66.28a2,2,0,0,0-.11-.67,4.25,4.25,0,0,0-3.11-2.46,9.24,9.24,0,0,0-4.32.63c-.38.13-.76.25-1.13.35a2.63,2.63,0,0,1-2.76-.84l-.16-.2a.5.5,0,1,0-.82.57c.06.09.14.18.22.28a3.64,3.64,0,0,0,3.79,1.15c.38-.1.77-.23,1.16-.35a8.29,8.29,0,0,1,3.84-.61A3.29,3.29,0,0,1,33.94,66a1.18,1.18,0,0,1,0,.2l-2.26,1.07,2.62,1.42,2.58-1.33Z"/><path class="cls-2" d="M30.63,68.48a1.9,1.9,0,0,0-.12-.62A4.21,4.21,0,0,0,27.4,65.4a9.07,9.07,0,0,0-4.31.63c-.39.12-.76.24-1.13.34a2.62,2.62,0,0,1-2.77-.84,1.56,1.56,0,0,1-.2-.27.52.52,0,0,0-.7-.15.51.51,0,0,0-.14.7,4.07,4.07,0,0,0,.28.38,3.66,3.66,0,0,0,3.79,1.15L23.39,67a8.39,8.39,0,0,1,3.84-.6,3.27,3.27,0,0,1,2.34,1.82,1.1,1.1,0,0,1,.06.26l-2.16,1,2.62,1.42,2.57-1.33Z"/><path class="cls-2" d="M29.42,80.5a.48.48,0,0,1-.26-.07L11.23,69.61a.49.49,0,0,1-.17-.68.5.5,0,0,1,.69-.17L29.43,79.43,53.07,66.68a.5.5,0,0,1,.46,0l5.07,2.58a.5.5,0,1,1-.45.89l-4.84-2.46L29.65,80.44A.46.46,0,0,1,29.42,80.5Z"/><path class="cls-2" d="M29.25,76.1A.5.5,0,0,1,29,76L15.17,67.71a.5.5,0,1,1,.51-.86L29.26,75l23.81-13a.51.51,0,0,1,.48,0l9.82,5.43a.51.51,0,0,1,.2.68.5.5,0,0,1-.68.2l-9.58-5.3L29.49,76A.53.53,0,0,1,29.25,76.1Z"/><path class="cls-2" d="M69.9,65a1.25,1.25,0,0,0-1.24,1.25,1.42,1.42,0,0,0,0,.2l-2.86,1.36a.5.5,0,0,0,.21,1,.54.54,0,0,0,.21-.05l3-1.42a1.18,1.18,0,0,0,.63.2,1.25,1.25,0,1,0,0-2.49Z"/><path class="cls-2" d="M73.91,67.07a1.25,1.25,0,0,0-1.24,1.24,1.55,1.55,0,0,0,0,.21l-2.87,1.35a.5.5,0,0,0-.23.67.48.48,0,0,0,.45.28.52.52,0,0,0,.21,0l3-1.43a1.19,1.19,0,0,0,.64.21,1.25,1.25,0,1,0,0-2.49Z"/><path class="cls-2" d="M77.92,69.1a1.24,1.24,0,0,0-1.24,1.25.71.71,0,0,0,0,.2l-2.87,1.36a.49.49,0,0,0-.24.66.52.52,0,0,0,.46.29.54.54,0,0,0,.21,0l3-1.42a1.18,1.18,0,0,0,.64.2,1.25,1.25,0,0,0,0-2.49Z"/><path class="cls-2" d="M81.92,71.14a1.25,1.25,0,0,0-1.25,1.24,1.3,1.3,0,0,0,0,.21l-2.85,1.35a.5.5,0,0,0,.21,1,.57.57,0,0,0,.22,0l3-1.42a1.27,1.27,0,0,0,.64.2,1.25,1.25,0,0,0,0-2.49Z"/><path class="cls-2" d="M85.91,73.17a1.25,1.25,0,0,0-1.24,1.25,1.55,1.55,0,0,0,0,.21L81.87,76a.5.5,0,0,0,.21,1,.54.54,0,0,0,.21-.05l3-1.41a1.26,1.26,0,0,0,.63.19,1.25,1.25,0,1,0,0-2.49Z"/><path class="cls-2" d="M89.94,75.21a1.24,1.24,0,0,0-1.24,1.24,1.3,1.3,0,0,0,0,.21L85.87,78a.5.5,0,0,0,.22,1,.54.54,0,0,0,.21,0l3-1.42a1.27,1.27,0,0,0,.64.2,1.25,1.25,0,1,0,0-2.49Z"/><path class="cls-5" d="M87.66,79.05a.45.45,0,0,0,0-.11.69.69,0,0,0,0-.13.34.34,0,0,0-.08-.09s0-.07-.09-.09h0L64.49,66.93a.51.51,0,0,0-.45,0l-23.7,11.7h0a.94.94,0,0,0-.1.1s-.06,0-.08.08a.66.66,0,0,0,0,.15.32.32,0,0,0,0,.09h0V81a.5.5,0,0,0,.25.43L64,95.09a.47.47,0,0,0,.25.07.59.59,0,0,0,.26-.07L87.41,81.42a.5.5,0,0,0,.24-.43V79.06h0Zm-1,1.66L64.28,94.08,41.06,80.68v-.76l.35.2L64.07,92.88a.44.44,0,0,0,.24.07h0a.4.4,0,0,0,.26-.06L86.66,79.94Z"/><path class="cls-4" d="M57.42,80.63,72,77.42,69,87.54a.41.41,0,0,0,.2.33.42.42,0,0,0,.27,0c.24,0,.31-.19.4-.49L72.75,77a.28.28,0,0,0,0-.13.42.42,0,0,0-.56-.22l-7.28,1.62,1.64-4.86a.43.43,0,0,0-.6-.35L50.34,76.2a.48.48,0,0,0-.28.38.42.42,0,0,0,.21.4l6.24,3.59h0A1.24,1.24,0,0,0,57.42,80.63Zm8.36-6.86-1.71,4.81L57,80.13l-5.87-3.38Z"/><path class="cls-4" d="M62.52,83.44a.15.15,0,0,0,.06.13.29.29,0,0,0,.16,0,.27.27,0,0,0,.22-.24V82a.15.15,0,0,0-.2-.14h0l-1.49.37a.29.29,0,0,0-.23.24h0a.15.15,0,0,0,.2.15h0l1.27-.32Z"/><path class="cls-4" d="M61.85,81.51v0a.14.14,0,0,0,.19.15h0l1.27-.32V82.5a.14.14,0,0,0,.07.13.24.24,0,0,0,.15,0,.3.3,0,0,0,.23-.24V81.05c0-.11-.09-.18-.21-.15h0l-1.5.38A.26.26,0,0,0,61.85,81.51Z"/><path class="cls-4" d="M62.83,80.81h0l1.27-.31v1.14a.14.14,0,0,0,.07.12.18.18,0,0,0,.16,0,.29.29,0,0,0,.22-.23V80.17c0-.1-.08-.17-.2-.15h0l-1.5.37a.3.3,0,0,0-.22.26C62.61,80.77,62.71,80.83,62.83,80.81Z"/><path class="cls-4" d="M65.06,83.36c0-.11-.08-.18-.2-.15h0l-1.49.37a.27.27,0,0,0-.22.24v0a.13.13,0,0,0,.06.12.18.18,0,0,0,.16,0l1.27-.31v1.14c0,.11.09.17.22.14h0a.3.3,0,0,0,.23-.25Z"/><path class="cls-4" d="M65.89,83.75V82.41c0-.11-.08-.17-.2-.15h0l-1.49.37a.27.27,0,0,0-.22.25A.15.15,0,0,0,64,83a.27.27,0,0,0,.16,0l1.27-.32v1.14c0,.11.08.18.2.15h0a.3.3,0,0,0,.22-.26Z"/><path class="cls-4" d="M66.45,81.39h0l-1.49.38a.29.29,0,0,0-.23.24v0a.15.15,0,0,0,.07.12.21.21,0,0,0,.16,0l1.25-.32V83c0,.11.1.17.22.14h0a.28.28,0,0,0,.23-.26V81.54C66.66,81.43,66.57,81.36,66.45,81.39Z"/><path class="cls-4" d="M67.16,86.06V84.72a.15.15,0,0,0-.2-.15h0l-1.49.37a.3.3,0,0,0-.22.24v0a.15.15,0,0,0,.19.15h0L66.72,85v1.14a.11.11,0,0,0,.07.12.19.19,0,0,0,.15,0,.31.31,0,0,0,.23-.24h0Z"/><path class="cls-4" d="M68,85.13s0,0,0,0V83.77a.16.16,0,0,0-.2-.15h0l-1.5.37a.31.31,0,0,0-.22.24v0c0,.11.09.17.21.14h0l1.27-.32v1.14a.11.11,0,0,0,.06.12.18.18,0,0,0,.16,0A.26.26,0,0,0,68,85.13Z"/><path class="cls-4" d="M67,83.53h0l1.28-.31v1.13a.14.14,0,0,0,.07.13.24.24,0,0,0,.15,0,.27.27,0,0,0,.22-.24s0,0,0,0V82.9c0-.11-.08-.17-.2-.15h0L67,83.13a.29.29,0,0,0-.23.26C66.81,83.5,66.91,83.56,67,83.53Z"/><polygon class="cls-2" points="37.18 85.92 40.65 84.29 43.94 86.05 40.59 87.78 37.18 85.92"/><path class="cls-2" d="M40.59,88.28a.53.53,0,0,1-.24-.06l-3.41-1.86a.5.5,0,0,1,0-.89l3.46-1.63a.48.48,0,0,1,.45,0l3.29,1.75a.5.5,0,0,1,.27.45.52.52,0,0,1-.27.44l-3.35,1.73A.46.46,0,0,1,40.59,88.28ZM38.28,86l2.32,1.25L42.86,86l-2.23-1.19Z"/><polygon class="cls-2" points="45.42 90.59 48.89 88.96 52.18 90.71 48.83 92.45 45.42 90.59"/><path class="cls-2" d="M48.83,93a.53.53,0,0,1-.24-.06L45.18,91a.5.5,0,0,1,0-.89l3.46-1.64a.48.48,0,0,1,.45,0l3.29,1.75a.49.49,0,0,1,0,.88l-3.35,1.74A.46.46,0,0,1,48.83,93Zm-2.3-2.33,2.31,1.26,2.26-1.17-2.23-1.19Z"/><polygon class="cls-2" points="53.31 95.16 56.77 93.52 60.06 95.28 56.72 97.01 53.31 95.16"/><path class="cls-2" d="M56.72,97.51a.5.5,0,0,1-.24-.06l-3.41-1.86a.48.48,0,0,1-.26-.45.49.49,0,0,1,.28-.44l3.47-1.63a.51.51,0,0,1,.45,0l3.29,1.76a.47.47,0,0,1,.26.44.48.48,0,0,1-.27.44L57,97.46A.59.59,0,0,1,56.72,97.51Zm-2.31-2.32,2.32,1.26L59,95.27l-2.23-1.19Z"/></g></g></svg>