<?xml version="1.0" encoding="utf-8"?>
<!-- Generator: Adobe Illustrator 24.1.2, SVG Export Plug-In . SVG Version: 6.00 Build 0)  -->
<svg version="1.1" id="Layer_1" xmlns="http://www.w3.org/2000/svg" xmlns:xlink="http://www.w3.org/1999/xlink" x="0px" y="0px"
	 viewBox="0 0 80.1 72.6" style="enable-background:new 0 0 80.1 72.6;" xml:space="preserve">
<style type="text/css">
	.st0{fill:#23ABE3;}
	.st1{fill:#EF7D3B;}
</style>
<g id="Circuit_Diagram">
	<path class="st0" d="M71,27.6h-3.4l-0.7,3.2h3.5L71,27.6z M74.4,27.6l-0.7,3.2H77v2.9h-3.7l-0.8,4.4H69l0.8-4.4h-3.5l-0.9,4.4h-3.4
		l0.9-4.4h-3.3v-2.9h3.8l0.6-3.2h-3.2v-2.9h3.8l0.8-4.4H69l-0.8,4.4h3.4l0.8-4.4h3.5L75,24.7h3.2v2.9L74.4,27.6z"/>
	<path class="st1" d="M7.5,33.4C7.5,17.5,18,4.6,35.6,4.6c10.3,0,18.2,4.5,23,11.4l-11.9,7.7c-2.7-4.1-7.1-6.8-11.1-6.8
		c-8.3,0-13.8,6.5-13.8,16.4s5.5,16.3,13.8,16.3c4.1,0,8.5-2.7,11.1-6.7l11.8,7.6C53.8,57.5,46,62,35.6,62C18,62,7.5,49.1,7.5,33.4z
		"/>
	<path class="st1" d="M74.5,27.6l-0.7,3.2H77v2.9h-3.8l-0.8,4.4H69l0.8-4.4h-3.5l-0.9,4.4h-3.4l0.9-4.4h-3.3v-2.9h3.8l0.6-3.2h-3.2
		v-2.9h3.8l0.8-4.4H69l-0.8,4.4h3.4l0.8-4.4h3.5L75,24.7h3.2v2.9L74.5,27.6z M71,27.6h-3.4l-0.7,3.2h3.5L71,27.6z"/>
	<path class="st0" d="M66.3,31.3h4.5l0.8-4.2h-4.4L66.3,31.3z M68,28.1h2.4L70,30.3h-2.4L68,28.1z"/>
	<path class="st0" d="M77.5,29.3l1.2-1.2v-3.9h-3.1l0.8-4.4H72l-3,3.1l0.6-3.1h-4.5L54.7,29.9v3.9h1.1L53.5,36v3.9h3.1l-0.8,4.4h4
		l3.5-3.1l-0.6,3.1h4l6.1-5.7l0,0l0,0l4.8-4.4v-4h-1.1L77.5,29.3z M71.7,21.5l-0.5,2.7H69L71.7,21.5z M64.7,21.5l-0.5,2.7H62
		L64.7,21.5z M57.3,32.7h-0.9l4.7-4.7H62L57.3,32.7z M63.4,28.1L63.4,28.1L63,30.3h-1.8L63.4,28.1z M55.7,32.1v-1.8l4.7-4.6v1.7
		L55.7,32.1z M54.5,36.9L54.5,36.9l4.7-4.7v1.2l-4.7,4.7V36.9z M55.2,38.9l4.7-4.7h1.8l-4.7,4.7L55.2,38.9z M57.7,39.7l4.4-4.4
		l-0.5,2.7l-4.4,4.4L57.7,39.7z M62.5,40.7l-2.8,2.7h-2.1l4.7-4.7h2.2L62.5,40.7z M64.5,40.1l1.4-1.2l3.1-3.5l-0.5,2.5l-4.4,4.4
		L64.5,40.1z M66.2,36.9l0.6-2.6h1.9L66.2,36.9z M67.6,42.1l-1.1,1.2h-1.9l4.7-4.7H71L67.6,42.1z M73.2,36.6l0.5-2.3h1.9L73.2,36.6z
		 M76.5,31.4v1.9h-3.6L72,37.7h-2.4l0.8-4.4H66l-0.8,4.4h-2.5l0.9-4.4h-3.3v-2h3.7l0.8-4.2h-3.3v-1.9H65l0.8-4.3l2.4,0l-0.8,4.3l0,0
		v0.1H72l0.8-4.3l2.4,0l-0.9,4.5h3.3v1.9H74l-0.8,4.1L76.5,31.4z M74.5,30.3l0.4-2.2h1.9L74.5,30.3z"/>
	<path class="st0" d="M46.6,42.3l-0.3,0.4c-2.5,3.9-6.8,6.5-10.7,6.5c-7.9,0-13.3-6.3-13.3-15.8c-0.1-3,0.6-6,1.9-8.8
		c2.7-1.3,5.8-1.7,8.8-0.9c4.1,0.9,7.8,5.8,7.9,5.8l0.3,0.4l12.3-8l5.8-5.6L59,15.8C53.8,8.3,45.5,4.1,35.6,4.1
		C29.1,4,22.8,6,17.6,9.9l0,0l-0.3,0.2c-1.2,1-2.3,2-3.4,3.2l-3.4,3.3c-2.9,2.7-5.2,6-6.7,9.7c-2.9,7.1-5,17.9,1.8,29.1
		C12.5,65.4,22,68.3,30,68.3c6.3,0,11.6-1.8,13.7-3.1c3.9-2,10.2-7.7,14.1-12.6l0.5-0.6c0.3-0.4,0.5-0.7,0.8-1.1l0,0l0.3-0.4
		L46.6,42.3z M33.2,22.7c-2.7-0.7-5.6-0.5-8.2,0.5c2.3-3.6,6.3-5.8,10.6-5.7c3.7,0,7.9,2.5,10.5,6.2l-4.7,4.7
		C40.3,27.1,37,23.5,33.2,22.7z M52.9,21.1l-8.5,5.5l2.7-2.5l8.9-5.9L52.9,21.1z M43.2,64.3c-4.3,2.8-25.1,7.7-36.6-9.3
		C0,44.1,2,33.6,4.8,26.7c1.4-3.4,3.5-6.4,6.1-9c-2.6,4.8-4,10.2-3.9,15.6c0,17.1,11.8,29.1,28.6,29.1c5.2,0.1,10.4-1.2,15-3.8
		C48.3,60.8,45.8,62.7,43.2,64.3z M57.6,51l-0.4,0.5l-0.4,0.5c-5,6.1-12.4,9.4-21.2,9.4C19.4,61.5,8,49.9,8,33.4
		c0-7.8,2.5-14.5,6.9-19.4l3-2.8c5.1-4,11.3-6.1,17.7-5.9C45,5.1,52.9,9,57.8,15.9l-11,7.1c-2.8-4-7.2-6.6-11.2-6.6
		c-8.5,0-14.3,6.8-14.3,16.9s5.7,16.8,14.3,16.8c4.1,0,8.5-2.6,11.2-6.5l11,7.1L57.6,51z"/>
</g>
</svg>
