<svg width="22" height="14" viewBox="0 0 22 14" fill="none" xmlns="http://www.w3.org/2000/svg">
<path d="M20.625 2.625H1.375C0.89375 2.625 0.5 2.23125 0.5 1.75C0.5 1.26875 0.89375 0.875 1.375 0.875H20.625C21.1063 0.875 21.5 1.26875 21.5 1.75C21.5 2.23125 21.1063 2.625 20.625 2.625ZM20.625 7.875H1.375C0.89375 7.875 0.5 7.48125 0.5 7C0.5 6.51875 0.89375 6.125 1.375 6.125H20.625C21.1063 6.125 21.5 6.51875 21.5 7C21.5 7.48125 21.1063 7.875 20.625 7.875ZM20.625 13.125H1.375C0.89375 13.125 0.5 12.7312 0.5 12.25C0.5 11.7688 0.89375 11.375 1.375 11.375H20.625C21.1063 11.375 21.5 11.7688 21.5 12.25C21.5 12.7312 21.1063 13.125 20.625 13.125Z" fill="#FF8E0D"/>
</svg>
