<svg width="28" height="28" viewBox="0 0 28 28" fill="none" xmlns="http://www.w3.org/2000/svg">
<path d="M18.8562 11.9273C18.1453 11.9273 17.4562 11.9273 16.8109 12.1516C14.0437 9.79453 6.73202 3.57109 6.17421 2.99141C5.91718 2.72344 5.63281 2.625 5.3539 2.625C4.88906 2.625 4.44062 2.90937 4.18906 3.15C3.81171 3.51094 2.38437 5.05312 2.65781 5.3375C3.47812 6.17969 3.69687 6.34922 4.03593 6.69375C4.54452 7.21328 5.58359 6.63906 6.00468 6.81953C6.42031 7 6.50781 7.19141 6.57343 7.50312C6.63906 7.81484 6.41484 8.36719 6.40937 8.79922C6.4039 9.25312 6.59531 9.49922 6.91249 9.83828C7.16406 10.1117 7.39921 10.3086 7.76562 10.3141C8.25781 10.325 8.90859 9.61406 9.42812 10.1445C9.94765 10.675 9.08906 11.4406 9.15468 12.0039C9.22031 12.5672 10.0023 13.2508 10.3359 13.3219C10.6695 13.393 11.5281 12.682 12.0148 12.7914C12.1789 12.8297 12.5617 13.1633 12.6164 13.4148C12.6711 13.6664 12.2391 14.782 12.2937 15.0336C12.3594 15.3398 12.682 15.6953 12.8625 15.9852C12.4961 16.8328 12.3484 17.6039 12.3484 18.5938C12.3484 22.3398 15.2687 25.375 18.8672 25.375C22.4656 25.375 25.375 22.3398 25.375 18.5938C25.375 14.8477 22.4547 11.9273 18.8562 11.9273V11.9273ZM20.125 21.875C19.157 21.875 18.375 21.093 18.375 20.125C18.375 19.157 19.157 18.375 20.125 18.375C21.093 18.375 21.875 19.157 21.875 20.125C21.875 21.093 21.093 21.875 20.125 21.875Z" fill="#EF7D3B"/>
</svg>
