<svg width="31" height="31" viewBox="0 0 31 31" fill="none" xmlns="http://www.w3.org/2000/svg">
<path d="M9.6875 23.5527C9.37958 23.553 9.08209 23.4411 8.85075 23.2379L1.10075 16.4566C0.964441 16.3373 0.855211 16.1902 0.780375 16.0252C0.705539 15.8603 0.666824 15.6812 0.666824 15.5C0.666824 15.3188 0.705539 15.1398 0.780375 14.9748C0.855211 14.8098 0.964441 14.6627 1.10075 14.5434L8.85075 7.76212C9.10454 7.54004 9.43617 7.42787 9.77267 7.4503C10.1092 7.47272 10.423 7.6279 10.6451 7.8817C10.8671 8.1355 10.9793 8.46712 10.9569 8.80362C10.9344 9.14012 10.7793 9.45392 10.5255 9.67601L3.86834 15.5L10.5249 21.324C10.7197 21.4943 10.8579 21.7201 10.921 21.971C10.9842 22.222 10.9693 22.4862 10.8782 22.7285C10.7872 22.9707 10.6245 23.1794 10.4117 23.3267C10.1989 23.474 9.94628 23.5528 9.6875 23.5527V23.5527Z" fill="#EF7D3B"/>
<path d="M21.3125 23.5527C21.0537 23.553 20.8009 23.4742 20.5881 23.327C20.3752 23.1797 20.2123 22.971 20.1213 22.7287C20.0302 22.4865 20.0152 22.2222 20.0783 21.9712C20.1414 21.7201 20.2797 21.4944 20.4745 21.324L27.1317 15.5L20.4751 9.67601C20.2213 9.45392 20.0662 9.14012 20.0437 8.80362C20.0213 8.46712 20.1335 8.1355 20.3556 7.8817C20.5776 7.6279 20.8914 7.47272 21.2279 7.4503C21.5644 7.42787 21.8961 7.54004 22.1499 7.76212L29.8999 14.5434C30.0362 14.6627 30.1454 14.8098 30.2202 14.9748C30.2951 15.1398 30.3338 15.3188 30.3338 15.5C30.3338 15.6812 30.2951 15.8603 30.2202 16.0252C30.1454 16.1902 30.0362 16.3373 29.8999 16.4566L22.1499 23.2379C21.9184 23.4414 21.6207 23.5533 21.3125 23.5527V23.5527Z" fill="#EF7D3B"/>
<path d="M12.5937 26.459C12.3957 26.459 12.2005 26.4127 12.0235 26.3238C11.8466 26.235 11.6928 26.106 11.5745 25.9473C11.4562 25.7885 11.3766 25.6043 11.342 25.4093C11.3075 25.2143 11.319 25.014 11.3755 24.8242L17.188 5.44923C17.2318 5.28482 17.3082 5.13086 17.4125 4.99649C17.5169 4.86212 17.6472 4.75006 17.7956 4.66695C17.9441 4.58384 18.1077 4.53138 18.2768 4.51266C18.446 4.49394 18.6171 4.50936 18.7801 4.55799C18.9432 4.60663 19.0948 4.68749 19.226 4.79579C19.3573 4.90409 19.4654 5.03763 19.5441 5.18849C19.6228 5.33935 19.6704 5.50446 19.6841 5.67406C19.6978 5.84365 19.6773 6.01426 19.6238 6.17579L13.8113 25.5508C13.7332 25.8131 13.5724 26.0431 13.3531 26.2067C13.1337 26.3703 12.8674 26.4588 12.5937 26.459V26.459Z" fill="#EF7D3B"/>
</svg>
