<?xml version="1.0" encoding="utf-8"?>
<!-- Generator: Adobe Illustrator 24.1.2, SVG Export Plug-In . SVG Version: 6.00 Build 0)  -->
<svg version="1.1" id="Layer_1" xmlns="http://www.w3.org/2000/svg" xmlns:xlink="http://www.w3.org/1999/xlink" x="0px" y="0px"
	 viewBox="0 0 100 100" style="enable-background:new 0 0 100 100;" xml:space="preserve">
<style type="text/css">
	.st0{fill:#EF7D3B;}
</style>
<g id="simple_illo">
	<rect x="64.2" y="86.5" class="st0" width="20.5" height="3.8"/>
	<rect x="64.2" y="83.9" class="st0" width="20.5" height="1.7"/>
	<rect x="21.8" y="74.2" transform="matrix(0.1184 -0.993 0.993 0.1184 -63.9317 96.8961)" class="st0" width="1.7" height="20.5"/>
	<rect x="20.2" y="77.9" transform="matrix(0.1184 -0.993 0.993 0.1184 -67.9993 99.7293)" class="st0" width="3.8" height="20.5"/>
	<rect x="42.8" y="83.9" class="st0" width="20.5" height="1.7"/>
	<rect x="42.8" y="86.5" class="st0" width="20.5" height="3.8"/>
	<path class="st0" d="M28.7,37.4c1.1,0.1,2.1-0.7,2.2-1.8c0.1-1.1-0.7-2.1-1.8-2.2c-1.1-0.1-2.1,0.7-2.2,1.8c0,0,0,0,0,0
		C26.8,36.3,27.6,37.3,28.7,37.4z"/>
	<path class="st0" d="M26.6,54.9c1.1,0.1,2.1-0.7,2.2-1.8s-0.7-2.1-1.8-2.2c-1.1-0.1-2.1,0.7-2.2,1.8c0,0,0,0,0,0
		c-0.1,1.1,0.6,2,1.7,2.2C26.5,54.9,26.6,54.9,26.6,54.9z"/>
	<path class="st0" d="M21.3,8.5l-8.7,72.9L33,83.8L41.7,11L21.3,8.5z M27.7,71.2l-3.4-0.4l-0.4,3.5l3.4,0.4l-0.1,1.1l-8-1l0.1-1.1
		l3.5,0.4l0.4-3.5l-3.5-0.4l0.1-1.1l8,1L27.7,71.2z M28.6,63.6l-0.7-0.1c1,1.4,0.6,3.3-0.8,4.3c-1.4,1-3.3,0.6-4.3-0.8
		c-0.9-1.3-0.7-3,0.5-4l-0.7-0.1l0.1-1.1l6,0.7L28.6,63.6z M28.9,60.8L23,60.1l0.1-1.1l0.7,0.1c-0.5-0.5-0.7-1.2-0.6-1.9
		c0-0.4,0.2-0.7,0.4-1l1.1,0.5c-0.6,0.5-0.6,1.5-0.1,2.1c0.3,0.3,0.7,0.5,1.1,0.5l3.4,0.4L28.9,60.8z M30.1,51.3l-0.7-0.1
		c1,1.4,0.6,3.3-0.8,4.3c-1.4,1-3.3,0.6-4.3-0.8c-0.4-0.6-0.6-1.4-0.5-2.1c0.1-0.7,0.4-1.4,1-1.9l-3.6-0.4l0.1-1.1l8.9,1L30.1,51.3z
		 M31.1,42.7l-4.6,0.9l4.2,2l-0.1,1.1l-6.2,1.4l0.2-1.1l4.5-1l-4.2-2l0.1-1l4.5-1l-4.1-2l0.1-1.1l5.7,2.8L31.1,42.7z M32.1,33.9
		l-0.6-0.1c1,1.4,0.6,3.3-0.8,4.3c-1.4,1-3.3,0.6-4.3-0.8c-0.9-1.3-0.6-3,0.5-4l-0.6-0.1l0.1-1.1l6,0.7L32.1,33.9z M32.5,31l-6-0.7
		l0.1-1.1l0.7,0.1c-0.5-0.5-0.7-1.2-0.6-1.9c0-0.4,0.2-0.7,0.4-1l1.1,0.5c-0.6,0.6-0.6,1.5-0.1,2.1c0.3,0.3,0.7,0.5,1.1,0.5l3.4,0.4
		L32.5,31z M31,26.2c-0.3,0.1-0.7,0.1-1,0c-1.7-0.2-2.9-1.8-2.6-3.5c0.2-1.5,1.5-2.7,3.1-2.7c0.1,0,0.1,0,0.2,0l0.3,4.9
		c0.8-0.2,1.4-0.8,1.5-1.6c0.1-0.9-0.3-1.7-1-2.2l0.4-0.9c1.1,0.7,1.8,1.9,1.6,3.2C33.3,24.9,32.3,26,31,26.2z"/>
	<path class="st0" d="M28.3,23.1c-0.1,0.9,0.6,1.8,1.5,2H30l-0.2-3.8C28.9,21.5,28.3,22.2,28.3,23.1z"/>
	<path class="st0" d="M53.7,55.7H54L53.3,52c-0.8,0.3-1.3,1.1-1.3,1.9C52,54.8,52.8,55.6,53.7,55.7z"/>
	<path class="st0" d="M42.8,9.5v73.4h20.5V9.5H42.8z M53.8,50.7c0.1,0,0.1,0,0.2,0l0.9,4.9c0.8-0.3,1.3-1,1.3-1.8
		c0-0.9-0.5-1.7-1.3-2.1l0.3-1c1.2,0.5,2,1.7,2,3c0,1.3-0.9,2.5-2.1,2.9c-0.3,0.1-0.7,0.2-1,0.2c-1.7,0-3.1-1.4-3.1-3.1
		C50.9,52.1,52.2,50.8,53.8,50.7L53.8,50.7z M51,58.3c0-0.3,0.1-0.7,0.2-1l1.2,0.3c-0.2,0.3-0.3,0.6-0.4,0.9c0,0.9,0.7,1.5,1.5,1.5
		c0,0,0.1,0,0.1,0h3.4v1.1h-6v-1.2h0.7C51.3,59.7,51,59,51,58.3z M53.1,77c-2.1,0.1-4-1.5-4.1-3.6c0-0.1,0-0.3,0-0.4
		c0-1.4,0.7-2.7,1.9-3.4l0.6,1c-0.9,0.4-1.5,1.4-1.5,2.4c0,1.5,1.3,2.7,2.8,2.7c0.1,0,0.1,0,0.2,0c1.5,0.1,2.8-1,3-2.5
		c0-0.1,0-0.1,0-0.2c0-1-0.6-1.9-1.5-2.3l0.7-1c1.2,0.6,2,1.9,2,3.3c0.1,2.1-1.6,3.9-3.7,4C53.4,77,53.3,77,53.1,77z M54.1,68.8
		c-1.7,0-3.1-1.4-3.1-3.1c0-1.7,1.4-3.1,3.1-3.1c1.7,0,3.1,1.4,3.1,3.1c0,0,0,0,0,0C57.2,67.4,55.8,68.8,54.1,68.8L54.1,68.8z"/>
	<path class="st0" d="M74.8,46.2c-1.1,0-2,0.9-2,2s0.9,2,2,2s2-0.9,2-2c0-1.1-0.8-2-1.9-2C74.9,46.2,74.9,46.2,74.8,46.2z"/>
	<path class="st0" d="M64.2,9.5v73.4h20.5V9.5H64.2z M68.9,67h8.9v1.1h-8.9V67z M73.8,77c-2.1,0.2-4-1.5-4.1-3.6c0-0.1,0-0.3,0-0.4
		c0-1.4,0.7-2.7,1.9-3.4l0.7,1c-0.9,0.4-1.5,1.4-1.5,2.4c0.2,1.7,1.8,2.9,3.4,2.7c1.4-0.2,2.5-1.3,2.7-2.7c0-1-0.6-1.9-1.5-2.3
		l0.7-1c1.2,0.7,1.9,1.9,1.9,3.3c0.1,2.1-1.6,3.9-3.7,4C74.1,77,73.9,77,73.8,77z M74.8,65.6c-1.7,0-3.1-1.4-3.1-3.1
		s1.4-3.1,3.1-3.1s3.1,1.4,3.1,3.1c0,0,0,0,0,0C77.9,64.2,76.5,65.6,74.8,65.6L74.8,65.6z M75.2,58.1h-3.4v-1.2h3.4
		c0.8,0,1.6-0.6,1.6-1.5c0,0,0,0,0-0.1c0-0.9-0.7-1.6-1.6-1.5c0,0,0,0-0.1,0h-3.4v-1.1h6v1.1h-0.8c0.5,0.4,0.8,1.1,0.8,1.8
		c0,1.4-1.1,2.5-2.5,2.5C75.3,58.1,75.3,58.1,75.2,58.1L75.2,58.1z M74.8,51.3c-1.7,0-3.1-1.4-3.1-3.1c0-0.7,0.3-1.5,0.8-2h-3.6V45
		h8.9v1.1h-0.7c0.5,0.6,0.7,1.3,0.8,2C77.9,49.8,76.5,51.2,74.8,51.3C74.8,51.3,74.8,51.3,74.8,51.3L74.8,51.3z"/>
</g>
<path class="st0" d="M25.1,67.2c1.1,0.1,2.1-0.6,2.2-1.7c0.1-1.1-0.6-2-1.8-2.2c-1.1-0.1-2.1,0.6-2.2,1.7
	C23.2,66.1,24,67.1,25.1,67.2z"/>
<path class="st0" d="M54.1,63.7c-1.2,0-2,0.9-2,2c0,1.1,0.9,2,2,2s2-0.8,2-2C56.2,64.5,55.3,63.7,54.1,63.7z"/>
<path class="st0" d="M74.8,60.5c-1.2,0-2,0.9-2,2c0,1.1,0.9,2,2,2s2-0.8,2-2C76.8,61.4,76,60.5,74.8,60.5z"/>
</svg>
