<?xml version="1.0" encoding="utf-8"?>
<!-- Generator: Adobe Illustrator 24.1.2, SVG Export Plug-In . SVG Version: 6.00 Build 0)  -->
<svg version="1.1" id="Layer_1" xmlns="http://www.w3.org/2000/svg" xmlns:xlink="http://www.w3.org/1999/xlink" x="0px" y="0px"
	 viewBox="0 0 80.6 44.4" style="enable-background:new 0 0 80.6 44.4;" xml:space="preserve">
<style type="text/css">
	.st0{fill:#EF7D3B;}
	.st1{fill:#FFFFFF;}
</style>
<g id="simple_illo">
	<polygon class="st0" points="19.9,27.8 22.2,26.8 25.4,28.3 23.1,29.3 	"/>
	<path class="st0" d="M80.6,8.7c0-0.1,0-0.2,0-0.3c0-0.4-0.3-0.8-0.7-1C79.4,7.3,60.2,0,59.5,0c-0.7,0-1.3,0.2-1.8,0.6
		c-0.1,0.1-56.2,27.1-57,27.5c-0.5,0.2-1,0.5-1.3,0.9c-0.1,0.2-0.2,0.5-0.2,0.7l0,0v2.8c0,0.2,0,0.4,0.1,0.5c0.1,0.4,0.4,0.7,0.7,1
		l8.8,4.8c4.4,2.4,9.3,5,9.5,5.2l0.1,0.1c0.4,0.2,0.8,0.2,1.2,0.2c0.4,0,0.8-0.1,1.2-0.3l58.8-30.9c0.1-0.1,0.2-0.1,0.3-0.2
		c0.4-0.5,0.7-1.2,0.7-1.9L80.6,8.7L80.6,8.7z M76.8,7.7c0.8,0,1.5,0.3,1.5,0.7s-0.7,0.7-1.5,0.7s-1.5-0.3-1.5-0.7S76,7.7,76.8,7.7
		L76.8,7.7z M75.7,3.6L73.3,5l-0.6-0.2L75.7,3L75.7,3.6z M67,2.3l3-1.6l0,0l0,0l0.3-0.2l5,1.5L74,2.8L72,4l0,0L67,2.3L67,2.3z
		 M20.8,38.4c0,0.4-0.6,0.7-1.5,0.7s-1.5-0.3-1.5-0.7s0.6-0.7,1.5-0.7S20.8,38,20.8,38.4z M59.2,1.1c0.8,0,1.5,0.3,1.5,0.7
		S60,2.6,59.2,2.6s-1.5-0.3-1.5-0.7S58.4,1.1,59.2,1.1z M2.7,28.7c0.8,0,1.5,0.3,1.5,0.7s-0.6,0.7-1.5,0.7s-1.5-0.3-1.5-0.7
		S1.9,28.7,2.7,28.7z M79.6,11.1c0,0.4-0.1,0.9-0.4,1.2L20.4,43.2c-0.5,0.2-1.1,0.2-1.6,0c-0.1-0.1-2.5-1.4-9.6-5.2l-8.7-4.7
		c-0.1-0.1-0.2-0.3-0.3-0.4c0-0.1,0-0.2,0-0.3v-1.3C3,32.7,18.1,40.9,18.4,41h0.1c0.3,0.1,0.7,0.2,1,0.2c0.3,0,0.7-0.1,1-0.2
		l59.2-30.7V11.1z"/>
	<path class="st0" d="M63.2,7V5l0,0c0-0.1,0-0.1-0.1-0.2l0,0c-0.1-0.1-0.1-0.1-0.2-0.1l0,0l-6.5-2c-0.1-0.1-0.3-0.1-0.4,0l-4,1.7
		l0,0c-0.1,0-0.1,0.1-0.2,0.1v0c0,0.1-0.1,0.1-0.1,0.2v1.9l0,0l0,0c0,0.1,0,0.1,0.1,0.2l0,0C51.9,6.9,51.9,7,52,7l0,0l6.3,2.3
		c0.1,0.1,0.2,0.1,0.2,0.1l0,0c0.1,0,0.2,0,0.2-0.1l4.1-2.1l0,0c0.1,0,0.1-0.1,0.2-0.2l0,0C63.1,7.1,63.2,7,63.2,7z M62.2,6.6
		L59,8.2V7.5L62.2,6V6.6z M56.2,3.6l5.3,1.6l-2.9,1.4l-5.2-1.9L56.2,3.6z M52.6,6.4V5.5l5.4,2v0.8l-4.7-1.7L52.6,6.4z"/>
	<polygon class="st1" points="62.2,6.6 59,8.2 59,7.5 62.2,5.9 	"/>
	<polygon class="st1" points="56.2,3.6 61.4,5.2 58.5,6.6 53.3,4.7 	"/>
	<polygon class="st1" points="52.6,6.3 52.6,5.5 58,7.5 58,8.3 53.3,6.5 	"/>
	<path class="st0" d="M76.6,4.6l0.1-1.9l0,0l0,0l0,0c0-0.1,0-0.1-0.1-0.2l0,0c0-0.1-0.1-0.1-0.2-0.1l0,0l-6.3-2
		c-0.1-0.1-0.3-0.1-0.4,0c0,0-5.6,2.9-5.6,2.9c0,0.1-0.1,0.1-0.1,0.2l-0.1,1.9l0,0l0,0l0,0c0,0.1,0,0.1,0.1,0.2v0
		c0,0.1,0.1,0.1,0.2,0.2l0,0l6.3,2.5c0.1,0.1,0.2,0.1,0.2,0.1l0,0c0.1,0,0.2,0,0.2,0l5.3-3.2l0,0c0.1,0,0.1-0.1,0.2-0.1l0,0
		C76.6,4.9,76.6,4.8,76.6,4.6z M75.6,4.2L71.3,7l0.1-0.7l4.4-2.8L75.6,4.2z M69.9,1.2l5.1,1.5l-4,2.6l-5.2-1.9L69.9,1.2z M64.9,5
		l0.1-0.8l5.4,2L70.3,7l-4.7-1.7L64.9,5z"/>
	<polygon class="st1" points="75.6,4.2 71.3,7 71.4,6.3 75.7,3.5 	"/>
	<polygon class="st1" points="69.9,1.3 75,2.8 70.9,5.4 65.7,3.5 	"/>
	<polygon class="st1" points="64.9,5 64.9,4.2 70.4,6.2 70.3,7 65.6,5.3 	"/>
	<path class="st0" d="M56.7,13.8l0.1-1.9l0,0l0,0c0-0.1,0-0.1-0.1-0.2c0,0,0,0,0,0c0-0.1-0.1-0.1-0.2-0.2l0,0l-6.4-2.1
		c-0.1-0.1-0.3-0.1-0.4,0L43.9,12c0,0.1-0.1,0.1-0.1,0.2l-0.1,1.9l0,0l0,0l0,0c0,0.1,0,0.1,0.1,0.2v0c0,0.1,0.1,0.1,0.2,0.2l0,0
		l6.2,2.6c0.1,0.1,0.2,0.1,0.2,0.1l0,0c0.1,0,0.2,0,0.2,0l5.8-3l0,0c0.1,0,0.1-0.1,0.2-0.1l0,0C56.7,14,56.7,13.9,56.7,13.8z
		 M55.7,13.3l-4.8,2.6l0.1-0.7l4.7-2.6L55.7,13.3z M49.9,10.3l5.1,1.6l-4.4,2.4l-5.1-2.1L49.9,10.3z M44.7,13.8l0.1-0.8l5.3,2.2
		l-0.1,0.8l-4.5-1.8L44.7,13.8z"/>
	<polygon class="st1" points="55.7,13.3 51,15.9 51,15.2 55.8,12.7 	"/>
	<polygon class="st1" points="50,10.3 55,11.9 50.6,14.3 45.5,12.2 	"/>
	<polygon class="st1" points="44.7,13.8 44.8,13 50,15.1 50,15.9 45.4,14.1 	"/>
	<path class="st0" d="M34.2,26.8l0.2-1.9l0,0l0,0c0-0.1,0-0.1-0.1-0.2v0c-0.1-0.1-0.1-0.1-0.2-0.2l0,0l-7.1-2.8c-0.1,0-0.3,0-0.4,0
		c0,0-5.8,2.8-5.8,2.8c0,0.1-0.1,0.1-0.1,0.2l-0.2,1.8l0,0l0,0l0,0c0,0.1,0,0.1,0.1,0.2v0c0,0.1,0.1,0.1,0.2,0.2l0,0l6.9,3
		C27.8,30,27.9,30,28,30l0,0c0.1,0,0.2,0,0.2,0l5.6-2.9l0,0c0.1,0,0.1-0.1,0.2-0.1l0,0C34.1,26.9,34.2,26.9,34.2,26.8z M33.2,26.3
		l-4.6,2.5v-0.7l4.6-2.4V26.3z M26.8,22.6l5.8,2.3l-4.3,2.3l-5.8-2.5L26.8,22.6z M21.6,26.2l0.1-0.8l6,2.6l-0.1,0.8l-5.3-2.3
		L21.6,26.2z"/>
	<polygon class="st1" points="33.3,26.3 28.6,28.8 28.7,28.1 33.3,25.7 	"/>
	<polygon class="st1" points="26.8,22.6 32.6,24.9 28.3,27.2 22.4,24.7 	"/>
	<polygon class="st1" points="21.6,26.2 21.6,25.4 27.7,28 27.6,28.8 22.3,26.5 	"/>
	<path class="st0" d="M25.1,30.9l0.1-1.9v0l0,0c0-0.1,0-0.1-0.1-0.2l0,0c-0.1-0.1-0.1-0.1-0.2-0.2l0,0L18.8,26
		c-0.1-0.1-0.3-0.1-0.4,0c0,0-7.7,3.5-7.7,3.5c0,0.1-0.1,0.1-0.1,0.2l-0.2,1.9l0,0l0,0l0,0c0,0.1,0,0.1,0,0.2v0.1
		c0,0.1,0.1,0.1,0.2,0.2l0,0l6.5,2.8c0.1,0.1,0.2,0.1,0.2,0.1l0,0c0.1,0,0.2,0,0.2,0l7.1-3.7l0,0c0.1,0,0.1-0.1,0.2-0.2l0,0
		C24.9,31.1,25,31,25.1,30.9z M24.1,30.5L18,33.7l0-0.7l6.1-3.2L24.1,30.5z M18.5,26.9l4.9,2.1l-5.8,3.1l-5.4-2.3L18.5,26.9z
		 M11.4,31.4l0.1-0.9l5.6,2.4L17,33.7l-4.9-2.1L11.4,31.4z"/>
	<polygon class="st1" points="24.1,30.5 18,33.7 18.1,33 24.1,29.8 	"/>
	<polygon class="st1" points="18.5,26.9 23.4,29 17.6,32.1 12.3,29.8 	"/>
	<polygon class="st1" points="11.5,31.4 11.5,30.5 17.1,32.9 17,33.7 12.2,31.7 	"/>
	<path class="st0" d="M31.9,34.1l0.1-1.9v0l0,0c0-0.1,0-0.1-0.1-0.2l0,0c-0.1-0.1-0.1-0.1-0.2-0.2l0,0l-3.4-1.3
		c-0.1-0.1-0.3-0.1-0.4,0l-4.9,2.2c0,0.1-0.1,0.1-0.1,0.2l-0.1,1.9l0,0l0,0c0,0.1,0,0.1,0.1,0.2l0,0c0,0.1,0.1,0.1,0.2,0.2l0,0
		l3.2,1.4c0.1,0.1,0.2,0.1,0.2,0.1l0,0c0.1,0,0.2,0,0.2,0l4.8-2.2l0,0c0.1,0,0.1-0.1,0.2-0.2l0,0C31.9,34.3,31.9,34.2,31.9,34.1z
		 M30.9,33.7l-3.8,1.7l0-0.7L31,33L30.9,33.7z M28.1,31.4l2.1,0.8l-3.5,1.6l-2.1-0.9L28.1,31.4z M23.8,34.4l0.1-0.8l2.3,1l-0.1,0.8
		l-1.6-0.7L23.8,34.4z"/>
	<polygon class="st1" points="31,33.7 27.2,35.4 27.2,34.7 31,33 	"/>
	<polygon class="st1" points="28.2,31.4 30.3,32.2 26.8,33.8 24.7,32.9 	"/>
	<polygon class="st1" points="23.9,34.5 23.9,33.6 26.2,34.6 26.2,35.4 	"/>
	<path class="st0" d="M14.5,27.2l0.1-1.9l0,0l0,0c0-0.1,0-0.1-0.1-0.2v0c-0.1-0.1-0.1-0.1-0.2-0.2l0,0l-3.5-1.4
		c-0.1-0.1-0.3-0.1-0.4,0c0,0-4.9,2.2-4.9,2.2c0,0.1-0.1,0.1-0.1,0.2l-0.1,1.9l0,0l0,0l0,0c0,0.1,0,0.1,0.1,0.2l0,0
		c0,0.1,0.1,0.1,0.2,0.2l0,0l3.2,1.4c0.1,0.1,0.2,0.1,0.2,0.1l0,0c0.1,0,0.2,0,0.2,0l4.8-2.2l0,0c0.1,0,0.2,0,0.3,0l0,0
		C14.5,27.4,14.5,27.3,14.5,27.2z M13.5,26.8l-3.8,1.8l0-0.7l3.8-1.7L13.5,26.8z M10.7,24.6l2.1,0.8L9.3,27l-2.1-0.9L10.7,24.6z
		 M6.4,27.6l0.1-0.8l2.3,1l0,0.8l-1.6-0.7L6.4,27.6z"/>
	<polygon class="st1" points="13.5,26.8 9.7,28.6 9.8,27.9 13.6,26.2 	"/>
	<polygon class="st1" points="10.7,24.6 12.8,25.4 9.3,27 7.2,26.1 	"/>
	<polygon class="st1" points="6.4,27.6 6.5,26.8 8.8,27.8 8.7,28.6 	"/>
	<path class="st0" d="M49.2,19.8l0.1-1.9l0,0l0,0l0,0c0-0.1,0-0.1-0.1-0.2l0,0c-0.1-0.1-0.1-0.1-0.2-0.2l0,0L40.1,14
		c-0.1-0.1-0.3-0.1-0.4,0l-10,4.4l0,0c-0.1,0-0.1,0.1-0.2,0.1v0c0,0.1-0.1,0.1-0.1,0.2l-0.1,1.9l0,0l0,0c0,0.1,0,0.1,0.1,0.2l0,0
		c0,0.1,0.1,0.1,0.2,0.2l0,0l9.1,4.3c0.1,0,0.2,0.1,0.2,0.1l0,0c0.1,0,0.2,0,0.2,0l9.7-5.2c0.1,0,0.1-0.1,0.2-0.2l0,0
		C49.1,20,49.2,19.9,49.2,19.8z M48.2,19.4l-8.7,4.7v-0.7l8.7-4.7L48.2,19.4z M39.9,14.8l7.6,3.2l-8.4,4.5l-8-3.8L39.9,14.8z
		 M30.3,20.3l0.1-0.8l8.2,3.9v0.8l-7.4-3.6L30.3,20.3z"/>
	<polygon class="st1" points="48.2,19.4 39.5,24.1 39.6,23.4 48.2,18.7 	"/>
	<polygon class="st1" points="39.9,14.8 47.5,18 39.1,22.5 31.1,18.7 	"/>
	<polygon class="st1" points="30.4,20.3 30.4,19.5 38.6,23.3 38.5,24.1 31.1,20.6 	"/>
	<path class="st1" d="M13.2,23.7c0.4,0,0.6,0.1,0.6,0.3s-0.3,0.3-0.6,0.3s-0.6-0.1-0.6-0.3S12.8,23.7,13.2,23.7z"/>
	<path class="st1" d="M15.4,22.6c0.4,0,0.6,0.1,0.6,0.3s-0.3,0.3-0.6,0.3s-0.6-0.1-0.6-0.3S15,22.6,15.4,22.6z"/>
	<path class="st1" d="M17.6,21.5c0.4,0,0.6,0.1,0.7,0.3s-0.3,0.3-0.6,0.3S17,22,17,21.8S17.2,21.5,17.6,21.5z"/>
	<path class="st1" d="M19.8,20.5c0.4,0,0.6,0.1,0.7,0.3s-0.3,0.3-0.6,0.3s-0.6-0.1-0.6-0.3S19.5,20.5,19.8,20.5z"/>
	<path class="st1" d="M22,19.4c0.4,0,0.6,0.1,0.6,0.3S22.4,20,22.1,20s-0.6-0.1-0.7-0.3S21.7,19.4,22,19.4z"/>
	<path class="st1" d="M24.3,18.3c0.4,0,0.7,0.1,0.7,0.3s-0.3,0.3-0.6,0.3s-0.7-0.1-0.7-0.3S23.9,18.3,24.3,18.3z"/>
	<path class="st1" d="M26.5,17.2c0.4,0,0.7,0.1,0.7,0.3s-0.3,0.3-0.6,0.3s-0.6-0.1-0.7-0.3S26.1,17.2,26.5,17.2z"/>
	<path class="st1" d="M28.7,16.1c0.3,0,0.7,0.1,0.7,0.3s-0.3,0.3-0.6,0.3s-0.7-0.1-0.7-0.3S28.3,16.2,28.7,16.1z"/>
	<path class="st1" d="M30.9,15.1c0.3,0,0.6,0.1,0.7,0.3s-0.3,0.3-0.6,0.3s-0.7-0.1-0.7-0.3S30.6,15.1,30.9,15.1z"/>
	<path class="st1" d="M33.1,14c0.3,0,0.6,0.1,0.7,0.3s-0.3,0.3-0.6,0.3s-0.7-0.1-0.7-0.3S32.8,14,33.1,14z"/>
	<path class="st1" d="M35.3,12.9c0.4,0,0.7,0.1,0.7,0.3c0,0.2-0.3,0.3-0.6,0.3s-0.7-0.1-0.7-0.3S35,12.9,35.3,12.9z"/>
	<path class="st1" d="M37.6,11.8c0.4,0,0.7,0.1,0.7,0.3c0,0.2-0.3,0.3-0.6,0.3s-0.7-0.1-0.7-0.3S37.2,11.8,37.6,11.8z"/>
	<path class="st1" d="M39.8,10.8c0.4,0,0.7,0.1,0.7,0.3s-0.3,0.3-0.6,0.3c-0.3,0-0.7-0.1-0.7-0.3C39.1,10.9,39.4,10.8,39.8,10.8z"/>
	<path class="st1" d="M42,9.7c0.4,0,0.7,0.1,0.7,0.3s-0.3,0.3-0.6,0.3s-0.6-0.1-0.6-0.3S41.7,9.7,42,9.7z"/>
	<path class="st1" d="M44.2,8.6c0.4,0,0.7,0.1,0.7,0.3s-0.3,0.3-0.6,0.3s-0.6-0.1-0.7-0.3S43.9,8.6,44.2,8.6z"/>
	<path class="st1" d="M46.4,7.5c0.3,0,0.7,0.1,0.7,0.3s-0.3,0.3-0.6,0.3S45.8,8,45.8,7.8S46.1,7.5,46.4,7.5z"/>
	<path class="st1" d="M48.7,6.5c0.3,0,0.6,0.1,0.7,0.3S49,7.1,48.7,7.2S48,7,48,6.8S48.3,6.5,48.7,6.5z"/>
	<path class="st1" d="M50.9,5.4c0.4,0,0.7,0.1,0.7,0.3c0,0.2-0.3,0.3-0.6,0.3s-0.7-0.1-0.7-0.3S50.5,5.4,50.9,5.4z"/>
	<path class="st1" d="M33,30.8c0.3,0,0.7,0.1,0.7,0.3s-0.3,0.3-0.6,0.3s-0.6-0.1-0.6-0.3S32.7,30.8,33,30.8z"/>
	<path class="st1" d="M35.3,29.7c0.3,0,0.6,0.1,0.7,0.3s-0.3,0.3-0.6,0.3s-0.7-0.1-0.7-0.3S34.9,29.7,35.3,29.7z"/>
	<path class="st1" d="M37.5,28.6c0.4,0,0.7,0.1,0.7,0.3c0,0.2-0.3,0.3-0.6,0.3s-0.7-0.1-0.7-0.3S37.1,28.6,37.5,28.6z"/>
	<path class="st1" d="M39.7,27.6c0.4,0,0.7,0.1,0.7,0.3c0,0.2-0.3,0.3-0.6,0.3s-0.7-0.1-0.7-0.3S39.3,27.6,39.7,27.6z"/>
	<path class="st1" d="M41.9,26.5c0.4,0,0.7,0.1,0.7,0.3s-0.3,0.3-0.6,0.3c-0.3,0-0.7-0.1-0.7-0.3C41.3,26.7,41.6,26.5,41.9,26.5z"/>
	<path class="st1" d="M44.1,25.4c0.4,0,0.7,0.1,0.7,0.3s-0.3,0.3-0.6,0.3c-0.4,0-0.7-0.1-0.7-0.3C43.5,25.6,43.8,25.4,44.1,25.4z"/>
	<path class="st1" d="M46.3,24.3c0.4,0,0.7,0.1,0.7,0.3S46.7,25,46.4,25s-0.6-0.1-0.7-0.3S46,24.3,46.3,24.3z"/>
	<path class="st1" d="M48.6,23.2c0.3,0,0.7,0.1,0.7,0.3s-0.3,0.3-0.6,0.3s-0.7-0.1-0.7-0.3S48.2,23.3,48.6,23.2z"/>
	<path class="st1" d="M50.8,22.2c0.3,0,0.6,0.1,0.7,0.3s-0.3,0.3-0.6,0.3s-0.7-0.1-0.7-0.3S50.4,22.2,50.8,22.2z"/>
	<path class="st1" d="M53,21.1c0.3,0,0.6,0.1,0.7,0.3s-0.3,0.3-0.6,0.3s-0.7-0.1-0.7-0.3S52.7,21.1,53,21.1z"/>
	<path class="st1" d="M55.2,20c0.4,0,0.7,0.1,0.7,0.3s-0.3,0.3-0.6,0.3s-0.7-0.1-0.7-0.3S54.9,20,55.2,20z"/>
	<path class="st1" d="M57.4,19c0.4,0,0.7,0.1,0.7,0.3s-0.3,0.3-0.6,0.3s-0.7-0.1-0.7-0.3S57.1,19,57.4,19z"/>
	<path class="st1" d="M59.7,17.9c0.4,0,0.7,0.1,0.7,0.3s-0.3,0.3-0.6,0.3S59,18.4,59,18.2S59.3,17.9,59.7,17.9z"/>
	<path class="st1" d="M61.9,16.8c0.4,0,0.7,0.1,0.7,0.3s-0.3,0.3-0.6,0.3s-0.7-0.1-0.7-0.3S61.5,16.8,61.9,16.8z"/>
	<path class="st0" d="M74.3,11.6V6.7l0,0l0,0l0,0c0-0.1,0-0.1-0.1-0.2l0,0c-0.1-0.1-0.1-0.1-0.2-0.1l0,0l-6.3-2c-0.1,0-0.2,0-0.4,0
		L57.1,9.1l0,0c-0.1,0-0.1,0.1-0.2,0.1v0c0,0.1,0,0.1,0,0.2v4.9l0,0l0,0c0,0.1,0,0.1,0.1,0.2v0c0,0.1,0.1,0.1,0.2,0.1l0,0l6,2.3
		c0.1,0,0.2,0.1,0.2,0.1l0,0c0.1,0,0.2,0,0.2-0.1L74.1,12l0,0c0.1,0,0.1-0.1,0.2-0.2l0,0C74.3,11.8,74.3,11.7,74.3,11.6z M73.3,11.3
		L63.8,16v-3.8l9.6-4.6L73.3,11.3z M67.6,5.3l5,1.6l-9.2,4.4l-4.9-1.9L67.6,5.3z M57.7,14.1v-3.9l5.1,2v3.9l-4.4-1.7L57.7,14.1z"/>
	<polygon class="st1" points="73.4,11.3 63.9,16 63.9,12.2 73.4,7.5 	"/>
	<polygon class="st1" points="67.6,5.3 72.6,6.8 63.4,11.3 58.5,9.4 	"/>
	<polygon class="st1" points="57.8,14.1 57.8,10.2 62.9,12.2 62.9,16 58.5,14.3 	"/>
</g>
</svg>
