<svg width="28" height="28" viewBox="0 0 28 28" fill="none" xmlns="http://www.w3.org/2000/svg">
<path d="M23.9039 9.06719C23.4609 4.95469 19.9828 1.75 15.75 1.75C12.95 1.75 10.4836 3.15 9.00156 5.28828C8.54766 5.10234 8.05 4.99844 7.53047 4.99844C5.39219 4.99844 3.65859 6.87969 3.62578 9.0125C1.44375 9.70703 0 11.8398 0 14.082C0 16.8273 2.22578 19.25 4.97109 19.25H13.2891V11.4898L10.6695 14.0711C10.3906 14.3445 9.94219 14.3445 9.66328 14.0656C9.38984 13.7867 9.38984 13.3383 9.66875 13.0594L13.4969 9.28594C13.5625 9.22578 13.6336 9.17109 13.7211 9.13828C13.8086 9.1 13.9016 9.08359 13.9945 9.08359C14.1805 9.08359 14.3555 9.15469 14.4922 9.28594L18.3203 13.0594C18.5992 13.3328 18.6047 13.7867 18.3258 14.0656C18.0523 14.3445 17.5984 14.35 17.3195 14.0711L14.7109 11.4898V19.25H23.0289C25.7742 19.25 28 16.8273 28 14.082C28 11.6375 26.2336 9.48281 23.9039 9.06719ZM13.2891 25.5391C13.2891 25.9328 13.6063 26.25 14 26.25C14.3937 26.25 14.7109 25.9328 14.7109 25.5391V19.25H13.2891V25.5391Z" fill="#EF7D3B"/>
</svg>
