<?xml version="1.0" encoding="utf-8"?>
<!-- Generator: Adobe Illustrator 24.1.2, SVG Export Plug-In . SVG Version: 6.00 Build 0)  -->
<svg version="1.1" id="Layer_1" xmlns="http://www.w3.org/2000/svg" xmlns:xlink="http://www.w3.org/1999/xlink" x="0px" y="0px"
	 viewBox="0 0 67.7 41.4" style="enable-background:new 0 0 67.7 41.4;" xml:space="preserve">
<style type="text/css">
	.st0{fill:none;stroke:#EF7D3B;stroke-linecap:round;stroke-linejoin:round;stroke-miterlimit:10;}
	.st1{fill:#EF7D3B;stroke:#EF7D3B;stroke-linecap:round;stroke-linejoin:round;stroke-miterlimit:10;}
	.st2{fill:#FFFFFF;}
</style>
<g id="WL_Azure_Blue">
</g>
<g id="Circuit_Diagram">
	<g>
		<g>
			<g>
				<polygon class="st0" points="1.1,18.3 1.1,21 34.6,40.3 66.9,21 66.9,18.3 34.7,37.2 				"/>
			</g>
			<polygon class="st1" points="1.1,18.3 34.6,1.8 66.9,18.3 34.7,37.2 			"/>
			<g>
				<path class="st2" d="M24.9,20.5L45.5,16l-4.2,14.3c0,0.2,0.1,0.4,0.3,0.5c0.1,0.1,0.2,0.1,0.4,0.1c0.3,0,0.4-0.3,0.6-0.7
					l4.1-14.7c0-0.1,0-0.1,0-0.2c-0.1-0.3-0.5-0.4-0.8-0.3l-10.3,2.3l2.3-6.9c0-0.2-0.1-0.4-0.3-0.5c-0.2-0.1-0.4-0.1-0.6,0l-22,4.4
					c-0.2,0.1-0.4,0.3-0.4,0.5c0,0.2,0.1,0.5,0.3,0.6l8.8,5.1c0,0,0,0,0,0C23.8,20.5,24.2,20.7,24.9,20.5z M36.7,10.8l-2.4,6.8
					l-10,2.2L16.1,15L36.7,10.8z"/>
				<path class="st2" d="M32.1,24.5c0,0.1,0,0.1,0.1,0.2c0.1,0,0.1,0,0.2,0c0.2,0,0.3-0.2,0.3-0.3v0v-1.9c0-0.2-0.1-0.2-0.3-0.2l0,0
					h0l-2.1,0.5c-0.2,0-0.3,0.2-0.3,0.3v0c0,0.2,0.1,0.2,0.3,0.2c0,0,0,0,0,0s0,0,0,0l1.8-0.5L32.1,24.5z"/>
				<path class="st2" d="M31.2,21.7L31.2,21.7c0,0.2,0.1,0.3,0.3,0.2l0,0c0,0,0,0,0,0l1.8-0.5v1.6c0,0.1,0,0.1,0.1,0.2
					c0.1,0,0.1,0,0.2,0c0.2,0,0.3-0.2,0.3-0.3v0v-1.9c0-0.2-0.1-0.2-0.3-0.2l0,0h0l-2.1,0.5C31.3,21.4,31.2,21.6,31.2,21.7z"/>
				<path class="st2" d="M32.6,20.7L32.6,20.7l1.8-0.5v1.6c0,0.1,0,0.1,0.1,0.2c0.1,0,0.1,0,0.2,0c0.2,0,0.3-0.2,0.3-0.3v0l0-1.9
					c0-0.2-0.1-0.2-0.3-0.2l0,0l0,0l-2.1,0.5c-0.2,0-0.3,0.2-0.3,0.4C32.2,20.7,32.4,20.8,32.6,20.7z"/>
				<path class="st2" d="M35.7,24.3c0-0.2-0.1-0.2-0.3-0.2l0,0l0,0l-2.1,0.5c-0.2,0-0.3,0.2-0.3,0.3v0c0,0.1,0,0.1,0.1,0.2
					c0.1,0,0.1,0,0.2,0l1.8-0.5v1.6c0,0.2,0.1,0.2,0.3,0.2c0,0,0,0,0,0c0.2,0,0.3-0.2,0.3-0.4L35.7,24.3z"/>
				<path class="st2" d="M36.9,24.9l0-1.9c0-0.2-0.1-0.2-0.3-0.2l0,0l0,0l-2.1,0.5c-0.2,0-0.3,0.2-0.3,0.3c0,0.1,0,0.1,0.1,0.2
					s0.1,0,0.2,0l1.8-0.5V25c0,0.2,0.1,0.2,0.3,0.2l0,0C36.7,25.2,36.9,25,36.9,24.9L36.9,24.9z"/>
				<path class="st2" d="M37.7,21.6C37.7,21.6,37.7,21.6,37.7,21.6L37.7,21.6l-2.1,0.5c-0.2,0-0.3,0.2-0.3,0.3c0,0,0,0,0,0
					c0,0.1,0,0.1,0.1,0.2c0.1,0,0.1,0,0.2,0l1.8-0.5v1.6c0,0.2,0.1,0.2,0.3,0.2c0,0,0,0,0,0c0.2,0,0.3-0.2,0.3-0.4l0-1.9
					C38,21.6,37.8,21.5,37.7,21.6z"/>
				<path class="st2" d="M38.7,28.1v-1.9c0-0.2-0.1-0.2-0.3-0.2l0,0l0,0l-2.1,0.5c-0.2,0-0.3,0.2-0.3,0.3v0c0,0.2,0.1,0.2,0.3,0.2
					c0,0,0,0,0,0s0,0,0,0l1.8-0.5l0,1.6c0,0.1,0,0.1,0.1,0.2c0.1,0,0.1,0,0.2,0C38.5,28.5,38.7,28.3,38.7,28.1L38.7,28.1
					C38.7,28.2,38.7,28.2,38.7,28.1z"/>
				<path class="st2" d="M39.8,26.8C39.8,26.8,39.8,26.8,39.8,26.8l0-1.9c0-0.2-0.1-0.2-0.3-0.2l0,0l0,0l-2.1,0.5
					c-0.2,0-0.3,0.2-0.3,0.3c0,0,0,0,0,0c0,0.2,0.1,0.2,0.3,0.2l0,0h0l1.8-0.5l0,1.6c0,0.1,0,0.1,0.1,0.2c0.1,0,0.1,0,0.2,0
					C39.7,27.1,39.8,27,39.8,26.8z"/>
				<path class="st2" d="M38.5,24.6L38.5,24.6l1.8-0.5l0,1.6c0,0.1,0,0.1,0.1,0.2c0.1,0,0.1,0,0.2,0c0.2,0,0.3-0.2,0.3-0.3
					c0,0,0,0,0,0l0-1.9c0-0.2-0.1-0.2-0.3-0.2l0,0l0,0L38.5,24c-0.2,0-0.3,0.2-0.3,0.4C38.2,24.5,38.3,24.6,38.5,24.6z"/>
			</g>
		</g>
	</g>
</g>
<g id="detailed_Illustration">
</g>
<g id="simple_illo">
</g>
</svg>
