<?xml version="1.0" encoding="utf-8"?>
<!-- Generator: Adobe Illustrator 24.1.2, SVG Export Plug-In . SVG Version: 6.00 Build 0)  -->
<svg version="1.1" id="Layer_1" xmlns="http://www.w3.org/2000/svg" xmlns:xlink="http://www.w3.org/1999/xlink" x="0px" y="0px"
	 viewBox="0 0 281.9 143.5" style="enable-background:new 0 0 281.9 143.5;" xml:space="preserve">
<style type="text/css">
	.st0{fill-rule:evenodd;clip-rule:evenodd;fill:#443F35;}
	.st1{clip-path:url(#SVGID_2_);}
	.st2{fill:#524740;}
	.st3{clip-path:url(#SVGID_4_);}
	.st4{clip-path:url(#SVGID_6_);}
</style>
<path class="st0" d="M194.7,97.8l-3.8,9.4l-15.1-25.4l-45.2-9.5l-13.1,11.2c-0.8,0.8-1.9,1.3-3,1.5c-1.5,0-3.4-1.6-3.4-1.6
	l-10.6-7.5l-16.7,31.3l-4.4-8.8l50.4-94.9c0,0,1.3-3.5,4.3-3.5s4.4,3.5,4.4,3.5L194.7,97.8L194.7,97.8z"/>
<g>
	<g>
		<g>
			<g>
				<defs>
					<path id="SVGID_1_" d="M194.7,97.8l-3.8,9.4l-15.1-25.4l-45.2-9.5l-13.1,11.2c-0.8,0.8-1.9,1.3-3,1.5c-1.5,0-3.4-1.6-3.4-1.6
						l-10.6-7.5l-16.7,31.3l-4.4-8.8l50.4-94.9c0,0,1.3-3.5,4.3-3.5s4.4,3.5,4.4,3.5L194.7,97.8L194.7,97.8z"/>
				</defs>
				<clipPath id="SVGID_2_">
					<use xlink:href="#SVGID_1_"  style="overflow:visible;"/>
				</clipPath>
				<g class="st1">
					<rect x="73.5" y="-5.8" class="st2" width="126.9" height="118.7"/>
				</g>
			</g>
		</g>
	</g>
</g>
<path class="st0" d="M89.1,130.7c1.4-0.1,2.7-0.8,3.4-2c0.7-1.1,0.7-2.5,0.2-3.7L46.3,30.8c-0.7-1.3-2.1-2.1-3.6-2
	c-1.5-0.1-2.9,0.7-3.5,2L0.3,124.5c-0.5,1.4-0.4,3,0.3,4.3c0.7,1.1,1.9,1.8,3.2,1.9h37.6v9c0,0,0.1,4,4.1,4s4-4.1,4-4.1v-9
	L89.1,130.7z M43.1,42.6l39.3,80H9.9L43.1,42.6z"/>
<g>
	<g>
		<g>
			<g>
				<defs>
					<path id="SVGID_3_" d="M89.1,130.7c1.4-0.1,2.7-0.8,3.4-2c0.7-1.1,0.7-2.5,0.2-3.7L46.3,30.8c-0.7-1.3-2.1-2.1-3.6-2
						c-1.5-0.1-2.9,0.7-3.5,2L0.3,124.5c-0.5,1.4-0.4,3,0.3,4.3c0.7,1.1,1.9,1.8,3.2,1.9h37.6v9c0,0,0.1,4,4.1,4s4-4.1,4-4.1v-9
						L89.1,130.7z M43.1,42.6l39.3,80H9.9L43.1,42.6z"/>
				</defs>
				<clipPath id="SVGID_4_">
					<use xlink:href="#SVGID_3_"  style="overflow:visible;"/>
				</clipPath>
				<g class="st3">
					<rect x="-5.7" y="23" class="st2" width="104.6" height="126.6"/>
				</g>
			</g>
		</g>
	</g>
</g>
<path class="st0" d="M272.1,130.7c1.4-0.1,2.7-0.8,3.4-2c0.7-1.1,0.7-2.5,0.2-3.7l-46.4-94.3c-0.7-1.3-2.1-2.1-3.6-2
	c-1.5-0.1-2.9,0.7-3.5,2l-38.9,93.7c-0.5,1.4-0.4,3,0.3,4.3c0.7,1.1,1.9,1.8,3.3,1.9h37.6v9c0,0,0.1,4,4.1,4s4-4.1,4-4.1v-9
	L272.1,130.7z M226.1,42.6l39.3,80h-72.5L226.1,42.6L226.1,42.6z"/>
<g>
	<g>
		<g>
			<g>
				<defs>
					<path id="SVGID_5_" d="M272.1,130.7c1.4-0.1,2.7-0.8,3.4-2c0.7-1.1,0.7-2.5,0.2-3.7l-46.4-94.3c-0.7-1.3-2.1-2.1-3.6-2
						c-1.5-0.1-2.9,0.7-3.5,2l-38.9,93.7c-0.5,1.4-0.4,3,0.3,4.3c0.7,1.1,1.9,1.8,3.3,1.9h37.6v9c0,0,0.1,4,4.1,4s4-4.1,4-4.1v-9
						L272.1,130.7z M226.1,42.6l39.3,80h-72.5L226.1,42.6L226.1,42.6z"/>
				</defs>
				<clipPath id="SVGID_6_">
					<use xlink:href="#SVGID_5_"  style="overflow:visible;"/>
				</clipPath>
				<g class="st4">
					<rect x="177.3" y="23" class="st2" width="104.6" height="126.6"/>
				</g>
			</g>
		</g>
	</g>
</g>
</svg>
