<svg width="45" height="25" viewBox="0 0 45 25" fill="none" xmlns="http://www.w3.org/2000/svg">
<path d="M7.83178 23.9058V21.0928M7.83178 21.0928H1.39936C1.21477 21.0928 1.09383 20.8996 1.17448 20.7335L7.6069 7.49033C7.69807 7.30263 7.96548 7.30263 8.05665 7.49033L14.4891 20.7335C14.5697 20.8996 14.4488 21.0928 14.2642 21.0928H7.83178Z" stroke="#F6F7F7" stroke-linecap="round"/>
<path d="M37.1677 23.1012V20.2881M37.1677 20.2881H30.7353C30.5507 20.2881 30.4298 20.0949 30.5104 19.9289L36.9428 6.68564C37.034 6.49794 37.3014 6.49794 37.3926 6.68564L43.825 19.9289C43.9057 20.0949 43.7847 20.2881 43.6001 20.2881H37.1677Z" stroke="#F6F7F7" stroke-linecap="round"/>
<path d="M21.6974 1.36985L15.6423 12.6542L19.3609 14.21C19.4382 14.2423 19.5265 14.2338 19.5961 14.1873L21.8115 12.7104C21.8656 12.6744 21.9316 12.6608 21.9955 12.6726L30.6206 14.2617L22.1265 1.35065C22.0224 1.19239 21.7869 1.20292 21.6974 1.36985Z" fill="#F6F7F7"/>
<path d="M13.0547 17.4766L15.6423 12.6542M31.9425 16.271L30.6206 14.2617M15.6423 12.6542L21.6974 1.36985C21.7869 1.20292 22.0224 1.19239 22.1265 1.35065L30.6206 14.2617M15.6423 12.6542L19.3609 14.21C19.4382 14.2423 19.5265 14.2338 19.5961 14.1873L21.8115 12.7104C21.8656 12.6744 21.9316 12.6608 21.9955 12.6726L30.6206 14.2617" stroke="#F6F7F7"/>
</svg>
