<?xml version="1.0" encoding="utf-8"?>
<!-- Generator: Adobe Illustrator 24.1.0, SVG Export Plug-In . SVG Version: 6.00 Build 0)  -->
<svg version="1.1" id="Layer_1" xmlns="http://www.w3.org/2000/svg" xmlns:xlink="http://www.w3.org/1999/xlink" x="0px" y="0px"
	 viewBox="0 0 829 180" style="enable-background:new 0 0 829 180;" xml:space="preserve">
<style type="text/css">
	.st0{fill:#524740;}
</style>
<path class="st0" d="M382.5,105.3v37.8h-8.6v-37.5c0-11-8.1-19.7-18.9-19.7s-19,8.7-19,19.7v37.5h-8.5v-37.5c0-11-8.4-19.7-19-19.7
	s-19,8.7-19,19.7v37.5h-8.4V79.1h8.4v9.5c4.8-6.6,12.4-10.5,20.5-10.5c9.5,0,18.3,5.3,22.8,13.7c4.3-8.2,13-13.7,23.7-13.7
	C371.4,78.1,382.5,90.1,382.5,105.3z"/>
<path class="st0" d="M451.9,119.4l7.1,2.6c-3.3,9-14.4,21.6-31.6,21.5c-14.6-0.2-27.3-9.8-31.6-23.7c-0.9-3-1.3-6.1-1.3-9.2
	c-0.2-18.1,14.2-32.9,32.3-33.2c16.8-0.2,31.1,12.4,33,29.1c0.1,0.6,0.1,1.1,0.1,1.7l-55.6,10.1c2.9,10.3,12.3,17.4,23,17.4
	C439.4,135.7,449,127.5,451.9,119.4z M403,108.4c0,0.8,0.1,1.7,0.1,2.9l47.4-8.6c-3.2-10.4-12.9-17.6-23.8-17.6
	C413.9,85.6,403.6,95.7,403,108.4L403,108.4z"/>
<path class="st0" d="M536.7,79.1v64.1h-8.4v-10.4c-12,13.7-32.8,15-46.5,3s-15-32.8-3-46.5c6.2-7.1,15.2-11.1,24.6-11.2
	c9.5,0,18.6,4.1,24.8,11.4V79.1H536.7z M528,111.1c0-14-10.7-25-24.5-25c-13.8,0-25,11.2-25,25s11.2,25,25,25
	C517.3,136.1,528,125.1,528,111.1L528,111.1z"/>
<path class="st0" d="M615.8,47.8v95.3h-8.4v-10.4c-12,13.7-32.8,15-46.5,3s-15-32.8-3-46.5c6.2-7.1,15.2-11.1,24.6-11.2
	c9.5,0,18.6,4.1,24.8,11.4V47.8H615.8z M607.1,111.1c0-14-10.7-25-24.5-25s-24.6,11-24.6,25s10.8,25,24.6,25
	S607.2,125.1,607.1,111.1L607.1,111.1z"/>
<path class="st0" d="M629.5,111.1c0.1-18.1,14.9-32.8,33-32.7c18.1,0.1,32.8,14.9,32.7,33c-0.1,18.1-14.8,32.7-32.8,32.7
	c-18.2,0-32.9-14.7-32.9-32.9C629.5,111.2,629.5,111.2,629.5,111.1z M686.9,111.1c0-14-10.7-25.1-24.4-25.1S638,97.2,638,111.1
	s10.8,25,24.5,25S686.9,125.1,686.9,111.1L686.9,111.1z"/>
<path class="st0" d="M797.2,79.1l-22.5,64.1h-8.4l-18-52.8l-17.9,52.8h-8.4l-22.4-64.1h8.4l18.2,52.1l18.3-52.1h7.6l18.3,52.1
	l18.3-52.1H797.2z"/>
<path class="st0" d="M108.1,143.8h-72c-1.6,0-3.1-0.9-3.8-2.4c-0.7-1.5-0.6-3.2,0.4-4.5l73.1-99.3c0.8-1.1,2.1-1.7,3.4-1.8l0,0
	c1.4,0,2.6,0.7,3.4,1.8l36,48.9c1.4,1.9,1,4.6-0.9,6c-1.9,1.4-4.6,1-6-0.9c0,0,0,0,0,0l-32.5-44.2l-64.6,87.7h63.4
	c2.4,0.1,4.2,2.1,4.1,4.5C112.1,141.9,110.3,143.7,108.1,143.8z"/>
<path class="st0" d="M254.4,143.8c-1.4,0-2.7-0.6-3.5-1.8l-69.7-94.6l-69.7,94.6c-1.4,1.9-4.1,2.3-6,0.9c0,0,0,0,0,0
	c-1.9-1.4-2.3-4.1-0.9-6.1l73.1-99.3c1.4-1.9,4.1-2.3,6-0.9c0.4,0.3,0.7,0.6,0.9,0.9l73.1,99.3c1.4,1.9,1,4.6-0.9,6.1
	C256.2,143.5,255.3,143.8,254.4,143.8z"/>
<path class="st0" d="M154.5,130c-0.7-0.8-2-0.9-2.8-0.2c0,0-0.1,0-0.1,0.1l-0.1,0.1l-10.1,10c-0.8,0.7-0.9,2-0.2,2.8c0,0,0,0,0,0
	l0.1,0.1c0.7,0.8,2,0.9,2.8,0.2c0,0,0,0,0,0l0.2-0.2l8.6-8.5l8.6,8.5c0.4,0.4,0.9,0.6,1.5,0.6c0.6,0,1.1-0.2,1.5-0.6
	c0.8-0.8,0.9-2,0.1-2.9l-0.1-0.1L154.5,130z"/>
<path class="st0" d="M154.5,119c-0.8-0.8-2.1-0.9-2.9-0.1c0,0,0,0,0,0l-0.1,0.1l-10.1,10c-0.8,0.7-0.9,2-0.2,2.8c0,0,0,0,0,0
	l0.1,0.1c0.7,0.8,2,0.9,2.8,0.2c0,0,0,0,0,0l0.2-0.2l8.6-8.5l8.6,8.5c0.4,0.4,0.9,0.6,1.5,0.6c0.6,0,1.1-0.2,1.5-0.6
	c0.8-0.8,0.9-2,0.1-2.9l-0.1-0.1L154.5,119z"/>
<path class="st0" d="M154.5,108.7c-0.7-0.8-2-0.9-2.8-0.2c0,0-0.1,0-0.1,0.1l-0.1,0.1l-10.1,10.1c-0.8,0.8-0.8,2.2,0,3c0,0,0,0,0,0
	c0.8,0.8,2.1,0.8,3,0c0,0,0,0,0,0l8.6-8.5l8.6,8.5c0.4,0.4,0.9,0.6,1.5,0.6c0.6,0,1.1-0.2,1.5-0.6c0.8-0.7,0.9-2,0.2-2.8
	c0,0,0,0,0,0l-0.1-0.1L154.5,108.7z"/>
<path class="st0" d="M182.7,130c-0.7-0.8-2-0.9-2.8-0.2c0,0,0,0,0,0l-0.1,0.1l-10,10c-0.8,0.7-0.9,2-0.2,2.8c0,0,0,0,0,0
	c0,0.1,0.1,0.1,0.1,0.1c0.4,0.4,0.9,0.6,1.5,0.6c0.6,0,1.1-0.2,1.5-0.6l8.6-8.5l8.6,8.5c0.8,0.8,2.2,0.8,3,0c0,0,0,0,0,0
	c0.8-0.8,0.8-2.2,0-3L182.7,130z"/>
<path class="st0" d="M182.7,119c-0.7-0.8-2-0.9-2.8-0.2c0,0,0,0,0,0c-0.1,0-0.1,0.1-0.1,0.1l-10,10c-0.8,0.8-0.8,2.1,0,2.9
	c0.4,0.4,0.9,0.6,1.5,0.6c0.6,0,1.1-0.2,1.5-0.6l8.6-8.5l8.6,8.5c0.7,0.8,2,0.9,2.8,0.2c0,0,0,0,0,0c0.1,0,0.1-0.1,0.1-0.1
	c0.8-0.8,0.8-2.2,0-3l0,0L182.7,119z"/>
<path class="st0" d="M182.7,108.7c-0.7-0.8-2-0.9-2.8-0.2c0,0,0,0,0,0c-0.1,0-0.1,0.1-0.1,0.1l-10,10.1c-0.8,0.7-0.9,2-0.2,2.8
	c0,0,0,0,0,0c0,0.1,0.1,0.1,0.1,0.1c0.4,0.4,0.9,0.6,1.5,0.6c0.6,0,1.1-0.2,1.5-0.6l8.4-8.5l8.6,8.5c0.8,0.8,2.1,0.8,3,0
	c0,0,0,0,0,0c0.8-0.8,0.8-2.2,0-3L182.7,108.7z"/>
<path class="st0" d="M211,130c-0.7-0.8-2-0.9-2.8-0.2c0,0,0,0,0,0L208,130l-10,10c-0.8,0.7-0.9,2-0.2,2.8c0,0,0,0,0,0
	c0,0.1,0.1,0.1,0.1,0.1c0.7,0.8,2,0.9,2.8,0.2c0,0,0,0,0,0l0.2-0.2l8.6-8.5l8.5,8.6c0.4,0.4,0.9,0.6,1.5,0.6c0.6,0,1.1-0.2,1.5-0.6
	c0.8-0.8,0.9-2.1,0.1-2.9l-0.1-0.1L211,130z"/>
<path class="st0" d="M211,119c-0.7-0.8-2-0.9-2.8-0.2c0,0,0,0,0,0L208,119l-10,10c-0.8,0.7-0.9,2-0.2,2.8c0,0,0,0,0,0
	c0,0.1,0.1,0.1,0.1,0.1c0.8,0.8,2.1,0.9,2.9,0.1c0,0,0,0,0,0l0.1-0.1l8.6-8.5l8.5,8.5c0.4,0.4,0.9,0.6,1.5,0.6
	c0.6,0,1.1-0.2,1.5-0.6c0.8-0.7,0.9-2,0.2-2.8c0,0,0,0,0,0L221,129L211,119z"/>
<path class="st0" d="M211,108.7c-0.7-0.8-2-0.9-2.8-0.2c0,0,0,0,0,0l-0.1,0.1l-10,10.1c-0.8,0.8-0.8,2.2,0,3c0,0,0,0,0,0
	c0.8,0.8,2.1,0.8,3,0c0,0,0,0,0,0l8.6-8.5l8.5,8.5c0.4,0.4,0.9,0.6,1.5,0.6c0.6,0,1.1-0.2,1.5-0.6c0.8-0.7,0.9-2,0.2-2.8
	c0,0,0,0,0,0l-0.1-0.1L211,108.7z"/>
</svg>
