<?xml version="1.0" encoding="UTF-8"?>
<svg width="301px" height="182px" viewBox="0 0 301 182" version="1.1" xmlns="http://www.w3.org/2000/svg" xmlns:xlink="http://www.w3.org/1999/xlink">
    <!-- Generator: Sketch 63.1 (92452) - https://sketch.com -->
    <title>meadow-logo-wordmark-mono</title>
    <desc>Created with Sketch.</desc>
    <g id="Page-1" stroke="none" stroke-width="1" fill="none" fill-rule="evenodd">
        <g id="Artboard" transform="translate(-836.000000, -570.000000)" fill="#23ABE3" fill-rule="nonzero">
            <g id="meadow-logo-wordmark-mono" transform="translate(836.000000, 570.000000)">
                <path d="M56.39,159.9 L56.39,180.55 L51.58,180.55 L51.58,160 C51.5800001,156.248711 49.5787114,152.782377 46.3300001,150.906733 C43.0812887,149.031089 39.0787113,149.031089 35.8299999,150.906733 C32.5812886,152.782377 30.5799999,156.248711 30.58,160 L30.58,180.51 L25.85,180.51 L25.85,160 C25.9683587,156.158808 23.9866873,152.557646 20.6784437,150.602068 C17.3702001,148.64649 13.2597999,148.64649 9.9515563,150.602068 C6.64331266,152.557646 4.66164129,156.158808 4.78,160 L4.78,180.51 L0.12,180.51 L0.12,145.51 L4.78,145.51 L4.78,150.69 C7.68656292,146.771889 12.3954727,144.612972 17.2610492,144.967754 C22.1266256,145.322536 26.4725504,148.1417 28.78,152.44 C31.4279103,147.711573 36.482857,144.845049 41.9,145 C50.17,145 56.39,151.57 56.39,159.9 Z" id="Path"></path>
                <path d="M97.93,167.6 L101.93,169 C99.0021187,176.104 92.0836895,180.745228 84.4,180.76 C76.3710372,180.681699 69.2986395,175.46006 66.86,167.81 C66.3866259,166.185841 66.1508478,164.501712 66.1597435,162.81 C66.1668909,153.199222 73.6453157,145.250265 83.2378102,144.657678 C92.8303048,144.065092 101.230244,151.033146 102.42,160.57 C102.475475,160.870001 102.49894,161.175044 102.49,161.48 L71.56,167 C73.2475232,172.657855 78.4558552,176.531552 84.36,176.52 C91,176.49 96.3,172 97.93,167.6 Z M70.78,161.6 C70.78,162.02 70.85,162.51 70.85,163.21 L97.15,158.52 C95.3055451,152.782906 89.9562343,148.90243 83.93,148.93 C76.9153224,149.064507 71.1861904,154.575801 70.78,161.58 L70.78,161.6 Z" id="Shape"></path>
                <path d="M147.18,145.55 L147.18,180.55 L142.52,180.55 L142.52,174.88 C139.033409,178.843501 134.008792,181.113505 128.73,181.110004 C120.41469,181.043489 113.219567,175.3077 111.301465,167.216365 C109.383363,159.125031 113.238119,150.769798 120.638728,146.977728 C128.039338,143.185659 137.072709,144.937021 142.52,151.22 L142.52,145.55 L147.18,145.55 Z M142.38,163.05 C142.357894,155.534751 136.248644,149.459834 128.73339,149.480032 C121.218135,149.500331 115.141709,155.608079 115.160058,163.123338 C115.17849,170.638597 121.284736,176.716533 128.8,176.7 C132.422906,176.729912 135.905116,175.299117 138.460391,172.730671 C141.015665,170.162225 142.428538,166.672704 142.38,163.05 L142.38,163.05 Z" id="Shape"></path>
                <path d="M194.05,128.47 L194.05,180.55 L189.39,180.55 L189.39,174.88 C185.901038,178.840294 180.877953,181.11 175.6,181.11 C167.28469,181.043489 160.089567,175.3077 158.171465,167.216365 C156.253363,159.125031 160.108119,150.769798 167.508728,146.977728 C174.909338,143.185659 183.942709,144.937021 189.39,151.22 L189.39,128.47 L194.05,128.47 Z M189.24,163.05 C189.217876,155.533452 183.106587,149.458015 175.59004,149.480057 C168.073492,149.50222 161.998037,155.613491 162.020058,163.130039 C162.042198,170.646587 168.153452,176.722059 175.67,176.7 C179.292012,176.729964 182.773238,175.298858 185.326936,172.730104 C187.880635,170.161351 189.291254,166.671774 189.24,163.05 L189.24,163.05 Z" id="Shape"></path>
                <path d="M204.23,163.05 C204.157036,155.656666 208.554509,148.950656 215.364228,146.070648 C222.173947,143.190641 230.048635,144.706434 235.302627,149.908577 C240.556618,155.110719 242.150431,162.969988 239.338098,169.807933 C236.525764,176.645879 229.863694,181.10964 222.47,181.11 C217.652296,181.147277 213.018529,179.262279 209.594945,175.872481 C206.171361,172.482682 204.240503,167.867837 204.23,163.05 L204.23,163.05 Z M236.11,163.05 C236.065879,155.566069 229.970985,149.530734 222.486981,149.559998 C215.002977,149.589475 208.955641,155.672462 208.970235,163.15651 C208.984882,170.640557 215.055939,176.700061 222.54,176.700061 C226.156196,176.710833 229.626242,175.273609 232.175764,172.709056 C234.725286,170.144504 236.142089,166.66607 236.11,163.05 L236.11,163.05 Z" id="Shape"></path>
                <polygon id="Path" points="300.09 145.55 287.58 180.55 282.91 180.55 272.91 151.71 262.91 180.55 258.24 180.55 245.8 145.55 250.47 145.55 260.64 174 270.82 145.51 275.07 145.51 285.25 174 295.43 145.51"></polygon>
                <path d="M108.59,120.29 L28.59,120.29 C26.781252,120.29 25.1276798,119.268401 24.32,117.65 C23.5205975,116.033386 23.6863193,114.106389 24.75,112.65 L106,2.28 C106.901176,1.0505729 108.335667,0.325894982 109.86,0.329982653 L109.86,0.329982653 C111.373761,0.335447174 112.795076,1.05909321 113.69,2.28 L153.69,56.6 C155.254643,58.7355206 154.808651,61.7325887 152.69,63.32 C151.674014,64.0801045 150.396147,64.4021237 149.141277,64.214269 C147.886408,64.0264143 146.758859,63.3443029 146.01,62.32 L109.86,13.21 L38.1,110.68 L108.59,110.68 C111.15856,110.797208 113.18074,112.913768 113.18074,115.485 C113.18074,118.056232 111.15856,120.172792 108.59,120.29 Z" id="Path"></path>
                <path d="M271.07,120.29 C269.554112,120.292587 268.128068,119.571226 267.23,118.35 L189.83,13.21 L112.43,118.35 C111.67946,119.372043 110.552149,120.052378 109.2981,120.24011 C108.044052,120.427842 106.766931,120.107451 105.75,119.35 C103.626296,117.765606 103.179644,114.764106 104.75,112.63 L186,2.28 C186.894401,1.05618138 188.319188,0.332726351 189.835,0.332726351 C191.350812,0.332726351 192.775599,1.05618138 193.67,2.28 L274.9,112.63 C276.470356,114.764106 276.023704,117.765606 273.9,119.35 C273.083712,119.962221 272.09036,120.292587 271.07,120.29 Z" id="Path"></path>
                <path d="M160.09,105 C159.677369,104.557808 159.105335,104.298566 158.500814,104.279792 C157.896293,104.261018 157.309275,104.484264 156.87,104.9 L156.77,105 L145.59,116.09 C144.679307,116.934906 144.612608,118.353366 145.44,119.28 L145.59,119.43 C145.978989,119.876038 146.531283,120.146539 147.122142,120.18041 C147.713002,120.214281 148.292588,120.008664 148.73,119.61 C148.799571,119.560402 148.860402,119.499571 148.91,119.43 L158.43,109.95 L167.94,119.43 C168.377148,119.879034 168.983719,120.122389 169.61,120.1 C170.228832,120.098075 170.823209,119.858176 171.27,119.43 C172.180693,118.585094 172.247392,117.166634 171.42,116.24 L171.27,116.09 L160.09,105 Z" id="Path"></path>
                <path d="M160.09,92.67 C159.677369,92.2278077 159.105335,91.9685657 158.500814,91.9497918 C157.896293,91.9310178 157.309275,92.1542643 156.87,92.57 L156.77,92.67 L145.59,103.84 C144.679307,104.684906 144.612608,106.103366 145.44,107.03 L145.59,107.19 C145.981948,107.631201 146.53344,107.898183 147.122627,107.931958 C147.711814,107.965733 148.290201,107.763522 148.73,107.37 C148.794896,107.315104 148.855104,107.254896 148.91,107.19 L158.43,97.71 L167.94,107.19 C168.377148,107.639034 168.983719,107.882389 169.61,107.86 C170.228832,107.858075 170.823209,107.618176 171.27,107.19 C172.180693,106.345094 172.247392,104.926634 171.42,104 L171.27,103.84 L160.09,92.67 Z" id="Path"></path>
                <path d="M160.09,81.31 C159.680154,80.863981 159.108418,80.6011529 158.503043,80.5804723 C157.897668,80.5597918 157.309329,80.7829901 156.87,81.2 L156.77,81.31 L145.59,92.49 C144.67764,93.416417 144.67764,94.903583 145.59,95.83 C146.026572,96.2771467 146.625072,96.5292594 147.25,96.5292594 C147.874928,96.5292594 148.473428,96.2771467 148.91,95.83 L158.43,86.35 L167.94,95.83 C168.379579,96.2743079 168.98544,96.51375 169.61,96.49 C170.22745,96.4907719 170.821644,96.2545259 171.27,95.83 C172.179474,94.9885706 172.246232,93.5733023 171.42,92.65 L171.27,92.49 L160.09,81.31 Z" id="Path"></path>
                <path d="M191.51,105 C191.110096,104.558775 190.550965,104.294942 189.956145,104.266796 C189.361326,104.23865 188.77978,104.448507 188.34,104.85 L188.19,105 L177.08,116.09 C176.161078,116.929621 176.089704,118.352644 176.92,119.28 L177.08,119.43 C177.519507,119.869313 178.11868,120.111148 178.74,120.1 C179.359033,120.099107 179.95378,119.859058 180.4,119.43 L189.9,109.95 L199.41,119.43 C199.846572,119.877147 200.445072,120.129259 201.07,120.129259 C201.694928,120.129259 202.293428,119.877147 202.73,119.43 C203.647779,118.50581 203.647779,117.01419 202.73,116.09 L191.51,105 Z" id="Path"></path>
                <path d="M191.51,92.67 C191.110096,92.2287748 190.550965,91.9649423 189.956145,91.9367962 C189.361326,91.9086502 188.77978,92.1185075 188.34,92.52 L188.19,92.67 L177.08,103.84 C176.186697,104.746975 176.186697,106.203025 177.08,107.11 C177.522658,107.558055 178.130315,107.804012 178.76,107.79 C179.379033,107.789107 179.97378,107.549058 180.42,107.12 L189.92,97.64 L199.43,107.12 C200.26262,108.036533 201.679326,108.108038 202.6,107.28 L202.75,107.12 C203.192732,106.679024 203.441605,106.079877 203.441605,105.455 C203.441605,104.830123 203.192732,104.230976 202.75,103.79 L202.75,103.79 L191.51,92.67 Z" id="Path"></path>
                <path d="M191.51,81.31 C191.112924,80.8649554 190.554117,80.5975216 189.958441,80.567456 C189.362765,80.5373903 188.779869,80.7471986 188.34,81.15 L188.19,81.31 L177.08,92.49 C176.161078,93.3296209 176.089704,94.7526441 176.92,95.68 C176.968389,95.7350259 177.02197,95.7852583 177.08,95.83 C177.521169,96.2656511 178.120135,96.5037943 178.74,96.49 C179.35745,96.4907719 179.951644,96.2545259 180.4,95.83 L189.72,86.35 L199.23,95.83 C199.666572,96.2771467 200.265072,96.5292594 200.89,96.5292594 C201.514928,96.5292594 202.113428,96.2771467 202.55,95.83 C203.467779,94.9058099 203.467779,93.4141901 202.55,92.49 L191.51,81.31 Z" id="Path"></path>
                <path d="M222.91,105 C222.510096,104.558775 221.950965,104.294942 221.356145,104.266796 C220.761326,104.23865 220.17978,104.448507 219.74,104.85 L219.59,105 L208.5,116.05 C207.581078,116.889621 207.509704,118.312644 208.34,119.24 L208.5,119.39 C208.888989,119.836038 209.441283,120.106539 210.032142,120.14041 C210.623002,120.174281 211.202588,119.968664 211.64,119.57 C211.704896,119.515104 211.765104,119.454896 211.82,119.39 L221.33,109.91 L230.75,119.49 C231.186826,119.931195 231.789737,120.167274 232.41,120.14 C233.02762,120.151952 233.624709,119.918152 234.07,119.49 C234.513313,119.081801 234.776121,118.51408 234.800506,117.911952 C234.824891,117.309824 234.608852,116.72271 234.2,116.28 C234.161806,116.231815 234.118185,116.188194 234.07,116.15 L222.91,105 Z" id="Path"></path>
                <path d="M222.91,92.67 C222.510096,92.2287748 221.950965,91.9649423 221.356145,91.9367962 C220.761326,91.9086502 220.17978,92.1185075 219.74,92.52 L219.59,92.67 L208.5,103.84 C207.581078,104.679621 207.509704,106.102644 208.34,107.03 C208.388219,107.088214 208.441786,107.141781 208.5,107.19 C208.9303,107.626058 209.517379,107.871522 210.13,107.871522 C210.742621,107.871522 211.3297,107.626058 211.76,107.19 L211.82,107.19 L221.33,97.71 L230.75,107.19 C231.18335,107.638534 231.786712,107.88206 232.41,107.86 C233.029439,107.8612 233.624941,107.620847 234.07,107.19 C234.988922,106.350379 235.060296,104.927356 234.23,104 C234.23,103.94 234.12,103.89 234.07,103.84 L222.91,92.67 Z" id="Path"></path>
                <path d="M222.91,81.31 C222.512924,80.8649554 221.954117,80.5975216 221.358441,80.567456 C220.762765,80.5373903 220.179869,80.7471986 219.74,81.15 L219.59,81.31 L208.5,92.49 C207.582221,93.4141901 207.582221,94.9058099 208.5,95.83 C208.936572,96.2771467 209.535072,96.5292594 210.16,96.5292594 C210.784928,96.5292594 211.383428,96.2771467 211.82,95.83 L221.33,86.35 L230.75,95.83 C231.188549,96.2696456 231.789298,96.5084978 232.41,96.49 C233.027842,96.4928369 233.622777,96.2562966 234.07,95.83 C234.987724,94.993877 235.059164,93.5740167 234.23,92.65 C234.23,92.59 234.12,92.54 234.07,92.49 L222.91,81.31 Z" id="Path"></path>
            </g>
        </g>
    </g>
</svg>