<?xml version="1.0" encoding="utf-8"?>
<!-- Generator: Adobe Illustrator 24.1.0, SVG Export Plug-In . SVG Version: 6.00 Build 0)  -->
<svg version="1.1" id="Layer_1" xmlns="http://www.w3.org/2000/svg" xmlns:xlink="http://www.w3.org/1999/xlink" x="0px" y="0px"
	 viewBox="0 0 767.2 112" style="enable-background:new 0 0 767.2 112;" xml:space="preserve">
<style type="text/css">
	.st0{fill:#524740;}
</style>
<path class="st0" d="M352.5,69.5v37.8h-8.6V69.8c0-11-8.1-19.7-18.9-19.7s-19,8.7-19,19.7v37.5h-8.5V69.8c0-11-8.4-19.7-19-19.7
	s-19,8.7-19,19.7v37.5h-8.4v-64h8.4v9.5c4.8-6.6,12.4-10.5,20.5-10.5c9.5,0,18.3,5.3,22.8,13.7c4.3-8.2,13-13.7,23.7-13.7
	C341.4,42.3,352.5,54.3,352.5,69.5z"/>
<path class="st0" d="M421.9,83.6l7.1,2.6c-3.3,9-14.4,21.6-31.6,21.5c-14.6-0.2-27.3-9.8-31.6-23.7c-0.9-3-1.3-6.1-1.3-9.2
	c-0.2-18.1,14.2-32.9,32.3-33.2c16.8-0.2,31.1,12.4,33,29.1c0.1,0.6,0.1,1.1,0.1,1.7l-55.6,10.1c2.9,10.3,12.3,17.4,23,17.4
	C409.4,99.9,419,91.7,421.9,83.6z M373,72.6c0,0.8,0.1,1.7,0.1,2.9l47.4-8.6c-3.2-10.4-12.9-17.6-23.8-17.6
	C383.9,49.8,373.6,59.9,373,72.6L373,72.6z"/>
<path class="st0" d="M506.7,43.3v64.1h-8.4V97c-12,13.7-32.8,15-46.5,3s-15-32.8-3-46.5c6.2-7.1,15.2-11.1,24.6-11.2
	c9.5,0,18.6,4.1,24.8,11.4V43.3H506.7z M498,75.3c0-14-10.7-25-24.5-25s-25,11.2-25,25s11.2,25,25,25S498,89.3,498,75.3L498,75.3z"
	/>
<path class="st0" d="M585.8,12v95.3h-8.4V96.9c-12,13.7-32.8,15-46.5,3s-15-32.8-3-46.5c6.2-7.1,15.2-11.1,24.6-11.2
	c9.5,0,18.6,4.1,24.8,11.4V12H585.8z M577.1,75.3c0-14-10.7-25-24.5-25s-24.6,11-24.6,25s10.8,25,24.6,25S577.2,89.3,577.1,75.3
	L577.1,75.3z"/>
<path class="st0" d="M599.5,75.3c0.1-18.1,14.9-32.8,33-32.7c18.1,0.1,32.8,14.9,32.7,33s-14.8,32.7-32.8,32.7
	C614.2,108.3,599.5,93.6,599.5,75.3C599.5,75.4,599.5,75.4,599.5,75.3z M656.9,75.3c0-14-10.7-25.1-24.4-25.1S608,61.4,608,75.3
	s10.8,25,24.5,25S656.9,89.3,656.9,75.3L656.9,75.3z"/>
<path class="st0" d="M767.2,43.3l-22.5,64.1h-8.4l-18-52.8l-17.9,52.8H692l-22.4-64.1h8.4l18.2,52.1l18.3-52.1h7.6l18.3,52.1
	l18.3-52.1H767.2z"/>
<path class="st0" d="M78.1,108h-72c-1.6,0-3.1-0.9-3.8-2.4s-0.6-3.2,0.4-4.5L75.8,1.8c0.8-1.1,2.1-1.7,3.4-1.8l0,0
	c1.4,0,2.6,0.7,3.4,1.8l36,48.9c1.4,1.9,1,4.6-0.9,6s-4.6,1-6-0.9l0,0L79.2,11.6L14.6,99.3H78c2.4,0.1,4.2,2.1,4.1,4.5
	C82.1,106.1,80.3,107.9,78.1,108z"/>
<path class="st0" d="M224.4,108c-1.4,0-2.7-0.6-3.5-1.8l-69.7-94.6l-69.7,94.6c-1.4,1.9-4.1,2.3-6,0.9l0,0c-1.9-1.4-2.3-4.1-0.9-6.1
	l73.1-99.3c1.4-1.9,4.1-2.3,6-0.9c0.4,0.3,0.7,0.6,0.9,0.9l73.1,99.3c1.4,1.9,1,4.6-0.9,6.1C226.2,107.7,225.3,108,224.4,108z"/>
<path class="st0" d="M124.5,94.2c-0.7-0.8-2-0.9-2.8-0.2c0,0-0.1,0-0.1,0.1l-0.1,0.1l-10.1,10c-0.8,0.7-0.9,2-0.2,2.8l0,0l0.1,0.1
	c0.7,0.8,2,0.9,2.8,0.2l0,0l0.2-0.2l8.6-8.5l8.6,8.5c0.4,0.4,0.9,0.6,1.5,0.6s1.1-0.2,1.5-0.6c0.8-0.8,0.9-2,0.1-2.9l-0.1-0.1
	L124.5,94.2z"/>
<path class="st0" d="M124.5,83.2c-0.8-0.8-2.1-0.9-2.9-0.1l0,0l-0.1,0.1l-10.1,10c-0.8,0.7-0.9,2-0.2,2.8l0,0l0.1,0.1
	c0.7,0.8,2,0.9,2.8,0.2l0,0l0.2-0.2l8.6-8.5l8.6,8.5c0.4,0.4,0.9,0.6,1.5,0.6s1.1-0.2,1.5-0.6c0.8-0.8,0.9-2,0.1-2.9l-0.1-0.1
	L124.5,83.2z"/>
<path class="st0" d="M124.5,72.9c-0.7-0.8-2-0.9-2.8-0.2c0,0-0.1,0-0.1,0.1l-0.1,0.1L111.4,83c-0.8,0.8-0.8,2.2,0,3l0,0
	c0.8,0.8,2.1,0.8,3,0l0,0l8.6-8.5l8.6,8.5c0.4,0.4,0.9,0.6,1.5,0.6s1.1-0.2,1.5-0.6c0.8-0.7,0.9-2,0.2-2.8l0,0l-0.1-0.1L124.5,72.9z
	"/>
<path class="st0" d="M152.7,94.2c-0.7-0.8-2-0.9-2.8-0.2l0,0l-0.1,0.1l-10,10c-0.8,0.7-0.9,2-0.2,2.8l0,0c0,0.1,0.1,0.1,0.1,0.1
	c0.4,0.4,0.9,0.6,1.5,0.6s1.1-0.2,1.5-0.6l8.6-8.5l8.6,8.5c0.8,0.8,2.2,0.8,3,0l0,0c0.8-0.8,0.8-2.2,0-3L152.7,94.2z"/>
<path class="st0" d="M152.7,83.2c-0.7-0.8-2-0.9-2.8-0.2l0,0c-0.1,0-0.1,0.1-0.1,0.1l-10,10c-0.8,0.8-0.8,2.1,0,2.9
	c0.4,0.4,0.9,0.6,1.5,0.6s1.1-0.2,1.5-0.6l8.6-8.5L160,96c0.7,0.8,2,0.9,2.8,0.2l0,0c0.1,0,0.1-0.1,0.1-0.1c0.8-0.8,0.8-2.2,0-3l0,0
	L152.7,83.2z"/>
<path class="st0" d="M152.7,72.9c-0.7-0.8-2-0.9-2.8-0.2l0,0c-0.1,0-0.1,0.1-0.1,0.1l-10,10.1c-0.8,0.7-0.9,2-0.2,2.8l0,0
	c0,0.1,0.1,0.1,0.1,0.1c0.4,0.4,0.9,0.6,1.5,0.6s1.1-0.2,1.5-0.6l8.4-8.5l8.6,8.5c0.8,0.8,2.1,0.8,3,0l0,0c0.8-0.8,0.8-2.2,0-3
	L152.7,72.9z"/>
<path class="st0" d="M181,94.2c-0.7-0.8-2-0.9-2.8-0.2l0,0l-0.2,0.2l-10,10c-0.8,0.7-0.9,2-0.2,2.8l0,0c0,0.1,0.1,0.1,0.1,0.1
	c0.7,0.8,2,0.9,2.8,0.2l0,0l0.2-0.2l8.6-8.5l8.5,8.6c0.4,0.4,0.9,0.6,1.5,0.6s1.1-0.2,1.5-0.6c0.8-0.8,0.9-2.1,0.1-2.9l-0.1-0.1
	L181,94.2z"/>
<path class="st0" d="M181,83.2c-0.7-0.8-2-0.9-2.8-0.2l0,0l-0.2,0.2l-10,10c-0.8,0.7-0.9,2-0.2,2.8l0,0c0,0.1,0.1,0.1,0.1,0.1
	c0.8,0.8,2.1,0.9,2.9,0.1l0,0l0.1-0.1l8.6-8.5l8.5,8.5c0.4,0.4,0.9,0.6,1.5,0.6s1.1-0.2,1.5-0.6c0.8-0.7,0.9-2,0.2-2.8l0,0l-0.2-0.1
	L181,83.2z"/>
<path class="st0" d="M181,72.9c-0.7-0.8-2-0.9-2.8-0.2l0,0l-0.1,0.1l-10,10.1c-0.8,0.8-0.8,2.2,0,3l0,0c0.8,0.8,2.1,0.8,3,0l0,0
	l8.6-8.5l8.5,8.5c0.4,0.4,0.9,0.6,1.5,0.6s1.1-0.2,1.5-0.6c0.8-0.7,0.9-2,0.2-2.8l0,0l-0.1-0.1L181,72.9z"/>
</svg>
