<?xml version="1.0" encoding="utf-8"?>
<!-- Generator: Adobe Illustrator 24.1.2, SVG Export Plug-In . SVG Version: 6.00 Build 0)  -->
<svg version="1.1" id="Layer_1" xmlns="http://www.w3.org/2000/svg" xmlns:xlink="http://www.w3.org/1999/xlink" x="0px" y="0px"
	 viewBox="0 0 502 61" style="enable-background:new 0 0 502 61;" xml:space="preserve">
<style type="text/css">
	.st0{enable-background:new    ;}
	.st1{fill:#3F352F;}
	.st2{fill:#23ABE3;}
</style>
<desc>Created with Sketch.</desc>
<g id="Meadow.Cloud-Logo">
	<g class="st0">
		<path class="st1" d="M48.2,20.4c4.1,0,7.5,1.4,10.4,4.3c2.9,2.9,4.3,6.3,4.3,10.4V57h-2V35.1c0-3.6-1.2-6.6-3.7-9
			c-2.5-2.5-5.5-3.7-9-3.7c-3.5,0-6.5,1.2-9,3.7c-2.5,2.5-3.7,5.5-3.7,9V57h-2V35.1c0-3.5-1.2-6.5-3.7-9c-2.5-2.5-5.5-3.7-9-3.7
			c-3.5,0-6.5,1.2-9,3.7c-2.5,2.5-3.7,5.5-3.7,9V57h-2V21h2v6.7c1.3-2.2,3.1-4,5.3-5.3c2.2-1.3,4.7-2,7.4-2c3.1,0,5.8,0.9,8.3,2.6
			c2.5,1.7,4.3,4,5.4,6.8c1.1-2.8,2.9-5,5.4-6.8C42.3,21.3,45.1,20.4,48.2,20.4z"/>
		<path class="st1" d="M89.1,55.3c3.6,0,6.8-1,9.6-3.1c2.9-2,4.9-4.7,6-8l1.9,0.8c-1.3,3.6-3.6,6.6-6.8,8.9
			c-3.2,2.3-6.8,3.4-10.7,3.3c-4.2,0-8.1-1.3-11.5-4C74.2,50.6,72,47.2,71,43c-0.3-1.3-0.4-2.8-0.4-4.2c0-5.2,1.8-9.6,5.4-13.2
			c3.6-3.6,8-5.4,13.2-5.5c4.6,0,8.6,1.5,12,4.5c3.4,2.9,5.5,6.6,6.3,10.9c0,0.1,0,0.3,0,0.5c0,0.2,0.1,0.4,0.1,0.5L73,42.7
			c1,3.7,3,6.7,6,9.1S85.4,55.3,89.1,55.3z M89.1,22.2c-4.6,0-8.5,1.7-11.8,4.9c-3.2,3.2-4.9,7.1-4.9,11.7c0,0.2,0,0.5,0.1,0.9
			c0,0.4,0.1,0.8,0.1,1l32.6-5.8c-0.9-3.6-2.9-6.7-5.9-9C96.4,23.4,93,22.2,89.1,22.2z"/>
		<path class="st1" d="M149.5,21h2v36h-2v-9.6c-1.6,3.1-3.9,5.5-6.8,7.4c-3,1.8-6.2,2.8-9.8,2.8c-5.1,0-9.5-1.8-13.1-5.4
			c-3.6-3.6-5.4-8-5.4-13.1c0-5.1,1.8-9.5,5.4-13.1c3.6-3.6,8-5.4,13.1-5.4c3.6,0,6.8,0.9,9.8,2.8c3,1.8,5.2,4.3,6.8,7.4V21z
			 M121.2,50.7c3.3,3.2,7.2,4.9,11.7,4.9c4.6,0,8.5-1.6,11.7-4.9c3.2-3.2,4.9-7.1,4.9-11.7c0-4.6-1.6-8.5-4.9-11.7
			c-3.2-3.2-7.1-4.9-11.7-4.9c-4.6,0-8.5,1.6-11.7,4.9c-3.3,3.2-4.9,7.1-4.9,11.7C116.3,43.6,117.9,47.5,121.2,50.7z"/>
		<path class="st1" d="M195,3.4h2V57h-2v-9.6c-1.6,3.1-3.9,5.5-6.8,7.4c-3,1.8-6.2,2.8-9.8,2.8c-5.1,0-9.5-1.8-13.1-5.4
			c-3.6-3.6-5.4-8-5.4-13.1c0-5.1,1.8-9.5,5.4-13.1c3.6-3.6,8-5.4,13.1-5.4c3.6,0,6.8,0.9,9.8,2.8c3,1.8,5.2,4.3,6.8,7.4V3.4z
			 M178.5,55.6c4.6,0,8.5-1.6,11.7-4.9c3.2-3.2,4.9-7.1,4.9-11.7c0-4.6-1.6-8.5-4.9-11.7c-3.2-3.2-7.1-4.9-11.7-4.9
			c-4.6,0-8.5,1.6-11.8,4.9c-3.2,3.2-4.9,7.1-4.9,11.7c0,4.6,1.6,8.5,4.9,11.7C170,53.9,173.9,55.6,178.5,55.6z"/>
		<path class="st1" d="M224.8,57.6c-5.1,0-9.5-1.8-13.1-5.4c-3.6-3.6-5.4-8-5.4-13.1c0-5.1,1.8-9.5,5.4-13.1c3.6-3.6,8-5.4,13.1-5.4
			c5.1,0,9.5,1.8,13.1,5.4c3.6,3.6,5.4,8,5.4,13.1c0,5.1-1.8,9.5-5.5,13.1C234.2,55.8,229.9,57.6,224.8,57.6z M213.1,50.7
			c3.2,3.2,7.1,4.9,11.7,4.9c4.6,0,8.5-1.6,11.7-4.9c3.2-3.2,4.9-7.1,4.9-11.7c0-4.6-1.6-8.5-4.9-11.7c-3.2-3.3-7.1-4.9-11.7-4.9
			c-4.6,0-8.5,1.6-11.7,4.9c-3.2,3.3-4.9,7.2-4.9,11.7C208.2,43.6,209.8,47.5,213.1,50.7z"/>
		<path class="st1" d="M298.4,21h2l-12.9,36h-2l-11.9-33.2L261.8,57h-2l-12.9-36h2l11.9,33.2L272.7,21h2l11.9,33.2L298.4,21z"/>
	</g>
	<g class="st0">
		<path class="st2" d="M313.7,57v-6.1h2.4V57H313.7z"/>
		<path class="st2" d="M342.3,57.6c-5.1,0-9.5-1.8-13.1-5.4c-3.6-3.6-5.4-8-5.4-13.1c0-5.1,1.8-9.5,5.4-13.1c3.6-3.6,8-5.4,13.1-5.4
			c3.2,0,6.2,0.8,9,2.3c2.8,1.5,5,3.6,6.7,6.2l-1.9,0.9c-1.5-2.3-3.4-4-5.9-5.4c-2.4-1.3-5.1-2-7.9-2c-4.6,0-8.5,1.6-11.7,4.9
			s-4.9,7.1-4.9,11.7c0,4.6,1.6,8.5,4.9,11.7s7.1,4.9,11.7,4.9c2.8,0,5.5-0.7,7.9-2c2.4-1.3,4.4-3.1,5.9-5.4l1.9,0.9
			c-1.7,2.6-3.9,4.7-6.7,6.2S345.5,57.6,342.3,57.6z"/>
		<path class="st2" d="M367.7,57V3.4h2V57H367.7z"/>
		<path class="st2" d="M397.5,57.6c-5.1,0-9.5-1.8-13.1-5.4c-3.6-3.6-5.4-8-5.4-13.1c0-5.1,1.8-9.5,5.4-13.1c3.6-3.6,8-5.4,13.1-5.4
			c5.1,0,9.5,1.8,13.1,5.4c3.6,3.6,5.4,8,5.4,13.1c0,5.1-1.8,9.5-5.5,13.1C406.9,55.8,402.6,57.6,397.5,57.6z M385.8,50.7
			c3.2,3.2,7.1,4.9,11.7,4.9c4.6,0,8.5-1.6,11.7-4.9c3.2-3.2,4.9-7.1,4.9-11.7c0-4.6-1.6-8.5-4.9-11.7c-3.2-3.3-7.1-4.9-11.7-4.9
			c-4.6,0-8.5,1.6-11.7,4.9c-3.2,3.3-4.9,7.2-4.9,11.7C380.9,43.6,382.5,47.5,385.8,50.7z"/>
		<path class="st2" d="M451,21h2v36h-2v-6.7c-1.3,2.2-3.1,4-5.3,5.3c-2.2,1.3-4.7,2-7.4,2c-4,0-7.5-1.4-10.4-4.3
			c-2.9-2.9-4.3-6.3-4.3-10.4V21h2v21.9c0,3.5,1.2,6.5,3.7,9c2.5,2.5,5.5,3.7,9,3.7c3.5,0,6.5-1.2,9-3.7c2.5-2.5,3.7-5.5,3.7-9V21z"
			/>
		<path class="st2" d="M497.3,3.4h2V57h-2v-9.6c-1.6,3.1-3.9,5.5-6.8,7.4c-3,1.8-6.2,2.8-9.8,2.8c-5.1,0-9.5-1.8-13.1-5.4
			c-3.6-3.6-5.4-8-5.4-13.1c0-5.1,1.8-9.5,5.4-13.1c3.6-3.6,8-5.4,13.1-5.4c3.6,0,6.8,0.9,9.8,2.8c3,1.8,5.2,4.3,6.8,7.4V3.4z
			 M480.7,55.6c4.6,0,8.5-1.6,11.7-4.9c3.2-3.2,4.9-7.1,4.9-11.7c0-4.6-1.6-8.5-4.9-11.7c-3.2-3.2-7.1-4.9-11.7-4.9
			c-4.6,0-8.5,1.6-11.8,4.9s-4.9,7.1-4.9,11.7c0,4.6,1.6,8.5,4.9,11.7S476.1,55.6,480.7,55.6z"/>
	</g>
</g>
</svg>
