<svg width="766" height="109" viewBox="0 0 766 109" fill="none" xmlns="http://www.w3.org/2000/svg">
<g clip-path="url(#clip0)">
<path d="M350.7 69.5V107.3H342.1V69.8C342.1 58.8 334 50.1 323.2 50.1C312.4 50.1 304.2 58.8 304.2 69.8V107.3H295.7V69.8C295.7 58.8 287.3 50.1 276.7 50.1C266.1 50.1 257.7 58.8 257.7 69.8V107.3H249.3V43.3H257.7V52.8C262.5 46.2 270.1 42.3 278.2 42.3C287.7 42.3 296.5 47.6 301 56C305.3 47.8 314 42.3 324.7 42.3C339.6 42.3 350.7 54.3 350.7 69.5Z" fill="#EF7D3B"/>
<path d="M420.1 83.6L427.2 86.2C423.9 95.2 412.8 107.8 395.6 107.7C381 107.5 368.3 97.9 364 84C363.1 81 362.7 77.9 362.7 74.8C362.5 56.7 376.9 41.9 395 41.6C411.8 41.4 426.1 54 428 70.7C428.1 71.3 428.1 71.8 428.1 72.4L372.5 82.5C375.4 92.8 384.8 99.9 395.5 99.9C407.6 99.9 417.2 91.7 420.1 83.6ZM371.2 72.6C371.2 73.4 371.3 74.3 371.3 75.5L418.7 66.9C415.5 56.5 405.8 49.3 394.9 49.3C382.1 49.8 371.8 59.9 371.2 72.6Z" fill="#EF7D3B"/>
<path d="M504.9 43.3V107.4H496.5V97C484.5 110.7 463.7 112 450 100C436.3 88 435 67.2 447 53.5C453.2 46.4 462.2 42.4 471.6 42.3C481.1 42.3 490.2 46.4 496.4 53.7V43.3H504.9ZM496.2 75.3C496.2 61.3 485.5 50.3 471.7 50.3C457.9 50.3 446.7 61.5 446.7 75.3C446.7 89.1 457.9 100.3 471.7 100.3C485.5 100.3 496.2 89.3 496.2 75.3Z" fill="#EF7D3B"/>
<path d="M584 12V107.3H575.6V96.9C563.6 110.6 542.8 111.9 529.1 99.9C515.4 87.9 514.1 67.1 526.1 53.4C532.3 46.3 541.3 42.3 550.7 42.2C560.2 42.2 569.3 46.3 575.5 53.6V12H584ZM575.3 75.3C575.3 61.3 564.6 50.3 550.8 50.3C537 50.3 526.2 61.3 526.2 75.3C526.2 89.3 537 100.3 550.8 100.3C564.6 100.3 575.4 89.3 575.3 75.3Z" fill="#EF7D3B"/>
<path d="M597.7 75.3C597.8 57.2 612.6 42.5 630.7 42.6C648.8 42.7 663.5 57.5 663.4 75.6C663.3 93.7 648.6 108.3 630.6 108.3C612.4 108.3 597.7 93.6 597.7 75.3C597.7 75.4 597.7 75.4 597.7 75.3ZM655.1 75.3C655.1 61.3 644.4 50.2 630.7 50.2C617 50.2 606.2 61.4 606.2 75.3C606.2 89.2 617 100.3 630.7 100.3C644.4 100.3 655.1 89.3 655.1 75.3Z" fill="#EF7D3B"/>
<path d="M765.4 43.3L742.9 107.4H734.5L716.5 54.6L698.6 107.4H690.2L667.8 43.3H676.2L694.4 95.4L712.7 43.3H720.3L738.6 95.4L756.9 43.3H765.4V43.3Z" fill="#EF7D3B"/>
<path d="M76.2999 108H4.29991C2.69991 108 1.19991 107.1 0.499911 105.6C-0.200089 104.1 -0.100089 102.4 0.899911 101.1L73.9999 1.8C74.7999 0.7 76.0999 0.1 77.3999 0C78.7999 0 79.9999 0.7 80.7999 1.8L116.8 50.7C118.2 52.6 117.8 55.3 115.9 56.7C114 58.1 111.3 57.7 109.9 55.8L77.3999 11.6L12.7999 99.3H76.1999C78.5999 99.4 80.3999 101.4 80.2999 103.8C80.2999 106.1 78.4999 107.9 76.2999 108Z" fill="#EF7D3B"/>
<path d="M222.6 108C221.2 108 219.9 107.4 219.1 106.2L149.4 11.6L79.7001 106.2C78.3001 108.1 75.6001 108.5 73.7001 107.1C71.8001 105.7 71.4001 103 72.8001 101L145.9 1.70001C147.3 -0.199989 150 -0.599989 151.9 0.800011C152.3 1.10001 152.6 1.40001 152.8 1.70001L225.9 101C227.3 102.9 226.9 105.6 225 107.1C224.4 107.7 223.5 108 222.6 108Z" fill="#EF7D3B"/>
<path d="M122.7 94.2C122 93.4 120.7 93.3 119.9 94C119.9 94 119.8 94 119.8 94.1L119.7 94.2L109.6 104.2C108.8 104.9 108.7 106.2 109.4 107L109.5 107.1C110.2 107.9 111.5 108 112.3 107.3L112.5 107.1L121.1 98.6L129.7 107.1C130.1 107.5 130.6 107.7 131.2 107.7C131.8 107.7 132.3 107.5 132.7 107.1C133.5 106.3 133.6 105.1 132.8 104.2L132.7 104.1L122.7 94.2Z" fill="#EF7D3B"/>
<path d="M122.7 83.2C121.9 82.4 120.6 82.3 119.8 83.1L119.7 83.2L109.6 93.2C108.8 93.9 108.7 95.2 109.4 96L109.5 96.1C110.2 96.9 111.5 97 112.3 96.3L112.5 96.1L121.1 87.6L129.7 96.1C130.1 96.5 130.6 96.7 131.2 96.7C131.8 96.7 132.3 96.5 132.7 96.1C133.5 95.3 133.6 94.1 132.8 93.2L132.7 93.1L122.7 83.2Z" fill="#EF7D3B"/>
<path d="M122.7 72.9C122 72.1 120.7 72 119.9 72.7C119.9 72.7 119.8 72.7 119.8 72.8L119.7 72.9L109.6 83C108.8 83.8 108.8 85.2 109.6 86C110.4 86.8 111.7 86.8 112.6 86L121.2 77.5L129.8 86C130.2 86.4 130.7 86.6 131.3 86.6C131.9 86.6 132.4 86.4 132.8 86C133.6 85.3 133.7 84 133 83.2L132.9 83.1L122.7 72.9Z" fill="#EF7D3B"/>
<path d="M150.9 94.2C150.2 93.4 148.9 93.3 148.1 94L148 94.1L138 104.1C137.2 104.8 137.1 106.1 137.8 106.9C137.8 107 137.9 107 137.9 107C138.3 107.4 138.8 107.6 139.4 107.6C140 107.6 140.5 107.4 140.9 107L149.5 98.5L158.1 107C158.9 107.8 160.3 107.8 161.1 107C161.9 106.2 161.9 104.8 161.1 104L150.9 94.2Z" fill="#EF7D3B"/>
<path d="M150.9 83.2C150.2 82.4 148.9 82.3 148.1 83C148 83 148 83.1 148 83.1L138 93.1C137.2 93.9 137.2 95.2 138 96C138.4 96.4 138.9 96.6 139.5 96.6C140.1 96.6 140.6 96.4 141 96L149.6 87.5L158.2 96C158.9 96.8 160.2 96.9 161 96.2C161.1 96.2 161.1 96.1 161.1 96.1C161.9 95.3 161.9 93.9 161.1 93.1L150.9 83.2Z" fill="#EF7D3B"/>
<path d="M150.9 72.9C150.2 72.1 148.9 72 148.1 72.7C148 72.7 148 72.8 148 72.8L138 82.9C137.2 83.6 137.1 84.9 137.8 85.7C137.8 85.8 137.9 85.8 137.9 85.8C138.3 86.2 138.8 86.4 139.4 86.4C140 86.4 140.5 86.2 140.9 85.8L149.3 77.3L157.9 85.8C158.7 86.6 160 86.6 160.9 85.8C161.7 85 161.7 83.6 160.9 82.8L150.9 72.9Z" fill="#EF7D3B"/>
<path d="M179.2 94.2C178.5 93.4 177.2 93.3 176.4 94L176.2 94.2L166.2 104.2C165.4 104.9 165.3 106.2 166 107C166 107.1 166.1 107.1 166.1 107.1C166.8 107.9 168.1 108 168.9 107.3L169.1 107.1L177.7 98.6L186.2 107.2C186.6 107.6 187.1 107.8 187.7 107.8C188.3 107.8 188.8 107.6 189.2 107.2C190 106.4 190.1 105.1 189.3 104.3L189.2 104.2L179.2 94.2Z" fill="#EF7D3B"/>
<path d="M179.2 83.2C178.5 82.4 177.2 82.3 176.4 83L176.2 83.2L166.2 93.2C165.4 93.9 165.3 95.2 166 96C166 96.1 166.1 96.1 166.1 96.1C166.9 96.9 168.2 97 169 96.2L169.1 96.1L177.7 87.6L186.2 96.1C186.6 96.5 187.1 96.7 187.7 96.7C188.3 96.7 188.8 96.5 189.2 96.1C190 95.4 190.1 94.1 189.4 93.3L189.2 93.2L179.2 83.2Z" fill="#EF7D3B"/>
<path d="M179.2 72.9C178.5 72.1 177.2 72 176.4 72.7L176.3 72.8L166.3 82.9C165.5 83.7 165.5 85.1 166.3 85.9C167.1 86.7 168.4 86.7 169.3 85.9L177.9 77.4L186.4 85.9C186.8 86.3 187.3 86.5 187.9 86.5C188.5 86.5 189 86.3 189.4 85.9C190.2 85.2 190.3 83.9 189.6 83.1L189.5 83L179.2 72.9Z" fill="#EF7D3B"/>
</g>
<defs>
<clipPath id="clip0">
<rect width="765.4" height="108.3" fill="white"/>
</clipPath>
</defs>
</svg>
