<?xml version="1.0" encoding="UTF-8"?>
<svg width="480px" height="384px" viewBox="0 0 480 384" version="1.1" xmlns="http://www.w3.org/2000/svg" xmlns:xlink="http://www.w3.org/1999/xlink">
    <!-- Generator: Sketch 63.1 (92452) - https://sketch.com -->
    <title>eye-off-outline</title>
    <desc>Created with Sketch.</desc>
    <g id="Page-1" stroke="none" stroke-width="1" fill="none" fill-rule="evenodd">
        <g id="eye-off-outline" transform="translate(-1.000000, 0.000000)" fill="#E6E4EA" fill-rule="nonzero">
            <path d="M417,384.000021 C412.755532,384.006869 408.684054,382.31852 405.69,379.31 L53.69,27.31 C47.7135378,21.0193712 47.8403898,11.1115031 53.9759465,4.97594647 C60.1115031,-1.15961017 70.0193712,-1.28646219 76.31,4.69 L428.31,356.69 C432.882841,361.265838 434.250283,368.145103 431.775074,374.121933 C429.299865,380.098763 423.469092,384.000021 417,384.000021 Z" id="Path"></path>
            <path d="M240.66,320 C199.17,320 159.16,307.72 121.74,283.5 C87.67,261.5 57,229.99 33.04,192.5 L33.04,192.42 C52.98,163.85 74.82,139.69 98.28,120.21 C98.7090643,119.851297 98.9683418,119.329332 98.9949428,118.770712 C99.0215437,118.212091 98.8130379,117.667851 98.42,117.27 L78.5,97.38 C77.7659648,96.6398991 76.5865781,96.5876754 75.79,97.26 C50.87,118.26 27.74,144.02 6.71,174.18 C-0.689954625,184.800984 -0.942758024,198.839473 6.07,209.72 C32.48,251.05 66.47,285.86 104.35,310.37 C147,338 192.9,352 240.66,352 C266.439588,351.919938 292.036615,347.671777 316.46,339.42 C317.115071,339.197804 317.608819,338.652885 317.76555,337.979146 C317.922281,337.305407 317.71974,336.598511 317.23,336.11 L295.65,314.53 C294.639304,313.544061 293.183682,313.164004 291.82,313.53 C275.107385,317.833595 257.917821,320.00749 240.66,320 Z" id="Path"></path>
            <path d="M475.84,174.6 C449.38,133.68 415.05,98.92 376.57,74.07 C334,46.55 287,32 240.66,32 C215.153692,32.0452541 189.83685,36.3824831 165.77,44.83 C165.118118,45.0568408 164.629271,45.6037775 164.476743,46.2769357 C164.324215,46.950094 164.529564,47.6543258 165.02,48.14 L186.57,69.69 C187.591128,70.6937623 189.070905,71.0751481 190.45,70.69 C206.819664,66.2617802 223.701967,64.0123756 240.66,64 C281.35,64 321.24,76.43 359.21,101 C393.92,123.4 424.95,154.88 448.97,192 C449.006707,192.047017 449.006707,192.112983 448.97,192.16 C431.534168,219.609246 409.897472,244.151306 384.85,264.89 C384.416318,265.247365 384.152988,265.770694 384.124451,266.331921 C384.095914,266.893148 384.304803,267.440488 384.7,267.84 L404.6,287.73 C405.330075,288.467026 406.502493,288.523476 407.3,287.86 C434.040103,265.345095 457.186688,238.880294 475.94,209.38 C482.709126,198.764122 482.67006,185.176778 475.84,174.6 Z" id="Path"></path>
            <path d="M241,95.999986 C233.809207,95.9961168 226.640799,96.801179 219.63,98.4 C218.90851,98.5498136 218.327845,99.0842228 218.118791,99.7908258 C217.909737,100.497429 218.106163,101.261747 218.63,101.78 L331.22,214.34 C331.738253,214.863837 332.502571,215.060263 333.209174,214.851209 C333.915777,214.642155 334.450186,214.06149 334.6,213.34 C341.093482,184.859327 334.266099,154.971591 316.050091,132.135412 C297.834083,109.299233 270.211539,95.999986 241,95.999986 Z" id="Path"></path>
            <path d="M150.78,169.66 C150.261747,169.136163 149.497429,168.939737 148.790826,169.148791 C148.084223,169.357845 147.549814,169.93851 147.4,170.66 C140.028056,202.866233 149.735298,236.600255 173.097522,259.962478 C196.459745,283.324702 230.193767,293.031944 262.4,285.66 C263.12149,285.510186 263.702155,284.975777 263.911209,284.269174 C264.120263,283.562571 263.923837,282.798253 263.4,282.28 L150.78,169.66 Z" id="Path"></path>
        </g>
    </g>
</svg>