<svg width="28" height="28" viewBox="0 0 28 28" fill="none" xmlns="http://www.w3.org/2000/svg">
<path d="M24.92 7C24.15 7.35 23.32 7.58 22.46 7.69C23.34 7.16 24.02 6.32 24.34 5.31C23.51 5.81 22.59 6.16 21.62 6.36C20.83 5.5 19.72 5 18.46 5C16.11 5 14.19 6.92 14.19 9.29C14.19 9.63 14.23 9.96 14.3 10.27C10.74 10.09 7.57 8.38 5.46 5.79C5.09 6.42 4.88 7.16 4.88 7.94C4.88 9.43 5.63 10.75 6.79 11.5C6.08 11.5 5.42 11.3 4.84 11C4.84 11 4.84 11 4.84 11.03C4.84 13.11 6.32 14.85 8.28 15.24C7.92 15.34 7.54 15.39 7.15 15.39C6.88 15.39 6.61 15.36 6.35 15.31C6.89 17 8.46 18.26 10.35 18.29C8.89 19.45 7.04 20.13 5.02 20.13C4.68 20.13 4.34 20.11 4 20.07C5.9 21.29 8.16 22 10.58 22C18.46 22 22.79 15.46 22.79 9.79C22.79 9.6 22.79 9.42 22.78 9.23C23.62 8.63 24.34 7.87 24.92 7Z" fill="#EF7D3B"/>
</svg>
