<svg width="28" height="28" viewBox="0 0 28 28" fill="none" xmlns="http://www.w3.org/2000/svg">
<path d="M7 5H21C21.5304 5 22.0391 5.21071 22.4142 5.58579C22.7893 5.96086 23 6.46957 23 7V21C23 21.5304 22.7893 22.0391 22.4142 22.4142C22.0391 22.7893 21.5304 23 21 23H7C6.46957 23 5.96086 22.7893 5.58579 22.4142C5.21071 22.0391 5 21.5304 5 21V7C5 6.46957 5.21071 5.96086 5.58579 5.58579C5.96086 5.21071 6.46957 5 7 5V5ZM20 7H17.5C16.5717 7 15.6815 7.36875 15.0251 8.02513C14.3687 8.6815 14 9.57174 14 10.5V13H12V16H14V23H17V16H20V13H17V11C17 10.7348 17.1054 10.4804 17.2929 10.2929C17.4804 10.1054 17.7348 10 18 10H20V7Z" fill="#EF7D3B"/>
</svg>
