<?xml version="1.0" encoding="UTF-8"?>
<svg width="202px" height="202px" viewBox="0 0 202 202" version="1.1" xmlns="http://www.w3.org/2000/svg" xmlns:xlink="http://www.w3.org/1999/xlink">
    <!-- Generator: Sketch 63.1 (92452) - https://sketch.com -->
    <title>logo-slack</title>
    <desc>Created with Sketch.</desc>
    <g id="Page-1" stroke="none" stroke-width="1" fill="none" fill-rule="evenodd">
        <g id="Artboard" transform="translate(-97.000000, -66.000000)" fill="#EF7D3B" fill-rule="nonzero">
            <g id="logo-slack" transform="translate(97.000000, 66.000000)">
                <path d="M42,128.01785 C41.9901439,139.613501 32.5837621,149.006566 20.9881066,149 C9.39245113,148.993427 -0.00328170213,139.58971 0,127.994055 C0.00328342184,116.3984 9.40433886,107 21,107 L42,107 L42,128.01785 Z" id="Path"></path>
                <path d="M53,127.31421 C53,115.542697 62.4020203,106 74,106 C85.5979797,106 95,115.542697 95,127.31421 L95,180.68579 C95,192.457303 85.5979797,202 74,202 C62.4020203,202 53,192.457303 53,180.68579 L53,127.31421 Z" id="Path"></path>
                <path d="M73.9821505,42 C62.3864994,41.9901439 52.9934341,32.5837621 53,20.9881066 C53.0065728,9.39245113 62.4102901,-0.00328170213 74.0059448,0 C85.6015996,0.00328342184 95,9.40433886 95,21 L95,42 L73.9821505,42 Z" id="Path"></path>
                <path d="M74.6857898,53 C86.457303,53 96,62.4020203 96,74 C96,85.5979797 86.457303,95 74.6857898,95 L21.3142102,95 C9.54269696,95 0,85.5979797 0,74 C0,62.4020203 9.54269696,53 21.3142102,53 L74.6857898,53 Z" id="Path"></path>
                <path d="M160,73.9821505 C160.009856,62.3864994 169.416238,52.9934341 181.011893,53 C192.607549,53.0065728 202.003282,62.4102901 202,74.0059448 C201.996717,85.6015996 192.595661,95 181,95 L160,95 L160,73.9821505 Z" id="Path"></path>
                <path d="M149,74.6857898 C149,86.457303 139.59798,96 128,96 C116.40202,96 107,86.457303 107,74.6857898 L107,21.3142102 C107,9.54269696 116.40202,0 128,0 C139.59798,0 149,9.54269696 149,21.3142102 L149,74.6857898 Z" id="Path"></path>
                <path d="M128.01785,160 C139.613501,160.009856 149.006566,169.416238 149,181.011893 C148.993427,192.607549 139.58971,202.003282 127.994055,202 C116.3984,201.996717 107,192.595661 107,181 L107,160 L128.01785,160 Z" id="Path"></path>
                <path d="M127.31421,149 C115.542697,149 106,139.59798 106,128 C106,116.40202 115.542697,107 127.31421,107 L180.68579,107 C192.457303,107 202,116.40202 202,128 C202,139.59798 192.457303,149 180.68579,149 L127.31421,149 Z" id="Path"></path>
            </g>
        </g>
    </g>
</svg>