<svg width="28" height="28" viewBox="0 0 28 28" fill="none" xmlns="http://www.w3.org/2000/svg">
<path d="M9.8 4H18.2C21.4 4 24 6.6 24 9.8V18.2C24 19.7383 23.3889 21.2135 22.3012 22.3012C21.2135 23.3889 19.7383 24 18.2 24H9.8C6.6 24 4 21.4 4 18.2V9.8C4 8.26174 4.61107 6.78649 5.69878 5.69878C6.78649 4.61107 8.26174 4 9.8 4V4ZM9.6 6C8.64522 6 7.72955 6.37928 7.05442 7.05442C6.37928 7.72955 6 8.64522 6 9.6V18.4C6 20.39 7.61 22 9.6 22H18.4C19.3548 22 20.2705 21.6207 20.9456 20.9456C21.6207 20.2705 22 19.3548 22 18.4V9.6C22 7.61 20.39 6 18.4 6H9.6ZM19.25 7.5C19.5815 7.5 19.8995 7.6317 20.1339 7.86612C20.3683 8.10054 20.5 8.41848 20.5 8.75C20.5 9.08152 20.3683 9.39946 20.1339 9.63388C19.8995 9.8683 19.5815 10 19.25 10C18.9185 10 18.6005 9.8683 18.3661 9.63388C18.1317 9.39946 18 9.08152 18 8.75C18 8.41848 18.1317 8.10054 18.3661 7.86612C18.6005 7.6317 18.9185 7.5 19.25 7.5ZM14 9C15.3261 9 16.5979 9.52678 17.5355 10.4645C18.4732 11.4021 19 12.6739 19 14C19 15.3261 18.4732 16.5979 17.5355 17.5355C16.5979 18.4732 15.3261 19 14 19C12.6739 19 11.4021 18.4732 10.4645 17.5355C9.52678 16.5979 9 15.3261 9 14C9 12.6739 9.52678 11.4021 10.4645 10.4645C11.4021 9.52678 12.6739 9 14 9V9ZM14 11C13.2044 11 12.4413 11.3161 11.8787 11.8787C11.3161 12.4413 11 13.2044 11 14C11 14.7956 11.3161 15.5587 11.8787 16.1213C12.4413 16.6839 13.2044 17 14 17C14.7956 17 15.5587 16.6839 16.1213 16.1213C16.6839 15.5587 17 14.7956 17 14C17 13.2044 16.6839 12.4413 16.1213 11.8787C15.5587 11.3161 14.7956 11 14 11Z" fill="#EF7D3B"/>
</svg>
