<?xml version="1.0" encoding="utf-8"?>
<!-- Generator: Adobe Illustrator 24.1.0, SVG Export Plug-In . SVG Version: 6.00 Build 0)  -->
<svg version="1.1" id="Layer_1" xmlns="http://www.w3.org/2000/svg" xmlns:xlink="http://www.w3.org/1999/xlink" x="0px" y="0px"
	 viewBox="0 0 322.7 192.6" style="enable-background:new 0 0 322.7 192.6;" xml:space="preserve">
<style type="text/css">
	.st0{clip-path:url(#SVGID_2_);}
	.st1{fill:#EF7D3B;}
	.st2{clip-path:url(#SVGID_4_);}
	.st3{clip-path:url(#SVGID_6_);}
</style>
<g>
	<defs>
		<path id="SVGID_1_" d="M218,133.3l-3.8,9.4l-15.1-25.4l-45.2-9.5l-13.1,11.2c-0.8,0.8-1.9,1.3-3,1.5c-1.5,0-3.4-1.6-3.4-1.6
			l-10.6-7.5L107,142.6l-4.4-8.8l50.4-94.9c0,0,1.3-3.5,4.3-3.5s4.4,3.5,4.4,3.5L218,133.3L218,133.3z"/>
	</defs>
	<use xlink:href="#SVGID_1_"  style="overflow:visible;fill:#514741;"/>
	<clipPath id="SVGID_2_">
		<use xlink:href="#SVGID_1_"  style="overflow:visible;"/>
	</clipPath>
	<g class="st0">
		<rect x="96.8" y="29.7" class="st1" width="126.9" height="118.7"/>
	</g>
</g>
<g>
	<defs>
		<path id="SVGID_3_" d="M112.4,166.2c1.4-0.1,2.7-0.8,3.4-2c0.7-1.1,0.7-2.5,0.2-3.7L69.6,66.2c-0.7-1.3-2.1-2.1-3.6-2
			c-1.5-0.1-2.9,0.7-3.5,2L23.7,160c-0.5,1.4-0.4,3,0.3,4.3c0.7,1.1,1.9,1.8,3.2,1.9h37.6v9c0,0,0.1,4,4.1,4s4-4.1,4-4.1v-9
			L112.4,166.2z M66.4,78.1l39.3,80H33.2L66.4,78.1z"/>
	</defs>
	<use xlink:href="#SVGID_3_"  style="overflow:visible;fill:#514741;"/>
	<clipPath id="SVGID_4_">
		<use xlink:href="#SVGID_3_"  style="overflow:visible;"/>
	</clipPath>
	<g class="st2">
		<rect x="17.6" y="58.4" class="st1" width="104.6" height="126.6"/>
	</g>
</g>
<g>
	<defs>
		<path id="SVGID_5_" d="M295.4,166.2c1.4-0.1,2.7-0.8,3.4-2c0.7-1.1,0.7-2.5,0.2-3.7l-46.4-94.3c-0.7-1.3-2.1-2.1-3.6-2
			c-1.5-0.1-2.9,0.7-3.5,2L206.7,160c-0.5,1.4-0.4,3,0.3,4.3c0.7,1.1,1.9,1.8,3.3,1.9h37.6v9c0,0,0.1,4,4.1,4c4,0,4-4.1,4-4.1v-9
			L295.4,166.2z M249.4,78.1l39.3,80h-72.5L249.4,78.1L249.4,78.1z"/>
	</defs>
	<use xlink:href="#SVGID_5_"  style="overflow:visible;fill:#514741;"/>
	<clipPath id="SVGID_6_">
		<use xlink:href="#SVGID_5_"  style="overflow:visible;"/>
	</clipPath>
	<g class="st3">
		<rect x="200.6" y="58.4" class="st1" width="104.6" height="126.6"/>
	</g>
</g>
</svg>
