<?xml version="1.0" encoding="UTF-8"?>
<svg width="900px" height="400px" viewBox="0 0 900 400" version="1.1" xmlns="http://www.w3.org/2000/svg" xmlns:xlink="http://www.w3.org/1999/xlink">
    <!-- Generator: Sketch 61.2 (89653) - https://sketch.com -->
    <title>MOSFET_Depletion_Region</title>
    <desc>Created with Sketch.</desc>
    <g id="MOSFET_Depletion_Region" stroke="none" stroke-width="1" fill="none" fill-rule="evenodd">
        <g id="Illustration_Frame">
            <rect id="Rectangle" stroke="#3D3530" stroke-width="2" fill="#EEEEEE" fill-rule="evenodd" x="1" y="1" width="898" height="398"></rect>
            <rect id="Rectangle-Copy" stroke="#3D3530" stroke-width="2" fill="#F8FAE4" fill-rule="evenodd" x="1" y="356" width="898" height="43"></rect>
            <text id="Illustration-Title" font-family="Wavehaus-66Book, Wavehaus" font-size="24" font-weight="300" letter-spacing="0.6666667" fill="#23ABE3">
                <tspan x="579.282666" y="385">MOSFET Depletion Region</tspan>
            </text>
        </g>
        <g id="MOSFET" transform="translate(250.000000, 32.000000)">
            <rect id="Border" stroke="#3D3530" stroke-width="2" x="-1" y="142" width="402" height="152"></rect>
            <rect id="Insulator" fill="#B09679" x="0" y="143" width="400" height="40"></rect>
            <rect id="Rectangle-Copy" fill="#737373" x="150" y="158" width="100" height="15"></rect>
            <g id="P-Type" transform="translate(0.000000, 183.000000)">
                <rect id="Rectangle" fill="#D4D4D4" x="0" y="0" width="400" height="110"></rect>
                <text font-family="MrsEavesOT-Roman, Mrs Eaves OT" font-size="24" font-weight="normal" line-spacing="20" fill="#524740">
                    <tspan x="164.5" y="93">P-Type</tspan>
                </text>
            </g>
            <g id="Drain-Channel" transform="translate(235.000000, 183.000000)">
                <path d="M0,0 L100,0 L100,27.5 C100,42.6878306 87.6878306,55 72.5,55 L27.5,55 C12.3121694,55 5.41268649e-15,42.6878306 0,27.5 L0,0 L0,0 Z" id="Rectangle-Copy-5" fill="#7D7570"></path>
                <g id="Electrons" transform="translate(23.000000, 4.000000)" fill="#EF7D3B">
                    <circle id="Oval-Copy-57" cx="13.25" cy="13.25" r="3.25"></circle>
                    <circle id="Oval-Copy-58" cx="3.25" cy="3.25" r="3.25"></circle>
                    <circle id="Oval-Copy-59" cx="23.25" cy="3.25" r="3.25"></circle>
                    <circle id="Oval-Copy-60" cx="41.25" cy="11.25" r="3.25"></circle>
                </g>
                <text id="N-Type-Copy" font-family="MrsEavesOT-Roman, Mrs Eaves OT" font-size="24" font-weight="normal" line-spacing="20" fill="#E0DEDD">
                    <tspan x="12" y="31">N-Type</tspan>
                </text>
            </g>
            <g id="Source-Channel" transform="translate(65.000000, 183.000000)">
                <path d="M0,0 L100,0 L100,27.5 C100,42.6878306 87.6878306,55 72.5,55 L27.5,55 C12.3121694,55 5.41268649e-15,42.6878306 0,27.5 L0,0 L0,0 Z" id="Rectangle-Copy-5" fill="#7D7570"></path>
                <g id="Electrons" transform="translate(23.000000, 4.000000)" fill="#EF7D3B">
                    <circle id="Oval-Copy-57" cx="13.25" cy="13.25" r="3.25"></circle>
                    <circle id="Oval-Copy-58" cx="3.25" cy="3.25" r="3.25"></circle>
                    <circle id="Oval-Copy-59" cx="23.25" cy="3.25" r="3.25"></circle>
                    <circle id="Oval-Copy-60" cx="41.25" cy="11.25" r="3.25"></circle>
                </g>
                <text id="N-Type-Copy" font-family="MrsEavesOT-Roman, Mrs Eaves OT" font-size="24" font-weight="normal" line-spacing="20" fill="#E0DEDD">
                    <tspan x="12" y="31">N-Type</tspan>
                </text>
            </g>
            <g id="Holes" transform="translate(4.000000, 185.000000)" stroke="#84D0EF" stroke-width="2">
                <circle id="Oval-Copy-145" cx="47.25" cy="80.25" r="4.25"></circle>
                <circle id="Oval-Copy-146" cx="21.25" cy="91.25" r="4.25"></circle>
                <circle id="Oval-Copy-147" cx="3.25" cy="100.25" r="4.25"></circle>
                <circle id="Oval-Copy-92" cx="24.25" cy="29.25" r="4.25"></circle>
                <circle id="Oval-Copy-95" cx="6.25" cy="78.25" r="4.25"></circle>
                <circle id="Oval-Copy-96" fill="#EF7D3B" cx="29.25" cy="68.25" r="4.25"></circle>
                <circle id="Oval-Copy-97" cx="37.25" cy="94.25" r="4.25"></circle>
                <circle id="Oval-Copy-98" cx="62.25" cy="99.25" r="4.25"></circle>
                <circle id="Oval-Copy-142" cx="83.25" cy="91.25" r="4.25"></circle>
                <circle id="Oval-Copy-143" cx="101.25" cy="98.25" r="4.25"></circle>
                <circle id="Oval-Copy-169" fill="#EF7D3B" cx="95.25" cy="51.25" r="4.25"></circle>
                <circle id="Oval-Copy-170" fill="#EF7D3B" cx="83.25" cy="57.25" r="4.25"></circle>
                <circle id="Oval-Copy-171" fill="#EF7D3B" cx="77.25" cy="44.25" r="4.25"></circle>
                <circle id="Oval-Copy-172" fill="#EF7D3B" cx="65.25" cy="46.25" r="4.25"></circle>
                <circle id="Oval-Copy-173" fill="#EF7D3B" cx="66.25" cy="31.25" r="4.25"></circle>
                <circle id="Oval-Copy-174" fill="#EF7D3B" cx="59.25" cy="21.25" r="4.25"></circle>
                <circle id="Oval-Copy-175" fill="#EF7D3B" cx="63.25" cy="12.25" r="4.25"></circle>
                <circle id="Oval-Copy-176" fill="#EF7D3B" cx="57.25" cy="3.25" r="4.25"></circle>
                <circle id="Oval-Copy-100" cx="110.25" cy="85.25" r="4.25"></circle>
                <circle id="Oval-Copy-101" cx="131.25" cy="96.25" r="4.25"></circle>
                <circle id="Oval-Copy-102" fill="#EF7D3B" cx="139.25" cy="43.25" r="4.25"></circle>
                <circle id="Oval-Copy-166" fill="#EF7D3B" cx="129.25" cy="57.25" r="4.25"></circle>
                <circle id="Oval-Copy-103" fill="#EF7D3B" cx="153.25" cy="37.25" r="4.25"></circle>
                <circle id="Oval-Copy-104" fill="#EF7D3B" cx="148.25" cy="51.25" r="4.25"></circle>
                <circle id="Oval-Copy-105" cx="188.25" cy="99.25" r="4.25"></circle>
                <circle id="Oval-Copy-106" cx="185.25" cy="39.25" r="4.25"></circle>
                <circle id="Oval-Copy-107" cx="196.25" cy="59.25" r="4.25"></circle>
                <circle id="Oval-Copy-140" cx="160.25" cy="97.25" r="4.25"></circle>
                <circle id="Oval-Copy-141" cx="174.25" cy="67.25" r="4.25"></circle>
                <circle id="Oval-Copy-108" cx="199.25" cy="26.25" r="4.25"></circle>
                <circle id="Oval-Copy-112" cx="190.25" cy="11.25" r="4.25"></circle>
                <circle id="Oval-Copy-109" fill="#EF7D3B" cx="209.25" cy="47.25" r="4.25"></circle>
                <circle id="Oval-Copy-110" fill="#EF7D3B" cx="160.25" cy="19.25" r="4.25"></circle>
                <circle id="Oval-Copy-167" fill="#EF7D3B" cx="118.25" cy="47.25" r="4.25"></circle>
                <circle id="Oval-Copy-168" fill="#EF7D3B" cx="107.25" cy="54.25" r="4.25"></circle>
                <circle id="Oval-Copy-151" fill="#EF7D3B" cx="164.25" cy="31.25" r="4.25"></circle>
                <circle id="Oval-Copy-111" fill="#EF7D3B" cx="152.25" cy="10.25" r="4.25"></circle>
                <circle id="Oval-Copy-152" fill="#EF7D3B" cx="162.25" cy="3.25" r="4.25"></circle>
                <circle id="Oval-Copy-153" fill="#EF7D3B" cx="229.25" cy="4.25" r="4.25"></circle>
                <circle id="Oval-Copy-177" fill="#EF7D3B" cx="233.25" cy="16.25" r="4.25"></circle>
                <circle id="Oval-Copy-178" fill="#EF7D3B" cx="228.25" cy="26.25" r="4.25"></circle>
                <circle id="Oval-Copy-179" fill="#EF7D3B" cx="238.25" cy="31.25" r="4.25"></circle>
                <circle id="Oval-Copy-180" fill="#EF7D3B" cx="237.25" cy="46.25" r="4.25"></circle>
                <circle id="Oval-Copy-181" fill="#EF7D3B" cx="249.25" cy="43.25" r="4.25"></circle>
                <circle id="Oval-Copy-182" fill="#EF7D3B" cx="251.25" cy="52.25" r="4.25"></circle>
                <circle id="Oval-Copy-183" fill="#EF7D3B" cx="262.25" cy="52.25" r="4.25"></circle>
                <circle id="Oval-Copy-184" fill="#EF7D3B" cx="276.25" cy="56.25" r="4.25"></circle>
                <circle id="Oval-Copy-185" fill="#EF7D3B" cx="284.25" cy="49.25" r="4.25"></circle>
                <circle id="Oval-Copy-186" fill="#EF7D3B" cx="292.25" cy="53.25" r="4.25"></circle>
                <circle id="Oval-Copy-187" fill="#EF7D3B" cx="305.25" cy="55.25" r="4.25"></circle>
                <circle id="Oval-Copy-188" fill="#EF7D3B" cx="313.25" cy="47.25" r="4.25"></circle>
                <circle id="Oval-Copy-189" fill="#EF7D3B" cx="327.25" cy="43.25" r="4.25"></circle>
                <circle id="Oval-Copy-190" fill="#EF7D3B" cx="327.25" cy="27.25" r="4.25"></circle>
                <circle id="Oval-Copy-191" fill="#EF7D3B" cx="333.25" cy="17.25" r="4.25"></circle>
                <circle id="Oval-Copy-192" fill="#EF7D3B" cx="327.25" cy="6.25" r="4.25"></circle>
                <circle id="Oval-Copy-115" cx="211.25" cy="71.25" r="4.25"></circle>
                <circle id="Oval-Copy-116" fill="#EF7D3B" cx="145.25" cy="81.25" r="4.25"></circle>
                <circle id="Oval-Copy-119" cx="238.25" cy="88.25" r="4.25"></circle>
                <circle id="Oval-Copy-120" cx="257.25" cy="96.25" r="4.25"></circle>
                <circle id="Oval-Copy-123" cx="287.25" cy="91.25" r="4.25"></circle>
                <circle id="Oval-Copy-125" cx="311.25" cy="96.25" r="4.25"></circle>
                <circle id="Oval-Copy-127" cx="339.25" cy="82.25" r="4.25"></circle>
                <circle id="Oval-Copy-130" cx="366.25" cy="35.25" r="4.25"></circle>
                <circle id="Oval-Copy-133" cx="369.25" cy="9.25" r="4.25"></circle>
                <circle id="Oval-Copy-134" cx="386.25" cy="54.25" r="4.25"></circle>
                <circle id="Oval-Copy-135" cx="383.25" cy="26.25" r="4.25"></circle>
                <circle id="Oval-Copy-136" cx="360.25" cy="60.25" r="4.25"></circle>
                <circle id="Oval-Copy-137" cx="376.25" cy="78.25" r="4.25"></circle>
                <circle id="Oval-Copy-138" cx="357.25" cy="94.25" r="4.25"></circle>
                <circle id="Oval-Copy-139" fill="#EF7D3B" cx="387.25" cy="93.25" r="4.25"></circle>
                <circle id="Oval-Copy-131" cx="204.25" cy="4.25" r="4.25"></circle>
                <circle id="Oval-Copy-93" cx="15.25" cy="50.25" r="4.25"></circle>
                <circle id="Oval-Copy-149" cx="315.25" cy="81.25" r="4.25"></circle>
                <circle id="Oval-Copy-150" cx="333.25" cy="100.25" r="4.25"></circle>
                <circle id="Oval-Copy-148" cx="6.25" cy="35.25" r="4.25"></circle>
                <circle id="Oval-Copy-94" cx="6.25" cy="12.25" r="4.25"></circle>
            </g>
            <rect id="Rectangle" fill="#3D3530" x="265" y="29" width="40" height="154"></rect>
            <rect id="Rectangle-Copy-2" fill="#3D3530" x="95" y="29" width="40" height="154"></rect>
            <g id="Gate" transform="translate(180.000000, 29.000000)" fill="#3D3530">
                <rect id="Rectangle-Copy-4" x="0" y="0" width="40" height="129"></rect>
            </g>
            <path id="Path-4-Copy" d="M455.744413,134.033214 L456.255587,135.966786 L382.79,155.388 L384.324114,161.189283 L369,158 L380.745895,147.654278 L382.279,153.455 L455.744413,134.033214 Z" fill="#1A80AA" fill-rule="nonzero"></path>
            <text id="Metal-Oxide-Insulato" font-family="MrsEavesOT-Roman, Mrs Eaves OT" font-size="24" font-weight="normal" line-spacing="20" fill="#524740">
                <tspan x="364.5" y="127">Metal Oxide Insulator</tspan>
            </text>
            <path id="Path-4" d="M342.396142,82.2029079 L343.603858,83.7970921 L255.763,150.342 L259.386294,155.125637 L244,158 L250.932286,143.966347 L254.555,148.748 L342.396142,82.2029079 Z" fill="#1A80AA" fill-rule="nonzero"></path>
            <text id="Metal-Electrode" font-family="MrsEavesOT-Roman, Mrs Eaves OT" font-size="24" font-weight="normal" line-spacing="20" fill="#524740">
                <tspan x="335" y="77">Metal Electrode</tspan>
            </text>
            <text id="Drain" font-family="MrsEavesOT-Roman, Mrs Eaves OT" font-size="24" font-weight="normal" line-spacing="20" fill="#1A80AA">
                <tspan x="256.5" y="17">Drain</tspan>
            </text>
            <text id="Gate" font-family="MrsEavesOT-Roman, Mrs Eaves OT" font-size="24" font-weight="normal" line-spacing="20" fill="#1A80AA">
                <tspan x="178" y="17">Gate</tspan>
            </text>
            <text id="Source" font-family="MrsEavesOT-Roman, Mrs Eaves OT" font-size="24" font-weight="normal" line-spacing="20" fill="#1A80AA">
                <tspan x="81" y="17">Source</tspan>
            </text>
        </g>
    </g>
</svg>