<?xml version="1.0" encoding="UTF-8"?>
<svg width="900px" height="400px" viewBox="0 0 900 400" version="1.1" xmlns="http://www.w3.org/2000/svg" xmlns:xlink="http://www.w3.org/1999/xlink">
    <!-- Generator: Sketch 61.2 (89653) - https://sketch.com -->
    <title>MOSFET_Components</title>
    <desc>Created with Sketch.</desc>
    <g id="MOSFET_Components" stroke="none" stroke-width="1" fill="none" fill-rule="evenodd">
        <g id="Illustration_Frame">
            <rect id="Rectangle" stroke="#3D3530" stroke-width="2" fill="#EEEEEE" fill-rule="evenodd" x="1" y="1" width="898" height="398"></rect>
            <rect id="Rectangle-Copy" stroke="#3D3530" stroke-width="2" fill="#F8FAE4" fill-rule="evenodd" x="1" y="356" width="898" height="43"></rect>
            <text id="Illustration-Title" font-family="Wavehaus-66Book, Wavehaus" font-size="24" font-weight="300" letter-spacing="0.6666667" fill="#23ABE3">
                <tspan x="628.402666" y="385">MOSFET Components</tspan>
            </text>
        </g>
        <g id="MOSFET" transform="translate(250.000000, 32.000000)">
            <rect id="Border" stroke="#3D3530" stroke-width="2" x="-1" y="142" width="402" height="152"></rect>
            <rect id="Insulator" fill="#B09679" x="0" y="143" width="400" height="40"></rect>
            <rect id="Rectangle-Copy" fill="#737373" x="150" y="158" width="100" height="15"></rect>
            <g id="P-Type" transform="translate(0.000000, 183.000000)">
                <rect id="Rectangle" fill="#D4D4D4" x="0" y="0" width="400" height="110"></rect>
                <text font-family="MrsEavesOT-Roman, Mrs Eaves OT" font-size="24" font-weight="normal" line-spacing="20" fill="#524740">
                    <tspan x="164.5" y="93">P-Type</tspan>
                </text>
            </g>
            <g id="Drain-Channel" transform="translate(235.000000, 183.000000)">
                <path d="M0,0 L100,0 L100,27.5 C100,42.6878306 87.6878306,55 72.5,55 L27.5,55 C12.3121694,55 5.41268649e-15,42.6878306 0,27.5 L0,0 L0,0 Z" id="Rectangle-Copy-5" fill="#7D7570"></path>
                <text id="N-Type-Copy" font-family="MrsEavesOT-Roman, Mrs Eaves OT" font-size="24" font-weight="normal" line-spacing="20" fill="#E0DEDD">
                    <tspan x="12" y="31">N-Type</tspan>
                </text>
            </g>
            <g id="Source-Channel" transform="translate(65.000000, 183.000000)">
                <path d="M0,0 L100,0 L100,27.5 C100,42.6878306 87.6878306,55 72.5,55 L27.5,55 C12.3121694,55 5.41268649e-15,42.6878306 0,27.5 L0,0 L0,0 Z" id="Rectangle-Copy-5" fill="#7D7570"></path>
                <text id="N-Type-Copy" font-family="MrsEavesOT-Roman, Mrs Eaves OT" font-size="24" font-weight="normal" line-spacing="20" fill="#E0DEDD">
                    <tspan x="12" y="31">N-Type</tspan>
                </text>
            </g>
            <rect id="Rectangle" fill="#3D3530" x="265" y="29" width="40" height="154"></rect>
            <rect id="Rectangle-Copy-2" fill="#3D3530" x="95" y="29" width="40" height="154"></rect>
            <g id="Gate" transform="translate(180.000000, 29.000000)" fill="#3D3530">
                <rect id="Rectangle-Copy-4" x="0" y="0" width="40" height="129"></rect>
            </g>
            <path id="Path-4-Copy" d="M455.744413,134.033214 L456.255587,135.966786 L382.79,155.388 L384.324114,161.189283 L369,158 L380.745895,147.654278 L382.279,153.455 L455.744413,134.033214 Z" fill="#1A80AA" fill-rule="nonzero"></path>
            <text id="Metal-Oxide-Insulato" font-family="MrsEavesOT-Roman, Mrs Eaves OT" font-size="24" font-weight="normal" line-spacing="20" fill="#524740">
                <tspan x="364.5" y="127">Metal Oxide Insulator</tspan>
            </text>
            <path id="Path-4" d="M342.396142,82.2029079 L343.603858,83.7970921 L255.763,150.342 L259.386294,155.125637 L244,158 L250.932286,143.966347 L254.555,148.748 L342.396142,82.2029079 Z" fill="#1A80AA" fill-rule="nonzero"></path>
            <text id="Metal-Electrode" font-family="MrsEavesOT-Roman, Mrs Eaves OT" font-size="24" font-weight="normal" line-spacing="20" fill="#524740">
                <tspan x="335" y="77">Metal Electrode</tspan>
            </text>
            <text id="Drain" font-family="MrsEavesOT-Roman, Mrs Eaves OT" font-size="24" font-weight="normal" line-spacing="20" fill="#1A80AA">
                <tspan x="256.5" y="17">Drain</tspan>
            </text>
            <text id="Gate" font-family="MrsEavesOT-Roman, Mrs Eaves OT" font-size="24" font-weight="normal" line-spacing="20" fill="#1A80AA">
                <tspan x="178" y="17">Gate</tspan>
            </text>
            <text id="Source" font-family="MrsEavesOT-Roman, Mrs Eaves OT" font-size="24" font-weight="normal" line-spacing="20" fill="#1A80AA">
                <tspan x="81" y="17">Source</tspan>
            </text>
        </g>
    </g>
</svg>