<?xml version="1.0" encoding="UTF-8"?>
<svg width="900px" height="240px" viewBox="0 0 900 240" version="1.1" xmlns="http://www.w3.org/2000/svg" xmlns:xlink="http://www.w3.org/1999/xlink">
    <!-- Generator: Sketch 54.1 (76490) - https://sketchapp.com -->
    <title>25p_PWM_Signal</title>
    <desc>Created with Sketch.</desc>
    <g id="25p_PWM_Signal" stroke="none" stroke-width="1" fill="none" fill-rule="evenodd">
        <g id="Illustration_Frame">
            <rect id="Rectangle" stroke="#3D3530" stroke-width="2" fill="#EEEEEE" x="1" y="1" width="898" height="238"></rect>
            <rect id="Rectangle-Copy" stroke="#3D3530" stroke-width="2" fill="#F8FAE4" x="1" y="196" width="898" height="43"></rect>
            <path d="M499.087999,225 L499.087999,208.872 L504.559999,208.872 C506.368008,208.872 507.807994,209.347995 508.879999,210.3 C509.952004,211.252005 510.487999,212.447993 510.487999,213.888 C510.487999,215.312007 509.952004,216.503995 508.879999,217.464 C507.807994,218.424005 506.368008,218.904 504.559999,218.904 L500.671999,218.904 L500.671999,225 L499.087999,225 Z M500.671999,217.392 L504.559999,217.392 C505.856005,217.392 506.895995,217.060003 507.679999,216.396 C508.464003,215.731997 508.855999,214.896005 508.855999,213.888 C508.855999,212.895995 508.464003,212.064003 507.679999,211.392 C506.895995,210.719997 505.856005,210.384 504.559999,210.384 L500.671999,210.384 L500.671999,217.392 Z M535.610666,208.872 L537.242666,208.872 L531.674666,225 L530.042666,225 L525.290666,211.032 L520.514666,225 L518.906666,225 L513.314666,208.872 L514.946666,208.872 L519.722666,222.552 L524.546666,208.872 L526.010666,208.872 L530.858666,222.552 L535.610666,208.872 Z M558.429332,225 L556.845332,225 L553.749332,211.824 L549.573332,225 L548.517332,225 L544.365332,211.824 L541.269332,225 L539.685332,225 L543.405332,208.872 L544.845332,208.872 L549.069332,221.784 L553.245332,208.872 L554.709332,208.872 L558.429332,225 Z M573.730666,225.192 C572.65866,225.192 571.622671,224.920003 570.622666,224.376 C569.622661,223.831997 568.866668,223.288003 568.354666,222.744 L569.458666,221.664 C569.858668,222.096002 570.450662,222.539998 571.234666,222.996 C572.01867,223.452002 572.850661,223.68 573.730666,223.68 C574.802671,223.68 575.646663,223.444002 576.262666,222.972 C576.878669,222.499998 577.186666,221.856004 577.186666,221.04 C577.186666,220.351997 576.886669,219.752003 576.286666,219.24 C575.686663,218.727997 574.95867,218.296002 574.102666,217.944 C573.246662,217.591998 572.38667,217.220002 571.522666,216.828 C570.658661,216.435998 569.926669,215.904003 569.326666,215.232 C568.726663,214.559997 568.426666,213.768005 568.426666,212.856 C568.426666,211.687994 568.866661,210.704004 569.746666,209.904 C570.62667,209.103996 571.858658,208.704 573.442666,208.704 C574.514671,208.704 575.550661,208.975997 576.550666,209.52 C577.550671,210.064003 578.306663,210.607997 578.818666,211.152 L577.714666,212.232 C577.298664,211.783998 576.69867,211.336002 575.914666,210.888 C575.130662,210.439998 574.30667,210.216 573.442666,210.216 C572.37066,210.216 571.526669,210.451998 570.910666,210.924 C570.294663,211.396002 569.986666,212.039996 569.986666,212.856 C569.986666,213.544003 570.286663,214.147997 570.886666,214.668 C571.486669,215.188003 572.214662,215.623998 573.070666,215.976 C573.92667,216.328002 574.786661,216.695998 575.650666,217.08 C576.51467,217.464002 577.246663,217.991997 577.846666,218.664 C578.446669,219.336003 578.746666,220.127995 578.746666,221.04 C578.746666,222.208006 578.30667,223.191996 577.426666,223.992 C576.546661,224.792004 575.314674,225.192 573.730666,225.192 Z M584.069332,209.4 C583.893332,209.592001 583.669334,209.688 583.397332,209.688 C583.125331,209.688 582.897333,209.592001 582.713332,209.4 C582.529332,209.207999 582.437332,208.984001 582.437332,208.728 C582.437332,208.471999 582.529332,208.248001 582.713332,208.056 C582.897333,207.863999 583.125331,207.768 583.397332,207.768 C583.669334,207.768 583.897332,207.863999 584.081332,208.056 C584.265333,208.248001 584.357332,208.471999 584.357332,208.728 C584.357332,208.984001 584.261333,209.207999 584.069332,209.4 Z M582.605332,225 L582.605332,213 L584.189332,213 L584.189332,225 L582.605332,225 Z M598.703999,213.024 L600.311999,213.024 L600.311999,223.968 C600.295999,225.712009 599.668005,227.171994 598.427999,228.348 C597.187993,229.524006 595.752007,230.112 594.119999,230.112 C592.631992,230.112 591.364004,229.716004 590.315999,228.924 C589.267994,228.131996 588.560001,227.240005 588.191999,226.248 L589.487999,225.6 C589.792001,226.416004 590.367995,227.127997 591.215999,227.736 C592.064003,228.344003 593.031994,228.648 594.119999,228.648 C595.400006,228.648 596.483995,228.180005 597.371999,227.244 C598.260004,226.307995 598.711999,225.216006 598.727999,223.968 L598.703999,223.968 L598.703999,223.08 C597.487993,224.504007 595.928009,225.216 594.023999,225.216 C592.311991,225.216 590.852005,224.612006 589.643999,223.404 C588.435993,222.195994 587.831999,220.736009 587.831999,219.024 C587.831999,217.311991 588.435993,215.852006 589.643999,214.644 C590.852005,213.435994 592.311991,212.832 594.023999,212.832 C595.912009,212.832 597.471993,213.543993 598.703999,214.968 L598.703999,213.024 Z M594.047999,223.728 C595.344006,223.728 596.435995,223.276005 597.323999,222.372 C598.212004,221.467995 598.655999,220.360007 598.655999,219.048 C598.655999,217.735993 598.212004,216.628005 597.323999,215.724 C596.435995,214.819995 595.344006,214.368 594.047999,214.368 C592.767993,214.368 591.680004,214.819995 590.783999,215.724 C589.887995,216.628005 589.439999,217.735993 589.439999,219.048 C589.439999,220.360007 589.887995,221.467995 590.783999,222.372 C591.680004,223.276005 592.767993,223.728 594.047999,223.728 Z M609.402666,212.808 C610.794673,212.808 611.962661,213.299995 612.906666,214.284 C613.850671,215.268005 614.322666,216.479993 614.322666,217.92 L614.322666,225 L612.714666,225 L612.714666,217.968 C612.714666,216.943995 612.366669,216.072004 611.670666,215.352 C610.974662,214.631996 610.130671,214.272 609.138666,214.272 C608.146661,214.272 607.302669,214.631996 606.606666,215.352 C605.910662,216.072004 605.562666,216.943995 605.562666,217.968 L605.562666,225 L603.978666,225 L603.978666,213 L605.562666,213 L605.562666,214.776 C606.538671,213.463993 607.818658,212.808 609.402666,212.808 Z M628.117333,213 L629.701333,213 L629.701333,225 L628.117333,225 L628.117333,223.056 C626.885326,224.480007 625.325342,225.192 623.437333,225.192 C621.725324,225.192 620.265339,224.588006 619.057333,223.38 C617.849327,222.171994 617.245333,220.712009 617.245333,219 C617.245333,217.287991 617.849327,215.828006 619.057333,214.62 C620.265339,213.411994 621.725324,212.808 623.437333,212.808 C625.341342,212.808 626.901327,213.519993 628.117333,214.944 L628.117333,213 Z M623.461333,223.68 C624.757339,223.68 625.849328,223.228005 626.737333,222.324 C627.625337,221.419995 628.069333,220.312007 628.069333,219 C628.069333,217.687993 627.625337,216.580005 626.737333,215.676 C625.849328,214.771995 624.757339,214.32 623.461333,214.32 C622.181326,214.32 621.089337,214.771995 620.185333,215.676 C619.281328,216.580005 618.829333,217.687993 618.829333,219 C618.829333,220.312007 619.281328,221.419995 620.185333,222.324 C621.089337,223.228005 622.181326,223.68 623.461333,223.68 Z M633.751999,225 L633.751999,207.144 L635.335999,207.144 L635.335999,225 L633.751999,225 Z M662.517333,213 L664.101333,213 L659.853333,225 L658.269333,225 L654.885333,215.112 L651.501333,225 L649.917333,225 L645.693333,213 L647.277333,213 L650.709333,222.768 L654.165333,213 L655.605333,213 L659.061333,222.768 L662.517333,213 Z M668.559999,209.4 C668.383999,209.592001 668.160001,209.688 667.887999,209.688 C667.615998,209.688 667.388,209.592001 667.203999,209.4 C667.019998,209.207999 666.927999,208.984001 666.927999,208.728 C666.927999,208.471999 667.019998,208.248001 667.203999,208.056 C667.388,207.863999 667.615998,207.768 667.887999,207.768 C668.160001,207.768 668.387998,207.863999 668.571999,208.056 C668.756,208.248001 668.847999,208.471999 668.847999,208.728 C668.847999,208.984001 668.752,209.207999 668.559999,209.4 Z M667.095999,225 L667.095999,213 L668.679999,213 L668.679999,225 L667.095999,225 Z M679.162666,222.312 L679.954666,223.536 C679.858666,223.664001 679.730667,223.815999 679.570666,223.992 C679.410665,224.168001 679.050669,224.411998 678.490666,224.724 C677.930663,225.036002 677.354669,225.192 676.762666,225.192 C675.754661,225.192 674.910669,224.892003 674.230666,224.292 C673.550663,223.691997 673.210666,222.824006 673.210666,221.688 L673.210666,214.44 L671.290666,214.44 L671.290666,212.976 L673.210666,212.976 L673.210666,209.184 L674.794666,208.992 L674.794666,212.976 L678.418666,212.976 L678.418666,214.44 L674.794666,214.44 L674.794666,221.328 C674.794666,222.064004 675.022664,222.647998 675.478666,223.08 C675.934668,223.512002 676.458663,223.728 677.050666,223.728 C677.418668,223.728 677.778664,223.616001 678.130666,223.392 C678.482668,223.167999 678.742665,222.948001 678.910666,222.732 C679.078667,222.515999 679.162666,222.376 679.162666,222.312 Z M687.965333,212.808 C689.35734,212.808 690.525328,213.307995 691.469333,214.308 C692.413338,215.308005 692.885333,216.527993 692.885333,217.968 L692.885333,225 L691.277333,225 L691.277333,217.992 C691.277333,216.951995 690.933336,216.076004 690.245333,215.364 C689.557329,214.651996 688.709338,214.296 687.701333,214.296 C686.709328,214.296 685.865336,214.651996 685.169333,215.364 C684.473329,216.076004 684.125333,216.943995 684.125333,217.968 L684.125333,225 L682.541333,225 L682.541333,207.144 L684.125333,207.144 L684.125333,214.776 C685.101338,213.463993 686.381325,212.808 687.965333,212.808 Z M704.394666,225 L704.250666,223.656 C704.298666,223.608 704.758662,223.204004 705.630666,222.444 C706.502671,221.683996 707.274663,220.980003 707.946666,220.332 C708.61867,219.683997 709.378662,218.908005 710.226666,218.004 C711.07467,217.099995 711.738664,216.240004 712.218666,215.424 C712.698669,214.607996 712.938666,213.904003 712.938666,213.312 C712.938666,212.447996 712.60667,211.716003 711.942666,211.116 C711.278663,210.515997 710.450671,210.216 709.458666,210.216 C707.794658,210.216 706.434671,211.20799 705.378666,213.192 L704.298666,212.112 C704.442667,211.839999 704.630665,211.552002 704.862666,211.248 C705.094667,210.943998 705.426664,210.580002 705.858666,210.156 C706.290668,209.731998 706.838663,209.384001 707.502666,209.112 C708.16667,208.839999 708.874662,208.704 709.626666,208.704 C711.066673,208.704 712.250662,209.155995 713.178666,210.06 C714.106671,210.964005 714.570666,212.015994 714.570666,213.216 C714.570666,213.936004 714.358668,214.719996 713.934666,215.568 C713.510664,216.416004 712.92267,217.263996 712.170666,218.112 C711.418662,218.960004 710.742669,219.679997 710.142666,220.272 C709.542663,220.864003 708.83067,221.515996 708.006666,222.228 C707.182662,222.940004 706.730667,223.336 706.650666,223.416 L715.026666,223.416 L715.026666,225 L704.394666,225 Z M723.469333,225.192 C722.285327,225.192 721.189338,224.856003 720.181333,224.184 C719.173328,223.511997 718.501335,222.728004 718.165333,221.832 L719.557333,221.16 C719.733334,221.720003 720.197329,222.279997 720.949333,222.84 C721.701337,223.400003 722.541328,223.68 723.469333,223.68 C724.541338,223.68 725.473329,223.340003 726.265333,222.66 C727.057337,221.979997 727.453333,221.072006 727.453333,219.936 C727.453333,218.767994 727.069337,217.816004 726.301333,217.08 C725.533329,216.343996 724.637338,215.976 723.613333,215.976 C722.749329,215.976 721.937337,216.139998 721.177333,216.468 C720.417329,216.796002 719.925334,217.103999 719.701333,217.392 L718.357333,216.84 L718.357333,208.872 L728.653333,208.872 L728.653333,210.456 L719.941333,210.456 L719.941333,215.4 C720.869338,214.775997 722.093325,214.464 723.613333,214.464 C725.10134,214.464 726.377328,214.963995 727.441333,215.964 C728.505338,216.964005 729.037333,218.279992 729.037333,219.912 C729.037333,221.544008 728.509338,222.831995 727.453333,223.776 C726.397328,224.720005 725.069341,225.192 723.469333,225.192 Z M738.68,216.456 C737.991996,217.160004 737.152005,217.512 736.16,217.512 C735.167995,217.512 734.324003,217.160004 733.628,216.456 C732.931996,215.751996 732.584,214.912005 732.584,213.936 C732.584,212.959995 732.931996,212.120004 733.628,211.416 C734.324003,210.711996 735.167995,210.36 736.16,210.36 C737.152005,210.36 737.995996,210.711996 738.692,211.416 C739.388003,212.120004 739.736,212.959995 739.736,213.936 C739.736,214.912005 739.384003,215.751996 738.68,216.456 Z M734.12,225 L745.304,210.552 L746.84,210.552 L735.68,225 L734.12,225 Z M734.504,215.568 C734.968002,216.032002 735.519996,216.264 736.16,216.264 C736.800003,216.264 737.347997,216.036002 737.804,215.58 C738.260002,215.123998 738.488,214.576003 738.488,213.936 C738.488,213.295997 738.260002,212.748002 737.804,212.292 C737.347997,211.835998 736.800003,211.608 736.16,211.608 C735.519996,211.608 734.972002,211.843998 734.516,212.316 C734.059997,212.788002 733.832,213.327997 733.832,213.936 C733.832,214.560003 734.055997,215.103998 734.504,215.568 Z M744.8,225.192 C743.823995,225.192 742.988003,224.844003 742.292,224.148 C741.595996,223.451997 741.248,222.608005 741.248,221.616 C741.248,220.639995 741.591996,219.804003 742.28,219.108 C742.968003,218.411997 743.807995,218.064 744.8,218.064 C745.792005,218.064 746.635996,218.407997 747.332,219.096 C748.028003,219.784003 748.376,220.623995 748.376,221.616 C748.376,222.608005 748.028003,223.451997 747.332,224.148 C746.635996,224.844003 745.792005,225.192 744.8,225.192 Z M744.8,223.896 C745.424003,223.896 745.963997,223.672002 746.42,223.224 C746.876002,222.775998 747.104,222.240003 747.104,221.616 C747.104,220.975997 746.880002,220.436002 746.432,219.996 C745.983997,219.555998 745.440003,219.336 744.8,219.336 C744.159996,219.336 743.620002,219.559998 743.18,220.008 C742.739997,220.456002 742.52,220.991997 742.52,221.616 C742.52,222.240003 742.747997,222.775998 743.204,223.224 C743.660002,223.672002 744.191997,223.896 744.8,223.896 Z M759.093333,225 L759.093333,208.872 L762.741333,208.872 C765.397346,208.872 767.509325,209.639992 769.077333,211.176 C770.645341,212.712008 771.429333,214.631988 771.429333,216.936 C771.429333,219.224011 770.641341,221.139992 769.065333,222.684 C767.489325,224.228008 765.381346,225 762.741333,225 L759.093333,225 Z M760.677333,223.488 L762.741333,223.488 C764.853344,223.488 766.541327,222.868006 767.805333,221.628 C769.069339,220.387994 769.701333,218.824009 769.701333,216.936 C769.701333,215.047991 769.069339,213.484006 767.805333,212.244 C766.541327,211.003994 764.853344,210.384 762.741333,210.384 L760.677333,210.384 L760.677333,223.488 Z M783.184,213 L784.768,213 L784.768,225 L783.184,225 L783.184,223.224 C782.207995,224.536007 780.928008,225.192 779.344,225.192 C777.951993,225.192 776.784004,224.700005 775.84,223.716 C774.895995,222.731995 774.424,221.520007 774.424,220.08 L774.424,213 L776.056,213 L776.056,220.032 C776.056,221.056005 776.399996,221.923996 777.088,222.636 C777.776003,223.348004 778.615995,223.704 779.608,223.704 C780.616005,223.704 781.463996,223.348004 782.152,222.636 C782.840003,221.923996 783.184,221.056005 783.184,220.032 L783.184,213 Z M795.442666,222.312 L796.234666,223.536 C796.138666,223.664001 796.010667,223.815999 795.850666,223.992 C795.690666,224.168001 795.330669,224.411998 794.770666,224.724 C794.210664,225.036002 793.634669,225.192 793.042666,225.192 C792.034661,225.192 791.19067,224.892003 790.510666,224.292 C789.830663,223.691997 789.490666,222.824006 789.490666,221.688 L789.490666,214.44 L787.570666,214.44 L787.570666,212.976 L789.490666,212.976 L789.490666,209.184 L791.074666,208.992 L791.074666,212.976 L794.698666,212.976 L794.698666,214.44 L791.074666,214.44 L791.074666,221.328 C791.074666,222.064004 791.302664,222.647998 791.758666,223.08 C792.214669,223.512002 792.738663,223.728 793.330666,223.728 C793.698668,223.728 794.058665,223.616001 794.410666,223.392 C794.762668,223.167999 795.022666,222.948001 795.190666,222.732 C795.358667,222.515999 795.442666,222.376 795.442666,222.312 Z M806.189333,213 L807.773333,213 L801.221333,230.112 L799.637333,230.112 L802.157333,223.536 L797.717333,213 L799.301333,213 L802.901333,221.568 L806.189333,213 Z M825.282667,225.192 C822.914655,225.192 821.026674,224.404008 819.618667,222.828 C818.210659,221.251992 817.506666,219.296012 817.506666,216.96 C817.506666,214.607988 818.210659,212.644008 819.618667,211.068 C821.026674,209.491992 822.914655,208.704 825.282667,208.704 C826.850674,208.704 828.214661,209.063996 829.374666,209.784 C830.534672,210.504004 831.434663,211.487994 832.074667,212.736 L830.586667,213.6 C830.074664,212.559995 829.358671,211.736003 828.438666,211.128 C827.518662,210.519997 826.466672,210.216 825.282667,210.216 C823.458657,210.216 821.998672,210.851994 820.902667,212.124 C819.806661,213.396006 819.258667,215.00799 819.258667,216.96 C819.258667,218.89601 819.806661,220.503994 820.902667,221.784 C821.998672,223.064006 823.458657,223.704 825.282667,223.704 C826.482673,223.704 827.542662,223.396003 828.462667,222.78 C829.382671,222.163997 830.090664,221.336005 830.586667,220.296 L832.074667,221.184 C831.434663,222.432006 830.534672,223.411996 829.374666,224.124 C828.214661,224.836004 826.850674,225.192 825.282667,225.192 Z M842.821333,213 L844.405333,213 L837.853333,230.112 L836.269333,230.112 L838.789333,223.536 L834.349333,213 L835.933333,213 L839.533333,221.568 L842.821333,213 Z M852.296,225.192 C850.583991,225.192 849.124006,224.588006 847.916,223.38 C846.707994,222.171994 846.104,220.712009 846.104,219 C846.104,217.287991 846.707994,215.828006 847.916,214.62 C849.124006,213.411994 850.583991,212.808 852.296,212.808 C853.384005,212.808 854.395995,213.075997 855.332,213.612 C856.268005,214.148003 857.007997,214.863996 857.552,215.76 L856.112,216.456 C855.679998,215.799997 855.128003,215.280002 854.456,214.896 C853.783997,214.511998 853.064004,214.32 852.296,214.32 C850.999993,214.32 849.908004,214.771995 849.02,215.676 C848.131995,216.580005 847.688,217.687993 847.688,219 C847.688,220.312007 848.131995,221.419995 849.02,222.324 C849.908004,223.228005 850.999993,223.68 852.296,223.68 C853.064004,223.68 853.783997,223.488002 854.456,223.104 C855.128003,222.719998 855.679998,222.200003 856.112,221.544 L857.552,222.24 C857.007997,223.136004 856.268005,223.851997 855.332,224.388 C854.395995,224.924003 853.384005,225.192 852.296,225.192 Z M861.026667,225 L861.026667,207.144 L862.610667,207.144 L862.610667,225 L861.026667,225 Z M872.037333,223.608 C873.109339,223.608 874.069329,223.304003 874.917333,222.696 C875.765338,222.087997 876.341332,221.376004 876.645333,220.56 L877.989333,221.04 C877.621331,222.048005 876.905339,222.975996 875.841333,223.824 C874.777328,224.672004 873.509341,225.088 872.037333,225.072 C870.693327,225.072 869.465339,224.656004 868.353333,223.824 C867.241328,222.991996 866.485335,221.928006 866.085333,220.632 C865.925333,220.103997 865.845333,219.528003 865.845333,218.904 C865.845333,217.175991 866.445327,215.712006 867.645333,214.512 C868.845339,213.311994 870.309325,212.704 872.037333,212.688 C873.605341,212.704 874.973327,213.231995 876.141333,214.272 C877.309339,215.312005 877.981332,216.599992 878.157333,218.136 C878.173333,218.216 878.181333,218.319999 878.181333,218.448 L867.693333,220.344 C867.965335,221.304005 868.509329,222.091997 869.325333,222.708 C870.141337,223.324003 871.045328,223.624 872.037333,223.608 Z M871.893333,214.152 C870.693327,214.168 869.665338,214.599996 868.809333,215.448 C867.953329,216.296004 867.493334,217.311994 867.429333,218.496 C867.429333,218.544 867.433333,218.627999 867.441333,218.748 C867.449333,218.868001 867.453333,218.968 867.453333,219.048 L876.381333,217.44 C876.077332,216.463995 875.509337,215.668003 874.677333,215.052 C873.845329,214.435997 872.917338,214.136 871.893333,214.152 Z" id="PWMSignalwith25%DutyCycle" fill="#23ABE3" fill-rule="nonzero"></path>
        </g>
        <g id="PWM_50p_DutyCycle" transform="translate(24.000000, 44.000000)">
            <g id="Axis">
                <path d="M115.5,10.5 L115.5,97.7066511" id="Line" stroke="#524740" stroke-width="3" stroke-linecap="square"></path>
                <path d="M116.5,98.5 L846.502472,98.5" id="Line" stroke="#524740" stroke-width="3" stroke-linecap="square"></path>
                <path d="M115.5,10.5 L105.5,10.5" id="Line" stroke="#524740" stroke-width="3" stroke-linecap="square"></path>
                <path d="M115.5,98.5 L105.5,98.5" id="Line-Copy-8" stroke="#524740" stroke-width="3" stroke-linecap="square"></path>
                <path d="M753.044,55.856 C754.148006,54.7519945 755.467992,54.2 757.004,54.2 C758.540008,54.2 759.855995,54.7479945 760.952,55.844 C762.048005,56.9400055 762.596,58.2559923 762.596,59.792 C762.596,61.3440078 762.048005,62.6679945 760.952,63.764 C759.855995,64.8600055 758.540008,65.408 757.004,65.408 C755.467992,65.408 754.152005,64.8600055 753.056,63.764 C751.959995,62.6679945 751.412,61.3440078 751.412,59.792 C751.412,58.2559923 751.955995,56.9440054 753.044,55.856 Z M757.004,55.568 C755.883994,55.568 754.928004,55.9839958 754.136,56.816 C753.343996,57.6480042 752.948,58.6399942 752.948,59.792 C752.948,60.9600058 753.343996,61.9559959 754.136,62.78 C754.928004,63.6040041 755.883994,64.016 757.004,64.016 C758.108006,64.016 759.059996,63.6040041 759.86,62.78 C760.660004,61.9559959 761.06,60.9600058 761.06,59.792 C761.06,58.6399942 760.660004,57.6480042 759.86,56.816 C759.059996,55.9839958 758.108006,55.568 757.004,55.568 Z M769.172,63.944 C769.172,64.2800017 769.036001,64.5719988 768.764,64.82 C768.491999,65.0680012 768.172002,65.192 767.804,65.192 C767.435998,65.192 767.124001,65.0680012 766.868,64.82 C766.611999,64.5719988 766.484,64.2800017 766.484,63.944 C766.484,63.5919982 766.611999,63.2920012 766.868,63.044 C767.124001,62.7959988 767.435998,62.672 767.804,62.672 C768.172002,62.672 768.491999,62.7959988 768.764,63.044 C769.036001,63.2920012 769.172,63.5919982 769.172,63.944 Z M778.172,56.408 C778.764003,56.0879984 779.223998,55.6480028 779.552,55.088 C779.880002,54.5279972 780.044,53.9200033 780.044,53.264 C780.044,52.7199973 779.872002,52.2280022 779.528,51.788 C779.183998,51.3479978 778.660004,51.128 777.956,51.128 C777.251996,51.128 776.732002,51.3439978 776.396,51.776 C776.059998,52.2080022 775.892,52.7039972 775.892,53.264 C775.892,53.9840036 776.083998,54.5839976 776.468,55.064 C776.852002,55.5440024 777.419996,55.9919979 778.172,56.408 Z M777.404,57.56 C775.835992,58.4560045 775.052,59.7359917 775.052,61.4 C775.052,62.2160041 775.303997,62.9319969 775.808,63.548 C776.312003,64.1640031 777.027995,64.472 777.956,64.472 C778.884005,64.472 779.599997,64.172003 780.104,63.572 C780.608003,62.971997 780.86,62.3120036 780.86,61.592 C780.86,60.7119956 780.568003,59.9800029 779.984,59.396 C779.399997,58.8119971 778.540006,58.2000032 777.404,57.56 Z M778.916,56.792 C779.572003,57.1280017 780.055998,57.3879991 780.368,57.572 C780.680002,57.7560009 781.063998,58.0319982 781.52,58.4 C781.976002,58.7680018 782.303999,59.1799977 782.504,59.636 C782.704001,60.0920023 782.804,60.615997 782.804,61.208 C782.804,62.3920059 782.332005,63.387996 781.388,64.196 C780.443995,65.004004 779.300007,65.408 777.956,65.408 C776.627993,65.408 775.492005,65.0200039 774.548,64.244 C773.603995,63.4679961 773.132,62.5200056 773.132,61.4 C773.132,60.2799944 773.447997,59.4040032 774.08,58.772 C774.712003,58.1399968 775.563995,57.5920023 776.636,57.128 C775.771996,56.5999974 775.108002,56.0720026 774.644,55.544 C774.179998,55.0159974 773.948,54.3840037 773.948,53.648 C773.948,52.6719951 774.339996,51.8520033 775.124,51.188 C775.908004,50.5239967 776.851994,50.192 777.956,50.192 C779.060006,50.192 780.007996,50.5119968 780.8,51.152 C781.592004,51.7920032 781.988,52.5599955 781.988,53.456 C781.988,54.2240038 781.716003,54.8599975 781.172,55.364 C780.627997,55.8680025 779.876005,56.3439978 778.916,56.792 Z M799.988,51.104 C799.043995,51.104 798.432001,51.2199988 798.152,51.452 C797.871999,51.6840012 797.532002,52.2639954 797.132,53.192 L791.852,65.408 L791.54,65.408 L786.236,53.192 C785.835998,52.2639954 785.496001,51.6840012 785.216,51.452 C784.935999,51.2199988 784.324005,51.104 783.38,51.104 L783.38,50.6 L790.028,50.6 L790.028,51.104 C789.035995,51.104 788.400001,51.2439986 788.12,51.524 C787.839999,51.8040014 787.851998,52.2719967 788.156,52.928 L792.236,62.264 L796.268,52.928 C796.572002,52.2719967 796.584001,51.8040014 796.304,51.524 C796.023999,51.2439986 795.388005,51.104 794.396,51.104 L794.396,50.6 L799.988,50.6 L799.988,51.104 Z" id="0.8V" fill="#23ABE3" fill-rule="nonzero"></path>
                <path d="M61.34,14.24 C61.2279994,14.3360005 61.0880008,14.483999 60.92,14.684 C60.7519992,14.884001 60.5960007,15.0439994 60.452,15.164 C60.3079993,15.2840006 60.1640007,15.344 60.02,15.344 C59.8919994,15.344 59.7760005,15.2920005 59.672,15.188 C59.5679995,15.0839995 59.516,14.9520008 59.516,14.792 C59.516,14.5039986 59.7239979,14.2080015 60.14,13.904 L61.916,12.488 C62.3800023,12.1359982 62.7599985,11.6840028 63.056,11.132 C63.3520015,10.5799972 63.5,10.008003 63.5,9.416 C63.5,8.74399664 63.2600024,8.208002 62.78,7.808 C62.2999976,7.407998 61.6680039,7.208 60.884,7.208 C60.0519958,7.208 59.3560028,7.55999648 58.796,8.264 C58.2359972,8.96800352 58.2439971,9.81599504 58.82,10.808 L58.1,11.552 C57.1719954,10.9919972 56.6720004,10.2840043 56.6,9.428 C56.5279996,8.57199572 56.891996,7.82000324 57.692,7.172 C58.492004,6.52399676 59.5559934,6.2 60.884,6.2 C62.1160062,6.2 63.1879954,6.49599704 64.1,7.088 C65.0120046,7.68000296 65.468,8.4559952 65.468,9.416 C65.468,9.76800176 65.3920008,10.1279982 65.24,10.496 C65.0879992,10.8640018 64.9040011,11.1759987 64.688,11.432 C64.4719989,11.6880013 64.2560011,11.9239989 64.04,12.14 C63.8239989,12.3560011 63.6440007,12.5199994 63.5,12.632 L63.26,12.776 L62.156,13.616 C63.3080058,13.8560012 64.2199966,14.3279965 64.892,15.032 C65.5640034,15.7360035 65.9,16.5519954 65.9,17.48 C65.9,18.5840055 65.4400046,19.5279961 64.52,20.312 C63.5999954,21.0960039 62.4680067,21.488 61.124,21.488 C59.8279935,21.488 58.7640042,21.1760031 57.932,20.552 C57.0999958,19.9279969 56.684,19.3360028 56.684,18.776 C56.684,18.4079982 56.8919979,18.224 57.308,18.224 C57.4680008,18.224 57.6079994,18.2959993 57.728,18.44 C57.8480006,18.5840007 57.9839992,18.7839987 58.136,19.04 C58.2880008,19.2960013 58.4359993,19.4959993 58.58,19.64 C59.172003,20.2640031 59.9559951,20.576 60.932,20.576 C61.8760047,20.576 62.5839976,20.2920028 63.056,19.724 C63.5280024,19.1559972 63.764,18.4080046 63.764,17.48 C63.764,16.7119962 63.568002,16.024003 63.176,15.416 C62.783998,14.807997 62.1720042,14.4160009 61.34,14.24 Z M72.404,15.944 C72.404,16.2800017 72.2680014,16.5719988 71.996,16.82 C71.7239986,17.0680012 71.4040018,17.192 71.036,17.192 C70.6679982,17.192 70.3560013,17.0680012 70.1,16.82 C69.8439987,16.5719988 69.716,16.2800017 69.716,15.944 C69.716,15.5919982 69.8439987,15.2920012 70.1,15.044 C70.3560013,14.7959988 70.6679982,14.672 71.036,14.672 C71.4040018,14.672 71.7239986,14.7959988 71.996,15.044 C72.2680014,15.2920012 72.404,15.5919982 72.404,15.944 Z M81.044,14.24 C80.9319994,14.3360005 80.7920008,14.483999 80.624,14.684 C80.4559992,14.884001 80.3000007,15.0439994 80.156,15.164 C80.0119993,15.2840006 79.8680007,15.344 79.724,15.344 C79.5959994,15.344 79.4800005,15.2920005 79.376,15.188 C79.2719995,15.0839995 79.22,14.9520008 79.22,14.792 C79.22,14.5039986 79.4279979,14.2080015 79.844,13.904 L81.62,12.488 C82.0840023,12.1359982 82.4639985,11.6840028 82.76,11.132 C83.0560015,10.5799972 83.204,10.008003 83.204,9.416 C83.204,8.74399664 82.9640024,8.208002 82.484,7.808 C82.0039976,7.407998 81.3720039,7.208 80.588,7.208 C79.7559958,7.208 79.0600028,7.55999648 78.5,8.264 C77.9399972,8.96800352 77.9479971,9.81599504 78.524,10.808 L77.804,11.552 C76.8759954,10.9919972 76.3760004,10.2840043 76.304,9.428 C76.2319996,8.57199572 76.595996,7.82000324 77.396,7.172 C78.196004,6.52399676 79.2599934,6.2 80.588,6.2 C81.8200062,6.2 82.8919954,6.49599704 83.804,7.088 C84.7160046,7.68000296 85.172,8.4559952 85.172,9.416 C85.172,9.76800176 85.0960008,10.1279982 84.944,10.496 C84.7919992,10.8640018 84.6080011,11.1759987 84.392,11.432 C84.1759989,11.6880013 83.9600011,11.9239989 83.744,12.14 C83.5279989,12.3560011 83.3480007,12.5199994 83.204,12.632 L82.964,12.776 L81.86,13.616 C83.0120058,13.8560012 83.9239966,14.3279965 84.596,15.032 C85.2680034,15.7360035 85.604,16.5519954 85.604,17.48 C85.604,18.5840055 85.1440046,19.5279961 84.224,20.312 C83.3039954,21.0960039 82.1720067,21.488 80.828,21.488 C79.5319935,21.488 78.4680042,21.1760031 77.636,20.552 C76.8039958,19.9279969 76.388,19.3360028 76.388,18.776 C76.388,18.4079982 76.5959979,18.224 77.012,18.224 C77.1720008,18.224 77.3119994,18.2959993 77.432,18.44 C77.5520006,18.5840007 77.6879992,18.7839987 77.84,19.04 C77.9920008,19.2960013 78.1399993,19.4959993 78.284,19.64 C78.876003,20.2640031 79.6599951,20.576 80.636,20.576 C81.5800047,20.576 82.2879976,20.2920028 82.76,19.724 C83.2320024,19.1559972 83.468,18.4080046 83.468,17.48 C83.468,16.7119962 83.272002,16.024003 82.88,15.416 C82.487998,14.807997 81.8760042,14.4160009 81.044,14.24 Z M102.74,3.104 C101.795995,3.104 101.184001,3.21999884 100.904,3.452 C100.623999,3.68400116 100.284002,4.26399536 99.884,5.192 L94.604,17.408 L94.292,17.408 L88.988,5.192 C88.587998,4.26399536 88.2480014,3.68400116 87.968,3.452 C87.6879986,3.21999884 87.0760047,3.104 86.132,3.104 L86.132,2.6 L92.78,2.6 L92.78,3.104 C91.787995,3.104 91.1520014,3.2439986 90.872,3.524 C90.5919986,3.8040014 90.6039985,4.27199672 90.908,4.928 L94.988,14.264 L99.02,4.928 C99.3240015,4.27199672 99.3360014,3.8040014 99.056,3.524 C98.7759986,3.2439986 98.140005,3.104 97.148,3.104 L97.148,2.6 L102.74,2.6 L102.74,3.104 Z" id="3.3V" fill="#524740" fill-rule="nonzero"></path>
                <path d="M74.636,92.856 C75.7400055,91.7519945 77.0599923,91.2 78.596,91.2 C80.1320077,91.2 81.4479945,91.7479945 82.544,92.844 C83.6400055,93.9400055 84.188,95.2559923 84.188,96.792 C84.188,98.3440078 83.6400055,99.6679945 82.544,100.764 C81.4479945,101.860005 80.1320077,102.408 78.596,102.408 C77.0599923,102.408 75.7440055,101.860005 74.648,100.764 C73.5519945,99.6679945 73.004,98.3440078 73.004,96.792 C73.004,95.2559923 73.5479946,93.9440054 74.636,92.856 Z M78.596,92.568 C77.4759944,92.568 76.520004,92.9839958 75.728,93.816 C74.935996,94.6480042 74.54,95.6399942 74.54,96.792 C74.54,97.9600058 74.935996,98.9559959 75.728,99.78 C76.520004,100.604004 77.4759944,101.016 78.596,101.016 C79.7000055,101.016 80.651996,100.604004 81.452,99.78 C82.252004,98.9559959 82.652,97.9600058 82.652,96.792 C82.652,95.6399942 82.252004,94.6480042 81.452,93.816 C80.651996,92.9839958 79.7000055,92.568 78.596,92.568 Z M101.396,88.104 C100.451995,88.104 99.8400014,88.2199988 99.56,88.452 C99.2799986,88.6840012 98.940002,89.2639954 98.54,90.192 L93.26,102.408 L92.948,102.408 L87.644,90.192 C87.243998,89.2639954 86.9040014,88.6840012 86.624,88.452 C86.3439986,88.2199988 85.7320047,88.104 84.788,88.104 L84.788,87.6 L91.436,87.6 L91.436,88.104 C90.443995,88.104 89.8080014,88.2439986 89.528,88.524 C89.2479986,88.8040014 89.2599985,89.2719967 89.564,89.928 L93.644,99.264 L97.676,89.928 C97.9800015,89.2719967 97.9920014,88.8040014 97.712,88.524 C97.4319986,88.2439986 96.796005,88.104 95.804,88.104 L95.804,87.6 L101.396,87.6 L101.396,88.104 Z" id="0V" fill="#524740" fill-rule="nonzero"></path>
                <path d="M416.452,114.6 L416.668,117.84 L416.164,117.84 L416.044,117.36 C415.851999,116.639996 415.596002,116.156001 415.276,115.908 C414.955998,115.659999 414.284005,115.536 413.26,115.536 L410.116,115.536 L410.116,125.688 C410.116,126.888006 410.251999,127.655998 410.524,127.992 C410.796001,128.328002 411.427995,128.496 412.42,128.496 L412.42,129 L405.916,129 L405.916,128.496 C406.908005,128.496 407.539999,128.328002 407.812,127.992 C408.084001,127.655998 408.22,126.888006 408.22,125.688 L408.22,115.536 L405.076,115.536 C404.051995,115.536 403.380002,115.659999 403.06,115.908 C402.739998,116.156001 402.484001,116.639996 402.292,117.36 L402.172,117.84 L401.668,117.84 L401.884,114.6 L416.452,114.6 Z M423.268,129 L417.772,129 L417.772,128.496 C418.572004,128.496 419.087999,128.328002 419.32,127.992 C419.552001,127.655998 419.668,126.888006 419.668,125.688 L419.668,124.488 C419.668,123.303994 419.552001,122.544002 419.32,122.208 C419.087999,121.871998 418.572004,121.704 417.772,121.704 L417.772,121.2 L421.372,120.6 L421.372,125.688 C421.372,126.888006 421.487999,127.655998 421.72,127.992 C421.952001,128.328002 422.467996,128.496 423.268,128.496 L423.268,129 Z M421.564,117.168 C421.564,117.472002 421.460001,117.727999 421.252,117.936 C421.043999,118.144001 420.796001,118.248 420.508,118.248 C420.219999,118.248 419.972001,118.144001 419.764,117.936 C419.555999,117.727999 419.452,117.472002 419.452,117.168 C419.452,116.879999 419.555999,116.632001 419.764,116.424 C419.972001,116.215999 420.219999,116.112 420.508,116.112 C420.796001,116.112 421.043999,116.215999 421.252,116.424 C421.460001,116.632001 421.564,116.879999 421.564,117.168 Z M434.116,124.128 L434.116,125.688 C434.116,126.952006 434.199999,127.735998 434.368,128.04 C434.536001,128.344002 434.955997,128.496 435.628,128.496 L435.628,129 L430.924,129 L430.924,128.496 C431.596003,128.496 432.015999,128.344002 432.184,128.04 C432.352001,127.735998 432.436,126.952006 432.436,125.688 L432.436,124.296 C432.436,122.583991 431.860006,121.728 430.708,121.728 C430.211998,121.728 429.676003,121.959998 429.1,122.424 C428.523997,122.888002 428.236,123.455997 428.236,124.128 L428.236,125.688 C428.236,126.936006 428.319999,127.715998 428.488,128.028 C428.656001,128.340002 429.067997,128.496 429.724,128.496 L429.724,129 L424.636,129 L424.636,128.496 C425.436004,128.496 425.951999,128.328002 426.184,127.992 C426.416001,127.655998 426.532,126.888006 426.532,125.688 L426.532,124.488 C426.532,123.303994 426.416001,122.544002 426.184,122.208 C425.951999,121.871998 425.436004,121.704 424.636,121.704 L424.636,121.2 L427.828,120.6 C427.972001,120.904002 428.107999,121.479996 428.236,122.328 C429.148005,121.175994 430.187994,120.6 431.356,120.6 C432.684007,120.6 433.531998,121.199994 433.9,122.4 C434.220002,121.951998 434.695997,121.540002 435.328,121.164 C435.960003,120.787998 436.603997,120.6 437.26,120.6 C439.100009,120.6 440.02,121.791988 440.02,124.176 L440.02,125.688 C440.02,126.888006 440.135999,127.655998 440.368,127.992 C440.600001,128.328002 441.115996,128.496 441.916,128.496 L441.916,129 L436.828,129 L436.828,128.496 C437.500003,128.496 437.915999,128.344002 438.076,128.04 C438.236001,127.735998 438.316,126.952006 438.316,125.688 L438.316,124.296 C438.316,122.583991 437.748006,121.728 436.612,121.728 C436.115998,121.728 435.576003,121.959998 434.992,122.424 C434.407997,122.888002 434.116,123.455997 434.116,124.128 Z M445.612,123.504 L449.596,123.504 C449.756001,123.055998 449.688001,122.620002 449.392,122.196 C449.095999,121.771998 448.588004,121.56 447.868,121.56 C447.355997,121.56 446.896002,121.735998 446.488,122.088 C446.079998,122.440002 445.788001,122.911997 445.612,123.504 Z M445.468,124.392 C445.323999,125.576006 445.511997,126.539996 446.032,127.284 C446.552003,128.028004 447.403994,128.4 448.588,128.4 C448.988002,128.4 449.443997,128.296001 449.956,128.088 C450.468003,127.879999 450.891998,127.616002 451.228,127.296 L451.66,127.824 C451.227998,128.288002 450.676003,128.667999 450.004,128.964 C449.331997,129.260001 448.660003,129.408 447.988,129.408 C446.691994,129.408 445.628004,128.980004 444.796,128.124 C443.963996,127.267996 443.548,126.224006 443.548,124.992 C443.548,123.759994 443.999995,122.720004 444.904,121.872 C445.808005,121.023996 446.835994,120.6 447.988,120.6 C449.076005,120.6 449.963997,120.979996 450.652,121.74 C451.340003,122.500004 451.540001,123.383995 451.252,124.392 L445.468,124.392 Z" id="Time" fill="#524740" fill-rule="nonzero"></path>
                <path d="M17.56,45.104 C16.6159953,45.104 16.0040014,45.2199988 15.724,45.452 C15.4439986,45.6840012 15.104002,46.2639954 14.704,47.192 L9.424,59.408 L9.112,59.408 L3.808,47.192 C3.407998,46.2639954 3.0680014,45.6840012 2.788,45.452 C2.5079986,45.2199988 1.89600472,45.104 0.952,45.104 L0.952,44.6 L7.6,44.6 L7.6,45.104 C6.60799504,45.104 5.9720014,45.2439986 5.692,45.524 C5.4119986,45.8040014 5.42399848,46.2719967 5.728,46.928 L9.808,56.264 L13.84,46.928 C14.1440015,46.2719967 14.1560014,45.8040014 13.876,45.524 C13.5959986,45.2439986 12.960005,45.104 11.968,45.104 L11.968,44.6 L17.56,44.6 L17.56,45.104 Z M26.08,51.896 C27.0400048,52.7440042 27.52,53.7759939 27.52,54.992 C27.52,56.2080061 27.0440048,57.2479957 26.092,58.112 C25.1399952,58.9760043 24.0000066,59.408 22.672,59.408 C21.3439934,59.408 20.2040048,58.9760043 19.252,58.112 C18.2999952,57.2479957 17.824,56.2080061 17.824,54.992 C17.824,53.7759939 18.2999952,52.7400043 19.252,51.884 C20.2040048,51.0279957 21.3439934,50.6 22.672,50.6 C24.0000066,50.6 25.1359953,51.0319957 26.08,51.896 Z M24.832,57.512 C25.3280025,56.8559967 25.576,56.0160051 25.576,54.992 C25.576,53.9679949 25.3280025,53.1320032 24.832,52.484 C24.3359975,51.8359968 23.6160047,51.512 22.672,51.512 C21.7279953,51.512 21.0080025,51.8399967 20.512,52.496 C20.0159975,53.1520033 19.768,53.983995 19.768,54.992 C19.768,56.000005 20.0159975,56.8319967 20.512,57.488 C21.0080025,58.1440033 21.7279953,58.472 22.672,58.472 C23.6160047,58.472 24.3359975,58.1520032 24.832,57.512 Z M34.624,59 L29.128,59 L29.128,58.496 C29.928004,58.496 30.4439988,58.3280017 30.676,57.992 C30.9080012,57.6559983 31.024,56.888006 31.024,55.688 L31.024,48.104 C31.024,46.903994 30.9080012,46.1360017 30.676,45.8 C30.4439988,45.4639983 29.928004,45.296 29.128,45.296 L29.128,44.792 L32.728,44.192 L32.728,55.688 C32.728,56.888006 32.8439988,57.6559983 33.076,57.992 C33.3080012,58.3280017 33.823996,58.496 34.624,58.496 L34.624,59 Z M37.024,51.848 L35.776,51.848 L35.776,51.272 C36.4640034,51.1279993 36.9679984,50.8160024 37.288,50.336 C37.6080016,49.8559976 37.8159995,49.2000042 37.912,48.368 L38.728,48.368 L38.728,51.008 L40.816,51.008 L40.816,51.848 L38.728,51.848 L38.728,56.648 C38.728,57.8000058 39.0879964,58.376 39.808,58.376 C40.2720023,58.376 40.7919971,58.1040027 41.368,57.56 L41.776,57.968 C41.4399983,58.368002 41.0360024,58.6959987 40.564,58.952 C40.0919976,59.2080013 39.656002,59.336 39.256,59.336 C38.5679966,59.336 38.024002,59.1120022 37.624,58.664 C37.223998,58.2159978 37.024,57.5440045 37.024,56.648 L37.024,51.848 Z M51.472,58.52 C51.0079977,59.0160025 50.480003,59.264 49.888,59.264 C48.9279952,59.264 48.3840006,58.8000046 48.256,57.872 C47.1839946,58.8320048 46.1840046,59.312 45.256,59.312 C44.647997,59.312 44.1360021,59.1320018 43.72,58.772 C43.3039979,58.4119982 43.096,57.9200031 43.096,57.296 C43.096,55.6159916 44.799983,54.480003 48.208,53.888 C48.208,52.9439953 48.104001,52.2880018 47.896,51.92 C47.687999,51.5519982 47.2560033,51.368 46.6,51.368 C46.2799984,51.368 45.9720015,51.471999 45.676,51.68 C45.3799985,51.888001 45.232,52.1679982 45.232,52.52 C45.232,52.7600012 45.1520008,52.9599992 44.992,53.12 C44.8319992,53.2800008 44.6400011,53.36 44.416,53.36 C44.1759988,53.36 43.9760008,53.2800008 43.816,53.12 C43.6559992,52.9599992 43.576,52.7600012 43.576,52.52 C43.576,51.9599972 43.8839969,51.5000018 44.5,51.14 C45.1160031,50.7799982 45.823996,50.6 46.624,50.6 C47.7920058,50.6 48.6319974,50.8559974 49.144,51.368 C49.6560026,51.8800026 49.912,52.7119942 49.912,53.864 L49.912,57.488 C49.912,58.1120031 50.0959982,58.424 50.464,58.424 C50.672001,58.424 50.8959988,58.3040012 51.136,58.064 L51.472,58.52 Z M48.208,57.08 L48.208,54.632 C45.999989,55.1440026 44.896,55.9359946 44.896,57.008 C44.896,57.3760018 45.0039989,57.6719989 45.22,57.896 C45.4360011,58.1200011 45.7039984,58.232 46.024,58.232 C46.616003,58.232 47.3439957,57.8480038 48.208,57.08 Z M57.712,55.664 C58.0160015,55.1999977 58.168,54.6000037 58.168,53.864 C58.168,53.1279963 58.0200015,52.5280023 57.724,52.064 C57.4279985,51.5999977 57.0000028,51.368 56.44,51.368 C55.8799972,51.368 55.4480015,51.5999977 55.144,52.064 C54.8399985,52.5280023 54.688,53.1279963 54.688,53.864 C54.688,54.6000037 54.8399985,55.1959977 55.144,55.652 C55.4480015,56.1080023 55.8799972,56.336 56.44,56.336 C57.0000028,56.336 57.4239986,56.1120022 57.712,55.664 Z M54.208,58.136 C54.208,58.6160024 54.9359927,58.9199994 56.392,59.048 C57.9280077,59.1760006 59.0399966,59.5279971 59.728,60.104 C60.4160034,60.6800029 60.76,61.3759959 60.76,62.192 C60.76,63.1680049 60.356004,63.9479971 59.548,64.532 C58.739996,65.1160029 57.7280061,65.408 56.512,65.408 C55.2159935,65.408 54.172004,65.1400027 53.38,64.604 C52.587996,64.0679973 52.2239997,63.4400036 52.288,62.72 C52.3520003,61.9999964 52.8639952,61.3920025 53.824,60.896 L54.256,61.16 C53.7919977,61.6880026 53.5440002,62.1719978 53.512,62.612 C53.4799998,63.0520022 53.6199984,63.3999987 53.932,63.656 C54.2440016,63.9120013 54.6279977,64.1119993 55.084,64.256 C55.5400023,64.4000007 56.0159975,64.472 56.512,64.472 C57.2960039,64.472 57.987997,64.3000017 58.588,63.956 C59.188003,63.6119983 59.488,63.1680027 59.488,62.624 C59.488,62.0959974 59.2280026,61.7120012 58.708,61.472 C58.1879974,61.2319988 57.3760055,61.0560006 56.272,60.944 C53.9999886,60.7199989 52.864,59.9760063 52.864,58.712 C52.864,57.8479957 53.5359933,57.2080021 54.88,56.792 C54.2559969,56.5039986 53.7640018,56.1040026 53.404,55.592 C53.0439982,55.0799974 52.864,54.5040032 52.864,53.864 C52.864,52.9679955 53.2119965,52.2000032 53.908,51.56 C54.6040035,50.9199968 55.447995,50.6 56.44,50.6 C57.4000048,50.6 58.2239966,50.903997 58.912,51.512 C59.120001,51.2559987 59.4039982,51.0400009 59.764,50.864 C60.1240018,50.6879991 60.4399986,50.6 60.712,50.6 C61.4160035,50.6 61.863999,50.895997 62.056,51.488 C62.2000007,51.9360022 62.1280014,52.2719989 61.84,52.496 C61.7439995,52.5760004 61.6320006,52.616 61.504,52.616 C61.2639988,52.6320001 61.0840006,52.5840006 60.964,52.472 C60.8439994,52.3599994 60.7720001,52.2360007 60.748,52.1 C60.7239999,51.9639993 60.6600005,51.8360006 60.556,51.716 C60.4519995,51.5959994 60.2880011,51.536 60.064,51.536 C59.8239988,51.536 59.5760013,51.6639987 59.32,51.92 C59.7840023,52.4800028 60.016,53.1279963 60.016,53.864 C60.016,54.7120042 59.7040031,55.439997 59.08,56.048 C58.4559969,56.656003 57.7280042,57.0159994 56.896,57.128 C55.103991,57.336001 54.208,57.6719977 54.208,58.136 Z M65.224,53.504 L69.208,53.504 C69.3680008,53.0559978 69.3000015,52.6200021 69.004,52.196 C68.7079985,51.7719979 68.2000036,51.56 67.48,51.56 C66.9679974,51.56 66.508002,51.7359982 66.1,52.088 C65.691998,52.4400018 65.4000009,52.911997 65.224,53.504 Z M65.08,54.392 C64.9359993,55.5760059 65.1239974,56.5399963 65.644,57.284 C66.1640026,58.0280037 67.0159941,58.4 68.2,58.4 C68.600002,58.4 69.0559974,58.296001 69.568,58.088 C70.0800026,57.879999 70.5039983,57.6160016 70.84,57.296 L71.272,57.824 C70.8399978,58.2880023 70.2880034,58.6679985 69.616,58.964 C68.9439966,59.2600015 68.2720034,59.408 67.6,59.408 C66.3039935,59.408 65.2400042,58.9800043 64.408,58.124 C63.5759958,57.2679957 63.16,56.2240062 63.16,54.992 C63.16,53.7599938 63.6119955,52.7200042 64.516,51.872 C65.4200045,51.0239958 66.4479942,50.6 67.6,50.6 C68.6880054,50.6 69.5759966,50.9799962 70.264,51.74 C70.9520034,52.5000038 71.1520014,53.383995 70.864,54.392 L65.08,54.392 Z" id="Voltage" fill="#524740" fill-rule="nonzero"></path>
            </g>
            <g id="Signal" transform="translate(117.000000, 18.000000)">
                <path d="M1,81 L101,81" id="Line" stroke="#EF7D3B" stroke-width="4" stroke-linecap="square"></path>
                <path d="M101,4.4199765 L101,81" id="Line-Copy-7" stroke="#EF7D3B" stroke-width="4" stroke-linecap="square"></path>
                <path d="M151,4.4199765 L151,81" id="Line-Copy-9" stroke="#EF7D3B" stroke-width="4" stroke-linecap="square"></path>
                <path d="M301,4.4199765 L301,81" id="Line-Copy-10" stroke="#EF7D3B" stroke-width="4" stroke-linecap="square"></path>
                <path d="M351,4.4199765 L351,81" id="Line-Copy-11" stroke="#EF7D3B" stroke-width="4" stroke-linecap="square"></path>
                <path d="M501,4.4199765 L501,81" id="Line-Copy-12" stroke="#EF7D3B" stroke-width="4" stroke-linecap="square"></path>
                <path d="M551,4.4199765 L551,81" id="Line-Copy-13" stroke="#EF7D3B" stroke-width="4" stroke-linecap="square"></path>
                <path d="M101,1 L151,1" id="Line-Copy" stroke="#EF7D3B" stroke-width="4" stroke-linecap="square"></path>
                <path d="M151,81 L301,81" id="Line-Copy-2" stroke="#EF7D3B" stroke-width="4" stroke-linecap="square"></path>
                <path d="M301,1 L351,1" id="Line-Copy-3" stroke="#EF7D3B" stroke-width="4" stroke-linecap="square"></path>
                <path d="M351,81 L501,81" id="Line-Copy-4" stroke="#EF7D3B" stroke-width="4" stroke-linecap="square"></path>
                <path d="M501,1 L551,1" id="Line-Copy-5" stroke="#EF7D3B" stroke-width="4" stroke-linecap="square"></path>
                <path d="M551,81 L701,81" id="Line-Copy-6" stroke="#EF7D3B" stroke-width="4" stroke-linecap="square"></path>
                <path d="M0,60 L702,60" id="Average" stroke="#23ABE3" stroke-width="3"></path>
            </g>
        </g>
    </g>
</svg>