<?xml version="1.0" encoding="UTF-8"?>
<svg width="363px" height="158px" viewBox="0 0 363 158" version="1.1" xmlns="http://www.w3.org/2000/svg" xmlns:xlink="http://www.w3.org/1999/xlink">
    <!-- Generator: Sketch 47.1 (45422) - http://www.bohemiancoding.com/sketch -->
    <title>Photoresistor_Circuit</title>
    <desc>Created with Sketch.</desc>
    <defs></defs>
    <g id="Page-1" stroke="none" stroke-width="1" fill="none" fill-rule="evenodd">
        <g id="Desktop-HD" transform="translate(-2451.000000, -613.000000)">
            <g id="Photoresistor_Circuit" transform="translate(2451.000000, 609.000000)">
                <g id="R1" transform="translate(74.000000, 24.000000)">
                    <polyline id="Resistor" stroke="#524740" stroke-width="2" stroke-linejoin="bevel" transform="translate(35.000000, 65.000000) rotate(-360.000000) translate(-35.000000, -65.000000) " points="0 65 5 65 10 52 20 78 30 52 40 78 50 52 60 78 65 65 70 65"></polyline>
                    <g id="Photoresistor" transform="translate(150.000000, 0.000000)">
                        <polyline id="Resistor-Copy" stroke="#524740" stroke-width="2" stroke-linejoin="bevel" points="10 65 15 65 20 52 30.5 78 40 52 50 78 60 52 70 78 75 65 80 65"></polyline>
                        <g id="Line" transform="translate(68.500000, 13.500000) rotate(-330.000000) translate(-68.500000, -13.500000) translate(66.000000, 0.000000)">
                            <polygon id="Triangle" fill="#524740" transform="translate(2.500000, 20.000000) scale(1, -1) translate(-2.500000, -20.000000) " points="2.5 13.5 5 26.5 0 26.5"></polygon>
                            <path d="M2.5,0 L2.5,20" id="Path-3" stroke="#524740" stroke-width="2"></path>
                        </g>
                        <g id="Line-Copy" transform="translate(78.500000, 19.500000) rotate(-330.000000) translate(-78.500000, -19.500000) translate(76.000000, 6.000000)">
                            <polygon id="Triangle" fill="#524740" transform="translate(2.500000, 20.000000) scale(1, -1) translate(-2.500000, -20.000000) " points="2.5 13.5 5 26.5 0 26.5"></polygon>
                            <path d="M2.5,0 L2.5,20" id="Path-3" stroke="#524740" stroke-width="2"></path>
                        </g>
                        <circle id="Oval" stroke="#524740" stroke-width="2" cx="45" cy="65" r="39"></circle>
                        <path d="M10,65 L0,65" id="Path-4" stroke="#524740" stroke-width="2"></path>
                        <path d="M90,65 L80,65" id="Path-4-Copy" stroke="#524740" stroke-width="2"></path>
                    </g>
                </g>
                <g id="R1" transform="translate(79.000000, 46.000000)" font-size="18" font-family="Lato-Regular, Lato" letter-spacing="0.695049465" fill="#524740" font-weight="normal">
                    <text id="4.7kΩ">
                        <tspan x="0.854376338" y="18">4.7kΩ</tspan>
                    </text>
                </g>
                <g id="R2" transform="translate(219.000000, 0.000000)" font-size="18" font-family="Lato-Regular, Lato" letter-spacing="0.695049465" fill="#524740" font-weight="normal">
                    <text id="1kΩ---30kΩ">
                        <tspan x="0.225252676" y="18">1kΩ - 30kΩ</tspan>
                    </text>
                </g>
                <g id="Vin" transform="translate(0.000000, 77.000000)" font-size="18" font-family="Lato-Regular, Lato" letter-spacing="0.695049465" fill="#524740" font-weight="normal">
                    <text id="3V">
                        <tspan x="0.491950535" y="18">3V</tspan>
                    </text>
                </g>
                <g id="Vout" transform="translate(120.000000, 143.000000)" font-size="18" font-family="Lato-Regular, Lato" letter-spacing="0.695049465" fill="#524740" font-weight="normal">
                    <text id="0.53V---2.2V">
                        <tspan x="10.8651537" y="18">0.53V  -  2.2V</tspan>
                    </text>
                </g>
                <g id="Ground" transform="translate(343.500000, 89.500000) rotate(-180.000000) translate(-343.500000, -89.500000) translate(324.500000, 73.000000)" stroke="#524740" stroke-width="2">
                    <path d="M12.5,17 L37.5,17" id="Path-2-Copy"></path>
                    <path d="M7,6.5 L7,26.5" id="Path-4"></path>
                    <path d="M1,13.5 L1,19.5" id="Path-4-Copy"></path>
                    <path d="M13,0 L13,33" id="Path-3-Copy"></path>
                </g>
                <circle id="Oval-2-Copy-12" fill="#524740" cx="189" cy="89" r="5"></circle>
                <path d="M189,89 L189,141" id="Path-19" stroke="#524740" stroke-width="2"></path>
                <path d="M34,89 L74,89" id="Path-16" stroke="#524740" stroke-width="2"></path>
                <path d="M194,89 L234,89" id="Path-16-Copy" stroke="#524740" stroke-width="2"></path>
                <path d="M304,89 L344,89" id="Path-16-Copy-3" stroke="#524740" stroke-width="2"></path>
                <path d="M144,89 L184,89" id="Path-16-Copy-2" stroke="#524740" stroke-width="2"></path>
            </g>
        </g>
    </g>
</svg>