<?xml version="1.0" encoding="UTF-8"?>
<svg width="900px" height="330px" viewBox="0 0 900 330" version="1.1" xmlns="http://www.w3.org/2000/svg" xmlns:xlink="http://www.w3.org/1999/xlink">
    <!-- Generator: Sketch 60.1 (88133) - https://sketch.com -->
    <title>5V_to_3.3V_Signal_Division</title>
    <desc>Created with Sketch.</desc>
    <g id="5V_to_3.3V_Signal_Division" stroke="none" stroke-width="1" fill="none" fill-rule="evenodd">
        <g id="Illustration_Frame">
            <rect id="Rectangle" stroke="#3D3530" stroke-width="2" fill="#EEEEEE" x="1" y="1" width="898" height="328"></rect>
            <rect id="Rectangle-Copy" stroke="#3D3530" stroke-width="2" fill="#F8FAE4" x="1" y="286" width="898" height="43"></rect>
            <text id="Illustration-Title" font-family="Wavehaus-66Book, Wavehaus" font-size="24" font-weight="300" letter-spacing="0.6666667" fill="#23ABE3">
                <tspan x="715.655999" y="315">Signal Division</tspan>
            </text>
        </g>
        <g transform="translate(17.000000, 32.000000)">
            <g id="3.3v-signal" transform="translate(492.000000, 0.000000)">
                <line x1="68" y1="1" x2="68" y2="201" id="Line-7-Copy-2" stroke="#524740" stroke-width="2" stroke-linecap="square"></line>
                <path d="M158.524,230.488 C159.868,230.488 161,230.096 161.92,229.312 C162.84,228.528 163.3,227.584 163.3,226.48 C163.3,225.552 162.964,224.736 162.292,224.032 C161.62,223.328 160.708,222.856 159.556,222.616 L159.556,222.616 L160.66,221.776 L160.9,221.632 C161.044,221.52 161.224,221.356 161.44,221.14 C161.656,220.924 161.872,220.688 162.088,220.432 C162.304,220.176 162.488,219.864 162.64,219.496 C162.792,219.128 162.868,218.768 162.868,218.416 C162.868,217.456 162.412,216.68 161.5,216.088 C160.588,215.496 159.516,215.2 158.284,215.2 C156.956,215.2 155.892,215.524 155.092,216.172 C154.292,216.82 153.928,217.572 154,218.428 C154.072,219.284 154.572,219.992 155.5,220.552 L155.5,220.552 L156.22,219.808 C155.644,218.816 155.636,217.968 156.196,217.264 C156.756,216.56 157.452,216.208 158.284,216.208 C159.068,216.208 159.7,216.408 160.18,216.808 C160.66,217.208 160.9,217.744 160.9,218.416 C160.9,219.008 160.752,219.58 160.456,220.132 C160.16,220.684 159.78,221.136 159.316,221.488 L159.316,221.488 L157.54,222.904 C157.124,223.208 156.916,223.504 156.916,223.792 C156.916,223.952 156.968,224.084 157.072,224.188 C157.176,224.292 157.292,224.344 157.42,224.344 C157.564,224.344 157.708,224.284 157.852,224.164 C157.996,224.044 158.152,223.884 158.32,223.684 C158.488,223.484 158.628,223.336 158.74,223.24 C159.572,223.416 160.184,223.808 160.576,224.416 C160.968,225.024 161.164,225.712 161.164,226.48 C161.164,227.408 160.928,228.156 160.456,228.724 C159.984,229.292 159.276,229.576 158.332,229.576 C157.356,229.576 156.572,229.264 155.98,228.64 C155.836,228.496 155.688,228.296 155.536,228.04 C155.384,227.784 155.248,227.584 155.128,227.44 C155.008,227.296 154.868,227.224 154.708,227.224 C154.292,227.224 154.084,227.408 154.084,227.776 C154.084,228.336 154.5,228.928 155.332,229.552 C156.164,230.176 157.228,230.488 158.524,230.488 Z M168.436,226.192 C168.804,226.192 169.124,226.068 169.396,225.82 C169.668,225.572 169.804,225.28 169.804,224.944 C169.804,224.592 169.668,224.292 169.396,224.044 C169.124,223.796 168.804,223.672 168.436,223.672 C168.068,223.672 167.756,223.796 167.5,224.044 C167.244,224.292 167.116,224.592 167.116,224.944 C167.116,225.28 167.244,225.572 167.5,225.82 C167.756,226.068 168.068,226.192 168.436,226.192 Z M178.228,230.488 C179.572,230.488 180.704,230.096 181.624,229.312 C182.544,228.528 183.004,227.584 183.004,226.48 C183.004,225.552 182.668,224.736 181.996,224.032 C181.324,223.328 180.412,222.856 179.26,222.616 L179.26,222.616 L180.364,221.776 L180.604,221.632 C180.748,221.52 180.928,221.356 181.144,221.14 C181.36,220.924 181.576,220.688 181.792,220.432 C182.008,220.176 182.192,219.864 182.344,219.496 C182.496,219.128 182.572,218.768 182.572,218.416 C182.572,217.456 182.116,216.68 181.204,216.088 C180.292,215.496 179.22,215.2 177.988,215.2 C176.66,215.2 175.596,215.524 174.796,216.172 C173.996,216.82 173.632,217.572 173.704,218.428 C173.776,219.284 174.276,219.992 175.204,220.552 L175.204,220.552 L175.924,219.808 C175.348,218.816 175.34,217.968 175.9,217.264 C176.46,216.56 177.156,216.208 177.988,216.208 C178.772,216.208 179.404,216.408 179.884,216.808 C180.364,217.208 180.604,217.744 180.604,218.416 C180.604,219.008 180.456,219.58 180.16,220.132 C179.864,220.684 179.484,221.136 179.02,221.488 L179.02,221.488 L177.244,222.904 C176.828,223.208 176.62,223.504 176.62,223.792 C176.62,223.952 176.672,224.084 176.776,224.188 C176.88,224.292 176.996,224.344 177.124,224.344 C177.268,224.344 177.412,224.284 177.556,224.164 C177.7,224.044 177.856,223.884 178.024,223.684 C178.192,223.484 178.332,223.336 178.444,223.24 C179.276,223.416 179.888,223.808 180.28,224.416 C180.672,225.024 180.868,225.712 180.868,226.48 C180.868,227.408 180.632,228.156 180.16,228.724 C179.688,229.292 178.98,229.576 178.036,229.576 C177.06,229.576 176.276,229.264 175.684,228.64 C175.54,228.496 175.392,228.296 175.24,228.04 C175.088,227.784 174.952,227.584 174.832,227.44 C174.712,227.296 174.572,227.224 174.412,227.224 C173.996,227.224 173.788,227.408 173.788,227.776 C173.788,228.336 174.204,228.928 175.036,229.552 C175.868,230.176 176.932,230.488 178.228,230.488 Z M192.004,226.408 L197.284,214.192 C197.684,213.264 198.024,212.684 198.304,212.452 C198.584,212.22 199.196,212.104 200.14,212.104 L200.14,212.104 L200.14,211.6 L194.548,211.6 L194.548,212.104 C195.54,212.104 196.176,212.244 196.456,212.524 C196.736,212.804 196.724,213.272 196.42,213.928 L196.42,213.928 L192.388,223.264 L188.308,213.928 C188.004,213.272 187.992,212.804 188.272,212.524 C188.552,212.244 189.188,212.104 190.18,212.104 L190.18,212.104 L190.18,211.6 L183.532,211.6 L183.532,212.104 C184.476,212.104 185.088,212.22 185.368,212.452 C185.648,212.684 185.988,213.264 186.388,214.192 L186.388,214.192 L191.692,226.408 L192.004,226.408 Z M206.812,226.408 C206.908,225.96 207.14,225.584 207.508,225.28 C207.668,225.312 207.948,225.428 208.348,225.628 C208.748,225.828 209.196,226.008 209.692,226.168 C210.188,226.328 210.708,226.408 211.252,226.408 C212.532,226.408 213.616,226.008 214.504,225.208 C215.392,224.408 215.836,223.368 215.836,222.088 C215.836,220.504 214.996,219.288 213.316,218.44 L213.316,218.44 L211.036,217.264 C209.932,216.688 209.168,216.196 208.744,215.788 C208.32,215.38 208.108,214.88 208.108,214.288 C208.108,213.68 208.328,213.172 208.768,212.764 C209.208,212.356 209.764,212.152 210.436,212.152 C212.644,212.152 213.868,213.552 214.108,216.352 L214.108,216.352 L214.612,216.352 L214.612,211.072 L214.132,211.072 C214.036,211.504 213.804,211.872 213.436,212.176 C212.54,211.52 211.564,211.192 210.508,211.192 C209.356,211.192 208.404,211.536 207.652,212.224 C206.9,212.912 206.524,213.76 206.524,214.768 C206.524,215.632 206.78,216.408 207.292,217.096 C207.804,217.784 208.436,218.328 209.188,218.728 L209.188,218.728 L211.492,219.904 C213.332,220.864 214.252,221.832 214.252,222.808 C214.252,223.576 213.968,224.208 213.4,224.704 C212.832,225.2 212.116,225.448 211.252,225.448 C210.66,225.448 210.12,225.368 209.632,225.208 C209.144,225.048 208.752,224.848 208.456,224.608 C208.16,224.368 207.9,224.08 207.676,223.744 C207.452,223.408 207.288,223.104 207.184,222.832 C207.08,222.56 207,222.276 206.944,221.98 C206.888,221.684 206.856,221.484 206.848,221.38 C206.84,221.276 206.836,221.192 206.836,221.128 L206.836,221.128 L206.332,221.128 L206.332,226.408 L206.812,226.408 Z M220.66,215.248 C220.948,215.248 221.196,215.144 221.404,214.936 C221.612,214.728 221.716,214.472 221.716,214.168 C221.716,213.88 221.612,213.632 221.404,213.424 C221.196,213.216 220.948,213.112 220.66,213.112 C220.372,213.112 220.124,213.216 219.916,213.424 C219.708,213.632 219.604,213.88 219.604,214.168 C219.604,214.472 219.708,214.728 219.916,214.936 C220.124,215.144 220.372,215.248 220.66,215.248 Z M223.42,226 L223.42,225.496 C222.62,225.496 222.104,225.328 221.872,224.992 C221.64,224.656 221.524,223.888 221.524,222.688 L221.524,222.688 L221.524,217.6 L217.924,218.2 L217.924,218.704 C218.724,218.704 219.24,218.872 219.472,219.208 C219.704,219.544 219.82,220.304 219.82,221.488 L219.82,221.488 L219.82,222.688 C219.82,223.888 219.704,224.656 219.472,224.992 C219.24,225.328 218.724,225.496 217.924,225.496 L217.924,225.496 L217.924,226 L223.42,226 Z M228.532,232.408 C229.748,232.408 230.76,232.116 231.568,231.532 C232.376,230.948 232.78,230.168 232.78,229.192 C232.78,228.376 232.436,227.68 231.748,227.104 C231.06,226.528 229.948,226.176 228.412,226.048 C226.956,225.92 226.228,225.616 226.228,225.136 C226.228,224.672 227.124,224.336 228.916,224.128 C229.748,224.016 230.476,223.656 231.1,223.048 C231.724,222.44 232.036,221.712 232.036,220.864 C232.036,220.128 231.804,219.48 231.34,218.92 C231.596,218.664 231.844,218.536 232.084,218.536 C232.308,218.536 232.472,218.596 232.576,218.716 C232.68,218.836 232.744,218.964 232.768,219.1 C232.792,219.236 232.864,219.36 232.984,219.472 C233.104,219.584 233.284,219.632 233.524,219.616 C233.652,219.616 233.764,219.576 233.86,219.496 C234.148,219.272 234.22,218.936 234.076,218.488 C233.884,217.896 233.436,217.6 232.732,217.6 C232.46,217.6 232.144,217.688 231.784,217.864 C231.424,218.04 231.14,218.256 230.932,218.512 C230.244,217.904 229.42,217.6 228.46,217.6 C227.468,217.6 226.624,217.92 225.928,218.56 C225.232,219.2 224.884,219.968 224.884,220.864 C224.884,221.504 225.064,222.08 225.424,222.592 C225.784,223.104 226.276,223.504 226.9,223.792 C225.556,224.208 224.884,224.848 224.884,225.712 C224.884,226.976 226.02,227.72 228.292,227.944 C229.396,228.056 230.208,228.232 230.728,228.472 C231.248,228.712 231.508,229.096 231.508,229.624 C231.508,230.168 231.208,230.612 230.608,230.956 C230.008,231.3 229.316,231.472 228.532,231.472 C228.036,231.472 227.56,231.4 227.104,231.256 C226.648,231.112 226.264,230.912 225.952,230.656 C225.64,230.4 225.5,230.052 225.532,229.612 C225.564,229.172 225.812,228.688 226.276,228.16 L226.276,228.16 L225.844,227.896 C224.884,228.392 224.372,229 224.308,229.72 C224.244,230.44 224.608,231.068 225.4,231.604 C226.192,232.14 227.236,232.408 228.532,232.408 Z M228.46,223.336 C227.9,223.336 227.468,223.108 227.164,222.652 C226.86,222.196 226.708,221.6 226.708,220.864 C226.708,220.128 226.86,219.528 227.164,219.064 C227.468,218.6 227.9,218.368 228.46,218.368 C229.02,218.368 229.448,218.6 229.744,219.064 C230.04,219.528 230.188,220.128 230.188,220.864 C230.188,221.6 230.036,222.2 229.732,222.664 C229.444,223.112 229.02,223.336 228.46,223.336 Z M240.22,226 L240.22,225.496 C239.484,225.496 239.02,225.336 238.828,225.016 C238.636,224.696 238.54,223.92 238.54,222.688 L238.54,222.688 L238.54,221.128 C238.54,220.488 238.828,219.928 239.404,219.448 C239.98,218.968 240.612,218.728 241.3,218.728 C242.628,218.728 243.292,219.584 243.292,221.296 L243.292,221.296 L243.292,222.688 C243.292,223.872 243.172,224.636 242.932,224.98 C242.692,225.324 242.18,225.496 241.396,225.496 L241.396,225.496 L241.396,226 L246.892,226 L246.892,225.496 C246.092,225.496 245.576,225.328 245.344,224.992 C245.112,224.656 244.996,223.888 244.996,222.688 L244.996,222.688 L244.996,221.176 C244.996,220.104 244.736,219.24 244.216,218.584 C243.696,217.928 242.916,217.6 241.876,217.6 C240.564,217.6 239.452,218.176 238.54,219.328 C238.412,218.48 238.276,217.904 238.132,217.6 L238.132,217.6 L234.94,218.2 L234.94,218.704 C235.74,218.704 236.256,218.872 236.488,219.208 C236.72,219.544 236.836,220.304 236.836,221.488 L236.836,221.488 L236.836,222.688 C236.836,223.888 236.72,224.656 236.488,224.992 C236.256,225.328 235.74,225.496 234.94,225.496 L234.94,225.496 L234.94,226 L240.22,226 Z M250.42,226.312 C251.348,226.312 252.348,225.832 253.42,224.872 C253.548,225.8 254.092,226.264 255.052,226.264 C255.644,226.264 256.172,226.016 256.636,225.52 L256.636,225.52 L256.3,225.064 C256.06,225.304 255.836,225.424 255.628,225.424 C255.26,225.424 255.076,225.112 255.076,224.488 L255.076,224.488 L255.076,220.864 C255.076,219.712 254.82,218.88 254.308,218.368 C253.796,217.856 252.956,217.6 251.788,217.6 C250.988,217.6 250.28,217.78 249.664,218.14 C249.048,218.5 248.74,218.96 248.74,219.52 C248.74,219.76 248.82,219.96 248.98,220.12 C249.14,220.28 249.34,220.36 249.58,220.36 C249.804,220.36 249.996,220.28 250.156,220.12 C250.316,219.96 250.396,219.76 250.396,219.52 C250.396,219.168 250.544,218.888 250.84,218.68 C251.136,218.472 251.444,218.368 251.764,218.368 C252.42,218.368 252.852,218.552 253.06,218.92 C253.268,219.288 253.372,219.944 253.372,220.888 C249.964,221.48 248.26,222.616 248.26,224.296 C248.26,224.92 248.468,225.412 248.884,225.772 C249.3,226.132 249.812,226.312 250.42,226.312 Z M251.188,225.232 C250.868,225.232 250.6,225.12 250.384,224.896 C250.168,224.672 250.06,224.376 250.06,224.008 C250.06,222.936 251.164,222.144 253.372,221.632 L253.372,221.632 L253.372,224.08 C252.508,224.848 251.78,225.232 251.188,225.232 Z M262.972,226 L262.972,225.496 C262.172,225.496 261.656,225.328 261.424,224.992 C261.192,224.656 261.076,223.888 261.076,222.688 L261.076,222.688 L261.076,211.192 L257.476,211.792 L257.476,212.296 C258.276,212.296 258.792,212.464 259.024,212.8 C259.256,213.136 259.372,213.904 259.372,215.104 L259.372,215.104 L259.372,222.688 C259.372,223.888 259.256,224.656 259.024,224.992 C258.792,225.328 258.276,225.496 257.476,225.496 L257.476,225.496 L257.476,226 L262.972,226 Z" id="3.3VSignal" fill="#524740" fill-rule="nonzero"></path>
                <path d="M23.652,21.488 C24.98,21.488 26.12,20.996 27.072,20.012 C28.024,19.028 28.5,17.848 28.5,16.472 C28.5,15.064 28.064,13.88 27.192,12.92 C26.32,11.96 25.212,11.48 23.868,11.48 C23.356,11.48 22.844,11.576 22.332,11.768 C21.82,11.96 21.436,12.216 21.18,12.536 L21.18,12.536 L21.54,8.288 L27.612,8.288 L28.212,4.784 L27.66,4.784 C27.484,5.504 27.236,5.988 26.916,6.236 C26.596,6.484 25.916,6.608 24.876,6.608 L24.876,6.608 L20.82,6.608 L20.076,14.84 L20.964,14.84 C21.204,13.272 22.1,12.488 23.652,12.488 C24.612,12.488 25.328,12.848 25.8,13.568 C26.272,14.288 26.508,15.256 26.508,16.472 C26.508,17.688 26.268,18.676 25.788,19.436 C25.308,20.196 24.596,20.576 23.652,20.576 C23.06,20.576 22.568,20.452 22.176,20.204 C21.784,19.956 21.524,19.688 21.396,19.4 C21.268,19.112 21.124,18.844 20.964,18.596 C20.804,18.348 20.62,18.224 20.412,18.224 C19.964,18.224 19.74,18.44 19.74,18.872 C19.74,19.432 20.104,20.008 20.832,20.6 C21.56,21.192 22.5,21.488 23.652,21.488 Z M37.572,17.408 L42.852,5.192 C43.252,4.264 43.592,3.684 43.872,3.452 C44.152,3.22 44.764,3.104 45.708,3.104 L45.708,3.104 L45.708,2.6 L40.116,2.6 L40.116,3.104 C41.108,3.104 41.744,3.244 42.024,3.524 C42.304,3.804 42.292,4.272 41.988,4.928 L41.988,4.928 L37.956,14.264 L33.876,4.928 C33.572,4.272 33.56,3.804 33.84,3.524 C34.12,3.244 34.756,3.104 35.748,3.104 L35.748,3.104 L35.748,2.6 L29.1,2.6 L29.1,3.104 C30.044,3.104 30.656,3.22 30.936,3.452 C31.216,3.684 31.556,4.264 31.956,5.192 L31.956,5.192 L37.26,17.408 L37.572,17.408 Z" id="5V" fill="#524740" fill-rule="nonzero"></path>
                <path d="M6.124,77.488 C7.468,77.488 8.6,77.096 9.52,76.312 C10.44,75.528 10.9,74.584 10.9,73.48 C10.9,72.552 10.564,71.736 9.892,71.032 C9.22,70.328 8.308,69.856 7.156,69.616 L7.156,69.616 L8.26,68.776 L8.5,68.632 C8.644,68.52 8.824,68.356 9.04,68.14 C9.256,67.924 9.472,67.688 9.688,67.432 C9.904,67.176 10.088,66.864 10.24,66.496 C10.392,66.128 10.468,65.768 10.468,65.416 C10.468,64.456 10.012,63.68 9.1,63.088 C8.188,62.496 7.116,62.2 5.884,62.2 C4.556,62.2 3.492,62.524 2.692,63.172 C1.892,63.82 1.528,64.572 1.6,65.428 C1.672,66.284 2.172,66.992 3.1,67.552 L3.1,67.552 L3.82,66.808 C3.244,65.816 3.236,64.968 3.796,64.264 C4.356,63.56 5.052,63.208 5.884,63.208 C6.668,63.208 7.3,63.408 7.78,63.808 C8.26,64.208 8.5,64.744 8.5,65.416 C8.5,66.008 8.352,66.58 8.056,67.132 C7.76,67.684 7.38,68.136 6.916,68.488 L6.916,68.488 L5.14,69.904 C4.724,70.208 4.516,70.504 4.516,70.792 C4.516,70.952 4.568,71.084 4.672,71.188 C4.776,71.292 4.892,71.344 5.02,71.344 C5.164,71.344 5.308,71.284 5.452,71.164 C5.596,71.044 5.752,70.884 5.92,70.684 C6.088,70.484 6.228,70.336 6.34,70.24 C7.172,70.416 7.784,70.808 8.176,71.416 C8.568,72.024 8.764,72.712 8.764,73.48 C8.764,74.408 8.528,75.156 8.056,75.724 C7.584,76.292 6.876,76.576 5.932,76.576 C4.956,76.576 4.172,76.264 3.58,75.64 C3.436,75.496 3.288,75.296 3.136,75.04 C2.984,74.784 2.848,74.584 2.728,74.44 C2.608,74.296 2.468,74.224 2.308,74.224 C1.892,74.224 1.684,74.408 1.684,74.776 C1.684,75.336 2.1,75.928 2.932,76.552 C3.764,77.176 4.828,77.488 6.124,77.488 Z M16.036,73.192 C16.404,73.192 16.724,73.068 16.996,72.82 C17.268,72.572 17.404,72.28 17.404,71.944 C17.404,71.592 17.268,71.292 16.996,71.044 C16.724,70.796 16.404,70.672 16.036,70.672 C15.668,70.672 15.356,70.796 15.1,71.044 C14.844,71.292 14.716,71.592 14.716,71.944 C14.716,72.28 14.844,72.572 15.1,72.82 C15.356,73.068 15.668,73.192 16.036,73.192 Z M25.828,77.488 C27.172,77.488 28.304,77.096 29.224,76.312 C30.144,75.528 30.604,74.584 30.604,73.48 C30.604,72.552 30.268,71.736 29.596,71.032 C28.924,70.328 28.012,69.856 26.86,69.616 L26.86,69.616 L27.964,68.776 L28.204,68.632 C28.348,68.52 28.528,68.356 28.744,68.14 C28.96,67.924 29.176,67.688 29.392,67.432 C29.608,67.176 29.792,66.864 29.944,66.496 C30.096,66.128 30.172,65.768 30.172,65.416 C30.172,64.456 29.716,63.68 28.804,63.088 C27.892,62.496 26.82,62.2 25.588,62.2 C24.26,62.2 23.196,62.524 22.396,63.172 C21.596,63.82 21.232,64.572 21.304,65.428 C21.376,66.284 21.876,66.992 22.804,67.552 L22.804,67.552 L23.524,66.808 C22.948,65.816 22.94,64.968 23.5,64.264 C24.06,63.56 24.756,63.208 25.588,63.208 C26.372,63.208 27.004,63.408 27.484,63.808 C27.964,64.208 28.204,64.744 28.204,65.416 C28.204,66.008 28.056,66.58 27.76,67.132 C27.464,67.684 27.084,68.136 26.62,68.488 L26.62,68.488 L24.844,69.904 C24.428,70.208 24.22,70.504 24.22,70.792 C24.22,70.952 24.272,71.084 24.376,71.188 C24.48,71.292 24.596,71.344 24.724,71.344 C24.868,71.344 25.012,71.284 25.156,71.164 C25.3,71.044 25.456,70.884 25.624,70.684 C25.792,70.484 25.932,70.336 26.044,70.24 C26.876,70.416 27.488,70.808 27.88,71.416 C28.272,72.024 28.468,72.712 28.468,73.48 C28.468,74.408 28.232,75.156 27.76,75.724 C27.288,76.292 26.58,76.576 25.636,76.576 C24.66,76.576 23.876,76.264 23.284,75.64 C23.14,75.496 22.992,75.296 22.84,75.04 C22.688,74.784 22.552,74.584 22.432,74.44 C22.312,74.296 22.172,74.224 22.012,74.224 C21.596,74.224 21.388,74.408 21.388,74.776 C21.388,75.336 21.804,75.928 22.636,76.552 C23.468,77.176 24.532,77.488 25.828,77.488 Z M39.604,73.408 L44.884,61.192 C45.284,60.264 45.624,59.684 45.904,59.452 C46.184,59.22 46.796,59.104 47.74,59.104 L47.74,59.104 L47.74,58.6 L42.148,58.6 L42.148,59.104 C43.14,59.104 43.776,59.244 44.056,59.524 C44.336,59.804 44.324,60.272 44.02,60.928 L44.02,60.928 L39.988,70.264 L35.908,60.928 C35.604,60.272 35.592,59.804 35.872,59.524 C36.152,59.244 36.788,59.104 37.78,59.104 L37.78,59.104 L37.78,58.6 L31.132,58.6 L31.132,59.104 C32.076,59.104 32.688,59.22 32.968,59.452 C33.248,59.684 33.588,60.264 33.988,61.192 L33.988,61.192 L39.292,73.408 L39.604,73.408 Z" id="3.3V" fill="#524740" fill-rule="nonzero"></path>
                <g id="Group-5" transform="translate(16.000000, 10.000000)">
                    <line x1="349" y1="181" x2="36" y2="181" id="Line-7-Copy-6" stroke="#524740" stroke-width="2" stroke-linecap="square"></line>
                    <line x1="52" y1="1" x2="37" y2="1" id="Line-7-Copy-7" stroke="#524740" stroke-width="2" stroke-linecap="square"></line>
                    <line x1="52" y1="57" x2="37" y2="57" id="Line-7-Copy-8" stroke="#524740" stroke-width="2" stroke-linecap="square"></line>
                    <path d="M8.096,187.408 C9.632,187.408 10.948,186.86 12.044,185.764 C13.14,184.668 13.688,183.344 13.688,181.792 C13.688,180.256 13.14,178.94 12.044,177.844 C10.948,176.748 9.632,176.2 8.096,176.2 C6.56,176.2 5.24,176.752 4.136,177.856 C3.048,178.944 2.504,180.256 2.504,181.792 C2.504,183.344 3.052,184.668 4.148,185.764 C5.244,186.86 6.56,187.408 8.096,187.408 Z M8.096,186.016 C6.976,186.016 6.02,185.604 5.228,184.78 C4.436,183.956 4.04,182.96 4.04,181.792 C4.04,180.64 4.436,179.648 5.228,178.816 C6.02,177.984 6.976,177.568 8.096,177.568 C9.2,177.568 10.152,177.984 10.952,178.816 C11.752,179.648 12.152,180.64 12.152,181.792 C12.152,182.96 11.752,183.956 10.952,184.78 C10.152,185.604 9.2,186.016 8.096,186.016 Z M22.76,187.408 L28.04,175.192 C28.44,174.264 28.78,173.684 29.06,173.452 C29.34,173.22 29.952,173.104 30.896,173.104 L30.896,173.104 L30.896,172.6 L25.304,172.6 L25.304,173.104 C26.296,173.104 26.932,173.244 27.212,173.524 C27.492,173.804 27.48,174.272 27.176,174.928 L27.176,174.928 L23.144,184.264 L19.064,174.928 C18.76,174.272 18.748,173.804 19.028,173.524 C19.308,173.244 19.944,173.104 20.936,173.104 L20.936,173.104 L20.936,172.6 L14.288,172.6 L14.288,173.104 C15.232,173.104 15.844,173.22 16.124,173.452 C16.404,173.684 16.744,174.264 17.144,175.192 L17.144,175.192 L22.448,187.408 L22.76,187.408 Z" id="0V" fill="#524740" fill-rule="nonzero"></path>
                </g>
                <path d="M68.7460938,128.942266 C83.9622628,103.431054 95.3802315,86.949763 103,79.4983922 C114.990342,67.7730377 127.054026,96.7543137 139,96.7543137 C150.969347,96.7543137 162.336965,67.7271102 174,79.4983922 C178.760945,84.3035245 183.944943,90.0894037 188.654846,96.8560297 C192.817878,102.836977 199.017565,113.532389 207.253906,128.942266 C224.198814,157.108546 236.828194,175.06263 245.142045,182.804518 C256.561007,193.437896 266.846992,165.210871 278,165.210871 C289.36674,165.210871 301.733481,193.232169 313.100221,182.187337 C321.07795,174.435539 333.044543,156.687182 349,128.942266" id="Path-2" stroke="#23ABE3" stroke-width="2"></path>
            </g>
            <g id="5V-Signal">
                <line x1="100" y1="1" x2="100" y2="201" id="Line-7-Copy-2" stroke="#524740" stroke-width="2" stroke-linecap="square"></line>
                <path d="M200.052,230.488 C201.38,230.488 202.52,229.996 203.472,229.012 C204.424,228.028 204.9,226.848 204.9,225.472 C204.9,224.064 204.464,222.88 203.592,221.92 C202.72,220.96 201.612,220.48 200.268,220.48 C199.756,220.48 199.244,220.576 198.732,220.768 C198.22,220.96 197.836,221.216 197.58,221.536 L197.58,221.536 L197.94,217.288 L204.012,217.288 L204.612,213.784 L204.06,213.784 C203.884,214.504 203.636,214.988 203.316,215.236 C202.996,215.484 202.316,215.608 201.276,215.608 L201.276,215.608 L197.22,215.608 L196.476,223.84 L197.364,223.84 C197.604,222.272 198.5,221.488 200.052,221.488 C201.012,221.488 201.728,221.848 202.2,222.568 C202.672,223.288 202.908,224.256 202.908,225.472 C202.908,226.688 202.668,227.676 202.188,228.436 C201.708,229.196 200.996,229.576 200.052,229.576 C199.46,229.576 198.968,229.452 198.576,229.204 C198.184,228.956 197.924,228.688 197.796,228.4 C197.668,228.112 197.524,227.844 197.364,227.596 C197.204,227.348 197.02,227.224 196.812,227.224 C196.364,227.224 196.14,227.44 196.14,227.872 C196.14,228.432 196.504,229.008 197.232,229.6 C197.96,230.192 198.9,230.488 200.052,230.488 Z M213.972,226.408 L219.252,214.192 C219.652,213.264 219.992,212.684 220.272,212.452 C220.552,212.22 221.164,212.104 222.108,212.104 L222.108,212.104 L222.108,211.6 L216.516,211.6 L216.516,212.104 C217.508,212.104 218.144,212.244 218.424,212.524 C218.704,212.804 218.692,213.272 218.388,213.928 L218.388,213.928 L214.356,223.264 L210.276,213.928 C209.972,213.272 209.96,212.804 210.24,212.524 C210.52,212.244 211.156,212.104 212.148,212.104 L212.148,212.104 L212.148,211.6 L205.5,211.6 L205.5,212.104 C206.444,212.104 207.056,212.22 207.336,212.452 C207.616,212.684 207.956,213.264 208.356,214.192 L208.356,214.192 L213.66,226.408 L213.972,226.408 Z M228.78,226.408 C228.876,225.96 229.108,225.584 229.476,225.28 C229.636,225.312 229.916,225.428 230.316,225.628 C230.716,225.828 231.164,226.008 231.66,226.168 C232.156,226.328 232.676,226.408 233.22,226.408 C234.5,226.408 235.584,226.008 236.472,225.208 C237.36,224.408 237.804,223.368 237.804,222.088 C237.804,220.504 236.964,219.288 235.284,218.44 L235.284,218.44 L233.004,217.264 C231.9,216.688 231.136,216.196 230.712,215.788 C230.288,215.38 230.076,214.88 230.076,214.288 C230.076,213.68 230.296,213.172 230.736,212.764 C231.176,212.356 231.732,212.152 232.404,212.152 C234.612,212.152 235.836,213.552 236.076,216.352 L236.076,216.352 L236.58,216.352 L236.58,211.072 L236.1,211.072 C236.004,211.504 235.772,211.872 235.404,212.176 C234.508,211.52 233.532,211.192 232.476,211.192 C231.324,211.192 230.372,211.536 229.62,212.224 C228.868,212.912 228.492,213.76 228.492,214.768 C228.492,215.632 228.748,216.408 229.26,217.096 C229.772,217.784 230.404,218.328 231.156,218.728 L231.156,218.728 L233.46,219.904 C235.3,220.864 236.22,221.832 236.22,222.808 C236.22,223.576 235.936,224.208 235.368,224.704 C234.8,225.2 234.084,225.448 233.22,225.448 C232.628,225.448 232.088,225.368 231.6,225.208 C231.112,225.048 230.72,224.848 230.424,224.608 C230.128,224.368 229.868,224.08 229.644,223.744 C229.42,223.408 229.256,223.104 229.152,222.832 C229.048,222.56 228.968,222.276 228.912,221.98 C228.856,221.684 228.824,221.484 228.816,221.38 C228.808,221.276 228.804,221.192 228.804,221.128 L228.804,221.128 L228.3,221.128 L228.3,226.408 L228.78,226.408 Z M242.628,215.248 C242.916,215.248 243.164,215.144 243.372,214.936 C243.58,214.728 243.684,214.472 243.684,214.168 C243.684,213.88 243.58,213.632 243.372,213.424 C243.164,213.216 242.916,213.112 242.628,213.112 C242.34,213.112 242.092,213.216 241.884,213.424 C241.676,213.632 241.572,213.88 241.572,214.168 C241.572,214.472 241.676,214.728 241.884,214.936 C242.092,215.144 242.34,215.248 242.628,215.248 Z M245.388,226 L245.388,225.496 C244.588,225.496 244.072,225.328 243.84,224.992 C243.608,224.656 243.492,223.888 243.492,222.688 L243.492,222.688 L243.492,217.6 L239.892,218.2 L239.892,218.704 C240.692,218.704 241.208,218.872 241.44,219.208 C241.672,219.544 241.788,220.304 241.788,221.488 L241.788,221.488 L241.788,222.688 C241.788,223.888 241.672,224.656 241.44,224.992 C241.208,225.328 240.692,225.496 239.892,225.496 L239.892,225.496 L239.892,226 L245.388,226 Z M250.5,232.408 C251.716,232.408 252.728,232.116 253.536,231.532 C254.344,230.948 254.748,230.168 254.748,229.192 C254.748,228.376 254.404,227.68 253.716,227.104 C253.028,226.528 251.916,226.176 250.38,226.048 C248.924,225.92 248.196,225.616 248.196,225.136 C248.196,224.672 249.092,224.336 250.884,224.128 C251.716,224.016 252.444,223.656 253.068,223.048 C253.692,222.44 254.004,221.712 254.004,220.864 C254.004,220.128 253.772,219.48 253.308,218.92 C253.564,218.664 253.812,218.536 254.052,218.536 C254.276,218.536 254.44,218.596 254.544,218.716 C254.648,218.836 254.712,218.964 254.736,219.1 C254.76,219.236 254.832,219.36 254.952,219.472 C255.072,219.584 255.252,219.632 255.492,219.616 C255.62,219.616 255.732,219.576 255.828,219.496 C256.116,219.272 256.188,218.936 256.044,218.488 C255.852,217.896 255.404,217.6 254.7,217.6 C254.428,217.6 254.112,217.688 253.752,217.864 C253.392,218.04 253.108,218.256 252.9,218.512 C252.212,217.904 251.388,217.6 250.428,217.6 C249.436,217.6 248.592,217.92 247.896,218.56 C247.2,219.2 246.852,219.968 246.852,220.864 C246.852,221.504 247.032,222.08 247.392,222.592 C247.752,223.104 248.244,223.504 248.868,223.792 C247.524,224.208 246.852,224.848 246.852,225.712 C246.852,226.976 247.988,227.72 250.26,227.944 C251.364,228.056 252.176,228.232 252.696,228.472 C253.216,228.712 253.476,229.096 253.476,229.624 C253.476,230.168 253.176,230.612 252.576,230.956 C251.976,231.3 251.284,231.472 250.5,231.472 C250.004,231.472 249.528,231.4 249.072,231.256 C248.616,231.112 248.232,230.912 247.92,230.656 C247.608,230.4 247.468,230.052 247.5,229.612 C247.532,229.172 247.78,228.688 248.244,228.16 L248.244,228.16 L247.812,227.896 C246.852,228.392 246.34,229 246.276,229.72 C246.212,230.44 246.576,231.068 247.368,231.604 C248.16,232.14 249.204,232.408 250.5,232.408 Z M250.428,223.336 C249.868,223.336 249.436,223.108 249.132,222.652 C248.828,222.196 248.676,221.6 248.676,220.864 C248.676,220.128 248.828,219.528 249.132,219.064 C249.436,218.6 249.868,218.368 250.428,218.368 C250.988,218.368 251.416,218.6 251.712,219.064 C252.008,219.528 252.156,220.128 252.156,220.864 C252.156,221.6 252.004,222.2 251.7,222.664 C251.412,223.112 250.988,223.336 250.428,223.336 Z M262.188,226 L262.188,225.496 C261.452,225.496 260.988,225.336 260.796,225.016 C260.604,224.696 260.508,223.92 260.508,222.688 L260.508,222.688 L260.508,221.128 C260.508,220.488 260.796,219.928 261.372,219.448 C261.948,218.968 262.58,218.728 263.268,218.728 C264.596,218.728 265.26,219.584 265.26,221.296 L265.26,221.296 L265.26,222.688 C265.26,223.872 265.14,224.636 264.9,224.98 C264.66,225.324 264.148,225.496 263.364,225.496 L263.364,225.496 L263.364,226 L268.86,226 L268.86,225.496 C268.06,225.496 267.544,225.328 267.312,224.992 C267.08,224.656 266.964,223.888 266.964,222.688 L266.964,222.688 L266.964,221.176 C266.964,220.104 266.704,219.24 266.184,218.584 C265.664,217.928 264.884,217.6 263.844,217.6 C262.532,217.6 261.42,218.176 260.508,219.328 C260.38,218.48 260.244,217.904 260.1,217.6 L260.1,217.6 L256.908,218.2 L256.908,218.704 C257.708,218.704 258.224,218.872 258.456,219.208 C258.688,219.544 258.804,220.304 258.804,221.488 L258.804,221.488 L258.804,222.688 C258.804,223.888 258.688,224.656 258.456,224.992 C258.224,225.328 257.708,225.496 256.908,225.496 L256.908,225.496 L256.908,226 L262.188,226 Z M272.388,226.312 C273.316,226.312 274.316,225.832 275.388,224.872 C275.516,225.8 276.06,226.264 277.02,226.264 C277.612,226.264 278.14,226.016 278.604,225.52 L278.604,225.52 L278.268,225.064 C278.028,225.304 277.804,225.424 277.596,225.424 C277.228,225.424 277.044,225.112 277.044,224.488 L277.044,224.488 L277.044,220.864 C277.044,219.712 276.788,218.88 276.276,218.368 C275.764,217.856 274.924,217.6 273.756,217.6 C272.956,217.6 272.248,217.78 271.632,218.14 C271.016,218.5 270.708,218.96 270.708,219.52 C270.708,219.76 270.788,219.96 270.948,220.12 C271.108,220.28 271.308,220.36 271.548,220.36 C271.772,220.36 271.964,220.28 272.124,220.12 C272.284,219.96 272.364,219.76 272.364,219.52 C272.364,219.168 272.512,218.888 272.808,218.68 C273.104,218.472 273.412,218.368 273.732,218.368 C274.388,218.368 274.82,218.552 275.028,218.92 C275.236,219.288 275.34,219.944 275.34,220.888 C271.932,221.48 270.228,222.616 270.228,224.296 C270.228,224.92 270.436,225.412 270.852,225.772 C271.268,226.132 271.78,226.312 272.388,226.312 Z M273.156,225.232 C272.836,225.232 272.568,225.12 272.352,224.896 C272.136,224.672 272.028,224.376 272.028,224.008 C272.028,222.936 273.132,222.144 275.34,221.632 L275.34,221.632 L275.34,224.08 C274.476,224.848 273.748,225.232 273.156,225.232 Z M284.94,226 L284.94,225.496 C284.14,225.496 283.624,225.328 283.392,224.992 C283.16,224.656 283.044,223.888 283.044,222.688 L283.044,222.688 L283.044,211.192 L279.444,211.792 L279.444,212.296 C280.244,212.296 280.76,212.464 280.992,212.8 C281.224,213.136 281.34,213.904 281.34,215.104 L281.34,215.104 L281.34,222.688 C281.34,223.888 281.224,224.656 280.992,224.992 C280.76,225.328 280.244,225.496 279.444,225.496 L279.444,225.496 L279.444,226 L284.94,226 Z" id="5VSignal" fill="#524740" fill-rule="nonzero"></path>
                <path d="M-16.076,120.408 L-10.796,108.192 C-10.396,107.264 -10.056,106.684 -9.776,106.452 C-9.496,106.22 -8.884,106.104 -7.94,106.104 L-7.94,106.104 L-7.94,105.6 L-13.532,105.6 L-13.532,106.104 C-12.54,106.104 -11.904,106.244 -11.624,106.524 C-11.344,106.804 -11.356,107.272 -11.66,107.928 L-11.66,107.928 L-15.692,117.264 L-19.772,107.928 C-20.076,107.272 -20.088,106.804 -19.808,106.524 C-19.528,106.244 -18.892,106.104 -17.9,106.104 L-17.9,106.104 L-17.9,105.6 L-24.548,105.6 L-24.548,106.104 C-23.604,106.104 -22.992,106.22 -22.712,106.452 C-22.432,106.684 -22.092,107.264 -21.692,108.192 L-21.692,108.192 L-16.388,120.408 L-16.076,120.408 Z M-2.828,120.408 C-1.5,120.408 -0.36,119.976 0.592,119.112 C1.544,118.248 2.02,117.208 2.02,115.992 C2.02,114.776 1.54,113.744 0.58,112.896 C-0.364,112.032 -1.5,111.6 -2.828,111.6 C-4.156,111.6 -5.296,112.028 -6.248,112.884 C-7.2,113.74 -7.676,114.776 -7.676,115.992 C-7.676,117.208 -7.2,118.248 -6.248,119.112 C-5.296,119.976 -4.156,120.408 -2.828,120.408 Z M-2.828,119.472 C-3.772,119.472 -4.492,119.144 -4.988,118.488 C-5.484,117.832 -5.732,117 -5.732,115.992 C-5.732,114.984 -5.484,114.152 -4.988,113.496 C-4.492,112.84 -3.772,112.512 -2.828,112.512 C-1.884,112.512 -1.164,112.836 -0.668,113.484 C-0.172,114.132 0.076,114.968 0.076,115.992 C0.076,117.016 -0.172,117.856 -0.668,118.512 C-1.164,119.152 -1.884,119.472 -2.828,119.472 Z M9.124,120 L9.124,119.496 C8.324,119.496 7.808,119.328 7.576,118.992 C7.344,118.656 7.228,117.888 7.228,116.688 L7.228,116.688 L7.228,105.192 L3.628,105.792 L3.628,106.296 C4.428,106.296 4.944,106.464 5.176,106.8 C5.408,107.136 5.524,107.904 5.524,109.104 L5.524,109.104 L5.524,116.688 C5.524,117.888 5.408,118.656 5.176,118.992 C4.944,119.328 4.428,119.496 3.628,119.496 L3.628,119.496 L3.628,120 L9.124,120 Z M13.756,120.336 C14.156,120.336 14.592,120.208 15.064,119.952 C15.536,119.696 15.94,119.368 16.276,118.968 L16.276,118.968 L15.868,118.56 C15.292,119.104 14.772,119.376 14.308,119.376 C13.588,119.376 13.228,118.8 13.228,117.648 L13.228,117.648 L13.228,112.848 L15.316,112.848 L15.316,112.008 L13.228,112.008 L13.228,109.368 L12.412,109.368 C12.316,110.2 12.108,110.856 11.788,111.336 C11.468,111.816 10.964,112.128 10.276,112.272 L10.276,112.272 L10.276,112.848 L11.524,112.848 L11.524,117.648 C11.524,118.544 11.724,119.216 12.124,119.664 C12.524,120.112 13.068,120.336 13.756,120.336 Z M19.756,120.312 C20.684,120.312 21.684,119.832 22.756,118.872 C22.884,119.8 23.428,120.264 24.388,120.264 C24.98,120.264 25.508,120.016 25.972,119.52 L25.972,119.52 L25.636,119.064 C25.396,119.304 25.172,119.424 24.964,119.424 C24.596,119.424 24.412,119.112 24.412,118.488 L24.412,118.488 L24.412,114.864 C24.412,113.712 24.156,112.88 23.644,112.368 C23.132,111.856 22.292,111.6 21.124,111.6 C20.324,111.6 19.616,111.78 19,112.14 C18.384,112.5 18.076,112.96 18.076,113.52 C18.076,113.76 18.156,113.96 18.316,114.12 C18.476,114.28 18.676,114.36 18.916,114.36 C19.14,114.36 19.332,114.28 19.492,114.12 C19.652,113.96 19.732,113.76 19.732,113.52 C19.732,113.168 19.88,112.888 20.176,112.68 C20.472,112.472 20.78,112.368 21.1,112.368 C21.756,112.368 22.188,112.552 22.396,112.92 C22.604,113.288 22.708,113.944 22.708,114.888 C19.3,115.48 17.596,116.616 17.596,118.296 C17.596,118.92 17.804,119.412 18.22,119.772 C18.636,120.132 19.148,120.312 19.756,120.312 Z M20.524,119.232 C20.204,119.232 19.936,119.12 19.72,118.896 C19.504,118.672 19.396,118.376 19.396,118.008 C19.396,116.936 20.5,116.144 22.708,115.632 L22.708,115.632 L22.708,118.08 C21.844,118.848 21.116,119.232 20.524,119.232 Z M31.012,126.408 C32.228,126.408 33.24,126.116 34.048,125.532 C34.856,124.948 35.26,124.168 35.26,123.192 C35.26,122.376 34.916,121.68 34.228,121.104 C33.54,120.528 32.428,120.176 30.892,120.048 C29.436,119.92 28.708,119.616 28.708,119.136 C28.708,118.672 29.604,118.336 31.396,118.128 C32.228,118.016 32.956,117.656 33.58,117.048 C34.204,116.44 34.516,115.712 34.516,114.864 C34.516,114.128 34.284,113.48 33.82,112.92 C34.076,112.664 34.324,112.536 34.564,112.536 C34.788,112.536 34.952,112.596 35.056,112.716 C35.16,112.836 35.224,112.964 35.248,113.1 C35.272,113.236 35.344,113.36 35.464,113.472 C35.584,113.584 35.764,113.632 36.004,113.616 C36.132,113.616 36.244,113.576 36.34,113.496 C36.628,113.272 36.7,112.936 36.556,112.488 C36.364,111.896 35.916,111.6 35.212,111.6 C34.94,111.6 34.624,111.688 34.264,111.864 C33.904,112.04 33.62,112.256 33.412,112.512 C32.724,111.904 31.9,111.6 30.94,111.6 C29.948,111.6 29.104,111.92 28.408,112.56 C27.712,113.2 27.364,113.968 27.364,114.864 C27.364,115.504 27.544,116.08 27.904,116.592 C28.264,117.104 28.756,117.504 29.38,117.792 C28.036,118.208 27.364,118.848 27.364,119.712 C27.364,120.976 28.5,121.72 30.772,121.944 C31.876,122.056 32.688,122.232 33.208,122.472 C33.728,122.712 33.988,123.096 33.988,123.624 C33.988,124.168 33.688,124.612 33.088,124.956 C32.488,125.3 31.796,125.472 31.012,125.472 C30.516,125.472 30.04,125.4 29.584,125.256 C29.128,125.112 28.744,124.912 28.432,124.656 C28.12,124.4 27.98,124.052 28.012,123.612 C28.044,123.172 28.292,122.688 28.756,122.16 L28.756,122.16 L28.324,121.896 C27.364,122.392 26.852,123 26.788,123.72 C26.724,124.44 27.088,125.068 27.88,125.604 C28.672,126.14 29.716,126.408 31.012,126.408 Z M30.94,117.336 C30.38,117.336 29.948,117.108 29.644,116.652 C29.34,116.196 29.188,115.6 29.188,114.864 C29.188,114.128 29.34,113.528 29.644,113.064 C29.948,112.6 30.38,112.368 30.94,112.368 C31.5,112.368 31.928,112.6 32.224,113.064 C32.52,113.528 32.668,114.128 32.668,114.864 C32.668,115.6 32.516,116.2 32.212,116.664 C31.924,117.112 31.5,117.336 30.94,117.336 Z M42.1,120.408 C42.772,120.408 43.444,120.26 44.116,119.964 C44.788,119.668 45.34,119.288 45.772,118.824 L45.772,118.824 L45.34,118.296 C45.004,118.616 44.58,118.88 44.068,119.088 C43.556,119.296 43.1,119.4 42.7,119.4 C41.516,119.4 40.664,119.028 40.144,118.284 C39.624,117.54 39.436,116.576 39.58,115.392 L39.58,115.392 L45.364,115.392 C45.652,114.384 45.452,113.5 44.764,112.74 C44.076,111.98 43.188,111.6 42.1,111.6 C40.948,111.6 39.92,112.024 39.016,112.872 C38.112,113.72 37.66,114.76 37.66,115.992 C37.66,117.224 38.076,118.268 38.908,119.124 C39.74,119.98 40.804,120.408 42.1,120.408 Z M43.708,114.504 L39.724,114.504 C39.9,113.912 40.192,113.44 40.6,113.088 C41.008,112.736 41.468,112.56 41.98,112.56 C42.7,112.56 43.208,112.772 43.504,113.196 C43.8,113.62 43.868,114.056 43.708,114.504 L43.708,114.504 Z" id="Voltage" fill="#524740" fill-rule="nonzero" transform="translate(10.612000, 115.800000) rotate(-90.000000) translate(-10.612000, -115.800000) "></path>
                <path d="M55.652,21.488 C56.98,21.488 58.12,20.996 59.072,20.012 C60.024,19.028 60.5,17.848 60.5,16.472 C60.5,15.064 60.064,13.88 59.192,12.92 C58.32,11.96 57.212,11.48 55.868,11.48 C55.356,11.48 54.844,11.576 54.332,11.768 C53.82,11.96 53.436,12.216 53.18,12.536 L53.18,12.536 L53.54,8.288 L59.612,8.288 L60.212,4.784 L59.66,4.784 C59.484,5.504 59.236,5.988 58.916,6.236 C58.596,6.484 57.916,6.608 56.876,6.608 L56.876,6.608 L52.82,6.608 L52.076,14.84 L52.964,14.84 C53.204,13.272 54.1,12.488 55.652,12.488 C56.612,12.488 57.328,12.848 57.8,13.568 C58.272,14.288 58.508,15.256 58.508,16.472 C58.508,17.688 58.268,18.676 57.788,19.436 C57.308,20.196 56.596,20.576 55.652,20.576 C55.06,20.576 54.568,20.452 54.176,20.204 C53.784,19.956 53.524,19.688 53.396,19.4 C53.268,19.112 53.124,18.844 52.964,18.596 C52.804,18.348 52.62,18.224 52.412,18.224 C51.964,18.224 51.74,18.44 51.74,18.872 C51.74,19.432 52.104,20.008 52.832,20.6 C53.56,21.192 54.5,21.488 55.652,21.488 Z M69.572,17.408 L74.852,5.192 C75.252,4.264 75.592,3.684 75.872,3.452 C76.152,3.22 76.764,3.104 77.708,3.104 L77.708,3.104 L77.708,2.6 L72.116,2.6 L72.116,3.104 C73.108,3.104 73.744,3.244 74.024,3.524 C74.304,3.804 74.292,4.272 73.988,4.928 L73.988,4.928 L69.956,14.264 L65.876,4.928 C65.572,4.272 65.56,3.804 65.84,3.524 C66.12,3.244 66.756,3.104 67.748,3.104 L67.748,3.104 L67.748,2.6 L61.1,2.6 L61.1,3.104 C62.044,3.104 62.656,3.22 62.936,3.452 C63.216,3.684 63.556,4.264 63.956,5.192 L63.956,5.192 L69.26,17.408 L69.572,17.408 Z" id="5V" fill="#524740" fill-rule="nonzero"></path>
                <path d="M38.124,77.488 C39.468,77.488 40.6,77.096 41.52,76.312 C42.44,75.528 42.9,74.584 42.9,73.48 C42.9,72.552 42.564,71.736 41.892,71.032 C41.22,70.328 40.308,69.856 39.156,69.616 L39.156,69.616 L40.26,68.776 L40.5,68.632 C40.644,68.52 40.824,68.356 41.04,68.14 C41.256,67.924 41.472,67.688 41.688,67.432 C41.904,67.176 42.088,66.864 42.24,66.496 C42.392,66.128 42.468,65.768 42.468,65.416 C42.468,64.456 42.012,63.68 41.1,63.088 C40.188,62.496 39.116,62.2 37.884,62.2 C36.556,62.2 35.492,62.524 34.692,63.172 C33.892,63.82 33.528,64.572 33.6,65.428 C33.672,66.284 34.172,66.992 35.1,67.552 L35.1,67.552 L35.82,66.808 C35.244,65.816 35.236,64.968 35.796,64.264 C36.356,63.56 37.052,63.208 37.884,63.208 C38.668,63.208 39.3,63.408 39.78,63.808 C40.26,64.208 40.5,64.744 40.5,65.416 C40.5,66.008 40.352,66.58 40.056,67.132 C39.76,67.684 39.38,68.136 38.916,68.488 L38.916,68.488 L37.14,69.904 C36.724,70.208 36.516,70.504 36.516,70.792 C36.516,70.952 36.568,71.084 36.672,71.188 C36.776,71.292 36.892,71.344 37.02,71.344 C37.164,71.344 37.308,71.284 37.452,71.164 C37.596,71.044 37.752,70.884 37.92,70.684 C38.088,70.484 38.228,70.336 38.34,70.24 C39.172,70.416 39.784,70.808 40.176,71.416 C40.568,72.024 40.764,72.712 40.764,73.48 C40.764,74.408 40.528,75.156 40.056,75.724 C39.584,76.292 38.876,76.576 37.932,76.576 C36.956,76.576 36.172,76.264 35.58,75.64 C35.436,75.496 35.288,75.296 35.136,75.04 C34.984,74.784 34.848,74.584 34.728,74.44 C34.608,74.296 34.468,74.224 34.308,74.224 C33.892,74.224 33.684,74.408 33.684,74.776 C33.684,75.336 34.1,75.928 34.932,76.552 C35.764,77.176 36.828,77.488 38.124,77.488 Z M48.036,73.192 C48.404,73.192 48.724,73.068 48.996,72.82 C49.268,72.572 49.404,72.28 49.404,71.944 C49.404,71.592 49.268,71.292 48.996,71.044 C48.724,70.796 48.404,70.672 48.036,70.672 C47.668,70.672 47.356,70.796 47.1,71.044 C46.844,71.292 46.716,71.592 46.716,71.944 C46.716,72.28 46.844,72.572 47.1,72.82 C47.356,73.068 47.668,73.192 48.036,73.192 Z M57.828,77.488 C59.172,77.488 60.304,77.096 61.224,76.312 C62.144,75.528 62.604,74.584 62.604,73.48 C62.604,72.552 62.268,71.736 61.596,71.032 C60.924,70.328 60.012,69.856 58.86,69.616 L58.86,69.616 L59.964,68.776 L60.204,68.632 C60.348,68.52 60.528,68.356 60.744,68.14 C60.96,67.924 61.176,67.688 61.392,67.432 C61.608,67.176 61.792,66.864 61.944,66.496 C62.096,66.128 62.172,65.768 62.172,65.416 C62.172,64.456 61.716,63.68 60.804,63.088 C59.892,62.496 58.82,62.2 57.588,62.2 C56.26,62.2 55.196,62.524 54.396,63.172 C53.596,63.82 53.232,64.572 53.304,65.428 C53.376,66.284 53.876,66.992 54.804,67.552 L54.804,67.552 L55.524,66.808 C54.948,65.816 54.94,64.968 55.5,64.264 C56.06,63.56 56.756,63.208 57.588,63.208 C58.372,63.208 59.004,63.408 59.484,63.808 C59.964,64.208 60.204,64.744 60.204,65.416 C60.204,66.008 60.056,66.58 59.76,67.132 C59.464,67.684 59.084,68.136 58.62,68.488 L58.62,68.488 L56.844,69.904 C56.428,70.208 56.22,70.504 56.22,70.792 C56.22,70.952 56.272,71.084 56.376,71.188 C56.48,71.292 56.596,71.344 56.724,71.344 C56.868,71.344 57.012,71.284 57.156,71.164 C57.3,71.044 57.456,70.884 57.624,70.684 C57.792,70.484 57.932,70.336 58.044,70.24 C58.876,70.416 59.488,70.808 59.88,71.416 C60.272,72.024 60.468,72.712 60.468,73.48 C60.468,74.408 60.232,75.156 59.76,75.724 C59.288,76.292 58.58,76.576 57.636,76.576 C56.66,76.576 55.876,76.264 55.284,75.64 C55.14,75.496 54.992,75.296 54.84,75.04 C54.688,74.784 54.552,74.584 54.432,74.44 C54.312,74.296 54.172,74.224 54.012,74.224 C53.596,74.224 53.388,74.408 53.388,74.776 C53.388,75.336 53.804,75.928 54.636,76.552 C55.468,77.176 56.532,77.488 57.828,77.488 Z M71.604,73.408 L76.884,61.192 C77.284,60.264 77.624,59.684 77.904,59.452 C78.184,59.22 78.796,59.104 79.74,59.104 L79.74,59.104 L79.74,58.6 L74.148,58.6 L74.148,59.104 C75.14,59.104 75.776,59.244 76.056,59.524 C76.336,59.804 76.324,60.272 76.02,60.928 L76.02,60.928 L71.988,70.264 L67.908,60.928 C67.604,60.272 67.592,59.804 67.872,59.524 C68.152,59.244 68.788,59.104 69.78,59.104 L69.78,59.104 L69.78,58.6 L63.132,58.6 L63.132,59.104 C64.076,59.104 64.688,59.22 64.968,59.452 C65.248,59.684 65.588,60.264 65.988,61.192 L65.988,61.192 L71.292,73.408 L71.604,73.408 Z" id="3.3V" fill="#524740" fill-rule="nonzero"></path>
                <g id="Group-5" transform="translate(48.000000, 10.000000)">
                    <line x1="349" y1="181" x2="36" y2="181" id="Line-7-Copy-6" stroke="#524740" stroke-width="2" stroke-linecap="square"></line>
                    <line x1="52" y1="1" x2="37" y2="1" id="Line-7-Copy-7" stroke="#524740" stroke-width="2" stroke-linecap="square"></line>
                    <line x1="52" y1="57" x2="37" y2="57" id="Line-7-Copy-8" stroke="#524740" stroke-width="2" stroke-linecap="square"></line>
                    <path d="M8.096,187.408 C9.632,187.408 10.948,186.86 12.044,185.764 C13.14,184.668 13.688,183.344 13.688,181.792 C13.688,180.256 13.14,178.94 12.044,177.844 C10.948,176.748 9.632,176.2 8.096,176.2 C6.56,176.2 5.24,176.752 4.136,177.856 C3.048,178.944 2.504,180.256 2.504,181.792 C2.504,183.344 3.052,184.668 4.148,185.764 C5.244,186.86 6.56,187.408 8.096,187.408 Z M8.096,186.016 C6.976,186.016 6.02,185.604 5.228,184.78 C4.436,183.956 4.04,182.96 4.04,181.792 C4.04,180.64 4.436,179.648 5.228,178.816 C6.02,177.984 6.976,177.568 8.096,177.568 C9.2,177.568 10.152,177.984 10.952,178.816 C11.752,179.648 12.152,180.64 12.152,181.792 C12.152,182.96 11.752,183.956 10.952,184.78 C10.152,185.604 9.2,186.016 8.096,186.016 Z M22.76,187.408 L28.04,175.192 C28.44,174.264 28.78,173.684 29.06,173.452 C29.34,173.22 29.952,173.104 30.896,173.104 L30.896,173.104 L30.896,172.6 L25.304,172.6 L25.304,173.104 C26.296,173.104 26.932,173.244 27.212,173.524 C27.492,173.804 27.48,174.272 27.176,174.928 L27.176,174.928 L23.144,184.264 L19.064,174.928 C18.76,174.272 18.748,173.804 19.028,173.524 C19.308,173.244 19.944,173.104 20.936,173.104 L20.936,173.104 L20.936,172.6 L14.288,172.6 L14.288,173.104 C15.232,173.104 15.844,173.22 16.124,173.452 C16.404,173.684 16.744,174.264 17.144,175.192 L17.144,175.192 L22.448,187.408 L22.76,187.408 Z" id="0V" fill="#524740" fill-rule="nonzero"></path>
                </g>
                <path d="M100.746094,99.0195313 C115.962263,61.7532522 127.380232,37.6777042 135,26.7928875 C146.990342,9.66471901 159.054026,52 171,52 C182.969347,52 194.336965,9.59762915 206,26.7928875 C210.760945,33.8121307 215.944943,42.2640298 220.654846,52.1485848 C224.817878,60.8854356 231.017565,76.5090844 239.253906,99.0195313 C256.198814,140.164281 268.828194,166.391256 277.142045,177.700454 C288.561007,193.233485 298.846992,152 310,152 C321.36674,152 333.733481,192.932963 345.100221,176.798889 C353.07795,165.475214 365.044543,139.548762 381,99.0195313" id="Path-2" stroke="#23ABE3" stroke-width="2"></path>
            </g>
            <path d="M420.564,113.408 C420.66,112.96 420.892,112.584 421.26,112.28 C421.42,112.312 421.7,112.428 422.1,112.628 C422.5,112.828 422.948,113.008 423.444,113.168 C423.94,113.328 424.46,113.408 425.004,113.408 C426.284,113.408 427.368,113.008 428.256,112.208 C429.144,111.408 429.588,110.368 429.588,109.088 C429.588,107.504 428.748,106.288 427.068,105.44 L427.068,105.44 L424.788,104.264 C423.684,103.688 422.92,103.196 422.496,102.788 C422.072,102.38 421.86,101.88 421.86,101.288 C421.86,100.68 422.08,100.172 422.52,99.764 C422.96,99.356 423.516,99.152 424.188,99.152 C426.396,99.152 427.62,100.552 427.86,103.352 L427.86,103.352 L428.364,103.352 L428.364,98.072 L427.884,98.072 C427.788,98.504 427.556,98.872 427.188,99.176 C426.292,98.52 425.316,98.192 424.26,98.192 C423.108,98.192 422.156,98.536 421.404,99.224 C420.652,99.912 420.276,100.76 420.276,101.768 C420.276,102.632 420.532,103.408 421.044,104.096 C421.556,104.784 422.188,105.328 422.94,105.728 L422.94,105.728 L425.244,106.904 C427.084,107.864 428.004,108.832 428.004,109.808 C428.004,110.576 427.72,111.208 427.152,111.704 C426.584,112.2 425.868,112.448 425.004,112.448 C424.412,112.448 423.872,112.368 423.384,112.208 C422.896,112.048 422.504,111.848 422.208,111.608 C421.912,111.368 421.652,111.08 421.428,110.744 C421.204,110.408 421.04,110.104 420.936,109.832 C420.832,109.56 420.752,109.276 420.696,108.98 C420.64,108.684 420.608,108.484 420.6,108.38 C420.592,108.276 420.588,108.192 420.588,108.128 L420.588,108.128 L420.084,108.128 L420.084,113.408 L420.564,113.408 Z M435.612,102.248 C435.9,102.248 436.148,102.144 436.356,101.936 C436.564,101.728 436.668,101.472 436.668,101.168 C436.668,100.88 436.564,100.632 436.356,100.424 C436.148,100.216 435.9,100.112 435.612,100.112 C435.324,100.112 435.076,100.216 434.868,100.424 C434.66,100.632 434.556,100.88 434.556,101.168 C434.556,101.472 434.66,101.728 434.868,101.936 C435.076,102.144 435.324,102.248 435.612,102.248 Z M438.372,113 L438.372,112.496 C437.572,112.496 437.056,112.328 436.824,111.992 C436.592,111.656 436.476,110.888 436.476,109.688 L436.476,109.688 L436.476,104.6 L432.876,105.2 L432.876,105.704 C433.676,105.704 434.192,105.872 434.424,106.208 C434.656,106.544 434.772,107.304 434.772,108.488 L434.772,108.488 L434.772,109.688 C434.772,110.888 434.656,111.656 434.424,111.992 C434.192,112.328 433.676,112.496 432.876,112.496 L432.876,112.496 L432.876,113 L438.372,113 Z M444.684,119.408 C445.9,119.408 446.912,119.116 447.72,118.532 C448.528,117.948 448.932,117.168 448.932,116.192 C448.932,115.376 448.588,114.68 447.9,114.104 C447.212,113.528 446.1,113.176 444.564,113.048 C443.108,112.92 442.38,112.616 442.38,112.136 C442.38,111.672 443.276,111.336 445.068,111.128 C445.9,111.016 446.628,110.656 447.252,110.048 C447.876,109.44 448.188,108.712 448.188,107.864 C448.188,107.128 447.956,106.48 447.492,105.92 C447.748,105.664 447.996,105.536 448.236,105.536 C448.46,105.536 448.624,105.596 448.728,105.716 C448.832,105.836 448.896,105.964 448.92,106.1 C448.944,106.236 449.016,106.36 449.136,106.472 C449.256,106.584 449.436,106.632 449.676,106.616 C449.804,106.616 449.916,106.576 450.012,106.496 C450.3,106.272 450.372,105.936 450.228,105.488 C450.036,104.896 449.588,104.6 448.884,104.6 C448.612,104.6 448.296,104.688 447.936,104.864 C447.576,105.04 447.292,105.256 447.084,105.512 C446.396,104.904 445.572,104.6 444.612,104.6 C443.62,104.6 442.776,104.92 442.08,105.56 C441.384,106.2 441.036,106.968 441.036,107.864 C441.036,108.504 441.216,109.08 441.576,109.592 C441.936,110.104 442.428,110.504 443.052,110.792 C441.708,111.208 441.036,111.848 441.036,112.712 C441.036,113.976 442.172,114.72 444.444,114.944 C445.548,115.056 446.36,115.232 446.88,115.472 C447.4,115.712 447.66,116.096 447.66,116.624 C447.66,117.168 447.36,117.612 446.76,117.956 C446.16,118.3 445.468,118.472 444.684,118.472 C444.188,118.472 443.712,118.4 443.256,118.256 C442.8,118.112 442.416,117.912 442.104,117.656 C441.792,117.4 441.652,117.052 441.684,116.612 C441.716,116.172 441.964,115.688 442.428,115.16 L442.428,115.16 L441.996,114.896 C441.036,115.392 440.524,116 440.46,116.72 C440.396,117.44 440.76,118.068 441.552,118.604 C442.344,119.14 443.388,119.408 444.684,119.408 Z M444.612,110.336 C444.052,110.336 443.62,110.108 443.316,109.652 C443.012,109.196 442.86,108.6 442.86,107.864 C442.86,107.128 443.012,106.528 443.316,106.064 C443.62,105.6 444.052,105.368 444.612,105.368 C445.172,105.368 445.6,105.6 445.896,106.064 C446.192,106.528 446.34,107.128 446.34,107.864 C446.34,108.6 446.188,109.2 445.884,109.664 C445.596,110.112 445.172,110.336 444.612,110.336 Z M457.572,113 L457.572,112.496 C456.836,112.496 456.372,112.336 456.18,112.016 C455.988,111.696 455.892,110.92 455.892,109.688 L455.892,109.688 L455.892,108.128 C455.892,107.488 456.18,106.928 456.756,106.448 C457.332,105.968 457.964,105.728 458.652,105.728 C459.98,105.728 460.644,106.584 460.644,108.296 L460.644,108.296 L460.644,109.688 C460.644,110.872 460.524,111.636 460.284,111.98 C460.044,112.324 459.532,112.496 458.748,112.496 L458.748,112.496 L458.748,113 L464.244,113 L464.244,112.496 C463.444,112.496 462.928,112.328 462.696,111.992 C462.464,111.656 462.348,110.888 462.348,109.688 L462.348,109.688 L462.348,108.176 C462.348,107.104 462.088,106.24 461.568,105.584 C461.048,104.928 460.268,104.6 459.228,104.6 C457.916,104.6 456.804,105.176 455.892,106.328 C455.764,105.48 455.628,104.904 455.484,104.6 L455.484,104.6 L452.292,105.2 L452.292,105.704 C453.092,105.704 453.608,105.872 453.84,106.208 C454.072,106.544 454.188,107.304 454.188,108.488 L454.188,108.488 L454.188,109.688 C454.188,110.888 454.072,111.656 453.84,111.992 C453.608,112.328 453.092,112.496 452.292,112.496 L452.292,112.496 L452.292,113 L457.572,113 Z M468.972,113.312 C469.9,113.312 470.9,112.832 471.972,111.872 C472.1,112.8 472.644,113.264 473.604,113.264 C474.196,113.264 474.724,113.016 475.188,112.52 L475.188,112.52 L474.852,112.064 C474.612,112.304 474.388,112.424 474.18,112.424 C473.812,112.424 473.628,112.112 473.628,111.488 L473.628,111.488 L473.628,107.864 C473.628,106.712 473.372,105.88 472.86,105.368 C472.348,104.856 471.508,104.6 470.34,104.6 C469.54,104.6 468.832,104.78 468.216,105.14 C467.6,105.5 467.292,105.96 467.292,106.52 C467.292,106.76 467.372,106.96 467.532,107.12 C467.692,107.28 467.892,107.36 468.132,107.36 C468.356,107.36 468.548,107.28 468.708,107.12 C468.868,106.96 468.948,106.76 468.948,106.52 C468.948,106.168 469.096,105.888 469.392,105.68 C469.688,105.472 469.996,105.368 470.316,105.368 C470.972,105.368 471.404,105.552 471.612,105.92 C471.82,106.288 471.924,106.944 471.924,107.888 C468.516,108.48 466.812,109.616 466.812,111.296 C466.812,111.92 467.02,112.412 467.436,112.772 C467.852,113.132 468.364,113.312 468.972,113.312 Z M469.74,112.232 C469.42,112.232 469.152,112.12 468.936,111.896 C468.72,111.672 468.612,111.376 468.612,111.008 C468.612,109.936 469.716,109.144 471.924,108.632 L471.924,108.632 L471.924,111.08 C471.06,111.848 470.332,112.232 469.74,112.232 Z M482.724,113 L482.724,112.496 C481.924,112.496 481.408,112.328 481.176,111.992 C480.944,111.656 480.828,110.888 480.828,109.688 L480.828,109.688 L480.828,98.192 L477.228,98.792 L477.228,99.296 C478.028,99.296 478.544,99.464 478.776,99.8 C479.008,100.136 479.124,100.904 479.124,102.104 L479.124,102.104 L479.124,109.688 C479.124,110.888 479.008,111.656 478.776,111.992 C478.544,112.328 478.028,112.496 477.228,112.496 L477.228,112.496 L477.228,113 L482.724,113 Z M414.048,133 C416.704,133 418.704,132.328 420.048,130.984 C421.392,129.64 422.064,127.912 422.064,125.8 C422.064,123.688 421.392,121.96 420.048,120.616 C418.704,119.272 416.704,118.6 414.048,118.6 L414.048,118.6 L407.544,118.6 L407.544,119.104 C408.536,119.104 409.164,119.268 409.428,119.596 C409.692,119.924 409.824,120.688 409.824,121.888 L409.824,121.888 L409.824,129.688 C409.824,130.888 409.692,131.656 409.428,131.992 C409.164,132.328 408.536,132.496 407.544,132.496 L407.544,132.496 L407.544,133 L414.048,133 Z M414.072,132.112 L413.976,132.112 C413,132.112 412.384,131.952 412.128,131.632 C411.872,131.312 411.744,130.544 411.744,129.328 L411.744,129.328 L411.744,119.488 L414.072,119.488 C415.176,119.488 416.124,119.68 416.916,120.064 C417.708,120.448 418.3,120.964 418.692,121.612 C419.084,122.26 419.36,122.924 419.52,123.604 C419.68,124.284 419.76,125.016 419.76,125.8 C419.76,126.584 419.68,127.316 419.52,127.996 C419.36,128.676 419.084,129.34 418.692,129.988 C418.3,130.636 417.708,131.152 416.916,131.536 C416.124,131.92 415.176,132.112 414.072,132.112 L414.072,132.112 Z M428.592,122.248 C428.88,122.248 429.128,122.144 429.336,121.936 C429.544,121.728 429.648,121.472 429.648,121.168 C429.648,120.88 429.544,120.632 429.336,120.424 C429.128,120.216 428.88,120.112 428.592,120.112 C428.304,120.112 428.056,120.216 427.848,120.424 C427.64,120.632 427.536,120.88 427.536,121.168 C427.536,121.472 427.64,121.728 427.848,121.936 C428.056,122.144 428.304,122.248 428.592,122.248 Z M431.352,133 L431.352,132.496 C430.552,132.496 430.036,132.328 429.804,131.992 C429.572,131.656 429.456,130.888 429.456,129.688 L429.456,129.688 L429.456,124.6 L425.856,125.2 L425.856,125.704 C426.656,125.704 427.172,125.872 427.404,126.208 C427.636,126.544 427.752,127.304 427.752,128.488 L427.752,128.488 L427.752,129.688 C427.752,130.888 427.636,131.656 427.404,131.992 C427.172,132.328 426.656,132.496 425.856,132.496 L425.856,132.496 L425.856,133 L431.352,133 Z M437.832,133.432 L440.544,126.904 C440.768,126.376 441.004,126.008 441.252,125.8 C441.5,125.592 441.832,125.488 442.248,125.488 L442.248,125.488 L442.248,125.008 L438.888,125.008 L438.888,125.488 C439.4,125.488 439.704,125.596 439.8,125.812 C439.896,126.028 439.824,126.392 439.584,126.904 L439.584,126.904 L438,130.744 L436.296,126.904 C436.056,126.328 435.984,125.948 436.08,125.764 C436.176,125.58 436.496,125.488 437.04,125.488 L437.04,125.488 L437.04,125.008 L432.792,125.008 L432.792,125.488 C433.176,125.488 433.484,125.592 433.716,125.8 C433.948,126.008 434.184,126.376 434.424,126.904 L434.424,126.904 L437.352,133.432 L437.832,133.432 Z M446.808,122.248 C447.096,122.248 447.344,122.144 447.552,121.936 C447.76,121.728 447.864,121.472 447.864,121.168 C447.864,120.88 447.76,120.632 447.552,120.424 C447.344,120.216 447.096,120.112 446.808,120.112 C446.52,120.112 446.272,120.216 446.064,120.424 C445.856,120.632 445.752,120.88 445.752,121.168 C445.752,121.472 445.856,121.728 446.064,121.936 C446.272,122.144 446.52,122.248 446.808,122.248 Z M449.568,133 L449.568,132.496 C448.768,132.496 448.252,132.328 448.02,131.992 C447.788,131.656 447.672,130.888 447.672,129.688 L447.672,129.688 L447.672,124.6 L444.072,125.2 L444.072,125.704 C444.872,125.704 445.388,125.872 445.62,126.208 C445.852,126.544 445.968,127.304 445.968,128.488 L445.968,128.488 L445.968,129.688 C445.968,130.888 445.852,131.656 445.62,131.992 C445.388,132.328 444.872,132.496 444.072,132.496 L444.072,132.496 L444.072,133 L449.568,133 Z M452.88,133.408 C452.88,133.088 452.912,132.872 452.976,132.76 C453.04,132.648 453.152,132.62 453.312,132.676 C453.472,132.732 453.644,132.812 453.828,132.916 C454.012,133.02 454.256,133.128 454.56,133.24 C454.864,133.352 455.16,133.408 455.448,133.408 C456.248,133.408 456.924,133.164 457.476,132.676 C458.028,132.188 458.304,131.56 458.304,130.792 C458.304,129.88 457.752,129.112 456.648,128.488 L456.648,128.488 L455.496,127.864 C454.936,127.56 454.552,127.308 454.344,127.108 C454.136,126.908 454.032,126.672 454.032,126.4 C454.032,126.096 454.136,125.848 454.344,125.656 C454.552,125.464 454.856,125.368 455.256,125.368 C455.832,125.368 456.3,125.572 456.66,125.98 C457.02,126.388 457.2,126.856 457.2,127.384 L457.2,127.384 L457.704,127.384 L457.704,124.6 L457.2,124.6 C457.2,124.92 457.164,125.1 457.092,125.14 C457.02,125.18 456.888,125.144 456.696,125.032 C456.12,124.744 455.56,124.6 455.016,124.6 C454.376,124.6 453.812,124.808 453.324,125.224 C452.836,125.64 452.592,126.16 452.592,126.784 C452.592,127.808 453.12,128.608 454.176,129.184 L454.176,129.184 L455.52,129.904 C456.416,130.384 456.864,130.872 456.864,131.368 C456.864,131.704 456.732,131.992 456.468,132.232 C456.204,132.472 455.88,132.592 455.496,132.592 C454.712,132.592 454.08,132.3 453.6,131.716 C453.12,131.132 452.88,130.528 452.88,129.904 L452.88,129.904 L452.376,129.904 L452.376,133.408 L452.88,133.408 Z M464.232,122.248 C464.52,122.248 464.768,122.144 464.976,121.936 C465.184,121.728 465.288,121.472 465.288,121.168 C465.288,120.88 465.184,120.632 464.976,120.424 C464.768,120.216 464.52,120.112 464.232,120.112 C463.944,120.112 463.696,120.216 463.488,120.424 C463.28,120.632 463.176,120.88 463.176,121.168 C463.176,121.472 463.28,121.728 463.488,121.936 C463.696,122.144 463.944,122.248 464.232,122.248 Z M466.992,133 L466.992,132.496 C466.192,132.496 465.676,132.328 465.444,131.992 C465.212,131.656 465.096,130.888 465.096,129.688 L465.096,129.688 L465.096,124.6 L461.496,125.2 L461.496,125.704 C462.296,125.704 462.812,125.872 463.044,126.208 C463.276,126.544 463.392,127.304 463.392,128.488 L463.392,128.488 L463.392,129.688 C463.392,130.888 463.276,131.656 463.044,131.992 C462.812,132.328 462.296,132.496 461.496,132.496 L461.496,132.496 L461.496,133 L466.992,133 Z M474.648,133.408 C475.976,133.408 477.116,132.976 478.068,132.112 C479.02,131.248 479.496,130.208 479.496,128.992 C479.496,127.776 479.016,126.744 478.056,125.896 C477.112,125.032 475.976,124.6 474.648,124.6 C473.32,124.6 472.18,125.028 471.228,125.884 C470.276,126.74 469.8,127.776 469.8,128.992 C469.8,130.208 470.276,131.248 471.228,132.112 C472.18,132.976 473.32,133.408 474.648,133.408 Z M474.648,132.472 C473.704,132.472 472.984,132.144 472.488,131.488 C471.992,130.832 471.744,130 471.744,128.992 C471.744,127.984 471.992,127.152 472.488,126.496 C472.984,125.84 473.704,125.512 474.648,125.512 C475.592,125.512 476.312,125.836 476.808,126.484 C477.304,127.132 477.552,127.968 477.552,128.992 C477.552,130.016 477.304,130.856 476.808,131.512 C476.312,132.152 475.592,132.472 474.648,132.472 Z M488.04,133 L488.04,132.496 C487.304,132.496 486.84,132.336 486.648,132.016 C486.456,131.696 486.36,130.92 486.36,129.688 L486.36,129.688 L486.36,128.128 C486.36,127.488 486.648,126.928 487.224,126.448 C487.8,125.968 488.432,125.728 489.12,125.728 C490.448,125.728 491.112,126.584 491.112,128.296 L491.112,128.296 L491.112,129.688 C491.112,130.872 490.992,131.636 490.752,131.98 C490.512,132.324 490,132.496 489.216,132.496 L489.216,132.496 L489.216,133 L494.712,133 L494.712,132.496 C493.912,132.496 493.396,132.328 493.164,131.992 C492.932,131.656 492.816,130.888 492.816,129.688 L492.816,129.688 L492.816,128.176 C492.816,127.104 492.556,126.24 492.036,125.584 C491.516,124.928 490.736,124.6 489.696,124.6 C488.384,124.6 487.272,125.176 486.36,126.328 C486.232,125.48 486.096,124.904 485.952,124.6 L485.952,124.6 L482.76,125.2 L482.76,125.704 C483.56,125.704 484.076,125.872 484.308,126.208 C484.54,126.544 484.656,127.304 484.656,128.488 L484.656,128.488 L484.656,129.688 C484.656,130.888 484.54,131.656 484.308,131.992 C484.076,132.328 483.56,132.496 482.76,132.496 L482.76,132.496 L482.76,133 L488.04,133 Z" id="SignalDivision" fill="#B35E2C" fill-rule="nonzero"></path>
            <g id="Arrow" transform="translate(439.000000, 141.000000)">
                <line x1="15" y1="7" x2="0" y2="7" id="Line-7-Copy-8" stroke="#23ABE3" stroke-width="2" stroke-linecap="square"></line>
                <polygon id="Triangle-2" fill="#23ABE3" points="30 7 14 14 14 0"></polygon>
            </g>
        </g>
    </g>
</svg>