<?xml version="1.0" encoding="UTF-8"?>
<svg width="900px" height="340px" viewBox="0 0 900 340" version="1.1" xmlns="http://www.w3.org/2000/svg" xmlns:xlink="http://www.w3.org/1999/xlink">
    <!-- Generator: Sketch 60.1 (88133) - https://sketch.com -->
    <title>Current_Law_Parallel_Circuit</title>
    <desc>Created with Sketch.</desc>
    <g id="Current_Law_Parallel_Circuit" stroke="none" stroke-width="1" fill="none" fill-rule="evenodd">
        <g id="Illustration_Frame">
            <rect id="Rectangle" stroke="#3D3530" stroke-width="2" fill="#EEEEEE" x="1" y="1" width="898" height="338"></rect>
            <rect id="Rectangle-Copy" stroke="#3D3530" stroke-width="2" fill="#F8FAE4" x="1" y="296" width="898" height="43"></rect>
            <path d="M584.746666,325 L584.746666,318.904 L588.634666,318.904 C590.442666,318.904 591.882666,318.424 592.954666,317.464 C594.026666,316.504 594.562666,315.312 594.562666,313.888 C594.562666,312.448 594.026666,311.252 592.954666,310.3 C591.882666,309.348 590.442666,308.872 588.634666,308.872 L588.634666,308.872 L583.162666,308.872 L583.162666,325 L584.746666,325 Z M588.634666,317.392 L584.746666,317.392 L584.746666,310.384 L588.634666,310.384 C589.930666,310.384 590.970666,310.72 591.754666,311.392 C592.538666,312.064 592.930666,312.896 592.930666,313.888 C592.930666,314.896 592.538666,315.732 591.754666,316.396 C590.970666,317.06 589.930666,317.392 588.634666,317.392 L588.634666,317.392 Z M602.597332,325.192 C604.485332,325.192 606.045332,324.48 607.277332,323.056 L607.277332,323.056 L607.277332,325 L608.861332,325 L608.861332,313 L607.277332,313 L607.277332,314.944 C606.061332,313.52 604.501332,312.808 602.597332,312.808 C600.885332,312.808 599.425332,313.412 598.217332,314.62 C597.009332,315.828 596.405332,317.288 596.405332,319 C596.405332,320.712 597.009332,322.172 598.217332,323.38 C599.425332,324.588 600.885332,325.192 602.597332,325.192 Z M602.621332,323.68 C601.341332,323.68 600.249332,323.228 599.345332,322.324 C598.441332,321.42 597.989332,320.312 597.989332,319 C597.989332,317.688 598.441332,316.58 599.345332,315.676 C600.249332,314.772 601.341332,314.32 602.621332,314.32 C603.917332,314.32 605.009332,314.772 605.897332,315.676 C606.785332,316.58 607.229332,317.688 607.229332,319 C607.229332,320.312 606.785332,321.42 605.897332,322.324 C605.009332,323.228 603.917332,323.68 602.621332,323.68 Z M614.351999,325 L614.351999,317.968 C614.351999,316.928 614.695999,316.052 615.383999,315.34 C616.071999,314.628 616.919999,314.272 617.927999,314.272 C618.615999,314.272 619.295999,314.52 619.967999,315.016 L619.967999,315.016 L620.519999,313.432 C619.815999,313.016 619.039999,312.808 618.191999,312.808 C616.607999,312.808 615.327999,313.464 614.351999,314.776 L614.351999,314.776 L614.351999,313 L612.767999,313 L612.767999,325 L614.351999,325 Z M627.834666,325.192 C629.722666,325.192 631.282666,324.48 632.514666,323.056 L632.514666,323.056 L632.514666,325 L634.098666,325 L634.098666,313 L632.514666,313 L632.514666,314.944 C631.298666,313.52 629.738666,312.808 627.834666,312.808 C626.122666,312.808 624.662666,313.412 623.454666,314.62 C622.246666,315.828 621.642666,317.288 621.642666,319 C621.642666,320.712 622.246666,322.172 623.454666,323.38 C624.662666,324.588 626.122666,325.192 627.834666,325.192 Z M627.858666,323.68 C626.578666,323.68 625.486666,323.228 624.582666,322.324 C623.678666,321.42 623.226666,320.312 623.226666,319 C623.226666,317.688 623.678666,316.58 624.582666,315.676 C625.486666,314.772 626.578666,314.32 627.858666,314.32 C629.154666,314.32 630.246666,314.772 631.134666,315.676 C632.022666,316.58 632.466666,317.688 632.466666,319 C632.466666,320.312 632.022666,321.42 631.134666,322.324 C630.246666,323.228 629.154666,323.68 627.858666,323.68 Z M639.733333,325 L639.733333,307.144 L638.149333,307.144 L638.149333,325 L639.733333,325 Z M645.319999,325 L645.319999,307.144 L643.735999,307.144 L643.735999,325 L645.319999,325 Z M654.746666,325.072 C656.218666,325.088 657.486666,324.672 658.550666,323.824 C659.614666,322.976 660.330666,322.048 660.698666,321.04 L660.698666,321.04 L659.354666,320.56 C659.050666,321.376 658.474666,322.088 657.626666,322.696 C656.778666,323.304 655.818666,323.608 654.746666,323.608 C653.754666,323.624 652.850666,323.324 652.034666,322.708 C651.218666,322.092 650.674666,321.304 650.402666,320.344 L650.402666,320.344 L660.890666,318.448 C660.890666,318.32 660.882666,318.216 660.866666,318.136 C660.690666,316.6 660.018666,315.312 658.850666,314.272 C657.682666,313.232 656.314666,312.704 654.746666,312.688 C653.018666,312.704 651.554666,313.312 650.354666,314.512 C649.154666,315.712 648.554666,317.176 648.554666,318.904 C648.554666,319.528 648.634666,320.104 648.794666,320.632 C649.194666,321.928 649.950666,322.992 651.062666,323.824 C652.174666,324.656 653.402666,325.072 654.746666,325.072 Z M650.162666,319.048 C650.162666,318.968 650.158666,318.868 650.150666,318.748 C650.142666,318.628 650.138666,318.544 650.138666,318.496 C650.202666,317.312 650.662666,316.296 651.518666,315.448 C652.374666,314.6 653.402666,314.168 654.602666,314.152 C655.626666,314.136 656.554666,314.436 657.386666,315.052 C658.218666,315.668 658.786666,316.464 659.090666,317.44 L659.090666,317.44 L650.162666,319.048 Z M665.973333,325 L665.973333,307.144 L664.389333,307.144 L664.389333,325 L665.973333,325 Z M682.786666,325 C684.594666,325 686.034666,324.58 687.106666,323.74 C688.178666,322.9 688.714666,321.848 688.714666,320.584 C688.714666,319.784 688.478666,319.064 688.006666,318.424 C687.534666,317.784 686.874666,317.288 686.026666,316.936 C686.874666,316.584 687.534666,316.088 688.006666,315.448 C688.478666,314.808 688.714666,314.096 688.714666,313.312 C688.714666,312.048 688.178666,310.992 687.106666,310.144 C686.034666,309.296 684.594666,308.872 682.786666,308.872 L682.786666,308.872 L677.314666,308.872 L677.314666,325 L682.786666,325 Z M682.786666,316.264 L678.898666,316.264 L678.898666,310.384 L682.786666,310.384 C684.082666,310.384 685.122666,310.664 685.906666,311.224 C686.690666,311.784 687.082666,312.488 687.082666,313.336 C687.082666,314.168 686.690666,314.864 685.906666,315.424 C685.122666,315.984 684.082666,316.264 682.786666,316.264 L682.786666,316.264 Z M682.786666,323.488 L678.898666,323.488 L678.898666,317.608 L682.786666,317.608 C684.082666,317.608 685.122666,317.888 685.906666,318.448 C686.690666,319.008 687.082666,319.704 687.082666,320.536 C687.082666,321.384 686.690666,322.088 685.906666,322.648 C685.122666,323.208 684.082666,323.488 682.786666,323.488 L682.786666,323.488 Z M694.229333,325 L694.229333,317.968 C694.229333,316.928 694.573333,316.052 695.261333,315.34 C695.949333,314.628 696.797333,314.272 697.805333,314.272 C698.493333,314.272 699.173333,314.52 699.845333,315.016 L699.845333,315.016 L700.397333,313.432 C699.693333,313.016 698.917333,312.808 698.069333,312.808 C696.485333,312.808 695.205333,313.464 694.229333,314.776 L694.229333,314.776 L694.229333,313 L692.645333,313 L692.645333,325 L694.229333,325 Z M707.711999,325.192 C709.599999,325.192 711.159999,324.48 712.391999,323.056 L712.391999,323.056 L712.391999,325 L713.975999,325 L713.975999,313 L712.391999,313 L712.391999,314.944 C711.175999,313.52 709.615999,312.808 707.711999,312.808 C705.999999,312.808 704.539999,313.412 703.331999,314.62 C702.123999,315.828 701.519999,317.288 701.519999,319 C701.519999,320.712 702.123999,322.172 703.331999,323.38 C704.539999,324.588 705.999999,325.192 707.711999,325.192 Z M707.735999,323.68 C706.455999,323.68 705.363999,323.228 704.459999,322.324 C703.555999,321.42 703.103999,320.312 703.103999,319 C703.103999,317.688 703.555999,316.58 704.459999,315.676 C705.363999,314.772 706.455999,314.32 707.735999,314.32 C709.031999,314.32 710.123999,314.772 711.011999,315.676 C711.899999,316.58 712.343999,317.688 712.343999,319 C712.343999,320.312 711.899999,321.42 711.011999,322.324 C710.123999,323.228 709.031999,323.68 707.735999,323.68 Z M719.466666,325 L719.466666,317.968 C719.466666,316.944 719.814666,316.072 720.510666,315.352 C721.206666,314.632 722.050666,314.272 723.042666,314.272 C724.034666,314.272 724.878666,314.632 725.574666,315.352 C726.270666,316.072 726.618666,316.944 726.618666,317.968 L726.618666,317.968 L726.618666,325 L728.226666,325 L728.226666,317.92 C728.226666,316.48 727.754666,315.268 726.810666,314.284 C725.866666,313.3 724.698666,312.808 723.306666,312.808 C721.722666,312.808 720.442666,313.464 719.466666,314.776 L719.466666,314.776 L719.466666,313 L717.882666,313 L717.882666,325 L719.466666,325 Z M737.341333,325.192 C738.429333,325.192 739.441333,324.924 740.377333,324.388 C741.313333,323.852 742.053333,323.136 742.597333,322.24 L742.597333,322.24 L741.157333,321.544 C740.725333,322.2 740.173333,322.72 739.501333,323.104 C738.829333,323.488 738.109333,323.68 737.341333,323.68 C736.045333,323.68 734.953333,323.228 734.065333,322.324 C733.177333,321.42 732.733333,320.312 732.733333,319 C732.733333,317.688 733.177333,316.58 734.065333,315.676 C734.953333,314.772 736.045333,314.32 737.341333,314.32 C738.109333,314.32 738.829333,314.512 739.501333,314.896 C740.173333,315.28 740.725333,315.8 741.157333,316.456 L741.157333,316.456 L742.597333,315.76 C742.053333,314.864 741.313333,314.148 740.377333,313.612 C739.441333,313.076 738.429333,312.808 737.341333,312.808 C735.629333,312.808 734.169333,313.412 732.961333,314.62 C731.753333,315.828 731.149333,317.288 731.149333,319 C731.149333,320.712 731.753333,322.172 732.961333,323.38 C734.169333,324.588 735.629333,325.192 737.341333,325.192 Z M747.656,325 L747.656,317.968 C747.656,316.944 748.004,316.076 748.7,315.364 C749.396,314.652 750.24,314.296 751.232,314.296 C752.24,314.296 753.088,314.652 753.776,315.364 C754.464,316.076 754.808,316.952 754.808,317.992 L754.808,317.992 L754.808,325 L756.416,325 L756.416,317.968 C756.416,316.528 755.944,315.308 755,314.308 C754.056,313.308 752.888,312.808 751.496,312.808 C749.912,312.808 748.632,313.464 747.656,314.776 L747.656,314.776 L747.656,307.144 L746.072,307.144 L746.072,325 L747.656,325 Z M761.354666,309.688 C761.626666,309.688 761.850666,309.592 762.026666,309.4 C762.218666,309.208 762.314666,308.984 762.314666,308.728 C762.314666,308.472 762.222666,308.248 762.038666,308.056 C761.854666,307.864 761.626666,307.768 761.354666,307.768 C761.082666,307.768 760.854666,307.864 760.670666,308.056 C760.486666,308.248 760.394666,308.472 760.394666,308.728 C760.394666,308.984 760.486666,309.208 760.670666,309.4 C760.854666,309.592 761.082666,309.688 761.354666,309.688 Z M762.146666,325 L762.146666,313 L760.562666,313 L760.562666,325 L762.146666,325 Z M768.069333,325 L768.069333,317.968 C768.069333,316.944 768.417333,316.072 769.113333,315.352 C769.809333,314.632 770.653333,314.272 771.645333,314.272 C772.637333,314.272 773.481333,314.632 774.177333,315.352 C774.873333,316.072 775.221333,316.944 775.221333,317.968 L775.221333,317.968 L775.221333,325 L776.829333,325 L776.829333,317.92 C776.829333,316.48 776.357333,315.268 775.413333,314.284 C774.469333,313.3 773.301333,312.808 771.909333,312.808 C770.325333,312.808 769.045333,313.464 768.069333,314.776 L768.069333,314.776 L768.069333,313 L766.485333,313 L766.485333,325 L768.069333,325 Z M786.184,330.112 C787.816,330.112 789.252,329.524 790.492,328.348 C791.732,327.172 792.36,325.712 792.376,323.968 L792.376,323.968 L792.376,313.024 L790.768,313.024 L790.768,314.968 C789.536,313.544 787.976,312.832 786.088,312.832 C784.376,312.832 782.916,313.436 781.708,314.644 C780.5,315.852 779.896,317.312 779.896,319.024 C779.896,320.736 780.5,322.196 781.708,323.404 C782.916,324.612 784.376,325.216 786.088,325.216 C787.992,325.216 789.552,324.504 790.768,323.08 L790.768,323.08 L790.768,323.968 L790.792,323.968 C790.776,325.216 790.324,326.308 789.436,327.244 C788.548,328.18 787.464,328.648 786.184,328.648 C785.096,328.648 784.128,328.344 783.28,327.736 C782.432,327.128 781.856,326.416 781.552,325.6 L781.552,325.6 L780.256,326.248 C780.624,327.24 781.332,328.132 782.38,328.924 C783.428,329.716 784.696,330.112 786.184,330.112 Z M786.112,323.728 C784.832,323.728 783.744,323.276 782.848,322.372 C781.952,321.468 781.504,320.36 781.504,319.048 C781.504,317.736 781.952,316.628 782.848,315.724 C783.744,314.82 784.832,314.368 786.112,314.368 C787.408,314.368 788.5,314.82 789.388,315.724 C790.276,316.628 790.72,317.736 790.72,319.048 C790.72,320.36 790.276,321.468 789.388,322.372 C788.5,323.276 787.408,323.728 786.112,323.728 Z M810.869333,325.192 C812.437333,325.192 813.801333,324.836 814.961333,324.124 C816.121333,323.412 817.021333,322.432 817.661333,321.184 L817.661333,321.184 L816.173333,320.296 C815.677333,321.336 814.969333,322.164 814.049333,322.78 C813.129333,323.396 812.069333,323.704 810.869333,323.704 C809.045333,323.704 807.585333,323.064 806.489333,321.784 C805.393333,320.504 804.845333,318.896 804.845333,316.96 C804.845333,315.008 805.393333,313.396 806.489333,312.124 C807.585333,310.852 809.045333,310.216 810.869333,310.216 C812.053333,310.216 813.105333,310.52 814.025333,311.128 C814.945333,311.736 815.661333,312.56 816.173333,313.6 L816.173333,313.6 L817.661333,312.736 C817.021333,311.488 816.121333,310.504 814.961333,309.784 C813.801333,309.064 812.437333,308.704 810.869333,308.704 C808.501333,308.704 806.613333,309.492 805.205333,311.068 C803.797333,312.644 803.093333,314.608 803.093333,316.96 C803.093333,319.296 803.797333,321.252 805.205333,322.828 C806.613333,324.404 808.501333,325.192 810.869333,325.192 Z M822.168,309.688 C822.44,309.688 822.664,309.592 822.84,309.4 C823.032,309.208 823.128,308.984 823.128,308.728 C823.128,308.472 823.036,308.248 822.852,308.056 C822.668,307.864 822.44,307.768 822.168,307.768 C821.896,307.768 821.668,307.864 821.484,308.056 C821.3,308.248 821.208,308.472 821.208,308.728 C821.208,308.984 821.3,309.208 821.484,309.4 C821.668,309.592 821.896,309.688 822.168,309.688 Z M822.96,325 L822.96,313 L821.376,313 L821.376,325 L822.96,325 Z M828.882666,325 L828.882666,317.968 C828.882666,316.928 829.226666,316.052 829.914666,315.34 C830.602666,314.628 831.450666,314.272 832.458666,314.272 C833.146666,314.272 833.826666,314.52 834.498666,315.016 L834.498666,315.016 L835.050666,313.432 C834.346666,313.016 833.570666,312.808 832.722666,312.808 C831.138666,312.808 829.858666,313.464 828.882666,314.776 L828.882666,314.776 L828.882666,313 L827.298666,313 L827.298666,325 L828.882666,325 Z M842.365333,325.192 C843.453333,325.192 844.465333,324.924 845.401333,324.388 C846.337333,323.852 847.077333,323.136 847.621333,322.24 L847.621333,322.24 L846.181333,321.544 C845.749333,322.2 845.197333,322.72 844.525333,323.104 C843.853333,323.488 843.133333,323.68 842.365333,323.68 C841.069333,323.68 839.977333,323.228 839.089333,322.324 C838.201333,321.42 837.757333,320.312 837.757333,319 C837.757333,317.688 838.201333,316.58 839.089333,315.676 C839.977333,314.772 841.069333,314.32 842.365333,314.32 C843.133333,314.32 843.853333,314.512 844.525333,314.896 C845.197333,315.28 845.749333,315.8 846.181333,316.456 L846.181333,316.456 L847.621333,315.76 C847.077333,314.864 846.337333,314.148 845.401333,313.612 C844.465333,313.076 843.453333,312.808 842.365333,312.808 C840.653333,312.808 839.193333,313.412 837.985333,314.62 C836.777333,315.828 836.173333,317.288 836.173333,319 C836.173333,320.712 836.777333,322.172 837.985333,323.38 C839.193333,324.588 840.653333,325.192 842.365333,325.192 Z M855.824,325.192 C857.408,325.192 858.688,324.536 859.664,323.224 L859.664,323.224 L859.664,325 L861.248,325 L861.248,313 L859.664,313 L859.664,320.032 C859.664,321.056 859.32,321.924 858.632,322.636 C857.944,323.348 857.096,323.704 856.088,323.704 C855.096,323.704 854.256,323.348 853.568,322.636 C852.88,321.924 852.536,321.056 852.536,320.032 L852.536,320.032 L852.536,313 L850.904,313 L850.904,320.08 C850.904,321.52 851.376,322.732 852.32,323.716 C853.264,324.7 854.432,325.192 855.824,325.192 Z M866.378667,309.688 C866.650667,309.688 866.874667,309.592 867.050667,309.4 C867.242667,309.208 867.338667,308.984 867.338667,308.728 C867.338667,308.472 867.246667,308.248 867.062667,308.056 C866.878667,307.864 866.650667,307.768 866.378667,307.768 C866.106667,307.768 865.878667,307.864 865.694667,308.056 C865.510667,308.248 865.418667,308.472 865.418667,308.728 C865.418667,308.984 865.510667,309.208 865.694667,309.4 C865.878667,309.592 866.106667,309.688 866.378667,309.688 Z M867.170667,325 L867.170667,313 L865.586667,313 L865.586667,325 L867.170667,325 Z M875.253333,325.192 C875.845333,325.192 876.421333,325.036 876.981333,324.724 C877.541333,324.412 877.901333,324.168 878.061333,323.992 C878.221333,323.816 878.349333,323.664 878.445333,323.536 L878.445333,323.536 L877.653333,322.312 C877.653333,322.376 877.569333,322.516 877.401333,322.732 C877.233333,322.948 876.973333,323.168 876.621333,323.392 C876.269333,323.616 875.909333,323.728 875.541333,323.728 C874.949333,323.728 874.425333,323.512 873.969333,323.08 C873.513333,322.648 873.285333,322.064 873.285333,321.328 L873.285333,321.328 L873.285333,314.44 L876.909333,314.44 L876.909333,312.976 L873.285333,312.976 L873.285333,308.992 L871.701333,309.184 L871.701333,312.976 L869.781333,312.976 L869.781333,314.44 L871.701333,314.44 L871.701333,321.688 C871.701333,322.824 872.041333,323.692 872.721333,324.292 C873.401333,324.892 874.245333,325.192 875.253333,325.192 Z" id="ParallelBranchingCircuit" fill="#23ABE3" fill-rule="nonzero"></path>
        </g>
        <g transform="translate(295.000000, 14.000000)">
            <polyline id="Path-2" stroke="#524740" stroke-width="2" transform="translate(96.000000, 191.000000) rotate(90.000000) translate(-96.000000, -191.000000) " points="67 135 125 135 125 247 72 247"></polyline>
            <polyline id="Path-2-Copy-3" stroke="#524740" stroke-width="2" transform="translate(96.000000, 64.000000) scale(1, -1) rotate(90.000000) translate(-96.000000, -64.000000) " points="67 8 125 8 125 120 72 120"></polyline>
            <polyline id="Path-2-Copy-2" stroke="#524740" stroke-width="2" transform="translate(208.000000, 63.500000) scale(-1, 1) rotate(-90.000000) translate(-208.000000, -63.500000) " points="178.5 7.5 237.5 7.5 237.5 119.5 178.5 119.5"></polyline>
            <polyline id="Resistor" stroke="#524740" stroke-width="2" stroke-linejoin="bevel" transform="translate(152.000000, 128.000000) rotate(90.000000) translate(-152.000000, -128.000000) " points="117 128 122 128 127 115 137 141 147 115 157 141 167 115 177 141 182 128 187 128"></polyline>
            <polyline id="Path-2-Copy" stroke="#524740" stroke-width="2" transform="translate(208.000000, 191.000000) rotate(90.000000) translate(-208.000000, -191.000000) " points="179 135 237 135 237 247 184 247"></polyline>
            <path d="M291.439078,133 L291.439078,132.496 C290.431078,132.496 289.795078,132.332 289.531078,132.004 C289.267078,131.676 289.135078,130.904 289.135078,129.688 L289.135078,129.688 L289.135078,125.896 C289.135078,124.68 289.267078,123.908 289.531078,123.58 C289.795078,123.252 290.431078,123.088 291.439078,123.088 L291.439078,123.088 L291.439078,122.608 L285.127078,122.608 L285.127078,123.088 C286.119078,123.088 286.751078,123.256 287.023078,123.592 C287.295078,123.928 287.431078,124.696 287.431078,125.896 L287.431078,125.896 L287.431078,129.688 C287.431078,130.888 287.295078,131.656 287.023078,131.992 C286.751078,132.328 286.119078,132.496 285.127078,132.496 L285.127078,132.496 L285.127078,133 L291.439078,133 Z M296.335078,133.192 C296.703078,133.192 297.023078,133.068 297.295078,132.82 C297.567078,132.572 297.703078,132.28 297.703078,131.944 C297.703078,131.592 297.567078,131.292 297.295078,131.044 C297.023078,130.796 296.703078,130.672 296.335078,130.672 C295.967078,130.672 295.655078,130.796 295.399078,131.044 C295.143078,131.292 295.015078,131.592 295.015078,131.944 C295.015078,132.28 295.143078,132.572 295.399078,132.82 C295.655078,133.068 295.967078,133.192 296.335078,133.192 Z M305.623078,137.488 C306.951078,137.488 308.091078,136.996 309.043078,136.012 C309.995078,135.028 310.471078,133.848 310.471078,132.472 C310.471078,131.064 310.035078,129.88 309.163078,128.92 C308.291078,127.96 307.183078,127.48 305.839078,127.48 C305.327078,127.48 304.815078,127.576 304.303078,127.768 C303.791078,127.96 303.407078,128.216 303.151078,128.536 L303.151078,128.536 L303.511078,124.288 L309.583078,124.288 L310.183078,120.784 L309.631078,120.784 C309.455078,121.504 309.207078,121.988 308.887078,122.236 C308.567078,122.484 307.887078,122.608 306.847078,122.608 L306.847078,122.608 L302.791078,122.608 L302.047078,130.84 L302.935078,130.84 C303.175078,129.272 304.071078,128.488 305.623078,128.488 C306.583078,128.488 307.299078,128.848 307.771078,129.568 C308.243078,130.288 308.479078,131.256 308.479078,132.472 C308.479078,133.688 308.239078,134.676 307.759078,135.436 C307.279078,136.196 306.567078,136.576 305.623078,136.576 C305.031078,136.576 304.539078,136.452 304.147078,136.204 C303.755078,135.956 303.495078,135.688 303.367078,135.4 C303.239078,135.112 303.095078,134.844 302.935078,134.596 C302.775078,134.348 302.591078,134.224 302.383078,134.224 C301.935078,134.224 301.711078,134.44 301.711078,134.872 C301.711078,135.432 302.075078,136.008 302.803078,136.6 C303.531078,137.192 304.471078,137.488 305.623078,137.488 Z M320.010422,133 L320.010422,131.195312 C318.682297,130.296875 317.686203,129.201172 317.022141,127.908203 C316.358078,126.615234 316.026047,125.121094 316.026047,123.425781 C316.026047,121.425781 316.514328,119.859375 317.490891,118.726562 C318.467453,117.59375 319.811203,117.027344 321.522141,117.027344 C323.240891,117.027344 324.586594,117.59375 325.55925,118.726562 C326.531906,119.859375 327.018234,121.421875 327.018234,123.414062 C327.018234,125.117188 326.686203,126.617188 326.022141,127.914062 C325.358078,129.210938 324.365891,130.304688 323.045578,131.195312 L323.045578,131.195312 L323.045578,133 L330.194016,133 L330.194016,131.195312 L325.424484,131.195312 C326.822922,130.148438 327.87175,128.962891 328.570969,127.638672 C329.270188,126.314453 329.619797,124.851562 329.619797,123.25 C329.619797,120.898438 328.861984,118.972656 327.346359,117.472656 C325.830734,115.972656 323.889328,115.222656 321.522141,115.222656 C319.154953,115.222656 317.213547,115.974609 315.697922,117.478516 C314.182297,118.982422 313.424484,120.90625 313.424484,123.25 C313.424484,124.84375 313.774094,126.302734 314.473313,127.626953 C315.172531,128.951172 316.221359,130.140625 317.619797,131.195312 L317.619797,131.195312 L312.850266,131.195312 L312.850266,133 L320.010422,133 Z" id="1.5Ω" fill="#524740" fill-rule="nonzero"></path>
            <path d="M180.007078,133 L180.007078,132.496 C178.999078,132.496 178.363078,132.332 178.099078,132.004 C177.835078,131.676 177.703078,130.904 177.703078,129.688 L177.703078,129.688 L177.703078,125.896 C177.703078,124.68 177.835078,123.908 178.099078,123.58 C178.363078,123.252 178.999078,123.088 180.007078,123.088 L180.007078,123.088 L180.007078,122.608 L173.695078,122.608 L173.695078,123.088 C174.687078,123.088 175.319078,123.256 175.591078,123.592 C175.863078,123.928 175.999078,124.696 175.999078,125.896 L175.999078,125.896 L175.999078,129.688 C175.999078,130.888 175.863078,131.656 175.591078,131.992 C175.319078,132.328 174.687078,132.496 173.695078,132.496 L173.695078,132.496 L173.695078,133 L180.007078,133 Z M188.311078,133.408 C189.847078,133.408 191.163078,132.86 192.259078,131.764 C193.355078,130.668 193.903078,129.344 193.903078,127.792 C193.903078,126.256 193.355078,124.94 192.259078,123.844 C191.163078,122.748 189.847078,122.2 188.311078,122.2 C186.775078,122.2 185.455078,122.752 184.351078,123.856 C183.263078,124.944 182.719078,126.256 182.719078,127.792 C182.719078,129.344 183.267078,130.668 184.363078,131.764 C185.459078,132.86 186.775078,133.408 188.311078,133.408 Z M188.311078,132.016 C187.191078,132.016 186.235078,131.604 185.443078,130.78 C184.651078,129.956 184.255078,128.96 184.255078,127.792 C184.255078,126.64 184.651078,125.648 185.443078,124.816 C186.235078,123.984 187.191078,123.568 188.311078,123.568 C189.415078,123.568 190.367078,123.984 191.167078,124.816 C191.967078,125.648 192.367078,126.64 192.367078,127.792 C192.367078,128.96 191.967078,129.956 191.167078,130.78 C190.367078,131.604 189.415078,132.016 188.311078,132.016 Z M203.442422,133 L203.442422,131.195312 C202.114297,130.296875 201.118203,129.201172 200.454141,127.908203 C199.790078,126.615234 199.458047,125.121094 199.458047,123.425781 C199.458047,121.425781 199.946328,119.859375 200.922891,118.726562 C201.899453,117.59375 203.243203,117.027344 204.954141,117.027344 C206.672891,117.027344 208.018594,117.59375 208.99125,118.726562 C209.963906,119.859375 210.450234,121.421875 210.450234,123.414062 C210.450234,125.117188 210.118203,126.617188 209.454141,127.914062 C208.790078,129.210938 207.797891,130.304688 206.477578,131.195312 L206.477578,131.195312 L206.477578,133 L213.626016,133 L213.626016,131.195312 L208.856484,131.195312 C210.254922,130.148438 211.30375,128.962891 212.002969,127.638672 C212.702188,126.314453 213.051797,124.851562 213.051797,123.25 C213.051797,120.898438 212.293984,118.972656 210.778359,117.472656 C209.262734,115.972656 207.321328,115.222656 204.954141,115.222656 C202.586953,115.222656 200.645547,115.974609 199.129922,117.478516 C197.614297,118.982422 196.856484,120.90625 196.856484,123.25 C196.856484,124.84375 197.206094,126.302734 197.905313,127.626953 C198.604531,128.951172 199.653359,130.140625 201.051797,131.195312 L201.051797,131.195312 L196.282266,131.195312 L196.282266,133 L203.442422,133 Z" id="10Ω" fill="#524740" fill-rule="nonzero"></path>
            <path d="M31.012,133 L31.012,132.496 C30.004,132.496 29.368,132.332 29.104,132.004 C28.84,131.676 28.708,130.904 28.708,129.688 L28.708,129.688 L28.708,125.896 C28.708,124.68 28.84,123.908 29.104,123.58 C29.368,123.252 30.004,123.088 31.012,123.088 L31.012,123.088 L31.012,122.608 L24.7,122.608 L24.7,123.088 C25.692,123.088 26.324,123.256 26.596,123.592 C26.868,123.928 27.004,124.696 27.004,125.896 L27.004,125.896 L27.004,129.688 C27.004,130.888 26.868,131.656 26.596,131.992 C26.324,132.328 25.692,132.496 24.7,132.496 L24.7,132.496 L24.7,133 L31.012,133 Z M42.244,134.896 L42.844,131.608 L36.628,131.608 L40.324,128.776 L40.564,128.632 C40.708,128.52 40.888,128.356 41.104,128.14 C41.32,127.924 41.536,127.688 41.752,127.432 C41.968,127.176 42.152,126.864 42.304,126.496 C42.456,126.128 42.532,125.768 42.532,125.416 C42.532,124.456 42.076,123.68 41.164,123.088 C40.252,122.496 39.18,122.2 37.948,122.2 C36.62,122.2 35.556,122.524 34.756,123.172 C33.956,123.82 33.592,124.572 33.664,125.428 C33.736,126.284 34.236,126.992 35.164,127.552 L35.164,127.552 L35.884,126.808 C35.356,125.816 35.34,124.968 35.836,124.264 C36.332,123.56 37.036,123.208 37.948,123.208 C38.732,123.208 39.36,123.408 39.832,123.808 C40.304,124.208 40.54,124.752 40.54,125.44 C40.54,126.656 39.772,127.872 38.236,129.088 L38.236,129.088 L33.988,132.424 L33.988,133 L38.932,133 C40.132,133 40.9,133.116 41.236,133.348 C41.572,133.58 41.74,134.096 41.74,134.896 L41.74,134.896 L42.244,134.896 Z M52.252,133.408 L57.532,121.192 C57.932,120.264 58.272,119.684 58.552,119.452 C58.832,119.22 59.444,119.104 60.388,119.104 L60.388,119.104 L60.388,118.6 L54.796,118.6 L54.796,119.104 C55.788,119.104 56.424,119.244 56.704,119.524 C56.984,119.804 56.972,120.272 56.668,120.928 L56.668,120.928 L52.636,130.264 L48.556,120.928 C48.252,120.272 48.24,119.804 48.52,119.524 C48.8,119.244 49.436,119.104 50.428,119.104 L50.428,119.104 L50.428,118.6 L43.78,118.6 L43.78,119.104 C44.724,119.104 45.336,119.22 45.616,119.452 C45.896,119.684 46.236,120.264 46.636,121.192 L46.636,121.192 L51.94,133.408 L52.252,133.408 Z" id="12V" fill="#524740" fill-rule="nonzero"></path>
            <path d="M148.8,17 L148.8,16.496 C147.808,16.496 147.172,16.356 146.892,16.076 C146.612,15.796 146.624,15.328 146.928,14.672 L146.928,14.672 L148.08,12.008 L153.888,12.008 L155.04,14.672 C155.328,15.328 155.336,15.796 155.064,16.076 C154.792,16.356 154.16,16.496 153.168,16.496 L153.168,16.496 L153.168,17 L159.816,17 L159.816,16.496 C159.304,16.496 158.912,16.476 158.64,16.436 C158.368,16.396 158.124,16.268 157.908,16.052 C157.692,15.836 157.54,15.64 157.452,15.464 C157.364,15.288 157.2,14.936 156.96,14.408 L156.96,14.408 L151.656,2.192 L151.344,2.192 L146.064,14.408 C145.824,14.936 145.66,15.288 145.572,15.464 C145.484,15.64 145.332,15.836 145.116,16.052 C144.9,16.268 144.652,16.396 144.372,16.436 C144.092,16.476 143.696,16.496 143.184,16.496 L143.184,16.496 L143.184,17 L148.8,17 Z M153.48,11.12 L148.464,11.12 L150.96,5.336 L153.48,11.12 Z" id="A" fill="#1A80AA" fill-rule="nonzero"></path>
            <path d="M264.244,17 C265.86,17 267.124,16.62 268.036,15.86 C268.948,15.1 269.404,14.136 269.404,12.968 C269.404,12.104 269.124,11.328 268.564,10.64 C268.004,9.952 267.26,9.464 266.332,9.176 C267.58,8.44 268.204,7.448 268.204,6.2 C268.204,5.16 267.8,4.3 266.992,3.62 C266.184,2.94 265.044,2.6 263.572,2.6 L263.572,2.6 L257.116,2.6 L257.116,3.104 C258.108,3.104 258.736,3.268 259,3.596 C259.264,3.924 259.396,4.688 259.396,5.888 L259.396,5.888 L259.396,13.688 C259.396,14.888 259.264,15.656 259,15.992 C258.736,16.328 258.108,16.496 257.116,16.496 L257.116,16.496 L257.116,17 L264.244,17 Z M263.452,8.888 L261.316,8.888 L261.316,3.488 L263.452,3.488 C264.316,3.488 264.972,3.744 265.42,4.256 C265.868,4.768 266.092,5.416 266.092,6.2 C266.092,6.984 265.868,7.628 265.42,8.132 C264.972,8.636 264.316,8.888 263.452,8.888 L263.452,8.888 Z M264.22,16.112 L263.596,16.112 C262.604,16.112 261.976,15.948 261.712,15.62 C261.448,15.292 261.316,14.528 261.316,13.328 L261.316,13.328 L261.316,9.776 L264.22,9.776 C265.212,9.776 265.972,10.076 266.5,10.676 C267.028,11.276 267.292,12.04 267.292,12.968 C267.292,13.88 267.028,14.632 266.5,15.224 C265.972,15.816 265.212,16.112 264.22,16.112 L264.22,16.112 Z" id="B" fill="#1A80AA" fill-rule="nonzero"></path>
            <path d="M150.36,252 C153.016,252 155.016,251.328 156.36,249.984 C157.704,248.64 158.376,246.912 158.376,244.8 C158.376,242.688 157.704,240.96 156.36,239.616 C155.016,238.272 153.016,237.6 150.36,237.6 L150.36,237.6 L143.856,237.6 L143.856,238.104 C144.848,238.104 145.476,238.268 145.74,238.596 C146.004,238.924 146.136,239.688 146.136,240.888 L146.136,240.888 L146.136,248.688 C146.136,249.888 146.004,250.656 145.74,250.992 C145.476,251.328 144.848,251.496 143.856,251.496 L143.856,251.496 L143.856,252 L150.36,252 Z M150.384,251.112 L150.288,251.112 C149.312,251.112 148.696,250.952 148.44,250.632 C148.184,250.312 148.056,249.544 148.056,248.328 L148.056,248.328 L148.056,238.488 L150.384,238.488 C151.488,238.488 152.436,238.68 153.228,239.064 C154.02,239.448 154.612,239.964 155.004,240.612 C155.396,241.26 155.672,241.924 155.832,242.604 C155.992,243.284 156.072,244.016 156.072,244.8 C156.072,245.584 155.992,246.316 155.832,246.996 C155.672,247.676 155.396,248.34 155.004,248.988 C154.612,249.636 154.02,250.152 153.228,250.536 C152.436,250.92 151.488,251.112 150.384,251.112 L150.384,251.112 Z" id="D" fill="#1A80AA" fill-rule="nonzero"></path>
            <path d="M264.268,252.408 C265.932,252.408 267.42,251.728 268.732,250.368 C269.148,250.656 269.42,251.112 269.548,251.736 L269.548,251.736 L270.028,251.736 L270.028,246.456 L269.548,246.456 C269.212,248.008 268.592,249.228 267.688,250.116 C266.784,251.004 265.676,251.448 264.364,251.448 C263.452,251.448 262.644,251.244 261.94,250.836 C261.236,250.428 260.688,249.892 260.296,249.228 C259.904,248.564 259.612,247.856 259.42,247.104 C259.228,246.352 259.132,245.584 259.132,244.8 C259.132,244.016 259.228,243.248 259.42,242.496 C259.612,241.744 259.904,241.032 260.296,240.36 C260.688,239.688 261.236,239.148 261.94,238.74 C262.644,238.332 263.452,238.128 264.364,238.128 C265.676,238.128 266.784,238.568 267.688,239.448 C268.592,240.328 269.212,241.56 269.548,243.144 L269.548,243.144 L270.028,243.144 L270.028,237.864 L269.548,237.864 C269.436,238.44 269.164,238.896 268.732,239.232 C267.452,237.872 265.964,237.192 264.268,237.192 C262.236,237.192 260.5,237.936 259.06,239.424 C257.62,240.912 256.9,242.704 256.9,244.8 C256.9,246.896 257.62,248.688 259.06,250.176 C260.5,251.664 262.236,252.408 264.268,252.408 Z" id="C" fill="#1A80AA" fill-rule="nonzero"></path>
            <polyline id="Resistor-Copy" stroke="#524740" stroke-width="2" stroke-linejoin="bevel" transform="translate(264.000000, 128.000000) rotate(90.000000) translate(-264.000000, -128.000000) " points="229 128 234 128 239 115 249 141 259 115 269 141 279 115 289 141 294 128 299 128"></polyline>
            <circle id="Oval-2" fill="#524740" cx="152" cy="34" r="5"></circle>
            <circle id="Oval-2-Copy-3" fill="#524740" cx="264" cy="34" r="5"></circle>
            <circle id="Oval-2-Copy-5" fill="#524740" cx="264" cy="219" r="5"></circle>
            <circle id="Oval-2-Copy-4" fill="#524740" cx="152" cy="221" r="5"></circle>
            <g id="DC_Power" transform="translate(0.000000, 87.000000)">
                <circle id="Oval" stroke="#524740" stroke-width="2" cx="40" cy="40" r="39"></circle>
                <text id="+" font-family="Lato-Regular, Lato" font-size="18" font-weight="normal" letter-spacing="0.8999999" fill="#524740">
                    <tspan x="35.3300001" y="21">+</tspan>
                </text>
                <text id="-" font-family="Lato-Regular, Lato" font-size="18" font-weight="normal" letter-spacing="0.8999999" fill="#524740">
                    <tspan x="37.2065001" y="72.5">-</tspan>
                </text>
            </g>
        </g>
    </g>
</svg>