<?xml version="1.0" encoding="UTF-8"?>
<svg width="900px" height="300px" viewBox="0 0 900 300" version="1.1" xmlns="http://www.w3.org/2000/svg" xmlns:xlink="http://www.w3.org/1999/xlink">
    <!-- Generator: Sketch 60.1 (88133) - https://sketch.com -->
    <title>Kirchhoffs_Current_Law</title>
    <desc>Created with Sketch.</desc>
    <g id="Kirchhoffs_Current_Law" stroke="none" stroke-width="1" fill="none" fill-rule="evenodd">
        <g id="Illustration_Frame">
            <rect id="Rectangle" stroke="#3D3530" stroke-width="2" fill="#EEEEEE" x="1" y="1" width="898" height="298"></rect>
            <rect id="Rectangle-Copy" stroke="#3D3530" stroke-width="2" fill="#F8FAE4" x="1" y="256" width="898" height="43"></rect>
            <path d="M612.282666,285 L612.282666,280.632 L614.826666,277.488 L619.866666,285 L621.666666,285 L615.810666,276.288 L621.834666,268.872 L619.938666,268.872 L612.282666,278.304 L612.282666,268.872 L610.698666,268.872 L610.698666,285 L612.282666,285 Z M626.965333,269.688 C627.237333,269.688 627.461333,269.592 627.637333,269.4 C627.829333,269.208 627.925333,268.984 627.925333,268.728 C627.925333,268.472 627.833333,268.248 627.649333,268.056 C627.465333,267.864 627.237333,267.768 626.965333,267.768 C626.693333,267.768 626.465333,267.864 626.281333,268.056 C626.097333,268.248 626.005333,268.472 626.005333,268.728 C626.005333,268.984 626.097333,269.208 626.281333,269.4 C626.465333,269.592 626.693333,269.688 626.965333,269.688 Z M627.757333,285 L627.757333,273 L626.173333,273 L626.173333,285 L627.757333,285 Z M633.679999,285 L633.679999,277.968 C633.679999,276.928 634.023999,276.052 634.711999,275.34 C635.399999,274.628 636.247999,274.272 637.255999,274.272 C637.943999,274.272 638.623999,274.52 639.295999,275.016 L639.295999,275.016 L639.847999,273.432 C639.143999,273.016 638.367999,272.808 637.519999,272.808 C635.935999,272.808 634.655999,273.464 633.679999,274.776 L633.679999,274.776 L633.679999,273 L632.095999,273 L632.095999,285 L633.679999,285 Z M647.162666,285.192 C648.250666,285.192 649.262666,284.924 650.198666,284.388 C651.134666,283.852 651.874666,283.136 652.418666,282.24 L652.418666,282.24 L650.978666,281.544 C650.546666,282.2 649.994666,282.72 649.322666,283.104 C648.650666,283.488 647.930666,283.68 647.162666,283.68 C645.866666,283.68 644.774666,283.228 643.886666,282.324 C642.998666,281.42 642.554666,280.312 642.554666,279 C642.554666,277.688 642.998666,276.58 643.886666,275.676 C644.774666,274.772 645.866666,274.32 647.162666,274.32 C647.930666,274.32 648.650666,274.512 649.322666,274.896 C649.994666,275.28 650.546666,275.8 650.978666,276.456 L650.978666,276.456 L652.418666,275.76 C651.874666,274.864 651.134666,274.148 650.198666,273.612 C649.262666,273.076 648.250666,272.808 647.162666,272.808 C645.450666,272.808 643.990666,273.412 642.782666,274.62 C641.574666,275.828 640.970666,277.288 640.970666,279 C640.970666,280.712 641.574666,282.172 642.782666,283.38 C643.990666,284.588 645.450666,285.192 647.162666,285.192 Z M657.477333,285 L657.477333,277.968 C657.477333,276.944 657.825333,276.076 658.521333,275.364 C659.217333,274.652 660.061333,274.296 661.053333,274.296 C662.061333,274.296 662.909333,274.652 663.597333,275.364 C664.285333,276.076 664.629333,276.952 664.629333,277.992 L664.629333,277.992 L664.629333,285 L666.237333,285 L666.237333,277.968 C666.237333,276.528 665.765333,275.308 664.821333,274.308 C663.877333,273.308 662.709333,272.808 661.317333,272.808 C659.733333,272.808 658.453333,273.464 657.477333,274.776 L657.477333,274.776 L657.477333,267.144 L655.893333,267.144 L655.893333,285 L657.477333,285 Z M671.679999,285 L671.679999,277.968 C671.679999,276.944 672.027999,276.076 672.723999,275.364 C673.419999,274.652 674.263999,274.296 675.255999,274.296 C676.263999,274.296 677.111999,274.652 677.799999,275.364 C678.487999,276.076 678.831999,276.952 678.831999,277.992 L678.831999,277.992 L678.831999,285 L680.439999,285 L680.439999,277.968 C680.439999,276.528 679.967999,275.308 679.023999,274.308 C678.079999,273.308 676.911999,272.808 675.519999,272.808 C673.935999,272.808 672.655999,273.464 671.679999,274.776 L671.679999,274.776 L671.679999,267.144 L670.095999,267.144 L670.095999,285 L671.679999,285 Z M689.554666,285.192 C691.266666,285.192 692.722666,284.584 693.922666,283.368 C695.138666,282.152 695.746666,280.696 695.746666,279 C695.746666,277.288 695.142666,275.828 693.934666,274.62 C692.726666,273.412 691.266666,272.808 689.554666,272.808 C687.842666,272.808 686.382666,273.412 685.174666,274.62 C683.966666,275.828 683.362666,277.288 683.362666,279 C683.362666,280.712 683.966666,282.172 685.174666,283.38 C686.382666,284.588 687.842666,285.192 689.554666,285.192 Z M689.578666,283.68 C688.298666,283.68 687.210666,283.228 686.314666,282.324 C685.418666,281.42 684.970666,280.312 684.970666,279 C684.970666,277.688 685.418666,276.576 686.314666,275.664 C687.210666,274.752 688.298666,274.296 689.578666,274.296 C690.874666,274.296 691.966666,274.752 692.854666,275.664 C693.742666,276.576 694.186666,277.688 694.186666,279 C694.186666,280.312 693.742666,281.42 692.854666,282.324 C691.966666,283.228 690.874666,283.68 689.578666,283.68 Z M701.069333,285 L701.069333,274.272 L703.421333,274.272 L703.421333,272.952 L701.069333,272.952 L701.069333,270.048 C701.069333,269.392 701.125333,268.948 701.237333,268.716 C701.349333,268.484 701.581333,268.368 701.933333,268.368 C702.253333,268.368 702.573333,268.408 702.893333,268.488 L702.893333,268.488 L703.229333,267.264 L703.013333,267.192 C702.869333,267.144 702.649333,267.096 702.353333,267.048 C702.057333,267 701.765333,266.976 701.477333,266.976 C700.165333,266.976 699.509333,267.808 699.509333,269.472 L699.509333,269.472 L699.509333,272.952 L698.093333,272.952 L698.093333,274.272 L699.509333,274.272 L699.509333,285 L701.069333,285 Z M708.935999,285 L708.935999,274.272 L711.287999,274.272 L711.287999,272.952 L708.935999,272.952 L708.935999,270.048 C708.935999,269.392 708.992,268.948 709.103999,268.716 C709.215999,268.484 709.448,268.368 709.8,268.368 C710.12,268.368 710.439999,268.408 710.759999,268.488 L710.759999,268.488 L711.095999,267.264 L710.879999,267.192 C710.735999,267.144 710.515999,267.096 710.219999,267.048 C709.924,267 709.632,266.976 709.343999,266.976 C708.031999,266.976 707.376,267.808 707.376,269.472 L707.376,269.472 L707.376,272.952 L705.959999,272.952 L705.959999,274.272 L707.376,274.272 L707.376,285 L708.935999,285 Z M714.762666,273.504 L715.002666,270.12 L713.586666,270.12 L713.850666,273.504 L714.762666,273.504 Z M721.381333,285.192 C722.853333,285.192 723.957333,284.88 724.693333,284.256 C725.429333,283.632 725.797333,282.816 725.797333,281.808 C725.797333,281.088 725.533333,280.476 725.005333,279.972 C724.477333,279.468 723.833333,279.084 723.073333,278.82 C722.313333,278.556 721.557333,278.312 720.805333,278.088 C720.053333,277.864 719.413333,277.596 718.885333,277.284 C718.357333,276.972 718.093333,276.6 718.093333,276.168 C718.093333,275.56 718.361333,275.088 718.897333,274.752 C719.433333,274.416 720.133333,274.248 720.997333,274.248 C721.605333,274.248 722.213333,274.384 722.821333,274.656 C723.429333,274.928 723.833333,275.144 724.033333,275.304 C724.233333,275.464 724.389333,275.6 724.501333,275.712 L724.501333,275.712 L725.629333,274.728 L725.125333,274.248 C724.789333,273.928 724.237333,273.608 723.469333,273.288 C722.701333,272.968 721.885333,272.808 721.021333,272.808 C719.565333,272.808 718.465333,273.124 717.721333,273.756 C716.977333,274.388 716.605333,275.2 716.605333,276.192 C716.605333,276.912 716.869333,277.52 717.397333,278.016 C717.925333,278.512 718.569333,278.896 719.329333,279.168 C720.089333,279.44 720.845333,279.688 721.597333,279.912 C722.349333,280.136 722.989333,280.404 723.517333,280.716 C724.045333,281.028 724.309333,281.4 724.309333,281.832 C724.309333,282.44 724.045333,282.912 723.517333,283.248 C722.989333,283.584 722.285333,283.752 721.405333,283.752 C720.813333,283.752 720.213333,283.616 719.605333,283.344 C718.997333,283.072 718.593333,282.856 718.393333,282.696 C718.193333,282.536 718.037333,282.4 717.925333,282.288 L717.925333,282.288 L716.797333,283.248 L716.989333,283.464 C717.117333,283.592 717.317333,283.752 717.589333,283.944 C717.861333,284.136 718.169333,284.324 718.513333,284.508 C718.857333,284.692 719.285333,284.852 719.797333,284.988 C720.309333,285.124 720.837333,285.192 721.381333,285.192 Z M743.522666,285.192 C745.090666,285.192 746.454666,284.836 747.614666,284.124 C748.774666,283.412 749.674666,282.432 750.314666,281.184 L750.314666,281.184 L748.826666,280.296 C748.330666,281.336 747.622666,282.164 746.702666,282.78 C745.782666,283.396 744.722666,283.704 743.522666,283.704 C741.698666,283.704 740.238666,283.064 739.142666,281.784 C738.046666,280.504 737.498666,278.896 737.498666,276.96 C737.498666,275.008 738.046666,273.396 739.142666,272.124 C740.238666,270.852 741.698666,270.216 743.522666,270.216 C744.706666,270.216 745.758666,270.52 746.678666,271.128 C747.598666,271.736 748.314666,272.56 748.826666,273.6 L748.826666,273.6 L750.314666,272.736 C749.674666,271.488 748.774666,270.504 747.614666,269.784 C746.454666,269.064 745.090666,268.704 743.522666,268.704 C741.154666,268.704 739.266666,269.492 737.858666,271.068 C736.450666,272.644 735.746666,274.608 735.746666,276.96 C735.746666,279.296 736.450666,281.252 737.858666,282.828 C739.266666,284.404 741.154666,285.192 743.522666,285.192 Z M758.589333,285.192 C760.173333,285.192 761.453333,284.536 762.429333,283.224 L762.429333,283.224 L762.429333,285 L764.013333,285 L764.013333,273 L762.429333,273 L762.429333,280.032 C762.429333,281.056 762.085333,281.924 761.397333,282.636 C760.709333,283.348 759.861333,283.704 758.853333,283.704 C757.861333,283.704 757.021333,283.348 756.333333,282.636 C755.645333,281.924 755.301333,281.056 755.301333,280.032 L755.301333,280.032 L755.301333,273 L753.669333,273 L753.669333,280.08 C753.669333,281.52 754.141333,282.732 755.085333,283.716 C756.029333,284.7 757.197333,285.192 758.589333,285.192 Z M769.552,285 L769.552,277.968 C769.552,276.928 769.896,276.052 770.584,275.34 C771.272,274.628 772.12,274.272 773.128,274.272 C773.816,274.272 774.496,274.52 775.168,275.016 L775.168,275.016 L775.72,273.432 C775.016,273.016 774.24,272.808 773.392,272.808 C771.808,272.808 770.528,273.464 769.552,274.776 L769.552,274.776 L769.552,273 L767.968,273 L767.968,285 L769.552,285 Z M780.106666,285 L780.106666,277.968 C780.106666,276.928 780.450666,276.052 781.138666,275.34 C781.826666,274.628 782.674666,274.272 783.682666,274.272 C784.370666,274.272 785.050666,274.52 785.722666,275.016 L785.722666,275.016 L786.274666,273.432 C785.570666,273.016 784.794666,272.808 783.946666,272.808 C782.362666,272.808 781.082666,273.464 780.106666,274.776 L780.106666,274.776 L780.106666,273 L778.522666,273 L778.522666,285 L780.106666,285 Z M793.589333,285.072 C795.061333,285.088 796.329333,284.672 797.393333,283.824 C798.457333,282.976 799.173333,282.048 799.541333,281.04 L799.541333,281.04 L798.197333,280.56 C797.893333,281.376 797.317333,282.088 796.469333,282.696 C795.621333,283.304 794.661333,283.608 793.589333,283.608 C792.597333,283.624 791.693333,283.324 790.877333,282.708 C790.061333,282.092 789.517333,281.304 789.245333,280.344 L789.245333,280.344 L799.733333,278.448 C799.733333,278.32 799.725333,278.216 799.709333,278.136 C799.533333,276.6 798.861333,275.312 797.693333,274.272 C796.525333,273.232 795.157333,272.704 793.589333,272.688 C791.861333,272.704 790.397333,273.312 789.197333,274.512 C787.997333,275.712 787.397333,277.176 787.397333,278.904 C787.397333,279.528 787.477333,280.104 787.637333,280.632 C788.037333,281.928 788.793333,282.992 789.905333,283.824 C791.017333,284.656 792.245333,285.072 793.589333,285.072 Z M789.005333,279.048 C789.005333,278.968 789.001333,278.868 788.993333,278.748 C788.985333,278.628 788.981333,278.544 788.981333,278.496 C789.045333,277.312 789.505333,276.296 790.361333,275.448 C791.217333,274.6 792.245333,274.168 793.445333,274.152 C794.469333,274.136 795.397333,274.436 796.229333,275.052 C797.061333,275.668 797.629333,276.464 797.933333,277.44 L797.933333,277.44 L789.005333,279.048 Z M804.24,285 L804.24,277.968 C804.24,276.944 804.588,276.072 805.284,275.352 C805.98,274.632 806.824,274.272 807.816,274.272 C808.808,274.272 809.652,274.632 810.348,275.352 C811.044,276.072 811.392,276.944 811.392,277.968 L811.392,277.968 L811.392,285 L813,285 L813,277.92 C813,276.48 812.528,275.268 811.584,274.284 C810.64,273.3 809.472,272.808 808.08,272.808 C806.496,272.808 805.216,273.464 804.24,274.776 L804.24,274.776 L804.24,273 L802.656,273 L802.656,285 L804.24,285 Z M820.890666,285.192 C821.482666,285.192 822.058666,285.036 822.618667,284.724 C823.178666,284.412 823.538666,284.168 823.698666,283.992 C823.858666,283.816 823.986666,283.664 824.082666,283.536 L824.082666,283.536 L823.290667,282.312 C823.290667,282.376 823.206666,282.516 823.038666,282.732 C822.870666,282.948 822.610666,283.168 822.258667,283.392 C821.906667,283.616 821.546667,283.728 821.178666,283.728 C820.586666,283.728 820.062666,283.512 819.606666,283.08 C819.150666,282.648 818.922666,282.064 818.922666,281.328 L818.922666,281.328 L818.922666,274.44 L822.546667,274.44 L822.546667,272.976 L818.922666,272.976 L818.922666,268.992 L817.338667,269.184 L817.338667,272.976 L815.418666,272.976 L815.418666,274.44 L817.338667,274.44 L817.338667,281.688 C817.338667,282.824 817.678667,283.692 818.358667,284.292 C819.038666,284.892 819.882667,285.192 820.890666,285.192 Z M843.488,285 L843.488,283.416 L836.144,283.416 L836.144,268.872 L834.56,268.872 L834.56,285 L843.488,285 Z M851.450667,285.192 C853.338667,285.192 854.898667,284.48 856.130667,283.056 L856.130667,283.056 L856.130667,285 L857.714667,285 L857.714667,273 L856.130667,273 L856.130667,274.944 C854.914667,273.52 853.354667,272.808 851.450667,272.808 C849.738667,272.808 848.278667,273.412 847.070667,274.62 C845.862667,275.828 845.258667,277.288 845.258667,279 C845.258667,280.712 845.862667,282.172 847.070667,283.38 C848.278667,284.588 849.738667,285.192 851.450667,285.192 Z M851.474667,283.68 C850.194667,283.68 849.102667,283.228 848.198667,282.324 C847.294667,281.42 846.842667,280.312 846.842667,279 C846.842667,277.688 847.294667,276.58 848.198667,275.676 C849.102667,274.772 850.194667,274.32 851.474667,274.32 C852.770667,274.32 853.862667,274.772 854.750667,275.676 C855.638667,276.58 856.082667,277.688 856.082667,279 C856.082667,280.312 855.638667,281.42 854.750667,282.324 C853.862667,283.228 852.770667,283.68 851.474667,283.68 Z M865.989333,285 L869.373333,275.112 L872.757333,285 L874.341333,285 L878.589333,273 L877.005333,273 L873.549333,282.768 L870.093333,273 L868.653333,273 L865.197333,282.768 L861.765333,273 L860.181333,273 L864.405333,285 L865.989333,285 Z" id="Kirchhoff'sCurrentLaw" fill="#23ABE3" fill-rule="nonzero"></path>
        </g>
        <g transform="translate(329.000000, 16.000000)">
            <polyline id="Resistor" stroke="#524740" stroke-width="2" stroke-linejoin="bevel" transform="translate(188.751505, 65.865965) rotate(329.000000) translate(-188.751505, -65.865965) " points="153.751505 65.8659654 158.751505 65.8659654 163.751505 52.8659654 173.751505 78.8659654 183.751505 52.8659654 193.751505 78.8659654 203.751505 52.8659654 213.751505 78.8659654 218.751505 65.8659654 223.751505 65.8659654"></polyline>
            <circle id="Oval-2-Copy-2" fill="#524740" cx="115" cy="110" r="5"></circle>
            <line x1="0.965820312" y1="44.818388" x2="115" y2="110" id="Path-2" stroke="#524740" stroke-width="2"></line>
            <line x1="0.965813155" y1="214.919211" x2="115" y2="110" id="Path-3" stroke="#524740" stroke-width="2"></line>
            <path id="Line-11-Copy-4" d="M45.7613038,52.707554 L66.321,64.818 L70.3814238,57.9250956 L81.9308153,75.7537679 L60.7382426,74.2960777 L64.799,67.402 L44.2386962,55.292446 L45.7613038,52.707554 Z" fill="#B09679" fill-rule="nonzero"></path>
            <path id="Line-11-Copy-6" d="M252.278204,12.8359807 L240.728916,30.6647202 L236.668,23.771 L216.108826,35.8824051 L214.586204,33.297522 L235.145,21.186 L231.08564,14.2937942 L252.278204,12.8359807 Z" fill="#B09679" fill-rule="nonzero"></path>
            <g id="i3" transform="translate(207.000000, 0.000000)" fill="#524740" fill-rule="nonzero">
                <path d="M7.644,17 L7.644,16.496 C6.652,16.496 6.024,16.328 5.76,15.992 C5.496,15.656 5.364,14.888 5.364,13.688 L5.364,13.688 L5.364,5.888 C5.364,4.688 5.496,3.924 5.76,3.596 C6.024,3.268 6.652,3.104 7.644,3.104 L7.644,3.104 L7.644,2.6 L1.164,2.6 L1.164,3.104 C2.156,3.104 2.784,3.268 3.048,3.596 C3.312,3.924 3.444,4.688 3.444,5.888 L3.444,5.888 L3.444,13.688 C3.444,14.888 3.312,15.656 3.048,15.992 C2.784,16.328 2.156,16.496 1.164,16.496 L1.164,16.496 L1.164,17 L7.644,17 Z M14.532,21.488 C15.876,21.488 17.008,21.096 17.928,20.312 C18.848,19.528 19.308,18.584 19.308,17.48 C19.308,16.552 18.972,15.736 18.3,15.032 C17.628,14.328 16.716,13.856 15.564,13.616 L15.564,13.616 L16.668,12.776 L16.908,12.632 C17.052,12.52 17.232,12.356 17.448,12.14 C17.664,11.924 17.88,11.688 18.096,11.432 C18.312,11.176 18.496,10.864 18.648,10.496 C18.8,10.128 18.876,9.768 18.876,9.416 C18.876,8.456 18.42,7.68 17.508,7.088 C16.596,6.496 15.524,6.2 14.292,6.2 C12.964,6.2 11.9,6.524 11.1,7.172 C10.3,7.82 9.936,8.572 10.008,9.428 C10.08,10.284 10.58,10.992 11.508,11.552 L11.508,11.552 L12.228,10.808 C11.652,9.816 11.644,8.968 12.204,8.264 C12.764,7.56 13.46,7.208 14.292,7.208 C15.076,7.208 15.708,7.408 16.188,7.808 C16.668,8.208 16.908,8.744 16.908,9.416 C16.908,10.008 16.76,10.58 16.464,11.132 C16.168,11.684 15.788,12.136 15.324,12.488 L15.324,12.488 L13.548,13.904 C13.132,14.208 12.924,14.504 12.924,14.792 C12.924,14.952 12.976,15.084 13.08,15.188 C13.184,15.292 13.3,15.344 13.428,15.344 C13.572,15.344 13.716,15.284 13.86,15.164 C14.004,15.044 14.16,14.884 14.328,14.684 C14.496,14.484 14.636,14.336 14.748,14.24 C15.58,14.416 16.192,14.808 16.584,15.416 C16.976,16.024 17.172,16.712 17.172,17.48 C17.172,18.408 16.936,19.156 16.464,19.724 C15.992,20.292 15.284,20.576 14.34,20.576 C13.364,20.576 12.58,20.264 11.988,19.64 C11.844,19.496 11.696,19.296 11.544,19.04 C11.392,18.784 11.256,18.584 11.136,18.44 C11.016,18.296 10.876,18.224 10.716,18.224 C10.3,18.224 10.092,18.408 10.092,18.776 C10.092,19.336 10.508,19.928 11.34,20.552 C12.172,21.176 13.236,21.488 14.532,21.488 Z" id="I3"></path>
            </g>
            <path id="Line-11-Copy-7" d="M210.880947,133.901204 L233.231,142.257 L236.033048,134.76424 L250.502895,150.316524 L229.37916,152.561031 L232.181,145.067 L209.830333,136.711224 L210.880947,133.901204 Z" fill="#B09679" fill-rule="nonzero"></path>
            <g id="i4" transform="translate(211.000000, 110.000000)" fill="#524740" fill-rule="nonzero">
                <path d="M8.26,17 L8.26,16.496 C7.268,16.496 6.64,16.328 6.376,15.992 C6.112,15.656 5.98,14.888 5.98,13.688 L5.98,13.688 L5.98,5.888 C5.98,4.688 6.112,3.924 6.376,3.596 C6.64,3.268 7.268,3.104 8.26,3.104 L8.26,3.104 L8.26,2.6 L1.78,2.6 L1.78,3.104 C2.772,3.104 3.4,3.268 3.664,3.596 C3.928,3.924 4.06,4.688 4.06,5.888 L4.06,5.888 L4.06,13.688 C4.06,14.888 3.928,15.656 3.664,15.992 C3.4,16.328 2.772,16.496 1.78,16.496 L1.78,16.496 L1.78,17 L8.26,17 Z M19.468,21.08 L19.468,20.576 C18.476,20.576 17.844,20.412 17.572,20.084 C17.3,19.756 17.164,18.992 17.164,17.792 L17.164,17.792 L17.164,15.992 L20.644,15.992 L20.836,12.824 L20.332,12.824 L20.212,13.304 C20.036,14.008 19.784,14.488 19.456,14.744 C19.128,15 18.452,15.128 17.428,15.128 L17.428,15.128 L17.164,15.128 L17.164,5.192 L16.732,5.192 L10.036,15.536 L10.036,15.992 L15.484,15.992 L15.484,17.792 C15.484,18.992 15.348,19.756 15.076,20.084 C14.804,20.412 14.172,20.576 13.18,20.576 L13.18,20.576 L13.18,21.08 L19.468,21.08 Z M15.484,15.128 L11.332,15.128 L15.484,8.72 L15.484,15.128 Z" id="I4"></path>
            </g>
            <g id="R1" transform="translate(157.000000, 27.000000)" fill="#524740" fill-rule="nonzero">
                <path d="M8.096,17 L8.096,16.496 C7.104,16.496 6.476,16.328 6.212,15.992 C5.948,15.656 5.816,14.888 5.816,13.688 L5.816,13.688 L5.816,10.688 L6.944,10.688 L11.696,17 L15.656,17 L15.656,16.496 C14.248,16.336 12.76,15.32 11.192,13.448 L11.192,13.448 L8.84,10.688 C10.168,10.544 11.212,10.104 11.972,9.368 C12.732,8.632 13.112,7.728 13.112,6.656 C13.112,5.488 12.656,4.52 11.744,3.752 C10.832,2.984 9.568,2.6 7.952,2.6 L7.952,2.6 L1.616,2.6 L1.616,3.104 C2.608,3.104 3.236,3.268 3.5,3.596 C3.764,3.924 3.896,4.688 3.896,5.888 L3.896,5.888 L3.896,13.688 C3.896,14.888 3.764,15.656 3.5,15.992 C3.236,16.328 2.608,16.496 1.616,16.496 L1.616,16.496 L1.616,17 L8.096,17 Z M7.928,9.824 L5.816,9.824 L5.816,3.488 L7.928,3.488 C8.92,3.488 9.676,3.784 10.196,4.376 C10.716,4.968 10.976,5.728 10.976,6.656 C10.976,7.584 10.716,8.344 10.196,8.936 C9.676,9.528 8.92,9.824 7.928,9.824 L7.928,9.824 Z M23.096,17 L23.096,16.496 C22.088,16.496 21.452,16.332 21.188,16.004 C20.924,15.676 20.792,14.904 20.792,13.688 L20.792,13.688 L20.792,9.896 C20.792,8.68 20.924,7.908 21.188,7.58 C21.452,7.252 22.088,7.088 23.096,7.088 L23.096,7.088 L23.096,6.608 L16.784,6.608 L16.784,7.088 C17.776,7.088 18.408,7.256 18.68,7.592 C18.952,7.928 19.088,8.696 19.088,9.896 L19.088,9.896 L19.088,13.688 C19.088,14.888 18.952,15.656 18.68,15.992 C18.408,16.328 17.776,16.496 16.784,16.496 L16.784,16.496 L16.784,17 L23.096,17 Z"></path>
            </g>
            <path id="Line-11-Copy-5" d="M66.8647686,137.158029 L59.5010024,157.083514 L54.029,151.247 L35.5259117,168.594306 L33.4740883,166.405694 L51.977,149.058 L46.506121,143.222307 L66.8647686,137.158029 Z" fill="#B09679" fill-rule="nonzero"></path>
            <g id="i2" transform="translate(20.000000, 134.000000)" fill="#524740" fill-rule="nonzero">
                <path d="M7.5,17 L7.5,16.496 C6.508,16.496 5.88,16.328 5.616,15.992 C5.352,15.656 5.22,14.888 5.22,13.688 L5.22,13.688 L5.22,5.888 C5.22,4.688 5.352,3.924 5.616,3.596 C5.88,3.268 6.508,3.104 7.5,3.104 L7.5,3.104 L7.5,2.6 L1.02,2.6 L1.02,3.104 C2.012,3.104 2.64,3.268 2.904,3.596 C3.168,3.924 3.3,4.688 3.3,5.888 L3.3,5.888 L3.3,13.688 C3.3,14.888 3.168,15.656 2.904,15.992 C2.64,16.328 2.012,16.496 1.02,16.496 L1.02,16.496 L1.02,17 L7.5,17 Z M18.444,18.896 L19.044,15.608 L12.828,15.608 L16.524,12.776 L16.764,12.632 C16.908,12.52 17.088,12.356 17.304,12.14 C17.52,11.924 17.736,11.688 17.952,11.432 C18.168,11.176 18.352,10.864 18.504,10.496 C18.656,10.128 18.732,9.768 18.732,9.416 C18.732,8.456 18.276,7.68 17.364,7.088 C16.452,6.496 15.38,6.2 14.148,6.2 C12.82,6.2 11.756,6.524 10.956,7.172 C10.156,7.82 9.792,8.572 9.864,9.428 C9.936,10.284 10.436,10.992 11.364,11.552 L11.364,11.552 L12.084,10.808 C11.556,9.816 11.54,8.968 12.036,8.264 C12.532,7.56 13.236,7.208 14.148,7.208 C14.932,7.208 15.56,7.408 16.032,7.808 C16.504,8.208 16.74,8.752 16.74,9.44 C16.74,10.656 15.972,11.872 14.436,13.088 L14.436,13.088 L10.188,16.424 L10.188,17 L15.132,17 C16.332,17 17.1,17.116 17.436,17.348 C17.772,17.58 17.94,18.096 17.94,18.896 L17.94,18.896 L18.444,18.896 Z" id="I2"></path>
            </g>
            <g id="i1" transform="translate(52.000000, 33.000000)" fill="#524740" fill-rule="nonzero">
                <path d="M8.384,17 L8.384,16.496 C7.392,16.496 6.764,16.328 6.5,15.992 C6.236,15.656 6.104,14.888 6.104,13.688 L6.104,13.688 L6.104,5.888 C6.104,4.688 6.236,3.924 6.5,3.596 C6.764,3.268 7.392,3.104 8.384,3.104 L8.384,3.104 L8.384,2.6 L1.904,2.6 L1.904,3.104 C2.896,3.104 3.524,3.268 3.788,3.596 C4.052,3.924 4.184,4.688 4.184,5.888 L4.184,5.888 L4.184,13.688 C4.184,14.888 4.052,15.656 3.788,15.992 C3.524,16.328 2.896,16.496 1.904,16.496 L1.904,16.496 L1.904,17 L8.384,17 Z M16.808,17 L16.808,16.496 C15.8,16.496 15.164,16.332 14.9,16.004 C14.636,15.676 14.504,14.904 14.504,13.688 L14.504,13.688 L14.504,9.896 C14.504,8.68 14.636,7.908 14.9,7.58 C15.164,7.252 15.8,7.088 16.808,7.088 L16.808,7.088 L16.808,6.608 L10.496,6.608 L10.496,7.088 C11.488,7.088 12.12,7.256 12.392,7.592 C12.664,7.928 12.8,8.696 12.8,9.896 L12.8,9.896 L12.8,13.688 C12.8,14.888 12.664,15.656 12.392,15.992 C12.12,16.328 11.488,16.496 10.496,16.496 L10.496,16.496 L10.496,17 L16.808,17 Z" id="I1"></path>
            </g>
            <g id="Group" transform="translate(79.000000, 192.000000)" fill="#524740">
                <g id="i4-copy" transform="translate(114.000000, 0.000000)" fill-rule="nonzero">
                    <path d="M8.26,17 L8.26,16.496 C7.268,16.496 6.64,16.328 6.376,15.992 C6.112,15.656 5.98,14.888 5.98,13.688 L5.98,13.688 L5.98,5.888 C5.98,4.688 6.112,3.924 6.376,3.596 C6.64,3.268 7.268,3.104 8.26,3.104 L8.26,3.104 L8.26,2.6 L1.78,2.6 L1.78,3.104 C2.772,3.104 3.4,3.268 3.664,3.596 C3.928,3.924 4.06,4.688 4.06,5.888 L4.06,5.888 L4.06,13.688 C4.06,14.888 3.928,15.656 3.664,15.992 C3.4,16.328 2.772,16.496 1.78,16.496 L1.78,16.496 L1.78,17 L8.26,17 Z M19.468,21.08 L19.468,20.576 C18.476,20.576 17.844,20.412 17.572,20.084 C17.3,19.756 17.164,18.992 17.164,17.792 L17.164,17.792 L17.164,15.992 L20.644,15.992 L20.836,12.824 L20.332,12.824 L20.212,13.304 C20.036,14.008 19.784,14.488 19.456,14.744 C19.128,15 18.452,15.128 17.428,15.128 L17.428,15.128 L17.164,15.128 L17.164,5.192 L16.732,5.192 L10.036,15.536 L10.036,15.992 L15.484,15.992 L15.484,17.792 C15.484,18.992 15.348,19.756 15.076,20.084 C14.804,20.412 14.172,20.576 13.18,20.576 L13.18,20.576 L13.18,21.08 L19.468,21.08 Z M15.484,15.128 L11.332,15.128 L15.484,8.72 L15.484,15.128 Z" id="I4"></path>
                </g>
                <g id="i3-copy" transform="translate(78.000000, 0.000000)" fill-rule="nonzero">
                    <path d="M7.644,17 L7.644,16.496 C6.652,16.496 6.024,16.328 5.76,15.992 C5.496,15.656 5.364,14.888 5.364,13.688 L5.364,13.688 L5.364,5.888 C5.364,4.688 5.496,3.924 5.76,3.596 C6.024,3.268 6.652,3.104 7.644,3.104 L7.644,3.104 L7.644,2.6 L1.164,2.6 L1.164,3.104 C2.156,3.104 2.784,3.268 3.048,3.596 C3.312,3.924 3.444,4.688 3.444,5.888 L3.444,5.888 L3.444,13.688 C3.444,14.888 3.312,15.656 3.048,15.992 C2.784,16.328 2.156,16.496 1.164,16.496 L1.164,16.496 L1.164,17 L7.644,17 Z M14.532,21.488 C15.876,21.488 17.008,21.096 17.928,20.312 C18.848,19.528 19.308,18.584 19.308,17.48 C19.308,16.552 18.972,15.736 18.3,15.032 C17.628,14.328 16.716,13.856 15.564,13.616 L15.564,13.616 L16.668,12.776 L16.908,12.632 C17.052,12.52 17.232,12.356 17.448,12.14 C17.664,11.924 17.88,11.688 18.096,11.432 C18.312,11.176 18.496,10.864 18.648,10.496 C18.8,10.128 18.876,9.768 18.876,9.416 C18.876,8.456 18.42,7.68 17.508,7.088 C16.596,6.496 15.524,6.2 14.292,6.2 C12.964,6.2 11.9,6.524 11.1,7.172 C10.3,7.82 9.936,8.572 10.008,9.428 C10.08,10.284 10.58,10.992 11.508,11.552 L11.508,11.552 L12.228,10.808 C11.652,9.816 11.644,8.968 12.204,8.264 C12.764,7.56 13.46,7.208 14.292,7.208 C15.076,7.208 15.708,7.408 16.188,7.808 C16.668,8.208 16.908,8.744 16.908,9.416 C16.908,10.008 16.76,10.58 16.464,11.132 C16.168,11.684 15.788,12.136 15.324,12.488 L15.324,12.488 L13.548,13.904 C13.132,14.208 12.924,14.504 12.924,14.792 C12.924,14.952 12.976,15.084 13.08,15.188 C13.184,15.292 13.3,15.344 13.428,15.344 C13.572,15.344 13.716,15.284 13.86,15.164 C14.004,15.044 14.16,14.884 14.328,14.684 C14.496,14.484 14.636,14.336 14.748,14.24 C15.58,14.416 16.192,14.808 16.584,15.416 C16.976,16.024 17.172,16.712 17.172,17.48 C17.172,18.408 16.936,19.156 16.464,19.724 C15.992,20.292 15.284,20.576 14.34,20.576 C13.364,20.576 12.58,20.264 11.988,19.64 C11.844,19.496 11.696,19.296 11.544,19.04 C11.392,18.784 11.256,18.584 11.136,18.44 C11.016,18.296 10.876,18.224 10.716,18.224 C10.3,18.224 10.092,18.408 10.092,18.776 C10.092,19.336 10.508,19.928 11.34,20.552 C12.172,21.176 13.236,21.488 14.532,21.488 Z" id="I3"></path>
                </g>
                <g id="i2-copy" transform="translate(38.000000, 0.000000)" fill-rule="nonzero">
                    <path d="M7.5,17 L7.5,16.496 C6.508,16.496 5.88,16.328 5.616,15.992 C5.352,15.656 5.22,14.888 5.22,13.688 L5.22,13.688 L5.22,5.888 C5.22,4.688 5.352,3.924 5.616,3.596 C5.88,3.268 6.508,3.104 7.5,3.104 L7.5,3.104 L7.5,2.6 L1.02,2.6 L1.02,3.104 C2.012,3.104 2.64,3.268 2.904,3.596 C3.168,3.924 3.3,4.688 3.3,5.888 L3.3,5.888 L3.3,13.688 C3.3,14.888 3.168,15.656 2.904,15.992 C2.64,16.328 2.012,16.496 1.02,16.496 L1.02,16.496 L1.02,17 L7.5,17 Z M18.444,18.896 L19.044,15.608 L12.828,15.608 L16.524,12.776 L16.764,12.632 C16.908,12.52 17.088,12.356 17.304,12.14 C17.52,11.924 17.736,11.688 17.952,11.432 C18.168,11.176 18.352,10.864 18.504,10.496 C18.656,10.128 18.732,9.768 18.732,9.416 C18.732,8.456 18.276,7.68 17.364,7.088 C16.452,6.496 15.38,6.2 14.148,6.2 C12.82,6.2 11.756,6.524 10.956,7.172 C10.156,7.82 9.792,8.572 9.864,9.428 C9.936,10.284 10.436,10.992 11.364,11.552 L11.364,11.552 L12.084,10.808 C11.556,9.816 11.54,8.968 12.036,8.264 C12.532,7.56 13.236,7.208 14.148,7.208 C14.932,7.208 15.56,7.408 16.032,7.808 C16.504,8.208 16.74,8.752 16.74,9.44 C16.74,10.656 15.972,11.872 14.436,13.088 L14.436,13.088 L10.188,16.424 L10.188,17 L15.132,17 C16.332,17 17.1,17.116 17.436,17.348 C17.772,17.58 17.94,18.096 17.94,18.896 L17.94,18.896 L18.444,18.896 Z" id="I2"></path>
                </g>
                <g id="i1-copy" fill-rule="nonzero">
                    <path d="M8.384,17 L8.384,16.496 C7.392,16.496 6.764,16.328 6.5,15.992 C6.236,15.656 6.104,14.888 6.104,13.688 L6.104,13.688 L6.104,5.888 C6.104,4.688 6.236,3.924 6.5,3.596 C6.764,3.268 7.392,3.104 8.384,3.104 L8.384,3.104 L8.384,2.6 L1.904,2.6 L1.904,3.104 C2.896,3.104 3.524,3.268 3.788,3.596 C4.052,3.924 4.184,4.688 4.184,5.888 L4.184,5.888 L4.184,13.688 C4.184,14.888 4.052,15.656 3.788,15.992 C3.524,16.328 2.896,16.496 1.904,16.496 L1.904,16.496 L1.904,17 L8.384,17 Z M16.808,17 L16.808,16.496 C15.8,16.496 15.164,16.332 14.9,16.004 C14.636,15.676 14.504,14.904 14.504,13.688 L14.504,13.688 L14.504,9.896 C14.504,8.68 14.636,7.908 14.9,7.58 C15.164,7.252 15.8,7.088 16.808,7.088 L16.808,7.088 L16.808,6.608 L10.496,6.608 L10.496,7.088 C11.488,7.088 12.12,7.256 12.392,7.592 C12.664,7.928 12.8,8.696 12.8,9.896 L12.8,9.896 L12.8,13.688 C12.8,14.888 12.664,15.656 12.392,15.992 C12.12,16.328 11.488,16.496 10.496,16.496 L10.496,16.496 L10.496,17 L16.808,17 Z" id="I1"></path>
                </g>
                <text id="=" font-family="Lato-Regular, Lato" font-size="18" font-weight="normal" letter-spacing="0.6950495">
                    <tspan x="63.9324752" y="18">=</tspan>
                </text>
                <text id="+" font-family="Lato-Regular, Lato" font-size="18" font-weight="normal" letter-spacing="0.6950495">
                    <tspan x="23.9324752" y="18">+</tspan>
                </text>
                <text id="+-copy" font-family="Lato-Regular, Lato" font-size="18" font-weight="normal" letter-spacing="0.6950495">
                    <tspan x="101.932475" y="18">+</tspan>
                </text>
            </g>
            <line x1="115" y1="110" x2="159.003711" y2="83.7470674" id="Path-4" stroke="#524740" stroke-width="2"></line>
            <line x1="116" y1="110.747067" x2="256" y2="166" id="Path-4-Copy-2" stroke="#524740" stroke-width="2"></line>
            <line x1="218" y1="48.2529326" x2="262.003711" y2="22" id="Path-4-Copy" stroke="#524740" stroke-width="2"></line>
        </g>
    </g>
</svg>