<?xml version="1.0" encoding="UTF-8"?>
<svg width="900px" height="350px" viewBox="0 0 900 350" version="1.1" xmlns="http://www.w3.org/2000/svg" xmlns:xlink="http://www.w3.org/1999/xlink">
    <!-- Generator: Sketch 60.1 (88133) - https://sketch.com -->
    <title>Kirchhoffs_Voltage_Law</title>
    <desc>Created with Sketch.</desc>
    <g id="Kirchhoffs_Voltage_Law" stroke="none" stroke-width="1" fill="none" fill-rule="evenodd">
        <g id="Illustration_Frame">
            <rect id="Rectangle" stroke="#3D3530" stroke-width="2" fill="#EEEEEE" x="1" y="1" width="898" height="348"></rect>
            <rect id="Rectangle-Copy" stroke="#3D3530" stroke-width="2" fill="#F8FAE4" x="1" y="306" width="898" height="43"></rect>
            <path d="M611.970666,335 L611.970666,330.632 L614.514666,327.488 L619.554666,335 L621.354666,335 L615.498666,326.288 L621.522666,318.872 L619.626666,318.872 L611.970666,328.304 L611.970666,318.872 L610.386666,318.872 L610.386666,335 L611.970666,335 Z M626.653333,319.688 C626.925333,319.688 627.149333,319.592 627.325333,319.4 C627.517333,319.208 627.613333,318.984 627.613333,318.728 C627.613333,318.472 627.521333,318.248 627.337333,318.056 C627.153333,317.864 626.925333,317.768 626.653333,317.768 C626.381333,317.768 626.153333,317.864 625.969333,318.056 C625.785333,318.248 625.693333,318.472 625.693333,318.728 C625.693333,318.984 625.785333,319.208 625.969333,319.4 C626.153333,319.592 626.381333,319.688 626.653333,319.688 Z M627.445333,335 L627.445333,323 L625.861333,323 L625.861333,335 L627.445333,335 Z M633.367999,335 L633.367999,327.968 C633.367999,326.928 633.711999,326.052 634.399999,325.34 C635.087999,324.628 635.935999,324.272 636.943999,324.272 C637.631999,324.272 638.311999,324.52 638.983999,325.016 L638.983999,325.016 L639.535999,323.432 C638.831999,323.016 638.055999,322.808 637.207999,322.808 C635.623999,322.808 634.343999,323.464 633.367999,324.776 L633.367999,324.776 L633.367999,323 L631.783999,323 L631.783999,335 L633.367999,335 Z M646.850666,335.192 C647.938666,335.192 648.950666,334.924 649.886666,334.388 C650.822666,333.852 651.562666,333.136 652.106666,332.24 L652.106666,332.24 L650.666666,331.544 C650.234666,332.2 649.682666,332.72 649.010666,333.104 C648.338666,333.488 647.618666,333.68 646.850666,333.68 C645.554666,333.68 644.462666,333.228 643.574666,332.324 C642.686666,331.42 642.242666,330.312 642.242666,329 C642.242666,327.688 642.686666,326.58 643.574666,325.676 C644.462666,324.772 645.554666,324.32 646.850666,324.32 C647.618666,324.32 648.338666,324.512 649.010666,324.896 C649.682666,325.28 650.234666,325.8 650.666666,326.456 L650.666666,326.456 L652.106666,325.76 C651.562666,324.864 650.822666,324.148 649.886666,323.612 C648.950666,323.076 647.938666,322.808 646.850666,322.808 C645.138666,322.808 643.678666,323.412 642.470666,324.62 C641.262666,325.828 640.658666,327.288 640.658666,329 C640.658666,330.712 641.262666,332.172 642.470666,333.38 C643.678666,334.588 645.138666,335.192 646.850666,335.192 Z M657.165333,335 L657.165333,327.968 C657.165333,326.944 657.513333,326.076 658.209333,325.364 C658.905333,324.652 659.749333,324.296 660.741333,324.296 C661.749333,324.296 662.597333,324.652 663.285333,325.364 C663.973333,326.076 664.317333,326.952 664.317333,327.992 L664.317333,327.992 L664.317333,335 L665.925333,335 L665.925333,327.968 C665.925333,326.528 665.453333,325.308 664.509333,324.308 C663.565333,323.308 662.397333,322.808 661.005333,322.808 C659.421333,322.808 658.141333,323.464 657.165333,324.776 L657.165333,324.776 L657.165333,317.144 L655.581333,317.144 L655.581333,335 L657.165333,335 Z M671.367999,335 L671.367999,327.968 C671.367999,326.944 671.715999,326.076 672.411999,325.364 C673.107999,324.652 673.951999,324.296 674.943999,324.296 C675.951999,324.296 676.799999,324.652 677.487999,325.364 C678.175999,326.076 678.519999,326.952 678.519999,327.992 L678.519999,327.992 L678.519999,335 L680.127999,335 L680.127999,327.968 C680.127999,326.528 679.655999,325.308 678.711999,324.308 C677.767999,323.308 676.599999,322.808 675.207999,322.808 C673.623999,322.808 672.343999,323.464 671.367999,324.776 L671.367999,324.776 L671.367999,317.144 L669.783999,317.144 L669.783999,335 L671.367999,335 Z M689.242666,335.192 C690.954666,335.192 692.410666,334.584 693.610666,333.368 C694.826666,332.152 695.434666,330.696 695.434666,329 C695.434666,327.288 694.830666,325.828 693.622666,324.62 C692.414666,323.412 690.954666,322.808 689.242666,322.808 C687.530666,322.808 686.070666,323.412 684.862666,324.62 C683.654666,325.828 683.050666,327.288 683.050666,329 C683.050666,330.712 683.654666,332.172 684.862666,333.38 C686.070666,334.588 687.530666,335.192 689.242666,335.192 Z M689.266666,333.68 C687.986666,333.68 686.898666,333.228 686.002666,332.324 C685.106666,331.42 684.658666,330.312 684.658666,329 C684.658666,327.688 685.106666,326.576 686.002666,325.664 C686.898666,324.752 687.986666,324.296 689.266666,324.296 C690.562666,324.296 691.654666,324.752 692.542666,325.664 C693.430666,326.576 693.874666,327.688 693.874666,329 C693.874666,330.312 693.430666,331.42 692.542666,332.324 C691.654666,333.228 690.562666,333.68 689.266666,333.68 Z M700.757333,335 L700.757333,324.272 L703.109333,324.272 L703.109333,322.952 L700.757333,322.952 L700.757333,320.048 C700.757333,319.392 700.813333,318.948 700.925333,318.716 C701.037333,318.484 701.269333,318.368 701.621333,318.368 C701.941333,318.368 702.261333,318.408 702.581333,318.488 L702.581333,318.488 L702.917333,317.264 L702.701333,317.192 C702.557333,317.144 702.337333,317.096 702.041333,317.048 C701.745333,317 701.453333,316.976 701.165333,316.976 C699.853333,316.976 699.197333,317.808 699.197333,319.472 L699.197333,319.472 L699.197333,322.952 L697.781333,322.952 L697.781333,324.272 L699.197333,324.272 L699.197333,335 L700.757333,335 Z M708.623999,335 L708.623999,324.272 L710.975999,324.272 L710.975999,322.952 L708.623999,322.952 L708.623999,320.048 C708.623999,319.392 708.679999,318.948 708.791999,318.716 C708.903999,318.484 709.135999,318.368 709.487999,318.368 C709.807999,318.368 710.127999,318.408 710.447999,318.488 L710.447999,318.488 L710.783999,317.264 L710.567999,317.192 C710.423999,317.144 710.203999,317.096 709.907999,317.048 C709.611999,317 709.319999,316.976 709.031999,316.976 C707.719999,316.976 707.063999,317.808 707.063999,319.472 L707.063999,319.472 L707.063999,322.952 L705.647999,322.952 L705.647999,324.272 L707.063999,324.272 L707.063999,335 L708.623999,335 Z M714.450666,323.504 L714.690666,320.12 L713.274666,320.12 L713.538666,323.504 L714.450666,323.504 Z M721.069333,335.192 C722.541333,335.192 723.645333,334.88 724.381333,334.256 C725.117333,333.632 725.485333,332.816 725.485333,331.808 C725.485333,331.088 725.221333,330.476 724.693333,329.972 C724.165333,329.468 723.521333,329.084 722.761333,328.82 C722.001333,328.556 721.245333,328.312 720.493333,328.088 C719.741333,327.864 719.101333,327.596 718.573333,327.284 C718.045333,326.972 717.781333,326.6 717.781333,326.168 C717.781333,325.56 718.049333,325.088 718.585333,324.752 C719.121333,324.416 719.821333,324.248 720.685333,324.248 C721.293333,324.248 721.901333,324.384 722.509333,324.656 C723.117333,324.928 723.521333,325.144 723.721333,325.304 C723.921333,325.464 724.077333,325.6 724.189333,325.712 L724.189333,325.712 L725.317333,324.728 L724.813333,324.248 C724.477333,323.928 723.925333,323.608 723.157333,323.288 C722.389333,322.968 721.573333,322.808 720.709333,322.808 C719.253333,322.808 718.153333,323.124 717.409333,323.756 C716.665333,324.388 716.293333,325.2 716.293333,326.192 C716.293333,326.912 716.557333,327.52 717.085333,328.016 C717.613333,328.512 718.257333,328.896 719.017333,329.168 C719.777333,329.44 720.533333,329.688 721.285333,329.912 C722.037333,330.136 722.677333,330.404 723.205333,330.716 C723.733333,331.028 723.997333,331.4 723.997333,331.832 C723.997333,332.44 723.733333,332.912 723.205333,333.248 C722.677333,333.584 721.973333,333.752 721.093333,333.752 C720.501333,333.752 719.901333,333.616 719.293333,333.344 C718.685333,333.072 718.281333,332.856 718.081333,332.696 C717.881333,332.536 717.725333,332.4 717.613333,332.288 L717.613333,332.288 L716.485333,333.248 L716.677333,333.464 C716.805333,333.592 717.005333,333.752 717.277333,333.944 C717.549333,334.136 717.857333,334.324 718.201333,334.508 C718.545333,334.692 718.973333,334.852 719.485333,334.988 C719.997333,335.124 720.525333,335.192 721.069333,335.192 Z M743.186666,335 L749.546666,318.872 L747.938666,318.872 L742.394666,332.96 L736.826666,318.872 L735.194666,318.872 L741.578666,335 L743.186666,335 Z M755.877333,335.192 C757.589333,335.192 759.045333,334.584 760.245333,333.368 C761.461333,332.152 762.069333,330.696 762.069333,329 C762.069333,327.288 761.465333,325.828 760.257333,324.62 C759.049333,323.412 757.589333,322.808 755.877333,322.808 C754.165333,322.808 752.705333,323.412 751.497333,324.62 C750.289333,325.828 749.685333,327.288 749.685333,329 C749.685333,330.712 750.289333,332.172 751.497333,333.38 C752.705333,334.588 754.165333,335.192 755.877333,335.192 Z M755.901333,333.68 C754.621333,333.68 753.533333,333.228 752.637333,332.324 C751.741333,331.42 751.293333,330.312 751.293333,329 C751.293333,327.688 751.741333,326.576 752.637333,325.664 C753.533333,324.752 754.621333,324.296 755.901333,324.296 C757.197333,324.296 758.289333,324.752 759.177333,325.664 C760.065333,326.576 760.509333,327.688 760.509333,329 C760.509333,330.312 760.065333,331.42 759.177333,332.324 C758.289333,333.228 757.197333,333.68 755.901333,333.68 Z M766.936,335 L766.936,317.144 L765.352,317.144 L765.352,335 L766.936,335 Z M775.354666,335.192 C775.946666,335.192 776.522666,335.036 777.082666,334.724 C777.642666,334.412 778.002666,334.168 778.162666,333.992 C778.322666,333.816 778.450666,333.664 778.546666,333.536 L778.546666,333.536 L777.754666,332.312 C777.754666,332.376 777.670666,332.516 777.502666,332.732 C777.334666,332.948 777.074666,333.168 776.722666,333.392 C776.370666,333.616 776.010666,333.728 775.642666,333.728 C775.050666,333.728 774.526666,333.512 774.070666,333.08 C773.614666,332.648 773.386666,332.064 773.386666,331.328 L773.386666,331.328 L773.386666,324.44 L777.010666,324.44 L777.010666,322.976 L773.386666,322.976 L773.386666,318.992 L771.802666,319.184 L771.802666,322.976 L769.882666,322.976 L769.882666,324.44 L771.802666,324.44 L771.802666,331.688 C771.802666,332.824 772.142666,333.692 772.822666,334.292 C773.502666,334.892 774.346666,335.192 775.354666,335.192 Z M786.197333,335.192 C788.085333,335.192 789.645333,334.48 790.877333,333.056 L790.877333,333.056 L790.877333,335 L792.461333,335 L792.461333,323 L790.877333,323 L790.877333,324.944 C789.661333,323.52 788.101333,322.808 786.197333,322.808 C784.485333,322.808 783.025333,323.412 781.817333,324.62 C780.609333,325.828 780.005333,327.288 780.005333,329 C780.005333,330.712 780.609333,332.172 781.817333,333.38 C783.025333,334.588 784.485333,335.192 786.197333,335.192 Z M786.221333,333.68 C784.941333,333.68 783.849333,333.228 782.945333,332.324 C782.041333,331.42 781.589333,330.312 781.589333,329 C781.589333,327.688 782.041333,326.58 782.945333,325.676 C783.849333,324.772 784.941333,324.32 786.221333,324.32 C787.517333,324.32 788.609333,324.772 789.497333,325.676 C790.385333,326.58 790.829333,327.688 790.829333,329 C790.829333,330.312 790.385333,331.42 789.497333,332.324 C788.609333,333.228 787.517333,333.68 786.221333,333.68 Z M802.008,340.112 C803.64,340.112 805.076,339.524 806.316,338.348 C807.556,337.172 808.184,335.712 808.2,333.968 L808.2,333.968 L808.2,323.024 L806.592,323.024 L806.592,324.968 C805.36,323.544 803.8,322.832 801.912,322.832 C800.2,322.832 798.74,323.436 797.532,324.644 C796.324,325.852 795.72,327.312 795.72,329.024 C795.72,330.736 796.324,332.196 797.532,333.404 C798.74,334.612 800.2,335.216 801.912,335.216 C803.816,335.216 805.376,334.504 806.592,333.08 L806.592,333.08 L806.592,333.968 L806.616,333.968 C806.6,335.216 806.148,336.308 805.26,337.244 C804.372,338.18 803.288,338.648 802.008,338.648 C800.92,338.648 799.952,338.344 799.104,337.736 C798.256,337.128 797.68,336.416 797.376,335.6 L797.376,335.6 L796.08,336.248 C796.448,337.24 797.156,338.132 798.204,338.924 C799.252,339.716 800.52,340.112 802.008,340.112 Z M801.936,333.728 C800.656,333.728 799.568,333.276 798.672,332.372 C797.776,331.468 797.328,330.36 797.328,329.048 C797.328,327.736 797.776,326.628 798.672,325.724 C799.568,324.82 800.656,324.368 801.936,324.368 C803.232,324.368 804.324,324.82 805.212,325.724 C806.1,326.628 806.544,327.736 806.544,329.048 C806.544,330.36 806.1,331.468 805.212,332.372 C804.324,333.276 803.232,333.728 801.936,333.728 Z M817.674666,335.072 C819.146666,335.088 820.414666,334.672 821.478666,333.824 C822.542666,332.976 823.258666,332.048 823.626666,331.04 L823.626666,331.04 L822.282667,330.56 C821.978667,331.376 821.402667,332.088 820.554666,332.696 C819.706666,333.304 818.746666,333.608 817.674666,333.608 C816.682666,333.624 815.778666,333.324 814.962666,332.708 C814.146666,332.092 813.602666,331.304 813.330667,330.344 L813.330667,330.344 L823.818666,328.448 C823.818666,328.32 823.810666,328.216 823.794666,328.136 C823.618666,326.6 822.946666,325.312 821.778666,324.272 C820.610666,323.232 819.242666,322.704 817.674666,322.688 C815.946666,322.704 814.482666,323.312 813.282667,324.512 C812.082666,325.712 811.482666,327.176 811.482666,328.904 C811.482666,329.528 811.562666,330.104 811.722666,330.632 C812.122666,331.928 812.878667,332.992 813.990666,333.824 C815.102666,334.656 816.330667,335.072 817.674666,335.072 Z M813.090666,329.048 C813.090666,328.968 813.086666,328.868 813.078666,328.748 C813.070666,328.628 813.066666,328.544 813.066666,328.496 C813.130666,327.312 813.590666,326.296 814.446666,325.448 C815.302666,324.6 816.330667,324.168 817.530666,324.152 C818.554666,324.136 819.482666,324.436 820.314666,325.052 C821.146666,325.668 821.714666,326.464 822.018666,327.44 L822.018666,327.44 L813.090666,329.048 Z M843.488,335 L843.488,333.416 L836.144,333.416 L836.144,318.872 L834.56,318.872 L834.56,335 L843.488,335 Z M851.450667,335.192 C853.338667,335.192 854.898667,334.48 856.130667,333.056 L856.130667,333.056 L856.130667,335 L857.714667,335 L857.714667,323 L856.130667,323 L856.130667,324.944 C854.914667,323.52 853.354667,322.808 851.450667,322.808 C849.738667,322.808 848.278667,323.412 847.070667,324.62 C845.862667,325.828 845.258667,327.288 845.258667,329 C845.258667,330.712 845.862667,332.172 847.070667,333.38 C848.278667,334.588 849.738667,335.192 851.450667,335.192 Z M851.474667,333.68 C850.194667,333.68 849.102667,333.228 848.198667,332.324 C847.294667,331.42 846.842667,330.312 846.842667,329 C846.842667,327.688 847.294667,326.58 848.198667,325.676 C849.102667,324.772 850.194667,324.32 851.474667,324.32 C852.770667,324.32 853.862667,324.772 854.750667,325.676 C855.638667,326.58 856.082667,327.688 856.082667,329 C856.082667,330.312 855.638667,331.42 854.750667,332.324 C853.862667,333.228 852.770667,333.68 851.474667,333.68 Z M865.989333,335 L869.373333,325.112 L872.757333,335 L874.341333,335 L878.589333,323 L877.005333,323 L873.549333,332.768 L870.093333,323 L868.653333,323 L865.197333,332.768 L861.765333,323 L860.181333,323 L864.405333,335 L865.989333,335 Z" id="Kirchhoff'sVoltageLaw" fill="#23ABE3" fill-rule="nonzero"></path>
        </g>
        <g transform="translate(177.000000, 15.000000)">
            <path id="Line-11-Copy-5" d="M174.5,56 L184,75 L176,75 L176,86.5 L173,86.5 L173,75 L165,75 L174.5,56 Z" fill="#B09679" fill-rule="nonzero"></path>
            <path id="Line-11-Copy-8" d="M409,183.5 L409,195 L417,195 L407.5,214 L398,195 L406,195 L406,183.5 L409,183.5 Z" fill="#B09679" fill-rule="nonzero"></path>
            <g id="V1" transform="translate(280.000000, 60.000000)" fill="#1A80AA" fill-rule="nonzero">
                <path d="M9.3,17.408 L14.58,5.192 C14.98,4.264 15.32,3.684 15.6,3.452 C15.88,3.22 16.492,3.104 17.436,3.104 L17.436,3.104 L17.436,2.6 L11.844,2.6 L11.844,3.104 C12.836,3.104 13.472,3.244 13.752,3.524 C14.032,3.804 14.02,4.272 13.716,4.928 L13.716,4.928 L9.684,14.264 L5.604,4.928 C5.3,4.272 5.288,3.804 5.568,3.524 C5.848,3.244 6.484,3.104 7.476,3.104 L7.476,3.104 L7.476,2.6 L0.828,2.6 L0.828,3.104 C1.772,3.104 2.384,3.22 2.664,3.452 C2.944,3.684 3.284,4.264 3.684,5.192 L3.684,5.192 L8.988,17.408 L9.3,17.408 Z M24.06,17 L24.06,16.496 C23.052,16.496 22.416,16.332 22.152,16.004 C21.888,15.676 21.756,14.904 21.756,13.688 L21.756,13.688 L21.756,9.896 C21.756,8.68 21.888,7.908 22.152,7.58 C22.416,7.252 23.052,7.088 24.06,7.088 L24.06,7.088 L24.06,6.608 L17.748,6.608 L17.748,7.088 C18.74,7.088 19.372,7.256 19.644,7.592 C19.916,7.928 20.052,8.696 20.052,9.896 L20.052,9.896 L20.052,13.688 C20.052,14.888 19.916,15.656 19.644,15.992 C19.372,16.328 18.74,16.496 17.748,16.496 L17.748,16.496 L17.748,17 L24.06,17 Z"></path>
            </g>
            <g id="V3" transform="translate(278.000000, 248.000000)" fill="#1A80AA" fill-rule="nonzero">
                <path d="M9.416,17.408 L14.696,5.192 C15.096,4.264 15.436,3.684 15.716,3.452 C15.996,3.22 16.608,3.104 17.552,3.104 L17.552,3.104 L17.552,2.6 L11.96,2.6 L11.96,3.104 C12.952,3.104 13.588,3.244 13.868,3.524 C14.148,3.804 14.136,4.272 13.832,4.928 L13.832,4.928 L9.8,14.264 L5.72,4.928 C5.416,4.272 5.404,3.804 5.684,3.524 C5.964,3.244 6.6,3.104 7.592,3.104 L7.592,3.104 L7.592,2.6 L0.944,2.6 L0.944,3.104 C1.888,3.104 2.5,3.22 2.78,3.452 C3.06,3.684 3.4,4.264 3.8,5.192 L3.8,5.192 L9.104,17.408 L9.416,17.408 Z M26.696,18.896 L27.296,15.608 L21.08,15.608 L24.776,12.776 L25.016,12.632 C25.16,12.52 25.34,12.356 25.556,12.14 C25.772,11.924 25.988,11.688 26.204,11.432 C26.42,11.176 26.604,10.864 26.756,10.496 C26.908,10.128 26.984,9.768 26.984,9.416 C26.984,8.456 26.528,7.68 25.616,7.088 C24.704,6.496 23.632,6.2 22.4,6.2 C21.072,6.2 20.008,6.524 19.208,7.172 C18.408,7.82 18.044,8.572 18.116,9.428 C18.188,10.284 18.688,10.992 19.616,11.552 L19.616,11.552 L20.336,10.808 C19.808,9.816 19.792,8.968 20.288,8.264 C20.784,7.56 21.488,7.208 22.4,7.208 C23.184,7.208 23.812,7.408 24.284,7.808 C24.756,8.208 24.992,8.752 24.992,9.44 C24.992,10.656 24.224,11.872 22.688,13.088 L22.688,13.088 L18.44,16.424 L18.44,17 L23.384,17 C24.584,17 25.352,17.116 25.688,17.348 C26.024,17.58 26.192,18.096 26.192,18.896 L26.192,18.896 L26.696,18.896 Z" id="V2"></path>
            </g>
            <g id="V2" transform="translate(345.000000, 124.000000)" fill="#1A80AA" fill-rule="nonzero">
                <path d="M9.416,17.408 L14.696,5.192 C15.096,4.264 15.436,3.684 15.716,3.452 C15.996,3.22 16.608,3.104 17.552,3.104 L17.552,3.104 L17.552,2.6 L11.96,2.6 L11.96,3.104 C12.952,3.104 13.588,3.244 13.868,3.524 C14.148,3.804 14.136,4.272 13.832,4.928 L13.832,4.928 L9.8,14.264 L5.72,4.928 C5.416,4.272 5.404,3.804 5.684,3.524 C5.964,3.244 6.6,3.104 7.592,3.104 L7.592,3.104 L7.592,2.6 L0.944,2.6 L0.944,3.104 C1.888,3.104 2.5,3.22 2.78,3.452 C3.06,3.684 3.4,4.264 3.8,5.192 L3.8,5.192 L9.104,17.408 L9.416,17.408 Z M26.696,18.896 L27.296,15.608 L21.08,15.608 L24.776,12.776 L25.016,12.632 C25.16,12.52 25.34,12.356 25.556,12.14 C25.772,11.924 25.988,11.688 26.204,11.432 C26.42,11.176 26.604,10.864 26.756,10.496 C26.908,10.128 26.984,9.768 26.984,9.416 C26.984,8.456 26.528,7.68 25.616,7.088 C24.704,6.496 23.632,6.2 22.4,6.2 C21.072,6.2 20.008,6.524 19.208,7.172 C18.408,7.82 18.044,8.572 18.116,9.428 C18.188,10.284 18.688,10.992 19.616,11.552 L19.616,11.552 L20.336,10.808 C19.808,9.816 19.792,8.968 20.288,8.264 C20.784,7.56 21.488,7.208 22.4,7.208 C23.184,7.208 23.812,7.408 24.284,7.808 C24.756,8.208 24.992,8.752 24.992,9.44 C24.992,10.656 24.224,11.872 22.688,13.088 L22.688,13.088 L18.44,16.424 L18.44,17 L23.384,17 C24.584,17 25.352,17.116 25.688,17.348 C26.024,17.58 26.192,18.096 26.192,18.896 L26.192,18.896 L26.696,18.896 Z"></path>
            </g>
            <g id="VS" transform="translate(180.000000, 125.000000)" fill="#1A80AA" fill-rule="nonzero">
                <path d="M8.576,17.408 L13.856,5.192 C14.256,4.264 14.596,3.684 14.876,3.452 C15.156,3.22 15.768,3.104 16.712,3.104 L16.712,3.104 L16.712,2.6 L11.12,2.6 L11.12,3.104 C12.112,3.104 12.748,3.244 13.028,3.524 C13.308,3.804 13.296,4.272 12.992,4.928 L12.992,4.928 L8.96,14.264 L4.88,4.928 C4.576,4.272 4.564,3.804 4.844,3.524 C5.124,3.244 5.76,3.104 6.752,3.104 L6.752,3.104 L6.752,2.6 L0.104,2.6 L0.104,3.104 C1.048,3.104 1.66,3.22 1.94,3.452 C2.22,3.684 2.56,4.264 2.96,5.192 L2.96,5.192 L8.264,17.408 L8.576,17.408 Z M17.48,17.408 C17.48,17.088 17.512,16.872 17.576,16.76 C17.64,16.648 17.752,16.62 17.912,16.676 C18.072,16.732 18.244,16.812 18.428,16.916 C18.612,17.02 18.856,17.128 19.16,17.24 C19.464,17.352 19.76,17.408 20.048,17.408 C20.848,17.408 21.524,17.164 22.076,16.676 C22.628,16.188 22.904,15.56 22.904,14.792 C22.904,13.88 22.352,13.112 21.248,12.488 L21.248,12.488 L20.096,11.864 C19.536,11.56 19.152,11.308 18.944,11.108 C18.736,10.908 18.632,10.672 18.632,10.4 C18.632,10.096 18.736,9.848 18.944,9.656 C19.152,9.464 19.456,9.368 19.856,9.368 C20.432,9.368 20.9,9.572 21.26,9.98 C21.62,10.388 21.8,10.856 21.8,11.384 L21.8,11.384 L22.304,11.384 L22.304,8.6 L21.8,8.6 C21.8,8.92 21.764,9.1 21.692,9.14 C21.62,9.18 21.488,9.144 21.296,9.032 C20.72,8.744 20.16,8.6 19.616,8.6 C18.976,8.6 18.412,8.808 17.924,9.224 C17.436,9.64 17.192,10.16 17.192,10.784 C17.192,11.808 17.72,12.608 18.776,13.184 L18.776,13.184 L20.12,13.904 C21.016,14.384 21.464,14.872 21.464,15.368 C21.464,15.704 21.332,15.992 21.068,16.232 C20.804,16.472 20.48,16.592 20.096,16.592 C19.312,16.592 18.68,16.3 18.2,15.716 C17.72,15.132 17.48,14.528 17.48,13.904 L17.48,13.904 L16.976,13.904 L16.976,17.408 L17.48,17.408 Z" id="Vs"></path>
            </g>
            <polyline id="Resistor" stroke="#524740" stroke-width="2" stroke-linejoin="bevel" points="257 42 262 42 267 29 277 55 287 29 297 55 307 29 317 55 322 42 327 42"></polyline>
            <g id="R1" transform="translate(279.000000, 0.000000)" fill="#524740" fill-rule="nonzero">
                <path d="M7.596,17 L7.596,16.496 C6.604,16.496 5.976,16.328 5.712,15.992 C5.448,15.656 5.316,14.888 5.316,13.688 L5.316,13.688 L5.316,10.688 L6.444,10.688 L11.196,17 L15.156,17 L15.156,16.496 C13.748,16.336 12.26,15.32 10.692,13.448 L10.692,13.448 L8.34,10.688 C9.668,10.544 10.712,10.104 11.472,9.368 C12.232,8.632 12.612,7.728 12.612,6.656 C12.612,5.488 12.156,4.52 11.244,3.752 C10.332,2.984 9.068,2.6 7.452,2.6 L7.452,2.6 L1.116,2.6 L1.116,3.104 C2.108,3.104 2.736,3.268 3,3.596 C3.264,3.924 3.396,4.688 3.396,5.888 L3.396,5.888 L3.396,13.688 C3.396,14.888 3.264,15.656 3,15.992 C2.736,16.328 2.108,16.496 1.116,16.496 L1.116,16.496 L1.116,17 L7.596,17 Z M7.428,9.824 L5.316,9.824 L5.316,3.488 L7.428,3.488 C8.42,3.488 9.176,3.784 9.696,4.376 C10.216,4.968 10.476,5.728 10.476,6.656 C10.476,7.584 10.216,8.344 9.696,8.936 C9.176,9.528 8.42,9.824 7.428,9.824 L7.428,9.824 Z M22.596,17 L22.596,16.496 C21.588,16.496 20.952,16.332 20.688,16.004 C20.424,15.676 20.292,14.904 20.292,13.688 L20.292,13.688 L20.292,9.896 C20.292,8.68 20.424,7.908 20.688,7.58 C20.952,7.252 21.588,7.088 22.596,7.088 L22.596,7.088 L22.596,6.608 L16.284,6.608 L16.284,7.088 C17.276,7.088 17.908,7.256 18.18,7.592 C18.452,7.928 18.588,8.696 18.588,9.896 L18.588,9.896 L18.588,13.688 C18.588,14.888 18.452,15.656 18.18,15.992 C17.908,16.328 17.276,16.496 16.284,16.496 L16.284,16.496 L16.284,17 L22.596,17 Z"></path>
            </g>
            <g id="R3" transform="translate(277.000000, 185.000000)" fill="#524740" fill-rule="nonzero">
                <path d="M7.856,17 L7.856,16.496 C6.864,16.496 6.236,16.328 5.972,15.992 C5.708,15.656 5.576,14.888 5.576,13.688 L5.576,13.688 L5.576,10.688 L6.704,10.688 L11.456,17 L15.416,17 L15.416,16.496 C14.008,16.336 12.52,15.32 10.952,13.448 L10.952,13.448 L8.6,10.688 C9.928,10.544 10.972,10.104 11.732,9.368 C12.492,8.632 12.872,7.728 12.872,6.656 C12.872,5.488 12.416,4.52 11.504,3.752 C10.592,2.984 9.328,2.6 7.712,2.6 L7.712,2.6 L1.376,2.6 L1.376,3.104 C2.368,3.104 2.996,3.268 3.26,3.596 C3.524,3.924 3.656,4.688 3.656,5.888 L3.656,5.888 L3.656,13.688 C3.656,14.888 3.524,15.656 3.26,15.992 C2.996,16.328 2.368,16.496 1.376,16.496 L1.376,16.496 L1.376,17 L7.856,17 Z M7.688,9.824 L5.576,9.824 L5.576,3.488 L7.688,3.488 C8.68,3.488 9.436,3.784 9.956,4.376 C10.476,4.968 10.736,5.728 10.736,6.656 C10.736,7.584 10.476,8.344 9.956,8.936 C9.436,9.528 8.68,9.824 7.688,9.824 L7.688,9.824 Z M21.32,21.488 C22.664,21.488 23.796,21.096 24.716,20.312 C25.636,19.528 26.096,18.584 26.096,17.48 C26.096,16.552 25.76,15.736 25.088,15.032 C24.416,14.328 23.504,13.856 22.352,13.616 L22.352,13.616 L23.456,12.776 L23.696,12.632 C23.84,12.52 24.02,12.356 24.236,12.14 C24.452,11.924 24.668,11.688 24.884,11.432 C25.1,11.176 25.284,10.864 25.436,10.496 C25.588,10.128 25.664,9.768 25.664,9.416 C25.664,8.456 25.208,7.68 24.296,7.088 C23.384,6.496 22.312,6.2 21.08,6.2 C19.752,6.2 18.688,6.524 17.888,7.172 C17.088,7.82 16.724,8.572 16.796,9.428 C16.868,10.284 17.368,10.992 18.296,11.552 L18.296,11.552 L19.016,10.808 C18.44,9.816 18.432,8.968 18.992,8.264 C19.552,7.56 20.248,7.208 21.08,7.208 C21.864,7.208 22.496,7.408 22.976,7.808 C23.456,8.208 23.696,8.744 23.696,9.416 C23.696,10.008 23.548,10.58 23.252,11.132 C22.956,11.684 22.576,12.136 22.112,12.488 L22.112,12.488 L20.336,13.904 C19.92,14.208 19.712,14.504 19.712,14.792 C19.712,14.952 19.764,15.084 19.868,15.188 C19.972,15.292 20.088,15.344 20.216,15.344 C20.36,15.344 20.504,15.284 20.648,15.164 C20.792,15.044 20.948,14.884 21.116,14.684 C21.284,14.484 21.424,14.336 21.536,14.24 C22.368,14.416 22.98,14.808 23.372,15.416 C23.764,16.024 23.96,16.712 23.96,17.48 C23.96,18.408 23.724,19.156 23.252,19.724 C22.78,20.292 22.072,20.576 21.128,20.576 C20.152,20.576 19.368,20.264 18.776,19.64 C18.632,19.496 18.484,19.296 18.332,19.04 C18.18,18.784 18.044,18.584 17.924,18.44 C17.804,18.296 17.664,18.224 17.504,18.224 C17.088,18.224 16.88,18.408 16.88,18.776 C16.88,19.336 17.296,19.928 18.128,20.552 C18.96,21.176 20.024,21.488 21.32,21.488 Z"></path>
            </g>
            <g id="R2" transform="translate(407.000000, 124.000000)" fill="#524740" fill-rule="nonzero">
                <path d="M7.712,17 L7.712,16.496 C6.72,16.496 6.092,16.328 5.828,15.992 C5.564,15.656 5.432,14.888 5.432,13.688 L5.432,13.688 L5.432,10.688 L6.56,10.688 L11.312,17 L15.272,17 L15.272,16.496 C13.864,16.336 12.376,15.32 10.808,13.448 L10.808,13.448 L8.456,10.688 C9.784,10.544 10.828,10.104 11.588,9.368 C12.348,8.632 12.728,7.728 12.728,6.656 C12.728,5.488 12.272,4.52 11.36,3.752 C10.448,2.984 9.184,2.6 7.568,2.6 L7.568,2.6 L1.232,2.6 L1.232,3.104 C2.224,3.104 2.852,3.268 3.116,3.596 C3.38,3.924 3.512,4.688 3.512,5.888 L3.512,5.888 L3.512,13.688 C3.512,14.888 3.38,15.656 3.116,15.992 C2.852,16.328 2.224,16.496 1.232,16.496 L1.232,16.496 L1.232,17 L7.712,17 Z M7.544,9.824 L5.432,9.824 L5.432,3.488 L7.544,3.488 C8.536,3.488 9.292,3.784 9.812,4.376 C10.332,4.968 10.592,5.728 10.592,6.656 C10.592,7.584 10.332,8.344 9.812,8.936 C9.292,9.528 8.536,9.824 7.544,9.824 L7.544,9.824 Z M25.232,18.896 L25.832,15.608 L19.616,15.608 L23.312,12.776 L23.552,12.632 C23.696,12.52 23.876,12.356 24.092,12.14 C24.308,11.924 24.524,11.688 24.74,11.432 C24.956,11.176 25.14,10.864 25.292,10.496 C25.444,10.128 25.52,9.768 25.52,9.416 C25.52,8.456 25.064,7.68 24.152,7.088 C23.24,6.496 22.168,6.2 20.936,6.2 C19.608,6.2 18.544,6.524 17.744,7.172 C16.944,7.82 16.58,8.572 16.652,9.428 C16.724,10.284 17.224,10.992 18.152,11.552 L18.152,11.552 L18.872,10.808 C18.344,9.816 18.328,8.968 18.824,8.264 C19.32,7.56 20.024,7.208 20.936,7.208 C21.72,7.208 22.348,7.408 22.82,7.808 C23.292,8.208 23.528,8.752 23.528,9.44 C23.528,10.656 22.76,11.872 21.224,13.088 L21.224,13.088 L16.976,16.424 L16.976,17 L21.92,17 C23.12,17 23.888,17.116 24.224,17.348 C24.56,17.58 24.728,18.096 24.728,18.896 L24.728,18.896 L25.232,18.896 Z"></path>
            </g>
            <polyline id="Resistor-Copy-5" stroke="#524740" stroke-width="2" stroke-linejoin="bevel" transform="translate(392.000000, 134.000000) rotate(90.000000) translate(-392.000000, -134.000000) " points="357 134 362 134 367 121 377 147 387 121 397 147 407 121 417 147 422 134 427 134"></polyline>
            <polyline id="Resistor-Copy-2" stroke="#524740" stroke-width="2" stroke-linejoin="bevel" points="257 227 262 227 267 214 277 240 287 214 297 240 307 214 317 240 322 227 327 227"></polyline>
            <path d="M8.784,140.408 L14.064,128.192 C14.464,127.264 14.804,126.684 15.084,126.452 C15.364,126.22 15.976,126.104 16.92,126.104 L16.92,126.104 L16.92,125.6 L11.328,125.6 L11.328,126.104 C12.32,126.104 12.956,126.244 13.236,126.524 C13.516,126.804 13.504,127.272 13.2,127.928 L13.2,127.928 L9.168,137.264 L5.088,127.928 C4.784,127.272 4.772,126.804 5.052,126.524 C5.332,126.244 5.968,126.104 6.96,126.104 L6.96,126.104 L6.96,125.6 L0.312,125.6 L0.312,126.104 C1.256,126.104 1.868,126.22 2.148,126.452 C2.428,126.684 2.768,127.264 3.168,128.192 L3.168,128.192 L8.472,140.408 L8.784,140.408 Z M22.032,140.408 C23.36,140.408 24.5,139.976 25.452,139.112 C26.404,138.248 26.88,137.208 26.88,135.992 C26.88,134.776 26.4,133.744 25.44,132.896 C24.496,132.032 23.36,131.6 22.032,131.6 C20.704,131.6 19.564,132.028 18.612,132.884 C17.66,133.74 17.184,134.776 17.184,135.992 C17.184,137.208 17.66,138.248 18.612,139.112 C19.564,139.976 20.704,140.408 22.032,140.408 Z M22.032,139.472 C21.088,139.472 20.368,139.144 19.872,138.488 C19.376,137.832 19.128,137 19.128,135.992 C19.128,134.984 19.376,134.152 19.872,133.496 C20.368,132.84 21.088,132.512 22.032,132.512 C22.976,132.512 23.696,132.836 24.192,133.484 C24.688,134.132 24.936,134.968 24.936,135.992 C24.936,137.016 24.688,137.856 24.192,138.512 C23.696,139.152 22.976,139.472 22.032,139.472 Z M33.984,140 L33.984,139.496 C33.184,139.496 32.668,139.328 32.436,138.992 C32.204,138.656 32.088,137.888 32.088,136.688 L32.088,136.688 L32.088,125.192 L28.488,125.792 L28.488,126.296 C29.288,126.296 29.804,126.464 30.036,126.8 C30.268,127.136 30.384,127.904 30.384,129.104 L30.384,129.104 L30.384,136.688 C30.384,137.888 30.268,138.656 30.036,138.992 C29.804,139.328 29.288,139.496 28.488,139.496 L28.488,139.496 L28.488,140 L33.984,140 Z M38.616,140.336 C39.016,140.336 39.452,140.208 39.924,139.952 C40.396,139.696 40.8,139.368 41.136,138.968 L41.136,138.968 L40.728,138.56 C40.152,139.104 39.632,139.376 39.168,139.376 C38.448,139.376 38.088,138.8 38.088,137.648 L38.088,137.648 L38.088,132.848 L40.176,132.848 L40.176,132.008 L38.088,132.008 L38.088,129.368 L37.272,129.368 C37.176,130.2 36.968,130.856 36.648,131.336 C36.328,131.816 35.824,132.128 35.136,132.272 L35.136,132.272 L35.136,132.848 L36.384,132.848 L36.384,137.648 C36.384,138.544 36.584,139.216 36.984,139.664 C37.384,140.112 37.928,140.336 38.616,140.336 Z M44.616,140.312 C45.544,140.312 46.544,139.832 47.616,138.872 C47.744,139.8 48.288,140.264 49.248,140.264 C49.84,140.264 50.368,140.016 50.832,139.52 L50.832,139.52 L50.496,139.064 C50.256,139.304 50.032,139.424 49.824,139.424 C49.456,139.424 49.272,139.112 49.272,138.488 L49.272,138.488 L49.272,134.864 C49.272,133.712 49.016,132.88 48.504,132.368 C47.992,131.856 47.152,131.6 45.984,131.6 C45.184,131.6 44.476,131.78 43.86,132.14 C43.244,132.5 42.936,132.96 42.936,133.52 C42.936,133.76 43.016,133.96 43.176,134.12 C43.336,134.28 43.536,134.36 43.776,134.36 C44,134.36 44.192,134.28 44.352,134.12 C44.512,133.96 44.592,133.76 44.592,133.52 C44.592,133.168 44.74,132.888 45.036,132.68 C45.332,132.472 45.64,132.368 45.96,132.368 C46.616,132.368 47.048,132.552 47.256,132.92 C47.464,133.288 47.568,133.944 47.568,134.888 C44.16,135.48 42.456,136.616 42.456,138.296 C42.456,138.92 42.664,139.412 43.08,139.772 C43.496,140.132 44.008,140.312 44.616,140.312 Z M45.384,139.232 C45.064,139.232 44.796,139.12 44.58,138.896 C44.364,138.672 44.256,138.376 44.256,138.008 C44.256,136.936 45.36,136.144 47.568,135.632 L47.568,135.632 L47.568,138.08 C46.704,138.848 45.976,139.232 45.384,139.232 Z M55.872,146.408 C57.088,146.408 58.1,146.116 58.908,145.532 C59.716,144.948 60.12,144.168 60.12,143.192 C60.12,142.376 59.776,141.68 59.088,141.104 C58.4,140.528 57.288,140.176 55.752,140.048 C54.296,139.92 53.568,139.616 53.568,139.136 C53.568,138.672 54.464,138.336 56.256,138.128 C57.088,138.016 57.816,137.656 58.44,137.048 C59.064,136.44 59.376,135.712 59.376,134.864 C59.376,134.128 59.144,133.48 58.68,132.92 C58.936,132.664 59.184,132.536 59.424,132.536 C59.648,132.536 59.812,132.596 59.916,132.716 C60.02,132.836 60.084,132.964 60.108,133.1 C60.132,133.236 60.204,133.36 60.324,133.472 C60.444,133.584 60.624,133.632 60.864,133.616 C60.992,133.616 61.104,133.576 61.2,133.496 C61.488,133.272 61.56,132.936 61.416,132.488 C61.224,131.896 60.776,131.6 60.072,131.6 C59.8,131.6 59.484,131.688 59.124,131.864 C58.764,132.04 58.48,132.256 58.272,132.512 C57.584,131.904 56.76,131.6 55.8,131.6 C54.808,131.6 53.964,131.92 53.268,132.56 C52.572,133.2 52.224,133.968 52.224,134.864 C52.224,135.504 52.404,136.08 52.764,136.592 C53.124,137.104 53.616,137.504 54.24,137.792 C52.896,138.208 52.224,138.848 52.224,139.712 C52.224,140.976 53.36,141.72 55.632,141.944 C56.736,142.056 57.548,142.232 58.068,142.472 C58.588,142.712 58.848,143.096 58.848,143.624 C58.848,144.168 58.548,144.612 57.948,144.956 C57.348,145.3 56.656,145.472 55.872,145.472 C55.376,145.472 54.9,145.4 54.444,145.256 C53.988,145.112 53.604,144.912 53.292,144.656 C52.98,144.4 52.84,144.052 52.872,143.612 C52.904,143.172 53.152,142.688 53.616,142.16 L53.616,142.16 L53.184,141.896 C52.224,142.392 51.712,143 51.648,143.72 C51.584,144.44 51.948,145.068 52.74,145.604 C53.532,146.14 54.576,146.408 55.872,146.408 Z M55.8,137.336 C55.24,137.336 54.808,137.108 54.504,136.652 C54.2,136.196 54.048,135.6 54.048,134.864 C54.048,134.128 54.2,133.528 54.504,133.064 C54.808,132.6 55.24,132.368 55.8,132.368 C56.36,132.368 56.788,132.6 57.084,133.064 C57.38,133.528 57.528,134.128 57.528,134.864 C57.528,135.6 57.376,136.2 57.072,136.664 C56.784,137.112 56.36,137.336 55.8,137.336 Z M66.96,140.408 C67.632,140.408 68.304,140.26 68.976,139.964 C69.648,139.668 70.2,139.288 70.632,138.824 L70.632,138.824 L70.2,138.296 C69.864,138.616 69.44,138.88 68.928,139.088 C68.416,139.296 67.96,139.4 67.56,139.4 C66.376,139.4 65.524,139.028 65.004,138.284 C64.484,137.54 64.296,136.576 64.44,135.392 L64.44,135.392 L70.224,135.392 C70.512,134.384 70.312,133.5 69.624,132.74 C68.936,131.98 68.048,131.6 66.96,131.6 C65.808,131.6 64.78,132.024 63.876,132.872 C62.972,133.72 62.52,134.76 62.52,135.992 C62.52,137.224 62.936,138.268 63.768,139.124 C64.6,139.98 65.664,140.408 66.96,140.408 Z M68.568,134.504 L64.584,134.504 C64.76,133.912 65.052,133.44 65.46,133.088 C65.868,132.736 66.328,132.56 66.84,132.56 C67.56,132.56 68.068,132.772 68.364,133.196 C68.66,133.62 68.728,134.056 68.568,134.504 L68.568,134.504 Z M79.056,140.408 C79.152,139.96 79.384,139.584 79.752,139.28 C79.912,139.312 80.192,139.428 80.592,139.628 C80.992,139.828 81.44,140.008 81.936,140.168 C82.432,140.328 82.952,140.408 83.496,140.408 C84.776,140.408 85.86,140.008 86.748,139.208 C87.636,138.408 88.08,137.368 88.08,136.088 C88.08,134.504 87.24,133.288 85.56,132.44 L85.56,132.44 L83.28,131.264 C82.176,130.688 81.412,130.196 80.988,129.788 C80.564,129.38 80.352,128.88 80.352,128.288 C80.352,127.68 80.572,127.172 81.012,126.764 C81.452,126.356 82.008,126.152 82.68,126.152 C84.888,126.152 86.112,127.552 86.352,130.352 L86.352,130.352 L86.856,130.352 L86.856,125.072 L86.376,125.072 C86.28,125.504 86.048,125.872 85.68,126.176 C84.784,125.52 83.808,125.192 82.752,125.192 C81.6,125.192 80.648,125.536 79.896,126.224 C79.144,126.912 78.768,127.76 78.768,128.768 C78.768,129.632 79.024,130.408 79.536,131.096 C80.048,131.784 80.68,132.328 81.432,132.728 L81.432,132.728 L83.736,133.904 C85.576,134.864 86.496,135.832 86.496,136.808 C86.496,137.576 86.212,138.208 85.644,138.704 C85.076,139.2 84.36,139.448 83.496,139.448 C82.904,139.448 82.364,139.368 81.876,139.208 C81.388,139.048 80.996,138.848 80.7,138.608 C80.404,138.368 80.144,138.08 79.92,137.744 C79.696,137.408 79.532,137.104 79.428,136.832 C79.324,136.56 79.244,136.276 79.188,135.98 C79.132,135.684 79.1,135.484 79.092,135.38 C79.084,135.276 79.08,135.192 79.08,135.128 L79.08,135.128 L78.576,135.128 L78.576,140.408 L79.056,140.408 Z M95.256,140.408 C96.584,140.408 97.724,139.976 98.676,139.112 C99.628,138.248 100.104,137.208 100.104,135.992 C100.104,134.776 99.624,133.744 98.664,132.896 C97.72,132.032 96.584,131.6 95.256,131.6 C93.928,131.6 92.788,132.028 91.836,132.884 C90.884,133.74 90.408,134.776 90.408,135.992 C90.408,137.208 90.884,138.248 91.836,139.112 C92.788,139.976 93.928,140.408 95.256,140.408 Z M95.256,139.472 C94.312,139.472 93.592,139.144 93.096,138.488 C92.6,137.832 92.352,137 92.352,135.992 C92.352,134.984 92.6,134.152 93.096,133.496 C93.592,132.84 94.312,132.512 95.256,132.512 C96.2,132.512 96.92,132.836 97.416,133.484 C97.912,134.132 98.16,134.968 98.16,135.992 C98.16,137.016 97.912,137.856 97.416,138.512 C96.92,139.152 96.2,139.472 95.256,139.472 Z M110.112,140.408 L113.328,139.808 L113.328,139.304 C112.512,139.304 111.988,139.136 111.756,138.8 C111.524,138.464 111.408,137.696 111.408,136.496 L111.408,136.496 L111.408,132.008 L107.808,132.008 L107.808,132.488 C108.624,132.488 109.148,132.656 109.38,132.992 C109.612,133.328 109.728,134.096 109.728,135.296 L109.728,135.296 L109.728,136.88 C109.728,137.552 109.432,138.116 108.84,138.572 C108.248,139.028 107.68,139.256 107.136,139.256 C105.92,139.256 105.312,138.4 105.312,136.688 L105.312,136.688 L105.312,132.008 L101.712,132.008 L101.712,132.488 C102.512,132.488 103.028,132.656 103.26,132.992 C103.492,133.328 103.608,134.096 103.608,135.296 L103.608,135.296 L103.608,136.808 C103.608,139.208 104.6,140.408 106.584,140.408 C107.688,140.408 108.736,139.896 109.728,138.872 C109.856,139.64 109.984,140.152 110.112,140.408 L110.112,140.408 Z M120.192,140 L120.192,139.496 C119.392,139.496 118.876,139.328 118.644,138.992 C118.412,138.656 118.296,137.888 118.296,136.688 L118.296,136.688 L118.296,135.368 C118.296,134.52 118.512,133.84 118.944,133.328 C119.376,132.816 119.776,132.56 120.144,132.56 C120.656,132.56 120.912,132.824 120.912,133.352 C120.912,133.576 120.996,133.776 121.164,133.952 C121.332,134.128 121.528,134.216 121.752,134.216 C122.392,134.216 122.712,133.84 122.712,133.088 C122.712,132.736 122.548,132.4 122.22,132.08 C121.892,131.76 121.424,131.6 120.816,131.6 C120.336,131.6 119.856,131.768 119.376,132.104 C118.896,132.44 118.536,132.848 118.296,133.328 C118.168,132.48 118.032,131.904 117.888,131.6 L117.888,131.6 L114.696,132.2 L114.696,132.704 C115.496,132.704 116.012,132.872 116.244,133.208 C116.476,133.544 116.592,134.304 116.592,135.488 L116.592,135.488 L116.592,136.688 C116.592,137.888 116.476,138.656 116.244,138.992 C116.012,139.328 115.496,139.496 114.696,139.496 L114.696,139.496 L114.696,140 L120.192,140 Z M128.616,140.408 C130.024,140.408 131.216,139.88 132.192,138.824 L132.192,138.824 L131.784,138.296 C131,139.032 130.144,139.4 129.216,139.4 C128.256,139.4 127.532,139.116 127.044,138.548 C126.556,137.98 126.312,137.2 126.312,136.208 C126.312,135.12 126.536,134.208 126.984,133.472 C127.432,132.736 127.976,132.368 128.616,132.368 C129.192,132.368 129.48,132.712 129.48,133.4 C129.48,133.672 129.572,133.9 129.756,134.084 C129.94,134.268 130.16,134.36 130.416,134.36 C130.784,134.36 131.052,134.252 131.22,134.036 C131.388,133.82 131.472,133.584 131.472,133.328 C131.472,132.848 131.232,132.44 130.752,132.104 C130.272,131.768 129.56,131.6 128.616,131.6 C127.576,131.6 126.608,132.036 125.712,132.908 C124.816,133.78 124.368,134.88 124.368,136.208 C124.368,137.44 124.748,138.448 125.508,139.232 C126.268,140.016 127.304,140.408 128.616,140.408 Z M138.24,140.408 C138.912,140.408 139.584,140.26 140.256,139.964 C140.928,139.668 141.48,139.288 141.912,138.824 L141.912,138.824 L141.48,138.296 C141.144,138.616 140.72,138.88 140.208,139.088 C139.696,139.296 139.24,139.4 138.84,139.4 C137.656,139.4 136.804,139.028 136.284,138.284 C135.764,137.54 135.576,136.576 135.72,135.392 L135.72,135.392 L141.504,135.392 C141.792,134.384 141.592,133.5 140.904,132.74 C140.216,131.98 139.328,131.6 138.24,131.6 C137.088,131.6 136.06,132.024 135.156,132.872 C134.252,133.72 133.8,134.76 133.8,135.992 C133.8,137.224 134.216,138.268 135.048,139.124 C135.88,139.98 136.944,140.408 138.24,140.408 Z M139.848,134.504 L135.864,134.504 C136.04,133.912 136.332,133.44 136.74,133.088 C137.148,132.736 137.608,132.56 138.12,132.56 C138.84,132.56 139.348,132.772 139.644,133.196 C139.94,133.62 140.008,134.056 139.848,134.504 L139.848,134.504 Z" id="VoltageSource" fill="#524740" fill-rule="nonzero"></path>
            <path d="M188.8,26 L188.8,25.496 C187.808,25.496 187.172,25.356 186.892,25.076 C186.612,24.796 186.624,24.328 186.928,23.672 L186.928,23.672 L188.08,21.008 L193.888,21.008 L195.04,23.672 C195.328,24.328 195.336,24.796 195.064,25.076 C194.792,25.356 194.16,25.496 193.168,25.496 L193.168,25.496 L193.168,26 L199.816,26 L199.816,25.496 C199.304,25.496 198.912,25.476 198.64,25.436 C198.368,25.396 198.124,25.268 197.908,25.052 C197.692,24.836 197.54,24.64 197.452,24.464 C197.364,24.288 197.2,23.936 196.96,23.408 L196.96,23.408 L191.656,11.192 L191.344,11.192 L186.064,23.408 C185.824,23.936 185.66,24.288 185.572,24.464 C185.484,24.64 185.332,24.836 185.116,25.052 C184.9,25.268 184.652,25.396 184.372,25.436 C184.092,25.476 183.696,25.496 183.184,25.496 L183.184,25.496 L183.184,26 L188.8,26 Z M193.48,20.12 L188.464,20.12 L190.96,14.336 L193.48,20.12 Z" id="A" fill="#1A80AA" fill-rule="nonzero"></path>
            <path d="M392.244,26 C393.86,26 395.124,25.62 396.036,24.86 C396.948,24.1 397.404,23.136 397.404,21.968 C397.404,21.104 397.124,20.328 396.564,19.64 C396.004,18.952 395.26,18.464 394.332,18.176 C395.58,17.44 396.204,16.448 396.204,15.2 C396.204,14.16 395.8,13.3 394.992,12.62 C394.184,11.94 393.044,11.6 391.572,11.6 L391.572,11.6 L385.116,11.6 L385.116,12.104 C386.108,12.104 386.736,12.268 387,12.596 C387.264,12.924 387.396,13.688 387.396,14.888 L387.396,14.888 L387.396,22.688 C387.396,23.888 387.264,24.656 387,24.992 C386.736,25.328 386.108,25.496 385.116,25.496 L385.116,25.496 L385.116,26 L392.244,26 Z M391.452,17.888 L389.316,17.888 L389.316,12.488 L391.452,12.488 C392.316,12.488 392.972,12.744 393.42,13.256 C393.868,13.768 394.092,14.416 394.092,15.2 C394.092,15.984 393.868,16.628 393.42,17.132 C392.972,17.636 392.316,17.888 391.452,17.888 L391.452,17.888 Z M392.22,25.112 L391.596,25.112 C390.604,25.112 389.976,24.948 389.712,24.62 C389.448,24.292 389.316,23.528 389.316,22.328 L389.316,22.328 L389.316,18.776 L392.22,18.776 C393.212,18.776 393.972,19.076 394.5,19.676 C395.028,20.276 395.292,21.04 395.292,21.968 C395.292,22.88 395.028,23.632 394.5,24.224 C393.972,24.816 393.212,25.112 392.22,25.112 L392.22,25.112 Z" id="B" fill="#1A80AA" fill-rule="nonzero"></path>
            <path d="M190.36,258 C193.016,258 195.016,257.328 196.36,255.984 C197.704,254.64 198.376,252.912 198.376,250.8 C198.376,248.688 197.704,246.96 196.36,245.616 C195.016,244.272 193.016,243.6 190.36,243.6 L190.36,243.6 L183.856,243.6 L183.856,244.104 C184.848,244.104 185.476,244.268 185.74,244.596 C186.004,244.924 186.136,245.688 186.136,246.888 L186.136,246.888 L186.136,254.688 C186.136,255.888 186.004,256.656 185.74,256.992 C185.476,257.328 184.848,257.496 183.856,257.496 L183.856,257.496 L183.856,258 L190.36,258 Z M190.384,257.112 L190.288,257.112 C189.312,257.112 188.696,256.952 188.44,256.632 C188.184,256.312 188.056,255.544 188.056,254.328 L188.056,254.328 L188.056,244.488 L190.384,244.488 C191.488,244.488 192.436,244.68 193.228,245.064 C194.02,245.448 194.612,245.964 195.004,246.612 C195.396,247.26 195.672,247.924 195.832,248.604 C195.992,249.284 196.072,250.016 196.072,250.8 C196.072,251.584 195.992,252.316 195.832,252.996 C195.672,253.676 195.396,254.34 195.004,254.988 C194.612,255.636 194.02,256.152 193.228,256.536 C192.436,256.92 191.488,257.112 190.384,257.112 L190.384,257.112 Z" id="D" fill="#1A80AA" fill-rule="nonzero"></path>
            <path d="M392.268,258.408 C393.932,258.408 395.42,257.728 396.732,256.368 C397.148,256.656 397.42,257.112 397.548,257.736 L397.548,257.736 L398.028,257.736 L398.028,252.456 L397.548,252.456 C397.212,254.008 396.592,255.228 395.688,256.116 C394.784,257.004 393.676,257.448 392.364,257.448 C391.452,257.448 390.644,257.244 389.94,256.836 C389.236,256.428 388.688,255.892 388.296,255.228 C387.904,254.564 387.612,253.856 387.42,253.104 C387.228,252.352 387.132,251.584 387.132,250.8 C387.132,250.016 387.228,249.248 387.42,248.496 C387.612,247.744 387.904,247.032 388.296,246.36 C388.688,245.688 389.236,245.148 389.94,244.74 C390.644,244.332 391.452,244.128 392.364,244.128 C393.676,244.128 394.784,244.568 395.688,245.448 C396.592,246.328 397.212,247.56 397.548,249.144 L397.548,249.144 L398.028,249.144 L398.028,243.864 L397.548,243.864 C397.436,244.44 397.164,244.896 396.732,245.232 C395.452,243.872 393.964,243.192 392.268,243.192 C390.236,243.192 388.5,243.936 387.06,245.424 C385.62,246.912 384.9,248.704 384.9,250.8 C384.9,252.896 385.62,254.688 387.06,256.176 C388.5,257.664 390.236,258.408 392.268,258.408 Z" id="C" fill="#1A80AA" fill-rule="nonzero"></path>
            <circle id="Oval-2" fill="#524740" cx="192" cy="42" r="5"></circle>
            <circle id="Oval-2-Copy" fill="#524740" cx="392" cy="42" r="5"></circle>
            <circle id="Oval-2-Copy-6" fill="#524740" cx="392" cy="227" r="5"></circle>
            <circle id="Oval-2-Copy-7" fill="#524740" cx="192" cy="227" r="5"></circle>
            <g id="DC_Power" transform="translate(152.000000, 42.000000)">
                <circle id="Oval" stroke="#524740" stroke-width="2" cx="40" cy="92" r="39"></circle>
                <text id="+" font-family="Lato-Regular, Lato" font-size="18" font-weight="normal" letter-spacing="0.8999999" fill="#524740">
                    <tspan x="35.3300001" y="73">+</tspan>
                </text>
                <text id="-" font-family="Lato-Regular, Lato" font-size="18" font-weight="normal" letter-spacing="0.8999999" fill="#524740">
                    <tspan x="37.2065001" y="124.5">-</tspan>
                </text>
                <polyline id="Path-5" stroke="#524740" stroke-width="2" points="40 52 40 0 105 0"></polyline>
            </g>
            <polyline id="Path-6" stroke="#524740" stroke-width="2" points="327 42 392 42 392 99"></polyline>
            <polyline id="Path-7" stroke="#524740" stroke-width="2" points="392 169 392 227 327 227"></polyline>
            <polyline id="Path-8" stroke="#524740" stroke-width="2" points="257 227 192 227 192 174"></polyline>
        </g>
    </g>
</svg>