<?xml version="1.0" encoding="UTF-8"?>
<svg width="900px" height="340px" viewBox="0 0 900 340" version="1.1" xmlns="http://www.w3.org/2000/svg" xmlns:xlink="http://www.w3.org/1999/xlink">
    <!-- Generator: Sketch 60.1 (88133) - https://sketch.com -->
    <title>Level_Shifting_Lab_Circuit</title>
    <desc>Created with Sketch.</desc>
    <g id="Level_Shifting_Lab_Circuit" stroke="none" stroke-width="1" fill="none" fill-rule="evenodd">
        <g id="Illustration_Frame">
            <rect id="Rectangle" stroke="#3D3530" stroke-width="2" fill="#EEEEEE" x="1" y="1" width="898" height="338"></rect>
            <rect id="Rectangle-Copy" stroke="#3D3530" stroke-width="2" fill="#F8FAE4" x="1" y="296" width="898" height="43"></rect>
            <path d="M503.831999,325 L505.895999,319.96 L513.431999,319.96 L515.495999,325 L517.127999,325 L510.407999,308.872 L508.895999,308.872 L502.175999,325 L503.831999,325 Z M512.783999,318.376 L506.543999,318.376 L509.663999,310.72 L512.783999,318.376 Z M521.082666,325 L521.082666,317.968 C521.082666,316.944 521.430666,316.072 522.126666,315.352 C522.822666,314.632 523.666666,314.272 524.658666,314.272 C525.650666,314.272 526.494666,314.632 527.190666,315.352 C527.886666,316.072 528.234666,316.944 528.234666,317.968 L528.234666,317.968 L528.234666,325 L529.842666,325 L529.842666,317.92 C529.842666,316.48 529.370666,315.268 528.426666,314.284 C527.482666,313.3 526.314666,312.808 524.922666,312.808 C523.338666,312.808 522.058666,313.464 521.082666,314.776 L521.082666,314.776 L521.082666,313 L519.498666,313 L519.498666,325 L521.082666,325 Z M538.957332,325.192 C540.845332,325.192 542.405332,324.48 543.637332,323.056 L543.637332,323.056 L543.637332,325 L545.221332,325 L545.221332,313 L543.637332,313 L543.637332,314.944 C542.421332,313.52 540.861332,312.808 538.957332,312.808 C537.245332,312.808 535.785332,313.412 534.577332,314.62 C533.369332,315.828 532.765332,317.288 532.765332,319 C532.765332,320.712 533.369332,322.172 534.577332,323.38 C535.785332,324.588 537.245332,325.192 538.957332,325.192 Z M538.981332,323.68 C537.701332,323.68 536.609332,323.228 535.705332,322.324 C534.801332,321.42 534.349332,320.312 534.349332,319 C534.349332,317.688 534.801332,316.58 535.705332,315.676 C536.609332,314.772 537.701332,314.32 538.981332,314.32 C540.277332,314.32 541.369332,314.772 542.257332,315.676 C543.145332,316.58 543.589332,317.688 543.589332,319 C543.589332,320.312 543.145332,321.42 542.257332,322.324 C541.369332,323.228 540.277332,323.68 538.981332,323.68 Z M550.855999,325 L550.855999,307.144 L549.271999,307.144 L549.271999,325 L550.855999,325 Z M560.282666,325.192 C561.994666,325.192 563.450666,324.584 564.650666,323.368 C565.866666,322.152 566.474666,320.696 566.474666,319 C566.474666,317.288 565.870666,315.828 564.662666,314.62 C563.454666,313.412 561.994666,312.808 560.282666,312.808 C558.570666,312.808 557.110666,313.412 555.902666,314.62 C554.694666,315.828 554.090666,317.288 554.090666,319 C554.090666,320.712 554.694666,322.172 555.902666,323.38 C557.110666,324.588 558.570666,325.192 560.282666,325.192 Z M560.306666,323.68 C559.026666,323.68 557.938666,323.228 557.042666,322.324 C556.146666,321.42 555.698666,320.312 555.698666,319 C555.698666,317.688 556.146666,316.576 557.042666,315.664 C557.938666,314.752 559.026666,314.296 560.306666,314.296 C561.602666,314.296 562.694666,314.752 563.582666,315.664 C564.470666,316.576 564.914666,317.688 564.914666,319 C564.914666,320.312 564.470666,321.42 563.582666,322.324 C562.694666,323.228 561.602666,323.68 560.306666,323.68 Z M575.349332,330.112 C576.981332,330.112 578.417332,329.524 579.657332,328.348 C580.897332,327.172 581.525332,325.712 581.541332,323.968 L581.541332,323.968 L581.541332,313.024 L579.933332,313.024 L579.933332,314.968 C578.701332,313.544 577.141332,312.832 575.253332,312.832 C573.541332,312.832 572.081332,313.436 570.873332,314.644 C569.665332,315.852 569.061332,317.312 569.061332,319.024 C569.061332,320.736 569.665332,322.196 570.873332,323.404 C572.081332,324.612 573.541332,325.216 575.253332,325.216 C577.157332,325.216 578.717332,324.504 579.933332,323.08 L579.933332,323.08 L579.933332,323.968 L579.957332,323.968 C579.941332,325.216 579.489332,326.308 578.601332,327.244 C577.713332,328.18 576.629332,328.648 575.349332,328.648 C574.261332,328.648 573.293332,328.344 572.445332,327.736 C571.597332,327.128 571.021332,326.416 570.717332,325.6 L570.717332,325.6 L569.421332,326.248 C569.789332,327.24 570.497332,328.132 571.545332,328.924 C572.593332,329.716 573.861332,330.112 575.349332,330.112 Z M575.277332,323.728 C573.997332,323.728 572.909332,323.276 572.013332,322.372 C571.117332,321.468 570.669332,320.36 570.669332,319.048 C570.669332,317.736 571.117332,316.628 572.013332,315.724 C572.909332,314.82 573.997332,314.368 575.277332,314.368 C576.573332,314.368 577.665332,314.82 578.553332,315.724 C579.441332,316.628 579.885332,317.736 579.885332,319.048 C579.885332,320.36 579.441332,321.468 578.553332,322.372 C577.665332,323.276 576.573332,323.728 575.277332,323.728 Z M601.810666,325 L601.810666,323.416 L594.466666,323.416 L594.466666,308.872 L592.882666,308.872 L592.882666,325 L601.810666,325 Z M609.773332,325.072 C611.245332,325.088 612.513332,324.672 613.577332,323.824 C614.641332,322.976 615.357332,322.048 615.725332,321.04 L615.725332,321.04 L614.381332,320.56 C614.077332,321.376 613.501332,322.088 612.653332,322.696 C611.805332,323.304 610.845332,323.608 609.773332,323.608 C608.781332,323.624 607.877332,323.324 607.061332,322.708 C606.245332,322.092 605.701332,321.304 605.429332,320.344 L605.429332,320.344 L615.917332,318.448 C615.917332,318.32 615.909332,318.216 615.893332,318.136 C615.717332,316.6 615.045332,315.312 613.877332,314.272 C612.709332,313.232 611.341332,312.704 609.773332,312.688 C608.045332,312.704 606.581332,313.312 605.381332,314.512 C604.181332,315.712 603.581332,317.176 603.581332,318.904 C603.581332,319.528 603.661332,320.104 603.821332,320.632 C604.221332,321.928 604.977332,322.992 606.089332,323.824 C607.201332,324.656 608.429332,325.072 609.773332,325.072 Z M605.189332,319.048 C605.189332,318.968 605.185332,318.868 605.177332,318.748 C605.169332,318.628 605.165332,318.544 605.165332,318.496 C605.229332,317.312 605.689332,316.296 606.545332,315.448 C607.401332,314.6 608.429332,314.168 609.629332,314.152 C610.653332,314.136 611.581332,314.436 612.413332,315.052 C613.245332,315.668 613.813332,316.464 614.117332,317.44 L614.117332,317.44 L605.189332,319.048 Z M623.543999,325 L627.791999,313 L626.207999,313 L622.751999,322.768 L619.319999,313 L617.735999,313 L621.959999,325 L623.543999,325 Z M635.466666,325.072 C636.938666,325.088 638.206666,324.672 639.270666,323.824 C640.334666,322.976 641.050666,322.048 641.418666,321.04 L641.418666,321.04 L640.074666,320.56 C639.770666,321.376 639.194666,322.088 638.346666,322.696 C637.498666,323.304 636.538666,323.608 635.466666,323.608 C634.474666,323.624 633.570666,323.324 632.754666,322.708 C631.938666,322.092 631.394666,321.304 631.122666,320.344 L631.122666,320.344 L641.610666,318.448 C641.610666,318.32 641.602666,318.216 641.586666,318.136 C641.410666,316.6 640.738666,315.312 639.570666,314.272 C638.402666,313.232 637.034666,312.704 635.466666,312.688 C633.738666,312.704 632.274666,313.312 631.074666,314.512 C629.874666,315.712 629.274666,317.176 629.274666,318.904 C629.274666,319.528 629.354666,320.104 629.514666,320.632 C629.914666,321.928 630.670666,322.992 631.782666,323.824 C632.894666,324.656 634.122666,325.072 635.466666,325.072 Z M630.882666,319.048 C630.882666,318.968 630.878666,318.868 630.870666,318.748 C630.862666,318.628 630.858666,318.544 630.858666,318.496 C630.922666,317.312 631.382666,316.296 632.238666,315.448 C633.094666,314.6 634.122666,314.168 635.322666,314.152 C636.346666,314.136 637.274666,314.436 638.106666,315.052 C638.938666,315.668 639.506666,316.464 639.810666,317.44 L639.810666,317.44 L630.882666,319.048 Z M646.693333,325 L646.693333,307.144 L645.109333,307.144 L645.109333,325 L646.693333,325 Z M662.858666,325.192 C664.442666,325.192 665.674666,324.792 666.554666,323.992 C667.434666,323.192 667.874666,322.208 667.874666,321.04 C667.874666,320.128 667.574666,319.336 666.974666,318.664 C666.374666,317.992 665.642666,317.464 664.778666,317.08 C663.914666,316.696 663.054666,316.328 662.198666,315.976 C661.342666,315.624 660.614666,315.188 660.014666,314.668 C659.414666,314.148 659.114666,313.544 659.114666,312.856 C659.114666,312.04 659.422666,311.396 660.038666,310.924 C660.654666,310.452 661.498666,310.216 662.570666,310.216 C663.434666,310.216 664.258666,310.44 665.042666,310.888 C665.826666,311.336 666.426666,311.784 666.842666,312.232 L666.842666,312.232 L667.946666,311.152 C667.434666,310.608 666.678666,310.064 665.678666,309.52 C664.678666,308.976 663.642666,308.704 662.570666,308.704 C660.986666,308.704 659.754666,309.104 658.874666,309.904 C657.994666,310.704 657.554666,311.688 657.554666,312.856 C657.554666,313.768 657.854666,314.56 658.454666,315.232 C659.054666,315.904 659.786666,316.436 660.650666,316.828 C661.514666,317.22 662.374666,317.592 663.230666,317.944 C664.086666,318.296 664.814666,318.728 665.414666,319.24 C666.014666,319.752 666.314666,320.352 666.314666,321.04 C666.314666,321.856 666.006666,322.5 665.390666,322.972 C664.774666,323.444 663.930666,323.68 662.858666,323.68 C661.978666,323.68 661.146666,323.452 660.362666,322.996 C659.578666,322.54 658.986666,322.096 658.586666,321.664 L658.586666,321.664 L657.482666,322.744 C657.994666,323.288 658.750666,323.832 659.750666,324.376 C660.750666,324.92 661.786666,325.192 662.858666,325.192 Z M673.077333,325 L673.077333,317.968 C673.077333,316.944 673.425333,316.076 674.121333,315.364 C674.817333,314.652 675.661333,314.296 676.653333,314.296 C677.661333,314.296 678.509333,314.652 679.197333,315.364 C679.885333,316.076 680.229333,316.952 680.229333,317.992 L680.229333,317.992 L680.229333,325 L681.837333,325 L681.837333,317.968 C681.837333,316.528 681.365333,315.308 680.421333,314.308 C679.477333,313.308 678.309333,312.808 676.917333,312.808 C675.333333,312.808 674.053333,313.464 673.077333,314.776 L673.077333,314.776 L673.077333,307.144 L671.493333,307.144 L671.493333,325 L673.077333,325 Z M686.775999,309.688 C687.047999,309.688 687.271999,309.592 687.447999,309.4 C687.639999,309.208 687.735999,308.984 687.735999,308.728 C687.735999,308.472 687.643999,308.248 687.459999,308.056 C687.275999,307.864 687.047999,307.768 686.775999,307.768 C686.503999,307.768 686.275999,307.864 686.091999,308.056 C685.907999,308.248 685.815999,308.472 685.815999,308.728 C685.815999,308.984 685.907999,309.208 686.091999,309.4 C686.275999,309.592 686.503999,309.688 686.775999,309.688 Z M687.567999,325 L687.567999,313 L685.983999,313 L685.983999,325 L687.567999,325 Z M694.018666,325 L694.018666,314.272 L696.370666,314.272 L696.370666,312.952 L694.018666,312.952 L694.018666,310.048 C694.018666,309.392 694.074666,308.948 694.186666,308.716 C694.298666,308.484 694.530666,308.368 694.882666,308.368 C695.202666,308.368 695.522666,308.408 695.842666,308.488 L695.842666,308.488 L696.178666,307.264 L695.962666,307.192 C695.818666,307.144 695.598666,307.096 695.302666,307.048 C695.006666,307 694.714666,306.976 694.426666,306.976 C693.114666,306.976 692.458666,307.808 692.458666,309.472 L692.458666,309.472 L692.458666,312.952 L691.042666,312.952 L691.042666,314.272 L692.458666,314.272 L692.458666,325 L694.018666,325 Z M704.021333,325.192 C704.613333,325.192 705.189333,325.036 705.749333,324.724 C706.309333,324.412 706.669333,324.168 706.829333,323.992 C706.989333,323.816 707.117333,323.664 707.213333,323.536 L707.213333,323.536 L706.421333,322.312 C706.421333,322.376 706.337333,322.516 706.169333,322.732 C706.001333,322.948 705.741333,323.168 705.389333,323.392 C705.037333,323.616 704.677333,323.728 704.309333,323.728 C703.717333,323.728 703.193333,323.512 702.737333,323.08 C702.281333,322.648 702.053333,322.064 702.053333,321.328 L702.053333,321.328 L702.053333,314.44 L705.677333,314.44 L705.677333,312.976 L702.053333,312.976 L702.053333,308.992 L700.469333,309.184 L700.469333,312.976 L698.549333,312.976 L698.549333,314.44 L700.469333,314.44 L700.469333,321.688 C700.469333,322.824 700.809333,323.692 701.489333,324.292 C702.169333,324.892 703.013333,325.192 704.021333,325.192 Z M710.975999,309.688 C711.247999,309.688 711.471999,309.592 711.647999,309.4 C711.839999,309.208 711.935999,308.984 711.935999,308.728 C711.935999,308.472 711.843999,308.248 711.659999,308.056 C711.475999,307.864 711.247999,307.768 710.975999,307.768 C710.703999,307.768 710.475999,307.864 710.291999,308.056 C710.107999,308.248 710.015999,308.472 710.015999,308.728 C710.015999,308.984 710.107999,309.208 710.291999,309.4 C710.475999,309.592 710.703999,309.688 710.975999,309.688 Z M711.767999,325 L711.767999,313 L710.183999,313 L710.183999,325 L711.767999,325 Z M717.690666,325 L717.690666,317.968 C717.690666,316.944 718.038666,316.072 718.734666,315.352 C719.430666,314.632 720.274666,314.272 721.266666,314.272 C722.258666,314.272 723.102666,314.632 723.798666,315.352 C724.494666,316.072 724.842666,316.944 724.842666,317.968 L724.842666,317.968 L724.842666,325 L726.450666,325 L726.450666,317.92 C726.450666,316.48 725.978666,315.268 725.034666,314.284 C724.090666,313.3 722.922666,312.808 721.530666,312.808 C719.946666,312.808 718.666666,313.464 717.690666,314.776 L717.690666,314.776 L717.690666,313 L716.106666,313 L716.106666,325 L717.690666,325 Z M735.805333,330.112 C737.437333,330.112 738.873333,329.524 740.113333,328.348 C741.353333,327.172 741.981333,325.712 741.997333,323.968 L741.997333,323.968 L741.997333,313.024 L740.389333,313.024 L740.389333,314.968 C739.157333,313.544 737.597333,312.832 735.709333,312.832 C733.997333,312.832 732.537333,313.436 731.329333,314.644 C730.121333,315.852 729.517333,317.312 729.517333,319.024 C729.517333,320.736 730.121333,322.196 731.329333,323.404 C732.537333,324.612 733.997333,325.216 735.709333,325.216 C737.613333,325.216 739.173333,324.504 740.389333,323.08 L740.389333,323.08 L740.389333,323.968 L740.413333,323.968 C740.397333,325.216 739.945333,326.308 739.057333,327.244 C738.169333,328.18 737.085333,328.648 735.805333,328.648 C734.717333,328.648 733.749333,328.344 732.901333,327.736 C732.053333,327.128 731.477333,326.416 731.173333,325.6 L731.173333,325.6 L729.877333,326.248 C730.245333,327.24 730.953333,328.132 732.001333,328.924 C733.049333,329.716 734.317333,330.112 735.805333,330.112 Z M735.733333,323.728 C734.453333,323.728 733.365333,323.276 732.469333,322.372 C731.573333,321.468 731.125333,320.36 731.125333,319.048 C731.125333,317.736 731.573333,316.628 732.469333,315.724 C733.365333,314.82 734.453333,314.368 735.733333,314.368 C737.029333,314.368 738.121333,314.82 739.009333,315.724 C739.897333,316.628 740.341333,317.736 740.341333,319.048 C740.341333,320.36 739.897333,321.468 739.009333,322.372 C738.121333,323.276 737.029333,323.728 735.733333,323.728 Z M762.266666,325 L762.266666,323.416 L754.922666,323.416 L754.922666,308.872 L753.338666,308.872 L753.338666,325 L762.266666,325 Z M770.229333,325.192 C772.117333,325.192 773.677333,324.48 774.909333,323.056 L774.909333,323.056 L774.909333,325 L776.493333,325 L776.493333,313 L774.909333,313 L774.909333,314.944 C773.693333,313.52 772.133333,312.808 770.229333,312.808 C768.517333,312.808 767.057333,313.412 765.849333,314.62 C764.641333,315.828 764.037333,317.288 764.037333,319 C764.037333,320.712 764.641333,322.172 765.849333,323.38 C767.057333,324.588 768.517333,325.192 770.229333,325.192 Z M770.253333,323.68 C768.973333,323.68 767.881333,323.228 766.977333,322.324 C766.073333,321.42 765.621333,320.312 765.621333,319 C765.621333,317.688 766.073333,316.58 766.977333,315.676 C767.881333,314.772 768.973333,314.32 770.253333,314.32 C771.549333,314.32 772.641333,314.772 773.529333,315.676 C774.417333,316.58 774.861333,317.688 774.861333,319 C774.861333,320.312 774.417333,321.42 773.529333,322.324 C772.641333,323.228 771.549333,323.68 770.253333,323.68 Z M786.832,325.192 C788.544,325.192 790.004,324.588 791.212,323.38 C792.42,322.172 793.024,320.712 793.024,319 C793.024,317.288 792.42,315.828 791.212,314.62 C790.004,313.412 788.544,312.808 786.832,312.808 C784.928,312.808 783.36,313.528 782.128,314.968 L782.128,314.968 L782.128,307.144 L780.544,307.144 L780.544,325 L782.128,325 L782.128,323.008 C783.344,324.464 784.912,325.192 786.832,325.192 Z M786.784,323.68 C785.504,323.68 784.416,323.232 783.52,322.336 C782.624,321.424 782.176,320.312 782.176,319 C782.176,317.688 782.624,316.58 783.52,315.676 C784.416,314.772 785.504,314.32 786.784,314.32 C788.064,314.32 789.152,314.772 790.048,315.676 C790.944,316.58 791.392,317.688 791.392,319 C791.392,320.312 790.944,321.42 790.048,322.324 C789.152,323.228 788.064,323.68 786.784,323.68 Z M810.869333,325.192 C812.437333,325.192 813.801333,324.836 814.961333,324.124 C816.121333,323.412 817.021333,322.432 817.661333,321.184 L817.661333,321.184 L816.173333,320.296 C815.677333,321.336 814.969333,322.164 814.049333,322.78 C813.129333,323.396 812.069333,323.704 810.869333,323.704 C809.045333,323.704 807.585333,323.064 806.489333,321.784 C805.393333,320.504 804.845333,318.896 804.845333,316.96 C804.845333,315.008 805.393333,313.396 806.489333,312.124 C807.585333,310.852 809.045333,310.216 810.869333,310.216 C812.053333,310.216 813.105333,310.52 814.025333,311.128 C814.945333,311.736 815.661333,312.56 816.173333,313.6 L816.173333,313.6 L817.661333,312.736 C817.021333,311.488 816.121333,310.504 814.961333,309.784 C813.801333,309.064 812.437333,308.704 810.869333,308.704 C808.501333,308.704 806.613333,309.492 805.205333,311.068 C803.797333,312.644 803.093333,314.608 803.093333,316.96 C803.093333,319.296 803.797333,321.252 805.205333,322.828 C806.613333,324.404 808.501333,325.192 810.869333,325.192 Z M822.168,309.688 C822.44,309.688 822.664,309.592 822.84,309.4 C823.032,309.208 823.128,308.984 823.128,308.728 C823.128,308.472 823.036,308.248 822.852,308.056 C822.668,307.864 822.44,307.768 822.168,307.768 C821.896,307.768 821.668,307.864 821.484,308.056 C821.3,308.248 821.208,308.472 821.208,308.728 C821.208,308.984 821.3,309.208 821.484,309.4 C821.668,309.592 821.896,309.688 822.168,309.688 Z M822.96,325 L822.96,313 L821.376,313 L821.376,325 L822.96,325 Z M828.882666,325 L828.882666,317.968 C828.882666,316.928 829.226666,316.052 829.914666,315.34 C830.602666,314.628 831.450666,314.272 832.458666,314.272 C833.146666,314.272 833.826666,314.52 834.498666,315.016 L834.498666,315.016 L835.050666,313.432 C834.346666,313.016 833.570666,312.808 832.722666,312.808 C831.138666,312.808 829.858666,313.464 828.882666,314.776 L828.882666,314.776 L828.882666,313 L827.298666,313 L827.298666,325 L828.882666,325 Z M842.365333,325.192 C843.453333,325.192 844.465333,324.924 845.401333,324.388 C846.337333,323.852 847.077333,323.136 847.621333,322.24 L847.621333,322.24 L846.181333,321.544 C845.749333,322.2 845.197333,322.72 844.525333,323.104 C843.853333,323.488 843.133333,323.68 842.365333,323.68 C841.069333,323.68 839.977333,323.228 839.089333,322.324 C838.201333,321.42 837.757333,320.312 837.757333,319 C837.757333,317.688 838.201333,316.58 839.089333,315.676 C839.977333,314.772 841.069333,314.32 842.365333,314.32 C843.133333,314.32 843.853333,314.512 844.525333,314.896 C845.197333,315.28 845.749333,315.8 846.181333,316.456 L846.181333,316.456 L847.621333,315.76 C847.077333,314.864 846.337333,314.148 845.401333,313.612 C844.465333,313.076 843.453333,312.808 842.365333,312.808 C840.653333,312.808 839.193333,313.412 837.985333,314.62 C836.777333,315.828 836.173333,317.288 836.173333,319 C836.173333,320.712 836.777333,322.172 837.985333,323.38 C839.193333,324.588 840.653333,325.192 842.365333,325.192 Z M855.824,325.192 C857.408,325.192 858.688,324.536 859.664,323.224 L859.664,323.224 L859.664,325 L861.248,325 L861.248,313 L859.664,313 L859.664,320.032 C859.664,321.056 859.32,321.924 858.632,322.636 C857.944,323.348 857.096,323.704 856.088,323.704 C855.096,323.704 854.256,323.348 853.568,322.636 C852.88,321.924 852.536,321.056 852.536,320.032 L852.536,320.032 L852.536,313 L850.904,313 L850.904,320.08 C850.904,321.52 851.376,322.732 852.32,323.716 C853.264,324.7 854.432,325.192 855.824,325.192 Z M866.378667,309.688 C866.650667,309.688 866.874667,309.592 867.050667,309.4 C867.242667,309.208 867.338667,308.984 867.338667,308.728 C867.338667,308.472 867.246667,308.248 867.062667,308.056 C866.878667,307.864 866.650667,307.768 866.378667,307.768 C866.106667,307.768 865.878667,307.864 865.694667,308.056 C865.510667,308.248 865.418667,308.472 865.418667,308.728 C865.418667,308.984 865.510667,309.208 865.694667,309.4 C865.878667,309.592 866.106667,309.688 866.378667,309.688 Z M867.170667,325 L867.170667,313 L865.586667,313 L865.586667,325 L867.170667,325 Z M875.253333,325.192 C875.845333,325.192 876.421333,325.036 876.981333,324.724 C877.541333,324.412 877.901333,324.168 878.061333,323.992 C878.221333,323.816 878.349333,323.664 878.445333,323.536 L878.445333,323.536 L877.653333,322.312 C877.653333,322.376 877.569333,322.516 877.401333,322.732 C877.233333,322.948 876.973333,323.168 876.621333,323.392 C876.269333,323.616 875.909333,323.728 875.541333,323.728 C874.949333,323.728 874.425333,323.512 873.969333,323.08 C873.513333,322.648 873.285333,322.064 873.285333,321.328 L873.285333,321.328 L873.285333,314.44 L876.909333,314.44 L876.909333,312.976 L873.285333,312.976 L873.285333,308.992 L871.701333,309.184 L871.701333,312.976 L869.781333,312.976 L869.781333,314.44 L871.701333,314.44 L871.701333,321.688 C871.701333,322.824 872.041333,323.692 872.721333,324.292 C873.401333,324.892 874.245333,325.192 875.253333,325.192 Z" id="AnalogLevelShiftingLabCircuit" fill="#23ABE3" fill-rule="nonzero"></path>
        </g>
        <g transform="translate(153.000000, 31.000000)">
            <rect id="Rectangle-4" stroke="#23ABE3" stroke-width="2" fill="#E3F4FB" x="1" y="1" width="267" height="236"></rect>
            <rect id="Rectangle-4-Copy" stroke="#23ABE3" stroke-width="2" fill="#F8FAE4" x="268" y="1" width="326" height="236"></rect>
            <path d="M56.384,221.408 C56.48,220.96 56.712,220.584 57.08,220.28 C57.24,220.312 57.52,220.428 57.92,220.628 C58.32,220.828 58.768,221.008 59.264,221.168 C59.76,221.328 60.28,221.408 60.824,221.408 C62.104,221.408 63.188,221.008 64.076,220.208 C64.964,219.408 65.408,218.368 65.408,217.088 C65.408,215.504 64.568,214.288 62.888,213.44 L62.888,213.44 L60.608,212.264 C59.504,211.688 58.74,211.196 58.316,210.788 C57.892,210.38 57.68,209.88 57.68,209.288 C57.68,208.68 57.9,208.172 58.34,207.764 C58.78,207.356 59.336,207.152 60.008,207.152 C62.216,207.152 63.44,208.552 63.68,211.352 L63.68,211.352 L64.184,211.352 L64.184,206.072 L63.704,206.072 C63.608,206.504 63.376,206.872 63.008,207.176 C62.112,206.52 61.136,206.192 60.08,206.192 C58.928,206.192 57.976,206.536 57.224,207.224 C56.472,207.912 56.096,208.76 56.096,209.768 C56.096,210.632 56.352,211.408 56.864,212.096 C57.376,212.784 58.008,213.328 58.76,213.728 L58.76,213.728 L61.064,214.904 C62.904,215.864 63.824,216.832 63.824,217.808 C63.824,218.576 63.54,219.208 62.972,219.704 C62.404,220.2 61.688,220.448 60.824,220.448 C60.232,220.448 59.692,220.368 59.204,220.208 C58.716,220.048 58.324,219.848 58.028,219.608 C57.732,219.368 57.472,219.08 57.248,218.744 C57.024,218.408 56.86,218.104 56.756,217.832 C56.652,217.56 56.572,217.276 56.516,216.98 C56.46,216.684 56.428,216.484 56.42,216.38 C56.412,216.276 56.408,216.192 56.408,216.128 L56.408,216.128 L55.904,216.128 L55.904,221.408 L56.384,221.408 Z M73.376,221.408 C74.048,221.408 74.72,221.26 75.392,220.964 C76.064,220.668 76.616,220.288 77.048,219.824 L77.048,219.824 L76.616,219.296 C76.28,219.616 75.856,219.88 75.344,220.088 C74.832,220.296 74.376,220.4 73.976,220.4 C72.792,220.4 71.94,220.028 71.42,219.284 C70.9,218.54 70.712,217.576 70.856,216.392 L70.856,216.392 L76.64,216.392 C76.928,215.384 76.728,214.5 76.04,213.74 C75.352,212.98 74.464,212.6 73.376,212.6 C72.224,212.6 71.196,213.024 70.292,213.872 C69.388,214.72 68.936,215.76 68.936,216.992 C68.936,218.224 69.352,219.268 70.184,220.124 C71.016,220.98 72.08,221.408 73.376,221.408 Z M74.984,215.504 L71,215.504 C71.176,214.912 71.468,214.44 71.876,214.088 C72.284,213.736 72.744,213.56 73.256,213.56 C73.976,213.56 74.484,213.772 74.78,214.196 C75.076,214.62 75.144,215.056 74.984,215.504 L74.984,215.504 Z M85.304,221 L85.304,220.496 C84.568,220.496 84.104,220.336 83.912,220.016 C83.72,219.696 83.624,218.92 83.624,217.688 L83.624,217.688 L83.624,216.128 C83.624,215.488 83.912,214.928 84.488,214.448 C85.064,213.968 85.696,213.728 86.384,213.728 C87.712,213.728 88.376,214.584 88.376,216.296 L88.376,216.296 L88.376,217.688 C88.376,218.872 88.256,219.636 88.016,219.98 C87.776,220.324 87.264,220.496 86.48,220.496 L86.48,220.496 L86.48,221 L91.976,221 L91.976,220.496 C91.176,220.496 90.66,220.328 90.428,219.992 C90.196,219.656 90.08,218.888 90.08,217.688 L90.08,217.688 L90.08,216.176 C90.08,215.104 89.82,214.24 89.3,213.584 C88.78,212.928 88,212.6 86.96,212.6 C85.648,212.6 84.536,213.176 83.624,214.328 C83.496,213.48 83.36,212.904 83.216,212.6 L83.216,212.6 L80.024,213.2 L80.024,213.704 C80.824,213.704 81.34,213.872 81.572,214.208 C81.804,214.544 81.92,215.304 81.92,216.488 L81.92,216.488 L81.92,217.688 C81.92,218.888 81.804,219.656 81.572,219.992 C81.34,220.328 80.824,220.496 80.024,220.496 L80.024,220.496 L80.024,221 L85.304,221 Z M95.288,221.408 C95.288,221.088 95.32,220.872 95.384,220.76 C95.448,220.648 95.56,220.62 95.72,220.676 C95.88,220.732 96.052,220.812 96.236,220.916 C96.42,221.02 96.664,221.128 96.968,221.24 C97.272,221.352 97.568,221.408 97.856,221.408 C98.656,221.408 99.332,221.164 99.884,220.676 C100.436,220.188 100.712,219.56 100.712,218.792 C100.712,217.88 100.16,217.112 99.056,216.488 L99.056,216.488 L97.904,215.864 C97.344,215.56 96.96,215.308 96.752,215.108 C96.544,214.908 96.44,214.672 96.44,214.4 C96.44,214.096 96.544,213.848 96.752,213.656 C96.96,213.464 97.264,213.368 97.664,213.368 C98.24,213.368 98.708,213.572 99.068,213.98 C99.428,214.388 99.608,214.856 99.608,215.384 L99.608,215.384 L100.112,215.384 L100.112,212.6 L99.608,212.6 C99.608,212.92 99.572,213.1 99.5,213.14 C99.428,213.18 99.296,213.144 99.104,213.032 C98.528,212.744 97.968,212.6 97.424,212.6 C96.784,212.6 96.22,212.808 95.732,213.224 C95.244,213.64 95,214.16 95,214.784 C95,215.808 95.528,216.608 96.584,217.184 L96.584,217.184 L97.928,217.904 C98.824,218.384 99.272,218.872 99.272,219.368 C99.272,219.704 99.14,219.992 98.876,220.232 C98.612,220.472 98.288,220.592 97.904,220.592 C97.12,220.592 96.488,220.3 96.008,219.716 C95.528,219.132 95.288,218.528 95.288,217.904 L95.288,217.904 L94.784,217.904 L94.784,221.408 L95.288,221.408 Z M108.992,221.408 C110.32,221.408 111.46,220.976 112.412,220.112 C113.364,219.248 113.84,218.208 113.84,216.992 C113.84,215.776 113.36,214.744 112.4,213.896 C111.456,213.032 110.32,212.6 108.992,212.6 C107.664,212.6 106.524,213.028 105.572,213.884 C104.62,214.74 104.144,215.776 104.144,216.992 C104.144,218.208 104.62,219.248 105.572,220.112 C106.524,220.976 107.664,221.408 108.992,221.408 Z M108.992,220.472 C108.048,220.472 107.328,220.144 106.832,219.488 C106.336,218.832 106.088,218 106.088,216.992 C106.088,215.984 106.336,215.152 106.832,214.496 C107.328,213.84 108.048,213.512 108.992,213.512 C109.936,213.512 110.656,213.836 111.152,214.484 C111.648,215.132 111.896,215.968 111.896,216.992 C111.896,218.016 111.648,218.856 111.152,219.512 C110.656,220.152 109.936,220.472 108.992,220.472 Z M122.6,221 L122.6,220.496 C121.8,220.496 121.284,220.328 121.052,219.992 C120.82,219.656 120.704,218.888 120.704,217.688 L120.704,217.688 L120.704,216.368 C120.704,215.52 120.92,214.84 121.352,214.328 C121.784,213.816 122.184,213.56 122.552,213.56 C123.064,213.56 123.32,213.824 123.32,214.352 C123.32,214.576 123.404,214.776 123.572,214.952 C123.74,215.128 123.936,215.216 124.16,215.216 C124.8,215.216 125.12,214.84 125.12,214.088 C125.12,213.736 124.956,213.4 124.628,213.08 C124.3,212.76 123.832,212.6 123.224,212.6 C122.744,212.6 122.264,212.768 121.784,213.104 C121.304,213.44 120.944,213.848 120.704,214.328 C120.576,213.48 120.44,212.904 120.296,212.6 L120.296,212.6 L117.104,213.2 L117.104,213.704 C117.904,213.704 118.42,213.872 118.652,214.208 C118.884,214.544 119,215.304 119,216.488 L119,216.488 L119,217.688 C119,218.888 118.884,219.656 118.652,219.992 C118.42,220.328 117.904,220.496 117.104,220.496 L117.104,220.496 L117.104,221 L122.6,221 Z M142.688,221.408 C144.352,221.408 145.84,220.728 147.152,219.368 C147.568,219.656 147.84,220.112 147.968,220.736 L147.968,220.736 L148.448,220.736 L148.448,215.456 L147.968,215.456 C147.632,217.008 147.012,218.228 146.108,219.116 C145.204,220.004 144.096,220.448 142.784,220.448 C141.872,220.448 141.064,220.244 140.36,219.836 C139.656,219.428 139.108,218.892 138.716,218.228 C138.324,217.564 138.032,216.856 137.84,216.104 C137.648,215.352 137.552,214.584 137.552,213.8 C137.552,213.016 137.648,212.248 137.84,211.496 C138.032,210.744 138.324,210.032 138.716,209.36 C139.108,208.688 139.656,208.148 140.36,207.74 C141.064,207.332 141.872,207.128 142.784,207.128 C144.096,207.128 145.204,207.568 146.108,208.448 C147.012,209.328 147.632,210.56 147.968,212.144 L147.968,212.144 L148.448,212.144 L148.448,206.864 L147.968,206.864 C147.856,207.44 147.584,207.896 147.152,208.232 C145.872,206.872 144.384,206.192 142.688,206.192 C140.656,206.192 138.92,206.936 137.48,208.424 C136.04,209.912 135.32,211.704 135.32,213.8 C135.32,215.896 136.04,217.688 137.48,219.176 C138.92,220.664 140.656,221.408 142.688,221.408 Z M155.072,210.248 C155.36,210.248 155.608,210.144 155.816,209.936 C156.024,209.728 156.128,209.472 156.128,209.168 C156.128,208.88 156.024,208.632 155.816,208.424 C155.608,208.216 155.36,208.112 155.072,208.112 C154.784,208.112 154.536,208.216 154.328,208.424 C154.12,208.632 154.016,208.88 154.016,209.168 C154.016,209.472 154.12,209.728 154.328,209.936 C154.536,210.144 154.784,210.248 155.072,210.248 Z M157.832,221 L157.832,220.496 C157.032,220.496 156.516,220.328 156.284,219.992 C156.052,219.656 155.936,218.888 155.936,217.688 L155.936,217.688 L155.936,212.6 L152.336,213.2 L152.336,213.704 C153.136,213.704 153.652,213.872 153.884,214.208 C154.116,214.544 154.232,215.304 154.232,216.488 L154.232,216.488 L154.232,217.688 C154.232,218.888 154.116,219.656 153.884,219.992 C153.652,220.328 153.136,220.496 152.336,220.496 L152.336,220.496 L152.336,221 L157.832,221 Z M165.896,221 L165.896,220.496 C165.096,220.496 164.58,220.328 164.348,219.992 C164.116,219.656 164,218.888 164,217.688 L164,217.688 L164,216.368 C164,215.52 164.216,214.84 164.648,214.328 C165.08,213.816 165.48,213.56 165.848,213.56 C166.36,213.56 166.616,213.824 166.616,214.352 C166.616,214.576 166.7,214.776 166.868,214.952 C167.036,215.128 167.232,215.216 167.456,215.216 C168.096,215.216 168.416,214.84 168.416,214.088 C168.416,213.736 168.252,213.4 167.924,213.08 C167.596,212.76 167.128,212.6 166.52,212.6 C166.04,212.6 165.56,212.768 165.08,213.104 C164.6,213.44 164.24,213.848 164,214.328 C163.872,213.48 163.736,212.904 163.592,212.6 L163.592,212.6 L160.4,213.2 L160.4,213.704 C161.2,213.704 161.716,213.872 161.948,214.208 C162.18,214.544 162.296,215.304 162.296,216.488 L162.296,216.488 L162.296,217.688 C162.296,218.888 162.18,219.656 161.948,219.992 C161.716,220.328 161.2,220.496 160.4,220.496 L160.4,220.496 L160.4,221 L165.896,221 Z M175.28,221.408 C176.688,221.408 177.88,220.88 178.856,219.824 L178.856,219.824 L178.448,219.296 C177.664,220.032 176.808,220.4 175.88,220.4 C174.92,220.4 174.196,220.116 173.708,219.548 C173.22,218.98 172.976,218.2 172.976,217.208 C172.976,216.12 173.2,215.208 173.648,214.472 C174.096,213.736 174.64,213.368 175.28,213.368 C175.856,213.368 176.144,213.712 176.144,214.4 C176.144,214.672 176.236,214.9 176.42,215.084 C176.604,215.268 176.824,215.36 177.08,215.36 C177.448,215.36 177.716,215.252 177.884,215.036 C178.052,214.82 178.136,214.584 178.136,214.328 C178.136,213.848 177.896,213.44 177.416,213.104 C176.936,212.768 176.224,212.6 175.28,212.6 C174.24,212.6 173.272,213.036 172.376,213.908 C171.48,214.78 171.032,215.88 171.032,217.208 C171.032,218.44 171.412,219.448 172.172,220.232 C172.932,221.016 173.968,221.408 175.28,221.408 Z M189.368,221.408 L192.584,220.808 L192.584,220.304 C191.768,220.304 191.244,220.136 191.012,219.8 C190.78,219.464 190.664,218.696 190.664,217.496 L190.664,217.496 L190.664,213.008 L187.064,213.008 L187.064,213.488 C187.88,213.488 188.404,213.656 188.636,213.992 C188.868,214.328 188.984,215.096 188.984,216.296 L188.984,216.296 L188.984,217.88 C188.984,218.552 188.688,219.116 188.096,219.572 C187.504,220.028 186.936,220.256 186.392,220.256 C185.176,220.256 184.568,219.4 184.568,217.688 L184.568,217.688 L184.568,213.008 L180.968,213.008 L180.968,213.488 C181.768,213.488 182.284,213.656 182.516,213.992 C182.748,214.328 182.864,215.096 182.864,216.296 L182.864,216.296 L182.864,217.808 C182.864,220.208 183.856,221.408 185.84,221.408 C186.944,221.408 187.992,220.896 188.984,219.872 C189.112,220.64 189.24,221.152 189.368,221.408 L189.368,221.408 Z M197.888,210.248 C198.176,210.248 198.424,210.144 198.632,209.936 C198.84,209.728 198.944,209.472 198.944,209.168 C198.944,208.88 198.84,208.632 198.632,208.424 C198.424,208.216 198.176,208.112 197.888,208.112 C197.6,208.112 197.352,208.216 197.144,208.424 C196.936,208.632 196.832,208.88 196.832,209.168 C196.832,209.472 196.936,209.728 197.144,209.936 C197.352,210.144 197.6,210.248 197.888,210.248 Z M200.648,221 L200.648,220.496 C199.848,220.496 199.332,220.328 199.1,219.992 C198.868,219.656 198.752,218.888 198.752,217.688 L198.752,217.688 L198.752,212.6 L195.152,213.2 L195.152,213.704 C195.952,213.704 196.468,213.872 196.7,214.208 C196.932,214.544 197.048,215.304 197.048,216.488 L197.048,216.488 L197.048,217.688 C197.048,218.888 196.932,219.656 196.7,219.992 C196.468,220.328 195.952,220.496 195.152,220.496 L195.152,220.496 L195.152,221 L200.648,221 Z M206.456,221.336 C206.856,221.336 207.292,221.208 207.764,220.952 C208.236,220.696 208.64,220.368 208.976,219.968 L208.976,219.968 L208.568,219.56 C207.992,220.104 207.472,220.376 207.008,220.376 C206.288,220.376 205.928,219.8 205.928,218.648 L205.928,218.648 L205.928,213.848 L208.016,213.848 L208.016,213.008 L205.928,213.008 L205.928,210.368 L205.112,210.368 C205.016,211.2 204.808,211.856 204.488,212.336 C204.168,212.816 203.664,213.128 202.976,213.272 L202.976,213.272 L202.976,213.848 L204.224,213.848 L204.224,218.648 C204.224,219.544 204.424,220.216 204.824,220.664 C205.224,221.112 205.768,221.336 206.456,221.336 Z" id="SensorCircuit" fill="#B35E2C" fill-rule="nonzero"></path>
            <path d="M321.112,221.408 L326.392,209.192 C326.792,208.264 327.132,207.684 327.412,207.452 C327.692,207.22 328.304,207.104 329.248,207.104 L329.248,207.104 L329.248,206.6 L323.656,206.6 L323.656,207.104 C324.648,207.104 325.284,207.244 325.564,207.524 C325.844,207.804 325.832,208.272 325.528,208.928 L325.528,208.928 L321.496,218.264 L317.416,208.928 C317.112,208.272 317.1,207.804 317.38,207.524 C317.66,207.244 318.296,207.104 319.288,207.104 L319.288,207.104 L319.288,206.6 L312.64,206.6 L312.64,207.104 C313.584,207.104 314.196,207.22 314.476,207.452 C314.756,207.684 315.096,208.264 315.496,209.192 L315.496,209.192 L320.8,221.408 L321.112,221.408 Z M334.168,221.408 C335.496,221.408 336.636,220.976 337.588,220.112 C338.54,219.248 339.016,218.208 339.016,216.992 C339.016,215.776 338.536,214.744 337.576,213.896 C336.632,213.032 335.496,212.6 334.168,212.6 C332.84,212.6 331.7,213.028 330.748,213.884 C329.796,214.74 329.32,215.776 329.32,216.992 C329.32,218.208 329.796,219.248 330.748,220.112 C331.7,220.976 332.84,221.408 334.168,221.408 Z M334.168,220.472 C333.224,220.472 332.504,220.144 332.008,219.488 C331.512,218.832 331.264,218 331.264,216.992 C331.264,215.984 331.512,215.152 332.008,214.496 C332.504,213.84 333.224,213.512 334.168,213.512 C335.112,213.512 335.832,213.836 336.328,214.484 C336.824,215.132 337.072,215.968 337.072,216.992 C337.072,218.016 336.824,218.856 336.328,219.512 C335.832,220.152 335.112,220.472 334.168,220.472 Z M347.32,221 L347.32,220.496 C346.52,220.496 346.004,220.328 345.772,219.992 C345.54,219.656 345.424,218.888 345.424,217.688 L345.424,217.688 L345.424,206.192 L341.824,206.792 L341.824,207.296 C342.624,207.296 343.14,207.464 343.372,207.8 C343.604,208.136 343.72,208.904 343.72,210.104 L343.72,210.104 L343.72,217.688 C343.72,218.888 343.604,219.656 343.372,219.992 C343.14,220.328 342.624,220.496 341.824,220.496 L341.824,220.496 L341.824,221 L347.32,221 Z M353.152,221.336 C353.552,221.336 353.988,221.208 354.46,220.952 C354.932,220.696 355.336,220.368 355.672,219.968 L355.672,219.968 L355.264,219.56 C354.688,220.104 354.168,220.376 353.704,220.376 C352.984,220.376 352.624,219.8 352.624,218.648 L352.624,218.648 L352.624,213.848 L354.712,213.848 L354.712,213.008 L352.624,213.008 L352.624,210.368 L351.808,210.368 C351.712,211.2 351.504,211.856 351.184,212.336 C350.864,212.816 350.36,213.128 349.672,213.272 L349.672,213.272 L349.672,213.848 L350.92,213.848 L350.92,218.648 C350.92,219.544 351.12,220.216 351.52,220.664 C351.92,221.112 352.464,221.336 353.152,221.336 Z M360.352,221.312 C361.28,221.312 362.28,220.832 363.352,219.872 C363.48,220.8 364.024,221.264 364.984,221.264 C365.576,221.264 366.104,221.016 366.568,220.52 L366.568,220.52 L366.232,220.064 C365.992,220.304 365.768,220.424 365.56,220.424 C365.192,220.424 365.008,220.112 365.008,219.488 L365.008,219.488 L365.008,215.864 C365.008,214.712 364.752,213.88 364.24,213.368 C363.728,212.856 362.888,212.6 361.72,212.6 C360.92,212.6 360.212,212.78 359.596,213.14 C358.98,213.5 358.672,213.96 358.672,214.52 C358.672,214.76 358.752,214.96 358.912,215.12 C359.072,215.28 359.272,215.36 359.512,215.36 C359.736,215.36 359.928,215.28 360.088,215.12 C360.248,214.96 360.328,214.76 360.328,214.52 C360.328,214.168 360.476,213.888 360.772,213.68 C361.068,213.472 361.376,213.368 361.696,213.368 C362.352,213.368 362.784,213.552 362.992,213.92 C363.2,214.288 363.304,214.944 363.304,215.888 C359.896,216.48 358.192,217.616 358.192,219.296 C358.192,219.92 358.4,220.412 358.816,220.772 C359.232,221.132 359.744,221.312 360.352,221.312 Z M361.12,220.232 C360.8,220.232 360.532,220.12 360.316,219.896 C360.1,219.672 359.992,219.376 359.992,219.008 C359.992,217.936 361.096,217.144 363.304,216.632 L363.304,216.632 L363.304,219.08 C362.44,219.848 361.712,220.232 361.12,220.232 Z M372.808,227.408 C374.024,227.408 375.036,227.116 375.844,226.532 C376.652,225.948 377.056,225.168 377.056,224.192 C377.056,223.376 376.712,222.68 376.024,222.104 C375.336,221.528 374.224,221.176 372.688,221.048 C371.232,220.92 370.504,220.616 370.504,220.136 C370.504,219.672 371.4,219.336 373.192,219.128 C374.024,219.016 374.752,218.656 375.376,218.048 C376,217.44 376.312,216.712 376.312,215.864 C376.312,215.128 376.08,214.48 375.616,213.92 C375.872,213.664 376.12,213.536 376.36,213.536 C376.584,213.536 376.748,213.596 376.852,213.716 C376.956,213.836 377.02,213.964 377.044,214.1 C377.068,214.236 377.14,214.36 377.26,214.472 C377.38,214.584 377.56,214.632 377.8,214.616 C377.928,214.616 378.04,214.576 378.136,214.496 C378.424,214.272 378.496,213.936 378.352,213.488 C378.16,212.896 377.712,212.6 377.008,212.6 C376.736,212.6 376.42,212.688 376.06,212.864 C375.7,213.04 375.416,213.256 375.208,213.512 C374.52,212.904 373.696,212.6 372.736,212.6 C371.744,212.6 370.9,212.92 370.204,213.56 C369.508,214.2 369.16,214.968 369.16,215.864 C369.16,216.504 369.34,217.08 369.7,217.592 C370.06,218.104 370.552,218.504 371.176,218.792 C369.832,219.208 369.16,219.848 369.16,220.712 C369.16,221.976 370.296,222.72 372.568,222.944 C373.672,223.056 374.484,223.232 375.004,223.472 C375.524,223.712 375.784,224.096 375.784,224.624 C375.784,225.168 375.484,225.612 374.884,225.956 C374.284,226.3 373.592,226.472 372.808,226.472 C372.312,226.472 371.836,226.4 371.38,226.256 C370.924,226.112 370.54,225.912 370.228,225.656 C369.916,225.4 369.776,225.052 369.808,224.612 C369.84,224.172 370.088,223.688 370.552,223.16 L370.552,223.16 L370.12,222.896 C369.16,223.392 368.648,224 368.584,224.72 C368.52,225.44 368.884,226.068 369.676,226.604 C370.468,227.14 371.512,227.408 372.808,227.408 Z M372.736,218.336 C372.176,218.336 371.744,218.108 371.44,217.652 C371.136,217.196 370.984,216.6 370.984,215.864 C370.984,215.128 371.136,214.528 371.44,214.064 C371.744,213.6 372.176,213.368 372.736,213.368 C373.296,213.368 373.724,213.6 374.02,214.064 C374.316,214.528 374.464,215.128 374.464,215.864 C374.464,216.6 374.312,217.2 374.008,217.664 C373.72,218.112 373.296,218.336 372.736,218.336 Z M385.096,221.408 C385.768,221.408 386.44,221.26 387.112,220.964 C387.784,220.668 388.336,220.288 388.768,219.824 L388.768,219.824 L388.336,219.296 C388,219.616 387.576,219.88 387.064,220.088 C386.552,220.296 386.096,220.4 385.696,220.4 C384.512,220.4 383.66,220.028 383.14,219.284 C382.62,218.54 382.432,217.576 382.576,216.392 L382.576,216.392 L388.36,216.392 C388.648,215.384 388.448,214.5 387.76,213.74 C387.072,212.98 386.184,212.6 385.096,212.6 C383.944,212.6 382.916,213.024 382.012,213.872 C381.108,214.72 380.656,215.76 380.656,216.992 C380.656,218.224 381.072,219.268 381.904,220.124 C382.736,220.98 383.8,221.408 385.096,221.408 Z M386.704,215.504 L382.72,215.504 C382.896,214.912 383.188,214.44 383.596,214.088 C384.004,213.736 384.464,213.56 384.976,213.56 C385.696,213.56 386.204,213.772 386.5,214.196 C386.796,214.62 386.864,215.056 386.704,215.504 L386.704,215.504 Z M405.04,221 C407.696,221 409.696,220.328 411.04,218.984 C412.384,217.64 413.056,215.912 413.056,213.8 C413.056,211.688 412.384,209.96 411.04,208.616 C409.696,207.272 407.696,206.6 405.04,206.6 L405.04,206.6 L398.536,206.6 L398.536,207.104 C399.528,207.104 400.156,207.268 400.42,207.596 C400.684,207.924 400.816,208.688 400.816,209.888 L400.816,209.888 L400.816,217.688 C400.816,218.888 400.684,219.656 400.42,219.992 C400.156,220.328 399.528,220.496 398.536,220.496 L398.536,220.496 L398.536,221 L405.04,221 Z M405.064,220.112 L404.968,220.112 C403.992,220.112 403.376,219.952 403.12,219.632 C402.864,219.312 402.736,218.544 402.736,217.328 L402.736,217.328 L402.736,207.488 L405.064,207.488 C406.168,207.488 407.116,207.68 407.908,208.064 C408.7,208.448 409.292,208.964 409.684,209.612 C410.076,210.26 410.352,210.924 410.512,211.604 C410.672,212.284 410.752,213.016 410.752,213.8 C410.752,214.584 410.672,215.316 410.512,215.996 C410.352,216.676 410.076,217.34 409.684,217.988 C409.292,218.636 408.7,219.152 407.908,219.536 C407.116,219.92 406.168,220.112 405.064,220.112 L405.064,220.112 Z M419.584,210.248 C419.872,210.248 420.12,210.144 420.328,209.936 C420.536,209.728 420.64,209.472 420.64,209.168 C420.64,208.88 420.536,208.632 420.328,208.424 C420.12,208.216 419.872,208.112 419.584,208.112 C419.296,208.112 419.048,208.216 418.84,208.424 C418.632,208.632 418.528,208.88 418.528,209.168 C418.528,209.472 418.632,209.728 418.84,209.936 C419.048,210.144 419.296,210.248 419.584,210.248 Z M422.344,221 L422.344,220.496 C421.544,220.496 421.028,220.328 420.796,219.992 C420.564,219.656 420.448,218.888 420.448,217.688 L420.448,217.688 L420.448,212.6 L416.848,213.2 L416.848,213.704 C417.648,213.704 418.164,213.872 418.396,214.208 C418.628,214.544 418.744,215.304 418.744,216.488 L418.744,216.488 L418.744,217.688 C418.744,218.888 418.628,219.656 418.396,219.992 C418.164,220.328 417.648,220.496 416.848,220.496 L416.848,220.496 L416.848,221 L422.344,221 Z M428.824,221.432 L431.536,214.904 C431.76,214.376 431.996,214.008 432.244,213.8 C432.492,213.592 432.824,213.488 433.24,213.488 L433.24,213.488 L433.24,213.008 L429.88,213.008 L429.88,213.488 C430.392,213.488 430.696,213.596 430.792,213.812 C430.888,214.028 430.816,214.392 430.576,214.904 L430.576,214.904 L428.992,218.744 L427.288,214.904 C427.048,214.328 426.976,213.948 427.072,213.764 C427.168,213.58 427.488,213.488 428.032,213.488 L428.032,213.488 L428.032,213.008 L423.784,213.008 L423.784,213.488 C424.168,213.488 424.476,213.592 424.708,213.8 C424.94,214.008 425.176,214.376 425.416,214.904 L425.416,214.904 L428.344,221.432 L428.824,221.432 Z M437.8,210.248 C438.088,210.248 438.336,210.144 438.544,209.936 C438.752,209.728 438.856,209.472 438.856,209.168 C438.856,208.88 438.752,208.632 438.544,208.424 C438.336,208.216 438.088,208.112 437.8,208.112 C437.512,208.112 437.264,208.216 437.056,208.424 C436.848,208.632 436.744,208.88 436.744,209.168 C436.744,209.472 436.848,209.728 437.056,209.936 C437.264,210.144 437.512,210.248 437.8,210.248 Z M440.56,221 L440.56,220.496 C439.76,220.496 439.244,220.328 439.012,219.992 C438.78,219.656 438.664,218.888 438.664,217.688 L438.664,217.688 L438.664,212.6 L435.064,213.2 L435.064,213.704 C435.864,213.704 436.38,213.872 436.612,214.208 C436.844,214.544 436.96,215.304 436.96,216.488 L436.96,216.488 L436.96,217.688 C436.96,218.888 436.844,219.656 436.612,219.992 C436.38,220.328 435.864,220.496 435.064,220.496 L435.064,220.496 L435.064,221 L440.56,221 Z M450.88,221.408 L454.072,220.808 L454.072,220.304 C453.272,220.304 452.756,220.136 452.524,219.8 C452.292,219.464 452.176,218.696 452.176,217.496 L452.176,217.496 L452.176,206.192 L448.576,206.792 L448.576,207.296 C449.376,207.296 449.892,207.464 450.124,207.8 C450.356,208.136 450.472,208.904 450.472,210.104 L450.472,210.104 L450.472,214.016 C449.704,213.072 448.728,212.6 447.544,212.6 C446.408,212.6 445.428,213.028 444.604,213.884 C443.78,214.74 443.368,215.776 443.368,216.992 C443.368,218.208 443.78,219.248 444.604,220.112 C445.428,220.976 446.408,221.408 447.544,221.408 C448.728,221.408 449.712,220.92 450.496,219.944 C450.64,220.68 450.768,221.168 450.88,221.408 L450.88,221.408 Z M448.048,220.448 C447.152,220.448 446.472,220.128 446.008,219.488 C445.544,218.848 445.312,218.016 445.312,216.992 C445.312,215.984 445.544,215.16 446.008,214.52 C446.472,213.88 447.152,213.56 448.048,213.56 C448.576,213.56 449.056,213.732 449.488,214.076 C449.92,214.42 450.248,214.88 450.472,215.456 L450.472,215.456 L450.472,218.552 C450.248,219.128 449.92,219.588 449.488,219.932 C449.056,220.276 448.576,220.448 448.048,220.448 Z M461.32,221.408 C461.992,221.408 462.664,221.26 463.336,220.964 C464.008,220.668 464.56,220.288 464.992,219.824 L464.992,219.824 L464.56,219.296 C464.224,219.616 463.8,219.88 463.288,220.088 C462.776,220.296 462.32,220.4 461.92,220.4 C460.736,220.4 459.884,220.028 459.364,219.284 C458.844,218.54 458.656,217.576 458.8,216.392 L458.8,216.392 L464.584,216.392 C464.872,215.384 464.672,214.5 463.984,213.74 C463.296,212.98 462.408,212.6 461.32,212.6 C460.168,212.6 459.14,213.024 458.236,213.872 C457.332,214.72 456.88,215.76 456.88,216.992 C456.88,218.224 457.296,219.268 458.128,220.124 C458.96,220.98 460.024,221.408 461.32,221.408 Z M462.928,215.504 L458.944,215.504 C459.12,214.912 459.412,214.44 459.82,214.088 C460.228,213.736 460.688,213.56 461.2,213.56 C461.92,213.56 462.428,213.772 462.724,214.196 C463.02,214.62 463.088,215.056 462.928,215.504 L462.928,215.504 Z M473.464,221 L473.464,220.496 C472.664,220.496 472.148,220.328 471.916,219.992 C471.684,219.656 471.568,218.888 471.568,217.688 L471.568,217.688 L471.568,216.368 C471.568,215.52 471.784,214.84 472.216,214.328 C472.648,213.816 473.048,213.56 473.416,213.56 C473.928,213.56 474.184,213.824 474.184,214.352 C474.184,214.576 474.268,214.776 474.436,214.952 C474.604,215.128 474.8,215.216 475.024,215.216 C475.664,215.216 475.984,214.84 475.984,214.088 C475.984,213.736 475.82,213.4 475.492,213.08 C475.164,212.76 474.696,212.6 474.088,212.6 C473.608,212.6 473.128,212.768 472.648,213.104 C472.168,213.44 471.808,213.848 471.568,214.328 C471.44,213.48 471.304,212.904 471.16,212.6 L471.16,212.6 L467.968,213.2 L467.968,213.704 C468.768,213.704 469.284,213.872 469.516,214.208 C469.748,214.544 469.864,215.304 469.864,216.488 L469.864,216.488 L469.864,217.688 C469.864,218.888 469.748,219.656 469.516,219.992 C469.284,220.328 468.768,220.496 467.968,220.496 L467.968,220.496 L467.968,221 L473.464,221 Z M493.552,221.408 C495.216,221.408 496.704,220.728 498.016,219.368 C498.432,219.656 498.704,220.112 498.832,220.736 L498.832,220.736 L499.312,220.736 L499.312,215.456 L498.832,215.456 C498.496,217.008 497.876,218.228 496.972,219.116 C496.068,220.004 494.96,220.448 493.648,220.448 C492.736,220.448 491.928,220.244 491.224,219.836 C490.52,219.428 489.972,218.892 489.58,218.228 C489.188,217.564 488.896,216.856 488.704,216.104 C488.512,215.352 488.416,214.584 488.416,213.8 C488.416,213.016 488.512,212.248 488.704,211.496 C488.896,210.744 489.188,210.032 489.58,209.36 C489.972,208.688 490.52,208.148 491.224,207.74 C491.928,207.332 492.736,207.128 493.648,207.128 C494.96,207.128 496.068,207.568 496.972,208.448 C497.876,209.328 498.496,210.56 498.832,212.144 L498.832,212.144 L499.312,212.144 L499.312,206.864 L498.832,206.864 C498.72,207.44 498.448,207.896 498.016,208.232 C496.736,206.872 495.248,206.192 493.552,206.192 C491.52,206.192 489.784,206.936 488.344,208.424 C486.904,209.912 486.184,211.704 486.184,213.8 C486.184,215.896 486.904,217.688 488.344,219.176 C489.784,220.664 491.52,221.408 493.552,221.408 Z M505.936,210.248 C506.224,210.248 506.472,210.144 506.68,209.936 C506.888,209.728 506.992,209.472 506.992,209.168 C506.992,208.88 506.888,208.632 506.68,208.424 C506.472,208.216 506.224,208.112 505.936,208.112 C505.648,208.112 505.4,208.216 505.192,208.424 C504.984,208.632 504.88,208.88 504.88,209.168 C504.88,209.472 504.984,209.728 505.192,209.936 C505.4,210.144 505.648,210.248 505.936,210.248 Z M508.696,221 L508.696,220.496 C507.896,220.496 507.38,220.328 507.148,219.992 C506.916,219.656 506.8,218.888 506.8,217.688 L506.8,217.688 L506.8,212.6 L503.2,213.2 L503.2,213.704 C504,213.704 504.516,213.872 504.748,214.208 C504.98,214.544 505.096,215.304 505.096,216.488 L505.096,216.488 L505.096,217.688 C505.096,218.888 504.98,219.656 504.748,219.992 C504.516,220.328 504,220.496 503.2,220.496 L503.2,220.496 L503.2,221 L508.696,221 Z M516.76,221 L516.76,220.496 C515.96,220.496 515.444,220.328 515.212,219.992 C514.98,219.656 514.864,218.888 514.864,217.688 L514.864,217.688 L514.864,216.368 C514.864,215.52 515.08,214.84 515.512,214.328 C515.944,213.816 516.344,213.56 516.712,213.56 C517.224,213.56 517.48,213.824 517.48,214.352 C517.48,214.576 517.564,214.776 517.732,214.952 C517.9,215.128 518.096,215.216 518.32,215.216 C518.96,215.216 519.28,214.84 519.28,214.088 C519.28,213.736 519.116,213.4 518.788,213.08 C518.46,212.76 517.992,212.6 517.384,212.6 C516.904,212.6 516.424,212.768 515.944,213.104 C515.464,213.44 515.104,213.848 514.864,214.328 C514.736,213.48 514.6,212.904 514.456,212.6 L514.456,212.6 L511.264,213.2 L511.264,213.704 C512.064,213.704 512.58,213.872 512.812,214.208 C513.044,214.544 513.16,215.304 513.16,216.488 L513.16,216.488 L513.16,217.688 C513.16,218.888 513.044,219.656 512.812,219.992 C512.58,220.328 512.064,220.496 511.264,220.496 L511.264,220.496 L511.264,221 L516.76,221 Z M526.144,221.408 C527.552,221.408 528.744,220.88 529.72,219.824 L529.72,219.824 L529.312,219.296 C528.528,220.032 527.672,220.4 526.744,220.4 C525.784,220.4 525.06,220.116 524.572,219.548 C524.084,218.98 523.84,218.2 523.84,217.208 C523.84,216.12 524.064,215.208 524.512,214.472 C524.96,213.736 525.504,213.368 526.144,213.368 C526.72,213.368 527.008,213.712 527.008,214.4 C527.008,214.672 527.1,214.9 527.284,215.084 C527.468,215.268 527.688,215.36 527.944,215.36 C528.312,215.36 528.58,215.252 528.748,215.036 C528.916,214.82 529,214.584 529,214.328 C529,213.848 528.76,213.44 528.28,213.104 C527.8,212.768 527.088,212.6 526.144,212.6 C525.104,212.6 524.136,213.036 523.24,213.908 C522.344,214.78 521.896,215.88 521.896,217.208 C521.896,218.44 522.276,219.448 523.036,220.232 C523.796,221.016 524.832,221.408 526.144,221.408 Z M540.232,221.408 L543.448,220.808 L543.448,220.304 C542.632,220.304 542.108,220.136 541.876,219.8 C541.644,219.464 541.528,218.696 541.528,217.496 L541.528,217.496 L541.528,213.008 L537.928,213.008 L537.928,213.488 C538.744,213.488 539.268,213.656 539.5,213.992 C539.732,214.328 539.848,215.096 539.848,216.296 L539.848,216.296 L539.848,217.88 C539.848,218.552 539.552,219.116 538.96,219.572 C538.368,220.028 537.8,220.256 537.256,220.256 C536.04,220.256 535.432,219.4 535.432,217.688 L535.432,217.688 L535.432,213.008 L531.832,213.008 L531.832,213.488 C532.632,213.488 533.148,213.656 533.38,213.992 C533.612,214.328 533.728,215.096 533.728,216.296 L533.728,216.296 L533.728,217.808 C533.728,220.208 534.72,221.408 536.704,221.408 C537.808,221.408 538.856,220.896 539.848,219.872 C539.976,220.64 540.104,221.152 540.232,221.408 L540.232,221.408 Z M548.752,210.248 C549.04,210.248 549.288,210.144 549.496,209.936 C549.704,209.728 549.808,209.472 549.808,209.168 C549.808,208.88 549.704,208.632 549.496,208.424 C549.288,208.216 549.04,208.112 548.752,208.112 C548.464,208.112 548.216,208.216 548.008,208.424 C547.8,208.632 547.696,208.88 547.696,209.168 C547.696,209.472 547.8,209.728 548.008,209.936 C548.216,210.144 548.464,210.248 548.752,210.248 Z M551.512,221 L551.512,220.496 C550.712,220.496 550.196,220.328 549.964,219.992 C549.732,219.656 549.616,218.888 549.616,217.688 L549.616,217.688 L549.616,212.6 L546.016,213.2 L546.016,213.704 C546.816,213.704 547.332,213.872 547.564,214.208 C547.796,214.544 547.912,215.304 547.912,216.488 L547.912,216.488 L547.912,217.688 C547.912,218.888 547.796,219.656 547.564,219.992 C547.332,220.328 546.816,220.496 546.016,220.496 L546.016,220.496 L546.016,221 L551.512,221 Z M557.32,221.336 C557.72,221.336 558.156,221.208 558.628,220.952 C559.1,220.696 559.504,220.368 559.84,219.968 L559.84,219.968 L559.432,219.56 C558.856,220.104 558.336,220.376 557.872,220.376 C557.152,220.376 556.792,219.8 556.792,218.648 L556.792,218.648 L556.792,213.848 L558.88,213.848 L558.88,213.008 L556.792,213.008 L556.792,210.368 L555.976,210.368 C555.88,211.2 555.672,211.856 555.352,212.336 C555.032,212.816 554.528,213.128 553.84,213.272 L553.84,213.272 L553.84,213.848 L555.088,213.848 L555.088,218.648 C555.088,219.544 555.288,220.216 555.688,220.664 C556.088,221.112 556.632,221.336 557.32,221.336 Z" id="VoltageDividerCircuit" fill="#B35E2C" fill-rule="nonzero"></path>
            <g id="R1" transform="translate(285.000000, 77.000000)" stroke="#524740" stroke-linejoin="bevel" stroke-width="2">
                <polyline id="Resistor" transform="translate(35.000000, 13.000000) rotate(-360.000000) translate(-35.000000, -13.000000) " points="0 13 5 13 10 0 20 26 30 0 40 26 50 0 60 26 65 13 70 13"></polyline>
                <polyline id="Resistor-Copy-8" transform="translate(195.000000, 13.000000) rotate(-360.000000) translate(-195.000000, -13.000000) " points="160 13 165 13 170 0 180 26 190 0 200 26 210 0 220 26 225 13 230 13"></polyline>
            </g>
            <g id="R1" transform="translate(305.000000, 48.000000)" fill="#524740" fill-rule="nonzero">
                <path d="M7.596,17 L7.596,16.496 C6.604,16.496 5.976,16.328 5.712,15.992 C5.448,15.656 5.316,14.888 5.316,13.688 L5.316,13.688 L5.316,10.688 L6.444,10.688 L11.196,17 L15.156,17 L15.156,16.496 C13.748,16.336 12.26,15.32 10.692,13.448 L10.692,13.448 L8.34,10.688 C9.668,10.544 10.712,10.104 11.472,9.368 C12.232,8.632 12.612,7.728 12.612,6.656 C12.612,5.488 12.156,4.52 11.244,3.752 C10.332,2.984 9.068,2.6 7.452,2.6 L7.452,2.6 L1.116,2.6 L1.116,3.104 C2.108,3.104 2.736,3.268 3,3.596 C3.264,3.924 3.396,4.688 3.396,5.888 L3.396,5.888 L3.396,13.688 C3.396,14.888 3.264,15.656 3,15.992 C2.736,16.328 2.108,16.496 1.116,16.496 L1.116,16.496 L1.116,17 L7.596,17 Z M7.428,9.824 L5.316,9.824 L5.316,3.488 L7.428,3.488 C8.42,3.488 9.176,3.784 9.696,4.376 C10.216,4.968 10.476,5.728 10.476,6.656 C10.476,7.584 10.216,8.344 9.696,8.936 C9.176,9.528 8.42,9.824 7.428,9.824 L7.428,9.824 Z M22.596,17 L22.596,16.496 C21.588,16.496 20.952,16.332 20.688,16.004 C20.424,15.676 20.292,14.904 20.292,13.688 L20.292,13.688 L20.292,9.896 C20.292,8.68 20.424,7.908 20.688,7.58 C20.952,7.252 21.588,7.088 22.596,7.088 L22.596,7.088 L22.596,6.608 L16.284,6.608 L16.284,7.088 C17.276,7.088 17.908,7.256 18.18,7.592 C18.452,7.928 18.588,8.696 18.588,9.896 L18.588,9.896 L18.588,13.688 C18.588,14.888 18.452,15.656 18.18,15.992 C17.908,16.328 17.276,16.496 16.284,16.496 L16.284,16.496 L16.284,17 L22.596,17 Z"></path>
            </g>
            <g id="R2" transform="translate(467.000000, 48.000000)" fill="#524740" fill-rule="nonzero">
                <path d="M7.712,17 L7.712,16.496 C6.72,16.496 6.092,16.328 5.828,15.992 C5.564,15.656 5.432,14.888 5.432,13.688 L5.432,13.688 L5.432,10.688 L6.56,10.688 L11.312,17 L15.272,17 L15.272,16.496 C13.864,16.336 12.376,15.32 10.808,13.448 L10.808,13.448 L8.456,10.688 C9.784,10.544 10.828,10.104 11.588,9.368 C12.348,8.632 12.728,7.728 12.728,6.656 C12.728,5.488 12.272,4.52 11.36,3.752 C10.448,2.984 9.184,2.6 7.568,2.6 L7.568,2.6 L1.232,2.6 L1.232,3.104 C2.224,3.104 2.852,3.268 3.116,3.596 C3.38,3.924 3.512,4.688 3.512,5.888 L3.512,5.888 L3.512,13.688 C3.512,14.888 3.38,15.656 3.116,15.992 C2.852,16.328 2.224,16.496 1.232,16.496 L1.232,16.496 L1.232,17 L7.712,17 Z M7.544,9.824 L5.432,9.824 L5.432,3.488 L7.544,3.488 C8.536,3.488 9.292,3.784 9.812,4.376 C10.332,4.968 10.592,5.728 10.592,6.656 C10.592,7.584 10.332,8.344 9.812,8.936 C9.292,9.528 8.536,9.824 7.544,9.824 L7.544,9.824 Z M25.232,18.896 L25.832,15.608 L19.616,15.608 L23.312,12.776 L23.552,12.632 C23.696,12.52 23.876,12.356 24.092,12.14 C24.308,11.924 24.524,11.688 24.74,11.432 C24.956,11.176 25.14,10.864 25.292,10.496 C25.444,10.128 25.52,9.768 25.52,9.416 C25.52,8.456 25.064,7.68 24.152,7.088 C23.24,6.496 22.168,6.2 20.936,6.2 C19.608,6.2 18.544,6.524 17.744,7.172 C16.944,7.82 16.58,8.572 16.652,9.428 C16.724,10.284 17.224,10.992 18.152,11.552 L18.152,11.552 L18.872,10.808 C18.344,9.816 18.328,8.968 18.824,8.264 C19.32,7.56 20.024,7.208 20.936,7.208 C21.72,7.208 22.348,7.408 22.82,7.808 C23.292,8.208 23.528,8.752 23.528,9.44 C23.528,10.656 22.76,11.872 21.224,13.088 L21.224,13.088 L16.976,16.424 L16.976,17 L21.92,17 C23.12,17 23.888,17.116 24.224,17.348 C24.56,17.58 24.728,18.096 24.728,18.896 L24.728,18.896 L25.232,18.896 Z"></path>
            </g>
            <g id="Vout" transform="translate(358.000000, 144.000000)" fill="#1A80AA" fill-rule="nonzero">
                <path d="M25.852,17.408 L31.132,5.192 C31.532,4.264 31.872,3.684 32.152,3.452 C32.432,3.22 33.044,3.104 33.988,3.104 L33.988,3.104 L33.988,2.6 L28.396,2.6 L28.396,3.104 C29.388,3.104 30.024,3.244 30.304,3.524 C30.584,3.804 30.572,4.272 30.268,4.928 L30.268,4.928 L26.236,14.264 L22.156,4.928 C21.852,4.272 21.84,3.804 22.12,3.524 C22.4,3.244 23.036,3.104 24.028,3.104 L24.028,3.104 L24.028,2.6 L17.38,2.6 L17.38,3.104 C18.324,3.104 18.936,3.22 19.216,3.452 C19.496,3.684 19.836,4.264 20.236,5.192 L20.236,5.192 L25.54,17.408 L25.852,17.408 Z M39.1,17.408 C40.428,17.408 41.568,16.976 42.52,16.112 C43.472,15.248 43.948,14.208 43.948,12.992 C43.948,11.776 43.468,10.744 42.508,9.896 C41.564,9.032 40.428,8.6 39.1,8.6 C37.772,8.6 36.632,9.028 35.68,9.884 C34.728,10.74 34.252,11.776 34.252,12.992 C34.252,14.208 34.728,15.248 35.68,16.112 C36.632,16.976 37.772,17.408 39.1,17.408 Z M39.1,16.472 C38.156,16.472 37.436,16.144 36.94,15.488 C36.444,14.832 36.196,14 36.196,12.992 C36.196,11.984 36.444,11.152 36.94,10.496 C37.436,9.84 38.156,9.512 39.1,9.512 C40.044,9.512 40.764,9.836 41.26,10.484 C41.756,11.132 42.004,11.968 42.004,12.992 C42.004,14.016 41.756,14.856 41.26,15.512 C40.764,16.152 40.044,16.472 39.1,16.472 Z M53.956,17.408 L57.172,16.808 L57.172,16.304 C56.356,16.304 55.832,16.136 55.6,15.8 C55.368,15.464 55.252,14.696 55.252,13.496 L55.252,13.496 L55.252,9.008 L51.652,9.008 L51.652,9.488 C52.468,9.488 52.992,9.656 53.224,9.992 C53.456,10.328 53.572,11.096 53.572,12.296 L53.572,12.296 L53.572,13.88 C53.572,14.552 53.276,15.116 52.684,15.572 C52.092,16.028 51.524,16.256 50.98,16.256 C49.764,16.256 49.156,15.4 49.156,13.688 L49.156,13.688 L49.156,9.008 L45.556,9.008 L45.556,9.488 C46.356,9.488 46.872,9.656 47.104,9.992 C47.336,10.328 47.452,11.096 47.452,12.296 L47.452,12.296 L47.452,13.808 C47.452,16.208 48.444,17.408 50.428,17.408 C51.532,17.408 52.58,16.896 53.572,15.872 C53.7,16.64 53.828,17.152 53.956,17.408 L53.956,17.408 Z M61.78,17.336 C62.18,17.336 62.616,17.208 63.088,16.952 C63.56,16.696 63.964,16.368 64.3,15.968 L64.3,15.968 L63.892,15.56 C63.316,16.104 62.796,16.376 62.332,16.376 C61.612,16.376 61.252,15.8 61.252,14.648 L61.252,14.648 L61.252,9.848 L63.34,9.848 L63.34,9.008 L61.252,9.008 L61.252,6.368 L60.436,6.368 C60.34,7.2 60.132,7.856 59.812,8.336 C59.492,8.816 58.988,9.128 58.3,9.272 L58.3,9.272 L58.3,9.848 L59.548,9.848 L59.548,14.648 C59.548,15.544 59.748,16.216 60.148,16.664 C60.548,17.112 61.092,17.336 61.78,17.336 Z"></path>
                <path d="M7.7,41.664 L8.228,41.16 C7.716,40.584 7.292,40.084 6.956,39.66 C6.62,39.236 6.184,38.604 5.648,37.764 C5.112,36.924 4.7,36.008 4.412,35.016 C4.124,34.024 3.98,32.992 3.98,31.92 C3.98,30.848 4.124,29.816 4.412,28.824 C4.7,27.832 5.112,26.916 5.648,26.076 C6.184,25.236 6.62,24.604 6.956,24.18 C7.292,23.756 7.716,23.256 8.228,22.68 L8.228,22.68 L7.676,22.176 C4.092,25.136 2.3,28.384 2.3,31.92 C2.3,35.472 4.1,38.72 7.7,41.664 L7.7,41.664 Z M13.052,39.336 C13.452,39.336 13.888,39.208 14.36,38.952 C14.832,38.696 15.236,38.368 15.572,37.968 L15.572,37.968 L15.164,37.56 C14.588,38.104 14.068,38.376 13.604,38.376 C12.884,38.376 12.524,37.8 12.524,36.648 L12.524,36.648 L12.524,31.848 L14.612,31.848 L14.612,31.008 L12.524,31.008 L12.524,28.368 L11.708,28.368 C11.612,29.2 11.404,29.856 11.084,30.336 C10.764,30.816 10.26,31.128 9.572,31.272 L9.572,31.272 L9.572,31.848 L10.82,31.848 L10.82,36.648 C10.82,37.544 11.02,38.216 11.42,38.664 C11.82,39.112 12.364,39.336 13.052,39.336 Z M21.98,39.408 C23.308,39.408 24.448,38.976 25.4,38.112 C26.352,37.248 26.828,36.208 26.828,34.992 C26.828,33.776 26.348,32.744 25.388,31.896 C24.444,31.032 23.308,30.6 21.98,30.6 C20.652,30.6 19.512,31.028 18.56,31.884 C17.608,32.74 17.132,33.776 17.132,34.992 C17.132,36.208 17.608,37.248 18.56,38.112 C19.512,38.976 20.652,39.408 21.98,39.408 Z M21.98,38.472 C21.036,38.472 20.316,38.144 19.82,37.488 C19.324,36.832 19.076,36 19.076,34.992 C19.076,33.984 19.324,33.152 19.82,32.496 C20.316,31.84 21.036,31.512 21.98,31.512 C22.924,31.512 23.644,31.836 24.14,32.484 C24.636,33.132 24.884,33.968 24.884,34.992 C24.884,36.016 24.636,36.856 24.14,37.512 C23.644,38.152 22.924,38.472 21.98,38.472 Z M38.276,39 L38.276,38.496 C37.284,38.496 36.648,38.356 36.368,38.076 C36.088,37.796 36.1,37.328 36.404,36.672 L36.404,36.672 L37.556,34.008 L43.364,34.008 L44.516,36.672 C44.804,37.328 44.812,37.796 44.54,38.076 C44.268,38.356 43.636,38.496 42.644,38.496 L42.644,38.496 L42.644,39 L49.292,39 L49.292,38.496 C48.78,38.496 48.388,38.476 48.116,38.436 C47.844,38.396 47.6,38.268 47.384,38.052 C47.168,37.836 47.016,37.64 46.928,37.464 C46.84,37.288 46.676,36.936 46.436,36.408 L46.436,36.408 L41.132,24.192 L40.82,24.192 L35.54,36.408 C35.3,36.936 35.136,37.288 35.048,37.464 C34.96,37.64 34.808,37.836 34.592,38.052 C34.376,38.268 34.128,38.396 33.848,38.436 C33.568,38.476 33.172,38.496 32.66,38.496 L32.66,38.496 L32.66,39 L38.276,39 Z M42.956,33.12 L37.94,33.12 L40.436,27.336 L42.956,33.12 Z M55.796,39 C58.452,39 60.452,38.328 61.796,36.984 C63.14,35.64 63.812,33.912 63.812,31.8 C63.812,29.688 63.14,27.96 61.796,26.616 C60.452,25.272 58.452,24.6 55.796,24.6 L55.796,24.6 L49.292,24.6 L49.292,25.104 C50.284,25.104 50.912,25.268 51.176,25.596 C51.44,25.924 51.572,26.688 51.572,27.888 L51.572,27.888 L51.572,35.688 C51.572,36.888 51.44,37.656 51.176,37.992 C50.912,38.328 50.284,38.496 49.292,38.496 L49.292,38.496 L49.292,39 L55.796,39 Z M55.82,38.112 L55.724,38.112 C54.748,38.112 54.132,37.952 53.876,37.632 C53.62,37.312 53.492,36.544 53.492,35.328 L53.492,35.328 L53.492,25.488 L55.82,25.488 C56.924,25.488 57.872,25.68 58.664,26.064 C59.456,26.448 60.048,26.964 60.44,27.612 C60.832,28.26 61.108,28.924 61.268,29.604 C61.428,30.284 61.508,31.016 61.508,31.8 C61.508,32.584 61.428,33.316 61.268,33.996 C61.108,34.676 60.832,35.34 60.44,35.988 C60.048,36.636 59.456,37.152 58.664,37.536 C57.872,37.92 56.924,38.112 55.82,38.112 L55.82,38.112 Z M74.564,39.408 C76.228,39.408 77.716,38.728 79.028,37.368 C79.444,37.656 79.716,38.112 79.844,38.736 L79.844,38.736 L80.324,38.736 L80.324,33.456 L79.844,33.456 C79.508,35.008 78.888,36.228 77.984,37.116 C77.08,38.004 75.972,38.448 74.66,38.448 C73.748,38.448 72.94,38.244 72.236,37.836 C71.532,37.428 70.984,36.892 70.592,36.228 C70.2,35.564 69.908,34.856 69.716,34.104 C69.524,33.352 69.428,32.584 69.428,31.8 C69.428,31.016 69.524,30.248 69.716,29.496 C69.908,28.744 70.2,28.032 70.592,27.36 C70.984,26.688 71.532,26.148 72.236,25.74 C72.94,25.332 73.748,25.128 74.66,25.128 C75.972,25.128 77.08,25.568 77.984,26.448 C78.888,27.328 79.508,28.56 79.844,30.144 L79.844,30.144 L80.324,30.144 L80.324,24.864 L79.844,24.864 C79.732,25.44 79.46,25.896 79.028,26.232 C77.748,24.872 76.26,24.192 74.564,24.192 C72.532,24.192 70.796,24.936 69.356,26.424 C67.916,27.912 67.196,29.704 67.196,31.8 C67.196,33.896 67.916,35.688 69.356,37.176 C70.796,38.664 72.532,39.408 74.564,39.408 Z M83.324,41.664 C86.908,38.736 88.7,35.488 88.7,31.92 C88.7,28.368 86.916,25.12 83.348,22.176 L83.348,22.176 L82.772,22.68 C83.3,23.272 83.728,23.776 84.056,24.192 C84.384,24.608 84.82,25.236 85.364,26.076 C85.908,26.916 86.324,27.832 86.612,28.824 C86.9,29.816 87.044,30.848 87.044,31.92 C87.044,32.992 86.9,34.024 86.612,35.016 C86.324,36.008 85.908,36.924 85.364,37.764 C84.82,38.604 84.384,39.232 84.056,39.648 C83.728,40.064 83.3,40.568 82.772,41.16 L82.772,41.16 L83.324,41.664 Z" id="(toADC)"></path>
            </g>
            <g id="Ground" transform="translate(554.500000, 136.000000) rotate(-90.000000) translate(-554.500000, -136.000000) translate(507.000000, 119.500000)" stroke="#524740" stroke-width="2">
                <line x1="12.5" y1="17" x2="37.5" y2="17" id="Path-2-Copy"></line>
                <line x1="35.5" y1="17" x2="94.5" y2="17" id="Path-2-Copy-4"></line>
                <line x1="7" y1="6.5" x2="7" y2="26.5" id="Path-4"></line>
                <line x1="1" y1="13.5" x2="1" y2="19.5" id="Path-4-Copy"></line>
                <line x1="13" y1="-1.13686838e-13" x2="13" y2="33" id="Path-3-Copy"></line>
            </g>
            <circle id="Oval-2-Copy-12" fill="#524740" cx="400" cy="90" r="5"></circle>
            <line x1="400" y1="90" x2="400" y2="142" id="Path-19" stroke="#524740" stroke-width="2"></line>
            <line x1="245" y1="90" x2="285" y2="90" id="Path-16" stroke="#524740" stroke-width="2"></line>
            <g id="Ground-Copy" transform="translate(61.500000, 164.500000) rotate(-90.000000) translate(-61.500000, -164.500000) translate(42.500000, 148.000000)" stroke="#524740" stroke-width="2">
                <line x1="12.5" y1="17" x2="37.5" y2="17" id="Path-2-Copy"></line>
                <line x1="7" y1="6.5" x2="7" y2="26.5" id="Path-4"></line>
                <line x1="1" y1="13.5" x2="1" y2="19.5" id="Path-4-Copy"></line>
                <line x1="13" y1="0" x2="13" y2="33" id="Path-3-Copy"></line>
            </g>
            <g id="DC_Power" transform="translate(22.000000, 51.000000)">
                <g id="Group-2">
                    <circle id="Oval" stroke="#524740" stroke-width="2" cx="40" cy="40" r="39"></circle>
                    <path d="M33.652,50.488 C34.98,50.488 36.12,49.996 37.072,49.012 C38.024,48.028 38.5,46.848 38.5,45.472 C38.5,44.064 38.064,42.88 37.192,41.92 C36.32,40.96 35.212,40.48 33.868,40.48 C33.356,40.48 32.844,40.576 32.332,40.768 C31.82,40.96 31.436,41.216 31.18,41.536 L31.18,41.536 L31.54,37.288 L37.612,37.288 L38.212,33.784 L37.66,33.784 C37.484,34.504 37.236,34.988 36.916,35.236 C36.596,35.484 35.916,35.608 34.876,35.608 L34.876,35.608 L30.82,35.608 L30.076,43.84 L30.964,43.84 C31.204,42.272 32.1,41.488 33.652,41.488 C34.612,41.488 35.328,41.848 35.8,42.568 C36.272,43.288 36.508,44.256 36.508,45.472 C36.508,46.688 36.268,47.676 35.788,48.436 C35.308,49.196 34.596,49.576 33.652,49.576 C33.06,49.576 32.568,49.452 32.176,49.204 C31.784,48.956 31.524,48.688 31.396,48.4 C31.268,48.112 31.124,47.844 30.964,47.596 C30.804,47.348 30.62,47.224 30.412,47.224 C29.964,47.224 29.74,47.44 29.74,47.872 C29.74,48.432 30.104,49.008 30.832,49.6 C31.56,50.192 32.5,50.488 33.652,50.488 Z M47.572,46.408 L52.852,34.192 C53.252,33.264 53.592,32.684 53.872,32.452 C54.152,32.22 54.764,32.104 55.708,32.104 L55.708,32.104 L55.708,31.6 L50.116,31.6 L50.116,32.104 C51.108,32.104 51.744,32.244 52.024,32.524 C52.304,32.804 52.292,33.272 51.988,33.928 L51.988,33.928 L47.956,43.264 L43.876,33.928 C43.572,33.272 43.56,32.804 43.84,32.524 C44.12,32.244 44.756,32.104 45.748,32.104 L45.748,32.104 L45.748,31.6 L39.1,31.6 L39.1,32.104 C40.044,32.104 40.656,32.22 40.936,32.452 C41.216,32.684 41.556,33.264 41.956,34.192 L41.956,34.192 L47.26,46.408 L47.572,46.408 Z" id="5V" fill="#524740" fill-rule="nonzero"></path>
                    <text id="+" font-family="Lato-Regular, Lato" font-size="18" font-weight="normal" letter-spacing="0.8999999" fill="#524740">
                        <tspan x="61.3300001" y="45">+</tspan>
                    </text>
                    <text id="-" font-family="Lato-Regular, Lato" font-size="18" font-weight="normal" letter-spacing="0.8999999" fill="#524740">
                        <tspan x="37.2065001" y="72.5">-</tspan>
                    </text>
                </g>
            </g>
            <line x1="102" y1="90" x2="167" y2="90" id="Path-5" stroke="#524740" stroke-width="2"></line>
            <g id="Light-Sensor" transform="translate(140.000000, 19.000000)">
                <g id="Group-2">
                    <rect id="Rectangle-2" stroke="#524740" stroke-width="2" x="27" y="32" width="78" height="78"></rect>
                    <path d="M14.352,17 L14.544,13.808 L14.04,13.808 L13.92,14.288 C13.744,14.992 13.496,15.472 13.176,15.728 C12.856,15.984 12.184,16.112 11.16,16.112 L11.16,16.112 L8.28,16.112 C7.288,16.112 6.66,15.948 6.396,15.62 C6.132,15.292 6,14.528 6,13.328 L6,13.328 L6,5.888 C6,4.688 6.132,3.924 6.396,3.596 C6.66,3.268 7.288,3.104 8.28,3.104 L8.28,3.104 L8.28,2.6 L1.8,2.6 L1.8,3.104 C2.792,3.104 3.42,3.268 3.684,3.596 C3.948,3.924 4.08,4.688 4.08,5.888 L4.08,5.888 L4.08,13.688 C4.08,14.888 3.948,15.656 3.684,15.992 C3.42,16.328 2.792,16.496 1.8,16.496 L1.8,16.496 L1.8,17 L14.352,17 Z M18.336,6.248 C18.624,6.248 18.872,6.144 19.08,5.936 C19.288,5.728 19.392,5.472 19.392,5.168 C19.392,4.88 19.288,4.632 19.08,4.424 C18.872,4.216 18.624,4.112 18.336,4.112 C18.048,4.112 17.8,4.216 17.592,4.424 C17.384,4.632 17.28,4.88 17.28,5.168 C17.28,5.472 17.384,5.728 17.592,5.936 C17.8,6.144 18.048,6.248 18.336,6.248 Z M21.096,17 L21.096,16.496 C20.296,16.496 19.78,16.328 19.548,15.992 C19.316,15.656 19.2,14.888 19.2,13.688 L19.2,13.688 L19.2,8.6 L15.6,9.2 L15.6,9.704 C16.4,9.704 16.916,9.872 17.148,10.208 C17.38,10.544 17.496,11.304 17.496,12.488 L17.496,12.488 L17.496,13.688 C17.496,14.888 17.38,15.656 17.148,15.992 C16.916,16.328 16.4,16.496 15.6,16.496 L15.6,16.496 L15.6,17 L21.096,17 Z M26.208,23.408 C27.424,23.408 28.436,23.116 29.244,22.532 C30.052,21.948 30.456,21.168 30.456,20.192 C30.456,19.376 30.112,18.68 29.424,18.104 C28.736,17.528 27.624,17.176 26.088,17.048 C24.632,16.92 23.904,16.616 23.904,16.136 C23.904,15.672 24.8,15.336 26.592,15.128 C27.424,15.016 28.152,14.656 28.776,14.048 C29.4,13.44 29.712,12.712 29.712,11.864 C29.712,11.128 29.48,10.48 29.016,9.92 C29.272,9.664 29.52,9.536 29.76,9.536 C29.984,9.536 30.148,9.596 30.252,9.716 C30.356,9.836 30.42,9.964 30.444,10.1 C30.468,10.236 30.54,10.36 30.66,10.472 C30.78,10.584 30.96,10.632 31.2,10.616 C31.328,10.616 31.44,10.576 31.536,10.496 C31.824,10.272 31.896,9.936 31.752,9.488 C31.56,8.896 31.112,8.6 30.408,8.6 C30.136,8.6 29.82,8.688 29.46,8.864 C29.1,9.04 28.816,9.256 28.608,9.512 C27.92,8.904 27.096,8.6 26.136,8.6 C25.144,8.6 24.3,8.92 23.604,9.56 C22.908,10.2 22.56,10.968 22.56,11.864 C22.56,12.504 22.74,13.08 23.1,13.592 C23.46,14.104 23.952,14.504 24.576,14.792 C23.232,15.208 22.56,15.848 22.56,16.712 C22.56,17.976 23.696,18.72 25.968,18.944 C27.072,19.056 27.884,19.232 28.404,19.472 C28.924,19.712 29.184,20.096 29.184,20.624 C29.184,21.168 28.884,21.612 28.284,21.956 C27.684,22.3 26.992,22.472 26.208,22.472 C25.712,22.472 25.236,22.4 24.78,22.256 C24.324,22.112 23.94,21.912 23.628,21.656 C23.316,21.4 23.176,21.052 23.208,20.612 C23.24,20.172 23.488,19.688 23.952,19.16 L23.952,19.16 L23.52,18.896 C22.56,19.392 22.048,20 21.984,20.72 C21.92,21.44 22.284,22.068 23.076,22.604 C23.868,23.14 24.912,23.408 26.208,23.408 Z M26.136,14.336 C25.576,14.336 25.144,14.108 24.84,13.652 C24.536,13.196 24.384,12.6 24.384,11.864 C24.384,11.128 24.536,10.528 24.84,10.064 C25.144,9.6 25.576,9.368 26.136,9.368 C26.696,9.368 27.124,9.6 27.42,10.064 C27.716,10.528 27.864,11.128 27.864,11.864 C27.864,12.6 27.712,13.2 27.408,13.664 C27.12,14.112 26.696,14.336 26.136,14.336 Z M37.272,17 L37.272,16.496 C36.616,16.496 36.2,16.34 36.024,16.028 C35.848,15.716 35.76,14.936 35.76,13.688 L35.76,13.688 L35.76,12.128 C35.76,11.472 36.032,10.908 36.576,10.436 C37.12,9.964 37.712,9.728 38.352,9.728 C39.568,9.728 40.176,10.584 40.176,12.296 L40.176,12.296 L40.176,13.688 C40.176,14.92 40.08,15.696 39.888,16.016 C39.696,16.336 39.224,16.496 38.472,16.496 L38.472,16.496 L38.472,17 L43.776,17 L43.776,16.496 C42.96,16.496 42.436,16.328 42.204,15.992 C41.972,15.656 41.856,14.888 41.856,13.688 L41.856,13.688 L41.856,12.176 C41.856,9.792 40.872,8.6 38.904,8.6 C37.752,8.6 36.704,9.176 35.76,10.328 L35.76,10.328 L35.76,2.192 L32.16,2.792 L32.16,3.296 C32.96,3.296 33.476,3.464 33.708,3.8 C33.94,4.136 34.056,4.904 34.056,6.104 L34.056,6.104 L34.056,13.688 C34.056,14.888 33.94,15.656 33.708,15.992 C33.476,16.328 32.96,16.496 32.16,16.496 L32.16,16.496 L32.16,17 L37.272,17 Z M48.384,17.336 C48.784,17.336 49.22,17.208 49.692,16.952 C50.164,16.696 50.568,16.368 50.904,15.968 L50.904,15.968 L50.496,15.56 C49.92,16.104 49.4,16.376 48.936,16.376 C48.216,16.376 47.856,15.8 47.856,14.648 L47.856,14.648 L47.856,9.848 L49.944,9.848 L49.944,9.008 L47.856,9.008 L47.856,6.368 L47.04,6.368 C46.944,7.2 46.736,7.856 46.416,8.336 C46.096,8.816 45.592,9.128 44.904,9.272 L44.904,9.272 L44.904,9.848 L46.152,9.848 L46.152,14.648 C46.152,15.544 46.352,16.216 46.752,16.664 C47.152,17.112 47.696,17.336 48.384,17.336 Z M58.872,17.408 C58.968,16.96 59.2,16.584 59.568,16.28 C59.728,16.312 60.008,16.428 60.408,16.628 C60.808,16.828 61.256,17.008 61.752,17.168 C62.248,17.328 62.768,17.408 63.312,17.408 C64.592,17.408 65.676,17.008 66.564,16.208 C67.452,15.408 67.896,14.368 67.896,13.088 C67.896,11.504 67.056,10.288 65.376,9.44 L65.376,9.44 L63.096,8.264 C61.992,7.688 61.228,7.196 60.804,6.788 C60.38,6.38 60.168,5.88 60.168,5.288 C60.168,4.68 60.388,4.172 60.828,3.764 C61.268,3.356 61.824,3.152 62.496,3.152 C64.704,3.152 65.928,4.552 66.168,7.352 L66.168,7.352 L66.672,7.352 L66.672,2.072 L66.192,2.072 C66.096,2.504 65.864,2.872 65.496,3.176 C64.6,2.52 63.624,2.192 62.568,2.192 C61.416,2.192 60.464,2.536 59.712,3.224 C58.96,3.912 58.584,4.76 58.584,5.768 C58.584,6.632 58.84,7.408 59.352,8.096 C59.864,8.784 60.496,9.328 61.248,9.728 L61.248,9.728 L63.552,10.904 C65.392,11.864 66.312,12.832 66.312,13.808 C66.312,14.576 66.028,15.208 65.46,15.704 C64.892,16.2 64.176,16.448 63.312,16.448 C62.72,16.448 62.18,16.368 61.692,16.208 C61.204,16.048 60.812,15.848 60.516,15.608 C60.22,15.368 59.96,15.08 59.736,14.744 C59.512,14.408 59.348,14.104 59.244,13.832 C59.14,13.56 59.06,13.276 59.004,12.98 C58.948,12.684 58.916,12.484 58.908,12.38 C58.9,12.276 58.896,12.192 58.896,12.128 L58.896,12.128 L58.392,12.128 L58.392,17.408 L58.872,17.408 Z M74.664,17.408 C75.336,17.408 76.008,17.26 76.68,16.964 C77.352,16.668 77.904,16.288 78.336,15.824 L78.336,15.824 L77.904,15.296 C77.568,15.616 77.144,15.88 76.632,16.088 C76.12,16.296 75.664,16.4 75.264,16.4 C74.08,16.4 73.228,16.028 72.708,15.284 C72.188,14.54 72,13.576 72.144,12.392 L72.144,12.392 L77.928,12.392 C78.216,11.384 78.016,10.5 77.328,9.74 C76.64,8.98 75.752,8.6 74.664,8.6 C73.512,8.6 72.484,9.024 71.58,9.872 C70.676,10.72 70.224,11.76 70.224,12.992 C70.224,14.224 70.64,15.268 71.472,16.124 C72.304,16.98 73.368,17.408 74.664,17.408 Z M76.272,11.504 L72.288,11.504 C72.464,10.912 72.756,10.44 73.164,10.088 C73.572,9.736 74.032,9.56 74.544,9.56 C75.264,9.56 75.772,9.772 76.068,10.196 C76.364,10.62 76.432,11.056 76.272,11.504 L76.272,11.504 Z M85.392,17 L85.392,16.496 C84.656,16.496 84.192,16.336 84,16.016 C83.808,15.696 83.712,14.92 83.712,13.688 L83.712,13.688 L83.712,12.128 C83.712,11.488 84,10.928 84.576,10.448 C85.152,9.968 85.784,9.728 86.472,9.728 C87.8,9.728 88.464,10.584 88.464,12.296 L88.464,12.296 L88.464,13.688 C88.464,14.872 88.344,15.636 88.104,15.98 C87.864,16.324 87.352,16.496 86.568,16.496 L86.568,16.496 L86.568,17 L92.064,17 L92.064,16.496 C91.264,16.496 90.748,16.328 90.516,15.992 C90.284,15.656 90.168,14.888 90.168,13.688 L90.168,13.688 L90.168,12.176 C90.168,11.104 89.908,10.24 89.388,9.584 C88.868,8.928 88.088,8.6 87.048,8.6 C85.736,8.6 84.624,9.176 83.712,10.328 C83.584,9.48 83.448,8.904 83.304,8.6 L83.304,8.6 L80.112,9.2 L80.112,9.704 C80.912,9.704 81.428,9.872 81.66,10.208 C81.892,10.544 82.008,11.304 82.008,12.488 L82.008,12.488 L82.008,13.688 C82.008,14.888 81.892,15.656 81.66,15.992 C81.428,16.328 80.912,16.496 80.112,16.496 L80.112,16.496 L80.112,17 L85.392,17 Z M94.176,17.408 C94.176,17.088 94.208,16.872 94.272,16.76 C94.336,16.648 94.448,16.62 94.608,16.676 C94.768,16.732 94.94,16.812 95.124,16.916 C95.308,17.02 95.552,17.128 95.856,17.24 C96.16,17.352 96.456,17.408 96.744,17.408 C97.544,17.408 98.22,17.164 98.772,16.676 C99.324,16.188 99.6,15.56 99.6,14.792 C99.6,13.88 99.048,13.112 97.944,12.488 L97.944,12.488 L96.792,11.864 C96.232,11.56 95.848,11.308 95.64,11.108 C95.432,10.908 95.328,10.672 95.328,10.4 C95.328,10.096 95.432,9.848 95.64,9.656 C95.848,9.464 96.152,9.368 96.552,9.368 C97.128,9.368 97.596,9.572 97.956,9.98 C98.316,10.388 98.496,10.856 98.496,11.384 L98.496,11.384 L99,11.384 L99,8.6 L98.496,8.6 C98.496,8.92 98.46,9.1 98.388,9.14 C98.316,9.18 98.184,9.144 97.992,9.032 C97.416,8.744 96.856,8.6 96.312,8.6 C95.672,8.6 95.108,8.808 94.62,9.224 C94.132,9.64 93.888,10.16 93.888,10.784 C93.888,11.808 94.416,12.608 95.472,13.184 L95.472,13.184 L96.816,13.904 C97.712,14.384 98.16,14.872 98.16,15.368 C98.16,15.704 98.028,15.992 97.764,16.232 C97.5,16.472 97.176,16.592 96.792,16.592 C96.008,16.592 95.376,16.3 94.896,15.716 C94.416,15.132 94.176,14.528 94.176,13.904 L94.176,13.904 L93.672,13.904 L93.672,17.408 L94.176,17.408 Z M106.68,17.408 C108.008,17.408 109.148,16.976 110.1,16.112 C111.052,15.248 111.528,14.208 111.528,12.992 C111.528,11.776 111.048,10.744 110.088,9.896 C109.144,9.032 108.008,8.6 106.68,8.6 C105.352,8.6 104.212,9.028 103.26,9.884 C102.308,10.74 101.832,11.776 101.832,12.992 C101.832,14.208 102.308,15.248 103.26,16.112 C104.212,16.976 105.352,17.408 106.68,17.408 Z M106.68,16.472 C105.736,16.472 105.016,16.144 104.52,15.488 C104.024,14.832 103.776,14 103.776,12.992 C103.776,11.984 104.024,11.152 104.52,10.496 C105.016,9.84 105.736,9.512 106.68,9.512 C107.624,9.512 108.344,9.836 108.84,10.484 C109.336,11.132 109.584,11.968 109.584,12.992 C109.584,14.016 109.336,14.856 108.84,15.512 C108.344,16.152 107.624,16.472 106.68,16.472 Z M119.088,17 L119.088,16.496 C118.288,16.496 117.772,16.328 117.54,15.992 C117.308,15.656 117.192,14.888 117.192,13.688 L117.192,13.688 L117.192,12.368 C117.192,11.52 117.408,10.84 117.84,10.328 C118.272,9.816 118.672,9.56 119.04,9.56 C119.552,9.56 119.808,9.824 119.808,10.352 C119.808,10.576 119.892,10.776 120.06,10.952 C120.228,11.128 120.424,11.216 120.648,11.216 C121.288,11.216 121.608,10.84 121.608,10.088 C121.608,9.736 121.444,9.4 121.116,9.08 C120.788,8.76 120.32,8.6 119.712,8.6 C119.232,8.6 118.752,8.768 118.272,9.104 C117.792,9.44 117.432,9.848 117.192,10.328 C117.064,9.48 116.928,8.904 116.784,8.6 L116.784,8.6 L113.592,9.2 L113.592,9.704 C114.392,9.704 114.908,9.872 115.14,10.208 C115.372,10.544 115.488,11.304 115.488,12.488 L115.488,12.488 L115.488,13.688 C115.488,14.888 115.372,15.656 115.14,15.992 C114.908,16.328 114.392,16.496 113.592,16.496 L113.592,16.496 L113.592,17 L119.088,17 Z" id="LightSensor" fill="#524740" fill-rule="nonzero"></path>
                    <text id="+" font-family="Lato-Regular, Lato" font-size="18" font-weight="normal" letter-spacing="0.8999999" fill="#524740">
                        <tspan x="35.3300001" y="77">+</tspan>
                    </text>
                    <text id="s" font-family="Lato-Regular, Lato" font-size="18" font-weight="normal" letter-spacing="0.8999999" fill="#524740">
                        <tspan x="87.6530001" y="76">s</tspan>
                    </text>
                    <text id="-" font-family="Lato-Regular, Lato" font-size="18" font-weight="normal" letter-spacing="0.8999999" fill="#524740">
                        <tspan x="63.2065001" y="103.5">-</tspan>
                    </text>
                </g>
            </g>
            <g id="Ground-Copy-2" transform="translate(206.500000, 164.500000) rotate(-90.000000) translate(-206.500000, -164.500000) translate(187.500000, 148.000000)" stroke="#524740" stroke-width="2">
                <line x1="12.5" y1="17" x2="37.5" y2="17" id="Path-2-Copy"></line>
                <line x1="7" y1="6.5" x2="7" y2="26.5" id="Path-4"></line>
                <line x1="1" y1="13.5" x2="1" y2="19.5" id="Path-4-Copy"></line>
                <line x1="13" y1="0" x2="13" y2="33" id="Path-3-Copy"></line>
            </g>
            <line x1="405" y1="90" x2="445" y2="90" id="Path-16-Copy" stroke="#524740" stroke-width="2"></line>
            <line x1="515" y1="90" x2="555" y2="90" id="Path-16-Copy-3" stroke="#524740" stroke-width="2"></line>
            <line x1="355" y1="90" x2="395" y2="90" id="Path-16-Copy-2" stroke="#524740" stroke-width="2"></line>
            <line x1="61.978189" y1="147.582019" x2="61.978189" y2="129.489949" id="Path-21" stroke="#524740" stroke-width="2"></line>
            <line x1="206.978189" y1="147.582019" x2="206.978189" y2="129.489949" id="Path-21-Copy" stroke="#524740" stroke-width="2"></line>
        </g>
    </g>
</svg>