<?xml version="1.0" encoding="UTF-8"?>
<svg width="900px" height="250px" viewBox="0 0 900 250" version="1.1" xmlns="http://www.w3.org/2000/svg" xmlns:xlink="http://www.w3.org/1999/xlink">
    <!-- Generator: Sketch 60.1 (88133) - https://sketch.com -->
    <title>Photoresistor_Circuit</title>
    <desc>Created with Sketch.</desc>
    <g id="Photoresistor_Circuit" stroke="none" stroke-width="1" fill="none" fill-rule="evenodd">
        <g id="Illustration_Frame">
            <rect id="Rectangle" stroke="#3D3530" stroke-width="2" fill="#EEEEEE" x="1" y="1" width="898" height="248"></rect>
            <rect id="Rectangle-Copy" stroke="#3D3530" stroke-width="2" fill="#F8FAE4" x="1" y="206" width="898" height="43"></rect>
            <path d="M641.479999,235 L641.479999,228.904 L645.367999,228.904 C647.175999,228.904 648.615999,228.424 649.687999,227.464 C650.759999,226.504 651.295999,225.312 651.295999,223.888 C651.295999,222.448 650.759999,221.252 649.687999,220.3 C648.615999,219.348 647.175999,218.872 645.367999,218.872 L645.367999,218.872 L639.895999,218.872 L639.895999,235 L641.479999,235 Z M645.367999,227.392 L641.479999,227.392 L641.479999,220.384 L645.367999,220.384 C646.663999,220.384 647.703999,220.72 648.487999,221.392 C649.271999,222.064 649.663999,222.896 649.663999,223.888 C649.663999,224.896 649.271999,225.732 648.487999,226.396 C647.703999,227.06 646.663999,227.392 645.367999,227.392 L645.367999,227.392 Z M656.570666,235 L656.570666,227.968 C656.570666,226.944 656.918666,226.076 657.614666,225.364 C658.310666,224.652 659.154666,224.296 660.146666,224.296 C661.154666,224.296 662.002666,224.652 662.690666,225.364 C663.378666,226.076 663.722666,226.952 663.722666,227.992 L663.722666,227.992 L663.722666,235 L665.330666,235 L665.330666,227.968 C665.330666,226.528 664.858666,225.308 663.914666,224.308 C662.970666,223.308 661.802666,222.808 660.410666,222.808 C658.826666,222.808 657.546666,223.464 656.570666,224.776 L656.570666,224.776 L656.570666,217.144 L654.986666,217.144 L654.986666,235 L656.570666,235 Z M674.445333,235.192 C676.157333,235.192 677.613333,234.584 678.813333,233.368 C680.029333,232.152 680.637333,230.696 680.637333,229 C680.637333,227.288 680.033333,225.828 678.825333,224.62 C677.617333,223.412 676.157333,222.808 674.445333,222.808 C672.733333,222.808 671.273333,223.412 670.065333,224.62 C668.857333,225.828 668.253333,227.288 668.253333,229 C668.253333,230.712 668.857333,232.172 670.065333,233.38 C671.273333,234.588 672.733333,235.192 674.445333,235.192 Z M674.469333,233.68 C673.189333,233.68 672.101333,233.228 671.205333,232.324 C670.309333,231.42 669.861333,230.312 669.861333,229 C669.861333,227.688 670.309333,226.576 671.205333,225.664 C672.101333,224.752 673.189333,224.296 674.469333,224.296 C675.765333,224.296 676.857333,224.752 677.745333,225.664 C678.633333,226.576 679.077333,227.688 679.077333,229 C679.077333,230.312 678.633333,231.42 677.745333,232.324 C676.857333,233.228 675.765333,233.68 674.469333,233.68 Z M687.975999,235.192 C688.567999,235.192 689.143999,235.036 689.703999,234.724 C690.263999,234.412 690.623999,234.168 690.783999,233.992 C690.943999,233.816 691.071999,233.664 691.167999,233.536 L691.167999,233.536 L690.375999,232.312 C690.375999,232.376 690.291999,232.516 690.123999,232.732 C689.955999,232.948 689.695999,233.168 689.343999,233.392 C688.991999,233.616 688.631999,233.728 688.263999,233.728 C687.671999,233.728 687.147999,233.512 686.691999,233.08 C686.235999,232.648 686.007999,232.064 686.007999,231.328 L686.007999,231.328 L686.007999,224.44 L689.631999,224.44 L689.631999,222.976 L686.007999,222.976 L686.007999,218.992 L684.423999,219.184 L684.423999,222.976 L682.503999,222.976 L682.503999,224.44 L684.423999,224.44 L684.423999,231.688 C684.423999,232.824 684.763999,233.692 685.443999,234.292 C686.123999,234.892 686.967999,235.192 687.975999,235.192 Z M698.818666,235.192 C700.530666,235.192 701.986666,234.584 703.186666,233.368 C704.402666,232.152 705.010666,230.696 705.010666,229 C705.010666,227.288 704.406666,225.828 703.198666,224.62 C701.990666,223.412 700.530666,222.808 698.818666,222.808 C697.106666,222.808 695.646666,223.412 694.438666,224.62 C693.230666,225.828 692.626666,227.288 692.626666,229 C692.626666,230.712 693.230666,232.172 694.438666,233.38 C695.646666,234.588 697.106666,235.192 698.818666,235.192 Z M698.842666,233.68 C697.562666,233.68 696.474666,233.228 695.578666,232.324 C694.682666,231.42 694.234666,230.312 694.234666,229 C694.234666,227.688 694.682666,226.576 695.578666,225.664 C696.474666,224.752 697.562666,224.296 698.842666,224.296 C700.138666,224.296 701.230666,224.752 702.118666,225.664 C703.006666,226.576 703.450666,227.688 703.450666,229 C703.450666,230.312 703.006666,231.42 702.118666,232.324 C701.230666,233.228 700.138666,233.68 698.842666,233.68 Z M709.637333,235 L709.637333,227.968 C709.637333,226.928 709.981333,226.052 710.669333,225.34 C711.357333,224.628 712.205333,224.272 713.213333,224.272 C713.901333,224.272 714.581333,224.52 715.253333,225.016 L715.253333,225.016 L715.805333,223.432 C715.101333,223.016 714.325333,222.808 713.477333,222.808 C711.893333,222.808 710.613333,223.464 709.637333,224.776 L709.637333,224.776 L709.637333,223 L708.053333,223 L708.053333,235 L709.637333,235 Z M723.119999,235.072 C724.591999,235.088 725.859999,234.672 726.923999,233.824 C727.987999,232.976 728.703999,232.048 729.071999,231.04 L729.071999,231.04 L727.727999,230.56 C727.423999,231.376 726.847999,232.088 725.999999,232.696 C725.151999,233.304 724.191999,233.608 723.119999,233.608 C722.127999,233.624 721.223999,233.324 720.407999,232.708 C719.591999,232.092 719.047999,231.304 718.775999,230.344 L718.775999,230.344 L729.263999,228.448 C729.263999,228.32 729.255999,228.216 729.239999,228.136 C729.063999,226.6 728.391999,225.312 727.223999,224.272 C726.055999,223.232 724.687999,222.704 723.119999,222.688 C721.391999,222.704 719.927999,223.312 718.727999,224.512 C717.527999,225.712 716.927999,227.176 716.927999,228.904 C716.927999,229.528 717.007999,230.104 717.167999,230.632 C717.567999,231.928 718.323999,232.992 719.435999,233.824 C720.547999,234.656 721.775999,235.072 723.119999,235.072 Z M718.535999,229.048 C718.535999,228.968 718.531999,228.868 718.523999,228.748 C718.515999,228.628 718.511999,228.544 718.511999,228.496 C718.575999,227.312 719.035999,226.296 719.891999,225.448 C720.747999,224.6 721.775999,224.168 722.975999,224.152 C723.999999,224.136 724.927999,224.436 725.759999,225.052 C726.591999,225.668 727.159999,226.464 727.463999,227.44 L727.463999,227.44 L718.535999,229.048 Z M736.386666,235.192 C737.858666,235.192 738.962666,234.88 739.698666,234.256 C740.434666,233.632 740.802666,232.816 740.802666,231.808 C740.802666,231.088 740.538666,230.476 740.010666,229.972 C739.482666,229.468 738.838666,229.084 738.078666,228.82 C737.318666,228.556 736.562666,228.312 735.810666,228.088 C735.058666,227.864 734.418666,227.596 733.890666,227.284 C733.362666,226.972 733.098666,226.6 733.098666,226.168 C733.098666,225.56 733.366666,225.088 733.902666,224.752 C734.438666,224.416 735.138666,224.248 736.002666,224.248 C736.610666,224.248 737.218666,224.384 737.826666,224.656 C738.434666,224.928 738.838666,225.144 739.038666,225.304 C739.238666,225.464 739.394666,225.6 739.506666,225.712 L739.506666,225.712 L740.634666,224.728 L740.130666,224.248 C739.794666,223.928 739.242666,223.608 738.474666,223.288 C737.706666,222.968 736.890666,222.808 736.026666,222.808 C734.570666,222.808 733.470666,223.124 732.726666,223.756 C731.982666,224.388 731.610666,225.2 731.610666,226.192 C731.610666,226.912 731.874666,227.52 732.402666,228.016 C732.930666,228.512 733.574666,228.896 734.334666,229.168 C735.094666,229.44 735.850666,229.688 736.602666,229.912 C737.354666,230.136 737.994666,230.404 738.522666,230.716 C739.050666,231.028 739.314666,231.4 739.314666,231.832 C739.314666,232.44 739.050666,232.912 738.522666,233.248 C737.994666,233.584 737.290666,233.752 736.410666,233.752 C735.818666,233.752 735.218666,233.616 734.610666,233.344 C734.002666,233.072 733.598666,232.856 733.398666,232.696 C733.198666,232.536 733.042666,232.4 732.930666,232.288 L732.930666,232.288 L731.802666,233.248 L731.994666,233.464 C732.122666,233.592 732.322666,233.752 732.594666,233.944 C732.866666,234.136 733.174666,234.324 733.518666,234.508 C733.862666,234.692 734.290666,234.852 734.802666,234.988 C735.314666,235.124 735.842666,235.192 736.386666,235.192 Z M745.165333,219.688 C745.437333,219.688 745.661333,219.592 745.837333,219.4 C746.029333,219.208 746.125333,218.984 746.125333,218.728 C746.125333,218.472 746.033333,218.248 745.849333,218.056 C745.665333,217.864 745.437333,217.768 745.165333,217.768 C744.893333,217.768 744.665333,217.864 744.481333,218.056 C744.297333,218.248 744.205333,218.472 744.205333,218.728 C744.205333,218.984 744.297333,219.208 744.481333,219.4 C744.665333,219.592 744.893333,219.688 745.165333,219.688 Z M745.957333,235 L745.957333,223 L744.373333,223 L744.373333,235 L745.957333,235 Z M754.232,235.192 C755.704,235.192 756.808,234.88 757.544,234.256 C758.28,233.632 758.648,232.816 758.648,231.808 C758.648,231.088 758.384,230.476 757.856,229.972 C757.328,229.468 756.684,229.084 755.924,228.82 C755.164,228.556 754.408,228.312 753.656,228.088 C752.904,227.864 752.264,227.596 751.736,227.284 C751.208,226.972 750.944,226.6 750.944,226.168 C750.944,225.56 751.212,225.088 751.748,224.752 C752.284,224.416 752.984,224.248 753.848,224.248 C754.456,224.248 755.064,224.384 755.672,224.656 C756.28,224.928 756.684,225.144 756.884,225.304 C757.084,225.464 757.24,225.6 757.352,225.712 L757.352,225.712 L758.48,224.728 L757.976,224.248 C757.64,223.928 757.088,223.608 756.32,223.288 C755.552,222.968 754.736,222.808 753.872,222.808 C752.416,222.808 751.316,223.124 750.572,223.756 C749.828,224.388 749.456,225.2 749.456,226.192 C749.456,226.912 749.72,227.52 750.248,228.016 C750.776,228.512 751.42,228.896 752.18,229.168 C752.94,229.44 753.696,229.688 754.448,229.912 C755.2,230.136 755.84,230.404 756.368,230.716 C756.896,231.028 757.16,231.4 757.16,231.832 C757.16,232.44 756.896,232.912 756.368,233.248 C755.84,233.584 755.136,233.752 754.256,233.752 C753.664,233.752 753.064,233.616 752.456,233.344 C751.848,233.072 751.444,232.856 751.244,232.696 C751.044,232.536 750.888,232.4 750.776,232.288 L750.776,232.288 L749.648,233.248 L749.84,233.464 C749.968,233.592 750.168,233.752 750.44,233.944 C750.712,234.136 751.02,234.324 751.364,234.508 C751.708,234.692 752.136,234.852 752.648,234.988 C753.16,235.124 753.688,235.192 754.232,235.192 Z M765.914666,235.192 C766.506666,235.192 767.082666,235.036 767.642666,234.724 C768.202666,234.412 768.562666,234.168 768.722666,233.992 C768.882666,233.816 769.010666,233.664 769.106666,233.536 L769.106666,233.536 L768.314666,232.312 C768.314666,232.376 768.230666,232.516 768.062666,232.732 C767.894666,232.948 767.634666,233.168 767.282666,233.392 C766.930666,233.616 766.570666,233.728 766.202666,233.728 C765.610666,233.728 765.086666,233.512 764.630666,233.08 C764.174666,232.648 763.946666,232.064 763.946666,231.328 L763.946666,231.328 L763.946666,224.44 L767.570666,224.44 L767.570666,222.976 L763.946666,222.976 L763.946666,218.992 L762.362666,219.184 L762.362666,222.976 L760.442666,222.976 L760.442666,224.44 L762.362666,224.44 L762.362666,231.688 C762.362666,232.824 762.702666,233.692 763.382666,234.292 C764.062666,234.892 764.906666,235.192 765.914666,235.192 Z M776.757333,235.192 C778.469333,235.192 779.925333,234.584 781.125333,233.368 C782.341333,232.152 782.949333,230.696 782.949333,229 C782.949333,227.288 782.345333,225.828 781.137333,224.62 C779.929333,223.412 778.469333,222.808 776.757333,222.808 C775.045333,222.808 773.585333,223.412 772.377333,224.62 C771.169333,225.828 770.565333,227.288 770.565333,229 C770.565333,230.712 771.169333,232.172 772.377333,233.38 C773.585333,234.588 775.045333,235.192 776.757333,235.192 Z M776.781333,233.68 C775.501333,233.68 774.413333,233.228 773.517333,232.324 C772.621333,231.42 772.173333,230.312 772.173333,229 C772.173333,227.688 772.621333,226.576 773.517333,225.664 C774.413333,224.752 775.501333,224.296 776.781333,224.296 C778.077333,224.296 779.169333,224.752 780.057333,225.664 C780.945333,226.576 781.389333,227.688 781.389333,229 C781.389333,230.312 780.945333,231.42 780.057333,232.324 C779.169333,233.228 778.077333,233.68 776.781333,233.68 Z M787.576,235 L787.576,227.968 C787.576,226.928 787.92,226.052 788.608,225.34 C789.296,224.628 790.144,224.272 791.152,224.272 C791.84,224.272 792.52,224.52 793.192,225.016 L793.192,225.016 L793.744,223.432 C793.04,223.016 792.264,222.808 791.416,222.808 C789.832,222.808 788.552,223.464 787.576,224.776 L787.576,224.776 L787.576,223 L785.992,223 L785.992,235 L787.576,235 Z M810.869333,235.192 C812.437333,235.192 813.801333,234.836 814.961333,234.124 C816.121333,233.412 817.021333,232.432 817.661333,231.184 L817.661333,231.184 L816.173333,230.296 C815.677333,231.336 814.969333,232.164 814.049333,232.78 C813.129333,233.396 812.069333,233.704 810.869333,233.704 C809.045333,233.704 807.585333,233.064 806.489333,231.784 C805.393333,230.504 804.845333,228.896 804.845333,226.96 C804.845333,225.008 805.393333,223.396 806.489333,222.124 C807.585333,220.852 809.045333,220.216 810.869333,220.216 C812.053333,220.216 813.105333,220.52 814.025333,221.128 C814.945333,221.736 815.661333,222.56 816.173333,223.6 L816.173333,223.6 L817.661333,222.736 C817.021333,221.488 816.121333,220.504 814.961333,219.784 C813.801333,219.064 812.437333,218.704 810.869333,218.704 C808.501333,218.704 806.613333,219.492 805.205333,221.068 C803.797333,222.644 803.093333,224.608 803.093333,226.96 C803.093333,229.296 803.797333,231.252 805.205333,232.828 C806.613333,234.404 808.501333,235.192 810.869333,235.192 Z M822.168,219.688 C822.44,219.688 822.664,219.592 822.84,219.4 C823.032,219.208 823.128,218.984 823.128,218.728 C823.128,218.472 823.036,218.248 822.852,218.056 C822.668,217.864 822.44,217.768 822.168,217.768 C821.896,217.768 821.668,217.864 821.484,218.056 C821.3,218.248 821.208,218.472 821.208,218.728 C821.208,218.984 821.3,219.208 821.484,219.4 C821.668,219.592 821.896,219.688 822.168,219.688 Z M822.96,235 L822.96,223 L821.376,223 L821.376,235 L822.96,235 Z M828.882666,235 L828.882666,227.968 C828.882666,226.928 829.226666,226.052 829.914666,225.34 C830.602666,224.628 831.450666,224.272 832.458666,224.272 C833.146666,224.272 833.826666,224.52 834.498666,225.016 L834.498666,225.016 L835.050666,223.432 C834.346666,223.016 833.570666,222.808 832.722666,222.808 C831.138666,222.808 829.858666,223.464 828.882666,224.776 L828.882666,224.776 L828.882666,223 L827.298666,223 L827.298666,235 L828.882666,235 Z M842.365333,235.192 C843.453333,235.192 844.465333,234.924 845.401333,234.388 C846.337333,233.852 847.077333,233.136 847.621333,232.24 L847.621333,232.24 L846.181333,231.544 C845.749333,232.2 845.197333,232.72 844.525333,233.104 C843.853333,233.488 843.133333,233.68 842.365333,233.68 C841.069333,233.68 839.977333,233.228 839.089333,232.324 C838.201333,231.42 837.757333,230.312 837.757333,229 C837.757333,227.688 838.201333,226.58 839.089333,225.676 C839.977333,224.772 841.069333,224.32 842.365333,224.32 C843.133333,224.32 843.853333,224.512 844.525333,224.896 C845.197333,225.28 845.749333,225.8 846.181333,226.456 L846.181333,226.456 L847.621333,225.76 C847.077333,224.864 846.337333,224.148 845.401333,223.612 C844.465333,223.076 843.453333,222.808 842.365333,222.808 C840.653333,222.808 839.193333,223.412 837.985333,224.62 C836.777333,225.828 836.173333,227.288 836.173333,229 C836.173333,230.712 836.777333,232.172 837.985333,233.38 C839.193333,234.588 840.653333,235.192 842.365333,235.192 Z M855.824,235.192 C857.408,235.192 858.688,234.536 859.664,233.224 L859.664,233.224 L859.664,235 L861.248,235 L861.248,223 L859.664,223 L859.664,230.032 C859.664,231.056 859.32,231.924 858.632,232.636 C857.944,233.348 857.096,233.704 856.088,233.704 C855.096,233.704 854.256,233.348 853.568,232.636 C852.88,231.924 852.536,231.056 852.536,230.032 L852.536,230.032 L852.536,223 L850.904,223 L850.904,230.08 C850.904,231.52 851.376,232.732 852.32,233.716 C853.264,234.7 854.432,235.192 855.824,235.192 Z M866.378667,219.688 C866.650667,219.688 866.874667,219.592 867.050667,219.4 C867.242667,219.208 867.338667,218.984 867.338667,218.728 C867.338667,218.472 867.246667,218.248 867.062667,218.056 C866.878667,217.864 866.650667,217.768 866.378667,217.768 C866.106667,217.768 865.878667,217.864 865.694667,218.056 C865.510667,218.248 865.418667,218.472 865.418667,218.728 C865.418667,218.984 865.510667,219.208 865.694667,219.4 C865.878667,219.592 866.106667,219.688 866.378667,219.688 Z M867.170667,235 L867.170667,223 L865.586667,223 L865.586667,235 L867.170667,235 Z M875.253333,235.192 C875.845333,235.192 876.421333,235.036 876.981333,234.724 C877.541333,234.412 877.901333,234.168 878.061333,233.992 C878.221333,233.816 878.349333,233.664 878.445333,233.536 L878.445333,233.536 L877.653333,232.312 C877.653333,232.376 877.569333,232.516 877.401333,232.732 C877.233333,232.948 876.973333,233.168 876.621333,233.392 C876.269333,233.616 875.909333,233.728 875.541333,233.728 C874.949333,233.728 874.425333,233.512 873.969333,233.08 C873.513333,232.648 873.285333,232.064 873.285333,231.328 L873.285333,231.328 L873.285333,224.44 L876.909333,224.44 L876.909333,222.976 L873.285333,222.976 L873.285333,218.992 L871.701333,219.184 L871.701333,222.976 L869.781333,222.976 L869.781333,224.44 L871.701333,224.44 L871.701333,231.688 C871.701333,232.824 872.041333,233.692 872.721333,234.292 C873.401333,234.892 874.245333,235.192 875.253333,235.192 Z" id="PhotoresistorCircuit" fill="#23ABE3" fill-rule="nonzero"></path>
        </g>
        <g transform="translate(268.000000, 19.000000)">
            <g id="R1" transform="translate(75.000000, 27.000000)">
                <polyline id="Resistor" stroke="#524740" stroke-width="2" stroke-linejoin="bevel" transform="translate(35.000000, 65.000000) rotate(-360.000000) translate(-35.000000, -65.000000) " points="0 65 5 65 10 52 20 78 30 52 40 78 50 52 60 78 65 65 70 65"></polyline>
                <g id="Photoresistor" transform="translate(150.000000, 0.000000)">
                    <polyline id="Resistor-Copy" stroke="#524740" stroke-width="2" stroke-linejoin="bevel" points="10 65 15 65 20 52 30.5 78 40 52 50 78 60 52 70 78 75 65 80 65"></polyline>
                    <g id="Line" transform="translate(68.500000, 13.500000) rotate(-330.000000) translate(-68.500000, -13.500000) translate(66.000000, 0.000000)">
                        <polygon id="Triangle" fill="#524740" transform="translate(2.500000, 20.000000) scale(1, -1) translate(-2.500000, -20.000000) " points="2.5 13.5 5 26.5 0 26.5"></polygon>
                        <line x1="2.5" y1="0" x2="2.5" y2="20" id="Path-3" stroke="#524740" stroke-width="2"></line>
                    </g>
                    <g id="Line-Copy" transform="translate(78.500000, 19.500000) rotate(-330.000000) translate(-78.500000, -19.500000) translate(76.000000, 6.000000)">
                        <polygon id="Triangle" fill="#524740" transform="translate(2.500000, 20.000000) scale(1, -1) translate(-2.500000, -20.000000) " points="2.5 13.5 5 26.5 0 26.5"></polygon>
                        <line x1="2.5" y1="0" x2="2.5" y2="20" id="Path-3" stroke="#524740" stroke-width="2"></line>
                    </g>
                    <circle id="Oval" stroke="#524740" stroke-width="2" cx="45" cy="65" r="39"></circle>
                    <line x1="10" y1="65" x2="0" y2="65" id="Path-4" stroke="#524740" stroke-width="2"></line>
                    <line x1="90" y1="65" x2="80" y2="65" id="Path-4-Copy" stroke="#524740" stroke-width="2"></line>
                </g>
            </g>
            <g id="R1" transform="translate(80.000000, 47.000000)" fill="#524740" fill-rule="nonzero">
                <path d="M10.5830781,23.08 L10.5830781,22.576 C9.59107812,22.576 8.95907813,22.412 8.68707813,22.084 C8.41507813,21.756 8.27907813,20.992 8.27907813,19.792 L8.27907813,19.792 L8.27907813,17.992 L11.7590781,17.992 L11.9510781,14.824 L11.4470781,14.824 L11.3270781,15.304 C11.1510781,16.008 10.8990781,16.488 10.5710781,16.744 C10.2430781,17 9.56707813,17.128 8.54307813,17.128 L8.54307813,17.128 L8.27907813,17.128 L8.27907813,7.192 L7.84707813,7.192 L1.15107813,17.536 L1.15107813,17.992 L6.59907813,17.992 L6.59907813,19.792 C6.59907813,20.992 6.46307813,21.756 6.19107813,22.084 C5.91907813,22.412 5.28707813,22.576 4.29507813,22.576 L4.29507813,22.576 L4.29507813,23.08 L10.5830781,23.08 Z M6.59907813,17.128 L2.44707813,17.128 L6.59907813,10.72 L6.59907813,17.128 Z M16.9430781,19.192 C17.3110781,19.192 17.6310781,19.068 17.9030781,18.82 C18.1750781,18.572 18.3110781,18.28 18.3110781,17.944 C18.3110781,17.592 18.1750781,17.292 17.9030781,17.044 C17.6310781,16.796 17.3110781,16.672 16.9430781,16.672 C16.5750781,16.672 16.2630781,16.796 16.0070781,17.044 C15.7510781,17.292 15.6230781,17.592 15.6230781,17.944 C15.6230781,18.28 15.7510781,18.572 16.0070781,18.82 C16.2630781,19.068 16.5750781,19.192 16.9430781,19.192 Z M24.2150781,23.44 C24.5350781,23.536 24.7870781,23.488 24.9710781,23.296 C25.1550781,23.104 25.3350781,22.776 25.5110781,22.312 L25.5110781,22.312 L30.7910781,9.064 L30.7910781,8.392 L26.5190781,8.392 C25.3190781,8.392 24.5510781,8.276 24.2150781,8.044 C23.8790781,7.812 23.7110781,7.296 23.7110781,6.496 L23.7110781,6.496 L23.2310781,6.496 L22.2230781,12.4 L22.7270781,12.4 L22.8470781,11.92 C23.0230781,11.2 23.2710781,10.716 23.5910781,10.468 C23.9110781,10.22 24.5910781,10.096 25.6310781,10.096 L25.6310781,10.096 L29.5430781,10.096 L23.8310781,22 C23.6550781,22.448 23.6190781,22.784 23.7230781,23.008 C23.8270781,23.232 23.9910781,23.376 24.2150781,23.44 Z M38.0150781,19 L38.0150781,18.496 C37.2150781,18.496 36.6990781,18.328 36.4670781,17.992 C36.2350781,17.656 36.1190781,16.888 36.1190781,15.688 L36.1190781,15.688 L36.1190781,15.256 L36.3350781,15.088 L40.2710781,19 L42.9350781,19 L42.9350781,18.496 C42.3750781,18.496 41.9030781,18.304 41.5190781,17.92 L41.5190781,17.92 L37.6550781,14.032 L39.6950781,12.352 C40.3190781,11.856 41.1590781,11.568 42.2150781,11.488 L42.2150781,11.488 L42.2150781,11.008 L37.4150781,11.008 L37.4150781,11.488 C38.0070781,11.488 38.3750781,11.62 38.5190781,11.884 C38.6630781,12.148 38.5350781,12.44 38.1350781,12.76 L38.1350781,12.76 L36.1190781,14.392 L36.1190781,4.192 L32.5190781,4.792 L32.5190781,5.296 C33.3190781,5.296 33.8350781,5.464 34.0670781,5.8 C34.2990781,6.136 34.4150781,6.904 34.4150781,8.104 L34.4150781,8.104 L34.4150781,15.688 C34.4150781,16.888 34.2990781,17.656 34.0670781,17.992 C33.8350781,18.328 33.3190781,18.496 32.5190781,18.496 L32.5190781,18.496 L32.5190781,19 L38.0150781,19 Z M50.6504219,19 L50.6504219,17.1953125 C49.3222969,16.296875 48.3262031,15.2011719 47.6621406,13.9082031 C46.9980781,12.6152344 46.6660469,11.1210938 46.6660469,9.42578125 C46.6660469,7.42578125 47.1543281,5.859375 48.1308906,4.7265625 C49.1074531,3.59375 50.4512031,3.02734375 52.1621406,3.02734375 C53.8808906,3.02734375 55.2265938,3.59375 56.19925,4.7265625 C57.1719063,5.859375 57.6582344,7.421875 57.6582344,9.4140625 C57.6582344,11.1171875 57.3262031,12.6171875 56.6621406,13.9140625 C55.9980781,15.2109375 55.0058906,16.3046875 53.6855781,17.1953125 L53.6855781,17.1953125 L53.6855781,19 L60.8340156,19 L60.8340156,17.1953125 L56.0644844,17.1953125 C57.4629219,16.1484375 58.51175,14.9628906 59.2109688,13.6386719 C59.9101875,12.3144531 60.2597969,10.8515625 60.2597969,9.25 C60.2597969,6.8984375 59.5019844,4.97265625 57.9863594,3.47265625 C56.4707344,1.97265625 54.5293281,1.22265625 52.1621406,1.22265625 C49.7949531,1.22265625 47.8535469,1.97460938 46.3379219,3.47851562 C44.8222969,4.98242188 44.0644844,6.90625 44.0644844,9.25 C44.0644844,10.84375 44.4140938,12.3027344 45.1133125,13.6269531 C45.8125313,14.9511719 46.8613594,16.140625 48.2597969,17.1953125 L48.2597969,17.1953125 L43.4902656,17.1953125 L43.4902656,19 L50.6504219,19 Z" id="4.7kΩ"></path>
            </g>
            <g id="R2" transform="translate(222.000000, 0.000000)" fill="#524740" fill-rule="nonzero">
                <path d="M8.21815625,19 L8.21815625,18.496 C7.21015625,18.496 6.57415625,18.332 6.31015625,18.004 C6.04615625,17.676 5.91415625,16.904 5.91415625,15.688 L5.91415625,15.688 L5.91415625,11.896 C5.91415625,10.68 6.04615625,9.908 6.31015625,9.58 C6.57415625,9.252 7.21015625,9.088 8.21815625,9.088 L8.21815625,9.088 L8.21815625,8.608 L1.90615625,8.608 L1.90615625,9.088 C2.89815625,9.088 3.53015625,9.256 3.80215625,9.592 C4.07415625,9.928 4.21015625,10.696 4.21015625,11.896 L4.21015625,11.896 L4.21015625,15.688 C4.21015625,16.888 4.07415625,17.656 3.80215625,17.992 C3.53015625,18.328 2.89815625,18.496 1.90615625,18.496 L1.90615625,18.496 L1.90615625,19 L8.21815625,19 Z M15.3701562,19 L15.3701562,18.496 C14.5701562,18.496 14.0541562,18.328 13.8221562,17.992 C13.5901562,17.656 13.4741563,16.888 13.4741563,15.688 L13.4741563,15.688 L13.4741563,15.256 L13.6901562,15.088 L17.6261563,19 L20.2901562,19 L20.2901562,18.496 C19.7301562,18.496 19.2581562,18.304 18.8741562,17.92 L18.8741562,17.92 L15.0101562,14.032 L17.0501563,12.352 C17.6741562,11.856 18.5141562,11.568 19.5701563,11.488 L19.5701563,11.488 L19.5701563,11.008 L14.7701562,11.008 L14.7701562,11.488 C15.3621562,11.488 15.7301562,11.62 15.8741562,11.884 C16.0181562,12.148 15.8901562,12.44 15.4901562,12.76 L15.4901562,12.76 L13.4741563,14.392 L13.4741563,4.192 L9.87415625,4.792 L9.87415625,5.296 C10.6741562,5.296 11.1901562,5.464 11.4221562,5.8 C11.6541562,6.136 11.7701562,6.904 11.7701562,8.104 L11.7701562,8.104 L11.7701562,15.688 C11.7701562,16.888 11.6541562,17.656 11.4221562,17.992 C11.1901562,18.328 10.6741562,18.496 9.87415625,18.496 L9.87415625,18.496 L9.87415625,19 L15.3701562,19 Z M28.0055,19 L28.0055,17.1953125 C26.677375,16.296875 25.6812812,15.2011719 25.0172187,13.9082031 C24.3531562,12.6152344 24.021125,11.1210938 24.021125,9.42578125 C24.021125,7.42578125 24.5094062,5.859375 25.4859687,4.7265625 C26.4625312,3.59375 27.8062812,3.02734375 29.5172187,3.02734375 C31.2359687,3.02734375 32.5816719,3.59375 33.5543281,4.7265625 C34.5269844,5.859375 35.0133125,7.421875 35.0133125,9.4140625 C35.0133125,11.1171875 34.6812812,12.6171875 34.0172187,13.9140625 C33.3531562,15.2109375 32.3609687,16.3046875 31.0406562,17.1953125 L31.0406562,17.1953125 L31.0406562,19 L38.1890937,19 L38.1890937,17.1953125 L33.4195625,17.1953125 C34.818,16.1484375 35.8668281,14.9628906 36.5660469,13.6386719 C37.2652656,12.3144531 37.614875,10.8515625 37.614875,9.25 C37.614875,6.8984375 36.8570625,4.97265625 35.3414375,3.47265625 C33.8258125,1.97265625 31.8844062,1.22265625 29.5172187,1.22265625 C27.1500312,1.22265625 25.208625,1.97460938 23.693,3.47851562 C22.177375,4.98242188 21.4195625,6.90625 21.4195625,9.25 C21.4195625,10.84375 21.7691719,12.3027344 22.4683906,13.6269531 C23.1676094,14.9511719 24.2164375,16.140625 25.614875,17.1953125 L25.614875,17.1953125 L20.8453437,17.1953125 L20.8453437,19 L28.0055,19 Z M53.66,14.608 L53.66,13.552 L46.652,13.552 L46.652,14.608 L53.66,14.608 Z M67.22,23.488 C68.564,23.488 69.696,23.096 70.616,22.312 C71.536,21.528 71.996,20.584 71.996,19.48 C71.996,18.552 71.66,17.736 70.988,17.032 C70.316,16.328 69.404,15.856 68.252,15.616 L68.252,15.616 L69.356,14.776 L69.596,14.632 C69.74,14.52 69.92,14.356 70.136,14.14 C70.352,13.924 70.568,13.688 70.784,13.432 C71,13.176 71.184,12.864 71.336,12.496 C71.488,12.128 71.564,11.768 71.564,11.416 C71.564,10.456 71.108,9.68 70.196,9.088 C69.284,8.496 68.212,8.2 66.98,8.2 C65.652,8.2 64.588,8.524 63.788,9.172 C62.988,9.82 62.624,10.572 62.696,11.428 C62.768,12.284 63.268,12.992 64.196,13.552 L64.196,13.552 L64.916,12.808 C64.34,11.816 64.332,10.968 64.892,10.264 C65.452,9.56 66.148,9.208 66.98,9.208 C67.764,9.208 68.396,9.408 68.876,9.808 C69.356,10.208 69.596,10.744 69.596,11.416 C69.596,12.008 69.448,12.58 69.152,13.132 C68.856,13.684 68.476,14.136 68.012,14.488 L68.012,14.488 L66.236,15.904 C65.82,16.208 65.612,16.504 65.612,16.792 C65.612,16.952 65.664,17.084 65.768,17.188 C65.872,17.292 65.988,17.344 66.116,17.344 C66.26,17.344 66.404,17.284 66.548,17.164 C66.692,17.044 66.848,16.884 67.016,16.684 C67.184,16.484 67.324,16.336 67.436,16.24 C68.268,16.416 68.88,16.808 69.272,17.416 C69.664,18.024 69.86,18.712 69.86,19.48 C69.86,20.408 69.624,21.156 69.152,21.724 C68.68,22.292 67.972,22.576 67.028,22.576 C66.052,22.576 65.268,22.264 64.676,21.64 C64.532,21.496 64.384,21.296 64.232,21.04 C64.08,20.784 63.944,20.584 63.824,20.44 C63.704,20.296 63.564,20.224 63.404,20.224 C62.988,20.224 62.78,20.408 62.78,20.776 C62.78,21.336 63.196,21.928 64.028,22.552 C64.86,23.176 65.924,23.488 67.22,23.488 Z M80.54,19.408 C82.076,19.408 83.392,18.86 84.488,17.764 C85.584,16.668 86.132,15.344 86.132,13.792 C86.132,12.256 85.584,10.94 84.488,9.844 C83.392,8.748 82.076,8.2 80.54,8.2 C79.004,8.2 77.684,8.752 76.58,9.856 C75.492,10.944 74.948,12.256 74.948,13.792 C74.948,15.344 75.496,16.668 76.592,17.764 C77.688,18.86 79.004,19.408 80.54,19.408 Z M80.54,18.016 C79.42,18.016 78.464,17.604 77.672,16.78 C76.88,15.956 76.484,14.96 76.484,13.792 C76.484,12.64 76.88,11.648 77.672,10.816 C78.464,9.984 79.42,9.568 80.54,9.568 C81.644,9.568 82.596,9.984 83.396,10.816 C84.196,11.648 84.596,12.64 84.596,13.792 C84.596,14.96 84.196,15.956 83.396,16.78 C82.596,17.604 81.644,18.016 80.54,18.016 Z M93.596,19 L93.596,18.496 C92.796,18.496 92.28,18.328 92.048,17.992 C91.816,17.656 91.7,16.888 91.7,15.688 L91.7,15.688 L91.7,15.256 L91.916,15.088 L95.852,19 L98.516,19 L98.516,18.496 C97.956,18.496 97.484,18.304 97.1,17.92 L97.1,17.92 L93.236,14.032 L95.276,12.352 C95.9,11.856 96.74,11.568 97.796,11.488 L97.796,11.488 L97.796,11.008 L92.996,11.008 L92.996,11.488 C93.588,11.488 93.956,11.62 94.1,11.884 C94.244,12.148 94.116,12.44 93.716,12.76 L93.716,12.76 L91.7,14.392 L91.7,4.192 L88.1,4.792 L88.1,5.296 C88.9,5.296 89.416,5.464 89.648,5.8 C89.88,6.136 89.996,6.904 89.996,8.104 L89.996,8.104 L89.996,15.688 C89.996,16.888 89.88,17.656 89.648,17.992 C89.416,18.328 88.9,18.496 88.1,18.496 L88.1,18.496 L88.1,19 L93.596,19 Z M106.231344,19 L106.231344,17.1953125 C104.903219,16.296875 103.907125,15.2011719 103.243063,13.9082031 C102.579,12.6152344 102.246969,11.1210938 102.246969,9.42578125 C102.246969,7.42578125 102.73525,5.859375 103.711813,4.7265625 C104.688375,3.59375 106.032125,3.02734375 107.743063,3.02734375 C109.461813,3.02734375 110.807516,3.59375 111.780172,4.7265625 C112.752828,5.859375 113.239156,7.421875 113.239156,9.4140625 C113.239156,11.1171875 112.907125,12.6171875 112.243063,13.9140625 C111.579,15.2109375 110.586813,16.3046875 109.2665,17.1953125 L109.2665,17.1953125 L109.2665,19 L116.414938,19 L116.414938,17.1953125 L111.645406,17.1953125 C113.043844,16.1484375 114.092672,14.9628906 114.791891,13.6386719 C115.491109,12.3144531 115.840719,10.8515625 115.840719,9.25 C115.840719,6.8984375 115.082906,4.97265625 113.567281,3.47265625 C112.051656,1.97265625 110.11025,1.22265625 107.743063,1.22265625 C105.375875,1.22265625 103.434469,1.97460938 101.918844,3.47851562 C100.403219,4.98242188 99.6454063,6.90625 99.6454063,9.25 C99.6454063,10.84375 99.9950156,12.3027344 100.694234,13.6269531 C101.393453,14.9511719 102.442281,16.140625 103.840719,17.1953125 L103.840719,17.1953125 L99.0711875,17.1953125 L99.0711875,19 L106.231344,19 Z" id="1kΩ-30kΩ"></path>
            </g>
            <g id="Vin" transform="translate(0.000000, 81.000000)" fill="#524740" fill-rule="nonzero">
                <path d="M5.976,21.488 C7.32,21.488 8.452,21.096 9.372,20.312 C10.292,19.528 10.752,18.584 10.752,17.48 C10.752,16.552 10.416,15.736 9.744,15.032 C9.072,14.328 8.16,13.856 7.008,13.616 L7.008,13.616 L8.112,12.776 L8.352,12.632 C8.496,12.52 8.676,12.356 8.892,12.14 C9.108,11.924 9.324,11.688 9.54,11.432 C9.756,11.176 9.94,10.864 10.092,10.496 C10.244,10.128 10.32,9.768 10.32,9.416 C10.32,8.456 9.864,7.68 8.952,7.088 C8.04,6.496 6.968,6.2 5.736,6.2 C4.408,6.2 3.344,6.524 2.544,7.172 C1.744,7.82 1.38,8.572 1.452,9.428 C1.524,10.284 2.024,10.992 2.952,11.552 L2.952,11.552 L3.672,10.808 C3.096,9.816 3.088,8.968 3.648,8.264 C4.208,7.56 4.904,7.208 5.736,7.208 C6.52,7.208 7.152,7.408 7.632,7.808 C8.112,8.208 8.352,8.744 8.352,9.416 C8.352,10.008 8.204,10.58 7.908,11.132 C7.612,11.684 7.232,12.136 6.768,12.488 L6.768,12.488 L4.992,13.904 C4.576,14.208 4.368,14.504 4.368,14.792 C4.368,14.952 4.42,15.084 4.524,15.188 C4.628,15.292 4.744,15.344 4.872,15.344 C5.016,15.344 5.16,15.284 5.304,15.164 C5.448,15.044 5.604,14.884 5.772,14.684 C5.94,14.484 6.08,14.336 6.192,14.24 C7.024,14.416 7.636,14.808 8.028,15.416 C8.42,16.024 8.616,16.712 8.616,17.48 C8.616,18.408 8.38,19.156 7.908,19.724 C7.436,20.292 6.728,20.576 5.784,20.576 C4.808,20.576 4.024,20.264 3.432,19.64 C3.288,19.496 3.14,19.296 2.988,19.04 C2.836,18.784 2.7,18.584 2.58,18.44 C2.46,18.296 2.32,18.224 2.16,18.224 C1.744,18.224 1.536,18.408 1.536,18.776 C1.536,19.336 1.952,19.928 2.784,20.552 C3.616,21.176 4.68,21.488 5.976,21.488 Z M19.752,17.408 L25.032,5.192 C25.432,4.264 25.772,3.684 26.052,3.452 C26.332,3.22 26.944,3.104 27.888,3.104 L27.888,3.104 L27.888,2.6 L22.296,2.6 L22.296,3.104 C23.288,3.104 23.924,3.244 24.204,3.524 C24.484,3.804 24.472,4.272 24.168,4.928 L24.168,4.928 L20.136,14.264 L16.056,4.928 C15.752,4.272 15.74,3.804 16.02,3.524 C16.3,3.244 16.936,3.104 17.928,3.104 L17.928,3.104 L17.928,2.6 L11.28,2.6 L11.28,3.104 C12.224,3.104 12.836,3.22 13.116,3.452 C13.396,3.684 13.736,4.264 14.136,5.192 L14.136,5.192 L19.44,17.408 L19.752,17.408 Z" id="3V"></path>
            </g>
            <g id="Vout" transform="translate(113.000000, 147.000000)" fill="#524740" fill-rule="nonzero">
                <path d="M8.008,17.408 C9.544,17.408 10.86,16.86 11.956,15.764 C13.052,14.668 13.6,13.344 13.6,11.792 C13.6,10.256 13.052,8.94 11.956,7.844 C10.86,6.748 9.544,6.2 8.008,6.2 C6.472,6.2 5.152,6.752 4.048,7.856 C2.96,8.944 2.416,10.256 2.416,11.792 C2.416,13.344 2.964,14.668 4.06,15.764 C5.156,16.86 6.472,17.408 8.008,17.408 Z M8.008,16.016 C6.888,16.016 5.932,15.604 5.14,14.78 C4.348,13.956 3.952,12.96 3.952,11.792 C3.952,10.64 4.348,9.648 5.14,8.816 C5.932,7.984 6.888,7.568 8.008,7.568 C9.112,7.568 10.064,7.984 10.864,8.816 C11.664,9.648 12.064,10.64 12.064,11.792 C12.064,12.96 11.664,13.956 10.864,14.78 C10.064,15.604 9.112,16.016 8.008,16.016 Z M18.808,17.192 C19.176,17.192 19.496,17.068 19.768,16.82 C20.04,16.572 20.176,16.28 20.176,15.944 C20.176,15.592 20.04,15.292 19.768,15.044 C19.496,14.796 19.176,14.672 18.808,14.672 C18.44,14.672 18.128,14.796 17.872,15.044 C17.616,15.292 17.488,15.592 17.488,15.944 C17.488,16.28 17.616,16.572 17.872,16.82 C18.128,17.068 18.44,17.192 18.808,17.192 Z M28.096,21.488 C29.424,21.488 30.564,20.996 31.516,20.012 C32.468,19.028 32.944,17.848 32.944,16.472 C32.944,15.064 32.508,13.88 31.636,12.92 C30.764,11.96 29.656,11.48 28.312,11.48 C27.8,11.48 27.288,11.576 26.776,11.768 C26.264,11.96 25.88,12.216 25.624,12.536 L25.624,12.536 L25.984,8.288 L32.056,8.288 L32.656,4.784 L32.104,4.784 C31.928,5.504 31.68,5.988 31.36,6.236 C31.04,6.484 30.36,6.608 29.32,6.608 L29.32,6.608 L25.264,6.608 L24.52,14.84 L25.408,14.84 C25.648,13.272 26.544,12.488 28.096,12.488 C29.056,12.488 29.772,12.848 30.244,13.568 C30.716,14.288 30.952,15.256 30.952,16.472 C30.952,17.688 30.712,18.676 30.232,19.436 C29.752,20.196 29.04,20.576 28.096,20.576 C27.504,20.576 27.012,20.452 26.62,20.204 C26.228,19.956 25.968,19.688 25.84,19.4 C25.712,19.112 25.568,18.844 25.408,18.596 C25.248,18.348 25.064,18.224 24.856,18.224 C24.408,18.224 24.184,18.44 24.184,18.872 C24.184,19.432 24.548,20.008 25.276,20.6 C26.004,21.192 26.944,21.488 28.096,21.488 Z M40.432,21.488 C41.776,21.488 42.908,21.096 43.828,20.312 C44.748,19.528 45.208,18.584 45.208,17.48 C45.208,16.552 44.872,15.736 44.2,15.032 C43.528,14.328 42.616,13.856 41.464,13.616 L41.464,13.616 L42.568,12.776 L42.808,12.632 C42.952,12.52 43.132,12.356 43.348,12.14 C43.564,11.924 43.78,11.688 43.996,11.432 C44.212,11.176 44.396,10.864 44.548,10.496 C44.7,10.128 44.776,9.768 44.776,9.416 C44.776,8.456 44.32,7.68 43.408,7.088 C42.496,6.496 41.424,6.2 40.192,6.2 C38.864,6.2 37.8,6.524 37,7.172 C36.2,7.82 35.836,8.572 35.908,9.428 C35.98,10.284 36.48,10.992 37.408,11.552 L37.408,11.552 L38.128,10.808 C37.552,9.816 37.544,8.968 38.104,8.264 C38.664,7.56 39.36,7.208 40.192,7.208 C40.976,7.208 41.608,7.408 42.088,7.808 C42.568,8.208 42.808,8.744 42.808,9.416 C42.808,10.008 42.66,10.58 42.364,11.132 C42.068,11.684 41.688,12.136 41.224,12.488 L41.224,12.488 L39.448,13.904 C39.032,14.208 38.824,14.504 38.824,14.792 C38.824,14.952 38.876,15.084 38.98,15.188 C39.084,15.292 39.2,15.344 39.328,15.344 C39.472,15.344 39.616,15.284 39.76,15.164 C39.904,15.044 40.06,14.884 40.228,14.684 C40.396,14.484 40.536,14.336 40.648,14.24 C41.48,14.416 42.092,14.808 42.484,15.416 C42.876,16.024 43.072,16.712 43.072,17.48 C43.072,18.408 42.836,19.156 42.364,19.724 C41.892,20.292 41.184,20.576 40.24,20.576 C39.264,20.576 38.48,20.264 37.888,19.64 C37.744,19.496 37.596,19.296 37.444,19.04 C37.292,18.784 37.156,18.584 37.036,18.44 C36.916,18.296 36.776,18.224 36.616,18.224 C36.2,18.224 35.992,18.408 35.992,18.776 C35.992,19.336 36.408,19.928 37.24,20.552 C38.072,21.176 39.136,21.488 40.432,21.488 Z M54.208,17.408 L59.488,5.192 C59.888,4.264 60.228,3.684 60.508,3.452 C60.788,3.22 61.4,3.104 62.344,3.104 L62.344,3.104 L62.344,2.6 L56.752,2.6 L56.752,3.104 C57.744,3.104 58.38,3.244 58.66,3.524 C58.94,3.804 58.928,4.272 58.624,4.928 L58.624,4.928 L54.592,14.264 L50.512,4.928 C50.208,4.272 50.196,3.804 50.476,3.524 C50.756,3.244 51.392,3.104 52.384,3.104 L52.384,3.104 L52.384,2.6 L45.736,2.6 L45.736,3.104 C46.68,3.104 47.292,3.22 47.572,3.452 C47.852,3.684 48.192,4.264 48.592,5.192 L48.592,5.192 L53.896,17.408 L54.208,17.408 Z M81.64,12.608 L81.64,11.552 L74.632,11.552 L74.632,12.608 L81.64,12.608 Z M104.848,18.896 L105.448,15.608 L99.232,15.608 L102.928,12.776 L103.168,12.632 C103.312,12.52 103.492,12.356 103.708,12.14 C103.924,11.924 104.14,11.688 104.356,11.432 C104.572,11.176 104.756,10.864 104.908,10.496 C105.06,10.128 105.136,9.768 105.136,9.416 C105.136,8.456 104.68,7.68 103.768,7.088 C102.856,6.496 101.784,6.2 100.552,6.2 C99.224,6.2 98.16,6.524 97.36,7.172 C96.56,7.82 96.196,8.572 96.268,9.428 C96.34,10.284 96.84,10.992 97.768,11.552 L97.768,11.552 L98.488,10.808 C97.96,9.816 97.944,8.968 98.44,8.264 C98.936,7.56 99.64,7.208 100.552,7.208 C101.336,7.208 101.964,7.408 102.436,7.808 C102.908,8.208 103.144,8.752 103.144,9.44 C103.144,10.656 102.376,11.872 100.84,13.088 L100.84,13.088 L96.592,16.424 L96.592,17 L101.536,17 C102.736,17 103.504,17.116 103.84,17.348 C104.176,17.58 104.344,18.096 104.344,18.896 L104.344,18.896 L104.848,18.896 Z M110.992,17.192 C111.36,17.192 111.68,17.068 111.952,16.82 C112.224,16.572 112.36,16.28 112.36,15.944 C112.36,15.592 112.224,15.292 111.952,15.044 C111.68,14.796 111.36,14.672 110.992,14.672 C110.624,14.672 110.312,14.796 110.056,15.044 C109.8,15.292 109.672,15.592 109.672,15.944 C109.672,16.28 109.8,16.572 110.056,16.82 C110.312,17.068 110.624,17.192 110.992,17.192 Z M124.84,18.896 L125.44,15.608 L119.224,15.608 L122.92,12.776 L123.16,12.632 C123.304,12.52 123.484,12.356 123.7,12.14 C123.916,11.924 124.132,11.688 124.348,11.432 C124.564,11.176 124.748,10.864 124.9,10.496 C125.052,10.128 125.128,9.768 125.128,9.416 C125.128,8.456 124.672,7.68 123.76,7.088 C122.848,6.496 121.776,6.2 120.544,6.2 C119.216,6.2 118.152,6.524 117.352,7.172 C116.552,7.82 116.188,8.572 116.26,9.428 C116.332,10.284 116.832,10.992 117.76,11.552 L117.76,11.552 L118.48,10.808 C117.952,9.816 117.936,8.968 118.432,8.264 C118.928,7.56 119.632,7.208 120.544,7.208 C121.328,7.208 121.956,7.408 122.428,7.808 C122.9,8.208 123.136,8.752 123.136,9.44 C123.136,10.656 122.368,11.872 120.832,13.088 L120.832,13.088 L116.584,16.424 L116.584,17 L121.528,17 C122.728,17 123.496,17.116 123.832,17.348 C124.168,17.58 124.336,18.096 124.336,18.896 L124.336,18.896 L124.84,18.896 Z M134.848,17.408 L140.128,5.192 C140.528,4.264 140.868,3.684 141.148,3.452 C141.428,3.22 142.04,3.104 142.984,3.104 L142.984,3.104 L142.984,2.6 L137.392,2.6 L137.392,3.104 C138.384,3.104 139.02,3.244 139.3,3.524 C139.58,3.804 139.568,4.272 139.264,4.928 L139.264,4.928 L135.232,14.264 L131.152,4.928 C130.848,4.272 130.836,3.804 131.116,3.524 C131.396,3.244 132.032,3.104 133.024,3.104 L133.024,3.104 L133.024,2.6 L126.376,2.6 L126.376,3.104 C127.32,3.104 127.932,3.22 128.212,3.452 C128.492,3.684 128.832,4.264 129.232,5.192 L129.232,5.192 L134.536,17.408 L134.848,17.408 Z" id="0.53V-2.2V"></path>
            </g>
            <g id="Ground" transform="translate(344.500000, 92.500000) rotate(-180.000000) translate(-344.500000, -92.500000) translate(325.500000, 76.000000)" stroke="#524740" stroke-width="2">
                <line x1="12.5" y1="17" x2="37.5" y2="17" id="Path-2-Copy"></line>
                <line x1="7" y1="6.5" x2="7" y2="26.5" id="Path-4"></line>
                <line x1="1" y1="13.5" x2="1" y2="19.5" id="Path-4-Copy"></line>
                <line x1="13" y1="0" x2="13" y2="33" id="Path-3-Copy"></line>
            </g>
            <circle id="Oval-2-Copy-12" fill="#524740" cx="190" cy="92" r="5"></circle>
            <line x1="190" y1="92" x2="190" y2="144" id="Path-19" stroke="#524740" stroke-width="2"></line>
            <line x1="35" y1="92" x2="75" y2="92" id="Path-16" stroke="#524740" stroke-width="2"></line>
            <line x1="195" y1="92" x2="235" y2="92" id="Path-16-Copy" stroke="#524740" stroke-width="2"></line>
            <line x1="305" y1="92" x2="345" y2="92" id="Path-16-Copy-3" stroke="#524740" stroke-width="2"></line>
            <line x1="145" y1="92" x2="185" y2="92" id="Path-16-Copy-2" stroke="#524740" stroke-width="2"></line>
        </g>
    </g>
</svg>