<?xml version="1.0" encoding="UTF-8"?>
<svg width="900px" height="260px" viewBox="0 0 900 260" version="1.1" xmlns="http://www.w3.org/2000/svg" xmlns:xlink="http://www.w3.org/1999/xlink">
    <!-- Generator: Sketch 60.1 (88133) - https://sketch.com -->
    <title>Resistive_Sensor_Circuit</title>
    <desc>Created with Sketch.</desc>
    <g id="Resistive_Sensor_Circuit" stroke="none" stroke-width="1" fill="none" fill-rule="evenodd">
        <g id="Illustration_Frame">
            <rect id="Rectangle" stroke="#3D3530" stroke-width="2" fill="#EEEEEE" x="1" y="1" width="898" height="258"></rect>
            <rect id="Rectangle-Copy" stroke="#3D3530" stroke-width="2" fill="#F8FAE4" x="1" y="216" width="898" height="43"></rect>
            <path d="M611.327999,245 L611.327999,238.904 L615.071999,238.904 L616.055999,238.856 L619.487999,245 L621.143999,245 L617.543999,238.52 C618.679999,238.168 619.563999,237.576 620.195999,236.744 C620.827999,235.912 621.143999,234.96 621.143999,233.888 C621.143999,232.448 620.607999,231.252 619.535999,230.3 C618.463999,229.348 617.023999,228.872 615.215999,228.872 L615.215999,228.872 L609.743999,228.872 L609.743999,245 L611.327999,245 Z M615.215999,237.392 L611.327999,237.392 L611.327999,230.384 L615.215999,230.384 C616.511999,230.384 617.551999,230.72 618.335999,231.392 C619.119999,232.064 619.511999,232.896 619.511999,233.888 C619.511999,234.896 619.119999,235.732 618.335999,236.396 C617.551999,237.06 616.511999,237.392 615.215999,237.392 L615.215999,237.392 Z M629.586666,245.072 C631.058666,245.088 632.326666,244.672 633.390666,243.824 C634.454666,242.976 635.170666,242.048 635.538666,241.04 L635.538666,241.04 L634.194666,240.56 C633.890666,241.376 633.314666,242.088 632.466666,242.696 C631.618666,243.304 630.658666,243.608 629.586666,243.608 C628.594666,243.624 627.690666,243.324 626.874666,242.708 C626.058666,242.092 625.514666,241.304 625.242666,240.344 L625.242666,240.344 L635.730666,238.448 C635.730666,238.32 635.722666,238.216 635.706666,238.136 C635.530666,236.6 634.858666,235.312 633.690666,234.272 C632.522666,233.232 631.154666,232.704 629.586666,232.688 C627.858666,232.704 626.394666,233.312 625.194666,234.512 C623.994666,235.712 623.394666,237.176 623.394666,238.904 C623.394666,239.528 623.474666,240.104 623.634666,240.632 C624.034666,241.928 624.790666,242.992 625.902666,243.824 C627.014666,244.656 628.242666,245.072 629.586666,245.072 Z M625.002666,239.048 C625.002666,238.968 624.998666,238.868 624.990666,238.748 C624.982666,238.628 624.978666,238.544 624.978666,238.496 C625.042666,237.312 625.502666,236.296 626.358666,235.448 C627.214666,234.6 628.242666,234.168 629.442666,234.152 C630.466666,234.136 631.394666,234.436 632.226666,235.052 C633.058666,235.668 633.626666,236.464 633.930666,237.44 L633.930666,237.44 L625.002666,239.048 Z M642.853333,245.192 C644.325333,245.192 645.429333,244.88 646.165333,244.256 C646.901333,243.632 647.269333,242.816 647.269333,241.808 C647.269333,241.088 647.005333,240.476 646.477333,239.972 C645.949333,239.468 645.305333,239.084 644.545333,238.82 C643.785333,238.556 643.029333,238.312 642.277333,238.088 C641.525333,237.864 640.885333,237.596 640.357333,237.284 C639.829333,236.972 639.565333,236.6 639.565333,236.168 C639.565333,235.56 639.833333,235.088 640.369333,234.752 C640.905333,234.416 641.605333,234.248 642.469333,234.248 C643.077333,234.248 643.685333,234.384 644.293333,234.656 C644.901333,234.928 645.305333,235.144 645.505333,235.304 C645.705333,235.464 645.861333,235.6 645.973333,235.712 L645.973333,235.712 L647.101333,234.728 L646.597333,234.248 C646.261333,233.928 645.709333,233.608 644.941333,233.288 C644.173333,232.968 643.357333,232.808 642.493333,232.808 C641.037333,232.808 639.937333,233.124 639.193333,233.756 C638.449333,234.388 638.077333,235.2 638.077333,236.192 C638.077333,236.912 638.341333,237.52 638.869333,238.016 C639.397333,238.512 640.041333,238.896 640.801333,239.168 C641.561333,239.44 642.317333,239.688 643.069333,239.912 C643.821333,240.136 644.461333,240.404 644.989333,240.716 C645.517333,241.028 645.781333,241.4 645.781333,241.832 C645.781333,242.44 645.517333,242.912 644.989333,243.248 C644.461333,243.584 643.757333,243.752 642.877333,243.752 C642.285333,243.752 641.685333,243.616 641.077333,243.344 C640.469333,243.072 640.065333,242.856 639.865333,242.696 C639.665333,242.536 639.509333,242.4 639.397333,242.288 L639.397333,242.288 L638.269333,243.248 L638.461333,243.464 C638.589333,243.592 638.789333,243.752 639.061333,243.944 C639.333333,244.136 639.641333,244.324 639.985333,244.508 C640.329333,244.692 640.757333,244.852 641.269333,244.988 C641.781333,245.124 642.309333,245.192 642.853333,245.192 Z M651.631999,229.688 C651.903999,229.688 652.127999,229.592 652.303999,229.4 C652.495999,229.208 652.591999,228.984 652.591999,228.728 C652.591999,228.472 652.499999,228.248 652.315999,228.056 C652.131999,227.864 651.903999,227.768 651.631999,227.768 C651.359999,227.768 651.131999,227.864 650.947999,228.056 C650.763999,228.248 650.671999,228.472 650.671999,228.728 C650.671999,228.984 650.763999,229.208 650.947999,229.4 C651.131999,229.592 651.359999,229.688 651.631999,229.688 Z M652.423999,245 L652.423999,233 L650.839999,233 L650.839999,245 L652.423999,245 Z M660.698666,245.192 C662.170666,245.192 663.274666,244.88 664.010666,244.256 C664.746666,243.632 665.114666,242.816 665.114666,241.808 C665.114666,241.088 664.850666,240.476 664.322666,239.972 C663.794666,239.468 663.150666,239.084 662.390666,238.82 C661.630666,238.556 660.874666,238.312 660.122666,238.088 C659.370666,237.864 658.730666,237.596 658.202666,237.284 C657.674666,236.972 657.410666,236.6 657.410666,236.168 C657.410666,235.56 657.678666,235.088 658.214666,234.752 C658.750666,234.416 659.450666,234.248 660.314666,234.248 C660.922666,234.248 661.530666,234.384 662.138666,234.656 C662.746666,234.928 663.150666,235.144 663.350666,235.304 C663.550666,235.464 663.706666,235.6 663.818666,235.712 L663.818666,235.712 L664.946666,234.728 L664.442666,234.248 C664.106666,233.928 663.554666,233.608 662.786666,233.288 C662.018666,232.968 661.202666,232.808 660.338666,232.808 C658.882666,232.808 657.782666,233.124 657.038666,233.756 C656.294666,234.388 655.922666,235.2 655.922666,236.192 C655.922666,236.912 656.186666,237.52 656.714666,238.016 C657.242666,238.512 657.886666,238.896 658.646666,239.168 C659.406666,239.44 660.162666,239.688 660.914666,239.912 C661.666666,240.136 662.306666,240.404 662.834666,240.716 C663.362666,241.028 663.626666,241.4 663.626666,241.832 C663.626666,242.44 663.362666,242.912 662.834666,243.248 C662.306666,243.584 661.602666,243.752 660.722666,243.752 C660.130666,243.752 659.530666,243.616 658.922666,243.344 C658.314666,243.072 657.910666,242.856 657.710666,242.696 C657.510666,242.536 657.354666,242.4 657.242666,242.288 L657.242666,242.288 L656.114666,243.248 L656.306666,243.464 C656.434666,243.592 656.634666,243.752 656.906666,243.944 C657.178666,244.136 657.486666,244.324 657.830666,244.508 C658.174666,244.692 658.602666,244.852 659.114666,244.988 C659.626666,245.124 660.154666,245.192 660.698666,245.192 Z M672.381333,245.192 C672.973333,245.192 673.549333,245.036 674.109333,244.724 C674.669333,244.412 675.029333,244.168 675.189333,243.992 C675.349333,243.816 675.477333,243.664 675.573333,243.536 L675.573333,243.536 L674.781333,242.312 C674.781333,242.376 674.697333,242.516 674.529333,242.732 C674.361333,242.948 674.101333,243.168 673.749333,243.392 C673.397333,243.616 673.037333,243.728 672.669333,243.728 C672.077333,243.728 671.553333,243.512 671.097333,243.08 C670.641333,242.648 670.413333,242.064 670.413333,241.328 L670.413333,241.328 L670.413333,234.44 L674.037333,234.44 L674.037333,232.976 L670.413333,232.976 L670.413333,228.992 L668.829333,229.184 L668.829333,232.976 L666.909333,232.976 L666.909333,234.44 L668.829333,234.44 L668.829333,241.688 C668.829333,242.824 669.169333,243.692 669.849333,244.292 C670.529333,244.892 671.373333,245.192 672.381333,245.192 Z M679.335999,229.688 C679.607999,229.688 679.831999,229.592 680.007999,229.4 C680.199999,229.208 680.295999,228.984 680.295999,228.728 C680.295999,228.472 680.203999,228.248 680.019999,228.056 C679.835999,227.864 679.607999,227.768 679.335999,227.768 C679.063999,227.768 678.835999,227.864 678.651999,228.056 C678.467999,228.248 678.375999,228.472 678.375999,228.728 C678.375999,228.984 678.467999,229.208 678.651999,229.4 C678.835999,229.592 679.063999,229.688 679.335999,229.688 Z M680.127999,245 L680.127999,233 L678.543999,233 L678.543999,245 L680.127999,245 Z M689.218666,245 L693.466666,233 L691.882666,233 L688.426666,242.768 L684.994666,233 L683.410666,233 L687.634666,245 L689.218666,245 Z M701.141333,245.072 C702.613333,245.088 703.881333,244.672 704.945333,243.824 C706.009333,242.976 706.725333,242.048 707.093333,241.04 L707.093333,241.04 L705.749333,240.56 C705.445333,241.376 704.869333,242.088 704.021333,242.696 C703.173333,243.304 702.213333,243.608 701.141333,243.608 C700.149333,243.624 699.245333,243.324 698.429333,242.708 C697.613333,242.092 697.069333,241.304 696.797333,240.344 L696.797333,240.344 L707.285333,238.448 C707.285333,238.32 707.277333,238.216 707.261333,238.136 C707.085333,236.6 706.413333,235.312 705.245333,234.272 C704.077333,233.232 702.709333,232.704 701.141333,232.688 C699.413333,232.704 697.949333,233.312 696.749333,234.512 C695.549333,235.712 694.949333,237.176 694.949333,238.904 C694.949333,239.528 695.029333,240.104 695.189333,240.632 C695.589333,241.928 696.345333,242.992 697.457333,243.824 C698.569333,244.656 699.797333,245.072 701.141333,245.072 Z M696.557333,239.048 C696.557333,238.968 696.553333,238.868 696.545333,238.748 C696.537333,238.628 696.533333,238.544 696.533333,238.496 C696.597333,237.312 697.057333,236.296 697.913333,235.448 C698.769333,234.6 699.797333,234.168 700.997333,234.152 C702.021333,234.136 702.949333,234.436 703.781333,235.052 C704.613333,235.668 705.181333,236.464 705.485333,237.44 L705.485333,237.44 L696.557333,239.048 Z M722.850666,245.192 C724.434666,245.192 725.666666,244.792 726.546666,243.992 C727.426666,243.192 727.866666,242.208 727.866666,241.04 C727.866666,240.128 727.566666,239.336 726.966666,238.664 C726.366666,237.992 725.634666,237.464 724.770666,237.08 C723.906666,236.696 723.046666,236.328 722.190666,235.976 C721.334666,235.624 720.606666,235.188 720.006666,234.668 C719.406666,234.148 719.106666,233.544 719.106666,232.856 C719.106666,232.04 719.414666,231.396 720.030666,230.924 C720.646666,230.452 721.490666,230.216 722.562666,230.216 C723.426666,230.216 724.250666,230.44 725.034666,230.888 C725.818666,231.336 726.418666,231.784 726.834666,232.232 L726.834666,232.232 L727.938666,231.152 C727.426666,230.608 726.670666,230.064 725.670666,229.52 C724.670666,228.976 723.634666,228.704 722.562666,228.704 C720.978666,228.704 719.746666,229.104 718.866666,229.904 C717.986666,230.704 717.546666,231.688 717.546666,232.856 C717.546666,233.768 717.846666,234.56 718.446666,235.232 C719.046666,235.904 719.778666,236.436 720.642666,236.828 C721.506666,237.22 722.366666,237.592 723.222666,237.944 C724.078666,238.296 724.806666,238.728 725.406666,239.24 C726.006666,239.752 726.306666,240.352 726.306666,241.04 C726.306666,241.856 725.998666,242.5 725.382666,242.972 C724.766666,243.444 723.922666,243.68 722.850666,243.68 C721.970666,243.68 721.138666,243.452 720.354666,242.996 C719.570666,242.54 718.978666,242.096 718.578666,241.664 L718.578666,241.664 L717.474666,242.744 C717.986666,243.288 718.742666,243.832 719.742666,244.376 C720.742666,244.92 721.778666,245.192 722.850666,245.192 Z M736.453333,245.072 C737.925333,245.088 739.193333,244.672 740.257333,243.824 C741.321333,242.976 742.037333,242.048 742.405333,241.04 L742.405333,241.04 L741.061333,240.56 C740.757333,241.376 740.181333,242.088 739.333333,242.696 C738.485333,243.304 737.525333,243.608 736.453333,243.608 C735.461333,243.624 734.557333,243.324 733.741333,242.708 C732.925333,242.092 732.381333,241.304 732.109333,240.344 L732.109333,240.344 L742.597333,238.448 C742.597333,238.32 742.589333,238.216 742.573333,238.136 C742.397333,236.6 741.725333,235.312 740.557333,234.272 C739.389333,233.232 738.021333,232.704 736.453333,232.688 C734.725333,232.704 733.261333,233.312 732.061333,234.512 C730.861333,235.712 730.261333,237.176 730.261333,238.904 C730.261333,239.528 730.341333,240.104 730.501333,240.632 C730.901333,241.928 731.657333,242.992 732.769333,243.824 C733.881333,244.656 735.109333,245.072 736.453333,245.072 Z M731.869333,239.048 C731.869333,238.968 731.865333,238.868 731.857333,238.748 C731.849333,238.628 731.845333,238.544 731.845333,238.496 C731.909333,237.312 732.369333,236.296 733.225333,235.448 C734.081333,234.6 735.109333,234.168 736.309333,234.152 C737.333333,234.136 738.261333,234.436 739.093333,235.052 C739.925333,235.668 740.493333,236.464 740.797333,237.44 L740.797333,237.44 L731.869333,239.048 Z M747.104,245 L747.104,237.968 C747.104,236.944 747.452,236.072 748.148,235.352 C748.844,234.632 749.688,234.272 750.68,234.272 C751.672,234.272 752.516,234.632 753.212,235.352 C753.908,236.072 754.256,236.944 754.256,237.968 L754.256,237.968 L754.256,245 L755.864,245 L755.864,237.92 C755.864,236.48 755.392,235.268 754.448,234.284 C753.504,233.3 752.336,232.808 750.944,232.808 C749.36,232.808 748.08,233.464 747.104,234.776 L747.104,234.776 L747.104,233 L745.52,233 L745.52,245 L747.104,245 Z M763.778666,245.192 C765.250666,245.192 766.354666,244.88 767.090666,244.256 C767.826666,243.632 768.194666,242.816 768.194666,241.808 C768.194666,241.088 767.930666,240.476 767.402666,239.972 C766.874666,239.468 766.230666,239.084 765.470666,238.82 C764.710666,238.556 763.954666,238.312 763.202666,238.088 C762.450666,237.864 761.810666,237.596 761.282666,237.284 C760.754666,236.972 760.490666,236.6 760.490666,236.168 C760.490666,235.56 760.758666,235.088 761.294666,234.752 C761.830666,234.416 762.530666,234.248 763.394666,234.248 C764.002666,234.248 764.610666,234.384 765.218666,234.656 C765.826666,234.928 766.230666,235.144 766.430666,235.304 C766.630666,235.464 766.786666,235.6 766.898666,235.712 L766.898666,235.712 L768.026666,234.728 L767.522666,234.248 C767.186666,233.928 766.634666,233.608 765.866666,233.288 C765.098666,232.968 764.282666,232.808 763.418666,232.808 C761.962666,232.808 760.862666,233.124 760.118666,233.756 C759.374666,234.388 759.002666,235.2 759.002666,236.192 C759.002666,236.912 759.266666,237.52 759.794666,238.016 C760.322666,238.512 760.966666,238.896 761.726666,239.168 C762.486666,239.44 763.242666,239.688 763.994666,239.912 C764.746666,240.136 765.386666,240.404 765.914666,240.716 C766.442666,241.028 766.706666,241.4 766.706666,241.832 C766.706666,242.44 766.442666,242.912 765.914666,243.248 C765.386666,243.584 764.682666,243.752 763.802666,243.752 C763.210666,243.752 762.610666,243.616 762.002666,243.344 C761.394666,243.072 760.990666,242.856 760.790666,242.696 C760.590666,242.536 760.434666,242.4 760.322666,242.288 L760.322666,242.288 L759.194666,243.248 L759.386666,243.464 C759.514666,243.592 759.714666,243.752 759.986666,243.944 C760.258666,244.136 760.566666,244.324 760.910666,244.508 C761.254666,244.692 761.682666,244.852 762.194666,244.988 C762.706666,245.124 763.234666,245.192 763.778666,245.192 Z M776.757333,245.192 C778.469333,245.192 779.925333,244.584 781.125333,243.368 C782.341333,242.152 782.949333,240.696 782.949333,239 C782.949333,237.288 782.345333,235.828 781.137333,234.62 C779.929333,233.412 778.469333,232.808 776.757333,232.808 C775.045333,232.808 773.585333,233.412 772.377333,234.62 C771.169333,235.828 770.565333,237.288 770.565333,239 C770.565333,240.712 771.169333,242.172 772.377333,243.38 C773.585333,244.588 775.045333,245.192 776.757333,245.192 Z M776.781333,243.68 C775.501333,243.68 774.413333,243.228 773.517333,242.324 C772.621333,241.42 772.173333,240.312 772.173333,239 C772.173333,237.688 772.621333,236.576 773.517333,235.664 C774.413333,234.752 775.501333,234.296 776.781333,234.296 C778.077333,234.296 779.169333,234.752 780.057333,235.664 C780.945333,236.576 781.389333,237.688 781.389333,239 C781.389333,240.312 780.945333,241.42 780.057333,242.324 C779.169333,243.228 778.077333,243.68 776.781333,243.68 Z M787.576,245 L787.576,237.968 C787.576,236.928 787.92,236.052 788.608,235.34 C789.296,234.628 790.144,234.272 791.152,234.272 C791.84,234.272 792.52,234.52 793.192,235.016 L793.192,235.016 L793.744,233.432 C793.04,233.016 792.264,232.808 791.416,232.808 C789.832,232.808 788.552,233.464 787.576,234.776 L787.576,234.776 L787.576,233 L785.992,233 L785.992,245 L787.576,245 Z M810.869333,245.192 C812.437333,245.192 813.801333,244.836 814.961333,244.124 C816.121333,243.412 817.021333,242.432 817.661333,241.184 L817.661333,241.184 L816.173333,240.296 C815.677333,241.336 814.969333,242.164 814.049333,242.78 C813.129333,243.396 812.069333,243.704 810.869333,243.704 C809.045333,243.704 807.585333,243.064 806.489333,241.784 C805.393333,240.504 804.845333,238.896 804.845333,236.96 C804.845333,235.008 805.393333,233.396 806.489333,232.124 C807.585333,230.852 809.045333,230.216 810.869333,230.216 C812.053333,230.216 813.105333,230.52 814.025333,231.128 C814.945333,231.736 815.661333,232.56 816.173333,233.6 L816.173333,233.6 L817.661333,232.736 C817.021333,231.488 816.121333,230.504 814.961333,229.784 C813.801333,229.064 812.437333,228.704 810.869333,228.704 C808.501333,228.704 806.613333,229.492 805.205333,231.068 C803.797333,232.644 803.093333,234.608 803.093333,236.96 C803.093333,239.296 803.797333,241.252 805.205333,242.828 C806.613333,244.404 808.501333,245.192 810.869333,245.192 Z M822.168,229.688 C822.44,229.688 822.664,229.592 822.84,229.4 C823.032,229.208 823.128,228.984 823.128,228.728 C823.128,228.472 823.036,228.248 822.852,228.056 C822.668,227.864 822.44,227.768 822.168,227.768 C821.896,227.768 821.668,227.864 821.484,228.056 C821.3,228.248 821.208,228.472 821.208,228.728 C821.208,228.984 821.3,229.208 821.484,229.4 C821.668,229.592 821.896,229.688 822.168,229.688 Z M822.96,245 L822.96,233 L821.376,233 L821.376,245 L822.96,245 Z M828.882666,245 L828.882666,237.968 C828.882666,236.928 829.226666,236.052 829.914666,235.34 C830.602666,234.628 831.450667,234.272 832.458666,234.272 C833.146666,234.272 833.826666,234.52 834.498666,235.016 L834.498666,235.016 L835.050666,233.432 C834.346666,233.016 833.570667,232.808 832.722666,232.808 C831.138666,232.808 829.858666,233.464 828.882666,234.776 L828.882666,234.776 L828.882666,233 L827.298666,233 L827.298666,245 L828.882666,245 Z M842.365333,245.192 C843.453333,245.192 844.465333,244.924 845.401333,244.388 C846.337333,243.852 847.077333,243.136 847.621333,242.24 L847.621333,242.24 L846.181333,241.544 C845.749333,242.2 845.197333,242.72 844.525333,243.104 C843.853333,243.488 843.133333,243.68 842.365333,243.68 C841.069333,243.68 839.977333,243.228 839.089333,242.324 C838.201333,241.42 837.757333,240.312 837.757333,239 C837.757333,237.688 838.201333,236.58 839.089333,235.676 C839.977333,234.772 841.069333,234.32 842.365333,234.32 C843.133333,234.32 843.853333,234.512 844.525333,234.896 C845.197333,235.28 845.749333,235.8 846.181333,236.456 L846.181333,236.456 L847.621333,235.76 C847.077333,234.864 846.337333,234.148 845.401333,233.612 C844.465333,233.076 843.453333,232.808 842.365333,232.808 C840.653333,232.808 839.193333,233.412 837.985333,234.62 C836.777333,235.828 836.173333,237.288 836.173333,239 C836.173333,240.712 836.777333,242.172 837.985333,243.38 C839.193333,244.588 840.653333,245.192 842.365333,245.192 Z M855.824,245.192 C857.408,245.192 858.688,244.536 859.664,243.224 L859.664,243.224 L859.664,245 L861.248,245 L861.248,233 L859.664,233 L859.664,240.032 C859.664,241.056 859.32,241.924 858.632,242.636 C857.944,243.348 857.096,243.704 856.088,243.704 C855.096,243.704 854.256,243.348 853.568,242.636 C852.88,241.924 852.536,241.056 852.536,240.032 L852.536,240.032 L852.536,233 L850.904,233 L850.904,240.08 C850.904,241.52 851.376,242.732 852.32,243.716 C853.264,244.7 854.432,245.192 855.824,245.192 Z M866.378667,229.688 C866.650667,229.688 866.874667,229.592 867.050667,229.4 C867.242667,229.208 867.338667,228.984 867.338667,228.728 C867.338667,228.472 867.246667,228.248 867.062667,228.056 C866.878667,227.864 866.650667,227.768 866.378667,227.768 C866.106667,227.768 865.878667,227.864 865.694667,228.056 C865.510667,228.248 865.418667,228.472 865.418667,228.728 C865.418667,228.984 865.510667,229.208 865.694667,229.4 C865.878667,229.592 866.106667,229.688 866.378667,229.688 Z M867.170667,245 L867.170667,233 L865.586667,233 L865.586667,245 L867.170667,245 Z M875.253333,245.192 C875.845333,245.192 876.421333,245.036 876.981333,244.724 C877.541333,244.412 877.901333,244.168 878.061333,243.992 C878.221333,243.816 878.349333,243.664 878.445333,243.536 L878.445333,243.536 L877.653333,242.312 C877.653333,242.376 877.569333,242.516 877.401333,242.732 C877.233333,242.948 876.973333,243.168 876.621333,243.392 C876.269333,243.616 875.909333,243.728 875.541333,243.728 C874.949333,243.728 874.425333,243.512 873.969333,243.08 C873.513333,242.648 873.285333,242.064 873.285333,241.328 L873.285333,241.328 L873.285333,234.44 L876.909333,234.44 L876.909333,232.976 L873.285333,232.976 L873.285333,228.992 L871.701333,229.184 L871.701333,232.976 L869.781333,232.976 L869.781333,234.44 L871.701333,234.44 L871.701333,241.688 C871.701333,242.824 872.041333,243.692 872.721333,244.292 C873.401333,244.892 874.245333,245.192 875.253333,245.192 Z" id="ResistiveSensorCircuit" fill="#23ABE3" fill-rule="nonzero"></path>
        </g>
        <g transform="translate(262.000000, 19.000000)">
            <g id="R1" transform="translate(82.000000, 23.000000)">
                <polyline id="Resistor" stroke="#524740" stroke-width="2" stroke-linejoin="bevel" transform="translate(35.000000, 65.000000) rotate(-360.000000) translate(-35.000000, -65.000000) " points="0 65 5 65 10 52 20 78 30 52 40 78 50 52 60 78 65 65 70 65"></polyline>
                <g id="Photoresistor" transform="translate(150.000000, 0.000000)">
                    <polyline id="Resistor-Copy" stroke="#524740" stroke-width="2" stroke-linejoin="bevel" points="10 65 15 65 20 52 30.5 78 40 52 50 78 60 52 70 78 75 65 80 65"></polyline>
                    <g id="Line" transform="translate(68.500000, 13.500000) rotate(-330.000000) translate(-68.500000, -13.500000) translate(66.000000, 0.000000)">
                        <polygon id="Triangle" fill="#524740" transform="translate(2.500000, 20.000000) scale(1, -1) translate(-2.500000, -20.000000) " points="2.5 13.5 5 26.5 0 26.5"></polygon>
                        <line x1="2.5" y1="0" x2="2.5" y2="20" id="Path-3" stroke="#524740" stroke-width="2"></line>
                    </g>
                    <g id="Line-Copy" transform="translate(78.500000, 19.500000) rotate(-330.000000) translate(-78.500000, -19.500000) translate(76.000000, 6.000000)">
                        <polygon id="Triangle" fill="#524740" transform="translate(2.500000, 20.000000) scale(1, -1) translate(-2.500000, -20.000000) " points="2.5 13.5 5 26.5 0 26.5"></polygon>
                        <line x1="2.5" y1="0" x2="2.5" y2="20" id="Path-3" stroke="#524740" stroke-width="2"></line>
                    </g>
                    <circle id="Oval" stroke="#524740" stroke-width="2" cx="45" cy="65" r="39"></circle>
                    <line x1="10" y1="65" x2="0" y2="65" id="Path-4" stroke="#524740" stroke-width="2"></line>
                    <line x1="90" y1="65" x2="80" y2="65" id="Path-4-Copy" stroke="#524740" stroke-width="2"></line>
                </g>
            </g>
            <g id="R1" transform="translate(103.000000, 46.000000)" fill="#524740" fill-rule="nonzero">
                <path d="M7.596,17 L7.596,16.496 C6.604,16.496 5.976,16.328 5.712,15.992 C5.448,15.656 5.316,14.888 5.316,13.688 L5.316,13.688 L5.316,10.688 L6.444,10.688 L11.196,17 L15.156,17 L15.156,16.496 C13.748,16.336 12.26,15.32 10.692,13.448 L10.692,13.448 L8.34,10.688 C9.668,10.544 10.712,10.104 11.472,9.368 C12.232,8.632 12.612,7.728 12.612,6.656 C12.612,5.488 12.156,4.52 11.244,3.752 C10.332,2.984 9.068,2.6 7.452,2.6 L7.452,2.6 L1.116,2.6 L1.116,3.104 C2.108,3.104 2.736,3.268 3,3.596 C3.264,3.924 3.396,4.688 3.396,5.888 L3.396,5.888 L3.396,13.688 C3.396,14.888 3.264,15.656 3,15.992 C2.736,16.328 2.108,16.496 1.116,16.496 L1.116,16.496 L1.116,17 L7.596,17 Z M7.428,9.824 L5.316,9.824 L5.316,3.488 L7.428,3.488 C8.42,3.488 9.176,3.784 9.696,4.376 C10.216,4.968 10.476,5.728 10.476,6.656 C10.476,7.584 10.216,8.344 9.696,8.936 C9.176,9.528 8.42,9.824 7.428,9.824 L7.428,9.824 Z M22.596,17 L22.596,16.496 C21.588,16.496 20.952,16.332 20.688,16.004 C20.424,15.676 20.292,14.904 20.292,13.688 L20.292,13.688 L20.292,9.896 C20.292,8.68 20.424,7.908 20.688,7.58 C20.952,7.252 21.588,7.088 22.596,7.088 L22.596,7.088 L22.596,6.608 L16.284,6.608 L16.284,7.088 C17.276,7.088 17.908,7.256 18.18,7.592 C18.452,7.928 18.588,8.696 18.588,9.896 L18.588,9.896 L18.588,13.688 C18.588,14.888 18.452,15.656 18.18,15.992 C17.908,16.328 17.276,16.496 16.284,16.496 L16.284,16.496 L16.284,17 L22.596,17 Z"></path>
            </g>
            <g id="R2" transform="translate(176.000000, 0.000000)" fill="#524740" fill-rule="nonzero">
                <path d="M8.316,17 L8.316,16.496 C7.324,16.496 6.696,16.328 6.432,15.992 C6.168,15.656 6.036,14.888 6.036,13.688 L6.036,13.688 L6.036,10.688 L7.164,10.688 L11.916,17 L15.876,17 L15.876,16.496 C14.468,16.336 12.98,15.32 11.412,13.448 L11.412,13.448 L9.06,10.688 C10.388,10.544 11.432,10.104 12.192,9.368 C12.952,8.632 13.332,7.728 13.332,6.656 C13.332,5.488 12.876,4.52 11.964,3.752 C11.052,2.984 9.788,2.6 8.172,2.6 L8.172,2.6 L1.836,2.6 L1.836,3.104 C2.828,3.104 3.456,3.268 3.72,3.596 C3.984,3.924 4.116,4.688 4.116,5.888 L4.116,5.888 L4.116,13.688 C4.116,14.888 3.984,15.656 3.72,15.992 C3.456,16.328 2.828,16.496 1.836,16.496 L1.836,16.496 L1.836,17 L8.316,17 Z M8.148,9.824 L6.036,9.824 L6.036,3.488 L8.148,3.488 C9.14,3.488 9.896,3.784 10.416,4.376 C10.936,4.968 11.196,5.728 11.196,6.656 C11.196,7.584 10.936,8.344 10.416,8.936 C9.896,9.528 9.14,9.824 8.148,9.824 L8.148,9.824 Z M25.836,18.896 L26.436,15.608 L20.22,15.608 L23.916,12.776 L24.156,12.632 C24.3,12.52 24.48,12.356 24.696,12.14 C24.912,11.924 25.128,11.688 25.344,11.432 C25.56,11.176 25.744,10.864 25.896,10.496 C26.048,10.128 26.124,9.768 26.124,9.416 C26.124,8.456 25.668,7.68 24.756,7.088 C23.844,6.496 22.772,6.2 21.54,6.2 C20.212,6.2 19.148,6.524 18.348,7.172 C17.548,7.82 17.184,8.572 17.256,9.428 C17.328,10.284 17.828,10.992 18.756,11.552 L18.756,11.552 L19.476,10.808 C18.948,9.816 18.932,8.968 19.428,8.264 C19.924,7.56 20.628,7.208 21.54,7.208 C22.324,7.208 22.952,7.408 23.424,7.808 C23.896,8.208 24.132,8.752 24.132,9.44 C24.132,10.656 23.364,11.872 21.828,13.088 L21.828,13.088 L17.58,16.424 L17.58,17 L22.524,17 C23.724,17 24.492,17.116 24.828,17.348 C25.164,17.58 25.332,18.096 25.332,18.896 L25.332,18.896 L25.836,18.896 Z M41.268,19.664 L41.796,19.16 C41.284,18.584 40.86,18.084 40.524,17.66 C40.188,17.236 39.752,16.604 39.216,15.764 C38.68,14.924 38.268,14.008 37.98,13.016 C37.692,12.024 37.548,10.992 37.548,9.92 C37.548,8.848 37.692,7.816 37.98,6.824 C38.268,5.832 38.68,4.916 39.216,4.076 C39.752,3.236 40.188,2.604 40.524,2.18 C40.86,1.756 41.284,1.256 41.796,0.68 L41.796,0.68 L41.244,0.176 C37.66,3.136 35.868,6.384 35.868,9.92 C35.868,13.472 37.668,16.72 41.268,19.664 L41.268,19.664 Z M49.86,17 L49.86,16.496 C48.868,16.496 48.24,16.328 47.976,15.992 C47.712,15.656 47.58,14.888 47.58,13.688 L47.58,13.688 L47.58,10.688 L48.708,10.688 L53.46,17 L57.42,17 L57.42,16.496 C56.012,16.336 54.524,15.32 52.956,13.448 L52.956,13.448 L50.604,10.688 C51.932,10.544 52.976,10.104 53.736,9.368 C54.496,8.632 54.876,7.728 54.876,6.656 C54.876,5.488 54.42,4.52 53.508,3.752 C52.596,2.984 51.332,2.6 49.716,2.6 L49.716,2.6 L43.38,2.6 L43.38,3.104 C44.372,3.104 45,3.268 45.264,3.596 C45.528,3.924 45.66,4.688 45.66,5.888 L45.66,5.888 L45.66,13.688 C45.66,14.888 45.528,15.656 45.264,15.992 C45,16.328 44.372,16.496 43.38,16.496 L43.38,16.496 L43.38,17 L49.86,17 Z M49.692,9.824 L47.58,9.824 L47.58,3.488 L49.692,3.488 C50.684,3.488 51.44,3.784 51.96,4.376 C52.48,4.968 52.74,5.728 52.74,6.656 C52.74,7.584 52.48,8.344 51.96,8.936 C51.44,9.528 50.684,9.824 49.692,9.824 L49.692,9.824 Z M62.94,17.408 C63.612,17.408 64.284,17.26 64.956,16.964 C65.628,16.668 66.18,16.288 66.612,15.824 L66.612,15.824 L66.18,15.296 C65.844,15.616 65.42,15.88 64.908,16.088 C64.396,16.296 63.94,16.4 63.54,16.4 C62.356,16.4 61.504,16.028 60.984,15.284 C60.464,14.54 60.276,13.576 60.42,12.392 L60.42,12.392 L66.204,12.392 C66.492,11.384 66.292,10.5 65.604,9.74 C64.916,8.98 64.028,8.6 62.94,8.6 C61.788,8.6 60.76,9.024 59.856,9.872 C58.952,10.72 58.5,11.76 58.5,12.992 C58.5,14.224 58.916,15.268 59.748,16.124 C60.58,16.98 61.644,17.408 62.94,17.408 Z M64.548,11.504 L60.564,11.504 C60.74,10.912 61.032,10.44 61.44,10.088 C61.848,9.736 62.308,9.56 62.82,9.56 C63.54,9.56 64.048,9.772 64.344,10.196 C64.64,10.62 64.708,11.056 64.548,11.504 L64.548,11.504 Z M69.132,17.408 C69.132,17.088 69.164,16.872 69.228,16.76 C69.292,16.648 69.404,16.62 69.564,16.676 C69.724,16.732 69.896,16.812 70.08,16.916 C70.264,17.02 70.508,17.128 70.812,17.24 C71.116,17.352 71.412,17.408 71.7,17.408 C72.5,17.408 73.176,17.164 73.728,16.676 C74.28,16.188 74.556,15.56 74.556,14.792 C74.556,13.88 74.004,13.112 72.9,12.488 L72.9,12.488 L71.748,11.864 C71.188,11.56 70.804,11.308 70.596,11.108 C70.388,10.908 70.284,10.672 70.284,10.4 C70.284,10.096 70.388,9.848 70.596,9.656 C70.804,9.464 71.108,9.368 71.508,9.368 C72.084,9.368 72.552,9.572 72.912,9.98 C73.272,10.388 73.452,10.856 73.452,11.384 L73.452,11.384 L73.956,11.384 L73.956,8.6 L73.452,8.6 C73.452,8.92 73.416,9.1 73.344,9.14 C73.272,9.18 73.14,9.144 72.948,9.032 C72.372,8.744 71.812,8.6 71.268,8.6 C70.628,8.6 70.064,8.808 69.576,9.224 C69.088,9.64 68.844,10.16 68.844,10.784 C68.844,11.808 69.372,12.608 70.428,13.184 L70.428,13.184 L71.772,13.904 C72.668,14.384 73.116,14.872 73.116,15.368 C73.116,15.704 72.984,15.992 72.72,16.232 C72.456,16.472 72.132,16.592 71.748,16.592 C70.964,16.592 70.332,16.3 69.852,15.716 C69.372,15.132 69.132,14.528 69.132,13.904 L69.132,13.904 L68.628,13.904 L68.628,17.408 L69.132,17.408 Z M79.284,6.248 C79.572,6.248 79.82,6.144 80.028,5.936 C80.236,5.728 80.34,5.472 80.34,5.168 C80.34,4.88 80.236,4.632 80.028,4.424 C79.82,4.216 79.572,4.112 79.284,4.112 C78.996,4.112 78.748,4.216 78.54,4.424 C78.332,4.632 78.228,4.88 78.228,5.168 C78.228,5.472 78.332,5.728 78.54,5.936 C78.748,6.144 78.996,6.248 79.284,6.248 Z M82.044,17 L82.044,16.496 C81.244,16.496 80.728,16.328 80.496,15.992 C80.264,15.656 80.148,14.888 80.148,13.688 L80.148,13.688 L80.148,8.6 L76.548,9.2 L76.548,9.704 C77.348,9.704 77.864,9.872 78.096,10.208 C78.328,10.544 78.444,11.304 78.444,12.488 L78.444,12.488 L78.444,13.688 C78.444,14.888 78.328,15.656 78.096,15.992 C77.864,16.328 77.348,16.496 76.548,16.496 L76.548,16.496 L76.548,17 L82.044,17 Z M84.156,17.408 C84.156,17.088 84.188,16.872 84.252,16.76 C84.316,16.648 84.428,16.62 84.588,16.676 C84.748,16.732 84.92,16.812 85.104,16.916 C85.288,17.02 85.532,17.128 85.836,17.24 C86.14,17.352 86.436,17.408 86.724,17.408 C87.524,17.408 88.2,17.164 88.752,16.676 C89.304,16.188 89.58,15.56 89.58,14.792 C89.58,13.88 89.028,13.112 87.924,12.488 L87.924,12.488 L86.772,11.864 C86.212,11.56 85.828,11.308 85.62,11.108 C85.412,10.908 85.308,10.672 85.308,10.4 C85.308,10.096 85.412,9.848 85.62,9.656 C85.828,9.464 86.132,9.368 86.532,9.368 C87.108,9.368 87.576,9.572 87.936,9.98 C88.296,10.388 88.476,10.856 88.476,11.384 L88.476,11.384 L88.98,11.384 L88.98,8.6 L88.476,8.6 C88.476,8.92 88.44,9.1 88.368,9.14 C88.296,9.18 88.164,9.144 87.972,9.032 C87.396,8.744 86.836,8.6 86.292,8.6 C85.652,8.6 85.088,8.808 84.6,9.224 C84.112,9.64 83.868,10.16 83.868,10.784 C83.868,11.808 84.396,12.608 85.452,13.184 L85.452,13.184 L86.796,13.904 C87.692,14.384 88.14,14.872 88.14,15.368 C88.14,15.704 88.008,15.992 87.744,16.232 C87.48,16.472 87.156,16.592 86.772,16.592 C85.988,16.592 85.356,16.3 84.876,15.716 C84.396,15.132 84.156,14.528 84.156,13.904 L84.156,13.904 L83.652,13.904 L83.652,17.408 L84.156,17.408 Z M94.812,17.336 C95.212,17.336 95.648,17.208 96.12,16.952 C96.592,16.696 96.996,16.368 97.332,15.968 L97.332,15.968 L96.924,15.56 C96.348,16.104 95.828,16.376 95.364,16.376 C94.644,16.376 94.284,15.8 94.284,14.648 L94.284,14.648 L94.284,9.848 L96.372,9.848 L96.372,9.008 L94.284,9.008 L94.284,6.368 L93.468,6.368 C93.372,7.2 93.164,7.856 92.844,8.336 C92.524,8.816 92.02,9.128 91.332,9.272 L91.332,9.272 L91.332,9.848 L92.58,9.848 L92.58,14.648 C92.58,15.544 92.78,16.216 93.18,16.664 C93.58,17.112 94.124,17.336 94.812,17.336 Z M101.388,6.248 C101.676,6.248 101.924,6.144 102.132,5.936 C102.34,5.728 102.444,5.472 102.444,5.168 C102.444,4.88 102.34,4.632 102.132,4.424 C101.924,4.216 101.676,4.112 101.388,4.112 C101.1,4.112 100.852,4.216 100.644,4.424 C100.436,4.632 100.332,4.88 100.332,5.168 C100.332,5.472 100.436,5.728 100.644,5.936 C100.852,6.144 101.1,6.248 101.388,6.248 Z M104.148,17 L104.148,16.496 C103.348,16.496 102.832,16.328 102.6,15.992 C102.368,15.656 102.252,14.888 102.252,13.688 L102.252,13.688 L102.252,8.6 L98.652,9.2 L98.652,9.704 C99.452,9.704 99.968,9.872 100.2,10.208 C100.432,10.544 100.548,11.304 100.548,12.488 L100.548,12.488 L100.548,13.688 C100.548,14.888 100.432,15.656 100.2,15.992 C99.968,16.328 99.452,16.496 98.652,16.496 L98.652,16.496 L98.652,17 L104.148,17 Z M109.428,17.432 L112.14,10.904 C112.364,10.376 112.6,10.008 112.848,9.8 C113.096,9.592 113.428,9.488 113.844,9.488 L113.844,9.488 L113.844,9.008 L110.484,9.008 L110.484,9.488 C110.996,9.488 111.3,9.596 111.396,9.812 C111.492,10.028 111.42,10.392 111.18,10.904 L111.18,10.904 L109.596,14.744 L107.892,10.904 C107.652,10.328 107.58,9.948 107.676,9.764 C107.772,9.58 108.092,9.488 108.636,9.488 L108.636,9.488 L108.636,9.008 L104.388,9.008 L104.388,9.488 C104.772,9.488 105.08,9.592 105.312,9.8 C105.544,10.008 105.78,10.376 106.02,10.904 L106.02,10.904 L108.948,17.432 L109.428,17.432 Z M119.148,17.408 C119.82,17.408 120.492,17.26 121.164,16.964 C121.836,16.668 122.388,16.288 122.82,15.824 L122.82,15.824 L122.388,15.296 C122.052,15.616 121.628,15.88 121.116,16.088 C120.604,16.296 120.148,16.4 119.748,16.4 C118.564,16.4 117.712,16.028 117.192,15.284 C116.672,14.54 116.484,13.576 116.628,12.392 L116.628,12.392 L122.412,12.392 C122.7,11.384 122.5,10.5 121.812,9.74 C121.124,8.98 120.236,8.6 119.148,8.6 C117.996,8.6 116.968,9.024 116.064,9.872 C115.16,10.72 114.708,11.76 114.708,12.992 C114.708,14.224 115.124,15.268 115.956,16.124 C116.788,16.98 117.852,17.408 119.148,17.408 Z M120.756,11.504 L116.772,11.504 C116.948,10.912 117.24,10.44 117.648,10.088 C118.056,9.736 118.516,9.56 119.028,9.56 C119.748,9.56 120.256,9.772 120.552,10.196 C120.848,10.62 120.916,11.056 120.756,11.504 L120.756,11.504 Z M131.244,17.408 C131.34,16.96 131.572,16.584 131.94,16.28 C132.1,16.312 132.38,16.428 132.78,16.628 C133.18,16.828 133.628,17.008 134.124,17.168 C134.62,17.328 135.14,17.408 135.684,17.408 C136.964,17.408 138.048,17.008 138.936,16.208 C139.824,15.408 140.268,14.368 140.268,13.088 C140.268,11.504 139.428,10.288 137.748,9.44 L137.748,9.44 L135.468,8.264 C134.364,7.688 133.6,7.196 133.176,6.788 C132.752,6.38 132.54,5.88 132.54,5.288 C132.54,4.68 132.76,4.172 133.2,3.764 C133.64,3.356 134.196,3.152 134.868,3.152 C137.076,3.152 138.3,4.552 138.54,7.352 L138.54,7.352 L139.044,7.352 L139.044,2.072 L138.564,2.072 C138.468,2.504 138.236,2.872 137.868,3.176 C136.972,2.52 135.996,2.192 134.94,2.192 C133.788,2.192 132.836,2.536 132.084,3.224 C131.332,3.912 130.956,4.76 130.956,5.768 C130.956,6.632 131.212,7.408 131.724,8.096 C132.236,8.784 132.868,9.328 133.62,9.728 L133.62,9.728 L135.924,10.904 C137.764,11.864 138.684,12.832 138.684,13.808 C138.684,14.576 138.4,15.208 137.832,15.704 C137.264,16.2 136.548,16.448 135.684,16.448 C135.092,16.448 134.552,16.368 134.064,16.208 C133.576,16.048 133.184,15.848 132.888,15.608 C132.592,15.368 132.332,15.08 132.108,14.744 C131.884,14.408 131.72,14.104 131.616,13.832 C131.512,13.56 131.432,13.276 131.376,12.98 C131.32,12.684 131.288,12.484 131.28,12.38 C131.272,12.276 131.268,12.192 131.268,12.128 L131.268,12.128 L130.764,12.128 L130.764,17.408 L131.244,17.408 Z M147.036,17.408 C147.708,17.408 148.38,17.26 149.052,16.964 C149.724,16.668 150.276,16.288 150.708,15.824 L150.708,15.824 L150.276,15.296 C149.94,15.616 149.516,15.88 149.004,16.088 C148.492,16.296 148.036,16.4 147.636,16.4 C146.452,16.4 145.6,16.028 145.08,15.284 C144.56,14.54 144.372,13.576 144.516,12.392 L144.516,12.392 L150.3,12.392 C150.588,11.384 150.388,10.5 149.7,9.74 C149.012,8.98 148.124,8.6 147.036,8.6 C145.884,8.6 144.856,9.024 143.952,9.872 C143.048,10.72 142.596,11.76 142.596,12.992 C142.596,14.224 143.012,15.268 143.844,16.124 C144.676,16.98 145.74,17.408 147.036,17.408 Z M148.644,11.504 L144.66,11.504 C144.836,10.912 145.128,10.44 145.536,10.088 C145.944,9.736 146.404,9.56 146.916,9.56 C147.636,9.56 148.144,9.772 148.44,10.196 C148.736,10.62 148.804,11.056 148.644,11.504 L148.644,11.504 Z M157.764,17 L157.764,16.496 C157.028,16.496 156.564,16.336 156.372,16.016 C156.18,15.696 156.084,14.92 156.084,13.688 L156.084,13.688 L156.084,12.128 C156.084,11.488 156.372,10.928 156.948,10.448 C157.524,9.968 158.156,9.728 158.844,9.728 C160.172,9.728 160.836,10.584 160.836,12.296 L160.836,12.296 L160.836,13.688 C160.836,14.872 160.716,15.636 160.476,15.98 C160.236,16.324 159.724,16.496 158.94,16.496 L158.94,16.496 L158.94,17 L164.436,17 L164.436,16.496 C163.636,16.496 163.12,16.328 162.888,15.992 C162.656,15.656 162.54,14.888 162.54,13.688 L162.54,13.688 L162.54,12.176 C162.54,11.104 162.28,10.24 161.76,9.584 C161.24,8.928 160.46,8.6 159.42,8.6 C158.108,8.6 156.996,9.176 156.084,10.328 C155.956,9.48 155.82,8.904 155.676,8.6 L155.676,8.6 L152.484,9.2 L152.484,9.704 C153.284,9.704 153.8,9.872 154.032,10.208 C154.264,10.544 154.38,11.304 154.38,12.488 L154.38,12.488 L154.38,13.688 C154.38,14.888 154.264,15.656 154.032,15.992 C153.8,16.328 153.284,16.496 152.484,16.496 L152.484,16.496 L152.484,17 L157.764,17 Z M166.548,17.408 C166.548,17.088 166.58,16.872 166.644,16.76 C166.708,16.648 166.82,16.62 166.98,16.676 C167.14,16.732 167.312,16.812 167.496,16.916 C167.68,17.02 167.924,17.128 168.228,17.24 C168.532,17.352 168.828,17.408 169.116,17.408 C169.916,17.408 170.592,17.164 171.144,16.676 C171.696,16.188 171.972,15.56 171.972,14.792 C171.972,13.88 171.42,13.112 170.316,12.488 L170.316,12.488 L169.164,11.864 C168.604,11.56 168.22,11.308 168.012,11.108 C167.804,10.908 167.7,10.672 167.7,10.4 C167.7,10.096 167.804,9.848 168.012,9.656 C168.22,9.464 168.524,9.368 168.924,9.368 C169.5,9.368 169.968,9.572 170.328,9.98 C170.688,10.388 170.868,10.856 170.868,11.384 L170.868,11.384 L171.372,11.384 L171.372,8.6 L170.868,8.6 C170.868,8.92 170.832,9.1 170.76,9.14 C170.688,9.18 170.556,9.144 170.364,9.032 C169.788,8.744 169.228,8.6 168.684,8.6 C168.044,8.6 167.48,8.808 166.992,9.224 C166.504,9.64 166.26,10.16 166.26,10.784 C166.26,11.808 166.788,12.608 167.844,13.184 L167.844,13.184 L169.188,13.904 C170.084,14.384 170.532,14.872 170.532,15.368 C170.532,15.704 170.4,15.992 170.136,16.232 C169.872,16.472 169.548,16.592 169.164,16.592 C168.38,16.592 167.748,16.3 167.268,15.716 C166.788,15.132 166.548,14.528 166.548,13.904 L166.548,13.904 L166.044,13.904 L166.044,17.408 L166.548,17.408 Z M179.052,17.408 C180.38,17.408 181.52,16.976 182.472,16.112 C183.424,15.248 183.9,14.208 183.9,12.992 C183.9,11.776 183.42,10.744 182.46,9.896 C181.516,9.032 180.38,8.6 179.052,8.6 C177.724,8.6 176.584,9.028 175.632,9.884 C174.68,10.74 174.204,11.776 174.204,12.992 C174.204,14.208 174.68,15.248 175.632,16.112 C176.584,16.976 177.724,17.408 179.052,17.408 Z M179.052,16.472 C178.108,16.472 177.388,16.144 176.892,15.488 C176.396,14.832 176.148,14 176.148,12.992 C176.148,11.984 176.396,11.152 176.892,10.496 C177.388,9.84 178.108,9.512 179.052,9.512 C179.996,9.512 180.716,9.836 181.212,10.484 C181.708,11.132 181.956,11.968 181.956,12.992 C181.956,14.016 181.708,14.856 181.212,15.512 C180.716,16.152 179.996,16.472 179.052,16.472 Z M191.46,17 L191.46,16.496 C190.66,16.496 190.144,16.328 189.912,15.992 C189.68,15.656 189.564,14.888 189.564,13.688 L189.564,13.688 L189.564,12.368 C189.564,11.52 189.78,10.84 190.212,10.328 C190.644,9.816 191.044,9.56 191.412,9.56 C191.924,9.56 192.18,9.824 192.18,10.352 C192.18,10.576 192.264,10.776 192.432,10.952 C192.6,11.128 192.796,11.216 193.02,11.216 C193.66,11.216 193.98,10.84 193.98,10.088 C193.98,9.736 193.816,9.4 193.488,9.08 C193.16,8.76 192.692,8.6 192.084,8.6 C191.604,8.6 191.124,8.768 190.644,9.104 C190.164,9.44 189.804,9.848 189.564,10.328 C189.436,9.48 189.3,8.904 189.156,8.6 L189.156,8.6 L185.964,9.2 L185.964,9.704 C186.764,9.704 187.28,9.872 187.512,10.208 C187.744,10.544 187.86,11.304 187.86,12.488 L187.86,12.488 L187.86,13.688 C187.86,14.888 187.744,15.656 187.512,15.992 C187.28,16.328 186.764,16.496 185.964,16.496 L185.964,16.496 L185.964,17 L191.46,17 Z M195.708,19.664 C199.292,16.736 201.084,13.488 201.084,9.92 C201.084,6.368 199.3,3.12 195.732,0.176 L195.732,0.176 L195.156,0.68 C195.684,1.272 196.112,1.776 196.44,2.192 C196.768,2.608 197.204,3.236 197.748,4.076 C198.292,4.916 198.708,5.832 198.996,6.824 C199.284,7.816 199.428,8.848 199.428,9.92 C199.428,10.992 199.284,12.024 198.996,13.016 C198.708,14.008 198.292,14.924 197.748,15.764 C197.204,16.604 196.768,17.232 196.44,17.648 C196.112,18.064 195.684,18.568 195.156,19.16 L195.156,19.16 L195.708,19.664 Z" id="R2(ResistiveSensor)"></path>
            </g>
            <g id="Vin" transform="translate(0.000000, 77.000000)" fill="#524740" fill-rule="nonzero">
                <path d="M8.564,17.408 L13.844,5.192 C14.244,4.264 14.584,3.684 14.864,3.452 C15.144,3.22 15.756,3.104 16.7,3.104 L16.7,3.104 L16.7,2.6 L11.108,2.6 L11.108,3.104 C12.1,3.104 12.736,3.244 13.016,3.524 C13.296,3.804 13.284,4.272 12.98,4.928 L12.98,4.928 L8.948,14.264 L4.868,4.928 C4.564,4.272 4.552,3.804 4.832,3.524 C5.112,3.244 5.748,3.104 6.74,3.104 L6.74,3.104 L6.74,2.6 L0.092,2.6 L0.092,3.104 C1.036,3.104 1.648,3.22 1.928,3.452 C2.208,3.684 2.548,4.264 2.948,5.192 L2.948,5.192 L8.252,17.408 L8.564,17.408 Z M19.46,6.248 C19.748,6.248 19.996,6.144 20.204,5.936 C20.412,5.728 20.516,5.472 20.516,5.168 C20.516,4.88 20.412,4.632 20.204,4.424 C19.996,4.216 19.748,4.112 19.46,4.112 C19.172,4.112 18.924,4.216 18.716,4.424 C18.508,4.632 18.404,4.88 18.404,5.168 C18.404,5.472 18.508,5.728 18.716,5.936 C18.924,6.144 19.172,6.248 19.46,6.248 Z M22.22,17 L22.22,16.496 C21.42,16.496 20.904,16.328 20.672,15.992 C20.44,15.656 20.324,14.888 20.324,13.688 L20.324,13.688 L20.324,8.6 L16.724,9.2 L16.724,9.704 C17.524,9.704 18.04,9.872 18.272,10.208 C18.504,10.544 18.62,11.304 18.62,12.488 L18.62,12.488 L18.62,13.688 C18.62,14.888 18.504,15.656 18.272,15.992 C18.04,16.328 17.524,16.496 16.724,16.496 L16.724,16.496 L16.724,17 L22.22,17 Z M28.868,17 L28.868,16.496 C28.132,16.496 27.668,16.336 27.476,16.016 C27.284,15.696 27.188,14.92 27.188,13.688 L27.188,13.688 L27.188,12.128 C27.188,11.488 27.476,10.928 28.052,10.448 C28.628,9.968 29.26,9.728 29.948,9.728 C31.276,9.728 31.94,10.584 31.94,12.296 L31.94,12.296 L31.94,13.688 C31.94,14.872 31.82,15.636 31.58,15.98 C31.34,16.324 30.828,16.496 30.044,16.496 L30.044,16.496 L30.044,17 L35.54,17 L35.54,16.496 C34.74,16.496 34.224,16.328 33.992,15.992 C33.76,15.656 33.644,14.888 33.644,13.688 L33.644,13.688 L33.644,12.176 C33.644,11.104 33.384,10.24 32.864,9.584 C32.344,8.928 31.564,8.6 30.524,8.6 C29.212,8.6 28.1,9.176 27.188,10.328 C27.06,9.48 26.924,8.904 26.78,8.6 L26.78,8.6 L23.588,9.2 L23.588,9.704 C24.388,9.704 24.904,9.872 25.136,10.208 C25.368,10.544 25.484,11.304 25.484,12.488 L25.484,12.488 L25.484,13.688 C25.484,14.888 25.368,15.656 25.136,15.992 C24.904,16.328 24.388,16.496 23.588,16.496 L23.588,16.496 L23.588,17 L28.868,17 Z"></path>
            </g>
            <g id="Vout" transform="translate(174.000000, 143.000000)" fill="#524740" fill-rule="nonzero">
                <path d="M8.852,17.408 L14.132,5.192 C14.532,4.264 14.872,3.684 15.152,3.452 C15.432,3.22 16.044,3.104 16.988,3.104 L16.988,3.104 L16.988,2.6 L11.396,2.6 L11.396,3.104 C12.388,3.104 13.024,3.244 13.304,3.524 C13.584,3.804 13.572,4.272 13.268,4.928 L13.268,4.928 L9.236,14.264 L5.156,4.928 C4.852,4.272 4.84,3.804 5.12,3.524 C5.4,3.244 6.036,3.104 7.028,3.104 L7.028,3.104 L7.028,2.6 L0.38,2.6 L0.38,3.104 C1.324,3.104 1.936,3.22 2.216,3.452 C2.496,3.684 2.836,4.264 3.236,5.192 L3.236,5.192 L8.54,17.408 L8.852,17.408 Z M22.1,17.408 C23.428,17.408 24.568,16.976 25.52,16.112 C26.472,15.248 26.948,14.208 26.948,12.992 C26.948,11.776 26.468,10.744 25.508,9.896 C24.564,9.032 23.428,8.6 22.1,8.6 C20.772,8.6 19.632,9.028 18.68,9.884 C17.728,10.74 17.252,11.776 17.252,12.992 C17.252,14.208 17.728,15.248 18.68,16.112 C19.632,16.976 20.772,17.408 22.1,17.408 Z M22.1,16.472 C21.156,16.472 20.436,16.144 19.94,15.488 C19.444,14.832 19.196,14 19.196,12.992 C19.196,11.984 19.444,11.152 19.94,10.496 C20.436,9.84 21.156,9.512 22.1,9.512 C23.044,9.512 23.764,9.836 24.26,10.484 C24.756,11.132 25.004,11.968 25.004,12.992 C25.004,14.016 24.756,14.856 24.26,15.512 C23.764,16.152 23.044,16.472 22.1,16.472 Z M36.956,17.408 L40.172,16.808 L40.172,16.304 C39.356,16.304 38.832,16.136 38.6,15.8 C38.368,15.464 38.252,14.696 38.252,13.496 L38.252,13.496 L38.252,9.008 L34.652,9.008 L34.652,9.488 C35.468,9.488 35.992,9.656 36.224,9.992 C36.456,10.328 36.572,11.096 36.572,12.296 L36.572,12.296 L36.572,13.88 C36.572,14.552 36.276,15.116 35.684,15.572 C35.092,16.028 34.524,16.256 33.98,16.256 C32.764,16.256 32.156,15.4 32.156,13.688 L32.156,13.688 L32.156,9.008 L28.556,9.008 L28.556,9.488 C29.356,9.488 29.872,9.656 30.104,9.992 C30.336,10.328 30.452,11.096 30.452,12.296 L30.452,12.296 L30.452,13.808 C30.452,16.208 31.444,17.408 33.428,17.408 C34.532,17.408 35.58,16.896 36.572,15.872 C36.7,16.64 36.828,17.152 36.956,17.408 L36.956,17.408 Z M44.78,17.336 C45.18,17.336 45.616,17.208 46.088,16.952 C46.56,16.696 46.964,16.368 47.3,15.968 L47.3,15.968 L46.892,15.56 C46.316,16.104 45.796,16.376 45.332,16.376 C44.612,16.376 44.252,15.8 44.252,14.648 L44.252,14.648 L44.252,9.848 L46.34,9.848 L46.34,9.008 L44.252,9.008 L44.252,6.368 L43.436,6.368 C43.34,7.2 43.132,7.856 42.812,8.336 C42.492,8.816 41.988,9.128 41.3,9.272 L41.3,9.272 L41.3,9.848 L42.548,9.848 L42.548,14.648 C42.548,15.544 42.748,16.216 43.148,16.664 C43.548,17.112 44.092,17.336 44.78,17.336 Z"></path>
            </g>
            <g id="Ground" transform="translate(351.500000, 88.500000) rotate(-180.000000) translate(-351.500000, -88.500000) translate(332.500000, 72.000000)" stroke="#524740" stroke-width="2">
                <line x1="12.5" y1="17" x2="37.5" y2="17" id="Path-2-Copy"></line>
                <line x1="7" y1="6.5" x2="7" y2="26.5" id="Path-4"></line>
                <line x1="1" y1="13.5" x2="1" y2="19.5" id="Path-4-Copy"></line>
                <line x1="13" y1="0" x2="13" y2="33" id="Path-3-Copy"></line>
            </g>
            <circle id="Oval-2-Copy-12" fill="#524740" cx="197" cy="88" r="5"></circle>
            <line x1="197" y1="88" x2="197" y2="140" id="Path-19" stroke="#524740" stroke-width="2"></line>
            <line x1="42" y1="88" x2="82" y2="88" id="Path-16" stroke="#524740" stroke-width="2"></line>
            <line x1="202" y1="88" x2="242" y2="88" id="Path-16-Copy" stroke="#524740" stroke-width="2"></line>
            <line x1="312" y1="88" x2="352" y2="88" id="Path-16-Copy-3" stroke="#524740" stroke-width="2"></line>
            <line x1="152" y1="88" x2="192" y2="88" id="Path-16-Copy-2" stroke="#524740" stroke-width="2"></line>
        </g>
    </g>
</svg>