<?xml version="1.0" encoding="UTF-8"?>
<svg width="900px" height="390px" viewBox="0 0 900 390" version="1.1" xmlns="http://www.w3.org/2000/svg" xmlns:xlink="http://www.w3.org/1999/xlink">
    <!-- Generator: Sketch 60.1 (88133) - https://sketch.com -->
    <title>VoltageDrop_Simplification</title>
    <desc>Created with Sketch.</desc>
    <g id="VoltageDrop_Simplification" stroke="none" stroke-width="1" fill="none" fill-rule="evenodd">
        <g id="Illustration_Frame">
            <rect id="Rectangle" stroke="#3D3530" stroke-width="2" fill="#EEEEEE" x="1" y="1" width="898" height="388"></rect>
            <rect id="Rectangle-Copy" stroke="#3D3530" stroke-width="2" fill="#F8FAE4" x="1" y="346" width="898" height="43"></rect>
            <path d="M645.301333,375.192 C646.869333,375.192 648.233333,374.836 649.393333,374.124 C650.553333,373.412 651.453333,372.432 652.093333,371.184 L652.093333,371.184 L650.605333,370.296 C650.109333,371.336 649.401333,372.164 648.481333,372.78 C647.561333,373.396 646.501333,373.704 645.301333,373.704 C643.477333,373.704 642.017333,373.064 640.921333,371.784 C639.825333,370.504 639.277333,368.896 639.277333,366.96 C639.277333,365.008 639.825333,363.396 640.921333,362.124 C642.017333,360.852 643.477333,360.216 645.301333,360.216 C646.485333,360.216 647.537333,360.52 648.457333,361.128 C649.377333,361.736 650.093333,362.56 650.605333,363.6 L650.605333,363.6 L652.093333,362.736 C651.453333,361.488 650.553333,360.504 649.393333,359.784 C648.233333,359.064 646.869333,358.704 645.301333,358.704 C642.933333,358.704 641.045333,359.492 639.637333,361.068 C638.229333,362.644 637.525333,364.608 637.525333,366.96 C637.525333,369.296 638.229333,371.252 639.637333,372.828 C641.045333,374.404 642.933333,375.192 645.301333,375.192 Z M656.599999,359.688 C656.871999,359.688 657.095999,359.592 657.271999,359.4 C657.463999,359.208 657.559999,358.984 657.559999,358.728 C657.559999,358.472 657.467999,358.248 657.283999,358.056 C657.099999,357.864 656.871999,357.768 656.599999,357.768 C656.327999,357.768 656.099999,357.864 655.915999,358.056 C655.731999,358.248 655.639999,358.472 655.639999,358.728 C655.639999,358.984 655.731999,359.208 655.915999,359.4 C656.099999,359.592 656.327999,359.688 656.599999,359.688 Z M657.391999,375 L657.391999,363 L655.807999,363 L655.807999,375 L657.391999,375 Z M663.314666,375 L663.314666,367.968 C663.314666,366.928 663.658666,366.052 664.346666,365.34 C665.034666,364.628 665.882666,364.272 666.890666,364.272 C667.578666,364.272 668.258666,364.52 668.930666,365.016 L668.930666,365.016 L669.482666,363.432 C668.778666,363.016 668.002666,362.808 667.154666,362.808 C665.570666,362.808 664.290666,363.464 663.314666,364.776 L663.314666,364.776 L663.314666,363 L661.730666,363 L661.730666,375 L663.314666,375 Z M676.797333,375.192 C677.885333,375.192 678.897333,374.924 679.833333,374.388 C680.769333,373.852 681.509333,373.136 682.053333,372.24 L682.053333,372.24 L680.613333,371.544 C680.181333,372.2 679.629333,372.72 678.957333,373.104 C678.285333,373.488 677.565333,373.68 676.797333,373.68 C675.501333,373.68 674.409333,373.228 673.521333,372.324 C672.633333,371.42 672.189333,370.312 672.189333,369 C672.189333,367.688 672.633333,366.58 673.521333,365.676 C674.409333,364.772 675.501333,364.32 676.797333,364.32 C677.565333,364.32 678.285333,364.512 678.957333,364.896 C679.629333,365.28 680.181333,365.8 680.613333,366.456 L680.613333,366.456 L682.053333,365.76 C681.509333,364.864 680.769333,364.148 679.833333,363.612 C678.897333,363.076 677.885333,362.808 676.797333,362.808 C675.085333,362.808 673.625333,363.412 672.417333,364.62 C671.209333,365.828 670.605333,367.288 670.605333,369 C670.605333,370.712 671.209333,372.172 672.417333,373.38 C673.625333,374.588 675.085333,375.192 676.797333,375.192 Z M690.255999,375.192 C691.839999,375.192 693.119999,374.536 694.095999,373.224 L694.095999,373.224 L694.095999,375 L695.679999,375 L695.679999,363 L694.095999,363 L694.095999,370.032 C694.095999,371.056 693.751999,371.924 693.063999,372.636 C692.375999,373.348 691.527999,373.704 690.519999,373.704 C689.527999,373.704 688.687999,373.348 687.999999,372.636 C687.311999,371.924 686.967999,371.056 686.967999,370.032 L686.967999,370.032 L686.967999,363 L685.335999,363 L685.335999,370.08 C685.335999,371.52 685.807999,372.732 686.751999,373.716 C687.695999,374.7 688.863999,375.192 690.255999,375.192 Z M700.810666,359.688 C701.082666,359.688 701.306666,359.592 701.482666,359.4 C701.674666,359.208 701.770666,358.984 701.770666,358.728 C701.770666,358.472 701.678666,358.248 701.494666,358.056 C701.310666,357.864 701.082666,357.768 700.810666,357.768 C700.538666,357.768 700.310666,357.864 700.126666,358.056 C699.942666,358.248 699.850666,358.472 699.850666,358.728 C699.850666,358.984 699.942666,359.208 700.126666,359.4 C700.310666,359.592 700.538666,359.688 700.810666,359.688 Z M701.602666,375 L701.602666,363 L700.018666,363 L700.018666,375 L701.602666,375 Z M709.685333,375.192 C710.277333,375.192 710.853333,375.036 711.413333,374.724 C711.973333,374.412 712.333333,374.168 712.493333,373.992 C712.653333,373.816 712.781333,373.664 712.877333,373.536 L712.877333,373.536 L712.085333,372.312 C712.085333,372.376 712.001333,372.516 711.833333,372.732 C711.665333,372.948 711.405333,373.168 711.053333,373.392 C710.701333,373.616 710.341333,373.728 709.973333,373.728 C709.381333,373.728 708.857333,373.512 708.401333,373.08 C707.945333,372.648 707.717333,372.064 707.717333,371.328 L707.717333,371.328 L707.717333,364.44 L711.341333,364.44 L711.341333,362.976 L707.717333,362.976 L707.717333,358.992 L706.133333,359.184 L706.133333,362.976 L704.213333,362.976 L704.213333,364.44 L706.133333,364.44 L706.133333,371.688 C706.133333,372.824 706.473333,373.692 707.153333,374.292 C707.833333,374.892 708.677333,375.192 709.685333,375.192 Z M728.178666,375.192 C729.762666,375.192 730.994666,374.792 731.874666,373.992 C732.754666,373.192 733.194666,372.208 733.194666,371.04 C733.194666,370.128 732.894666,369.336 732.294666,368.664 C731.694666,367.992 730.962666,367.464 730.098666,367.08 C729.234666,366.696 728.374666,366.328 727.518666,365.976 C726.662666,365.624 725.934666,365.188 725.334666,364.668 C724.734666,364.148 724.434666,363.544 724.434666,362.856 C724.434666,362.04 724.742666,361.396 725.358666,360.924 C725.974666,360.452 726.818666,360.216 727.890666,360.216 C728.754666,360.216 729.578666,360.44 730.362666,360.888 C731.146666,361.336 731.746666,361.784 732.162666,362.232 L732.162666,362.232 L733.266666,361.152 C732.754666,360.608 731.998666,360.064 730.998666,359.52 C729.998666,358.976 728.962666,358.704 727.890666,358.704 C726.306666,358.704 725.074666,359.104 724.194666,359.904 C723.314666,360.704 722.874666,361.688 722.874666,362.856 C722.874666,363.768 723.174666,364.56 723.774666,365.232 C724.374666,365.904 725.106666,366.436 725.970666,366.828 C726.834666,367.22 727.694666,367.592 728.550666,367.944 C729.406666,368.296 730.134666,368.728 730.734666,369.24 C731.334666,369.752 731.634666,370.352 731.634666,371.04 C731.634666,371.856 731.326666,372.5 730.710666,372.972 C730.094666,373.444 729.250666,373.68 728.178666,373.68 C727.298666,373.68 726.466666,373.452 725.682666,372.996 C724.898666,372.54 724.306666,372.096 723.906666,371.664 L723.906666,371.664 L722.802666,372.744 C723.314666,373.288 724.070666,373.832 725.070666,374.376 C726.070666,374.92 727.106666,375.192 728.178666,375.192 Z M737.845333,359.688 C738.117333,359.688 738.341333,359.592 738.517333,359.4 C738.709333,359.208 738.805333,358.984 738.805333,358.728 C738.805333,358.472 738.713333,358.248 738.529333,358.056 C738.345333,357.864 738.117333,357.768 737.845333,357.768 C737.573333,357.768 737.345333,357.864 737.161333,358.056 C736.977333,358.248 736.885333,358.472 736.885333,358.728 C736.885333,358.984 736.977333,359.208 737.161333,359.4 C737.345333,359.592 737.573333,359.688 737.845333,359.688 Z M738.637333,375 L738.637333,363 L737.053333,363 L737.053333,375 L738.637333,375 Z M744.56,375 L744.56,367.968 C744.56,366.944 744.908,366.072 745.604,365.352 C746.3,364.632 747.144,364.272 748.136,364.272 C749.128,364.272 749.972,364.632 750.668,365.352 C751.364,366.072 751.712,366.944 751.712,367.968 L751.712,367.968 L751.712,375 L753.32,375 L753.32,367.968 C753.32,366.928 753.664,366.052 754.352,365.34 C755.04,364.628 755.888,364.272 756.896,364.272 C757.904,364.272 758.748,364.628 759.428,365.34 C760.108,366.052 760.448,366.928 760.448,367.968 L760.448,367.968 L760.448,375 L762.08,375 L762.08,367.92 C762.08,366.48 761.608,365.268 760.664,364.284 C759.72,363.3 758.552,362.808 757.16,362.808 C756.168,362.808 755.28,363.04 754.496,363.504 C753.712,363.968 753.112,364.592 752.696,365.376 C752.264,364.592 751.668,363.968 750.908,363.504 C750.148,363.04 749.312,362.808 748.4,362.808 C746.816,362.808 745.536,363.464 744.56,364.776 L744.56,364.776 L744.56,363 L742.976,363 L742.976,375 L744.56,375 Z M767.642666,380.832 L767.642666,372.984 C768.858666,374.44 770.426666,375.168 772.346666,375.168 C774.058666,375.168 775.518666,374.564 776.726666,373.356 C777.934666,372.148 778.538666,370.688 778.538666,368.976 C778.538666,367.264 777.934666,365.804 776.726666,364.596 C775.518666,363.388 774.058666,362.784 772.346666,362.784 C770.442666,362.784 768.874666,363.504 767.642666,364.944 L767.642666,364.944 L767.642666,362.976 L766.058666,362.976 L766.058666,380.832 L767.642666,380.832 Z M772.298666,373.656 C771.018666,373.656 769.930666,373.208 769.034666,372.312 C768.138666,371.4 767.690666,370.288 767.690666,368.976 C767.690666,367.664 768.138666,366.552 769.034666,365.64 C769.930666,364.728 771.018666,364.272 772.298666,364.272 C773.578666,364.272 774.670666,364.728 775.574666,365.64 C776.478666,366.552 776.930666,367.664 776.930666,368.976 C776.930666,370.288 776.478666,371.396 775.574666,372.3 C774.670666,373.204 773.578666,373.656 772.298666,373.656 Z M783.405333,375 L783.405333,357.144 L781.821333,357.144 L781.821333,375 L783.405333,375 Z M788.536,359.688 C788.808,359.688 789.032,359.592 789.208,359.4 C789.4,359.208 789.496,358.984 789.496,358.728 C789.496,358.472 789.404,358.248 789.22,358.056 C789.036,357.864 788.808,357.768 788.536,357.768 C788.264,357.768 788.036,357.864 787.852,358.056 C787.668,358.248 787.576,358.472 787.576,358.728 C787.576,358.984 787.668,359.208 787.852,359.4 C788.036,359.592 788.264,359.688 788.536,359.688 Z M789.328,375 L789.328,363 L787.744,363 L787.744,375 L789.328,375 Z M795.778666,375 L795.778666,364.272 L798.130666,364.272 L798.130666,362.952 L795.778666,362.952 L795.778666,360.048 C795.778666,359.392 795.834666,358.948 795.946666,358.716 C796.058666,358.484 796.290666,358.368 796.642666,358.368 C796.962666,358.368 797.282666,358.408 797.602666,358.488 L797.602666,358.488 L797.938666,357.264 L797.722666,357.192 C797.578666,357.144 797.358666,357.096 797.062666,357.048 C796.766666,357 796.474666,356.976 796.186666,356.976 C794.874666,356.976 794.218666,357.808 794.218666,359.472 L794.218666,359.472 L794.218666,362.952 L792.802666,362.952 L792.802666,364.272 L794.218666,364.272 L794.218666,375 L795.778666,375 Z M802.157333,359.688 C802.429333,359.688 802.653333,359.592 802.829333,359.4 C803.021333,359.208 803.117333,358.984 803.117333,358.728 C803.117333,358.472 803.025333,358.248 802.841333,358.056 C802.657333,357.864 802.429333,357.768 802.157333,357.768 C801.885333,357.768 801.657333,357.864 801.473333,358.056 C801.289333,358.248 801.197333,358.472 801.197333,358.728 C801.197333,358.984 801.289333,359.208 801.473333,359.4 C801.657333,359.592 801.885333,359.688 802.157333,359.688 Z M802.949333,375 L802.949333,363 L801.365333,363 L801.365333,375 L802.949333,375 Z M812.616,375.192 C813.704,375.192 814.716,374.924 815.652,374.388 C816.588,373.852 817.328,373.136 817.872,372.24 L817.872,372.24 L816.432,371.544 C816,372.2 815.448,372.72 814.776,373.104 C814.104,373.488 813.384,373.68 812.616,373.68 C811.32,373.68 810.228,373.228 809.34,372.324 C808.452,371.42 808.008,370.312 808.008,369 C808.008,367.688 808.452,366.58 809.34,365.676 C810.228,364.772 811.32,364.32 812.616,364.32 C813.384,364.32 814.104,364.512 814.776,364.896 C815.448,365.28 816,365.8 816.432,366.456 L816.432,366.456 L817.872,365.76 C817.328,364.864 816.588,364.148 815.652,363.612 C814.716,363.076 813.704,362.808 812.616,362.808 C810.904,362.808 809.444,363.412 808.236,364.62 C807.028,365.828 806.424,367.288 806.424,369 C806.424,370.712 807.028,372.172 808.236,373.38 C809.444,374.588 810.904,375.192 812.616,375.192 Z M826.434666,375.192 C828.322666,375.192 829.882666,374.48 831.114666,373.056 L831.114666,373.056 L831.114666,375 L832.698666,375 L832.698666,363 L831.114666,363 L831.114666,364.944 C829.898666,363.52 828.338666,362.808 826.434666,362.808 C824.722666,362.808 823.262666,363.412 822.054666,364.62 C820.846666,365.828 820.242666,367.288 820.242666,369 C820.242666,370.712 820.846666,372.172 822.054666,373.38 C823.262666,374.588 824.722666,375.192 826.434666,375.192 Z M826.458666,373.68 C825.178666,373.68 824.086666,373.228 823.182666,372.324 C822.278666,371.42 821.826666,370.312 821.826666,369 C821.826666,367.688 822.278666,366.58 823.182666,365.676 C824.086666,364.772 825.178666,364.32 826.458666,364.32 C827.754666,364.32 828.846666,364.772 829.734666,365.676 C830.622666,366.58 831.066666,367.688 831.066666,369 C831.066666,370.312 830.622666,371.42 829.734666,372.324 C828.846666,373.228 827.754666,373.68 826.458666,373.68 Z M840.781333,375.192 C841.373333,375.192 841.949333,375.036 842.509333,374.724 C843.069333,374.412 843.429333,374.168 843.589333,373.992 C843.749333,373.816 843.877333,373.664 843.973333,373.536 L843.973333,373.536 L843.181333,372.312 C843.181333,372.376 843.097333,372.516 842.929333,372.732 C842.761333,372.948 842.501333,373.168 842.149333,373.392 C841.797333,373.616 841.437333,373.728 841.069333,373.728 C840.477333,373.728 839.953333,373.512 839.497333,373.08 C839.041333,372.648 838.813333,372.064 838.813333,371.328 L838.813333,371.328 L838.813333,364.44 L842.437333,364.44 L842.437333,362.976 L838.813333,362.976 L838.813333,358.992 L837.229333,359.184 L837.229333,362.976 L835.309333,362.976 L835.309333,364.44 L837.229333,364.44 L837.229333,371.688 C837.229333,372.824 837.569333,373.692 838.249333,374.292 C838.929333,374.892 839.773333,375.192 840.781333,375.192 Z M847.736,359.688 C848.008,359.688 848.232,359.592 848.408,359.4 C848.6,359.208 848.696,358.984 848.696,358.728 C848.696,358.472 848.604,358.248 848.42,358.056 C848.236,357.864 848.008,357.768 847.736,357.768 C847.464,357.768 847.236,357.864 847.052,358.056 C846.868,358.248 846.776,358.472 846.776,358.728 C846.776,358.984 846.868,359.208 847.052,359.4 C847.236,359.592 847.464,359.688 847.736,359.688 Z M848.528,375 L848.528,363 L846.944,363 L846.944,375 L848.528,375 Z M858.194667,375.192 C859.906667,375.192 861.362667,374.584 862.562667,373.368 C863.778667,372.152 864.386667,370.696 864.386667,369 C864.386667,367.288 863.782667,365.828 862.574667,364.62 C861.366667,363.412 859.906667,362.808 858.194667,362.808 C856.482667,362.808 855.022667,363.412 853.814667,364.62 C852.606667,365.828 852.002667,367.288 852.002667,369 C852.002667,370.712 852.606667,372.172 853.814667,373.38 C855.022667,374.588 856.482667,375.192 858.194667,375.192 Z M858.218667,373.68 C856.938667,373.68 855.850667,373.228 854.954667,372.324 C854.058667,371.42 853.610667,370.312 853.610667,369 C853.610667,367.688 854.058667,366.576 854.954667,365.664 C855.850667,364.752 856.938667,364.296 858.218667,364.296 C859.514667,364.296 860.606667,364.752 861.494667,365.664 C862.382667,366.576 862.826667,367.688 862.826667,369 C862.826667,370.312 862.382667,371.42 861.494667,372.324 C860.606667,373.228 859.514667,373.68 858.218667,373.68 Z M869.013333,375 L869.013333,367.968 C869.013333,366.944 869.361333,366.072 870.057333,365.352 C870.753333,364.632 871.597333,364.272 872.589333,364.272 C873.581333,364.272 874.425333,364.632 875.121333,365.352 C875.817333,366.072 876.165333,366.944 876.165333,367.968 L876.165333,367.968 L876.165333,375 L877.773333,375 L877.773333,367.92 C877.773333,366.48 877.301333,365.268 876.357333,364.284 C875.413333,363.3 874.245333,362.808 872.853333,362.808 C871.269333,362.808 869.989333,363.464 869.013333,364.776 L869.013333,364.776 L869.013333,363 L867.429333,363 L867.429333,375 L869.013333,375 Z" id="CircuitSimplification" fill="#23ABE3" fill-rule="nonzero"></path>
        </g>
        <g transform="translate(140.000000, 24.000000)">
            <path id="Line-11-Copy-5" d="M162.5,118 L172,137 L164,137 L164,148.5 L161,148.5 L161,137 L153,137 L162.5,118 Z" fill="#B09679" fill-rule="nonzero"></path>
            <g id="VS" transform="translate(164.000000, 186.000000)" fill="#524740" fill-rule="nonzero">
                <path d="M8.576,17.408 L13.856,5.192 C14.256,4.264 14.596,3.684 14.876,3.452 C15.156,3.22 15.768,3.104 16.712,3.104 L16.712,3.104 L16.712,2.6 L11.12,2.6 L11.12,3.104 C12.112,3.104 12.748,3.244 13.028,3.524 C13.308,3.804 13.296,4.272 12.992,4.928 L12.992,4.928 L8.96,14.264 L4.88,4.928 C4.576,4.272 4.564,3.804 4.844,3.524 C5.124,3.244 5.76,3.104 6.752,3.104 L6.752,3.104 L6.752,2.6 L0.104,2.6 L0.104,3.104 C1.048,3.104 1.66,3.22 1.94,3.452 C2.22,3.684 2.56,4.264 2.96,5.192 L2.96,5.192 L8.264,17.408 L8.576,17.408 Z M17.48,17.408 C17.48,17.088 17.512,16.872 17.576,16.76 C17.64,16.648 17.752,16.62 17.912,16.676 C18.072,16.732 18.244,16.812 18.428,16.916 C18.612,17.02 18.856,17.128 19.16,17.24 C19.464,17.352 19.76,17.408 20.048,17.408 C20.848,17.408 21.524,17.164 22.076,16.676 C22.628,16.188 22.904,15.56 22.904,14.792 C22.904,13.88 22.352,13.112 21.248,12.488 L21.248,12.488 L20.096,11.864 C19.536,11.56 19.152,11.308 18.944,11.108 C18.736,10.908 18.632,10.672 18.632,10.4 C18.632,10.096 18.736,9.848 18.944,9.656 C19.152,9.464 19.456,9.368 19.856,9.368 C20.432,9.368 20.9,9.572 21.26,9.98 C21.62,10.388 21.8,10.856 21.8,11.384 L21.8,11.384 L22.304,11.384 L22.304,8.6 L21.8,8.6 C21.8,8.92 21.764,9.1 21.692,9.14 C21.62,9.18 21.488,9.144 21.296,9.032 C20.72,8.744 20.16,8.6 19.616,8.6 C18.976,8.6 18.412,8.808 17.924,9.224 C17.436,9.64 17.192,10.16 17.192,10.784 C17.192,11.808 17.72,12.608 18.776,13.184 L18.776,13.184 L20.12,13.904 C21.016,14.384 21.464,14.872 21.464,15.368 C21.464,15.704 21.332,15.992 21.068,16.232 C20.804,16.472 20.48,16.592 20.096,16.592 C19.312,16.592 18.68,16.3 18.2,15.716 C17.72,15.132 17.48,14.528 17.48,13.904 L17.48,13.904 L16.976,13.904 L16.976,17.408 L17.48,17.408 Z" id="Vs"></path>
            </g>
            <path d="M344.5888,-40.676 C342.216855,-40.676 340.034193,-40.0866726 338.04075,-38.908 C336.047307,-37.7293274 334.306224,-36.0480109 332.81745,-33.864 C331.328676,-31.6799891 330.167954,-29.0626819 329.33525,-26.012 C328.502546,-22.9613181 328.0862,-19.5293524 328.0862,-15.716 C328.0862,-11.7639802 328.351147,-7.86401924 328.88105,-4.016 C329.410953,-0.16798076 330.00393,3.67998076 330.66,7.528 C331.31607,11.3760192 331.909047,15.2239808 332.43895,19.072 C332.968853,22.9200192 333.2338,26.7853139 333.2338,30.668 C333.2338,33.3026798 332.893153,35.6426564 332.21185,37.688 C331.530547,39.7333436 330.647389,41.4839927 329.56235,42.94 C328.477311,44.3960073 327.27874,45.557329 325.9666,46.424 C324.65446,47.290671 323.367573,47.8626653 322.1059,48.14 C323.367573,48.4173347 324.65446,48.989329 325.9666,49.856 C327.27874,50.722671 328.477311,51.8839927 329.56235,53.34 C330.647389,54.7960073 331.530547,56.5466564 332.21185,58.592 C332.893153,60.6373436 333.2338,62.9773202 333.2338,65.612 C333.2338,69.4946861 332.968853,73.3599808 332.43895,77.208 C331.909047,81.0560192 331.31607,84.9039808 330.66,88.752 C330.00393,92.6000192 329.410953,96.4479808 328.88105,100.296 C328.351147,104.144019 328.0862,108.04398 328.0862,111.996 C328.0862,115.809352 328.502546,119.241318 329.33525,122.292 C330.167954,125.342682 331.328676,127.959989 332.81745,130.144 C334.306224,132.328011 336.047307,134.009327 338.04075,135.188 C340.034193,136.366673 342.216855,136.956 344.5888,136.956 L347.9196,136.956 C348.525203,136.956 348.828,137.302663 348.828,137.996 L348.828,138.828 L344.5888,138.828 C341.914053,138.828 339.453828,138.134674 337.20805,136.748 C334.962272,135.361326 333.044558,133.454679 331.45485,131.028 C329.865142,128.601321 328.628721,125.758683 327.74555,122.5 C326.862379,119.241317 326.4208,115.740019 326.4208,111.996 C326.4208,107.905313 326.685747,103.936019 327.21565,100.088 C327.745553,96.2399808 328.33853,92.4440187 328.9946,88.7 C329.65067,84.9559813 330.243647,81.1946856 330.77355,77.416 C331.303453,73.6373144 331.5684,69.7026871 331.5684,65.612 C331.5684,63.2546549 331.24037,61.0706767 330.5843,59.06 C329.92823,57.0493233 329.019839,55.3160073 327.8591,53.86 C326.698361,52.4039927 325.323158,51.2600042 323.73345,50.428 C322.143742,49.5959958 320.415276,49.18 318.548,49.18 L318.548,47.1 C320.415276,47.1 322.143742,46.7013373 323.73345,45.904 C325.323158,45.1066627 326.698361,43.9800073 327.8591,42.524 C329.019839,41.0679927 329.92823,39.3346767 330.5843,37.324 C331.24037,35.3133233 331.5684,33.0946788 331.5684,30.668 C331.5684,26.6466466 331.303453,22.7293524 330.77355,18.916 C330.243647,15.1026476 329.65067,11.3240187 328.9946,7.58 C328.33853,3.83598128 327.745553,0.04001924 327.21565,-3.808 C326.685747,-7.65601924 326.4208,-11.6253129 326.4208,-15.716 C326.4208,-19.4600187 326.862379,-22.961317 327.74555,-26.22 C328.628721,-29.478683 329.865142,-32.3213212 331.45485,-34.748 C333.044558,-37.1746788 334.962272,-39.0813264 337.20805,-40.468 C339.453828,-41.8546736 341.914053,-42.548 344.5888,-42.548 L348.828,-42.548 L348.828,-41.716 C348.828,-41.0226632 348.525203,-40.676 347.9196,-40.676 L344.5888,-40.676 Z" id="{" fill="#23ABE3" transform="translate(333.688000, 48.140000) rotate(-270.000000) translate(-333.688000, -48.140000) "></path>
            <g id="R1" transform="translate(241.000000, 62.000000)">
                <polyline id="Resistor" stroke="#524740" stroke-width="2" stroke-linejoin="bevel" points="0 42 5 42 10 29 20 55 30 29 40 55 50 29 60 55 65 42 70 42"></polyline>
                <g transform="translate(23.000000, 0.000000)" fill="#524740" fill-rule="nonzero">
                    <path d="M7.596,17 L7.596,16.496 C6.604,16.496 5.976,16.328 5.712,15.992 C5.448,15.656 5.316,14.888 5.316,13.688 L5.316,13.688 L5.316,10.688 L6.444,10.688 L11.196,17 L15.156,17 L15.156,16.496 C13.748,16.336 12.26,15.32 10.692,13.448 L10.692,13.448 L8.34,10.688 C9.668,10.544 10.712,10.104 11.472,9.368 C12.232,8.632 12.612,7.728 12.612,6.656 C12.612,5.488 12.156,4.52 11.244,3.752 C10.332,2.984 9.068,2.6 7.452,2.6 L7.452,2.6 L1.116,2.6 L1.116,3.104 C2.108,3.104 2.736,3.268 3,3.596 C3.264,3.924 3.396,4.688 3.396,5.888 L3.396,5.888 L3.396,13.688 C3.396,14.888 3.264,15.656 3,15.992 C2.736,16.328 2.108,16.496 1.116,16.496 L1.116,16.496 L1.116,17 L7.596,17 Z M7.428,9.824 L5.316,9.824 L5.316,3.488 L7.428,3.488 C8.42,3.488 9.176,3.784 9.696,4.376 C10.216,4.968 10.476,5.728 10.476,6.656 C10.476,7.584 10.216,8.344 9.696,8.936 C9.176,9.528 8.42,9.824 7.428,9.824 L7.428,9.824 Z M22.596,17 L22.596,16.496 C21.588,16.496 20.952,16.332 20.688,16.004 C20.424,15.676 20.292,14.904 20.292,13.688 L20.292,13.688 L20.292,9.896 C20.292,8.68 20.424,7.908 20.688,7.58 C20.952,7.252 21.588,7.088 22.596,7.088 L22.596,7.088 L22.596,6.608 L16.284,6.608 L16.284,7.088 C17.276,7.088 17.908,7.256 18.18,7.592 C18.452,7.928 18.588,8.696 18.588,9.896 L18.588,9.896 L18.588,13.688 C18.588,14.888 18.452,15.656 18.18,15.992 C17.908,16.328 17.276,16.496 16.284,16.496 L16.284,16.496 L16.284,17 L22.596,17 Z"></path>
                </g>
            </g>
            <g id="R1-Copy" transform="translate(235.000000, 0.000000)">
                <g id="V1" fill="#1A80AA" fill-rule="nonzero">
                    <path d="M181.336,222.408 L186.616,210.192 C187.016,209.264 187.356,208.684 187.636,208.452 C187.916,208.22 188.528,208.104 189.472,208.104 L189.472,208.104 L189.472,207.6 L183.88,207.6 L183.88,208.104 C184.872,208.104 185.508,208.244 185.788,208.524 C186.068,208.804 186.056,209.272 185.752,209.928 L185.752,209.928 L181.72,219.264 L177.64,209.928 C177.336,209.272 177.324,208.804 177.604,208.524 C177.884,208.244 178.52,208.104 179.512,208.104 L179.512,208.104 L179.512,207.6 L172.864,207.6 L172.864,208.104 C173.808,208.104 174.42,208.22 174.7,208.452 C174.98,208.684 175.32,209.264 175.72,210.192 L175.72,210.192 L181.024,222.408 L181.336,222.408 Z M203.176,215.808 L203.176,214.728 L196.168,214.728 L196.168,215.808 L203.176,215.808 Z M203.176,218.808 L203.176,217.728 L196.168,217.728 L196.168,218.808 L203.176,218.808 Z M218.32,222.408 L223.6,210.192 C224,209.264 224.34,208.684 224.62,208.452 C224.9,208.22 225.512,208.104 226.456,208.104 L226.456,208.104 L226.456,207.6 L220.864,207.6 L220.864,208.104 C221.856,208.104 222.492,208.244 222.772,208.524 C223.052,208.804 223.04,209.272 222.736,209.928 L222.736,209.928 L218.704,219.264 L214.624,209.928 C214.32,209.272 214.308,208.804 214.588,208.524 C214.868,208.244 215.504,208.104 216.496,208.104 L216.496,208.104 L216.496,207.6 L209.848,207.6 L209.848,208.104 C210.792,208.104 211.404,208.22 211.684,208.452 C211.964,208.684 212.304,209.264 212.704,210.192 L212.704,210.192 L218.008,222.408 L218.32,222.408 Z M227.224,222.408 C227.224,222.088 227.256,221.872 227.32,221.76 C227.384,221.648 227.496,221.62 227.656,221.676 C227.816,221.732 227.988,221.812 228.172,221.916 C228.356,222.02 228.6,222.128 228.904,222.24 C229.208,222.352 229.504,222.408 229.792,222.408 C230.592,222.408 231.268,222.164 231.82,221.676 C232.372,221.188 232.648,220.56 232.648,219.792 C232.648,218.88 232.096,218.112 230.992,217.488 L230.992,217.488 L229.84,216.864 C229.28,216.56 228.896,216.308 228.688,216.108 C228.48,215.908 228.376,215.672 228.376,215.4 C228.376,215.096 228.48,214.848 228.688,214.656 C228.896,214.464 229.2,214.368 229.6,214.368 C230.176,214.368 230.644,214.572 231.004,214.98 C231.364,215.388 231.544,215.856 231.544,216.384 L231.544,216.384 L232.048,216.384 L232.048,213.6 L231.544,213.6 C231.544,213.92 231.508,214.1 231.436,214.14 C231.364,214.18 231.232,214.144 231.04,214.032 C230.464,213.744 229.904,213.6 229.36,213.6 C228.72,213.6 228.156,213.808 227.668,214.224 C227.18,214.64 226.936,215.16 226.936,215.784 C226.936,216.808 227.464,217.608 228.52,218.184 L228.52,218.184 L229.864,218.904 C230.76,219.384 231.208,219.872 231.208,220.368 C231.208,220.704 231.076,220.992 230.812,221.232 C230.548,221.472 230.224,221.592 229.84,221.592 C229.056,221.592 228.424,221.3 227.944,220.716 C227.464,220.132 227.224,219.528 227.224,218.904 L227.224,218.904 L226.72,218.904 L226.72,222.408 L227.224,222.408 Z M248.32,217.608 L248.32,216.552 L241.312,216.552 L241.312,217.608 L248.32,217.608 Z M263.464,222.408 L268.744,210.192 C269.144,209.264 269.484,208.684 269.764,208.452 C270.044,208.22 270.656,208.104 271.6,208.104 L271.6,208.104 L271.6,207.6 L266.008,207.6 L266.008,208.104 C267,208.104 267.636,208.244 267.916,208.524 C268.196,208.804 268.184,209.272 267.88,209.928 L267.88,209.928 L263.848,219.264 L259.768,209.928 C259.464,209.272 259.452,208.804 259.732,208.524 C260.012,208.244 260.648,208.104 261.64,208.104 L261.64,208.104 L261.64,207.6 L254.992,207.6 L254.992,208.104 C255.936,208.104 256.548,208.22 256.828,208.452 C257.108,208.684 257.448,209.264 257.848,210.192 L257.848,210.192 L263.152,222.408 L263.464,222.408 Z M277.12,222 L277.12,221.496 C276.32,221.496 275.804,221.328 275.572,220.992 C275.34,220.656 275.224,219.888 275.224,218.688 L275.224,218.688 L275.224,214.848 L277.624,214.848 L277.624,214.008 L275.224,214.008 L275.224,211.704 C275.224,210.36 275.368,209.404 275.656,208.836 C275.944,208.268 276.4,207.984 277.024,207.984 C277.36,207.984 277.624,208.08 277.816,208.272 C278.008,208.464 278.128,208.676 278.176,208.908 C278.224,209.14 278.32,209.352 278.464,209.544 C278.608,209.736 278.808,209.832 279.064,209.832 C279.32,209.832 279.516,209.752 279.652,209.592 C279.788,209.432 279.856,209.224 279.856,208.968 C279.856,208.536 279.64,208.132 279.208,207.756 C278.776,207.38 278.192,207.192 277.456,207.192 C276.352,207.192 275.42,207.564 274.66,208.308 C273.9,209.052 273.52,210.184 273.52,211.704 L273.52,211.704 L273.52,214.008 L271.552,214.008 L271.552,214.848 L273.52,214.848 L273.52,218.688 C273.52,219.888 273.404,220.656 273.172,220.992 C272.94,221.328 272.424,221.496 271.624,221.496 L271.624,221.496 L271.624,222 L277.12,222 Z" id="V=Vs-Vf"></path>
                    <path d="M38.852,153.408 L44.132,141.192 C44.532,140.264 44.872,139.684 45.152,139.452 C45.432,139.22 46.044,139.104 46.988,139.104 L46.988,139.104 L46.988,138.6 L41.396,138.6 L41.396,139.104 C42.388,139.104 43.024,139.244 43.304,139.524 C43.584,139.804 43.572,140.272 43.268,140.928 L43.268,140.928 L39.236,150.264 L35.156,140.928 C34.852,140.272 34.84,139.804 35.12,139.524 C35.4,139.244 36.036,139.104 37.028,139.104 L37.028,139.104 L37.028,138.6 L30.38,138.6 L30.38,139.104 C31.324,139.104 31.936,139.22 32.216,139.452 C32.496,139.684 32.836,140.264 33.236,141.192 L33.236,141.192 L38.54,153.408 L38.852,153.408 Z M52.508,153 L52.508,152.496 C51.708,152.496 51.192,152.328 50.96,151.992 C50.728,151.656 50.612,150.888 50.612,149.688 L50.612,149.688 L50.612,145.848 L53.012,145.848 L53.012,145.008 L50.612,145.008 L50.612,142.704 C50.612,141.36 50.756,140.404 51.044,139.836 C51.332,139.268 51.788,138.984 52.412,138.984 C52.748,138.984 53.012,139.08 53.204,139.272 C53.396,139.464 53.516,139.676 53.564,139.908 C53.612,140.14 53.708,140.352 53.852,140.544 C53.996,140.736 54.196,140.832 54.452,140.832 C54.708,140.832 54.904,140.752 55.04,140.592 C55.176,140.432 55.244,140.224 55.244,139.968 C55.244,139.536 55.028,139.132 54.596,138.756 C54.164,138.38 53.58,138.192 52.844,138.192 C51.74,138.192 50.808,138.564 50.048,139.308 C49.288,140.052 48.908,141.184 48.908,142.704 L48.908,142.704 L48.908,145.008 L46.94,145.008 L46.94,145.848 L48.908,145.848 L48.908,149.688 C48.908,150.888 48.792,151.656 48.56,151.992 C48.328,152.328 47.812,152.496 47.012,152.496 L47.012,152.496 L47.012,153 L52.508,153 Z M68.204,146.808 L68.204,145.728 L61.196,145.728 L61.196,146.808 L68.204,146.808 Z M68.204,149.808 L68.204,148.728 L61.196,148.728 L61.196,149.808 L68.204,149.808 Z M83.18,153 L83.18,152.496 C82.188,152.496 81.56,152.328 81.296,151.992 C81.032,151.656 80.9,150.888 80.9,149.688 L80.9,149.688 L80.9,141.888 C80.9,140.688 81.032,139.924 81.296,139.596 C81.56,139.268 82.188,139.104 83.18,139.104 L83.18,139.104 L83.18,138.6 L76.7,138.6 L76.7,139.104 C77.692,139.104 78.32,139.268 78.584,139.596 C78.848,139.924 78.98,140.688 78.98,141.888 L78.98,141.888 L78.98,149.688 C78.98,150.888 78.848,151.656 78.584,151.992 C78.32,152.328 77.692,152.496 76.7,152.496 L76.7,152.496 L76.7,153 L83.18,153 Z M93.428,153 L93.428,152.496 C92.164,152.496 91.996,152.032 92.924,151.104 L92.924,151.104 L94.124,149.832 L95.036,151.104 C95.388,151.568 95.512,151.916 95.408,152.148 C95.304,152.38 94.94,152.496 94.316,152.496 L94.316,152.496 L94.316,153 L99.356,153 L99.356,152.496 C98.86,152.496 98.448,152.396 98.12,152.196 C97.792,151.996 97.444,151.632 97.076,151.104 L97.076,151.104 L95.276,148.608 L96.908,146.904 C97.804,145.96 98.572,145.488 99.212,145.488 L99.212,145.488 L99.212,145.008 L95.3,145.008 L95.3,145.488 C95.812,145.488 96.132,145.604 96.26,145.836 C96.388,146.068 96.236,146.424 95.804,146.904 L95.804,146.904 L94.796,147.96 L94.028,146.904 C93.612,146.36 93.452,145.988 93.548,145.788 C93.644,145.588 94.036,145.488 94.724,145.488 L94.724,145.488 L94.724,145.008 L89.876,145.008 L89.876,145.488 C90.276,145.488 90.62,145.584 90.908,145.776 C91.196,145.968 91.556,146.344 91.988,146.904 L91.988,146.904 L93.644,149.184 L91.82,151.104 C90.892,152.032 90.196,152.496 89.732,152.496 L89.732,152.496 L89.732,153 L93.428,153 Z M106.916,153.408 C107.012,152.96 107.244,152.584 107.612,152.28 C107.772,152.312 108.052,152.428 108.452,152.628 C108.852,152.828 109.3,153.008 109.796,153.168 C110.292,153.328 110.812,153.408 111.356,153.408 C112.636,153.408 113.72,153.008 114.608,152.208 C115.496,151.408 115.94,150.368 115.94,149.088 C115.94,147.504 115.1,146.288 113.42,145.44 L113.42,145.44 L111.14,144.264 C110.036,143.688 109.272,143.196 108.848,142.788 C108.424,142.38 108.212,141.88 108.212,141.288 C108.212,140.68 108.432,140.172 108.872,139.764 C109.312,139.356 109.868,139.152 110.54,139.152 C112.748,139.152 113.972,140.552 114.212,143.352 L114.212,143.352 L114.716,143.352 L114.716,138.072 L114.236,138.072 C114.14,138.504 113.908,138.872 113.54,139.176 C112.644,138.52 111.668,138.192 110.612,138.192 C109.46,138.192 108.508,138.536 107.756,139.224 C107.004,139.912 106.628,140.76 106.628,141.768 C106.628,142.632 106.884,143.408 107.396,144.096 C107.908,144.784 108.54,145.328 109.292,145.728 L109.292,145.728 L111.596,146.904 C113.436,147.864 114.356,148.832 114.356,149.808 C114.356,150.576 114.072,151.208 113.504,151.704 C112.936,152.2 112.22,152.448 111.356,152.448 C110.764,152.448 110.224,152.368 109.736,152.208 C109.248,152.048 108.856,151.848 108.56,151.608 C108.264,151.368 108.004,151.08 107.78,150.744 C107.556,150.408 107.392,150.104 107.288,149.832 C107.184,149.56 107.104,149.276 107.048,148.98 C106.992,148.684 106.96,148.484 106.952,148.38 C106.944,148.276 106.94,148.192 106.94,148.128 L106.94,148.128 L106.436,148.128 L106.436,153.408 L106.916,153.408 Z M122.708,153.408 C123.38,153.408 124.052,153.26 124.724,152.964 C125.396,152.668 125.948,152.288 126.38,151.824 L126.38,151.824 L125.948,151.296 C125.612,151.616 125.188,151.88 124.676,152.088 C124.164,152.296 123.708,152.4 123.308,152.4 C122.124,152.4 121.272,152.028 120.752,151.284 C120.232,150.54 120.044,149.576 120.188,148.392 L120.188,148.392 L125.972,148.392 C126.26,147.384 126.06,146.5 125.372,145.74 C124.684,144.98 123.796,144.6 122.708,144.6 C121.556,144.6 120.528,145.024 119.624,145.872 C118.72,146.72 118.268,147.76 118.268,148.992 C118.268,150.224 118.684,151.268 119.516,152.124 C120.348,152.98 121.412,153.408 122.708,153.408 Z M124.316,147.504 L120.332,147.504 C120.508,146.912 120.8,146.44 121.208,146.088 C121.616,145.736 122.076,145.56 122.588,145.56 C123.308,145.56 123.816,145.772 124.112,146.196 C124.408,146.62 124.476,147.056 124.316,147.504 L124.316,147.504 Z M133.652,153 L133.652,152.496 C132.852,152.496 132.336,152.328 132.104,151.992 C131.872,151.656 131.756,150.888 131.756,149.688 L131.756,149.688 L131.756,148.368 C131.756,147.52 131.972,146.84 132.404,146.328 C132.836,145.816 133.236,145.56 133.604,145.56 C134.116,145.56 134.372,145.824 134.372,146.352 C134.372,146.576 134.456,146.776 134.624,146.952 C134.792,147.128 134.988,147.216 135.212,147.216 C135.852,147.216 136.172,146.84 136.172,146.088 C136.172,145.736 136.008,145.4 135.68,145.08 C135.352,144.76 134.884,144.6 134.276,144.6 C133.796,144.6 133.316,144.768 132.836,145.104 C132.356,145.44 131.996,145.848 131.756,146.328 C131.628,145.48 131.492,144.904 131.348,144.6 L131.348,144.6 L128.156,145.2 L128.156,145.704 C128.956,145.704 129.472,145.872 129.704,146.208 C129.936,146.544 130.052,147.304 130.052,148.488 L130.052,148.488 L130.052,149.688 C130.052,150.888 129.936,151.656 129.704,151.992 C129.472,152.328 128.956,152.496 128.156,152.496 L128.156,152.496 L128.156,153 L133.652,153 Z M140.324,142.248 C140.612,142.248 140.86,142.144 141.068,141.936 C141.276,141.728 141.38,141.472 141.38,141.168 C141.38,140.88 141.276,140.632 141.068,140.424 C140.86,140.216 140.612,140.112 140.324,140.112 C140.036,140.112 139.788,140.216 139.58,140.424 C139.372,140.632 139.268,140.88 139.268,141.168 C139.268,141.472 139.372,141.728 139.58,141.936 C139.788,142.144 140.036,142.248 140.324,142.248 Z M143.084,153 L143.084,152.496 C142.284,152.496 141.768,152.328 141.536,151.992 C141.304,151.656 141.188,150.888 141.188,149.688 L141.188,149.688 L141.188,144.6 L137.588,145.2 L137.588,145.704 C138.388,145.704 138.904,145.872 139.136,146.208 C139.368,146.544 139.484,147.304 139.484,148.488 L139.484,148.488 L139.484,149.688 C139.484,150.888 139.368,151.656 139.136,151.992 C138.904,152.328 138.388,152.496 137.588,152.496 L137.588,152.496 L137.588,153 L143.084,153 Z M149.132,153.408 C149.804,153.408 150.476,153.26 151.148,152.964 C151.82,152.668 152.372,152.288 152.804,151.824 L152.804,151.824 L152.372,151.296 C152.036,151.616 151.612,151.88 151.1,152.088 C150.588,152.296 150.132,152.4 149.732,152.4 C148.548,152.4 147.696,152.028 147.176,151.284 C146.656,150.54 146.468,149.576 146.612,148.392 L146.612,148.392 L152.396,148.392 C152.684,147.384 152.484,146.5 151.796,145.74 C151.108,144.98 150.22,144.6 149.132,144.6 C147.98,144.6 146.952,145.024 146.048,145.872 C145.144,146.72 144.692,147.76 144.692,148.992 C144.692,150.224 145.108,151.268 145.94,152.124 C146.772,152.98 147.836,153.408 149.132,153.408 Z M150.74,147.504 L146.756,147.504 C146.932,146.912 147.224,146.44 147.632,146.088 C148.04,145.736 148.5,145.56 149.012,145.56 C149.732,145.56 150.24,145.772 150.536,146.196 C150.832,146.62 150.9,147.056 150.74,147.504 L150.74,147.504 Z M155.324,153.408 C155.324,153.088 155.356,152.872 155.42,152.76 C155.484,152.648 155.596,152.62 155.756,152.676 C155.916,152.732 156.088,152.812 156.272,152.916 C156.456,153.02 156.7,153.128 157.004,153.24 C157.308,153.352 157.604,153.408 157.892,153.408 C158.692,153.408 159.368,153.164 159.92,152.676 C160.472,152.188 160.748,151.56 160.748,150.792 C160.748,149.88 160.196,149.112 159.092,148.488 L159.092,148.488 L157.94,147.864 C157.38,147.56 156.996,147.308 156.788,147.108 C156.58,146.908 156.476,146.672 156.476,146.4 C156.476,146.096 156.58,145.848 156.788,145.656 C156.996,145.464 157.3,145.368 157.7,145.368 C158.276,145.368 158.744,145.572 159.104,145.98 C159.464,146.388 159.644,146.856 159.644,147.384 L159.644,147.384 L160.148,147.384 L160.148,144.6 L159.644,144.6 C159.644,144.92 159.608,145.1 159.536,145.14 C159.464,145.18 159.332,145.144 159.14,145.032 C158.564,144.744 158.004,144.6 157.46,144.6 C156.82,144.6 156.256,144.808 155.768,145.224 C155.28,145.64 155.036,146.16 155.036,146.784 C155.036,147.808 155.564,148.608 156.62,149.184 L156.62,149.184 L157.964,149.904 C158.86,150.384 159.308,150.872 159.308,151.368 C159.308,151.704 159.176,151.992 158.912,152.232 C158.648,152.472 158.324,152.592 157.94,152.592 C157.156,152.592 156.524,152.3 156.044,151.716 C155.564,151.132 155.324,150.528 155.324,149.904 L155.324,149.904 L154.82,149.904 L154.82,153.408 L155.324,153.408 Z M169.22,153 L169.22,152.496 C168.228,152.496 167.6,152.328 167.336,151.992 C167.072,151.656 166.94,150.888 166.94,149.688 L166.94,149.688 L166.94,146.688 L168.068,146.688 L172.82,153 L176.78,153 L176.78,152.496 C175.372,152.336 173.884,151.32 172.316,149.448 L172.316,149.448 L169.964,146.688 C171.292,146.544 172.336,146.104 173.096,145.368 C173.856,144.632 174.236,143.728 174.236,142.656 C174.236,141.488 173.78,140.52 172.868,139.752 C171.956,138.984 170.692,138.6 169.076,138.6 L169.076,138.6 L162.74,138.6 L162.74,139.104 C163.732,139.104 164.36,139.268 164.624,139.596 C164.888,139.924 165.02,140.688 165.02,141.888 L165.02,141.888 L165.02,149.688 C165.02,150.888 164.888,151.656 164.624,151.992 C164.36,152.328 163.732,152.496 162.74,152.496 L162.74,152.496 L162.74,153 L169.22,153 Z M169.052,145.824 L166.94,145.824 L166.94,139.488 L169.052,139.488 C170.044,139.488 170.8,139.784 171.32,140.376 C171.84,140.968 172.1,141.728 172.1,142.656 C172.1,143.584 171.84,144.344 171.32,144.936 C170.8,145.528 170.044,145.824 169.052,145.824 L169.052,145.824 Z" id="Vf=IxSeriesR"></path>
                    <path d="M2.084,17.408 C2.18,16.96 2.412,16.584 2.78,16.28 C2.94,16.312 3.22,16.428 3.62,16.628 C4.02,16.828 4.468,17.008 4.964,17.168 C5.46,17.328 5.98,17.408 6.524,17.408 C7.804,17.408 8.888,17.008 9.776,16.208 C10.664,15.408 11.108,14.368 11.108,13.088 C11.108,11.504 10.268,10.288 8.588,9.44 L8.588,9.44 L6.308,8.264 C5.204,7.688 4.44,7.196 4.016,6.788 C3.592,6.38 3.38,5.88 3.38,5.288 C3.38,4.68 3.6,4.172 4.04,3.764 C4.48,3.356 5.036,3.152 5.708,3.152 C7.916,3.152 9.14,4.552 9.38,7.352 L9.38,7.352 L9.884,7.352 L9.884,2.072 L9.404,2.072 C9.308,2.504 9.076,2.872 8.708,3.176 C7.812,2.52 6.836,2.192 5.78,2.192 C4.628,2.192 3.676,2.536 2.924,3.224 C2.172,3.912 1.796,4.76 1.796,5.768 C1.796,6.632 2.052,7.408 2.564,8.096 C3.076,8.784 3.708,9.328 4.46,9.728 L4.46,9.728 L6.764,10.904 C8.604,11.864 9.524,12.832 9.524,13.808 C9.524,14.576 9.24,15.208 8.672,15.704 C8.104,16.2 7.388,16.448 6.524,16.448 C5.932,16.448 5.392,16.368 4.904,16.208 C4.416,16.048 4.024,15.848 3.728,15.608 C3.432,15.368 3.172,15.08 2.948,14.744 C2.724,14.408 2.56,14.104 2.456,13.832 C2.352,13.56 2.272,13.276 2.216,12.98 C2.16,12.684 2.128,12.484 2.12,12.38 C2.112,12.276 2.108,12.192 2.108,12.128 L2.108,12.128 L1.604,12.128 L1.604,17.408 L2.084,17.408 Z M17.876,17.408 C18.548,17.408 19.22,17.26 19.892,16.964 C20.564,16.668 21.116,16.288 21.548,15.824 L21.548,15.824 L21.116,15.296 C20.78,15.616 20.356,15.88 19.844,16.088 C19.332,16.296 18.876,16.4 18.476,16.4 C17.292,16.4 16.44,16.028 15.92,15.284 C15.4,14.54 15.212,13.576 15.356,12.392 L15.356,12.392 L21.14,12.392 C21.428,11.384 21.228,10.5 20.54,9.74 C19.852,8.98 18.964,8.6 17.876,8.6 C16.724,8.6 15.696,9.024 14.792,9.872 C13.888,10.72 13.436,11.76 13.436,12.992 C13.436,14.224 13.852,15.268 14.684,16.124 C15.516,16.98 16.58,17.408 17.876,17.408 Z M19.484,11.504 L15.5,11.504 C15.676,10.912 15.968,10.44 16.376,10.088 C16.784,9.736 17.244,9.56 17.756,9.56 C18.476,9.56 18.984,9.772 19.28,10.196 C19.576,10.62 19.644,11.056 19.484,11.504 L19.484,11.504 Z M28.82,17 L28.82,16.496 C28.02,16.496 27.504,16.328 27.272,15.992 C27.04,15.656 26.924,14.888 26.924,13.688 L26.924,13.688 L26.924,12.368 C26.924,11.52 27.14,10.84 27.572,10.328 C28.004,9.816 28.404,9.56 28.772,9.56 C29.284,9.56 29.54,9.824 29.54,10.352 C29.54,10.576 29.624,10.776 29.792,10.952 C29.96,11.128 30.156,11.216 30.38,11.216 C31.02,11.216 31.34,10.84 31.34,10.088 C31.34,9.736 31.176,9.4 30.848,9.08 C30.52,8.76 30.052,8.6 29.444,8.6 C28.964,8.6 28.484,8.768 28.004,9.104 C27.524,9.44 27.164,9.848 26.924,10.328 C26.796,9.48 26.66,8.904 26.516,8.6 L26.516,8.6 L23.324,9.2 L23.324,9.704 C24.124,9.704 24.64,9.872 24.872,10.208 C25.104,10.544 25.22,11.304 25.22,12.488 L25.22,12.488 L25.22,13.688 C25.22,14.888 25.104,15.656 24.872,15.992 C24.64,16.328 24.124,16.496 23.324,16.496 L23.324,16.496 L23.324,17 L28.82,17 Z M35.492,6.248 C35.78,6.248 36.028,6.144 36.236,5.936 C36.444,5.728 36.548,5.472 36.548,5.168 C36.548,4.88 36.444,4.632 36.236,4.424 C36.028,4.216 35.78,4.112 35.492,4.112 C35.204,4.112 34.956,4.216 34.748,4.424 C34.54,4.632 34.436,4.88 34.436,5.168 C34.436,5.472 34.54,5.728 34.748,5.936 C34.956,6.144 35.204,6.248 35.492,6.248 Z M38.252,17 L38.252,16.496 C37.452,16.496 36.936,16.328 36.704,15.992 C36.472,15.656 36.356,14.888 36.356,13.688 L36.356,13.688 L36.356,8.6 L32.756,9.2 L32.756,9.704 C33.556,9.704 34.072,9.872 34.304,10.208 C34.536,10.544 34.652,11.304 34.652,12.488 L34.652,12.488 L34.652,13.688 C34.652,14.888 34.536,15.656 34.304,15.992 C34.072,16.328 33.556,16.496 32.756,16.496 L32.756,16.496 L32.756,17 L38.252,17 Z M44.3,17.408 C44.972,17.408 45.644,17.26 46.316,16.964 C46.988,16.668 47.54,16.288 47.972,15.824 L47.972,15.824 L47.54,15.296 C47.204,15.616 46.78,15.88 46.268,16.088 C45.756,16.296 45.3,16.4 44.9,16.4 C43.716,16.4 42.864,16.028 42.344,15.284 C41.824,14.54 41.636,13.576 41.78,12.392 L41.78,12.392 L47.564,12.392 C47.852,11.384 47.652,10.5 46.964,9.74 C46.276,8.98 45.388,8.6 44.3,8.6 C43.148,8.6 42.12,9.024 41.216,9.872 C40.312,10.72 39.86,11.76 39.86,12.992 C39.86,14.224 40.276,15.268 41.108,16.124 C41.94,16.98 43.004,17.408 44.3,17.408 Z M45.908,11.504 L41.924,11.504 C42.1,10.912 42.392,10.44 42.8,10.088 C43.208,9.736 43.668,9.56 44.18,9.56 C44.9,9.56 45.408,9.772 45.704,10.196 C46,10.62 46.068,11.056 45.908,11.504 L45.908,11.504 Z M50.492,17.408 C50.492,17.088 50.524,16.872 50.588,16.76 C50.652,16.648 50.764,16.62 50.924,16.676 C51.084,16.732 51.256,16.812 51.44,16.916 C51.624,17.02 51.868,17.128 52.172,17.24 C52.476,17.352 52.772,17.408 53.06,17.408 C53.86,17.408 54.536,17.164 55.088,16.676 C55.64,16.188 55.916,15.56 55.916,14.792 C55.916,13.88 55.364,13.112 54.26,12.488 L54.26,12.488 L53.108,11.864 C52.548,11.56 52.164,11.308 51.956,11.108 C51.748,10.908 51.644,10.672 51.644,10.4 C51.644,10.096 51.748,9.848 51.956,9.656 C52.164,9.464 52.468,9.368 52.868,9.368 C53.444,9.368 53.912,9.572 54.272,9.98 C54.632,10.388 54.812,10.856 54.812,11.384 L54.812,11.384 L55.316,11.384 L55.316,8.6 L54.812,8.6 C54.812,8.92 54.776,9.1 54.704,9.14 C54.632,9.18 54.5,9.144 54.308,9.032 C53.732,8.744 53.172,8.6 52.628,8.6 C51.988,8.6 51.424,8.808 50.936,9.224 C50.448,9.64 50.204,10.16 50.204,10.784 C50.204,11.808 50.732,12.608 51.788,13.184 L51.788,13.184 L53.132,13.904 C54.028,14.384 54.476,14.872 54.476,15.368 C54.476,15.704 54.344,15.992 54.08,16.232 C53.816,16.472 53.492,16.592 53.108,16.592 C52.324,16.592 51.692,16.3 51.212,15.716 C50.732,15.132 50.492,14.528 50.492,13.904 L50.492,13.904 L49.988,13.904 L49.988,17.408 L50.492,17.408 Z M64.388,17 L64.388,16.496 C63.396,16.496 62.768,16.328 62.504,15.992 C62.24,15.656 62.108,14.888 62.108,13.688 L62.108,13.688 L62.108,10.688 L63.236,10.688 L67.988,17 L71.948,17 L71.948,16.496 C70.54,16.336 69.052,15.32 67.484,13.448 L67.484,13.448 L65.132,10.688 C66.46,10.544 67.504,10.104 68.264,9.368 C69.024,8.632 69.404,7.728 69.404,6.656 C69.404,5.488 68.948,4.52 68.036,3.752 C67.124,2.984 65.86,2.6 64.244,2.6 L64.244,2.6 L57.908,2.6 L57.908,3.104 C58.9,3.104 59.528,3.268 59.792,3.596 C60.056,3.924 60.188,4.688 60.188,5.888 L60.188,5.888 L60.188,13.688 C60.188,14.888 60.056,15.656 59.792,15.992 C59.528,16.328 58.9,16.496 57.908,16.496 L57.908,16.496 L57.908,17 L64.388,17 Z M64.22,9.824 L62.108,9.824 L62.108,3.488 L64.22,3.488 C65.212,3.488 65.968,3.784 66.488,4.376 C67.008,4.968 67.268,5.728 67.268,6.656 C67.268,7.584 67.008,8.344 66.488,8.936 C65.968,9.528 65.212,9.824 64.22,9.824 L64.22,9.824 Z M86.468,10.808 L86.468,9.728 L79.46,9.728 L79.46,10.808 L86.468,10.808 Z M86.468,13.808 L86.468,12.728 L79.46,12.728 L79.46,13.808 L86.468,13.808 Z M107.444,21.08 L107.66,17.912 L107.156,17.912 L107.036,18.392 C106.924,18.872 106.8,19.22 106.664,19.436 C106.528,19.652 106.272,19.832 105.896,19.976 C105.52,20.12 104.972,20.192 104.252,20.192 L104.252,20.192 L97.82,20.192 L103.076,11.744 L97.46,3.488 L103.652,3.488 C104.372,3.488 104.92,3.56 105.296,3.704 C105.672,3.848 105.928,4.028 106.064,4.244 C106.2,4.46 106.324,4.808 106.436,5.288 L106.436,5.288 L106.556,5.768 L107.06,5.768 L106.844,2.6 L95.276,2.6 L95.276,3.008 L100.988,11.408 L95.228,20.672 L95.228,21.08 L107.444,21.08 Z M115.796,19.664 L116.324,19.16 C115.812,18.584 115.388,18.084 115.052,17.66 C114.716,17.236 114.28,16.604 113.744,15.764 C113.208,14.924 112.796,14.008 112.508,13.016 C112.22,12.024 112.076,10.992 112.076,9.92 C112.076,8.848 112.22,7.816 112.508,6.824 C112.796,5.832 113.208,4.916 113.744,4.076 C114.28,3.236 114.716,2.604 115.052,2.18 C115.388,1.756 115.812,1.256 116.324,0.68 L116.324,0.68 L115.772,0.176 C112.188,3.136 110.396,6.384 110.396,9.92 C110.396,13.472 112.196,16.72 115.796,19.664 L115.796,19.664 Z M124.388,17 L124.388,16.496 C123.396,16.496 122.768,16.328 122.504,15.992 C122.24,15.656 122.108,14.888 122.108,13.688 L122.108,13.688 L122.108,10.688 L123.236,10.688 L127.988,17 L131.948,17 L131.948,16.496 C130.54,16.336 129.052,15.32 127.484,13.448 L127.484,13.448 L125.132,10.688 C126.46,10.544 127.504,10.104 128.264,9.368 C129.024,8.632 129.404,7.728 129.404,6.656 C129.404,5.488 128.948,4.52 128.036,3.752 C127.124,2.984 125.86,2.6 124.244,2.6 L124.244,2.6 L117.908,2.6 L117.908,3.104 C118.9,3.104 119.528,3.268 119.792,3.596 C120.056,3.924 120.188,4.688 120.188,5.888 L120.188,5.888 L120.188,13.688 C120.188,14.888 120.056,15.656 119.792,15.992 C119.528,16.328 118.9,16.496 117.908,16.496 L117.908,16.496 L117.908,17 L124.388,17 Z M124.22,9.824 L122.108,9.824 L122.108,3.488 L124.22,3.488 C125.212,3.488 125.968,3.784 126.488,4.376 C127.008,4.968 127.268,5.728 127.268,6.656 C127.268,7.584 127.008,8.344 126.488,8.936 C125.968,9.528 125.212,9.824 124.22,9.824 L124.22,9.824 Z M139.388,17 L139.388,16.496 C138.38,16.496 137.744,16.332 137.48,16.004 C137.216,15.676 137.084,14.904 137.084,13.688 L137.084,13.688 L137.084,9.896 C137.084,8.68 137.216,7.908 137.48,7.58 C137.744,7.252 138.38,7.088 139.388,7.088 L139.388,7.088 L139.388,6.608 L133.076,6.608 L133.076,7.088 C134.068,7.088 134.7,7.256 134.972,7.592 C135.244,7.928 135.38,8.696 135.38,9.896 L135.38,9.896 L135.38,13.688 C135.38,14.888 135.244,15.656 134.972,15.992 C134.7,16.328 134.068,16.496 133.076,16.496 L133.076,16.496 L133.076,17 L139.388,17 Z M144.092,17.192 C144.412,17.192 144.684,17.08 144.908,16.856 C145.132,16.632 145.244,16.36 145.244,16.04 C145.244,15.72 145.132,15.448 144.908,15.224 C144.684,15 144.412,14.888 144.092,14.888 C143.788,14.888 143.524,15 143.3,15.224 C143.076,15.448 142.964,15.72 142.964,16.04 C142.964,16.36 143.076,16.632 143.3,16.856 C143.524,17.08 143.788,17.192 144.092,17.192 Z M151.1,17.192 C151.404,17.192 151.672,17.076 151.904,16.844 C152.136,16.612 152.252,16.344 152.252,16.04 C152.252,15.736 152.132,15.472 151.892,15.248 C151.668,15.008 151.404,14.888 151.1,14.888 C150.796,14.888 150.532,15 150.308,15.224 C150.084,15.448 149.972,15.72 149.972,16.04 C149.972,16.36 150.084,16.632 150.308,16.856 C150.532,17.08 150.796,17.192 151.1,17.192 Z M158.084,17.192 C158.404,17.192 158.68,17.076 158.912,16.844 C159.144,16.612 159.26,16.344 159.26,16.04 C159.26,15.736 159.14,15.472 158.9,15.248 C158.676,15.008 158.404,14.888 158.084,14.888 C157.78,14.888 157.52,15 157.304,15.224 C157.088,15.448 156.98,15.72 156.98,16.04 C156.98,16.36 157.088,16.632 157.304,16.856 C157.52,17.08 157.78,17.192 158.084,17.192 Z M169.484,17 L169.484,16.496 C168.492,16.496 167.864,16.328 167.6,15.992 C167.336,15.656 167.204,14.888 167.204,13.688 L167.204,13.688 L167.204,10.688 L168.332,10.688 L173.084,17 L177.044,17 L177.044,16.496 C175.636,16.336 174.148,15.32 172.58,13.448 L172.58,13.448 L170.228,10.688 C171.556,10.544 172.6,10.104 173.36,9.368 C174.12,8.632 174.5,7.728 174.5,6.656 C174.5,5.488 174.044,4.52 173.132,3.752 C172.22,2.984 170.956,2.6 169.34,2.6 L169.34,2.6 L163.004,2.6 L163.004,3.104 C163.996,3.104 164.624,3.268 164.888,3.596 C165.152,3.924 165.284,4.688 165.284,5.888 L165.284,5.888 L165.284,13.688 C165.284,14.888 165.152,15.656 164.888,15.992 C164.624,16.328 163.996,16.496 163.004,16.496 L163.004,16.496 L163.004,17 L169.484,17 Z M169.316,9.824 L167.204,9.824 L167.204,3.488 L169.316,3.488 C170.308,3.488 171.064,3.784 171.584,4.376 C172.104,4.968 172.364,5.728 172.364,6.656 C172.364,7.584 172.104,8.344 171.584,8.936 C171.064,9.528 170.308,9.824 169.316,9.824 L169.316,9.824 Z M183.164,17 L183.164,16.496 C182.428,16.496 181.964,16.336 181.772,16.016 C181.58,15.696 181.484,14.92 181.484,13.688 L181.484,13.688 L181.484,12.128 C181.484,11.488 181.772,10.928 182.348,10.448 C182.924,9.968 183.556,9.728 184.244,9.728 C185.572,9.728 186.236,10.584 186.236,12.296 L186.236,12.296 L186.236,13.688 C186.236,14.872 186.116,15.636 185.876,15.98 C185.636,16.324 185.124,16.496 184.34,16.496 L184.34,16.496 L184.34,17 L189.836,17 L189.836,16.496 C189.036,16.496 188.52,16.328 188.288,15.992 C188.056,15.656 187.94,14.888 187.94,13.688 L187.94,13.688 L187.94,12.176 C187.94,11.104 187.68,10.24 187.16,9.584 C186.64,8.928 185.86,8.6 184.82,8.6 C183.508,8.6 182.396,9.176 181.484,10.328 C181.356,9.48 181.22,8.904 181.076,8.6 L181.076,8.6 L177.884,9.2 L177.884,9.704 C178.684,9.704 179.2,9.872 179.432,10.208 C179.664,10.544 179.78,11.304 179.78,12.488 L179.78,12.488 L179.78,13.688 C179.78,14.888 179.664,15.656 179.432,15.992 C179.2,16.328 178.684,16.496 177.884,16.496 L177.884,16.496 L177.884,17 L183.164,17 Z M191.516,19.664 C195.1,16.736 196.892,13.488 196.892,9.92 C196.892,6.368 195.108,3.12 191.54,0.176 L191.54,0.176 L190.964,0.68 C191.492,1.272 191.92,1.776 192.248,2.192 C192.576,2.608 193.012,3.236 193.556,4.076 C194.1,4.916 194.516,5.832 194.804,6.824 C195.092,7.816 195.236,8.848 195.236,9.92 C195.236,10.992 195.092,12.024 194.804,13.016 C194.516,14.008 194.1,14.924 193.556,15.764 C193.012,16.604 192.576,17.232 192.248,17.648 C191.92,18.064 191.492,18.568 190.964,19.16 L190.964,19.16 L191.516,19.664 Z" id="SeriesR=(R1Rn)"></path>
                </g>
                <polyline id="Resistor" stroke="#524740" stroke-width="2" stroke-linejoin="bevel" points="126 104 131 104 136 91 146 117 156 91 166 117 176 91 186 117 191 104 196 104"></polyline>
                <g id="R1" transform="translate(146.000000, 62.000000)" fill="#524740" fill-rule="nonzero">
                    <path d="M8.292,17 L8.292,16.496 C7.3,16.496 6.672,16.328 6.408,15.992 C6.144,15.656 6.012,14.888 6.012,13.688 L6.012,13.688 L6.012,10.688 L7.14,10.688 L11.892,17 L15.852,17 L15.852,16.496 C14.444,16.336 12.956,15.32 11.388,13.448 L11.388,13.448 L9.036,10.688 C10.364,10.544 11.408,10.104 12.168,9.368 C12.928,8.632 13.308,7.728 13.308,6.656 C13.308,5.488 12.852,4.52 11.94,3.752 C11.028,2.984 9.764,2.6 8.148,2.6 L8.148,2.6 L1.812,2.6 L1.812,3.104 C2.804,3.104 3.432,3.268 3.696,3.596 C3.96,3.924 4.092,4.688 4.092,5.888 L4.092,5.888 L4.092,13.688 C4.092,14.888 3.96,15.656 3.696,15.992 C3.432,16.328 2.804,16.496 1.812,16.496 L1.812,16.496 L1.812,17 L8.292,17 Z M8.124,9.824 L6.012,9.824 L6.012,3.488 L8.124,3.488 C9.116,3.488 9.872,3.784 10.392,4.376 C10.912,4.968 11.172,5.728 11.172,6.656 C11.172,7.584 10.912,8.344 10.392,8.936 C9.872,9.528 9.116,9.824 8.124,9.824 L8.124,9.824 Z M21.972,17 L21.972,16.496 C21.236,16.496 20.772,16.336 20.58,16.016 C20.388,15.696 20.292,14.92 20.292,13.688 L20.292,13.688 L20.292,12.128 C20.292,11.488 20.58,10.928 21.156,10.448 C21.732,9.968 22.364,9.728 23.052,9.728 C24.38,9.728 25.044,10.584 25.044,12.296 L25.044,12.296 L25.044,13.688 C25.044,14.872 24.924,15.636 24.684,15.98 C24.444,16.324 23.932,16.496 23.148,16.496 L23.148,16.496 L23.148,17 L28.644,17 L28.644,16.496 C27.844,16.496 27.328,16.328 27.096,15.992 C26.864,15.656 26.748,14.888 26.748,13.688 L26.748,13.688 L26.748,12.176 C26.748,11.104 26.488,10.24 25.968,9.584 C25.448,8.928 24.668,8.6 23.628,8.6 C22.316,8.6 21.204,9.176 20.292,10.328 C20.164,9.48 20.028,8.904 19.884,8.6 L19.884,8.6 L16.692,9.2 L16.692,9.704 C17.492,9.704 18.008,9.872 18.24,10.208 C18.472,10.544 18.588,11.304 18.588,12.488 L18.588,12.488 L18.588,13.688 C18.588,14.888 18.472,15.656 18.24,15.992 C18.008,16.328 17.492,16.496 16.692,16.496 L16.692,16.496 L16.692,17 L21.972,17 Z" id="Rn"></path>
                </g>
            </g>
            <g id="R1-Copy-2" transform="translate(481.000000, 62.000000)">
                <polyline id="Resistor" stroke="#524740" stroke-width="2" stroke-linejoin="bevel" points="0 42 5 42 10 29 20 55 30 29 40 55 50 29 60 55 65 42 70 42"></polyline>
                <g id="R1" transform="translate(11.000000, 0.000000)" fill="#524740" fill-rule="nonzero">
                    <path d="M7.44,17 L7.44,16.496 C6.448,16.496 5.82,16.328 5.556,15.992 C5.292,15.656 5.16,14.888 5.16,13.688 L5.16,13.688 L5.16,10.688 L6.288,10.688 L11.04,17 L15,17 L15,16.496 C13.592,16.336 12.104,15.32 10.536,13.448 L10.536,13.448 L8.184,10.688 C9.512,10.544 10.556,10.104 11.316,9.368 C12.076,8.632 12.456,7.728 12.456,6.656 C12.456,5.488 12,4.52 11.088,3.752 C10.176,2.984 8.912,2.6 7.296,2.6 L7.296,2.6 L0.96,2.6 L0.96,3.104 C1.952,3.104 2.58,3.268 2.844,3.596 C3.108,3.924 3.24,4.688 3.24,5.888 L3.24,5.888 L3.24,13.688 C3.24,14.888 3.108,15.656 2.844,15.992 C2.58,16.328 1.952,16.496 0.96,16.496 L0.96,16.496 L0.96,17 L7.44,17 Z M7.272,9.824 L5.16,9.824 L5.16,3.488 L7.272,3.488 C8.264,3.488 9.02,3.784 9.54,4.376 C10.06,4.968 10.32,5.728 10.32,6.656 C10.32,7.584 10.06,8.344 9.54,8.936 C9.02,9.528 8.264,9.824 7.272,9.824 L7.272,9.824 Z M21.12,17 L21.12,16.496 C20.384,16.496 19.92,16.336 19.728,16.016 C19.536,15.696 19.44,14.92 19.44,13.688 L19.44,13.688 L19.44,12.128 C19.44,11.488 19.728,10.928 20.304,10.448 C20.88,9.968 21.512,9.728 22.2,9.728 C23.528,9.728 24.192,10.584 24.192,12.296 L24.192,12.296 L24.192,13.688 C24.192,14.872 24.072,15.636 23.832,15.98 C23.592,16.324 23.08,16.496 22.296,16.496 L22.296,16.496 L22.296,17 L27.792,17 L27.792,16.496 C26.992,16.496 26.476,16.328 26.244,15.992 C26.012,15.656 25.896,14.888 25.896,13.688 L25.896,13.688 L25.896,12.176 C25.896,11.104 25.636,10.24 25.116,9.584 C24.596,8.928 23.816,8.6 22.776,8.6 C21.464,8.6 20.352,9.176 19.44,10.328 C19.312,9.48 19.176,8.904 19.032,8.6 L19.032,8.6 L15.84,9.2 L15.84,9.704 C16.64,9.704 17.156,9.872 17.388,10.208 C17.62,10.544 17.736,11.304 17.736,12.488 L17.736,12.488 L17.736,13.688 C17.736,14.888 17.62,15.656 17.388,15.992 C17.156,16.328 16.64,16.496 15.84,16.496 L15.84,16.496 L15.84,17 L21.12,17 Z M34.272,15.992 L34.272,12.224 L38.04,12.224 L38.04,11.168 L34.272,11.168 L34.272,7.4 L33.216,7.4 L33.216,11.168 L29.448,11.168 L29.448,12.224 L33.216,12.224 L33.216,15.992 L34.272,15.992 Z M46.752,17 L46.752,16.496 C45.744,16.496 45.108,16.332 44.844,16.004 C44.58,15.676 44.448,14.904 44.448,13.688 L44.448,13.688 L44.448,9.896 C44.448,8.68 44.58,7.908 44.844,7.58 C45.108,7.252 45.744,7.088 46.752,7.088 L46.752,7.088 L46.752,6.608 L40.44,6.608 L40.44,7.088 C41.432,7.088 42.064,7.256 42.336,7.592 C42.608,7.928 42.744,8.696 42.744,9.896 L42.744,9.896 L42.744,13.688 C42.744,14.888 42.608,15.656 42.336,15.992 C42.064,16.328 41.432,16.496 40.44,16.496 L40.44,16.496 L40.44,17 L46.752,17 Z" id="Rn+1"></path>
                </g>
            </g>
            <circle id="Oval-2" fill="#524740" cx="176" cy="104" r="5"></circle>
            <g id="DC_Power" transform="translate(136.000000, 104.000000)">
                <g id="Group-2" transform="translate(0.000000, 52.000000)">
                    <circle id="Oval" stroke="#524740" stroke-width="2" cx="40" cy="40" r="39"></circle>
                    <text id="+" font-family="Lato-Regular, Lato" font-size="18" font-weight="normal" letter-spacing="0.8999999" fill="#524740">
                        <tspan x="35.3300001" y="21">+</tspan>
                    </text>
                    <text id="-" font-family="Lato-Regular, Lato" font-size="18" font-weight="normal" letter-spacing="0.8999999" fill="#524740">
                        <tspan x="37.2065001" y="72.5">-</tspan>
                    </text>
                </g>
                <polyline id="Path-5" stroke="#524740" stroke-width="2" points="40 52 40 0 105 0"></polyline>
            </g>
            <line x1="311" y1="104" x2="361" y2="104" id="Path-11" stroke="#524740" stroke-width="2"></line>
            <circle id="Oval-2-Copy-10" stroke="#524740" stroke-width="2" fill="#524740" cx="456" cy="104" r="4"></circle>
            <circle id="Oval-2-Copy-17" stroke="#524740" stroke-width="2" fill="#524740" cx="456" cy="288" r="4"></circle>
            <path d="M6.9661535,172 L12.2221535,159.103 L10.8271535,159.103 C10.6771535,159.103 10.5496535,159.1465 10.4446535,159.2335 C10.3396535,159.3205 10.2691535,159.415 10.2331535,159.517 L10.2331535,159.517 L6.6061535,168.616 C6.5281535,168.82 6.4561535,169.042 6.3901535,169.282 C6.3241535,169.522 6.2611535,169.774 6.2011535,170.038 C6.1411535,169.774 6.0736535,169.522 5.9986535,169.282 C5.9236535,169.042 5.8471535,168.82 5.7691535,168.616 L5.7691535,168.616 L2.1331535,159.517 C2.0851535,159.397 2.0131535,159.298 1.9171535,159.22 C1.8211535,159.142 1.6951535,159.103 1.5391535,159.103 L1.5391535,159.103 L0.1441535,159.103 L5.4001535,172 L6.9661535,172 Z M16.733203,172.126 C17.399203,172.126 17.999203,172.0165 18.533203,171.7975 C19.067203,171.5785 19.523203,171.265 19.901203,170.857 C20.279203,170.449 20.568703,169.957 20.769703,169.381 C20.970703,168.805 21.071203,168.157 21.071203,167.437 C21.071203,166.723 20.970703,166.0765 20.769703,165.4975 C20.568703,164.9185 20.279203,164.425 19.901203,164.017 C19.523203,163.609 19.067203,163.294 18.533203,163.072 C17.999203,162.85 17.399203,162.739 16.733203,162.739 C16.061203,162.739 15.456703,162.85 14.919703,163.072 C14.382703,163.294 13.925203,163.609 13.547203,164.017 C13.169203,164.425 12.879703,164.9185 12.678703,165.4975 C12.477703,166.0765 12.377203,166.723 12.377203,167.437 C12.377203,168.157 12.477703,168.805 12.678703,169.381 C12.879703,169.957 13.169203,170.449 13.547203,170.857 C13.925203,171.265 14.382703,171.5785 14.919703,171.7975 C15.456703,172.0165 16.061203,172.126 16.733203,172.126 Z M16.733203,170.875 C15.821203,170.875 15.141703,170.5735 14.694703,169.9705 C14.247703,169.3675 14.024203,168.526 14.024203,167.446 C14.024203,166.906 14.079703,166.4215 14.190703,165.9925 C14.301703,165.5635 14.469703,165.202 14.694703,164.908 C14.919703,164.614 15.201703,164.389 15.540703,164.233 C15.879703,164.077 16.277203,163.999 16.733203,163.999 C17.633203,163.999 18.305203,164.302 18.749203,164.908 C19.193203,165.514 19.415203,166.36 19.415203,167.446 C19.415203,168.526 19.193203,169.3675 18.749203,169.9705 C18.305203,170.5735 17.633203,170.875 16.733203,170.875 Z M25.4472525,172 L25.4472525,158.743 L23.8452525,158.743 L23.8452525,172 L25.4472525,172 Z M31.533302,172.144 C31.947302,172.144 32.349302,172.0705 32.739302,171.9235 C33.129302,171.7765 33.462302,171.574 33.738302,171.316 L33.738302,171.316 L33.270302,170.551 C33.204302,170.449 33.129302,170.398 33.045302,170.398 C32.997302,170.398 32.941802,170.4205 32.878802,170.4655 C32.815802,170.5105 32.739302,170.56 32.649302,170.614 C32.559302,170.668 32.452802,170.7175 32.329802,170.7625 C32.206802,170.8075 32.061302,170.83 31.893302,170.83 C31.599302,170.83 31.359302,170.737 31.173302,170.551 C30.987302,170.365 30.894302,170.08 30.894302,169.696 L30.894302,169.696 L30.894302,164.224 L33.531302,164.224 L33.531302,163.063 L30.894302,163.063 L30.894302,159.922 L30.084302,159.922 C29.982302,159.922 29.899802,159.9505 29.836802,160.0075 C29.773802,160.0645 29.733302,160.138 29.715302,160.228 L29.715302,160.228 L29.346302,163.045 L27.852302,163.234 L27.852302,163.873 C27.852302,163.993 27.885302,164.0815 27.951302,164.1385 C28.017302,164.1955 28.098302,164.224 28.194302,164.224 L28.194302,164.224 L29.292302,164.224 L29.292302,169.804 C29.292302,170.56 29.485802,171.139 29.872802,171.541 C30.259802,171.943 30.813302,172.144 31.533302,172.144 Z M37.7633515,172.144 C38.1113515,172.144 38.4278515,172.1125 38.7128515,172.0495 C38.9978515,171.9865 39.2663515,171.8965 39.5183515,171.7795 C39.7703515,171.6625 40.0103515,171.5185 40.2383515,171.3475 C40.4663515,171.1765 40.7003515,170.98 40.9403515,170.758 L40.9403515,170.758 L41.1203515,171.622 C41.1683515,171.772 41.2343515,171.8725 41.3183515,171.9235 C41.4023515,171.9745 41.5223515,172 41.6783515,172 L41.6783515,172 L42.3893515,172 L42.3893515,166.168 C42.3893515,165.658 42.3203515,165.19 42.1823515,164.764 C42.0443515,164.338 41.8403515,163.975 41.5703515,163.675 C41.3003515,163.375 40.9673515,163.141 40.5713515,162.973 C40.1753515,162.805 39.7223515,162.721 39.2123515,162.721 C38.5043515,162.721 37.8593515,162.841 37.2773515,163.081 C36.6953515,163.321 36.1523515,163.684 35.6483515,164.17 L35.6483515,164.17 L35.9363515,164.683 C35.9903515,164.767 36.0563515,164.8375 36.1343515,164.8945 C36.2123515,164.9515 36.3053515,164.98 36.4133515,164.98 C36.5513515,164.98 36.6908515,164.9305 36.8318515,164.8315 C36.9728515,164.7325 37.1408515,164.6215 37.3358515,164.4985 C37.5308515,164.3755 37.7618515,164.2645 38.0288515,164.1655 C38.2958515,164.0665 38.6273515,164.017 39.0233515,164.017 C39.6113515,164.017 40.0583515,164.1985 40.3643515,164.5615 C40.6703515,164.9245 40.8233515,165.46 40.8233515,166.168 L40.8233515,166.168 L40.8233515,166.879 C39.7853515,166.903 38.9093515,166.9975 38.1953515,167.1625 C37.4813515,167.3275 36.9023515,167.539 36.4583515,167.797 C36.0143515,168.055 35.6933515,168.3505 35.4953515,168.6835 C35.2973515,169.0165 35.1983515,169.363 35.1983515,169.723 C35.1983515,170.137 35.2658515,170.4955 35.4008515,170.7985 C35.5358515,171.1015 35.7188515,171.352 35.9498515,171.55 C36.1808515,171.748 36.4523515,171.8965 36.7643515,171.9955 C37.0763515,172.0945 37.4093515,172.144 37.7633515,172.144 Z M38.2403515,171.019 C38.0303515,171.019 37.8338515,170.9935 37.6508515,170.9425 C37.4678515,170.8915 37.3088515,170.8105 37.1738515,170.6995 C37.0388515,170.5885 36.9323515,170.446 36.8543515,170.272 C36.7763515,170.098 36.7373515,169.891 36.7373515,169.651 C36.7373515,169.399 36.8108515,169.171 36.9578515,168.967 C37.1048515,168.763 37.3418515,168.586 37.6688515,168.436 C37.9958515,168.286 38.4188515,168.1645 38.9378515,168.0715 C39.4568515,167.9785 40.0853515,167.92 40.8233515,167.896 L40.8233515,167.896 L40.8233515,169.786 C40.6433515,169.978 40.4588515,170.149 40.2698515,170.299 C40.0808515,170.449 39.8828515,170.578 39.6758515,170.686 C39.4688515,170.794 39.2483515,170.8765 39.0143515,170.9335 C38.7803515,170.9905 38.5223515,171.019 38.2403515,171.019 Z M48.790401,175.285 C49.456401,175.285 50.054901,175.1995 50.585901,175.0285 C51.116901,174.8575 51.565401,174.6295 51.931401,174.3445 C52.297401,174.0595 52.577901,173.734 52.772901,173.368 C52.967901,173.002 53.065401,172.624 53.065401,172.234 C53.065401,171.814 52.976901,171.472 52.799901,171.208 C52.622901,170.944 52.390401,170.737 52.102401,170.587 C51.814401,170.437 51.485901,170.329 51.116901,170.263 C50.747901,170.197 50.369901,170.1505 49.982901,170.1235 C49.595901,170.0965 49.217901,170.077 48.848901,170.065 C48.479901,170.053 48.151401,170.023 47.863401,169.975 C47.575401,169.927 47.342901,169.8475 47.165901,169.7365 C46.988901,169.6255 46.900401,169.462 46.900401,169.246 C46.900401,169.108 46.951401,168.9715 47.053401,168.8365 C47.155401,168.7015 47.302401,168.574 47.494401,168.454 C47.872401,168.556 48.274401,168.607 48.700401,168.607 C49.192401,168.607 49.648401,168.538 50.068401,168.4 C50.488401,168.262 50.848401,168.064 51.148401,167.806 C51.448401,167.548 51.683901,167.2375 51.854901,166.8745 C52.025901,166.5115 52.111401,166.108 52.111401,165.664 C52.111401,165.184 52.009401,164.746 51.805401,164.35 L51.805401,164.35 L52.840401,164.215 C53.092401,164.161 53.218401,164.035 53.218401,163.837 L53.218401,163.837 L53.218401,163.243 L50.743401,163.243 C50.461401,163.075 50.149401,162.9475 49.807401,162.8605 C49.465401,162.7735 49.096401,162.73 48.700401,162.73 C48.196401,162.73 47.732901,162.799 47.309901,162.937 C46.886901,163.075 46.522401,163.2715 46.216401,163.5265 C45.910401,163.7815 45.671901,164.0905 45.500901,164.4535 C45.329901,164.8165 45.244401,165.22 45.244401,165.664 C45.244401,166.216 45.370401,166.7005 45.622401,167.1175 C45.874401,167.5345 46.225401,167.869 46.675401,168.121 C46.483401,168.217 46.315401,168.328 46.171401,168.454 C46.027401,168.58 45.905901,168.7135 45.806901,168.8545 C45.707901,168.9955 45.634401,169.1365 45.586401,169.2775 C45.538401,169.4185 45.514401,169.555 45.514401,169.687 C45.514401,170.029 45.593901,170.3005 45.752901,170.5015 C45.911901,170.7025 46.126401,170.863 46.396401,170.983 C45.904401,171.169 45.517401,171.418 45.235401,171.73 C44.953401,172.042 44.812401,172.423 44.812401,172.873 C44.812401,173.191 44.894901,173.4955 45.059901,173.7865 C45.224901,174.0775 45.472401,174.334 45.802401,174.556 C46.132401,174.778 46.546401,174.955 47.044401,175.087 C47.542401,175.219 48.124401,175.285 48.790401,175.285 Z M48.700401,167.545 C48.376401,167.545 48.091401,167.5 47.845401,167.41 C47.599401,167.32 47.392401,167.194 47.224401,167.032 C47.056401,166.87 46.928901,166.6765 46.841901,166.4515 C46.754901,166.2265 46.711401,165.979 46.711401,165.709 C46.711401,165.151 46.880901,164.707 47.219901,164.377 C47.558901,164.047 48.052401,163.882 48.700401,163.882 C49.342401,163.882 49.832901,164.047 50.171901,164.377 C50.510901,164.707 50.680401,165.151 50.680401,165.709 C50.680401,165.979 50.638401,166.2265 50.554401,166.4515 C50.470401,166.6765 50.344401,166.87 50.176401,167.032 C50.008401,167.194 49.801401,167.32 49.555401,167.41 C49.309401,167.5 49.024401,167.545 48.700401,167.545 Z M48.826401,174.115 C48.382401,174.115 47.996901,174.0775 47.669901,174.0025 C47.342901,173.9275 47.071401,173.8255 46.855401,173.6965 C46.639401,173.5675 46.478901,173.4145 46.373901,173.2375 C46.268901,173.0605 46.216401,172.87 46.216401,172.666 C46.216401,172.348 46.322901,172.0705 46.535901,171.8335 C46.748901,171.5965 47.023401,171.4 47.359401,171.244 C47.659401,171.286 47.971401,171.316 48.295401,171.334 C48.619401,171.352 48.938901,171.37 49.253901,171.388 C49.568901,171.406 49.867401,171.4315 50.149401,171.4645 C50.431401,171.4975 50.678901,171.553 50.891901,171.631 C51.104901,171.709 51.274401,171.817 51.400401,171.955 C51.526401,172.093 51.589401,172.273 51.589401,172.495 C51.589401,172.735 51.526401,172.954 51.400401,173.152 C51.274401,173.35 51.092901,173.521 50.855901,173.665 C50.618901,173.809 50.329401,173.92 49.987401,173.998 C49.645401,174.076 49.258401,174.115 48.826401,174.115 Z M59.2594505,172.126 C59.5894505,172.126 59.9224505,172.0975 60.2584505,172.0405 C60.5944505,171.9835 60.9199505,171.898 61.2349505,171.784 C61.5499505,171.67 61.8454505,171.5245 62.1214505,171.3475 C62.3974505,171.1705 62.6344505,170.962 62.8324505,170.722 L62.8324505,170.722 L62.3824505,170.137 C62.3104505,170.035 62.2084505,169.984 62.0764505,169.984 C61.9744505,169.984 61.8529505,170.0305 61.7119505,170.1235 C61.5709505,170.2165 61.3954505,170.317 61.1854505,170.425 C60.9754505,170.533 60.7249505,170.6335 60.4339505,170.7265 C60.1429505,170.8195 59.7964505,170.866 59.3944505,170.866 C58.9624505,170.866 58.5724505,170.7955 58.2244505,170.6545 C57.8764505,170.5135 57.5764505,170.3005 57.3244505,170.0155 C57.0724505,169.7305 56.8759505,169.375 56.7349505,168.949 C56.5939505,168.523 56.5144505,168.022 56.4964505,167.446 L56.4964505,167.446 L62.5894505,167.446 C62.7394505,167.446 62.8414505,167.404 62.8954505,167.32 C62.9494505,167.236 62.9764505,167.068 62.9764505,166.816 C62.9764505,166.168 62.8804505,165.5905 62.6884505,165.0835 C62.4964505,164.5765 62.2309505,164.1505 61.8919505,163.8055 C61.5529505,163.4605 61.1509505,163.1965 60.6859505,163.0135 C60.2209505,162.8305 59.7154505,162.739 59.1694505,162.739 C58.5094505,162.739 57.9154505,162.8545 57.3874505,163.0855 C56.8594505,163.3165 56.4124505,163.6345 56.0464505,164.0395 C55.6804505,164.4445 55.3999505,164.923 55.2049505,165.475 C55.0099505,166.027 54.9124505,166.621 54.9124505,167.257 C54.9124505,168.043 55.0204505,168.739 55.2364505,169.345 C55.4524505,169.951 55.7539505,170.4595 56.1409505,170.8705 C56.5279505,171.2815 56.9869505,171.5935 57.5179505,171.8065 C58.0489505,172.0195 58.6294505,172.126 59.2594505,172.126 Z M61.5364505,166.447 L56.5504505,166.447 C56.6584505,165.655 56.9359505,165.0355 57.3829505,164.5885 C57.8299505,164.1415 58.4374505,163.918 59.2054505,163.918 C59.5714505,163.918 59.8984505,163.9795 60.1864505,164.1025 C60.4744505,164.2255 60.7189505,164.3995 60.9199505,164.6245 C61.1209505,164.8495 61.2739505,165.1165 61.3789505,165.4255 C61.4839505,165.7345 61.5364505,166.075 61.5364505,166.447 L61.5364505,166.447 Z M74.3025495,172.144 C74.9865495,172.144 75.5970495,172.039 76.1340495,171.829 C76.6710495,171.619 77.1240495,171.331 77.4930495,170.965 C77.8620495,170.599 78.1425495,170.1685 78.3345495,169.6735 C78.5265495,169.1785 78.6225495,168.649 78.6225495,168.085 C78.6225495,167.551 78.5340495,167.101 78.3570495,166.735 C78.1800495,166.369 77.9460495,166.06 77.6550495,165.808 C77.3640495,165.556 77.0340495,165.3475 76.6650495,165.1825 C76.2960495,165.0175 75.9180495,164.869 75.5310495,164.737 C75.1440495,164.605 74.7660495,164.4775 74.3970495,164.3545 C74.0280495,164.2315 73.6980495,164.086 73.4070495,163.918 C73.1160495,163.75 72.8820495,163.5475 72.7050495,163.3105 C72.5280495,163.0735 72.4395495,162.775 72.4395495,162.415 C72.4395495,162.133 72.4905495,161.8705 72.5925495,161.6275 C72.6945495,161.3845 72.8460495,161.173 73.0470495,160.993 C73.2480495,160.813 73.4970495,160.6705 73.7940495,160.5655 C74.0910495,160.4605 74.4345495,160.408 74.8245495,160.408 C75.2385495,160.408 75.5910495,160.459 75.8820495,160.561 C76.1730495,160.663 76.4220495,160.7755 76.6290495,160.8985 C76.8360495,161.0215 77.0085495,161.134 77.1465495,161.236 C77.2845495,161.338 77.4045495,161.389 77.5065495,161.389 C77.5965495,161.389 77.6730495,161.3665 77.7360495,161.3215 C77.7990495,161.2765 77.8575495,161.209 77.9115495,161.119 L77.9115495,161.119 L78.3345495,160.291 C77.8845495,159.859 77.3640495,159.529 76.7730495,159.301 C76.1820495,159.073 75.5265495,158.959 74.8065495,158.959 C74.1645495,158.959 73.5960495,159.058 73.1010495,159.256 C72.6060495,159.454 72.1890495,159.718 71.8500495,160.048 C71.5110495,160.378 71.2530495,160.756 71.0760495,161.182 C70.8990495,161.608 70.8105495,162.049 70.8105495,162.505 C70.8105495,163.075 70.8990495,163.5535 71.0760495,163.9405 C71.2530495,164.3275 71.4855495,164.65 71.7735495,164.908 C72.0615495,165.166 72.3915495,165.376 72.7635495,165.538 C73.1355495,165.7 73.5135495,165.8425 73.8975495,165.9655 C74.2815495,166.0885 74.6595495,166.2085 75.0315495,166.3255 C75.4035495,166.4425 75.7335495,166.585 76.0215495,166.753 C76.3095495,166.921 76.5420495,167.1295 76.7190495,167.3785 C76.8960495,167.6275 76.9845495,167.947 76.9845495,168.337 C76.9845495,168.691 76.9245495,169.012 76.8045495,169.3 C76.6845495,169.588 76.5120495,169.8355 76.2870495,170.0425 C76.0620495,170.2495 75.7875495,170.41 75.4635495,170.524 C75.1395495,170.638 74.7705495,170.695 74.3565495,170.695 C74.0265495,170.695 73.7295495,170.6635 73.4655495,170.6005 C73.2015495,170.5375 72.9660495,170.458 72.7590495,170.362 C72.5520495,170.266 72.3675495,170.161 72.2055495,170.047 C72.0435495,169.933 71.8995495,169.828 71.7735495,169.732 C71.6475495,169.636 71.5350495,169.5565 71.4360495,169.4935 C71.3370495,169.4305 71.2485495,169.399 71.1705495,169.399 C71.0865495,169.399 71.0100495,169.4215 70.9410495,169.4665 C70.8720495,169.5115 70.8135495,169.567 70.7655495,169.633 L70.7655495,169.633 L70.2615495,170.461 C70.7475495,170.977 71.3325495,171.3865 72.0165495,171.6895 C72.7005495,171.9925 73.4625495,172.144 74.3025495,172.144 Z M85.185599,172.126 C85.851599,172.126 86.451599,172.0165 86.985599,171.7975 C87.519599,171.5785 87.975599,171.265 88.353599,170.857 C88.731599,170.449 89.021099,169.957 89.222099,169.381 C89.423099,168.805 89.523599,168.157 89.523599,167.437 C89.523599,166.723 89.423099,166.0765 89.222099,165.4975 C89.021099,164.9185 88.731599,164.425 88.353599,164.017 C87.975599,163.609 87.519599,163.294 86.985599,163.072 C86.451599,162.85 85.851599,162.739 85.185599,162.739 C84.513599,162.739 83.909099,162.85 83.372099,163.072 C82.835099,163.294 82.377599,163.609 81.999599,164.017 C81.621599,164.425 81.332099,164.9185 81.131099,165.4975 C80.930099,166.0765 80.829599,166.723 80.829599,167.437 C80.829599,168.157 80.930099,168.805 81.131099,169.381 C81.332099,169.957 81.621599,170.449 81.999599,170.857 C82.377599,171.265 82.835099,171.5785 83.372099,171.7975 C83.909099,172.0165 84.513599,172.126 85.185599,172.126 Z M85.185599,170.875 C84.273599,170.875 83.594099,170.5735 83.147099,169.9705 C82.700099,169.3675 82.476599,168.526 82.476599,167.446 C82.476599,166.906 82.532099,166.4215 82.643099,165.9925 C82.754099,165.5635 82.922099,165.202 83.147099,164.908 C83.372099,164.614 83.654099,164.389 83.993099,164.233 C84.332099,164.077 84.729599,163.999 85.185599,163.999 C86.085599,163.999 86.757599,164.302 87.201599,164.908 C87.645599,165.514 87.867599,166.36 87.867599,167.446 C87.867599,168.526 87.645599,169.3675 87.201599,169.9705 C86.757599,170.5735 86.085599,170.875 85.185599,170.875 Z M95.2046485,172.144 C95.8406485,172.144 96.4046485,172.0105 96.8966485,171.7435 C97.3886485,171.4765 97.8326485,171.124 98.2286485,170.686 L98.2286485,170.686 L98.3546485,171.667 C98.4146485,171.889 98.5586485,172 98.7866485,172 L98.7866485,172 L99.7406485,172 L99.7406485,162.883 L98.1386485,162.883 L98.1386485,169.597 C97.7906485,169.993 97.4111485,170.3035 97.0001485,170.5285 C96.5891485,170.7535 96.1466485,170.866 95.6726485,170.866 C95.0246485,170.866 94.5431485,170.677 94.2281485,170.299 C93.9131485,169.921 93.7556485,169.387 93.7556485,168.697 L93.7556485,168.697 L93.7556485,162.883 L92.1536485,162.883 L92.1536485,168.697 C92.1536485,169.213 92.2181485,169.684 92.3471485,170.11 C92.4761485,170.536 92.6696485,170.899 92.9276485,171.199 C93.1856485,171.499 93.5051485,171.7315 93.8861485,171.8965 C94.2671485,172.0615 94.7066485,172.144 95.2046485,172.144 Z M104.584698,172 L104.584698,166.24 C104.698698,165.928 104.826198,165.6505 104.967198,165.4075 C105.108198,165.1645 105.267198,164.9605 105.444198,164.7955 C105.621198,164.6305 105.822198,164.506 106.047198,164.422 C106.272198,164.338 106.528698,164.296 106.816698,164.296 C107.020698,164.296 107.203698,164.314 107.365698,164.35 C107.527698,164.386 107.650698,164.404 107.734698,164.404 C107.878698,164.404 107.968698,164.329 108.004698,164.179 L108.004698,164.179 L108.121698,162.982 C107.983698,162.892 107.826198,162.826 107.649198,162.784 C107.472198,162.742 107.287698,162.721 107.095698,162.721 C106.489698,162.721 105.976698,162.8965 105.556698,163.2475 C105.136698,163.5985 104.782698,164.086 104.494698,164.71 L104.494698,164.71 L104.386698,163.324 C104.362698,163.162 104.317698,163.048 104.251698,162.982 C104.185698,162.916 104.065698,162.883 103.891698,162.883 L103.891698,162.883 L102.973698,162.883 L102.973698,172 L104.584698,172 Z M113.352748,172.126 C113.682748,172.126 114.006748,172.099 114.324748,172.045 C114.642748,171.991 114.947248,171.9055 115.238248,171.7885 C115.529248,171.6715 115.800748,171.526 116.052748,171.352 C116.304748,171.178 116.529748,170.968 116.727748,170.722 L116.727748,170.722 L116.277748,170.137 C116.205748,170.035 116.103748,169.984 115.971748,169.984 C115.863748,169.984 115.754248,170.0305 115.643248,170.1235 C115.532248,170.2165 115.394248,170.32 115.229248,170.434 C115.064248,170.548 114.855748,170.6515 114.603748,170.7445 C114.351748,170.8375 114.030748,170.884 113.640748,170.884 C113.232748,170.884 112.865248,170.8075 112.538248,170.6545 C112.211248,170.5015 111.932248,170.2795 111.701248,169.9885 C111.470248,169.6975 111.291748,169.3375 111.165748,168.9085 C111.039748,168.4795 110.976748,167.989 110.976748,167.437 C110.976748,166.909 111.035248,166.432 111.152248,166.006 C111.269248,165.58 111.443248,165.217 111.674248,164.917 C111.905248,164.617 112.191748,164.3875 112.533748,164.2285 C112.875748,164.0695 113.271748,163.99 113.721748,163.99 C114.057748,163.99 114.341248,164.0275 114.572248,164.1025 C114.803248,164.1775 114.998248,164.26 115.157248,164.35 C115.316248,164.44 115.449748,164.5225 115.557748,164.5975 C115.665748,164.6725 115.764748,164.71 115.854748,164.71 C115.938748,164.71 116.004748,164.692 116.052748,164.656 C116.100748,164.62 116.148748,164.569 116.196748,164.503 L116.196748,164.503 L116.619748,163.927 C116.241748,163.549 115.808248,163.2565 115.319248,163.0495 C114.830248,162.8425 114.264748,162.739 113.622748,162.739 C112.932748,162.739 112.322248,162.856 111.791248,163.09 C111.260248,163.324 110.813248,163.6495 110.450248,164.0665 C110.087248,164.4835 109.811248,164.98 109.622248,165.556 C109.433248,166.132 109.338748,166.759 109.338748,167.437 C109.338748,168.181 109.440748,168.844 109.644748,169.426 C109.848748,170.008 110.130748,170.4985 110.490748,170.8975 C110.850748,171.2965 111.275248,171.601 111.764248,171.811 C112.253248,172.021 112.782748,172.126 113.352748,172.126 Z M122.804797,172.126 C123.134797,172.126 123.467797,172.0975 123.803797,172.0405 C124.139797,171.9835 124.465297,171.898 124.780297,171.784 C125.095297,171.67 125.390797,171.5245 125.666797,171.3475 C125.942797,171.1705 126.179797,170.962 126.377797,170.722 L126.377797,170.722 L125.927797,170.137 C125.855797,170.035 125.753797,169.984 125.621797,169.984 C125.519797,169.984 125.398297,170.0305 125.257297,170.1235 C125.116297,170.2165 124.940797,170.317 124.730797,170.425 C124.520797,170.533 124.270297,170.6335 123.979297,170.7265 C123.688297,170.8195 123.341797,170.866 122.939797,170.866 C122.507797,170.866 122.117797,170.7955 121.769797,170.6545 C121.421797,170.5135 121.121797,170.3005 120.869797,170.0155 C120.617797,169.7305 120.421297,169.375 120.280297,168.949 C120.139297,168.523 120.059797,168.022 120.041797,167.446 L120.041797,167.446 L126.134797,167.446 C126.284797,167.446 126.386797,167.404 126.440797,167.32 C126.494797,167.236 126.521797,167.068 126.521797,166.816 C126.521797,166.168 126.425797,165.5905 126.233797,165.0835 C126.041797,164.5765 125.776297,164.1505 125.437297,163.8055 C125.098297,163.4605 124.696297,163.1965 124.231297,163.0135 C123.766297,162.8305 123.260797,162.739 122.714797,162.739 C122.054797,162.739 121.460797,162.8545 120.932797,163.0855 C120.404797,163.3165 119.957797,163.6345 119.591797,164.0395 C119.225797,164.4445 118.945297,164.923 118.750297,165.475 C118.555297,166.027 118.457797,166.621 118.457797,167.257 C118.457797,168.043 118.565797,168.739 118.781797,169.345 C118.997797,169.951 119.299297,170.4595 119.686297,170.8705 C120.073297,171.2815 120.532297,171.5935 121.063297,171.8065 C121.594297,172.0195 122.174797,172.126 122.804797,172.126 Z M125.081797,166.447 L120.095797,166.447 C120.203797,165.655 120.481297,165.0355 120.928297,164.5885 C121.375297,164.1415 121.982797,163.918 122.750797,163.918 C123.116797,163.918 123.443797,163.9795 123.731797,164.1025 C124.019797,164.2255 124.264297,164.3995 124.465297,164.6245 C124.666297,164.8495 124.819297,165.1165 124.924297,165.4255 C125.029297,165.7345 125.081797,166.075 125.081797,166.447 L125.081797,166.447 Z" id="VoltageSource" fill="#524740" fill-rule="nonzero"></path>
            <path d="M173.8,88 L173.8,87.496 C172.808,87.496 172.172,87.356 171.892,87.076 C171.612,86.796 171.624,86.328 171.928,85.672 L171.928,85.672 L173.08,83.008 L178.888,83.008 L180.04,85.672 C180.328,86.328 180.336,86.796 180.064,87.076 C179.792,87.356 179.16,87.496 178.168,87.496 L178.168,87.496 L178.168,88 L184.816,88 L184.816,87.496 C184.304,87.496 183.912,87.476 183.64,87.436 C183.368,87.396 183.124,87.268 182.908,87.052 C182.692,86.836 182.54,86.64 182.452,86.464 C182.364,86.288 182.2,85.936 181.96,85.408 L181.96,85.408 L176.656,73.192 L176.344,73.192 L171.064,85.408 C170.824,85.936 170.66,86.288 170.572,86.464 C170.484,86.64 170.332,86.836 170.116,87.052 C169.9,87.268 169.652,87.396 169.372,87.436 C169.092,87.476 168.696,87.496 168.184,87.496 L168.184,87.496 L168.184,88 L173.8,88 Z M178.48,82.12 L173.464,82.12 L175.96,76.336 L178.48,82.12 Z" id="A" fill="#1A80AA" fill-rule="nonzero"></path>
            <path d="M457.244,88 C458.86,88 460.124,87.62 461.036,86.86 C461.948,86.1 462.404,85.136 462.404,83.968 C462.404,83.104 462.124,82.328 461.564,81.64 C461.004,80.952 460.26,80.464 459.332,80.176 C460.58,79.44 461.204,78.448 461.204,77.2 C461.204,76.16 460.8,75.3 459.992,74.62 C459.184,73.94 458.044,73.6 456.572,73.6 L456.572,73.6 L450.116,73.6 L450.116,74.104 C451.108,74.104 451.736,74.268 452,74.596 C452.264,74.924 452.396,75.688 452.396,76.888 L452.396,76.888 L452.396,84.688 C452.396,85.888 452.264,86.656 452,86.992 C451.736,87.328 451.108,87.496 450.116,87.496 L450.116,87.496 L450.116,88 L457.244,88 Z M456.452,79.888 L454.316,79.888 L454.316,74.488 L456.452,74.488 C457.316,74.488 457.972,74.744 458.42,75.256 C458.868,75.768 459.092,76.416 459.092,77.2 C459.092,77.984 458.868,78.628 458.42,79.132 C457.972,79.636 457.316,79.888 456.452,79.888 L456.452,79.888 Z M457.22,87.112 L456.596,87.112 C455.604,87.112 454.976,86.948 454.712,86.62 C454.448,86.292 454.316,85.528 454.316,84.328 L454.316,84.328 L454.316,80.776 L457.22,80.776 C458.212,80.776 458.972,81.076 459.5,81.676 C460.028,82.276 460.292,83.04 460.292,83.968 C460.292,84.88 460.028,85.632 459.5,86.224 C458.972,86.816 458.212,87.112 457.22,87.112 L457.22,87.112 Z" id="B" fill="#1A80AA" fill-rule="nonzero"></path>
            <path d="M577.268,88.408 C578.932,88.408 580.42,87.728 581.732,86.368 C582.148,86.656 582.42,87.112 582.548,87.736 L582.548,87.736 L583.028,87.736 L583.028,82.456 L582.548,82.456 C582.212,84.008 581.592,85.228 580.688,86.116 C579.784,87.004 578.676,87.448 577.364,87.448 C576.452,87.448 575.644,87.244 574.94,86.836 C574.236,86.428 573.688,85.892 573.296,85.228 C572.904,84.564 572.612,83.856 572.42,83.104 C572.228,82.352 572.132,81.584 572.132,80.8 C572.132,80.016 572.228,79.248 572.42,78.496 C572.612,77.744 572.904,77.032 573.296,76.36 C573.688,75.688 574.236,75.148 574.94,74.74 C575.644,74.332 576.452,74.128 577.364,74.128 C578.676,74.128 579.784,74.568 580.688,75.448 C581.592,76.328 582.212,77.56 582.548,79.144 L582.548,79.144 L583.028,79.144 L583.028,73.864 L582.548,73.864 C582.436,74.44 582.164,74.896 581.732,75.232 C580.452,73.872 578.964,73.192 577.268,73.192 C575.236,73.192 573.5,73.936 572.06,75.424 C570.62,76.912 569.9,78.704 569.9,80.8 C569.9,82.896 570.62,84.688 572.06,86.176 C573.5,87.664 575.236,88.408 577.268,88.408 Z" id="C" fill="#1A80AA" fill-rule="nonzero"></path>
            <circle id="Oval-2-Copy-13" fill="#524740" cx="576" cy="104" r="5"></circle>
            <circle id="Oval-2-Copy-15" stroke="#524740" stroke-width="2" cx="456" cy="138" r="4"></circle>
            <circle id="Oval-2-Copy-11" stroke="#524740" stroke-width="2" cx="456" cy="255" r="4"></circle>
            <line x1="431" y1="104" x2="481" y2="104" id="Path-11-Copy" stroke="#524740" stroke-width="2"></line>
            <line x1="456" y1="104" x2="456" y2="135" id="Path-12-Copy" stroke="#524740" stroke-width="2"></line>
            <line x1="456" y1="258" x2="456" y2="289" id="Path-12-Copy-6" stroke="#524740" stroke-width="2"></line>
            <polyline id="Path-12-Copy-2" stroke="#524740" stroke-width="2" points="551 104 576 104 576 253.906288"></polyline>
            <polyline id="Path-12-Copy-3" stroke="#524740" stroke-width="2" transform="translate(376.000000, 262.000000) scale(1, -1) translate(-376.000000, -262.000000) " points="176 288 176 236 576 236 576 288"></polyline>
            <g id="Group-4-Copy" transform="translate(453.000000, 143.000000)">
                <line x1="3" y1="1" x2="3" y2="56.5202666" id="Path-14" stroke="#23ABE3"></line>
                <polygon id="Triangle" fill="#23ABE3" points="3 0 6 6 0 6"></polygon>
            </g>
            <g id="Group-3-Copy" transform="translate(453.000000, 230.000000)">
                <line x1="3" y1="0.493244477" x2="3" y2="19" id="Path-14-Copy" stroke="#23ABE3"></line>
                <polygon id="Triangle-Copy" fill="#23ABE3" points="3 20 0 14 6 14"></polygon>
            </g>
        </g>
    </g>
</svg>