<?xml version="1.0" encoding="UTF-8"?>
<svg width="900px" height="350px" viewBox="0 0 900 350" version="1.1" xmlns="http://www.w3.org/2000/svg" xmlns:xlink="http://www.w3.org/1999/xlink">
    <!-- Generator: Sketch 60.1 (88133) - https://sketch.com -->
    <title>Voltage_Divider_Third_Leg</title>
    <desc>Created with Sketch.</desc>
    <g id="Voltage_Divider_Third_Leg" stroke="none" stroke-width="1" fill="none" fill-rule="evenodd">
        <g id="Illustration_Frame">
            <rect id="Rectangle" stroke="#3D3530" stroke-width="2" fill="#EEEEEE" x="1" y="1" width="898" height="348"></rect>
            <rect id="Rectangle-Copy" stroke="#3D3530" stroke-width="2" fill="#F8FAE4" x="1" y="306" width="898" height="43"></rect>
            <path d="M591.797332,335 L598.157332,318.872 L596.549332,318.872 L591.005332,332.96 L585.437332,318.872 L583.805332,318.872 L590.189332,335 L591.797332,335 Z M604.487999,335.192 C606.199999,335.192 607.655999,334.584 608.855999,333.368 C610.071999,332.152 610.679999,330.696 610.679999,329 C610.679999,327.288 610.075999,325.828 608.867999,324.62 C607.659999,323.412 606.199999,322.808 604.487999,322.808 C602.775999,322.808 601.315999,323.412 600.107999,324.62 C598.899999,325.828 598.295999,327.288 598.295999,329 C598.295999,330.712 598.899999,332.172 600.107999,333.38 C601.315999,334.588 602.775999,335.192 604.487999,335.192 Z M604.511999,333.68 C603.231999,333.68 602.143999,333.228 601.247999,332.324 C600.351999,331.42 599.903999,330.312 599.903999,329 C599.903999,327.688 600.351999,326.576 601.247999,325.664 C602.143999,324.752 603.231999,324.296 604.511999,324.296 C605.807999,324.296 606.899999,324.752 607.787999,325.664 C608.675999,326.576 609.119999,327.688 609.119999,329 C609.119999,330.312 608.675999,331.42 607.787999,332.324 C606.899999,333.228 605.807999,333.68 604.511999,333.68 Z M615.546666,335 L615.546666,317.144 L613.962666,317.144 L613.962666,335 L615.546666,335 Z M623.965333,335.192 C624.557333,335.192 625.133333,335.036 625.693333,334.724 C626.253333,334.412 626.613333,334.168 626.773333,333.992 C626.933333,333.816 627.061333,333.664 627.157333,333.536 L627.157333,333.536 L626.365333,332.312 C626.365333,332.376 626.281333,332.516 626.113333,332.732 C625.945333,332.948 625.685333,333.168 625.333333,333.392 C624.981333,333.616 624.621333,333.728 624.253333,333.728 C623.661333,333.728 623.137333,333.512 622.681333,333.08 C622.225333,332.648 621.997333,332.064 621.997333,331.328 L621.997333,331.328 L621.997333,324.44 L625.621333,324.44 L625.621333,322.976 L621.997333,322.976 L621.997333,318.992 L620.413333,319.184 L620.413333,322.976 L618.493333,322.976 L618.493333,324.44 L620.413333,324.44 L620.413333,331.688 C620.413333,332.824 620.753333,333.692 621.433333,334.292 C622.113333,334.892 622.957333,335.192 623.965333,335.192 Z M634.807999,335.192 C636.695999,335.192 638.255999,334.48 639.487999,333.056 L639.487999,333.056 L639.487999,335 L641.071999,335 L641.071999,323 L639.487999,323 L639.487999,324.944 C638.271999,323.52 636.711999,322.808 634.807999,322.808 C633.095999,322.808 631.635999,323.412 630.427999,324.62 C629.219999,325.828 628.615999,327.288 628.615999,329 C628.615999,330.712 629.219999,332.172 630.427999,333.38 C631.635999,334.588 633.095999,335.192 634.807999,335.192 Z M634.831999,333.68 C633.551999,333.68 632.459999,333.228 631.555999,332.324 C630.651999,331.42 630.199999,330.312 630.199999,329 C630.199999,327.688 630.651999,326.58 631.555999,325.676 C632.459999,324.772 633.551999,324.32 634.831999,324.32 C636.127999,324.32 637.219999,324.772 638.107999,325.676 C638.995999,326.58 639.439999,327.688 639.439999,329 C639.439999,330.312 638.995999,331.42 638.107999,332.324 C637.219999,333.228 636.127999,333.68 634.831999,333.68 Z M650.618666,340.112 C652.250666,340.112 653.686666,339.524 654.926666,338.348 C656.166666,337.172 656.794666,335.712 656.810666,333.968 L656.810666,333.968 L656.810666,323.024 L655.202666,323.024 L655.202666,324.968 C653.970666,323.544 652.410666,322.832 650.522666,322.832 C648.810666,322.832 647.350666,323.436 646.142666,324.644 C644.934666,325.852 644.330666,327.312 644.330666,329.024 C644.330666,330.736 644.934666,332.196 646.142666,333.404 C647.350666,334.612 648.810666,335.216 650.522666,335.216 C652.426666,335.216 653.986666,334.504 655.202666,333.08 L655.202666,333.08 L655.202666,333.968 L655.226666,333.968 C655.210666,335.216 654.758666,336.308 653.870666,337.244 C652.982666,338.18 651.898666,338.648 650.618666,338.648 C649.530666,338.648 648.562666,338.344 647.714666,337.736 C646.866666,337.128 646.290666,336.416 645.986666,335.6 L645.986666,335.6 L644.690666,336.248 C645.058666,337.24 645.766666,338.132 646.814666,338.924 C647.862666,339.716 649.130666,340.112 650.618666,340.112 Z M650.546666,333.728 C649.266666,333.728 648.178666,333.276 647.282666,332.372 C646.386666,331.468 645.938666,330.36 645.938666,329.048 C645.938666,327.736 646.386666,326.628 647.282666,325.724 C648.178666,324.82 649.266666,324.368 650.546666,324.368 C651.842666,324.368 652.934666,324.82 653.822666,325.724 C654.710666,326.628 655.154666,327.736 655.154666,329.048 C655.154666,330.36 654.710666,331.468 653.822666,332.372 C652.934666,333.276 651.842666,333.728 650.546666,333.728 Z M666.285333,335.072 C667.757333,335.088 669.025333,334.672 670.089333,333.824 C671.153333,332.976 671.869333,332.048 672.237333,331.04 L672.237333,331.04 L670.893333,330.56 C670.589333,331.376 670.013333,332.088 669.165333,332.696 C668.317333,333.304 667.357333,333.608 666.285333,333.608 C665.293333,333.624 664.389333,333.324 663.573333,332.708 C662.757333,332.092 662.213333,331.304 661.941333,330.344 L661.941333,330.344 L672.429333,328.448 C672.429333,328.32 672.421333,328.216 672.405333,328.136 C672.229333,326.6 671.557333,325.312 670.389333,324.272 C669.221333,323.232 667.853333,322.704 666.285333,322.688 C664.557333,322.704 663.093333,323.312 661.893333,324.512 C660.693333,325.712 660.093333,327.176 660.093333,328.904 C660.093333,329.528 660.173333,330.104 660.333333,330.632 C660.733333,331.928 661.489333,332.992 662.601333,333.824 C663.713333,334.656 664.941333,335.072 666.285333,335.072 Z M661.701333,329.048 C661.701333,328.968 661.697333,328.868 661.689333,328.748 C661.681333,328.628 661.677333,328.544 661.677333,328.496 C661.741333,327.312 662.201333,326.296 663.057333,325.448 C663.913333,324.6 664.941333,324.168 666.141333,324.152 C667.165333,324.136 668.093333,324.436 668.925333,325.052 C669.757333,325.668 670.325333,326.464 670.629333,327.44 L670.629333,327.44 L661.701333,329.048 Z M686.818666,335 C689.458666,335 691.566666,334.228 693.142666,332.684 C694.718666,331.14 695.506666,329.224 695.506666,326.936 C695.506666,324.632 694.722666,322.712 693.154666,321.176 C691.586666,319.64 689.474666,318.872 686.818666,318.872 L686.818666,318.872 L683.170666,318.872 L683.170666,335 L686.818666,335 Z M686.818666,333.488 L684.754666,333.488 L684.754666,320.384 L686.818666,320.384 C688.930666,320.384 690.618666,321.004 691.882666,322.244 C693.146666,323.484 693.778666,325.048 693.778666,326.936 C693.778666,328.824 693.146666,330.388 691.882666,331.628 C690.618666,332.868 688.930666,333.488 686.818666,333.488 L686.818666,333.488 Z M699.941333,319.688 C700.213333,319.688 700.437333,319.592 700.613333,319.4 C700.805333,319.208 700.901333,318.984 700.901333,318.728 C700.901333,318.472 700.809333,318.248 700.625333,318.056 C700.441333,317.864 700.213333,317.768 699.941333,317.768 C699.669333,317.768 699.441333,317.864 699.257333,318.056 C699.073333,318.248 698.981333,318.472 698.981333,318.728 C698.981333,318.984 699.073333,319.208 699.257333,319.4 C699.441333,319.592 699.669333,319.688 699.941333,319.688 Z M700.733333,335 L700.733333,323 L699.149333,323 L699.149333,335 L700.733333,335 Z M709.823999,335 L714.071999,323 L712.487999,323 L709.031999,332.768 L705.599999,323 L704.015999,323 L708.239999,335 L709.823999,335 Z M717.882666,319.688 C718.154666,319.688 718.378666,319.592 718.554666,319.4 C718.746666,319.208 718.842666,318.984 718.842666,318.728 C718.842666,318.472 718.750666,318.248 718.566666,318.056 C718.382666,317.864 718.154666,317.768 717.882666,317.768 C717.610666,317.768 717.382666,317.864 717.198666,318.056 C717.014666,318.248 716.922666,318.472 716.922666,318.728 C716.922666,318.984 717.014666,319.208 717.198666,319.4 C717.382666,319.592 717.610666,319.688 717.882666,319.688 Z M718.674666,335 L718.674666,323 L717.090666,323 L717.090666,335 L718.674666,335 Z M728.341333,335.192 C730.229333,335.192 731.789333,334.48 733.021333,333.056 L733.021333,333.056 L733.021333,335 L734.605333,335 L734.605333,317.144 L733.021333,317.144 L733.021333,324.944 C731.805333,323.52 730.245333,322.808 728.341333,322.808 C726.629333,322.808 725.169333,323.412 723.961333,324.62 C722.753333,325.828 722.149333,327.288 722.149333,329 C722.149333,330.712 722.753333,332.172 723.961333,333.38 C725.169333,334.588 726.629333,335.192 728.341333,335.192 Z M728.365333,333.68 C727.069333,333.68 725.973333,333.232 725.077333,332.336 C724.181333,331.424 723.733333,330.312 723.733333,329 C723.733333,327.688 724.181333,326.58 725.077333,325.676 C725.973333,324.772 727.069333,324.32 728.365333,324.32 C729.661333,324.32 730.753333,324.772 731.641333,325.676 C732.529333,326.58 732.973333,327.688 732.973333,329 C732.973333,330.312 732.529333,331.42 731.641333,332.324 C730.753333,333.228 729.661333,333.68 728.365333,333.68 Z M744.032,335.072 C745.504,335.088 746.772,334.672 747.836,333.824 C748.9,332.976 749.616,332.048 749.984,331.04 L749.984,331.04 L748.64,330.56 C748.336,331.376 747.76,332.088 746.912,332.696 C746.064,333.304 745.104,333.608 744.032,333.608 C743.04,333.624 742.136,333.324 741.32,332.708 C740.504,332.092 739.96,331.304 739.688,330.344 L739.688,330.344 L750.176,328.448 C750.176,328.32 750.168,328.216 750.152,328.136 C749.976,326.6 749.304,325.312 748.136,324.272 C746.968,323.232 745.6,322.704 744.032,322.688 C742.304,322.704 740.84,323.312 739.64,324.512 C738.44,325.712 737.84,327.176 737.84,328.904 C737.84,329.528 737.92,330.104 738.08,330.632 C738.48,331.928 739.236,332.992 740.348,333.824 C741.46,334.656 742.688,335.072 744.032,335.072 Z M739.448,329.048 C739.448,328.968 739.444,328.868 739.436,328.748 C739.428,328.628 739.424,328.544 739.424,328.496 C739.488,327.312 739.948,326.296 740.804,325.448 C741.66,324.6 742.688,324.168 743.888,324.152 C744.912,324.136 745.84,324.436 746.672,325.052 C747.504,325.668 748.072,326.464 748.376,327.44 L748.376,327.44 L739.448,329.048 Z M754.682666,335 L754.682666,327.968 C754.682666,326.928 755.026666,326.052 755.714666,325.34 C756.402666,324.628 757.250666,324.272 758.258666,324.272 C758.946666,324.272 759.626666,324.52 760.298666,325.016 L760.298666,325.016 L760.850666,323.432 C760.146666,323.016 759.370666,322.808 758.522666,322.808 C756.938666,322.808 755.658666,323.464 754.682666,324.776 L754.682666,324.776 L754.682666,323 L753.098666,323 L753.098666,335 L754.682666,335 Z M777.52,335 L777.52,320.456 L783.256,320.456 L783.256,318.872 L770.2,318.872 L770.2,320.456 L775.936,320.456 L775.936,335 L777.52,335 Z M787.714666,335 L787.714666,327.968 C787.714666,326.944 788.062666,326.076 788.758666,325.364 C789.454666,324.652 790.298666,324.296 791.290666,324.296 C792.298666,324.296 793.146666,324.652 793.834666,325.364 C794.522666,326.076 794.866666,326.952 794.866666,327.992 L794.866666,327.992 L794.866666,335 L796.474666,335 L796.474666,327.968 C796.474666,326.528 796.002666,325.308 795.058666,324.308 C794.114666,323.308 792.946666,322.808 791.554666,322.808 C789.970666,322.808 788.690666,323.464 787.714666,324.776 L787.714666,324.776 L787.714666,317.144 L786.130666,317.144 L786.130666,335 L787.714666,335 Z M801.413333,319.688 C801.685333,319.688 801.909333,319.592 802.085333,319.4 C802.277333,319.208 802.373333,318.984 802.373333,318.728 C802.373333,318.472 802.281333,318.248 802.097333,318.056 C801.913333,317.864 801.685333,317.768 801.413333,317.768 C801.141333,317.768 800.913333,317.864 800.729333,318.056 C800.545333,318.248 800.453333,318.472 800.453333,318.728 C800.453333,318.984 800.545333,319.208 800.729333,319.4 C800.913333,319.592 801.141333,319.688 801.413333,319.688 Z M802.205333,335 L802.205333,323 L800.621333,323 L800.621333,335 L802.205333,335 Z M808.128,335 L808.128,327.968 C808.128,326.928 808.472,326.052 809.16,325.34 C809.848,324.628 810.696,324.272 811.704,324.272 C812.392,324.272 813.072,324.52 813.744,325.016 L813.744,325.016 L814.296,323.432 C813.592,323.016 812.816,322.808 811.968,322.808 C810.384,322.808 809.104,323.464 808.128,324.776 L808.128,324.776 L808.128,323 L806.544,323 L806.544,335 L808.128,335 Z M821.610666,335.192 C823.498666,335.192 825.058666,334.48 826.290666,333.056 L826.290666,333.056 L826.290666,335 L827.874666,335 L827.874666,317.144 L826.290666,317.144 L826.290666,324.944 C825.074666,323.52 823.514666,322.808 821.610666,322.808 C819.898666,322.808 818.438666,323.412 817.230666,324.62 C816.022666,325.828 815.418666,327.288 815.418666,329 C815.418666,330.712 816.022666,332.172 817.230666,333.38 C818.438666,334.588 819.898666,335.192 821.610666,335.192 Z M821.634666,333.68 C820.338666,333.68 819.242666,333.232 818.346666,332.336 C817.450666,331.424 817.002666,330.312 817.002666,329 C817.002666,327.688 817.450666,326.58 818.346666,325.676 C819.242666,324.772 820.338666,324.32 821.634666,324.32 C822.930666,324.32 824.022666,324.772 824.910666,325.676 C825.798666,326.58 826.242666,327.688 826.242666,329 C826.242666,330.312 825.798666,331.42 824.910666,332.324 C824.022666,333.228 822.930666,333.68 821.634666,333.68 Z M848.144,335 L848.144,333.416 L840.8,333.416 L840.8,318.872 L839.216,318.872 L839.216,335 L848.144,335 Z M856.106667,335.072 C857.578667,335.088 858.846667,334.672 859.910667,333.824 C860.974667,332.976 861.690667,332.048 862.058667,331.04 L862.058667,331.04 L860.714667,330.56 C860.410667,331.376 859.834667,332.088 858.986667,332.696 C858.138667,333.304 857.178667,333.608 856.106667,333.608 C855.114667,333.624 854.210667,333.324 853.394667,332.708 C852.578667,332.092 852.034667,331.304 851.762667,330.344 L851.762667,330.344 L862.250667,328.448 C862.250667,328.32 862.242667,328.216 862.226667,328.136 C862.050667,326.6 861.378667,325.312 860.210667,324.272 C859.042667,323.232 857.674667,322.704 856.106667,322.688 C854.378667,322.704 852.914667,323.312 851.714667,324.512 C850.514667,325.712 849.914667,327.176 849.914667,328.904 C849.914667,329.528 849.994667,330.104 850.154667,330.632 C850.554667,331.928 851.310667,332.992 852.422667,333.824 C853.534667,334.656 854.762667,335.072 856.106667,335.072 Z M851.522667,329.048 C851.522667,328.968 851.518667,328.868 851.510667,328.748 C851.502667,328.628 851.498667,328.544 851.498667,328.496 C851.562667,327.312 852.022667,326.296 852.878667,325.448 C853.734667,324.6 854.762667,324.168 855.962667,324.152 C856.986667,324.136 857.914667,324.436 858.746667,325.052 C859.578667,325.668 860.146667,326.464 860.450667,327.44 L860.450667,327.44 L851.522667,329.048 Z M871.389333,340.112 C873.021333,340.112 874.457333,339.524 875.697333,338.348 C876.937333,337.172 877.565333,335.712 877.581333,333.968 L877.581333,333.968 L877.581333,323.024 L875.973333,323.024 L875.973333,324.968 C874.741333,323.544 873.181333,322.832 871.293333,322.832 C869.581333,322.832 868.121333,323.436 866.913333,324.644 C865.705333,325.852 865.101333,327.312 865.101333,329.024 C865.101333,330.736 865.705333,332.196 866.913333,333.404 C868.121333,334.612 869.581333,335.216 871.293333,335.216 C873.197333,335.216 874.757333,334.504 875.973333,333.08 L875.973333,333.08 L875.973333,333.968 L875.997333,333.968 C875.981333,335.216 875.529333,336.308 874.641333,337.244 C873.753333,338.18 872.669333,338.648 871.389333,338.648 C870.301333,338.648 869.333333,338.344 868.485333,337.736 C867.637333,337.128 867.061333,336.416 866.757333,335.6 L866.757333,335.6 L865.461333,336.248 C865.829333,337.24 866.537333,338.132 867.585333,338.924 C868.633333,339.716 869.901333,340.112 871.389333,340.112 Z M871.317333,333.728 C870.037333,333.728 868.949333,333.276 868.053333,332.372 C867.157333,331.468 866.709333,330.36 866.709333,329.048 C866.709333,327.736 867.157333,326.628 868.053333,325.724 C868.949333,324.82 870.037333,324.368 871.317333,324.368 C872.613333,324.368 873.705333,324.82 874.593333,325.724 C875.481333,326.628 875.925333,327.736 875.925333,329.048 C875.925333,330.36 875.481333,331.468 874.593333,332.372 C873.705333,333.276 872.613333,333.728 871.317333,333.728 Z" id="VoltageDividerThirdLeg" fill="#23ABE3" fill-rule="nonzero"></path>
        </g>
        <g transform="translate(341.000000, 26.000000)">
            <rect id="Rectangle" stroke="#1A80AA" fill="#E3F4FB" x="0.5" y="109.5" width="144" height="113"></rect>
            <g id="Vout" transform="translate(90.000000, 155.000000)" fill-rule="nonzero">
                <path d="M14.072,17 L14.264,13.808 L13.76,13.808 L13.64,14.288 C13.464,14.992 13.216,15.472 12.896,15.728 C12.576,15.984 11.904,16.112 10.88,16.112 L10.88,16.112 L8,16.112 C7.008,16.112 6.38,15.948 6.116,15.62 C5.852,15.292 5.72,14.528 5.72,13.328 L5.72,13.328 L5.72,5.888 C5.72,4.688 5.852,3.924 6.116,3.596 C6.38,3.268 7.008,3.104 8,3.104 L8,3.104 L8,2.6 L1.52,2.6 L1.52,3.104 C2.512,3.104 3.14,3.268 3.404,3.596 C3.668,3.924 3.8,4.688 3.8,5.888 L3.8,5.888 L3.8,13.688 C3.8,14.888 3.668,15.656 3.404,15.992 C3.14,16.328 2.512,16.496 1.52,16.496 L1.52,16.496 L1.52,17 L14.072,17 Z M20.408,17.408 C21.736,17.408 22.876,16.976 23.828,16.112 C24.78,15.248 25.256,14.208 25.256,12.992 C25.256,11.776 24.776,10.744 23.816,9.896 C22.872,9.032 21.736,8.6 20.408,8.6 C19.08,8.6 17.94,9.028 16.988,9.884 C16.036,10.74 15.56,11.776 15.56,12.992 C15.56,14.208 16.036,15.248 16.988,16.112 C17.94,16.976 19.08,17.408 20.408,17.408 Z M20.408,16.472 C19.464,16.472 18.744,16.144 18.248,15.488 C17.752,14.832 17.504,14 17.504,12.992 C17.504,11.984 17.752,11.152 18.248,10.496 C18.744,9.84 19.464,9.512 20.408,9.512 C21.352,9.512 22.072,9.836 22.568,10.484 C23.064,11.132 23.312,11.968 23.312,12.992 C23.312,14.016 23.064,14.856 22.568,15.512 C22.072,16.152 21.352,16.472 20.408,16.472 Z M29.48,17.312 C30.408,17.312 31.408,16.832 32.48,15.872 C32.608,16.8 33.152,17.264 34.112,17.264 C34.704,17.264 35.232,17.016 35.696,16.52 L35.696,16.52 L35.36,16.064 C35.12,16.304 34.896,16.424 34.688,16.424 C34.32,16.424 34.136,16.112 34.136,15.488 L34.136,15.488 L34.136,11.864 C34.136,10.712 33.88,9.88 33.368,9.368 C32.856,8.856 32.016,8.6 30.848,8.6 C30.048,8.6 29.34,8.78 28.724,9.14 C28.108,9.5 27.8,9.96 27.8,10.52 C27.8,10.76 27.88,10.96 28.04,11.12 C28.2,11.28 28.4,11.36 28.64,11.36 C28.864,11.36 29.056,11.28 29.216,11.12 C29.376,10.96 29.456,10.76 29.456,10.52 C29.456,10.168 29.604,9.888 29.9,9.68 C30.196,9.472 30.504,9.368 30.824,9.368 C31.48,9.368 31.912,9.552 32.12,9.92 C32.328,10.288 32.432,10.944 32.432,11.888 C29.024,12.48 27.32,13.616 27.32,15.296 C27.32,15.92 27.528,16.412 27.944,16.772 C28.36,17.132 28.872,17.312 29.48,17.312 Z M30.248,16.232 C29.928,16.232 29.66,16.12 29.444,15.896 C29.228,15.672 29.12,15.376 29.12,15.008 C29.12,13.936 30.224,13.144 32.432,12.632 L32.432,12.632 L32.432,15.08 C31.568,15.848 30.84,16.232 30.248,16.232 Z M44.744,17.408 L47.936,16.808 L47.936,16.304 C47.136,16.304 46.62,16.136 46.388,15.8 C46.156,15.464 46.04,14.696 46.04,13.496 L46.04,13.496 L46.04,2.192 L42.44,2.792 L42.44,3.296 C43.24,3.296 43.756,3.464 43.988,3.8 C44.22,4.136 44.336,4.904 44.336,6.104 L44.336,6.104 L44.336,10.016 C43.568,9.072 42.592,8.6 41.408,8.6 C40.272,8.6 39.292,9.028 38.468,9.884 C37.644,10.74 37.232,11.776 37.232,12.992 C37.232,14.208 37.644,15.248 38.468,16.112 C39.292,16.976 40.272,17.408 41.408,17.408 C42.592,17.408 43.576,16.92 44.36,15.944 C44.504,16.68 44.632,17.168 44.744,17.408 L44.744,17.408 Z M41.912,16.448 C41.016,16.448 40.336,16.128 39.872,15.488 C39.408,14.848 39.176,14.016 39.176,12.992 C39.176,11.984 39.408,11.16 39.872,10.52 C40.336,9.88 41.016,9.56 41.912,9.56 C42.44,9.56 42.92,9.732 43.352,10.076 C43.784,10.42 44.112,10.88 44.336,11.456 L44.336,11.456 L44.336,14.552 C44.112,15.128 43.784,15.588 43.352,15.932 C42.92,16.276 42.44,16.448 41.912,16.448 Z" id="Load" fill="#1A80AA"></path>
                <path d="M69.484,17 L69.484,16.496 C68.492,16.496 67.864,16.328 67.6,15.992 C67.336,15.656 67.204,14.888 67.204,13.688 L67.204,13.688 L67.204,10.688 L69.34,10.688 C70.956,10.688 72.22,10.308 73.132,9.548 C74.044,8.788 74.5,7.824 74.5,6.656 C74.5,5.488 74.044,4.52 73.132,3.752 C72.22,2.984 70.956,2.6 69.34,2.6 L69.34,2.6 L63.004,2.6 L63.004,3.104 C63.996,3.104 64.624,3.268 64.888,3.596 C65.152,3.924 65.284,4.688 65.284,5.888 L65.284,5.888 L65.284,13.688 C65.284,14.888 65.152,15.656 64.888,15.992 C64.624,16.328 63.996,16.496 63.004,16.496 L63.004,16.496 L63.004,17 L69.484,17 Z M69.316,9.824 L67.204,9.824 L67.204,3.488 L69.316,3.488 C70.308,3.488 71.064,3.784 71.584,4.376 C72.104,4.968 72.364,5.728 72.364,6.656 C72.364,7.584 72.104,8.344 71.584,8.936 C71.064,9.528 70.308,9.824 69.316,9.824 L69.316,9.824 Z M78.364,17.312 C79.292,17.312 80.292,16.832 81.364,15.872 C81.492,16.8 82.036,17.264 82.996,17.264 C83.588,17.264 84.116,17.016 84.58,16.52 L84.58,16.52 L84.244,16.064 C84.004,16.304 83.78,16.424 83.572,16.424 C83.204,16.424 83.02,16.112 83.02,15.488 L83.02,15.488 L83.02,11.864 C83.02,10.712 82.764,9.88 82.252,9.368 C81.74,8.856 80.9,8.6 79.732,8.6 C78.932,8.6 78.224,8.78 77.608,9.14 C76.992,9.5 76.684,9.96 76.684,10.52 C76.684,10.76 76.764,10.96 76.924,11.12 C77.084,11.28 77.284,11.36 77.524,11.36 C77.748,11.36 77.94,11.28 78.1,11.12 C78.26,10.96 78.34,10.76 78.34,10.52 C78.34,10.168 78.488,9.888 78.784,9.68 C79.08,9.472 79.388,9.368 79.708,9.368 C80.364,9.368 80.796,9.552 81.004,9.92 C81.212,10.288 81.316,10.944 81.316,11.888 C77.908,12.48 76.204,13.616 76.204,15.296 C76.204,15.92 76.412,16.412 76.828,16.772 C77.244,17.132 77.756,17.312 78.364,17.312 Z M79.132,16.232 C78.812,16.232 78.544,16.12 78.328,15.896 C78.112,15.672 78.004,15.376 78.004,15.008 C78.004,13.936 79.108,13.144 81.316,12.632 L81.316,12.632 L81.316,15.08 C80.452,15.848 79.724,16.232 79.132,16.232 Z M91.372,17 L91.372,16.496 C90.572,16.496 90.056,16.328 89.824,15.992 C89.592,15.656 89.476,14.888 89.476,13.688 L89.476,13.688 L89.476,12.368 C89.476,11.52 89.692,10.84 90.124,10.328 C90.556,9.816 90.956,9.56 91.324,9.56 C91.836,9.56 92.092,9.824 92.092,10.352 C92.092,10.576 92.176,10.776 92.344,10.952 C92.512,11.128 92.708,11.216 92.932,11.216 C93.572,11.216 93.892,10.84 93.892,10.088 C93.892,9.736 93.728,9.4 93.4,9.08 C93.072,8.76 92.604,8.6 91.996,8.6 C91.516,8.6 91.036,8.768 90.556,9.104 C90.076,9.44 89.716,9.848 89.476,10.328 C89.348,9.48 89.212,8.904 89.068,8.6 L89.068,8.6 L85.876,9.2 L85.876,9.704 C86.676,9.704 87.192,9.872 87.424,10.208 C87.656,10.544 87.772,11.304 87.772,12.488 L87.772,12.488 L87.772,13.688 C87.772,14.888 87.656,15.656 87.424,15.992 C87.192,16.328 86.676,16.496 85.876,16.496 L85.876,16.496 L85.876,17 L91.372,17 Z M97.468,17.312 C98.396,17.312 99.396,16.832 100.468,15.872 C100.596,16.8 101.14,17.264 102.1,17.264 C102.692,17.264 103.22,17.016 103.684,16.52 L103.684,16.52 L103.348,16.064 C103.108,16.304 102.884,16.424 102.676,16.424 C102.308,16.424 102.124,16.112 102.124,15.488 L102.124,15.488 L102.124,11.864 C102.124,10.712 101.868,9.88 101.356,9.368 C100.844,8.856 100.004,8.6 98.836,8.6 C98.036,8.6 97.328,8.78 96.712,9.14 C96.096,9.5 95.788,9.96 95.788,10.52 C95.788,10.76 95.868,10.96 96.028,11.12 C96.188,11.28 96.388,11.36 96.628,11.36 C96.852,11.36 97.044,11.28 97.204,11.12 C97.364,10.96 97.444,10.76 97.444,10.52 C97.444,10.168 97.592,9.888 97.888,9.68 C98.184,9.472 98.492,9.368 98.812,9.368 C99.468,9.368 99.9,9.552 100.108,9.92 C100.316,10.288 100.42,10.944 100.42,11.888 C97.012,12.48 95.308,13.616 95.308,15.296 C95.308,15.92 95.516,16.412 95.932,16.772 C96.348,17.132 96.86,17.312 97.468,17.312 Z M98.236,16.232 C97.916,16.232 97.648,16.12 97.432,15.896 C97.216,15.672 97.108,15.376 97.108,15.008 C97.108,13.936 98.212,13.144 100.42,12.632 L100.42,12.632 L100.42,15.08 C99.556,15.848 98.828,16.232 98.236,16.232 Z M110.02,17 L110.02,16.496 C109.22,16.496 108.704,16.328 108.472,15.992 C108.24,15.656 108.124,14.888 108.124,13.688 L108.124,13.688 L108.124,2.192 L104.524,2.792 L104.524,3.296 C105.324,3.296 105.84,3.464 106.072,3.8 C106.304,4.136 106.42,4.904 106.42,6.104 L106.42,6.104 L106.42,13.688 C106.42,14.888 106.304,15.656 106.072,15.992 C105.84,16.328 105.324,16.496 104.524,16.496 L104.524,16.496 L104.524,17 L110.02,17 Z M116.452,17 L116.452,16.496 C115.652,16.496 115.136,16.328 114.904,15.992 C114.672,15.656 114.556,14.888 114.556,13.688 L114.556,13.688 L114.556,2.192 L110.956,2.792 L110.956,3.296 C111.756,3.296 112.272,3.464 112.504,3.8 C112.736,4.136 112.852,4.904 112.852,6.104 L112.852,6.104 L112.852,13.688 C112.852,14.888 112.736,15.656 112.504,15.992 C112.272,16.328 111.756,16.496 110.956,16.496 L110.956,16.496 L110.956,17 L116.452,17 Z M122.524,17.408 C123.196,17.408 123.868,17.26 124.54,16.964 C125.212,16.668 125.764,16.288 126.196,15.824 L126.196,15.824 L125.764,15.296 C125.428,15.616 125.004,15.88 124.492,16.088 C123.98,16.296 123.524,16.4 123.124,16.4 C121.94,16.4 121.088,16.028 120.568,15.284 C120.048,14.54 119.86,13.576 120.004,12.392 L120.004,12.392 L125.788,12.392 C126.076,11.384 125.876,10.5 125.188,9.74 C124.5,8.98 123.612,8.6 122.524,8.6 C121.372,8.6 120.344,9.024 119.44,9.872 C118.536,10.72 118.084,11.76 118.084,12.992 C118.084,14.224 118.5,15.268 119.332,16.124 C120.164,16.98 121.228,17.408 122.524,17.408 Z M124.132,11.504 L120.148,11.504 C120.324,10.912 120.616,10.44 121.024,10.088 C121.432,9.736 121.892,9.56 122.404,9.56 C123.124,9.56 123.632,9.772 123.928,10.196 C124.224,10.62 124.292,11.056 124.132,11.504 L124.132,11.504 Z M133.012,17 L133.012,16.496 C132.212,16.496 131.696,16.328 131.464,15.992 C131.232,15.656 131.116,14.888 131.116,13.688 L131.116,13.688 L131.116,2.192 L127.516,2.792 L127.516,3.296 C128.316,3.296 128.832,3.464 129.064,3.8 C129.296,4.136 129.412,4.904 129.412,6.104 L129.412,6.104 L129.412,13.688 C129.412,14.888 129.296,15.656 129.064,15.992 C128.832,16.328 128.316,16.496 127.516,16.496 L127.516,16.496 L127.516,17 L133.012,17 Z M146.476,17 L146.476,16.496 C145.484,16.496 144.856,16.328 144.592,15.992 C144.328,15.656 144.196,14.888 144.196,13.688 L144.196,13.688 L144.196,10.688 L145.324,10.688 L150.076,17 L154.036,17 L154.036,16.496 C152.628,16.336 151.14,15.32 149.572,13.448 L149.572,13.448 L147.22,10.688 C148.548,10.544 149.592,10.104 150.352,9.368 C151.112,8.632 151.492,7.728 151.492,6.656 C151.492,5.488 151.036,4.52 150.124,3.752 C149.212,2.984 147.948,2.6 146.332,2.6 L146.332,2.6 L139.996,2.6 L139.996,3.104 C140.988,3.104 141.616,3.268 141.88,3.596 C142.144,3.924 142.276,4.688 142.276,5.888 L142.276,5.888 L142.276,13.688 C142.276,14.888 142.144,15.656 141.88,15.992 C141.616,16.328 140.988,16.496 139.996,16.496 L139.996,16.496 L139.996,17 L146.476,17 Z M146.308,9.824 L144.196,9.824 L144.196,3.488 L146.308,3.488 C147.3,3.488 148.056,3.784 148.576,4.376 C149.096,4.968 149.356,5.728 149.356,6.656 C149.356,7.584 149.096,8.344 148.576,8.936 C148.056,9.528 147.3,9.824 146.308,9.824 L146.308,9.824 Z M159.556,17.408 C160.228,17.408 160.9,17.26 161.572,16.964 C162.244,16.668 162.796,16.288 163.228,15.824 L163.228,15.824 L162.796,15.296 C162.46,15.616 162.036,15.88 161.524,16.088 C161.012,16.296 160.556,16.4 160.156,16.4 C158.972,16.4 158.12,16.028 157.6,15.284 C157.08,14.54 156.892,13.576 157.036,12.392 L157.036,12.392 L162.82,12.392 C163.108,11.384 162.908,10.5 162.22,9.74 C161.532,8.98 160.644,8.6 159.556,8.6 C158.404,8.6 157.376,9.024 156.472,9.872 C155.568,10.72 155.116,11.76 155.116,12.992 C155.116,14.224 155.532,15.268 156.364,16.124 C157.196,16.98 158.26,17.408 159.556,17.408 Z M161.164,11.504 L157.18,11.504 C157.356,10.912 157.648,10.44 158.056,10.088 C158.464,9.736 158.924,9.56 159.436,9.56 C160.156,9.56 160.664,9.772 160.96,10.196 C161.256,10.62 161.324,11.056 161.164,11.504 L161.164,11.504 Z M165.748,17.408 C165.748,17.088 165.78,16.872 165.844,16.76 C165.908,16.648 166.02,16.62 166.18,16.676 C166.34,16.732 166.512,16.812 166.696,16.916 C166.88,17.02 167.124,17.128 167.428,17.24 C167.732,17.352 168.028,17.408 168.316,17.408 C169.116,17.408 169.792,17.164 170.344,16.676 C170.896,16.188 171.172,15.56 171.172,14.792 C171.172,13.88 170.62,13.112 169.516,12.488 L169.516,12.488 L168.364,11.864 C167.804,11.56 167.42,11.308 167.212,11.108 C167.004,10.908 166.9,10.672 166.9,10.4 C166.9,10.096 167.004,9.848 167.212,9.656 C167.42,9.464 167.724,9.368 168.124,9.368 C168.7,9.368 169.168,9.572 169.528,9.98 C169.888,10.388 170.068,10.856 170.068,11.384 L170.068,11.384 L170.572,11.384 L170.572,8.6 L170.068,8.6 C170.068,8.92 170.032,9.1 169.96,9.14 C169.888,9.18 169.756,9.144 169.564,9.032 C168.988,8.744 168.428,8.6 167.884,8.6 C167.244,8.6 166.68,8.808 166.192,9.224 C165.704,9.64 165.46,10.16 165.46,10.784 C165.46,11.808 165.988,12.608 167.044,13.184 L167.044,13.184 L168.388,13.904 C169.284,14.384 169.732,14.872 169.732,15.368 C169.732,15.704 169.6,15.992 169.336,16.232 C169.072,16.472 168.748,16.592 168.364,16.592 C167.58,16.592 166.948,16.3 166.468,15.716 C165.988,15.132 165.748,14.528 165.748,13.904 L165.748,13.904 L165.244,13.904 L165.244,17.408 L165.748,17.408 Z M175.9,6.248 C176.188,6.248 176.436,6.144 176.644,5.936 C176.852,5.728 176.956,5.472 176.956,5.168 C176.956,4.88 176.852,4.632 176.644,4.424 C176.436,4.216 176.188,4.112 175.9,4.112 C175.612,4.112 175.364,4.216 175.156,4.424 C174.948,4.632 174.844,4.88 174.844,5.168 C174.844,5.472 174.948,5.728 175.156,5.936 C175.364,6.144 175.612,6.248 175.9,6.248 Z M178.66,17 L178.66,16.496 C177.86,16.496 177.344,16.328 177.112,15.992 C176.88,15.656 176.764,14.888 176.764,13.688 L176.764,13.688 L176.764,8.6 L173.164,9.2 L173.164,9.704 C173.964,9.704 174.48,9.872 174.712,10.208 C174.944,10.544 175.06,11.304 175.06,12.488 L175.06,12.488 L175.06,13.688 C175.06,14.888 174.944,15.656 174.712,15.992 C174.48,16.328 173.964,16.496 173.164,16.496 L173.164,16.496 L173.164,17 L178.66,17 Z M180.772,17.408 C180.772,17.088 180.804,16.872 180.868,16.76 C180.932,16.648 181.044,16.62 181.204,16.676 C181.364,16.732 181.536,16.812 181.72,16.916 C181.904,17.02 182.148,17.128 182.452,17.24 C182.756,17.352 183.052,17.408 183.34,17.408 C184.14,17.408 184.816,17.164 185.368,16.676 C185.92,16.188 186.196,15.56 186.196,14.792 C186.196,13.88 185.644,13.112 184.54,12.488 L184.54,12.488 L183.388,11.864 C182.828,11.56 182.444,11.308 182.236,11.108 C182.028,10.908 181.924,10.672 181.924,10.4 C181.924,10.096 182.028,9.848 182.236,9.656 C182.444,9.464 182.748,9.368 183.148,9.368 C183.724,9.368 184.192,9.572 184.552,9.98 C184.912,10.388 185.092,10.856 185.092,11.384 L185.092,11.384 L185.596,11.384 L185.596,8.6 L185.092,8.6 C185.092,8.92 185.056,9.1 184.984,9.14 C184.912,9.18 184.78,9.144 184.588,9.032 C184.012,8.744 183.452,8.6 182.908,8.6 C182.268,8.6 181.704,8.808 181.216,9.224 C180.728,9.64 180.484,10.16 180.484,10.784 C180.484,11.808 181.012,12.608 182.068,13.184 L182.068,13.184 L183.412,13.904 C184.308,14.384 184.756,14.872 184.756,15.368 C184.756,15.704 184.624,15.992 184.36,16.232 C184.096,16.472 183.772,16.592 183.388,16.592 C182.604,16.592 181.972,16.3 181.492,15.716 C181.012,15.132 180.772,14.528 180.772,13.904 L180.772,13.904 L180.268,13.904 L180.268,17.408 L180.772,17.408 Z M191.428,17.336 C191.828,17.336 192.264,17.208 192.736,16.952 C193.208,16.696 193.612,16.368 193.948,15.968 L193.948,15.968 L193.54,15.56 C192.964,16.104 192.444,16.376 191.98,16.376 C191.26,16.376 190.9,15.8 190.9,14.648 L190.9,14.648 L190.9,9.848 L192.988,9.848 L192.988,9.008 L190.9,9.008 L190.9,6.368 L190.084,6.368 C189.988,7.2 189.78,7.856 189.46,8.336 C189.14,8.816 188.636,9.128 187.948,9.272 L187.948,9.272 L187.948,9.848 L189.196,9.848 L189.196,14.648 C189.196,15.544 189.396,16.216 189.796,16.664 C190.196,17.112 190.74,17.336 191.428,17.336 Z M197.428,17.312 C198.356,17.312 199.356,16.832 200.428,15.872 C200.556,16.8 201.1,17.264 202.06,17.264 C202.652,17.264 203.18,17.016 203.644,16.52 L203.644,16.52 L203.308,16.064 C203.068,16.304 202.844,16.424 202.636,16.424 C202.268,16.424 202.084,16.112 202.084,15.488 L202.084,15.488 L202.084,11.864 C202.084,10.712 201.828,9.88 201.316,9.368 C200.804,8.856 199.964,8.6 198.796,8.6 C197.996,8.6 197.288,8.78 196.672,9.14 C196.056,9.5 195.748,9.96 195.748,10.52 C195.748,10.76 195.828,10.96 195.988,11.12 C196.148,11.28 196.348,11.36 196.588,11.36 C196.812,11.36 197.004,11.28 197.164,11.12 C197.324,10.96 197.404,10.76 197.404,10.52 C197.404,10.168 197.552,9.888 197.848,9.68 C198.144,9.472 198.452,9.368 198.772,9.368 C199.428,9.368 199.86,9.552 200.068,9.92 C200.276,10.288 200.38,10.944 200.38,11.888 C196.972,12.48 195.268,13.616 195.268,15.296 C195.268,15.92 195.476,16.412 195.892,16.772 C196.308,17.132 196.82,17.312 197.428,17.312 Z M198.196,16.232 C197.876,16.232 197.608,16.12 197.392,15.896 C197.176,15.672 197.068,15.376 197.068,15.008 C197.068,13.936 198.172,13.144 200.38,12.632 L200.38,12.632 L200.38,15.08 C199.516,15.848 198.788,16.232 198.196,16.232 Z M210.22,17 L210.22,16.496 C209.484,16.496 209.02,16.336 208.828,16.016 C208.636,15.696 208.54,14.92 208.54,13.688 L208.54,13.688 L208.54,12.128 C208.54,11.488 208.828,10.928 209.404,10.448 C209.98,9.968 210.612,9.728 211.3,9.728 C212.628,9.728 213.292,10.584 213.292,12.296 L213.292,12.296 L213.292,13.688 C213.292,14.872 213.172,15.636 212.932,15.98 C212.692,16.324 212.18,16.496 211.396,16.496 L211.396,16.496 L211.396,17 L216.892,17 L216.892,16.496 C216.092,16.496 215.576,16.328 215.344,15.992 C215.112,15.656 214.996,14.888 214.996,13.688 L214.996,13.688 L214.996,12.176 C214.996,11.104 214.736,10.24 214.216,9.584 C213.696,8.928 212.916,8.6 211.876,8.6 C210.564,8.6 209.452,9.176 208.54,10.328 C208.412,9.48 208.276,8.904 208.132,8.6 L208.132,8.6 L204.94,9.2 L204.94,9.704 C205.74,9.704 206.256,9.872 206.488,10.208 C206.72,10.544 206.836,11.304 206.836,12.488 L206.836,12.488 L206.836,13.688 C206.836,14.888 206.72,15.656 206.488,15.992 C206.256,16.328 205.74,16.496 204.94,16.496 L204.94,16.496 L204.94,17 L210.22,17 Z M222.748,17.408 C224.156,17.408 225.348,16.88 226.324,15.824 L226.324,15.824 L225.916,15.296 C225.132,16.032 224.276,16.4 223.348,16.4 C222.388,16.4 221.664,16.116 221.176,15.548 C220.688,14.98 220.444,14.2 220.444,13.208 C220.444,12.12 220.668,11.208 221.116,10.472 C221.564,9.736 222.108,9.368 222.748,9.368 C223.324,9.368 223.612,9.712 223.612,10.4 C223.612,10.672 223.704,10.9 223.888,11.084 C224.072,11.268 224.292,11.36 224.548,11.36 C224.916,11.36 225.184,11.252 225.352,11.036 C225.52,10.82 225.604,10.584 225.604,10.328 C225.604,9.848 225.364,9.44 224.884,9.104 C224.404,8.768 223.692,8.6 222.748,8.6 C221.708,8.6 220.74,9.036 219.844,9.908 C218.948,10.78 218.5,11.88 218.5,13.208 C218.5,14.44 218.88,15.448 219.64,16.232 C220.4,17.016 221.436,17.408 222.748,17.408 Z M232.372,17.408 C233.044,17.408 233.716,17.26 234.388,16.964 C235.06,16.668 235.612,16.288 236.044,15.824 L236.044,15.824 L235.612,15.296 C235.276,15.616 234.852,15.88 234.34,16.088 C233.828,16.296 233.372,16.4 232.972,16.4 C231.788,16.4 230.936,16.028 230.416,15.284 C229.896,14.54 229.708,13.576 229.852,12.392 L229.852,12.392 L235.636,12.392 C235.924,11.384 235.724,10.5 235.036,9.74 C234.348,8.98 233.46,8.6 232.372,8.6 C231.22,8.6 230.192,9.024 229.288,9.872 C228.384,10.72 227.932,11.76 227.932,12.992 C227.932,14.224 228.348,15.268 229.18,16.124 C230.012,16.98 231.076,17.408 232.372,17.408 Z M233.98,11.504 L229.996,11.504 C230.172,10.912 230.464,10.44 230.872,10.088 C231.28,9.736 231.74,9.56 232.252,9.56 C232.972,9.56 233.48,9.772 233.776,10.196 C234.072,10.62 234.14,11.056 233.98,11.504 L233.98,11.504 Z" id="ParallelResistance" fill="#524740"></path>
            </g>
            <g id="R1" transform="translate(18.000000, 38.000000)" stroke="#524740" stroke-linejoin="bevel" stroke-width="2">
                <polyline id="Resistor" transform="translate(13.000000, 35.000000) rotate(90.000000) translate(-13.000000, -35.000000) " points="-22 35 -17 35 -12 22 -2 48 8 22 18 48 28 22 38 48 43 35 48 35"></polyline>
            </g>
            <g id="R1-Copy" transform="translate(18.000000, 130.000000)" stroke="#524740" stroke-linejoin="bevel" stroke-width="2">
                <polyline id="Resistor" transform="translate(13.000000, 35.000000) rotate(-270.000000) translate(-13.000000, -35.000000) " points="-22 35 -17 35 -12 22 -2 48 8 22 18 48 28 22 38 48 43 35 48 35"></polyline>
            </g>
            <g id="R2" transform="translate(51.000000, 154.000000)" fill="#524740" fill-rule="nonzero">
                <path d="M7.892,17 L7.892,16.496 C6.9,16.496 6.272,16.328 6.008,15.992 C5.744,15.656 5.612,14.888 5.612,13.688 L5.612,13.688 L5.612,10.688 L6.74,10.688 L11.492,17 L15.452,17 L15.452,16.496 C14.044,16.336 12.556,15.32 10.988,13.448 L10.988,13.448 L8.636,10.688 C9.964,10.544 11.008,10.104 11.768,9.368 C12.528,8.632 12.908,7.728 12.908,6.656 C12.908,5.488 12.452,4.52 11.54,3.752 C10.628,2.984 9.364,2.6 7.748,2.6 L7.748,2.6 L1.412,2.6 L1.412,3.104 C2.404,3.104 3.032,3.268 3.296,3.596 C3.56,3.924 3.692,4.688 3.692,5.888 L3.692,5.888 L3.692,13.688 C3.692,14.888 3.56,15.656 3.296,15.992 C3.032,16.328 2.404,16.496 1.412,16.496 L1.412,16.496 L1.412,17 L7.892,17 Z M7.724,9.824 L5.612,9.824 L5.612,3.488 L7.724,3.488 C8.716,3.488 9.472,3.784 9.992,4.376 C10.512,4.968 10.772,5.728 10.772,6.656 C10.772,7.584 10.512,8.344 9.992,8.936 C9.472,9.528 8.716,9.824 7.724,9.824 L7.724,9.824 Z M25.412,18.896 L26.012,15.608 L19.796,15.608 L23.492,12.776 L23.732,12.632 C23.876,12.52 24.056,12.356 24.272,12.14 C24.488,11.924 24.704,11.688 24.92,11.432 C25.136,11.176 25.32,10.864 25.472,10.496 C25.624,10.128 25.7,9.768 25.7,9.416 C25.7,8.456 25.244,7.68 24.332,7.088 C23.42,6.496 22.348,6.2 21.116,6.2 C19.788,6.2 18.724,6.524 17.924,7.172 C17.124,7.82 16.76,8.572 16.832,9.428 C16.904,10.284 17.404,10.992 18.332,11.552 L18.332,11.552 L19.052,10.808 C18.524,9.816 18.508,8.968 19.004,8.264 C19.5,7.56 20.204,7.208 21.116,7.208 C21.9,7.208 22.528,7.408 23,7.808 C23.472,8.208 23.708,8.752 23.708,9.44 C23.708,10.656 22.94,11.872 21.404,13.088 L21.404,13.088 L17.156,16.424 L17.156,17 L22.1,17 C23.3,17 24.068,17.116 24.404,17.348 C24.74,17.58 24.908,18.096 24.908,18.896 L24.908,18.896 L25.412,18.896 Z"></path>
            </g>
            <g id="R1" transform="translate(51.000000, 61.000000)" fill="#524740" fill-rule="nonzero">
                <path d="M7.892,17 L7.892,16.496 C6.9,16.496 6.272,16.328 6.008,15.992 C5.744,15.656 5.612,14.888 5.612,13.688 L5.612,13.688 L5.612,10.688 L6.74,10.688 L11.492,17 L15.452,17 L15.452,16.496 C14.044,16.336 12.556,15.32 10.988,13.448 L10.988,13.448 L8.636,10.688 C9.964,10.544 11.008,10.104 11.768,9.368 C12.528,8.632 12.908,7.728 12.908,6.656 C12.908,5.488 12.452,4.52 11.54,3.752 C10.628,2.984 9.364,2.6 7.748,2.6 L7.748,2.6 L1.412,2.6 L1.412,3.104 C2.404,3.104 3.032,3.268 3.296,3.596 C3.56,3.924 3.692,4.688 3.692,5.888 L3.692,5.888 L3.692,13.688 C3.692,14.888 3.56,15.656 3.296,15.992 C3.032,16.328 2.404,16.496 1.412,16.496 L1.412,16.496 L1.412,17 L7.892,17 Z M7.724,9.824 L5.612,9.824 L5.612,3.488 L7.724,3.488 C8.716,3.488 9.472,3.784 9.992,4.376 C10.512,4.968 10.772,5.728 10.772,6.656 C10.772,7.584 10.512,8.344 9.992,8.936 C9.472,9.528 8.716,9.824 7.724,9.824 L7.724,9.824 Z M22.892,17 L22.892,16.496 C21.884,16.496 21.248,16.332 20.984,16.004 C20.72,15.676 20.588,14.904 20.588,13.688 L20.588,13.688 L20.588,9.896 C20.588,8.68 20.72,7.908 20.984,7.58 C21.248,7.252 21.884,7.088 22.892,7.088 L22.892,7.088 L22.892,6.608 L16.58,6.608 L16.58,7.088 C17.572,7.088 18.204,7.256 18.476,7.592 C18.748,7.928 18.884,8.696 18.884,9.896 L18.884,9.896 L18.884,13.688 C18.884,14.888 18.748,15.656 18.476,15.992 C18.204,16.328 17.572,16.496 16.58,16.496 L16.58,16.496 L16.58,17 L22.892,17 Z"></path>
            </g>
            <line x1="31" y1="27" x2="31" y2="38" id="Path-5" stroke="#524740" stroke-width="2"></line>
            <path d="M27.576,17.408 L32.856,5.192 C33.256,4.264 33.596,3.684 33.876,3.452 C34.156,3.22 34.768,3.104 35.712,3.104 L35.712,3.104 L35.712,2.6 L30.12,2.6 L30.12,3.104 C31.112,3.104 31.748,3.244 32.028,3.524 C32.308,3.804 32.296,4.272 31.992,4.928 L31.992,4.928 L27.96,14.264 L23.88,4.928 C23.576,4.272 23.564,3.804 23.844,3.524 C24.124,3.244 24.76,3.104 25.752,3.104 L25.752,3.104 L25.752,2.6 L19.104,2.6 L19.104,3.104 C20.048,3.104 20.66,3.22 20.94,3.452 C21.22,3.684 21.56,4.264 21.96,5.192 L21.96,5.192 L27.264,17.408 L27.576,17.408 Z M36.48,17.408 C36.48,17.088 36.512,16.872 36.576,16.76 C36.64,16.648 36.752,16.62 36.912,16.676 C37.072,16.732 37.244,16.812 37.428,16.916 C37.612,17.02 37.856,17.128 38.16,17.24 C38.464,17.352 38.76,17.408 39.048,17.408 C39.848,17.408 40.524,17.164 41.076,16.676 C41.628,16.188 41.904,15.56 41.904,14.792 C41.904,13.88 41.352,13.112 40.248,12.488 L40.248,12.488 L39.096,11.864 C38.536,11.56 38.152,11.308 37.944,11.108 C37.736,10.908 37.632,10.672 37.632,10.4 C37.632,10.096 37.736,9.848 37.944,9.656 C38.152,9.464 38.456,9.368 38.856,9.368 C39.432,9.368 39.9,9.572 40.26,9.98 C40.62,10.388 40.8,10.856 40.8,11.384 L40.8,11.384 L41.304,11.384 L41.304,8.6 L40.8,8.6 C40.8,8.92 40.764,9.1 40.692,9.14 C40.62,9.18 40.488,9.144 40.296,9.032 C39.72,8.744 39.16,8.6 38.616,8.6 C37.976,8.6 37.412,8.808 36.924,9.224 C36.436,9.64 36.192,10.16 36.192,10.784 C36.192,11.808 36.72,12.608 37.776,13.184 L37.776,13.184 L39.12,13.904 C40.016,14.384 40.464,14.872 40.464,15.368 C40.464,15.704 40.332,15.992 40.068,16.232 C39.804,16.472 39.48,16.592 39.096,16.592 C38.312,16.592 37.68,16.3 37.2,15.716 C36.72,15.132 36.48,14.528 36.48,13.904 L36.48,13.904 L35.976,13.904 L35.976,17.408 L36.48,17.408 Z" id="Vs" fill="#524740" fill-rule="nonzero"></path>
            <circle id="Oval-2-Copy-14" stroke="#524740" stroke-width="2" fill="#524740" cx="111" cy="119" r="4"></circle>
            <circle id="Oval-2-Copy-19" stroke="#524740" stroke-width="2" fill="#524740" cx="31" cy="119" r="4"></circle>
            <circle id="Oval-2-Copy-23" stroke="#524740" stroke-width="2" fill="#524740" cx="31" cy="211" r="4"></circle>
            <line x1="31" y1="211" x2="31" y2="200" id="Path-15" stroke="#524740" stroke-width="2"></line>
            <line x1="30" y1="211" x2="111" y2="211" id="Path-15-Copy" stroke="#524740" stroke-width="2"></line>
            <line x1="31" y1="108" x2="31" y2="130" id="Path-17" stroke="#524740" stroke-width="2"></line>
            <line x1="111" y1="123" x2="111" y2="145" id="Path-17-Copy" stroke="#524740" stroke-width="2"></line>
            <line x1="111" y1="185" x2="111" y2="212" id="Path-17-Copy-2" stroke="#524740" stroke-width="2"></line>
            <line x1="31" y1="119" x2="107" y2="119" id="Path-18" stroke="#524740" stroke-width="2"></line>
            <g id="Ground" transform="translate(30.500000, 229.500000) rotate(-90.000000) translate(-30.500000, -229.500000) translate(11.500000, 213.000000)" stroke="#524740" stroke-width="2">
                <line x1="12.5" y1="17" x2="37.5" y2="17" id="Path-2-Copy"></line>
                <line x1="7" y1="6.5" x2="7" y2="26.5" id="Path-4"></line>
                <line x1="1" y1="13.5" x2="1" y2="19.5" id="Path-4-Copy"></line>
                <line x1="13" y1="0" x2="13" y2="33" id="Path-3-Copy"></line>
            </g>
        </g>
    </g>
</svg>