<?xml version="1.0" encoding="UTF-8"?>
<svg width="900px" height="330px" viewBox="0 0 900 330" version="1.1" xmlns="http://www.w3.org/2000/svg" xmlns:xlink="http://www.w3.org/1999/xlink">
    <!-- Generator: Sketch 60.1 (88133) - https://sketch.com -->
    <title>VoltageLaw_Calculated_Circuit</title>
    <desc>Created with Sketch.</desc>
    <g id="VoltageLaw_Calculated_Circuit" stroke="none" stroke-width="1" fill="none" fill-rule="evenodd">
        <g id="Illustration_Frame">
            <rect id="Rectangle" stroke="#3D3530" stroke-width="2" fill="#EEEEEE" x="1" y="1" width="898" height="328"></rect>
            <rect id="Rectangle-Copy" stroke="#3D3530" stroke-width="2" fill="#F8FAE4" x="1" y="286" width="898" height="43"></rect>
            <path d="M607.597333,315 L613.957333,298.872 L612.349333,298.872 L606.805333,312.96 L601.237333,298.872 L599.605333,298.872 L605.989333,315 L607.597333,315 Z M620.287999,315.192 C621.999999,315.192 623.455999,314.584 624.655999,313.368 C625.871999,312.152 626.479999,310.696 626.479999,309 C626.479999,307.288 625.875999,305.828 624.667999,304.62 C623.459999,303.412 621.999999,302.808 620.287999,302.808 C618.575999,302.808 617.115999,303.412 615.907999,304.62 C614.699999,305.828 614.095999,307.288 614.095999,309 C614.095999,310.712 614.699999,312.172 615.907999,313.38 C617.115999,314.588 618.575999,315.192 620.287999,315.192 Z M620.311999,313.68 C619.031999,313.68 617.943999,313.228 617.047999,312.324 C616.151999,311.42 615.703999,310.312 615.703999,309 C615.703999,307.688 616.151999,306.576 617.047999,305.664 C617.943999,304.752 619.031999,304.296 620.311999,304.296 C621.607999,304.296 622.699999,304.752 623.587999,305.664 C624.475999,306.576 624.919999,307.688 624.919999,309 C624.919999,310.312 624.475999,311.42 623.587999,312.324 C622.699999,313.228 621.607999,313.68 620.311999,313.68 Z M631.346666,315 L631.346666,297.144 L629.762666,297.144 L629.762666,315 L631.346666,315 Z M639.765333,315.192 C640.357333,315.192 640.933333,315.036 641.493333,314.724 C642.053333,314.412 642.413333,314.168 642.573333,313.992 C642.733333,313.816 642.861333,313.664 642.957333,313.536 L642.957333,313.536 L642.165333,312.312 C642.165333,312.376 642.081333,312.516 641.913333,312.732 C641.745333,312.948 641.485333,313.168 641.133333,313.392 C640.781333,313.616 640.421333,313.728 640.053333,313.728 C639.461333,313.728 638.937333,313.512 638.481333,313.08 C638.025333,312.648 637.797333,312.064 637.797333,311.328 L637.797333,311.328 L637.797333,304.44 L641.421333,304.44 L641.421333,302.976 L637.797333,302.976 L637.797333,298.992 L636.213333,299.184 L636.213333,302.976 L634.293333,302.976 L634.293333,304.44 L636.213333,304.44 L636.213333,311.688 C636.213333,312.824 636.553333,313.692 637.233333,314.292 C637.913333,314.892 638.757333,315.192 639.765333,315.192 Z M650.607999,315.192 C652.495999,315.192 654.055999,314.48 655.287999,313.056 L655.287999,313.056 L655.287999,315 L656.871999,315 L656.871999,303 L655.287999,303 L655.287999,304.944 C654.071999,303.52 652.511999,302.808 650.607999,302.808 C648.895999,302.808 647.435999,303.412 646.227999,304.62 C645.019999,305.828 644.415999,307.288 644.415999,309 C644.415999,310.712 645.019999,312.172 646.227999,313.38 C647.435999,314.588 648.895999,315.192 650.607999,315.192 Z M650.631999,313.68 C649.351999,313.68 648.259999,313.228 647.355999,312.324 C646.451999,311.42 645.999999,310.312 645.999999,309 C645.999999,307.688 646.451999,306.58 647.355999,305.676 C648.259999,304.772 649.351999,304.32 650.631999,304.32 C651.927999,304.32 653.019999,304.772 653.907999,305.676 C654.795999,306.58 655.239999,307.688 655.239999,309 C655.239999,310.312 654.795999,311.42 653.907999,312.324 C653.019999,313.228 651.927999,313.68 650.631999,313.68 Z M666.418666,320.112 C668.050666,320.112 669.486666,319.524 670.726666,318.348 C671.966666,317.172 672.594666,315.712 672.610666,313.968 L672.610666,313.968 L672.610666,303.024 L671.002666,303.024 L671.002666,304.968 C669.770666,303.544 668.210666,302.832 666.322666,302.832 C664.610666,302.832 663.150666,303.436 661.942666,304.644 C660.734666,305.852 660.130666,307.312 660.130666,309.024 C660.130666,310.736 660.734666,312.196 661.942666,313.404 C663.150666,314.612 664.610666,315.216 666.322666,315.216 C668.226666,315.216 669.786666,314.504 671.002666,313.08 L671.002666,313.08 L671.002666,313.968 L671.026666,313.968 C671.010666,315.216 670.558666,316.308 669.670666,317.244 C668.782666,318.18 667.698666,318.648 666.418666,318.648 C665.330666,318.648 664.362666,318.344 663.514666,317.736 C662.666666,317.128 662.090666,316.416 661.786666,315.6 L661.786666,315.6 L660.490666,316.248 C660.858666,317.24 661.566666,318.132 662.614666,318.924 C663.662666,319.716 664.930666,320.112 666.418666,320.112 Z M666.346666,313.728 C665.066666,313.728 663.978666,313.276 663.082666,312.372 C662.186666,311.468 661.738666,310.36 661.738666,309.048 C661.738666,307.736 662.186666,306.628 663.082666,305.724 C663.978666,304.82 665.066666,304.368 666.346666,304.368 C667.642666,304.368 668.734666,304.82 669.622666,305.724 C670.510666,306.628 670.954666,307.736 670.954666,309.048 C670.954666,310.36 670.510666,311.468 669.622666,312.372 C668.734666,313.276 667.642666,313.728 666.346666,313.728 Z M682.085333,315.072 C683.557333,315.088 684.825333,314.672 685.889333,313.824 C686.953333,312.976 687.669333,312.048 688.037333,311.04 L688.037333,311.04 L686.693333,310.56 C686.389333,311.376 685.813333,312.088 684.965333,312.696 C684.117333,313.304 683.157333,313.608 682.085333,313.608 C681.093333,313.624 680.189333,313.324 679.373333,312.708 C678.557333,312.092 678.013333,311.304 677.741333,310.344 L677.741333,310.344 L688.229333,308.448 C688.229333,308.32 688.221333,308.216 688.205333,308.136 C688.029333,306.6 687.357333,305.312 686.189333,304.272 C685.021333,303.232 683.653333,302.704 682.085333,302.688 C680.357333,302.704 678.893333,303.312 677.693333,304.512 C676.493333,305.712 675.893333,307.176 675.893333,308.904 C675.893333,309.528 675.973333,310.104 676.133333,310.632 C676.533333,311.928 677.289333,312.992 678.401333,313.824 C679.513333,314.656 680.741333,315.072 682.085333,315.072 Z M677.501333,309.048 C677.501333,308.968 677.497333,308.868 677.489333,308.748 C677.481333,308.628 677.477333,308.544 677.477333,308.496 C677.541333,307.312 678.001333,306.296 678.857333,305.448 C679.713333,304.6 680.741333,304.168 681.941333,304.152 C682.965333,304.136 683.893333,304.436 684.725333,305.052 C685.557333,305.668 686.125333,306.464 686.429333,307.44 L686.429333,307.44 L677.501333,309.048 Z M707.898666,315 L707.898666,313.416 L700.554666,313.416 L700.554666,298.872 L698.970666,298.872 L698.970666,315 L707.898666,315 Z M715.861333,315.192 C717.749333,315.192 719.309333,314.48 720.541333,313.056 L720.541333,313.056 L720.541333,315 L722.125333,315 L722.125333,303 L720.541333,303 L720.541333,304.944 C719.325333,303.52 717.765333,302.808 715.861333,302.808 C714.149333,302.808 712.689333,303.412 711.481333,304.62 C710.273333,305.828 709.669333,307.288 709.669333,309 C709.669333,310.712 710.273333,312.172 711.481333,313.38 C712.689333,314.588 714.149333,315.192 715.861333,315.192 Z M715.885333,313.68 C714.605333,313.68 713.513333,313.228 712.609333,312.324 C711.705333,311.42 711.253333,310.312 711.253333,309 C711.253333,307.688 711.705333,306.58 712.609333,305.676 C713.513333,304.772 714.605333,304.32 715.885333,304.32 C717.181333,304.32 718.273333,304.772 719.161333,305.676 C720.049333,306.58 720.493333,307.688 720.493333,309 C720.493333,310.312 720.049333,311.42 719.161333,312.324 C718.273333,313.228 717.181333,313.68 715.885333,313.68 Z M730.4,315 L733.784,305.112 L737.168,315 L738.752,315 L743,303 L741.416,303 L737.96,312.768 L734.504,303 L733.064,303 L729.608,312.768 L726.176,303 L724.592,303 L728.816,315 L730.4,315 Z M760.485333,315.192 C762.053333,315.192 763.417333,314.836 764.577333,314.124 C765.737333,313.412 766.637333,312.432 767.277333,311.184 L767.277333,311.184 L765.789333,310.296 C765.293333,311.336 764.585333,312.164 763.665333,312.78 C762.745333,313.396 761.685333,313.704 760.485333,313.704 C758.661333,313.704 757.201333,313.064 756.105333,311.784 C755.009333,310.504 754.461333,308.896 754.461333,306.96 C754.461333,305.008 755.009333,303.396 756.105333,302.124 C757.201333,300.852 758.661333,300.216 760.485333,300.216 C761.669333,300.216 762.721333,300.52 763.641333,301.128 C764.561333,301.736 765.277333,302.56 765.789333,303.6 L765.789333,303.6 L767.277333,302.736 C766.637333,301.488 765.737333,300.504 764.577333,299.784 C763.417333,299.064 762.053333,298.704 760.485333,298.704 C758.117333,298.704 756.229333,299.492 754.821333,301.068 C753.413333,302.644 752.709333,304.608 752.709333,306.96 C752.709333,309.296 753.413333,311.252 754.821333,312.828 C756.229333,314.404 758.117333,315.192 760.485333,315.192 Z M775.744,315.192 C777.632,315.192 779.192,314.48 780.424,313.056 L780.424,313.056 L780.424,315 L782.008,315 L782.008,303 L780.424,303 L780.424,304.944 C779.208,303.52 777.648,302.808 775.744,302.808 C774.032,302.808 772.572,303.412 771.364,304.62 C770.156,305.828 769.552,307.288 769.552,309 C769.552,310.712 770.156,312.172 771.364,313.38 C772.572,314.588 774.032,315.192 775.744,315.192 Z M775.768,313.68 C774.488,313.68 773.396,313.228 772.492,312.324 C771.588,311.42 771.136,310.312 771.136,309 C771.136,307.688 771.588,306.58 772.492,305.676 C773.396,304.772 774.488,304.32 775.768,304.32 C777.064,304.32 778.156,304.772 779.044,305.676 C779.932,306.58 780.376,307.688 780.376,309 C780.376,310.312 779.932,311.42 779.044,312.324 C778.156,313.228 777.064,313.68 775.768,313.68 Z M787.642666,315 L787.642666,297.144 L786.058666,297.144 L786.058666,315 L787.642666,315 Z M797.069333,315.192 C798.157333,315.192 799.169333,314.924 800.105333,314.388 C801.041333,313.852 801.781333,313.136 802.325333,312.24 L802.325333,312.24 L800.885333,311.544 C800.453333,312.2 799.901333,312.72 799.229333,313.104 C798.557333,313.488 797.837333,313.68 797.069333,313.68 C795.773333,313.68 794.681333,313.228 793.793333,312.324 C792.905333,311.42 792.461333,310.312 792.461333,309 C792.461333,307.688 792.905333,306.58 793.793333,305.676 C794.681333,304.772 795.773333,304.32 797.069333,304.32 C797.837333,304.32 798.557333,304.512 799.229333,304.896 C799.901333,305.28 800.453333,305.8 800.885333,306.456 L800.885333,306.456 L802.325333,305.76 C801.781333,304.864 801.041333,304.148 800.105333,303.612 C799.169333,303.076 798.157333,302.808 797.069333,302.808 C795.357333,302.808 793.897333,303.412 792.689333,304.62 C791.481333,305.828 790.877333,307.288 790.877333,309 C790.877333,310.712 791.481333,312.172 792.689333,313.38 C793.897333,314.588 795.357333,315.192 797.069333,315.192 Z M810.528,315.192 C812.112,315.192 813.392,314.536 814.368,313.224 L814.368,313.224 L814.368,315 L815.952,315 L815.952,303 L814.368,303 L814.368,310.032 C814.368,311.056 814.024,311.924 813.336,312.636 C812.648,313.348 811.8,313.704 810.792,313.704 C809.8,313.704 808.96,313.348 808.272,312.636 C807.584,311.924 807.24,311.056 807.24,310.032 L807.24,310.032 L807.24,303 L805.608,303 L805.608,310.08 C805.608,311.52 806.08,312.732 807.024,313.716 C807.968,314.7 809.136,315.192 810.528,315.192 Z M821.706666,315 L821.706666,297.144 L820.122667,297.144 L820.122667,315 L821.706666,315 Z M831.133333,315.192 C833.021333,315.192 834.581333,314.48 835.813333,313.056 L835.813333,313.056 L835.813333,315 L837.397333,315 L837.397333,303 L835.813333,303 L835.813333,304.944 C834.597333,303.52 833.037333,302.808 831.133333,302.808 C829.421333,302.808 827.961333,303.412 826.753333,304.62 C825.545333,305.828 824.941333,307.288 824.941333,309 C824.941333,310.712 825.545333,312.172 826.753333,313.38 C827.961333,314.588 829.421333,315.192 831.133333,315.192 Z M831.157333,313.68 C829.877333,313.68 828.785333,313.228 827.881333,312.324 C826.977333,311.42 826.525333,310.312 826.525333,309 C826.525333,307.688 826.977333,306.58 827.881333,305.676 C828.785333,304.772 829.877333,304.32 831.157333,304.32 C832.453333,304.32 833.545333,304.772 834.433333,305.676 C835.321333,306.58 835.765333,307.688 835.765333,309 C835.765333,310.312 835.321333,311.42 834.433333,312.324 C833.545333,313.228 832.453333,313.68 831.157333,313.68 Z M845.48,315.192 C846.072,315.192 846.648,315.036 847.208,314.724 C847.768,314.412 848.128,314.168 848.288,313.992 C848.448,313.816 848.576,313.664 848.672,313.536 L848.672,313.536 L847.88,312.312 C847.88,312.376 847.796,312.516 847.628,312.732 C847.46,312.948 847.2,313.168 846.848,313.392 C846.496,313.616 846.136,313.728 845.768,313.728 C845.176,313.728 844.652,313.512 844.196,313.08 C843.74,312.648 843.512,312.064 843.512,311.328 L843.512,311.328 L843.512,304.44 L847.136,304.44 L847.136,302.976 L843.512,302.976 L843.512,298.992 L841.928,299.184 L841.928,302.976 L840.008,302.976 L840.008,304.44 L841.928,304.44 L841.928,311.688 C841.928,312.824 842.268,313.692 842.948,314.292 C843.628,314.892 844.472,315.192 845.48,315.192 Z M856.322667,315.072 C857.794667,315.088 859.062667,314.672 860.126667,313.824 C861.190667,312.976 861.906667,312.048 862.274667,311.04 L862.274667,311.04 L860.930667,310.56 C860.626667,311.376 860.050667,312.088 859.202667,312.696 C858.354667,313.304 857.394667,313.608 856.322667,313.608 C855.330667,313.624 854.426667,313.324 853.610667,312.708 C852.794667,312.092 852.250667,311.304 851.978667,310.344 L851.978667,310.344 L862.466667,308.448 C862.466667,308.32 862.458667,308.216 862.442667,308.136 C862.266667,306.6 861.594667,305.312 860.426667,304.272 C859.258667,303.232 857.890667,302.704 856.322667,302.688 C854.594667,302.704 853.130667,303.312 851.930667,304.512 C850.730667,305.712 850.130667,307.176 850.130667,308.904 C850.130667,309.528 850.210667,310.104 850.370667,310.632 C850.770667,311.928 851.526667,312.992 852.638667,313.824 C853.750667,314.656 854.978667,315.072 856.322667,315.072 Z M851.738667,309.048 C851.738667,308.968 851.734667,308.868 851.726667,308.748 C851.718667,308.628 851.714667,308.544 851.714667,308.496 C851.778667,307.312 852.238667,306.296 853.094667,305.448 C853.950667,304.6 854.978667,304.168 856.178667,304.152 C857.202667,304.136 858.130667,304.436 858.962667,305.052 C859.794667,305.668 860.362667,306.464 860.666667,307.44 L860.666667,307.44 L851.738667,309.048 Z M871.317333,315.192 C873.205333,315.192 874.765333,314.48 875.997333,313.056 L875.997333,313.056 L875.997333,315 L877.581333,315 L877.581333,297.144 L875.997333,297.144 L875.997333,304.944 C874.781333,303.52 873.221333,302.808 871.317333,302.808 C869.605333,302.808 868.145333,303.412 866.937333,304.62 C865.729333,305.828 865.125333,307.288 865.125333,309 C865.125333,310.712 865.729333,312.172 866.937333,313.38 C868.145333,314.588 869.605333,315.192 871.317333,315.192 Z M871.341333,313.68 C870.045333,313.68 868.949333,313.232 868.053333,312.336 C867.157333,311.424 866.709333,310.312 866.709333,309 C866.709333,307.688 867.157333,306.58 868.053333,305.676 C868.949333,304.772 870.045333,304.32 871.341333,304.32 C872.637333,304.32 873.729333,304.772 874.617333,305.676 C875.505333,306.58 875.949333,307.688 875.949333,309 C875.949333,310.312 875.505333,311.42 874.617333,312.324 C873.729333,313.228 872.637333,313.68 871.341333,313.68 Z" id="VoltageLawCalculated" fill="#23ABE3" fill-rule="nonzero"></path>
        </g>
        <g transform="translate(91.000000, 23.000000)">
            <path id="Line-11-Copy-5" d="M174.5,58 L184,77 L176,77 L176,88.5 L173,88.5 L173,77 L165,77 L174.5,58 Z" fill="#B09679" fill-rule="nonzero"></path>
            <path id="Line-11-Copy-10" d="M650,185.5 L650,197 L658,197 L648.5,216 L639,197 L647,197 L647,185.5 L650,185.5 Z" fill="#B09679" fill-rule="nonzero"></path>
            <g id="VS" transform="translate(175.000000, 126.000000)" fill="#524740" fill-rule="nonzero">
                <path d="M5.652,21.488 C6.98,21.488 8.12,20.996 9.072,20.012 C10.024,19.028 10.5,17.848 10.5,16.472 C10.5,15.064 10.064,13.88 9.192,12.92 C8.32,11.96 7.212,11.48 5.868,11.48 C5.356,11.48 4.844,11.576 4.332,11.768 C3.82,11.96 3.436,12.216 3.18,12.536 L3.18,12.536 L3.54,8.288 L9.612,8.288 L10.212,4.784 L9.66,4.784 C9.484,5.504 9.236,5.988 8.916,6.236 C8.596,6.484 7.916,6.608 6.876,6.608 L6.876,6.608 L2.82,6.608 L2.076,14.84 L2.964,14.84 C3.204,13.272 4.1,12.488 5.652,12.488 C6.612,12.488 7.328,12.848 7.8,13.568 C8.272,14.288 8.508,15.256 8.508,16.472 C8.508,17.688 8.268,18.676 7.788,19.436 C7.308,20.196 6.596,20.576 5.652,20.576 C5.06,20.576 4.568,20.452 4.176,20.204 C3.784,19.956 3.524,19.688 3.396,19.4 C3.268,19.112 3.124,18.844 2.964,18.596 C2.804,18.348 2.62,18.224 2.412,18.224 C1.964,18.224 1.74,18.44 1.74,18.872 C1.74,19.432 2.104,20.008 2.832,20.6 C3.56,21.192 4.5,21.488 5.652,21.488 Z M19.572,17.408 L24.852,5.192 C25.252,4.264 25.592,3.684 25.872,3.452 C26.152,3.22 26.764,3.104 27.708,3.104 L27.708,3.104 L27.708,2.6 L22.116,2.6 L22.116,3.104 C23.108,3.104 23.744,3.244 24.024,3.524 C24.304,3.804 24.292,4.272 23.988,4.928 L23.988,4.928 L19.956,14.264 L15.876,4.928 C15.572,4.272 15.56,3.804 15.84,3.524 C16.12,3.244 16.756,3.104 17.748,3.104 L17.748,3.104 L17.748,2.6 L11.1,2.6 L11.1,3.104 C12.044,3.104 12.656,3.22 12.936,3.452 C13.216,3.684 13.556,4.264 13.956,5.192 L13.956,5.192 L19.26,17.408 L19.572,17.408 Z" id="5V"></path>
            </g>
            <g id="R1" transform="translate(253.000000, 0.000000)">
                <g id="V1" transform="translate(80.000000, 126.000000)" fill="#1A80AA" fill-rule="nonzero">
                    <path d="M10.888,18.896 L11.488,15.608 L5.272,15.608 L8.968,12.776 L9.208,12.632 C9.352,12.52 9.532,12.356 9.748,12.14 C9.964,11.924 10.18,11.688 10.396,11.432 C10.612,11.176 10.796,10.864 10.948,10.496 C11.1,10.128 11.176,9.768 11.176,9.416 C11.176,8.456 10.72,7.68 9.808,7.088 C8.896,6.496 7.824,6.2 6.592,6.2 C5.264,6.2 4.2,6.524 3.4,7.172 C2.6,7.82 2.236,8.572 2.308,9.428 C2.38,10.284 2.88,10.992 3.808,11.552 L3.808,11.552 L4.528,10.808 C4,9.816 3.984,8.968 4.48,8.264 C4.976,7.56 5.68,7.208 6.592,7.208 C7.376,7.208 8.004,7.408 8.476,7.808 C8.948,8.208 9.184,8.752 9.184,9.44 C9.184,10.656 8.416,11.872 6.88,13.088 L6.88,13.088 L2.632,16.424 L2.632,17 L7.576,17 C8.776,17 9.544,17.116 9.88,17.348 C10.216,17.58 10.384,18.096 10.384,18.896 L10.384,18.896 L10.888,18.896 Z M20.896,17.408 L26.176,5.192 C26.576,4.264 26.916,3.684 27.196,3.452 C27.476,3.22 28.088,3.104 29.032,3.104 L29.032,3.104 L29.032,2.6 L23.44,2.6 L23.44,3.104 C24.432,3.104 25.068,3.244 25.348,3.524 C25.628,3.804 25.616,4.272 25.312,4.928 L25.312,4.928 L21.28,14.264 L17.2,4.928 C16.896,4.272 16.884,3.804 17.164,3.524 C17.444,3.244 18.08,3.104 19.072,3.104 L19.072,3.104 L19.072,2.6 L12.424,2.6 L12.424,3.104 C13.368,3.104 13.98,3.22 14.26,3.452 C14.54,3.684 14.88,4.264 15.28,5.192 L15.28,5.192 L20.584,17.408 L20.896,17.408 Z" id="2V"></path>
                </g>
                <polyline id="Resistor" stroke="#524740" stroke-width="2" stroke-linejoin="bevel" points="0 44 5 44 10 31 20 57 30 31 40 57 50 31 60 57 65 44 70 44"></polyline>
                <g transform="translate(13.000000, 0.000000)" fill="#524740" fill-rule="nonzero" id="12Ω">
                    <path d="M8.37107813,19 L8.37107813,18.496 C7.36307813,18.496 6.72707813,18.332 6.46307813,18.004 C6.19907812,17.676 6.06707813,16.904 6.06707813,15.688 L6.06707813,15.688 L6.06707813,11.896 C6.06707813,10.68 6.19907812,9.908 6.46307813,9.58 C6.72707813,9.252 7.36307813,9.088 8.37107813,9.088 L8.37107813,9.088 L8.37107813,8.608 L2.05907813,8.608 L2.05907813,9.088 C3.05107813,9.088 3.68307813,9.256 3.95507812,9.592 C4.22707813,9.928 4.36307812,10.696 4.36307812,11.896 L4.36307812,11.896 L4.36307812,15.688 C4.36307812,16.888 4.22707813,17.656 3.95507812,17.992 C3.68307813,18.328 3.05107813,18.496 2.05907813,18.496 L2.05907813,18.496 L2.05907813,19 L8.37107813,19 Z M19.6030781,20.896 L20.2030781,17.608 L13.9870781,17.608 L17.6830781,14.776 L17.9230781,14.632 C18.0670781,14.52 18.2470781,14.356 18.4630781,14.14 C18.6790781,13.924 18.8950781,13.688 19.1110781,13.432 C19.3270781,13.176 19.5110781,12.864 19.6630781,12.496 C19.8150781,12.128 19.8910781,11.768 19.8910781,11.416 C19.8910781,10.456 19.4350781,9.68 18.5230781,9.088 C17.6110781,8.496 16.5390781,8.2 15.3070781,8.2 C13.9790781,8.2 12.9150781,8.524 12.1150781,9.172 C11.3150781,9.82 10.9510781,10.572 11.0230781,11.428 C11.0950781,12.284 11.5950781,12.992 12.5230781,13.552 L12.5230781,13.552 L13.2430781,12.808 C12.7150781,11.816 12.6990781,10.968 13.1950781,10.264 C13.6910781,9.56 14.3950781,9.208 15.3070781,9.208 C16.0910781,9.208 16.7190781,9.408 17.1910781,9.808 C17.6630781,10.208 17.8990781,10.752 17.8990781,11.44 C17.8990781,12.656 17.1310781,13.872 15.5950781,15.088 L15.5950781,15.088 L11.3470781,18.424 L11.3470781,19 L16.2910781,19 C17.4910781,19 18.2590781,19.116 18.5950781,19.348 C18.9310781,19.58 19.0990781,20.096 19.0990781,20.896 L19.0990781,20.896 L19.6030781,20.896 Z M30.0784219,19 L30.0784219,17.1953125 C28.7502969,16.296875 27.7542031,15.2011719 27.0901406,13.9082031 C26.4260781,12.6152344 26.0940469,11.1210938 26.0940469,9.42578125 C26.0940469,7.42578125 26.5823281,5.859375 27.5588906,4.7265625 C28.5354531,3.59375 29.8792031,3.02734375 31.5901406,3.02734375 C33.3088906,3.02734375 34.6545938,3.59375 35.62725,4.7265625 C36.5999063,5.859375 37.0862344,7.421875 37.0862344,9.4140625 C37.0862344,11.1171875 36.7542031,12.6171875 36.0901406,13.9140625 C35.4260781,15.2109375 34.4338906,16.3046875 33.1135781,17.1953125 L33.1135781,17.1953125 L33.1135781,19 L40.2620156,19 L40.2620156,17.1953125 L35.4924844,17.1953125 C36.8909219,16.1484375 37.93975,14.9628906 38.6389688,13.6386719 C39.3381875,12.3144531 39.6877969,10.8515625 39.6877969,9.25 C39.6877969,6.8984375 38.9299844,4.97265625 37.4143594,3.47265625 C35.8987344,1.97265625 33.9573281,1.22265625 31.5901406,1.22265625 C29.2229531,1.22265625 27.2815469,1.97460938 25.7659219,3.47851562 C24.2502969,4.98242188 23.4924844,6.90625 23.4924844,9.25 C23.4924844,10.84375 23.8420938,12.3027344 24.5413125,13.6269531 C25.2405313,14.9511719 26.2893594,16.140625 27.6877969,17.1953125 L27.6877969,17.1953125 L22.9182656,17.1953125 L22.9182656,19 L30.0784219,19 Z"></path>
                </g>
            </g>
            <g id="R1-Copy" transform="translate(373.000000, 0.000000)">
                <g id="V1" transform="translate(75.000000, 126.000000)" fill="#1A80AA" fill-rule="nonzero">
                    <path d="M4.12,17.192 C4.488,17.192 4.808,17.068 5.08,16.82 C5.352,16.572 5.488,16.28 5.488,15.944 C5.488,15.592 5.352,15.292 5.08,15.044 C4.808,14.796 4.488,14.672 4.12,14.672 C3.752,14.672 3.44,14.796 3.184,15.044 C2.928,15.292 2.8,15.592 2.8,15.944 C2.8,16.28 2.928,16.572 3.184,16.82 C3.44,17.068 3.752,17.192 4.12,17.192 Z M13.408,21.488 C14.736,21.488 15.876,20.996 16.828,20.012 C17.78,19.028 18.256,17.848 18.256,16.472 C18.256,15.064 17.82,13.88 16.948,12.92 C16.076,11.96 14.968,11.48 13.624,11.48 C13.112,11.48 12.6,11.576 12.088,11.768 C11.576,11.96 11.192,12.216 10.936,12.536 L10.936,12.536 L11.296,8.288 L17.368,8.288 L17.968,4.784 L17.416,4.784 C17.24,5.504 16.992,5.988 16.672,6.236 C16.352,6.484 15.672,6.608 14.632,6.608 L14.632,6.608 L10.576,6.608 L9.832,14.84 L10.72,14.84 C10.96,13.272 11.856,12.488 13.408,12.488 C14.368,12.488 15.084,12.848 15.556,13.568 C16.028,14.288 16.264,15.256 16.264,16.472 C16.264,17.688 16.024,18.676 15.544,19.436 C15.064,20.196 14.352,20.576 13.408,20.576 C12.816,20.576 12.324,20.452 11.932,20.204 C11.54,19.956 11.28,19.688 11.152,19.4 C11.024,19.112 10.88,18.844 10.72,18.596 C10.56,18.348 10.376,18.224 10.168,18.224 C9.72,18.224 9.496,18.44 9.496,18.872 C9.496,19.432 9.86,20.008 10.588,20.6 C11.316,21.192 12.256,21.488 13.408,21.488 Z M27.328,17.408 L32.608,5.192 C33.008,4.264 33.348,3.684 33.628,3.452 C33.908,3.22 34.52,3.104 35.464,3.104 L35.464,3.104 L35.464,2.6 L29.872,2.6 L29.872,3.104 C30.864,3.104 31.5,3.244 31.78,3.524 C32.06,3.804 32.048,4.272 31.744,4.928 L31.744,4.928 L27.712,14.264 L23.632,4.928 C23.328,4.272 23.316,3.804 23.596,3.524 C23.876,3.244 24.512,3.104 25.504,3.104 L25.504,3.104 L25.504,2.6 L18.856,2.6 L18.856,3.104 C19.8,3.104 20.412,3.22 20.692,3.452 C20.972,3.684 21.312,4.264 21.712,5.192 L21.712,5.192 L27.016,17.408 L27.328,17.408 Z" id=".5V"></path>
                </g>
                <polyline id="Resistor" stroke="#524740" stroke-width="2" stroke-linejoin="bevel" points="0 44 5 44 10 31 20 57 30 31 40 57 50 31 60 57 65 44 70 44"></polyline>
                <g id="R1" transform="translate(18.000000, 0.000000)" fill="#524740" fill-rule="nonzero">
                    <path d="M6.51507813,19.408 C7.84307812,19.408 8.98307812,18.964 9.93507812,18.076 C10.8870781,17.188 11.3630781,16.128 11.3630781,14.896 C11.3630781,13.664 10.8870781,12.608 9.93507812,11.728 C8.98307812,10.848 7.84307812,10.408 6.51507813,10.408 C5.29907813,10.408 4.34707812,10.88 3.65907812,11.824 C3.85107812,7.2 5.02707812,4.888 7.18707812,4.888 C7.69907812,4.888 8.14307812,5.028 8.51907813,5.308 C8.89507812,5.588 9.19907812,5.868 9.43107812,6.148 C9.66307813,6.428 9.87507812,6.568 10.0670781,6.568 C10.2110781,6.568 10.3550781,6.512 10.4990781,6.4 C10.6430781,6.288 10.7150781,6.136 10.7150781,5.944 C10.7150781,5.528 10.3630781,5.12 9.65907812,4.72 C8.95507812,4.32 8.13107812,4.12 7.18707812,4.12 C6.00307813,4.12 4.98307812,4.552 4.12707812,5.416 C3.27107812,6.28 2.64707812,7.34 2.25507812,8.596 C1.86307812,9.852 1.66707812,11.192 1.66707812,12.616 C1.66707812,13.688 1.77907812,14.636 2.00307812,15.46 C2.22707812,16.284 2.50707812,16.94 2.84307812,17.428 C3.17907812,17.916 3.57507812,18.316 4.03107812,18.628 C4.48707813,18.94 4.91507812,19.148 5.31507812,19.252 C5.71507812,19.356 6.11507812,19.408 6.51507813,19.408 Z M6.51507813,18.448 C6.24307812,18.448 5.97107812,18.384 5.69907812,18.256 C5.42707812,18.128 5.13107812,17.9 4.81107812,17.572 C4.49107812,17.244 4.22307812,16.7 4.00707812,15.94 C3.79107812,15.18 3.66707812,14.248 3.63507812,13.144 C3.77907812,12.632 4.11907812,12.208 4.65507812,11.872 C5.19107812,11.536 5.81107812,11.368 6.51507813,11.368 C7.49107812,11.368 8.21107812,11.708 8.67507812,12.388 C9.13907812,13.068 9.37107813,13.896 9.37107813,14.872 C9.37107813,15.88 9.13907812,16.728 8.67507812,17.416 C8.21107812,18.104 7.49107812,18.448 6.51507813,18.448 Z M20.7824219,19 L20.7824219,17.1953125 C19.4542969,16.296875 18.4582031,15.2011719 17.7941406,13.9082031 C17.1300781,12.6152344 16.7980469,11.1210938 16.7980469,9.42578125 C16.7980469,7.42578125 17.2863281,5.859375 18.2628906,4.7265625 C19.2394531,3.59375 20.5832031,3.02734375 22.2941406,3.02734375 C24.0128906,3.02734375 25.3585938,3.59375 26.33125,4.7265625 C27.3039063,5.859375 27.7902344,7.421875 27.7902344,9.4140625 C27.7902344,11.1171875 27.4582031,12.6171875 26.7941406,13.9140625 C26.1300781,15.2109375 25.1378906,16.3046875 23.8175781,17.1953125 L23.8175781,17.1953125 L23.8175781,19 L30.9660156,19 L30.9660156,17.1953125 L26.1964844,17.1953125 C27.5949219,16.1484375 28.64375,14.9628906 29.3429688,13.6386719 C30.0421875,12.3144531 30.3917969,10.8515625 30.3917969,9.25 C30.3917969,6.8984375 29.6339844,4.97265625 28.1183594,3.47265625 C26.6027344,1.97265625 24.6613281,1.22265625 22.2941406,1.22265625 C19.9269531,1.22265625 17.9855469,1.97460938 16.4699219,3.47851562 C14.9542969,4.98242188 14.1964844,6.90625 14.1964844,9.25 C14.1964844,10.84375 14.5460938,12.3027344 15.2453125,13.6269531 C15.9445312,14.9511719 16.9933594,16.140625 18.3917969,17.1953125 L18.3917969,17.1953125 L13.6222656,17.1953125 L13.6222656,19 L20.7824219,19 Z" id="6Ω"></path>
                </g>
            </g>
            <g id="R1-Copy-2" transform="translate(493.000000, 0.000000)">
                <g id="V1" transform="translate(79.000000, 126.000000)" fill="#1A80AA" fill-rule="nonzero">
                    <path d="M8.096,17.408 C9.632,17.408 10.948,16.86 12.044,15.764 C13.14,14.668 13.688,13.344 13.688,11.792 C13.688,10.256 13.14,8.94 12.044,7.844 C10.948,6.748 9.632,6.2 8.096,6.2 C6.56,6.2 5.24,6.752 4.136,7.856 C3.048,8.944 2.504,10.256 2.504,11.792 C2.504,13.344 3.052,14.668 4.148,15.764 C5.244,16.86 6.56,17.408 8.096,17.408 Z M8.096,16.016 C6.976,16.016 6.02,15.604 5.228,14.78 C4.436,13.956 4.04,12.96 4.04,11.792 C4.04,10.64 4.436,9.648 5.228,8.816 C6.02,7.984 6.976,7.568 8.096,7.568 C9.2,7.568 10.152,7.984 10.952,8.816 C11.752,9.648 12.152,10.64 12.152,11.792 C12.152,12.96 11.752,13.956 10.952,14.78 C10.152,15.604 9.2,16.016 8.096,16.016 Z M22.76,17.408 L28.04,5.192 C28.44,4.264 28.78,3.684 29.06,3.452 C29.34,3.22 29.952,3.104 30.896,3.104 L30.896,3.104 L30.896,2.6 L25.304,2.6 L25.304,3.104 C26.296,3.104 26.932,3.244 27.212,3.524 C27.492,3.804 27.48,4.272 27.176,4.928 L27.176,4.928 L23.144,14.264 L19.064,4.928 C18.76,4.272 18.748,3.804 19.028,3.524 C19.308,3.244 19.944,3.104 20.936,3.104 L20.936,3.104 L20.936,2.6 L14.288,2.6 L14.288,3.104 C15.232,3.104 15.844,3.22 16.124,3.452 C16.404,3.684 16.744,4.264 17.144,5.192 L17.144,5.192 L22.448,17.408 L22.76,17.408 Z" id="0V"></path>
                </g>
                <polyline id="Resistor" stroke="#524740" stroke-width="2" stroke-linejoin="bevel" points="0 44 5 44 10 31 20 57 30 31 40 57 50 31 60 57 65 44 70 44"></polyline>
                <g id="R1" transform="translate(18.000000, 0.000000)" fill="#524740" fill-rule="nonzero">
                    <path d="M10.2470781,20.896 L10.8470781,17.608 L4.63107813,17.608 L8.32707812,14.776 L8.56707813,14.632 C8.71107813,14.52 8.89107812,14.356 9.10707812,14.14 C9.32307813,13.924 9.53907813,13.688 9.75507813,13.432 C9.97107813,13.176 10.1550781,12.864 10.3070781,12.496 C10.4590781,12.128 10.5350781,11.768 10.5350781,11.416 C10.5350781,10.456 10.0790781,9.68 9.16707812,9.088 C8.25507813,8.496 7.18307812,8.2 5.95107812,8.2 C4.62307813,8.2 3.55907813,8.524 2.75907813,9.172 C1.95907813,9.82 1.59507813,10.572 1.66707812,11.428 C1.73907813,12.284 2.23907812,12.992 3.16707812,13.552 L3.16707812,13.552 L3.88707812,12.808 C3.35907812,11.816 3.34307812,10.968 3.83907812,10.264 C4.33507812,9.56 5.03907813,9.208 5.95107812,9.208 C6.73507812,9.208 7.36307812,9.408 7.83507812,9.808 C8.30707813,10.208 8.54307812,10.752 8.54307812,11.44 C8.54307812,12.656 7.77507812,13.872 6.23907812,15.088 L6.23907812,15.088 L1.99107813,18.424 L1.99107813,19 L6.93507812,19 C8.13507812,19 8.90307813,19.116 9.23907813,19.348 C9.57507813,19.58 9.74307813,20.096 9.74307813,20.896 L9.74307813,20.896 L10.2470781,20.896 Z M20.7224219,19 L20.7224219,17.1953125 C19.3942969,16.296875 18.3982031,15.2011719 17.7341406,13.9082031 C17.0700781,12.6152344 16.7380469,11.1210938 16.7380469,9.42578125 C16.7380469,7.42578125 17.2263281,5.859375 18.2028906,4.7265625 C19.1794531,3.59375 20.5232031,3.02734375 22.2341406,3.02734375 C23.9528906,3.02734375 25.2985938,3.59375 26.27125,4.7265625 C27.2439063,5.859375 27.7302344,7.421875 27.7302344,9.4140625 C27.7302344,11.1171875 27.3982031,12.6171875 26.7341406,13.9140625 C26.0700781,15.2109375 25.0778906,16.3046875 23.7575781,17.1953125 L23.7575781,17.1953125 L23.7575781,19 L30.9060156,19 L30.9060156,17.1953125 L26.1364844,17.1953125 C27.5349219,16.1484375 28.58375,14.9628906 29.2829688,13.6386719 C29.9821875,12.3144531 30.3317969,10.8515625 30.3317969,9.25 C30.3317969,6.8984375 29.5739844,4.97265625 28.0583594,3.47265625 C26.5427344,1.97265625 24.6013281,1.22265625 22.2341406,1.22265625 C19.8669531,1.22265625 17.9255469,1.97460938 16.4099219,3.47851562 C14.8942969,4.98242188 14.1364844,6.90625 14.1364844,9.25 C14.1364844,10.84375 14.4860938,12.3027344 15.1853125,13.6269531 C15.8845313,14.9511719 16.9333594,16.140625 18.3317969,17.1953125 L18.3317969,17.1953125 L13.5622656,17.1953125 L13.5622656,19 L20.7224219,19 Z" id="2Ω"></path>
                </g>
            </g>
            <circle id="Oval-2" fill="#524740" cx="188" cy="44" r="5"></circle>
            <circle id="Oval-2-Copy-9" stroke="#524740" stroke-width="2" fill="#524740" cx="348" cy="44" r="4"></circle>
            <g id="DC_Power" transform="translate(148.000000, 44.000000)">
                <g id="Group-2" transform="translate(0.000000, 52.000000)">
                    <circle id="Oval" stroke="#524740" stroke-width="2" cx="40" cy="40" r="39"></circle>
                    <text id="+" font-family="Lato-Regular, Lato" font-size="18" font-weight="normal" letter-spacing="0.8999999" fill="#524740">
                        <tspan x="35.3300001" y="21">+</tspan>
                    </text>
                    <text id="-" font-family="Lato-Regular, Lato" font-size="18" font-weight="normal" letter-spacing="0.8999999" fill="#524740">
                        <tspan x="37.2065001" y="72.5">-</tspan>
                    </text>
                </g>
                <polyline id="Path-5" stroke="#524740" stroke-width="2" points="40 52 40 0 105 0"></polyline>
            </g>
            <line x1="323" y1="44" x2="373" y2="44" id="Path-11" stroke="#524740" stroke-width="2"></line>
            <circle id="Oval-2-Copy-10" stroke="#524740" stroke-width="2" fill="#524740" cx="468" cy="44" r="4"></circle>
            <circle id="Oval-2-Copy-18" stroke="#524740" stroke-width="2" fill="#524740" cx="348" cy="228" r="4"></circle>
            <circle id="Oval-2-Copy-17" stroke="#524740" stroke-width="2" fill="#524740" cx="468" cy="228" r="4"></circle>
            <circle id="Oval-2-Copy-22" stroke="#524740" stroke-width="2" fill="#524740" cx="588" cy="228" r="4"></circle>
            <path d="M8.784,115.408 L14.064,103.192 C14.464,102.264 14.804,101.684 15.084,101.452 C15.364,101.22 15.976,101.104 16.92,101.104 L16.92,101.104 L16.92,100.6 L11.328,100.6 L11.328,101.104 C12.32,101.104 12.956,101.244 13.236,101.524 C13.516,101.804 13.504,102.272 13.2,102.928 L13.2,102.928 L9.168,112.264 L5.088,102.928 C4.784,102.272 4.772,101.804 5.052,101.524 C5.332,101.244 5.968,101.104 6.96,101.104 L6.96,101.104 L6.96,100.6 L0.312,100.6 L0.312,101.104 C1.256,101.104 1.868,101.22 2.148,101.452 C2.428,101.684 2.768,102.264 3.168,103.192 L3.168,103.192 L8.472,115.408 L8.784,115.408 Z M22.032,115.408 C23.36,115.408 24.5,114.976 25.452,114.112 C26.404,113.248 26.88,112.208 26.88,110.992 C26.88,109.776 26.4,108.744 25.44,107.896 C24.496,107.032 23.36,106.6 22.032,106.6 C20.704,106.6 19.564,107.028 18.612,107.884 C17.66,108.74 17.184,109.776 17.184,110.992 C17.184,112.208 17.66,113.248 18.612,114.112 C19.564,114.976 20.704,115.408 22.032,115.408 Z M22.032,114.472 C21.088,114.472 20.368,114.144 19.872,113.488 C19.376,112.832 19.128,112 19.128,110.992 C19.128,109.984 19.376,109.152 19.872,108.496 C20.368,107.84 21.088,107.512 22.032,107.512 C22.976,107.512 23.696,107.836 24.192,108.484 C24.688,109.132 24.936,109.968 24.936,110.992 C24.936,112.016 24.688,112.856 24.192,113.512 C23.696,114.152 22.976,114.472 22.032,114.472 Z M33.984,115 L33.984,114.496 C33.184,114.496 32.668,114.328 32.436,113.992 C32.204,113.656 32.088,112.888 32.088,111.688 L32.088,111.688 L32.088,100.192 L28.488,100.792 L28.488,101.296 C29.288,101.296 29.804,101.464 30.036,101.8 C30.268,102.136 30.384,102.904 30.384,104.104 L30.384,104.104 L30.384,111.688 C30.384,112.888 30.268,113.656 30.036,113.992 C29.804,114.328 29.288,114.496 28.488,114.496 L28.488,114.496 L28.488,115 L33.984,115 Z M38.616,115.336 C39.016,115.336 39.452,115.208 39.924,114.952 C40.396,114.696 40.8,114.368 41.136,113.968 L41.136,113.968 L40.728,113.56 C40.152,114.104 39.632,114.376 39.168,114.376 C38.448,114.376 38.088,113.8 38.088,112.648 L38.088,112.648 L38.088,107.848 L40.176,107.848 L40.176,107.008 L38.088,107.008 L38.088,104.368 L37.272,104.368 C37.176,105.2 36.968,105.856 36.648,106.336 C36.328,106.816 35.824,107.128 35.136,107.272 L35.136,107.272 L35.136,107.848 L36.384,107.848 L36.384,112.648 C36.384,113.544 36.584,114.216 36.984,114.664 C37.384,115.112 37.928,115.336 38.616,115.336 Z M44.616,115.312 C45.544,115.312 46.544,114.832 47.616,113.872 C47.744,114.8 48.288,115.264 49.248,115.264 C49.84,115.264 50.368,115.016 50.832,114.52 L50.832,114.52 L50.496,114.064 C50.256,114.304 50.032,114.424 49.824,114.424 C49.456,114.424 49.272,114.112 49.272,113.488 L49.272,113.488 L49.272,109.864 C49.272,108.712 49.016,107.88 48.504,107.368 C47.992,106.856 47.152,106.6 45.984,106.6 C45.184,106.6 44.476,106.78 43.86,107.14 C43.244,107.5 42.936,107.96 42.936,108.52 C42.936,108.76 43.016,108.96 43.176,109.12 C43.336,109.28 43.536,109.36 43.776,109.36 C44,109.36 44.192,109.28 44.352,109.12 C44.512,108.96 44.592,108.76 44.592,108.52 C44.592,108.168 44.74,107.888 45.036,107.68 C45.332,107.472 45.64,107.368 45.96,107.368 C46.616,107.368 47.048,107.552 47.256,107.92 C47.464,108.288 47.568,108.944 47.568,109.888 C44.16,110.48 42.456,111.616 42.456,113.296 C42.456,113.92 42.664,114.412 43.08,114.772 C43.496,115.132 44.008,115.312 44.616,115.312 Z M45.384,114.232 C45.064,114.232 44.796,114.12 44.58,113.896 C44.364,113.672 44.256,113.376 44.256,113.008 C44.256,111.936 45.36,111.144 47.568,110.632 L47.568,110.632 L47.568,113.08 C46.704,113.848 45.976,114.232 45.384,114.232 Z M55.872,121.408 C57.088,121.408 58.1,121.116 58.908,120.532 C59.716,119.948 60.12,119.168 60.12,118.192 C60.12,117.376 59.776,116.68 59.088,116.104 C58.4,115.528 57.288,115.176 55.752,115.048 C54.296,114.92 53.568,114.616 53.568,114.136 C53.568,113.672 54.464,113.336 56.256,113.128 C57.088,113.016 57.816,112.656 58.44,112.048 C59.064,111.44 59.376,110.712 59.376,109.864 C59.376,109.128 59.144,108.48 58.68,107.92 C58.936,107.664 59.184,107.536 59.424,107.536 C59.648,107.536 59.812,107.596 59.916,107.716 C60.02,107.836 60.084,107.964 60.108,108.1 C60.132,108.236 60.204,108.36 60.324,108.472 C60.444,108.584 60.624,108.632 60.864,108.616 C60.992,108.616 61.104,108.576 61.2,108.496 C61.488,108.272 61.56,107.936 61.416,107.488 C61.224,106.896 60.776,106.6 60.072,106.6 C59.8,106.6 59.484,106.688 59.124,106.864 C58.764,107.04 58.48,107.256 58.272,107.512 C57.584,106.904 56.76,106.6 55.8,106.6 C54.808,106.6 53.964,106.92 53.268,107.56 C52.572,108.2 52.224,108.968 52.224,109.864 C52.224,110.504 52.404,111.08 52.764,111.592 C53.124,112.104 53.616,112.504 54.24,112.792 C52.896,113.208 52.224,113.848 52.224,114.712 C52.224,115.976 53.36,116.72 55.632,116.944 C56.736,117.056 57.548,117.232 58.068,117.472 C58.588,117.712 58.848,118.096 58.848,118.624 C58.848,119.168 58.548,119.612 57.948,119.956 C57.348,120.3 56.656,120.472 55.872,120.472 C55.376,120.472 54.9,120.4 54.444,120.256 C53.988,120.112 53.604,119.912 53.292,119.656 C52.98,119.4 52.84,119.052 52.872,118.612 C52.904,118.172 53.152,117.688 53.616,117.16 L53.616,117.16 L53.184,116.896 C52.224,117.392 51.712,118 51.648,118.72 C51.584,119.44 51.948,120.068 52.74,120.604 C53.532,121.14 54.576,121.408 55.872,121.408 Z M55.8,112.336 C55.24,112.336 54.808,112.108 54.504,111.652 C54.2,111.196 54.048,110.6 54.048,109.864 C54.048,109.128 54.2,108.528 54.504,108.064 C54.808,107.6 55.24,107.368 55.8,107.368 C56.36,107.368 56.788,107.6 57.084,108.064 C57.38,108.528 57.528,109.128 57.528,109.864 C57.528,110.6 57.376,111.2 57.072,111.664 C56.784,112.112 56.36,112.336 55.8,112.336 Z M66.96,115.408 C67.632,115.408 68.304,115.26 68.976,114.964 C69.648,114.668 70.2,114.288 70.632,113.824 L70.632,113.824 L70.2,113.296 C69.864,113.616 69.44,113.88 68.928,114.088 C68.416,114.296 67.96,114.4 67.56,114.4 C66.376,114.4 65.524,114.028 65.004,113.284 C64.484,112.54 64.296,111.576 64.44,110.392 L64.44,110.392 L70.224,110.392 C70.512,109.384 70.312,108.5 69.624,107.74 C68.936,106.98 68.048,106.6 66.96,106.6 C65.808,106.6 64.78,107.024 63.876,107.872 C62.972,108.72 62.52,109.76 62.52,110.992 C62.52,112.224 62.936,113.268 63.768,114.124 C64.6,114.98 65.664,115.408 66.96,115.408 Z M68.568,109.504 L64.584,109.504 C64.76,108.912 65.052,108.44 65.46,108.088 C65.868,107.736 66.328,107.56 66.84,107.56 C67.56,107.56 68.068,107.772 68.364,108.196 C68.66,108.62 68.728,109.056 68.568,109.504 L68.568,109.504 Z M79.056,115.408 C79.152,114.96 79.384,114.584 79.752,114.28 C79.912,114.312 80.192,114.428 80.592,114.628 C80.992,114.828 81.44,115.008 81.936,115.168 C82.432,115.328 82.952,115.408 83.496,115.408 C84.776,115.408 85.86,115.008 86.748,114.208 C87.636,113.408 88.08,112.368 88.08,111.088 C88.08,109.504 87.24,108.288 85.56,107.44 L85.56,107.44 L83.28,106.264 C82.176,105.688 81.412,105.196 80.988,104.788 C80.564,104.38 80.352,103.88 80.352,103.288 C80.352,102.68 80.572,102.172 81.012,101.764 C81.452,101.356 82.008,101.152 82.68,101.152 C84.888,101.152 86.112,102.552 86.352,105.352 L86.352,105.352 L86.856,105.352 L86.856,100.072 L86.376,100.072 C86.28,100.504 86.048,100.872 85.68,101.176 C84.784,100.52 83.808,100.192 82.752,100.192 C81.6,100.192 80.648,100.536 79.896,101.224 C79.144,101.912 78.768,102.76 78.768,103.768 C78.768,104.632 79.024,105.408 79.536,106.096 C80.048,106.784 80.68,107.328 81.432,107.728 L81.432,107.728 L83.736,108.904 C85.576,109.864 86.496,110.832 86.496,111.808 C86.496,112.576 86.212,113.208 85.644,113.704 C85.076,114.2 84.36,114.448 83.496,114.448 C82.904,114.448 82.364,114.368 81.876,114.208 C81.388,114.048 80.996,113.848 80.7,113.608 C80.404,113.368 80.144,113.08 79.92,112.744 C79.696,112.408 79.532,112.104 79.428,111.832 C79.324,111.56 79.244,111.276 79.188,110.98 C79.132,110.684 79.1,110.484 79.092,110.38 C79.084,110.276 79.08,110.192 79.08,110.128 L79.08,110.128 L78.576,110.128 L78.576,115.408 L79.056,115.408 Z M95.256,115.408 C96.584,115.408 97.724,114.976 98.676,114.112 C99.628,113.248 100.104,112.208 100.104,110.992 C100.104,109.776 99.624,108.744 98.664,107.896 C97.72,107.032 96.584,106.6 95.256,106.6 C93.928,106.6 92.788,107.028 91.836,107.884 C90.884,108.74 90.408,109.776 90.408,110.992 C90.408,112.208 90.884,113.248 91.836,114.112 C92.788,114.976 93.928,115.408 95.256,115.408 Z M95.256,114.472 C94.312,114.472 93.592,114.144 93.096,113.488 C92.6,112.832 92.352,112 92.352,110.992 C92.352,109.984 92.6,109.152 93.096,108.496 C93.592,107.84 94.312,107.512 95.256,107.512 C96.2,107.512 96.92,107.836 97.416,108.484 C97.912,109.132 98.16,109.968 98.16,110.992 C98.16,112.016 97.912,112.856 97.416,113.512 C96.92,114.152 96.2,114.472 95.256,114.472 Z M110.112,115.408 L113.328,114.808 L113.328,114.304 C112.512,114.304 111.988,114.136 111.756,113.8 C111.524,113.464 111.408,112.696 111.408,111.496 L111.408,111.496 L111.408,107.008 L107.808,107.008 L107.808,107.488 C108.624,107.488 109.148,107.656 109.38,107.992 C109.612,108.328 109.728,109.096 109.728,110.296 L109.728,110.296 L109.728,111.88 C109.728,112.552 109.432,113.116 108.84,113.572 C108.248,114.028 107.68,114.256 107.136,114.256 C105.92,114.256 105.312,113.4 105.312,111.688 L105.312,111.688 L105.312,107.008 L101.712,107.008 L101.712,107.488 C102.512,107.488 103.028,107.656 103.26,107.992 C103.492,108.328 103.608,109.096 103.608,110.296 L103.608,110.296 L103.608,111.808 C103.608,114.208 104.6,115.408 106.584,115.408 C107.688,115.408 108.736,114.896 109.728,113.872 C109.856,114.64 109.984,115.152 110.112,115.408 L110.112,115.408 Z M120.192,115 L120.192,114.496 C119.392,114.496 118.876,114.328 118.644,113.992 C118.412,113.656 118.296,112.888 118.296,111.688 L118.296,111.688 L118.296,110.368 C118.296,109.52 118.512,108.84 118.944,108.328 C119.376,107.816 119.776,107.56 120.144,107.56 C120.656,107.56 120.912,107.824 120.912,108.352 C120.912,108.576 120.996,108.776 121.164,108.952 C121.332,109.128 121.528,109.216 121.752,109.216 C122.392,109.216 122.712,108.84 122.712,108.088 C122.712,107.736 122.548,107.4 122.22,107.08 C121.892,106.76 121.424,106.6 120.816,106.6 C120.336,106.6 119.856,106.768 119.376,107.104 C118.896,107.44 118.536,107.848 118.296,108.328 C118.168,107.48 118.032,106.904 117.888,106.6 L117.888,106.6 L114.696,107.2 L114.696,107.704 C115.496,107.704 116.012,107.872 116.244,108.208 C116.476,108.544 116.592,109.304 116.592,110.488 L116.592,110.488 L116.592,111.688 C116.592,112.888 116.476,113.656 116.244,113.992 C116.012,114.328 115.496,114.496 114.696,114.496 L114.696,114.496 L114.696,115 L120.192,115 Z M128.616,115.408 C130.024,115.408 131.216,114.88 132.192,113.824 L132.192,113.824 L131.784,113.296 C131,114.032 130.144,114.4 129.216,114.4 C128.256,114.4 127.532,114.116 127.044,113.548 C126.556,112.98 126.312,112.2 126.312,111.208 C126.312,110.12 126.536,109.208 126.984,108.472 C127.432,107.736 127.976,107.368 128.616,107.368 C129.192,107.368 129.48,107.712 129.48,108.4 C129.48,108.672 129.572,108.9 129.756,109.084 C129.94,109.268 130.16,109.36 130.416,109.36 C130.784,109.36 131.052,109.252 131.22,109.036 C131.388,108.82 131.472,108.584 131.472,108.328 C131.472,107.848 131.232,107.44 130.752,107.104 C130.272,106.768 129.56,106.6 128.616,106.6 C127.576,106.6 126.608,107.036 125.712,107.908 C124.816,108.78 124.368,109.88 124.368,111.208 C124.368,112.44 124.748,113.448 125.508,114.232 C126.268,115.016 127.304,115.408 128.616,115.408 Z M138.24,115.408 C138.912,115.408 139.584,115.26 140.256,114.964 C140.928,114.668 141.48,114.288 141.912,113.824 L141.912,113.824 L141.48,113.296 C141.144,113.616 140.72,113.88 140.208,114.088 C139.696,114.296 139.24,114.4 138.84,114.4 C137.656,114.4 136.804,114.028 136.284,113.284 C135.764,112.54 135.576,111.576 135.72,110.392 L135.72,110.392 L141.504,110.392 C141.792,109.384 141.592,108.5 140.904,107.74 C140.216,106.98 139.328,106.6 138.24,106.6 C137.088,106.6 136.06,107.024 135.156,107.872 C134.252,108.72 133.8,109.76 133.8,110.992 C133.8,112.224 134.216,113.268 135.048,114.124 C135.88,114.98 136.944,115.408 138.24,115.408 Z M139.848,109.504 L135.864,109.504 C136.04,108.912 136.332,108.44 136.74,108.088 C137.148,107.736 137.608,107.56 138.12,107.56 C138.84,107.56 139.348,107.772 139.644,108.196 C139.94,108.62 140.008,109.056 139.848,109.504 L139.848,109.504 Z" id="VoltageSource" fill="#524740" fill-rule="nonzero"></path>
            <path d="M184.8,28 L184.8,27.496 C183.808,27.496 183.172,27.356 182.892,27.076 C182.612,26.796 182.624,26.328 182.928,25.672 L182.928,25.672 L184.08,23.008 L189.888,23.008 L191.04,25.672 C191.328,26.328 191.336,26.796 191.064,27.076 C190.792,27.356 190.16,27.496 189.168,27.496 L189.168,27.496 L189.168,28 L195.816,28 L195.816,27.496 C195.304,27.496 194.912,27.476 194.64,27.436 C194.368,27.396 194.124,27.268 193.908,27.052 C193.692,26.836 193.54,26.64 193.452,26.464 C193.364,26.288 193.2,25.936 192.96,25.408 L192.96,25.408 L187.656,13.192 L187.344,13.192 L182.064,25.408 C181.824,25.936 181.66,26.288 181.572,26.464 C181.484,26.64 181.332,26.836 181.116,27.052 C180.9,27.268 180.652,27.396 180.372,27.436 C180.092,27.476 179.696,27.496 179.184,27.496 L179.184,27.496 L179.184,28 L184.8,28 Z M189.48,22.12 L184.464,22.12 L186.96,16.336 L189.48,22.12 Z" id="A" fill="#1A80AA" fill-rule="nonzero"></path>
            <path d="M348.244,28 C349.86,28 351.124,27.62 352.036,26.86 C352.948,26.1 353.404,25.136 353.404,23.968 C353.404,23.104 353.124,22.328 352.564,21.64 C352.004,20.952 351.26,20.464 350.332,20.176 C351.58,19.44 352.204,18.448 352.204,17.2 C352.204,16.16 351.8,15.3 350.992,14.62 C350.184,13.94 349.044,13.6 347.572,13.6 L347.572,13.6 L341.116,13.6 L341.116,14.104 C342.108,14.104 342.736,14.268 343,14.596 C343.264,14.924 343.396,15.688 343.396,16.888 L343.396,16.888 L343.396,24.688 C343.396,25.888 343.264,26.656 343,26.992 C342.736,27.328 342.108,27.496 341.116,27.496 L341.116,27.496 L341.116,28 L348.244,28 Z M347.452,19.888 L345.316,19.888 L345.316,14.488 L347.452,14.488 C348.316,14.488 348.972,14.744 349.42,15.256 C349.868,15.768 350.092,16.416 350.092,17.2 C350.092,17.984 349.868,18.628 349.42,19.132 C348.972,19.636 348.316,19.888 347.452,19.888 L347.452,19.888 Z M348.22,27.112 L347.596,27.112 C346.604,27.112 345.976,26.948 345.712,26.62 C345.448,26.292 345.316,25.528 345.316,24.328 L345.316,24.328 L345.316,20.776 L348.22,20.776 C349.212,20.776 349.972,21.076 350.5,21.676 C351.028,22.276 351.292,23.04 351.292,23.968 C351.292,24.88 351.028,25.632 350.5,26.224 C349.972,26.816 349.212,27.112 348.22,27.112 L348.22,27.112 Z" id="B" fill="#1A80AA" fill-rule="nonzero"></path>
            <path d="M468.268,28.408 C469.932,28.408 471.42,27.728 472.732,26.368 C473.148,26.656 473.42,27.112 473.548,27.736 L473.548,27.736 L474.028,27.736 L474.028,22.456 L473.548,22.456 C473.212,24.008 472.592,25.228 471.688,26.116 C470.784,27.004 469.676,27.448 468.364,27.448 C467.452,27.448 466.644,27.244 465.94,26.836 C465.236,26.428 464.688,25.892 464.296,25.228 C463.904,24.564 463.612,23.856 463.42,23.104 C463.228,22.352 463.132,21.584 463.132,20.8 C463.132,20.016 463.228,19.248 463.42,18.496 C463.612,17.744 463.904,17.032 464.296,16.36 C464.688,15.688 465.236,15.148 465.94,14.74 C466.644,14.332 467.452,14.128 468.364,14.128 C469.676,14.128 470.784,14.568 471.688,15.448 C472.592,16.328 473.212,17.56 473.548,19.144 L473.548,19.144 L474.028,19.144 L474.028,13.864 L473.548,13.864 C473.436,14.44 473.164,14.896 472.732,15.232 C471.452,13.872 469.964,13.192 468.268,13.192 C466.236,13.192 464.5,13.936 463.06,15.424 C461.62,16.912 460.9,18.704 460.9,20.8 C460.9,22.896 461.62,24.688 463.06,26.176 C464.5,27.664 466.236,28.408 468.268,28.408 Z" id="C" fill="#1A80AA" fill-rule="nonzero"></path>
            <path d="M586.36,28 C589.016,28 591.016,27.328 592.36,25.984 C593.704,24.64 594.376,22.912 594.376,20.8 C594.376,18.688 593.704,16.96 592.36,15.616 C591.016,14.272 589.016,13.6 586.36,13.6 L586.36,13.6 L579.856,13.6 L579.856,14.104 C580.848,14.104 581.476,14.268 581.74,14.596 C582.004,14.924 582.136,15.688 582.136,16.888 L582.136,16.888 L582.136,24.688 C582.136,25.888 582.004,26.656 581.74,26.992 C581.476,27.328 580.848,27.496 579.856,27.496 L579.856,27.496 L579.856,28 L586.36,28 Z M586.384,27.112 L586.288,27.112 C585.312,27.112 584.696,26.952 584.44,26.632 C584.184,26.312 584.056,25.544 584.056,24.328 L584.056,24.328 L584.056,14.488 L586.384,14.488 C587.488,14.488 588.436,14.68 589.228,15.064 C590.02,15.448 590.612,15.964 591.004,16.612 C591.396,17.26 591.672,17.924 591.832,18.604 C591.992,19.284 592.072,20.016 592.072,20.8 C592.072,21.584 591.992,22.316 591.832,22.996 C591.672,23.676 591.396,24.34 591.004,24.988 C590.612,25.636 590.02,26.152 589.228,26.536 C588.436,26.92 587.488,27.112 586.384,27.112 L586.384,27.112 Z" id="D" fill="#1A80AA" fill-rule="nonzero"></path>
            <circle id="Oval-2-Copy-13" fill="#524740" cx="588" cy="44" r="5"></circle>
            <circle id="Oval-2-Copy-12" stroke="#524740" stroke-width="2" cx="348" cy="195" r="4"></circle>
            <circle id="Oval-2-Copy-14" stroke="#524740" stroke-width="2" cx="348" cy="78" r="4"></circle>
            <circle id="Oval-2-Copy-15" stroke="#524740" stroke-width="2" cx="468" cy="78" r="4"></circle>
            <circle id="Oval-2-Copy-11" stroke="#524740" stroke-width="2" cx="468" cy="195" r="4"></circle>
            <line x1="443" y1="44" x2="493" y2="44" id="Path-11-Copy" stroke="#524740" stroke-width="2"></line>
            <line x1="348" y1="44" x2="348" y2="75" id="Path-12" stroke="#524740" stroke-width="2"></line>
            <line x1="468" y1="44" x2="468" y2="75" id="Path-12-Copy" stroke="#524740" stroke-width="2"></line>
            <circle id="Oval-2-Copy-20" stroke="#524740" stroke-width="2" cx="588" cy="78" r="4"></circle>
            <line x1="588" y1="44" x2="588" y2="75" id="Path-12-Copy-5" stroke="#524740" stroke-width="2"></line>
            <line x1="348" y1="198" x2="348" y2="229" id="Path-12-Copy-7" stroke="#524740" stroke-width="2"></line>
            <line x1="468" y1="198" x2="468" y2="229" id="Path-12-Copy-6" stroke="#524740" stroke-width="2"></line>
            <circle id="Oval-2-Copy-21" stroke="#524740" stroke-width="2" cx="588" cy="195" r="4"></circle>
            <line x1="588" y1="198" x2="588" y2="229" id="Path-12-Copy-8" stroke="#524740" stroke-width="2"></line>
            <polyline id="Path-12-Copy-9" stroke="#524740" stroke-width="2" points="562.643475 44 638 44 638 228"></polyline>
            <polyline id="Path-12-Copy-3" stroke="#524740" stroke-width="2" transform="translate(413.000000, 202.000000) scale(1, -1) translate(-413.000000, -202.000000) " points="188 228 188 176 588 176 638 176"></polyline>
            <g id="Group-4" transform="translate(345.000000, 83.000000)">
                <line x1="3" y1="1" x2="3" y2="37" id="Path-14" stroke="#23ABE3"></line>
                <polygon id="Triangle" fill="#23ABE3" points="3 0 6 6 0 6"></polygon>
            </g>
            <g id="Group-3" transform="translate(345.000000, 153.000000)">
                <line x1="3" y1="0" x2="3" y2="36" id="Path-14-Copy" stroke="#23ABE3"></line>
                <polygon id="Triangle-Copy" fill="#23ABE3" points="3 37 0 31 6 31"></polygon>
            </g>
            <g id="Group-4-Copy" transform="translate(465.000000, 83.000000)">
                <line x1="3" y1="1" x2="3" y2="37" id="Path-14" stroke="#23ABE3"></line>
                <polygon id="Triangle" fill="#23ABE3" points="3 0 6 6 0 6"></polygon>
                <line x1="123" y1="1" x2="123" y2="37" id="Path-14-Copy-3" stroke="#23ABE3"></line>
                <polygon id="Triangle-Copy-3" fill="#23ABE3" points="123 0 126 6 120 6"></polygon>
            </g>
            <g id="Group-3-Copy" transform="translate(465.000000, 153.000000)">
                <line x1="3" y1="0" x2="3" y2="36" id="Path-14-Copy" stroke="#23ABE3"></line>
                <polygon id="Triangle-Copy" fill="#23ABE3" points="3 37 0 31 6 31"></polygon>
                <line x1="123" y1="0" x2="123" y2="36" id="Path-14-Copy-2" stroke="#23ABE3"></line>
                <polygon id="Triangle-Copy-2" fill="#23ABE3" points="123 37 120 31 126 31"></polygon>
            </g>
        </g>
    </g>
</svg>