<?xml version="1.0" encoding="UTF-8"?>
<svg width="900px" height="280px" viewBox="0 0 900 280" version="1.1" xmlns="http://www.w3.org/2000/svg" xmlns:xlink="http://www.w3.org/1999/xlink">
    <!-- Generator: Sketch 60.1 (88133) - https://sketch.com -->
    <title>Voltage_Divider_Equation</title>
    <desc>Created with Sketch.</desc>
    <g id="Voltage_Divider_Equation" stroke="none" stroke-width="1" fill="none" fill-rule="evenodd">
        <g id="Illustration_Frame">
            <rect id="Rectangle" stroke="#3D3530" stroke-width="2" fill="#EEEEEE" x="1" y="1" width="898" height="278"></rect>
            <rect id="Rectangle-Copy" stroke="#3D3530" stroke-width="2" fill="#F8FAE4" x="1" y="236" width="898" height="43"></rect>
            <path d="M709.895999,265 L716.255999,248.872 L714.647999,248.872 L709.103999,262.96 L703.535999,248.872 L701.903999,248.872 L708.287999,265 L709.895999,265 Z M722.586666,265.192 C724.298666,265.192 725.754666,264.584 726.954666,263.368 C728.170666,262.152 728.778666,260.696 728.778666,259 C728.778666,257.288 728.174666,255.828 726.966666,254.62 C725.758666,253.412 724.298666,252.808 722.586666,252.808 C720.874666,252.808 719.414666,253.412 718.206666,254.62 C716.998666,255.828 716.394666,257.288 716.394666,259 C716.394666,260.712 716.998666,262.172 718.206666,263.38 C719.414666,264.588 720.874666,265.192 722.586666,265.192 Z M722.610666,263.68 C721.330666,263.68 720.242666,263.228 719.346666,262.324 C718.450666,261.42 718.002666,260.312 718.002666,259 C718.002666,257.688 718.450666,256.576 719.346666,255.664 C720.242666,254.752 721.330666,254.296 722.610666,254.296 C723.906666,254.296 724.998666,254.752 725.886666,255.664 C726.774666,256.576 727.218666,257.688 727.218666,259 C727.218666,260.312 726.774666,261.42 725.886666,262.324 C724.998666,263.228 723.906666,263.68 722.610666,263.68 Z M733.645333,265 L733.645333,247.144 L732.061333,247.144 L732.061333,265 L733.645333,265 Z M742.064,265.192 C742.656,265.192 743.232,265.036 743.792,264.724 C744.352,264.412 744.712,264.168 744.872,263.992 C745.032,263.816 745.16,263.664 745.256,263.536 L745.256,263.536 L744.464,262.312 C744.464,262.376 744.38,262.516 744.212,262.732 C744.044,262.948 743.784,263.168 743.432,263.392 C743.08,263.616 742.72,263.728 742.352,263.728 C741.76,263.728 741.236,263.512 740.78,263.08 C740.324,262.648 740.096,262.064 740.096,261.328 L740.096,261.328 L740.096,254.44 L743.72,254.44 L743.72,252.976 L740.096,252.976 L740.096,248.992 L738.512,249.184 L738.512,252.976 L736.592,252.976 L736.592,254.44 L738.512,254.44 L738.512,261.688 C738.512,262.824 738.852,263.692 739.532,264.292 C740.212,264.892 741.056,265.192 742.064,265.192 Z M752.906666,265.192 C754.794666,265.192 756.354666,264.48 757.586666,263.056 L757.586666,263.056 L757.586666,265 L759.170666,265 L759.170666,253 L757.586666,253 L757.586666,254.944 C756.370666,253.52 754.810666,252.808 752.906666,252.808 C751.194666,252.808 749.734666,253.412 748.526666,254.62 C747.318666,255.828 746.714666,257.288 746.714666,259 C746.714666,260.712 747.318666,262.172 748.526666,263.38 C749.734666,264.588 751.194666,265.192 752.906666,265.192 Z M752.930666,263.68 C751.650666,263.68 750.558666,263.228 749.654666,262.324 C748.750666,261.42 748.298666,260.312 748.298666,259 C748.298666,257.688 748.750666,256.58 749.654666,255.676 C750.558666,254.772 751.650666,254.32 752.930666,254.32 C754.226666,254.32 755.318666,254.772 756.206666,255.676 C757.094666,256.58 757.538666,257.688 757.538666,259 C757.538666,260.312 757.094666,261.42 756.206666,262.324 C755.318666,263.228 754.226666,263.68 752.930666,263.68 Z M768.717333,270.112 C770.349333,270.112 771.785333,269.524 773.025333,268.348 C774.265333,267.172 774.893333,265.712 774.909333,263.968 L774.909333,263.968 L774.909333,253.024 L773.301333,253.024 L773.301333,254.968 C772.069333,253.544 770.509333,252.832 768.621333,252.832 C766.909333,252.832 765.449333,253.436 764.241333,254.644 C763.033333,255.852 762.429333,257.312 762.429333,259.024 C762.429333,260.736 763.033333,262.196 764.241333,263.404 C765.449333,264.612 766.909333,265.216 768.621333,265.216 C770.525333,265.216 772.085333,264.504 773.301333,263.08 L773.301333,263.08 L773.301333,263.968 L773.325333,263.968 C773.309333,265.216 772.857333,266.308 771.969333,267.244 C771.081333,268.18 769.997333,268.648 768.717333,268.648 C767.629333,268.648 766.661333,268.344 765.813333,267.736 C764.965333,267.128 764.389333,266.416 764.085333,265.6 L764.085333,265.6 L762.789333,266.248 C763.157333,267.24 763.865333,268.132 764.913333,268.924 C765.961333,269.716 767.229333,270.112 768.717333,270.112 Z M768.645333,263.728 C767.365333,263.728 766.277333,263.276 765.381333,262.372 C764.485333,261.468 764.037333,260.36 764.037333,259.048 C764.037333,257.736 764.485333,256.628 765.381333,255.724 C766.277333,254.82 767.365333,254.368 768.645333,254.368 C769.941333,254.368 771.033333,254.82 771.921333,255.724 C772.809333,256.628 773.253333,257.736 773.253333,259.048 C773.253333,260.36 772.809333,261.468 771.921333,262.372 C771.033333,263.276 769.941333,263.728 768.645333,263.728 Z M784.384,265.072 C785.856,265.088 787.124,264.672 788.188,263.824 C789.252,262.976 789.968,262.048 790.336,261.04 L790.336,261.04 L788.992,260.56 C788.688,261.376 788.112,262.088 787.264,262.696 C786.416,263.304 785.456,263.608 784.384,263.608 C783.392,263.624 782.488,263.324 781.672,262.708 C780.856,262.092 780.312,261.304 780.04,260.344 L780.04,260.344 L790.528,258.448 C790.528,258.32 790.52,258.216 790.504,258.136 C790.328,256.6 789.656,255.312 788.488,254.272 C787.32,253.232 785.952,252.704 784.384,252.688 C782.656,252.704 781.192,253.312 779.992,254.512 C778.792,255.712 778.192,257.176 778.192,258.904 C778.192,259.528 778.272,260.104 778.432,260.632 C778.832,261.928 779.588,262.992 780.7,263.824 C781.812,264.656 783.04,265.072 784.384,265.072 Z M779.8,259.048 C779.8,258.968 779.796,258.868 779.788,258.748 C779.78,258.628 779.776,258.544 779.776,258.496 C779.84,257.312 780.3,256.296 781.156,255.448 C782.012,254.6 783.04,254.168 784.24,254.152 C785.264,254.136 786.192,254.436 787.024,255.052 C787.856,255.668 788.424,256.464 788.728,257.44 L788.728,257.44 L779.8,259.048 Z M804.917333,265 C807.557333,265 809.665333,264.228 811.241333,262.684 C812.817333,261.14 813.605333,259.224 813.605333,256.936 C813.605333,254.632 812.821333,252.712 811.253333,251.176 C809.685333,249.64 807.573333,248.872 804.917333,248.872 L804.917333,248.872 L801.269333,248.872 L801.269333,265 L804.917333,265 Z M804.917333,263.488 L802.853333,263.488 L802.853333,250.384 L804.917333,250.384 C807.029333,250.384 808.717333,251.004 809.981333,252.244 C811.245333,253.484 811.877333,255.048 811.877333,256.936 C811.877333,258.824 811.245333,260.388 809.981333,261.628 C808.717333,262.868 807.029333,263.488 804.917333,263.488 L804.917333,263.488 Z M818.04,249.688 C818.312,249.688 818.536,249.592 818.712,249.4 C818.904,249.208 819,248.984 819,248.728 C819,248.472 818.908,248.248 818.724,248.056 C818.54,247.864 818.312,247.768 818.04,247.768 C817.768,247.768 817.54,247.864 817.356,248.056 C817.172,248.248 817.08,248.472 817.08,248.728 C817.08,248.984 817.172,249.208 817.356,249.4 C817.54,249.592 817.768,249.688 818.04,249.688 Z M818.832,265 L818.832,253 L817.248,253 L817.248,265 L818.832,265 Z M827.922666,265 L832.170666,253 L830.586666,253 L827.130666,262.768 L823.698666,253 L822.114666,253 L826.338666,265 L827.922666,265 Z M835.981333,249.688 C836.253333,249.688 836.477333,249.592 836.653333,249.4 C836.845333,249.208 836.941333,248.984 836.941333,248.728 C836.941333,248.472 836.849333,248.248 836.665333,248.056 C836.481333,247.864 836.253333,247.768 835.981333,247.768 C835.709333,247.768 835.481333,247.864 835.297333,248.056 C835.113333,248.248 835.021333,248.472 835.021333,248.728 C835.021333,248.984 835.113333,249.208 835.297333,249.4 C835.481333,249.592 835.709333,249.688 835.981333,249.688 Z M836.773333,265 L836.773333,253 L835.189333,253 L835.189333,265 L836.773333,265 Z M846.44,265.192 C848.328,265.192 849.888,264.48 851.12,263.056 L851.12,263.056 L851.12,265 L852.704,265 L852.704,247.144 L851.12,247.144 L851.12,254.944 C849.904,253.52 848.344,252.808 846.44,252.808 C844.728,252.808 843.268,253.412 842.06,254.62 C840.852,255.828 840.248,257.288 840.248,259 C840.248,260.712 840.852,262.172 842.06,263.38 C843.268,264.588 844.728,265.192 846.44,265.192 Z M846.464,263.68 C845.168,263.68 844.072,263.232 843.176,262.336 C842.28,261.424 841.832,260.312 841.832,259 C841.832,257.688 842.28,256.58 843.176,255.676 C844.072,254.772 845.168,254.32 846.464,254.32 C847.76,254.32 848.852,254.772 849.74,255.676 C850.628,256.58 851.072,257.688 851.072,259 C851.072,260.312 850.628,261.42 849.74,262.324 C848.852,263.228 847.76,263.68 846.464,263.68 Z M862.130667,265.072 C863.602667,265.088 864.870667,264.672 865.934667,263.824 C866.998667,262.976 867.714667,262.048 868.082667,261.04 L868.082667,261.04 L866.738667,260.56 C866.434667,261.376 865.858667,262.088 865.010667,262.696 C864.162667,263.304 863.202667,263.608 862.130667,263.608 C861.138667,263.624 860.234667,263.324 859.418667,262.708 C858.602667,262.092 858.058667,261.304 857.786667,260.344 L857.786667,260.344 L868.274667,258.448 C868.274667,258.32 868.266667,258.216 868.250667,258.136 C868.074667,256.6 867.402667,255.312 866.234667,254.272 C865.066667,253.232 863.698667,252.704 862.130667,252.688 C860.402667,252.704 858.938667,253.312 857.738667,254.512 C856.538667,255.712 855.938667,257.176 855.938667,258.904 C855.938667,259.528 856.018667,260.104 856.178667,260.632 C856.578667,261.928 857.334667,262.992 858.446667,263.824 C859.558667,264.656 860.786667,265.072 862.130667,265.072 Z M857.546667,259.048 C857.546667,258.968 857.542667,258.868 857.534667,258.748 C857.526667,258.628 857.522667,258.544 857.522667,258.496 C857.586667,257.312 858.046667,256.296 858.902667,255.448 C859.758667,254.6 860.786667,254.168 861.986667,254.152 C863.010667,254.136 863.938667,254.436 864.770667,255.052 C865.602667,255.668 866.170667,256.464 866.474667,257.44 L866.474667,257.44 L857.546667,259.048 Z M872.781333,265 L872.781333,257.968 C872.781333,256.928 873.125333,256.052 873.813333,255.34 C874.501333,254.628 875.349333,254.272 876.357333,254.272 C877.045333,254.272 877.725333,254.52 878.397333,255.016 L878.397333,255.016 L878.949333,253.432 C878.245333,253.016 877.469333,252.808 876.621333,252.808 C875.037333,252.808 873.757333,253.464 872.781333,254.776 L872.781333,254.776 L872.781333,253 L871.197333,253 L871.197333,265 L872.781333,265 Z" id="VoltageDivider" fill="#23ABE3" fill-rule="nonzero"></path>
        </g>
        <g transform="translate(132.000000, 26.000000)">
            <path id="Line-11-Copy-5" d="M175.5,14 L185,33 L177,33 L177,44.5 L174,44.5 L174,33 L166,33 L175.5,14 Z" fill="#B09679" fill-rule="nonzero"></path>
            <g id="Vout" transform="translate(363.000000, 128.000000)" fill="#1A80AA" fill-rule="nonzero">
                <path d="M9.152,17.408 L14.432,5.192 C14.832,4.264 15.172,3.684 15.452,3.452 C15.732,3.22 16.344,3.104 17.288,3.104 L17.288,3.104 L17.288,2.6 L11.696,2.6 L11.696,3.104 C12.688,3.104 13.324,3.244 13.604,3.524 C13.884,3.804 13.872,4.272 13.568,4.928 L13.568,4.928 L9.536,14.264 L5.456,4.928 C5.152,4.272 5.14,3.804 5.42,3.524 C5.7,3.244 6.336,3.104 7.328,3.104 L7.328,3.104 L7.328,2.6 L0.68,2.6 L0.68,3.104 C1.624,3.104 2.236,3.22 2.516,3.452 C2.796,3.684 3.136,4.264 3.536,5.192 L3.536,5.192 L8.84,17.408 L9.152,17.408 Z M22.4,17.408 C23.728,17.408 24.868,16.976 25.82,16.112 C26.772,15.248 27.248,14.208 27.248,12.992 C27.248,11.776 26.768,10.744 25.808,9.896 C24.864,9.032 23.728,8.6 22.4,8.6 C21.072,8.6 19.932,9.028 18.98,9.884 C18.028,10.74 17.552,11.776 17.552,12.992 C17.552,14.208 18.028,15.248 18.98,16.112 C19.932,16.976 21.072,17.408 22.4,17.408 Z M22.4,16.472 C21.456,16.472 20.736,16.144 20.24,15.488 C19.744,14.832 19.496,14 19.496,12.992 C19.496,11.984 19.744,11.152 20.24,10.496 C20.736,9.84 21.456,9.512 22.4,9.512 C23.344,9.512 24.064,9.836 24.56,10.484 C25.056,11.132 25.304,11.968 25.304,12.992 C25.304,14.016 25.056,14.856 24.56,15.512 C24.064,16.152 23.344,16.472 22.4,16.472 Z M37.256,17.408 L40.472,16.808 L40.472,16.304 C39.656,16.304 39.132,16.136 38.9,15.8 C38.668,15.464 38.552,14.696 38.552,13.496 L38.552,13.496 L38.552,9.008 L34.952,9.008 L34.952,9.488 C35.768,9.488 36.292,9.656 36.524,9.992 C36.756,10.328 36.872,11.096 36.872,12.296 L36.872,12.296 L36.872,13.88 C36.872,14.552 36.576,15.116 35.984,15.572 C35.392,16.028 34.824,16.256 34.28,16.256 C33.064,16.256 32.456,15.4 32.456,13.688 L32.456,13.688 L32.456,9.008 L28.856,9.008 L28.856,9.488 C29.656,9.488 30.172,9.656 30.404,9.992 C30.636,10.328 30.752,11.096 30.752,12.296 L30.752,12.296 L30.752,13.808 C30.752,16.208 31.744,17.408 33.728,17.408 C34.832,17.408 35.88,16.896 36.872,15.872 C37,16.64 37.128,17.152 37.256,17.408 L37.256,17.408 Z M45.08,17.336 C45.48,17.336 45.916,17.208 46.388,16.952 C46.86,16.696 47.264,16.368 47.6,15.968 L47.6,15.968 L47.192,15.56 C46.616,16.104 46.096,16.376 45.632,16.376 C44.912,16.376 44.552,15.8 44.552,14.648 L44.552,14.648 L44.552,9.848 L46.64,9.848 L46.64,9.008 L44.552,9.008 L44.552,6.368 L43.736,6.368 C43.64,7.2 43.432,7.856 43.112,8.336 C42.792,8.816 42.288,9.128 41.6,9.272 L41.6,9.272 L41.6,9.848 L42.848,9.848 L42.848,14.648 C42.848,15.544 43.048,16.216 43.448,16.664 C43.848,17.112 44.392,17.336 45.08,17.336 Z M62.6,10.808 L62.6,9.728 L55.592,9.728 L55.592,10.808 L62.6,10.808 Z M62.6,13.808 L62.6,12.728 L55.592,12.728 L55.592,13.808 L62.6,13.808 Z M77.744,17.408 L83.024,5.192 C83.424,4.264 83.764,3.684 84.044,3.452 C84.324,3.22 84.936,3.104 85.88,3.104 L85.88,3.104 L85.88,2.6 L80.288,2.6 L80.288,3.104 C81.28,3.104 81.916,3.244 82.196,3.524 C82.476,3.804 82.464,4.272 82.16,4.928 L82.16,4.928 L78.128,14.264 L74.048,4.928 C73.744,4.272 73.732,3.804 74.012,3.524 C74.292,3.244 74.928,3.104 75.92,3.104 L75.92,3.104 L75.92,2.6 L69.272,2.6 L69.272,3.104 C70.216,3.104 70.828,3.22 71.108,3.452 C71.388,3.684 71.728,4.264 72.128,5.192 L72.128,5.192 L77.432,17.408 L77.744,17.408 Z M86.96,17.408 C87.056,16.96 87.288,16.584 87.656,16.28 C87.816,16.312 88.096,16.428 88.496,16.628 C88.896,16.828 89.344,17.008 89.84,17.168 C90.336,17.328 90.856,17.408 91.4,17.408 C92.68,17.408 93.764,17.008 94.652,16.208 C95.54,15.408 95.984,14.368 95.984,13.088 C95.984,11.504 95.144,10.288 93.464,9.44 L93.464,9.44 L91.184,8.264 C90.08,7.688 89.316,7.196 88.892,6.788 C88.468,6.38 88.256,5.88 88.256,5.288 C88.256,4.68 88.476,4.172 88.916,3.764 C89.356,3.356 89.912,3.152 90.584,3.152 C92.792,3.152 94.016,4.552 94.256,7.352 L94.256,7.352 L94.76,7.352 L94.76,2.072 L94.28,2.072 C94.184,2.504 93.952,2.872 93.584,3.176 C92.688,2.52 91.712,2.192 90.656,2.192 C89.504,2.192 88.552,2.536 87.8,3.224 C87.048,3.912 86.672,4.76 86.672,5.768 C86.672,6.632 86.928,7.408 87.44,8.096 C87.952,8.784 88.584,9.328 89.336,9.728 L89.336,9.728 L91.64,10.904 C93.48,11.864 94.4,12.832 94.4,13.808 C94.4,14.576 94.116,15.208 93.548,15.704 C92.98,16.2 92.264,16.448 91.4,16.448 C90.808,16.448 90.268,16.368 89.78,16.208 C89.292,16.048 88.9,15.848 88.604,15.608 C88.308,15.368 88.048,15.08 87.824,14.744 C87.6,14.408 87.436,14.104 87.332,13.832 C87.228,13.56 87.148,13.276 87.092,12.98 C87.036,12.684 87.004,12.484 86.996,12.38 C86.988,12.276 86.984,12.192 86.984,12.128 L86.984,12.128 L86.48,12.128 L86.48,17.408 L86.96,17.408 Z M106.496,17 L106.496,16.496 C105.232,16.496 105.064,16.032 105.992,15.104 L105.992,15.104 L107.192,13.832 L108.104,15.104 C108.456,15.568 108.58,15.916 108.476,16.148 C108.372,16.38 108.008,16.496 107.384,16.496 L107.384,16.496 L107.384,17 L112.424,17 L112.424,16.496 C111.928,16.496 111.516,16.396 111.188,16.196 C110.86,15.996 110.512,15.632 110.144,15.104 L110.144,15.104 L108.344,12.608 L109.976,10.904 C110.872,9.96 111.64,9.488 112.28,9.488 L112.28,9.488 L112.28,9.008 L108.368,9.008 L108.368,9.488 C108.88,9.488 109.2,9.604 109.328,9.836 C109.456,10.068 109.304,10.424 108.872,10.904 L108.872,10.904 L107.864,11.96 L107.096,10.904 C106.68,10.36 106.52,9.988 106.616,9.788 C106.712,9.588 107.104,9.488 107.792,9.488 L107.792,9.488 L107.792,9.008 L102.944,9.008 L102.944,9.488 C103.344,9.488 103.688,9.584 103.976,9.776 C104.264,9.968 104.624,10.344 105.056,10.904 L105.056,10.904 L106.712,13.184 L104.888,15.104 C103.96,16.032 103.264,16.496 102.8,16.496 L102.8,16.496 L102.8,17 L106.496,17 Z M125.408,19.664 L125.936,19.16 C125.424,18.584 125,18.084 124.664,17.66 C124.328,17.236 123.892,16.604 123.356,15.764 C122.82,14.924 122.408,14.008 122.12,13.016 C121.832,12.024 121.688,10.992 121.688,9.92 C121.688,8.848 121.832,7.816 122.12,6.824 C122.408,5.832 122.82,4.916 123.356,4.076 C123.892,3.236 124.328,2.604 124.664,2.18 C125,1.756 125.424,1.256 125.936,0.68 L125.936,0.68 L125.384,0.176 C121.8,3.136 120.008,6.384 120.008,9.92 C120.008,13.472 121.808,16.72 125.408,19.664 L125.408,19.664 Z M134,17 L134,16.496 C133.008,16.496 132.38,16.328 132.116,15.992 C131.852,15.656 131.72,14.888 131.72,13.688 L131.72,13.688 L131.72,10.688 L132.848,10.688 L137.6,17 L141.56,17 L141.56,16.496 C140.152,16.336 138.664,15.32 137.096,13.448 L137.096,13.448 L134.744,10.688 C136.072,10.544 137.116,10.104 137.876,9.368 C138.636,8.632 139.016,7.728 139.016,6.656 C139.016,5.488 138.56,4.52 137.648,3.752 C136.736,2.984 135.472,2.6 133.856,2.6 L133.856,2.6 L127.52,2.6 L127.52,3.104 C128.512,3.104 129.14,3.268 129.404,3.596 C129.668,3.924 129.8,4.688 129.8,5.888 L129.8,5.888 L129.8,13.688 C129.8,14.888 129.668,15.656 129.404,15.992 C129.14,16.328 128.512,16.496 127.52,16.496 L127.52,16.496 L127.52,17 L134,17 Z M133.832,9.824 L131.72,9.824 L131.72,3.488 L133.832,3.488 C134.824,3.488 135.58,3.784 136.1,4.376 C136.62,4.968 136.88,5.728 136.88,6.656 C136.88,7.584 136.62,8.344 136.1,8.936 C135.58,9.528 134.824,9.824 133.832,9.824 L133.832,9.824 Z M151.52,18.896 L152.12,15.608 L145.904,15.608 L149.6,12.776 L149.84,12.632 C149.984,12.52 150.164,12.356 150.38,12.14 C150.596,11.924 150.812,11.688 151.028,11.432 C151.244,11.176 151.428,10.864 151.58,10.496 C151.732,10.128 151.808,9.768 151.808,9.416 C151.808,8.456 151.352,7.68 150.44,7.088 C149.528,6.496 148.456,6.2 147.224,6.2 C145.896,6.2 144.832,6.524 144.032,7.172 C143.232,7.82 142.868,8.572 142.94,9.428 C143.012,10.284 143.512,10.992 144.44,11.552 L144.44,11.552 L145.16,10.808 C144.632,9.816 144.616,8.968 145.112,8.264 C145.608,7.56 146.312,7.208 147.224,7.208 C148.008,7.208 148.636,7.408 149.108,7.808 C149.58,8.208 149.816,8.752 149.816,9.44 C149.816,10.656 149.048,11.872 147.512,13.088 L147.512,13.088 L143.264,16.424 L143.264,17 L148.208,17 C149.408,17 150.176,17.116 150.512,17.348 C150.848,17.58 151.016,18.096 151.016,18.896 L151.016,18.896 L151.52,18.896 Z M160.76,17.432 L167.672,2.504 L166.712,2.168 L159.8,17.096 L160.76,17.432 Z M180.896,19.664 L181.424,19.16 C180.912,18.584 180.488,18.084 180.152,17.66 C179.816,17.236 179.38,16.604 178.844,15.764 C178.308,14.924 177.896,14.008 177.608,13.016 C177.32,12.024 177.176,10.992 177.176,9.92 C177.176,8.848 177.32,7.816 177.608,6.824 C177.896,5.832 178.308,4.916 178.844,4.076 C179.38,3.236 179.816,2.604 180.152,2.18 C180.488,1.756 180.912,1.256 181.424,0.68 L181.424,0.68 L180.872,0.176 C177.288,3.136 175.496,6.384 175.496,9.92 C175.496,13.472 177.296,16.72 180.896,19.664 L180.896,19.664 Z M189.488,17 L189.488,16.496 C188.496,16.496 187.868,16.328 187.604,15.992 C187.34,15.656 187.208,14.888 187.208,13.688 L187.208,13.688 L187.208,10.688 L188.336,10.688 L193.088,17 L197.048,17 L197.048,16.496 C195.64,16.336 194.152,15.32 192.584,13.448 L192.584,13.448 L190.232,10.688 C191.56,10.544 192.604,10.104 193.364,9.368 C194.124,8.632 194.504,7.728 194.504,6.656 C194.504,5.488 194.048,4.52 193.136,3.752 C192.224,2.984 190.96,2.6 189.344,2.6 L189.344,2.6 L183.008,2.6 L183.008,3.104 C184,3.104 184.628,3.268 184.892,3.596 C185.156,3.924 185.288,4.688 185.288,5.888 L185.288,5.888 L185.288,13.688 C185.288,14.888 185.156,15.656 184.892,15.992 C184.628,16.328 184,16.496 183.008,16.496 L183.008,16.496 L183.008,17 L189.488,17 Z M189.32,9.824 L187.208,9.824 L187.208,3.488 L189.32,3.488 C190.312,3.488 191.068,3.784 191.588,4.376 C192.108,4.968 192.368,5.728 192.368,6.656 C192.368,7.584 192.108,8.344 191.588,8.936 C191.068,9.528 190.312,9.824 189.32,9.824 L189.32,9.824 Z M204.488,17 L204.488,16.496 C203.48,16.496 202.844,16.332 202.58,16.004 C202.316,15.676 202.184,14.904 202.184,13.688 L202.184,13.688 L202.184,9.896 C202.184,8.68 202.316,7.908 202.58,7.58 C202.844,7.252 203.48,7.088 204.488,7.088 L204.488,7.088 L204.488,6.608 L198.176,6.608 L198.176,7.088 C199.168,7.088 199.8,7.256 200.072,7.592 C200.344,7.928 200.48,8.696 200.48,9.896 L200.48,9.896 L200.48,13.688 C200.48,14.888 200.344,15.656 200.072,15.992 C199.8,16.328 199.168,16.496 198.176,16.496 L198.176,16.496 L198.176,17 L204.488,17 Z M217.304,15.992 L217.304,12.224 L221.072,12.224 L221.072,11.168 L217.304,11.168 L217.304,7.4 L216.248,7.4 L216.248,11.168 L212.48,11.168 L212.48,12.224 L216.248,12.224 L216.248,15.992 L217.304,15.992 Z M235.256,17 L235.256,16.496 C234.264,16.496 233.636,16.328 233.372,15.992 C233.108,15.656 232.976,14.888 232.976,13.688 L232.976,13.688 L232.976,10.688 L234.104,10.688 L238.856,17 L242.816,17 L242.816,16.496 C241.408,16.336 239.92,15.32 238.352,13.448 L238.352,13.448 L236,10.688 C237.328,10.544 238.372,10.104 239.132,9.368 C239.892,8.632 240.272,7.728 240.272,6.656 C240.272,5.488 239.816,4.52 238.904,3.752 C237.992,2.984 236.728,2.6 235.112,2.6 L235.112,2.6 L228.776,2.6 L228.776,3.104 C229.768,3.104 230.396,3.268 230.66,3.596 C230.924,3.924 231.056,4.688 231.056,5.888 L231.056,5.888 L231.056,13.688 C231.056,14.888 230.924,15.656 230.66,15.992 C230.396,16.328 229.768,16.496 228.776,16.496 L228.776,16.496 L228.776,17 L235.256,17 Z M235.088,9.824 L232.976,9.824 L232.976,3.488 L235.088,3.488 C236.08,3.488 236.836,3.784 237.356,4.376 C237.876,4.968 238.136,5.728 238.136,6.656 C238.136,7.584 237.876,8.344 237.356,8.936 C236.836,9.528 236.08,9.824 235.088,9.824 L235.088,9.824 Z M252.776,18.896 L253.376,15.608 L247.16,15.608 L250.856,12.776 L251.096,12.632 C251.24,12.52 251.42,12.356 251.636,12.14 C251.852,11.924 252.068,11.688 252.284,11.432 C252.5,11.176 252.684,10.864 252.836,10.496 C252.988,10.128 253.064,9.768 253.064,9.416 C253.064,8.456 252.608,7.68 251.696,7.088 C250.784,6.496 249.712,6.2 248.48,6.2 C247.152,6.2 246.088,6.524 245.288,7.172 C244.488,7.82 244.124,8.572 244.196,9.428 C244.268,10.284 244.768,10.992 245.696,11.552 L245.696,11.552 L246.416,10.808 C245.888,9.816 245.872,8.968 246.368,8.264 C246.864,7.56 247.568,7.208 248.48,7.208 C249.264,7.208 249.892,7.408 250.364,7.808 C250.836,8.208 251.072,8.752 251.072,9.44 C251.072,10.656 250.304,11.872 248.768,13.088 L248.768,13.088 L244.52,16.424 L244.52,17 L249.464,17 C250.664,17 251.432,17.116 251.768,17.348 C252.104,17.58 252.272,18.096 252.272,18.896 L252.272,18.896 L252.776,18.896 Z M256.448,19.664 C260.032,16.736 261.824,13.488 261.824,9.92 C261.824,6.368 260.04,3.12 256.472,0.176 L256.472,0.176 L255.896,0.68 C256.424,1.272 256.852,1.776 257.18,2.192 C257.508,2.608 257.944,3.236 258.488,4.076 C259.032,4.916 259.448,5.832 259.736,6.824 C260.024,7.816 260.168,8.848 260.168,9.92 C260.168,10.992 260.024,12.024 259.736,13.016 C259.448,14.008 259.032,14.924 258.488,15.764 C257.944,16.604 257.508,17.232 257.18,17.648 C256.852,18.064 256.424,18.568 255.896,19.16 L255.896,19.16 L256.448,19.664 Z M265.04,19.664 C268.624,16.736 270.416,13.488 270.416,9.92 C270.416,6.368 268.632,3.12 265.064,0.176 L265.064,0.176 L264.488,0.68 C265.016,1.272 265.444,1.776 265.772,2.192 C266.1,2.608 266.536,3.236 267.08,4.076 C267.624,4.916 268.04,5.832 268.328,6.824 C268.616,7.816 268.76,8.848 268.76,9.92 C268.76,10.992 268.616,12.024 268.328,13.016 C268.04,14.008 267.624,14.924 267.08,15.764 C266.536,16.604 266.1,17.232 265.772,17.648 C265.444,18.064 265.016,18.568 264.488,19.16 L264.488,19.16 L265.04,19.664 Z" id="Vout=VSx(R2/(R1+R2))"></path>
            </g>
            <g id="R1" transform="translate(294.000000, 11.000000)" stroke="#524740" stroke-linejoin="bevel" stroke-width="2">
                <polyline id="Resistor" transform="translate(13.000000, 35.000000) rotate(90.000000) translate(-13.000000, -35.000000) " points="-22 35 -17 35 -12 22 -2 48 8 22 18 48 28 22 38 48 43 35 48 35"></polyline>
            </g>
            <g id="R1-Copy" transform="translate(294.000000, 103.000000)" stroke="#524740" stroke-linejoin="bevel" stroke-width="2">
                <polyline id="Resistor" transform="translate(13.000000, 35.000000) rotate(-270.000000) translate(-13.000000, -35.000000) " points="-22 35 -17 35 -12 22 -2 48 8 22 18 48 28 22 38 48 43 35 48 35"></polyline>
            </g>
            <g id="R2" transform="translate(325.000000, 127.000000)" fill="#524740" fill-rule="nonzero">
                <path d="M8.212,17 L8.212,16.496 C7.22,16.496 6.592,16.328 6.328,15.992 C6.064,15.656 5.932,14.888 5.932,13.688 L5.932,13.688 L5.932,10.688 L7.06,10.688 L11.812,17 L15.772,17 L15.772,16.496 C14.364,16.336 12.876,15.32 11.308,13.448 L11.308,13.448 L8.956,10.688 C10.284,10.544 11.328,10.104 12.088,9.368 C12.848,8.632 13.228,7.728 13.228,6.656 C13.228,5.488 12.772,4.52 11.86,3.752 C10.948,2.984 9.684,2.6 8.068,2.6 L8.068,2.6 L1.732,2.6 L1.732,3.104 C2.724,3.104 3.352,3.268 3.616,3.596 C3.88,3.924 4.012,4.688 4.012,5.888 L4.012,5.888 L4.012,13.688 C4.012,14.888 3.88,15.656 3.616,15.992 C3.352,16.328 2.724,16.496 1.732,16.496 L1.732,16.496 L1.732,17 L8.212,17 Z M8.044,9.824 L5.932,9.824 L5.932,3.488 L8.044,3.488 C9.036,3.488 9.792,3.784 10.312,4.376 C10.832,4.968 11.092,5.728 11.092,6.656 C11.092,7.584 10.832,8.344 10.312,8.936 C9.792,9.528 9.036,9.824 8.044,9.824 L8.044,9.824 Z M25.732,18.896 L26.332,15.608 L20.116,15.608 L23.812,12.776 L24.052,12.632 C24.196,12.52 24.376,12.356 24.592,12.14 C24.808,11.924 25.024,11.688 25.24,11.432 C25.456,11.176 25.64,10.864 25.792,10.496 C25.944,10.128 26.02,9.768 26.02,9.416 C26.02,8.456 25.564,7.68 24.652,7.088 C23.74,6.496 22.668,6.2 21.436,6.2 C20.108,6.2 19.044,6.524 18.244,7.172 C17.444,7.82 17.08,8.572 17.152,9.428 C17.224,10.284 17.724,10.992 18.652,11.552 L18.652,11.552 L19.372,10.808 C18.844,9.816 18.828,8.968 19.324,8.264 C19.82,7.56 20.524,7.208 21.436,7.208 C22.22,7.208 22.848,7.408 23.32,7.808 C23.792,8.208 24.028,8.752 24.028,9.44 C24.028,10.656 23.26,11.872 21.724,13.088 L21.724,13.088 L17.476,16.424 L17.476,17 L22.42,17 C23.62,17 24.388,17.116 24.724,17.348 C25.06,17.58 25.228,18.096 25.228,18.896 L25.228,18.896 L25.732,18.896 Z"></path>
            </g>
            <g id="R1" transform="translate(326.000000, 37.000000)" fill="#524740" fill-rule="nonzero">
                <path d="M8.096,17 L8.096,16.496 C7.104,16.496 6.476,16.328 6.212,15.992 C5.948,15.656 5.816,14.888 5.816,13.688 L5.816,13.688 L5.816,10.688 L6.944,10.688 L11.696,17 L15.656,17 L15.656,16.496 C14.248,16.336 12.76,15.32 11.192,13.448 L11.192,13.448 L8.84,10.688 C10.168,10.544 11.212,10.104 11.972,9.368 C12.732,8.632 13.112,7.728 13.112,6.656 C13.112,5.488 12.656,4.52 11.744,3.752 C10.832,2.984 9.568,2.6 7.952,2.6 L7.952,2.6 L1.616,2.6 L1.616,3.104 C2.608,3.104 3.236,3.268 3.5,3.596 C3.764,3.924 3.896,4.688 3.896,5.888 L3.896,5.888 L3.896,13.688 C3.896,14.888 3.764,15.656 3.5,15.992 C3.236,16.328 2.608,16.496 1.616,16.496 L1.616,16.496 L1.616,17 L8.096,17 Z M7.928,9.824 L5.816,9.824 L5.816,3.488 L7.928,3.488 C8.92,3.488 9.676,3.784 10.196,4.376 C10.716,4.968 10.976,5.728 10.976,6.656 C10.976,7.584 10.716,8.344 10.196,8.936 C9.676,9.528 8.92,9.824 7.928,9.824 L7.928,9.824 Z M23.096,17 L23.096,16.496 C22.088,16.496 21.452,16.332 21.188,16.004 C20.924,15.676 20.792,14.904 20.792,13.688 L20.792,13.688 L20.792,9.896 C20.792,8.68 20.924,7.908 21.188,7.58 C21.452,7.252 22.088,7.088 23.096,7.088 L23.096,7.088 L23.096,6.608 L16.784,6.608 L16.784,7.088 C17.776,7.088 18.408,7.256 18.68,7.592 C18.952,7.928 19.088,8.696 19.088,9.896 L19.088,9.896 L19.088,13.688 C19.088,14.888 18.952,15.656 18.68,15.992 C18.408,16.328 17.776,16.496 16.784,16.496 L16.784,16.496 L16.784,17 L23.096,17 Z"></path>
            </g>
            <g id="DC_Power" transform="translate(0.000000, 52.000000)">
                <g id="Group-2" transform="translate(149.000000, 0.000000)">
                    <circle id="Oval" stroke="#524740" stroke-width="2" cx="40" cy="40" r="39"></circle>
                    <text id="+" font-family="Lato-Regular, Lato" font-size="18" font-weight="normal" letter-spacing="0.8999999" fill="#524740">
                        <tspan x="35.3300001" y="21">+</tspan>
                    </text>
                    <text id="-" font-family="Lato-Regular, Lato" font-size="18" font-weight="normal" letter-spacing="0.8999999" fill="#524740">
                        <tspan x="37.2065001" y="72.5">-</tspan>
                    </text>
                </g>
                <path d="M8.784,19.408 L14.064,7.192 C14.464,6.264 14.804,5.684 15.084,5.452 C15.364,5.22 15.976,5.104 16.92,5.104 L16.92,5.104 L16.92,4.6 L11.328,4.6 L11.328,5.104 C12.32,5.104 12.956,5.244 13.236,5.524 C13.516,5.804 13.504,6.272 13.2,6.928 L13.2,6.928 L9.168,16.264 L5.088,6.928 C4.784,6.272 4.772,5.804 5.052,5.524 C5.332,5.244 5.968,5.104 6.96,5.104 L6.96,5.104 L6.96,4.6 L0.312,4.6 L0.312,5.104 C1.256,5.104 1.868,5.22 2.148,5.452 C2.428,5.684 2.768,6.264 3.168,7.192 L3.168,7.192 L8.472,19.408 L8.784,19.408 Z M22.032,19.408 C23.36,19.408 24.5,18.976 25.452,18.112 C26.404,17.248 26.88,16.208 26.88,14.992 C26.88,13.776 26.4,12.744 25.44,11.896 C24.496,11.032 23.36,10.6 22.032,10.6 C20.704,10.6 19.564,11.028 18.612,11.884 C17.66,12.74 17.184,13.776 17.184,14.992 C17.184,16.208 17.66,17.248 18.612,18.112 C19.564,18.976 20.704,19.408 22.032,19.408 Z M22.032,18.472 C21.088,18.472 20.368,18.144 19.872,17.488 C19.376,16.832 19.128,16 19.128,14.992 C19.128,13.984 19.376,13.152 19.872,12.496 C20.368,11.84 21.088,11.512 22.032,11.512 C22.976,11.512 23.696,11.836 24.192,12.484 C24.688,13.132 24.936,13.968 24.936,14.992 C24.936,16.016 24.688,16.856 24.192,17.512 C23.696,18.152 22.976,18.472 22.032,18.472 Z M33.984,19 L33.984,18.496 C33.184,18.496 32.668,18.328 32.436,17.992 C32.204,17.656 32.088,16.888 32.088,15.688 L32.088,15.688 L32.088,4.192 L28.488,4.792 L28.488,5.296 C29.288,5.296 29.804,5.464 30.036,5.8 C30.268,6.136 30.384,6.904 30.384,8.104 L30.384,8.104 L30.384,15.688 C30.384,16.888 30.268,17.656 30.036,17.992 C29.804,18.328 29.288,18.496 28.488,18.496 L28.488,18.496 L28.488,19 L33.984,19 Z M38.616,19.336 C39.016,19.336 39.452,19.208 39.924,18.952 C40.396,18.696 40.8,18.368 41.136,17.968 L41.136,17.968 L40.728,17.56 C40.152,18.104 39.632,18.376 39.168,18.376 C38.448,18.376 38.088,17.8 38.088,16.648 L38.088,16.648 L38.088,11.848 L40.176,11.848 L40.176,11.008 L38.088,11.008 L38.088,8.368 L37.272,8.368 C37.176,9.2 36.968,9.856 36.648,10.336 C36.328,10.816 35.824,11.128 35.136,11.272 L35.136,11.272 L35.136,11.848 L36.384,11.848 L36.384,16.648 C36.384,17.544 36.584,18.216 36.984,18.664 C37.384,19.112 37.928,19.336 38.616,19.336 Z M44.616,19.312 C45.544,19.312 46.544,18.832 47.616,17.872 C47.744,18.8 48.288,19.264 49.248,19.264 C49.84,19.264 50.368,19.016 50.832,18.52 L50.832,18.52 L50.496,18.064 C50.256,18.304 50.032,18.424 49.824,18.424 C49.456,18.424 49.272,18.112 49.272,17.488 L49.272,17.488 L49.272,13.864 C49.272,12.712 49.016,11.88 48.504,11.368 C47.992,10.856 47.152,10.6 45.984,10.6 C45.184,10.6 44.476,10.78 43.86,11.14 C43.244,11.5 42.936,11.96 42.936,12.52 C42.936,12.76 43.016,12.96 43.176,13.12 C43.336,13.28 43.536,13.36 43.776,13.36 C44,13.36 44.192,13.28 44.352,13.12 C44.512,12.96 44.592,12.76 44.592,12.52 C44.592,12.168 44.74,11.888 45.036,11.68 C45.332,11.472 45.64,11.368 45.96,11.368 C46.616,11.368 47.048,11.552 47.256,11.92 C47.464,12.288 47.568,12.944 47.568,13.888 C44.16,14.48 42.456,15.616 42.456,17.296 C42.456,17.92 42.664,18.412 43.08,18.772 C43.496,19.132 44.008,19.312 44.616,19.312 Z M45.384,18.232 C45.064,18.232 44.796,18.12 44.58,17.896 C44.364,17.672 44.256,17.376 44.256,17.008 C44.256,15.936 45.36,15.144 47.568,14.632 L47.568,14.632 L47.568,17.08 C46.704,17.848 45.976,18.232 45.384,18.232 Z M55.872,25.408 C57.088,25.408 58.1,25.116 58.908,24.532 C59.716,23.948 60.12,23.168 60.12,22.192 C60.12,21.376 59.776,20.68 59.088,20.104 C58.4,19.528 57.288,19.176 55.752,19.048 C54.296,18.92 53.568,18.616 53.568,18.136 C53.568,17.672 54.464,17.336 56.256,17.128 C57.088,17.016 57.816,16.656 58.44,16.048 C59.064,15.44 59.376,14.712 59.376,13.864 C59.376,13.128 59.144,12.48 58.68,11.92 C58.936,11.664 59.184,11.536 59.424,11.536 C59.648,11.536 59.812,11.596 59.916,11.716 C60.02,11.836 60.084,11.964 60.108,12.1 C60.132,12.236 60.204,12.36 60.324,12.472 C60.444,12.584 60.624,12.632 60.864,12.616 C60.992,12.616 61.104,12.576 61.2,12.496 C61.488,12.272 61.56,11.936 61.416,11.488 C61.224,10.896 60.776,10.6 60.072,10.6 C59.8,10.6 59.484,10.688 59.124,10.864 C58.764,11.04 58.48,11.256 58.272,11.512 C57.584,10.904 56.76,10.6 55.8,10.6 C54.808,10.6 53.964,10.92 53.268,11.56 C52.572,12.2 52.224,12.968 52.224,13.864 C52.224,14.504 52.404,15.08 52.764,15.592 C53.124,16.104 53.616,16.504 54.24,16.792 C52.896,17.208 52.224,17.848 52.224,18.712 C52.224,19.976 53.36,20.72 55.632,20.944 C56.736,21.056 57.548,21.232 58.068,21.472 C58.588,21.712 58.848,22.096 58.848,22.624 C58.848,23.168 58.548,23.612 57.948,23.956 C57.348,24.3 56.656,24.472 55.872,24.472 C55.376,24.472 54.9,24.4 54.444,24.256 C53.988,24.112 53.604,23.912 53.292,23.656 C52.98,23.4 52.84,23.052 52.872,22.612 C52.904,22.172 53.152,21.688 53.616,21.16 L53.616,21.16 L53.184,20.896 C52.224,21.392 51.712,22 51.648,22.72 C51.584,23.44 51.948,24.068 52.74,24.604 C53.532,25.14 54.576,25.408 55.872,25.408 Z M55.8,16.336 C55.24,16.336 54.808,16.108 54.504,15.652 C54.2,15.196 54.048,14.6 54.048,13.864 C54.048,13.128 54.2,12.528 54.504,12.064 C54.808,11.6 55.24,11.368 55.8,11.368 C56.36,11.368 56.788,11.6 57.084,12.064 C57.38,12.528 57.528,13.128 57.528,13.864 C57.528,14.6 57.376,15.2 57.072,15.664 C56.784,16.112 56.36,16.336 55.8,16.336 Z M66.96,19.408 C67.632,19.408 68.304,19.26 68.976,18.964 C69.648,18.668 70.2,18.288 70.632,17.824 L70.632,17.824 L70.2,17.296 C69.864,17.616 69.44,17.88 68.928,18.088 C68.416,18.296 67.96,18.4 67.56,18.4 C66.376,18.4 65.524,18.028 65.004,17.284 C64.484,16.54 64.296,15.576 64.44,14.392 L64.44,14.392 L70.224,14.392 C70.512,13.384 70.312,12.5 69.624,11.74 C68.936,10.98 68.048,10.6 66.96,10.6 C65.808,10.6 64.78,11.024 63.876,11.872 C62.972,12.72 62.52,13.76 62.52,14.992 C62.52,16.224 62.936,17.268 63.768,18.124 C64.6,18.98 65.664,19.408 66.96,19.408 Z M68.568,13.504 L64.584,13.504 C64.76,12.912 65.052,12.44 65.46,12.088 C65.868,11.736 66.328,11.56 66.84,11.56 C67.56,11.56 68.068,11.772 68.364,12.196 C68.66,12.62 68.728,13.056 68.568,13.504 L68.568,13.504 Z M79.056,19.408 C79.152,18.96 79.384,18.584 79.752,18.28 C79.912,18.312 80.192,18.428 80.592,18.628 C80.992,18.828 81.44,19.008 81.936,19.168 C82.432,19.328 82.952,19.408 83.496,19.408 C84.776,19.408 85.86,19.008 86.748,18.208 C87.636,17.408 88.08,16.368 88.08,15.088 C88.08,13.504 87.24,12.288 85.56,11.44 L85.56,11.44 L83.28,10.264 C82.176,9.688 81.412,9.196 80.988,8.788 C80.564,8.38 80.352,7.88 80.352,7.288 C80.352,6.68 80.572,6.172 81.012,5.764 C81.452,5.356 82.008,5.152 82.68,5.152 C84.888,5.152 86.112,6.552 86.352,9.352 L86.352,9.352 L86.856,9.352 L86.856,4.072 L86.376,4.072 C86.28,4.504 86.048,4.872 85.68,5.176 C84.784,4.52 83.808,4.192 82.752,4.192 C81.6,4.192 80.648,4.536 79.896,5.224 C79.144,5.912 78.768,6.76 78.768,7.768 C78.768,8.632 79.024,9.408 79.536,10.096 C80.048,10.784 80.68,11.328 81.432,11.728 L81.432,11.728 L83.736,12.904 C85.576,13.864 86.496,14.832 86.496,15.808 C86.496,16.576 86.212,17.208 85.644,17.704 C85.076,18.2 84.36,18.448 83.496,18.448 C82.904,18.448 82.364,18.368 81.876,18.208 C81.388,18.048 80.996,17.848 80.7,17.608 C80.404,17.368 80.144,17.08 79.92,16.744 C79.696,16.408 79.532,16.104 79.428,15.832 C79.324,15.56 79.244,15.276 79.188,14.98 C79.132,14.684 79.1,14.484 79.092,14.38 C79.084,14.276 79.08,14.192 79.08,14.128 L79.08,14.128 L78.576,14.128 L78.576,19.408 L79.056,19.408 Z M95.256,19.408 C96.584,19.408 97.724,18.976 98.676,18.112 C99.628,17.248 100.104,16.208 100.104,14.992 C100.104,13.776 99.624,12.744 98.664,11.896 C97.72,11.032 96.584,10.6 95.256,10.6 C93.928,10.6 92.788,11.028 91.836,11.884 C90.884,12.74 90.408,13.776 90.408,14.992 C90.408,16.208 90.884,17.248 91.836,18.112 C92.788,18.976 93.928,19.408 95.256,19.408 Z M95.256,18.472 C94.312,18.472 93.592,18.144 93.096,17.488 C92.6,16.832 92.352,16 92.352,14.992 C92.352,13.984 92.6,13.152 93.096,12.496 C93.592,11.84 94.312,11.512 95.256,11.512 C96.2,11.512 96.92,11.836 97.416,12.484 C97.912,13.132 98.16,13.968 98.16,14.992 C98.16,16.016 97.912,16.856 97.416,17.512 C96.92,18.152 96.2,18.472 95.256,18.472 Z M110.112,19.408 L113.328,18.808 L113.328,18.304 C112.512,18.304 111.988,18.136 111.756,17.8 C111.524,17.464 111.408,16.696 111.408,15.496 L111.408,15.496 L111.408,11.008 L107.808,11.008 L107.808,11.488 C108.624,11.488 109.148,11.656 109.38,11.992 C109.612,12.328 109.728,13.096 109.728,14.296 L109.728,14.296 L109.728,15.88 C109.728,16.552 109.432,17.116 108.84,17.572 C108.248,18.028 107.68,18.256 107.136,18.256 C105.92,18.256 105.312,17.4 105.312,15.688 L105.312,15.688 L105.312,11.008 L101.712,11.008 L101.712,11.488 C102.512,11.488 103.028,11.656 103.26,11.992 C103.492,12.328 103.608,13.096 103.608,14.296 L103.608,14.296 L103.608,15.808 C103.608,18.208 104.6,19.408 106.584,19.408 C107.688,19.408 108.736,18.896 109.728,17.872 C109.856,18.64 109.984,19.152 110.112,19.408 L110.112,19.408 Z M120.192,19 L120.192,18.496 C119.392,18.496 118.876,18.328 118.644,17.992 C118.412,17.656 118.296,16.888 118.296,15.688 L118.296,15.688 L118.296,14.368 C118.296,13.52 118.512,12.84 118.944,12.328 C119.376,11.816 119.776,11.56 120.144,11.56 C120.656,11.56 120.912,11.824 120.912,12.352 C120.912,12.576 120.996,12.776 121.164,12.952 C121.332,13.128 121.528,13.216 121.752,13.216 C122.392,13.216 122.712,12.84 122.712,12.088 C122.712,11.736 122.548,11.4 122.22,11.08 C121.892,10.76 121.424,10.6 120.816,10.6 C120.336,10.6 119.856,10.768 119.376,11.104 C118.896,11.44 118.536,11.848 118.296,12.328 C118.168,11.48 118.032,10.904 117.888,10.6 L117.888,10.6 L114.696,11.2 L114.696,11.704 C115.496,11.704 116.012,11.872 116.244,12.208 C116.476,12.544 116.592,13.304 116.592,14.488 L116.592,14.488 L116.592,15.688 C116.592,16.888 116.476,17.656 116.244,17.992 C116.012,18.328 115.496,18.496 114.696,18.496 L114.696,18.496 L114.696,19 L120.192,19 Z M128.616,19.408 C130.024,19.408 131.216,18.88 132.192,17.824 L132.192,17.824 L131.784,17.296 C131,18.032 130.144,18.4 129.216,18.4 C128.256,18.4 127.532,18.116 127.044,17.548 C126.556,16.98 126.312,16.2 126.312,15.208 C126.312,14.12 126.536,13.208 126.984,12.472 C127.432,11.736 127.976,11.368 128.616,11.368 C129.192,11.368 129.48,11.712 129.48,12.4 C129.48,12.672 129.572,12.9 129.756,13.084 C129.94,13.268 130.16,13.36 130.416,13.36 C130.784,13.36 131.052,13.252 131.22,13.036 C131.388,12.82 131.472,12.584 131.472,12.328 C131.472,11.848 131.232,11.44 130.752,11.104 C130.272,10.768 129.56,10.6 128.616,10.6 C127.576,10.6 126.608,11.036 125.712,11.908 C124.816,12.78 124.368,13.88 124.368,15.208 C124.368,16.44 124.748,17.448 125.508,18.232 C126.268,19.016 127.304,19.408 128.616,19.408 Z M138.24,19.408 C138.912,19.408 139.584,19.26 140.256,18.964 C140.928,18.668 141.48,18.288 141.912,17.824 L141.912,17.824 L141.48,17.296 C141.144,17.616 140.72,17.88 140.208,18.088 C139.696,18.296 139.24,18.4 138.84,18.4 C137.656,18.4 136.804,18.028 136.284,17.284 C135.764,16.54 135.576,15.576 135.72,14.392 L135.72,14.392 L141.504,14.392 C141.792,13.384 141.592,12.5 140.904,11.74 C140.216,10.98 139.328,10.6 138.24,10.6 C137.088,10.6 136.06,11.024 135.156,11.872 C134.252,12.72 133.8,13.76 133.8,14.992 C133.8,16.224 134.216,17.268 135.048,18.124 C135.88,18.98 136.944,19.408 138.24,19.408 Z M139.848,13.504 L135.864,13.504 C136.04,12.912 136.332,12.44 136.74,12.088 C137.148,11.736 137.608,11.56 138.12,11.56 C138.84,11.56 139.348,11.772 139.644,12.196 C139.94,12.62 140.008,13.056 139.848,13.504 L139.848,13.504 Z" id="VoltageSource" fill="#524740" fill-rule="nonzero"></path>
                <g id="VS" transform="translate(177.000000, 32.000000)" fill="#1A80AA" fill-rule="nonzero">
                    <path d="M8.576,17.408 L13.856,5.192 C14.256,4.264 14.596,3.684 14.876,3.452 C15.156,3.22 15.768,3.104 16.712,3.104 L16.712,3.104 L16.712,2.6 L11.12,2.6 L11.12,3.104 C12.112,3.104 12.748,3.244 13.028,3.524 C13.308,3.804 13.296,4.272 12.992,4.928 L12.992,4.928 L8.96,14.264 L4.88,4.928 C4.576,4.272 4.564,3.804 4.844,3.524 C5.124,3.244 5.76,3.104 6.752,3.104 L6.752,3.104 L6.752,2.6 L0.104,2.6 L0.104,3.104 C1.048,3.104 1.66,3.22 1.94,3.452 C2.22,3.684 2.56,4.264 2.96,5.192 L2.96,5.192 L8.264,17.408 L8.576,17.408 Z M17.48,17.408 C17.48,17.088 17.512,16.872 17.576,16.76 C17.64,16.648 17.752,16.62 17.912,16.676 C18.072,16.732 18.244,16.812 18.428,16.916 C18.612,17.02 18.856,17.128 19.16,17.24 C19.464,17.352 19.76,17.408 20.048,17.408 C20.848,17.408 21.524,17.164 22.076,16.676 C22.628,16.188 22.904,15.56 22.904,14.792 C22.904,13.88 22.352,13.112 21.248,12.488 L21.248,12.488 L20.096,11.864 C19.536,11.56 19.152,11.308 18.944,11.108 C18.736,10.908 18.632,10.672 18.632,10.4 C18.632,10.096 18.736,9.848 18.944,9.656 C19.152,9.464 19.456,9.368 19.856,9.368 C20.432,9.368 20.9,9.572 21.26,9.98 C21.62,10.388 21.8,10.856 21.8,11.384 L21.8,11.384 L22.304,11.384 L22.304,8.6 L21.8,8.6 C21.8,8.92 21.764,9.1 21.692,9.14 C21.62,9.18 21.488,9.144 21.296,9.032 C20.72,8.744 20.16,8.6 19.616,8.6 C18.976,8.6 18.412,8.808 17.924,9.224 C17.436,9.64 17.192,10.16 17.192,10.784 C17.192,11.808 17.72,12.608 18.776,13.184 L18.776,13.184 L20.12,13.904 C21.016,14.384 21.464,14.872 21.464,15.368 C21.464,15.704 21.332,15.992 21.068,16.232 C20.804,16.472 20.48,16.592 20.096,16.592 C19.312,16.592 18.68,16.3 18.2,15.716 C17.72,15.132 17.48,14.528 17.48,13.904 L17.48,13.904 L16.976,13.904 L16.976,17.408 L17.48,17.408 Z" id="Vs"></path>
                </g>
            </g>
            <polyline id="Path-5" stroke="#524740" stroke-width="2" points="189 52 189 0 307 0 307 11"></polyline>
            <circle id="Oval-2-Copy-14" stroke="#524740" stroke-width="2" cx="378" cy="92" r="4"></circle>
            <circle id="Oval-2-Copy-19" stroke="#524740" stroke-width="2" fill="#524740" cx="307" cy="92" r="4"></circle>
            <circle id="Oval-2-Copy-16" stroke="#524740" stroke-width="2" cx="378" cy="184" r="4"></circle>
            <line x1="378" y1="103" x2="378" y2="121" id="Path-14" stroke="#23ABE3"></line>
            <polygon id="Triangle" fill="#23ABE3" points="378 97 381 103 375 103"></polygon>
            <line x1="378" y1="154" x2="378" y2="173" id="Path-14-Copy" stroke="#23ABE3"></line>
            <polygon id="Triangle-Copy" fill="#23ABE3" points="378 179 375 173 381 173"></polygon>
            <polyline id="Path-15" stroke="#524740" stroke-width="2" points="189 132 189 184 307 184 307 173"></polyline>
            <line x1="307" y1="81" x2="307" y2="103" id="Path-17" stroke="#524740" stroke-width="2"></line>
            <line x1="307" y1="92" x2="373" y2="92" id="Path-18" stroke="#524740" stroke-width="2"></line>
            <line x1="307" y1="184" x2="373" y2="184" id="Path-20" stroke="#524740" stroke-width="2"></line>
        </g>
    </g>
</svg>