<?xml version="1.0" encoding="UTF-8"?>
<svg width="900px" height="290px" viewBox="0 0 900 290" version="1.1" xmlns="http://www.w3.org/2000/svg" xmlns:xlink="http://www.w3.org/1999/xlink">
    <!-- Generator: Sketch 60.1 (88133) - https://sketch.com -->
    <title>Voltage_Divider_Network_2</title>
    <desc>Created with Sketch.</desc>
    <g id="Voltage_Divider_Network_2" stroke="none" stroke-width="1" fill="none" fill-rule="evenodd">
        <g id="Illustration_Frame">
            <rect id="Rectangle" stroke="#3D3530" stroke-width="2" fill="#EEEEEE" x="1" y="1" width="898" height="288"></rect>
            <rect id="Rectangle-Copy" stroke="#3D3530" stroke-width="2" fill="#F8FAE4" x="1" y="246" width="898" height="43"></rect>
            <path d="M547.951999,275 L547.951999,267.752 L553.015999,267.752 L553.015999,266.168 L547.951999,266.168 L547.951999,260.456 L555.295999,260.456 L555.295999,258.872 L546.367999,258.872 L546.367999,275 L547.951999,275 Z M561.722666,275.192 C563.306666,275.192 564.586666,274.536 565.562666,273.224 L565.562666,273.224 L565.562666,275 L567.146666,275 L567.146666,263 L565.562666,263 L565.562666,270.032 C565.562666,271.056 565.218666,271.924 564.530666,272.636 C563.842666,273.348 562.994666,273.704 561.986666,273.704 C560.994666,273.704 560.154666,273.348 559.466666,272.636 C558.778666,271.924 558.434666,271.056 558.434666,270.032 L558.434666,270.032 L558.434666,263 L556.802666,263 L556.802666,270.08 C556.802666,271.52 557.274666,272.732 558.218666,273.716 C559.162666,274.7 560.330666,275.192 561.722666,275.192 Z M572.685332,275 L572.685332,267.968 C572.685332,266.928 573.029332,266.052 573.717332,265.34 C574.405332,264.628 575.253332,264.272 576.261332,264.272 C576.949332,264.272 577.629332,264.52 578.301332,265.016 L578.301332,265.016 L578.853332,263.432 C578.149332,263.016 577.373332,262.808 576.525332,262.808 C574.941332,262.808 573.661332,263.464 572.685332,264.776 L572.685332,264.776 L572.685332,263 L571.101332,263 L571.101332,275 L572.685332,275 Z M586.119999,275.192 C586.711999,275.192 587.287999,275.036 587.847999,274.724 C588.407999,274.412 588.767999,274.168 588.927999,273.992 C589.087999,273.816 589.215999,273.664 589.311999,273.536 L589.311999,273.536 L588.519999,272.312 C588.519999,272.376 588.435999,272.516 588.267999,272.732 C588.099999,272.948 587.839999,273.168 587.487999,273.392 C587.135999,273.616 586.775999,273.728 586.407999,273.728 C585.815999,273.728 585.291999,273.512 584.835999,273.08 C584.379999,272.648 584.151999,272.064 584.151999,271.328 L584.151999,271.328 L584.151999,264.44 L587.775999,264.44 L587.775999,262.976 L584.151999,262.976 L584.151999,258.992 L582.567999,259.184 L582.567999,262.976 L580.647999,262.976 L580.647999,264.44 L582.567999,264.44 L582.567999,271.688 C582.567999,272.824 582.907999,273.692 583.587999,274.292 C584.267999,274.892 585.111999,275.192 586.119999,275.192 Z M593.482666,275 L593.482666,267.968 C593.482666,266.944 593.830666,266.076 594.526666,265.364 C595.222666,264.652 596.066666,264.296 597.058666,264.296 C598.066666,264.296 598.914666,264.652 599.602666,265.364 C600.290666,266.076 600.634666,266.952 600.634666,267.992 L600.634666,267.992 L600.634666,275 L602.242666,275 L602.242666,267.968 C602.242666,266.528 601.770666,265.308 600.826666,264.308 C599.882666,263.308 598.714666,262.808 597.322666,262.808 C595.738666,262.808 594.458666,263.464 593.482666,264.776 L593.482666,264.776 L593.482666,257.144 L591.898666,257.144 L591.898666,275 L593.482666,275 Z M611.357332,275.072 C612.829332,275.088 614.097332,274.672 615.161332,273.824 C616.225332,272.976 616.941332,272.048 617.309332,271.04 L617.309332,271.04 L615.965332,270.56 C615.661332,271.376 615.085333,272.088 614.237332,272.696 C613.389332,273.304 612.429332,273.608 611.357332,273.608 C610.365332,273.624 609.461332,273.324 608.645332,272.708 C607.829332,272.092 607.285332,271.304 607.013332,270.344 L607.013332,270.344 L617.501332,268.448 C617.501332,268.32 617.493332,268.216 617.477332,268.136 C617.301332,266.6 616.629333,265.312 615.461333,264.272 C614.293333,263.232 612.925332,262.704 611.357332,262.688 C609.629333,262.704 608.165332,263.312 606.965332,264.512 C605.765332,265.712 605.165332,267.176 605.165332,268.904 C605.165332,269.528 605.245333,270.104 605.405332,270.632 C605.805332,271.928 606.561333,272.992 607.673333,273.824 C608.785332,274.656 610.013333,275.072 611.357332,275.072 Z M606.773333,269.048 C606.773333,268.968 606.769333,268.868 606.761332,268.748 C606.753333,268.628 606.749333,268.544 606.749333,268.496 C606.813333,267.312 607.273333,266.296 608.129333,265.448 C608.985333,264.6 610.013333,264.168 611.213332,264.152 C612.237332,264.136 613.165332,264.436 613.997332,265.052 C614.829332,265.668 615.397333,266.464 615.701333,267.44 L615.701333,267.44 L606.773333,269.048 Z M622.007999,275 L622.007999,267.968 C622.007999,266.928 622.351999,266.052 623.039999,265.34 C623.727999,264.628 624.575999,264.272 625.583999,264.272 C626.271999,264.272 626.951999,264.52 627.623999,265.016 L627.623999,265.016 L628.175999,263.432 C627.471999,263.016 626.695999,262.808 625.847999,262.808 C624.263999,262.808 622.983999,263.464 622.007999,264.776 L622.007999,264.776 L622.007999,263 L620.423999,263 L620.423999,275 L622.007999,275 Z M645.301333,275.192 C646.869333,275.192 648.233333,274.836 649.393333,274.124 C650.553333,273.412 651.453333,272.432 652.093333,271.184 L652.093333,271.184 L650.605333,270.296 C650.109333,271.336 649.401333,272.164 648.481333,272.78 C647.561333,273.396 646.501333,273.704 645.301333,273.704 C643.477333,273.704 642.017333,273.064 640.921333,271.784 C639.825333,270.504 639.277333,268.896 639.277333,266.96 C639.277333,265.008 639.825333,263.396 640.921333,262.124 C642.017333,260.852 643.477333,260.216 645.301333,260.216 C646.485333,260.216 647.537333,260.52 648.457333,261.128 C649.377333,261.736 650.093333,262.56 650.605333,263.6 L650.605333,263.6 L652.093333,262.736 C651.453333,261.488 650.553333,260.504 649.393333,259.784 C648.233333,259.064 646.869333,258.704 645.301333,258.704 C642.933333,258.704 641.045333,259.492 639.637333,261.068 C638.229333,262.644 637.525333,264.608 637.525333,266.96 C637.525333,269.296 638.229333,271.252 639.637333,272.828 C641.045333,274.404 642.933333,275.192 645.301333,275.192 Z M656.599999,259.688 C656.871999,259.688 657.095999,259.592 657.271999,259.4 C657.463999,259.208 657.559999,258.984 657.559999,258.728 C657.559999,258.472 657.467999,258.248 657.283999,258.056 C657.099999,257.864 656.871999,257.768 656.599999,257.768 C656.327999,257.768 656.099999,257.864 655.915999,258.056 C655.731999,258.248 655.639999,258.472 655.639999,258.728 C655.639999,258.984 655.731999,259.208 655.915999,259.4 C656.099999,259.592 656.327999,259.688 656.599999,259.688 Z M657.391999,275 L657.391999,263 L655.807999,263 L655.807999,275 L657.391999,275 Z M663.314666,275 L663.314666,267.968 C663.314666,266.928 663.658666,266.052 664.346666,265.34 C665.034666,264.628 665.882666,264.272 666.890666,264.272 C667.578666,264.272 668.258666,264.52 668.930666,265.016 L668.930666,265.016 L669.482666,263.432 C668.778666,263.016 668.002666,262.808 667.154666,262.808 C665.570666,262.808 664.290666,263.464 663.314666,264.776 L663.314666,264.776 L663.314666,263 L661.730666,263 L661.730666,275 L663.314666,275 Z M676.797333,275.192 C677.885333,275.192 678.897333,274.924 679.833333,274.388 C680.769333,273.852 681.509333,273.136 682.053333,272.24 L682.053333,272.24 L680.613333,271.544 C680.181333,272.2 679.629333,272.72 678.957333,273.104 C678.285333,273.488 677.565333,273.68 676.797333,273.68 C675.501333,273.68 674.409333,273.228 673.521333,272.324 C672.633333,271.42 672.189333,270.312 672.189333,269 C672.189333,267.688 672.633333,266.58 673.521333,265.676 C674.409333,264.772 675.501333,264.32 676.797333,264.32 C677.565333,264.32 678.285333,264.512 678.957333,264.896 C679.629333,265.28 680.181333,265.8 680.613333,266.456 L680.613333,266.456 L682.053333,265.76 C681.509333,264.864 680.769333,264.148 679.833333,263.612 C678.897333,263.076 677.885333,262.808 676.797333,262.808 C675.085333,262.808 673.625333,263.412 672.417333,264.62 C671.209333,265.828 670.605333,267.288 670.605333,269 C670.605333,270.712 671.209333,272.172 672.417333,273.38 C673.625333,274.588 675.085333,275.192 676.797333,275.192 Z M690.255999,275.192 C691.839999,275.192 693.119999,274.536 694.095999,273.224 L694.095999,273.224 L694.095999,275 L695.679999,275 L695.679999,263 L694.095999,263 L694.095999,270.032 C694.095999,271.056 693.751999,271.924 693.063999,272.636 C692.375999,273.348 691.527999,273.704 690.519999,273.704 C689.527999,273.704 688.687999,273.348 687.999999,272.636 C687.311999,271.924 686.967999,271.056 686.967999,270.032 L686.967999,270.032 L686.967999,263 L685.335999,263 L685.335999,270.08 C685.335999,271.52 685.807999,272.732 686.751999,273.716 C687.695999,274.7 688.863999,275.192 690.255999,275.192 Z M700.810666,259.688 C701.082666,259.688 701.306666,259.592 701.482666,259.4 C701.674666,259.208 701.770666,258.984 701.770666,258.728 C701.770666,258.472 701.678666,258.248 701.494666,258.056 C701.310666,257.864 701.082666,257.768 700.810666,257.768 C700.538666,257.768 700.310666,257.864 700.126666,258.056 C699.942666,258.248 699.850666,258.472 699.850666,258.728 C699.850666,258.984 699.942666,259.208 700.126666,259.4 C700.310666,259.592 700.538666,259.688 700.810666,259.688 Z M701.602666,275 L701.602666,263 L700.018666,263 L700.018666,275 L701.602666,275 Z M709.685333,275.192 C710.277333,275.192 710.853333,275.036 711.413333,274.724 C711.973333,274.412 712.333333,274.168 712.493333,273.992 C712.653333,273.816 712.781333,273.664 712.877333,273.536 L712.877333,273.536 L712.085333,272.312 C712.085333,272.376 712.001333,272.516 711.833333,272.732 C711.665333,272.948 711.405333,273.168 711.053333,273.392 C710.701333,273.616 710.341333,273.728 709.973333,273.728 C709.381333,273.728 708.857333,273.512 708.401333,273.08 C707.945333,272.648 707.717333,272.064 707.717333,271.328 L707.717333,271.328 L707.717333,264.44 L711.341333,264.44 L711.341333,262.976 L707.717333,262.976 L707.717333,258.992 L706.133333,259.184 L706.133333,262.976 L704.213333,262.976 L704.213333,264.44 L706.133333,264.44 L706.133333,271.688 C706.133333,272.824 706.473333,273.692 707.153333,274.292 C707.833333,274.892 708.677333,275.192 709.685333,275.192 Z M728.178666,275.192 C729.762666,275.192 730.994666,274.792 731.874666,273.992 C732.754666,273.192 733.194666,272.208 733.194666,271.04 C733.194666,270.128 732.894666,269.336 732.294666,268.664 C731.694666,267.992 730.962666,267.464 730.098666,267.08 C729.234666,266.696 728.374666,266.328 727.518666,265.976 C726.662666,265.624 725.934666,265.188 725.334666,264.668 C724.734666,264.148 724.434666,263.544 724.434666,262.856 C724.434666,262.04 724.742666,261.396 725.358666,260.924 C725.974666,260.452 726.818666,260.216 727.890666,260.216 C728.754666,260.216 729.578666,260.44 730.362666,260.888 C731.146666,261.336 731.746666,261.784 732.162666,262.232 L732.162666,262.232 L733.266666,261.152 C732.754666,260.608 731.998666,260.064 730.998666,259.52 C729.998666,258.976 728.962666,258.704 727.890666,258.704 C726.306666,258.704 725.074666,259.104 724.194666,259.904 C723.314666,260.704 722.874666,261.688 722.874666,262.856 C722.874666,263.768 723.174666,264.56 723.774666,265.232 C724.374666,265.904 725.106666,266.436 725.970666,266.828 C726.834666,267.22 727.694666,267.592 728.550666,267.944 C729.406666,268.296 730.134666,268.728 730.734666,269.24 C731.334666,269.752 731.634666,270.352 731.634666,271.04 C731.634666,271.856 731.326666,272.5 730.710666,272.972 C730.094666,273.444 729.250666,273.68 728.178666,273.68 C727.298666,273.68 726.466666,273.452 725.682666,272.996 C724.898666,272.54 724.306666,272.096 723.906666,271.664 L723.906666,271.664 L722.802666,272.744 C723.314666,273.288 724.070666,273.832 725.070666,274.376 C726.070666,274.92 727.106666,275.192 728.178666,275.192 Z M737.845333,259.688 C738.117333,259.688 738.341333,259.592 738.517333,259.4 C738.709333,259.208 738.805333,258.984 738.805333,258.728 C738.805333,258.472 738.713333,258.248 738.529333,258.056 C738.345333,257.864 738.117333,257.768 737.845333,257.768 C737.573333,257.768 737.345333,257.864 737.161333,258.056 C736.977333,258.248 736.885333,258.472 736.885333,258.728 C736.885333,258.984 736.977333,259.208 737.161333,259.4 C737.345333,259.592 737.573333,259.688 737.845333,259.688 Z M738.637333,275 L738.637333,263 L737.053333,263 L737.053333,275 L738.637333,275 Z M744.56,275 L744.56,267.968 C744.56,266.944 744.908,266.072 745.604,265.352 C746.3,264.632 747.144,264.272 748.136,264.272 C749.128,264.272 749.972,264.632 750.668,265.352 C751.364,266.072 751.712,266.944 751.712,267.968 L751.712,267.968 L751.712,275 L753.32,275 L753.32,267.968 C753.32,266.928 753.664,266.052 754.352,265.34 C755.04,264.628 755.888,264.272 756.896,264.272 C757.904,264.272 758.748,264.628 759.428,265.34 C760.108,266.052 760.448,266.928 760.448,267.968 L760.448,267.968 L760.448,275 L762.08,275 L762.08,267.92 C762.08,266.48 761.608,265.268 760.664,264.284 C759.72,263.3 758.552,262.808 757.16,262.808 C756.168,262.808 755.28,263.04 754.496,263.504 C753.712,263.968 753.112,264.592 752.696,265.376 C752.264,264.592 751.668,263.968 750.908,263.504 C750.148,263.04 749.312,262.808 748.4,262.808 C746.816,262.808 745.536,263.464 744.56,264.776 L744.56,264.776 L744.56,263 L742.976,263 L742.976,275 L744.56,275 Z M767.642666,280.832 L767.642666,272.984 C768.858666,274.44 770.426666,275.168 772.346666,275.168 C774.058666,275.168 775.518666,274.564 776.726666,273.356 C777.934666,272.148 778.538666,270.688 778.538666,268.976 C778.538666,267.264 777.934666,265.804 776.726666,264.596 C775.518666,263.388 774.058666,262.784 772.346666,262.784 C770.442666,262.784 768.874666,263.504 767.642666,264.944 L767.642666,264.944 L767.642666,262.976 L766.058666,262.976 L766.058666,280.832 L767.642666,280.832 Z M772.298666,273.656 C771.018666,273.656 769.930666,273.208 769.034666,272.312 C768.138666,271.4 767.690666,270.288 767.690666,268.976 C767.690666,267.664 768.138666,266.552 769.034666,265.64 C769.930666,264.728 771.018666,264.272 772.298666,264.272 C773.578666,264.272 774.670666,264.728 775.574666,265.64 C776.478666,266.552 776.930666,267.664 776.930666,268.976 C776.930666,270.288 776.478666,271.396 775.574666,272.3 C774.670666,273.204 773.578666,273.656 772.298666,273.656 Z M783.405333,275 L783.405333,257.144 L781.821333,257.144 L781.821333,275 L783.405333,275 Z M788.536,259.688 C788.808,259.688 789.032,259.592 789.208,259.4 C789.4,259.208 789.496,258.984 789.496,258.728 C789.496,258.472 789.404,258.248 789.22,258.056 C789.036,257.864 788.808,257.768 788.536,257.768 C788.264,257.768 788.036,257.864 787.852,258.056 C787.668,258.248 787.576,258.472 787.576,258.728 C787.576,258.984 787.668,259.208 787.852,259.4 C788.036,259.592 788.264,259.688 788.536,259.688 Z M789.328,275 L789.328,263 L787.744,263 L787.744,275 L789.328,275 Z M795.778666,275 L795.778666,264.272 L798.130666,264.272 L798.130666,262.952 L795.778666,262.952 L795.778666,260.048 C795.778666,259.392 795.834666,258.948 795.946666,258.716 C796.058666,258.484 796.290666,258.368 796.642666,258.368 C796.962666,258.368 797.282666,258.408 797.602666,258.488 L797.602666,258.488 L797.938666,257.264 L797.722666,257.192 C797.578666,257.144 797.358666,257.096 797.062666,257.048 C796.766666,257 796.474666,256.976 796.186666,256.976 C794.874666,256.976 794.218666,257.808 794.218666,259.472 L794.218666,259.472 L794.218666,262.952 L792.802666,262.952 L792.802666,264.272 L794.218666,264.272 L794.218666,275 L795.778666,275 Z M802.157333,259.688 C802.429333,259.688 802.653333,259.592 802.829333,259.4 C803.021333,259.208 803.117333,258.984 803.117333,258.728 C803.117333,258.472 803.025333,258.248 802.841333,258.056 C802.657333,257.864 802.429333,257.768 802.157333,257.768 C801.885333,257.768 801.657333,257.864 801.473333,258.056 C801.289333,258.248 801.197333,258.472 801.197333,258.728 C801.197333,258.984 801.289333,259.208 801.473333,259.4 C801.657333,259.592 801.885333,259.688 802.157333,259.688 Z M802.949333,275 L802.949333,263 L801.365333,263 L801.365333,275 L802.949333,275 Z M812.616,275.192 C813.704,275.192 814.716,274.924 815.652,274.388 C816.588,273.852 817.328,273.136 817.872,272.24 L817.872,272.24 L816.432,271.544 C816,272.2 815.448,272.72 814.776,273.104 C814.104,273.488 813.384,273.68 812.616,273.68 C811.32,273.68 810.228,273.228 809.34,272.324 C808.452,271.42 808.008,270.312 808.008,269 C808.008,267.688 808.452,266.58 809.34,265.676 C810.228,264.772 811.32,264.32 812.616,264.32 C813.384,264.32 814.104,264.512 814.776,264.896 C815.448,265.28 816,265.8 816.432,266.456 L816.432,266.456 L817.872,265.76 C817.328,264.864 816.588,264.148 815.652,263.612 C814.716,263.076 813.704,262.808 812.616,262.808 C810.904,262.808 809.444,263.412 808.236,264.62 C807.028,265.828 806.424,267.288 806.424,269 C806.424,270.712 807.028,272.172 808.236,273.38 C809.444,274.588 810.904,275.192 812.616,275.192 Z M826.434667,275.192 C828.322666,275.192 829.882667,274.48 831.114667,273.056 L831.114667,273.056 L831.114667,275 L832.698667,275 L832.698667,263 L831.114667,263 L831.114667,264.944 C829.898666,263.52 828.338667,262.808 826.434667,262.808 C824.722667,262.808 823.262667,263.412 822.054667,264.62 C820.846667,265.828 820.242667,267.288 820.242667,269 C820.242667,270.712 820.846667,272.172 822.054667,273.38 C823.262667,274.588 824.722667,275.192 826.434667,275.192 Z M826.458667,273.68 C825.178667,273.68 824.086667,273.228 823.182667,272.324 C822.278667,271.42 821.826667,270.312 821.826667,269 C821.826667,267.688 822.278667,266.58 823.182667,265.676 C824.086667,264.772 825.178667,264.32 826.458667,264.32 C827.754667,264.32 828.846667,264.772 829.734667,265.676 C830.622667,266.58 831.066667,267.688 831.066667,269 C831.066667,270.312 830.622667,271.42 829.734667,272.324 C828.846667,273.228 827.754667,273.68 826.458667,273.68 Z M840.781333,275.192 C841.373333,275.192 841.949333,275.036 842.509333,274.724 C843.069333,274.412 843.429333,274.168 843.589333,273.992 C843.749333,273.816 843.877333,273.664 843.973333,273.536 L843.973333,273.536 L843.181333,272.312 C843.181333,272.376 843.097333,272.516 842.929333,272.732 C842.761333,272.948 842.501333,273.168 842.149333,273.392 C841.797333,273.616 841.437333,273.728 841.069333,273.728 C840.477333,273.728 839.953333,273.512 839.497333,273.08 C839.041333,272.648 838.813333,272.064 838.813333,271.328 L838.813333,271.328 L838.813333,264.44 L842.437333,264.44 L842.437333,262.976 L838.813333,262.976 L838.813333,258.992 L837.229333,259.184 L837.229333,262.976 L835.309333,262.976 L835.309333,264.44 L837.229333,264.44 L837.229333,271.688 C837.229333,272.824 837.569333,273.692 838.249333,274.292 C838.929333,274.892 839.773333,275.192 840.781333,275.192 Z M847.736,259.688 C848.008,259.688 848.232,259.592 848.408,259.4 C848.6,259.208 848.696,258.984 848.696,258.728 C848.696,258.472 848.604,258.248 848.42,258.056 C848.236,257.864 848.008,257.768 847.736,257.768 C847.464,257.768 847.236,257.864 847.052,258.056 C846.868,258.248 846.776,258.472 846.776,258.728 C846.776,258.984 846.868,259.208 847.052,259.4 C847.236,259.592 847.464,259.688 847.736,259.688 Z M848.528,275 L848.528,263 L846.944,263 L846.944,275 L848.528,275 Z M858.194667,275.192 C859.906667,275.192 861.362667,274.584 862.562667,273.368 C863.778667,272.152 864.386667,270.696 864.386667,269 C864.386667,267.288 863.782667,265.828 862.574667,264.62 C861.366667,263.412 859.906667,262.808 858.194667,262.808 C856.482667,262.808 855.022667,263.412 853.814667,264.62 C852.606667,265.828 852.002667,267.288 852.002667,269 C852.002667,270.712 852.606667,272.172 853.814667,273.38 C855.022667,274.588 856.482667,275.192 858.194667,275.192 Z M858.218667,273.68 C856.938667,273.68 855.850667,273.228 854.954667,272.324 C854.058667,271.42 853.610667,270.312 853.610667,269 C853.610667,267.688 854.058667,266.576 854.954667,265.664 C855.850667,264.752 856.938667,264.296 858.218667,264.296 C859.514667,264.296 860.606667,264.752 861.494667,265.664 C862.382667,266.576 862.826667,267.688 862.826667,269 C862.826667,270.312 862.382667,271.42 861.494667,272.324 C860.606667,273.228 859.514667,273.68 858.218667,273.68 Z M869.013333,275 L869.013333,267.968 C869.013333,266.944 869.361333,266.072 870.057333,265.352 C870.753333,264.632 871.597333,264.272 872.589333,264.272 C873.581333,264.272 874.425333,264.632 875.121333,265.352 C875.817333,266.072 876.165333,266.944 876.165333,267.968 L876.165333,267.968 L876.165333,275 L877.773333,275 L877.773333,267.92 C877.773333,266.48 877.301333,265.268 876.357333,264.284 C875.413333,263.3 874.245333,262.808 872.853333,262.808 C871.269333,262.808 869.989333,263.464 869.013333,264.776 L869.013333,264.776 L869.013333,263 L867.429333,263 L867.429333,275 L869.013333,275 Z" id="FurtherCircuitSimplification" fill="#23ABE3" fill-rule="nonzero"></path>
        </g>
        <g transform="translate(226.000000, 26.000000)">
            <path id="Line-11-Copy-5" d="M173.5,14 L183,33 L175,33 L175,44.5 L172,44.5 L172,33 L164,33 L173.5,14 Z" fill="#B09679" fill-rule="nonzero"></path>
            <g id="Vout" transform="translate(360.000000, 128.000000)" fill="#1A80AA" fill-rule="nonzero">
                <path d="M8.852,17.408 L14.132,5.192 C14.532,4.264 14.872,3.684 15.152,3.452 C15.432,3.22 16.044,3.104 16.988,3.104 L16.988,3.104 L16.988,2.6 L11.396,2.6 L11.396,3.104 C12.388,3.104 13.024,3.244 13.304,3.524 C13.584,3.804 13.572,4.272 13.268,4.928 L13.268,4.928 L9.236,14.264 L5.156,4.928 C4.852,4.272 4.84,3.804 5.12,3.524 C5.4,3.244 6.036,3.104 7.028,3.104 L7.028,3.104 L7.028,2.6 L0.38,2.6 L0.38,3.104 C1.324,3.104 1.936,3.22 2.216,3.452 C2.496,3.684 2.836,4.264 3.236,5.192 L3.236,5.192 L8.54,17.408 L8.852,17.408 Z M22.1,17.408 C23.428,17.408 24.568,16.976 25.52,16.112 C26.472,15.248 26.948,14.208 26.948,12.992 C26.948,11.776 26.468,10.744 25.508,9.896 C24.564,9.032 23.428,8.6 22.1,8.6 C20.772,8.6 19.632,9.028 18.68,9.884 C17.728,10.74 17.252,11.776 17.252,12.992 C17.252,14.208 17.728,15.248 18.68,16.112 C19.632,16.976 20.772,17.408 22.1,17.408 Z M22.1,16.472 C21.156,16.472 20.436,16.144 19.94,15.488 C19.444,14.832 19.196,14 19.196,12.992 C19.196,11.984 19.444,11.152 19.94,10.496 C20.436,9.84 21.156,9.512 22.1,9.512 C23.044,9.512 23.764,9.836 24.26,10.484 C24.756,11.132 25.004,11.968 25.004,12.992 C25.004,14.016 24.756,14.856 24.26,15.512 C23.764,16.152 23.044,16.472 22.1,16.472 Z M36.956,17.408 L40.172,16.808 L40.172,16.304 C39.356,16.304 38.832,16.136 38.6,15.8 C38.368,15.464 38.252,14.696 38.252,13.496 L38.252,13.496 L38.252,9.008 L34.652,9.008 L34.652,9.488 C35.468,9.488 35.992,9.656 36.224,9.992 C36.456,10.328 36.572,11.096 36.572,12.296 L36.572,12.296 L36.572,13.88 C36.572,14.552 36.276,15.116 35.684,15.572 C35.092,16.028 34.524,16.256 33.98,16.256 C32.764,16.256 32.156,15.4 32.156,13.688 L32.156,13.688 L32.156,9.008 L28.556,9.008 L28.556,9.488 C29.356,9.488 29.872,9.656 30.104,9.992 C30.336,10.328 30.452,11.096 30.452,12.296 L30.452,12.296 L30.452,13.808 C30.452,16.208 31.444,17.408 33.428,17.408 C34.532,17.408 35.58,16.896 36.572,15.872 C36.7,16.64 36.828,17.152 36.956,17.408 L36.956,17.408 Z M44.78,17.336 C45.18,17.336 45.616,17.208 46.088,16.952 C46.56,16.696 46.964,16.368 47.3,15.968 L47.3,15.968 L46.892,15.56 C46.316,16.104 45.796,16.376 45.332,16.376 C44.612,16.376 44.252,15.8 44.252,14.648 L44.252,14.648 L44.252,9.848 L46.34,9.848 L46.34,9.008 L44.252,9.008 L44.252,6.368 L43.436,6.368 C43.34,7.2 43.132,7.856 42.812,8.336 C42.492,8.816 41.988,9.128 41.3,9.272 L41.3,9.272 L41.3,9.848 L42.548,9.848 L42.548,14.648 C42.548,15.544 42.748,16.216 43.148,16.664 C43.548,17.112 44.092,17.336 44.78,17.336 Z"></path>
            </g>
            <g id="R1" transform="translate(292.000000, 11.000000)" stroke="#524740" stroke-linejoin="bevel" stroke-width="2">
                <polyline id="Resistor" transform="translate(13.000000, 35.000000) rotate(90.000000) translate(-13.000000, -35.000000) " points="-22 35 -17 35 -12 22 -2 48 8 22 18 48 28 22 38 48 43 35 48 35"></polyline>
            </g>
            <g id="R1-Copy" transform="translate(292.000000, 103.000000)" stroke="#524740" stroke-linejoin="bevel" stroke-width="2">
                <polyline id="Resistor" transform="translate(13.000000, 35.000000) rotate(-270.000000) translate(-13.000000, -35.000000) " points="-22 35 -17 35 -12 22 -2 48 8 22 18 48 28 22 38 48 43 35 48 35"></polyline>
            </g>
            <g id="R2" transform="translate(323.000000, 126.000000)" fill="#524740" fill-rule="nonzero">
                <path d="M8.212,17 L8.212,16.496 C7.22,16.496 6.592,16.328 6.328,15.992 C6.064,15.656 5.932,14.888 5.932,13.688 L5.932,13.688 L5.932,10.688 L7.06,10.688 L11.812,17 L15.772,17 L15.772,16.496 C14.364,16.336 12.876,15.32 11.308,13.448 L11.308,13.448 L8.956,10.688 C10.284,10.544 11.328,10.104 12.088,9.368 C12.848,8.632 13.228,7.728 13.228,6.656 C13.228,5.488 12.772,4.52 11.86,3.752 C10.948,2.984 9.684,2.6 8.068,2.6 L8.068,2.6 L1.732,2.6 L1.732,3.104 C2.724,3.104 3.352,3.268 3.616,3.596 C3.88,3.924 4.012,4.688 4.012,5.888 L4.012,5.888 L4.012,13.688 C4.012,14.888 3.88,15.656 3.616,15.992 C3.352,16.328 2.724,16.496 1.732,16.496 L1.732,16.496 L1.732,17 L8.212,17 Z M8.044,9.824 L5.932,9.824 L5.932,3.488 L8.044,3.488 C9.036,3.488 9.792,3.784 10.312,4.376 C10.832,4.968 11.092,5.728 11.092,6.656 C11.092,7.584 10.832,8.344 10.312,8.936 C9.792,9.528 9.036,9.824 8.044,9.824 L8.044,9.824 Z M25.732,18.896 L26.332,15.608 L20.116,15.608 L23.812,12.776 L24.052,12.632 C24.196,12.52 24.376,12.356 24.592,12.14 C24.808,11.924 25.024,11.688 25.24,11.432 C25.456,11.176 25.64,10.864 25.792,10.496 C25.944,10.128 26.02,9.768 26.02,9.416 C26.02,8.456 25.564,7.68 24.652,7.088 C23.74,6.496 22.668,6.2 21.436,6.2 C20.108,6.2 19.044,6.524 18.244,7.172 C17.444,7.82 17.08,8.572 17.152,9.428 C17.224,10.284 17.724,10.992 18.652,11.552 L18.652,11.552 L19.372,10.808 C18.844,9.816 18.828,8.968 19.324,8.264 C19.82,7.56 20.524,7.208 21.436,7.208 C22.22,7.208 22.848,7.408 23.32,7.808 C23.792,8.208 24.028,8.752 24.028,9.44 C24.028,10.656 23.26,11.872 21.724,13.088 L21.724,13.088 L17.476,16.424 L17.476,17 L22.42,17 C23.62,17 24.388,17.116 24.724,17.348 C25.06,17.58 25.228,18.096 25.228,18.896 L25.228,18.896 L25.732,18.896 Z"></path>
            </g>
            <g id="R1" transform="translate(325.000000, 34.000000)" fill="#524740" fill-rule="nonzero">
                <path d="M8.096,17 L8.096,16.496 C7.104,16.496 6.476,16.328 6.212,15.992 C5.948,15.656 5.816,14.888 5.816,13.688 L5.816,13.688 L5.816,10.688 L6.944,10.688 L11.696,17 L15.656,17 L15.656,16.496 C14.248,16.336 12.76,15.32 11.192,13.448 L11.192,13.448 L8.84,10.688 C10.168,10.544 11.212,10.104 11.972,9.368 C12.732,8.632 13.112,7.728 13.112,6.656 C13.112,5.488 12.656,4.52 11.744,3.752 C10.832,2.984 9.568,2.6 7.952,2.6 L7.952,2.6 L1.616,2.6 L1.616,3.104 C2.608,3.104 3.236,3.268 3.5,3.596 C3.764,3.924 3.896,4.688 3.896,5.888 L3.896,5.888 L3.896,13.688 C3.896,14.888 3.764,15.656 3.5,15.992 C3.236,16.328 2.608,16.496 1.616,16.496 L1.616,16.496 L1.616,17 L8.096,17 Z M7.928,9.824 L5.816,9.824 L5.816,3.488 L7.928,3.488 C8.92,3.488 9.676,3.784 10.196,4.376 C10.716,4.968 10.976,5.728 10.976,6.656 C10.976,7.584 10.716,8.344 10.196,8.936 C9.676,9.528 8.92,9.824 7.928,9.824 L7.928,9.824 Z M23.096,17 L23.096,16.496 C22.088,16.496 21.452,16.332 21.188,16.004 C20.924,15.676 20.792,14.904 20.792,13.688 L20.792,13.688 L20.792,9.896 C20.792,8.68 20.924,7.908 21.188,7.58 C21.452,7.252 22.088,7.088 23.096,7.088 L23.096,7.088 L23.096,6.608 L16.784,6.608 L16.784,7.088 C17.776,7.088 18.408,7.256 18.68,7.592 C18.952,7.928 19.088,8.696 19.088,9.896 L19.088,9.896 L19.088,13.688 C19.088,14.888 18.952,15.656 18.68,15.992 C18.408,16.328 17.776,16.496 16.784,16.496 L16.784,16.496 L16.784,17 L23.096,17 Z"></path>
            </g>
            <g id="DC_Power" transform="translate(0.000000, 52.000000)">
                <g id="Group-2" transform="translate(147.000000, 0.000000)">
                    <circle id="Oval" stroke="#524740" stroke-width="2" cx="40" cy="40" r="39"></circle>
                    <text id="+" font-family="Lato-Regular, Lato" font-size="18" font-weight="normal" letter-spacing="0.8999999" fill="#524740">
                        <tspan x="35.3300001" y="21">+</tspan>
                    </text>
                    <text id="-" font-family="Lato-Regular, Lato" font-size="18" font-weight="normal" letter-spacing="0.8999999" fill="#524740">
                        <tspan x="37.2065001" y="72.5">-</tspan>
                    </text>
                </g>
                <path d="M8.784,17.408 L14.064,5.192 C14.464,4.264 14.804,3.684 15.084,3.452 C15.364,3.22 15.976,3.104 16.92,3.104 L16.92,3.104 L16.92,2.6 L11.328,2.6 L11.328,3.104 C12.32,3.104 12.956,3.244 13.236,3.524 C13.516,3.804 13.504,4.272 13.2,4.928 L13.2,4.928 L9.168,14.264 L5.088,4.928 C4.784,4.272 4.772,3.804 5.052,3.524 C5.332,3.244 5.968,3.104 6.96,3.104 L6.96,3.104 L6.96,2.6 L0.312,2.6 L0.312,3.104 C1.256,3.104 1.868,3.22 2.148,3.452 C2.428,3.684 2.768,4.264 3.168,5.192 L3.168,5.192 L8.472,17.408 L8.784,17.408 Z M22.032,17.408 C23.36,17.408 24.5,16.976 25.452,16.112 C26.404,15.248 26.88,14.208 26.88,12.992 C26.88,11.776 26.4,10.744 25.44,9.896 C24.496,9.032 23.36,8.6 22.032,8.6 C20.704,8.6 19.564,9.028 18.612,9.884 C17.66,10.74 17.184,11.776 17.184,12.992 C17.184,14.208 17.66,15.248 18.612,16.112 C19.564,16.976 20.704,17.408 22.032,17.408 Z M22.032,16.472 C21.088,16.472 20.368,16.144 19.872,15.488 C19.376,14.832 19.128,14 19.128,12.992 C19.128,11.984 19.376,11.152 19.872,10.496 C20.368,9.84 21.088,9.512 22.032,9.512 C22.976,9.512 23.696,9.836 24.192,10.484 C24.688,11.132 24.936,11.968 24.936,12.992 C24.936,14.016 24.688,14.856 24.192,15.512 C23.696,16.152 22.976,16.472 22.032,16.472 Z M33.984,17 L33.984,16.496 C33.184,16.496 32.668,16.328 32.436,15.992 C32.204,15.656 32.088,14.888 32.088,13.688 L32.088,13.688 L32.088,2.192 L28.488,2.792 L28.488,3.296 C29.288,3.296 29.804,3.464 30.036,3.8 C30.268,4.136 30.384,4.904 30.384,6.104 L30.384,6.104 L30.384,13.688 C30.384,14.888 30.268,15.656 30.036,15.992 C29.804,16.328 29.288,16.496 28.488,16.496 L28.488,16.496 L28.488,17 L33.984,17 Z M38.616,17.336 C39.016,17.336 39.452,17.208 39.924,16.952 C40.396,16.696 40.8,16.368 41.136,15.968 L41.136,15.968 L40.728,15.56 C40.152,16.104 39.632,16.376 39.168,16.376 C38.448,16.376 38.088,15.8 38.088,14.648 L38.088,14.648 L38.088,9.848 L40.176,9.848 L40.176,9.008 L38.088,9.008 L38.088,6.368 L37.272,6.368 C37.176,7.2 36.968,7.856 36.648,8.336 C36.328,8.816 35.824,9.128 35.136,9.272 L35.136,9.272 L35.136,9.848 L36.384,9.848 L36.384,14.648 C36.384,15.544 36.584,16.216 36.984,16.664 C37.384,17.112 37.928,17.336 38.616,17.336 Z M44.616,17.312 C45.544,17.312 46.544,16.832 47.616,15.872 C47.744,16.8 48.288,17.264 49.248,17.264 C49.84,17.264 50.368,17.016 50.832,16.52 L50.832,16.52 L50.496,16.064 C50.256,16.304 50.032,16.424 49.824,16.424 C49.456,16.424 49.272,16.112 49.272,15.488 L49.272,15.488 L49.272,11.864 C49.272,10.712 49.016,9.88 48.504,9.368 C47.992,8.856 47.152,8.6 45.984,8.6 C45.184,8.6 44.476,8.78 43.86,9.14 C43.244,9.5 42.936,9.96 42.936,10.52 C42.936,10.76 43.016,10.96 43.176,11.12 C43.336,11.28 43.536,11.36 43.776,11.36 C44,11.36 44.192,11.28 44.352,11.12 C44.512,10.96 44.592,10.76 44.592,10.52 C44.592,10.168 44.74,9.888 45.036,9.68 C45.332,9.472 45.64,9.368 45.96,9.368 C46.616,9.368 47.048,9.552 47.256,9.92 C47.464,10.288 47.568,10.944 47.568,11.888 C44.16,12.48 42.456,13.616 42.456,15.296 C42.456,15.92 42.664,16.412 43.08,16.772 C43.496,17.132 44.008,17.312 44.616,17.312 Z M45.384,16.232 C45.064,16.232 44.796,16.12 44.58,15.896 C44.364,15.672 44.256,15.376 44.256,15.008 C44.256,13.936 45.36,13.144 47.568,12.632 L47.568,12.632 L47.568,15.08 C46.704,15.848 45.976,16.232 45.384,16.232 Z M55.872,23.408 C57.088,23.408 58.1,23.116 58.908,22.532 C59.716,21.948 60.12,21.168 60.12,20.192 C60.12,19.376 59.776,18.68 59.088,18.104 C58.4,17.528 57.288,17.176 55.752,17.048 C54.296,16.92 53.568,16.616 53.568,16.136 C53.568,15.672 54.464,15.336 56.256,15.128 C57.088,15.016 57.816,14.656 58.44,14.048 C59.064,13.44 59.376,12.712 59.376,11.864 C59.376,11.128 59.144,10.48 58.68,9.92 C58.936,9.664 59.184,9.536 59.424,9.536 C59.648,9.536 59.812,9.596 59.916,9.716 C60.02,9.836 60.084,9.964 60.108,10.1 C60.132,10.236 60.204,10.36 60.324,10.472 C60.444,10.584 60.624,10.632 60.864,10.616 C60.992,10.616 61.104,10.576 61.2,10.496 C61.488,10.272 61.56,9.936 61.416,9.488 C61.224,8.896 60.776,8.6 60.072,8.6 C59.8,8.6 59.484,8.688 59.124,8.864 C58.764,9.04 58.48,9.256 58.272,9.512 C57.584,8.904 56.76,8.6 55.8,8.6 C54.808,8.6 53.964,8.92 53.268,9.56 C52.572,10.2 52.224,10.968 52.224,11.864 C52.224,12.504 52.404,13.08 52.764,13.592 C53.124,14.104 53.616,14.504 54.24,14.792 C52.896,15.208 52.224,15.848 52.224,16.712 C52.224,17.976 53.36,18.72 55.632,18.944 C56.736,19.056 57.548,19.232 58.068,19.472 C58.588,19.712 58.848,20.096 58.848,20.624 C58.848,21.168 58.548,21.612 57.948,21.956 C57.348,22.3 56.656,22.472 55.872,22.472 C55.376,22.472 54.9,22.4 54.444,22.256 C53.988,22.112 53.604,21.912 53.292,21.656 C52.98,21.4 52.84,21.052 52.872,20.612 C52.904,20.172 53.152,19.688 53.616,19.16 L53.616,19.16 L53.184,18.896 C52.224,19.392 51.712,20 51.648,20.72 C51.584,21.44 51.948,22.068 52.74,22.604 C53.532,23.14 54.576,23.408 55.872,23.408 Z M55.8,14.336 C55.24,14.336 54.808,14.108 54.504,13.652 C54.2,13.196 54.048,12.6 54.048,11.864 C54.048,11.128 54.2,10.528 54.504,10.064 C54.808,9.6 55.24,9.368 55.8,9.368 C56.36,9.368 56.788,9.6 57.084,10.064 C57.38,10.528 57.528,11.128 57.528,11.864 C57.528,12.6 57.376,13.2 57.072,13.664 C56.784,14.112 56.36,14.336 55.8,14.336 Z M66.96,17.408 C67.632,17.408 68.304,17.26 68.976,16.964 C69.648,16.668 70.2,16.288 70.632,15.824 L70.632,15.824 L70.2,15.296 C69.864,15.616 69.44,15.88 68.928,16.088 C68.416,16.296 67.96,16.4 67.56,16.4 C66.376,16.4 65.524,16.028 65.004,15.284 C64.484,14.54 64.296,13.576 64.44,12.392 L64.44,12.392 L70.224,12.392 C70.512,11.384 70.312,10.5 69.624,9.74 C68.936,8.98 68.048,8.6 66.96,8.6 C65.808,8.6 64.78,9.024 63.876,9.872 C62.972,10.72 62.52,11.76 62.52,12.992 C62.52,14.224 62.936,15.268 63.768,16.124 C64.6,16.98 65.664,17.408 66.96,17.408 Z M68.568,11.504 L64.584,11.504 C64.76,10.912 65.052,10.44 65.46,10.088 C65.868,9.736 66.328,9.56 66.84,9.56 C67.56,9.56 68.068,9.772 68.364,10.196 C68.66,10.62 68.728,11.056 68.568,11.504 L68.568,11.504 Z M79.056,17.408 C79.152,16.96 79.384,16.584 79.752,16.28 C79.912,16.312 80.192,16.428 80.592,16.628 C80.992,16.828 81.44,17.008 81.936,17.168 C82.432,17.328 82.952,17.408 83.496,17.408 C84.776,17.408 85.86,17.008 86.748,16.208 C87.636,15.408 88.08,14.368 88.08,13.088 C88.08,11.504 87.24,10.288 85.56,9.44 L85.56,9.44 L83.28,8.264 C82.176,7.688 81.412,7.196 80.988,6.788 C80.564,6.38 80.352,5.88 80.352,5.288 C80.352,4.68 80.572,4.172 81.012,3.764 C81.452,3.356 82.008,3.152 82.68,3.152 C84.888,3.152 86.112,4.552 86.352,7.352 L86.352,7.352 L86.856,7.352 L86.856,2.072 L86.376,2.072 C86.28,2.504 86.048,2.872 85.68,3.176 C84.784,2.52 83.808,2.192 82.752,2.192 C81.6,2.192 80.648,2.536 79.896,3.224 C79.144,3.912 78.768,4.76 78.768,5.768 C78.768,6.632 79.024,7.408 79.536,8.096 C80.048,8.784 80.68,9.328 81.432,9.728 L81.432,9.728 L83.736,10.904 C85.576,11.864 86.496,12.832 86.496,13.808 C86.496,14.576 86.212,15.208 85.644,15.704 C85.076,16.2 84.36,16.448 83.496,16.448 C82.904,16.448 82.364,16.368 81.876,16.208 C81.388,16.048 80.996,15.848 80.7,15.608 C80.404,15.368 80.144,15.08 79.92,14.744 C79.696,14.408 79.532,14.104 79.428,13.832 C79.324,13.56 79.244,13.276 79.188,12.98 C79.132,12.684 79.1,12.484 79.092,12.38 C79.084,12.276 79.08,12.192 79.08,12.128 L79.08,12.128 L78.576,12.128 L78.576,17.408 L79.056,17.408 Z M95.256,17.408 C96.584,17.408 97.724,16.976 98.676,16.112 C99.628,15.248 100.104,14.208 100.104,12.992 C100.104,11.776 99.624,10.744 98.664,9.896 C97.72,9.032 96.584,8.6 95.256,8.6 C93.928,8.6 92.788,9.028 91.836,9.884 C90.884,10.74 90.408,11.776 90.408,12.992 C90.408,14.208 90.884,15.248 91.836,16.112 C92.788,16.976 93.928,17.408 95.256,17.408 Z M95.256,16.472 C94.312,16.472 93.592,16.144 93.096,15.488 C92.6,14.832 92.352,14 92.352,12.992 C92.352,11.984 92.6,11.152 93.096,10.496 C93.592,9.84 94.312,9.512 95.256,9.512 C96.2,9.512 96.92,9.836 97.416,10.484 C97.912,11.132 98.16,11.968 98.16,12.992 C98.16,14.016 97.912,14.856 97.416,15.512 C96.92,16.152 96.2,16.472 95.256,16.472 Z M110.112,17.408 L113.328,16.808 L113.328,16.304 C112.512,16.304 111.988,16.136 111.756,15.8 C111.524,15.464 111.408,14.696 111.408,13.496 L111.408,13.496 L111.408,9.008 L107.808,9.008 L107.808,9.488 C108.624,9.488 109.148,9.656 109.38,9.992 C109.612,10.328 109.728,11.096 109.728,12.296 L109.728,12.296 L109.728,13.88 C109.728,14.552 109.432,15.116 108.84,15.572 C108.248,16.028 107.68,16.256 107.136,16.256 C105.92,16.256 105.312,15.4 105.312,13.688 L105.312,13.688 L105.312,9.008 L101.712,9.008 L101.712,9.488 C102.512,9.488 103.028,9.656 103.26,9.992 C103.492,10.328 103.608,11.096 103.608,12.296 L103.608,12.296 L103.608,13.808 C103.608,16.208 104.6,17.408 106.584,17.408 C107.688,17.408 108.736,16.896 109.728,15.872 C109.856,16.64 109.984,17.152 110.112,17.408 L110.112,17.408 Z M120.192,17 L120.192,16.496 C119.392,16.496 118.876,16.328 118.644,15.992 C118.412,15.656 118.296,14.888 118.296,13.688 L118.296,13.688 L118.296,12.368 C118.296,11.52 118.512,10.84 118.944,10.328 C119.376,9.816 119.776,9.56 120.144,9.56 C120.656,9.56 120.912,9.824 120.912,10.352 C120.912,10.576 120.996,10.776 121.164,10.952 C121.332,11.128 121.528,11.216 121.752,11.216 C122.392,11.216 122.712,10.84 122.712,10.088 C122.712,9.736 122.548,9.4 122.22,9.08 C121.892,8.76 121.424,8.6 120.816,8.6 C120.336,8.6 119.856,8.768 119.376,9.104 C118.896,9.44 118.536,9.848 118.296,10.328 C118.168,9.48 118.032,8.904 117.888,8.6 L117.888,8.6 L114.696,9.2 L114.696,9.704 C115.496,9.704 116.012,9.872 116.244,10.208 C116.476,10.544 116.592,11.304 116.592,12.488 L116.592,12.488 L116.592,13.688 C116.592,14.888 116.476,15.656 116.244,15.992 C116.012,16.328 115.496,16.496 114.696,16.496 L114.696,16.496 L114.696,17 L120.192,17 Z M128.616,17.408 C130.024,17.408 131.216,16.88 132.192,15.824 L132.192,15.824 L131.784,15.296 C131,16.032 130.144,16.4 129.216,16.4 C128.256,16.4 127.532,16.116 127.044,15.548 C126.556,14.98 126.312,14.2 126.312,13.208 C126.312,12.12 126.536,11.208 126.984,10.472 C127.432,9.736 127.976,9.368 128.616,9.368 C129.192,9.368 129.48,9.712 129.48,10.4 C129.48,10.672 129.572,10.9 129.756,11.084 C129.94,11.268 130.16,11.36 130.416,11.36 C130.784,11.36 131.052,11.252 131.22,11.036 C131.388,10.82 131.472,10.584 131.472,10.328 C131.472,9.848 131.232,9.44 130.752,9.104 C130.272,8.768 129.56,8.6 128.616,8.6 C127.576,8.6 126.608,9.036 125.712,9.908 C124.816,10.78 124.368,11.88 124.368,13.208 C124.368,14.44 124.748,15.448 125.508,16.232 C126.268,17.016 127.304,17.408 128.616,17.408 Z M138.24,17.408 C138.912,17.408 139.584,17.26 140.256,16.964 C140.928,16.668 141.48,16.288 141.912,15.824 L141.912,15.824 L141.48,15.296 C141.144,15.616 140.72,15.88 140.208,16.088 C139.696,16.296 139.24,16.4 138.84,16.4 C137.656,16.4 136.804,16.028 136.284,15.284 C135.764,14.54 135.576,13.576 135.72,12.392 L135.72,12.392 L141.504,12.392 C141.792,11.384 141.592,10.5 140.904,9.74 C140.216,8.98 139.328,8.6 138.24,8.6 C137.088,8.6 136.06,9.024 135.156,9.872 C134.252,10.72 133.8,11.76 133.8,12.992 C133.8,14.224 134.216,15.268 135.048,16.124 C135.88,16.98 136.944,17.408 138.24,17.408 Z M139.848,11.504 L135.864,11.504 C136.04,10.912 136.332,10.44 136.74,10.088 C137.148,9.736 137.608,9.56 138.12,9.56 C138.84,9.56 139.348,9.772 139.644,10.196 C139.94,10.62 140.008,11.056 139.848,11.504 L139.848,11.504 Z" id="VoltageSource" fill="#524740" fill-rule="nonzero"></path>
                <g id="VS" transform="translate(175.000000, 31.000000)" fill="#1A80AA" fill-rule="nonzero">
                    <path d="M8.576,17.408 L13.856,5.192 C14.256,4.264 14.596,3.684 14.876,3.452 C15.156,3.22 15.768,3.104 16.712,3.104 L16.712,3.104 L16.712,2.6 L11.12,2.6 L11.12,3.104 C12.112,3.104 12.748,3.244 13.028,3.524 C13.308,3.804 13.296,4.272 12.992,4.928 L12.992,4.928 L8.96,14.264 L4.88,4.928 C4.576,4.272 4.564,3.804 4.844,3.524 C5.124,3.244 5.76,3.104 6.752,3.104 L6.752,3.104 L6.752,2.6 L0.104,2.6 L0.104,3.104 C1.048,3.104 1.66,3.22 1.94,3.452 C2.22,3.684 2.56,4.264 2.96,5.192 L2.96,5.192 L8.264,17.408 L8.576,17.408 Z M17.48,17.408 C17.48,17.088 17.512,16.872 17.576,16.76 C17.64,16.648 17.752,16.62 17.912,16.676 C18.072,16.732 18.244,16.812 18.428,16.916 C18.612,17.02 18.856,17.128 19.16,17.24 C19.464,17.352 19.76,17.408 20.048,17.408 C20.848,17.408 21.524,17.164 22.076,16.676 C22.628,16.188 22.904,15.56 22.904,14.792 C22.904,13.88 22.352,13.112 21.248,12.488 L21.248,12.488 L20.096,11.864 C19.536,11.56 19.152,11.308 18.944,11.108 C18.736,10.908 18.632,10.672 18.632,10.4 C18.632,10.096 18.736,9.848 18.944,9.656 C19.152,9.464 19.456,9.368 19.856,9.368 C20.432,9.368 20.9,9.572 21.26,9.98 C21.62,10.388 21.8,10.856 21.8,11.384 L21.8,11.384 L22.304,11.384 L22.304,8.6 L21.8,8.6 C21.8,8.92 21.764,9.1 21.692,9.14 C21.62,9.18 21.488,9.144 21.296,9.032 C20.72,8.744 20.16,8.6 19.616,8.6 C18.976,8.6 18.412,8.808 17.924,9.224 C17.436,9.64 17.192,10.16 17.192,10.784 C17.192,11.808 17.72,12.608 18.776,13.184 L18.776,13.184 L20.12,13.904 C21.016,14.384 21.464,14.872 21.464,15.368 C21.464,15.704 21.332,15.992 21.068,16.232 C20.804,16.472 20.48,16.592 20.096,16.592 C19.312,16.592 18.68,16.3 18.2,15.716 C17.72,15.132 17.48,14.528 17.48,13.904 L17.48,13.904 L16.976,13.904 L16.976,17.408 L17.48,17.408 Z" id="Vs"></path>
                </g>
            </g>
            <polyline id="Path-5" stroke="#524740" stroke-width="2" points="187 52 187 0 305 0 305 11"></polyline>
            <circle id="Oval-2-Copy-14" stroke="#524740" stroke-width="2" cx="376" cy="92" r="4"></circle>
            <circle id="Oval-2-Copy-19" stroke="#524740" stroke-width="2" fill="#524740" cx="305" cy="92" r="4"></circle>
            <circle id="Oval-2-Copy-16" stroke="#524740" stroke-width="2" cx="376" cy="184" r="4"></circle>
            <line x1="376" y1="103" x2="376" y2="121" id="Path-14" stroke="#23ABE3"></line>
            <polygon id="Triangle" fill="#23ABE3" points="376 97 379 103 373 103"></polygon>
            <line x1="376" y1="154" x2="376" y2="173" id="Path-14-Copy" stroke="#23ABE3"></line>
            <polygon id="Triangle-Copy" fill="#23ABE3" points="376 179 373 173 379 173"></polygon>
            <polyline id="Path-15" stroke="#524740" stroke-width="2" points="187 132 187 184 305 184 305 173"></polyline>
            <line x1="305" y1="81" x2="305" y2="103" id="Path-17" stroke="#524740" stroke-width="2"></line>
            <line x1="305" y1="92" x2="371" y2="92" id="Path-18" stroke="#524740" stroke-width="2"></line>
            <line x1="305" y1="184" x2="371" y2="184" id="Path-20" stroke="#524740" stroke-width="2"></line>
        </g>
    </g>
</svg>