<?xml version="1.0" encoding="UTF-8"?>
<svg width="900px" height="280px" viewBox="0 0 900 280" version="1.1" xmlns="http://www.w3.org/2000/svg" xmlns:xlink="http://www.w3.org/1999/xlink">
    <!-- Generator: Sketch 60.1 (88133) - https://sketch.com -->
    <title>VoltageLaw_Calculation_Circuit</title>
    <desc>Created with Sketch.</desc>
    <g id="VoltageLaw_Calculation_Circuit" stroke="none" stroke-width="1" fill="none" fill-rule="evenodd">
        <g id="Illustration_Frame">
            <rect id="Rectangle" stroke="#3D3530" stroke-width="2" fill="#EEEEEE" x="1" y="1" width="898" height="278"></rect>
            <rect id="Rectangle-Copy" stroke="#3D3530" stroke-width="2" fill="#F8FAE4" x="1" y="236" width="898" height="43"></rect>
            <path d="M418.087999,265 C420.727999,265 422.835999,264.228 424.411999,262.684 C425.987999,261.14 426.775999,259.224 426.775999,256.936 C426.775999,254.632 425.991999,252.712 424.423999,251.176 C422.855999,249.64 420.743999,248.872 418.087999,248.872 L418.087999,248.872 L414.439999,248.872 L414.439999,265 L418.087999,265 Z M418.087999,263.488 L416.023999,263.488 L416.023999,250.384 L418.087999,250.384 C420.199999,250.384 421.887999,251.004 423.151999,252.244 C424.415999,253.484 425.047999,255.048 425.047999,256.936 C425.047999,258.824 424.415999,260.388 423.151999,261.628 C421.887999,262.868 420.199999,263.488 418.087999,263.488 L418.087999,263.488 Z M435.242665,265.072 C436.714665,265.088 437.982665,264.672 439.046665,263.824 C440.110665,262.976 440.826665,262.048 441.194665,261.04 L441.194665,261.04 L439.850665,260.56 C439.546665,261.376 438.970665,262.088 438.122665,262.696 C437.274665,263.304 436.314665,263.608 435.242665,263.608 C434.250665,263.624 433.346665,263.324 432.530665,262.708 C431.714665,262.092 431.170665,261.304 430.898665,260.344 L430.898665,260.344 L441.386665,258.448 C441.386665,258.32 441.378665,258.216 441.362665,258.136 C441.186665,256.6 440.514665,255.312 439.346665,254.272 C438.178665,253.232 436.810665,252.704 435.242665,252.688 C433.514665,252.704 432.050665,253.312 430.850665,254.512 C429.650665,255.712 429.050665,257.176 429.050665,258.904 C429.050665,259.528 429.130665,260.104 429.290665,260.632 C429.690665,261.928 430.446665,262.992 431.558665,263.824 C432.670665,264.656 433.898665,265.072 435.242665,265.072 Z M430.658665,259.048 C430.658665,258.968 430.654665,258.868 430.646665,258.748 C430.638665,258.628 430.634665,258.544 430.634665,258.496 C430.698665,257.312 431.158665,256.296 432.014665,255.448 C432.870665,254.6 433.898665,254.168 435.098665,254.152 C436.122665,254.136 437.050665,254.436 437.882665,255.052 C438.714665,255.668 439.282665,256.464 439.586665,257.44 L439.586665,257.44 L430.658665,259.048 Z M445.893332,265 L445.893332,257.968 C445.893332,256.928 446.237332,256.052 446.925332,255.34 C447.613332,254.628 448.461332,254.272 449.469332,254.272 C450.157332,254.272 450.837332,254.52 451.509332,255.016 L451.509332,255.016 L452.061332,253.432 C451.357332,253.016 450.581332,252.808 449.733332,252.808 C448.149332,252.808 446.869332,253.464 445.893332,254.776 L445.893332,254.776 L445.893332,253 L444.309332,253 L444.309332,265 L445.893332,265 Z M455.823999,249.688 C456.095999,249.688 456.319999,249.592 456.495999,249.4 C456.687999,249.208 456.783999,248.984 456.783999,248.728 C456.783999,248.472 456.691999,248.248 456.507999,248.056 C456.323999,247.864 456.095999,247.768 455.823999,247.768 C455.551999,247.768 455.323999,247.864 455.139999,248.056 C454.955999,248.248 454.863999,248.472 454.863999,248.728 C454.863999,248.984 454.955999,249.208 455.139999,249.4 C455.323999,249.592 455.551999,249.688 455.823999,249.688 Z M456.615999,265 L456.615999,253 L455.031999,253 L455.031999,265 L456.615999,265 Z M465.706665,265 L469.954665,253 L468.370665,253 L464.914665,262.768 L461.482665,253 L459.898665,253 L464.122665,265 L465.706665,265 Z M473.765332,249.688 C474.037332,249.688 474.261332,249.592 474.437332,249.4 C474.629332,249.208 474.725332,248.984 474.725332,248.728 C474.725332,248.472 474.633332,248.248 474.449332,248.056 C474.265332,247.864 474.037332,247.768 473.765332,247.768 C473.493332,247.768 473.265332,247.864 473.081332,248.056 C472.897332,248.248 472.805332,248.472 472.805332,248.728 C472.805332,248.984 472.897332,249.208 473.081332,249.4 C473.265332,249.592 473.493332,249.688 473.765332,249.688 Z M474.557332,265 L474.557332,253 L472.973332,253 L472.973332,265 L474.557332,265 Z M480.479999,265 L480.479999,257.968 C480.479999,256.944 480.827999,256.072 481.523999,255.352 C482.219999,254.632 483.063999,254.272 484.055999,254.272 C485.047999,254.272 485.891999,254.632 486.587999,255.352 C487.283999,256.072 487.631999,256.944 487.631999,257.968 L487.631999,257.968 L487.631999,265 L489.239999,265 L489.239999,257.92 C489.239999,256.48 488.767999,255.268 487.823999,254.284 C486.879999,253.3 485.711999,252.808 484.319999,252.808 C482.735999,252.808 481.455999,253.464 480.479999,254.776 L480.479999,254.776 L480.479999,253 L478.895999,253 L478.895999,265 L480.479999,265 Z M498.594666,270.112 C500.226666,270.112 501.662666,269.524 502.902666,268.348 C504.142666,267.172 504.770666,265.712 504.786666,263.968 L504.786666,263.968 L504.786666,253.024 L503.178666,253.024 L503.178666,254.968 C501.946666,253.544 500.386666,252.832 498.498666,252.832 C496.786666,252.832 495.326666,253.436 494.118666,254.644 C492.910666,255.852 492.306666,257.312 492.306666,259.024 C492.306666,260.736 492.910666,262.196 494.118666,263.404 C495.326666,264.612 496.786666,265.216 498.498666,265.216 C500.402666,265.216 501.962666,264.504 503.178666,263.08 L503.178666,263.08 L503.178666,263.968 L503.202666,263.968 C503.186666,265.216 502.734666,266.308 501.846666,267.244 C500.958666,268.18 499.874666,268.648 498.594666,268.648 C497.506666,268.648 496.538666,268.344 495.690666,267.736 C494.842666,267.128 494.266666,266.416 493.962666,265.6 L493.962666,265.6 L492.666666,266.248 C493.034666,267.24 493.742666,268.132 494.790666,268.924 C495.838666,269.716 497.106666,270.112 498.594666,270.112 Z M498.522666,263.728 C497.242666,263.728 496.154666,263.276 495.258666,262.372 C494.362666,261.468 493.914666,260.36 493.914666,259.048 C493.914666,257.736 494.362666,256.628 495.258666,255.724 C496.154666,254.82 497.242666,254.368 498.522666,254.368 C499.818666,254.368 500.910666,254.82 501.798666,255.724 C502.686666,256.628 503.130666,257.736 503.130666,259.048 C503.130666,260.36 502.686666,261.468 501.798666,262.372 C500.910666,263.276 499.818666,263.728 498.522666,263.728 Z M517.711999,265 L517.711999,260.632 L520.255999,257.488 L525.295999,265 L527.095999,265 L521.239999,256.288 L527.263999,248.872 L525.367999,248.872 L517.711999,258.304 L517.711999,248.872 L516.127999,248.872 L516.127999,265 L517.711999,265 Z M532.394666,249.688 C532.666666,249.688 532.890666,249.592 533.066666,249.4 C533.258666,249.208 533.354666,248.984 533.354666,248.728 C533.354666,248.472 533.262666,248.248 533.078666,248.056 C532.894666,247.864 532.666666,247.768 532.394666,247.768 C532.122666,247.768 531.894666,247.864 531.710666,248.056 C531.526666,248.248 531.434666,248.472 531.434666,248.728 C531.434666,248.984 531.526666,249.208 531.710666,249.4 C531.894666,249.592 532.122666,249.688 532.394666,249.688 Z M533.186666,265 L533.186666,253 L531.602666,253 L531.602666,265 L533.186666,265 Z M539.109332,265 L539.109332,257.968 C539.109332,256.928 539.453332,256.052 540.141332,255.34 C540.829332,254.628 541.677332,254.272 542.685332,254.272 C543.373332,254.272 544.053332,254.52 544.725332,255.016 L544.725332,255.016 L545.277332,253.432 C544.573332,253.016 543.797332,252.808 542.949332,252.808 C541.365332,252.808 540.085332,253.464 539.109332,254.776 L539.109332,254.776 L539.109332,253 L537.525332,253 L537.525332,265 L539.109332,265 Z M552.591999,265.192 C553.679999,265.192 554.691999,264.924 555.627999,264.388 C556.563999,263.852 557.303999,263.136 557.847999,262.24 L557.847999,262.24 L556.407999,261.544 C555.975999,262.2 555.423999,262.72 554.751999,263.104 C554.079999,263.488 553.359999,263.68 552.591999,263.68 C551.295999,263.68 550.203999,263.228 549.315999,262.324 C548.427999,261.42 547.983999,260.312 547.983999,259 C547.983999,257.688 548.427999,256.58 549.315999,255.676 C550.203999,254.772 551.295999,254.32 552.591999,254.32 C553.359999,254.32 554.079999,254.512 554.751999,254.896 C555.423999,255.28 555.975999,255.8 556.407999,256.456 L556.407999,256.456 L557.847999,255.76 C557.303999,254.864 556.563999,254.148 555.627999,253.612 C554.691999,253.076 553.679999,252.808 552.591999,252.808 C550.879999,252.808 549.419999,253.412 548.211999,254.62 C547.003999,255.828 546.399999,257.288 546.399999,259 C546.399999,260.712 547.003999,262.172 548.211999,263.38 C549.419999,264.588 550.879999,265.192 552.591999,265.192 Z M562.906666,265 L562.906666,257.968 C562.906666,256.944 563.254666,256.076 563.950666,255.364 C564.646666,254.652 565.490666,254.296 566.482666,254.296 C567.490666,254.296 568.338666,254.652 569.026666,255.364 C569.714666,256.076 570.058666,256.952 570.058666,257.992 L570.058666,257.992 L570.058666,265 L571.666666,265 L571.666666,257.968 C571.666666,256.528 571.194666,255.308 570.250666,254.308 C569.306666,253.308 568.138666,252.808 566.746666,252.808 C565.162666,252.808 563.882666,253.464 562.906666,254.776 L562.906666,254.776 L562.906666,247.144 L561.322666,247.144 L561.322666,265 L562.906666,265 Z M577.109332,265 L577.109332,257.968 C577.109332,256.944 577.457332,256.076 578.153332,255.364 C578.849332,254.652 579.693332,254.296 580.685332,254.296 C581.693332,254.296 582.541332,254.652 583.229332,255.364 C583.917332,256.076 584.261332,256.952 584.261332,257.992 L584.261332,257.992 L584.261332,265 L585.869332,265 L585.869332,257.968 C585.869332,256.528 585.397332,255.308 584.453332,254.308 C583.509332,253.308 582.341332,252.808 580.949332,252.808 C579.365332,252.808 578.085332,253.464 577.109332,254.776 L577.109332,254.776 L577.109332,247.144 L575.525332,247.144 L575.525332,265 L577.109332,265 Z M594.983999,265.192 C596.695999,265.192 598.151999,264.584 599.351999,263.368 C600.567999,262.152 601.175999,260.696 601.175999,259 C601.175999,257.288 600.571999,255.828 599.363999,254.62 C598.155999,253.412 596.695999,252.808 594.983999,252.808 C593.271999,252.808 591.811999,253.412 590.603999,254.62 C589.395999,255.828 588.791999,257.288 588.791999,259 C588.791999,260.712 589.395999,262.172 590.603999,263.38 C591.811999,264.588 593.271999,265.192 594.983999,265.192 Z M595.007999,263.68 C593.727999,263.68 592.639999,263.228 591.743999,262.324 C590.847999,261.42 590.399999,260.312 590.399999,259 C590.399999,257.688 590.847999,256.576 591.743999,255.664 C592.639999,254.752 593.727999,254.296 595.007999,254.296 C596.303999,254.296 597.395999,254.752 598.283999,255.664 C599.171999,256.576 599.615999,257.688 599.615999,259 C599.615999,260.312 599.171999,261.42 598.283999,262.324 C597.395999,263.228 596.303999,263.68 595.007999,263.68 Z M606.498666,265 L606.498666,254.272 L608.850666,254.272 L608.850666,252.952 L606.498666,252.952 L606.498666,250.048 C606.498666,249.392 606.554666,248.948 606.666666,248.716 C606.778666,248.484 607.010666,248.368 607.362666,248.368 C607.682666,248.368 608.002666,248.408 608.322666,248.488 L608.322666,248.488 L608.658666,247.264 L608.442666,247.192 C608.298666,247.144 608.078666,247.096 607.782666,247.048 C607.486666,247 607.194666,246.976 606.906666,246.976 C605.594666,246.976 604.938666,247.808 604.938666,249.472 L604.938666,249.472 L604.938666,252.952 L603.522666,252.952 L603.522666,254.272 L604.938666,254.272 L604.938666,265 L606.498666,265 Z M614.365333,265 L614.365333,254.272 L616.717333,254.272 L616.717333,252.952 L614.365333,252.952 L614.365333,250.048 C614.365333,249.392 614.421333,248.948 614.533333,248.716 C614.645333,248.484 614.877333,248.368 615.229333,248.368 C615.549333,248.368 615.869333,248.408 616.189333,248.488 L616.189333,248.488 L616.525333,247.264 L616.309333,247.192 C616.165333,247.144 615.945333,247.096 615.649333,247.048 C615.353333,247 615.061333,246.976 614.773333,246.976 C613.461333,246.976 612.805333,247.808 612.805333,249.472 L612.805333,249.472 L612.805333,252.952 L611.389333,252.952 L611.389333,254.272 L612.805333,254.272 L612.805333,265 L614.365333,265 Z M620.191999,253.504 L620.431999,250.12 L619.015999,250.12 L619.279999,253.504 L620.191999,253.504 Z M626.810666,265.192 C628.282666,265.192 629.386666,264.88 630.122666,264.256 C630.858666,263.632 631.226666,262.816 631.226666,261.808 C631.226666,261.088 630.962666,260.476 630.434666,259.972 C629.906666,259.468 629.262666,259.084 628.502666,258.82 C627.742666,258.556 626.986666,258.312 626.234666,258.088 C625.482666,257.864 624.842666,257.596 624.314666,257.284 C623.786666,256.972 623.522666,256.6 623.522666,256.168 C623.522666,255.56 623.790666,255.088 624.326666,254.752 C624.862666,254.416 625.562666,254.248 626.426666,254.248 C627.034666,254.248 627.642666,254.384 628.250666,254.656 C628.858666,254.928 629.262666,255.144 629.462666,255.304 C629.662666,255.464 629.818666,255.6 629.930666,255.712 L629.930666,255.712 L631.058666,254.728 L630.554666,254.248 C630.218666,253.928 629.666666,253.608 628.898666,253.288 C628.130666,252.968 627.314666,252.808 626.450666,252.808 C624.994666,252.808 623.894666,253.124 623.150666,253.756 C622.406666,254.388 622.034666,255.2 622.034666,256.192 C622.034666,256.912 622.298666,257.52 622.826666,258.016 C623.354666,258.512 623.998666,258.896 624.758666,259.168 C625.518666,259.44 626.274666,259.688 627.026666,259.912 C627.778666,260.136 628.418666,260.404 628.946666,260.716 C629.474666,261.028 629.738666,261.4 629.738666,261.832 C629.738666,262.44 629.474666,262.912 628.946666,263.248 C628.418666,263.584 627.714666,263.752 626.834666,263.752 C626.242666,263.752 625.642666,263.616 625.034666,263.344 C624.426666,263.072 624.022666,262.856 623.822666,262.696 C623.622666,262.536 623.466666,262.4 623.354666,262.288 L623.354666,262.288 L622.226666,263.248 L622.418666,263.464 C622.546666,263.592 622.746666,263.752 623.018666,263.944 C623.290666,264.136 623.598666,264.324 623.942666,264.508 C624.286666,264.692 624.714666,264.852 625.226666,264.988 C625.738666,265.124 626.266666,265.192 626.810666,265.192 Z M650.727999,265 L650.727999,263.416 L643.383999,263.416 L643.383999,248.872 L641.799999,248.872 L641.799999,265 L650.727999,265 Z M658.690666,265.192 C660.578666,265.192 662.138666,264.48 663.370666,263.056 L663.370666,263.056 L663.370666,265 L664.954666,265 L664.954666,253 L663.370666,253 L663.370666,254.944 C662.154666,253.52 660.594666,252.808 658.690666,252.808 C656.978666,252.808 655.518666,253.412 654.310666,254.62 C653.102666,255.828 652.498666,257.288 652.498666,259 C652.498666,260.712 653.102666,262.172 654.310666,263.38 C655.518666,264.588 656.978666,265.192 658.690666,265.192 Z M658.714666,263.68 C657.434666,263.68 656.342666,263.228 655.438666,262.324 C654.534666,261.42 654.082666,260.312 654.082666,259 C654.082666,257.688 654.534666,256.58 655.438666,255.676 C656.342666,254.772 657.434666,254.32 658.714666,254.32 C660.010666,254.32 661.102666,254.772 661.990666,255.676 C662.878666,256.58 663.322666,257.688 663.322666,259 C663.322666,260.312 662.878666,261.42 661.990666,262.324 C661.102666,263.228 660.010666,263.68 658.714666,263.68 Z M673.229333,265 L676.613333,255.112 L679.997333,265 L681.581333,265 L685.829333,253 L684.245333,253 L680.789333,262.768 L677.333333,253 L675.893333,253 L672.437333,262.768 L669.005333,253 L667.421333,253 L671.645333,265 L673.229333,265 Z M698.274666,265 L698.274666,254.272 L700.626666,254.272 L700.626666,252.952 L698.274666,252.952 L698.274666,250.048 C698.274666,249.392 698.330666,248.948 698.442666,248.716 C698.554666,248.484 698.786666,248.368 699.138666,248.368 C699.458666,248.368 699.778666,248.408 700.098666,248.488 L700.098666,248.488 L700.434666,247.264 L700.218666,247.192 C700.074666,247.144 699.854666,247.096 699.558666,247.048 C699.262666,247 698.970666,246.976 698.682666,246.976 C697.370666,246.976 696.714666,247.808 696.714666,249.472 L696.714666,249.472 L696.714666,252.952 L695.298666,252.952 L695.298666,254.272 L696.714666,254.272 L696.714666,265 L698.274666,265 Z M705.109333,265 L705.109333,257.968 C705.109333,256.928 705.453333,256.052 706.141333,255.34 C706.829333,254.628 707.677333,254.272 708.685333,254.272 C709.373333,254.272 710.053333,254.52 710.725333,255.016 L710.725333,255.016 L711.277333,253.432 C710.573333,253.016 709.797333,252.808 708.949333,252.808 C707.365333,252.808 706.085333,253.464 705.109333,254.776 L705.109333,254.776 L705.109333,253 L703.525333,253 L703.525333,265 L705.109333,265 Z M718.592,265.192 C720.304,265.192 721.76,264.584 722.96,263.368 C724.176,262.152 724.784,260.696 724.784,259 C724.784,257.288 724.18,255.828 722.972,254.62 C721.764,253.412 720.304,252.808 718.592,252.808 C716.88,252.808 715.42,253.412 714.212,254.62 C713.004,255.828 712.4,257.288 712.4,259 C712.4,260.712 713.004,262.172 714.212,263.38 C715.42,264.588 716.88,265.192 718.592,265.192 Z M718.616,263.68 C717.336,263.68 716.248,263.228 715.352,262.324 C714.456,261.42 714.008,260.312 714.008,259 C714.008,257.688 714.456,256.576 715.352,255.664 C716.248,254.752 717.336,254.296 718.616,254.296 C719.912,254.296 721.004,254.752 721.892,255.664 C722.78,256.576 723.224,257.688 723.224,259 C723.224,260.312 722.78,261.42 721.892,262.324 C721.004,263.228 719.912,263.68 718.616,263.68 Z M729.410666,265 L729.410666,257.968 C729.410666,256.944 729.758666,256.072 730.454666,255.352 C731.150666,254.632 731.994666,254.272 732.986666,254.272 C733.978666,254.272 734.822666,254.632 735.518666,255.352 C736.214666,256.072 736.562666,256.944 736.562666,257.968 L736.562666,257.968 L736.562666,265 L738.170666,265 L738.170666,257.968 C738.170666,256.928 738.514666,256.052 739.202666,255.34 C739.890666,254.628 740.738666,254.272 741.746666,254.272 C742.754666,254.272 743.598666,254.628 744.278666,255.34 C744.958666,256.052 745.298666,256.928 745.298666,257.968 L745.298666,257.968 L745.298666,265 L746.930666,265 L746.930666,257.92 C746.930666,256.48 746.458666,255.268 745.514666,254.284 C744.570666,253.3 743.402666,252.808 742.010666,252.808 C741.018666,252.808 740.130666,253.04 739.346666,253.504 C738.562666,253.968 737.962666,254.592 737.546666,255.376 C737.114666,254.592 736.518666,253.968 735.758666,253.504 C734.998666,253.04 734.162666,252.808 733.250666,252.808 C731.666666,252.808 730.386666,253.464 729.410666,254.776 L729.410666,254.776 L729.410666,253 L727.826666,253 L727.826666,265 L729.410666,265 Z M765.208,265.192 C767.576,265.192 769.456,264.408 770.848,262.84 C772.24,261.272 772.936,259.312 772.936,256.96 C772.936,254.608 772.24,252.644 770.848,251.068 C769.456,249.492 767.576,248.704 765.208,248.704 C762.84,248.704 760.956,249.492 759.556,251.068 C758.156,252.644 757.456,254.608 757.456,256.96 C757.456,259.312 758.156,261.272 759.556,262.84 C760.956,264.408 762.84,265.192 765.208,265.192 Z M765.208,263.704 C763.384,263.704 761.92,263.064 760.816,261.784 C759.712,260.504 759.16,258.896 759.16,256.96 C759.16,255.024 759.712,253.416 760.816,252.136 C761.92,250.856 763.384,250.216 765.208,250.216 C767.032,250.216 768.5,250.856 769.612,252.136 C770.724,253.416 771.28,255.024 771.28,256.96 C771.28,258.88 770.724,260.484 769.612,261.772 C768.5,263.06 767.032,263.704 765.208,263.704 Z M777.754666,265 L777.754666,257.968 C777.754666,256.944 778.102666,256.076 778.798666,255.364 C779.494666,254.652 780.338666,254.296 781.330666,254.296 C782.338666,254.296 783.186666,254.652 783.874666,255.364 C784.562666,256.076 784.906666,256.952 784.906666,257.992 L784.906666,257.992 L784.906666,265 L786.514666,265 L786.514666,257.968 C786.514666,256.528 786.042666,255.308 785.098666,254.308 C784.154666,253.308 782.986666,252.808 781.594666,252.808 C780.010666,252.808 778.730666,253.464 777.754666,254.776 L777.754666,254.776 L777.754666,247.144 L776.170666,247.144 L776.170666,265 L777.754666,265 Z M791.813333,265 L791.813333,257.968 C791.813333,256.944 792.161333,256.072 792.857333,255.352 C793.553333,254.632 794.397333,254.272 795.389333,254.272 C796.381333,254.272 797.225333,254.632 797.921333,255.352 C798.617333,256.072 798.965333,256.944 798.965333,257.968 L798.965333,257.968 L798.965333,265 L800.573333,265 L800.573333,257.968 C800.573333,256.928 800.917333,256.052 801.605333,255.34 C802.293333,254.628 803.141333,254.272 804.149333,254.272 C805.157333,254.272 806.001333,254.628 806.681333,255.34 C807.361333,256.052 807.701333,256.928 807.701333,257.968 L807.701333,257.968 L807.701333,265 L809.333333,265 L809.333333,257.92 C809.333333,256.48 808.861333,255.268 807.917333,254.284 C806.973333,253.3 805.805333,252.808 804.413333,252.808 C803.421333,252.808 802.533333,253.04 801.749333,253.504 C800.965333,253.968 800.365333,254.592 799.949333,255.376 C799.517333,254.592 798.921333,253.968 798.161333,253.504 C797.401333,253.04 796.565333,252.808 795.653333,252.808 C794.069333,252.808 792.789333,253.464 791.813333,254.776 L791.813333,254.776 L791.813333,253 L790.229333,253 L790.229333,265 L791.813333,265 Z M812.952,253.504 L813.192,250.12 L811.776,250.12 L812.04,253.504 L812.952,253.504 Z M819.570667,265.192 C821.042666,265.192 822.146667,264.88 822.882666,264.256 C823.618667,263.632 823.986666,262.816 823.986666,261.808 C823.986666,261.088 823.722667,260.476 823.194667,259.972 C822.666667,259.468 822.022667,259.084 821.262667,258.82 C820.502667,258.556 819.746666,258.312 818.994666,258.088 C818.242667,257.864 817.602666,257.596 817.074666,257.284 C816.546666,256.972 816.282667,256.6 816.282667,256.168 C816.282667,255.56 816.550667,255.088 817.086666,254.752 C817.622666,254.416 818.322666,254.248 819.186667,254.248 C819.794666,254.248 820.402667,254.384 821.010666,254.656 C821.618667,254.928 822.022667,255.144 822.222666,255.304 C822.422666,255.464 822.578667,255.6 822.690666,255.712 L822.690666,255.712 L823.818666,254.728 L823.314666,254.248 C822.978666,253.928 822.426667,253.608 821.658666,253.288 C820.890666,252.968 820.074666,252.808 819.210666,252.808 C817.754666,252.808 816.654666,253.124 815.910666,253.756 C815.166667,254.388 814.794666,255.2 814.794666,256.192 C814.794666,256.912 815.058666,257.52 815.586666,258.016 C816.114666,258.512 816.758667,258.896 817.518666,259.168 C818.278666,259.44 819.034666,259.688 819.786666,259.912 C820.538666,260.136 821.178666,260.404 821.706666,260.716 C822.234667,261.028 822.498666,261.4 822.498666,261.832 C822.498666,262.44 822.234667,262.912 821.706666,263.248 C821.178666,263.584 820.474667,263.752 819.594666,263.752 C819.002667,263.752 818.402666,263.616 817.794666,263.344 C817.186667,263.072 816.782667,262.856 816.582666,262.696 C816.382666,262.536 816.226666,262.4 816.114666,262.288 L816.114666,262.288 L814.986666,263.248 L815.178666,263.464 C815.306666,263.592 815.506666,263.752 815.778666,263.944 C816.050667,264.136 816.358667,264.324 816.702666,264.508 C817.046666,264.692 817.474667,264.852 817.986666,264.988 C818.498666,265.124 819.026666,265.192 819.570667,265.192 Z M843.488,265 L843.488,263.416 L836.144,263.416 L836.144,248.872 L834.56,248.872 L834.56,265 L843.488,265 Z M851.450667,265.192 C853.338667,265.192 854.898667,264.48 856.130667,263.056 L856.130667,263.056 L856.130667,265 L857.714667,265 L857.714667,253 L856.130667,253 L856.130667,254.944 C854.914667,253.52 853.354667,252.808 851.450667,252.808 C849.738667,252.808 848.278667,253.412 847.070667,254.62 C845.862667,255.828 845.258667,257.288 845.258667,259 C845.258667,260.712 845.862667,262.172 847.070667,263.38 C848.278667,264.588 849.738667,265.192 851.450667,265.192 Z M851.474667,263.68 C850.194667,263.68 849.102667,263.228 848.198667,262.324 C847.294667,261.42 846.842667,260.312 846.842667,259 C846.842667,257.688 847.294667,256.58 848.198667,255.676 C849.102667,254.772 850.194667,254.32 851.474667,254.32 C852.770667,254.32 853.862667,254.772 854.750667,255.676 C855.638667,256.58 856.082667,257.688 856.082667,259 C856.082667,260.312 855.638667,261.42 854.750667,262.324 C853.862667,263.228 852.770667,263.68 851.474667,263.68 Z M865.989333,265 L869.373333,255.112 L872.757333,265 L874.341333,265 L878.589333,253 L877.005333,253 L873.549333,262.768 L870.093333,253 L868.653333,253 L865.197333,262.768 L861.765333,253 L860.181333,253 L864.405333,265 L865.989333,265 Z" id="DerivingKirchhoff'sLawfromOhm'sLaw" fill="#23ABE3" fill-rule="nonzero"></path>
        </g>
        <g transform="translate(247.000000, 16.000000)">
            <polyline id="Path-2" stroke="#524740" stroke-width="2" points="348 49 406 49 406 161 263 161"></polyline>
            <polyline id="Path-2-Copy-2" stroke="#524740" stroke-width="2" transform="translate(69.000000, 57.000000) scale(-1, 1) translate(-69.000000, -57.000000) " points="40 49 98 49 98 65"></polyline>
            <g id="Ammeter-Copy" transform="translate(183.000000, 121.000000)">
                <circle id="Oval" stroke="#524740" stroke-width="2" cx="40" cy="40" r="39"></circle>
                <path d="M18.184,47.408 C19.72,47.408 21.036,46.86 22.132,45.764 C23.228,44.668 23.776,43.344 23.776,41.792 C23.776,40.256 23.228,38.94 22.132,37.844 C21.036,36.748 19.72,36.2 18.184,36.2 C16.648,36.2 15.328,36.752 14.224,37.856 C13.136,38.944 12.592,40.256 12.592,41.792 C12.592,43.344 13.14,44.668 14.236,45.764 C15.332,46.86 16.648,47.408 18.184,47.408 Z M18.184,46.016 C17.064,46.016 16.108,45.604 15.316,44.78 C14.524,43.956 14.128,42.96 14.128,41.792 C14.128,40.64 14.524,39.648 15.316,38.816 C16.108,37.984 17.064,37.568 18.184,37.568 C19.288,37.568 20.24,37.984 21.04,38.816 C21.84,39.648 22.24,40.64 22.24,41.792 C22.24,42.96 21.84,43.956 21.04,44.78 C20.24,45.604 19.288,46.016 18.184,46.016 Z M28.984,47.192 C29.352,47.192 29.672,47.068 29.944,46.82 C30.216,46.572 30.352,46.28 30.352,45.944 C30.352,45.592 30.216,45.292 29.944,45.044 C29.672,44.796 29.352,44.672 28.984,44.672 C28.616,44.672 28.304,44.796 28.048,45.044 C27.792,45.292 27.664,45.592 27.664,45.944 C27.664,46.28 27.792,46.572 28.048,46.82 C28.304,47.068 28.616,47.192 28.984,47.192 Z M42.832,48.896 L43.432,45.608 L37.216,45.608 L40.912,42.776 L41.152,42.632 C41.296,42.52 41.476,42.356 41.692,42.14 C41.908,41.924 42.124,41.688 42.34,41.432 C42.556,41.176 42.74,40.864 42.892,40.496 C43.044,40.128 43.12,39.768 43.12,39.416 C43.12,38.456 42.664,37.68 41.752,37.088 C40.84,36.496 39.768,36.2 38.536,36.2 C37.208,36.2 36.144,36.524 35.344,37.172 C34.544,37.82 34.18,38.572 34.252,39.428 C34.324,40.284 34.824,40.992 35.752,41.552 L35.752,41.552 L36.472,40.808 C35.944,39.816 35.928,38.968 36.424,38.264 C36.92,37.56 37.624,37.208 38.536,37.208 C39.32,37.208 39.948,37.408 40.42,37.808 C40.892,38.208 41.128,38.752 41.128,39.44 C41.128,40.656 40.36,41.872 38.824,43.088 L38.824,43.088 L34.576,46.424 L34.576,47 L39.52,47 C40.72,47 41.488,47.116 41.824,47.348 C42.16,47.58 42.328,48.096 42.328,48.896 L42.328,48.896 L42.832,48.896 Z M50.752,51.488 C52.08,51.488 53.22,50.996 54.172,50.012 C55.124,49.028 55.6,47.848 55.6,46.472 C55.6,45.064 55.164,43.88 54.292,42.92 C53.42,41.96 52.312,41.48 50.968,41.48 C50.456,41.48 49.944,41.576 49.432,41.768 C48.92,41.96 48.536,42.216 48.28,42.536 L48.28,42.536 L48.64,38.288 L54.712,38.288 L55.312,34.784 L54.76,34.784 C54.584,35.504 54.336,35.988 54.016,36.236 C53.696,36.484 53.016,36.608 51.976,36.608 L51.976,36.608 L47.92,36.608 L47.176,44.84 L48.064,44.84 C48.304,43.272 49.2,42.488 50.752,42.488 C51.712,42.488 52.428,42.848 52.9,43.568 C53.372,44.288 53.608,45.256 53.608,46.472 C53.608,47.688 53.368,48.676 52.888,49.436 C52.408,50.196 51.696,50.576 50.752,50.576 C50.16,50.576 49.668,50.452 49.276,50.204 C48.884,49.956 48.624,49.688 48.496,49.4 C48.368,49.112 48.224,48.844 48.064,48.596 C47.904,48.348 47.72,48.224 47.512,48.224 C47.064,48.224 46.84,48.44 46.84,48.872 C46.84,49.432 47.204,50.008 47.932,50.6 C48.66,51.192 49.6,51.488 50.752,51.488 Z M61.816,47 L61.816,46.496 C60.824,46.496 60.188,46.356 59.908,46.076 C59.628,45.796 59.64,45.328 59.944,44.672 L59.944,44.672 L61.096,42.008 L66.904,42.008 L68.056,44.672 C68.344,45.328 68.352,45.796 68.08,46.076 C67.808,46.356 67.176,46.496 66.184,46.496 L66.184,46.496 L66.184,47 L72.832,47 L72.832,46.496 C72.32,46.496 71.928,46.476 71.656,46.436 C71.384,46.396 71.14,46.268 70.924,46.052 C70.708,45.836 70.556,45.64 70.468,45.464 C70.38,45.288 70.216,44.936 69.976,44.408 L69.976,44.408 L64.672,32.192 L64.36,32.192 L59.08,44.408 C58.84,44.936 58.676,45.288 58.588,45.464 C58.5,45.64 58.348,45.836 58.132,46.052 C57.916,46.268 57.668,46.396 57.388,46.436 C57.108,46.476 56.712,46.496 56.2,46.496 L56.2,46.496 L56.2,47 L61.816,47 Z M66.496,41.12 L61.48,41.12 L63.976,35.336 L66.496,41.12 Z" id="0.25A" fill="#524740" fill-rule="nonzero"></path>
            </g>
            <path d="M215.015078,19.408 C216.343078,19.408 217.483078,18.964 218.435078,18.076 C219.387078,17.188 219.863078,16.128 219.863078,14.896 C219.863078,13.664 219.387078,12.608 218.435078,11.728 C217.483078,10.848 216.343078,10.408 215.015078,10.408 C213.799078,10.408 212.847078,10.88 212.159078,11.824 C212.351078,7.2 213.527078,4.888 215.687078,4.888 C216.199078,4.888 216.643078,5.028 217.019078,5.308 C217.395078,5.588 217.699078,5.868 217.931078,6.148 C218.163078,6.428 218.375078,6.568 218.567078,6.568 C218.711078,6.568 218.855078,6.512 218.999078,6.4 C219.143078,6.288 219.215078,6.136 219.215078,5.944 C219.215078,5.528 218.863078,5.12 218.159078,4.72 C217.455078,4.32 216.631078,4.12 215.687078,4.12 C214.503078,4.12 213.483078,4.552 212.627078,5.416 C211.771078,6.28 211.147078,7.34 210.755078,8.596 C210.363078,9.852 210.167078,11.192 210.167078,12.616 C210.167078,13.688 210.279078,14.636 210.503078,15.46 C210.727078,16.284 211.007078,16.94 211.343078,17.428 C211.679078,17.916 212.075078,18.316 212.531078,18.628 C212.987078,18.94 213.415078,19.148 213.815078,19.252 C214.215078,19.356 214.615078,19.408 215.015078,19.408 Z M215.015078,18.448 C214.743078,18.448 214.471078,18.384 214.199078,18.256 C213.927078,18.128 213.631078,17.9 213.311078,17.572 C212.991078,17.244 212.723078,16.7 212.507078,15.94 C212.291078,15.18 212.167078,14.248 212.135078,13.144 C212.279078,12.632 212.619078,12.208 213.155078,11.872 C213.691078,11.536 214.311078,11.368 215.015078,11.368 C215.991078,11.368 216.711078,11.708 217.175078,12.388 C217.639078,13.068 217.871078,13.896 217.871078,14.872 C217.871078,15.88 217.639078,16.728 217.175078,17.416 C216.711078,18.104 215.991078,18.448 215.015078,18.448 Z M229.282422,19 L229.282422,17.1953125 C227.954297,16.296875 226.958203,15.2011719 226.294141,13.9082031 C225.630078,12.6152344 225.298047,11.1210938 225.298047,9.42578125 C225.298047,7.42578125 225.786328,5.859375 226.762891,4.7265625 C227.739453,3.59375 229.083203,3.02734375 230.794141,3.02734375 C232.512891,3.02734375 233.858594,3.59375 234.83125,4.7265625 C235.803906,5.859375 236.290234,7.421875 236.290234,9.4140625 C236.290234,11.1171875 235.958203,12.6171875 235.294141,13.9140625 C234.630078,15.2109375 233.637891,16.3046875 232.317578,17.1953125 L232.317578,17.1953125 L232.317578,19 L239.466016,19 L239.466016,17.1953125 L234.696484,17.1953125 C236.094922,16.1484375 237.14375,14.9628906 237.842969,13.6386719 C238.542188,12.3144531 238.891797,10.8515625 238.891797,9.25 C238.891797,6.8984375 238.133984,4.97265625 236.618359,3.47265625 C235.102734,1.97265625 233.161328,1.22265625 230.794141,1.22265625 C228.426953,1.22265625 226.485547,1.97460938 224.969922,3.47851562 C223.454297,4.98242188 222.696484,6.90625 222.696484,9.25 C222.696484,10.84375 223.046094,12.3027344 223.745313,13.6269531 C224.444531,14.9511719 225.493359,16.140625 226.891797,17.1953125 L226.891797,17.1953125 L222.122266,17.1953125 L222.122266,19 L229.282422,19 Z" id="6Ω" fill="#524740" fill-rule="nonzero"></path>
            <path d="M121.871078,19 L121.871078,18.496 C120.863078,18.496 120.227078,18.332 119.963078,18.004 C119.699078,17.676 119.567078,16.904 119.567078,15.688 L119.567078,15.688 L119.567078,11.896 C119.567078,10.68 119.699078,9.908 119.963078,9.58 C120.227078,9.252 120.863078,9.088 121.871078,9.088 L121.871078,9.088 L121.871078,8.608 L115.559078,8.608 L115.559078,9.088 C116.551078,9.088 117.183078,9.256 117.455078,9.592 C117.727078,9.928 117.863078,10.696 117.863078,11.896 L117.863078,11.896 L117.863078,15.688 C117.863078,16.888 117.727078,17.656 117.455078,17.992 C117.183078,18.328 116.551078,18.496 115.559078,18.496 L115.559078,18.496 L115.559078,19 L121.871078,19 Z M133.103078,20.896 L133.703078,17.608 L127.487078,17.608 L131.183078,14.776 L131.423078,14.632 C131.567078,14.52 131.747078,14.356 131.963078,14.14 C132.179078,13.924 132.395078,13.688 132.611078,13.432 C132.827078,13.176 133.011078,12.864 133.163078,12.496 C133.315078,12.128 133.391078,11.768 133.391078,11.416 C133.391078,10.456 132.935078,9.68 132.023078,9.088 C131.111078,8.496 130.039078,8.2 128.807078,8.2 C127.479078,8.2 126.415078,8.524 125.615078,9.172 C124.815078,9.82 124.451078,10.572 124.523078,11.428 C124.595078,12.284 125.095078,12.992 126.023078,13.552 L126.023078,13.552 L126.743078,12.808 C126.215078,11.816 126.199078,10.968 126.695078,10.264 C127.191078,9.56 127.895078,9.208 128.807078,9.208 C129.591078,9.208 130.219078,9.408 130.691078,9.808 C131.163078,10.208 131.399078,10.752 131.399078,11.44 C131.399078,12.656 130.631078,13.872 129.095078,15.088 L129.095078,15.088 L124.847078,18.424 L124.847078,19 L129.791078,19 C130.991078,19 131.759078,19.116 132.095078,19.348 C132.431078,19.58 132.599078,20.096 132.599078,20.896 L132.599078,20.896 L133.103078,20.896 Z M143.578422,19 L143.578422,17.1953125 C142.250297,16.296875 141.254203,15.2011719 140.590141,13.9082031 C139.926078,12.6152344 139.594047,11.1210938 139.594047,9.42578125 C139.594047,7.42578125 140.082328,5.859375 141.058891,4.7265625 C142.035453,3.59375 143.379203,3.02734375 145.090141,3.02734375 C146.808891,3.02734375 148.154594,3.59375 149.12725,4.7265625 C150.099906,5.859375 150.586234,7.421875 150.586234,9.4140625 C150.586234,11.1171875 150.254203,12.6171875 149.590141,13.9140625 C148.926078,15.2109375 147.933891,16.3046875 146.613578,17.1953125 L146.613578,17.1953125 L146.613578,19 L153.762016,19 L153.762016,17.1953125 L148.992484,17.1953125 C150.390922,16.1484375 151.43975,14.9628906 152.138969,13.6386719 C152.838188,12.3144531 153.187797,10.8515625 153.187797,9.25 C153.187797,6.8984375 152.429984,4.97265625 150.914359,3.47265625 C149.398734,1.97265625 147.457328,1.22265625 145.090141,1.22265625 C142.722953,1.22265625 140.781547,1.97460938 139.265922,3.47851562 C137.750297,4.98242188 136.992484,6.90625 136.992484,9.25 C136.992484,10.84375 137.342094,12.3027344 138.041313,13.6269531 C138.740531,14.9511719 139.789359,16.140625 141.187797,17.1953125 L141.187797,17.1953125 L136.418266,17.1953125 L136.418266,19 L143.578422,19 Z" id="12Ω" fill="#524740" fill-rule="nonzero"></path>
            <path d="M308.747078,20.896 L309.347078,17.608 L303.131078,17.608 L306.827078,14.776 L307.067078,14.632 C307.211078,14.52 307.391078,14.356 307.607078,14.14 C307.823078,13.924 308.039078,13.688 308.255078,13.432 C308.471078,13.176 308.655078,12.864 308.807078,12.496 C308.959078,12.128 309.035078,11.768 309.035078,11.416 C309.035078,10.456 308.579078,9.68 307.667078,9.088 C306.755078,8.496 305.683078,8.2 304.451078,8.2 C303.123078,8.2 302.059078,8.524 301.259078,9.172 C300.459078,9.82 300.095078,10.572 300.167078,11.428 C300.239078,12.284 300.739078,12.992 301.667078,13.552 L301.667078,13.552 L302.387078,12.808 C301.859078,11.816 301.843078,10.968 302.339078,10.264 C302.835078,9.56 303.539078,9.208 304.451078,9.208 C305.235078,9.208 305.863078,9.408 306.335078,9.808 C306.807078,10.208 307.043078,10.752 307.043078,11.44 C307.043078,12.656 306.275078,13.872 304.739078,15.088 L304.739078,15.088 L300.491078,18.424 L300.491078,19 L305.435078,19 C306.635078,19 307.403078,19.116 307.739078,19.348 C308.075078,19.58 308.243078,20.096 308.243078,20.896 L308.243078,20.896 L308.747078,20.896 Z M319.222422,19 L319.222422,17.1953125 C317.894297,16.296875 316.898203,15.2011719 316.234141,13.9082031 C315.570078,12.6152344 315.238047,11.1210938 315.238047,9.42578125 C315.238047,7.42578125 315.726328,5.859375 316.702891,4.7265625 C317.679453,3.59375 319.023203,3.02734375 320.734141,3.02734375 C322.452891,3.02734375 323.798594,3.59375 324.77125,4.7265625 C325.743906,5.859375 326.230234,7.421875 326.230234,9.4140625 C326.230234,11.1171875 325.898203,12.6171875 325.234141,13.9140625 C324.570078,15.2109375 323.577891,16.3046875 322.257578,17.1953125 L322.257578,17.1953125 L322.257578,19 L329.406016,19 L329.406016,17.1953125 L324.636484,17.1953125 C326.034922,16.1484375 327.08375,14.9628906 327.782969,13.6386719 C328.482188,12.3144531 328.831797,10.8515625 328.831797,9.25 C328.831797,6.8984375 328.073984,4.97265625 326.558359,3.47265625 C325.042734,1.97265625 323.101328,1.22265625 320.734141,1.22265625 C318.366953,1.22265625 316.425547,1.97460938 314.909922,3.47851562 C313.394297,4.98242188 312.636484,6.90625 312.636484,9.25 C312.636484,10.84375 312.986094,12.3027344 313.685313,13.6269531 C314.384531,14.9511719 315.433359,16.140625 316.831797,17.1953125 L316.831797,17.1953125 L312.062266,17.1953125 L312.062266,19 L319.222422,19 Z" id="2Ω" fill="#524740" fill-rule="nonzero"></path>
            <polyline id="Resistor" stroke="#524740" stroke-width="2" stroke-linejoin="bevel" points="188 49 193 49 198 36 208 62 218 36 228 62 238 36 248 62 253 49 258 49"></polyline>
            <polyline id="Resistor-Copy-3" stroke="#524740" stroke-width="2" stroke-linejoin="bevel" points="278 49 283 49 288 36 298 62 308 36 318 62 328 36 338 62 343 49 348 49"></polyline>
            <polyline id="Resistor-Copy-4" stroke="#524740" stroke-width="2" stroke-linejoin="bevel" points="98 49 103 49 108 36 118 62 128 36 138 62 148 36 158 62 163 49 168 49"></polyline>
            <g id="DC_Power" transform="translate(0.000000, 65.000000)">
                <circle id="Oval" stroke="#524740" stroke-width="2" cx="40" cy="40" r="39"></circle>
                <text id="+" font-family="Lato-Regular, Lato" font-size="18" font-weight="normal" letter-spacing="0.8999999" fill="#524740">
                    <tspan x="35.3300001" y="18">+</tspan>
                </text>
                <text id="-" font-family="Lato-Regular, Lato" font-size="18" font-weight="normal" letter-spacing="0.8999999" fill="#524740">
                    <tspan x="37.2065001" y="75.5">-</tspan>
                </text>
                <path d="M32.652,50.488 C33.98,50.488 35.12,49.996 36.072,49.012 C37.024,48.028 37.5,46.848 37.5,45.472 C37.5,44.064 37.064,42.88 36.192,41.92 C35.32,40.96 34.212,40.48 32.868,40.48 C32.356,40.48 31.844,40.576 31.332,40.768 C30.82,40.96 30.436,41.216 30.18,41.536 L30.18,41.536 L30.54,37.288 L36.612,37.288 L37.212,33.784 L36.66,33.784 C36.484,34.504 36.236,34.988 35.916,35.236 C35.596,35.484 34.916,35.608 33.876,35.608 L33.876,35.608 L29.82,35.608 L29.076,43.84 L29.964,43.84 C30.204,42.272 31.1,41.488 32.652,41.488 C33.612,41.488 34.328,41.848 34.8,42.568 C35.272,43.288 35.508,44.256 35.508,45.472 C35.508,46.688 35.268,47.676 34.788,48.436 C34.308,49.196 33.596,49.576 32.652,49.576 C32.06,49.576 31.568,49.452 31.176,49.204 C30.784,48.956 30.524,48.688 30.396,48.4 C30.268,48.112 30.124,47.844 29.964,47.596 C29.804,47.348 29.62,47.224 29.412,47.224 C28.964,47.224 28.74,47.44 28.74,47.872 C28.74,48.432 29.104,49.008 29.832,49.6 C30.56,50.192 31.5,50.488 32.652,50.488 Z M46.572,46.408 L51.852,34.192 C52.252,33.264 52.592,32.684 52.872,32.452 C53.152,32.22 53.764,32.104 54.708,32.104 L54.708,32.104 L54.708,31.6 L49.116,31.6 L49.116,32.104 C50.108,32.104 50.744,32.244 51.024,32.524 C51.304,32.804 51.292,33.272 50.988,33.928 L50.988,33.928 L46.956,43.264 L42.876,33.928 C42.572,33.272 42.56,32.804 42.84,32.524 C43.12,32.244 43.756,32.104 44.748,32.104 L44.748,32.104 L44.748,31.6 L38.1,31.6 L38.1,32.104 C39.044,32.104 39.656,32.22 39.936,32.452 C40.216,32.684 40.556,33.264 40.956,34.192 L40.956,34.192 L46.26,46.408 L46.572,46.408 Z" id="5V" fill="#524740" fill-rule="nonzero"></path>
            </g>
            <line x1="168" y1="49" x2="188" y2="49" id="Path-4" stroke="#524740" stroke-width="2"></line>
            <line x1="258" y1="49" x2="278" y2="49" id="Path-4-Copy" stroke="#524740" stroke-width="2"></line>
            <line x1="258" y1="49" x2="278" y2="49" id="Path-4-Copy-2" stroke="#524740" stroke-width="2"></line>
            <polyline id="Path-13" stroke="#524740" stroke-width="2" points="40 145 40 161 183 161"></polyline>
        </g>
    </g>
</svg>