<?xml version="1.0" encoding="UTF-8"?>
<svg width="236px" height="245px" viewBox="0 0 236 245" version="1.1" xmlns="http://www.w3.org/2000/svg" xmlns:xlink="http://www.w3.org/1999/xlink">
    <!-- Generator: Sketch 47.1 (45422) - http://www.bohemiancoding.com/sketch -->
    <title>Voltage_Divider_Third_Leg</title>
    <desc>Created with Sketch.</desc>
    <defs>
        <rect id="path-1" x="0" y="110" width="137" height="114"></rect>
        <circle id="path-2" cx="111" cy="120" r="5"></circle>
        <circle id="path-3" cx="31" cy="120" r="5"></circle>
        <circle id="path-4" cx="31" cy="212" r="5"></circle>
    </defs>
    <g id="Page-1" stroke="none" stroke-width="1" fill="none" fill-rule="evenodd">
        <g id="Desktop-HD" transform="translate(-2624.000000, -927.000000)">
            <g id="Voltage_Divider_Third_Leg" transform="translate(2624.000000, 922.000000)">
                <g id="Rectangle">
                    <use fill="#EEEEEE" fill-rule="evenodd" xlink:href="#path-1"></use>
                    <rect stroke="#979797" stroke-width="1" x="0.5" y="110.5" width="136" height="113"></rect>
                </g>
                <g id="Vout" transform="translate(93.000000, 142.000000)" font-weight="normal" font-family="Lato-Italic, Lato" letter-spacing="0.695049465" font-size="18" font-style="italic">
                    <text id="Load" fill="#23ABE3">
                        <tspan x="0.136901071" y="30">Load</tspan>
                    </text>
                    <text id="Parallel-Resistance" fill="#524740">
                        <tspan x="59" y="18">Parallel</tspan>
                        <tspan x="59" y="40">Resistance</tspan>
                    </text>
                </g>
                <g id="R1" transform="translate(18.000000, 39.000000)" stroke-width="2" stroke="#524740" stroke-linejoin="bevel">
                    <polyline id="Resistor" transform="translate(13.000000, 35.000000) rotate(90.000000) translate(-13.000000, -35.000000) " points="-22 35 -17 35 -12 22 -2 48 8 22 18 48 28 22 38 48 43 35 48 35"></polyline>
                </g>
                <g id="R1-Copy" transform="translate(18.000000, 131.000000)" stroke-width="2" stroke="#524740" stroke-linejoin="bevel">
                    <polyline id="Resistor" transform="translate(13.000000, 35.000000) rotate(-270.000000) translate(-13.000000, -35.000000) " points="-22 35 -17 35 -12 22 -2 48 8 22 18 48 28 22 38 48 43 35 48 35"></polyline>
                </g>
                <g id="R2" transform="translate(52.000000, 154.000000)" font-weight="normal" fill="#524740">
                    <text id="R" font-family="Lato-Italic, Lato" font-size="18" font-style="italic" letter-spacing="0.695049465">
                        <tspan x="0.400975268" y="18">R</tspan>
                    </text>
                    <text id="2" font-family="Lato-Regular, Lato" font-size="12" letter-spacing="0.46336633">
                        <tspan x="10.2883168" y="21">2</tspan>
                    </text>
                </g>
                <g id="R1" transform="translate(52.000000, 61.000000)" font-weight="normal" fill="#524740">
                    <text id="R" font-family="Lato-Italic, Lato" font-size="18" font-style="italic" letter-spacing="0.695049465">
                        <tspan x="0.400975268" y="18">R</tspan>
                    </text>
                    <text id="1" font-family="Lato-Regular, Lato" font-size="12" letter-spacing="0.46336633">
                        <tspan x="10.2883168" y="21">1</tspan>
                    </text>
                </g>
                <path d="M31,28 L31,39" id="Path-5" stroke="#524740" stroke-width="2"></path>
                <text id="Vs" font-family="Lato-Regular, Lato" font-size="18" font-weight="normal" letter-spacing="0.695049465" fill="#524740">
                    <tspan x="21.4359505" y="18">Vs</tspan>
                </text>
                <g id="Oval-2-Copy-14">
                    <use fill="#524740" fill-rule="evenodd" xlink:href="#path-2"></use>
                    <circle stroke="#524740" stroke-width="2" cx="111" cy="120" r="4"></circle>
                </g>
                <g id="Oval-2-Copy-19">
                    <use fill="#524740" fill-rule="evenodd" xlink:href="#path-3"></use>
                    <circle stroke="#524740" stroke-width="2" cx="31" cy="120" r="4"></circle>
                </g>
                <g id="Oval-2-Copy-23">
                    <use fill="#524740" fill-rule="evenodd" xlink:href="#path-4"></use>
                    <circle stroke="#524740" stroke-width="2" cx="31" cy="212" r="4"></circle>
                </g>
                <path d="M31,212 L31,201" id="Path-15" stroke="#524740" stroke-width="2"></path>
                <path d="M30,212 L111,212" id="Path-15-Copy" stroke="#524740" stroke-width="2"></path>
                <path d="M31,109 L31,131" id="Path-17" stroke="#524740" stroke-width="2"></path>
                <path d="M111,124 L111,146" id="Path-17-Copy" stroke="#524740" stroke-width="2"></path>
                <path d="M111,186 L111,213" id="Path-17-Copy-2" stroke="#524740" stroke-width="2"></path>
                <path d="M31,120 L107,120" id="Path-18" stroke="#524740" stroke-width="2"></path>
                <g id="Ground" transform="translate(30.500000, 230.500000) rotate(-90.000000) translate(-30.500000, -230.500000) translate(11.500000, 214.000000)" stroke="#524740" stroke-width="2">
                    <path d="M12.5,17 L37.5,17" id="Path-2-Copy"></path>
                    <path d="M7,6.5 L7,26.5" id="Path-4"></path>
                    <path d="M1,13.5 L1,19.5" id="Path-4-Copy"></path>
                    <path d="M13,0 L13,33" id="Path-3-Copy"></path>
                </g>
            </g>
        </g>
    </g>
</svg>