<?xml version="1.0" encoding="UTF-8"?>
<svg width="330px" height="242px" viewBox="0 0 330 242" version="1.1" xmlns="http://www.w3.org/2000/svg" xmlns:xlink="http://www.w3.org/1999/xlink">
    <!-- Generator: Sketch 46 (44423) - http://www.bohemiancoding.com/sketch -->
    <title>Ohms_Circuit</title>
    <desc>Created with Sketch.</desc>
    <defs></defs>
    <g id="Page-1" stroke="none" stroke-width="1" fill="none" fill-rule="evenodd">
        <g id="Letter" transform="translate(-813.000000, -144.000000)">
            <g id="Ohms_Circuit" transform="translate(818.000000, 140.000000)">
                <polyline id="Path-2" stroke="#524740" stroke-width="2" points="147 56 205 56 205 168 152 168"></polyline>
                <polyline id="Path-2-Copy-2" stroke="#524740" stroke-width="2" transform="translate(48.000000, 112.000000) scale(-1, 1) translate(-48.000000, -112.000000) " points="19 56 77 56 77 168 24 168"></polyline>
                <text id="Source-Voltage-(V)" font-family="Lato-Regular, Lato" font-size="18" font-weight="normal" letter-spacing="0.695049465" fill="#524740">
                    <tspan x="35.2040548" y="242">Source Voltage (V)</tspan>
                </text>
                <text id="Resistance-(R)" font-family="Lato-Regular, Lato" font-size="18" font-weight="normal" letter-spacing="0.695049465" fill="#524740">
                    <tspan x="54.1441537" y="18">Resistance (R)</tspan>
                </text>
                <text id="Current-in-amps-(I)" font-family="Lato-Regular, Lato" font-size="18" font-weight="normal" letter-spacing="0.695049465" fill="#524740">
                    <tspan x="249.804827" y="105">Current</tspan>
                    <tspan x="238.744228" y="127">in amps (I)</tspan>
                </text>
                <path d="M224.15895,142.203227 L224.15895,87.3006381" id="Line-11-Copy-3" stroke="#B09679" stroke-width="3"></path>
                <path id="Line-11-Copy-3-decoration-1" d="M224.15895,87.3006381 L221.15895,98.1006381 L227.15895,98.1006381 L224.15895,87.3006381 Z" stroke="#B09679" stroke-width="3"></path>
                <path d="M0.495234784,86.3006381 L0.495234784,141.203227" id="Line-11-Copy-4" stroke="#B09679" stroke-width="3"></path>
                <path id="Line-11-Copy-4-decoration-1" d="M0.495234784,141.203227 L3.49523478,130.403227 L-2.50476522,130.403227 L0.495234784,141.203227 Z" stroke="#B09679" stroke-width="3"></path>
                <polyline id="Resistor" stroke="#524740" stroke-width="2" stroke-linejoin="bevel" points="77 56 82 56 87 43 97 69 107 43 117 69 127 43 137 69 142 56 147 56"></polyline>
                <g id="DC_Power" transform="translate(72.000000, 128.000000)">
                    <circle id="Oval" stroke="#524740" stroke-width="2" cx="40" cy="40" r="39"></circle>
                    <text id="+" font-family="Lato-Regular, Lato" font-size="18" font-weight="normal" letter-spacing="0.899999917" fill="#524740">
                        <tspan x="58.33" y="47">+</tspan>
                    </text>
                    <text id="-" font-family="Lato-Regular, Lato" font-size="18" font-weight="normal" letter-spacing="0.899999917" fill="#524740">
                        <tspan x="13.2065" y="46.5">-</tspan>
                    </text>
                </g>
            </g>
        </g>
    </g>
</svg>