<?xml version="1.0" encoding="UTF-8"?>
<svg width="280px" height="361px" viewBox="0 0 280 361" version="1.1" xmlns="http://www.w3.org/2000/svg" xmlns:xlink="http://www.w3.org/1999/xlink">
    <!-- Generator: Sketch 46.1 (44463) - http://www.bohemiancoding.com/sketch -->
    <title>Parallel_Resistances</title>
    <desc>Created with Sketch.</desc>
    <defs>
        <rect id="path-1" x="11.6761052" y="12.3521177" width="24" height="38"></rect>
        <rect id="path-2" x="1.67610518" y="24.3521177" width="45" height="15"></rect>
        <rect id="path-3" x="9.67610518" y="-0.647882343" width="8" height="29"></rect>
        <rect id="path-4" x="11.6761052" y="12.3521177" width="24" height="38"></rect>
        <rect id="path-5" x="1.67610518" y="24.3521177" width="60.5" height="15"></rect>
        <rect id="path-6" x="9.67610518" y="-0.647882343" width="8" height="29"></rect>
        <rect id="path-7" x="11.6761052" y="12.3521177" width="24" height="38"></rect>
        <rect id="path-8" x="1.67610518" y="24.3521177" width="45" height="15"></rect>
        <rect id="path-9" x="9.67610518" y="-0.647882343" width="8" height="29"></rect>
        <rect id="path-10" x="152.676105" y="139.352118" width="127" height="30"></rect>
        <rect id="path-11" x="152.676105" y="199.352118" width="127" height="30"></rect>
        <rect id="path-12" x="152.676105" y="259.352118" width="127" height="30"></rect>
        <path d="M30,259.352118 L30,229.458457 L30,229.352118 L130.676105,229.352118 L130.676105,199.352118 L30,199.352118 L30,169.458457 L30,169.352118 L130.676105,169.352118 L130.676105,139.352118 L30,139.352118 L30,45.4735225 L0,45.4735225 L0,137.51916 L0,197.51916 L0,289.564797 L30,289.564797 L30,289.352118 L130.676105,289.352118 L130.676105,259.352118 L30,259.352118 Z" id="path-13"></path>
    </defs>
    <g id="Page-1" stroke="none" stroke-width="1" fill="none" fill-rule="evenodd">
        <g id="Letter" transform="translate(-2146.000000, -539.000000)">
            <g id="Parallel_Resistances" transform="translate(2146.000000, 534.000000)">
                <text id="Source-Voltage-(V)" font-family="Lato-Regular, Lato" font-size="18" font-weight="normal" letter-spacing="0.695049465" fill="#555555">
                    <tspan x="45.2040548" y="18.8256402">Source Voltage (V)</tspan>
                </text>
                <text id="Valves-(Resistors)" font-family="Lato-Regular, Lato" font-size="18" font-weight="normal" letter-spacing="0.695049465" fill="#555555">
                    <tspan x="78.6320548" y="363">Valves (Resistors)</tspan>
                </text>
                <path d="M140,337 L140,318" id="Line-4-Copy" stroke="#B09679" stroke-width="2" stroke-linecap="square"></path>
                <path d="M43,62 L65,29" id="Line-4-Copy" stroke="#B09679" stroke-width="2" stroke-linecap="square"></path>
                <g id="Valve" transform="translate(118.000000, 123.000000)">
                    <g id="Rectangle-2">
                        <use fill="#D8D8D8" fill-rule="evenodd" xlink:href="#path-1"></use>
                        <rect stroke="#555555" stroke-width="1" x="12.1761052" y="12.8521177" width="23" height="37"></rect>
                    </g>
                    <g id="Rectangle-Copy-2">
                        <use fill="#23ABE3" fill-rule="evenodd" xlink:href="#path-2"></use>
                        <rect stroke="#555555" stroke-width="2" x="2.67610518" y="25.3521177" width="43" height="13"></rect>
                    </g>
                    <g id="Rectangle-3" transform="translate(13.676105, 13.852118) rotate(-45.000000) translate(-13.676105, -13.852118) ">
                        <use fill="#B09679" fill-rule="evenodd" xlink:href="#path-3"></use>
                        <rect stroke="#555555" stroke-width="1" x="10.1761052" y="-0.147882343" width="7" height="28"></rect>
                    </g>
                </g>
                <g id="Valve-Copy" transform="translate(118.000000, 183.000000)">
                    <g id="Rectangle-2">
                        <use fill="#D8D8D8" fill-rule="evenodd" xlink:href="#path-4"></use>
                        <rect stroke="#555555" stroke-width="1" x="12.1761052" y="12.8521177" width="23" height="37"></rect>
                    </g>
                    <g id="Rectangle-Copy-2">
                        <use fill="#23ABE3" fill-rule="evenodd" xlink:href="#path-5"></use>
                        <rect stroke="#555555" stroke-width="2" x="2.67610518" y="25.3521177" width="58.5" height="13"></rect>
                    </g>
                    <g id="Rectangle-3" transform="translate(13.676105, 13.852118) rotate(-45.000000) translate(-13.676105, -13.852118) ">
                        <use fill="#B09679" fill-rule="evenodd" xlink:href="#path-6"></use>
                        <rect stroke="#555555" stroke-width="1" x="10.1761052" y="-0.147882343" width="7" height="28"></rect>
                    </g>
                </g>
                <g id="Valve-Copy-2" transform="translate(118.000000, 243.000000)">
                    <g id="Rectangle-2">
                        <use fill="#D8D8D8" fill-rule="evenodd" xlink:href="#path-7"></use>
                        <rect stroke="#555555" stroke-width="1" x="12.1761052" y="12.8521177" width="23" height="37"></rect>
                    </g>
                    <g id="Rectangle-Copy-2">
                        <use fill="#23ABE3" fill-rule="evenodd" xlink:href="#path-8"></use>
                        <rect stroke="#555555" stroke-width="2" x="2.67610518" y="25.3521177" width="43" height="13"></rect>
                    </g>
                    <g id="Rectangle-3" transform="translate(13.676105, 13.852118) rotate(-45.000000) translate(-13.676105, -13.852118) ">
                        <use fill="#B09679" fill-rule="evenodd" xlink:href="#path-9"></use>
                        <rect stroke="#555555" stroke-width="1" x="10.1761052" y="-0.147882343" width="7" height="28"></rect>
                    </g>
                </g>
                <g id="Rectangle-Copy-3">
                    <use fill="#23ABE3" fill-rule="evenodd" xlink:href="#path-10"></use>
                    <rect stroke="#555555" stroke-width="2" x="153.676105" y="140.352118" width="125" height="28"></rect>
                </g>
                <g id="Rectangle-Copy-4">
                    <use fill="#23ABE3" fill-rule="evenodd" xlink:href="#path-11"></use>
                    <rect stroke="#555555" stroke-width="2" x="153.676105" y="200.352118" width="125" height="28"></rect>
                </g>
                <g id="Rectangle-Copy-5">
                    <use fill="#23ABE3" fill-rule="evenodd" xlink:href="#path-12"></use>
                    <rect stroke="#555555" stroke-width="2" x="153.676105" y="260.352118" width="125" height="28"></rect>
                </g>
                <g id="Combined-Shape">
                    <use fill="#23ABE3" fill-rule="evenodd" xlink:href="#path-13"></use>
                    <path stroke="#555555" stroke-width="2" d="M129.676105,228.352118 L129.676105,200.352118 L29,200.352118 L29,168.352118 L129.676105,168.352118 L129.676105,140.352118 L29,140.352118 L29,46.4735225 L1,46.4735225 L1,288.564797 L29,288.564797 L29,288.352118 L129.676105,288.352118 L129.676105,260.352118 L29,260.352118 L29,228.352118 L129.676105,228.352118 Z"></path>
                </g>
            </g>
        </g>
    </g>
</svg>