<?xml version="1.0" encoding="UTF-8"?>
<svg width="546px" height="307px" viewBox="0 0 546 307" version="1.1" xmlns="http://www.w3.org/2000/svg" xmlns:xlink="http://www.w3.org/1999/xlink">
    <!-- Generator: Sketch 46 (44423) - http://www.bohemiancoding.com/sketch -->
    <title>Resistance_Calc_Circuit</title>
    <desc>Created with Sketch.</desc>
    <defs></defs>
    <g id="Page-1" stroke="none" stroke-width="1" fill="none" fill-rule="evenodd">
        <g id="Letter" transform="translate(-721.000000, -572.000000)">
            <g id="Resistance_Calc_Circuit" transform="translate(721.000000, 572.000000)">
                <polyline id="Path-3" stroke="#524740" stroke-width="2" points="116 164 116 244 308 244"></polyline>
                <polyline id="Path-3-Copy" stroke="#524740" stroke-width="2" points="388 244 458 244 458 159"></polyline>
                <text id="Voltmeter" font-family="Lato-Regular, Lato" font-size="18" font-weight="normal" letter-spacing="0.695049465" fill="#524740">
                    <tspan x="287.145777" y="130">Voltmeter</tspan>
                </text>
                <text id="Resistor" font-family="Lato-Regular, Lato" font-size="18" font-weight="normal" letter-spacing="0.695049465" fill="#555555">
                    <tspan x="478.084802" y="129">Resistor</tspan>
                </text>
                <text id="Ammeter" font-family="Lato-Regular, Lato" font-size="18" font-weight="normal" letter-spacing="0.695049465" fill="#524740">
                    <tspan x="308.234827" y="306">Ammeter</tspan>
                </text>
                <path d="M477,61 L477,29" id="Line-11-Copy-3" stroke="#B09679" stroke-width="3"></path>
                <path id="Line-11-Copy-3-decoration-1" d="M477,61 L474,50.2 L480,50.2 L477,61 Z" stroke="#B09679" stroke-width="3"></path>
                <path d="M97,33 L97,65" id="Line-11-Copy-4" stroke="#B09679" stroke-width="3"></path>
                <path id="Line-11-Copy-4-decoration-1" d="M97,33 L100,43.8 L94,43.8 L97,33 Z" stroke="#B09679" stroke-width="3"></path>
                <g id="Voltmeter" transform="translate(192.000000, 84.000000)">
                    <circle id="Oval" stroke="#524740" stroke-width="2" cx="40" cy="40" r="39"></circle>
                    <text id="V" font-family="Lato-Regular, Lato" font-size="18" font-weight="normal" letter-spacing="0.899999976" fill="#524740">
                        <tspan x="34.957" y="47">V</tspan>
                    </text>
                </g>
                <g id="Ammeter" transform="translate(308.000000, 204.000000)">
                    <circle id="Oval" stroke="#524740" stroke-width="2" cx="40" cy="40" r="39"></circle>
                    <text id="A" font-family="Lato-Regular, Lato" font-size="18" font-weight="normal" letter-spacing="0.899999976" fill="#524740">
                        <tspan x="34.957" y="47">A</tspan>
                    </text>
                </g>
                <g id="DC_Power" transform="translate(76.000000, 84.000000)">
                    <circle id="Oval" stroke="#524740" stroke-width="2" cx="40" cy="40" r="39"></circle>
                    <text id="+" font-family="Lato-Regular, Lato" font-size="18" font-weight="normal" letter-spacing="0.899999917" fill="#524740">
                        <tspan x="35.33" y="21">+</tspan>
                    </text>
                    <text id="-" font-family="Lato-Regular, Lato" font-size="18" font-weight="normal" letter-spacing="0.899999917" fill="#524740">
                        <tspan x="37.2065" y="72.5">-</tspan>
                    </text>
                </g>
                <polyline id="Resistor" stroke="#524740" stroke-width="2" stroke-linejoin="bevel" transform="translate(458.000000, 124.000000) rotate(-270.000000) translate(-458.000000, -124.000000) " points="423 124 428 124 433 111 443 137 453 111 463 137 473 111 483 137 488 124 493 124"></polyline>
                <text id="Source-Voltage" font-family="Lato-Regular, Lato" font-size="18" font-weight="normal" letter-spacing="0.695049465" fill="#524740">
                    <tspan x="3.37885161" y="117">Source</tspan>
                    <tspan x="0.362826874" y="139">Voltage</tspan>
                </text>
                <path d="M232,5.2141472 L232,85" id="Path-5" stroke="#524740" stroke-width="2"></path>
                <path d="M232,163.214147 L232,243" id="Path-5-Copy" stroke="#524740" stroke-width="2"></path>
                <polyline id="Path-6" stroke="#524740" stroke-width="2" points="116 84 116 5 458 5 458 89.7554793"></polyline>
                <circle id="Oval-2" fill="#524740" cx="232" cy="5" r="5"></circle>
                <circle id="Oval-2-Copy" fill="#524740" cx="232" cy="244" r="5"></circle>
            </g>
        </g>
    </g>
</svg>