<?xml version="1.0"?>
<!DOCTYPE svg PUBLIC "-//W3C//DTD SVG 1.1//EN" "http://www.w3.org/Graphics/SVG/1.1/DTD/svg11.dtd">
<svg viewBox="246 244 276 197" preserveAspectRatio="xMinYMin meet" version="1.1" xmlns="http://www.w3.org/2000/svg">
<g class="Resistor">
<line x1="352" y1="288" x2="368" y2="288" stroke="#877777" stroke-width="3" stroke-linecap="round" fill="none" />
<line x1="400" y1="288" x2="416" y2="288" stroke="#07F707" stroke-width="3" stroke-linecap="round" fill="none" />
<polyline stroke="#877777" stroke-linecap="round" stroke-linejoin="round" stroke-width="3" fill="none" points="368,288 370.6667,280 373.3333,288 376,296 378.6667,288 " />
<polyline stroke="#5F9F5F" stroke-linecap="round" stroke-linejoin="round" stroke-width="3" fill="none" points="378.6667,288 381.3333,280 384,288 386.6667,296 389.3333,288 " />
<polyline stroke="#37C737" stroke-linecap="round" stroke-linejoin="round" stroke-width="3" fill="none" points="389.3333,288 392,280 394.6667,288 397.3333,296 400,288 " />
<text x="369" y="273" font-family="sans-serif">100</text>
</g>
<g class="DC Source">
<line x1="352" y1="384" x2="380" y2="384" stroke="#877777" stroke-width="3" stroke-linecap="round" fill="none" />
<line x1="388" y1="384" x2="416" y2="384" stroke="#07F707" stroke-width="3" stroke-linecap="round" fill="none" />
<line x1="380" y1="374" x2="380" y2="394" stroke="#877777" stroke-width="3" stroke-linecap="round" fill="none" />
<line x1="388" y1="368" x2="388" y2="400" stroke="#07F707" stroke-width="3" stroke-linecap="round" fill="none" />
<text x="374" y="354" font-family="sans-serif">5V</text>
</g>
<g class="Wire">
<line x1="480" y1="288" x2="480" y2="384" stroke="#07F707" stroke-width="1.5" stroke-linecap="round" fill="none" />
</g>
<g class="Wire">
<line x1="416" y1="288" x2="480" y2="288" stroke="#07F707" stroke-width="1.5" stroke-linecap="round" fill="none" />
</g>
<g class="Wire">
<line x1="416" y1="384" x2="480" y2="384" stroke="#07F707" stroke-width="1.5" stroke-linecap="round" fill="none" />
</g>
<g class="Wire">
<line x1="288" y1="288" x2="288" y2="384" stroke="#877777" stroke-width="1.5" stroke-linecap="round" fill="none" />
<text x="303" y="341" font-family="sans-serif">50mA</text>
<polygon fill="#000000" stroke="none" points="276,356 270,370 264,356 " />
<line x1="270" y1="302" x2="270" y2="356" stroke="#000000" stroke-width="2" stroke-linecap="round" fill="none" />
</g>
<g class="Wire">
<line x1="352" y1="288" x2="288" y2="288" stroke="#877777" stroke-width="1.5" stroke-linecap="round" fill="none" />
</g>
<g class="Wire">
<line x1="352" y1="384" x2="288" y2="384" stroke="#877777" stroke-width="1.5" stroke-linecap="round" fill="none" />
</g>
</svg>
