<?xml version="1.0"?>
<!DOCTYPE svg PUBLIC "-//W3C//DTD SVG 1.1//EN" "http://www.w3.org/Graphics/SVG/1.1/DTD/svg11.dtd">
<svg viewBox="135 182 265 308" preserveAspectRatio="xMinYMin meet" version="1.1" xmlns="http://www.w3.org/2000/svg">
<g class="LED">
<line x1="352" y1="352" x2="352" y2="374" stroke="#5F9F5F" stroke-width="3" stroke-linecap="round" fill="none" />
<line x1="352" y1="393" x2="352" y2="416" stroke="#877777" stroke-width="3" stroke-linecap="round" fill="none" />
<polygon fill="#FF0000" stroke="none" points="365,374 339,374 352,393 " />
<polygon stroke="#5F9F5F" stroke-width="2" fill="none" points="365,374 339,374 352,393 " />
<line x1="365" y1="393" x2="339" y2="393" stroke="#877777" stroke-width="3" stroke-linecap="round" fill="none" />
<line x1="363" y1="384" x2="367" y2="387" stroke="#5F9F5F" stroke-width="2" stroke-linecap="round" fill="none" />
<line x1="366" y1="380" x2="370" y2="383" stroke="#5F9F5F" stroke-width="2" stroke-linecap="round" fill="none" />
</g>
<g class="Resistor">
<line x1="352" y1="256" x2="352" y2="272" stroke="#07F707" stroke-width="3" stroke-linecap="round" fill="none" />
<line x1="352" y1="304" x2="352" y2="320" stroke="#5F9F5F" stroke-width="3" stroke-linecap="round" fill="none" />
<polyline stroke="#07F707" stroke-linecap="round" stroke-linejoin="round" stroke-width="3" fill="none" points="352,272 360,274.6667 352,277.3333 344,280 352,282.6667 " />
<polyline stroke="#27D727" stroke-linecap="round" stroke-linejoin="round" stroke-width="3" fill="none" points="352,282.6667 360,285.3333 352,288 344,290.6667 352,293.3333 " />
<polyline stroke="#47B747" stroke-linecap="round" stroke-linejoin="round" stroke-width="3" fill="none" points="352,293.3333 360,296 352,298.6667 344,301.3333 352,304 " />
<text x="367" y="293" font-family="sans-serif">160</text>
</g>
<g class="DC Source">
<line x1="192" y1="352" x2="192" y2="324" stroke="#877777" stroke-width="3" stroke-linecap="round" fill="none" />
<line x1="192" y1="316" x2="192" y2="288" stroke="#07F707" stroke-width="3" stroke-linecap="round" fill="none" />
<line x1="182" y1="324" x2="202" y2="324" stroke="#877777" stroke-width="3" stroke-linecap="round" fill="none" />
<line x1="176" y1="316" x2="208" y2="316" stroke="#07F707" stroke-width="3" stroke-linecap="round" fill="none" />
<text x="216" y="325" font-family="sans-serif">5V</text>
</g>
<g class="Wire">
<line x1="352" y1="320" x2="352" y2="352" stroke="#5F9F5F" stroke-width="1.5" stroke-linecap="round" fill="none" />
</g>
<g class="Wire">
<line x1="352" y1="256" x2="352" y2="224" stroke="#07F707" stroke-width="1.5" stroke-linecap="round" fill="none" />
</g>
<g class="Wire">
<line x1="352" y1="224" x2="192" y2="224" stroke="#07F707" stroke-width="1.5" stroke-linecap="round" fill="none" />
</g>
<g class="Wire">
<line x1="192" y1="224" x2="192" y2="288" stroke="#07F707" stroke-width="1.5" stroke-linecap="round" fill="none" />
</g>
<g class="Wire">
<line x1="352" y1="416" x2="352" y2="448" stroke="#877777" stroke-width="1.5" stroke-linecap="round" fill="none" />
</g>
<g class="Wire">
<line x1="352" y1="448" x2="192" y2="448" stroke="#877777" stroke-width="1.5" stroke-linecap="round" fill="none" />
<text x="212" y="433" font-family="sans-serif">21.34mA / 0V</text>
<polygon fill="#000000" stroke="none" points="230,472 216,466 230,460 " />
<line x1="328" y1="466" x2="230" y2="466" stroke="#000000" stroke-width="2" stroke-linecap="round" fill="none" />
</g>
<g class="Wire">
<line x1="192" y1="448" x2="192" y2="352" stroke="#877777" stroke-width="1.5" stroke-linecap="round" fill="none" />
</g>
</svg>
