<?xml version="1.0" encoding="UTF-8"?>
<svg width="251px" height="116px" viewBox="0 0 251 116" version="1.1" xmlns="http://www.w3.org/2000/svg" xmlns:xlink="http://www.w3.org/1999/xlink">
    <!-- Generator: Sketch 48.2 (47327) - http://www.bohemiancoding.com/sketch -->
    <title>ByWLabs_Logo</title>
    <desc>Created with Sketch.</desc>
    <defs></defs>
    <g id="Developer.WildernessLabs.co-Home" stroke="none" stroke-width="1" fill="none" fill-rule="evenodd" transform="translate(-1053.000000, -664.000000)">
        <g id="Netduino.Foundation" transform="translate(0.000000, 520.000000)">
            <g id="ByWLabs_Logo" transform="translate(1051.000000, 130.000000)">
                <rect id="Rectangle-3" x="25.876652" y="0" width="241.123348" height="138.887048"></rect>
                <g id="MountainLogo-Copy" transform="translate(68.957357, 13.502907)">
                    <g id="MountainTree-Copy-2" transform="translate(-0.000000, -0.000000)">
                        <path d="M108.563511,55.1353809 L106.456351,60.3610545 L98.0767648,46.2110699 L72.9651653,40.8894022 L65.7038361,47.1403994 C65.7038361,47.1403994 64.831216,47.987824 64.0168361,47.9746376 C63.2024561,47.9614511 62.1377694,47.0746243 62.1377694,47.0746243 L56.2462594,42.8886382 L46.9568883,60.3633307 L44.539768,55.4411806 L72.5452402,2.53619063 C72.5452402,2.53619063 73.2580728,0.621646132 74.9265687,0.61913443 C76.5950646,0.616622729 77.368335,2.56295595 77.368335,2.56295595 L108.563511,55.1353809 Z" id="Path-3" fill="#EEEEEE"></path>
                        <path d="M75.0199726,7.45323885 L94.9346262,40.9490159 L72.71478,36.2684208 C72.71478,36.2684208 72.1704472,36.2225038 71.7916905,36.287965 C71.4129337,36.3534262 71.0329604,36.6535746 71.0329604,36.6535746 L63.8515347,42.8471166 L58.3566774,38.8773331 L75.0199726,7.45323885 Z" id="Path-4" fill="#EEEEEE"></path>
                        <path d="M49.9591957,73.6509383 C49.9591957,73.6509383 51.2321182,73.6419118 51.8408919,72.5285609 C52.4496656,71.4152099 51.9705585,70.49942 51.9705585,70.49942 L26.2184358,18.1889184 C26.2184358,18.1889184 25.7830088,17.077255 24.249144,17.077255 C22.7152793,17.077255 22.2994357,18.1889184 22.2994357,18.1889184 L0.700568503,70.2002921 C0.700568503,70.2002921 0.226484837,71.5482124 0.881332524,72.574007 C1.53618021,73.5998016 2.68948292,73.6450515 2.68948292,73.6450515 L23.5836216,73.6400673 L23.5836216,78.6630387 C23.5836216,78.6630387 23.6484157,80.8711383 25.8728021,80.8845602 C28.0971885,80.8979821 28.0971885,78.6394523 28.0971885,78.6394523 L28.0971885,73.6487013 L49.9591957,73.6509383 Z" id="Path-5" fill="#EEEEEE"></path>
                        <polygon id="Path-2" fill="#23ABE3" points="24.4480002 24.7704791 46.287559 69.1494197 6.00583159 69.1494197"></polygon>
                        <path d="M151.5525,73.6509383 C151.5525,73.6509383 152.825422,73.6419118 153.434196,72.5285609 C154.04297,71.4152099 153.563862,70.49942 153.563862,70.49942 L127.81174,18.1889184 C127.81174,18.1889184 127.376313,17.077255 125.842448,17.077255 C124.308583,17.077255 123.89274,18.1889184 123.89274,18.1889184 L102.293872,70.2002921 C102.293872,70.2002921 101.819789,71.5482124 102.474636,72.574007 C103.129484,73.5998016 104.282787,73.6450515 104.282787,73.6450515 L125.176926,73.6400673 L125.176926,78.6630387 C125.176926,78.6630387 125.24172,80.8711383 127.466106,80.8845602 C129.690493,80.8979821 129.690493,78.6394523 129.690493,78.6394523 L129.690493,73.6487013 L151.5525,73.6509383 Z" id="Path-5" fill="#EEEEEE"></path>
                        <polygon id="Path-2" fill="#23ABE3" points="126.041304 24.7704791 147.880863 69.1494197 107.599136 69.1494197"></polygon>
                    </g>
                </g>
                <path d="M40.6836345,102.115738 L43.7127465,102.115738 L45.2951185,112.921078 L45.5513121,114.51852 C45.6718743,115.38255 45.7622947,116.171216 45.8225758,116.884543 L45.9883481,118.85874 C45.998395,118.908975 46.0084417,118.999395 46.0184886,119.130004 C46.0285354,119.260613 46.0436055,119.426384 46.0636992,119.627321 L46.1390502,118.873811 C46.2596125,117.557672 46.387708,116.347044 46.5233406,115.24189 C46.6589731,114.136736 46.807162,113.116995 46.9679117,112.182638 L48.640705,102.115738 L51.0519384,102.115738 L52.6192402,111.896304 C52.8503179,113.343051 53.043717,114.684286 53.1994433,115.92005 C53.3551695,117.155813 53.483265,118.336301 53.5837336,119.461549 C53.6842022,118.27602 53.7972276,117.130695 53.9228133,116.025541 C54.048399,114.920387 54.1815179,113.835343 54.3221739,112.770376 L54.548227,111.218144 L55.8894756,102.115738 L58.8884473,102.115738 L54.7742801,125.384141 L52.3329062,125.384141 L50.6902534,115.332311 C50.6802066,115.292124 50.6550898,115.126353 50.6149024,114.834994 C50.574715,114.543636 50.5144347,114.126697 50.4340599,113.584167 L50.1175855,111.263355 C50.0974918,111.082511 50.06484,110.81125 50.0196291,110.449564 C49.9744183,110.087877 49.9266964,109.630752 49.8764621,109.078175 L49.8011111,108.113681 C49.7810174,108.344759 49.760924,108.545693 49.7408302,108.71649 C49.7207365,108.887286 49.7056665,109.02794 49.6956196,109.138455 C49.6453853,109.801548 49.6026868,110.316442 49.5675228,110.683152 C49.5323588,111.049862 49.5097538,111.273401 49.4997069,111.353776 L49.1832325,113.584167 C49.1129045,114.096557 49.0576476,114.498425 49.0174602,114.789784 C48.9772728,115.081143 48.9471327,115.261983 48.9270389,115.332311 L47.2241053,125.384141 L44.7073804,125.384141 L40.6836345,102.115738 Z M63.2346957,102.115738 L66.3692992,102.115738 L66.3692992,125.384141 L63.2346957,125.384141 L63.2346957,102.115738 Z M72.4636919,102.115738 L75.5982954,102.115738 L75.5982954,122.731784 L80.7221665,122.731784 L80.7221665,125.384141 L72.4636919,125.384141 L72.4636919,102.115738 Z M85.1889766,102.115738 L89.0469502,102.115738 C90.2224324,102.115738 91.2120329,102.246345 92.0157814,102.507563 C92.7592488,102.758735 93.4223314,103.205813 94.005049,103.848812 C94.8791255,104.81331 95.5020213,106.069148 95.873755,107.616364 C96.2454887,109.113346 96.4313527,111.258318 96.4313527,114.051344 C96.4313527,116.613292 96.2253953,118.703007 95.8134741,120.320551 C95.4115999,121.867767 94.7485173,123.048254 93.8242065,123.86205 C92.6889118,124.876782 90.6544539,125.384141 87.7207718,125.384141 L85.1889766,125.384141 L85.1889766,102.115738 Z M88.3235802,122.641363 C90.2324829,122.641363 91.5084145,122.063677 92.1514133,120.908289 C92.8145058,119.7529 93.1460471,117.507462 93.1460471,114.171905 C93.1460471,110.585178 92.8295759,108.118711 92.1966239,106.772433 C91.563672,105.426154 90.4032775,104.753025 88.7154056,104.753025 L88.3235802,104.753025 L88.3235802,122.641363 Z M102.058569,102.115738 L110.392395,102.115738 L110.392395,104.768095 L105.193172,104.768095 L105.193172,112.137427 L109.804656,112.137427 L109.804656,114.789784 L105.193172,114.789784 L105.193172,122.731784 L110.392395,122.731784 L110.392395,125.384141 L102.058569,125.384141 L102.058569,102.115738 Z M115.778487,102.115738 L119.907725,102.115738 C121.61569,102.115738 122.886599,102.522629 123.720488,103.336425 C124.775408,104.391345 125.30286,106.003841 125.30286,108.173962 C125.30286,109.84174 125.024064,111.180464 124.466463,112.190173 C123.908863,113.199882 123.112661,113.825289 122.077835,114.066414 L126.357774,125.384141 L123.17796,125.384141 L118.913091,113.991063 L118.913091,125.384141 L115.778487,125.384141 L115.778487,102.115738 Z M118.913091,112.423761 C120.128761,112.423761 120.987754,112.142453 121.490097,111.579829 C121.99244,111.017205 122.243607,110.067792 122.243607,108.73156 C122.243607,108.008186 122.190862,107.390314 122.08537,106.877924 C121.979878,106.365534 121.814107,105.948596 121.588053,105.627097 C121.361999,105.305597 121.070644,105.0695 120.713981,104.918797 C120.357318,104.768094 119.932844,104.692744 119.440548,104.692744 L118.913091,104.692744 L118.913091,112.423761 Z M131.291761,102.115738 L134.215382,102.115738 L137.334915,111.398987 C138.239132,114.021216 139.037845,116.819224 139.731078,119.793093 C139.479907,117.994706 139.294043,116.36714 139.17348,114.910346 C139.052918,113.453551 138.992638,112.082176 138.992638,110.796178 L138.992638,102.115738 L142.142312,102.115738 L142.142312,125.384141 L139.203621,125.384141 L135.692262,114.910346 C135.370763,113.9358 135.06685,112.936153 134.780514,111.911374 C134.494179,110.886595 134.230453,109.811597 133.989328,108.686349 C133.969235,108.545693 133.936583,108.374899 133.891372,108.173962 C133.846161,107.973025 133.793416,107.741951 133.733135,107.480732 C133.763275,107.741951 133.788392,107.96549 133.808486,108.151357 C133.82858,108.337224 133.84365,108.495459 133.853697,108.626068 L134.019469,110.992091 L134.185241,113.870501 C134.195288,114.031251 134.202823,114.227162 134.207846,114.458239 C134.21287,114.689317 134.215382,114.950531 134.215382,115.24189 L134.381154,125.384141 L131.291761,125.384141 L131.291761,102.115738 Z M148.236704,102.115738 L156.57053,102.115738 L156.57053,104.768095 L151.371308,104.768095 L151.371308,112.137427 L155.982792,112.137427 L155.982792,114.789784 L151.371308,114.789784 L151.371308,122.731784 L156.57053,122.731784 L156.57053,125.384141 L148.236704,125.384141 L148.236704,102.115738 Z M169.717781,102.597985 L169.717781,105.657237 C168.763329,104.974051 167.904336,104.632463 167.140775,104.632463 C166.316933,104.632463 165.643803,104.923817 165.121367,105.506535 C164.59893,106.059112 164.337716,106.797545 164.337716,107.721856 C164.337716,108.535651 164.52358,109.233897 164.895314,109.816615 C165.086204,110.128067 165.400163,110.529936 165.837202,111.022232 C166.27424,111.514528 166.839367,112.107283 167.5326,112.800516 C168.808551,114.096561 169.677591,115.216768 170.139746,116.161173 C170.601902,117.075437 170.832976,118.195645 170.832976,119.52183 C170.832976,121.320217 170.325617,122.802106 169.310885,123.967541 C168.296152,125.102836 166.995104,125.670475 165.407701,125.670475 C164.071469,125.670475 162.931168,125.30377 161.986763,124.57035 L161.986763,121.465887 C163.101964,122.279682 164.116682,122.686574 165.030946,122.686574 C165.884928,122.686574 166.553034,122.402754 167.035283,121.835107 C167.517532,121.267459 167.758653,120.496375 167.758653,119.52183 C167.758653,118.677894 167.572789,117.919367 167.201056,117.246228 C167.010165,116.924729 166.743928,116.555512 166.402335,116.138568 C166.060741,115.721623 165.633756,115.256963 165.121367,114.744573 C164.327665,113.960918 163.669606,113.267696 163.147169,112.664884 C162.624733,112.062073 162.237935,111.534621 161.986763,111.082512 C161.504514,110.198389 161.263393,109.083205 161.263393,107.736926 C161.263393,105.918445 161.735588,104.476743 162.679993,103.411776 C163.634444,102.336762 164.915399,101.799263 166.522896,101.799263 C167.638097,101.799263 168.703048,102.065501 169.717781,102.597985 Z M183.739103,102.597985 L183.739103,105.657237 C182.784652,104.974051 181.925659,104.632463 181.162098,104.632463 C180.338255,104.632463 179.665126,104.923817 179.14269,105.506535 C178.620253,106.059112 178.359039,106.797545 178.359039,107.721856 C178.359039,108.535651 178.544903,109.233897 178.916636,109.816615 C179.107527,110.128067 179.421486,110.529936 179.858524,111.022232 C180.295563,111.514528 180.86069,112.107283 181.553923,112.800516 C182.829874,114.096561 183.698914,115.216768 184.161069,116.161173 C184.623225,117.075437 184.854299,118.195645 184.854299,119.52183 C184.854299,121.320217 184.34694,122.802106 183.332208,123.967541 C182.317475,125.102836 181.016427,125.670475 179.429024,125.670475 C178.092792,125.670475 176.952491,125.30377 176.008086,124.57035 L176.008086,121.465887 C177.123287,122.279682 178.138004,122.686574 179.052268,122.686574 C179.906251,122.686574 180.574357,122.402754 181.056606,121.835107 C181.538855,121.267459 181.779976,120.496375 181.779976,119.52183 C181.779976,118.677894 181.594112,117.919367 181.222378,117.246228 C181.031488,116.924729 180.76525,116.555512 180.423657,116.138568 C180.082064,115.721623 179.655079,115.256963 179.14269,114.744573 C178.348988,113.960918 177.690929,113.267696 177.168492,112.664884 C176.646056,112.062073 176.259257,111.534621 176.008086,111.082512 C175.525837,110.198389 175.284716,109.083205 175.284716,107.736926 C175.284716,105.918445 175.756911,104.476743 176.701316,103.411776 C177.655767,102.336762 178.936722,101.799263 180.544219,101.799263 C181.65942,101.799263 182.724371,102.065501 183.739103,102.597985 Z M198.89672,102.115738 L202.031323,102.115738 L202.031323,122.731784 L207.155195,122.731784 L207.155195,125.384141 L198.89672,125.384141 L198.89672,102.115738 Z M216.173208,102.115738 L218.614582,102.115738 L223.602821,125.384141 L220.498358,125.384141 L219.624286,120.848008 L215.012802,120.848008 L214.123659,125.384141 L211.109618,125.384141 L216.173208,102.115738 Z M219.17218,118.421704 L218.47895,114.714433 C218.016795,112.192672 217.640043,109.500155 217.348684,106.636801 C217.208028,108.033314 217.027188,109.447388 216.806157,110.879065 C216.585126,112.310742 216.323912,113.830306 216.022506,115.437803 L215.449838,118.421704 L219.17218,118.421704 Z M227.949069,102.115738 L232.198868,102.115738 C235.524378,102.115738 237.187108,104.180336 237.187108,108.309594 C237.187108,109.88695 236.971104,111.057392 236.539089,111.820953 C236.107074,112.584514 235.343524,113.162199 234.248417,113.554027 C235.504274,114.05637 236.363267,114.699359 236.825423,115.483013 C237.297625,116.256621 237.533723,117.422039 237.533723,118.979302 C237.533723,123.249216 235.705222,125.384141 232.048166,125.384141 L227.949069,125.384141 L227.949069,102.115738 Z M230.90283,112.36348 C232.1185,112.36348 232.962423,112.082172 233.434626,111.519548 C233.906828,110.926784 234.142925,109.88695 234.142925,108.400015 C234.142925,105.888301 233.238722,104.632463 231.430288,104.632463 L231.053533,104.632463 C230.973158,104.632463 230.922924,104.637486 230.90283,104.647533 L230.90283,112.36348 Z M230.90283,122.701644 C232.188828,122.701644 233.077962,122.425359 233.570258,121.872782 C234.062553,121.320205 234.308698,120.320558 234.308698,118.873811 C234.308698,117.386876 234.052507,116.347042 233.540117,115.754277 C233.037774,115.151466 232.158688,114.850065 230.90283,114.850065 L230.90283,122.701644 Z M250.922097,102.597985 L250.922097,105.657237 C249.967645,104.974051 249.108652,104.632463 248.345091,104.632463 C247.521249,104.632463 246.848119,104.923817 246.325683,105.506535 C245.803246,106.059112 245.542032,106.797545 245.542032,107.721856 C245.542032,108.535651 245.727896,109.233897 246.09963,109.816615 C246.29052,110.128067 246.604479,110.529936 247.041518,111.022232 C247.478556,111.514528 248.043683,112.107283 248.736916,112.800516 C250.012867,114.096561 250.881907,115.216768 251.344062,116.161173 C251.806218,117.075437 252.037292,118.195645 252.037292,119.52183 C252.037292,121.320217 251.529933,122.802106 250.515201,123.967541 C249.500468,125.102836 248.19942,125.670475 246.612017,125.670475 C245.275785,125.670475 244.135484,125.30377 243.191079,124.57035 L243.191079,121.465887 C244.30628,122.279682 245.320998,122.686574 246.235261,122.686574 C247.089244,122.686574 247.75735,122.402754 248.239599,121.835107 C248.721848,121.267459 248.962969,120.496375 248.962969,119.52183 C248.962969,118.677894 248.777105,117.919367 248.405372,117.246228 C248.214481,116.924729 247.948244,116.555512 247.60665,116.138568 C247.265057,115.721623 246.838072,115.256963 246.325683,114.744573 C245.531981,113.960918 244.873922,113.267696 244.351485,112.664884 C243.829049,112.062073 243.442251,111.534621 243.191079,111.082512 C242.70883,110.198389 242.467709,109.083205 242.467709,107.736926 C242.467709,105.918445 242.939904,104.476743 243.884309,103.411776 C244.83876,102.336762 246.119715,101.799263 247.727212,101.799263 C248.842413,101.799263 249.907364,102.065501 250.922097,102.597985 Z" id="WILDERNESS-LABS" fill="#EEEEEE"></path>
                <path d="M12.3846796,118.590601 C12.3846796,120.52799 11.9558568,122.065243 11.0981983,123.202407 C10.2405398,124.33957 9.08807855,124.908143 7.64077987,124.908143 C5.9101476,124.908143 4.60070653,124.264909 3.7124174,122.978421 L3.6549852,124.678414 L2.36850392,124.678414 L2.36850392,107.035242 L3.73539028,107.035242 L3.73539028,114.053457 C4.60836408,112.69805 5.90249005,112.020357 7.61780699,112.020357 C9.08807866,112.020357 10.2501119,112.581273 11.1039415,113.703121 C11.9577712,114.824969 12.3846796,116.385194 12.3846796,118.383845 L12.3846796,118.590601 Z M11.0063068,118.349386 C11.0063068,116.710645 10.6885185,115.445235 10.0529323,114.553117 C9.41734608,113.660999 8.52141272,113.214947 7.36510531,113.214947 C6.48447385,113.214947 5.73786271,113.431273 5.12524952,113.863931 C4.51263632,114.296589 4.04935454,114.930251 3.73539028,115.764937 L3.73539028,121.370319 C4.42458013,122.932483 5.64213059,123.713553 7.38807819,123.713553 C8.5214126,123.713553 9.40777403,123.265586 10.047189,122.36964 C10.6866041,121.473693 11.0063068,120.133622 11.0063068,118.349386 Z M19.3569487,122.702746 L22.9866637,112.250086 L24.4684144,112.250086 L19.1616792,126.791919 L18.8860046,127.43516 C18.2044724,128.94372 17.1515593,129.697988 15.7272336,129.697988 C15.397954,129.697988 15.0457067,129.644386 14.6704811,129.537178 L14.6589947,128.400021 L15.371154,128.468939 C16.0450285,128.468939 16.5906289,128.302388 17.0079717,127.969279 C17.4253144,127.636171 17.7794761,127.063769 18.0704674,126.252056 L18.6792487,124.575036 L13.9927812,112.250086 L15.4975048,112.250086 L19.3569487,122.702746 Z M26.2602991,123.85139 C26.2602991,123.583372 26.3464465,123.35556 26.518744,123.167947 C26.6910414,122.980334 26.9303399,122.886529 27.2366465,122.886529 C27.5429531,122.886529 27.7841659,122.980334 27.9602922,123.167947 C28.1364185,123.35556 28.2244803,123.583372 28.2244803,123.85139 C28.2244803,124.119409 28.1364185,124.339563 27.9602922,124.511861 C27.7841659,124.684158 27.5429531,124.770306 27.2366465,124.770306 C26.9303399,124.770306 26.6910414,124.684158 26.518744,124.511861 C26.3464465,124.339563 26.2602991,124.119409 26.2602991,123.85139 Z M26.283272,113.249406 C26.283272,112.981388 26.3694194,112.753576 26.5417169,112.565963 C26.7140143,112.37835 26.9533128,112.284545 27.2596194,112.284545 C27.565926,112.284545 27.8071388,112.37835 27.9832651,112.565963 C28.1593914,112.753576 28.2474532,112.981388 28.2474532,113.249406 C28.2474532,113.517425 28.1593914,113.737579 27.9832651,113.909877 C27.8071388,114.082174 27.565926,114.168322 27.2596194,114.168322 C26.9533128,114.168322 26.7140143,114.082174 26.5417169,113.909877 C26.3694194,113.737579 26.283272,113.517425 26.283272,113.249406 Z" id="by:" fill="#EEEEEE"></path>
            </g>
        </g>
    </g>
</svg>