<?xml version="1.0" encoding="UTF-8"?>
<svg width="236px" height="158px" viewBox="0 0 236 158" version="1.1" xmlns="http://www.w3.org/2000/svg" xmlns:xlink="http://www.w3.org/1999/xlink">
    <!-- Generator: Sketch 41.2 (35397) - http://www.bohemiancoding.com/sketch -->
    <title>LED</title>
    <desc>Created with Sketch.</desc>
    <defs></defs>
    <g id="Page-1" stroke="none" stroke-width="1" fill="none" fill-rule="evenodd">
        <g id="Desktop-HD" transform="translate(-467.000000, -62.000000)">
            <g id="LED" transform="translate(470.000000, 55.000000)">
                <g>
                    <polygon id="Triangle" stroke="#524740" stroke-width="5" fill="#FFFFFF" transform="translate(110.750000, 110.500000) rotate(90.000000) translate(-110.750000, -110.500000) " points="110.75 68.25 160.75 152.75 60.75 152.75"></polygon>
                    <rect id="Rectangle-3" fill="#524740" x="150" y="61" width="15" height="100"></rect>
                    <g id="Group-Copy" transform="translate(117.000000, 27.210526) rotate(-45.000000) translate(-117.000000, -27.210526) translate(89.000000, 18.000000)">
                        <path d="M0,9.57894737 L37.3333333,9.57894737" id="Line" stroke="#524740" stroke-width="5" stroke-linecap="square"></path>
                        <polygon id="Triangle-2" fill="#524740" transform="translate(46.666667, 9.210526) rotate(90.000000) translate(-46.666667, -9.210526) " points="46.6666667 0 56 18.4210526 37.3333333 18.4210526"></polygon>
                    </g>
                    <g id="Group-Copy-2" transform="translate(134.000000, 44.210526) rotate(-45.000000) translate(-134.000000, -44.210526) translate(106.000000, 35.000000)">
                        <path d="M0,9.57894737 L37.3333333,9.57894737" id="Line" stroke="#524740" stroke-width="5" stroke-linecap="square"></path>
                        <polygon id="Triangle-2" fill="#524740" transform="translate(46.666667, 9.210526) rotate(90.000000) translate(-46.666667, -9.210526) " points="46.6666667 0 56 18.4210526 37.3333333 18.4210526"></polygon>
                    </g>
                    <path d="M230,110 L-1.42108547e-13,110" id="Line" stroke="#524740" stroke-width="5" stroke-linecap="square"></path>
                </g>
            </g>
        </g>
    </g>
</svg>