<?xml version="1.0" encoding="UTF-8"?>
<svg width="919px" height="158px" viewBox="0 0 919 158" version="1.1" xmlns="http://www.w3.org/2000/svg" xmlns:xlink="http://www.w3.org/1999/xlink">
    <!-- Generator: Sketch 44.1 (41455) - http://www.bohemiancoding.com/sketch -->
    <title>PWM_50p_2xRes_DutyCycle</title>
    <desc>Created with Sketch.</desc>
    <defs></defs>
    <g id="Page-1" stroke="none" stroke-width="1" fill="none" fill-rule="evenodd">
        <g id="Artboard" transform="translate(-24.000000, -467.000000)">
            <g id="PWM_50p_2xRes_DutyCycle" transform="translate(23.000000, 462.000000)">
                <g id="Axis" transform="translate(0.000000, 32.000000)">
                    <path d="M109.5,10.5 L109.5,97.7066511" id="Line" stroke="#979797" stroke-linecap="square"></path>
                    <path d="M110.5,98.5 L919.502472,98.5" id="Line" stroke="#979797" stroke-linecap="square"></path>
                    <path d="M109.5,10.5 L99.5,10.5" id="Line" stroke="#979797" stroke-linecap="square"></path>
                    <path d="M109.5,98.5 L99.5,98.5" id="Line-Copy-8" stroke="#979797" stroke-linecap="square"></path>
                    <text id="3.3v" font-family="Lato-Regular, Lato" font-size="18" font-weight="normal" fill="#524740">
                        <tspan x="60.584" y="18">3.3v</tspan>
                    </text>
                    <text id="0v" font-family="Lato-Regular, Lato" font-size="18" font-weight="normal" fill="#524740">
                        <tspan x="75.272" y="103">0v</tspan>
                    </text>
                    <text id="Time" font-family="Lato-Regular, Lato" font-size="18" font-weight="normal" fill="#524740">
                        <tspan x="491.398" y="130">Time</tspan>
                    </text>
                    <text id="Voltage" font-family="Lato-Regular, Lato" font-size="18" font-weight="normal" fill="#524740">
                        <tspan x="1.2955" y="60">Voltage</tspan>
                    </text>
                </g>
                <g id="Signal" transform="translate(165.000000, 50.000000)" stroke="#23ABE3" stroke-width="5" stroke-linecap="square">
                    <path d="M0,81 L50,81" id="Line"></path>
                    <path d="M50,4.4199765 L50,81" id="Line-Copy-7"></path>
                    <path d="M100,4.4199765 L100,81" id="Line-Copy-9"></path>
                    <path d="M150,4.4199765 L150,81" id="Line-Copy-10"></path>
                    <path d="M200,4.4199765 L200,81" id="Line-Copy-11"></path>
                    <path d="M250,4.4199765 L250,81" id="Line-Copy-12"></path>
                    <path d="M300,4.4199765 L300,81" id="Line-Copy-13"></path>
                    <path d="M50,1 L100,1" id="Line-Copy"></path>
                    <path d="M100,81 L150,81" id="Line-Copy-2"></path>
                    <path d="M150,1 L200,1" id="Line-Copy-3"></path>
                    <path d="M200,81 L250,81" id="Line-Copy-4"></path>
                    <path d="M250,1 L300,1" id="Line-Copy-5"></path>
                    <path d="M300,81 L350,81" id="Line-Copy-6"></path>
                </g>
                <g id="Signal-Copy" transform="translate(514.000000, 50.000000)" stroke="#23ABE3" stroke-width="5" stroke-linecap="square">
                    <path d="M1,4.4199765 L1,81" id="Line-Copy-7"></path>
                    <path d="M51,4.4199765 L51,81" id="Line-Copy-9"></path>
                    <path d="M101,4.4199765 L101,81" id="Line-Copy-10"></path>
                    <path d="M151,4.4199765 L151,81" id="Line-Copy-11"></path>
                    <path d="M201,4.4199765 L201,81" id="Line-Copy-12"></path>
                    <path d="M251,4.4199765 L251,81" id="Line-Copy-13"></path>
                    <path d="M1,1 L51,1" id="Line-Copy"></path>
                    <path d="M51,81 L101,81" id="Line-Copy-2"></path>
                    <path d="M101,1 L151,1" id="Line-Copy-3"></path>
                    <path d="M151,81 L201,81" id="Line-Copy-4"></path>
                    <path d="M201,1 L251,1" id="Line-Copy-5"></path>
                    <path d="M301,4.4199765 L301,81" id="Line-Copy-16"></path>
                    <path d="M351,4.4199765 L351,81" id="Line-Copy-15"></path>
                    <path d="M301,1 L351,1" id="Line-Copy-14"></path>
                    <path d="M251,81 L301,81" id="Line-Copy-6"></path>
                </g>
                <text id="50%-Duty-Cycle-(@2x" font-family="Lato-Regular, Lato" font-size="23" font-weight="normal" fill="#23ABE3">
                    <tspan x="265.74675" y="23">50% Duty Cycle (@2x Resolution/Sampling)</tspan>
                </text>
            </g>
        </g>
    </g>
</svg>