<?xml version="1.0" encoding="UTF-8"?>
<svg width="200px" height="200px" viewBox="0 0 200 200" version="1.1" xmlns="http://www.w3.org/2000/svg" xmlns:xlink="http://www.w3.org/1999/xlink">
    <!-- Generator: Sketch 52.5 (67469) - http://www.bohemiancoding.com/sketch -->
    <title>Diode</title>
    <desc>Created with Sketch.</desc>
    <g id="Diode" stroke="none" stroke-width="1" fill="none" fill-rule="evenodd">
        <rect id="Rectangle" fill="#EEEEEE" x="0" y="0" width="200" height="200"></rect>
        <path d="M66.7,174 L66.7,157.872 L70.348,157.872 C73.0040133,157.872 75.1159922,158.639992 76.684,160.176 C78.2520078,161.712008 79.036,163.631988 79.036,165.936 C79.036,168.224011 78.2480079,170.139992 76.672,171.684 C75.0959921,173.228008 72.9880132,174 70.348,174 L66.7,174 Z M68.284,172.488 L70.348,172.488 C72.4600106,172.488 74.1479937,171.868006 75.412,170.628 C76.6760063,169.387994 77.308,167.824009 77.308,165.936 C77.308,164.047991 76.6760063,162.484006 75.412,161.244 C74.1479937,160.003994 72.4600106,159.384 70.348,159.384 L68.284,159.384 L68.284,172.488 Z M84.676,158.4 C84.4999991,158.592001 84.2760014,158.688 84.004,158.688 C83.7319986,158.688 83.5040009,158.592001 83.32,158.4 C83.1359991,158.207999 83.044,157.984001 83.044,157.728 C83.044,157.471999 83.1359991,157.248001 83.32,157.056 C83.5040009,156.863999 83.7319986,156.768 84.004,156.768 C84.2760014,156.768 84.5039991,156.863999 84.688,157.056 C84.8720009,157.248001 84.964,157.471999 84.964,157.728 C84.964,157.984001 84.868001,158.207999 84.676,158.4 Z M83.212,174 L83.212,162 L84.796,162 L84.796,174 L83.212,174 Z M99.364,172.368 C98.163994,173.584006 96.7080086,174.192 94.996,174.192 C93.2839914,174.192 91.824006,173.588006 90.616,172.38 C89.407994,171.171994 88.804,169.712009 88.804,168 C88.804,166.287991 89.407994,164.828006 90.616,163.62 C91.824006,162.411994 93.2839914,161.808 94.996,161.808 C96.7080086,161.808 98.167994,162.411994 99.376,163.62 C100.584006,164.828006 101.188,166.287991 101.188,168 C101.188,169.696008 100.580006,171.151994 99.364,172.368 Z M95.02,172.68 C96.3160065,172.68 97.4079956,172.228005 98.296,171.324 C99.1840044,170.419995 99.628,169.312007 99.628,168 C99.628,166.687993 99.1840044,165.576005 98.296,164.664 C97.4079956,163.751995 96.3160065,163.296 95.02,163.296 C93.7399936,163.296 92.6520045,163.751995 91.756,164.664 C90.8599955,165.576005 90.412,166.687993 90.412,168 C90.412,169.312007 90.8599955,170.419995 91.756,171.324 C92.6520045,172.228005 93.7399936,172.68 95.02,172.68 Z M115.012,156.144 L116.596,156.144 L116.596,174 L115.012,174 L115.012,172.056 C113.779994,173.480007 112.220009,174.192 110.332,174.192 C108.619991,174.192 107.160006,173.588006 105.952,172.38 C104.743994,171.171994 104.14,169.712009 104.14,168 C104.14,166.287991 104.743994,164.828006 105.952,163.62 C107.160006,162.411994 108.619991,161.808 110.332,161.808 C112.23601,161.808 113.795994,162.519993 115.012,163.944 L115.012,156.144 Z M107.068,171.336 C107.964004,172.232004 109.059994,172.68 110.356,172.68 C111.652006,172.68 112.743996,172.228005 113.632,171.324 C114.520004,170.419995 114.964,169.312007 114.964,168 C114.964,166.687993 114.520004,165.580005 113.632,164.676 C112.743996,163.771995 111.652006,163.32 110.356,163.32 C109.059994,163.32 107.964004,163.771995 107.068,164.676 C106.171996,165.580005 105.724,166.687993 105.724,168 C105.724,169.312007 106.171996,170.423995 107.068,171.336 Z M126.556,172.608 C127.628005,172.608 128.587996,172.304003 129.436,171.696 C130.284004,171.087997 130.859998,170.376004 131.164,169.56 L132.508,170.04 C132.139998,171.048005 131.424005,171.975996 130.36,172.824 C129.295995,173.672004 128.028007,174.088 126.556,174.072 C125.211993,174.072 123.984006,173.656004 122.872,172.824 C121.759994,171.991996 121.004002,170.928006 120.604,169.632 C120.443999,169.103997 120.364,168.528003 120.364,167.904 C120.364,166.175991 120.963994,164.712006 122.164,163.512 C123.364006,162.311994 124.827991,161.704 126.556,161.688 C128.124008,161.704 129.491994,162.231995 130.66,163.272 C131.828006,164.312005 132.499999,165.599992 132.676,167.136 C132.692,167.216 132.7,167.319999 132.7,167.448 L122.212,169.344 C122.484001,170.304005 123.027996,171.091997 123.844,171.708 C124.660004,172.324003 125.563995,172.624 126.556,172.608 Z M126.412,163.152 C125.211994,163.168 124.184004,163.599996 123.328,164.448 C122.471996,165.296004 122.012,166.311994 121.948,167.496 C121.948,167.544 121.952,167.627999 121.96,167.748 C121.968,167.868001 121.972,167.968 121.972,168.048 L130.9,166.44 C130.595998,165.463995 130.028004,164.668003 129.196,164.052 C128.363996,163.435997 127.436005,163.136 126.412,163.152 Z" id="Diode-Copy" fill="#23ABE3"></path>
        <g transform="translate(65.000000, 87.000000)">
            <polygon id="Path-2" fill="#3D3530" points="24.5 0 44 13 24.5 26"></polygon>
            <path d="M44,13 L70,13" id="Path-2-Copy" stroke="#3D3530" stroke-width="3"></path>
            <path d="M44,7.10542736e-15 L44,26" id="Path-4-Copy" stroke="#3D3530" stroke-width="3"></path>
            <path d="M0,13 L24.5,13" id="Path-3" stroke="#3D3530" stroke-width="3"></path>
        </g>
    </g>
</svg>