<?xml version="1.0" encoding="UTF-8"?>
<svg width="200px" height="200px" viewBox="0 0 200 200" version="1.1" xmlns="http://www.w3.org/2000/svg" xmlns:xlink="http://www.w3.org/1999/xlink">
    <!-- Generator: Sketch 52.5 (67469) - http://www.bohemiancoding.com/sketch -->
    <title>Schottky_Diode</title>
    <desc>Created with Sketch.</desc>
    <g id="Schottky_Diode" stroke="none" stroke-width="1" fill="none" fill-rule="evenodd">
        <rect id="Rectangle" fill="#EEEEEE" x="0" y="0" width="200" height="200"></rect>
        <path d="M16.324,174.192 C15.2519946,174.192 14.216005,173.920003 13.216,173.376 C12.215995,172.831997 11.4600026,172.288003 10.948,171.744 L12.052,170.664 C12.452002,171.096002 13.0439961,171.539998 13.828,171.996 C14.6120039,172.452002 15.4439956,172.68 16.324,172.68 C17.3960054,172.68 18.2399969,172.444002 18.856,171.972 C19.4720031,171.499998 19.78,170.856004 19.78,170.04 C19.78,169.351997 19.480003,168.752003 18.88,168.24 C18.279997,167.727997 17.5520043,167.296002 16.696,166.944 C15.8399957,166.591998 14.9800043,166.220002 14.116,165.828 C13.2519957,165.435998 12.520003,164.904003 11.92,164.232 C11.319997,163.559997 11.02,162.768005 11.02,161.856 C11.02,160.687994 11.4599956,159.704004 12.34,158.904 C13.2200044,158.103996 14.4519921,157.704 16.036,157.704 C17.1080054,157.704 18.143995,157.975997 19.144,158.52 C20.144005,159.064003 20.8999974,159.607997 21.412,160.152 L20.308,161.232 C19.8919979,160.783998 19.2920039,160.336002 18.508,159.888 C17.7239961,159.439998 16.9000043,159.216 16.036,159.216 C14.9639946,159.216 14.1200031,159.451998 13.504,159.924 C12.8879969,160.396002 12.58,161.039996 12.58,161.856 C12.58,162.544003 12.879997,163.147997 13.48,163.668 C14.080003,164.188003 14.8079957,164.623998 15.664,164.976 C16.5200043,165.328002 17.3799957,165.695998 18.244,166.08 C19.1080043,166.464002 19.839997,166.991997 20.44,167.664 C21.040003,168.336003 21.34,169.127995 21.34,170.04 C21.34,171.208006 20.9000044,172.191996 20.02,172.992 C19.1399956,173.792004 17.9080079,174.192 16.324,174.192 Z M30.46,174.192 C28.7479914,174.192 27.288006,173.588006 26.08,172.38 C24.871994,171.171994 24.268,169.712009 24.268,168 C24.268,166.287991 24.871994,164.828006 26.08,163.62 C27.288006,162.411994 28.7479914,161.808 30.46,161.808 C31.5480054,161.808 32.5599953,162.075997 33.496,162.612 C34.4320047,163.148003 35.1719973,163.863996 35.716,164.76 L34.276,165.456 C33.8439978,164.799997 33.2920034,164.280002 32.62,163.896 C31.9479966,163.511998 31.2280038,163.32 30.46,163.32 C29.1639935,163.32 28.0720044,163.771995 27.184,164.676 C26.2959956,165.580005 25.852,166.687993 25.852,168 C25.852,169.312007 26.2959956,170.419995 27.184,171.324 C28.0720044,172.228005 29.1639935,172.68 30.46,172.68 C31.2280038,172.68 31.9479966,172.488002 32.62,172.104 C33.2920034,171.719998 33.8439978,171.200003 34.276,170.544 L35.716,171.24 C35.1719973,172.136004 34.4320047,172.851997 33.496,173.388 C32.5599953,173.924003 31.5480054,174.192 30.46,174.192 Z M45.148,161.808 C46.540007,161.808 47.7079953,162.307995 48.652,163.308 C49.5960047,164.308005 50.068,165.527993 50.068,166.968 L50.068,174 L48.46,174 L48.46,166.992 C48.46,165.951995 48.1160034,165.076004 47.428,164.364 C46.7399966,163.651996 45.892005,163.296 44.884,163.296 C43.891995,163.296 43.0480035,163.651996 42.352,164.364 C41.6559965,165.076004 41.308,165.943995 41.308,166.968 L41.308,174 L39.724,174 L39.724,156.144 L41.308,156.144 L41.308,163.776 C42.2840049,162.463993 43.5639921,161.808 45.148,161.808 Z M64.084,172.368 C62.883994,173.584006 61.4280086,174.192 59.716,174.192 C58.0039914,174.192 56.544006,173.588006 55.336,172.38 C54.127994,171.171994 53.524,169.712009 53.524,168 C53.524,166.287991 54.127994,164.828006 55.336,163.62 C56.544006,162.411994 58.0039914,161.808 59.716,161.808 C61.4280086,161.808 62.887994,162.411994 64.096,163.62 C65.304006,164.828006 65.908,166.287991 65.908,168 C65.908,169.696008 65.3000061,171.151994 64.084,172.368 Z M59.74,172.68 C61.0360065,172.68 62.1279956,172.228005 63.016,171.324 C63.9040044,170.419995 64.348,169.312007 64.348,168 C64.348,166.687993 63.9040044,165.576005 63.016,164.664 C62.1279956,163.751995 61.0360065,163.296 59.74,163.296 C58.4599936,163.296 57.3720045,163.751995 56.476,164.664 C55.5799955,165.576005 55.132,166.687993 55.132,168 C55.132,169.312007 55.5799955,170.419995 56.476,171.324 C57.3720045,172.228005 58.4599936,172.68 59.74,172.68 Z M76.18,171.312 L76.972,172.536 C76.8759995,172.664001 76.7480008,172.815999 76.588,172.992 C76.4279992,173.168001 76.0680028,173.411998 75.508,173.724 C74.9479972,174.036002 74.372003,174.192 73.78,174.192 C72.771995,174.192 71.9280034,173.892003 71.248,173.292 C70.5679966,172.691997 70.228,171.824006 70.228,170.688 L70.228,163.44 L68.308,163.44 L68.308,161.976 L70.228,161.976 L70.228,158.184 L71.812,157.992 L71.812,161.976 L75.436,161.976 L75.436,163.44 L71.812,163.44 L71.812,170.328 C71.812,171.064004 72.0399977,171.647998 72.496,172.08 C72.9520023,172.512002 73.475997,172.728 74.068,172.728 C74.4360018,172.728 74.7959982,172.616001 75.148,172.392 C75.5000018,172.167999 75.7599992,171.948001 75.928,171.732 C76.0960008,171.515999 76.18,171.376 76.18,171.312 Z M86.092,171.312 L86.884,172.536 C86.7879995,172.664001 86.6600008,172.815999 86.5,172.992 C86.3399992,173.168001 85.9800028,173.411998 85.42,173.724 C84.8599972,174.036002 84.284003,174.192 83.692,174.192 C82.683995,174.192 81.8400034,173.892003 81.16,173.292 C80.4799966,172.691997 80.14,171.824006 80.14,170.688 L80.14,163.44 L78.22,163.44 L78.22,161.976 L80.14,161.976 L80.14,158.184 L81.724,157.992 L81.724,161.976 L85.348,161.976 L85.348,163.44 L81.724,163.44 L81.724,170.328 C81.724,171.064004 81.9519977,171.647998 82.408,172.08 C82.8640023,172.512002 83.387997,172.728 83.98,172.728 C84.3480018,172.728 84.7079982,172.616001 85.06,172.392 C85.4120018,172.167999 85.6719992,171.948001 85.84,171.732 C86.0080008,171.515999 86.092,171.376 86.092,171.312 Z M98.068,162 L93.724,167.208 L98.068,174 L96.388,174 L92.788,168.336 L91.588,169.776 L91.588,173.976 L90.004,173.976 L90.004,156.12 L91.588,156.12 L91.588,167.688 L96.316,162 L98.068,162 Z M108.892,162 L110.476,162 L103.924,179.112 L102.34,179.112 L104.86,172.536 L100.42,162 L102.004,162 L105.604,170.568 L108.892,162 Z M121.9,174 L121.9,157.872 L125.548,157.872 C128.204013,157.872 130.315992,158.639992 131.884,160.176 C133.452008,161.712008 134.236,163.631988 134.236,165.936 C134.236,168.224011 133.448008,170.139992 131.872,171.684 C130.295992,173.228008 128.188013,174 125.548,174 L121.9,174 Z M123.484,172.488 L125.548,172.488 C127.660011,172.488 129.347994,171.868006 130.612,170.628 C131.876006,169.387994 132.508,167.824009 132.508,165.936 C132.508,164.047991 131.876006,162.484006 130.612,161.244 C129.347994,160.003994 127.660011,159.384 125.548,159.384 L123.484,159.384 L123.484,172.488 Z M139.876,158.4 C139.699999,158.592001 139.476001,158.688 139.204,158.688 C138.931999,158.688 138.704001,158.592001 138.52,158.4 C138.335999,158.207999 138.244,157.984001 138.244,157.728 C138.244,157.471999 138.335999,157.248001 138.52,157.056 C138.704001,156.863999 138.931999,156.768 139.204,156.768 C139.476001,156.768 139.703999,156.863999 139.888,157.056 C140.072001,157.248001 140.164,157.471999 140.164,157.728 C140.164,157.984001 140.068001,158.207999 139.876,158.4 Z M138.412,174 L138.412,162 L139.996,162 L139.996,174 L138.412,174 Z M154.564,172.368 C153.363994,173.584006 151.908009,174.192 150.196,174.192 C148.483991,174.192 147.024006,173.588006 145.816,172.38 C144.607994,171.171994 144.004,169.712009 144.004,168 C144.004,166.287991 144.607994,164.828006 145.816,163.62 C147.024006,162.411994 148.483991,161.808 150.196,161.808 C151.908009,161.808 153.367994,162.411994 154.576,163.62 C155.784006,164.828006 156.388,166.287991 156.388,168 C156.388,169.696008 155.780006,171.151994 154.564,172.368 Z M150.22,172.68 C151.516006,172.68 152.607996,172.228005 153.496,171.324 C154.384004,170.419995 154.828,169.312007 154.828,168 C154.828,166.687993 154.384004,165.576005 153.496,164.664 C152.607996,163.751995 151.516006,163.296 150.22,163.296 C148.939994,163.296 147.852004,163.751995 146.956,164.664 C146.059996,165.576005 145.612,166.687993 145.612,168 C145.612,169.312007 146.059996,170.419995 146.956,171.324 C147.852004,172.228005 148.939994,172.68 150.22,172.68 Z M170.212,156.144 L171.796,156.144 L171.796,174 L170.212,174 L170.212,172.056 C168.979994,173.480007 167.420009,174.192 165.532,174.192 C163.819991,174.192 162.360006,173.588006 161.152,172.38 C159.943994,171.171994 159.34,169.712009 159.34,168 C159.34,166.287991 159.943994,164.828006 161.152,163.62 C162.360006,162.411994 163.819991,161.808 165.532,161.808 C167.43601,161.808 168.995994,162.519993 170.212,163.944 L170.212,156.144 Z M162.268,171.336 C163.164004,172.232004 164.259994,172.68 165.556,172.68 C166.852006,172.68 167.943996,172.228005 168.832,171.324 C169.720004,170.419995 170.164,169.312007 170.164,168 C170.164,166.687993 169.720004,165.580005 168.832,164.676 C167.943996,163.771995 166.852006,163.32 165.556,163.32 C164.259994,163.32 163.164004,163.771995 162.268,164.676 C161.371996,165.580005 160.924,166.687993 160.924,168 C160.924,169.312007 161.371996,170.423995 162.268,171.336 Z M181.756,172.608 C182.828005,172.608 183.787996,172.304003 184.636,171.696 C185.484004,171.087997 186.059998,170.376004 186.364,169.56 L187.708,170.04 C187.339998,171.048005 186.624005,171.975996 185.56,172.824 C184.495995,173.672004 183.228007,174.088 181.756,174.072 C180.411993,174.072 179.184006,173.656004 178.072,172.824 C176.959994,171.991996 176.204002,170.928006 175.804,169.632 C175.643999,169.103997 175.564,168.528003 175.564,167.904 C175.564,166.175991 176.163994,164.712006 177.364,163.512 C178.564006,162.311994 180.027991,161.704 181.756,161.688 C183.324008,161.704 184.691994,162.231995 185.86,163.272 C187.028006,164.312005 187.699999,165.599992 187.876,167.136 C187.892,167.216 187.9,167.319999 187.9,167.448 L177.412,169.344 C177.684001,170.304005 178.227996,171.091997 179.044,171.708 C179.860004,172.324003 180.763995,172.624 181.756,172.608 Z M181.612,163.152 C180.411994,163.168 179.384004,163.599996 178.528,164.448 C177.671996,165.296004 177.212,166.311994 177.148,167.496 C177.148,167.544 177.152,167.627999 177.16,167.748 C177.168,167.868001 177.172,167.968 177.172,168.048 L186.1,166.44 C185.795998,165.463995 185.228004,164.668003 184.396,164.052 C183.563996,163.435997 182.636005,163.136 181.612,163.152 Z" id="Schottky-Diode-Copy" fill="#23ABE3"></path>
        <g transform="translate(65.000000, 87.000000)">
            <polygon id="Path-2" fill="#3D3530" points="24.5 0 44 13 24.5 26"></polygon>
            <path d="M44,13 L70,13" id="Path-2-Copy" stroke="#3D3530" stroke-width="3"></path>
            <path d="M0,13 L24.5,13" id="Path-3" stroke="#3D3530" stroke-width="3"></path>
            <polyline id="Path" stroke="#3D3530" stroke-width="3" points="39 5 39 1 44 1 44 25 49 25 49 21"></polyline>
        </g>
    </g>
</svg>