<?xml version="1.0" standalone="no"?>
<!DOCTYPE svg PUBLIC "-//W3C//DTD SVG 1.1//EN" "http://www.w3.org/Graphics/SVG/1.1/DTD/svg11.dtd" >
<svg xmlns="http://www.w3.org/2000/svg" xmlns:xlink="http://www.w3.org/1999/xlink" version="1.1">
<metadata>
Created by FontForge 20170910 at Sun Oct  5 02:48:32 2003
 By Jimmy Wärting
Copr. Copyright 1998, Neufville Digital. ALL RIGHTS RESERVED. This font is licensed, not sold, and may not be reproduced without the written consent of Neufville Digital. Parts Copr. Visualogik Technology &#38; Design, 1998. The digitally encoded machine readable outline data for producing the typefaces licensed to you is copyrighted (c), 1998 by and the property of Visualogik, a subsidiary of VISINOVA bv.
</metadata>
<defs>
<font id="FuturaND-4BookPlain" horiz-adv-x="617" >
  <font-face 
    font-family="Futura ND"
    font-weight="400"
    font-stretch="normal"
    units-per-em="1000"
    panose-1="2 0 5 3 0 0 0 0 0 0"
    ascent="800"
    descent="-200"
    x-height="470"
    cap-height="754"
    bbox="-162 -282 1181 1014"
    underline-thickness="80"
    underline-position="-115"
    stemh="73"
    stemv="84"
    unicode-range="U+0020-FFFD"
  />
<missing-glyph horiz-adv-x="500" 
 />
    <glyph glyph-name=".notdef" unicode="&#xfffd;" horiz-adv-x="500" 
 />
    <glyph glyph-name=".null" horiz-adv-x="500" 
 />
    <glyph glyph-name=".null" horiz-adv-x="500" 
 />
    <glyph glyph-name="space" unicode=" " horiz-adv-x="309" 
 />
    <glyph glyph-name="exclam" unicode="!" horiz-adv-x="315" 
d="M198 153h-82v601h82v-601zM102 45c0 15 5 28 16 39s24 16 39 16c16 0 29 -5 40 -16s16 -24 16 -39c0 -31 -24 -56 -56 -56c-15 0 -28 5 -39 16s-16 24 -16 40z" />
    <glyph glyph-name="quotedbl" unicode="&#x22;" horiz-adv-x="373" 
d="M312 754l-15 -303h-61l-14 303h90zM151 754l-15 -303h-61l-15 303h91z" />
    <glyph glyph-name="numbersign" unicode="#" horiz-adv-x="666" 
d="M405 307l19 158h-158l-20 -158h159zM504 533h118v-68h-124l-20 -158h116v-68h-125l-30 -241l-70 9l28 232h-160l-30 -241l-70 9l29 232h-121v68h129l20 158h-121v68h129l28 227l71 -10l-27 -217h159l28 227l71 -10z" />
    <glyph glyph-name="dollar" unicode="$" 
d="M291 462v220c-60 -15 -93 -57 -93 -113c0 -43 31 -78 93 -107zM357 344v-268c65 24 101 75 101 140c0 52 -34 95 -101 128zM357 863v-102c67 -11 120 -49 158 -115l-66 -43c-27 43 -58 69 -92 78v-248c69 -30 117 -61 144 -92s41 -72 41 -121c0 -112 -73 -200 -185 -224
v-110h-66v105c-113 7 -189 73 -216 192l81 23c19 -85 64 -130 135 -137v306c-129 52 -178 107 -178 195c0 50 16 92 48 127c32 34 75 55 130 64v102h66z" />
    <glyph glyph-name="percent" unicode="%" horiz-adv-x="809" 
d="M502 159c0 -29 10 -54 29 -74c20 -19 44 -29 73 -29c56 0 101 45 101 101c0 29 -10 53 -30 72c-19 20 -43 30 -71 30s-52 -10 -72 -30c-20 -19 -30 -43 -30 -70zM436 159c0 45 16 83 49 114c34 32 74 48 119 48s85 -16 118 -48s49 -71 49 -116c0 -46 -16 -85 -49 -116
c-33 -32 -73 -48 -120 -48c-46 0 -85 16 -118 49c-32 32 -48 71 -48 117zM163 11l439 758l44 -25l-439 -758zM104 599c0 -29 10 -53 29 -73c20 -20 44 -30 73 -30c28 0 52 10 71 30c20 20 30 44 30 72s-10 52 -30 71c-19 20 -43 30 -72 30c-27 0 -51 -10 -71 -30
c-20 -19 -30 -43 -30 -70zM38 600c0 44 16 82 49 114c34 32 74 48 119 48c46 0 86 -16 119 -49c33 -31 49 -70 49 -116s-17 -85 -50 -117c-33 -31 -73 -47 -120 -47c-46 0 -85 16 -118 48c-32 33 -48 72 -48 119z" />
    <glyph glyph-name="ampersand" unicode="&#x26;" horiz-adv-x="719" 
d="M323 491l12 9c39 28 62 49 73 62c11 14 17 32 17 54c0 23 -8 41 -24 56c-15 15 -34 22 -58 22c-47 0 -83 -37 -83 -82c0 -23 10 -48 30 -75l28 -38zM471 167l-167 217l-56 -38c-70 -49 -105 -97 -105 -146c0 -37 13 -69 40 -96c27 -28 58 -42 95 -42c52 0 116 35 193 105
zM372 430l158 -203c27 29 56 62 86 99l60 -50c-28 -37 -59 -75 -96 -112l128 -164h-105l-82 104c-89 -79 -169 -118 -242 -118c-61 0 -113 20 -155 60c-42 41 -63 90 -63 149c0 47 13 88 38 122s72 74 141 119l14 9c-28 37 -48 68 -59 93c-10 23 -15 46 -15 69
c0 46 15 84 46 114c31 31 71 46 118 46c45 0 83 -15 114 -44s47 -65 47 -108c0 -33 -9 -62 -27 -88c-19 -25 -53 -58 -106 -97z" />
    <glyph glyph-name="quotesingle" unicode="'" horiz-adv-x="211" 
d="M151 754l-15 -303h-61l-15 303h91z" />
    <glyph glyph-name="parenleft" unicode="(" horiz-adv-x="332" 
d="M188 830l72 -34c-56 -145 -84 -306 -84 -483c0 -176 28 -337 84 -483l-72 -33c-29 62 -51 139 -68 232c-17 91 -26 185 -26 284s9 193 26 284c17 93 39 170 68 233z" />
    <glyph glyph-name="parenright" unicode=")" horiz-adv-x="332" 
d="M144 -203l-72 33c57 145 85 306 85 483s-28 338 -85 483l72 34c29 -63 51 -140 68 -233c17 -91 26 -185 26 -284c0 -97 -9 -192 -26 -285c-17 -92 -39 -169 -68 -231z" />
    <glyph glyph-name="asterisk" unicode="*" 
d="M149 733l132 -49l-6 141h76l-6 -141l132 49l23 -71l-135 -38l87 -111l-61 -44l-78 117l-78 -117l-61 44l88 111l-136 38z" />
    <glyph glyph-name="plus" unicode="+" 
d="M274 350h-232v69h232v228h69v-228h232v-69h-232v-228h-69v228z" />
    <glyph glyph-name="comma" unicode="," horiz-adv-x="309" 
d="M48 -149l94 259l73 -27l-113 -254z" />
    <glyph glyph-name="hyphen" unicode="-" horiz-adv-x="205" 
d="M0 205v72h205v-72h-205z" />
    <glyph glyph-name="period" unicode="." horiz-adv-x="309" 
d="M98 45c0 15 5 28 16 39s25 16 40 16c31 0 56 -24 56 -56c0 -15 -6 -28 -17 -39s-24 -16 -39 -16c-30 0 -56 26 -56 56z" />
    <glyph glyph-name="slash" unicode="/" horiz-adv-x="549" 
d="M-15 -173l493 1003l65 -31l-493 -1002z" />
    <glyph glyph-name="zero" unicode="0" 
d="M121 379c0 -91 18 -166 53 -225c36 -59 81 -89 135 -89c52 0 96 30 132 91c36 60 54 133 54 220c0 88 -18 162 -54 223c-35 59 -80 89 -133 89s-97 -30 -133 -89c-36 -61 -54 -134 -54 -220zM39 380c0 109 26 200 78 274s116 111 193 111c70 0 131 -33 183 -99
c57 -73 85 -169 85 -288c0 -123 -30 -221 -89 -295c-51 -63 -111 -95 -180 -95c-71 0 -133 33 -184 100c-57 74 -86 171 -86 292z" />
    <glyph glyph-name="one" unicode="1" 
d="M287 0v676h-125l44 78h166v-754h-85z" />
    <glyph glyph-name="two" unicode="2" 
d="M370 254l-154 -175h316v-79h-487l274 317c49 57 83 102 102 135s29 63 29 91c0 41 -15 75 -44 103c-30 28 -66 42 -108 42c-49 0 -87 -17 -116 -52c-19 -23 -30 -57 -34 -102h-85c6 56 19 99 39 130c21 31 48 56 83 74c34 18 72 27 113 27c65 0 121 -22 166 -65
c46 -43 69 -95 69 -158c0 -41 -11 -81 -32 -118s-64 -93 -131 -170z" />
    <glyph glyph-name="three" unicode="3" 
d="M294 358v74c95 0 149 46 149 129c0 37 -12 67 -36 91c-25 24 -56 36 -93 36c-75 0 -114 -34 -127 -120h-83c20 135 87 197 210 197c61 0 112 -19 152 -57s60 -87 60 -146c0 -75 -32 -130 -96 -166c69 -33 108 -98 108 -183c0 -65 -22 -119 -67 -162
c-44 -42 -100 -63 -167 -63c-40 0 -77 8 -110 25c-35 17 -61 41 -80 70c-19 27 -31 65 -34 112h82c5 -37 17 -65 35 -84c29 -31 66 -46 110 -46c41 0 76 15 105 44s43 65 43 108c0 91 -57 141 -161 141z" />
    <glyph glyph-name="four" unicode="4" 
d="M157 200h239v341zM480 796v-596h93v-76h-93v-124h-84v124h-386z" />
    <glyph glyph-name="five" unicode="5" 
d="M527 754v-78h-241l-49 -161c15 3 30 4 43 4c73 0 133 -25 180 -75c49 -49 73 -111 73 -187c0 -77 -26 -141 -79 -192s-119 -77 -198 -77c-99 0 -176 45 -231 134l67 47c43 -69 100 -104 170 -104c53 0 97 19 134 56c36 36 54 81 54 135c0 53 -18 97 -54 134
c-36 36 -80 54 -132 54c-43 0 -92 -17 -146 -51l110 361h299z" />
    <glyph glyph-name="six" unicode="6" 
d="M485 241c0 50 -17 92 -51 127c-35 35 -76 52 -125 52s-91 -17 -126 -52c-34 -35 -51 -76 -51 -125s17 -91 51 -126c35 -35 77 -52 126 -52c48 0 89 17 124 52s52 76 52 124zM111 417l257 356l63 -47l-174 -242c24 7 47 11 70 11c67 0 124 -24 171 -73
c47 -48 70 -107 70 -176c0 -71 -25 -132 -76 -183c-50 -50 -111 -75 -182 -75c-72 0 -134 25 -185 75s-76 110 -76 180c0 59 21 117 62 174z" />
    <glyph glyph-name="seven" unicode="7" 
d="M45 26l427 650h-411v78h555l-506 -772z" />
    <glyph glyph-name="eight" unicode="8" 
d="M163 212c0 -41 14 -75 43 -104c28 -29 62 -43 103 -43c40 0 74 14 102 42c29 29 43 63 43 103c0 41 -14 75 -43 102c-28 28 -62 42 -103 42c-39 0 -73 -14 -102 -42c-29 -27 -43 -61 -43 -100zM180 559c0 -37 13 -69 38 -95c25 -25 56 -38 93 -38c36 0 67 13 92 38
c25 26 38 57 38 94c0 36 -13 67 -38 92s-56 38 -93 38c-35 0 -66 -13 -92 -38c-25 -25 -38 -56 -38 -91zM192 392c-61 37 -92 93 -92 166c0 59 20 108 60 148c41 39 91 59 151 59c61 0 111 -20 150 -59c41 -39 61 -89 61 -148c0 -33 -9 -65 -26 -96c-17 -30 -40 -53 -69 -70
c69 -33 110 -99 110 -182c0 -63 -21 -116 -64 -159c-43 -42 -97 -63 -162 -63s-120 21 -165 63c-44 42 -66 94 -66 157c0 85 37 146 112 184z" />
    <glyph glyph-name="nine" unicode="9" 
d="M131 514c0 -51 17 -93 52 -127c34 -35 76 -52 126 -52c49 0 90 17 125 52s52 76 52 125c0 48 -17 90 -52 125c-35 34 -77 51 -126 51s-90 -17 -124 -51c-35 -35 -53 -76 -53 -123zM506 338l-257 -356l-63 47l173 242c-24 -7 -47 -11 -68 -11c-68 0 -125 24 -172 73
c-47 48 -71 106 -71 175c0 71 25 131 76 182c50 50 111 75 184 75c71 0 133 -25 184 -75c51 -49 77 -109 77 -178c0 -58 -21 -116 -63 -174z" />
    <glyph glyph-name="colon" unicode=":" horiz-adv-x="309" 
d="M98 426c0 15 6 27 17 38s24 16 39 16s28 -5 39 -16s17 -24 17 -39s-6 -28 -17 -39s-24 -16 -39 -16c-30 0 -56 24 -56 56zM98 45c0 15 5 28 16 39s25 16 40 16c31 0 56 -24 56 -56c0 -15 -6 -28 -17 -39s-24 -16 -39 -16c-30 0 -56 26 -56 56z" />
    <glyph glyph-name="semicolon" unicode=";" horiz-adv-x="309" 
d="M112 425c0 15 5 28 16 39s24 16 39 16c32 0 56 -24 56 -55c0 -15 -5 -28 -16 -39s-25 -16 -40 -16s-28 5 -39 16s-16 24 -16 39zM48 -149l94 259l73 -27l-113 -254z" />
    <glyph glyph-name="less" unicode="&#x3c;" 
d="M63 418l491 230v-85l-400 -182l400 -183v-84l-491 230v74z" />
    <glyph glyph-name="equal" unicode="=" 
d="M575 281h-533v66h533v-66zM575 422h-533v66h533v-66z" />
    <glyph glyph-name="greater" unicode="&#x3e;" 
d="M553 344l-490 -230v84l399 183l-399 182v84l490 -230v-73z" />
    <glyph glyph-name="question" unicode="?" horiz-adv-x="493" 
d="M190 45c0 31 26 55 57 55c15 0 28 -5 39 -16s16 -24 16 -39c0 -16 -5 -29 -16 -40s-24 -16 -39 -16c-32 0 -57 25 -57 56zM327 323h81c0 -51 -15 -93 -46 -125c-29 -31 -69 -47 -118 -47c-45 0 -84 15 -115 46c-31 32 -46 71 -46 116c0 76 41 124 137 153
c54 17 87 32 100 45c18 17 27 41 27 71s-10 55 -30 74c-19 20 -43 30 -73 30c-29 0 -52 -10 -71 -29s-28 -42 -28 -70c0 -12 1 -28 6 -48h-83c-3 22 -4 39 -4 52c0 49 17 90 52 123s78 49 130 49c53 0 96 -17 130 -52c35 -34 53 -77 53 -129c0 -57 -19 -102 -57 -135
c-21 -18 -65 -37 -131 -56c-51 -15 -77 -42 -77 -83c0 -23 8 -42 23 -58c16 -15 35 -23 58 -23c50 0 77 32 82 96z" />
    <glyph glyph-name="at" unicode="@" horiz-adv-x="814" 
d="M517 391c0 35 -11 64 -32 86c-20 22 -46 33 -79 33c-37 0 -69 -14 -94 -43s-38 -65 -38 -108c0 -37 10 -67 30 -92c21 -25 47 -37 78 -37c36 0 67 16 94 48c27 33 41 71 41 113zM539 574h74l-31 -256c-3 -19 -3 -36 -3 -51c0 -25 10 -37 30 -37c26 0 50 20 71 60
s32 85 32 134c0 80 -27 146 -81 198c-55 51 -125 77 -210 77c-89 0 -165 -31 -227 -93c-61 -62 -92 -138 -92 -229c0 -53 11 -102 34 -148s54 -84 95 -113c54 -40 123 -60 206 -60c79 0 159 20 240 59l7 3l24 -66l-5 -3c-86 -41 -174 -62 -265 -62c-101 0 -185 25 -252 74
c-50 36 -89 82 -116 137c-28 55 -42 115 -42 179c0 111 38 203 114 278c75 75 168 112 279 112c103 0 188 -32 257 -97c68 -64 102 -144 102 -240c0 -73 -18 -136 -54 -190s-78 -81 -127 -81c-41 0 -68 22 -82 67c-23 -26 -45 -44 -66 -54c-20 -10 -44 -15 -73 -15
c-55 0 -100 19 -136 58s-54 88 -54 147c0 63 20 116 61 158c40 42 90 63 150 63c55 0 100 -21 133 -63z" />
    <glyph glyph-name="A" unicode="A" horiz-adv-x="701" 
d="M224 292h255l-126 302zM601 0l-89 213h-322l-91 -213h-92l347 790l339 -790h-92z" />
    <glyph glyph-name="B" unicode="B" horiz-adv-x="600" 
d="M183 350v-271h96c37 0 66 3 86 8c20 6 38 17 54 33c27 25 40 57 40 95c0 44 -17 78 -50 103c-28 21 -75 32 -141 32h-85zM183 676v-255h63c31 0 55 3 70 8c17 5 32 15 45 29c21 23 32 53 32 90c0 85 -48 128 -145 128h-65zM286 0h-188v754h137c84 0 145 -20 183 -59
s57 -87 57 -146c0 -61 -25 -110 -74 -146c89 -25 142 -98 142 -191c0 -59 -21 -108 -63 -149c-47 -45 -102 -63 -194 -63z" />
    <glyph glyph-name="C" unicode="C" horiz-adv-x="730" 
d="M674 692v-104c-71 66 -147 99 -228 99c-83 0 -155 -31 -215 -92c-59 -61 -89 -135 -89 -221c0 -94 35 -171 104 -230c60 -53 127 -79 201 -79c81 0 156 33 227 99v-104c-72 -49 -148 -73 -227 -73c-107 0 -198 38 -275 114s-115 167 -115 274s38 199 115 276
c78 77 171 116 280 116c77 0 151 -25 222 -75z" />
    <glyph glyph-name="D" unicode="D" horiz-adv-x="716" 
d="M183 676v-597h73c100 0 178 29 235 87c56 56 84 126 84 211s-28 155 -83 212c-56 58 -135 87 -236 87h-73zM251 0h-153v754h155c67 0 125 -9 173 -26c48 -18 91 -46 129 -84c70 -71 105 -160 105 -267s-36 -196 -107 -267c-40 -39 -83 -68 -130 -85
c-46 -17 -103 -25 -172 -25z" />
    <glyph glyph-name="E" unicode="E" horiz-adv-x="545" 
d="M489 754v-78h-306v-224h297v-79h-297v-294h306v-79h-391v754h391z" />
    <glyph glyph-name="F" unicode="F" horiz-adv-x="490" 
d="M441 754v-78h-258v-224h250v-79h-250v-373h-85v754h343z" />
    <glyph glyph-name="G" unicode="G" horiz-adv-x="857" 
d="M486 300v78h315v-19c0 -79 -13 -143 -40 -191c-31 -55 -75 -99 -132 -132s-119 -49 -186 -49c-106 0 -197 38 -273 114c-75 77 -113 168 -113 274c0 109 38 201 115 277c77 77 169 115 278 115c65 0 122 -13 171 -39c51 -27 98 -66 147 -125l-62 -57
c-75 99 -152 141 -255 141c-86 0 -159 -31 -219 -92s-90 -134 -90 -220c0 -90 32 -165 97 -225c61 -57 129 -85 206 -85c41 0 81 10 122 29c39 19 72 45 97 77c27 35 43 78 46 129h-224z" />
    <glyph glyph-name="H" unicode="H" horiz-adv-x="750" 
d="M183 754v-307h385v307h84v-754h-84v369h-385v-369h-85v754h85z" />
    <glyph glyph-name="I" unicode="I" horiz-adv-x="280" 
d="M98 754h85v-754h-85v754z" />
    <glyph glyph-name="J" unicode="J" horiz-adv-x="347" 
d="M165 754h85v-545c0 -46 -4 -82 -12 -108s-22 -49 -41 -68c-31 -31 -69 -46 -114 -46c-43 0 -88 19 -135 56l47 65c31 -29 60 -43 87 -43c57 0 83 44 83 144v545z" />
    <glyph glyph-name="K" unicode="K" horiz-adv-x="643" 
d="M183 754v-324l321 324h113l-354 -352l365 -402h-115l-309 346l-21 -21v-325h-85v754h85z" />
    <glyph glyph-name="L" unicode="L" horiz-adv-x="405" 
d="M98 754h85v-675h207v-79h-292v754z" />
    <glyph glyph-name="M" unicode="M" horiz-adv-x="976" 
d="M158 0h-86l125 797l289 -637l296 637l117 -797h-86l-70 524l-258 -555l-253 556z" />
    <glyph glyph-name="N" unicode="N" horiz-adv-x="868" 
d="M183 0h-85v786l588 -616v584h84v-788l-587 615v-581z" />
    <glyph glyph-name="O" unicode="O" horiz-adv-x="898" 
d="M142 381c0 -93 32 -169 96 -230c61 -57 131 -86 209 -86c86 0 159 30 219 91s90 135 90 220c0 87 -30 161 -89 221c-60 60 -132 90 -217 90c-84 0 -157 -30 -218 -90c-60 -60 -90 -132 -90 -216zM57 381c0 105 39 195 116 271c78 77 170 115 277 115s199 -39 276 -116
s115 -168 115 -275s-39 -199 -116 -275c-78 -76 -171 -114 -279 -114c-96 0 -183 34 -261 102c-85 76 -128 173 -128 292z" />
    <glyph glyph-name="P" unicode="P" horiz-adv-x="517" 
d="M183 676v-269h68c104 0 161 48 161 136c0 89 -56 133 -167 133h-62zM256 330h-73v-330h-85v754h137c50 0 91 -5 124 -16c31 -10 58 -27 81 -51c37 -39 55 -88 55 -145c0 -65 -21 -117 -64 -155s-101 -57 -175 -57z" />
    <glyph glyph-name="Q" unicode="Q" horiz-adv-x="898" 
d="M435 303h109l130 -136c55 61 82 130 82 207c0 88 -30 162 -89 223c-59 60 -132 90 -218 90s-159 -30 -219 -90c-59 -61 -88 -135 -88 -222c0 -91 31 -165 94 -224c61 -57 131 -86 210 -86c63 0 120 18 170 55zM733 107l113 -114h-107l-64 68c-67 -49 -143 -74 -228 -74
c-100 0 -188 34 -263 101c-85 76 -127 172 -127 287c0 107 38 199 115 276s169 116 277 116c101 0 189 -34 264 -103c86 -77 129 -175 129 -292c0 -51 -9 -97 -26 -138s-44 -84 -83 -127z" />
    <glyph glyph-name="R" unicode="R" horiz-adv-x="568" 
d="M183 676v-271h52c108 0 166 48 166 137s-56 134 -168 134h-50zM295 337l239 -337h-102l-228 331h-21v-331h-85v754h122c89 0 155 -18 197 -53c45 -38 67 -91 67 -159c0 -56 -17 -103 -52 -141c-35 -37 -80 -59 -137 -64z" />
    <glyph glyph-name="S" unicode="S" horiz-adv-x="585" 
d="M501 649l-67 -44c-19 31 -38 52 -57 64s-43 18 -72 18c-35 0 -65 -11 -89 -33c-24 -21 -36 -49 -36 -83c0 -45 36 -82 107 -113l71 -32c61 -27 104 -56 131 -88c27 -31 40 -71 40 -119c0 -66 -23 -121 -70 -165c-46 -45 -103 -67 -170 -67c-59 0 -109 17 -150 51
c-41 33 -68 81 -82 143l81 23c21 -93 72 -139 154 -139c41 0 77 15 107 44c29 29 44 64 44 105c0 31 -9 57 -28 78s-52 42 -99 63l-68 32c-56 24 -93 50 -117 79s-36 64 -36 106c0 56 20 102 60 139c41 37 91 56 152 56c84 0 149 -39 194 -118z" />
    <glyph glyph-name="T" unicode="T" horiz-adv-x="480" 
d="M465 676h-183v-676h-84v676h-183v78h450v-78z" />
    <glyph glyph-name="U" unicode="U" horiz-adv-x="733" 
d="M98 754h85v-462c0 -44 2 -77 7 -100c5 -22 14 -42 28 -59c16 -20 38 -36 65 -49c28 -13 56 -19 84 -19c56 0 117 28 149 68c14 17 23 37 28 59c5 23 7 56 7 100v462h85v-485c0 -47 -5 -86 -15 -115c-11 -31 -28 -58 -51 -83c-53 -56 -121 -84 -203 -84s-150 28 -203 84
c-24 25 -41 52 -51 83c-10 29 -15 68 -15 115v485z" />
    <glyph glyph-name="V" unicode="V" horiz-adv-x="626" 
d="M7 754h93l213 -575l215 575h91l-307 -798z" />
    <glyph glyph-name="W" unicode="W" horiz-adv-x="1081" 
d="M7 754h93l200 -566l236 604l224 -604l220 566h93l-316 -793l-222 603l-238 -603z" />
    <glyph glyph-name="X" unicode="X" horiz-adv-x="568" 
d="M15 0l223 390l-203 364h95l157 -284l159 284h96l-208 -364l219 -390h-95l-172 310l-176 -310h-95z" />
    <glyph glyph-name="Y" unicode="Y" horiz-adv-x="597" 
d="M254 0v324l-247 430h97l193 -337l195 337h97l-251 -430v-324h-84z" />
    <glyph glyph-name="Z" unicode="Z" horiz-adv-x="604" 
d="M578 754l-412 -675h401v-79h-541l411 676h-358v78h499z" />
    <glyph glyph-name="bracketleft" unicode="[" horiz-adv-x="330" 
d="M280 749h-107v-872h107v-76h-190v1024h190v-76z" />
    <glyph glyph-name="backslash" unicode="\" horiz-adv-x="549" 
d="M6 799l65 31l493 -1003l-65 -30z" />
    <glyph glyph-name="bracketright" unicode="]" horiz-adv-x="330" 
d="M49 -123h107v872h-107v76h190v-1024h-190v76z" />
    <glyph glyph-name="asciicircum" unicode="^" horiz-adv-x="565" 
d="M282 689l-163 -277h-91l199 344h112l199 -344h-92z" />
    <glyph glyph-name="underscore" unicode="_" horiz-adv-x="565" 
d="M0 -150v78h565v-78h-565z" />
    <glyph glyph-name="grave" unicode="`" horiz-adv-x="565" 
d="M281 550l-153 154l84 38l119 -164z" />
    <glyph glyph-name="a" unicode="a" horiz-adv-x="593" 
d="M129 238c0 -51 14 -94 43 -128c29 -33 66 -50 111 -50c93 0 157 71 157 175c0 51 -15 93 -44 125s-66 48 -112 48c-44 0 -81 -16 -111 -49c-29 -31 -44 -72 -44 -121zM435 403v67h81v-470h-81v65c-44 -52 -98 -78 -162 -78c-65 0 -119 23 -162 70s-64 107 -64 179
c0 71 21 129 63 175c43 47 96 70 161 70s120 -26 164 -78z" />
    <glyph glyph-name="b" unicode="b" horiz-adv-x="593" 
d="M464 232c0 51 -15 92 -44 125s-65 50 -109 50c-95 0 -159 -69 -159 -172c0 -51 15 -93 44 -126s67 -49 113 -49c44 0 81 16 110 49c30 33 45 74 45 123zM77 825h81v-422c44 51 99 77 164 77s118 -23 160 -69c43 -47 64 -105 64 -176s-21 -131 -64 -178s-97 -70 -162 -70
s-119 26 -162 78v-65h-81v825z" />
    <glyph glyph-name="c" unicode="c" horiz-adv-x="492" 
d="M443 436v-106c-26 29 -50 49 -72 60s-47 17 -76 17c-47 0 -87 -17 -119 -50c-31 -33 -47 -74 -47 -124c0 -49 16 -91 47 -124c32 -33 71 -49 117 -49c29 0 56 6 79 18s46 33 74 64v-107c-51 -32 -101 -48 -150 -48c-70 0 -129 24 -177 71s-72 105 -72 174
c0 70 24 129 72 177c48 47 107 71 178 71c51 0 99 -15 146 -44z" />
    <glyph glyph-name="d" unicode="d" horiz-adv-x="593" 
d="M129 238c0 -51 14 -94 43 -128c29 -33 66 -50 111 -50c93 0 157 71 157 175c0 51 -15 92 -44 124s-66 48 -112 48c-44 0 -81 -16 -111 -49c-29 -31 -44 -71 -44 -120zM435 403v422h81v-825h-81v65c-43 -52 -97 -78 -163 -78c-65 0 -118 23 -161 70s-64 107 -64 178
s21 130 63 176c43 46 96 69 161 69s119 -26 164 -77z" />
    <glyph glyph-name="e" unicode="e" horiz-adv-x="544" 
d="M137 286h276c-7 37 -23 66 -48 88s-55 33 -90 33c-34 0 -64 -11 -90 -34s-42 -52 -48 -87zM498 232v-14h-366c2 -48 17 -86 44 -115s62 -43 105 -43c31 0 57 7 79 21c22 15 44 40 66 77l68 -38c-51 -89 -123 -133 -216 -133c-68 0 -124 23 -167 68
c-43 46 -64 105 -64 177c0 73 21 132 63 179c42 46 97 69 164 69s122 -23 163 -68s61 -105 61 -180z" />
    <glyph glyph-name="f" unicode="f" horiz-adv-x="271" 
d="M275 395h-118v-395h-80v395h-45v75h45v199c0 116 43 169 139 169c17 0 37 -3 59 -10v-81c-21 7 -39 11 -53 11c-51 0 -65 -23 -65 -108v-180h118v-75z" />
    <glyph glyph-name="g" unicode="g" horiz-adv-x="593" 
d="M129 234c0 -51 14 -92 42 -125c29 -33 66 -49 111 -49c46 0 84 16 113 49c30 33 45 74 45 124c0 51 -15 93 -44 126s-67 49 -113 49c-45 0 -82 -16 -111 -49s-43 -74 -43 -125zM436 470h81v-460c0 -51 -5 -91 -14 -120c-8 -30 -23 -57 -46 -80c-43 -47 -101 -71 -173 -71
c-66 0 -121 20 -164 61c-43 40 -65 92 -65 155h80c8 -95 58 -143 150 -143c100 0 151 62 151 186v67c-45 -51 -101 -77 -166 -77c-63 0 -116 23 -159 70s-64 106 -64 175c0 71 21 130 64 177s98 71 163 71s119 -26 162 -78v67z" />
    <glyph glyph-name="h" unicode="h" horiz-adv-x="531" 
d="M77 0v825h81v-410c37 43 81 65 134 65s95 -17 125 -52c25 -27 37 -73 37 -137v-291h-80v286c0 85 -29 121 -98 121c-84 0 -118 -51 -118 -173v-234h-81z" />
    <glyph glyph-name="i" unicode="i" horiz-adv-x="235" 
d="M60 647c0 31 26 57 57 57c32 0 58 -26 58 -58c0 -15 -6 -29 -17 -41c-11 -11 -25 -16 -41 -16s-30 6 -41 17s-16 25 -16 41zM77 470h81v-470h-81v470z" />
    <glyph glyph-name="j" unicode="j" horiz-adv-x="235" 
d="M60 647c0 15 6 29 17 40s24 17 40 17s30 -6 41 -17s17 -25 17 -41c0 -15 -6 -29 -17 -41c-11 -11 -25 -16 -41 -16s-30 6 -41 17s-16 25 -16 41zM77 470h81v-734h-81v734z" />
    <glyph glyph-name="k" unicode="k" horiz-adv-x="476" 
d="M77 825h81v-529l170 174h107l-201 -200l239 -270h-105l-190 214l-20 -21v-193h-81v825z" />
    <glyph glyph-name="l" unicode="l" horiz-adv-x="234" 
d="M77 825h81v-825h-81v825z" />
    <glyph glyph-name="m" unicode="m" horiz-adv-x="769" 
d="M77 0v470h81v-51c31 41 69 62 116 62c58 0 101 -25 128 -76c30 51 76 76 138 76c50 0 89 -17 118 -51c23 -29 34 -73 34 -132v-298h-80v285c0 87 -25 123 -84 123c-67 0 -101 -49 -101 -147v-261h-81v279c0 86 -29 129 -86 129c-68 0 -102 -51 -102 -153v-255h-81z" />
    <glyph glyph-name="n" unicode="n" horiz-adv-x="530" 
d="M77 0v470h81v-57c37 45 81 68 134 68c54 0 96 -17 125 -52c25 -28 37 -74 37 -137v-292h-81v277c0 97 -26 131 -99 131c-81 0 -116 -52 -116 -173v-235h-81z" />
    <glyph glyph-name="o" unicode="o" horiz-adv-x="590" 
d="M129 236c0 -52 15 -94 46 -127s70 -49 118 -49c49 0 90 16 121 48c31 33 47 74 47 125s-16 92 -47 125s-71 49 -120 49c-47 0 -86 -16 -118 -49c-31 -33 -47 -73 -47 -122zM47 237c0 67 24 125 72 172c49 47 107 71 176 71s128 -24 176 -71c48 -48 72 -107 72 -176
c0 -70 -24 -128 -72 -175c-47 -47 -107 -71 -178 -71c-69 0 -128 24 -175 72c-47 49 -71 108 -71 178z" />
    <glyph glyph-name="p" unicode="p" horiz-adv-x="593" 
d="M464 229c0 52 -15 95 -44 128c-29 34 -65 51 -110 51s-83 -17 -113 -50c-30 -32 -45 -74 -45 -126c0 -50 15 -91 45 -124c29 -32 67 -48 113 -48c43 0 80 16 109 48c30 33 45 73 45 121zM158 65v-329h-81v734h81v-67c45 52 99 78 162 78c65 0 119 -24 162 -71
s64 -106 64 -178c0 -71 -21 -129 -64 -176c-42 -46 -95 -69 -160 -69s-119 26 -164 78z" />
    <glyph glyph-name="q" unicode="q" horiz-adv-x="593" 
d="M129 235c0 -50 14 -92 43 -126c29 -33 66 -49 111 -49c47 0 84 16 113 47c29 33 44 74 44 125s-15 93 -44 126s-66 50 -111 50s-82 -17 -112 -50c-29 -32 -44 -73 -44 -123zM516 -264h-81v329c-45 -52 -99 -78 -164 -78s-118 23 -161 69c-42 46 -63 105 -63 176
s21 131 64 178c42 47 96 71 162 71c65 0 119 -26 162 -78v67h81v-734z" />
    <glyph glyph-name="r" unicode="r" horiz-adv-x="333" 
d="M77 0v470h81v-51c20 24 39 41 51 50c14 8 32 12 55 12s47 -7 72 -20l-39 -73c-16 11 -31 16 -46 16c-67 0 -93 -47 -93 -156v-248h-81z" />
    <glyph glyph-name="s" unicode="s" horiz-adv-x="396" 
d="M335 396l-66 -36c-17 31 -38 47 -65 47c-15 0 -29 -5 -40 -15c-11 -11 -17 -23 -17 -37s5 -25 15 -34c9 -9 30 -20 61 -33c56 -23 93 -45 112 -66c19 -20 29 -47 29 -82c0 -44 -15 -81 -46 -110s-69 -43 -114 -43c-79 0 -134 40 -165 119l71 30c13 -29 27 -49 41 -60
c13 -11 30 -16 53 -16s42 7 56 21c15 14 22 32 22 53c0 17 -5 32 -16 43c-11 10 -31 22 -60 35c-54 23 -90 44 -109 62c-18 19 -27 44 -27 75c0 37 13 68 39 93s59 38 98 38c57 0 99 -28 128 -84z" />
    <glyph glyph-name="t" unicode="t" horiz-adv-x="242" 
d="M241 395h-83v-395h-81v395h-49v75h49v169h81v-169h83v-75z" />
    <glyph glyph-name="u" unicode="u" horiz-adv-x="526" 
d="M77 470h81v-274c0 -46 7 -78 20 -97c19 -26 48 -39 85 -39c38 0 67 13 86 39c13 18 20 50 20 97v274h81v-283c0 -39 -4 -70 -13 -92c-8 -23 -22 -43 -41 -61c-35 -31 -79 -47 -133 -47c-53 0 -97 16 -132 47c-20 18 -34 38 -42 61s-12 53 -12 92v283z" />
    <glyph glyph-name="v" unicode="v" horiz-adv-x="479" 
d="M9 470h91l140 -316l139 316h91l-230 -500z" />
    <glyph glyph-name="w" unicode="w" horiz-adv-x="771" 
d="M9 470h91l139 -318l146 354l147 -354l140 318h91l-233 -502l-145 349l-145 -349z" />
    <glyph glyph-name="x" unicode="x" horiz-adv-x="514" 
d="M9 0l201 250l-171 220h98l122 -160l123 160h100l-172 -220l195 -250h-97l-149 191l-149 -191h-101z" />
    <glyph glyph-name="y" unicode="y" horiz-adv-x="520" 
d="M73 -264l152 308l-216 426h94l165 -337l152 337h91l-346 -734h-92z" />
    <glyph glyph-name="z" unicode="z" horiz-adv-x="520" 
d="M510 470l-338 -395h324v-75h-487l340 395h-277v75h438z" />
    <glyph glyph-name="braceleft" unicode="{" horiz-adv-x="330" 
d="M136 312c25 -14 43 -31 53 -51c11 -19 16 -46 16 -82v-204c0 -43 5 -71 14 -83c10 -13 32 -19 67 -19h8v-71h-31h-5c-48 0 -83 13 -103 38c-21 25 -32 68 -32 128v208c0 33 -5 57 -15 72c-10 16 -27 27 -50 34v66c45 12 65 41 65 100v222c0 109 41 155 142 155l29 -1v-71
h-10c-33 0 -54 -6 -64 -19c-10 -12 -15 -38 -15 -79v-211c0 -37 -5 -64 -15 -83c-9 -19 -27 -35 -54 -49z" />
    <glyph glyph-name="bar" unicode="|" horiz-adv-x="565" 
d="M240 -188v942h85v-942h-85z" />
    <glyph glyph-name="braceright" unicode="}" horiz-adv-x="330" 
d="M193 313c-25 14 -43 31 -53 51s-15 48 -15 83v205c0 43 -5 71 -15 83c-11 12 -33 18 -66 18h-9v72h31c103 0 141 -46 141 -167v-208c0 -65 17 -93 65 -106v-67c-47 -11 -65 -40 -65 -100v-220c0 -109 -42 -156 -142 -156l-30 1v71h10c33 0 54 6 64 19c11 13 16 40 16 79
v211c0 37 5 64 15 83c9 18 26 34 53 48z" />
    <glyph glyph-name="asciitilde" unicode="~" horiz-adv-x="754" 
d="M154 658l-49 32c24 49 47 83 70 102s51 28 85 28c29 0 72 -13 127 -38c51 -23 88 -35 109 -35c22 0 40 5 54 16c15 11 32 31 49 60l49 -30c-42 -85 -96 -127 -163 -127c-25 0 -56 8 -93 25l-64 29c-31 13 -56 20 -74 20c-37 0 -70 -27 -100 -82z" />
    <glyph glyph-name="nbspace" unicode="&#xa0;" horiz-adv-x="309" 
 />
    <glyph glyph-name="exclamdown" unicode="&#xa1;" horiz-adv-x="313" 
d="M116 424h81v-600h-81v600zM211 532c0 -15 -5 -28 -16 -39s-23 -16 -38 -16s-28 6 -39 17s-16 24 -16 39s5 28 16 39s24 17 39 17s28 -6 38 -17c11 -11 16 -24 16 -40z" />
    <glyph glyph-name="cent" unicode="&#xa2;" 
d="M309 214v341c-38 -8 -69 -28 -93 -60c-23 -31 -35 -68 -35 -111c0 -85 52 -154 128 -170zM375 735v-105c41 -4 81 -19 120 -44v-106c-39 44 -79 70 -120 77v-344c42 7 83 33 123 79v-105c-45 -29 -86 -45 -123 -48v-112h-66v114c-61 7 -111 34 -151 80
c-39 47 -59 101 -59 162c0 63 20 117 59 164c40 46 90 73 151 82v106h66z" />
    <glyph glyph-name="sterling" unicode="&#xa3;" 
d="M283 332h142v-64h-120c5 -17 7 -32 7 -44c0 -33 -11 -70 -33 -109l14 -5c21 -7 39 -13 52 -18c40 -15 68 -22 85 -22c31 0 61 25 90 75l68 -41c-39 -77 -91 -116 -155 -116c-28 0 -70 10 -125 30c-51 18 -86 27 -105 27c-33 0 -63 -20 -90 -59l-66 43c41 62 90 94 146 97
c22 33 33 64 33 95c0 13 -3 28 -8 47h-126v64h99l-5 10c-13 25 -22 43 -27 54c-20 39 -33 68 -40 89c-7 22 -10 45 -10 69c0 59 21 109 64 150c44 41 97 61 159 61c63 0 116 -21 157 -64c41 -42 62 -95 62 -160l-83 -23c-3 43 -9 74 -17 93c-22 48 -61 72 -118 72
c-41 0 -74 -13 -99 -38c-27 -27 -40 -59 -40 -97c0 -19 4 -40 13 -63c8 -23 24 -55 48 -99c15 -25 23 -45 28 -54z" />
    <glyph glyph-name="Euro" unicode="&#x20ac;" 
d="M502 65l1 -78c-107 0 -198 38 -275 114c-67 67 -105 143 -114 229h330v-64h-229c17 -47 46 -87 86 -122c61 -53 128 -79 201 -79zM502 767v-80c-83 0 -155 -31 -215 -92c-34 -35 -58 -73 -73 -116h230v-63h-330c9 90 47 168 115 235c77 77 168 116 273 116z" />
    <glyph glyph-name="yen" unicode="&#xa5;" 
d="M573 433h-160l-58 -98h218v-64h-224v-271h-85v271h-220v64h214l-56 98h-158v64h121l-147 257h97l192 -337l195 337h98l-150 -257h123v-64z" />
    <glyph glyph-name="Scaron" unicode="&#x160;" horiz-adv-x="585" 
d="M408 997l58 -46l-157 -135l-160 135l60 46l100 -86zM501 649l-67 -44c-19 31 -38 52 -57 64s-43 18 -72 18c-35 0 -65 -11 -89 -33c-24 -21 -36 -49 -36 -83c0 -45 36 -82 107 -113l71 -32c61 -27 104 -56 131 -88c27 -31 40 -71 40 -119c0 -66 -23 -121 -70 -165
c-46 -45 -103 -67 -170 -67c-59 0 -109 17 -150 51c-41 33 -68 81 -82 143l81 23c21 -93 72 -139 154 -139c41 0 77 15 107 44c29 29 44 64 44 105c0 31 -9 57 -28 78s-52 42 -99 63l-68 32c-56 24 -93 50 -117 79s-36 64 -36 106c0 56 20 102 60 139c41 37 91 56 152 56
c84 0 149 -39 194 -118z" />
    <glyph glyph-name="section" unicode="&#xa7;" 
d="M186 318c0 -35 12 -65 35 -89c24 -24 53 -36 87 -36c33 0 62 12 87 36c23 24 35 53 35 88c0 34 -12 63 -35 87c-25 24 -54 36 -87 36s-62 -12 -86 -36s-36 -53 -36 -86zM104 3h82c5 -92 39 -131 114 -131c72 0 113 42 113 113c0 56 -28 91 -100 118l-49 19
c-60 23 -102 48 -126 77s-36 68 -36 115c0 85 38 144 113 179c-67 37 -95 82 -95 153c0 53 19 97 57 133s85 54 141 54c31 0 61 -7 90 -20c28 -13 50 -31 65 -54c23 -33 35 -79 38 -139h-79c0 91 -38 136 -113 136c-35 0 -63 -11 -85 -33c-21 -21 -32 -49 -32 -84
c0 -29 10 -53 30 -72c15 -15 51 -32 108 -51c64 -23 109 -49 135 -79c27 -29 40 -70 40 -121c0 -39 -9 -73 -27 -101c-17 -27 -46 -53 -87 -76c35 -21 59 -43 74 -66c14 -24 21 -54 21 -91c0 -57 -18 -102 -55 -137s-84 -52 -143 -52c-61 0 -108 19 -143 56
c-34 36 -51 87 -51 154z" />
    <glyph glyph-name="scaron" unicode="&#x161;" horiz-adv-x="396" 
d="M335 396l-66 -36c-17 31 -38 47 -65 47c-15 0 -29 -5 -40 -15c-11 -11 -17 -23 -17 -37s5 -25 15 -34c9 -9 30 -20 61 -33c56 -23 93 -45 112 -66c19 -20 29 -47 29 -82c0 -44 -15 -81 -46 -110s-69 -43 -114 -43c-79 0 -134 40 -165 119l71 30c13 -29 27 -49 41 -60
c13 -11 30 -16 53 -16s42 7 56 21c15 14 22 32 22 53c0 17 -5 32 -16 43c-11 10 -31 22 -60 35c-54 23 -90 44 -109 62c-18 19 -27 44 -27 75c0 37 13 68 39 93s59 38 98 38c57 0 99 -28 128 -84zM308 742l56 -45l-155 -147l-158 147l59 45l99 -94z" />
    <glyph glyph-name="copyright" unicode="&#xa9;" horiz-adv-x="837" 
d="M424 704c-91 0 -170 -32 -235 -95s-97 -140 -97 -230c0 -91 32 -169 95 -233c64 -64 141 -96 231 -96c91 0 168 32 231 96c64 64 96 141 96 231c0 89 -32 165 -95 230s-139 97 -226 97zM425 767c104 0 194 -39 270 -116s114 -168 114 -274c0 -107 -38 -199 -115 -275
s-169 -114 -276 -114c-108 0 -200 38 -275 114c-76 77 -114 169 -114 278c0 107 38 199 115 274s170 113 281 113zM588 544l4 -3v-96l-20 23c-41 49 -87 74 -138 74c-45 0 -85 -17 -119 -51c-33 -34 -49 -74 -49 -120c0 -45 17 -85 50 -118s73 -50 118 -50
c51 0 97 23 138 70l20 23v-95l-4 -3c-48 -39 -99 -58 -152 -58c-65 0 -120 23 -166 69c-47 46 -70 101 -70 164s23 118 69 163c46 46 101 69 165 69c54 0 105 -20 154 -61z" />
    <glyph glyph-name="ordfeminine" unicode="&#xaa;" horiz-adv-x="405" 
d="M100 612c0 -31 9 -56 26 -75c18 -20 41 -30 68 -30s50 10 69 29c18 19 27 43 27 74s-9 55 -27 73c-18 19 -41 28 -69 28c-53 0 -94 -43 -94 -99zM286 714v37h54v-283h-54v36c-26 -29 -59 -44 -98 -44c-41 0 -75 14 -102 42c-27 29 -40 65 -40 108s13 78 39 106
c27 28 61 42 102 42c40 0 73 -15 99 -44z" />
    <glyph glyph-name="guillemotleft" unicode="&#xab;" horiz-adv-x="487" 
d="M263 412l-135 -171l135 -166l-53 -41l-168 207l168 212zM431 412l-135 -171l135 -166l-53 -41l-169 207l169 212z" />
    <glyph glyph-name="logicalnot" unicode="&#xac;" horiz-adv-x="565" 
d="M528 0h-85v223h-405v79h490v-302z" />
    <glyph glyph-name="sfthyphen" unicode="&#xad;" horiz-adv-x="205" 
d="M0 205v72h205v-72h-205z" />
    <glyph glyph-name="registered" unicode="&#xae;" horiz-adv-x="837" 
d="M424 704c-91 0 -170 -32 -235 -95s-97 -140 -97 -230c0 -91 32 -169 95 -233c64 -64 141 -96 231 -96c91 0 168 32 231 96c64 64 96 141 96 231c0 89 -32 165 -95 230s-139 97 -226 97zM425 767c104 0 194 -39 270 -116s114 -168 114 -274c0 -107 -38 -199 -115 -275
s-169 -114 -276 -114c-108 0 -200 38 -275 114c-76 77 -114 169 -114 278c0 107 38 199 115 274s170 113 281 113zM385 537v-132h20c50 0 75 22 75 66s-27 66 -81 66h-14zM442 347l138 -200h-79l-116 171v-171h-65v453h77c99 0 149 -45 149 -129c0 -69 -37 -115 -104 -124z
" />
    <glyph glyph-name="macron" unicode="&#xaf;" horiz-adv-x="565" 
d="M131 596v68h304v-68h-304z" />
    <glyph glyph-name="degree" unicode="&#xb0;" horiz-adv-x="641" 
d="M322 705c-25 0 -47 -9 -65 -26c-18 -18 -27 -39 -27 -64s9 -47 27 -65c17 -17 39 -26 64 -26s46 9 64 26c17 18 26 40 26 65s-9 46 -26 63c-18 18 -39 27 -63 27zM323 765c41 0 76 -15 105 -44s44 -65 44 -106c0 -42 -15 -78 -45 -107c-29 -29 -65 -44 -106 -44
c-42 0 -78 15 -107 44s-44 65 -44 106c0 43 15 78 44 107c30 29 66 44 109 44z" />
    <glyph glyph-name="plusminus" unicode="&#xb1;" 
d="M575 0h-533v69h533v-69zM274 350h-232v69h232v228h69v-228h232v-69h-232v-220h-69v220z" />
    <glyph glyph-name="twosuperior" unicode="&#xb2;" horiz-adv-x="437" 
d="M260 453l-90 -98h191v-53h-314l176 193c31 35 51 60 63 79c11 19 17 37 17 52c0 23 -9 43 -26 58c-17 16 -39 24 -64 24c-55 0 -85 -30 -90 -91h-60c3 36 11 63 24 82c29 41 70 62 125 62c42 0 77 -13 106 -40c29 -26 44 -58 44 -96c0 -24 -7 -48 -20 -71
c-13 -21 -41 -56 -82 -101z" />
    <glyph glyph-name="threesuperior" unicode="&#xb3;" horiz-adv-x="437" 
d="M194 513v51c62 0 93 24 93 72c0 40 -32 71 -77 71c-44 0 -66 -19 -75 -71h-59c13 83 57 125 134 125c40 0 73 -12 98 -35s38 -53 38 -88c0 -39 -18 -71 -54 -98c41 -27 61 -63 61 -108c0 -40 -14 -73 -42 -99c-28 -25 -64 -38 -107 -38c-85 0 -137 46 -142 129h57
c8 -51 37 -76 87 -76c25 0 46 8 63 24c17 17 25 37 25 61c0 53 -33 80 -100 80z" />
    <glyph glyph-name="Zcaron" unicode="&#x17d;" horiz-adv-x="604" 
d="M578 754l-412 -675h401v-79h-541l411 676h-358v78h499zM479 951l-58 46l-99 -86l-99 86l-60 -46l159 -135z" />
    <glyph glyph-name="paragraph" unicode="&#xb6;" 
d="M299 -111h-71v482h-18c-52 0 -94 17 -127 52c-33 36 -49 81 -49 136c0 127 76 195 219 195h324l-38 -66h-50v-799h-72v799h-118v-799z" />
    <glyph glyph-name="middot" unicode="&#xb7;" horiz-adv-x="309" 
d="M98 378c0 15 5 28 16 39s25 16 40 16c31 0 56 -25 56 -56c0 -15 -6 -28 -17 -39s-24 -16 -39 -16c-30 0 -56 25 -56 56z" />
    <glyph glyph-name="zcaron" unicode="&#x17e;" horiz-adv-x="520" 
d="M510 470l-338 -395h324v-75h-487l340 395h-277v75h438zM379 742l56 -45l-155 -147l-158 147l59 45l99 -94z" />
    <glyph glyph-name="onesuperior" unicode="&#xb9;" horiz-adv-x="437" 
d="M202 302v399h-80l32 53h108v-452h-60z" />
    <glyph glyph-name="ordmasculine" unicode="&#xba;" horiz-adv-x="405" 
d="M101 611c0 -31 9 -56 28 -75s43 -29 72 -29c31 0 55 10 74 29s29 43 29 73c0 59 -42 102 -102 102c-57 0 -101 -44 -101 -100zM47 611c0 40 15 75 45 104c31 29 68 43 111 43s80 -15 110 -44s45 -64 45 -105c0 -42 -15 -77 -45 -106c-29 -29 -67 -43 -112 -43
c-43 0 -80 14 -110 43c-29 29 -44 65 -44 108z" />
    <glyph glyph-name="guillemotright" unicode="&#xbb;" horiz-adv-x="487" 
d="M225 75l134 166l-134 171l52 41l169 -212l-169 -207zM57 75l134 166l-134 171l52 41l169 -212l-169 -207z" />
    <glyph glyph-name="OE" unicode="&#x152;" horiz-adv-x="1194" 
d="M142 381c0 -93 33 -171 99 -232c59 -56 126 -84 203 -84c85 0 158 30 218 91s90 134 90 219c0 86 -30 160 -89 221c-60 61 -132 91 -215 91s-154 -30 -215 -91s-91 -132 -91 -215zM1138 754v-78h-301v-225h292v-78h-292v-294h301v-79h-386v145
c-76 -105 -176 -158 -300 -158c-109 0 -202 38 -279 114c-77 77 -116 168 -116 274c0 93 31 177 92 252c77 93 176 140 299 140s225 -54 304 -161v148h386z" />
    <glyph glyph-name="oe" unicode="&#x153;" horiz-adv-x="962" 
d="M129 235c0 -51 15 -93 46 -126s70 -49 117 -49c49 0 89 16 120 47c31 32 47 73 47 124c0 52 -15 94 -46 127s-71 49 -120 49c-47 0 -86 -16 -117 -49s-47 -74 -47 -123zM552 287h278c-15 79 -63 120 -139 120c-73 0 -119 -40 -139 -120zM916 235v-16h-371
c3 -47 18 -86 46 -115c29 -29 65 -44 108 -44c60 0 107 33 142 100l68 -40c-51 -89 -123 -133 -216 -133c-41 0 -80 10 -115 30c-35 21 -62 48 -79 82c-43 -72 -121 -112 -207 -112c-68 0 -126 24 -174 71c-47 48 -71 106 -71 174c0 69 24 128 72 176s107 72 177 72
c44 0 84 -10 119 -29c36 -21 64 -48 84 -82c35 70 105 111 190 111c69 0 124 -22 165 -66c41 -45 62 -104 62 -179z" />
    <glyph glyph-name="Ydieresis" unicode="&#x178;" horiz-adv-x="597" 
d="M348 903c0 31 26 57 58 57c31 0 57 -26 57 -58s-26 -58 -57 -58c-16 0 -30 6 -41 17s-17 25 -17 42zM133 903c0 31 26 57 58 57c31 0 58 -26 58 -58s-27 -58 -58 -58c-16 0 -30 6 -41 17s-17 25 -17 42zM254 0v324l-247 430h97l193 -337l195 337h97l-251 -430v-324h-84z
" />
    <glyph glyph-name="questiondown" unicode="&#xbf;" horiz-adv-x="493" 
d="M302 530c0 -15 -5 -28 -16 -39s-24 -16 -39 -16c-32 0 -57 25 -57 56c0 15 6 28 17 39s24 16 40 16c15 0 28 -5 39 -16s16 -24 16 -40zM166 252h-81c0 51 15 93 45 124c30 32 70 48 119 48c45 0 83 -16 114 -47s47 -69 47 -115c0 -78 -40 -121 -137 -153
c-54 -17 -87 -32 -100 -45c-18 -17 -27 -40 -27 -69c0 -30 10 -55 29 -75s44 -30 74 -30c56 0 99 43 99 99c0 13 -2 29 -7 48h83c3 -22 5 -40 5 -53c0 -48 -18 -89 -53 -122s-78 -50 -129 -50c-53 0 -96 17 -131 52s-52 79 -52 130c0 57 19 102 57 135c21 18 64 37 130 56
c51 15 77 42 77 83c0 22 -8 41 -24 57c-15 15 -34 23 -57 23c-49 0 -76 -32 -81 -96z" />
    <glyph glyph-name="Agrave" unicode="&#xc0;" horiz-adv-x="701" 
d="M224 292h255l-126 302zM601 0l-89 213h-322l-91 -213h-92l347 790l339 -790h-92zM206 947l162 -132l49 36l-135 147z" />
    <glyph glyph-name="Aacute" unicode="&#xc1;" horiz-adv-x="701" 
d="M224 292h255l-126 302zM601 0l-89 213h-322l-91 -213h-92l347 790l339 -790h-92zM503 947l-75 51l-136 -147l49 -36z" />
    <glyph glyph-name="Acircumflex" unicode="&#xc2;" horiz-adv-x="701" 
d="M224 292h255l-126 302zM601 0l-89 213h-322l-91 -213h-92l347 790l339 -790h-92zM200 862l58 -46l99 85l100 -85l59 46l-159 135z" />
    <glyph glyph-name="Atilde" unicode="&#xc3;" horiz-adv-x="701" 
d="M224 292h255l-126 302zM601 0l-89 213h-322l-91 -213h-92l347 790l339 -790h-92zM239 844c15 32 31 48 46 48c13 0 34 -7 63 -22c31 -16 56 -24 74 -24c43 0 77 27 103 82l-48 36c-17 -31 -34 -47 -52 -47c-13 0 -33 7 -62 22c-31 15 -55 23 -72 23
c-41 0 -74 -27 -101 -80z" />
    <glyph glyph-name="Adieresis" unicode="&#xc4;" horiz-adv-x="701" 
d="M403 903c0 31 26 57 58 57c31 0 58 -26 58 -58s-27 -58 -58 -58c-16 0 -30 6 -41 17s-17 25 -17 42zM188 903c0 31 27 57 58 57c32 0 58 -26 58 -58s-26 -58 -58 -58c-16 0 -30 6 -41 17s-17 25 -17 42zM224 292h255l-126 302zM601 0l-89 213h-322l-91 -213h-92l347 790
l339 -790h-92z" />
    <glyph glyph-name="Aring" unicode="&#xc5;" horiz-adv-x="701" 
d="M224 292h255l-126 302zM601 0l-89 213h-322l-91 -213h-92l347 790l339 -790h-92zM252 912c0 -29 10 -53 30 -73s44 -30 72 -30c29 0 53 10 73 29c20 21 30 45 30 73c0 56 -47 103 -103 103c-28 0 -52 -10 -72 -31c-20 -20 -30 -44 -30 -71zM307 912c0 25 22 46 47 46
c28 0 48 -20 48 -47c0 -26 -22 -48 -48 -48c-25 0 -47 22 -47 49z" />
    <glyph glyph-name="AE" unicode="&#xc6;" horiz-adv-x="1016" 
d="M233 290h252l-125 296zM607 0l-89 211h-321l-90 -211h-92l336 754h331l33 -78h-304l94 -226h297l34 -78h-297l122 -293h307l33 -79h-394z" />
    <glyph glyph-name="Ccedilla" unicode="&#xc7;" horiz-adv-x="730" 
d="M674 692v-104c-71 66 -147 99 -228 99c-83 0 -155 -31 -215 -92c-59 -61 -89 -135 -89 -221c0 -94 35 -171 104 -230c60 -53 127 -79 201 -79c81 0 156 33 227 99v-104c-72 -49 -148 -73 -227 -73c-107 0 -198 38 -275 114s-115 167 -115 274s38 199 115 276
c78 77 171 116 280 116c77 0 151 -25 222 -75zM490 -89l-81 37l-101 -154l57 -29z" />
    <glyph glyph-name="Egrave" unicode="&#xc8;" horiz-adv-x="545" 
d="M489 754v-78h-306v-224h297v-79h-297v-294h306v-79h-391v754h391zM146 947l162 -132l49 36l-135 147z" />
    <glyph glyph-name="Eacute" unicode="&#xc9;" horiz-adv-x="545" 
d="M489 754v-78h-306v-224h297v-79h-297v-294h306v-79h-391v754h391zM436 947l-75 51l-136 -147l49 -36z" />
    <glyph glyph-name="Ecircumflex" unicode="&#xca;" horiz-adv-x="545" 
d="M489 754v-78h-306v-224h297v-79h-297v-294h306v-79h-391v754h391zM136 862l58 -46l99 85l100 -85l59 46l-159 135z" />
    <glyph glyph-name="Edieresis" unicode="&#xcb;" horiz-adv-x="545" 
d="M348 903c0 31 26 57 58 57c31 0 57 -26 57 -58s-26 -58 -57 -58c-16 0 -30 6 -41 17s-17 25 -17 42zM133 903c0 31 26 57 58 57c31 0 58 -26 58 -58s-27 -58 -58 -58c-16 0 -30 6 -41 17s-17 25 -17 42zM489 754v-78h-306v-224h297v-79h-297v-294h306v-79h-391v754h391z
" />
    <glyph glyph-name="Igrave" unicode="&#xcc;" horiz-adv-x="280" 
d="M98 754h85v-754h-85v754zM10 947l136 -132l49 32l-109 151z" />
    <glyph glyph-name="Iacute" unicode="&#xcd;" horiz-adv-x="280" 
d="M98 754h85v-754h-85v754zM271 947l-76 51l-109 -151l49 -32z" />
    <glyph glyph-name="Icircumflex" unicode="&#xce;" horiz-adv-x="280" 
d="M98 754h85v-754h-85v754zM1 862l55 -46l84 85l84 -85l56 46l-140 135z" />
    <glyph glyph-name="Idieresis" unicode="&#xcf;" horiz-adv-x="280" 
d="M98 754h85v-754h-85v754zM6 903c0 -17 5 -31 16 -42c12 -11 26 -17 41 -17c32 0 58 26 58 58s-26 58 -58 58c-31 0 -57 -26 -57 -57zM159 903c0 -33 26 -59 58 -59c31 0 57 26 57 58s-26 58 -58 58c-31 0 -57 -26 -57 -57z" />
    <glyph glyph-name="Eth" unicode="&#xd0;" horiz-adv-x="716" 
d="M183 369v-290h73c100 0 178 29 235 87c56 56 84 126 84 211s-28 155 -83 212c-56 58 -135 87 -236 87h-73v-232h181v-75h-181zM252 0h-153v369h-76v75h76v310h154c67 0 125 -9 173 -26c48 -18 91 -46 129 -84c70 -71 105 -160 105 -267s-36 -196 -107 -267
c-40 -39 -83 -67 -130 -84s-104 -26 -171 -26z" />
    <glyph glyph-name="Ntilde" unicode="&#xd1;" horiz-adv-x="868" 
d="M183 0h-85v786l588 -616v584h84v-788l-587 615v-581zM323 844c15 32 31 48 46 48c13 0 34 -7 63 -22c31 -16 56 -24 74 -24c43 0 77 27 103 82l-48 36c-17 -31 -34 -47 -52 -47c-13 0 -33 7 -62 22c-31 15 -55 23 -72 23c-41 0 -74 -27 -101 -80z" />
    <glyph glyph-name="Ograve" unicode="&#xd2;" horiz-adv-x="898" 
d="M142 381c0 -93 32 -169 96 -230c61 -57 131 -86 209 -86c86 0 159 30 219 91s90 135 90 220c0 87 -30 161 -89 221c-60 60 -132 90 -217 90c-84 0 -157 -30 -218 -90c-60 -60 -90 -132 -90 -216zM57 381c0 105 39 195 116 271c78 77 170 115 277 115s199 -39 276 -116
s115 -168 115 -275s-39 -199 -116 -275c-78 -76 -171 -114 -279 -114c-96 0 -183 34 -261 102c-85 76 -128 173 -128 292zM300 947l162 -132l49 36l-135 147z" />
    <glyph glyph-name="Oacute" unicode="&#xd3;" horiz-adv-x="898" 
d="M142 381c0 -93 32 -169 96 -230c61 -57 131 -86 209 -86c86 0 159 30 219 91s90 135 90 220c0 87 -30 161 -89 221c-60 60 -132 90 -217 90c-84 0 -157 -30 -218 -90c-60 -60 -90 -132 -90 -216zM57 381c0 105 39 195 116 271c78 77 170 115 277 115s199 -39 276 -116
s115 -168 115 -275s-39 -199 -116 -275c-78 -76 -171 -114 -279 -114c-96 0 -183 34 -261 102c-85 76 -128 173 -128 292zM601 947l-75 51l-136 -147l49 -36z" />
    <glyph glyph-name="Ocircumflex" unicode="&#xd4;" horiz-adv-x="898" 
d="M142 381c0 -93 32 -169 96 -230c61 -57 131 -86 209 -86c86 0 159 30 219 91s90 135 90 220c0 87 -30 161 -89 221c-60 60 -132 90 -217 90c-84 0 -157 -30 -218 -90c-60 -60 -90 -132 -90 -216zM57 381c0 105 39 195 116 271c78 77 170 115 277 115s199 -39 276 -116
s115 -168 115 -275s-39 -199 -116 -275c-78 -76 -171 -114 -279 -114c-96 0 -183 34 -261 102c-85 76 -128 173 -128 292zM292 862l58 -46l99 85l100 -85l59 46l-159 135z" />
    <glyph glyph-name="Otilde" unicode="&#xd5;" horiz-adv-x="898" 
d="M142 381c0 -93 32 -169 96 -230c61 -57 131 -86 209 -86c86 0 159 30 219 91s90 135 90 220c0 87 -30 161 -89 221c-60 60 -132 90 -217 90c-84 0 -157 -30 -218 -90c-60 -60 -90 -132 -90 -216zM57 381c0 105 39 195 116 271c78 77 170 115 277 115s199 -39 276 -116
s115 -168 115 -275s-39 -199 -116 -275c-78 -76 -171 -114 -279 -114c-96 0 -183 34 -261 102c-85 76 -128 173 -128 292zM335 844c15 32 31 48 46 48c13 0 34 -7 63 -22c31 -16 56 -24 74 -24c43 0 77 27 103 82l-48 36c-17 -31 -34 -47 -52 -47c-13 0 -33 7 -62 22
c-31 15 -55 23 -72 23c-41 0 -74 -27 -101 -80z" />
    <glyph glyph-name="Odieresis" unicode="&#xd6;" horiz-adv-x="898" 
d="M503 903c0 31 27 57 58 57s58 -26 58 -58s-27 -58 -58 -58c-16 0 -30 6 -41 17s-17 25 -17 42zM289 903c0 31 26 57 57 57c32 0 58 -26 58 -58s-26 -58 -58 -58c-16 0 -30 6 -41 17s-16 25 -16 42zM142 381c0 -93 32 -169 96 -230c61 -57 131 -86 209 -86
c86 0 159 30 219 91s90 135 90 220c0 87 -30 161 -89 221c-60 60 -132 90 -217 90c-84 0 -157 -30 -218 -90c-60 -60 -90 -132 -90 -216zM57 381c0 105 39 195 116 271c78 77 170 115 277 115s199 -39 276 -116s115 -168 115 -275s-39 -199 -116 -275
c-78 -76 -171 -114 -279 -114c-96 0 -183 34 -261 102c-85 76 -128 173 -128 292z" />
    <glyph glyph-name="multiply" unicode="&#xd7;" 
d="M261 385l-175 175l47 47l176 -175l174 175l48 -47l-175 -175l175 -176l-48 -47l-174 175l-176 -175l-47 47z" />
    <glyph glyph-name="Oslash" unicode="&#xd8;" horiz-adv-x="898" 
d="M688 573l-435 -434c24 -23 53 -41 90 -54s73 -20 109 -20c83 0 155 30 214 91c60 61 90 135 90 220c0 70 -23 136 -68 197zM203 187l433 436c-54 43 -116 64 -187 64c-85 0 -158 -30 -218 -91c-59 -61 -89 -134 -89 -221c0 -63 20 -125 61 -188zM55 42l89 87
c-58 79 -87 161 -87 246c0 107 38 199 115 276c78 77 171 116 278 116c46 0 87 -6 122 -19c35 -12 77 -35 125 -69l87 87l48 -49l-85 -87c35 -45 59 -87 73 -125c15 -39 22 -82 22 -129c0 -107 -39 -198 -116 -275c-77 -76 -170 -114 -277 -114c-47 0 -89 7 -128 20
c-37 13 -80 37 -127 72l-88 -86z" />
    <glyph glyph-name="Ugrave" unicode="&#xd9;" horiz-adv-x="733" 
d="M98 754h85v-462c0 -44 2 -77 7 -100c5 -22 14 -42 28 -59c16 -20 38 -36 65 -49c28 -13 56 -19 84 -19c56 0 117 28 149 68c14 17 23 37 28 59c5 23 7 56 7 100v462h85v-485c0 -47 -5 -86 -15 -115c-11 -31 -28 -58 -51 -83c-53 -56 -121 -84 -203 -84s-150 28 -203 84
c-24 25 -41 52 -51 83c-10 29 -15 68 -15 115v485zM224 947l162 -132l49 36l-135 147z" />
    <glyph glyph-name="Uacute" unicode="&#xda;" horiz-adv-x="733" 
d="M98 754h85v-462c0 -44 2 -77 7 -100c5 -22 14 -42 28 -59c16 -20 38 -36 65 -49c28 -13 56 -19 84 -19c56 0 117 28 149 68c14 17 23 37 28 59c5 23 7 56 7 100v462h85v-485c0 -47 -5 -86 -15 -115c-11 -31 -28 -58 -51 -83c-53 -56 -121 -84 -203 -84s-150 28 -203 84
c-24 25 -41 52 -51 83c-10 29 -15 68 -15 115v485zM503 947l-75 51l-136 -147l49 -36z" />
    <glyph glyph-name="Ucircumflex" unicode="&#xdb;" horiz-adv-x="733" 
d="M98 754h85v-462c0 -44 2 -77 7 -100c5 -22 14 -42 28 -59c16 -20 38 -36 65 -49c28 -13 56 -19 84 -19c56 0 117 28 149 68c14 17 23 37 28 59c5 23 7 56 7 100v462h85v-485c0 -47 -5 -86 -15 -115c-11 -31 -28 -58 -51 -83c-53 -56 -121 -84 -203 -84s-150 28 -203 84
c-24 25 -41 52 -51 83c-10 29 -15 68 -15 115v485zM200 862l58 -46l99 85l100 -85l59 46l-159 135z" />
    <glyph glyph-name="Udieresis" unicode="&#xdc;" horiz-adv-x="733" 
d="M417 903c0 31 26 57 57 57c32 0 58 -26 58 -58s-26 -58 -58 -58c-16 0 -30 6 -41 17s-16 25 -16 42zM202 903c0 31 26 57 57 57c32 0 58 -26 58 -58s-26 -58 -58 -58c-16 0 -30 6 -41 17s-16 25 -16 42zM98 754h85v-462c0 -44 2 -77 7 -100c5 -22 14 -42 28 -59
c16 -20 38 -36 65 -49c28 -13 56 -19 84 -19c56 0 117 28 149 68c14 17 23 37 28 59c5 23 7 56 7 100v462h85v-485c0 -47 -5 -86 -15 -115c-11 -31 -28 -58 -51 -83c-53 -56 -121 -84 -203 -84s-150 28 -203 84c-24 25 -41 52 -51 83c-10 29 -15 68 -15 115v485z" />
    <glyph glyph-name="Yacute" unicode="&#xdd;" horiz-adv-x="597" 
d="M254 0v324l-247 430h97l193 -337l195 337h97l-251 -430v-324h-84zM444 947l-75 51l-136 -147l49 -36z" />
    <glyph glyph-name="Thorn" unicode="&#xde;" horiz-adv-x="517" 
d="M183 571v-269h68c104 0 161 48 161 135c0 89 -56 134 -167 134h-62zM256 225h-73v-225h-85v754h85v-106h52c100 0 162 -18 205 -66c37 -39 55 -88 55 -146c0 -131 -91 -211 -239 -211z" />
    <glyph glyph-name="germandbls" unicode="&#xdf;" horiz-adv-x="593" 
d="M158 0h-81v395h-44v75h44v156c0 67 17 119 52 156s83 56 145 56c57 0 103 -18 140 -54s55 -81 55 -135c0 -67 -28 -115 -84 -145c99 -37 161 -131 161 -242c0 -75 -27 -139 -81 -191c-54 -51 -123 -79 -206 -84v78c62 5 112 25 149 61c37 37 56 83 56 139
c0 63 -24 113 -71 149c-29 23 -74 38 -134 45v73c41 2 72 12 91 31c25 23 37 52 37 89c0 33 -11 60 -33 81c-21 21 -48 32 -82 32c-43 0 -74 -15 -94 -46c-13 -21 -20 -65 -20 -130v-589z" />
    <glyph glyph-name="agrave" unicode="&#xe0;" horiz-adv-x="593" 
d="M129 238c0 -51 14 -94 43 -128c29 -33 66 -50 111 -50c93 0 157 71 157 175c0 51 -15 93 -44 125s-66 48 -112 48c-44 0 -81 -16 -111 -49c-29 -31 -44 -72 -44 -121zM435 403v67h81v-470h-81v65c-44 -52 -98 -78 -162 -78c-65 0 -119 23 -162 70s-64 107 -64 179
c0 71 21 129 63 175c43 47 96 70 161 70s120 -26 164 -78zM313 550l-153 154l84 38l119 -164z" />
    <glyph glyph-name="aacute" unicode="&#xe1;" horiz-adv-x="593" 
d="M129 238c0 -51 14 -94 43 -128c29 -33 66 -50 111 -50c93 0 157 71 157 175c0 51 -15 93 -44 125s-66 48 -112 48c-44 0 -81 -16 -111 -49c-29 -31 -44 -72 -44 -121zM435 403v67h81v-470h-81v65c-44 -52 -98 -78 -162 -78c-65 0 -119 23 -162 70s-64 107 -64 179
c0 71 21 129 63 175c43 47 96 70 161 70s120 -26 164 -78zM443 704l-83 38l-120 -164l51 -28z" />
    <glyph glyph-name="acircumflex" unicode="&#xe2;" horiz-adv-x="593" 
d="M129 238c0 -51 14 -94 43 -128c29 -33 66 -50 111 -50c93 0 157 71 157 175c0 51 -15 93 -44 125s-66 48 -112 48c-44 0 -81 -16 -111 -49c-29 -31 -44 -72 -44 -121zM435 403v67h81v-470h-81v65c-44 -52 -98 -78 -162 -78c-65 0 -119 23 -162 70s-64 107 -64 179
c0 71 21 129 63 175c43 47 96 70 161 70s120 -26 164 -78zM144 595l57 -45l99 94l99 -94l58 45l-157 147z" />
    <glyph glyph-name="atilde" unicode="&#xe3;" horiz-adv-x="593" 
d="M129 238c0 -51 14 -94 43 -128c29 -33 66 -50 111 -50c93 0 157 71 157 175c0 51 -15 93 -44 125s-66 48 -112 48c-44 0 -81 -16 -111 -49c-29 -31 -44 -72 -44 -121zM435 403v67h81v-470h-81v65c-44 -52 -98 -78 -162 -78c-65 0 -119 23 -162 70s-64 107 -64 179
c0 71 21 129 63 175c43 47 96 70 161 70s120 -26 164 -78zM188 573c10 33 26 50 48 50c13 0 33 -8 61 -25c27 -15 48 -23 64 -23c43 0 80 31 100 82l-47 36c-16 -32 -34 -48 -53 -48c-11 0 -29 7 -52 22c-26 16 -50 24 -71 24c-46 0 -78 -27 -97 -81z" />
    <glyph glyph-name="adieresis" unicode="&#xe4;" horiz-adv-x="593" 
d="M129 238c0 -51 14 -94 43 -128c29 -33 66 -50 111 -50c93 0 157 71 157 175c0 51 -15 93 -44 125s-66 48 -112 48c-44 0 -81 -16 -111 -49c-29 -31 -44 -72 -44 -121zM435 403v67h81v-470h-81v65c-44 -52 -98 -78 -162 -78c-65 0 -119 23 -162 70s-64 107 -64 179
c0 71 21 129 63 175c43 47 96 70 161 70s120 -26 164 -78zM146 634c0 -16 6 -30 17 -41s24 -16 40 -16c15 0 29 5 40 16s17 25 17 41c0 15 -6 28 -17 39s-25 17 -40 17c-31 0 -57 -25 -57 -56zM342 634c0 -30 27 -57 57 -57c16 0 29 5 40 16s16 25 16 41c0 31 -23 56 -56 56
c-32 0 -57 -25 -57 -56z" />
    <glyph glyph-name="aring" unicode="&#xe5;" horiz-adv-x="593" 
d="M129 238c0 -51 14 -94 43 -128c29 -33 66 -50 111 -50c93 0 157 71 157 175c0 51 -15 93 -44 125s-66 48 -112 48c-44 0 -81 -16 -111 -49c-29 -31 -44 -72 -44 -121zM435 403v67h81v-470h-81v65c-44 -52 -98 -78 -162 -78c-65 0 -119 23 -162 70s-64 107 -64 179
c0 71 21 129 63 175c43 47 96 70 161 70s120 -26 164 -78zM198 650c0 -29 10 -53 30 -73s44 -30 73 -30c28 0 52 10 72 30s30 44 30 72c0 56 -46 103 -102 103c-28 0 -52 -10 -73 -31c-20 -20 -30 -44 -30 -71zM253 650c0 24 22 47 48 47c27 0 47 -22 47 -48
c0 -27 -21 -47 -47 -47s-48 20 -48 48z" />
    <glyph glyph-name="ae" unicode="&#xe6;" horiz-adv-x="873" 
d="M126 141c0 -25 11 -44 33 -59c21 -15 50 -22 87 -22c73 0 125 33 125 84c0 22 -12 40 -35 55s-52 22 -87 22c-73 0 -123 -33 -123 -80zM464 287h276c-15 76 -65 121 -137 121c-74 0 -120 -40 -139 -121zM826 218h-368c7 -96 66 -158 150 -158c58 0 106 33 144 99l69 -41
c-54 -87 -125 -131 -214 -131c-80 0 -141 31 -183 94c-37 -63 -96 -94 -176 -94c-61 0 -109 14 -146 41c-37 28 -55 65 -55 110c0 46 18 83 53 112c36 29 83 44 140 44c49 0 94 -13 135 -40c0 103 -44 154 -133 154c-40 0 -88 -10 -145 -29v77c61 17 111 25 150 25
c84 0 146 -34 173 -95c19 29 44 53 76 70s67 25 106 25c40 0 77 -10 112 -29s61 -46 79 -79c22 -39 33 -91 33 -155z" />
    <glyph glyph-name="ccedilla" unicode="&#xe7;" horiz-adv-x="492" 
d="M443 436v-106c-26 29 -50 49 -72 60s-47 17 -76 17c-47 0 -87 -17 -119 -50c-31 -33 -47 -74 -47 -124c0 -49 16 -91 47 -124c32 -33 71 -49 117 -49c29 0 56 6 79 18s46 33 74 64v-107c-51 -32 -101 -48 -150 -48c-70 0 -129 24 -177 71s-72 105 -72 174
c0 70 24 129 72 177c48 47 107 71 178 71c51 0 99 -15 146 -44zM338 -83l-74 31l-95 -148l56 -28z" />
    <glyph glyph-name="egrave" unicode="&#xe8;" horiz-adv-x="544" 
d="M137 286h276c-7 37 -23 66 -48 88s-55 33 -90 33c-34 0 -64 -11 -90 -34s-42 -52 -48 -87zM498 232v-14h-366c2 -48 17 -86 44 -115s62 -43 105 -43c31 0 57 7 79 21c22 15 44 40 66 77l68 -38c-51 -89 -123 -133 -216 -133c-68 0 -124 23 -167 68
c-43 46 -64 105 -64 177c0 73 21 132 63 179c42 46 97 69 164 69s122 -23 163 -68s61 -105 61 -180zM293 550l-153 154l84 38l119 -164z" />
    <glyph glyph-name="eacute" unicode="&#xe9;" horiz-adv-x="544" 
d="M137 286h276c-7 37 -23 66 -48 88s-55 33 -90 33c-34 0 -64 -11 -90 -34s-42 -52 -48 -87zM498 232v-14h-366c2 -48 17 -86 44 -115s62 -43 105 -43c31 0 57 7 79 21c22 15 44 40 66 77l68 -38c-51 -89 -123 -133 -216 -133c-68 0 -124 23 -167 68
c-43 46 -64 105 -64 177c0 73 21 132 63 179c42 46 97 69 164 69s122 -23 163 -68s61 -105 61 -180zM427 704l-83 38l-120 -164l51 -28z" />
    <glyph glyph-name="ecircumflex" unicode="&#xea;" horiz-adv-x="544" 
d="M137 286h276c-7 37 -23 66 -48 88s-55 33 -90 33c-34 0 -64 -11 -90 -34s-42 -52 -48 -87zM498 232v-14h-366c2 -48 17 -86 44 -115s62 -43 105 -43c31 0 57 7 79 21c22 15 44 40 66 77l68 -38c-51 -89 -123 -133 -216 -133c-68 0 -124 23 -167 68
c-43 46 -64 105 -64 177c0 73 21 132 63 179c42 46 97 69 164 69s122 -23 163 -68s61 -105 61 -180zM127 595l57 -45l99 94l99 -94l58 45l-157 147z" />
    <glyph glyph-name="edieresis" unicode="&#xeb;" horiz-adv-x="544" 
d="M137 286h276c-7 37 -23 66 -48 88s-55 33 -90 33c-34 0 -64 -11 -90 -34s-42 -52 -48 -87zM498 232v-14h-366c2 -48 17 -86 44 -115s62 -43 105 -43c31 0 57 7 79 21c22 15 44 40 66 77l68 -38c-51 -89 -123 -133 -216 -133c-68 0 -124 23 -167 68
c-43 46 -64 105 -64 177c0 73 21 132 63 179c42 46 97 69 164 69s122 -23 163 -68s61 -105 61 -180zM129 634c0 -16 6 -30 17 -41s24 -16 40 -16c15 0 29 5 40 16s17 25 17 41c0 15 -6 28 -17 39s-25 17 -40 17c-31 0 -57 -25 -57 -56zM325 634c0 -30 27 -57 57 -57
c16 0 29 5 40 16s16 25 16 41c0 31 -23 56 -56 56c-32 0 -57 -25 -57 -56z" />
    <glyph glyph-name="igrave" unicode="&#xec;" horiz-adv-x="235" 
d="M158 470h-81v-470h81v470zM-14 704l133 -154l47 28l-97 164z" />
    <glyph glyph-name="iacute" unicode="&#xed;" horiz-adv-x="235" 
d="M158 470h-81v-470h81v470zM249 704l-83 38l-97 -164l46 -28z" />
    <glyph glyph-name="icircumflex" unicode="&#xee;" horiz-adv-x="235" 
d="M158 470h-81v-470h81v470zM-16 595l52 -45l81 94l80 -94l54 45l-134 147z" />
    <glyph glyph-name="idieresis" unicode="&#xef;" horiz-adv-x="235" 
d="M158 470h-81v-470h81v470zM-9 634c0 -15 5 -28 15 -39s23 -16 38 -16s28 5 39 16s16 24 16 39s-5 27 -16 37c-11 11 -24 16 -39 16s-28 -5 -38 -16c-10 -10 -15 -22 -15 -37zM137 634c0 -15 5 -28 15 -39c11 -11 24 -16 39 -16s27 5 38 16s16 24 16 39
c0 30 -25 53 -54 53c-15 0 -27 -5 -38 -16c-11 -10 -16 -22 -16 -37z" />
    <glyph glyph-name="eth" unicode="&#xf0;" horiz-adv-x="590" 
d="M129 236c0 -51 15 -93 46 -127c31 -33 70 -49 118 -49c49 0 90 16 121 48c31 33 47 75 47 126s-15 92 -46 125s-72 49 -121 49c-47 0 -86 -17 -118 -50c-31 -32 -47 -73 -47 -122zM86 778l32 50c64 -17 121 -43 178 -76l124 63l47 -45l-115 -61c60 -55 107 -123 141 -204
c33 -81 50 -166 50 -255c0 -79 -23 -142 -68 -190c-46 -49 -106 -73 -179 -73c-71 0 -130 23 -178 70c-47 47 -71 106 -71 176c0 69 24 128 73 176c48 48 107 72 178 72c32 0 59 -5 82 -16c22 -10 45 -28 68 -55c-32 112 -86 204 -161 265l-121 -63l-51 46l112 58
c-36 24 -83 45 -141 62z" />
    <glyph glyph-name="ntilde" unicode="&#xf1;" horiz-adv-x="530" 
d="M77 0v470h81v-57c37 45 81 68 134 68c54 0 96 -17 125 -52c25 -28 37 -74 37 -137v-292h-81v277c0 97 -26 131 -99 131c-81 0 -116 -52 -116 -173v-235h-81zM145 573c10 33 26 50 48 50c13 0 33 -8 61 -25c27 -15 48 -23 64 -23c43 0 80 31 100 82l-47 36
c-16 -32 -34 -48 -53 -48c-11 0 -29 7 -52 22c-26 16 -50 24 -71 24c-46 0 -78 -27 -97 -81z" />
    <glyph glyph-name="ograve" unicode="&#xf2;" horiz-adv-x="590" 
d="M129 236c0 -52 15 -94 46 -127s70 -49 118 -49c49 0 90 16 121 48c31 33 47 74 47 125s-16 92 -47 125s-71 49 -120 49c-47 0 -86 -16 -118 -49c-31 -33 -47 -73 -47 -122zM47 237c0 67 24 125 72 172c49 47 107 71 176 71s128 -24 176 -71c48 -48 72 -107 72 -176
c0 -70 -24 -128 -72 -175c-47 -47 -107 -71 -178 -71c-69 0 -128 24 -175 72c-47 49 -71 108 -71 178zM304 550l-153 154l84 38l119 -164z" />
    <glyph glyph-name="oacute" unicode="&#xf3;" horiz-adv-x="590" 
d="M129 236c0 -52 15 -94 46 -127s70 -49 118 -49c49 0 90 16 121 48c31 33 47 74 47 125s-16 92 -47 125s-71 49 -120 49c-47 0 -86 -16 -118 -49c-31 -33 -47 -73 -47 -122zM47 237c0 67 24 125 72 172c49 47 107 71 176 71s128 -24 176 -71c48 -48 72 -107 72 -176
c0 -70 -24 -128 -72 -175c-47 -47 -107 -71 -178 -71c-69 0 -128 24 -175 72c-47 49 -71 108 -71 178zM441 704l-83 38l-120 -164l51 -28z" />
    <glyph glyph-name="ocircumflex" unicode="&#xf4;" horiz-adv-x="590" 
d="M129 236c0 -52 15 -94 46 -127s70 -49 118 -49c49 0 90 16 121 48c31 33 47 74 47 125s-16 92 -47 125s-71 49 -120 49c-47 0 -86 -16 -118 -49c-31 -33 -47 -73 -47 -122zM47 237c0 67 24 125 72 172c49 47 107 71 176 71s128 -24 176 -71c48 -48 72 -107 72 -176
c0 -70 -24 -128 -72 -175c-47 -47 -107 -71 -178 -71c-69 0 -128 24 -175 72c-47 49 -71 108 -71 178zM142 595l57 -45l99 94l99 -94l58 45l-157 147z" />
    <glyph glyph-name="otilde" unicode="&#xf5;" horiz-adv-x="590" 
d="M129 236c0 -52 15 -94 46 -127s70 -49 118 -49c49 0 90 16 121 48c31 33 47 74 47 125s-16 92 -47 125s-71 49 -120 49c-47 0 -86 -16 -118 -49c-31 -33 -47 -73 -47 -122zM47 237c0 67 24 125 72 172c49 47 107 71 176 71s128 -24 176 -71c48 -48 72 -107 72 -176
c0 -70 -24 -128 -72 -175c-47 -47 -107 -71 -178 -71c-69 0 -128 24 -175 72c-47 49 -71 108 -71 178zM191 573c10 33 26 50 48 50c13 0 33 -8 61 -25c27 -15 48 -23 64 -23c43 0 80 31 100 82l-47 36c-16 -32 -34 -48 -53 -48c-11 0 -29 7 -52 22c-26 16 -50 24 -71 24
c-46 0 -78 -27 -97 -81z" />
    <glyph glyph-name="odieresis" unicode="&#xf6;" horiz-adv-x="590" 
d="M129 236c0 -52 15 -94 46 -127s70 -49 118 -49c49 0 90 16 121 48c31 33 47 74 47 125s-16 92 -47 125s-71 49 -120 49c-47 0 -86 -16 -118 -49c-31 -33 -47 -73 -47 -122zM47 237c0 67 24 125 72 172c49 47 107 71 176 71s128 -24 176 -71c48 -48 72 -107 72 -176
c0 -70 -24 -128 -72 -175c-47 -47 -107 -71 -178 -71c-69 0 -128 24 -175 72c-47 49 -71 108 -71 178zM140 634c0 -16 6 -30 17 -41s24 -16 40 -16c15 0 29 5 40 16s17 25 17 41c0 15 -6 28 -17 39s-25 17 -40 17c-31 0 -57 -25 -57 -56zM336 634c0 -30 27 -57 57 -57
c16 0 29 5 40 16s16 25 16 41c0 31 -23 56 -56 56c-32 0 -57 -25 -57 -56z" />
    <glyph glyph-name="divide" unicode="&#xf7;" 
d="M256 533c0 29 24 53 53 53s52 -24 52 -53c0 -30 -23 -54 -52 -54c-31 0 -53 25 -53 54zM256 237c0 28 24 53 53 53s52 -25 52 -54s-23 -53 -52 -53c-31 0 -53 26 -53 54zM575 350h-533v69h533v-69z" />
    <glyph glyph-name="oslash" unicode="&#xf8;" horiz-adv-x="590" 
d="M433 333l-236 -242c24 -21 56 -31 97 -31c49 0 89 16 120 48c31 33 47 74 47 125c0 39 -9 73 -28 100zM153 139l235 238c-25 20 -56 30 -94 30c-48 0 -88 -17 -119 -50s-46 -75 -46 -126c0 -33 8 -64 24 -92zM29 17l67 67c-33 45 -49 95 -49 151c0 69 24 127 72 174
s107 71 176 71c55 0 105 -16 149 -49l67 67l45 -45l-67 -67c16 -15 29 -37 39 -66c10 -28 15 -57 15 -88c0 -69 -24 -127 -72 -174c-49 -47 -107 -71 -175 -71c-54 0 -105 17 -153 51l-69 -67z" />
    <glyph glyph-name="ugrave" unicode="&#xf9;" horiz-adv-x="526" 
d="M77 470h81v-274c0 -46 7 -78 20 -97c19 -26 48 -39 85 -39c38 0 67 13 86 39c13 18 20 50 20 97v274h81v-283c0 -39 -4 -70 -13 -92c-8 -23 -22 -43 -41 -61c-35 -31 -79 -47 -133 -47c-53 0 -97 16 -132 47c-20 18 -34 38 -42 61s-12 53 -12 92v283zM273 550l-153 154
l84 38l119 -164z" />
    <glyph glyph-name="uacute" unicode="&#xfa;" horiz-adv-x="526" 
d="M77 470h81v-274c0 -46 7 -78 20 -97c19 -26 48 -39 85 -39c38 0 67 13 86 39c13 18 20 50 20 97v274h81v-283c0 -39 -4 -70 -13 -92c-8 -23 -22 -43 -41 -61c-35 -31 -79 -47 -133 -47c-53 0 -97 16 -132 47c-20 18 -34 38 -42 61s-12 53 -12 92v283zM406 704l-83 38
l-120 -164l51 -28z" />
    <glyph glyph-name="ucircumflex" unicode="&#xfb;" horiz-adv-x="526" 
d="M77 470h81v-274c0 -46 7 -78 20 -97c19 -26 48 -39 85 -39c38 0 67 13 86 39c13 18 20 50 20 97v274h81v-283c0 -39 -4 -70 -13 -92c-8 -23 -22 -43 -41 -61c-35 -31 -79 -47 -133 -47c-53 0 -97 16 -132 47c-20 18 -34 38 -42 61s-12 53 -12 92v283zM106 595l57 -45
l99 94l99 -94l58 45l-157 147z" />
    <glyph glyph-name="udieresis" unicode="&#xfc;" horiz-adv-x="526" 
d="M77 470h81v-274c0 -46 7 -78 20 -97c19 -26 48 -39 85 -39c38 0 67 13 86 39c13 18 20 50 20 97v274h81v-283c0 -39 -4 -70 -13 -92c-8 -23 -22 -43 -41 -61c-35 -31 -79 -47 -133 -47c-53 0 -97 16 -132 47c-20 18 -34 38 -42 61s-12 53 -12 92v283zM108 634
c0 -16 6 -30 17 -41s24 -16 40 -16c15 0 29 5 40 16s17 25 17 41c0 15 -6 28 -17 39s-25 17 -40 17c-31 0 -57 -25 -57 -56zM304 634c0 -30 27 -57 57 -57c16 0 29 5 40 16s16 25 16 41c0 31 -23 56 -56 56c-32 0 -57 -25 -57 -56z" />
    <glyph glyph-name="yacute" unicode="&#xfd;" horiz-adv-x="520" 
d="M319 742l84 -38l-153 -154l-50 28zM73 -264l152 308l-216 426h94l165 -337l152 337h91l-346 -734h-92z" />
    <glyph glyph-name="thorn" unicode="&#xfe;" horiz-adv-x="593" 
d="M464 229c0 51 -15 94 -44 128c-29 33 -65 50 -110 50c-46 0 -84 -16 -113 -49s-44 -75 -44 -126c0 -50 15 -92 44 -125c29 -31 67 -47 113 -47c43 0 80 16 109 48c30 33 45 73 45 121zM158 65v-329h-81v1089h81v-422c43 51 97 77 162 77s119 -23 162 -70s64 -107 64 -179
c0 -70 -21 -128 -64 -175c-42 -46 -95 -69 -160 -69s-119 26 -164 78z" />
    <glyph glyph-name="ydieresis" unicode="&#xff;" horiz-adv-x="520" 
d="M73 -264l152 308l-216 426h94l165 -337l152 337h91l-346 -734h-92zM302 634c0 31 25 56 57 56c33 0 56 -25 56 -56c0 -16 -5 -30 -16 -41s-24 -16 -40 -16c-30 0 -57 27 -57 57zM106 634c0 31 26 56 57 56c15 0 29 -6 40 -17s17 -24 17 -39c0 -16 -6 -30 -17 -41
s-25 -16 -40 -16c-16 0 -29 5 -40 16s-17 25 -17 41z" />
    <glyph glyph-name="foundryicon" horiz-adv-x="578" 
d="M396 290v139h15c41 0 71 -25 71 -70c0 -48 -32 -69 -72 -69h-14zM331 234h92c37 0 68 15 92 39c-37 -96 -126 -164 -235 -164c-94 0 -172 51 -217 125h40v154h1l119 -154h65v250h-65v-152h-1l-119 152h-40c45 74 123 125 217 125c108 0 199 -67 234 -163
c-23 25 -54 38 -91 38h-92v-250z" />
    <glyph glyph-name="dagger" unicode="&#x2020;" horiz-adv-x="641" 
d="M279 639v186h83v-186h166v-78h-166v-760h-83v760h-166v78h166z" />
    <glyph glyph-name="bullet" unicode="&#x2022;" horiz-adv-x="754" 
d="M379 543c42 0 78 -16 108 -47s45 -68 45 -111c0 -45 -15 -82 -45 -113c-31 -31 -67 -46 -110 -46s-79 15 -110 46c-30 31 -45 69 -45 112c0 45 15 82 46 113s68 46 111 46z" />
    <glyph glyph-name="trademark" unicode="&#x2122;" horiz-adv-x="815" 
d="M358 324h-52l73 458l163 -357l165 357l69 -458h-52l-39 292l-144 -313l-142 313zM265 703h-103v-379h-55v379h-102v51h260v-51z" />
    <glyph glyph-name="acute" unicode="&#xb4;" horiz-adv-x="565" 
d="M354 742l83 -38l-152 -154l-51 28z" />
    <glyph glyph-name="dieresis" unicode="&#xa8;" horiz-adv-x="565" 
d="M324 634c0 31 25 56 57 56c33 0 56 -25 56 -56c0 -16 -5 -30 -16 -41s-24 -16 -40 -16c-30 0 -57 27 -57 57zM128 634c0 31 26 56 57 56c15 0 29 -6 40 -17s17 -24 17 -39c0 -16 -6 -30 -17 -41s-25 -16 -40 -16c-16 0 -29 5 -40 16s-17 25 -17 41z" />
    <glyph glyph-name="notequal" unicode="&#x2260;" horiz-adv-x="641" 
d="M54 488h282l70 147l59 -24l-59 -123h180v-66h-211l-36 -75h247v-66h-278l-74 -156l-59 24l63 132h-184v66h216l35 75h-251v66z" />
    <glyph glyph-name="infinity" unicode="&#x221e;" horiz-adv-x="754" 
d="M334 385c-43 67 -87 101 -133 101c-56 0 -97 -42 -97 -102c0 -29 9 -53 28 -72s42 -29 70 -29c44 0 88 34 132 102zM419 385c44 -68 89 -102 134 -102c55 0 96 43 96 102c0 29 -9 54 -28 73c-18 19 -41 28 -69 28c-45 0 -90 -34 -133 -101zM379 328
c-56 -78 -118 -117 -187 -117c-51 0 -92 16 -124 49c-31 33 -47 75 -47 127c0 50 16 91 48 123c33 33 74 49 125 49c68 0 128 -39 181 -117c53 78 116 117 187 117c51 0 92 -16 123 -49c32 -33 48 -75 48 -126c0 -50 -16 -92 -48 -125c-31 -33 -72 -49 -122 -49
c-71 0 -132 39 -184 118z" />
    <glyph glyph-name="lessequal" unicode="&#x2264;" horiz-adv-x="565" 
d="M38 143h490v-80h-490v80zM38 470l490 222v-81l-400 -177l400 -177v-81l-490 220v74z" />
    <glyph glyph-name="greaterequal" unicode="&#x2265;" horiz-adv-x="565" 
d="M528 63h-490v80h490v-80zM528 396l-490 -220v81l399 177l-399 177v81l490 -223v-73z" />
    <glyph glyph-name="mu" unicode="&#x3bc;" horiz-adv-x="526" 
d="M154 21l4 -285h-81v734h81v-286c0 -83 35 -124 105 -124c38 0 67 13 86 39c13 19 20 51 20 97v274h80v-283c0 -39 -4 -70 -12 -92c-8 -23 -22 -43 -41 -61c-35 -31 -78 -47 -130 -47c-41 0 -79 11 -112 34z" />
    <glyph glyph-name="partialdiff" unicode="&#x2202;" horiz-adv-x="565" 
d="M289 428c-47 0 -87 -18 -120 -55s-49 -81 -49 -134c0 -51 16 -95 48 -132c31 -36 70 -54 115 -54c46 0 84 18 115 55s47 83 47 138c0 52 -15 95 -45 130c-29 35 -66 52 -111 52zM95 683l11 75c72 -10 131 -26 176 -48c47 -22 90 -53 127 -93c82 -90 123 -203 123 -339
c0 -84 -21 -151 -62 -201c-48 -59 -110 -89 -186 -89c-69 0 -128 25 -177 75s-73 110 -73 180c0 69 23 128 69 176c45 49 101 73 167 73c35 0 65 -6 90 -19c25 -12 50 -33 75 -63c-3 8 -7 14 -8 18c-20 48 -40 85 -60 112c-21 27 -48 51 -81 72s-64 36 -92 47
c-27 11 -60 19 -99 24z" />
    <glyph glyph-name="summation" unicode="&#x2211;" horiz-adv-x="754" 
d="M31 848h646v-259h-77l-8 180h-466l286 -464l-286 -508h477l4 178h81v-257h-657v89l281 498l-281 456v87z" />
    <glyph glyph-name="product" unicode="&#x220f;" horiz-adv-x="792" 
d="M42 769v79h708v-79h-90v-972h90v-79h-268v79h93v972h-359v-972h92v-79h-266v79h89v972h-89z" />
    <glyph glyph-name="pi" unicode="&#x3c0;" horiz-adv-x="660" 
d="M201 0h-85v465h-84v77h596v-77h-83v-465h-85v465h-259v-465z" />
    <glyph glyph-name="integral" unicode="&#x222b;" horiz-adv-x="565" 
d="M106 -270l19 76c20 -8 37 -12 51 -12c34 0 54 15 60 45c3 13 4 43 4 92v689c0 79 4 129 13 152c20 51 63 77 129 77c21 0 46 -4 77 -13l-18 -75c-20 7 -37 11 -51 11c-26 0 -43 -8 -52 -23c-8 -15 -12 -46 -12 -94l-1 -58v-651c0 -61 -2 -103 -6 -125
c-3 -21 -12 -40 -25 -56c-25 -31 -66 -46 -121 -46c-25 0 -48 4 -67 11z" />
    <glyph glyph-name="Ohm" unicode="&#x2126;" horiz-adv-x="754" 
d="M328 0h-296v75h202c-135 79 -202 191 -202 336c0 101 33 187 99 257c67 70 149 105 246 105s179 -35 246 -105c66 -70 99 -156 99 -257c0 -146 -67 -258 -202 -336h202v-75h-295v67c142 83 209 187 209 334c0 83 -25 153 -75 210s-111 86 -183 86
c-73 0 -135 -28 -185 -85c-49 -57 -74 -128 -74 -211c0 -143 70 -255 209 -334v-67z" />
    <glyph glyph-name="radical" unicode="&#x221a;" horiz-adv-x="754" 
d="M460 937h294v-79h-221l-241 -858h-106l-91 337h-95v79h164l41 -144c3 -12 8 -35 15 -74l13 -66l3 -17h7c3 13 4 20 4 23l17 73l27 121l47 168z" />
    <glyph glyph-name="florin" unicode="&#x192;" 
d="M390 603l-28 -147h120l-11 -68h-121l-60 -326c-11 -60 -22 -103 -33 -129c-11 -28 -26 -51 -46 -68c-39 -34 -88 -51 -149 -51c-13 0 -31 1 -53 4l16 75c16 0 26 -1 33 -1c46 0 79 12 100 37s37 70 50 136l59 323h-82l11 68h83l31 169c20 115 72 166 165 166
c20 0 42 -4 67 -12l-15 -76c-19 8 -36 12 -52 12c-51 0 -69 -24 -85 -112z" />
    <glyph glyph-name="approxequal" unicode="&#x2248;" horiz-adv-x="565" 
d="M61 203l-50 32c42 92 90 131 156 131c28 0 70 -13 125 -38c51 -24 88 -36 110 -36s40 6 54 17c15 11 30 31 47 60l52 -31c-43 -85 -97 -128 -164 -128c-24 0 -56 9 -95 26l-63 29c-31 13 -55 20 -73 20c-37 0 -70 -27 -99 -82zM61 393l-50 33c41 92 88 131 155 131
c29 0 71 -13 126 -39c53 -24 90 -36 109 -36c23 0 41 6 55 17c15 11 30 31 47 60l52 -30c-43 -85 -97 -128 -164 -128c-26 0 -58 8 -95 25l-63 29c-30 14 -54 21 -73 21c-37 0 -70 -28 -99 -83z" />
    <glyph glyph-name="increment" unicode="&#x2206;" horiz-adv-x="754" 
d="M376 650l-224 -571h449zM724 0h-693l300 754h90z" />
    <glyph glyph-name="ellipsis" unicode="&#x2026;" horiz-adv-x="843" 
d="M647 45c0 15 6 28 17 39s24 16 39 16c31 0 55 -24 55 -56c0 -31 -24 -55 -55 -55s-56 26 -56 56zM366 45c0 15 5 28 16 39s24 16 39 16c32 0 56 -24 56 -56c0 -31 -24 -55 -55 -55s-56 26 -56 56zM85 45c0 15 5 28 16 39s24 16 39 16c31 0 56 -24 56 -56
c0 -31 -24 -55 -55 -55c-32 0 -56 26 -56 56z" />
    <glyph glyph-name="uniE003" unicode="&#xe003;" horiz-adv-x="347" 
d="M165 754h85v-609c0 -93 -14 -140 -53 -177c-31 -31 -69 -46 -114 -46c-43 0 -88 19 -135 57l47 64c31 -29 60 -43 87 -43c57 0 83 44 83 145v609z" />
    <glyph glyph-name="endash" unicode="&#x2013;" horiz-adv-x="641" 
d="M132 205v72h377v-72h-377z" />
    <glyph glyph-name="emdash" unicode="&#x2014;" horiz-adv-x="615" 
d="M0 205v72h615v-72h-615z" />
    <glyph glyph-name="quotedblleft" unicode="&#x201c;" horiz-adv-x="461" 
d="M231 770l-93 -260l-74 27l114 255zM397 770l-93 -260l-75 27l114 255z" />
    <glyph glyph-name="quotedblright" unicode="&#x201d;" horiz-adv-x="461" 
d="M229 531l94 261l74 -27l-113 -255zM64 531l94 261l73 -27l-113 -255z" />
    <glyph glyph-name="quoteleft" unicode="&#x2018;" horiz-adv-x="296" 
d="M231 770l-93 -260l-74 27l114 255z" />
    <glyph glyph-name="quoteright" unicode="&#x2019;" horiz-adv-x="285" 
d="M52 531l94 261l73 -27l-113 -255z" />
    <glyph glyph-name="lozenge" unicode="&#x25ca;" horiz-adv-x="754" 
d="M558 377l-181 249l-181 -249l181 -249zM83 377l294 407l294 -407l-294 -406z" />
    <glyph glyph-name="fraction1" unicode="&#x2215;" horiz-adv-x="158" 
d="M-162 11l439 758l43 -24l-438 -759z" />
    <glyph glyph-name="currency" unicode="&#xa4;" 
d="M312 598c-54 0 -100 -19 -137 -56s-55 -82 -55 -135c0 -52 18 -97 55 -134s82 -56 134 -56s97 19 134 56s56 82 56 134s-19 97 -56 134c-37 38 -80 57 -131 57zM40 92l-46 47l107 107c-39 55 -59 109 -59 162c0 51 19 104 57 159l-108 107l47 47l108 -107
c35 23 63 39 84 46c22 8 48 12 79 12s57 -4 78 -12c23 -8 51 -23 84 -45l107 106l47 -47l-107 -106c22 -33 37 -60 44 -83c9 -22 13 -48 13 -78c0 -29 -4 -55 -12 -77c-7 -21 -22 -49 -45 -82l108 -108l-46 -47l-108 108c-55 -39 -109 -58 -162 -58c-50 0 -104 19 -163 56z
" />
    <glyph glyph-name="guilsinglleft" unicode="&#x2039;" horiz-adv-x="319" 
d="M263 412l-135 -171l135 -166l-53 -41l-168 207l168 212z" />
    <glyph glyph-name="guilsinglright" unicode="&#x203a;" horiz-adv-x="319" 
d="M57 75l134 166l-134 171l52 41l169 -212l-169 -207z" />
    <glyph glyph-name="fi" unicode="&#xfb01;" horiz-adv-x="505" 
d="M428 470v-470h-80v470h80zM428 662v-73h-80v73c0 55 -40 101 -96 101c-27 0 -49 -10 -67 -31c-19 -20 -28 -43 -28 -70v-192h119v-75h-119v-395h-80v395h-45v75h45v192c0 48 17 89 51 124c35 34 76 51 124 51c49 0 91 -17 125 -51s51 -75 51 -124z" />
    <glyph glyph-name="fl" unicode="&#xfb02;" horiz-adv-x="505" 
d="M428 662v-662h-80v662c0 27 -9 51 -27 70c-19 21 -42 31 -69 31s-49 -10 -67 -31c-19 -20 -28 -43 -28 -70v-192h119v-75h-119v-395h-80v395h-45v75h45v192c0 48 17 89 51 124c35 34 76 51 124 51c49 0 90 -17 124 -51c35 -34 52 -75 52 -124z" />
    <glyph glyph-name="daggerdbl" unicode="&#x2021;" horiz-adv-x="641" 
d="M279 639v186h83v-186h166v-78h-166v-341h166v-78h-166v-341h-83v341h-166v78h166v341h-166v78h166z" />
    <glyph glyph-name="quotesinglbase" unicode="&#x201a;" horiz-adv-x="285" 
d="M52 -147l94 260l73 -27l-113 -254z" />
    <glyph glyph-name="quotedblbase" unicode="&#x201e;" horiz-adv-x="461" 
d="M229 -149l94 259l74 -27l-113 -254zM64 -149l94 259l73 -27l-113 -254z" />
    <glyph glyph-name="perthousand" unicode="&#x2030;" horiz-adv-x="1219" 
d="M912 159c0 -29 10 -54 29 -74c20 -19 44 -29 72 -29s52 10 71 29c20 20 30 44 30 72c0 29 -10 53 -30 72c-19 20 -43 30 -71 30s-52 -10 -72 -30c-19 -19 -29 -43 -29 -70zM845 159c0 45 17 83 50 114c33 32 73 48 118 48c47 0 86 -16 119 -48s49 -71 49 -116
c0 -46 -16 -85 -49 -116c-33 -32 -73 -48 -120 -48s-86 16 -119 48c-32 33 -48 72 -48 118zM502 159c0 -29 10 -54 29 -74c20 -19 44 -29 73 -29c56 0 101 45 101 101c0 29 -10 53 -30 72c-19 20 -43 30 -71 30s-52 -10 -72 -30c-20 -19 -30 -43 -30 -70zM436 159
c0 45 16 83 49 114c34 32 74 48 119 48s85 -16 118 -48s49 -71 49 -116c0 -46 -16 -85 -49 -116c-33 -32 -73 -48 -120 -48c-46 0 -85 16 -118 49c-32 32 -48 71 -48 117zM163 11l439 758l44 -25l-439 -758zM104 599c0 -29 10 -53 29 -73c20 -20 44 -30 73 -30
c28 0 52 10 71 30c20 20 30 44 30 72s-10 52 -30 71c-19 20 -43 30 -71 30s-52 -10 -72 -30c-20 -19 -30 -43 -30 -70zM38 600c0 44 16 82 49 114c34 32 74 48 119 48c46 0 86 -16 119 -49c33 -31 49 -70 49 -116s-17 -85 -50 -117c-33 -31 -73 -47 -120 -47
c-46 0 -85 16 -118 48c-32 33 -48 72 -48 119z" />
    <glyph glyph-name="dotlessi" unicode="&#x131;" horiz-adv-x="235" 
d="M77 470h81v-470h-81v470z" />
    <glyph glyph-name="circumflex" unicode="&#x2c6;" horiz-adv-x="565" 
d="M183 550l-57 45l156 147l157 -147l-58 -45l-99 94z" />
    <glyph glyph-name="tilde" unicode="&#x2dc;" horiz-adv-x="565" 
d="M170 573l-47 37c19 54 51 81 97 81c21 0 45 -8 71 -24c23 -15 41 -22 52 -22c19 0 37 16 53 48l47 -36c-20 -51 -57 -82 -100 -82c-16 0 -37 8 -64 23c-28 17 -48 25 -61 25c-22 0 -38 -17 -48 -50z" />
    <glyph glyph-name="breve" unicode="&#x2d8;" horiz-adv-x="565" 
d="M134 716h70c5 -49 34 -79 77 -79c45 0 71 26 80 79h70c-11 -91 -69 -147 -149 -147c-43 0 -79 14 -107 41c-27 28 -41 63 -41 106z" />
    <glyph glyph-name="dotaccent" unicode="&#x2d9;" horiz-adv-x="565" 
d="M226 647c0 31 26 57 57 57c32 0 58 -26 58 -58c0 -15 -6 -29 -17 -41c-11 -11 -25 -16 -41 -16s-30 6 -41 17s-16 25 -16 41z" />
    <glyph glyph-name="ring" unicode="&#x2da;" horiz-adv-x="565" 
d="M235 650c0 -28 22 -48 48 -48s47 20 47 47c0 26 -20 48 -47 48c-26 0 -48 -23 -48 -47zM180 650c0 27 10 51 30 71c21 21 45 31 73 31c56 0 102 -47 102 -103c0 -28 -10 -52 -30 -72s-44 -30 -72 -30c-29 0 -53 10 -73 30s-30 44 -30 73z" />
    <glyph glyph-name="cedilla" unicode="&#xb8;" horiz-adv-x="565" 
d="M301 -52l74 -31l-113 -145l-56 28z" />
    <glyph glyph-name="hungarumlaut" unicode="&#x2dd;" horiz-adv-x="565" 
d="M434 742l72 -35l-150 -157l-41 27zM283 742l72 -35l-150 -157l-41 27z" />
    <glyph glyph-name="ogonek" unicode="&#x2db;" horiz-adv-x="565" 
d="M433 0h64c-55 -36 -82 -69 -82 -98c0 -24 19 -42 44 -42c17 0 37 5 58 15l-11 -62c-19 -11 -38 -16 -59 -16c-28 0 -52 9 -71 26s-28 38 -28 63c0 40 28 78 85 114z" />
    <glyph glyph-name="caron" unicode="&#x2c7;" horiz-adv-x="565" 
d="M383 742l56 -45l-155 -147l-158 147l59 45l99 -94z" />
    <glyph glyph-name="Lslash" unicode="&#x141;" horiz-adv-x="405" 
d="M182 754v-309l129 91v-86l-129 -91v-280h208v-79h-292v323l-76 -53v85l76 53v346h84z" />
    <glyph glyph-name="lslash" unicode="&#x142;" horiz-adv-x="234" 
d="M158 825v-348l71 53v-86l-71 -53v-391h-81v353l-72 -53v86l72 52v387h81z" />
    <glyph glyph-name="brokenbar" unicode="&#xa6;" horiz-adv-x="565" 
d="M240 -188v361h85v-361h-85zM240 377v377h85v-377h-85z" />
    <glyph glyph-name="minus" unicode="&#x2212;" horiz-adv-x="641" 
d="M586 350h-532v69h532v-69z" />
    <glyph glyph-name="onehalf" unicode="&#xbd;" horiz-adv-x="973" 
d="M810 151l-90 -97h191v-54h-314l175 193c32 35 52 60 63 79c12 19 18 37 18 53c0 23 -9 42 -26 57c-17 16 -39 24 -64 24c-55 0 -86 -30 -91 -91h-59c3 37 11 64 24 82c29 41 70 62 125 62c42 0 77 -13 106 -39s44 -58 44 -96c0 -25 -7 -49 -20 -72
c-13 -22 -41 -56 -82 -101zM245 11l439 758l43 -24l-438 -759zM187 302v399h-81l32 53h108v-452h-59z" />
    <glyph glyph-name="onequarter" unicode="&#xbc;" horiz-adv-x="972" 
d="M683 126h136v186zM880 485v-359h56v-53h-56v-73h-61v73h-243zM245 11l439 758l43 -24l-438 -759zM187 302v399h-81l32 53h108v-452h-59z" />
    <glyph glyph-name="threequarters" unicode="&#xbe;" horiz-adv-x="973" 
d="M683 126h137v186zM880 485v-359h57v-53h-57v-73h-60v73h-243zM245 11l439 758l44 -24l-439 -759zM179 513v51c62 0 93 24 93 72c0 40 -32 71 -77 71c-44 0 -67 -19 -75 -71h-59c13 83 57 125 134 125c39 0 72 -12 97 -35c26 -23 39 -53 39 -88c0 -39 -18 -71 -55 -98
c41 -27 62 -63 62 -108c0 -40 -14 -73 -43 -99c-27 -25 -63 -38 -106 -38c-85 0 -136 46 -143 129h58c8 -51 37 -76 87 -76c25 0 45 8 62 24c17 17 26 37 26 61c0 53 -33 80 -100 80z" />
    <glyph glyph-name="Gbreve" unicode="&#x11e;" horiz-adv-x="857" 
d="M486 300v78h315v-19c0 -79 -13 -143 -40 -191c-31 -55 -75 -99 -132 -132s-119 -49 -186 -49c-106 0 -197 38 -273 114c-75 77 -113 168 -113 274c0 109 38 201 115 277c77 77 169 115 278 115c65 0 122 -13 171 -39c51 -27 98 -66 147 -125l-62 -57
c-75 99 -152 141 -255 141c-86 0 -159 -31 -219 -92s-90 -134 -90 -220c0 -90 32 -165 97 -225c61 -57 129 -85 206 -85c41 0 81 10 122 29c39 19 72 45 97 77c27 35 43 78 46 129h-224zM298 974c9 -96 64 -147 157 -147c89 0 145 54 157 147h-72c-13 -50 -41 -75 -86 -75
c-43 0 -71 25 -83 75h-73z" />
    <glyph glyph-name="gbreve" unicode="&#x11f;" horiz-adv-x="593" 
d="M129 234c0 -51 14 -92 42 -125c29 -33 66 -49 111 -49c46 0 84 16 113 49c30 33 45 74 45 124c0 51 -15 93 -44 126s-67 49 -113 49c-45 0 -82 -16 -111 -49s-43 -74 -43 -125zM436 470h81v-460c0 -51 -5 -91 -14 -120c-8 -30 -23 -57 -46 -80c-43 -47 -101 -71 -173 -71
c-66 0 -121 20 -164 61c-43 40 -65 92 -65 155h80c8 -95 58 -143 150 -143c100 0 151 62 151 186v67c-45 -51 -101 -77 -166 -77c-63 0 -116 23 -159 70s-64 106 -64 175c0 71 21 130 64 177s98 71 163 71s119 -26 162 -78v67zM152 716h70c5 -49 34 -79 77 -79
c45 0 71 26 80 79h70c-11 -91 -69 -147 -149 -147c-43 0 -79 14 -107 41c-27 28 -41 63 -41 106z" />
    <glyph glyph-name="Idotaccent" unicode="&#x130;" horiz-adv-x="280" 
d="M98 754h85v-754h-85v754zM80 902c0 -17 6 -32 17 -44c12 -11 27 -17 44 -17c16 0 30 6 42 17c12 12 18 26 18 43s-6 32 -18 43c-12 12 -26 18 -43 18s-31 -6 -43 -18c-11 -11 -17 -25 -17 -42z" />
    <glyph glyph-name="Scommaaccent" unicode="&#x218;" horiz-adv-x="585" 
d="M501 649l-67 -44c-19 31 -38 52 -57 64s-43 18 -72 18c-35 0 -65 -11 -89 -33c-24 -21 -36 -49 -36 -83c0 -45 36 -82 107 -113l71 -32c61 -27 104 -56 131 -88c27 -31 40 -71 40 -119c0 -66 -23 -121 -70 -165c-46 -45 -103 -67 -170 -67c-59 0 -109 17 -150 51
c-41 33 -68 81 -82 143l81 23c21 -93 72 -139 154 -139c41 0 77 15 107 44c29 29 44 64 44 105c0 31 -9 57 -28 78s-52 42 -99 63l-68 32c-56 24 -93 50 -117 79s-36 64 -36 106c0 56 20 102 60 139c41 37 91 56 152 56c84 0 149 -39 194 -118zM354 -89l-81 37l-101 -154
l57 -29z" />
    <glyph glyph-name="Cacute" unicode="&#x106;" horiz-adv-x="730" 
d="M674 692v-104c-71 66 -147 99 -228 99c-83 0 -155 -31 -215 -92c-59 -61 -89 -135 -89 -221c0 -94 35 -171 104 -230c60 -53 127 -79 201 -79c81 0 156 33 227 99v-104c-72 -49 -148 -73 -227 -73c-107 0 -198 38 -275 114s-115 167 -115 274s38 199 115 276
c78 77 171 116 280 116c77 0 151 -25 222 -75zM593 947l-75 51l-136 -147l49 -36z" />
    <glyph glyph-name="cacute" unicode="&#x107;" horiz-adv-x="492" 
d="M443 436v-106c-26 29 -50 49 -72 60s-47 17 -76 17c-47 0 -87 -17 -119 -50c-31 -33 -47 -74 -47 -124c0 -49 16 -91 47 -124c32 -33 71 -49 117 -49c29 0 56 6 79 18s46 33 74 64v-107c-51 -32 -101 -48 -150 -48c-70 0 -129 24 -177 71s-72 105 -72 174
c0 70 24 129 72 177c48 47 107 71 178 71c51 0 99 -15 146 -44zM354 742l83 -38l-152 -154l-51 28z" />
    <glyph glyph-name="Ccaron" unicode="&#x10c;" horiz-adv-x="730" 
d="M674 692v-104c-71 66 -147 99 -228 99c-83 0 -155 -31 -215 -92c-59 -61 -89 -135 -89 -221c0 -94 35 -171 104 -230c60 -53 127 -79 201 -79c81 0 156 33 227 99v-104c-72 -49 -148 -73 -227 -73c-107 0 -198 38 -275 114s-115 167 -115 274s38 199 115 276
c78 77 171 116 280 116c77 0 151 -25 222 -75zM606 951l-58 46l-99 -86l-99 86l-60 -46l159 -135z" />
    <glyph glyph-name="ccaron" unicode="&#x10d;" horiz-adv-x="492" 
d="M443 436v-106c-26 29 -50 49 -72 60s-47 17 -76 17c-47 0 -87 -17 -119 -50c-31 -33 -47 -74 -47 -124c0 -49 16 -91 47 -124c32 -33 71 -49 117 -49c29 0 56 6 79 18s46 33 74 64v-107c-51 -32 -101 -48 -150 -48c-70 0 -129 24 -177 71s-72 105 -72 174
c0 70 24 129 72 177c48 47 107 71 178 71c51 0 99 -15 146 -44zM393 742l56 -45l-155 -147l-158 147l59 45l99 -94z" />
    <glyph glyph-name="dcroat" unicode="&#x111;" horiz-adv-x="593" 
d="M129 238c0 -51 14 -94 43 -128c29 -33 66 -50 111 -50c93 0 157 71 157 175c0 51 -15 92 -44 124s-66 48 -112 48c-44 0 -81 -16 -111 -49c-29 -31 -44 -71 -44 -120zM435 719v106h81v-106h67v-72h-67v-647h-81v65c-43 -52 -97 -78 -163 -78c-65 0 -118 23 -161 70
s-64 107 -64 178s21 130 63 176c43 46 96 69 161 69s119 -26 164 -77v244h-136v72h136z" />
    <glyph glyph-name="Acute" horiz-adv-x="701" 
d="M428 998l75 -51l-162 -132l-49 36z" />
    <glyph glyph-name="Grave" horiz-adv-x="701" 
d="M368 815l-162 132l76 51l135 -147z" />
    <glyph glyph-name="Circumflex" horiz-adv-x="701" 
d="M258 816l-58 46l157 135l159 -135l-59 -46l-100 85z" />
    <glyph glyph-name="Tilde" horiz-adv-x="701" 
d="M239 844l-49 38c27 53 60 80 101 80c17 0 41 -8 72 -23c29 -15 49 -22 62 -22c18 0 35 16 52 47l48 -36c-26 -55 -60 -82 -103 -82c-18 0 -43 8 -74 24c-29 15 -50 22 -63 22c-15 0 -31 -16 -46 -48z" />
    <glyph glyph-name="Cedilla" horiz-adv-x="730" 
d="M409 -52l81 -37l-125 -146l-57 29z" />
    <glyph glyph-name="Dieresiscondensed" horiz-adv-x="280" 
d="M159 903c0 31 26 57 57 57c32 0 58 -26 58 -58s-26 -58 -57 -58c-32 0 -58 26 -58 59zM6 903c0 31 26 57 57 57c32 0 58 -26 58 -58s-26 -58 -58 -58c-15 0 -29 6 -41 17c-11 11 -16 25 -16 42z" />
    <glyph glyph-name="Acutecondensed" horiz-adv-x="280" 
d="M195 998l76 -51l-136 -132l-49 32z" />
    <glyph glyph-name="Gravecondensed" horiz-adv-x="280" 
d="M146 815l-136 132l76 51l109 -151z" />
    <glyph glyph-name="Circumflexcondensed" horiz-adv-x="280" 
d="M56 816l-55 46l139 135l140 -135l-56 -46l-84 85z" />
    <glyph glyph-name="Caron" horiz-adv-x="604" 
d="M421 997l58 -46l-157 -135l-159 135l60 46l99 -86z" />
    <glyph glyph-name="dieresiscondensed" horiz-adv-x="235" 
d="M137 634c0 15 5 27 16 37c11 11 23 16 38 16c29 0 54 -23 54 -53c0 -15 -5 -28 -16 -39s-23 -16 -38 -16s-28 5 -39 16c-10 11 -15 24 -15 39zM-9 634c0 15 5 27 15 37c10 11 23 16 38 16s28 -5 39 -16c11 -10 16 -22 16 -37s-5 -28 -16 -39s-24 -16 -39 -16
s-28 5 -38 16s-15 24 -15 39z" />
    <glyph glyph-name="acutecondensed" horiz-adv-x="235" 
d="M166 742l83 -38l-134 -154l-46 28z" />
    <glyph glyph-name="gravecondensed" horiz-adv-x="235" 
d="M119 550l-133 154l83 38l97 -164z" />
    <glyph glyph-name="circumflexcondensed" horiz-adv-x="235" 
d="M36 550l-52 45l133 147l134 -147l-54 -45l-80 94z" />
    <glyph glyph-name="apple" horiz-adv-x="578" 
d="M396 290v139h15c41 0 71 -25 71 -70c0 -48 -32 -69 -72 -69h-14zM331 234h92c37 0 68 15 92 39c-37 -96 -126 -164 -235 -164c-94 0 -172 51 -217 125h40v154h1l119 -154h65v250h-65v-152h-1l-119 152h-40c45 74 123 125 217 125c108 0 199 -67 234 -163
c-23 25 -54 38 -91 38h-92v-250z" />
    <glyph glyph-name="fraction" unicode="&#x2044;" horiz-adv-x="158" 
d="M-162 11l439 758l43 -24l-438 -759z" />
    <glyph glyph-name="Scedilla" unicode="&#x15e;" horiz-adv-x="585" 
d="M501 649l-67 -44c-19 31 -38 52 -57 64s-43 18 -72 18c-35 0 -65 -11 -89 -33c-24 -21 -36 -49 -36 -83c0 -45 36 -82 107 -113l71 -32c61 -27 104 -56 131 -88c27 -31 40 -71 40 -119c0 -66 -23 -121 -70 -165c-46 -45 -103 -67 -170 -67c-59 0 -109 17 -150 51
c-41 33 -68 81 -82 143l81 23c21 -93 72 -139 154 -139c41 0 77 15 107 44c29 29 44 64 44 105c0 31 -9 57 -28 78s-52 42 -99 63l-68 32c-56 24 -93 50 -117 79s-36 64 -36 106c0 56 20 102 60 139c41 37 91 56 152 56c84 0 149 -39 194 -118zM273 -52l81 -37l-125 -146
l-57 29z" />
    <glyph glyph-name="scedilla" unicode="&#x15f;" horiz-adv-x="396" 
d="M335 396l-66 -36c-17 31 -38 47 -65 47c-15 0 -29 -5 -40 -15c-11 -11 -17 -23 -17 -37s5 -25 15 -34c9 -9 30 -20 61 -33c56 -23 93 -45 112 -66c19 -20 29 -47 29 -82c0 -44 -15 -81 -46 -110s-69 -43 -114 -43c-79 0 -134 40 -165 119l71 30c13 -29 27 -49 41 -60
c13 -11 30 -16 53 -16s42 7 56 21c15 14 22 32 22 53c0 17 -5 32 -16 43c-11 10 -31 22 -60 35c-54 23 -90 44 -109 62c-18 19 -27 44 -27 75c0 37 13 68 39 93s59 38 98 38c57 0 99 -28 128 -84zM197 -52l74 -31l-113 -145l-56 28z" />
    <glyph glyph-name="Commaaccent" horiz-adv-x="234" 
d="M158 754v-126l-40 -89l-27 11l28 78l-1 18h-41v108h81z" />
    <glyph glyph-name="Ring" horiz-adv-x="701" 
d="M307 912c0 -27 22 -49 47 -49c26 0 48 22 48 48c0 27 -20 47 -48 47c-25 0 -47 -21 -47 -46zM252 912c0 27 10 51 30 71c20 21 44 31 72 31c56 0 103 -47 103 -103c0 -28 -10 -52 -30 -73c-20 -19 -44 -29 -73 -29c-28 0 -52 10 -72 30s-30 44 -30 73z" />
    <glyph glyph-name="Breve" horiz-adv-x="857" 
d="M298 974h73c12 -50 40 -75 83 -75c45 0 73 25 86 75h72c-12 -93 -68 -147 -157 -147c-93 0 -148 51 -157 147z" />
    <glyph glyph-name="Dotaccent" horiz-adv-x="280" 
d="M80 902c0 17 6 31 17 42c12 12 26 18 43 18s31 -6 43 -18c12 -11 18 -26 18 -43s-6 -31 -18 -43c-12 -11 -26 -17 -42 -17c-17 0 -32 6 -44 17c-11 12 -17 27 -17 44z" />
    <glyph glyph-name="Hungarumlaut" horiz-adv-x="565" 
d="M457 998l75 -51l-162 -132l-49 36zM279 998l76 -51l-162 -132l-49 36z" />
    <glyph glyph-name="CR" horiz-adv-x="500" 
 />
    <glyph glyph-name="periodcentered" horiz-adv-x="309" 
d="M98 378c0 15 5 28 16 39s25 16 40 16c31 0 56 -25 56 -56c0 -15 -6 -28 -17 -39s-24 -16 -39 -16c-30 0 -56 25 -56 56z" />
  </font>
</defs>
</svg>
