<?xml version="1.0" encoding="UTF-8"?>
<svg width="900px" height="290px" viewBox="0 0 900 290" version="1.1" xmlns="http://www.w3.org/2000/svg" xmlns:xlink="http://www.w3.org/1999/xlink">
    <!-- Generator: Sketch 52.5 (67469) - http://www.bohemiancoding.com/sketch -->
    <title>Dam_w_Diode_Failure</title>
    <desc>Created with Sketch.</desc>
    <g id="Dam_w_Diode_Failure" stroke="none" stroke-width="1" fill="none" fill-rule="evenodd">
        <rect id="Rectangle" stroke="#3D3530" stroke-width="2" fill="#EEEEEE" x="1" y="1" width="898" height="428"></rect>
        <g id="dam" transform="translate(168.000000, 13.000000)">
            <rect id="Rectangle" fill="#1A80AA" x="71" y="119" width="370" height="80"></rect>
            <path d="M1.56319402e-13,0 C31,42 166.941838,85 177.470919,99.5 C184.490306,109.166667 186.151729,142.333333 182.455187,199 L1.56319402e-13,199 C1.56319402e-13,91.6666667 1.56319402e-13,25.3333333 1.56319402e-13,0 Z" id="Path-5" fill="#84705B"></path>
            <rect id="Rectangle" fill="#4D4D4D" x="182" y="100" width="21" height="99"></rect>
            <polygon id="Path-6-Copy" fill="#B2B2B2" points="203 108 314 108 314 199 203 199"></polygon>
            <path d="M440.66,198 C433.886667,153.333333 435.804,119.333333 446.412,96 C457.02,72.6666667 479.932,43 515.148,7 L515.148,198 L440.66,198 Z" id="Path-7" fill="#84705B"></path>
            <polygon id="Path-6-Copy-2" fill="#B2B2B2" points="333 119 444 119 444 199 333 199"></polygon>
            <rect id="Rectangle-Copy-2" fill="#4D4D4D" x="314" y="100" width="21" height="99"></rect>
            <path d="M182,120 L441,120" id="Line" stroke="#1A80AA" stroke-width="2" opacity="0.200000003" stroke-linecap="square" stroke-dasharray="15,15"></path>
        </g>
        <g id="TitleBlock" transform="translate(0.000000, 245.000000)">
            <rect id="Rectangle-Copy" stroke="#3D3530" stroke-width="2" fill="#F8FAE4" x="1" y="1" width="898" height="43"></rect>
            <path d="M730.309333,30 L730.309333,13.872 L733.957333,13.872 C736.613346,13.872 738.725325,14.6399923 740.293333,16.176 C741.861341,17.7120077 742.645333,19.6319885 742.645333,21.936 C742.645333,24.2240114 741.857341,26.1399923 740.281333,27.684 C738.705325,29.2280077 736.597346,30 733.957333,30 L730.309333,30 Z M731.893333,28.488 L733.957333,28.488 C736.069343,28.488 737.757327,27.8680062 739.021333,26.628 C740.285339,25.3879938 740.917333,23.8240094 740.917333,21.936 C740.917333,20.0479906 740.285339,18.4840062 739.021333,17.244 C737.757327,16.0039938 736.069343,15.384 733.957333,15.384 L731.893333,15.384 L731.893333,28.488 Z M747.752,14.4 C747.575999,14.592001 747.352001,14.688 747.08,14.688 C746.807998,14.688 746.580001,14.592001 746.396,14.4 C746.211999,14.207999 746.12,13.9840013 746.12,13.728 C746.12,13.4719987 746.211999,13.248001 746.396,13.056 C746.580001,12.863999 746.807998,12.768 747.08,12.768 C747.352001,12.768 747.579999,12.863999 747.764,13.056 C747.948001,13.248001 748.04,13.4719987 748.04,13.728 C748.04,13.9840013 747.944001,14.207999 747.752,14.4 Z M746.288,30 L746.288,18 L747.872,18 L747.872,30 L746.288,30 Z M761.906666,28.368 C760.70666,29.5840061 759.250675,30.192 757.538666,30.192 C755.826658,30.192 754.366672,29.588006 753.158666,28.38 C751.95066,27.171994 751.346666,25.7120086 751.346666,24 C751.346666,22.2879914 751.95066,20.828006 753.158666,19.62 C754.366672,18.411994 755.826658,17.808 757.538666,17.808 C759.250675,17.808 760.71066,18.411994 761.918666,19.62 C763.126672,20.828006 763.730666,22.2879914 763.730666,24 C763.730666,25.6960085 763.122672,27.1519939 761.906666,28.368 Z M757.562666,28.68 C758.858673,28.68 759.950662,28.2280045 760.838666,27.324 C761.726671,26.4199955 762.170666,25.3120066 762.170666,24 C762.170666,22.6879934 761.726671,21.5760046 760.838666,20.664 C759.950662,19.7519954 758.858673,19.296 757.562666,19.296 C756.28266,19.296 755.194671,19.7519954 754.298666,20.664 C753.402662,21.5760046 752.954666,22.6879934 752.954666,24 C752.954666,25.3120066 753.402662,26.4199955 754.298666,27.324 C755.194671,28.2280045 756.28266,28.68 757.562666,28.68 Z M777.021333,12.144 L778.605333,12.144 L778.605333,30 L777.021333,30 L777.021333,28.056 C775.789327,29.4800071 774.229342,30.192 772.341333,30.192 C770.629324,30.192 769.169339,29.588006 767.961333,28.38 C766.753327,27.171994 766.149333,25.7120086 766.149333,24 C766.149333,22.2879914 766.753327,20.828006 767.961333,19.62 C769.169339,18.411994 770.629324,17.808 772.341333,17.808 C774.245343,17.808 775.805327,18.5199929 777.021333,19.944 L777.021333,12.144 Z M769.077333,27.336 C769.973337,28.2320045 771.069327,28.68 772.365333,28.68 C773.661339,28.68 774.753329,28.2280045 775.641333,27.324 C776.529337,26.4199955 776.973333,25.3120066 776.973333,24 C776.973333,22.6879934 776.529337,21.5800045 775.641333,20.676 C774.753329,19.7719955 773.661339,19.32 772.365333,19.32 C771.069327,19.32 769.973337,19.7719955 769.077333,20.676 C768.181329,21.5800045 767.733333,22.6879934 767.733333,24 C767.733333,25.3120066 768.181329,26.4239954 769.077333,27.336 Z M788.032,28.608 C789.104005,28.608 790.063995,28.304003 790.912,27.696 C791.760004,27.087997 792.335998,26.3760041 792.64,25.56 L793.984,26.04 C793.615998,27.048005 792.900005,27.9759958 791.836,28.824 C790.771994,29.6720042 789.504007,30.0880001 788.032,30.072 C786.687993,30.072 785.460005,29.6560042 784.348,28.824 C783.235994,27.9919958 782.480002,26.9280065 782.08,25.632 C781.919999,25.1039974 781.84,24.5280031 781.84,23.904 C781.84,22.1759914 782.439994,20.712006 783.64,19.512 C784.840006,18.311994 786.303991,17.7040001 788.032,17.688 C789.600008,17.7040001 790.967994,18.2319948 792.136,19.272 C793.304006,20.3120052 793.975999,21.5999923 794.152,23.136 C794.168,23.2160004 794.176,23.3199994 794.176,23.448 L783.688,25.344 C783.960001,26.3040048 784.503996,27.0919969 785.32,27.708 C786.136004,28.3240031 787.039995,28.6240001 788.032,28.608 Z M787.888,19.152 C786.687994,19.1680001 785.660004,19.5999958 784.804,20.448 C783.947995,21.2960042 783.488,22.3119941 783.424,23.496 C783.424,23.5440002 783.428,23.6279994 783.436,23.748 C783.444,23.8680006 783.448,23.9679996 783.448,24.048 L792.376,22.44 C792.071998,21.4639951 791.504004,20.6680031 790.672,20.052 C789.839996,19.4359969 788.912005,19.1359999 787.888,19.152 Z M813.845333,15.456 L806.501333,15.456 L806.501333,21.168 L811.565333,21.168 L811.565333,22.752 L806.501333,22.752 L806.501333,30 L804.917333,30 L804.917333,13.872 L813.845333,13.872 L813.845333,15.456 Z M825.264,18 L826.848,18 L826.848,30 L825.264,30 L825.264,28.056 C824.031994,29.4800071 822.472009,30.192 820.584,30.192 C818.871991,30.192 817.412006,29.588006 816.204,28.38 C814.995994,27.171994 814.392,25.7120086 814.392,24 C814.392,22.2879914 814.995994,20.828006 816.204,19.62 C817.412006,18.411994 818.871991,17.808 820.584,17.808 C822.488009,17.808 824.047994,18.5199929 825.264,19.944 L825.264,18 Z M820.608,28.68 C821.904006,28.68 822.995995,28.2280045 823.884,27.324 C824.772004,26.4199955 825.216,25.3120066 825.216,24 C825.216,22.6879934 824.772004,21.5800045 823.884,20.676 C822.995995,19.7719955 821.904006,19.32 820.608,19.32 C819.327993,19.32 818.236004,19.7719955 817.332,20.676 C816.427995,21.5800045 815.976,22.6879934 815.976,24 C815.976,25.3120066 816.427995,26.4199955 817.332,27.324 C818.236004,28.2280045 819.327993,28.68 820.608,28.68 Z M832.650666,14.4 C832.474666,14.592001 832.250668,14.688 831.978667,14.688 C831.706665,14.688 831.478667,14.592001 831.294666,14.4 C831.110666,14.207999 831.018666,13.9840013 831.018666,13.728 C831.018666,13.4719987 831.110666,13.248001 831.294666,13.056 C831.478667,12.863999 831.706665,12.768 831.978667,12.768 C832.250668,12.768 832.478666,12.863999 832.662667,13.056 C832.846667,13.248001 832.938666,13.4719987 832.938666,13.728 C832.938666,13.9840013 832.842667,14.207999 832.650666,14.4 Z M831.186667,30 L831.186667,18 L832.770666,18 L832.770666,30 L831.186667,30 Z M837.109333,30 L837.109333,12.144 L838.693333,12.144 L838.693333,30 L837.109333,30 Z M851.432,18 L853.016,18 L853.016,30 L851.432,30 L851.432,28.224 C850.455995,29.5360066 849.176008,30.192 847.592,30.192 C846.199993,30.192 845.032005,29.7000049 844.088,28.716 C843.143995,27.7319951 842.672,26.5200072 842.672,25.08 L842.672,18 L844.304,18 L844.304,25.032 C844.304,26.0560051 844.647996,26.9239964 845.336,27.636 C846.024003,28.3480036 846.863995,28.704 847.856,28.704 C848.864005,28.704 849.711996,28.3480036 850.4,27.636 C851.088003,26.9239964 851.432,26.0560051 851.432,25.032 L851.432,18 Z M862.394667,17.808 C863.242671,17.808 864.018663,18.0159979 864.722667,18.432 L864.170667,20.016 C863.498663,19.5199975 862.81867,19.272 862.130667,19.272 C861.122662,19.272 860.27467,19.6279964 859.586667,20.34 C858.898663,21.0520036 858.554667,21.9279948 858.554667,22.968 L858.554667,30 L856.970667,30 L856.970667,18 L858.554667,18 L858.554667,19.776 C859.530671,18.4639934 860.810659,17.808 862.394667,17.808 Z M872.037333,28.608 C873.109339,28.608 874.069329,28.304003 874.917333,27.696 C875.765338,27.087997 876.341332,26.3760041 876.645333,25.56 L877.989333,26.04 C877.621331,27.048005 876.905339,27.9759958 875.841333,28.824 C874.777328,29.6720042 873.509341,30.0880001 872.037333,30.072 C870.693327,30.072 869.465339,29.6560042 868.353333,28.824 C867.241328,27.9919958 866.485335,26.9280065 866.085333,25.632 C865.925332,25.1039974 865.845333,24.5280031 865.845333,23.904 C865.845333,22.1759914 866.445327,20.712006 867.645333,19.512 C868.845339,18.311994 870.309325,17.7040001 872.037333,17.688 C873.605341,17.7040001 874.973327,18.2319948 876.141333,19.272 C877.309339,20.3120052 877.981332,21.5999923 878.157333,23.136 C878.173333,23.2160004 878.181333,23.3199994 878.181333,23.448 L867.693333,25.344 C867.965335,26.3040048 868.509329,27.0919969 869.325333,27.708 C870.141337,28.3240031 871.045328,28.6240001 872.037333,28.608 Z M871.893333,19.152 C870.693327,19.1680001 869.665338,19.5999958 868.809333,20.448 C867.953329,21.2960042 867.493334,22.3119941 867.429333,23.496 C867.429333,23.5440002 867.433333,23.6279994 867.441333,23.748 C867.449333,23.8680006 867.453333,23.9679996 867.453333,24.048 L876.381333,22.44 C876.077332,21.4639951 875.509337,20.6680031 874.677333,20.052 C873.845329,19.4359969 872.917338,19.1359999 871.893333,19.152 Z" id="Diode-Failure-Copy" fill="#23ABE3"></path>
        </g>
    </g>
</svg>