<?xml version="1.0" encoding="UTF-8"?>
<svg width="900px" height="290px" viewBox="0 0 900 290" version="1.1" xmlns="http://www.w3.org/2000/svg" xmlns:xlink="http://www.w3.org/1999/xlink">
    <!-- Generator: Sketch 52.5 (67469) - http://www.bohemiancoding.com/sketch -->
    <title>Dam_w_Avalanche_Breakdown</title>
    <desc>Created with Sketch.</desc>
    <g id="Dam_w_Avalanche_Breakdown" stroke="none" stroke-width="1" fill="none" fill-rule="evenodd">
        <rect id="Rectangle" stroke="#3D3530" stroke-width="2" fill="#EEEEEE" x="1" y="1" width="898" height="428"></rect>
        <rect id="Rectangle" fill="#1A80AA" x="239" y="132" width="370" height="80"></rect>
        <path d="M168,13 C199,55 227.89326,81.3698417 239,112.5 C246.404493,133.253439 246.404493,166.420106 239,212 L168,212 C168,104.666667 168,38.3333333 168,13 Z" id="Path-5" fill="#84705B"></path>
        <rect id="Rectangle" fill="#4D4D4D" x="350" y="113" width="21" height="99"></rect>
        <polygon id="Path-6-Copy" fill="#B2B2B2" points="371 121 482 121 482 212 371 212"></polygon>
        <path d="M608.66,211 C601.886667,166.333333 603.804,132.333333 614.412,109 C625.02,85.6666667 647.932,56 683.148,20 L683.148,211 L608.66,211 Z" id="Path-7" fill="#84705B"></path>
        <polygon id="Path-6-Copy-2" fill="#B2B2B2" points="501 132 612 132 612 212 501 212"></polygon>
        <rect id="Rectangle-Copy-2" fill="#4D4D4D" x="482" y="113" width="21" height="99"></rect>
        <path d="M350,133 L609,133" id="Line" stroke="#1A80AA" stroke-width="2" opacity="0.200000003" stroke-linecap="square" stroke-dasharray="15,15"></path>
        <g id="TitleBlock" transform="translate(0.000000, 245.000000)">
            <rect id="Rectangle-Copy" stroke="#3D3530" stroke-width="2" fill="#F8FAE4" x="1" y="1" width="898" height="43"></rect>
            <path d="M662.114666,28.416 L669.458666,28.416 L669.458666,30 L660.530666,30 L660.530666,13.872 L662.114666,13.872 L662.114666,28.416 Z M682.677333,15.456 L673.677333,15.456 L673.677333,21 L678.741333,21 L678.741333,22.584 L673.677333,22.584 L673.677333,28.416 L682.677333,28.416 L682.677333,30 L672.093333,30 L672.093333,13.872 L682.677333,13.872 L682.677333,15.456 Z M686.511999,30 L686.511999,13.872 L690.159999,13.872 C692.816013,13.872 694.927992,14.6399923 696.495999,16.176 C698.064007,17.7120077 698.847999,19.6319885 698.847999,21.936 C698.847999,24.2240114 698.060007,26.1399923 696.483999,27.684 C694.907992,29.2280077 692.800013,30 690.159999,30 L686.511999,30 Z M688.095999,28.488 L690.159999,28.488 C692.27201,28.488 693.959993,27.8680062 695.223999,26.628 C696.488006,25.3879938 697.119999,23.8240094 697.119999,21.936 C697.119999,20.0479906 696.488006,18.4840062 695.223999,17.244 C693.959993,16.0039938 692.27201,15.384 690.159999,15.384 L688.095999,15.384 L688.095999,28.488 Z M709.565333,30 L709.565333,13.872 L715.037333,13.872 C716.845342,13.872 718.285327,14.3479952 719.357333,15.3 C720.429338,16.2520048 720.965333,17.4479928 720.965333,18.888 C720.965333,20.3120071 720.429338,21.5039952 719.357333,22.464 C718.285327,23.4240048 716.845342,23.904 715.037333,23.904 L711.149333,23.904 L711.149333,30 L709.565333,30 Z M711.149333,22.392 L715.037333,22.392 C716.333339,22.392 717.373329,22.0600033 718.157333,21.396 C718.941337,20.7319967 719.333333,19.896005 719.333333,18.888 C719.333333,17.895995 718.941337,17.0640034 718.157333,16.392 C717.373329,15.7199966 716.333339,15.384 715.037333,15.384 L711.149333,15.384 L711.149333,22.392 Z M733.679999,18 L735.263999,18 L735.263999,30 L733.679999,30 L733.679999,28.056 C732.447993,29.4800071 730.888009,30.192 728.999999,30.192 C727.287991,30.192 725.828006,29.588006 724.619999,28.38 C723.411993,27.171994 722.807999,25.7120086 722.807999,24 C722.807999,22.2879914 723.411993,20.828006 724.619999,19.62 C725.828006,18.411994 727.287991,17.808 728.999999,17.808 C730.904009,17.808 732.463993,18.5199929 733.679999,19.944 L733.679999,18 Z M729.023999,28.68 C730.320006,28.68 731.411995,28.2280045 732.299999,27.324 C733.188004,26.4199955 733.631999,25.3120066 733.631999,24 C733.631999,22.6879934 733.188004,21.5800045 732.299999,20.676 C731.411995,19.7719955 730.320006,19.32 729.023999,19.32 C727.743993,19.32 726.652004,19.7719955 725.747999,20.676 C724.843995,21.5800045 724.391999,22.6879934 724.391999,24 C724.391999,25.3120066 724.843995,26.4199955 725.747999,27.324 C726.652004,28.2280045 727.743993,28.68 729.023999,28.68 Z M744.594666,17.808 C745.44267,17.808 746.218663,18.0159979 746.922666,18.432 L746.370666,20.016 C745.698663,19.5199975 745.01867,19.272 744.330666,19.272 C743.322661,19.272 742.47467,19.6279964 741.786666,20.34 C741.098663,21.0520036 740.754666,21.9279948 740.754666,22.968 L740.754666,30 L739.170666,30 L739.170666,18 L740.754666,18 L740.754666,19.776 C741.730671,18.4639934 743.010658,17.808 744.594666,17.808 Z M758.917333,18 L760.501333,18 L760.501333,30 L758.917333,30 L758.917333,28.056 C757.685327,29.4800071 756.125342,30.192 754.237333,30.192 C752.525324,30.192 751.065339,29.588006 749.857333,28.38 C748.649327,27.171994 748.045333,25.7120086 748.045333,24 C748.045333,22.2879914 748.649327,20.828006 749.857333,19.62 C751.065339,18.411994 752.525324,17.808 754.237333,17.808 C756.141342,17.808 757.701327,18.5199929 758.917333,19.944 L758.917333,18 Z M754.261333,28.68 C755.557339,28.68 756.649328,28.2280045 757.537333,27.324 C758.425337,26.4199955 758.869333,25.3120066 758.869333,24 C758.869333,22.6879934 758.425337,21.5800045 757.537333,20.676 C756.649328,19.7719955 755.557339,19.32 754.261333,19.32 C752.981326,19.32 751.889337,19.7719955 750.985333,20.676 C750.081328,21.5800045 749.629333,22.6879934 749.629333,24 C749.629333,25.3120066 750.081328,26.4199955 750.985333,27.324 C751.889337,28.2280045 752.981326,28.68 754.261333,28.68 Z M764.552,30 L764.552,12.144 L766.136,12.144 L766.136,30 L764.552,30 Z M770.138666,30 L770.138666,12.144 L771.722666,12.144 L771.722666,30 L770.138666,30 Z M781.149333,28.608 C782.221338,28.608 783.181329,28.304003 784.029333,27.696 C784.877337,27.087997 785.453331,26.3760041 785.757333,25.56 L787.101333,26.04 C786.733331,27.048005 786.017338,27.9759958 784.953333,28.824 C783.889328,29.6720042 782.62134,30.0880001 781.149333,30.072 C779.805326,30.072 778.577339,29.6560042 777.465333,28.824 C776.353327,27.9919958 775.597335,26.9280065 775.197333,25.632 C775.037332,25.1039974 774.957333,24.5280031 774.957333,23.904 C774.957333,22.1759914 775.557327,20.712006 776.757333,19.512 C777.957339,18.311994 779.421324,17.7040001 781.149333,17.688 C782.717341,17.7040001 784.085327,18.2319948 785.253333,19.272 C786.421339,20.3120052 787.093332,21.5999923 787.269333,23.136 C787.285333,23.2160004 787.293333,23.3199994 787.293333,23.448 L776.805333,25.344 C777.077334,26.3040048 777.621329,27.0919969 778.437333,27.708 C779.253337,28.3240031 780.157328,28.6240001 781.149333,28.608 Z M781.005333,19.152 C779.805327,19.1680001 778.777337,19.5999958 777.921333,20.448 C777.065329,21.2960042 776.605333,22.3119941 776.541333,23.496 C776.541333,23.5440002 776.545333,23.6279994 776.553333,23.748 C776.561333,23.8680006 776.565333,23.9679996 776.565333,24.048 L785.493333,22.44 C785.189331,21.4639951 784.621337,20.6680031 783.789333,20.052 C782.957329,19.4359969 782.029338,19.1359999 781.005333,19.152 Z M790.792,30 L790.792,12.144 L792.376,12.144 L792.376,30 L790.792,30 Z M810.869333,30.192 C808.501321,30.192 806.61334,29.4040079 805.205333,27.828 C803.797326,26.2519921 803.093333,24.2960117 803.093333,21.96 C803.093333,19.6079882 803.797326,17.6440079 805.205333,16.068 C806.61334,14.4919921 808.501321,13.704 810.869333,13.704 C812.437341,13.704 813.801327,14.0639964 814.961333,14.784 C816.121339,15.5040036 817.02133,16.4879938 817.661333,17.736 L816.173333,18.6 C815.661331,17.5599948 814.945338,16.736003 814.025333,16.128 C813.105328,15.519997 812.053339,15.216 810.869333,15.216 C809.045324,15.216 807.585339,15.8519936 806.489333,17.124 C805.393328,18.3960064 804.845333,20.0079902 804.845333,21.96 C804.845333,23.8960097 805.393328,25.5039936 806.489333,26.784 C807.585339,28.0640064 809.045324,28.704 810.869333,28.704 C812.069339,28.704 813.129328,28.3960031 814.049333,27.78 C814.969338,27.1639969 815.677331,26.3360052 816.173333,25.296 L817.661333,26.184 C817.02133,27.4320062 816.121339,28.4119964 814.961333,29.124 C813.801327,29.8360036 812.437341,30.192 810.869333,30.192 Z M822.84,14.4 C822.663999,14.592001 822.440001,14.688 822.168,14.688 C821.895998,14.688 821.668001,14.592001 821.484,14.4 C821.299999,14.207999 821.208,13.9840013 821.208,13.728 C821.208,13.4719987 821.299999,13.248001 821.484,13.056 C821.668001,12.863999 821.895998,12.768 822.168,12.768 C822.440001,12.768 822.667999,12.863999 822.852,13.056 C823.036001,13.248001 823.128,13.4719987 823.128,13.728 C823.128,13.9840013 823.032001,14.207999 822.84,14.4 Z M821.376,30 L821.376,18 L822.96,18 L822.96,30 L821.376,30 Z M832.722666,17.808 C833.570671,17.808 834.346663,18.0159979 835.050666,18.432 L834.498666,20.016 C833.826663,19.5199975 833.14667,19.272 832.458666,19.272 C831.450661,19.272 830.60267,19.6279964 829.914666,20.34 C829.226663,21.0520036 828.882666,21.9279948 828.882666,22.968 L828.882666,30 L827.298666,30 L827.298666,18 L828.882666,18 L828.882666,19.776 C829.858671,18.4639934 831.138659,17.808 832.722666,17.808 Z M842.365333,30.192 C840.653325,30.192 839.193339,29.588006 837.985333,28.38 C836.777327,27.171994 836.173333,25.7120086 836.173333,24 C836.173333,22.2879914 836.777327,20.828006 837.985333,19.62 C839.193339,18.411994 840.653325,17.808 842.365333,17.808 C843.453339,17.808 844.465329,18.0759973 845.401333,18.612 C846.337338,19.1480027 847.07733,19.8639955 847.621333,20.76 L846.181333,21.456 C845.749331,20.7999967 845.197337,20.2800019 844.525333,19.896 C843.85333,19.5119981 843.133337,19.32 842.365333,19.32 C841.069327,19.32 839.977338,19.7719955 839.089333,20.676 C838.201329,21.5800045 837.757333,22.6879934 837.757333,24 C837.757333,25.3120066 838.201329,26.4199955 839.089333,27.324 C839.977338,28.2280045 841.069327,28.68 842.365333,28.68 C843.133337,28.68 843.85333,28.4880019 844.525333,28.104 C845.197337,27.7199981 845.749331,27.2000033 846.181333,26.544 L847.621333,27.24 C847.07733,28.1360045 846.337338,28.8519973 845.401333,29.388 C844.465329,29.9240027 843.453339,30.192 842.365333,30.192 Z M859.664,18 L861.248,18 L861.248,30 L859.664,30 L859.664,28.224 C858.687995,29.5360066 857.408008,30.192 855.824,30.192 C854.431993,30.192 853.264005,29.7000049 852.32,28.716 C851.375995,27.7319951 850.904,26.5200072 850.904,25.08 L850.904,18 L852.536,18 L852.536,25.032 C852.536,26.0560051 852.879996,26.9239964 853.568,27.636 C854.256003,28.3480036 855.095995,28.704 856.088,28.704 C857.096005,28.704 857.943996,28.3480036 858.632,27.636 C859.320003,26.9239964 859.664,26.0560051 859.664,25.032 L859.664,18 Z M867.050667,14.4 C866.874666,14.592001 866.650668,14.688 866.378667,14.688 C866.106665,14.688 865.878668,14.592001 865.694667,14.4 C865.510666,14.207999 865.418667,13.9840013 865.418667,13.728 C865.418667,13.4719987 865.510666,13.248001 865.694667,13.056 C865.878668,12.863999 866.106665,12.768 866.378667,12.768 C866.650668,12.768 866.878666,12.863999 867.062667,13.056 C867.246668,13.248001 867.338667,13.4719987 867.338667,13.728 C867.338667,13.9840013 867.242668,14.207999 867.050667,14.4 Z M865.586667,30 L865.586667,18 L867.170667,18 L867.170667,30 L865.586667,30 Z M877.653333,27.312 L878.445333,28.536 C878.349333,28.6640006 878.221334,28.8159991 878.061333,28.992 C877.901332,29.1680009 877.541336,29.4119984 876.981333,29.724 C876.42133,30.0360016 875.845336,30.192 875.253333,30.192 C874.245328,30.192 873.401337,29.892003 872.721333,29.292 C872.04133,28.691997 871.701333,27.8240057 871.701333,26.688 L871.701333,19.44 L869.781333,19.44 L869.781333,17.976 L871.701333,17.976 L871.701333,14.184 L873.285333,13.992 L873.285333,17.976 L876.909333,17.976 L876.909333,19.44 L873.285333,19.44 L873.285333,26.328 C873.285333,27.0640037 873.513331,27.6479978 873.969333,28.08 C874.425336,28.5120022 874.94933,28.728 875.541333,28.728 C875.909335,28.728 876.269332,28.6160011 876.621333,28.392 C876.973335,28.1679989 877.233332,27.9480011 877.401333,27.732 C877.569334,27.5159989 877.653333,27.3760003 877.653333,27.312 Z" id="LED-Parallel-Circuit-Copy" fill="#23ABE3"></path>
        </g>
    </g>
</svg>