<?xml version="1.0" encoding="UTF-8"?>
<svg width="900px" height="290px" viewBox="0 0 900 290" version="1.1" xmlns="http://www.w3.org/2000/svg" xmlns:xlink="http://www.w3.org/1999/xlink">
    <!-- Generator: Sketch 52.5 (67469) - http://www.bohemiancoding.com/sketch -->
    <title>Dam_w_Single_LED</title>
    <desc>Created with Sketch.</desc>
    <g id="Dam_w_Single_LED" stroke="none" stroke-width="1" fill="none" fill-rule="evenodd">
        <rect id="Rectangle" stroke="#3D3530" stroke-width="2" fill="#EEEEEE" x="1" y="1" width="898" height="428"></rect>
        <rect id="Rectangle" fill="#1A80AA" x="239" y="132" width="370" height="79"></rect>
        <path d="M168,13 C199,55 227.89326,81.3698417 239,112.5 C246.404493,133.253439 246.404493,166.420106 239,212 L168,212 C168,104.666667 168,38.3333333 168,13 Z" id="Path-5" fill="#84705B"></path>
        <polygon id="Path-6" fill="#B2B2B2" points="239 144 350 144 350 212 239 212"></polygon>
        <rect id="Rectangle" fill="#4D4D4D" x="350" y="113" width="21" height="99"></rect>
        <polygon id="Path-6-Copy" fill="#B2B2B2" points="371 121 482 121 482 212 371 212"></polygon>
        <path d="M608.66,211 C601.886667,166.333333 603.804,132.333333 614.412,109 C625.02,85.6666667 647.932,56 683.148,20 L683.148,211 L608.66,211 Z" id="Path-7" fill="#84705B"></path>
        <polygon id="Path-6-Copy-2" fill="#B2B2B2" points="501 132 612 132 612 212 501 212"></polygon>
        <rect id="Rectangle-Copy-2" fill="#4D4D4D" x="482" y="113" width="21" height="99"></rect>
        <path d="M245,142 C252.333333,148.666667 256,156.666667 256,166 C256,180 256,212 256,212 C256,212 280.333333,212 329,212 C324.333333,189.333333 324.333333,174 329,166 C333.666667,158 340.666667,150 350,142 L245,142 Z" id="Path-8" fill="#1A80AA"></path>
        <path d="M350,133 L609,133" id="Line" stroke="#1A80AA" stroke-width="2" opacity="0.200000003" stroke-linecap="square" stroke-dasharray="15,15"></path>
        <g id="TitleBlock" transform="translate(0.000000, 245.000000)">
            <rect id="Rectangle-Copy" stroke="#3D3530" stroke-width="2" fill="#F8FAE4" x="1" y="1" width="898" height="43"></rect>
            <text id="Single-LED-ON" font-family="Wavehaus-66Book, Wavehaus" font-size="24" font-weight="300" letter-spacing="0.6666667" fill="#23ABE3">
                <tspan x="719.029333" y="30">Single LED ON</tspan>
            </text>
            <path d="M725.605333,30.192 C724.533328,30.192 723.497338,29.9200027 722.497333,29.376 C721.497328,28.8319973 720.741335,28.2880027 720.229333,27.744 L721.333333,26.664 C721.733335,27.0960022 722.325329,27.5399977 723.109333,27.996 C723.893337,28.4520023 724.725328,28.68 725.605333,28.68 C726.677338,28.68 727.52133,28.4440024 728.137333,27.972 C728.753336,27.4999976 729.061333,26.8560041 729.061333,26.04 C729.061333,25.3519966 728.761336,24.7520026 728.161333,24.24 C727.56133,23.7279974 726.833337,23.2960018 725.977333,22.944 C725.121329,22.5919982 724.261337,22.220002 723.397333,21.828 C722.533329,21.435998 721.801336,20.9040034 721.201333,20.232 C720.60133,19.5599966 720.301333,18.7680046 720.301333,17.856 C720.301333,16.6879942 720.741328,15.704004 721.621333,14.904 C722.501337,14.103996 723.733325,13.704 725.317333,13.704 C726.389338,13.704 727.425328,13.9759973 728.425333,14.52 C729.425338,15.0640027 730.18133,15.6079973 730.693333,16.152 L729.589333,17.232 C729.173331,16.7839978 728.573337,16.3360022 727.789333,15.888 C727.005329,15.4399978 726.181337,15.216 725.317333,15.216 C724.245328,15.216 723.401336,15.4519976 722.785333,15.924 C722.16933,16.3960024 721.861333,17.0399959 721.861333,17.856 C721.861333,18.5440034 722.16133,19.1479974 722.761333,19.668 C723.361336,20.1880026 724.089329,20.6239982 724.945333,20.976 C725.801337,21.3280018 726.661329,21.6959981 727.525333,22.08 C728.389337,22.4640019 729.12133,22.9919966 729.721333,23.664 C730.321336,24.3360034 730.621333,25.1279954 730.621333,26.04 C730.621333,27.2080058 730.181337,28.191996 729.301333,28.992 C728.421328,29.792004 727.189341,30.192 725.605333,30.192 Z M735.944,14.4 C735.767999,14.592001 735.544001,14.688 735.272,14.688 C734.999998,14.688 734.772001,14.592001 734.588,14.4 C734.403999,14.207999 734.312,13.9840013 734.312,13.728 C734.312,13.4719987 734.403999,13.248001 734.588,13.056 C734.772001,12.863999 734.999998,12.768 735.272,12.768 C735.544001,12.768 735.771999,12.863999 735.956,13.056 C736.140001,13.248001 736.232,13.4719987 736.232,13.728 C736.232,13.9840013 736.136001,14.207999 735.944,14.4 Z M734.48,30 L734.48,18 L736.064,18 L736.064,30 L734.48,30 Z M745.826666,17.808 C747.218673,17.808 748.386662,18.2999951 749.330666,19.284 C750.274671,20.2680049 750.746666,21.4799928 750.746666,22.92 L750.746666,30 L749.138666,30 L749.138666,22.968 C749.138666,21.9439949 748.79067,21.0720036 748.094666,20.352 C747.398663,19.6319964 746.554671,19.272 745.562666,19.272 C744.570661,19.272 743.72667,19.6319964 743.030666,20.352 C742.334663,21.0720036 741.986666,21.9439949 741.986666,22.968 L741.986666,30 L740.402666,30 L740.402666,18 L741.986666,18 L741.986666,19.776 C742.962671,18.4639934 744.242658,17.808 745.826666,17.808 Z M764.685333,18.024 L766.293333,18.024 L766.293333,28.968 C766.277333,30.7120087 765.649339,32.1719941 764.409333,33.348 C763.169327,34.5240059 761.733341,35.112 760.101333,35.112 C758.613326,35.112 757.345338,34.716004 756.297333,33.924 C755.249328,33.131996 754.541335,32.240005 754.173333,31.248 L755.469333,30.6 C755.773335,31.4160041 756.349329,32.127997 757.197333,32.736 C758.045337,33.344003 759.013328,33.648 760.101333,33.648 C761.381339,33.648 762.465329,33.1800047 763.353333,32.244 C764.241337,31.3079953 764.693333,30.2160062 764.709333,28.968 L764.685333,28.968 L764.685333,28.08 C763.469327,29.5040071 761.909343,30.216 760.005333,30.216 C758.293324,30.216 756.833339,29.612006 755.625333,28.404 C754.417327,27.195994 753.813333,25.7360086 753.813333,24.024 C753.813333,22.3119914 754.417327,20.852006 755.625333,19.644 C756.833339,18.435994 758.293324,17.832 760.005333,17.832 C761.893342,17.832 763.453327,18.5439929 764.685333,19.968 L764.685333,18.024 Z M760.029333,28.728 C761.325339,28.728 762.417329,28.2760045 763.305333,27.372 C764.193337,26.4679955 764.637333,25.3600066 764.637333,24.048 C764.637333,22.7359934 764.193337,21.6280045 763.305333,20.724 C762.417329,19.8199955 761.325339,19.368 760.029333,19.368 C758.749327,19.368 757.661337,19.8199955 756.765333,20.724 C755.869329,21.6280045 755.421333,22.7359934 755.421333,24.048 C755.421333,25.3600066 755.869329,26.4679955 756.765333,27.372 C757.661337,28.2760045 758.749327,28.728 760.029333,28.728 Z M770.464,30 L770.464,12.144 L772.048,12.144 L772.048,30 L770.464,30 Z M781.474666,28.608 C782.546672,28.608 783.506662,28.304003 784.354666,27.696 C785.202671,27.087997 785.778665,26.3760041 786.082666,25.56 L787.426666,26.04 C787.058665,27.048005 786.342672,27.9759958 785.278666,28.824 C784.214661,29.6720042 782.946674,30.0880001 781.474666,30.072 C780.13066,30.072 778.902672,29.6560042 777.790666,28.824 C776.678661,27.9919958 775.922668,26.9280065 775.522666,25.632 C775.362666,25.1039974 775.282666,24.5280031 775.282666,23.904 C775.282666,22.1759914 775.88266,20.712006 777.082666,19.512 C778.282672,18.311994 779.746658,17.7040001 781.474666,17.688 C783.042674,17.7040001 784.410661,18.2319948 785.578666,19.272 C786.746672,20.3120052 787.418666,21.5999923 787.594666,23.136 C787.610666,23.2160004 787.618666,23.3199994 787.618666,23.448 L777.130666,25.344 C777.402668,26.3040048 777.946662,27.0919969 778.762666,27.708 C779.57867,28.3240031 780.482661,28.6240001 781.474666,28.608 Z M781.330666,19.152 C780.13066,19.1680001 779.102671,19.5999958 778.246666,20.448 C777.390662,21.2960042 776.930667,22.3119941 776.866666,23.496 C776.866666,23.5440002 776.870666,23.6279994 776.878666,23.748 C776.886666,23.8680006 776.890666,23.9679996 776.890666,24.048 L785.818666,22.44 C785.514665,21.4639951 784.946671,20.6680031 784.114666,20.052 C783.282662,19.4359969 782.354672,19.1359999 781.330666,19.152 Z M799.944,28.416 L807.288,28.416 L807.288,30 L798.36,30 L798.36,13.872 L799.944,13.872 L799.944,28.416 Z M820.506666,15.456 L811.506666,15.456 L811.506666,21 L816.570666,21 L816.570666,22.584 L811.506666,22.584 L811.506666,28.416 L820.506666,28.416 L820.506666,30 L809.922666,30 L809.922666,13.872 L820.506666,13.872 L820.506666,15.456 Z M824.341333,30 L824.341333,13.872 L827.989333,13.872 C830.645346,13.872 832.757325,14.6399923 834.325333,16.176 C835.893341,17.7120077 836.677333,19.6319885 836.677333,21.936 C836.677333,24.2240114 835.889341,26.1399923 834.313333,27.684 C832.737325,29.2280077 830.629346,30 827.989333,30 L824.341333,30 Z M825.925333,28.488 L827.989333,28.488 C830.101344,28.488 831.789327,27.8680062 833.053333,26.628 C834.31734,25.3879938 834.949333,23.8240094 834.949333,21.936 C834.949333,20.0479906 834.31734,18.4840062 833.053333,17.244 C831.789327,16.0039938 830.101344,15.384 827.989333,15.384 L825.925333,15.384 L825.925333,28.488 Z M860.162667,27.84 C858.77066,29.4080078 856.890678,30.192 854.522667,30.192 C852.154655,30.192 850.270674,29.4080078 848.870667,27.84 C847.47066,26.2719922 846.770667,24.3120118 846.770667,21.96 C846.770667,19.6079882 847.47066,17.6440079 848.870667,16.068 C850.270674,14.4919921 852.154655,13.704 854.522667,13.704 C856.890678,13.704 858.77066,14.4919921 860.162667,16.068 C861.554674,17.6440079 862.250667,19.6079882 862.250667,21.96 C862.250667,24.3120118 861.554674,26.2719922 860.162667,27.84 Z M850.130667,26.784 C851.234672,28.0640064 852.698657,28.704 854.522667,28.704 C856.346676,28.704 857.814661,28.0600064 858.926667,26.772 C860.038672,25.4839936 860.594667,23.8800096 860.594667,21.96 C860.594667,20.0239903 860.038672,18.4160064 858.926667,17.136 C857.814661,15.8559936 856.346676,15.216 854.522667,15.216 C852.698657,15.216 851.234672,15.8559936 850.130667,17.136 C849.026661,18.4160064 848.474667,20.0239903 848.474667,21.96 C848.474667,23.8960097 849.026661,25.5039936 850.130667,26.784 Z M875.997333,13.872 L877.581333,13.872 L877.581333,30 L875.949333,30 L866.949333,16.296 L866.949333,30 L865.365333,30 L865.365333,13.872 L866.973333,13.872 L875.997333,27.6 L875.997333,13.872 Z" id="Single-LED-ON-Copy" fill="#23ABE3"></path>
        </g>
    </g>
</svg>