<?xml version="1.0" encoding="UTF-8"?>
<svg width="900px" height="310px" viewBox="0 0 900 310" version="1.1" xmlns="http://www.w3.org/2000/svg" xmlns:xlink="http://www.w3.org/1999/xlink">
    <!-- Generator: Sketch 52.5 (67469) - http://www.bohemiancoding.com/sketch -->
    <title>Dam_w_Avalanche_Breakdown</title>
    <desc>Created with Sketch.</desc>
    <g id="Dam_w_Avalanche_Breakdown" stroke="none" stroke-width="1" fill="none" fill-rule="evenodd">
        <rect id="Rectangle" stroke="#3D3530" stroke-width="2" fill="#EEEEEE" x="1" y="1" width="898" height="428"></rect>
        <path d="M511.26,287 L508.164,279.44 L496.86,279.44 L493.764,287 L491.28,287 L501.36,262.808 L503.628,262.808 L513.708,287 L511.26,287 Z M497.832,277.064 L507.192,277.064 L502.512,265.58 L497.832,277.064 Z M528.784,269 L531.16,269 L524.788,287 L522.412,287 L516.076,269 L518.452,269 L523.6,283.652 L528.784,269 Z M549.692,269 L552.068,269 L552.068,287 L549.692,287 L549.692,284.084 C547.843991,286.220011 545.504014,287.288 542.672,287.288 C540.103987,287.288 537.914009,286.382009 536.102,284.57 C534.289991,282.757991 533.384,280.568013 533.384,278 C533.384,275.431987 534.289991,273.242009 536.102,271.43 C537.914009,269.617991 540.103987,268.712 542.672,268.712 C545.528014,268.712 547.867991,269.779989 549.692,271.916 L549.692,269 Z M542.708,285.02 C544.65201,285.02 546.289993,284.342007 547.622,282.986 C548.954007,281.629993 549.62,279.96801 549.62,278 C549.62,276.03199 548.954007,274.370007 547.622,273.014 C546.289993,271.657993 544.65201,270.98 542.708,270.98 C540.78799,270.98 539.150007,271.657993 537.794,273.014 C536.437993,274.370007 535.76,276.03199 535.76,278 C535.76,279.96801 536.437993,281.629993 537.794,282.986 C539.150007,284.342007 540.78799,285.02 542.708,285.02 Z M558.144,287 L558.144,260.216 L560.52,260.216 L560.52,287 L558.144,287 Z M581.68,269 L584.056,269 L584.056,287 L581.68,287 L581.68,284.084 C579.831991,286.220011 577.492014,287.288 574.66,287.288 C572.091987,287.288 569.902009,286.382009 568.09,284.57 C566.277991,282.757991 565.372,280.568013 565.372,278 C565.372,275.431987 566.277991,273.242009 568.09,271.43 C569.902009,269.617991 572.091987,268.712 574.66,268.712 C577.516014,268.712 579.855991,269.779989 581.68,271.916 L581.68,269 Z M574.696,285.02 C576.64001,285.02 578.277993,284.342007 579.61,282.986 C580.942007,281.629993 581.608,279.96801 581.608,278 C581.608,276.03199 580.942007,274.370007 579.61,273.014 C578.277993,271.657993 576.64001,270.98 574.696,270.98 C572.77599,270.98 571.138007,271.657993 569.782,273.014 C568.425993,274.370007 567.748,276.03199 567.748,278 C567.748,279.96801 568.425993,281.629993 569.782,282.986 C571.138007,284.342007 572.77599,285.02 574.696,285.02 Z M598.052,268.712 C600.14001,268.712 601.891993,269.449993 603.308,270.926 C604.724007,272.402007 605.432,274.219989 605.432,276.38 L605.432,287 L603.02,287 L603.02,276.452 C603.02,274.915992 602.498005,273.608005 601.454,272.528 C600.409995,271.447995 599.144007,270.908 597.656,270.908 C596.167993,270.908 594.902005,271.447995 593.858,272.528 C592.813995,273.608005 592.292,274.915992 592.292,276.452 L592.292,287 L589.916,287 L589.916,269 L592.292,269 L592.292,271.664 C593.756007,269.69599 595.675988,268.712 598.052,268.712 Z M619.104,287.288 C616.535987,287.288 614.346009,286.382009 612.534,284.57 C610.721991,282.757991 609.816,280.568013 609.816,278 C609.816,275.431987 610.721991,273.242009 612.534,271.43 C614.346009,269.617991 616.535987,268.712 619.104,268.712 C620.736008,268.712 622.253993,269.113996 623.658,269.918 C625.062007,270.722004 626.171996,271.795993 626.988,273.14 L624.828,274.184 C624.179997,273.199995 623.352005,272.420003 622.344,271.844 C621.335995,271.267997 620.256006,270.98 619.104,270.98 C617.15999,270.98 615.522007,271.657993 614.19,273.014 C612.857993,274.370007 612.192,276.03199 612.192,278 C612.192,279.96801 612.857993,281.629993 614.19,282.986 C615.522007,284.342007 617.15999,285.02 619.104,285.02 C620.256006,285.02 621.335995,284.732003 622.344,284.156 C623.352005,283.579997 624.179997,282.800005 624.828,281.816 L626.988,282.86 C626.171996,284.204007 625.062007,285.277996 623.658,286.082 C622.253993,286.886004 620.736008,287.288 619.104,287.288 Z M640.336,268.712 C642.42401,268.712 644.175993,269.461993 645.592,270.962 C647.008007,272.462008 647.716,274.291989 647.716,276.452 L647.716,287 L645.304,287 L645.304,276.488 C645.304,274.927992 644.788005,273.614005 643.756,272.546 C642.723995,271.477995 641.452008,270.944 639.94,270.944 C638.451993,270.944 637.186005,271.477995 636.142,272.546 C635.097995,273.614005 634.576,274.915992 634.576,276.452 L634.576,287 L632.2,287 L632.2,260.216 L634.576,260.216 L634.576,271.664 C636.040007,269.69599 637.959988,268.712 640.336,268.712 Z M661.388,284.912 C662.996008,284.912 664.435994,284.456005 665.708,283.544 C666.980006,282.631995 667.843998,281.564006 668.3,280.34 L670.316,281.06 C669.763997,282.572008 668.690008,283.963994 667.094,285.236 C665.497992,286.508006 663.596011,287.132 661.388,287.108 C659.37199,287.108 657.530008,286.484006 655.862,285.236 C654.193992,283.987994 653.060003,282.39201 652.46,280.448 C652.219999,279.655996 652.1,278.792005 652.1,277.856 C652.1,275.263987 652.999991,273.068009 654.8,271.268 C656.600009,269.467991 658.795987,268.556 661.388,268.532 C663.740012,268.556 665.791991,269.347992 667.544,270.908 C669.296009,272.468008 670.303999,274.399988 670.568,276.704 C670.592,276.824001 670.604,276.979999 670.604,277.172 L654.872,280.016 C655.280002,281.456007 656.095994,282.637995 657.32,283.562 C658.544006,284.486005 659.899993,284.936 661.388,284.912 Z M661.172,270.728 C659.371991,270.752 657.830006,271.399994 656.546,272.672 C655.261994,273.944006 654.572,275.467991 654.476,277.244 C654.476,277.316 654.482,277.441999 654.494,277.622 C654.506,277.802001 654.512,277.951999 654.512,278.072 L667.904,275.66 C667.447998,274.195993 666.596006,273.002005 665.348,272.078 C664.099994,271.153995 662.708008,270.704 661.172,270.728 Z M686.716,287 L686.716,262.808 L694.924,262.808 C697.636014,262.808 699.795992,263.443994 701.404,264.716 C703.012008,265.988006 703.816,267.571991 703.816,269.468 C703.816,270.644006 703.462004,271.711995 702.754,272.672 C702.045996,273.632005 701.056006,274.375997 699.784,274.904 C701.056006,275.432003 702.045996,276.175995 702.754,277.136 C703.462004,278.096005 703.816,279.175994 703.816,280.376 C703.816,282.272009 703.012008,283.849994 701.404,285.11 C699.795992,286.370006 697.636014,287 694.924,287 L686.716,287 Z M689.092,273.896 L694.924,273.896 C696.86801,273.896 698.427994,273.476004 699.604,272.636 C700.780006,271.795996 701.368,270.752006 701.368,269.504 C701.368,268.231994 700.780006,267.176004 699.604,266.336 C698.427994,265.495996 696.86801,265.076 694.924,265.076 L689.092,265.076 L689.092,273.896 Z M689.092,284.732 L694.924,284.732 C696.86801,284.732 698.427994,284.312004 699.604,283.472 C700.780006,282.631996 701.368,281.576006 701.368,280.304 C701.368,279.055994 700.780006,278.012004 699.604,277.172 C698.427994,276.331996 696.86801,275.912 694.924,275.912 L689.092,275.912 L689.092,284.732 Z M717.848,268.712 C719.120006,268.712 720.283995,269.023997 721.34,269.648 L720.512,272.024 C719.503995,271.279996 718.484005,270.908 717.452,270.908 C715.939992,270.908 714.668005,271.441995 713.636,272.51 C712.603995,273.578005 712.088,274.891992 712.088,276.452 L712.088,287 L709.712,287 L709.712,269 L712.088,269 L712.088,271.664 C713.552007,269.69599 715.471988,268.712 717.848,268.712 Z M732.312,284.912 C733.920008,284.912 735.359994,284.456005 736.632,283.544 C737.904006,282.631995 738.767998,281.564006 739.224,280.34 L741.24,281.06 C740.687997,282.572008 739.614008,283.963994 738.018,285.236 C736.421992,286.508006 734.520011,287.132 732.312,287.108 C730.29599,287.108 728.454008,286.484006 726.786,285.236 C725.117992,283.987994 723.984003,282.39201 723.384,280.448 C723.143999,279.655996 723.024,278.792005 723.024,277.856 C723.024,275.263987 723.923991,273.068009 725.724,271.268 C727.524009,269.467991 729.719987,268.556 732.312,268.532 C734.664012,268.556 736.715991,269.347992 738.468,270.908 C740.220009,272.468008 741.227999,274.399988 741.492,276.704 C741.516,276.824001 741.528,276.979999 741.528,277.172 L725.796,280.016 C726.204002,281.456007 727.019994,282.637995 728.244,283.562 C729.468006,284.486005 730.823993,284.936 732.312,284.912 Z M732.096,270.728 C730.295991,270.752 728.754006,271.399994 727.47,272.672 C726.185994,273.944006 725.496,275.467991 725.4,277.244 C725.4,277.316 725.406,277.441999 725.418,277.622 C725.43,277.802001 725.436,277.951999 725.436,278.072 L738.828,275.66 C738.371998,274.195993 737.520006,273.002005 736.272,272.078 C735.023994,271.153995 733.632008,270.704 732.096,270.728 Z M761.824,269 L764.2,269 L764.2,287 L761.824,287 L761.824,284.084 C759.975991,286.220011 757.636014,287.288 754.804,287.288 C752.235987,287.288 750.046009,286.382009 748.234,284.57 C746.421991,282.757991 745.516,280.568013 745.516,278 C745.516,275.431987 746.421991,273.242009 748.234,271.43 C750.046009,269.617991 752.235987,268.712 754.804,268.712 C757.660014,268.712 759.999991,269.779989 761.824,271.916 L761.824,269 Z M754.84,285.02 C756.78401,285.02 758.421993,284.342007 759.754,282.986 C761.086007,281.629993 761.752,279.96801 761.752,278 C761.752,276.03199 761.086007,274.370007 759.754,273.014 C758.421993,271.657993 756.78401,270.98 754.84,270.98 C752.91999,270.98 751.282007,271.657993 749.926,273.014 C748.569993,274.370007 747.892,276.03199 747.892,278 C747.892,279.96801 748.569993,281.629993 749.926,282.986 C751.282007,284.342007 752.91999,285.02 754.84,285.02 Z M782.372,269 L775.856,276.812 L782.372,287 L779.852,287 L774.452,278.504 L772.652,280.664 L772.652,286.964 L770.276,286.964 L770.276,260.18 L772.652,260.18 L772.652,277.532 L779.744,269 L782.372,269 Z M800.976,260.216 L803.352,260.216 L803.352,287 L800.976,287 L800.976,284.084 C799.127991,286.220011 796.788014,287.288 793.956,287.288 C791.387987,287.288 789.198009,286.382009 787.386,284.57 C785.573991,282.757991 784.668,280.568013 784.668,278 C784.668,275.431987 785.573991,273.242009 787.386,271.43 C789.198009,269.617991 791.387987,268.712 793.956,268.712 C796.812014,268.712 799.151991,269.779989 800.976,271.916 L800.976,260.216 Z M789.06,283.004 C790.404007,284.348007 792.04799,285.02 793.992,285.02 C795.93601,285.02 797.573993,284.342007 798.906,282.986 C800.238007,281.629993 800.904,279.96801 800.904,278 C800.904,276.03199 800.238007,274.370007 798.906,273.014 C797.573993,271.657993 795.93601,270.98 793.992,270.98 C792.04799,270.98 790.404007,271.657993 789.06,273.014 C787.715993,274.370007 787.044,276.03199 787.044,278 C787.044,279.96801 787.715993,281.635993 789.06,283.004 Z M824.044,284.552 C822.243991,286.376009 820.060013,287.288 817.492,287.288 C814.923987,287.288 812.734009,286.382009 810.922,284.57 C809.109991,282.757991 808.204,280.568013 808.204,278 C808.204,275.431987 809.109991,273.242009 810.922,271.43 C812.734009,269.617991 814.923987,268.712 817.492,268.712 C820.060013,268.712 822.249991,269.617991 824.062,271.43 C825.874009,273.242009 826.78,275.431987 826.78,278 C826.78,280.544013 825.868009,282.727991 824.044,284.552 Z M817.528,285.02 C819.47201,285.02 821.109993,284.342007 822.442,282.986 C823.774007,281.629993 824.44,279.96801 824.44,278 C824.44,276.03199 823.774007,274.364007 822.442,272.996 C821.109993,271.627993 819.47201,270.944 817.528,270.944 C815.60799,270.944 813.976007,271.627993 812.632,272.996 C811.287993,274.364007 810.616,276.03199 810.616,278 C810.616,279.96801 811.287993,281.629993 812.632,282.986 C813.976007,284.342007 815.60799,285.02 817.528,285.02 Z M854.24,269 L856.616,269 L850.244,287 L847.868,287 L842.792,272.168 L837.716,287 L835.34,287 L829.004,269 L831.38,269 L836.528,283.652 L841.712,269 L843.872,269 L849.056,283.652 L854.24,269 Z M869.28,268.712 C871.36801,268.712 873.119993,269.449993 874.536,270.926 C875.952007,272.402007 876.66,274.219989 876.66,276.38 L876.66,287 L874.248,287 L874.248,276.452 C874.248,274.915992 873.726005,273.608005 872.682,272.528 C871.637995,271.447995 870.372007,270.908 868.884,270.908 C867.395993,270.908 866.130005,271.447995 865.086,272.528 C864.041995,273.608005 863.52,274.915992 863.52,276.452 L863.52,287 L861.144,287 L861.144,269 L863.52,269 L863.52,271.664 C864.984007,269.69599 866.903988,268.712 869.28,268.712 Z" id="Avalanche-Breakdown-Copy" fill="#23ABE3"></path>
        <rect id="Rectangle-Copy" stroke="#3D3530" stroke-width="2" x="1" y="247" width="898" height="62"></rect>
        <rect id="Rectangle" fill="#1A80AA" x="239" y="132" width="370" height="80"></rect>
        <path d="M168,13 C199,55 227.89326,81.3698417 239,112.5 C246.404493,133.253439 246.404493,166.420106 239,212 L168,212 C168,104.666667 168,38.3333333 168,13 Z" id="Path-5" fill="#84705B"></path>
        <rect id="Rectangle" fill="#4D4D4D" x="350" y="113" width="21" height="99"></rect>
        <polygon id="Path-6-Copy" fill="#B2B2B2" points="371 121 482 121 482 212 371 212"></polygon>
        <path d="M608.66,211 C601.886667,166.333333 603.804,132.333333 614.412,109 C625.02,85.6666667 647.932,56 683.148,20 L683.148,211 L608.66,211 Z" id="Path-7" fill="#84705B"></path>
        <polygon id="Path-6-Copy-2" fill="#B2B2B2" points="501 132 612 132 612 212 501 212"></polygon>
        <rect id="Rectangle-Copy-2" fill="#4D4D4D" x="482" y="113" width="21" height="99"></rect>
        <path d="M350,133 L609,133" id="Line" stroke="#1A80AA" stroke-width="2" opacity="0.200000003" stroke-linecap="square" stroke-dasharray="15,15"></path>
    </g>
</svg>