<?xml version="1.0" encoding="UTF-8"?>
<svg width="900px" height="310px" viewBox="0 0 900 310" version="1.1" xmlns="http://www.w3.org/2000/svg" xmlns:xlink="http://www.w3.org/1999/xlink">
    <!-- Generator: Sketch 52.5 (67469) - http://www.bohemiancoding.com/sketch -->
    <title>Dam_w_Varying_Heights</title>
    <desc>Created with Sketch.</desc>
    <g id="Dam_w_Varying_Heights" stroke="none" stroke-width="1" fill="none" fill-rule="evenodd">
        <rect id="Rectangle" stroke="#3D3530" stroke-width="2" fill="#EEEEEE" x="1" y="1" width="898" height="428"></rect>
        <path d="M648.408,287.288 C646.799992,287.288 645.246007,286.880004 643.746,286.064 C642.245992,285.247996 641.112004,284.432004 640.344,283.616 L642,281.996 C642.600003,282.644003 643.487994,283.309997 644.664,283.994 C645.840006,284.678003 647.087993,285.02 648.408,285.02 C650.016008,285.02 651.281995,284.666004 652.206,283.958 C653.130005,283.249996 653.592,282.284006 653.592,281.06 C653.592,280.027995 653.142004,279.128004 652.242,278.36 C651.341995,277.591996 650.250006,276.944003 648.966,276.416 C647.681994,275.887997 646.392006,275.330003 645.096,274.742 C643.799994,274.153997 642.702004,273.356005 641.802,272.348 C640.901995,271.339995 640.452,270.152007 640.452,268.784 C640.452,267.031991 641.111993,265.556006 642.432,264.356 C643.752007,263.155994 645.599988,262.556 647.976,262.556 C649.584008,262.556 651.137992,262.963996 652.638,263.78 C654.138007,264.596004 655.271996,265.411996 656.04,266.228 L654.384,267.848 C653.759997,267.175997 652.860006,266.504003 651.684,265.832 C650.507994,265.159997 649.272006,264.824 647.976,264.824 C646.367992,264.824 645.102005,265.177996 644.178,265.886 C643.253995,266.594004 642.792,267.559994 642.792,268.784 C642.792,269.816005 643.241995,270.721996 644.142,271.502 C645.042004,272.282004 646.133994,272.935997 647.418,273.464 C648.702006,273.992003 649.991994,274.543997 651.288,275.12 C652.584006,275.696003 653.681995,276.487995 654.582,277.496 C655.482004,278.504005 655.932,279.691993 655.932,281.06 C655.932,282.812009 655.272007,284.287994 653.952,285.488 C652.631993,286.688006 650.784012,287.288 648.408,287.288 Z M663.916,263.6 C663.651999,263.888001 663.316002,264.032 662.908,264.032 C662.499998,264.032 662.158001,263.888001 661.882,263.6 C661.605999,263.311999 661.468,262.976002 661.468,262.592 C661.468,262.207998 661.605999,261.872001 661.882,261.584 C662.158001,261.295999 662.499998,261.152 662.908,261.152 C663.316002,261.152 663.657999,261.295999 663.934,261.584 C664.210001,261.872001 664.348,262.207998 664.348,262.592 C664.348,262.976002 664.204001,263.311999 663.916,263.6 Z M661.72,287 L661.72,269 L664.096,269 L664.096,287 L661.72,287 Z M678.74,268.712 C680.82801,268.712 682.579993,269.449993 683.996,270.926 C685.412007,272.402007 686.12,274.219989 686.12,276.38 L686.12,287 L683.708,287 L683.708,276.452 C683.708,274.915992 683.186005,273.608005 682.142,272.528 C681.097995,271.447995 679.832007,270.908 678.344,270.908 C676.855993,270.908 675.590005,271.447995 674.546,272.528 C673.501995,273.608005 672.98,274.915992 672.98,276.452 L672.98,287 L670.604,287 L670.604,269 L672.98,269 L672.98,271.664 C674.444007,269.69599 676.363988,268.712 678.74,268.712 Z M707.028,269.036 L709.44,269.036 L709.44,285.452 C709.416,288.068013 708.474009,290.257991 706.614,292.022 C704.753991,293.786009 702.600012,294.668 700.152,294.668 C697.919989,294.668 696.018008,294.074006 694.446,292.886 C692.873992,291.697994 691.812003,290.360007 691.26,288.872 L693.204,287.9 C693.660002,289.124006 694.523994,290.191995 695.796,291.104 C697.068006,292.016005 698.519992,292.472 700.152,292.472 C702.07201,292.472 703.697993,291.770007 705.03,290.366 C706.362007,288.961993 707.04,287.324009 707.064,285.452 L707.028,285.452 L707.028,284.12 C705.203991,286.256011 702.864014,287.324 700.008,287.324 C697.439987,287.324 695.250009,286.418009 693.438,284.606 C691.625991,282.793991 690.72,280.604013 690.72,278.036 C690.72,275.467987 691.625991,273.278009 693.438,271.466 C695.250009,269.653991 697.439987,268.748 700.008,268.748 C702.840014,268.748 705.179991,269.815989 707.028,271.952 L707.028,269.036 Z M700.044,285.092 C701.98801,285.092 703.625993,284.414007 704.958,283.058 C706.290007,281.701993 706.956,280.04001 706.956,278.072 C706.956,276.10399 706.290007,274.442007 704.958,273.086 C703.625993,271.729993 701.98801,271.052 700.044,271.052 C698.12399,271.052 696.492007,271.729993 695.148,273.086 C693.803993,274.442007 693.132,276.10399 693.132,278.072 C693.132,280.04001 693.803993,281.701993 695.148,283.058 C696.492007,284.414007 698.12399,285.092 700.044,285.092 Z M715.696,287 L715.696,260.216 L718.072,260.216 L718.072,287 L715.696,287 Z M732.212,284.912 C733.820008,284.912 735.259994,284.456005 736.532,283.544 C737.804006,282.631995 738.667998,281.564006 739.124,280.34 L741.14,281.06 C740.587997,282.572008 739.514008,283.963994 737.918,285.236 C736.321992,286.508006 734.420011,287.132 732.212,287.108 C730.19599,287.108 728.354008,286.484006 726.686,285.236 C725.017992,283.987994 723.884003,282.39201 723.284,280.448 C723.043999,279.655996 722.924,278.792005 722.924,277.856 C722.924,275.263987 723.823991,273.068009 725.624,271.268 C727.424009,269.467991 729.619987,268.556 732.212,268.532 C734.564012,268.556 736.615991,269.347992 738.368,270.908 C740.120009,272.468008 741.127999,274.399988 741.392,276.704 C741.416,276.824001 741.428,276.979999 741.428,277.172 L725.696,280.016 C726.104002,281.456007 726.919994,282.637995 728.144,283.562 C729.368006,284.486005 730.723993,284.936 732.212,284.912 Z M731.996,270.728 C730.195991,270.752 728.654006,271.399994 727.37,272.672 C726.085994,273.944006 725.396,275.467991 725.3,277.244 C725.3,277.316 725.306,277.441999 725.318,277.622 C725.33,277.802001 725.336,277.951999 725.336,278.072 L738.728,275.66 C738.271998,274.195993 737.420006,273.002005 736.172,272.078 C734.923994,271.153995 733.532008,270.704 731.996,270.728 Z M759.916,284.624 L770.932,284.624 L770.932,287 L757.54,287 L757.54,262.808 L759.916,262.808 L759.916,284.624 Z M790.76,265.184 L777.26,265.184 L777.26,273.5 L784.856,273.5 L784.856,275.876 L777.26,275.876 L777.26,284.624 L790.76,284.624 L790.76,287 L774.884,287 L774.884,262.808 L790.76,262.808 L790.76,265.184 Z M796.512,287 L796.512,262.808 L801.984,262.808 C805.96802,262.808 809.135988,263.959988 811.488,266.264 C813.840012,268.568012 815.016,271.447983 815.016,274.904 C815.016,278.336017 813.834012,281.209988 811.47,283.526 C809.105988,285.842012 805.94402,287 801.984,287 L796.512,287 Z M798.888,284.732 L801.984,284.732 C805.152016,284.732 807.683991,283.802009 809.58,281.942 C811.476009,280.081991 812.424,277.736014 812.424,274.904 C812.424,272.071986 811.476009,269.726009 809.58,267.866 C807.683991,266.005991 805.152016,265.076 801.984,265.076 L798.888,265.076 L798.888,284.732 Z M850.244,283.76 C848.15599,286.112012 845.336018,287.288 841.784,287.288 C838.231982,287.288 835.40601,286.112012 833.306,283.76 C831.205989,281.407988 830.156,278.468018 830.156,274.94 C830.156,271.411982 831.205989,268.466012 833.306,266.102 C835.40601,263.737988 838.231982,262.556 841.784,262.556 C845.336018,262.556 848.15599,263.737988 850.244,266.102 C852.33201,268.466012 853.376,271.411982 853.376,274.94 C853.376,278.468018 852.33201,281.407988 850.244,283.76 Z M835.196,282.176 C836.852008,284.09601 839.047986,285.056 841.784,285.056 C844.520014,285.056 846.721992,284.09001 848.39,282.158 C850.058008,280.22599 850.892,277.820014 850.892,274.94 C850.892,272.035985 850.058008,269.62401 848.39,267.704 C846.721992,265.78399 844.520014,264.824 841.784,264.824 C839.047986,264.824 836.852008,265.78399 835.196,267.704 C833.539992,269.62401 832.712,272.035985 832.712,274.94 C832.712,277.844015 833.539992,280.25599 835.196,282.176 Z M873.996,262.808 L876.372,262.808 L876.372,287 L873.924,287 L860.424,266.444 L860.424,287 L858.048,287 L858.048,262.808 L860.46,262.808 L873.996,283.4 L873.996,262.808 Z" id="Single-LED-ON-Copy" fill="#23ABE3"></path>
        <rect id="Rectangle-Copy" stroke="#3D3530" stroke-width="2" x="1" y="247" width="898" height="62"></rect>
        <g id="Illustration" transform="translate(168.000000, 13.000000)">
            <path d="M0,4.26325641e-14 C31,42 59.8932601,68.3698417 71,99.5 C78.4044933,120.253439 78.4044933,153.420106 71,199 L0,199 C-2.03760007e-40,91.6666667 -2.03760007e-40,25.3333333 0,4.26325641e-14 Z" id="Path-5" fill="#84705B"></path>
            <polygon id="Path-6" fill="#B2B2B2" points="71 131 182 131 182 199 71 199"></polygon>
            <rect id="Rectangle" fill="#4D4D4D" x="182" y="100" width="21" height="99"></rect>
            <polygon id="Path-6-Copy" fill="#B2B2B2" points="203 108 314 108 314 199 203 199"></polygon>
            <path d="M440.66,198 C433.886667,153.333333 435.804,119.333333 446.412,96 C457.02,72.6666667 479.932,43 515.148,7 L515.148,198 L440.66,198 Z" id="Path-7" fill="#84705B"></path>
            <polygon id="Path-6-Copy-2" fill="#B2B2B2" points="333 119 444 119 444 199 333 199"></polygon>
            <rect id="Rectangle-Copy-2" fill="#4D4D4D" x="314" y="100" width="21" height="99"></rect>
        </g>
    </g>
</svg>