<?xml version="1.0" encoding="UTF-8"?>
<svg width="900px" height="310px" viewBox="0 0 900 310" version="1.1" xmlns="http://www.w3.org/2000/svg" xmlns:xlink="http://www.w3.org/1999/xlink">
    <!-- Generator: Sketch 52.5 (67469) - http://www.bohemiancoding.com/sketch -->
    <title>Dam_w_Diode_Failure</title>
    <desc>Created with Sketch.</desc>
    <g id="Dam_w_Diode_Failure" stroke="none" stroke-width="1" fill="none" fill-rule="evenodd">
        <rect id="Rectangle" stroke="#3D3530" stroke-width="2" fill="#EEEEEE" x="1" y="1" width="898" height="428"></rect>
        <path d="M655.464,287 L655.464,262.808 L660.936,262.808 C664.92002,262.808 668.087988,263.959988 670.44,266.264 C672.792012,268.568012 673.968,271.447983 673.968,274.904 C673.968,278.336017 672.786012,281.209988 670.422,283.526 C668.057988,285.842012 664.89602,287 660.936,287 L655.464,287 Z M657.84,284.732 L660.936,284.732 C664.104016,284.732 666.635991,283.802009 668.532,281.942 C670.428009,280.081991 671.376,277.736014 671.376,274.904 C671.376,272.071986 670.428009,269.726009 668.532,267.866 C666.635991,266.005991 664.104016,265.076 660.936,265.076 L657.84,265.076 L657.84,284.732 Z M681.628,263.6 C681.363999,263.888001 681.028002,264.032 680.62,264.032 C680.211998,264.032 679.870001,263.888001 679.594,263.6 C679.317999,263.311999 679.18,262.976002 679.18,262.592 C679.18,262.207998 679.317999,261.872001 679.594,261.584 C679.870001,261.295999 680.211998,261.152 680.62,261.152 C681.028002,261.152 681.369999,261.295999 681.646,261.584 C681.922001,261.872001 682.06,262.207998 682.06,262.592 C682.06,262.976002 681.916001,263.311999 681.628,263.6 Z M679.432,287 L679.432,269 L681.808,269 L681.808,287 L679.432,287 Z M702.86,284.552 C701.059991,286.376009 698.876013,287.288 696.308,287.288 C693.739987,287.288 691.550009,286.382009 689.738,284.57 C687.925991,282.757991 687.02,280.568013 687.02,278 C687.02,275.431987 687.925991,273.242009 689.738,271.43 C691.550009,269.617991 693.739987,268.712 696.308,268.712 C698.876013,268.712 701.065991,269.617991 702.878,271.43 C704.690009,273.242009 705.596,275.431987 705.596,278 C705.596,280.544013 704.684009,282.727991 702.86,284.552 Z M696.344,285.02 C698.28801,285.02 699.925993,284.342007 701.258,282.986 C702.590007,281.629993 703.256,279.96801 703.256,278 C703.256,276.03199 702.590007,274.364007 701.258,272.996 C699.925993,271.627993 698.28801,270.944 696.344,270.944 C694.42399,270.944 692.792007,271.627993 691.448,272.996 C690.103993,274.364007 689.432,276.03199 689.432,278 C689.432,279.96801 690.103993,281.629993 691.448,282.986 C692.792007,284.342007 694.42399,285.02 696.344,285.02 Z M725.532,260.216 L727.908,260.216 L727.908,287 L725.532,287 L725.532,284.084 C723.683991,286.220011 721.344014,287.288 718.512,287.288 C715.943987,287.288 713.754009,286.382009 711.942,284.57 C710.129991,282.757991 709.224,280.568013 709.224,278 C709.224,275.431987 710.129991,273.242009 711.942,271.43 C713.754009,269.617991 715.943987,268.712 718.512,268.712 C721.368014,268.712 723.707991,269.779989 725.532,271.916 L725.532,260.216 Z M713.616,283.004 C714.960007,284.348007 716.60399,285.02 718.548,285.02 C720.49201,285.02 722.129993,284.342007 723.462,282.986 C724.794007,281.629993 725.46,279.96801 725.46,278 C725.46,276.03199 724.794007,274.370007 723.462,273.014 C722.129993,271.657993 720.49201,270.98 718.548,270.98 C716.60399,270.98 714.960007,271.657993 713.616,273.014 C712.271993,274.370007 711.6,276.03199 711.6,278 C711.6,279.96801 712.271993,281.635993 713.616,283.004 Z M742.048,284.912 C743.656008,284.912 745.095994,284.456005 746.368,283.544 C747.640006,282.631995 748.503998,281.564006 748.96,280.34 L750.976,281.06 C750.423997,282.572008 749.350008,283.963994 747.754,285.236 C746.157992,286.508006 744.256011,287.132 742.048,287.108 C740.03199,287.108 738.190008,286.484006 736.522,285.236 C734.853992,283.987994 733.720003,282.39201 733.12,280.448 C732.879999,279.655996 732.76,278.792005 732.76,277.856 C732.76,275.263987 733.659991,273.068009 735.46,271.268 C737.260009,269.467991 739.455987,268.556 742.048,268.532 C744.400012,268.556 746.451991,269.347992 748.204,270.908 C749.956009,272.468008 750.963999,274.399988 751.228,276.704 C751.252,276.824001 751.264,276.979999 751.264,277.172 L735.532,280.016 C735.940002,281.456007 736.755994,282.637995 737.98,283.562 C739.204006,284.486005 740.559993,284.936 742.048,284.912 Z M741.832,270.728 C740.031991,270.752 738.490006,271.399994 737.206,272.672 C735.921994,273.944006 735.232,275.467991 735.136,277.244 C735.136,277.316 735.142,277.441999 735.154,277.622 C735.166,277.802001 735.172,277.951999 735.172,278.072 L748.564,275.66 C748.107998,274.195993 747.256006,273.002005 746.008,272.078 C744.759994,271.153995 743.368008,270.704 741.832,270.728 Z M780.768,265.184 L769.752,265.184 L769.752,273.752 L777.348,273.752 L777.348,276.128 L769.752,276.128 L769.752,287 L767.376,287 L767.376,262.808 L780.768,262.808 L780.768,265.184 Z M797.896,269 L800.272,269 L800.272,287 L797.896,287 L797.896,284.084 C796.047991,286.220011 793.708014,287.288 790.876,287.288 C788.307987,287.288 786.118009,286.382009 784.306,284.57 C782.493991,282.757991 781.588,280.568013 781.588,278 C781.588,275.431987 782.493991,273.242009 784.306,271.43 C786.118009,269.617991 788.307987,268.712 790.876,268.712 C793.732014,268.712 796.071991,269.779989 797.896,271.916 L797.896,269 Z M790.912,285.02 C792.85601,285.02 794.493993,284.342007 795.826,282.986 C797.158007,281.629993 797.824,279.96801 797.824,278 C797.824,276.03199 797.158007,274.370007 795.826,273.014 C794.493993,271.657993 792.85601,270.98 790.912,270.98 C788.99199,270.98 787.354007,271.657993 785.998,273.014 C784.641993,274.370007 783.964,276.03199 783.964,278 C783.964,279.96801 784.641993,281.629993 785.998,282.986 C787.354007,284.342007 788.99199,285.02 790.912,285.02 Z M808.976,263.6 C808.711999,263.888001 808.376002,264.032 807.968,264.032 C807.559998,264.032 807.218001,263.888001 806.942,263.6 C806.665999,263.311999 806.528,262.976002 806.528,262.592 C806.528,262.207998 806.665999,261.872001 806.942,261.584 C807.218001,261.295999 807.559998,261.152 807.968,261.152 C808.376002,261.152 808.717999,261.295999 808.994,261.584 C809.270001,261.872001 809.408,262.207998 809.408,262.592 C809.408,262.976002 809.264001,263.311999 808.976,263.6 Z M806.78,287 L806.78,269 L809.156,269 L809.156,287 L806.78,287 Z M815.664,287 L815.664,260.216 L818.04,260.216 L818.04,287 L815.664,287 Z M837.148,269 L839.524,269 L839.524,287 L837.148,287 L837.148,284.336 C835.683993,286.30401 833.764012,287.288 831.388,287.288 C829.29999,287.288 827.548007,286.550007 826.132,285.074 C824.715993,283.597993 824.008,281.780011 824.008,279.62 L824.008,269 L826.456,269 L826.456,279.548 C826.456,281.084008 826.971995,282.385995 828.004,283.454 C829.036005,284.522005 830.295993,285.056 831.784,285.056 C833.296008,285.056 834.567995,284.522005 835.6,283.454 C836.632005,282.385995 837.148,281.084008 837.148,279.548 L837.148,269 Z M853.592,268.712 C854.864006,268.712 856.027995,269.023997 857.084,269.648 L856.256,272.024 C855.247995,271.279996 854.228005,270.908 853.196,270.908 C851.683992,270.908 850.412005,271.441995 849.38,272.51 C848.347995,273.578005 847.832,274.891992 847.832,276.452 L847.832,287 L845.456,287 L845.456,269 L847.832,269 L847.832,271.664 C849.296007,269.69599 851.215988,268.712 853.592,268.712 Z M868.056,284.912 C869.664008,284.912 871.103994,284.456005 872.376,283.544 C873.648006,282.631995 874.511998,281.564006 874.968,280.34 L876.984,281.06 C876.431997,282.572008 875.358008,283.963994 873.762,285.236 C872.165992,286.508006 870.264011,287.132 868.056,287.108 C866.03999,287.108 864.198008,286.484006 862.53,285.236 C860.861992,283.987994 859.728003,282.39201 859.128,280.448 C858.887999,279.655996 858.768,278.792005 858.768,277.856 C858.768,275.263987 859.667991,273.068009 861.468,271.268 C863.268009,269.467991 865.463987,268.556 868.056,268.532 C870.408012,268.556 872.459991,269.347992 874.212,270.908 C875.964009,272.468008 876.971999,274.399988 877.236,276.704 C877.26,276.824001 877.272,276.979999 877.272,277.172 L861.54,280.016 C861.948002,281.456007 862.763994,282.637995 863.988,283.562 C865.212006,284.486005 866.567993,284.936 868.056,284.912 Z M867.84,270.728 C866.039991,270.752 864.498006,271.399994 863.214,272.672 C861.929994,273.944006 861.24,275.467991 861.144,277.244 C861.144,277.316 861.15,277.441999 861.162,277.622 C861.174,277.802001 861.18,277.951999 861.18,278.072 L874.572,275.66 C874.115998,274.195993 873.264006,273.002005 872.016,272.078 C870.767994,271.153995 869.376008,270.704 867.84,270.728 Z" id="Diode-Failure-Copy" fill="#23ABE3"></path>
        <rect id="Rectangle-Copy" stroke="#3D3530" stroke-width="2" x="1" y="247" width="898" height="62"></rect>
        <g id="dam" transform="translate(168.000000, 13.000000)">
            <rect id="Rectangle" fill="#1A80AA" x="71" y="119" width="370" height="80"></rect>
            <path d="M1.56319402e-13,0 C31,42 166.941838,85 177.470919,99.5 C184.490306,109.166667 186.151729,142.333333 182.455187,199 L1.56319402e-13,199 C1.56319402e-13,91.6666667 1.56319402e-13,25.3333333 1.56319402e-13,0 Z" id="Path-5" fill="#84705B"></path>
            <rect id="Rectangle" fill="#4D4D4D" x="182" y="100" width="21" height="99"></rect>
            <polygon id="Path-6-Copy" fill="#B2B2B2" points="203 108 314 108 314 199 203 199"></polygon>
            <path d="M440.66,198 C433.886667,153.333333 435.804,119.333333 446.412,96 C457.02,72.6666667 479.932,43 515.148,7 L515.148,198 L440.66,198 Z" id="Path-7" fill="#84705B"></path>
            <polygon id="Path-6-Copy-2" fill="#B2B2B2" points="333 119 444 119 444 199 333 199"></polygon>
            <rect id="Rectangle-Copy-2" fill="#4D4D4D" x="314" y="100" width="21" height="99"></rect>
            <path d="M182,120 L441,120" id="Line" stroke="#1A80AA" stroke-width="2" opacity="0.200000003" stroke-linecap="square" stroke-dasharray="15,15"></path>
        </g>
    </g>
</svg>