<?xml version="1.0" encoding="UTF-8"?>
<svg width="900px" height="430px" viewBox="0 0 900 430" version="1.1" xmlns="http://www.w3.org/2000/svg" xmlns:xlink="http://www.w3.org/1999/xlink">
    <!-- Generator: Sketch 52.5 (67469) - http://www.bohemiancoding.com/sketch -->
    <title>Diode_Forward_Bias</title>
    <desc>Created with Sketch.</desc>
    <g id="Diode_Forward_Bias" stroke="none" stroke-width="1" fill="none" fill-rule="evenodd">
        <rect id="Rectangle" fill="#EEEEEE" x="0" y="0" width="900" height="430"></rect>
        <g id="Illustration" transform="translate(79.000000, 66.000000)">
            <g id="Lattice-Junction" transform="translate(27.000000, 0.000000)">
                <g id="P-Type-Lattice" transform="translate(184.000000, 41.000000)">
                    <rect id="Rectangle" stroke="#999999" stroke-width="2" fill="#D4D4D4" x="1" y="1" width="158" height="158"></rect>
                    <circle id="Oval-Copy-3" fill="#252525" cx="20.5" cy="18.5" r="10.5"></circle>
                    <circle id="Oval-Copy-5" fill="#252525" cx="20.5" cy="58.5" r="10.5"></circle>
                    <circle id="Oval-Copy-6" fill="#252525" cx="20.5" cy="98.5" r="10.5"></circle>
                    <circle id="Oval-Copy-10" fill="#252525" cx="50.5" cy="38.5" r="10.5"></circle>
                    <circle id="Oval-Copy-8" fill="#252525" cx="50.5" cy="118.5" r="10.5"></circle>
                    <g id="Negative-Ion" transform="translate(100.000000, 28.000000)">
                        <circle id="Oval-Copy-26" fill="#84D0EF" cx="10.5" cy="10.5" r="10.5"></circle>
                        <rect id="Rectangle" fill="#524740" x="6" y="10" width="9" height="1"></rect>
                    </g>
                    <circle id="Oval-Copy-25" fill="#252525" cx="110.5" cy="78.5" r="10.5"></circle>
                    <circle id="Oval-Copy-24" fill="#252525" cx="110.5" cy="118.5" r="10.5"></circle>
                    <g id="Negative-Ion" transform="translate(40.000000, 68.000000)">
                        <circle id="Oval-Copy-9" fill="#84D0EF" cx="10.5" cy="10.5" r="10.5"></circle>
                        <rect id="Rectangle" fill="#524740" x="6" y="10" width="9" height="1"></rect>
                    </g>
                    <g id="Negative-Ion" transform="translate(10.000000, 128.000000)">
                        <circle id="Oval-Copy-7" fill="#84D0EF" cx="10.5" cy="10.5" r="10.5"></circle>
                        <rect id="Rectangle" fill="#524740" x="6" y="10" width="9" height="1"></rect>
                    </g>
                    <circle id="Oval-Copy-23" fill="#252525" cx="80.5" cy="18.5" r="10.5"></circle>
                    <circle id="Oval-Copy-22" fill="#252525" cx="80.5" cy="58.5" r="10.5"></circle>
                    <g id="Negative-Ion" transform="translate(70.000000, 88.000000)">
                        <circle id="Oval-Copy-21" fill="#84D0EF" cx="10.5" cy="10.5" r="10.5"></circle>
                        <rect id="Rectangle" fill="#524740" x="6" y="10" width="9" height="1"></rect>
                    </g>
                    <circle id="Oval-Copy-20" fill="#252525" cx="80.5" cy="138.5" r="10.5"></circle>
                    <circle id="Oval-Copy-30" fill="#252525" cx="140.5" cy="18.5" r="10.5"></circle>
                    <circle id="Oval-Copy-29" fill="#252525" cx="140.5" cy="58.5" r="10.5"></circle>
                    <circle id="Oval-Copy-28" fill="#252525" cx="140.5" cy="98.5" r="10.5"></circle>
                    <circle id="Oval-Copy-27" fill="#252525" cx="140.5" cy="138.5" r="10.5"></circle>
                    <g id="Little-Ones" transform="translate(4.000000, 23.000000)" fill="#84D0EF">
                        <circle id="Oval-Copy-31" cx="25.25" cy="53.25" r="3.25"></circle>
                        <circle id="Oval-Copy-32" cx="38.25" cy="32.25" r="3.25"></circle>
                        <circle id="Oval-Copy-33" cx="28.25" cy="4.25" r="3.25"></circle>
                        <circle id="Oval-Copy-34" cx="69.25" cy="12.25" r="3.25"></circle>
                        <circle id="Oval-Copy-35" cx="79.25" cy="52.25" r="3.25"></circle>
                        <circle id="Oval-Copy-36" cx="60.25" cy="73.25" r="3.25"></circle>
                        <circle id="Oval-Copy-37" cx="35.25" cy="84.25" r="3.25"></circle>
                        <circle id="Oval-Copy-38" cx="31.25" cy="126.25" r="3.25"></circle>
                        <circle id="Oval-Copy-39" cx="3.25" cy="93.25" r="3.25"></circle>
                        <circle id="Oval-Copy-40" cx="55.25" cy="111.25" r="3.25"></circle>
                        <circle id="Oval-Copy-42" cx="90.25" cy="92.25" r="3.25"></circle>
                        <circle id="Oval-Copy-43" cx="90.25" cy="122.25" r="3.25"></circle>
                        <circle id="Oval-Copy-49" cx="96.25" cy="3.25" r="3.25"></circle>
                    </g>
                </g>
                <g id="N-Type-Lattice" transform="translate(342.000000, 41.000000)">
                    <rect id="Rectangle" stroke="#999999" stroke-width="2" fill="#7D7570" x="1" y="1" width="158" height="158"></rect>
                    <circle id="Oval-Copy-3" fill="#252525" cx="20.5" cy="18.5" r="10.5"></circle>
                    <circle id="Oval-Copy-5" fill="#252525" cx="20.5" cy="58.5" r="10.5"></circle>
                    <circle id="Oval-Copy-6" fill="#252525" cx="20.5" cy="98.5" r="10.5"></circle>
                    <circle id="Oval-Copy-10" fill="#252525" cx="50.5" cy="38.5" r="10.5"></circle>
                    <g id="Positive-Ion" transform="translate(40.000000, 68.000000)">
                        <circle id="Oval-Copy-9" fill="#D7E465" cx="10.5" cy="10.5" r="10.5"></circle>
                        <path d="M10,10 L10,6 L11,6 L11,10 L15,10 L15,11 L11,11 L11,15 L10,15 L10,11 L6,11 L6,10 L10,10 Z" id="Combined-Shape" fill="#524740"></path>
                    </g>
                    <circle id="Oval-Copy-8" fill="#252525" cx="50.5" cy="118.5" r="10.5"></circle>
                    <g id="Positive-Ion" transform="translate(100.000000, 28.000000)">
                        <circle id="Oval-Copy-26" fill="#D7E465" cx="10.5" cy="10.5" r="10.5"></circle>
                        <path d="M10,10 L10,6 L11,6 L11,10 L15,10 L15,11 L11,11 L11,15 L10,15 L10,11 L6,11 L6,10 L10,10 Z" id="Combined-Shape" fill="#524740"></path>
                    </g>
                    <circle id="Oval-Copy-25" fill="#252525" cx="110.5" cy="78.5" r="10.5"></circle>
                    <circle id="Oval-Copy-24" fill="#252525" cx="110.5" cy="118.5" r="10.5"></circle>
                    <g id="Positive-Ion" transform="translate(10.000000, 128.000000)">
                        <circle id="Oval-Copy-7" fill="#D7E465" cx="10.5" cy="10.5" r="10.5"></circle>
                        <path d="M10,10 L10,6 L11,6 L11,10 L15,10 L15,11 L11,11 L11,15 L10,15 L10,11 L6,11 L6,10 L10,10 Z" id="Combined-Shape" fill="#524740"></path>
                    </g>
                    <circle id="Oval-Copy-23" fill="#252525" cx="80.5" cy="18.5" r="10.5"></circle>
                    <circle id="Oval-Copy-22" fill="#252525" cx="80.5" cy="58.5" r="10.5"></circle>
                    <g id="Positive-Ion" transform="translate(70.000000, 88.000000)">
                        <circle id="Oval-Copy-21" fill="#D7E465" cx="10.5" cy="10.5" r="10.5"></circle>
                        <path d="M10,10 L10,6 L11,6 L11,10 L15,10 L15,11 L11,11 L11,15 L10,15 L10,11 L6,11 L6,10 L10,10 Z" id="Combined-Shape" fill="#524740"></path>
                    </g>
                    <circle id="Oval-Copy-20" fill="#252525" cx="80.5" cy="138.5" r="10.5"></circle>
                    <circle id="Oval-Copy-30" fill="#252525" cx="140.5" cy="18.5" r="10.5"></circle>
                    <circle id="Oval-Copy-29" fill="#252525" cx="140.5" cy="58.5" r="10.5"></circle>
                    <circle id="Oval-Copy-28" fill="#252525" cx="140.5" cy="98.5" r="10.5"></circle>
                    <circle id="Oval-Copy-27" fill="#252525" cx="140.5" cy="138.5" r="10.5"></circle>
                    <g id="Little-ones" transform="translate(56.000000, 8.000000)" fill="#EF7D3B">
                        <circle id="Oval-Copy-34" cx="17.25" cy="27.25" r="3.25"></circle>
                        <circle id="Oval-Copy-35" cx="27.25" cy="67.25" r="3.25"></circle>
                        <circle id="Oval-Copy-36" cx="8.25" cy="88.25" r="3.25"></circle>
                        <circle id="Oval-Copy-40" cx="3.25" cy="126.25" r="3.25"></circle>
                        <circle id="Oval-Copy-41" cx="63.25" cy="126.25" r="3.25"></circle>
                        <circle id="Oval-Copy-42" cx="38.25" cy="107.25" r="3.25"></circle>
                        <circle id="Oval-Copy-43" cx="38.25" cy="137.25" r="3.25"></circle>
                        <circle id="Oval-Copy-44" cx="78.25" cy="146.25" r="3.25"></circle>
                        <circle id="Oval-Copy-45" cx="98.25" cy="96.25" r="3.25"></circle>
                        <circle id="Oval-Copy-46" cx="67.25" cy="82.25" r="3.25"></circle>
                        <circle id="Oval-Copy-47" cx="77.25" cy="37.25" r="3.25"></circle>
                        <circle id="Oval-Copy-48" cx="67.25" cy="3.25" r="3.25"></circle>
                        <circle id="Oval-Copy-49" cx="44.25" cy="18.25" r="3.25"></circle>
                    </g>
                </g>
                <circle id="Oval-Copy-41" fill="#84D0EF" cx="303.25" cy="175.25" r="3.25"></circle>
                <circle id="Oval-Copy-44" fill="#84D0EF" cx="318.25" cy="195.25" r="3.25"></circle>
                <circle id="Oval-Copy-45" fill="#84D0EF" cx="338.25" cy="145.25" r="3.25"></circle>
                <circle id="Oval-Copy-46" fill="#84D0EF" cx="307.25" cy="131.25" r="3.25"></circle>
                <circle id="Oval-Copy-47" fill="#84D0EF" cx="317.25" cy="86.25" r="3.25"></circle>
                <circle id="Oval-Copy-48" fill="#84D0EF" cx="307.25" cy="52.25" r="3.25"></circle>
                <circle id="Oval-Copy-31" fill="#EF7D3B" cx="371.25" cy="117.25" r="3.25"></circle>
                <circle id="Oval-Copy-32" fill="#EF7D3B" cx="384.25" cy="96.25" r="3.25"></circle>
                <circle id="Oval-Copy-33" fill="#EF7D3B" cx="374.25" cy="68.25" r="3.25"></circle>
                <circle id="Oval-Copy-37" fill="#EF7D3B" cx="381.25" cy="148.25" r="3.25"></circle>
                <circle id="Oval-Copy-38" fill="#EF7D3B" cx="377.25" cy="190.25" r="3.25"></circle>
                <circle id="Oval-Copy-39" fill="#EF7D3B" cx="349.25" cy="157.25" r="3.25"></circle>
                <path d="M233.263997,3.4 C235.688009,3.4 237.58399,3.97599424 238.951997,5.128 C240.320004,6.28000576 241.003997,7.73199124 241.003997,9.484 C241.003997,11.2360088 240.320004,12.6819943 238.951997,13.822 C237.58399,14.9620057 235.688009,15.532 233.263997,15.532 L230.059997,15.532 L230.059997,20.032 C230.059997,21.832009 230.257995,22.9839975 230.653997,23.488 C231.049999,23.9920025 231.99199,24.244 233.479997,24.244 L233.479997,25 L223.759997,25 L223.759997,24.244 C225.248004,24.244 226.189995,23.9920025 226.585997,23.488 C226.981999,22.9839975 227.179997,21.832009 227.179997,20.032 L227.179997,8.332 C227.179997,6.531991 226.981999,5.38600246 226.585997,4.894 C226.189995,4.40199754 225.248004,4.156 223.759997,4.156 L223.759997,3.4 L233.263997,3.4 Z M233.227997,14.236 C234.716004,14.236 235.849993,13.7920044 236.629997,12.904 C237.410001,12.0159956 237.799997,10.876007 237.799997,9.484 C237.799997,8.09199304 237.410001,6.95200444 236.629997,6.064 C235.849993,5.17599556 234.716004,4.732 233.227997,4.732 L230.059997,4.732 L230.059997,14.236 L233.227997,14.236 Z M253.531998,18.412 L243.019998,18.412 L243.019998,16.828 L253.531998,16.828 L253.531998,18.412 Z M275.635999,3.4 L275.959999,8.26 L275.203999,8.26 L275.023999,7.54 C274.735998,6.4599946 274.352001,5.73400186 273.871999,5.362 C273.391997,4.98999814 272.384007,4.804 270.847999,4.804 L266.131999,4.804 L266.131999,20.032 C266.131999,21.832009 266.335997,22.9839975 266.743999,23.488 C267.152001,23.9920025 268.099992,24.244 269.587999,24.244 L269.587999,25 L259.831999,25 L259.831999,24.244 C261.320006,24.244 262.267997,23.9920025 262.675999,23.488 C263.084001,22.9839975 263.287999,21.832009 263.287999,20.032 L263.287999,4.804 L258.571999,4.804 C257.035991,4.804 256.028001,4.98999814 255.547999,5.362 C255.067997,5.73400186 254.684,6.4599946 254.395999,7.54 L254.215999,8.26 L253.459999,8.26 L253.783999,3.4 L275.635999,3.4 Z M273.728,33.532 C273.728,33.1479981 273.871999,32.8060015 274.16,32.506 C274.448001,32.2059985 274.825998,31.7980026 275.294,31.282 C275.762002,30.7659974 276.151998,30.112004 276.464,29.32 L278.264,24.82 L274.124,15.856 C273.739998,15.0399959 273.380002,14.4820015 273.044,14.182 C272.707998,13.8819985 272.264003,13.732 271.712,13.732 L271.712,13.012 L278.084,13.012 L278.084,13.732 C277.267996,13.732 276.776001,13.8639987 276.608,14.128 C276.439999,14.3920013 276.547998,14.9679956 276.932,15.856 L279.56,21.616 L281.864,15.856 C282.200002,15.0399959 282.296001,14.4820015 282.152,14.182 C282.007999,13.8819985 281.564004,13.732 280.82,13.732 L280.82,13.012 L285.86,13.012 L285.86,13.732 C284.731994,13.732 283.880003,14.4399929 283.304,15.856 L276.284,33.388 C275.923998,34.2760044 275.480003,34.72 274.952,34.72 C274.639998,34.72 274.358001,34.624001 274.106,34.432 C273.853999,34.239999 273.728,33.940002 273.728,33.532 Z M296.048001,22.732 C296.744004,21.7479951 297.092001,20.5000076 297.092001,18.988 C297.092001,17.4759924 296.744004,16.2400048 296.048001,15.28 C295.351998,14.3199952 294.344008,13.84 293.024001,13.84 C292.207997,13.84 291.482004,14.0919975 290.846001,14.596 C290.209998,15.1000025 289.712003,15.7839957 289.352001,16.648 L289.352001,21.292 C289.712003,22.1800044 290.209998,22.8819974 290.846001,23.398 C291.482004,23.9140026 292.207997,24.172 293.024001,24.172 C294.344008,24.172 295.351998,23.6920048 296.048001,22.732 Z M289.352001,29.068 C289.352001,30.8440089 289.525999,31.9839975 289.874001,32.488 C290.222003,32.9920025 290.995995,33.244 292.196001,33.244 L292.196001,34 L283.952001,34 L283.952001,33.244 C285.152007,33.244 285.925999,32.9980025 286.274001,32.506 C286.622003,32.0139975 286.796001,30.868009 286.796001,29.068 L286.796001,18.232 C286.796001,16.431991 286.622003,15.2860025 286.274001,14.794 C285.925999,14.3019975 285.152007,14.056 283.952001,14.056 L283.952001,13.3 L288.776001,12.4 C288.920002,12.6640013 289.1,13.395994 289.316001,14.596 C290.540007,13.1319927 292.027992,12.4 293.780001,12.4 C295.48401,12.4 296.947995,13.0419936 298.172001,14.326 C299.396007,15.6100064 300.008001,17.1639909 300.008001,18.988 C300.008001,20.8120091 299.396007,22.3719935 298.172001,23.668 C296.947995,24.9640065 295.48401,25.612 293.780001,25.612 C292.003992,25.612 290.528007,24.8920072 289.352001,23.452 L289.352001,29.068 Z M304.400002,16.756 L310.376002,16.756 C310.616003,16.0839966 310.514004,15.4300032 310.070002,14.794 C309.626,14.1579968 308.864007,13.84 307.784002,13.84 C307.015998,13.84 306.326005,14.1039974 305.714002,14.632 C305.101999,15.1600026 304.664003,15.8679956 304.400002,16.756 Z M304.184002,18.088 C303.968001,19.8640089 304.249998,21.3099944 305.030002,22.426 C305.810006,23.5420056 307.087993,24.1 308.864002,24.1 C309.464005,24.1 310.147998,23.9440016 310.916002,23.632 C311.684006,23.3199984 312.319999,22.9240024 312.824002,22.444 L313.472002,23.236 C312.823999,23.9320035 311.996007,24.5019978 310.988002,24.946 C309.979997,25.3900022 308.972007,25.612 307.964002,25.612 C306.019992,25.612 304.424008,24.9700064 303.176002,23.686 C301.927996,22.4019936 301.304002,20.8360092 301.304002,18.988 C301.304002,17.1399908 301.981995,15.5800064 303.338002,14.308 C304.694009,13.0359936 306.235993,12.4 307.964002,12.4 C309.59601,12.4 310.927997,12.9699943 311.960002,14.11 C312.992007,15.2500057 313.292004,16.5759924 312.860002,18.088 L304.184002,18.088 Z" id="P-Type-Copy" fill="#524740"></path>
                <path d="M389.509997,20.536 L389.509997,8.332 C389.509997,6.531991 389.311999,5.38600246 388.915997,4.894 C388.519995,4.40199754 387.578004,4.156 386.089997,4.156 L386.089997,3.4 L394.297997,3.4 L394.297997,4.156 C392.80999,4.156 391.861999,4.40199754 391.453997,4.894 C391.045995,5.38600246 390.841997,6.531991 390.841997,8.332 L390.841997,25.612 L390.013997,25.612 L375.361997,7.504 L375.361997,20.032 C375.361997,21.832009 375.565995,22.9839975 375.973997,23.488 C376.381999,23.9920025 377.32999,24.244 378.817997,24.244 L378.817997,25 L370.609997,25 L370.609997,24.244 C372.098004,24.244 373.039995,23.9920025 373.435997,23.488 C373.831999,22.9839975 374.029997,21.832009 374.029997,20.032 L374.029997,8.332 C374.029997,6.531991 373.831999,5.38600246 373.435997,4.894 C373.039995,4.40199754 372.098004,4.156 370.609997,4.156 L370.609997,3.4 L375.685997,3.4 L389.509997,20.536 Z M406.681998,18.412 L396.169998,18.412 L396.169998,16.828 L406.681998,16.828 L406.681998,18.412 Z M428.785999,3.4 L429.109999,8.26 L428.353999,8.26 L428.173999,7.54 C427.885998,6.4599946 427.502001,5.73400186 427.021999,5.362 C426.541997,4.98999814 425.534007,4.804 423.997999,4.804 L419.281999,4.804 L419.281999,20.032 C419.281999,21.832009 419.485997,22.9839975 419.893999,23.488 C420.302001,23.9920025 421.249992,24.244 422.737999,24.244 L422.737999,25 L412.981999,25 L412.981999,24.244 C414.470006,24.244 415.417997,23.9920025 415.825999,23.488 C416.234001,22.9839975 416.437999,21.832009 416.437999,20.032 L416.437999,4.804 L411.721999,4.804 C410.185991,4.804 409.178001,4.98999814 408.697999,5.362 C408.217997,5.73400186 407.834,6.4599946 407.545999,7.54 L407.365999,8.26 L406.609999,8.26 L406.933999,3.4 L428.785999,3.4 Z M426.878,33.532 C426.878,33.1479981 427.021999,32.8060015 427.31,32.506 C427.598001,32.2059985 427.975998,31.7980026 428.444,31.282 C428.912002,30.7659974 429.301998,30.112004 429.614,29.32 L431.414,24.82 L427.274,15.856 C426.889998,15.0399959 426.530002,14.4820015 426.194,14.182 C425.857998,13.8819985 425.414003,13.732 424.862,13.732 L424.862,13.012 L431.234,13.012 L431.234,13.732 C430.417996,13.732 429.926001,13.8639987 429.758,14.128 C429.589999,14.3920013 429.697998,14.9679956 430.082,15.856 L432.71,21.616 L435.014,15.856 C435.350002,15.0399959 435.446001,14.4820015 435.302,14.182 C435.157999,13.8819985 434.714004,13.732 433.97,13.732 L433.97,13.012 L439.01,13.012 L439.01,13.732 C437.881994,13.732 437.030003,14.4399929 436.454,15.856 L429.434,33.388 C429.073998,34.2760044 428.630003,34.72 428.102,34.72 C427.789998,34.72 427.508001,34.624001 427.256,34.432 C427.003999,34.239999 426.878,33.940002 426.878,33.532 Z M449.198001,22.732 C449.894004,21.7479951 450.242001,20.5000076 450.242001,18.988 C450.242001,17.4759924 449.894004,16.2400048 449.198001,15.28 C448.501998,14.3199952 447.494008,13.84 446.174001,13.84 C445.357997,13.84 444.632004,14.0919975 443.996001,14.596 C443.359998,15.1000025 442.862003,15.7839957 442.502001,16.648 L442.502001,21.292 C442.862003,22.1800044 443.359998,22.8819974 443.996001,23.398 C444.632004,23.9140026 445.357997,24.172 446.174001,24.172 C447.494008,24.172 448.501998,23.6920048 449.198001,22.732 Z M442.502001,29.068 C442.502001,30.8440089 442.675999,31.9839975 443.024001,32.488 C443.372003,32.9920025 444.145995,33.244 445.346001,33.244 L445.346001,34 L437.102001,34 L437.102001,33.244 C438.302007,33.244 439.075999,32.9980025 439.424001,32.506 C439.772003,32.0139975 439.946001,30.868009 439.946001,29.068 L439.946001,18.232 C439.946001,16.431991 439.772003,15.2860025 439.424001,14.794 C439.075999,14.3019975 438.302007,14.056 437.102001,14.056 L437.102001,13.3 L441.926001,12.4 C442.070002,12.6640013 442.25,13.395994 442.466001,14.596 C443.690007,13.1319927 445.177992,12.4 446.930001,12.4 C448.63401,12.4 450.097995,13.0419936 451.322001,14.326 C452.546007,15.6100064 453.158001,17.1639909 453.158001,18.988 C453.158001,20.8120091 452.546007,22.3719935 451.322001,23.668 C450.097995,24.9640065 448.63401,25.612 446.930001,25.612 C445.153992,25.612 443.678007,24.8920072 442.502001,23.452 L442.502001,29.068 Z M457.550002,16.756 L463.526002,16.756 C463.766003,16.0839966 463.664004,15.4300032 463.220002,14.794 C462.776,14.1579968 462.014007,13.84 460.934002,13.84 C460.165998,13.84 459.476005,14.1039974 458.864002,14.632 C458.251999,15.1600026 457.814003,15.8679956 457.550002,16.756 Z M457.334002,18.088 C457.118001,19.8640089 457.399998,21.3099944 458.180002,22.426 C458.960006,23.5420056 460.237993,24.1 462.014002,24.1 C462.614005,24.1 463.297998,23.9440016 464.066002,23.632 C464.834006,23.3199984 465.469999,22.9240024 465.974002,22.444 L466.622002,23.236 C465.973999,23.9320035 465.146007,24.5019978 464.138002,24.946 C463.129997,25.3900022 462.122007,25.612 461.114002,25.612 C459.169992,25.612 457.574008,24.9700064 456.326002,23.686 C455.077996,22.4019936 454.454002,20.8360092 454.454002,18.988 C454.454002,17.1399908 455.131995,15.5800064 456.488002,14.308 C457.844009,13.0359936 459.385993,12.4 461.114002,12.4 C462.74601,12.4 464.077997,12.9699943 465.110002,14.11 C466.142007,15.2500057 466.442004,16.5759924 466.010002,18.088 L457.334002,18.088 Z" id="N-Type-Copy" fill="#524740"></path>
                <path d="M7.976,87.512 L6.248,91.508 C5.79199772,92.4920049 5.7739979,93.1939979 6.194,93.614 C6.6140021,94.0340021 7.56799256,94.244 9.056,94.244 L9.056,95 L0.632,95 L0.632,94.244 C1.40000384,94.244 1.9939979,94.2140003 2.414,94.154 C2.8340021,94.0939997 3.20599838,93.9020016 3.53,93.578 C3.85400162,93.2539984 4.08199934,92.9600013 4.214,92.696 C4.34600066,92.4319987 4.5919982,91.904004 4.952,91.112 L12.872,72.788 L13.34,72.788 L21.296,91.112 C21.6560018,91.904004 21.9019993,92.4319987 22.034,92.696 C22.1660007,92.9600013 22.3939984,93.2539984 22.718,93.578 C23.0420016,93.9020016 23.407998,94.0939997 23.816,94.154 C24.224002,94.2140003 24.8119962,94.244 25.58,94.244 L25.58,95 L15.608,95 L15.608,94.244 C17.0960074,94.244 18.043998,94.0340021 18.452,93.614 C18.860002,93.1939979 18.8480022,92.4920049 18.416,91.508 L16.688,87.512 L7.976,87.512 Z M16.076,86.18 L12.296,77.504 L8.552,86.18 L16.076,86.18 Z M28.820001,84.992 C30.1880078,83.2639914 31.8559912,82.4 33.824001,82.4 C35.3840088,82.4 36.5539971,82.8919951 37.334001,83.876 C38.1140049,84.8600049 38.504001,86.155992 38.504001,87.764 L38.504001,90.032 C38.504001,91.832009 38.6779993,92.9839975 39.026001,93.488 C39.3740027,93.9920025 40.147995,94.244 41.348001,94.244 L41.348001,95 L33.104001,95 L33.104001,94.244 C34.2800069,94.244 35.0479992,93.9860026 35.408001,93.47 C35.7680028,92.9539974 35.948001,91.8080089 35.948001,90.032 L35.948001,87.944 C35.948001,85.3759872 34.952011,84.092 32.960001,84.092 C31.9279958,84.092 30.9800053,84.4519964 30.116001,85.172 C29.2519967,85.8920036 28.820001,86.7319952 28.820001,87.692 L28.820001,90.032 C28.820001,91.8800092 28.9639996,93.0439976 29.252001,93.524 C29.5400024,94.0040024 30.2359955,94.244 31.340001,94.244 L31.340001,95 L23.420001,95 L23.420001,94.244 C24.620007,94.244 25.3939993,93.9920025 25.742001,93.488 C26.0900027,92.9839975 26.264001,91.832009 26.264001,90.032 L26.264001,88.232 C26.264001,86.4559911 26.0900027,85.3160025 25.742001,84.812 C25.3939993,84.3079975 24.620007,84.056 23.420001,84.056 L23.420001,83.3 L28.208001,82.4 C28.4240021,82.8560023 28.628,83.7199936 28.820001,84.992 Z M53.984002,84.344 C55.4240092,85.6160064 56.144002,87.1639909 56.144002,88.988 C56.144002,90.8120091 55.4300091,92.3719935 54.002002,93.668 C52.5739949,94.9640065 50.864012,95.612 48.872002,95.612 C46.879992,95.612 45.1700091,94.9640065 43.742002,93.668 C42.3139949,92.3719935 41.600002,90.8120091 41.600002,88.988 C41.600002,87.1639909 42.3139949,85.6100064 43.742002,84.326 C45.1700091,83.0419936 46.879992,82.4 48.872002,82.4 C50.864012,82.4 52.5679949,83.0479935 53.984002,84.344 Z M52.112002,92.768 C52.8560057,91.7839951 53.228002,90.5240077 53.228002,88.988 C53.228002,87.4519923 52.8560057,86.1980049 52.112002,85.226 C51.3679983,84.2539951 50.2880091,83.768 48.872002,83.768 C47.4559949,83.768 46.3760057,84.2599951 45.632002,85.244 C44.8879983,86.2280049 44.516002,87.4759924 44.516002,88.988 C44.516002,90.5000076 44.8879983,91.7479951 45.632002,92.732 C46.3760057,93.7160049 47.4559949,94.208 48.872002,94.208 C50.2880091,94.208 51.3679983,93.7280048 52.112002,92.768 Z M68.096003,91.328 L68.096003,86.684 C67.7600013,85.8199957 67.2680062,85.1300026 66.620003,84.614 C65.9719998,84.0979974 65.252007,83.84 64.460003,83.84 C63.1159963,83.84 62.0960065,84.3199952 61.400003,85.28 C60.7039995,86.2400048 60.356003,87.4759924 60.356003,88.988 C60.356003,90.5240077 60.7039995,91.7719952 61.400003,92.732 C62.0960065,93.6920048 63.1159963,94.172 64.460003,94.172 C65.252007,94.172 65.9719998,93.9140026 66.620003,93.398 C67.2680062,92.8819974 67.7600013,92.1920043 68.096003,91.328 Z M68.096003,84.524 L68.096003,78.656 C68.096003,76.855991 67.9220047,75.7040025 67.574003,75.2 C67.2260013,74.6959975 66.452009,74.444 65.252003,74.444 L65.252003,73.688 L70.652003,72.788 L70.652003,89.744 C70.652003,91.544009 70.8260013,92.6959975 71.174003,93.2 C71.5220047,93.7040025 72.295997,93.956 73.496003,93.956 L73.496003,94.712 L68.708003,95.612 C68.5400022,95.2519982 68.3480041,94.5200055 68.132003,93.416 C66.9559971,94.8800073 65.4800119,95.612 63.704003,95.612 C61.9999945,95.612 60.5300092,94.9640065 59.294003,93.668 C58.0579968,92.3719935 57.440003,90.8120091 57.440003,88.988 C57.440003,87.1639909 58.0579968,85.6100064 59.294003,84.326 C60.5300092,83.0419936 61.9999945,82.4 63.704003,82.4 C65.4800119,82.4 66.9439972,83.1079929 68.096003,84.524 Z M76.844004,86.756 L82.820004,86.756 C83.0600052,86.0839966 82.9580062,85.4300032 82.514004,84.794 C82.0700018,84.1579968 81.3080094,83.84 80.228004,83.84 C79.4600002,83.84 78.7700071,84.1039974 78.158004,84.632 C77.5460009,85.1600026 77.1080053,85.8679956 76.844004,86.756 Z M76.628004,88.088 C76.4120029,89.8640089 76.6940001,91.3099944 77.474004,92.426 C78.2540079,93.5420056 79.5319951,94.1 81.308004,94.1 C81.908007,94.1 82.5920002,93.9440016 83.360004,93.632 C84.1280078,93.3199984 84.7640015,92.9240024 85.268004,92.444 L85.916004,93.236 C85.2680008,93.9320035 84.440009,94.5019978 83.432004,94.946 C82.423999,95.3900022 81.416009,95.612 80.408004,95.612 C78.4639943,95.612 76.8680102,94.9700064 75.620004,93.686 C74.3719978,92.4019936 73.748004,90.8360092 73.748004,88.988 C73.748004,87.1399908 74.4259972,85.5800064 75.782004,84.308 C77.1380108,83.0359936 78.6799954,82.4 80.408004,82.4 C82.0400122,82.4 83.3719988,82.9699943 84.404004,84.11 C85.4360092,85.2500057 85.7360062,86.5759924 85.304004,88.088 L76.628004,88.088 Z M103.160006,98.24 L102.368006,98.996 C96.967979,94.5799779 94.268006,89.7080266 94.268006,84.38 C94.268006,79.0759735 96.9559791,74.2040222 102.332006,69.764 L103.160006,70.52 C102.392002,71.3840043 101.756009,72.1339968 101.252006,72.77 C100.748003,73.4060032 100.09401,74.3539937 99.290006,75.614 C98.486002,76.8740063 97.8680082,78.2479926 97.436006,79.736 C97.0040038,81.2240074 96.788006,82.771992 96.788006,84.38 C96.788006,85.988008 97.0040038,87.5359926 97.436006,89.024 C97.8680082,90.5120074 98.486002,91.8859937 99.290006,93.146 C100.09401,94.4060063 100.748003,95.3539968 101.252006,95.99 C101.756009,96.6260032 102.392002,97.3759957 103.160006,98.24 Z M107.984007,87.512 L106.256007,91.508 C105.800005,92.4920049 105.782005,93.1939979 106.202007,93.614 C106.622009,94.0340021 107.576,94.244 109.064007,94.244 L109.064007,95 L100.640007,95 L100.640007,94.244 C101.408011,94.244 102.002005,94.2140003 102.422007,94.154 C102.842009,94.0939997 103.214005,93.9020016 103.538007,93.578 C103.862009,93.2539984 104.090006,92.9600013 104.222007,92.696 C104.354008,92.4319987 104.600005,91.904004 104.960007,91.112 L112.880007,72.788 L113.348007,72.788 L121.304007,91.112 C121.664009,91.904004 121.910006,92.4319987 122.042007,92.696 C122.174008,92.9600013 122.402005,93.2539984 122.726007,93.578 C123.050009,93.9020016 123.416005,94.0939997 123.824007,94.154 C124.232009,94.2140003 124.820003,94.244 125.588007,94.244 L125.588007,95 L115.616007,95 L115.616007,94.244 C117.104014,94.244 118.052005,94.0340021 118.460007,93.614 C118.868009,93.1939979 118.856009,92.4920049 118.424007,91.508 L116.696007,87.512 L107.984007,87.512 Z M116.084007,86.18 L112.304007,77.504 L108.560007,86.18 L116.084007,86.18 Z M131.960008,84.38 C131.960008,89.7320268 129.272035,94.603978 123.896008,98.996 L123.068008,98.24 C123.860012,97.3519956 124.502006,96.5960031 124.994008,95.972 C125.48601,95.3479969 126.140004,94.4060063 126.956008,93.146 C127.772012,91.8859937 128.396006,90.5120074 128.828008,89.024 C129.26001,87.5359926 129.476008,85.988008 129.476008,84.38 C129.476008,82.771992 129.26001,81.2240074 128.828008,79.736 C128.396006,78.2479926 127.772012,76.8740063 126.956008,75.614 C126.140004,74.3539937 125.48601,73.4120031 124.994008,72.788 C124.502006,72.1639969 123.860012,71.4080044 123.068008,70.52 L123.932008,69.764 C129.284035,74.1800221 131.960008,79.0519734 131.960008,84.38 Z" id="Anode-(A)-Copy" fill="#524740"></path>
                <path d="M551.571989,94.604 L550.851989,94.604 C550.659988,93.6679953 550.251992,92.9840022 549.627989,92.552 C547.659979,94.5920102 545.428001,95.612 542.931989,95.612 C539.883974,95.612 537.28,94.4960112 535.119989,92.264 C532.959978,90.0319888 531.879989,87.3440157 531.879989,84.2 C531.879989,81.0559843 532.959978,78.3680112 535.119989,76.136 C537.28,73.9039888 539.883974,72.788 542.931989,72.788 C545.476002,72.788 547.707979,73.8079898 549.627989,75.848 C550.275992,75.3439975 550.683988,74.6600043 550.851989,73.796 L551.571989,73.796 L551.571989,81.716 L550.851989,81.716 C550.347986,79.3399881 549.417996,77.4920066 548.061989,76.172 C546.705982,74.8519934 545.043999,74.192 543.075989,74.192 C541.707982,74.192 540.495994,74.4979969 539.439989,75.11 C538.383984,75.7220031 537.561992,76.531995 536.973989,77.54 C536.385986,78.548005 535.94799,79.6159944 535.659989,80.744 C535.371988,81.8720056 535.227989,83.0239941 535.227989,84.2 C535.227989,85.3760059 535.371988,86.5279944 535.659989,87.656 C535.94799,88.7840056 536.385986,89.845995 536.973989,90.842 C537.561992,91.838005 538.383984,92.6419969 539.439989,93.254 C540.495994,93.8660031 541.707982,94.172 543.075989,94.172 C545.043999,94.172 546.705982,93.5060067 548.061989,92.174 C549.417996,90.8419933 550.347986,89.0120116 550.851989,86.684 L551.571989,86.684 L551.571989,94.604 Z M566.00799,94.28 C565.311987,95.0240037 564.519994,95.396 563.63199,95.396 C562.191983,95.396 561.375991,94.700007 561.18399,93.308 C559.575982,94.7480072 558.075997,95.468 556.68399,95.468 C555.771985,95.468 555.003993,95.1980027 554.37999,94.658 C553.755987,94.1179973 553.44399,93.3800047 553.44399,92.444 C553.44399,89.9239874 555.999964,88.2200044 561.11199,87.332 C561.11199,85.9159929 560.955992,84.9320028 560.64399,84.38 C560.331988,83.8279972 559.683995,83.552 558.69999,83.552 C558.219988,83.552 557.757992,83.7079984 557.31399,84.02 C556.869988,84.3320016 556.64799,84.7519974 556.64799,85.28 C556.64799,85.6400018 556.527991,85.9399988 556.28799,86.18 C556.047989,86.4200012 555.759992,86.54 555.42399,86.54 C555.063988,86.54 554.763991,86.4200012 554.52399,86.18 C554.283989,85.9399988 554.16399,85.6400018 554.16399,85.28 C554.16399,84.4399958 554.625985,83.7500027 555.54999,83.21 C556.473995,82.6699973 557.535984,82.4 558.73599,82.4 C560.487999,82.4 561.747986,82.7839962 562.51599,83.552 C563.283994,84.3200038 563.66799,85.5679914 563.66799,87.296 L563.66799,92.732 C563.66799,93.6680047 563.943987,94.136 564.49599,94.136 C564.807992,94.136 565.143988,93.9560018 565.50399,93.596 L566.00799,94.28 Z M561.11199,92.12 L561.11199,88.448 C557.799973,89.2160038 556.14399,90.403992 556.14399,92.012 C556.14399,92.5640028 556.305988,93.0079983 556.62999,93.344 C556.953992,93.6800017 557.355988,93.848 557.83599,93.848 C558.723994,93.848 559.815984,93.2720058 561.11199,92.12 Z M567.303991,84.272 L565.431991,84.272 L565.431991,83.408 C566.463996,83.1919989 567.219989,82.7240036 567.699991,82.004 C568.179993,81.2839964 568.49199,80.3000062 568.635991,79.052 L569.859991,79.052 L569.859991,83.012 L572.991991,83.012 L572.991991,84.272 L569.859991,84.272 L569.859991,91.472 C569.859991,93.2000086 570.399986,94.064 571.479991,94.064 C572.175994,94.064 572.955987,93.6560041 573.819991,92.84 L574.431991,93.452 C573.927988,94.052003 573.321995,94.5439981 572.613991,94.928 C571.905987,95.3120019 571.251994,95.504 570.651991,95.504 C569.619986,95.504 568.803994,95.1680034 568.203991,94.496 C567.603988,93.8239966 567.303991,92.8160067 567.303991,91.472 L567.303991,84.272 Z M590.991992,95 L583.035992,95 L583.035992,94.244 C584.163998,94.244 584.871991,94.0040024 585.159992,93.524 C585.447993,93.0439976 585.591992,91.8800092 585.591992,90.032 L585.591992,87.944 C585.591992,85.3759872 584.680001,84.092 582.855992,84.092 C581.895987,84.092 581.007996,84.4459965 580.191992,85.154 C579.375988,85.8620035 578.967992,86.7079951 578.967992,87.692 L578.967992,90.032 C578.967992,91.9040094 579.099991,93.0739977 579.363992,93.542 C579.627993,94.0100023 580.251987,94.244 581.235992,94.244 L581.235992,95 L573.567992,95 L573.567992,94.244 C574.767998,94.244 575.54199,93.9920025 575.889992,93.488 C576.237994,92.9839975 576.411992,91.832009 576.411992,90.032 L576.411992,78.656 C576.411992,76.855991 576.237994,75.7040025 575.889992,75.2 C575.54199,74.6959975 574.767998,74.444 573.567992,74.444 L573.567992,73.688 L578.967992,72.788 L578.967992,84.992 C580.383999,83.2639914 581.955983,82.4 583.683992,82.4 C586.636007,82.4 588.111992,84.1879821 588.111992,87.764 L588.111992,90.032 C588.111992,91.832009 588.28599,92.9839975 588.633992,93.488 C588.981994,93.9920025 589.767986,94.244 590.991992,94.244 L590.991992,95 Z M603.627993,84.344 C605.068,85.6160064 605.787993,87.1639909 605.787993,88.988 C605.787993,90.8120091 605.074,92.3719935 603.645993,93.668 C602.217986,94.9640065 600.508003,95.612 598.515993,95.612 C596.523983,95.612 594.814,94.9640065 593.385993,93.668 C591.957986,92.3719935 591.243993,90.8120091 591.243993,88.988 C591.243993,87.1639909 591.957986,85.6100064 593.385993,84.326 C594.814,83.0419936 596.523983,82.4 598.515993,82.4 C600.508003,82.4 602.211986,83.0479935 603.627993,84.344 Z M601.755993,92.768 C602.499997,91.7839951 602.871993,90.5240077 602.871993,88.988 C602.871993,87.4519923 602.499997,86.1980049 601.755993,85.226 C601.011989,84.2539951 599.932,83.768 598.515993,83.768 C597.099986,83.768 596.019997,84.2599951 595.275993,85.244 C594.531989,86.2280049 594.159993,87.4759924 594.159993,88.988 C594.159993,90.5000076 594.531989,91.7479951 595.275993,92.732 C596.019997,93.7160049 597.099986,94.208 598.515993,94.208 C599.932,94.208 601.011989,93.7280048 601.755993,92.768 Z M617.739994,91.328 L617.739994,86.684 C617.403992,85.8199957 616.911997,85.1300026 616.263994,84.614 C615.615991,84.0979974 614.895998,83.84 614.103994,83.84 C612.759987,83.84 611.739997,84.3199952 611.043994,85.28 C610.347991,86.2400048 609.999994,87.4759924 609.999994,88.988 C609.999994,90.5240077 610.347991,91.7719952 611.043994,92.732 C611.739997,93.6920048 612.759987,94.172 614.103994,94.172 C614.895998,94.172 615.615991,93.9140026 616.263994,93.398 C616.911997,92.8819974 617.403992,92.1920043 617.739994,91.328 Z M617.739994,84.524 L617.739994,78.656 C617.739994,76.855991 617.565996,75.7040025 617.217994,75.2 C616.869992,74.6959975 616.096,74.444 614.895994,74.444 L614.895994,73.688 L620.295994,72.788 L620.295994,89.744 C620.295994,91.544009 620.469992,92.6959975 620.817994,93.2 C621.165996,93.7040025 621.939988,93.956 623.139994,93.956 L623.139994,94.712 L618.351994,95.612 C618.183993,95.2519982 617.991995,94.5200055 617.775994,93.416 C616.599988,94.8800073 615.124003,95.612 613.347994,95.612 C611.643985,95.612 610.174,94.9640065 608.937994,93.668 C607.701988,92.3719935 607.083994,90.8120091 607.083994,88.988 C607.083994,87.1639909 607.701988,85.6100064 608.937994,84.326 C610.174,83.0419936 611.643985,82.4 613.347994,82.4 C615.124003,82.4 616.587988,83.1079929 617.739994,84.524 Z M626.487995,86.756 L632.463995,86.756 C632.703996,86.0839966 632.601997,85.4300032 632.157995,84.794 C631.713993,84.1579968 630.952,83.84 629.871995,83.84 C629.103991,83.84 628.413998,84.1039974 627.801995,84.632 C627.189992,85.1600026 626.751996,85.8679956 626.487995,86.756 Z M626.271995,88.088 C626.055994,89.8640089 626.337991,91.3099944 627.117995,92.426 C627.897999,93.5420056 629.175986,94.1 630.951995,94.1 C631.551998,94.1 632.235991,93.9440016 633.003995,93.632 C633.771999,93.3199984 634.407992,92.9240024 634.911995,92.444 L635.559995,93.236 C634.911992,93.9320035 634.084,94.5019978 633.075995,94.946 C632.06799,95.3900022 631.06,95.612 630.051995,95.612 C628.107985,95.612 626.512001,94.9700064 625.263995,93.686 C624.015989,92.4019936 623.391995,90.8360092 623.391995,88.988 C623.391995,87.1399908 624.069988,85.5800064 625.425995,84.308 C626.782002,83.0359936 628.323986,82.4 630.051995,82.4 C631.684003,82.4 633.01599,82.9699943 634.047995,84.11 C635.08,85.2500057 635.379997,86.5759924 634.947995,88.088 L626.271995,88.088 Z M652.803997,98.24 L652.011997,98.996 C646.61197,94.5799779 643.911997,89.7080266 643.911997,84.38 C643.911997,79.0759735 646.59997,74.2040222 651.975997,69.764 L652.803997,70.52 C652.035993,71.3840043 651.4,72.1339968 650.895997,72.77 C650.391994,73.4060032 649.738001,74.3539937 648.933997,75.614 C648.129993,76.8740063 647.511999,78.2479926 647.079997,79.736 C646.647995,81.2240074 646.431997,82.771992 646.431997,84.38 C646.431997,85.988008 646.647995,87.5359926 647.079997,89.024 C647.511999,90.5120074 648.129993,91.8859937 648.933997,93.146 C649.738001,94.4060063 650.391994,95.3539968 650.895997,95.99 C651.4,96.6260032 652.035993,97.3759957 652.803997,98.24 Z M662.307998,82.472 L673.467998,92.156 C674.116001,92.7080028 674.925993,93.1939979 675.897998,93.614 C676.870003,94.0340021 677.607995,94.244 678.111998,94.244 L678.111998,95 L667.995998,95 L667.995998,94.244 C669.172004,94.244 669.879997,94.046002 670.119998,93.65 C670.359999,93.253998 670.108002,92.756003 669.363998,92.156 L660.255998,84.272 L659.319998,85.028 L659.319998,90.032 C659.319998,91.832009 659.517996,92.9839975 659.913998,93.488 C660.31,93.9920025 661.251991,94.244 662.739998,94.244 L662.739998,95 L653.019998,95 L653.019998,94.244 C654.508005,94.244 655.449996,93.9920025 655.845998,93.488 C656.242,92.9839975 656.439998,91.832009 656.439998,90.032 L656.439998,78.332 C656.439998,76.531991 656.242,75.3860025 655.845998,74.894 C655.449996,74.4019975 654.508005,74.156 653.019998,74.156 L653.019998,73.4 L662.739998,73.4 L662.739998,74.156 C661.251991,74.156 660.31,74.4019975 659.913998,74.894 C659.517996,75.3860025 659.319998,76.531991 659.319998,78.332 L659.319998,83.372 L666.699998,77.072 C668.716008,75.1999906 668.764008,74.2280004 666.843998,74.156 L666.843998,73.4 L675.195998,73.4 L675.195998,74.156 C673.875991,74.156 672.778002,74.359998 671.901998,74.768 C671.025994,75.176002 669.928005,75.9439944 668.607998,77.072 L662.307998,82.472 Z M685.671999,84.38 C685.671999,89.7320268 682.984026,94.603978 677.607999,98.996 L676.779999,98.24 C677.572003,97.3519956 678.213997,96.5960031 678.705999,95.972 C679.198001,95.3479969 679.851995,94.4060063 680.667999,93.146 C681.484003,91.8859937 682.107997,90.5120074 682.539999,89.024 C682.972001,87.5359926 683.187999,85.988008 683.187999,84.38 C683.187999,82.771992 682.972001,81.2240074 682.539999,79.736 C682.107997,78.2479926 681.484003,76.8740063 680.667999,75.614 C679.851995,74.3539937 679.198001,73.4120031 678.705999,72.788 C678.213997,72.1639969 677.572003,71.4080044 676.779999,70.52 L677.643999,69.764 C682.996026,74.1800221 685.671999,79.0519734 685.671999,84.38 Z" id="Cathode-(K)-Copy" fill="#524740"></path>
            </g>
            <path d="M182.487983,311.156 C181.071975,311.156 180.153985,311.329998 179.733983,311.678 C179.31398,312.026002 178.803986,312.895993 178.203983,314.288 L170.283983,332.612 L169.815983,332.612 L161.859983,314.288 C161.25998,312.895993 160.749985,312.026002 160.329983,311.678 C159.90998,311.329998 158.99199,311.156 157.575983,311.156 L157.575983,310.4 L167.547983,310.4 L167.547983,311.156 C166.059975,311.156 165.105985,311.365998 164.685983,311.786 C164.26598,312.206002 164.28398,312.907995 164.739983,313.892 L170.859983,327.896 L176.907983,313.892 C177.363985,312.907995 177.381985,312.206002 176.961983,311.786 C176.54198,311.365998 175.58799,311.156 174.099983,311.156 L174.099983,310.4 L182.487983,310.4 L182.487983,311.156 Z M191.019984,321.344 C192.459991,322.616006 193.179984,324.163991 193.179984,325.988 C193.179984,327.812009 192.465991,329.371994 191.037984,330.668 C189.609976,331.964006 187.899993,332.612 185.907984,332.612 C183.915974,332.612 182.205991,331.964006 180.777984,330.668 C179.349976,329.371994 178.635984,327.812009 178.635984,325.988 C178.635984,324.163991 179.349976,322.610006 180.777984,321.326 C182.205991,320.041994 183.915974,319.4 185.907984,319.4 C187.899993,319.4 189.603976,320.047994 191.019984,321.344 Z M189.147984,329.768 C189.891987,328.783995 190.263984,327.524008 190.263984,325.988 C190.263984,324.451992 189.891987,323.198005 189.147984,322.226 C188.40398,321.253995 187.323991,320.768 185.907984,320.768 C184.491976,320.768 183.411987,321.259995 182.667984,322.244 C181.92398,323.228005 181.551984,324.475992 181.551984,325.988 C181.551984,327.500008 181.92398,328.747995 182.667984,329.732 C183.411987,330.716005 184.491976,331.208 185.907984,331.208 C187.323991,331.208 188.40398,330.728005 189.147984,329.768 Z M201.675985,332 L193.431985,332 L193.431985,331.244 C194.631991,331.244 195.405983,330.992003 195.753985,330.488 C196.101986,329.983997 196.275985,328.832009 196.275985,327.032 L196.275985,315.656 C196.275985,313.855991 196.101986,312.704003 195.753985,312.2 C195.405983,311.695997 194.631991,311.444 193.431985,311.444 L193.431985,310.688 L198.831985,309.788 L198.831985,327.032 C198.831985,328.832009 199.005983,329.983997 199.353985,330.488 C199.701986,330.992003 200.475979,331.244 201.675985,331.244 L201.675985,332 Z M203.115986,321.272 L201.243986,321.272 L201.243986,320.408 C202.275991,320.191999 203.031983,319.724004 203.511986,319.004 C203.991988,318.283996 204.303985,317.300006 204.447986,316.052 L205.671986,316.052 L205.671986,320.012 L208.803986,320.012 L208.803986,321.272 L205.671986,321.272 L205.671986,328.472 C205.671986,330.200009 206.21198,331.064 207.291986,331.064 C207.987989,331.064 208.767981,330.656004 209.631986,329.84 L210.243986,330.452 C209.739983,331.052003 209.133989,331.543998 208.425986,331.928 C207.717982,332.312002 207.063989,332.504 206.463986,332.504 C205.43198,332.504 204.615989,332.168003 204.015986,331.496 C203.415983,330.823997 203.115986,329.816007 203.115986,328.472 L203.115986,321.272 Z M222.627987,331.28 C221.931983,332.024004 221.139991,332.396 220.251987,332.396 C218.811979,332.396 217.995987,331.700007 217.803987,330.308 C216.195978,331.748007 214.695993,332.468 213.303987,332.468 C212.391982,332.468 211.62399,332.198003 210.999987,331.658 C210.375983,331.117997 210.063987,330.380005 210.063987,329.444 C210.063987,326.923987 212.619961,325.220004 217.731987,324.332 C217.731987,322.915993 217.575988,321.932003 217.263987,321.38 C216.951985,320.827997 216.303991,320.552 215.319987,320.552 C214.839984,320.552 214.377989,320.707998 213.933987,321.02 C213.489984,321.332002 213.267987,321.751997 213.267987,322.28 C213.267987,322.640002 213.147988,322.939999 212.907987,323.18 C212.667985,323.420001 212.379988,323.54 212.043987,323.54 C211.683985,323.54 211.383988,323.420001 211.143987,323.18 C210.903985,322.939999 210.783987,322.640002 210.783987,322.28 C210.783987,321.439996 211.245982,320.750003 212.169987,320.21 C213.093991,319.669997 214.155981,319.4 215.355987,319.4 C217.107995,319.4 218.367983,319.783996 219.135987,320.552 C219.90399,321.320004 220.287987,322.567991 220.287987,324.296 L220.287987,329.732 C220.287987,330.668005 220.563984,331.136 221.115987,331.136 C221.427988,331.136 221.763985,330.956002 222.123987,330.596 L222.627987,331.28 Z M217.731987,329.12 L217.731987,325.448 C214.41997,326.216004 212.763987,327.403992 212.763987,329.012 C212.763987,329.564003 212.925985,330.007998 213.249987,330.344 C213.573988,330.680002 213.975984,330.848 214.455987,330.848 C215.343991,330.848 216.43598,330.272006 217.731987,329.12 Z M229.827988,326.996 C230.28399,326.299997 230.511988,325.400006 230.511988,324.296 C230.511988,323.191994 230.28999,322.292003 229.845988,321.596 C229.401985,320.899997 228.759992,320.552 227.919988,320.552 C227.079983,320.552 226.43199,320.899997 225.975988,321.596 C225.519985,322.292003 225.291988,323.191994 225.291988,324.296 C225.291988,325.400006 225.519985,326.293997 225.975988,326.978 C226.43199,327.662003 227.079983,328.004 227.919988,328.004 C228.759992,328.004 229.395985,327.668003 229.827988,326.996 Z M224.571988,330.704 C224.571988,331.424004 225.663977,331.879999 227.847988,332.072 C230.151999,332.264001 231.819982,332.791996 232.851988,333.656 C233.883993,334.520004 234.399988,335.563994 234.399988,336.788 C234.399988,338.252007 233.793994,339.421996 232.581988,340.298 C231.369981,341.174004 229.851997,341.612 228.027988,341.612 C226.083978,341.612 224.517993,341.210004 223.329988,340.406 C222.141982,339.601996 221.595987,338.660005 221.691988,337.58 C221.787988,336.499995 222.55598,335.588004 223.995988,334.844 L224.643988,335.24 C223.947984,336.032004 223.575988,336.757997 223.527988,337.418 C223.479987,338.078003 223.689985,338.599998 224.157988,338.984 C224.62599,339.368002 225.201984,339.667999 225.885988,339.884 C226.569991,340.100001 227.283984,340.208 228.027988,340.208 C229.203993,340.208 230.241983,339.950003 231.141988,339.434 C232.041992,338.917997 232.491988,338.252004 232.491988,337.436 C232.491988,336.643996 232.101991,336.068002 231.321988,335.708 C230.541984,335.347998 229.323996,335.084001 227.667988,334.916 C224.25997,334.579998 222.555988,333.464009 222.555988,331.568 C222.555988,330.271994 223.563977,329.312003 225.579988,328.688 C224.643983,328.255998 223.90599,327.656004 223.365988,326.888 C222.825985,326.119996 222.555988,325.256005 222.555988,324.296 C222.555988,322.951993 223.077982,321.800005 224.121988,320.84 C225.165993,319.879995 226.43198,319.4 227.919988,319.4 C229.359995,319.4 230.595982,319.855995 231.627988,320.768 C231.939989,320.383998 232.365985,320.060001 232.905988,319.796 C233.44599,319.531999 233.919985,319.4 234.327988,319.4 C235.383993,319.4 236.055986,319.843996 236.343988,320.732 C236.559989,321.404003 236.45199,321.907998 236.019988,322.244 C235.875987,322.364001 235.707988,322.424 235.515988,322.424 C235.155986,322.448 234.885988,322.376001 234.705988,322.208 C234.525987,322.039999 234.417988,321.854001 234.381988,321.65 C234.345987,321.445999 234.249988,321.254001 234.093988,321.074 C233.937987,320.893999 233.691989,320.804 233.355988,320.804 C232.995986,320.804 232.623989,320.995998 232.239988,321.38 C232.935991,322.220004 233.283988,323.191994 233.283988,324.296 C233.283988,325.568006 232.815992,326.659995 231.879988,327.572 C230.943983,328.484005 229.851994,329.023999 228.603988,329.192 C225.915974,329.504002 224.571988,330.007997 224.571988,330.704 Z M238.935989,323.756 L244.911989,323.756 C245.15199,323.083997 245.049991,322.430003 244.605989,321.794 C244.161986,321.157997 243.399994,320.84 242.319989,320.84 C241.551985,320.84 240.861992,321.103997 240.249989,321.632 C239.637985,322.160003 239.19999,322.867996 238.935989,323.756 Z M238.719989,325.088 C238.503987,326.864009 238.785985,328.309994 239.565989,329.426 C240.345992,330.542006 241.62398,331.1 243.399989,331.1 C243.999992,331.1 244.683985,330.944002 245.451989,330.632 C246.219992,330.319998 246.855986,329.924002 247.359989,329.444 L248.007989,330.236 C247.359985,330.932003 246.531994,331.501998 245.523989,331.946 C244.515983,332.390002 243.507994,332.612 242.499989,332.612 C240.555979,332.612 238.959995,331.970006 237.711989,330.686 C236.463982,329.401994 235.839989,327.836009 235.839989,325.988 C235.839989,324.139991 236.517982,322.580006 237.873989,321.308 C239.229995,320.035994 240.77198,319.4 242.499989,319.4 C244.131997,319.4 245.463983,319.969994 246.495989,321.11 C247.527994,322.250006 247.827991,323.575992 247.395989,325.088 L238.719989,325.088 Z M257.367991,330.92 C256.815988,331.376002 256.467991,331.939997 256.323991,332.612 L255.603991,332.612 L255.603991,324.692 L256.359991,324.692 C256.359991,324.788 256.36599,324.913999 256.377991,325.07 C256.389991,325.226001 256.43799,325.525998 256.521991,325.97 C256.605991,326.414002 256.72599,326.839998 256.881991,327.248 C257.037991,327.656002 257.283989,328.111997 257.619991,328.616 C257.955992,329.120003 258.345988,329.551998 258.789991,329.912 C259.233993,330.272002 259.821987,330.571999 260.553991,330.812 C261.285994,331.052001 262.095986,331.172 262.983991,331.172 C264.279997,331.172 265.353986,330.800004 266.205991,330.056 C267.057995,329.311996 267.483991,328.364006 267.483991,327.212 C267.483991,325.747993 266.104004,324.296007 263.343991,322.856 L259.887991,321.092 C258.759985,320.491997 257.811994,319.676005 257.043991,318.644 C256.275987,317.611995 255.891991,316.448006 255.891991,315.152 C255.891991,313.639992 256.455985,312.368005 257.583991,311.336 C258.711996,310.303995 260.139982,309.788 261.867991,309.788 C263.451998,309.788 264.915984,310.279995 266.259991,311.264 C266.811993,310.807998 267.15999,310.256003 267.303991,309.608 L268.023991,309.608 L268.023991,317.528 L267.267991,317.528 C266.907989,313.327979 265.072007,311.228 261.759991,311.228 C260.751985,311.228 259.917994,311.533997 259.257991,312.146 C258.597987,312.758003 258.267991,313.519995 258.267991,314.432 C258.267991,315.320004 258.585987,316.069997 259.221991,316.682 C259.857994,317.294003 261.003982,318.031996 262.659991,318.896 L266.079991,320.66 C268.600003,321.932006 269.859991,323.755988 269.859991,326.132 C269.859991,328.05201 269.193997,329.611994 267.861991,330.812 C266.529984,332.012006 264.904,332.612 262.983991,332.612 C262.167986,332.612 261.387994,332.492001 260.643991,332.252 C259.899987,332.011999 259.227994,331.742002 258.627991,331.442 C258.027988,331.141998 257.607992,330.968 257.367991,330.92 Z M283.575992,321.344 C285.015999,322.616006 285.735992,324.163991 285.735992,325.988 C285.735992,327.812009 285.021999,329.371994 283.593992,330.668 C282.165984,331.964006 280.456001,332.612 278.463992,332.612 C276.471982,332.612 274.761999,331.964006 273.333992,330.668 C271.905984,329.371994 271.191992,327.812009 271.191992,325.988 C271.191992,324.163991 271.905984,322.610006 273.333992,321.326 C274.761999,320.041994 276.471982,319.4 278.463992,319.4 C280.456001,319.4 282.159984,320.047994 283.575992,321.344 Z M281.703992,329.768 C282.447995,328.783995 282.819992,327.524008 282.819992,325.988 C282.819992,324.451992 282.447995,323.198005 281.703992,322.226 C280.959988,321.253995 279.879999,320.768 278.463992,320.768 C277.047984,320.768 275.967995,321.259995 275.223992,322.244 C274.479988,323.228005 274.107992,324.475992 274.107992,325.988 C274.107992,327.500008 274.479988,328.747995 275.223992,329.732 C275.967995,330.716005 277.047984,331.208 278.463992,331.208 C279.879999,331.208 280.959988,330.728005 281.703992,329.768 Z M303.411993,331.712 L298.587993,332.612 C298.395992,332.227998 298.203993,331.460006 298.011993,330.308 C296.523985,331.844008 294.952001,332.612 293.295993,332.612 C290.319978,332.612 288.831993,330.812018 288.831993,327.212 L288.831993,324.944 C288.831993,323.143991 288.657994,321.992003 288.309993,321.488 C287.961991,320.983997 287.187999,320.732 285.987993,320.732 L285.987993,320.012 L291.387993,320.012 L291.387993,327.032 C291.387993,329.600013 292.299983,330.884 294.123993,330.884 C294.939997,330.884 295.791988,330.542003 296.679993,329.858 C297.567997,329.173997 298.011993,328.328005 298.011993,327.32 L298.011993,324.944 C298.011993,323.143991 297.837994,321.992003 297.489993,321.488 C297.141991,320.983997 296.355999,320.732 295.131993,320.732 L295.131993,320.012 L300.531993,320.012 L300.531993,326.744 C300.531993,328.544009 300.705991,329.695997 301.053993,330.2 C301.401994,330.704003 302.187986,330.956 303.411993,330.956 L303.411993,331.712 Z M315.327994,321.632 C315.327994,322.760006 314.847998,323.324 313.887994,323.324 C313.551992,323.324 313.257995,323.192001 313.005994,322.928 C312.753992,322.663999 312.627994,322.364002 312.627994,322.028 C312.627994,321.235996 312.243997,320.84 311.475994,320.84 C310.923991,320.84 310.323997,321.223996 309.675994,321.992 C309.02799,322.760004 308.703994,323.779994 308.703994,325.052 L308.703994,327.032 C308.703994,328.832009 308.877992,329.983997 309.225994,330.488 C309.573995,330.992003 310.347988,331.244 311.547994,331.244 L311.547994,332 L303.303994,332 L303.303994,331.244 C304.504,331.244 305.277992,330.992003 305.625994,330.488 C305.973995,329.983997 306.147994,328.832009 306.147994,327.032 L306.147994,325.232 C306.147994,323.455991 305.973995,322.316003 305.625994,321.812 C305.277992,321.307997 304.504,321.056 303.303994,321.056 L303.303994,320.3 L308.091994,319.4 C308.307995,319.856002 308.511993,320.719994 308.703994,321.992 C309.063995,321.271996 309.60399,320.660003 310.323994,320.156 C311.043997,319.651997 311.76399,319.4 312.483994,319.4 C313.395998,319.4 314.097991,319.639998 314.589994,320.12 C315.081996,320.600002 315.327994,321.103997 315.327994,321.632 Z M321.663995,320.552 C320.70399,320.552 319.887998,321.103994 319.215995,322.208 C318.543991,323.312006 318.207995,324.679992 318.207995,326.312 C318.207995,327.800007 318.573991,328.969996 319.305995,329.822 C320.037998,330.674004 321.123987,331.1 322.563995,331.1 C323.956001,331.1 325.239989,330.548006 326.415995,329.444 L327.027995,330.236 C325.563987,331.820008 323.776005,332.612 321.663995,332.612 C319.695985,332.612 318.142,332.024006 317.001995,330.848 C315.861989,329.671994 315.291995,328.160009 315.291995,326.312 C315.291995,324.31999 315.963988,322.670007 317.307995,321.362 C318.652001,320.053993 320.103987,319.4 321.663995,319.4 C323.080002,319.4 324.147991,319.651997 324.867995,320.156 C325.587998,320.660003 325.947995,321.271996 325.947995,321.992 C325.947995,322.376002 325.821996,322.729998 325.569995,323.054 C325.317993,323.378002 324.915997,323.54 324.363995,323.54 C323.979993,323.54 323.649996,323.402001 323.373995,323.126 C323.097993,322.849999 322.959995,322.508002 322.959995,322.1 C322.959995,321.067995 322.527999,320.552 321.663995,320.552 Z M330.375996,323.756 L336.351996,323.756 C336.591997,323.083997 336.489998,322.430003 336.045996,321.794 C335.601993,321.157997 334.840001,320.84 333.759996,320.84 C332.991992,320.84 332.301999,321.103997 331.689996,321.632 C331.077992,322.160003 330.639997,322.867996 330.375996,323.756 Z M330.159996,325.088 C329.943994,326.864009 330.225992,328.309994 331.005996,329.426 C331.785999,330.542006 333.063987,331.1 334.839996,331.1 C335.439999,331.1 336.123992,330.944002 336.891996,330.632 C337.659999,330.319998 338.295993,329.924002 338.799996,329.444 L339.447996,330.236 C338.799992,330.932003 337.972001,331.501998 336.963996,331.946 C335.95599,332.390002 334.948001,332.612 333.939996,332.612 C331.995986,332.612 330.400002,331.970006 329.151996,330.686 C327.903989,329.401994 327.279996,327.836009 327.279996,325.988 C327.279996,324.139991 327.957989,322.580006 329.313996,321.308 C330.670002,320.035994 332.211987,319.4 333.939996,319.4 C335.572004,319.4 336.90399,319.969994 337.935996,321.11 C338.968001,322.250006 339.267998,323.575992 338.835996,325.088 L330.159996,325.088 Z M360.003998,330.992 L359.355998,331.82 L347.511998,323.972 L359.355998,316.16 L360.003998,316.952 L351.687998,323.972 L360.003998,330.992 Z M367.636,338.948 C369.916011,338.948 371.056,337.292017 371.056,333.98 L371.056,315.332 C371.056,313.531991 370.858001,312.386002 370.462,311.894 C370.065998,311.401998 369.124007,311.156 367.636,311.156 L367.636,310.4 L377.356,310.4 L377.356,311.156 C375.867992,311.156 374.926001,311.401998 374.53,311.894 C374.133998,312.386002 373.936,313.531991 373.936,315.332 L373.936,333.584 C373.936,334.808006 373.744001,335.863996 373.36,336.752 C372.975998,337.640004 372.460003,338.305998 371.812,338.75 C371.163996,339.194002 370.498003,339.517999 369.814,339.722 C369.129996,339.926001 368.404003,340.028 367.636,340.028 C366.411993,340.028 365.224005,339.716003 364.072,339.092 C362.919994,338.467997 362.344,337.640005 362.344,336.608 C362.344,336.271998 362.463998,335.984001 362.704,335.744 C362.944001,335.503999 363.243998,335.384 363.604,335.384 C363.940001,335.384 364.227998,335.503999 364.468,335.744 C364.708001,335.984001 364.828,336.271998 364.828,336.608 C364.828,337.208003 365.079997,337.747998 365.584,338.228 C366.088002,338.708002 366.771995,338.948 367.636,338.948 Z M394.672001,331.712 L389.848001,332.612 C389.656,332.227998 389.464001,331.460006 389.272001,330.308 C387.783993,331.844008 386.212009,332.612 384.556001,332.612 C381.579986,332.612 380.092001,330.812018 380.092001,327.212 L380.092001,324.944 C380.092001,323.143991 379.918002,321.992003 379.570001,321.488 C379.221999,320.983997 378.448007,320.732 377.248001,320.732 L377.248001,320.012 L382.648001,320.012 L382.648001,327.032 C382.648001,329.600013 383.559991,330.884 385.384001,330.884 C386.200005,330.884 387.051996,330.542003 387.940001,329.858 C388.828005,329.173997 389.272001,328.328005 389.272001,327.32 L389.272001,324.944 C389.272001,323.143991 389.098002,321.992003 388.750001,321.488 C388.401999,320.983997 387.616007,320.732 386.392001,320.732 L386.392001,320.012 L391.792001,320.012 L391.792001,326.744 C391.792001,328.544009 391.965999,329.695997 392.314001,330.2 C392.662002,330.704003 393.447994,330.956 394.672001,330.956 L394.672001,331.712 Z M399.964002,321.992 C401.332008,320.263991 402.999992,319.4 404.968002,319.4 C406.528009,319.4 407.697998,319.891995 408.478002,320.876 C409.258005,321.860005 409.648002,323.155992 409.648002,324.764 L409.648002,327.032 C409.648002,328.832009 409.822,329.983997 410.170002,330.488 C410.518003,330.992003 411.291996,331.244 412.492002,331.244 L412.492002,332 L404.248002,332 L404.248002,331.244 C405.424007,331.244 406.192,330.986003 406.552002,330.47 C406.912003,329.953997 407.092002,328.808009 407.092002,327.032 L407.092002,324.944 C407.092002,322.375987 406.096011,321.092 404.104002,321.092 C403.071996,321.092 402.124006,321.451996 401.260002,322.172 C400.395997,322.892004 399.964002,323.731995 399.964002,324.692 L399.964002,327.032 C399.964002,328.880009 400.108,330.043998 400.396002,330.524 C400.684003,331.004002 401.379996,331.244 402.484002,331.244 L402.484002,332 L394.564002,332 L394.564002,331.244 C395.764008,331.244 396.538,330.992003 396.886002,330.488 C397.234003,329.983997 397.408002,328.832009 397.408002,327.032 L397.408002,325.232 C397.408002,323.455991 397.234003,322.316003 396.886002,321.812 C396.538,321.307997 395.764008,321.056 394.564002,321.056 L394.564002,320.3 L399.352002,319.4 C399.568003,319.856002 399.772001,320.719994 399.964002,321.992 Z M419.116003,320.552 C418.155998,320.552 417.340006,321.103994 416.668003,322.208 C415.995999,323.312006 415.660003,324.679992 415.660003,326.312 C415.660003,327.800007 416.025999,328.969996 416.758003,329.822 C417.490006,330.674004 418.575995,331.1 420.016003,331.1 C421.408009,331.1 422.691997,330.548006 423.868003,329.444 L424.480003,330.236 C423.015995,331.820008 421.228013,332.612 419.116003,332.612 C417.147993,332.612 415.594008,332.024006 414.454003,330.848 C413.313997,329.671994 412.744003,328.160009 412.744003,326.312 C412.744003,324.31999 413.415996,322.670007 414.760003,321.362 C416.104009,320.053993 417.555995,319.4 419.116003,319.4 C420.53201,319.4 421.599999,319.651997 422.320003,320.156 C423.040006,320.660003 423.400003,321.271996 423.400003,321.992 C423.400003,322.376002 423.274004,322.729998 423.022003,323.054 C422.770001,323.378002 422.368005,323.54 421.816003,323.54 C421.432001,323.54 421.102004,323.402001 420.826003,323.126 C420.550001,322.849999 420.412003,322.508002 420.412003,322.1 C420.412003,321.067995 419.980007,320.552 419.116003,320.552 Z M425.884004,321.272 L424.012004,321.272 L424.012004,320.408 C425.044009,320.191999 425.800001,319.724004 426.280004,319.004 C426.760006,318.283996 427.072003,317.300006 427.216004,316.052 L428.440004,316.052 L428.440004,320.012 L431.572004,320.012 L431.572004,321.272 L428.440004,321.272 L428.440004,328.472 C428.440004,330.200009 428.979998,331.064 430.060004,331.064 C430.756007,331.064 431.535999,330.656004 432.400004,329.84 L433.012004,330.452 C432.508001,331.052003 431.902007,331.543998 431.194004,331.928 C430.486,332.312002 429.832007,332.504 429.232004,332.504 C428.199998,332.504 427.384007,332.168003 426.784004,331.496 C426.184001,330.823997 425.884004,329.816007 425.884004,328.472 L425.884004,321.272 Z M441.076005,332 L432.832005,332 L432.832005,331.244 C434.032011,331.244 434.806003,330.992003 435.154005,330.488 C435.502006,329.983997 435.676005,328.832009 435.676005,327.032 L435.676005,325.232 C435.676005,323.455991 435.502006,322.316003 435.154005,321.812 C434.806003,321.307997 434.032011,321.056 432.832005,321.056 L432.832005,320.3 L438.232005,319.4 L438.232005,327.032 C438.232005,328.832009 438.406003,329.983997 438.754005,330.488 C439.102006,330.992003 439.875999,331.244 441.076005,331.244 L441.076005,332 Z M438.520005,314.252 C438.520005,314.708002 438.364006,315.091998 438.052005,315.404 C437.740003,315.716002 437.368007,315.872 436.936005,315.872 C436.504002,315.872 436.132006,315.716002 435.820005,315.404 C435.508003,315.091998 435.352005,314.708002 435.352005,314.252 C435.352005,313.819998 435.508003,313.448002 435.820005,313.136 C436.132006,312.823998 436.504002,312.668 436.936005,312.668 C437.368007,312.668 437.740003,312.823998 438.052005,313.136 C438.364006,313.448002 438.520005,313.819998 438.520005,314.252 Z M453.712006,321.344 C455.152013,322.616006 455.872006,324.163991 455.872006,325.988 C455.872006,327.812009 455.158013,329.371994 453.730006,330.668 C452.301998,331.964006 450.592015,332.612 448.600006,332.612 C446.607996,332.612 444.898013,331.964006 443.470006,330.668 C442.041998,329.371994 441.328006,327.812009 441.328006,325.988 C441.328006,324.163991 442.041998,322.610006 443.470006,321.326 C444.898013,320.041994 446.607996,319.4 448.600006,319.4 C450.592015,319.4 452.295998,320.047994 453.712006,321.344 Z M451.840006,329.768 C452.584009,328.783995 452.956006,327.524008 452.956006,325.988 C452.956006,324.451992 452.584009,323.198005 451.840006,322.226 C451.096002,321.253995 450.016013,320.768 448.600006,320.768 C447.183998,320.768 446.104009,321.259995 445.360006,322.244 C444.616002,323.228005 444.244006,324.475992 444.244006,325.988 C444.244006,327.500008 444.616002,328.747995 445.360006,329.732 C446.104009,330.716005 447.183998,331.208 448.600006,331.208 C450.016013,331.208 451.096002,330.728005 451.840006,329.768 Z M462.208007,321.992 C463.576013,320.263991 465.243997,319.4 467.212007,319.4 C468.772014,319.4 469.942003,319.891995 470.722007,320.876 C471.50201,321.860005 471.892007,323.155992 471.892007,324.764 L471.892007,327.032 C471.892007,328.832009 472.066005,329.983997 472.414007,330.488 C472.762008,330.992003 473.536001,331.244 474.736007,331.244 L474.736007,332 L466.492007,332 L466.492007,331.244 C467.668012,331.244 468.436005,330.986003 468.796007,330.47 C469.156008,329.953997 469.336007,328.808009 469.336007,327.032 L469.336007,324.944 C469.336007,322.375987 468.340016,321.092 466.348007,321.092 C465.316001,321.092 464.368011,321.451996 463.504007,322.172 C462.640002,322.892004 462.208007,323.731995 462.208007,324.692 L462.208007,327.032 C462.208007,328.880009 462.352005,330.043998 462.640007,330.524 C462.928008,331.004002 463.624001,331.244 464.728007,331.244 L464.728007,332 L456.808007,332 L456.808007,331.244 C458.008013,331.244 458.782005,330.992003 459.130007,330.488 C459.478008,329.983997 459.652007,328.832009 459.652007,327.032 L459.652007,325.232 C459.652007,323.455991 459.478008,322.316003 459.130007,321.812 C458.782005,321.307997 458.008013,321.056 456.808007,321.056 L456.808007,320.3 L461.596007,319.4 C461.812008,319.856002 462.016006,320.719994 462.208007,321.992 Z M490.360009,310.4 C492.784021,310.4 494.680002,310.975994 496.048009,312.128 C497.416015,313.280006 498.100009,314.731991 498.100009,316.484 C498.100009,318.236009 497.416015,319.681994 496.048009,320.822 C494.680002,321.962006 492.784021,322.532 490.360009,322.532 L487.156009,322.532 L487.156009,327.032 C487.156009,328.832009 487.354007,329.983997 487.750009,330.488 C488.14601,330.992003 489.088001,331.244 490.576009,331.244 L490.576009,332 L480.856009,332 L480.856009,331.244 C482.344016,331.244 483.286007,330.992003 483.682009,330.488 C484.07801,329.983997 484.276009,328.832009 484.276009,327.032 L484.276009,315.332 C484.276009,313.531991 484.07801,312.386002 483.682009,311.894 C483.286007,311.401998 482.344016,311.156 480.856009,311.156 L480.856009,310.4 L490.360009,310.4 Z M490.324009,321.236 C491.812016,321.236 492.946005,320.792004 493.726009,319.904 C494.506012,319.015996 494.896009,317.876007 494.896009,316.484 C494.896009,315.091993 494.506012,313.952004 493.726009,313.064 C492.946005,312.175996 491.812016,311.732 490.324009,311.732 L487.156009,311.732 L487.156009,321.236 L490.324009,321.236 Z M509.58401,321.344 C511.024017,322.616006 511.74401,324.163991 511.74401,325.988 C511.74401,327.812009 511.030017,329.371994 509.60201,330.668 C508.174002,331.964006 506.464019,332.612 504.47201,332.612 C502.48,332.612 500.770017,331.964006 499.34201,330.668 C497.914002,329.371994 497.20001,327.812009 497.20001,325.988 C497.20001,324.163991 497.914002,322.610006 499.34201,321.326 C500.770017,320.041994 502.48,319.4 504.47201,319.4 C506.464019,319.4 508.168002,320.047994 509.58401,321.344 Z M507.71201,329.768 C508.456013,328.783995 508.82801,327.524008 508.82801,325.988 C508.82801,324.451992 508.456013,323.198005 507.71201,322.226 C506.968006,321.253995 505.888017,320.768 504.47201,320.768 C503.056002,320.768 501.976013,321.259995 501.23201,322.244 C500.488006,323.228005 500.11601,324.475992 500.11601,325.988 C500.11601,327.500008 500.488006,328.747995 501.23201,329.732 C501.976013,330.716005 503.056002,331.208 504.47201,331.208 C505.888017,331.208 506.968006,330.728005 507.71201,329.768 Z M514.192011,321.272 L512.320011,321.272 L512.320011,320.408 C513.352016,320.191999 514.108008,319.724004 514.588011,319.004 C515.068013,318.283996 515.38001,317.300006 515.524011,316.052 L516.748011,316.052 L516.748011,320.012 L519.880011,320.012 L519.880011,321.272 L516.748011,321.272 L516.748011,328.472 C516.748011,330.200009 517.288005,331.064 518.368011,331.064 C519.064014,331.064 519.844006,330.656004 520.708011,329.84 L521.320011,330.452 C520.816008,331.052003 520.210014,331.543998 519.502011,331.928 C518.794007,332.312002 518.140014,332.504 517.540011,332.504 C516.508005,332.504 515.692014,332.168003 515.092011,331.496 C514.492008,330.823997 514.192011,329.816007 514.192011,328.472 L514.192011,321.272 Z M524.596012,323.756 L530.572012,323.756 C530.812013,323.083997 530.710014,322.430003 530.266012,321.794 C529.822009,321.157997 529.060017,320.84 527.980012,320.84 C527.212008,320.84 526.522015,321.103997 525.910012,321.632 C525.298008,322.160003 524.860013,322.867996 524.596012,323.756 Z M524.380012,325.088 C524.16401,326.864009 524.446008,328.309994 525.226012,329.426 C526.006015,330.542006 527.284003,331.1 529.060012,331.1 C529.660015,331.1 530.344008,330.944002 531.112012,330.632 C531.880015,330.319998 532.516009,329.924002 533.020012,329.444 L533.668012,330.236 C533.020008,330.932003 532.192017,331.501998 531.184012,331.946 C530.176006,332.390002 529.168017,332.612 528.160012,332.612 C526.216002,332.612 524.620018,331.970006 523.372012,330.686 C522.124005,329.401994 521.500012,327.836009 521.500012,325.988 C521.500012,324.139991 522.178005,322.580006 523.534012,321.308 C524.890018,320.035994 526.432003,319.4 528.160012,319.4 C529.79202,319.4 531.124006,319.969994 532.156012,321.11 C533.188017,322.250006 533.488014,323.575992 533.056012,325.088 L524.380012,325.088 Z M539.572013,321.992 C540.940019,320.263991 542.608003,319.4 544.576013,319.4 C546.13602,319.4 547.306009,319.891995 548.086013,320.876 C548.866016,321.860005 549.256013,323.155992 549.256013,324.764 L549.256013,327.032 C549.256013,328.832009 549.430011,329.983997 549.778013,330.488 C550.126014,330.992003 550.900007,331.244 552.100013,331.244 L552.100013,332 L543.856013,332 L543.856013,331.244 C545.032018,331.244 545.800011,330.986003 546.160013,330.47 C546.520014,329.953997 546.700013,328.808009 546.700013,327.032 L546.700013,324.944 C546.700013,322.375987 545.704022,321.092 543.712013,321.092 C542.680007,321.092 541.732017,321.451996 540.868013,322.172 C540.004008,322.892004 539.572013,323.731995 539.572013,324.692 L539.572013,327.032 C539.572013,328.880009 539.716011,330.043998 540.004013,330.524 C540.292014,331.004002 540.988007,331.244 542.092013,331.244 L542.092013,332 L534.172013,332 L534.172013,331.244 C535.372019,331.244 536.146011,330.992003 536.494013,330.488 C536.842014,329.983997 537.016013,328.832009 537.016013,327.032 L537.016013,325.232 C537.016013,323.455991 536.842014,322.316003 536.494013,321.812 C536.146011,321.307997 535.372019,321.056 534.172013,321.056 L534.172013,320.3 L538.960013,319.4 C539.176014,319.856002 539.380012,320.719994 539.572013,321.992 Z M553.504014,321.272 L551.632014,321.272 L551.632014,320.408 C552.664019,320.191999 553.420011,319.724004 553.900014,319.004 C554.380016,318.283996 554.692013,317.300006 554.836014,316.052 L556.060014,316.052 L556.060014,320.012 L559.192014,320.012 L559.192014,321.272 L556.060014,321.272 L556.060014,328.472 C556.060014,330.200009 556.600008,331.064 557.680014,331.064 C558.376017,331.064 559.156009,330.656004 560.020014,329.84 L560.632014,330.452 C560.128011,331.052003 559.522017,331.543998 558.814014,331.928 C558.10601,332.312002 557.452017,332.504 556.852014,332.504 C555.820008,332.504 555.004017,332.168003 554.404014,331.496 C553.804011,330.823997 553.504014,329.816007 553.504014,328.472 L553.504014,321.272 Z M568.696015,332 L560.452015,332 L560.452015,331.244 C561.652021,331.244 562.426013,330.992003 562.774015,330.488 C563.122016,329.983997 563.296015,328.832009 563.296015,327.032 L563.296015,325.232 C563.296015,323.455991 563.122016,322.316003 562.774015,321.812 C562.426013,321.307997 561.652021,321.056 560.452015,321.056 L560.452015,320.3 L565.852015,319.4 L565.852015,327.032 C565.852015,328.832009 566.026013,329.983997 566.374015,330.488 C566.722016,330.992003 567.496009,331.244 568.696015,331.244 L568.696015,332 Z M566.140015,314.252 C566.140015,314.708002 565.984016,315.091998 565.672015,315.404 C565.360013,315.716002 564.988017,315.872 564.556015,315.872 C564.124012,315.872 563.752016,315.716002 563.440015,315.404 C563.128013,315.091998 562.972015,314.708002 562.972015,314.252 C562.972015,313.819998 563.128013,313.448002 563.440015,313.136 C563.752016,312.823998 564.124012,312.668 564.556015,312.668 C564.988017,312.668 565.360013,312.823998 565.672015,313.136 C565.984016,313.448002 566.140015,313.819998 566.140015,314.252 Z M581.152016,331.28 C580.456012,332.024004 579.66402,332.396 578.776016,332.396 C577.336008,332.396 576.520016,331.700007 576.328016,330.308 C574.720007,331.748007 573.220022,332.468 571.828016,332.468 C570.916011,332.468 570.148019,332.198003 569.524016,331.658 C568.900012,331.117997 568.588016,330.380005 568.588016,329.444 C568.588016,326.923987 571.14399,325.220004 576.256016,324.332 C576.256016,322.915993 576.100017,321.932003 575.788016,321.38 C575.476014,320.827997 574.82802,320.552 573.844016,320.552 C573.364013,320.552 572.902018,320.707998 572.458016,321.02 C572.014013,321.332002 571.792016,321.751997 571.792016,322.28 C571.792016,322.640002 571.672017,322.939999 571.432016,323.18 C571.192014,323.420001 570.904017,323.54 570.568016,323.54 C570.208014,323.54 569.908017,323.420001 569.668016,323.18 C569.428014,322.939999 569.308016,322.640002 569.308016,322.28 C569.308016,321.439996 569.770011,320.750003 570.694016,320.21 C571.61802,319.669997 572.68001,319.4 573.880016,319.4 C575.632024,319.4 576.892012,319.783996 577.660016,320.552 C578.428019,321.320004 578.812016,322.567991 578.812016,324.296 L578.812016,329.732 C578.812016,330.668005 579.088013,331.136 579.640016,331.136 C579.952017,331.136 580.288014,330.956002 580.648016,330.596 L581.152016,331.28 Z M576.256016,329.12 L576.256016,325.448 C572.943999,326.216004 571.288016,327.403992 571.288016,329.012 C571.288016,329.564003 571.450014,330.007998 571.774016,330.344 C572.098017,330.680002 572.500013,330.848 572.980016,330.848 C573.86802,330.848 574.960009,330.272006 576.256016,329.12 Z M588.496017,332 L580.252017,332 L580.252017,331.244 C581.452023,331.244 582.226015,330.992003 582.574017,330.488 C582.922018,329.983997 583.096017,328.832009 583.096017,327.032 L583.096017,315.656 C583.096017,313.855991 582.922018,312.704003 582.574017,312.2 C582.226015,311.695997 581.452023,311.444 580.252017,311.444 L580.252017,310.688 L585.652017,309.788 L585.652017,327.032 C585.652017,328.832009 585.826015,329.983997 586.174017,330.488 C586.522018,330.992003 587.296011,331.244 588.496017,331.244 L588.496017,332 Z" id="Voltage-Source-&lt;-Jun-Copy" fill="#524740"></path>
            <g id="Potential-Plates" transform="translate(334.000000, 228.000000)">
                <g id="VS">
                    <path d="M29,14.5 L29,47.5" id="Line-2-Copy" stroke="#3D3530" stroke-width="3" stroke-linecap="square"></path>
                    <path d="M54,14.5 L54,47.5" id="Line-2-Copy-2" stroke="#3D3530" stroke-width="3" stroke-linecap="square"></path>
                    <path d="M17,5.5 L17,54.5" id="Line-2-Copy" stroke="#3D3530" stroke-width="3" stroke-linecap="square"></path>
                    <path d="M42,5.5 L42,54.5" id="Line-2-Copy-3" stroke="#3D3530" stroke-width="3" stroke-linecap="square"></path>
                    <rect id="Combined-Shape" fill="#524740" x="61" y="5" width="9" height="1"></rect>
                    <path d="M4,4 L4,0 L5,0 L5,4 L9,4 L9,5 L5,5 L5,9 L4,9 L4,5 L0,5 L0,4 L4,4 Z" id="Combined-Shape" fill="#524740"></path>
                </g>
            </g>
            <g id="Anode" transform="translate(0.000000, 82.000000)">
                <rect id="Rectangle" fill="#3D3530" x="205" y="0" width="7" height="80"></rect>
                <polyline id="Path-8" stroke="#3D3530" stroke-width="3" points="206.880017 39.9008336 14.880017 39.9008336 14.880017 176.5 350.45316 176.5"></polyline>
                <g id="Anode-Hole-Flow" transform="translate(20.000000, 46.000000)" fill="#84D0EF">
                    <circle id="Oval-Copy-92" cx="163.25" cy="3.25" r="3.25"></circle>
                    <circle id="Oval-Copy-91" cx="143.25" cy="3.25" r="3.25"></circle>
                    <circle id="Oval-Copy-90" cx="123.25" cy="3.25" r="3.25"></circle>
                    <circle id="Oval-Copy-89" cx="103.25" cy="3.25" r="3.25"></circle>
                    <circle id="Oval-Copy-88" cx="83.25" cy="3.25" r="3.25"></circle>
                    <circle id="Oval-Copy-87" cx="63.25" cy="3.25" r="3.25"></circle>
                    <circle id="Oval-Copy-86" cx="43.25" cy="3.25" r="3.25"></circle>
                    <circle id="Oval-Copy-85" cx="23.25" cy="3.25" r="3.25"></circle>
                    <circle id="Oval-Copy-84" cx="3.25" cy="3.25" r="3.25"></circle>
                    <circle id="Oval-Copy-68" cx="3.25" cy="103.25" r="3.25"></circle>
                    <circle id="Oval-Copy-69" cx="3.25" cy="83.25" r="3.25"></circle>
                    <circle id="Oval-Copy-70" cx="3.25" cy="63.25" r="3.25"></circle>
                    <circle id="Oval-Copy-71" cx="3.25" cy="43.25" r="3.25"></circle>
                    <circle id="Oval-Copy-72" cx="3.25" cy="23.25" r="3.25"></circle>
                    <circle id="Oval-Copy-67" cx="303.25" cy="123.25" r="3.25"></circle>
                    <circle id="Oval-Copy-44" cx="23.25" cy="123.25" r="3.25"></circle>
                    <circle id="Oval-Copy-66" cx="3.25" cy="123.25" r="3.25"></circle>
                    <circle id="Oval-Copy-50" cx="43.25" cy="123.25" r="3.25"></circle>
                    <circle id="Oval-Copy-51" cx="63.25" cy="123.25" r="3.25"></circle>
                    <circle id="Oval-Copy-52" cx="83.25" cy="123.25" r="3.25"></circle>
                    <circle id="Oval-Copy-53" cx="103.25" cy="123.25" r="3.25"></circle>
                    <circle id="Oval-Copy-54" cx="123.25" cy="123.25" r="3.25"></circle>
                    <circle id="Oval-Copy-55" cx="143.25" cy="123.25" r="3.25"></circle>
                    <circle id="Oval-Copy-56" cx="163.25" cy="123.25" r="3.25"></circle>
                    <circle id="Oval-Copy-57" cx="183.25" cy="123.25" r="3.25"></circle>
                    <circle id="Oval-Copy-58" cx="203.25" cy="123.25" r="3.25"></circle>
                    <circle id="Oval-Copy-59" cx="223.25" cy="123.25" r="3.25"></circle>
                    <circle id="Oval-Copy-60" cx="243.25" cy="123.25" r="3.25"></circle>
                    <circle id="Oval-Copy-61" cx="263.25" cy="123.25" r="3.25"></circle>
                    <circle id="Oval-Copy-62" cx="283.25" cy="123.25" r="3.25"></circle>
                </g>
            </g>
            <g id="Cathode" transform="translate(388.000000, 83.000000)">
                <rect id="Rectangle" fill="#3D3530" x="140" y="0" width="7" height="80"></rect>
                <polyline id="Path-8" stroke="#3D3530" stroke-width="3" points="0 176.5 333.880017 176.5 333.880017 39.9008336 141.880017 39.9008336"></polyline>
                <g id="Cathode-Electron-Flow" transform="translate(22.000000, 25.000000)" fill="#EF7D3B">
                    <circle id="Oval-Copy-44" cx="23.25" cy="163.25" r="3.25"></circle>
                    <circle id="Oval-Copy-66" cx="3.25" cy="163.25" r="3.25"></circle>
                    <circle id="Oval-Copy-50" cx="43.25" cy="163.25" r="3.25"></circle>
                    <circle id="Oval-Copy-51" cx="63.25" cy="163.25" r="3.25"></circle>
                    <circle id="Oval-Copy-52" cx="83.25" cy="163.25" r="3.25"></circle>
                    <circle id="Oval-Copy-53" cx="103.25" cy="163.25" r="3.25"></circle>
                    <circle id="Oval-Copy-54" cx="123.25" cy="163.25" r="3.25"></circle>
                    <circle id="Oval-Copy-55" cx="143.25" cy="163.25" r="3.25"></circle>
                    <circle id="Oval-Copy-56" cx="163.25" cy="163.25" r="3.25"></circle>
                    <circle id="Oval-Copy-57" cx="183.25" cy="163.25" r="3.25"></circle>
                    <circle id="Oval-Copy-58" cx="203.25" cy="163.25" r="3.25"></circle>
                    <circle id="Oval-Copy-59" cx="223.25" cy="163.25" r="3.25"></circle>
                    <circle id="Oval-Copy-60" cx="243.25" cy="163.25" r="3.25"></circle>
                    <circle id="Oval-Copy-61" cx="263.25" cy="163.25" r="3.25"></circle>
                    <circle id="Oval-Copy-62" cx="283.25" cy="163.25" r="3.25"></circle>
                    <circle id="Oval-Copy-63" cx="303.25" cy="163.25" r="3.25"></circle>
                    <circle id="Oval-Copy-64" cx="323.25" cy="163.25" r="3.25"></circle>
                    <circle id="Oval-Copy-65" cx="323.25" cy="163.25" r="3.25"></circle>
                    <circle id="Oval-Copy-67" cx="323.25" cy="143.25" r="3.25"></circle>
                    <circle id="Oval-Copy-68" cx="323.25" cy="123.25" r="3.25"></circle>
                    <circle id="Oval-Copy-69" cx="323.25" cy="103.25" r="3.25"></circle>
                    <circle id="Oval-Copy-70" cx="323.25" cy="83.25" r="3.25"></circle>
                    <circle id="Oval-Copy-71" cx="323.25" cy="63.25" r="3.25"></circle>
                    <circle id="Oval-Copy-72" cx="323.25" cy="43.25" r="3.25"></circle>
                    <circle id="Oval-Copy-73" cx="323.25" cy="23.25" r="3.25"></circle>
                    <circle id="Oval-Copy-74" cx="323.25" cy="3.25" r="3.25"></circle>
                    <circle id="Oval-Copy-75" cx="303.25" cy="3.25" r="3.25"></circle>
                    <circle id="Oval-Copy-76" cx="283.25" cy="3.25" r="3.25"></circle>
                    <circle id="Oval-Copy-77" cx="263.25" cy="3.25" r="3.25"></circle>
                    <circle id="Oval-Copy-78" cx="243.25" cy="3.25" r="3.25"></circle>
                    <circle id="Oval-Copy-79" cx="223.25" cy="3.25" r="3.25"></circle>
                    <circle id="Oval-Copy-80" cx="203.25" cy="3.25" r="3.25"></circle>
                    <circle id="Oval-Copy-81" cx="183.25" cy="3.25" r="3.25"></circle>
                    <circle id="Oval-Copy-82" cx="163.25" cy="3.25" r="3.25"></circle>
                    <circle id="Oval-Copy-83" cx="143.25" cy="3.25" r="3.25"></circle>
                </g>
            </g>
        </g>
        <path d="M29.02,22.184 L18.004,22.184 L18.004,30.752 L25.6,30.752 L25.6,33.128 L18.004,33.128 L18.004,44 L15.628,44 L15.628,19.808 L29.02,19.808 L29.02,22.184 Z M42.520001,41.552 C40.719992,43.3760091 38.5360138,44.288 35.968001,44.288 C33.3999882,44.288 31.2100101,43.3820091 29.398001,41.57 C27.5859919,39.7579909 26.680001,37.5680128 26.680001,35 C26.680001,32.4319872 27.5859919,30.2420091 29.398001,28.43 C31.2100101,26.6179909 33.3999882,25.712 35.968001,25.712 C38.5360138,25.712 40.7259919,26.6179909 42.538001,28.43 C44.3500101,30.2420091 45.256001,32.4319872 45.256001,35 C45.256001,37.5440127 44.3440101,39.7279909 42.520001,41.552 Z M36.004001,42.02 C37.9480107,42.02 39.5859943,41.3420068 40.918001,39.986 C42.2500077,38.6299932 42.916001,36.9680098 42.916001,35 C42.916001,33.0319902 42.2500077,31.3640068 40.918001,29.996 C39.5859943,28.6279932 37.9480107,27.944 36.004001,27.944 C34.0839914,27.944 32.4520077,28.6279932 31.108001,29.996 C29.7639943,31.3640068 29.092001,33.0319902 29.092001,35 C29.092001,36.9680098 29.7639943,38.6299932 31.108001,39.986 C32.4520077,41.3420068 34.0839914,42.02 36.004001,42.02 Z M54.796002,25.712 C56.0680084,25.712 57.2319967,26.0239969 58.288002,26.648 L57.460002,29.024 C56.451997,28.2799963 55.4320072,27.908 54.400002,27.908 C52.8879944,27.908 51.6160072,28.4419947 50.584002,29.51 C49.5519968,30.5780053 49.036002,31.8919922 49.036002,33.452 L49.036002,44 L46.660002,44 L46.660002,26 L49.036002,26 L49.036002,28.664 C50.5000093,26.6959902 52.4199901,25.712 54.796002,25.712 Z M83.092003,26 L85.468003,26 L79.096003,44 L76.720003,44 L71.644003,29.168 L66.568003,44 L64.192003,44 L57.856003,26 L60.232003,26 L65.380003,40.652 L70.564003,26 L72.724003,26 L77.908003,40.652 L83.092003,26 Z M100.804004,26 L103.180004,26 L103.180004,44 L100.804004,44 L100.804004,41.084 C98.9559948,43.2200107 96.6160182,44.288 93.784004,44.288 C91.2159912,44.288 89.0260131,43.3820091 87.214004,41.57 C85.4019949,39.7579909 84.496004,37.5680128 84.496004,35 C84.496004,32.4319872 85.4019949,30.2420091 87.214004,28.43 C89.0260131,26.6179909 91.2159912,25.712 93.784004,25.712 C96.6400183,25.712 98.9799949,26.7799893 100.804004,28.916 L100.804004,26 Z M93.820004,42.02 C95.7640137,42.02 97.4019973,41.3420068 98.734004,39.986 C100.066011,38.6299932 100.732004,36.9680098 100.732004,35 C100.732004,33.0319902 100.066011,31.3700068 98.734004,30.014 C97.4019973,28.6579932 95.7640137,27.98 93.820004,27.98 C91.8999944,27.98 90.2620108,28.6579932 88.906004,30.014 C87.5499972,31.3700068 86.872004,33.0319902 86.872004,35 C86.872004,36.9680098 87.5499972,38.6299932 88.906004,39.986 C90.2620108,41.3420068 91.8999944,42.02 93.820004,42.02 Z M114.016005,25.712 C115.288011,25.712 116.452,26.0239969 117.508005,26.648 L116.680005,29.024 C115.672,28.2799963 114.65201,27.908 113.620005,27.908 C112.107997,27.908 110.83601,28.4419947 109.804005,29.51 C108.772,30.5780053 108.256005,31.8919922 108.256005,33.452 L108.256005,44 L105.880005,44 L105.880005,26 L108.256005,26 L108.256005,28.664 C109.720012,26.6959902 111.639993,25.712 114.016005,25.712 Z M132.340006,17.216 L134.716006,17.216 L134.716006,44 L132.340006,44 L132.340006,41.084 C130.491997,43.2200107 128.15202,44.288 125.320006,44.288 C122.751993,44.288 120.562015,43.3820091 118.750006,41.57 C116.937997,39.7579909 116.032006,37.5680128 116.032006,35 C116.032006,32.4319872 116.937997,30.2420091 118.750006,28.43 C120.562015,26.6179909 122.751993,25.712 125.320006,25.712 C128.17602,25.712 130.515997,26.7799893 132.340006,28.916 L132.340006,17.216 Z M120.424006,40.004 C121.768013,41.3480067 123.411996,42.02 125.356006,42.02 C127.300016,42.02 128.937999,41.3420068 130.270006,39.986 C131.602013,38.6299932 132.268006,36.9680098 132.268006,35 C132.268006,33.0319902 131.602013,31.3700068 130.270006,30.014 C128.937999,28.6579932 127.300016,27.98 125.356006,27.98 C123.411996,27.98 121.768013,28.6579932 120.424006,30.014 C119.079999,31.3700068 118.408006,33.0319902 118.408006,35 C118.408006,36.9680098 119.079999,38.6359932 120.424006,40.004 Z M145.408008,44 L145.408008,19.808 L153.616008,19.808 C156.328022,19.808 158.488,20.4439936 160.096008,21.716 C161.704016,22.9880064 162.508008,24.5719905 162.508008,26.468 C162.508008,27.6440059 162.154012,28.7119952 161.446008,29.672 C160.738004,30.6320048 159.748014,31.3759974 158.476008,31.904 C159.748014,32.4320026 160.738004,33.1759952 161.446008,34.136 C162.154012,35.0960048 162.508008,36.175994 162.508008,37.376 C162.508008,39.2720095 161.704016,40.8499937 160.096008,42.11 C158.488,43.3700063 156.328022,44 153.616008,44 L145.408008,44 Z M147.784008,30.896 L153.616008,30.896 C155.560018,30.896 157.120002,30.4760042 158.296008,29.636 C159.472014,28.7959958 160.060008,27.7520062 160.060008,26.504 C160.060008,25.2319936 159.472014,24.1760042 158.296008,23.336 C157.120002,22.4959958 155.560018,22.076 153.616008,22.076 L147.784008,22.076 L147.784008,30.896 Z M147.784008,41.732 L153.616008,41.732 C155.560018,41.732 157.120002,41.3120042 158.296008,40.472 C159.472014,39.6319958 160.060008,38.5760064 160.060008,37.304 C160.060008,36.0559938 159.472014,35.0120042 158.296008,34.172 C157.120002,33.3319958 155.560018,32.912 153.616008,32.912 L147.784008,32.912 L147.784008,41.732 Z M167.584009,20.6 C167.320008,20.8880014 166.984011,21.032 166.576009,21.032 C166.168007,21.032 165.82601,20.8880014 165.550009,20.6 C165.274008,20.3119986 165.136009,19.9760019 165.136009,19.592 C165.136009,19.2079981 165.274008,18.8720014 165.550009,18.584 C165.82601,18.2959986 166.168007,18.152 166.576009,18.152 C166.984011,18.152 167.326008,18.2959986 167.602009,18.584 C167.87801,18.8720014 168.016009,19.2079981 168.016009,19.592 C168.016009,19.9760019 167.87201,20.3119986 167.584009,20.6 Z M165.388009,44 L165.388009,26 L167.764009,26 L167.764009,44 L165.388009,44 Z M186.12401,26 L188.50001,26 L188.50001,44 L186.12401,44 L186.12401,41.084 C184.276001,43.2200107 181.936024,44.288 179.10401,44.288 C176.535997,44.288 174.346019,43.3820091 172.53401,41.57 C170.722001,39.7579909 169.81601,37.5680128 169.81601,35 C169.81601,32.4319872 170.722001,30.2420091 172.53401,28.43 C174.346019,26.6179909 176.535997,25.712 179.10401,25.712 C181.960024,25.712 184.300001,26.7799893 186.12401,28.916 L186.12401,26 Z M179.14001,42.02 C181.08402,42.02 182.722003,41.3420068 184.05401,39.986 C185.386017,38.6299932 186.05201,36.9680098 186.05201,35 C186.05201,33.0319902 185.386017,31.3700068 184.05401,30.014 C182.722003,28.6579932 181.08402,27.98 179.14001,27.98 C177.22,27.98 175.582017,28.6579932 174.22601,30.014 C172.870003,31.3700068 172.19201,33.0319902 172.19201,35 C172.19201,36.9680098 172.870003,38.6299932 174.22601,39.986 C175.582017,41.3420068 177.22,42.02 179.14001,42.02 Z M197.500011,44.288 C196.684007,44.288 195.892015,44.186001 195.124011,43.982 C194.356007,43.777999 193.714014,43.5380014 193.198011,43.262 C192.682008,42.9859986 192.220013,42.7040014 191.812011,42.416 C191.404009,42.1279986 191.104012,41.888001 190.912011,41.696 L190.624011,41.372 L192.316011,39.932 C192.484012,40.1000008 192.71801,40.3039988 193.018011,40.544 C193.318013,40.7840012 193.924006,41.107998 194.836011,41.516 C195.748016,41.924002 196.648007,42.128 197.536011,42.128 C198.856018,42.128 199.912007,41.8760025 200.704011,41.372 C201.496015,40.8679975 201.892011,40.1600046 201.892011,39.248 C201.892011,38.5999968 201.496015,38.0420023 200.704011,37.574 C199.912007,37.1059977 198.952017,36.7040017 197.824011,36.368 C196.696005,36.0319983 195.562017,35.660002 194.422011,35.252 C193.282005,34.843998 192.316015,34.2680037 191.524011,33.524 C190.732007,32.7799963 190.336011,31.8680054 190.336011,30.788 C190.336011,29.2999926 190.894005,28.0820047 192.010011,27.134 C193.126017,26.1859953 194.776,25.712 196.960011,25.712 C198.256017,25.712 199.480005,25.9519976 200.632011,26.432 C201.784017,26.9120024 202.612008,27.3919976 203.116011,27.872 L203.872011,28.592 L202.180011,30.068 C202.01201,29.8999992 201.778013,29.6960012 201.478011,29.456 C201.17801,29.2159988 200.572016,28.892002 199.660011,28.484 C198.748006,28.075998 197.836016,27.872 196.924011,27.872 C195.628005,27.872 194.578015,28.1239975 193.774011,28.628 C192.970007,29.1320025 192.568011,29.8399954 192.568011,30.752 C192.568011,31.4000032 192.964007,31.9579977 193.756011,32.426 C194.548015,32.8940023 195.508005,33.2959983 196.636011,33.632 C197.764017,33.9680017 198.898005,34.333998 200.038011,34.73 C201.178017,35.126002 202.144007,35.7019962 202.936011,36.458 C203.728015,37.2140038 204.124011,38.1319946 204.124011,39.212 C204.124011,40.7240076 203.572017,41.9479953 202.468011,42.884 C201.364005,43.8200047 199.708022,44.288 197.500011,44.288 Z" id="Forward-Bias-Copy" fill="#23ABE3"></path>
    </g>
</svg>