<?xml version="1.0" encoding="UTF-8"?>
<svg width="900px" height="350px" viewBox="0 0 900 350" version="1.1" xmlns="http://www.w3.org/2000/svg" xmlns:xlink="http://www.w3.org/1999/xlink">
    <!-- Generator: Sketch 52.5 (67469) - http://www.bohemiancoding.com/sketch -->
    <title>Diode_Forward_Behavior</title>
    <desc>Created with Sketch.</desc>
    <g id="Diode_Forward_Behavior" stroke="none" stroke-width="1" fill="none" fill-rule="evenodd">
        <rect id="Rectangle" stroke="#3D3530" stroke-width="2" fill="#EEEEEE" x="1" y="1" width="898" height="528"></rect>
        <g id="Illustration" transform="translate(112.000000, 22.000000)">
            <g id="Labels" transform="translate(171.000000, 0.000000)">
                <path d="M14.832,16.736 L14.352,16.736 C14.2239994,16.1119969 13.9520021,15.6560014 13.536,15.368 C12.2239934,16.7280068 10.7360083,17.408 9.072,17.408 C7.03998984,17.408 5.3040072,16.6640074 3.864,15.176 C2.4239928,13.6879926 1.704,11.8960105 1.704,9.8 C1.704,7.70398952 2.4239928,5.91200744 3.864,4.424 C5.3040072,2.93599256 7.03998984,2.192 9.072,2.192 C10.7680085,2.192 12.2559936,2.8719932 13.536,4.232 C13.9680022,3.89599832 14.2399994,3.44000288 14.352,2.864 L14.832,2.864 L14.832,8.144 L14.352,8.144 C14.0159983,6.55999208 13.3960045,5.3280044 12.492,4.448 C11.5879955,3.5679956 10.4800066,3.128 9.168,3.128 C8.25599544,3.128 7.44800352,3.33199796 6.744,3.74 C6.03999648,4.14800204 5.49200196,4.68799664 5.1,5.36 C4.70799804,6.03200336 4.41600096,6.74399624 4.224,7.496 C4.03199904,8.24800376 3.936,9.01599608 3.936,9.8 C3.936,10.5840039 4.03199904,11.3519962 4.224,12.104 C4.41600096,12.8560038 4.70799804,13.5639967 5.1,14.228 C5.49200196,14.8920033 6.03999648,15.427998 6.744,15.836 C7.44800352,16.244002 8.25599544,16.448 9.168,16.448 C10.4800066,16.448 11.5879955,16.0040044 12.492,15.116 C13.3960045,14.2279956 14.0159983,13.0080078 14.352,11.456 L14.832,11.456 L14.832,16.736 Z M29.68,16.808 L26.464,17.408 C26.3359994,17.1519987 26.2080006,16.6400038 26.08,15.872 C25.087995,16.8960051 24.0400055,17.408 22.936,17.408 C20.9519901,17.408 19.96,16.208012 19.96,13.808 L19.96,12.296 C19.96,11.095994 19.8440012,10.3280017 19.612,9.992 C19.3799988,9.65599832 18.864004,9.488 18.064,9.488 L18.064,9.008 L21.664,9.008 L21.664,13.688 C21.664,15.4000086 22.2719939,16.256 23.488,16.256 C24.0320027,16.256 24.599997,16.0280023 25.192,15.572 C25.784003,15.1159977 26.08,14.5520034 26.08,13.88 L26.08,12.296 C26.08,11.095994 25.9640012,10.3280017 25.732,9.992 C25.4999988,9.65599832 24.9760041,9.488 24.16,9.488 L24.16,9.008 L27.76,9.008 L27.76,13.496 C27.76,14.696006 27.8759988,15.4639983 28.108,15.8 C28.3400012,16.1360017 28.8639959,16.304 29.68,16.304 L29.68,16.808 Z M40.064,10.088 C40.064,10.8400038 39.7440032,11.216 39.104,11.216 C38.8799989,11.216 38.6840008,11.1280009 38.516,10.952 C38.3479992,10.7759991 38.264,10.5760011 38.264,10.352 C38.264,9.82399736 38.0080026,9.56 37.496,9.56 C37.1279982,9.56 36.7280022,9.81599744 36.296,10.328 C35.8639978,10.8400026 35.648,11.5199958 35.648,12.368 L35.648,13.688 C35.648,14.888006 35.7639988,15.6559983 35.996,15.992 C36.2280012,16.3280017 36.743996,16.496 37.544,16.496 L37.544,17 L32.048,17 L32.048,16.496 C32.848004,16.496 33.3639988,16.3280017 33.596,15.992 C33.8280012,15.6559983 33.944,14.888006 33.944,13.688 L33.944,12.488 C33.944,11.3039941 33.8280012,10.5440017 33.596,10.208 C33.3639988,9.87199832 32.848004,9.704 32.048,9.704 L32.048,9.2 L35.24,8.6 C35.3840007,8.90400152 35.5199994,9.47999576 35.648,10.328 C35.8880012,9.8479976 36.2479976,9.44000168 36.728,9.104 C37.2080024,8.76799832 37.6879976,8.6 38.168,8.6 C38.776003,8.6 39.2439984,8.7599984 39.572,9.08 C39.9000016,9.4000016 40.064,9.73599824 40.064,10.088 Z M50.496,10.088 C50.496,10.8400038 50.1760032,11.216 49.536,11.216 C49.3119989,11.216 49.1160008,11.1280009 48.948,10.952 C48.7799992,10.7759991 48.696,10.5760011 48.696,10.352 C48.696,9.82399736 48.4400026,9.56 47.928,9.56 C47.5599982,9.56 47.1600022,9.81599744 46.728,10.328 C46.2959978,10.8400026 46.08,11.5199958 46.08,12.368 L46.08,13.688 C46.08,14.888006 46.1959988,15.6559983 46.428,15.992 C46.6600012,16.3280017 47.175996,16.496 47.976,16.496 L47.976,17 L42.48,17 L42.48,16.496 C43.280004,16.496 43.7959988,16.3280017 44.028,15.992 C44.2600012,15.6559983 44.376,14.888006 44.376,13.688 L44.376,12.488 C44.376,11.3039941 44.2600012,10.5440017 44.028,10.208 C43.7959988,9.87199832 43.280004,9.704 42.48,9.704 L42.48,9.2 L45.672,8.6 C45.8160007,8.90400152 45.9519994,9.47999576 46.08,10.328 C46.3200012,9.8479976 46.6799976,9.44000168 47.16,9.104 C47.6400024,8.76799832 48.1199976,8.6 48.6,8.6 C49.208003,8.6 49.6759984,8.7599984 50.004,9.08 C50.3320016,9.4000016 50.496,9.73599824 50.496,10.088 Z M54.808,11.504 L58.792,11.504 C58.9520008,11.0559978 58.8840015,10.6200021 58.588,10.196 C58.2919985,9.77199788 57.7840036,9.56 57.064,9.56 C56.5519974,9.56 56.092002,9.73599824 55.684,10.088 C55.275998,10.4400018 54.9840009,10.911997 54.808,11.504 Z M54.664,12.392 C54.5199993,13.5760059 54.7079974,14.5399963 55.228,15.284 C55.7480026,16.0280037 56.5999941,16.4 57.784,16.4 C58.184002,16.4 58.6399974,16.296001 59.152,16.088 C59.6640026,15.879999 60.0879983,15.6160016 60.424,15.296 L60.856,15.824 C60.4239978,16.2880023 59.8720034,16.6679985 59.2,16.964 C58.5279966,17.2600015 57.8560034,17.408 57.184,17.408 C55.8879935,17.408 54.8240042,16.9800043 53.992,16.124 C53.1599958,15.2679957 52.744,14.2240062 52.744,12.992 C52.744,11.7599938 53.1959955,10.7200042 54.1,9.872 C55.0040045,9.02399576 56.0319942,8.6 57.184,8.6 C58.2720054,8.6 59.1599966,8.9799962 59.848,9.74 C60.5360034,10.5000038 60.7360014,11.383995 60.448,12.392 L54.664,12.392 Z M67.232,10.328 C68.1440046,9.17599424 69.2559934,8.6 70.568,8.6 C71.6080052,8.6 72.3879974,8.92799672 72.908,9.584 C73.4280026,10.2400033 73.688,11.1039946 73.688,12.176 L73.688,13.688 C73.688,14.888006 73.8039988,15.6559983 74.036,15.992 C74.2680012,16.3280017 74.783996,16.496 75.584,16.496 L75.584,17 L70.088,17 L70.088,16.496 C70.8720039,16.496 71.3839988,16.3240017 71.624,15.98 C71.8640012,15.6359983 71.984,14.8720059 71.984,13.688 L71.984,12.296 C71.984,10.5839914 71.3200066,9.728 69.992,9.728 C69.3039966,9.728 68.6720029,9.9679976 68.096,10.448 C67.5199971,10.9280024 67.232,11.4879968 67.232,12.128 L67.232,13.688 C67.232,14.9200062 67.327999,15.6959984 67.52,16.016 C67.712001,16.3360016 68.1759963,16.496 68.912,16.496 L68.912,17 L63.632,17 L63.632,16.496 C64.432004,16.496 64.9479988,16.3280017 65.18,15.992 C65.4120012,15.6559983 65.528,14.888006 65.528,13.688 L65.528,12.488 C65.528,11.3039941 65.4120012,10.5440017 65.18,10.208 C64.9479988,9.87199832 64.432004,9.704 63.632,9.704 L63.632,9.2 L66.824,8.6 C66.9680007,8.90400152 67.1039994,9.47999576 67.232,10.328 Z M78.96,9.848 L77.712,9.848 L77.712,9.272 C78.4000034,9.12799928 78.9039984,8.8160024 79.224,8.336 C79.5440016,7.8559976 79.7519995,7.20000416 79.848,6.368 L80.664,6.368 L80.664,9.008 L82.752,9.008 L82.752,9.848 L80.664,9.848 L80.664,14.648 C80.664,15.8000058 81.0239964,16.376 81.744,16.376 C82.2080023,16.376 82.7279971,16.1040027 83.304,15.56 L83.712,15.968 C83.3759983,16.368002 82.9720024,16.6959987 82.5,16.952 C82.0279976,17.2080013 81.592002,17.336 81.192,17.336 C80.5039966,17.336 79.960002,17.1120022 79.56,16.664 C79.159998,16.2159978 78.96,15.5440045 78.96,14.648 L78.96,9.848 Z" id="Current-Copy" fill="#524740"></path>
                <path d="M313.696,205.104 C312.751995,205.104 312.140001,205.219999 311.86,205.452 C311.579999,205.684001 311.240002,206.263995 310.84,207.192 L305.56,219.408 L305.248,219.408 L299.944,207.192 C299.543998,206.263995 299.204001,205.684001 298.924,205.452 C298.643999,205.219999 298.032005,205.104 297.088,205.104 L297.088,204.6 L303.736,204.6 L303.736,205.104 C302.743995,205.104 302.108001,205.243999 301.828,205.524 C301.547999,205.804001 301.559998,206.271997 301.864,206.928 L305.944,216.264 L309.976,206.928 C310.280002,206.271997 310.292001,205.804001 310.012,205.524 C309.731999,205.243999 309.096005,205.104 308.104,205.104 L308.104,204.6 L313.696,204.6 L313.696,205.104 Z M321.824,211.896 C322.784005,212.744004 323.264,213.775994 323.264,214.992 C323.264,216.208006 322.788005,217.247996 321.836,218.112 C320.883995,218.976004 319.744007,219.408 318.416,219.408 C317.087993,219.408 315.948005,218.976004 314.996,218.112 C314.043995,217.247996 313.568,216.208006 313.568,214.992 C313.568,213.775994 314.043995,212.740004 314.996,211.884 C315.948005,211.027996 317.087993,210.6 318.416,210.6 C319.744007,210.6 320.879995,211.031996 321.824,211.896 Z M320.576,217.512 C321.072002,216.855997 321.32,216.016005 321.32,214.992 C321.32,213.967995 321.072002,213.132003 320.576,212.484 C320.079998,211.835997 319.360005,211.512 318.416,211.512 C317.471995,211.512 316.752002,211.839997 316.256,212.496 C315.759998,213.152003 315.512,213.983995 315.512,214.992 C315.512,216.000005 315.759998,216.831997 316.256,217.488 C316.752002,218.144003 317.471995,218.472 318.416,218.472 C319.360005,218.472 320.079998,218.152003 320.576,217.512 Z M331.368,219 L325.872,219 L325.872,218.496 C326.672004,218.496 327.187999,218.328002 327.42,217.992 C327.652001,217.655998 327.768,216.888006 327.768,215.688 L327.768,208.104 C327.768,206.903994 327.652001,206.136002 327.42,205.8 C327.187999,205.463998 326.672004,205.296 325.872,205.296 L325.872,204.792 L329.472,204.192 L329.472,215.688 C329.472,216.888006 329.587999,217.655998 329.82,217.992 C330.052001,218.328002 330.567996,218.496 331.368,218.496 L331.368,219 Z M334.768,211.848 L333.52,211.848 L333.52,211.272 C334.208003,211.127999 334.711998,210.816002 335.032,210.336 C335.352002,209.855998 335.56,209.200004 335.656,208.368 L336.472,208.368 L336.472,211.008 L338.56,211.008 L338.56,211.848 L336.472,211.848 L336.472,216.648 C336.472,217.800006 336.831996,218.376 337.552,218.376 C338.016002,218.376 338.535997,218.104003 339.112,217.56 L339.52,217.968 C339.183998,218.368002 338.780002,218.695999 338.308,218.952 C337.835998,219.208001 337.400002,219.336 337,219.336 C336.311997,219.336 335.768002,219.112002 335.368,218.664 C334.967998,218.215998 334.768,217.544004 334.768,216.648 L334.768,211.848 Z M350.216,218.52 C349.751998,219.016002 349.224003,219.264 348.632,219.264 C347.671995,219.264 347.128001,218.800005 347,217.872 C345.927995,218.832005 344.928005,219.312 344,219.312 C343.391997,219.312 342.880002,219.132002 342.464,218.772 C342.047998,218.411998 341.84,217.920003 341.84,217.296 C341.84,215.615992 343.543983,214.480003 346.952,213.888 C346.952,212.943995 346.848001,212.288002 346.64,211.92 C346.431999,211.551998 346.000003,211.368 345.344,211.368 C345.023998,211.368 344.716001,211.471999 344.42,211.68 C344.123999,211.888001 343.976,212.167998 343.976,212.52 C343.976,212.760001 343.896001,212.959999 343.736,213.12 C343.575999,213.280001 343.384001,213.36 343.16,213.36 C342.919999,213.36 342.720001,213.280001 342.56,213.12 C342.399999,212.959999 342.32,212.760001 342.32,212.52 C342.32,211.959997 342.627997,211.500002 343.244,211.14 C343.860003,210.779998 344.567996,210.6 345.368,210.6 C346.536006,210.6 347.375997,210.855997 347.888,211.368 C348.400003,211.880003 348.656,212.711994 348.656,213.864 L348.656,217.488 C348.656,218.112003 348.839998,218.424 349.208,218.424 C349.416001,218.424 349.639999,218.304001 349.88,218.064 L350.216,218.52 Z M346.952,217.08 L346.952,214.632 C344.743989,215.144003 343.64,215.935995 343.64,217.008 C343.64,217.376002 343.747999,217.671999 343.964,217.896 C344.180001,218.120001 344.447998,218.232 344.768,218.232 C345.360003,218.232 346.087996,217.848004 346.952,217.08 Z M357.456,215.664 C357.760002,215.199998 357.912,214.600004 357.912,213.864 C357.912,213.127996 357.764001,212.528002 357.468,212.064 C357.171999,211.599998 356.744003,211.368 356.184,211.368 C355.623997,211.368 355.192002,211.599998 354.888,212.064 C354.583998,212.528002 354.432,213.127996 354.432,213.864 C354.432,214.600004 354.583998,215.195998 354.888,215.652 C355.192002,216.108002 355.623997,216.336 356.184,216.336 C356.744003,216.336 357.167999,216.112002 357.456,215.664 Z M353.952,218.136 C353.952,218.616002 354.679993,218.919999 356.136,219.048 C357.672008,219.176001 358.783997,219.527997 359.472,220.104 C360.160003,220.680003 360.504,221.375996 360.504,222.192 C360.504,223.168005 360.100004,223.947997 359.292,224.532 C358.483996,225.116003 357.472006,225.408 356.256,225.408 C354.959994,225.408 353.916004,225.140003 353.124,224.604 C352.331996,224.067997 351.968,223.440004 352.032,222.72 C352.096,221.999996 352.607995,221.392002 353.568,220.896 L354,221.16 C353.535998,221.688003 353.288,222.171998 353.256,222.612 C353.224,223.052002 353.363998,223.399999 353.676,223.656 C353.988002,223.912001 354.371998,224.111999 354.828,224.256 C355.284002,224.400001 355.759998,224.472 356.256,224.472 C357.040004,224.472 357.731997,224.300002 358.332,223.956 C358.932003,223.611998 359.232,223.168003 359.232,222.624 C359.232,222.095997 358.972003,221.712001 358.452,221.472 C357.931997,221.231999 357.120006,221.056001 356.016,220.944 C353.743989,220.719999 352.608,219.976006 352.608,218.712 C352.608,217.847996 353.279993,217.208002 354.624,216.792 C353.999997,216.503999 353.508002,216.104003 353.148,215.592 C352.787998,215.079997 352.608,214.504003 352.608,213.864 C352.608,212.967996 352.955997,212.200003 353.652,211.56 C354.348003,210.919997 355.191995,210.6 356.184,210.6 C357.144005,210.6 357.967997,210.903997 358.656,211.512 C358.864001,211.255999 359.147998,211.040001 359.508,210.864 C359.868002,210.687999 360.183999,210.6 360.456,210.6 C361.160004,210.6 361.607999,210.895997 361.8,211.488 C361.944001,211.936002 361.872001,212.271999 361.584,212.496 C361.488,212.576 361.376001,212.616 361.248,212.616 C361.007999,212.632 360.828001,212.584001 360.708,212.472 C360.587999,212.359999 360.516,212.236001 360.492,212.1 C360.468,211.963999 360.404001,211.836001 360.3,211.716 C360.195999,211.595999 360.032001,211.536 359.808,211.536 C359.567999,211.536 359.320001,211.663999 359.064,211.92 C359.528002,212.480003 359.76,213.127996 359.76,213.864 C359.76,214.712004 359.448003,215.439997 358.824,216.048 C358.199997,216.656003 357.472004,217.015999 356.64,217.128 C354.847991,217.336001 353.952,217.671998 353.952,218.136 Z M365.968,213.504 L369.952,213.504 C370.112001,213.055998 370.044001,212.620002 369.748,212.196 C369.451999,211.771998 368.944004,211.56 368.224,211.56 C367.711997,211.56 367.252002,211.735998 366.844,212.088 C366.435998,212.440002 366.144001,212.911997 365.968,213.504 Z M365.824,214.392 C365.679999,215.576006 365.867997,216.539996 366.388,217.284 C366.908003,218.028004 367.759994,218.4 368.944,218.4 C369.344002,218.4 369.799997,218.296001 370.312,218.088 C370.824003,217.879999 371.247998,217.616002 371.584,217.296 L372.016,217.824 C371.583998,218.288002 371.032003,218.667999 370.36,218.964 C369.687997,219.260001 369.016003,219.408 368.344,219.408 C367.047994,219.408 365.984004,218.980004 365.152,218.124 C364.319996,217.267996 363.904,216.224006 363.904,214.992 C363.904,213.759994 364.355995,212.720004 365.26,211.872 C366.164005,211.023996 367.191994,210.6 368.344,210.6 C369.432005,210.6 370.319997,210.979996 371.008,211.74 C371.696003,212.500004 371.896001,213.383995 371.608,214.392 L365.824,214.392 Z" id="Voltage-Copy" fill="#524740"></path>
                <path d="M178.756,123.272 L178.756,115.814 C178.756,114.713994 178.635001,114.013668 178.393,113.713 C178.150999,113.412332 177.575338,113.262 176.666,113.262 L176.666,112.8 L181.682,112.8 L181.682,113.262 C180.772662,113.262 180.193335,113.412332 179.944,113.713 C179.694665,114.013668 179.57,114.713994 179.57,115.814 L179.57,126.374 L179.064,126.374 L170.11,115.308 L170.11,122.964 C170.11,124.064006 170.234665,124.767998 170.484,125.076 C170.733335,125.384002 171.312662,125.538 172.222,125.538 L172.222,126 L167.206,126 L167.206,125.538 C168.115338,125.538 168.690999,125.384002 168.933,125.076 C169.175001,124.767998 169.296,124.064006 169.296,122.964 L169.296,115.814 C169.296,114.713994 169.175001,114.013668 168.933,113.713 C168.690999,113.412332 168.115338,113.262 167.206,113.262 L167.206,112.8 L170.308,112.8 L178.756,123.272 Z M190.834,125.56 C190.408665,126.014669 189.924669,126.242 189.382,126.242 C188.501996,126.242 188.003334,125.816671 187.886,124.966 C186.903328,125.846004 185.986671,126.286 185.136,126.286 C184.578664,126.286 184.109335,126.121002 183.728,125.791 C183.346665,125.460998 183.156,125.010003 183.156,124.438 C183.156,122.897992 184.717984,121.856669 187.842,121.314 C187.842,120.448662 187.746668,119.847335 187.556,119.51 C187.365332,119.172665 186.969336,119.004 186.368,119.004 C186.074665,119.004 185.792335,119.099332 185.521,119.29 C185.249665,119.480668 185.114,119.737332 185.114,120.06 C185.114,120.280001 185.040667,120.463333 184.894,120.61 C184.747333,120.756667 184.571334,120.83 184.366,120.83 C184.145999,120.83 183.962667,120.756667 183.816,120.61 C183.669333,120.463333 183.596,120.280001 183.596,120.06 C183.596,119.546664 183.878331,119.125002 184.443,118.795 C185.007669,118.464998 185.656663,118.3 186.39,118.3 C187.460672,118.3 188.230664,118.534664 188.7,119.004 C189.169336,119.473336 189.404,120.235995 189.404,121.292 L189.404,124.614 C189.404,125.186003 189.572665,125.472 189.91,125.472 C190.100668,125.472 190.305999,125.362001 190.526,125.142 L190.834,125.56 Z M187.842,124.24 L187.842,121.996 C185.81799,122.465336 184.806,123.191328 184.806,124.174 C184.806,124.511335 184.904999,124.782666 185.103,124.988 C185.301001,125.193334 185.546665,125.296 185.84,125.296 C186.382669,125.296 187.049996,124.944004 187.842,124.24 Z M199.37,119.664 C199.37,120.353337 199.07667,120.698 198.49,120.698 C198.284666,120.698 198.105001,120.617334 197.951,120.456 C197.796999,120.294666 197.72,120.111334 197.72,119.906 C197.72,119.421998 197.485336,119.18 197.016,119.18 C196.678665,119.18 196.312002,119.414664 195.916,119.884 C195.519998,120.353336 195.322,120.976663 195.322,121.754 L195.322,122.964 C195.322,124.064006 195.428332,124.767998 195.641,125.076 C195.853668,125.384002 196.326663,125.538 197.06,125.538 L197.06,126 L192.022,126 L192.022,125.538 C192.755337,125.538 193.228332,125.384002 193.441,125.076 C193.653668,124.767998 193.76,124.064006 193.76,122.964 L193.76,121.864 C193.76,120.778661 193.653668,120.082002 193.441,119.774 C193.228332,119.465998 192.755337,119.312 192.022,119.312 L192.022,118.85 L194.948,118.3 C195.080001,118.578668 195.204666,119.106663 195.322,119.884 C195.542001,119.443998 195.871998,119.070002 196.312,118.762 C196.752002,118.453998 197.191998,118.3 197.632,118.3 C198.189336,118.3 198.618332,118.446665 198.919,118.74 C199.219668,119.033335 199.37,119.341332 199.37,119.664 Z M208.016,119.664 C208.016,120.353337 207.72267,120.698 207.136,120.698 C206.930666,120.698 206.751001,120.617334 206.597,120.456 C206.442999,120.294666 206.366,120.111334 206.366,119.906 C206.366,119.421998 206.131336,119.18 205.662,119.18 C205.324665,119.18 204.958002,119.414664 204.562,119.884 C204.165998,120.353336 203.968,120.976663 203.968,121.754 L203.968,122.964 C203.968,124.064006 204.074332,124.767998 204.287,125.076 C204.499668,125.384002 204.972663,125.538 205.706,125.538 L205.706,126 L200.668,126 L200.668,125.538 C201.401337,125.538 201.874332,125.384002 202.087,125.076 C202.299668,124.767998 202.406,124.064006 202.406,122.964 L202.406,121.864 C202.406,120.778661 202.299668,120.082002 202.087,119.774 C201.874332,119.465998 201.401337,119.312 200.668,119.312 L200.668,118.85 L203.594,118.3 C203.726001,118.578668 203.850666,119.106663 203.968,119.884 C204.188001,119.443998 204.517998,119.070002 204.958,118.762 C205.398002,118.453998 205.837998,118.3 206.278,118.3 C206.835336,118.3 207.264332,118.446665 207.565,118.74 C207.865668,119.033335 208.016,119.341332 208.016,119.664 Z M217.102,119.488 C217.982004,120.265337 218.422,121.211328 218.422,122.326 C218.422,123.440672 217.985671,124.393996 217.113,125.186 C216.240329,125.978004 215.195339,126.374 213.978,126.374 C212.760661,126.374 211.715671,125.978004 210.843,125.186 C209.970329,124.393996 209.534,123.440672 209.534,122.326 C209.534,121.211328 209.970329,120.261671 210.843,119.477 C211.715671,118.692329 212.760661,118.3 213.978,118.3 C215.195339,118.3 216.236662,118.695996 217.102,119.488 Z M215.958,124.636 C216.412669,124.034664 216.64,123.264671 216.64,122.326 C216.64,121.387329 216.412669,120.621003 215.958,120.027 C215.503331,119.432997 214.843338,119.136 213.978,119.136 C213.112662,119.136 212.452669,119.436664 211.998,120.038 C211.543331,120.639336 211.316,121.401995 211.316,122.326 C211.316,123.250005 211.543331,124.012664 211.998,124.614 C212.452669,125.215336 213.112662,125.516 213.978,125.516 C214.843338,125.516 215.503331,125.22267 215.958,124.636 Z M225.682,121.314 L223.79,126.396 L223.35,126.396 L220.754,120.412 C220.548666,119.927998 220.332334,119.590668 220.105,119.4 C219.877666,119.209332 219.595335,119.114 219.258,119.114 L219.258,118.674 L223.24,118.674 L223.24,119.114 C222.330662,119.114 222.066665,119.546662 222.448,120.412 L223.944,123.844 L225.726,118.674 L226.21,118.674 L228.454,123.844 L229.642,120.412 C229.950002,119.546662 229.737337,119.114 229.004,119.114 L229.004,118.674 L232.084,118.674 L232.084,119.114 C231.687998,119.114 231.372668,119.209332 231.138,119.4 C230.903332,119.590668 230.698001,119.927998 230.522,120.412 L228.3,126.396 L227.86,126.396 L225.682,121.314 Z M244.228,125.186 C245.137338,125.186 245.833998,124.914669 246.318,124.372 C246.802002,123.829331 247.044,123.140004 247.044,122.304 C247.044,121.453329 246.802002,120.753003 246.318,120.203 C245.833998,119.652997 245.137338,119.378 244.228,119.378 L241.566,119.378 L241.566,122.634 C241.566,123.734005 241.686999,124.434332 241.929,124.735 C242.171001,125.035668 242.746662,125.186 243.656,125.186 L244.228,125.186 Z M241.566,113.614 L241.566,118.564 L243.524,118.564 C244.316004,118.564 244.917331,118.333002 245.328,117.871 C245.738669,117.408998 245.944,116.81867 245.944,116.1 C245.944,115.38133 245.738669,114.787336 245.328,114.318 C244.917331,113.848664 244.316004,113.614 243.524,113.614 L241.566,113.614 Z M246.164,118.828 C247.014671,119.092001 247.696664,119.53933 248.21,120.17 C248.723336,120.80067 248.98,121.511996 248.98,122.304 C248.98,123.374672 248.562004,124.25833 247.726,124.955 C246.889996,125.65167 245.731341,126 244.25,126 L237.716,126 L237.716,125.538 C238.625338,125.538 239.200999,125.384002 239.443,125.076 C239.685001,124.767998 239.806,124.064006 239.806,122.964 L239.806,115.814 C239.806,114.713994 239.685001,114.013668 239.443,113.713 C239.200999,113.412332 238.625338,113.262 237.716,113.262 L237.716,112.8 L243.634,112.8 C244.98334,112.8 246.02833,113.111664 246.769,113.735 C247.50967,114.358336 247.88,115.146662 247.88,116.1 C247.88,117.244006 247.308006,118.15333 246.164,118.828 Z M258.77,125.56 C258.344665,126.014669 257.860669,126.242 257.318,126.242 C256.437996,126.242 255.939334,125.816671 255.822,124.966 C254.839328,125.846004 253.922671,126.286 253.072,126.286 C252.514664,126.286 252.045335,126.121002 251.664,125.791 C251.282665,125.460998 251.092,125.010003 251.092,124.438 C251.092,122.897992 252.653984,121.856669 255.778,121.314 C255.778,120.448662 255.682668,119.847335 255.492,119.51 C255.301332,119.172665 254.905336,119.004 254.304,119.004 C254.010665,119.004 253.728335,119.099332 253.457,119.29 C253.185665,119.480668 253.05,119.737332 253.05,120.06 C253.05,120.280001 252.976667,120.463333 252.83,120.61 C252.683333,120.756667 252.507334,120.83 252.302,120.83 C252.081999,120.83 251.898667,120.756667 251.752,120.61 C251.605333,120.463333 251.532,120.280001 251.532,120.06 C251.532,119.546664 251.814331,119.125002 252.379,118.795 C252.943669,118.464998 253.592663,118.3 254.326,118.3 C255.396672,118.3 256.166664,118.534664 256.636,119.004 C257.105336,119.473336 257.34,120.235995 257.34,121.292 L257.34,124.614 C257.34,125.186003 257.508665,125.472 257.846,125.472 C258.036668,125.472 258.241999,125.362001 258.462,125.142 L258.77,125.56 Z M255.778,124.24 L255.778,121.996 C253.75399,122.465336 252.742,123.191328 252.742,124.174 C252.742,124.511335 252.840999,124.782666 253.039,124.988 C253.237001,125.193334 253.482665,125.296 253.776,125.296 C254.318669,125.296 254.985996,124.944004 255.778,124.24 Z M263.258,119.884 C264.094004,118.827995 265.113327,118.3 266.316,118.3 C267.269338,118.3 267.984331,118.600664 268.461,119.202 C268.937669,119.803336 269.176,120.595328 269.176,121.578 L269.176,122.964 C269.176,124.064006 269.282332,124.767998 269.495,125.076 C269.707668,125.384002 270.180663,125.538 270.914,125.538 L270.914,126 L265.876,126 L265.876,125.538 C266.59467,125.538 267.063999,125.380335 267.284,125.065 C267.504001,124.749665 267.614,124.049339 267.614,122.964 L267.614,121.688 C267.614,120.118659 267.005339,119.334 265.788,119.334 C265.15733,119.334 264.578003,119.553998 264.05,119.994 C263.521997,120.434002 263.258,120.94733 263.258,121.534 L263.258,122.964 C263.258,124.093339 263.345999,124.804665 263.522,125.098 C263.698001,125.391335 264.12333,125.538 264.798,125.538 L264.798,126 L259.958,126 L259.958,125.538 C260.691337,125.538 261.164332,125.384002 261.377,125.076 C261.589668,124.767998 261.696,124.064006 261.696,122.964 L261.696,121.864 C261.696,120.778661 261.589668,120.082002 261.377,119.774 C261.164332,119.465998 260.691337,119.312 259.958,119.312 L259.958,118.85 L262.884,118.3 C263.016001,118.578668 263.140666,119.106663 263.258,119.884 Z M278.9,123.756 L278.9,120.918 C278.694666,120.389997 278.394002,119.968335 277.998,119.653 C277.601998,119.337665 277.162002,119.18 276.678,119.18 C275.856663,119.18 275.233335,119.47333 274.808,120.06 C274.382665,120.64667 274.17,121.401995 274.17,122.326 C274.17,123.264671 274.382665,124.02733 274.808,124.614 C275.233335,125.20067 275.856663,125.494 276.678,125.494 C277.162002,125.494 277.601998,125.336335 277.998,125.021 C278.394002,124.705665 278.694666,124.284003 278.9,123.756 Z M278.9,119.598 L278.9,116.012 C278.9,114.911995 278.793668,114.208002 278.581,113.9 C278.368332,113.591998 277.895337,113.438 277.162,113.438 L277.162,112.976 L280.462,112.426 L280.462,122.788 C280.462,123.888005 280.568332,124.591998 280.781,124.9 C280.993668,125.208002 281.466663,125.362 282.2,125.362 L282.2,125.824 L279.274,126.374 C279.171333,126.153999 279.054001,125.70667 278.922,125.032 C278.20333,125.926671 277.301339,126.374 276.216,126.374 C275.174661,126.374 274.276337,125.978004 273.521,125.186 C272.765663,124.393996 272.388,123.440672 272.388,122.326 C272.388,121.211328 272.765663,120.261671 273.521,119.477 C274.276337,118.692329 275.174661,118.3 276.216,118.3 C277.301339,118.3 278.195996,118.732662 278.9,119.598 Z M296.368,119.488 C297.248004,120.265337 297.688,121.211328 297.688,122.326 C297.688,123.440672 297.251671,124.393996 296.379,125.186 C295.506329,125.978004 294.461339,126.374 293.244,126.374 C292.026661,126.374 290.981671,125.978004 290.109,125.186 C289.236329,124.393996 288.8,123.440672 288.8,122.326 C288.8,121.211328 289.236329,120.261671 290.109,119.477 C290.981671,118.692329 292.026661,118.3 293.244,118.3 C294.461339,118.3 295.502662,118.695996 296.368,119.488 Z M295.224,124.636 C295.678669,124.034664 295.906,123.264671 295.906,122.326 C295.906,121.387329 295.678669,120.621003 295.224,120.027 C294.769331,119.432997 294.109338,119.136 293.244,119.136 C292.378662,119.136 291.718669,119.436664 291.264,120.038 C290.809331,120.639336 290.582,121.401995 290.582,122.326 C290.582,123.250005 290.809331,124.012664 291.264,124.614 C291.718669,125.215336 292.378662,125.516 293.244,125.516 C294.109338,125.516 294.769331,125.22267 295.224,124.636 Z M302.88,119.444 L302.88,122.964 C302.88,124.064006 302.986332,124.767998 303.199,125.076 C303.411668,125.384002 303.884663,125.538 304.618,125.538 L304.618,126 L299.58,126 L299.58,125.538 C300.313337,125.538 300.786332,125.384002 300.999,125.076 C301.211668,124.767998 301.318,124.064006 301.318,122.964 L301.318,119.444 L299.514,119.444 L299.514,118.674 L301.318,118.674 L301.318,116.562 C301.318,115.16866 301.66633,114.131003 302.363,113.449 C303.05967,112.766997 303.913995,112.426 304.926,112.426 C305.60067,112.426 306.135998,112.598332 306.532,112.943 C306.928002,113.287668 307.126,113.657998 307.126,114.054 C307.126,114.288668 307.063667,114.479333 306.939,114.626 C306.814333,114.772667 306.634668,114.846 306.4,114.846 C306.165332,114.846 305.982001,114.758001 305.85,114.582 C305.717999,114.405999 305.63,114.211668 305.586,113.999 C305.542,113.786332 305.432001,113.592001 305.256,113.416 C305.079999,113.239999 304.838002,113.152 304.53,113.152 C303.957997,113.152 303.540001,113.412331 303.276,113.933 C303.011999,114.453669 302.88,115.329994 302.88,116.562 L302.88,118.674 L305.08,118.674 L305.08,119.444 L302.88,119.444 Z M175.995,147.758 L175.555,147.758 C175.437666,147.185997 175.188335,146.768001 174.807,146.504 C173.604327,147.750673 172.240341,148.374 170.715,148.374 C168.852324,148.374 167.261007,147.692007 165.941,146.328 C164.620993,144.963993 163.961,143.321343 163.961,141.4 C163.961,139.478657 164.620993,137.836007 165.941,136.472 C167.261007,135.107993 168.852324,134.426 170.715,134.426 C172.269674,134.426 173.633661,135.049327 174.807,136.296 C175.203002,135.987998 175.452333,135.570003 175.555,135.042 L175.995,135.042 L175.995,139.882 L175.555,139.882 C175.246998,138.429993 174.678671,137.300671 173.85,136.494 C173.021329,135.687329 172.005673,135.284 170.803,135.284 C169.966996,135.284 169.226337,135.470998 168.581,135.845 C167.935663,136.219002 167.433335,136.713997 167.074,137.33 C166.714665,137.946003 166.447001,138.598663 166.271,139.288 C166.094999,139.977337 166.007,140.68133 166.007,141.4 C166.007,142.11867 166.094999,142.822663 166.271,143.512 C166.447001,144.201337 166.714665,144.85033 167.074,145.459 C167.433335,146.06767 167.935663,146.558998 168.581,146.933 C169.226337,147.307002 169.966996,147.494 170.803,147.494 C172.005673,147.494 173.021329,147.087004 173.85,146.273 C174.678671,145.458996 175.246998,144.340674 175.555,142.918 L175.995,142.918 L175.995,147.758 Z M188.689,147.824 L185.741,148.374 C185.623666,148.139332 185.506334,147.670004 185.389,146.966 C184.479662,147.904671 183.519005,148.374 182.507,148.374 C180.688324,148.374 179.779,147.274011 179.779,145.074 L179.779,143.688 C179.779,142.587995 179.672668,141.884002 179.46,141.576 C179.247332,141.267998 178.774337,141.114 178.041,141.114 L178.041,140.674 L181.341,140.674 L181.341,144.964 C181.341,146.533341 181.898328,147.318 183.013,147.318 C183.511669,147.318 184.032331,147.109002 184.575,146.691 C185.117669,146.272998 185.389,145.756003 185.389,145.14 L185.389,143.688 C185.389,142.587995 185.282668,141.884002 185.07,141.576 C184.857332,141.267998 184.377004,141.114 183.629,141.114 L183.629,140.674 L186.929,140.674 L186.929,144.788 C186.929,145.888005 187.035332,146.591998 187.248,146.9 C187.460668,147.208002 187.940996,147.362 188.689,147.362 L188.689,147.824 Z M197.291,141.664 C197.291,142.353337 196.99767,142.698 196.411,142.698 C196.205666,142.698 196.026001,142.617334 195.872,142.456 C195.717999,142.294666 195.641,142.111334 195.641,141.906 C195.641,141.421998 195.406336,141.18 194.937,141.18 C194.599665,141.18 194.233002,141.414664 193.837,141.884 C193.440998,142.353336 193.243,142.976663 193.243,143.754 L193.243,144.964 C193.243,146.064006 193.349332,146.767998 193.562,147.076 C193.774668,147.384002 194.247663,147.538 194.981,147.538 L194.981,148 L189.943,148 L189.943,147.538 C190.676337,147.538 191.149332,147.384002 191.362,147.076 C191.574668,146.767998 191.681,146.064006 191.681,144.964 L191.681,143.864 C191.681,142.778661 191.574668,142.082002 191.362,141.774 C191.149332,141.465998 190.676337,141.312 189.943,141.312 L189.943,140.85 L192.869,140.3 C193.001001,140.578668 193.125666,141.106663 193.243,141.884 C193.463001,141.443998 193.792998,141.070002 194.233,140.762 C194.673002,140.453998 195.112998,140.3 195.553,140.3 C196.110336,140.3 196.539332,140.446665 196.84,140.74 C197.140668,141.033335 197.291,141.341332 197.291,141.664 Z M205.937,141.664 C205.937,142.353337 205.64367,142.698 205.057,142.698 C204.851666,142.698 204.672001,142.617334 204.518,142.456 C204.363999,142.294666 204.287,142.111334 204.287,141.906 C204.287,141.421998 204.052336,141.18 203.583,141.18 C203.245665,141.18 202.879002,141.414664 202.483,141.884 C202.086998,142.353336 201.889,142.976663 201.889,143.754 L201.889,144.964 C201.889,146.064006 201.995332,146.767998 202.208,147.076 C202.420668,147.384002 202.893663,147.538 203.627,147.538 L203.627,148 L198.589,148 L198.589,147.538 C199.322337,147.538 199.795332,147.384002 200.008,147.076 C200.220668,146.767998 200.327,146.064006 200.327,144.964 L200.327,143.864 C200.327,142.778661 200.220668,142.082002 200.008,141.774 C199.795332,141.465998 199.322337,141.312 198.589,141.312 L198.589,140.85 L201.515,140.3 C201.647001,140.578668 201.771666,141.106663 201.889,141.884 C202.109001,141.443998 202.438998,141.070002 202.879,140.762 C203.319002,140.453998 203.758998,140.3 204.199,140.3 C204.756336,140.3 205.185332,140.446665 205.486,140.74 C205.786668,141.033335 205.937,141.341332 205.937,141.664 Z M208.973,142.962 L212.625,142.962 C212.771667,142.551331 212.709335,142.151669 212.438,141.763 C212.166665,141.374331 211.701003,141.18 211.041,141.18 C210.571664,141.18 210.150002,141.341332 209.776,141.664 C209.401998,141.986668 209.134334,142.419331 208.973,142.962 Z M208.841,143.776 C208.708999,144.861339 208.881331,145.744997 209.358,146.427 C209.834669,147.109003 210.615661,147.45 211.701,147.45 C212.067669,147.45 212.485664,147.354668 212.955,147.164 C213.424336,146.973332 213.812998,146.731335 214.121,146.438 L214.517,146.922 C214.120998,147.347335 213.615003,147.695665 212.999,147.967 C212.382997,148.238335 211.767003,148.374 211.151,148.374 C209.962994,148.374 208.98767,147.981671 208.225,147.197 C207.46233,146.412329 207.081,145.455339 207.081,144.326 C207.081,143.196661 207.495329,142.243337 208.324,141.466 C209.152671,140.688663 210.094995,140.3 211.151,140.3 C212.148338,140.3 212.96233,140.64833 213.593,141.345 C214.22367,142.04167 214.407001,142.851995 214.143,143.776 L208.841,143.776 Z M219.445,141.884 C220.281004,140.827995 221.300327,140.3 222.503,140.3 C223.456338,140.3 224.171331,140.600664 224.648,141.202 C225.124669,141.803336 225.363,142.595328 225.363,143.578 L225.363,144.964 C225.363,146.064006 225.469332,146.767998 225.682,147.076 C225.894668,147.384002 226.367663,147.538 227.101,147.538 L227.101,148 L222.063,148 L222.063,147.538 C222.78167,147.538 223.250999,147.380335 223.471,147.065 C223.691001,146.749665 223.801,146.049339 223.801,144.964 L223.801,143.688 C223.801,142.118659 223.192339,141.334 221.975,141.334 C221.34433,141.334 220.765003,141.553998 220.237,141.994 C219.708997,142.434002 219.445,142.94733 219.445,143.534 L219.445,144.964 C219.445,146.093339 219.532999,146.804665 219.709,147.098 C219.885001,147.391335 220.31033,147.538 220.985,147.538 L220.985,148 L216.145,148 L216.145,147.538 C216.878337,147.538 217.351332,147.384002 217.564,147.076 C217.776668,146.767998 217.883,146.064006 217.883,144.964 L217.883,143.864 C217.883,142.778661 217.776668,142.082002 217.564,141.774 C217.351332,141.465998 216.878337,141.312 216.145,141.312 L216.145,140.85 L219.071,140.3 C219.203001,140.578668 219.327666,141.106663 219.445,141.884 Z M229.279,141.444 L228.135,141.444 L228.135,140.916 C228.76567,140.783999 229.227665,140.498002 229.521,140.058 C229.814335,139.617998 230.005,139.01667 230.093,138.254 L230.841,138.254 L230.841,140.674 L232.755,140.674 L232.755,141.444 L230.841,141.444 L230.841,145.844 C230.841,146.900005 231.170997,147.428 231.831,147.428 C232.256335,147.428 232.732997,147.178669 233.261,146.68 L233.635,147.054 C233.326998,147.420669 232.956669,147.721332 232.524,147.956 C232.091331,148.190668 231.691668,148.308 231.325,148.308 C230.69433,148.308 230.195669,148.102669 229.829,147.692 C229.462332,147.281331 229.279,146.665337 229.279,145.844 L229.279,141.444 Z M252.731,147.758 L252.291,147.758 C252.173666,147.185997 251.924335,146.768001 251.543,146.504 C250.340327,147.750673 248.976341,148.374 247.451,148.374 C245.588324,148.374 243.997007,147.692007 242.677,146.328 C241.356993,144.963993 240.697,143.321343 240.697,141.4 C240.697,139.478657 241.356993,137.836007 242.677,136.472 C243.997007,135.107993 245.588324,134.426 247.451,134.426 C249.005674,134.426 250.369661,135.049327 251.543,136.296 C251.939002,135.987998 252.188333,135.570003 252.291,135.042 L252.731,135.042 L252.731,139.882 L252.291,139.882 C251.982998,138.429993 251.414671,137.300671 250.586,136.494 C249.757329,135.687329 248.741673,135.284 247.539,135.284 C246.702996,135.284 245.962337,135.470998 245.317,135.845 C244.671663,136.219002 244.169335,136.713997 243.81,137.33 C243.450665,137.946003 243.183001,138.598663 243.007,139.288 C242.830999,139.977337 242.743,140.68133 242.743,141.4 C242.743,142.11867 242.830999,142.822663 243.007,143.512 C243.183001,144.201337 243.450665,144.85033 243.81,145.459 C244.169335,146.06767 244.671663,146.558998 245.317,146.933 C245.962337,147.307002 246.702996,147.494 247.539,147.494 C248.741673,147.494 249.757329,147.087004 250.586,146.273 C251.414671,145.458996 251.982998,144.340674 252.291,142.918 L252.731,142.918 L252.731,147.758 Z M262.983,141.488 C263.863004,142.265337 264.303,143.211328 264.303,144.326 C264.303,145.440672 263.866671,146.393996 262.994,147.186 C262.121329,147.978004 261.076339,148.374 259.859,148.374 C258.641661,148.374 257.596671,147.978004 256.724,147.186 C255.851329,146.393996 255.415,145.440672 255.415,144.326 C255.415,143.211328 255.851329,142.261671 256.724,141.477 C257.596671,140.692329 258.641661,140.3 259.859,140.3 C261.076339,140.3 262.117662,140.695996 262.983,141.488 Z M261.839,146.636 C262.293669,146.034664 262.521,145.264671 262.521,144.326 C262.521,143.387329 262.293669,142.621003 261.839,142.027 C261.384331,141.432997 260.724338,141.136 259.859,141.136 C258.993662,141.136 258.333669,141.436664 257.879,142.038 C257.424331,142.639336 257.197,143.401995 257.197,144.326 C257.197,145.250005 257.424331,146.012664 257.879,146.614 C258.333669,147.215336 258.993662,147.516 259.859,147.516 C260.724338,147.516 261.384331,147.22267 261.839,146.636 Z M269.495,141.884 C270.331004,140.827995 271.350327,140.3 272.553,140.3 C273.506338,140.3 274.221331,140.600664 274.698,141.202 C275.174669,141.803336 275.413,142.595328 275.413,143.578 L275.413,144.964 C275.413,146.064006 275.519332,146.767998 275.732,147.076 C275.944668,147.384002 276.417663,147.538 277.151,147.538 L277.151,148 L272.113,148 L272.113,147.538 C272.83167,147.538 273.300999,147.380335 273.521,147.065 C273.741001,146.749665 273.851,146.049339 273.851,144.964 L273.851,143.688 C273.851,142.118659 273.242339,141.334 272.025,141.334 C271.39433,141.334 270.815003,141.553998 270.287,141.994 C269.758997,142.434002 269.495,142.94733 269.495,143.534 L269.495,144.964 C269.495,146.093339 269.582999,146.804665 269.759,147.098 C269.935001,147.391335 270.36033,147.538 271.035,147.538 L271.035,148 L266.195,148 L266.195,147.538 C266.928337,147.538 267.401332,147.384002 267.614,147.076 C267.826668,146.767998 267.933,146.064006 267.933,144.964 L267.933,143.864 C267.933,142.778661 267.826668,142.082002 267.614,141.774 C267.401332,141.465998 266.928337,141.312 266.195,141.312 L266.195,140.85 L269.121,140.3 C269.253001,140.578668 269.377666,141.106663 269.495,141.884 Z M279.329,141.444 L278.185,141.444 L278.185,140.916 C278.81567,140.783999 279.277665,140.498002 279.571,140.058 C279.864335,139.617998 280.055,139.01667 280.143,138.254 L280.891,138.254 L280.891,140.674 L282.805,140.674 L282.805,141.444 L280.891,141.444 L280.891,145.844 C280.891,146.900005 281.220997,147.428 281.881,147.428 C282.306335,147.428 282.782997,147.178669 283.311,146.68 L283.685,147.054 C283.376998,147.420669 283.006669,147.721332 282.574,147.956 C282.141331,148.190668 281.741669,148.308 281.375,148.308 C280.74433,148.308 280.245669,148.102669 279.879,147.692 C279.512332,147.281331 279.329,146.665337 279.329,145.844 L279.329,141.444 Z M292.243,141.664 C292.243,142.353337 291.94967,142.698 291.363,142.698 C291.157666,142.698 290.978001,142.617334 290.824,142.456 C290.669999,142.294666 290.593,142.111334 290.593,141.906 C290.593,141.421998 290.358336,141.18 289.889,141.18 C289.551665,141.18 289.185002,141.414664 288.789,141.884 C288.392998,142.353336 288.195,142.976663 288.195,143.754 L288.195,144.964 C288.195,146.064006 288.301332,146.767998 288.514,147.076 C288.726668,147.384002 289.199663,147.538 289.933,147.538 L289.933,148 L284.895,148 L284.895,147.538 C285.628337,147.538 286.101332,147.384002 286.314,147.076 C286.526668,146.767998 286.633,146.064006 286.633,144.964 L286.633,143.864 C286.633,142.778661 286.526668,142.082002 286.314,141.774 C286.101332,141.465998 285.628337,141.312 284.895,141.312 L284.895,140.85 L287.821,140.3 C287.953001,140.578668 288.077666,141.106663 288.195,141.884 C288.415001,141.443998 288.744998,141.070002 289.185,140.762 C289.625002,140.453998 290.064998,140.3 290.505,140.3 C291.062336,140.3 291.491332,140.446665 291.792,140.74 C292.092668,141.033335 292.243,141.341332 292.243,141.664 Z M301.329,141.488 C302.209004,142.265337 302.649,143.211328 302.649,144.326 C302.649,145.440672 302.212671,146.393996 301.34,147.186 C300.467329,147.978004 299.422339,148.374 298.205,148.374 C296.987661,148.374 295.942671,147.978004 295.07,147.186 C294.197329,146.393996 293.761,145.440672 293.761,144.326 C293.761,143.211328 294.197329,142.261671 295.07,141.477 C295.942671,140.692329 296.987661,140.3 298.205,140.3 C299.422339,140.3 300.463662,140.695996 301.329,141.488 Z M300.185,146.636 C300.639669,146.034664 300.867,145.264671 300.867,144.326 C300.867,143.387329 300.639669,142.621003 300.185,142.027 C299.730331,141.432997 299.070338,141.136 298.205,141.136 C297.339662,141.136 296.679669,141.436664 296.225,142.038 C295.770331,142.639336 295.543,143.401995 295.543,144.326 C295.543,145.250005 295.770331,146.012664 296.225,146.614 C296.679669,147.215336 297.339662,147.516 298.205,147.516 C299.070338,147.516 299.730331,147.22267 300.185,146.636 Z M309.161,148 L304.123,148 L304.123,147.538 C304.856337,147.538 305.329332,147.384002 305.542,147.076 C305.754668,146.767998 305.861,146.064006 305.861,144.964 L305.861,138.012 C305.861,136.911994 305.754668,136.208002 305.542,135.9 C305.329332,135.591998 304.856337,135.438 304.123,135.438 L304.123,134.976 L307.423,134.426 L307.423,144.964 C307.423,146.064006 307.529332,146.767998 307.742,147.076 C307.954668,147.384002 308.427663,147.538 309.161,147.538 L309.161,148 Z" id="Narrow-Band-of-Curre-Copy" fill="#84705B"></path>
            </g>
            <g id="Graph-Lines" transform="translate(0.000000, 34.000000)">
                <rect id="Rectangle" fill="#CAEBF8" x="256" y="138" width="30" height="40"></rect>
                <path d="M213.352001,178.5 L439,178.5" id="Line-5" stroke="#3D3530" stroke-width="3" stroke-linecap="square"></path>
                <path d="M433,157 L433,151 L435,151 L435,157 L441,157 L441,159 L435,159 L435,165 L433,165 L433,159 L427,159 L427,157 L433,157 Z" id="Combined-Shape" fill="#3D3530"></path>
                <path d="M213.352001,0.5 L213.352001,233.912015" id="Line-6" stroke="#3D3530" stroke-width="3" stroke-linecap="square"></path>
                <path d="M256,139 L256,195.577368" id="Line-7" stroke="#23ABE3" stroke-width="2" stroke-linecap="square"></path>
                <path d="M286,139 L286,195.577368" id="Line-7-Copy" stroke="#23ABE3" stroke-width="2" stroke-linecap="square"></path>
                <path d="M301.933386,0.5 C301.321483,38.6660098 298.736833,70.1404484 294.850161,95.4013237 C286.211012,151.55026 271.138998,177 257,177 C236.5,177 225.482714,177 212.982714,177" id="Path-9" stroke="#EF7D3B" stroke-width="3"></path>
            </g>
            <path id="Line-8" d="M284.299914,165.640597 L312.828088,139.759369 L313.568718,139.087457 L314.912543,140.568718 L314.171912,141.240631 L285.643739,167.121858 L289.675213,171.565642 L274.602997,175.788 L280.26844,161.196813 L284.299914,165.640597 Z" fill="#84705B" fill-rule="nonzero"></path>
        </g>
        <rect id="Rectangle-Copy" stroke="#3D3530" stroke-width="2" fill="#F8FAE4" x="1" y="306" width="898" height="43"></rect>
        <path d="M492.063999,334 L492.063999,317.872 L495.711999,317.872 C498.368013,317.872 500.479992,318.639992 502.047999,320.176 C503.616007,321.712008 504.399999,323.631988 504.399999,325.936 C504.399999,328.224011 503.612007,330.139992 502.035999,331.684 C500.459992,333.228008 498.352013,334 495.711999,334 L492.063999,334 Z M493.647999,332.488 L495.711999,332.488 C497.82401,332.488 499.511993,331.868006 500.775999,330.628 C502.040006,329.387994 502.671999,327.824009 502.671999,325.936 C502.671999,324.047991 502.040006,322.484006 500.775999,321.244 C499.511993,320.003994 497.82401,319.384 495.711999,319.384 L493.647999,319.384 L493.647999,332.488 Z M509.506666,318.4 C509.330665,318.592001 509.106667,318.688 508.834666,318.688 C508.562665,318.688 508.334667,318.592001 508.150666,318.4 C507.966665,318.207999 507.874666,317.984001 507.874666,317.728 C507.874666,317.471999 507.966665,317.248001 508.150666,317.056 C508.334667,316.863999 508.562665,316.768 508.834666,316.768 C509.106667,316.768 509.334665,316.863999 509.518666,317.056 C509.702667,317.248001 509.794666,317.471999 509.794666,317.728 C509.794666,317.984001 509.698667,318.207999 509.506666,318.4 Z M508.042666,334 L508.042666,322 L509.626666,322 L509.626666,334 L508.042666,334 Z M523.661333,332.368 C522.461327,333.584006 521.005341,334.192 519.293333,334.192 C517.581324,334.192 516.121339,333.588006 514.913333,332.38 C513.705327,331.171994 513.101333,329.712009 513.101333,328 C513.101333,326.287991 513.705327,324.828006 514.913333,323.62 C516.121339,322.411994 517.581324,321.808 519.293333,321.808 C521.005341,321.808 522.465327,322.411994 523.673333,323.62 C524.881339,324.828006 525.485333,326.287991 525.485333,328 C525.485333,329.696008 524.877339,331.151994 523.661333,332.368 Z M519.317333,332.68 C520.613339,332.68 521.705328,332.228005 522.593333,331.324 C523.481337,330.419995 523.925333,329.312007 523.925333,328 C523.925333,326.687993 523.481337,325.576005 522.593333,324.664 C521.705328,323.751995 520.613339,323.296 519.317333,323.296 C518.037326,323.296 516.949337,323.751995 516.053333,324.664 C515.157328,325.576005 514.709333,326.687993 514.709333,328 C514.709333,329.312007 515.157328,330.419995 516.053333,331.324 C516.949337,332.228005 518.037326,332.68 519.317333,332.68 Z M538.775999,316.144 L540.359999,316.144 L540.359999,334 L538.775999,334 L538.775999,332.056 C537.543993,333.480007 535.984009,334.192 534.095999,334.192 C532.383991,334.192 530.924006,333.588006 529.715999,332.38 C528.507993,331.171994 527.903999,329.712009 527.903999,328 C527.903999,326.287991 528.507993,324.828006 529.715999,323.62 C530.924006,322.411994 532.383991,321.808 534.095999,321.808 C536.000009,321.808 537.559993,322.519993 538.775999,323.944 L538.775999,316.144 Z M530.831999,331.336 C531.728004,332.232004 532.823993,332.68 534.119999,332.68 C535.416006,332.68 536.507995,332.228005 537.395999,331.324 C538.284004,330.419995 538.727999,329.312007 538.727999,328 C538.727999,326.687993 538.284004,325.580005 537.395999,324.676 C536.507995,323.771995 535.416006,323.32 534.119999,323.32 C532.823993,323.32 531.728004,323.771995 530.831999,324.676 C529.935995,325.580005 529.487999,326.687993 529.487999,328 C529.487999,329.312007 529.935995,330.423995 530.831999,331.336 Z M549.786666,332.608 C550.858672,332.608 551.818662,332.304003 552.666666,331.696 C553.51467,331.087997 554.090665,330.376004 554.394666,329.56 L555.738666,330.04 C555.370664,331.048005 554.654671,331.975996 553.590666,332.824 C552.526661,333.672004 551.258674,334.088 549.786666,334.072 C548.442659,334.072 547.214672,333.656004 546.102666,332.824 C544.990661,331.991996 544.234668,330.928006 543.834666,329.632 C543.674665,329.103997 543.594666,328.528003 543.594666,327.904 C543.594666,326.175991 544.19466,324.712006 545.394666,323.512 C546.594672,322.311994 548.058658,321.704 549.786666,321.688 C551.354674,321.704 552.72266,322.231995 553.890666,323.272 C555.058672,324.312005 555.730665,325.599992 555.906666,327.136 C555.922666,327.216 555.930666,327.319999 555.930666,327.448 L545.442666,329.344 C545.714668,330.304005 546.258662,331.091997 547.074666,331.708 C547.89067,332.324003 548.794661,332.624 549.786666,332.608 Z M549.642666,323.152 C548.44266,323.168 547.41467,323.599996 546.558666,324.448 C545.702662,325.296004 545.242666,326.311994 545.178666,327.496 C545.178666,327.544 545.182666,327.627999 545.190666,327.748 C545.198666,327.868001 545.202666,327.968 545.202666,328.048 L554.130666,326.44 C553.826665,325.463995 553.25867,324.668003 552.426666,324.052 C551.594662,323.435997 550.666671,323.136 549.642666,323.152 Z M575.6,319.456 L568.256,319.456 L568.256,325.168 L573.32,325.168 L573.32,326.752 L568.256,326.752 L568.256,334 L566.672,334 L566.672,317.872 L575.6,317.872 L575.6,319.456 Z M586.706666,332.368 C585.50666,333.584006 584.050675,334.192 582.338666,334.192 C580.626658,334.192 579.166672,333.588006 577.958666,332.38 C576.75066,331.171994 576.146666,329.712009 576.146666,328 C576.146666,326.287991 576.75066,324.828006 577.958666,323.62 C579.166672,322.411994 580.626658,321.808 582.338666,321.808 C584.050675,321.808 585.51066,322.411994 586.718666,323.62 C587.926672,324.828006 588.530666,326.287991 588.530666,328 C588.530666,329.696008 587.922672,331.151994 586.706666,332.368 Z M582.362666,332.68 C583.658673,332.68 584.750662,332.228005 585.638666,331.324 C586.526671,330.419995 586.970666,329.312007 586.970666,328 C586.970666,326.687993 586.526671,325.576005 585.638666,324.664 C584.750662,323.751995 583.658673,323.296 582.362666,323.296 C581.08266,323.296 579.994671,323.751995 579.098666,324.664 C578.202662,325.576005 577.754666,326.687993 577.754666,328 C577.754666,329.312007 578.202662,330.419995 579.098666,331.324 C579.994671,332.228005 581.08266,332.68 582.362666,332.68 Z M596.997333,321.808 C597.845337,321.808 598.621329,322.015998 599.325333,322.432 L598.773333,324.016 C598.10133,323.519998 597.421336,323.272 596.733333,323.272 C595.725328,323.272 594.877336,323.627996 594.189333,324.34 C593.501329,325.052004 593.157333,325.927995 593.157333,326.968 L593.157333,334 L591.573333,334 L591.573333,322 L593.157333,322 L593.157333,323.776 C594.133338,322.463993 595.413325,321.808 596.997333,321.808 Z M617.968,322 L619.552,322 L615.304,334 L613.72,334 L610.336,324.112 L606.952,334 L605.368,334 L601.144,322 L602.728,322 L606.16,331.768 L609.616,322 L611.056,322 L614.512,331.768 L617.968,322 Z M631.882666,322 L633.466666,322 L633.466666,334 L631.882666,334 L631.882666,332.056 C630.65066,333.480007 629.090676,334.192 627.202666,334.192 C625.490658,334.192 624.030672,333.588006 622.822666,332.38 C621.61466,331.171994 621.010666,329.712009 621.010666,328 C621.010666,326.287991 621.61466,324.828006 622.822666,323.62 C624.030672,322.411994 625.490658,321.808 627.202666,321.808 C629.106676,321.808 630.66666,322.519993 631.882666,323.944 L631.882666,322 Z M627.226666,332.68 C628.522673,332.68 629.614662,332.228005 630.502666,331.324 C631.390671,330.419995 631.834666,329.312007 631.834666,328 C631.834666,326.687993 631.390671,325.580005 630.502666,324.676 C629.614662,323.771995 628.522673,323.32 627.226666,323.32 C625.94666,323.32 624.854671,323.771995 623.950666,324.676 C623.046662,325.580005 622.594666,326.687993 622.594666,328 C622.594666,329.312007 623.046662,330.419995 623.950666,331.324 C624.854671,332.228005 625.94666,332.68 627.226666,332.68 Z M642.797333,321.808 C643.645337,321.808 644.421329,322.015998 645.125333,322.432 L644.573333,324.016 C643.90133,323.519998 643.221336,323.272 642.533333,323.272 C641.525328,323.272 640.677336,323.627996 639.989333,324.34 C639.30133,325.052004 638.957333,325.927995 638.957333,326.968 L638.957333,334 L637.373333,334 L637.373333,322 L638.957333,322 L638.957333,323.776 C639.933338,322.463993 641.213325,321.808 642.797333,321.808 Z M657.12,316.144 L658.704,316.144 L658.704,334 L657.12,334 L657.12,332.056 C655.887993,333.480007 654.328009,334.192 652.44,334.192 C650.727991,334.192 649.268006,333.588006 648.06,332.38 C646.851994,331.171994 646.248,329.712009 646.248,328 C646.248,326.287991 646.851994,324.828006 648.06,323.62 C649.268006,322.411994 650.727991,321.808 652.44,321.808 C654.344009,321.808 655.903994,322.519993 657.12,323.944 L657.12,316.144 Z M649.176,331.336 C650.072004,332.232004 651.167993,332.68 652.464,332.68 C653.760006,332.68 654.851995,332.228005 655.74,331.324 C656.628004,330.419995 657.072,329.312007 657.072,328 C657.072,326.687993 656.628004,325.580005 655.74,324.676 C654.851995,323.771995 653.760006,323.32 652.464,323.32 C651.167993,323.32 650.072004,323.771995 649.176,324.676 C648.279995,325.580005 647.832,326.687993 647.832,328 C647.832,329.312007 648.279995,330.423995 649.176,331.336 Z M681.925333,317.872 L683.533333,317.872 L677.173333,334 L675.565333,334 L669.181333,317.872 L670.813333,317.872 L676.381333,331.96 L681.925333,317.872 Z M694.232,332.368 C693.031994,333.584006 691.576008,334.192 689.864,334.192 C688.151991,334.192 686.692006,333.588006 685.484,332.38 C684.275994,331.171994 683.672,329.712009 683.672,328 C683.672,326.287991 684.275994,324.828006 685.484,323.62 C686.692006,322.411994 688.151991,321.808 689.864,321.808 C691.576008,321.808 693.035994,322.411994 694.244,323.62 C695.452006,324.828006 696.056,326.287991 696.056,328 C696.056,329.696008 695.448006,331.151994 694.232,332.368 Z M689.888,332.68 C691.184006,332.68 692.275995,332.228005 693.164,331.324 C694.052004,330.419995 694.496,329.312007 694.496,328 C694.496,326.687993 694.052004,325.576005 693.164,324.664 C692.275995,323.751995 691.184006,323.296 689.888,323.296 C688.607993,323.296 687.520004,323.751995 686.624,324.664 C685.727995,325.576005 685.28,326.687993 685.28,328 C685.28,329.312007 685.727995,330.419995 686.624,331.324 C687.520004,332.228005 688.607993,332.68 689.888,332.68 Z M699.338666,334 L699.338666,316.144 L700.922666,316.144 L700.922666,334 L699.338666,334 Z M711.741333,331.312 L712.533333,332.536 C712.437333,332.664001 712.309334,332.815999 712.149333,332.992 C711.989332,333.168001 711.629336,333.411998 711.069333,333.724 C710.50933,334.036002 709.933336,334.192 709.341333,334.192 C708.333328,334.192 707.489336,333.892003 706.809333,333.292 C706.12933,332.691997 705.789333,331.824006 705.789333,330.688 L705.789333,323.44 L703.869333,323.44 L703.869333,321.976 L705.789333,321.976 L705.789333,318.184 L707.373333,317.992 L707.373333,321.976 L710.997333,321.976 L710.997333,323.44 L707.373333,323.44 L707.373333,330.328 C707.373333,331.064004 707.601331,331.647998 708.057333,332.08 C708.513335,332.512002 709.03733,332.728 709.629333,332.728 C709.997335,332.728 710.357331,332.616001 710.709333,332.392 C711.061335,332.167999 711.321332,331.948001 711.489333,331.732 C711.657334,331.515999 711.741333,331.376 711.741333,331.312 Z M724.864,322 L726.448,322 L726.448,334 L724.864,334 L724.864,332.056 C723.631994,333.480007 722.072009,334.192 720.184,334.192 C718.471991,334.192 717.012006,333.588006 715.804,332.38 C714.595994,331.171994 713.992,329.712009 713.992,328 C713.992,326.287991 714.595994,324.828006 715.804,323.62 C717.012006,322.411994 718.471991,321.808 720.184,321.808 C722.088009,321.808 723.647994,322.519993 724.864,323.944 L724.864,322 Z M720.208,332.68 C721.504006,332.68 722.595995,332.228005 723.484,331.324 C724.372004,330.419995 724.816,329.312007 724.816,328 C724.816,326.687993 724.372004,325.580005 723.484,324.676 C722.595995,323.771995 721.504006,323.32 720.208,323.32 C718.927993,323.32 717.836004,323.771995 716.932,324.676 C716.027995,325.580005 715.576,326.687993 715.576,328 C715.576,329.312007 716.027995,330.419995 716.932,331.324 C717.836004,332.228005 718.927993,332.68 720.208,332.68 Z M740.578666,322.024 L742.186666,322.024 L742.186666,332.968 C742.170666,334.712009 741.542673,336.171994 740.302666,337.348 C739.06266,338.524006 737.626675,339.112 735.994666,339.112 C734.506659,339.112 733.238672,338.716004 732.190666,337.924 C731.142661,337.131996 730.434668,336.240005 730.066666,335.248 L731.362666,334.6 C731.666668,335.416004 732.242662,336.127997 733.090666,336.736 C733.938671,337.344003 734.906661,337.648 735.994666,337.648 C737.274673,337.648 738.358662,337.180005 739.246666,336.244 C740.134671,335.307995 740.586666,334.216006 740.602666,332.968 L740.578666,332.968 L740.578666,332.08 C739.36266,333.504007 737.802676,334.216 735.898666,334.216 C734.186658,334.216 732.726672,333.612006 731.518666,332.404 C730.31066,331.195994 729.706666,329.736009 729.706666,328.024 C729.706666,326.311991 730.31066,324.852006 731.518666,323.644 C732.726672,322.435994 734.186658,321.832 735.898666,321.832 C737.786676,321.832 739.34666,322.543993 740.578666,323.968 L740.578666,322.024 Z M735.922666,332.728 C737.218673,332.728 738.310662,332.276005 739.198666,331.372 C740.086671,330.467995 740.530666,329.360007 740.530666,328.048 C740.530666,326.735993 740.086671,325.628005 739.198666,324.724 C738.310662,323.819995 737.218673,323.368 735.922666,323.368 C734.64266,323.368 733.554671,323.819995 732.658666,324.724 C731.762662,325.628005 731.314666,326.735993 731.314666,328.048 C731.314666,329.360007 731.762662,330.467995 732.658666,331.372 C733.554671,332.276005 734.64266,332.728 735.922666,332.728 Z M751.661333,332.608 C752.733338,332.608 753.693329,332.304003 754.541333,331.696 C755.389337,331.087997 755.965332,330.376004 756.269333,329.56 L757.613333,330.04 C757.245331,331.048005 756.529338,331.975996 755.465333,332.824 C754.401328,333.672004 753.13334,334.088 751.661333,334.072 C750.317326,334.072 749.089339,333.656004 747.977333,332.824 C746.865328,331.991996 746.109335,330.928006 745.709333,329.632 C745.549332,329.103997 745.469333,328.528003 745.469333,327.904 C745.469333,326.175991 746.069327,324.712006 747.269333,323.512 C748.469339,322.311994 749.933324,321.704 751.661333,321.688 C753.229341,321.704 754.597327,322.231995 755.765333,323.272 C756.933339,324.312005 757.605332,325.599992 757.781333,327.136 C757.797333,327.216 757.805333,327.319999 757.805333,327.448 L747.317333,329.344 C747.589334,330.304005 748.133329,331.091997 748.949333,331.708 C749.765337,332.324003 750.669328,332.624 751.661333,332.608 Z M751.517333,323.152 C750.317327,323.168 749.289337,323.599996 748.433333,324.448 C747.577329,325.296004 747.117333,326.311994 747.053333,327.496 C747.053333,327.544 747.057333,327.627999 747.065333,327.748 C747.073333,327.868001 747.077333,327.968 747.077333,328.048 L756.005333,326.44 C755.701332,325.463995 755.133337,324.668003 754.301333,324.052 C753.469329,323.435997 752.541338,323.136 751.517333,323.152 Z M768.546667,334 L768.546667,317.872 L774.018667,317.872 C775.826676,317.872 777.266661,318.347995 778.338667,319.3 C779.410672,320.252005 779.946667,321.447993 779.946667,322.888 C779.946667,323.960005 779.63067,324.911996 778.998667,325.744 C778.366663,326.576004 777.482672,327.167998 776.346667,327.52 L779.946667,334 L778.290667,334 L774.858667,327.856 L773.874667,327.904 L770.130667,327.904 L770.130667,334 L768.546667,334 Z M770.130667,326.392 L774.018667,326.392 C775.314673,326.392 776.354663,326.060003 777.138667,325.396 C777.92267,324.731997 778.314667,323.896005 778.314667,322.888 C778.314667,321.895995 777.92267,321.064003 777.138667,320.392 C776.354663,319.719997 775.314673,319.384 774.018667,319.384 L770.130667,319.384 L770.130667,326.392 Z M788.389333,332.608 C789.461339,332.608 790.421329,332.304003 791.269333,331.696 C792.117337,331.087997 792.693332,330.376004 792.997333,329.56 L794.341333,330.04 C793.973331,331.048005 793.257339,331.975996 792.193333,332.824 C791.129328,333.672004 789.861341,334.088 788.389333,334.072 C787.045326,334.072 785.817339,333.656004 784.705333,332.824 C783.593328,331.991996 782.837335,330.928006 782.437333,329.632 C782.277332,329.103997 782.197333,328.528003 782.197333,327.904 C782.197333,326.175991 782.797327,324.712006 783.997333,323.512 C785.197339,322.311994 786.661325,321.704 788.389333,321.688 C789.957341,321.704 791.325327,322.231995 792.493333,323.272 C793.661339,324.312005 794.333332,325.599992 794.509333,327.136 C794.525333,327.216 794.533333,327.319999 794.533333,327.448 L784.045333,329.344 C784.317335,330.304005 784.861329,331.091997 785.677333,331.708 C786.493337,332.324003 787.397328,332.624 788.389333,332.608 Z M788.245333,323.152 C787.045327,323.168 786.017337,323.599996 785.161333,324.448 C784.305329,325.296004 783.845334,326.311994 783.781333,327.496 C783.781333,327.544 783.785333,327.627999 783.793333,327.748 C783.801333,327.868001 783.805333,327.968 783.805333,328.048 L792.733333,326.44 C792.429332,325.463995 791.861337,324.668003 791.029333,324.052 C790.197329,323.435997 789.269338,323.136 788.245333,323.152 Z M801.656,334.192 C801.111997,334.192 800.584002,334.124001 800.072,333.988 C799.559997,333.851999 799.132002,333.692001 798.788,333.508 C798.443998,333.323999 798.136001,333.136001 797.864,332.944 C797.591999,332.751999 797.392001,332.592001 797.264,332.464 L797.072,332.248 L798.2,331.288 C798.312,331.400001 798.467999,331.535999 798.668,331.696 C798.868001,331.856001 799.271997,332.071999 799.88,332.344 C800.488003,332.616001 801.087997,332.752 801.68,332.752 C802.560004,332.752 803.263997,332.584002 803.792,332.248 C804.320003,331.911998 804.584,331.440003 804.584,330.832 C804.584,330.399998 804.320003,330.028002 803.792,329.716 C803.263997,329.403998 802.624004,329.136001 801.872,328.912 C801.119996,328.687999 800.364004,328.440001 799.604,328.168 C798.843996,327.895999 798.200003,327.512002 797.672,327.016 C797.143997,326.519998 796.88,325.912004 796.88,325.192 C796.88,324.199995 797.251996,323.388003 797.996,322.756 C798.740004,322.123997 799.839993,321.808 801.296,321.808 C802.160004,321.808 802.975996,321.967998 803.744,322.288 C804.512004,322.608002 805.063998,322.927998 805.4,323.248 L805.904,323.728 L804.776,324.712 C804.663999,324.599999 804.508001,324.464001 804.308,324.304 C804.107999,324.143999 803.704003,323.928001 803.096,323.656 C802.487997,323.383999 801.880003,323.248 801.272,323.248 C800.407996,323.248 799.708003,323.415998 799.172,323.752 C798.635997,324.088002 798.368,324.559997 798.368,325.168 C798.368,325.600002 798.631997,325.971998 799.16,326.284 C799.688003,326.596002 800.327996,326.863999 801.08,327.088 C801.832004,327.312001 802.587996,327.555999 803.348,327.82 C804.108004,328.084001 804.751997,328.467997 805.28,328.972 C805.808003,329.476003 806.072,330.087996 806.072,330.808 C806.072,331.816005 805.704004,332.631997 804.968,333.256 C804.231996,333.880003 803.128007,334.192 801.656,334.192 Z M815.762667,321.784 C817.474675,321.784 818.934661,322.387994 820.142667,323.596 C821.350673,324.804006 821.954667,326.263991 821.954667,327.976 C821.954667,329.688009 821.350673,331.147994 820.142667,332.356 C818.934661,333.564006 817.474675,334.168 815.762667,334.168 C813.842657,334.168 812.274673,333.440007 811.058667,331.984 L811.058667,339.832 L809.474667,339.832 L809.474667,321.976 L811.058667,321.976 L811.058667,323.944 C812.290673,322.503993 813.858657,321.784 815.762667,321.784 Z M812.450667,331.312 C813.346671,332.208004 814.43466,332.656 815.714667,332.656 C816.994673,332.656 818.086662,332.204005 818.990667,331.3 C819.894671,330.395995 820.346667,329.288007 820.346667,327.976 C820.346667,326.663993 819.894671,325.552005 818.990667,324.64 C818.086662,323.727995 816.994673,323.272 815.714667,323.272 C814.43466,323.272 813.346671,323.727995 812.450667,324.64 C811.554662,325.552005 811.106667,326.663993 811.106667,327.976 C811.106667,329.288007 811.554662,330.399995 812.450667,331.312 Z M834.933333,332.368 C833.733327,333.584006 832.277342,334.192 830.565333,334.192 C828.853325,334.192 827.393339,333.588006 826.185333,332.38 C824.977327,331.171994 824.373333,329.712009 824.373333,328 C824.373333,326.287991 824.977327,324.828006 826.185333,323.62 C827.393339,322.411994 828.853325,321.808 830.565333,321.808 C832.277342,321.808 833.737327,322.411994 834.945333,323.62 C836.153339,324.828006 836.757333,326.287991 836.757333,328 C836.757333,329.696008 836.149339,331.151994 834.933333,332.368 Z M830.589333,332.68 C831.88534,332.68 832.977329,332.228005 833.865333,331.324 C834.753338,330.419995 835.197333,329.312007 835.197333,328 C835.197333,326.687993 834.753338,325.576005 833.865333,324.664 C832.977329,323.751995 831.88534,323.296 830.589333,323.296 C829.309327,323.296 828.221338,323.751995 827.325333,324.664 C826.429329,325.576005 825.981333,326.687993 825.981333,328 C825.981333,329.312007 826.429329,330.419995 827.325333,331.324 C828.221338,332.228005 829.309327,332.68 830.589333,332.68 Z M845.224,321.808 C846.616007,321.808 847.783995,322.299995 848.728,323.284 C849.672005,324.268005 850.144,325.479993 850.144,326.92 L850.144,334 L848.536,334 L848.536,326.968 C848.536,325.943995 848.188003,325.072004 847.492,324.352 C846.795996,323.631996 845.952005,323.272 844.96,323.272 C843.967995,323.272 843.124003,323.631996 842.428,324.352 C841.731996,325.072004 841.384,325.943995 841.384,326.968 L841.384,334 L839.8,334 L839.8,322 L841.384,322 L841.384,323.776 C842.360005,322.463993 843.639992,321.808 845.224,321.808 Z M858.058667,334.192 C857.514664,334.192 856.986669,334.124001 856.474667,333.988 C855.962664,333.851999 855.534668,333.692001 855.190667,333.508 C854.846665,333.323999 854.538668,333.136001 854.266667,332.944 C853.994665,332.751999 853.794667,332.592001 853.666667,332.464 L853.474667,332.248 L854.602667,331.288 C854.714667,331.400001 854.870666,331.535999 855.070667,331.696 C855.270668,331.856001 855.674664,332.071999 856.282667,332.344 C856.89067,332.616001 857.490664,332.752 858.082667,332.752 C858.962671,332.752 859.666664,332.584002 860.194667,332.248 C860.722669,331.911998 860.986667,331.440003 860.986667,330.832 C860.986667,330.399998 860.722669,330.028002 860.194667,329.716 C859.666664,329.403998 859.02667,329.136001 858.274667,328.912 C857.522663,328.687999 856.76667,328.440001 856.006667,328.168 C855.246663,327.895999 854.602669,327.512002 854.074667,327.016 C853.546664,326.519998 853.282667,325.912004 853.282667,325.192 C853.282667,324.199995 853.654663,323.388003 854.398667,322.756 C855.14267,322.123997 856.242659,321.808 857.698667,321.808 C858.562671,321.808 859.378663,321.967998 860.146667,322.288 C860.91467,322.608002 861.466665,322.927998 861.802667,323.248 L862.306667,323.728 L861.178667,324.712 C861.066666,324.599999 860.910668,324.464001 860.710667,324.304 C860.510666,324.143999 860.10667,323.928001 859.498667,323.656 C858.890664,323.383999 858.28267,323.248 857.674667,323.248 C856.810662,323.248 856.110669,323.415998 855.574667,323.752 C855.038664,324.088002 854.770667,324.559997 854.770667,325.168 C854.770667,325.600002 855.034664,325.971998 855.562667,326.284 C856.090669,326.596002 856.730663,326.863999 857.482667,327.088 C858.23467,327.312001 858.990663,327.555999 859.750667,327.82 C860.51067,328.084001 861.154664,328.467997 861.682667,328.972 C862.210669,329.476003 862.474667,330.087996 862.474667,330.808 C862.474667,331.816005 862.10667,332.631997 861.370667,333.256 C860.634663,333.880003 859.530674,334.192 858.058667,334.192 Z M871.037333,332.608 C872.109339,332.608 873.069329,332.304003 873.917333,331.696 C874.765338,331.087997 875.341332,330.376004 875.645333,329.56 L876.989333,330.04 C876.621331,331.048005 875.905339,331.975996 874.841333,332.824 C873.777328,333.672004 872.509341,334.088 871.037333,334.072 C869.693327,334.072 868.465339,333.656004 867.353333,332.824 C866.241328,331.991996 865.485335,330.928006 865.085333,329.632 C864.925333,329.103997 864.845333,328.528003 864.845333,327.904 C864.845333,326.175991 865.445327,324.712006 866.645333,323.512 C867.845339,322.311994 869.309325,321.704 871.037333,321.688 C872.605341,321.704 873.973327,322.231995 875.141333,323.272 C876.309339,324.312005 876.981332,325.599992 877.157333,327.136 C877.173333,327.216 877.181333,327.319999 877.181333,327.448 L866.693333,329.344 C866.965335,330.304005 867.509329,331.091997 868.325333,331.708 C869.141337,332.324003 870.045328,332.624 871.037333,332.608 Z M870.893333,323.152 C869.693327,323.168 868.665338,323.599996 867.809333,324.448 C866.953329,325.296004 866.493334,326.311994 866.429333,327.496 C866.429333,327.544 866.433333,327.627999 866.441333,327.748 C866.449333,327.868001 866.453333,327.968 866.453333,328.048 L875.381333,326.44 C875.077332,325.463995 874.509337,324.668003 873.677333,324.052 C872.845329,323.435997 871.917338,323.136 870.893333,323.152 Z" id="Diode-Forward-Voltag-Copy" fill="#23ABE3"></path>
    </g>
</svg>