<?xml version="1.0" encoding="UTF-8"?>
<svg width="900px" height="310px" viewBox="0 0 900 310" version="1.1" xmlns="http://www.w3.org/2000/svg" xmlns:xlink="http://www.w3.org/1999/xlink">
    <!-- Generator: Sketch 52.5 (67469) - http://www.bohemiancoding.com/sketch -->
    <title>Diode</title>
    <desc>Created with Sketch.</desc>
    <g id="Diode" stroke="none" stroke-width="1" fill="none" fill-rule="evenodd">
        <rect id="Rectangle" fill="#EEEEEE" x="0" y="0" width="900" height="430"></rect>
        <g id="Illustration" transform="translate(93.000000, 66.000000)">
            <g id="Lattice-Junction" transform="translate(1.000000, 0.000000)">
                <g id="P-Type-Lattice" transform="translate(196.000000, 41.000000)">
                    <rect id="Rectangle" stroke="#999999" stroke-width="2" fill="#D4D4D4" x="1" y="1" width="158" height="158"></rect>
                    <circle id="Oval-Copy-3" fill="#252525" cx="20.5" cy="18.5" r="10.5"></circle>
                    <circle id="Oval-Copy-5" fill="#252525" cx="20.5" cy="58.5" r="10.5"></circle>
                    <circle id="Oval-Copy-6" fill="#252525" cx="20.5" cy="98.5" r="10.5"></circle>
                    <circle id="Oval-Copy-10" fill="#252525" cx="50.5" cy="38.5" r="10.5"></circle>
                    <circle id="Oval-Copy-8" fill="#252525" cx="50.5" cy="118.5" r="10.5"></circle>
                    <g id="Negative-Ion" transform="translate(100.000000, 28.000000)">
                        <circle id="Oval-Copy-26" fill="#84D0EF" cx="10.5" cy="10.5" r="10.5"></circle>
                        <rect id="Rectangle" fill="#524740" x="6" y="10" width="9" height="1"></rect>
                    </g>
                    <circle id="Oval-Copy-25" fill="#252525" cx="110.5" cy="78.5" r="10.5"></circle>
                    <circle id="Oval-Copy-24" fill="#252525" cx="110.5" cy="118.5" r="10.5"></circle>
                    <g id="Negative-Ion" transform="translate(40.000000, 68.000000)">
                        <circle id="Oval-Copy-9" fill="#84D0EF" cx="10.5" cy="10.5" r="10.5"></circle>
                        <rect id="Rectangle" fill="#524740" x="6" y="10" width="9" height="1"></rect>
                    </g>
                    <g id="Negative-Ion" transform="translate(10.000000, 128.000000)">
                        <circle id="Oval-Copy-7" fill="#84D0EF" cx="10.5" cy="10.5" r="10.5"></circle>
                        <rect id="Rectangle" fill="#524740" x="6" y="10" width="9" height="1"></rect>
                    </g>
                    <circle id="Oval-Copy-23" fill="#252525" cx="80.5" cy="18.5" r="10.5"></circle>
                    <circle id="Oval-Copy-22" fill="#252525" cx="80.5" cy="58.5" r="10.5"></circle>
                    <g id="Negative-Ion" transform="translate(70.000000, 88.000000)">
                        <circle id="Oval-Copy-21" fill="#84D0EF" cx="10.5" cy="10.5" r="10.5"></circle>
                        <rect id="Rectangle" fill="#524740" x="6" y="10" width="9" height="1"></rect>
                    </g>
                    <circle id="Oval-Copy-20" fill="#252525" cx="80.5" cy="138.5" r="10.5"></circle>
                    <circle id="Oval-Copy-30" fill="#252525" cx="140.5" cy="18.5" r="10.5"></circle>
                    <circle id="Oval-Copy-29" fill="#252525" cx="140.5" cy="58.5" r="10.5"></circle>
                    <circle id="Oval-Copy-28" fill="#252525" cx="140.5" cy="98.5" r="10.5"></circle>
                    <circle id="Oval-Copy-27" fill="#252525" cx="140.5" cy="138.5" r="10.5"></circle>
                    <g id="Little-Ones" transform="translate(4.000000, 23.000000)" fill="#84D0EF">
                        <circle id="Oval-Copy-31" cx="25.25" cy="53.25" r="3.25"></circle>
                        <circle id="Oval-Copy-32" cx="38.25" cy="32.25" r="3.25"></circle>
                        <circle id="Oval-Copy-33" cx="28.25" cy="4.25" r="3.25"></circle>
                        <circle id="Oval-Copy-34" cx="69.25" cy="12.25" r="3.25"></circle>
                        <circle id="Oval-Copy-35" cx="79.25" cy="52.25" r="3.25"></circle>
                        <circle id="Oval-Copy-36" cx="60.25" cy="73.25" r="3.25"></circle>
                        <circle id="Oval-Copy-37" cx="35.25" cy="84.25" r="3.25"></circle>
                        <circle id="Oval-Copy-38" cx="31.25" cy="126.25" r="3.25"></circle>
                        <circle id="Oval-Copy-39" cx="3.25" cy="93.25" r="3.25"></circle>
                        <circle id="Oval-Copy-40" cx="55.25" cy="111.25" r="3.25"></circle>
                        <circle id="Oval-Copy-42" cx="90.25" cy="92.25" r="3.25"></circle>
                        <circle id="Oval-Copy-43" cx="90.25" cy="122.25" r="3.25"></circle>
                        <circle id="Oval-Copy-49" cx="96.25" cy="3.25" r="3.25"></circle>
                    </g>
                </g>
                <g id="N-Type-Lattice" transform="translate(354.000000, 41.000000)">
                    <rect id="Rectangle" stroke="#999999" stroke-width="2" fill="#7D7570" x="1" y="1" width="158" height="158"></rect>
                    <circle id="Oval-Copy-3" fill="#252525" cx="20.5" cy="18.5" r="10.5"></circle>
                    <circle id="Oval-Copy-5" fill="#252525" cx="20.5" cy="58.5" r="10.5"></circle>
                    <circle id="Oval-Copy-6" fill="#252525" cx="20.5" cy="98.5" r="10.5"></circle>
                    <circle id="Oval-Copy-10" fill="#252525" cx="50.5" cy="38.5" r="10.5"></circle>
                    <g id="Positive-Ion" transform="translate(40.000000, 68.000000)">
                        <circle id="Oval-Copy-9" fill="#D7E465" cx="10.5" cy="10.5" r="10.5"></circle>
                        <path d="M10,10 L10,6 L11,6 L11,10 L15,10 L15,11 L11,11 L11,15 L10,15 L10,11 L6,11 L6,10 L10,10 Z" id="Combined-Shape" fill="#524740"></path>
                    </g>
                    <circle id="Oval-Copy-8" fill="#252525" cx="50.5" cy="118.5" r="10.5"></circle>
                    <g id="Positive-Ion" transform="translate(100.000000, 28.000000)">
                        <circle id="Oval-Copy-26" fill="#D7E465" cx="10.5" cy="10.5" r="10.5"></circle>
                        <path d="M10,10 L10,6 L11,6 L11,10 L15,10 L15,11 L11,11 L11,15 L10,15 L10,11 L6,11 L6,10 L10,10 Z" id="Combined-Shape" fill="#524740"></path>
                    </g>
                    <circle id="Oval-Copy-25" fill="#252525" cx="110.5" cy="78.5" r="10.5"></circle>
                    <circle id="Oval-Copy-24" fill="#252525" cx="110.5" cy="118.5" r="10.5"></circle>
                    <g id="Positive-Ion" transform="translate(10.000000, 128.000000)">
                        <circle id="Oval-Copy-7" fill="#D7E465" cx="10.5" cy="10.5" r="10.5"></circle>
                        <path d="M10,10 L10,6 L11,6 L11,10 L15,10 L15,11 L11,11 L11,15 L10,15 L10,11 L6,11 L6,10 L10,10 Z" id="Combined-Shape" fill="#524740"></path>
                    </g>
                    <circle id="Oval-Copy-23" fill="#252525" cx="80.5" cy="18.5" r="10.5"></circle>
                    <circle id="Oval-Copy-22" fill="#252525" cx="80.5" cy="58.5" r="10.5"></circle>
                    <g id="Positive-Ion" transform="translate(70.000000, 88.000000)">
                        <circle id="Oval-Copy-21" fill="#D7E465" cx="10.5" cy="10.5" r="10.5"></circle>
                        <path d="M10,10 L10,6 L11,6 L11,10 L15,10 L15,11 L11,11 L11,15 L10,15 L10,11 L6,11 L6,10 L10,10 Z" id="Combined-Shape" fill="#524740"></path>
                    </g>
                    <circle id="Oval-Copy-20" fill="#252525" cx="80.5" cy="138.5" r="10.5"></circle>
                    <circle id="Oval-Copy-30" fill="#252525" cx="140.5" cy="18.5" r="10.5"></circle>
                    <circle id="Oval-Copy-29" fill="#252525" cx="140.5" cy="58.5" r="10.5"></circle>
                    <circle id="Oval-Copy-28" fill="#252525" cx="140.5" cy="98.5" r="10.5"></circle>
                    <circle id="Oval-Copy-27" fill="#252525" cx="140.5" cy="138.5" r="10.5"></circle>
                    <g id="Little-ones" transform="translate(56.000000, 8.000000)" fill="#EF7D3B">
                        <circle id="Oval-Copy-34" cx="17.25" cy="27.25" r="3.25"></circle>
                        <circle id="Oval-Copy-35" cx="27.25" cy="67.25" r="3.25"></circle>
                        <circle id="Oval-Copy-36" cx="8.25" cy="88.25" r="3.25"></circle>
                        <circle id="Oval-Copy-40" cx="3.25" cy="126.25" r="3.25"></circle>
                        <circle id="Oval-Copy-41" cx="63.25" cy="126.25" r="3.25"></circle>
                        <circle id="Oval-Copy-42" cx="38.25" cy="107.25" r="3.25"></circle>
                        <circle id="Oval-Copy-43" cx="38.25" cy="137.25" r="3.25"></circle>
                        <circle id="Oval-Copy-44" cx="78.25" cy="146.25" r="3.25"></circle>
                        <circle id="Oval-Copy-45" cx="98.25" cy="96.25" r="3.25"></circle>
                        <circle id="Oval-Copy-46" cx="67.25" cy="82.25" r="3.25"></circle>
                        <circle id="Oval-Copy-47" cx="77.25" cy="37.25" r="3.25"></circle>
                        <circle id="Oval-Copy-48" cx="67.25" cy="3.25" r="3.25"></circle>
                        <circle id="Oval-Copy-49" cx="44.25" cy="18.25" r="3.25"></circle>
                    </g>
                </g>
                <rect id="Rectangle" fill="#EF7D3B" opacity="0.149135045" x="300" y="43" width="110" height="156"></rect>
                <path d="M299.5,42.5 L300,201" id="Line" stroke="#979797" stroke-width="2" stroke-linecap="square" stroke-dasharray="8,8"></path>
                <path d="M409.5,42.5 L410,201" id="Line-Copy" stroke="#979797" stroke-width="2" stroke-linecap="square" stroke-dasharray="8,8"></path>
                <path d="M245.263997,3.4 C247.688009,3.4 249.58399,3.97599424 250.951997,5.128 C252.320004,6.28000576 253.003997,7.73199124 253.003997,9.484 C253.003997,11.2360088 252.320004,12.6819943 250.951997,13.822 C249.58399,14.9620057 247.688009,15.532 245.263997,15.532 L242.059997,15.532 L242.059997,20.032 C242.059997,21.832009 242.257995,22.9839975 242.653997,23.488 C243.049999,23.9920025 243.99199,24.244 245.479997,24.244 L245.479997,25 L235.759997,25 L235.759997,24.244 C237.248004,24.244 238.189995,23.9920025 238.585997,23.488 C238.981999,22.9839975 239.179997,21.832009 239.179997,20.032 L239.179997,8.332 C239.179997,6.531991 238.981999,5.38600246 238.585997,4.894 C238.189995,4.40199754 237.248004,4.156 235.759997,4.156 L235.759997,3.4 L245.263997,3.4 Z M245.227997,14.236 C246.716004,14.236 247.849993,13.7920044 248.629997,12.904 C249.410001,12.0159956 249.799997,10.876007 249.799997,9.484 C249.799997,8.09199304 249.410001,6.95200444 248.629997,6.064 C247.849993,5.17599556 246.716004,4.732 245.227997,4.732 L242.059997,4.732 L242.059997,14.236 L245.227997,14.236 Z M265.531998,18.412 L255.019998,18.412 L255.019998,16.828 L265.531998,16.828 L265.531998,18.412 Z M287.635999,3.4 L287.959999,8.26 L287.203999,8.26 L287.023999,7.54 C286.735998,6.4599946 286.352001,5.73400186 285.871999,5.362 C285.391997,4.98999814 284.384007,4.804 282.847999,4.804 L278.131999,4.804 L278.131999,20.032 C278.131999,21.832009 278.335997,22.9839975 278.743999,23.488 C279.152001,23.9920025 280.099992,24.244 281.587999,24.244 L281.587999,25 L271.831999,25 L271.831999,24.244 C273.320006,24.244 274.267997,23.9920025 274.675999,23.488 C275.084001,22.9839975 275.287999,21.832009 275.287999,20.032 L275.287999,4.804 L270.571999,4.804 C269.035991,4.804 268.028001,4.98999814 267.547999,5.362 C267.067997,5.73400186 266.684,6.4599946 266.395999,7.54 L266.215999,8.26 L265.459999,8.26 L265.783999,3.4 L287.635999,3.4 Z M285.728,33.532 C285.728,33.1479981 285.871999,32.8060015 286.16,32.506 C286.448001,32.2059985 286.825998,31.7980026 287.294,31.282 C287.762002,30.7659974 288.151998,30.112004 288.464,29.32 L290.264,24.82 L286.124,15.856 C285.739998,15.0399959 285.380002,14.4820015 285.044,14.182 C284.707998,13.8819985 284.264003,13.732 283.712,13.732 L283.712,13.012 L290.084,13.012 L290.084,13.732 C289.267996,13.732 288.776001,13.8639987 288.608,14.128 C288.439999,14.3920013 288.547998,14.9679956 288.932,15.856 L291.56,21.616 L293.864,15.856 C294.200002,15.0399959 294.296001,14.4820015 294.152,14.182 C294.007999,13.8819985 293.564004,13.732 292.82,13.732 L292.82,13.012 L297.86,13.012 L297.86,13.732 C296.731994,13.732 295.880003,14.4399929 295.304,15.856 L288.284,33.388 C287.923998,34.2760044 287.480003,34.72 286.952,34.72 C286.639998,34.72 286.358001,34.624001 286.106,34.432 C285.853999,34.239999 285.728,33.940002 285.728,33.532 Z M308.048001,22.732 C308.744004,21.7479951 309.092001,20.5000076 309.092001,18.988 C309.092001,17.4759924 308.744004,16.2400048 308.048001,15.28 C307.351998,14.3199952 306.344008,13.84 305.024001,13.84 C304.207997,13.84 303.482004,14.0919975 302.846001,14.596 C302.209998,15.1000025 301.712003,15.7839957 301.352001,16.648 L301.352001,21.292 C301.712003,22.1800044 302.209998,22.8819974 302.846001,23.398 C303.482004,23.9140026 304.207997,24.172 305.024001,24.172 C306.344008,24.172 307.351998,23.6920048 308.048001,22.732 Z M301.352001,29.068 C301.352001,30.8440089 301.525999,31.9839975 301.874001,32.488 C302.222003,32.9920025 302.995995,33.244 304.196001,33.244 L304.196001,34 L295.952001,34 L295.952001,33.244 C297.152007,33.244 297.925999,32.9980025 298.274001,32.506 C298.622003,32.0139975 298.796001,30.868009 298.796001,29.068 L298.796001,18.232 C298.796001,16.431991 298.622003,15.2860025 298.274001,14.794 C297.925999,14.3019975 297.152007,14.056 295.952001,14.056 L295.952001,13.3 L300.776001,12.4 C300.920002,12.6640013 301.1,13.395994 301.316001,14.596 C302.540007,13.1319927 304.027992,12.4 305.780001,12.4 C307.48401,12.4 308.947995,13.0419936 310.172001,14.326 C311.396007,15.6100064 312.008001,17.1639909 312.008001,18.988 C312.008001,20.8120091 311.396007,22.3719935 310.172001,23.668 C308.947995,24.9640065 307.48401,25.612 305.780001,25.612 C304.003992,25.612 302.528007,24.8920072 301.352001,23.452 L301.352001,29.068 Z M316.400002,16.756 L322.376002,16.756 C322.616003,16.0839966 322.514004,15.4300032 322.070002,14.794 C321.626,14.1579968 320.864007,13.84 319.784002,13.84 C319.015998,13.84 318.326005,14.1039974 317.714002,14.632 C317.101999,15.1600026 316.664003,15.8679956 316.400002,16.756 Z M316.184002,18.088 C315.968001,19.8640089 316.249998,21.3099944 317.030002,22.426 C317.810006,23.5420056 319.087993,24.1 320.864002,24.1 C321.464005,24.1 322.147998,23.9440016 322.916002,23.632 C323.684006,23.3199984 324.319999,22.9240024 324.824002,22.444 L325.472002,23.236 C324.823999,23.9320035 323.996007,24.5019978 322.988002,24.946 C321.979997,25.3900022 320.972007,25.612 319.964002,25.612 C318.019992,25.612 316.424008,24.9700064 315.176002,23.686 C313.927996,22.4019936 313.304002,20.8360092 313.304002,18.988 C313.304002,17.1399908 313.981995,15.5800064 315.338002,14.308 C316.694009,13.0359936 318.235993,12.4 319.964002,12.4 C321.59601,12.4 322.927997,12.9699943 323.960002,14.11 C324.992007,15.2500057 325.292004,16.5759924 324.860002,18.088 L316.184002,18.088 Z" id="P-Type-Copy" fill="#524740"></path>
                <path d="M401.509997,20.536 L401.509997,8.332 C401.509997,6.531991 401.311999,5.38600246 400.915997,4.894 C400.519995,4.40199754 399.578004,4.156 398.089997,4.156 L398.089997,3.4 L406.297997,3.4 L406.297997,4.156 C404.80999,4.156 403.861999,4.40199754 403.453997,4.894 C403.045995,5.38600246 402.841997,6.531991 402.841997,8.332 L402.841997,25.612 L402.013997,25.612 L387.361997,7.504 L387.361997,20.032 C387.361997,21.832009 387.565995,22.9839975 387.973997,23.488 C388.381999,23.9920025 389.32999,24.244 390.817997,24.244 L390.817997,25 L382.609997,25 L382.609997,24.244 C384.098004,24.244 385.039995,23.9920025 385.435997,23.488 C385.831999,22.9839975 386.029997,21.832009 386.029997,20.032 L386.029997,8.332 C386.029997,6.531991 385.831999,5.38600246 385.435997,4.894 C385.039995,4.40199754 384.098004,4.156 382.609997,4.156 L382.609997,3.4 L387.685997,3.4 L401.509997,20.536 Z M418.681998,18.412 L408.169998,18.412 L408.169998,16.828 L418.681998,16.828 L418.681998,18.412 Z M440.785999,3.4 L441.109999,8.26 L440.353999,8.26 L440.173999,7.54 C439.885998,6.4599946 439.502001,5.73400186 439.021999,5.362 C438.541997,4.98999814 437.534007,4.804 435.997999,4.804 L431.281999,4.804 L431.281999,20.032 C431.281999,21.832009 431.485997,22.9839975 431.893999,23.488 C432.302001,23.9920025 433.249992,24.244 434.737999,24.244 L434.737999,25 L424.981999,25 L424.981999,24.244 C426.470006,24.244 427.417997,23.9920025 427.825999,23.488 C428.234001,22.9839975 428.437999,21.832009 428.437999,20.032 L428.437999,4.804 L423.721999,4.804 C422.185991,4.804 421.178001,4.98999814 420.697999,5.362 C420.217997,5.73400186 419.834,6.4599946 419.545999,7.54 L419.365999,8.26 L418.609999,8.26 L418.933999,3.4 L440.785999,3.4 Z M438.878,33.532 C438.878,33.1479981 439.021999,32.8060015 439.31,32.506 C439.598001,32.2059985 439.975998,31.7980026 440.444,31.282 C440.912002,30.7659974 441.301998,30.112004 441.614,29.32 L443.414,24.82 L439.274,15.856 C438.889998,15.0399959 438.530002,14.4820015 438.194,14.182 C437.857998,13.8819985 437.414003,13.732 436.862,13.732 L436.862,13.012 L443.234,13.012 L443.234,13.732 C442.417996,13.732 441.926001,13.8639987 441.758,14.128 C441.589999,14.3920013 441.697998,14.9679956 442.082,15.856 L444.71,21.616 L447.014,15.856 C447.350002,15.0399959 447.446001,14.4820015 447.302,14.182 C447.157999,13.8819985 446.714004,13.732 445.97,13.732 L445.97,13.012 L451.01,13.012 L451.01,13.732 C449.881994,13.732 449.030003,14.4399929 448.454,15.856 L441.434,33.388 C441.073998,34.2760044 440.630003,34.72 440.102,34.72 C439.789998,34.72 439.508001,34.624001 439.256,34.432 C439.003999,34.239999 438.878,33.940002 438.878,33.532 Z M461.198001,22.732 C461.894004,21.7479951 462.242001,20.5000076 462.242001,18.988 C462.242001,17.4759924 461.894004,16.2400048 461.198001,15.28 C460.501998,14.3199952 459.494008,13.84 458.174001,13.84 C457.357997,13.84 456.632004,14.0919975 455.996001,14.596 C455.359998,15.1000025 454.862003,15.7839957 454.502001,16.648 L454.502001,21.292 C454.862003,22.1800044 455.359998,22.8819974 455.996001,23.398 C456.632004,23.9140026 457.357997,24.172 458.174001,24.172 C459.494008,24.172 460.501998,23.6920048 461.198001,22.732 Z M454.502001,29.068 C454.502001,30.8440089 454.675999,31.9839975 455.024001,32.488 C455.372003,32.9920025 456.145995,33.244 457.346001,33.244 L457.346001,34 L449.102001,34 L449.102001,33.244 C450.302007,33.244 451.075999,32.9980025 451.424001,32.506 C451.772003,32.0139975 451.946001,30.868009 451.946001,29.068 L451.946001,18.232 C451.946001,16.431991 451.772003,15.2860025 451.424001,14.794 C451.075999,14.3019975 450.302007,14.056 449.102001,14.056 L449.102001,13.3 L453.926001,12.4 C454.070002,12.6640013 454.25,13.395994 454.466001,14.596 C455.690007,13.1319927 457.177992,12.4 458.930001,12.4 C460.63401,12.4 462.097995,13.0419936 463.322001,14.326 C464.546007,15.6100064 465.158001,17.1639909 465.158001,18.988 C465.158001,20.8120091 464.546007,22.3719935 463.322001,23.668 C462.097995,24.9640065 460.63401,25.612 458.930001,25.612 C457.153992,25.612 455.678007,24.8920072 454.502001,23.452 L454.502001,29.068 Z M469.550002,16.756 L475.526002,16.756 C475.766003,16.0839966 475.664004,15.4300032 475.220002,14.794 C474.776,14.1579968 474.014007,13.84 472.934002,13.84 C472.165998,13.84 471.476005,14.1039974 470.864002,14.632 C470.251999,15.1600026 469.814003,15.8679956 469.550002,16.756 Z M469.334002,18.088 C469.118001,19.8640089 469.399998,21.3099944 470.180002,22.426 C470.960006,23.5420056 472.237993,24.1 474.014002,24.1 C474.614005,24.1 475.297998,23.9440016 476.066002,23.632 C476.834006,23.3199984 477.469999,22.9240024 477.974002,22.444 L478.622002,23.236 C477.973999,23.9320035 477.146007,24.5019978 476.138002,24.946 C475.129997,25.3900022 474.122007,25.612 473.114002,25.612 C471.169992,25.612 469.574008,24.9700064 468.326002,23.686 C467.077996,22.4019936 466.454002,20.8360092 466.454002,18.988 C466.454002,17.1399908 467.131995,15.5800064 468.488002,14.308 C469.844009,13.0359936 471.385993,12.4 473.114002,12.4 C474.74601,12.4 476.077997,12.9699943 477.110002,14.11 C478.142007,15.2500057 478.442004,16.5759924 478.010002,18.088 L469.334002,18.088 Z" id="N-Type-Copy" fill="#524740"></path>
                <path d="M7.976,97.512 L6.248,101.508 C5.79199772,102.492005 5.7739979,103.193998 6.194,103.614 C6.6140021,104.034002 7.56799256,104.244 9.056,104.244 L9.056,105 L0.632,105 L0.632,104.244 C1.40000384,104.244 1.9939979,104.214 2.414,104.154 C2.8340021,104.094 3.20599838,103.902002 3.53,103.578 C3.85400162,103.253998 4.08199934,102.960001 4.214,102.696 C4.34600066,102.431999 4.5919982,101.904004 4.952,101.112 L12.872,82.788 L13.34,82.788 L21.296,101.112 C21.6560018,101.904004 21.9019993,102.431999 22.034,102.696 C22.1660007,102.960001 22.3939984,103.253998 22.718,103.578 C23.0420016,103.902002 23.407998,104.094 23.816,104.154 C24.224002,104.214 24.8119962,104.244 25.58,104.244 L25.58,105 L15.608,105 L15.608,104.244 C17.0960074,104.244 18.043998,104.034002 18.452,103.614 C18.860002,103.193998 18.8480022,102.492005 18.416,101.508 L16.688,97.512 L7.976,97.512 Z M16.076,96.18 L12.296,87.504 L8.552,96.18 L16.076,96.18 Z M28.820001,94.992 C30.1880078,93.2639914 31.8559912,92.4 33.824001,92.4 C35.3840088,92.4 36.5539971,92.8919951 37.334001,93.876 C38.1140049,94.8600049 38.504001,96.155992 38.504001,97.764 L38.504001,100.032 C38.504001,101.832009 38.6779993,102.983997 39.026001,103.488 C39.3740027,103.992003 40.147995,104.244 41.348001,104.244 L41.348001,105 L33.104001,105 L33.104001,104.244 C34.2800069,104.244 35.0479992,103.986003 35.408001,103.47 C35.7680028,102.953997 35.948001,101.808009 35.948001,100.032 L35.948001,97.944 C35.948001,95.3759872 34.952011,94.092 32.960001,94.092 C31.9279958,94.092 30.9800053,94.4519964 30.116001,95.172 C29.2519967,95.8920036 28.820001,96.7319952 28.820001,97.692 L28.820001,100.032 C28.820001,101.880009 28.9639996,103.043998 29.252001,103.524 C29.5400024,104.004002 30.2359955,104.244 31.340001,104.244 L31.340001,105 L23.420001,105 L23.420001,104.244 C24.620007,104.244 25.3939993,103.992003 25.742001,103.488 C26.0900027,102.983997 26.264001,101.832009 26.264001,100.032 L26.264001,98.232 C26.264001,96.4559911 26.0900027,95.3160025 25.742001,94.812 C25.3939993,94.3079975 24.620007,94.056 23.420001,94.056 L23.420001,93.3 L28.208001,92.4 C28.4240021,92.8560023 28.628,93.7199936 28.820001,94.992 Z M53.984002,94.344 C55.4240092,95.6160064 56.144002,97.1639909 56.144002,98.988 C56.144002,100.812009 55.4300091,102.371994 54.002002,103.668 C52.5739949,104.964006 50.864012,105.612 48.872002,105.612 C46.879992,105.612 45.1700091,104.964006 43.742002,103.668 C42.3139949,102.371994 41.600002,100.812009 41.600002,98.988 C41.600002,97.1639909 42.3139949,95.6100064 43.742002,94.326 C45.1700091,93.0419936 46.879992,92.4 48.872002,92.4 C50.864012,92.4 52.5679949,93.0479935 53.984002,94.344 Z M52.112002,102.768 C52.8560057,101.783995 53.228002,100.524008 53.228002,98.988 C53.228002,97.4519923 52.8560057,96.1980049 52.112002,95.226 C51.3679983,94.2539951 50.2880091,93.768 48.872002,93.768 C47.4559949,93.768 46.3760057,94.2599951 45.632002,95.244 C44.8879983,96.2280049 44.516002,97.4759924 44.516002,98.988 C44.516002,100.500008 44.8879983,101.747995 45.632002,102.732 C46.3760057,103.716005 47.4559949,104.208 48.872002,104.208 C50.2880091,104.208 51.3679983,103.728005 52.112002,102.768 Z M68.096003,101.328 L68.096003,96.684 C67.7600013,95.8199957 67.2680062,95.1300026 66.620003,94.614 C65.9719998,94.0979974 65.252007,93.84 64.460003,93.84 C63.1159963,93.84 62.0960065,94.3199952 61.400003,95.28 C60.7039995,96.2400048 60.356003,97.4759924 60.356003,98.988 C60.356003,100.524008 60.7039995,101.771995 61.400003,102.732 C62.0960065,103.692005 63.1159963,104.172 64.460003,104.172 C65.252007,104.172 65.9719998,103.914003 66.620003,103.398 C67.2680062,102.881997 67.7600013,102.192004 68.096003,101.328 Z M68.096003,94.524 L68.096003,88.656 C68.096003,86.855991 67.9220047,85.7040025 67.574003,85.2 C67.2260013,84.6959975 66.452009,84.444 65.252003,84.444 L65.252003,83.688 L70.652003,82.788 L70.652003,99.744 C70.652003,101.544009 70.8260013,102.695997 71.174003,103.2 C71.5220047,103.704003 72.295997,103.956 73.496003,103.956 L73.496003,104.712 L68.708003,105.612 C68.5400022,105.251998 68.3480041,104.520006 68.132003,103.416 C66.9559971,104.880007 65.4800119,105.612 63.704003,105.612 C61.9999945,105.612 60.5300092,104.964006 59.294003,103.668 C58.0579968,102.371994 57.440003,100.812009 57.440003,98.988 C57.440003,97.1639909 58.0579968,95.6100064 59.294003,94.326 C60.5300092,93.0419936 61.9999945,92.4 63.704003,92.4 C65.4800119,92.4 66.9439972,93.1079929 68.096003,94.524 Z M76.844004,96.756 L82.820004,96.756 C83.0600052,96.0839966 82.9580062,95.4300032 82.514004,94.794 C82.0700018,94.1579968 81.3080094,93.84 80.228004,93.84 C79.4600002,93.84 78.7700071,94.1039974 78.158004,94.632 C77.5460009,95.1600026 77.1080053,95.8679956 76.844004,96.756 Z M76.628004,98.088 C76.4120029,99.8640089 76.6940001,101.309994 77.474004,102.426 C78.2540079,103.542006 79.5319951,104.1 81.308004,104.1 C81.908007,104.1 82.5920002,103.944002 83.360004,103.632 C84.1280078,103.319998 84.7640015,102.924002 85.268004,102.444 L85.916004,103.236 C85.2680008,103.932003 84.440009,104.501998 83.432004,104.946 C82.423999,105.390002 81.416009,105.612 80.408004,105.612 C78.4639943,105.612 76.8680102,104.970006 75.620004,103.686 C74.3719978,102.401994 73.748004,100.836009 73.748004,98.988 C73.748004,97.1399908 74.4259972,95.5800064 75.782004,94.308 C77.1380108,93.0359936 78.6799954,92.4 80.408004,92.4 C82.0400122,92.4 83.3719988,92.9699943 84.404004,94.11 C85.4360092,95.2500057 85.7360062,96.5759924 85.304004,98.088 L76.628004,98.088 Z M103.160006,108.24 L102.368006,108.996 C96.967979,104.579978 94.268006,99.7080266 94.268006,94.38 C94.268006,89.0759735 96.9559791,84.2040222 102.332006,79.764 L103.160006,80.52 C102.392002,81.3840043 101.756009,82.1339968 101.252006,82.77 C100.748003,83.4060032 100.09401,84.3539937 99.290006,85.614 C98.486002,86.8740063 97.8680082,88.2479926 97.436006,89.736 C97.0040038,91.2240074 96.788006,92.771992 96.788006,94.38 C96.788006,95.988008 97.0040038,97.5359926 97.436006,99.024 C97.8680082,100.512007 98.486002,101.885994 99.290006,103.146 C100.09401,104.406006 100.748003,105.353997 101.252006,105.99 C101.756009,106.626003 102.392002,107.375996 103.160006,108.24 Z M107.984007,97.512 L106.256007,101.508 C105.800005,102.492005 105.782005,103.193998 106.202007,103.614 C106.622009,104.034002 107.576,104.244 109.064007,104.244 L109.064007,105 L100.640007,105 L100.640007,104.244 C101.408011,104.244 102.002005,104.214 102.422007,104.154 C102.842009,104.094 103.214005,103.902002 103.538007,103.578 C103.862009,103.253998 104.090006,102.960001 104.222007,102.696 C104.354008,102.431999 104.600005,101.904004 104.960007,101.112 L112.880007,82.788 L113.348007,82.788 L121.304007,101.112 C121.664009,101.904004 121.910006,102.431999 122.042007,102.696 C122.174008,102.960001 122.402005,103.253998 122.726007,103.578 C123.050009,103.902002 123.416005,104.094 123.824007,104.154 C124.232009,104.214 124.820003,104.244 125.588007,104.244 L125.588007,105 L115.616007,105 L115.616007,104.244 C117.104014,104.244 118.052005,104.034002 118.460007,103.614 C118.868009,103.193998 118.856009,102.492005 118.424007,101.508 L116.696007,97.512 L107.984007,97.512 Z M116.084007,96.18 L112.304007,87.504 L108.560007,96.18 L116.084007,96.18 Z M131.960008,94.38 C131.960008,99.7320268 129.272035,104.603978 123.896008,108.996 L123.068008,108.24 C123.860012,107.351996 124.502006,106.596003 124.994008,105.972 C125.48601,105.347997 126.140004,104.406006 126.956008,103.146 C127.772012,101.885994 128.396006,100.512007 128.828008,99.024 C129.26001,97.5359926 129.476008,95.988008 129.476008,94.38 C129.476008,92.771992 129.26001,91.2240074 128.828008,89.736 C128.396006,88.2479926 127.772012,86.8740063 126.956008,85.614 C126.140004,84.3539937 125.48601,83.4120031 124.994008,82.788 C124.502006,82.1639969 123.860012,81.4080044 123.068008,80.52 L123.932008,79.764 C129.284035,84.1800221 131.960008,89.0519734 131.960008,94.38 Z" id="Anode-(A)-Copy" fill="#524740"></path>
                <path d="M572.571989,104.604 L571.851989,104.604 C571.659988,103.667995 571.251992,102.984002 570.627989,102.552 C568.659979,104.59201 566.428001,105.612 563.931989,105.612 C560.883974,105.612 558.28,104.496011 556.119989,102.264 C553.959978,100.031989 552.879989,97.3440157 552.879989,94.2 C552.879989,91.0559843 553.959978,88.3680112 556.119989,86.136 C558.28,83.9039888 560.883974,82.788 563.931989,82.788 C566.476002,82.788 568.707979,83.8079898 570.627989,85.848 C571.275992,85.3439975 571.683988,84.6600043 571.851989,83.796 L572.571989,83.796 L572.571989,91.716 L571.851989,91.716 C571.347986,89.3399881 570.417996,87.4920066 569.061989,86.172 C567.705982,84.8519934 566.043999,84.192 564.075989,84.192 C562.707982,84.192 561.495994,84.4979969 560.439989,85.11 C559.383984,85.7220031 558.561992,86.531995 557.973989,87.54 C557.385986,88.548005 556.94799,89.6159944 556.659989,90.744 C556.371988,91.8720056 556.227989,93.0239941 556.227989,94.2 C556.227989,95.3760059 556.371988,96.5279944 556.659989,97.656 C556.94799,98.7840056 557.385986,99.845995 557.973989,100.842 C558.561992,101.838005 559.383984,102.641997 560.439989,103.254 C561.495994,103.866003 562.707982,104.172 564.075989,104.172 C566.043999,104.172 567.705982,103.506007 569.061989,102.174 C570.417996,100.841993 571.347986,99.0120116 571.851989,96.684 L572.571989,96.684 L572.571989,104.604 Z M587.00799,104.28 C586.311987,105.024004 585.519994,105.396 584.63199,105.396 C583.191983,105.396 582.375991,104.700007 582.18399,103.308 C580.575982,104.748007 579.075997,105.468 577.68399,105.468 C576.771985,105.468 576.003993,105.198003 575.37999,104.658 C574.755987,104.117997 574.44399,103.380005 574.44399,102.444 C574.44399,99.9239874 576.999964,98.2200044 582.11199,97.332 C582.11199,95.9159929 581.955992,94.9320028 581.64399,94.38 C581.331988,93.8279972 580.683995,93.552 579.69999,93.552 C579.219988,93.552 578.757992,93.7079984 578.31399,94.02 C577.869988,94.3320016 577.64799,94.7519974 577.64799,95.28 C577.64799,95.6400018 577.527991,95.9399988 577.28799,96.18 C577.047989,96.4200012 576.759992,96.54 576.42399,96.54 C576.063988,96.54 575.763991,96.4200012 575.52399,96.18 C575.283989,95.9399988 575.16399,95.6400018 575.16399,95.28 C575.16399,94.4399958 575.625985,93.7500027 576.54999,93.21 C577.473995,92.6699973 578.535984,92.4 579.73599,92.4 C581.487999,92.4 582.747986,92.7839962 583.51599,93.552 C584.283994,94.3200038 584.66799,95.5679914 584.66799,97.296 L584.66799,102.732 C584.66799,103.668005 584.943987,104.136 585.49599,104.136 C585.807992,104.136 586.143988,103.956002 586.50399,103.596 L587.00799,104.28 Z M582.11199,102.12 L582.11199,98.448 C578.799973,99.2160038 577.14399,100.403992 577.14399,102.012 C577.14399,102.564003 577.305988,103.007998 577.62999,103.344 C577.953992,103.680002 578.355988,103.848 578.83599,103.848 C579.723994,103.848 580.815984,103.272006 582.11199,102.12 Z M588.303991,94.272 L586.431991,94.272 L586.431991,93.408 C587.463996,93.1919989 588.219989,92.7240036 588.699991,92.004 C589.179993,91.2839964 589.49199,90.3000062 589.635991,89.052 L590.859991,89.052 L590.859991,93.012 L593.991991,93.012 L593.991991,94.272 L590.859991,94.272 L590.859991,101.472 C590.859991,103.200009 591.399986,104.064 592.479991,104.064 C593.175994,104.064 593.955987,103.656004 594.819991,102.84 L595.431991,103.452 C594.927988,104.052003 594.321995,104.543998 593.613991,104.928 C592.905987,105.312002 592.251994,105.504 591.651991,105.504 C590.619986,105.504 589.803994,105.168003 589.203991,104.496 C588.603988,103.823997 588.303991,102.816007 588.303991,101.472 L588.303991,94.272 Z M611.991992,105 L604.035992,105 L604.035992,104.244 C605.163998,104.244 605.871991,104.004002 606.159992,103.524 C606.447993,103.043998 606.591992,101.880009 606.591992,100.032 L606.591992,97.944 C606.591992,95.3759872 605.680001,94.092 603.855992,94.092 C602.895987,94.092 602.007996,94.4459965 601.191992,95.154 C600.375988,95.8620035 599.967992,96.7079951 599.967992,97.692 L599.967992,100.032 C599.967992,101.904009 600.099991,103.073998 600.363992,103.542 C600.627993,104.010002 601.251987,104.244 602.235992,104.244 L602.235992,105 L594.567992,105 L594.567992,104.244 C595.767998,104.244 596.54199,103.992003 596.889992,103.488 C597.237994,102.983997 597.411992,101.832009 597.411992,100.032 L597.411992,88.656 C597.411992,86.855991 597.237994,85.7040025 596.889992,85.2 C596.54199,84.6959975 595.767998,84.444 594.567992,84.444 L594.567992,83.688 L599.967992,82.788 L599.967992,94.992 C601.383999,93.2639914 602.955983,92.4 604.683992,92.4 C607.636007,92.4 609.111992,94.1879821 609.111992,97.764 L609.111992,100.032 C609.111992,101.832009 609.28599,102.983997 609.633992,103.488 C609.981994,103.992003 610.767986,104.244 611.991992,104.244 L611.991992,105 Z M624.627993,94.344 C626.068,95.6160064 626.787993,97.1639909 626.787993,98.988 C626.787993,100.812009 626.074,102.371994 624.645993,103.668 C623.217986,104.964006 621.508003,105.612 619.515993,105.612 C617.523983,105.612 615.814,104.964006 614.385993,103.668 C612.957986,102.371994 612.243993,100.812009 612.243993,98.988 C612.243993,97.1639909 612.957986,95.6100064 614.385993,94.326 C615.814,93.0419936 617.523983,92.4 619.515993,92.4 C621.508003,92.4 623.211986,93.0479935 624.627993,94.344 Z M622.755993,102.768 C623.499997,101.783995 623.871993,100.524008 623.871993,98.988 C623.871993,97.4519923 623.499997,96.1980049 622.755993,95.226 C622.011989,94.2539951 620.932,93.768 619.515993,93.768 C618.099986,93.768 617.019997,94.2599951 616.275993,95.244 C615.531989,96.2280049 615.159993,97.4759924 615.159993,98.988 C615.159993,100.500008 615.531989,101.747995 616.275993,102.732 C617.019997,103.716005 618.099986,104.208 619.515993,104.208 C620.932,104.208 622.011989,103.728005 622.755993,102.768 Z M638.739994,101.328 L638.739994,96.684 C638.403992,95.8199957 637.911997,95.1300026 637.263994,94.614 C636.615991,94.0979974 635.895998,93.84 635.103994,93.84 C633.759987,93.84 632.739997,94.3199952 632.043994,95.28 C631.347991,96.2400048 630.999994,97.4759924 630.999994,98.988 C630.999994,100.524008 631.347991,101.771995 632.043994,102.732 C632.739997,103.692005 633.759987,104.172 635.103994,104.172 C635.895998,104.172 636.615991,103.914003 637.263994,103.398 C637.911997,102.881997 638.403992,102.192004 638.739994,101.328 Z M638.739994,94.524 L638.739994,88.656 C638.739994,86.855991 638.565996,85.7040025 638.217994,85.2 C637.869992,84.6959975 637.096,84.444 635.895994,84.444 L635.895994,83.688 L641.295994,82.788 L641.295994,99.744 C641.295994,101.544009 641.469992,102.695997 641.817994,103.2 C642.165996,103.704003 642.939988,103.956 644.139994,103.956 L644.139994,104.712 L639.351994,105.612 C639.183993,105.251998 638.991995,104.520006 638.775994,103.416 C637.599988,104.880007 636.124003,105.612 634.347994,105.612 C632.643985,105.612 631.174,104.964006 629.937994,103.668 C628.701988,102.371994 628.083994,100.812009 628.083994,98.988 C628.083994,97.1639909 628.701988,95.6100064 629.937994,94.326 C631.174,93.0419936 632.643985,92.4 634.347994,92.4 C636.124003,92.4 637.587988,93.1079929 638.739994,94.524 Z M647.487995,96.756 L653.463995,96.756 C653.703996,96.0839966 653.601997,95.4300032 653.157995,94.794 C652.713993,94.1579968 651.952,93.84 650.871995,93.84 C650.103991,93.84 649.413998,94.1039974 648.801995,94.632 C648.189992,95.1600026 647.751996,95.8679956 647.487995,96.756 Z M647.271995,98.088 C647.055994,99.8640089 647.337991,101.309994 648.117995,102.426 C648.897999,103.542006 650.175986,104.1 651.951995,104.1 C652.551998,104.1 653.235991,103.944002 654.003995,103.632 C654.771999,103.319998 655.407992,102.924002 655.911995,102.444 L656.559995,103.236 C655.911992,103.932003 655.084,104.501998 654.075995,104.946 C653.06799,105.390002 652.06,105.612 651.051995,105.612 C649.107985,105.612 647.512001,104.970006 646.263995,103.686 C645.015989,102.401994 644.391995,100.836009 644.391995,98.988 C644.391995,97.1399908 645.069988,95.5800064 646.425995,94.308 C647.782002,93.0359936 649.323986,92.4 651.051995,92.4 C652.684003,92.4 654.01599,92.9699943 655.047995,94.11 C656.08,95.2500057 656.379997,96.5759924 655.947995,98.088 L647.271995,98.088 Z M673.803997,108.24 L673.011997,108.996 C667.61197,104.579978 664.911997,99.7080266 664.911997,94.38 C664.911997,89.0759735 667.59997,84.2040222 672.975997,79.764 L673.803997,80.52 C673.035993,81.3840043 672.4,82.1339968 671.895997,82.77 C671.391994,83.4060032 670.738001,84.3539937 669.933997,85.614 C669.129993,86.8740063 668.511999,88.2479926 668.079997,89.736 C667.647995,91.2240074 667.431997,92.771992 667.431997,94.38 C667.431997,95.988008 667.647995,97.5359926 668.079997,99.024 C668.511999,100.512007 669.129993,101.885994 669.933997,103.146 C670.738001,104.406006 671.391994,105.353997 671.895997,105.99 C672.4,106.626003 673.035993,107.375996 673.803997,108.24 Z M683.307998,92.472 L694.467998,102.156 C695.116001,102.708003 695.925993,103.193998 696.897998,103.614 C697.870003,104.034002 698.607995,104.244 699.111998,104.244 L699.111998,105 L688.995998,105 L688.995998,104.244 C690.172004,104.244 690.879997,104.046002 691.119998,103.65 C691.359999,103.253998 691.108002,102.756003 690.363998,102.156 L681.255998,94.272 L680.319998,95.028 L680.319998,100.032 C680.319998,101.832009 680.517996,102.983997 680.913998,103.488 C681.31,103.992003 682.251991,104.244 683.739998,104.244 L683.739998,105 L674.019998,105 L674.019998,104.244 C675.508005,104.244 676.449996,103.992003 676.845998,103.488 C677.242,102.983997 677.439998,101.832009 677.439998,100.032 L677.439998,88.332 C677.439998,86.531991 677.242,85.3860025 676.845998,84.894 C676.449996,84.4019975 675.508005,84.156 674.019998,84.156 L674.019998,83.4 L683.739998,83.4 L683.739998,84.156 C682.251991,84.156 681.31,84.4019975 680.913998,84.894 C680.517996,85.3860025 680.319998,86.531991 680.319998,88.332 L680.319998,93.372 L687.699998,87.072 C689.716008,85.1999906 689.764008,84.2280004 687.843998,84.156 L687.843998,83.4 L696.195998,83.4 L696.195998,84.156 C694.875991,84.156 693.778002,84.359998 692.901998,84.768 C692.025994,85.176002 690.928005,85.9439944 689.607998,87.072 L683.307998,92.472 Z M706.671999,94.38 C706.671999,99.7320268 703.984026,104.603978 698.607999,108.996 L697.779999,108.24 C698.572003,107.351996 699.213997,106.596003 699.705999,105.972 C700.198001,105.347997 700.851995,104.406006 701.667999,103.146 C702.484003,101.885994 703.107997,100.512007 703.539999,99.024 C703.972001,97.5359926 704.187999,95.988008 704.187999,94.38 C704.187999,92.771992 703.972001,91.2240074 703.539999,89.736 C703.107997,88.2479926 702.484003,86.8740063 701.667999,85.614 C700.851995,84.3539937 700.198001,83.4120031 699.705999,82.788 C699.213997,82.1639969 698.572003,81.4080044 697.779999,80.52 L698.643999,79.764 C703.996026,84.1800221 706.671999,89.0519734 706.671999,94.38 Z" id="Cathode-(K)-Copy" fill="#524740"></path>
            </g>
            <g id="Cathode" transform="translate(0.000000, 82.000000)">
                <rect id="Rectangle" fill="#3D3530" x="191" y="0" width="7" height="80"></rect>
                <path d="M192.880017,39.9008336 L0.880017,39.9008336" id="Path-8" stroke="#3D3530" stroke-width="3"></path>
            </g>
            <g id="Cathode-Copy" transform="translate(514.000000, 82.000000)">
                <rect id="Rectangle" fill="#3D3530" x="0" y="0" width="7" height="80"></rect>
                <path d="M193.880017,39.9008336 L1.880017,39.9008336" id="Path-8" stroke="#3D3530" stroke-width="3"></path>
            </g>
        </g>
        <path d="M15.628,44 L15.628,19.808 L21.1,19.808 C25.0840199,19.808 28.2519882,20.9599885 30.604,23.264 C32.9560118,25.5680115 34.132,28.4479827 34.132,31.904 C34.132,35.3360172 32.9500118,38.2099884 30.586,40.526 C28.2219882,42.8420116 25.0600198,44 21.1,44 L15.628,44 Z M18.004,41.732 L21.1,41.732 C24.2680158,41.732 26.7999905,40.8020093 28.696,38.942 C30.5920095,37.0819907 31.54,34.7360142 31.54,31.904 C31.54,29.0719858 30.5920095,26.7260093 28.696,24.866 C26.7999905,23.0059907 24.2680158,22.076 21.1,22.076 L18.004,22.076 L18.004,41.732 Z M38.632001,20.6 C38.3679997,20.8880014 38.032003,21.032 37.624001,21.032 C37.215999,21.032 36.8740024,20.8880014 36.598001,20.6 C36.3219996,20.3119986 36.184001,19.9760019 36.184001,19.592 C36.184001,19.2079981 36.3219996,18.8720014 36.598001,18.584 C36.8740024,18.2959986 37.215999,18.152 37.624001,18.152 C38.032003,18.152 38.3739996,18.2959986 38.650001,18.584 C38.9260024,18.8720014 39.064001,19.2079981 39.064001,19.592 C39.064001,19.9760019 38.9200024,20.3119986 38.632001,20.6 Z M36.436001,44 L36.436001,26 L38.812001,26 L38.812001,44 L36.436001,44 Z M56.704002,41.552 C54.903993,43.3760091 52.7200148,44.288 50.152002,44.288 C47.5839892,44.288 45.3940111,43.3820091 43.582002,41.57 C41.7699929,39.7579909 40.864002,37.5680128 40.864002,35 C40.864002,32.4319872 41.7699929,30.2420091 43.582002,28.43 C45.3940111,26.6179909 47.5839892,25.712 50.152002,25.712 C52.7200148,25.712 54.9099929,26.6179909 56.722002,28.43 C58.5340111,30.2420091 59.440002,32.4319872 59.440002,35 C59.440002,37.5440127 58.5280111,39.7279909 56.704002,41.552 Z M50.188002,42.02 C52.1320117,42.02 53.7699953,41.3420068 55.102002,39.986 C56.4340087,38.6299932 57.100002,36.9680098 57.100002,35 C57.100002,33.0319902 56.4340087,31.3640068 55.102002,29.996 C53.7699953,28.6279932 52.1320117,27.944 50.188002,27.944 C48.2679924,27.944 46.6360087,28.6279932 45.292002,29.996 C43.9479953,31.3640068 43.276002,33.0319902 43.276002,35 C43.276002,36.9680098 43.9479953,38.6299932 45.292002,39.986 C46.6360087,41.3420068 48.2679924,42.02 50.188002,42.02 Z M76.216003,17.216 L78.592003,17.216 L78.592003,44 L76.216003,44 L76.216003,41.084 C74.3679938,43.2200107 72.0280172,44.288 69.196003,44.288 C66.6279902,44.288 64.4380121,43.3820091 62.626003,41.57 C60.8139939,39.7579909 59.908003,37.5680128 59.908003,35 C59.908003,32.4319872 60.8139939,30.2420091 62.626003,28.43 C64.4380121,26.6179909 66.6279902,25.712 69.196003,25.712 C72.0520173,25.712 74.3919939,26.7799893 76.216003,28.916 L76.216003,17.216 Z M64.300003,40.004 C65.6440097,41.3480067 67.2879933,42.02 69.232003,42.02 C71.1760127,42.02 72.8139963,41.3420068 74.146003,39.986 C75.4780097,38.6299932 76.144003,36.9680098 76.144003,35 C76.144003,33.0319902 75.4780097,31.3700068 74.146003,30.014 C72.8139963,28.6579932 71.1760127,27.98 69.232003,27.98 C67.2879933,27.98 65.6440097,28.6579932 64.300003,30.014 C62.9559963,31.3700068 62.284003,33.0319902 62.284003,35 C62.284003,36.9680098 62.9559963,38.6359932 64.300003,40.004 Z M89.572004,41.912 C91.180012,41.912 92.6199976,41.4560046 93.892004,40.544 C95.1640104,39.6319954 96.0280017,38.5640061 96.484004,37.34 L98.500004,38.06 C97.9480012,39.5720076 96.874012,40.9639936 95.278004,42.236 C93.681996,43.5080064 91.780015,44.1320001 89.572004,44.108 C87.5559939,44.108 85.7140123,43.4840062 84.046004,42.236 C82.3779957,40.9879938 81.244007,39.3920097 80.644004,37.448 C80.4040028,36.655996 80.284004,35.7920047 80.284004,34.856 C80.284004,32.263987 81.183995,30.068009 82.984004,28.268 C84.784013,26.467991 86.979991,25.5560001 89.572004,25.532 C91.9240158,25.5560001 93.9759952,26.3479922 95.728004,27.908 C97.4800128,29.4680078 98.4880027,31.3999885 98.752004,33.704 C98.7760041,33.8240006 98.788004,33.979999 98.788004,34.172 L83.056004,37.016 C83.464006,38.4560072 84.2799979,39.6379954 85.504004,40.562 C86.7280101,41.4860046 88.0839966,41.9360001 89.572004,41.912 Z M89.356004,27.728 C87.555995,27.7520001 86.0140104,28.3999936 84.730004,29.672 C83.4459976,30.9440064 82.7560045,32.4679911 82.660004,34.244 C82.660004,34.3160004 82.6660039,34.4419991 82.678004,34.622 C82.6900041,34.8020009 82.696004,34.9519994 82.696004,35.072 L96.088004,32.66 C95.6320017,31.1959927 94.7800102,30.0020046 93.532004,29.078 C92.2839978,28.1539954 90.8920117,27.7039999 89.356004,27.728 Z" id="Diode-Copy" fill="#23ABE3"></path>
    </g>
</svg>