<?xml version="1.0" encoding="UTF-8"?>
<svg width="900px" height="410px" viewBox="0 0 900 410" version="1.1" xmlns="http://www.w3.org/2000/svg" xmlns:xlink="http://www.w3.org/1999/xlink">
    <!-- Generator: Sketch 52.5 (67469) - http://www.bohemiancoding.com/sketch -->
    <title>Diode_Forward_Bias</title>
    <desc>Created with Sketch.</desc>
    <g id="Diode_Forward_Bias" stroke="none" stroke-width="1" fill="none" fill-rule="evenodd">
        <rect id="Rectangle" stroke="#3D3530" stroke-width="2" fill="#EEEEEE" x="1" y="1" width="898" height="428"></rect>
        <g id="Illustration" transform="translate(79.000000, 26.000000)">
            <g id="Lattice-Junction" transform="translate(18.000000, 0.000000)">
                <g id="P-Type-Lattice" transform="translate(193.000000, 31.000000)">
                    <rect id="Rectangle" stroke="#999999" stroke-width="2" fill="#D4D4D4" x="1" y="1" width="158" height="158"></rect>
                    <circle id="Oval-Copy-3" fill="#252525" cx="20.5" cy="18.5" r="10.5"></circle>
                    <circle id="Oval-Copy-5" fill="#252525" cx="20.5" cy="58.5" r="10.5"></circle>
                    <circle id="Oval-Copy-6" fill="#252525" cx="20.5" cy="98.5" r="10.5"></circle>
                    <circle id="Oval-Copy-10" fill="#252525" cx="50.5" cy="38.5" r="10.5"></circle>
                    <circle id="Oval-Copy-8" fill="#252525" cx="50.5" cy="118.5" r="10.5"></circle>
                    <g id="Negative-Ion" transform="translate(100.000000, 28.000000)">
                        <circle id="Oval-Copy-26" fill="#84D0EF" cx="10.5" cy="10.5" r="10.5"></circle>
                        <rect id="Rectangle" fill="#524740" x="6" y="10" width="9" height="1"></rect>
                    </g>
                    <circle id="Oval-Copy-25" fill="#252525" cx="110.5" cy="78.5" r="10.5"></circle>
                    <circle id="Oval-Copy-24" fill="#252525" cx="110.5" cy="118.5" r="10.5"></circle>
                    <g id="Negative-Ion" transform="translate(40.000000, 68.000000)">
                        <circle id="Oval-Copy-9" fill="#84D0EF" cx="10.5" cy="10.5" r="10.5"></circle>
                        <rect id="Rectangle" fill="#524740" x="6" y="10" width="9" height="1"></rect>
                    </g>
                    <g id="Negative-Ion" transform="translate(10.000000, 128.000000)">
                        <circle id="Oval-Copy-7" fill="#84D0EF" cx="10.5" cy="10.5" r="10.5"></circle>
                        <rect id="Rectangle" fill="#524740" x="6" y="10" width="9" height="1"></rect>
                    </g>
                    <circle id="Oval-Copy-23" fill="#252525" cx="80.5" cy="18.5" r="10.5"></circle>
                    <circle id="Oval-Copy-22" fill="#252525" cx="80.5" cy="58.5" r="10.5"></circle>
                    <g id="Negative-Ion" transform="translate(70.000000, 88.000000)">
                        <circle id="Oval-Copy-21" fill="#84D0EF" cx="10.5" cy="10.5" r="10.5"></circle>
                        <rect id="Rectangle" fill="#524740" x="6" y="10" width="9" height="1"></rect>
                    </g>
                    <circle id="Oval-Copy-20" fill="#252525" cx="80.5" cy="138.5" r="10.5"></circle>
                    <circle id="Oval-Copy-30" fill="#252525" cx="140.5" cy="18.5" r="10.5"></circle>
                    <circle id="Oval-Copy-29" fill="#252525" cx="140.5" cy="58.5" r="10.5"></circle>
                    <circle id="Oval-Copy-28" fill="#252525" cx="140.5" cy="98.5" r="10.5"></circle>
                    <circle id="Oval-Copy-27" fill="#252525" cx="140.5" cy="138.5" r="10.5"></circle>
                    <g id="Little-Ones" transform="translate(4.000000, 23.000000)" fill="#84D0EF">
                        <circle id="Oval-Copy-31" cx="25.25" cy="53.25" r="3.25"></circle>
                        <circle id="Oval-Copy-32" cx="38.25" cy="32.25" r="3.25"></circle>
                        <circle id="Oval-Copy-33" cx="28.25" cy="4.25" r="3.25"></circle>
                        <circle id="Oval-Copy-34" cx="69.25" cy="12.25" r="3.25"></circle>
                        <circle id="Oval-Copy-35" cx="79.25" cy="52.25" r="3.25"></circle>
                        <circle id="Oval-Copy-36" cx="60.25" cy="73.25" r="3.25"></circle>
                        <circle id="Oval-Copy-37" cx="35.25" cy="84.25" r="3.25"></circle>
                        <circle id="Oval-Copy-38" cx="31.25" cy="126.25" r="3.25"></circle>
                        <circle id="Oval-Copy-39" cx="3.25" cy="93.25" r="3.25"></circle>
                        <circle id="Oval-Copy-40" cx="55.25" cy="111.25" r="3.25"></circle>
                        <circle id="Oval-Copy-42" cx="90.25" cy="92.25" r="3.25"></circle>
                        <circle id="Oval-Copy-43" cx="90.25" cy="122.25" r="3.25"></circle>
                        <circle id="Oval-Copy-49" cx="96.25" cy="3.25" r="3.25"></circle>
                    </g>
                </g>
                <g id="N-Type-Lattice" transform="translate(351.000000, 31.000000)">
                    <rect id="Rectangle" stroke="#999999" stroke-width="2" fill="#7D7570" x="1" y="1" width="158" height="158"></rect>
                    <circle id="Oval-Copy-3" fill="#252525" cx="20.5" cy="18.5" r="10.5"></circle>
                    <circle id="Oval-Copy-5" fill="#252525" cx="20.5" cy="58.5" r="10.5"></circle>
                    <circle id="Oval-Copy-6" fill="#252525" cx="20.5" cy="98.5" r="10.5"></circle>
                    <circle id="Oval-Copy-10" fill="#252525" cx="50.5" cy="38.5" r="10.5"></circle>
                    <g id="Positive-Ion" transform="translate(40.000000, 68.000000)">
                        <circle id="Oval-Copy-9" fill="#D7E465" cx="10.5" cy="10.5" r="10.5"></circle>
                        <path d="M10,10 L10,6 L11,6 L11,10 L15,10 L15,11 L11,11 L11,15 L10,15 L10,11 L6,11 L6,10 L10,10 Z" id="Combined-Shape" fill="#524740"></path>
                    </g>
                    <circle id="Oval-Copy-8" fill="#252525" cx="50.5" cy="118.5" r="10.5"></circle>
                    <g id="Positive-Ion" transform="translate(100.000000, 28.000000)">
                        <circle id="Oval-Copy-26" fill="#D7E465" cx="10.5" cy="10.5" r="10.5"></circle>
                        <path d="M10,10 L10,6 L11,6 L11,10 L15,10 L15,11 L11,11 L11,15 L10,15 L10,11 L6,11 L6,10 L10,10 Z" id="Combined-Shape" fill="#524740"></path>
                    </g>
                    <circle id="Oval-Copy-25" fill="#252525" cx="110.5" cy="78.5" r="10.5"></circle>
                    <circle id="Oval-Copy-24" fill="#252525" cx="110.5" cy="118.5" r="10.5"></circle>
                    <g id="Positive-Ion" transform="translate(10.000000, 128.000000)">
                        <circle id="Oval-Copy-7" fill="#D7E465" cx="10.5" cy="10.5" r="10.5"></circle>
                        <path d="M10,10 L10,6 L11,6 L11,10 L15,10 L15,11 L11,11 L11,15 L10,15 L10,11 L6,11 L6,10 L10,10 Z" id="Combined-Shape" fill="#524740"></path>
                    </g>
                    <circle id="Oval-Copy-23" fill="#252525" cx="80.5" cy="18.5" r="10.5"></circle>
                    <circle id="Oval-Copy-22" fill="#252525" cx="80.5" cy="58.5" r="10.5"></circle>
                    <g id="Positive-Ion" transform="translate(70.000000, 88.000000)">
                        <circle id="Oval-Copy-21" fill="#D7E465" cx="10.5" cy="10.5" r="10.5"></circle>
                        <path d="M10,10 L10,6 L11,6 L11,10 L15,10 L15,11 L11,11 L11,15 L10,15 L10,11 L6,11 L6,10 L10,10 Z" id="Combined-Shape" fill="#524740"></path>
                    </g>
                    <circle id="Oval-Copy-20" fill="#252525" cx="80.5" cy="138.5" r="10.5"></circle>
                    <circle id="Oval-Copy-30" fill="#252525" cx="140.5" cy="18.5" r="10.5"></circle>
                    <circle id="Oval-Copy-29" fill="#252525" cx="140.5" cy="58.5" r="10.5"></circle>
                    <circle id="Oval-Copy-28" fill="#252525" cx="140.5" cy="98.5" r="10.5"></circle>
                    <circle id="Oval-Copy-27" fill="#252525" cx="140.5" cy="138.5" r="10.5"></circle>
                    <g id="Little-ones" transform="translate(56.000000, 8.000000)" fill="#EF7D3B">
                        <circle id="Oval-Copy-34" cx="17.25" cy="27.25" r="3.25"></circle>
                        <circle id="Oval-Copy-35" cx="27.25" cy="67.25" r="3.25"></circle>
                        <circle id="Oval-Copy-36" cx="8.25" cy="88.25" r="3.25"></circle>
                        <circle id="Oval-Copy-40" cx="3.25" cy="126.25" r="3.25"></circle>
                        <circle id="Oval-Copy-41" cx="63.25" cy="126.25" r="3.25"></circle>
                        <circle id="Oval-Copy-42" cx="38.25" cy="107.25" r="3.25"></circle>
                        <circle id="Oval-Copy-43" cx="38.25" cy="137.25" r="3.25"></circle>
                        <circle id="Oval-Copy-44" cx="78.25" cy="146.25" r="3.25"></circle>
                        <circle id="Oval-Copy-45" cx="98.25" cy="96.25" r="3.25"></circle>
                        <circle id="Oval-Copy-46" cx="67.25" cy="82.25" r="3.25"></circle>
                        <circle id="Oval-Copy-47" cx="77.25" cy="37.25" r="3.25"></circle>
                        <circle id="Oval-Copy-48" cx="67.25" cy="3.25" r="3.25"></circle>
                        <circle id="Oval-Copy-49" cx="44.25" cy="18.25" r="3.25"></circle>
                    </g>
                </g>
                <circle id="Oval-Copy-41" fill="#84D0EF" cx="312.25" cy="165.25" r="3.25"></circle>
                <circle id="Oval-Copy-44" fill="#84D0EF" cx="327.25" cy="185.25" r="3.25"></circle>
                <circle id="Oval-Copy-45" fill="#84D0EF" cx="347.25" cy="135.25" r="3.25"></circle>
                <circle id="Oval-Copy-46" fill="#84D0EF" cx="316.25" cy="121.25" r="3.25"></circle>
                <circle id="Oval-Copy-47" fill="#84D0EF" cx="326.25" cy="76.25" r="3.25"></circle>
                <circle id="Oval-Copy-48" fill="#84D0EF" cx="316.25" cy="42.25" r="3.25"></circle>
                <circle id="Oval-Copy-31" fill="#EF7D3B" cx="380.25" cy="107.25" r="3.25"></circle>
                <circle id="Oval-Copy-32" fill="#EF7D3B" cx="393.25" cy="86.25" r="3.25"></circle>
                <circle id="Oval-Copy-33" fill="#EF7D3B" cx="383.25" cy="58.25" r="3.25"></circle>
                <circle id="Oval-Copy-37" fill="#EF7D3B" cx="390.25" cy="138.25" r="3.25"></circle>
                <circle id="Oval-Copy-38" fill="#EF7D3B" cx="386.25" cy="180.25" r="3.25"></circle>
                <circle id="Oval-Copy-39" fill="#EF7D3B" cx="358.25" cy="147.25" r="3.25"></circle>
                <path d="M248.248,2.6 C249.864008,2.6 251.127995,2.98399616 252.04,3.752 C252.952005,4.52000384 253.408,5.48799416 253.408,6.656 C253.408,7.82400584 252.952005,8.7879962 252.04,9.548 C251.127995,10.3080038 249.864008,10.688 248.248,10.688 L246.112,10.688 L246.112,13.688 C246.112,14.888006 246.243999,15.6559983 246.508,15.992 C246.772001,16.3280017 247.399995,16.496 248.392,16.496 L248.392,17 L241.912,17 L241.912,16.496 C242.904005,16.496 243.531999,16.3280017 243.796,15.992 C244.060001,15.6559983 244.192,14.888006 244.192,13.688 L244.192,5.888 C244.192,4.687994 244.060001,3.92400164 243.796,3.596 C243.531999,3.26799836 242.904005,3.104 241.912,3.104 L241.912,2.6 L248.248,2.6 Z M248.224,9.824 C249.216005,9.824 249.971997,9.52800296 250.492,8.936 C251.012003,8.34399704 251.272,7.58400464 251.272,6.656 C251.272,5.72799536 251.012003,4.96800296 250.492,4.376 C249.971997,3.78399704 249.216005,3.488 248.224,3.488 L246.112,3.488 L246.112,9.824 L248.224,9.824 Z M264.2,12.608 L257.192,12.608 L257.192,11.552 L264.2,11.552 L264.2,12.608 Z M281.376,2.6 L281.592,5.84 L281.088,5.84 L280.968,5.36 C280.775999,4.6399964 280.520002,4.15600124 280.2,3.908 C279.879998,3.65999876 279.208005,3.536 278.184,3.536 L275.04,3.536 L275.04,13.688 C275.04,14.888006 275.175999,15.6559983 275.448,15.992 C275.720001,16.3280017 276.351995,16.496 277.344,16.496 L277.344,17 L270.84,17 L270.84,16.496 C271.832005,16.496 272.463999,16.3280017 272.736,15.992 C273.008001,15.6559983 273.144,14.888006 273.144,13.688 L273.144,3.536 L270,3.536 C268.975995,3.536 268.304002,3.65999876 267.984,3.908 C267.663998,4.15600124 267.408001,4.6399964 267.216,5.36 L267.096,5.84 L266.592,5.84 L266.808,2.6 L281.376,2.6 Z M282.544,22.688 C282.544,22.4319987 282.639999,22.204001 282.832,22.004 C283.024001,21.803999 283.275998,21.5320017 283.588,21.188 C283.900002,20.8439983 284.159999,20.4080026 284.368,19.88 L285.568,16.88 L282.808,10.904 C282.551999,10.3599973 282.312001,9.988001 282.088,9.788 C281.863999,9.587999 281.568002,9.488 281.2,9.488 L281.2,9.008 L285.448,9.008 L285.448,9.488 C284.903997,9.488 284.576001,9.57599912 284.464,9.752 C284.351999,9.92800088 284.423999,10.311997 284.68,10.904 L286.432,14.744 L287.968,10.904 C288.192001,10.3599973 288.256,9.988001 288.16,9.788 C288.064,9.587999 287.768002,9.488 287.272,9.488 L287.272,9.008 L290.632,9.008 L290.632,9.488 C289.879996,9.488 289.312002,9.95999528 288.928,10.904 L284.248,22.592 C284.007999,23.184003 283.712002,23.48 283.36,23.48 C283.151999,23.48 282.964001,23.4160006 282.796,23.288 C282.627999,23.1599994 282.544,22.9600014 282.544,22.688 Z M299.864,15.488 C300.328002,14.8319967 300.56,14.000005 300.56,12.992 C300.56,11.983995 300.328002,11.1600032 299.864,10.52 C299.399998,9.8799968 298.728004,9.56 297.848,9.56 C297.303997,9.56 296.820002,9.72799832 296.396,10.064 C295.971998,10.4000017 295.640001,10.8559971 295.4,11.432 L295.4,14.528 C295.640001,15.120003 295.971998,15.5879983 296.396,15.932 C296.820002,16.2760017 297.303997,16.448 297.848,16.448 C298.728004,16.448 299.399998,16.1280032 299.864,15.488 Z M295.4,19.712 C295.4,20.8960059 295.515999,21.6559983 295.748,21.992 C295.980001,22.3280017 296.495996,22.496 297.296,22.496 L297.296,23 L291.8,23 L291.8,22.496 C292.600004,22.496 293.115999,22.3320016 293.348,22.004 C293.580001,21.6759984 293.696,20.912006 293.696,19.712 L293.696,12.488 C293.696,11.287994 293.580001,10.5240016 293.348,10.196 C293.115999,9.86799836 292.600004,9.704 291.8,9.704 L291.8,9.2 L295.016,8.6 C295.112,8.77600088 295.231999,9.263996 295.376,10.064 C296.192004,9.08799512 297.183994,8.6 298.352,8.6 C299.488006,8.6 300.463996,9.02799572 301.28,9.884 C302.096004,10.7400043 302.504,11.7759939 302.504,12.992 C302.504,14.2080061 302.096004,15.2479957 301.28,16.112 C300.463996,16.9760043 299.488006,17.408 298.352,17.408 C297.167994,17.408 296.184004,16.9280048 295.4,15.968 L295.4,19.712 Z M307.872,11.504 L311.856,11.504 C312.016001,11.0559978 311.948001,10.6200021 311.652,10.196 C311.355999,9.77199788 310.848004,9.56 310.128,9.56 C309.615997,9.56 309.156002,9.73599824 308.748,10.088 C308.339998,10.4400018 308.048001,10.911997 307.872,11.504 Z M307.728,12.392 C307.583999,13.5760059 307.771997,14.5399963 308.292,15.284 C308.812003,16.0280037 309.663994,16.4 310.848,16.4 C311.248002,16.4 311.703997,16.296001 312.216,16.088 C312.728003,15.879999 313.151998,15.6160016 313.488,15.296 L313.92,15.824 C313.487998,16.2880023 312.936003,16.6679985 312.264,16.964 C311.591997,17.2600015 310.920003,17.408 310.248,17.408 C308.951994,17.408 307.888004,16.9800043 307.056,16.124 C306.223996,15.2679957 305.808,14.2240062 305.808,12.992 C305.808,11.7599938 306.259995,10.7200042 307.164,9.872 C308.068005,9.02399576 309.095994,8.6 310.248,8.6 C311.336005,8.6 312.223997,8.9799962 312.912,9.74 C313.600003,10.5000038 313.800001,11.383995 313.512,12.392 L307.728,12.392 Z" id="P-Type-Copy" fill="#524740"></path>
                <path d="M401.512,14.024 L401.512,5.888 C401.512,4.687994 401.380001,3.92400164 401.116,3.596 C400.851999,3.26799836 400.224005,3.104 399.232,3.104 L399.232,2.6 L404.704,2.6 L404.704,3.104 C403.711995,3.104 403.080001,3.26799836 402.808,3.596 C402.535999,3.92400164 402.4,4.687994 402.4,5.888 L402.4,17.408 L401.848,17.408 L392.08,5.336 L392.08,13.688 C392.08,14.888006 392.215999,15.6559983 392.488,15.992 C392.760001,16.3280017 393.391995,16.496 394.384,16.496 L394.384,17 L388.912,17 L388.912,16.496 C389.904005,16.496 390.531999,16.3280017 390.796,15.992 C391.060001,15.6559983 391.192,14.888006 391.192,13.688 L391.192,5.888 C391.192,4.687994 391.060001,3.92400164 390.796,3.596 C390.531999,3.26799836 389.904005,3.104 388.912,3.104 L388.912,2.6 L392.296,2.6 L401.512,14.024 Z M415.4,12.608 L408.392,12.608 L408.392,11.552 L415.4,11.552 L415.4,12.608 Z M432.576,2.6 L432.792,5.84 L432.288,5.84 L432.168,5.36 C431.975999,4.6399964 431.720002,4.15600124 431.4,3.908 C431.079998,3.65999876 430.408005,3.536 429.384,3.536 L426.24,3.536 L426.24,13.688 C426.24,14.888006 426.375999,15.6559983 426.648,15.992 C426.920001,16.3280017 427.551995,16.496 428.544,16.496 L428.544,17 L422.04,17 L422.04,16.496 C423.032005,16.496 423.663999,16.3280017 423.936,15.992 C424.208001,15.6559983 424.344,14.888006 424.344,13.688 L424.344,3.536 L421.2,3.536 C420.175995,3.536 419.504002,3.65999876 419.184,3.908 C418.863998,4.15600124 418.608001,4.6399964 418.416,5.36 L418.296,5.84 L417.792,5.84 L418.008,2.6 L432.576,2.6 Z M433.744,22.688 C433.744,22.4319987 433.839999,22.204001 434.032,22.004 C434.224001,21.803999 434.475998,21.5320017 434.788,21.188 C435.100002,20.8439983 435.359999,20.4080026 435.568,19.88 L436.768,16.88 L434.008,10.904 C433.751999,10.3599973 433.512001,9.988001 433.288,9.788 C433.063999,9.587999 432.768002,9.488 432.4,9.488 L432.4,9.008 L436.648,9.008 L436.648,9.488 C436.103997,9.488 435.776001,9.57599912 435.664,9.752 C435.551999,9.92800088 435.623999,10.311997 435.88,10.904 L437.632,14.744 L439.168,10.904 C439.392001,10.3599973 439.456,9.988001 439.36,9.788 C439.264,9.587999 438.968002,9.488 438.472,9.488 L438.472,9.008 L441.832,9.008 L441.832,9.488 C441.079996,9.488 440.512002,9.95999528 440.128,10.904 L435.448,22.592 C435.207999,23.184003 434.912002,23.48 434.56,23.48 C434.351999,23.48 434.164001,23.4160006 433.996,23.288 C433.827999,23.1599994 433.744,22.9600014 433.744,22.688 Z M451.064,15.488 C451.528002,14.8319967 451.76,14.000005 451.76,12.992 C451.76,11.983995 451.528002,11.1600032 451.064,10.52 C450.599998,9.8799968 449.928004,9.56 449.048,9.56 C448.503997,9.56 448.020002,9.72799832 447.596,10.064 C447.171998,10.4000017 446.840001,10.8559971 446.6,11.432 L446.6,14.528 C446.840001,15.120003 447.171998,15.5879983 447.596,15.932 C448.020002,16.2760017 448.503997,16.448 449.048,16.448 C449.928004,16.448 450.599998,16.1280032 451.064,15.488 Z M446.6,19.712 C446.6,20.8960059 446.715999,21.6559983 446.948,21.992 C447.180001,22.3280017 447.695996,22.496 448.496,22.496 L448.496,23 L443,23 L443,22.496 C443.800004,22.496 444.315999,22.3320016 444.548,22.004 C444.780001,21.6759984 444.896,20.912006 444.896,19.712 L444.896,12.488 C444.896,11.287994 444.780001,10.5240016 444.548,10.196 C444.315999,9.86799836 443.800004,9.704 443,9.704 L443,9.2 L446.216,8.6 C446.312,8.77600088 446.431999,9.263996 446.576,10.064 C447.392004,9.08799512 448.383994,8.6 449.552,8.6 C450.688006,8.6 451.663996,9.02799572 452.48,9.884 C453.296004,10.7400043 453.704,11.7759939 453.704,12.992 C453.704,14.2080061 453.296004,15.2479957 452.48,16.112 C451.663996,16.9760043 450.688006,17.408 449.552,17.408 C448.367994,17.408 447.384004,16.9280048 446.6,15.968 L446.6,19.712 Z M459.072,11.504 L463.056,11.504 C463.216001,11.0559978 463.148001,10.6200021 462.852,10.196 C462.555999,9.77199788 462.048004,9.56 461.328,9.56 C460.815997,9.56 460.356002,9.73599824 459.948,10.088 C459.539998,10.4400018 459.248001,10.911997 459.072,11.504 Z M458.928,12.392 C458.783999,13.5760059 458.971997,14.5399963 459.492,15.284 C460.012003,16.0280037 460.863994,16.4 462.048,16.4 C462.448002,16.4 462.903997,16.296001 463.416,16.088 C463.928003,15.879999 464.351998,15.6160016 464.688,15.296 L465.12,15.824 C464.687998,16.2880023 464.136003,16.6679985 463.464,16.964 C462.791997,17.2600015 462.120003,17.408 461.448,17.408 C460.151994,17.408 459.088004,16.9800043 458.256,16.124 C457.423996,15.2679957 457.008,14.2240062 457.008,12.992 C457.008,11.7599938 457.459995,10.7200042 458.364,9.872 C459.268005,9.02399576 460.295994,8.6 461.448,8.6 C462.536005,8.6 463.423997,8.9799962 464.112,9.74 C464.800003,10.5000038 465.000001,11.383995 464.712,12.392 L458.928,12.392 Z" id="N-Type-Copy" fill="#524740"></path>
                <path d="M4.984,82.008 L3.832,84.672 C3.52799848,85.3280033 3.5159986,85.7959986 3.796,86.076 C4.0760014,86.3560014 4.71199504,86.496 5.704,86.496 L5.704,87 L0.088,87 L0.088,86.496 C0.60000256,86.496 0.9959986,86.4760002 1.276,86.436 C1.5560014,86.3959998 1.80399892,86.2680011 2.02,86.052 C2.23600108,85.8359989 2.38799956,85.6400009 2.476,85.464 C2.56400044,85.2879991 2.7279988,84.9360026 2.968,84.408 L8.248,72.192 L8.56,72.192 L13.864,84.408 C14.1040012,84.9360026 14.2679996,85.2879991 14.356,85.464 C14.4440004,85.6400009 14.5959989,85.8359989 14.812,86.052 C15.0280011,86.2680011 15.2719986,86.3959998 15.544,86.436 C15.8160014,86.4760002 16.2079974,86.496 16.72,86.496 L16.72,87 L10.072,87 L10.072,86.496 C11.064005,86.496 11.6959986,86.3560014 11.968,86.076 C12.2400014,85.7959986 12.2320014,85.3280033 11.944,84.672 L10.792,82.008 L4.984,82.008 Z M10.384,81.12 L7.864,75.336 L5.368,81.12 L10.384,81.12 Z M21.32,80.328 C22.2320046,79.1759942 23.3439934,78.6 24.656,78.6 C25.6960052,78.6 26.4759974,78.9279967 26.996,79.584 C27.5160026,80.2400033 27.776,81.1039946 27.776,82.176 L27.776,83.688 C27.776,84.888006 27.8919988,85.6559983 28.124,85.992 C28.3560012,86.3280017 28.871996,86.496 29.672,86.496 L29.672,87 L24.176,87 L24.176,86.496 C24.9600039,86.496 25.4719988,86.3240017 25.712,85.98 C25.9520012,85.6359983 26.072,84.8720059 26.072,83.688 L26.072,82.296 C26.072,80.5839914 25.4080066,79.728 24.08,79.728 C23.3919966,79.728 22.7600029,79.9679976 22.184,80.448 C21.6079971,80.9280024 21.32,81.4879968 21.32,82.128 L21.32,83.688 C21.32,84.9200062 21.415999,85.6959984 21.608,86.016 C21.800001,86.3360016 22.2639963,86.496 23,86.496 L23,87 L17.72,87 L17.72,86.496 C18.520004,86.496 19.0359988,86.3280017 19.268,85.992 C19.5000012,85.6559983 19.616,84.888006 19.616,83.688 L19.616,82.488 C19.616,81.3039941 19.5000012,80.5440017 19.268,80.208 C19.0359988,79.8719983 18.520004,79.704 17.72,79.704 L17.72,79.2 L20.912,78.6 C21.0560007,78.9040015 21.1919994,79.4799958 21.32,80.328 Z M40.536,79.896 C41.4960048,80.7440042 41.976,81.7759939 41.976,82.992 C41.976,84.2080061 41.5000048,85.2479957 40.548,86.112 C39.5959952,86.9760043 38.4560066,87.408 37.128,87.408 C35.7999934,87.408 34.6600048,86.9760043 33.708,86.112 C32.7559952,85.2479957 32.28,84.2080061 32.28,82.992 C32.28,81.7759939 32.7559952,80.7400043 33.708,79.884 C34.6600048,79.0279957 35.7999934,78.6 37.128,78.6 C38.4560066,78.6 39.5919953,79.0319957 40.536,79.896 Z M39.288,85.512 C39.7840025,84.8559967 40.032,84.0160051 40.032,82.992 C40.032,81.9679949 39.7840025,81.1320032 39.288,80.484 C38.7919975,79.8359968 38.0720047,79.512 37.128,79.512 C36.1839953,79.512 35.4640025,79.8399967 34.968,80.496 C34.4719975,81.1520033 34.224,81.983995 34.224,82.992 C34.224,84.000005 34.4719975,84.8319967 34.968,85.488 C35.4640025,86.1440033 36.1839953,86.472 37.128,86.472 C38.0720047,86.472 38.7919975,86.1520032 39.288,85.512 Z M52.384,84.552 L52.384,81.456 C52.1599989,80.8799971 51.8320022,80.4200017 51.4,80.076 C50.9679978,79.7319983 50.4880026,79.56 49.96,79.56 C49.0639955,79.56 48.3840023,79.8799968 47.92,80.52 C47.4559977,81.1600032 47.224,81.983995 47.224,82.992 C47.224,84.0160051 47.4559977,84.8479968 47.92,85.488 C48.3840023,86.1280032 49.0639955,86.448 49.96,86.448 C50.4880026,86.448 50.9679978,86.2760017 51.4,85.932 C51.8320022,85.5879983 52.1599989,85.1280029 52.384,84.552 Z M52.384,80.016 L52.384,76.104 C52.384,74.903994 52.2680012,74.1360017 52.036,73.8 C51.8039988,73.4639983 51.288004,73.296 50.488,73.296 L50.488,72.792 L54.088,72.192 L54.088,83.496 C54.088,84.696006 54.2039988,85.4639983 54.436,85.8 C54.6680012,86.1360017 55.183996,86.304 55.984,86.304 L55.984,86.808 L52.792,87.408 C52.6799994,87.1679988 52.5520007,86.6800037 52.408,85.944 C51.6239961,86.9200049 50.6400059,87.408 49.456,87.408 C48.3199943,87.408 47.3400041,86.9760043 46.516,86.112 C45.6919959,85.2479957 45.28,84.2080061 45.28,82.992 C45.28,81.7759939 45.6919959,80.7400043 46.516,79.884 C47.3400041,79.0279957 48.3199943,78.6 49.456,78.6 C50.6400059,78.6 51.6159962,79.0719953 52.384,80.016 Z M60.656,81.504 L64.64,81.504 C64.8000008,81.0559978 64.7320015,80.6200021 64.436,80.196 C64.1399985,79.7719979 63.6320036,79.56 62.912,79.56 C62.3999974,79.56 61.940002,79.7359982 61.532,80.088 C61.123998,80.4400018 60.8320009,80.911997 60.656,81.504 Z M60.512,82.392 C60.3679993,83.5760059 60.5559974,84.5399963 61.076,85.284 C61.5960026,86.0280037 62.4479941,86.4 63.632,86.4 C64.032002,86.4 64.4879974,86.296001 65,86.088 C65.5120026,85.879999 65.9359983,85.6160016 66.272,85.296 L66.704,85.824 C66.2719978,86.2880023 65.7200034,86.6679985 65.048,86.964 C64.3759966,87.2600015 63.7040034,87.408 63.032,87.408 C61.7359935,87.408 60.6720042,86.9800043 59.84,86.124 C59.0079958,85.2679957 58.592,84.2240062 58.592,82.992 C58.592,81.7599938 59.0439955,80.7200042 59.948,79.872 C60.8520045,79.0239958 61.8799942,78.6 63.032,78.6 C64.1200054,78.6 65.0079966,78.9799962 65.696,79.74 C66.3840034,80.5000038 66.5840014,81.383995 66.296,82.392 L60.512,82.392 Z M83.08,89.16 L82.552,89.664 C78.951982,86.7199853 77.152,83.4720178 77.152,79.92 C77.152,76.3839823 78.9439821,73.1360148 82.528,70.176 L83.08,70.68 C82.5679974,71.2560029 82.1440017,71.7559979 81.808,72.18 C81.4719983,72.6040021 81.0360027,73.2359958 80.5,74.076 C79.9639973,74.9160042 79.5520014,75.831995 79.264,76.824 C78.9759986,77.816005 78.832,78.8479946 78.832,79.92 C78.832,80.9920054 78.9759986,82.023995 79.264,83.016 C79.5520014,84.008005 79.9639973,84.9239958 80.5,85.764 C81.0360027,86.6040042 81.4719983,87.2359979 81.808,87.66 C82.1440017,88.0840021 82.5679974,88.5839971 83.08,89.16 Z M88.736,82.008 L87.584,84.672 C87.2799985,85.3280033 87.2679986,85.7959986 87.548,86.076 C87.8280014,86.3560014 88.463995,86.496 89.456,86.496 L89.456,87 L83.84,87 L83.84,86.496 C84.3520026,86.496 84.7479986,86.4760002 85.028,86.436 C85.3080014,86.3959998 85.5559989,86.2680011 85.772,86.052 C85.9880011,85.8359989 86.1399996,85.6400009 86.228,85.464 C86.3160004,85.2879991 86.4799988,84.9360026 86.72,84.408 L92,72.192 L92.312,72.192 L97.616,84.408 C97.8560012,84.9360026 98.0199996,85.2879991 98.108,85.464 C98.1960004,85.6400009 98.3479989,85.8359989 98.564,86.052 C98.7800011,86.2680011 99.0239986,86.3959998 99.296,86.436 C99.5680014,86.4760002 99.9599974,86.496 100.472,86.496 L100.472,87 L93.824,87 L93.824,86.496 C94.816005,86.496 95.4479986,86.3560014 95.72,86.076 C95.9920014,85.7959986 95.9840014,85.3280033 95.696,84.672 L94.544,82.008 L88.736,82.008 Z M94.136,81.12 L91.616,75.336 L89.12,81.12 L94.136,81.12 Z M107.16,79.92 C107.16,83.4880178 105.368018,86.7359854 101.784,89.664 L101.232,89.16 C101.760003,88.567997 102.187998,88.0640021 102.516,87.648 C102.844002,87.2319979 103.279997,86.6040042 103.824,85.764 C104.368003,84.9239958 104.783999,84.008005 105.072,83.016 C105.360001,82.023995 105.504,80.9920054 105.504,79.92 C105.504,78.8479946 105.360001,77.816005 105.072,76.824 C104.783999,75.831995 104.368003,74.9160042 103.824,74.076 C103.279997,73.2359958 102.844002,72.6080021 102.516,72.192 C102.187998,71.7759979 101.760003,71.272003 101.232,70.68 L101.808,70.176 C105.376018,73.1200147 107.16,76.3679822 107.16,79.92 Z" id="Anode-(A)-Copy" fill="#524740"></path>
                <path d="M582.708,86.736 L582.228,86.736 C582.099999,86.1119969 581.828002,85.6560014 581.412,85.368 C580.099993,86.7280068 578.612008,87.408 576.948,87.408 C574.91599,87.408 573.180007,86.6640074 571.74,85.176 C570.299993,83.6879926 569.58,81.8960105 569.58,79.8 C569.58,77.7039895 570.299993,75.9120074 571.74,74.424 C573.180007,72.9359926 574.91599,72.192 576.948,72.192 C578.644008,72.192 580.131994,72.8719932 581.412,74.232 C581.844002,73.8959983 582.115999,73.4400029 582.228,72.864 L582.708,72.864 L582.708,78.144 L582.228,78.144 C581.891998,76.5599921 581.272005,75.3280044 580.368,74.448 C579.463995,73.5679956 578.356007,73.128 577.044,73.128 C576.131995,73.128 575.324004,73.331998 574.62,73.74 C573.915996,74.148002 573.368002,74.6879966 572.976,75.36 C572.583998,76.0320034 572.292001,76.7439962 572.1,77.496 C571.907999,78.2480038 571.812,79.0159961 571.812,79.8 C571.812,80.5840039 571.907999,81.3519962 572.1,82.104 C572.292001,82.8560038 572.583998,83.5639967 572.976,84.228 C573.368002,84.8920033 573.915996,85.427998 574.62,85.836 C575.324004,86.244002 576.131995,86.448 577.044,86.448 C578.356007,86.448 579.463995,86.0040044 580.368,85.116 C581.272005,84.2279956 581.891998,83.0080078 582.228,81.456 L582.708,81.456 L582.708,86.736 Z M594.772,86.52 C594.307998,87.0160025 593.780003,87.264 593.188,87.264 C592.227995,87.264 591.684001,86.8000046 591.556,85.872 C590.483995,86.8320048 589.484005,87.312 588.556,87.312 C587.947997,87.312 587.436002,87.1320018 587.02,86.772 C586.603998,86.4119982 586.396,85.9200031 586.396,85.296 C586.396,83.6159916 588.099983,82.480003 591.508,81.888 C591.508,80.9439953 591.404001,80.2880018 591.196,79.92 C590.987999,79.5519982 590.556003,79.368 589.9,79.368 C589.579998,79.368 589.272001,79.471999 588.976,79.68 C588.679999,79.888001 588.532,80.1679982 588.532,80.52 C588.532,80.7600012 588.452001,80.9599992 588.292,81.12 C588.131999,81.2800008 587.940001,81.36 587.716,81.36 C587.475999,81.36 587.276001,81.2800008 587.116,81.12 C586.955999,80.9599992 586.876,80.7600012 586.876,80.52 C586.876,79.9599972 587.183997,79.5000018 587.8,79.14 C588.416003,78.7799982 589.123996,78.6 589.924,78.6 C591.092006,78.6 591.931997,78.8559974 592.444,79.368 C592.956003,79.8800026 593.212,80.7119942 593.212,81.864 L593.212,85.488 C593.212,86.1120031 593.395998,86.424 593.764,86.424 C593.972001,86.424 594.195999,86.3040012 594.436,86.064 L594.772,86.52 Z M591.508,85.08 L591.508,82.632 C589.299989,83.1440026 588.196,83.9359946 588.196,85.008 C588.196,85.3760018 588.303999,85.6719989 588.52,85.896 C588.736001,86.1200011 589.003998,86.232 589.324,86.232 C589.916003,86.232 590.643996,85.8480038 591.508,85.08 Z M598.076,79.848 L596.828,79.848 L596.828,79.272 C597.516003,79.1279993 598.019998,78.8160024 598.34,78.336 C598.660002,77.8559976 598.868,77.2000042 598.964,76.368 L599.78,76.368 L599.78,79.008 L601.868,79.008 L601.868,79.848 L599.78,79.848 L599.78,84.648 C599.78,85.8000058 600.139996,86.376 600.86,86.376 C601.324002,86.376 601.843997,86.1040027 602.42,85.56 L602.828,85.968 C602.491998,86.368002 602.088002,86.6959987 601.616,86.952 C601.143998,87.2080013 600.708002,87.336 600.308,87.336 C599.619997,87.336 599.076002,87.1120022 598.676,86.664 C598.275998,86.2159978 598.076,85.5440045 598.076,84.648 L598.076,79.848 Z M616.308,87 L611.004,87 L611.004,86.496 C611.756004,86.496 612.227999,86.3360016 612.42,86.016 C612.612001,85.6959984 612.708,84.9200062 612.708,83.688 L612.708,82.296 C612.708,80.5839914 612.100006,79.728 610.884,79.728 C610.243997,79.728 609.652003,79.9639976 609.108,80.436 C608.563997,80.9080024 608.292,81.4719967 608.292,82.128 L608.292,83.688 C608.292,84.9360062 608.379999,85.7159984 608.556,86.028 C608.732001,86.3400016 609.147997,86.496 609.804,86.496 L609.804,87 L604.692,87 L604.692,86.496 C605.492004,86.496 606.007999,86.3280017 606.24,85.992 C606.472001,85.6559983 606.588,84.888006 606.588,83.688 L606.588,76.104 C606.588,74.903994 606.472001,74.1360017 606.24,73.8 C606.007999,73.4639983 605.492004,73.296 604.692,73.296 L604.692,72.792 L608.292,72.192 L608.292,80.328 C609.236005,79.1759942 610.283994,78.6 611.436,78.6 C613.40401,78.6 614.388,79.7919881 614.388,82.176 L614.388,83.688 C614.388,84.888006 614.503999,85.6559983 614.736,85.992 C614.968001,86.3280017 615.491996,86.496 616.308,86.496 L616.308,87 Z M627.172,79.896 C628.132005,80.7440042 628.612,81.7759939 628.612,82.992 C628.612,84.2080061 628.136005,85.2479957 627.184,86.112 C626.231995,86.9760043 625.092007,87.408 623.764,87.408 C622.435993,87.408 621.296005,86.9760043 620.344,86.112 C619.391995,85.2479957 618.916,84.2080061 618.916,82.992 C618.916,81.7759939 619.391995,80.7400043 620.344,79.884 C621.296005,79.0279957 622.435993,78.6 623.764,78.6 C625.092007,78.6 626.227995,79.0319957 627.172,79.896 Z M625.924,85.512 C626.420002,84.8559967 626.668,84.0160051 626.668,82.992 C626.668,81.9679949 626.420002,81.1320032 625.924,80.484 C625.427998,79.8359968 624.708005,79.512 623.764,79.512 C622.819995,79.512 622.100002,79.8399967 621.604,80.496 C621.107998,81.1520033 620.86,81.983995 620.86,82.992 C620.86,84.000005 621.107998,84.8319967 621.604,85.488 C622.100002,86.1440033 622.819995,86.472 623.764,86.472 C624.708005,86.472 625.427998,86.1520032 625.924,85.512 Z M639.02,84.552 L639.02,81.456 C638.795999,80.8799971 638.468002,80.4200017 638.036,80.076 C637.603998,79.7319983 637.124003,79.56 636.596,79.56 C635.699996,79.56 635.020002,79.8799968 634.556,80.52 C634.091998,81.1600032 633.86,81.983995 633.86,82.992 C633.86,84.0160051 634.091998,84.8479968 634.556,85.488 C635.020002,86.1280032 635.699996,86.448 636.596,86.448 C637.124003,86.448 637.603998,86.2760017 638.036,85.932 C638.468002,85.5879983 638.795999,85.1280029 639.02,84.552 Z M639.02,80.016 L639.02,76.104 C639.02,74.903994 638.904001,74.1360017 638.672,73.8 C638.439999,73.4639983 637.924004,73.296 637.124,73.296 L637.124,72.792 L640.724,72.192 L640.724,83.496 C640.724,84.696006 640.839999,85.4639983 641.072,85.8 C641.304001,86.1360017 641.819996,86.304 642.62,86.304 L642.62,86.808 L639.428,87.408 C639.315999,87.1679988 639.188001,86.6800037 639.044,85.944 C638.259996,86.9200049 637.276006,87.408 636.092,87.408 C634.955994,87.408 633.976004,86.9760043 633.152,86.112 C632.327996,85.2479957 631.916,84.2080061 631.916,82.992 C631.916,81.7759939 632.327996,80.7400043 633.152,79.884 C633.976004,79.0279957 634.955994,78.6 636.092,78.6 C637.276006,78.6 638.251996,79.0719953 639.02,80.016 Z M647.292,81.504 L651.276,81.504 C651.436001,81.0559978 651.368001,80.6200021 651.072,80.196 C650.775999,79.7719979 650.268004,79.56 649.548,79.56 C649.035997,79.56 648.576002,79.7359982 648.168,80.088 C647.759998,80.4400018 647.468001,80.911997 647.292,81.504 Z M647.148,82.392 C647.003999,83.5760059 647.191997,84.5399963 647.712,85.284 C648.232003,86.0280037 649.083994,86.4 650.268,86.4 C650.668002,86.4 651.123997,86.296001 651.636,86.088 C652.148003,85.879999 652.571998,85.6160016 652.908,85.296 L653.34,85.824 C652.907998,86.2880023 652.356003,86.6679985 651.684,86.964 C651.011997,87.2600015 650.340003,87.408 649.668,87.408 C648.371994,87.408 647.308004,86.9800043 646.476,86.124 C645.643996,85.2679957 645.228,84.2240062 645.228,82.992 C645.228,81.7599938 645.679995,80.7200042 646.584,79.872 C647.488005,79.0239958 648.515994,78.6 649.668,78.6 C650.756005,78.6 651.643997,78.9799962 652.332,79.74 C653.020003,80.5000038 653.220001,81.383995 652.932,82.392 L647.148,82.392 Z M669.716,89.16 L669.188,89.664 C665.587982,86.7199853 663.788,83.4720178 663.788,79.92 C663.788,76.3839823 665.579982,73.1360148 669.164,70.176 L669.716,70.68 C669.203997,71.2560029 668.780002,71.7559979 668.444,72.18 C668.107998,72.6040021 667.672003,73.2359958 667.136,74.076 C666.599997,74.9160042 666.188001,75.831995 665.9,76.824 C665.611999,77.816005 665.468,78.8479946 665.468,79.92 C665.468,80.9920054 665.611999,82.023995 665.9,83.016 C666.188001,84.008005 666.599997,84.9239958 667.136,85.764 C667.672003,86.6040042 668.107998,87.2359979 668.444,87.66 C668.780002,88.0840021 669.203997,88.5839971 669.716,89.16 Z M678.492,78.648 L685.932,85.104 C686.364002,85.4720018 686.903997,85.7959986 687.552,86.076 C688.200003,86.3560014 688.691998,86.496 689.028,86.496 L689.028,87 L682.284,87 L682.284,86.496 C683.068004,86.496 683.539999,86.3640013 683.7,86.1 C683.860001,85.8359987 683.692002,85.504002 683.196,85.104 L677.124,79.848 L676.5,80.352 L676.5,83.688 C676.5,84.888006 676.631999,85.6559983 676.896,85.992 C677.160001,86.3280017 677.787995,86.496 678.78,86.496 L678.78,87 L672.3,87 L672.3,86.496 C673.292005,86.496 673.919999,86.3280017 674.184,85.992 C674.448001,85.6559983 674.58,84.888006 674.58,83.688 L674.58,75.888 C674.58,74.687994 674.448001,73.9240016 674.184,73.596 C673.919999,73.2679984 673.292005,73.104 672.3,73.104 L672.3,72.6 L678.78,72.6 L678.78,73.104 C677.787995,73.104 677.160001,73.2679984 676.896,73.596 C676.631999,73.9240016 676.5,74.687994 676.5,75.888 L676.5,79.248 L681.42,75.048 C682.764007,73.7999938 682.796006,73.1520002 681.516,73.104 L681.516,72.6 L687.084,72.6 L687.084,73.104 C686.203996,73.104 685.472003,73.2399986 684.888,73.512 C684.303997,73.7840014 683.572004,74.2959962 682.692,75.048 L678.492,78.648 Z M696.508,79.92 C696.508,83.4880178 694.716018,86.7359854 691.132,89.664 L690.58,89.16 C691.108003,88.567997 691.535998,88.0640021 691.864,87.648 C692.192002,87.2319979 692.627997,86.6040042 693.172,85.764 C693.716003,84.9239958 694.131999,84.008005 694.42,83.016 C694.708001,82.023995 694.852,80.9920054 694.852,79.92 C694.852,78.8479946 694.708001,77.816005 694.42,76.824 C694.131999,75.831995 693.716003,74.9160042 693.172,74.076 C692.627997,73.2359958 692.192002,72.6080021 691.864,72.192 C691.535998,71.7759979 691.108003,71.272003 690.58,70.68 L691.156,70.176 C694.724018,73.1200147 696.508,76.3679822 696.508,79.92 Z" id="Cathode-(K)-Copy" fill="#524740"></path>
            </g>
            <path d="M204.292,290.104 C203.347995,290.104 202.736001,290.219999 202.456,290.452 C202.175999,290.684001 201.836002,291.263995 201.436,292.192 L196.156,304.408 L195.844,304.408 L190.54,292.192 C190.139998,291.263995 189.800001,290.684001 189.52,290.452 C189.239999,290.219999 188.628005,290.104 187.684,290.104 L187.684,289.6 L194.332,289.6 L194.332,290.104 C193.339995,290.104 192.704001,290.243999 192.424,290.524 C192.143999,290.804001 192.155998,291.271997 192.46,291.928 L196.54,301.264 L200.572,291.928 C200.876002,291.271997 200.888001,290.804001 200.608,290.524 C200.327999,290.243999 199.692005,290.104 198.7,290.104 L198.7,289.6 L204.292,289.6 L204.292,290.104 Z M212.42,296.896 C213.380005,297.744004 213.86,298.775994 213.86,299.992 C213.86,301.208006 213.384005,302.247996 212.432,303.112 C211.479995,303.976004 210.340007,304.408 209.012,304.408 C207.683993,304.408 206.544005,303.976004 205.592,303.112 C204.639995,302.247996 204.164,301.208006 204.164,299.992 C204.164,298.775994 204.639995,297.740004 205.592,296.884 C206.544005,296.027996 207.683993,295.6 209.012,295.6 C210.340007,295.6 211.475995,296.031996 212.42,296.896 Z M211.172,302.512 C211.668002,301.855997 211.916,301.016005 211.916,299.992 C211.916,298.967995 211.668002,298.132003 211.172,297.484 C210.675998,296.835997 209.956005,296.512 209.012,296.512 C208.067995,296.512 207.348002,296.839997 206.852,297.496 C206.355998,298.152003 206.108,298.983995 206.108,299.992 C206.108,301.000005 206.355998,301.831997 206.852,302.488 C207.348002,303.144003 208.067995,303.472 209.012,303.472 C209.956005,303.472 210.675998,303.152003 211.172,302.512 Z M221.964,304 L216.468,304 L216.468,303.496 C217.268004,303.496 217.783999,303.328002 218.016,302.992 C218.248001,302.655998 218.364,301.888006 218.364,300.688 L218.364,293.104 C218.364,291.903994 218.248001,291.136002 218.016,290.8 C217.783999,290.463998 217.268004,290.296 216.468,290.296 L216.468,289.792 L220.068,289.192 L220.068,300.688 C220.068,301.888006 220.183999,302.655998 220.416,302.992 C220.648001,303.328002 221.163996,303.496 221.964,303.496 L221.964,304 Z M225.364,296.848 L224.116,296.848 L224.116,296.272 C224.804003,296.127999 225.307998,295.816002 225.628,295.336 C225.948002,294.855998 226.156,294.200004 226.252,293.368 L227.068,293.368 L227.068,296.008 L229.156,296.008 L229.156,296.848 L227.068,296.848 L227.068,301.648 C227.068,302.800006 227.427996,303.376 228.148,303.376 C228.612002,303.376 229.131997,303.104003 229.708,302.56 L230.116,302.968 C229.779998,303.368002 229.376002,303.695999 228.904,303.952 C228.431998,304.208001 227.996002,304.336 227.596,304.336 C226.907997,304.336 226.364002,304.112002 225.964,303.664 C225.563998,303.215998 225.364,302.544004 225.364,301.648 L225.364,296.848 Z M240.812,303.52 C240.347998,304.016002 239.820003,304.264 239.228,304.264 C238.267995,304.264 237.724001,303.800005 237.596,302.872 C236.523995,303.832005 235.524005,304.312 234.596,304.312 C233.987997,304.312 233.476002,304.132002 233.06,303.772 C232.643998,303.411998 232.436,302.920003 232.436,302.296 C232.436,300.615992 234.139983,299.480003 237.548,298.888 C237.548,297.943995 237.444001,297.288002 237.236,296.92 C237.027999,296.551998 236.596003,296.368 235.94,296.368 C235.619998,296.368 235.312001,296.471999 235.016,296.68 C234.719999,296.888001 234.572,297.167998 234.572,297.52 C234.572,297.760001 234.492001,297.959999 234.332,298.12 C234.171999,298.280001 233.980001,298.36 233.756,298.36 C233.515999,298.36 233.316001,298.280001 233.156,298.12 C232.995999,297.959999 232.916,297.760001 232.916,297.52 C232.916,296.959997 233.223997,296.500002 233.84,296.14 C234.456003,295.779998 235.163996,295.6 235.964,295.6 C237.132006,295.6 237.971997,295.855997 238.484,296.368 C238.996003,296.880003 239.252,297.711994 239.252,298.864 L239.252,302.488 C239.252,303.112003 239.435998,303.424 239.804,303.424 C240.012001,303.424 240.235999,303.304001 240.476,303.064 L240.812,303.52 Z M237.548,302.08 L237.548,299.632 C235.339989,300.144003 234.236,300.935995 234.236,302.008 C234.236,302.376002 234.343999,302.671999 234.56,302.896 C234.776001,303.120001 235.043998,303.232 235.364,303.232 C235.956003,303.232 236.683996,302.848004 237.548,302.08 Z M248.052,300.664 C248.356002,300.199998 248.508,299.600004 248.508,298.864 C248.508,298.127996 248.360001,297.528002 248.064,297.064 C247.767999,296.599998 247.340003,296.368 246.78,296.368 C246.219997,296.368 245.788002,296.599998 245.484,297.064 C245.179998,297.528002 245.028,298.127996 245.028,298.864 C245.028,299.600004 245.179998,300.195998 245.484,300.652 C245.788002,301.108002 246.219997,301.336 246.78,301.336 C247.340003,301.336 247.763999,301.112002 248.052,300.664 Z M244.548,303.136 C244.548,303.616002 245.275993,303.919999 246.732,304.048 C248.268008,304.176001 249.379997,304.527997 250.068,305.104 C250.756003,305.680003 251.1,306.375996 251.1,307.192 C251.1,308.168005 250.696004,308.947997 249.888,309.532 C249.079996,310.116003 248.068006,310.408 246.852,310.408 C245.555994,310.408 244.512004,310.140003 243.72,309.604 C242.927996,309.067997 242.564,308.440004 242.628,307.72 C242.692,306.999996 243.203995,306.392002 244.164,305.896 L244.596,306.16 C244.131998,306.688003 243.884,307.171998 243.852,307.612 C243.82,308.052002 243.959998,308.399999 244.272,308.656 C244.584002,308.912001 244.967998,309.111999 245.424,309.256 C245.880002,309.400001 246.355998,309.472 246.852,309.472 C247.636004,309.472 248.327997,309.300002 248.928,308.956 C249.528003,308.611998 249.828,308.168003 249.828,307.624 C249.828,307.095997 249.568003,306.712001 249.048,306.472 C248.527997,306.231999 247.716006,306.056001 246.612,305.944 C244.339989,305.719999 243.204,304.976006 243.204,303.712 C243.204,302.847996 243.875993,302.208002 245.22,301.792 C244.595997,301.503999 244.104002,301.104003 243.744,300.592 C243.383998,300.079997 243.204,299.504003 243.204,298.864 C243.204,297.967996 243.551997,297.200003 244.248,296.56 C244.944003,295.919997 245.787995,295.6 246.78,295.6 C247.740005,295.6 248.563997,295.903997 249.252,296.512 C249.460001,296.255999 249.743998,296.040001 250.104,295.864 C250.464002,295.687999 250.779999,295.6 251.052,295.6 C251.756004,295.6 252.203999,295.895997 252.396,296.488 C252.540001,296.936002 252.468001,297.271999 252.18,297.496 C252.084,297.576 251.972001,297.616 251.844,297.616 C251.603999,297.632 251.424001,297.584001 251.304,297.472 C251.183999,297.359999 251.112,297.236001 251.088,297.1 C251.064,296.963999 251.000001,296.836001 250.896,296.716 C250.791999,296.595999 250.628001,296.536 250.404,296.536 C250.163999,296.536 249.916001,296.663999 249.66,296.92 C250.124002,297.480003 250.356,298.127996 250.356,298.864 C250.356,299.712004 250.044003,300.439997 249.42,301.048 C248.795997,301.656003 248.068004,302.015999 247.236,302.128 C245.443991,302.336001 244.548,302.671998 244.548,303.136 Z M256.564,298.504 L260.548,298.504 C260.708001,298.055998 260.640001,297.620002 260.344,297.196 C260.047999,296.771998 259.540004,296.56 258.82,296.56 C258.307997,296.56 257.848002,296.735998 257.44,297.088 C257.031998,297.440002 256.740001,297.911997 256.564,298.504 Z M256.42,299.392 C256.275999,300.576006 256.463997,301.539996 256.984,302.284 C257.504003,303.028004 258.355994,303.4 259.54,303.4 C259.940002,303.4 260.395997,303.296001 260.908,303.088 C261.420003,302.879999 261.843998,302.616002 262.18,302.296 L262.612,302.824 C262.179998,303.288002 261.628003,303.667999 260.956,303.964 C260.283997,304.260001 259.612003,304.408 258.94,304.408 C257.643994,304.408 256.580004,303.980004 255.748,303.124 C254.915996,302.267996 254.5,301.224006 254.5,299.992 C254.5,298.759994 254.951995,297.720004 255.856,296.872 C256.760005,296.023996 257.787994,295.6 258.94,295.6 C260.028005,295.6 260.915997,295.979996 261.604,296.74 C262.292003,297.500004 262.492001,298.383995 262.204,299.392 L256.42,299.392 Z M273.732,303.28 C273.363998,303.584002 273.132,303.959998 273.036,304.408 L272.556,304.408 L272.556,299.128 L273.06,299.128 C273.06,299.192 273.064,299.275999 273.072,299.38 C273.08,299.484001 273.112,299.683999 273.168,299.98 C273.224,300.276001 273.303999,300.559999 273.408,300.832 C273.512001,301.104001 273.675999,301.407998 273.9,301.744 C274.124001,302.080002 274.383999,302.367999 274.68,302.608 C274.976001,302.848001 275.367998,303.047999 275.856,303.208 C276.344002,303.368001 276.883997,303.448 277.476,303.448 C278.340004,303.448 279.055997,303.200002 279.624,302.704 C280.192003,302.207998 280.476,301.576004 280.476,300.808 C280.476,299.831995 279.556009,298.864005 277.716,297.904 L275.412,296.728 C274.659996,296.327998 274.028003,295.784003 273.516,295.096 C273.003997,294.407997 272.748,293.632004 272.748,292.768 C272.748,291.759995 273.123996,290.912003 273.876,290.224 C274.628004,289.535997 275.579994,289.192 276.732,289.192 C277.788005,289.192 278.763996,289.519997 279.66,290.176 C280.028002,289.871998 280.26,289.504002 280.356,289.072 L280.836,289.072 L280.836,294.352 L280.332,294.352 C280.091999,291.551986 278.868011,290.152 276.66,290.152 C275.987997,290.152 275.432002,290.355998 274.992,290.764 C274.551998,291.172002 274.332,291.679997 274.332,292.288 C274.332,292.880003 274.543998,293.379998 274.968,293.788 C275.392002,294.196002 276.155994,294.687997 277.26,295.264 L279.54,296.44 C281.220008,297.288004 282.06,298.503992 282.06,300.088 C282.06,301.368006 281.616004,302.407996 280.728,303.208 C279.839996,304.008004 278.756006,304.408 277.476,304.408 C276.931997,304.408 276.412002,304.328001 275.916,304.168 C275.419998,304.007999 274.972002,303.828001 274.572,303.628 C274.171998,303.427999 273.892001,303.312 273.732,303.28 Z M293.644,296.896 C294.604005,297.744004 295.084,298.775994 295.084,299.992 C295.084,301.208006 294.608005,302.247996 293.656,303.112 C292.703995,303.976004 291.564007,304.408 290.236,304.408 C288.907993,304.408 287.768005,303.976004 286.816,303.112 C285.863995,302.247996 285.388,301.208006 285.388,299.992 C285.388,298.775994 285.863995,297.740004 286.816,296.884 C287.768005,296.027996 288.907993,295.6 290.236,295.6 C291.564007,295.6 292.699995,296.031996 293.644,296.896 Z M292.396,302.512 C292.892002,301.855997 293.14,301.016005 293.14,299.992 C293.14,298.967995 292.892002,298.132003 292.396,297.484 C291.899998,296.835997 291.180005,296.512 290.236,296.512 C289.291995,296.512 288.572002,296.839997 288.076,297.496 C287.579998,298.152003 287.332,298.983995 287.332,299.992 C287.332,301.000005 287.579998,301.831997 288.076,302.488 C288.572002,303.144003 289.291995,303.472 290.236,303.472 C291.180005,303.472 291.899998,303.152003 292.396,302.512 Z M309.308,303.808 L306.092,304.408 C305.963999,304.151999 305.836001,303.640004 305.708,302.872 C304.715995,303.896005 303.668006,304.408 302.564,304.408 C300.57999,304.408 299.588,303.208012 299.588,300.808 L299.588,299.296 C299.588,298.095994 299.472001,297.328002 299.24,296.992 C299.007999,296.655998 298.492004,296.488 297.692,296.488 L297.692,296.008 L301.292,296.008 L301.292,300.688 C301.292,302.400009 301.899994,303.256 303.116,303.256 C303.660003,303.256 304.227997,303.028002 304.82,302.572 C305.412003,302.115998 305.708,301.552003 305.708,300.88 L305.708,299.296 C305.708,298.095994 305.592001,297.328002 305.36,296.992 C305.127999,296.655998 304.604004,296.488 303.788,296.488 L303.788,296.008 L307.388,296.008 L307.388,300.496 C307.388,301.696006 307.503999,302.463998 307.736,302.8 C307.968001,303.136002 308.491996,303.304 309.308,303.304 L309.308,303.808 Z M319.692,297.088 C319.692,297.840004 319.372003,298.216 318.732,298.216 C318.507999,298.216 318.312001,298.128001 318.144,297.952 C317.975999,297.775999 317.892,297.576001 317.892,297.352 C317.892,296.823997 317.636003,296.56 317.124,296.56 C316.755998,296.56 316.356002,296.815997 315.924,297.328 C315.491998,297.840003 315.276,298.519996 315.276,299.368 L315.276,300.688 C315.276,301.888006 315.391999,302.655998 315.624,302.992 C315.856001,303.328002 316.371996,303.496 317.172,303.496 L317.172,304 L311.676,304 L311.676,303.496 C312.476004,303.496 312.991999,303.328002 313.224,302.992 C313.456001,302.655998 313.572,301.888006 313.572,300.688 L313.572,299.488 C313.572,298.303994 313.456001,297.544002 313.224,297.208 C312.991999,296.871998 312.476004,296.704 311.676,296.704 L311.676,296.2 L314.868,295.6 C315.012001,295.904002 315.147999,296.479996 315.276,297.328 C315.516001,296.847998 315.875998,296.440002 316.356,296.104 C316.836002,295.767998 317.315998,295.6 317.796,295.6 C318.404003,295.6 318.871998,295.759998 319.2,296.08 C319.528002,296.400002 319.692,296.735998 319.692,297.088 Z M326.356,296.368 C325.715997,296.368 325.172002,296.735996 324.724,297.472 C324.275998,298.208004 324.052,299.119995 324.052,300.208 C324.052,301.200005 324.295998,301.979997 324.784,302.548 C325.272002,303.116003 325.995995,303.4 326.956,303.4 C327.884005,303.4 328.739996,303.032004 329.524,302.296 L329.932,302.824 C328.955995,303.880005 327.764007,304.408 326.356,304.408 C325.043993,304.408 324.008004,304.016004 323.248,303.232 C322.487996,302.447996 322.108,301.440006 322.108,300.208 C322.108,298.879993 322.555996,297.780004 323.452,296.908 C324.348004,296.035996 325.315995,295.6 326.356,295.6 C327.300005,295.6 328.011998,295.767998 328.492,296.104 C328.972002,296.440002 329.212,296.847998 329.212,297.328 C329.212,297.584001 329.128001,297.819999 328.96,298.036 C328.791999,298.252001 328.524002,298.36 328.156,298.36 C327.899999,298.36 327.680001,298.268001 327.496,298.084 C327.311999,297.899999 327.22,297.672001 327.22,297.4 C327.22,296.711997 326.932003,296.368 326.356,296.368 Z M334.604,298.504 L338.588,298.504 C338.748001,298.055998 338.680001,297.620002 338.384,297.196 C338.087999,296.771998 337.580004,296.56 336.86,296.56 C336.347997,296.56 335.888002,296.735998 335.48,297.088 C335.071998,297.440002 334.780001,297.911997 334.604,298.504 Z M334.46,299.392 C334.315999,300.576006 334.503997,301.539996 335.024,302.284 C335.544003,303.028004 336.395994,303.4 337.58,303.4 C337.980002,303.4 338.435997,303.296001 338.948,303.088 C339.460003,302.879999 339.883998,302.616002 340.22,302.296 L340.652,302.824 C340.219998,303.288002 339.668003,303.667999 338.996,303.964 C338.323997,304.260001 337.652003,304.408 336.98,304.408 C335.683994,304.408 334.620004,303.980004 333.788,303.124 C332.955996,302.267996 332.54,301.224006 332.54,299.992 C332.54,298.759994 332.991995,297.720004 333.896,296.872 C334.800005,296.023996 335.827994,295.6 336.98,295.6 C338.068005,295.6 338.955997,295.979996 339.644,296.74 C340.332003,297.500004 340.532001,298.383995 340.244,299.392 L334.46,299.392 Z M359.236,303.328 L358.804,303.88 L350.908,298.648 L358.804,293.44 L359.236,293.968 L353.692,298.648 L359.236,303.328 Z M369.204,308.632 C370.724008,308.632 371.484,307.528011 371.484,305.32 L371.484,292.888 C371.484,291.687994 371.352001,290.924002 371.088,290.596 C370.823999,290.267998 370.196005,290.104 369.204,290.104 L369.204,289.6 L375.684,289.6 L375.684,290.104 C374.691995,290.104 374.064001,290.267998 373.8,290.596 C373.535999,290.924002 373.404,291.687994 373.404,292.888 L373.404,305.056 C373.404,305.872004 373.276001,306.575997 373.02,307.168 C372.763999,307.760003 372.420002,308.203999 371.988,308.5 C371.555998,308.796001 371.112002,309.011999 370.656,309.148 C370.199998,309.284001 369.716003,309.352 369.204,309.352 C368.387996,309.352 367.596004,309.144002 366.828,308.728 C366.059996,308.311998 365.676,307.760003 365.676,307.072 C365.676,306.847999 365.755999,306.656001 365.916,306.496 C366.076001,306.335999 366.275999,306.256 366.516,306.256 C366.740001,306.256 366.931999,306.335999 367.092,306.496 C367.252001,306.656001 367.332,306.847999 367.332,307.072 C367.332,307.472002 367.499998,307.831998 367.836,308.152 C368.172002,308.472002 368.627997,308.632 369.204,308.632 Z M389.668,303.808 L386.452,304.408 C386.323999,304.151999 386.196001,303.640004 386.068,302.872 C385.075995,303.896005 384.028006,304.408 382.924,304.408 C380.93999,304.408 379.948,303.208012 379.948,300.808 L379.948,299.296 C379.948,298.095994 379.832001,297.328002 379.6,296.992 C379.367999,296.655998 378.852004,296.488 378.052,296.488 L378.052,296.008 L381.652,296.008 L381.652,300.688 C381.652,302.400009 382.259994,303.256 383.476,303.256 C384.020003,303.256 384.587997,303.028002 385.18,302.572 C385.772003,302.115998 386.068,301.552003 386.068,300.88 L386.068,299.296 C386.068,298.095994 385.952001,297.328002 385.72,296.992 C385.487999,296.655998 384.964004,296.488 384.148,296.488 L384.148,296.008 L387.748,296.008 L387.748,300.496 C387.748,301.696006 387.863999,302.463998 388.096,302.8 C388.328001,303.136002 388.851996,303.304 389.668,303.304 L389.668,303.808 Z M395.636,297.328 C396.548005,296.175994 397.659993,295.6 398.972,295.6 C400.012005,295.6 400.791997,295.927997 401.312,296.584 C401.832003,297.240003 402.092,298.103995 402.092,299.176 L402.092,300.688 C402.092,301.888006 402.207999,302.655998 402.44,302.992 C402.672001,303.328002 403.187996,303.496 403.988,303.496 L403.988,304 L398.492,304 L398.492,303.496 C399.276004,303.496 399.787999,303.324002 400.028,302.98 C400.268001,302.635998 400.388,301.872006 400.388,300.688 L400.388,299.296 C400.388,297.583991 399.724007,296.728 398.396,296.728 C397.707997,296.728 397.076003,296.967998 396.5,297.448 C395.923997,297.928002 395.636,298.487997 395.636,299.128 L395.636,300.688 C395.636,301.920006 395.731999,302.695998 395.924,303.016 C396.116001,303.336002 396.579996,303.496 397.316,303.496 L397.316,304 L392.036,304 L392.036,303.496 C392.836004,303.496 393.351999,303.328002 393.584,302.992 C393.816001,302.655998 393.932,301.888006 393.932,300.688 L393.932,299.488 C393.932,298.303994 393.816001,297.544002 393.584,297.208 C393.351999,296.871998 392.836004,296.704 392.036,296.704 L392.036,296.2 L395.228,295.6 C395.372001,295.904002 395.507999,296.479996 395.636,297.328 Z M410.844,296.368 C410.203997,296.368 409.660002,296.735996 409.212,297.472 C408.763998,298.208004 408.54,299.119995 408.54,300.208 C408.54,301.200005 408.783998,301.979997 409.272,302.548 C409.760002,303.116003 410.483995,303.4 411.444,303.4 C412.372005,303.4 413.227996,303.032004 414.012,302.296 L414.42,302.824 C413.443995,303.880005 412.252007,304.408 410.844,304.408 C409.531993,304.408 408.496004,304.016004 407.736,303.232 C406.975996,302.447996 406.596,301.440006 406.596,300.208 C406.596,298.879993 407.043996,297.780004 407.94,296.908 C408.836004,296.035996 409.803995,295.6 410.844,295.6 C411.788005,295.6 412.499998,295.767998 412.98,296.104 C413.460002,296.440002 413.7,296.847998 413.7,297.328 C413.7,297.584001 413.616001,297.819999 413.448,298.036 C413.279999,298.252001 413.012002,298.36 412.644,298.36 C412.387999,298.36 412.168001,298.268001 411.984,298.084 C411.799999,297.899999 411.708,297.672001 411.708,297.4 C411.708,296.711997 411.420003,296.368 410.844,296.368 Z M417.796,296.848 L416.548,296.848 L416.548,296.272 C417.236003,296.127999 417.739998,295.816002 418.06,295.336 C418.380002,294.855998 418.588,294.200004 418.684,293.368 L419.5,293.368 L419.5,296.008 L421.588,296.008 L421.588,296.848 L419.5,296.848 L419.5,301.648 C419.5,302.800006 419.859996,303.376 420.58,303.376 C421.044002,303.376 421.563997,303.104003 422.14,302.56 L422.548,302.968 C422.211998,303.368002 421.808002,303.695999 421.336,303.952 C420.863998,304.208001 420.428002,304.336 420.028,304.336 C419.339997,304.336 418.796002,304.112002 418.396,303.664 C417.995998,303.215998 417.796,302.544004 417.796,301.648 L417.796,296.848 Z M430.364,304 L424.868,304 L424.868,303.496 C425.668004,303.496 426.183999,303.328002 426.416,302.992 C426.648001,302.655998 426.764,301.888006 426.764,300.688 L426.764,299.488 C426.764,298.303994 426.648001,297.544002 426.416,297.208 C426.183999,296.871998 425.668004,296.704 424.868,296.704 L424.868,296.2 L428.468,295.6 L428.468,300.688 C428.468,301.888006 428.583999,302.655998 428.816,302.992 C429.048001,303.328002 429.563996,303.496 430.364,303.496 L430.364,304 Z M428.66,292.168 C428.66,292.472002 428.556001,292.727999 428.348,292.936 C428.139999,293.144001 427.892001,293.248 427.604,293.248 C427.315999,293.248 427.068001,293.144001 426.86,292.936 C426.651999,292.727999 426.548,292.472002 426.548,292.168 C426.548,291.879999 426.651999,291.632001 426.86,291.424 C427.068001,291.215999 427.315999,291.112 427.604,291.112 C427.892001,291.112 428.139999,291.215999 428.348,291.424 C428.556001,291.632001 428.66,291.879999 428.66,292.168 Z M441.228,296.896 C442.188005,297.744004 442.668,298.775994 442.668,299.992 C442.668,301.208006 442.192005,302.247996 441.24,303.112 C440.287995,303.976004 439.148007,304.408 437.82,304.408 C436.491993,304.408 435.352005,303.976004 434.4,303.112 C433.447995,302.247996 432.972,301.208006 432.972,299.992 C432.972,298.775994 433.447995,297.740004 434.4,296.884 C435.352005,296.027996 436.491993,295.6 437.82,295.6 C439.148007,295.6 440.283995,296.031996 441.228,296.896 Z M439.98,302.512 C440.476002,301.855997 440.724,301.016005 440.724,299.992 C440.724,298.967995 440.476002,298.132003 439.98,297.484 C439.483998,296.835997 438.764005,296.512 437.82,296.512 C436.875995,296.512 436.156002,296.839997 435.66,297.496 C435.163998,298.152003 434.916,298.983995 434.916,299.992 C434.916,301.000005 435.163998,301.831997 435.66,302.488 C436.156002,303.144003 436.875995,303.472 437.82,303.472 C438.764005,303.472 439.483998,303.152003 439.98,302.512 Z M449.332,297.328 C450.244005,296.175994 451.355993,295.6 452.668,295.6 C453.708005,295.6 454.487997,295.927997 455.008,296.584 C455.528003,297.240003 455.788,298.103995 455.788,299.176 L455.788,300.688 C455.788,301.888006 455.903999,302.655998 456.136,302.992 C456.368001,303.328002 456.883996,303.496 457.684,303.496 L457.684,304 L452.188,304 L452.188,303.496 C452.972004,303.496 453.483999,303.324002 453.724,302.98 C453.964001,302.635998 454.084,301.872006 454.084,300.688 L454.084,299.296 C454.084,297.583991 453.420007,296.728 452.092,296.728 C451.403997,296.728 450.772003,296.967998 450.196,297.448 C449.619997,297.928002 449.332,298.487997 449.332,299.128 L449.332,300.688 C449.332,301.920006 449.427999,302.695998 449.62,303.016 C449.812001,303.336002 450.275996,303.496 451.012,303.496 L451.012,304 L445.732,304 L445.732,303.496 C446.532004,303.496 447.047999,303.328002 447.28,302.992 C447.512001,302.655998 447.628,301.888006 447.628,300.688 L447.628,299.488 C447.628,298.303994 447.512001,297.544002 447.28,297.208 C447.047999,296.871998 446.532004,296.704 445.732,296.704 L445.732,296.2 L448.924,295.6 C449.068001,295.904002 449.203999,296.479996 449.332,297.328 Z M472.98,289.6 C474.596008,289.6 475.859995,289.983996 476.772,290.752 C477.684005,291.520004 478.14,292.487994 478.14,293.656 C478.14,294.824006 477.684005,295.787996 476.772,296.548 C475.859995,297.308004 474.596008,297.688 472.98,297.688 L470.844,297.688 L470.844,300.688 C470.844,301.888006 470.975999,302.655998 471.24,302.992 C471.504001,303.328002 472.131995,303.496 473.124,303.496 L473.124,304 L466.644,304 L466.644,303.496 C467.636005,303.496 468.263999,303.328002 468.528,302.992 C468.792001,302.655998 468.924,301.888006 468.924,300.688 L468.924,292.888 C468.924,291.687994 468.792001,290.924002 468.528,290.596 C468.263999,290.267998 467.636005,290.104 466.644,290.104 L466.644,289.6 L472.98,289.6 Z M472.956,296.824 C473.948005,296.824 474.703997,296.528003 475.224,295.936 C475.744003,295.343997 476.004,294.584005 476.004,293.656 C476.004,292.727995 475.744003,291.968003 475.224,291.376 C474.703997,290.783997 473.948005,290.488 472.956,290.488 L470.844,290.488 L470.844,296.824 L472.956,296.824 Z M488.236,296.896 C489.196005,297.744004 489.676,298.775994 489.676,299.992 C489.676,301.208006 489.200005,302.247996 488.248,303.112 C487.295995,303.976004 486.156007,304.408 484.828,304.408 C483.499993,304.408 482.360005,303.976004 481.408,303.112 C480.455995,302.247996 479.98,301.208006 479.98,299.992 C479.98,298.775994 480.455995,297.740004 481.408,296.884 C482.360005,296.027996 483.499993,295.6 484.828,295.6 C486.156007,295.6 487.291995,296.031996 488.236,296.896 Z M486.988,302.512 C487.484002,301.855997 487.732,301.016005 487.732,299.992 C487.732,298.967995 487.484002,298.132003 486.988,297.484 C486.491998,296.835997 485.772005,296.512 484.828,296.512 C483.883995,296.512 483.164002,296.839997 482.668,297.496 C482.171998,298.152003 481.924,298.983995 481.924,299.992 C481.924,301.000005 482.171998,301.831997 482.668,302.488 C483.164002,303.144003 483.883995,303.472 484.828,303.472 C485.772005,303.472 486.491998,303.152003 486.988,302.512 Z M493.748,296.848 L492.5,296.848 L492.5,296.272 C493.188003,296.127999 493.691998,295.816002 494.012,295.336 C494.332002,294.855998 494.54,294.200004 494.636,293.368 L495.452,293.368 L495.452,296.008 L497.54,296.008 L497.54,296.848 L495.452,296.848 L495.452,301.648 C495.452,302.800006 495.811996,303.376 496.532,303.376 C496.996002,303.376 497.515997,303.104003 498.092,302.56 L498.5,302.968 C498.163998,303.368002 497.760002,303.695999 497.288,303.952 C496.815998,304.208001 496.380002,304.336 495.98,304.336 C495.291997,304.336 494.748002,304.112002 494.348,303.664 C493.947998,303.215998 493.748,302.544004 493.748,301.648 L493.748,296.848 Z M503.124,298.504 L507.108,298.504 C507.268001,298.055998 507.200001,297.620002 506.904,297.196 C506.607999,296.771998 506.100004,296.56 505.38,296.56 C504.867997,296.56 504.408002,296.735998 504,297.088 C503.591998,297.440002 503.300001,297.911997 503.124,298.504 Z M502.98,299.392 C502.835999,300.576006 503.023997,301.539996 503.544,302.284 C504.064003,303.028004 504.915994,303.4 506.1,303.4 C506.500002,303.4 506.955997,303.296001 507.468,303.088 C507.980003,302.879999 508.403998,302.616002 508.74,302.296 L509.172,302.824 C508.739998,303.288002 508.188003,303.667999 507.516,303.964 C506.843997,304.260001 506.172003,304.408 505.5,304.408 C504.203994,304.408 503.140004,303.980004 502.308,303.124 C501.475996,302.267996 501.06,301.224006 501.06,299.992 C501.06,298.759994 501.511995,297.720004 502.416,296.872 C503.320005,296.023996 504.347994,295.6 505.5,295.6 C506.588005,295.6 507.475997,295.979996 508.164,296.74 C508.852003,297.500004 509.052001,298.383995 508.764,299.392 L502.98,299.392 Z M515.548,297.328 C516.460005,296.175994 517.571993,295.6 518.884,295.6 C519.924005,295.6 520.703997,295.927997 521.224,296.584 C521.744003,297.240003 522.004,298.103995 522.004,299.176 L522.004,300.688 C522.004,301.888006 522.119999,302.655998 522.352,302.992 C522.584001,303.328002 523.099996,303.496 523.9,303.496 L523.9,304 L518.404,304 L518.404,303.496 C519.188004,303.496 519.699999,303.324002 519.94,302.98 C520.180001,302.635998 520.3,301.872006 520.3,300.688 L520.3,299.296 C520.3,297.583991 519.636007,296.728 518.308,296.728 C517.619997,296.728 516.988003,296.967998 516.412,297.448 C515.835997,297.928002 515.548,298.487997 515.548,299.128 L515.548,300.688 C515.548,301.920006 515.643999,302.695998 515.836,303.016 C516.028001,303.336002 516.491996,303.496 517.228,303.496 L517.228,304 L511.948,304 L511.948,303.496 C512.748004,303.496 513.263999,303.328002 513.496,302.992 C513.728001,302.655998 513.844,301.888006 513.844,300.688 L513.844,299.488 C513.844,298.303994 513.728001,297.544002 513.496,297.208 C513.263999,296.871998 512.748004,296.704 511.948,296.704 L511.948,296.2 L515.14,295.6 C515.284001,295.904002 515.419999,296.479996 515.548,297.328 Z M527.276,296.848 L526.028,296.848 L526.028,296.272 C526.716003,296.127999 527.219998,295.816002 527.54,295.336 C527.860002,294.855998 528.068,294.200004 528.164,293.368 L528.98,293.368 L528.98,296.008 L531.068,296.008 L531.068,296.848 L528.98,296.848 L528.98,301.648 C528.98,302.800006 529.339996,303.376 530.06,303.376 C530.524002,303.376 531.043997,303.104003 531.62,302.56 L532.028,302.968 C531.691998,303.368002 531.288002,303.695999 530.816,303.952 C530.343998,304.208001 529.908002,304.336 529.508,304.336 C528.819997,304.336 528.276002,304.112002 527.876,303.664 C527.475998,303.215998 527.276,302.544004 527.276,301.648 L527.276,296.848 Z M539.844,304 L534.348,304 L534.348,303.496 C535.148004,303.496 535.663999,303.328002 535.896,302.992 C536.128001,302.655998 536.244,301.888006 536.244,300.688 L536.244,299.488 C536.244,298.303994 536.128001,297.544002 535.896,297.208 C535.663999,296.871998 535.148004,296.704 534.348,296.704 L534.348,296.2 L537.948,295.6 L537.948,300.688 C537.948,301.888006 538.063999,302.655998 538.296,302.992 C538.528001,303.328002 539.043996,303.496 539.844,303.496 L539.844,304 Z M538.14,292.168 C538.14,292.472002 538.036001,292.727999 537.828,292.936 C537.619999,293.144001 537.372001,293.248 537.084,293.248 C536.795999,293.248 536.548001,293.144001 536.34,292.936 C536.131999,292.727999 536.028,292.472002 536.028,292.168 C536.028,291.879999 536.131999,291.632001 536.34,291.424 C536.548001,291.215999 536.795999,291.112 537.084,291.112 C537.372001,291.112 537.619999,291.215999 537.828,291.424 C538.036001,291.632001 538.14,291.879999 538.14,292.168 Z M550.588,303.52 C550.123998,304.016002 549.596003,304.264 549.004,304.264 C548.043995,304.264 547.500001,303.800005 547.372,302.872 C546.299995,303.832005 545.300005,304.312 544.372,304.312 C543.763997,304.312 543.252002,304.132002 542.836,303.772 C542.419998,303.411998 542.212,302.920003 542.212,302.296 C542.212,300.615992 543.915983,299.480003 547.324,298.888 C547.324,297.943995 547.220001,297.288002 547.012,296.92 C546.803999,296.551998 546.372003,296.368 545.716,296.368 C545.395998,296.368 545.088001,296.471999 544.792,296.68 C544.495999,296.888001 544.348,297.167998 544.348,297.52 C544.348,297.760001 544.268001,297.959999 544.108,298.12 C543.947999,298.280001 543.756001,298.36 543.532,298.36 C543.291999,298.36 543.092001,298.280001 542.932,298.12 C542.771999,297.959999 542.692,297.760001 542.692,297.52 C542.692,296.959997 542.999997,296.500002 543.616,296.14 C544.232003,295.779998 544.939996,295.6 545.74,295.6 C546.908006,295.6 547.747997,295.855997 548.26,296.368 C548.772003,296.880003 549.028,297.711994 549.028,298.864 L549.028,302.488 C549.028,303.112003 549.211998,303.424 549.58,303.424 C549.788001,303.424 550.011999,303.304001 550.252,303.064 L550.588,303.52 Z M547.324,302.08 L547.324,299.632 C545.115989,300.144003 544.012,300.935995 544.012,302.008 C544.012,302.376002 544.119999,302.671999 544.336,302.896 C544.552001,303.120001 544.819998,303.232 545.14,303.232 C545.732003,303.232 546.459996,302.848004 547.324,302.08 Z M557.924,304 L552.428,304 L552.428,303.496 C553.228004,303.496 553.743999,303.328002 553.976,302.992 C554.208001,302.655998 554.324,301.888006 554.324,300.688 L554.324,293.104 C554.324,291.903994 554.208001,291.136002 553.976,290.8 C553.743999,290.463998 553.228004,290.296 552.428,290.296 L552.428,289.792 L556.028,289.192 L556.028,300.688 C556.028,301.888006 556.143999,302.655998 556.376,302.992 C556.608001,303.328002 557.123996,303.496 557.924,303.496 L557.924,304 Z" id="Voltage-Source-&lt;-Jun-Copy" fill="#524740"></path>
            <g id="Potential-Plates" transform="translate(334.000000, 218.000000)">
                <g id="VS">
                    <path d="M29,14.5 L29,47.5" id="Line-2-Copy" stroke="#3D3530" stroke-width="3" stroke-linecap="square"></path>
                    <path d="M54,14.5 L54,47.5" id="Line-2-Copy-2" stroke="#3D3530" stroke-width="3" stroke-linecap="square"></path>
                    <path d="M17,5.5 L17,54.5" id="Line-2-Copy" stroke="#3D3530" stroke-width="3" stroke-linecap="square"></path>
                    <path d="M42,5.5 L42,54.5" id="Line-2-Copy-3" stroke="#3D3530" stroke-width="3" stroke-linecap="square"></path>
                    <rect id="Combined-Shape" fill="#524740" x="61" y="5" width="9" height="1"></rect>
                    <path d="M4,4 L4,0 L5,0 L5,4 L9,4 L9,5 L5,5 L5,9 L4,9 L4,5 L0,5 L0,4 L4,4 Z" id="Combined-Shape" fill="#524740"></path>
                </g>
            </g>
            <g id="Anode" transform="translate(0.000000, 72.000000)">
                <rect id="Rectangle" fill="#3D3530" x="205" y="0" width="7" height="80"></rect>
                <polyline id="Path-8" stroke="#3D3530" stroke-width="3" points="206.880017 39.9008336 14.880017 39.9008336 14.880017 176.5 350.45316 176.5"></polyline>
                <g id="Anode-Hole-Flow" transform="translate(20.000000, 46.000000)" fill="#84D0EF">
                    <circle id="Oval-Copy-92" cx="163.25" cy="3.25" r="3.25"></circle>
                    <circle id="Oval-Copy-91" cx="143.25" cy="3.25" r="3.25"></circle>
                    <circle id="Oval-Copy-90" cx="123.25" cy="3.25" r="3.25"></circle>
                    <circle id="Oval-Copy-89" cx="103.25" cy="3.25" r="3.25"></circle>
                    <circle id="Oval-Copy-88" cx="83.25" cy="3.25" r="3.25"></circle>
                    <circle id="Oval-Copy-87" cx="63.25" cy="3.25" r="3.25"></circle>
                    <circle id="Oval-Copy-86" cx="43.25" cy="3.25" r="3.25"></circle>
                    <circle id="Oval-Copy-85" cx="23.25" cy="3.25" r="3.25"></circle>
                    <circle id="Oval-Copy-84" cx="3.25" cy="3.25" r="3.25"></circle>
                    <circle id="Oval-Copy-68" cx="3.25" cy="103.25" r="3.25"></circle>
                    <circle id="Oval-Copy-69" cx="3.25" cy="83.25" r="3.25"></circle>
                    <circle id="Oval-Copy-70" cx="3.25" cy="63.25" r="3.25"></circle>
                    <circle id="Oval-Copy-71" cx="3.25" cy="43.25" r="3.25"></circle>
                    <circle id="Oval-Copy-72" cx="3.25" cy="23.25" r="3.25"></circle>
                    <circle id="Oval-Copy-67" cx="303.25" cy="123.25" r="3.25"></circle>
                    <circle id="Oval-Copy-44" cx="23.25" cy="123.25" r="3.25"></circle>
                    <circle id="Oval-Copy-66" cx="3.25" cy="123.25" r="3.25"></circle>
                    <circle id="Oval-Copy-50" cx="43.25" cy="123.25" r="3.25"></circle>
                    <circle id="Oval-Copy-51" cx="63.25" cy="123.25" r="3.25"></circle>
                    <circle id="Oval-Copy-52" cx="83.25" cy="123.25" r="3.25"></circle>
                    <circle id="Oval-Copy-53" cx="103.25" cy="123.25" r="3.25"></circle>
                    <circle id="Oval-Copy-54" cx="123.25" cy="123.25" r="3.25"></circle>
                    <circle id="Oval-Copy-55" cx="143.25" cy="123.25" r="3.25"></circle>
                    <circle id="Oval-Copy-56" cx="163.25" cy="123.25" r="3.25"></circle>
                    <circle id="Oval-Copy-57" cx="183.25" cy="123.25" r="3.25"></circle>
                    <circle id="Oval-Copy-58" cx="203.25" cy="123.25" r="3.25"></circle>
                    <circle id="Oval-Copy-59" cx="223.25" cy="123.25" r="3.25"></circle>
                    <circle id="Oval-Copy-60" cx="243.25" cy="123.25" r="3.25"></circle>
                    <circle id="Oval-Copy-61" cx="263.25" cy="123.25" r="3.25"></circle>
                    <circle id="Oval-Copy-62" cx="283.25" cy="123.25" r="3.25"></circle>
                </g>
            </g>
            <g id="Cathode" transform="translate(388.000000, 73.000000)">
                <rect id="Rectangle" fill="#3D3530" x="140" y="0" width="7" height="80"></rect>
                <polyline id="Path-8" stroke="#3D3530" stroke-width="3" points="0 176.5 333.880017 176.5 333.880017 39.9008336 141.880017 39.9008336"></polyline>
                <g id="Cathode-Electron-Flow" transform="translate(22.000000, 25.000000)" fill="#EF7D3B">
                    <circle id="Oval-Copy-44" cx="23.25" cy="163.25" r="3.25"></circle>
                    <circle id="Oval-Copy-66" cx="3.25" cy="163.25" r="3.25"></circle>
                    <circle id="Oval-Copy-50" cx="43.25" cy="163.25" r="3.25"></circle>
                    <circle id="Oval-Copy-51" cx="63.25" cy="163.25" r="3.25"></circle>
                    <circle id="Oval-Copy-52" cx="83.25" cy="163.25" r="3.25"></circle>
                    <circle id="Oval-Copy-53" cx="103.25" cy="163.25" r="3.25"></circle>
                    <circle id="Oval-Copy-54" cx="123.25" cy="163.25" r="3.25"></circle>
                    <circle id="Oval-Copy-55" cx="143.25" cy="163.25" r="3.25"></circle>
                    <circle id="Oval-Copy-56" cx="163.25" cy="163.25" r="3.25"></circle>
                    <circle id="Oval-Copy-57" cx="183.25" cy="163.25" r="3.25"></circle>
                    <circle id="Oval-Copy-58" cx="203.25" cy="163.25" r="3.25"></circle>
                    <circle id="Oval-Copy-59" cx="223.25" cy="163.25" r="3.25"></circle>
                    <circle id="Oval-Copy-60" cx="243.25" cy="163.25" r="3.25"></circle>
                    <circle id="Oval-Copy-61" cx="263.25" cy="163.25" r="3.25"></circle>
                    <circle id="Oval-Copy-62" cx="283.25" cy="163.25" r="3.25"></circle>
                    <circle id="Oval-Copy-63" cx="303.25" cy="163.25" r="3.25"></circle>
                    <circle id="Oval-Copy-64" cx="323.25" cy="163.25" r="3.25"></circle>
                    <circle id="Oval-Copy-65" cx="323.25" cy="163.25" r="3.25"></circle>
                    <circle id="Oval-Copy-67" cx="323.25" cy="143.25" r="3.25"></circle>
                    <circle id="Oval-Copy-68" cx="323.25" cy="123.25" r="3.25"></circle>
                    <circle id="Oval-Copy-69" cx="323.25" cy="103.25" r="3.25"></circle>
                    <circle id="Oval-Copy-70" cx="323.25" cy="83.25" r="3.25"></circle>
                    <circle id="Oval-Copy-71" cx="323.25" cy="63.25" r="3.25"></circle>
                    <circle id="Oval-Copy-72" cx="323.25" cy="43.25" r="3.25"></circle>
                    <circle id="Oval-Copy-73" cx="323.25" cy="23.25" r="3.25"></circle>
                    <circle id="Oval-Copy-74" cx="323.25" cy="3.25" r="3.25"></circle>
                    <circle id="Oval-Copy-75" cx="303.25" cy="3.25" r="3.25"></circle>
                    <circle id="Oval-Copy-76" cx="283.25" cy="3.25" r="3.25"></circle>
                    <circle id="Oval-Copy-77" cx="263.25" cy="3.25" r="3.25"></circle>
                    <circle id="Oval-Copy-78" cx="243.25" cy="3.25" r="3.25"></circle>
                    <circle id="Oval-Copy-79" cx="223.25" cy="3.25" r="3.25"></circle>
                    <circle id="Oval-Copy-80" cx="203.25" cy="3.25" r="3.25"></circle>
                    <circle id="Oval-Copy-81" cx="183.25" cy="3.25" r="3.25"></circle>
                    <circle id="Oval-Copy-82" cx="163.25" cy="3.25" r="3.25"></circle>
                    <circle id="Oval-Copy-83" cx="143.25" cy="3.25" r="3.25"></circle>
                </g>
            </g>
        </g>
        <rect id="Rectangle-Copy" stroke="#3D3530" stroke-width="2" fill="#F8FAE4" x="1" y="366" width="898" height="43"></rect>
        <path d="M740.44,380.456 L733.096,380.456 L733.096,386.168 L738.16,386.168 L738.16,387.752 L733.096,387.752 L733.096,395 L731.512,395 L731.512,378.872 L740.44,378.872 L740.44,380.456 Z M751.546666,393.368 C750.34666,394.584006 748.890675,395.192 747.178666,395.192 C745.466658,395.192 744.006672,394.588006 742.798666,393.38 C741.59066,392.171994 740.986666,390.712009 740.986666,389 C740.986666,387.287991 741.59066,385.828006 742.798666,384.62 C744.006672,383.411994 745.466658,382.808 747.178666,382.808 C748.890675,382.808 750.35066,383.411994 751.558666,384.62 C752.766672,385.828006 753.370666,387.287991 753.370666,389 C753.370666,390.696008 752.762673,392.151994 751.546666,393.368 Z M747.202666,393.68 C748.498673,393.68 749.590662,393.228005 750.478666,392.324 C751.366671,391.419995 751.810666,390.312007 751.810666,389 C751.810666,387.687993 751.366671,386.576005 750.478666,385.664 C749.590662,384.751995 748.498673,384.296 747.202666,384.296 C745.92266,384.296 744.834671,384.751995 743.938666,385.664 C743.042662,386.576005 742.594666,387.687993 742.594666,389 C742.594666,390.312007 743.042662,391.419995 743.938666,392.324 C744.834671,393.228005 745.92266,393.68 747.202666,393.68 Z M761.837333,382.808 C762.685337,382.808 763.46133,383.015998 764.165333,383.432 L763.613333,385.016 C762.94133,384.519998 762.261337,384.272 761.573333,384.272 C760.565328,384.272 759.717337,384.627996 759.029333,385.34 C758.34133,386.052004 757.997333,386.927995 757.997333,387.968 L757.997333,395 L756.413333,395 L756.413333,383 L757.997333,383 L757.997333,384.776 C758.973338,383.463993 760.253325,382.808 761.837333,382.808 Z M782.808,383 L784.392,383 L780.144,395 L778.56,395 L775.176,385.112 L771.792,395 L770.208,395 L765.984,383 L767.568,383 L771,392.768 L774.456,383 L775.896,383 L779.352,392.768 L782.808,383 Z M796.722667,383 L798.306667,383 L798.306667,395 L796.722667,395 L796.722667,393.056 C795.49066,394.480007 793.930676,395.192 792.042667,395.192 C790.330658,395.192 788.870673,394.588006 787.662667,393.38 C786.45466,392.171994 785.850667,390.712009 785.850667,389 C785.850667,387.287991 786.45466,385.828006 787.662667,384.62 C788.870673,383.411994 790.330658,382.808 792.042667,382.808 C793.946676,382.808 795.50666,383.519993 796.722667,384.944 L796.722667,383 Z M792.066667,393.68 C793.362673,393.68 794.454662,393.228005 795.342667,392.324 C796.230671,391.419995 796.674667,390.312007 796.674667,389 C796.674667,387.687993 796.230671,386.580005 795.342667,385.676 C794.454662,384.771995 793.362673,384.32 792.066667,384.32 C790.78666,384.32 789.694671,384.771995 788.790667,385.676 C787.886662,386.580005 787.434667,387.687993 787.434667,389 C787.434667,390.312007 787.886662,391.419995 788.790667,392.324 C789.694671,393.228005 790.78666,393.68 792.066667,393.68 Z M807.637333,382.808 C808.485337,382.808 809.26133,383.015998 809.965333,383.432 L809.413333,385.016 C808.74133,384.519998 808.061337,384.272 807.373333,384.272 C806.365328,384.272 805.517337,384.627996 804.829333,385.34 C804.14133,386.052004 803.797333,386.927995 803.797333,387.968 L803.797333,395 L802.213333,395 L802.213333,383 L803.797333,383 L803.797333,384.776 C804.773338,383.463993 806.053325,382.808 807.637333,382.808 Z M821.96,377.144 L823.544,377.144 L823.544,395 L821.96,395 L821.96,393.056 C820.727994,394.480007 819.168009,395.192 817.28,395.192 C815.567991,395.192 814.108006,394.588006 812.9,393.38 C811.691994,392.171994 811.088,390.712009 811.088,389 C811.088,387.287991 811.691994,385.828006 812.9,384.62 C814.108006,383.411994 815.567991,382.808 817.28,382.808 C819.184009,382.808 820.743994,383.519993 821.96,384.944 L821.96,377.144 Z M814.016,392.336 C814.912004,393.232004 816.007993,393.68 817.304,393.68 C818.600006,393.68 819.691995,393.228005 820.58,392.324 C821.468004,391.419995 821.912,390.312007 821.912,389 C821.912,387.687993 821.468004,386.580005 820.58,385.676 C819.691995,384.771995 818.600006,384.32 817.304,384.32 C816.007993,384.32 814.912004,384.771995 814.016,385.676 C813.119995,386.580005 812.672,387.687993 812.672,389 C812.672,390.312007 813.119995,391.423995 814.016,392.336 Z M834.885333,395 L834.885333,378.872 L840.357333,378.872 C842.165342,378.872 843.605328,379.295996 844.677333,380.144 C845.749339,380.992004 846.285333,382.047994 846.285333,383.312 C846.285333,384.096004 846.049336,384.807997 845.577333,385.448 C845.105331,386.088003 844.445337,386.583998 843.597333,386.936 C844.445337,387.288002 845.105331,387.783997 845.577333,388.424 C846.049336,389.064003 846.285333,389.783996 846.285333,390.584 C846.285333,391.848006 845.749339,392.899996 844.677333,393.74 C843.605328,394.580004 842.165342,395 840.357333,395 L834.885333,395 Z M836.469333,386.264 L840.357333,386.264 C841.65334,386.264 842.693329,385.984003 843.477333,385.424 C844.261337,384.863997 844.653333,384.168004 844.653333,383.336 C844.653333,382.487996 844.261337,381.784003 843.477333,381.224 C842.693329,380.663997 841.65334,380.384 840.357333,380.384 L836.469333,380.384 L836.469333,386.264 Z M836.469333,393.488 L840.357333,393.488 C841.65334,393.488 842.693329,393.208003 843.477333,392.648 C844.261337,392.087997 844.653333,391.384004 844.653333,390.536 C844.653333,389.703996 844.261337,389.008003 843.477333,388.448 C842.693329,387.887997 841.65334,387.608 840.357333,387.608 L836.469333,387.608 L836.469333,393.488 Z M851.776,379.4 C851.599999,379.592001 851.376001,379.688 851.104,379.688 C850.831999,379.688 850.604001,379.592001 850.42,379.4 C850.235999,379.207999 850.144,378.984001 850.144,378.728 C850.144,378.471999 850.235999,378.248001 850.42,378.056 C850.604001,377.863999 850.831999,377.768 851.104,377.768 C851.376001,377.768 851.603999,377.863999 851.788,378.056 C851.972001,378.248001 852.064,378.471999 852.064,378.728 C852.064,378.984001 851.968001,379.207999 851.776,379.4 Z M850.312,395 L850.312,383 L851.896,383 L851.896,395 L850.312,395 Z M866.242667,383 L867.826667,383 L867.826667,395 L866.242667,395 L866.242667,393.056 C865.01066,394.480007 863.450676,395.192 861.562667,395.192 C859.850658,395.192 858.390673,394.588006 857.182667,393.38 C855.974661,392.171994 855.370667,390.712009 855.370667,389 C855.370667,387.287991 855.974661,385.828006 857.182667,384.62 C858.390673,383.411994 859.850658,382.808 861.562667,382.808 C863.466676,382.808 865.026661,383.519993 866.242667,384.944 L866.242667,383 Z M861.586667,393.68 C862.882673,393.68 863.974662,393.228005 864.862667,392.324 C865.750671,391.419995 866.194667,390.312007 866.194667,389 C866.194667,387.687993 865.750671,386.580005 864.862667,385.676 C863.974662,384.771995 862.882673,384.32 861.586667,384.32 C860.30666,384.32 859.214671,384.771995 858.310667,385.676 C857.406662,386.580005 856.954667,387.687993 856.954667,389 C856.954667,390.312007 857.406662,391.419995 858.310667,392.324 C859.214671,393.228005 860.30666,393.68 861.586667,393.68 Z M875.933333,395.192 C875.389331,395.192 874.861336,395.124001 874.349333,394.988 C873.837331,394.851999 873.409335,394.692001 873.065333,394.508 C872.721332,394.323999 872.413335,394.136001 872.141333,393.944 C871.869332,393.751999 871.669334,393.592001 871.541333,393.464 L871.349333,393.248 L872.477333,392.288 C872.589334,392.400001 872.745332,392.535999 872.945333,392.696 C873.145334,392.856001 873.54933,393.071999 874.157333,393.344 C874.765336,393.616001 875.36533,393.752 875.957333,393.752 C876.837338,393.752 877.541331,393.584002 878.069333,393.248 C878.597336,392.911998 878.861333,392.440003 878.861333,391.832 C878.861333,391.399998 878.597336,391.028002 878.069333,390.716 C877.541331,390.403998 876.901337,390.136001 876.149333,389.912 C875.39733,389.687999 874.641337,389.440001 873.881333,389.168 C873.12133,388.895999 872.477336,388.512002 871.949333,388.016 C871.421331,387.519998 871.157333,386.912004 871.157333,386.192 C871.157333,385.199995 871.52933,384.388003 872.273333,383.756 C873.017337,383.123997 874.117326,382.808 875.573333,382.808 C876.437338,382.808 877.253329,382.967998 878.021333,383.288 C878.789337,383.608002 879.341332,383.927998 879.677333,384.248 L880.181333,384.728 L879.053333,385.712 C878.941333,385.599999 878.785334,385.464001 878.585333,385.304 C878.385332,385.143999 877.981336,384.928001 877.373333,384.656 C876.76533,384.383999 876.157336,384.248 875.549333,384.248 C874.685329,384.248 873.985336,384.415998 873.449333,384.752 C872.913331,385.088002 872.645333,385.559997 872.645333,386.168 C872.645333,386.600002 872.909331,386.971998 873.437333,387.284 C873.965336,387.596002 874.60533,387.863999 875.357333,388.088 C876.109337,388.312001 876.86533,388.555999 877.625333,388.82 C878.385337,389.084001 879.029331,389.467997 879.557333,389.972 C880.085336,390.476003 880.349333,391.087996 880.349333,391.808 C880.349333,392.816005 879.981337,393.631997 879.245333,394.256 C878.50933,394.880003 877.405341,395.192 875.933333,395.192 Z" id="Forward-Bias-Copy" fill="#23ABE3"></path>
    </g>
</svg>