<?xml version="1.0" encoding="UTF-8"?>
<svg width="200px" height="200px" viewBox="0 0 200 200" version="1.1" xmlns="http://www.w3.org/2000/svg" xmlns:xlink="http://www.w3.org/1999/xlink">
    <!-- Generator: Sketch 52.5 (67469) - http://www.bohemiancoding.com/sketch -->
    <title>Diode</title>
    <desc>Created with Sketch.</desc>
    <g id="Diode" stroke="none" stroke-width="1" fill="none" fill-rule="evenodd">
        <rect id="Rectangle" stroke="#3D3530" stroke-width="2" fill="#EEEEEE" x="1" y="1" width="198" height="198"></rect>
        <path d="M123.314667,184 L123.314667,167.872 L126.962667,167.872 C129.61868,167.872 131.730659,168.639992 133.298666,170.176 C134.866674,171.712008 135.650666,173.631988 135.650666,175.936 C135.650666,178.224011 134.862674,180.139992 133.286666,181.684 C131.710659,183.228008 129.60268,184 126.962667,184 L123.314667,184 Z M124.898667,182.488 L126.962667,182.488 C129.074677,182.488 130.76266,181.868006 132.026667,180.628 C133.290673,179.387994 133.922666,177.824009 133.922666,175.936 C133.922666,174.047991 133.290673,172.484006 132.026667,171.244 C130.76266,170.003994 129.074677,169.384 126.962667,169.384 L124.898667,169.384 L124.898667,182.488 Z M140.757333,168.4 C140.581332,168.592001 140.357335,168.688 140.085333,168.688 C139.813332,168.688 139.585334,168.592001 139.401333,168.4 C139.217332,168.207999 139.125333,167.984001 139.125333,167.728 C139.125333,167.471999 139.217332,167.248001 139.401333,167.056 C139.585334,166.863999 139.813332,166.768 140.085333,166.768 C140.357335,166.768 140.585332,166.863999 140.769333,167.056 C140.953334,167.248001 141.045333,167.471999 141.045333,167.728 C141.045333,167.984001 140.949334,168.207999 140.757333,168.4 Z M139.293333,184 L139.293333,172 L140.877333,172 L140.877333,184 L139.293333,184 Z M154.912,182.368 C153.711994,183.584006 152.256008,184.192 150.544,184.192 C148.831991,184.192 147.372006,183.588006 146.164,182.38 C144.955994,181.171994 144.352,179.712009 144.352,178 C144.352,176.287991 144.955994,174.828006 146.164,173.62 C147.372006,172.411994 148.831991,171.808 150.544,171.808 C152.256008,171.808 153.715994,172.411994 154.924,173.62 C156.132006,174.828006 156.736,176.287991 156.736,178 C156.736,179.696008 156.128006,181.151994 154.912,182.368 Z M150.568,182.68 C151.864006,182.68 152.955995,182.228005 153.844,181.324 C154.732004,180.419995 155.176,179.312007 155.176,178 C155.176,176.687993 154.732004,175.576005 153.844,174.664 C152.955995,173.751995 151.864006,173.296 150.568,173.296 C149.287993,173.296 148.200004,173.751995 147.304,174.664 C146.407995,175.576005 145.96,176.687993 145.96,178 C145.96,179.312007 146.407995,180.419995 147.304,181.324 C148.200004,182.228005 149.287993,182.68 150.568,182.68 Z M170.026667,166.144 L171.610667,166.144 L171.610667,184 L170.026667,184 L170.026667,182.056 C168.79466,183.480007 167.234676,184.192 165.346667,184.192 C163.634658,184.192 162.174673,183.588006 160.966667,182.38 C159.758661,181.171994 159.154667,179.712009 159.154667,178 C159.154667,176.287991 159.758661,174.828006 160.966667,173.62 C162.174673,172.411994 163.634658,171.808 165.346667,171.808 C167.250676,171.808 168.810661,172.519993 170.026667,173.944 L170.026667,166.144 Z M162.082667,181.336 C162.978671,182.232004 164.07466,182.68 165.370667,182.68 C166.666673,182.68 167.758662,182.228005 168.646667,181.324 C169.534671,180.419995 169.978667,179.312007 169.978667,178 C169.978667,176.687993 169.534671,175.580005 168.646667,174.676 C167.758662,173.771995 166.666673,173.32 165.370667,173.32 C164.07466,173.32 162.978671,173.771995 162.082667,174.676 C161.186662,175.580005 160.738667,176.687993 160.738667,178 C160.738667,179.312007 161.186662,180.423995 162.082667,181.336 Z M181.037333,182.608 C182.109339,182.608 183.069329,182.304003 183.917333,181.696 C184.765338,181.087997 185.341332,180.376004 185.645333,179.56 L186.989333,180.04 C186.621331,181.048005 185.905339,181.975996 184.841333,182.824 C183.777328,183.672004 182.509341,184.088 181.037333,184.072 C179.693327,184.072 178.465339,183.656004 177.353333,182.824 C176.241328,181.991996 175.485335,180.928006 175.085333,179.632 C174.925333,179.103997 174.845333,178.528003 174.845333,177.904 C174.845333,176.175991 175.445327,174.712006 176.645333,173.512 C177.845339,172.311994 179.309325,171.704 181.037333,171.688 C182.605341,171.704 183.973327,172.231995 185.141333,173.272 C186.309339,174.312005 186.981332,175.599992 187.157333,177.136 C187.173333,177.216 187.181333,177.319999 187.181333,177.448 L176.693333,179.344 C176.965335,180.304005 177.509329,181.091997 178.325333,181.708 C179.141337,182.324003 180.045328,182.624 181.037333,182.608 Z M180.893333,173.152 C179.693327,173.168 178.665338,173.599996 177.809333,174.448 C176.953329,175.296004 176.493334,176.311994 176.429333,177.496 C176.429333,177.544 176.433333,177.627999 176.441333,177.748 C176.449333,177.868001 176.453333,177.968 176.453333,178.048 L185.381333,176.44 C185.077332,175.463995 184.509337,174.668003 183.677333,174.052 C182.845329,173.435997 181.917338,173.136 180.893333,173.152 Z" id="Diode-Copy" fill="#23ABE3"></path>
        <g transform="translate(65.000000, 87.000000)">
            <polygon id="Path-2" fill="#3D3530" points="24.5 0 44 13 24.5 26"></polygon>
            <path d="M44,13 L70,13" id="Path-2-Copy" stroke="#3D3530" stroke-width="3"></path>
            <path d="M44,7.10542736e-15 L44,26" id="Path-4-Copy" stroke="#3D3530" stroke-width="3"></path>
            <path d="M0,13 L24.5,13" id="Path-3" stroke="#3D3530" stroke-width="3"></path>
        </g>
        <rect id="Rectangle" stroke="#3D3530" stroke-width="2" x="1" y="157" width="198" height="42"></rect>
    </g>
</svg>