<?xml version="1.0" encoding="UTF-8"?>
<svg width="900px" height="380px" viewBox="0 0 900 380" version="1.1" xmlns="http://www.w3.org/2000/svg" xmlns:xlink="http://www.w3.org/1999/xlink">
    <!-- Generator: Sketch 52.5 (67469) - http://www.bohemiancoding.com/sketch -->
    <title>Diode_Reverse_Bias</title>
    <desc>Created with Sketch.</desc>
    <g id="Diode_Reverse_Bias" stroke="none" stroke-width="1" fill="none" fill-rule="evenodd">
        <rect id="Rectangle" stroke="#3D3530" stroke-width="2" fill="#EEEEEE" x="1" y="1" width="898" height="428"></rect>
        <g id="Illustration" transform="translate(79.000000, 25.000000)">
            <g id="Lattice-Junction" transform="translate(18.000000, 0.000000)">
                <g id="P-Type-Lattice" transform="translate(193.000000, 31.000000)">
                    <rect id="Rectangle" stroke="#999999" stroke-width="2" fill="#D4D4D4" x="1" y="1" width="158" height="158"></rect>
                    <circle id="Oval-Copy-3" fill="#252525" cx="20.5" cy="18.5" r="10.5"></circle>
                    <circle id="Oval-Copy-5" fill="#252525" cx="20.5" cy="58.5" r="10.5"></circle>
                    <circle id="Oval-Copy-6" fill="#252525" cx="20.5" cy="98.5" r="10.5"></circle>
                    <circle id="Oval-Copy-10" fill="#252525" cx="50.5" cy="38.5" r="10.5"></circle>
                    <circle id="Oval-Copy-8" fill="#252525" cx="50.5" cy="118.5" r="10.5"></circle>
                    <g id="Negative-Ion" transform="translate(100.000000, 28.000000)">
                        <circle id="Oval-Copy-26" fill="#84D0EF" cx="10.5" cy="10.5" r="10.5"></circle>
                        <rect id="Rectangle" fill="#524740" x="6" y="10" width="9" height="1"></rect>
                    </g>
                    <circle id="Oval-Copy-25" fill="#252525" cx="110.5" cy="78.5" r="10.5"></circle>
                    <circle id="Oval-Copy-24" fill="#252525" cx="110.5" cy="118.5" r="10.5"></circle>
                    <g id="Negative-Ion" transform="translate(40.000000, 68.000000)">
                        <circle id="Oval-Copy-9" fill="#84D0EF" cx="10.5" cy="10.5" r="10.5"></circle>
                        <rect id="Rectangle" fill="#524740" x="6" y="10" width="9" height="1"></rect>
                    </g>
                    <g id="Negative-Ion" transform="translate(10.000000, 128.000000)">
                        <circle id="Oval-Copy-7" fill="#84D0EF" cx="10.5" cy="10.5" r="10.5"></circle>
                        <rect id="Rectangle" fill="#524740" x="6" y="10" width="9" height="1"></rect>
                    </g>
                    <circle id="Oval-Copy-23" fill="#252525" cx="80.5" cy="18.5" r="10.5"></circle>
                    <circle id="Oval-Copy-22" fill="#252525" cx="80.5" cy="58.5" r="10.5"></circle>
                    <g id="Negative-Ion" transform="translate(70.000000, 88.000000)">
                        <circle id="Oval-Copy-21" fill="#84D0EF" cx="10.5" cy="10.5" r="10.5"></circle>
                        <rect id="Rectangle" fill="#524740" x="6" y="10" width="9" height="1"></rect>
                    </g>
                    <circle id="Oval-Copy-20" fill="#252525" cx="80.5" cy="138.5" r="10.5"></circle>
                    <circle id="Oval-Copy-30" fill="#252525" cx="140.5" cy="18.5" r="10.5"></circle>
                    <circle id="Oval-Copy-29" fill="#252525" cx="140.5" cy="58.5" r="10.5"></circle>
                    <circle id="Oval-Copy-28" fill="#252525" cx="140.5" cy="98.5" r="10.5"></circle>
                    <circle id="Oval-Copy-27" fill="#252525" cx="140.5" cy="138.5" r="10.5"></circle>
                    <g id="Holes" transform="translate(4.000000, 11.000000)" fill="#84D0EF">
                        <circle id="Oval-Copy-31" cx="25.25" cy="65.25" r="3.25"></circle>
                        <circle id="Oval-Copy-32" cx="38.25" cy="44.25" r="3.25"></circle>
                        <circle id="Oval-Copy-33" cx="28.25" cy="16.25" r="3.25"></circle>
                        <circle id="Oval-Copy-37" cx="35.25" cy="96.25" r="3.25"></circle>
                        <circle id="Oval-Copy-38" cx="31.25" cy="138.25" r="3.25"></circle>
                        <circle id="Oval-Copy-39" cx="3.25" cy="105.25" r="3.25"></circle>
                        <circle id="Oval-Copy-123" cx="3.25" cy="135.25" r="3.25"></circle>
                        <circle id="Oval-Copy-124" cx="23.25" cy="105.25" r="3.25"></circle>
                        <circle id="Oval-Copy-125" cx="3.25" cy="75.25" r="3.25"></circle>
                        <circle id="Oval-Copy-126" cx="3.25" cy="35.25" r="3.25"></circle>
                        <circle id="Oval-Copy-127" cx="3.25" cy="3.25" r="3.25"></circle>
                        <circle id="Oval-Copy-128" cx="55.25" cy="5.25" r="3.25"></circle>
                        <circle id="Oval-Copy-129" cx="56.25" cy="45.25" r="3.25"></circle>
                        <circle id="Oval-Copy-40" cx="55.25" cy="123.25" r="3.25"></circle>
                    </g>
                </g>
                <g id="N-Type-Lattice" transform="translate(351.000000, 31.000000)">
                    <rect id="Rectangle" stroke="#999999" stroke-width="2" fill="#7D7570" x="1" y="1" width="158" height="158"></rect>
                    <circle id="Oval-Copy-3" fill="#252525" cx="20.5" cy="18.5" r="10.5"></circle>
                    <circle id="Oval-Copy-5" fill="#252525" cx="20.5" cy="58.5" r="10.5"></circle>
                    <circle id="Oval-Copy-6" fill="#252525" cx="20.5" cy="98.5" r="10.5"></circle>
                    <circle id="Oval-Copy-10" fill="#252525" cx="50.5" cy="38.5" r="10.5"></circle>
                    <g id="Positive-Ion" transform="translate(40.000000, 68.000000)">
                        <circle id="Oval-Copy-9" fill="#D7E465" cx="10.5" cy="10.5" r="10.5"></circle>
                        <path d="M10,10 L10,6 L11,6 L11,10 L15,10 L15,11 L11,11 L11,15 L10,15 L10,11 L6,11 L6,10 L10,10 Z" id="Combined-Shape" fill="#524740"></path>
                    </g>
                    <circle id="Oval-Copy-8" fill="#252525" cx="50.5" cy="118.5" r="10.5"></circle>
                    <g id="Positive-Ion" transform="translate(100.000000, 28.000000)">
                        <circle id="Oval-Copy-26" fill="#D7E465" cx="10.5" cy="10.5" r="10.5"></circle>
                        <path d="M10,10 L10,6 L11,6 L11,10 L15,10 L15,11 L11,11 L11,15 L10,15 L10,11 L6,11 L6,10 L10,10 Z" id="Combined-Shape" fill="#524740"></path>
                    </g>
                    <circle id="Oval-Copy-25" fill="#252525" cx="110.5" cy="78.5" r="10.5"></circle>
                    <circle id="Oval-Copy-24" fill="#252525" cx="110.5" cy="118.5" r="10.5"></circle>
                    <g id="Positive-Ion" transform="translate(10.000000, 128.000000)">
                        <circle id="Oval-Copy-7" fill="#D7E465" cx="10.5" cy="10.5" r="10.5"></circle>
                        <path d="M10,10 L10,6 L11,6 L11,10 L15,10 L15,11 L11,11 L11,15 L10,15 L10,11 L6,11 L6,10 L10,10 Z" id="Combined-Shape" fill="#524740"></path>
                    </g>
                    <circle id="Oval-Copy-23" fill="#252525" cx="80.5" cy="18.5" r="10.5"></circle>
                    <circle id="Oval-Copy-22" fill="#252525" cx="80.5" cy="58.5" r="10.5"></circle>
                    <g id="Positive-Ion" transform="translate(70.000000, 88.000000)">
                        <circle id="Oval-Copy-21" fill="#D7E465" cx="10.5" cy="10.5" r="10.5"></circle>
                        <path d="M10,10 L10,6 L11,6 L11,10 L15,10 L15,11 L11,11 L11,15 L10,15 L10,11 L6,11 L6,10 L10,10 Z" id="Combined-Shape" fill="#524740"></path>
                    </g>
                    <circle id="Oval-Copy-20" fill="#252525" cx="80.5" cy="138.5" r="10.5"></circle>
                    <circle id="Oval-Copy-30" fill="#252525" cx="140.5" cy="18.5" r="10.5"></circle>
                    <circle id="Oval-Copy-29" fill="#252525" cx="140.5" cy="58.5" r="10.5"></circle>
                    <circle id="Oval-Copy-28" fill="#252525" cx="140.5" cy="98.5" r="10.5"></circle>
                    <circle id="Oval-Copy-27" fill="#252525" cx="140.5" cy="138.5" r="10.5"></circle>
                    <g id="electrons" transform="translate(97.000000, 3.000000)" fill="#EF7D3B">
                        <circle id="Oval-Copy-41" cx="22.25" cy="131.25" r="3.25"></circle>
                        <circle id="Oval-Copy-42" cx="3.25" cy="96.25" r="3.25"></circle>
                        <circle id="Oval-Copy-43" cx="6.25" cy="145.25" r="3.25"></circle>
                        <circle id="Oval-Copy-44" cx="37.25" cy="151.25" r="3.25"></circle>
                        <circle id="Oval-Copy-45" cx="57.25" cy="101.25" r="3.25"></circle>
                        <circle id="Oval-Copy-46" cx="26.25" cy="87.25" r="3.25"></circle>
                        <circle id="Oval-Copy-47" cx="36.25" cy="42.25" r="3.25"></circle>
                        <circle id="Oval-Copy-48" cx="26.25" cy="8.25" r="3.25"></circle>
                        <circle id="Oval-Copy-49" cx="3.25" cy="23.25" r="3.25"></circle>
                        <circle id="Oval-Copy-167" cx="55.25" cy="3.25" r="3.25"></circle>
                        <circle id="Oval-Copy-168" cx="56.25" cy="46.25" r="3.25"></circle>
                        <circle id="Oval-Copy-169" cx="36.25" cy="70.25" r="3.25"></circle>
                    </g>
                </g>
                <g id="Depletion-Region" transform="translate(256.000000, 32.000000)">
                    <rect id="Rectangle" fill="#EF7D3B" opacity="0.149135045" x="1" y="1" width="190" height="156"></rect>
                    <path d="M0.5,0.5 L1,159" id="Line" stroke="#979797" stroke-width="2" stroke-linecap="square" stroke-dasharray="8,8"></path>
                    <path d="M190.5,0.5 L191,159" id="Line-Copy" stroke="#979797" stroke-width="2" stroke-linecap="square" stroke-dasharray="8,8"></path>
                </g>
                <path d="M248.248,2.6 C249.864008,2.6 251.127995,2.98399616 252.04,3.752 C252.952005,4.52000384 253.408,5.48799416 253.408,6.656 C253.408,7.82400584 252.952005,8.7879962 252.04,9.548 C251.127995,10.3080038 249.864008,10.688 248.248,10.688 L246.112,10.688 L246.112,13.688 C246.112,14.888006 246.243999,15.6559983 246.508,15.992 C246.772001,16.3280017 247.399995,16.496 248.392,16.496 L248.392,17 L241.912,17 L241.912,16.496 C242.904005,16.496 243.531999,16.3280017 243.796,15.992 C244.060001,15.6559983 244.192,14.888006 244.192,13.688 L244.192,5.888 C244.192,4.687994 244.060001,3.92400164 243.796,3.596 C243.531999,3.26799836 242.904005,3.104 241.912,3.104 L241.912,2.6 L248.248,2.6 Z M248.224,9.824 C249.216005,9.824 249.971997,9.52800296 250.492,8.936 C251.012003,8.34399704 251.272,7.58400464 251.272,6.656 C251.272,5.72799536 251.012003,4.96800296 250.492,4.376 C249.971997,3.78399704 249.216005,3.488 248.224,3.488 L246.112,3.488 L246.112,9.824 L248.224,9.824 Z M264.2,12.608 L257.192,12.608 L257.192,11.552 L264.2,11.552 L264.2,12.608 Z M281.376,2.6 L281.592,5.84 L281.088,5.84 L280.968,5.36 C280.775999,4.6399964 280.520002,4.15600124 280.2,3.908 C279.879998,3.65999876 279.208005,3.536 278.184,3.536 L275.04,3.536 L275.04,13.688 C275.04,14.888006 275.175999,15.6559983 275.448,15.992 C275.720001,16.3280017 276.351995,16.496 277.344,16.496 L277.344,17 L270.84,17 L270.84,16.496 C271.832005,16.496 272.463999,16.3280017 272.736,15.992 C273.008001,15.6559983 273.144,14.888006 273.144,13.688 L273.144,3.536 L270,3.536 C268.975995,3.536 268.304002,3.65999876 267.984,3.908 C267.663998,4.15600124 267.408001,4.6399964 267.216,5.36 L267.096,5.84 L266.592,5.84 L266.808,2.6 L281.376,2.6 Z M282.544,22.688 C282.544,22.4319987 282.639999,22.204001 282.832,22.004 C283.024001,21.803999 283.275998,21.5320017 283.588,21.188 C283.900002,20.8439983 284.159999,20.4080026 284.368,19.88 L285.568,16.88 L282.808,10.904 C282.551999,10.3599973 282.312001,9.988001 282.088,9.788 C281.863999,9.587999 281.568002,9.488 281.2,9.488 L281.2,9.008 L285.448,9.008 L285.448,9.488 C284.903997,9.488 284.576001,9.57599912 284.464,9.752 C284.351999,9.92800088 284.423999,10.311997 284.68,10.904 L286.432,14.744 L287.968,10.904 C288.192001,10.3599973 288.256,9.988001 288.16,9.788 C288.064,9.587999 287.768002,9.488 287.272,9.488 L287.272,9.008 L290.632,9.008 L290.632,9.488 C289.879996,9.488 289.312002,9.95999528 288.928,10.904 L284.248,22.592 C284.007999,23.184003 283.712002,23.48 283.36,23.48 C283.151999,23.48 282.964001,23.4160006 282.796,23.288 C282.627999,23.1599994 282.544,22.9600014 282.544,22.688 Z M299.864,15.488 C300.328002,14.8319967 300.56,14.000005 300.56,12.992 C300.56,11.983995 300.328002,11.1600032 299.864,10.52 C299.399998,9.8799968 298.728004,9.56 297.848,9.56 C297.303997,9.56 296.820002,9.72799832 296.396,10.064 C295.971998,10.4000017 295.640001,10.8559971 295.4,11.432 L295.4,14.528 C295.640001,15.120003 295.971998,15.5879983 296.396,15.932 C296.820002,16.2760017 297.303997,16.448 297.848,16.448 C298.728004,16.448 299.399998,16.1280032 299.864,15.488 Z M295.4,19.712 C295.4,20.8960059 295.515999,21.6559983 295.748,21.992 C295.980001,22.3280017 296.495996,22.496 297.296,22.496 L297.296,23 L291.8,23 L291.8,22.496 C292.600004,22.496 293.115999,22.3320016 293.348,22.004 C293.580001,21.6759984 293.696,20.912006 293.696,19.712 L293.696,12.488 C293.696,11.287994 293.580001,10.5240016 293.348,10.196 C293.115999,9.86799836 292.600004,9.704 291.8,9.704 L291.8,9.2 L295.016,8.6 C295.112,8.77600088 295.231999,9.263996 295.376,10.064 C296.192004,9.08799512 297.183994,8.6 298.352,8.6 C299.488006,8.6 300.463996,9.02799572 301.28,9.884 C302.096004,10.7400043 302.504,11.7759939 302.504,12.992 C302.504,14.2080061 302.096004,15.2479957 301.28,16.112 C300.463996,16.9760043 299.488006,17.408 298.352,17.408 C297.167994,17.408 296.184004,16.9280048 295.4,15.968 L295.4,19.712 Z M307.872,11.504 L311.856,11.504 C312.016001,11.0559978 311.948001,10.6200021 311.652,10.196 C311.355999,9.77199788 310.848004,9.56 310.128,9.56 C309.615997,9.56 309.156002,9.73599824 308.748,10.088 C308.339998,10.4400018 308.048001,10.911997 307.872,11.504 Z M307.728,12.392 C307.583999,13.5760059 307.771997,14.5399963 308.292,15.284 C308.812003,16.0280037 309.663994,16.4 310.848,16.4 C311.248002,16.4 311.703997,16.296001 312.216,16.088 C312.728003,15.879999 313.151998,15.6160016 313.488,15.296 L313.92,15.824 C313.487998,16.2880023 312.936003,16.6679985 312.264,16.964 C311.591997,17.2600015 310.920003,17.408 310.248,17.408 C308.951994,17.408 307.888004,16.9800043 307.056,16.124 C306.223996,15.2679957 305.808,14.2240062 305.808,12.992 C305.808,11.7599938 306.259995,10.7200042 307.164,9.872 C308.068005,9.02399576 309.095994,8.6 310.248,8.6 C311.336005,8.6 312.223997,8.9799962 312.912,9.74 C313.600003,10.5000038 313.800001,11.383995 313.512,12.392 L307.728,12.392 Z" id="P-Type-Copy" fill="#524740"></path>
                <path d="M401.512,14.024 L401.512,5.888 C401.512,4.687994 401.380001,3.92400164 401.116,3.596 C400.851999,3.26799836 400.224005,3.104 399.232,3.104 L399.232,2.6 L404.704,2.6 L404.704,3.104 C403.711995,3.104 403.080001,3.26799836 402.808,3.596 C402.535999,3.92400164 402.4,4.687994 402.4,5.888 L402.4,17.408 L401.848,17.408 L392.08,5.336 L392.08,13.688 C392.08,14.888006 392.215999,15.6559983 392.488,15.992 C392.760001,16.3280017 393.391995,16.496 394.384,16.496 L394.384,17 L388.912,17 L388.912,16.496 C389.904005,16.496 390.531999,16.3280017 390.796,15.992 C391.060001,15.6559983 391.192,14.888006 391.192,13.688 L391.192,5.888 C391.192,4.687994 391.060001,3.92400164 390.796,3.596 C390.531999,3.26799836 389.904005,3.104 388.912,3.104 L388.912,2.6 L392.296,2.6 L401.512,14.024 Z M415.4,12.608 L408.392,12.608 L408.392,11.552 L415.4,11.552 L415.4,12.608 Z M432.576,2.6 L432.792,5.84 L432.288,5.84 L432.168,5.36 C431.975999,4.6399964 431.720002,4.15600124 431.4,3.908 C431.079998,3.65999876 430.408005,3.536 429.384,3.536 L426.24,3.536 L426.24,13.688 C426.24,14.888006 426.375999,15.6559983 426.648,15.992 C426.920001,16.3280017 427.551995,16.496 428.544,16.496 L428.544,17 L422.04,17 L422.04,16.496 C423.032005,16.496 423.663999,16.3280017 423.936,15.992 C424.208001,15.6559983 424.344,14.888006 424.344,13.688 L424.344,3.536 L421.2,3.536 C420.175995,3.536 419.504002,3.65999876 419.184,3.908 C418.863998,4.15600124 418.608001,4.6399964 418.416,5.36 L418.296,5.84 L417.792,5.84 L418.008,2.6 L432.576,2.6 Z M433.744,22.688 C433.744,22.4319987 433.839999,22.204001 434.032,22.004 C434.224001,21.803999 434.475998,21.5320017 434.788,21.188 C435.100002,20.8439983 435.359999,20.4080026 435.568,19.88 L436.768,16.88 L434.008,10.904 C433.751999,10.3599973 433.512001,9.988001 433.288,9.788 C433.063999,9.587999 432.768002,9.488 432.4,9.488 L432.4,9.008 L436.648,9.008 L436.648,9.488 C436.103997,9.488 435.776001,9.57599912 435.664,9.752 C435.551999,9.92800088 435.623999,10.311997 435.88,10.904 L437.632,14.744 L439.168,10.904 C439.392001,10.3599973 439.456,9.988001 439.36,9.788 C439.264,9.587999 438.968002,9.488 438.472,9.488 L438.472,9.008 L441.832,9.008 L441.832,9.488 C441.079996,9.488 440.512002,9.95999528 440.128,10.904 L435.448,22.592 C435.207999,23.184003 434.912002,23.48 434.56,23.48 C434.351999,23.48 434.164001,23.4160006 433.996,23.288 C433.827999,23.1599994 433.744,22.9600014 433.744,22.688 Z M451.064,15.488 C451.528002,14.8319967 451.76,14.000005 451.76,12.992 C451.76,11.983995 451.528002,11.1600032 451.064,10.52 C450.599998,9.8799968 449.928004,9.56 449.048,9.56 C448.503997,9.56 448.020002,9.72799832 447.596,10.064 C447.171998,10.4000017 446.840001,10.8559971 446.6,11.432 L446.6,14.528 C446.840001,15.120003 447.171998,15.5879983 447.596,15.932 C448.020002,16.2760017 448.503997,16.448 449.048,16.448 C449.928004,16.448 450.599998,16.1280032 451.064,15.488 Z M446.6,19.712 C446.6,20.8960059 446.715999,21.6559983 446.948,21.992 C447.180001,22.3280017 447.695996,22.496 448.496,22.496 L448.496,23 L443,23 L443,22.496 C443.800004,22.496 444.315999,22.3320016 444.548,22.004 C444.780001,21.6759984 444.896,20.912006 444.896,19.712 L444.896,12.488 C444.896,11.287994 444.780001,10.5240016 444.548,10.196 C444.315999,9.86799836 443.800004,9.704 443,9.704 L443,9.2 L446.216,8.6 C446.312,8.77600088 446.431999,9.263996 446.576,10.064 C447.392004,9.08799512 448.383994,8.6 449.552,8.6 C450.688006,8.6 451.663996,9.02799572 452.48,9.884 C453.296004,10.7400043 453.704,11.7759939 453.704,12.992 C453.704,14.2080061 453.296004,15.2479957 452.48,16.112 C451.663996,16.9760043 450.688006,17.408 449.552,17.408 C448.367994,17.408 447.384004,16.9280048 446.6,15.968 L446.6,19.712 Z M459.072,11.504 L463.056,11.504 C463.216001,11.0559978 463.148001,10.6200021 462.852,10.196 C462.555999,9.77199788 462.048004,9.56 461.328,9.56 C460.815997,9.56 460.356002,9.73599824 459.948,10.088 C459.539998,10.4400018 459.248001,10.911997 459.072,11.504 Z M458.928,12.392 C458.783999,13.5760059 458.971997,14.5399963 459.492,15.284 C460.012003,16.0280037 460.863994,16.4 462.048,16.4 C462.448002,16.4 462.903997,16.296001 463.416,16.088 C463.928003,15.879999 464.351998,15.6160016 464.688,15.296 L465.12,15.824 C464.687998,16.2880023 464.136003,16.6679985 463.464,16.964 C462.791997,17.2600015 462.120003,17.408 461.448,17.408 C460.151994,17.408 459.088004,16.9800043 458.256,16.124 C457.423996,15.2679957 457.008,14.2240062 457.008,12.992 C457.008,11.7599938 457.459995,10.7200042 458.364,9.872 C459.268005,9.02399576 460.295994,8.6 461.448,8.6 C462.536005,8.6 463.423997,8.9799962 464.112,9.74 C464.800003,10.5000038 465.000001,11.383995 464.712,12.392 L458.928,12.392 Z" id="N-Type-Copy" fill="#524740"></path>
                <path d="M4.984,82.008 L3.832,84.672 C3.52799848,85.3280033 3.5159986,85.7959986 3.796,86.076 C4.0760014,86.3560014 4.71199504,86.496 5.704,86.496 L5.704,87 L0.088,87 L0.088,86.496 C0.60000256,86.496 0.9959986,86.4760002 1.276,86.436 C1.5560014,86.3959998 1.80399892,86.2680011 2.02,86.052 C2.23600108,85.8359989 2.38799956,85.6400009 2.476,85.464 C2.56400044,85.2879991 2.7279988,84.9360026 2.968,84.408 L8.248,72.192 L8.56,72.192 L13.864,84.408 C14.1040012,84.9360026 14.2679996,85.2879991 14.356,85.464 C14.4440004,85.6400009 14.5959989,85.8359989 14.812,86.052 C15.0280011,86.2680011 15.2719986,86.3959998 15.544,86.436 C15.8160014,86.4760002 16.2079974,86.496 16.72,86.496 L16.72,87 L10.072,87 L10.072,86.496 C11.064005,86.496 11.6959986,86.3560014 11.968,86.076 C12.2400014,85.7959986 12.2320014,85.3280033 11.944,84.672 L10.792,82.008 L4.984,82.008 Z M10.384,81.12 L7.864,75.336 L5.368,81.12 L10.384,81.12 Z M21.32,80.328 C22.2320046,79.1759942 23.3439934,78.6 24.656,78.6 C25.6960052,78.6 26.4759974,78.9279967 26.996,79.584 C27.5160026,80.2400033 27.776,81.1039946 27.776,82.176 L27.776,83.688 C27.776,84.888006 27.8919988,85.6559983 28.124,85.992 C28.3560012,86.3280017 28.871996,86.496 29.672,86.496 L29.672,87 L24.176,87 L24.176,86.496 C24.9600039,86.496 25.4719988,86.3240017 25.712,85.98 C25.9520012,85.6359983 26.072,84.8720059 26.072,83.688 L26.072,82.296 C26.072,80.5839914 25.4080066,79.728 24.08,79.728 C23.3919966,79.728 22.7600029,79.9679976 22.184,80.448 C21.6079971,80.9280024 21.32,81.4879968 21.32,82.128 L21.32,83.688 C21.32,84.9200062 21.415999,85.6959984 21.608,86.016 C21.800001,86.3360016 22.2639963,86.496 23,86.496 L23,87 L17.72,87 L17.72,86.496 C18.520004,86.496 19.0359988,86.3280017 19.268,85.992 C19.5000012,85.6559983 19.616,84.888006 19.616,83.688 L19.616,82.488 C19.616,81.3039941 19.5000012,80.5440017 19.268,80.208 C19.0359988,79.8719983 18.520004,79.704 17.72,79.704 L17.72,79.2 L20.912,78.6 C21.0560007,78.9040015 21.1919994,79.4799958 21.32,80.328 Z M40.536,79.896 C41.4960048,80.7440042 41.976,81.7759939 41.976,82.992 C41.976,84.2080061 41.5000048,85.2479957 40.548,86.112 C39.5959952,86.9760043 38.4560066,87.408 37.128,87.408 C35.7999934,87.408 34.6600048,86.9760043 33.708,86.112 C32.7559952,85.2479957 32.28,84.2080061 32.28,82.992 C32.28,81.7759939 32.7559952,80.7400043 33.708,79.884 C34.6600048,79.0279957 35.7999934,78.6 37.128,78.6 C38.4560066,78.6 39.5919953,79.0319957 40.536,79.896 Z M39.288,85.512 C39.7840025,84.8559967 40.032,84.0160051 40.032,82.992 C40.032,81.9679949 39.7840025,81.1320032 39.288,80.484 C38.7919975,79.8359968 38.0720047,79.512 37.128,79.512 C36.1839953,79.512 35.4640025,79.8399967 34.968,80.496 C34.4719975,81.1520033 34.224,81.983995 34.224,82.992 C34.224,84.000005 34.4719975,84.8319967 34.968,85.488 C35.4640025,86.1440033 36.1839953,86.472 37.128,86.472 C38.0720047,86.472 38.7919975,86.1520032 39.288,85.512 Z M52.384,84.552 L52.384,81.456 C52.1599989,80.8799971 51.8320022,80.4200017 51.4,80.076 C50.9679978,79.7319983 50.4880026,79.56 49.96,79.56 C49.0639955,79.56 48.3840023,79.8799968 47.92,80.52 C47.4559977,81.1600032 47.224,81.983995 47.224,82.992 C47.224,84.0160051 47.4559977,84.8479968 47.92,85.488 C48.3840023,86.1280032 49.0639955,86.448 49.96,86.448 C50.4880026,86.448 50.9679978,86.2760017 51.4,85.932 C51.8320022,85.5879983 52.1599989,85.1280029 52.384,84.552 Z M52.384,80.016 L52.384,76.104 C52.384,74.903994 52.2680012,74.1360017 52.036,73.8 C51.8039988,73.4639983 51.288004,73.296 50.488,73.296 L50.488,72.792 L54.088,72.192 L54.088,83.496 C54.088,84.696006 54.2039988,85.4639983 54.436,85.8 C54.6680012,86.1360017 55.183996,86.304 55.984,86.304 L55.984,86.808 L52.792,87.408 C52.6799994,87.1679988 52.5520007,86.6800037 52.408,85.944 C51.6239961,86.9200049 50.6400059,87.408 49.456,87.408 C48.3199943,87.408 47.3400041,86.9760043 46.516,86.112 C45.6919959,85.2479957 45.28,84.2080061 45.28,82.992 C45.28,81.7759939 45.6919959,80.7400043 46.516,79.884 C47.3400041,79.0279957 48.3199943,78.6 49.456,78.6 C50.6400059,78.6 51.6159962,79.0719953 52.384,80.016 Z M60.656,81.504 L64.64,81.504 C64.8000008,81.0559978 64.7320015,80.6200021 64.436,80.196 C64.1399985,79.7719979 63.6320036,79.56 62.912,79.56 C62.3999974,79.56 61.940002,79.7359982 61.532,80.088 C61.123998,80.4400018 60.8320009,80.911997 60.656,81.504 Z M60.512,82.392 C60.3679993,83.5760059 60.5559974,84.5399963 61.076,85.284 C61.5960026,86.0280037 62.4479941,86.4 63.632,86.4 C64.032002,86.4 64.4879974,86.296001 65,86.088 C65.5120026,85.879999 65.9359983,85.6160016 66.272,85.296 L66.704,85.824 C66.2719978,86.2880023 65.7200034,86.6679985 65.048,86.964 C64.3759966,87.2600015 63.7040034,87.408 63.032,87.408 C61.7359935,87.408 60.6720042,86.9800043 59.84,86.124 C59.0079958,85.2679957 58.592,84.2240062 58.592,82.992 C58.592,81.7599938 59.0439955,80.7200042 59.948,79.872 C60.8520045,79.0239958 61.8799942,78.6 63.032,78.6 C64.1200054,78.6 65.0079966,78.9799962 65.696,79.74 C66.3840034,80.5000038 66.5840014,81.383995 66.296,82.392 L60.512,82.392 Z M83.08,89.16 L82.552,89.664 C78.951982,86.7199853 77.152,83.4720178 77.152,79.92 C77.152,76.3839823 78.9439821,73.1360148 82.528,70.176 L83.08,70.68 C82.5679974,71.2560029 82.1440017,71.7559979 81.808,72.18 C81.4719983,72.6040021 81.0360027,73.2359958 80.5,74.076 C79.9639973,74.9160042 79.5520014,75.831995 79.264,76.824 C78.9759986,77.816005 78.832,78.8479946 78.832,79.92 C78.832,80.9920054 78.9759986,82.023995 79.264,83.016 C79.5520014,84.008005 79.9639973,84.9239958 80.5,85.764 C81.0360027,86.6040042 81.4719983,87.2359979 81.808,87.66 C82.1440017,88.0840021 82.5679974,88.5839971 83.08,89.16 Z M88.736,82.008 L87.584,84.672 C87.2799985,85.3280033 87.2679986,85.7959986 87.548,86.076 C87.8280014,86.3560014 88.463995,86.496 89.456,86.496 L89.456,87 L83.84,87 L83.84,86.496 C84.3520026,86.496 84.7479986,86.4760002 85.028,86.436 C85.3080014,86.3959998 85.5559989,86.2680011 85.772,86.052 C85.9880011,85.8359989 86.1399996,85.6400009 86.228,85.464 C86.3160004,85.2879991 86.4799988,84.9360026 86.72,84.408 L92,72.192 L92.312,72.192 L97.616,84.408 C97.8560012,84.9360026 98.0199996,85.2879991 98.108,85.464 C98.1960004,85.6400009 98.3479989,85.8359989 98.564,86.052 C98.7800011,86.2680011 99.0239986,86.3959998 99.296,86.436 C99.5680014,86.4760002 99.9599974,86.496 100.472,86.496 L100.472,87 L93.824,87 L93.824,86.496 C94.816005,86.496 95.4479986,86.3560014 95.72,86.076 C95.9920014,85.7959986 95.9840014,85.3280033 95.696,84.672 L94.544,82.008 L88.736,82.008 Z M94.136,81.12 L91.616,75.336 L89.12,81.12 L94.136,81.12 Z M107.16,79.92 C107.16,83.4880178 105.368018,86.7359854 101.784,89.664 L101.232,89.16 C101.760003,88.567997 102.187998,88.0640021 102.516,87.648 C102.844002,87.2319979 103.279997,86.6040042 103.824,85.764 C104.368003,84.9239958 104.783999,84.008005 105.072,83.016 C105.360001,82.023995 105.504,80.9920054 105.504,79.92 C105.504,78.8479946 105.360001,77.816005 105.072,76.824 C104.783999,75.831995 104.368003,74.9160042 103.824,74.076 C103.279997,73.2359958 102.844002,72.6080021 102.516,72.192 C102.187998,71.7759979 101.760003,71.272003 101.232,70.68 L101.808,70.176 C105.376018,73.1200147 107.16,76.3679822 107.16,79.92 Z" id="Anode-(A)-Copy" fill="#524740"></path>
                <path d="M582.708,86.736 L582.228,86.736 C582.099999,86.1119969 581.828002,85.6560014 581.412,85.368 C580.099993,86.7280068 578.612008,87.408 576.948,87.408 C574.91599,87.408 573.180007,86.6640074 571.74,85.176 C570.299993,83.6879926 569.58,81.8960105 569.58,79.8 C569.58,77.7039895 570.299993,75.9120074 571.74,74.424 C573.180007,72.9359926 574.91599,72.192 576.948,72.192 C578.644008,72.192 580.131994,72.8719932 581.412,74.232 C581.844002,73.8959983 582.115999,73.4400029 582.228,72.864 L582.708,72.864 L582.708,78.144 L582.228,78.144 C581.891998,76.5599921 581.272005,75.3280044 580.368,74.448 C579.463995,73.5679956 578.356007,73.128 577.044,73.128 C576.131995,73.128 575.324004,73.331998 574.62,73.74 C573.915996,74.148002 573.368002,74.6879966 572.976,75.36 C572.583998,76.0320034 572.292001,76.7439962 572.1,77.496 C571.907999,78.2480038 571.812,79.0159961 571.812,79.8 C571.812,80.5840039 571.907999,81.3519962 572.1,82.104 C572.292001,82.8560038 572.583998,83.5639967 572.976,84.228 C573.368002,84.8920033 573.915996,85.427998 574.62,85.836 C575.324004,86.244002 576.131995,86.448 577.044,86.448 C578.356007,86.448 579.463995,86.0040044 580.368,85.116 C581.272005,84.2279956 581.891998,83.0080078 582.228,81.456 L582.708,81.456 L582.708,86.736 Z M594.772,86.52 C594.307998,87.0160025 593.780003,87.264 593.188,87.264 C592.227995,87.264 591.684001,86.8000046 591.556,85.872 C590.483995,86.8320048 589.484005,87.312 588.556,87.312 C587.947997,87.312 587.436002,87.1320018 587.02,86.772 C586.603998,86.4119982 586.396,85.9200031 586.396,85.296 C586.396,83.6159916 588.099983,82.480003 591.508,81.888 C591.508,80.9439953 591.404001,80.2880018 591.196,79.92 C590.987999,79.5519982 590.556003,79.368 589.9,79.368 C589.579998,79.368 589.272001,79.471999 588.976,79.68 C588.679999,79.888001 588.532,80.1679982 588.532,80.52 C588.532,80.7600012 588.452001,80.9599992 588.292,81.12 C588.131999,81.2800008 587.940001,81.36 587.716,81.36 C587.475999,81.36 587.276001,81.2800008 587.116,81.12 C586.955999,80.9599992 586.876,80.7600012 586.876,80.52 C586.876,79.9599972 587.183997,79.5000018 587.8,79.14 C588.416003,78.7799982 589.123996,78.6 589.924,78.6 C591.092006,78.6 591.931997,78.8559974 592.444,79.368 C592.956003,79.8800026 593.212,80.7119942 593.212,81.864 L593.212,85.488 C593.212,86.1120031 593.395998,86.424 593.764,86.424 C593.972001,86.424 594.195999,86.3040012 594.436,86.064 L594.772,86.52 Z M591.508,85.08 L591.508,82.632 C589.299989,83.1440026 588.196,83.9359946 588.196,85.008 C588.196,85.3760018 588.303999,85.6719989 588.52,85.896 C588.736001,86.1200011 589.003998,86.232 589.324,86.232 C589.916003,86.232 590.643996,85.8480038 591.508,85.08 Z M598.076,79.848 L596.828,79.848 L596.828,79.272 C597.516003,79.1279993 598.019998,78.8160024 598.34,78.336 C598.660002,77.8559976 598.868,77.2000042 598.964,76.368 L599.78,76.368 L599.78,79.008 L601.868,79.008 L601.868,79.848 L599.78,79.848 L599.78,84.648 C599.78,85.8000058 600.139996,86.376 600.86,86.376 C601.324002,86.376 601.843997,86.1040027 602.42,85.56 L602.828,85.968 C602.491998,86.368002 602.088002,86.6959987 601.616,86.952 C601.143998,87.2080013 600.708002,87.336 600.308,87.336 C599.619997,87.336 599.076002,87.1120022 598.676,86.664 C598.275998,86.2159978 598.076,85.5440045 598.076,84.648 L598.076,79.848 Z M616.308,87 L611.004,87 L611.004,86.496 C611.756004,86.496 612.227999,86.3360016 612.42,86.016 C612.612001,85.6959984 612.708,84.9200062 612.708,83.688 L612.708,82.296 C612.708,80.5839914 612.100006,79.728 610.884,79.728 C610.243997,79.728 609.652003,79.9639976 609.108,80.436 C608.563997,80.9080024 608.292,81.4719967 608.292,82.128 L608.292,83.688 C608.292,84.9360062 608.379999,85.7159984 608.556,86.028 C608.732001,86.3400016 609.147997,86.496 609.804,86.496 L609.804,87 L604.692,87 L604.692,86.496 C605.492004,86.496 606.007999,86.3280017 606.24,85.992 C606.472001,85.6559983 606.588,84.888006 606.588,83.688 L606.588,76.104 C606.588,74.903994 606.472001,74.1360017 606.24,73.8 C606.007999,73.4639983 605.492004,73.296 604.692,73.296 L604.692,72.792 L608.292,72.192 L608.292,80.328 C609.236005,79.1759942 610.283994,78.6 611.436,78.6 C613.40401,78.6 614.388,79.7919881 614.388,82.176 L614.388,83.688 C614.388,84.888006 614.503999,85.6559983 614.736,85.992 C614.968001,86.3280017 615.491996,86.496 616.308,86.496 L616.308,87 Z M627.172,79.896 C628.132005,80.7440042 628.612,81.7759939 628.612,82.992 C628.612,84.2080061 628.136005,85.2479957 627.184,86.112 C626.231995,86.9760043 625.092007,87.408 623.764,87.408 C622.435993,87.408 621.296005,86.9760043 620.344,86.112 C619.391995,85.2479957 618.916,84.2080061 618.916,82.992 C618.916,81.7759939 619.391995,80.7400043 620.344,79.884 C621.296005,79.0279957 622.435993,78.6 623.764,78.6 C625.092007,78.6 626.227995,79.0319957 627.172,79.896 Z M625.924,85.512 C626.420002,84.8559967 626.668,84.0160051 626.668,82.992 C626.668,81.9679949 626.420002,81.1320032 625.924,80.484 C625.427998,79.8359968 624.708005,79.512 623.764,79.512 C622.819995,79.512 622.100002,79.8399967 621.604,80.496 C621.107998,81.1520033 620.86,81.983995 620.86,82.992 C620.86,84.000005 621.107998,84.8319967 621.604,85.488 C622.100002,86.1440033 622.819995,86.472 623.764,86.472 C624.708005,86.472 625.427998,86.1520032 625.924,85.512 Z M639.02,84.552 L639.02,81.456 C638.795999,80.8799971 638.468002,80.4200017 638.036,80.076 C637.603998,79.7319983 637.124003,79.56 636.596,79.56 C635.699996,79.56 635.020002,79.8799968 634.556,80.52 C634.091998,81.1600032 633.86,81.983995 633.86,82.992 C633.86,84.0160051 634.091998,84.8479968 634.556,85.488 C635.020002,86.1280032 635.699996,86.448 636.596,86.448 C637.124003,86.448 637.603998,86.2760017 638.036,85.932 C638.468002,85.5879983 638.795999,85.1280029 639.02,84.552 Z M639.02,80.016 L639.02,76.104 C639.02,74.903994 638.904001,74.1360017 638.672,73.8 C638.439999,73.4639983 637.924004,73.296 637.124,73.296 L637.124,72.792 L640.724,72.192 L640.724,83.496 C640.724,84.696006 640.839999,85.4639983 641.072,85.8 C641.304001,86.1360017 641.819996,86.304 642.62,86.304 L642.62,86.808 L639.428,87.408 C639.315999,87.1679988 639.188001,86.6800037 639.044,85.944 C638.259996,86.9200049 637.276006,87.408 636.092,87.408 C634.955994,87.408 633.976004,86.9760043 633.152,86.112 C632.327996,85.2479957 631.916,84.2080061 631.916,82.992 C631.916,81.7759939 632.327996,80.7400043 633.152,79.884 C633.976004,79.0279957 634.955994,78.6 636.092,78.6 C637.276006,78.6 638.251996,79.0719953 639.02,80.016 Z M647.292,81.504 L651.276,81.504 C651.436001,81.0559978 651.368001,80.6200021 651.072,80.196 C650.775999,79.7719979 650.268004,79.56 649.548,79.56 C649.035997,79.56 648.576002,79.7359982 648.168,80.088 C647.759998,80.4400018 647.468001,80.911997 647.292,81.504 Z M647.148,82.392 C647.003999,83.5760059 647.191997,84.5399963 647.712,85.284 C648.232003,86.0280037 649.083994,86.4 650.268,86.4 C650.668002,86.4 651.123997,86.296001 651.636,86.088 C652.148003,85.879999 652.571998,85.6160016 652.908,85.296 L653.34,85.824 C652.907998,86.2880023 652.356003,86.6679985 651.684,86.964 C651.011997,87.2600015 650.340003,87.408 649.668,87.408 C648.371994,87.408 647.308004,86.9800043 646.476,86.124 C645.643996,85.2679957 645.228,84.2240062 645.228,82.992 C645.228,81.7599938 645.679995,80.7200042 646.584,79.872 C647.488005,79.0239958 648.515994,78.6 649.668,78.6 C650.756005,78.6 651.643997,78.9799962 652.332,79.74 C653.020003,80.5000038 653.220001,81.383995 652.932,82.392 L647.148,82.392 Z M669.716,89.16 L669.188,89.664 C665.587982,86.7199853 663.788,83.4720178 663.788,79.92 C663.788,76.3839823 665.579982,73.1360148 669.164,70.176 L669.716,70.68 C669.203997,71.2560029 668.780002,71.7559979 668.444,72.18 C668.107998,72.6040021 667.672003,73.2359958 667.136,74.076 C666.599997,74.9160042 666.188001,75.831995 665.9,76.824 C665.611999,77.816005 665.468,78.8479946 665.468,79.92 C665.468,80.9920054 665.611999,82.023995 665.9,83.016 C666.188001,84.008005 666.599997,84.9239958 667.136,85.764 C667.672003,86.6040042 668.107998,87.2359979 668.444,87.66 C668.780002,88.0840021 669.203997,88.5839971 669.716,89.16 Z M678.492,78.648 L685.932,85.104 C686.364002,85.4720018 686.903997,85.7959986 687.552,86.076 C688.200003,86.3560014 688.691998,86.496 689.028,86.496 L689.028,87 L682.284,87 L682.284,86.496 C683.068004,86.496 683.539999,86.3640013 683.7,86.1 C683.860001,85.8359987 683.692002,85.504002 683.196,85.104 L677.124,79.848 L676.5,80.352 L676.5,83.688 C676.5,84.888006 676.631999,85.6559983 676.896,85.992 C677.160001,86.3280017 677.787995,86.496 678.78,86.496 L678.78,87 L672.3,87 L672.3,86.496 C673.292005,86.496 673.919999,86.3280017 674.184,85.992 C674.448001,85.6559983 674.58,84.888006 674.58,83.688 L674.58,75.888 C674.58,74.687994 674.448001,73.9240016 674.184,73.596 C673.919999,73.2679984 673.292005,73.104 672.3,73.104 L672.3,72.6 L678.78,72.6 L678.78,73.104 C677.787995,73.104 677.160001,73.2679984 676.896,73.596 C676.631999,73.9240016 676.5,74.687994 676.5,75.888 L676.5,79.248 L681.42,75.048 C682.764007,73.7999938 682.796006,73.1520002 681.516,73.104 L681.516,72.6 L687.084,72.6 L687.084,73.104 C686.203996,73.104 685.472003,73.2399986 684.888,73.512 C684.303997,73.7840014 683.572004,74.2959962 682.692,75.048 L678.492,78.648 Z M696.508,79.92 C696.508,83.4880178 694.716018,86.7359854 691.132,89.664 L690.58,89.16 C691.108003,88.567997 691.535998,88.0640021 691.864,87.648 C692.192002,87.2319979 692.627997,86.6040042 693.172,85.764 C693.716003,84.9239958 694.131999,84.008005 694.42,83.016 C694.708001,82.023995 694.852,80.9920054 694.852,79.92 C694.852,78.8479946 694.708001,77.816005 694.42,76.824 C694.131999,75.831995 693.716003,74.9160042 693.172,74.076 C692.627997,73.2359958 692.192002,72.6080021 691.864,72.192 C691.535998,71.7759979 691.108003,71.272003 690.58,70.68 L691.156,70.176 C694.724018,73.1200147 696.508,76.3679822 696.508,79.92 Z" id="Cathode-(K)-Copy" fill="#524740"></path>
            </g>
            <g id="Potential-Plates" transform="translate(335.000000, 218.000000)">
                <g id="VS">
                    <path d="M15,14.5 L15,47.5" id="Line-2-Copy" stroke="#3D3530" stroke-width="3" stroke-linecap="square"></path>
                    <path d="M41,14.5 L41,47.5" id="Line-2-Copy-2" stroke="#3D3530" stroke-width="3" stroke-linecap="square"></path>
                    <path d="M28,5.5 L28,54.5" id="Line-2-Copy" stroke="#3D3530" stroke-width="3" stroke-linecap="square"></path>
                    <path d="M53,5.5 L53,54.5" id="Line-2-Copy-3" stroke="#3D3530" stroke-width="3" stroke-linecap="square"></path>
                    <rect id="Combined-Shape" fill="#524740" x="0" y="5" width="9" height="1"></rect>
                    <path d="M63,4 L63,0 L64,0 L64,4 L68,4 L68,5 L64,5 L64,9 L63,9 L63,5 L59,5 L59,4 L63,4 Z" id="Combined-Shape" fill="#524740"></path>
                </g>
            </g>
            <g id="Anode" transform="translate(0.000000, 72.000000)">
                <rect id="Rectangle" fill="#3D3530" x="205" y="0" width="7" height="80"></rect>
                <polyline id="Path-8" stroke="#3D3530" stroke-width="3" points="206.880017 39.9008336 14.880017 39.9008336 14.880017 176.5 350.45316 176.5"></polyline>
                <g id="Anode-Electron-Flow" transform="translate(0.000000, 26.000000)" fill="#EF7D3B">
                    <circle id="Oval-Copy-44" cx="23.25" cy="163.25" r="3.25"></circle>
                    <circle id="Oval-Copy-66" cx="3.25" cy="163.25" r="3.25"></circle>
                    <circle id="Oval-Copy-50" cx="43.25" cy="163.25" r="3.25"></circle>
                    <circle id="Oval-Copy-51" cx="63.25" cy="163.25" r="3.25"></circle>
                    <circle id="Oval-Copy-52" cx="83.25" cy="163.25" r="3.25"></circle>
                    <circle id="Oval-Copy-53" cx="103.25" cy="163.25" r="3.25"></circle>
                    <circle id="Oval-Copy-54" cx="123.25" cy="163.25" r="3.25"></circle>
                    <circle id="Oval-Copy-55" cx="143.25" cy="163.25" r="3.25"></circle>
                    <circle id="Oval-Copy-56" cx="163.25" cy="163.25" r="3.25"></circle>
                    <circle id="Oval-Copy-57" cx="183.25" cy="163.25" r="3.25"></circle>
                    <circle id="Oval-Copy-58" cx="203.25" cy="163.25" r="3.25"></circle>
                    <circle id="Oval-Copy-59" cx="223.25" cy="163.25" r="3.25"></circle>
                    <circle id="Oval-Copy-60" cx="243.25" cy="163.25" r="3.25"></circle>
                    <circle id="Oval-Copy-61" cx="263.25" cy="163.25" r="3.25"></circle>
                    <circle id="Oval-Copy-62" cx="283.25" cy="163.25" r="3.25"></circle>
                    <circle id="Oval-Copy-63" cx="303.25" cy="163.25" r="3.25"></circle>
                    <circle id="Oval-Copy-64" cx="323.25" cy="163.25" r="3.25"></circle>
                    <circle id="Oval-Copy-65" cx="323.25" cy="163.25" r="3.25"></circle>
                    <circle id="Oval-Copy-67" cx="3.25" cy="143.25" r="3.25"></circle>
                    <circle id="Oval-Copy-68" cx="3.25" cy="123.25" r="3.25"></circle>
                    <circle id="Oval-Copy-69" cx="3.25" cy="103.25" r="3.25"></circle>
                    <circle id="Oval-Copy-70" cx="3.25" cy="83.25" r="3.25"></circle>
                    <circle id="Oval-Copy-71" cx="3.25" cy="63.25" r="3.25"></circle>
                    <circle id="Oval-Copy-72" cx="3.25" cy="43.25" r="3.25"></circle>
                    <circle id="Oval-Copy-73" cx="3.25" cy="23.25" r="3.25"></circle>
                    <circle id="Oval-Copy-74" cx="183.25" cy="3.25" r="3.25"></circle>
                    <circle id="Oval-Copy-75" cx="163.25" cy="3.25" r="3.25"></circle>
                    <circle id="Oval-Copy-76" cx="143.25" cy="3.25" r="3.25"></circle>
                    <circle id="Oval-Copy-77" cx="123.25" cy="3.25" r="3.25"></circle>
                    <circle id="Oval-Copy-78" cx="103.25" cy="3.25" r="3.25"></circle>
                    <circle id="Oval-Copy-79" cx="83.25" cy="3.25" r="3.25"></circle>
                    <circle id="Oval-Copy-80" cx="63.25" cy="3.25" r="3.25"></circle>
                    <circle id="Oval-Copy-81" cx="43.25" cy="3.25" r="3.25"></circle>
                    <circle id="Oval-Copy-82" cx="23.25" cy="3.25" r="3.25"></circle>
                    <circle id="Oval-Copy-83" cx="3.25" cy="3.25" r="3.25"></circle>
                </g>
            </g>
            <g id="Cathode" transform="translate(388.000000, 73.000000)">
                <rect id="Rectangle" fill="#3D3530" x="140" y="0" width="7" height="80"></rect>
                <polyline id="Path-8" stroke="#3D3530" stroke-width="3" points="0 176.5 333.880017 176.5 333.880017 39.9008336 141.880017 39.9008336"></polyline>
                <g id="Cathode-Hole-Flow" transform="translate(22.000000, 45.000000)" fill="#84D0EF">
                    <circle id="Oval-Copy-92" cx="303.25" cy="3.25" r="3.25"></circle>
                    <circle id="Oval-Copy-91" cx="283.25" cy="3.25" r="3.25"></circle>
                    <circle id="Oval-Copy-90" cx="263.25" cy="3.25" r="3.25"></circle>
                    <circle id="Oval-Copy-89" cx="243.25" cy="3.25" r="3.25"></circle>
                    <circle id="Oval-Copy-88" cx="223.25" cy="3.25" r="3.25"></circle>
                    <circle id="Oval-Copy-87" cx="203.25" cy="3.25" r="3.25"></circle>
                    <circle id="Oval-Copy-86" cx="183.25" cy="3.25" r="3.25"></circle>
                    <circle id="Oval-Copy-85" cx="163.25" cy="3.25" r="3.25"></circle>
                    <circle id="Oval-Copy-84" cx="143.25" cy="3.25" r="3.25"></circle>
                    <circle id="Oval-Copy-67" cx="303.25" cy="123.25" r="3.25"></circle>
                    <circle id="Oval-Copy-68" cx="303.25" cy="103.25" r="3.25"></circle>
                    <circle id="Oval-Copy-69" cx="303.25" cy="83.25" r="3.25"></circle>
                    <circle id="Oval-Copy-70" cx="303.25" cy="63.25" r="3.25"></circle>
                    <circle id="Oval-Copy-71" cx="303.25" cy="43.25" r="3.25"></circle>
                    <circle id="Oval-Copy-72" cx="303.25" cy="23.25" r="3.25"></circle>
                    <circle id="Oval-Copy-44" cx="23.25" cy="123.25" r="3.25"></circle>
                    <circle id="Oval-Copy-66" cx="3.25" cy="123.25" r="3.25"></circle>
                    <circle id="Oval-Copy-50" cx="43.25" cy="123.25" r="3.25"></circle>
                    <circle id="Oval-Copy-51" cx="63.25" cy="123.25" r="3.25"></circle>
                    <circle id="Oval-Copy-52" cx="83.25" cy="123.25" r="3.25"></circle>
                    <circle id="Oval-Copy-53" cx="103.25" cy="123.25" r="3.25"></circle>
                    <circle id="Oval-Copy-54" cx="123.25" cy="123.25" r="3.25"></circle>
                    <circle id="Oval-Copy-55" cx="143.25" cy="123.25" r="3.25"></circle>
                    <circle id="Oval-Copy-56" cx="163.25" cy="123.25" r="3.25"></circle>
                    <circle id="Oval-Copy-57" cx="183.25" cy="123.25" r="3.25"></circle>
                    <circle id="Oval-Copy-58" cx="203.25" cy="123.25" r="3.25"></circle>
                    <circle id="Oval-Copy-59" cx="223.25" cy="123.25" r="3.25"></circle>
                    <circle id="Oval-Copy-60" cx="243.25" cy="123.25" r="3.25"></circle>
                    <circle id="Oval-Copy-61" cx="263.25" cy="123.25" r="3.25"></circle>
                    <circle id="Oval-Copy-62" cx="283.25" cy="123.25" r="3.25"></circle>
                </g>
            </g>
            <path id="Line-4" d="M258.5,205 L298.5,205 L300,205 L300,208 L298.5,208 L258.5,208 L258.5,216 L239.5,206.5 L258.5,197 L258.5,205 Z" fill="#84D0EF" fill-rule="nonzero"></path>
            <path id="Line-4-Copy" d="M480,208 L440,208 L438.5,208 L438.5,205 L440,205 L480,205 L480,197 L499,206.5 L480,216 L480,208 Z" fill="#EF7D3B" fill-rule="nonzero"></path>
        </g>
        <path d="M465.772,358 L465.772,333.808 L471.244,333.808 C475.22802,333.808 478.395988,334.959988 480.748,337.264 C483.100012,339.568012 484.276,342.447983 484.276,345.904 C484.276,349.336017 483.094012,352.209988 480.73,354.526 C478.365988,356.842012 475.20402,358 471.244,358 L465.772,358 Z M468.148,355.732 L471.244,355.732 C474.412016,355.732 476.943991,354.802009 478.84,352.942 C480.736009,351.081991 481.684,348.736014 481.684,345.904 C481.684,343.071986 480.736009,340.726009 478.84,338.866 C476.943991,337.005991 474.412016,336.076 471.244,336.076 L468.148,336.076 L468.148,355.732 Z M491.936,334.6 C491.671999,334.888001 491.336002,335.032 490.928,335.032 C490.519998,335.032 490.178001,334.888001 489.902,334.6 C489.625999,334.311999 489.488,333.976002 489.488,333.592 C489.488,333.207998 489.625999,332.872001 489.902,332.584 C490.178001,332.295999 490.519998,332.152 490.928,332.152 C491.336002,332.152 491.677999,332.295999 491.954,332.584 C492.230001,332.872001 492.368,333.207998 492.368,333.592 C492.368,333.976002 492.224001,334.311999 491.936,334.6 Z M489.74,358 L489.74,340 L492.116,340 L492.116,358 L489.74,358 Z M513.168,355.552 C511.367991,357.376009 509.184013,358.288 506.616,358.288 C504.047987,358.288 501.858009,357.382009 500.046,355.57 C498.233991,353.757991 497.328,351.568013 497.328,349 C497.328,346.431987 498.233991,344.242009 500.046,342.43 C501.858009,340.617991 504.047987,339.712 506.616,339.712 C509.184013,339.712 511.373991,340.617991 513.186,342.43 C514.998009,344.242009 515.904,346.431987 515.904,349 C515.904,351.544013 514.992009,353.727991 513.168,355.552 Z M506.652,356.02 C508.59601,356.02 510.233993,355.342007 511.566,353.986 C512.898007,352.629993 513.564,350.96801 513.564,349 C513.564,347.03199 512.898007,345.364007 511.566,343.996 C510.233993,342.627993 508.59601,341.944 506.652,341.944 C504.73199,341.944 503.100007,342.627993 501.756,343.996 C500.411993,345.364007 499.74,347.03199 499.74,349 C499.74,350.96801 500.411993,352.629993 501.756,353.986 C503.100007,355.342007 504.73199,356.02 506.652,356.02 Z M535.84,331.216 L538.216,331.216 L538.216,358 L535.84,358 L535.84,355.084 C533.991991,357.220011 531.652014,358.288 528.82,358.288 C526.251987,358.288 524.062009,357.382009 522.25,355.57 C520.437991,353.757991 519.532,351.568013 519.532,349 C519.532,346.431987 520.437991,344.242009 522.25,342.43 C524.062009,340.617991 526.251987,339.712 528.82,339.712 C531.676014,339.712 534.015991,340.779989 535.84,342.916 L535.84,331.216 Z M523.924,354.004 C525.268007,355.348007 526.91199,356.02 528.856,356.02 C530.80001,356.02 532.437993,355.342007 533.77,353.986 C535.102007,352.629993 535.768,350.96801 535.768,349 C535.768,347.03199 535.102007,345.370007 533.77,344.014 C532.437993,342.657993 530.80001,341.98 528.856,341.98 C526.91199,341.98 525.268007,342.657993 523.924,344.014 C522.579993,345.370007 521.908,347.03199 521.908,349 C521.908,350.96801 522.579993,352.635993 523.924,354.004 Z M552.356,355.912 C553.964008,355.912 555.403994,355.456005 556.676,354.544 C557.948006,353.631995 558.811998,352.564006 559.268,351.34 L561.284,352.06 C560.731997,353.572008 559.658008,354.963994 558.062,356.236 C556.465992,357.508006 554.564011,358.132 552.356,358.108 C550.33999,358.108 548.498008,357.484006 546.83,356.236 C545.161992,354.987994 544.028003,353.39201 543.428,351.448 C543.187999,350.655996 543.068,349.792005 543.068,348.856 C543.068,346.263987 543.967991,344.068009 545.768,342.268 C547.568009,340.467991 549.763987,339.556 552.356,339.532 C554.708012,339.556 556.759991,340.347992 558.512,341.908 C560.264009,343.468008 561.271999,345.399988 561.536,347.704 C561.56,347.824001 561.572,347.979999 561.572,348.172 L545.84,351.016 C546.248002,352.456007 547.063994,353.637995 548.288,354.562 C549.512006,355.486005 550.867993,355.936 552.356,355.912 Z M552.14,341.728 C550.339991,341.752 548.798006,342.399994 547.514,343.672 C546.229994,344.944006 545.54,346.467991 545.444,348.244 C545.444,348.316 545.45,348.441999 545.462,348.622 C545.474,348.802001 545.48,348.951999 545.48,349.072 L558.872,346.66 C558.415998,345.195993 557.564006,344.002005 556.316,343.078 C555.067994,342.153995 553.676008,341.704 552.14,341.728 Z M601.444,340 L603.82,340 L597.448,358 L595.072,358 L589.996,343.168 L584.92,358 L582.544,358 L576.208,340 L578.584,340 L583.732,354.652 L588.916,340 L591.076,340 L596.26,354.652 L601.444,340 Z M610.508,334.6 C610.243999,334.888001 609.908002,335.032 609.5,335.032 C609.091998,335.032 608.750001,334.888001 608.474,334.6 C608.197999,334.311999 608.06,333.976002 608.06,333.592 C608.06,333.207998 608.197999,332.872001 608.474,332.584 C608.750001,332.295999 609.091998,332.152 609.5,332.152 C609.908002,332.152 610.249999,332.295999 610.526,332.584 C610.802001,332.872001 610.94,333.207998 610.94,333.592 C610.94,333.976002 610.796001,334.311999 610.508,334.6 Z M608.312,358 L608.312,340 L610.688,340 L610.688,358 L608.312,358 Z M626.412,353.968 L627.6,355.804 C627.455999,355.996001 627.264001,356.223999 627.024,356.488 C626.783999,356.752001 626.244004,357.117998 625.404,357.586 C624.563996,358.054002 623.700004,358.288 622.812,358.288 C621.299992,358.288 620.034005,357.838005 619.014,356.938 C617.993995,356.037996 617.484,354.736009 617.484,353.032 L617.484,342.16 L614.604,342.16 L614.604,339.964 L617.484,339.964 L617.484,334.276 L619.86,333.988 L619.86,339.964 L625.296,339.964 L625.296,342.16 L619.86,342.16 L619.86,352.492 C619.86,353.596006 620.201997,354.471997 620.886,355.12 C621.570003,355.768003 622.355996,356.092 623.244,356.092 C623.796003,356.092 624.335997,355.924002 624.864,355.588 C625.392003,355.251998 625.781999,354.922002 626.034,354.598 C626.286001,354.273998 626.412,354.064 626.412,353.968 Z M639.616,339.712 C641.70401,339.712 643.455993,340.461993 644.872,341.962 C646.288007,343.462008 646.996,345.291989 646.996,347.452 L646.996,358 L644.584,358 L644.584,347.488 C644.584,345.927992 644.068005,344.614005 643.036,343.546 C642.003995,342.477995 640.732008,341.944 639.22,341.944 C637.731993,341.944 636.466005,342.477995 635.422,343.546 C634.377995,344.614005 633.856,345.915992 633.856,347.452 L633.856,358 L631.48,358 L631.48,331.216 L633.856,331.216 L633.856,342.664 C635.320007,340.69599 637.239988,339.712 639.616,339.712 Z M663.72,358 L663.72,333.808 L671.928,333.808 C674.640014,333.808 676.799992,334.521993 678.408,335.95 C680.016008,337.378007 680.82,339.171989 680.82,341.332 C680.82,342.940008 680.346005,344.367994 679.398,345.616 C678.449995,346.864006 677.124009,347.751997 675.42,348.28 L680.82,358 L678.336,358 L673.188,348.784 L671.712,348.856 L666.096,348.856 L666.096,358 L663.72,358 Z M666.096,346.588 L671.928,346.588 C673.87201,346.588 675.431994,346.090005 676.608,345.094 C677.784006,344.097995 678.372,342.844008 678.372,341.332 C678.372,339.843993 677.784006,338.596005 676.608,337.588 C675.431994,336.579995 673.87201,336.076 671.928,336.076 L666.096,336.076 L666.096,346.588 Z M693.484,355.912 C695.092008,355.912 696.531994,355.456005 697.804,354.544 C699.076006,353.631995 699.939998,352.564006 700.396,351.34 L702.412,352.06 C701.859997,353.572008 700.786008,354.963994 699.19,356.236 C697.593992,357.508006 695.692011,358.132 693.484,358.108 C691.46799,358.108 689.626008,357.484006 687.958,356.236 C686.289992,354.987994 685.156003,353.39201 684.556,351.448 C684.315999,350.655996 684.196,349.792005 684.196,348.856 C684.196,346.263987 685.095991,344.068009 686.896,342.268 C688.696009,340.467991 690.891987,339.556 693.484,339.532 C695.836012,339.556 697.887991,340.347992 699.64,341.908 C701.392009,343.468008 702.399999,345.399988 702.664,347.704 C702.688,347.824001 702.7,347.979999 702.7,348.172 L686.968,351.016 C687.376002,352.456007 688.191994,353.637995 689.416,354.562 C690.640006,355.486005 691.995993,355.936 693.484,355.912 Z M693.268,341.728 C691.467991,341.752 689.926006,342.399994 688.642,343.672 C687.357994,344.944006 686.668,346.467991 686.572,348.244 C686.572,348.316 686.578,348.441999 686.59,348.622 C686.602,348.802001 686.608,348.951999 686.608,349.072 L700,346.66 C699.543998,345.195993 698.692006,344.002005 697.444,343.078 C696.195994,342.153995 694.804008,341.704 693.268,341.728 Z M718.136,340 L720.512,340 L714.14,358 L711.764,358 L705.428,340 L707.804,340 L712.952,354.652 L718.136,340 Z M732.024,355.912 C733.632008,355.912 735.071994,355.456005 736.344,354.544 C737.616006,353.631995 738.479998,352.564006 738.936,351.34 L740.952,352.06 C740.399997,353.572008 739.326008,354.963994 737.73,356.236 C736.133992,357.508006 734.232011,358.132 732.024,358.108 C730.00799,358.108 728.166008,357.484006 726.498,356.236 C724.829992,354.987994 723.696003,353.39201 723.096,351.448 C722.855999,350.655996 722.736,349.792005 722.736,348.856 C722.736,346.263987 723.635991,344.068009 725.436,342.268 C727.236009,340.467991 729.431987,339.556 732.024,339.532 C734.376012,339.556 736.427991,340.347992 738.18,341.908 C739.932009,343.468008 740.939999,345.399988 741.204,347.704 C741.228,347.824001 741.24,347.979999 741.24,348.172 L725.508,351.016 C725.916002,352.456007 726.731994,353.637995 727.956,354.562 C729.180006,355.486005 730.535993,355.936 732.024,355.912 Z M731.808,341.728 C730.007991,341.752 728.466006,342.399994 727.182,343.672 C725.897994,344.944006 725.208,346.467991 725.112,348.244 C725.112,348.316 725.118,348.441999 725.13,348.622 C725.142,348.802001 725.148,348.951999 725.148,349.072 L738.54,346.66 C738.083998,345.195993 737.232006,344.002005 735.984,343.078 C734.735994,342.153995 733.344008,341.704 731.808,341.728 Z M753.76,339.712 C755.032006,339.712 756.195995,340.023997 757.252,340.648 L756.424,343.024 C755.415995,342.279996 754.396005,341.908 753.364,341.908 C751.851992,341.908 750.580005,342.441995 749.548,343.51 C748.515995,344.578005 748,345.891992 748,347.452 L748,358 L745.624,358 L745.624,340 L748,340 L748,342.664 C749.464007,340.69599 751.383988,339.712 753.76,339.712 Z M766.532,358.288 C765.715996,358.288 764.924004,358.186001 764.156,357.982 C763.387996,357.777999 762.746003,357.538001 762.23,357.262 C761.713997,356.985999 761.252002,356.704001 760.844,356.416 C760.435998,356.127999 760.136001,355.888001 759.944,355.696 L759.656,355.372 L761.348,353.932 C761.516001,354.100001 761.749998,354.303999 762.05,354.544 C762.350001,354.784001 762.955995,355.107998 763.868,355.516 C764.780005,355.924002 765.679996,356.128 766.568,356.128 C767.888007,356.128 768.943996,355.876003 769.736,355.372 C770.528004,354.867997 770.924,354.160005 770.924,353.248 C770.924,352.599997 770.528004,352.042002 769.736,351.574 C768.943996,351.105998 767.984006,350.704002 766.856,350.368 C765.727994,350.031998 764.594006,349.660002 763.454,349.252 C762.313994,348.843998 761.348004,348.268004 760.556,347.524 C759.763996,346.779996 759.368,345.868005 759.368,344.788 C759.368,343.299993 759.925994,342.082005 761.042,341.134 C762.158006,340.185995 763.807989,339.712 765.992,339.712 C767.288006,339.712 768.511994,339.951998 769.664,340.432 C770.816006,340.912002 771.643997,341.391998 772.148,341.872 L772.904,342.592 L771.212,344.068 C771.043999,343.899999 770.810001,343.696001 770.51,343.456 C770.209998,343.215999 769.604005,342.892002 768.692,342.484 C767.779995,342.075998 766.868005,341.872 765.956,341.872 C764.659994,341.872 763.610004,342.123997 762.806,342.628 C762.001996,343.132003 761.6,343.839995 761.6,344.752 C761.6,345.400003 761.995996,345.957998 762.788,346.426 C763.580004,346.894002 764.539994,347.295998 765.668,347.632 C766.796006,347.968002 767.929994,348.333998 769.07,348.73 C770.210006,349.126002 771.175996,349.701996 771.968,350.458 C772.760004,351.214004 773.156,352.131995 773.156,353.212 C773.156,354.724008 772.604006,355.947995 771.5,356.884 C770.395994,357.820005 768.740011,358.288 766.532,358.288 Z M786,355.912 C787.608008,355.912 789.047994,355.456005 790.32,354.544 C791.592006,353.631995 792.455998,352.564006 792.912,351.34 L794.928,352.06 C794.375997,353.572008 793.302008,354.963994 791.706,356.236 C790.109992,357.508006 788.208011,358.132 786,358.108 C783.98399,358.108 782.142008,357.484006 780.474,356.236 C778.805992,354.987994 777.672003,353.39201 777.072,351.448 C776.831999,350.655996 776.712,349.792005 776.712,348.856 C776.712,346.263987 777.611991,344.068009 779.412,342.268 C781.212009,340.467991 783.407987,339.556 786,339.532 C788.352012,339.556 790.403991,340.347992 792.156,341.908 C793.908009,343.468008 794.915999,345.399988 795.18,347.704 C795.204,347.824001 795.216,347.979999 795.216,348.172 L779.484,351.016 C779.892002,352.456007 780.707994,353.637995 781.932,354.562 C783.156006,355.486005 784.511993,355.936 786,355.912 Z M785.784,341.728 C783.983991,341.752 782.442006,342.399994 781.158,343.672 C779.873994,344.944006 779.184,346.467991 779.088,348.244 C779.088,348.316 779.094,348.441999 779.106,348.622 C779.118,348.802001 779.124,348.951999 779.124,349.072 L792.516,346.66 C792.059998,345.195993 791.208006,344.002005 789.96,343.078 C788.711994,342.153995 787.320008,341.704 785.784,341.728 Z M811.328,358 L811.328,333.808 L819.536,333.808 C822.248014,333.808 824.407992,334.443994 826.016,335.716 C827.624008,336.988006 828.428,338.571991 828.428,340.468 C828.428,341.644006 828.074004,342.711995 827.366,343.672 C826.657996,344.632005 825.668006,345.375997 824.396,345.904 C825.668006,346.432003 826.657996,347.175995 827.366,348.136 C828.074004,349.096005 828.428,350.175994 828.428,351.376 C828.428,353.272009 827.624008,354.849994 826.016,356.11 C824.407992,357.370006 822.248014,358 819.536,358 L811.328,358 Z M813.704,344.896 L819.536,344.896 C821.48001,344.896 823.039994,344.476004 824.216,343.636 C825.392006,342.795996 825.98,341.752006 825.98,340.504 C825.98,339.231994 825.392006,338.176004 824.216,337.336 C823.039994,336.495996 821.48001,336.076 819.536,336.076 L813.704,336.076 L813.704,344.896 Z M813.704,355.732 L819.536,355.732 C821.48001,355.732 823.039994,355.312004 824.216,354.472 C825.392006,353.631996 825.98,352.576006 825.98,351.304 C825.98,350.055994 825.392006,349.012004 824.216,348.172 C823.039994,347.331996 821.48001,346.912 819.536,346.912 L813.704,346.912 L813.704,355.732 Z M836.664,334.6 C836.399999,334.888001 836.064002,335.032 835.656,335.032 C835.247998,335.032 834.906001,334.888001 834.63,334.6 C834.353999,334.311999 834.216,333.976002 834.216,333.592 C834.216,333.207998 834.353999,332.872001 834.63,332.584 C834.906001,332.295999 835.247998,332.152 835.656,332.152 C836.064002,332.152 836.405999,332.295999 836.682,332.584 C836.958001,332.872001 837.096,333.207998 837.096,333.592 C837.096,333.976002 836.952001,334.311999 836.664,334.6 Z M834.468,358 L834.468,340 L836.844,340 L836.844,358 L834.468,358 Z M858.364,340 L860.74,340 L860.74,358 L858.364,358 L858.364,355.084 C856.515991,357.220011 854.176014,358.288 851.344,358.288 C848.775987,358.288 846.586009,357.382009 844.774,355.57 C842.961991,353.757991 842.056,351.568013 842.056,349 C842.056,346.431987 842.961991,344.242009 844.774,342.43 C846.586009,340.617991 848.775987,339.712 851.344,339.712 C854.200014,339.712 856.539991,340.779989 858.364,342.916 L858.364,340 Z M851.38,356.02 C853.32401,356.02 854.961993,355.342007 856.294,353.986 C857.626007,352.629993 858.292,350.96801 858.292,349 C858.292,347.03199 857.626007,345.370007 856.294,344.014 C854.961993,342.657993 853.32401,341.98 851.38,341.98 C849.45999,341.98 847.822007,342.657993 846.466,344.014 C845.109993,345.370007 844.432,347.03199 844.432,349 C844.432,350.96801 845.109993,352.629993 846.466,353.986 C847.822007,355.342007 849.45999,356.02 851.38,356.02 Z M872.9,358.288 C872.083996,358.288 871.292004,358.186001 870.524,357.982 C869.755996,357.777999 869.114003,357.538001 868.598,357.262 C868.081997,356.985999 867.620002,356.704001 867.212,356.416 C866.803998,356.127999 866.504001,355.888001 866.312,355.696 L866.024,355.372 L867.716,353.932 C867.884001,354.100001 868.117998,354.303999 868.418,354.544 C868.718002,354.784001 869.323995,355.107998 870.236,355.516 C871.148005,355.924002 872.047996,356.128 872.936,356.128 C874.256007,356.128 875.311996,355.876003 876.104,355.372 C876.896004,354.867997 877.292,354.160005 877.292,353.248 C877.292,352.599997 876.896004,352.042002 876.104,351.574 C875.311996,351.105998 874.352006,350.704002 873.224,350.368 C872.095994,350.031998 870.962006,349.660002 869.822,349.252 C868.681994,348.843998 867.716004,348.268004 866.924,347.524 C866.131996,346.779996 865.736,345.868005 865.736,344.788 C865.736,343.299993 866.293994,342.082005 867.41,341.134 C868.526006,340.185995 870.175989,339.712 872.36,339.712 C873.656006,339.712 874.879994,339.951998 876.032,340.432 C877.184006,340.912002 878.011997,341.391998 878.516,341.872 L879.272,342.592 L877.58,344.068 C877.411999,343.899999 877.178001,343.696001 876.878,343.456 C876.577998,343.215999 875.972005,342.892002 875.06,342.484 C874.147995,342.075998 873.236005,341.872 872.324,341.872 C871.027994,341.872 869.978004,342.123997 869.174,342.628 C868.369996,343.132003 867.968,343.839995 867.968,344.752 C867.968,345.400003 868.363996,345.957998 869.156,346.426 C869.948004,346.894002 870.907994,347.295998 872.036,347.632 C873.164006,347.968002 874.297994,348.333998 875.438,348.73 C876.578006,349.126002 877.543996,349.701996 878.336,350.458 C879.128004,351.214004 879.524,352.131995 879.524,353.212 C879.524,354.724008 878.972006,355.947995 877.868,356.884 C876.763994,357.820005 875.108011,358.288 872.9,358.288 Z" id="Diode-with-Reverse-B-Copy" fill="#23ABE3"></path>
        <rect id="Rectangle-Copy" stroke="#3D3530" stroke-width="2" x="1" y="317" width="898" height="62"></rect>
    </g>
</svg>