<?xml version="1.0" encoding="UTF-8"?>
<svg width="900px" height="310px" viewBox="0 0 900 310" version="1.1" xmlns="http://www.w3.org/2000/svg" xmlns:xlink="http://www.w3.org/1999/xlink">
    <!-- Generator: Sketch 52.5 (67469) - http://www.bohemiancoding.com/sketch -->
    <title>Diode_Reverse_Behavior</title>
    <desc>Created with Sketch.</desc>
    <g id="Diode_Reverse_Behavior" stroke="none" stroke-width="1" fill="none" fill-rule="evenodd">
        <rect id="Rectangle" stroke="#3D3530" stroke-width="2" fill="#EEEEEE" x="1" y="1" width="898" height="528"></rect>
        <g id="Illustration" transform="translate(246.000000, 24.000000)">
            <g id="Labels" font-family="MrsEavesOT-Roman, Mrs Eaves OT" font-weight="normal">
                <text id="Current" font-size="24" letter-spacing="1" fill="#524740">
                    <tspan x="308" y="27">Current</tspan>
                </text>
                <text id="Voltage" font-size="24" letter-spacing="1" fill="#524740">
                    <tspan x="0" y="73">Voltage</tspan>
                </text>
                <text id="Breakdown-Voltage" font-size="22" fill="#84705B">
                    <tspan x="124.375" y="16">Breakdown </tspan>
                    <tspan x="140.93" y="38">Voltage</tspan>
                </text>
                <text id="Avalanche-Current" font-size="22" fill="#84705B">
                    <tspan x="32.984" y="166">Avalanche </tspan>
                    <tspan x="40.695" y="188">Current</tspan>
                </text>
                <text id="Narrow-Band-of-Curre" font-size="22" fill="#84705B">
                    <tspan x="185.87" y="154">Narrow Band of </tspan>
                    <tspan x="181.899" y="176">Current Control</tspan>
                </text>
            </g>
            <g id="Graph-Lines" transform="translate(86.000000, 48.000000)">
                <rect id="Rectangle" fill="#CAEBF8" x="54" y="19" width="23" height="59"></rect>
                <path d="M36.268006,19.5 L275.058812,19.5" id="Line-5" stroke="#3D3530" stroke-width="3" stroke-linecap="square"></path>
                <rect id="Rectangle" fill="#23ABE3" x="0" y="18" width="19" height="2.11111111"></rect>
                <path d="M295.444444,17.4444444 L295.444444,9 L297.555556,9 L297.555556,17.4444444 L306,17.4444444 L306,19.5555556 L297.555556,19.5555556 L297.555556,28 L295.444444,28 L295.444444,19.5555556 L287,19.5555556 L287,17.4444444 L295.444444,17.4444444 Z" id="Combined-Shape" fill="#23ABE3"></path>
                <path d="M263.352001,0.111111111 L263.352001,148" id="Line-6" stroke="#3D3530" stroke-width="3" stroke-linecap="square"></path>
                <path d="M78,0.111111111 L78,76.5773684" id="Line-7-Copy" stroke="#23ABE3" stroke-width="2" stroke-linecap="square"></path>
                <path d="M53,20 L53,76.5773684" id="Line-7-Copy-2" stroke="#23ABE3" stroke-width="2" stroke-linecap="square"></path>
                <path d="M262.982714,18 C262.951325,21.3586342 269.471872,21.8999348 81,23.5678275 C61.9631169,23.7362955 51.6297835,66.0126792 50,150.396979" id="Path-9" stroke="#EF7D3B" stroke-width="3"></path>
                <path id="Line-8" d="M81.1897493,71.9987692 L98.5052666,82.1370367 L99.3682299,82.6423033 L98.3576967,84.3682299 L97.4947334,83.8629633 L80.1792161,73.7246958 L77.1476164,78.9024756 L68.6029965,65.788 L84.221349,66.8209895 L81.1897493,71.9987692 Z" fill="#84705B" fill-rule="nonzero"></path>
            </g>
        </g>
        <path d="M309.048,287 L309.048,262.808 L314.52,262.808 C318.50402,262.808 321.671988,263.959988 324.024,266.264 C326.376012,268.568012 327.552,271.447983 327.552,274.904 C327.552,278.336017 326.370012,281.209988 324.006,283.526 C321.641988,285.842012 318.48002,287 314.52,287 L309.048,287 Z M311.424,284.732 L314.52,284.732 C317.688016,284.732 320.219991,283.802009 322.116,281.942 C324.012009,280.081991 324.96,277.736014 324.96,274.904 C324.96,272.071986 324.012009,269.726009 322.116,267.866 C320.219991,266.005991 317.688016,265.076 314.52,265.076 L311.424,265.076 L311.424,284.732 Z M335.212,263.6 C334.947999,263.888001 334.612002,264.032 334.204,264.032 C333.795998,264.032 333.454001,263.888001 333.178,263.6 C332.901999,263.311999 332.764,262.976002 332.764,262.592 C332.764,262.207998 332.901999,261.872001 333.178,261.584 C333.454001,261.295999 333.795998,261.152 334.204,261.152 C334.612002,261.152 334.953999,261.295999 335.23,261.584 C335.506001,261.872001 335.644,262.207998 335.644,262.592 C335.644,262.976002 335.500001,263.311999 335.212,263.6 Z M333.016,287 L333.016,269 L335.392,269 L335.392,287 L333.016,287 Z M356.444,284.552 C354.643991,286.376009 352.460013,287.288 349.892,287.288 C347.323987,287.288 345.134009,286.382009 343.322,284.57 C341.509991,282.757991 340.604,280.568013 340.604,278 C340.604,275.431987 341.509991,273.242009 343.322,271.43 C345.134009,269.617991 347.323987,268.712 349.892,268.712 C352.460013,268.712 354.649991,269.617991 356.462,271.43 C358.274009,273.242009 359.18,275.431987 359.18,278 C359.18,280.544013 358.268009,282.727991 356.444,284.552 Z M349.928,285.02 C351.87201,285.02 353.509993,284.342007 354.842,282.986 C356.174007,281.629993 356.84,279.96801 356.84,278 C356.84,276.03199 356.174007,274.364007 354.842,272.996 C353.509993,271.627993 351.87201,270.944 349.928,270.944 C348.00799,270.944 346.376007,271.627993 345.032,272.996 C343.687993,274.364007 343.016,276.03199 343.016,278 C343.016,279.96801 343.687993,281.629993 345.032,282.986 C346.376007,284.342007 348.00799,285.02 349.928,285.02 Z M379.116,260.216 L381.492,260.216 L381.492,287 L379.116,287 L379.116,284.084 C377.267991,286.220011 374.928014,287.288 372.096,287.288 C369.527987,287.288 367.338009,286.382009 365.526,284.57 C363.713991,282.757991 362.808,280.568013 362.808,278 C362.808,275.431987 363.713991,273.242009 365.526,271.43 C367.338009,269.617991 369.527987,268.712 372.096,268.712 C374.952014,268.712 377.291991,269.779989 379.116,271.916 L379.116,260.216 Z M367.2,283.004 C368.544007,284.348007 370.18799,285.02 372.132,285.02 C374.07601,285.02 375.713993,284.342007 377.046,282.986 C378.378007,281.629993 379.044,279.96801 379.044,278 C379.044,276.03199 378.378007,274.370007 377.046,273.014 C375.713993,271.657993 374.07601,270.98 372.132,270.98 C370.18799,270.98 368.544007,271.657993 367.2,273.014 C365.855993,274.370007 365.184,276.03199 365.184,278 C365.184,279.96801 365.855993,281.635993 367.2,283.004 Z M395.632,284.912 C397.240008,284.912 398.679994,284.456005 399.952,283.544 C401.224006,282.631995 402.087998,281.564006 402.544,280.34 L404.56,281.06 C404.007997,282.572008 402.934008,283.963994 401.338,285.236 C399.741992,286.508006 397.840011,287.132 395.632,287.108 C393.61599,287.108 391.774008,286.484006 390.106,285.236 C388.437992,283.987994 387.304003,282.39201 386.704,280.448 C386.463999,279.655996 386.344,278.792005 386.344,277.856 C386.344,275.263987 387.243991,273.068009 389.044,271.268 C390.844009,269.467991 393.039987,268.556 395.632,268.532 C397.984012,268.556 400.035991,269.347992 401.788,270.908 C403.540009,272.468008 404.547999,274.399988 404.812,276.704 C404.836,276.824001 404.848,276.979999 404.848,277.172 L389.116,280.016 C389.524002,281.456007 390.339994,282.637995 391.564,283.562 C392.788006,284.486005 394.143993,284.936 395.632,284.912 Z M395.416,270.728 C393.615991,270.752 392.074006,271.399994 390.79,272.672 C389.505994,273.944006 388.816,275.467991 388.72,277.244 C388.72,277.316 388.726,277.441999 388.738,277.622 C388.75,277.802001 388.756,277.951999 388.756,278.072 L402.148,275.66 C401.691998,274.195993 400.840006,273.002005 399.592,272.078 C398.343994,271.153995 396.952008,270.704 395.416,270.728 Z M420.96,287 L420.96,262.808 L429.168,262.808 C431.880014,262.808 434.039992,263.521993 435.648,264.95 C437.256008,266.378007 438.06,268.171989 438.06,270.332 C438.06,271.940008 437.586005,273.367994 436.638,274.616 C435.689995,275.864006 434.364009,276.751997 432.66,277.28 L438.06,287 L435.576,287 L430.428,277.784 L428.952,277.856 L423.336,277.856 L423.336,287 L420.96,287 Z M423.336,275.588 L429.168,275.588 C431.11201,275.588 432.671994,275.090005 433.848,274.094 C435.024006,273.097995 435.612,271.844008 435.612,270.332 C435.612,268.843993 435.024006,267.596005 433.848,266.588 C432.671994,265.579995 431.11201,265.076 429.168,265.076 L423.336,265.076 L423.336,275.588 Z M450.724,284.912 C452.332008,284.912 453.771994,284.456005 455.044,283.544 C456.316006,282.631995 457.179998,281.564006 457.636,280.34 L459.652,281.06 C459.099997,282.572008 458.026008,283.963994 456.43,285.236 C454.833992,286.508006 452.932011,287.132 450.724,287.108 C448.70799,287.108 446.866008,286.484006 445.198,285.236 C443.529992,283.987994 442.396003,282.39201 441.796,280.448 C441.555999,279.655996 441.436,278.792005 441.436,277.856 C441.436,275.263987 442.335991,273.068009 444.136,271.268 C445.936009,269.467991 448.131987,268.556 450.724,268.532 C453.076012,268.556 455.127991,269.347992 456.88,270.908 C458.632009,272.468008 459.639999,274.399988 459.904,276.704 C459.928,276.824001 459.94,276.979999 459.94,277.172 L444.208,280.016 C444.616002,281.456007 445.431994,282.637995 446.656,283.562 C447.880006,284.486005 449.235993,284.936 450.724,284.912 Z M450.508,270.728 C448.707991,270.752 447.166006,271.399994 445.882,272.672 C444.597994,273.944006 443.908,275.467991 443.812,277.244 C443.812,277.316 443.818,277.441999 443.83,277.622 C443.842,277.802001 443.848,277.951999 443.848,278.072 L457.24,275.66 C456.783998,274.195993 455.932006,273.002005 454.684,272.078 C453.435994,271.153995 452.044008,270.704 450.508,270.728 Z M475.376,269 L477.752,269 L471.38,287 L469.004,287 L462.668,269 L465.044,269 L470.192,283.652 L475.376,269 Z M489.264,284.912 C490.872008,284.912 492.311994,284.456005 493.584,283.544 C494.856006,282.631995 495.719998,281.564006 496.176,280.34 L498.192,281.06 C497.639997,282.572008 496.566008,283.963994 494.97,285.236 C493.373992,286.508006 491.472011,287.132 489.264,287.108 C487.24799,287.108 485.406008,286.484006 483.738,285.236 C482.069992,283.987994 480.936003,282.39201 480.336,280.448 C480.095999,279.655996 479.976,278.792005 479.976,277.856 C479.976,275.263987 480.875991,273.068009 482.676,271.268 C484.476009,269.467991 486.671987,268.556 489.264,268.532 C491.616012,268.556 493.667991,269.347992 495.42,270.908 C497.172009,272.468008 498.179999,274.399988 498.444,276.704 C498.468,276.824001 498.48,276.979999 498.48,277.172 L482.748,280.016 C483.156002,281.456007 483.971994,282.637995 485.196,283.562 C486.420006,284.486005 487.775993,284.936 489.264,284.912 Z M489.048,270.728 C487.247991,270.752 485.706006,271.399994 484.422,272.672 C483.137994,273.944006 482.448,275.467991 482.352,277.244 C482.352,277.316 482.358,277.441999 482.37,277.622 C482.382,277.802001 482.388,277.951999 482.388,278.072 L495.78,275.66 C495.323998,274.195993 494.472006,273.002005 493.224,272.078 C491.975994,271.153995 490.584008,270.704 489.048,270.728 Z M511,268.712 C512.272006,268.712 513.435995,269.023997 514.492,269.648 L513.664,272.024 C512.655995,271.279996 511.636005,270.908 510.604,270.908 C509.091992,270.908 507.820005,271.441995 506.788,272.51 C505.755995,273.578005 505.24,274.891992 505.24,276.452 L505.24,287 L502.864,287 L502.864,269 L505.24,269 L505.24,271.664 C506.704007,269.69599 508.623988,268.712 511,268.712 Z M523.772,287.288 C522.955996,287.288 522.164004,287.186001 521.396,286.982 C520.627996,286.777999 519.986003,286.538001 519.47,286.262 C518.953997,285.985999 518.492002,285.704001 518.084,285.416 C517.675998,285.127999 517.376001,284.888001 517.184,284.696 L516.896,284.372 L518.588,282.932 C518.756001,283.100001 518.989998,283.303999 519.29,283.544 C519.590001,283.784001 520.195995,284.107998 521.108,284.516 C522.020005,284.924002 522.919996,285.128 523.808,285.128 C525.128007,285.128 526.183996,284.876003 526.976,284.372 C527.768004,283.867997 528.164,283.160005 528.164,282.248 C528.164,281.599997 527.768004,281.042002 526.976,280.574 C526.183996,280.105998 525.224006,279.704002 524.096,279.368 C522.967994,279.031998 521.834006,278.660002 520.694,278.252 C519.553994,277.843998 518.588004,277.268004 517.796,276.524 C517.003996,275.779996 516.608,274.868005 516.608,273.788 C516.608,272.299993 517.165994,271.082005 518.282,270.134 C519.398006,269.185995 521.047989,268.712 523.232,268.712 C524.528006,268.712 525.751994,268.951998 526.904,269.432 C528.056006,269.912002 528.883997,270.391998 529.388,270.872 L530.144,271.592 L528.452,273.068 C528.283999,272.899999 528.050001,272.696001 527.75,272.456 C527.449998,272.215999 526.844005,271.892002 525.932,271.484 C525.019995,271.075998 524.108005,270.872 523.196,270.872 C521.899994,270.872 520.850004,271.123997 520.046,271.628 C519.241996,272.132003 518.84,272.839995 518.84,273.752 C518.84,274.400003 519.235996,274.957998 520.028,275.426 C520.820004,275.894002 521.779994,276.295998 522.908,276.632 C524.036006,276.968002 525.169994,277.333998 526.31,277.73 C527.450006,278.126002 528.415996,278.701996 529.208,279.458 C530.000004,280.214004 530.396,281.131995 530.396,282.212 C530.396,283.724008 529.844006,284.947995 528.74,285.884 C527.635994,286.820005 525.980011,287.288 523.772,287.288 Z M543.24,284.912 C544.848008,284.912 546.287994,284.456005 547.56,283.544 C548.832006,282.631995 549.695998,281.564006 550.152,280.34 L552.168,281.06 C551.615997,282.572008 550.542008,283.963994 548.946,285.236 C547.349992,286.508006 545.448011,287.132 543.24,287.108 C541.22399,287.108 539.382008,286.484006 537.714,285.236 C536.045992,283.987994 534.912003,282.39201 534.312,280.448 C534.071999,279.655996 533.952,278.792005 533.952,277.856 C533.952,275.263987 534.851991,273.068009 536.652,271.268 C538.452009,269.467991 540.647987,268.556 543.24,268.532 C545.592012,268.556 547.643991,269.347992 549.396,270.908 C551.148009,272.468008 552.155999,274.399988 552.42,276.704 C552.444,276.824001 552.456,276.979999 552.456,277.172 L536.724,280.016 C537.132002,281.456007 537.947994,282.637995 539.172,283.562 C540.396006,284.486005 541.751993,284.936 543.24,284.912 Z M543.024,270.728 C541.223991,270.752 539.682006,271.399994 538.398,272.672 C537.113994,273.944006 536.424,275.467991 536.328,277.244 C536.328,277.316 536.334,277.441999 536.346,277.622 C536.358,277.802001 536.364,277.951999 536.364,278.072 L549.756,275.66 C549.299998,274.195993 548.448006,273.002005 547.2,272.078 C545.951994,271.153995 544.560008,270.704 543.024,270.728 Z M586.388,262.808 L588.8,262.808 L579.26,287 L576.848,287 L567.272,262.808 L569.72,262.808 L578.072,283.94 L586.388,262.808 Z M604.848,284.552 C603.047991,286.376009 600.864013,287.288 598.296,287.288 C595.727987,287.288 593.538009,286.382009 591.726,284.57 C589.913991,282.757991 589.008,280.568013 589.008,278 C589.008,275.431987 589.913991,273.242009 591.726,271.43 C593.538009,269.617991 595.727987,268.712 598.296,268.712 C600.864013,268.712 603.053991,269.617991 604.866,271.43 C606.678009,273.242009 607.584,275.431987 607.584,278 C607.584,280.544013 606.672009,282.727991 604.848,284.552 Z M598.332,285.02 C600.27601,285.02 601.913993,284.342007 603.246,282.986 C604.578007,281.629993 605.244,279.96801 605.244,278 C605.244,276.03199 604.578007,274.364007 603.246,272.996 C601.913993,271.627993 600.27601,270.944 598.332,270.944 C596.41199,270.944 594.780007,271.627993 593.436,272.996 C592.091993,274.364007 591.42,276.03199 591.42,278 C591.42,279.96801 592.091993,281.629993 593.436,282.986 C594.780007,284.342007 596.41199,285.02 598.332,285.02 Z M612.508,287 L612.508,260.216 L614.884,260.216 L614.884,287 L612.508,287 Z M631.112,282.968 L632.3,284.804 C632.155999,284.996001 631.964001,285.223999 631.724,285.488 C631.483999,285.752001 630.944004,286.117998 630.104,286.586 C629.263996,287.054002 628.400004,287.288 627.512,287.288 C625.999992,287.288 624.734005,286.838005 623.714,285.938 C622.693995,285.037996 622.184,283.736009 622.184,282.032 L622.184,271.16 L619.304,271.16 L619.304,268.964 L622.184,268.964 L622.184,263.276 L624.56,262.988 L624.56,268.964 L629.996,268.964 L629.996,271.16 L624.56,271.16 L624.56,281.492 C624.56,282.596006 624.901997,283.471997 625.586,284.12 C626.270003,284.768003 627.055996,285.092 627.944,285.092 C628.496003,285.092 629.035997,284.924002 629.564,284.588 C630.092003,284.251998 630.481999,283.922002 630.734,283.598 C630.986001,283.273998 631.112,283.064 631.112,282.968 Z M650.796,269 L653.172,269 L653.172,287 L650.796,287 L650.796,284.084 C648.947991,286.220011 646.608014,287.288 643.776,287.288 C641.207987,287.288 639.018009,286.382009 637.206,284.57 C635.393991,282.757991 634.488,280.568013 634.488,278 C634.488,275.431987 635.393991,273.242009 637.206,271.43 C639.018009,269.617991 641.207987,268.712 643.776,268.712 C646.632014,268.712 648.971991,269.779989 650.796,271.916 L650.796,269 Z M643.812,285.02 C645.75601,285.02 647.393993,284.342007 648.726,282.986 C650.058007,281.629993 650.724,279.96801 650.724,278 C650.724,276.03199 650.058007,274.370007 648.726,273.014 C647.393993,271.657993 645.75601,270.98 643.812,270.98 C641.89199,270.98 640.254007,271.657993 638.898,273.014 C637.541993,274.370007 636.864,276.03199 636.864,278 C636.864,279.96801 637.541993,281.629993 638.898,282.986 C640.254007,284.342007 641.89199,285.02 643.812,285.02 Z M674.368,269.036 L676.78,269.036 L676.78,285.452 C676.756,288.068013 675.814009,290.257991 673.954,292.022 C672.093991,293.786009 669.940012,294.668 667.492,294.668 C665.259989,294.668 663.358008,294.074006 661.786,292.886 C660.213992,291.697994 659.152003,290.360007 658.6,288.872 L660.544,287.9 C661.000002,289.124006 661.863994,290.191995 663.136,291.104 C664.408006,292.016005 665.859992,292.472 667.492,292.472 C669.41201,292.472 671.037993,291.770007 672.37,290.366 C673.702007,288.961993 674.38,287.324009 674.404,285.452 L674.368,285.452 L674.368,284.12 C672.543991,286.256011 670.204014,287.324 667.348,287.324 C664.779987,287.324 662.590009,286.418009 660.778,284.606 C658.965991,282.793991 658.06,280.604013 658.06,278.036 C658.06,275.467987 658.965991,273.278009 660.778,271.466 C662.590009,269.653991 664.779987,268.748 667.348,268.748 C670.180014,268.748 672.519991,269.815989 674.368,271.952 L674.368,269.036 Z M667.384,285.092 C669.32801,285.092 670.965993,284.414007 672.298,283.058 C673.630007,281.701993 674.296,280.04001 674.296,278.072 C674.296,276.10399 673.630007,274.442007 672.298,273.086 C670.965993,271.729993 669.32801,271.052 667.384,271.052 C665.46399,271.052 663.832007,271.729993 662.488,273.086 C661.143993,274.442007 660.472,276.10399 660.472,278.072 C660.472,280.04001 661.143993,281.701993 662.488,283.058 C663.832007,284.414007 665.46399,285.092 667.384,285.092 Z M690.992,284.912 C692.600008,284.912 694.039994,284.456005 695.312,283.544 C696.584006,282.631995 697.447998,281.564006 697.904,280.34 L699.92,281.06 C699.367997,282.572008 698.294008,283.963994 696.698,285.236 C695.101992,286.508006 693.200011,287.132 690.992,287.108 C688.97599,287.108 687.134008,286.484006 685.466,285.236 C683.797992,283.987994 682.664003,282.39201 682.064,280.448 C681.823999,279.655996 681.704,278.792005 681.704,277.856 C681.704,275.263987 682.603991,273.068009 684.404,271.268 C686.204009,269.467991 688.399987,268.556 690.992,268.532 C693.344012,268.556 695.395991,269.347992 697.148,270.908 C698.900009,272.468008 699.907999,274.399988 700.172,276.704 C700.196,276.824001 700.208,276.979999 700.208,277.172 L684.476,280.016 C684.884002,281.456007 685.699994,282.637995 686.924,283.562 C688.148006,284.486005 689.503993,284.936 690.992,284.912 Z M690.776,270.728 C688.975991,270.752 687.434006,271.399994 686.15,272.672 C684.865994,273.944006 684.176,275.467991 684.08,277.244 C684.08,277.316 684.086,277.441999 684.098,277.622 C684.11,277.802001 684.116,277.951999 684.116,278.072 L697.508,275.66 C697.051998,274.195993 696.200006,273.002005 694.952,272.078 C693.703994,271.153995 692.312008,270.704 690.776,270.728 Z M716.32,287 L716.32,262.808 L724.528,262.808 C727.240014,262.808 729.399992,263.521993 731.008,264.95 C732.616008,266.378007 733.42,268.171989 733.42,270.332 C733.42,271.940008 732.946005,273.367994 731.998,274.616 C731.049995,275.864006 729.724009,276.751997 728.02,277.28 L733.42,287 L730.936,287 L725.788,277.784 L724.312,277.856 L718.696,277.856 L718.696,287 L716.32,287 Z M718.696,275.588 L724.528,275.588 C726.47201,275.588 728.031994,275.090005 729.208,274.094 C730.384006,273.097995 730.972,271.844008 730.972,270.332 C730.972,268.843993 730.384006,267.596005 729.208,266.588 C728.031994,265.579995 726.47201,265.076 724.528,265.076 L718.696,265.076 L718.696,275.588 Z M746.084,284.912 C747.692008,284.912 749.131994,284.456005 750.404,283.544 C751.676006,282.631995 752.539998,281.564006 752.996,280.34 L755.012,281.06 C754.459997,282.572008 753.386008,283.963994 751.79,285.236 C750.193992,286.508006 748.292011,287.132 746.084,287.108 C744.06799,287.108 742.226008,286.484006 740.558,285.236 C738.889992,283.987994 737.756003,282.39201 737.156,280.448 C736.915999,279.655996 736.796,278.792005 736.796,277.856 C736.796,275.263987 737.695991,273.068009 739.496,271.268 C741.296009,269.467991 743.491987,268.556 746.084,268.532 C748.436012,268.556 750.487991,269.347992 752.24,270.908 C753.992009,272.468008 754.999999,274.399988 755.264,276.704 C755.288,276.824001 755.3,276.979999 755.3,277.172 L739.568,280.016 C739.976002,281.456007 740.791994,282.637995 742.016,283.562 C743.240006,284.486005 744.595993,284.936 746.084,284.912 Z M745.868,270.728 C744.067991,270.752 742.526006,271.399994 741.242,272.672 C739.957994,273.944006 739.268,275.467991 739.172,277.244 C739.172,277.316 739.178,277.441999 739.19,277.622 C739.202,277.802001 739.208,277.951999 739.208,278.072 L752.6,275.66 C752.143998,274.195993 751.292006,273.002005 750.044,272.078 C748.795994,271.153995 747.404008,270.704 745.868,270.728 Z M765.984,287.288 C765.167996,287.288 764.376004,287.186001 763.608,286.982 C762.839996,286.777999 762.198003,286.538001 761.682,286.262 C761.165997,285.985999 760.704002,285.704001 760.296,285.416 C759.887998,285.127999 759.588001,284.888001 759.396,284.696 L759.108,284.372 L760.8,282.932 C760.968001,283.100001 761.201998,283.303999 761.502,283.544 C761.802001,283.784001 762.407995,284.107998 763.32,284.516 C764.232005,284.924002 765.131996,285.128 766.02,285.128 C767.340007,285.128 768.395996,284.876003 769.188,284.372 C769.980004,283.867997 770.376,283.160005 770.376,282.248 C770.376,281.599997 769.980004,281.042002 769.188,280.574 C768.395996,280.105998 767.436006,279.704002 766.308,279.368 C765.179994,279.031998 764.046006,278.660002 762.906,278.252 C761.765994,277.843998 760.800004,277.268004 760.008,276.524 C759.215996,275.779996 758.82,274.868005 758.82,273.788 C758.82,272.299993 759.377994,271.082005 760.494,270.134 C761.610006,269.185995 763.259989,268.712 765.444,268.712 C766.740006,268.712 767.963994,268.951998 769.116,269.432 C770.268006,269.912002 771.095997,270.391998 771.6,270.872 L772.356,271.592 L770.664,273.068 C770.495999,272.899999 770.262001,272.696001 769.962,272.456 C769.661998,272.215999 769.056005,271.892002 768.144,271.484 C767.231995,271.075998 766.320005,270.872 765.408,270.872 C764.111994,270.872 763.062004,271.123997 762.258,271.628 C761.453996,272.132003 761.052,272.839995 761.052,273.752 C761.052,274.400003 761.447996,274.957998 762.24,275.426 C763.032004,275.894002 763.991994,276.295998 765.12,276.632 C766.248006,276.968002 767.381994,277.333998 768.522,277.73 C769.662006,278.126002 770.627996,278.701996 771.42,279.458 C772.212004,280.214004 772.608,281.131995 772.608,282.212 C772.608,283.724008 772.056006,284.947995 770.952,285.884 C769.847994,286.820005 768.192011,287.288 765.984,287.288 Z M787.144,268.676 C789.712013,268.676 791.901991,269.581991 793.714,271.394 C795.526009,273.206009 796.432,275.395987 796.432,277.964 C796.432,280.532013 795.526009,282.721991 793.714,284.534 C791.901991,286.346009 789.712013,287.252 787.144,287.252 C784.263986,287.252 781.912009,286.160011 780.088,283.976 L780.088,295.748 L777.712,295.748 L777.712,268.964 L780.088,268.964 L780.088,271.916 C781.936009,269.755989 784.287986,268.676 787.144,268.676 Z M782.176,282.968 C783.520007,284.312007 785.15199,284.984 787.072,284.984 C788.99201,284.984 790.629993,284.306007 791.986,282.95 C793.342007,281.593993 794.02,279.93201 794.02,277.964 C794.02,275.99599 793.342007,274.328007 791.986,272.96 C790.629993,271.591993 788.99201,270.908 787.072,270.908 C785.15199,270.908 783.520007,271.591993 782.176,272.96 C780.831993,274.328007 780.16,275.99599 780.16,277.964 C780.16,279.93201 780.831993,281.599993 782.176,282.968 Z M815.9,284.552 C814.099991,286.376009 811.916013,287.288 809.348,287.288 C806.779987,287.288 804.590009,286.382009 802.778,284.57 C800.965991,282.757991 800.06,280.568013 800.06,278 C800.06,275.431987 800.965991,273.242009 802.778,271.43 C804.590009,269.617991 806.779987,268.712 809.348,268.712 C811.916013,268.712 814.105991,269.617991 815.918,271.43 C817.730009,273.242009 818.636,275.431987 818.636,278 C818.636,280.544013 817.724009,282.727991 815.9,284.552 Z M809.384,285.02 C811.32801,285.02 812.965993,284.342007 814.298,282.986 C815.630007,281.629993 816.296,279.96801 816.296,278 C816.296,276.03199 815.630007,274.364007 814.298,272.996 C812.965993,271.627993 811.32801,270.944 809.384,270.944 C807.46399,270.944 805.832007,271.627993 804.488,272.996 C803.143993,274.364007 802.472,276.03199 802.472,278 C802.472,279.96801 803.143993,281.629993 804.488,282.986 C805.832007,284.342007 807.46399,285.02 809.384,285.02 Z M831.336,268.712 C833.42401,268.712 835.175993,269.449993 836.592,270.926 C838.008007,272.402007 838.716,274.219989 838.716,276.38 L838.716,287 L836.304,287 L836.304,276.452 C836.304,274.915992 835.782005,273.608005 834.738,272.528 C833.693995,271.447995 832.428007,270.908 830.94,270.908 C829.451993,270.908 828.186005,271.447995 827.142,272.528 C826.097995,273.608005 825.576,274.915992 825.576,276.452 L825.576,287 L823.2,287 L823.2,269 L825.576,269 L825.576,271.664 C827.040007,269.69599 828.959988,268.712 831.336,268.712 Z M850.588,287.288 C849.771996,287.288 848.980004,287.186001 848.212,286.982 C847.443996,286.777999 846.802003,286.538001 846.286,286.262 C845.769997,285.985999 845.308002,285.704001 844.9,285.416 C844.491998,285.127999 844.192001,284.888001 844,284.696 L843.712,284.372 L845.404,282.932 C845.572001,283.100001 845.805998,283.303999 846.106,283.544 C846.406001,283.784001 847.011995,284.107998 847.924,284.516 C848.836005,284.924002 849.735996,285.128 850.624,285.128 C851.944007,285.128 852.999996,284.876003 853.792,284.372 C854.584004,283.867997 854.98,283.160005 854.98,282.248 C854.98,281.599997 854.584004,281.042002 853.792,280.574 C852.999996,280.105998 852.040006,279.704002 850.912,279.368 C849.783994,279.031998 848.650006,278.660002 847.51,278.252 C846.369994,277.843998 845.404004,277.268004 844.612,276.524 C843.819996,275.779996 843.424,274.868005 843.424,273.788 C843.424,272.299993 843.981994,271.082005 845.098,270.134 C846.214006,269.185995 847.863989,268.712 850.048,268.712 C851.344006,268.712 852.567994,268.951998 853.72,269.432 C854.872006,269.912002 855.699997,270.391998 856.204,270.872 L856.96,271.592 L855.268,273.068 C855.099999,272.899999 854.866001,272.696001 854.566,272.456 C854.265998,272.215999 853.660005,271.892002 852.748,271.484 C851.835995,271.075998 850.924005,270.872 850.012,270.872 C848.715994,270.872 847.666004,271.123997 846.862,271.628 C846.057996,272.132003 845.656,272.839995 845.656,273.752 C845.656,274.400003 846.051996,274.957998 846.844,275.426 C847.636004,275.894002 848.595994,276.295998 849.724,276.632 C850.852006,276.968002 851.985994,277.333998 853.126,277.73 C854.266006,278.126002 855.231996,278.701996 856.024,279.458 C856.816004,280.214004 857.212,281.131995 857.212,282.212 C857.212,283.724008 856.660006,284.947995 855.556,285.884 C854.451994,286.820005 852.796011,287.288 850.588,287.288 Z M870.056,284.912 C871.664008,284.912 873.103994,284.456005 874.376,283.544 C875.648006,282.631995 876.511998,281.564006 876.968,280.34 L878.984,281.06 C878.431997,282.572008 877.358008,283.963994 875.762,285.236 C874.165992,286.508006 872.264011,287.132 870.056,287.108 C868.03999,287.108 866.198008,286.484006 864.53,285.236 C862.861992,283.987994 861.728003,282.39201 861.128,280.448 C860.887999,279.655996 860.768,278.792005 860.768,277.856 C860.768,275.263987 861.667991,273.068009 863.468,271.268 C865.268009,269.467991 867.463987,268.556 870.056,268.532 C872.408012,268.556 874.459991,269.347992 876.212,270.908 C877.964009,272.468008 878.971999,274.399988 879.236,276.704 C879.26,276.824001 879.272,276.979999 879.272,277.172 L863.54,280.016 C863.948002,281.456007 864.763994,282.637995 865.988,283.562 C867.212006,284.486005 868.567993,284.936 870.056,284.912 Z M869.84,270.728 C868.039991,270.752 866.498006,271.399994 865.214,272.672 C863.929994,273.944006 863.24,275.467991 863.144,277.244 C863.144,277.316 863.15,277.441999 863.162,277.622 C863.174,277.802001 863.18,277.951999 863.18,278.072 L876.572,275.66 C876.115998,274.195993 875.264006,273.002005 874.016,272.078 C872.767994,271.153995 871.376008,270.704 869.84,270.728 Z" id="Diode-Reverse-Voltag-Copy" fill="#23ABE3"></path>
        <rect id="Rectangle-Copy" stroke="#3D3530" stroke-width="2" x="1" y="247" width="898" height="62"></rect>
    </g>
</svg>