<?xml version="1.0" encoding="UTF-8"?>
<svg width="900px" height="380px" viewBox="0 0 900 380" version="1.1" xmlns="http://www.w3.org/2000/svg" xmlns:xlink="http://www.w3.org/1999/xlink">
    <!-- Generator: Sketch 52.5 (67469) - http://www.bohemiancoding.com/sketch -->
    <title>Diode_Reverse_Bias</title>
    <desc>Created with Sketch.</desc>
    <g id="Diode_Reverse_Bias" stroke="none" stroke-width="1" fill="none" fill-rule="evenodd">
        <rect id="Rectangle" fill="#EEEEEE" x="0" y="0" width="900" height="430"></rect>
        <g id="Illustration" transform="translate(79.000000, 66.000000)">
            <g id="Lattice-Junction" transform="translate(27.000000, 0.000000)">
                <g id="P-Type-Lattice" transform="translate(184.000000, 41.000000)">
                    <rect id="Rectangle" stroke="#999999" stroke-width="2" fill="#D4D4D4" x="1" y="1" width="158" height="158"></rect>
                    <circle id="Oval-Copy-3" fill="#252525" cx="20.5" cy="18.5" r="10.5"></circle>
                    <circle id="Oval-Copy-5" fill="#252525" cx="20.5" cy="58.5" r="10.5"></circle>
                    <circle id="Oval-Copy-6" fill="#252525" cx="20.5" cy="98.5" r="10.5"></circle>
                    <circle id="Oval-Copy-10" fill="#252525" cx="50.5" cy="38.5" r="10.5"></circle>
                    <circle id="Oval-Copy-8" fill="#252525" cx="50.5" cy="118.5" r="10.5"></circle>
                    <g id="Negative-Ion" transform="translate(100.000000, 28.000000)">
                        <circle id="Oval-Copy-26" fill="#84D0EF" cx="10.5" cy="10.5" r="10.5"></circle>
                        <rect id="Rectangle" fill="#524740" x="6" y="10" width="9" height="1"></rect>
                    </g>
                    <circle id="Oval-Copy-25" fill="#252525" cx="110.5" cy="78.5" r="10.5"></circle>
                    <circle id="Oval-Copy-24" fill="#252525" cx="110.5" cy="118.5" r="10.5"></circle>
                    <g id="Negative-Ion" transform="translate(40.000000, 68.000000)">
                        <circle id="Oval-Copy-9" fill="#84D0EF" cx="10.5" cy="10.5" r="10.5"></circle>
                        <rect id="Rectangle" fill="#524740" x="6" y="10" width="9" height="1"></rect>
                    </g>
                    <g id="Negative-Ion" transform="translate(10.000000, 128.000000)">
                        <circle id="Oval-Copy-7" fill="#84D0EF" cx="10.5" cy="10.5" r="10.5"></circle>
                        <rect id="Rectangle" fill="#524740" x="6" y="10" width="9" height="1"></rect>
                    </g>
                    <circle id="Oval-Copy-23" fill="#252525" cx="80.5" cy="18.5" r="10.5"></circle>
                    <circle id="Oval-Copy-22" fill="#252525" cx="80.5" cy="58.5" r="10.5"></circle>
                    <g id="Negative-Ion" transform="translate(70.000000, 88.000000)">
                        <circle id="Oval-Copy-21" fill="#84D0EF" cx="10.5" cy="10.5" r="10.5"></circle>
                        <rect id="Rectangle" fill="#524740" x="6" y="10" width="9" height="1"></rect>
                    </g>
                    <circle id="Oval-Copy-20" fill="#252525" cx="80.5" cy="138.5" r="10.5"></circle>
                    <circle id="Oval-Copy-30" fill="#252525" cx="140.5" cy="18.5" r="10.5"></circle>
                    <circle id="Oval-Copy-29" fill="#252525" cx="140.5" cy="58.5" r="10.5"></circle>
                    <circle id="Oval-Copy-28" fill="#252525" cx="140.5" cy="98.5" r="10.5"></circle>
                    <circle id="Oval-Copy-27" fill="#252525" cx="140.5" cy="138.5" r="10.5"></circle>
                    <g id="Holes" transform="translate(4.000000, 11.000000)" fill="#84D0EF">
                        <circle id="Oval-Copy-31" cx="25.25" cy="65.25" r="3.25"></circle>
                        <circle id="Oval-Copy-32" cx="38.25" cy="44.25" r="3.25"></circle>
                        <circle id="Oval-Copy-33" cx="28.25" cy="16.25" r="3.25"></circle>
                        <circle id="Oval-Copy-37" cx="35.25" cy="96.25" r="3.25"></circle>
                        <circle id="Oval-Copy-38" cx="31.25" cy="138.25" r="3.25"></circle>
                        <circle id="Oval-Copy-39" cx="3.25" cy="105.25" r="3.25"></circle>
                        <circle id="Oval-Copy-123" cx="3.25" cy="135.25" r="3.25"></circle>
                        <circle id="Oval-Copy-124" cx="23.25" cy="105.25" r="3.25"></circle>
                        <circle id="Oval-Copy-125" cx="3.25" cy="75.25" r="3.25"></circle>
                        <circle id="Oval-Copy-126" cx="3.25" cy="35.25" r="3.25"></circle>
                        <circle id="Oval-Copy-127" cx="3.25" cy="3.25" r="3.25"></circle>
                        <circle id="Oval-Copy-128" cx="55.25" cy="5.25" r="3.25"></circle>
                        <circle id="Oval-Copy-129" cx="56.25" cy="45.25" r="3.25"></circle>
                        <circle id="Oval-Copy-40" cx="55.25" cy="123.25" r="3.25"></circle>
                    </g>
                </g>
                <g id="N-Type-Lattice" transform="translate(342.000000, 41.000000)">
                    <rect id="Rectangle" stroke="#999999" stroke-width="2" fill="#7D7570" x="1" y="1" width="158" height="158"></rect>
                    <circle id="Oval-Copy-3" fill="#252525" cx="20.5" cy="18.5" r="10.5"></circle>
                    <circle id="Oval-Copy-5" fill="#252525" cx="20.5" cy="58.5" r="10.5"></circle>
                    <circle id="Oval-Copy-6" fill="#252525" cx="20.5" cy="98.5" r="10.5"></circle>
                    <circle id="Oval-Copy-10" fill="#252525" cx="50.5" cy="38.5" r="10.5"></circle>
                    <g id="Positive-Ion" transform="translate(40.000000, 68.000000)">
                        <circle id="Oval-Copy-9" fill="#D7E465" cx="10.5" cy="10.5" r="10.5"></circle>
                        <path d="M10,10 L10,6 L11,6 L11,10 L15,10 L15,11 L11,11 L11,15 L10,15 L10,11 L6,11 L6,10 L10,10 Z" id="Combined-Shape" fill="#524740"></path>
                    </g>
                    <circle id="Oval-Copy-8" fill="#252525" cx="50.5" cy="118.5" r="10.5"></circle>
                    <g id="Positive-Ion" transform="translate(100.000000, 28.000000)">
                        <circle id="Oval-Copy-26" fill="#D7E465" cx="10.5" cy="10.5" r="10.5"></circle>
                        <path d="M10,10 L10,6 L11,6 L11,10 L15,10 L15,11 L11,11 L11,15 L10,15 L10,11 L6,11 L6,10 L10,10 Z" id="Combined-Shape" fill="#524740"></path>
                    </g>
                    <circle id="Oval-Copy-25" fill="#252525" cx="110.5" cy="78.5" r="10.5"></circle>
                    <circle id="Oval-Copy-24" fill="#252525" cx="110.5" cy="118.5" r="10.5"></circle>
                    <g id="Positive-Ion" transform="translate(10.000000, 128.000000)">
                        <circle id="Oval-Copy-7" fill="#D7E465" cx="10.5" cy="10.5" r="10.5"></circle>
                        <path d="M10,10 L10,6 L11,6 L11,10 L15,10 L15,11 L11,11 L11,15 L10,15 L10,11 L6,11 L6,10 L10,10 Z" id="Combined-Shape" fill="#524740"></path>
                    </g>
                    <circle id="Oval-Copy-23" fill="#252525" cx="80.5" cy="18.5" r="10.5"></circle>
                    <circle id="Oval-Copy-22" fill="#252525" cx="80.5" cy="58.5" r="10.5"></circle>
                    <g id="Positive-Ion" transform="translate(70.000000, 88.000000)">
                        <circle id="Oval-Copy-21" fill="#D7E465" cx="10.5" cy="10.5" r="10.5"></circle>
                        <path d="M10,10 L10,6 L11,6 L11,10 L15,10 L15,11 L11,11 L11,15 L10,15 L10,11 L6,11 L6,10 L10,10 Z" id="Combined-Shape" fill="#524740"></path>
                    </g>
                    <circle id="Oval-Copy-20" fill="#252525" cx="80.5" cy="138.5" r="10.5"></circle>
                    <circle id="Oval-Copy-30" fill="#252525" cx="140.5" cy="18.5" r="10.5"></circle>
                    <circle id="Oval-Copy-29" fill="#252525" cx="140.5" cy="58.5" r="10.5"></circle>
                    <circle id="Oval-Copy-28" fill="#252525" cx="140.5" cy="98.5" r="10.5"></circle>
                    <circle id="Oval-Copy-27" fill="#252525" cx="140.5" cy="138.5" r="10.5"></circle>
                    <g id="electrons" transform="translate(97.000000, 3.000000)" fill="#EF7D3B">
                        <circle id="Oval-Copy-41" cx="22.25" cy="131.25" r="3.25"></circle>
                        <circle id="Oval-Copy-42" cx="3.25" cy="96.25" r="3.25"></circle>
                        <circle id="Oval-Copy-43" cx="6.25" cy="145.25" r="3.25"></circle>
                        <circle id="Oval-Copy-44" cx="37.25" cy="151.25" r="3.25"></circle>
                        <circle id="Oval-Copy-45" cx="57.25" cy="101.25" r="3.25"></circle>
                        <circle id="Oval-Copy-46" cx="26.25" cy="87.25" r="3.25"></circle>
                        <circle id="Oval-Copy-47" cx="36.25" cy="42.25" r="3.25"></circle>
                        <circle id="Oval-Copy-48" cx="26.25" cy="8.25" r="3.25"></circle>
                        <circle id="Oval-Copy-49" cx="3.25" cy="23.25" r="3.25"></circle>
                        <circle id="Oval-Copy-167" cx="55.25" cy="3.25" r="3.25"></circle>
                        <circle id="Oval-Copy-168" cx="56.25" cy="46.25" r="3.25"></circle>
                        <circle id="Oval-Copy-169" cx="36.25" cy="70.25" r="3.25"></circle>
                    </g>
                </g>
                <g id="Depletion-Region" transform="translate(247.000000, 42.000000)">
                    <rect id="Rectangle" fill="#EF7D3B" opacity="0.149135045" x="1" y="1" width="190" height="156"></rect>
                    <path d="M0.5,0.5 L1,159" id="Line" stroke="#979797" stroke-width="2" stroke-linecap="square" stroke-dasharray="8,8"></path>
                    <path d="M190.5,0.5 L191,159" id="Line-Copy" stroke="#979797" stroke-width="2" stroke-linecap="square" stroke-dasharray="8,8"></path>
                </g>
                <path d="M233.263997,3.4 C235.688009,3.4 237.58399,3.97599424 238.951997,5.128 C240.320004,6.28000576 241.003997,7.73199124 241.003997,9.484 C241.003997,11.2360088 240.320004,12.6819943 238.951997,13.822 C237.58399,14.9620057 235.688009,15.532 233.263997,15.532 L230.059997,15.532 L230.059997,20.032 C230.059997,21.832009 230.257995,22.9839975 230.653997,23.488 C231.049999,23.9920025 231.99199,24.244 233.479997,24.244 L233.479997,25 L223.759997,25 L223.759997,24.244 C225.248004,24.244 226.189995,23.9920025 226.585997,23.488 C226.981999,22.9839975 227.179997,21.832009 227.179997,20.032 L227.179997,8.332 C227.179997,6.531991 226.981999,5.38600246 226.585997,4.894 C226.189995,4.40199754 225.248004,4.156 223.759997,4.156 L223.759997,3.4 L233.263997,3.4 Z M233.227997,14.236 C234.716004,14.236 235.849993,13.7920044 236.629997,12.904 C237.410001,12.0159956 237.799997,10.876007 237.799997,9.484 C237.799997,8.09199304 237.410001,6.95200444 236.629997,6.064 C235.849993,5.17599556 234.716004,4.732 233.227997,4.732 L230.059997,4.732 L230.059997,14.236 L233.227997,14.236 Z M253.531998,18.412 L243.019998,18.412 L243.019998,16.828 L253.531998,16.828 L253.531998,18.412 Z M275.635999,3.4 L275.959999,8.26 L275.203999,8.26 L275.023999,7.54 C274.735998,6.4599946 274.352001,5.73400186 273.871999,5.362 C273.391997,4.98999814 272.384007,4.804 270.847999,4.804 L266.131999,4.804 L266.131999,20.032 C266.131999,21.832009 266.335997,22.9839975 266.743999,23.488 C267.152001,23.9920025 268.099992,24.244 269.587999,24.244 L269.587999,25 L259.831999,25 L259.831999,24.244 C261.320006,24.244 262.267997,23.9920025 262.675999,23.488 C263.084001,22.9839975 263.287999,21.832009 263.287999,20.032 L263.287999,4.804 L258.571999,4.804 C257.035991,4.804 256.028001,4.98999814 255.547999,5.362 C255.067997,5.73400186 254.684,6.4599946 254.395999,7.54 L254.215999,8.26 L253.459999,8.26 L253.783999,3.4 L275.635999,3.4 Z M273.728,33.532 C273.728,33.1479981 273.871999,32.8060015 274.16,32.506 C274.448001,32.2059985 274.825998,31.7980026 275.294,31.282 C275.762002,30.7659974 276.151998,30.112004 276.464,29.32 L278.264,24.82 L274.124,15.856 C273.739998,15.0399959 273.380002,14.4820015 273.044,14.182 C272.707998,13.8819985 272.264003,13.732 271.712,13.732 L271.712,13.012 L278.084,13.012 L278.084,13.732 C277.267996,13.732 276.776001,13.8639987 276.608,14.128 C276.439999,14.3920013 276.547998,14.9679956 276.932,15.856 L279.56,21.616 L281.864,15.856 C282.200002,15.0399959 282.296001,14.4820015 282.152,14.182 C282.007999,13.8819985 281.564004,13.732 280.82,13.732 L280.82,13.012 L285.86,13.012 L285.86,13.732 C284.731994,13.732 283.880003,14.4399929 283.304,15.856 L276.284,33.388 C275.923998,34.2760044 275.480003,34.72 274.952,34.72 C274.639998,34.72 274.358001,34.624001 274.106,34.432 C273.853999,34.239999 273.728,33.940002 273.728,33.532 Z M296.048001,22.732 C296.744004,21.7479951 297.092001,20.5000076 297.092001,18.988 C297.092001,17.4759924 296.744004,16.2400048 296.048001,15.28 C295.351998,14.3199952 294.344008,13.84 293.024001,13.84 C292.207997,13.84 291.482004,14.0919975 290.846001,14.596 C290.209998,15.1000025 289.712003,15.7839957 289.352001,16.648 L289.352001,21.292 C289.712003,22.1800044 290.209998,22.8819974 290.846001,23.398 C291.482004,23.9140026 292.207997,24.172 293.024001,24.172 C294.344008,24.172 295.351998,23.6920048 296.048001,22.732 Z M289.352001,29.068 C289.352001,30.8440089 289.525999,31.9839975 289.874001,32.488 C290.222003,32.9920025 290.995995,33.244 292.196001,33.244 L292.196001,34 L283.952001,34 L283.952001,33.244 C285.152007,33.244 285.925999,32.9980025 286.274001,32.506 C286.622003,32.0139975 286.796001,30.868009 286.796001,29.068 L286.796001,18.232 C286.796001,16.431991 286.622003,15.2860025 286.274001,14.794 C285.925999,14.3019975 285.152007,14.056 283.952001,14.056 L283.952001,13.3 L288.776001,12.4 C288.920002,12.6640013 289.1,13.395994 289.316001,14.596 C290.540007,13.1319927 292.027992,12.4 293.780001,12.4 C295.48401,12.4 296.947995,13.0419936 298.172001,14.326 C299.396007,15.6100064 300.008001,17.1639909 300.008001,18.988 C300.008001,20.8120091 299.396007,22.3719935 298.172001,23.668 C296.947995,24.9640065 295.48401,25.612 293.780001,25.612 C292.003992,25.612 290.528007,24.8920072 289.352001,23.452 L289.352001,29.068 Z M304.400002,16.756 L310.376002,16.756 C310.616003,16.0839966 310.514004,15.4300032 310.070002,14.794 C309.626,14.1579968 308.864007,13.84 307.784002,13.84 C307.015998,13.84 306.326005,14.1039974 305.714002,14.632 C305.101999,15.1600026 304.664003,15.8679956 304.400002,16.756 Z M304.184002,18.088 C303.968001,19.8640089 304.249998,21.3099944 305.030002,22.426 C305.810006,23.5420056 307.087993,24.1 308.864002,24.1 C309.464005,24.1 310.147998,23.9440016 310.916002,23.632 C311.684006,23.3199984 312.319999,22.9240024 312.824002,22.444 L313.472002,23.236 C312.823999,23.9320035 311.996007,24.5019978 310.988002,24.946 C309.979997,25.3900022 308.972007,25.612 307.964002,25.612 C306.019992,25.612 304.424008,24.9700064 303.176002,23.686 C301.927996,22.4019936 301.304002,20.8360092 301.304002,18.988 C301.304002,17.1399908 301.981995,15.5800064 303.338002,14.308 C304.694009,13.0359936 306.235993,12.4 307.964002,12.4 C309.59601,12.4 310.927997,12.9699943 311.960002,14.11 C312.992007,15.2500057 313.292004,16.5759924 312.860002,18.088 L304.184002,18.088 Z" id="P-Type-Copy" fill="#524740"></path>
                <path d="M389.509997,20.536 L389.509997,8.332 C389.509997,6.531991 389.311999,5.38600246 388.915997,4.894 C388.519995,4.40199754 387.578004,4.156 386.089997,4.156 L386.089997,3.4 L394.297997,3.4 L394.297997,4.156 C392.80999,4.156 391.861999,4.40199754 391.453997,4.894 C391.045995,5.38600246 390.841997,6.531991 390.841997,8.332 L390.841997,25.612 L390.013997,25.612 L375.361997,7.504 L375.361997,20.032 C375.361997,21.832009 375.565995,22.9839975 375.973997,23.488 C376.381999,23.9920025 377.32999,24.244 378.817997,24.244 L378.817997,25 L370.609997,25 L370.609997,24.244 C372.098004,24.244 373.039995,23.9920025 373.435997,23.488 C373.831999,22.9839975 374.029997,21.832009 374.029997,20.032 L374.029997,8.332 C374.029997,6.531991 373.831999,5.38600246 373.435997,4.894 C373.039995,4.40199754 372.098004,4.156 370.609997,4.156 L370.609997,3.4 L375.685997,3.4 L389.509997,20.536 Z M406.681998,18.412 L396.169998,18.412 L396.169998,16.828 L406.681998,16.828 L406.681998,18.412 Z M428.785999,3.4 L429.109999,8.26 L428.353999,8.26 L428.173999,7.54 C427.885998,6.4599946 427.502001,5.73400186 427.021999,5.362 C426.541997,4.98999814 425.534007,4.804 423.997999,4.804 L419.281999,4.804 L419.281999,20.032 C419.281999,21.832009 419.485997,22.9839975 419.893999,23.488 C420.302001,23.9920025 421.249992,24.244 422.737999,24.244 L422.737999,25 L412.981999,25 L412.981999,24.244 C414.470006,24.244 415.417997,23.9920025 415.825999,23.488 C416.234001,22.9839975 416.437999,21.832009 416.437999,20.032 L416.437999,4.804 L411.721999,4.804 C410.185991,4.804 409.178001,4.98999814 408.697999,5.362 C408.217997,5.73400186 407.834,6.4599946 407.545999,7.54 L407.365999,8.26 L406.609999,8.26 L406.933999,3.4 L428.785999,3.4 Z M426.878,33.532 C426.878,33.1479981 427.021999,32.8060015 427.31,32.506 C427.598001,32.2059985 427.975998,31.7980026 428.444,31.282 C428.912002,30.7659974 429.301998,30.112004 429.614,29.32 L431.414,24.82 L427.274,15.856 C426.889998,15.0399959 426.530002,14.4820015 426.194,14.182 C425.857998,13.8819985 425.414003,13.732 424.862,13.732 L424.862,13.012 L431.234,13.012 L431.234,13.732 C430.417996,13.732 429.926001,13.8639987 429.758,14.128 C429.589999,14.3920013 429.697998,14.9679956 430.082,15.856 L432.71,21.616 L435.014,15.856 C435.350002,15.0399959 435.446001,14.4820015 435.302,14.182 C435.157999,13.8819985 434.714004,13.732 433.97,13.732 L433.97,13.012 L439.01,13.012 L439.01,13.732 C437.881994,13.732 437.030003,14.4399929 436.454,15.856 L429.434,33.388 C429.073998,34.2760044 428.630003,34.72 428.102,34.72 C427.789998,34.72 427.508001,34.624001 427.256,34.432 C427.003999,34.239999 426.878,33.940002 426.878,33.532 Z M449.198001,22.732 C449.894004,21.7479951 450.242001,20.5000076 450.242001,18.988 C450.242001,17.4759924 449.894004,16.2400048 449.198001,15.28 C448.501998,14.3199952 447.494008,13.84 446.174001,13.84 C445.357997,13.84 444.632004,14.0919975 443.996001,14.596 C443.359998,15.1000025 442.862003,15.7839957 442.502001,16.648 L442.502001,21.292 C442.862003,22.1800044 443.359998,22.8819974 443.996001,23.398 C444.632004,23.9140026 445.357997,24.172 446.174001,24.172 C447.494008,24.172 448.501998,23.6920048 449.198001,22.732 Z M442.502001,29.068 C442.502001,30.8440089 442.675999,31.9839975 443.024001,32.488 C443.372003,32.9920025 444.145995,33.244 445.346001,33.244 L445.346001,34 L437.102001,34 L437.102001,33.244 C438.302007,33.244 439.075999,32.9980025 439.424001,32.506 C439.772003,32.0139975 439.946001,30.868009 439.946001,29.068 L439.946001,18.232 C439.946001,16.431991 439.772003,15.2860025 439.424001,14.794 C439.075999,14.3019975 438.302007,14.056 437.102001,14.056 L437.102001,13.3 L441.926001,12.4 C442.070002,12.6640013 442.25,13.395994 442.466001,14.596 C443.690007,13.1319927 445.177992,12.4 446.930001,12.4 C448.63401,12.4 450.097995,13.0419936 451.322001,14.326 C452.546007,15.6100064 453.158001,17.1639909 453.158001,18.988 C453.158001,20.8120091 452.546007,22.3719935 451.322001,23.668 C450.097995,24.9640065 448.63401,25.612 446.930001,25.612 C445.153992,25.612 443.678007,24.8920072 442.502001,23.452 L442.502001,29.068 Z M457.550002,16.756 L463.526002,16.756 C463.766003,16.0839966 463.664004,15.4300032 463.220002,14.794 C462.776,14.1579968 462.014007,13.84 460.934002,13.84 C460.165998,13.84 459.476005,14.1039974 458.864002,14.632 C458.251999,15.1600026 457.814003,15.8679956 457.550002,16.756 Z M457.334002,18.088 C457.118001,19.8640089 457.399998,21.3099944 458.180002,22.426 C458.960006,23.5420056 460.237993,24.1 462.014002,24.1 C462.614005,24.1 463.297998,23.9440016 464.066002,23.632 C464.834006,23.3199984 465.469999,22.9240024 465.974002,22.444 L466.622002,23.236 C465.973999,23.9320035 465.146007,24.5019978 464.138002,24.946 C463.129997,25.3900022 462.122007,25.612 461.114002,25.612 C459.169992,25.612 457.574008,24.9700064 456.326002,23.686 C455.077996,22.4019936 454.454002,20.8360092 454.454002,18.988 C454.454002,17.1399908 455.131995,15.5800064 456.488002,14.308 C457.844009,13.0359936 459.385993,12.4 461.114002,12.4 C462.74601,12.4 464.077997,12.9699943 465.110002,14.11 C466.142007,15.2500057 466.442004,16.5759924 466.010002,18.088 L457.334002,18.088 Z" id="N-Type-Copy" fill="#524740"></path>
                <path d="M7.976,87.512 L6.248,91.508 C5.79199772,92.4920049 5.7739979,93.1939979 6.194,93.614 C6.6140021,94.0340021 7.56799256,94.244 9.056,94.244 L9.056,95 L0.632,95 L0.632,94.244 C1.40000384,94.244 1.9939979,94.2140003 2.414,94.154 C2.8340021,94.0939997 3.20599838,93.9020016 3.53,93.578 C3.85400162,93.2539984 4.08199934,92.9600013 4.214,92.696 C4.34600066,92.4319987 4.5919982,91.904004 4.952,91.112 L12.872,72.788 L13.34,72.788 L21.296,91.112 C21.6560018,91.904004 21.9019993,92.4319987 22.034,92.696 C22.1660007,92.9600013 22.3939984,93.2539984 22.718,93.578 C23.0420016,93.9020016 23.407998,94.0939997 23.816,94.154 C24.224002,94.2140003 24.8119962,94.244 25.58,94.244 L25.58,95 L15.608,95 L15.608,94.244 C17.0960074,94.244 18.043998,94.0340021 18.452,93.614 C18.860002,93.1939979 18.8480022,92.4920049 18.416,91.508 L16.688,87.512 L7.976,87.512 Z M16.076,86.18 L12.296,77.504 L8.552,86.18 L16.076,86.18 Z M28.820001,84.992 C30.1880078,83.2639914 31.8559912,82.4 33.824001,82.4 C35.3840088,82.4 36.5539971,82.8919951 37.334001,83.876 C38.1140049,84.8600049 38.504001,86.155992 38.504001,87.764 L38.504001,90.032 C38.504001,91.832009 38.6779993,92.9839975 39.026001,93.488 C39.3740027,93.9920025 40.147995,94.244 41.348001,94.244 L41.348001,95 L33.104001,95 L33.104001,94.244 C34.2800069,94.244 35.0479992,93.9860026 35.408001,93.47 C35.7680028,92.9539974 35.948001,91.8080089 35.948001,90.032 L35.948001,87.944 C35.948001,85.3759872 34.952011,84.092 32.960001,84.092 C31.9279958,84.092 30.9800053,84.4519964 30.116001,85.172 C29.2519967,85.8920036 28.820001,86.7319952 28.820001,87.692 L28.820001,90.032 C28.820001,91.8800092 28.9639996,93.0439976 29.252001,93.524 C29.5400024,94.0040024 30.2359955,94.244 31.340001,94.244 L31.340001,95 L23.420001,95 L23.420001,94.244 C24.620007,94.244 25.3939993,93.9920025 25.742001,93.488 C26.0900027,92.9839975 26.264001,91.832009 26.264001,90.032 L26.264001,88.232 C26.264001,86.4559911 26.0900027,85.3160025 25.742001,84.812 C25.3939993,84.3079975 24.620007,84.056 23.420001,84.056 L23.420001,83.3 L28.208001,82.4 C28.4240021,82.8560023 28.628,83.7199936 28.820001,84.992 Z M53.984002,84.344 C55.4240092,85.6160064 56.144002,87.1639909 56.144002,88.988 C56.144002,90.8120091 55.4300091,92.3719935 54.002002,93.668 C52.5739949,94.9640065 50.864012,95.612 48.872002,95.612 C46.879992,95.612 45.1700091,94.9640065 43.742002,93.668 C42.3139949,92.3719935 41.600002,90.8120091 41.600002,88.988 C41.600002,87.1639909 42.3139949,85.6100064 43.742002,84.326 C45.1700091,83.0419936 46.879992,82.4 48.872002,82.4 C50.864012,82.4 52.5679949,83.0479935 53.984002,84.344 Z M52.112002,92.768 C52.8560057,91.7839951 53.228002,90.5240077 53.228002,88.988 C53.228002,87.4519923 52.8560057,86.1980049 52.112002,85.226 C51.3679983,84.2539951 50.2880091,83.768 48.872002,83.768 C47.4559949,83.768 46.3760057,84.2599951 45.632002,85.244 C44.8879983,86.2280049 44.516002,87.4759924 44.516002,88.988 C44.516002,90.5000076 44.8879983,91.7479951 45.632002,92.732 C46.3760057,93.7160049 47.4559949,94.208 48.872002,94.208 C50.2880091,94.208 51.3679983,93.7280048 52.112002,92.768 Z M68.096003,91.328 L68.096003,86.684 C67.7600013,85.8199957 67.2680062,85.1300026 66.620003,84.614 C65.9719998,84.0979974 65.252007,83.84 64.460003,83.84 C63.1159963,83.84 62.0960065,84.3199952 61.400003,85.28 C60.7039995,86.2400048 60.356003,87.4759924 60.356003,88.988 C60.356003,90.5240077 60.7039995,91.7719952 61.400003,92.732 C62.0960065,93.6920048 63.1159963,94.172 64.460003,94.172 C65.252007,94.172 65.9719998,93.9140026 66.620003,93.398 C67.2680062,92.8819974 67.7600013,92.1920043 68.096003,91.328 Z M68.096003,84.524 L68.096003,78.656 C68.096003,76.855991 67.9220047,75.7040025 67.574003,75.2 C67.2260013,74.6959975 66.452009,74.444 65.252003,74.444 L65.252003,73.688 L70.652003,72.788 L70.652003,89.744 C70.652003,91.544009 70.8260013,92.6959975 71.174003,93.2 C71.5220047,93.7040025 72.295997,93.956 73.496003,93.956 L73.496003,94.712 L68.708003,95.612 C68.5400022,95.2519982 68.3480041,94.5200055 68.132003,93.416 C66.9559971,94.8800073 65.4800119,95.612 63.704003,95.612 C61.9999945,95.612 60.5300092,94.9640065 59.294003,93.668 C58.0579968,92.3719935 57.440003,90.8120091 57.440003,88.988 C57.440003,87.1639909 58.0579968,85.6100064 59.294003,84.326 C60.5300092,83.0419936 61.9999945,82.4 63.704003,82.4 C65.4800119,82.4 66.9439972,83.1079929 68.096003,84.524 Z M76.844004,86.756 L82.820004,86.756 C83.0600052,86.0839966 82.9580062,85.4300032 82.514004,84.794 C82.0700018,84.1579968 81.3080094,83.84 80.228004,83.84 C79.4600002,83.84 78.7700071,84.1039974 78.158004,84.632 C77.5460009,85.1600026 77.1080053,85.8679956 76.844004,86.756 Z M76.628004,88.088 C76.4120029,89.8640089 76.6940001,91.3099944 77.474004,92.426 C78.2540079,93.5420056 79.5319951,94.1 81.308004,94.1 C81.908007,94.1 82.5920002,93.9440016 83.360004,93.632 C84.1280078,93.3199984 84.7640015,92.9240024 85.268004,92.444 L85.916004,93.236 C85.2680008,93.9320035 84.440009,94.5019978 83.432004,94.946 C82.423999,95.3900022 81.416009,95.612 80.408004,95.612 C78.4639943,95.612 76.8680102,94.9700064 75.620004,93.686 C74.3719978,92.4019936 73.748004,90.8360092 73.748004,88.988 C73.748004,87.1399908 74.4259972,85.5800064 75.782004,84.308 C77.1380108,83.0359936 78.6799954,82.4 80.408004,82.4 C82.0400122,82.4 83.3719988,82.9699943 84.404004,84.11 C85.4360092,85.2500057 85.7360062,86.5759924 85.304004,88.088 L76.628004,88.088 Z M103.160006,98.24 L102.368006,98.996 C96.967979,94.5799779 94.268006,89.7080266 94.268006,84.38 C94.268006,79.0759735 96.9559791,74.2040222 102.332006,69.764 L103.160006,70.52 C102.392002,71.3840043 101.756009,72.1339968 101.252006,72.77 C100.748003,73.4060032 100.09401,74.3539937 99.290006,75.614 C98.486002,76.8740063 97.8680082,78.2479926 97.436006,79.736 C97.0040038,81.2240074 96.788006,82.771992 96.788006,84.38 C96.788006,85.988008 97.0040038,87.5359926 97.436006,89.024 C97.8680082,90.5120074 98.486002,91.8859937 99.290006,93.146 C100.09401,94.4060063 100.748003,95.3539968 101.252006,95.99 C101.756009,96.6260032 102.392002,97.3759957 103.160006,98.24 Z M107.984007,87.512 L106.256007,91.508 C105.800005,92.4920049 105.782005,93.1939979 106.202007,93.614 C106.622009,94.0340021 107.576,94.244 109.064007,94.244 L109.064007,95 L100.640007,95 L100.640007,94.244 C101.408011,94.244 102.002005,94.2140003 102.422007,94.154 C102.842009,94.0939997 103.214005,93.9020016 103.538007,93.578 C103.862009,93.2539984 104.090006,92.9600013 104.222007,92.696 C104.354008,92.4319987 104.600005,91.904004 104.960007,91.112 L112.880007,72.788 L113.348007,72.788 L121.304007,91.112 C121.664009,91.904004 121.910006,92.4319987 122.042007,92.696 C122.174008,92.9600013 122.402005,93.2539984 122.726007,93.578 C123.050009,93.9020016 123.416005,94.0939997 123.824007,94.154 C124.232009,94.2140003 124.820003,94.244 125.588007,94.244 L125.588007,95 L115.616007,95 L115.616007,94.244 C117.104014,94.244 118.052005,94.0340021 118.460007,93.614 C118.868009,93.1939979 118.856009,92.4920049 118.424007,91.508 L116.696007,87.512 L107.984007,87.512 Z M116.084007,86.18 L112.304007,77.504 L108.560007,86.18 L116.084007,86.18 Z M131.960008,84.38 C131.960008,89.7320268 129.272035,94.603978 123.896008,98.996 L123.068008,98.24 C123.860012,97.3519956 124.502006,96.5960031 124.994008,95.972 C125.48601,95.3479969 126.140004,94.4060063 126.956008,93.146 C127.772012,91.8859937 128.396006,90.5120074 128.828008,89.024 C129.26001,87.5359926 129.476008,85.988008 129.476008,84.38 C129.476008,82.771992 129.26001,81.2240074 128.828008,79.736 C128.396006,78.2479926 127.772012,76.8740063 126.956008,75.614 C126.140004,74.3539937 125.48601,73.4120031 124.994008,72.788 C124.502006,72.1639969 123.860012,71.4080044 123.068008,70.52 L123.932008,69.764 C129.284035,74.1800221 131.960008,79.0519734 131.960008,84.38 Z" id="Anode-(A)-Copy" fill="#524740"></path>
                <path d="M551.571989,94.604 L550.851989,94.604 C550.659988,93.6679953 550.251992,92.9840022 549.627989,92.552 C547.659979,94.5920102 545.428001,95.612 542.931989,95.612 C539.883974,95.612 537.28,94.4960112 535.119989,92.264 C532.959978,90.0319888 531.879989,87.3440157 531.879989,84.2 C531.879989,81.0559843 532.959978,78.3680112 535.119989,76.136 C537.28,73.9039888 539.883974,72.788 542.931989,72.788 C545.476002,72.788 547.707979,73.8079898 549.627989,75.848 C550.275992,75.3439975 550.683988,74.6600043 550.851989,73.796 L551.571989,73.796 L551.571989,81.716 L550.851989,81.716 C550.347986,79.3399881 549.417996,77.4920066 548.061989,76.172 C546.705982,74.8519934 545.043999,74.192 543.075989,74.192 C541.707982,74.192 540.495994,74.4979969 539.439989,75.11 C538.383984,75.7220031 537.561992,76.531995 536.973989,77.54 C536.385986,78.548005 535.94799,79.6159944 535.659989,80.744 C535.371988,81.8720056 535.227989,83.0239941 535.227989,84.2 C535.227989,85.3760059 535.371988,86.5279944 535.659989,87.656 C535.94799,88.7840056 536.385986,89.845995 536.973989,90.842 C537.561992,91.838005 538.383984,92.6419969 539.439989,93.254 C540.495994,93.8660031 541.707982,94.172 543.075989,94.172 C545.043999,94.172 546.705982,93.5060067 548.061989,92.174 C549.417996,90.8419933 550.347986,89.0120116 550.851989,86.684 L551.571989,86.684 L551.571989,94.604 Z M566.00799,94.28 C565.311987,95.0240037 564.519994,95.396 563.63199,95.396 C562.191983,95.396 561.375991,94.700007 561.18399,93.308 C559.575982,94.7480072 558.075997,95.468 556.68399,95.468 C555.771985,95.468 555.003993,95.1980027 554.37999,94.658 C553.755987,94.1179973 553.44399,93.3800047 553.44399,92.444 C553.44399,89.9239874 555.999964,88.2200044 561.11199,87.332 C561.11199,85.9159929 560.955992,84.9320028 560.64399,84.38 C560.331988,83.8279972 559.683995,83.552 558.69999,83.552 C558.219988,83.552 557.757992,83.7079984 557.31399,84.02 C556.869988,84.3320016 556.64799,84.7519974 556.64799,85.28 C556.64799,85.6400018 556.527991,85.9399988 556.28799,86.18 C556.047989,86.4200012 555.759992,86.54 555.42399,86.54 C555.063988,86.54 554.763991,86.4200012 554.52399,86.18 C554.283989,85.9399988 554.16399,85.6400018 554.16399,85.28 C554.16399,84.4399958 554.625985,83.7500027 555.54999,83.21 C556.473995,82.6699973 557.535984,82.4 558.73599,82.4 C560.487999,82.4 561.747986,82.7839962 562.51599,83.552 C563.283994,84.3200038 563.66799,85.5679914 563.66799,87.296 L563.66799,92.732 C563.66799,93.6680047 563.943987,94.136 564.49599,94.136 C564.807992,94.136 565.143988,93.9560018 565.50399,93.596 L566.00799,94.28 Z M561.11199,92.12 L561.11199,88.448 C557.799973,89.2160038 556.14399,90.403992 556.14399,92.012 C556.14399,92.5640028 556.305988,93.0079983 556.62999,93.344 C556.953992,93.6800017 557.355988,93.848 557.83599,93.848 C558.723994,93.848 559.815984,93.2720058 561.11199,92.12 Z M567.303991,84.272 L565.431991,84.272 L565.431991,83.408 C566.463996,83.1919989 567.219989,82.7240036 567.699991,82.004 C568.179993,81.2839964 568.49199,80.3000062 568.635991,79.052 L569.859991,79.052 L569.859991,83.012 L572.991991,83.012 L572.991991,84.272 L569.859991,84.272 L569.859991,91.472 C569.859991,93.2000086 570.399986,94.064 571.479991,94.064 C572.175994,94.064 572.955987,93.6560041 573.819991,92.84 L574.431991,93.452 C573.927988,94.052003 573.321995,94.5439981 572.613991,94.928 C571.905987,95.3120019 571.251994,95.504 570.651991,95.504 C569.619986,95.504 568.803994,95.1680034 568.203991,94.496 C567.603988,93.8239966 567.303991,92.8160067 567.303991,91.472 L567.303991,84.272 Z M590.991992,95 L583.035992,95 L583.035992,94.244 C584.163998,94.244 584.871991,94.0040024 585.159992,93.524 C585.447993,93.0439976 585.591992,91.8800092 585.591992,90.032 L585.591992,87.944 C585.591992,85.3759872 584.680001,84.092 582.855992,84.092 C581.895987,84.092 581.007996,84.4459965 580.191992,85.154 C579.375988,85.8620035 578.967992,86.7079951 578.967992,87.692 L578.967992,90.032 C578.967992,91.9040094 579.099991,93.0739977 579.363992,93.542 C579.627993,94.0100023 580.251987,94.244 581.235992,94.244 L581.235992,95 L573.567992,95 L573.567992,94.244 C574.767998,94.244 575.54199,93.9920025 575.889992,93.488 C576.237994,92.9839975 576.411992,91.832009 576.411992,90.032 L576.411992,78.656 C576.411992,76.855991 576.237994,75.7040025 575.889992,75.2 C575.54199,74.6959975 574.767998,74.444 573.567992,74.444 L573.567992,73.688 L578.967992,72.788 L578.967992,84.992 C580.383999,83.2639914 581.955983,82.4 583.683992,82.4 C586.636007,82.4 588.111992,84.1879821 588.111992,87.764 L588.111992,90.032 C588.111992,91.832009 588.28599,92.9839975 588.633992,93.488 C588.981994,93.9920025 589.767986,94.244 590.991992,94.244 L590.991992,95 Z M603.627993,84.344 C605.068,85.6160064 605.787993,87.1639909 605.787993,88.988 C605.787993,90.8120091 605.074,92.3719935 603.645993,93.668 C602.217986,94.9640065 600.508003,95.612 598.515993,95.612 C596.523983,95.612 594.814,94.9640065 593.385993,93.668 C591.957986,92.3719935 591.243993,90.8120091 591.243993,88.988 C591.243993,87.1639909 591.957986,85.6100064 593.385993,84.326 C594.814,83.0419936 596.523983,82.4 598.515993,82.4 C600.508003,82.4 602.211986,83.0479935 603.627993,84.344 Z M601.755993,92.768 C602.499997,91.7839951 602.871993,90.5240077 602.871993,88.988 C602.871993,87.4519923 602.499997,86.1980049 601.755993,85.226 C601.011989,84.2539951 599.932,83.768 598.515993,83.768 C597.099986,83.768 596.019997,84.2599951 595.275993,85.244 C594.531989,86.2280049 594.159993,87.4759924 594.159993,88.988 C594.159993,90.5000076 594.531989,91.7479951 595.275993,92.732 C596.019997,93.7160049 597.099986,94.208 598.515993,94.208 C599.932,94.208 601.011989,93.7280048 601.755993,92.768 Z M617.739994,91.328 L617.739994,86.684 C617.403992,85.8199957 616.911997,85.1300026 616.263994,84.614 C615.615991,84.0979974 614.895998,83.84 614.103994,83.84 C612.759987,83.84 611.739997,84.3199952 611.043994,85.28 C610.347991,86.2400048 609.999994,87.4759924 609.999994,88.988 C609.999994,90.5240077 610.347991,91.7719952 611.043994,92.732 C611.739997,93.6920048 612.759987,94.172 614.103994,94.172 C614.895998,94.172 615.615991,93.9140026 616.263994,93.398 C616.911997,92.8819974 617.403992,92.1920043 617.739994,91.328 Z M617.739994,84.524 L617.739994,78.656 C617.739994,76.855991 617.565996,75.7040025 617.217994,75.2 C616.869992,74.6959975 616.096,74.444 614.895994,74.444 L614.895994,73.688 L620.295994,72.788 L620.295994,89.744 C620.295994,91.544009 620.469992,92.6959975 620.817994,93.2 C621.165996,93.7040025 621.939988,93.956 623.139994,93.956 L623.139994,94.712 L618.351994,95.612 C618.183993,95.2519982 617.991995,94.5200055 617.775994,93.416 C616.599988,94.8800073 615.124003,95.612 613.347994,95.612 C611.643985,95.612 610.174,94.9640065 608.937994,93.668 C607.701988,92.3719935 607.083994,90.8120091 607.083994,88.988 C607.083994,87.1639909 607.701988,85.6100064 608.937994,84.326 C610.174,83.0419936 611.643985,82.4 613.347994,82.4 C615.124003,82.4 616.587988,83.1079929 617.739994,84.524 Z M626.487995,86.756 L632.463995,86.756 C632.703996,86.0839966 632.601997,85.4300032 632.157995,84.794 C631.713993,84.1579968 630.952,83.84 629.871995,83.84 C629.103991,83.84 628.413998,84.1039974 627.801995,84.632 C627.189992,85.1600026 626.751996,85.8679956 626.487995,86.756 Z M626.271995,88.088 C626.055994,89.8640089 626.337991,91.3099944 627.117995,92.426 C627.897999,93.5420056 629.175986,94.1 630.951995,94.1 C631.551998,94.1 632.235991,93.9440016 633.003995,93.632 C633.771999,93.3199984 634.407992,92.9240024 634.911995,92.444 L635.559995,93.236 C634.911992,93.9320035 634.084,94.5019978 633.075995,94.946 C632.06799,95.3900022 631.06,95.612 630.051995,95.612 C628.107985,95.612 626.512001,94.9700064 625.263995,93.686 C624.015989,92.4019936 623.391995,90.8360092 623.391995,88.988 C623.391995,87.1399908 624.069988,85.5800064 625.425995,84.308 C626.782002,83.0359936 628.323986,82.4 630.051995,82.4 C631.684003,82.4 633.01599,82.9699943 634.047995,84.11 C635.08,85.2500057 635.379997,86.5759924 634.947995,88.088 L626.271995,88.088 Z M652.803997,98.24 L652.011997,98.996 C646.61197,94.5799779 643.911997,89.7080266 643.911997,84.38 C643.911997,79.0759735 646.59997,74.2040222 651.975997,69.764 L652.803997,70.52 C652.035993,71.3840043 651.4,72.1339968 650.895997,72.77 C650.391994,73.4060032 649.738001,74.3539937 648.933997,75.614 C648.129993,76.8740063 647.511999,78.2479926 647.079997,79.736 C646.647995,81.2240074 646.431997,82.771992 646.431997,84.38 C646.431997,85.988008 646.647995,87.5359926 647.079997,89.024 C647.511999,90.5120074 648.129993,91.8859937 648.933997,93.146 C649.738001,94.4060063 650.391994,95.3539968 650.895997,95.99 C651.4,96.6260032 652.035993,97.3759957 652.803997,98.24 Z M662.307998,82.472 L673.467998,92.156 C674.116001,92.7080028 674.925993,93.1939979 675.897998,93.614 C676.870003,94.0340021 677.607995,94.244 678.111998,94.244 L678.111998,95 L667.995998,95 L667.995998,94.244 C669.172004,94.244 669.879997,94.046002 670.119998,93.65 C670.359999,93.253998 670.108002,92.756003 669.363998,92.156 L660.255998,84.272 L659.319998,85.028 L659.319998,90.032 C659.319998,91.832009 659.517996,92.9839975 659.913998,93.488 C660.31,93.9920025 661.251991,94.244 662.739998,94.244 L662.739998,95 L653.019998,95 L653.019998,94.244 C654.508005,94.244 655.449996,93.9920025 655.845998,93.488 C656.242,92.9839975 656.439998,91.832009 656.439998,90.032 L656.439998,78.332 C656.439998,76.531991 656.242,75.3860025 655.845998,74.894 C655.449996,74.4019975 654.508005,74.156 653.019998,74.156 L653.019998,73.4 L662.739998,73.4 L662.739998,74.156 C661.251991,74.156 660.31,74.4019975 659.913998,74.894 C659.517996,75.3860025 659.319998,76.531991 659.319998,78.332 L659.319998,83.372 L666.699998,77.072 C668.716008,75.1999906 668.764008,74.2280004 666.843998,74.156 L666.843998,73.4 L675.195998,73.4 L675.195998,74.156 C673.875991,74.156 672.778002,74.359998 671.901998,74.768 C671.025994,75.176002 669.928005,75.9439944 668.607998,77.072 L662.307998,82.472 Z M685.671999,84.38 C685.671999,89.7320268 682.984026,94.603978 677.607999,98.996 L676.779999,98.24 C677.572003,97.3519956 678.213997,96.5960031 678.705999,95.972 C679.198001,95.3479969 679.851995,94.4060063 680.667999,93.146 C681.484003,91.8859937 682.107997,90.5120074 682.539999,89.024 C682.972001,87.5359926 683.187999,85.988008 683.187999,84.38 C683.187999,82.771992 682.972001,81.2240074 682.539999,79.736 C682.107997,78.2479926 681.484003,76.8740063 680.667999,75.614 C679.851995,74.3539937 679.198001,73.4120031 678.705999,72.788 C678.213997,72.1639969 677.572003,71.4080044 676.779999,70.52 L677.643999,69.764 C682.996026,74.1800221 685.671999,79.0519734 685.671999,84.38 Z" id="Cathode-(K)-Copy" fill="#524740"></path>
            </g>
            <g id="Potential-Plates" transform="translate(335.000000, 228.000000)">
                <g id="VS">
                    <path d="M15,14.5 L15,47.5" id="Line-2-Copy" stroke="#3D3530" stroke-width="3" stroke-linecap="square"></path>
                    <path d="M41,14.5 L41,47.5" id="Line-2-Copy-2" stroke="#3D3530" stroke-width="3" stroke-linecap="square"></path>
                    <path d="M28,5.5 L28,54.5" id="Line-2-Copy" stroke="#3D3530" stroke-width="3" stroke-linecap="square"></path>
                    <path d="M53,5.5 L53,54.5" id="Line-2-Copy-3" stroke="#3D3530" stroke-width="3" stroke-linecap="square"></path>
                    <rect id="Combined-Shape" fill="#524740" x="0" y="5" width="9" height="1"></rect>
                    <path d="M63,4 L63,0 L64,0 L64,4 L68,4 L68,5 L64,5 L64,9 L63,9 L63,5 L59,5 L59,4 L63,4 Z" id="Combined-Shape" fill="#524740"></path>
                </g>
            </g>
            <g id="Anode" transform="translate(0.000000, 82.000000)">
                <rect id="Rectangle" fill="#3D3530" x="205" y="0" width="7" height="80"></rect>
                <polyline id="Path-8" stroke="#3D3530" stroke-width="3" points="206.880017 39.9008336 14.880017 39.9008336 14.880017 176.5 350.45316 176.5"></polyline>
                <g id="Anode-Electron-Flow" transform="translate(0.000000, 26.000000)" fill="#EF7D3B">
                    <circle id="Oval-Copy-44" cx="23.25" cy="163.25" r="3.25"></circle>
                    <circle id="Oval-Copy-66" cx="3.25" cy="163.25" r="3.25"></circle>
                    <circle id="Oval-Copy-50" cx="43.25" cy="163.25" r="3.25"></circle>
                    <circle id="Oval-Copy-51" cx="63.25" cy="163.25" r="3.25"></circle>
                    <circle id="Oval-Copy-52" cx="83.25" cy="163.25" r="3.25"></circle>
                    <circle id="Oval-Copy-53" cx="103.25" cy="163.25" r="3.25"></circle>
                    <circle id="Oval-Copy-54" cx="123.25" cy="163.25" r="3.25"></circle>
                    <circle id="Oval-Copy-55" cx="143.25" cy="163.25" r="3.25"></circle>
                    <circle id="Oval-Copy-56" cx="163.25" cy="163.25" r="3.25"></circle>
                    <circle id="Oval-Copy-57" cx="183.25" cy="163.25" r="3.25"></circle>
                    <circle id="Oval-Copy-58" cx="203.25" cy="163.25" r="3.25"></circle>
                    <circle id="Oval-Copy-59" cx="223.25" cy="163.25" r="3.25"></circle>
                    <circle id="Oval-Copy-60" cx="243.25" cy="163.25" r="3.25"></circle>
                    <circle id="Oval-Copy-61" cx="263.25" cy="163.25" r="3.25"></circle>
                    <circle id="Oval-Copy-62" cx="283.25" cy="163.25" r="3.25"></circle>
                    <circle id="Oval-Copy-63" cx="303.25" cy="163.25" r="3.25"></circle>
                    <circle id="Oval-Copy-64" cx="323.25" cy="163.25" r="3.25"></circle>
                    <circle id="Oval-Copy-65" cx="323.25" cy="163.25" r="3.25"></circle>
                    <circle id="Oval-Copy-67" cx="3.25" cy="143.25" r="3.25"></circle>
                    <circle id="Oval-Copy-68" cx="3.25" cy="123.25" r="3.25"></circle>
                    <circle id="Oval-Copy-69" cx="3.25" cy="103.25" r="3.25"></circle>
                    <circle id="Oval-Copy-70" cx="3.25" cy="83.25" r="3.25"></circle>
                    <circle id="Oval-Copy-71" cx="3.25" cy="63.25" r="3.25"></circle>
                    <circle id="Oval-Copy-72" cx="3.25" cy="43.25" r="3.25"></circle>
                    <circle id="Oval-Copy-73" cx="3.25" cy="23.25" r="3.25"></circle>
                    <circle id="Oval-Copy-74" cx="183.25" cy="3.25" r="3.25"></circle>
                    <circle id="Oval-Copy-75" cx="163.25" cy="3.25" r="3.25"></circle>
                    <circle id="Oval-Copy-76" cx="143.25" cy="3.25" r="3.25"></circle>
                    <circle id="Oval-Copy-77" cx="123.25" cy="3.25" r="3.25"></circle>
                    <circle id="Oval-Copy-78" cx="103.25" cy="3.25" r="3.25"></circle>
                    <circle id="Oval-Copy-79" cx="83.25" cy="3.25" r="3.25"></circle>
                    <circle id="Oval-Copy-80" cx="63.25" cy="3.25" r="3.25"></circle>
                    <circle id="Oval-Copy-81" cx="43.25" cy="3.25" r="3.25"></circle>
                    <circle id="Oval-Copy-82" cx="23.25" cy="3.25" r="3.25"></circle>
                    <circle id="Oval-Copy-83" cx="3.25" cy="3.25" r="3.25"></circle>
                </g>
            </g>
            <g id="Cathode" transform="translate(388.000000, 83.000000)">
                <rect id="Rectangle" fill="#3D3530" x="140" y="0" width="7" height="80"></rect>
                <polyline id="Path-8" stroke="#3D3530" stroke-width="3" points="0 176.5 333.880017 176.5 333.880017 39.9008336 141.880017 39.9008336"></polyline>
                <g id="Cathode-Hole-Flow" transform="translate(22.000000, 45.000000)" fill="#84D0EF">
                    <circle id="Oval-Copy-92" cx="303.25" cy="3.25" r="3.25"></circle>
                    <circle id="Oval-Copy-91" cx="283.25" cy="3.25" r="3.25"></circle>
                    <circle id="Oval-Copy-90" cx="263.25" cy="3.25" r="3.25"></circle>
                    <circle id="Oval-Copy-89" cx="243.25" cy="3.25" r="3.25"></circle>
                    <circle id="Oval-Copy-88" cx="223.25" cy="3.25" r="3.25"></circle>
                    <circle id="Oval-Copy-87" cx="203.25" cy="3.25" r="3.25"></circle>
                    <circle id="Oval-Copy-86" cx="183.25" cy="3.25" r="3.25"></circle>
                    <circle id="Oval-Copy-85" cx="163.25" cy="3.25" r="3.25"></circle>
                    <circle id="Oval-Copy-84" cx="143.25" cy="3.25" r="3.25"></circle>
                    <circle id="Oval-Copy-67" cx="303.25" cy="123.25" r="3.25"></circle>
                    <circle id="Oval-Copy-68" cx="303.25" cy="103.25" r="3.25"></circle>
                    <circle id="Oval-Copy-69" cx="303.25" cy="83.25" r="3.25"></circle>
                    <circle id="Oval-Copy-70" cx="303.25" cy="63.25" r="3.25"></circle>
                    <circle id="Oval-Copy-71" cx="303.25" cy="43.25" r="3.25"></circle>
                    <circle id="Oval-Copy-72" cx="303.25" cy="23.25" r="3.25"></circle>
                    <circle id="Oval-Copy-44" cx="23.25" cy="123.25" r="3.25"></circle>
                    <circle id="Oval-Copy-66" cx="3.25" cy="123.25" r="3.25"></circle>
                    <circle id="Oval-Copy-50" cx="43.25" cy="123.25" r="3.25"></circle>
                    <circle id="Oval-Copy-51" cx="63.25" cy="123.25" r="3.25"></circle>
                    <circle id="Oval-Copy-52" cx="83.25" cy="123.25" r="3.25"></circle>
                    <circle id="Oval-Copy-53" cx="103.25" cy="123.25" r="3.25"></circle>
                    <circle id="Oval-Copy-54" cx="123.25" cy="123.25" r="3.25"></circle>
                    <circle id="Oval-Copy-55" cx="143.25" cy="123.25" r="3.25"></circle>
                    <circle id="Oval-Copy-56" cx="163.25" cy="123.25" r="3.25"></circle>
                    <circle id="Oval-Copy-57" cx="183.25" cy="123.25" r="3.25"></circle>
                    <circle id="Oval-Copy-58" cx="203.25" cy="123.25" r="3.25"></circle>
                    <circle id="Oval-Copy-59" cx="223.25" cy="123.25" r="3.25"></circle>
                    <circle id="Oval-Copy-60" cx="243.25" cy="123.25" r="3.25"></circle>
                    <circle id="Oval-Copy-61" cx="263.25" cy="123.25" r="3.25"></circle>
                    <circle id="Oval-Copy-62" cx="283.25" cy="123.25" r="3.25"></circle>
                </g>
            </g>
        </g>
        <path d="M15.628,44 L15.628,19.808 L21.1,19.808 C25.0840199,19.808 28.2519882,20.9599885 30.604,23.264 C32.9560118,25.5680115 34.132,28.4479827 34.132,31.904 C34.132,35.3360172 32.9500118,38.2099884 30.586,40.526 C28.2219882,42.8420116 25.0600198,44 21.1,44 L15.628,44 Z M18.004,41.732 L21.1,41.732 C24.2680158,41.732 26.7999905,40.8020093 28.696,38.942 C30.5920095,37.0819907 31.54,34.7360142 31.54,31.904 C31.54,29.0719858 30.5920095,26.7260093 28.696,24.866 C26.7999905,23.0059907 24.2680158,22.076 21.1,22.076 L18.004,22.076 L18.004,41.732 Z M38.632001,20.6 C38.3679997,20.8880014 38.032003,21.032 37.624001,21.032 C37.215999,21.032 36.8740024,20.8880014 36.598001,20.6 C36.3219996,20.3119986 36.184001,19.9760019 36.184001,19.592 C36.184001,19.2079981 36.3219996,18.8720014 36.598001,18.584 C36.8740024,18.2959986 37.215999,18.152 37.624001,18.152 C38.032003,18.152 38.3739996,18.2959986 38.650001,18.584 C38.9260024,18.8720014 39.064001,19.2079981 39.064001,19.592 C39.064001,19.9760019 38.9200024,20.3119986 38.632001,20.6 Z M36.436001,44 L36.436001,26 L38.812001,26 L38.812001,44 L36.436001,44 Z M56.704002,41.552 C54.903993,43.3760091 52.7200148,44.288 50.152002,44.288 C47.5839892,44.288 45.3940111,43.3820091 43.582002,41.57 C41.7699929,39.7579909 40.864002,37.5680128 40.864002,35 C40.864002,32.4319872 41.7699929,30.2420091 43.582002,28.43 C45.3940111,26.6179909 47.5839892,25.712 50.152002,25.712 C52.7200148,25.712 54.9099929,26.6179909 56.722002,28.43 C58.5340111,30.2420091 59.440002,32.4319872 59.440002,35 C59.440002,37.5440127 58.5280111,39.7279909 56.704002,41.552 Z M50.188002,42.02 C52.1320117,42.02 53.7699953,41.3420068 55.102002,39.986 C56.4340087,38.6299932 57.100002,36.9680098 57.100002,35 C57.100002,33.0319902 56.4340087,31.3640068 55.102002,29.996 C53.7699953,28.6279932 52.1320117,27.944 50.188002,27.944 C48.2679924,27.944 46.6360087,28.6279932 45.292002,29.996 C43.9479953,31.3640068 43.276002,33.0319902 43.276002,35 C43.276002,36.9680098 43.9479953,38.6299932 45.292002,39.986 C46.6360087,41.3420068 48.2679924,42.02 50.188002,42.02 Z M76.216003,17.216 L78.592003,17.216 L78.592003,44 L76.216003,44 L76.216003,41.084 C74.3679938,43.2200107 72.0280172,44.288 69.196003,44.288 C66.6279902,44.288 64.4380121,43.3820091 62.626003,41.57 C60.8139939,39.7579909 59.908003,37.5680128 59.908003,35 C59.908003,32.4319872 60.8139939,30.2420091 62.626003,28.43 C64.4380121,26.6179909 66.6279902,25.712 69.196003,25.712 C72.0520173,25.712 74.3919939,26.7799893 76.216003,28.916 L76.216003,17.216 Z M64.300003,40.004 C65.6440097,41.3480067 67.2879933,42.02 69.232003,42.02 C71.1760127,42.02 72.8139963,41.3420068 74.146003,39.986 C75.4780097,38.6299932 76.144003,36.9680098 76.144003,35 C76.144003,33.0319902 75.4780097,31.3700068 74.146003,30.014 C72.8139963,28.6579932 71.1760127,27.98 69.232003,27.98 C67.2879933,27.98 65.6440097,28.6579932 64.300003,30.014 C62.9559963,31.3700068 62.284003,33.0319902 62.284003,35 C62.284003,36.9680098 62.9559963,38.6359932 64.300003,40.004 Z M89.572004,41.912 C91.180012,41.912 92.6199976,41.4560046 93.892004,40.544 C95.1640104,39.6319954 96.0280017,38.5640061 96.484004,37.34 L98.500004,38.06 C97.9480012,39.5720076 96.874012,40.9639936 95.278004,42.236 C93.681996,43.5080064 91.780015,44.1320001 89.572004,44.108 C87.5559939,44.108 85.7140123,43.4840062 84.046004,42.236 C82.3779957,40.9879938 81.244007,39.3920097 80.644004,37.448 C80.4040028,36.655996 80.284004,35.7920047 80.284004,34.856 C80.284004,32.263987 81.183995,30.068009 82.984004,28.268 C84.784013,26.467991 86.979991,25.5560001 89.572004,25.532 C91.9240158,25.5560001 93.9759952,26.3479922 95.728004,27.908 C97.4800128,29.4680078 98.4880027,31.3999885 98.752004,33.704 C98.7760041,33.8240006 98.788004,33.979999 98.788004,34.172 L83.056004,37.016 C83.464006,38.4560072 84.2799979,39.6379954 85.504004,40.562 C86.7280101,41.4860046 88.0839966,41.9360001 89.572004,41.912 Z M89.356004,27.728 C87.555995,27.7520001 86.0140104,28.3999936 84.730004,29.672 C83.4459976,30.9440064 82.7560045,32.4679911 82.660004,34.244 C82.660004,34.3160004 82.6660039,34.4419991 82.678004,34.622 C82.6900041,34.8020009 82.696004,34.9519994 82.696004,35.072 L96.088004,32.66 C95.6320017,31.1959927 94.7800102,30.0020046 93.532004,29.078 C92.2839978,28.1539954 90.8920117,27.7039999 89.356004,27.728 Z M132.340006,26 L134.716006,26 L128.344006,44 L125.968006,44 L120.892006,29.168 L115.816006,44 L113.440006,44 L107.104006,26 L109.480006,26 L114.628006,40.652 L119.812006,26 L121.972006,26 L127.156006,40.652 L132.340006,26 Z M138.244007,20.6 C137.980006,20.8880014 137.644009,21.032 137.236007,21.032 C136.828005,21.032 136.486008,20.8880014 136.210007,20.6 C135.934006,20.3119986 135.796007,19.9760019 135.796007,19.592 C135.796007,19.2079981 135.934006,18.8720014 136.210007,18.584 C136.486008,18.2959986 136.828005,18.152 137.236007,18.152 C137.644009,18.152 137.986006,18.2959986 138.262007,18.584 C138.538008,18.8720014 138.676007,19.2079981 138.676007,19.592 C138.676007,19.9760019 138.532008,20.3119986 138.244007,20.6 Z M136.048007,44 L136.048007,26 L138.424007,26 L138.424007,44 L136.048007,44 Z M150.988008,39.968 L152.176008,41.804 C152.032007,41.996001 151.840009,42.2239987 151.600008,42.488 C151.360007,42.7520013 150.820012,43.1179977 149.980008,43.586 C149.140004,44.0540023 148.276012,44.288 147.388008,44.288 C145.876,44.288 144.610013,43.8380045 143.590008,42.938 C142.570003,42.0379955 142.060008,40.7360085 142.060008,39.032 L142.060008,28.16 L139.180008,28.16 L139.180008,25.964 L142.060008,25.964 L142.060008,20.276 L144.436008,19.988 L144.436008,25.964 L149.872008,25.964 L149.872008,28.16 L144.436008,28.16 L144.436008,38.492 C144.436008,39.5960055 144.778005,40.4719968 145.462008,41.12 C146.146011,41.7680032 146.932004,42.092 147.820008,42.092 C148.372011,42.092 148.912005,41.9240017 149.440008,41.588 C149.968011,41.2519983 150.358007,40.9220016 150.610008,40.598 C150.862009,40.2739984 150.988008,40.0640005 150.988008,39.968 Z M161.032009,25.712 C163.120019,25.712 164.872002,26.4619925 166.288009,27.962 C167.704016,29.4620075 168.412009,31.2919892 168.412009,33.452 L168.412009,44 L166.000009,44 L166.000009,33.488 C166.000009,31.9279922 165.484014,30.6140053 164.452009,29.546 C163.420004,28.4779947 162.148017,27.944 160.636009,27.944 C159.148002,27.944 157.882014,28.4779947 156.838009,29.546 C155.794004,30.6140053 155.272009,31.9159923 155.272009,33.452 L155.272009,44 L152.896009,44 L152.896009,17.216 L155.272009,17.216 L155.272009,28.664 C156.736016,26.6959902 158.655997,25.712 161.032009,25.712 Z M178.816011,44 L178.816011,19.808 L187.024011,19.808 C189.736025,19.808 191.896003,20.5219929 193.504011,21.95 C195.112019,23.3780071 195.916011,25.1719892 195.916011,27.332 C195.916011,28.940008 195.442016,30.3679938 194.494011,31.616 C193.546006,32.8640062 192.22002,33.7519974 190.516011,34.28 L195.916011,44 L193.432011,44 L188.284011,34.784 L186.808011,34.856 L181.192011,34.856 L181.192011,44 L178.816011,44 Z M181.192011,32.588 L187.024011,32.588 C188.968021,32.588 190.528005,32.090005 191.704011,31.094 C192.880017,30.097995 193.468011,28.8440076 193.468011,27.332 C193.468011,25.8439926 192.880017,24.596005 191.704011,23.588 C190.528005,22.579995 188.968021,22.076 187.024011,22.076 L181.192011,22.076 L181.192011,32.588 Z M205.420012,41.912 C207.02802,41.912 208.468006,41.4560046 209.740012,40.544 C211.012018,39.6319954 211.87601,38.5640061 212.332012,37.34 L214.348012,38.06 C213.796009,39.5720076 212.72202,40.9639936 211.126012,42.236 C209.530004,43.5080064 207.628023,44.1320001 205.420012,44.108 C203.404002,44.108 201.56202,43.4840062 199.894012,42.236 C198.226004,40.9879938 197.092015,39.3920097 196.492012,37.448 C196.252011,36.655996 196.132012,35.7920047 196.132012,34.856 C196.132012,32.263987 197.032003,30.068009 198.832012,28.268 C200.632021,26.467991 202.827999,25.5560001 205.420012,25.532 C207.772024,25.5560001 209.824003,26.3479922 211.576012,27.908 C213.328021,29.4680078 214.336011,31.3999885 214.600012,33.704 C214.624012,33.8240006 214.636012,33.979999 214.636012,34.172 L198.904012,37.016 C199.312014,38.4560072 200.128006,39.6379954 201.352012,40.562 C202.576018,41.4860046 203.932005,41.9360001 205.420012,41.912 Z M205.204012,27.728 C203.404003,27.7520001 201.862018,28.3999936 200.578012,29.672 C199.294006,30.9440064 198.604012,32.4679911 198.508012,34.244 C198.508012,34.3160004 198.514012,34.4419991 198.526012,34.622 C198.538012,34.8020009 198.544012,34.9519994 198.544012,35.072 L211.936012,32.66 C211.48001,31.1959927 210.628018,30.0020046 209.380012,29.078 C208.132006,28.1539954 206.74002,27.7039999 205.204012,27.728 Z M226.912013,26 L229.288013,26 L222.916013,44 L220.540013,44 L214.204013,26 L216.580013,26 L221.728013,40.652 L226.912013,26 Z M237.640014,41.912 C239.248022,41.912 240.688008,41.4560046 241.960014,40.544 C243.23202,39.6319954 244.096012,38.5640061 244.552014,37.34 L246.568014,38.06 C246.016011,39.5720076 244.942022,40.9639936 243.346014,42.236 C241.750006,43.5080064 239.848025,44.1320001 237.640014,44.108 C235.624004,44.108 233.782022,43.4840062 232.114014,42.236 C230.446006,40.9879938 229.312017,39.3920097 228.712014,37.448 C228.472013,36.655996 228.352014,35.7920047 228.352014,34.856 C228.352014,32.263987 229.252005,30.068009 231.052014,28.268 C232.852023,26.467991 235.048001,25.5560001 237.640014,25.532 C239.992026,25.5560001 242.044005,26.3479922 243.796014,27.908 C245.548023,29.4680078 246.556013,31.3999885 246.820014,33.704 C246.844014,33.8240006 246.856014,33.979999 246.856014,34.172 L231.124014,37.016 C231.532016,38.4560072 232.348008,39.6379954 233.572014,40.562 C234.79602,41.4860046 236.152007,41.9360001 237.640014,41.912 Z M237.424014,27.728 C235.624005,27.7520001 234.08202,28.3999936 232.798014,29.672 C231.514008,30.9440064 230.824014,32.4679911 230.728014,34.244 C230.728014,34.3160004 230.734014,34.4419991 230.746014,34.622 C230.758014,34.8020009 230.764014,34.9519994 230.764014,35.072 L244.156014,32.66 C243.700012,31.1959927 242.84802,30.0020046 241.600014,29.078 C240.352008,28.1539954 238.960022,27.7039999 237.424014,27.728 Z M256.216015,25.712 C257.488021,25.712 258.65201,26.0239969 259.708015,26.648 L258.880015,29.024 C257.87201,28.2799963 256.85202,27.908 255.820015,27.908 C254.308007,27.908 253.03602,28.4419947 252.004015,29.51 C250.97201,30.5780053 250.456015,31.8919922 250.456015,33.452 L250.456015,44 L248.080015,44 L248.080015,26 L250.456015,26 L250.456015,28.664 C251.920022,26.6959902 253.840003,25.712 256.216015,25.712 Z M265.828016,44.288 C265.012012,44.288 264.22002,44.186001 263.452016,43.982 C262.684012,43.777999 262.042019,43.5380014 261.526016,43.262 C261.010013,42.9859986 260.548018,42.7040014 260.140016,42.416 C259.732014,42.1279986 259.432017,41.888001 259.240016,41.696 L258.952016,41.372 L260.644016,39.932 C260.812017,40.1000008 261.046014,40.3039988 261.346016,40.544 C261.646017,40.7840012 262.252011,41.107998 263.164016,41.516 C264.076021,41.924002 264.976012,42.128 265.864016,42.128 C267.184023,42.128 268.240012,41.8760025 269.032016,41.372 C269.82402,40.8679975 270.220016,40.1600046 270.220016,39.248 C270.220016,38.5999968 269.82402,38.0420023 269.032016,37.574 C268.240012,37.1059977 267.280022,36.7040017 266.152016,36.368 C265.02401,36.0319983 263.890022,35.660002 262.750016,35.252 C261.61001,34.843998 260.64402,34.2680037 259.852016,33.524 C259.060012,32.7799963 258.664016,31.8680054 258.664016,30.788 C258.664016,29.2999926 259.22201,28.0820047 260.338016,27.134 C261.454022,26.1859953 263.104005,25.712 265.288016,25.712 C266.584022,25.712 267.80801,25.9519976 268.960016,26.432 C270.112022,26.9120024 270.940013,27.3919976 271.444016,27.872 L272.200016,28.592 L270.508016,30.068 C270.340015,29.8999992 270.106018,29.6960012 269.806016,29.456 C269.506014,29.2159988 268.900021,28.892002 267.988016,28.484 C267.076011,28.075998 266.164021,27.872 265.252016,27.872 C263.95601,27.872 262.90602,28.1239975 262.102016,28.628 C261.298012,29.1320025 260.896016,29.8399954 260.896016,30.752 C260.896016,31.4000032 261.292012,31.9579977 262.084016,32.426 C262.87602,32.8940023 263.83601,33.2959983 264.964016,33.632 C266.092022,33.9680017 267.22601,34.333998 268.366016,34.73 C269.506022,35.126002 270.472012,35.7019962 271.264016,36.458 C272.05602,37.2140038 272.452016,38.1319946 272.452016,39.212 C272.452016,40.7240076 271.900022,41.9479953 270.796016,42.884 C269.69201,43.8200047 268.036027,44.288 265.828016,44.288 Z M282.136017,41.912 C283.744025,41.912 285.184011,41.4560046 286.456017,40.544 C287.728023,39.6319954 288.592015,38.5640061 289.048017,37.34 L291.064017,38.06 C290.512014,39.5720076 289.438025,40.9639936 287.842017,42.236 C286.246009,43.5080064 284.344028,44.1320001 282.136017,44.108 C280.120007,44.108 278.278025,43.4840062 276.610017,42.236 C274.942009,40.9879938 273.80802,39.3920097 273.208017,37.448 C272.968016,36.655996 272.848017,35.7920047 272.848017,34.856 C272.848017,32.263987 273.748008,30.068009 275.548017,28.268 C277.348026,26.467991 279.544004,25.5560001 282.136017,25.532 C284.488029,25.5560001 286.540008,26.3479922 288.292017,27.908 C290.044026,29.4680078 291.052016,31.3999885 291.316017,33.704 C291.340017,33.8240006 291.352017,33.979999 291.352017,34.172 L275.620017,37.016 C276.028019,38.4560072 276.844011,39.6379954 278.068017,40.562 C279.292023,41.4860046 280.64801,41.9360001 282.136017,41.912 Z M281.920017,27.728 C280.120008,27.7520001 278.578023,28.3999936 277.294017,29.672 C276.010011,30.9440064 275.320017,32.4679911 275.224017,34.244 C275.224017,34.3160004 275.230017,34.4419991 275.242017,34.622 C275.254017,34.8020009 275.260017,34.9519994 275.260017,35.072 L288.652017,32.66 C288.196015,31.1959927 287.344023,30.0020046 286.096017,29.078 C284.848011,28.1539954 283.456025,27.7039999 281.920017,27.728 Z M301.144019,44 L301.144019,19.808 L309.352019,19.808 C312.064033,19.808 314.224011,20.4439936 315.832019,21.716 C317.440027,22.9880064 318.244019,24.5719905 318.244019,26.468 C318.244019,27.6440059 317.890023,28.7119952 317.182019,29.672 C316.474015,30.6320048 315.484025,31.3759974 314.212019,31.904 C315.484025,32.4320026 316.474015,33.1759952 317.182019,34.136 C317.890023,35.0960048 318.244019,36.175994 318.244019,37.376 C318.244019,39.2720095 317.440027,40.8499937 315.832019,42.11 C314.224011,43.3700063 312.064033,44 309.352019,44 L301.144019,44 Z M303.520019,30.896 L309.352019,30.896 C311.296029,30.896 312.856013,30.4760042 314.032019,29.636 C315.208025,28.7959958 315.796019,27.7520062 315.796019,26.504 C315.796019,25.2319936 315.208025,24.1760042 314.032019,23.336 C312.856013,22.4959958 311.296029,22.076 309.352019,22.076 L303.520019,22.076 L303.520019,30.896 Z M303.520019,41.732 L309.352019,41.732 C311.296029,41.732 312.856013,41.3120042 314.032019,40.472 C315.208025,39.6319958 315.796019,38.5760064 315.796019,37.304 C315.796019,36.0559938 315.208025,35.0120042 314.032019,34.172 C312.856013,33.3319958 311.296029,32.912 309.352019,32.912 L303.520019,32.912 L303.520019,41.732 Z M323.32002,20.6 C323.056019,20.8880014 322.720022,21.032 322.31202,21.032 C321.904018,21.032 321.562021,20.8880014 321.28602,20.6 C321.010019,20.3119986 320.87202,19.9760019 320.87202,19.592 C320.87202,19.2079981 321.010019,18.8720014 321.28602,18.584 C321.562021,18.2959986 321.904018,18.152 322.31202,18.152 C322.720022,18.152 323.062019,18.2959986 323.33802,18.584 C323.614021,18.8720014 323.75202,19.2079981 323.75202,19.592 C323.75202,19.9760019 323.608021,20.3119986 323.32002,20.6 Z M321.12402,44 L321.12402,26 L323.50002,26 L323.50002,44 L321.12402,44 Z M341.860021,26 L344.236021,26 L344.236021,44 L341.860021,44 L341.860021,41.084 C340.012012,43.2200107 337.672035,44.288 334.840021,44.288 C332.272008,44.288 330.08203,43.3820091 328.270021,41.57 C326.458012,39.7579909 325.552021,37.5680128 325.552021,35 C325.552021,32.4319872 326.458012,30.2420091 328.270021,28.43 C330.08203,26.6179909 332.272008,25.712 334.840021,25.712 C337.696035,25.712 340.036012,26.7799893 341.860021,28.916 L341.860021,26 Z M334.876021,42.02 C336.820031,42.02 338.458014,41.3420068 339.790021,39.986 C341.122028,38.6299932 341.788021,36.9680098 341.788021,35 C341.788021,33.0319902 341.122028,31.3700068 339.790021,30.014 C338.458014,28.6579932 336.820031,27.98 334.876021,27.98 C332.956011,27.98 331.318028,28.6579932 329.962021,30.014 C328.606014,31.3700068 327.928021,33.0319902 327.928021,35 C327.928021,36.9680098 328.606014,38.6299932 329.962021,39.986 C331.318028,41.3420068 332.956011,42.02 334.876021,42.02 Z M353.236022,44.288 C352.420018,44.288 351.628026,44.186001 350.860022,43.982 C350.092018,43.777999 349.450025,43.5380014 348.934022,43.262 C348.418019,42.9859986 347.956024,42.7040014 347.548022,42.416 C347.14002,42.1279986 346.840023,41.888001 346.648022,41.696 L346.360022,41.372 L348.052022,39.932 C348.220023,40.1000008 348.454021,40.3039988 348.754022,40.544 C349.054024,40.7840012 349.660017,41.107998 350.572022,41.516 C351.484027,41.924002 352.384018,42.128 353.272022,42.128 C354.592029,42.128 355.648018,41.8760025 356.440022,41.372 C357.232026,40.8679975 357.628022,40.1600046 357.628022,39.248 C357.628022,38.5999968 357.232026,38.0420023 356.440022,37.574 C355.648018,37.1059977 354.688028,36.7040017 353.560022,36.368 C352.432016,36.0319983 351.298028,35.660002 350.158022,35.252 C349.018016,34.843998 348.052026,34.2680037 347.260022,33.524 C346.468018,32.7799963 346.072022,31.8680054 346.072022,30.788 C346.072022,29.2999926 346.630016,28.0820047 347.746022,27.134 C348.862028,26.1859953 350.512011,25.712 352.696022,25.712 C353.992028,25.712 355.216016,25.9519976 356.368022,26.432 C357.520028,26.9120024 358.348019,27.3919976 358.852022,27.872 L359.608022,28.592 L357.916022,30.068 C357.748021,29.8999992 357.514024,29.6960012 357.214022,29.456 C356.91402,29.2159988 356.308027,28.892002 355.396022,28.484 C354.484017,28.075998 353.572027,27.872 352.660022,27.872 C351.364016,27.872 350.314026,28.1239975 349.510022,28.628 C348.706018,29.1320025 348.304022,29.8399954 348.304022,30.752 C348.304022,31.4000032 348.700018,31.9579977 349.492022,32.426 C350.284026,32.8940023 351.244016,33.2959983 352.372022,33.632 C353.500028,33.9680017 354.634016,34.333998 355.774022,34.73 C356.914028,35.126002 357.880018,35.7019962 358.672022,36.458 C359.464026,37.2140038 359.860022,38.1319946 359.860022,39.212 C359.860022,40.7240076 359.308028,41.9479953 358.204022,42.884 C357.100016,43.8200047 355.444033,44.288 353.236022,44.288 Z" id="Diode-with-Reverse-B-Copy" fill="#23ABE3"></path>
        <path id="Line-4" d="M337.5,281 L377.5,281 L379,281 L379,284 L377.5,284 L337.5,284 L337.5,292 L318.5,282.5 L337.5,273 L337.5,281 Z" fill="#84D0EF" fill-rule="nonzero"></path>
        <path id="Line-4-Copy" d="M559,284 L519,284 L517.5,284 L517.5,281 L519,281 L559,281 L559,273 L578,282.5 L559,292 L559,284 Z" fill="#EF7D3B" fill-rule="nonzero"></path>
    </g>
</svg>