<?xml version="1.0" encoding="UTF-8"?>
<svg width="900px" height="430px" viewBox="0 0 900 430" version="1.1" xmlns="http://www.w3.org/2000/svg" xmlns:xlink="http://www.w3.org/1999/xlink">
    <!-- Generator: Sketch 52.5 (67469) - http://www.bohemiancoding.com/sketch -->
    <title>Diode_Forward_Bias_Over_Vf</title>
    <desc>Created with Sketch.</desc>
    <g id="Diode_Forward_Bias_Over_Vf" stroke="none" stroke-width="1" fill="none" fill-rule="evenodd">
        <rect id="Rectangle" stroke="#3D3530" stroke-width="2" fill="#EEEEEE" x="1" y="1" width="898" height="428"></rect>
        <g id="Illustration" transform="translate(79.000000, 26.000000)">
            <g id="Lattice-Junction" transform="translate(19.000000, 0.000000)">
                <g id="P-Type-Lattice" transform="translate(192.000000, 31.000000)">
                    <rect id="Rectangle" stroke="#999999" stroke-width="2" fill="#D4D4D4" x="1" y="1" width="158" height="158"></rect>
                    <circle id="Oval-Copy-3" fill="#252525" cx="20.5" cy="18.5" r="10.5"></circle>
                    <circle id="Oval-Copy-5" fill="#252525" cx="20.5" cy="58.5" r="10.5"></circle>
                    <circle id="Oval-Copy-6" fill="#252525" cx="20.5" cy="98.5" r="10.5"></circle>
                    <circle id="Oval-Copy-10" fill="#252525" cx="50.5" cy="38.5" r="10.5"></circle>
                    <circle id="Oval-Copy-8" fill="#252525" cx="50.5" cy="118.5" r="10.5"></circle>
                    <g id="Negative-Ion" transform="translate(100.000000, 28.000000)">
                        <circle id="Oval-Copy-26" fill="#84D0EF" cx="10.5" cy="10.5" r="10.5"></circle>
                        <rect id="Rectangle" fill="#524740" x="6" y="10" width="9" height="1"></rect>
                    </g>
                    <circle id="Oval-Copy-25" fill="#252525" cx="110.5" cy="78.5" r="10.5"></circle>
                    <circle id="Oval-Copy-24" fill="#252525" cx="110.5" cy="118.5" r="10.5"></circle>
                    <g id="Negative-Ion" transform="translate(40.000000, 68.000000)">
                        <circle id="Oval-Copy-9" fill="#84D0EF" cx="10.5" cy="10.5" r="10.5"></circle>
                        <rect id="Rectangle" fill="#524740" x="6" y="10" width="9" height="1"></rect>
                    </g>
                    <g id="Negative-Ion" transform="translate(10.000000, 128.000000)">
                        <circle id="Oval-Copy-7" fill="#84D0EF" cx="10.5" cy="10.5" r="10.5"></circle>
                        <rect id="Rectangle" fill="#524740" x="6" y="10" width="9" height="1"></rect>
                    </g>
                    <circle id="Oval-Copy-23" fill="#252525" cx="80.5" cy="18.5" r="10.5"></circle>
                    <circle id="Oval-Copy-22" fill="#252525" cx="80.5" cy="58.5" r="10.5"></circle>
                    <g id="Negative-Ion" transform="translate(70.000000, 88.000000)">
                        <circle id="Oval-Copy-21" fill="#84D0EF" cx="10.5" cy="10.5" r="10.5"></circle>
                        <rect id="Rectangle" fill="#524740" x="6" y="10" width="9" height="1"></rect>
                    </g>
                    <circle id="Oval-Copy-20" fill="#252525" cx="80.5" cy="138.5" r="10.5"></circle>
                    <circle id="Oval-Copy-30" fill="#252525" cx="140.5" cy="18.5" r="10.5"></circle>
                    <circle id="Oval-Copy-29" fill="#252525" cx="140.5" cy="58.5" r="10.5"></circle>
                    <circle id="Oval-Copy-28" fill="#252525" cx="140.5" cy="98.5" r="10.5"></circle>
                    <circle id="Oval-Copy-27" fill="#252525" cx="140.5" cy="138.5" r="10.5"></circle>
                    <g id="Holes" transform="translate(4.000000, 11.000000)" fill="#84D0EF">
                        <circle id="Oval-Copy-31" cx="25.25" cy="65.25" r="3.25"></circle>
                        <circle id="Oval-Copy-32" cx="38.25" cy="44.25" r="3.25"></circle>
                        <circle id="Oval-Copy-33" cx="28.25" cy="16.25" r="3.25"></circle>
                        <circle id="Oval-Copy-34" cx="69.25" cy="24.25" r="3.25"></circle>
                        <circle id="Oval-Copy-35" cx="79.25" cy="64.25" r="3.25"></circle>
                        <circle id="Oval-Copy-36" cx="60.25" cy="85.25" r="3.25"></circle>
                        <circle id="Oval-Copy-37" cx="35.25" cy="96.25" r="3.25"></circle>
                        <circle id="Oval-Copy-38" cx="31.25" cy="138.25" r="3.25"></circle>
                        <circle id="Oval-Copy-39" cx="3.25" cy="105.25" r="3.25"></circle>
                        <circle id="Oval-Copy-123" cx="3.25" cy="135.25" r="3.25"></circle>
                        <circle id="Oval-Copy-124" cx="23.25" cy="105.25" r="3.25"></circle>
                        <circle id="Oval-Copy-125" cx="3.25" cy="75.25" r="3.25"></circle>
                        <circle id="Oval-Copy-126" cx="3.25" cy="35.25" r="3.25"></circle>
                        <circle id="Oval-Copy-127" cx="3.25" cy="3.25" r="3.25"></circle>
                        <circle id="Oval-Copy-128" cx="55.25" cy="5.25" r="3.25"></circle>
                        <circle id="Oval-Copy-129" cx="56.25" cy="45.25" r="3.25"></circle>
                        <circle id="Oval-Copy-130" cx="96.25" cy="84.25" r="3.25"></circle>
                        <circle id="Oval-Copy-131" cx="148.25" cy="59.25" r="3.25"></circle>
                        <circle id="Oval-Copy-132" cx="150.25" cy="29.25" r="3.25"></circle>
                        <circle id="Oval-Copy-40" cx="55.25" cy="123.25" r="3.25"></circle>
                        <circle id="Oval-Copy-42" cx="90.25" cy="104.25" r="3.25"></circle>
                        <circle id="Oval-Copy-43" cx="90.25" cy="134.25" r="3.25"></circle>
                        <circle id="Oval-Copy-49" cx="96.25" cy="15.25" r="3.25"></circle>
                    </g>
                    <g id="Electrons" transform="translate(8.000000, 2.000000)" fill="#EF7D3B">
                        <circle id="Oval-Copy-93" cx="14.25" cy="35.25" r="3.25"></circle>
                        <circle id="Oval-Copy-94" cx="3.25" cy="74.25" r="3.25"></circle>
                        <circle id="Oval-Copy-95" cx="3.25" cy="124.25" r="3.25"></circle>
                        <circle id="Oval-Copy-96" cx="33.25" cy="144.25" r="3.25"></circle>
                        <circle id="Oval-Copy-133" cx="25.25" cy="120.25" r="3.25"></circle>
                        <circle id="Oval-Copy-97" cx="33.25" cy="94.25" r="3.25"></circle>
                        <circle id="Oval-Copy-98" cx="33.25" cy="64.25" r="3.25"></circle>
                        <circle id="Oval-Copy-99" cx="33.25" cy="14.25" r="3.25"></circle>
                        <circle id="Oval-Copy-100" cx="58.25" cy="44.25" r="3.25"></circle>
                        <circle id="Oval-Copy-101" cx="57.25" cy="6.25" r="3.25"></circle>
                        <circle id="Oval-Copy-102" cx="57.25" cy="81.25" r="3.25"></circle>
                        <circle id="Oval-Copy-103" cx="87.25" cy="71.25" r="3.25"></circle>
                        <circle id="Oval-Copy-104" cx="87.25" cy="101.25" r="3.25"></circle>
                        <circle id="Oval-Copy-105" cx="66.25" cy="121.25" r="3.25"></circle>
                        <circle id="Oval-Copy-106" cx="56.25" cy="151.25" r="3.25"></circle>
                        <circle id="Oval-Copy-107" cx="96.25" cy="151.25" r="3.25"></circle>
                        <circle id="Oval-Copy-108" cx="96.25" cy="131.25" r="3.25"></circle>
                        <circle id="Oval-Copy-109" cx="126.25" cy="121.25" r="3.25"></circle>
                        <circle id="Oval-Copy-110" cx="116.25" cy="151.25" r="3.25"></circle>
                        <circle id="Oval-Copy-111" cx="144.25" cy="151.25" r="3.25"></circle>
                        <circle id="Oval-Copy-112" cx="144.25" cy="111.25" r="3.25"></circle>
                        <circle id="Oval-Copy-113" cx="112.25" cy="97.25" r="3.25"></circle>
                        <circle id="Oval-Copy-114" cx="142.25" cy="77.25" r="3.25"></circle>
                        <circle id="Oval-Copy-115" cx="118.25" cy="57.25" r="3.25"></circle>
                        <circle id="Oval-Copy-116" cx="96.25" cy="53.25" r="3.25"></circle>
                        <circle id="Oval-Copy-117" cx="83.25" cy="33.25" r="3.25"></circle>
                        <circle id="Oval-Copy-118" cx="97.25" cy="10.25" r="3.25"></circle>
                        <circle id="Oval-Copy-119" cx="117.25" cy="20.25" r="3.25"></circle>
                        <circle id="Oval-Copy-120" cx="143.25" cy="30.25" r="3.25"></circle>
                        <circle id="Oval-Copy-121" cx="143.25" cy="3.25" r="3.25"></circle>
                        <circle id="Oval-Copy-122" cx="143.25" cy="3.25" r="3.25"></circle>
                    </g>
                </g>
                <g id="N-Type-Lattice" transform="translate(350.000000, 31.000000)">
                    <rect id="Rectangle" stroke="#999999" stroke-width="2" fill="#7D7570" x="1" y="1" width="158" height="158"></rect>
                    <circle id="Oval-Copy-3" fill="#252525" cx="20.5" cy="18.5" r="10.5"></circle>
                    <circle id="Oval-Copy-5" fill="#252525" cx="20.5" cy="58.5" r="10.5"></circle>
                    <circle id="Oval-Copy-6" fill="#252525" cx="20.5" cy="98.5" r="10.5"></circle>
                    <circle id="Oval-Copy-10" fill="#252525" cx="50.5" cy="38.5" r="10.5"></circle>
                    <g id="Positive-Ion" transform="translate(40.000000, 68.000000)">
                        <circle id="Oval-Copy-9" fill="#D7E465" cx="10.5" cy="10.5" r="10.5"></circle>
                        <path d="M10,10 L10,6 L11,6 L11,10 L15,10 L15,11 L11,11 L11,15 L10,15 L10,11 L6,11 L6,10 L10,10 Z" id="Combined-Shape" fill="#524740"></path>
                    </g>
                    <circle id="Oval-Copy-8" fill="#252525" cx="50.5" cy="118.5" r="10.5"></circle>
                    <g id="Positive-Ion" transform="translate(100.000000, 28.000000)">
                        <circle id="Oval-Copy-26" fill="#D7E465" cx="10.5" cy="10.5" r="10.5"></circle>
                        <path d="M10,10 L10,6 L11,6 L11,10 L15,10 L15,11 L11,11 L11,15 L10,15 L10,11 L6,11 L6,10 L10,10 Z" id="Combined-Shape" fill="#524740"></path>
                    </g>
                    <circle id="Oval-Copy-25" fill="#252525" cx="110.5" cy="78.5" r="10.5"></circle>
                    <circle id="Oval-Copy-24" fill="#252525" cx="110.5" cy="118.5" r="10.5"></circle>
                    <g id="Positive-Ion" transform="translate(10.000000, 128.000000)">
                        <circle id="Oval-Copy-7" fill="#D7E465" cx="10.5" cy="10.5" r="10.5"></circle>
                        <path d="M10,10 L10,6 L11,6 L11,10 L15,10 L15,11 L11,11 L11,15 L10,15 L10,11 L6,11 L6,10 L10,10 Z" id="Combined-Shape" fill="#524740"></path>
                    </g>
                    <circle id="Oval-Copy-23" fill="#252525" cx="80.5" cy="18.5" r="10.5"></circle>
                    <circle id="Oval-Copy-22" fill="#252525" cx="80.5" cy="58.5" r="10.5"></circle>
                    <g id="Positive-Ion" transform="translate(70.000000, 88.000000)">
                        <circle id="Oval-Copy-21" fill="#D7E465" cx="10.5" cy="10.5" r="10.5"></circle>
                        <path d="M10,10 L10,6 L11,6 L11,10 L15,10 L15,11 L11,11 L11,15 L10,15 L10,11 L6,11 L6,10 L10,10 Z" id="Combined-Shape" fill="#524740"></path>
                    </g>
                    <circle id="Oval-Copy-20" fill="#252525" cx="80.5" cy="138.5" r="10.5"></circle>
                    <circle id="Oval-Copy-30" fill="#252525" cx="140.5" cy="18.5" r="10.5"></circle>
                    <circle id="Oval-Copy-29" fill="#252525" cx="140.5" cy="58.5" r="10.5"></circle>
                    <circle id="Oval-Copy-28" fill="#252525" cx="140.5" cy="98.5" r="10.5"></circle>
                    <circle id="Oval-Copy-27" fill="#252525" cx="140.5" cy="138.5" r="10.5"></circle>
                    <g id="electrons" transform="translate(4.000000, 3.000000)" fill="#EF7D3B">
                        <circle id="Oval-Copy-34" cx="69.25" cy="32.25" r="3.25"></circle>
                        <circle id="Oval-Copy-35" cx="79.25" cy="72.25" r="3.25"></circle>
                        <circle id="Oval-Copy-36" cx="60.25" cy="93.25" r="3.25"></circle>
                        <circle id="Oval-Copy-40" cx="55.25" cy="131.25" r="3.25"></circle>
                        <circle id="Oval-Copy-41" cx="115.25" cy="131.25" r="3.25"></circle>
                        <circle id="Oval-Copy-42" cx="90.25" cy="112.25" r="3.25"></circle>
                        <circle id="Oval-Copy-43" cx="90.25" cy="142.25" r="3.25"></circle>
                        <circle id="Oval-Copy-44" cx="130.25" cy="151.25" r="3.25"></circle>
                        <circle id="Oval-Copy-45" cx="150.25" cy="101.25" r="3.25"></circle>
                        <circle id="Oval-Copy-46" cx="119.25" cy="87.25" r="3.25"></circle>
                        <circle id="Oval-Copy-47" cx="129.25" cy="42.25" r="3.25"></circle>
                        <circle id="Oval-Copy-48" cx="119.25" cy="8.25" r="3.25"></circle>
                        <circle id="Oval-Copy-49" cx="96.25" cy="23.25" r="3.25"></circle>
                        <circle id="Oval-Copy-31" cx="25.25" cy="73.25" r="3.25"></circle>
                        <circle id="Oval-Copy-32" cx="38.25" cy="52.25" r="3.25"></circle>
                        <circle id="Oval-Copy-33" cx="28.25" cy="24.25" r="3.25"></circle>
                        <circle id="Oval-Copy-37" cx="35.25" cy="104.25" r="3.25"></circle>
                        <circle id="Oval-Copy-38" cx="31.25" cy="148.25" r="3.25"></circle>
                        <circle id="Oval-Copy-164" cx="61.25" cy="48.25" r="3.25"></circle>
                        <circle id="Oval-Copy-165" cx="41.25" cy="9.25" r="3.25"></circle>
                        <circle id="Oval-Copy-166" cx="68.25" cy="3.25" r="3.25"></circle>
                        <circle id="Oval-Copy-167" cx="148.25" cy="3.25" r="3.25"></circle>
                        <circle id="Oval-Copy-168" cx="149.25" cy="46.25" r="3.25"></circle>
                        <circle id="Oval-Copy-169" cx="129.25" cy="70.25" r="3.25"></circle>
                        <circle id="Oval-Copy-170" cx="92.25" cy="58.25" r="3.25"></circle>
                        <circle id="Oval-Copy-171" cx="68.25" cy="150.25" r="3.25"></circle>
                        <circle id="Oval-Copy-39" cx="3.25" cy="113.25" r="3.25"></circle>
                    </g>
                    <g id="holes" transform="translate(3.000000, 5.000000)" fill="#84D0EF">
                        <circle id="Oval-Copy-134" cx="4.25" cy="144.25" r="3.25"></circle>
                        <circle id="Oval-Copy-136" cx="44.25" cy="144.25" r="3.25"></circle>
                        <circle id="Oval-Copy-137" cx="32.25" cy="116.25" r="3.25"></circle>
                        <circle id="Oval-Copy-138" cx="7.25" cy="81.25" r="3.25"></circle>
                        <circle id="Oval-Copy-139" cx="3.25" cy="46.25" r="3.25"></circle>
                        <circle id="Oval-Copy-140" cx="33.25" cy="46.25" r="3.25"></circle>
                        <circle id="Oval-Copy-141" cx="3.25" cy="16.25" r="3.25"></circle>
                        <circle id="Oval-Copy-142" cx="30.25" cy="3.25" r="3.25"></circle>
                        <circle id="Oval-Copy-143" cx="60.25" cy="23.25" r="3.25"></circle>
                        <circle id="Oval-Copy-144" cx="50.25" cy="3.25" r="3.25"></circle>
                        <circle id="Oval-Copy-145" cx="91.25" cy="5.25" r="3.25"></circle>
                        <circle id="Oval-Copy-146" cx="121.25" cy="15.25" r="3.25"></circle>
                        <circle id="Oval-Copy-147" cx="91.25" cy="35.25" r="3.25"></circle>
                        <circle id="Oval-Copy-148" cx="61.25" cy="55.25" r="3.25"></circle>
                        <circle id="Oval-Copy-149" cx="62.25" cy="77.25" r="3.25"></circle>
                        <circle id="Oval-Copy-150" cx="39.25" cy="86.25" r="3.25"></circle>
                        <circle id="Oval-Copy-151" cx="69.25" cy="106.25" r="3.25"></circle>
                        <circle id="Oval-Copy-152" cx="62.25" cy="140.25" r="3.25"></circle>
                        <circle id="Oval-Copy-153" cx="98.25" cy="132.25" r="3.25"></circle>
                        <circle id="Oval-Copy-154" cx="98.25" cy="102.25" r="3.25"></circle>
                        <circle id="Oval-Copy-155" cx="89.25" cy="82.25" r="3.25"></circle>
                        <circle id="Oval-Copy-156" cx="121.25" cy="97.25" r="3.25"></circle>
                        <circle id="Oval-Copy-157" cx="121.25" cy="147.25" r="3.25"></circle>
                        <circle id="Oval-Copy-158" cx="151.25" cy="142.25" r="3.25"></circle>
                        <circle id="Oval-Copy-159" cx="141.25" cy="115.25" r="3.25"></circle>
                        <circle id="Oval-Copy-160" cx="147.25" cy="77.25" r="3.25"></circle>
                        <circle id="Oval-Copy-161" cx="111.25" cy="56.25" r="3.25"></circle>
                        <circle id="Oval-Copy-162" cx="149.25" cy="26.25" r="3.25"></circle>
                        <circle id="Oval-Copy-163" cx="149.25" cy="26.25" r="3.25"></circle>
                        <circle id="Oval-Copy-135" cx="14.25" cy="111.25" r="3.25"></circle>
                    </g>
                </g>
                <circle id="Oval-Copy-41" fill="#84D0EF" cx="311.25" cy="165.25" r="3.25"></circle>
                <circle id="Oval-Copy-44" fill="#84D0EF" cx="326.25" cy="185.25" r="3.25"></circle>
                <circle id="Oval-Copy-45" fill="#84D0EF" cx="346.25" cy="135.25" r="3.25"></circle>
                <circle id="Oval-Copy-46" fill="#84D0EF" cx="315.25" cy="121.25" r="3.25"></circle>
                <circle id="Oval-Copy-47" fill="#84D0EF" cx="325.25" cy="76.25" r="3.25"></circle>
                <circle id="Oval-Copy-48" fill="#84D0EF" cx="315.25" cy="42.25" r="3.25"></circle>
                <text id="P-Type" font-family="MrsEavesOT-Roman, Mrs Eaves OT" font-size="24" font-weight="normal" letter-spacing="1" fill="#524740">
                    <tspan x="240" y="17">P-Type</tspan>
                </text>
                <text id="N-Type" font-family="MrsEavesOT-Roman, Mrs Eaves OT" font-size="24" font-weight="normal" letter-spacing="1" fill="#524740">
                    <tspan x="387" y="17">N-Type</tspan>
                </text>
                <text id="Anode-(A)" font-family="MrsEavesOT-Roman, Mrs Eaves OT" font-size="24" font-weight="normal" letter-spacing="1" fill="#524740">
                    <tspan x="0" y="87">Anode (A)</tspan>
                </text>
                <text id="Cathode-(K)" font-family="MrsEavesOT-Roman, Mrs Eaves OT" font-size="24" font-weight="normal" letter-spacing="1" fill="#524740">
                    <tspan x="566.876" y="87">Cathode (K)</tspan>
                </text>
            </g>
            <text id="Voltage-Source-&gt;-Jun" font-family="MrsEavesOT-Roman, Mrs Eaves OT" font-size="24" font-weight="normal" letter-spacing="1" fill="#524740">
                <tspan x="157.216" y="304">Voltage Source &gt; Junction Potential (~0.7V)</tspan>
            </text>
            <g id="Potential-Plates" transform="translate(334.000000, 218.000000)">
                <g id="VS">
                    <path d="M29,14.5 L29,47.5" id="Line-2-Copy" stroke="#3D3530" stroke-width="3" stroke-linecap="square"></path>
                    <path d="M54,14.5 L54,47.5" id="Line-2-Copy-2" stroke="#3D3530" stroke-width="3" stroke-linecap="square"></path>
                    <path d="M17,5.5 L17,54.5" id="Line-2-Copy" stroke="#3D3530" stroke-width="3" stroke-linecap="square"></path>
                    <path d="M42,5.5 L42,54.5" id="Line-2-Copy-3" stroke="#3D3530" stroke-width="3" stroke-linecap="square"></path>
                    <rect id="Combined-Shape" fill="#524740" x="61" y="5" width="9" height="1"></rect>
                    <path d="M4,4 L4,0 L5,0 L5,4 L9,4 L9,5 L5,5 L5,9 L4,9 L4,5 L0,5 L0,4 L4,4 Z" id="Combined-Shape" fill="#524740"></path>
                </g>
            </g>
            <g id="Anode" transform="translate(0.000000, 72.000000)">
                <rect id="Rectangle" fill="#3D3530" x="205" y="0" width="7" height="80"></rect>
                <polyline id="Path-8" stroke="#3D3530" stroke-width="3" points="206.880017 39.9008336 14.880017 39.9008336 14.880017 176.5 350.45316 176.5"></polyline>
                <g id="Anode-Hole-Flow" transform="translate(20.000000, 46.000000)" fill="#84D0EF">
                    <circle id="Oval-Copy-92" cx="163.25" cy="3.25" r="3.25"></circle>
                    <circle id="Oval-Copy-91" cx="143.25" cy="3.25" r="3.25"></circle>
                    <circle id="Oval-Copy-90" cx="123.25" cy="3.25" r="3.25"></circle>
                    <circle id="Oval-Copy-89" cx="103.25" cy="3.25" r="3.25"></circle>
                    <circle id="Oval-Copy-88" cx="83.25" cy="3.25" r="3.25"></circle>
                    <circle id="Oval-Copy-87" cx="63.25" cy="3.25" r="3.25"></circle>
                    <circle id="Oval-Copy-86" cx="43.25" cy="3.25" r="3.25"></circle>
                    <circle id="Oval-Copy-85" cx="23.25" cy="3.25" r="3.25"></circle>
                    <circle id="Oval-Copy-84" cx="3.25" cy="3.25" r="3.25"></circle>
                    <circle id="Oval-Copy-68" cx="3.25" cy="103.25" r="3.25"></circle>
                    <circle id="Oval-Copy-69" cx="3.25" cy="83.25" r="3.25"></circle>
                    <circle id="Oval-Copy-70" cx="3.25" cy="63.25" r="3.25"></circle>
                    <circle id="Oval-Copy-71" cx="3.25" cy="43.25" r="3.25"></circle>
                    <circle id="Oval-Copy-72" cx="3.25" cy="23.25" r="3.25"></circle>
                    <circle id="Oval-Copy-67" cx="303.25" cy="123.25" r="3.25"></circle>
                    <circle id="Oval-Copy-44" cx="23.25" cy="123.25" r="3.25"></circle>
                    <circle id="Oval-Copy-66" cx="3.25" cy="123.25" r="3.25"></circle>
                    <circle id="Oval-Copy-50" cx="43.25" cy="123.25" r="3.25"></circle>
                    <circle id="Oval-Copy-51" cx="63.25" cy="123.25" r="3.25"></circle>
                    <circle id="Oval-Copy-52" cx="83.25" cy="123.25" r="3.25"></circle>
                    <circle id="Oval-Copy-53" cx="103.25" cy="123.25" r="3.25"></circle>
                    <circle id="Oval-Copy-54" cx="123.25" cy="123.25" r="3.25"></circle>
                    <circle id="Oval-Copy-55" cx="143.25" cy="123.25" r="3.25"></circle>
                    <circle id="Oval-Copy-56" cx="163.25" cy="123.25" r="3.25"></circle>
                    <circle id="Oval-Copy-57" cx="183.25" cy="123.25" r="3.25"></circle>
                    <circle id="Oval-Copy-58" cx="203.25" cy="123.25" r="3.25"></circle>
                    <circle id="Oval-Copy-59" cx="223.25" cy="123.25" r="3.25"></circle>
                    <circle id="Oval-Copy-60" cx="243.25" cy="123.25" r="3.25"></circle>
                    <circle id="Oval-Copy-61" cx="263.25" cy="123.25" r="3.25"></circle>
                    <circle id="Oval-Copy-62" cx="283.25" cy="123.25" r="3.25"></circle>
                </g>
                <g id="Anode-Electron-Flow" transform="translate(0.000000, 26.000000)" fill="#EF7D3B">
                    <circle id="Oval-Copy-44" cx="23.25" cy="163.25" r="3.25"></circle>
                    <circle id="Oval-Copy-66" cx="3.25" cy="163.25" r="3.25"></circle>
                    <circle id="Oval-Copy-50" cx="43.25" cy="163.25" r="3.25"></circle>
                    <circle id="Oval-Copy-51" cx="63.25" cy="163.25" r="3.25"></circle>
                    <circle id="Oval-Copy-52" cx="83.25" cy="163.25" r="3.25"></circle>
                    <circle id="Oval-Copy-53" cx="103.25" cy="163.25" r="3.25"></circle>
                    <circle id="Oval-Copy-54" cx="123.25" cy="163.25" r="3.25"></circle>
                    <circle id="Oval-Copy-55" cx="143.25" cy="163.25" r="3.25"></circle>
                    <circle id="Oval-Copy-56" cx="163.25" cy="163.25" r="3.25"></circle>
                    <circle id="Oval-Copy-57" cx="183.25" cy="163.25" r="3.25"></circle>
                    <circle id="Oval-Copy-58" cx="203.25" cy="163.25" r="3.25"></circle>
                    <circle id="Oval-Copy-59" cx="223.25" cy="163.25" r="3.25"></circle>
                    <circle id="Oval-Copy-60" cx="243.25" cy="163.25" r="3.25"></circle>
                    <circle id="Oval-Copy-61" cx="263.25" cy="163.25" r="3.25"></circle>
                    <circle id="Oval-Copy-62" cx="283.25" cy="163.25" r="3.25"></circle>
                    <circle id="Oval-Copy-63" cx="303.25" cy="163.25" r="3.25"></circle>
                    <circle id="Oval-Copy-64" cx="323.25" cy="163.25" r="3.25"></circle>
                    <circle id="Oval-Copy-65" cx="323.25" cy="163.25" r="3.25"></circle>
                    <circle id="Oval-Copy-67" cx="3.25" cy="143.25" r="3.25"></circle>
                    <circle id="Oval-Copy-68" cx="3.25" cy="123.25" r="3.25"></circle>
                    <circle id="Oval-Copy-69" cx="3.25" cy="103.25" r="3.25"></circle>
                    <circle id="Oval-Copy-70" cx="3.25" cy="83.25" r="3.25"></circle>
                    <circle id="Oval-Copy-71" cx="3.25" cy="63.25" r="3.25"></circle>
                    <circle id="Oval-Copy-72" cx="3.25" cy="43.25" r="3.25"></circle>
                    <circle id="Oval-Copy-73" cx="3.25" cy="23.25" r="3.25"></circle>
                    <circle id="Oval-Copy-74" cx="183.25" cy="3.25" r="3.25"></circle>
                    <circle id="Oval-Copy-75" cx="163.25" cy="3.25" r="3.25"></circle>
                    <circle id="Oval-Copy-76" cx="143.25" cy="3.25" r="3.25"></circle>
                    <circle id="Oval-Copy-77" cx="123.25" cy="3.25" r="3.25"></circle>
                    <circle id="Oval-Copy-78" cx="103.25" cy="3.25" r="3.25"></circle>
                    <circle id="Oval-Copy-79" cx="83.25" cy="3.25" r="3.25"></circle>
                    <circle id="Oval-Copy-80" cx="63.25" cy="3.25" r="3.25"></circle>
                    <circle id="Oval-Copy-81" cx="43.25" cy="3.25" r="3.25"></circle>
                    <circle id="Oval-Copy-82" cx="23.25" cy="3.25" r="3.25"></circle>
                    <circle id="Oval-Copy-83" cx="3.25" cy="3.25" r="3.25"></circle>
                </g>
            </g>
            <g id="Cathode" transform="translate(388.000000, 73.000000)">
                <rect id="Rectangle" fill="#3D3530" x="140" y="0" width="7" height="80"></rect>
                <polyline id="Path-8" stroke="#3D3530" stroke-width="3" points="0 176.5 333.880017 176.5 333.880017 39.9008336 141.880017 39.9008336"></polyline>
                <g id="Cathode-Electron-Flow" transform="translate(22.000000, 25.000000)" fill="#EF7D3B">
                    <circle id="Oval-Copy-44" cx="23.25" cy="163.25" r="3.25"></circle>
                    <circle id="Oval-Copy-66" cx="3.25" cy="163.25" r="3.25"></circle>
                    <circle id="Oval-Copy-50" cx="43.25" cy="163.25" r="3.25"></circle>
                    <circle id="Oval-Copy-51" cx="63.25" cy="163.25" r="3.25"></circle>
                    <circle id="Oval-Copy-52" cx="83.25" cy="163.25" r="3.25"></circle>
                    <circle id="Oval-Copy-53" cx="103.25" cy="163.25" r="3.25"></circle>
                    <circle id="Oval-Copy-54" cx="123.25" cy="163.25" r="3.25"></circle>
                    <circle id="Oval-Copy-55" cx="143.25" cy="163.25" r="3.25"></circle>
                    <circle id="Oval-Copy-56" cx="163.25" cy="163.25" r="3.25"></circle>
                    <circle id="Oval-Copy-57" cx="183.25" cy="163.25" r="3.25"></circle>
                    <circle id="Oval-Copy-58" cx="203.25" cy="163.25" r="3.25"></circle>
                    <circle id="Oval-Copy-59" cx="223.25" cy="163.25" r="3.25"></circle>
                    <circle id="Oval-Copy-60" cx="243.25" cy="163.25" r="3.25"></circle>
                    <circle id="Oval-Copy-61" cx="263.25" cy="163.25" r="3.25"></circle>
                    <circle id="Oval-Copy-62" cx="283.25" cy="163.25" r="3.25"></circle>
                    <circle id="Oval-Copy-63" cx="303.25" cy="163.25" r="3.25"></circle>
                    <circle id="Oval-Copy-64" cx="323.25" cy="163.25" r="3.25"></circle>
                    <circle id="Oval-Copy-65" cx="323.25" cy="163.25" r="3.25"></circle>
                    <circle id="Oval-Copy-67" cx="323.25" cy="143.25" r="3.25"></circle>
                    <circle id="Oval-Copy-68" cx="323.25" cy="123.25" r="3.25"></circle>
                    <circle id="Oval-Copy-69" cx="323.25" cy="103.25" r="3.25"></circle>
                    <circle id="Oval-Copy-70" cx="323.25" cy="83.25" r="3.25"></circle>
                    <circle id="Oval-Copy-71" cx="323.25" cy="63.25" r="3.25"></circle>
                    <circle id="Oval-Copy-72" cx="323.25" cy="43.25" r="3.25"></circle>
                    <circle id="Oval-Copy-73" cx="323.25" cy="23.25" r="3.25"></circle>
                    <circle id="Oval-Copy-74" cx="323.25" cy="3.25" r="3.25"></circle>
                    <circle id="Oval-Copy-75" cx="303.25" cy="3.25" r="3.25"></circle>
                    <circle id="Oval-Copy-76" cx="283.25" cy="3.25" r="3.25"></circle>
                    <circle id="Oval-Copy-77" cx="263.25" cy="3.25" r="3.25"></circle>
                    <circle id="Oval-Copy-78" cx="243.25" cy="3.25" r="3.25"></circle>
                    <circle id="Oval-Copy-79" cx="223.25" cy="3.25" r="3.25"></circle>
                    <circle id="Oval-Copy-80" cx="203.25" cy="3.25" r="3.25"></circle>
                    <circle id="Oval-Copy-81" cx="183.25" cy="3.25" r="3.25"></circle>
                    <circle id="Oval-Copy-82" cx="163.25" cy="3.25" r="3.25"></circle>
                    <circle id="Oval-Copy-83" cx="143.25" cy="3.25" r="3.25"></circle>
                </g>
                <g id="Cathode-Hole-Flow" transform="translate(22.000000, 45.000000)" fill="#84D0EF">
                    <circle id="Oval-Copy-92" cx="303.25" cy="3.25" r="3.25"></circle>
                    <circle id="Oval-Copy-91" cx="283.25" cy="3.25" r="3.25"></circle>
                    <circle id="Oval-Copy-90" cx="263.25" cy="3.25" r="3.25"></circle>
                    <circle id="Oval-Copy-89" cx="243.25" cy="3.25" r="3.25"></circle>
                    <circle id="Oval-Copy-88" cx="223.25" cy="3.25" r="3.25"></circle>
                    <circle id="Oval-Copy-87" cx="203.25" cy="3.25" r="3.25"></circle>
                    <circle id="Oval-Copy-86" cx="183.25" cy="3.25" r="3.25"></circle>
                    <circle id="Oval-Copy-85" cx="163.25" cy="3.25" r="3.25"></circle>
                    <circle id="Oval-Copy-84" cx="143.25" cy="3.25" r="3.25"></circle>
                    <circle id="Oval-Copy-67" cx="303.25" cy="123.25" r="3.25"></circle>
                    <circle id="Oval-Copy-68" cx="303.25" cy="103.25" r="3.25"></circle>
                    <circle id="Oval-Copy-69" cx="303.25" cy="83.25" r="3.25"></circle>
                    <circle id="Oval-Copy-70" cx="303.25" cy="63.25" r="3.25"></circle>
                    <circle id="Oval-Copy-71" cx="303.25" cy="43.25" r="3.25"></circle>
                    <circle id="Oval-Copy-72" cx="303.25" cy="23.25" r="3.25"></circle>
                    <circle id="Oval-Copy-44" cx="23.25" cy="123.25" r="3.25"></circle>
                    <circle id="Oval-Copy-66" cx="3.25" cy="123.25" r="3.25"></circle>
                    <circle id="Oval-Copy-50" cx="43.25" cy="123.25" r="3.25"></circle>
                    <circle id="Oval-Copy-51" cx="63.25" cy="123.25" r="3.25"></circle>
                    <circle id="Oval-Copy-52" cx="83.25" cy="123.25" r="3.25"></circle>
                    <circle id="Oval-Copy-53" cx="103.25" cy="123.25" r="3.25"></circle>
                    <circle id="Oval-Copy-54" cx="123.25" cy="123.25" r="3.25"></circle>
                    <circle id="Oval-Copy-55" cx="143.25" cy="123.25" r="3.25"></circle>
                    <circle id="Oval-Copy-56" cx="163.25" cy="123.25" r="3.25"></circle>
                    <circle id="Oval-Copy-57" cx="183.25" cy="123.25" r="3.25"></circle>
                    <circle id="Oval-Copy-58" cx="203.25" cy="123.25" r="3.25"></circle>
                    <circle id="Oval-Copy-59" cx="223.25" cy="123.25" r="3.25"></circle>
                    <circle id="Oval-Copy-60" cx="243.25" cy="123.25" r="3.25"></circle>
                    <circle id="Oval-Copy-61" cx="263.25" cy="123.25" r="3.25"></circle>
                    <circle id="Oval-Copy-62" cx="283.25" cy="123.25" r="3.25"></circle>
                </g>
            </g>
        </g>
        <text id="Forward-Bias-Overcom" font-family="Wavehaus-66Book, Wavehaus" font-size="36" font-weight="300" letter-spacing="1" fill="#23ABE3">
            <tspan x="99.872" y="408">Forward Bias Overcoming Junction Potential</tspan>
        </text>
        <rect id="Rectangle-Copy" stroke="#3D3530" stroke-width="2" x="1" y="367" width="898" height="62"></rect>
    </g>
</svg>