<?xml version="1.0" encoding="UTF-8"?>
<svg width="900px" height="370px" viewBox="0 0 900 370" version="1.1" xmlns="http://www.w3.org/2000/svg" xmlns:xlink="http://www.w3.org/1999/xlink">
    <!-- Generator: Sketch 52.5 (67469) - http://www.bohemiancoding.com/sketch -->
    <title>Diode_Forward_Behavior</title>
    <desc>Created with Sketch.</desc>
    <g id="Diode_Forward_Behavior" stroke="none" stroke-width="1" fill="none" fill-rule="evenodd">
        <rect id="Rectangle" stroke="#3D3530" stroke-width="2" fill="#EEEEEE" x="1" y="1" width="898" height="528"></rect>
        <g id="Illustration" transform="translate(112.000000, 22.000000)">
            <g id="Labels" transform="translate(171.000000, 0.000000)">
                <path d="M14.832,16.736 L14.352,16.736 C14.2239994,16.1119969 13.9520021,15.6560014 13.536,15.368 C12.2239934,16.7280068 10.7360083,17.408 9.072,17.408 C7.03998984,17.408 5.3040072,16.6640074 3.864,15.176 C2.4239928,13.6879926 1.704,11.8960105 1.704,9.8 C1.704,7.70398952 2.4239928,5.91200744 3.864,4.424 C5.3040072,2.93599256 7.03998984,2.192 9.072,2.192 C10.7680085,2.192 12.2559936,2.8719932 13.536,4.232 C13.9680022,3.89599832 14.2399994,3.44000288 14.352,2.864 L14.832,2.864 L14.832,8.144 L14.352,8.144 C14.0159983,6.55999208 13.3960045,5.3280044 12.492,4.448 C11.5879955,3.5679956 10.4800066,3.128 9.168,3.128 C8.25599544,3.128 7.44800352,3.33199796 6.744,3.74 C6.03999648,4.14800204 5.49200196,4.68799664 5.1,5.36 C4.70799804,6.03200336 4.41600096,6.74399624 4.224,7.496 C4.03199904,8.24800376 3.936,9.01599608 3.936,9.8 C3.936,10.5840039 4.03199904,11.3519962 4.224,12.104 C4.41600096,12.8560038 4.70799804,13.5639967 5.1,14.228 C5.49200196,14.8920033 6.03999648,15.427998 6.744,15.836 C7.44800352,16.244002 8.25599544,16.448 9.168,16.448 C10.4800066,16.448 11.5879955,16.0040044 12.492,15.116 C13.3960045,14.2279956 14.0159983,13.0080078 14.352,11.456 L14.832,11.456 L14.832,16.736 Z M29.68,16.808 L26.464,17.408 C26.3359994,17.1519987 26.2080006,16.6400038 26.08,15.872 C25.087995,16.8960051 24.0400055,17.408 22.936,17.408 C20.9519901,17.408 19.96,16.208012 19.96,13.808 L19.96,12.296 C19.96,11.095994 19.8440012,10.3280017 19.612,9.992 C19.3799988,9.65599832 18.864004,9.488 18.064,9.488 L18.064,9.008 L21.664,9.008 L21.664,13.688 C21.664,15.4000086 22.2719939,16.256 23.488,16.256 C24.0320027,16.256 24.599997,16.0280023 25.192,15.572 C25.784003,15.1159977 26.08,14.5520034 26.08,13.88 L26.08,12.296 C26.08,11.095994 25.9640012,10.3280017 25.732,9.992 C25.4999988,9.65599832 24.9760041,9.488 24.16,9.488 L24.16,9.008 L27.76,9.008 L27.76,13.496 C27.76,14.696006 27.8759988,15.4639983 28.108,15.8 C28.3400012,16.1360017 28.8639959,16.304 29.68,16.304 L29.68,16.808 Z M40.064,10.088 C40.064,10.8400038 39.7440032,11.216 39.104,11.216 C38.8799989,11.216 38.6840008,11.1280009 38.516,10.952 C38.3479992,10.7759991 38.264,10.5760011 38.264,10.352 C38.264,9.82399736 38.0080026,9.56 37.496,9.56 C37.1279982,9.56 36.7280022,9.81599744 36.296,10.328 C35.8639978,10.8400026 35.648,11.5199958 35.648,12.368 L35.648,13.688 C35.648,14.888006 35.7639988,15.6559983 35.996,15.992 C36.2280012,16.3280017 36.743996,16.496 37.544,16.496 L37.544,17 L32.048,17 L32.048,16.496 C32.848004,16.496 33.3639988,16.3280017 33.596,15.992 C33.8280012,15.6559983 33.944,14.888006 33.944,13.688 L33.944,12.488 C33.944,11.3039941 33.8280012,10.5440017 33.596,10.208 C33.3639988,9.87199832 32.848004,9.704 32.048,9.704 L32.048,9.2 L35.24,8.6 C35.3840007,8.90400152 35.5199994,9.47999576 35.648,10.328 C35.8880012,9.8479976 36.2479976,9.44000168 36.728,9.104 C37.2080024,8.76799832 37.6879976,8.6 38.168,8.6 C38.776003,8.6 39.2439984,8.7599984 39.572,9.08 C39.9000016,9.4000016 40.064,9.73599824 40.064,10.088 Z M50.496,10.088 C50.496,10.8400038 50.1760032,11.216 49.536,11.216 C49.3119989,11.216 49.1160008,11.1280009 48.948,10.952 C48.7799992,10.7759991 48.696,10.5760011 48.696,10.352 C48.696,9.82399736 48.4400026,9.56 47.928,9.56 C47.5599982,9.56 47.1600022,9.81599744 46.728,10.328 C46.2959978,10.8400026 46.08,11.5199958 46.08,12.368 L46.08,13.688 C46.08,14.888006 46.1959988,15.6559983 46.428,15.992 C46.6600012,16.3280017 47.175996,16.496 47.976,16.496 L47.976,17 L42.48,17 L42.48,16.496 C43.280004,16.496 43.7959988,16.3280017 44.028,15.992 C44.2600012,15.6559983 44.376,14.888006 44.376,13.688 L44.376,12.488 C44.376,11.3039941 44.2600012,10.5440017 44.028,10.208 C43.7959988,9.87199832 43.280004,9.704 42.48,9.704 L42.48,9.2 L45.672,8.6 C45.8160007,8.90400152 45.9519994,9.47999576 46.08,10.328 C46.3200012,9.8479976 46.6799976,9.44000168 47.16,9.104 C47.6400024,8.76799832 48.1199976,8.6 48.6,8.6 C49.208003,8.6 49.6759984,8.7599984 50.004,9.08 C50.3320016,9.4000016 50.496,9.73599824 50.496,10.088 Z M54.808,11.504 L58.792,11.504 C58.9520008,11.0559978 58.8840015,10.6200021 58.588,10.196 C58.2919985,9.77199788 57.7840036,9.56 57.064,9.56 C56.5519974,9.56 56.092002,9.73599824 55.684,10.088 C55.275998,10.4400018 54.9840009,10.911997 54.808,11.504 Z M54.664,12.392 C54.5199993,13.5760059 54.7079974,14.5399963 55.228,15.284 C55.7480026,16.0280037 56.5999941,16.4 57.784,16.4 C58.184002,16.4 58.6399974,16.296001 59.152,16.088 C59.6640026,15.879999 60.0879983,15.6160016 60.424,15.296 L60.856,15.824 C60.4239978,16.2880023 59.8720034,16.6679985 59.2,16.964 C58.5279966,17.2600015 57.8560034,17.408 57.184,17.408 C55.8879935,17.408 54.8240042,16.9800043 53.992,16.124 C53.1599958,15.2679957 52.744,14.2240062 52.744,12.992 C52.744,11.7599938 53.1959955,10.7200042 54.1,9.872 C55.0040045,9.02399576 56.0319942,8.6 57.184,8.6 C58.2720054,8.6 59.1599966,8.9799962 59.848,9.74 C60.5360034,10.5000038 60.7360014,11.383995 60.448,12.392 L54.664,12.392 Z M67.232,10.328 C68.1440046,9.17599424 69.2559934,8.6 70.568,8.6 C71.6080052,8.6 72.3879974,8.92799672 72.908,9.584 C73.4280026,10.2400033 73.688,11.1039946 73.688,12.176 L73.688,13.688 C73.688,14.888006 73.8039988,15.6559983 74.036,15.992 C74.2680012,16.3280017 74.783996,16.496 75.584,16.496 L75.584,17 L70.088,17 L70.088,16.496 C70.8720039,16.496 71.3839988,16.3240017 71.624,15.98 C71.8640012,15.6359983 71.984,14.8720059 71.984,13.688 L71.984,12.296 C71.984,10.5839914 71.3200066,9.728 69.992,9.728 C69.3039966,9.728 68.6720029,9.9679976 68.096,10.448 C67.5199971,10.9280024 67.232,11.4879968 67.232,12.128 L67.232,13.688 C67.232,14.9200062 67.327999,15.6959984 67.52,16.016 C67.712001,16.3360016 68.1759963,16.496 68.912,16.496 L68.912,17 L63.632,17 L63.632,16.496 C64.432004,16.496 64.9479988,16.3280017 65.18,15.992 C65.4120012,15.6559983 65.528,14.888006 65.528,13.688 L65.528,12.488 C65.528,11.3039941 65.4120012,10.5440017 65.18,10.208 C64.9479988,9.87199832 64.432004,9.704 63.632,9.704 L63.632,9.2 L66.824,8.6 C66.9680007,8.90400152 67.1039994,9.47999576 67.232,10.328 Z M78.96,9.848 L77.712,9.848 L77.712,9.272 C78.4000034,9.12799928 78.9039984,8.8160024 79.224,8.336 C79.5440016,7.8559976 79.7519995,7.20000416 79.848,6.368 L80.664,6.368 L80.664,9.008 L82.752,9.008 L82.752,9.848 L80.664,9.848 L80.664,14.648 C80.664,15.8000058 81.0239964,16.376 81.744,16.376 C82.2080023,16.376 82.7279971,16.1040027 83.304,15.56 L83.712,15.968 C83.3759983,16.368002 82.9720024,16.6959987 82.5,16.952 C82.0279976,17.2080013 81.592002,17.336 81.192,17.336 C80.5039966,17.336 79.960002,17.1120022 79.56,16.664 C79.159998,16.2159978 78.96,15.5440045 78.96,14.648 L78.96,9.848 Z" id="Current-Copy" fill="#524740"></path>
                <path d="M313.696,205.104 C312.751995,205.104 312.140001,205.219999 311.86,205.452 C311.579999,205.684001 311.240002,206.263995 310.84,207.192 L305.56,219.408 L305.248,219.408 L299.944,207.192 C299.543998,206.263995 299.204001,205.684001 298.924,205.452 C298.643999,205.219999 298.032005,205.104 297.088,205.104 L297.088,204.6 L303.736,204.6 L303.736,205.104 C302.743995,205.104 302.108001,205.243999 301.828,205.524 C301.547999,205.804001 301.559998,206.271997 301.864,206.928 L305.944,216.264 L309.976,206.928 C310.280002,206.271997 310.292001,205.804001 310.012,205.524 C309.731999,205.243999 309.096005,205.104 308.104,205.104 L308.104,204.6 L313.696,204.6 L313.696,205.104 Z M321.824,211.896 C322.784005,212.744004 323.264,213.775994 323.264,214.992 C323.264,216.208006 322.788005,217.247996 321.836,218.112 C320.883995,218.976004 319.744007,219.408 318.416,219.408 C317.087993,219.408 315.948005,218.976004 314.996,218.112 C314.043995,217.247996 313.568,216.208006 313.568,214.992 C313.568,213.775994 314.043995,212.740004 314.996,211.884 C315.948005,211.027996 317.087993,210.6 318.416,210.6 C319.744007,210.6 320.879995,211.031996 321.824,211.896 Z M320.576,217.512 C321.072002,216.855997 321.32,216.016005 321.32,214.992 C321.32,213.967995 321.072002,213.132003 320.576,212.484 C320.079998,211.835997 319.360005,211.512 318.416,211.512 C317.471995,211.512 316.752002,211.839997 316.256,212.496 C315.759998,213.152003 315.512,213.983995 315.512,214.992 C315.512,216.000005 315.759998,216.831997 316.256,217.488 C316.752002,218.144003 317.471995,218.472 318.416,218.472 C319.360005,218.472 320.079998,218.152003 320.576,217.512 Z M331.368,219 L325.872,219 L325.872,218.496 C326.672004,218.496 327.187999,218.328002 327.42,217.992 C327.652001,217.655998 327.768,216.888006 327.768,215.688 L327.768,208.104 C327.768,206.903994 327.652001,206.136002 327.42,205.8 C327.187999,205.463998 326.672004,205.296 325.872,205.296 L325.872,204.792 L329.472,204.192 L329.472,215.688 C329.472,216.888006 329.587999,217.655998 329.82,217.992 C330.052001,218.328002 330.567996,218.496 331.368,218.496 L331.368,219 Z M334.768,211.848 L333.52,211.848 L333.52,211.272 C334.208003,211.127999 334.711998,210.816002 335.032,210.336 C335.352002,209.855998 335.56,209.200004 335.656,208.368 L336.472,208.368 L336.472,211.008 L338.56,211.008 L338.56,211.848 L336.472,211.848 L336.472,216.648 C336.472,217.800006 336.831996,218.376 337.552,218.376 C338.016002,218.376 338.535997,218.104003 339.112,217.56 L339.52,217.968 C339.183998,218.368002 338.780002,218.695999 338.308,218.952 C337.835998,219.208001 337.400002,219.336 337,219.336 C336.311997,219.336 335.768002,219.112002 335.368,218.664 C334.967998,218.215998 334.768,217.544004 334.768,216.648 L334.768,211.848 Z M350.216,218.52 C349.751998,219.016002 349.224003,219.264 348.632,219.264 C347.671995,219.264 347.128001,218.800005 347,217.872 C345.927995,218.832005 344.928005,219.312 344,219.312 C343.391997,219.312 342.880002,219.132002 342.464,218.772 C342.047998,218.411998 341.84,217.920003 341.84,217.296 C341.84,215.615992 343.543983,214.480003 346.952,213.888 C346.952,212.943995 346.848001,212.288002 346.64,211.92 C346.431999,211.551998 346.000003,211.368 345.344,211.368 C345.023998,211.368 344.716001,211.471999 344.42,211.68 C344.123999,211.888001 343.976,212.167998 343.976,212.52 C343.976,212.760001 343.896001,212.959999 343.736,213.12 C343.575999,213.280001 343.384001,213.36 343.16,213.36 C342.919999,213.36 342.720001,213.280001 342.56,213.12 C342.399999,212.959999 342.32,212.760001 342.32,212.52 C342.32,211.959997 342.627997,211.500002 343.244,211.14 C343.860003,210.779998 344.567996,210.6 345.368,210.6 C346.536006,210.6 347.375997,210.855997 347.888,211.368 C348.400003,211.880003 348.656,212.711994 348.656,213.864 L348.656,217.488 C348.656,218.112003 348.839998,218.424 349.208,218.424 C349.416001,218.424 349.639999,218.304001 349.88,218.064 L350.216,218.52 Z M346.952,217.08 L346.952,214.632 C344.743989,215.144003 343.64,215.935995 343.64,217.008 C343.64,217.376002 343.747999,217.671999 343.964,217.896 C344.180001,218.120001 344.447998,218.232 344.768,218.232 C345.360003,218.232 346.087996,217.848004 346.952,217.08 Z M357.456,215.664 C357.760002,215.199998 357.912,214.600004 357.912,213.864 C357.912,213.127996 357.764001,212.528002 357.468,212.064 C357.171999,211.599998 356.744003,211.368 356.184,211.368 C355.623997,211.368 355.192002,211.599998 354.888,212.064 C354.583998,212.528002 354.432,213.127996 354.432,213.864 C354.432,214.600004 354.583998,215.195998 354.888,215.652 C355.192002,216.108002 355.623997,216.336 356.184,216.336 C356.744003,216.336 357.167999,216.112002 357.456,215.664 Z M353.952,218.136 C353.952,218.616002 354.679993,218.919999 356.136,219.048 C357.672008,219.176001 358.783997,219.527997 359.472,220.104 C360.160003,220.680003 360.504,221.375996 360.504,222.192 C360.504,223.168005 360.100004,223.947997 359.292,224.532 C358.483996,225.116003 357.472006,225.408 356.256,225.408 C354.959994,225.408 353.916004,225.140003 353.124,224.604 C352.331996,224.067997 351.968,223.440004 352.032,222.72 C352.096,221.999996 352.607995,221.392002 353.568,220.896 L354,221.16 C353.535998,221.688003 353.288,222.171998 353.256,222.612 C353.224,223.052002 353.363998,223.399999 353.676,223.656 C353.988002,223.912001 354.371998,224.111999 354.828,224.256 C355.284002,224.400001 355.759998,224.472 356.256,224.472 C357.040004,224.472 357.731997,224.300002 358.332,223.956 C358.932003,223.611998 359.232,223.168003 359.232,222.624 C359.232,222.095997 358.972003,221.712001 358.452,221.472 C357.931997,221.231999 357.120006,221.056001 356.016,220.944 C353.743989,220.719999 352.608,219.976006 352.608,218.712 C352.608,217.847996 353.279993,217.208002 354.624,216.792 C353.999997,216.503999 353.508002,216.104003 353.148,215.592 C352.787998,215.079997 352.608,214.504003 352.608,213.864 C352.608,212.967996 352.955997,212.200003 353.652,211.56 C354.348003,210.919997 355.191995,210.6 356.184,210.6 C357.144005,210.6 357.967997,210.903997 358.656,211.512 C358.864001,211.255999 359.147998,211.040001 359.508,210.864 C359.868002,210.687999 360.183999,210.6 360.456,210.6 C361.160004,210.6 361.607999,210.895997 361.8,211.488 C361.944001,211.936002 361.872001,212.271999 361.584,212.496 C361.488,212.576 361.376001,212.616 361.248,212.616 C361.007999,212.632 360.828001,212.584001 360.708,212.472 C360.587999,212.359999 360.516,212.236001 360.492,212.1 C360.468,211.963999 360.404001,211.836001 360.3,211.716 C360.195999,211.595999 360.032001,211.536 359.808,211.536 C359.567999,211.536 359.320001,211.663999 359.064,211.92 C359.528002,212.480003 359.76,213.127996 359.76,213.864 C359.76,214.712004 359.448003,215.439997 358.824,216.048 C358.199997,216.656003 357.472004,217.015999 356.64,217.128 C354.847991,217.336001 353.952,217.671998 353.952,218.136 Z M365.968,213.504 L369.952,213.504 C370.112001,213.055998 370.044001,212.620002 369.748,212.196 C369.451999,211.771998 368.944004,211.56 368.224,211.56 C367.711997,211.56 367.252002,211.735998 366.844,212.088 C366.435998,212.440002 366.144001,212.911997 365.968,213.504 Z M365.824,214.392 C365.679999,215.576006 365.867997,216.539996 366.388,217.284 C366.908003,218.028004 367.759994,218.4 368.944,218.4 C369.344002,218.4 369.799997,218.296001 370.312,218.088 C370.824003,217.879999 371.247998,217.616002 371.584,217.296 L372.016,217.824 C371.583998,218.288002 371.032003,218.667999 370.36,218.964 C369.687997,219.260001 369.016003,219.408 368.344,219.408 C367.047994,219.408 365.984004,218.980004 365.152,218.124 C364.319996,217.267996 363.904,216.224006 363.904,214.992 C363.904,213.759994 364.355995,212.720004 365.26,211.872 C366.164005,211.023996 367.191994,210.6 368.344,210.6 C369.432005,210.6 370.319997,210.979996 371.008,211.74 C371.696003,212.500004 371.896001,213.383995 371.608,214.392 L365.824,214.392 Z" id="Voltage-Copy" fill="#524740"></path>
                <path d="M178.756,123.272 L178.756,115.814 C178.756,114.713994 178.635001,114.013668 178.393,113.713 C178.150999,113.412332 177.575338,113.262 176.666,113.262 L176.666,112.8 L181.682,112.8 L181.682,113.262 C180.772662,113.262 180.193335,113.412332 179.944,113.713 C179.694665,114.013668 179.57,114.713994 179.57,115.814 L179.57,126.374 L179.064,126.374 L170.11,115.308 L170.11,122.964 C170.11,124.064006 170.234665,124.767998 170.484,125.076 C170.733335,125.384002 171.312662,125.538 172.222,125.538 L172.222,126 L167.206,126 L167.206,125.538 C168.115338,125.538 168.690999,125.384002 168.933,125.076 C169.175001,124.767998 169.296,124.064006 169.296,122.964 L169.296,115.814 C169.296,114.713994 169.175001,114.013668 168.933,113.713 C168.690999,113.412332 168.115338,113.262 167.206,113.262 L167.206,112.8 L170.308,112.8 L178.756,123.272 Z M190.834,125.56 C190.408665,126.014669 189.924669,126.242 189.382,126.242 C188.501996,126.242 188.003334,125.816671 187.886,124.966 C186.903328,125.846004 185.986671,126.286 185.136,126.286 C184.578664,126.286 184.109335,126.121002 183.728,125.791 C183.346665,125.460998 183.156,125.010003 183.156,124.438 C183.156,122.897992 184.717984,121.856669 187.842,121.314 C187.842,120.448662 187.746668,119.847335 187.556,119.51 C187.365332,119.172665 186.969336,119.004 186.368,119.004 C186.074665,119.004 185.792335,119.099332 185.521,119.29 C185.249665,119.480668 185.114,119.737332 185.114,120.06 C185.114,120.280001 185.040667,120.463333 184.894,120.61 C184.747333,120.756667 184.571334,120.83 184.366,120.83 C184.145999,120.83 183.962667,120.756667 183.816,120.61 C183.669333,120.463333 183.596,120.280001 183.596,120.06 C183.596,119.546664 183.878331,119.125002 184.443,118.795 C185.007669,118.464998 185.656663,118.3 186.39,118.3 C187.460672,118.3 188.230664,118.534664 188.7,119.004 C189.169336,119.473336 189.404,120.235995 189.404,121.292 L189.404,124.614 C189.404,125.186003 189.572665,125.472 189.91,125.472 C190.100668,125.472 190.305999,125.362001 190.526,125.142 L190.834,125.56 Z M187.842,124.24 L187.842,121.996 C185.81799,122.465336 184.806,123.191328 184.806,124.174 C184.806,124.511335 184.904999,124.782666 185.103,124.988 C185.301001,125.193334 185.546665,125.296 185.84,125.296 C186.382669,125.296 187.049996,124.944004 187.842,124.24 Z M199.37,119.664 C199.37,120.353337 199.07667,120.698 198.49,120.698 C198.284666,120.698 198.105001,120.617334 197.951,120.456 C197.796999,120.294666 197.72,120.111334 197.72,119.906 C197.72,119.421998 197.485336,119.18 197.016,119.18 C196.678665,119.18 196.312002,119.414664 195.916,119.884 C195.519998,120.353336 195.322,120.976663 195.322,121.754 L195.322,122.964 C195.322,124.064006 195.428332,124.767998 195.641,125.076 C195.853668,125.384002 196.326663,125.538 197.06,125.538 L197.06,126 L192.022,126 L192.022,125.538 C192.755337,125.538 193.228332,125.384002 193.441,125.076 C193.653668,124.767998 193.76,124.064006 193.76,122.964 L193.76,121.864 C193.76,120.778661 193.653668,120.082002 193.441,119.774 C193.228332,119.465998 192.755337,119.312 192.022,119.312 L192.022,118.85 L194.948,118.3 C195.080001,118.578668 195.204666,119.106663 195.322,119.884 C195.542001,119.443998 195.871998,119.070002 196.312,118.762 C196.752002,118.453998 197.191998,118.3 197.632,118.3 C198.189336,118.3 198.618332,118.446665 198.919,118.74 C199.219668,119.033335 199.37,119.341332 199.37,119.664 Z M208.016,119.664 C208.016,120.353337 207.72267,120.698 207.136,120.698 C206.930666,120.698 206.751001,120.617334 206.597,120.456 C206.442999,120.294666 206.366,120.111334 206.366,119.906 C206.366,119.421998 206.131336,119.18 205.662,119.18 C205.324665,119.18 204.958002,119.414664 204.562,119.884 C204.165998,120.353336 203.968,120.976663 203.968,121.754 L203.968,122.964 C203.968,124.064006 204.074332,124.767998 204.287,125.076 C204.499668,125.384002 204.972663,125.538 205.706,125.538 L205.706,126 L200.668,126 L200.668,125.538 C201.401337,125.538 201.874332,125.384002 202.087,125.076 C202.299668,124.767998 202.406,124.064006 202.406,122.964 L202.406,121.864 C202.406,120.778661 202.299668,120.082002 202.087,119.774 C201.874332,119.465998 201.401337,119.312 200.668,119.312 L200.668,118.85 L203.594,118.3 C203.726001,118.578668 203.850666,119.106663 203.968,119.884 C204.188001,119.443998 204.517998,119.070002 204.958,118.762 C205.398002,118.453998 205.837998,118.3 206.278,118.3 C206.835336,118.3 207.264332,118.446665 207.565,118.74 C207.865668,119.033335 208.016,119.341332 208.016,119.664 Z M217.102,119.488 C217.982004,120.265337 218.422,121.211328 218.422,122.326 C218.422,123.440672 217.985671,124.393996 217.113,125.186 C216.240329,125.978004 215.195339,126.374 213.978,126.374 C212.760661,126.374 211.715671,125.978004 210.843,125.186 C209.970329,124.393996 209.534,123.440672 209.534,122.326 C209.534,121.211328 209.970329,120.261671 210.843,119.477 C211.715671,118.692329 212.760661,118.3 213.978,118.3 C215.195339,118.3 216.236662,118.695996 217.102,119.488 Z M215.958,124.636 C216.412669,124.034664 216.64,123.264671 216.64,122.326 C216.64,121.387329 216.412669,120.621003 215.958,120.027 C215.503331,119.432997 214.843338,119.136 213.978,119.136 C213.112662,119.136 212.452669,119.436664 211.998,120.038 C211.543331,120.639336 211.316,121.401995 211.316,122.326 C211.316,123.250005 211.543331,124.012664 211.998,124.614 C212.452669,125.215336 213.112662,125.516 213.978,125.516 C214.843338,125.516 215.503331,125.22267 215.958,124.636 Z M225.682,121.314 L223.79,126.396 L223.35,126.396 L220.754,120.412 C220.548666,119.927998 220.332334,119.590668 220.105,119.4 C219.877666,119.209332 219.595335,119.114 219.258,119.114 L219.258,118.674 L223.24,118.674 L223.24,119.114 C222.330662,119.114 222.066665,119.546662 222.448,120.412 L223.944,123.844 L225.726,118.674 L226.21,118.674 L228.454,123.844 L229.642,120.412 C229.950002,119.546662 229.737337,119.114 229.004,119.114 L229.004,118.674 L232.084,118.674 L232.084,119.114 C231.687998,119.114 231.372668,119.209332 231.138,119.4 C230.903332,119.590668 230.698001,119.927998 230.522,120.412 L228.3,126.396 L227.86,126.396 L225.682,121.314 Z M244.228,125.186 C245.137338,125.186 245.833998,124.914669 246.318,124.372 C246.802002,123.829331 247.044,123.140004 247.044,122.304 C247.044,121.453329 246.802002,120.753003 246.318,120.203 C245.833998,119.652997 245.137338,119.378 244.228,119.378 L241.566,119.378 L241.566,122.634 C241.566,123.734005 241.686999,124.434332 241.929,124.735 C242.171001,125.035668 242.746662,125.186 243.656,125.186 L244.228,125.186 Z M241.566,113.614 L241.566,118.564 L243.524,118.564 C244.316004,118.564 244.917331,118.333002 245.328,117.871 C245.738669,117.408998 245.944,116.81867 245.944,116.1 C245.944,115.38133 245.738669,114.787336 245.328,114.318 C244.917331,113.848664 244.316004,113.614 243.524,113.614 L241.566,113.614 Z M246.164,118.828 C247.014671,119.092001 247.696664,119.53933 248.21,120.17 C248.723336,120.80067 248.98,121.511996 248.98,122.304 C248.98,123.374672 248.562004,124.25833 247.726,124.955 C246.889996,125.65167 245.731341,126 244.25,126 L237.716,126 L237.716,125.538 C238.625338,125.538 239.200999,125.384002 239.443,125.076 C239.685001,124.767998 239.806,124.064006 239.806,122.964 L239.806,115.814 C239.806,114.713994 239.685001,114.013668 239.443,113.713 C239.200999,113.412332 238.625338,113.262 237.716,113.262 L237.716,112.8 L243.634,112.8 C244.98334,112.8 246.02833,113.111664 246.769,113.735 C247.50967,114.358336 247.88,115.146662 247.88,116.1 C247.88,117.244006 247.308006,118.15333 246.164,118.828 Z M258.77,125.56 C258.344665,126.014669 257.860669,126.242 257.318,126.242 C256.437996,126.242 255.939334,125.816671 255.822,124.966 C254.839328,125.846004 253.922671,126.286 253.072,126.286 C252.514664,126.286 252.045335,126.121002 251.664,125.791 C251.282665,125.460998 251.092,125.010003 251.092,124.438 C251.092,122.897992 252.653984,121.856669 255.778,121.314 C255.778,120.448662 255.682668,119.847335 255.492,119.51 C255.301332,119.172665 254.905336,119.004 254.304,119.004 C254.010665,119.004 253.728335,119.099332 253.457,119.29 C253.185665,119.480668 253.05,119.737332 253.05,120.06 C253.05,120.280001 252.976667,120.463333 252.83,120.61 C252.683333,120.756667 252.507334,120.83 252.302,120.83 C252.081999,120.83 251.898667,120.756667 251.752,120.61 C251.605333,120.463333 251.532,120.280001 251.532,120.06 C251.532,119.546664 251.814331,119.125002 252.379,118.795 C252.943669,118.464998 253.592663,118.3 254.326,118.3 C255.396672,118.3 256.166664,118.534664 256.636,119.004 C257.105336,119.473336 257.34,120.235995 257.34,121.292 L257.34,124.614 C257.34,125.186003 257.508665,125.472 257.846,125.472 C258.036668,125.472 258.241999,125.362001 258.462,125.142 L258.77,125.56 Z M255.778,124.24 L255.778,121.996 C253.75399,122.465336 252.742,123.191328 252.742,124.174 C252.742,124.511335 252.840999,124.782666 253.039,124.988 C253.237001,125.193334 253.482665,125.296 253.776,125.296 C254.318669,125.296 254.985996,124.944004 255.778,124.24 Z M263.258,119.884 C264.094004,118.827995 265.113327,118.3 266.316,118.3 C267.269338,118.3 267.984331,118.600664 268.461,119.202 C268.937669,119.803336 269.176,120.595328 269.176,121.578 L269.176,122.964 C269.176,124.064006 269.282332,124.767998 269.495,125.076 C269.707668,125.384002 270.180663,125.538 270.914,125.538 L270.914,126 L265.876,126 L265.876,125.538 C266.59467,125.538 267.063999,125.380335 267.284,125.065 C267.504001,124.749665 267.614,124.049339 267.614,122.964 L267.614,121.688 C267.614,120.118659 267.005339,119.334 265.788,119.334 C265.15733,119.334 264.578003,119.553998 264.05,119.994 C263.521997,120.434002 263.258,120.94733 263.258,121.534 L263.258,122.964 C263.258,124.093339 263.345999,124.804665 263.522,125.098 C263.698001,125.391335 264.12333,125.538 264.798,125.538 L264.798,126 L259.958,126 L259.958,125.538 C260.691337,125.538 261.164332,125.384002 261.377,125.076 C261.589668,124.767998 261.696,124.064006 261.696,122.964 L261.696,121.864 C261.696,120.778661 261.589668,120.082002 261.377,119.774 C261.164332,119.465998 260.691337,119.312 259.958,119.312 L259.958,118.85 L262.884,118.3 C263.016001,118.578668 263.140666,119.106663 263.258,119.884 Z M278.9,123.756 L278.9,120.918 C278.694666,120.389997 278.394002,119.968335 277.998,119.653 C277.601998,119.337665 277.162002,119.18 276.678,119.18 C275.856663,119.18 275.233335,119.47333 274.808,120.06 C274.382665,120.64667 274.17,121.401995 274.17,122.326 C274.17,123.264671 274.382665,124.02733 274.808,124.614 C275.233335,125.20067 275.856663,125.494 276.678,125.494 C277.162002,125.494 277.601998,125.336335 277.998,125.021 C278.394002,124.705665 278.694666,124.284003 278.9,123.756 Z M278.9,119.598 L278.9,116.012 C278.9,114.911995 278.793668,114.208002 278.581,113.9 C278.368332,113.591998 277.895337,113.438 277.162,113.438 L277.162,112.976 L280.462,112.426 L280.462,122.788 C280.462,123.888005 280.568332,124.591998 280.781,124.9 C280.993668,125.208002 281.466663,125.362 282.2,125.362 L282.2,125.824 L279.274,126.374 C279.171333,126.153999 279.054001,125.70667 278.922,125.032 C278.20333,125.926671 277.301339,126.374 276.216,126.374 C275.174661,126.374 274.276337,125.978004 273.521,125.186 C272.765663,124.393996 272.388,123.440672 272.388,122.326 C272.388,121.211328 272.765663,120.261671 273.521,119.477 C274.276337,118.692329 275.174661,118.3 276.216,118.3 C277.301339,118.3 278.195996,118.732662 278.9,119.598 Z M296.368,119.488 C297.248004,120.265337 297.688,121.211328 297.688,122.326 C297.688,123.440672 297.251671,124.393996 296.379,125.186 C295.506329,125.978004 294.461339,126.374 293.244,126.374 C292.026661,126.374 290.981671,125.978004 290.109,125.186 C289.236329,124.393996 288.8,123.440672 288.8,122.326 C288.8,121.211328 289.236329,120.261671 290.109,119.477 C290.981671,118.692329 292.026661,118.3 293.244,118.3 C294.461339,118.3 295.502662,118.695996 296.368,119.488 Z M295.224,124.636 C295.678669,124.034664 295.906,123.264671 295.906,122.326 C295.906,121.387329 295.678669,120.621003 295.224,120.027 C294.769331,119.432997 294.109338,119.136 293.244,119.136 C292.378662,119.136 291.718669,119.436664 291.264,120.038 C290.809331,120.639336 290.582,121.401995 290.582,122.326 C290.582,123.250005 290.809331,124.012664 291.264,124.614 C291.718669,125.215336 292.378662,125.516 293.244,125.516 C294.109338,125.516 294.769331,125.22267 295.224,124.636 Z M302.88,119.444 L302.88,122.964 C302.88,124.064006 302.986332,124.767998 303.199,125.076 C303.411668,125.384002 303.884663,125.538 304.618,125.538 L304.618,126 L299.58,126 L299.58,125.538 C300.313337,125.538 300.786332,125.384002 300.999,125.076 C301.211668,124.767998 301.318,124.064006 301.318,122.964 L301.318,119.444 L299.514,119.444 L299.514,118.674 L301.318,118.674 L301.318,116.562 C301.318,115.16866 301.66633,114.131003 302.363,113.449 C303.05967,112.766997 303.913995,112.426 304.926,112.426 C305.60067,112.426 306.135998,112.598332 306.532,112.943 C306.928002,113.287668 307.126,113.657998 307.126,114.054 C307.126,114.288668 307.063667,114.479333 306.939,114.626 C306.814333,114.772667 306.634668,114.846 306.4,114.846 C306.165332,114.846 305.982001,114.758001 305.85,114.582 C305.717999,114.405999 305.63,114.211668 305.586,113.999 C305.542,113.786332 305.432001,113.592001 305.256,113.416 C305.079999,113.239999 304.838002,113.152 304.53,113.152 C303.957997,113.152 303.540001,113.412331 303.276,113.933 C303.011999,114.453669 302.88,115.329994 302.88,116.562 L302.88,118.674 L305.08,118.674 L305.08,119.444 L302.88,119.444 Z M175.995,147.758 L175.555,147.758 C175.437666,147.185997 175.188335,146.768001 174.807,146.504 C173.604327,147.750673 172.240341,148.374 170.715,148.374 C168.852324,148.374 167.261007,147.692007 165.941,146.328 C164.620993,144.963993 163.961,143.321343 163.961,141.4 C163.961,139.478657 164.620993,137.836007 165.941,136.472 C167.261007,135.107993 168.852324,134.426 170.715,134.426 C172.269674,134.426 173.633661,135.049327 174.807,136.296 C175.203002,135.987998 175.452333,135.570003 175.555,135.042 L175.995,135.042 L175.995,139.882 L175.555,139.882 C175.246998,138.429993 174.678671,137.300671 173.85,136.494 C173.021329,135.687329 172.005673,135.284 170.803,135.284 C169.966996,135.284 169.226337,135.470998 168.581,135.845 C167.935663,136.219002 167.433335,136.713997 167.074,137.33 C166.714665,137.946003 166.447001,138.598663 166.271,139.288 C166.094999,139.977337 166.007,140.68133 166.007,141.4 C166.007,142.11867 166.094999,142.822663 166.271,143.512 C166.447001,144.201337 166.714665,144.85033 167.074,145.459 C167.433335,146.06767 167.935663,146.558998 168.581,146.933 C169.226337,147.307002 169.966996,147.494 170.803,147.494 C172.005673,147.494 173.021329,147.087004 173.85,146.273 C174.678671,145.458996 175.246998,144.340674 175.555,142.918 L175.995,142.918 L175.995,147.758 Z M188.689,147.824 L185.741,148.374 C185.623666,148.139332 185.506334,147.670004 185.389,146.966 C184.479662,147.904671 183.519005,148.374 182.507,148.374 C180.688324,148.374 179.779,147.274011 179.779,145.074 L179.779,143.688 C179.779,142.587995 179.672668,141.884002 179.46,141.576 C179.247332,141.267998 178.774337,141.114 178.041,141.114 L178.041,140.674 L181.341,140.674 L181.341,144.964 C181.341,146.533341 181.898328,147.318 183.013,147.318 C183.511669,147.318 184.032331,147.109002 184.575,146.691 C185.117669,146.272998 185.389,145.756003 185.389,145.14 L185.389,143.688 C185.389,142.587995 185.282668,141.884002 185.07,141.576 C184.857332,141.267998 184.377004,141.114 183.629,141.114 L183.629,140.674 L186.929,140.674 L186.929,144.788 C186.929,145.888005 187.035332,146.591998 187.248,146.9 C187.460668,147.208002 187.940996,147.362 188.689,147.362 L188.689,147.824 Z M197.291,141.664 C197.291,142.353337 196.99767,142.698 196.411,142.698 C196.205666,142.698 196.026001,142.617334 195.872,142.456 C195.717999,142.294666 195.641,142.111334 195.641,141.906 C195.641,141.421998 195.406336,141.18 194.937,141.18 C194.599665,141.18 194.233002,141.414664 193.837,141.884 C193.440998,142.353336 193.243,142.976663 193.243,143.754 L193.243,144.964 C193.243,146.064006 193.349332,146.767998 193.562,147.076 C193.774668,147.384002 194.247663,147.538 194.981,147.538 L194.981,148 L189.943,148 L189.943,147.538 C190.676337,147.538 191.149332,147.384002 191.362,147.076 C191.574668,146.767998 191.681,146.064006 191.681,144.964 L191.681,143.864 C191.681,142.778661 191.574668,142.082002 191.362,141.774 C191.149332,141.465998 190.676337,141.312 189.943,141.312 L189.943,140.85 L192.869,140.3 C193.001001,140.578668 193.125666,141.106663 193.243,141.884 C193.463001,141.443998 193.792998,141.070002 194.233,140.762 C194.673002,140.453998 195.112998,140.3 195.553,140.3 C196.110336,140.3 196.539332,140.446665 196.84,140.74 C197.140668,141.033335 197.291,141.341332 197.291,141.664 Z M205.937,141.664 C205.937,142.353337 205.64367,142.698 205.057,142.698 C204.851666,142.698 204.672001,142.617334 204.518,142.456 C204.363999,142.294666 204.287,142.111334 204.287,141.906 C204.287,141.421998 204.052336,141.18 203.583,141.18 C203.245665,141.18 202.879002,141.414664 202.483,141.884 C202.086998,142.353336 201.889,142.976663 201.889,143.754 L201.889,144.964 C201.889,146.064006 201.995332,146.767998 202.208,147.076 C202.420668,147.384002 202.893663,147.538 203.627,147.538 L203.627,148 L198.589,148 L198.589,147.538 C199.322337,147.538 199.795332,147.384002 200.008,147.076 C200.220668,146.767998 200.327,146.064006 200.327,144.964 L200.327,143.864 C200.327,142.778661 200.220668,142.082002 200.008,141.774 C199.795332,141.465998 199.322337,141.312 198.589,141.312 L198.589,140.85 L201.515,140.3 C201.647001,140.578668 201.771666,141.106663 201.889,141.884 C202.109001,141.443998 202.438998,141.070002 202.879,140.762 C203.319002,140.453998 203.758998,140.3 204.199,140.3 C204.756336,140.3 205.185332,140.446665 205.486,140.74 C205.786668,141.033335 205.937,141.341332 205.937,141.664 Z M208.973,142.962 L212.625,142.962 C212.771667,142.551331 212.709335,142.151669 212.438,141.763 C212.166665,141.374331 211.701003,141.18 211.041,141.18 C210.571664,141.18 210.150002,141.341332 209.776,141.664 C209.401998,141.986668 209.134334,142.419331 208.973,142.962 Z M208.841,143.776 C208.708999,144.861339 208.881331,145.744997 209.358,146.427 C209.834669,147.109003 210.615661,147.45 211.701,147.45 C212.067669,147.45 212.485664,147.354668 212.955,147.164 C213.424336,146.973332 213.812998,146.731335 214.121,146.438 L214.517,146.922 C214.120998,147.347335 213.615003,147.695665 212.999,147.967 C212.382997,148.238335 211.767003,148.374 211.151,148.374 C209.962994,148.374 208.98767,147.981671 208.225,147.197 C207.46233,146.412329 207.081,145.455339 207.081,144.326 C207.081,143.196661 207.495329,142.243337 208.324,141.466 C209.152671,140.688663 210.094995,140.3 211.151,140.3 C212.148338,140.3 212.96233,140.64833 213.593,141.345 C214.22367,142.04167 214.407001,142.851995 214.143,143.776 L208.841,143.776 Z M219.445,141.884 C220.281004,140.827995 221.300327,140.3 222.503,140.3 C223.456338,140.3 224.171331,140.600664 224.648,141.202 C225.124669,141.803336 225.363,142.595328 225.363,143.578 L225.363,144.964 C225.363,146.064006 225.469332,146.767998 225.682,147.076 C225.894668,147.384002 226.367663,147.538 227.101,147.538 L227.101,148 L222.063,148 L222.063,147.538 C222.78167,147.538 223.250999,147.380335 223.471,147.065 C223.691001,146.749665 223.801,146.049339 223.801,144.964 L223.801,143.688 C223.801,142.118659 223.192339,141.334 221.975,141.334 C221.34433,141.334 220.765003,141.553998 220.237,141.994 C219.708997,142.434002 219.445,142.94733 219.445,143.534 L219.445,144.964 C219.445,146.093339 219.532999,146.804665 219.709,147.098 C219.885001,147.391335 220.31033,147.538 220.985,147.538 L220.985,148 L216.145,148 L216.145,147.538 C216.878337,147.538 217.351332,147.384002 217.564,147.076 C217.776668,146.767998 217.883,146.064006 217.883,144.964 L217.883,143.864 C217.883,142.778661 217.776668,142.082002 217.564,141.774 C217.351332,141.465998 216.878337,141.312 216.145,141.312 L216.145,140.85 L219.071,140.3 C219.203001,140.578668 219.327666,141.106663 219.445,141.884 Z M229.279,141.444 L228.135,141.444 L228.135,140.916 C228.76567,140.783999 229.227665,140.498002 229.521,140.058 C229.814335,139.617998 230.005,139.01667 230.093,138.254 L230.841,138.254 L230.841,140.674 L232.755,140.674 L232.755,141.444 L230.841,141.444 L230.841,145.844 C230.841,146.900005 231.170997,147.428 231.831,147.428 C232.256335,147.428 232.732997,147.178669 233.261,146.68 L233.635,147.054 C233.326998,147.420669 232.956669,147.721332 232.524,147.956 C232.091331,148.190668 231.691668,148.308 231.325,148.308 C230.69433,148.308 230.195669,148.102669 229.829,147.692 C229.462332,147.281331 229.279,146.665337 229.279,145.844 L229.279,141.444 Z M252.731,147.758 L252.291,147.758 C252.173666,147.185997 251.924335,146.768001 251.543,146.504 C250.340327,147.750673 248.976341,148.374 247.451,148.374 C245.588324,148.374 243.997007,147.692007 242.677,146.328 C241.356993,144.963993 240.697,143.321343 240.697,141.4 C240.697,139.478657 241.356993,137.836007 242.677,136.472 C243.997007,135.107993 245.588324,134.426 247.451,134.426 C249.005674,134.426 250.369661,135.049327 251.543,136.296 C251.939002,135.987998 252.188333,135.570003 252.291,135.042 L252.731,135.042 L252.731,139.882 L252.291,139.882 C251.982998,138.429993 251.414671,137.300671 250.586,136.494 C249.757329,135.687329 248.741673,135.284 247.539,135.284 C246.702996,135.284 245.962337,135.470998 245.317,135.845 C244.671663,136.219002 244.169335,136.713997 243.81,137.33 C243.450665,137.946003 243.183001,138.598663 243.007,139.288 C242.830999,139.977337 242.743,140.68133 242.743,141.4 C242.743,142.11867 242.830999,142.822663 243.007,143.512 C243.183001,144.201337 243.450665,144.85033 243.81,145.459 C244.169335,146.06767 244.671663,146.558998 245.317,146.933 C245.962337,147.307002 246.702996,147.494 247.539,147.494 C248.741673,147.494 249.757329,147.087004 250.586,146.273 C251.414671,145.458996 251.982998,144.340674 252.291,142.918 L252.731,142.918 L252.731,147.758 Z M262.983,141.488 C263.863004,142.265337 264.303,143.211328 264.303,144.326 C264.303,145.440672 263.866671,146.393996 262.994,147.186 C262.121329,147.978004 261.076339,148.374 259.859,148.374 C258.641661,148.374 257.596671,147.978004 256.724,147.186 C255.851329,146.393996 255.415,145.440672 255.415,144.326 C255.415,143.211328 255.851329,142.261671 256.724,141.477 C257.596671,140.692329 258.641661,140.3 259.859,140.3 C261.076339,140.3 262.117662,140.695996 262.983,141.488 Z M261.839,146.636 C262.293669,146.034664 262.521,145.264671 262.521,144.326 C262.521,143.387329 262.293669,142.621003 261.839,142.027 C261.384331,141.432997 260.724338,141.136 259.859,141.136 C258.993662,141.136 258.333669,141.436664 257.879,142.038 C257.424331,142.639336 257.197,143.401995 257.197,144.326 C257.197,145.250005 257.424331,146.012664 257.879,146.614 C258.333669,147.215336 258.993662,147.516 259.859,147.516 C260.724338,147.516 261.384331,147.22267 261.839,146.636 Z M269.495,141.884 C270.331004,140.827995 271.350327,140.3 272.553,140.3 C273.506338,140.3 274.221331,140.600664 274.698,141.202 C275.174669,141.803336 275.413,142.595328 275.413,143.578 L275.413,144.964 C275.413,146.064006 275.519332,146.767998 275.732,147.076 C275.944668,147.384002 276.417663,147.538 277.151,147.538 L277.151,148 L272.113,148 L272.113,147.538 C272.83167,147.538 273.300999,147.380335 273.521,147.065 C273.741001,146.749665 273.851,146.049339 273.851,144.964 L273.851,143.688 C273.851,142.118659 273.242339,141.334 272.025,141.334 C271.39433,141.334 270.815003,141.553998 270.287,141.994 C269.758997,142.434002 269.495,142.94733 269.495,143.534 L269.495,144.964 C269.495,146.093339 269.582999,146.804665 269.759,147.098 C269.935001,147.391335 270.36033,147.538 271.035,147.538 L271.035,148 L266.195,148 L266.195,147.538 C266.928337,147.538 267.401332,147.384002 267.614,147.076 C267.826668,146.767998 267.933,146.064006 267.933,144.964 L267.933,143.864 C267.933,142.778661 267.826668,142.082002 267.614,141.774 C267.401332,141.465998 266.928337,141.312 266.195,141.312 L266.195,140.85 L269.121,140.3 C269.253001,140.578668 269.377666,141.106663 269.495,141.884 Z M279.329,141.444 L278.185,141.444 L278.185,140.916 C278.81567,140.783999 279.277665,140.498002 279.571,140.058 C279.864335,139.617998 280.055,139.01667 280.143,138.254 L280.891,138.254 L280.891,140.674 L282.805,140.674 L282.805,141.444 L280.891,141.444 L280.891,145.844 C280.891,146.900005 281.220997,147.428 281.881,147.428 C282.306335,147.428 282.782997,147.178669 283.311,146.68 L283.685,147.054 C283.376998,147.420669 283.006669,147.721332 282.574,147.956 C282.141331,148.190668 281.741669,148.308 281.375,148.308 C280.74433,148.308 280.245669,148.102669 279.879,147.692 C279.512332,147.281331 279.329,146.665337 279.329,145.844 L279.329,141.444 Z M292.243,141.664 C292.243,142.353337 291.94967,142.698 291.363,142.698 C291.157666,142.698 290.978001,142.617334 290.824,142.456 C290.669999,142.294666 290.593,142.111334 290.593,141.906 C290.593,141.421998 290.358336,141.18 289.889,141.18 C289.551665,141.18 289.185002,141.414664 288.789,141.884 C288.392998,142.353336 288.195,142.976663 288.195,143.754 L288.195,144.964 C288.195,146.064006 288.301332,146.767998 288.514,147.076 C288.726668,147.384002 289.199663,147.538 289.933,147.538 L289.933,148 L284.895,148 L284.895,147.538 C285.628337,147.538 286.101332,147.384002 286.314,147.076 C286.526668,146.767998 286.633,146.064006 286.633,144.964 L286.633,143.864 C286.633,142.778661 286.526668,142.082002 286.314,141.774 C286.101332,141.465998 285.628337,141.312 284.895,141.312 L284.895,140.85 L287.821,140.3 C287.953001,140.578668 288.077666,141.106663 288.195,141.884 C288.415001,141.443998 288.744998,141.070002 289.185,140.762 C289.625002,140.453998 290.064998,140.3 290.505,140.3 C291.062336,140.3 291.491332,140.446665 291.792,140.74 C292.092668,141.033335 292.243,141.341332 292.243,141.664 Z M301.329,141.488 C302.209004,142.265337 302.649,143.211328 302.649,144.326 C302.649,145.440672 302.212671,146.393996 301.34,147.186 C300.467329,147.978004 299.422339,148.374 298.205,148.374 C296.987661,148.374 295.942671,147.978004 295.07,147.186 C294.197329,146.393996 293.761,145.440672 293.761,144.326 C293.761,143.211328 294.197329,142.261671 295.07,141.477 C295.942671,140.692329 296.987661,140.3 298.205,140.3 C299.422339,140.3 300.463662,140.695996 301.329,141.488 Z M300.185,146.636 C300.639669,146.034664 300.867,145.264671 300.867,144.326 C300.867,143.387329 300.639669,142.621003 300.185,142.027 C299.730331,141.432997 299.070338,141.136 298.205,141.136 C297.339662,141.136 296.679669,141.436664 296.225,142.038 C295.770331,142.639336 295.543,143.401995 295.543,144.326 C295.543,145.250005 295.770331,146.012664 296.225,146.614 C296.679669,147.215336 297.339662,147.516 298.205,147.516 C299.070338,147.516 299.730331,147.22267 300.185,146.636 Z M309.161,148 L304.123,148 L304.123,147.538 C304.856337,147.538 305.329332,147.384002 305.542,147.076 C305.754668,146.767998 305.861,146.064006 305.861,144.964 L305.861,138.012 C305.861,136.911994 305.754668,136.208002 305.542,135.9 C305.329332,135.591998 304.856337,135.438 304.123,135.438 L304.123,134.976 L307.423,134.426 L307.423,144.964 C307.423,146.064006 307.529332,146.767998 307.742,147.076 C307.954668,147.384002 308.427663,147.538 309.161,147.538 L309.161,148 Z" id="Narrow-Band-of-Curre-Copy" fill="#84705B"></path>
            </g>
            <g id="Graph-Lines" transform="translate(0.000000, 34.000000)">
                <rect id="Rectangle" fill="#CAEBF8" x="256" y="138" width="30" height="40"></rect>
                <path d="M213.352001,178.5 L439,178.5" id="Line-5" stroke="#3D3530" stroke-width="3" stroke-linecap="square"></path>
                <path d="M432.444444,156.444444 L432.444444,148 L434.555556,148 L434.555556,156.444444 L443,156.444444 L443,158.555556 L434.555556,158.555556 L434.555556,167 L432.444444,167 L432.444444,158.555556 L424,158.555556 L424,156.444444 L432.444444,156.444444 Z" id="Combined-Shape" fill="#23ABE3"></path>
                <path d="M213.352001,0.5 L213.352001,233.912015" id="Line-6" stroke="#3D3530" stroke-width="3" stroke-linecap="square"></path>
                <path d="M256,139 L256,195.577368" id="Line-7" stroke="#23ABE3" stroke-width="2" stroke-linecap="square"></path>
                <path d="M286,139 L286,195.577368" id="Line-7-Copy" stroke="#23ABE3" stroke-width="2" stroke-linecap="square"></path>
                <path d="M301.933386,0.5 C301.321483,38.6660098 298.736833,70.1404484 294.850161,95.4013237 C286.211012,151.55026 271.138998,177 257,177 C236.5,177 225.482714,177 212.982714,177" id="Path-9" stroke="#EF7D3B" stroke-width="3"></path>
            </g>
            <path id="Line-8" d="M284.299914,165.640597 L312.828088,139.759369 L313.568718,139.087457 L314.912543,140.568718 L314.171912,141.240631 L285.643739,167.121858 L289.675213,171.565642 L274.602997,175.788 L280.26844,161.196813 L284.299914,165.640597 Z" fill="#84705B" fill-rule="nonzero"></path>
        </g>
        <path d="M298.596,347 L298.596,322.808 L304.068,322.808 C308.05202,322.808 311.219988,323.959988 313.572,326.264 C315.924012,328.568012 317.1,331.447983 317.1,334.904 C317.1,338.336017 315.918012,341.209988 313.554,343.526 C311.189988,345.842012 308.02802,347 304.068,347 L298.596,347 Z M300.972,344.732 L304.068,344.732 C307.236016,344.732 309.767991,343.802009 311.664,341.942 C313.560009,340.081991 314.508,337.736014 314.508,334.904 C314.508,332.071986 313.560009,329.726009 311.664,327.866 C309.767991,326.005991 307.236016,325.076 304.068,325.076 L300.972,325.076 L300.972,344.732 Z M324.76,323.6 C324.495999,323.888001 324.160002,324.032 323.752,324.032 C323.343998,324.032 323.002001,323.888001 322.726,323.6 C322.449999,323.311999 322.312,322.976002 322.312,322.592 C322.312,322.207998 322.449999,321.872001 322.726,321.584 C323.002001,321.295999 323.343998,321.152 323.752,321.152 C324.160002,321.152 324.501999,321.295999 324.778,321.584 C325.054001,321.872001 325.192,322.207998 325.192,322.592 C325.192,322.976002 325.048001,323.311999 324.76,323.6 Z M322.564,347 L322.564,329 L324.94,329 L324.94,347 L322.564,347 Z M345.992,344.552 C344.191991,346.376009 342.008013,347.288 339.44,347.288 C336.871987,347.288 334.682009,346.382009 332.87,344.57 C331.057991,342.757991 330.152,340.568013 330.152,338 C330.152,335.431987 331.057991,333.242009 332.87,331.43 C334.682009,329.617991 336.871987,328.712 339.44,328.712 C342.008013,328.712 344.197991,329.617991 346.01,331.43 C347.822009,333.242009 348.728,335.431987 348.728,338 C348.728,340.544013 347.816009,342.727991 345.992,344.552 Z M339.476,345.02 C341.42001,345.02 343.057993,344.342007 344.39,342.986 C345.722007,341.629993 346.388,339.96801 346.388,338 C346.388,336.03199 345.722007,334.364007 344.39,332.996 C343.057993,331.627993 341.42001,330.944 339.476,330.944 C337.55599,330.944 335.924007,331.627993 334.58,332.996 C333.235993,334.364007 332.564,336.03199 332.564,338 C332.564,339.96801 333.235993,341.629993 334.58,342.986 C335.924007,344.342007 337.55599,345.02 339.476,345.02 Z M368.664,320.216 L371.04,320.216 L371.04,347 L368.664,347 L368.664,344.084 C366.815991,346.220011 364.476014,347.288 361.644,347.288 C359.075987,347.288 356.886009,346.382009 355.074,344.57 C353.261991,342.757991 352.356,340.568013 352.356,338 C352.356,335.431987 353.261991,333.242009 355.074,331.43 C356.886009,329.617991 359.075987,328.712 361.644,328.712 C364.500014,328.712 366.839991,329.779989 368.664,331.916 L368.664,320.216 Z M356.748,343.004 C358.092007,344.348007 359.73599,345.02 361.68,345.02 C363.62401,345.02 365.261993,344.342007 366.594,342.986 C367.926007,341.629993 368.592,339.96801 368.592,338 C368.592,336.03199 367.926007,334.370007 366.594,333.014 C365.261993,331.657993 363.62401,330.98 361.68,330.98 C359.73599,330.98 358.092007,331.657993 356.748,333.014 C355.403993,334.370007 354.732,336.03199 354.732,338 C354.732,339.96801 355.403993,341.635993 356.748,343.004 Z M385.18,344.912 C386.788008,344.912 388.227994,344.456005 389.5,343.544 C390.772006,342.631995 391.635998,341.564006 392.092,340.34 L394.108,341.06 C393.555997,342.572008 392.482008,343.963994 390.886,345.236 C389.289992,346.508006 387.388011,347.132 385.18,347.108 C383.16399,347.108 381.322008,346.484006 379.654,345.236 C377.985992,343.987994 376.852003,342.39201 376.252,340.448 C376.011999,339.655996 375.892,338.792005 375.892,337.856 C375.892,335.263987 376.791991,333.068009 378.592,331.268 C380.392009,329.467991 382.587987,328.556 385.18,328.532 C387.532012,328.556 389.583991,329.347992 391.336,330.908 C393.088009,332.468008 394.095999,334.399988 394.36,336.704 C394.384,336.824001 394.396,336.979999 394.396,337.172 L378.664,340.016 C379.072002,341.456007 379.887994,342.637995 381.112,343.562 C382.336006,344.486005 383.691993,344.936 385.18,344.912 Z M384.964,330.728 C383.163991,330.752 381.622006,331.399994 380.338,332.672 C379.053994,333.944006 378.364,335.467991 378.268,337.244 C378.268,337.316 378.274,337.441999 378.286,337.622 C378.298,337.802001 378.304,337.951999 378.304,338.072 L391.696,335.66 C391.239998,334.195993 390.388006,333.002005 389.14,332.078 C387.891994,331.153995 386.500008,330.704 384.964,330.728 Z M423.9,325.184 L412.884,325.184 L412.884,333.752 L420.48,333.752 L420.48,336.128 L412.884,336.128 L412.884,347 L410.508,347 L410.508,322.808 L423.9,322.808 L423.9,325.184 Z M440.56,344.552 C438.759991,346.376009 436.576013,347.288 434.008,347.288 C431.439987,347.288 429.250009,346.382009 427.438,344.57 C425.625991,342.757991 424.72,340.568013 424.72,338 C424.72,335.431987 425.625991,333.242009 427.438,331.43 C429.250009,329.617991 431.439987,328.712 434.008,328.712 C436.576013,328.712 438.765991,329.617991 440.578,331.43 C442.390009,333.242009 443.296,335.431987 443.296,338 C443.296,340.544013 442.384009,342.727991 440.56,344.552 Z M434.044,345.02 C435.98801,345.02 437.625993,344.342007 438.958,342.986 C440.290007,341.629993 440.956,339.96801 440.956,338 C440.956,336.03199 440.290007,334.364007 438.958,332.996 C437.625993,331.627993 435.98801,330.944 434.044,330.944 C432.12399,330.944 430.492007,331.627993 429.148,332.996 C427.803993,334.364007 427.132,336.03199 427.132,338 C427.132,339.96801 427.803993,341.629993 429.148,342.986 C430.492007,344.342007 432.12399,345.02 434.044,345.02 Z M455.996,328.712 C457.268006,328.712 458.431995,329.023997 459.488,329.648 L458.66,332.024 C457.651995,331.279996 456.632005,330.908 455.6,330.908 C454.087992,330.908 452.816005,331.441995 451.784,332.51 C450.751995,333.578005 450.236,334.891992 450.236,336.452 L450.236,347 L447.86,347 L447.86,329 L450.236,329 L450.236,331.664 C451.700007,329.69599 453.619988,328.712 455.996,328.712 Z M487.452,329 L489.828,329 L483.456,347 L481.08,347 L476.004,332.168 L470.928,347 L468.552,347 L462.216,329 L464.592,329 L469.74,343.652 L474.924,329 L477.084,329 L482.268,343.652 L487.452,329 Z M508.324,329 L510.7,329 L510.7,347 L508.324,347 L508.324,344.084 C506.475991,346.220011 504.136014,347.288 501.304,347.288 C498.735987,347.288 496.546009,346.382009 494.734,344.57 C492.921991,342.757991 492.016,340.568013 492.016,338 C492.016,335.431987 492.921991,333.242009 494.734,331.43 C496.546009,329.617991 498.735987,328.712 501.304,328.712 C504.160014,328.712 506.499991,329.779989 508.324,331.916 L508.324,329 Z M501.34,345.02 C503.28401,345.02 504.921993,344.342007 506.254,342.986 C507.586007,341.629993 508.252,339.96801 508.252,338 C508.252,336.03199 507.586007,334.370007 506.254,333.014 C504.921993,331.657993 503.28401,330.98 501.34,330.98 C499.41999,330.98 497.782007,331.657993 496.426,333.014 C495.069993,334.370007 494.392,336.03199 494.392,338 C494.392,339.96801 495.069993,341.629993 496.426,342.986 C497.782007,344.342007 499.41999,345.02 501.34,345.02 Z M524.696,328.712 C525.968006,328.712 527.131995,329.023997 528.188,329.648 L527.36,332.024 C526.351995,331.279996 525.332005,330.908 524.3,330.908 C522.787992,330.908 521.516005,331.441995 520.484,332.51 C519.451995,333.578005 518.936,334.891992 518.936,336.452 L518.936,347 L516.56,347 L516.56,329 L518.936,329 L518.936,331.664 C520.400007,329.69599 522.319988,328.712 524.696,328.712 Z M546.18,320.216 L548.556,320.216 L548.556,347 L546.18,347 L546.18,344.084 C544.331991,346.220011 541.992014,347.288 539.16,347.288 C536.591987,347.288 534.402009,346.382009 532.59,344.57 C530.777991,342.757991 529.872,340.568013 529.872,338 C529.872,335.431987 530.777991,333.242009 532.59,331.43 C534.402009,329.617991 536.591987,328.712 539.16,328.712 C542.016014,328.712 544.355991,329.779989 546.18,331.916 L546.18,320.216 Z M534.264,343.004 C535.608007,344.348007 537.25199,345.02 539.196,345.02 C541.14001,345.02 542.777993,344.342007 544.11,342.986 C545.442007,341.629993 546.108,339.96801 546.108,338 C546.108,336.03199 545.442007,334.370007 544.11,333.014 C542.777993,331.657993 541.14001,330.98 539.196,330.98 C537.25199,330.98 535.608007,331.657993 534.264,333.014 C532.919993,334.370007 532.248,336.03199 532.248,338 C532.248,339.96801 532.919993,341.635993 534.264,343.004 Z M583.388,322.808 L585.8,322.808 L576.26,347 L573.848,347 L564.272,322.808 L566.72,322.808 L575.072,343.94 L583.388,322.808 Z M601.848,344.552 C600.047991,346.376009 597.864013,347.288 595.296,347.288 C592.727987,347.288 590.538009,346.382009 588.726,344.57 C586.913991,342.757991 586.008,340.568013 586.008,338 C586.008,335.431987 586.913991,333.242009 588.726,331.43 C590.538009,329.617991 592.727987,328.712 595.296,328.712 C597.864013,328.712 600.053991,329.617991 601.866,331.43 C603.678009,333.242009 604.584,335.431987 604.584,338 C604.584,340.544013 603.672009,342.727991 601.848,344.552 Z M595.332,345.02 C597.27601,345.02 598.913993,344.342007 600.246,342.986 C601.578007,341.629993 602.244,339.96801 602.244,338 C602.244,336.03199 601.578007,334.364007 600.246,332.996 C598.913993,331.627993 597.27601,330.944 595.332,330.944 C593.41199,330.944 591.780007,331.627993 590.436,332.996 C589.091993,334.364007 588.42,336.03199 588.42,338 C588.42,339.96801 589.091993,341.629993 590.436,342.986 C591.780007,344.342007 593.41199,345.02 595.332,345.02 Z M609.508,347 L609.508,320.216 L611.884,320.216 L611.884,347 L609.508,347 Z M628.112,342.968 L629.3,344.804 C629.155999,344.996001 628.964001,345.223999 628.724,345.488 C628.483999,345.752001 627.944004,346.117998 627.104,346.586 C626.263996,347.054002 625.400004,347.288 624.512,347.288 C622.999992,347.288 621.734005,346.838005 620.714,345.938 C619.693995,345.037996 619.184,343.736009 619.184,342.032 L619.184,331.16 L616.304,331.16 L616.304,328.964 L619.184,328.964 L619.184,323.276 L621.56,322.988 L621.56,328.964 L626.996,328.964 L626.996,331.16 L621.56,331.16 L621.56,341.492 C621.56,342.596006 621.901997,343.471997 622.586,344.12 C623.270003,344.768003 624.055996,345.092 624.944,345.092 C625.496003,345.092 626.035997,344.924002 626.564,344.588 C627.092003,344.251998 627.481999,343.922002 627.734,343.598 C627.986001,343.273998 628.112,343.064 628.112,342.968 Z M647.796,329 L650.172,329 L650.172,347 L647.796,347 L647.796,344.084 C645.947991,346.220011 643.608014,347.288 640.776,347.288 C638.207987,347.288 636.018009,346.382009 634.206,344.57 C632.393991,342.757991 631.488,340.568013 631.488,338 C631.488,335.431987 632.393991,333.242009 634.206,331.43 C636.018009,329.617991 638.207987,328.712 640.776,328.712 C643.632014,328.712 645.971991,329.779989 647.796,331.916 L647.796,329 Z M640.812,345.02 C642.75601,345.02 644.393993,344.342007 645.726,342.986 C647.058007,341.629993 647.724,339.96801 647.724,338 C647.724,336.03199 647.058007,334.370007 645.726,333.014 C644.393993,331.657993 642.75601,330.98 640.812,330.98 C638.89199,330.98 637.254007,331.657993 635.898,333.014 C634.541993,334.370007 633.864,336.03199 633.864,338 C633.864,339.96801 634.541993,341.629993 635.898,342.986 C637.254007,344.342007 638.89199,345.02 640.812,345.02 Z M671.368,329.036 L673.78,329.036 L673.78,345.452 C673.756,348.068013 672.814009,350.257991 670.954,352.022 C669.093991,353.786009 666.940012,354.668 664.492,354.668 C662.259989,354.668 660.358008,354.074006 658.786,352.886 C657.213992,351.697994 656.152003,350.360007 655.6,348.872 L657.544,347.9 C658.000002,349.124006 658.863994,350.191995 660.136,351.104 C661.408006,352.016005 662.859992,352.472 664.492,352.472 C666.41201,352.472 668.037993,351.770007 669.37,350.366 C670.702007,348.961993 671.38,347.324009 671.404,345.452 L671.368,345.452 L671.368,344.12 C669.543991,346.256011 667.204014,347.324 664.348,347.324 C661.779987,347.324 659.590009,346.418009 657.778,344.606 C655.965991,342.793991 655.06,340.604013 655.06,338.036 C655.06,335.467987 655.965991,333.278009 657.778,331.466 C659.590009,329.653991 661.779987,328.748 664.348,328.748 C667.180014,328.748 669.519991,329.815989 671.368,331.952 L671.368,329.036 Z M664.384,345.092 C666.32801,345.092 667.965993,344.414007 669.298,343.058 C670.630007,341.701993 671.296,340.04001 671.296,338.072 C671.296,336.10399 670.630007,334.442007 669.298,333.086 C667.965993,331.729993 666.32801,331.052 664.384,331.052 C662.46399,331.052 660.832007,331.729993 659.488,333.086 C658.143993,334.442007 657.472,336.10399 657.472,338.072 C657.472,340.04001 658.143993,341.701993 659.488,343.058 C660.832007,344.414007 662.46399,345.092 664.384,345.092 Z M687.992,344.912 C689.600008,344.912 691.039994,344.456005 692.312,343.544 C693.584006,342.631995 694.447998,341.564006 694.904,340.34 L696.92,341.06 C696.367997,342.572008 695.294008,343.963994 693.698,345.236 C692.101992,346.508006 690.200011,347.132 687.992,347.108 C685.97599,347.108 684.134008,346.484006 682.466,345.236 C680.797992,343.987994 679.664003,342.39201 679.064,340.448 C678.823999,339.655996 678.704,338.792005 678.704,337.856 C678.704,335.263987 679.603991,333.068009 681.404,331.268 C683.204009,329.467991 685.399987,328.556 687.992,328.532 C690.344012,328.556 692.395991,329.347992 694.148,330.908 C695.900009,332.468008 696.907999,334.399988 697.172,336.704 C697.196,336.824001 697.208,336.979999 697.208,337.172 L681.476,340.016 C681.884002,341.456007 682.699994,342.637995 683.924,343.562 C685.148006,344.486005 686.503993,344.936 687.992,344.912 Z M687.776,330.728 C685.975991,330.752 684.434006,331.399994 683.15,332.672 C681.865994,333.944006 681.176,335.467991 681.08,337.244 C681.08,337.316 681.086,337.441999 681.098,337.622 C681.11,337.802001 681.116,337.951999 681.116,338.072 L694.508,335.66 C694.051998,334.195993 693.200006,333.002005 691.952,332.078 C690.703994,331.153995 689.312008,330.704 687.776,330.728 Z M713.32,347 L713.32,322.808 L721.528,322.808 C724.240014,322.808 726.399992,323.521993 728.008,324.95 C729.616008,326.378007 730.42,328.171989 730.42,330.332 C730.42,331.940008 729.946005,333.367994 728.998,334.616 C728.049995,335.864006 726.724009,336.751997 725.02,337.28 L730.42,347 L727.936,347 L722.788,337.784 L721.312,337.856 L715.696,337.856 L715.696,347 L713.32,347 Z M715.696,335.588 L721.528,335.588 C723.47201,335.588 725.031994,335.090005 726.208,334.094 C727.384006,333.097995 727.972,331.844008 727.972,330.332 C727.972,328.843993 727.384006,327.596005 726.208,326.588 C725.031994,325.579995 723.47201,325.076 721.528,325.076 L715.696,325.076 L715.696,335.588 Z M743.084,344.912 C744.692008,344.912 746.131994,344.456005 747.404,343.544 C748.676006,342.631995 749.539998,341.564006 749.996,340.34 L752.012,341.06 C751.459997,342.572008 750.386008,343.963994 748.79,345.236 C747.193992,346.508006 745.292011,347.132 743.084,347.108 C741.06799,347.108 739.226008,346.484006 737.558,345.236 C735.889992,343.987994 734.756003,342.39201 734.156,340.448 C733.915999,339.655996 733.796,338.792005 733.796,337.856 C733.796,335.263987 734.695991,333.068009 736.496,331.268 C738.296009,329.467991 740.491987,328.556 743.084,328.532 C745.436012,328.556 747.487991,329.347992 749.24,330.908 C750.992009,332.468008 751.999999,334.399988 752.264,336.704 C752.288,336.824001 752.3,336.979999 752.3,337.172 L736.568,340.016 C736.976002,341.456007 737.791994,342.637995 739.016,343.562 C740.240006,344.486005 741.595993,344.936 743.084,344.912 Z M742.868,330.728 C741.067991,330.752 739.526006,331.399994 738.242,332.672 C736.957994,333.944006 736.268,335.467991 736.172,337.244 C736.172,337.316 736.178,337.441999 736.19,337.622 C736.202,337.802001 736.208,337.951999 736.208,338.072 L749.6,335.66 C749.143998,334.195993 748.292006,333.002005 747.044,332.078 C745.795994,331.153995 744.404008,330.704 742.868,330.728 Z M762.984,347.288 C762.167996,347.288 761.376004,347.186001 760.608,346.982 C759.839996,346.777999 759.198003,346.538001 758.682,346.262 C758.165997,345.985999 757.704002,345.704001 757.296,345.416 C756.887998,345.127999 756.588001,344.888001 756.396,344.696 L756.108,344.372 L757.8,342.932 C757.968001,343.100001 758.201998,343.303999 758.502,343.544 C758.802001,343.784001 759.407995,344.107998 760.32,344.516 C761.232005,344.924002 762.131996,345.128 763.02,345.128 C764.340007,345.128 765.395996,344.876003 766.188,344.372 C766.980004,343.867997 767.376,343.160005 767.376,342.248 C767.376,341.599997 766.980004,341.042002 766.188,340.574 C765.395996,340.105998 764.436006,339.704002 763.308,339.368 C762.179994,339.031998 761.046006,338.660002 759.906,338.252 C758.765994,337.843998 757.800004,337.268004 757.008,336.524 C756.215996,335.779996 755.82,334.868005 755.82,333.788 C755.82,332.299993 756.377994,331.082005 757.494,330.134 C758.610006,329.185995 760.259989,328.712 762.444,328.712 C763.740006,328.712 764.963994,328.951998 766.116,329.432 C767.268006,329.912002 768.095997,330.391998 768.6,330.872 L769.356,331.592 L767.664,333.068 C767.495999,332.899999 767.262001,332.696001 766.962,332.456 C766.661998,332.215999 766.056005,331.892002 765.144,331.484 C764.231995,331.075998 763.320005,330.872 762.408,330.872 C761.111994,330.872 760.062004,331.123997 759.258,331.628 C758.453996,332.132003 758.052,332.839995 758.052,333.752 C758.052,334.400003 758.447996,334.957998 759.24,335.426 C760.032004,335.894002 760.991994,336.295998 762.12,336.632 C763.248006,336.968002 764.381994,337.333998 765.522,337.73 C766.662006,338.126002 767.627996,338.701996 768.42,339.458 C769.212004,340.214004 769.608,341.131995 769.608,342.212 C769.608,343.724008 769.056006,344.947995 767.952,345.884 C766.847994,346.820005 765.192011,347.288 762.984,347.288 Z M784.144,328.676 C786.712013,328.676 788.901991,329.581991 790.714,331.394 C792.526009,333.206009 793.432,335.395987 793.432,337.964 C793.432,340.532013 792.526009,342.721991 790.714,344.534 C788.901991,346.346009 786.712013,347.252 784.144,347.252 C781.263986,347.252 778.912009,346.160011 777.088,343.976 L777.088,355.748 L774.712,355.748 L774.712,328.964 L777.088,328.964 L777.088,331.916 C778.936009,329.755989 781.287986,328.676 784.144,328.676 Z M779.176,342.968 C780.520007,344.312007 782.15199,344.984 784.072,344.984 C785.99201,344.984 787.629993,344.306007 788.986,342.95 C790.342007,341.593993 791.02,339.93201 791.02,337.964 C791.02,335.99599 790.342007,334.328007 788.986,332.96 C787.629993,331.591993 785.99201,330.908 784.072,330.908 C782.15199,330.908 780.520007,331.591993 779.176,332.96 C777.831993,334.328007 777.16,335.99599 777.16,337.964 C777.16,339.93201 777.831993,341.599993 779.176,342.968 Z M812.9,344.552 C811.099991,346.376009 808.916013,347.288 806.348,347.288 C803.779987,347.288 801.590009,346.382009 799.778,344.57 C797.965991,342.757991 797.06,340.568013 797.06,338 C797.06,335.431987 797.965991,333.242009 799.778,331.43 C801.590009,329.617991 803.779987,328.712 806.348,328.712 C808.916013,328.712 811.105991,329.617991 812.918,331.43 C814.730009,333.242009 815.636,335.431987 815.636,338 C815.636,340.544013 814.724009,342.727991 812.9,344.552 Z M806.384,345.02 C808.32801,345.02 809.965993,344.342007 811.298,342.986 C812.630007,341.629993 813.296,339.96801 813.296,338 C813.296,336.03199 812.630007,334.364007 811.298,332.996 C809.965993,331.627993 808.32801,330.944 806.384,330.944 C804.46399,330.944 802.832007,331.627993 801.488,332.996 C800.143993,334.364007 799.472,336.03199 799.472,338 C799.472,339.96801 800.143993,341.629993 801.488,342.986 C802.832007,344.342007 804.46399,345.02 806.384,345.02 Z M828.336,328.712 C830.42401,328.712 832.175993,329.449993 833.592,330.926 C835.008007,332.402007 835.716,334.219989 835.716,336.38 L835.716,347 L833.304,347 L833.304,336.452 C833.304,334.915992 832.782005,333.608005 831.738,332.528 C830.693995,331.447995 829.428007,330.908 827.94,330.908 C826.451993,330.908 825.186005,331.447995 824.142,332.528 C823.097995,333.608005 822.576,334.915992 822.576,336.452 L822.576,347 L820.2,347 L820.2,329 L822.576,329 L822.576,331.664 C824.040007,329.69599 825.959988,328.712 828.336,328.712 Z M847.588,347.288 C846.771996,347.288 845.980004,347.186001 845.212,346.982 C844.443996,346.777999 843.802003,346.538001 843.286,346.262 C842.769997,345.985999 842.308002,345.704001 841.9,345.416 C841.491998,345.127999 841.192001,344.888001 841,344.696 L840.712,344.372 L842.404,342.932 C842.572001,343.100001 842.805998,343.303999 843.106,343.544 C843.406001,343.784001 844.011995,344.107998 844.924,344.516 C845.836005,344.924002 846.735996,345.128 847.624,345.128 C848.944007,345.128 849.999996,344.876003 850.792,344.372 C851.584004,343.867997 851.98,343.160005 851.98,342.248 C851.98,341.599997 851.584004,341.042002 850.792,340.574 C849.999996,340.105998 849.040006,339.704002 847.912,339.368 C846.783994,339.031998 845.650006,338.660002 844.51,338.252 C843.369994,337.843998 842.404004,337.268004 841.612,336.524 C840.819996,335.779996 840.424,334.868005 840.424,333.788 C840.424,332.299993 840.981994,331.082005 842.098,330.134 C843.214006,329.185995 844.863989,328.712 847.048,328.712 C848.344006,328.712 849.567994,328.951998 850.72,329.432 C851.872006,329.912002 852.699997,330.391998 853.204,330.872 L853.96,331.592 L852.268,333.068 C852.099999,332.899999 851.866001,332.696001 851.566,332.456 C851.265998,332.215999 850.660005,331.892002 849.748,331.484 C848.835995,331.075998 847.924005,330.872 847.012,330.872 C845.715994,330.872 844.666004,331.123997 843.862,331.628 C843.057996,332.132003 842.656,332.839995 842.656,333.752 C842.656,334.400003 843.051996,334.957998 843.844,335.426 C844.636004,335.894002 845.595994,336.295998 846.724,336.632 C847.852006,336.968002 848.985994,337.333998 850.126,337.73 C851.266006,338.126002 852.231996,338.701996 853.024,339.458 C853.816004,340.214004 854.212,341.131995 854.212,342.212 C854.212,343.724008 853.660006,344.947995 852.556,345.884 C851.451994,346.820005 849.796011,347.288 847.588,347.288 Z M867.056,344.912 C868.664008,344.912 870.103994,344.456005 871.376,343.544 C872.648006,342.631995 873.511998,341.564006 873.968,340.34 L875.984,341.06 C875.431997,342.572008 874.358008,343.963994 872.762,345.236 C871.165992,346.508006 869.264011,347.132 867.056,347.108 C865.03999,347.108 863.198008,346.484006 861.53,345.236 C859.861992,343.987994 858.728003,342.39201 858.128,340.448 C857.887999,339.655996 857.768,338.792005 857.768,337.856 C857.768,335.263987 858.667991,333.068009 860.468,331.268 C862.268009,329.467991 864.463987,328.556 867.056,328.532 C869.408012,328.556 871.459991,329.347992 873.212,330.908 C874.964009,332.468008 875.971999,334.399988 876.236,336.704 C876.26,336.824001 876.272,336.979999 876.272,337.172 L860.54,340.016 C860.948002,341.456007 861.763994,342.637995 862.988,343.562 C864.212006,344.486005 865.567993,344.936 867.056,344.912 Z M866.84,330.728 C865.039991,330.752 863.498006,331.399994 862.214,332.672 C860.929994,333.944006 860.24,335.467991 860.144,337.244 C860.144,337.316 860.15,337.441999 860.162,337.622 C860.174,337.802001 860.18,337.951999 860.18,338.072 L873.572,335.66 C873.115998,334.195993 872.264006,333.002005 871.016,332.078 C869.767994,331.153995 868.376008,330.704 866.84,330.728 Z" id="Diode-Forward-Voltag-Copy" fill="#23ABE3"></path>
        <rect id="Rectangle-Copy" stroke="#3D3530" stroke-width="2" x="1" y="307" width="898" height="62"></rect>
    </g>
</svg>