<?xml version="1.0" encoding="UTF-8"?>
<svg width="900px" height="290px" viewBox="0 0 900 290" version="1.1" xmlns="http://www.w3.org/2000/svg" xmlns:xlink="http://www.w3.org/1999/xlink">
    <!-- Generator: Sketch 52.5 (67469) - http://www.bohemiancoding.com/sketch -->
    <title>Diode</title>
    <desc>Created with Sketch.</desc>
    <g id="Diode" stroke="none" stroke-width="1" fill="none" fill-rule="evenodd">
        <rect id="Rectangle" stroke="#3D3530" stroke-width="2" fill="#EEEEEE" x="1" y="1" width="898" height="428"></rect>
        <g id="Illustration" transform="translate(93.000000, 26.000000)">
            <g id="Lattice-Junction" transform="translate(2.000000, 0.000000)">
                <g id="P-Type-Lattice" transform="translate(195.000000, 31.000000)">
                    <rect id="Rectangle" stroke="#999999" stroke-width="2" fill="#D4D4D4" x="1" y="1" width="158" height="158"></rect>
                    <circle id="Oval-Copy-3" fill="#252525" cx="20.5" cy="18.5" r="10.5"></circle>
                    <circle id="Oval-Copy-5" fill="#252525" cx="20.5" cy="58.5" r="10.5"></circle>
                    <circle id="Oval-Copy-6" fill="#252525" cx="20.5" cy="98.5" r="10.5"></circle>
                    <circle id="Oval-Copy-10" fill="#252525" cx="50.5" cy="38.5" r="10.5"></circle>
                    <circle id="Oval-Copy-8" fill="#252525" cx="50.5" cy="118.5" r="10.5"></circle>
                    <g id="Negative-Ion" transform="translate(100.000000, 28.000000)">
                        <circle id="Oval-Copy-26" fill="#84D0EF" cx="10.5" cy="10.5" r="10.5"></circle>
                        <rect id="Rectangle" fill="#524740" x="6" y="10" width="9" height="1"></rect>
                    </g>
                    <circle id="Oval-Copy-25" fill="#252525" cx="110.5" cy="78.5" r="10.5"></circle>
                    <circle id="Oval-Copy-24" fill="#252525" cx="110.5" cy="118.5" r="10.5"></circle>
                    <g id="Negative-Ion" transform="translate(40.000000, 68.000000)">
                        <circle id="Oval-Copy-9" fill="#84D0EF" cx="10.5" cy="10.5" r="10.5"></circle>
                        <rect id="Rectangle" fill="#524740" x="6" y="10" width="9" height="1"></rect>
                    </g>
                    <g id="Negative-Ion" transform="translate(10.000000, 128.000000)">
                        <circle id="Oval-Copy-7" fill="#84D0EF" cx="10.5" cy="10.5" r="10.5"></circle>
                        <rect id="Rectangle" fill="#524740" x="6" y="10" width="9" height="1"></rect>
                    </g>
                    <circle id="Oval-Copy-23" fill="#252525" cx="80.5" cy="18.5" r="10.5"></circle>
                    <circle id="Oval-Copy-22" fill="#252525" cx="80.5" cy="58.5" r="10.5"></circle>
                    <g id="Negative-Ion" transform="translate(70.000000, 88.000000)">
                        <circle id="Oval-Copy-21" fill="#84D0EF" cx="10.5" cy="10.5" r="10.5"></circle>
                        <rect id="Rectangle" fill="#524740" x="6" y="10" width="9" height="1"></rect>
                    </g>
                    <circle id="Oval-Copy-20" fill="#252525" cx="80.5" cy="138.5" r="10.5"></circle>
                    <circle id="Oval-Copy-30" fill="#252525" cx="140.5" cy="18.5" r="10.5"></circle>
                    <circle id="Oval-Copy-29" fill="#252525" cx="140.5" cy="58.5" r="10.5"></circle>
                    <circle id="Oval-Copy-28" fill="#252525" cx="140.5" cy="98.5" r="10.5"></circle>
                    <circle id="Oval-Copy-27" fill="#252525" cx="140.5" cy="138.5" r="10.5"></circle>
                    <g id="Little-Ones" transform="translate(4.000000, 23.000000)" fill="#84D0EF">
                        <circle id="Oval-Copy-31" cx="25.25" cy="53.25" r="3.25"></circle>
                        <circle id="Oval-Copy-32" cx="38.25" cy="32.25" r="3.25"></circle>
                        <circle id="Oval-Copy-33" cx="28.25" cy="4.25" r="3.25"></circle>
                        <circle id="Oval-Copy-34" cx="69.25" cy="12.25" r="3.25"></circle>
                        <circle id="Oval-Copy-35" cx="79.25" cy="52.25" r="3.25"></circle>
                        <circle id="Oval-Copy-36" cx="60.25" cy="73.25" r="3.25"></circle>
                        <circle id="Oval-Copy-37" cx="35.25" cy="84.25" r="3.25"></circle>
                        <circle id="Oval-Copy-38" cx="31.25" cy="126.25" r="3.25"></circle>
                        <circle id="Oval-Copy-39" cx="3.25" cy="93.25" r="3.25"></circle>
                        <circle id="Oval-Copy-40" cx="55.25" cy="111.25" r="3.25"></circle>
                        <circle id="Oval-Copy-42" cx="90.25" cy="92.25" r="3.25"></circle>
                        <circle id="Oval-Copy-43" cx="90.25" cy="122.25" r="3.25"></circle>
                        <circle id="Oval-Copy-49" cx="96.25" cy="3.25" r="3.25"></circle>
                    </g>
                </g>
                <g id="N-Type-Lattice" transform="translate(353.000000, 31.000000)">
                    <rect id="Rectangle" stroke="#999999" stroke-width="2" fill="#7D7570" x="1" y="1" width="158" height="158"></rect>
                    <circle id="Oval-Copy-3" fill="#252525" cx="20.5" cy="18.5" r="10.5"></circle>
                    <circle id="Oval-Copy-5" fill="#252525" cx="20.5" cy="58.5" r="10.5"></circle>
                    <circle id="Oval-Copy-6" fill="#252525" cx="20.5" cy="98.5" r="10.5"></circle>
                    <circle id="Oval-Copy-10" fill="#252525" cx="50.5" cy="38.5" r="10.5"></circle>
                    <g id="Positive-Ion" transform="translate(40.000000, 68.000000)">
                        <circle id="Oval-Copy-9" fill="#D7E465" cx="10.5" cy="10.5" r="10.5"></circle>
                        <path d="M10,10 L10,6 L11,6 L11,10 L15,10 L15,11 L11,11 L11,15 L10,15 L10,11 L6,11 L6,10 L10,10 Z" id="Combined-Shape" fill="#524740"></path>
                    </g>
                    <circle id="Oval-Copy-8" fill="#252525" cx="50.5" cy="118.5" r="10.5"></circle>
                    <g id="Positive-Ion" transform="translate(100.000000, 28.000000)">
                        <circle id="Oval-Copy-26" fill="#D7E465" cx="10.5" cy="10.5" r="10.5"></circle>
                        <path d="M10,10 L10,6 L11,6 L11,10 L15,10 L15,11 L11,11 L11,15 L10,15 L10,11 L6,11 L6,10 L10,10 Z" id="Combined-Shape" fill="#524740"></path>
                    </g>
                    <circle id="Oval-Copy-25" fill="#252525" cx="110.5" cy="78.5" r="10.5"></circle>
                    <circle id="Oval-Copy-24" fill="#252525" cx="110.5" cy="118.5" r="10.5"></circle>
                    <g id="Positive-Ion" transform="translate(10.000000, 128.000000)">
                        <circle id="Oval-Copy-7" fill="#D7E465" cx="10.5" cy="10.5" r="10.5"></circle>
                        <path d="M10,10 L10,6 L11,6 L11,10 L15,10 L15,11 L11,11 L11,15 L10,15 L10,11 L6,11 L6,10 L10,10 Z" id="Combined-Shape" fill="#524740"></path>
                    </g>
                    <circle id="Oval-Copy-23" fill="#252525" cx="80.5" cy="18.5" r="10.5"></circle>
                    <circle id="Oval-Copy-22" fill="#252525" cx="80.5" cy="58.5" r="10.5"></circle>
                    <g id="Positive-Ion" transform="translate(70.000000, 88.000000)">
                        <circle id="Oval-Copy-21" fill="#D7E465" cx="10.5" cy="10.5" r="10.5"></circle>
                        <path d="M10,10 L10,6 L11,6 L11,10 L15,10 L15,11 L11,11 L11,15 L10,15 L10,11 L6,11 L6,10 L10,10 Z" id="Combined-Shape" fill="#524740"></path>
                    </g>
                    <circle id="Oval-Copy-20" fill="#252525" cx="80.5" cy="138.5" r="10.5"></circle>
                    <circle id="Oval-Copy-30" fill="#252525" cx="140.5" cy="18.5" r="10.5"></circle>
                    <circle id="Oval-Copy-29" fill="#252525" cx="140.5" cy="58.5" r="10.5"></circle>
                    <circle id="Oval-Copy-28" fill="#252525" cx="140.5" cy="98.5" r="10.5"></circle>
                    <circle id="Oval-Copy-27" fill="#252525" cx="140.5" cy="138.5" r="10.5"></circle>
                    <g id="Little-ones" transform="translate(56.000000, 8.000000)" fill="#EF7D3B">
                        <circle id="Oval-Copy-34" cx="17.25" cy="27.25" r="3.25"></circle>
                        <circle id="Oval-Copy-35" cx="27.25" cy="67.25" r="3.25"></circle>
                        <circle id="Oval-Copy-36" cx="8.25" cy="88.25" r="3.25"></circle>
                        <circle id="Oval-Copy-40" cx="3.25" cy="126.25" r="3.25"></circle>
                        <circle id="Oval-Copy-41" cx="63.25" cy="126.25" r="3.25"></circle>
                        <circle id="Oval-Copy-42" cx="38.25" cy="107.25" r="3.25"></circle>
                        <circle id="Oval-Copy-43" cx="38.25" cy="137.25" r="3.25"></circle>
                        <circle id="Oval-Copy-44" cx="78.25" cy="146.25" r="3.25"></circle>
                        <circle id="Oval-Copy-45" cx="98.25" cy="96.25" r="3.25"></circle>
                        <circle id="Oval-Copy-46" cx="67.25" cy="82.25" r="3.25"></circle>
                        <circle id="Oval-Copy-47" cx="77.25" cy="37.25" r="3.25"></circle>
                        <circle id="Oval-Copy-48" cx="67.25" cy="3.25" r="3.25"></circle>
                        <circle id="Oval-Copy-49" cx="44.25" cy="18.25" r="3.25"></circle>
                    </g>
                </g>
                <rect id="Rectangle" fill="#EF7D3B" opacity="0.149135045" x="299" y="33" width="110" height="156"></rect>
                <path d="M298.5,32.5 L299,191" id="Line" stroke="#979797" stroke-width="2" stroke-linecap="square" stroke-dasharray="8,8"></path>
                <path d="M408.5,32.5 L409,191" id="Line-Copy" stroke="#979797" stroke-width="2" stroke-linecap="square" stroke-dasharray="8,8"></path>
                <path d="M246.356,2.6 C247.972008,2.6 249.235995,2.98399616 250.148,3.752 C251.060005,4.52000384 251.516,5.48799416 251.516,6.656 C251.516,7.82400584 251.060005,8.7879962 250.148,9.548 C249.235995,10.3080038 247.972008,10.688 246.356,10.688 L244.22,10.688 L244.22,13.688 C244.22,14.888006 244.351999,15.6559983 244.616,15.992 C244.880001,16.3280017 245.507995,16.496 246.5,16.496 L246.5,17 L240.02,17 L240.02,16.496 C241.012005,16.496 241.639999,16.3280017 241.904,15.992 C242.168001,15.6559983 242.3,14.888006 242.3,13.688 L242.3,5.888 C242.3,4.687994 242.168001,3.92400164 241.904,3.596 C241.639999,3.26799836 241.012005,3.104 240.02,3.104 L240.02,2.6 L246.356,2.6 Z M246.332,9.824 C247.324005,9.824 248.079997,9.52800296 248.6,8.936 C249.120003,8.34399704 249.38,7.58400464 249.38,6.656 C249.38,5.72799536 249.120003,4.96800296 248.6,4.376 C248.079997,3.78399704 247.324005,3.488 246.332,3.488 L244.22,3.488 L244.22,9.824 L246.332,9.824 Z M262.308,12.608 L255.3,12.608 L255.3,11.552 L262.308,11.552 L262.308,12.608 Z M279.484,2.6 L279.7,5.84 L279.196,5.84 L279.076,5.36 C278.883999,4.6399964 278.628002,4.15600124 278.308,3.908 C277.987998,3.65999876 277.316005,3.536 276.292,3.536 L273.148,3.536 L273.148,13.688 C273.148,14.888006 273.283999,15.6559983 273.556,15.992 C273.828001,16.3280017 274.459995,16.496 275.452,16.496 L275.452,17 L268.948,17 L268.948,16.496 C269.940005,16.496 270.571999,16.3280017 270.844,15.992 C271.116001,15.6559983 271.252,14.888006 271.252,13.688 L271.252,3.536 L268.108,3.536 C267.083995,3.536 266.412002,3.65999876 266.092,3.908 C265.771998,4.15600124 265.516001,4.6399964 265.324,5.36 L265.204,5.84 L264.7,5.84 L264.916,2.6 L279.484,2.6 Z M280.652,22.688 C280.652,22.4319987 280.747999,22.204001 280.94,22.004 C281.132001,21.803999 281.383998,21.5320017 281.696,21.188 C282.008002,20.8439983 282.267999,20.4080026 282.476,19.88 L283.676,16.88 L280.916,10.904 C280.659999,10.3599973 280.420001,9.988001 280.196,9.788 C279.971999,9.587999 279.676002,9.488 279.308,9.488 L279.308,9.008 L283.556,9.008 L283.556,9.488 C283.011997,9.488 282.684001,9.57599912 282.572,9.752 C282.459999,9.92800088 282.531999,10.311997 282.788,10.904 L284.54,14.744 L286.076,10.904 C286.300001,10.3599973 286.364,9.988001 286.268,9.788 C286.172,9.587999 285.876002,9.488 285.38,9.488 L285.38,9.008 L288.74,9.008 L288.74,9.488 C287.987996,9.488 287.420002,9.95999528 287.036,10.904 L282.356,22.592 C282.115999,23.184003 281.820002,23.48 281.468,23.48 C281.259999,23.48 281.072001,23.4160006 280.904,23.288 C280.735999,23.1599994 280.652,22.9600014 280.652,22.688 Z M297.972,15.488 C298.436002,14.8319967 298.668,14.000005 298.668,12.992 C298.668,11.983995 298.436002,11.1600032 297.972,10.52 C297.507998,9.8799968 296.836004,9.56 295.956,9.56 C295.411997,9.56 294.928002,9.72799832 294.504,10.064 C294.079998,10.4000017 293.748001,10.8559971 293.508,11.432 L293.508,14.528 C293.748001,15.120003 294.079998,15.5879983 294.504,15.932 C294.928002,16.2760017 295.411997,16.448 295.956,16.448 C296.836004,16.448 297.507998,16.1280032 297.972,15.488 Z M293.508,19.712 C293.508,20.8960059 293.623999,21.6559983 293.856,21.992 C294.088001,22.3280017 294.603996,22.496 295.404,22.496 L295.404,23 L289.908,23 L289.908,22.496 C290.708004,22.496 291.223999,22.3320016 291.456,22.004 C291.688001,21.6759984 291.804,20.912006 291.804,19.712 L291.804,12.488 C291.804,11.287994 291.688001,10.5240016 291.456,10.196 C291.223999,9.86799836 290.708004,9.704 289.908,9.704 L289.908,9.2 L293.124,8.6 C293.22,8.77600088 293.339999,9.263996 293.484,10.064 C294.300004,9.08799512 295.291994,8.6 296.46,8.6 C297.596006,8.6 298.571996,9.02799572 299.388,9.884 C300.204004,10.7400043 300.612,11.7759939 300.612,12.992 C300.612,14.2080061 300.204004,15.2479957 299.388,16.112 C298.571996,16.9760043 297.596006,17.408 296.46,17.408 C295.275994,17.408 294.292004,16.9280048 293.508,15.968 L293.508,19.712 Z M305.98,11.504 L309.964,11.504 C310.124001,11.0559978 310.056001,10.6200021 309.76,10.196 C309.463999,9.77199788 308.956004,9.56 308.236,9.56 C307.723997,9.56 307.264002,9.73599824 306.856,10.088 C306.447998,10.4400018 306.156001,10.911997 305.98,11.504 Z M305.836,12.392 C305.691999,13.5760059 305.879997,14.5399963 306.4,15.284 C306.920003,16.0280037 307.771994,16.4 308.956,16.4 C309.356002,16.4 309.811997,16.296001 310.324,16.088 C310.836003,15.879999 311.259998,15.6160016 311.596,15.296 L312.028,15.824 C311.595998,16.2880023 311.044003,16.6679985 310.372,16.964 C309.699997,17.2600015 309.028003,17.408 308.356,17.408 C307.059994,17.408 305.996004,16.9800043 305.164,16.124 C304.331996,15.2679957 303.916,14.2240062 303.916,12.992 C303.916,11.7599938 304.367995,10.7200042 305.272,9.872 C306.176005,9.02399576 307.203994,8.6 308.356,8.6 C309.444005,8.6 310.331997,8.9799962 311.02,9.74 C311.708003,10.5000038 311.908001,11.383995 311.62,12.392 L305.836,12.392 Z" id="P-Type-Copy" fill="#524740"></path>
                <path d="M399.52,14.024 L399.52,5.888 C399.52,4.687994 399.388001,3.92400164 399.124,3.596 C398.859999,3.26799836 398.232005,3.104 397.24,3.104 L397.24,2.6 L402.712,2.6 L402.712,3.104 C401.719995,3.104 401.088001,3.26799836 400.816,3.596 C400.543999,3.92400164 400.408,4.687994 400.408,5.888 L400.408,17.408 L399.856,17.408 L390.088,5.336 L390.088,13.688 C390.088,14.888006 390.223999,15.6559983 390.496,15.992 C390.768001,16.3280017 391.399995,16.496 392.392,16.496 L392.392,17 L386.92,17 L386.92,16.496 C387.912005,16.496 388.539999,16.3280017 388.804,15.992 C389.068001,15.6559983 389.2,14.888006 389.2,13.688 L389.2,5.888 C389.2,4.687994 389.068001,3.92400164 388.804,3.596 C388.539999,3.26799836 387.912005,3.104 386.92,3.104 L386.92,2.6 L390.304,2.6 L399.52,14.024 Z M413.408,12.608 L406.4,12.608 L406.4,11.552 L413.408,11.552 L413.408,12.608 Z M430.584,2.6 L430.8,5.84 L430.296,5.84 L430.176,5.36 C429.983999,4.6399964 429.728002,4.15600124 429.408,3.908 C429.087998,3.65999876 428.416005,3.536 427.392,3.536 L424.248,3.536 L424.248,13.688 C424.248,14.888006 424.383999,15.6559983 424.656,15.992 C424.928001,16.3280017 425.559995,16.496 426.552,16.496 L426.552,17 L420.048,17 L420.048,16.496 C421.040005,16.496 421.671999,16.3280017 421.944,15.992 C422.216001,15.6559983 422.352,14.888006 422.352,13.688 L422.352,3.536 L419.208,3.536 C418.183995,3.536 417.512002,3.65999876 417.192,3.908 C416.871998,4.15600124 416.616001,4.6399964 416.424,5.36 L416.304,5.84 L415.8,5.84 L416.016,2.6 L430.584,2.6 Z M431.752,22.688 C431.752,22.4319987 431.847999,22.204001 432.04,22.004 C432.232001,21.803999 432.483998,21.5320017 432.796,21.188 C433.108002,20.8439983 433.367999,20.4080026 433.576,19.88 L434.776,16.88 L432.016,10.904 C431.759999,10.3599973 431.520001,9.988001 431.296,9.788 C431.071999,9.587999 430.776002,9.488 430.408,9.488 L430.408,9.008 L434.656,9.008 L434.656,9.488 C434.111997,9.488 433.784001,9.57599912 433.672,9.752 C433.559999,9.92800088 433.631999,10.311997 433.888,10.904 L435.64,14.744 L437.176,10.904 C437.400001,10.3599973 437.464,9.988001 437.368,9.788 C437.272,9.587999 436.976002,9.488 436.48,9.488 L436.48,9.008 L439.84,9.008 L439.84,9.488 C439.087996,9.488 438.520002,9.95999528 438.136,10.904 L433.456,22.592 C433.215999,23.184003 432.920002,23.48 432.568,23.48 C432.359999,23.48 432.172001,23.4160006 432.004,23.288 C431.835999,23.1599994 431.752,22.9600014 431.752,22.688 Z M449.072,15.488 C449.536002,14.8319967 449.768,14.000005 449.768,12.992 C449.768,11.983995 449.536002,11.1600032 449.072,10.52 C448.607998,9.8799968 447.936004,9.56 447.056,9.56 C446.511997,9.56 446.028002,9.72799832 445.604,10.064 C445.179998,10.4000017 444.848001,10.8559971 444.608,11.432 L444.608,14.528 C444.848001,15.120003 445.179998,15.5879983 445.604,15.932 C446.028002,16.2760017 446.511997,16.448 447.056,16.448 C447.936004,16.448 448.607998,16.1280032 449.072,15.488 Z M444.608,19.712 C444.608,20.8960059 444.723999,21.6559983 444.956,21.992 C445.188001,22.3280017 445.703996,22.496 446.504,22.496 L446.504,23 L441.008,23 L441.008,22.496 C441.808004,22.496 442.323999,22.3320016 442.556,22.004 C442.788001,21.6759984 442.904,20.912006 442.904,19.712 L442.904,12.488 C442.904,11.287994 442.788001,10.5240016 442.556,10.196 C442.323999,9.86799836 441.808004,9.704 441.008,9.704 L441.008,9.2 L444.224,8.6 C444.32,8.77600088 444.439999,9.263996 444.584,10.064 C445.400004,9.08799512 446.391994,8.6 447.56,8.6 C448.696006,8.6 449.671996,9.02799572 450.488,9.884 C451.304004,10.7400043 451.712,11.7759939 451.712,12.992 C451.712,14.2080061 451.304004,15.2479957 450.488,16.112 C449.671996,16.9760043 448.696006,17.408 447.56,17.408 C446.375994,17.408 445.392004,16.9280048 444.608,15.968 L444.608,19.712 Z M457.08,11.504 L461.064,11.504 C461.224001,11.0559978 461.156001,10.6200021 460.86,10.196 C460.563999,9.77199788 460.056004,9.56 459.336,9.56 C458.823997,9.56 458.364002,9.73599824 457.956,10.088 C457.547998,10.4400018 457.256001,10.911997 457.08,11.504 Z M456.936,12.392 C456.791999,13.5760059 456.979997,14.5399963 457.5,15.284 C458.020003,16.0280037 458.871994,16.4 460.056,16.4 C460.456002,16.4 460.911997,16.296001 461.424,16.088 C461.936003,15.879999 462.359998,15.6160016 462.696,15.296 L463.128,15.824 C462.695998,16.2880023 462.144003,16.6679985 461.472,16.964 C460.799997,17.2600015 460.128003,17.408 459.456,17.408 C458.159994,17.408 457.096004,16.9800043 456.264,16.124 C455.431996,15.2679957 455.016,14.2240062 455.016,12.992 C455.016,11.7599938 455.467995,10.7200042 456.372,9.872 C457.276005,9.02399576 458.303994,8.6 459.456,8.6 C460.544005,8.6 461.431997,8.9799962 462.12,9.74 C462.808003,10.5000038 463.008001,11.383995 462.72,12.392 L456.936,12.392 Z" id="N-Type-Copy" fill="#524740"></path>
                <path d="M5.408,92.008 L4.256,94.672 C3.95199848,95.3280033 3.9399986,95.7959986 4.22,96.076 C4.5000014,96.3560014 5.13599504,96.496 6.128,96.496 L6.128,97 L0.512,97 L0.512,96.496 C1.02400256,96.496 1.4199986,96.4760002 1.7,96.436 C1.9800014,96.3959998 2.22799892,96.2680011 2.444,96.052 C2.66000108,95.8359989 2.81199956,95.6400009 2.9,95.464 C2.98800044,95.2879991 3.1519988,94.9360026 3.392,94.408 L8.672,82.192 L8.984,82.192 L14.288,94.408 C14.5280012,94.9360026 14.6919996,95.2879991 14.78,95.464 C14.8680004,95.6400009 15.0199989,95.8359989 15.236,96.052 C15.4520011,96.2680011 15.6959986,96.3959998 15.968,96.436 C16.2400014,96.4760002 16.6319974,96.496 17.144,96.496 L17.144,97 L10.496,97 L10.496,96.496 C11.488005,96.496 12.1199986,96.3560014 12.392,96.076 C12.6640014,95.7959986 12.6560014,95.3280033 12.368,94.672 L11.216,92.008 L5.408,92.008 Z M10.808,91.12 L8.288,85.336 L5.792,91.12 L10.808,91.12 Z M21.744,90.328 C22.6560046,89.1759942 23.7679934,88.6 25.08,88.6 C26.1200052,88.6 26.8999974,88.9279967 27.42,89.584 C27.9400026,90.2400033 28.2,91.1039946 28.2,92.176 L28.2,93.688 C28.2,94.888006 28.3159988,95.6559983 28.548,95.992 C28.7800012,96.3280017 29.295996,96.496 30.096,96.496 L30.096,97 L24.6,97 L24.6,96.496 C25.3840039,96.496 25.8959988,96.3240017 26.136,95.98 C26.3760012,95.6359983 26.496,94.8720059 26.496,93.688 L26.496,92.296 C26.496,90.5839914 25.8320066,89.728 24.504,89.728 C23.8159966,89.728 23.1840029,89.9679976 22.608,90.448 C22.0319971,90.9280024 21.744,91.4879968 21.744,92.128 L21.744,93.688 C21.744,94.9200062 21.839999,95.6959984 22.032,96.016 C22.224001,96.3360016 22.6879963,96.496 23.424,96.496 L23.424,97 L18.144,97 L18.144,96.496 C18.944004,96.496 19.4599988,96.3280017 19.692,95.992 C19.9240012,95.6559983 20.04,94.888006 20.04,93.688 L20.04,92.488 C20.04,91.3039941 19.9240012,90.5440017 19.692,90.208 C19.4599988,89.8719983 18.944004,89.704 18.144,89.704 L18.144,89.2 L21.336,88.6 C21.4800007,88.9040015 21.6159994,89.4799958 21.744,90.328 Z M40.96,89.896 C41.9200048,90.7440042 42.4,91.7759939 42.4,92.992 C42.4,94.2080061 41.9240048,95.2479957 40.972,96.112 C40.0199952,96.9760043 38.8800066,97.408 37.552,97.408 C36.2239934,97.408 35.0840048,96.9760043 34.132,96.112 C33.1799952,95.2479957 32.704,94.2080061 32.704,92.992 C32.704,91.7759939 33.1799952,90.7400043 34.132,89.884 C35.0840048,89.0279957 36.2239934,88.6 37.552,88.6 C38.8800066,88.6 40.0159953,89.0319957 40.96,89.896 Z M39.712,95.512 C40.2080025,94.8559967 40.456,94.0160051 40.456,92.992 C40.456,91.9679949 40.2080025,91.1320032 39.712,90.484 C39.2159975,89.8359968 38.4960047,89.512 37.552,89.512 C36.6079953,89.512 35.8880025,89.8399967 35.392,90.496 C34.8959975,91.1520033 34.648,91.983995 34.648,92.992 C34.648,94.000005 34.8959975,94.8319967 35.392,95.488 C35.8880025,96.1440033 36.6079953,96.472 37.552,96.472 C38.4960047,96.472 39.2159975,96.1520032 39.712,95.512 Z M52.808,94.552 L52.808,91.456 C52.5839989,90.8799971 52.2560022,90.4200017 51.824,90.076 C51.3919978,89.7319983 50.9120026,89.56 50.384,89.56 C49.4879955,89.56 48.8080023,89.8799968 48.344,90.52 C47.8799977,91.1600032 47.648,91.983995 47.648,92.992 C47.648,94.0160051 47.8799977,94.8479968 48.344,95.488 C48.8080023,96.1280032 49.4879955,96.448 50.384,96.448 C50.9120026,96.448 51.3919978,96.2760017 51.824,95.932 C52.2560022,95.5879983 52.5839989,95.1280029 52.808,94.552 Z M52.808,90.016 L52.808,86.104 C52.808,84.903994 52.6920012,84.1360017 52.46,83.8 C52.2279988,83.4639983 51.712004,83.296 50.912,83.296 L50.912,82.792 L54.512,82.192 L54.512,93.496 C54.512,94.696006 54.6279988,95.4639983 54.86,95.8 C55.0920012,96.1360017 55.607996,96.304 56.408,96.304 L56.408,96.808 L53.216,97.408 C53.1039994,97.1679988 52.9760007,96.6800037 52.832,95.944 C52.0479961,96.9200049 51.0640059,97.408 49.88,97.408 C48.7439943,97.408 47.7640041,96.9760043 46.94,96.112 C46.1159959,95.2479957 45.704,94.2080061 45.704,92.992 C45.704,91.7759939 46.1159959,90.7400043 46.94,89.884 C47.7640041,89.0279957 48.7439943,88.6 49.88,88.6 C51.0640059,88.6 52.0399962,89.0719953 52.808,90.016 Z M61.08,91.504 L65.064,91.504 C65.2240008,91.0559978 65.1560015,90.6200021 64.86,90.196 C64.5639985,89.7719979 64.0560036,89.56 63.336,89.56 C62.8239974,89.56 62.364002,89.7359982 61.956,90.088 C61.547998,90.4400018 61.2560009,90.911997 61.08,91.504 Z M60.936,92.392 C60.7919993,93.5760059 60.9799974,94.5399963 61.5,95.284 C62.0200026,96.0280037 62.8719941,96.4 64.056,96.4 C64.456002,96.4 64.9119974,96.296001 65.424,96.088 C65.9360026,95.879999 66.3599983,95.6160016 66.696,95.296 L67.128,95.824 C66.6959978,96.2880023 66.1440034,96.6679985 65.472,96.964 C64.7999966,97.2600015 64.1280034,97.408 63.456,97.408 C62.1599935,97.408 61.0960042,96.9800043 60.264,96.124 C59.4319958,95.2679957 59.016,94.2240062 59.016,92.992 C59.016,91.7599938 59.4679955,90.7200042 60.372,89.872 C61.2760045,89.0239958 62.3039942,88.6 63.456,88.6 C64.5440054,88.6 65.4319966,88.9799962 66.12,89.74 C66.8080034,90.5000038 67.0080014,91.383995 66.72,92.392 L60.936,92.392 Z M83.504,99.16 L82.976,99.664 C79.375982,96.7199853 77.576,93.4720178 77.576,89.92 C77.576,86.3839823 79.3679821,83.1360148 82.952,80.176 L83.504,80.68 C82.9919974,81.2560029 82.5680017,81.7559979 82.232,82.18 C81.8959983,82.6040021 81.4600027,83.2359958 80.924,84.076 C80.3879973,84.9160042 79.9760014,85.831995 79.688,86.824 C79.3999986,87.816005 79.256,88.8479946 79.256,89.92 C79.256,90.9920054 79.3999986,92.023995 79.688,93.016 C79.9760014,94.008005 80.3879973,94.9239958 80.924,95.764 C81.4600027,96.6040042 81.8959983,97.2359979 82.232,97.66 C82.5680017,98.0840021 82.9919974,98.5839971 83.504,99.16 Z M89.16,92.008 L88.008,94.672 C87.7039985,95.3280033 87.6919986,95.7959986 87.972,96.076 C88.2520014,96.3560014 88.887995,96.496 89.88,96.496 L89.88,97 L84.264,97 L84.264,96.496 C84.7760026,96.496 85.1719986,96.4760002 85.452,96.436 C85.7320014,96.3959998 85.9799989,96.2680011 86.196,96.052 C86.4120011,95.8359989 86.5639996,95.6400009 86.652,95.464 C86.7400004,95.2879991 86.9039988,94.9360026 87.144,94.408 L92.424,82.192 L92.736,82.192 L98.04,94.408 C98.2800012,94.9360026 98.4439996,95.2879991 98.532,95.464 C98.6200004,95.6400009 98.7719989,95.8359989 98.988,96.052 C99.2040011,96.2680011 99.4479986,96.3959998 99.72,96.436 C99.9920014,96.4760002 100.383997,96.496 100.896,96.496 L100.896,97 L94.248,97 L94.248,96.496 C95.240005,96.496 95.8719986,96.3560014 96.144,96.076 C96.4160014,95.7959986 96.4080014,95.3280033 96.12,94.672 L94.968,92.008 L89.16,92.008 Z M94.56,91.12 L92.04,85.336 L89.544,91.12 L94.56,91.12 Z M107.584,89.92 C107.584,93.4880178 105.792018,96.7359854 102.208,99.664 L101.656,99.16 C102.184003,98.567997 102.611998,98.0640021 102.94,97.648 C103.268002,97.2319979 103.703997,96.6040042 104.248,95.764 C104.792003,94.9239958 105.207999,94.008005 105.496,93.016 C105.784001,92.023995 105.928,90.9920054 105.928,89.92 C105.928,88.8479946 105.784001,87.816005 105.496,86.824 C105.207999,85.831995 104.792003,84.9160042 104.248,84.076 C103.703997,83.2359958 103.268002,82.6080021 102.94,82.192 C102.611998,81.7759979 102.184003,81.272003 101.656,80.68 L102.232,80.176 C105.800018,83.1200147 107.584,86.3679822 107.584,89.92 Z" id="Anode-(A)-Copy" fill="#524740"></path>
                <path d="M583.708,96.736 L583.228,96.736 C583.099999,96.1119969 582.828002,95.6560014 582.412,95.368 C581.099993,96.7280068 579.612008,97.408 577.948,97.408 C575.91599,97.408 574.180007,96.6640074 572.74,95.176 C571.299993,93.6879926 570.58,91.8960105 570.58,89.8 C570.58,87.7039895 571.299993,85.9120074 572.74,84.424 C574.180007,82.9359926 575.91599,82.192 577.948,82.192 C579.644008,82.192 581.131994,82.8719932 582.412,84.232 C582.844002,83.8959983 583.115999,83.4400029 583.228,82.864 L583.708,82.864 L583.708,88.144 L583.228,88.144 C582.891998,86.5599921 582.272005,85.3280044 581.368,84.448 C580.463995,83.5679956 579.356007,83.128 578.044,83.128 C577.131995,83.128 576.324004,83.331998 575.62,83.74 C574.915996,84.148002 574.368002,84.6879966 573.976,85.36 C573.583998,86.0320034 573.292001,86.7439962 573.1,87.496 C572.907999,88.2480038 572.812,89.0159961 572.812,89.8 C572.812,90.5840039 572.907999,91.3519962 573.1,92.104 C573.292001,92.8560038 573.583998,93.5639967 573.976,94.228 C574.368002,94.8920033 574.915996,95.427998 575.62,95.836 C576.324004,96.244002 577.131995,96.448 578.044,96.448 C579.356007,96.448 580.463995,96.0040044 581.368,95.116 C582.272005,94.2279956 582.891998,93.0080078 583.228,91.456 L583.708,91.456 L583.708,96.736 Z M595.772,96.52 C595.307998,97.0160025 594.780003,97.264 594.188,97.264 C593.227995,97.264 592.684001,96.8000046 592.556,95.872 C591.483995,96.8320048 590.484005,97.312 589.556,97.312 C588.947997,97.312 588.436002,97.1320018 588.02,96.772 C587.603998,96.4119982 587.396,95.9200031 587.396,95.296 C587.396,93.6159916 589.099983,92.480003 592.508,91.888 C592.508,90.9439953 592.404001,90.2880018 592.196,89.92 C591.987999,89.5519982 591.556003,89.368 590.9,89.368 C590.579998,89.368 590.272001,89.471999 589.976,89.68 C589.679999,89.888001 589.532,90.1679982 589.532,90.52 C589.532,90.7600012 589.452001,90.9599992 589.292,91.12 C589.131999,91.2800008 588.940001,91.36 588.716,91.36 C588.475999,91.36 588.276001,91.2800008 588.116,91.12 C587.955999,90.9599992 587.876,90.7600012 587.876,90.52 C587.876,89.9599972 588.183997,89.5000018 588.8,89.14 C589.416003,88.7799982 590.123996,88.6 590.924,88.6 C592.092006,88.6 592.931997,88.8559974 593.444,89.368 C593.956003,89.8800026 594.212,90.7119942 594.212,91.864 L594.212,95.488 C594.212,96.1120031 594.395998,96.424 594.764,96.424 C594.972001,96.424 595.195999,96.3040012 595.436,96.064 L595.772,96.52 Z M592.508,95.08 L592.508,92.632 C590.299989,93.1440026 589.196,93.9359946 589.196,95.008 C589.196,95.3760018 589.303999,95.6719989 589.52,95.896 C589.736001,96.1200011 590.003998,96.232 590.324,96.232 C590.916003,96.232 591.643996,95.8480038 592.508,95.08 Z M599.076,89.848 L597.828,89.848 L597.828,89.272 C598.516003,89.1279993 599.019998,88.8160024 599.34,88.336 C599.660002,87.8559976 599.868,87.2000042 599.964,86.368 L600.78,86.368 L600.78,89.008 L602.868,89.008 L602.868,89.848 L600.78,89.848 L600.78,94.648 C600.78,95.8000058 601.139996,96.376 601.86,96.376 C602.324002,96.376 602.843997,96.1040027 603.42,95.56 L603.828,95.968 C603.491998,96.368002 603.088002,96.6959987 602.616,96.952 C602.143998,97.2080013 601.708002,97.336 601.308,97.336 C600.619997,97.336 600.076002,97.1120022 599.676,96.664 C599.275998,96.2159978 599.076,95.5440045 599.076,94.648 L599.076,89.848 Z M617.308,97 L612.004,97 L612.004,96.496 C612.756004,96.496 613.227999,96.3360016 613.42,96.016 C613.612001,95.6959984 613.708,94.9200062 613.708,93.688 L613.708,92.296 C613.708,90.5839914 613.100006,89.728 611.884,89.728 C611.243997,89.728 610.652003,89.9639976 610.108,90.436 C609.563997,90.9080024 609.292,91.4719967 609.292,92.128 L609.292,93.688 C609.292,94.9360062 609.379999,95.7159984 609.556,96.028 C609.732001,96.3400016 610.147997,96.496 610.804,96.496 L610.804,97 L605.692,97 L605.692,96.496 C606.492004,96.496 607.007999,96.3280017 607.24,95.992 C607.472001,95.6559983 607.588,94.888006 607.588,93.688 L607.588,86.104 C607.588,84.903994 607.472001,84.1360017 607.24,83.8 C607.007999,83.4639983 606.492004,83.296 605.692,83.296 L605.692,82.792 L609.292,82.192 L609.292,90.328 C610.236005,89.1759942 611.283994,88.6 612.436,88.6 C614.40401,88.6 615.388,89.7919881 615.388,92.176 L615.388,93.688 C615.388,94.888006 615.503999,95.6559983 615.736,95.992 C615.968001,96.3280017 616.491996,96.496 617.308,96.496 L617.308,97 Z M628.172,89.896 C629.132005,90.7440042 629.612,91.7759939 629.612,92.992 C629.612,94.2080061 629.136005,95.2479957 628.184,96.112 C627.231995,96.9760043 626.092007,97.408 624.764,97.408 C623.435993,97.408 622.296005,96.9760043 621.344,96.112 C620.391995,95.2479957 619.916,94.2080061 619.916,92.992 C619.916,91.7759939 620.391995,90.7400043 621.344,89.884 C622.296005,89.0279957 623.435993,88.6 624.764,88.6 C626.092007,88.6 627.227995,89.0319957 628.172,89.896 Z M626.924,95.512 C627.420002,94.8559967 627.668,94.0160051 627.668,92.992 C627.668,91.9679949 627.420002,91.1320032 626.924,90.484 C626.427998,89.8359968 625.708005,89.512 624.764,89.512 C623.819995,89.512 623.100002,89.8399967 622.604,90.496 C622.107998,91.1520033 621.86,91.983995 621.86,92.992 C621.86,94.000005 622.107998,94.8319967 622.604,95.488 C623.100002,96.1440033 623.819995,96.472 624.764,96.472 C625.708005,96.472 626.427998,96.1520032 626.924,95.512 Z M640.02,94.552 L640.02,91.456 C639.795999,90.8799971 639.468002,90.4200017 639.036,90.076 C638.603998,89.7319983 638.124003,89.56 637.596,89.56 C636.699996,89.56 636.020002,89.8799968 635.556,90.52 C635.091998,91.1600032 634.86,91.983995 634.86,92.992 C634.86,94.0160051 635.091998,94.8479968 635.556,95.488 C636.020002,96.1280032 636.699996,96.448 637.596,96.448 C638.124003,96.448 638.603998,96.2760017 639.036,95.932 C639.468002,95.5879983 639.795999,95.1280029 640.02,94.552 Z M640.02,90.016 L640.02,86.104 C640.02,84.903994 639.904001,84.1360017 639.672,83.8 C639.439999,83.4639983 638.924004,83.296 638.124,83.296 L638.124,82.792 L641.724,82.192 L641.724,93.496 C641.724,94.696006 641.839999,95.4639983 642.072,95.8 C642.304001,96.1360017 642.819996,96.304 643.62,96.304 L643.62,96.808 L640.428,97.408 C640.315999,97.1679988 640.188001,96.6800037 640.044,95.944 C639.259996,96.9200049 638.276006,97.408 637.092,97.408 C635.955994,97.408 634.976004,96.9760043 634.152,96.112 C633.327996,95.2479957 632.916,94.2080061 632.916,92.992 C632.916,91.7759939 633.327996,90.7400043 634.152,89.884 C634.976004,89.0279957 635.955994,88.6 637.092,88.6 C638.276006,88.6 639.251996,89.0719953 640.02,90.016 Z M648.292,91.504 L652.276,91.504 C652.436001,91.0559978 652.368001,90.6200021 652.072,90.196 C651.775999,89.7719979 651.268004,89.56 650.548,89.56 C650.035997,89.56 649.576002,89.7359982 649.168,90.088 C648.759998,90.4400018 648.468001,90.911997 648.292,91.504 Z M648.148,92.392 C648.003999,93.5760059 648.191997,94.5399963 648.712,95.284 C649.232003,96.0280037 650.083994,96.4 651.268,96.4 C651.668002,96.4 652.123997,96.296001 652.636,96.088 C653.148003,95.879999 653.571998,95.6160016 653.908,95.296 L654.34,95.824 C653.907998,96.2880023 653.356003,96.6679985 652.684,96.964 C652.011997,97.2600015 651.340003,97.408 650.668,97.408 C649.371994,97.408 648.308004,96.9800043 647.476,96.124 C646.643996,95.2679957 646.228,94.2240062 646.228,92.992 C646.228,91.7599938 646.679995,90.7200042 647.584,89.872 C648.488005,89.0239958 649.515994,88.6 650.668,88.6 C651.756005,88.6 652.643997,88.9799962 653.332,89.74 C654.020003,90.5000038 654.220001,91.383995 653.932,92.392 L648.148,92.392 Z M670.716,99.16 L670.188,99.664 C666.587982,96.7199853 664.788,93.4720178 664.788,89.92 C664.788,86.3839823 666.579982,83.1360148 670.164,80.176 L670.716,80.68 C670.203997,81.2560029 669.780002,81.7559979 669.444,82.18 C669.107998,82.6040021 668.672003,83.2359958 668.136,84.076 C667.599997,84.9160042 667.188001,85.831995 666.9,86.824 C666.611999,87.816005 666.468,88.8479946 666.468,89.92 C666.468,90.9920054 666.611999,92.023995 666.9,93.016 C667.188001,94.008005 667.599997,94.9239958 668.136,95.764 C668.672003,96.6040042 669.107998,97.2359979 669.444,97.66 C669.780002,98.0840021 670.203997,98.5839971 670.716,99.16 Z M679.492,88.648 L686.932,95.104 C687.364002,95.4720018 687.903997,95.7959986 688.552,96.076 C689.200003,96.3560014 689.691998,96.496 690.028,96.496 L690.028,97 L683.284,97 L683.284,96.496 C684.068004,96.496 684.539999,96.3640013 684.7,96.1 C684.860001,95.8359987 684.692002,95.504002 684.196,95.104 L678.124,89.848 L677.5,90.352 L677.5,93.688 C677.5,94.888006 677.631999,95.6559983 677.896,95.992 C678.160001,96.3280017 678.787995,96.496 679.78,96.496 L679.78,97 L673.3,97 L673.3,96.496 C674.292005,96.496 674.919999,96.3280017 675.184,95.992 C675.448001,95.6559983 675.58,94.888006 675.58,93.688 L675.58,85.888 C675.58,84.687994 675.448001,83.9240016 675.184,83.596 C674.919999,83.2679984 674.292005,83.104 673.3,83.104 L673.3,82.6 L679.78,82.6 L679.78,83.104 C678.787995,83.104 678.160001,83.2679984 677.896,83.596 C677.631999,83.9240016 677.5,84.687994 677.5,85.888 L677.5,89.248 L682.42,85.048 C683.764007,83.7999938 683.796006,83.1520002 682.516,83.104 L682.516,82.6 L688.084,82.6 L688.084,83.104 C687.203996,83.104 686.472003,83.2399986 685.888,83.512 C685.303997,83.7840014 684.572004,84.2959962 683.692,85.048 L679.492,88.648 Z M697.508,89.92 C697.508,93.4880178 695.716018,96.7359854 692.132,99.664 L691.58,99.16 C692.108003,98.567997 692.535998,98.0640021 692.864,97.648 C693.192002,97.2319979 693.627997,96.6040042 694.172,95.764 C694.716003,94.9239958 695.131999,94.008005 695.42,93.016 C695.708001,92.023995 695.852,90.9920054 695.852,89.92 C695.852,88.8479946 695.708001,87.816005 695.42,86.824 C695.131999,85.831995 694.716003,84.9160042 694.172,84.076 C693.627997,83.2359958 693.192002,82.6080021 692.864,82.192 C692.535998,81.7759979 692.108003,81.272003 691.58,80.68 L692.156,80.176 C695.724018,83.1200147 697.508,86.3679822 697.508,89.92 Z" id="Cathode-(K)-Copy" fill="#524740"></path>
            </g>
            <g id="Cathode" transform="translate(0.000000, 72.000000)">
                <rect id="Rectangle" fill="#3D3530" x="191" y="0" width="7" height="80"></rect>
                <path d="M192.880017,39.9008336 L0.880017,39.9008336" id="Path-8" stroke="#3D3530" stroke-width="3"></path>
            </g>
            <g id="Cathode-Copy" transform="translate(514.000000, 72.000000)">
                <rect id="Rectangle" fill="#3D3530" x="0" y="0" width="7" height="80"></rect>
                <path d="M193.880017,39.9008336 L1.880017,39.9008336" id="Path-8" stroke="#3D3530" stroke-width="3"></path>
            </g>
        </g>
        <rect id="Rectangle-Copy" stroke="#3D3530" stroke-width="2" fill="#F8FAE4" x="1" y="246" width="898" height="43"></rect>
        <path d="M817.314667,276 L817.314667,259.872 L820.962667,259.872 C823.61868,259.872 825.730659,260.639992 827.298667,262.176 C828.866674,263.712008 829.650667,265.631988 829.650667,267.936 C829.650667,270.224011 828.862674,272.139992 827.286667,273.684 C825.710659,275.228008 823.60268,276 820.962667,276 L817.314667,276 Z M818.898667,274.488 L820.962667,274.488 C823.074677,274.488 824.76266,273.868006 826.026667,272.628 C827.290673,271.387994 827.922667,269.824009 827.922667,267.936 C827.922667,266.047991 827.290673,264.484006 826.026667,263.244 C824.76266,262.003994 823.074677,261.384 820.962667,261.384 L818.898667,261.384 L818.898667,274.488 Z M834.757333,260.4 C834.581332,260.592001 834.357335,260.688 834.085333,260.688 C833.813332,260.688 833.585334,260.592001 833.401333,260.4 C833.217332,260.207999 833.125333,259.984001 833.125333,259.728 C833.125333,259.471999 833.217332,259.248001 833.401333,259.056 C833.585334,258.863999 833.813332,258.768 834.085333,258.768 C834.357335,258.768 834.585332,258.863999 834.769333,259.056 C834.953334,259.248001 835.045333,259.471999 835.045333,259.728 C835.045333,259.984001 834.949334,260.207999 834.757333,260.4 Z M833.293333,276 L833.293333,264 L834.877333,264 L834.877333,276 L833.293333,276 Z M848.912,274.368 C847.711994,275.584006 846.256009,276.192 844.544,276.192 C842.831991,276.192 841.372006,275.588006 840.164,274.38 C838.955994,273.171994 838.352,271.712009 838.352,270 C838.352,268.287991 838.955994,266.828006 840.164,265.62 C841.372006,264.411994 842.831991,263.808 844.544,263.808 C846.256009,263.808 847.715994,264.411994 848.924,265.62 C850.132006,266.828006 850.736,268.287991 850.736,270 C850.736,271.696008 850.128006,273.151994 848.912,274.368 Z M844.568,274.68 C845.864006,274.68 846.955996,274.228005 847.844,273.324 C848.732004,272.419995 849.176,271.312007 849.176,270 C849.176,268.687993 848.732004,267.576005 847.844,266.664 C846.955996,265.751995 845.864006,265.296 844.568,265.296 C843.287994,265.296 842.200004,265.751995 841.304,266.664 C840.407995,267.576005 839.96,268.687993 839.96,270 C839.96,271.312007 840.407995,272.419995 841.304,273.324 C842.200004,274.228005 843.287994,274.68 844.568,274.68 Z M864.026667,258.144 L865.610667,258.144 L865.610667,276 L864.026667,276 L864.026667,274.056 C862.79466,275.480007 861.234676,276.192 859.346667,276.192 C857.634658,276.192 856.174673,275.588006 854.966667,274.38 C853.758661,273.171994 853.154667,271.712009 853.154667,270 C853.154667,268.287991 853.758661,266.828006 854.966667,265.62 C856.174673,264.411994 857.634658,263.808 859.346667,263.808 C861.250676,263.808 862.810661,264.519993 864.026667,265.944 L864.026667,258.144 Z M856.082667,273.336 C856.978671,274.232004 858.07466,274.68 859.370667,274.68 C860.666673,274.68 861.758662,274.228005 862.646667,273.324 C863.534671,272.419995 863.978667,271.312007 863.978667,270 C863.978667,268.687993 863.534671,267.580005 862.646667,266.676 C861.758662,265.771995 860.666673,265.32 859.370667,265.32 C858.07466,265.32 856.978671,265.771995 856.082667,266.676 C855.186662,267.580005 854.738667,268.687993 854.738667,270 C854.738667,271.312007 855.186662,272.423995 856.082667,273.336 Z M875.037333,274.608 C876.109339,274.608 877.069329,274.304003 877.917333,273.696 C878.765338,273.087997 879.341332,272.376004 879.645333,271.56 L880.989333,272.04 C880.621331,273.048005 879.905339,273.975996 878.841333,274.824 C877.777328,275.672004 876.509341,276.088 875.037333,276.072 C873.693327,276.072 872.465339,275.656004 871.353333,274.824 C870.241328,273.991996 869.485335,272.928006 869.085333,271.632 C868.925333,271.103997 868.845333,270.528003 868.845333,269.904 C868.845333,268.175991 869.445327,266.712006 870.645333,265.512 C871.845339,264.311994 873.309325,263.704 875.037333,263.688 C876.605341,263.704 877.973327,264.231995 879.141333,265.272 C880.309339,266.312005 880.981332,267.599992 881.157333,269.136 C881.173333,269.216 881.181333,269.319999 881.181333,269.448 L870.693333,271.344 C870.965335,272.304005 871.509329,273.091997 872.325333,273.708 C873.141337,274.324003 874.045328,274.624 875.037333,274.608 Z M874.893333,265.152 C873.693327,265.168 872.665338,265.599996 871.809333,266.448 C870.953329,267.296004 870.493334,268.311994 870.429333,269.496 C870.429333,269.544 870.433333,269.627999 870.441333,269.748 C870.449333,269.868001 870.453333,269.968 870.453333,270.048 L879.381333,268.44 C879.077332,267.463995 878.509337,266.668003 877.677333,266.052 C876.845329,265.435997 875.917338,265.136 874.893333,265.152 Z" id="Diode-Copy" fill="#23ABE3"></path>
    </g>
</svg>