<?xml version="1.0" encoding="UTF-8"?>
<svg width="290px" height="200px" viewBox="0 0 290 200" version="1.1" xmlns="http://www.w3.org/2000/svg" xmlns:xlink="http://www.w3.org/1999/xlink">
    <!-- Generator: Sketch 52.5 (67469) - http://www.bohemiancoding.com/sketch -->
    <title>Diode_Polarity</title>
    <desc>Created with Sketch.</desc>
    <g id="Diode_Polarity" stroke="none" stroke-width="1" fill="none" fill-rule="evenodd">
        <rect id="Rectangle" stroke="#3D3530" stroke-width="2" fill="#EEEEEE" x="1" y="1" width="288" height="198"></rect>
        <g id="Title" transform="translate(0.000000, 156.000000)">
            <rect id="Rectangle" stroke="#3D3530" stroke-width="2" x="1" y="1" width="288" height="42"></rect>
            <path d="M117.746666,28 L117.746666,11.872 L121.394666,11.872 C124.050679,11.872 126.162658,12.6399923 127.730666,14.176 C129.298674,15.7120077 130.082666,17.6319885 130.082666,19.936 C130.082666,22.2240114 129.294674,24.1399923 127.718666,25.684 C126.142658,27.2280077 124.034679,28 121.394666,28 L117.746666,28 Z M119.330666,26.488 L121.394666,26.488 C123.506677,26.488 125.19466,25.8680062 126.458666,24.628 C127.722673,23.3879938 128.354666,21.8240094 128.354666,19.936 C128.354666,18.0479906 127.722673,16.4840062 126.458666,15.244 C125.19466,14.0039938 123.506677,13.384 121.394666,13.384 L119.330666,13.384 L119.330666,26.488 Z M135.189333,12.4 C135.013332,12.592001 134.789334,12.688 134.517333,12.688 C134.245332,12.688 134.017334,12.592001 133.833333,12.4 C133.649332,12.207999 133.557333,11.9840013 133.557333,11.728 C133.557333,11.4719987 133.649332,11.248001 133.833333,11.056 C134.017334,10.863999 134.245332,10.768 134.517333,10.768 C134.789334,10.768 135.017332,10.863999 135.201333,11.056 C135.385334,11.248001 135.477333,11.4719987 135.477333,11.728 C135.477333,11.9840013 135.381334,12.207999 135.189333,12.4 Z M133.725333,28 L133.725333,16 L135.309333,16 L135.309333,28 L133.725333,28 Z M149.344,26.368 C148.143994,27.5840061 146.688008,28.192 144.976,28.192 C143.263991,28.192 141.804006,27.588006 140.596,26.38 C139.387994,25.171994 138.784,23.7120086 138.784,22 C138.784,20.2879914 139.387994,18.828006 140.596,17.62 C141.804006,16.411994 143.263991,15.808 144.976,15.808 C146.688008,15.808 148.147994,16.411994 149.356,17.62 C150.564006,18.828006 151.168,20.2879914 151.168,22 C151.168,23.6960085 150.560006,25.1519939 149.344,26.368 Z M145,26.68 C146.296006,26.68 147.387995,26.2280045 148.276,25.324 C149.164004,24.4199955 149.608,23.3120066 149.608,22 C149.608,20.6879934 149.164004,19.5760046 148.276,18.664 C147.387995,17.7519954 146.296006,17.296 145,17.296 C143.719993,17.296 142.632004,17.7519954 141.736,18.664 C140.839995,19.5760046 140.392,20.6879934 140.392,22 C140.392,23.3120066 140.839995,24.4199955 141.736,25.324 C142.632004,26.2280045 143.719993,26.68 145,26.68 Z M164.458666,10.144 L166.042666,10.144 L166.042666,28 L164.458666,28 L164.458666,26.056 C163.22666,27.4800071 161.666676,28.192 159.778666,28.192 C158.066658,28.192 156.606672,27.588006 155.398666,26.38 C154.19066,25.171994 153.586666,23.7120086 153.586666,22 C153.586666,20.2879914 154.19066,18.828006 155.398666,17.62 C156.606672,16.411994 158.066658,15.808 159.778666,15.808 C161.682676,15.808 163.24266,16.5199929 164.458666,17.944 L164.458666,10.144 Z M156.514666,25.336 C157.410671,26.2320045 158.50666,26.68 159.802666,26.68 C161.098673,26.68 162.190662,26.2280045 163.078666,25.324 C163.966671,24.4199955 164.410666,23.3120066 164.410666,22 C164.410666,20.6879934 163.966671,19.5800045 163.078666,18.676 C162.190662,17.7719955 161.098673,17.32 159.802666,17.32 C158.50666,17.32 157.410671,17.7719955 156.514666,18.676 C155.618662,19.5800045 155.170666,20.6879934 155.170666,22 C155.170666,23.3120066 155.618662,24.4239954 156.514666,25.336 Z M175.469333,26.608 C176.541338,26.608 177.501329,26.304003 178.349333,25.696 C179.197337,25.087997 179.773331,24.3760041 180.077333,23.56 L181.421333,24.04 C181.053331,25.048005 180.337338,25.9759958 179.273333,26.824 C178.209328,27.6720042 176.94134,28.0880001 175.469333,28.072 C174.125326,28.072 172.897339,27.6560042 171.785333,26.824 C170.673327,25.9919958 169.917335,24.9280065 169.517333,23.632 C169.357332,23.1039974 169.277333,22.5280031 169.277333,21.904 C169.277333,20.1759914 169.877327,18.712006 171.077333,17.512 C172.277339,16.311994 173.741324,15.7040001 175.469333,15.688 C177.037341,15.7040001 178.405327,16.2319948 179.573333,17.272 C180.741339,18.3120052 181.413332,19.5999923 181.589333,21.136 C181.605333,21.2160004 181.613333,21.3199994 181.613333,21.448 L171.125333,23.344 C171.397334,24.3040048 171.941329,25.0919969 172.757333,25.708 C173.573337,26.3240031 174.477328,26.6240001 175.469333,26.608 Z M175.325333,17.152 C174.125327,17.1680001 173.097337,17.5999958 172.241333,18.448 C171.385329,19.2960042 170.925333,20.3119941 170.861333,21.496 C170.861333,21.5440002 170.865333,21.6279994 170.873333,21.748 C170.881333,21.8680006 170.885333,21.9679996 170.885333,22.048 L179.813333,20.44 C179.509331,19.4639951 178.941337,18.6680031 178.109333,18.052 C177.277329,17.4359969 176.349338,17.1359999 175.325333,17.152 Z M192.354666,28 L192.354666,11.872 L197.826666,11.872 C199.634675,11.872 201.074661,12.3479952 202.146666,13.3 C203.218672,14.2520048 203.754666,15.4479928 203.754666,16.888 C203.754666,18.3120071 203.218672,19.5039952 202.146666,20.464 C201.074661,21.4240048 199.634675,21.904 197.826666,21.904 L193.938666,21.904 L193.938666,28 L192.354666,28 Z M193.938666,20.392 L197.826666,20.392 C199.122673,20.392 200.162662,20.0600033 200.946666,19.396 C201.73067,18.7319967 202.122666,17.896005 202.122666,16.888 C202.122666,15.895995 201.73067,15.0640034 200.946666,14.392 C200.162662,13.7199966 199.122673,13.384 197.826666,13.384 L193.938666,13.384 L193.938666,20.392 Z M216.157333,26.368 C214.957327,27.5840061 213.501342,28.192 211.789333,28.192 C210.077325,28.192 208.617339,27.588006 207.409333,26.38 C206.201327,25.171994 205.597333,23.7120086 205.597333,22 C205.597333,20.2879914 206.201327,18.828006 207.409333,17.62 C208.617339,16.411994 210.077325,15.808 211.789333,15.808 C213.501342,15.808 214.961327,16.411994 216.169333,17.62 C217.377339,18.828006 217.981333,20.2879914 217.981333,22 C217.981333,23.6960085 217.373339,25.1519939 216.157333,26.368 Z M211.813333,26.68 C213.10934,26.68 214.201329,26.2280045 215.089333,25.324 C215.977338,24.4199955 216.421333,23.3120066 216.421333,22 C216.421333,20.6879934 215.977338,19.5760046 215.089333,18.664 C214.201329,17.7519954 213.10934,17.296 211.813333,17.296 C210.533327,17.296 209.445338,17.7519954 208.549333,18.664 C207.653329,19.5760046 207.205333,20.6879934 207.205333,22 C207.205333,23.3120066 207.653329,24.4199955 208.549333,25.324 C209.445338,26.2280045 210.533327,26.68 211.813333,26.68 Z M221.264,28 L221.264,10.144 L222.848,10.144 L222.848,28 L221.264,28 Z M236.954666,16 L238.538666,16 L238.538666,28 L236.954666,28 L236.954666,26.056 C235.72266,27.4800071 234.162676,28.192 232.274666,28.192 C230.562658,28.192 229.102673,27.588006 227.894666,26.38 C226.68666,25.171994 226.082666,23.7120086 226.082666,22 C226.082666,20.2879914 226.68666,18.828006 227.894666,17.62 C229.102673,16.411994 230.562658,15.808 232.274666,15.808 C234.178676,15.808 235.73866,16.5199929 236.954666,17.944 L236.954666,16 Z M232.298666,26.68 C233.594673,26.68 234.686662,26.2280045 235.574666,25.324 C236.462671,24.4199955 236.906666,23.3120066 236.906666,22 C236.906666,20.6879934 236.462671,19.5800045 235.574666,18.676 C234.686662,17.7719955 233.594673,17.32 232.298666,17.32 C231.01866,17.32 229.926671,17.7719955 229.022666,18.676 C228.118662,19.5800045 227.666666,20.6879934 227.666666,22 C227.666666,23.3120066 228.118662,24.4199955 229.022666,25.324 C229.926671,26.2280045 231.01866,26.68 232.298666,26.68 Z M247.869333,15.808 C248.717337,15.808 249.49333,16.0159979 250.197333,16.432 L249.645333,18.016 C248.97333,17.5199975 248.293337,17.272 247.605333,17.272 C246.597328,17.272 245.749337,17.6279964 245.061333,18.34 C244.37333,19.0520036 244.029333,19.9279948 244.029333,20.968 L244.029333,28 L242.445333,28 L242.445333,16 L244.029333,16 L244.029333,17.776 C245.005338,16.4639934 246.285325,15.808 247.869333,15.808 Z M254.632,12.4 C254.455999,12.592001 254.232001,12.688 253.96,12.688 C253.687999,12.688 253.460001,12.592001 253.276,12.4 C253.091999,12.207999 253,11.9840013 253,11.728 C253,11.4719987 253.091999,11.248001 253.276,11.056 C253.460001,10.863999 253.687999,10.768 253.96,10.768 C254.232001,10.768 254.459999,10.863999 254.644,11.056 C254.828001,11.248001 254.92,11.4719987 254.92,11.728 C254.92,11.9840013 254.824001,12.207999 254.632,12.4 Z M253.168,28 L253.168,16 L254.752,16 L254.752,28 L253.168,28 Z M265.234667,25.312 L266.026667,26.536 C265.930666,26.6640006 265.802667,26.8159991 265.642667,26.992 C265.482666,27.1680009 265.122669,27.4119984 264.562667,27.724 C264.002664,28.0360016 263.42667,28.192 262.834667,28.192 C261.826662,28.192 260.98267,27.892003 260.302667,27.292 C259.622663,26.691997 259.282667,25.8240057 259.282667,24.688 L259.282667,17.44 L257.362667,17.44 L257.362667,15.976 L259.282667,15.976 L259.282667,12.184 L260.866667,11.992 L260.866667,15.976 L264.490667,15.976 L264.490667,17.44 L260.866667,17.44 L260.866667,24.328 C260.866667,25.0640037 261.094664,25.6479978 261.550667,26.08 C262.006669,26.5120022 262.530664,26.728 263.122667,26.728 C263.490668,26.728 263.850665,26.6160011 264.202667,26.392 C264.554668,26.1679989 264.814666,25.9480011 264.982667,25.732 C265.150667,25.5159989 265.234667,25.3760003 265.234667,25.312 Z M275.981333,16 L277.565333,16 L271.013333,33.112 L269.429333,33.112 L271.949333,26.536 L267.509333,16 L269.093333,16 L272.693333,24.568 L275.981333,16 Z" id="Diode-Polarity-Copy" fill="#23ABE3"></path>
        </g>
        <g id="Illustration" transform="translate(27.000000, 69.000000)">
            <g id="Diode" transform="translate(78.000000, 8.000000)">
                <polygon id="Path-2" fill="#3D3530" points="24.5 0 44 13 24.5 26"></polygon>
                <path d="M44,13 L70,13" id="Path-2-Copy" stroke="#3D3530" stroke-width="3"></path>
                <path d="M44,7.10542736e-15 L44,26" id="Path-4-Copy" stroke="#3D3530" stroke-width="3"></path>
                <path d="M0,13 L24.5,13" id="Path-3" stroke="#3D3530" stroke-width="3"></path>
            </g>
            <g id="Lables">
                <path d="M72,6 L72,0 L74,0 L74,6 L80,6 L80,8 L74,8 L74,14 L72,14 L72,8 L66,8 L66,6 L72,6 Z" id="Combined-Shape" fill="#1A80AA"></path>
                <rect id="Rectangle" fill="#1A80AA" x="145" y="6" width="13" height="2"></rect>
                <path d="M5.2,23.008 L4.048,25.672 C3.74399848,26.3280033 3.7319986,26.7959986 4.012,27.076 C4.2920014,27.3560014 4.92799504,27.496 5.92,27.496 L5.92,28 L0.304,28 L0.304,27.496 C0.81600256,27.496 1.2119986,27.4760002 1.492,27.436 C1.7720014,27.3959998 2.01999892,27.2680011 2.236,27.052 C2.45200108,26.8359989 2.60399956,26.6400009 2.692,26.464 C2.78000044,26.2879991 2.9439988,25.9360026 3.184,25.408 L8.464,13.192 L8.776,13.192 L14.08,25.408 C14.3200012,25.9360026 14.4839996,26.2879991 14.572,26.464 C14.6600004,26.6400009 14.8119989,26.8359989 15.028,27.052 C15.2440011,27.2680011 15.4879986,27.3959998 15.76,27.436 C16.0320014,27.4760002 16.4239974,27.496 16.936,27.496 L16.936,28 L10.288,28 L10.288,27.496 C11.280005,27.496 11.9119986,27.3560014 12.184,27.076 C12.4560014,26.7959986 12.4480014,26.3280033 12.16,25.672 L11.008,23.008 L5.2,23.008 Z M10.6,22.12 L8.08,16.336 L5.584,22.12 L10.6,22.12 Z M20.536,21.328 C21.4480046,20.1759942 22.5599934,19.6 23.872,19.6 C24.9120052,19.6 25.6919974,19.9279967 26.212,20.584 C26.7320026,21.2400033 26.992,22.1039946 26.992,23.176 L26.992,24.688 C26.992,25.888006 27.1079988,26.6559983 27.34,26.992 C27.5720012,27.3280017 28.087996,27.496 28.888,27.496 L28.888,28 L23.392,28 L23.392,27.496 C24.1760039,27.496 24.6879988,27.3240017 24.928,26.98 C25.1680012,26.6359983 25.288,25.8720059 25.288,24.688 L25.288,23.296 C25.288,21.5839914 24.6240066,20.728 23.296,20.728 C22.6079966,20.728 21.9760029,20.9679976 21.4,21.448 C20.8239971,21.9280024 20.536,22.4879968 20.536,23.128 L20.536,24.688 C20.536,25.9200062 20.631999,26.6959984 20.824,27.016 C21.016001,27.3360016 21.4799963,27.496 22.216,27.496 L22.216,28 L16.936,28 L16.936,27.496 C17.736004,27.496 18.2519988,27.3280017 18.484,26.992 C18.7160012,26.6559983 18.832,25.888006 18.832,24.688 L18.832,23.488 C18.832,22.3039941 18.7160012,21.5440017 18.484,21.208 C18.2519988,20.8719983 17.736004,20.704 16.936,20.704 L16.936,20.2 L20.128,19.6 C20.2720007,19.9040015 20.4079994,20.4799958 20.536,21.328 Z M38.752,20.896 C39.7120048,21.7440042 40.192,22.7759939 40.192,23.992 C40.192,25.2080061 39.7160048,26.2479957 38.764,27.112 C37.8119952,27.9760043 36.6720066,28.408 35.344,28.408 C34.0159934,28.408 32.8760048,27.9760043 31.924,27.112 C30.9719952,26.2479957 30.496,25.2080061 30.496,23.992 C30.496,22.7759939 30.9719952,21.7400043 31.924,20.884 C32.8760048,20.0279957 34.0159934,19.6 35.344,19.6 C36.6720066,19.6 37.8079953,20.0319957 38.752,20.896 Z M37.504,26.512 C38.0000025,25.8559967 38.248,25.0160051 38.248,23.992 C38.248,22.9679949 38.0000025,22.1320032 37.504,21.484 C37.0079975,20.8359968 36.2880047,20.512 35.344,20.512 C34.3999953,20.512 33.6800025,20.8399967 33.184,21.496 C32.6879975,22.1520033 32.44,22.983995 32.44,23.992 C32.44,25.000005 32.6879975,25.8319967 33.184,26.488 C33.6800025,27.1440033 34.3999953,27.472 35.344,27.472 C36.2880047,27.472 37.0079975,27.1520032 37.504,26.512 Z M49.6,25.552 L49.6,22.456 C49.3759989,21.8799971 49.0480022,21.4200017 48.616,21.076 C48.1839978,20.7319983 47.7040026,20.56 47.176,20.56 C46.2799955,20.56 45.6000023,20.8799968 45.136,21.52 C44.6719977,22.1600032 44.44,22.983995 44.44,23.992 C44.44,25.0160051 44.6719977,25.8479968 45.136,26.488 C45.6000023,27.1280032 46.2799955,27.448 47.176,27.448 C47.7040026,27.448 48.1839978,27.2760017 48.616,26.932 C49.0480022,26.5879983 49.3759989,26.1280029 49.6,25.552 Z M49.6,21.016 L49.6,17.104 C49.6,15.903994 49.4840012,15.1360017 49.252,14.8 C49.0199988,14.4639983 48.504004,14.296 47.704,14.296 L47.704,13.792 L51.304,13.192 L51.304,24.496 C51.304,25.696006 51.4199988,26.4639983 51.652,26.8 C51.8840012,27.1360017 52.399996,27.304 53.2,27.304 L53.2,27.808 L50.008,28.408 C49.8959994,28.1679988 49.7680007,27.6800037 49.624,26.944 C48.8399961,27.9200049 47.8560059,28.408 46.672,28.408 C45.5359943,28.408 44.5560041,27.9760043 43.732,27.112 C42.9079959,26.2479957 42.496,25.2080061 42.496,23.992 C42.496,22.7759939 42.9079959,21.7400043 43.732,20.884 C44.5560041,20.0279957 45.5359943,19.6 46.672,19.6 C47.8560059,19.6 48.8319962,20.0719953 49.6,21.016 Z M56.872,22.504 L60.856,22.504 C61.0160008,22.0559978 60.9480015,21.6200021 60.652,21.196 C60.3559985,20.7719979 59.8480036,20.56 59.128,20.56 C58.6159974,20.56 58.156002,20.7359982 57.748,21.088 C57.339998,21.4400018 57.0480009,21.911997 56.872,22.504 Z M56.728,23.392 C56.5839993,24.5760059 56.7719974,25.5399963 57.292,26.284 C57.8120026,27.0280037 58.6639941,27.4 59.848,27.4 C60.248002,27.4 60.7039974,27.296001 61.216,27.088 C61.7280026,26.879999 62.1519983,26.6160016 62.488,26.296 L62.92,26.824 C62.4879978,27.2880023 61.9360034,27.6679985 61.264,27.964 C60.5919966,28.2600015 59.9200034,28.408 59.248,28.408 C57.9519935,28.408 56.8880042,27.9800043 56.056,27.124 C55.2239958,26.2679957 54.808,25.2240062 54.808,23.992 C54.808,22.7599938 55.2599955,21.7200042 56.164,20.872 C57.0680045,20.0239958 58.0959942,19.6 59.248,19.6 C60.3360054,19.6 61.2239966,19.9799962 61.912,20.74 C62.6000034,21.5000038 62.8000014,22.383995 62.512,23.392 L56.728,23.392 Z" id="Anode-Copy" fill="#524740"></path>
                <path d="M173.168,27.736 L172.688,27.736 C172.559999,27.1119969 172.288002,26.6560014 171.872,26.368 C170.559993,27.7280068 169.072008,28.408 167.408,28.408 C165.37599,28.408 163.640007,27.6640074 162.2,26.176 C160.759993,24.6879926 160.04,22.8960105 160.04,20.8 C160.04,18.7039895 160.759993,16.9120074 162.2,15.424 C163.640007,13.9359926 165.37599,13.192 167.408,13.192 C169.104008,13.192 170.591994,13.8719932 171.872,15.232 C172.304002,14.8959983 172.575999,14.4400029 172.688,13.864 L173.168,13.864 L173.168,19.144 L172.688,19.144 C172.351998,17.5599921 171.732005,16.3280044 170.828,15.448 C169.923995,14.5679956 168.816007,14.128 167.504,14.128 C166.591995,14.128 165.784004,14.331998 165.08,14.74 C164.375996,15.148002 163.828002,15.6879966 163.436,16.36 C163.043998,17.0320034 162.752001,17.7439962 162.56,18.496 C162.367999,19.2480038 162.272,20.0159961 162.272,20.8 C162.272,21.5840039 162.367999,22.3519962 162.56,23.104 C162.752001,23.8560038 163.043998,24.5639967 163.436,25.228 C163.828002,25.8920033 164.375996,26.427998 165.08,26.836 C165.784004,27.244002 166.591995,27.448 167.504,27.448 C168.816007,27.448 169.923995,27.0040044 170.828,26.116 C171.732005,25.2279956 172.351998,24.0080078 172.688,22.456 L173.168,22.456 L173.168,27.736 Z M184.232,27.52 C183.767998,28.0160025 183.240003,28.264 182.648,28.264 C181.687995,28.264 181.144001,27.8000046 181.016,26.872 C179.943995,27.8320048 178.944005,28.312 178.016,28.312 C177.407997,28.312 176.896002,28.1320018 176.48,27.772 C176.063998,27.4119982 175.856,26.9200031 175.856,26.296 C175.856,24.6159916 177.559983,23.480003 180.968,22.888 C180.968,21.9439953 180.864001,21.2880018 180.656,20.92 C180.447999,20.5519982 180.016003,20.368 179.36,20.368 C179.039998,20.368 178.732001,20.471999 178.436,20.68 C178.139999,20.888001 177.992,21.1679982 177.992,21.52 C177.992,21.7600012 177.912001,21.9599992 177.752,22.12 C177.591999,22.2800008 177.400001,22.36 177.176,22.36 C176.935999,22.36 176.736001,22.2800008 176.576,22.12 C176.415999,21.9599992 176.336,21.7600012 176.336,21.52 C176.336,20.9599972 176.643997,20.5000018 177.26,20.14 C177.876003,19.7799982 178.583996,19.6 179.384,19.6 C180.552006,19.6 181.391997,19.8559974 181.904,20.368 C182.416003,20.8800026 182.672,21.7119942 182.672,22.864 L182.672,26.488 C182.672,27.1120031 182.855998,27.424 183.224,27.424 C183.432001,27.424 183.655999,27.3040012 183.896,27.064 L184.232,27.52 Z M180.968,26.08 L180.968,23.632 C178.759989,24.1440026 177.656,24.9359946 177.656,26.008 C177.656,26.3760018 177.763999,26.6719989 177.98,26.896 C178.196001,27.1200011 178.463998,27.232 178.784,27.232 C179.376003,27.232 180.103996,26.8480038 180.968,26.08 Z M186.536,20.848 L185.288,20.848 L185.288,20.272 C185.976003,20.1279993 186.479998,19.8160024 186.8,19.336 C187.120002,18.8559976 187.328,18.2000042 187.424,17.368 L188.24,17.368 L188.24,20.008 L190.328,20.008 L190.328,20.848 L188.24,20.848 L188.24,25.648 C188.24,26.8000058 188.599996,27.376 189.32,27.376 C189.784002,27.376 190.303997,27.1040027 190.88,26.56 L191.288,26.968 C190.951998,27.368002 190.548002,27.6959987 190.076,27.952 C189.603998,28.2080013 189.168002,28.336 188.768,28.336 C188.079997,28.336 187.536002,28.1120022 187.136,27.664 C186.735998,27.2159978 186.536,26.5440045 186.536,25.648 L186.536,20.848 Z M203.768,28 L198.464,28 L198.464,27.496 C199.216004,27.496 199.687999,27.3360016 199.88,27.016 C200.072001,26.6959984 200.168,25.9200062 200.168,24.688 L200.168,23.296 C200.168,21.5839914 199.560006,20.728 198.344,20.728 C197.703997,20.728 197.112003,20.9639976 196.568,21.436 C196.023997,21.9080024 195.752,22.4719967 195.752,23.128 L195.752,24.688 C195.752,25.9360062 195.839999,26.7159984 196.016,27.028 C196.192001,27.3400016 196.607997,27.496 197.264,27.496 L197.264,28 L192.152,28 L192.152,27.496 C192.952004,27.496 193.467999,27.3280017 193.7,26.992 C193.932001,26.6559983 194.048,25.888006 194.048,24.688 L194.048,17.104 C194.048,15.903994 193.932001,15.1360017 193.7,14.8 C193.467999,14.4639983 192.952004,14.296 192.152,14.296 L192.152,13.792 L195.752,13.192 L195.752,21.328 C196.696005,20.1759942 197.743994,19.6 198.896,19.6 C200.86401,19.6 201.848,20.7919881 201.848,23.176 L201.848,24.688 C201.848,25.888006 201.963999,26.6559983 202.196,26.992 C202.428001,27.3280017 202.951996,27.496 203.768,27.496 L203.768,28 Z M213.632,20.896 C214.592005,21.7440042 215.072,22.7759939 215.072,23.992 C215.072,25.2080061 214.596005,26.2479957 213.644,27.112 C212.691995,27.9760043 211.552007,28.408 210.224,28.408 C208.895993,28.408 207.756005,27.9760043 206.804,27.112 C205.851995,26.2479957 205.376,25.2080061 205.376,23.992 C205.376,22.7759939 205.851995,21.7400043 206.804,20.884 C207.756005,20.0279957 208.895993,19.6 210.224,19.6 C211.552007,19.6 212.687995,20.0319957 213.632,20.896 Z M212.384,26.512 C212.880002,25.8559967 213.128,25.0160051 213.128,23.992 C213.128,22.9679949 212.880002,22.1320032 212.384,21.484 C211.887998,20.8359968 211.168005,20.512 210.224,20.512 C209.279995,20.512 208.560002,20.8399967 208.064,21.496 C207.567998,22.1520033 207.32,22.983995 207.32,23.992 C207.32,25.000005 207.567998,25.8319967 208.064,26.488 C208.560002,27.1440033 209.279995,27.472 210.224,27.472 C211.168005,27.472 211.887998,27.1520032 212.384,26.512 Z M224.48,25.552 L224.48,22.456 C224.255999,21.8799971 223.928002,21.4200017 223.496,21.076 C223.063998,20.7319983 222.584003,20.56 222.056,20.56 C221.159996,20.56 220.480002,20.8799968 220.016,21.52 C219.551998,22.1600032 219.32,22.983995 219.32,23.992 C219.32,25.0160051 219.551998,25.8479968 220.016,26.488 C220.480002,27.1280032 221.159996,27.448 222.056,27.448 C222.584003,27.448 223.063998,27.2760017 223.496,26.932 C223.928002,26.5879983 224.255999,26.1280029 224.48,25.552 Z M224.48,21.016 L224.48,17.104 C224.48,15.903994 224.364001,15.1360017 224.132,14.8 C223.899999,14.4639983 223.384004,14.296 222.584,14.296 L222.584,13.792 L226.184,13.192 L226.184,24.496 C226.184,25.696006 226.299999,26.4639983 226.532,26.8 C226.764001,27.1360017 227.279996,27.304 228.08,27.304 L228.08,27.808 L224.888,28.408 C224.775999,28.1679988 224.648001,27.6800037 224.504,26.944 C223.719996,27.9200049 222.736006,28.408 221.552,28.408 C220.415994,28.408 219.436004,27.9760043 218.612,27.112 C217.787996,26.2479957 217.376,25.2080061 217.376,23.992 C217.376,22.7759939 217.787996,21.7400043 218.612,20.884 C219.436004,20.0279957 220.415994,19.6 221.552,19.6 C222.736006,19.6 223.711996,20.0719953 224.48,21.016 Z M231.752,22.504 L235.736,22.504 C235.896001,22.0559978 235.828001,21.6200021 235.532,21.196 C235.235999,20.7719979 234.728004,20.56 234.008,20.56 C233.495997,20.56 233.036002,20.7359982 232.628,21.088 C232.219998,21.4400018 231.928001,21.911997 231.752,22.504 Z M231.608,23.392 C231.463999,24.5760059 231.651997,25.5399963 232.172,26.284 C232.692003,27.0280037 233.543994,27.4 234.728,27.4 C235.128002,27.4 235.583997,27.296001 236.096,27.088 C236.608003,26.879999 237.031998,26.6160016 237.368,26.296 L237.8,26.824 C237.367998,27.2880023 236.816003,27.6679985 236.144,27.964 C235.471997,28.2600015 234.800003,28.408 234.128,28.408 C232.831994,28.408 231.768004,27.9800043 230.936,27.124 C230.103996,26.2679957 229.688,25.2240062 229.688,23.992 C229.688,22.7599938 230.139995,21.7200042 231.044,20.872 C231.948005,20.0239958 232.975994,19.6 234.128,19.6 C235.216005,19.6 236.103997,19.9799962 236.792,20.74 C237.480003,21.5000038 237.680001,22.383995 237.392,23.392 L231.608,23.392 Z" id="Cathode-Copy" fill="#524740"></path>
            </g>
        </g>
    </g>
</svg>