<?xml version="1.0" encoding="UTF-8"?>
<svg width="900px" height="290px" viewBox="0 0 900 290" version="1.1" xmlns="http://www.w3.org/2000/svg" xmlns:xlink="http://www.w3.org/1999/xlink">
    <!-- Generator: Sketch 52.5 (67469) - http://www.bohemiancoding.com/sketch -->
    <title>Diode_Reverse_Behavior</title>
    <desc>Created with Sketch.</desc>
    <g id="Diode_Reverse_Behavior" stroke="none" stroke-width="1" fill="none" fill-rule="evenodd">
        <rect id="Rectangle" stroke="#3D3530" stroke-width="2" fill="#EEEEEE" x="1" y="1" width="898" height="528"></rect>
        <g id="Illustration" transform="translate(246.000000, 24.000000)">
            <g id="Labels" font-family="MrsEavesOT-Roman, Mrs Eaves OT" font-weight="normal">
                <text id="Current" font-size="24" letter-spacing="1" fill="#524740">
                    <tspan x="308" y="27">Current</tspan>
                </text>
                <text id="Voltage" font-size="24" letter-spacing="1" fill="#524740">
                    <tspan x="0" y="73">Voltage</tspan>
                </text>
                <text id="Breakdown-Voltage" font-size="22" fill="#84705B">
                    <tspan x="124.375" y="16">Breakdown </tspan>
                    <tspan x="140.93" y="38">Voltage</tspan>
                </text>
                <text id="Avalanche-Current" font-size="22" fill="#84705B">
                    <tspan x="32.984" y="166">Avalanche </tspan>
                    <tspan x="40.695" y="188">Current</tspan>
                </text>
                <text id="Narrow-Band-of-Curre" font-size="22" fill="#84705B">
                    <tspan x="185.87" y="154">Narrow Band of </tspan>
                    <tspan x="181.899" y="176">Current Control</tspan>
                </text>
            </g>
            <g id="Graph-Lines" transform="translate(86.000000, 48.000000)">
                <rect id="Rectangle" fill="#CAEBF8" x="54" y="19" width="23" height="59"></rect>
                <path d="M36.268006,19.5 L275.058812,19.5" id="Line-5" stroke="#3D3530" stroke-width="3" stroke-linecap="square"></path>
                <rect id="Rectangle" fill="#23ABE3" x="0" y="18" width="19" height="2.11111111"></rect>
                <path d="M295.444444,17.4444444 L295.444444,9 L297.555556,9 L297.555556,17.4444444 L306,17.4444444 L306,19.5555556 L297.555556,19.5555556 L297.555556,28 L295.444444,28 L295.444444,19.5555556 L287,19.5555556 L287,17.4444444 L295.444444,17.4444444 Z" id="Combined-Shape" fill="#23ABE3"></path>
                <path d="M263.352001,0.111111111 L263.352001,148" id="Line-6" stroke="#3D3530" stroke-width="3" stroke-linecap="square"></path>
                <path d="M78,0.111111111 L78,76.5773684" id="Line-7-Copy" stroke="#23ABE3" stroke-width="2" stroke-linecap="square"></path>
                <path d="M53,20 L53,76.5773684" id="Line-7-Copy-2" stroke="#23ABE3" stroke-width="2" stroke-linecap="square"></path>
                <path d="M262.982714,18 C262.951325,21.3586342 269.471872,21.8999348 81,23.5678275 C61.9631169,23.7362955 51.6297835,66.0126792 50,150.396979" id="Path-9" stroke="#EF7D3B" stroke-width="3"></path>
                <path id="Line-8" d="M81.1897493,71.9987692 L98.5052666,82.1370367 L99.3682299,82.6423033 L98.3576967,84.3682299 L97.4947334,83.8629633 L80.1792161,73.7246958 L77.1476164,78.9024756 L68.6029965,65.788 L84.221349,66.8209895 L81.1897493,71.9987692 Z" fill="#84705B" fill-rule="nonzero"></path>
            </g>
        </g>
        <rect id="Rectangle-Copy" stroke="#3D3530" stroke-width="2" fill="#F8FAE4" x="1" y="246" width="898" height="43"></rect>
        <path d="M500.031999,274 L500.031999,257.872 L503.679999,257.872 C506.336013,257.872 508.447992,258.639992 510.015999,260.176 C511.584007,261.712008 512.367999,263.631988 512.367999,265.936 C512.367999,268.224011 511.580007,270.139992 510.003999,271.684 C508.427992,273.228008 506.320013,274 503.679999,274 L500.031999,274 Z M501.615999,272.488 L503.679999,272.488 C505.79201,272.488 507.479993,271.868006 508.743999,270.628 C510.008006,269.387994 510.639999,267.824009 510.639999,265.936 C510.639999,264.047991 510.008006,262.484006 508.743999,261.244 C507.479993,260.003994 505.79201,259.384 503.679999,259.384 L501.615999,259.384 L501.615999,272.488 Z M517.474666,258.4 C517.298665,258.592001 517.074667,258.688 516.802666,258.688 C516.530665,258.688 516.302667,258.592001 516.118666,258.4 C515.934665,258.207999 515.842666,257.984001 515.842666,257.728 C515.842666,257.471999 515.934665,257.248001 516.118666,257.056 C516.302667,256.863999 516.530665,256.768 516.802666,256.768 C517.074667,256.768 517.302665,256.863999 517.486666,257.056 C517.670667,257.248001 517.762666,257.471999 517.762666,257.728 C517.762666,257.984001 517.666667,258.207999 517.474666,258.4 Z M516.010666,274 L516.010666,262 L517.594666,262 L517.594666,274 L516.010666,274 Z M531.629333,272.368 C530.429327,273.584006 528.973341,274.192 527.261333,274.192 C525.549324,274.192 524.089339,273.588006 522.881333,272.38 C521.673327,271.171994 521.069333,269.712009 521.069333,268 C521.069333,266.287991 521.673327,264.828006 522.881333,263.62 C524.089339,262.411994 525.549324,261.808 527.261333,261.808 C528.973341,261.808 530.433327,262.411994 531.641333,263.62 C532.849339,264.828006 533.453333,266.287991 533.453333,268 C533.453333,269.696008 532.845339,271.151994 531.629333,272.368 Z M527.285333,272.68 C528.581339,272.68 529.673328,272.228005 530.561333,271.324 C531.449337,270.419995 531.893333,269.312007 531.893333,268 C531.893333,266.687993 531.449337,265.576005 530.561333,264.664 C529.673328,263.751995 528.581339,263.296 527.285333,263.296 C526.005326,263.296 524.917337,263.751995 524.021333,264.664 C523.125328,265.576005 522.677333,266.687993 522.677333,268 C522.677333,269.312007 523.125328,270.419995 524.021333,271.324 C524.917337,272.228005 526.005326,272.68 527.285333,272.68 Z M546.743999,256.144 L548.327999,256.144 L548.327999,274 L546.743999,274 L546.743999,272.056 C545.511993,273.480007 543.952009,274.192 542.063999,274.192 C540.351991,274.192 538.892006,273.588006 537.683999,272.38 C536.475993,271.171994 535.871999,269.712009 535.871999,268 C535.871999,266.287991 536.475993,264.828006 537.683999,263.62 C538.892006,262.411994 540.351991,261.808 542.063999,261.808 C543.968009,261.808 545.527993,262.519993 546.743999,263.944 L546.743999,256.144 Z M538.799999,271.336 C539.696004,272.232004 540.791993,272.68 542.087999,272.68 C543.384006,272.68 544.475995,272.228005 545.363999,271.324 C546.252004,270.419995 546.695999,269.312007 546.695999,268 C546.695999,266.687993 546.252004,265.580005 545.363999,264.676 C544.475995,263.771995 543.384006,263.32 542.087999,263.32 C540.791993,263.32 539.696004,263.771995 538.799999,264.676 C537.903995,265.580005 537.455999,266.687993 537.455999,268 C537.455999,269.312007 537.903995,270.423995 538.799999,271.336 Z M557.754666,272.608 C558.826672,272.608 559.786662,272.304003 560.634666,271.696 C561.48267,271.087997 562.058665,270.376004 562.362666,269.56 L563.706666,270.04 C563.338664,271.048005 562.622671,271.975996 561.558666,272.824 C560.494661,273.672004 559.226674,274.088 557.754666,274.072 C556.410659,274.072 555.182672,273.656004 554.070666,272.824 C552.958661,271.991996 552.202668,270.928006 551.802666,269.632 C551.642665,269.103997 551.562666,268.528003 551.562666,267.904 C551.562666,266.175991 552.16266,264.712006 553.362666,263.512 C554.562672,262.311994 556.026658,261.704 557.754666,261.688 C559.322674,261.704 560.69066,262.231995 561.858666,263.272 C563.026672,264.312005 563.698665,265.599992 563.874666,267.136 C563.890666,267.216 563.898666,267.319999 563.898666,267.448 L553.410666,269.344 C553.682668,270.304005 554.226662,271.091997 555.042666,271.708 C555.85867,272.324003 556.762661,272.624 557.754666,272.608 Z M557.610666,263.152 C556.41066,263.168 555.38267,263.599996 554.526666,264.448 C553.670662,265.296004 553.210666,266.311994 553.146666,267.496 C553.146666,267.544 553.150666,267.627999 553.158666,267.748 C553.166666,267.868001 553.170666,267.968 553.170666,268.048 L562.098666,266.44 C561.794665,265.463995 561.22667,264.668003 560.394666,264.052 C559.562662,263.435997 558.634671,263.136 557.610666,263.152 Z M574.64,274 L574.64,257.872 L580.112,257.872 C581.920009,257.872 583.359994,258.347995 584.432,259.3 C585.504005,260.252005 586.04,261.447993 586.04,262.888 C586.04,263.960005 585.724003,264.911996 585.092,265.744 C584.459996,266.576004 583.576005,267.167998 582.44,267.52 L586.04,274 L584.384,274 L580.952,267.856 L579.968,267.904 L576.224,267.904 L576.224,274 L574.64,274 Z M576.224,266.392 L580.112,266.392 C581.408006,266.392 582.447996,266.060003 583.232,265.396 C584.016003,264.731997 584.408,263.896005 584.408,262.888 C584.408,261.895995 584.016003,261.064003 583.232,260.392 C582.447996,259.719997 581.408006,259.384 580.112,259.384 L576.224,259.384 L576.224,266.392 Z M594.482666,272.608 C595.554672,272.608 596.514662,272.304003 597.362666,271.696 C598.21067,271.087997 598.786665,270.376004 599.090666,269.56 L600.434666,270.04 C600.066664,271.048005 599.350672,271.975996 598.286666,272.824 C597.222661,273.672004 595.954674,274.088 594.482666,274.072 C593.138659,274.072 591.910672,273.656004 590.798666,272.824 C589.686661,271.991996 588.930668,270.928006 588.530666,269.632 C588.370665,269.103997 588.290666,268.528003 588.290666,267.904 C588.290666,266.175991 588.89066,264.712006 590.090666,263.512 C591.290672,262.311994 592.754658,261.704 594.482666,261.688 C596.050674,261.704 597.41866,262.231995 598.586666,263.272 C599.754672,264.312005 600.426665,265.599992 600.602666,267.136 C600.618666,267.216 600.626666,267.319999 600.626666,267.448 L590.138666,269.344 C590.410668,270.304005 590.954662,271.091997 591.770666,271.708 C592.58667,272.324003 593.490661,272.624 594.482666,272.608 Z M594.338666,263.152 C593.13866,263.168 592.11067,263.599996 591.254666,264.448 C590.398662,265.296004 589.938667,266.311994 589.874666,267.496 C589.874666,267.544 589.878666,267.627999 589.886666,267.748 C589.894666,267.868001 589.898666,267.968 589.898666,268.048 L598.826666,266.44 C598.522665,265.463995 597.95467,264.668003 597.122666,264.052 C596.290662,263.435997 595.362671,263.136 594.338666,263.152 Z M610.917333,262 L612.501333,262 L608.253333,274 L606.669333,274 L602.445333,262 L604.029333,262 L607.461333,271.768 L610.917333,262 Z M620.176,272.608 C621.248005,272.608 622.207995,272.304003 623.056,271.696 C623.904004,271.087997 624.479998,270.376004 624.784,269.56 L626.128,270.04 C625.759998,271.048005 625.044005,271.975996 623.98,272.824 C622.915994,273.672004 621.648007,274.088 620.176,274.072 C618.831993,274.072 617.604005,273.656004 616.492,272.824 C615.379994,271.991996 614.624002,270.928006 614.224,269.632 C614.063999,269.103997 613.984,268.528003 613.984,267.904 C613.984,266.175991 614.583994,264.712006 615.784,263.512 C616.984006,262.311994 618.447991,261.704 620.176,261.688 C621.744007,261.704 623.111994,262.231995 624.28,263.272 C625.448005,264.312005 626.119999,265.599992 626.296,267.136 C626.312,267.216 626.32,267.319999 626.32,267.448 L615.832,269.344 C616.104001,270.304005 616.647996,271.091997 617.464,271.708 C618.280004,272.324003 619.183995,272.624 620.176,272.608 Z M620.032,263.152 C618.831994,263.168 617.804004,263.599996 616.948,264.448 C616.091995,265.296004 615.632,266.311994 615.568,267.496 C615.568,267.544 615.572,267.627999 615.58,267.748 C615.588,267.868001 615.592,267.968 615.592,268.048 L624.52,266.44 C624.215998,265.463995 623.648004,264.668003 622.816,264.052 C621.983995,263.435997 621.056005,263.136 620.032,263.152 Z M634.666666,261.808 C635.514671,261.808 636.290663,262.015998 636.994666,262.432 L636.442666,264.016 C635.770663,263.519998 635.09067,263.272 634.402666,263.272 C633.394661,263.272 632.54667,263.627996 631.858666,264.34 C631.170663,265.052004 630.826666,265.927995 630.826666,266.968 L630.826666,274 L629.242666,274 L629.242666,262 L630.826666,262 L630.826666,263.776 C631.802671,262.463993 633.082658,261.808 634.666666,261.808 Z M643.181333,274.192 C642.63733,274.192 642.109336,274.124001 641.597333,273.988 C641.08533,273.851999 640.657335,273.692001 640.313333,273.508 C639.969331,273.323999 639.661334,273.136001 639.389333,272.944 C639.117332,272.751999 638.917334,272.592001 638.789333,272.464 L638.597333,272.248 L639.725333,271.288 C639.837334,271.400001 639.993332,271.535999 640.193333,271.696 C640.393334,271.856001 640.79733,272.071999 641.405333,272.344 C642.013336,272.616001 642.61333,272.752 643.205333,272.752 C644.085337,272.752 644.78933,272.584002 645.317333,272.248 C645.845336,271.911998 646.109333,271.440003 646.109333,270.832 C646.109333,270.399998 645.845336,270.028002 645.317333,269.716 C644.78933,269.403998 644.149337,269.136001 643.397333,268.912 C642.645329,268.687999 641.889337,268.440001 641.129333,268.168 C640.369329,267.895999 639.725336,267.512002 639.197333,267.016 C638.66933,266.519998 638.405333,265.912004 638.405333,265.192 C638.405333,264.199995 638.777329,263.388003 639.521333,262.756 C640.265337,262.123997 641.365326,261.808 642.821333,261.808 C643.685337,261.808 644.501329,261.967998 645.269333,262.288 C646.037337,262.608002 646.589331,262.927998 646.925333,263.248 L647.429333,263.728 L646.301333,264.712 C646.189332,264.599999 646.033334,264.464001 645.833333,264.304 C645.633332,264.143999 645.229336,263.928001 644.621333,263.656 C644.01333,263.383999 643.405336,263.248 642.797333,263.248 C641.933329,263.248 641.233336,263.415998 640.697333,263.752 C640.16133,264.088002 639.893333,264.559997 639.893333,265.168 C639.893333,265.600002 640.15733,265.971998 640.685333,266.284 C641.213336,266.596002 641.853329,266.863999 642.605333,267.088 C643.357337,267.312001 644.113329,267.555999 644.873333,267.82 C645.633337,268.084001 646.27733,268.467997 646.805333,268.972 C647.333336,269.476003 647.597333,270.087996 647.597333,270.808 C647.597333,271.816005 647.229337,272.631997 646.493333,273.256 C645.757329,273.880003 644.65334,274.192 643.181333,274.192 Z M656.16,272.608 C657.232005,272.608 658.191995,272.304003 659.04,271.696 C659.888004,271.087997 660.463998,270.376004 660.768,269.56 L662.112,270.04 C661.743998,271.048005 661.028005,271.975996 659.964,272.824 C658.899994,273.672004 657.632007,274.088 656.16,274.072 C654.815993,274.072 653.588005,273.656004 652.476,272.824 C651.363994,271.991996 650.608002,270.928006 650.208,269.632 C650.047999,269.103997 649.968,268.528003 649.968,267.904 C649.968,266.175991 650.567994,264.712006 651.768,263.512 C652.968006,262.311994 654.431991,261.704 656.16,261.688 C657.728007,261.704 659.095994,262.231995 660.264,263.272 C661.432005,264.312005 662.103999,265.599992 662.28,267.136 C662.296,267.216 662.304,267.319999 662.304,267.448 L651.816,269.344 C652.088001,270.304005 652.631996,271.091997 653.448,271.708 C654.264004,272.324003 655.167995,272.624 656.16,272.608 Z M656.016,263.152 C654.815994,263.168 653.788004,263.599996 652.932,264.448 C652.075995,265.296004 651.616,266.311994 651.552,267.496 C651.552,267.544 651.556,267.627999 651.564,267.748 C651.572,267.868001 651.576,267.968 651.576,268.048 L660.504,266.44 C660.199998,265.463995 659.632004,264.668003 658.8,264.052 C657.967995,263.435997 657.040005,263.136 656.016,263.152 Z M684.925333,257.872 L686.533333,257.872 L680.173333,274 L678.565333,274 L672.181333,257.872 L673.813333,257.872 L679.381333,271.96 L684.925333,257.872 Z M697.232,272.368 C696.031994,273.584006 694.576008,274.192 692.864,274.192 C691.151991,274.192 689.692006,273.588006 688.484,272.38 C687.275994,271.171994 686.672,269.712009 686.672,268 C686.672,266.287991 687.275994,264.828006 688.484,263.62 C689.692006,262.411994 691.151991,261.808 692.864,261.808 C694.576008,261.808 696.035994,262.411994 697.244,263.62 C698.452006,264.828006 699.056,266.287991 699.056,268 C699.056,269.696008 698.448006,271.151994 697.232,272.368 Z M692.888,272.68 C694.184006,272.68 695.275995,272.228005 696.164,271.324 C697.052004,270.419995 697.496,269.312007 697.496,268 C697.496,266.687993 697.052004,265.576005 696.164,264.664 C695.275995,263.751995 694.184006,263.296 692.888,263.296 C691.607993,263.296 690.520004,263.751995 689.624,264.664 C688.727995,265.576005 688.28,266.687993 688.28,268 C688.28,269.312007 688.727995,270.419995 689.624,271.324 C690.520004,272.228005 691.607993,272.68 692.888,272.68 Z M702.338666,274 L702.338666,256.144 L703.922666,256.144 L703.922666,274 L702.338666,274 Z M714.741333,271.312 L715.533333,272.536 C715.437333,272.664001 715.309334,272.815999 715.149333,272.992 C714.989332,273.168001 714.629336,273.411998 714.069333,273.724 C713.50933,274.036002 712.933336,274.192 712.341333,274.192 C711.333328,274.192 710.489336,273.892003 709.809333,273.292 C709.12933,272.691997 708.789333,271.824006 708.789333,270.688 L708.789333,263.44 L706.869333,263.44 L706.869333,261.976 L708.789333,261.976 L708.789333,258.184 L710.373333,257.992 L710.373333,261.976 L713.997333,261.976 L713.997333,263.44 L710.373333,263.44 L710.373333,270.328 C710.373333,271.064004 710.601331,271.647998 711.057333,272.08 C711.513335,272.512002 712.03733,272.728 712.629333,272.728 C712.997335,272.728 713.357331,272.616001 713.709333,272.392 C714.061335,272.167999 714.321332,271.948001 714.489333,271.732 C714.657334,271.515999 714.741333,271.376 714.741333,271.312 Z M727.864,262 L729.448,262 L729.448,274 L727.864,274 L727.864,272.056 C726.631994,273.480007 725.072009,274.192 723.184,274.192 C721.471991,274.192 720.012006,273.588006 718.804,272.38 C717.595994,271.171994 716.992,269.712009 716.992,268 C716.992,266.287991 717.595994,264.828006 718.804,263.62 C720.012006,262.411994 721.471991,261.808 723.184,261.808 C725.088009,261.808 726.647994,262.519993 727.864,263.944 L727.864,262 Z M723.208,272.68 C724.504006,272.68 725.595995,272.228005 726.484,271.324 C727.372004,270.419995 727.816,269.312007 727.816,268 C727.816,266.687993 727.372004,265.580005 726.484,264.676 C725.595995,263.771995 724.504006,263.32 723.208,263.32 C721.927993,263.32 720.836004,263.771995 719.932,264.676 C719.027995,265.580005 718.576,266.687993 718.576,268 C718.576,269.312007 719.027995,270.419995 719.932,271.324 C720.836004,272.228005 721.927993,272.68 723.208,272.68 Z M743.578666,262.024 L745.186666,262.024 L745.186666,272.968 C745.170666,274.712009 744.542673,276.171994 743.302666,277.348 C742.06266,278.524006 740.626675,279.112 738.994666,279.112 C737.506659,279.112 736.238672,278.716004 735.190666,277.924 C734.142661,277.131996 733.434668,276.240005 733.066666,275.248 L734.362666,274.6 C734.666668,275.416004 735.242662,276.127997 736.090666,276.736 C736.938671,277.344003 737.906661,277.648 738.994666,277.648 C740.274673,277.648 741.358662,277.180005 742.246666,276.244 C743.134671,275.307995 743.586666,274.216006 743.602666,272.968 L743.578666,272.968 L743.578666,272.08 C742.36266,273.504007 740.802676,274.216 738.898666,274.216 C737.186658,274.216 735.726672,273.612006 734.518666,272.404 C733.31066,271.195994 732.706666,269.736009 732.706666,268.024 C732.706666,266.311991 733.31066,264.852006 734.518666,263.644 C735.726672,262.435994 737.186658,261.832 738.898666,261.832 C740.786676,261.832 742.34666,262.543993 743.578666,263.968 L743.578666,262.024 Z M738.922666,272.728 C740.218673,272.728 741.310662,272.276005 742.198666,271.372 C743.086671,270.467995 743.530666,269.360007 743.530666,268.048 C743.530666,266.735993 743.086671,265.628005 742.198666,264.724 C741.310662,263.819995 740.218673,263.368 738.922666,263.368 C737.64266,263.368 736.554671,263.819995 735.658666,264.724 C734.762662,265.628005 734.314666,266.735993 734.314666,268.048 C734.314666,269.360007 734.762662,270.467995 735.658666,271.372 C736.554671,272.276005 737.64266,272.728 738.922666,272.728 Z M754.661333,272.608 C755.733338,272.608 756.693329,272.304003 757.541333,271.696 C758.389337,271.087997 758.965332,270.376004 759.269333,269.56 L760.613333,270.04 C760.245331,271.048005 759.529338,271.975996 758.465333,272.824 C757.401328,273.672004 756.13334,274.088 754.661333,274.072 C753.317326,274.072 752.089339,273.656004 750.977333,272.824 C749.865328,271.991996 749.109335,270.928006 748.709333,269.632 C748.549332,269.103997 748.469333,268.528003 748.469333,267.904 C748.469333,266.175991 749.069327,264.712006 750.269333,263.512 C751.469339,262.311994 752.933324,261.704 754.661333,261.688 C756.229341,261.704 757.597327,262.231995 758.765333,263.272 C759.933339,264.312005 760.605332,265.599992 760.781333,267.136 C760.797333,267.216 760.805333,267.319999 760.805333,267.448 L750.317333,269.344 C750.589334,270.304005 751.133329,271.091997 751.949333,271.708 C752.765337,272.324003 753.669328,272.624 754.661333,272.608 Z M754.517333,263.152 C753.317327,263.168 752.289337,263.599996 751.433333,264.448 C750.577329,265.296004 750.117333,266.311994 750.053333,267.496 C750.053333,267.544 750.057333,267.627999 750.065333,267.748 C750.073333,267.868001 750.077333,267.968 750.077333,268.048 L759.005333,266.44 C758.701332,265.463995 758.133337,264.668003 757.301333,264.052 C756.469329,263.435997 755.541338,263.136 754.517333,263.152 Z M771.546667,274 L771.546667,257.872 L777.018667,257.872 C778.826676,257.872 780.266661,258.347995 781.338667,259.3 C782.410672,260.252005 782.946667,261.447993 782.946667,262.888 C782.946667,263.960005 782.63067,264.911996 781.998667,265.744 C781.366663,266.576004 780.482672,267.167998 779.346667,267.52 L782.946667,274 L781.290667,274 L777.858667,267.856 L776.874667,267.904 L773.130667,267.904 L773.130667,274 L771.546667,274 Z M773.130667,266.392 L777.018667,266.392 C778.314673,266.392 779.354663,266.060003 780.138667,265.396 C780.92267,264.731997 781.314667,263.896005 781.314667,262.888 C781.314667,261.895995 780.92267,261.064003 780.138667,260.392 C779.354663,259.719997 778.314673,259.384 777.018667,259.384 L773.130667,259.384 L773.130667,266.392 Z M791.389333,272.608 C792.461339,272.608 793.421329,272.304003 794.269333,271.696 C795.117337,271.087997 795.693332,270.376004 795.997333,269.56 L797.341333,270.04 C796.973331,271.048005 796.257339,271.975996 795.193333,272.824 C794.129328,273.672004 792.861341,274.088 791.389333,274.072 C790.045326,274.072 788.817339,273.656004 787.705333,272.824 C786.593328,271.991996 785.837335,270.928006 785.437333,269.632 C785.277332,269.103997 785.197333,268.528003 785.197333,267.904 C785.197333,266.175991 785.797327,264.712006 786.997333,263.512 C788.197339,262.311994 789.661325,261.704 791.389333,261.688 C792.957341,261.704 794.325327,262.231995 795.493333,263.272 C796.661339,264.312005 797.333332,265.599992 797.509333,267.136 C797.525333,267.216 797.533333,267.319999 797.533333,267.448 L787.045333,269.344 C787.317335,270.304005 787.861329,271.091997 788.677333,271.708 C789.493337,272.324003 790.397328,272.624 791.389333,272.608 Z M791.245333,263.152 C790.045327,263.168 789.017337,263.599996 788.161333,264.448 C787.305329,265.296004 786.845334,266.311994 786.781333,267.496 C786.781333,267.544 786.785333,267.627999 786.793333,267.748 C786.801333,267.868001 786.805333,267.968 786.805333,268.048 L795.733333,266.44 C795.429332,265.463995 794.861337,264.668003 794.029333,264.052 C793.197329,263.435997 792.269338,263.136 791.245333,263.152 Z M804.656,274.192 C804.111997,274.192 803.584002,274.124001 803.072,273.988 C802.559997,273.851999 802.132002,273.692001 801.788,273.508 C801.443998,273.323999 801.136001,273.136001 800.864,272.944 C800.591999,272.751999 800.392001,272.592001 800.264,272.464 L800.072,272.248 L801.2,271.288 C801.312,271.400001 801.467999,271.535999 801.668,271.696 C801.868001,271.856001 802.271997,272.071999 802.88,272.344 C803.488003,272.616001 804.087997,272.752 804.68,272.752 C805.560004,272.752 806.263997,272.584002 806.792,272.248 C807.320003,271.911998 807.584,271.440003 807.584,270.832 C807.584,270.399998 807.320003,270.028002 806.792,269.716 C806.263997,269.403998 805.624004,269.136001 804.872,268.912 C804.119996,268.687999 803.364004,268.440001 802.604,268.168 C801.843996,267.895999 801.200003,267.512002 800.672,267.016 C800.143997,266.519998 799.88,265.912004 799.88,265.192 C799.88,264.199995 800.251996,263.388003 800.996,262.756 C801.740004,262.123997 802.839993,261.808 804.296,261.808 C805.160004,261.808 805.975996,261.967998 806.744,262.288 C807.512004,262.608002 808.063998,262.927998 808.4,263.248 L808.904,263.728 L807.776,264.712 C807.663999,264.599999 807.508001,264.464001 807.308,264.304 C807.107999,264.143999 806.704003,263.928001 806.096,263.656 C805.487997,263.383999 804.880003,263.248 804.272,263.248 C803.407996,263.248 802.708003,263.415998 802.172,263.752 C801.635997,264.088002 801.368,264.559997 801.368,265.168 C801.368,265.600002 801.631997,265.971998 802.16,266.284 C802.688003,266.596002 803.327996,266.863999 804.08,267.088 C804.832004,267.312001 805.587996,267.555999 806.348,267.82 C807.108004,268.084001 807.751997,268.467997 808.28,268.972 C808.808003,269.476003 809.072,270.087996 809.072,270.808 C809.072,271.816005 808.704004,272.631997 807.968,273.256 C807.231996,273.880003 806.128007,274.192 804.656,274.192 Z M818.762667,261.784 C820.474675,261.784 821.934661,262.387994 823.142667,263.596 C824.350673,264.804006 824.954667,266.263991 824.954667,267.976 C824.954667,269.688009 824.350673,271.147994 823.142667,272.356 C821.934661,273.564006 820.474675,274.168 818.762667,274.168 C816.842657,274.168 815.274673,273.440007 814.058667,271.984 L814.058667,279.832 L812.474667,279.832 L812.474667,261.976 L814.058667,261.976 L814.058667,263.944 C815.290673,262.503993 816.858657,261.784 818.762667,261.784 Z M815.450667,271.312 C816.346671,272.208004 817.43466,272.656 818.714667,272.656 C819.994673,272.656 821.086662,272.204005 821.990667,271.3 C822.894671,270.395995 823.346667,269.288007 823.346667,267.976 C823.346667,266.663993 822.894671,265.552005 821.990667,264.64 C821.086662,263.727995 819.994673,263.272 818.714667,263.272 C817.43466,263.272 816.346671,263.727995 815.450667,264.64 C814.554662,265.552005 814.106667,266.663993 814.106667,267.976 C814.106667,269.288007 814.554662,270.399995 815.450667,271.312 Z M837.933333,272.368 C836.733327,273.584006 835.277342,274.192 833.565333,274.192 C831.853325,274.192 830.393339,273.588006 829.185333,272.38 C827.977327,271.171994 827.373333,269.712009 827.373333,268 C827.373333,266.287991 827.977327,264.828006 829.185333,263.62 C830.393339,262.411994 831.853325,261.808 833.565333,261.808 C835.277342,261.808 836.737327,262.411994 837.945333,263.62 C839.153339,264.828006 839.757333,266.287991 839.757333,268 C839.757333,269.696008 839.149339,271.151994 837.933333,272.368 Z M833.589333,272.68 C834.88534,272.68 835.977329,272.228005 836.865333,271.324 C837.753338,270.419995 838.197333,269.312007 838.197333,268 C838.197333,266.687993 837.753338,265.576005 836.865333,264.664 C835.977329,263.751995 834.88534,263.296 833.589333,263.296 C832.309327,263.296 831.221338,263.751995 830.325333,264.664 C829.429329,265.576005 828.981333,266.687993 828.981333,268 C828.981333,269.312007 829.429329,270.419995 830.325333,271.324 C831.221338,272.228005 832.309327,272.68 833.589333,272.68 Z M848.224,261.808 C849.616007,261.808 850.783995,262.299995 851.728,263.284 C852.672005,264.268005 853.144,265.479993 853.144,266.92 L853.144,274 L851.536,274 L851.536,266.968 C851.536,265.943995 851.188003,265.072004 850.492,264.352 C849.795996,263.631996 848.952005,263.272 847.96,263.272 C846.967995,263.272 846.124003,263.631996 845.428,264.352 C844.731996,265.072004 844.384,265.943995 844.384,266.968 L844.384,274 L842.8,274 L842.8,262 L844.384,262 L844.384,263.776 C845.360005,262.463993 846.639992,261.808 848.224,261.808 Z M861.058667,274.192 C860.514664,274.192 859.986669,274.124001 859.474667,273.988 C858.962664,273.851999 858.534668,273.692001 858.190667,273.508 C857.846665,273.323999 857.538668,273.136001 857.266667,272.944 C856.994665,272.751999 856.794667,272.592001 856.666667,272.464 L856.474667,272.248 L857.602667,271.288 C857.714667,271.400001 857.870666,271.535999 858.070667,271.696 C858.270668,271.856001 858.674664,272.071999 859.282667,272.344 C859.89067,272.616001 860.490664,272.752 861.082667,272.752 C861.962671,272.752 862.666664,272.584002 863.194667,272.248 C863.722669,271.911998 863.986667,271.440003 863.986667,270.832 C863.986667,270.399998 863.722669,270.028002 863.194667,269.716 C862.666664,269.403998 862.02667,269.136001 861.274667,268.912 C860.522663,268.687999 859.76667,268.440001 859.006667,268.168 C858.246663,267.895999 857.602669,267.512002 857.074667,267.016 C856.546664,266.519998 856.282667,265.912004 856.282667,265.192 C856.282667,264.199995 856.654663,263.388003 857.398667,262.756 C858.14267,262.123997 859.242659,261.808 860.698667,261.808 C861.562671,261.808 862.378663,261.967998 863.146667,262.288 C863.91467,262.608002 864.466665,262.927998 864.802667,263.248 L865.306667,263.728 L864.178667,264.712 C864.066666,264.599999 863.910668,264.464001 863.710667,264.304 C863.510666,264.143999 863.10667,263.928001 862.498667,263.656 C861.890664,263.383999 861.28267,263.248 860.674667,263.248 C859.810662,263.248 859.110669,263.415998 858.574667,263.752 C858.038664,264.088002 857.770667,264.559997 857.770667,265.168 C857.770667,265.600002 858.034664,265.971998 858.562667,266.284 C859.090669,266.596002 859.730663,266.863999 860.482667,267.088 C861.23467,267.312001 861.990663,267.555999 862.750667,267.82 C863.51067,268.084001 864.154664,268.467997 864.682667,268.972 C865.210669,269.476003 865.474667,270.087996 865.474667,270.808 C865.474667,271.816005 865.10667,272.631997 864.370667,273.256 C863.634663,273.880003 862.530674,274.192 861.058667,274.192 Z M874.037333,272.608 C875.109339,272.608 876.069329,272.304003 876.917333,271.696 C877.765338,271.087997 878.341332,270.376004 878.645333,269.56 L879.989333,270.04 C879.621331,271.048005 878.905339,271.975996 877.841333,272.824 C876.777328,273.672004 875.509341,274.088 874.037333,274.072 C872.693327,274.072 871.465339,273.656004 870.353333,272.824 C869.241328,271.991996 868.485335,270.928006 868.085333,269.632 C867.925333,269.103997 867.845333,268.528003 867.845333,267.904 C867.845333,266.175991 868.445327,264.712006 869.645333,263.512 C870.845339,262.311994 872.309325,261.704 874.037333,261.688 C875.605341,261.704 876.973327,262.231995 878.141333,263.272 C879.309339,264.312005 879.981332,265.599992 880.157333,267.136 C880.173333,267.216 880.181333,267.319999 880.181333,267.448 L869.693333,269.344 C869.965335,270.304005 870.509329,271.091997 871.325333,271.708 C872.141337,272.324003 873.045328,272.624 874.037333,272.608 Z M873.893333,263.152 C872.693327,263.168 871.665338,263.599996 870.809333,264.448 C869.953329,265.296004 869.493334,266.311994 869.429333,267.496 C869.429333,267.544 869.433333,267.627999 869.441333,267.748 C869.449333,267.868001 869.453333,267.968 869.453333,268.048 L878.381333,266.44 C878.077332,265.463995 877.509337,264.668003 876.677333,264.052 C875.845329,263.435997 874.917338,263.136 873.893333,263.152 Z" id="Diode-Reverse-Voltag-Copy" fill="#23ABE3"></path>
    </g>
</svg>