<?xml version="1.0" encoding="UTF-8"?>
<svg width="900px" height="430px" viewBox="0 0 900 430" version="1.1" xmlns="http://www.w3.org/2000/svg" xmlns:xlink="http://www.w3.org/1999/xlink">
    <!-- Generator: Sketch 52.5 (67469) - http://www.bohemiancoding.com/sketch -->
    <title>Diode_Forward_Bias</title>
    <desc>Created with Sketch.</desc>
    <g id="Diode_Forward_Bias" stroke="none" stroke-width="1" fill="none" fill-rule="evenodd">
        <rect id="Rectangle" stroke="#3D3530" stroke-width="2" fill="#EEEEEE" x="1" y="1" width="898" height="428"></rect>
        <g id="Illustration" transform="translate(79.000000, 26.000000)">
            <g id="Lattice-Junction" transform="translate(18.000000, 0.000000)">
                <g id="P-Type-Lattice" transform="translate(193.000000, 31.000000)">
                    <rect id="Rectangle" stroke="#999999" stroke-width="2" fill="#D4D4D4" x="1" y="1" width="158" height="158"></rect>
                    <circle id="Oval-Copy-3" fill="#252525" cx="20.5" cy="18.5" r="10.5"></circle>
                    <circle id="Oval-Copy-5" fill="#252525" cx="20.5" cy="58.5" r="10.5"></circle>
                    <circle id="Oval-Copy-6" fill="#252525" cx="20.5" cy="98.5" r="10.5"></circle>
                    <circle id="Oval-Copy-10" fill="#252525" cx="50.5" cy="38.5" r="10.5"></circle>
                    <circle id="Oval-Copy-8" fill="#252525" cx="50.5" cy="118.5" r="10.5"></circle>
                    <g id="Negative-Ion" transform="translate(100.000000, 28.000000)">
                        <circle id="Oval-Copy-26" fill="#84D0EF" cx="10.5" cy="10.5" r="10.5"></circle>
                        <rect id="Rectangle" fill="#524740" x="6" y="10" width="9" height="1"></rect>
                    </g>
                    <circle id="Oval-Copy-25" fill="#252525" cx="110.5" cy="78.5" r="10.5"></circle>
                    <circle id="Oval-Copy-24" fill="#252525" cx="110.5" cy="118.5" r="10.5"></circle>
                    <g id="Negative-Ion" transform="translate(40.000000, 68.000000)">
                        <circle id="Oval-Copy-9" fill="#84D0EF" cx="10.5" cy="10.5" r="10.5"></circle>
                        <rect id="Rectangle" fill="#524740" x="6" y="10" width="9" height="1"></rect>
                    </g>
                    <g id="Negative-Ion" transform="translate(10.000000, 128.000000)">
                        <circle id="Oval-Copy-7" fill="#84D0EF" cx="10.5" cy="10.5" r="10.5"></circle>
                        <rect id="Rectangle" fill="#524740" x="6" y="10" width="9" height="1"></rect>
                    </g>
                    <circle id="Oval-Copy-23" fill="#252525" cx="80.5" cy="18.5" r="10.5"></circle>
                    <circle id="Oval-Copy-22" fill="#252525" cx="80.5" cy="58.5" r="10.5"></circle>
                    <g id="Negative-Ion" transform="translate(70.000000, 88.000000)">
                        <circle id="Oval-Copy-21" fill="#84D0EF" cx="10.5" cy="10.5" r="10.5"></circle>
                        <rect id="Rectangle" fill="#524740" x="6" y="10" width="9" height="1"></rect>
                    </g>
                    <circle id="Oval-Copy-20" fill="#252525" cx="80.5" cy="138.5" r="10.5"></circle>
                    <circle id="Oval-Copy-30" fill="#252525" cx="140.5" cy="18.5" r="10.5"></circle>
                    <circle id="Oval-Copy-29" fill="#252525" cx="140.5" cy="58.5" r="10.5"></circle>
                    <circle id="Oval-Copy-28" fill="#252525" cx="140.5" cy="98.5" r="10.5"></circle>
                    <circle id="Oval-Copy-27" fill="#252525" cx="140.5" cy="138.5" r="10.5"></circle>
                    <g id="Little-Ones" transform="translate(4.000000, 23.000000)" fill="#84D0EF">
                        <circle id="Oval-Copy-31" cx="25.25" cy="53.25" r="3.25"></circle>
                        <circle id="Oval-Copy-32" cx="38.25" cy="32.25" r="3.25"></circle>
                        <circle id="Oval-Copy-33" cx="28.25" cy="4.25" r="3.25"></circle>
                        <circle id="Oval-Copy-34" cx="69.25" cy="12.25" r="3.25"></circle>
                        <circle id="Oval-Copy-35" cx="79.25" cy="52.25" r="3.25"></circle>
                        <circle id="Oval-Copy-36" cx="60.25" cy="73.25" r="3.25"></circle>
                        <circle id="Oval-Copy-37" cx="35.25" cy="84.25" r="3.25"></circle>
                        <circle id="Oval-Copy-38" cx="31.25" cy="126.25" r="3.25"></circle>
                        <circle id="Oval-Copy-39" cx="3.25" cy="93.25" r="3.25"></circle>
                        <circle id="Oval-Copy-40" cx="55.25" cy="111.25" r="3.25"></circle>
                        <circle id="Oval-Copy-42" cx="90.25" cy="92.25" r="3.25"></circle>
                        <circle id="Oval-Copy-43" cx="90.25" cy="122.25" r="3.25"></circle>
                        <circle id="Oval-Copy-49" cx="96.25" cy="3.25" r="3.25"></circle>
                    </g>
                </g>
                <g id="N-Type-Lattice" transform="translate(351.000000, 31.000000)">
                    <rect id="Rectangle" stroke="#999999" stroke-width="2" fill="#7D7570" x="1" y="1" width="158" height="158"></rect>
                    <circle id="Oval-Copy-3" fill="#252525" cx="20.5" cy="18.5" r="10.5"></circle>
                    <circle id="Oval-Copy-5" fill="#252525" cx="20.5" cy="58.5" r="10.5"></circle>
                    <circle id="Oval-Copy-6" fill="#252525" cx="20.5" cy="98.5" r="10.5"></circle>
                    <circle id="Oval-Copy-10" fill="#252525" cx="50.5" cy="38.5" r="10.5"></circle>
                    <g id="Positive-Ion" transform="translate(40.000000, 68.000000)">
                        <circle id="Oval-Copy-9" fill="#D7E465" cx="10.5" cy="10.5" r="10.5"></circle>
                        <path d="M10,10 L10,6 L11,6 L11,10 L15,10 L15,11 L11,11 L11,15 L10,15 L10,11 L6,11 L6,10 L10,10 Z" id="Combined-Shape" fill="#524740"></path>
                    </g>
                    <circle id="Oval-Copy-8" fill="#252525" cx="50.5" cy="118.5" r="10.5"></circle>
                    <g id="Positive-Ion" transform="translate(100.000000, 28.000000)">
                        <circle id="Oval-Copy-26" fill="#D7E465" cx="10.5" cy="10.5" r="10.5"></circle>
                        <path d="M10,10 L10,6 L11,6 L11,10 L15,10 L15,11 L11,11 L11,15 L10,15 L10,11 L6,11 L6,10 L10,10 Z" id="Combined-Shape" fill="#524740"></path>
                    </g>
                    <circle id="Oval-Copy-25" fill="#252525" cx="110.5" cy="78.5" r="10.5"></circle>
                    <circle id="Oval-Copy-24" fill="#252525" cx="110.5" cy="118.5" r="10.5"></circle>
                    <g id="Positive-Ion" transform="translate(10.000000, 128.000000)">
                        <circle id="Oval-Copy-7" fill="#D7E465" cx="10.5" cy="10.5" r="10.5"></circle>
                        <path d="M10,10 L10,6 L11,6 L11,10 L15,10 L15,11 L11,11 L11,15 L10,15 L10,11 L6,11 L6,10 L10,10 Z" id="Combined-Shape" fill="#524740"></path>
                    </g>
                    <circle id="Oval-Copy-23" fill="#252525" cx="80.5" cy="18.5" r="10.5"></circle>
                    <circle id="Oval-Copy-22" fill="#252525" cx="80.5" cy="58.5" r="10.5"></circle>
                    <g id="Positive-Ion" transform="translate(70.000000, 88.000000)">
                        <circle id="Oval-Copy-21" fill="#D7E465" cx="10.5" cy="10.5" r="10.5"></circle>
                        <path d="M10,10 L10,6 L11,6 L11,10 L15,10 L15,11 L11,11 L11,15 L10,15 L10,11 L6,11 L6,10 L10,10 Z" id="Combined-Shape" fill="#524740"></path>
                    </g>
                    <circle id="Oval-Copy-20" fill="#252525" cx="80.5" cy="138.5" r="10.5"></circle>
                    <circle id="Oval-Copy-30" fill="#252525" cx="140.5" cy="18.5" r="10.5"></circle>
                    <circle id="Oval-Copy-29" fill="#252525" cx="140.5" cy="58.5" r="10.5"></circle>
                    <circle id="Oval-Copy-28" fill="#252525" cx="140.5" cy="98.5" r="10.5"></circle>
                    <circle id="Oval-Copy-27" fill="#252525" cx="140.5" cy="138.5" r="10.5"></circle>
                    <g id="Little-ones" transform="translate(56.000000, 8.000000)" fill="#EF7D3B">
                        <circle id="Oval-Copy-34" cx="17.25" cy="27.25" r="3.25"></circle>
                        <circle id="Oval-Copy-35" cx="27.25" cy="67.25" r="3.25"></circle>
                        <circle id="Oval-Copy-36" cx="8.25" cy="88.25" r="3.25"></circle>
                        <circle id="Oval-Copy-40" cx="3.25" cy="126.25" r="3.25"></circle>
                        <circle id="Oval-Copy-41" cx="63.25" cy="126.25" r="3.25"></circle>
                        <circle id="Oval-Copy-42" cx="38.25" cy="107.25" r="3.25"></circle>
                        <circle id="Oval-Copy-43" cx="38.25" cy="137.25" r="3.25"></circle>
                        <circle id="Oval-Copy-44" cx="78.25" cy="146.25" r="3.25"></circle>
                        <circle id="Oval-Copy-45" cx="98.25" cy="96.25" r="3.25"></circle>
                        <circle id="Oval-Copy-46" cx="67.25" cy="82.25" r="3.25"></circle>
                        <circle id="Oval-Copy-47" cx="77.25" cy="37.25" r="3.25"></circle>
                        <circle id="Oval-Copy-48" cx="67.25" cy="3.25" r="3.25"></circle>
                        <circle id="Oval-Copy-49" cx="44.25" cy="18.25" r="3.25"></circle>
                    </g>
                </g>
                <circle id="Oval-Copy-41" fill="#84D0EF" cx="312.25" cy="165.25" r="3.25"></circle>
                <circle id="Oval-Copy-44" fill="#84D0EF" cx="327.25" cy="185.25" r="3.25"></circle>
                <circle id="Oval-Copy-45" fill="#84D0EF" cx="347.25" cy="135.25" r="3.25"></circle>
                <circle id="Oval-Copy-46" fill="#84D0EF" cx="316.25" cy="121.25" r="3.25"></circle>
                <circle id="Oval-Copy-47" fill="#84D0EF" cx="326.25" cy="76.25" r="3.25"></circle>
                <circle id="Oval-Copy-48" fill="#84D0EF" cx="316.25" cy="42.25" r="3.25"></circle>
                <circle id="Oval-Copy-31" fill="#EF7D3B" cx="380.25" cy="107.25" r="3.25"></circle>
                <circle id="Oval-Copy-32" fill="#EF7D3B" cx="393.25" cy="86.25" r="3.25"></circle>
                <circle id="Oval-Copy-33" fill="#EF7D3B" cx="383.25" cy="58.25" r="3.25"></circle>
                <circle id="Oval-Copy-37" fill="#EF7D3B" cx="390.25" cy="138.25" r="3.25"></circle>
                <circle id="Oval-Copy-38" fill="#EF7D3B" cx="386.25" cy="180.25" r="3.25"></circle>
                <circle id="Oval-Copy-39" fill="#EF7D3B" cx="358.25" cy="147.25" r="3.25"></circle>
                <path d="M248.248,2.6 C249.864008,2.6 251.127995,2.98399616 252.04,3.752 C252.952005,4.52000384 253.408,5.48799416 253.408,6.656 C253.408,7.82400584 252.952005,8.7879962 252.04,9.548 C251.127995,10.3080038 249.864008,10.688 248.248,10.688 L246.112,10.688 L246.112,13.688 C246.112,14.888006 246.243999,15.6559983 246.508,15.992 C246.772001,16.3280017 247.399995,16.496 248.392,16.496 L248.392,17 L241.912,17 L241.912,16.496 C242.904005,16.496 243.531999,16.3280017 243.796,15.992 C244.060001,15.6559983 244.192,14.888006 244.192,13.688 L244.192,5.888 C244.192,4.687994 244.060001,3.92400164 243.796,3.596 C243.531999,3.26799836 242.904005,3.104 241.912,3.104 L241.912,2.6 L248.248,2.6 Z M248.224,9.824 C249.216005,9.824 249.971997,9.52800296 250.492,8.936 C251.012003,8.34399704 251.272,7.58400464 251.272,6.656 C251.272,5.72799536 251.012003,4.96800296 250.492,4.376 C249.971997,3.78399704 249.216005,3.488 248.224,3.488 L246.112,3.488 L246.112,9.824 L248.224,9.824 Z M264.2,12.608 L257.192,12.608 L257.192,11.552 L264.2,11.552 L264.2,12.608 Z M281.376,2.6 L281.592,5.84 L281.088,5.84 L280.968,5.36 C280.775999,4.6399964 280.520002,4.15600124 280.2,3.908 C279.879998,3.65999876 279.208005,3.536 278.184,3.536 L275.04,3.536 L275.04,13.688 C275.04,14.888006 275.175999,15.6559983 275.448,15.992 C275.720001,16.3280017 276.351995,16.496 277.344,16.496 L277.344,17 L270.84,17 L270.84,16.496 C271.832005,16.496 272.463999,16.3280017 272.736,15.992 C273.008001,15.6559983 273.144,14.888006 273.144,13.688 L273.144,3.536 L270,3.536 C268.975995,3.536 268.304002,3.65999876 267.984,3.908 C267.663998,4.15600124 267.408001,4.6399964 267.216,5.36 L267.096,5.84 L266.592,5.84 L266.808,2.6 L281.376,2.6 Z M282.544,22.688 C282.544,22.4319987 282.639999,22.204001 282.832,22.004 C283.024001,21.803999 283.275998,21.5320017 283.588,21.188 C283.900002,20.8439983 284.159999,20.4080026 284.368,19.88 L285.568,16.88 L282.808,10.904 C282.551999,10.3599973 282.312001,9.988001 282.088,9.788 C281.863999,9.587999 281.568002,9.488 281.2,9.488 L281.2,9.008 L285.448,9.008 L285.448,9.488 C284.903997,9.488 284.576001,9.57599912 284.464,9.752 C284.351999,9.92800088 284.423999,10.311997 284.68,10.904 L286.432,14.744 L287.968,10.904 C288.192001,10.3599973 288.256,9.988001 288.16,9.788 C288.064,9.587999 287.768002,9.488 287.272,9.488 L287.272,9.008 L290.632,9.008 L290.632,9.488 C289.879996,9.488 289.312002,9.95999528 288.928,10.904 L284.248,22.592 C284.007999,23.184003 283.712002,23.48 283.36,23.48 C283.151999,23.48 282.964001,23.4160006 282.796,23.288 C282.627999,23.1599994 282.544,22.9600014 282.544,22.688 Z M299.864,15.488 C300.328002,14.8319967 300.56,14.000005 300.56,12.992 C300.56,11.983995 300.328002,11.1600032 299.864,10.52 C299.399998,9.8799968 298.728004,9.56 297.848,9.56 C297.303997,9.56 296.820002,9.72799832 296.396,10.064 C295.971998,10.4000017 295.640001,10.8559971 295.4,11.432 L295.4,14.528 C295.640001,15.120003 295.971998,15.5879983 296.396,15.932 C296.820002,16.2760017 297.303997,16.448 297.848,16.448 C298.728004,16.448 299.399998,16.1280032 299.864,15.488 Z M295.4,19.712 C295.4,20.8960059 295.515999,21.6559983 295.748,21.992 C295.980001,22.3280017 296.495996,22.496 297.296,22.496 L297.296,23 L291.8,23 L291.8,22.496 C292.600004,22.496 293.115999,22.3320016 293.348,22.004 C293.580001,21.6759984 293.696,20.912006 293.696,19.712 L293.696,12.488 C293.696,11.287994 293.580001,10.5240016 293.348,10.196 C293.115999,9.86799836 292.600004,9.704 291.8,9.704 L291.8,9.2 L295.016,8.6 C295.112,8.77600088 295.231999,9.263996 295.376,10.064 C296.192004,9.08799512 297.183994,8.6 298.352,8.6 C299.488006,8.6 300.463996,9.02799572 301.28,9.884 C302.096004,10.7400043 302.504,11.7759939 302.504,12.992 C302.504,14.2080061 302.096004,15.2479957 301.28,16.112 C300.463996,16.9760043 299.488006,17.408 298.352,17.408 C297.167994,17.408 296.184004,16.9280048 295.4,15.968 L295.4,19.712 Z M307.872,11.504 L311.856,11.504 C312.016001,11.0559978 311.948001,10.6200021 311.652,10.196 C311.355999,9.77199788 310.848004,9.56 310.128,9.56 C309.615997,9.56 309.156002,9.73599824 308.748,10.088 C308.339998,10.4400018 308.048001,10.911997 307.872,11.504 Z M307.728,12.392 C307.583999,13.5760059 307.771997,14.5399963 308.292,15.284 C308.812003,16.0280037 309.663994,16.4 310.848,16.4 C311.248002,16.4 311.703997,16.296001 312.216,16.088 C312.728003,15.879999 313.151998,15.6160016 313.488,15.296 L313.92,15.824 C313.487998,16.2880023 312.936003,16.6679985 312.264,16.964 C311.591997,17.2600015 310.920003,17.408 310.248,17.408 C308.951994,17.408 307.888004,16.9800043 307.056,16.124 C306.223996,15.2679957 305.808,14.2240062 305.808,12.992 C305.808,11.7599938 306.259995,10.7200042 307.164,9.872 C308.068005,9.02399576 309.095994,8.6 310.248,8.6 C311.336005,8.6 312.223997,8.9799962 312.912,9.74 C313.600003,10.5000038 313.800001,11.383995 313.512,12.392 L307.728,12.392 Z" id="P-Type-Copy" fill="#524740"></path>
                <path d="M401.512,14.024 L401.512,5.888 C401.512,4.687994 401.380001,3.92400164 401.116,3.596 C400.851999,3.26799836 400.224005,3.104 399.232,3.104 L399.232,2.6 L404.704,2.6 L404.704,3.104 C403.711995,3.104 403.080001,3.26799836 402.808,3.596 C402.535999,3.92400164 402.4,4.687994 402.4,5.888 L402.4,17.408 L401.848,17.408 L392.08,5.336 L392.08,13.688 C392.08,14.888006 392.215999,15.6559983 392.488,15.992 C392.760001,16.3280017 393.391995,16.496 394.384,16.496 L394.384,17 L388.912,17 L388.912,16.496 C389.904005,16.496 390.531999,16.3280017 390.796,15.992 C391.060001,15.6559983 391.192,14.888006 391.192,13.688 L391.192,5.888 C391.192,4.687994 391.060001,3.92400164 390.796,3.596 C390.531999,3.26799836 389.904005,3.104 388.912,3.104 L388.912,2.6 L392.296,2.6 L401.512,14.024 Z M415.4,12.608 L408.392,12.608 L408.392,11.552 L415.4,11.552 L415.4,12.608 Z M432.576,2.6 L432.792,5.84 L432.288,5.84 L432.168,5.36 C431.975999,4.6399964 431.720002,4.15600124 431.4,3.908 C431.079998,3.65999876 430.408005,3.536 429.384,3.536 L426.24,3.536 L426.24,13.688 C426.24,14.888006 426.375999,15.6559983 426.648,15.992 C426.920001,16.3280017 427.551995,16.496 428.544,16.496 L428.544,17 L422.04,17 L422.04,16.496 C423.032005,16.496 423.663999,16.3280017 423.936,15.992 C424.208001,15.6559983 424.344,14.888006 424.344,13.688 L424.344,3.536 L421.2,3.536 C420.175995,3.536 419.504002,3.65999876 419.184,3.908 C418.863998,4.15600124 418.608001,4.6399964 418.416,5.36 L418.296,5.84 L417.792,5.84 L418.008,2.6 L432.576,2.6 Z M433.744,22.688 C433.744,22.4319987 433.839999,22.204001 434.032,22.004 C434.224001,21.803999 434.475998,21.5320017 434.788,21.188 C435.100002,20.8439983 435.359999,20.4080026 435.568,19.88 L436.768,16.88 L434.008,10.904 C433.751999,10.3599973 433.512001,9.988001 433.288,9.788 C433.063999,9.587999 432.768002,9.488 432.4,9.488 L432.4,9.008 L436.648,9.008 L436.648,9.488 C436.103997,9.488 435.776001,9.57599912 435.664,9.752 C435.551999,9.92800088 435.623999,10.311997 435.88,10.904 L437.632,14.744 L439.168,10.904 C439.392001,10.3599973 439.456,9.988001 439.36,9.788 C439.264,9.587999 438.968002,9.488 438.472,9.488 L438.472,9.008 L441.832,9.008 L441.832,9.488 C441.079996,9.488 440.512002,9.95999528 440.128,10.904 L435.448,22.592 C435.207999,23.184003 434.912002,23.48 434.56,23.48 C434.351999,23.48 434.164001,23.4160006 433.996,23.288 C433.827999,23.1599994 433.744,22.9600014 433.744,22.688 Z M451.064,15.488 C451.528002,14.8319967 451.76,14.000005 451.76,12.992 C451.76,11.983995 451.528002,11.1600032 451.064,10.52 C450.599998,9.8799968 449.928004,9.56 449.048,9.56 C448.503997,9.56 448.020002,9.72799832 447.596,10.064 C447.171998,10.4000017 446.840001,10.8559971 446.6,11.432 L446.6,14.528 C446.840001,15.120003 447.171998,15.5879983 447.596,15.932 C448.020002,16.2760017 448.503997,16.448 449.048,16.448 C449.928004,16.448 450.599998,16.1280032 451.064,15.488 Z M446.6,19.712 C446.6,20.8960059 446.715999,21.6559983 446.948,21.992 C447.180001,22.3280017 447.695996,22.496 448.496,22.496 L448.496,23 L443,23 L443,22.496 C443.800004,22.496 444.315999,22.3320016 444.548,22.004 C444.780001,21.6759984 444.896,20.912006 444.896,19.712 L444.896,12.488 C444.896,11.287994 444.780001,10.5240016 444.548,10.196 C444.315999,9.86799836 443.800004,9.704 443,9.704 L443,9.2 L446.216,8.6 C446.312,8.77600088 446.431999,9.263996 446.576,10.064 C447.392004,9.08799512 448.383994,8.6 449.552,8.6 C450.688006,8.6 451.663996,9.02799572 452.48,9.884 C453.296004,10.7400043 453.704,11.7759939 453.704,12.992 C453.704,14.2080061 453.296004,15.2479957 452.48,16.112 C451.663996,16.9760043 450.688006,17.408 449.552,17.408 C448.367994,17.408 447.384004,16.9280048 446.6,15.968 L446.6,19.712 Z M459.072,11.504 L463.056,11.504 C463.216001,11.0559978 463.148001,10.6200021 462.852,10.196 C462.555999,9.77199788 462.048004,9.56 461.328,9.56 C460.815997,9.56 460.356002,9.73599824 459.948,10.088 C459.539998,10.4400018 459.248001,10.911997 459.072,11.504 Z M458.928,12.392 C458.783999,13.5760059 458.971997,14.5399963 459.492,15.284 C460.012003,16.0280037 460.863994,16.4 462.048,16.4 C462.448002,16.4 462.903997,16.296001 463.416,16.088 C463.928003,15.879999 464.351998,15.6160016 464.688,15.296 L465.12,15.824 C464.687998,16.2880023 464.136003,16.6679985 463.464,16.964 C462.791997,17.2600015 462.120003,17.408 461.448,17.408 C460.151994,17.408 459.088004,16.9800043 458.256,16.124 C457.423996,15.2679957 457.008,14.2240062 457.008,12.992 C457.008,11.7599938 457.459995,10.7200042 458.364,9.872 C459.268005,9.02399576 460.295994,8.6 461.448,8.6 C462.536005,8.6 463.423997,8.9799962 464.112,9.74 C464.800003,10.5000038 465.000001,11.383995 464.712,12.392 L458.928,12.392 Z" id="N-Type-Copy" fill="#524740"></path>
                <path d="M4.984,82.008 L3.832,84.672 C3.52799848,85.3280033 3.5159986,85.7959986 3.796,86.076 C4.0760014,86.3560014 4.71199504,86.496 5.704,86.496 L5.704,87 L0.088,87 L0.088,86.496 C0.60000256,86.496 0.9959986,86.4760002 1.276,86.436 C1.5560014,86.3959998 1.80399892,86.2680011 2.02,86.052 C2.23600108,85.8359989 2.38799956,85.6400009 2.476,85.464 C2.56400044,85.2879991 2.7279988,84.9360026 2.968,84.408 L8.248,72.192 L8.56,72.192 L13.864,84.408 C14.1040012,84.9360026 14.2679996,85.2879991 14.356,85.464 C14.4440004,85.6400009 14.5959989,85.8359989 14.812,86.052 C15.0280011,86.2680011 15.2719986,86.3959998 15.544,86.436 C15.8160014,86.4760002 16.2079974,86.496 16.72,86.496 L16.72,87 L10.072,87 L10.072,86.496 C11.064005,86.496 11.6959986,86.3560014 11.968,86.076 C12.2400014,85.7959986 12.2320014,85.3280033 11.944,84.672 L10.792,82.008 L4.984,82.008 Z M10.384,81.12 L7.864,75.336 L5.368,81.12 L10.384,81.12 Z M21.32,80.328 C22.2320046,79.1759942 23.3439934,78.6 24.656,78.6 C25.6960052,78.6 26.4759974,78.9279967 26.996,79.584 C27.5160026,80.2400033 27.776,81.1039946 27.776,82.176 L27.776,83.688 C27.776,84.888006 27.8919988,85.6559983 28.124,85.992 C28.3560012,86.3280017 28.871996,86.496 29.672,86.496 L29.672,87 L24.176,87 L24.176,86.496 C24.9600039,86.496 25.4719988,86.3240017 25.712,85.98 C25.9520012,85.6359983 26.072,84.8720059 26.072,83.688 L26.072,82.296 C26.072,80.5839914 25.4080066,79.728 24.08,79.728 C23.3919966,79.728 22.7600029,79.9679976 22.184,80.448 C21.6079971,80.9280024 21.32,81.4879968 21.32,82.128 L21.32,83.688 C21.32,84.9200062 21.415999,85.6959984 21.608,86.016 C21.800001,86.3360016 22.2639963,86.496 23,86.496 L23,87 L17.72,87 L17.72,86.496 C18.520004,86.496 19.0359988,86.3280017 19.268,85.992 C19.5000012,85.6559983 19.616,84.888006 19.616,83.688 L19.616,82.488 C19.616,81.3039941 19.5000012,80.5440017 19.268,80.208 C19.0359988,79.8719983 18.520004,79.704 17.72,79.704 L17.72,79.2 L20.912,78.6 C21.0560007,78.9040015 21.1919994,79.4799958 21.32,80.328 Z M40.536,79.896 C41.4960048,80.7440042 41.976,81.7759939 41.976,82.992 C41.976,84.2080061 41.5000048,85.2479957 40.548,86.112 C39.5959952,86.9760043 38.4560066,87.408 37.128,87.408 C35.7999934,87.408 34.6600048,86.9760043 33.708,86.112 C32.7559952,85.2479957 32.28,84.2080061 32.28,82.992 C32.28,81.7759939 32.7559952,80.7400043 33.708,79.884 C34.6600048,79.0279957 35.7999934,78.6 37.128,78.6 C38.4560066,78.6 39.5919953,79.0319957 40.536,79.896 Z M39.288,85.512 C39.7840025,84.8559967 40.032,84.0160051 40.032,82.992 C40.032,81.9679949 39.7840025,81.1320032 39.288,80.484 C38.7919975,79.8359968 38.0720047,79.512 37.128,79.512 C36.1839953,79.512 35.4640025,79.8399967 34.968,80.496 C34.4719975,81.1520033 34.224,81.983995 34.224,82.992 C34.224,84.000005 34.4719975,84.8319967 34.968,85.488 C35.4640025,86.1440033 36.1839953,86.472 37.128,86.472 C38.0720047,86.472 38.7919975,86.1520032 39.288,85.512 Z M52.384,84.552 L52.384,81.456 C52.1599989,80.8799971 51.8320022,80.4200017 51.4,80.076 C50.9679978,79.7319983 50.4880026,79.56 49.96,79.56 C49.0639955,79.56 48.3840023,79.8799968 47.92,80.52 C47.4559977,81.1600032 47.224,81.983995 47.224,82.992 C47.224,84.0160051 47.4559977,84.8479968 47.92,85.488 C48.3840023,86.1280032 49.0639955,86.448 49.96,86.448 C50.4880026,86.448 50.9679978,86.2760017 51.4,85.932 C51.8320022,85.5879983 52.1599989,85.1280029 52.384,84.552 Z M52.384,80.016 L52.384,76.104 C52.384,74.903994 52.2680012,74.1360017 52.036,73.8 C51.8039988,73.4639983 51.288004,73.296 50.488,73.296 L50.488,72.792 L54.088,72.192 L54.088,83.496 C54.088,84.696006 54.2039988,85.4639983 54.436,85.8 C54.6680012,86.1360017 55.183996,86.304 55.984,86.304 L55.984,86.808 L52.792,87.408 C52.6799994,87.1679988 52.5520007,86.6800037 52.408,85.944 C51.6239961,86.9200049 50.6400059,87.408 49.456,87.408 C48.3199943,87.408 47.3400041,86.9760043 46.516,86.112 C45.6919959,85.2479957 45.28,84.2080061 45.28,82.992 C45.28,81.7759939 45.6919959,80.7400043 46.516,79.884 C47.3400041,79.0279957 48.3199943,78.6 49.456,78.6 C50.6400059,78.6 51.6159962,79.0719953 52.384,80.016 Z M60.656,81.504 L64.64,81.504 C64.8000008,81.0559978 64.7320015,80.6200021 64.436,80.196 C64.1399985,79.7719979 63.6320036,79.56 62.912,79.56 C62.3999974,79.56 61.940002,79.7359982 61.532,80.088 C61.123998,80.4400018 60.8320009,80.911997 60.656,81.504 Z M60.512,82.392 C60.3679993,83.5760059 60.5559974,84.5399963 61.076,85.284 C61.5960026,86.0280037 62.4479941,86.4 63.632,86.4 C64.032002,86.4 64.4879974,86.296001 65,86.088 C65.5120026,85.879999 65.9359983,85.6160016 66.272,85.296 L66.704,85.824 C66.2719978,86.2880023 65.7200034,86.6679985 65.048,86.964 C64.3759966,87.2600015 63.7040034,87.408 63.032,87.408 C61.7359935,87.408 60.6720042,86.9800043 59.84,86.124 C59.0079958,85.2679957 58.592,84.2240062 58.592,82.992 C58.592,81.7599938 59.0439955,80.7200042 59.948,79.872 C60.8520045,79.0239958 61.8799942,78.6 63.032,78.6 C64.1200054,78.6 65.0079966,78.9799962 65.696,79.74 C66.3840034,80.5000038 66.5840014,81.383995 66.296,82.392 L60.512,82.392 Z M83.08,89.16 L82.552,89.664 C78.951982,86.7199853 77.152,83.4720178 77.152,79.92 C77.152,76.3839823 78.9439821,73.1360148 82.528,70.176 L83.08,70.68 C82.5679974,71.2560029 82.1440017,71.7559979 81.808,72.18 C81.4719983,72.6040021 81.0360027,73.2359958 80.5,74.076 C79.9639973,74.9160042 79.5520014,75.831995 79.264,76.824 C78.9759986,77.816005 78.832,78.8479946 78.832,79.92 C78.832,80.9920054 78.9759986,82.023995 79.264,83.016 C79.5520014,84.008005 79.9639973,84.9239958 80.5,85.764 C81.0360027,86.6040042 81.4719983,87.2359979 81.808,87.66 C82.1440017,88.0840021 82.5679974,88.5839971 83.08,89.16 Z M88.736,82.008 L87.584,84.672 C87.2799985,85.3280033 87.2679986,85.7959986 87.548,86.076 C87.8280014,86.3560014 88.463995,86.496 89.456,86.496 L89.456,87 L83.84,87 L83.84,86.496 C84.3520026,86.496 84.7479986,86.4760002 85.028,86.436 C85.3080014,86.3959998 85.5559989,86.2680011 85.772,86.052 C85.9880011,85.8359989 86.1399996,85.6400009 86.228,85.464 C86.3160004,85.2879991 86.4799988,84.9360026 86.72,84.408 L92,72.192 L92.312,72.192 L97.616,84.408 C97.8560012,84.9360026 98.0199996,85.2879991 98.108,85.464 C98.1960004,85.6400009 98.3479989,85.8359989 98.564,86.052 C98.7800011,86.2680011 99.0239986,86.3959998 99.296,86.436 C99.5680014,86.4760002 99.9599974,86.496 100.472,86.496 L100.472,87 L93.824,87 L93.824,86.496 C94.816005,86.496 95.4479986,86.3560014 95.72,86.076 C95.9920014,85.7959986 95.9840014,85.3280033 95.696,84.672 L94.544,82.008 L88.736,82.008 Z M94.136,81.12 L91.616,75.336 L89.12,81.12 L94.136,81.12 Z M107.16,79.92 C107.16,83.4880178 105.368018,86.7359854 101.784,89.664 L101.232,89.16 C101.760003,88.567997 102.187998,88.0640021 102.516,87.648 C102.844002,87.2319979 103.279997,86.6040042 103.824,85.764 C104.368003,84.9239958 104.783999,84.008005 105.072,83.016 C105.360001,82.023995 105.504,80.9920054 105.504,79.92 C105.504,78.8479946 105.360001,77.816005 105.072,76.824 C104.783999,75.831995 104.368003,74.9160042 103.824,74.076 C103.279997,73.2359958 102.844002,72.6080021 102.516,72.192 C102.187998,71.7759979 101.760003,71.272003 101.232,70.68 L101.808,70.176 C105.376018,73.1200147 107.16,76.3679822 107.16,79.92 Z" id="Anode-(A)-Copy" fill="#524740"></path>
                <path d="M582.708,86.736 L582.228,86.736 C582.099999,86.1119969 581.828002,85.6560014 581.412,85.368 C580.099993,86.7280068 578.612008,87.408 576.948,87.408 C574.91599,87.408 573.180007,86.6640074 571.74,85.176 C570.299993,83.6879926 569.58,81.8960105 569.58,79.8 C569.58,77.7039895 570.299993,75.9120074 571.74,74.424 C573.180007,72.9359926 574.91599,72.192 576.948,72.192 C578.644008,72.192 580.131994,72.8719932 581.412,74.232 C581.844002,73.8959983 582.115999,73.4400029 582.228,72.864 L582.708,72.864 L582.708,78.144 L582.228,78.144 C581.891998,76.5599921 581.272005,75.3280044 580.368,74.448 C579.463995,73.5679956 578.356007,73.128 577.044,73.128 C576.131995,73.128 575.324004,73.331998 574.62,73.74 C573.915996,74.148002 573.368002,74.6879966 572.976,75.36 C572.583998,76.0320034 572.292001,76.7439962 572.1,77.496 C571.907999,78.2480038 571.812,79.0159961 571.812,79.8 C571.812,80.5840039 571.907999,81.3519962 572.1,82.104 C572.292001,82.8560038 572.583998,83.5639967 572.976,84.228 C573.368002,84.8920033 573.915996,85.427998 574.62,85.836 C575.324004,86.244002 576.131995,86.448 577.044,86.448 C578.356007,86.448 579.463995,86.0040044 580.368,85.116 C581.272005,84.2279956 581.891998,83.0080078 582.228,81.456 L582.708,81.456 L582.708,86.736 Z M594.772,86.52 C594.307998,87.0160025 593.780003,87.264 593.188,87.264 C592.227995,87.264 591.684001,86.8000046 591.556,85.872 C590.483995,86.8320048 589.484005,87.312 588.556,87.312 C587.947997,87.312 587.436002,87.1320018 587.02,86.772 C586.603998,86.4119982 586.396,85.9200031 586.396,85.296 C586.396,83.6159916 588.099983,82.480003 591.508,81.888 C591.508,80.9439953 591.404001,80.2880018 591.196,79.92 C590.987999,79.5519982 590.556003,79.368 589.9,79.368 C589.579998,79.368 589.272001,79.471999 588.976,79.68 C588.679999,79.888001 588.532,80.1679982 588.532,80.52 C588.532,80.7600012 588.452001,80.9599992 588.292,81.12 C588.131999,81.2800008 587.940001,81.36 587.716,81.36 C587.475999,81.36 587.276001,81.2800008 587.116,81.12 C586.955999,80.9599992 586.876,80.7600012 586.876,80.52 C586.876,79.9599972 587.183997,79.5000018 587.8,79.14 C588.416003,78.7799982 589.123996,78.6 589.924,78.6 C591.092006,78.6 591.931997,78.8559974 592.444,79.368 C592.956003,79.8800026 593.212,80.7119942 593.212,81.864 L593.212,85.488 C593.212,86.1120031 593.395998,86.424 593.764,86.424 C593.972001,86.424 594.195999,86.3040012 594.436,86.064 L594.772,86.52 Z M591.508,85.08 L591.508,82.632 C589.299989,83.1440026 588.196,83.9359946 588.196,85.008 C588.196,85.3760018 588.303999,85.6719989 588.52,85.896 C588.736001,86.1200011 589.003998,86.232 589.324,86.232 C589.916003,86.232 590.643996,85.8480038 591.508,85.08 Z M598.076,79.848 L596.828,79.848 L596.828,79.272 C597.516003,79.1279993 598.019998,78.8160024 598.34,78.336 C598.660002,77.8559976 598.868,77.2000042 598.964,76.368 L599.78,76.368 L599.78,79.008 L601.868,79.008 L601.868,79.848 L599.78,79.848 L599.78,84.648 C599.78,85.8000058 600.139996,86.376 600.86,86.376 C601.324002,86.376 601.843997,86.1040027 602.42,85.56 L602.828,85.968 C602.491998,86.368002 602.088002,86.6959987 601.616,86.952 C601.143998,87.2080013 600.708002,87.336 600.308,87.336 C599.619997,87.336 599.076002,87.1120022 598.676,86.664 C598.275998,86.2159978 598.076,85.5440045 598.076,84.648 L598.076,79.848 Z M616.308,87 L611.004,87 L611.004,86.496 C611.756004,86.496 612.227999,86.3360016 612.42,86.016 C612.612001,85.6959984 612.708,84.9200062 612.708,83.688 L612.708,82.296 C612.708,80.5839914 612.100006,79.728 610.884,79.728 C610.243997,79.728 609.652003,79.9639976 609.108,80.436 C608.563997,80.9080024 608.292,81.4719967 608.292,82.128 L608.292,83.688 C608.292,84.9360062 608.379999,85.7159984 608.556,86.028 C608.732001,86.3400016 609.147997,86.496 609.804,86.496 L609.804,87 L604.692,87 L604.692,86.496 C605.492004,86.496 606.007999,86.3280017 606.24,85.992 C606.472001,85.6559983 606.588,84.888006 606.588,83.688 L606.588,76.104 C606.588,74.903994 606.472001,74.1360017 606.24,73.8 C606.007999,73.4639983 605.492004,73.296 604.692,73.296 L604.692,72.792 L608.292,72.192 L608.292,80.328 C609.236005,79.1759942 610.283994,78.6 611.436,78.6 C613.40401,78.6 614.388,79.7919881 614.388,82.176 L614.388,83.688 C614.388,84.888006 614.503999,85.6559983 614.736,85.992 C614.968001,86.3280017 615.491996,86.496 616.308,86.496 L616.308,87 Z M627.172,79.896 C628.132005,80.7440042 628.612,81.7759939 628.612,82.992 C628.612,84.2080061 628.136005,85.2479957 627.184,86.112 C626.231995,86.9760043 625.092007,87.408 623.764,87.408 C622.435993,87.408 621.296005,86.9760043 620.344,86.112 C619.391995,85.2479957 618.916,84.2080061 618.916,82.992 C618.916,81.7759939 619.391995,80.7400043 620.344,79.884 C621.296005,79.0279957 622.435993,78.6 623.764,78.6 C625.092007,78.6 626.227995,79.0319957 627.172,79.896 Z M625.924,85.512 C626.420002,84.8559967 626.668,84.0160051 626.668,82.992 C626.668,81.9679949 626.420002,81.1320032 625.924,80.484 C625.427998,79.8359968 624.708005,79.512 623.764,79.512 C622.819995,79.512 622.100002,79.8399967 621.604,80.496 C621.107998,81.1520033 620.86,81.983995 620.86,82.992 C620.86,84.000005 621.107998,84.8319967 621.604,85.488 C622.100002,86.1440033 622.819995,86.472 623.764,86.472 C624.708005,86.472 625.427998,86.1520032 625.924,85.512 Z M639.02,84.552 L639.02,81.456 C638.795999,80.8799971 638.468002,80.4200017 638.036,80.076 C637.603998,79.7319983 637.124003,79.56 636.596,79.56 C635.699996,79.56 635.020002,79.8799968 634.556,80.52 C634.091998,81.1600032 633.86,81.983995 633.86,82.992 C633.86,84.0160051 634.091998,84.8479968 634.556,85.488 C635.020002,86.1280032 635.699996,86.448 636.596,86.448 C637.124003,86.448 637.603998,86.2760017 638.036,85.932 C638.468002,85.5879983 638.795999,85.1280029 639.02,84.552 Z M639.02,80.016 L639.02,76.104 C639.02,74.903994 638.904001,74.1360017 638.672,73.8 C638.439999,73.4639983 637.924004,73.296 637.124,73.296 L637.124,72.792 L640.724,72.192 L640.724,83.496 C640.724,84.696006 640.839999,85.4639983 641.072,85.8 C641.304001,86.1360017 641.819996,86.304 642.62,86.304 L642.62,86.808 L639.428,87.408 C639.315999,87.1679988 639.188001,86.6800037 639.044,85.944 C638.259996,86.9200049 637.276006,87.408 636.092,87.408 C634.955994,87.408 633.976004,86.9760043 633.152,86.112 C632.327996,85.2479957 631.916,84.2080061 631.916,82.992 C631.916,81.7759939 632.327996,80.7400043 633.152,79.884 C633.976004,79.0279957 634.955994,78.6 636.092,78.6 C637.276006,78.6 638.251996,79.0719953 639.02,80.016 Z M647.292,81.504 L651.276,81.504 C651.436001,81.0559978 651.368001,80.6200021 651.072,80.196 C650.775999,79.7719979 650.268004,79.56 649.548,79.56 C649.035997,79.56 648.576002,79.7359982 648.168,80.088 C647.759998,80.4400018 647.468001,80.911997 647.292,81.504 Z M647.148,82.392 C647.003999,83.5760059 647.191997,84.5399963 647.712,85.284 C648.232003,86.0280037 649.083994,86.4 650.268,86.4 C650.668002,86.4 651.123997,86.296001 651.636,86.088 C652.148003,85.879999 652.571998,85.6160016 652.908,85.296 L653.34,85.824 C652.907998,86.2880023 652.356003,86.6679985 651.684,86.964 C651.011997,87.2600015 650.340003,87.408 649.668,87.408 C648.371994,87.408 647.308004,86.9800043 646.476,86.124 C645.643996,85.2679957 645.228,84.2240062 645.228,82.992 C645.228,81.7599938 645.679995,80.7200042 646.584,79.872 C647.488005,79.0239958 648.515994,78.6 649.668,78.6 C650.756005,78.6 651.643997,78.9799962 652.332,79.74 C653.020003,80.5000038 653.220001,81.383995 652.932,82.392 L647.148,82.392 Z M669.716,89.16 L669.188,89.664 C665.587982,86.7199853 663.788,83.4720178 663.788,79.92 C663.788,76.3839823 665.579982,73.1360148 669.164,70.176 L669.716,70.68 C669.203997,71.2560029 668.780002,71.7559979 668.444,72.18 C668.107998,72.6040021 667.672003,73.2359958 667.136,74.076 C666.599997,74.9160042 666.188001,75.831995 665.9,76.824 C665.611999,77.816005 665.468,78.8479946 665.468,79.92 C665.468,80.9920054 665.611999,82.023995 665.9,83.016 C666.188001,84.008005 666.599997,84.9239958 667.136,85.764 C667.672003,86.6040042 668.107998,87.2359979 668.444,87.66 C668.780002,88.0840021 669.203997,88.5839971 669.716,89.16 Z M678.492,78.648 L685.932,85.104 C686.364002,85.4720018 686.903997,85.7959986 687.552,86.076 C688.200003,86.3560014 688.691998,86.496 689.028,86.496 L689.028,87 L682.284,87 L682.284,86.496 C683.068004,86.496 683.539999,86.3640013 683.7,86.1 C683.860001,85.8359987 683.692002,85.504002 683.196,85.104 L677.124,79.848 L676.5,80.352 L676.5,83.688 C676.5,84.888006 676.631999,85.6559983 676.896,85.992 C677.160001,86.3280017 677.787995,86.496 678.78,86.496 L678.78,87 L672.3,87 L672.3,86.496 C673.292005,86.496 673.919999,86.3280017 674.184,85.992 C674.448001,85.6559983 674.58,84.888006 674.58,83.688 L674.58,75.888 C674.58,74.687994 674.448001,73.9240016 674.184,73.596 C673.919999,73.2679984 673.292005,73.104 672.3,73.104 L672.3,72.6 L678.78,72.6 L678.78,73.104 C677.787995,73.104 677.160001,73.2679984 676.896,73.596 C676.631999,73.9240016 676.5,74.687994 676.5,75.888 L676.5,79.248 L681.42,75.048 C682.764007,73.7999938 682.796006,73.1520002 681.516,73.104 L681.516,72.6 L687.084,72.6 L687.084,73.104 C686.203996,73.104 685.472003,73.2399986 684.888,73.512 C684.303997,73.7840014 683.572004,74.2959962 682.692,75.048 L678.492,78.648 Z M696.508,79.92 C696.508,83.4880178 694.716018,86.7359854 691.132,89.664 L690.58,89.16 C691.108003,88.567997 691.535998,88.0640021 691.864,87.648 C692.192002,87.2319979 692.627997,86.6040042 693.172,85.764 C693.716003,84.9239958 694.131999,84.008005 694.42,83.016 C694.708001,82.023995 694.852,80.9920054 694.852,79.92 C694.852,78.8479946 694.708001,77.816005 694.42,76.824 C694.131999,75.831995 693.716003,74.9160042 693.172,74.076 C692.627997,73.2359958 692.192002,72.6080021 691.864,72.192 C691.535998,71.7759979 691.108003,71.272003 690.58,70.68 L691.156,70.176 C694.724018,73.1200147 696.508,76.3679822 696.508,79.92 Z" id="Cathode-(K)-Copy" fill="#524740"></path>
            </g>
            <text id="Voltage-Source-&lt;-Jun" font-family="MrsEavesOT-Roman, Mrs Eaves OT" font-size="24" font-weight="normal" letter-spacing="1" fill="#524740">
                <tspan x="188.596" y="304">Voltage Source &lt; Junction Potential</tspan>
            </text>
            <g id="Potential-Plates" transform="translate(334.000000, 218.000000)">
                <g id="VS">
                    <path d="M29,14.5 L29,47.5" id="Line-2-Copy" stroke="#3D3530" stroke-width="3" stroke-linecap="square"></path>
                    <path d="M54,14.5 L54,47.5" id="Line-2-Copy-2" stroke="#3D3530" stroke-width="3" stroke-linecap="square"></path>
                    <path d="M17,5.5 L17,54.5" id="Line-2-Copy" stroke="#3D3530" stroke-width="3" stroke-linecap="square"></path>
                    <path d="M42,5.5 L42,54.5" id="Line-2-Copy-3" stroke="#3D3530" stroke-width="3" stroke-linecap="square"></path>
                    <rect id="Combined-Shape" fill="#524740" x="61" y="5" width="9" height="1"></rect>
                    <path d="M4,4 L4,0 L5,0 L5,4 L9,4 L9,5 L5,5 L5,9 L4,9 L4,5 L0,5 L0,4 L4,4 Z" id="Combined-Shape" fill="#524740"></path>
                </g>
            </g>
            <g id="Anode" transform="translate(0.000000, 72.000000)">
                <rect id="Rectangle" fill="#3D3530" x="205" y="0" width="7" height="80"></rect>
                <polyline id="Path-8" stroke="#3D3530" stroke-width="3" points="206.880017 39.9008336 14.880017 39.9008336 14.880017 176.5 350.45316 176.5"></polyline>
                <g id="Anode-Hole-Flow" transform="translate(20.000000, 46.000000)" fill="#84D0EF">
                    <circle id="Oval-Copy-92" cx="163.25" cy="3.25" r="3.25"></circle>
                    <circle id="Oval-Copy-91" cx="143.25" cy="3.25" r="3.25"></circle>
                    <circle id="Oval-Copy-90" cx="123.25" cy="3.25" r="3.25"></circle>
                    <circle id="Oval-Copy-89" cx="103.25" cy="3.25" r="3.25"></circle>
                    <circle id="Oval-Copy-88" cx="83.25" cy="3.25" r="3.25"></circle>
                    <circle id="Oval-Copy-87" cx="63.25" cy="3.25" r="3.25"></circle>
                    <circle id="Oval-Copy-86" cx="43.25" cy="3.25" r="3.25"></circle>
                    <circle id="Oval-Copy-85" cx="23.25" cy="3.25" r="3.25"></circle>
                    <circle id="Oval-Copy-84" cx="3.25" cy="3.25" r="3.25"></circle>
                    <circle id="Oval-Copy-68" cx="3.25" cy="103.25" r="3.25"></circle>
                    <circle id="Oval-Copy-69" cx="3.25" cy="83.25" r="3.25"></circle>
                    <circle id="Oval-Copy-70" cx="3.25" cy="63.25" r="3.25"></circle>
                    <circle id="Oval-Copy-71" cx="3.25" cy="43.25" r="3.25"></circle>
                    <circle id="Oval-Copy-72" cx="3.25" cy="23.25" r="3.25"></circle>
                    <circle id="Oval-Copy-67" cx="303.25" cy="123.25" r="3.25"></circle>
                    <circle id="Oval-Copy-44" cx="23.25" cy="123.25" r="3.25"></circle>
                    <circle id="Oval-Copy-66" cx="3.25" cy="123.25" r="3.25"></circle>
                    <circle id="Oval-Copy-50" cx="43.25" cy="123.25" r="3.25"></circle>
                    <circle id="Oval-Copy-51" cx="63.25" cy="123.25" r="3.25"></circle>
                    <circle id="Oval-Copy-52" cx="83.25" cy="123.25" r="3.25"></circle>
                    <circle id="Oval-Copy-53" cx="103.25" cy="123.25" r="3.25"></circle>
                    <circle id="Oval-Copy-54" cx="123.25" cy="123.25" r="3.25"></circle>
                    <circle id="Oval-Copy-55" cx="143.25" cy="123.25" r="3.25"></circle>
                    <circle id="Oval-Copy-56" cx="163.25" cy="123.25" r="3.25"></circle>
                    <circle id="Oval-Copy-57" cx="183.25" cy="123.25" r="3.25"></circle>
                    <circle id="Oval-Copy-58" cx="203.25" cy="123.25" r="3.25"></circle>
                    <circle id="Oval-Copy-59" cx="223.25" cy="123.25" r="3.25"></circle>
                    <circle id="Oval-Copy-60" cx="243.25" cy="123.25" r="3.25"></circle>
                    <circle id="Oval-Copy-61" cx="263.25" cy="123.25" r="3.25"></circle>
                    <circle id="Oval-Copy-62" cx="283.25" cy="123.25" r="3.25"></circle>
                </g>
            </g>
            <g id="Cathode" transform="translate(388.000000, 73.000000)">
                <rect id="Rectangle" fill="#3D3530" x="140" y="0" width="7" height="80"></rect>
                <polyline id="Path-8" stroke="#3D3530" stroke-width="3" points="0 176.5 333.880017 176.5 333.880017 39.9008336 141.880017 39.9008336"></polyline>
                <g id="Cathode-Electron-Flow" transform="translate(22.000000, 25.000000)" fill="#EF7D3B">
                    <circle id="Oval-Copy-44" cx="23.25" cy="163.25" r="3.25"></circle>
                    <circle id="Oval-Copy-66" cx="3.25" cy="163.25" r="3.25"></circle>
                    <circle id="Oval-Copy-50" cx="43.25" cy="163.25" r="3.25"></circle>
                    <circle id="Oval-Copy-51" cx="63.25" cy="163.25" r="3.25"></circle>
                    <circle id="Oval-Copy-52" cx="83.25" cy="163.25" r="3.25"></circle>
                    <circle id="Oval-Copy-53" cx="103.25" cy="163.25" r="3.25"></circle>
                    <circle id="Oval-Copy-54" cx="123.25" cy="163.25" r="3.25"></circle>
                    <circle id="Oval-Copy-55" cx="143.25" cy="163.25" r="3.25"></circle>
                    <circle id="Oval-Copy-56" cx="163.25" cy="163.25" r="3.25"></circle>
                    <circle id="Oval-Copy-57" cx="183.25" cy="163.25" r="3.25"></circle>
                    <circle id="Oval-Copy-58" cx="203.25" cy="163.25" r="3.25"></circle>
                    <circle id="Oval-Copy-59" cx="223.25" cy="163.25" r="3.25"></circle>
                    <circle id="Oval-Copy-60" cx="243.25" cy="163.25" r="3.25"></circle>
                    <circle id="Oval-Copy-61" cx="263.25" cy="163.25" r="3.25"></circle>
                    <circle id="Oval-Copy-62" cx="283.25" cy="163.25" r="3.25"></circle>
                    <circle id="Oval-Copy-63" cx="303.25" cy="163.25" r="3.25"></circle>
                    <circle id="Oval-Copy-64" cx="323.25" cy="163.25" r="3.25"></circle>
                    <circle id="Oval-Copy-65" cx="323.25" cy="163.25" r="3.25"></circle>
                    <circle id="Oval-Copy-67" cx="323.25" cy="143.25" r="3.25"></circle>
                    <circle id="Oval-Copy-68" cx="323.25" cy="123.25" r="3.25"></circle>
                    <circle id="Oval-Copy-69" cx="323.25" cy="103.25" r="3.25"></circle>
                    <circle id="Oval-Copy-70" cx="323.25" cy="83.25" r="3.25"></circle>
                    <circle id="Oval-Copy-71" cx="323.25" cy="63.25" r="3.25"></circle>
                    <circle id="Oval-Copy-72" cx="323.25" cy="43.25" r="3.25"></circle>
                    <circle id="Oval-Copy-73" cx="323.25" cy="23.25" r="3.25"></circle>
                    <circle id="Oval-Copy-74" cx="323.25" cy="3.25" r="3.25"></circle>
                    <circle id="Oval-Copy-75" cx="303.25" cy="3.25" r="3.25"></circle>
                    <circle id="Oval-Copy-76" cx="283.25" cy="3.25" r="3.25"></circle>
                    <circle id="Oval-Copy-77" cx="263.25" cy="3.25" r="3.25"></circle>
                    <circle id="Oval-Copy-78" cx="243.25" cy="3.25" r="3.25"></circle>
                    <circle id="Oval-Copy-79" cx="223.25" cy="3.25" r="3.25"></circle>
                    <circle id="Oval-Copy-80" cx="203.25" cy="3.25" r="3.25"></circle>
                    <circle id="Oval-Copy-81" cx="183.25" cy="3.25" r="3.25"></circle>
                    <circle id="Oval-Copy-82" cx="163.25" cy="3.25" r="3.25"></circle>
                    <circle id="Oval-Copy-83" cx="143.25" cy="3.25" r="3.25"></circle>
                </g>
            </g>
        </g>
        <text id="Forward-Bias" font-family="Wavehaus-66Book, Wavehaus" font-size="36" font-weight="300" letter-spacing="1" fill="#23ABE3">
            <tspan x="653.64" y="409">Forward Bias</tspan>
        </text>
        <rect id="Rectangle-Copy" stroke="#3D3530" stroke-width="2" x="1" y="367" width="898" height="62"></rect>
    </g>
</svg>