<?xml version="1.0" encoding="UTF-8"?>
<svg width="900px" height="250px" viewBox="0 0 900 250" version="1.1" xmlns="http://www.w3.org/2000/svg" xmlns:xlink="http://www.w3.org/1999/xlink">
    <!-- Generator: Sketch 52.5 (67469) - http://www.bohemiancoding.com/sketch -->
    <title>Lab_Circuit_Dual_LED_w_Ballast_Resistor</title>
    <desc>Created with Sketch.</desc>
    <g id="Lab_Circuit_Dual_LED_w_Ballast_Resistor" stroke="none" stroke-width="1" fill="none" fill-rule="evenodd">
        <g id="Illustration_Frame">
            <rect id="Rectangle" stroke="#3D3530" stroke-width="2" fill="#EEEEEE" x="1" y="1" width="898" height="248"></rect>
            <rect id="Rectangle-Copy" stroke="#3D3530" stroke-width="2" fill="#F8FAE4" x="1" y="206" width="898" height="43"></rect>
            <path d="M404.285332,220.456 L395.285332,220.456 L395.285332,226 L400.349332,226 L400.349332,227.584 L395.285332,227.584 L395.285332,233.416 L404.285332,233.416 L404.285332,235 L393.701332,235 L393.701332,218.872 L404.285332,218.872 L404.285332,220.456 Z M416.783999,235 L414.983999,235 L411.623999,230.224 L408.239999,235 L406.463999,235 L410.735999,228.952 L406.535999,223 L408.311999,223 L411.623999,227.68 L414.911999,223 L416.711999,223 L412.511999,228.952 L416.783999,235 Z M424.554665,233.608 C425.626671,233.608 426.586661,233.304003 427.434665,232.696 C428.28267,232.087997 428.858664,231.376004 429.162665,230.56 L430.506665,231.04 C430.138663,232.048005 429.422671,232.975996 428.358665,233.824 C427.29466,234.672004 426.026673,235.088 424.554665,235.072 C423.210659,235.072 421.982671,234.656004 420.870665,233.824 C419.75866,232.991996 419.002667,231.928006 418.602665,230.632 C418.442664,230.103997 418.362665,229.528003 418.362665,228.904 C418.362665,227.175991 418.962659,225.712006 420.162665,224.512 C421.362671,223.311994 422.826657,222.704 424.554665,222.688 C426.122673,222.704 427.490659,223.231995 428.658665,224.272 C429.826671,225.312005 430.498664,226.599992 430.674665,228.136 C430.690665,228.216 430.698665,228.319999 430.698665,228.448 L420.210665,230.344 C420.482667,231.304005 421.026661,232.091997 421.842665,232.708 C422.658669,233.324003 423.56266,233.624 424.554665,233.608 Z M424.410665,224.152 C423.210659,224.168 422.18267,224.599996 421.326665,225.448 C420.470661,226.296004 420.010666,227.311994 419.946665,228.496 C419.946665,228.544 419.950665,228.627999 419.958665,228.748 C419.966665,228.868001 419.970665,228.968 419.970665,229.048 L428.898665,227.44 C428.594664,226.463995 428.026669,225.668003 427.194665,225.052 C426.362661,224.435997 425.43467,224.136 424.410665,224.152 Z M439.045332,222.808 C439.893336,222.808 440.669328,223.015998 441.373332,223.432 L440.821332,225.016 C440.149329,224.519998 439.469335,224.272 438.781332,224.272 C437.773327,224.272 436.925335,224.627996 436.237332,225.34 C435.549329,226.052004 435.205332,226.927995 435.205332,227.968 L435.205332,235 L433.621332,235 L433.621332,223 L435.205332,223 L435.205332,224.776 C436.181337,223.463993 437.461324,222.808 439.045332,222.808 Z M448.687999,235.192 C446.97599,235.192 445.516005,234.588006 444.307999,233.38 C443.099993,232.171994 442.495999,230.712009 442.495999,229 C442.495999,227.287991 443.099993,225.828006 444.307999,224.62 C445.516005,223.411994 446.97599,222.808 448.687999,222.808 C449.776004,222.808 450.787994,223.075997 451.723999,223.612 C452.660003,224.148003 453.399996,224.863996 453.943999,225.76 L452.503999,226.456 C452.071997,225.799997 451.520002,225.280002 450.847999,224.896 C450.175995,224.511998 449.456003,224.32 448.687999,224.32 C447.391992,224.32 446.300003,224.771995 445.411999,225.676 C444.523994,226.580005 444.079999,227.687993 444.079999,229 C444.079999,230.312007 444.523994,231.419995 445.411999,232.324 C446.300003,233.228005 447.391992,233.68 448.687999,233.68 C449.456003,233.68 450.175995,233.488002 450.847999,233.104 C451.520002,232.719998 452.071997,232.200003 452.503999,231.544 L453.943999,232.24 C453.399996,233.136004 452.660003,233.851997 451.723999,234.388 C450.787994,234.924003 449.776004,235.192 448.687999,235.192 Z M459.122665,219.4 C458.946665,219.592001 458.722667,219.688 458.450665,219.688 C458.178664,219.688 457.950666,219.592001 457.766665,219.4 C457.582664,219.207999 457.490665,218.984001 457.490665,218.728 C457.490665,218.471999 457.582664,218.248001 457.766665,218.056 C457.950666,217.863999 458.178664,217.768 458.450665,217.768 C458.722667,217.768 458.950664,217.863999 459.134665,218.056 C459.318666,218.248001 459.410665,218.471999 459.410665,218.728 C459.410665,218.984001 459.314666,219.207999 459.122665,219.4 Z M457.658665,235 L457.658665,223 L459.242665,223 L459.242665,235 L457.658665,235 Z M467.517332,235.192 C466.973329,235.192 466.445335,235.124001 465.933332,234.988 C465.42133,234.851999 464.993334,234.692001 464.649332,234.508 C464.30533,234.323999 463.997333,234.136001 463.725332,233.944 C463.453331,233.751999 463.253333,233.592001 463.125332,233.464 L462.933332,233.248 L464.061332,232.288 C464.173333,232.400001 464.329331,232.535999 464.529332,232.696 C464.729333,232.856001 465.133329,233.071999 465.741332,233.344 C466.349335,233.616001 466.949329,233.752 467.541332,233.752 C468.421336,233.752 469.125329,233.584002 469.653332,233.248 C470.181335,232.911998 470.445332,232.440003 470.445332,231.832 C470.445332,231.399998 470.181335,231.028002 469.653332,230.716 C469.125329,230.403998 468.485336,230.136001 467.733332,229.912 C466.981328,229.687999 466.225336,229.440001 465.465332,229.168 C464.705328,228.895999 464.061335,228.512002 463.533332,228.016 C463.005329,227.519998 462.741332,226.912004 462.741332,226.192 C462.741332,225.199995 463.113328,224.388003 463.857332,223.756 C464.601336,223.123997 465.701325,222.808 467.157332,222.808 C468.021336,222.808 468.837328,222.967998 469.605332,223.288 C470.373336,223.608002 470.92533,223.927998 471.261332,224.248 L471.765332,224.728 L470.637332,225.712 C470.525332,225.599999 470.369333,225.464001 470.169332,225.304 C469.969331,225.143999 469.565335,224.928001 468.957332,224.656 C468.349329,224.383999 467.741335,224.248 467.133332,224.248 C466.269328,224.248 465.569335,224.415998 465.033332,224.752 C464.497329,225.088002 464.229332,225.559997 464.229332,226.168 C464.229332,226.600002 464.493329,226.971998 465.021332,227.284 C465.549335,227.596002 466.189328,227.863999 466.941332,228.088 C467.693336,228.312001 468.449328,228.555999 469.209332,228.82 C469.969336,229.084001 470.613329,229.467997 471.141332,229.972 C471.669335,230.476003 471.933332,231.087996 471.933332,231.808 C471.933332,232.816005 471.565336,233.631997 470.829332,234.256 C470.093328,234.880003 468.989339,235.192 467.517332,235.192 Z M480.495999,233.608 C481.568004,233.608 482.527995,233.304003 483.375999,232.696 C484.224003,232.087997 484.799997,231.376004 485.103999,230.56 L486.447999,231.04 C486.079997,232.048005 485.364004,232.975996 484.299999,233.824 C483.235993,234.672004 481.968006,235.088 480.495999,235.072 C479.151992,235.072 477.924004,234.656004 476.811999,233.824 C475.699993,232.991996 474.944001,231.928006 474.543999,230.632 C474.383998,230.103997 474.303999,229.528003 474.303999,228.904 C474.303999,227.175991 474.903993,225.712006 476.103999,224.512 C477.304005,223.311994 478.76799,222.704 480.495999,222.688 C482.064007,222.704 483.431993,223.231995 484.599999,224.272 C485.768005,225.312005 486.439998,226.599992 486.615999,228.136 C486.631999,228.216 486.639999,228.319999 486.639999,228.448 L476.151999,230.344 C476.424,231.304005 476.967995,232.091997 477.783999,232.708 C478.600003,233.324003 479.503994,233.624 480.495999,233.608 Z M480.351999,224.152 C479.151993,224.168 478.124003,224.599996 477.267999,225.448 C476.411995,226.296004 475.951999,227.311994 475.887999,228.496 C475.887999,228.544 475.891999,228.627999 475.899999,228.748 C475.907999,228.868001 475.911999,228.968 475.911999,229.048 L484.839999,227.44 C484.535997,226.463995 483.968003,225.668003 483.135999,225.052 C482.303995,224.435997 481.376004,224.136 480.351999,224.152 Z M497.741332,235 L497.597332,233.656 C497.645332,233.608 498.105328,233.204004 498.977332,232.444 C499.849337,231.683996 500.621329,230.980003 501.293332,230.332 C501.965336,229.683997 502.725328,228.908005 503.573332,228.004 C504.421336,227.099995 505.08533,226.240004 505.565332,225.424 C506.045335,224.607996 506.285332,223.904003 506.285332,223.312 C506.285332,222.447996 505.953336,221.716003 505.289332,221.116 C504.625329,220.515997 503.797337,220.216 502.805332,220.216 C501.141324,220.216 499.781337,221.20799 498.725332,223.192 L497.645332,222.112 C497.789333,221.839999 497.977331,221.552002 498.209332,221.248 C498.441333,220.943998 498.77333,220.580002 499.205332,220.156 C499.637334,219.731998 500.185329,219.384001 500.849332,219.112 C501.513336,218.839999 502.221328,218.704 502.973332,218.704 C504.413339,218.704 505.597328,219.155995 506.525332,220.06 C507.453337,220.964005 507.917332,222.015994 507.917332,223.216 C507.917332,223.936004 507.705334,224.719996 507.281332,225.568 C506.85733,226.416004 506.269336,227.263996 505.517332,228.112 C504.765328,228.960004 504.089335,229.679997 503.489332,230.272 C502.889329,230.864003 502.177336,231.515996 501.353332,232.228 C500.529328,232.940004 500.077333,233.336 499.997332,233.416 L508.373332,233.416 L508.373332,235 L497.741332,235 Z M511.871999,226.768 L511.871999,222.688 L513.527999,222.688 L513.527999,226.768 L511.871999,226.768 Z M511.871999,235 L511.871999,230.752 L513.527999,230.752 L513.527999,235 L511.871999,235 Z M524.869332,235 L524.869332,218.872 L528.517332,218.872 C531.173346,218.872 533.285324,219.639992 534.853332,221.176 C536.42134,222.712008 537.205332,224.631988 537.205332,226.936 C537.205332,229.224011 536.41734,231.139992 534.841332,232.684 C533.265324,234.228008 531.157345,235 528.517332,235 L524.869332,235 Z M526.453332,233.488 L528.517332,233.488 C530.629343,233.488 532.317326,232.868006 533.581332,231.628 C534.845339,230.387994 535.477332,228.824009 535.477332,226.936 C535.477332,225.047991 534.845339,223.484006 533.581332,222.244 C532.317326,221.003994 530.629343,220.384 528.517332,220.384 L526.453332,220.384 L526.453332,233.488 Z M548.959999,223 L550.543999,223 L550.543999,235 L548.959999,235 L548.959999,233.224 C547.983994,234.536007 546.704007,235.192 545.119999,235.192 C543.727992,235.192 542.560004,234.700005 541.615999,233.716 C540.671994,232.731995 540.199999,231.520007 540.199999,230.08 L540.199999,223 L541.831999,223 L541.831999,230.032 C541.831999,231.056005 542.175996,231.923996 542.863999,232.636 C543.552002,233.348004 544.391994,233.704 545.383999,233.704 C546.392004,233.704 547.239996,233.348004 547.927999,232.636 C548.616002,231.923996 548.959999,231.056005 548.959999,230.032 L548.959999,223 Z M564.674666,223 L566.258666,223 L566.258666,235 L564.674666,235 L564.674666,233.056 C563.44266,234.480007 561.882675,235.192 559.994666,235.192 C558.282657,235.192 556.822672,234.588006 555.614666,233.38 C554.40666,232.171994 553.802666,230.712009 553.802666,229 C553.802666,227.287991 554.40666,225.828006 555.614666,224.62 C556.822672,223.411994 558.282657,222.808 559.994666,222.808 C561.898675,222.808 563.45866,223.519993 564.674666,224.944 L564.674666,223 Z M560.018666,233.68 C561.314672,233.68 562.406661,233.228005 563.294666,232.324 C564.18267,231.419995 564.626666,230.312007 564.626666,229 C564.626666,227.687993 564.18267,226.580005 563.294666,225.676 C562.406661,224.771995 561.314672,224.32 560.018666,224.32 C558.738659,224.32 557.64667,224.771995 556.742666,225.676 C555.838661,226.580005 555.386666,227.687993 555.386666,229 C555.386666,230.312007 555.838661,231.419995 556.742666,232.324 C557.64667,233.228005 558.738659,233.68 560.018666,233.68 Z M570.309332,235 L570.309332,217.144 L571.893332,217.144 L571.893332,235 L570.309332,235 Z M584.818666,233.416 L592.162666,233.416 L592.162666,235 L583.234666,235 L583.234666,218.872 L584.818666,218.872 L584.818666,233.416 Z M605.381332,220.456 L596.381332,220.456 L596.381332,226 L601.445332,226 L601.445332,227.584 L596.381332,227.584 L596.381332,233.416 L605.381332,233.416 L605.381332,235 L594.797332,235 L594.797332,218.872 L605.381332,218.872 L605.381332,220.456 Z M609.215999,235 L609.215999,218.872 L612.863999,218.872 C615.520012,218.872 617.631991,219.639992 619.199999,221.176 C620.768007,222.712008 621.551999,224.631988 621.551999,226.936 C621.551999,229.224011 620.764007,231.139992 619.187999,232.684 C617.611991,234.228008 615.504012,235 612.863999,235 L609.215999,235 Z M610.799999,233.488 L612.863999,233.488 C614.97601,233.488 616.663993,232.868006 617.927999,231.628 C619.192006,230.387994 619.823999,228.824009 619.823999,226.936 C619.823999,225.047991 619.192006,223.484006 617.927999,222.244 C616.663993,221.003994 614.97601,220.384 612.863999,220.384 L610.799999,220.384 L610.799999,233.488 Z M629.106666,235.192 C628.562663,235.192 628.034668,235.124001 627.522666,234.988 C627.010663,234.851999 626.582668,234.692001 626.238666,234.508 C625.894664,234.323999 625.586667,234.136001 625.314666,233.944 C625.042665,233.751999 624.842667,233.592001 624.714666,233.464 L624.522666,233.248 L625.650666,232.288 C625.762666,232.400001 625.918665,232.535999 626.118666,232.696 C626.318667,232.856001 626.722663,233.071999 627.330666,233.344 C627.938669,233.616001 628.538663,233.752 629.130666,233.752 C630.01067,233.752 630.714663,233.584002 631.242666,233.248 C631.770669,232.911998 632.034666,232.440003 632.034666,231.832 C632.034666,231.399998 631.770669,231.028002 631.242666,230.716 C630.714663,230.403998 630.07467,230.136001 629.322666,229.912 C628.570662,229.687999 627.81467,229.440001 627.054666,229.168 C626.294662,228.895999 625.650669,228.512002 625.122666,228.016 C624.594663,227.519998 624.330666,226.912004 624.330666,226.192 C624.330666,225.199995 624.702662,224.388003 625.446666,223.756 C626.19067,223.123997 627.290659,222.808 628.746666,222.808 C629.61067,222.808 630.426662,222.967998 631.194666,223.288 C631.96267,223.608002 632.514664,223.927998 632.850666,224.248 L633.354666,224.728 L632.226666,225.712 C632.114665,225.599999 631.958667,225.464001 631.758666,225.304 C631.558665,225.143999 631.154669,224.928001 630.546666,224.656 C629.938663,224.383999 629.330669,224.248 628.722666,224.248 C627.858662,224.248 627.158669,224.415998 626.622666,224.752 C626.086663,225.088002 625.818666,225.559997 625.818666,226.168 C625.818666,226.600002 626.082663,226.971998 626.610666,227.284 C627.138669,227.596002 627.778662,227.863999 628.530666,228.088 C629.28267,228.312001 630.038662,228.555999 630.798666,228.82 C631.55867,229.084001 632.202663,229.467997 632.730666,229.972 C633.258669,230.476003 633.522666,231.087996 633.522666,231.808 C633.522666,232.816005 633.15467,233.631997 632.418666,234.256 C631.682662,234.880003 630.578673,235.192 629.106666,235.192 Z M659.935999,223 L661.519999,223 L657.271999,235 L655.687999,235 L652.303999,225.112 L648.919999,235 L647.335999,235 L643.111999,223 L644.695999,223 L648.127999,232.768 L651.583999,223 L653.023999,223 L656.479999,232.768 L659.935999,223 Z M665.978666,219.4 C665.802665,219.592001 665.578667,219.688 665.306666,219.688 C665.034665,219.688 664.806667,219.592001 664.622666,219.4 C664.438665,219.207999 664.346666,218.984001 664.346666,218.728 C664.346666,218.471999 664.438665,218.248001 664.622666,218.056 C664.806667,217.863999 665.034665,217.768 665.306666,217.768 C665.578667,217.768 665.806665,217.863999 665.990666,218.056 C666.174667,218.248001 666.266666,218.471999 666.266666,218.728 C666.266666,218.984001 666.170667,219.207999 665.978666,219.4 Z M664.514666,235 L664.514666,223 L666.098666,223 L666.098666,235 L664.514666,235 Z M676.581333,232.312 L677.373333,233.536 C677.277332,233.664001 677.149334,233.815999 676.989333,233.992 C676.829332,234.168001 676.469335,234.411998 675.909333,234.724 C675.34933,235.036002 674.773336,235.192 674.181333,235.192 C673.173328,235.192 672.329336,234.892003 671.649333,234.292 C670.969329,233.691997 670.629333,232.824006 670.629333,231.688 L670.629333,224.44 L668.709333,224.44 L668.709333,222.976 L670.629333,222.976 L670.629333,219.184 L672.213333,218.992 L672.213333,222.976 L675.837333,222.976 L675.837333,224.44 L672.213333,224.44 L672.213333,231.328 C672.213333,232.064004 672.44133,232.647998 672.897333,233.08 C673.353335,233.512002 673.87733,233.728 674.469333,233.728 C674.837335,233.728 675.197331,233.616001 675.549333,233.392 C675.901334,233.167999 676.161332,232.948001 676.329333,232.732 C676.497334,232.515999 676.581333,232.376 676.581333,232.312 Z M685.383999,222.808 C686.776006,222.808 687.943995,223.307995 688.887999,224.308 C689.832004,225.308005 690.303999,226.527993 690.303999,227.968 L690.303999,235 L688.695999,235 L688.695999,227.992 C688.695999,226.951995 688.352003,226.076004 687.663999,225.364 C686.975996,224.651996 686.128004,224.296 685.119999,224.296 C684.127994,224.296 683.284003,224.651996 682.587999,225.364 C681.891996,226.076004 681.543999,226.943995 681.543999,227.968 L681.543999,235 L679.959999,235 L679.959999,217.144 L681.543999,217.144 L681.543999,224.776 C682.520004,223.463993 683.799991,222.808 685.383999,222.808 Z M701.453333,235 L701.453333,218.872 L706.925333,218.872 C708.733342,218.872 710.173327,219.295996 711.245333,220.144 C712.317338,220.992004 712.853333,222.047994 712.853333,223.312 C712.853333,224.096004 712.617335,224.807997 712.145333,225.448 C711.67333,226.088003 711.013337,226.583998 710.165333,226.936 C711.013337,227.288002 711.67333,227.783997 712.145333,228.424 C712.617335,229.064003 712.853333,229.783996 712.853333,230.584 C712.853333,231.848006 712.317338,232.899996 711.245333,233.74 C710.173327,234.580004 708.733342,235 706.925333,235 L701.453333,235 Z M703.037333,226.264 L706.925333,226.264 C708.221339,226.264 709.261329,225.984003 710.045333,225.424 C710.829337,224.863997 711.221333,224.168004 711.221333,223.336 C711.221333,222.487996 710.829337,221.784003 710.045333,221.224 C709.261329,220.663997 708.221339,220.384 706.925333,220.384 L703.037333,220.384 L703.037333,226.264 Z M703.037333,233.488 L706.925333,233.488 C708.221339,233.488 709.261329,233.208003 710.045333,232.648 C710.829337,232.087997 711.221333,231.384004 711.221333,230.536 C711.221333,229.703996 710.829337,229.008003 710.045333,228.448 C709.261329,227.887997 708.221339,227.608 706.925333,227.608 L703.037333,227.608 L703.037333,233.488 Z M726.527999,223 L728.111999,223 L728.111999,235 L726.527999,235 L726.527999,233.056 C725.295993,234.480007 723.736009,235.192 721.848,235.192 C720.135991,235.192 718.676006,234.588006 717.467999,233.38 C716.259993,232.171994 715.656,230.712009 715.656,229 C715.656,227.287991 716.259993,225.828006 717.467999,224.62 C718.676006,223.411994 720.135991,222.808 721.848,222.808 C723.752009,222.808 725.311993,223.519993 726.527999,224.944 L726.527999,223 Z M721.871999,233.68 C723.168006,233.68 724.259995,233.228005 725.147999,232.324 C726.036004,231.419995 726.479999,230.312007 726.479999,229 C726.479999,227.687993 726.036004,226.580005 725.147999,225.676 C724.259995,224.771995 723.168006,224.32 721.871999,224.32 C720.591993,224.32 719.500004,224.771995 718.595999,225.676 C717.691995,226.580005 717.239999,227.687993 717.239999,229 C717.239999,230.312007 717.691995,231.419995 718.595999,232.324 C719.500004,233.228005 720.591993,233.68 721.871999,233.68 Z M732.162666,235 L732.162666,217.144 L733.746666,217.144 L733.746666,235 L732.162666,235 Z M737.749333,235 L737.749333,217.144 L739.333333,217.144 L739.333333,235 L737.749333,235 Z M753.44,223 L755.024,223 L755.024,235 L753.44,235 L753.44,233.056 C752.207993,234.480007 750.648009,235.192 748.76,235.192 C747.047991,235.192 745.588006,234.588006 744.38,233.38 C743.171994,232.171994 742.568,230.712009 742.568,229 C742.568,227.287991 743.171994,225.828006 744.38,224.62 C745.588006,223.411994 747.047991,222.808 748.76,222.808 C750.664009,222.808 752.223994,223.519993 753.44,224.944 L753.44,223 Z M748.784,233.68 C750.080006,233.68 751.171995,233.228005 752.06,232.324 C752.948004,231.419995 753.392,230.312007 753.392,229 C753.392,227.687993 752.948004,226.580005 752.06,225.676 C751.171995,224.771995 750.080006,224.32 748.784,224.32 C747.503993,224.32 746.412004,224.771995 745.508,225.676 C744.603995,226.580005 744.152,227.687993 744.152,229 C744.152,230.312007 744.603995,231.419995 745.508,232.324 C746.412004,233.228005 747.503993,233.68 748.784,233.68 Z M763.130666,235.192 C762.586664,235.192 762.058669,235.124001 761.546666,234.988 C761.034664,234.851999 760.606668,234.692001 760.262666,234.508 C759.918665,234.323999 759.610668,234.136001 759.338666,233.944 C759.066665,233.751999 758.866667,233.592001 758.738666,233.464 L758.546666,233.248 L759.674666,232.288 C759.786667,232.400001 759.942665,232.535999 760.142666,232.696 C760.342667,232.856001 760.746663,233.071999 761.354666,233.344 C761.962669,233.616001 762.562663,233.752 763.154666,233.752 C764.034671,233.752 764.738664,233.584002 765.266666,233.248 C765.794669,232.911998 766.058666,232.440003 766.058666,231.832 C766.058666,231.399998 765.794669,231.028002 765.266666,230.716 C764.738664,230.403998 764.09867,230.136001 763.346666,229.912 C762.594663,229.687999 761.83867,229.440001 761.078666,229.168 C760.318663,228.895999 759.674669,228.512002 759.146666,228.016 C758.618664,227.519998 758.354666,226.912004 758.354666,226.192 C758.354666,225.199995 758.726663,224.388003 759.470666,223.756 C760.21467,223.123997 761.314659,222.808 762.770666,222.808 C763.634671,222.808 764.450662,222.967998 765.218666,223.288 C765.98667,223.608002 766.538665,223.927998 766.874666,224.248 L767.378666,224.728 L766.250666,225.712 C766.138666,225.599999 765.982667,225.464001 765.782666,225.304 C765.582665,225.143999 765.178669,224.928001 764.570666,224.656 C763.962663,224.383999 763.354669,224.248 762.746666,224.248 C761.882662,224.248 761.182669,224.415998 760.646666,224.752 C760.110664,225.088002 759.842666,225.559997 759.842666,226.168 C759.842666,226.600002 760.106664,226.971998 760.634666,227.284 C761.162669,227.596002 761.802663,227.863999 762.554666,228.088 C763.30667,228.312001 764.062662,228.555999 764.822666,228.82 C765.58267,229.084001 766.226664,229.467997 766.754666,229.972 C767.282669,230.476003 767.546666,231.087996 767.546666,231.808 C767.546666,232.816005 767.17867,233.631997 766.442666,234.256 C765.706663,234.880003 764.602674,235.192 763.130666,235.192 Z M777.213333,232.312 L778.005333,233.536 C777.909333,233.664001 777.781334,233.815999 777.621333,233.992 C777.461332,234.168001 777.101336,234.411998 776.541333,234.724 C775.98133,235.036002 775.405336,235.192 774.813333,235.192 C773.805328,235.192 772.961336,234.892003 772.281333,234.292 C771.60133,233.691997 771.261333,232.824006 771.261333,231.688 L771.261333,224.44 L769.341333,224.44 L769.341333,222.976 L771.261333,222.976 L771.261333,219.184 L772.845333,218.992 L772.845333,222.976 L776.469333,222.976 L776.469333,224.44 L772.845333,224.44 L772.845333,231.328 C772.845333,232.064004 773.073331,232.647998 773.529333,233.08 C773.985335,233.512002 774.50933,233.728 775.101333,233.728 C775.469335,233.728 775.829331,233.616001 776.181333,233.392 C776.533335,233.167999 776.793332,232.948001 776.961333,232.732 C777.129334,232.515999 777.213333,232.376 777.213333,232.312 Z M788.482666,235 L788.482666,218.872 L793.954666,218.872 C795.762675,218.872 797.202661,219.347995 798.274666,220.3 C799.346672,221.252005 799.882666,222.447993 799.882666,223.888 C799.882666,224.960005 799.56667,225.911996 798.934666,226.744 C798.302663,227.576004 797.418672,228.167998 796.282666,228.52 L799.882666,235 L798.226666,235 L794.794666,228.856 L793.810666,228.904 L790.066666,228.904 L790.066666,235 L788.482666,235 Z M790.066666,227.392 L793.954666,227.392 C795.250673,227.392 796.290662,227.060003 797.074666,226.396 C797.85867,225.731997 798.250666,224.896005 798.250666,223.888 C798.250666,222.895995 797.85867,222.064003 797.074666,221.392 C796.290662,220.719997 795.250673,220.384 793.954666,220.384 L790.066666,220.384 L790.066666,227.392 Z M808.325333,233.608 C809.397338,233.608 810.357329,233.304003 811.205333,232.696 C812.053337,232.087997 812.629332,231.376004 812.933333,230.56 L814.277333,231.04 C813.909331,232.048005 813.193338,232.975996 812.129333,233.824 C811.065328,234.672004 809.79734,235.088 808.325333,235.072 C806.981326,235.072 805.753339,234.656004 804.641333,233.824 C803.529328,232.991996 802.773335,231.928006 802.373333,230.632 C802.213332,230.103997 802.133333,229.528003 802.133333,228.904 C802.133333,227.175991 802.733327,225.712006 803.933333,224.512 C805.133339,223.311994 806.597324,222.704 808.325333,222.688 C809.893341,222.704 811.261327,223.231995 812.429333,224.272 C813.597339,225.312005 814.269332,226.599992 814.445333,228.136 C814.461333,228.216 814.469333,228.319999 814.469333,228.448 L803.981333,230.344 C804.253334,231.304005 804.797329,232.091997 805.613333,232.708 C806.429337,233.324003 807.333328,233.624 808.325333,233.608 Z M808.181333,224.152 C806.981327,224.168 805.953337,224.599996 805.097333,225.448 C804.241329,226.296004 803.781333,227.311994 803.717333,228.496 C803.717333,228.544 803.721333,228.627999 803.729333,228.748 C803.737333,228.868001 803.741333,228.968 803.741333,229.048 L812.669333,227.44 C812.365332,226.463995 811.797337,225.668003 810.965333,225.052 C810.133329,224.435997 809.205338,224.136 808.181333,224.152 Z M821.592,235.192 C821.047997,235.192 820.520002,235.124001 820.008,234.988 C819.495997,234.851999 819.068002,234.692001 818.724,234.508 C818.379998,234.323999 818.072001,234.136001 817.8,233.944 C817.527998,233.751999 817.328,233.592001 817.2,233.464 L817.008,233.248 L818.136,232.288 C818.248,232.400001 818.403999,232.535999 818.604,232.696 C818.804001,232.856001 819.207997,233.071999 819.816,233.344 C820.424003,233.616001 821.023997,233.752 821.616,233.752 C822.496004,233.752 823.199997,233.584002 823.728,233.248 C824.256002,232.911998 824.52,232.440003 824.52,231.832 C824.52,231.399998 824.256002,231.028002 823.728,230.716 C823.199997,230.403998 822.560004,230.136001 821.808,229.912 C821.055996,229.687999 820.300004,229.440001 819.54,229.168 C818.779996,228.895999 818.136002,228.512002 817.608,228.016 C817.079997,227.519998 816.816,226.912004 816.816,226.192 C816.816,225.199995 817.187996,224.388003 817.932,223.756 C818.676004,223.123997 819.775993,222.808 821.232,222.808 C822.096004,222.808 822.911996,222.967998 823.68,223.288 C824.448004,223.608002 824.999998,223.927998 825.336,224.248 L825.84,224.728 L824.712,225.712 C824.599999,225.599999 824.444001,225.464001 824.244,225.304 C824.043999,225.143999 823.640003,224.928001 823.032,224.656 C822.423997,224.383999 821.816003,224.248 821.208,224.248 C820.343995,224.248 819.644002,224.415998 819.108,224.752 C818.571997,225.088002 818.304,225.559997 818.304,226.168 C818.304,226.600002 818.567997,226.971998 819.096,227.284 C819.624002,227.596002 820.263996,227.863999 821.016,228.088 C821.768004,228.312001 822.523996,228.555999 823.284,228.82 C824.044004,229.084001 824.687997,229.467997 825.216,229.972 C825.744002,230.476003 826.008,231.087996 826.008,231.808 C826.008,232.816005 825.640003,233.631997 824.904,234.256 C824.167996,234.880003 823.064007,235.192 821.592,235.192 Z M831.042666,219.4 C830.866666,219.592001 830.642668,219.688 830.370666,219.688 C830.098665,219.688 829.870667,219.592001 829.686667,219.4 C829.502666,219.207999 829.410667,218.984001 829.410667,218.728 C829.410667,218.471999 829.502666,218.248001 829.686667,218.056 C829.870667,217.863999 830.098665,217.768 830.370666,217.768 C830.642668,217.768 830.870666,217.863999 831.054667,218.056 C831.238667,218.248001 831.330667,218.471999 831.330667,218.728 C831.330667,218.984001 831.234667,219.207999 831.042666,219.4 Z M829.578667,235 L829.578667,223 L831.162667,223 L831.162667,235 L829.578667,235 Z M839.437333,235.192 C838.89333,235.192 838.365336,235.124001 837.853333,234.988 C837.341331,234.851999 836.913335,234.692001 836.569333,234.508 C836.225331,234.323999 835.917335,234.136001 835.645333,233.944 C835.373332,233.751999 835.173334,233.592001 835.045333,233.464 L834.853333,233.248 L835.981333,232.288 C836.093334,232.400001 836.249332,232.535999 836.449333,232.696 C836.649334,232.856001 837.05333,233.071999 837.661333,233.344 C838.269336,233.616001 838.86933,233.752 839.461333,233.752 C840.341338,233.752 841.045331,233.584002 841.573333,233.248 C842.101336,232.911998 842.365333,232.440003 842.365333,231.832 C842.365333,231.399998 842.101336,231.028002 841.573333,230.716 C841.045331,230.403998 840.405337,230.136001 839.653333,229.912 C838.901329,229.687999 838.145337,229.440001 837.385333,229.168 C836.625329,228.895999 835.981336,228.512002 835.453333,228.016 C834.925331,227.519998 834.661333,226.912004 834.661333,226.192 C834.661333,225.199995 835.033329,224.388003 835.777333,223.756 C836.521337,223.123997 837.621326,222.808 839.077333,222.808 C839.941338,222.808 840.757329,222.967998 841.525333,223.288 C842.293337,223.608002 842.845332,223.927998 843.181333,224.248 L843.685333,224.728 L842.557333,225.712 C842.445333,225.599999 842.289334,225.464001 842.089333,225.304 C841.889332,225.143999 841.485336,224.928001 840.877333,224.656 C840.26933,224.383999 839.661336,224.248 839.053333,224.248 C838.189329,224.248 837.489336,224.415998 836.953333,224.752 C836.417331,225.088002 836.149333,225.559997 836.149333,226.168 C836.149333,226.600002 836.413331,226.971998 836.941333,227.284 C837.469336,227.596002 838.109329,227.863999 838.861333,228.088 C839.613337,228.312001 840.369329,228.555999 841.129333,228.82 C841.889337,229.084001 842.533331,229.467997 843.061333,229.972 C843.589336,230.476003 843.853333,231.087996 843.853333,231.808 C843.853333,232.816005 843.485337,233.631997 842.749333,234.256 C842.01333,234.880003 840.909341,235.192 839.437333,235.192 Z M853.52,232.312 L854.312,233.536 C854.215999,233.664001 854.088001,233.815999 853.928,233.992 C853.767999,234.168001 853.408003,234.411998 852.848,234.724 C852.287997,235.036002 851.712003,235.192 851.12,235.192 C850.111995,235.192 849.268003,234.892003 848.588,234.292 C847.907996,233.691997 847.568,232.824006 847.568,231.688 L847.568,224.44 L845.648,224.44 L845.648,222.976 L847.568,222.976 L847.568,219.184 L849.152,218.992 L849.152,222.976 L852.776,222.976 L852.776,224.44 L849.152,224.44 L849.152,231.328 C849.152,232.064004 849.379998,232.647998 849.836,233.08 C850.292002,233.512002 850.815997,233.728 851.408,233.728 C851.776002,233.728 852.135998,233.616001 852.488,233.392 C852.840002,233.167999 853.099999,232.948001 853.268,232.732 C853.436001,232.515999 853.52,232.376 853.52,232.312 Z M866.330667,233.368 C865.130661,234.584006 863.674675,235.192 861.962667,235.192 C860.250658,235.192 858.790673,234.588006 857.582667,233.38 C856.374661,232.171994 855.770667,230.712009 855.770667,229 C855.770667,227.287991 856.374661,225.828006 857.582667,224.62 C858.790673,223.411994 860.250658,222.808 861.962667,222.808 C863.674675,222.808 865.134661,223.411994 866.342667,224.62 C867.550673,225.828006 868.154667,227.287991 868.154667,229 C868.154667,230.696008 867.546673,232.151994 866.330667,233.368 Z M861.986667,233.68 C863.282673,233.68 864.374662,233.228005 865.262667,232.324 C866.150671,231.419995 866.594667,230.312007 866.594667,229 C866.594667,227.687993 866.150671,226.576005 865.262667,225.664 C864.374662,224.751995 863.282673,224.296 861.986667,224.296 C860.70666,224.296 859.618671,224.751995 858.722667,225.664 C857.826662,226.576005 857.378667,227.687993 857.378667,229 C857.378667,230.312007 857.826662,231.419995 858.722667,232.324 C859.618671,233.228005 860.70666,233.68 861.986667,233.68 Z M876.621333,222.808 C877.469338,222.808 878.24533,223.015998 878.949333,223.432 L878.397333,225.016 C877.72533,224.519998 877.045337,224.272 876.357333,224.272 C875.349328,224.272 874.501337,224.627996 873.813333,225.34 C873.12533,226.052004 872.781333,226.927995 872.781333,227.968 L872.781333,235 L871.197333,235 L871.197333,223 L872.781333,223 L872.781333,224.776 C873.757338,223.463993 875.037325,222.808 876.621333,222.808 Z" id="Exercise-2:-Dual-LED-Copy" fill="#23ABE3"></path>
        </g>
        <g id="Circuit" transform="translate(224.000000, 29.000000)">
            <g id="Pushbutton" transform="translate(43.000000, 61.000000)">
                <g>
                    <g id="Connection" transform="translate(0.000000, 13.000000)" fill="#3D3530">
                        <circle cx="5" cy="5" r="5"></circle>
                    </g>
                    <g id="Connection" transform="translate(60.000000, 13.000000)" fill="#3D3530">
                        <circle cx="5" cy="5" r="5"></circle>
                    </g>
                    <path d="M5,8 L65,8" id="Path" stroke="#3D3530" stroke-width="3"></path>
                    <rect id="Rectangle" fill="#3D3530" x="26" y="0" width="18" height="7"></rect>
                </g>
            </g>
            <g id="Resistor" transform="translate(343.000000, 66.000000)" stroke="#3D3530" stroke-linejoin="round" stroke-width="3">
                <polyline points="0 13 5 13 10 0 20 26 30 0 40 26 50 0 60 26 65 13 70 13"></polyline>
            </g>
            <g id="Ground" transform="translate(412.000000, 78.000000)" stroke="#3D3530">
                <g transform="translate(33.000000, 37.500000) rotate(-90.000000) translate(-33.000000, -37.500000) translate(-4.500000, 4.500000)">
                    <path d="M25,33 L75,33" id="Path-2-Copy" stroke-width="3"></path>
                    <path d="M13,13 L13,53" id="Path-4" stroke-width="3"></path>
                    <path d="M1,27 L1,39" id="Path-4-Copy" stroke-width="3"></path>
                    <path d="M25,0 L25,66" id="Path-3-Copy" stroke-width="3"></path>
                </g>
            </g>
            <g id="LED" transform="translate(243.000000, 37.000000)">
                <g>
                    <polygon id="Path-2" fill="#3D3530" points="24.5 29 44 42 24.5 55"></polygon>
                    <path d="M44,42 L70,42" id="Path-2-Copy" stroke="#3D3530" stroke-width="3"></path>
                    <path d="M44,29 L44,55" id="Path-4-Copy" stroke="#3D3530" stroke-width="3"></path>
                    <path d="M0,42 L24.5,42" id="Path-3" stroke="#3D3530" stroke-width="3"></path>
                    <g id="Arrow" transform="translate(43.647114, 19.941343) rotate(-150.000000) translate(-43.647114, -19.941343) translate(39.147114, 6.441343)">
                        <polygon id="Triangle" fill="#3D3530" transform="translate(4.633975, 19.633975) scale(1, -1) translate(-4.633975, -19.633975) " points="4.6339746 13.1339746 8.6339746 26.1339746 0.633974596 26.1339746"></polygon>
                        <path d="M4.5,0 L4.5,20" id="Path-3" stroke="#3D3530" stroke-width="3"></path>
                    </g>
                    <g id="Arrow" transform="translate(33.647114, 13.941343) rotate(-150.000000) translate(-33.647114, -13.941343) translate(29.147114, 0.441343)">
                        <polygon id="Triangle" fill="#3D3530" transform="translate(4.633975, 19.633975) scale(1, -1) translate(-4.633975, -19.633975) " points="4.6339746 13.1339746 8.6339746 26.1339746 0.633974596 26.1339746"></polygon>
                        <path d="M4.5,1.13686838e-13 L4.5,20" id="Path-3" stroke="#3D3530" stroke-width="3"></path>
                    </g>
                </g>
            </g>
            <g id="LED" transform="translate(143.000000, 37.000000)">
                <g>
                    <polygon id="Path-2" fill="#3D3530" points="24.5 29 44 42 24.5 55"></polygon>
                    <path d="M44,42 L70,42" id="Path-2-Copy" stroke="#3D3530" stroke-width="3"></path>
                    <path d="M44,29 L44,55" id="Path-4-Copy" stroke="#3D3530" stroke-width="3"></path>
                    <path d="M0,42 L24.5,42" id="Path-3" stroke="#3D3530" stroke-width="3"></path>
                    <g id="Arrow" transform="translate(43.647114, 19.941343) rotate(-150.000000) translate(-43.647114, -19.941343) translate(39.147114, 6.441343)">
                        <polygon id="Triangle" fill="#3D3530" transform="translate(4.633975, 19.633975) scale(1, -1) translate(-4.633975, -19.633975) " points="4.6339746 13.1339746 8.6339746 26.1339746 0.633974596 26.1339746"></polygon>
                        <path d="M4.5,0 L4.5,20" id="Path-3" stroke="#3D3530" stroke-width="3"></path>
                    </g>
                    <g id="Arrow" transform="translate(33.647114, 13.941343) rotate(-150.000000) translate(-33.647114, -13.941343) translate(29.147114, 0.441343)">
                        <polygon id="Triangle" fill="#3D3530" transform="translate(4.633975, 19.633975) scale(1, -1) translate(-4.633975, -19.633975) " points="4.6339746 13.1339746 8.6339746 26.1339746 0.633974596 26.1339746"></polygon>
                        <path d="M4.5,1.13686838e-13 L4.5,20" id="Path-3" stroke="#3D3530" stroke-width="3"></path>
                    </g>
                </g>
            </g>
            <path d="M12.908,12.968 C12.908,14.3920071 12.712002,15.7359937 12.32,17 C11.927998,18.2640063 11.3000043,19.3279957 10.436,20.192 C9.57199568,21.0560043 8.55600584,21.488 7.388,21.488 C6.44399528,21.488 5.61600356,21.288002 4.904,20.888 C4.19199644,20.487998 3.836,20.0800021 3.836,19.664 C3.836,19.471999 3.90799928,19.3160006 4.052,19.196 C4.19600072,19.0759994 4.3479992,19.016 4.508,19.016 C4.6680008,19.016 4.83599912,19.1039991 5.012,19.28 C5.18800088,19.4560009 5.35999916,19.647999 5.528,19.856 C5.69600084,20.064001 5.94399836,20.2559991 6.272,20.432 C6.60000164,20.6080009 6.963998,20.696 7.364,20.696 C9.5240108,20.696 10.699999,18.392023 10.892,13.784 C10.1879965,14.7280047 9.236006,15.2 8.036,15.2 C6.70799336,15.2 5.56800476,14.7600044 4.616,13.88 C3.66399524,12.9999956 3.188,11.9360062 3.188,10.688 C3.188,9.45599384 3.66399524,8.4000044 4.616,7.52 C5.56800476,6.6399956 6.70799336,6.2 8.036,6.2 C8.436002,6.2 8.83999796,6.25199948 9.248,6.356 C9.65600204,6.46000052 10.0839978,6.66799844 10.532,6.98 C10.9800022,7.29200156 11.3759983,7.6879976 11.72,8.168 C12.0640017,8.6480024 12.3479989,9.30399584 12.572,10.136 C12.7960011,10.9680042 12.908,11.9119947 12.908,12.968 Z M10.916,12.464 C10.8839998,11.3599945 10.7600011,10.4280038 10.544,9.668 C10.3279989,8.9079962 10.0600016,8.36400164 9.74,8.036 C9.4199984,7.70799836 9.12400136,7.48000064 8.852,7.352 C8.57999864,7.22399936 8.30800136,7.16 8.036,7.16 C7.05999512,7.16 6.34000232,7.50399656 5.876,8.192 C5.41199768,8.88000344 5.18,9.71999504 5.18,10.712 C5.18,11.704005 5.41199768,12.5399966 5.876,13.22 C6.34000232,13.9000034 7.05999512,14.24 8.036,14.24 C8.72400344,14.24 9.33999728,14.0680017 9.884,13.724 C10.4280027,13.3799983 10.7719993,12.9600025 10.916,12.464 Z M30.092,3.104 C29.1479953,3.104 28.5360014,3.21999884 28.256,3.452 C27.9759986,3.68400116 27.636002,4.26399536 27.236,5.192 L21.956,17.408 L21.644,17.408 L16.34,5.192 C15.939998,4.26399536 15.6000014,3.68400116 15.32,3.452 C15.0399986,3.21999884 14.4280047,3.104 13.484,3.104 L13.484,2.6 L20.132,2.6 L20.132,3.104 C19.139995,3.104 18.5040014,3.2439986 18.224,3.524 C17.9439986,3.8040014 17.9559985,4.27199672 18.26,4.928 L22.34,14.264 L26.372,4.928 C26.6760015,4.27199672 26.6880014,3.8040014 26.408,3.524 C26.1279986,3.2439986 25.492005,3.104 24.5,3.104 L24.5,2.6 L30.092,2.6 L30.092,3.104 Z" id="9V-Copy" fill="#524740"></path>
            <g id="DC_Rail" transform="translate(0.000000, 29.000000)" stroke="#3D3530">
                <g transform="translate(15.000000, 25.500000) rotate(-90.000000) translate(-15.000000, -25.500000) translate(-10.500000, 10.500000)">
                    <path d="M-5.32907052e-15,15 L50,15" id="Path-2-Copy" stroke-width="3"></path>
                    <path d="M50,-4.26325641e-14 L50,30" id="Path-4" stroke-width="3"></path>
                </g>
            </g>
            <g id="Wiring" transform="translate(15.000000, 78.000000)" stroke="#3D3530" stroke-width="2">
                <path d="M398,1 L430,1" id="Path"></path>
                <path d="M298,1 L328,1" id="Path-2"></path>
                <path d="M198,1 L228,1" id="Path-2-Copy"></path>
                <path d="M93,1 L128,1" id="Path-3"></path>
                <path d="M0,1 L33,1" id="Path-4"></path>
            </g>
        </g>
    </g>
</svg>