<?xml version="1.0" encoding="UTF-8"?>
<svg width="900px" height="430px" viewBox="0 0 900 430" version="1.1" xmlns="http://www.w3.org/2000/svg" xmlns:xlink="http://www.w3.org/1999/xlink">
    <!-- Generator: Sketch 52.5 (67469) - http://www.bohemiancoding.com/sketch -->
    <title>Lab_Circuit_Logical_AND_Gate_Inverted</title>
    <desc>Created with Sketch.</desc>
    <g id="Lab_Circuit_Logical_AND_Gate_Inverted" stroke="none" stroke-width="1" fill="none" fill-rule="evenodd">
        <g id="Illustration_Frame">
            <rect id="Rectangle" stroke="#3D3530" stroke-width="2" fill="#EEEEEE" x="1" y="1" width="898" height="428"></rect>
            <rect id="Rectangle-Copy" stroke="#3D3530" stroke-width="2" fill="#F8FAE4" x="1" y="386" width="898" height="43"></rect>
            <path d="M453.525332,400.456 L444.525332,400.456 L444.525332,406 L449.589332,406 L449.589332,407.584 L444.525332,407.584 L444.525332,413.416 L453.525332,413.416 L453.525332,415 L442.941332,415 L442.941332,398.872 L453.525332,398.872 L453.525332,400.456 Z M466.023999,415 L464.223999,415 L460.863999,410.224 L457.479999,415 L455.703999,415 L459.975999,408.952 L455.775999,403 L457.551999,403 L460.863999,407.68 L464.151999,403 L465.951999,403 L461.751999,408.952 L466.023999,415 Z M473.794665,413.608 C474.866671,413.608 475.826661,413.304003 476.674665,412.696 C477.52267,412.087997 478.098664,411.376004 478.402665,410.56 L479.746665,411.04 C479.378664,412.048005 478.662671,412.975996 477.598665,413.824 C476.53466,414.672004 475.266673,415.088 473.794665,415.072 C472.450659,415.072 471.222671,414.656004 470.110665,413.824 C468.99866,412.991996 468.242667,411.928006 467.842665,410.632 C467.682665,410.103997 467.602665,409.528003 467.602665,408.904 C467.602665,407.175991 468.202659,405.712006 469.402665,404.512 C470.602671,403.311994 472.066657,402.704 473.794665,402.688 C475.362673,402.704 476.73066,403.231995 477.898665,404.272 C479.066671,405.312005 479.738665,406.599992 479.914665,408.136 C479.930666,408.216 479.938665,408.319999 479.938665,408.448 L469.450665,410.344 C469.722667,411.304005 470.266661,412.091997 471.082665,412.708 C471.89867,413.324003 472.802661,413.624 473.794665,413.608 Z M473.650665,404.152 C472.450659,404.168 471.42267,404.599996 470.566665,405.448 C469.710661,406.296004 469.250666,407.311994 469.186665,408.496 C469.186665,408.544 469.190665,408.627999 469.198665,408.748 C469.206666,408.868001 469.210665,408.968 469.210665,409.048 L478.138665,407.44 C477.834664,406.463995 477.26667,405.668003 476.434665,405.052 C475.602661,404.435997 474.674671,404.136 473.650665,404.152 Z M488.285332,402.808 C489.133336,402.808 489.909329,403.015998 490.613332,403.432 L490.061332,405.016 C489.389329,404.519998 488.709336,404.272 488.021332,404.272 C487.013327,404.272 486.165336,404.627996 485.477332,405.34 C484.789329,406.052004 484.445332,406.927995 484.445332,407.968 L484.445332,415 L482.861332,415 L482.861332,403 L484.445332,403 L484.445332,404.776 C485.421337,403.463993 486.701324,402.808 488.285332,402.808 Z M497.927999,415.192 C496.21599,415.192 494.756005,414.588006 493.547999,413.38 C492.339993,412.171994 491.735999,410.712009 491.735999,409 C491.735999,407.287991 492.339993,405.828006 493.547999,404.62 C494.756005,403.411994 496.21599,402.808 497.927999,402.808 C499.016004,402.808 500.027994,403.075997 500.963999,403.612 C501.900004,404.148003 502.639996,404.863996 503.183999,405.76 L501.743999,406.456 C501.311997,405.799997 500.760002,405.280002 500.087999,404.896 C499.415996,404.511998 498.696003,404.32 497.927999,404.32 C496.631992,404.32 495.540003,404.771995 494.651999,405.676 C493.763994,406.580005 493.319999,407.687993 493.319999,409 C493.319999,410.312007 493.763994,411.419995 494.651999,412.324 C495.540003,413.228005 496.631992,413.68 497.927999,413.68 C498.696003,413.68 499.415996,413.488002 500.087999,413.104 C500.760002,412.719998 501.311997,412.200003 501.743999,411.544 L503.183999,412.24 C502.639996,413.136004 501.900004,413.851997 500.963999,414.388 C500.027994,414.924003 499.016004,415.192 497.927999,415.192 Z M508.362666,399.4 C508.186665,399.592001 507.962667,399.688 507.690666,399.688 C507.418664,399.688 507.190667,399.592001 507.006666,399.4 C506.822665,399.207999 506.730666,398.984001 506.730666,398.728 C506.730666,398.471999 506.822665,398.248001 507.006666,398.056 C507.190667,397.863999 507.418664,397.768 507.690666,397.768 C507.962667,397.768 508.190665,397.863999 508.374666,398.056 C508.558667,398.248001 508.650666,398.471999 508.650666,398.728 C508.650666,398.984001 508.554667,399.207999 508.362666,399.4 Z M506.898666,415 L506.898666,403 L508.482666,403 L508.482666,415 L506.898666,415 Z M516.757332,415.192 C516.21333,415.192 515.685335,415.124001 515.173332,414.988 C514.66133,414.851999 514.233334,414.692001 513.889332,414.508 C513.545331,414.323999 513.237334,414.136001 512.965332,413.944 C512.693331,413.751999 512.493333,413.592001 512.365332,413.464 L512.173332,413.248 L513.301332,412.288 C513.413333,412.400001 513.569331,412.535999 513.769332,412.696 C513.969333,412.856001 514.373329,413.071999 514.981332,413.344 C515.589335,413.616001 516.189329,413.752 516.781332,413.752 C517.661337,413.752 518.36533,413.584002 518.893332,413.248 C519.421335,412.911998 519.685332,412.440003 519.685332,411.832 C519.685332,411.399998 519.421335,411.028002 518.893332,410.716 C518.36533,410.403998 517.725336,410.136001 516.973332,409.912 C516.221329,409.687999 515.465336,409.440001 514.705332,409.168 C513.945328,408.895999 513.301335,408.512002 512.773332,408.016 C512.24533,407.519998 511.981332,406.912004 511.981332,406.192 C511.981332,405.199995 512.353329,404.388003 513.097332,403.756 C513.841336,403.123997 514.941325,402.808 516.397332,402.808 C517.261337,402.808 518.077328,402.967998 518.845332,403.288 C519.613336,403.608002 520.165331,403.927998 520.501332,404.248 L521.005332,404.728 L519.877332,405.712 C519.765332,405.599999 519.609333,405.464001 519.409332,405.304 C519.209331,405.143999 518.805335,404.928001 518.197332,404.656 C517.589329,404.383999 516.981335,404.248 516.373332,404.248 C515.509328,404.248 514.809335,404.415998 514.273332,404.752 C513.73733,405.088002 513.469332,405.559997 513.469332,406.168 C513.469332,406.600002 513.73333,406.971998 514.261332,407.284 C514.789335,407.596002 515.429329,407.863999 516.181332,408.088 C516.933336,408.312001 517.689328,408.555999 518.449332,408.82 C519.209336,409.084001 519.85333,409.467997 520.381332,409.972 C520.909335,410.476003 521.173332,411.087996 521.173332,411.808 C521.173332,412.816005 520.805336,413.631997 520.069332,414.256 C519.333329,414.880003 518.22934,415.192 516.757332,415.192 Z M529.735999,413.608 C530.808004,413.608 531.767995,413.304003 532.615999,412.696 C533.464003,412.087997 534.039997,411.376004 534.343999,410.56 L535.687999,411.04 C535.319997,412.048005 534.604004,412.975996 533.539999,413.824 C532.475994,414.672004 531.208006,415.088 529.735999,415.072 C528.391992,415.072 527.164005,414.656004 526.051999,413.824 C524.939993,412.991996 524.184001,411.928006 523.783999,410.632 C523.623998,410.103997 523.543999,409.528003 523.543999,408.904 C523.543999,407.175991 524.143993,405.712006 525.343999,404.512 C526.544005,403.311994 528.00799,402.704 529.735999,402.688 C531.304007,402.704 532.671993,403.231995 533.839999,404.272 C535.008005,405.312005 535.679998,406.599992 535.855999,408.136 C535.871999,408.216 535.879999,408.319999 535.879999,408.448 L525.391999,410.344 C525.664,411.304005 526.207995,412.091997 527.023999,412.708 C527.840003,413.324003 528.743994,413.624 529.735999,413.608 Z M529.591999,404.152 C528.391993,404.168 527.364003,404.599996 526.507999,405.448 C525.651995,406.296004 525.191999,407.311994 525.127999,408.496 C525.127999,408.544 525.131999,408.627999 525.139999,408.748 C525.147999,408.868001 525.151999,408.968 525.151999,409.048 L534.079999,407.44 C533.775997,406.463995 533.208003,405.668003 532.375999,405.052 C531.543995,404.435997 530.616004,404.136 529.591999,404.152 Z M551.493332,415.192 C550.245326,415.192 549.109338,414.868003 548.085332,414.22 C547.061327,413.571997 546.365334,412.928003 545.997332,412.288 L547.149332,411.208 C547.453334,411.752003 548.005328,412.299997 548.805332,412.852 C549.605336,413.404003 550.461328,413.68 551.373332,413.68 C552.365337,413.68 553.181329,413.412003 553.821332,412.876 C554.461336,412.339997 554.781332,411.656004 554.781332,410.824 C554.781332,409.943996 554.389336,409.184003 553.605332,408.544 C552.821328,407.903997 551.71734,407.584 550.293332,407.584 L549.381332,407.584 L549.381332,406.336 L550.293332,406.336 C551.71734,406.336 552.821328,406.016003 553.605332,405.376 C554.389336,404.735997 554.781332,403.976004 554.781332,403.096 C554.781332,402.263996 554.461336,401.580003 553.821332,401.044 C553.181329,400.507997 552.365337,400.24 551.373332,400.24 C550.605329,400.24 549.869336,400.451998 549.165332,400.876 C548.461329,401.300002 547.949334,401.695998 547.629332,402.064 C547.309331,402.432002 547.149332,402.648 547.149332,402.712 L545.997332,401.632 C546.381334,400.975997 547.077327,400.328003 548.085332,399.688 C549.093337,399.047997 550.229326,398.728 551.493332,398.728 C552.98134,398.728 554.169328,399.147996 555.057332,399.988 C555.945337,400.828004 556.389332,401.847994 556.389332,403.048 C556.389332,403.960005 556.105335,404.775996 555.537332,405.496 C554.96933,406.216004 554.317336,406.703999 553.581332,406.96 C554.317336,407.216001 554.96933,407.699996 555.537332,408.412 C556.105335,409.124004 556.389332,409.943995 556.389332,410.872 C556.389332,412.072006 555.945337,413.091996 555.057332,413.932 C554.169328,414.772004 552.98134,415.192 551.493332,415.192 Z M559.431999,406.768 L559.431999,402.688 L561.087999,402.688 L561.087999,406.768 L559.431999,406.768 Z M559.431999,415 L559.431999,410.752 L561.087999,410.752 L561.087999,415 L559.431999,415 Z M574.013332,413.416 L581.357332,413.416 L581.357332,415 L572.429332,415 L572.429332,398.872 L574.013332,398.872 L574.013332,413.416 Z M593.687999,413.368 C592.487993,414.584006 591.032008,415.192 589.319999,415.192 C587.607991,415.192 586.148005,414.588006 584.939999,413.38 C583.731993,412.171994 583.127999,410.712009 583.127999,409 C583.127999,407.287991 583.731993,405.828006 584.939999,404.62 C586.148005,403.411994 587.607991,402.808 589.319999,402.808 C591.032008,402.808 592.491993,403.411994 593.699999,404.62 C594.908005,405.828006 595.511999,407.287991 595.511999,409 C595.511999,410.696008 594.904005,412.151994 593.687999,413.368 Z M589.343999,413.68 C590.640006,413.68 591.731995,413.228005 592.619999,412.324 C593.508004,411.419995 593.951999,410.312007 593.951999,409 C593.951999,407.687993 593.508004,406.576005 592.619999,405.664 C591.731995,404.751995 590.640006,404.296 589.343999,404.296 C588.063993,404.296 586.976004,404.751995 586.079999,405.664 C585.183995,406.576005 584.735999,407.687993 584.735999,409 C584.735999,410.312007 585.183995,411.419995 586.079999,412.324 C586.976004,413.228005 588.063993,413.68 589.343999,413.68 Z M608.970666,403.024 L610.578666,403.024 L610.578666,413.968 C610.562666,415.712009 609.934672,417.171994 608.694666,418.348 C607.45466,419.524006 606.018674,420.112 604.386666,420.112 C602.898658,420.112 601.630671,419.716004 600.582666,418.924 C599.534661,418.131996 598.826668,417.240005 598.458666,416.248 L599.754666,415.6 C600.058667,416.416004 600.634662,417.127997 601.482666,417.736 C602.33067,418.344003 603.29866,418.648 604.386666,418.648 C605.666672,418.648 606.750661,418.180005 607.638666,417.244 C608.52667,416.307995 608.978666,415.216006 608.994666,413.968 L608.970666,413.968 L608.970666,413.08 C607.75466,414.504007 606.194675,415.216 604.290666,415.216 C602.578657,415.216 601.118672,414.612006 599.910666,413.404 C598.70266,412.195994 598.098666,410.736009 598.098666,409.024 C598.098666,407.311991 598.70266,405.852006 599.910666,404.644 C601.118672,403.435994 602.578657,402.832 604.290666,402.832 C606.178675,402.832 607.73866,403.543993 608.970666,404.968 L608.970666,403.024 Z M604.314666,413.728 C605.610672,413.728 606.702661,413.276005 607.590666,412.372 C608.47867,411.467995 608.922666,410.360007 608.922666,409.048 C608.922666,407.735993 608.47867,406.628005 607.590666,405.724 C606.702661,404.819995 605.610672,404.368 604.314666,404.368 C603.034659,404.368 601.94667,404.819995 601.050666,405.724 C600.154661,406.628005 599.706666,407.735993 599.706666,409.048 C599.706666,410.360007 600.154661,411.467995 601.050666,412.372 C601.94667,413.276005 603.034659,413.728 604.314666,413.728 Z M616.381333,399.4 C616.205332,399.592001 615.981334,399.688 615.709333,399.688 C615.437331,399.688 615.209334,399.592001 615.025333,399.4 C614.841332,399.207999 614.749333,398.984001 614.749333,398.728 C614.749333,398.471999 614.841332,398.248001 615.025333,398.056 C615.209334,397.863999 615.437331,397.768 615.709333,397.768 C615.981334,397.768 616.209332,397.863999 616.393333,398.056 C616.577334,398.248001 616.669333,398.471999 616.669333,398.728 C616.669333,398.984001 616.573334,399.207999 616.381333,399.4 Z M614.917333,415 L614.917333,403 L616.501333,403 L616.501333,415 L614.917333,415 Z M626.167999,415.192 C624.455991,415.192 622.996005,414.588006 621.787999,413.38 C620.579993,412.171994 619.975999,410.712009 619.975999,409 C619.975999,407.287991 620.579993,405.828006 621.787999,404.62 C622.996005,403.411994 624.455991,402.808 626.167999,402.808 C627.256005,402.808 628.267995,403.075997 629.203999,403.612 C630.140004,404.148003 630.879997,404.863996 631.423999,405.76 L629.983999,406.456 C629.551997,405.799997 629.000003,405.280002 628.327999,404.896 C627.655996,404.511998 626.936003,404.32 626.167999,404.32 C624.871993,404.32 623.780004,404.771995 622.891999,405.676 C622.003995,406.580005 621.559999,407.687993 621.559999,409 C621.559999,410.312007 622.003995,411.419995 622.891999,412.324 C623.780004,413.228005 624.871993,413.68 626.167999,413.68 C626.936003,413.68 627.655996,413.488002 628.327999,413.104 C629.000003,412.719998 629.551997,412.200003 629.983999,411.544 L631.423999,412.24 C630.879997,413.136004 630.140004,413.851997 629.203999,414.388 C628.267995,414.924003 627.256005,415.192 626.167999,415.192 Z M644.666666,403 L646.250666,403 L646.250666,415 L644.666666,415 L644.666666,413.056 C643.43466,414.480007 641.874675,415.192 639.986666,415.192 C638.274657,415.192 636.814672,414.588006 635.606666,413.38 C634.39866,412.171994 633.794666,410.712009 633.794666,409 C633.794666,407.287991 634.39866,405.828006 635.606666,404.62 C636.814672,403.411994 638.274657,402.808 639.986666,402.808 C641.890676,402.808 643.45066,403.519993 644.666666,404.944 L644.666666,403 Z M640.010666,413.68 C641.306672,413.68 642.398662,413.228005 643.286666,412.324 C644.17467,411.419995 644.618666,410.312007 644.618666,409 C644.618666,407.687993 644.17467,406.580005 643.286666,405.676 C642.398662,404.771995 641.306672,404.32 640.010666,404.32 C638.73066,404.32 637.638671,404.771995 636.734666,405.676 C635.830661,406.580005 635.378666,407.687993 635.378666,409 C635.378666,410.312007 635.830661,411.419995 636.734666,412.324 C637.638671,413.228005 638.73066,413.68 640.010666,413.68 Z M650.301333,415 L650.301333,397.144 L651.885333,397.144 L651.885333,415 L650.301333,415 Z M675.682666,415 L673.618666,409.96 L666.082666,409.96 L664.018666,415 L662.362666,415 L669.082666,398.872 L670.594666,398.872 L677.314666,415 L675.682666,415 Z M666.730666,408.376 L672.970666,408.376 L669.850666,400.72 L666.730666,408.376 Z M690.701333,398.872 L692.285333,398.872 L692.285333,415 L690.653333,415 L681.653333,401.296 L681.653333,415 L680.069333,415 L680.069333,398.872 L681.677333,398.872 L690.701333,412.6 L690.701333,398.872 Z M696.287999,415 L696.287999,398.872 L699.935999,398.872 C702.592013,398.872 704.703992,399.639992 706.271999,401.176 C707.840007,402.712008 708.623999,404.631988 708.623999,406.936 C708.623999,409.224011 707.836007,411.139992 706.259999,412.684 C704.683992,414.228008 702.576013,415 699.935999,415 L696.287999,415 Z M697.871999,413.488 L699.935999,413.488 C702.04801,413.488 703.735993,412.868006 704.999999,411.628 C706.264006,410.387994 706.895999,408.824009 706.895999,406.936 C706.895999,405.047991 706.264006,403.484006 704.999999,402.244 C703.735993,401.003994 702.04801,400.384 699.935999,400.384 L697.871999,400.384 L697.871999,413.488 Z M726.517333,415.192 C724.149321,415.192 722.25734,414.404008 720.841333,412.828 C719.425326,411.251992 718.717333,409.296012 718.717333,406.96 C718.717333,404.607988 719.425326,402.644008 720.841333,401.068 C722.25734,399.491992 724.149321,398.704 726.517333,398.704 C728.069341,398.704 729.429327,399.063996 730.597333,399.784 C731.765339,400.504004 732.66133,401.487994 733.285333,402.736 L731.797333,403.6 C731.30133,402.559995 730.593337,401.736003 729.673333,401.128 C728.753328,400.519997 727.701339,400.216 726.517333,400.216 C724.693324,400.216 723.233338,400.851994 722.137333,402.124 C721.041327,403.396006 720.493333,405.00799 720.493333,406.96 C720.493333,408.89601 721.041327,410.503994 722.137333,411.784 C723.233338,413.064006 724.693324,413.704 726.517333,413.704 C728.117341,413.704 729.449328,413.172005 730.513333,412.108 C731.577338,411.043995 732.205332,409.696008 732.397333,408.064 L727.165333,408.064 L727.165333,406.648 L734.053333,406.648 L734.053333,415 L732.613333,415 L732.613333,411.76 C732.02133,412.832005 731.201338,413.671997 730.153333,414.28 C729.105328,414.888003 727.89334,415.192 726.517333,415.192 Z M747.896,403 L749.48,403 L749.48,415 L747.896,415 L747.896,413.056 C746.663993,414.480007 745.104009,415.192 743.216,415.192 C741.503991,415.192 740.044006,414.588006 738.836,413.38 C737.627994,412.171994 737.024,410.712009 737.024,409 C737.024,407.287991 737.627994,405.828006 738.836,404.62 C740.044006,403.411994 741.503991,402.808 743.216,402.808 C745.120009,402.808 746.679994,403.519993 747.896,404.944 L747.896,403 Z M743.24,413.68 C744.536006,413.68 745.627995,413.228005 746.516,412.324 C747.404004,411.419995 747.848,410.312007 747.848,409 C747.848,407.687993 747.404004,406.580005 746.516,405.676 C745.627995,404.771995 744.536006,404.32 743.24,404.32 C741.959993,404.32 740.868004,404.771995 739.964,405.676 C739.059995,406.580005 738.608,407.687993 738.608,409 C738.608,410.312007 739.059995,411.419995 739.964,412.324 C740.868004,413.228005 741.959993,413.68 743.24,413.68 Z M759.962666,412.312 L760.754666,413.536 C760.658666,413.664001 760.530667,413.815999 760.370666,413.992 C760.210665,414.168001 759.850669,414.411998 759.290666,414.724 C758.730663,415.036002 758.154669,415.192 757.562666,415.192 C756.554661,415.192 755.71067,414.892003 755.030666,414.292 C754.350663,413.691997 754.010666,412.824006 754.010666,411.688 L754.010666,404.44 L752.090666,404.44 L752.090666,402.976 L754.010666,402.976 L754.010666,399.184 L755.594666,398.992 L755.594666,402.976 L759.218666,402.976 L759.218666,404.44 L755.594666,404.44 L755.594666,411.328 C755.594666,412.064004 755.822664,412.647998 756.278666,413.08 C756.734669,413.512002 757.258663,413.728 757.850666,413.728 C758.218668,413.728 758.578665,413.616001 758.930666,413.392 C759.282668,413.167999 759.542665,412.948001 759.710666,412.732 C759.878667,412.515999 759.962666,412.376 759.962666,412.312 Z M768.405333,413.608 C769.477338,413.608 770.437329,413.304003 771.285333,412.696 C772.133337,412.087997 772.709331,411.376004 773.013333,410.56 L774.357333,411.04 C773.989331,412.048005 773.273338,412.975996 772.209333,413.824 C771.145328,414.672004 769.87734,415.088 768.405333,415.072 C767.061326,415.072 765.833339,414.656004 764.721333,413.824 C763.609327,412.991996 762.853335,411.928006 762.453333,410.632 C762.293332,410.103997 762.213333,409.528003 762.213333,408.904 C762.213333,407.175991 762.813327,405.712006 764.013333,404.512 C765.213339,403.311994 766.677324,402.704 768.405333,402.688 C769.973341,402.704 771.341327,403.231995 772.509333,404.272 C773.677339,405.312005 774.349332,406.599992 774.525333,408.136 C774.541333,408.216 774.549333,408.319999 774.549333,408.448 L764.061333,410.344 C764.333334,411.304005 764.877329,412.091997 765.693333,412.708 C766.509337,413.324003 767.413328,413.624 768.405333,413.608 Z M768.261333,404.152 C767.061327,404.168 766.033337,404.599996 765.177333,405.448 C764.321329,406.296004 763.861333,407.311994 763.797333,408.496 C763.797333,408.544 763.801333,408.627999 763.809333,408.748 C763.817333,408.868001 763.821333,408.968 763.821333,409.048 L772.749333,407.44 C772.445331,406.463995 771.877337,405.668003 771.045333,405.052 C770.213329,404.435997 769.285338,404.136 768.261333,404.152 Z M785.290666,415 L785.290666,398.872 L786.874666,398.872 L786.874666,415 L785.290666,415 Z M796.469333,402.808 C797.86134,402.808 799.029328,403.299995 799.973333,404.284 C800.917338,405.268005 801.389333,406.479993 801.389333,407.92 L801.389333,415 L799.781333,415 L799.781333,407.968 C799.781333,406.943995 799.433337,406.072004 798.737333,405.352 C798.04133,404.631996 797.197338,404.272 796.205333,404.272 C795.213328,404.272 794.369337,404.631996 793.673333,405.352 C792.97733,406.072004 792.629333,406.943995 792.629333,407.968 L792.629333,415 L791.045333,415 L791.045333,403 L792.629333,403 L792.629333,404.776 C793.605338,403.463993 794.885325,402.808 796.469333,402.808 Z M812.136,403 L813.72,403 L809.472,415 L807.888,415 L803.664,403 L805.248,403 L808.68,412.768 L812.136,403 Z M821.394666,413.608 C822.466672,413.608 823.426662,413.304003 824.274666,412.696 C825.122671,412.087997 825.698665,411.376004 826.002666,410.56 L827.346666,411.04 C826.978665,412.048005 826.262672,412.975996 825.198666,413.824 C824.134661,414.672004 822.866674,415.088 821.394666,415.072 C820.05066,415.072 818.822672,414.656004 817.710666,413.824 C816.598661,412.991996 815.842668,411.928006 815.442666,410.632 C815.282666,410.103997 815.202666,409.528003 815.202666,408.904 C815.202666,407.175991 815.802661,405.712006 817.002666,404.512 C818.202672,403.311994 819.666658,402.704 821.394666,402.688 C822.962674,402.704 824.330661,403.231995 825.498666,404.272 C826.666672,405.312005 827.338666,406.599992 827.514666,408.136 C827.530667,408.216 827.538666,408.319999 827.538666,408.448 L817.050666,410.344 C817.322668,411.304005 817.866662,412.091997 818.682666,412.708 C819.498671,413.324003 820.402662,413.624 821.394666,413.608 Z M821.250666,404.152 C820.05066,404.168 819.022671,404.599996 818.166666,405.448 C817.310662,406.296004 816.850667,407.311994 816.786666,408.496 C816.786666,408.544 816.790666,408.627999 816.798666,408.748 C816.806667,408.868001 816.810666,408.968 816.810666,409.048 L825.738666,407.44 C825.434665,406.463995 824.866671,405.668003 824.034666,405.052 C823.202662,404.435997 822.274672,404.136 821.250666,404.152 Z M835.885333,402.808 C836.733337,402.808 837.50933,403.015998 838.213333,403.432 L837.661333,405.016 C836.98933,404.519998 836.309337,404.272 835.621333,404.272 C834.613328,404.272 833.765337,404.627996 833.077333,405.34 C832.38933,406.052004 832.045333,406.927995 832.045333,407.968 L832.045333,415 L830.461333,415 L830.461333,403 L832.045333,403 L832.045333,404.776 C833.021338,403.463993 834.301325,402.808 835.885333,402.808 Z M847.88,412.312 L848.672,413.536 C848.575999,413.664001 848.448001,413.815999 848.288,413.992 C848.127999,414.168001 847.768003,414.411998 847.208,414.724 C846.647997,415.036002 846.072003,415.192 845.48,415.192 C844.471995,415.192 843.628003,414.892003 842.948,414.292 C842.267996,413.691997 841.928,412.824006 841.928,411.688 L841.928,404.44 L840.008,404.44 L840.008,402.976 L841.928,402.976 L841.928,399.184 L843.512,398.992 L843.512,402.976 L847.136,402.976 L847.136,404.44 L843.512,404.44 L843.512,411.328 C843.512,412.064004 843.739998,412.647998 844.196,413.08 C844.652002,413.512002 845.175997,413.728 845.768,413.728 C846.136002,413.728 846.495998,413.616001 846.848,413.392 C847.200002,413.167999 847.459999,412.948001 847.628,412.732 C847.796001,412.515999 847.88,412.376 847.88,412.312 Z M856.322667,413.608 C857.394672,413.608 858.354662,413.304003 859.202667,412.696 C860.050671,412.087997 860.626665,411.376004 860.930667,410.56 L862.274667,411.04 C861.906665,412.048005 861.190672,412.975996 860.126667,413.824 C859.062661,414.672004 857.794674,415.088 856.322667,415.072 C854.97866,415.072 853.750672,414.656004 852.638667,413.824 C851.526661,412.991996 850.770669,411.928006 850.370667,410.632 C850.210666,410.103997 850.130667,409.528003 850.130667,408.904 C850.130667,407.175991 850.730661,405.712006 851.930667,404.512 C853.130673,403.311994 854.594658,402.704 856.322667,402.688 C857.890674,402.704 859.258661,403.231995 860.426667,404.272 C861.594672,405.312005 862.266666,406.599992 862.442667,408.136 C862.458667,408.216 862.466667,408.319999 862.466667,408.448 L851.978667,410.344 C852.250668,411.304005 852.794663,412.091997 853.610667,412.708 C854.426671,413.324003 855.330662,413.624 856.322667,413.608 Z M856.178667,404.152 C854.978661,404.168 853.950671,404.599996 853.094667,405.448 C852.238662,406.296004 851.778667,407.311994 851.714667,408.496 C851.714667,408.544 851.718667,408.627999 851.726667,408.748 C851.734667,408.868001 851.738667,408.968 851.738667,409.048 L860.666667,407.44 C860.362665,406.463995 859.794671,405.668003 858.962667,405.052 C858.130662,404.435997 857.202672,404.136 856.178667,404.152 Z M875.997333,397.144 L877.581333,397.144 L877.581333,415 L875.997333,415 L875.997333,413.056 C874.765327,414.480007 873.205343,415.192 871.317333,415.192 C869.605325,415.192 868.145339,414.588006 866.937333,413.38 C865.729327,412.171994 865.125333,410.712009 865.125333,409 C865.125333,407.287991 865.729327,405.828006 866.937333,404.62 C868.145339,403.411994 869.605325,402.808 871.317333,402.808 C873.221343,402.808 874.781327,403.519993 875.997333,404.944 L875.997333,397.144 Z M868.053333,412.336 C868.949338,413.232004 870.045327,413.68 871.341333,413.68 C872.63734,413.68 873.729329,413.228005 874.617333,412.324 C875.505338,411.419995 875.949333,410.312007 875.949333,409 C875.949333,407.687993 875.505338,406.580005 874.617333,405.676 C873.729329,404.771995 872.63734,404.32 871.341333,404.32 C870.045327,404.32 868.949338,404.771995 868.053333,405.676 C867.157329,406.580005 866.709333,407.687993 866.709333,409 C866.709333,410.312007 867.157329,411.423995 868.053333,412.336 Z" id="Exercise-3:-Logical-Copy" fill="#23ABE3"></path>
        </g>
        <g id="Circuit" transform="translate(181.000000, 21.000000)">
            <g id="Resistor" transform="translate(315.000000, 114.000000) rotate(-270.000000) translate(-315.000000, -114.000000) translate(280.000000, 101.000000)" stroke="#3D3530" stroke-linejoin="round" stroke-width="3">
                <polyline points="0 13 5 13 10 0 20 26 30 0 40 26 50 0 60 26 65 13 70 13"></polyline>
            </g>
            <g id="Ground" transform="translate(420.000000, 186.000000)" stroke="#3D3530">
                <g transform="translate(33.000000, 37.500000) rotate(-90.000000) translate(-33.000000, -37.500000) translate(-4.500000, 4.500000)">
                    <path d="M25,33 L75,33" id="Path-2-Copy" stroke-width="3"></path>
                    <path d="M13,13 L13,53" id="Path-4" stroke-width="3"></path>
                    <path d="M1,27 L1,39" id="Path-4-Copy" stroke-width="3"></path>
                    <path d="M25,0 L25,66" id="Path-3-Copy" stroke-width="3"></path>
                </g>
            </g>
            <g id="Ground" transform="translate(0.000000, 241.000000)" stroke="#3D3530">
                <g transform="translate(33.000000, 37.500000) rotate(-90.000000) translate(-33.000000, -37.500000) translate(-4.500000, 4.500000)">
                    <path d="M25,33 L75,33" id="Path-2-Copy" stroke-width="3"></path>
                    <path d="M13,13 L13,53" id="Path-4" stroke-width="3"></path>
                    <path d="M1,27 L1,39" id="Path-4-Copy" stroke-width="3"></path>
                    <path d="M25,0 L25,66" id="Path-3-Copy" stroke-width="3"></path>
                </g>
            </g>
            <g id="LED" transform="translate(351.000000, 145.000000)">
                <g>
                    <polygon id="Path-2" fill="#3D3530" points="24.5 29 44 42 24.5 55"></polygon>
                    <path d="M44,42 L70,42" id="Path-2-Copy" stroke="#3D3530" stroke-width="3"></path>
                    <path d="M44,29 L44,55" id="Path-4-Copy" stroke="#3D3530" stroke-width="3"></path>
                    <path d="M0,42 L24.5,42" id="Path-3" stroke="#3D3530" stroke-width="3"></path>
                    <g id="Arrow" transform="translate(43.647114, 19.941343) rotate(-150.000000) translate(-43.647114, -19.941343) translate(39.147114, 6.441343)">
                        <polygon id="Triangle" fill="#3D3530" transform="translate(4.633975, 19.633975) scale(1, -1) translate(-4.633975, -19.633975) " points="4.6339746 13.1339746 8.6339746 26.1339746 0.633974596 26.1339746"></polygon>
                        <path d="M4.5,0 L4.5,20" id="Path-3" stroke="#3D3530" stroke-width="3"></path>
                    </g>
                    <g id="Arrow" transform="translate(33.647114, 13.941343) rotate(-150.000000) translate(-33.647114, -13.941343) translate(29.147114, 0.441343)">
                        <polygon id="Triangle" fill="#3D3530" transform="translate(4.633975, 19.633975) scale(1, -1) translate(-4.633975, -19.633975) " points="4.6339746 13.1339746 8.6339746 26.1339746 0.633974596 26.1339746"></polygon>
                        <path d="M4.5,1.13686838e-13 L4.5,20" id="Path-3" stroke="#3D3530" stroke-width="3"></path>
                    </g>
                </g>
            </g>
            <g id="3.3V-Copy-2" transform="translate(292.000000, 0.000000)">
                <path d="M6.34,14.24 C6.22799944,14.3360005 6.08800084,14.483999 5.92,14.684 C5.75199916,14.884001 5.59600072,15.0439994 5.452,15.164 C5.30799928,15.2840006 5.16400072,15.344 5.02,15.344 C4.89199936,15.344 4.77600052,15.2920005 4.672,15.188 C4.56799948,15.0839995 4.516,14.9520008 4.516,14.792 C4.516,14.5039986 4.72399792,14.2080015 5.14,13.904 L6.916,12.488 C7.38000232,12.1359982 7.75999852,11.6840028 8.056,11.132 C8.35200148,10.5799972 8.5,10.008003 8.5,9.416 C8.5,8.74399664 8.2600024,8.208002 7.78,7.808 C7.2999976,7.407998 6.66800392,7.208 5.884,7.208 C5.05199584,7.208 4.3560028,7.55999648 3.796,8.264 C3.2359972,8.96800352 3.24399712,9.81599504 3.82,10.808 L3.1,11.552 C2.17199536,10.9919972 1.67200036,10.2840043 1.6,9.428 C1.52799964,8.57199572 1.891996,7.82000324 2.692,7.172 C3.492004,6.52399676 4.55599336,6.2 5.884,6.2 C7.11600616,6.2 8.18799544,6.49599704 9.1,7.088 C10.0120046,7.68000296 10.468,8.4559952 10.468,9.416 C10.468,9.76800176 10.3920008,10.1279982 10.24,10.496 C10.0879992,10.8640018 9.90400108,11.1759987 9.688,11.432 C9.47199892,11.6880013 9.25600108,11.9239989 9.04,12.14 C8.82399892,12.3560011 8.64400072,12.5199994 8.5,12.632 L8.26,12.776 L7.156,13.616 C8.30800576,13.8560012 9.21999664,14.3279965 9.892,15.032 C10.5640034,15.7360035 10.9,16.5519954 10.9,17.48 C10.9,18.5840055 10.4400046,19.5279961 9.52,20.312 C8.5999954,21.0960039 7.46800672,21.488 6.124,21.488 C4.82799352,21.488 3.76400416,21.1760031 2.932,20.552 C2.09999584,19.9279969 1.684,19.3360028 1.684,18.776 C1.684,18.4079982 1.89199792,18.224 2.308,18.224 C2.4680008,18.224 2.6079994,18.2959993 2.728,18.44 C2.8480006,18.5840007 2.98399924,18.7839987 3.136,19.04 C3.28800076,19.2960013 3.43599928,19.4959993 3.58,19.64 C4.17200296,20.2640031 4.95599512,20.576 5.932,20.576 C6.87600472,20.576 7.58399764,20.2920028 8.056,19.724 C8.52800236,19.1559972 8.764,18.4080046 8.764,17.48 C8.764,16.7119962 8.56800196,16.024003 8.176,15.416 C7.78399804,14.807997 7.17200416,14.4160009 6.34,14.24 Z M17.404,15.944 C17.404,16.2800017 17.2680014,16.5719988 16.996,16.82 C16.7239986,17.0680012 16.4040018,17.192 16.036,17.192 C15.6679982,17.192 15.3560013,17.0680012 15.1,16.82 C14.8439987,16.5719988 14.716,16.2800017 14.716,15.944 C14.716,15.5919982 14.8439987,15.2920012 15.1,15.044 C15.3560013,14.7959988 15.6679982,14.672 16.036,14.672 C16.4040018,14.672 16.7239986,14.7959988 16.996,15.044 C17.2680014,15.2920012 17.404,15.5919982 17.404,15.944 Z M26.044,14.24 C25.9319994,14.3360005 25.7920008,14.483999 25.624,14.684 C25.4559992,14.884001 25.3000007,15.0439994 25.156,15.164 C25.0119993,15.2840006 24.8680007,15.344 24.724,15.344 C24.5959994,15.344 24.4800005,15.2920005 24.376,15.188 C24.2719995,15.0839995 24.22,14.9520008 24.22,14.792 C24.22,14.5039986 24.4279979,14.2080015 24.844,13.904 L26.62,12.488 C27.0840023,12.1359982 27.4639985,11.6840028 27.76,11.132 C28.0560015,10.5799972 28.204,10.008003 28.204,9.416 C28.204,8.74399664 27.9640024,8.208002 27.484,7.808 C27.0039976,7.407998 26.3720039,7.208 25.588,7.208 C24.7559958,7.208 24.0600028,7.55999648 23.5,8.264 C22.9399972,8.96800352 22.9479971,9.81599504 23.524,10.808 L22.804,11.552 C21.8759954,10.9919972 21.3760004,10.2840043 21.304,9.428 C21.2319996,8.57199572 21.595996,7.82000324 22.396,7.172 C23.196004,6.52399676 24.2599934,6.2 25.588,6.2 C26.8200062,6.2 27.8919954,6.49599704 28.804,7.088 C29.7160046,7.68000296 30.172,8.4559952 30.172,9.416 C30.172,9.76800176 30.0960008,10.1279982 29.944,10.496 C29.7919992,10.8640018 29.6080011,11.1759987 29.392,11.432 C29.1759989,11.6880013 28.9600011,11.9239989 28.744,12.14 C28.5279989,12.3560011 28.3480007,12.5199994 28.204,12.632 L27.964,12.776 L26.86,13.616 C28.0120058,13.8560012 28.9239966,14.3279965 29.596,15.032 C30.2680034,15.7360035 30.604,16.5519954 30.604,17.48 C30.604,18.5840055 30.1440046,19.5279961 29.224,20.312 C28.3039954,21.0960039 27.1720067,21.488 25.828,21.488 C24.5319935,21.488 23.4680042,21.1760031 22.636,20.552 C21.8039958,19.9279969 21.388,19.3360028 21.388,18.776 C21.388,18.4079982 21.5959979,18.224 22.012,18.224 C22.1720008,18.224 22.3119994,18.2959993 22.432,18.44 C22.5520006,18.5840007 22.6879992,18.7839987 22.84,19.04 C22.9920008,19.2960013 23.1399993,19.4959993 23.284,19.64 C23.876003,20.2640031 24.6599951,20.576 25.636,20.576 C26.5800047,20.576 27.2879976,20.2920028 27.76,19.724 C28.2320024,19.1559972 28.468,18.4080046 28.468,17.48 C28.468,16.7119962 28.272002,16.024003 27.88,15.416 C27.487998,14.807997 26.8760042,14.4160009 26.044,14.24 Z M47.74,3.104 C46.7959953,3.104 46.1840014,3.21999884 45.904,3.452 C45.6239986,3.68400116 45.284002,4.26399536 44.884,5.192 L39.604,17.408 L39.292,17.408 L33.988,5.192 C33.587998,4.26399536 33.2480014,3.68400116 32.968,3.452 C32.6879986,3.21999884 32.0760047,3.104 31.132,3.104 L31.132,2.6 L37.78,2.6 L37.78,3.104 C36.787995,3.104 36.1520014,3.2439986 35.872,3.524 C35.5919986,3.8040014 35.6039985,4.27199672 35.908,4.928 L39.988,14.264 L44.02,4.928 C44.3240015,4.27199672 44.3360014,3.8040014 44.056,3.524 C43.7759986,3.2439986 43.140005,3.104 42.148,3.104 L42.148,2.6 L47.74,2.6 L47.74,3.104 Z" id="3.3V-Copy" fill="#524740"></path>
                <g id="DC_Rail" transform="translate(8.000000, 29.000000)" stroke="#3D3530">
                    <g transform="translate(15.000000, 25.500000) rotate(-90.000000) translate(-15.000000, -25.500000) translate(-10.500000, 10.500000)">
                        <path d="M-5.32907052e-15,15 L50,15" id="Path-2-Copy" stroke-width="3"></path>
                        <path d="M50,-4.26325641e-14 L50,30" id="Path-4" stroke-width="3"></path>
                    </g>
                </g>
            </g>
            <g id="Schottky_Diode" transform="translate(251.000000, 157.000000) rotate(-180.000000) translate(-251.000000, -157.000000) translate(216.000000, 144.000000)">
                <g>
                    <polygon id="Path-2" fill="#3D3530" points="24.5 0 44 13 24.5 26"></polygon>
                    <path d="M44,13 L70,13" id="Path-2-Copy" stroke="#3D3530" stroke-width="3"></path>
                    <path d="M0,13 L24.5,13" id="Path-3" stroke="#3D3530" stroke-width="3"></path>
                    <polyline id="Path" stroke="#3D3530" stroke-width="3" stroke-linejoin="round" points="49 5 49 1 44 1 44 25 39 25 39 21"></polyline>
                </g>
            </g>
            <g id="Schottky_Diode" transform="translate(251.000000, 217.000000) rotate(-180.000000) translate(-251.000000, -217.000000) translate(216.000000, 204.000000)">
                <g>
                    <polygon id="Path-2" fill="#3D3530" points="24.5 0 44 13 24.5 26"></polygon>
                    <path d="M44,13 L70,13" id="Path-2-Copy" stroke="#3D3530" stroke-width="3"></path>
                    <path d="M0,13 L24.5,13" id="Path-3" stroke="#3D3530" stroke-width="3"></path>
                    <polyline id="Path" stroke="#3D3530" stroke-width="3" stroke-linejoin="round" points="49 5 49 1 44 1 44 25 39 25 39 21"></polyline>
                </g>
            </g>
            <g id="Pushbutton" transform="translate(121.000000, 139.000000)">
                <g>
                    <g id="Open_Connection" transform="translate(0.000000, 13.000000)" stroke="#3D3530">
                        <g id="Connection">
                            <circle cx="5" cy="5" r="4.5"></circle>
                        </g>
                    </g>
                    <g id="Open_Connection" transform="translate(60.000000, 13.000000)" stroke="#3D3530">
                        <g id="Connection">
                            <circle cx="5" cy="5" r="4.5"></circle>
                        </g>
                    </g>
                    <path d="M5,8 L65,8" id="Path" stroke="#3D3530" stroke-width="3"></path>
                    <rect id="Rectangle" fill="#3D3530" x="26" y="0" width="18" height="7"></rect>
                </g>
            </g>
            <g id="Pushbutton" transform="translate(121.000000, 199.000000)">
                <g>
                    <g id="Open_Connection" transform="translate(0.000000, 13.000000)" stroke="#3D3530">
                        <g id="Connection">
                            <circle cx="5" cy="5" r="4.5"></circle>
                        </g>
                    </g>
                    <g id="Open_Connection" transform="translate(60.000000, 13.000000)" stroke="#3D3530">
                        <g id="Connection">
                            <circle cx="5" cy="5" r="4.5"></circle>
                        </g>
                    </g>
                    <path d="M5,8 L65,8" id="Path" stroke="#3D3530" stroke-width="3"></path>
                    <rect id="Rectangle" fill="#3D3530" x="26" y="0" width="18" height="7"></rect>
                </g>
            </g>
            <g id="Wiring" transform="translate(33.000000, 149.000000)">
                <path d="M388,38 L420,38" id="Path" stroke="#3D3530" stroke-width="2"></path>
                <path d="M157,8 L183,8" id="Path-3" stroke="#3D3530" stroke-width="2"></path>
                <path d="M157,68 L183,68" id="Path-3-Copy" stroke="#3D3530" stroke-width="2"></path>
                <path d="M248,8 L283,8" id="Path-3-Copy-3" stroke="#3D3530" stroke-width="2"></path>
                <path d="M283,38 L318,38" id="Path-3-Copy-4" stroke="#3D3530" stroke-width="2"></path>
                <path d="M248,68 L283,68" id="Path-3-Copy-2" stroke="#3D3530" stroke-width="2"></path>
                <path d="M282,67 L282,7" id="Path-5-Copy" stroke="#3D3530" stroke-width="2"></path>
                <polyline id="Path-7" stroke="#3D3530" stroke-width="2" points="88 68 25 68 25 8"></polyline>
                <polyline id="Path-6" stroke="#3D3530" stroke-width="2" points="88 8 25 8 25 39 0 39 0 92"></polyline>
                <g id="Connection" transform="translate(20.000000, 34.000000)" fill="#3D3530">
                    <circle cx="5" cy="5" r="5"></circle>
                </g>
                <g id="Connection" transform="translate(277.000000, 33.000000)" fill="#3D3530">
                    <circle cx="5" cy="5" r="5"></circle>
                </g>
                <path d="M282,7 L282,0" id="Path-8" stroke="#3D3530" stroke-width="2"></path>
            </g>
        </g>
    </g>
</svg>