<?xml version="1.0" encoding="UTF-8"?>
<svg width="900px" height="290px" viewBox="0 0 900 290" version="1.1" xmlns="http://www.w3.org/2000/svg" xmlns:xlink="http://www.w3.org/1999/xlink">
    <!-- Generator: Sketch 52.5 (67469) - http://www.bohemiancoding.com/sketch -->
    <title>Lab_Circuit_Logical_OR_Gate</title>
    <desc>Created with Sketch.</desc>
    <g id="Lab_Circuit_Logical_OR_Gate" stroke="none" stroke-width="1" fill="none" fill-rule="evenodd">
        <g id="Illustration_Frame">
            <rect id="Rectangle" stroke="#3D3530" stroke-width="2" fill="#EEEEEE" x="1" y="1" width="898" height="288"></rect>
            <rect id="Rectangle-Copy" stroke="#3D3530" stroke-width="2" fill="#F8FAE4" x="1" y="246" width="898" height="43"></rect>
            <path d="M577.647999,260.456 L568.647999,260.456 L568.647999,266 L573.711999,266 L573.711999,267.584 L568.647999,267.584 L568.647999,273.416 L577.647999,273.416 L577.647999,275 L567.063999,275 L567.063999,258.872 L577.647999,258.872 L577.647999,260.456 Z M590.146666,275 L588.346666,275 L584.986666,270.224 L581.602666,275 L579.826666,275 L584.098666,268.952 L579.898666,263 L581.674666,263 L584.986666,267.68 L588.274666,263 L590.074666,263 L585.874666,268.952 L590.146666,275 Z M597.917332,273.608 C598.989338,273.608 599.949328,273.304003 600.797332,272.696 C601.645337,272.087997 602.221331,271.376004 602.525332,270.56 L603.869332,271.04 C603.501331,272.048005 602.785338,272.975996 601.721332,273.824 C600.657327,274.672004 599.38934,275.088 597.917332,275.072 C596.573326,275.072 595.345338,274.656004 594.233332,273.824 C593.121327,272.991996 592.365334,271.928006 591.965332,270.632 C591.805332,270.103997 591.725332,269.528003 591.725332,268.904 C591.725332,267.175991 592.325326,265.712006 593.525332,264.512 C594.725338,263.311994 596.189324,262.704 597.917332,262.688 C599.48534,262.704 600.853327,263.231995 602.021332,264.272 C603.189338,265.312005 603.861332,266.599992 604.037332,268.136 C604.053333,268.216 604.061332,268.319999 604.061332,268.448 L593.573332,270.344 C593.845334,271.304005 594.389328,272.091997 595.205332,272.708 C596.021337,273.324003 596.925328,273.624 597.917332,273.608 Z M597.773332,264.152 C596.573326,264.168 595.545337,264.599996 594.689332,265.448 C593.833328,266.296004 593.373333,267.311994 593.309332,268.496 C593.309332,268.544 593.313332,268.627999 593.321332,268.748 C593.329333,268.868001 593.333332,268.968 593.333332,269.048 L602.261332,267.44 C601.957331,266.463995 601.389337,265.668003 600.557332,265.052 C599.725328,264.435997 598.797338,264.136 597.773332,264.152 Z M612.407999,262.808 C613.256003,262.808 614.031996,263.015998 614.735999,263.432 L614.183999,265.016 C613.511996,264.519998 612.832003,264.272 612.143999,264.272 C611.135994,264.272 610.288003,264.627996 609.599999,265.34 C608.911996,266.052004 608.567999,266.927995 608.567999,267.968 L608.567999,275 L606.983999,275 L606.983999,263 L608.567999,263 L608.567999,264.776 C609.544004,263.463993 610.823991,262.808 612.407999,262.808 Z M622.050666,275.192 C620.338657,275.192 618.878672,274.588006 617.670666,273.38 C616.46266,272.171994 615.858666,270.712009 615.858666,269 C615.858666,267.287991 616.46266,265.828006 617.670666,264.62 C618.878672,263.411994 620.338657,262.808 622.050666,262.808 C623.138671,262.808 624.150661,263.075997 625.086666,263.612 C626.022671,264.148003 626.762663,264.863996 627.306666,265.76 L625.866666,266.456 C625.434664,265.799997 624.882669,265.280002 624.210666,264.896 C623.538663,264.511998 622.81867,264.32 622.050666,264.32 C620.754659,264.32 619.66267,264.771995 618.774666,265.676 C617.886661,266.580005 617.442666,267.687993 617.442666,269 C617.442666,270.312007 617.886661,271.419995 618.774666,272.324 C619.66267,273.228005 620.754659,273.68 622.050666,273.68 C622.81867,273.68 623.538663,273.488002 624.210666,273.104 C624.882669,272.719998 625.434664,272.200003 625.866666,271.544 L627.306666,272.24 C626.762663,273.136004 626.022671,273.851997 625.086666,274.388 C624.150661,274.924003 623.138671,275.192 622.050666,275.192 Z M632.485333,259.4 C632.309332,259.592001 632.085334,259.688 631.813333,259.688 C631.541331,259.688 631.313334,259.592001 631.129333,259.4 C630.945332,259.207999 630.853333,258.984001 630.853333,258.728 C630.853333,258.471999 630.945332,258.248001 631.129333,258.056 C631.313334,257.863999 631.541331,257.768 631.813333,257.768 C632.085334,257.768 632.313332,257.863999 632.497333,258.056 C632.681334,258.248001 632.773333,258.471999 632.773333,258.728 C632.773333,258.984001 632.677334,259.207999 632.485333,259.4 Z M631.021333,275 L631.021333,263 L632.605333,263 L632.605333,275 L631.021333,275 Z M640.879999,275.192 C640.335997,275.192 639.808002,275.124001 639.295999,274.988 C638.783997,274.851999 638.356001,274.692001 638.011999,274.508 C637.667998,274.323999 637.360001,274.136001 637.087999,273.944 C636.815998,273.751999 636.616,273.592001 636.487999,273.464 L636.295999,273.248 L637.423999,272.288 C637.536,272.400001 637.691998,272.535999 637.891999,272.696 C638.092,272.856001 638.495996,273.071999 639.103999,273.344 C639.712002,273.616001 640.311996,273.752 640.903999,273.752 C641.784004,273.752 642.487997,273.584002 643.015999,273.248 C643.544002,272.911998 643.807999,272.440003 643.807999,271.832 C643.807999,271.399998 643.544002,271.028002 643.015999,270.716 C642.487997,270.403998 641.848003,270.136001 641.095999,269.912 C640.343996,269.687999 639.588003,269.440001 638.827999,269.168 C638.067995,268.895999 637.424002,268.512002 636.895999,268.016 C636.367997,267.519998 636.103999,266.912004 636.103999,266.192 C636.103999,265.199995 636.475996,264.388003 637.219999,263.756 C637.964003,263.123997 639.063992,262.808 640.519999,262.808 C641.384004,262.808 642.199995,262.967998 642.967999,263.288 C643.736003,263.608002 644.287998,263.927998 644.623999,264.248 L645.127999,264.728 L643.999999,265.712 C643.887999,265.599999 643.732,265.464001 643.531999,265.304 C643.331998,265.143999 642.928002,264.928001 642.319999,264.656 C641.711996,264.383999 641.104002,264.248 640.495999,264.248 C639.631995,264.248 638.932002,264.415998 638.395999,264.752 C637.859997,265.088002 637.591999,265.559997 637.591999,266.168 C637.591999,266.600002 637.855997,266.971998 638.383999,267.284 C638.912002,267.596002 639.551996,267.863999 640.303999,268.088 C641.056003,268.312001 641.811995,268.555999 642.571999,268.82 C643.332003,269.084001 643.975997,269.467997 644.503999,269.972 C645.032002,270.476003 645.295999,271.087996 645.295999,271.808 C645.295999,272.816005 644.928003,273.631997 644.191999,274.256 C643.455996,274.880003 642.352007,275.192 640.879999,275.192 Z M653.858666,273.608 C654.930671,273.608 655.890662,273.304003 656.738666,272.696 C657.58667,272.087997 658.162664,271.376004 658.466666,270.56 L659.810666,271.04 C659.442664,272.048005 658.726671,272.975996 657.662666,273.824 C656.598661,274.672004 655.330673,275.088 653.858666,275.072 C652.514659,275.072 651.286672,274.656004 650.174666,273.824 C649.06266,272.991996 648.306668,271.928006 647.906666,270.632 C647.746665,270.103997 647.666666,269.528003 647.666666,268.904 C647.666666,267.175991 648.26666,265.712006 649.466666,264.512 C650.666672,263.311994 652.130657,262.704 653.858666,262.688 C655.426674,262.704 656.79466,263.231995 657.962666,264.272 C659.130672,265.312005 659.802665,266.599992 659.978666,268.136 C659.994666,268.216 660.002666,268.319999 660.002666,268.448 L649.514666,270.344 C649.786667,271.304005 650.330662,272.091997 651.146666,272.708 C651.96267,273.324003 652.866661,273.624 653.858666,273.608 Z M653.714666,264.152 C652.51466,264.168 651.48667,264.599996 650.630666,265.448 C649.774662,266.296004 649.314666,267.311994 649.250666,268.496 C649.250666,268.544 649.254666,268.627999 649.262666,268.748 C649.270666,268.868001 649.274666,268.968 649.274666,269.048 L658.202666,267.44 C657.898664,266.463995 657.33067,265.668003 656.498666,265.052 C655.666662,264.435997 654.738671,264.136 653.714666,264.152 Z M672.951999,258.872 L674.535999,258.872 L674.535999,275 L672.951999,275 L672.951999,260.696 L670.791999,262.16 L670.023999,260.72 L672.951999,258.872 Z M678.706666,266.768 L678.706666,262.688 L680.362666,262.688 L680.362666,266.768 L678.706666,266.768 Z M678.706666,275 L678.706666,270.752 L680.362666,270.752 L680.362666,275 L678.706666,275 Z M693.287999,273.416 L700.631999,273.416 L700.631999,275 L691.704,275 L691.704,258.872 L693.287999,258.872 L693.287999,273.416 Z M712.962666,273.368 C711.76266,274.584006 710.306675,275.192 708.594666,275.192 C706.882658,275.192 705.422672,274.588006 704.214666,273.38 C703.00666,272.171994 702.402666,270.712009 702.402666,269 C702.402666,267.287991 703.00666,265.828006 704.214666,264.62 C705.422672,263.411994 706.882658,262.808 708.594666,262.808 C710.306675,262.808 711.76666,263.411994 712.974666,264.62 C714.182672,265.828006 714.786666,267.287991 714.786666,269 C714.786666,270.696008 714.178672,272.151994 712.962666,273.368 Z M708.618666,273.68 C709.914673,273.68 711.006662,273.228005 711.894666,272.324 C712.782671,271.419995 713.226666,270.312007 713.226666,269 C713.226666,267.687993 712.782671,266.576005 711.894666,265.664 C711.006662,264.751995 709.914673,264.296 708.618666,264.296 C707.33866,264.296 706.250671,264.751995 705.354666,265.664 C704.458662,266.576005 704.010666,267.687993 704.010666,269 C704.010666,270.312007 704.458662,271.419995 705.354666,272.324 C706.250671,273.228005 707.33866,273.68 708.618666,273.68 Z M728.245333,263.024 L729.853333,263.024 L729.853333,273.968 C729.837333,275.712009 729.209339,277.171994 727.969333,278.348 C726.729327,279.524006 725.293341,280.112 723.661333,280.112 C722.173325,280.112 720.905338,279.716004 719.857333,278.924 C718.809328,278.131996 718.101335,277.240005 717.733333,276.248 L719.029333,275.6 C719.333334,276.416004 719.909329,277.127997 720.757333,277.736 C721.605337,278.344003 722.573327,278.648 723.661333,278.648 C724.941339,278.648 726.025328,278.180005 726.913333,277.244 C727.801337,276.307995 728.253333,275.216006 728.269333,273.968 L728.245333,273.968 L728.245333,273.08 C727.029327,274.504007 725.469342,275.216 723.565333,275.216 C721.853324,275.216 720.393339,274.612006 719.185333,273.404 C717.977327,272.195994 717.373333,270.736009 717.373333,269.024 C717.373333,267.311991 717.977327,265.852006 719.185333,264.644 C720.393339,263.435994 721.853324,262.832 723.565333,262.832 C725.453342,262.832 727.013327,263.543993 728.245333,264.968 L728.245333,263.024 Z M723.589333,273.728 C724.885339,273.728 725.977328,273.276005 726.865333,272.372 C727.753337,271.467995 728.197333,270.360007 728.197333,269.048 C728.197333,267.735993 727.753337,266.628005 726.865333,265.724 C725.977328,264.819995 724.885339,264.368 723.589333,264.368 C722.309326,264.368 721.221337,264.819995 720.325333,265.724 C719.429328,266.628005 718.981333,267.735993 718.981333,269.048 C718.981333,270.360007 719.429328,271.467995 720.325333,272.372 C721.221337,273.276005 722.309326,273.728 723.589333,273.728 Z M735.656,259.4 C735.479999,259.592001 735.256001,259.688 734.984,259.688 C734.711998,259.688 734.484001,259.592001 734.3,259.4 C734.115999,259.207999 734.024,258.984001 734.024,258.728 C734.024,258.471999 734.115999,258.248001 734.3,258.056 C734.484001,257.863999 734.711998,257.768 734.984,257.768 C735.256001,257.768 735.483999,257.863999 735.668,258.056 C735.852001,258.248001 735.944,258.471999 735.944,258.728 C735.944,258.984001 735.848001,259.207999 735.656,259.4 Z M734.192,275 L734.192,263 L735.776,263 L735.776,275 L734.192,275 Z M745.442666,275.192 C743.730658,275.192 742.270672,274.588006 741.062666,273.38 C739.85466,272.171994 739.250666,270.712009 739.250666,269 C739.250666,267.287991 739.85466,265.828006 741.062666,264.62 C742.270672,263.411994 743.730658,262.808 745.442666,262.808 C746.530672,262.808 747.542662,263.075997 748.478666,263.612 C749.414671,264.148003 750.154664,264.863996 750.698666,265.76 L749.258666,266.456 C748.826664,265.799997 748.27467,265.280002 747.602666,264.896 C746.930663,264.511998 746.21067,264.32 745.442666,264.32 C744.14666,264.32 743.054671,264.771995 742.166666,265.676 C741.278662,266.580005 740.834666,267.687993 740.834666,269 C740.834666,270.312007 741.278662,271.419995 742.166666,272.324 C743.054671,273.228005 744.14666,273.68 745.442666,273.68 C746.21067,273.68 746.930663,273.488002 747.602666,273.104 C748.27467,272.719998 748.826664,272.200003 749.258666,271.544 L750.698666,272.24 C750.154664,273.136004 749.414671,273.851997 748.478666,274.388 C747.542662,274.924003 746.530672,275.192 745.442666,275.192 Z M763.941333,263 L765.525333,263 L765.525333,275 L763.941333,275 L763.941333,273.056 C762.709327,274.480007 761.149342,275.192 759.261333,275.192 C757.549324,275.192 756.089339,274.588006 754.881333,273.38 C753.673327,272.171994 753.069333,270.712009 753.069333,269 C753.069333,267.287991 753.673327,265.828006 754.881333,264.62 C756.089339,263.411994 757.549324,262.808 759.261333,262.808 C761.165343,262.808 762.725327,263.519993 763.941333,264.944 L763.941333,263 Z M759.285333,273.68 C760.581339,273.68 761.673329,273.228005 762.561333,272.324 C763.449337,271.419995 763.893333,270.312007 763.893333,269 C763.893333,267.687993 763.449337,266.580005 762.561333,265.676 C761.673329,264.771995 760.581339,264.32 759.285333,264.32 C758.005327,264.32 756.913338,264.771995 756.009333,265.676 C755.105328,266.580005 754.653333,267.687993 754.653333,269 C754.653333,270.312007 755.105328,271.419995 756.009333,272.324 C756.913338,273.228005 758.005327,273.68 759.285333,273.68 Z M769.576,275 L769.576,257.144 L771.16,257.144 L771.16,275 L769.576,275 Z M795.269333,272.84 C793.877326,274.408008 791.997345,275.192 789.629333,275.192 C787.261321,275.192 785.37734,274.408008 783.977333,272.84 C782.577326,271.271992 781.877333,269.312012 781.877333,266.96 C781.877333,264.607988 782.577326,262.644008 783.977333,261.068 C785.37734,259.491992 787.261321,258.704 789.629333,258.704 C791.997345,258.704 793.877326,259.491992 795.269333,261.068 C796.66134,262.644008 797.357333,264.607988 797.357333,266.96 C797.357333,269.312012 796.66134,271.271992 795.269333,272.84 Z M785.237333,271.784 C786.341339,273.064006 787.805324,273.704 789.629333,273.704 C791.453342,273.704 792.921328,273.060006 794.033333,271.772 C795.145339,270.483994 795.701333,268.88001 795.701333,266.96 C795.701333,265.02399 795.145339,263.416006 794.033333,262.136 C792.921328,260.855994 791.453342,260.216 789.629333,260.216 C787.805324,260.216 786.341339,260.855994 785.237333,262.136 C784.133328,263.416006 783.581333,265.02399 783.581333,266.96 C783.581333,268.89601 784.133328,270.503994 785.237333,271.784 Z M800.472,275 L800.472,258.872 L805.944,258.872 C807.752009,258.872 809.191994,259.347995 810.264,260.3 C811.336005,261.252005 811.872,262.447993 811.872,263.888 C811.872,264.960005 811.556003,265.911996 810.924,266.744 C810.291997,267.576004 809.408005,268.167998 808.272,268.52 L811.872,275 L810.216,275 L806.784,268.856 L805.8,268.904 L802.056,268.904 L802.056,275 L800.472,275 Z M802.056,267.392 L805.944,267.392 C807.240006,267.392 808.279996,267.060003 809.064,266.396 C809.848004,265.731997 810.24,264.896005 810.24,263.888 C810.24,262.895995 809.848004,262.064003 809.064,261.392 C808.279996,260.719997 807.240006,260.384 805.944,260.384 L802.056,260.384 L802.056,267.392 Z M830.149333,275.192 C827.781321,275.192 825.88934,274.404008 824.473333,272.828 C823.057326,271.251992 822.349333,269.296012 822.349333,266.96 C822.349333,264.607988 823.057326,262.644008 824.473333,261.068 C825.88934,259.491992 827.781321,258.704 830.149333,258.704 C831.701341,258.704 833.061327,259.063996 834.229333,259.784 C835.397339,260.504004 836.29333,261.487994 836.917333,262.736 L835.429333,263.6 C834.933331,262.559995 834.225338,261.736003 833.305333,261.128 C832.385329,260.519997 831.333339,260.216 830.149333,260.216 C828.325324,260.216 826.865339,260.851994 825.769333,262.124 C824.673328,263.396006 824.125333,265.00799 824.125333,266.96 C824.125333,268.89601 824.673328,270.503994 825.769333,271.784 C826.865339,273.064006 828.325324,273.704 830.149333,273.704 C831.749341,273.704 833.081328,273.172005 834.145333,272.108 C835.209339,271.043995 835.837332,269.696008 836.029333,268.064 L830.797333,268.064 L830.797333,266.648 L837.685333,266.648 L837.685333,275 L836.245333,275 L836.245333,271.76 C835.65333,272.832005 834.833338,273.671997 833.785333,274.28 C832.737328,274.888003 831.52534,275.192 830.149333,275.192 Z M851.528,263 L853.112,263 L853.112,275 L851.528,275 L851.528,273.056 C850.295994,274.480007 848.736009,275.192 846.848,275.192 C845.135991,275.192 843.676006,274.588006 842.468,273.38 C841.259994,272.171994 840.656,270.712009 840.656,269 C840.656,267.287991 841.259994,265.828006 842.468,264.62 C843.676006,263.411994 845.135991,262.808 846.848,262.808 C848.752009,262.808 850.311994,263.519993 851.528,264.944 L851.528,263 Z M846.872,273.68 C848.168006,273.68 849.259995,273.228005 850.148,272.324 C851.036004,271.419995 851.48,270.312007 851.48,269 C851.48,267.687993 851.036004,266.580005 850.148,265.676 C849.259995,264.771995 848.168006,264.32 846.872,264.32 C845.591993,264.32 844.500004,264.771995 843.596,265.676 C842.691995,266.580005 842.24,267.687993 842.24,269 C842.24,270.312007 842.691995,271.419995 843.596,272.324 C844.500004,273.228005 845.591993,273.68 846.872,273.68 Z M863.594667,272.312 L864.386667,273.536 C864.290666,273.664001 864.162667,273.815999 864.002667,273.992 C863.842666,274.168001 863.482669,274.411998 862.922667,274.724 C862.362664,275.036002 861.78667,275.192 861.194667,275.192 C860.186662,275.192 859.34267,274.892003 858.662667,274.292 C857.982663,273.691997 857.642667,272.824006 857.642667,271.688 L857.642667,264.44 L855.722667,264.44 L855.722667,262.976 L857.642667,262.976 L857.642667,259.184 L859.226667,258.992 L859.226667,262.976 L862.850667,262.976 L862.850667,264.44 L859.226667,264.44 L859.226667,271.328 C859.226667,272.064004 859.454664,272.647998 859.910667,273.08 C860.366669,273.512002 860.890664,273.728 861.482667,273.728 C861.850668,273.728 862.210665,273.616001 862.562667,273.392 C862.914668,273.167999 863.174666,272.948001 863.342667,272.732 C863.510667,272.515999 863.594667,272.376 863.594667,272.312 Z M872.037333,273.608 C873.109339,273.608 874.069329,273.304003 874.917333,272.696 C875.765338,272.087997 876.341332,271.376004 876.645333,270.56 L877.989333,271.04 C877.621331,272.048005 876.905339,272.975996 875.841333,273.824 C874.777328,274.672004 873.509341,275.088 872.037333,275.072 C870.693327,275.072 869.465339,274.656004 868.353333,273.824 C867.241328,272.991996 866.485335,271.928006 866.085333,270.632 C865.925332,270.103997 865.845333,269.528003 865.845333,268.904 C865.845333,267.175991 866.445327,265.712006 867.645333,264.512 C868.845339,263.311994 870.309325,262.704 872.037333,262.688 C873.605341,262.704 874.973327,263.231995 876.141333,264.272 C877.309339,265.312005 877.981332,266.599992 878.157333,268.136 C878.173333,268.216 878.181333,268.319999 878.181333,268.448 L867.693333,270.344 C867.965335,271.304005 868.509329,272.091997 869.325333,272.708 C870.141337,273.324003 871.045328,273.624 872.037333,273.608 Z M871.893333,264.152 C870.693327,264.168 869.665338,264.599996 868.809333,265.448 C867.953329,266.296004 867.493334,267.311994 867.429333,268.496 C867.429333,268.544 867.433333,268.627999 867.441333,268.748 C867.449333,268.868001 867.453333,268.968 867.453333,269.048 L876.381333,267.44 C876.077332,266.463995 875.509337,265.668003 874.677333,265.052 C873.845329,264.435997 872.917338,264.136 871.893333,264.152 Z" id="Exercise-1:-Logical-Copy" fill="#23ABE3"></path>
        </g>
        <g id="Circuit" transform="translate(256.000000, 29.000000)">
            <g id="Pushbutton" transform="translate(51.000000, 61.000000)">
                <g>
                    <g id="Connection" transform="translate(0.000000, 13.000000)" fill="#3D3530">
                        <circle cx="5" cy="5" r="5"></circle>
                    </g>
                    <g id="Connection" transform="translate(60.000000, 13.000000)" fill="#3D3530">
                        <circle cx="5" cy="5" r="5"></circle>
                    </g>
                    <path d="M5,8 L65,8" id="Path" stroke="#3D3530" stroke-width="3"></path>
                    <rect id="Rectangle" fill="#3D3530" x="26" y="0" width="18" height="7"></rect>
                </g>
            </g>
            <g id="Pushbutton" transform="translate(51.000000, 121.000000)">
                <g>
                    <g id="Connection" transform="translate(0.000000, 13.000000)" fill="#3D3530">
                        <circle cx="5" cy="5" r="5"></circle>
                    </g>
                    <g id="Connection" transform="translate(60.000000, 13.000000)" fill="#3D3530">
                        <circle cx="5" cy="5" r="5"></circle>
                    </g>
                    <path d="M5,8 L65,8" id="Path" stroke="#3D3530" stroke-width="3"></path>
                    <rect id="Rectangle" fill="#3D3530" x="26" y="0" width="18" height="7"></rect>
                </g>
            </g>
            <g id="Resistor" transform="translate(386.000000, 96.000000)" stroke="#3D3530" stroke-linejoin="round" stroke-width="3">
                <polyline points="0 13 5 13 10 0 20 26 30 0 40 26 50 0 60 26 65 13 70 13"></polyline>
            </g>
            <g id="Ground" transform="translate(455.000000, 108.000000)" stroke="#3D3530">
                <g transform="translate(33.000000, 37.500000) rotate(-90.000000) translate(-33.000000, -37.500000) translate(-4.500000, 4.500000)">
                    <path d="M25,33 L75,33" id="Path-2-Copy" stroke-width="3"></path>
                    <path d="M13,13 L13,53" id="Path-4" stroke-width="3"></path>
                    <path d="M1,27 L1,39" id="Path-4-Copy" stroke-width="3"></path>
                    <path d="M25,0 L25,66" id="Path-3-Copy" stroke-width="3"></path>
                </g>
            </g>
            <g id="LED" transform="translate(286.000000, 67.000000)">
                <g>
                    <polygon id="Path-2" fill="#3D3530" points="24.5 29 44 42 24.5 55"></polygon>
                    <path d="M44,42 L70,42" id="Path-2-Copy" stroke="#3D3530" stroke-width="3"></path>
                    <path d="M44,29 L44,55" id="Path-4-Copy" stroke="#3D3530" stroke-width="3"></path>
                    <path d="M0,42 L24.5,42" id="Path-3" stroke="#3D3530" stroke-width="3"></path>
                    <g id="Arrow" transform="translate(43.647114, 19.941343) rotate(-150.000000) translate(-43.647114, -19.941343) translate(39.147114, 6.441343)">
                        <polygon id="Triangle" fill="#3D3530" transform="translate(4.633975, 19.633975) scale(1, -1) translate(-4.633975, -19.633975) " points="4.6339746 13.1339746 8.6339746 26.1339746 0.633974596 26.1339746"></polygon>
                        <path d="M4.5,0 L4.5,20" id="Path-3" stroke="#3D3530" stroke-width="3"></path>
                    </g>
                    <g id="Arrow" transform="translate(33.647114, 13.941343) rotate(-150.000000) translate(-33.647114, -13.941343) translate(29.147114, 0.441343)">
                        <polygon id="Triangle" fill="#3D3530" transform="translate(4.633975, 19.633975) scale(1, -1) translate(-4.633975, -19.633975) " points="4.6339746 13.1339746 8.6339746 26.1339746 0.633974596 26.1339746"></polygon>
                        <path d="M4.5,1.13686838e-13 L4.5,20" id="Path-3" stroke="#3D3530" stroke-width="3"></path>
                    </g>
                </g>
            </g>
            <path d="M6.34,14.24 C6.22799944,14.3360005 6.08800084,14.483999 5.92,14.684 C5.75199916,14.884001 5.59600072,15.0439994 5.452,15.164 C5.30799928,15.2840006 5.16400072,15.344 5.02,15.344 C4.89199936,15.344 4.77600052,15.2920005 4.672,15.188 C4.56799948,15.0839995 4.516,14.9520008 4.516,14.792 C4.516,14.5039986 4.72399792,14.2080015 5.14,13.904 L6.916,12.488 C7.38000232,12.1359982 7.75999852,11.6840028 8.056,11.132 C8.35200148,10.5799972 8.5,10.008003 8.5,9.416 C8.5,8.74399664 8.2600024,8.208002 7.78,7.808 C7.2999976,7.407998 6.66800392,7.208 5.884,7.208 C5.05199584,7.208 4.3560028,7.55999648 3.796,8.264 C3.2359972,8.96800352 3.24399712,9.81599504 3.82,10.808 L3.1,11.552 C2.17199536,10.9919972 1.67200036,10.2840043 1.6,9.428 C1.52799964,8.57199572 1.891996,7.82000324 2.692,7.172 C3.492004,6.52399676 4.55599336,6.2 5.884,6.2 C7.11600616,6.2 8.18799544,6.49599704 9.1,7.088 C10.0120046,7.68000296 10.468,8.4559952 10.468,9.416 C10.468,9.76800176 10.3920008,10.1279982 10.24,10.496 C10.0879992,10.8640018 9.90400108,11.1759987 9.688,11.432 C9.47199892,11.6880013 9.25600108,11.9239989 9.04,12.14 C8.82399892,12.3560011 8.64400072,12.5199994 8.5,12.632 L8.26,12.776 L7.156,13.616 C8.30800576,13.8560012 9.21999664,14.3279965 9.892,15.032 C10.5640034,15.7360035 10.9,16.5519954 10.9,17.48 C10.9,18.5840055 10.4400046,19.5279961 9.52,20.312 C8.5999954,21.0960039 7.46800672,21.488 6.124,21.488 C4.82799352,21.488 3.76400416,21.1760031 2.932,20.552 C2.09999584,19.9279969 1.684,19.3360028 1.684,18.776 C1.684,18.4079982 1.89199792,18.224 2.308,18.224 C2.4680008,18.224 2.6079994,18.2959993 2.728,18.44 C2.8480006,18.5840007 2.98399924,18.7839987 3.136,19.04 C3.28800076,19.2960013 3.43599928,19.4959993 3.58,19.64 C4.17200296,20.2640031 4.95599512,20.576 5.932,20.576 C6.87600472,20.576 7.58399764,20.2920028 8.056,19.724 C8.52800236,19.1559972 8.764,18.4080046 8.764,17.48 C8.764,16.7119962 8.56800196,16.024003 8.176,15.416 C7.78399804,14.807997 7.17200416,14.4160009 6.34,14.24 Z M17.404,15.944 C17.404,16.2800017 17.2680014,16.5719988 16.996,16.82 C16.7239986,17.0680012 16.4040018,17.192 16.036,17.192 C15.6679982,17.192 15.3560013,17.0680012 15.1,16.82 C14.8439987,16.5719988 14.716,16.2800017 14.716,15.944 C14.716,15.5919982 14.8439987,15.2920012 15.1,15.044 C15.3560013,14.7959988 15.6679982,14.672 16.036,14.672 C16.4040018,14.672 16.7239986,14.7959988 16.996,15.044 C17.2680014,15.2920012 17.404,15.5919982 17.404,15.944 Z M26.044,14.24 C25.9319994,14.3360005 25.7920008,14.483999 25.624,14.684 C25.4559992,14.884001 25.3000007,15.0439994 25.156,15.164 C25.0119993,15.2840006 24.8680007,15.344 24.724,15.344 C24.5959994,15.344 24.4800005,15.2920005 24.376,15.188 C24.2719995,15.0839995 24.22,14.9520008 24.22,14.792 C24.22,14.5039986 24.4279979,14.2080015 24.844,13.904 L26.62,12.488 C27.0840023,12.1359982 27.4639985,11.6840028 27.76,11.132 C28.0560015,10.5799972 28.204,10.008003 28.204,9.416 C28.204,8.74399664 27.9640024,8.208002 27.484,7.808 C27.0039976,7.407998 26.3720039,7.208 25.588,7.208 C24.7559958,7.208 24.0600028,7.55999648 23.5,8.264 C22.9399972,8.96800352 22.9479971,9.81599504 23.524,10.808 L22.804,11.552 C21.8759954,10.9919972 21.3760004,10.2840043 21.304,9.428 C21.2319996,8.57199572 21.595996,7.82000324 22.396,7.172 C23.196004,6.52399676 24.2599934,6.2 25.588,6.2 C26.8200062,6.2 27.8919954,6.49599704 28.804,7.088 C29.7160046,7.68000296 30.172,8.4559952 30.172,9.416 C30.172,9.76800176 30.0960008,10.1279982 29.944,10.496 C29.7919992,10.8640018 29.6080011,11.1759987 29.392,11.432 C29.1759989,11.6880013 28.9600011,11.9239989 28.744,12.14 C28.5279989,12.3560011 28.3480007,12.5199994 28.204,12.632 L27.964,12.776 L26.86,13.616 C28.0120058,13.8560012 28.9239966,14.3279965 29.596,15.032 C30.2680034,15.7360035 30.604,16.5519954 30.604,17.48 C30.604,18.5840055 30.1440046,19.5279961 29.224,20.312 C28.3039954,21.0960039 27.1720067,21.488 25.828,21.488 C24.5319935,21.488 23.4680042,21.1760031 22.636,20.552 C21.8039958,19.9279969 21.388,19.3360028 21.388,18.776 C21.388,18.4079982 21.5959979,18.224 22.012,18.224 C22.1720008,18.224 22.3119994,18.2959993 22.432,18.44 C22.5520006,18.5840007 22.6879992,18.7839987 22.84,19.04 C22.9920008,19.2960013 23.1399993,19.4959993 23.284,19.64 C23.876003,20.2640031 24.6599951,20.576 25.636,20.576 C26.5800047,20.576 27.2879976,20.2920028 27.76,19.724 C28.2320024,19.1559972 28.468,18.4080046 28.468,17.48 C28.468,16.7119962 28.272002,16.024003 27.88,15.416 C27.487998,14.807997 26.8760042,14.4160009 26.044,14.24 Z M47.74,3.104 C46.7959953,3.104 46.1840014,3.21999884 45.904,3.452 C45.6239986,3.68400116 45.284002,4.26399536 44.884,5.192 L39.604,17.408 L39.292,17.408 L33.988,5.192 C33.587998,4.26399536 33.2480014,3.68400116 32.968,3.452 C32.6879986,3.21999884 32.0760047,3.104 31.132,3.104 L31.132,2.6 L37.78,2.6 L37.78,3.104 C36.787995,3.104 36.1520014,3.2439986 35.872,3.524 C35.5919986,3.8040014 35.6039985,4.27199672 35.908,4.928 L39.988,14.264 L44.02,4.928 C44.3240015,4.27199672 44.3360014,3.8040014 44.056,3.524 C43.7759986,3.2439986 43.140005,3.104 42.148,3.104 L42.148,2.6 L47.74,2.6 L47.74,3.104 Z" id="3.3V-Copy" fill="#524740"></path>
            <g id="DC_Rail" transform="translate(8.000000, 29.000000)" stroke="#3D3530">
                <g transform="translate(15.000000, 25.500000) rotate(-90.000000) translate(-15.000000, -25.500000) translate(-10.500000, 10.500000)">
                    <path d="M-5.32907052e-15,15 L50,15" id="Path-2-Copy" stroke-width="3"></path>
                    <path d="M50,-4.26325641e-14 L50,30" id="Path-4" stroke-width="3"></path>
                </g>
            </g>
            <g id="Wiring" transform="translate(22.000000, 78.000000)" stroke="#3D3530" stroke-width="2">
                <path d="M434,31 L466,31" id="Path"></path>
                <path d="M334,31 L364,31" id="Path-2"></path>
                <path d="M94,1 L129,1" id="Path-3"></path>
                <path d="M1,1 L34,1" id="Path-4"></path>
                <path d="M94,61 L129,61" id="Path-3-Copy"></path>
                <path d="M194,1 L229,1" id="Path-3-Copy-3"></path>
                <path d="M229,31 L264,31" id="Path-3-Copy-4"></path>
                <path d="M194,61 L229,61" id="Path-3-Copy-2"></path>
                <path d="M1,61 L34,61" id="Path-4-Copy"></path>
                <path d="M1,62 L1,2" id="Path-5"></path>
                <path d="M228,60 L228,0" id="Path-5-Copy"></path>
            </g>
        </g>
        <g id="Schottky_Diode" transform="translate(407.000000, 95.000000)">
            <g>
                <polygon id="Path-2" fill="#3D3530" points="24.5 0 44 13 24.5 26"></polygon>
                <path d="M44,13 L70,13" id="Path-2-Copy" stroke="#3D3530" stroke-width="3"></path>
                <path d="M0,13 L24.5,13" id="Path-3" stroke="#3D3530" stroke-width="3"></path>
                <polyline id="Path" stroke="#3D3530" stroke-width="3" stroke-linejoin="round" points="49 5 49 1 44 1 44 25 39 25 39 21"></polyline>
            </g>
        </g>
        <g id="Schottky_Diode" transform="translate(407.000000, 155.000000)">
            <g>
                <polygon id="Path-2" fill="#3D3530" points="24.5 0 44 13 24.5 26"></polygon>
                <path d="M44,13 L70,13" id="Path-2-Copy" stroke="#3D3530" stroke-width="3"></path>
                <path d="M0,13 L24.5,13" id="Path-3" stroke="#3D3530" stroke-width="3"></path>
                <polyline id="Path" stroke="#3D3530" stroke-width="3" stroke-linejoin="round" points="49 5 49 1 44 1 44 25 39 25 39 21"></polyline>
            </g>
        </g>
    </g>
</svg>