<?xml version="1.0" encoding="UTF-8"?>
<svg width="900px" height="300px" viewBox="0 0 900 300" version="1.1" xmlns="http://www.w3.org/2000/svg" xmlns:xlink="http://www.w3.org/1999/xlink">
    <!-- Generator: Sketch 52.5 (67469) - http://www.bohemiancoding.com/sketch -->
    <title>Lab_Circuit_7_Color_RGB</title>
    <desc>Created with Sketch.</desc>
    <g id="Lab_Circuit_7_Color_RGB" stroke="none" stroke-width="1" fill="none" fill-rule="evenodd">
        <g id="Illustration_Frame">
            <rect id="Rectangle" stroke="#3D3530" stroke-width="2" fill="#EEEEEE" x="1" y="1" width="898" height="298"></rect>
            <rect id="Rectangle-Copy" stroke="#3D3530" stroke-width="2" fill="#F8FAE4" x="1" y="256" width="898" height="43"></rect>
            <path d="M405.965332,270.456 L396.965332,270.456 L396.965332,276 L402.029332,276 L402.029332,277.584 L396.965332,277.584 L396.965332,283.416 L405.965332,283.416 L405.965332,285 L395.381332,285 L395.381332,268.872 L405.965332,268.872 L405.965332,270.456 Z M418.463999,285 L416.663999,285 L413.303999,280.224 L409.919999,285 L408.143999,285 L412.415999,278.952 L408.215999,273 L409.991999,273 L413.303999,277.68 L416.591999,273 L418.391999,273 L414.191999,278.952 L418.463999,285 Z M426.234665,283.608 C427.306671,283.608 428.266661,283.304003 429.114665,282.696 C429.96267,282.087997 430.538664,281.376004 430.842665,280.56 L432.186665,281.04 C431.818663,282.048005 431.102671,282.975996 430.038665,283.824 C428.97466,284.672004 427.706673,285.088 426.234665,285.072 C424.890659,285.072 423.662671,284.656004 422.550665,283.824 C421.43866,282.991996 420.682667,281.928006 420.282665,280.632 C420.122664,280.103997 420.042665,279.528003 420.042665,278.904 C420.042665,277.175991 420.642659,275.712006 421.842665,274.512 C423.042671,273.311994 424.506657,272.704 426.234665,272.688 C427.802673,272.704 429.170659,273.231995 430.338665,274.272 C431.506671,275.312005 432.178664,276.599992 432.354665,278.136 C432.370665,278.216 432.378665,278.319999 432.378665,278.448 L421.890665,280.344 C422.162667,281.304005 422.706661,282.091997 423.522665,282.708 C424.338669,283.324003 425.24266,283.624 426.234665,283.608 Z M426.090665,274.152 C424.890659,274.168 423.86267,274.599996 423.006665,275.448 C422.150661,276.296004 421.690666,277.311994 421.626665,278.496 C421.626665,278.544 421.630665,278.627999 421.638665,278.748 C421.646665,278.868001 421.650665,278.968 421.650665,279.048 L430.578665,277.44 C430.274664,276.463995 429.706669,275.668003 428.874665,275.052 C428.042661,274.435997 427.11467,274.136 426.090665,274.152 Z M440.725332,272.808 C441.573336,272.808 442.349328,273.015998 443.053332,273.432 L442.501332,275.016 C441.829329,274.519998 441.149335,274.272 440.461332,274.272 C439.453327,274.272 438.605335,274.627996 437.917332,275.34 C437.229329,276.052004 436.885332,276.927995 436.885332,277.968 L436.885332,285 L435.301332,285 L435.301332,273 L436.885332,273 L436.885332,274.776 C437.861337,273.463993 439.141324,272.808 440.725332,272.808 Z M450.367999,285.192 C448.65599,285.192 447.196005,284.588006 445.987999,283.38 C444.779993,282.171994 444.175999,280.712009 444.175999,279 C444.175999,277.287991 444.779993,275.828006 445.987999,274.62 C447.196005,273.411994 448.65599,272.808 450.367999,272.808 C451.456004,272.808 452.467994,273.075997 453.403999,273.612 C454.340003,274.148003 455.079996,274.863996 455.623999,275.76 L454.183999,276.456 C453.751997,275.799997 453.200002,275.280002 452.527999,274.896 C451.855995,274.511998 451.136003,274.32 450.367999,274.32 C449.071992,274.32 447.980003,274.771995 447.091999,275.676 C446.203994,276.580005 445.759999,277.687993 445.759999,279 C445.759999,280.312007 446.203994,281.419995 447.091999,282.324 C447.980003,283.228005 449.071992,283.68 450.367999,283.68 C451.136003,283.68 451.855995,283.488002 452.527999,283.104 C453.200002,282.719998 453.751997,282.200003 454.183999,281.544 L455.623999,282.24 C455.079996,283.136004 454.340003,283.851997 453.403999,284.388 C452.467994,284.924003 451.456004,285.192 450.367999,285.192 Z M460.802665,269.4 C460.626665,269.592001 460.402667,269.688 460.130665,269.688 C459.858664,269.688 459.630666,269.592001 459.446665,269.4 C459.262664,269.207999 459.170665,268.984001 459.170665,268.728 C459.170665,268.471999 459.262664,268.248001 459.446665,268.056 C459.630666,267.863999 459.858664,267.768 460.130665,267.768 C460.402667,267.768 460.630664,267.863999 460.814665,268.056 C460.998666,268.248001 461.090665,268.471999 461.090665,268.728 C461.090665,268.984001 460.994666,269.207999 460.802665,269.4 Z M459.338665,285 L459.338665,273 L460.922665,273 L460.922665,285 L459.338665,285 Z M469.197332,285.192 C468.653329,285.192 468.125335,285.124001 467.613332,284.988 C467.10133,284.851999 466.673334,284.692001 466.329332,284.508 C465.98533,284.323999 465.677333,284.136001 465.405332,283.944 C465.133331,283.751999 464.933333,283.592001 464.805332,283.464 L464.613332,283.248 L465.741332,282.288 C465.853333,282.400001 466.009331,282.535999 466.209332,282.696 C466.409333,282.856001 466.813329,283.071999 467.421332,283.344 C468.029335,283.616001 468.629329,283.752 469.221332,283.752 C470.101336,283.752 470.805329,283.584002 471.333332,283.248 C471.861335,282.911998 472.125332,282.440003 472.125332,281.832 C472.125332,281.399998 471.861335,281.028002 471.333332,280.716 C470.805329,280.403998 470.165336,280.136001 469.413332,279.912 C468.661328,279.687999 467.905336,279.440001 467.145332,279.168 C466.385328,278.895999 465.741335,278.512002 465.213332,278.016 C464.685329,277.519998 464.421332,276.912004 464.421332,276.192 C464.421332,275.199995 464.793328,274.388003 465.537332,273.756 C466.281336,273.123997 467.381325,272.808 468.837332,272.808 C469.701336,272.808 470.517328,272.967998 471.285332,273.288 C472.053336,273.608002 472.60533,273.927998 472.941332,274.248 L473.445332,274.728 L472.317332,275.712 C472.205332,275.599999 472.049333,275.464001 471.849332,275.304 C471.649331,275.143999 471.245335,274.928001 470.637332,274.656 C470.029329,274.383999 469.421335,274.248 468.813332,274.248 C467.949328,274.248 467.249335,274.415998 466.713332,274.752 C466.177329,275.088002 465.909332,275.559997 465.909332,276.168 C465.909332,276.600002 466.173329,276.971998 466.701332,277.284 C467.229335,277.596002 467.869328,277.863999 468.621332,278.088 C469.373336,278.312001 470.129328,278.555999 470.889332,278.82 C471.649336,279.084001 472.293329,279.467997 472.821332,279.972 C473.349335,280.476003 473.613332,281.087996 473.613332,281.808 C473.613332,282.816005 473.245336,283.631997 472.509332,284.256 C471.773328,284.880003 470.669339,285.192 469.197332,285.192 Z M482.175999,283.608 C483.248004,283.608 484.207995,283.304003 485.055999,282.696 C485.904003,282.087997 486.479997,281.376004 486.783999,280.56 L488.127999,281.04 C487.759997,282.048005 487.044004,282.975996 485.979999,283.824 C484.915993,284.672004 483.648006,285.088 482.175999,285.072 C480.831992,285.072 479.604004,284.656004 478.491999,283.824 C477.379993,282.991996 476.624001,281.928006 476.223999,280.632 C476.063998,280.103997 475.983999,279.528003 475.983999,278.904 C475.983999,277.175991 476.583993,275.712006 477.783999,274.512 C478.984005,273.311994 480.44799,272.704 482.175999,272.688 C483.744007,272.704 485.111993,273.231995 486.279999,274.272 C487.448005,275.312005 488.119998,276.599992 488.295999,278.136 C488.311999,278.216 488.319999,278.319999 488.319999,278.448 L477.831999,280.344 C478.104,281.304005 478.647995,282.091997 479.463999,282.708 C480.280003,283.324003 481.183994,283.624 482.175999,283.608 Z M482.031999,274.152 C480.831993,274.168 479.804003,274.599996 478.947999,275.448 C478.091995,276.296004 477.631999,277.311994 477.567999,278.496 C477.567999,278.544 477.571999,278.627999 477.579999,278.748 C477.587999,278.868001 477.591999,278.968 477.591999,279.048 L486.519999,277.44 C486.215997,276.463995 485.648003,275.668003 484.815999,275.052 C483.983995,274.435997 483.056004,274.136 482.031999,274.152 Z M503.933332,285.192 C502.685326,285.192 501.549337,284.868003 500.525332,284.22 C499.501327,283.571997 498.805334,282.928003 498.437332,282.288 L499.589332,281.208 C499.893334,281.752003 500.445328,282.299997 501.245332,282.852 C502.045336,283.404003 502.901328,283.68 503.813332,283.68 C504.805337,283.68 505.621329,283.412003 506.261332,282.876 C506.901335,282.339997 507.221332,281.656004 507.221332,280.824 C507.221332,279.943996 506.829336,279.184003 506.045332,278.544 C505.261328,277.903997 504.157339,277.584 502.733332,277.584 L501.821332,277.584 L501.821332,276.336 L502.733332,276.336 C504.157339,276.336 505.261328,276.016003 506.045332,275.376 C506.829336,274.735997 507.221332,273.976004 507.221332,273.096 C507.221332,272.263996 506.901335,271.580003 506.261332,271.044 C505.621329,270.507997 504.805337,270.24 503.813332,270.24 C503.045328,270.24 502.309336,270.451998 501.605332,270.876 C500.901329,271.300002 500.389334,271.695998 500.069332,272.064 C499.749331,272.432002 499.589332,272.648 499.589332,272.712 L498.437332,271.632 C498.821334,270.975997 499.517327,270.328003 500.525332,269.688 C501.533337,269.047997 502.669326,268.728 503.933332,268.728 C505.42134,268.728 506.609328,269.147996 507.497332,269.988 C508.385337,270.828004 508.829332,271.847994 508.829332,273.048 C508.829332,273.960005 508.545335,274.775996 507.977332,275.496 C507.409329,276.216004 506.757336,276.703999 506.021332,276.96 C506.757336,277.216001 507.409329,277.699996 507.977332,278.412 C508.545335,279.124004 508.829332,279.943995 508.829332,280.872 C508.829332,282.072006 508.385337,283.091996 507.497332,283.932 C506.609328,284.772004 505.42134,285.192 503.933332,285.192 Z M511.871999,276.768 L511.871999,272.688 L513.527999,272.688 L513.527999,276.768 L511.871999,276.768 Z M511.871999,285 L511.871999,280.752 L513.527999,280.752 L513.527999,285 L511.871999,285 Z M524.869332,285 L524.869332,268.872 L528.517332,268.872 C531.173346,268.872 533.285324,269.639992 534.853332,271.176 C536.42134,272.712008 537.205332,274.631988 537.205332,276.936 C537.205332,279.224011 536.41734,281.139992 534.841332,282.684 C533.265324,284.228008 531.157346,285 528.517332,285 L524.869332,285 Z M526.453332,283.488 L528.517332,283.488 C530.629343,283.488 532.317326,282.868006 533.581332,281.628 C534.845339,280.387994 535.477332,278.824009 535.477332,276.936 C535.477332,275.047991 534.845339,273.484006 533.581332,272.244 C532.317326,271.003994 530.629343,270.384 528.517332,270.384 L526.453332,270.384 L526.453332,283.488 Z M548.959999,273 L550.543999,273 L550.543999,285 L548.959999,285 L548.959999,283.224 C547.983994,284.536007 546.704007,285.192 545.119999,285.192 C543.727992,285.192 542.560004,284.700005 541.615999,283.716 C540.671994,282.731995 540.199999,281.520007 540.199999,280.08 L540.199999,273 L541.831999,273 L541.831999,280.032 C541.831999,281.056005 542.175996,281.923996 542.863999,282.636 C543.552002,283.348004 544.391994,283.704 545.383999,283.704 C546.392004,283.704 547.239996,283.348004 547.927999,282.636 C548.616002,281.923996 548.959999,281.056005 548.959999,280.032 L548.959999,273 Z M564.674666,273 L566.258666,273 L566.258666,285 L564.674666,285 L564.674666,283.056 C563.44266,284.480007 561.882675,285.192 559.994666,285.192 C558.282657,285.192 556.822672,284.588006 555.614666,283.38 C554.40666,282.171994 553.802666,280.712009 553.802666,279 C553.802666,277.287991 554.40666,275.828006 555.614666,274.62 C556.822672,273.411994 558.282657,272.808 559.994666,272.808 C561.898675,272.808 563.45866,273.519993 564.674666,274.944 L564.674666,273 Z M560.018666,283.68 C561.314672,283.68 562.406661,283.228005 563.294666,282.324 C564.18267,281.419995 564.626666,280.312007 564.626666,279 C564.626666,277.687993 564.18267,276.580005 563.294666,275.676 C562.406661,274.771995 561.314672,274.32 560.018666,274.32 C558.738659,274.32 557.64667,274.771995 556.742666,275.676 C555.838661,276.580005 555.386666,277.687993 555.386666,279 C555.386666,280.312007 555.838661,281.419995 556.742666,282.324 C557.64667,283.228005 558.738659,283.68 560.018666,283.68 Z M570.309332,285 L570.309332,267.144 L571.893332,267.144 L571.893332,285 L570.309332,285 Z M584.818666,283.416 L592.162666,283.416 L592.162666,285 L583.234666,285 L583.234666,268.872 L584.818666,268.872 L584.818666,283.416 Z M605.381332,270.456 L596.381332,270.456 L596.381332,276 L601.445332,276 L601.445332,277.584 L596.381332,277.584 L596.381332,283.416 L605.381332,283.416 L605.381332,285 L594.797332,285 L594.797332,268.872 L605.381332,268.872 L605.381332,270.456 Z M609.215999,285 L609.215999,268.872 L612.863999,268.872 C615.520012,268.872 617.631991,269.639992 619.199999,271.176 C620.768007,272.712008 621.551999,274.631988 621.551999,276.936 C621.551999,279.224011 620.764007,281.139992 619.187999,282.684 C617.611991,284.228008 615.504012,285 612.863999,285 L609.215999,285 Z M610.799999,283.488 L612.863999,283.488 C614.97601,283.488 616.663993,282.868006 617.927999,281.628 C619.192006,280.387994 619.823999,278.824009 619.823999,276.936 C619.823999,275.047991 619.192006,273.484006 617.927999,272.244 C616.663993,271.003994 614.97601,270.384 612.863999,270.384 L610.799999,270.384 L610.799999,283.488 Z M629.106666,285.192 C628.562663,285.192 628.034668,285.124001 627.522666,284.988 C627.010663,284.851999 626.582668,284.692001 626.238666,284.508 C625.894664,284.323999 625.586667,284.136001 625.314666,283.944 C625.042665,283.751999 624.842667,283.592001 624.714666,283.464 L624.522666,283.248 L625.650666,282.288 C625.762666,282.400001 625.918665,282.535999 626.118666,282.696 C626.318667,282.856001 626.722663,283.071999 627.330666,283.344 C627.938669,283.616001 628.538663,283.752 629.130666,283.752 C630.01067,283.752 630.714663,283.584002 631.242666,283.248 C631.770669,282.911998 632.034666,282.440003 632.034666,281.832 C632.034666,281.399998 631.770669,281.028002 631.242666,280.716 C630.714663,280.403998 630.07467,280.136001 629.322666,279.912 C628.570662,279.687999 627.81467,279.440001 627.054666,279.168 C626.294662,278.895999 625.650669,278.512002 625.122666,278.016 C624.594663,277.519998 624.330666,276.912004 624.330666,276.192 C624.330666,275.199995 624.702662,274.388003 625.446666,273.756 C626.19067,273.123997 627.290659,272.808 628.746666,272.808 C629.61067,272.808 630.426662,272.967998 631.194666,273.288 C631.96267,273.608002 632.514664,273.927998 632.850666,274.248 L633.354666,274.728 L632.226666,275.712 C632.114665,275.599999 631.958667,275.464001 631.758666,275.304 C631.558665,275.143999 631.154669,274.928001 630.546666,274.656 C629.938663,274.383999 629.330669,274.248 628.722666,274.248 C627.858662,274.248 627.158669,274.415998 626.622666,274.752 C626.086663,275.088002 625.818666,275.559997 625.818666,276.168 C625.818666,276.600002 626.082663,276.971998 626.610666,277.284 C627.138669,277.596002 627.778662,277.863999 628.530666,278.088 C629.28267,278.312001 630.038662,278.555999 630.798666,278.82 C631.55867,279.084001 632.202663,279.467997 632.730666,279.972 C633.258669,280.476003 633.522666,281.087996 633.522666,281.808 C633.522666,282.816005 633.15467,283.631997 632.418666,284.256 C631.682662,284.880003 630.578673,285.192 629.106666,285.192 Z M659.935999,273 L661.519999,273 L657.271999,285 L655.687999,285 L652.303999,275.112 L648.919999,285 L647.335999,285 L643.111999,273 L644.695999,273 L648.127999,282.768 L651.583999,273 L653.023999,273 L656.479999,282.768 L659.935999,273 Z M665.978666,269.4 C665.802665,269.592001 665.578667,269.688 665.306666,269.688 C665.034665,269.688 664.806667,269.592001 664.622666,269.4 C664.438665,269.207999 664.346666,268.984001 664.346666,268.728 C664.346666,268.471999 664.438665,268.248001 664.622666,268.056 C664.806667,267.863999 665.034665,267.768 665.306666,267.768 C665.578667,267.768 665.806665,267.863999 665.990666,268.056 C666.174667,268.248001 666.266666,268.471999 666.266666,268.728 C666.266666,268.984001 666.170667,269.207999 665.978666,269.4 Z M664.514666,285 L664.514666,273 L666.098666,273 L666.098666,285 L664.514666,285 Z M676.581333,282.312 L677.373333,283.536 C677.277332,283.664001 677.149334,283.815999 676.989333,283.992 C676.829332,284.168001 676.469335,284.411998 675.909333,284.724 C675.34933,285.036002 674.773336,285.192 674.181333,285.192 C673.173328,285.192 672.329336,284.892003 671.649333,284.292 C670.969329,283.691997 670.629333,282.824006 670.629333,281.688 L670.629333,274.44 L668.709333,274.44 L668.709333,272.976 L670.629333,272.976 L670.629333,269.184 L672.213333,268.992 L672.213333,272.976 L675.837333,272.976 L675.837333,274.44 L672.213333,274.44 L672.213333,281.328 C672.213333,282.064004 672.44133,282.647998 672.897333,283.08 C673.353335,283.512002 673.87733,283.728 674.469333,283.728 C674.837335,283.728 675.197331,283.616001 675.549333,283.392 C675.901334,283.167999 676.161332,282.948001 676.329333,282.732 C676.497334,282.515999 676.581333,282.376 676.581333,282.312 Z M685.383999,272.808 C686.776006,272.808 687.943995,273.307995 688.887999,274.308 C689.832004,275.308005 690.303999,276.527993 690.303999,277.968 L690.303999,285 L688.695999,285 L688.695999,277.992 C688.695999,276.951995 688.352003,276.076004 687.663999,275.364 C686.975996,274.651996 686.128004,274.296 685.119999,274.296 C684.127994,274.296 683.284003,274.651996 682.587999,275.364 C681.891996,276.076004 681.543999,276.943995 681.543999,277.968 L681.543999,285 L679.959999,285 L679.959999,267.144 L681.543999,267.144 L681.543999,274.776 C682.520004,273.463993 683.799991,272.808 685.383999,272.808 Z M701.453333,285 L701.453333,268.872 L706.925333,268.872 C708.733342,268.872 710.173327,269.295996 711.245333,270.144 C712.317338,270.992004 712.853333,272.047994 712.853333,273.312 C712.853333,274.096004 712.617335,274.807997 712.145333,275.448 C711.67333,276.088003 711.013337,276.583998 710.165333,276.936 C711.013337,277.288002 711.67333,277.783997 712.145333,278.424 C712.617335,279.064003 712.853333,279.783996 712.853333,280.584 C712.853333,281.848006 712.317338,282.899996 711.245333,283.74 C710.173327,284.580004 708.733342,285 706.925333,285 L701.453333,285 Z M703.037333,276.264 L706.925333,276.264 C708.221339,276.264 709.261329,275.984003 710.045333,275.424 C710.829337,274.863997 711.221333,274.168004 711.221333,273.336 C711.221333,272.487996 710.829337,271.784003 710.045333,271.224 C709.261329,270.663997 708.221339,270.384 706.925333,270.384 L703.037333,270.384 L703.037333,276.264 Z M703.037333,283.488 L706.925333,283.488 C708.221339,283.488 709.261329,283.208003 710.045333,282.648 C710.829337,282.087997 711.221333,281.384004 711.221333,280.536 C711.221333,279.703996 710.829337,279.008003 710.045333,278.448 C709.261329,277.887997 708.221339,277.608 706.925333,277.608 L703.037333,277.608 L703.037333,283.488 Z M726.528,273 L728.112,273 L728.112,285 L726.528,285 L726.528,283.056 C725.295993,284.480007 723.736009,285.192 721.848,285.192 C720.135991,285.192 718.676006,284.588006 717.468,283.38 C716.259993,282.171994 715.656,280.712009 715.656,279 C715.656,277.287991 716.259993,275.828006 717.468,274.62 C718.676006,273.411994 720.135991,272.808 721.848,272.808 C723.752009,272.808 725.311993,273.519993 726.528,274.944 L726.528,273 Z M721.872,283.68 C723.168006,283.68 724.259995,283.228005 725.147999,282.324 C726.036004,281.419995 726.48,280.312007 726.48,279 C726.48,277.687993 726.036004,276.580005 725.147999,275.676 C724.259995,274.771995 723.168006,274.32 721.872,274.32 C720.591993,274.32 719.500004,274.771995 718.596,275.676 C717.691995,276.580005 717.24,277.687993 717.24,279 C717.24,280.312007 717.691995,281.419995 718.596,282.324 C719.500004,283.228005 720.591993,283.68 721.872,283.68 Z M732.162666,285 L732.162666,267.144 L733.746666,267.144 L733.746666,285 L732.162666,285 Z M737.749333,285 L737.749333,267.144 L739.333333,267.144 L739.333333,285 L737.749333,285 Z M753.44,273 L755.024,273 L755.024,285 L753.44,285 L753.44,283.056 C752.207993,284.480007 750.648009,285.192 748.76,285.192 C747.047991,285.192 745.588006,284.588006 744.38,283.38 C743.171994,282.171994 742.568,280.712009 742.568,279 C742.568,277.287991 743.171994,275.828006 744.38,274.62 C745.588006,273.411994 747.047991,272.808 748.76,272.808 C750.664009,272.808 752.223994,273.519993 753.44,274.944 L753.44,273 Z M748.784,283.68 C750.080006,283.68 751.171995,283.228005 752.06,282.324 C752.948004,281.419995 753.392,280.312007 753.392,279 C753.392,277.687993 752.948004,276.580005 752.06,275.676 C751.171995,274.771995 750.080006,274.32 748.784,274.32 C747.503993,274.32 746.412004,274.771995 745.508,275.676 C744.603995,276.580005 744.152,277.687993 744.152,279 C744.152,280.312007 744.603995,281.419995 745.508,282.324 C746.412004,283.228005 747.503993,283.68 748.784,283.68 Z M763.130666,285.192 C762.586664,285.192 762.058669,285.124001 761.546666,284.988 C761.034664,284.851999 760.606668,284.692001 760.262666,284.508 C759.918665,284.323999 759.610668,284.136001 759.338666,283.944 C759.066665,283.751999 758.866667,283.592001 758.738666,283.464 L758.546666,283.248 L759.674666,282.288 C759.786667,282.400001 759.942665,282.535999 760.142666,282.696 C760.342667,282.856001 760.746663,283.071999 761.354666,283.344 C761.962669,283.616001 762.562663,283.752 763.154666,283.752 C764.034671,283.752 764.738664,283.584002 765.266666,283.248 C765.794669,282.911998 766.058666,282.440003 766.058666,281.832 C766.058666,281.399998 765.794669,281.028002 765.266666,280.716 C764.738664,280.403998 764.09867,280.136001 763.346666,279.912 C762.594663,279.687999 761.83867,279.440001 761.078666,279.168 C760.318663,278.895999 759.674669,278.512002 759.146666,278.016 C758.618664,277.519998 758.354666,276.912004 758.354666,276.192 C758.354666,275.199995 758.726663,274.388003 759.470666,273.756 C760.21467,273.123997 761.314659,272.808 762.770666,272.808 C763.634671,272.808 764.450662,272.967998 765.218666,273.288 C765.98667,273.608002 766.538665,273.927998 766.874666,274.248 L767.378666,274.728 L766.250666,275.712 C766.138666,275.599999 765.982667,275.464001 765.782666,275.304 C765.582665,275.143999 765.178669,274.928001 764.570666,274.656 C763.962663,274.383999 763.354669,274.248 762.746666,274.248 C761.882662,274.248 761.182669,274.415998 760.646666,274.752 C760.110664,275.088002 759.842666,275.559997 759.842666,276.168 C759.842666,276.600002 760.106664,276.971998 760.634666,277.284 C761.162669,277.596002 761.802663,277.863999 762.554666,278.088 C763.30667,278.312001 764.062663,278.555999 764.822666,278.82 C765.58267,279.084001 766.226664,279.467997 766.754666,279.972 C767.282669,280.476003 767.546666,281.087996 767.546666,281.808 C767.546666,282.816005 767.17867,283.631997 766.442666,284.256 C765.706663,284.880003 764.602674,285.192 763.130666,285.192 Z M777.213333,282.312 L778.005333,283.536 C777.909333,283.664001 777.781334,283.815999 777.621333,283.992 C777.461332,284.168001 777.101336,284.411998 776.541333,284.724 C775.98133,285.036002 775.405336,285.192 774.813333,285.192 C773.805328,285.192 772.961336,284.892003 772.281333,284.292 C771.60133,283.691997 771.261333,282.824006 771.261333,281.688 L771.261333,274.44 L769.341333,274.44 L769.341333,272.976 L771.261333,272.976 L771.261333,269.184 L772.845333,268.992 L772.845333,272.976 L776.469333,272.976 L776.469333,274.44 L772.845333,274.44 L772.845333,281.328 C772.845333,282.064004 773.073331,282.647998 773.529333,283.08 C773.985335,283.512002 774.50933,283.728 775.101333,283.728 C775.469335,283.728 775.829331,283.616001 776.181333,283.392 C776.533335,283.167999 776.793332,282.948001 776.961333,282.732 C777.129334,282.515999 777.213333,282.376 777.213333,282.312 Z M788.482666,285 L788.482666,268.872 L793.954666,268.872 C795.762675,268.872 797.202661,269.347995 798.274666,270.3 C799.346672,271.252005 799.882666,272.447993 799.882666,273.888 C799.882666,274.960005 799.56667,275.911996 798.934666,276.744 C798.302663,277.576004 797.418672,278.167998 796.282666,278.52 L799.882666,285 L798.226666,285 L794.794666,278.856 L793.810666,278.904 L790.066666,278.904 L790.066666,285 L788.482666,285 Z M790.066666,277.392 L793.954666,277.392 C795.250673,277.392 796.290662,277.060003 797.074666,276.396 C797.85867,275.731997 798.250666,274.896005 798.250666,273.888 C798.250666,272.895995 797.85867,272.064003 797.074666,271.392 C796.290662,270.719997 795.250673,270.384 793.954666,270.384 L790.066666,270.384 L790.066666,277.392 Z M808.325333,283.608 C809.397338,283.608 810.357329,283.304003 811.205333,282.696 C812.053337,282.087997 812.629332,281.376004 812.933333,280.56 L814.277333,281.04 C813.909331,282.048005 813.193338,282.975996 812.129333,283.824 C811.065328,284.672004 809.79734,285.088 808.325333,285.072 C806.981326,285.072 805.753339,284.656004 804.641333,283.824 C803.529328,282.991996 802.773335,281.928006 802.373333,280.632 C802.213332,280.103997 802.133333,279.528003 802.133333,278.904 C802.133333,277.175991 802.733327,275.712006 803.933333,274.512 C805.133339,273.311994 806.597324,272.704 808.325333,272.688 C809.893341,272.704 811.261327,273.231995 812.429333,274.272 C813.597339,275.312005 814.269332,276.599992 814.445333,278.136 C814.461333,278.216 814.469333,278.319999 814.469333,278.448 L803.981333,280.344 C804.253334,281.304005 804.797329,282.091997 805.613333,282.708 C806.429337,283.324003 807.333328,283.624 808.325333,283.608 Z M808.181333,274.152 C806.981327,274.168 805.953337,274.599996 805.097333,275.448 C804.241329,276.296004 803.781333,277.311994 803.717333,278.496 C803.717333,278.544 803.721333,278.627999 803.729333,278.748 C803.737333,278.868001 803.741333,278.968 803.741333,279.048 L812.669333,277.44 C812.365332,276.463995 811.797337,275.668003 810.965333,275.052 C810.133329,274.435997 809.205338,274.136 808.181333,274.152 Z M821.592,285.192 C821.047997,285.192 820.520002,285.124001 820.008,284.988 C819.495997,284.851999 819.068002,284.692001 818.724,284.508 C818.379998,284.323999 818.072001,284.136001 817.8,283.944 C817.527998,283.751999 817.328,283.592001 817.2,283.464 L817.008,283.248 L818.136,282.288 C818.248,282.400001 818.403999,282.535999 818.604,282.696 C818.804001,282.856001 819.207997,283.071999 819.816,283.344 C820.424003,283.616001 821.023997,283.752 821.616,283.752 C822.496004,283.752 823.199997,283.584002 823.728,283.248 C824.256002,282.911998 824.52,282.440003 824.52,281.832 C824.52,281.399998 824.256002,281.028002 823.728,280.716 C823.199997,280.403998 822.560004,280.136001 821.808,279.912 C821.055996,279.687999 820.300004,279.440001 819.54,279.168 C818.779996,278.895999 818.136002,278.512002 817.608,278.016 C817.079997,277.519998 816.816,276.912004 816.816,276.192 C816.816,275.199995 817.187996,274.388003 817.932,273.756 C818.676004,273.123997 819.775993,272.808 821.232,272.808 C822.096004,272.808 822.911996,272.967998 823.68,273.288 C824.448004,273.608002 824.999998,273.927998 825.336,274.248 L825.84,274.728 L824.712,275.712 C824.599999,275.599999 824.444001,275.464001 824.244,275.304 C824.043999,275.143999 823.640003,274.928001 823.032,274.656 C822.423997,274.383999 821.816003,274.248 821.208,274.248 C820.343995,274.248 819.644002,274.415998 819.108,274.752 C818.571997,275.088002 818.304,275.559997 818.304,276.168 C818.304,276.600002 818.567997,276.971998 819.096,277.284 C819.624002,277.596002 820.263996,277.863999 821.016,278.088 C821.768004,278.312001 822.523996,278.555999 823.284,278.82 C824.044004,279.084001 824.687997,279.467997 825.216,279.972 C825.744002,280.476003 826.008,281.087996 826.008,281.808 C826.008,282.816005 825.640003,283.631997 824.904,284.256 C824.167996,284.880003 823.064007,285.192 821.592,285.192 Z M831.042667,269.4 C830.866666,269.592001 830.642668,269.688 830.370667,269.688 C830.098665,269.688 829.870667,269.592001 829.686667,269.4 C829.502666,269.207999 829.410667,268.984001 829.410667,268.728 C829.410667,268.471999 829.502666,268.248001 829.686667,268.056 C829.870667,267.863999 830.098665,267.768 830.370667,267.768 C830.642668,267.768 830.870666,267.863999 831.054667,268.056 C831.238667,268.248001 831.330667,268.471999 831.330667,268.728 C831.330667,268.984001 831.234667,269.207999 831.042667,269.4 Z M829.578667,285 L829.578667,273 L831.162667,273 L831.162667,285 L829.578667,285 Z M839.437333,285.192 C838.89333,285.192 838.365336,285.124001 837.853333,284.988 C837.341331,284.851999 836.913335,284.692001 836.569333,284.508 C836.225331,284.323999 835.917335,284.136001 835.645333,283.944 C835.373332,283.751999 835.173334,283.592001 835.045333,283.464 L834.853333,283.248 L835.981333,282.288 C836.093334,282.400001 836.249332,282.535999 836.449333,282.696 C836.649334,282.856001 837.05333,283.071999 837.661333,283.344 C838.269336,283.616001 838.86933,283.752 839.461333,283.752 C840.341338,283.752 841.045331,283.584002 841.573333,283.248 C842.101336,282.911998 842.365333,282.440003 842.365333,281.832 C842.365333,281.399998 842.101336,281.028002 841.573333,280.716 C841.045331,280.403998 840.405337,280.136001 839.653333,279.912 C838.901329,279.687999 838.145337,279.440001 837.385333,279.168 C836.625329,278.895999 835.981336,278.512002 835.453333,278.016 C834.925331,277.519998 834.661333,276.912004 834.661333,276.192 C834.661333,275.199995 835.033329,274.388003 835.777333,273.756 C836.521337,273.123997 837.621326,272.808 839.077333,272.808 C839.941338,272.808 840.757329,272.967998 841.525333,273.288 C842.293337,273.608002 842.845332,273.927998 843.181333,274.248 L843.685333,274.728 L842.557333,275.712 C842.445333,275.599999 842.289334,275.464001 842.089333,275.304 C841.889332,275.143999 841.485336,274.928001 840.877333,274.656 C840.26933,274.383999 839.661336,274.248 839.053333,274.248 C838.189329,274.248 837.489336,274.415998 836.953333,274.752 C836.417331,275.088002 836.149333,275.559997 836.149333,276.168 C836.149333,276.600002 836.413331,276.971998 836.941333,277.284 C837.469336,277.596002 838.109329,277.863999 838.861333,278.088 C839.613337,278.312001 840.369329,278.555999 841.129333,278.82 C841.889337,279.084001 842.533331,279.467997 843.061333,279.972 C843.589336,280.476003 843.853333,281.087996 843.853333,281.808 C843.853333,282.816005 843.485337,283.631997 842.749333,284.256 C842.01333,284.880003 840.909341,285.192 839.437333,285.192 Z M853.52,282.312 L854.312,283.536 C854.215999,283.664001 854.088001,283.815999 853.928,283.992 C853.767999,284.168001 853.408003,284.411998 852.848,284.724 C852.287997,285.036002 851.712003,285.192 851.12,285.192 C850.111995,285.192 849.268003,284.892003 848.588,284.292 C847.907997,283.691997 847.568,282.824006 847.568,281.688 L847.568,274.44 L845.648,274.44 L845.648,272.976 L847.568,272.976 L847.568,269.184 L849.152,268.992 L849.152,272.976 L852.776,272.976 L852.776,274.44 L849.152,274.44 L849.152,281.328 C849.152,282.064004 849.379998,282.647998 849.836,283.08 C850.292002,283.512002 850.815997,283.728 851.408,283.728 C851.776002,283.728 852.135998,283.616001 852.488,283.392 C852.840002,283.167999 853.099999,282.948001 853.268,282.732 C853.436001,282.515999 853.52,282.376 853.52,282.312 Z M866.330667,283.368 C865.130661,284.584006 863.674675,285.192 861.962667,285.192 C860.250658,285.192 858.790673,284.588006 857.582667,283.38 C856.374661,282.171994 855.770667,280.712009 855.770667,279 C855.770667,277.287991 856.374661,275.828006 857.582667,274.62 C858.790673,273.411994 860.250658,272.808 861.962667,272.808 C863.674675,272.808 865.134661,273.411994 866.342667,274.62 C867.550673,275.828006 868.154667,277.287991 868.154667,279 C868.154667,280.696008 867.546673,282.151994 866.330667,283.368 Z M861.986667,283.68 C863.282673,283.68 864.374662,283.228005 865.262667,282.324 C866.150671,281.419995 866.594667,280.312007 866.594667,279 C866.594667,277.687993 866.150671,276.576005 865.262667,275.664 C864.374662,274.751995 863.282673,274.296 861.986667,274.296 C860.70666,274.296 859.618671,274.751995 858.722667,275.664 C857.826662,276.576005 857.378667,277.687993 857.378667,279 C857.378667,280.312007 857.826662,281.419995 858.722667,282.324 C859.618671,283.228005 860.70666,283.68 861.986667,283.68 Z M876.621333,272.808 C877.469338,272.808 878.24533,273.015998 878.949333,273.432 L878.397333,275.016 C877.72533,274.519998 877.045337,274.272 876.357333,274.272 C875.349328,274.272 874.501337,274.627996 873.813333,275.34 C873.12533,276.052004 872.781333,276.927995 872.781333,277.968 L872.781333,285 L871.197333,285 L871.197333,273 L872.781333,273 L872.781333,274.776 C873.757338,273.463993 875.037325,272.808 876.621333,272.808 Z" id="Exercise-3:-Dual-LED-Copy" fill="#23ABE3"></path>
        </g>
        <g id="Circuit" transform="translate(236.000000, 19.000000)">
            <g id="LED-Component-Copy-2" transform="translate(23.000000, 157.000000)">
                <g id="Pushbutton" transform="translate(28.000000, 24.000000)">
                    <g>
                        <g id="Connection" transform="translate(0.000000, 13.000000)" fill="#3D3530">
                            <circle cx="5" cy="5" r="5"></circle>
                        </g>
                        <g id="Connection" transform="translate(60.000000, 13.000000)" fill="#3D3530">
                            <circle cx="5" cy="5" r="5"></circle>
                        </g>
                        <path d="M5,8 L65,8" id="Path" stroke="#3D3530" stroke-width="3"></path>
                        <rect id="Rectangle" fill="#3D3530" x="26" y="0" width="18" height="7"></rect>
                    </g>
                </g>
                <g id="Resistor" transform="translate(128.000000, 29.000000)" stroke="#3D3530" stroke-linejoin="round" stroke-width="3">
                    <polyline points="0 13 5 13 10 0 20 26 30 0 40 26 50 0 60 26 65 13 70 13"></polyline>
                </g>
                <g id="LED" transform="translate(228.000000, 0.000000)">
                    <g>
                        <polygon id="Path-2" fill="#3D3530" points="24.5 29 44 42 24.5 55"></polygon>
                        <path d="M44,42 L70,42" id="Path-2-Copy" stroke="#3D3530" stroke-width="3"></path>
                        <path d="M44,29 L44,55" id="Path-4-Copy" stroke="#3D3530" stroke-width="3"></path>
                        <path d="M0,42 L24.5,42" id="Path-3" stroke="#3D3530" stroke-width="3"></path>
                        <g id="Arrow" transform="translate(43.647114, 19.941343) rotate(-150.000000) translate(-43.647114, -19.941343) translate(39.147114, 6.441343)">
                            <polygon id="Triangle" fill="#3D3530" transform="translate(4.633975, 19.633975) scale(1, -1) translate(-4.633975, -19.633975) " points="4.6339746 13.1339746 8.6339746 26.1339746 0.633974596 26.1339746"></polygon>
                            <path d="M4.5,0 L4.5,20" id="Path-3" stroke="#3D3530" stroke-width="3"></path>
                        </g>
                        <g id="Arrow" transform="translate(33.647114, 13.941343) rotate(-150.000000) translate(-33.647114, -13.941343) translate(29.147114, 0.441343)">
                            <polygon id="Triangle" fill="#3D3530" transform="translate(4.633975, 19.633975) scale(1, -1) translate(-4.633975, -19.633975) " points="4.6339746 13.1339746 8.6339746 26.1339746 0.633974596 26.1339746"></polygon>
                            <path d="M4.5,1.13686838e-13 L4.5,20" id="Path-3" stroke="#3D3530" stroke-width="3"></path>
                        </g>
                    </g>
                </g>
                <path d="M198,42 L228,42" id="Path-2" stroke="#3D3530" stroke-width="2"></path>
                <path d="M298,42 L328,42" id="Path-2-Copy" stroke="#3D3530" stroke-width="2"></path>
                <path d="M93,42 L128,42" id="Path-3" stroke="#3D3530" stroke-width="2"></path>
                <path d="M0,42 L33,42" id="Path-4" stroke="#3D3530" stroke-width="2"></path>
            </g>
            <g id="LED-Component-Copy" transform="translate(23.000000, 97.000000)">
                <g id="Pushbutton" transform="translate(28.000000, 24.000000)">
                    <g>
                        <g id="Connection" transform="translate(0.000000, 13.000000)" fill="#3D3530">
                            <circle cx="5" cy="5" r="5"></circle>
                        </g>
                        <g id="Connection" transform="translate(60.000000, 13.000000)" fill="#3D3530">
                            <circle cx="5" cy="5" r="5"></circle>
                        </g>
                        <path d="M5,8 L65,8" id="Path" stroke="#3D3530" stroke-width="3"></path>
                        <rect id="Rectangle" fill="#3D3530" x="26" y="0" width="18" height="7"></rect>
                    </g>
                </g>
                <g id="Resistor" transform="translate(128.000000, 29.000000)" stroke="#3D3530" stroke-linejoin="round" stroke-width="3">
                    <polyline points="0 13 5 13 10 0 20 26 30 0 40 26 50 0 60 26 65 13 70 13"></polyline>
                </g>
                <g id="LED" transform="translate(228.000000, 0.000000)">
                    <g>
                        <polygon id="Path-2" fill="#3D3530" points="24.5 29 44 42 24.5 55"></polygon>
                        <path d="M44,42 L70,42" id="Path-2-Copy" stroke="#3D3530" stroke-width="3"></path>
                        <path d="M44,29 L44,55" id="Path-4-Copy" stroke="#3D3530" stroke-width="3"></path>
                        <path d="M0,42 L24.5,42" id="Path-3" stroke="#3D3530" stroke-width="3"></path>
                        <g id="Arrow" transform="translate(43.647114, 19.941343) rotate(-150.000000) translate(-43.647114, -19.941343) translate(39.147114, 6.441343)">
                            <polygon id="Triangle" fill="#3D3530" transform="translate(4.633975, 19.633975) scale(1, -1) translate(-4.633975, -19.633975) " points="4.6339746 13.1339746 8.6339746 26.1339746 0.633974596 26.1339746"></polygon>
                            <path d="M4.5,0 L4.5,20" id="Path-3" stroke="#3D3530" stroke-width="3"></path>
                        </g>
                        <g id="Arrow" transform="translate(33.647114, 13.941343) rotate(-150.000000) translate(-33.647114, -13.941343) translate(29.147114, 0.441343)">
                            <polygon id="Triangle" fill="#3D3530" transform="translate(4.633975, 19.633975) scale(1, -1) translate(-4.633975, -19.633975) " points="4.6339746 13.1339746 8.6339746 26.1339746 0.633974596 26.1339746"></polygon>
                            <path d="M4.5,1.13686838e-13 L4.5,20" id="Path-3" stroke="#3D3530" stroke-width="3"></path>
                        </g>
                    </g>
                </g>
                <path d="M198,42 L228,42" id="Path-2" stroke="#3D3530" stroke-width="2"></path>
                <path d="M298,42 L328,42" id="Path-2-Copy" stroke="#3D3530" stroke-width="2"></path>
                <path d="M93,42 L128,42" id="Path-3" stroke="#3D3530" stroke-width="2"></path>
                <path d="M0,42 L33,42" id="Path-4" stroke="#3D3530" stroke-width="2"></path>
            </g>
            <g id="LED-Component" transform="translate(23.000000, 37.000000)">
                <g id="Pushbutton" transform="translate(28.000000, 24.000000)">
                    <g>
                        <g id="Connection" transform="translate(0.000000, 13.000000)" fill="#3D3530">
                            <circle cx="5" cy="5" r="5"></circle>
                        </g>
                        <g id="Connection" transform="translate(60.000000, 13.000000)" fill="#3D3530">
                            <circle cx="5" cy="5" r="5"></circle>
                        </g>
                        <path d="M5,8 L65,8" id="Path" stroke="#3D3530" stroke-width="3"></path>
                        <rect id="Rectangle" fill="#3D3530" x="26" y="0" width="18" height="7"></rect>
                    </g>
                </g>
                <g id="Resistor" transform="translate(128.000000, 29.000000)" stroke="#3D3530" stroke-linejoin="round" stroke-width="3">
                    <polyline points="0 13 5 13 10 0 20 26 30 0 40 26 50 0 60 26 65 13 70 13"></polyline>
                </g>
                <g id="LED" transform="translate(228.000000, 0.000000)">
                    <g>
                        <polygon id="Path-2" fill="#3D3530" points="24.5 29 44 42 24.5 55"></polygon>
                        <path d="M44,42 L70,42" id="Path-2-Copy" stroke="#3D3530" stroke-width="3"></path>
                        <path d="M44,29 L44,55" id="Path-4-Copy" stroke="#3D3530" stroke-width="3"></path>
                        <path d="M0,42 L24.5,42" id="Path-3" stroke="#3D3530" stroke-width="3"></path>
                        <g id="Arrow" transform="translate(43.647114, 19.941343) rotate(-150.000000) translate(-43.647114, -19.941343) translate(39.147114, 6.441343)">
                            <polygon id="Triangle" fill="#3D3530" transform="translate(4.633975, 19.633975) scale(1, -1) translate(-4.633975, -19.633975) " points="4.6339746 13.1339746 8.6339746 26.1339746 0.633974596 26.1339746"></polygon>
                            <path d="M4.5,0 L4.5,20" id="Path-3" stroke="#3D3530" stroke-width="3"></path>
                        </g>
                        <g id="Arrow" transform="translate(33.647114, 13.941343) rotate(-150.000000) translate(-33.647114, -13.941343) translate(29.147114, 0.441343)">
                            <polygon id="Triangle" fill="#3D3530" transform="translate(4.633975, 19.633975) scale(1, -1) translate(-4.633975, -19.633975) " points="4.6339746 13.1339746 8.6339746 26.1339746 0.633974596 26.1339746"></polygon>
                            <path d="M4.5,1.13686838e-13 L4.5,20" id="Path-3" stroke="#3D3530" stroke-width="3"></path>
                        </g>
                    </g>
                </g>
                <path d="M198,42 L228,42" id="Path-2" stroke="#3D3530" stroke-width="2"></path>
                <path d="M298,42 L328,42" id="Path-2-Copy" stroke="#3D3530" stroke-width="2"></path>
                <path d="M93,42 L128,42" id="Path-3" stroke="#3D3530" stroke-width="2"></path>
                <path d="M0,42 L33,42" id="Path-4" stroke="#3D3530" stroke-width="2"></path>
            </g>
            <g id="Ground" transform="translate(380.000000, 138.000000)" stroke="#3D3530">
                <g transform="translate(33.000000, 37.500000) rotate(-90.000000) translate(-33.000000, -37.500000) translate(-4.500000, 4.500000)">
                    <path d="M25,33 L75,33" id="Path-2-Copy" stroke-width="3"></path>
                    <path d="M13,13 L13,53" id="Path-4" stroke-width="3"></path>
                    <path d="M1,27 L1,39" id="Path-4-Copy" stroke-width="3"></path>
                    <path d="M25,0 L25,66" id="Path-3-Copy" stroke-width="3"></path>
                </g>
            </g>
            <path d="M319.224,46.824 C320.216005,46.824 320.971997,46.528003 321.492,45.936 C322.012003,45.343997 322.272,44.5840046 322.272,43.656 C322.272,42.7279954 322.012003,41.968003 321.492,41.376 C320.971997,40.783997 320.216005,40.488 319.224,40.488 L317.112,40.488 L317.112,46.824 L319.224,46.824 Z M320.136,47.688 L322.488,50.448 C324.056008,52.3200094 325.543993,53.3359992 326.952,53.496 L326.952,54 L322.992,54 L318.24,47.688 L317.112,47.688 L317.112,50.688 C317.112,51.888006 317.243999,52.6559983 317.508,52.992 C317.772001,53.3280017 318.399995,53.496 319.392,53.496 L319.392,54 L312.912,54 L312.912,53.496 C313.904005,53.496 314.531999,53.3280017 314.796,52.992 C315.060001,52.6559983 315.192,51.888006 315.192,50.688 L315.192,42.888 C315.192,41.687994 315.060001,40.9240016 314.796,40.596 C314.531999,40.2679984 313.904005,40.104 312.912,40.104 L312.912,39.6 L319.248,39.6 C320.864008,39.6 322.127995,39.9839962 323.04,40.752 C323.952005,41.5200038 324.408,42.4879942 324.408,43.656 C324.408,44.7280054 324.028004,45.6319963 323.268,46.368 C322.507996,47.1040037 321.464007,47.5439993 320.136,47.688 Z" id="R-Copy" fill="#1A80AA"></path>
            <path d="M325.56,110.088 C325.56,109.559997 325.384002,109.168001 325.032,108.912 C324.679998,108.655999 324.104004,108.528 323.304,108.528 L323.304,108.048 L329.592,108.048 L329.592,108.528 C328.599995,108.528 327.972001,108.695998 327.708,109.032 C327.443999,109.368002 327.312,110.135994 327.312,111.336 L327.312,113.16 C326.415996,113.16 325.356006,113.367998 324.132,113.784 C322.907994,114.200002 321.888004,114.408 321.072,114.408 C319.03999,114.408 317.304007,113.664007 315.864,112.176 C314.423993,110.687993 313.704,108.89601 313.704,106.8 C313.704,104.70399 314.423993,102.912007 315.864,101.424 C317.304007,99.9359926 319.03999,99.192 321.072,99.192 C322.768008,99.192 324.255994,99.8719932 325.536,101.232 C325.968002,100.895998 326.239999,100.440003 326.352,99.864 L326.832,99.864 L326.832,105.144 L326.352,105.144 C326.031998,103.575992 325.416005,102.348004 324.504,101.46 C323.591995,100.571996 322.472007,100.128 321.144,100.128 C320.231995,100.128 319.424004,100.331998 318.72,100.74 C318.015996,101.148002 317.468002,101.687997 317.076,102.36 C316.683998,103.032003 316.392001,103.743996 316.2,104.496 C316.007999,105.248004 315.912,106.015996 315.912,106.8 C315.912,107.440003 315.963999,108.051997 316.068,108.636 C316.172001,109.220003 316.359999,109.807997 316.632,110.4 C316.904001,110.992003 317.247998,111.499998 317.664,111.924 C318.080002,112.348002 318.627997,112.695999 319.308,112.968 C319.988003,113.240001 320.751996,113.376 321.6,113.376 C322.704006,113.376 323.639996,113.084003 324.408,112.5 C325.176004,111.915997 325.56,111.112005 325.56,110.088 Z" id="G-Copy" fill="#1A80AA"></path>
            <path d="M320.016,173.112 C321.008005,173.112 321.767997,172.816003 322.296,172.224 C322.824003,171.631997 323.088,170.880005 323.088,169.968 C323.088,169.039995 322.824003,168.276003 322.296,167.676 C321.767997,167.075997 321.008005,166.776 320.016,166.776 L317.112,166.776 L317.112,170.328 C317.112,171.528006 317.243999,172.291998 317.508,172.62 C317.772001,172.948002 318.399995,173.112 319.392,173.112 L320.016,173.112 Z M317.112,160.488 L317.112,165.888 L319.248,165.888 C320.112004,165.888 320.767998,165.636003 321.216,165.132 C321.664002,164.627997 321.888,163.984004 321.888,163.2 C321.888,162.415996 321.664002,161.768003 321.216,161.256 C320.767998,160.743997 320.112004,160.488 319.248,160.488 L317.112,160.488 Z M322.128,166.176 C323.056005,166.464001 323.799997,166.951997 324.36,167.64 C324.920003,168.328003 325.2,169.103996 325.2,169.968 C325.2,171.136006 324.744005,172.099996 323.832,172.86 C322.919995,173.620004 321.656008,174 320.04,174 L312.912,174 L312.912,173.496 C313.904005,173.496 314.531999,173.328002 314.796,172.992 C315.060001,172.655998 315.192,171.888006 315.192,170.688 L315.192,162.888 C315.192,161.687994 315.060001,160.924002 314.796,160.596 C314.531999,160.267998 313.904005,160.104 312.912,160.104 L312.912,159.6 L319.368,159.6 C320.840007,159.6 321.979996,159.939997 322.788,160.62 C323.596004,161.300003 324,162.159995 324,163.2 C324,164.448006 323.376006,165.439996 322.128,166.176 Z" id="B-Copy" fill="#1A80AA"></path>
            <path d="M6.34,14.24 C6.22799944,14.3360005 6.08800084,14.483999 5.92,14.684 C5.75199916,14.884001 5.59600072,15.0439994 5.452,15.164 C5.30799928,15.2840006 5.16400072,15.344 5.02,15.344 C4.89199936,15.344 4.77600052,15.2920005 4.672,15.188 C4.56799948,15.0839995 4.516,14.9520008 4.516,14.792 C4.516,14.5039986 4.72399792,14.2080015 5.14,13.904 L6.916,12.488 C7.38000232,12.1359982 7.75999852,11.6840028 8.056,11.132 C8.35200148,10.5799972 8.5,10.008003 8.5,9.416 C8.5,8.74399664 8.2600024,8.208002 7.78,7.808 C7.2999976,7.407998 6.66800392,7.208 5.884,7.208 C5.05199584,7.208 4.3560028,7.55999648 3.796,8.264 C3.2359972,8.96800352 3.24399712,9.81599504 3.82,10.808 L3.1,11.552 C2.17199536,10.9919972 1.67200036,10.2840043 1.6,9.428 C1.52799964,8.57199572 1.891996,7.82000324 2.692,7.172 C3.492004,6.52399676 4.55599336,6.2 5.884,6.2 C7.11600616,6.2 8.18799544,6.49599704 9.1,7.088 C10.0120046,7.68000296 10.468,8.4559952 10.468,9.416 C10.468,9.76800176 10.3920008,10.1279982 10.24,10.496 C10.0879992,10.8640018 9.90400108,11.1759987 9.688,11.432 C9.47199892,11.6880013 9.25600108,11.9239989 9.04,12.14 C8.82399892,12.3560011 8.64400072,12.5199994 8.5,12.632 L8.26,12.776 L7.156,13.616 C8.30800576,13.8560012 9.21999664,14.3279965 9.892,15.032 C10.5640034,15.7360035 10.9,16.5519954 10.9,17.48 C10.9,18.5840055 10.4400046,19.5279961 9.52,20.312 C8.5999954,21.0960039 7.46800672,21.488 6.124,21.488 C4.82799352,21.488 3.76400416,21.1760031 2.932,20.552 C2.09999584,19.9279969 1.684,19.3360028 1.684,18.776 C1.684,18.4079982 1.89199792,18.224 2.308,18.224 C2.4680008,18.224 2.6079994,18.2959993 2.728,18.44 C2.8480006,18.5840007 2.98399924,18.7839987 3.136,19.04 C3.28800076,19.2960013 3.43599928,19.4959993 3.58,19.64 C4.17200296,20.2640031 4.95599512,20.576 5.932,20.576 C6.87600472,20.576 7.58399764,20.2920028 8.056,19.724 C8.52800236,19.1559972 8.764,18.4080046 8.764,17.48 C8.764,16.7119962 8.56800196,16.024003 8.176,15.416 C7.78399804,14.807997 7.17200416,14.4160009 6.34,14.24 Z M17.404,15.944 C17.404,16.2800017 17.2680014,16.5719988 16.996,16.82 C16.7239986,17.0680012 16.4040018,17.192 16.036,17.192 C15.6679982,17.192 15.3560013,17.0680012 15.1,16.82 C14.8439987,16.5719988 14.716,16.2800017 14.716,15.944 C14.716,15.5919982 14.8439987,15.2920012 15.1,15.044 C15.3560013,14.7959988 15.6679982,14.672 16.036,14.672 C16.4040018,14.672 16.7239986,14.7959988 16.996,15.044 C17.2680014,15.2920012 17.404,15.5919982 17.404,15.944 Z M26.044,14.24 C25.9319994,14.3360005 25.7920008,14.483999 25.624,14.684 C25.4559992,14.884001 25.3000007,15.0439994 25.156,15.164 C25.0119993,15.2840006 24.8680007,15.344 24.724,15.344 C24.5959994,15.344 24.4800005,15.2920005 24.376,15.188 C24.2719995,15.0839995 24.22,14.9520008 24.22,14.792 C24.22,14.5039986 24.4279979,14.2080015 24.844,13.904 L26.62,12.488 C27.0840023,12.1359982 27.4639985,11.6840028 27.76,11.132 C28.0560015,10.5799972 28.204,10.008003 28.204,9.416 C28.204,8.74399664 27.9640024,8.208002 27.484,7.808 C27.0039976,7.407998 26.3720039,7.208 25.588,7.208 C24.7559958,7.208 24.0600028,7.55999648 23.5,8.264 C22.9399972,8.96800352 22.9479971,9.81599504 23.524,10.808 L22.804,11.552 C21.8759954,10.9919972 21.3760004,10.2840043 21.304,9.428 C21.2319996,8.57199572 21.595996,7.82000324 22.396,7.172 C23.196004,6.52399676 24.2599934,6.2 25.588,6.2 C26.8200062,6.2 27.8919954,6.49599704 28.804,7.088 C29.7160046,7.68000296 30.172,8.4559952 30.172,9.416 C30.172,9.76800176 30.0960008,10.1279982 29.944,10.496 C29.7919992,10.8640018 29.6080011,11.1759987 29.392,11.432 C29.1759989,11.6880013 28.9600011,11.9239989 28.744,12.14 C28.5279989,12.3560011 28.3480007,12.5199994 28.204,12.632 L27.964,12.776 L26.86,13.616 C28.0120058,13.8560012 28.9239966,14.3279965 29.596,15.032 C30.2680034,15.7360035 30.604,16.5519954 30.604,17.48 C30.604,18.5840055 30.1440046,19.5279961 29.224,20.312 C28.3039954,21.0960039 27.1720067,21.488 25.828,21.488 C24.5319935,21.488 23.4680042,21.1760031 22.636,20.552 C21.8039958,19.9279969 21.388,19.3360028 21.388,18.776 C21.388,18.4079982 21.5959979,18.224 22.012,18.224 C22.1720008,18.224 22.3119994,18.2959993 22.432,18.44 C22.5520006,18.5840007 22.6879992,18.7839987 22.84,19.04 C22.9920008,19.2960013 23.1399993,19.4959993 23.284,19.64 C23.876003,20.2640031 24.6599951,20.576 25.636,20.576 C26.5800047,20.576 27.2879976,20.2920028 27.76,19.724 C28.2320024,19.1559972 28.468,18.4080046 28.468,17.48 C28.468,16.7119962 28.272002,16.024003 27.88,15.416 C27.487998,14.807997 26.8760042,14.4160009 26.044,14.24 Z M47.74,3.104 C46.7959953,3.104 46.1840014,3.21999884 45.904,3.452 C45.6239986,3.68400116 45.284002,4.26399536 44.884,5.192 L39.604,17.408 L39.292,17.408 L33.988,5.192 C33.587998,4.26399536 33.2480014,3.68400116 32.968,3.452 C32.6879986,3.21999884 32.0760047,3.104 31.132,3.104 L31.132,2.6 L37.78,2.6 L37.78,3.104 C36.787995,3.104 36.1520014,3.2439986 35.872,3.524 C35.5919986,3.8040014 35.6039985,4.27199672 35.908,4.928 L39.988,14.264 L44.02,4.928 C44.3240015,4.27199672 44.3360014,3.8040014 44.056,3.524 C43.7759986,3.2439986 43.140005,3.104 42.148,3.104 L42.148,2.6 L47.74,2.6 L47.74,3.104 Z" id="3.3V-Copy" fill="#524740"></path>
            <g id="DC_Rail" transform="translate(8.000000, 29.000000)" stroke="#3D3530">
                <g transform="translate(15.000000, 25.500000) rotate(-90.000000) translate(-15.000000, -25.500000) translate(-10.500000, 10.500000)">
                    <path d="M-5.32907052e-15,15 L50,15" id="Path-2-Copy" stroke-width="3"></path>
                    <path d="M50,-4.26325641e-14 L50,30" id="Path-4" stroke-width="3"></path>
                </g>
            </g>
            <g id="Wiring" transform="translate(22.000000, 78.000000)" stroke="#3D3530" stroke-width="2">
                <path d="M359,61 L391,61" id="Path"></path>
                <path d="M329,61 L359,61" id="Path-2-Copy-2"></path>
                <path d="M1,1 L1,122" id="Path-5"></path>
                <path d="M329,0 L329,122" id="Path-5-Copy"></path>
            </g>
        </g>
    </g>
</svg>