<?xml version="1.0" encoding="UTF-8"?>
<svg width="900px" height="430px" viewBox="0 0 900 430" version="1.1" xmlns="http://www.w3.org/2000/svg" xmlns:xlink="http://www.w3.org/1999/xlink">
    <!-- Generator: Sketch 52.5 (67469) - http://www.bohemiancoding.com/sketch -->
    <title>Lab_Circuit_Logical_AND_Gate</title>
    <desc>Created with Sketch.</desc>
    <g id="Lab_Circuit_Logical_AND_Gate" stroke="none" stroke-width="1" fill="none" fill-rule="evenodd">
        <g id="Illustration_Frame">
            <rect id="Rectangle" stroke="#3D3530" stroke-width="2" fill="#EEEEEE" x="1" y="1" width="898" height="428"></rect>
            <rect id="Rectangle-Copy" stroke="#3D3530" stroke-width="2" fill="#F8FAE4" x="1" y="386" width="898" height="43"></rect>
            <path d="M555.477332,400.456 L546.477332,400.456 L546.477332,406 L551.541332,406 L551.541332,407.584 L546.477332,407.584 L546.477332,413.416 L555.477332,413.416 L555.477332,415 L544.893332,415 L544.893332,398.872 L555.477332,398.872 L555.477332,400.456 Z M567.975999,415 L566.175999,415 L562.815999,410.224 L559.431999,415 L557.655999,415 L561.927999,408.952 L557.727999,403 L559.503999,403 L562.815999,407.68 L566.103999,403 L567.903999,403 L563.703999,408.952 L567.975999,415 Z M575.746666,413.608 C576.818671,413.608 577.778662,413.304003 578.626666,412.696 C579.47467,412.087997 580.050664,411.376004 580.354666,410.56 L581.698666,411.04 C581.330664,412.048005 580.614671,412.975996 579.550666,413.824 C578.48666,414.672004 577.218673,415.088 575.746666,415.072 C574.402659,415.072 573.174671,414.656004 572.062666,413.824 C570.95066,412.991996 570.194668,411.928006 569.794666,410.632 C569.634665,410.103997 569.554666,409.528003 569.554666,408.904 C569.554666,407.175991 570.15466,405.712006 571.354666,404.512 C572.554672,403.311994 574.018657,402.704 575.746666,402.688 C577.314674,402.704 578.68266,403.231995 579.850666,404.272 C581.018672,405.312005 581.690665,406.599992 581.866666,408.136 C581.882666,408.216 581.890666,408.319999 581.890666,408.448 L571.402666,410.344 C571.674667,411.304005 572.218662,412.091997 573.034666,412.708 C573.85067,413.324003 574.754661,413.624 575.746666,413.608 Z M575.602666,404.152 C574.40266,404.168 573.37467,404.599996 572.518666,405.448 C571.662662,406.296004 571.202666,407.311994 571.138666,408.496 C571.138666,408.544 571.142666,408.627999 571.150666,408.748 C571.158666,408.868001 571.162666,408.968 571.162666,409.048 L580.090666,407.44 C579.786664,406.463995 579.21867,405.668003 578.386666,405.052 C577.554662,404.435997 576.626671,404.136 575.602666,404.152 Z M590.237332,402.808 C591.085337,402.808 591.861329,403.015998 592.565332,403.432 L592.013332,405.016 C591.341329,404.519998 590.661336,404.272 589.973332,404.272 C588.965327,404.272 588.117336,404.627996 587.429332,405.34 C586.741329,406.052004 586.397332,406.927995 586.397332,407.968 L586.397332,415 L584.813332,415 L584.813332,403 L586.397332,403 L586.397332,404.776 C587.373337,403.463993 588.653325,402.808 590.237332,402.808 Z M599.879999,415.192 C598.167991,415.192 596.708005,414.588006 595.499999,413.38 C594.291993,412.171994 593.687999,410.712009 593.687999,409 C593.687999,407.287991 594.291993,405.828006 595.499999,404.62 C596.708005,403.411994 598.167991,402.808 599.879999,402.808 C600.968005,402.808 601.979995,403.075997 602.915999,403.612 C603.852004,404.148003 604.591996,404.863996 605.135999,405.76 L603.695999,406.456 C603.263997,405.799997 602.712003,405.280002 602.039999,404.896 C601.367996,404.511998 600.648003,404.32 599.879999,404.32 C598.583993,404.32 597.492004,404.771995 596.603999,405.676 C595.715995,406.580005 595.271999,407.687993 595.271999,409 C595.271999,410.312007 595.715995,411.419995 596.603999,412.324 C597.492004,413.228005 598.583993,413.68 599.879999,413.68 C600.648003,413.68 601.367996,413.488002 602.039999,413.104 C602.712003,412.719998 603.263997,412.200003 603.695999,411.544 L605.135999,412.24 C604.591996,413.136004 603.852004,413.851997 602.915999,414.388 C601.979995,414.924003 600.968005,415.192 599.879999,415.192 Z M610.314666,399.4 C610.138665,399.592001 609.914667,399.688 609.642666,399.688 C609.370665,399.688 609.142667,399.592001 608.958666,399.4 C608.774665,399.207999 608.682666,398.984001 608.682666,398.728 C608.682666,398.471999 608.774665,398.248001 608.958666,398.056 C609.142667,397.863999 609.370665,397.768 609.642666,397.768 C609.914667,397.768 610.142665,397.863999 610.326666,398.056 C610.510667,398.248001 610.602666,398.471999 610.602666,398.728 C610.602666,398.984001 610.506667,399.207999 610.314666,399.4 Z M608.850666,415 L608.850666,403 L610.434666,403 L610.434666,415 L608.850666,415 Z M618.709333,415.192 C618.16533,415.192 617.637335,415.124001 617.125333,414.988 C616.61333,414.851999 616.185334,414.692001 615.841333,414.508 C615.497331,414.323999 615.189334,414.136001 614.917333,413.944 C614.645331,413.751999 614.445333,413.592001 614.317333,413.464 L614.125333,413.248 L615.253333,412.288 C615.365333,412.400001 615.521332,412.535999 615.721333,412.696 C615.921334,412.856001 616.32533,413.071999 616.933333,413.344 C617.541336,413.616001 618.14133,413.752 618.733333,413.752 C619.613337,413.752 620.31733,413.584002 620.845333,413.248 C621.373335,412.911998 621.637333,412.440003 621.637333,411.832 C621.637333,411.399998 621.373335,411.028002 620.845333,410.716 C620.31733,410.403998 619.677336,410.136001 618.925333,409.912 C618.173329,409.687999 617.417336,409.440001 616.657333,409.168 C615.897329,408.895999 615.253335,408.512002 614.725333,408.016 C614.19733,407.519998 613.933333,406.912004 613.933333,406.192 C613.933333,405.199995 614.305329,404.388003 615.049333,403.756 C615.793336,403.123997 616.893325,402.808 618.349333,402.808 C619.213337,402.808 620.029329,402.967998 620.797333,403.288 C621.565336,403.608002 622.117331,403.927998 622.453333,404.248 L622.957333,404.728 L621.829333,405.712 C621.717332,405.599999 621.561334,405.464001 621.361333,405.304 C621.161332,405.143999 620.757336,404.928001 620.149333,404.656 C619.54133,404.383999 618.933336,404.248 618.325333,404.248 C617.461328,404.248 616.761335,404.415998 616.225333,404.752 C615.68933,405.088002 615.421333,405.559997 615.421333,406.168 C615.421333,406.600002 615.68533,406.971998 616.213333,407.284 C616.741335,407.596002 617.381329,407.863999 618.133333,408.088 C618.885336,408.312001 619.641329,408.555999 620.401333,408.82 C621.161336,409.084001 621.80533,409.467997 622.333333,409.972 C622.861335,410.476003 623.125333,411.087996 623.125333,411.808 C623.125333,412.816005 622.757336,413.631997 622.021333,414.256 C621.285329,414.880003 620.18134,415.192 618.709333,415.192 Z M631.687999,413.608 C632.760005,413.608 633.719995,413.304003 634.567999,412.696 C635.416004,412.087997 635.991998,411.376004 636.295999,410.56 L637.639999,411.04 C637.271997,412.048005 636.556005,412.975996 635.491999,413.824 C634.427994,414.672004 633.160007,415.088 631.687999,415.072 C630.343993,415.072 629.116005,414.656004 628.003999,413.824 C626.891994,412.991996 626.136001,411.928006 625.735999,410.632 C625.575998,410.103997 625.495999,409.528003 625.495999,408.904 C625.495999,407.175991 626.095993,405.712006 627.295999,404.512 C628.496005,403.311994 629.959991,402.704 631.687999,402.688 C633.256007,402.704 634.623993,403.231995 635.791999,404.272 C636.960005,405.312005 637.631998,406.599992 637.807999,408.136 C637.823999,408.216 637.831999,408.319999 637.831999,408.448 L627.343999,410.344 C627.616001,411.304005 628.159995,412.091997 628.975999,412.708 C629.792003,413.324003 630.695994,413.624 631.687999,413.608 Z M631.543999,404.152 C630.343993,404.168 629.316004,404.599996 628.459999,405.448 C627.603995,406.296004 627.144,407.311994 627.079999,408.496 C627.079999,408.544 627.083999,408.627999 627.091999,408.748 C627.099999,408.868001 627.103999,408.968 627.103999,409.048 L636.031999,407.44 C635.727998,406.463995 635.160003,405.668003 634.327999,405.052 C633.495995,404.435997 632.568004,404.136 631.543999,404.152 Z M648.933333,415 L648.789333,413.656 C648.837333,413.608 649.297328,413.204004 650.169333,412.444 C651.041337,411.683996 651.813329,410.980003 652.485333,410.332 C653.157336,409.683997 653.917328,408.908005 654.765333,408.004 C655.613337,407.099995 656.27733,406.240004 656.757333,405.424 C657.237335,404.607996 657.477333,403.904003 657.477333,403.312 C657.477333,402.447996 657.145336,401.716003 656.481333,401.116 C655.817329,400.515997 654.989338,400.216 653.997333,400.216 C652.333324,400.216 650.973338,401.20799 649.917333,403.192 L648.837333,402.112 C648.981333,401.839999 649.169332,401.552002 649.401333,401.248 C649.633334,400.943998 649.965331,400.580002 650.397333,400.156 C650.829335,399.731998 651.377329,399.384001 652.041333,399.112 C652.705336,398.839999 653.413329,398.704 654.165333,398.704 C655.60534,398.704 656.789328,399.155995 657.717333,400.06 C658.645337,400.964005 659.109333,402.015994 659.109333,403.216 C659.109333,403.936004 658.897335,404.719996 658.473333,405.568 C658.049331,406.416004 657.461336,407.263996 656.709333,408.112 C655.957329,408.960004 655.281336,409.679997 654.681333,410.272 C654.08133,410.864003 653.369337,411.515996 652.545333,412.228 C651.721329,412.940004 651.269333,413.336 651.189333,413.416 L659.565333,413.416 L659.565333,415 L648.933333,415 Z M663.063999,406.768 L663.063999,402.688 L664.719999,402.688 L664.719999,406.768 L663.063999,406.768 Z M663.063999,415 L663.063999,410.752 L664.719999,410.752 L664.719999,415 L663.063999,415 Z M677.645333,413.416 L684.989333,413.416 L684.989333,415 L676.061333,415 L676.061333,398.872 L677.645333,398.872 L677.645333,413.416 Z M697.319999,413.368 C696.119993,414.584006 694.664008,415.192 692.951999,415.192 C691.239991,415.192 689.780006,414.588006 688.571999,413.38 C687.363993,412.171994 686.759999,410.712009 686.759999,409 C686.759999,407.287991 687.363993,405.828006 688.571999,404.62 C689.780006,403.411994 691.239991,402.808 692.951999,402.808 C694.664008,402.808 696.123993,403.411994 697.331999,404.62 C698.540006,405.828006 699.143999,407.287991 699.143999,409 C699.143999,410.696008 698.536006,412.151994 697.319999,413.368 Z M692.975999,413.68 C694.272006,413.68 695.363995,413.228005 696.251999,412.324 C697.140004,411.419995 697.583999,410.312007 697.583999,409 C697.583999,407.687993 697.140004,406.576005 696.251999,405.664 C695.363995,404.751995 694.272006,404.296 692.975999,404.296 C691.695993,404.296 690.608004,404.751995 689.711999,405.664 C688.815995,406.576005 688.367999,407.687993 688.367999,409 C688.367999,410.312007 688.815995,411.419995 689.711999,412.324 C690.608004,413.228005 691.695993,413.68 692.975999,413.68 Z M712.602666,403.024 L714.210666,403.024 L714.210666,413.968 C714.194666,415.712009 713.566672,417.171994 712.326666,418.348 C711.08666,419.524006 709.650674,420.112 708.018666,420.112 C706.530659,420.112 705.262671,419.716004 704.214666,418.924 C703.166661,418.131996 702.458668,417.240005 702.090666,416.248 L703.386666,415.6 C703.690668,416.416004 704.266662,417.127997 705.114666,417.736 C705.96267,418.344003 706.930661,418.648 708.018666,418.648 C709.298673,418.648 710.382662,418.180005 711.270666,417.244 C712.158671,416.307995 712.610666,415.216006 712.626666,413.968 L712.602666,413.968 L712.602666,413.08 C711.38666,414.504007 709.826676,415.216 707.922666,415.216 C706.210658,415.216 704.750672,414.612006 703.542666,413.404 C702.33466,412.195994 701.730666,410.736009 701.730666,409.024 C701.730666,407.311991 702.33466,405.852006 703.542666,404.644 C704.750672,403.435994 706.210658,402.832 707.922666,402.832 C709.810676,402.832 711.37066,403.543993 712.602666,404.968 L712.602666,403.024 Z M707.946666,413.728 C709.242673,413.728 710.334662,413.276005 711.222666,412.372 C712.110671,411.467995 712.554666,410.360007 712.554666,409.048 C712.554666,407.735993 712.110671,406.628005 711.222666,405.724 C710.334662,404.819995 709.242673,404.368 707.946666,404.368 C706.66666,404.368 705.578671,404.819995 704.682666,405.724 C703.786662,406.628005 703.338666,407.735993 703.338666,409.048 C703.338666,410.360007 703.786662,411.467995 704.682666,412.372 C705.578671,413.276005 706.66666,413.728 707.946666,413.728 Z M720.013333,399.4 C719.837332,399.592001 719.613334,399.688 719.341333,399.688 C719.069332,399.688 718.841334,399.592001 718.657333,399.4 C718.473332,399.207999 718.381333,398.984001 718.381333,398.728 C718.381333,398.471999 718.473332,398.248001 718.657333,398.056 C718.841334,397.863999 719.069332,397.768 719.341333,397.768 C719.613334,397.768 719.841332,397.863999 720.025333,398.056 C720.209334,398.248001 720.301333,398.471999 720.301333,398.728 C720.301333,398.984001 720.205334,399.207999 720.013333,399.4 Z M718.549333,415 L718.549333,403 L720.133333,403 L720.133333,415 L718.549333,415 Z M729.8,415.192 C728.087991,415.192 726.628006,414.588006 725.42,413.38 C724.211994,412.171994 723.608,410.712009 723.608,409 C723.608,407.287991 724.211994,405.828006 725.42,404.62 C726.628006,403.411994 728.087991,402.808 729.8,402.808 C730.888005,402.808 731.899995,403.075997 732.836,403.612 C733.772004,404.148003 734.511997,404.863996 735.056,405.76 L733.616,406.456 C733.183997,405.799997 732.632003,405.280002 731.96,404.896 C731.287996,404.511998 730.568003,404.32 729.8,404.32 C728.503993,404.32 727.412004,404.771995 726.524,405.676 C725.635995,406.580005 725.192,407.687993 725.192,409 C725.192,410.312007 725.635995,411.419995 726.524,412.324 C727.412004,413.228005 728.503993,413.68 729.8,413.68 C730.568003,413.68 731.287996,413.488002 731.96,413.104 C732.632003,412.719998 733.183997,412.200003 733.616,411.544 L735.056,412.24 C734.511997,413.136004 733.772004,413.851997 732.836,414.388 C731.899995,414.924003 730.888005,415.192 729.8,415.192 Z M748.298666,403 L749.882666,403 L749.882666,415 L748.298666,415 L748.298666,413.056 C747.06666,414.480007 745.506676,415.192 743.618666,415.192 C741.906658,415.192 740.446672,414.588006 739.238666,413.38 C738.03066,412.171994 737.426666,410.712009 737.426666,409 C737.426666,407.287991 738.03066,405.828006 739.238666,404.62 C740.446672,403.411994 741.906658,402.808 743.618666,402.808 C745.522676,402.808 747.08266,403.519993 748.298666,404.944 L748.298666,403 Z M743.642666,413.68 C744.938673,413.68 746.030662,413.228005 746.918666,412.324 C747.806671,411.419995 748.250666,410.312007 748.250666,409 C748.250666,407.687993 747.806671,406.580005 746.918666,405.676 C746.030662,404.771995 744.938673,404.32 743.642666,404.32 C742.36266,404.32 741.270671,404.771995 740.366666,405.676 C739.462662,406.580005 739.010666,407.687993 739.010666,409 C739.010666,410.312007 739.462662,411.419995 740.366666,412.324 C741.270671,413.228005 742.36266,413.68 743.642666,413.68 Z M753.933333,415 L753.933333,397.144 L755.517333,397.144 L755.517333,415 L753.933333,415 Z M779.314666,415 L777.250666,409.96 L769.714666,409.96 L767.650666,415 L765.994666,415 L772.714666,398.872 L774.226666,398.872 L780.946666,415 L779.314666,415 Z M770.362666,408.376 L776.602666,408.376 L773.482666,400.72 L770.362666,408.376 Z M794.333333,398.872 L795.917333,398.872 L795.917333,415 L794.285333,415 L785.285333,401.296 L785.285333,415 L783.701333,415 L783.701333,398.872 L785.309333,398.872 L794.333333,412.6 L794.333333,398.872 Z M799.92,415 L799.92,398.872 L803.568,398.872 C806.224013,398.872 808.335992,399.639992 809.904,401.176 C811.472008,402.712008 812.256,404.631988 812.256,406.936 C812.256,409.224011 811.468008,411.139992 809.892,412.684 C808.315992,414.228008 806.208013,415 803.568,415 L799.92,415 Z M801.504,413.488 L803.568,413.488 C805.68001,413.488 807.367993,412.868006 808.632,411.628 C809.896006,410.387994 810.528,408.824009 810.528,406.936 C810.528,405.047991 809.896006,403.484006 808.632,402.244 C807.367993,401.003994 805.68001,400.384 803.568,400.384 L801.504,400.384 L801.504,413.488 Z M830.149333,415.192 C827.781321,415.192 825.88934,414.404008 824.473333,412.828 C823.057326,411.251992 822.349333,409.296012 822.349333,406.96 C822.349333,404.607988 823.057326,402.644008 824.473333,401.068 C825.88934,399.491992 827.781321,398.704 830.149333,398.704 C831.701341,398.704 833.061327,399.063996 834.229333,399.784 C835.397339,400.504004 836.29333,401.487994 836.917333,402.736 L835.429333,403.6 C834.933331,402.559995 834.225338,401.736003 833.305333,401.128 C832.385329,400.519997 831.333339,400.216 830.149333,400.216 C828.325324,400.216 826.865339,400.851994 825.769333,402.124 C824.673328,403.396006 824.125333,405.00799 824.125333,406.96 C824.125333,408.89601 824.673328,410.503994 825.769333,411.784 C826.865339,413.064006 828.325324,413.704 830.149333,413.704 C831.749341,413.704 833.081328,413.172005 834.145333,412.108 C835.209339,411.043995 835.837332,409.696008 836.029333,408.064 L830.797333,408.064 L830.797333,406.648 L837.685333,406.648 L837.685333,415 L836.245333,415 L836.245333,411.76 C835.65333,412.832005 834.833338,413.671997 833.785333,414.28 C832.737328,414.888003 831.52534,415.192 830.149333,415.192 Z M851.528,403 L853.112,403 L853.112,415 L851.528,415 L851.528,413.056 C850.295994,414.480007 848.736009,415.192 846.848,415.192 C845.135991,415.192 843.676006,414.588006 842.468,413.38 C841.259994,412.171994 840.656,410.712009 840.656,409 C840.656,407.287991 841.259994,405.828006 842.468,404.62 C843.676006,403.411994 845.135991,402.808 846.848,402.808 C848.752009,402.808 850.311994,403.519993 851.528,404.944 L851.528,403 Z M846.872,413.68 C848.168006,413.68 849.259995,413.228005 850.148,412.324 C851.036004,411.419995 851.48,410.312007 851.48,409 C851.48,407.687993 851.036004,406.580005 850.148,405.676 C849.259995,404.771995 848.168006,404.32 846.872,404.32 C845.591993,404.32 844.500004,404.771995 843.596,405.676 C842.691995,406.580005 842.24,407.687993 842.24,409 C842.24,410.312007 842.691995,411.419995 843.596,412.324 C844.500004,413.228005 845.591993,413.68 846.872,413.68 Z M863.594667,412.312 L864.386667,413.536 C864.290666,413.664001 864.162667,413.815999 864.002667,413.992 C863.842666,414.168001 863.482669,414.411998 862.922667,414.724 C862.362664,415.036002 861.78667,415.192 861.194667,415.192 C860.186662,415.192 859.34267,414.892003 858.662667,414.292 C857.982663,413.691997 857.642667,412.824006 857.642667,411.688 L857.642667,404.44 L855.722667,404.44 L855.722667,402.976 L857.642667,402.976 L857.642667,399.184 L859.226667,398.992 L859.226667,402.976 L862.850667,402.976 L862.850667,404.44 L859.226667,404.44 L859.226667,411.328 C859.226667,412.064004 859.454664,412.647998 859.910667,413.08 C860.366669,413.512002 860.890664,413.728 861.482667,413.728 C861.850668,413.728 862.210665,413.616001 862.562667,413.392 C862.914668,413.167999 863.174666,412.948001 863.342667,412.732 C863.510667,412.515999 863.594667,412.376 863.594667,412.312 Z M872.037333,413.608 C873.109339,413.608 874.069329,413.304003 874.917333,412.696 C875.765338,412.087997 876.341332,411.376004 876.645333,410.56 L877.989333,411.04 C877.621331,412.048005 876.905339,412.975996 875.841333,413.824 C874.777328,414.672004 873.509341,415.088 872.037333,415.072 C870.693327,415.072 869.465339,414.656004 868.353333,413.824 C867.241328,412.991996 866.485335,411.928006 866.085333,410.632 C865.925332,410.103997 865.845333,409.528003 865.845333,408.904 C865.845333,407.175991 866.445327,405.712006 867.645333,404.512 C868.845339,403.311994 870.309325,402.704 872.037333,402.688 C873.605341,402.704 874.973327,403.231995 876.141333,404.272 C877.309339,405.312005 877.981332,406.599992 878.157333,408.136 C878.173333,408.216 878.181333,408.319999 878.181333,408.448 L867.693333,410.344 C867.965335,411.304005 868.509329,412.091997 869.325333,412.708 C870.141337,413.324003 871.045328,413.624 872.037333,413.608 Z M871.893333,404.152 C870.693327,404.168 869.665338,404.599996 868.809333,405.448 C867.953329,406.296004 867.493334,407.311994 867.429333,408.496 C867.429333,408.544 867.433333,408.627999 867.441333,408.748 C867.449333,408.868001 867.453333,408.968 867.453333,409.048 L876.381333,407.44 C876.077332,406.463995 875.509337,405.668003 874.677333,405.052 C873.845329,404.435997 872.917338,404.136 871.893333,404.152 Z" id="Exercise-2:-Logical-Copy" fill="#23ABE3"></path>
        </g>
        <g id="Circuit" transform="translate(211.000000, 21.000000)">
            <g id="Resistor" transform="translate(325.000000, 114.000000) rotate(-270.000000) translate(-325.000000, -114.000000) translate(290.000000, 101.000000)" stroke="#3D3530" stroke-linejoin="round" stroke-width="3">
                <polyline points="0 13 5 13 10 0 20 26 30 0 40 26 50 0 60 26 65 13 70 13"></polyline>
            </g>
            <g id="Ground" transform="translate(430.000000, 186.000000)" stroke="#3D3530">
                <g transform="translate(33.000000, 37.500000) rotate(-90.000000) translate(-33.000000, -37.500000) translate(-4.500000, 4.500000)">
                    <path d="M25,33 L75,33" id="Path-2-Copy" stroke-width="3"></path>
                    <path d="M13,13 L13,53" id="Path-4" stroke-width="3"></path>
                    <path d="M1,27 L1,39" id="Path-4-Copy" stroke-width="3"></path>
                    <path d="M25,0 L25,66" id="Path-3-Copy" stroke-width="3"></path>
                </g>
            </g>
            <g id="Ground" transform="translate(0.000000, 256.000000)" stroke="#3D3530">
                <g transform="translate(33.000000, 37.500000) rotate(-90.000000) translate(-33.000000, -37.500000) translate(-4.500000, 4.500000)">
                    <path d="M25,33 L75,33" id="Path-2-Copy" stroke-width="3"></path>
                    <path d="M13,13 L13,53" id="Path-4" stroke-width="3"></path>
                    <path d="M1,27 L1,39" id="Path-4-Copy" stroke-width="3"></path>
                    <path d="M25,0 L25,66" id="Path-3-Copy" stroke-width="3"></path>
                </g>
            </g>
            <g id="LED" transform="translate(361.000000, 145.000000)">
                <g>
                    <polygon id="Path-2" fill="#3D3530" points="24.5 29 44 42 24.5 55"></polygon>
                    <path d="M44,42 L70,42" id="Path-2-Copy" stroke="#3D3530" stroke-width="3"></path>
                    <path d="M44,29 L44,55" id="Path-4-Copy" stroke="#3D3530" stroke-width="3"></path>
                    <path d="M0,42 L24.5,42" id="Path-3" stroke="#3D3530" stroke-width="3"></path>
                    <g id="Arrow" transform="translate(43.647114, 19.941343) rotate(-150.000000) translate(-43.647114, -19.941343) translate(39.147114, 6.441343)">
                        <polygon id="Triangle" fill="#3D3530" transform="translate(4.633975, 19.633975) scale(1, -1) translate(-4.633975, -19.633975) " points="4.6339746 13.1339746 8.6339746 26.1339746 0.633974596 26.1339746"></polygon>
                        <path d="M4.5,0 L4.5,20" id="Path-3" stroke="#3D3530" stroke-width="3"></path>
                    </g>
                    <g id="Arrow" transform="translate(33.647114, 13.941343) rotate(-150.000000) translate(-33.647114, -13.941343) translate(29.147114, 0.441343)">
                        <polygon id="Triangle" fill="#3D3530" transform="translate(4.633975, 19.633975) scale(1, -1) translate(-4.633975, -19.633975) " points="4.6339746 13.1339746 8.6339746 26.1339746 0.633974596 26.1339746"></polygon>
                        <path d="M4.5,1.13686838e-13 L4.5,20" id="Path-3" stroke="#3D3530" stroke-width="3"></path>
                    </g>
                </g>
            </g>
            <g id="3.3V" transform="translate(75.000000, 28.000000)">
                <path d="M6.34,14.24 C6.22799944,14.3360005 6.08800084,14.483999 5.92,14.684 C5.75199916,14.884001 5.59600072,15.0439994 5.452,15.164 C5.30799928,15.2840006 5.16400072,15.344 5.02,15.344 C4.89199936,15.344 4.77600052,15.2920005 4.672,15.188 C4.56799948,15.0839995 4.516,14.9520008 4.516,14.792 C4.516,14.5039986 4.72399792,14.2080015 5.14,13.904 L6.916,12.488 C7.38000232,12.1359982 7.75999852,11.6840028 8.056,11.132 C8.35200148,10.5799972 8.5,10.008003 8.5,9.416 C8.5,8.74399664 8.2600024,8.208002 7.78,7.808 C7.2999976,7.407998 6.66800392,7.208 5.884,7.208 C5.05199584,7.208 4.3560028,7.55999648 3.796,8.264 C3.2359972,8.96800352 3.24399712,9.81599504 3.82,10.808 L3.1,11.552 C2.17199536,10.9919972 1.67200036,10.2840043 1.6,9.428 C1.52799964,8.57199572 1.891996,7.82000324 2.692,7.172 C3.492004,6.52399676 4.55599336,6.2 5.884,6.2 C7.11600616,6.2 8.18799544,6.49599704 9.1,7.088 C10.0120046,7.68000296 10.468,8.4559952 10.468,9.416 C10.468,9.76800176 10.3920008,10.1279982 10.24,10.496 C10.0879992,10.8640018 9.90400108,11.1759987 9.688,11.432 C9.47199892,11.6880013 9.25600108,11.9239989 9.04,12.14 C8.82399892,12.3560011 8.64400072,12.5199994 8.5,12.632 L8.26,12.776 L7.156,13.616 C8.30800576,13.8560012 9.21999664,14.3279965 9.892,15.032 C10.5640034,15.7360035 10.9,16.5519954 10.9,17.48 C10.9,18.5840055 10.4400046,19.5279961 9.52,20.312 C8.5999954,21.0960039 7.46800672,21.488 6.124,21.488 C4.82799352,21.488 3.76400416,21.1760031 2.932,20.552 C2.09999584,19.9279969 1.684,19.3360028 1.684,18.776 C1.684,18.4079982 1.89199792,18.224 2.308,18.224 C2.4680008,18.224 2.6079994,18.2959993 2.728,18.44 C2.8480006,18.5840007 2.98399924,18.7839987 3.136,19.04 C3.28800076,19.2960013 3.43599928,19.4959993 3.58,19.64 C4.17200296,20.2640031 4.95599512,20.576 5.932,20.576 C6.87600472,20.576 7.58399764,20.2920028 8.056,19.724 C8.52800236,19.1559972 8.764,18.4080046 8.764,17.48 C8.764,16.7119962 8.56800196,16.024003 8.176,15.416 C7.78399804,14.807997 7.17200416,14.4160009 6.34,14.24 Z M17.404,15.944 C17.404,16.2800017 17.2680014,16.5719988 16.996,16.82 C16.7239986,17.0680012 16.4040018,17.192 16.036,17.192 C15.6679982,17.192 15.3560013,17.0680012 15.1,16.82 C14.8439987,16.5719988 14.716,16.2800017 14.716,15.944 C14.716,15.5919982 14.8439987,15.2920012 15.1,15.044 C15.3560013,14.7959988 15.6679982,14.672 16.036,14.672 C16.4040018,14.672 16.7239986,14.7959988 16.996,15.044 C17.2680014,15.2920012 17.404,15.5919982 17.404,15.944 Z M26.044,14.24 C25.9319994,14.3360005 25.7920008,14.483999 25.624,14.684 C25.4559992,14.884001 25.3000007,15.0439994 25.156,15.164 C25.0119993,15.2840006 24.8680007,15.344 24.724,15.344 C24.5959994,15.344 24.4800005,15.2920005 24.376,15.188 C24.2719995,15.0839995 24.22,14.9520008 24.22,14.792 C24.22,14.5039986 24.4279979,14.2080015 24.844,13.904 L26.62,12.488 C27.0840023,12.1359982 27.4639985,11.6840028 27.76,11.132 C28.0560015,10.5799972 28.204,10.008003 28.204,9.416 C28.204,8.74399664 27.9640024,8.208002 27.484,7.808 C27.0039976,7.407998 26.3720039,7.208 25.588,7.208 C24.7559958,7.208 24.0600028,7.55999648 23.5,8.264 C22.9399972,8.96800352 22.9479971,9.81599504 23.524,10.808 L22.804,11.552 C21.8759954,10.9919972 21.3760004,10.2840043 21.304,9.428 C21.2319996,8.57199572 21.595996,7.82000324 22.396,7.172 C23.196004,6.52399676 24.2599934,6.2 25.588,6.2 C26.8200062,6.2 27.8919954,6.49599704 28.804,7.088 C29.7160046,7.68000296 30.172,8.4559952 30.172,9.416 C30.172,9.76800176 30.0960008,10.1279982 29.944,10.496 C29.7919992,10.8640018 29.6080011,11.1759987 29.392,11.432 C29.1759989,11.6880013 28.9600011,11.9239989 28.744,12.14 C28.5279989,12.3560011 28.3480007,12.5199994 28.204,12.632 L27.964,12.776 L26.86,13.616 C28.0120058,13.8560012 28.9239966,14.3279965 29.596,15.032 C30.2680034,15.7360035 30.604,16.5519954 30.604,17.48 C30.604,18.5840055 30.1440046,19.5279961 29.224,20.312 C28.3039954,21.0960039 27.1720067,21.488 25.828,21.488 C24.5319935,21.488 23.4680042,21.1760031 22.636,20.552 C21.8039958,19.9279969 21.388,19.3360028 21.388,18.776 C21.388,18.4079982 21.5959979,18.224 22.012,18.224 C22.1720008,18.224 22.3119994,18.2959993 22.432,18.44 C22.5520006,18.5840007 22.6879992,18.7839987 22.84,19.04 C22.9920008,19.2960013 23.1399993,19.4959993 23.284,19.64 C23.876003,20.2640031 24.6599951,20.576 25.636,20.576 C26.5800047,20.576 27.2879976,20.2920028 27.76,19.724 C28.2320024,19.1559972 28.468,18.4080046 28.468,17.48 C28.468,16.7119962 28.272002,16.024003 27.88,15.416 C27.487998,14.807997 26.8760042,14.4160009 26.044,14.24 Z M47.74,3.104 C46.7959953,3.104 46.1840014,3.21999884 45.904,3.452 C45.6239986,3.68400116 45.284002,4.26399536 44.884,5.192 L39.604,17.408 L39.292,17.408 L33.988,5.192 C33.587998,4.26399536 33.2480014,3.68400116 32.968,3.452 C32.6879986,3.21999884 32.0760047,3.104 31.132,3.104 L31.132,2.6 L37.78,2.6 L37.78,3.104 C36.787995,3.104 36.1520014,3.2439986 35.872,3.524 C35.5919986,3.8040014 35.6039985,4.27199672 35.908,4.928 L39.988,14.264 L44.02,4.928 C44.3240015,4.27199672 44.3360014,3.8040014 44.056,3.524 C43.7759986,3.2439986 43.140005,3.104 42.148,3.104 L42.148,2.6 L47.74,2.6 L47.74,3.104 Z" id="3.3V-Copy" fill="#524740"></path>
                <g id="DC_Rail" transform="translate(8.000000, 29.000000)" stroke="#3D3530">
                    <g transform="translate(15.000000, 25.500000) rotate(-90.000000) translate(-15.000000, -25.500000) translate(-10.500000, 10.500000)">
                        <path d="M-5.32907052e-15,15 L50,15" id="Path-2-Copy" stroke-width="3"></path>
                        <path d="M50,-4.26325641e-14 L50,30" id="Path-4" stroke-width="3"></path>
                    </g>
                </g>
            </g>
            <g id="3.3V-Copy-2" transform="translate(302.000000, 0.000000)">
                <path d="M6.34,14.24 C6.22799944,14.3360005 6.08800084,14.483999 5.92,14.684 C5.75199916,14.884001 5.59600072,15.0439994 5.452,15.164 C5.30799928,15.2840006 5.16400072,15.344 5.02,15.344 C4.89199936,15.344 4.77600052,15.2920005 4.672,15.188 C4.56799948,15.0839995 4.516,14.9520008 4.516,14.792 C4.516,14.5039986 4.72399792,14.2080015 5.14,13.904 L6.916,12.488 C7.38000232,12.1359982 7.75999852,11.6840028 8.056,11.132 C8.35200148,10.5799972 8.5,10.008003 8.5,9.416 C8.5,8.74399664 8.2600024,8.208002 7.78,7.808 C7.2999976,7.407998 6.66800392,7.208 5.884,7.208 C5.05199584,7.208 4.3560028,7.55999648 3.796,8.264 C3.2359972,8.96800352 3.24399712,9.81599504 3.82,10.808 L3.1,11.552 C2.17199536,10.9919972 1.67200036,10.2840043 1.6,9.428 C1.52799964,8.57199572 1.891996,7.82000324 2.692,7.172 C3.492004,6.52399676 4.55599336,6.2 5.884,6.2 C7.11600616,6.2 8.18799544,6.49599704 9.1,7.088 C10.0120046,7.68000296 10.468,8.4559952 10.468,9.416 C10.468,9.76800176 10.3920008,10.1279982 10.24,10.496 C10.0879992,10.8640018 9.90400108,11.1759987 9.688,11.432 C9.47199892,11.6880013 9.25600108,11.9239989 9.04,12.14 C8.82399892,12.3560011 8.64400072,12.5199994 8.5,12.632 L8.26,12.776 L7.156,13.616 C8.30800576,13.8560012 9.21999664,14.3279965 9.892,15.032 C10.5640034,15.7360035 10.9,16.5519954 10.9,17.48 C10.9,18.5840055 10.4400046,19.5279961 9.52,20.312 C8.5999954,21.0960039 7.46800672,21.488 6.124,21.488 C4.82799352,21.488 3.76400416,21.1760031 2.932,20.552 C2.09999584,19.9279969 1.684,19.3360028 1.684,18.776 C1.684,18.4079982 1.89199792,18.224 2.308,18.224 C2.4680008,18.224 2.6079994,18.2959993 2.728,18.44 C2.8480006,18.5840007 2.98399924,18.7839987 3.136,19.04 C3.28800076,19.2960013 3.43599928,19.4959993 3.58,19.64 C4.17200296,20.2640031 4.95599512,20.576 5.932,20.576 C6.87600472,20.576 7.58399764,20.2920028 8.056,19.724 C8.52800236,19.1559972 8.764,18.4080046 8.764,17.48 C8.764,16.7119962 8.56800196,16.024003 8.176,15.416 C7.78399804,14.807997 7.17200416,14.4160009 6.34,14.24 Z M17.404,15.944 C17.404,16.2800017 17.2680014,16.5719988 16.996,16.82 C16.7239986,17.0680012 16.4040018,17.192 16.036,17.192 C15.6679982,17.192 15.3560013,17.0680012 15.1,16.82 C14.8439987,16.5719988 14.716,16.2800017 14.716,15.944 C14.716,15.5919982 14.8439987,15.2920012 15.1,15.044 C15.3560013,14.7959988 15.6679982,14.672 16.036,14.672 C16.4040018,14.672 16.7239986,14.7959988 16.996,15.044 C17.2680014,15.2920012 17.404,15.5919982 17.404,15.944 Z M26.044,14.24 C25.9319994,14.3360005 25.7920008,14.483999 25.624,14.684 C25.4559992,14.884001 25.3000007,15.0439994 25.156,15.164 C25.0119993,15.2840006 24.8680007,15.344 24.724,15.344 C24.5959994,15.344 24.4800005,15.2920005 24.376,15.188 C24.2719995,15.0839995 24.22,14.9520008 24.22,14.792 C24.22,14.5039986 24.4279979,14.2080015 24.844,13.904 L26.62,12.488 C27.0840023,12.1359982 27.4639985,11.6840028 27.76,11.132 C28.0560015,10.5799972 28.204,10.008003 28.204,9.416 C28.204,8.74399664 27.9640024,8.208002 27.484,7.808 C27.0039976,7.407998 26.3720039,7.208 25.588,7.208 C24.7559958,7.208 24.0600028,7.55999648 23.5,8.264 C22.9399972,8.96800352 22.9479971,9.81599504 23.524,10.808 L22.804,11.552 C21.8759954,10.9919972 21.3760004,10.2840043 21.304,9.428 C21.2319996,8.57199572 21.595996,7.82000324 22.396,7.172 C23.196004,6.52399676 24.2599934,6.2 25.588,6.2 C26.8200062,6.2 27.8919954,6.49599704 28.804,7.088 C29.7160046,7.68000296 30.172,8.4559952 30.172,9.416 C30.172,9.76800176 30.0960008,10.1279982 29.944,10.496 C29.7919992,10.8640018 29.6080011,11.1759987 29.392,11.432 C29.1759989,11.6880013 28.9600011,11.9239989 28.744,12.14 C28.5279989,12.3560011 28.3480007,12.5199994 28.204,12.632 L27.964,12.776 L26.86,13.616 C28.0120058,13.8560012 28.9239966,14.3279965 29.596,15.032 C30.2680034,15.7360035 30.604,16.5519954 30.604,17.48 C30.604,18.5840055 30.1440046,19.5279961 29.224,20.312 C28.3039954,21.0960039 27.1720067,21.488 25.828,21.488 C24.5319935,21.488 23.4680042,21.1760031 22.636,20.552 C21.8039958,19.9279969 21.388,19.3360028 21.388,18.776 C21.388,18.4079982 21.5959979,18.224 22.012,18.224 C22.1720008,18.224 22.3119994,18.2959993 22.432,18.44 C22.5520006,18.5840007 22.6879992,18.7839987 22.84,19.04 C22.9920008,19.2960013 23.1399993,19.4959993 23.284,19.64 C23.876003,20.2640031 24.6599951,20.576 25.636,20.576 C26.5800047,20.576 27.2879976,20.2920028 27.76,19.724 C28.2320024,19.1559972 28.468,18.4080046 28.468,17.48 C28.468,16.7119962 28.272002,16.024003 27.88,15.416 C27.487998,14.807997 26.8760042,14.4160009 26.044,14.24 Z M47.74,3.104 C46.7959953,3.104 46.1840014,3.21999884 45.904,3.452 C45.6239986,3.68400116 45.284002,4.26399536 44.884,5.192 L39.604,17.408 L39.292,17.408 L33.988,5.192 C33.587998,4.26399536 33.2480014,3.68400116 32.968,3.452 C32.6879986,3.21999884 32.0760047,3.104 31.132,3.104 L31.132,2.6 L37.78,2.6 L37.78,3.104 C36.787995,3.104 36.1520014,3.2439986 35.872,3.524 C35.5919986,3.8040014 35.6039985,4.27199672 35.908,4.928 L39.988,14.264 L44.02,4.928 C44.3240015,4.27199672 44.3360014,3.8040014 44.056,3.524 C43.7759986,3.2439986 43.140005,3.104 42.148,3.104 L42.148,2.6 L47.74,2.6 L47.74,3.104 Z" id="3.3V-Copy" fill="#524740"></path>
                <g id="DC_Rail" transform="translate(8.000000, 29.000000)" stroke="#3D3530">
                    <g transform="translate(15.000000, 25.500000) rotate(-90.000000) translate(-15.000000, -25.500000) translate(-10.500000, 10.500000)">
                        <path d="M-5.32907052e-15,15 L50,15" id="Path-2-Copy" stroke-width="3"></path>
                        <path d="M50,-4.26325641e-14 L50,30" id="Path-4" stroke-width="3"></path>
                    </g>
                </g>
            </g>
            <g id="Schottky_Diode" transform="translate(261.000000, 157.000000) rotate(-180.000000) translate(-261.000000, -157.000000) translate(226.000000, 144.000000)">
                <g>
                    <polygon id="Path-2" fill="#3D3530" points="24.5 0 44 13 24.5 26"></polygon>
                    <path d="M44,13 L70,13" id="Path-2-Copy" stroke="#3D3530" stroke-width="3"></path>
                    <path d="M0,13 L24.5,13" id="Path-3" stroke="#3D3530" stroke-width="3"></path>
                    <polyline id="Path" stroke="#3D3530" stroke-width="3" stroke-linejoin="round" points="49 5 49 1 44 1 44 25 39 25 39 21"></polyline>
                </g>
            </g>
            <g id="Schottky_Diode" transform="translate(261.000000, 217.000000) rotate(-180.000000) translate(-261.000000, -217.000000) translate(226.000000, 204.000000)">
                <g>
                    <polygon id="Path-2" fill="#3D3530" points="24.5 0 44 13 24.5 26"></polygon>
                    <path d="M44,13 L70,13" id="Path-2-Copy" stroke="#3D3530" stroke-width="3"></path>
                    <path d="M0,13 L24.5,13" id="Path-3" stroke="#3D3530" stroke-width="3"></path>
                    <polyline id="Path" stroke="#3D3530" stroke-width="3" stroke-linejoin="round" points="49 5 49 1 44 1 44 25 39 25 39 21"></polyline>
                </g>
            </g>
            <g id="SPDT" transform="translate(161.000000, 157.000000) rotate(-180.000000) translate(-161.000000, -157.000000) translate(126.000000, 132.000000)" stroke="#3D3530">
                <g>
                    <g id="Open_Connection" transform="translate(0.000000, 20.000000)">
                        <g id="Connection">
                            <circle cx="5" cy="5" r="4.5"></circle>
                        </g>
                    </g>
                    <g id="Open_Connection" transform="translate(60.000000, 40.000000)">
                        <g id="Connection">
                            <circle cx="5" cy="5" r="4.5"></circle>
                        </g>
                    </g>
                    <g id="Open_Connection" transform="translate(60.000000, 0.000000)">
                        <g id="Connection">
                            <circle cx="5" cy="5" r="4.5"></circle>
                        </g>
                    </g>
                    <path d="M9.5,23.5 L70,10.5" id="Path" stroke-width="3"></path>
                </g>
            </g>
            <g id="SPDT" transform="translate(161.000000, 217.000000) rotate(-180.000000) translate(-161.000000, -217.000000) translate(126.000000, 192.000000)" stroke="#3D3530">
                <g>
                    <g id="Open_Connection" transform="translate(0.000000, 20.000000)">
                        <g id="Connection">
                            <circle cx="5" cy="5" r="4.5"></circle>
                        </g>
                    </g>
                    <g id="Open_Connection" transform="translate(60.000000, 40.000000)">
                        <g id="Connection">
                            <circle cx="5" cy="5" r="4.5"></circle>
                        </g>
                    </g>
                    <g id="Open_Connection" transform="translate(60.000000, 0.000000)">
                        <g id="Connection">
                            <circle cx="5" cy="5" r="4.5"></circle>
                        </g>
                    </g>
                    <path d="M9.5,23.5 L70,10.5" id="Path" stroke-width="3"></path>
                </g>
            </g>
            <g id="Wiring" transform="translate(33.000000, 108.000000)">
                <path d="M398,79 L430,79" id="Path" stroke="#3D3530" stroke-width="2"></path>
                <path d="M163,49 L193,49" id="Path-3" stroke="#3D3530" stroke-width="2"></path>
                <path d="M65,29 L93.9846149,29" id="Path-4" stroke="#3D3530" stroke-width="2"></path>
                <path d="M163,109 L193,109" id="Path-3-Copy" stroke="#3D3530" stroke-width="2"></path>
                <path d="M258,49 L293,49" id="Path-3-Copy-3" stroke="#3D3530" stroke-width="2"></path>
                <path d="M293,79 L328,79" id="Path-3-Copy-4" stroke="#3D3530" stroke-width="2"></path>
                <path d="M258,109 L293,109" id="Path-3-Copy-2" stroke="#3D3530" stroke-width="2"></path>
                <path d="M65,89 L93.9846149,89" id="Path-4-Copy" stroke="#3D3530" stroke-width="2"></path>
                <path d="M65,90 L65,1.13686838e-13" id="Path-5" stroke="#3D3530" stroke-width="2"></path>
                <path d="M292,108 L292,48" id="Path-5-Copy" stroke="#3D3530" stroke-width="2"></path>
                <polyline id="Path-7" stroke="#3D3530" stroke-width="2" points="93 124 25 124 25 64"></polyline>
                <polyline id="Path-6" stroke="#3D3530" stroke-width="2" points="93 64 25 64 25 95 0 95 0 148"></polyline>
                <g id="Connection" transform="translate(20.000000, 90.000000)" fill="#3D3530">
                    <circle cx="5" cy="5" r="5"></circle>
                </g>
                <g id="Connection" transform="translate(60.000000, 24.000000)" fill="#3D3530">
                    <circle cx="5" cy="5" r="5"></circle>
                </g>
                <g id="Connection" transform="translate(287.000000, 74.000000)" fill="#3D3530">
                    <circle cx="5" cy="5" r="5"></circle>
                </g>
                <path d="M292,48 L292,41" id="Path-8" stroke="#3D3530" stroke-width="2"></path>
            </g>
        </g>
    </g>
</svg>