<?xml version="1.0" encoding="UTF-8"?>
<svg width="900px" height="250px" viewBox="0 0 900 250" version="1.1" xmlns="http://www.w3.org/2000/svg" xmlns:xlink="http://www.w3.org/1999/xlink">
    <!-- Generator: Sketch 52.5 (67469) - http://www.bohemiancoding.com/sketch -->
    <title>Lab_Circuit_Single_LED_w_Ballast_Resistor</title>
    <desc>Created with Sketch.</desc>
    <g id="Lab_Circuit_Single_LED_w_Ballast_Resistor" stroke="none" stroke-width="1" fill="none" fill-rule="evenodd">
        <g id="Illustration_Frame">
            <rect id="Rectangle" stroke="#3D3530" stroke-width="2" fill="#EEEEEE" x="1" y="1" width="898" height="248"></rect>
            <rect id="Rectangle-Copy" stroke="#3D3530" stroke-width="2" fill="#F8FAE4" x="1" y="206" width="898" height="43"></rect>
            <path d="M403.426665,220.456 L394.426665,220.456 L394.426665,226 L399.490665,226 L399.490665,227.584 L394.426665,227.584 L394.426665,233.416 L403.426665,233.416 L403.426665,235 L392.842665,235 L392.842665,218.872 L403.426665,218.872 L403.426665,220.456 Z M415.925332,235 L414.125332,235 L410.765332,230.224 L407.381332,235 L405.605332,235 L409.877332,228.952 L405.677332,223 L407.453332,223 L410.765332,227.68 L414.053332,223 L415.853332,223 L411.653332,228.952 L415.925332,235 Z M423.695999,233.608 C424.768004,233.608 425.727994,233.304003 426.575999,232.696 C427.424003,232.087997 427.999997,231.376004 428.303999,230.56 L429.647999,231.04 C429.279997,232.048005 428.564004,232.975996 427.499999,233.824 C426.435993,234.672004 425.168006,235.088 423.695999,235.072 C422.351992,235.072 421.124004,234.656004 420.011999,233.824 C418.899993,232.991996 418.144001,231.928006 417.743999,230.632 C417.583998,230.103997 417.503999,229.528003 417.503999,228.904 C417.503999,227.175991 418.103993,225.712006 419.303999,224.512 C420.504005,223.311994 421.96799,222.704 423.695999,222.688 C425.264006,222.704 426.631993,223.231995 427.799999,224.272 C428.968004,225.312005 429.639998,226.599992 429.815999,228.136 C429.831999,228.216 429.839999,228.319999 429.839999,228.448 L419.351999,230.344 C419.624,231.304005 420.167995,232.091997 420.983999,232.708 C421.800003,233.324003 422.703994,233.624 423.695999,233.608 Z M423.551999,224.152 C422.351993,224.168 421.324003,224.599996 420.467999,225.448 C419.611994,226.296004 419.151999,227.311994 419.087999,228.496 C419.087999,228.544 419.091999,228.627999 419.099999,228.748 C419.107999,228.868001 419.111999,228.968 419.111999,229.048 L428.039999,227.44 C427.735997,226.463995 427.168003,225.668003 426.335999,225.052 C425.503994,224.435997 424.576004,224.136 423.551999,224.152 Z M438.186665,222.808 C439.03467,222.808 439.810662,223.015998 440.514665,223.432 L439.962665,225.016 C439.290662,224.519998 438.610669,224.272 437.922665,224.272 C436.91466,224.272 436.066669,224.627996 435.378665,225.34 C434.690662,226.052004 434.346665,226.927995 434.346665,227.968 L434.346665,235 L432.762665,235 L432.762665,223 L434.346665,223 L434.346665,224.776 C435.32267,223.463993 436.602657,222.808 438.186665,222.808 Z M447.829332,235.192 C446.117323,235.192 444.657338,234.588006 443.449332,233.38 C442.241326,232.171994 441.637332,230.712009 441.637332,229 C441.637332,227.287991 442.241326,225.828006 443.449332,224.62 C444.657338,223.411994 446.117323,222.808 447.829332,222.808 C448.917337,222.808 449.929327,223.075997 450.865332,223.612 C451.801337,224.148003 452.541329,224.863996 453.085332,225.76 L451.645332,226.456 C451.21333,225.799997 450.661335,225.280002 449.989332,224.896 C449.317329,224.511998 448.597336,224.32 447.829332,224.32 C446.533326,224.32 445.441336,224.771995 444.553332,225.676 C443.665328,226.580005 443.221332,227.687993 443.221332,229 C443.221332,230.312007 443.665328,231.419995 444.553332,232.324 C445.441336,233.228005 446.533326,233.68 447.829332,233.68 C448.597336,233.68 449.317329,233.488002 449.989332,233.104 C450.661335,232.719998 451.21333,232.200003 451.645332,231.544 L453.085332,232.24 C452.541329,233.136004 451.801337,233.851997 450.865332,234.388 C449.929327,234.924003 448.917337,235.192 447.829332,235.192 Z M458.263999,219.4 C458.087998,219.592001 457.864,219.688 457.591999,219.688 C457.319997,219.688 457.092,219.592001 456.907999,219.4 C456.723998,219.207999 456.631999,218.984001 456.631999,218.728 C456.631999,218.471999 456.723998,218.248001 456.907999,218.056 C457.092,217.863999 457.319997,217.768 457.591999,217.768 C457.864,217.768 458.091998,217.863999 458.275999,218.056 C458.46,218.248001 458.551999,218.471999 458.551999,218.728 C458.551999,218.984001 458.456,219.207999 458.263999,219.4 Z M456.799999,235 L456.799999,223 L458.383999,223 L458.383999,235 L456.799999,235 Z M466.658665,235.192 C466.114663,235.192 465.586668,235.124001 465.074665,234.988 C464.562663,234.851999 464.134667,234.692001 463.790665,234.508 C463.446664,234.323999 463.138667,234.136001 462.866665,233.944 C462.594664,233.751999 462.394666,233.592001 462.266665,233.464 L462.074665,233.248 L463.202665,232.288 C463.314666,232.400001 463.470664,232.535999 463.670665,232.696 C463.870666,232.856001 464.274662,233.071999 464.882665,233.344 C465.490668,233.616001 466.090662,233.752 466.682665,233.752 C467.56267,233.752 468.266663,233.584002 468.794665,233.248 C469.322668,232.911998 469.586665,232.440003 469.586665,231.832 C469.586665,231.399998 469.322668,231.028002 468.794665,230.716 C468.266663,230.403998 467.626669,230.136001 466.874665,229.912 C466.122662,229.687999 465.366669,229.440001 464.606665,229.168 C463.846662,228.895999 463.202668,228.512002 462.674665,228.016 C462.146663,227.519998 461.882665,226.912004 461.882665,226.192 C461.882665,225.199995 462.254662,224.388003 462.998665,223.756 C463.742669,223.123997 464.842658,222.808 466.298665,222.808 C467.16267,222.808 467.978662,222.967998 468.746665,223.288 C469.514669,223.608002 470.066664,223.927998 470.402665,224.248 L470.906665,224.728 L469.778665,225.712 C469.666665,225.599999 469.510666,225.464001 469.310665,225.304 C469.110664,225.143999 468.706668,224.928001 468.098665,224.656 C467.490662,224.383999 466.882668,224.248 466.274665,224.248 C465.410661,224.248 464.710668,224.415998 464.174665,224.752 C463.638663,225.088002 463.370665,225.559997 463.370665,226.168 C463.370665,226.600002 463.634663,226.971998 464.162665,227.284 C464.690668,227.596002 465.330662,227.863999 466.082665,228.088 C466.834669,228.312001 467.590662,228.555999 468.350665,228.82 C469.110669,229.084001 469.754663,229.467997 470.282665,229.972 C470.810668,230.476003 471.074665,231.087996 471.074665,231.808 C471.074665,232.816005 470.706669,233.631997 469.970665,234.256 C469.234662,234.880003 468.130673,235.192 466.658665,235.192 Z M479.637332,233.608 C480.709337,233.608 481.669328,233.304003 482.517332,232.696 C483.365336,232.087997 483.941331,231.376004 484.245332,230.56 L485.589332,231.04 C485.22133,232.048005 484.505337,232.975996 483.441332,233.824 C482.377327,234.672004 481.109339,235.088 479.637332,235.072 C478.293325,235.072 477.065338,234.656004 475.953332,233.824 C474.841327,232.991996 474.085334,231.928006 473.685332,230.632 C473.525331,230.103997 473.445332,229.528003 473.445332,228.904 C473.445332,227.175991 474.045326,225.712006 475.245332,224.512 C476.445338,223.311994 477.909323,222.704 479.637332,222.688 C481.20534,222.704 482.573326,223.231995 483.741332,224.272 C484.909338,225.312005 485.581331,226.599992 485.757332,228.136 C485.773332,228.216 485.781332,228.319999 485.781332,228.448 L475.293332,230.344 C475.565333,231.304005 476.109328,232.091997 476.925332,232.708 C477.741336,233.324003 478.645327,233.624 479.637332,233.608 Z M479.493332,224.152 C478.293326,224.168 477.265336,224.599996 476.409332,225.448 C475.553328,226.296004 475.093332,227.311994 475.029332,228.496 C475.029332,228.544 475.033332,228.627999 475.041332,228.748 C475.049332,228.868001 475.053332,228.968 475.053332,229.048 L483.981332,227.44 C483.677331,226.463995 483.109336,225.668003 482.277332,225.052 C481.445328,224.435997 480.517337,224.136 479.493332,224.152 Z M498.730665,218.872 L500.314665,218.872 L500.314665,235 L498.730665,235 L498.730665,220.696 L496.570665,222.16 L495.802665,220.72 L498.730665,218.872 Z M504.485332,226.768 L504.485332,222.688 L506.141332,222.688 L506.141332,226.768 L504.485332,226.768 Z M504.485332,235 L504.485332,230.752 L506.141332,230.752 L506.141332,235 L504.485332,235 Z M522.306666,235.192 C521.23466,235.192 520.198671,234.920003 519.198666,234.376 C518.198661,233.831997 517.442668,233.288003 516.930666,232.744 L518.034666,231.664 C518.434668,232.096002 519.026662,232.539998 519.810666,232.996 C520.59467,233.452002 521.426661,233.68 522.306666,233.68 C523.378671,233.68 524.222663,233.444002 524.838666,232.972 C525.454669,232.499998 525.762666,231.856004 525.762666,231.04 C525.762666,230.351997 525.462669,229.752003 524.862666,229.24 C524.262663,228.727997 523.53467,228.296002 522.678666,227.944 C521.822661,227.591998 520.96267,227.220002 520.098666,226.828 C519.234661,226.435998 518.502669,225.904003 517.902666,225.232 C517.302663,224.559997 517.002666,223.768005 517.002666,222.856 C517.002666,221.687994 517.442661,220.704004 518.322666,219.904 C519.20267,219.103996 520.434658,218.704 522.018666,218.704 C523.090671,218.704 524.126661,218.975997 525.126666,219.52 C526.126671,220.064003 526.882663,220.607997 527.394666,221.152 L526.290666,222.232 C525.874664,221.783998 525.27467,221.336002 524.490666,220.888 C523.706662,220.439998 522.88267,220.216 522.018666,220.216 C520.94666,220.216 520.102669,220.451998 519.486666,220.924 C518.870663,221.396002 518.562666,222.039996 518.562666,222.856 C518.562666,223.544003 518.862663,224.147997 519.462666,224.668 C520.062669,225.188003 520.790661,225.623998 521.646666,225.976 C522.50267,226.328002 523.362661,226.695998 524.226666,227.08 C525.09067,227.464002 525.822663,227.991997 526.422666,228.664 C527.022669,229.336003 527.322666,230.127995 527.322666,231.04 C527.322666,232.208006 526.88267,233.191996 526.002666,233.992 C525.122661,234.792004 523.890674,235.192 522.306666,235.192 Z M532.645332,219.4 C532.469331,219.592001 532.245334,219.688 531.973332,219.688 C531.701331,219.688 531.473333,219.592001 531.289332,219.4 C531.105331,219.207999 531.013332,218.984001 531.013332,218.728 C531.013332,218.471999 531.105331,218.248001 531.289332,218.056 C531.473333,217.863999 531.701331,217.768 531.973332,217.768 C532.245334,217.768 532.473331,217.863999 532.657332,218.056 C532.841333,218.248001 532.933332,218.471999 532.933332,218.728 C532.933332,218.984001 532.837333,219.207999 532.645332,219.4 Z M531.181332,235 L531.181332,223 L532.765332,223 L532.765332,235 L531.181332,235 Z M542.527999,222.808 C543.920006,222.808 545.087994,223.299995 546.031999,224.284 C546.976004,225.268005 547.447999,226.479993 547.447999,227.92 L547.447999,235 L545.839999,235 L545.839999,227.968 C545.839999,226.943995 545.492002,226.072004 544.795999,225.352 C544.099996,224.631996 543.256004,224.272 542.263999,224.272 C541.271994,224.272 540.428002,224.631996 539.731999,225.352 C539.035996,226.072004 538.687999,226.943995 538.687999,227.968 L538.687999,235 L537.103999,235 L537.103999,223 L538.687999,223 L538.687999,224.776 C539.664004,223.463993 540.943991,222.808 542.527999,222.808 Z M561.386666,223.024 L562.994666,223.024 L562.994666,233.968 C562.978666,235.712009 562.350672,237.171994 561.110666,238.348 C559.870659,239.524006 558.434674,240.112 556.802666,240.112 C555.314658,240.112 554.046671,239.716004 552.998666,238.924 C551.95066,238.131996 551.242668,237.240005 550.874666,236.248 L552.170666,235.6 C552.474667,236.416004 553.050661,237.127997 553.898666,237.736 C554.74667,238.344003 555.71466,238.648 556.802666,238.648 C558.082672,238.648 559.166661,238.180005 560.054666,237.244 C560.94267,236.307995 561.394666,235.216006 561.410666,233.968 L561.386666,233.968 L561.386666,233.08 C560.17066,234.504007 558.610675,235.216 556.706666,235.216 C554.994657,235.216 553.534672,234.612006 552.326666,233.404 C551.11866,232.195994 550.514666,230.736009 550.514666,229.024 C550.514666,227.311991 551.11866,225.852006 552.326666,224.644 C553.534672,223.435994 554.994657,222.832 556.706666,222.832 C558.594675,222.832 560.15466,223.543993 561.386666,224.968 L561.386666,223.024 Z M556.730666,233.728 C558.026672,233.728 559.118661,233.276005 560.006666,232.372 C560.89467,231.467995 561.338666,230.360007 561.338666,229.048 C561.338666,227.735993 560.89467,226.628005 560.006666,225.724 C559.118661,224.819995 558.026672,224.368 556.730666,224.368 C555.450659,224.368 554.36267,224.819995 553.466666,225.724 C552.570661,226.628005 552.122666,227.735993 552.122666,229.048 C552.122666,230.360007 552.570661,231.467995 553.466666,232.372 C554.36267,233.276005 555.450659,233.728 556.730666,233.728 Z M567.165332,235 L567.165332,217.144 L568.749332,217.144 L568.749332,235 L567.165332,235 Z M578.175999,233.608 C579.248004,233.608 580.207995,233.304003 581.055999,232.696 C581.904003,232.087997 582.479998,231.376004 582.783999,230.56 L584.127999,231.04 C583.759997,232.048005 583.044004,232.975996 581.979999,233.824 C580.915994,234.672004 579.648006,235.088 578.175999,235.072 C576.831992,235.072 575.604005,234.656004 574.491999,233.824 C573.379994,232.991996 572.624001,231.928006 572.223999,230.632 C572.063998,230.103997 571.983999,229.528003 571.983999,228.904 C571.983999,227.175991 572.583993,225.712006 573.783999,224.512 C574.984005,223.311994 576.44799,222.704 578.175999,222.688 C579.744007,222.704 581.111993,223.231995 582.279999,224.272 C583.448005,225.312005 584.119998,226.599992 584.295999,228.136 C584.311999,228.216 584.319999,228.319999 584.319999,228.448 L573.831999,230.344 C574.104,231.304005 574.647995,232.091997 575.463999,232.708 C576.280003,233.324003 577.183994,233.624 578.175999,233.608 Z M578.031999,224.152 C576.831993,224.168 575.804003,224.599996 574.947999,225.448 C574.091995,226.296004 573.631999,227.311994 573.567999,228.496 C573.567999,228.544 573.571999,228.627999 573.579999,228.748 C573.587999,228.868001 573.591999,228.968 573.591999,229.048 L582.519999,227.44 C582.215998,226.463995 581.648003,225.668003 580.815999,225.052 C579.983995,224.435997 579.056004,224.136 578.031999,224.152 Z M596.645332,233.416 L603.989332,233.416 L603.989332,235 L595.061332,235 L595.061332,218.872 L596.645332,218.872 L596.645332,233.416 Z M617.207999,220.456 L608.207999,220.456 L608.207999,226 L613.271999,226 L613.271999,227.584 L608.207999,227.584 L608.207999,233.416 L617.207999,233.416 L617.207999,235 L606.623999,235 L606.623999,218.872 L617.207999,218.872 L617.207999,220.456 Z M621.042666,235 L621.042666,218.872 L624.690666,218.872 C627.346679,218.872 629.458658,219.639992 631.026666,221.176 C632.594674,222.712008 633.378666,224.631988 633.378666,226.936 C633.378666,229.224011 632.590674,231.139992 631.014666,232.684 C629.438658,234.228008 627.330679,235 624.690666,235 L621.042666,235 Z M622.626666,233.488 L624.690666,233.488 C626.802676,233.488 628.49066,232.868006 629.754666,231.628 C631.018672,230.387994 631.650666,228.824009 631.650666,226.936 C631.650666,225.047991 631.018672,223.484006 629.754666,222.244 C628.49066,221.003994 626.802676,220.384 624.690666,220.384 L622.626666,220.384 L622.626666,233.488 Z M659.935999,223 L661.519999,223 L657.271999,235 L655.687999,235 L652.303999,225.112 L648.919999,235 L647.335999,235 L643.111999,223 L644.695999,223 L648.127999,232.768 L651.583999,223 L653.023999,223 L656.479999,232.768 L659.935999,223 Z M665.978666,219.4 C665.802665,219.592001 665.578667,219.688 665.306666,219.688 C665.034665,219.688 664.806667,219.592001 664.622666,219.4 C664.438665,219.207999 664.346666,218.984001 664.346666,218.728 C664.346666,218.471999 664.438665,218.248001 664.622666,218.056 C664.806667,217.863999 665.034665,217.768 665.306666,217.768 C665.578667,217.768 665.806665,217.863999 665.990666,218.056 C666.174667,218.248001 666.266666,218.471999 666.266666,218.728 C666.266666,218.984001 666.170667,219.207999 665.978666,219.4 Z M664.514666,235 L664.514666,223 L666.098666,223 L666.098666,235 L664.514666,235 Z M676.581333,232.312 L677.373333,233.536 C677.277332,233.664001 677.149333,233.815999 676.989333,233.992 C676.829332,234.168001 676.469335,234.411998 675.909333,234.724 C675.34933,235.036002 674.773336,235.192 674.181333,235.192 C673.173328,235.192 672.329336,234.892003 671.649333,234.292 C670.969329,233.691997 670.629333,232.824006 670.629333,231.688 L670.629333,224.44 L668.709333,224.44 L668.709333,222.976 L670.629333,222.976 L670.629333,219.184 L672.213333,218.992 L672.213333,222.976 L675.837333,222.976 L675.837333,224.44 L672.213333,224.44 L672.213333,231.328 C672.213333,232.064004 672.44133,232.647998 672.897333,233.08 C673.353335,233.512002 673.87733,233.728 674.469333,233.728 C674.837335,233.728 675.197331,233.616001 675.549333,233.392 C675.901334,233.167999 676.161332,232.948001 676.329333,232.732 C676.497334,232.515999 676.581333,232.376 676.581333,232.312 Z M685.383999,222.808 C686.776006,222.808 687.943995,223.307995 688.887999,224.308 C689.832004,225.308005 690.303999,226.527993 690.303999,227.968 L690.303999,235 L688.695999,235 L688.695999,227.992 C688.695999,226.951995 688.352003,226.076004 687.663999,225.364 C686.975996,224.651996 686.128004,224.296 685.119999,224.296 C684.127994,224.296 683.284003,224.651996 682.587999,225.364 C681.891996,226.076004 681.543999,226.943995 681.543999,227.968 L681.543999,235 L679.959999,235 L679.959999,217.144 L681.543999,217.144 L681.543999,224.776 C682.520004,223.463993 683.799991,222.808 685.383999,222.808 Z M701.453333,235 L701.453333,218.872 L706.925333,218.872 C708.733342,218.872 710.173327,219.295996 711.245333,220.144 C712.317338,220.992004 712.853333,222.047994 712.853333,223.312 C712.853333,224.096004 712.617335,224.807997 712.145333,225.448 C711.67333,226.088003 711.013337,226.583998 710.165333,226.936 C711.013337,227.288002 711.67333,227.783997 712.145333,228.424 C712.617335,229.064003 712.853333,229.783996 712.853333,230.584 C712.853333,231.848006 712.317338,232.899996 711.245333,233.74 C710.173327,234.580004 708.733342,235 706.925333,235 L701.453333,235 Z M703.037333,226.264 L706.925333,226.264 C708.221339,226.264 709.261329,225.984003 710.045333,225.424 C710.829337,224.863997 711.221333,224.168004 711.221333,223.336 C711.221333,222.487996 710.829337,221.784003 710.045333,221.224 C709.261329,220.663997 708.221339,220.384 706.925333,220.384 L703.037333,220.384 L703.037333,226.264 Z M703.037333,233.488 L706.925333,233.488 C708.221339,233.488 709.261329,233.208003 710.045333,232.648 C710.829337,232.087997 711.221333,231.384004 711.221333,230.536 C711.221333,229.703996 710.829337,229.008003 710.045333,228.448 C709.261329,227.887997 708.221339,227.608 706.925333,227.608 L703.037333,227.608 L703.037333,233.488 Z M726.527999,223 L728.111999,223 L728.111999,235 L726.527999,235 L726.527999,233.056 C725.295993,234.480007 723.736009,235.192 721.847999,235.192 C720.135991,235.192 718.676006,234.588006 717.467999,233.38 C716.259993,232.171994 715.655999,230.712009 715.655999,229 C715.655999,227.287991 716.259993,225.828006 717.467999,224.62 C718.676006,223.411994 720.135991,222.808 721.847999,222.808 C723.752009,222.808 725.311993,223.519993 726.527999,224.944 L726.527999,223 Z M721.871999,233.68 C723.168006,233.68 724.259995,233.228005 725.147999,232.324 C726.036004,231.419995 726.479999,230.312007 726.479999,229 C726.479999,227.687993 726.036004,226.580005 725.147999,225.676 C724.259995,224.771995 723.168006,224.32 721.871999,224.32 C720.591993,224.32 719.500004,224.771995 718.595999,225.676 C717.691995,226.580005 717.239999,227.687993 717.239999,229 C717.239999,230.312007 717.691995,231.419995 718.595999,232.324 C719.500004,233.228005 720.591993,233.68 721.871999,233.68 Z M732.162666,235 L732.162666,217.144 L733.746666,217.144 L733.746666,235 L732.162666,235 Z M737.749333,235 L737.749333,217.144 L739.333333,217.144 L739.333333,235 L737.749333,235 Z M753.44,223 L755.024,223 L755.024,235 L753.44,235 L753.44,233.056 C752.207993,234.480007 750.648009,235.192 748.76,235.192 C747.047991,235.192 745.588006,234.588006 744.38,233.38 C743.171994,232.171994 742.568,230.712009 742.568,229 C742.568,227.287991 743.171994,225.828006 744.38,224.62 C745.588006,223.411994 747.047991,222.808 748.76,222.808 C750.664009,222.808 752.223994,223.519993 753.44,224.944 L753.44,223 Z M748.784,233.68 C750.080006,233.68 751.171995,233.228005 752.06,232.324 C752.948004,231.419995 753.392,230.312007 753.392,229 C753.392,227.687993 752.948004,226.580005 752.06,225.676 C751.171995,224.771995 750.080006,224.32 748.784,224.32 C747.503993,224.32 746.412004,224.771995 745.508,225.676 C744.603995,226.580005 744.152,227.687993 744.152,229 C744.152,230.312007 744.603995,231.419995 745.508,232.324 C746.412004,233.228005 747.503993,233.68 748.784,233.68 Z M763.130666,235.192 C762.586664,235.192 762.058669,235.124001 761.546666,234.988 C761.034664,234.851999 760.606668,234.692001 760.262666,234.508 C759.918665,234.323999 759.610668,234.136001 759.338666,233.944 C759.066665,233.751999 758.866667,233.592001 758.738666,233.464 L758.546666,233.248 L759.674666,232.288 C759.786667,232.400001 759.942665,232.535999 760.142666,232.696 C760.342667,232.856001 760.746663,233.071999 761.354666,233.344 C761.962669,233.616001 762.562663,233.752 763.154666,233.752 C764.034671,233.752 764.738664,233.584002 765.266666,233.248 C765.794669,232.911998 766.058666,232.440003 766.058666,231.832 C766.058666,231.399998 765.794669,231.028002 765.266666,230.716 C764.738664,230.403998 764.09867,230.136001 763.346666,229.912 C762.594663,229.687999 761.83867,229.440001 761.078666,229.168 C760.318662,228.895999 759.674669,228.512002 759.146666,228.016 C758.618664,227.519998 758.354666,226.912004 758.354666,226.192 C758.354666,225.199995 758.726663,224.388003 759.470666,223.756 C760.21467,223.123997 761.314659,222.808 762.770666,222.808 C763.634671,222.808 764.450662,222.967998 765.218666,223.288 C765.98667,223.608002 766.538665,223.927998 766.874666,224.248 L767.378666,224.728 L766.250666,225.712 C766.138666,225.599999 765.982667,225.464001 765.782666,225.304 C765.582665,225.143999 765.178669,224.928001 764.570666,224.656 C763.962663,224.383999 763.354669,224.248 762.746666,224.248 C761.882662,224.248 761.182669,224.415998 760.646666,224.752 C760.110664,225.088002 759.842666,225.559997 759.842666,226.168 C759.842666,226.600002 760.106664,226.971998 760.634666,227.284 C761.162669,227.596002 761.802663,227.863999 762.554666,228.088 C763.30667,228.312001 764.062662,228.555999 764.822666,228.82 C765.58267,229.084001 766.226664,229.467997 766.754666,229.972 C767.282669,230.476003 767.546666,231.087996 767.546666,231.808 C767.546666,232.816005 767.17867,233.631997 766.442666,234.256 C765.706663,234.880003 764.602674,235.192 763.130666,235.192 Z M777.213333,232.312 L778.005333,233.536 C777.909333,233.664001 777.781334,233.815999 777.621333,233.992 C777.461332,234.168001 777.101336,234.411998 776.541333,234.724 C775.98133,235.036002 775.405336,235.192 774.813333,235.192 C773.805328,235.192 772.961336,234.892003 772.281333,234.292 C771.60133,233.691997 771.261333,232.824006 771.261333,231.688 L771.261333,224.44 L769.341333,224.44 L769.341333,222.976 L771.261333,222.976 L771.261333,219.184 L772.845333,218.992 L772.845333,222.976 L776.469333,222.976 L776.469333,224.44 L772.845333,224.44 L772.845333,231.328 C772.845333,232.064004 773.073331,232.647998 773.529333,233.08 C773.985335,233.512002 774.50933,233.728 775.101333,233.728 C775.469335,233.728 775.829331,233.616001 776.181333,233.392 C776.533335,233.167999 776.793332,232.948001 776.961333,232.732 C777.129334,232.515999 777.213333,232.376 777.213333,232.312 Z M788.482666,235 L788.482666,218.872 L793.954666,218.872 C795.762675,218.872 797.202661,219.347995 798.274666,220.3 C799.346672,221.252005 799.882666,222.447993 799.882666,223.888 C799.882666,224.960005 799.56667,225.911996 798.934666,226.744 C798.302663,227.576004 797.418672,228.167998 796.282666,228.52 L799.882666,235 L798.226666,235 L794.794666,228.856 L793.810666,228.904 L790.066666,228.904 L790.066666,235 L788.482666,235 Z M790.066666,227.392 L793.954666,227.392 C795.250673,227.392 796.290662,227.060003 797.074666,226.396 C797.85867,225.731997 798.250666,224.896005 798.250666,223.888 C798.250666,222.895995 797.85867,222.064003 797.074666,221.392 C796.290662,220.719997 795.250673,220.384 793.954666,220.384 L790.066666,220.384 L790.066666,227.392 Z M808.325333,233.608 C809.397338,233.608 810.357329,233.304003 811.205333,232.696 C812.053337,232.087997 812.629332,231.376004 812.933333,230.56 L814.277333,231.04 C813.909331,232.048005 813.193338,232.975996 812.129333,233.824 C811.065328,234.672004 809.79734,235.088 808.325333,235.072 C806.981326,235.072 805.753339,234.656004 804.641333,233.824 C803.529328,232.991996 802.773335,231.928006 802.373333,230.632 C802.213332,230.103997 802.133333,229.528003 802.133333,228.904 C802.133333,227.175991 802.733327,225.712006 803.933333,224.512 C805.133339,223.311994 806.597324,222.704 808.325333,222.688 C809.893341,222.704 811.261327,223.231995 812.429333,224.272 C813.597339,225.312005 814.269332,226.599992 814.445333,228.136 C814.461333,228.216 814.469333,228.319999 814.469333,228.448 L803.981333,230.344 C804.253334,231.304005 804.797329,232.091997 805.613333,232.708 C806.429337,233.324003 807.333328,233.624 808.325333,233.608 Z M808.181333,224.152 C806.981327,224.168 805.953337,224.599996 805.097333,225.448 C804.241329,226.296004 803.781333,227.311994 803.717333,228.496 C803.717333,228.544 803.721333,228.627999 803.729333,228.748 C803.737333,228.868001 803.741333,228.968 803.741333,229.048 L812.669333,227.44 C812.365332,226.463995 811.797337,225.668003 810.965333,225.052 C810.133329,224.435997 809.205338,224.136 808.181333,224.152 Z M821.592,235.192 C821.047997,235.192 820.520002,235.124001 820.008,234.988 C819.495997,234.851999 819.068002,234.692001 818.724,234.508 C818.379998,234.323999 818.072001,234.136001 817.8,233.944 C817.527998,233.751999 817.328,233.592001 817.2,233.464 L817.008,233.248 L818.136,232.288 C818.248,232.400001 818.403999,232.535999 818.604,232.696 C818.804001,232.856001 819.207997,233.071999 819.816,233.344 C820.424003,233.616001 821.023997,233.752 821.616,233.752 C822.496004,233.752 823.199997,233.584002 823.728,233.248 C824.256002,232.911998 824.52,232.440003 824.52,231.832 C824.52,231.399998 824.256002,231.028002 823.728,230.716 C823.199997,230.403998 822.560004,230.136001 821.808,229.912 C821.055996,229.687999 820.300004,229.440001 819.54,229.168 C818.779996,228.895999 818.136002,228.512002 817.608,228.016 C817.079997,227.519998 816.816,226.912004 816.816,226.192 C816.816,225.199995 817.187996,224.388003 817.932,223.756 C818.676004,223.123997 819.775993,222.808 821.232,222.808 C822.096004,222.808 822.911996,222.967998 823.68,223.288 C824.448004,223.608002 824.999998,223.927998 825.336,224.248 L825.84,224.728 L824.712,225.712 C824.599999,225.599999 824.444001,225.464001 824.244,225.304 C824.043999,225.143999 823.640003,224.928001 823.032,224.656 C822.423997,224.383999 821.816003,224.248 821.208,224.248 C820.343995,224.248 819.644002,224.415998 819.108,224.752 C818.571997,225.088002 818.304,225.559997 818.304,226.168 C818.304,226.600002 818.567997,226.971998 819.096,227.284 C819.624002,227.596002 820.263996,227.863999 821.016,228.088 C821.768004,228.312001 822.523996,228.555999 823.284,228.82 C824.044004,229.084001 824.687997,229.467997 825.216,229.972 C825.744002,230.476003 826.008,231.087996 826.008,231.808 C826.008,232.816005 825.640003,233.631997 824.904,234.256 C824.167996,234.880003 823.064007,235.192 821.592,235.192 Z M831.042666,219.4 C830.866666,219.592001 830.642668,219.688 830.370666,219.688 C830.098665,219.688 829.870667,219.592001 829.686667,219.4 C829.502666,219.207999 829.410666,218.984001 829.410666,218.728 C829.410666,218.471999 829.502666,218.248001 829.686667,218.056 C829.870667,217.863999 830.098665,217.768 830.370666,217.768 C830.642668,217.768 830.870666,217.863999 831.054666,218.056 C831.238667,218.248001 831.330667,218.471999 831.330667,218.728 C831.330667,218.984001 831.234667,219.207999 831.042666,219.4 Z M829.578667,235 L829.578667,223 L831.162667,223 L831.162667,235 L829.578667,235 Z M839.437333,235.192 C838.89333,235.192 838.365336,235.124001 837.853333,234.988 C837.341331,234.851999 836.913335,234.692001 836.569333,234.508 C836.225331,234.323999 835.917335,234.136001 835.645333,233.944 C835.373332,233.751999 835.173334,233.592001 835.045333,233.464 L834.853333,233.248 L835.981333,232.288 C836.093334,232.400001 836.249332,232.535999 836.449333,232.696 C836.649334,232.856001 837.05333,233.071999 837.661333,233.344 C838.269336,233.616001 838.86933,233.752 839.461333,233.752 C840.341338,233.752 841.045331,233.584002 841.573333,233.248 C842.101336,232.911998 842.365333,232.440003 842.365333,231.832 C842.365333,231.399998 842.101336,231.028002 841.573333,230.716 C841.045331,230.403998 840.405337,230.136001 839.653333,229.912 C838.901329,229.687999 838.145337,229.440001 837.385333,229.168 C836.625329,228.895999 835.981336,228.512002 835.453333,228.016 C834.925331,227.519998 834.661333,226.912004 834.661333,226.192 C834.661333,225.199995 835.033329,224.388003 835.777333,223.756 C836.521337,223.123997 837.621326,222.808 839.077333,222.808 C839.941338,222.808 840.757329,222.967998 841.525333,223.288 C842.293337,223.608002 842.845332,223.927998 843.181333,224.248 L843.685333,224.728 L842.557333,225.712 C842.445333,225.599999 842.289334,225.464001 842.089333,225.304 C841.889332,225.143999 841.485336,224.928001 840.877333,224.656 C840.26933,224.383999 839.661336,224.248 839.053333,224.248 C838.189329,224.248 837.489336,224.415998 836.953333,224.752 C836.417331,225.088002 836.149333,225.559997 836.149333,226.168 C836.149333,226.600002 836.413331,226.971998 836.941333,227.284 C837.469336,227.596002 838.109329,227.863999 838.861333,228.088 C839.613337,228.312001 840.369329,228.555999 841.129333,228.82 C841.889337,229.084001 842.533331,229.467997 843.061333,229.972 C843.589336,230.476003 843.853333,231.087996 843.853333,231.808 C843.853333,232.816005 843.485337,233.631997 842.749333,234.256 C842.01333,234.880003 840.909341,235.192 839.437333,235.192 Z M853.52,232.312 L854.312,233.536 C854.215999,233.664001 854.088001,233.815999 853.928,233.992 C853.767999,234.168001 853.408003,234.411998 852.848,234.724 C852.287997,235.036002 851.712003,235.192 851.12,235.192 C850.111995,235.192 849.268003,234.892003 848.588,234.292 C847.907996,233.691997 847.568,232.824006 847.568,231.688 L847.568,224.44 L845.648,224.44 L845.648,222.976 L847.568,222.976 L847.568,219.184 L849.152,218.992 L849.152,222.976 L852.776,222.976 L852.776,224.44 L849.152,224.44 L849.152,231.328 C849.152,232.064004 849.379998,232.647998 849.836,233.08 C850.292002,233.512002 850.815997,233.728 851.408,233.728 C851.776002,233.728 852.135998,233.616001 852.488,233.392 C852.840002,233.167999 853.099999,232.948001 853.268,232.732 C853.436001,232.515999 853.52,232.376 853.52,232.312 Z M866.330667,233.368 C865.130661,234.584006 863.674675,235.192 861.962667,235.192 C860.250658,235.192 858.790673,234.588006 857.582667,233.38 C856.374661,232.171994 855.770667,230.712009 855.770667,229 C855.770667,227.287991 856.374661,225.828006 857.582667,224.62 C858.790673,223.411994 860.250658,222.808 861.962667,222.808 C863.674675,222.808 865.134661,223.411994 866.342667,224.62 C867.550673,225.828006 868.154667,227.287991 868.154667,229 C868.154667,230.696008 867.546673,232.151994 866.330667,233.368 Z M861.986667,233.68 C863.282673,233.68 864.374662,233.228005 865.262667,232.324 C866.150671,231.419995 866.594667,230.312007 866.594667,229 C866.594667,227.687993 866.150671,226.576005 865.262667,225.664 C864.374662,224.751995 863.282673,224.296 861.986667,224.296 C860.70666,224.296 859.618671,224.751995 858.722667,225.664 C857.826662,226.576005 857.378667,227.687993 857.378667,229 C857.378667,230.312007 857.826662,231.419995 858.722667,232.324 C859.618671,233.228005 860.70666,233.68 861.986667,233.68 Z M876.621333,222.808 C877.469338,222.808 878.24533,223.015998 878.949333,223.432 L878.397333,225.016 C877.72533,224.519998 877.045337,224.272 876.357333,224.272 C875.349328,224.272 874.501337,224.627996 873.813333,225.34 C873.12533,226.052004 872.781333,226.927995 872.781333,227.968 L872.781333,235 L871.197333,235 L871.197333,223 L872.781333,223 L872.781333,224.776 C873.757338,223.463993 875.037325,222.808 876.621333,222.808 Z" id="Illustration-Title-Copy" fill="#23ABE3"></path>
        </g>
        <g id="Circuit" transform="translate(256.000000, 29.000000)">
            <g id="Pushbutton" transform="translate(51.000000, 61.000000)">
                <g>
                    <g id="Connection" transform="translate(0.000000, 13.000000)" fill="#3D3530">
                        <circle cx="5" cy="5" r="5"></circle>
                    </g>
                    <g id="Connection" transform="translate(60.000000, 13.000000)" fill="#3D3530">
                        <circle cx="5" cy="5" r="5"></circle>
                    </g>
                    <path d="M5,8 L65,8" id="Path" stroke="#3D3530" stroke-width="3"></path>
                    <rect id="Rectangle" fill="#3D3530" x="26" y="0" width="18" height="7"></rect>
                </g>
            </g>
            <g id="Resistor" transform="translate(251.000000, 66.000000)" stroke="#3D3530" stroke-linejoin="round" stroke-width="3">
                <polyline points="0 13 5 13 10 0 20 26 30 0 40 26 50 0 60 26 65 13 70 13"></polyline>
            </g>
            <g id="Ground" transform="translate(320.000000, 78.000000)" stroke="#3D3530">
                <g transform="translate(33.000000, 37.500000) rotate(-90.000000) translate(-33.000000, -37.500000) translate(-4.500000, 4.500000)">
                    <path d="M25,33 L75,33" id="Path-2-Copy" stroke-width="3"></path>
                    <path d="M13,13 L13,53" id="Path-4" stroke-width="3"></path>
                    <path d="M1,27 L1,39" id="Path-4-Copy" stroke-width="3"></path>
                    <path d="M25,0 L25,66" id="Path-3-Copy" stroke-width="3"></path>
                </g>
            </g>
            <g id="LED" transform="translate(151.000000, 37.000000)">
                <g>
                    <polygon id="Path-2" fill="#3D3530" points="24.5 29 44 42 24.5 55"></polygon>
                    <path d="M44,42 L70,42" id="Path-2-Copy" stroke="#3D3530" stroke-width="3"></path>
                    <path d="M44,29 L44,55" id="Path-4-Copy" stroke="#3D3530" stroke-width="3"></path>
                    <path d="M0,42 L24.5,42" id="Path-3" stroke="#3D3530" stroke-width="3"></path>
                    <g id="Arrow" transform="translate(43.647114, 19.941343) rotate(-150.000000) translate(-43.647114, -19.941343) translate(39.147114, 6.441343)">
                        <polygon id="Triangle" fill="#3D3530" transform="translate(4.633975, 19.633975) scale(1, -1) translate(-4.633975, -19.633975) " points="4.6339746 13.1339746 8.6339746 26.1339746 0.633974596 26.1339746"></polygon>
                        <path d="M4.5,0 L4.5,20" id="Path-3" stroke="#3D3530" stroke-width="3"></path>
                    </g>
                    <g id="Arrow" transform="translate(33.647114, 13.941343) rotate(-150.000000) translate(-33.647114, -13.941343) translate(29.147114, 0.441343)">
                        <polygon id="Triangle" fill="#3D3530" transform="translate(4.633975, 19.633975) scale(1, -1) translate(-4.633975, -19.633975) " points="4.6339746 13.1339746 8.6339746 26.1339746 0.633974596 26.1339746"></polygon>
                        <path d="M4.5,1.13686838e-13 L4.5,20" id="Path-3" stroke="#3D3530" stroke-width="3"></path>
                    </g>
                </g>
            </g>
            <path d="M6.34,14.24 C6.22799944,14.3360005 6.08800084,14.483999 5.92,14.684 C5.75199916,14.884001 5.59600072,15.0439994 5.452,15.164 C5.30799928,15.2840006 5.16400072,15.344 5.02,15.344 C4.89199936,15.344 4.77600052,15.2920005 4.672,15.188 C4.56799948,15.0839995 4.516,14.9520008 4.516,14.792 C4.516,14.5039986 4.72399792,14.2080015 5.14,13.904 L6.916,12.488 C7.38000232,12.1359982 7.75999852,11.6840028 8.056,11.132 C8.35200148,10.5799972 8.5,10.008003 8.5,9.416 C8.5,8.74399664 8.2600024,8.208002 7.78,7.808 C7.2999976,7.407998 6.66800392,7.208 5.884,7.208 C5.05199584,7.208 4.3560028,7.55999648 3.796,8.264 C3.2359972,8.96800352 3.24399712,9.81599504 3.82,10.808 L3.1,11.552 C2.17199536,10.9919972 1.67200036,10.2840043 1.6,9.428 C1.52799964,8.57199572 1.891996,7.82000324 2.692,7.172 C3.492004,6.52399676 4.55599336,6.2 5.884,6.2 C7.11600616,6.2 8.18799544,6.49599704 9.1,7.088 C10.0120046,7.68000296 10.468,8.4559952 10.468,9.416 C10.468,9.76800176 10.3920008,10.1279982 10.24,10.496 C10.0879992,10.8640018 9.90400108,11.1759987 9.688,11.432 C9.47199892,11.6880013 9.25600108,11.9239989 9.04,12.14 C8.82399892,12.3560011 8.64400072,12.5199994 8.5,12.632 L8.26,12.776 L7.156,13.616 C8.30800576,13.8560012 9.21999664,14.3279965 9.892,15.032 C10.5640034,15.7360035 10.9,16.5519954 10.9,17.48 C10.9,18.5840055 10.4400046,19.5279961 9.52,20.312 C8.5999954,21.0960039 7.46800672,21.488 6.124,21.488 C4.82799352,21.488 3.76400416,21.1760031 2.932,20.552 C2.09999584,19.9279969 1.684,19.3360028 1.684,18.776 C1.684,18.4079982 1.89199792,18.224 2.308,18.224 C2.4680008,18.224 2.6079994,18.2959993 2.728,18.44 C2.8480006,18.5840007 2.98399924,18.7839987 3.136,19.04 C3.28800076,19.2960013 3.43599928,19.4959993 3.58,19.64 C4.17200296,20.2640031 4.95599512,20.576 5.932,20.576 C6.87600472,20.576 7.58399764,20.2920028 8.056,19.724 C8.52800236,19.1559972 8.764,18.4080046 8.764,17.48 C8.764,16.7119962 8.56800196,16.024003 8.176,15.416 C7.78399804,14.807997 7.17200416,14.4160009 6.34,14.24 Z M17.404,15.944 C17.404,16.2800017 17.2680014,16.5719988 16.996,16.82 C16.7239986,17.0680012 16.4040018,17.192 16.036,17.192 C15.6679982,17.192 15.3560013,17.0680012 15.1,16.82 C14.8439987,16.5719988 14.716,16.2800017 14.716,15.944 C14.716,15.5919982 14.8439987,15.2920012 15.1,15.044 C15.3560013,14.7959988 15.6679982,14.672 16.036,14.672 C16.4040018,14.672 16.7239986,14.7959988 16.996,15.044 C17.2680014,15.2920012 17.404,15.5919982 17.404,15.944 Z M26.044,14.24 C25.9319994,14.3360005 25.7920008,14.483999 25.624,14.684 C25.4559992,14.884001 25.3000007,15.0439994 25.156,15.164 C25.0119993,15.2840006 24.8680007,15.344 24.724,15.344 C24.5959994,15.344 24.4800005,15.2920005 24.376,15.188 C24.2719995,15.0839995 24.22,14.9520008 24.22,14.792 C24.22,14.5039986 24.4279979,14.2080015 24.844,13.904 L26.62,12.488 C27.0840023,12.1359982 27.4639985,11.6840028 27.76,11.132 C28.0560015,10.5799972 28.204,10.008003 28.204,9.416 C28.204,8.74399664 27.9640024,8.208002 27.484,7.808 C27.0039976,7.407998 26.3720039,7.208 25.588,7.208 C24.7559958,7.208 24.0600028,7.55999648 23.5,8.264 C22.9399972,8.96800352 22.9479971,9.81599504 23.524,10.808 L22.804,11.552 C21.8759954,10.9919972 21.3760004,10.2840043 21.304,9.428 C21.2319996,8.57199572 21.595996,7.82000324 22.396,7.172 C23.196004,6.52399676 24.2599934,6.2 25.588,6.2 C26.8200062,6.2 27.8919954,6.49599704 28.804,7.088 C29.7160046,7.68000296 30.172,8.4559952 30.172,9.416 C30.172,9.76800176 30.0960008,10.1279982 29.944,10.496 C29.7919992,10.8640018 29.6080011,11.1759987 29.392,11.432 C29.1759989,11.6880013 28.9600011,11.9239989 28.744,12.14 C28.5279989,12.3560011 28.3480007,12.5199994 28.204,12.632 L27.964,12.776 L26.86,13.616 C28.0120058,13.8560012 28.9239966,14.3279965 29.596,15.032 C30.2680034,15.7360035 30.604,16.5519954 30.604,17.48 C30.604,18.5840055 30.1440046,19.5279961 29.224,20.312 C28.3039954,21.0960039 27.1720067,21.488 25.828,21.488 C24.5319935,21.488 23.4680042,21.1760031 22.636,20.552 C21.8039958,19.9279969 21.388,19.3360028 21.388,18.776 C21.388,18.4079982 21.5959979,18.224 22.012,18.224 C22.1720008,18.224 22.3119994,18.2959993 22.432,18.44 C22.5520006,18.5840007 22.6879992,18.7839987 22.84,19.04 C22.9920008,19.2960013 23.1399993,19.4959993 23.284,19.64 C23.876003,20.2640031 24.6599951,20.576 25.636,20.576 C26.5800047,20.576 27.2879976,20.2920028 27.76,19.724 C28.2320024,19.1559972 28.468,18.4080046 28.468,17.48 C28.468,16.7119962 28.272002,16.024003 27.88,15.416 C27.487998,14.807997 26.8760042,14.4160009 26.044,14.24 Z M47.74,3.104 C46.7959953,3.104 46.1840014,3.21999884 45.904,3.452 C45.6239986,3.68400116 45.284002,4.26399536 44.884,5.192 L39.604,17.408 L39.292,17.408 L33.988,5.192 C33.587998,4.26399536 33.2480014,3.68400116 32.968,3.452 C32.6879986,3.21999884 32.0760047,3.104 31.132,3.104 L31.132,2.6 L37.78,2.6 L37.78,3.104 C36.787995,3.104 36.1520014,3.2439986 35.872,3.524 C35.5919986,3.8040014 35.6039985,4.27199672 35.908,4.928 L39.988,14.264 L44.02,4.928 C44.3240015,4.27199672 44.3360014,3.8040014 44.056,3.524 C43.7759986,3.2439986 43.140005,3.104 42.148,3.104 L42.148,2.6 L47.74,2.6 L47.74,3.104 Z" id="3.3V-Copy" fill="#524740"></path>
            <g id="DC_Rail" transform="translate(8.000000, 29.000000)" stroke="#3D3530">
                <g transform="translate(15.000000, 25.500000) rotate(-90.000000) translate(-15.000000, -25.500000) translate(-10.500000, 10.500000)">
                    <path d="M-5.32907052e-15,15 L50,15" id="Path-2-Copy" stroke-width="3"></path>
                    <path d="M50,-4.26325641e-14 L50,30" id="Path-4" stroke-width="3"></path>
                </g>
            </g>
            <g id="Wiring" transform="translate(23.000000, 78.000000)" stroke="#3D3530" stroke-width="2">
                <path d="M298,1 L330,1" id="Path"></path>
                <path d="M198,1 L228,1" id="Path-2"></path>
                <path d="M93,1 L128,1" id="Path-3"></path>
                <path d="M0,1 L33,1" id="Path-4"></path>
            </g>
        </g>
    </g>
</svg>