<?xml version="1.0" encoding="UTF-8"?>
<svg width="900px" height="290px" viewBox="0 0 900 290" version="1.1" xmlns="http://www.w3.org/2000/svg" xmlns:xlink="http://www.w3.org/1999/xlink">
    <!-- Generator: Sketch 52.5 (67469) - http://www.bohemiancoding.com/sketch -->
    <title>LED_Series_Circuit_Example</title>
    <desc>Created with Sketch.</desc>
    <g id="LED_Series_Circuit_Example" stroke="none" stroke-width="1" fill="none" fill-rule="evenodd">
        <rect id="Rectangle" stroke="#3D3530" stroke-width="2" fill="#EEEEEE" x="1" y="1" width="898" height="428"></rect>
        <rect id="Rectangle-Copy" stroke="#3D3530" stroke-width="2" fill="#F8FAE4" x="1" y="246" width="898" height="43"></rect>
        <path d="M570.778666,271.416 L578.122666,271.416 L578.122666,273 L569.194666,273 L569.194666,256.872 L570.778666,256.872 L570.778666,271.416 Z M591.341333,258.456 L582.341333,258.456 L582.341333,264 L587.405333,264 L587.405333,265.584 L582.341333,265.584 L582.341333,271.416 L591.341333,271.416 L591.341333,273 L580.757333,273 L580.757333,256.872 L591.341333,256.872 L591.341333,258.456 Z M595.176,273 L595.176,256.872 L598.824,256.872 C601.480013,256.872 603.591992,257.639992 605.16,259.176 C606.728007,260.712008 607.512,262.631988 607.512,264.936 C607.512,267.224011 606.724007,269.139992 605.148,270.684 C603.571992,272.228008 601.464013,273 598.824,273 L595.176,273 Z M596.76,271.488 L598.824,271.488 C600.93601,271.488 602.623993,270.868006 603.888,269.628 C605.152006,268.387994 605.784,266.824009 605.784,264.936 C605.784,263.047991 605.152006,261.484006 603.888,260.244 C602.623993,259.003994 600.93601,258.384 598.824,258.384 L596.76,258.384 L596.76,271.488 Z M623.053333,273.192 C621.981328,273.192 620.945338,272.920003 619.945333,272.376 C618.945328,271.831997 618.189335,271.288003 617.677333,270.744 L618.781333,269.664 C619.181335,270.096002 619.773329,270.539998 620.557333,270.996 C621.341337,271.452002 622.173328,271.68 623.053333,271.68 C624.125338,271.68 624.96933,271.444002 625.585333,270.972 C626.201336,270.499998 626.509333,269.856004 626.509333,269.04 C626.509333,268.351997 626.209336,267.752003 625.609333,267.24 C625.00933,266.727997 624.281337,266.296002 623.425333,265.944 C622.569329,265.591998 621.709337,265.220002 620.845333,264.828 C619.981329,264.435998 619.249336,263.904003 618.649333,263.232 C618.04933,262.559997 617.749333,261.768005 617.749333,260.856 C617.749333,259.687994 618.189328,258.704004 619.069333,257.904 C619.949337,257.103996 621.181325,256.704 622.765333,256.704 C623.837338,256.704 624.873328,256.975997 625.873333,257.52 C626.873338,258.064003 627.62933,258.607997 628.141333,259.152 L627.037333,260.232 C626.621331,259.783998 626.021337,259.336002 625.237333,258.888 C624.453329,258.439998 623.629337,258.216 622.765333,258.216 C621.693328,258.216 620.849336,258.451998 620.233333,258.924 C619.61733,259.396002 619.309333,260.039996 619.309333,260.856 C619.309333,261.544003 619.60933,262.147997 620.209333,262.668 C620.809336,263.188003 621.537329,263.623998 622.393333,263.976 C623.249337,264.328002 624.109329,264.695998 624.973333,265.08 C625.837337,265.464002 626.56933,265.991997 627.169333,266.664 C627.769336,267.336003 628.069333,268.127995 628.069333,269.04 C628.069333,270.208006 627.629337,271.191996 626.749333,271.992 C625.869328,272.792004 624.637341,273.192 623.053333,273.192 Z M636.656,271.608 C637.728005,271.608 638.687995,271.304003 639.536,270.696 C640.384004,270.087997 640.959998,269.376004 641.264,268.56 L642.608,269.04 C642.239998,270.048005 641.524005,270.975996 640.46,271.824 C639.395994,272.672004 638.128007,273.088 636.656,273.072 C635.311993,273.072 634.084005,272.656004 632.972,271.824 C631.859994,270.991996 631.104002,269.928006 630.704,268.632 C630.543999,268.103997 630.464,267.528003 630.464,266.904 C630.464,265.175991 631.063994,263.712006 632.264,262.512 C633.464006,261.311994 634.927991,260.704 636.656,260.688 C638.224007,260.704 639.591994,261.231995 640.76,262.272 C641.928005,263.312005 642.599999,264.599992 642.776,266.136 C642.792,266.216 642.8,266.319999 642.8,266.448 L632.312,268.344 C632.584001,269.304005 633.127996,270.091997 633.944,270.708 C634.760004,271.324003 635.663995,271.624 636.656,271.608 Z M636.512,262.152 C635.311994,262.168 634.284004,262.599996 633.428,263.448 C632.571995,264.296004 632.112,265.311994 632.048,266.496 C632.048,266.544 632.052,266.627999 632.06,266.748 C632.068,266.868001 632.072,266.968 632.072,267.048 L641,265.44 C640.695998,264.463995 640.128004,263.668003 639.296,263.052 C638.463995,262.435997 637.536005,262.136 636.512,262.152 Z M651.146666,260.808 C651.994671,260.808 652.770663,261.015998 653.474666,261.432 L652.922666,263.016 C652.250663,262.519998 651.57067,262.272 650.882666,262.272 C649.874661,262.272 649.02667,262.627996 648.338666,263.34 C647.650663,264.052004 647.306666,264.927995 647.306666,265.968 L647.306666,273 L645.722666,273 L645.722666,261 L647.306666,261 L647.306666,262.776 C648.282671,261.463993 649.562658,260.808 651.146666,260.808 Z M657.909333,257.4 C657.733332,257.592001 657.509334,257.688 657.237333,257.688 C656.965332,257.688 656.737334,257.592001 656.553333,257.4 C656.369332,257.207999 656.277333,256.984001 656.277333,256.728 C656.277333,256.471999 656.369332,256.248001 656.553333,256.056 C656.737334,255.863999 656.965332,255.768 657.237333,255.768 C657.509334,255.768 657.737332,255.863999 657.921333,256.056 C658.105334,256.248001 658.197333,256.471999 658.197333,256.728 C658.197333,256.984001 658.101334,257.207999 657.909333,257.4 Z M656.445333,273 L656.445333,261 L658.029333,261 L658.029333,273 L656.445333,273 Z M667.696,271.608 C668.768005,271.608 669.727995,271.304003 670.576,270.696 C671.424004,270.087997 671.999998,269.376004 672.304,268.56 L673.648,269.04 C673.279998,270.048005 672.564005,270.975996 671.5,271.824 C670.435994,272.672004 669.168007,273.088 667.696,273.072 C666.351993,273.072 665.124005,272.656004 664.012,271.824 C662.899994,270.991996 662.144002,269.928006 661.744,268.632 C661.583999,268.103997 661.504,267.528003 661.504,266.904 C661.504,265.175991 662.103994,263.712006 663.304,262.512 C664.504006,261.311994 665.967991,260.704 667.696,260.688 C669.264007,260.704 670.631994,261.231995 671.8,262.272 C672.968005,263.312005 673.639999,264.599992 673.816,266.136 C673.832,266.216 673.84,266.319999 673.84,266.448 L663.352,268.344 C663.624001,269.304005 664.167996,270.091997 664.984,270.708 C665.800004,271.324003 666.703995,271.624 667.696,271.608 Z M667.552,262.152 C666.351994,262.168 665.324004,262.599996 664.468,263.448 C663.611995,264.296004 663.152,265.311994 663.088,266.496 C663.088,266.544 663.092,266.627999 663.1,266.748 C663.108,266.868001 663.112,266.968 663.112,267.048 L672.04,265.44 C671.735998,264.463995 671.168004,263.668003 670.336,263.052 C669.503995,262.435997 668.576005,262.136 667.552,262.152 Z M680.962666,273.192 C680.418664,273.192 679.890669,273.124001 679.378666,272.988 C678.866664,272.851999 678.438668,272.692001 678.094666,272.508 C677.750665,272.323999 677.442668,272.136001 677.170666,271.944 C676.898665,271.751999 676.698667,271.592001 676.570666,271.464 L676.378666,271.248 L677.506666,270.288 C677.618667,270.400001 677.774665,270.535999 677.974666,270.696 C678.174667,270.856001 678.578663,271.071999 679.186666,271.344 C679.794669,271.616001 680.394663,271.752 680.986666,271.752 C681.866671,271.752 682.570664,271.584002 683.098666,271.248 C683.626669,270.911998 683.890666,270.440003 683.890666,269.832 C683.890666,269.399998 683.626669,269.028002 683.098666,268.716 C682.570664,268.403998 681.93067,268.136001 681.178666,267.912 C680.426663,267.687999 679.67067,267.440001 678.910666,267.168 C678.150663,266.895999 677.506669,266.512002 676.978666,266.016 C676.450664,265.519998 676.186666,264.912004 676.186666,264.192 C676.186666,263.199995 676.558663,262.388003 677.302666,261.756 C678.04667,261.123997 679.146659,260.808 680.602666,260.808 C681.466671,260.808 682.282662,260.967998 683.050666,261.288 C683.81867,261.608002 684.370665,261.927998 684.706666,262.248 L685.210666,262.728 L684.082666,263.712 C683.970666,263.599999 683.814667,263.464001 683.614666,263.304 C683.414665,263.143999 683.010669,262.928001 682.402666,262.656 C681.794663,262.383999 681.186669,262.248 680.578666,262.248 C679.714662,262.248 679.014669,262.415998 678.478666,262.752 C677.942664,263.088002 677.674666,263.559997 677.674666,264.168 C677.674666,264.600002 677.938664,264.971998 678.466666,265.284 C678.994669,265.596002 679.634663,265.863999 680.386666,266.088 C681.13867,266.312001 681.894663,266.555999 682.654666,266.82 C683.41467,267.084001 684.058664,267.467997 684.586666,267.972 C685.114669,268.476003 685.378666,269.087996 685.378666,269.808 C685.378666,270.816005 685.01067,271.631997 684.274666,272.256 C683.538663,272.880003 682.434674,273.192 680.962666,273.192 Z M703.104,273.192 C700.735988,273.192 698.848007,272.404008 697.44,270.828 C696.031993,269.251992 695.328,267.296012 695.328,264.96 C695.328,262.607988 696.031993,260.644008 697.44,259.068 C698.848007,257.491992 700.735988,256.704 703.104,256.704 C704.672008,256.704 706.035994,257.063996 707.196,257.784 C708.356006,258.504004 709.255997,259.487994 709.896,260.736 L708.408,261.6 C707.895997,260.559995 707.180004,259.736003 706.26,259.128 C705.339995,258.519997 704.288006,258.216 703.104,258.216 C701.279991,258.216 699.820005,258.851994 698.724,260.124 C697.627994,261.396006 697.08,263.00799 697.08,264.96 C697.08,266.89601 697.627994,268.503994 698.724,269.784 C699.820005,271.064006 701.279991,271.704 703.104,271.704 C704.304006,271.704 705.363995,271.396003 706.284,270.78 C707.204004,270.163997 707.911997,269.336005 708.408,268.296 L709.896,269.184 C709.255997,270.432006 708.356006,271.411996 707.196,272.124 C706.035994,272.836004 704.672008,273.192 703.104,273.192 Z M715.074666,257.4 C714.898666,257.592001 714.674668,257.688 714.402666,257.688 C714.130665,257.688 713.902667,257.592001 713.718666,257.4 C713.534665,257.207999 713.442666,256.984001 713.442666,256.728 C713.442666,256.471999 713.534665,256.248001 713.718666,256.056 C713.902667,255.863999 714.130665,255.768 714.402666,255.768 C714.674668,255.768 714.902665,255.863999 715.086666,256.056 C715.270667,256.248001 715.362666,256.471999 715.362666,256.728 C715.362666,256.984001 715.266667,257.207999 715.074666,257.4 Z M713.610666,273 L713.610666,261 L715.194666,261 L715.194666,273 L713.610666,273 Z M724.957333,260.808 C725.805337,260.808 726.58133,261.015998 727.285333,261.432 L726.733333,263.016 C726.06133,262.519998 725.381337,262.272 724.693333,262.272 C723.685328,262.272 722.837337,262.627996 722.149333,263.34 C721.46133,264.052004 721.117333,264.927995 721.117333,265.968 L721.117333,273 L719.533333,273 L719.533333,261 L721.117333,261 L721.117333,262.776 C722.093338,261.463993 723.373325,260.808 724.957333,260.808 Z M734.6,273.192 C732.887991,273.192 731.428006,272.588006 730.22,271.38 C729.011994,270.171994 728.408,268.712009 728.408,267 C728.408,265.287991 729.011994,263.828006 730.22,262.62 C731.428006,261.411994 732.887991,260.808 734.6,260.808 C735.688005,260.808 736.699995,261.075997 737.636,261.612 C738.572004,262.148003 739.311997,262.863996 739.856,263.76 L738.416,264.456 C737.983998,263.799997 737.432003,263.280002 736.76,262.896 C736.087996,262.511998 735.368004,262.32 734.6,262.32 C733.303993,262.32 732.212004,262.771995 731.324,263.676 C730.435995,264.580005 729.992,265.687993 729.992,267 C729.992,268.312007 730.435995,269.419995 731.324,270.324 C732.212004,271.228005 733.303993,271.68 734.6,271.68 C735.368004,271.68 736.087996,271.488002 736.76,271.104 C737.432003,270.719998 737.983998,270.200003 738.416,269.544 L739.856,270.24 C739.311997,271.136004 738.572004,271.851997 737.636,272.388 C736.699995,272.924003 735.688005,273.192 734.6,273.192 Z M751.898666,261 L753.482666,261 L753.482666,273 L751.898666,273 L751.898666,271.224 C750.922662,272.536007 749.642674,273.192 748.058666,273.192 C746.666659,273.192 745.498671,272.700005 744.554666,271.716 C743.610662,270.731995 743.138666,269.520007 743.138666,268.08 L743.138666,261 L744.770666,261 L744.770666,268.032 C744.770666,269.056005 745.114663,269.923996 745.802666,270.636 C746.49067,271.348004 747.330661,271.704 748.322666,271.704 C749.330671,271.704 750.178663,271.348004 750.866666,270.636 C751.55467,269.923996 751.898666,269.056005 751.898666,268.032 L751.898666,261 Z M759.285333,257.4 C759.109332,257.592001 758.885334,257.688 758.613333,257.688 C758.341332,257.688 758.113334,257.592001 757.929333,257.4 C757.745332,257.207999 757.653333,256.984001 757.653333,256.728 C757.653333,256.471999 757.745332,256.248001 757.929333,256.056 C758.113334,255.863999 758.341332,255.768 758.613333,255.768 C758.885334,255.768 759.113332,255.863999 759.297333,256.056 C759.481334,256.248001 759.573333,256.471999 759.573333,256.728 C759.573333,256.984001 759.477334,257.207999 759.285333,257.4 Z M757.821333,273 L757.821333,261 L759.405333,261 L759.405333,273 L757.821333,273 Z M769.888,270.312 L770.68,271.536 C770.583999,271.664001 770.456001,271.815999 770.296,271.992 C770.135999,272.168001 769.776003,272.411998 769.216,272.724 C768.655997,273.036002 768.080003,273.192 767.488,273.192 C766.479995,273.192 765.636003,272.892003 764.956,272.292 C764.275996,271.691997 763.936,270.824006 763.936,269.688 L763.936,262.44 L762.016,262.44 L762.016,260.976 L763.936,260.976 L763.936,257.184 L765.52,256.992 L765.52,260.976 L769.144,260.976 L769.144,262.44 L765.52,262.44 L765.52,269.328 C765.52,270.064004 765.747998,270.647998 766.204,271.08 C766.660002,271.512002 767.183997,271.728 767.776,271.728 C768.144002,271.728 768.503998,271.616001 768.856,271.392 C769.208002,271.167999 769.467999,270.948001 769.636,270.732 C769.804001,270.515999 769.888,270.376 769.888,270.312 Z M791.741333,258.456 L782.741333,258.456 L782.741333,264 L787.805333,264 L787.805333,265.584 L782.741333,265.584 L782.741333,271.416 L791.741333,271.416 L791.741333,273 L781.157333,273 L781.157333,256.872 L791.741333,256.872 L791.741333,258.456 Z M804.24,273 L802.44,273 L799.08,268.224 L795.696,273 L793.92,273 L798.192,266.952 L793.992,261 L795.768,261 L799.08,265.68 L802.368,261 L804.168,261 L799.968,266.952 L804.24,273 Z M816.690667,261 L818.274667,261 L818.274667,273 L816.690667,273 L816.690667,271.056 C815.45866,272.480007 813.898676,273.192 812.010667,273.192 C810.298658,273.192 808.838673,272.588006 807.630667,271.38 C806.422661,270.171994 805.818667,268.712009 805.818667,267 C805.818667,265.287991 806.422661,263.828006 807.630667,262.62 C808.838673,261.411994 810.298658,260.808 812.010667,260.808 C813.914676,260.808 815.47466,261.519993 816.690667,262.944 L816.690667,261 Z M812.034667,271.68 C813.330673,271.68 814.422662,271.228005 815.310667,270.324 C816.198671,269.419995 816.642667,268.312007 816.642667,267 C816.642667,265.687993 816.198671,264.580005 815.310667,263.676 C814.422662,262.771995 813.330673,262.32 812.034667,262.32 C810.75466,262.32 809.662671,262.771995 808.758667,263.676 C807.854662,264.580005 807.402667,265.687993 807.402667,267 C807.402667,268.312007 807.854662,269.419995 808.758667,270.324 C809.662671,271.228005 810.75466,271.68 812.034667,271.68 Z M836.365333,260.808 C837.75734,260.808 838.925329,261.299995 839.869333,262.284 C840.813338,263.268005 841.285333,264.479993 841.285333,265.92 L841.285333,273 L839.653333,273 L839.653333,265.968 C839.653333,264.927995 839.313337,264.052004 838.633333,263.34 C837.95333,262.627996 837.109338,262.272 836.101333,262.272 C835.093328,262.272 834.245337,262.627996 833.557333,263.34 C832.86933,264.052004 832.525333,264.927995 832.525333,265.968 L832.525333,273 L830.917333,273 L830.917333,265.968 C830.917333,264.943995 830.569337,264.072004 829.873333,263.352 C829.17733,262.631996 828.333338,262.272 827.341333,262.272 C826.349328,262.272 825.505337,262.631996 824.809333,263.352 C824.11333,264.072004 823.765333,264.943995 823.765333,265.968 L823.765333,273 L822.181333,273 L822.181333,261 L823.765333,261 L823.765333,262.776 C824.741338,261.463993 826.021325,260.808 827.605333,260.808 C828.517338,260.808 829.353329,261.039998 830.113333,261.504 C830.873337,261.968002 831.469331,262.591996 831.901333,263.376 C832.317335,262.591996 832.917329,261.968002 833.701333,261.504 C834.485337,261.039998 835.373328,260.808 836.365333,260.808 Z M851.552,260.784 C853.264009,260.784 854.723994,261.387994 855.932,262.596 C857.140006,263.804006 857.744,265.263991 857.744,266.976 C857.744,268.688009 857.140006,270.147994 855.932,271.356 C854.723994,272.564006 853.264009,273.168 851.552,273.168 C849.63199,273.168 848.064006,272.440007 846.848,270.984 L846.848,278.832 L845.264,278.832 L845.264,260.976 L846.848,260.976 L846.848,262.944 C848.080006,261.503993 849.64799,260.784 851.552,260.784 Z M848.24,270.312 C849.136004,271.208004 850.223994,271.656 851.504,271.656 C852.784006,271.656 853.875995,271.204005 854.78,270.3 C855.684004,269.395995 856.136,268.288007 856.136,266.976 C856.136,265.663993 855.684004,264.552005 854.78,263.64 C853.875995,262.727995 852.784006,262.272 851.504,262.272 C850.223994,262.272 849.136004,262.727995 848.24,263.64 C847.343995,264.552005 846.896,265.663993 846.896,266.976 C846.896,268.288007 847.343995,269.399995 848.24,270.312 Z M861.026667,273 L861.026667,255.144 L862.610667,255.144 L862.610667,273 L861.026667,273 Z M872.037333,271.608 C873.109339,271.608 874.069329,271.304003 874.917333,270.696 C875.765338,270.087997 876.341332,269.376004 876.645333,268.56 L877.989333,269.04 C877.621331,270.048005 876.905339,270.975996 875.841333,271.824 C874.777328,272.672004 873.509341,273.088 872.037333,273.072 C870.693327,273.072 869.465339,272.656004 868.353333,271.824 C867.241328,270.991996 866.485335,269.928006 866.085333,268.632 C865.925333,268.103997 865.845333,267.528003 865.845333,266.904 C865.845333,265.175991 866.445327,263.712006 867.645333,262.512 C868.845339,261.311994 870.309325,260.704 872.037333,260.688 C873.605341,260.704 874.973327,261.231995 876.141333,262.272 C877.309339,263.312005 877.981332,264.599992 878.157333,266.136 C878.173333,266.216 878.181333,266.319999 878.181333,266.448 L867.693333,268.344 C867.965335,269.304005 868.509329,270.091997 869.325333,270.708 C870.141337,271.324003 871.045328,271.624 872.037333,271.608 Z M871.893333,262.152 C870.693327,262.168 869.665338,262.599996 868.809333,263.448 C867.953329,264.296004 867.493334,265.311994 867.429333,266.496 C867.429333,266.544 867.433333,266.627999 867.441333,266.748 C867.449333,266.868001 867.453333,266.968 867.453333,267.048 L876.381333,265.44 C876.077332,264.463995 875.509337,263.668003 874.677333,263.052 C873.845329,262.435997 872.917338,262.136 871.893333,262.152 Z" id="LED-Series-Circuit-E-Copy" fill="#23ABE3"></path>
        <g id="Circuit" transform="translate(190.000000, 20.000000)">
            <polyline id="Resistor" stroke="#3D3530" stroke-width="3" stroke-linejoin="round" points="125 70 130 70 135 57 145 83 155 57 165 83 175 57 185 83 190 70 195 70"></polyline>
            <g id="LED" transform="translate(225.000000, 28.000000)">
                <polygon id="Path-2" fill="#3D3530" points="24.5 29 44 42 24.5 55"></polygon>
                <path d="M44,42 L70,42" id="Path-2-Copy" stroke="#3D3530" stroke-width="3"></path>
                <path d="M44,29 L44,55" id="Path-4-Copy" stroke="#3D3530" stroke-width="3"></path>
                <path d="M0,42 L24.5,42" id="Path-3" stroke="#3D3530" stroke-width="3"></path>
                <g id="Arrow" transform="translate(43.647114, 19.941343) rotate(-150.000000) translate(-43.647114, -19.941343) translate(39.147114, 6.441343)">
                    <polygon id="Triangle" fill="#3D3530" transform="translate(4.633975, 19.633975) scale(1, -1) translate(-4.633975, -19.633975) " points="4.6339746 13.1339746 8.6339746 26.1339746 0.633974596 26.1339746"></polygon>
                    <path d="M4.5,0 L4.5,20" id="Path-3" stroke="#3D3530" stroke-width="3"></path>
                </g>
                <g id="Arrow" transform="translate(33.647114, 13.941343) rotate(-150.000000) translate(-33.647114, -13.941343) translate(29.147114, 0.441343)">
                    <polygon id="Triangle" fill="#3D3530" transform="translate(4.633975, 19.633975) scale(1, -1) translate(-4.633975, -19.633975) " points="4.6339746 13.1339746 8.6339746 26.1339746 0.633974596 26.1339746"></polygon>
                    <path d="M4.5,1.13686838e-13 L4.5,20" id="Path-3" stroke="#3D3530" stroke-width="3"></path>
                </g>
            </g>
            <g id="LED-Copy-2" transform="translate(355.000000, 28.000000)">
                <polygon id="Path-2" fill="#3D3530" points="24.5 29 44 42 24.5 55"></polygon>
                <path d="M44,42 L70,42" id="Path-2-Copy" stroke="#3D3530" stroke-width="3"></path>
                <path d="M44,29 L44,55" id="Path-4-Copy" stroke="#3D3530" stroke-width="3"></path>
                <path d="M0,42 L24.5,42" id="Path-3" stroke="#3D3530" stroke-width="3"></path>
                <g id="Arrow" transform="translate(43.647114, 19.941343) rotate(-150.000000) translate(-43.647114, -19.941343) translate(39.147114, 6.441343)">
                    <polygon id="Triangle" fill="#3D3530" transform="translate(4.633975, 19.633975) scale(1, -1) translate(-4.633975, -19.633975) " points="4.6339746 13.1339746 8.6339746 26.1339746 0.633974596 26.1339746"></polygon>
                    <path d="M4.5,0 L4.5,20" id="Path-3" stroke="#3D3530" stroke-width="3"></path>
                </g>
                <g id="Arrow" transform="translate(33.647114, 13.941343) rotate(-150.000000) translate(-33.647114, -13.941343) translate(29.147114, 0.441343)">
                    <polygon id="Triangle" fill="#3D3530" transform="translate(4.633975, 19.633975) scale(1, -1) translate(-4.633975, -19.633975) " points="4.6339746 13.1339746 8.6339746 26.1339746 0.633974596 26.1339746"></polygon>
                    <path d="M4.5,1.13686838e-13 L4.5,20" id="Path-3" stroke="#3D3530" stroke-width="3"></path>
                </g>
            </g>
            <g id="Power" transform="translate(0.000000, 100.000000)"></g>
            <g id="DC_Power" transform="translate(40.000000, 100.000000)">
                <circle id="Oval" stroke="#3D3530" stroke-width="3" cx="40" cy="40" r="40"></circle>
                <g id="+" transform="translate(36.000000, 11.000000)" stroke="#3D3530" stroke-width="2">
                    <path d="M4,4 L0,4 L4,4 L4,8 L4,4 Z M4,4 L8,4 L4,4 L4,0 L4,4 Z" id="Combined-Shape"></path>
                </g>
                <g id="-" transform="translate(36.000000, 66.000000)" stroke="#3D3530" stroke-width="2">
                    <path d="M0,1 L8,1" id="Path"></path>
                </g>
                <path d="M97.708,42.968 C97.708,44.3920071 97.512002,45.7359937 97.12,47 C96.727998,48.2640063 96.1000043,49.3279957 95.236,50.192 C94.3719957,51.0560043 93.3560058,51.488 92.188,51.488 C91.2439953,51.488 90.4160036,51.288002 89.704,50.888 C88.9919964,50.487998 88.636,50.0800021 88.636,49.664 C88.636,49.471999 88.7079993,49.3160006 88.852,49.196 C88.9960007,49.0759994 89.1479992,49.016 89.308,49.016 C89.4680008,49.016 89.6359991,49.1039991 89.812,49.28 C89.9880009,49.4560009 90.1599992,49.647999 90.328,49.856 C90.4960008,50.064001 90.7439984,50.2559991 91.072,50.432 C91.4000016,50.6080009 91.763998,50.696 92.164,50.696 C94.3240108,50.696 95.499999,48.392023 95.692,43.784 C94.9879965,44.7280047 94.036006,45.2 92.836,45.2 C91.5079934,45.2 90.3680048,44.7600044 89.416,43.88 C88.4639952,42.9999956 87.988,41.9360062 87.988,40.688 C87.988,39.4559938 88.4639952,38.4000044 89.416,37.52 C90.3680048,36.6399956 91.5079934,36.2 92.836,36.2 C93.236002,36.2 93.639998,36.2519995 94.048,36.356 C94.456002,36.4600005 94.8839978,36.6679984 95.332,36.98 C95.7800022,37.2920016 96.1759983,37.6879976 96.52,38.168 C96.8640017,38.6480024 97.1479989,39.3039958 97.372,40.136 C97.5960011,40.9680042 97.708,41.9119947 97.708,42.968 Z M95.716,42.464 C95.6839998,41.3599945 95.5600011,40.4280038 95.344,39.668 C95.1279989,38.9079962 94.8600016,38.3640016 94.54,38.036 C94.2199984,37.7079984 93.9240014,37.4800006 93.652,37.352 C93.3799986,37.2239994 93.1080014,37.16 92.836,37.16 C91.8599951,37.16 91.1400023,37.5039966 90.676,38.192 C90.2119977,38.8800034 89.98,39.719995 89.98,40.712 C89.98,41.704005 90.2119977,42.5399966 90.676,43.22 C91.1400023,43.9000034 91.8599951,44.24 92.836,44.24 C93.5240034,44.24 94.1399973,44.0680017 94.684,43.724 C95.2280027,43.3799983 95.5719993,42.9600025 95.716,42.464 Z M116.092,33.104 C115.147995,33.104 114.536001,33.2199988 114.256,33.452 C113.975999,33.6840012 113.636002,34.2639954 113.236,35.192 L107.956,47.408 L107.644,47.408 L102.34,35.192 C101.939998,34.2639954 101.600001,33.6840012 101.32,33.452 C101.039999,33.2199988 100.428005,33.104 99.484,33.104 L99.484,32.6 L106.132,32.6 L106.132,33.104 C105.139995,33.104 104.504001,33.2439986 104.224,33.524 C103.943999,33.8040014 103.955998,34.2719967 104.26,34.928 L108.34,44.264 L112.372,34.928 C112.676002,34.2719967 112.688001,33.8040014 112.408,33.524 C112.127999,33.2439986 111.492005,33.104 110.5,33.104 L110.5,32.6 L116.092,32.6 L116.092,33.104 Z" id="9V-Copy" fill="#1A80AA"></path>
            </g>
            <g id="Wiring" transform="translate(80.000000, 69.000000)" stroke="#3D3530" stroke-width="2">
                <polyline id="Path-13-Copy-4" points="0 31 0 1 45 1"></polyline>
                <polyline id="Path-13" points="345 1 462 1 462 141 2.27373675e-13 141 2.27373675e-13 111"></polyline>
                <path d="M115,1 L145,1" id="Path-4"></path>
                <path d="M215,1 L275,1" id="Path-4-Copy-2"></path>
            </g>
            <path d="M295.804,86.104 C294.859995,86.104 294.248001,86.2199988 293.968,86.452 C293.687999,86.6840012 293.348002,87.2639954 292.948,88.192 L287.668,100.408 L287.356,100.408 L282.052,88.192 C281.651998,87.2639954 281.312001,86.6840012 281.032,86.452 C280.751999,86.2199988 280.140005,86.104 279.196,86.104 L279.196,85.6 L285.844,85.6 L285.844,86.104 C284.851995,86.104 284.216001,86.2439986 283.936,86.524 C283.655999,86.8040014 283.667998,87.2719967 283.972,87.928 L288.052,97.264 L292.084,87.928 C292.388002,87.2719967 292.400001,86.8040014 292.12,86.524 C291.839999,86.2439986 291.204005,86.104 290.212,86.104 L290.212,85.6 L295.804,85.6 L295.804,86.104 Z M299.428,92.848 L299.428,96.688 C299.428,97.888006 299.543999,98.6559983 299.776,98.992 C300.008001,99.3280017 300.523996,99.496 301.324,99.496 L301.324,100 L295.828,100 L295.828,99.496 C296.628004,99.496 297.143999,99.3280017 297.376,98.992 C297.608001,98.6559983 297.724,97.888006 297.724,96.688 L297.724,92.848 L295.756,92.848 L295.756,92.008 L297.724,92.008 L297.724,89.704 C297.724,88.1839924 298.103996,87.0520037 298.864,86.308 C299.624004,85.5639963 300.555994,85.192 301.66,85.192 C302.396004,85.192 302.979998,85.3799981 303.412,85.756 C303.844002,86.1320019 304.06,86.5359978 304.06,86.968 C304.06,87.2240013 303.992001,87.4319992 303.856,87.592 C303.719999,87.7520008 303.524001,87.832 303.268,87.832 C303.011999,87.832 302.812001,87.736001 302.668,87.544 C302.523999,87.351999 302.428,87.1400012 302.38,86.908 C302.332,86.6759988 302.212001,86.464001 302.02,86.272 C301.827999,86.079999 301.564002,85.984 301.228,85.984 C300.603997,85.984 300.148001,86.2679972 299.86,86.836 C299.571999,87.4040028 299.428,88.3599933 299.428,89.704 L299.428,92.008 L301.828,92.008 L301.828,92.848 L299.428,92.848 Z M317.02,93.808 L310.012,93.808 L310.012,92.728 L317.02,92.728 L317.02,93.808 Z M317.02,96.808 L310.012,96.808 L310.012,95.728 L317.02,95.728 L317.02,96.808 Z M332.716,95.776 L329.02,98.608 L335.236,98.608 L334.636,101.896 L334.132,101.896 C334.132,101.095996 333.964002,100.580001 333.628,100.348 C333.291998,100.115999 332.524006,100 331.324,100 L326.38,100 L326.38,99.424 L330.628,96.088 C332.164008,94.8719939 332.932,93.6560061 332.932,92.44 C332.932,91.7519966 332.696002,91.208002 332.224,90.808 C331.751998,90.407998 331.124004,90.208 330.34,90.208 C329.427995,90.208 328.724002,90.5599965 328.228,91.264 C327.731998,91.9680035 327.747997,92.815995 328.276,93.808 L327.556,94.552 C326.627995,93.9919972 326.128,93.2840043 326.056,92.428 C325.984,91.5719957 326.347996,90.8200032 327.148,90.172 C327.948004,89.5239968 329.011993,89.2 330.34,89.2 C331.572006,89.2 332.643995,89.495997 333.556,90.088 C334.468005,90.680003 334.924,91.4559952 334.924,92.416 C334.924,92.7680018 334.848001,93.1279982 334.696,93.496 C334.543999,93.8640018 334.360001,94.1759987 334.144,94.432 C333.927999,94.6880013 333.712001,94.9239989 333.496,95.14 C333.279999,95.3560011 333.100001,95.5199994 332.956,95.632 L332.716,95.776 Z M352.78,86.104 C351.835995,86.104 351.224001,86.2199988 350.944,86.452 C350.663999,86.6840012 350.324002,87.2639954 349.924,88.192 L344.644,100.408 L344.332,100.408 L339.028,88.192 C338.627998,87.2639954 338.288001,86.6840012 338.008,86.452 C337.727999,86.2199988 337.116005,86.104 336.172,86.104 L336.172,85.6 L342.82,85.6 L342.82,86.104 C341.827995,86.104 341.192001,86.2439986 340.912,86.524 C340.631999,86.8040014 340.643998,87.2719967 340.948,87.928 L345.028,97.264 L349.06,87.928 C349.364002,87.2719967 349.376001,86.8040014 349.096,86.524 C348.815999,86.2439986 348.180005,86.104 347.188,86.104 L347.188,85.6 L352.78,85.6 L352.78,86.104 Z" id="Vf-=-2V-Copy" fill="#1A80AA"></path>
            <path d="M427.948,86.104 C427.003995,86.104 426.392001,86.2199988 426.112,86.452 C425.831999,86.6840012 425.492002,87.2639954 425.092,88.192 L419.812,100.408 L419.5,100.408 L414.196,88.192 C413.795998,87.2639954 413.456001,86.6840012 413.176,86.452 C412.895999,86.2199988 412.284005,86.104 411.34,86.104 L411.34,85.6 L417.988,85.6 L417.988,86.104 C416.995995,86.104 416.360001,86.2439986 416.08,86.524 C415.799999,86.8040014 415.811998,87.2719967 416.116,87.928 L420.196,97.264 L424.228,87.928 C424.532002,87.2719967 424.544001,86.8040014 424.264,86.524 C423.983999,86.2439986 423.348005,86.104 422.356,86.104 L422.356,85.6 L427.948,85.6 L427.948,86.104 Z M431.572,92.848 L431.572,96.688 C431.572,97.888006 431.687999,98.6559983 431.92,98.992 C432.152001,99.3280017 432.667996,99.496 433.468,99.496 L433.468,100 L427.972,100 L427.972,99.496 C428.772004,99.496 429.287999,99.3280017 429.52,98.992 C429.752001,98.6559983 429.868,97.888006 429.868,96.688 L429.868,92.848 L427.9,92.848 L427.9,92.008 L429.868,92.008 L429.868,89.704 C429.868,88.1839924 430.247996,87.0520037 431.008,86.308 C431.768004,85.5639963 432.699994,85.192 433.804,85.192 C434.540004,85.192 435.123998,85.3799981 435.556,85.756 C435.988002,86.1320019 436.204,86.5359978 436.204,86.968 C436.204,87.2240013 436.136001,87.4319992 436,87.592 C435.863999,87.7520008 435.668001,87.832 435.412,87.832 C435.155999,87.832 434.956001,87.736001 434.812,87.544 C434.667999,87.351999 434.572,87.1400012 434.524,86.908 C434.476,86.6759988 434.356001,86.464001 434.164,86.272 C433.971999,86.079999 433.708002,85.984 433.372,85.984 C432.747997,85.984 432.292001,86.2679972 432.004,86.836 C431.715999,87.4040028 431.572,88.3599933 431.572,89.704 L431.572,92.008 L433.972,92.008 L433.972,92.848 L431.572,92.848 Z M449.164,93.808 L442.156,93.808 L442.156,92.728 L449.164,92.728 L449.164,93.808 Z M449.164,96.808 L442.156,96.808 L442.156,95.728 L449.164,95.728 L449.164,96.808 Z M462.94,97.24 C462.827999,97.3360005 462.688001,97.483999 462.52,97.684 C462.351999,97.884001 462.196001,98.0439994 462.052,98.164 C461.907999,98.2840006 461.764001,98.344 461.62,98.344 C461.491999,98.344 461.376001,98.2920005 461.272,98.188 C461.167999,98.0839995 461.116,97.9520008 461.116,97.792 C461.116,97.5039986 461.323998,97.2080015 461.74,96.904 L463.516,95.488 C463.980002,95.1359982 464.359999,94.6840028 464.656,94.132 C464.952001,93.5799972 465.1,93.008003 465.1,92.416 C465.1,91.7439966 464.860002,91.208002 464.38,90.808 C463.899998,90.407998 463.268004,90.208 462.484,90.208 C461.651996,90.208 460.956003,90.5599965 460.396,91.264 C459.835997,91.9680035 459.843997,92.815995 460.42,93.808 L459.7,94.552 C458.771995,93.9919972 458.272,93.2840043 458.2,92.428 C458.128,91.5719957 458.491996,90.8200032 459.292,90.172 C460.092004,89.5239968 461.155993,89.2 462.484,89.2 C463.716006,89.2 464.787995,89.495997 465.7,90.088 C466.612005,90.680003 467.068,91.4559952 467.068,92.416 C467.068,92.7680018 466.992001,93.1279982 466.84,93.496 C466.687999,93.8640018 466.504001,94.1759987 466.288,94.432 C466.071999,94.6880013 465.856001,94.9239989 465.64,95.14 C465.423999,95.3560011 465.244001,95.5199994 465.1,95.632 L464.86,95.776 L463.756,96.616 C464.908006,96.8560012 465.819997,97.3279965 466.492,98.032 C467.164003,98.7360035 467.5,99.5519954 467.5,100.48 C467.5,101.584006 467.040005,102.527996 466.12,103.312 C465.199995,104.096004 464.068007,104.488 462.724,104.488 C461.427994,104.488 460.364004,104.176003 459.532,103.552 C458.699996,102.927997 458.284,102.336003 458.284,101.776 C458.284,101.407998 458.491998,101.224 458.908,101.224 C459.068001,101.224 459.207999,101.295999 459.328,101.44 C459.448001,101.584001 459.583999,101.783999 459.736,102.04 C459.888001,102.296001 460.035999,102.495999 460.18,102.64 C460.772003,103.264003 461.555995,103.576 462.532,103.576 C463.476005,103.576 464.183998,103.292003 464.656,102.724 C465.128002,102.155997 465.364,101.408005 465.364,100.48 C465.364,99.7119962 465.168002,99.024003 464.776,98.416 C464.383998,97.807997 463.772004,97.4160009 462.94,97.24 Z M484.636,86.104 C483.691995,86.104 483.080001,86.2199988 482.8,86.452 C482.519999,86.6840012 482.180002,87.2639954 481.78,88.192 L476.5,100.408 L476.188,100.408 L470.884,88.192 C470.483998,87.2639954 470.144001,86.6840012 469.864,86.452 C469.583999,86.2199988 468.972005,86.104 468.028,86.104 L468.028,85.6 L474.676,85.6 L474.676,86.104 C473.683995,86.104 473.048001,86.2439986 472.768,86.524 C472.487999,86.8040014 472.499998,87.2719967 472.804,87.928 L476.884,97.264 L480.916,87.928 C481.220002,87.2719967 481.232001,86.8040014 480.952,86.524 C480.671999,86.2439986 480.036005,86.104 479.044,86.104 L479.044,85.6 L484.636,85.6 L484.636,86.104 Z" id="Vf-=-3V-Copy" fill="#1A80AA"></path>
            <path d="M147.074266,107 L147.074266,105.195312 L151.843797,105.195312 C150.445352,104.14062 149.396535,102.951178 148.697313,101.626953 C147.99809,100.302728 147.648484,98.843758 147.648484,97.25 C147.648484,94.9062383 148.406289,92.9824294 149.921922,91.4785156 C151.437554,89.9746019 153.378941,89.2226562 155.746141,89.2226562 C158.11334,89.2226562 160.054727,89.9726487 161.570359,91.4726562 C163.085992,92.9726637 163.843797,94.8984257 163.843797,97.25 C163.843797,98.8515705 163.494191,100.314447 162.794969,101.638672 C162.095747,102.962897 161.046929,104.148432 159.648484,105.195312 L164.418016,105.195312 L164.418016,107 L157.269578,107 L157.269578,105.195312 C158.589897,104.304683 159.582075,103.210944 160.246141,101.914062 C160.910206,100.617181 161.242234,99.117196 161.242234,97.4140625 C161.242234,95.421865 160.755911,93.8593807 159.78325,92.7265625 C158.810589,91.5937443 157.464899,91.0273438 155.746141,91.0273438 C154.035195,91.0273438 152.691458,91.5937443 151.714891,92.7265625 C150.738323,93.8593807 150.250047,95.4257712 150.250047,97.4257812 C150.250047,99.1211022 150.582075,100.615228 151.246141,101.908203 C151.910206,103.201178 152.90629,104.296871 154.234422,105.195312 L154.234422,107 L147.074266,107 Z M172.688922,105.224 C172.928923,105.448001 173.048922,105.719998 173.048922,106.04 C173.048922,106.360002 172.932923,106.631999 172.700922,106.856 C172.468921,107.080001 172.200923,107.192 171.896922,107.192 C171.59292,107.192 171.328923,107.080001 171.104922,106.856 C170.880921,106.631999 170.768922,106.360002 170.768922,106.04 C170.768922,105.719998 170.880921,105.448001 171.104922,105.224 C171.328923,104.999999 171.59292,104.888 171.896922,104.888 C172.200923,104.888 172.464921,104.999999 172.688922,105.224 Z M175.808922,95.984 C175.808922,95.0559954 175.444926,94.3200027 174.716922,93.776 C173.988918,93.2319973 173.112927,92.96 172.088922,92.96 C171.240918,92.96 170.560924,93.1279983 170.048922,93.464 C169.536919,93.8000017 169.280922,94.167998 169.280922,94.568 C169.280922,94.9840021 169.624918,95.192 170.312922,95.192 C170.568923,95.192 170.792921,95.2839991 170.984922,95.468 C171.176923,95.6520009 171.272922,95.8719987 171.272922,96.128 C171.272922,96.4800018 171.140923,96.7479991 170.876922,96.932 C170.612921,97.1160009 170.336923,97.208 170.048922,97.208 C169.60092,97.208 169.188924,97.0000021 168.812922,96.584 C168.43692,96.1679979 168.248922,95.6320033 168.248922,94.976 C168.248922,94.2239962 168.632918,93.5720028 169.400922,93.02 C170.168926,92.4679972 171.128916,92.192 172.280922,92.192 C173.656929,92.192 174.852917,92.5639963 175.868922,93.308 C176.884927,94.0520037 177.392922,95.0319939 177.392922,96.248 C177.392922,97.0320039 177.220924,97.7319969 176.876922,98.348 C176.53292,98.9640031 176.116924,99.4239985 175.628922,99.728 C175.140919,100.032002 174.656924,100.279999 174.176922,100.472 C173.696919,100.664001 173.280924,100.784 172.928922,100.832 L172.424922,100.904 L172.424922,103.16 L171.368922,103.16 L171.368922,99.224 C172.552928,99.224 173.588917,98.9600026 174.476922,98.432 C175.364926,97.9039974 175.808922,97.0880055 175.808922,95.984 Z" id="Ω?-Copy" fill="#1A80AA"></path>
            <path d="M321.892,130 L315.412,130 L315.412,129.496 C316.404005,129.496 317.031999,129.328002 317.296,128.992 C317.560001,128.655998 317.692,127.888006 317.692,126.688 L317.692,118.888 C317.692,117.687994 317.560001,116.924002 317.296,116.596 C317.031999,116.267998 316.404005,116.104 315.412,116.104 L315.412,115.6 L321.892,115.6 L321.892,116.104 C320.899995,116.104 320.272001,116.267998 320.008,116.596 C319.743999,116.924002 319.612,117.687994 319.612,118.888 L319.612,126.688 C319.612,127.888006 319.743999,128.655998 320.008,128.992 C320.272001,129.328002 320.899995,129.496 321.892,129.496 L321.892,130 Z M326.316,131.848 L326.316,135.688 C326.316,136.888006 326.431999,137.655998 326.664,137.992 C326.896001,138.328002 327.411996,138.496 328.212,138.496 L328.212,139 L322.716,139 L322.716,138.496 C323.516004,138.496 324.031999,138.328002 324.264,137.992 C324.496001,137.655998 324.612,136.888006 324.612,135.688 L324.612,131.848 L322.644,131.848 L322.644,131.008 L324.612,131.008 L324.612,128.704 C324.612,127.183992 324.991996,126.052004 325.752,125.308 C326.512004,124.563996 327.443994,124.192 328.548,124.192 C329.284004,124.192 329.867998,124.379998 330.3,124.756 C330.732002,125.132002 330.948,125.535998 330.948,125.968 C330.948,126.224001 330.880001,126.431999 330.744,126.592 C330.607999,126.752001 330.412001,126.832 330.156,126.832 C329.899999,126.832 329.700001,126.736001 329.556,126.544 C329.411999,126.351999 329.316,126.140001 329.268,125.908 C329.22,125.675999 329.100001,125.464001 328.908,125.272 C328.715999,125.079999 328.452002,124.984 328.116,124.984 C327.491997,124.984 327.036001,125.267997 326.748,125.836 C326.459999,126.404003 326.316,127.359993 326.316,128.704 L326.316,131.008 L328.716,131.008 L328.716,131.848 L326.316,131.848 Z M338.708,134.128 L338.708,135.688 C338.708,136.952006 338.791999,137.735998 338.96,138.04 C339.128001,138.344002 339.547997,138.496 340.22,138.496 L340.22,139 L335.516,139 L335.516,138.496 C336.188003,138.496 336.607999,138.344002 336.776,138.04 C336.944001,137.735998 337.028,136.952006 337.028,135.688 L337.028,134.296 C337.028,132.583991 336.452006,131.728 335.3,131.728 C334.803998,131.728 334.268003,131.959998 333.692,132.424 C333.115997,132.888002 332.828,133.455997 332.828,134.128 L332.828,135.688 C332.828,136.936006 332.911999,137.715998 333.08,138.028 C333.248001,138.340002 333.659997,138.496 334.316,138.496 L334.316,139 L329.228,139 L329.228,138.496 C330.028004,138.496 330.543999,138.328002 330.776,137.992 C331.008001,137.655998 331.124,136.888006 331.124,135.688 L331.124,134.488 C331.124,133.303994 331.008001,132.544002 330.776,132.208 C330.543999,131.871998 330.028004,131.704 329.228,131.704 L329.228,131.2 L332.42,130.6 C332.564001,130.904002 332.699999,131.479996 332.828,132.328 C333.740005,131.175994 334.779994,130.6 335.948,130.6 C337.276007,130.6 338.123998,131.199994 338.492,132.4 C338.812002,131.951998 339.287997,131.540002 339.92,131.164 C340.552003,130.787998 341.195997,130.6 341.852,130.6 C343.692009,130.6 344.612,131.791988 344.612,134.176 L344.612,135.688 C344.612,136.888006 344.727999,137.655998 344.96,137.992 C345.192001,138.328002 345.707996,138.496 346.508,138.496 L346.508,139 L341.42,139 L341.42,138.496 C342.092003,138.496 342.507999,138.344002 342.668,138.04 C342.828001,137.735998 342.908,136.952006 342.908,135.688 L342.908,134.296 C342.908,132.583991 342.340006,131.728 341.204,131.728 C340.707998,131.728 340.168003,131.959998 339.584,132.424 C338.999997,132.888002 338.708,133.455997 338.708,134.128 Z M355.276,138.52 C354.811998,139.016002 354.284003,139.264 353.692,139.264 C352.731995,139.264 352.188001,138.800005 352.06,137.872 C350.987995,138.832005 349.988005,139.312 349.06,139.312 C348.451997,139.312 347.940002,139.132002 347.524,138.772 C347.107998,138.411998 346.9,137.920003 346.9,137.296 C346.9,135.615992 348.603983,134.480003 352.012,133.888 C352.012,132.943995 351.908001,132.288002 351.7,131.92 C351.491999,131.551998 351.060003,131.368 350.404,131.368 C350.083998,131.368 349.776001,131.471999 349.48,131.68 C349.183999,131.888001 349.036,132.167998 349.036,132.52 C349.036,132.760001 348.956001,132.959999 348.796,133.12 C348.635999,133.280001 348.444001,133.36 348.22,133.36 C347.979999,133.36 347.780001,133.280001 347.62,133.12 C347.459999,132.959999 347.38,132.760001 347.38,132.52 C347.38,131.959997 347.687997,131.500002 348.304,131.14 C348.920003,130.779998 349.627996,130.6 350.428,130.6 C351.596006,130.6 352.435997,130.855997 352.948,131.368 C353.460003,131.880003 353.716,132.711994 353.716,133.864 L353.716,137.488 C353.716,138.112003 353.899998,138.424 354.268,138.424 C354.476001,138.424 354.699999,138.304001 354.94,138.064 L355.276,138.52 Z M352.012,137.08 L352.012,134.632 C349.803989,135.144003 348.7,135.935995 348.7,137.008 C348.7,137.376002 348.807999,137.671999 349.024,137.896 C349.240001,138.120001 349.507998,138.232 349.828,138.232 C350.420003,138.232 351.147996,137.848004 352.012,137.08 Z M359.1,135.832 L357.9,137.104 C356.971995,138.032005 357.139994,138.496 358.404,138.496 L358.404,139 L354.708,139 L354.708,138.496 C355.172002,138.496 355.867995,138.032005 356.796,137.104 L358.62,135.184 L356.964,132.904 C356.531998,132.343997 356.172001,131.968001 355.884,131.776 C355.595999,131.583999 355.252002,131.488 354.852,131.488 L354.852,131.008 L359.7,131.008 L359.7,131.488 C359.011997,131.488 358.62,131.587999 358.524,131.788 C358.428,131.988001 358.587998,132.359997 359.004,132.904 L359.772,133.96 L360.78,132.904 C361.212002,132.423998 361.364001,132.068001 361.236,131.836 C361.107999,131.603999 360.788003,131.488 360.276,131.488 L360.276,131.008 L364.188,131.008 L364.188,131.488 C363.547997,131.488 362.780004,131.959995 361.884,132.904 L360.252,134.608 L362.052,137.104 C362.420002,137.632003 362.767998,137.995999 363.096,138.196 C363.424002,138.396001 363.835998,138.496 364.332,138.496 L364.332,139 L359.292,139 L359.292,138.496 C359.916003,138.496 360.279999,138.380001 360.384,138.148 C360.488001,137.915999 360.364002,137.568002 360.012,137.104 L359.1,135.832 Z M376.924,123.808 L369.916,123.808 L369.916,122.728 L376.924,122.728 L376.924,123.808 Z M376.924,126.808 L369.916,126.808 L369.916,125.728 L376.924,125.728 L376.924,126.808 Z M390.62,125.776 L386.924,128.608 L393.14,128.608 L392.54,131.896 L392.036,131.896 C392.036,131.095996 391.868002,130.580001 391.532,130.348 C391.195998,130.115999 390.428006,130 389.228,130 L384.284,130 L384.284,129.424 L388.532,126.088 C390.068008,124.871994 390.836,123.656006 390.836,122.44 C390.836,121.751997 390.600002,121.208002 390.128,120.808 C389.655998,120.407998 389.028004,120.208 388.244,120.208 C387.331995,120.208 386.628002,120.559996 386.132,121.264 C385.635998,121.968004 385.651997,122.815995 386.18,123.808 L385.46,124.552 C384.531995,123.991997 384.032,123.284004 383.96,122.428 C383.888,121.571996 384.251996,120.820003 385.052,120.172 C385.852004,119.523997 386.915993,119.2 388.244,119.2 C389.476006,119.2 390.547995,119.495997 391.46,120.088 C392.372005,120.680003 392.828,121.455995 392.828,122.416 C392.828,122.768002 392.752001,123.127998 392.6,123.496 C392.447999,123.864002 392.264001,124.175999 392.048,124.432 C391.831999,124.688001 391.616001,124.923999 391.4,125.14 C391.183999,125.356001 391.004001,125.519999 390.86,125.632 L390.62,125.776 Z M397.132,120.856 C398.236006,119.751994 399.555992,119.2 401.092,119.2 C402.628008,119.2 403.943995,119.747995 405.04,120.844 C406.136005,121.940005 406.684,123.255992 406.684,124.792 C406.684,126.344008 406.136005,127.667995 405.04,128.764 C403.943995,129.860005 402.628008,130.408 401.092,130.408 C399.555992,130.408 398.240005,129.860005 397.144,128.764 C396.047995,127.667995 395.5,126.344008 395.5,124.792 C395.5,123.255992 396.043995,121.944005 397.132,120.856 Z M401.092,120.568 C399.971994,120.568 399.016004,120.983996 398.224,121.816 C397.431996,122.648004 397.036,123.639994 397.036,124.792 C397.036,125.960006 397.431996,126.955996 398.224,127.78 C399.016004,128.604004 399.971994,129.016 401.092,129.016 C402.196006,129.016 403.147996,128.604004 403.948,127.78 C404.748004,126.955996 405.148,125.960006 405.148,124.792 C405.148,123.639994 404.748004,122.648004 403.948,121.816 C403.147996,120.983996 402.196006,120.568 401.092,120.568 Z M417.588,125.128 L417.588,126.688 C417.588,127.952006 417.671999,128.735998 417.84,129.04 C418.008001,129.344002 418.427997,129.496 419.1,129.496 L419.1,130 L414.396,130 L414.396,129.496 C415.068003,129.496 415.487999,129.344002 415.656,129.04 C415.824001,128.735998 415.908,127.952006 415.908,126.688 L415.908,125.296 C415.908,123.583991 415.332006,122.728 414.18,122.728 C413.683998,122.728 413.148003,122.959998 412.572,123.424 C411.995997,123.888002 411.708,124.455997 411.708,125.128 L411.708,126.688 C411.708,127.936006 411.791999,128.715998 411.96,129.028 C412.128001,129.340002 412.539997,129.496 413.196,129.496 L413.196,130 L408.108,130 L408.108,129.496 C408.908004,129.496 409.423999,129.328002 409.656,128.992 C409.888001,128.655998 410.004,127.888006 410.004,126.688 L410.004,125.488 C410.004,124.303994 409.888001,123.544002 409.656,123.208 C409.423999,122.871998 408.908004,122.704 408.108,122.704 L408.108,122.2 L411.3,121.6 C411.444001,121.904002 411.579999,122.479996 411.708,123.328 C412.620005,122.175994 413.659994,121.6 414.828,121.6 C416.156007,121.6 417.003998,122.199994 417.372,123.4 C417.692002,122.951998 418.167997,122.540002 418.8,122.164 C419.432003,121.787998 420.075997,121.6 420.732,121.6 C422.572009,121.6 423.492,122.791988 423.492,125.176 L423.492,126.688 C423.492,127.888006 423.607999,128.655998 423.84,128.992 C424.072001,129.328002 424.587996,129.496 425.388,129.496 L425.388,130 L420.3,130 L420.3,129.496 C420.972003,129.496 421.387999,129.344002 421.548,129.04 C421.708001,128.735998 421.788,127.952006 421.788,126.688 L421.788,125.296 C421.788,123.583991 421.220006,122.728 420.084,122.728 C419.587998,122.728 419.048003,122.959998 418.464,123.424 C417.879997,123.888002 417.588,124.455997 417.588,125.128 Z M428.852,125.008 L427.7,127.672 C427.395998,128.328003 427.383999,128.795999 427.664,129.076 C427.944001,129.356001 428.579995,129.496 429.572,129.496 L429.572,130 L423.956,130 L423.956,129.496 C424.468003,129.496 424.863999,129.476 425.144,129.436 C425.424001,129.396 425.671999,129.268001 425.888,129.052 C426.104001,128.835999 426.256,128.640001 426.344,128.464 C426.432,128.287999 426.595999,127.936003 426.836,127.408 L432.116,115.192 L432.428,115.192 L437.732,127.408 C437.972001,127.936003 438.136,128.287999 438.224,128.464 C438.312,128.640001 438.463999,128.835999 438.68,129.052 C438.896001,129.268001 439.139999,129.396 439.412,129.436 C439.684001,129.476 440.075997,129.496 440.588,129.496 L440.588,130 L433.94,130 L433.94,129.496 C434.932005,129.496 435.563999,129.356001 435.836,129.076 C436.108001,128.795999 436.100001,128.328003 435.812,127.672 L434.66,125.008 L428.852,125.008 Z M434.252,124.12 L431.732,118.336 L429.236,124.12 L434.252,124.12 Z" id="Ifmax-=-20mA-Copy-3" fill="#1A80AA"></path>
            <path d="M292.56,13.088 C292.56,12.5599974 292.384002,12.1680013 292.032,11.912 C291.679998,11.6559987 291.104004,11.528 290.304,11.528 L290.304,11.048 L296.592,11.048 L296.592,11.528 C295.599995,11.528 294.972001,11.6959983 294.708,12.032 C294.443999,12.3680017 294.312,13.135994 294.312,14.336 L294.312,16.16 C293.415996,16.16 292.356006,16.3679979 291.132,16.784 C289.907994,17.2000021 288.888004,17.408 288.072,17.408 C286.03999,17.408 284.304007,16.6640074 282.864,15.176 C281.423993,13.6879926 280.704,11.8960105 280.704,9.8 C280.704,7.70398952 281.423993,5.91200744 282.864,4.424 C284.304007,2.93599256 286.03999,2.192 288.072,2.192 C289.768008,2.192 291.255994,2.8719932 292.536,4.232 C292.968002,3.89599832 293.239999,3.44000288 293.352,2.864 L293.832,2.864 L293.832,8.144 L293.352,8.144 C293.031998,6.57599216 292.416005,5.34800444 291.504,4.46 C290.591995,3.57199556 289.472007,3.128 288.144,3.128 C287.231995,3.128 286.424004,3.33199796 285.72,3.74 C285.015996,4.14800204 284.468002,4.68799664 284.076,5.36 C283.683998,6.03200336 283.392001,6.74399624 283.2,7.496 C283.007999,8.24800376 282.912,9.01599608 282.912,9.8 C282.912,10.4400032 282.963999,11.0519971 283.068,11.636 C283.172001,12.2200029 283.359999,12.807997 283.632,13.4 C283.904001,13.992003 284.247998,14.4999979 284.664,14.924 C285.080002,15.3480021 285.627997,15.6959986 286.308,15.968 C286.988003,16.2400014 287.751996,16.376 288.6,16.376 C289.704006,16.376 290.639996,16.0840029 291.408,15.5 C292.176004,14.9159971 292.56,14.1120051 292.56,13.088 Z M305.328,10.088 C305.328,10.8400038 305.008003,11.216 304.368,11.216 C304.143999,11.216 303.948001,11.1280009 303.78,10.952 C303.611999,10.7759991 303.528,10.5760011 303.528,10.352 C303.528,9.82399736 303.272003,9.56 302.76,9.56 C302.391998,9.56 301.992002,9.81599744 301.56,10.328 C301.127998,10.8400026 300.912,11.5199958 300.912,12.368 L300.912,13.688 C300.912,14.888006 301.027999,15.6559983 301.26,15.992 C301.492001,16.3280017 302.007996,16.496 302.808,16.496 L302.808,17 L297.312,17 L297.312,16.496 C298.112004,16.496 298.627999,16.3280017 298.86,15.992 C299.092001,15.6559983 299.208,14.888006 299.208,13.688 L299.208,12.488 C299.208,11.3039941 299.092001,10.5440017 298.86,10.208 C298.627999,9.87199832 298.112004,9.704 297.312,9.704 L297.312,9.2 L300.504,8.6 C300.648001,8.90400152 300.783999,9.47999576 300.912,10.328 C301.152001,9.8479976 301.511998,9.44000168 301.992,9.104 C302.472002,8.76799832 302.951998,8.6 303.432,8.6 C304.040003,8.6 304.507998,8.7599984 304.836,9.08 C305.164002,9.4000016 305.328,9.73599824 305.328,10.088 Z M308.64,11.504 L312.624,11.504 C312.784001,11.0559978 312.716001,10.6200021 312.42,10.196 C312.123999,9.77199788 311.616004,9.56 310.896,9.56 C310.383997,9.56 309.924002,9.73599824 309.516,10.088 C309.107998,10.4400018 308.816001,10.911997 308.64,11.504 Z M308.496,12.392 C308.351999,13.5760059 308.539997,14.5399963 309.06,15.284 C309.580003,16.0280037 310.431994,16.4 311.616,16.4 C312.016002,16.4 312.471997,16.296001 312.984,16.088 C313.496003,15.879999 313.919998,15.6160016 314.256,15.296 L314.688,15.824 C314.255998,16.2880023 313.704003,16.6679985 313.032,16.964 C312.359997,17.2600015 311.688003,17.408 311.016,17.408 C309.719994,17.408 308.656004,16.9800043 307.824,16.124 C306.991996,15.2679957 306.576,14.2240062 306.576,12.992 C306.576,11.7599938 307.027995,10.7200042 307.932,9.872 C308.836005,9.02399576 309.863994,8.6 311.016,8.6 C312.104005,8.6 312.991997,8.9799962 313.68,9.74 C314.368003,10.5000038 314.568001,11.383995 314.28,12.392 L308.496,12.392 Z M318.768,11.504 L322.752,11.504 C322.912001,11.0559978 322.844001,10.6200021 322.548,10.196 C322.251999,9.77199788 321.744004,9.56 321.024,9.56 C320.511997,9.56 320.052002,9.73599824 319.644,10.088 C319.235998,10.4400018 318.944001,10.911997 318.768,11.504 Z M318.624,12.392 C318.479999,13.5760059 318.667997,14.5399963 319.188,15.284 C319.708003,16.0280037 320.559994,16.4 321.744,16.4 C322.144002,16.4 322.599997,16.296001 323.112,16.088 C323.624003,15.879999 324.047998,15.6160016 324.384,15.296 L324.816,15.824 C324.383998,16.2880023 323.832003,16.6679985 323.16,16.964 C322.487997,17.2600015 321.816003,17.408 321.144,17.408 C319.847994,17.408 318.784004,16.9800043 317.952,16.124 C317.119996,15.2679957 316.704,14.2240062 316.704,12.992 C316.704,11.7599938 317.155995,10.7200042 318.06,9.872 C318.964005,9.02399576 319.991994,8.6 321.144,8.6 C322.232005,8.6 323.119997,8.9799962 323.808,9.74 C324.496003,10.5000038 324.696001,11.383995 324.408,12.392 L318.624,12.392 Z M330.192,10.328 C331.104005,9.17599424 332.215993,8.6 333.528,8.6 C334.568005,8.6 335.347997,8.92799672 335.868,9.584 C336.388003,10.2400033 336.648,11.1039946 336.648,12.176 L336.648,13.688 C336.648,14.888006 336.763999,15.6559983 336.996,15.992 C337.228001,16.3280017 337.743996,16.496 338.544,16.496 L338.544,17 L333.048,17 L333.048,16.496 C333.832004,16.496 334.343999,16.3240017 334.584,15.98 C334.824001,15.6359983 334.944,14.8720059 334.944,13.688 L334.944,12.296 C334.944,10.5839914 334.280007,9.728 332.952,9.728 C332.263997,9.728 331.632003,9.9679976 331.056,10.448 C330.479997,10.9280024 330.192,11.4879968 330.192,12.128 L330.192,13.688 C330.192,14.9200062 330.287999,15.6959984 330.48,16.016 C330.672001,16.3360016 331.135996,16.496 331.872,16.496 L331.872,17 L326.592,17 L326.592,16.496 C327.392004,16.496 327.907999,16.3280017 328.14,15.992 C328.372001,15.6559983 328.488,14.888006 328.488,13.688 L328.488,12.488 C328.488,11.3039941 328.372001,10.5440017 328.14,10.208 C327.907999,9.87199832 327.392004,9.704 326.592,9.704 L326.592,9.2 L329.784,8.6 C329.928001,8.90400152 330.063999,9.47999576 330.192,10.328 Z M279.912,41 L279.912,40.496 C280.904005,40.496 281.531999,40.3280017 281.796,39.992 C282.060001,39.6559983 282.192,38.888006 282.192,37.688 L282.192,29.888 C282.192,28.687994 282.060001,27.9240016 281.796,27.596 C281.531999,27.2679984 280.904005,27.104 279.912,27.104 L279.912,26.6 L286.392,26.6 L286.392,27.104 C285.399995,27.104 284.772001,27.2679984 284.508,27.596 C284.243999,27.9240016 284.112,28.687994 284.112,29.888 L284.112,37.328 C284.112,38.528006 284.243999,39.2919984 284.508,39.62 C284.772001,39.9480016 285.399995,40.112 286.392,40.112 L289.272,40.112 C290.296005,40.112 290.967998,39.9840013 291.288,39.728 C291.608002,39.4719987 291.855999,38.9920035 292.032,38.288 L292.152,37.808 L292.656,37.808 L292.464,41 L279.912,41 Z M293.712,41 L293.712,40.496 C294.704005,40.496 295.331999,40.3280017 295.596,39.992 C295.860001,39.6559983 295.992,38.888006 295.992,37.688 L295.992,29.888 C295.992,28.687994 295.860001,27.9240016 295.596,27.596 C295.331999,27.2679984 294.704005,27.104 293.712,27.104 L293.712,26.6 L304.656,26.6 L304.872,29.768 L304.368,29.768 L304.248,29.288 C304.055999,28.5839965 303.800002,28.1080012 303.48,27.86 C303.159998,27.6119988 302.488005,27.488 301.464,27.488 L297.912,27.488 L297.912,32.936 L299.112,32.936 C300.312006,32.936 301.075998,32.8040013 301.404,32.54 C301.732002,32.2759987 301.896,31.640005 301.896,30.632 L302.4,30.632 L302.4,36.128 L301.896,36.128 C301.896,35.119995 301.732002,34.4840013 301.404,34.22 C301.075998,33.9559987 300.312006,33.824 299.112,33.824 L297.912,33.824 L297.912,37.328 C297.912,38.528006 298.043999,39.2919984 298.308,39.62 C298.572001,39.9480016 299.199995,40.112 300.192,40.112 L302.256,40.112 C302.976004,40.112 303.523998,40.0400007 303.9,39.896 C304.276002,39.7519993 304.531999,39.5680011 304.668,39.344 C304.804001,39.1199989 304.927999,38.7680024 305.04,38.288 L305.16,37.808 L305.664,37.808 L305.472,41 L293.712,41 Z M307.704,41 L307.704,40.496 C308.696005,40.496 309.323999,40.3280017 309.588,39.992 C309.852001,39.6559983 309.984,38.888006 309.984,37.688 L309.984,29.888 C309.984,28.687994 309.852001,27.9240016 309.588,27.596 C309.323999,27.2679984 308.696005,27.104 307.704,27.104 L307.704,26.6 L314.208,26.6 C316.864013,26.6 318.863993,27.2719933 320.208,28.616 C321.552007,29.9600067 322.224,31.6879894 322.224,33.8 C322.224,35.9120106 321.552007,37.6399933 320.208,38.984 C318.863993,40.3280067 316.864013,41 314.208,41 L307.704,41 Z M311.904,27.488 L311.904,37.328 C311.904,38.5440061 312.031999,39.3119984 312.288,39.632 C312.544001,39.9520016 313.159995,40.112 314.136,40.112 L314.232,40.112 C315.336006,40.112 316.283996,39.9200019 317.076,39.536 C317.868004,39.1519981 318.459998,38.6360032 318.852,37.988 C319.244002,37.3399968 319.519999,36.6760034 319.68,35.996 C319.840001,35.3159966 319.92,34.5840039 319.92,33.8 C319.92,33.0159961 319.840001,32.2840034 319.68,31.604 C319.519999,30.9239966 319.244002,30.2600032 318.852,29.612 C318.459998,28.9639968 317.868004,28.4480019 317.076,28.064 C316.283996,27.6799981 315.336006,27.488 314.232,27.488 L311.904,27.488 Z" id="Green-LED-Copy" fill="#524740"></path>
            <path d="M417.016,16.112 C418.008005,16.112 418.767997,15.816003 419.296,15.224 C419.824003,14.631997 420.088,13.8800046 420.088,12.968 C420.088,12.0399954 419.824003,11.276003 419.296,10.676 C418.767997,10.075997 418.008005,9.776 417.016,9.776 L414.112,9.776 L414.112,13.328 C414.112,14.528006 414.243999,15.2919984 414.508,15.62 C414.772001,15.9480016 415.399995,16.112 416.392,16.112 L417.016,16.112 Z M414.112,3.488 L414.112,8.888 L416.248,8.888 C417.112004,8.888 417.767998,8.63600252 418.216,8.132 C418.664002,7.62799748 418.888,6.98400392 418.888,6.2 C418.888,5.41599608 418.664002,4.76800256 418.216,4.256 C417.767998,3.74399744 417.112004,3.488 416.248,3.488 L414.112,3.488 Z M419.128,9.176 C420.056005,9.46400144 420.799997,9.95199656 421.36,10.64 C421.920003,11.3280034 422.2,12.1039957 422.2,12.968 C422.2,14.1360058 421.744005,15.0999962 420.832,15.86 C419.919995,16.6200038 418.656008,17 417.04,17 L409.912,17 L409.912,16.496 C410.904005,16.496 411.531999,16.3280017 411.796,15.992 C412.060001,15.6559983 412.192,14.888006 412.192,13.688 L412.192,5.888 C412.192,4.687994 412.060001,3.92400164 411.796,3.596 C411.531999,3.26799836 410.904005,3.104 409.912,3.104 L409.912,2.6 L416.368,2.6 C417.840007,2.6 418.979996,2.9399966 419.788,3.62 C420.596004,4.3000034 421,5.1599948 421,6.2 C421,7.44800624 420.376006,8.43999632 419.128,9.176 Z M429.544,17 L424.048,17 L424.048,16.496 C424.848004,16.496 425.363999,16.3280017 425.596,15.992 C425.828001,15.6559983 425.944,14.888006 425.944,13.688 L425.944,6.104 C425.944,4.903994 425.828001,4.13600168 425.596,3.8 C425.363999,3.46399832 424.848004,3.296 424.048,3.296 L424.048,2.792 L427.648,2.192 L427.648,13.688 C427.648,14.888006 427.763999,15.6559983 427.996,15.992 C428.228001,16.3280017 428.743996,16.496 429.544,16.496 L429.544,17 Z M442.096,16.808 L438.88,17.408 C438.751999,17.1519987 438.624001,16.6400038 438.496,15.872 C437.503995,16.8960051 436.456006,17.408 435.352,17.408 C433.36799,17.408 432.376,16.208012 432.376,13.808 L432.376,12.296 C432.376,11.095994 432.260001,10.3280017 432.028,9.992 C431.795999,9.65599832 431.280004,9.488 430.48,9.488 L430.48,9.008 L434.08,9.008 L434.08,13.688 C434.08,15.4000086 434.687994,16.256 435.904,16.256 C436.448003,16.256 437.015997,16.0280023 437.608,15.572 C438.200003,15.1159977 438.496,14.5520034 438.496,13.88 L438.496,12.296 C438.496,11.095994 438.380001,10.3280017 438.148,9.992 C437.915999,9.65599832 437.392004,9.488 436.576,9.488 L436.576,9.008 L440.176,9.008 L440.176,13.496 C440.176,14.696006 440.291999,15.4639983 440.524,15.8 C440.756001,16.1360017 441.279996,16.304 442.096,16.304 L442.096,16.808 Z M445.768,11.504 L449.752,11.504 C449.912001,11.0559978 449.844001,10.6200021 449.548,10.196 C449.251999,9.77199788 448.744004,9.56 448.024,9.56 C447.511997,9.56 447.052002,9.73599824 446.644,10.088 C446.235998,10.4400018 445.944001,10.911997 445.768,11.504 Z M445.624,12.392 C445.479999,13.5760059 445.667997,14.5399963 446.188,15.284 C446.708003,16.0280037 447.559994,16.4 448.744,16.4 C449.144002,16.4 449.599997,16.296001 450.112,16.088 C450.624003,15.879999 451.047998,15.6160016 451.384,15.296 L451.816,15.824 C451.383998,16.2880023 450.832003,16.6679985 450.16,16.964 C449.487997,17.2600015 448.816003,17.408 448.144,17.408 C446.847994,17.408 445.784004,16.9800043 444.952,16.124 C444.119996,15.2679957 443.704,14.2240062 443.704,12.992 C443.704,11.7599938 444.155995,10.7200042 445.06,9.872 C445.964005,9.02399576 446.991994,8.6 448.144,8.6 C449.232005,8.6 450.119997,8.9799962 450.808,9.74 C451.496003,10.5000038 451.696001,11.383995 451.408,12.392 L445.624,12.392 Z M409.912,41 L409.912,40.496 C410.904005,40.496 411.531999,40.3280017 411.796,39.992 C412.060001,39.6559983 412.192,38.888006 412.192,37.688 L412.192,29.888 C412.192,28.687994 412.060001,27.9240016 411.796,27.596 C411.531999,27.2679984 410.904005,27.104 409.912,27.104 L409.912,26.6 L416.392,26.6 L416.392,27.104 C415.399995,27.104 414.772001,27.2679984 414.508,27.596 C414.243999,27.9240016 414.112,28.687994 414.112,29.888 L414.112,37.328 C414.112,38.528006 414.243999,39.2919984 414.508,39.62 C414.772001,39.9480016 415.399995,40.112 416.392,40.112 L419.272,40.112 C420.296005,40.112 420.967998,39.9840013 421.288,39.728 C421.608002,39.4719987 421.855999,38.9920035 422.032,38.288 L422.152,37.808 L422.656,37.808 L422.464,41 L409.912,41 Z M423.712,41 L423.712,40.496 C424.704005,40.496 425.331999,40.3280017 425.596,39.992 C425.860001,39.6559983 425.992,38.888006 425.992,37.688 L425.992,29.888 C425.992,28.687994 425.860001,27.9240016 425.596,27.596 C425.331999,27.2679984 424.704005,27.104 423.712,27.104 L423.712,26.6 L434.656,26.6 L434.872,29.768 L434.368,29.768 L434.248,29.288 C434.055999,28.5839965 433.800002,28.1080012 433.48,27.86 C433.159998,27.6119988 432.488005,27.488 431.464,27.488 L427.912,27.488 L427.912,32.936 L429.112,32.936 C430.312006,32.936 431.075998,32.8040013 431.404,32.54 C431.732002,32.2759987 431.896,31.640005 431.896,30.632 L432.4,30.632 L432.4,36.128 L431.896,36.128 C431.896,35.119995 431.732002,34.4840013 431.404,34.22 C431.075998,33.9559987 430.312006,33.824 429.112,33.824 L427.912,33.824 L427.912,37.328 C427.912,38.528006 428.043999,39.2919984 428.308,39.62 C428.572001,39.9480016 429.199995,40.112 430.192,40.112 L432.256,40.112 C432.976004,40.112 433.523998,40.0400007 433.9,39.896 C434.276002,39.7519993 434.531999,39.5680011 434.668,39.344 C434.804001,39.1199989 434.927999,38.7680024 435.04,38.288 L435.16,37.808 L435.664,37.808 L435.472,41 L423.712,41 Z M437.704,41 L437.704,40.496 C438.696005,40.496 439.323999,40.3280017 439.588,39.992 C439.852001,39.6559983 439.984,38.888006 439.984,37.688 L439.984,29.888 C439.984,28.687994 439.852001,27.9240016 439.588,27.596 C439.323999,27.2679984 438.696005,27.104 437.704,27.104 L437.704,26.6 L444.208,26.6 C446.864013,26.6 448.863993,27.2719933 450.208,28.616 C451.552007,29.9600067 452.224,31.6879894 452.224,33.8 C452.224,35.9120106 451.552007,37.6399933 450.208,38.984 C448.863993,40.3280067 446.864013,41 444.208,41 L437.704,41 Z M441.904,27.488 L441.904,37.328 C441.904,38.5440061 442.031999,39.3119984 442.288,39.632 C442.544001,39.9520016 443.159995,40.112 444.136,40.112 L444.232,40.112 C445.336006,40.112 446.283996,39.9200019 447.076,39.536 C447.868004,39.1519981 448.459998,38.6360032 448.852,37.988 C449.244002,37.3399968 449.519999,36.6760034 449.68,35.996 C449.840001,35.3159966 449.92,34.5840039 449.92,33.8 C449.92,33.0159961 449.840001,32.2840034 449.68,31.604 C449.519999,30.9239966 449.244002,30.2600032 448.852,29.612 C448.459998,28.9639968 447.868004,28.4480019 447.076,28.064 C446.283996,27.6799981 445.336006,27.488 444.232,27.488 L441.904,27.488 Z" id="Blue-LED-Copy" fill="#524740"></path>
        </g>
    </g>
</svg>