<?xml version="1.0" encoding="UTF-8"?>
<svg width="900px" height="260px" viewBox="0 0 900 260" version="1.1" xmlns="http://www.w3.org/2000/svg" xmlns:xlink="http://www.w3.org/1999/xlink">
    <!-- Generator: Sketch 52.5 (67469) - http://www.bohemiancoding.com/sketch -->
    <title>LED_Parallel_Circuit</title>
    <desc>Created with Sketch.</desc>
    <g id="LED_Parallel_Circuit" stroke="none" stroke-width="1" fill="none" fill-rule="evenodd">
        <rect id="Rectangle" stroke="#3D3530" stroke-width="2" fill="#EEEEEE" x="1" y="1" width="898" height="408"></rect>
        <rect id="Rectangle-Copy" stroke="#3D3530" stroke-width="2" fill="#F8FAE4" x="1" y="216" width="898" height="43"></rect>
        <path d="M662.114666,242.416 L669.458666,242.416 L669.458666,244 L660.530666,244 L660.530666,227.872 L662.114666,227.872 L662.114666,242.416 Z M682.677333,229.456 L673.677333,229.456 L673.677333,235 L678.741333,235 L678.741333,236.584 L673.677333,236.584 L673.677333,242.416 L682.677333,242.416 L682.677333,244 L672.093333,244 L672.093333,227.872 L682.677333,227.872 L682.677333,229.456 Z M686.512,244 L686.512,227.872 L690.16,227.872 C692.816013,227.872 694.927992,228.639992 696.496,230.176 C698.064007,231.712008 698.848,233.631988 698.848,235.936 C698.848,238.224011 698.060008,240.139992 696.484,241.684 C694.907992,243.228008 692.800013,244 690.16,244 L686.512,244 Z M688.096,242.488 L690.16,242.488 C692.27201,242.488 693.959993,241.868006 695.224,240.628 C696.488006,239.387994 697.12,237.824009 697.12,235.936 C697.12,234.047991 696.488006,232.484006 695.224,231.244 C693.959993,230.003994 692.27201,229.384 690.16,229.384 L688.096,229.384 L688.096,242.488 Z M709.565333,244 L709.565333,227.872 L715.037333,227.872 C716.845342,227.872 718.285328,228.347995 719.357333,229.3 C720.429338,230.252005 720.965333,231.447993 720.965333,232.888 C720.965333,234.312007 720.429338,235.503995 719.357333,236.464 C718.285328,237.424005 716.845342,237.904 715.037333,237.904 L711.149333,237.904 L711.149333,244 L709.565333,244 Z M711.149333,236.392 L715.037333,236.392 C716.333339,236.392 717.373329,236.060003 718.157333,235.396 C718.941337,234.731997 719.333333,233.896005 719.333333,232.888 C719.333333,231.895995 718.941337,231.064003 718.157333,230.392 C717.373329,229.719997 716.333339,229.384 715.037333,229.384 L711.149333,229.384 L711.149333,236.392 Z M733.68,232 L735.264,232 L735.264,244 L733.68,244 L733.68,242.056 C732.447994,243.480007 730.888009,244.192 729,244.192 C727.287991,244.192 725.828006,243.588006 724.62,242.38 C723.411994,241.171994 722.808,239.712009 722.808,238 C722.808,236.287991 723.411994,234.828006 724.62,233.62 C725.828006,232.411994 727.287991,231.808 729,231.808 C730.904009,231.808 732.463994,232.519993 733.68,233.944 L733.68,232 Z M729.024,242.68 C730.320006,242.68 731.411995,242.228005 732.3,241.324 C733.188004,240.419995 733.632,239.312007 733.632,238 C733.632,236.687993 733.188004,235.580005 732.3,234.676 C731.411995,233.771995 730.320006,233.32 729.024,233.32 C727.743993,233.32 726.652004,233.771995 725.748,234.676 C724.843995,235.580005 724.392,236.687993 724.392,238 C724.392,239.312007 724.843995,240.419995 725.748,241.324 C726.652004,242.228005 727.743993,242.68 729.024,242.68 Z M744.594666,231.808 C745.442671,231.808 746.218663,232.015998 746.922666,232.432 L746.370666,234.016 C745.698663,233.519998 745.01867,233.272 744.330666,233.272 C743.322661,233.272 742.47467,233.627996 741.786666,234.34 C741.098663,235.052004 740.754666,235.927995 740.754666,236.968 L740.754666,244 L739.170666,244 L739.170666,232 L740.754666,232 L740.754666,233.776 C741.730671,232.463993 743.010658,231.808 744.594666,231.808 Z M758.917333,232 L760.501333,232 L760.501333,244 L758.917333,244 L758.917333,242.056 C757.685327,243.480007 756.125343,244.192 754.237333,244.192 C752.525325,244.192 751.065339,243.588006 749.857333,242.38 C748.649327,241.171994 748.045333,239.712009 748.045333,238 C748.045333,236.287991 748.649327,234.828006 749.857333,233.62 C751.065339,232.411994 752.525325,231.808 754.237333,231.808 C756.141343,231.808 757.701327,232.519993 758.917333,233.944 L758.917333,232 Z M754.261333,242.68 C755.55734,242.68 756.649329,242.228005 757.537333,241.324 C758.425338,240.419995 758.869333,239.312007 758.869333,238 C758.869333,236.687993 758.425338,235.580005 757.537333,234.676 C756.649329,233.771995 755.55734,233.32 754.261333,233.32 C752.981327,233.32 751.889338,233.771995 750.985333,234.676 C750.081329,235.580005 749.629333,236.687993 749.629333,238 C749.629333,239.312007 750.081329,240.419995 750.985333,241.324 C751.889338,242.228005 752.981327,242.68 754.261333,242.68 Z M764.552,244 L764.552,226.144 L766.136,226.144 L766.136,244 L764.552,244 Z M770.138666,244 L770.138666,226.144 L771.722666,226.144 L771.722666,244 L770.138666,244 Z M781.149333,242.608 C782.221338,242.608 783.181329,242.304003 784.029333,241.696 C784.877337,241.087997 785.453332,240.376004 785.757333,239.56 L787.101333,240.04 C786.733331,241.048005 786.017338,241.975996 784.953333,242.824 C783.889328,243.672004 782.62134,244.088 781.149333,244.072 C779.805326,244.072 778.577339,243.656004 777.465333,242.824 C776.353328,241.991996 775.597335,240.928006 775.197333,239.632 C775.037332,239.103997 774.957333,238.528003 774.957333,237.904 C774.957333,236.175991 775.557327,234.712006 776.757333,233.512 C777.957339,232.311994 779.421324,231.704 781.149333,231.688 C782.717341,231.704 784.085327,232.231995 785.253333,233.272 C786.421339,234.312005 787.093332,235.599992 787.269333,237.136 C787.285333,237.216 787.293333,237.319999 787.293333,237.448 L776.805333,239.344 C777.077334,240.304005 777.621329,241.091997 778.437333,241.708 C779.253337,242.324003 780.157328,242.624 781.149333,242.608 Z M781.005333,233.152 C779.805327,233.168 778.777337,233.599996 777.921333,234.448 C777.065329,235.296004 776.605333,236.311994 776.541333,237.496 C776.541333,237.544 776.545333,237.627999 776.553333,237.748 C776.561333,237.868001 776.565333,237.968 776.565333,238.048 L785.493333,236.44 C785.189332,235.463995 784.621337,234.668003 783.789333,234.052 C782.957329,233.435997 782.029338,233.136 781.005333,233.152 Z M790.792,244 L790.792,226.144 L792.376,226.144 L792.376,244 L790.792,244 Z M810.869333,244.192 C808.501321,244.192 806.61334,243.404008 805.205333,241.828 C803.797326,240.251992 803.093333,238.296012 803.093333,235.96 C803.093333,233.607988 803.797326,231.644008 805.205333,230.068 C806.61334,228.491992 808.501321,227.704 810.869333,227.704 C812.437341,227.704 813.801327,228.063996 814.961333,228.784 C816.121339,229.504004 817.02133,230.487994 817.661333,231.736 L816.173333,232.6 C815.661331,231.559995 814.945338,230.736003 814.025333,230.128 C813.105329,229.519997 812.053339,229.216 810.869333,229.216 C809.045324,229.216 807.585339,229.851994 806.489333,231.124 C805.393328,232.396006 804.845333,234.00799 804.845333,235.96 C804.845333,237.89601 805.393328,239.503994 806.489333,240.784 C807.585339,242.064006 809.045324,242.704 810.869333,242.704 C812.069339,242.704 813.129329,242.396003 814.049333,241.78 C814.969338,241.163997 815.677331,240.336005 816.173333,239.296 L817.661333,240.184 C817.02133,241.432006 816.121339,242.411996 814.961333,243.124 C813.801327,243.836004 812.437341,244.192 810.869333,244.192 Z M822.84,228.4 C822.663999,228.592001 822.440001,228.688 822.168,228.688 C821.895999,228.688 821.668001,228.592001 821.484,228.4 C821.299999,228.207999 821.208,227.984001 821.208,227.728 C821.208,227.471999 821.299999,227.248001 821.484,227.056 C821.668001,226.863999 821.895999,226.768 822.168,226.768 C822.440001,226.768 822.667999,226.863999 822.852,227.056 C823.036001,227.248001 823.128,227.471999 823.128,227.728 C823.128,227.984001 823.032001,228.207999 822.84,228.4 Z M821.376,244 L821.376,232 L822.96,232 L822.96,244 L821.376,244 Z M832.722667,231.808 C833.570671,231.808 834.346663,232.015998 835.050667,232.432 L834.498667,234.016 C833.826663,233.519998 833.14667,233.272 832.458667,233.272 C831.450662,233.272 830.60267,233.627996 829.914667,234.34 C829.226663,235.052004 828.882667,235.927995 828.882667,236.968 L828.882667,244 L827.298667,244 L827.298667,232 L828.882667,232 L828.882667,233.776 C829.858671,232.463993 831.138659,231.808 832.722667,231.808 Z M842.365333,244.192 C840.653325,244.192 839.193339,243.588006 837.985333,242.38 C836.777327,241.171994 836.173333,239.712009 836.173333,238 C836.173333,236.287991 836.777327,234.828006 837.985333,233.62 C839.193339,232.411994 840.653325,231.808 842.365333,231.808 C843.453339,231.808 844.465329,232.075997 845.401333,232.612 C846.337338,233.148003 847.077331,233.863996 847.621333,234.76 L846.181333,235.456 C845.749331,234.799997 845.197337,234.280002 844.525333,233.896 C843.85333,233.511998 843.133337,233.32 842.365333,233.32 C841.069327,233.32 839.977338,233.771995 839.089333,234.676 C838.201329,235.580005 837.757333,236.687993 837.757333,238 C837.757333,239.312007 838.201329,240.419995 839.089333,241.324 C839.977338,242.228005 841.069327,242.68 842.365333,242.68 C843.133337,242.68 843.85333,242.488002 844.525333,242.104 C845.197337,241.719998 845.749331,241.200003 846.181333,240.544 L847.621333,241.24 C847.077331,242.136004 846.337338,242.851997 845.401333,243.388 C844.465329,243.924003 843.453339,244.192 842.365333,244.192 Z M859.664,232 L861.248,232 L861.248,244 L859.664,244 L859.664,242.224 C858.687995,243.536007 857.408008,244.192 855.824,244.192 C854.431993,244.192 853.264005,243.700005 852.32,242.716 C851.375995,241.731995 850.904,240.520007 850.904,239.08 L850.904,232 L852.536,232 L852.536,239.032 C852.536,240.056005 852.879997,240.923996 853.568,241.636 C854.256003,242.348004 855.095995,242.704 856.088,242.704 C857.096005,242.704 857.943997,242.348004 858.632,241.636 C859.320003,240.923996 859.664,240.056005 859.664,239.032 L859.664,232 Z M867.050667,228.4 C866.874666,228.592001 866.650668,228.688 866.378667,228.688 C866.106665,228.688 865.878668,228.592001 865.694667,228.4 C865.510666,228.207999 865.418667,227.984001 865.418667,227.728 C865.418667,227.471999 865.510666,227.248001 865.694667,227.056 C865.878668,226.863999 866.106665,226.768 866.378667,226.768 C866.650668,226.768 866.878666,226.863999 867.062667,227.056 C867.246668,227.248001 867.338667,227.471999 867.338667,227.728 C867.338667,227.984001 867.242668,228.207999 867.050667,228.4 Z M865.586667,244 L865.586667,232 L867.170667,232 L867.170667,244 L865.586667,244 Z M877.653333,241.312 L878.445333,242.536 C878.349333,242.664001 878.221334,242.815999 878.061333,242.992 C877.901333,243.168001 877.541336,243.411998 876.981333,243.724 C876.421331,244.036002 875.845336,244.192 875.253333,244.192 C874.245328,244.192 873.401337,243.892003 872.721333,243.292 C872.04133,242.691997 871.701333,241.824006 871.701333,240.688 L871.701333,233.44 L869.781333,233.44 L869.781333,231.976 L871.701333,231.976 L871.701333,228.184 L873.285333,227.992 L873.285333,231.976 L876.909333,231.976 L876.909333,233.44 L873.285333,233.44 L873.285333,240.328 C873.285333,241.064004 873.513331,241.647998 873.969333,242.08 C874.425336,242.512002 874.94933,242.728 875.541333,242.728 C875.909335,242.728 876.269332,242.616001 876.621333,242.392 C876.973335,242.167999 877.233332,241.948001 877.401333,241.732 C877.569334,241.515999 877.653333,241.376 877.653333,241.312 Z" id="LED-Parallel-Circuit-Copy" fill="#23ABE3"></path>
        <g id="Circuit" transform="translate(190.000000, 47.000000)">
            <g id="LED" transform="translate(229.500000, 63.000000) rotate(-270.000000) translate(-229.500000, -63.000000) translate(194.500000, 35.500000)">
                <polygon id="Path-2" fill="#3D3530" points="24.5 29 44 42 24.5 55"></polygon>
                <path d="M44,42 L70,42" id="Path-2-Copy" stroke="#3D3530" stroke-width="3"></path>
                <path d="M44,29 L44,55" id="Path-4-Copy" stroke="#3D3530" stroke-width="3"></path>
                <path d="M0,42 L24.5,42" id="Path-3" stroke="#3D3530" stroke-width="3"></path>
                <g id="Arrow" transform="translate(43.647114, 19.941343) rotate(-150.000000) translate(-43.647114, -19.941343) translate(39.147114, 6.441343)">
                    <polygon id="Triangle" fill="#3D3530" transform="translate(4.633975, 19.633975) scale(1, -1) translate(-4.633975, -19.633975) " points="4.6339746 13.1339746 8.6339746 26.1339746 0.633974596 26.1339746"></polygon>
                    <path d="M4.5,0 L4.5,20" id="Path-3" stroke="#3D3530" stroke-width="3"></path>
                </g>
                <g id="Arrow" transform="translate(33.647114, 13.941343) rotate(-150.000000) translate(-33.647114, -13.941343) translate(29.147114, 0.441343)">
                    <polygon id="Triangle" fill="#3D3530" transform="translate(4.633975, 19.633975) scale(1, -1) translate(-4.633975, -19.633975) " points="4.6339746 13.1339746 8.6339746 26.1339746 0.633974596 26.1339746"></polygon>
                    <path d="M4.5,1.13686838e-13 L4.5,20" id="Path-3" stroke="#3D3530" stroke-width="3"></path>
                </g>
            </g>
            <g id="LED-Copy" transform="translate(299.500000, 63.000000) rotate(-270.000000) translate(-299.500000, -63.000000) translate(264.500000, 35.500000)">
                <polygon id="Path-2" fill="#3D3530" points="24.5 29 44 42 24.5 55"></polygon>
                <path d="M44,42 L70,42" id="Path-2-Copy" stroke="#3D3530" stroke-width="3"></path>
                <path d="M44,29 L44,55" id="Path-4-Copy" stroke="#3D3530" stroke-width="3"></path>
                <path d="M0,42 L24.5,42" id="Path-3" stroke="#3D3530" stroke-width="3"></path>
                <g id="Arrow" transform="translate(43.647114, 19.941343) rotate(-150.000000) translate(-43.647114, -19.941343) translate(39.147114, 6.441343)">
                    <polygon id="Triangle" fill="#3D3530" transform="translate(4.633975, 19.633975) scale(1, -1) translate(-4.633975, -19.633975) " points="4.6339746 13.1339746 8.6339746 26.1339746 0.633974596 26.1339746"></polygon>
                    <path d="M4.5,0 L4.5,20" id="Path-3" stroke="#3D3530" stroke-width="3"></path>
                </g>
                <g id="Arrow" transform="translate(33.647114, 13.941343) rotate(-150.000000) translate(-33.647114, -13.941343) translate(29.147114, 0.441343)">
                    <polygon id="Triangle" fill="#3D3530" transform="translate(4.633975, 19.633975) scale(1, -1) translate(-4.633975, -19.633975) " points="4.6339746 13.1339746 8.6339746 26.1339746 0.633974596 26.1339746"></polygon>
                    <path d="M4.5,1.13686838e-13 L4.5,20" id="Path-3" stroke="#3D3530" stroke-width="3"></path>
                </g>
            </g>
            <g id="LED-Copy-2" transform="translate(369.500000, 63.000000) rotate(-270.000000) translate(-369.500000, -63.000000) translate(334.500000, 35.500000)">
                <polygon id="Path-2" fill="#3D3530" points="24.5 29 44 42 24.5 55"></polygon>
                <path d="M44,42 L70,42" id="Path-2-Copy" stroke="#3D3530" stroke-width="3"></path>
                <path d="M44,29 L44,55" id="Path-4-Copy" stroke="#3D3530" stroke-width="3"></path>
                <path d="M0,42 L24.5,42" id="Path-3" stroke="#3D3530" stroke-width="3"></path>
                <g id="Arrow" transform="translate(43.647114, 19.941343) rotate(-150.000000) translate(-43.647114, -19.941343) translate(39.147114, 6.441343)">
                    <polygon id="Triangle" fill="#3D3530" transform="translate(4.633975, 19.633975) scale(1, -1) translate(-4.633975, -19.633975) " points="4.6339746 13.1339746 8.6339746 26.1339746 0.633974596 26.1339746"></polygon>
                    <path d="M4.5,0 L4.5,20" id="Path-3" stroke="#3D3530" stroke-width="3"></path>
                </g>
                <g id="Arrow" transform="translate(33.647114, 13.941343) rotate(-150.000000) translate(-33.647114, -13.941343) translate(29.147114, 0.441343)">
                    <polygon id="Triangle" fill="#3D3530" transform="translate(4.633975, 19.633975) scale(1, -1) translate(-4.633975, -19.633975) " points="4.6339746 13.1339746 8.6339746 26.1339746 0.633974596 26.1339746"></polygon>
                    <path d="M4.5,1.13686838e-13 L4.5,20" id="Path-3" stroke="#3D3530" stroke-width="3"></path>
                </g>
            </g>
            <g id="Power" transform="translate(0.000000, 23.000000)"></g>
            <g id="DC_Power" transform="translate(40.000000, 23.000000)">
                <circle id="Oval" stroke="#3D3530" stroke-width="3" cx="40" cy="40" r="40"></circle>
                <g id="+" transform="translate(36.000000, 11.000000)" stroke="#3D3530" stroke-width="2">
                    <path d="M4,4 L0,4 L4,4 L4,8 L4,4 Z M4,4 L8,4 L4,4 L4,0 L4,4 Z" id="Combined-Shape"></path>
                </g>
                <g id="-" transform="translate(36.000000, 66.000000)" stroke="#3D3530" stroke-width="2">
                    <path d="M0,1 L8,1" id="Path"></path>
                </g>
                <path d="M102.196,33.104 C101.251995,33.104 100.640001,33.2199988 100.36,33.452 C100.079999,33.6840012 99.740002,34.2639954 99.34,35.192 L94.06,47.408 L93.748,47.408 L88.444,35.192 C88.043998,34.2639954 87.7040014,33.6840012 87.424,33.452 C87.1439986,33.2199988 86.5320047,33.104 85.588,33.104 L85.588,32.6 L92.236,32.6 L92.236,33.104 C91.243995,33.104 90.6080014,33.2439986 90.328,33.524 C90.0479986,33.8040014 90.0599985,34.2719967 90.364,34.928 L94.444,44.264 L98.476,34.928 C98.7800015,34.2719967 98.7920014,33.8040014 98.512,33.524 C98.2319986,33.2439986 97.596005,33.104 96.604,33.104 L96.604,32.6 L102.196,32.6 L102.196,33.104 Z M105.172,55.28 C104.803998,55.5840015 104.572,55.9599978 104.476,56.408 L103.996,56.408 L103.996,51.128 L104.5,51.128 C104.5,51.1920003 104.504,51.2759995 104.512,51.38 C104.52,51.4840005 104.552,51.6839985 104.608,51.98 C104.664,52.2760015 104.743999,52.5599986 104.848,52.832 C104.952001,53.1040014 105.115999,53.4079983 105.34,53.744 C105.564001,54.0800017 105.823999,54.3679988 106.12,54.608 C106.416001,54.8480012 106.807998,55.0479992 107.296,55.208 C107.784002,55.3680008 108.323997,55.448 108.916,55.448 C109.780004,55.448 110.495997,55.2000025 111.064,54.704 C111.632003,54.2079975 111.916,53.5760038 111.916,52.808 C111.916,51.8319951 110.996009,50.8640048 109.156,49.904 L106.852,48.728 C106.099996,48.327998 105.468003,47.7840034 104.956,47.096 C104.443997,46.4079966 104.188,45.6320043 104.188,44.768 C104.188,43.759995 104.563996,42.9120034 105.316,42.224 C106.068004,41.5359966 107.019994,41.192 108.172,41.192 C109.228005,41.192 110.203996,41.5199967 111.1,42.176 C111.468002,41.8719985 111.7,41.5040022 111.796,41.072 L112.276,41.072 L112.276,46.352 L111.772,46.352 C111.531999,43.551986 110.308011,42.152 108.1,42.152 C107.427997,42.152 106.872002,42.355998 106.432,42.764 C105.991998,43.172002 105.772,43.679997 105.772,44.288 C105.772,44.880003 105.983998,45.379998 106.408,45.788 C106.832002,46.196002 107.595994,46.6879971 108.7,47.264 L110.98,48.44 C112.660008,49.2880042 113.5,50.5039921 113.5,52.088 C113.5,53.3680064 113.056004,54.407996 112.168,55.208 C111.279996,56.008004 110.196006,56.408 108.916,56.408 C108.371997,56.408 107.852002,56.3280008 107.356,56.168 C106.859998,56.0079992 106.412002,55.828001 106.012,55.628 C105.611998,55.427999 105.332001,55.3120002 105.172,55.28 Z" id="VS-Copy" fill="#524740"></path>
            </g>
            <g id="Wiring" transform="translate(80.000000, 0.000000)" stroke="#3D3530">
                <polyline id="Path-13" stroke-width="2" points="115 13 362 13 362 113 0 113 1.13686838e-13 103"></polyline>
                <polyline id="Resistor" stroke-width="3" stroke-linejoin="round" points="45 13 50 13 55 0 65 26 75 0 85 26 95 0 105 26 110 13 115 13"></polyline>
                <path d="M135,28 L135,13" id="Path-4" stroke-width="2"></path>
                <path d="M205,28 L205,13" id="Path-4-Copy-2" stroke-width="2"></path>
                <path d="M275,28 L275,13" id="Path-4-Copy-3" stroke-width="2"></path>
                <path d="M135,112 L135,97" id="Path-4-Copy-6" stroke-width="2"></path>
                <path d="M205,112 L205,97" id="Path-4-Copy-5" stroke-width="2"></path>
                <path d="M275,112 L275,97" id="Path-4-Copy-4" stroke-width="2"></path>
            </g>
        </g>
        <polyline id="Path-14" stroke="#3D3530" stroke-width="2" points="315 60 270 60 270 70"></polyline>
    </g>
</svg>