<?xml version="1.0" encoding="UTF-8"?>
<svg width="900px" height="280px" viewBox="0 0 900 280" version="1.1" xmlns="http://www.w3.org/2000/svg" xmlns:xlink="http://www.w3.org/1999/xlink">
    <!-- Generator: Sketch 52.5 (67469) - http://www.bohemiancoding.com/sketch -->
    <title>LED_Parallel_Circuit_Practical</title>
    <desc>Created with Sketch.</desc>
    <g id="LED_Parallel_Circuit_Practical" stroke="none" stroke-width="1" fill="none" fill-rule="evenodd">
        <rect id="Rectangle" stroke="#3D3530" stroke-width="2" fill="#EEEEEE" x="1" y="1" width="898" height="408"></rect>
        <path d="M360.128,254.624 L371.144,254.624 L371.144,257 L357.752,257 L357.752,232.808 L360.128,232.808 L360.128,254.624 Z M390.972,235.184 L377.472,235.184 L377.472,243.5 L385.068,243.5 L385.068,245.876 L377.472,245.876 L377.472,254.624 L390.972,254.624 L390.972,257 L375.096,257 L375.096,232.808 L390.972,232.808 L390.972,235.184 Z M396.724,257 L396.724,232.808 L402.196,232.808 C406.18002,232.808 409.347988,233.959988 411.7,236.264 C414.052012,238.568012 415.228,241.447983 415.228,244.904 C415.228,248.336017 414.046012,251.209988 411.682,253.526 C409.317988,255.842012 406.15602,257 402.196,257 L396.724,257 Z M399.1,254.732 L402.196,254.732 C405.364016,254.732 407.895991,253.802009 409.792,251.942 C411.688009,250.081991 412.636,247.736014 412.636,244.904 C412.636,242.071986 411.688009,239.726009 409.792,237.866 C407.895991,236.005991 405.364016,235.076 402.196,235.076 L399.1,235.076 L399.1,254.732 Z M431.304,257 L431.304,232.808 L439.512,232.808 C442.224014,232.808 444.383992,233.521993 445.992,234.95 C447.600008,236.378007 448.404,238.171989 448.404,240.332 C448.404,242.468011 447.600008,244.255993 445.992,245.696 C444.383992,247.136007 442.224014,247.856 439.512,247.856 L433.68,247.856 L433.68,257 L431.304,257 Z M433.68,245.588 L439.512,245.588 C441.45601,245.588 443.015994,245.090005 444.192,244.094 C445.368006,243.097995 445.956,241.844008 445.956,240.332 C445.956,238.843993 445.368006,237.596005 444.192,236.588 C443.015994,235.579995 441.45601,235.076 439.512,235.076 L433.68,235.076 L433.68,245.588 Z M467.476,239 L469.852,239 L469.852,257 L467.476,257 L467.476,254.084 C465.627991,256.220011 463.288014,257.288 460.456,257.288 C457.887987,257.288 455.698009,256.382009 453.886,254.57 C452.073991,252.757991 451.168,250.568013 451.168,248 C451.168,245.431987 452.073991,243.242009 453.886,241.43 C455.698009,239.617991 457.887987,238.712 460.456,238.712 C463.312014,238.712 465.651991,239.779989 467.476,241.916 L467.476,239 Z M460.492,255.02 C462.43601,255.02 464.073993,254.342007 465.406,252.986 C466.738007,251.629993 467.404,249.96801 467.404,248 C467.404,246.03199 466.738007,244.370007 465.406,243.014 C464.073993,241.657993 462.43601,240.98 460.492,240.98 C458.57199,240.98 456.934007,241.657993 455.578,243.014 C454.221993,244.370007 453.544,246.03199 453.544,248 C453.544,249.96801 454.221993,251.629993 455.578,252.986 C456.934007,254.342007 458.57199,255.02 460.492,255.02 Z M483.848,238.712 C485.120006,238.712 486.283995,239.023997 487.34,239.648 L486.512,242.024 C485.503995,241.279996 484.484005,240.908 483.452,240.908 C481.939992,240.908 480.668005,241.441995 479.636,242.51 C478.603995,243.578005 478.088,244.891992 478.088,246.452 L478.088,257 L475.712,257 L475.712,239 L478.088,239 L478.088,241.664 C479.552007,239.69599 481.471988,238.712 483.848,238.712 Z M505.332,239 L507.708,239 L507.708,257 L505.332,257 L505.332,254.084 C503.483991,256.220011 501.144014,257.288 498.312,257.288 C495.743987,257.288 493.554009,256.382009 491.742,254.57 C489.929991,252.757991 489.024,250.568013 489.024,248 C489.024,245.431987 489.929991,243.242009 491.742,241.43 C493.554009,239.617991 495.743987,238.712 498.312,238.712 C501.168014,238.712 503.507991,239.779989 505.332,241.916 L505.332,239 Z M498.348,255.02 C500.29201,255.02 501.929993,254.342007 503.262,252.986 C504.594007,251.629993 505.26,249.96801 505.26,248 C505.26,246.03199 504.594007,244.370007 503.262,243.014 C501.929993,241.657993 500.29201,240.98 498.348,240.98 C496.42799,240.98 494.790007,241.657993 493.434,243.014 C492.077993,244.370007 491.4,246.03199 491.4,248 C491.4,249.96801 492.077993,251.629993 493.434,252.986 C494.790007,254.342007 496.42799,255.02 498.348,255.02 Z M513.784,257 L513.784,230.216 L516.16,230.216 L516.16,257 L513.784,257 Z M522.164,257 L522.164,230.216 L524.54,230.216 L524.54,257 L522.164,257 Z M538.68,254.912 C540.288008,254.912 541.727994,254.456005 543,253.544 C544.272006,252.631995 545.135998,251.564006 545.592,250.34 L547.608,251.06 C547.055997,252.572008 545.982008,253.963994 544.386,255.236 C542.789992,256.508006 540.888011,257.132 538.68,257.108 C536.66399,257.108 534.822008,256.484006 533.154,255.236 C531.485992,253.987994 530.352003,252.39201 529.752,250.448 C529.511999,249.655996 529.392,248.792005 529.392,247.856 C529.392,245.263987 530.291991,243.068009 532.092,241.268 C533.892009,239.467991 536.087987,238.556 538.68,238.532 C541.032012,238.556 543.083991,239.347992 544.836,240.908 C546.588009,242.468008 547.595999,244.399988 547.86,246.704 C547.884,246.824001 547.896,246.979999 547.896,247.172 L532.164,250.016 C532.572002,251.456007 533.387994,252.637995 534.612,253.562 C535.836006,254.486005 537.191993,254.936 538.68,254.912 Z M538.464,240.728 C536.663991,240.752 535.122006,241.399994 533.838,242.672 C532.553994,243.944006 531.864,245.467991 531.768,247.244 C531.768,247.316 531.774,247.441999 531.786,247.622 C531.798,247.802001 531.804,247.951999 531.804,248.072 L545.196,245.66 C544.739998,244.195993 543.888006,243.002005 542.64,242.078 C541.391994,241.153995 540.000008,240.704 538.464,240.728 Z M553.144,257 L553.144,230.216 L555.52,230.216 L555.52,257 L553.144,257 Z M583.26,257.288 C579.707982,257.288 576.876011,256.106012 574.764,253.742 C572.651989,251.377988 571.596,248.444018 571.596,244.94 C571.596,241.411982 572.651989,238.466012 574.764,236.102 C576.876011,233.737988 579.707982,232.556 583.26,232.556 C585.612012,232.556 587.657991,233.095995 589.398,234.176 C591.138009,235.256005 592.487995,236.731991 593.448,238.604 L591.216,239.9 C590.447996,238.339992 589.374007,237.104005 587.994,236.192 C586.613993,235.279995 585.036009,234.824 583.26,234.824 C580.523986,234.824 578.334008,235.77799 576.69,237.686 C575.045992,239.59401 574.224,242.011985 574.224,244.94 C574.224,247.844015 575.045992,250.25599 576.69,252.176 C578.334008,254.09601 580.523986,255.056 583.26,255.056 C585.060009,255.056 586.649993,254.594005 588.03,253.67 C589.410007,252.745995 590.471996,251.504008 591.216,249.944 L593.448,251.276 C592.487995,253.148009 591.138009,254.617995 589.398,255.686 C587.657991,256.754005 585.612012,257.288 583.26,257.288 Z M601.216,233.6 C600.951999,233.888001 600.616002,234.032 600.208,234.032 C599.799998,234.032 599.458001,233.888001 599.182,233.6 C598.905999,233.311999 598.768,232.976002 598.768,232.592 C598.768,232.207998 598.905999,231.872001 599.182,231.584 C599.458001,231.295999 599.799998,231.152 600.208,231.152 C600.616002,231.152 600.957999,231.295999 601.234,231.584 C601.510001,231.872001 601.648,232.207998 601.648,232.592 C601.648,232.976002 601.504001,233.311999 601.216,233.6 Z M599.02,257 L599.02,239 L601.396,239 L601.396,257 L599.02,257 Z M616.04,238.712 C617.312006,238.712 618.475995,239.023997 619.532,239.648 L618.704,242.024 C617.695995,241.279996 616.676005,240.908 615.644,240.908 C614.131992,240.908 612.860005,241.441995 611.828,242.51 C610.795995,243.578005 610.28,244.891992 610.28,246.452 L610.28,257 L607.904,257 L607.904,239 L610.28,239 L610.28,241.664 C611.744007,239.69599 613.663988,238.712 616.04,238.712 Z M630.504,257.288 C627.935987,257.288 625.746009,256.382009 623.934,254.57 C622.121991,252.757991 621.216,250.568013 621.216,248 C621.216,245.431987 622.121991,243.242009 623.934,241.43 C625.746009,239.617991 627.935987,238.712 630.504,238.712 C632.136008,238.712 633.653993,239.113996 635.058,239.918 C636.462007,240.722004 637.571996,241.795993 638.388,243.14 L636.228,244.184 C635.579997,243.199995 634.752005,242.420003 633.744,241.844 C632.735995,241.267997 631.656006,240.98 630.504,240.98 C628.55999,240.98 626.922007,241.657993 625.59,243.014 C624.257993,244.370007 623.592,246.03199 623.592,248 C623.592,249.96801 624.257993,251.629993 625.59,252.986 C626.922007,254.342007 628.55999,255.02 630.504,255.02 C631.656006,255.02 632.735995,254.732003 633.744,254.156 C634.752005,253.579997 635.579997,252.800005 636.228,251.816 L638.388,252.86 C637.571996,254.204007 636.462007,255.277996 635.058,256.082 C633.653993,256.886004 632.136008,257.288 630.504,257.288 Z M656.452,239 L658.828,239 L658.828,257 L656.452,257 L656.452,254.336 C654.987993,256.30401 653.068012,257.288 650.692,257.288 C648.60399,257.288 646.852007,256.550007 645.436,255.074 C644.019993,253.597993 643.312,251.780011 643.312,249.62 L643.312,239 L645.76,239 L645.76,249.548 C645.76,251.084008 646.275995,252.385995 647.308,253.454 C648.340005,254.522005 649.599993,255.056 651.088,255.056 C652.600008,255.056 653.871995,254.522005 654.904,253.454 C655.936005,252.385995 656.452,251.084008 656.452,249.548 L656.452,239 Z M667.532,233.6 C667.267999,233.888001 666.932002,234.032 666.524,234.032 C666.115998,234.032 665.774001,233.888001 665.498,233.6 C665.221999,233.311999 665.084,232.976002 665.084,232.592 C665.084,232.207998 665.221999,231.872001 665.498,231.584 C665.774001,231.295999 666.115998,231.152 666.524,231.152 C666.932002,231.152 667.273999,231.295999 667.55,231.584 C667.826001,231.872001 667.964,232.207998 667.964,232.592 C667.964,232.976002 667.820001,233.311999 667.532,233.6 Z M665.336,257 L665.336,239 L667.712,239 L667.712,257 L665.336,257 Z M683.436,252.968 L684.624,254.804 C684.479999,254.996001 684.288001,255.223999 684.048,255.488 C683.807999,255.752001 683.268004,256.117998 682.428,256.586 C681.587996,257.054002 680.724004,257.288 679.836,257.288 C678.323992,257.288 677.058005,256.838005 676.038,255.938 C675.017995,255.037995 674.508,253.736009 674.508,252.032 L674.508,241.16 L671.628,241.16 L671.628,238.964 L674.508,238.964 L674.508,233.276 L676.884,232.988 L676.884,238.964 L682.32,238.964 L682.32,241.16 L676.884,241.16 L676.884,251.492 C676.884,252.596006 677.225997,253.471997 677.91,254.12 C678.594003,254.768003 679.379996,255.092 680.268,255.092 C680.820003,255.092 681.359997,254.924002 681.888,254.588 C682.416003,254.251998 682.805999,253.922002 683.058,253.598 C683.310001,253.273998 683.436,253.064 683.436,252.968 Z M707.972,261.752 C707.851999,261.68 707.690001,261.578001 707.486,261.446 C707.281999,261.313999 706.880003,261.002002 706.28,260.51 C705.679997,260.017998 705.110003,259.484003 704.57,258.908 C704.029997,258.331997 703.436003,257.564005 702.788,256.604 C702.139997,255.643995 701.576002,254.624005 701.096,253.544 C700.615998,252.463995 700.214002,251.168008 699.89,249.656 C699.565998,248.143992 699.404,246.572008 699.404,244.94 C699.404,242.707989 699.697997,240.60201 700.286,238.622 C700.874003,236.64199 701.587996,235.034006 702.428,233.798 C703.268004,232.561994 704.107996,231.494004 704.948,230.594 C705.788004,229.693995 706.495997,229.052002 707.072,228.668 L707.972,228.092 L709.232,229.388 C709.015999,229.532001 708.734002,229.735999 708.386,230 C708.037998,230.264001 707.420004,230.869995 706.532,231.818 C705.643996,232.766005 704.858003,233.791994 704.174,234.896 C703.489997,236.000006 702.872003,237.457991 702.32,239.27 C701.767997,241.082009 701.492,242.97199 701.492,244.94 C701.492,246.90801 701.755997,248.785991 702.284,250.574 C702.812003,252.362009 703.459996,253.825994 704.228,254.966 C704.996004,256.106006 705.763996,257.101996 706.532,257.954 C707.300004,258.806004 707.947997,259.423998 708.476,259.808 L709.268,260.348 L707.972,261.752 Z M711.564,257 L711.564,232.808 L719.772,232.808 C722.484014,232.808 724.643992,233.521993 726.252,234.95 C727.860008,236.378007 728.664,238.171989 728.664,240.332 C728.664,242.468011 727.860008,244.255993 726.252,245.696 C724.643992,247.136007 722.484014,247.856 719.772,247.856 L713.94,247.856 L713.94,257 L711.564,257 Z M713.94,245.588 L719.772,245.588 C721.71601,245.588 723.275994,245.090005 724.452,244.094 C725.628006,243.097995 726.216,241.844008 726.216,240.332 C726.216,238.843993 725.628006,237.596005 724.452,236.588 C723.275994,235.579995 721.71601,235.076 719.772,235.076 L713.94,235.076 L713.94,245.588 Z M741.328,238.712 C742.600006,238.712 743.763995,239.023997 744.82,239.648 L743.992,242.024 C742.983995,241.279996 741.964005,240.908 740.932,240.908 C739.419992,240.908 738.148005,241.441995 737.116,242.51 C736.083995,243.578005 735.568,244.891992 735.568,246.452 L735.568,257 L733.192,257 L733.192,239 L735.568,239 L735.568,241.664 C737.032007,239.69599 738.951988,238.712 741.328,238.712 Z M762.812,239 L765.188,239 L765.188,257 L762.812,257 L762.812,254.084 C760.963991,256.220011 758.624014,257.288 755.792,257.288 C753.223987,257.288 751.034009,256.382009 749.222,254.57 C747.409991,252.757991 746.504,250.568013 746.504,248 C746.504,245.431987 747.409991,243.242009 749.222,241.43 C751.034009,239.617991 753.223987,238.712 755.792,238.712 C758.648014,238.712 760.987991,239.779989 762.812,241.916 L762.812,239 Z M755.828,255.02 C757.77201,255.02 759.409993,254.342007 760.742,252.986 C762.074007,251.629993 762.74,249.96801 762.74,248 C762.74,246.03199 762.074007,244.370007 760.742,243.014 C759.409993,241.657993 757.77201,240.98 755.828,240.98 C753.90799,240.98 752.270007,241.657993 750.914,243.014 C749.557993,244.370007 748.88,246.03199 748.88,248 C748.88,249.96801 749.557993,251.629993 750.914,252.986 C752.270007,254.342007 753.90799,255.02 755.828,255.02 Z M779.148,257.288 C776.579987,257.288 774.390009,256.382009 772.578,254.57 C770.765991,252.757991 769.86,250.568013 769.86,248 C769.86,245.431987 770.765991,243.242009 772.578,241.43 C774.390009,239.617991 776.579987,238.712 779.148,238.712 C780.780008,238.712 782.297993,239.113996 783.702,239.918 C785.106007,240.722004 786.215996,241.795993 787.032,243.14 L784.872,244.184 C784.223997,243.199995 783.396005,242.420003 782.388,241.844 C781.379995,241.267997 780.300006,240.98 779.148,240.98 C777.20399,240.98 775.566007,241.657993 774.234,243.014 C772.901993,244.370007 772.236,246.03199 772.236,248 C772.236,249.96801 772.901993,251.629993 774.234,252.986 C775.566007,254.342007 777.20399,255.02 779.148,255.02 C780.300006,255.02 781.379995,254.732003 782.388,254.156 C783.396005,253.579997 784.223997,252.800005 784.872,251.816 L787.032,252.86 C786.215996,254.204007 785.106007,255.277996 783.702,256.082 C782.297993,256.886004 780.780008,257.288 779.148,257.288 Z M802.324,252.968 L803.512,254.804 C803.367999,254.996001 803.176001,255.223999 802.936,255.488 C802.695999,255.752001 802.156004,256.117998 801.316,256.586 C800.475996,257.054002 799.612004,257.288 798.724,257.288 C797.211992,257.288 795.946005,256.838005 794.926,255.938 C793.905995,255.037995 793.396,253.736009 793.396,252.032 L793.396,241.16 L790.516,241.16 L790.516,238.964 L793.396,238.964 L793.396,233.276 L795.772,232.988 L795.772,238.964 L801.208,238.964 L801.208,241.16 L795.772,241.16 L795.772,251.492 C795.772,252.596006 796.113997,253.471997 796.798,254.12 C797.482003,254.768003 798.267996,255.092 799.156,255.092 C799.708003,255.092 800.247997,254.924002 800.776,254.588 C801.304003,254.251998 801.693999,253.922002 801.946,253.598 C802.198001,253.273998 802.324,253.064 802.324,252.968 Z M810.164,233.6 C809.899999,233.888001 809.564002,234.032 809.156,234.032 C808.747998,234.032 808.406001,233.888001 808.13,233.6 C807.853999,233.311999 807.716,232.976002 807.716,232.592 C807.716,232.207998 807.853999,231.872001 808.13,231.584 C808.406001,231.295999 808.747998,231.152 809.156,231.152 C809.564002,231.152 809.905999,231.295999 810.182,231.584 C810.458001,231.872001 810.596,232.207998 810.596,232.592 C810.596,232.976002 810.452001,233.311999 810.164,233.6 Z M807.968,257 L807.968,239 L810.344,239 L810.344,257 L807.968,257 Z M824.844,257.288 C822.275987,257.288 820.086009,256.382009 818.274,254.57 C816.461991,252.757991 815.556,250.568013 815.556,248 C815.556,245.431987 816.461991,243.242009 818.274,241.43 C820.086009,239.617991 822.275987,238.712 824.844,238.712 C826.476008,238.712 827.993993,239.113996 829.398,239.918 C830.802007,240.722004 831.911996,241.795993 832.728,243.14 L830.568,244.184 C829.919997,243.199995 829.092005,242.420003 828.084,241.844 C827.075995,241.267997 825.996006,240.98 824.844,240.98 C822.89999,240.98 821.262007,241.657993 819.93,243.014 C818.597993,244.370007 817.932,246.03199 817.932,248 C817.932,249.96801 818.597993,251.629993 819.93,252.986 C821.262007,254.342007 822.89999,255.02 824.844,255.02 C825.996006,255.02 827.075995,254.732003 828.084,254.156 C829.092005,253.579997 829.919997,252.800005 830.568,251.816 L832.728,252.86 C831.911996,254.204007 830.802007,255.277996 829.398,256.082 C827.993993,256.886004 826.476008,257.288 824.844,257.288 Z M852.592,239 L854.968,239 L854.968,257 L852.592,257 L852.592,254.084 C850.743991,256.220011 848.404014,257.288 845.572,257.288 C843.003987,257.288 840.814009,256.382009 839.002,254.57 C837.189991,252.757991 836.284,250.568013 836.284,248 C836.284,245.431987 837.189991,243.242009 839.002,241.43 C840.814009,239.617991 843.003987,238.712 845.572,238.712 C848.428014,238.712 850.767991,239.779989 852.592,241.916 L852.592,239 Z M845.608,255.02 C847.55201,255.02 849.189993,254.342007 850.522,252.986 C851.854007,251.629993 852.52,249.96801 852.52,248 C852.52,246.03199 851.854007,244.370007 850.522,243.014 C849.189993,241.657993 847.55201,240.98 845.608,240.98 C843.68799,240.98 842.050007,241.657993 840.694,243.014 C839.337993,244.370007 838.66,246.03199 838.66,248 C838.66,249.96801 839.337993,251.629993 840.694,252.986 C842.050007,254.342007 843.68799,255.02 845.608,255.02 Z M861.044,257 L861.044,230.216 L863.42,230.216 L863.42,257 L861.044,257 Z M868.74,261.752 L867.444,260.348 C867.660001,260.227999 867.941998,260.036001 868.29,259.772 C868.638002,259.507999 869.255996,258.908005 870.144,257.972 C871.032004,257.035995 871.817997,256.022005 872.502,254.93 C873.186003,253.837995 873.809997,252.392009 874.374,250.592 C874.938003,248.791991 875.22,246.90801 875.22,244.94 C875.22,242.97199 874.956003,241.094009 874.428,239.306 C873.899997,237.517991 873.258004,236.048006 872.502,234.896 C871.745996,233.743994 870.984004,232.730004 870.216,231.854 C869.447996,230.977996 868.800003,230.348002 868.272,229.964 L867.48,229.388 L868.74,228.092 C868.860001,228.164 869.021999,228.265999 869.226,228.398 C869.430001,228.530001 869.831997,228.841998 870.432,229.334 C871.032003,229.826002 871.601997,230.359997 872.142,230.936 C872.682003,231.512003 873.275997,232.291995 873.924,233.276 C874.572003,234.260005 875.135998,235.285995 875.616,236.354 C876.096002,237.422005 876.497998,238.711992 876.822,240.224 C877.146002,241.736008 877.308,243.307992 877.308,244.94 C877.308,246.572008 877.152002,248.137992 876.84,249.638 C876.527998,251.138007 876.120003,252.433995 875.616,253.526 C875.111997,254.618005 874.554003,255.637995 873.942,256.586 C873.329997,257.534005 872.718003,258.313997 872.106,258.926 C871.493997,259.538003 870.936003,260.065998 870.432,260.51 C869.927997,260.954002 869.520002,261.271999 869.208,261.464 L868.74,261.752 Z" id="LED-Parallel-Circuit-Copy" fill="#23ABE3"></path>
        <rect id="Rectangle-Copy" stroke="#3D3530" stroke-width="2" x="1" y="217" width="898" height="62"></rect>
        <g id="Circuit" transform="translate(190.000000, 30.000000)">
            <polyline id="Resistor" stroke="#3D3530" stroke-width="3" stroke-linejoin="round" transform="translate(215.000000, 45.000000) rotate(-270.000000) translate(-215.000000, -45.000000) " points="180 45 185 45 190 32 200 58 210 32 220 58 230 32 240 58 245 45 250 45"></polyline>
            <polyline id="Resistor-Copy" stroke="#3D3530" stroke-width="3" stroke-linejoin="round" transform="translate(285.000000, 45.000000) rotate(-270.000000) translate(-285.000000, -45.000000) " points="250 45 255 45 260 32 270 58 280 32 290 58 300 32 310 58 315 45 320 45"></polyline>
            <polyline id="Resistor-Copy-2" stroke="#3D3530" stroke-width="3" stroke-linejoin="round" transform="translate(355.000000, 45.000000) rotate(-270.000000) translate(-355.000000, -45.000000) " points="320 45 325 45 330 32 340 58 350 32 360 58 370 32 380 58 385 45 390 45"></polyline>
            <g id="LED" transform="translate(229.500000, 115.000000) rotate(-270.000000) translate(-229.500000, -115.000000) translate(194.500000, 87.500000)">
                <polygon id="Path-2" fill="#3D3530" points="24.5 29 44 42 24.5 55"></polygon>
                <path d="M44,42 L70,42" id="Path-2-Copy" stroke="#3D3530" stroke-width="3"></path>
                <path d="M44,29 L44,55" id="Path-4-Copy" stroke="#3D3530" stroke-width="3"></path>
                <path d="M0,42 L24.5,42" id="Path-3" stroke="#3D3530" stroke-width="3"></path>
                <g id="Arrow" transform="translate(43.647114, 19.941343) rotate(-150.000000) translate(-43.647114, -19.941343) translate(39.147114, 6.441343)">
                    <polygon id="Triangle" fill="#3D3530" transform="translate(4.633975, 19.633975) scale(1, -1) translate(-4.633975, -19.633975) " points="4.6339746 13.1339746 8.6339746 26.1339746 0.633974596 26.1339746"></polygon>
                    <path d="M4.5,0 L4.5,20" id="Path-3" stroke="#3D3530" stroke-width="3"></path>
                </g>
                <g id="Arrow" transform="translate(33.647114, 13.941343) rotate(-150.000000) translate(-33.647114, -13.941343) translate(29.147114, 0.441343)">
                    <polygon id="Triangle" fill="#3D3530" transform="translate(4.633975, 19.633975) scale(1, -1) translate(-4.633975, -19.633975) " points="4.6339746 13.1339746 8.6339746 26.1339746 0.633974596 26.1339746"></polygon>
                    <path d="M4.5,1.13686838e-13 L4.5,20" id="Path-3" stroke="#3D3530" stroke-width="3"></path>
                </g>
            </g>
            <g id="LED-Copy" transform="translate(299.500000, 115.000000) rotate(-270.000000) translate(-299.500000, -115.000000) translate(264.500000, 87.500000)">
                <polygon id="Path-2" fill="#3D3530" points="24.5 29 44 42 24.5 55"></polygon>
                <path d="M44,42 L70,42" id="Path-2-Copy" stroke="#3D3530" stroke-width="3"></path>
                <path d="M44,29 L44,55" id="Path-4-Copy" stroke="#3D3530" stroke-width="3"></path>
                <path d="M0,42 L24.5,42" id="Path-3" stroke="#3D3530" stroke-width="3"></path>
                <g id="Arrow" transform="translate(43.647114, 19.941343) rotate(-150.000000) translate(-43.647114, -19.941343) translate(39.147114, 6.441343)">
                    <polygon id="Triangle" fill="#3D3530" transform="translate(4.633975, 19.633975) scale(1, -1) translate(-4.633975, -19.633975) " points="4.6339746 13.1339746 8.6339746 26.1339746 0.633974596 26.1339746"></polygon>
                    <path d="M4.5,0 L4.5,20" id="Path-3" stroke="#3D3530" stroke-width="3"></path>
                </g>
                <g id="Arrow" transform="translate(33.647114, 13.941343) rotate(-150.000000) translate(-33.647114, -13.941343) translate(29.147114, 0.441343)">
                    <polygon id="Triangle" fill="#3D3530" transform="translate(4.633975, 19.633975) scale(1, -1) translate(-4.633975, -19.633975) " points="4.6339746 13.1339746 8.6339746 26.1339746 0.633974596 26.1339746"></polygon>
                    <path d="M4.5,1.13686838e-13 L4.5,20" id="Path-3" stroke="#3D3530" stroke-width="3"></path>
                </g>
            </g>
            <g id="LED-Copy-2" transform="translate(369.500000, 115.000000) rotate(-270.000000) translate(-369.500000, -115.000000) translate(334.500000, 87.500000)">
                <polygon id="Path-2" fill="#3D3530" points="24.5 29 44 42 24.5 55"></polygon>
                <path d="M44,42 L70,42" id="Path-2-Copy" stroke="#3D3530" stroke-width="3"></path>
                <path d="M44,29 L44,55" id="Path-4-Copy" stroke="#3D3530" stroke-width="3"></path>
                <path d="M0,42 L24.5,42" id="Path-3" stroke="#3D3530" stroke-width="3"></path>
                <g id="Arrow" transform="translate(43.647114, 19.941343) rotate(-150.000000) translate(-43.647114, -19.941343) translate(39.147114, 6.441343)">
                    <polygon id="Triangle" fill="#3D3530" transform="translate(4.633975, 19.633975) scale(1, -1) translate(-4.633975, -19.633975) " points="4.6339746 13.1339746 8.6339746 26.1339746 0.633974596 26.1339746"></polygon>
                    <path d="M4.5,0 L4.5,20" id="Path-3" stroke="#3D3530" stroke-width="3"></path>
                </g>
                <g id="Arrow" transform="translate(33.647114, 13.941343) rotate(-150.000000) translate(-33.647114, -13.941343) translate(29.147114, 0.441343)">
                    <polygon id="Triangle" fill="#3D3530" transform="translate(4.633975, 19.633975) scale(1, -1) translate(-4.633975, -19.633975) " points="4.6339746 13.1339746 8.6339746 26.1339746 0.633974596 26.1339746"></polygon>
                    <path d="M4.5,1.13686838e-13 L4.5,20" id="Path-3" stroke="#3D3530" stroke-width="3"></path>
                </g>
            </g>
            <g id="Power" transform="translate(0.000000, 40.000000)"></g>
            <g id="DC_Power" transform="translate(40.000000, 40.000000)">
                <circle id="Oval" stroke="#3D3530" stroke-width="3" cx="40" cy="40" r="40"></circle>
                <g id="+" transform="translate(36.000000, 11.000000)" stroke="#3D3530" stroke-width="2">
                    <path d="M4,4 L0,4 L4,4 L4,8 L4,4 Z M4,4 L8,4 L4,4 L4,0 L4,4 Z" id="Combined-Shape"></path>
                </g>
                <g id="-" transform="translate(36.000000, 66.000000)" stroke="#3D3530" stroke-width="2">
                    <path d="M0,1 L8,1" id="Path"></path>
                </g>
                <path d="M102.196,33.104 C101.251995,33.104 100.640001,33.2199988 100.36,33.452 C100.079999,33.6840012 99.740002,34.2639954 99.34,35.192 L94.06,47.408 L93.748,47.408 L88.444,35.192 C88.043998,34.2639954 87.7040014,33.6840012 87.424,33.452 C87.1439986,33.2199988 86.5320047,33.104 85.588,33.104 L85.588,32.6 L92.236,32.6 L92.236,33.104 C91.243995,33.104 90.6080014,33.2439986 90.328,33.524 C90.0479986,33.8040014 90.0599985,34.2719967 90.364,34.928 L94.444,44.264 L98.476,34.928 C98.7800015,34.2719967 98.7920014,33.8040014 98.512,33.524 C98.2319986,33.2439986 97.596005,33.104 96.604,33.104 L96.604,32.6 L102.196,32.6 L102.196,33.104 Z M105.172,55.28 C104.803998,55.5840015 104.572,55.9599978 104.476,56.408 L103.996,56.408 L103.996,51.128 L104.5,51.128 C104.5,51.1920003 104.504,51.2759995 104.512,51.38 C104.52,51.4840005 104.552,51.6839985 104.608,51.98 C104.664,52.2760015 104.743999,52.5599986 104.848,52.832 C104.952001,53.1040014 105.115999,53.4079983 105.34,53.744 C105.564001,54.0800017 105.823999,54.3679988 106.12,54.608 C106.416001,54.8480012 106.807998,55.0479992 107.296,55.208 C107.784002,55.3680008 108.323997,55.448 108.916,55.448 C109.780004,55.448 110.495997,55.2000025 111.064,54.704 C111.632003,54.2079975 111.916,53.5760038 111.916,52.808 C111.916,51.8319951 110.996009,50.8640048 109.156,49.904 L106.852,48.728 C106.099996,48.327998 105.468003,47.7840034 104.956,47.096 C104.443997,46.4079966 104.188,45.6320043 104.188,44.768 C104.188,43.759995 104.563996,42.9120034 105.316,42.224 C106.068004,41.5359966 107.019994,41.192 108.172,41.192 C109.228005,41.192 110.203996,41.5199967 111.1,42.176 C111.468002,41.8719985 111.7,41.5040022 111.796,41.072 L112.276,41.072 L112.276,46.352 L111.772,46.352 C111.531999,43.551986 110.308011,42.152 108.1,42.152 C107.427997,42.152 106.872002,42.355998 106.432,42.764 C105.991998,43.172002 105.772,43.679997 105.772,44.288 C105.772,44.880003 105.983998,45.379998 106.408,45.788 C106.832002,46.196002 107.595994,46.6879971 108.7,47.264 L110.98,48.44 C112.660008,49.2880042 113.5,50.5039921 113.5,52.088 C113.5,53.3680064 113.056004,54.407996 112.168,55.208 C111.279996,56.008004 110.196006,56.408 108.916,56.408 C108.371997,56.408 107.852002,56.3280008 107.356,56.168 C106.859998,56.0079992 106.412002,55.828001 106.012,55.628 C105.611998,55.427999 105.332001,55.3120002 105.172,55.28 Z" id="VS-Copy" fill="#524740"></path>
            </g>
            <g id="Wiring" transform="translate(80.000000, 0.000000)" stroke="#3D3530" stroke-width="2">
                <polyline id="Path-13" points="1.7847978e-29 40 0 -1.15768506e-13 362 -1.15768506e-13 362 160 0 160 1.13686838e-13 120"></polyline>
                <path d="M135,10 L135,0" id="Path-4"></path>
                <path d="M205,10 L205,0" id="Path-4-Copy-2"></path>
                <path d="M275,10 L275,0" id="Path-4-Copy-3"></path>
                <path d="M135,160 L135,150" id="Path-4-Copy-6"></path>
                <path d="M205,160 L205,150" id="Path-4-Copy-5"></path>
                <path d="M275,160 L275,150" id="Path-4-Copy-4"></path>
            </g>
        </g>
    </g>
</svg>