<?xml version="1.0" encoding="UTF-8"?>
<svg width="900px" height="260px" viewBox="0 0 900 260" version="1.1" xmlns="http://www.w3.org/2000/svg" xmlns:xlink="http://www.w3.org/1999/xlink">
    <!-- Generator: Sketch 52.5 (67469) - http://www.bohemiancoding.com/sketch -->
    <title>LED_Parallel_Circuit_Practical</title>
    <desc>Created with Sketch.</desc>
    <g id="LED_Parallel_Circuit_Practical" stroke="none" stroke-width="1" fill="none" fill-rule="evenodd">
        <rect id="Rectangle" stroke="#3D3530" stroke-width="2" fill="#EEEEEE" x="1" y="1" width="898" height="408"></rect>
        <rect id="Rectangle-Copy" stroke="#3D3530" stroke-width="2" fill="#F8FAE4" x="1" y="216" width="898" height="43"></rect>
        <path d="M533.418666,242.416 L540.762666,242.416 L540.762666,244 L531.834666,244 L531.834666,227.872 L533.418666,227.872 L533.418666,242.416 Z M553.981333,229.456 L544.981333,229.456 L544.981333,235 L550.045333,235 L550.045333,236.584 L544.981333,236.584 L544.981333,242.416 L553.981333,242.416 L553.981333,244 L543.397333,244 L543.397333,227.872 L553.981333,227.872 L553.981333,229.456 Z M557.815999,244 L557.815999,227.872 L561.463999,227.872 C564.120013,227.872 566.231992,228.639992 567.799999,230.176 C569.368007,231.712008 570.151999,233.631988 570.151999,235.936 C570.151999,238.224011 569.364007,240.139992 567.787999,241.684 C566.211992,243.228008 564.104013,244 561.463999,244 L557.815999,244 Z M559.399999,242.488 L561.463999,242.488 C563.57601,242.488 565.263993,241.868006 566.527999,240.628 C567.792006,239.387994 568.423999,237.824009 568.423999,235.936 C568.423999,234.047991 567.792006,232.484006 566.527999,231.244 C565.263993,230.003994 563.57601,229.384 561.463999,229.384 L559.399999,229.384 L559.399999,242.488 Z M580.869333,244 L580.869333,227.872 L586.341333,227.872 C588.149342,227.872 589.589327,228.347995 590.661333,229.3 C591.733338,230.252005 592.269333,231.447993 592.269333,232.888 C592.269333,234.312007 591.733338,235.503995 590.661333,236.464 C589.589327,237.424005 588.149342,237.904 586.341333,237.904 L582.453333,237.904 L582.453333,244 L580.869333,244 Z M582.453333,236.392 L586.341333,236.392 C587.637339,236.392 588.677329,236.060003 589.461333,235.396 C590.245337,234.731997 590.637333,233.896005 590.637333,232.888 C590.637333,231.895995 590.245337,231.064003 589.461333,230.392 C588.677329,229.719997 587.637339,229.384 586.341333,229.384 L582.453333,229.384 L582.453333,236.392 Z M604.983999,232 L606.567999,232 L606.567999,244 L604.983999,244 L604.983999,242.056 C603.751993,243.480007 602.192009,244.192 600.303999,244.192 C598.591991,244.192 597.132006,243.588006 595.923999,242.38 C594.715993,241.171994 594.111999,239.712009 594.111999,238 C594.111999,236.287991 594.715993,234.828006 595.923999,233.62 C597.132006,232.411994 598.591991,231.808 600.303999,231.808 C602.208009,231.808 603.767993,232.519993 604.983999,233.944 L604.983999,232 Z M600.327999,242.68 C601.624006,242.68 602.715995,242.228005 603.603999,241.324 C604.492004,240.419995 604.935999,239.312007 604.935999,238 C604.935999,236.687993 604.492004,235.580005 603.603999,234.676 C602.715995,233.771995 601.624006,233.32 600.327999,233.32 C599.047993,233.32 597.956004,233.771995 597.051999,234.676 C596.147995,235.580005 595.695999,236.687993 595.695999,238 C595.695999,239.312007 596.147995,240.419995 597.051999,241.324 C597.956004,242.228005 599.047993,242.68 600.327999,242.68 Z M615.898666,231.808 C616.74667,231.808 617.522663,232.015998 618.226666,232.432 L617.674666,234.016 C617.002663,233.519998 616.32267,233.272 615.634666,233.272 C614.626661,233.272 613.77867,233.627996 613.090666,234.34 C612.402663,235.052004 612.058666,235.927995 612.058666,236.968 L612.058666,244 L610.474666,244 L610.474666,232 L612.058666,232 L612.058666,233.776 C613.034671,232.463993 614.314658,231.808 615.898666,231.808 Z M630.221333,232 L631.805333,232 L631.805333,244 L630.221333,244 L630.221333,242.056 C628.989327,243.480007 627.429342,244.192 625.541333,244.192 C623.829324,244.192 622.369339,243.588006 621.161333,242.38 C619.953327,241.171994 619.349333,239.712009 619.349333,238 C619.349333,236.287991 619.953327,234.828006 621.161333,233.62 C622.369339,232.411994 623.829324,231.808 625.541333,231.808 C627.445342,231.808 629.005327,232.519993 630.221333,233.944 L630.221333,232 Z M625.565333,242.68 C626.861339,242.68 627.953328,242.228005 628.841333,241.324 C629.729337,240.419995 630.173333,239.312007 630.173333,238 C630.173333,236.687993 629.729337,235.580005 628.841333,234.676 C627.953328,233.771995 626.861339,233.32 625.565333,233.32 C624.285326,233.32 623.193337,233.771995 622.289333,234.676 C621.385328,235.580005 620.933333,236.687993 620.933333,238 C620.933333,239.312007 621.385328,240.419995 622.289333,241.324 C623.193337,242.228005 624.285326,242.68 625.565333,242.68 Z M635.856,244 L635.856,226.144 L637.44,226.144 L637.44,244 L635.856,244 Z M641.442666,244 L641.442666,226.144 L643.026666,226.144 L643.026666,244 L641.442666,244 Z M652.453333,242.608 C653.525338,242.608 654.485329,242.304003 655.333333,241.696 C656.181337,241.087997 656.757331,240.376004 657.061333,239.56 L658.405333,240.04 C658.037331,241.048005 657.321338,241.975996 656.257333,242.824 C655.193328,243.672004 653.92534,244.088 652.453333,244.072 C651.109326,244.072 649.881338,243.656004 648.769333,242.824 C647.657327,241.991996 646.901335,240.928006 646.501333,239.632 C646.341332,239.103997 646.261333,238.528003 646.261333,237.904 C646.261333,236.175991 646.861327,234.712006 648.061333,233.512 C649.261339,232.311994 650.725324,231.704 652.453333,231.688 C654.021341,231.704 655.389327,232.231995 656.557333,233.272 C657.725339,234.312005 658.397332,235.599992 658.573333,237.136 C658.589333,237.216 658.597333,237.319999 658.597333,237.448 L648.109333,239.344 C648.381334,240.304005 648.925329,241.091997 649.741333,241.708 C650.557337,242.324003 651.461328,242.624 652.453333,242.608 Z M652.309333,233.152 C651.109327,233.168 650.081337,233.599996 649.225333,234.448 C648.369329,235.296004 647.909333,236.311994 647.845333,237.496 C647.845333,237.544 647.849333,237.627999 647.857333,237.748 C647.865333,237.868001 647.869333,237.968 647.869333,238.048 L656.797333,236.44 C656.493331,235.463995 655.925337,234.668003 655.093333,234.052 C654.261329,233.435997 653.333338,233.136 652.309333,233.152 Z M662.096,244 L662.096,226.144 L663.68,226.144 L663.68,244 L662.096,244 Z M682.173333,244.192 C679.805321,244.192 677.91734,243.404008 676.509333,241.828 C675.101326,240.251992 674.397333,238.296012 674.397333,235.96 C674.397333,233.607988 675.101326,231.644008 676.509333,230.068 C677.91734,228.491992 679.805321,227.704 682.173333,227.704 C683.741341,227.704 685.105327,228.063996 686.265333,228.784 C687.425339,229.504004 688.32533,230.487994 688.965333,231.736 L687.477333,232.6 C686.96533,231.559995 686.249338,230.736003 685.329333,230.128 C684.409328,229.519997 683.357339,229.216 682.173333,229.216 C680.349324,229.216 678.889338,229.851994 677.793333,231.124 C676.697327,232.396006 676.149333,234.00799 676.149333,235.96 C676.149333,237.89601 676.697327,239.503994 677.793333,240.784 C678.889338,242.064006 680.349324,242.704 682.173333,242.704 C683.373339,242.704 684.433328,242.396003 685.353333,241.78 C686.273338,241.163997 686.98133,240.336005 687.477333,239.296 L688.965333,240.184 C688.32533,241.432006 687.425339,242.411996 686.265333,243.124 C685.105327,243.836004 683.741341,244.192 682.173333,244.192 Z M694.144,228.4 C693.967999,228.592001 693.744001,228.688 693.472,228.688 C693.199998,228.688 692.972001,228.592001 692.788,228.4 C692.603999,228.207999 692.512,227.984001 692.512,227.728 C692.512,227.471999 692.603999,227.248001 692.788,227.056 C692.972001,226.863999 693.199998,226.768 693.472,226.768 C693.744001,226.768 693.971999,226.863999 694.156,227.056 C694.340001,227.248001 694.432,227.471999 694.432,227.728 C694.432,227.984001 694.336001,228.207999 694.144,228.4 Z M692.68,244 L692.68,232 L694.264,232 L694.264,244 L692.68,244 Z M704.026666,231.808 C704.874671,231.808 705.650663,232.015998 706.354666,232.432 L705.802666,234.016 C705.130663,233.519998 704.45067,233.272 703.762666,233.272 C702.754661,233.272 701.90667,233.627996 701.218666,234.34 C700.530663,235.052004 700.186666,235.927995 700.186666,236.968 L700.186666,244 L698.602666,244 L698.602666,232 L700.186666,232 L700.186666,233.776 C701.162671,232.463993 702.442658,231.808 704.026666,231.808 Z M713.669333,244.192 C711.957324,244.192 710.497339,243.588006 709.289333,242.38 C708.081327,241.171994 707.477333,239.712009 707.477333,238 C707.477333,236.287991 708.081327,234.828006 709.289333,233.62 C710.497339,232.411994 711.957324,231.808 713.669333,231.808 C714.757338,231.808 715.769328,232.075997 716.705333,232.612 C717.641338,233.148003 718.38133,233.863996 718.925333,234.76 L717.485333,235.456 C717.053331,234.799997 716.501336,234.280002 715.829333,233.896 C715.15733,233.511998 714.437337,233.32 713.669333,233.32 C712.373327,233.32 711.281337,233.771995 710.393333,234.676 C709.505329,235.580005 709.061333,236.687993 709.061333,238 C709.061333,239.312007 709.505329,240.419995 710.393333,241.324 C711.281337,242.228005 712.373327,242.68 713.669333,242.68 C714.437337,242.68 715.15733,242.488002 715.829333,242.104 C716.501336,241.719998 717.053331,241.200003 717.485333,240.544 L718.925333,241.24 C718.38133,242.136004 717.641338,242.851997 716.705333,243.388 C715.769328,243.924003 714.757338,244.192 713.669333,244.192 Z M730.968,232 L732.552,232 L732.552,244 L730.968,244 L730.968,242.224 C729.991995,243.536007 728.712008,244.192 727.128,244.192 C725.735993,244.192 724.568004,243.700005 723.624,242.716 C722.679995,241.731995 722.208,240.520007 722.208,239.08 L722.208,232 L723.84,232 L723.84,239.032 C723.84,240.056005 724.183996,240.923996 724.872,241.636 C725.560003,242.348004 726.399995,242.704 727.392,242.704 C728.400005,242.704 729.247996,242.348004 729.936,241.636 C730.624003,240.923996 730.968,240.056005 730.968,239.032 L730.968,232 Z M738.354666,228.4 C738.178666,228.592001 737.954668,228.688 737.682666,228.688 C737.410665,228.688 737.182667,228.592001 736.998666,228.4 C736.814665,228.207999 736.722666,227.984001 736.722666,227.728 C736.722666,227.471999 736.814665,227.248001 736.998666,227.056 C737.182667,226.863999 737.410665,226.768 737.682666,226.768 C737.954668,226.768 738.182665,226.863999 738.366666,227.056 C738.550667,227.248001 738.642666,227.471999 738.642666,227.728 C738.642666,227.984001 738.546667,228.207999 738.354666,228.4 Z M736.890666,244 L736.890666,232 L738.474666,232 L738.474666,244 L736.890666,244 Z M748.957333,241.312 L749.749333,242.536 C749.653333,242.664001 749.525334,242.815999 749.365333,242.992 C749.205332,243.168001 748.845336,243.411998 748.285333,243.724 C747.72533,244.036002 747.149336,244.192 746.557333,244.192 C745.549328,244.192 744.705336,243.892003 744.025333,243.292 C743.34533,242.691997 743.005333,241.824006 743.005333,240.688 L743.005333,233.44 L741.085333,233.44 L741.085333,231.976 L743.005333,231.976 L743.005333,228.184 L744.589333,227.992 L744.589333,231.976 L748.213333,231.976 L748.213333,233.44 L744.589333,233.44 L744.589333,240.328 C744.589333,241.064004 744.817331,241.647998 745.273333,242.08 C745.729335,242.512002 746.25333,242.728 746.845333,242.728 C747.213335,242.728 747.573331,242.616001 747.925333,242.392 C748.277335,242.167999 748.537332,241.948001 748.705333,241.732 C748.873334,241.515999 748.957333,241.376 748.957333,241.312 Z M765.314666,247.168 C765.234666,247.12 765.126667,247.052 764.990666,246.964 C764.854666,246.876 764.586668,246.668002 764.186666,246.34 C763.786664,246.011998 763.406668,245.656002 763.046666,245.272 C762.686665,244.887998 762.290669,244.376003 761.858666,243.736 C761.426664,243.095997 761.050668,242.416004 760.730666,241.696 C760.410665,240.975996 760.142668,240.112005 759.926666,239.104 C759.710665,238.095995 759.602666,237.048005 759.602666,235.96 C759.602666,234.471993 759.798664,233.068007 760.190666,231.748 C760.582668,230.427993 761.058664,229.356004 761.618666,228.532 C762.178669,227.707996 762.738664,226.996003 763.298666,226.396 C763.858669,225.795997 764.330665,225.368001 764.714666,225.112 L765.314666,224.728 L766.154666,225.592 C766.010666,225.688 765.822668,225.823999 765.590666,226 C765.358665,226.176001 764.946669,226.579997 764.354666,227.212 C763.762663,227.844003 763.238669,228.527996 762.782666,229.264 C762.326664,230.000004 761.914668,230.971994 761.546666,232.18 C761.178665,233.388006 760.994666,234.647993 760.994666,235.96 C760.994666,237.272007 761.170665,238.523994 761.522666,239.716 C761.874668,240.908006 762.306664,241.883996 762.818666,242.644 C763.330669,243.404004 763.842664,244.067997 764.354666,244.636 C764.866669,245.204003 765.298665,245.615999 765.650666,245.872 L766.178666,246.232 L765.314666,247.168 Z M767.709333,244 L767.709333,227.872 L773.181333,227.872 C774.989342,227.872 776.429328,228.347995 777.501333,229.3 C778.573338,230.252005 779.109333,231.447993 779.109333,232.888 C779.109333,234.312007 778.573338,235.503995 777.501333,236.464 C776.429328,237.424005 774.989342,237.904 773.181333,237.904 L769.293333,237.904 L769.293333,244 L767.709333,244 Z M769.293333,236.392 L773.181333,236.392 C774.47734,236.392 775.517329,236.060003 776.301333,235.396 C777.085337,234.731997 777.477333,233.896005 777.477333,232.888 C777.477333,231.895995 777.085337,231.064003 776.301333,230.392 C775.517329,229.719997 774.47734,229.384 773.181333,229.384 L769.293333,229.384 L769.293333,236.392 Z M787.552,231.808 C788.400004,231.808 789.175996,232.015998 789.88,232.432 L789.328,234.016 C788.655996,233.519998 787.976003,233.272 787.288,233.272 C786.279995,233.272 785.432003,233.627996 784.744,234.34 C784.055996,235.052004 783.712,235.927995 783.712,236.968 L783.712,244 L782.128,244 L782.128,232 L783.712,232 L783.712,233.776 C784.688005,232.463993 785.967992,231.808 787.552,231.808 Z M801.874667,232 L803.458667,232 L803.458667,244 L801.874667,244 L801.874667,242.056 C800.64266,243.480007 799.082676,244.192 797.194667,244.192 C795.482658,244.192 794.022673,243.588006 792.814667,242.38 C791.60666,241.171994 791.002667,239.712009 791.002667,238 C791.002667,236.287991 791.60666,234.828006 792.814667,233.62 C794.022673,232.411994 795.482658,231.808 797.194667,231.808 C799.098676,231.808 800.65866,232.519993 801.874667,233.944 L801.874667,232 Z M797.218667,242.68 C798.514673,242.68 799.606662,242.228005 800.494667,241.324 C801.382671,240.419995 801.826667,239.312007 801.826667,238 C801.826667,236.687993 801.382671,235.580005 800.494667,234.676 C799.606662,233.771995 798.514673,233.32 797.218667,233.32 C795.93866,233.32 794.846671,233.771995 793.942667,234.676 C793.038662,235.580005 792.586667,236.687993 792.586667,238 C792.586667,239.312007 793.038662,240.419995 793.942667,241.324 C794.846671,242.228005 795.93866,242.68 797.218667,242.68 Z M812.765333,244.192 C811.053325,244.192 809.593339,243.588006 808.385333,242.38 C807.177327,241.171994 806.573333,239.712009 806.573333,238 C806.573333,236.287991 807.177327,234.828006 808.385333,233.62 C809.593339,232.411994 811.053325,231.808 812.765333,231.808 C813.853339,231.808 814.865329,232.075997 815.801333,232.612 C816.737338,233.148003 817.47733,233.863996 818.021333,234.76 L816.581333,235.456 C816.149331,234.799997 815.597337,234.280002 814.925333,233.896 C814.25333,233.511998 813.533337,233.32 812.765333,233.32 C811.469327,233.32 810.377338,233.771995 809.489333,234.676 C808.601329,235.580005 808.157333,236.687993 808.157333,238 C808.157333,239.312007 808.601329,240.419995 809.489333,241.324 C810.377338,242.228005 811.469327,242.68 812.765333,242.68 C813.533337,242.68 814.25333,242.488002 814.925333,242.104 C815.597337,241.719998 816.149331,241.200003 816.581333,240.544 L818.021333,241.24 C817.47733,242.136004 816.737338,242.851997 815.801333,243.388 C814.865329,243.924003 813.853339,244.192 812.765333,244.192 Z M828.216,241.312 L829.008,242.536 C828.911999,242.664001 828.784001,242.815999 828.624,242.992 C828.463999,243.168001 828.104003,243.411998 827.544,243.724 C826.983997,244.036002 826.408003,244.192 825.816,244.192 C824.807995,244.192 823.964003,243.892003 823.284,243.292 C822.603996,242.691997 822.264,241.824006 822.264,240.688 L822.264,233.44 L820.344,233.44 L820.344,231.976 L822.264,231.976 L822.264,228.184 L823.848,227.992 L823.848,231.976 L827.472,231.976 L827.472,233.44 L823.848,233.44 L823.848,240.328 C823.848,241.064004 824.075998,241.647998 824.532,242.08 C824.988002,242.512002 825.511997,242.728 826.104,242.728 C826.472002,242.728 826.831998,242.616001 827.184,242.392 C827.536002,242.167999 827.795999,241.948001 827.964,241.732 C828.132001,241.515999 828.216,241.376 828.216,241.312 Z M833.442667,228.4 C833.266666,228.592001 833.042668,228.688 832.770667,228.688 C832.498665,228.688 832.270667,228.592001 832.086667,228.4 C831.902666,228.207999 831.810667,227.984001 831.810667,227.728 C831.810667,227.471999 831.902666,227.248001 832.086667,227.056 C832.270667,226.863999 832.498665,226.768 832.770667,226.768 C833.042668,226.768 833.270666,226.863999 833.454667,227.056 C833.638667,227.248001 833.730667,227.471999 833.730667,227.728 C833.730667,227.984001 833.634668,228.207999 833.442667,228.4 Z M831.978667,244 L831.978667,232 L833.562667,232 L833.562667,244 L831.978667,244 Z M843.229333,244.192 C841.517325,244.192 840.057339,243.588006 838.849333,242.38 C837.641327,241.171994 837.037333,239.712009 837.037333,238 C837.037333,236.287991 837.641327,234.828006 838.849333,233.62 C840.057339,232.411994 841.517325,231.808 843.229333,231.808 C844.317339,231.808 845.329329,232.075997 846.265333,232.612 C847.201338,233.148003 847.941331,233.863996 848.485333,234.76 L847.045333,235.456 C846.613331,234.799997 846.061337,234.280002 845.389333,233.896 C844.71733,233.511998 843.997337,233.32 843.229333,233.32 C841.933327,233.32 840.841338,233.771995 839.953333,234.676 C839.065329,235.580005 838.621333,236.687993 838.621333,238 C838.621333,239.312007 839.065329,240.419995 839.953333,241.324 C840.841338,242.228005 841.933327,242.68 843.229333,242.68 C843.997337,242.68 844.71733,242.488002 845.389333,242.104 C846.061337,241.719998 846.613331,241.200003 847.045333,240.544 L848.485333,241.24 C847.941331,242.136004 847.201338,242.851997 846.265333,243.388 C845.329329,243.924003 844.317339,244.192 843.229333,244.192 Z M861.728,232 L863.312,232 L863.312,244 L861.728,244 L861.728,242.056 C860.495994,243.480007 858.936009,244.192 857.048,244.192 C855.335991,244.192 853.876006,243.588006 852.668,242.38 C851.459994,241.171994 850.856,239.712009 850.856,238 C850.856,236.287991 851.459994,234.828006 852.668,233.62 C853.876006,232.411994 855.335991,231.808 857.048,231.808 C858.952009,231.808 860.511994,232.519993 861.728,233.944 L861.728,232 Z M857.072,242.68 C858.368006,242.68 859.459996,242.228005 860.348,241.324 C861.236004,240.419995 861.68,239.312007 861.68,238 C861.68,236.687993 861.236004,235.580005 860.348,234.676 C859.459996,233.771995 858.368006,233.32 857.072,233.32 C855.791994,233.32 854.700004,233.771995 853.796,234.676 C852.891995,235.580005 852.44,236.687993 852.44,238 C852.44,239.312007 852.891995,240.419995 853.796,241.324 C854.700004,242.228005 855.791994,242.68 857.072,242.68 Z M867.362667,244 L867.362667,226.144 L868.946667,226.144 L868.946667,244 L867.362667,244 Z M872.493333,247.168 L871.629333,246.232 C871.773334,246.152 871.961332,246.024001 872.193333,245.848 C872.425334,245.671999 872.83733,245.272003 873.429333,244.648 C874.021336,244.023997 874.545331,243.348004 875.001333,242.62 C875.457336,241.891996 875.873331,240.928006 876.249333,239.728 C876.625335,238.527994 876.813333,237.272007 876.813333,235.96 C876.813333,234.647993 876.637335,233.396006 876.285333,232.204 C875.933332,231.011994 875.505336,230.032004 875.001333,229.264 C874.497331,228.495996 873.989336,227.820003 873.477333,227.236 C872.965331,226.651997 872.533335,226.232001 872.181333,225.976 L871.653333,225.592 L872.493333,224.728 C872.573334,224.776 872.681333,224.844 872.817333,224.932 C872.953334,225.02 873.221331,225.227998 873.621333,225.556 C874.021335,225.884002 874.401332,226.239998 874.761333,226.624 C875.121335,227.008002 875.517331,227.527997 875.949333,228.184 C876.381335,228.840003 876.757332,229.523996 877.077333,230.236 C877.397335,230.948004 877.665332,231.807995 877.881333,232.816 C878.097334,233.824005 878.205333,234.871995 878.205333,235.96 C878.205333,237.048005 878.101334,238.091995 877.893333,239.092 C877.685332,240.092005 877.413335,240.955996 877.077333,241.684 C876.741332,242.412004 876.369335,243.091997 875.961333,243.724 C875.553331,244.356003 875.145335,244.875998 874.737333,245.284 C874.329331,245.692002 873.957335,246.043999 873.621333,246.34 C873.285332,246.636001 873.013334,246.847999 872.805333,246.976 L872.493333,247.168 Z" id="LED-Parallel-Circuit-Copy" fill="#23ABE3"></path>
        <g id="Circuit" transform="translate(190.000000, 30.000000)">
            <polyline id="Resistor" stroke="#3D3530" stroke-width="3" stroke-linejoin="round" transform="translate(215.000000, 45.000000) rotate(-270.000000) translate(-215.000000, -45.000000) " points="180 45 185 45 190 32 200 58 210 32 220 58 230 32 240 58 245 45 250 45"></polyline>
            <polyline id="Resistor-Copy" stroke="#3D3530" stroke-width="3" stroke-linejoin="round" transform="translate(285.000000, 45.000000) rotate(-270.000000) translate(-285.000000, -45.000000) " points="250 45 255 45 260 32 270 58 280 32 290 58 300 32 310 58 315 45 320 45"></polyline>
            <polyline id="Resistor-Copy-2" stroke="#3D3530" stroke-width="3" stroke-linejoin="round" transform="translate(355.000000, 45.000000) rotate(-270.000000) translate(-355.000000, -45.000000) " points="320 45 325 45 330 32 340 58 350 32 360 58 370 32 380 58 385 45 390 45"></polyline>
            <g id="LED" transform="translate(229.500000, 115.000000) rotate(-270.000000) translate(-229.500000, -115.000000) translate(194.500000, 87.500000)">
                <polygon id="Path-2" fill="#3D3530" points="24.5 29 44 42 24.5 55"></polygon>
                <path d="M44,42 L70,42" id="Path-2-Copy" stroke="#3D3530" stroke-width="3"></path>
                <path d="M44,29 L44,55" id="Path-4-Copy" stroke="#3D3530" stroke-width="3"></path>
                <path d="M0,42 L24.5,42" id="Path-3" stroke="#3D3530" stroke-width="3"></path>
                <g id="Arrow" transform="translate(43.647114, 19.941343) rotate(-150.000000) translate(-43.647114, -19.941343) translate(39.147114, 6.441343)">
                    <polygon id="Triangle" fill="#3D3530" transform="translate(4.633975, 19.633975) scale(1, -1) translate(-4.633975, -19.633975) " points="4.6339746 13.1339746 8.6339746 26.1339746 0.633974596 26.1339746"></polygon>
                    <path d="M4.5,0 L4.5,20" id="Path-3" stroke="#3D3530" stroke-width="3"></path>
                </g>
                <g id="Arrow" transform="translate(33.647114, 13.941343) rotate(-150.000000) translate(-33.647114, -13.941343) translate(29.147114, 0.441343)">
                    <polygon id="Triangle" fill="#3D3530" transform="translate(4.633975, 19.633975) scale(1, -1) translate(-4.633975, -19.633975) " points="4.6339746 13.1339746 8.6339746 26.1339746 0.633974596 26.1339746"></polygon>
                    <path d="M4.5,1.13686838e-13 L4.5,20" id="Path-3" stroke="#3D3530" stroke-width="3"></path>
                </g>
            </g>
            <g id="LED-Copy" transform="translate(299.500000, 115.000000) rotate(-270.000000) translate(-299.500000, -115.000000) translate(264.500000, 87.500000)">
                <polygon id="Path-2" fill="#3D3530" points="24.5 29 44 42 24.5 55"></polygon>
                <path d="M44,42 L70,42" id="Path-2-Copy" stroke="#3D3530" stroke-width="3"></path>
                <path d="M44,29 L44,55" id="Path-4-Copy" stroke="#3D3530" stroke-width="3"></path>
                <path d="M0,42 L24.5,42" id="Path-3" stroke="#3D3530" stroke-width="3"></path>
                <g id="Arrow" transform="translate(43.647114, 19.941343) rotate(-150.000000) translate(-43.647114, -19.941343) translate(39.147114, 6.441343)">
                    <polygon id="Triangle" fill="#3D3530" transform="translate(4.633975, 19.633975) scale(1, -1) translate(-4.633975, -19.633975) " points="4.6339746 13.1339746 8.6339746 26.1339746 0.633974596 26.1339746"></polygon>
                    <path d="M4.5,0 L4.5,20" id="Path-3" stroke="#3D3530" stroke-width="3"></path>
                </g>
                <g id="Arrow" transform="translate(33.647114, 13.941343) rotate(-150.000000) translate(-33.647114, -13.941343) translate(29.147114, 0.441343)">
                    <polygon id="Triangle" fill="#3D3530" transform="translate(4.633975, 19.633975) scale(1, -1) translate(-4.633975, -19.633975) " points="4.6339746 13.1339746 8.6339746 26.1339746 0.633974596 26.1339746"></polygon>
                    <path d="M4.5,1.13686838e-13 L4.5,20" id="Path-3" stroke="#3D3530" stroke-width="3"></path>
                </g>
            </g>
            <g id="LED-Copy-2" transform="translate(369.500000, 115.000000) rotate(-270.000000) translate(-369.500000, -115.000000) translate(334.500000, 87.500000)">
                <polygon id="Path-2" fill="#3D3530" points="24.5 29 44 42 24.5 55"></polygon>
                <path d="M44,42 L70,42" id="Path-2-Copy" stroke="#3D3530" stroke-width="3"></path>
                <path d="M44,29 L44,55" id="Path-4-Copy" stroke="#3D3530" stroke-width="3"></path>
                <path d="M0,42 L24.5,42" id="Path-3" stroke="#3D3530" stroke-width="3"></path>
                <g id="Arrow" transform="translate(43.647114, 19.941343) rotate(-150.000000) translate(-43.647114, -19.941343) translate(39.147114, 6.441343)">
                    <polygon id="Triangle" fill="#3D3530" transform="translate(4.633975, 19.633975) scale(1, -1) translate(-4.633975, -19.633975) " points="4.6339746 13.1339746 8.6339746 26.1339746 0.633974596 26.1339746"></polygon>
                    <path d="M4.5,0 L4.5,20" id="Path-3" stroke="#3D3530" stroke-width="3"></path>
                </g>
                <g id="Arrow" transform="translate(33.647114, 13.941343) rotate(-150.000000) translate(-33.647114, -13.941343) translate(29.147114, 0.441343)">
                    <polygon id="Triangle" fill="#3D3530" transform="translate(4.633975, 19.633975) scale(1, -1) translate(-4.633975, -19.633975) " points="4.6339746 13.1339746 8.6339746 26.1339746 0.633974596 26.1339746"></polygon>
                    <path d="M4.5,1.13686838e-13 L4.5,20" id="Path-3" stroke="#3D3530" stroke-width="3"></path>
                </g>
            </g>
            <g id="Power" transform="translate(0.000000, 40.000000)"></g>
            <g id="DC_Power" transform="translate(40.000000, 40.000000)">
                <circle id="Oval" stroke="#3D3530" stroke-width="3" cx="40" cy="40" r="40"></circle>
                <g id="+" transform="translate(36.000000, 11.000000)" stroke="#3D3530" stroke-width="2">
                    <path d="M4,4 L0,4 L4,4 L4,8 L4,4 Z M4,4 L8,4 L4,4 L4,0 L4,4 Z" id="Combined-Shape"></path>
                </g>
                <g id="-" transform="translate(36.000000, 66.000000)" stroke="#3D3530" stroke-width="2">
                    <path d="M0,1 L8,1" id="Path"></path>
                </g>
                <path d="M102.196,33.104 C101.251995,33.104 100.640001,33.2199988 100.36,33.452 C100.079999,33.6840012 99.740002,34.2639954 99.34,35.192 L94.06,47.408 L93.748,47.408 L88.444,35.192 C88.043998,34.2639954 87.7040014,33.6840012 87.424,33.452 C87.1439986,33.2199988 86.5320047,33.104 85.588,33.104 L85.588,32.6 L92.236,32.6 L92.236,33.104 C91.243995,33.104 90.6080014,33.2439986 90.328,33.524 C90.0479986,33.8040014 90.0599985,34.2719967 90.364,34.928 L94.444,44.264 L98.476,34.928 C98.7800015,34.2719967 98.7920014,33.8040014 98.512,33.524 C98.2319986,33.2439986 97.596005,33.104 96.604,33.104 L96.604,32.6 L102.196,32.6 L102.196,33.104 Z M105.172,55.28 C104.803998,55.5840015 104.572,55.9599978 104.476,56.408 L103.996,56.408 L103.996,51.128 L104.5,51.128 C104.5,51.1920003 104.504,51.2759995 104.512,51.38 C104.52,51.4840005 104.552,51.6839985 104.608,51.98 C104.664,52.2760015 104.743999,52.5599986 104.848,52.832 C104.952001,53.1040014 105.115999,53.4079983 105.34,53.744 C105.564001,54.0800017 105.823999,54.3679988 106.12,54.608 C106.416001,54.8480012 106.807998,55.0479992 107.296,55.208 C107.784002,55.3680008 108.323997,55.448 108.916,55.448 C109.780004,55.448 110.495997,55.2000025 111.064,54.704 C111.632003,54.2079975 111.916,53.5760038 111.916,52.808 C111.916,51.8319951 110.996009,50.8640048 109.156,49.904 L106.852,48.728 C106.099996,48.327998 105.468003,47.7840034 104.956,47.096 C104.443997,46.4079966 104.188,45.6320043 104.188,44.768 C104.188,43.759995 104.563996,42.9120034 105.316,42.224 C106.068004,41.5359966 107.019994,41.192 108.172,41.192 C109.228005,41.192 110.203996,41.5199967 111.1,42.176 C111.468002,41.8719985 111.7,41.5040022 111.796,41.072 L112.276,41.072 L112.276,46.352 L111.772,46.352 C111.531999,43.551986 110.308011,42.152 108.1,42.152 C107.427997,42.152 106.872002,42.355998 106.432,42.764 C105.991998,43.172002 105.772,43.679997 105.772,44.288 C105.772,44.880003 105.983998,45.379998 106.408,45.788 C106.832002,46.196002 107.595994,46.6879971 108.7,47.264 L110.98,48.44 C112.660008,49.2880042 113.5,50.5039921 113.5,52.088 C113.5,53.3680064 113.056004,54.407996 112.168,55.208 C111.279996,56.008004 110.196006,56.408 108.916,56.408 C108.371997,56.408 107.852002,56.3280008 107.356,56.168 C106.859998,56.0079992 106.412002,55.828001 106.012,55.628 C105.611998,55.427999 105.332001,55.3120002 105.172,55.28 Z" id="VS-Copy" fill="#524740"></path>
            </g>
            <g id="Wiring" transform="translate(80.000000, 0.000000)" stroke="#3D3530" stroke-width="2">
                <polyline id="Path-13" points="1.7847978e-29 40 0 -1.15768506e-13 362 -1.15768506e-13 362 160 0 160 1.13686838e-13 120"></polyline>
                <path d="M135,10 L135,0" id="Path-4"></path>
                <path d="M205,10 L205,0" id="Path-4-Copy-2"></path>
                <path d="M275,10 L275,0" id="Path-4-Copy-3"></path>
                <path d="M135,160 L135,150" id="Path-4-Copy-6"></path>
                <path d="M205,160 L205,150" id="Path-4-Copy-5"></path>
                <path d="M275,160 L275,150" id="Path-4-Copy-4"></path>
            </g>
        </g>
    </g>
</svg>