<?xml version="1.0" encoding="UTF-8"?>
<svg width="900px" height="280px" viewBox="0 0 900 280" version="1.1" xmlns="http://www.w3.org/2000/svg" xmlns:xlink="http://www.w3.org/1999/xlink">
    <!-- Generator: Sketch 52.5 (67469) - http://www.bohemiancoding.com/sketch -->
    <title>LED_Parallel_Circuit</title>
    <desc>Created with Sketch.</desc>
    <g id="LED_Parallel_Circuit" stroke="none" stroke-width="1" fill="none" fill-rule="evenodd">
        <rect id="Rectangle" stroke="#3D3530" stroke-width="2" fill="#EEEEEE" x="1" y="1" width="898" height="408"></rect>
        <path d="M553.172,254.624 L564.188,254.624 L564.188,257 L550.796,257 L550.796,232.808 L553.172,232.808 L553.172,254.624 Z M584.016,235.184 L570.516,235.184 L570.516,243.5 L578.112,243.5 L578.112,245.876 L570.516,245.876 L570.516,254.624 L584.016,254.624 L584.016,257 L568.14,257 L568.14,232.808 L584.016,232.808 L584.016,235.184 Z M589.768,257 L589.768,232.808 L595.24,232.808 C599.22402,232.808 602.391988,233.959988 604.744,236.264 C607.096012,238.568012 608.272,241.447983 608.272,244.904 C608.272,248.336017 607.090012,251.209988 604.726,253.526 C602.361988,255.842012 599.20002,257 595.24,257 L589.768,257 Z M592.144,254.732 L595.24,254.732 C598.408016,254.732 600.939991,253.802009 602.836,251.942 C604.732009,250.081991 605.68,247.736014 605.68,244.904 C605.68,242.071986 604.732009,239.726009 602.836,237.866 C600.939991,236.005991 598.408016,235.076 595.24,235.076 L592.144,235.076 L592.144,254.732 Z M624.348,257 L624.348,232.808 L632.556,232.808 C635.268014,232.808 637.427992,233.521993 639.036,234.95 C640.644008,236.378007 641.448,238.171989 641.448,240.332 C641.448,242.468011 640.644008,244.255993 639.036,245.696 C637.427992,247.136007 635.268014,247.856 632.556,247.856 L626.724,247.856 L626.724,257 L624.348,257 Z M626.724,245.588 L632.556,245.588 C634.50001,245.588 636.059994,245.090005 637.236,244.094 C638.412006,243.097995 639,241.844008 639,240.332 C639,238.843993 638.412006,237.596005 637.236,236.588 C636.059994,235.579995 634.50001,235.076 632.556,235.076 L626.724,235.076 L626.724,245.588 Z M660.52,239 L662.896,239 L662.896,257 L660.52,257 L660.52,254.084 C658.671991,256.220011 656.332014,257.288 653.5,257.288 C650.931987,257.288 648.742009,256.382009 646.93,254.57 C645.117991,252.757991 644.212,250.568013 644.212,248 C644.212,245.431987 645.117991,243.242009 646.93,241.43 C648.742009,239.617991 650.931987,238.712 653.5,238.712 C656.356014,238.712 658.695991,239.779989 660.52,241.916 L660.52,239 Z M653.536,255.02 C655.48001,255.02 657.117993,254.342007 658.45,252.986 C659.782007,251.629993 660.448,249.96801 660.448,248 C660.448,246.03199 659.782007,244.370007 658.45,243.014 C657.117993,241.657993 655.48001,240.98 653.536,240.98 C651.61599,240.98 649.978007,241.657993 648.622,243.014 C647.265993,244.370007 646.588,246.03199 646.588,248 C646.588,249.96801 647.265993,251.629993 648.622,252.986 C649.978007,254.342007 651.61599,255.02 653.536,255.02 Z M676.892,238.712 C678.164006,238.712 679.327995,239.023997 680.384,239.648 L679.556,242.024 C678.547995,241.279996 677.528005,240.908 676.496,240.908 C674.983992,240.908 673.712005,241.441995 672.68,242.51 C671.647995,243.578005 671.132,244.891992 671.132,246.452 L671.132,257 L668.756,257 L668.756,239 L671.132,239 L671.132,241.664 C672.596007,239.69599 674.515988,238.712 676.892,238.712 Z M698.376,239 L700.752,239 L700.752,257 L698.376,257 L698.376,254.084 C696.527991,256.220011 694.188014,257.288 691.356,257.288 C688.787987,257.288 686.598009,256.382009 684.786,254.57 C682.973991,252.757991 682.068,250.568013 682.068,248 C682.068,245.431987 682.973991,243.242009 684.786,241.43 C686.598009,239.617991 688.787987,238.712 691.356,238.712 C694.212014,238.712 696.551991,239.779989 698.376,241.916 L698.376,239 Z M691.392,255.02 C693.33601,255.02 694.973993,254.342007 696.306,252.986 C697.638007,251.629993 698.304,249.96801 698.304,248 C698.304,246.03199 697.638007,244.370007 696.306,243.014 C694.973993,241.657993 693.33601,240.98 691.392,240.98 C689.47199,240.98 687.834007,241.657993 686.478,243.014 C685.121993,244.370007 684.444,246.03199 684.444,248 C684.444,249.96801 685.121993,251.629993 686.478,252.986 C687.834007,254.342007 689.47199,255.02 691.392,255.02 Z M706.828,257 L706.828,230.216 L709.204,230.216 L709.204,257 L706.828,257 Z M715.208,257 L715.208,230.216 L717.584,230.216 L717.584,257 L715.208,257 Z M731.724,254.912 C733.332008,254.912 734.771994,254.456005 736.044,253.544 C737.316006,252.631995 738.179998,251.564006 738.636,250.34 L740.652,251.06 C740.099997,252.572008 739.026008,253.963994 737.43,255.236 C735.833992,256.508006 733.932011,257.132 731.724,257.108 C729.70799,257.108 727.866008,256.484006 726.198,255.236 C724.529992,253.987994 723.396003,252.39201 722.796,250.448 C722.555999,249.655996 722.436,248.792005 722.436,247.856 C722.436,245.263987 723.335991,243.068009 725.136,241.268 C726.936009,239.467991 729.131987,238.556 731.724,238.532 C734.076012,238.556 736.127991,239.347992 737.88,240.908 C739.632009,242.468008 740.639999,244.399988 740.904,246.704 C740.928,246.824001 740.94,246.979999 740.94,247.172 L725.208,250.016 C725.616002,251.456007 726.431994,252.637995 727.656,253.562 C728.880006,254.486005 730.235993,254.936 731.724,254.912 Z M731.508,240.728 C729.707991,240.752 728.166006,241.399994 726.882,242.672 C725.597994,243.944006 724.908,245.467991 724.812,247.244 C724.812,247.316 724.818,247.441999 724.83,247.622 C724.842,247.802001 724.848,247.951999 724.848,248.072 L738.24,245.66 C737.783998,244.195993 736.932006,243.002005 735.684,242.078 C734.435994,241.153995 733.044008,240.704 731.508,240.728 Z M746.188,257 L746.188,230.216 L748.564,230.216 L748.564,257 L746.188,257 Z M776.304,257.288 C772.751982,257.288 769.920011,256.106012 767.808,253.742 C765.695989,251.377988 764.64,248.444018 764.64,244.94 C764.64,241.411982 765.695989,238.466012 767.808,236.102 C769.920011,233.737988 772.751982,232.556 776.304,232.556 C778.656012,232.556 780.701991,233.095995 782.442,234.176 C784.182009,235.256005 785.531995,236.731991 786.492,238.604 L784.26,239.9 C783.491996,238.339992 782.418007,237.104005 781.038,236.192 C779.657993,235.279995 778.080009,234.824 776.304,234.824 C773.567986,234.824 771.378008,235.77799 769.734,237.686 C768.089992,239.59401 767.268,242.011985 767.268,244.94 C767.268,247.844015 768.089992,250.25599 769.734,252.176 C771.378008,254.09601 773.567986,255.056 776.304,255.056 C778.104009,255.056 779.693993,254.594005 781.074,253.67 C782.454007,252.745995 783.515996,251.504008 784.26,249.944 L786.492,251.276 C785.531995,253.148009 784.182009,254.617995 782.442,255.686 C780.701991,256.754005 778.656012,257.288 776.304,257.288 Z M794.26,233.6 C793.995999,233.888001 793.660002,234.032 793.252,234.032 C792.843998,234.032 792.502001,233.888001 792.226,233.6 C791.949999,233.311999 791.812,232.976002 791.812,232.592 C791.812,232.207998 791.949999,231.872001 792.226,231.584 C792.502001,231.295999 792.843998,231.152 793.252,231.152 C793.660002,231.152 794.001999,231.295999 794.278,231.584 C794.554001,231.872001 794.692,232.207998 794.692,232.592 C794.692,232.976002 794.548001,233.311999 794.26,233.6 Z M792.064,257 L792.064,239 L794.44,239 L794.44,257 L792.064,257 Z M809.084,238.712 C810.356006,238.712 811.519995,239.023997 812.576,239.648 L811.748,242.024 C810.739995,241.279996 809.720005,240.908 808.688,240.908 C807.175992,240.908 805.904005,241.441995 804.872,242.51 C803.839995,243.578005 803.324,244.891992 803.324,246.452 L803.324,257 L800.948,257 L800.948,239 L803.324,239 L803.324,241.664 C804.788007,239.69599 806.707988,238.712 809.084,238.712 Z M823.548,257.288 C820.979987,257.288 818.790009,256.382009 816.978,254.57 C815.165991,252.757991 814.26,250.568013 814.26,248 C814.26,245.431987 815.165991,243.242009 816.978,241.43 C818.790009,239.617991 820.979987,238.712 823.548,238.712 C825.180008,238.712 826.697993,239.113996 828.102,239.918 C829.506007,240.722004 830.615996,241.795993 831.432,243.14 L829.272,244.184 C828.623997,243.199995 827.796005,242.420003 826.788,241.844 C825.779995,241.267997 824.700006,240.98 823.548,240.98 C821.60399,240.98 819.966007,241.657993 818.634,243.014 C817.301993,244.370007 816.636,246.03199 816.636,248 C816.636,249.96801 817.301993,251.629993 818.634,252.986 C819.966007,254.342007 821.60399,255.02 823.548,255.02 C824.700006,255.02 825.779995,254.732003 826.788,254.156 C827.796005,253.579997 828.623997,252.800005 829.272,251.816 L831.432,252.86 C830.615996,254.204007 829.506007,255.277996 828.102,256.082 C826.697993,256.886004 825.180008,257.288 823.548,257.288 Z M849.496,239 L851.872,239 L851.872,257 L849.496,257 L849.496,254.336 C848.031993,256.30401 846.112012,257.288 843.736,257.288 C841.64799,257.288 839.896007,256.550007 838.48,255.074 C837.063993,253.597993 836.356,251.780011 836.356,249.62 L836.356,239 L838.804,239 L838.804,249.548 C838.804,251.084008 839.319995,252.385995 840.352,253.454 C841.384005,254.522005 842.643993,255.056 844.132,255.056 C845.644008,255.056 846.915995,254.522005 847.948,253.454 C848.980005,252.385995 849.496,251.084008 849.496,249.548 L849.496,239 Z M860.576,233.6 C860.311999,233.888001 859.976002,234.032 859.568,234.032 C859.159998,234.032 858.818001,233.888001 858.542,233.6 C858.265999,233.311999 858.128,232.976002 858.128,232.592 C858.128,232.207998 858.265999,231.872001 858.542,231.584 C858.818001,231.295999 859.159998,231.152 859.568,231.152 C859.976002,231.152 860.317999,231.295999 860.594,231.584 C860.870001,231.872001 861.008,232.207998 861.008,232.592 C861.008,232.976002 860.864001,233.311999 860.576,233.6 Z M858.38,257 L858.38,239 L860.756,239 L860.756,257 L858.38,257 Z M876.48,252.968 L877.668,254.804 C877.523999,254.996001 877.332001,255.223999 877.092,255.488 C876.851999,255.752001 876.312004,256.117998 875.472,256.586 C874.631996,257.054002 873.768004,257.288 872.88,257.288 C871.367992,257.288 870.102005,256.838005 869.082,255.938 C868.061995,255.037995 867.552,253.736009 867.552,252.032 L867.552,241.16 L864.672,241.16 L864.672,238.964 L867.552,238.964 L867.552,233.276 L869.928,232.988 L869.928,238.964 L875.364,238.964 L875.364,241.16 L869.928,241.16 L869.928,251.492 C869.928,252.596006 870.269997,253.471997 870.954,254.12 C871.638003,254.768003 872.423996,255.092 873.312,255.092 C873.864003,255.092 874.403997,254.924002 874.932,254.588 C875.460003,254.251998 875.849999,253.922002 876.102,253.598 C876.354001,253.273998 876.48,253.064 876.48,252.968 Z" id="LED-Parallel-Circuit-Copy" fill="#23ABE3"></path>
        <rect id="Rectangle-Copy" stroke="#3D3530" stroke-width="2" x="1" y="217" width="898" height="62"></rect>
        <g id="Circuit" transform="translate(190.000000, 47.000000)">
            <g id="LED" transform="translate(229.500000, 63.000000) rotate(-270.000000) translate(-229.500000, -63.000000) translate(194.500000, 35.500000)">
                <polygon id="Path-2" fill="#3D3530" points="24.5 29 44 42 24.5 55"></polygon>
                <path d="M44,42 L70,42" id="Path-2-Copy" stroke="#3D3530" stroke-width="3"></path>
                <path d="M44,29 L44,55" id="Path-4-Copy" stroke="#3D3530" stroke-width="3"></path>
                <path d="M0,42 L24.5,42" id="Path-3" stroke="#3D3530" stroke-width="3"></path>
                <g id="Arrow" transform="translate(43.647114, 19.941343) rotate(-150.000000) translate(-43.647114, -19.941343) translate(39.147114, 6.441343)">
                    <polygon id="Triangle" fill="#3D3530" transform="translate(4.633975, 19.633975) scale(1, -1) translate(-4.633975, -19.633975) " points="4.6339746 13.1339746 8.6339746 26.1339746 0.633974596 26.1339746"></polygon>
                    <path d="M4.5,0 L4.5,20" id="Path-3" stroke="#3D3530" stroke-width="3"></path>
                </g>
                <g id="Arrow" transform="translate(33.647114, 13.941343) rotate(-150.000000) translate(-33.647114, -13.941343) translate(29.147114, 0.441343)">
                    <polygon id="Triangle" fill="#3D3530" transform="translate(4.633975, 19.633975) scale(1, -1) translate(-4.633975, -19.633975) " points="4.6339746 13.1339746 8.6339746 26.1339746 0.633974596 26.1339746"></polygon>
                    <path d="M4.5,1.13686838e-13 L4.5,20" id="Path-3" stroke="#3D3530" stroke-width="3"></path>
                </g>
            </g>
            <g id="LED-Copy" transform="translate(299.500000, 63.000000) rotate(-270.000000) translate(-299.500000, -63.000000) translate(264.500000, 35.500000)">
                <polygon id="Path-2" fill="#3D3530" points="24.5 29 44 42 24.5 55"></polygon>
                <path d="M44,42 L70,42" id="Path-2-Copy" stroke="#3D3530" stroke-width="3"></path>
                <path d="M44,29 L44,55" id="Path-4-Copy" stroke="#3D3530" stroke-width="3"></path>
                <path d="M0,42 L24.5,42" id="Path-3" stroke="#3D3530" stroke-width="3"></path>
                <g id="Arrow" transform="translate(43.647114, 19.941343) rotate(-150.000000) translate(-43.647114, -19.941343) translate(39.147114, 6.441343)">
                    <polygon id="Triangle" fill="#3D3530" transform="translate(4.633975, 19.633975) scale(1, -1) translate(-4.633975, -19.633975) " points="4.6339746 13.1339746 8.6339746 26.1339746 0.633974596 26.1339746"></polygon>
                    <path d="M4.5,0 L4.5,20" id="Path-3" stroke="#3D3530" stroke-width="3"></path>
                </g>
                <g id="Arrow" transform="translate(33.647114, 13.941343) rotate(-150.000000) translate(-33.647114, -13.941343) translate(29.147114, 0.441343)">
                    <polygon id="Triangle" fill="#3D3530" transform="translate(4.633975, 19.633975) scale(1, -1) translate(-4.633975, -19.633975) " points="4.6339746 13.1339746 8.6339746 26.1339746 0.633974596 26.1339746"></polygon>
                    <path d="M4.5,1.13686838e-13 L4.5,20" id="Path-3" stroke="#3D3530" stroke-width="3"></path>
                </g>
            </g>
            <g id="LED-Copy-2" transform="translate(369.500000, 63.000000) rotate(-270.000000) translate(-369.500000, -63.000000) translate(334.500000, 35.500000)">
                <polygon id="Path-2" fill="#3D3530" points="24.5 29 44 42 24.5 55"></polygon>
                <path d="M44,42 L70,42" id="Path-2-Copy" stroke="#3D3530" stroke-width="3"></path>
                <path d="M44,29 L44,55" id="Path-4-Copy" stroke="#3D3530" stroke-width="3"></path>
                <path d="M0,42 L24.5,42" id="Path-3" stroke="#3D3530" stroke-width="3"></path>
                <g id="Arrow" transform="translate(43.647114, 19.941343) rotate(-150.000000) translate(-43.647114, -19.941343) translate(39.147114, 6.441343)">
                    <polygon id="Triangle" fill="#3D3530" transform="translate(4.633975, 19.633975) scale(1, -1) translate(-4.633975, -19.633975) " points="4.6339746 13.1339746 8.6339746 26.1339746 0.633974596 26.1339746"></polygon>
                    <path d="M4.5,0 L4.5,20" id="Path-3" stroke="#3D3530" stroke-width="3"></path>
                </g>
                <g id="Arrow" transform="translate(33.647114, 13.941343) rotate(-150.000000) translate(-33.647114, -13.941343) translate(29.147114, 0.441343)">
                    <polygon id="Triangle" fill="#3D3530" transform="translate(4.633975, 19.633975) scale(1, -1) translate(-4.633975, -19.633975) " points="4.6339746 13.1339746 8.6339746 26.1339746 0.633974596 26.1339746"></polygon>
                    <path d="M4.5,1.13686838e-13 L4.5,20" id="Path-3" stroke="#3D3530" stroke-width="3"></path>
                </g>
            </g>
            <g id="Power" transform="translate(0.000000, 23.000000)"></g>
            <g id="DC_Power" transform="translate(40.000000, 23.000000)">
                <circle id="Oval" stroke="#3D3530" stroke-width="3" cx="40" cy="40" r="40"></circle>
                <g id="+" transform="translate(36.000000, 11.000000)" stroke="#3D3530" stroke-width="2">
                    <path d="M4,4 L0,4 L4,4 L4,8 L4,4 Z M4,4 L8,4 L4,4 L4,0 L4,4 Z" id="Combined-Shape"></path>
                </g>
                <g id="-" transform="translate(36.000000, 66.000000)" stroke="#3D3530" stroke-width="2">
                    <path d="M0,1 L8,1" id="Path"></path>
                </g>
                <path d="M102.196,33.104 C101.251995,33.104 100.640001,33.2199988 100.36,33.452 C100.079999,33.6840012 99.740002,34.2639954 99.34,35.192 L94.06,47.408 L93.748,47.408 L88.444,35.192 C88.043998,34.2639954 87.7040014,33.6840012 87.424,33.452 C87.1439986,33.2199988 86.5320047,33.104 85.588,33.104 L85.588,32.6 L92.236,32.6 L92.236,33.104 C91.243995,33.104 90.6080014,33.2439986 90.328,33.524 C90.0479986,33.8040014 90.0599985,34.2719967 90.364,34.928 L94.444,44.264 L98.476,34.928 C98.7800015,34.2719967 98.7920014,33.8040014 98.512,33.524 C98.2319986,33.2439986 97.596005,33.104 96.604,33.104 L96.604,32.6 L102.196,32.6 L102.196,33.104 Z M105.172,55.28 C104.803998,55.5840015 104.572,55.9599978 104.476,56.408 L103.996,56.408 L103.996,51.128 L104.5,51.128 C104.5,51.1920003 104.504,51.2759995 104.512,51.38 C104.52,51.4840005 104.552,51.6839985 104.608,51.98 C104.664,52.2760015 104.743999,52.5599986 104.848,52.832 C104.952001,53.1040014 105.115999,53.4079983 105.34,53.744 C105.564001,54.0800017 105.823999,54.3679988 106.12,54.608 C106.416001,54.8480012 106.807998,55.0479992 107.296,55.208 C107.784002,55.3680008 108.323997,55.448 108.916,55.448 C109.780004,55.448 110.495997,55.2000025 111.064,54.704 C111.632003,54.2079975 111.916,53.5760038 111.916,52.808 C111.916,51.8319951 110.996009,50.8640048 109.156,49.904 L106.852,48.728 C106.099996,48.327998 105.468003,47.7840034 104.956,47.096 C104.443997,46.4079966 104.188,45.6320043 104.188,44.768 C104.188,43.759995 104.563996,42.9120034 105.316,42.224 C106.068004,41.5359966 107.019994,41.192 108.172,41.192 C109.228005,41.192 110.203996,41.5199967 111.1,42.176 C111.468002,41.8719985 111.7,41.5040022 111.796,41.072 L112.276,41.072 L112.276,46.352 L111.772,46.352 C111.531999,43.551986 110.308011,42.152 108.1,42.152 C107.427997,42.152 106.872002,42.355998 106.432,42.764 C105.991998,43.172002 105.772,43.679997 105.772,44.288 C105.772,44.880003 105.983998,45.379998 106.408,45.788 C106.832002,46.196002 107.595994,46.6879971 108.7,47.264 L110.98,48.44 C112.660008,49.2880042 113.5,50.5039921 113.5,52.088 C113.5,53.3680064 113.056004,54.407996 112.168,55.208 C111.279996,56.008004 110.196006,56.408 108.916,56.408 C108.371997,56.408 107.852002,56.3280008 107.356,56.168 C106.859998,56.0079992 106.412002,55.828001 106.012,55.628 C105.611998,55.427999 105.332001,55.3120002 105.172,55.28 Z" id="VS-Copy" fill="#524740"></path>
            </g>
            <g id="Wiring" transform="translate(80.000000, 0.000000)" stroke="#3D3530">
                <polyline id="Path-13" stroke-width="2" points="115 13 362 13 362 113 0 113 1.13686838e-13 103"></polyline>
                <polyline id="Resistor" stroke-width="3" stroke-linejoin="round" points="45 13 50 13 55 0 65 26 75 0 85 26 95 0 105 26 110 13 115 13"></polyline>
                <path d="M135,28 L135,13" id="Path-4" stroke-width="2"></path>
                <path d="M205,28 L205,13" id="Path-4-Copy-2" stroke-width="2"></path>
                <path d="M275,28 L275,13" id="Path-4-Copy-3" stroke-width="2"></path>
                <path d="M135,112 L135,97" id="Path-4-Copy-6" stroke-width="2"></path>
                <path d="M205,112 L205,97" id="Path-4-Copy-5" stroke-width="2"></path>
                <path d="M275,112 L275,97" id="Path-4-Copy-4" stroke-width="2"></path>
            </g>
        </g>
        <polyline id="Path-14" stroke="#3D3530" stroke-width="2" points="315 60 270 60 270 70"></polyline>
    </g>
</svg>