<?xml version="1.0" encoding="UTF-8"?>
<svg width="900px" height="310px" viewBox="0 0 900 310" version="1.1" xmlns="http://www.w3.org/2000/svg" xmlns:xlink="http://www.w3.org/1999/xlink">
    <!-- Generator: Sketch 52.5 (67469) - http://www.bohemiancoding.com/sketch -->
    <title>LED_Series_Circuit_Example</title>
    <desc>Created with Sketch.</desc>
    <g id="LED_Series_Circuit_Example" stroke="none" stroke-width="1" fill="none" fill-rule="evenodd">
        <rect id="Rectangle" stroke="#3D3530" stroke-width="2" fill="#EEEEEE" x="1" y="1" width="898" height="428"></rect>
        <text id="LED-Series-Circuit-E-Copy" font-family="Wavehaus-66Book, Wavehaus" font-size="36" font-weight="300" letter-spacing="1" fill="#23ABE3">
            <tspan x="411.164" y="287">LED Series Circuit Example</tspan>
        </text>
        <rect id="Rectangle-Copy" stroke="#3D3530" stroke-width="2" x="1" y="247" width="898" height="62"></rect>
        <g id="Circuit" transform="translate(190.000000, 20.000000)">
            <polyline id="Resistor" stroke="#3D3530" stroke-width="3" stroke-linejoin="round" points="125 70 130 70 135 57 145 83 155 57 165 83 175 57 185 83 190 70 195 70"></polyline>
            <g id="LED" transform="translate(225.000000, 28.000000)">
                <polygon id="Path-2" fill="#3D3530" points="24.5 29 44 42 24.5 55"></polygon>
                <path d="M44,42 L70,42" id="Path-2-Copy" stroke="#3D3530" stroke-width="3"></path>
                <path d="M44,29 L44,55" id="Path-4-Copy" stroke="#3D3530" stroke-width="3"></path>
                <path d="M0,42 L24.5,42" id="Path-3" stroke="#3D3530" stroke-width="3"></path>
                <g id="Arrow" transform="translate(43.647114, 19.941343) rotate(-150.000000) translate(-43.647114, -19.941343) translate(39.147114, 6.441343)">
                    <polygon id="Triangle" fill="#3D3530" transform="translate(4.633975, 19.633975) scale(1, -1) translate(-4.633975, -19.633975) " points="4.6339746 13.1339746 8.6339746 26.1339746 0.633974596 26.1339746"></polygon>
                    <path d="M4.5,0 L4.5,20" id="Path-3" stroke="#3D3530" stroke-width="3"></path>
                </g>
                <g id="Arrow" transform="translate(33.647114, 13.941343) rotate(-150.000000) translate(-33.647114, -13.941343) translate(29.147114, 0.441343)">
                    <polygon id="Triangle" fill="#3D3530" transform="translate(4.633975, 19.633975) scale(1, -1) translate(-4.633975, -19.633975) " points="4.6339746 13.1339746 8.6339746 26.1339746 0.633974596 26.1339746"></polygon>
                    <path d="M4.5,1.13686838e-13 L4.5,20" id="Path-3" stroke="#3D3530" stroke-width="3"></path>
                </g>
            </g>
            <g id="LED-Copy-2" transform="translate(355.000000, 28.000000)">
                <polygon id="Path-2" fill="#3D3530" points="24.5 29 44 42 24.5 55"></polygon>
                <path d="M44,42 L70,42" id="Path-2-Copy" stroke="#3D3530" stroke-width="3"></path>
                <path d="M44,29 L44,55" id="Path-4-Copy" stroke="#3D3530" stroke-width="3"></path>
                <path d="M0,42 L24.5,42" id="Path-3" stroke="#3D3530" stroke-width="3"></path>
                <g id="Arrow" transform="translate(43.647114, 19.941343) rotate(-150.000000) translate(-43.647114, -19.941343) translate(39.147114, 6.441343)">
                    <polygon id="Triangle" fill="#3D3530" transform="translate(4.633975, 19.633975) scale(1, -1) translate(-4.633975, -19.633975) " points="4.6339746 13.1339746 8.6339746 26.1339746 0.633974596 26.1339746"></polygon>
                    <path d="M4.5,0 L4.5,20" id="Path-3" stroke="#3D3530" stroke-width="3"></path>
                </g>
                <g id="Arrow" transform="translate(33.647114, 13.941343) rotate(-150.000000) translate(-33.647114, -13.941343) translate(29.147114, 0.441343)">
                    <polygon id="Triangle" fill="#3D3530" transform="translate(4.633975, 19.633975) scale(1, -1) translate(-4.633975, -19.633975) " points="4.6339746 13.1339746 8.6339746 26.1339746 0.633974596 26.1339746"></polygon>
                    <path d="M4.5,1.13686838e-13 L4.5,20" id="Path-3" stroke="#3D3530" stroke-width="3"></path>
                </g>
            </g>
            <g id="Power" transform="translate(0.000000, 100.000000)"></g>
            <g id="DC_Power" transform="translate(40.000000, 100.000000)">
                <circle id="Oval" stroke="#3D3530" stroke-width="3" cx="40" cy="40" r="40"></circle>
                <g id="+" transform="translate(36.000000, 11.000000)" stroke="#3D3530" stroke-width="2">
                    <path d="M4,4 L0,4 L4,4 L4,8 L4,4 Z M4,4 L8,4 L4,4 L4,0 L4,4 Z" id="Combined-Shape"></path>
                </g>
                <g id="-" transform="translate(36.000000, 66.000000)" stroke="#3D3530" stroke-width="2">
                    <path d="M0,1 L8,1" id="Path"></path>
                </g>
                <path d="M97.708,42.968 C97.708,44.3920071 97.512002,45.7359937 97.12,47 C96.727998,48.2640063 96.1000043,49.3279957 95.236,50.192 C94.3719957,51.0560043 93.3560058,51.488 92.188,51.488 C91.2439953,51.488 90.4160036,51.288002 89.704,50.888 C88.9919964,50.487998 88.636,50.0800021 88.636,49.664 C88.636,49.471999 88.7079993,49.3160006 88.852,49.196 C88.9960007,49.0759994 89.1479992,49.016 89.308,49.016 C89.4680008,49.016 89.6359991,49.1039991 89.812,49.28 C89.9880009,49.4560009 90.1599992,49.647999 90.328,49.856 C90.4960008,50.064001 90.7439984,50.2559991 91.072,50.432 C91.4000016,50.6080009 91.763998,50.696 92.164,50.696 C94.3240108,50.696 95.499999,48.392023 95.692,43.784 C94.9879965,44.7280047 94.036006,45.2 92.836,45.2 C91.5079934,45.2 90.3680048,44.7600044 89.416,43.88 C88.4639952,42.9999956 87.988,41.9360062 87.988,40.688 C87.988,39.4559938 88.4639952,38.4000044 89.416,37.52 C90.3680048,36.6399956 91.5079934,36.2 92.836,36.2 C93.236002,36.2 93.639998,36.2519995 94.048,36.356 C94.456002,36.4600005 94.8839978,36.6679984 95.332,36.98 C95.7800022,37.2920016 96.1759983,37.6879976 96.52,38.168 C96.8640017,38.6480024 97.1479989,39.3039958 97.372,40.136 C97.5960011,40.9680042 97.708,41.9119947 97.708,42.968 Z M95.716,42.464 C95.6839998,41.3599945 95.5600011,40.4280038 95.344,39.668 C95.1279989,38.9079962 94.8600016,38.3640016 94.54,38.036 C94.2199984,37.7079984 93.9240014,37.4800006 93.652,37.352 C93.3799986,37.2239994 93.1080014,37.16 92.836,37.16 C91.8599951,37.16 91.1400023,37.5039966 90.676,38.192 C90.2119977,38.8800034 89.98,39.719995 89.98,40.712 C89.98,41.704005 90.2119977,42.5399966 90.676,43.22 C91.1400023,43.9000034 91.8599951,44.24 92.836,44.24 C93.5240034,44.24 94.1399973,44.0680017 94.684,43.724 C95.2280027,43.3799983 95.5719993,42.9600025 95.716,42.464 Z M116.092,33.104 C115.147995,33.104 114.536001,33.2199988 114.256,33.452 C113.975999,33.6840012 113.636002,34.2639954 113.236,35.192 L107.956,47.408 L107.644,47.408 L102.34,35.192 C101.939998,34.2639954 101.600001,33.6840012 101.32,33.452 C101.039999,33.2199988 100.428005,33.104 99.484,33.104 L99.484,32.6 L106.132,32.6 L106.132,33.104 C105.139995,33.104 104.504001,33.2439986 104.224,33.524 C103.943999,33.8040014 103.955998,34.2719967 104.26,34.928 L108.34,44.264 L112.372,34.928 C112.676002,34.2719967 112.688001,33.8040014 112.408,33.524 C112.127999,33.2439986 111.492005,33.104 110.5,33.104 L110.5,32.6 L116.092,32.6 L116.092,33.104 Z" id="9V-Copy" fill="#1A80AA"></path>
            </g>
            <g id="Wiring" transform="translate(80.000000, 69.000000)" stroke="#3D3530" stroke-width="2">
                <polyline id="Path-13-Copy-4" points="0 31 0 1 45 1"></polyline>
                <polyline id="Path-13" points="345 1 462 1 462 141 2.27373675e-13 141 2.27373675e-13 111"></polyline>
                <path d="M115,1 L145,1" id="Path-4"></path>
                <path d="M215,1 L275,1" id="Path-4-Copy-2"></path>
            </g>
            <path d="M147.074266,107 L147.074266,105.195312 L151.843797,105.195312 C150.445352,104.14062 149.396535,102.951178 148.697313,101.626953 C147.99809,100.302728 147.648484,98.843758 147.648484,97.25 C147.648484,94.9062383 148.406289,92.9824294 149.921922,91.4785156 C151.437554,89.9746019 153.378941,89.2226562 155.746141,89.2226562 C158.11334,89.2226562 160.054727,89.9726487 161.570359,91.4726562 C163.085992,92.9726637 163.843797,94.8984257 163.843797,97.25 C163.843797,98.8515705 163.494191,100.314447 162.794969,101.638672 C162.095747,102.962897 161.046929,104.148432 159.648484,105.195312 L164.418016,105.195312 L164.418016,107 L157.269578,107 L157.269578,105.195312 C158.589897,104.304683 159.582075,103.210944 160.246141,101.914062 C160.910206,100.617181 161.242234,99.117196 161.242234,97.4140625 C161.242234,95.421865 160.755911,93.8593807 159.78325,92.7265625 C158.810589,91.5937443 157.464899,91.0273438 155.746141,91.0273438 C154.035195,91.0273438 152.691458,91.5937443 151.714891,92.7265625 C150.738323,93.8593807 150.250047,95.4257712 150.250047,97.4257812 C150.250047,99.1211022 150.582075,100.615228 151.246141,101.908203 C151.910206,103.201178 152.90629,104.296871 154.234422,105.195312 L154.234422,107 L147.074266,107 Z M172.688922,105.224 C172.928923,105.448001 173.048922,105.719998 173.048922,106.04 C173.048922,106.360002 172.932923,106.631999 172.700922,106.856 C172.468921,107.080001 172.200923,107.192 171.896922,107.192 C171.59292,107.192 171.328923,107.080001 171.104922,106.856 C170.880921,106.631999 170.768922,106.360002 170.768922,106.04 C170.768922,105.719998 170.880921,105.448001 171.104922,105.224 C171.328923,104.999999 171.59292,104.888 171.896922,104.888 C172.200923,104.888 172.464921,104.999999 172.688922,105.224 Z M175.808922,95.984 C175.808922,95.0559954 175.444926,94.3200027 174.716922,93.776 C173.988918,93.2319973 173.112927,92.96 172.088922,92.96 C171.240918,92.96 170.560924,93.1279983 170.048922,93.464 C169.536919,93.8000017 169.280922,94.167998 169.280922,94.568 C169.280922,94.9840021 169.624918,95.192 170.312922,95.192 C170.568923,95.192 170.792921,95.2839991 170.984922,95.468 C171.176923,95.6520009 171.272922,95.8719987 171.272922,96.128 C171.272922,96.4800018 171.140923,96.7479991 170.876922,96.932 C170.612921,97.1160009 170.336923,97.208 170.048922,97.208 C169.60092,97.208 169.188924,97.0000021 168.812922,96.584 C168.43692,96.1679979 168.248922,95.6320033 168.248922,94.976 C168.248922,94.2239962 168.632918,93.5720028 169.400922,93.02 C170.168926,92.4679972 171.128916,92.192 172.280922,92.192 C173.656929,92.192 174.852917,92.5639963 175.868922,93.308 C176.884927,94.0520037 177.392922,95.0319939 177.392922,96.248 C177.392922,97.0320039 177.220924,97.7319969 176.876922,98.348 C176.53292,98.9640031 176.116924,99.4239985 175.628922,99.728 C175.140919,100.032002 174.656924,100.279999 174.176922,100.472 C173.696919,100.664001 173.280924,100.784 172.928922,100.832 L172.424922,100.904 L172.424922,103.16 L171.368922,103.16 L171.368922,99.224 C172.552928,99.224 173.588917,98.9600026 174.476922,98.432 C175.364926,97.9039974 175.808922,97.0880055 175.808922,95.984 Z" id="Ω?-Copy" fill="#1A80AA"></path>
            <path d="M248.696,91.104 C247.751995,91.104 247.140001,91.2199988 246.86,91.452 C246.579999,91.6840012 246.240002,92.2639954 245.84,93.192 L240.56,105.408 L240.248,105.408 L234.944,93.192 C234.543998,92.2639954 234.204001,91.6840012 233.924,91.452 C233.643999,91.2199988 233.032005,91.104 232.088,91.104 L232.088,90.6 L238.736,90.6 L238.736,91.104 C237.743995,91.104 237.108001,91.2439986 236.828,91.524 C236.547999,91.8040014 236.559998,92.2719967 236.864,92.928 L240.944,102.264 L244.976,92.928 C245.280002,92.2719967 245.292001,91.8040014 245.012,91.524 C244.731999,91.2439986 244.096005,91.104 243.104,91.104 L243.104,90.6 L248.696,90.6 L248.696,91.104 Z M251.32,106.848 L251.32,110.688 C251.32,111.888006 251.435999,112.655998 251.668,112.992 C251.900001,113.328002 252.415996,113.496 253.216,113.496 L253.216,114 L247.72,114 L247.72,113.496 C248.520004,113.496 249.035999,113.328002 249.268,112.992 C249.500001,112.655998 249.616,111.888006 249.616,110.688 L249.616,106.848 L247.648,106.848 L247.648,106.008 L249.616,106.008 L249.616,103.704 C249.616,102.183992 249.995996,101.052004 250.756,100.308 C251.516004,99.5639963 252.447994,99.192 253.552,99.192 C254.288004,99.192 254.871998,99.3799981 255.304,99.756 C255.736002,100.132002 255.952,100.535998 255.952,100.968 C255.952,101.224001 255.884001,101.431999 255.748,101.592 C255.611999,101.752001 255.416001,101.832 255.16,101.832 C254.903999,101.832 254.704001,101.736001 254.56,101.544 C254.415999,101.351999 254.32,101.140001 254.272,100.908 C254.224,100.675999 254.104001,100.464001 253.912,100.272 C253.719999,100.079999 253.456002,99.984 253.12,99.984 C252.495997,99.984 252.040001,100.267997 251.752,100.836 C251.463999,101.404003 251.32,102.359993 251.32,103.704 L251.32,106.008 L253.72,106.008 L253.72,106.848 L251.32,106.848 Z M266.912,98.808 L259.904,98.808 L259.904,97.728 L266.912,97.728 L266.912,98.808 Z M266.912,101.808 L259.904,101.808 L259.904,100.728 L266.912,100.728 L266.912,101.808 Z M280.608,100.776 L276.912,103.608 L283.128,103.608 L282.528,106.896 L282.024,106.896 C282.024,106.095996 281.856002,105.580001 281.52,105.348 C281.183998,105.115999 280.416006,105 279.216,105 L274.272,105 L274.272,104.424 L278.52,101.088 C280.056008,99.8719939 280.824,98.6560061 280.824,97.44 C280.824,96.7519966 280.588002,96.208002 280.116,95.808 C279.643998,95.407998 279.016004,95.208 278.232,95.208 C277.319995,95.208 276.616002,95.5599965 276.12,96.264 C275.623998,96.9680035 275.639997,97.815995 276.168,98.808 L275.448,99.552 C274.519995,98.9919972 274.02,98.2840043 273.948,97.428 C273.876,96.5719957 274.239996,95.8200032 275.04,95.172 C275.840004,94.5239968 276.903993,94.2 278.232,94.2 C279.464006,94.2 280.535995,94.495997 281.448,95.088 C282.360005,95.680003 282.816,96.4559952 282.816,97.416 C282.816,97.7680018 282.740001,98.1279982 282.588,98.496 C282.435999,98.8640018 282.252001,99.1759987 282.036,99.432 C281.819999,99.6880013 281.604001,99.9239989 281.388,100.14 C281.171999,100.356001 280.992001,100.519999 280.848,100.632 L280.608,100.776 Z M299.672,91.104 C298.727995,91.104 298.116001,91.2199988 297.836,91.452 C297.555999,91.6840012 297.216002,92.2639954 296.816,93.192 L291.536,105.408 L291.224,105.408 L285.92,93.192 C285.519998,92.2639954 285.180001,91.6840012 284.9,91.452 C284.619999,91.2199988 284.008005,91.104 283.064,91.104 L283.064,90.6 L289.712,90.6 L289.712,91.104 C288.719995,91.104 288.084001,91.2439986 287.804,91.524 C287.523999,91.8040014 287.535998,92.2719967 287.84,92.928 L291.92,102.264 L295.952,92.928 C296.256002,92.2719967 296.268001,91.8040014 295.988,91.524 C295.707999,91.2439986 295.072005,91.104 294.08,91.104 L294.08,90.6 L299.672,90.6 L299.672,91.104 Z" id="Vf-=-2V-Copy" fill="#1A80AA"></path>
            <path d="M239.892,125 L233.412,125 L233.412,124.496 C234.404005,124.496 235.031999,124.328002 235.296,123.992 C235.560001,123.655998 235.692,122.888006 235.692,121.688 L235.692,113.888 C235.692,112.687994 235.560001,111.924002 235.296,111.596 C235.031999,111.267998 234.404005,111.104 233.412,111.104 L233.412,110.6 L239.892,110.6 L239.892,111.104 C238.899995,111.104 238.272001,111.267998 238.008,111.596 C237.743999,111.924002 237.612,112.687994 237.612,113.888 L237.612,121.688 C237.612,122.888006 237.743999,123.655998 238.008,123.992 C238.272001,124.328002 238.899995,124.496 239.892,124.496 L239.892,125 Z M244.316,126.848 L244.316,130.688 C244.316,131.888006 244.431999,132.655998 244.664,132.992 C244.896001,133.328002 245.411996,133.496 246.212,133.496 L246.212,134 L240.716,134 L240.716,133.496 C241.516004,133.496 242.031999,133.328002 242.264,132.992 C242.496001,132.655998 242.612,131.888006 242.612,130.688 L242.612,126.848 L240.644,126.848 L240.644,126.008 L242.612,126.008 L242.612,123.704 C242.612,122.183992 242.991996,121.052004 243.752,120.308 C244.512004,119.563996 245.443994,119.192 246.548,119.192 C247.284004,119.192 247.867998,119.379998 248.3,119.756 C248.732002,120.132002 248.948,120.535998 248.948,120.968 C248.948,121.224001 248.880001,121.431999 248.744,121.592 C248.607999,121.752001 248.412001,121.832 248.156,121.832 C247.899999,121.832 247.700001,121.736001 247.556,121.544 C247.411999,121.351999 247.316,121.140001 247.268,120.908 C247.22,120.675999 247.100001,120.464001 246.908,120.272 C246.715999,120.079999 246.452002,119.984 246.116,119.984 C245.491997,119.984 245.036001,120.267997 244.748,120.836 C244.459999,121.404003 244.316,122.359993 244.316,123.704 L244.316,126.008 L246.716,126.008 L246.716,126.848 L244.316,126.848 Z M256.708,129.128 L256.708,130.688 C256.708,131.952006 256.791999,132.735998 256.96,133.04 C257.128001,133.344002 257.547997,133.496 258.22,133.496 L258.22,134 L253.516,134 L253.516,133.496 C254.188003,133.496 254.607999,133.344002 254.776,133.04 C254.944001,132.735998 255.028,131.952006 255.028,130.688 L255.028,129.296 C255.028,127.583991 254.452006,126.728 253.3,126.728 C252.803998,126.728 252.268003,126.959998 251.692,127.424 C251.115997,127.888002 250.828,128.455997 250.828,129.128 L250.828,130.688 C250.828,131.936006 250.911999,132.715998 251.08,133.028 C251.248001,133.340002 251.659997,133.496 252.316,133.496 L252.316,134 L247.228,134 L247.228,133.496 C248.028004,133.496 248.543999,133.328002 248.776,132.992 C249.008001,132.655998 249.124,131.888006 249.124,130.688 L249.124,129.488 C249.124,128.303994 249.008001,127.544002 248.776,127.208 C248.543999,126.871998 248.028004,126.704 247.228,126.704 L247.228,126.2 L250.42,125.6 C250.564001,125.904002 250.699999,126.479996 250.828,127.328 C251.740005,126.175994 252.779994,125.6 253.948,125.6 C255.276007,125.6 256.123998,126.199994 256.492,127.4 C256.812002,126.951998 257.287997,126.540002 257.92,126.164 C258.552003,125.787998 259.195997,125.6 259.852,125.6 C261.692009,125.6 262.612,126.791988 262.612,129.176 L262.612,130.688 C262.612,131.888006 262.727999,132.655998 262.96,132.992 C263.192001,133.328002 263.707996,133.496 264.508,133.496 L264.508,134 L259.42,134 L259.42,133.496 C260.092003,133.496 260.507999,133.344002 260.668,133.04 C260.828001,132.735998 260.908,131.952006 260.908,130.688 L260.908,129.296 C260.908,127.583991 260.340006,126.728 259.204,126.728 C258.707998,126.728 258.168003,126.959998 257.584,127.424 C256.999997,127.888002 256.708,128.455997 256.708,129.128 Z M273.276,133.52 C272.811998,134.016002 272.284003,134.264 271.692,134.264 C270.731995,134.264 270.188001,133.800005 270.06,132.872 C268.987995,133.832005 267.988005,134.312 267.06,134.312 C266.451997,134.312 265.940002,134.132002 265.524,133.772 C265.107998,133.411998 264.9,132.920003 264.9,132.296 C264.9,130.615992 266.603983,129.480003 270.012,128.888 C270.012,127.943995 269.908001,127.288002 269.7,126.92 C269.491999,126.551998 269.060003,126.368 268.404,126.368 C268.083998,126.368 267.776001,126.471999 267.48,126.68 C267.183999,126.888001 267.036,127.167998 267.036,127.52 C267.036,127.760001 266.956001,127.959999 266.796,128.12 C266.635999,128.280001 266.444001,128.36 266.22,128.36 C265.979999,128.36 265.780001,128.280001 265.62,128.12 C265.459999,127.959999 265.38,127.760001 265.38,127.52 C265.38,126.959997 265.687997,126.500002 266.304,126.14 C266.920003,125.779998 267.627996,125.6 268.428,125.6 C269.596006,125.6 270.435997,125.855997 270.948,126.368 C271.460003,126.880003 271.716,127.711994 271.716,128.864 L271.716,132.488 C271.716,133.112003 271.899998,133.424 272.268,133.424 C272.476001,133.424 272.699999,133.304001 272.94,133.064 L273.276,133.52 Z M270.012,132.08 L270.012,129.632 C267.803989,130.144003 266.7,130.935995 266.7,132.008 C266.7,132.376002 266.807999,132.671999 267.024,132.896 C267.240001,133.120001 267.507998,133.232 267.828,133.232 C268.420003,133.232 269.147996,132.848004 270.012,132.08 Z M277.1,130.832 L275.9,132.104 C274.971995,133.032005 275.139994,133.496 276.404,133.496 L276.404,134 L272.708,134 L272.708,133.496 C273.172002,133.496 273.867995,133.032005 274.796,132.104 L276.62,130.184 L274.964,127.904 C274.531998,127.343997 274.172001,126.968001 273.884,126.776 C273.595999,126.583999 273.252002,126.488 272.852,126.488 L272.852,126.008 L277.7,126.008 L277.7,126.488 C277.011997,126.488 276.62,126.587999 276.524,126.788 C276.428,126.988001 276.587998,127.359997 277.004,127.904 L277.772,128.96 L278.78,127.904 C279.212002,127.423998 279.364001,127.068001 279.236,126.836 C279.107999,126.603999 278.788003,126.488 278.276,126.488 L278.276,126.008 L282.188,126.008 L282.188,126.488 C281.547997,126.488 280.780004,126.959995 279.884,127.904 L278.252,129.608 L280.052,132.104 C280.420002,132.632003 280.767998,132.995999 281.096,133.196 C281.424002,133.396001 281.835998,133.496 282.332,133.496 L282.332,134 L277.292,134 L277.292,133.496 C277.916003,133.496 278.279999,133.380001 278.384,133.148 C278.488001,132.915999 278.364002,132.568002 278.012,132.104 L277.1,130.832 Z M294.924,118.808 L287.916,118.808 L287.916,117.728 L294.924,117.728 L294.924,118.808 Z M294.924,121.808 L287.916,121.808 L287.916,120.728 L294.924,120.728 L294.924,121.808 Z M308.62,120.776 L304.924,123.608 L311.14,123.608 L310.54,126.896 L310.036,126.896 C310.036,126.095996 309.868002,125.580001 309.532,125.348 C309.195998,125.115999 308.428006,125 307.228,125 L302.284,125 L302.284,124.424 L306.532,121.088 C308.068008,119.871994 308.836,118.656006 308.836,117.44 C308.836,116.751997 308.600002,116.208002 308.128,115.808 C307.655998,115.407998 307.028004,115.208 306.244,115.208 C305.331995,115.208 304.628002,115.559996 304.132,116.264 C303.635998,116.968004 303.651997,117.815995 304.18,118.808 L303.46,119.552 C302.531995,118.991997 302.032,118.284004 301.96,117.428 C301.888,116.571996 302.251996,115.820003 303.052,115.172 C303.852004,114.523997 304.915993,114.2 306.244,114.2 C307.476006,114.2 308.547995,114.495997 309.46,115.088 C310.372005,115.680003 310.828,116.455995 310.828,117.416 C310.828,117.768002 310.752001,118.127998 310.6,118.496 C310.447999,118.864002 310.264001,119.175999 310.048,119.432 C309.831999,119.688001 309.616001,119.923999 309.4,120.14 C309.183999,120.356001 309.004001,120.519999 308.86,120.632 L308.62,120.776 Z M315.132,115.856 C316.236006,114.751994 317.555992,114.2 319.092,114.2 C320.628008,114.2 321.943995,114.747995 323.04,115.844 C324.136005,116.940005 324.684,118.255992 324.684,119.792 C324.684,121.344008 324.136005,122.667995 323.04,123.764 C321.943995,124.860005 320.628008,125.408 319.092,125.408 C317.555992,125.408 316.240005,124.860005 315.144,123.764 C314.047995,122.667995 313.5,121.344008 313.5,119.792 C313.5,118.255992 314.043995,116.944005 315.132,115.856 Z M319.092,115.568 C317.971994,115.568 317.016004,115.983996 316.224,116.816 C315.431996,117.648004 315.036,118.639994 315.036,119.792 C315.036,120.960006 315.431996,121.955996 316.224,122.78 C317.016004,123.604004 317.971994,124.016 319.092,124.016 C320.196006,124.016 321.147996,123.604004 321.948,122.78 C322.748004,121.955996 323.148,120.960006 323.148,119.792 C323.148,118.639994 322.748004,117.648004 321.948,116.816 C321.147996,115.983996 320.196006,115.568 319.092,115.568 Z M335.588,120.128 L335.588,121.688 C335.588,122.952006 335.671999,123.735998 335.84,124.04 C336.008001,124.344002 336.427997,124.496 337.1,124.496 L337.1,125 L332.396,125 L332.396,124.496 C333.068003,124.496 333.487999,124.344002 333.656,124.04 C333.824001,123.735998 333.908,122.952006 333.908,121.688 L333.908,120.296 C333.908,118.583991 333.332006,117.728 332.18,117.728 C331.683998,117.728 331.148003,117.959998 330.572,118.424 C329.995997,118.888002 329.708,119.455997 329.708,120.128 L329.708,121.688 C329.708,122.936006 329.791999,123.715998 329.96,124.028 C330.128001,124.340002 330.539997,124.496 331.196,124.496 L331.196,125 L326.108,125 L326.108,124.496 C326.908004,124.496 327.423999,124.328002 327.656,123.992 C327.888001,123.655998 328.004,122.888006 328.004,121.688 L328.004,120.488 C328.004,119.303994 327.888001,118.544002 327.656,118.208 C327.423999,117.871998 326.908004,117.704 326.108,117.704 L326.108,117.2 L329.3,116.6 C329.444001,116.904002 329.579999,117.479996 329.708,118.328 C330.620005,117.175994 331.659994,116.6 332.828,116.6 C334.156007,116.6 335.003998,117.199994 335.372,118.4 C335.692002,117.951998 336.167997,117.540002 336.8,117.164 C337.432003,116.787998 338.075997,116.6 338.732,116.6 C340.572009,116.6 341.492,117.791988 341.492,120.176 L341.492,121.688 C341.492,122.888006 341.607999,123.655998 341.84,123.992 C342.072001,124.328002 342.587996,124.496 343.388,124.496 L343.388,125 L338.3,125 L338.3,124.496 C338.972003,124.496 339.387999,124.344002 339.548,124.04 C339.708001,123.735998 339.788,122.952006 339.788,121.688 L339.788,120.296 C339.788,118.583991 339.220006,117.728 338.084,117.728 C337.587998,117.728 337.048003,117.959998 336.464,118.424 C335.879997,118.888002 335.588,119.455997 335.588,120.128 Z M346.852,120.008 L345.7,122.672 C345.395998,123.328003 345.383999,123.795999 345.664,124.076 C345.944001,124.356001 346.579995,124.496 347.572,124.496 L347.572,125 L341.956,125 L341.956,124.496 C342.468003,124.496 342.863999,124.476 343.144,124.436 C343.424001,124.396 343.671999,124.268001 343.888,124.052 C344.104001,123.835999 344.256,123.640001 344.344,123.464 C344.432,123.287999 344.595999,122.936003 344.836,122.408 L350.116,110.192 L350.428,110.192 L355.732,122.408 C355.972001,122.936003 356.136,123.287999 356.224,123.464 C356.312,123.640001 356.463999,123.835999 356.68,124.052 C356.896001,124.268001 357.139999,124.396 357.412,124.436 C357.684001,124.476 358.075997,124.496 358.588,124.496 L358.588,125 L351.94,125 L351.94,124.496 C352.932005,124.496 353.563999,124.356001 353.836,124.076 C354.108001,123.795999 354.100001,123.328003 353.812,122.672 L352.66,120.008 L346.852,120.008 Z M352.252,119.12 L349.732,113.336 L347.236,119.12 L352.252,119.12 Z" id="Ifmax-=-20mA-Copy-3" fill="#1A80AA"></path>
            <path d="M398.696,91.104 C397.751995,91.104 397.140001,91.2199988 396.86,91.452 C396.579999,91.6840012 396.240002,92.2639954 395.84,93.192 L390.56,105.408 L390.248,105.408 L384.944,93.192 C384.543998,92.2639954 384.204001,91.6840012 383.924,91.452 C383.643999,91.2199988 383.032005,91.104 382.088,91.104 L382.088,90.6 L388.736,90.6 L388.736,91.104 C387.743995,91.104 387.108001,91.2439986 386.828,91.524 C386.547999,91.8040014 386.559998,92.2719967 386.864,92.928 L390.944,102.264 L394.976,92.928 C395.280002,92.2719967 395.292001,91.8040014 395.012,91.524 C394.731999,91.2439986 394.096005,91.104 393.104,91.104 L393.104,90.6 L398.696,90.6 L398.696,91.104 Z M401.32,106.848 L401.32,110.688 C401.32,111.888006 401.435999,112.655998 401.668,112.992 C401.900001,113.328002 402.415996,113.496 403.216,113.496 L403.216,114 L397.72,114 L397.72,113.496 C398.520004,113.496 399.035999,113.328002 399.268,112.992 C399.500001,112.655998 399.616,111.888006 399.616,110.688 L399.616,106.848 L397.648,106.848 L397.648,106.008 L399.616,106.008 L399.616,103.704 C399.616,102.183992 399.995996,101.052004 400.756,100.308 C401.516004,99.5639963 402.447994,99.192 403.552,99.192 C404.288004,99.192 404.871998,99.3799981 405.304,99.756 C405.736002,100.132002 405.952,100.535998 405.952,100.968 C405.952,101.224001 405.884001,101.431999 405.748,101.592 C405.611999,101.752001 405.416001,101.832 405.16,101.832 C404.903999,101.832 404.704001,101.736001 404.56,101.544 C404.415999,101.351999 404.32,101.140001 404.272,100.908 C404.224,100.675999 404.104001,100.464001 403.912,100.272 C403.719999,100.079999 403.456002,99.984 403.12,99.984 C402.495997,99.984 402.040001,100.267997 401.752,100.836 C401.463999,101.404003 401.32,102.359993 401.32,103.704 L401.32,106.008 L403.72,106.008 L403.72,106.848 L401.32,106.848 Z M416.912,98.808 L409.904,98.808 L409.904,97.728 L416.912,97.728 L416.912,98.808 Z M416.912,101.808 L409.904,101.808 L409.904,100.728 L416.912,100.728 L416.912,101.808 Z M428.688,102.24 C428.575999,102.336 428.436001,102.483999 428.268,102.684 C428.099999,102.884001 427.944001,103.043999 427.8,103.164 C427.655999,103.284001 427.512001,103.344 427.368,103.344 C427.239999,103.344 427.124001,103.292001 427.02,103.188 C426.915999,103.083999 426.864,102.952001 426.864,102.792 C426.864,102.503999 427.071998,102.208002 427.488,101.904 L429.264,100.488 C429.728002,100.135998 430.107999,99.6840028 430.404,99.132 C430.700001,98.5799972 430.848,98.008003 430.848,97.416 C430.848,96.7439966 430.608002,96.208002 430.128,95.808 C429.647998,95.407998 429.016004,95.208 428.232,95.208 C427.399996,95.208 426.704003,95.5599965 426.144,96.264 C425.583997,96.9680035 425.591997,97.815995 426.168,98.808 L425.448,99.552 C424.519995,98.9919972 424.02,98.2840043 423.948,97.428 C423.876,96.5719957 424.239996,95.8200032 425.04,95.172 C425.840004,94.5239968 426.903993,94.2 428.232,94.2 C429.464006,94.2 430.535995,94.495997 431.448,95.088 C432.360005,95.680003 432.816,96.4559952 432.816,97.416 C432.816,97.7680018 432.740001,98.1279982 432.588,98.496 C432.435999,98.8640018 432.252001,99.1759987 432.036,99.432 C431.819999,99.6880013 431.604001,99.9239989 431.388,100.14 C431.171999,100.356001 430.992001,100.519999 430.848,100.632 L430.608,100.776 L429.504,101.616 C430.656006,101.856001 431.567997,102.327996 432.24,103.032 C432.912003,103.736004 433.248,104.551995 433.248,105.48 C433.248,106.584006 432.788005,107.527996 431.868,108.312 C430.947995,109.096004 429.816007,109.488 428.472,109.488 C427.175994,109.488 426.112004,109.176003 425.28,108.552 C424.447996,107.927997 424.032,107.336003 424.032,106.776 C424.032,106.407998 424.239998,106.224 424.656,106.224 C424.816001,106.224 424.955999,106.295999 425.076,106.44 C425.196001,106.584001 425.331999,106.783999 425.484,107.04 C425.636001,107.296001 425.783999,107.495999 425.928,107.64 C426.520003,108.264003 427.303995,108.576 428.28,108.576 C429.224005,108.576 429.931998,108.292003 430.404,107.724 C430.876002,107.155997 431.112,106.408005 431.112,105.48 C431.112,104.711996 430.916002,104.024003 430.524,103.416 C430.131998,102.807997 429.520004,102.416001 428.688,102.24 Z M449.384,91.104 C448.439995,91.104 447.828001,91.2199988 447.548,91.452 C447.267999,91.6840012 446.928002,92.2639954 446.528,93.192 L441.248,105.408 L440.936,105.408 L435.632,93.192 C435.231998,92.2639954 434.892001,91.6840012 434.612,91.452 C434.331999,91.2199988 433.720005,91.104 432.776,91.104 L432.776,90.6 L439.424,90.6 L439.424,91.104 C438.431995,91.104 437.796001,91.2439986 437.516,91.524 C437.235999,91.8040014 437.247998,92.2719967 437.552,92.928 L441.632,102.264 L445.664,92.928 C445.968002,92.2719967 445.980001,91.8040014 445.7,91.524 C445.419999,91.2439986 444.784005,91.104 443.792,91.104 L443.792,90.6 L449.384,90.6 L449.384,91.104 Z" id="Vf-=-3V-Copy" fill="#1A80AA"></path>
            <path d="M389.892,125 L383.412,125 L383.412,124.496 C384.404005,124.496 385.031999,124.328002 385.296,123.992 C385.560001,123.655998 385.692,122.888006 385.692,121.688 L385.692,113.888 C385.692,112.687994 385.560001,111.924002 385.296,111.596 C385.031999,111.267998 384.404005,111.104 383.412,111.104 L383.412,110.6 L389.892,110.6 L389.892,111.104 C388.899995,111.104 388.272001,111.267998 388.008,111.596 C387.743999,111.924002 387.612,112.687994 387.612,113.888 L387.612,121.688 C387.612,122.888006 387.743999,123.655998 388.008,123.992 C388.272001,124.328002 388.899995,124.496 389.892,124.496 L389.892,125 Z M394.316,126.848 L394.316,130.688 C394.316,131.888006 394.431999,132.655998 394.664,132.992 C394.896001,133.328002 395.411996,133.496 396.212,133.496 L396.212,134 L390.716,134 L390.716,133.496 C391.516004,133.496 392.031999,133.328002 392.264,132.992 C392.496001,132.655998 392.612,131.888006 392.612,130.688 L392.612,126.848 L390.644,126.848 L390.644,126.008 L392.612,126.008 L392.612,123.704 C392.612,122.183992 392.991996,121.052004 393.752,120.308 C394.512004,119.563996 395.443994,119.192 396.548,119.192 C397.284004,119.192 397.867998,119.379998 398.3,119.756 C398.732002,120.132002 398.948,120.535998 398.948,120.968 C398.948,121.224001 398.880001,121.431999 398.744,121.592 C398.607999,121.752001 398.412001,121.832 398.156,121.832 C397.899999,121.832 397.700001,121.736001 397.556,121.544 C397.411999,121.351999 397.316,121.140001 397.268,120.908 C397.22,120.675999 397.100001,120.464001 396.908,120.272 C396.715999,120.079999 396.452002,119.984 396.116,119.984 C395.491997,119.984 395.036001,120.267997 394.748,120.836 C394.459999,121.404003 394.316,122.359993 394.316,123.704 L394.316,126.008 L396.716,126.008 L396.716,126.848 L394.316,126.848 Z M406.708,129.128 L406.708,130.688 C406.708,131.952006 406.791999,132.735998 406.96,133.04 C407.128001,133.344002 407.547997,133.496 408.22,133.496 L408.22,134 L403.516,134 L403.516,133.496 C404.188003,133.496 404.607999,133.344002 404.776,133.04 C404.944001,132.735998 405.028,131.952006 405.028,130.688 L405.028,129.296 C405.028,127.583991 404.452006,126.728 403.3,126.728 C402.803998,126.728 402.268003,126.959998 401.692,127.424 C401.115997,127.888002 400.828,128.455997 400.828,129.128 L400.828,130.688 C400.828,131.936006 400.911999,132.715998 401.08,133.028 C401.248001,133.340002 401.659997,133.496 402.316,133.496 L402.316,134 L397.228,134 L397.228,133.496 C398.028004,133.496 398.543999,133.328002 398.776,132.992 C399.008001,132.655998 399.124,131.888006 399.124,130.688 L399.124,129.488 C399.124,128.303994 399.008001,127.544002 398.776,127.208 C398.543999,126.871998 398.028004,126.704 397.228,126.704 L397.228,126.2 L400.42,125.6 C400.564001,125.904002 400.699999,126.479996 400.828,127.328 C401.740005,126.175994 402.779994,125.6 403.948,125.6 C405.276007,125.6 406.123998,126.199994 406.492,127.4 C406.812002,126.951998 407.287997,126.540002 407.92,126.164 C408.552003,125.787998 409.195997,125.6 409.852,125.6 C411.692009,125.6 412.612,126.791988 412.612,129.176 L412.612,130.688 C412.612,131.888006 412.727999,132.655998 412.96,132.992 C413.192001,133.328002 413.707996,133.496 414.508,133.496 L414.508,134 L409.42,134 L409.42,133.496 C410.092003,133.496 410.507999,133.344002 410.668,133.04 C410.828001,132.735998 410.908,131.952006 410.908,130.688 L410.908,129.296 C410.908,127.583991 410.340006,126.728 409.204,126.728 C408.707998,126.728 408.168003,126.959998 407.584,127.424 C406.999997,127.888002 406.708,128.455997 406.708,129.128 Z M423.276,133.52 C422.811998,134.016002 422.284003,134.264 421.692,134.264 C420.731995,134.264 420.188001,133.800005 420.06,132.872 C418.987995,133.832005 417.988005,134.312 417.06,134.312 C416.451997,134.312 415.940002,134.132002 415.524,133.772 C415.107998,133.411998 414.9,132.920003 414.9,132.296 C414.9,130.615992 416.603983,129.480003 420.012,128.888 C420.012,127.943995 419.908001,127.288002 419.7,126.92 C419.491999,126.551998 419.060003,126.368 418.404,126.368 C418.083998,126.368 417.776001,126.471999 417.48,126.68 C417.183999,126.888001 417.036,127.167998 417.036,127.52 C417.036,127.760001 416.956001,127.959999 416.796,128.12 C416.635999,128.280001 416.444001,128.36 416.22,128.36 C415.979999,128.36 415.780001,128.280001 415.62,128.12 C415.459999,127.959999 415.38,127.760001 415.38,127.52 C415.38,126.959997 415.687997,126.500002 416.304,126.14 C416.920003,125.779998 417.627996,125.6 418.428,125.6 C419.596006,125.6 420.435997,125.855997 420.948,126.368 C421.460003,126.880003 421.716,127.711994 421.716,128.864 L421.716,132.488 C421.716,133.112003 421.899998,133.424 422.268,133.424 C422.476001,133.424 422.699999,133.304001 422.94,133.064 L423.276,133.52 Z M420.012,132.08 L420.012,129.632 C417.803989,130.144003 416.7,130.935995 416.7,132.008 C416.7,132.376002 416.807999,132.671999 417.024,132.896 C417.240001,133.120001 417.507998,133.232 417.828,133.232 C418.420003,133.232 419.147996,132.848004 420.012,132.08 Z M427.1,130.832 L425.9,132.104 C424.971995,133.032005 425.139994,133.496 426.404,133.496 L426.404,134 L422.708,134 L422.708,133.496 C423.172002,133.496 423.867995,133.032005 424.796,132.104 L426.62,130.184 L424.964,127.904 C424.531998,127.343997 424.172001,126.968001 423.884,126.776 C423.595999,126.583999 423.252002,126.488 422.852,126.488 L422.852,126.008 L427.7,126.008 L427.7,126.488 C427.011997,126.488 426.62,126.587999 426.524,126.788 C426.428,126.988001 426.587998,127.359997 427.004,127.904 L427.772,128.96 L428.78,127.904 C429.212002,127.423998 429.364001,127.068001 429.236,126.836 C429.107999,126.603999 428.788003,126.488 428.276,126.488 L428.276,126.008 L432.188,126.008 L432.188,126.488 C431.547997,126.488 430.780004,126.959995 429.884,127.904 L428.252,129.608 L430.052,132.104 C430.420002,132.632003 430.767998,132.995999 431.096,133.196 C431.424002,133.396001 431.835998,133.496 432.332,133.496 L432.332,134 L427.292,134 L427.292,133.496 C427.916003,133.496 428.279999,133.380001 428.384,133.148 C428.488001,132.915999 428.364002,132.568002 428.012,132.104 L427.1,130.832 Z M444.924,118.808 L437.916,118.808 L437.916,117.728 L444.924,117.728 L444.924,118.808 Z M444.924,121.808 L437.916,121.808 L437.916,120.728 L444.924,120.728 L444.924,121.808 Z M458.62,120.776 L454.924,123.608 L461.14,123.608 L460.54,126.896 L460.036,126.896 C460.036,126.095996 459.868002,125.580001 459.532,125.348 C459.195998,125.115999 458.428006,125 457.228,125 L452.284,125 L452.284,124.424 L456.532,121.088 C458.068008,119.871994 458.836,118.656006 458.836,117.44 C458.836,116.751997 458.600002,116.208002 458.128,115.808 C457.655998,115.407998 457.028004,115.208 456.244,115.208 C455.331995,115.208 454.628002,115.559996 454.132,116.264 C453.635998,116.968004 453.651997,117.815995 454.18,118.808 L453.46,119.552 C452.531995,118.991997 452.032,118.284004 451.96,117.428 C451.888,116.571996 452.251996,115.820003 453.052,115.172 C453.852004,114.523997 454.915993,114.2 456.244,114.2 C457.476006,114.2 458.547995,114.495997 459.46,115.088 C460.372005,115.680003 460.828,116.455995 460.828,117.416 C460.828,117.768002 460.752001,118.127998 460.6,118.496 C460.447999,118.864002 460.264001,119.175999 460.048,119.432 C459.831999,119.688001 459.616001,119.923999 459.4,120.14 C459.183999,120.356001 459.004001,120.519999 458.86,120.632 L458.62,120.776 Z M465.132,115.856 C466.236006,114.751994 467.555992,114.2 469.092,114.2 C470.628008,114.2 471.943995,114.747995 473.04,115.844 C474.136005,116.940005 474.684,118.255992 474.684,119.792 C474.684,121.344008 474.136005,122.667995 473.04,123.764 C471.943995,124.860005 470.628008,125.408 469.092,125.408 C467.555992,125.408 466.240005,124.860005 465.144,123.764 C464.047995,122.667995 463.5,121.344008 463.5,119.792 C463.5,118.255992 464.043995,116.944005 465.132,115.856 Z M469.092,115.568 C467.971994,115.568 467.016004,115.983996 466.224,116.816 C465.431996,117.648004 465.036,118.639994 465.036,119.792 C465.036,120.960006 465.431996,121.955996 466.224,122.78 C467.016004,123.604004 467.971994,124.016 469.092,124.016 C470.196006,124.016 471.147996,123.604004 471.948,122.78 C472.748004,121.955996 473.148,120.960006 473.148,119.792 C473.148,118.639994 472.748004,117.648004 471.948,116.816 C471.147996,115.983996 470.196006,115.568 469.092,115.568 Z M485.588,120.128 L485.588,121.688 C485.588,122.952006 485.671999,123.735998 485.84,124.04 C486.008001,124.344002 486.427997,124.496 487.1,124.496 L487.1,125 L482.396,125 L482.396,124.496 C483.068003,124.496 483.487999,124.344002 483.656,124.04 C483.824001,123.735998 483.908,122.952006 483.908,121.688 L483.908,120.296 C483.908,118.583991 483.332006,117.728 482.18,117.728 C481.683998,117.728 481.148003,117.959998 480.572,118.424 C479.995997,118.888002 479.708,119.455997 479.708,120.128 L479.708,121.688 C479.708,122.936006 479.791999,123.715998 479.96,124.028 C480.128001,124.340002 480.539997,124.496 481.196,124.496 L481.196,125 L476.108,125 L476.108,124.496 C476.908004,124.496 477.423999,124.328002 477.656,123.992 C477.888001,123.655998 478.004,122.888006 478.004,121.688 L478.004,120.488 C478.004,119.303994 477.888001,118.544002 477.656,118.208 C477.423999,117.871998 476.908004,117.704 476.108,117.704 L476.108,117.2 L479.3,116.6 C479.444001,116.904002 479.579999,117.479996 479.708,118.328 C480.620005,117.175994 481.659994,116.6 482.828,116.6 C484.156007,116.6 485.003998,117.199994 485.372,118.4 C485.692002,117.951998 486.167997,117.540002 486.8,117.164 C487.432003,116.787998 488.075997,116.6 488.732,116.6 C490.572009,116.6 491.492,117.791988 491.492,120.176 L491.492,121.688 C491.492,122.888006 491.607999,123.655998 491.84,123.992 C492.072001,124.328002 492.587996,124.496 493.388,124.496 L493.388,125 L488.3,125 L488.3,124.496 C488.972003,124.496 489.387999,124.344002 489.548,124.04 C489.708001,123.735998 489.788,122.952006 489.788,121.688 L489.788,120.296 C489.788,118.583991 489.220006,117.728 488.084,117.728 C487.587998,117.728 487.048003,117.959998 486.464,118.424 C485.879997,118.888002 485.588,119.455997 485.588,120.128 Z M496.852,120.008 L495.7,122.672 C495.395998,123.328003 495.383999,123.795999 495.664,124.076 C495.944001,124.356001 496.579995,124.496 497.572,124.496 L497.572,125 L491.956,125 L491.956,124.496 C492.468003,124.496 492.863999,124.476 493.144,124.436 C493.424001,124.396 493.671999,124.268001 493.888,124.052 C494.104001,123.835999 494.256,123.640001 494.344,123.464 C494.432,123.287999 494.595999,122.936003 494.836,122.408 L500.116,110.192 L500.428,110.192 L505.732,122.408 C505.972001,122.936003 506.136,123.287999 506.224,123.464 C506.312,123.640001 506.463999,123.835999 506.68,124.052 C506.896001,124.268001 507.139999,124.396 507.412,124.436 C507.684001,124.476 508.075997,124.496 508.588,124.496 L508.588,125 L501.94,125 L501.94,124.496 C502.932005,124.496 503.563999,124.356001 503.836,124.076 C504.108001,123.795999 504.100001,123.328003 503.812,122.672 L502.66,120.008 L496.852,120.008 Z M502.252,119.12 L499.732,113.336 L497.236,119.12 L502.252,119.12 Z" id="Ifmax-=-20mA-Copy-2" fill="#1A80AA"></path>
            <path d="M292.56,13.088 C292.56,12.5599974 292.384002,12.1680013 292.032,11.912 C291.679998,11.6559987 291.104004,11.528 290.304,11.528 L290.304,11.048 L296.592,11.048 L296.592,11.528 C295.599995,11.528 294.972001,11.6959983 294.708,12.032 C294.443999,12.3680017 294.312,13.135994 294.312,14.336 L294.312,16.16 C293.415996,16.16 292.356006,16.3679979 291.132,16.784 C289.907994,17.2000021 288.888004,17.408 288.072,17.408 C286.03999,17.408 284.304007,16.6640074 282.864,15.176 C281.423993,13.6879926 280.704,11.8960105 280.704,9.8 C280.704,7.70398952 281.423993,5.91200744 282.864,4.424 C284.304007,2.93599256 286.03999,2.192 288.072,2.192 C289.768008,2.192 291.255994,2.8719932 292.536,4.232 C292.968002,3.89599832 293.239999,3.44000288 293.352,2.864 L293.832,2.864 L293.832,8.144 L293.352,8.144 C293.031998,6.57599216 292.416005,5.34800444 291.504,4.46 C290.591995,3.57199556 289.472007,3.128 288.144,3.128 C287.231995,3.128 286.424004,3.33199796 285.72,3.74 C285.015996,4.14800204 284.468002,4.68799664 284.076,5.36 C283.683998,6.03200336 283.392001,6.74399624 283.2,7.496 C283.007999,8.24800376 282.912,9.01599608 282.912,9.8 C282.912,10.4400032 282.963999,11.0519971 283.068,11.636 C283.172001,12.2200029 283.359999,12.807997 283.632,13.4 C283.904001,13.992003 284.247998,14.4999979 284.664,14.924 C285.080002,15.3480021 285.627997,15.6959986 286.308,15.968 C286.988003,16.2400014 287.751996,16.376 288.6,16.376 C289.704006,16.376 290.639996,16.0840029 291.408,15.5 C292.176004,14.9159971 292.56,14.1120051 292.56,13.088 Z M305.328,10.088 C305.328,10.8400038 305.008003,11.216 304.368,11.216 C304.143999,11.216 303.948001,11.1280009 303.78,10.952 C303.611999,10.7759991 303.528,10.5760011 303.528,10.352 C303.528,9.82399736 303.272003,9.56 302.76,9.56 C302.391998,9.56 301.992002,9.81599744 301.56,10.328 C301.127998,10.8400026 300.912,11.5199958 300.912,12.368 L300.912,13.688 C300.912,14.888006 301.027999,15.6559983 301.26,15.992 C301.492001,16.3280017 302.007996,16.496 302.808,16.496 L302.808,17 L297.312,17 L297.312,16.496 C298.112004,16.496 298.627999,16.3280017 298.86,15.992 C299.092001,15.6559983 299.208,14.888006 299.208,13.688 L299.208,12.488 C299.208,11.3039941 299.092001,10.5440017 298.86,10.208 C298.627999,9.87199832 298.112004,9.704 297.312,9.704 L297.312,9.2 L300.504,8.6 C300.648001,8.90400152 300.783999,9.47999576 300.912,10.328 C301.152001,9.8479976 301.511998,9.44000168 301.992,9.104 C302.472002,8.76799832 302.951998,8.6 303.432,8.6 C304.040003,8.6 304.507998,8.7599984 304.836,9.08 C305.164002,9.4000016 305.328,9.73599824 305.328,10.088 Z M308.64,11.504 L312.624,11.504 C312.784001,11.0559978 312.716001,10.6200021 312.42,10.196 C312.123999,9.77199788 311.616004,9.56 310.896,9.56 C310.383997,9.56 309.924002,9.73599824 309.516,10.088 C309.107998,10.4400018 308.816001,10.911997 308.64,11.504 Z M308.496,12.392 C308.351999,13.5760059 308.539997,14.5399963 309.06,15.284 C309.580003,16.0280037 310.431994,16.4 311.616,16.4 C312.016002,16.4 312.471997,16.296001 312.984,16.088 C313.496003,15.879999 313.919998,15.6160016 314.256,15.296 L314.688,15.824 C314.255998,16.2880023 313.704003,16.6679985 313.032,16.964 C312.359997,17.2600015 311.688003,17.408 311.016,17.408 C309.719994,17.408 308.656004,16.9800043 307.824,16.124 C306.991996,15.2679957 306.576,14.2240062 306.576,12.992 C306.576,11.7599938 307.027995,10.7200042 307.932,9.872 C308.836005,9.02399576 309.863994,8.6 311.016,8.6 C312.104005,8.6 312.991997,8.9799962 313.68,9.74 C314.368003,10.5000038 314.568001,11.383995 314.28,12.392 L308.496,12.392 Z M318.768,11.504 L322.752,11.504 C322.912001,11.0559978 322.844001,10.6200021 322.548,10.196 C322.251999,9.77199788 321.744004,9.56 321.024,9.56 C320.511997,9.56 320.052002,9.73599824 319.644,10.088 C319.235998,10.4400018 318.944001,10.911997 318.768,11.504 Z M318.624,12.392 C318.479999,13.5760059 318.667997,14.5399963 319.188,15.284 C319.708003,16.0280037 320.559994,16.4 321.744,16.4 C322.144002,16.4 322.599997,16.296001 323.112,16.088 C323.624003,15.879999 324.047998,15.6160016 324.384,15.296 L324.816,15.824 C324.383998,16.2880023 323.832003,16.6679985 323.16,16.964 C322.487997,17.2600015 321.816003,17.408 321.144,17.408 C319.847994,17.408 318.784004,16.9800043 317.952,16.124 C317.119996,15.2679957 316.704,14.2240062 316.704,12.992 C316.704,11.7599938 317.155995,10.7200042 318.06,9.872 C318.964005,9.02399576 319.991994,8.6 321.144,8.6 C322.232005,8.6 323.119997,8.9799962 323.808,9.74 C324.496003,10.5000038 324.696001,11.383995 324.408,12.392 L318.624,12.392 Z M330.192,10.328 C331.104005,9.17599424 332.215993,8.6 333.528,8.6 C334.568005,8.6 335.347997,8.92799672 335.868,9.584 C336.388003,10.2400033 336.648,11.1039946 336.648,12.176 L336.648,13.688 C336.648,14.888006 336.763999,15.6559983 336.996,15.992 C337.228001,16.3280017 337.743996,16.496 338.544,16.496 L338.544,17 L333.048,17 L333.048,16.496 C333.832004,16.496 334.343999,16.3240017 334.584,15.98 C334.824001,15.6359983 334.944,14.8720059 334.944,13.688 L334.944,12.296 C334.944,10.5839914 334.280007,9.728 332.952,9.728 C332.263997,9.728 331.632003,9.9679976 331.056,10.448 C330.479997,10.9280024 330.192,11.4879968 330.192,12.128 L330.192,13.688 C330.192,14.9200062 330.287999,15.6959984 330.48,16.016 C330.672001,16.3360016 331.135996,16.496 331.872,16.496 L331.872,17 L326.592,17 L326.592,16.496 C327.392004,16.496 327.907999,16.3280017 328.14,15.992 C328.372001,15.6559983 328.488,14.888006 328.488,13.688 L328.488,12.488 C328.488,11.3039941 328.372001,10.5440017 328.14,10.208 C327.907999,9.87199832 327.392004,9.704 326.592,9.704 L326.592,9.2 L329.784,8.6 C329.928001,8.90400152 330.063999,9.47999576 330.192,10.328 Z M279.912,41 L279.912,40.496 C280.904005,40.496 281.531999,40.3280017 281.796,39.992 C282.060001,39.6559983 282.192,38.888006 282.192,37.688 L282.192,29.888 C282.192,28.687994 282.060001,27.9240016 281.796,27.596 C281.531999,27.2679984 280.904005,27.104 279.912,27.104 L279.912,26.6 L286.392,26.6 L286.392,27.104 C285.399995,27.104 284.772001,27.2679984 284.508,27.596 C284.243999,27.9240016 284.112,28.687994 284.112,29.888 L284.112,37.328 C284.112,38.528006 284.243999,39.2919984 284.508,39.62 C284.772001,39.9480016 285.399995,40.112 286.392,40.112 L289.272,40.112 C290.296005,40.112 290.967998,39.9840013 291.288,39.728 C291.608002,39.4719987 291.855999,38.9920035 292.032,38.288 L292.152,37.808 L292.656,37.808 L292.464,41 L279.912,41 Z M293.712,41 L293.712,40.496 C294.704005,40.496 295.331999,40.3280017 295.596,39.992 C295.860001,39.6559983 295.992,38.888006 295.992,37.688 L295.992,29.888 C295.992,28.687994 295.860001,27.9240016 295.596,27.596 C295.331999,27.2679984 294.704005,27.104 293.712,27.104 L293.712,26.6 L304.656,26.6 L304.872,29.768 L304.368,29.768 L304.248,29.288 C304.055999,28.5839965 303.800002,28.1080012 303.48,27.86 C303.159998,27.6119988 302.488005,27.488 301.464,27.488 L297.912,27.488 L297.912,32.936 L299.112,32.936 C300.312006,32.936 301.075998,32.8040013 301.404,32.54 C301.732002,32.2759987 301.896,31.640005 301.896,30.632 L302.4,30.632 L302.4,36.128 L301.896,36.128 C301.896,35.119995 301.732002,34.4840013 301.404,34.22 C301.075998,33.9559987 300.312006,33.824 299.112,33.824 L297.912,33.824 L297.912,37.328 C297.912,38.528006 298.043999,39.2919984 298.308,39.62 C298.572001,39.9480016 299.199995,40.112 300.192,40.112 L302.256,40.112 C302.976004,40.112 303.523998,40.0400007 303.9,39.896 C304.276002,39.7519993 304.531999,39.5680011 304.668,39.344 C304.804001,39.1199989 304.927999,38.7680024 305.04,38.288 L305.16,37.808 L305.664,37.808 L305.472,41 L293.712,41 Z M307.704,41 L307.704,40.496 C308.696005,40.496 309.323999,40.3280017 309.588,39.992 C309.852001,39.6559983 309.984,38.888006 309.984,37.688 L309.984,29.888 C309.984,28.687994 309.852001,27.9240016 309.588,27.596 C309.323999,27.2679984 308.696005,27.104 307.704,27.104 L307.704,26.6 L314.208,26.6 C316.864013,26.6 318.863993,27.2719933 320.208,28.616 C321.552007,29.9600067 322.224,31.6879894 322.224,33.8 C322.224,35.9120106 321.552007,37.6399933 320.208,38.984 C318.863993,40.3280067 316.864013,41 314.208,41 L307.704,41 Z M311.904,27.488 L311.904,37.328 C311.904,38.5440061 312.031999,39.3119984 312.288,39.632 C312.544001,39.9520016 313.159995,40.112 314.136,40.112 L314.232,40.112 C315.336006,40.112 316.283996,39.9200019 317.076,39.536 C317.868004,39.1519981 318.459998,38.6360032 318.852,37.988 C319.244002,37.3399968 319.519999,36.6760034 319.68,35.996 C319.840001,35.3159966 319.92,34.5840039 319.92,33.8 C319.92,33.0159961 319.840001,32.2840034 319.68,31.604 C319.519999,30.9239966 319.244002,30.2600032 318.852,29.612 C318.459998,28.9639968 317.868004,28.4480019 317.076,28.064 C316.283996,27.6799981 315.336006,27.488 314.232,27.488 L311.904,27.488 Z" id="Green-LED-Copy" fill="#524740"></path>
            <path d="M417.016,16.112 C418.008005,16.112 418.767997,15.816003 419.296,15.224 C419.824003,14.631997 420.088,13.8800046 420.088,12.968 C420.088,12.0399954 419.824003,11.276003 419.296,10.676 C418.767997,10.075997 418.008005,9.776 417.016,9.776 L414.112,9.776 L414.112,13.328 C414.112,14.528006 414.243999,15.2919984 414.508,15.62 C414.772001,15.9480016 415.399995,16.112 416.392,16.112 L417.016,16.112 Z M414.112,3.488 L414.112,8.888 L416.248,8.888 C417.112004,8.888 417.767998,8.63600252 418.216,8.132 C418.664002,7.62799748 418.888,6.98400392 418.888,6.2 C418.888,5.41599608 418.664002,4.76800256 418.216,4.256 C417.767998,3.74399744 417.112004,3.488 416.248,3.488 L414.112,3.488 Z M419.128,9.176 C420.056005,9.46400144 420.799997,9.95199656 421.36,10.64 C421.920003,11.3280034 422.2,12.1039957 422.2,12.968 C422.2,14.1360058 421.744005,15.0999962 420.832,15.86 C419.919995,16.6200038 418.656008,17 417.04,17 L409.912,17 L409.912,16.496 C410.904005,16.496 411.531999,16.3280017 411.796,15.992 C412.060001,15.6559983 412.192,14.888006 412.192,13.688 L412.192,5.888 C412.192,4.687994 412.060001,3.92400164 411.796,3.596 C411.531999,3.26799836 410.904005,3.104 409.912,3.104 L409.912,2.6 L416.368,2.6 C417.840007,2.6 418.979996,2.9399966 419.788,3.62 C420.596004,4.3000034 421,5.1599948 421,6.2 C421,7.44800624 420.376006,8.43999632 419.128,9.176 Z M429.544,17 L424.048,17 L424.048,16.496 C424.848004,16.496 425.363999,16.3280017 425.596,15.992 C425.828001,15.6559983 425.944,14.888006 425.944,13.688 L425.944,6.104 C425.944,4.903994 425.828001,4.13600168 425.596,3.8 C425.363999,3.46399832 424.848004,3.296 424.048,3.296 L424.048,2.792 L427.648,2.192 L427.648,13.688 C427.648,14.888006 427.763999,15.6559983 427.996,15.992 C428.228001,16.3280017 428.743996,16.496 429.544,16.496 L429.544,17 Z M442.096,16.808 L438.88,17.408 C438.751999,17.1519987 438.624001,16.6400038 438.496,15.872 C437.503995,16.8960051 436.456006,17.408 435.352,17.408 C433.36799,17.408 432.376,16.208012 432.376,13.808 L432.376,12.296 C432.376,11.095994 432.260001,10.3280017 432.028,9.992 C431.795999,9.65599832 431.280004,9.488 430.48,9.488 L430.48,9.008 L434.08,9.008 L434.08,13.688 C434.08,15.4000086 434.687994,16.256 435.904,16.256 C436.448003,16.256 437.015997,16.0280023 437.608,15.572 C438.200003,15.1159977 438.496,14.5520034 438.496,13.88 L438.496,12.296 C438.496,11.095994 438.380001,10.3280017 438.148,9.992 C437.915999,9.65599832 437.392004,9.488 436.576,9.488 L436.576,9.008 L440.176,9.008 L440.176,13.496 C440.176,14.696006 440.291999,15.4639983 440.524,15.8 C440.756001,16.1360017 441.279996,16.304 442.096,16.304 L442.096,16.808 Z M445.768,11.504 L449.752,11.504 C449.912001,11.0559978 449.844001,10.6200021 449.548,10.196 C449.251999,9.77199788 448.744004,9.56 448.024,9.56 C447.511997,9.56 447.052002,9.73599824 446.644,10.088 C446.235998,10.4400018 445.944001,10.911997 445.768,11.504 Z M445.624,12.392 C445.479999,13.5760059 445.667997,14.5399963 446.188,15.284 C446.708003,16.0280037 447.559994,16.4 448.744,16.4 C449.144002,16.4 449.599997,16.296001 450.112,16.088 C450.624003,15.879999 451.047998,15.6160016 451.384,15.296 L451.816,15.824 C451.383998,16.2880023 450.832003,16.6679985 450.16,16.964 C449.487997,17.2600015 448.816003,17.408 448.144,17.408 C446.847994,17.408 445.784004,16.9800043 444.952,16.124 C444.119996,15.2679957 443.704,14.2240062 443.704,12.992 C443.704,11.7599938 444.155995,10.7200042 445.06,9.872 C445.964005,9.02399576 446.991994,8.6 448.144,8.6 C449.232005,8.6 450.119997,8.9799962 450.808,9.74 C451.496003,10.5000038 451.696001,11.383995 451.408,12.392 L445.624,12.392 Z M409.912,41 L409.912,40.496 C410.904005,40.496 411.531999,40.3280017 411.796,39.992 C412.060001,39.6559983 412.192,38.888006 412.192,37.688 L412.192,29.888 C412.192,28.687994 412.060001,27.9240016 411.796,27.596 C411.531999,27.2679984 410.904005,27.104 409.912,27.104 L409.912,26.6 L416.392,26.6 L416.392,27.104 C415.399995,27.104 414.772001,27.2679984 414.508,27.596 C414.243999,27.9240016 414.112,28.687994 414.112,29.888 L414.112,37.328 C414.112,38.528006 414.243999,39.2919984 414.508,39.62 C414.772001,39.9480016 415.399995,40.112 416.392,40.112 L419.272,40.112 C420.296005,40.112 420.967998,39.9840013 421.288,39.728 C421.608002,39.4719987 421.855999,38.9920035 422.032,38.288 L422.152,37.808 L422.656,37.808 L422.464,41 L409.912,41 Z M423.712,41 L423.712,40.496 C424.704005,40.496 425.331999,40.3280017 425.596,39.992 C425.860001,39.6559983 425.992,38.888006 425.992,37.688 L425.992,29.888 C425.992,28.687994 425.860001,27.9240016 425.596,27.596 C425.331999,27.2679984 424.704005,27.104 423.712,27.104 L423.712,26.6 L434.656,26.6 L434.872,29.768 L434.368,29.768 L434.248,29.288 C434.055999,28.5839965 433.800002,28.1080012 433.48,27.86 C433.159998,27.6119988 432.488005,27.488 431.464,27.488 L427.912,27.488 L427.912,32.936 L429.112,32.936 C430.312006,32.936 431.075998,32.8040013 431.404,32.54 C431.732002,32.2759987 431.896,31.640005 431.896,30.632 L432.4,30.632 L432.4,36.128 L431.896,36.128 C431.896,35.119995 431.732002,34.4840013 431.404,34.22 C431.075998,33.9559987 430.312006,33.824 429.112,33.824 L427.912,33.824 L427.912,37.328 C427.912,38.528006 428.043999,39.2919984 428.308,39.62 C428.572001,39.9480016 429.199995,40.112 430.192,40.112 L432.256,40.112 C432.976004,40.112 433.523998,40.0400007 433.9,39.896 C434.276002,39.7519993 434.531999,39.5680011 434.668,39.344 C434.804001,39.1199989 434.927999,38.7680024 435.04,38.288 L435.16,37.808 L435.664,37.808 L435.472,41 L423.712,41 Z M437.704,41 L437.704,40.496 C438.696005,40.496 439.323999,40.3280017 439.588,39.992 C439.852001,39.6559983 439.984,38.888006 439.984,37.688 L439.984,29.888 C439.984,28.687994 439.852001,27.9240016 439.588,27.596 C439.323999,27.2679984 438.696005,27.104 437.704,27.104 L437.704,26.6 L444.208,26.6 C446.864013,26.6 448.863993,27.2719933 450.208,28.616 C451.552007,29.9600067 452.224,31.6879894 452.224,33.8 C452.224,35.9120106 451.552007,37.6399933 450.208,38.984 C448.863993,40.3280067 446.864013,41 444.208,41 L437.704,41 Z M441.904,27.488 L441.904,37.328 C441.904,38.5440061 442.031999,39.3119984 442.288,39.632 C442.544001,39.9520016 443.159995,40.112 444.136,40.112 L444.232,40.112 C445.336006,40.112 446.283996,39.9200019 447.076,39.536 C447.868004,39.1519981 448.459998,38.6360032 448.852,37.988 C449.244002,37.3399968 449.519999,36.6760034 449.68,35.996 C449.840001,35.3159966 449.92,34.5840039 449.92,33.8 C449.92,33.0159961 449.840001,32.2840034 449.68,31.604 C449.519999,30.9239966 449.244002,30.2600032 448.852,29.612 C448.459998,28.9639968 447.868004,28.4480019 447.076,28.064 C446.283996,27.6799981 445.336006,27.488 444.232,27.488 L441.904,27.488 Z" id="Blue-LED-Copy" fill="#524740"></path>
        </g>
    </g>
</svg>