<?xml version="1.0" encoding="UTF-8"?>
<svg width="900px" height="290px" viewBox="0 0 900 290" version="1.1" xmlns="http://www.w3.org/2000/svg" xmlns:xlink="http://www.w3.org/1999/xlink">
    <!-- Generator: Sketch 52.5 (67469) - http://www.bohemiancoding.com/sketch -->
    <title>LED_Series_Circuit</title>
    <desc>Created with Sketch.</desc>
    <g id="LED_Series_Circuit" stroke="none" stroke-width="1" fill="none" fill-rule="evenodd">
        <rect id="Rectangle" stroke="#3D3530" stroke-width="2" fill="#EEEEEE" x="1" y="1" width="898" height="428"></rect>
        <rect id="Rectangle-Copy" stroke="#3D3530" stroke-width="2" fill="#F8FAE4" x="1" y="246" width="898" height="43"></rect>
        <path d="M678.544,272.416 L685.888,272.416 L685.888,274 L676.96,274 L676.96,257.872 L678.544,257.872 L678.544,272.416 Z M699.106666,259.456 L690.106666,259.456 L690.106666,265 L695.170666,265 L695.170666,266.584 L690.106666,266.584 L690.106666,272.416 L699.106666,272.416 L699.106666,274 L688.522666,274 L688.522666,257.872 L699.106666,257.872 L699.106666,259.456 Z M702.941333,274 L702.941333,257.872 L706.589333,257.872 C709.245346,257.872 711.357325,258.639992 712.925333,260.176 C714.493341,261.712008 715.277333,263.631988 715.277333,265.936 C715.277333,268.224011 714.489341,270.139992 712.913333,271.684 C711.337325,273.228008 709.229346,274 706.589333,274 L702.941333,274 Z M704.525333,272.488 L706.589333,272.488 C708.701344,272.488 710.389327,271.868006 711.653333,270.628 C712.917339,269.387994 713.549333,267.824009 713.549333,265.936 C713.549333,264.047991 712.917339,262.484006 711.653333,261.244 C710.389327,260.003994 708.701344,259.384 706.589333,259.384 L704.525333,259.384 L704.525333,272.488 Z M730.818666,274.192 C729.746661,274.192 728.710671,273.920003 727.710666,273.376 C726.710661,272.831997 725.954669,272.288003 725.442666,271.744 L726.546666,270.664 C726.946668,271.096002 727.538662,271.539998 728.322666,271.996 C729.10667,272.452002 729.938662,272.68 730.818666,272.68 C731.890672,272.68 732.734663,272.444002 733.350666,271.972 C733.966669,271.499998 734.274666,270.856004 734.274666,270.04 C734.274666,269.351997 733.974669,268.752003 733.374666,268.24 C732.774663,267.727997 732.046671,267.296002 731.190666,266.944 C730.334662,266.591998 729.474671,266.220002 728.610666,265.828 C727.746662,265.435998 727.014669,264.904003 726.414666,264.232 C725.814663,263.559997 725.514666,262.768005 725.514666,261.856 C725.514666,260.687994 725.954662,259.704004 726.834666,258.904 C727.714671,258.103996 728.946658,257.704 730.530666,257.704 C731.602672,257.704 732.638661,257.975997 733.638666,258.52 C734.638671,259.064003 735.394664,259.607997 735.906666,260.152 L734.802666,261.232 C734.386664,260.783998 733.78667,260.336002 733.002666,259.888 C732.218662,259.439998 731.394671,259.216 730.530666,259.216 C729.458661,259.216 728.614669,259.451998 727.998666,259.924 C727.382663,260.396002 727.074666,261.039996 727.074666,261.856 C727.074666,262.544003 727.374663,263.147997 727.974666,263.668 C728.574669,264.188003 729.302662,264.623998 730.158666,264.976 C731.014671,265.328002 731.874662,265.695998 732.738666,266.08 C733.602671,266.464002 734.334663,266.991997 734.934666,267.664 C735.534669,268.336003 735.834666,269.127995 735.834666,270.04 C735.834666,271.208006 735.394671,272.191996 734.514666,272.992 C733.634662,273.792004 732.402674,274.192 730.818666,274.192 Z M744.421333,272.608 C745.493338,272.608 746.453329,272.304003 747.301333,271.696 C748.149337,271.087997 748.725332,270.376004 749.029333,269.56 L750.373333,270.04 C750.005331,271.048005 749.289338,271.975996 748.225333,272.824 C747.161328,273.672004 745.89334,274.088 744.421333,274.072 C743.077326,274.072 741.849339,273.656004 740.737333,272.824 C739.625328,271.991996 738.869335,270.928006 738.469333,269.632 C738.309332,269.103997 738.229333,268.528003 738.229333,267.904 C738.229333,266.175991 738.829327,264.712006 740.029333,263.512 C741.229339,262.311994 742.693324,261.704 744.421333,261.688 C745.989341,261.704 747.357327,262.231995 748.525333,263.272 C749.693339,264.312005 750.365332,265.599992 750.541333,267.136 C750.557333,267.216 750.565333,267.319999 750.565333,267.448 L740.077333,269.344 C740.349334,270.304005 740.893329,271.091997 741.709333,271.708 C742.525337,272.324003 743.429328,272.624 744.421333,272.608 Z M744.277333,263.152 C743.077327,263.168 742.049337,263.599996 741.193333,264.448 C740.337329,265.296004 739.877333,266.311994 739.813333,267.496 C739.813333,267.544 739.817333,267.627999 739.825333,267.748 C739.833333,267.868001 739.837333,267.968 739.837333,268.048 L748.765333,266.44 C748.461332,265.463995 747.893337,264.668003 747.061333,264.052 C746.229329,263.435997 745.301338,263.136 744.277333,263.152 Z M758.912,261.808 C759.760004,261.808 760.535996,262.015998 761.24,262.432 L760.688,264.016 C760.015996,263.519998 759.336003,263.272 758.648,263.272 C757.639995,263.272 756.792003,263.627996 756.104,264.34 C755.415996,265.052004 755.072,265.927995 755.072,266.968 L755.072,274 L753.488,274 L753.488,262 L755.072,262 L755.072,263.776 C756.048005,262.463993 757.327992,261.808 758.912,261.808 Z M765.674666,258.4 C765.498666,258.592001 765.274668,258.688 765.002666,258.688 C764.730665,258.688 764.502667,258.592001 764.318666,258.4 C764.134666,258.207999 764.042666,257.984001 764.042666,257.728 C764.042666,257.471999 764.134666,257.248001 764.318666,257.056 C764.502667,256.863999 764.730665,256.768 765.002666,256.768 C765.274668,256.768 765.502666,256.863999 765.686666,257.056 C765.870667,257.248001 765.962666,257.471999 765.962666,257.728 C765.962666,257.984001 765.866667,258.207999 765.674666,258.4 Z M764.210666,274 L764.210666,262 L765.794666,262 L765.794666,274 L764.210666,274 Z M775.461333,272.608 C776.533338,272.608 777.493329,272.304003 778.341333,271.696 C779.189337,271.087997 779.765332,270.376004 780.069333,269.56 L781.413333,270.04 C781.045331,271.048005 780.329338,271.975996 779.265333,272.824 C778.201328,273.672004 776.93334,274.088 775.461333,274.072 C774.117326,274.072 772.889339,273.656004 771.777333,272.824 C770.665328,271.991996 769.909335,270.928006 769.509333,269.632 C769.349332,269.103997 769.269333,268.528003 769.269333,267.904 C769.269333,266.175991 769.869327,264.712006 771.069333,263.512 C772.269339,262.311994 773.733324,261.704 775.461333,261.688 C777.029341,261.704 778.397327,262.231995 779.565333,263.272 C780.733339,264.312005 781.405332,265.599992 781.581333,267.136 C781.597333,267.216 781.605333,267.319999 781.605333,267.448 L771.117333,269.344 C771.389334,270.304005 771.933329,271.091997 772.749333,271.708 C773.565337,272.324003 774.469328,272.624 775.461333,272.608 Z M775.317333,263.152 C774.117327,263.168 773.089337,263.599996 772.233333,264.448 C771.377329,265.296004 770.917333,266.311994 770.853333,267.496 C770.853333,267.544 770.857333,267.627999 770.865333,267.748 C770.873333,267.868001 770.877333,267.968 770.877333,268.048 L779.805333,266.44 C779.501332,265.463995 778.933337,264.668003 778.101333,264.052 C777.269329,263.435997 776.341338,263.136 775.317333,263.152 Z M788.728,274.192 C788.183997,274.192 787.656002,274.124001 787.144,273.988 C786.631997,273.851999 786.204002,273.692001 785.86,273.508 C785.515998,273.323999 785.208001,273.136001 784.936,272.944 C784.663998,272.751999 784.464,272.592001 784.336,272.464 L784.144,272.248 L785.272,271.288 C785.384,271.400001 785.539999,271.535999 785.74,271.696 C785.940001,271.856001 786.343997,272.071999 786.952,272.344 C787.560003,272.616001 788.159997,272.752 788.752,272.752 C789.632004,272.752 790.335997,272.584002 790.864,272.248 C791.392002,271.911998 791.656,271.440003 791.656,270.832 C791.656,270.399998 791.392002,270.028002 790.864,269.716 C790.335997,269.403998 789.696004,269.136001 788.944,268.912 C788.191996,268.687999 787.436004,268.440001 786.676,268.168 C785.915996,267.895999 785.272002,267.512002 784.744,267.016 C784.215997,266.519998 783.952,265.912004 783.952,265.192 C783.952,264.199995 784.323996,263.388003 785.068,262.756 C785.812004,262.123997 786.911993,261.808 788.368,261.808 C789.232004,261.808 790.047996,261.967998 790.816,262.288 C791.584004,262.608002 792.135998,262.927998 792.472,263.248 L792.976,263.728 L791.848,264.712 C791.735999,264.599999 791.580001,264.464001 791.38,264.304 C791.179999,264.143999 790.776003,263.928001 790.168,263.656 C789.559997,263.383999 788.952003,263.248 788.344,263.248 C787.479996,263.248 786.780003,263.415998 786.244,263.752 C785.707997,264.088002 785.44,264.559997 785.44,265.168 C785.44,265.600002 785.703997,265.971998 786.232,266.284 C786.760002,266.596002 787.399996,266.863999 788.152,267.088 C788.904004,267.312001 789.659996,267.555999 790.42,267.82 C791.180004,268.084001 791.823997,268.467997 792.352,268.972 C792.880002,269.476003 793.144,270.087996 793.144,270.808 C793.144,271.816005 792.776004,272.631997 792.04,273.256 C791.303996,273.880003 790.200007,274.192 788.728,274.192 Z M810.869333,274.192 C808.501321,274.192 806.61334,273.404008 805.205333,271.828 C803.797326,270.251992 803.093333,268.296012 803.093333,265.96 C803.093333,263.607988 803.797326,261.644008 805.205333,260.068 C806.61334,258.491992 808.501321,257.704 810.869333,257.704 C812.437341,257.704 813.801327,258.063996 814.961333,258.784 C816.121339,259.504004 817.02133,260.487994 817.661333,261.736 L816.173333,262.6 C815.661331,261.559995 814.945338,260.736003 814.025333,260.128 C813.105329,259.519997 812.053339,259.216 810.869333,259.216 C809.045324,259.216 807.585339,259.851994 806.489333,261.124 C805.393328,262.396006 804.845333,264.00799 804.845333,265.96 C804.845333,267.89601 805.393328,269.503994 806.489333,270.784 C807.585339,272.064006 809.045324,272.704 810.869333,272.704 C812.069339,272.704 813.129329,272.396003 814.049333,271.78 C814.969338,271.163997 815.677331,270.336005 816.173333,269.296 L817.661333,270.184 C817.02133,271.432006 816.121339,272.411996 814.961333,273.124 C813.801327,273.836004 812.437341,274.192 810.869333,274.192 Z M822.84,258.4 C822.663999,258.592001 822.440001,258.688 822.168,258.688 C821.895999,258.688 821.668001,258.592001 821.484,258.4 C821.299999,258.207999 821.208,257.984001 821.208,257.728 C821.208,257.471999 821.299999,257.248001 821.484,257.056 C821.668001,256.863999 821.895999,256.768 822.168,256.768 C822.440001,256.768 822.667999,256.863999 822.852,257.056 C823.036001,257.248001 823.128,257.471999 823.128,257.728 C823.128,257.984001 823.032001,258.207999 822.84,258.4 Z M821.376,274 L821.376,262 L822.96,262 L822.96,274 L821.376,274 Z M832.722667,261.808 C833.570671,261.808 834.346663,262.015998 835.050667,262.432 L834.498667,264.016 C833.826663,263.519998 833.14667,263.272 832.458667,263.272 C831.450662,263.272 830.60267,263.627996 829.914667,264.34 C829.226663,265.052004 828.882667,265.927995 828.882667,266.968 L828.882667,274 L827.298667,274 L827.298667,262 L828.882667,262 L828.882667,263.776 C829.858671,262.463993 831.138659,261.808 832.722667,261.808 Z M842.365333,274.192 C840.653325,274.192 839.193339,273.588006 837.985333,272.38 C836.777327,271.171994 836.173333,269.712009 836.173333,268 C836.173333,266.287991 836.777327,264.828006 837.985333,263.62 C839.193339,262.411994 840.653325,261.808 842.365333,261.808 C843.453339,261.808 844.465329,262.075997 845.401333,262.612 C846.337338,263.148003 847.077331,263.863996 847.621333,264.76 L846.181333,265.456 C845.749331,264.799997 845.197337,264.280002 844.525333,263.896 C843.85333,263.511998 843.133337,263.32 842.365333,263.32 C841.069327,263.32 839.977338,263.771995 839.089333,264.676 C838.201329,265.580005 837.757333,266.687993 837.757333,268 C837.757333,269.312007 838.201329,270.419995 839.089333,271.324 C839.977338,272.228005 841.069327,272.68 842.365333,272.68 C843.133337,272.68 843.85333,272.488002 844.525333,272.104 C845.197337,271.719998 845.749331,271.200003 846.181333,270.544 L847.621333,271.24 C847.077331,272.136004 846.337338,272.851997 845.401333,273.388 C844.465329,273.924003 843.453339,274.192 842.365333,274.192 Z M859.664,262 L861.248,262 L861.248,274 L859.664,274 L859.664,272.224 C858.687995,273.536007 857.408008,274.192 855.824,274.192 C854.431993,274.192 853.264005,273.700005 852.32,272.716 C851.375995,271.731995 850.904,270.520007 850.904,269.08 L850.904,262 L852.536,262 L852.536,269.032 C852.536,270.056005 852.879997,270.923996 853.568,271.636 C854.256003,272.348004 855.095995,272.704 856.088,272.704 C857.096005,272.704 857.943997,272.348004 858.632,271.636 C859.320003,270.923996 859.664,270.056005 859.664,269.032 L859.664,262 Z M867.050667,258.4 C866.874666,258.592001 866.650668,258.688 866.378667,258.688 C866.106665,258.688 865.878668,258.592001 865.694667,258.4 C865.510666,258.207999 865.418667,257.984001 865.418667,257.728 C865.418667,257.471999 865.510666,257.248001 865.694667,257.056 C865.878668,256.863999 866.106665,256.768 866.378667,256.768 C866.650668,256.768 866.878666,256.863999 867.062667,257.056 C867.246668,257.248001 867.338667,257.471999 867.338667,257.728 C867.338667,257.984001 867.242668,258.207999 867.050667,258.4 Z M865.586667,274 L865.586667,262 L867.170667,262 L867.170667,274 L865.586667,274 Z M877.653333,271.312 L878.445333,272.536 C878.349333,272.664001 878.221334,272.815999 878.061333,272.992 C877.901333,273.168001 877.541336,273.411998 876.981333,273.724 C876.421331,274.036002 875.845336,274.192 875.253333,274.192 C874.245328,274.192 873.401337,273.892003 872.721333,273.292 C872.04133,272.691997 871.701333,271.824006 871.701333,270.688 L871.701333,263.44 L869.781333,263.44 L869.781333,261.976 L871.701333,261.976 L871.701333,258.184 L873.285333,257.992 L873.285333,261.976 L876.909333,261.976 L876.909333,263.44 L873.285333,263.44 L873.285333,270.328 C873.285333,271.064004 873.513331,271.647998 873.969333,272.08 C874.425336,272.512002 874.94933,272.728 875.541333,272.728 C875.909335,272.728 876.269332,272.616001 876.621333,272.392 C876.973335,272.167999 877.233332,271.948001 877.401333,271.732 C877.569334,271.515999 877.653333,271.376 877.653333,271.312 Z" id="LED-Series-Circuit-Copy" fill="#23ABE3"></path>
        <g id="Circuit" transform="translate(190.000000, 28.000000)">
            <polyline id="Resistor" stroke="#3D3530" stroke-width="3" stroke-linejoin="round" points="125 42 130 42 135 29 145 55 155 29 165 55 175 29 185 55 190 42 195 42"></polyline>
            <g id="LED" transform="translate(195.000000, 0.000000)">
                <polygon id="Path-2" fill="#3D3530" points="24.5 29 44 42 24.5 55"></polygon>
                <path d="M44,42 L70,42" id="Path-2-Copy" stroke="#3D3530" stroke-width="3"></path>
                <path d="M44,29 L44,55" id="Path-4-Copy" stroke="#3D3530" stroke-width="3"></path>
                <path d="M0,42 L24.5,42" id="Path-3" stroke="#3D3530" stroke-width="3"></path>
                <g id="Arrow" transform="translate(43.647114, 19.941343) rotate(-150.000000) translate(-43.647114, -19.941343) translate(39.147114, 6.441343)">
                    <polygon id="Triangle" fill="#3D3530" transform="translate(4.633975, 19.633975) scale(1, -1) translate(-4.633975, -19.633975) " points="4.6339746 13.1339746 8.6339746 26.1339746 0.633974596 26.1339746"></polygon>
                    <path d="M4.5,0 L4.5,20" id="Path-3" stroke="#3D3530" stroke-width="3"></path>
                </g>
                <g id="Arrow" transform="translate(33.647114, 13.941343) rotate(-150.000000) translate(-33.647114, -13.941343) translate(29.147114, 0.441343)">
                    <polygon id="Triangle" fill="#3D3530" transform="translate(4.633975, 19.633975) scale(1, -1) translate(-4.633975, -19.633975) " points="4.6339746 13.1339746 8.6339746 26.1339746 0.633974596 26.1339746"></polygon>
                    <path d="M4.5,1.13686838e-13 L4.5,20" id="Path-3" stroke="#3D3530" stroke-width="3"></path>
                </g>
            </g>
            <g id="LED-Copy" transform="translate(265.000000, 0.000000)">
                <polygon id="Path-2" fill="#3D3530" points="24.5 29 44 42 24.5 55"></polygon>
                <path d="M44,42 L70,42" id="Path-2-Copy" stroke="#3D3530" stroke-width="3"></path>
                <path d="M44,29 L44,55" id="Path-4-Copy" stroke="#3D3530" stroke-width="3"></path>
                <path d="M0,42 L24.5,42" id="Path-3" stroke="#3D3530" stroke-width="3"></path>
                <g id="Arrow" transform="translate(43.647114, 19.941343) rotate(-150.000000) translate(-43.647114, -19.941343) translate(39.147114, 6.441343)">
                    <polygon id="Triangle" fill="#3D3530" transform="translate(4.633975, 19.633975) scale(1, -1) translate(-4.633975, -19.633975) " points="4.6339746 13.1339746 8.6339746 26.1339746 0.633974596 26.1339746"></polygon>
                    <path d="M4.5,0 L4.5,20" id="Path-3" stroke="#3D3530" stroke-width="3"></path>
                </g>
                <g id="Arrow" transform="translate(33.647114, 13.941343) rotate(-150.000000) translate(-33.647114, -13.941343) translate(29.147114, 0.441343)">
                    <polygon id="Triangle" fill="#3D3530" transform="translate(4.633975, 19.633975) scale(1, -1) translate(-4.633975, -19.633975) " points="4.6339746 13.1339746 8.6339746 26.1339746 0.633974596 26.1339746"></polygon>
                    <path d="M4.5,1.13686838e-13 L4.5,20" id="Path-3" stroke="#3D3530" stroke-width="3"></path>
                </g>
            </g>
            <g id="LED-Copy-2" transform="translate(335.000000, 0.000000)">
                <polygon id="Path-2" fill="#3D3530" points="24.5 29 44 42 24.5 55"></polygon>
                <path d="M44,42 L70,42" id="Path-2-Copy" stroke="#3D3530" stroke-width="3"></path>
                <path d="M44,29 L44,55" id="Path-4-Copy" stroke="#3D3530" stroke-width="3"></path>
                <path d="M0,42 L24.5,42" id="Path-3" stroke="#3D3530" stroke-width="3"></path>
                <g id="Arrow" transform="translate(43.647114, 19.941343) rotate(-150.000000) translate(-43.647114, -19.941343) translate(39.147114, 6.441343)">
                    <polygon id="Triangle" fill="#3D3530" transform="translate(4.633975, 19.633975) scale(1, -1) translate(-4.633975, -19.633975) " points="4.6339746 13.1339746 8.6339746 26.1339746 0.633974596 26.1339746"></polygon>
                    <path d="M4.5,0 L4.5,20" id="Path-3" stroke="#3D3530" stroke-width="3"></path>
                </g>
                <g id="Arrow" transform="translate(33.647114, 13.941343) rotate(-150.000000) translate(-33.647114, -13.941343) translate(29.147114, 0.441343)">
                    <polygon id="Triangle" fill="#3D3530" transform="translate(4.633975, 19.633975) scale(1, -1) translate(-4.633975, -19.633975) " points="4.6339746 13.1339746 8.6339746 26.1339746 0.633974596 26.1339746"></polygon>
                    <path d="M4.5,1.13686838e-13 L4.5,20" id="Path-3" stroke="#3D3530" stroke-width="3"></path>
                </g>
            </g>
            <g id="Power" transform="translate(0.000000, 72.000000)"></g>
            <g id="DC_Power" transform="translate(40.000000, 72.000000)">
                <circle id="Oval" stroke="#3D3530" stroke-width="3" cx="40" cy="40" r="40"></circle>
                <g id="+" transform="translate(36.000000, 11.000000)" stroke="#3D3530" stroke-width="2">
                    <path d="M4,4 L0,4 L4,4 L4,8 L4,4 Z M4,4 L8,4 L4,4 L4,0 L4,4 Z" id="Combined-Shape"></path>
                </g>
                <g id="-" transform="translate(36.000000, 66.000000)" stroke="#3D3530" stroke-width="2">
                    <path d="M0,1 L8,1" id="Path"></path>
                </g>
                <path d="M102.196,33.104 C101.251995,33.104 100.640001,33.2199988 100.36,33.452 C100.079999,33.6840012 99.740002,34.2639954 99.34,35.192 L94.06,47.408 L93.748,47.408 L88.444,35.192 C88.043998,34.2639954 87.7040014,33.6840012 87.424,33.452 C87.1439986,33.2199988 86.5320047,33.104 85.588,33.104 L85.588,32.6 L92.236,32.6 L92.236,33.104 C91.243995,33.104 90.6080014,33.2439986 90.328,33.524 C90.0479986,33.8040014 90.0599985,34.2719967 90.364,34.928 L94.444,44.264 L98.476,34.928 C98.7800015,34.2719967 98.7920014,33.8040014 98.512,33.524 C98.2319986,33.2439986 97.596005,33.104 96.604,33.104 L96.604,32.6 L102.196,32.6 L102.196,33.104 Z M105.172,55.28 C104.803998,55.5840015 104.572,55.9599978 104.476,56.408 L103.996,56.408 L103.996,51.128 L104.5,51.128 C104.5,51.1920003 104.504,51.2759995 104.512,51.38 C104.52,51.4840005 104.552,51.6839985 104.608,51.98 C104.664,52.2760015 104.743999,52.5599986 104.848,52.832 C104.952001,53.1040014 105.115999,53.4079983 105.34,53.744 C105.564001,54.0800017 105.823999,54.3679988 106.12,54.608 C106.416001,54.8480012 106.807998,55.0479992 107.296,55.208 C107.784002,55.3680008 108.323997,55.448 108.916,55.448 C109.780004,55.448 110.495997,55.2000025 111.064,54.704 C111.632003,54.2079975 111.916,53.5760038 111.916,52.808 C111.916,51.8319951 110.996009,50.8640048 109.156,49.904 L106.852,48.728 C106.099996,48.327998 105.468003,47.7840034 104.956,47.096 C104.443997,46.4079966 104.188,45.6320043 104.188,44.768 C104.188,43.759995 104.563996,42.9120034 105.316,42.224 C106.068004,41.5359966 107.019994,41.192 108.172,41.192 C109.228005,41.192 110.203996,41.5199967 111.1,42.176 C111.468002,41.8719985 111.7,41.5040022 111.796,41.072 L112.276,41.072 L112.276,46.352 L111.772,46.352 C111.531999,43.551986 110.308011,42.152 108.1,42.152 C107.427997,42.152 106.872002,42.355998 106.432,42.764 C105.991998,43.172002 105.772,43.679997 105.772,44.288 C105.772,44.880003 105.983998,45.379998 106.408,45.788 C106.832002,46.196002 107.595994,46.6879971 108.7,47.264 L110.98,48.44 C112.660008,49.2880042 113.5,50.5039921 113.5,52.088 C113.5,53.3680064 113.056004,54.407996 112.168,55.208 C111.279996,56.008004 110.196006,56.408 108.916,56.408 C108.371997,56.408 107.852002,56.3280008 107.356,56.168 C106.859998,56.0079992 106.412002,55.828001 106.012,55.628 C105.611998,55.427999 105.332001,55.3120002 105.172,55.28 Z" id="VS-Copy" fill="#524740"></path>
            </g>
            <g id="Wiring" transform="translate(80.000000, 42.000000)" stroke="#3D3530" stroke-width="2">
                <polyline id="Path-13-Copy-4" points="0 30 0 0 45 1.94289029e-16"></polyline>
                <polyline id="Path-13" points="325 0 362 0 362 140 1.13686838e-13 140 1.13686838e-13 110"></polyline>
            </g>
        </g>
    </g>
</svg>