<?xml version="1.0" encoding="UTF-8"?>
<svg width="900px" height="310px" viewBox="0 0 900 310" version="1.1" xmlns="http://www.w3.org/2000/svg" xmlns:xlink="http://www.w3.org/1999/xlink">
    <!-- Generator: Sketch 52.5 (67469) - http://www.bohemiancoding.com/sketch -->
    <title>LED_Series_Circuit</title>
    <desc>Created with Sketch.</desc>
    <g id="LED_Series_Circuit" stroke="none" stroke-width="1" fill="none" fill-rule="evenodd">
        <rect id="Rectangle" stroke="#3D3530" stroke-width="2" fill="#EEEEEE" x="1" y="1" width="898" height="428"></rect>
        <path d="M577.816,284.624 L588.832,284.624 L588.832,287 L575.44,287 L575.44,262.808 L577.816,262.808 L577.816,284.624 Z M608.66,265.184 L595.16,265.184 L595.16,273.5 L602.756,273.5 L602.756,275.876 L595.16,275.876 L595.16,284.624 L608.66,284.624 L608.66,287 L592.784,287 L592.784,262.808 L608.66,262.808 L608.66,265.184 Z M614.412,287 L614.412,262.808 L619.884,262.808 C623.86802,262.808 627.035988,263.959988 629.388,266.264 C631.740012,268.568012 632.916,271.447983 632.916,274.904 C632.916,278.336017 631.734012,281.209988 629.37,283.526 C627.005988,285.842012 623.84402,287 619.884,287 L614.412,287 Z M616.788,284.732 L619.884,284.732 C623.052016,284.732 625.583991,283.802009 627.48,281.942 C629.376009,280.081991 630.324,277.736014 630.324,274.904 C630.324,272.071986 629.376009,269.726009 627.48,267.866 C625.583991,266.005991 623.052016,265.076 619.884,265.076 L616.788,265.076 L616.788,284.732 Z M656.228,287.288 C654.619992,287.288 653.066008,286.880004 651.566,286.064 C650.065992,285.247996 648.932004,284.432004 648.164,283.616 L649.82,281.996 C650.420003,282.644003 651.307994,283.309997 652.484,283.994 C653.660006,284.678003 654.907993,285.02 656.228,285.02 C657.836008,285.02 659.101995,284.666004 660.026,283.958 C660.950005,283.249996 661.412,282.284006 661.412,281.06 C661.412,280.027995 660.962005,279.128004 660.062,278.36 C659.161995,277.591996 658.070006,276.944003 656.786,276.416 C655.501994,275.887997 654.212006,275.330003 652.916,274.742 C651.619994,274.153997 650.522004,273.356005 649.622,272.348 C648.721996,271.339995 648.272,270.152007 648.272,268.784 C648.272,267.031991 648.931993,265.556006 650.252,264.356 C651.572007,263.155994 653.419988,262.556 655.796,262.556 C657.404008,262.556 658.957993,262.963996 660.458,263.78 C661.958008,264.596004 663.091996,265.411996 663.86,266.228 L662.204,267.848 C661.579997,267.175997 660.680006,266.504003 659.504,265.832 C658.327994,265.159997 657.092006,264.824 655.796,264.824 C654.187992,264.824 652.922005,265.177996 651.998,265.886 C651.073995,266.594004 650.612,267.559994 650.612,268.784 C650.612,269.816005 651.061995,270.721996 651.962,271.502 C652.862005,272.282004 653.953994,272.935997 655.238,273.464 C656.522006,273.992003 657.811994,274.543997 659.108,275.12 C660.404006,275.696003 661.501996,276.487995 662.402,277.496 C663.302005,278.504005 663.752,279.691993 663.752,281.06 C663.752,282.812009 663.092007,284.287994 661.772,285.488 C660.451993,286.688006 658.604012,287.288 656.228,287.288 Z M676.632,284.912 C678.240008,284.912 679.679994,284.456005 680.952,283.544 C682.224006,282.631995 683.087998,281.564006 683.544,280.34 L685.56,281.06 C685.007997,282.572008 683.934008,283.963994 682.338,285.236 C680.741992,286.508006 678.840011,287.132 676.632,287.108 C674.61599,287.108 672.774008,286.484006 671.106,285.236 C669.437992,283.987994 668.304003,282.39201 667.704,280.448 C667.463999,279.655996 667.344,278.792005 667.344,277.856 C667.344,275.263987 668.243991,273.068009 670.044,271.268 C671.844009,269.467991 674.039987,268.556 676.632,268.532 C678.984012,268.556 681.035991,269.347992 682.788,270.908 C684.540009,272.468008 685.547999,274.399988 685.812,276.704 C685.836,276.824001 685.848,276.979999 685.848,277.172 L670.116,280.016 C670.524002,281.456007 671.339994,282.637995 672.564,283.562 C673.788006,284.486005 675.143993,284.936 676.632,284.912 Z M676.416,270.728 C674.615991,270.752 673.074006,271.399994 671.79,272.672 C670.505994,273.944006 669.816,275.467991 669.72,277.244 C669.72,277.316 669.726,277.441999 669.738,277.622 C669.75,277.802001 669.756,277.951999 669.756,278.072 L683.148,275.66 C682.691998,274.195993 681.840006,273.002005 680.592,272.078 C679.343994,271.153995 677.952008,270.704 676.416,270.728 Z M698.368,268.712 C699.640006,268.712 700.803995,269.023997 701.86,269.648 L701.032,272.024 C700.023995,271.279996 699.004005,270.908 697.972,270.908 C696.459992,270.908 695.188005,271.441995 694.156,272.51 C693.123995,273.578005 692.608,274.891992 692.608,276.452 L692.608,287 L690.232,287 L690.232,269 L692.608,269 L692.608,271.664 C694.072007,269.69599 695.991988,268.712 698.368,268.712 Z M708.512,263.6 C708.247999,263.888001 707.912002,264.032 707.504,264.032 C707.095998,264.032 706.754001,263.888001 706.478,263.6 C706.201999,263.311999 706.064,262.976002 706.064,262.592 C706.064,262.207998 706.201999,261.872001 706.478,261.584 C706.754001,261.295999 707.095998,261.152 707.504,261.152 C707.912002,261.152 708.253999,261.295999 708.53,261.584 C708.806001,261.872001 708.944,262.207998 708.944,262.592 C708.944,262.976002 708.800001,263.311999 708.512,263.6 Z M706.316,287 L706.316,269 L708.692,269 L708.692,287 L706.316,287 Z M723.192,284.912 C724.800008,284.912 726.239994,284.456005 727.512,283.544 C728.784006,282.631995 729.647998,281.564006 730.104,280.34 L732.12,281.06 C731.567997,282.572008 730.494008,283.963994 728.898,285.236 C727.301992,286.508006 725.400011,287.132 723.192,287.108 C721.17599,287.108 719.334008,286.484006 717.666,285.236 C715.997992,283.987994 714.864003,282.39201 714.264,280.448 C714.023999,279.655996 713.904,278.792005 713.904,277.856 C713.904,275.263987 714.803991,273.068009 716.604,271.268 C718.404009,269.467991 720.599987,268.556 723.192,268.532 C725.544012,268.556 727.595991,269.347992 729.348,270.908 C731.100009,272.468008 732.107999,274.399988 732.372,276.704 C732.396,276.824001 732.408,276.979999 732.408,277.172 L716.676,280.016 C717.084002,281.456007 717.899994,282.637995 719.124,283.562 C720.348006,284.486005 721.703993,284.936 723.192,284.912 Z M722.976,270.728 C721.175991,270.752 719.634006,271.399994 718.35,272.672 C717.065994,273.944006 716.376,275.467991 716.28,277.244 C716.28,277.316 716.286,277.441999 716.298,277.622 C716.31,277.802001 716.316,277.951999 716.316,278.072 L729.708,275.66 C729.251998,274.195993 728.400006,273.002005 727.152,272.078 C725.903994,271.153995 724.512008,270.704 722.976,270.728 Z M743.092,287.288 C742.275996,287.288 741.484004,287.186001 740.716,286.982 C739.947996,286.777999 739.306003,286.538001 738.79,286.262 C738.273997,285.985999 737.812002,285.704001 737.404,285.416 C736.995998,285.127999 736.696001,284.888001 736.504,284.696 L736.216,284.372 L737.908,282.932 C738.076001,283.100001 738.309999,283.303999 738.61,283.544 C738.910002,283.784001 739.515995,284.107998 740.428,284.516 C741.340005,284.924002 742.239996,285.128 743.128,285.128 C744.448007,285.128 745.503996,284.876003 746.296,284.372 C747.088004,283.867997 747.484,283.160005 747.484,282.248 C747.484,281.599997 747.088004,281.042002 746.296,280.574 C745.503996,280.105998 744.544006,279.704002 743.416,279.368 C742.287994,279.031998 741.154006,278.660002 740.014,278.252 C738.873994,277.843998 737.908004,277.268004 737.116,276.524 C736.323996,275.779996 735.928,274.868005 735.928,273.788 C735.928,272.299993 736.485994,271.082005 737.602,270.134 C738.718006,269.185995 740.367989,268.712 742.552,268.712 C743.848006,268.712 745.071994,268.951998 746.224,269.432 C747.376006,269.912002 748.203997,270.391998 748.708,270.872 L749.464,271.592 L747.772,273.068 C747.603999,272.899999 747.370002,272.696001 747.07,272.456 C746.769999,272.215999 746.164005,271.892002 745.252,271.484 C744.339995,271.075998 743.428005,270.872 742.516,270.872 C741.219994,270.872 740.170004,271.123997 739.366,271.628 C738.561996,272.132003 738.16,272.839995 738.16,273.752 C738.16,274.400003 738.555996,274.957998 739.348,275.426 C740.140004,275.894002 741.099994,276.295998 742.228,276.632 C743.356006,276.968002 744.489994,277.333998 745.63,277.73 C746.770006,278.126002 747.735996,278.701996 748.528,279.458 C749.320004,280.214004 749.716,281.131995 749.716,282.212 C749.716,283.724008 749.164006,284.947995 748.06,285.884 C746.955994,286.820005 745.300011,287.288 743.092,287.288 Z M776.304,287.288 C772.751982,287.288 769.920011,286.106012 767.808,283.742 C765.695989,281.377988 764.64,278.444018 764.64,274.94 C764.64,271.411982 765.695989,268.466012 767.808,266.102 C769.920011,263.737988 772.751982,262.556 776.304,262.556 C778.656012,262.556 780.701991,263.095995 782.442,264.176 C784.182009,265.256005 785.531995,266.731991 786.492,268.604 L784.26,269.9 C783.491996,268.339992 782.418007,267.104005 781.038,266.192 C779.657993,265.279995 778.080009,264.824 776.304,264.824 C773.567986,264.824 771.378008,265.77799 769.734,267.686 C768.089992,269.59401 767.268,272.011985 767.268,274.94 C767.268,277.844015 768.089992,280.25599 769.734,282.176 C771.378008,284.09601 773.567986,285.056 776.304,285.056 C778.104009,285.056 779.693993,284.594005 781.074,283.67 C782.454007,282.745995 783.515996,281.504008 784.26,279.944 L786.492,281.276 C785.531995,283.148009 784.182009,284.617995 782.442,285.686 C780.701991,286.754005 778.656012,287.288 776.304,287.288 Z M794.26,263.6 C793.995999,263.888001 793.660002,264.032 793.252,264.032 C792.843998,264.032 792.502001,263.888001 792.226,263.6 C791.949999,263.311999 791.812,262.976002 791.812,262.592 C791.812,262.207998 791.949999,261.872001 792.226,261.584 C792.502001,261.295999 792.843998,261.152 793.252,261.152 C793.660002,261.152 794.001999,261.295999 794.278,261.584 C794.554001,261.872001 794.692,262.207998 794.692,262.592 C794.692,262.976002 794.548001,263.311999 794.26,263.6 Z M792.064,287 L792.064,269 L794.44,269 L794.44,287 L792.064,287 Z M809.084,268.712 C810.356006,268.712 811.519995,269.023997 812.576,269.648 L811.748,272.024 C810.739995,271.279996 809.720005,270.908 808.688,270.908 C807.175992,270.908 805.904005,271.441995 804.872,272.51 C803.839995,273.578005 803.324,274.891992 803.324,276.452 L803.324,287 L800.948,287 L800.948,269 L803.324,269 L803.324,271.664 C804.788007,269.69599 806.707988,268.712 809.084,268.712 Z M823.548,287.288 C820.979987,287.288 818.790009,286.382009 816.978,284.57 C815.165991,282.757991 814.26,280.568013 814.26,278 C814.26,275.431987 815.165991,273.242009 816.978,271.43 C818.790009,269.617991 820.979987,268.712 823.548,268.712 C825.180008,268.712 826.697993,269.113996 828.102,269.918 C829.506007,270.722004 830.615996,271.795993 831.432,273.14 L829.272,274.184 C828.623997,273.199995 827.796005,272.420003 826.788,271.844 C825.779995,271.267997 824.700006,270.98 823.548,270.98 C821.60399,270.98 819.966007,271.657993 818.634,273.014 C817.301993,274.370007 816.636,276.03199 816.636,278 C816.636,279.96801 817.301993,281.629993 818.634,282.986 C819.966007,284.342007 821.60399,285.02 823.548,285.02 C824.700006,285.02 825.779995,284.732003 826.788,284.156 C827.796005,283.579997 828.623997,282.800005 829.272,281.816 L831.432,282.86 C830.615996,284.204007 829.506007,285.277996 828.102,286.082 C826.697993,286.886004 825.180008,287.288 823.548,287.288 Z M849.496,269 L851.872,269 L851.872,287 L849.496,287 L849.496,284.336 C848.031993,286.30401 846.112012,287.288 843.736,287.288 C841.64799,287.288 839.896007,286.550007 838.48,285.074 C837.063993,283.597993 836.356,281.780011 836.356,279.62 L836.356,269 L838.804,269 L838.804,279.548 C838.804,281.084008 839.319995,282.385995 840.352,283.454 C841.384005,284.522005 842.643993,285.056 844.132,285.056 C845.644008,285.056 846.915995,284.522005 847.948,283.454 C848.980005,282.385995 849.496,281.084008 849.496,279.548 L849.496,269 Z M860.576,263.6 C860.311999,263.888001 859.976002,264.032 859.568,264.032 C859.159998,264.032 858.818001,263.888001 858.542,263.6 C858.265999,263.311999 858.128,262.976002 858.128,262.592 C858.128,262.207998 858.265999,261.872001 858.542,261.584 C858.818001,261.295999 859.159998,261.152 859.568,261.152 C859.976002,261.152 860.317999,261.295999 860.594,261.584 C860.870001,261.872001 861.008,262.207998 861.008,262.592 C861.008,262.976002 860.864001,263.311999 860.576,263.6 Z M858.38,287 L858.38,269 L860.756,269 L860.756,287 L858.38,287 Z M876.48,282.968 L877.668,284.804 C877.523999,284.996001 877.332001,285.223999 877.092,285.488 C876.851999,285.752001 876.312004,286.117998 875.472,286.586 C874.631996,287.054002 873.768004,287.288 872.88,287.288 C871.367992,287.288 870.102005,286.838005 869.082,285.938 C868.061995,285.037996 867.552,283.736009 867.552,282.032 L867.552,271.16 L864.672,271.16 L864.672,268.964 L867.552,268.964 L867.552,263.276 L869.928,262.988 L869.928,268.964 L875.364,268.964 L875.364,271.16 L869.928,271.16 L869.928,281.492 C869.928,282.596006 870.269997,283.471997 870.954,284.12 C871.638003,284.768003 872.423996,285.092 873.312,285.092 C873.864003,285.092 874.403997,284.924002 874.932,284.588 C875.460003,284.251998 875.849999,283.922002 876.102,283.598 C876.354001,283.273998 876.48,283.064 876.48,282.968 Z" id="LED-Series-Circuit-Copy" fill="#23ABE3"></path>
        <rect id="Rectangle-Copy" stroke="#3D3530" stroke-width="2" x="1" y="247" width="898" height="62"></rect>
        <g id="Circuit" transform="translate(190.000000, 28.000000)">
            <polyline id="Resistor" stroke="#3D3530" stroke-width="3" stroke-linejoin="round" points="125 42 130 42 135 29 145 55 155 29 165 55 175 29 185 55 190 42 195 42"></polyline>
            <g id="LED" transform="translate(195.000000, 0.000000)">
                <polygon id="Path-2" fill="#3D3530" points="24.5 29 44 42 24.5 55"></polygon>
                <path d="M44,42 L70,42" id="Path-2-Copy" stroke="#3D3530" stroke-width="3"></path>
                <path d="M44,29 L44,55" id="Path-4-Copy" stroke="#3D3530" stroke-width="3"></path>
                <path d="M0,42 L24.5,42" id="Path-3" stroke="#3D3530" stroke-width="3"></path>
                <g id="Arrow" transform="translate(43.647114, 19.941343) rotate(-150.000000) translate(-43.647114, -19.941343) translate(39.147114, 6.441343)">
                    <polygon id="Triangle" fill="#3D3530" transform="translate(4.633975, 19.633975) scale(1, -1) translate(-4.633975, -19.633975) " points="4.6339746 13.1339746 8.6339746 26.1339746 0.633974596 26.1339746"></polygon>
                    <path d="M4.5,0 L4.5,20" id="Path-3" stroke="#3D3530" stroke-width="3"></path>
                </g>
                <g id="Arrow" transform="translate(33.647114, 13.941343) rotate(-150.000000) translate(-33.647114, -13.941343) translate(29.147114, 0.441343)">
                    <polygon id="Triangle" fill="#3D3530" transform="translate(4.633975, 19.633975) scale(1, -1) translate(-4.633975, -19.633975) " points="4.6339746 13.1339746 8.6339746 26.1339746 0.633974596 26.1339746"></polygon>
                    <path d="M4.5,1.13686838e-13 L4.5,20" id="Path-3" stroke="#3D3530" stroke-width="3"></path>
                </g>
            </g>
            <g id="LED-Copy" transform="translate(265.000000, 0.000000)">
                <polygon id="Path-2" fill="#3D3530" points="24.5 29 44 42 24.5 55"></polygon>
                <path d="M44,42 L70,42" id="Path-2-Copy" stroke="#3D3530" stroke-width="3"></path>
                <path d="M44,29 L44,55" id="Path-4-Copy" stroke="#3D3530" stroke-width="3"></path>
                <path d="M0,42 L24.5,42" id="Path-3" stroke="#3D3530" stroke-width="3"></path>
                <g id="Arrow" transform="translate(43.647114, 19.941343) rotate(-150.000000) translate(-43.647114, -19.941343) translate(39.147114, 6.441343)">
                    <polygon id="Triangle" fill="#3D3530" transform="translate(4.633975, 19.633975) scale(1, -1) translate(-4.633975, -19.633975) " points="4.6339746 13.1339746 8.6339746 26.1339746 0.633974596 26.1339746"></polygon>
                    <path d="M4.5,0 L4.5,20" id="Path-3" stroke="#3D3530" stroke-width="3"></path>
                </g>
                <g id="Arrow" transform="translate(33.647114, 13.941343) rotate(-150.000000) translate(-33.647114, -13.941343) translate(29.147114, 0.441343)">
                    <polygon id="Triangle" fill="#3D3530" transform="translate(4.633975, 19.633975) scale(1, -1) translate(-4.633975, -19.633975) " points="4.6339746 13.1339746 8.6339746 26.1339746 0.633974596 26.1339746"></polygon>
                    <path d="M4.5,1.13686838e-13 L4.5,20" id="Path-3" stroke="#3D3530" stroke-width="3"></path>
                </g>
            </g>
            <g id="LED-Copy-2" transform="translate(335.000000, 0.000000)">
                <polygon id="Path-2" fill="#3D3530" points="24.5 29 44 42 24.5 55"></polygon>
                <path d="M44,42 L70,42" id="Path-2-Copy" stroke="#3D3530" stroke-width="3"></path>
                <path d="M44,29 L44,55" id="Path-4-Copy" stroke="#3D3530" stroke-width="3"></path>
                <path d="M0,42 L24.5,42" id="Path-3" stroke="#3D3530" stroke-width="3"></path>
                <g id="Arrow" transform="translate(43.647114, 19.941343) rotate(-150.000000) translate(-43.647114, -19.941343) translate(39.147114, 6.441343)">
                    <polygon id="Triangle" fill="#3D3530" transform="translate(4.633975, 19.633975) scale(1, -1) translate(-4.633975, -19.633975) " points="4.6339746 13.1339746 8.6339746 26.1339746 0.633974596 26.1339746"></polygon>
                    <path d="M4.5,0 L4.5,20" id="Path-3" stroke="#3D3530" stroke-width="3"></path>
                </g>
                <g id="Arrow" transform="translate(33.647114, 13.941343) rotate(-150.000000) translate(-33.647114, -13.941343) translate(29.147114, 0.441343)">
                    <polygon id="Triangle" fill="#3D3530" transform="translate(4.633975, 19.633975) scale(1, -1) translate(-4.633975, -19.633975) " points="4.6339746 13.1339746 8.6339746 26.1339746 0.633974596 26.1339746"></polygon>
                    <path d="M4.5,1.13686838e-13 L4.5,20" id="Path-3" stroke="#3D3530" stroke-width="3"></path>
                </g>
            </g>
            <g id="Power" transform="translate(0.000000, 72.000000)"></g>
            <g id="DC_Power" transform="translate(40.000000, 72.000000)">
                <circle id="Oval" stroke="#3D3530" stroke-width="3" cx="40" cy="40" r="40"></circle>
                <g id="+" transform="translate(36.000000, 11.000000)" stroke="#3D3530" stroke-width="2">
                    <path d="M4,4 L0,4 L4,4 L4,8 L4,4 Z M4,4 L8,4 L4,4 L4,0 L4,4 Z" id="Combined-Shape"></path>
                </g>
                <g id="-" transform="translate(36.000000, 66.000000)" stroke="#3D3530" stroke-width="2">
                    <path d="M0,1 L8,1" id="Path"></path>
                </g>
                <path d="M102.196,33.104 C101.251995,33.104 100.640001,33.2199988 100.36,33.452 C100.079999,33.6840012 99.740002,34.2639954 99.34,35.192 L94.06,47.408 L93.748,47.408 L88.444,35.192 C88.043998,34.2639954 87.7040014,33.6840012 87.424,33.452 C87.1439986,33.2199988 86.5320047,33.104 85.588,33.104 L85.588,32.6 L92.236,32.6 L92.236,33.104 C91.243995,33.104 90.6080014,33.2439986 90.328,33.524 C90.0479986,33.8040014 90.0599985,34.2719967 90.364,34.928 L94.444,44.264 L98.476,34.928 C98.7800015,34.2719967 98.7920014,33.8040014 98.512,33.524 C98.2319986,33.2439986 97.596005,33.104 96.604,33.104 L96.604,32.6 L102.196,32.6 L102.196,33.104 Z M105.172,55.28 C104.803998,55.5840015 104.572,55.9599978 104.476,56.408 L103.996,56.408 L103.996,51.128 L104.5,51.128 C104.5,51.1920003 104.504,51.2759995 104.512,51.38 C104.52,51.4840005 104.552,51.6839985 104.608,51.98 C104.664,52.2760015 104.743999,52.5599986 104.848,52.832 C104.952001,53.1040014 105.115999,53.4079983 105.34,53.744 C105.564001,54.0800017 105.823999,54.3679988 106.12,54.608 C106.416001,54.8480012 106.807998,55.0479992 107.296,55.208 C107.784002,55.3680008 108.323997,55.448 108.916,55.448 C109.780004,55.448 110.495997,55.2000025 111.064,54.704 C111.632003,54.2079975 111.916,53.5760038 111.916,52.808 C111.916,51.8319951 110.996009,50.8640048 109.156,49.904 L106.852,48.728 C106.099996,48.327998 105.468003,47.7840034 104.956,47.096 C104.443997,46.4079966 104.188,45.6320043 104.188,44.768 C104.188,43.759995 104.563996,42.9120034 105.316,42.224 C106.068004,41.5359966 107.019994,41.192 108.172,41.192 C109.228005,41.192 110.203996,41.5199967 111.1,42.176 C111.468002,41.8719985 111.7,41.5040022 111.796,41.072 L112.276,41.072 L112.276,46.352 L111.772,46.352 C111.531999,43.551986 110.308011,42.152 108.1,42.152 C107.427997,42.152 106.872002,42.355998 106.432,42.764 C105.991998,43.172002 105.772,43.679997 105.772,44.288 C105.772,44.880003 105.983998,45.379998 106.408,45.788 C106.832002,46.196002 107.595994,46.6879971 108.7,47.264 L110.98,48.44 C112.660008,49.2880042 113.5,50.5039921 113.5,52.088 C113.5,53.3680064 113.056004,54.407996 112.168,55.208 C111.279996,56.008004 110.196006,56.408 108.916,56.408 C108.371997,56.408 107.852002,56.3280008 107.356,56.168 C106.859998,56.0079992 106.412002,55.828001 106.012,55.628 C105.611998,55.427999 105.332001,55.3120002 105.172,55.28 Z" id="VS-Copy" fill="#524740"></path>
            </g>
            <g id="Wiring" transform="translate(80.000000, 42.000000)" stroke="#3D3530" stroke-width="2">
                <polyline id="Path-13-Copy-4" points="0 30 0 0 45 1.94289029e-16"></polyline>
                <polyline id="Path-13" points="325 0 362 0 362 140 1.13686838e-13 140 1.13686838e-13 110"></polyline>
            </g>
        </g>
    </g>
</svg>