<?xml version="1.0" encoding="UTF-8"?>
<svg width="900px" height="211px" viewBox="0 0 900 211" version="1.1" xmlns="http://www.w3.org/2000/svg" xmlns:xlink="http://www.w3.org/1999/xlink">
    <!-- Generator: Sketch 52.5 (67469) - http://www.bohemiancoding.com/sketch -->
    <title>LED_Circuit_Simplified</title>
    <desc>Created with Sketch.</desc>
    <g id="LED_Circuit_Simplified" stroke="none" stroke-width="1" fill="none" fill-rule="evenodd">
        <rect id="Rectangle" stroke="#3D3530" stroke-width="2" fill="#EEEEEE" x="1" y="1" width="898" height="408"></rect>
        <g id="Circuit" transform="translate(290.000000, 27.000000)">
            <g id="LED" transform="translate(229.500000, 63.000000) rotate(-270.000000) translate(-229.500000, -63.000000) translate(194.500000, 35.500000)">
                <polygon id="Path-2" fill="#3D3530" points="24.5 29 44 42 24.5 55"></polygon>
                <path d="M44,42 L70,42" id="Path-2-Copy" stroke="#3D3530" stroke-width="3"></path>
                <path d="M44,29 L44,55" id="Path-4-Copy" stroke="#3D3530" stroke-width="3"></path>
                <path d="M0,42 L24.5,42" id="Path-3" stroke="#3D3530" stroke-width="3"></path>
                <g id="Arrow" transform="translate(43.647114, 19.941343) rotate(-150.000000) translate(-43.647114, -19.941343) translate(39.147114, 6.441343)">
                    <polygon id="Triangle" fill="#3D3530" transform="translate(4.633975, 19.633975) scale(1, -1) translate(-4.633975, -19.633975) " points="4.6339746 13.1339746 8.6339746 26.1339746 0.633974596 26.1339746"></polygon>
                    <path d="M4.5,0 L4.5,20" id="Path-3" stroke="#3D3530" stroke-width="3"></path>
                </g>
                <g id="Arrow" transform="translate(33.647114, 13.941343) rotate(-150.000000) translate(-33.647114, -13.941343) translate(29.147114, 0.441343)">
                    <polygon id="Triangle" fill="#3D3530" transform="translate(4.633975, 19.633975) scale(1, -1) translate(-4.633975, -19.633975) " points="4.6339746 13.1339746 8.6339746 26.1339746 0.633974596 26.1339746"></polygon>
                    <path d="M4.5,1.13686838e-13 L4.5,20" id="Path-3" stroke="#3D3530" stroke-width="3"></path>
                </g>
            </g>
            <g id="Power" transform="translate(0.000000, 23.000000)"></g>
            <g id="DC_Power" transform="translate(40.000000, 23.000000)">
                <circle id="Oval" stroke="#3D3530" stroke-width="3" cx="40" cy="40" r="40"></circle>
                <g id="+" transform="translate(36.000000, 11.000000)" stroke="#3D3530" stroke-width="2">
                    <path d="M4,4 L0,4 L4,4 L4,8 L4,4 Z M4,4 L8,4 L4,4 L4,0 L4,4 Z" id="Combined-Shape"></path>
                </g>
                <g id="-" transform="translate(36.000000, 66.000000)" stroke="#3D3530" stroke-width="2">
                    <path d="M0,1 L8,1" id="Path"></path>
                </g>
                <path d="M102.196,33.104 C101.251995,33.104 100.640001,33.2199988 100.36,33.452 C100.079999,33.6840012 99.740002,34.2639954 99.34,35.192 L94.06,47.408 L93.748,47.408 L88.444,35.192 C88.043998,34.2639954 87.7040014,33.6840012 87.424,33.452 C87.1439986,33.2199988 86.5320047,33.104 85.588,33.104 L85.588,32.6 L92.236,32.6 L92.236,33.104 C91.243995,33.104 90.6080014,33.2439986 90.328,33.524 C90.0479986,33.8040014 90.0599985,34.2719967 90.364,34.928 L94.444,44.264 L98.476,34.928 C98.7800015,34.2719967 98.7920014,33.8040014 98.512,33.524 C98.2319986,33.2439986 97.596005,33.104 96.604,33.104 L96.604,32.6 L102.196,32.6 L102.196,33.104 Z M105.172,55.28 C104.803998,55.5840015 104.572,55.9599978 104.476,56.408 L103.996,56.408 L103.996,51.128 L104.5,51.128 C104.5,51.1920003 104.504,51.2759995 104.512,51.38 C104.52,51.4840005 104.552,51.6839985 104.608,51.98 C104.664,52.2760015 104.743999,52.5599986 104.848,52.832 C104.952001,53.1040014 105.115999,53.4079983 105.34,53.744 C105.564001,54.0800017 105.823999,54.3679988 106.12,54.608 C106.416001,54.8480012 106.807998,55.0479992 107.296,55.208 C107.784002,55.3680008 108.323997,55.448 108.916,55.448 C109.780004,55.448 110.495997,55.2000025 111.064,54.704 C111.632003,54.2079975 111.916,53.5760038 111.916,52.808 C111.916,51.8319951 110.996009,50.8640048 109.156,49.904 L106.852,48.728 C106.099996,48.327998 105.468003,47.7840034 104.956,47.096 C104.443997,46.4079966 104.188,45.6320043 104.188,44.768 C104.188,43.759995 104.563996,42.9120034 105.316,42.224 C106.068004,41.5359966 107.019994,41.192 108.172,41.192 C109.228005,41.192 110.203996,41.5199967 111.1,42.176 C111.468002,41.8719985 111.7,41.5040022 111.796,41.072 L112.276,41.072 L112.276,46.352 L111.772,46.352 C111.531999,43.551986 110.308011,42.152 108.1,42.152 C107.427997,42.152 106.872002,42.355998 106.432,42.764 C105.991998,43.172002 105.772,43.679997 105.772,44.288 C105.772,44.880003 105.983998,45.379998 106.408,45.788 C106.832002,46.196002 107.595994,46.6879971 108.7,47.264 L110.98,48.44 C112.660008,49.2880042 113.5,50.5039921 113.5,52.088 C113.5,53.3680064 113.056004,54.407996 112.168,55.208 C111.279996,56.008004 110.196006,56.408 108.916,56.408 C108.371997,56.408 107.852002,56.3280008 107.356,56.168 C106.859998,56.0079992 106.412002,55.828001 106.012,55.628 C105.611998,55.427999 105.332001,55.3120002 105.172,55.28 Z" id="VS-Copy" fill="#524740"></path>
            </g>
            <g id="Wiring" transform="translate(80.000000, 0.000000)" stroke="#3D3530">
                <polyline id="Resistor" stroke-width="3" stroke-linejoin="round" points="45 13 50 13 55 0 65 26 75 0 85 26 95 0 105 26 110 13 115 13"></polyline>
                <path d="M135,28 L135,13" id="Path-4" stroke-width="2"></path>
                <path d="M135,112 L135,97" id="Path-4-Copy-6" stroke-width="2"></path>
                <polyline id="Path-14" stroke-width="2" points="45 13 0 13 0 23"></polyline>
                <polyline id="Path-15" stroke-width="2" points="115 13 135 13 135 28"></polyline>
                <polyline id="Path-16" stroke-width="2" points="135 98 135 113 0 113 0 104"></polyline>
            </g>
        </g>
        <rect id="Rectangle-Copy" stroke="#3D3530" stroke-width="2" fill="#F8FAE4" x="1" y="167" width="898" height="43"></rect>
        <path d="M756.266666,193.416 L763.610666,193.416 L763.610666,195 L754.682666,195 L754.682666,178.872 L756.266666,178.872 L756.266666,193.416 Z M776.829333,180.456 L767.829333,180.456 L767.829333,186 L772.893333,186 L772.893333,187.584 L767.829333,187.584 L767.829333,193.416 L776.829333,193.416 L776.829333,195 L766.245333,195 L766.245333,178.872 L776.829333,178.872 L776.829333,180.456 Z M780.664,195 L780.664,178.872 L784.312,178.872 C786.968013,178.872 789.079992,179.639992 790.648,181.176 C792.216008,182.712008 793,184.631988 793,186.936 C793,189.224011 792.212008,191.139992 790.636,192.684 C789.059992,194.228008 786.952013,195 784.312,195 L780.664,195 Z M782.248,193.488 L784.312,193.488 C786.42401,193.488 788.111993,192.868006 789.376,191.628 C790.640006,190.387994 791.272,188.824009 791.272,186.936 C791.272,185.047991 790.640006,183.484006 789.376,182.244 C788.111993,181.003994 786.42401,180.384 784.312,180.384 L782.248,180.384 L782.248,193.488 Z M810.869333,195.192 C808.501321,195.192 806.61334,194.404008 805.205333,192.828 C803.797326,191.251992 803.093333,189.296012 803.093333,186.96 C803.093333,184.607988 803.797326,182.644008 805.205333,181.068 C806.61334,179.491992 808.501321,178.704 810.869333,178.704 C812.437341,178.704 813.801327,179.063996 814.961333,179.784 C816.121339,180.504004 817.02133,181.487994 817.661333,182.736 L816.173333,183.6 C815.661331,182.559995 814.945338,181.736003 814.025333,181.128 C813.105329,180.519997 812.053339,180.216 810.869333,180.216 C809.045324,180.216 807.585339,180.851994 806.489333,182.124 C805.393328,183.396006 804.845333,185.00799 804.845333,186.96 C804.845333,188.89601 805.393328,190.503994 806.489333,191.784 C807.585339,193.064006 809.045324,193.704 810.869333,193.704 C812.069339,193.704 813.129328,193.396003 814.049333,192.78 C814.969338,192.163997 815.677331,191.336005 816.173333,190.296 L817.661333,191.184 C817.02133,192.432006 816.121339,193.411996 814.961333,194.124 C813.801327,194.836004 812.437341,195.192 810.869333,195.192 Z M822.84,179.4 C822.663999,179.592001 822.440001,179.688 822.168,179.688 C821.895998,179.688 821.668001,179.592001 821.484,179.4 C821.299999,179.207999 821.208,178.984001 821.208,178.728 C821.208,178.471999 821.299999,178.248001 821.484,178.056 C821.668001,177.863999 821.895998,177.768 822.168,177.768 C822.440001,177.768 822.667999,177.863999 822.852,178.056 C823.036001,178.248001 823.128,178.471999 823.128,178.728 C823.128,178.984001 823.032001,179.207999 822.84,179.4 Z M821.376,195 L821.376,183 L822.96,183 L822.96,195 L821.376,195 Z M832.722666,182.808 C833.570671,182.808 834.346663,183.015998 835.050667,183.432 L834.498667,185.016 C833.826663,184.519998 833.14667,184.272 832.458666,184.272 C831.450661,184.272 830.60267,184.627996 829.914666,185.34 C829.226663,186.052004 828.882667,186.927995 828.882667,187.968 L828.882667,195 L827.298666,195 L827.298666,183 L828.882667,183 L828.882667,184.776 C829.858671,183.463993 831.138659,182.808 832.722666,182.808 Z M842.365333,195.192 C840.653325,195.192 839.193339,194.588006 837.985333,193.38 C836.777327,192.171994 836.173333,190.712009 836.173333,189 C836.173333,187.287991 836.777327,185.828006 837.985333,184.62 C839.193339,183.411994 840.653325,182.808 842.365333,182.808 C843.453339,182.808 844.465329,183.075997 845.401333,183.612 C846.337338,184.148003 847.07733,184.863996 847.621333,185.76 L846.181333,186.456 C845.749331,185.799997 845.197337,185.280002 844.525333,184.896 C843.85333,184.511998 843.133337,184.32 842.365333,184.32 C841.069327,184.32 839.977338,184.771995 839.089333,185.676 C838.201329,186.580005 837.757333,187.687993 837.757333,189 C837.757333,190.312007 838.201329,191.419995 839.089333,192.324 C839.977338,193.228005 841.069327,193.68 842.365333,193.68 C843.133337,193.68 843.85333,193.488002 844.525333,193.104 C845.197337,192.719998 845.749331,192.200003 846.181333,191.544 L847.621333,192.24 C847.07733,193.136004 846.337338,193.851997 845.401333,194.388 C844.465329,194.924003 843.453339,195.192 842.365333,195.192 Z M859.664,183 L861.248,183 L861.248,195 L859.664,195 L859.664,193.224 C858.687995,194.536007 857.408008,195.192 855.824,195.192 C854.431993,195.192 853.264005,194.700005 852.32,193.716 C851.375995,192.731995 850.904,191.520007 850.904,190.08 L850.904,183 L852.536,183 L852.536,190.032 C852.536,191.056005 852.879996,191.923996 853.568,192.636 C854.256003,193.348004 855.095995,193.704 856.088,193.704 C857.096005,193.704 857.943996,193.348004 858.632,192.636 C859.320003,191.923996 859.664,191.056005 859.664,190.032 L859.664,183 Z M867.050667,179.4 C866.874666,179.592001 866.650668,179.688 866.378667,179.688 C866.106665,179.688 865.878668,179.592001 865.694667,179.4 C865.510666,179.207999 865.418667,178.984001 865.418667,178.728 C865.418667,178.471999 865.510666,178.248001 865.694667,178.056 C865.878668,177.863999 866.106665,177.768 866.378667,177.768 C866.650668,177.768 866.878666,177.863999 867.062667,178.056 C867.246668,178.248001 867.338667,178.471999 867.338667,178.728 C867.338667,178.984001 867.242668,179.207999 867.050667,179.4 Z M865.586667,195 L865.586667,183 L867.170667,183 L867.170667,195 L865.586667,195 Z M877.653333,192.312 L878.445333,193.536 C878.349333,193.664001 878.221334,193.815999 878.061333,193.992 C877.901332,194.168001 877.541336,194.411998 876.981333,194.724 C876.42133,195.036002 875.845336,195.192 875.253333,195.192 C874.245328,195.192 873.401337,194.892003 872.721333,194.292 C872.04133,193.691997 871.701333,192.824006 871.701333,191.688 L871.701333,184.44 L869.781333,184.44 L869.781333,182.976 L871.701333,182.976 L871.701333,179.184 L873.285333,178.992 L873.285333,182.976 L876.909333,182.976 L876.909333,184.44 L873.285333,184.44 L873.285333,191.328 C873.285333,192.064004 873.513331,192.647998 873.969333,193.08 C874.425336,193.512002 874.94933,193.728 875.541333,193.728 C875.909335,193.728 876.269332,193.616001 876.621333,193.392 C876.973335,193.167999 877.233332,192.948001 877.401333,192.732 C877.569334,192.515999 877.653333,192.376 877.653333,192.312 Z" id="LED-Circuit-Copy" fill="#23ABE3"></path>
    </g>
</svg>