<?xml version="1.0" encoding="UTF-8"?>
<svg width="900px" height="380px" viewBox="0 0 900 380" version="1.1" xmlns="http://www.w3.org/2000/svg" xmlns:xlink="http://www.w3.org/1999/xlink">
    <!-- Generator: Sketch 52.5 (67469) - http://www.bohemiancoding.com/sketch -->
    <title>Logical_AND_OR_Gates</title>
    <desc>Created with Sketch.</desc>
    <g id="Logical_AND_OR_Gates" stroke="none" stroke-width="1" fill="none" fill-rule="evenodd">
        <rect id="Rectangle" stroke="#3D3530" stroke-width="2" fill="#EEEEEE" x="1" y="1" width="898" height="402"></rect>
        <rect id="Rectangle-Copy" stroke="#3D3530" stroke-width="2" x="1" y="317" width="449" height="62"></rect>
        <rect id="Rectangle-Copy-3" stroke="#3D3530" stroke-width="2" x="450" y="317" width="449" height="62"></rect>
        <rect id="Rectangle-Copy-4" stroke="#3D3530" stroke-width="2" x="450" y="1" width="449" height="378"></rect>
        <g id="AND_Gate" transform="translate(472.000000, 16.000000)">
            <polyline id="Resistor" stroke="#3D3530" stroke-width="3" stroke-linejoin="round" transform="translate(216.000000, 114.000000) rotate(90.000000) translate(-216.000000, -114.000000) " points="181 114 186 114 191 101 201 127 211 101 221 127 231 101 241 127 246 114 251 114"></polyline>
            <g id="Schottky_Diode" transform="translate(150.000000, 175.000000) rotate(-180.000000) translate(-150.000000, -175.000000) translate(115.000000, 162.000000)">
                <polygon id="Path-2" fill="#3D3530" points="24.5 0 44 13 24.5 26"></polygon>
                <path d="M44,13 L70,13" id="Path-2-Copy" stroke="#3D3530" stroke-width="3"></path>
                <path d="M0,13 L24.5,13" id="Path-3" stroke="#3D3530" stroke-width="3"></path>
                <polyline id="Path" stroke="#3D3530" stroke-width="3" stroke-linejoin="round" points="39 5 39 1 44 1 44 25 49 25 49 21"></polyline>
            </g>
            <g id="Schottky_Diode-Copy" transform="translate(150.000000, 239.000000) rotate(-180.000000) translate(-150.000000, -239.000000) translate(115.000000, 226.000000)">
                <polygon id="Path-2" fill="#3D3530" points="24.5 0 44 13 24.5 26"></polygon>
                <path d="M44,13 L70,13" id="Path-2-Copy" stroke="#3D3530" stroke-width="3"></path>
                <path d="M0,13 L24.5,13" id="Path-3" stroke="#3D3530" stroke-width="3"></path>
                <polyline id="Path" stroke="#3D3530" stroke-width="3" stroke-linejoin="round" points="39 5 39 1 44 1 44 25 49 25 49 21"></polyline>
            </g>
            <g id="DC_Rail" transform="translate(216.000000, 53.500000) rotate(-90.000000) translate(-216.000000, -53.500000) translate(190.500000, 38.500000)" stroke="#3D3530" stroke-width="3">
                <path d="M-5.32907052e-15,15 L50,15" id="Path-2-Copy"></path>
                <path d="M50,-4.26325641e-14 L50,30" id="Path-4"></path>
            </g>
            <g id="Labels">
                <rect id="Rectangle" stroke="#3D3530" stroke-width="2" fill="#F8FAE4" x="278" y="193" width="113" height="28" rx="5"></rect>
                <rect id="Rectangle-Copy" stroke="#3D3530" stroke-width="2" fill="#F8FAE4" x="1" y="226" width="113" height="28" rx="5"></rect>
                <rect id="Rectangle-Copy-2" stroke="#3D3530" stroke-width="2" fill="#F8FAE4" x="1" y="160" width="113" height="28" rx="5"></rect>
                <path d="M307.408,203.896 C308.368005,204.744004 308.848,205.775994 308.848,206.992 C308.848,208.208006 308.372005,209.247996 307.42,210.112 C306.467995,210.976004 305.328007,211.408 304,211.408 C302.671993,211.408 301.532005,210.976004 300.58,210.112 C299.627995,209.247996 299.152,208.208006 299.152,206.992 C299.152,205.775994 299.627995,204.740004 300.58,203.884 C301.532005,203.027996 302.671993,202.6 304,202.6 C305.328007,202.6 306.463995,203.031996 307.408,203.896 Z M306.16,209.512 C306.656002,208.855997 306.904,208.016005 306.904,206.992 C306.904,205.967995 306.656002,205.132003 306.16,204.484 C305.663998,203.835997 304.944005,203.512 304,203.512 C303.055995,203.512 302.336002,203.839997 301.84,204.496 C301.343998,205.152003 301.096,205.983995 301.096,206.992 C301.096,208.000005 301.343998,208.831997 301.84,209.488 C302.336002,210.144003 303.055995,210.472 304,210.472 C304.944005,210.472 305.663998,210.152003 306.16,209.512 Z M323.272,210.808 L320.056,211.408 C319.927999,211.151999 319.800001,210.640004 319.672,209.872 C318.679995,210.896005 317.632006,211.408 316.528,211.408 C314.54399,211.408 313.552,210.208012 313.552,207.808 L313.552,206.296 C313.552,205.095994 313.436001,204.328002 313.204,203.992 C312.971999,203.655998 312.456004,203.488 311.656,203.488 L311.656,203.008 L315.256,203.008 L315.256,207.688 C315.256,209.400009 315.863994,210.256 317.08,210.256 C317.624003,210.256 318.191997,210.028002 318.784,209.572 C319.376003,209.115998 319.672,208.552003 319.672,207.88 L319.672,206.296 C319.672,205.095994 319.556001,204.328002 319.324,203.992 C319.091999,203.655998 318.568004,203.488 317.752,203.488 L317.752,203.008 L321.352,203.008 L321.352,207.496 C321.352,208.696006 321.467999,209.463998 321.7,209.8 C321.932001,210.136002 322.455996,210.304 323.272,210.304 L323.272,210.808 Z M326.848,203.848 L325.6,203.848 L325.6,203.272 C326.288003,203.127999 326.791998,202.816002 327.112,202.336 C327.432002,201.855998 327.64,201.200004 327.736,200.368 L328.552,200.368 L328.552,203.008 L330.64,203.008 L330.64,203.848 L328.552,203.848 L328.552,208.648 C328.552,209.800006 328.911996,210.376 329.632,210.376 C330.096002,210.376 330.615997,210.104003 331.192,209.56 L331.6,209.968 C331.263998,210.368002 330.860002,210.695999 330.388,210.952 C329.915998,211.208001 329.480002,211.336 329.08,211.336 C328.391997,211.336 327.848002,211.112002 327.448,210.664 C327.047998,210.215998 326.848,209.544004 326.848,208.648 L326.848,203.848 Z M341.728,209.488 C342.192002,208.831997 342.424,208.000005 342.424,206.992 C342.424,205.983995 342.192002,205.160003 341.728,204.52 C341.263998,203.879997 340.592004,203.56 339.712,203.56 C339.167997,203.56 338.684002,203.727998 338.26,204.064 C337.835998,204.400002 337.504001,204.855997 337.264,205.432 L337.264,208.528 C337.504001,209.120003 337.835998,209.587998 338.26,209.932 C338.684002,210.276002 339.167997,210.448 339.712,210.448 C340.592004,210.448 341.263998,210.128003 341.728,209.488 Z M337.264,213.712 C337.264,214.896006 337.379999,215.655998 337.612,215.992 C337.844001,216.328002 338.359996,216.496 339.16,216.496 L339.16,217 L333.664,217 L333.664,216.496 C334.464004,216.496 334.979999,216.332002 335.212,216.004 C335.444001,215.675998 335.56,214.912006 335.56,213.712 L335.56,206.488 C335.56,205.287994 335.444001,204.524002 335.212,204.196 C334.979999,203.867998 334.464004,203.704 333.664,203.704 L333.664,203.2 L336.88,202.6 C336.976,202.776001 337.095999,203.263996 337.24,204.064 C338.056004,203.087995 339.047994,202.6 340.216,202.6 C341.352006,202.6 342.327996,203.027996 343.144,203.884 C343.960004,204.740004 344.368,205.775994 344.368,206.992 C344.368,208.208006 343.960004,209.247996 343.144,210.112 C342.327996,210.976004 341.352006,211.408 340.216,211.408 C339.031994,211.408 338.048004,210.928005 337.264,209.968 L337.264,213.712 Z M358.792,210.808 L355.576,211.408 C355.447999,211.151999 355.320001,210.640004 355.192,209.872 C354.199995,210.896005 353.152006,211.408 352.048,211.408 C350.06399,211.408 349.072,210.208012 349.072,207.808 L349.072,206.296 C349.072,205.095994 348.956001,204.328002 348.724,203.992 C348.491999,203.655998 347.976004,203.488 347.176,203.488 L347.176,203.008 L350.776,203.008 L350.776,207.688 C350.776,209.400009 351.383994,210.256 352.6,210.256 C353.144003,210.256 353.711997,210.028002 354.304,209.572 C354.896003,209.115998 355.192,208.552003 355.192,207.88 L355.192,206.296 C355.192,205.095994 355.076001,204.328002 354.844,203.992 C354.611999,203.655998 354.088004,203.488 353.272,203.488 L353.272,203.008 L356.872,203.008 L356.872,207.496 C356.872,208.696006 356.987999,209.463998 357.22,209.8 C357.452001,210.136002 357.975996,210.304 358.792,210.304 L358.792,210.808 Z M362.368,203.848 L361.12,203.848 L361.12,203.272 C361.808003,203.127999 362.311998,202.816002 362.632,202.336 C362.952002,201.855998 363.16,201.200004 363.256,200.368 L364.072,200.368 L364.072,203.008 L366.16,203.008 L366.16,203.848 L364.072,203.848 L364.072,208.648 C364.072,209.800006 364.431996,210.376 365.152,210.376 C365.616002,210.376 366.135997,210.104003 366.712,209.56 L367.12,209.968 C366.783998,210.368002 366.380002,210.695999 365.908,210.952 C365.435998,211.208001 365.000002,211.336 364.6,211.336 C363.911997,211.336 363.368002,211.112002 362.968,210.664 C362.567998,210.215998 362.368,209.544004 362.368,208.648 L362.368,203.848 Z" id="output-copy-2" fill="#1A80AA"></path>
                <path d="M29.408,179 L23.912,179 L23.912,178.496 C24.712004,178.496 25.2279988,178.328002 25.46,177.992 C25.6920012,177.655998 25.808,176.888006 25.808,175.688 L25.808,174.488 C25.808,173.303994 25.6920012,172.544002 25.46,172.208 C25.2279988,171.871998 24.712004,171.704 23.912,171.704 L23.912,171.2 L27.512,170.6 L27.512,175.688 C27.512,176.888006 27.6279988,177.655998 27.86,177.992 C28.0920012,178.328002 28.607996,178.496 29.408,178.496 L29.408,179 Z M27.704,167.168 C27.704,167.472002 27.600001,167.727999 27.392,167.936 C27.183999,168.144001 26.9360014,168.248 26.648,168.248 C26.3599986,168.248 26.112001,168.144001 25.904,167.936 C25.695999,167.727999 25.592,167.472002 25.592,167.168 C25.592,166.879999 25.695999,166.632001 25.904,166.424 C26.112001,166.215999 26.3599986,166.112 26.648,166.112 C26.9360014,166.112 27.183999,166.215999 27.392,166.424 C27.600001,166.632001 27.704,166.879999 27.704,167.168 Z M35.576,172.328 C36.4880046,171.175994 37.5999934,170.6 38.912,170.6 C39.9520052,170.6 40.7319974,170.927997 41.252,171.584 C41.7720026,172.240003 42.032,173.103995 42.032,174.176 L42.032,175.688 C42.032,176.888006 42.1479988,177.655998 42.38,177.992 C42.6120012,178.328002 43.127996,178.496 43.928,178.496 L43.928,179 L38.432,179 L38.432,178.496 C39.2160039,178.496 39.7279988,178.324002 39.968,177.98 C40.2080012,177.635998 40.328,176.872006 40.328,175.688 L40.328,174.296 C40.328,172.583991 39.6640066,171.728 38.336,171.728 C37.6479966,171.728 37.0160029,171.967998 36.44,172.448 C35.8639971,172.928002 35.576,173.487997 35.576,174.128 L35.576,175.688 C35.576,176.920006 35.671999,177.695998 35.864,178.016 C36.056001,178.336002 36.5199963,178.496 37.256,178.496 L37.256,179 L31.976,179 L31.976,178.496 C32.776004,178.496 33.2919988,178.328002 33.524,177.992 C33.7560012,177.655998 33.872,176.888006 33.872,175.688 L33.872,174.488 C33.872,173.303994 33.7560012,172.544002 33.524,172.208 C33.2919988,171.871998 32.776004,171.704 31.976,171.704 L31.976,171.2 L35.168,170.6 C35.3120007,170.904002 35.4479994,171.479996 35.576,172.328 Z M54.104,177.488 C54.5680023,176.831997 54.8,176.000005 54.8,174.992 C54.8,173.983995 54.5680023,173.160003 54.104,172.52 C53.6399977,171.879997 52.9680044,171.56 52.088,171.56 C51.5439973,171.56 51.0600021,171.727998 50.636,172.064 C50.2119979,172.400002 49.8800012,172.855997 49.64,173.432 L49.64,176.528 C49.8800012,177.120003 50.2119979,177.587998 50.636,177.932 C51.0600021,178.276002 51.5439973,178.448 52.088,178.448 C52.9680044,178.448 53.6399977,178.128003 54.104,177.488 Z M49.64,181.712 C49.64,182.896006 49.7559988,183.655998 49.988,183.992 C50.2200012,184.328002 50.735996,184.496 51.536,184.496 L51.536,185 L46.04,185 L46.04,184.496 C46.840004,184.496 47.3559988,184.332002 47.588,184.004 C47.8200012,183.675998 47.936,182.912006 47.936,181.712 L47.936,174.488 C47.936,173.287994 47.8200012,172.524002 47.588,172.196 C47.3559988,171.867998 46.840004,171.704 46.04,171.704 L46.04,171.2 L49.256,170.6 C49.3520005,170.776001 49.4719993,171.263996 49.616,172.064 C50.4320041,171.087995 51.4239942,170.6 52.592,170.6 C53.7280057,170.6 54.7039959,171.027996 55.52,171.884 C56.3360041,172.740004 56.744,173.775994 56.744,174.992 C56.744,176.208006 56.3360041,177.247996 55.52,178.112 C54.7039959,178.976004 53.7280057,179.408 52.592,179.408 C51.4079941,179.408 50.4240039,178.928005 49.64,177.968 L49.64,181.712 Z M71.168,178.808 L67.952,179.408 C67.8239994,179.151999 67.6960006,178.640004 67.568,177.872 C66.575995,178.896005 65.5280055,179.408 64.424,179.408 C62.4399901,179.408 61.448,178.208012 61.448,175.808 L61.448,174.296 C61.448,173.095994 61.3320012,172.328002 61.1,171.992 C60.8679988,171.655998 60.352004,171.488 59.552,171.488 L59.552,171.008 L63.152,171.008 L63.152,175.688 C63.152,177.400009 63.7599939,178.256 64.976,178.256 C65.5200027,178.256 66.087997,178.028002 66.68,177.572 C67.272003,177.115998 67.568,176.552003 67.568,175.88 L67.568,174.296 C67.568,173.095994 67.4520012,172.328002 67.22,171.992 C66.9879988,171.655998 66.4640041,171.488 65.648,171.488 L65.648,171.008 L69.248,171.008 L69.248,175.496 C69.248,176.696006 69.3639988,177.463998 69.596,177.8 C69.8280012,178.136002 70.3519959,178.304 71.168,178.304 L71.168,178.808 Z M74.744,171.848 L73.496,171.848 L73.496,171.272 C74.1840034,171.127999 74.6879984,170.816002 75.008,170.336 C75.3280016,169.855998 75.5359995,169.200004 75.632,168.368 L76.448,168.368 L76.448,171.008 L78.536,171.008 L78.536,171.848 L76.448,171.848 L76.448,176.648 C76.448,177.800006 76.8079964,178.376 77.528,178.376 C77.9920023,178.376 78.5119971,178.104003 79.088,177.56 L79.496,177.968 C79.1599983,178.368002 78.7560024,178.695999 78.284,178.952 C77.8119976,179.208001 77.376002,179.336 76.976,179.336 C76.2879966,179.336 75.744002,179.112002 75.344,178.664 C74.943998,178.215998 74.744,177.544004 74.744,176.648 L74.744,171.848 Z M97.184,178.52 C96.7199977,179.016002 96.192003,179.264 95.6,179.264 C94.6399952,179.264 94.0960006,178.800005 93.968,177.872 C92.8959946,178.832005 91.8960046,179.312 90.968,179.312 C90.359997,179.312 89.8480021,179.132002 89.432,178.772 C89.0159979,178.411998 88.808,177.920003 88.808,177.296 C88.808,175.615992 90.511983,174.480003 93.92,173.888 C93.92,172.943995 93.816001,172.288002 93.608,171.92 C93.399999,171.551998 92.9680033,171.368 92.312,171.368 C91.9919984,171.368 91.6840015,171.471999 91.388,171.68 C91.0919985,171.888001 90.944,172.167998 90.944,172.52 C90.944,172.760001 90.8640008,172.959999 90.704,173.12 C90.5439992,173.280001 90.3520011,173.36 90.128,173.36 C89.8879988,173.36 89.6880008,173.280001 89.528,173.12 C89.3679992,172.959999 89.288,172.760001 89.288,172.52 C89.288,171.959997 89.5959969,171.500002 90.212,171.14 C90.8280031,170.779998 91.535996,170.6 92.336,170.6 C93.5040058,170.6 94.3439974,170.855997 94.856,171.368 C95.3680026,171.880003 95.624,172.711994 95.624,173.864 L95.624,177.488 C95.624,178.112003 95.8079982,178.424 96.176,178.424 C96.384001,178.424 96.6079988,178.304001 96.848,178.064 L97.184,178.52 Z M93.92,177.08 L93.92,174.632 C91.711989,175.144003 90.608,175.935995 90.608,177.008 C90.608,177.376002 90.7159989,177.671999 90.932,177.896 C91.1480011,178.120001 91.4159984,178.232 91.736,178.232 C92.328003,178.232 93.0559957,177.848004 93.92,177.08 Z" id="input-a-copy-2" fill="#1A80AA"></path>
                <path d="M29.408,245 L23.912,245 L23.912,244.496 C24.712004,244.496 25.2279988,244.328002 25.46,243.992 C25.6920012,243.655998 25.808,242.888006 25.808,241.688 L25.808,240.488 C25.808,239.303994 25.6920012,238.544002 25.46,238.208 C25.2279988,237.871998 24.712004,237.704 23.912,237.704 L23.912,237.2 L27.512,236.6 L27.512,241.688 C27.512,242.888006 27.6279988,243.655998 27.86,243.992 C28.0920012,244.328002 28.607996,244.496 29.408,244.496 L29.408,245 Z M27.704,233.168 C27.704,233.472002 27.600001,233.727999 27.392,233.936 C27.183999,234.144001 26.9360014,234.248 26.648,234.248 C26.3599986,234.248 26.112001,234.144001 25.904,233.936 C25.695999,233.727999 25.592,233.472002 25.592,233.168 C25.592,232.879999 25.695999,232.632001 25.904,232.424 C26.112001,232.215999 26.3599986,232.112 26.648,232.112 C26.9360014,232.112 27.183999,232.215999 27.392,232.424 C27.600001,232.632001 27.704,232.879999 27.704,233.168 Z M35.576,238.328 C36.4880046,237.175994 37.5999934,236.6 38.912,236.6 C39.9520052,236.6 40.7319974,236.927997 41.252,237.584 C41.7720026,238.240003 42.032,239.103995 42.032,240.176 L42.032,241.688 C42.032,242.888006 42.1479988,243.655998 42.38,243.992 C42.6120012,244.328002 43.127996,244.496 43.928,244.496 L43.928,245 L38.432,245 L38.432,244.496 C39.2160039,244.496 39.7279988,244.324002 39.968,243.98 C40.2080012,243.635998 40.328,242.872006 40.328,241.688 L40.328,240.296 C40.328,238.583991 39.6640066,237.728 38.336,237.728 C37.6479966,237.728 37.0160029,237.967998 36.44,238.448 C35.8639971,238.928002 35.576,239.487997 35.576,240.128 L35.576,241.688 C35.576,242.920006 35.671999,243.695998 35.864,244.016 C36.056001,244.336002 36.5199963,244.496 37.256,244.496 L37.256,245 L31.976,245 L31.976,244.496 C32.776004,244.496 33.2919988,244.328002 33.524,243.992 C33.7560012,243.655998 33.872,242.888006 33.872,241.688 L33.872,240.488 C33.872,239.303994 33.7560012,238.544002 33.524,238.208 C33.2919988,237.871998 32.776004,237.704 31.976,237.704 L31.976,237.2 L35.168,236.6 C35.3120007,236.904002 35.4479994,237.479996 35.576,238.328 Z M54.104,243.488 C54.5680023,242.831997 54.8,242.000005 54.8,240.992 C54.8,239.983995 54.5680023,239.160003 54.104,238.52 C53.6399977,237.879997 52.9680044,237.56 52.088,237.56 C51.5439973,237.56 51.0600021,237.727998 50.636,238.064 C50.2119979,238.400002 49.8800012,238.855997 49.64,239.432 L49.64,242.528 C49.8800012,243.120003 50.2119979,243.587998 50.636,243.932 C51.0600021,244.276002 51.5439973,244.448 52.088,244.448 C52.9680044,244.448 53.6399977,244.128003 54.104,243.488 Z M49.64,247.712 C49.64,248.896006 49.7559988,249.655998 49.988,249.992 C50.2200012,250.328002 50.735996,250.496 51.536,250.496 L51.536,251 L46.04,251 L46.04,250.496 C46.840004,250.496 47.3559988,250.332002 47.588,250.004 C47.8200012,249.675998 47.936,248.912006 47.936,247.712 L47.936,240.488 C47.936,239.287994 47.8200012,238.524002 47.588,238.196 C47.3559988,237.867998 46.840004,237.704 46.04,237.704 L46.04,237.2 L49.256,236.6 C49.3520005,236.776001 49.4719993,237.263996 49.616,238.064 C50.4320041,237.087995 51.4239942,236.6 52.592,236.6 C53.7280057,236.6 54.7039959,237.027996 55.52,237.884 C56.3360041,238.740004 56.744,239.775994 56.744,240.992 C56.744,242.208006 56.3360041,243.247996 55.52,244.112 C54.7039959,244.976004 53.7280057,245.408 52.592,245.408 C51.4079941,245.408 50.4240039,244.928005 49.64,243.968 L49.64,247.712 Z M71.168,244.808 L67.952,245.408 C67.8239994,245.151999 67.6960006,244.640004 67.568,243.872 C66.575995,244.896005 65.5280055,245.408 64.424,245.408 C62.4399901,245.408 61.448,244.208012 61.448,241.808 L61.448,240.296 C61.448,239.095994 61.3320012,238.328002 61.1,237.992 C60.8679988,237.655998 60.352004,237.488 59.552,237.488 L59.552,237.008 L63.152,237.008 L63.152,241.688 C63.152,243.400009 63.7599939,244.256 64.976,244.256 C65.5200027,244.256 66.087997,244.028002 66.68,243.572 C67.272003,243.115998 67.568,242.552003 67.568,241.88 L67.568,240.296 C67.568,239.095994 67.4520012,238.328002 67.22,237.992 C66.9879988,237.655998 66.4640041,237.488 65.648,237.488 L65.648,237.008 L69.248,237.008 L69.248,241.496 C69.248,242.696006 69.3639988,243.463998 69.596,243.8 C69.8280012,244.136002 70.3519959,244.304 71.168,244.304 L71.168,244.808 Z M74.744,237.848 L73.496,237.848 L73.496,237.272 C74.1840034,237.127999 74.6879984,236.816002 75.008,236.336 C75.3280016,235.855998 75.5359995,235.200004 75.632,234.368 L76.448,234.368 L76.448,237.008 L78.536,237.008 L78.536,237.848 L76.448,237.848 L76.448,242.648 C76.448,243.800006 76.8079964,244.376 77.528,244.376 C77.9920023,244.376 78.5119971,244.104003 79.088,243.56 L79.496,243.968 C79.1599983,244.368002 78.7560024,244.695999 78.284,244.952 C77.8119976,245.208001 77.376002,245.336 76.976,245.336 C76.2879966,245.336 75.744002,245.112002 75.344,244.664 C74.943998,244.215998 74.744,243.544004 74.744,242.648 L74.744,237.848 Z M91.568,239.456 L91.568,242.528 C91.7920011,243.120003 92.1159979,243.587998 92.54,243.932 C92.9640021,244.276002 93.4479973,244.448 93.992,244.448 C94.8880045,244.448 95.5679977,244.128003 96.032,243.488 C96.4960023,242.847997 96.728,242.016005 96.728,240.992 C96.728,239.983995 96.4960023,239.160003 96.032,238.52 C95.5679977,237.879997 94.8880045,237.56 93.992,237.56 C93.4479973,237.56 92.9640021,237.731998 92.54,238.076 C92.1159979,238.420002 91.7920011,238.879997 91.568,239.456 Z M91.424,243.8 L90.368,245.408 L89.864,245.408 L89.864,234.104 C89.864,232.903994 89.7480012,232.136002 89.516,231.8 C89.2839988,231.463998 88.768004,231.296 87.968,231.296 L87.968,230.792 L91.568,230.192 L91.568,238.016 C92.3360038,237.071995 93.3119941,236.6 94.496,236.6 C95.6320057,236.6 96.6079959,237.027996 97.424,237.884 C98.2400041,238.740004 98.648,239.775994 98.648,240.992 C98.648,242.208006 98.2400041,243.247996 97.424,244.112 C96.6079959,244.976004 95.6320057,245.408 94.496,245.408 C93.1999935,245.408 92.1760038,244.872005 91.424,243.8 Z" id="input-b-copy-2" fill="#1A80AA"></path>
                <path d="M197.44,14.24 C197.327999,14.3360005 197.188001,14.483999 197.02,14.684 C196.851999,14.884001 196.696001,15.0439994 196.552,15.164 C196.407999,15.2840006 196.264001,15.344 196.12,15.344 C195.991999,15.344 195.876001,15.2920005 195.772,15.188 C195.667999,15.0839995 195.616,14.9520008 195.616,14.792 C195.616,14.5039986 195.823998,14.2080015 196.24,13.904 L198.016,12.488 C198.480002,12.1359982 198.859999,11.6840028 199.156,11.132 C199.452001,10.5799972 199.6,10.008003 199.6,9.416 C199.6,8.74399664 199.360002,8.208002 198.88,7.808 C198.399998,7.407998 197.768004,7.208 196.984,7.208 C196.151996,7.208 195.456003,7.55999648 194.896,8.264 C194.335997,8.96800352 194.343997,9.81599504 194.92,10.808 L194.2,11.552 C193.271995,10.9919972 192.772,10.2840043 192.7,9.428 C192.628,8.57199572 192.991996,7.82000324 193.792,7.172 C194.592004,6.52399676 195.655993,6.2 196.984,6.2 C198.216006,6.2 199.287995,6.49599704 200.2,7.088 C201.112005,7.68000296 201.568,8.4559952 201.568,9.416 C201.568,9.76800176 201.492001,10.1279982 201.34,10.496 C201.187999,10.8640018 201.004001,11.1759987 200.788,11.432 C200.571999,11.6880013 200.356001,11.9239989 200.14,12.14 C199.923999,12.3560011 199.744001,12.5199994 199.6,12.632 L199.36,12.776 L198.256,13.616 C199.408006,13.8560012 200.319997,14.3279965 200.992,15.032 C201.664003,15.7360035 202,16.5519954 202,17.48 C202,18.5840055 201.540005,19.5279961 200.62,20.312 C199.699995,21.0960039 198.568007,21.488 197.224,21.488 C195.927994,21.488 194.864004,21.1760031 194.032,20.552 C193.199996,19.9279969 192.784,19.3360028 192.784,18.776 C192.784,18.4079982 192.991998,18.224 193.408,18.224 C193.568001,18.224 193.707999,18.2959993 193.828,18.44 C193.948001,18.5840007 194.083999,18.7839987 194.236,19.04 C194.388001,19.2960013 194.535999,19.4959993 194.68,19.64 C195.272003,20.2640031 196.055995,20.576 197.032,20.576 C197.976005,20.576 198.683998,20.2920028 199.156,19.724 C199.628002,19.1559972 199.864,18.4080046 199.864,17.48 C199.864,16.7119962 199.668002,16.024003 199.276,15.416 C198.883998,14.807997 198.272004,14.4160009 197.44,14.24 Z M209.704,15.944 C209.704,16.2800017 209.568001,16.5719988 209.296,16.82 C209.023999,17.0680012 208.704002,17.192 208.336,17.192 C207.967998,17.192 207.656001,17.0680012 207.4,16.82 C207.143999,16.5719988 207.016,16.2800017 207.016,15.944 C207.016,15.5919982 207.143999,15.2920012 207.4,15.044 C207.656001,14.7959988 207.967998,14.672 208.336,14.672 C208.704002,14.672 209.023999,14.7959988 209.296,15.044 C209.568001,15.2920012 209.704,15.5919982 209.704,15.944 Z M219.544,14.24 C219.431999,14.3360005 219.292001,14.483999 219.124,14.684 C218.955999,14.884001 218.800001,15.0439994 218.656,15.164 C218.511999,15.2840006 218.368001,15.344 218.224,15.344 C218.095999,15.344 217.980001,15.2920005 217.876,15.188 C217.771999,15.0839995 217.72,14.9520008 217.72,14.792 C217.72,14.5039986 217.927998,14.2080015 218.344,13.904 L220.12,12.488 C220.584002,12.1359982 220.963999,11.6840028 221.26,11.132 C221.556001,10.5799972 221.704,10.008003 221.704,9.416 C221.704,8.74399664 221.464002,8.208002 220.984,7.808 C220.503998,7.407998 219.872004,7.208 219.088,7.208 C218.255996,7.208 217.560003,7.55999648 217,8.264 C216.439997,8.96800352 216.447997,9.81599504 217.024,10.808 L216.304,11.552 C215.375995,10.9919972 214.876,10.2840043 214.804,9.428 C214.732,8.57199572 215.095996,7.82000324 215.896,7.172 C216.696004,6.52399676 217.759993,6.2 219.088,6.2 C220.320006,6.2 221.391995,6.49599704 222.304,7.088 C223.216005,7.68000296 223.672,8.4559952 223.672,9.416 C223.672,9.76800176 223.596001,10.1279982 223.444,10.496 C223.291999,10.8640018 223.108001,11.1759987 222.892,11.432 C222.675999,11.6880013 222.460001,11.9239989 222.244,12.14 C222.027999,12.3560011 221.848001,12.5199994 221.704,12.632 L221.464,12.776 L220.36,13.616 C221.512006,13.8560012 222.423997,14.3279965 223.096,15.032 C223.768003,15.7360035 224.104,16.5519954 224.104,17.48 C224.104,18.5840055 223.644005,19.5279961 222.724,20.312 C221.803995,21.0960039 220.672007,21.488 219.328,21.488 C218.031994,21.488 216.968004,21.1760031 216.136,20.552 C215.303996,19.9279969 214.888,19.3360028 214.888,18.776 C214.888,18.4079982 215.095998,18.224 215.512,18.224 C215.672001,18.224 215.811999,18.2959993 215.932,18.44 C216.052001,18.5840007 216.187999,18.7839987 216.34,19.04 C216.492001,19.2960013 216.639999,19.4959993 216.784,19.64 C217.376003,20.2640031 218.159995,20.576 219.136,20.576 C220.080005,20.576 220.787998,20.2920028 221.26,19.724 C221.732002,19.1559972 221.968,18.4080046 221.968,17.48 C221.968,16.7119962 221.772002,16.024003 221.38,15.416 C220.987998,14.807997 220.376004,14.4160009 219.544,14.24 Z M242.44,3.104 C241.495995,3.104 240.884001,3.21999884 240.604,3.452 C240.323999,3.68400116 239.984002,4.26399536 239.584,5.192 L234.304,17.408 L233.992,17.408 L228.688,5.192 C228.287998,4.26399536 227.948001,3.68400116 227.668,3.452 C227.387999,3.21999884 226.776005,3.104 225.832,3.104 L225.832,2.6 L232.48,2.6 L232.48,3.104 C231.487995,3.104 230.852001,3.2439986 230.572,3.524 C230.291999,3.8040014 230.303998,4.27199672 230.608,4.928 L234.688,14.264 L238.72,4.928 C239.024002,4.27199672 239.036001,3.8040014 238.756,3.524 C238.475999,3.2439986 237.840005,3.104 236.848,3.104 L236.848,2.6 L242.44,2.6 L242.44,3.104 Z" id="3.3V-Copy" fill="#524740"></path>
            </g>
            <g id="Wiring" transform="translate(185.000000, 149.000000)">
                <polyline id="Path-5" stroke="#3D3530" stroke-width="2" points="0 90 31 90 31 0"></polyline>
                <circle id="Connection" fill="#3D3530" cx="31" cy="26" r="5"></circle>
                <circle id="Connection-Copy" fill="#3D3530" cx="31" cy="58" r="5"></circle>
                <path d="M31,26 L0,26" id="Path-6" stroke="#3D3530" stroke-width="2"></path>
                <path d="M31,58 L94,58" id="Path-7" stroke="#3D3530" stroke-width="2"></path>
            </g>
            <path d="M150.94,340 L147.844,332.44 L136.54,332.44 L133.444,340 L130.96,340 L141.04,315.808 L143.308,315.808 L153.388,340 L150.94,340 Z M137.512,330.064 L146.872,330.064 L142.192,318.58 L137.512,330.064 Z M173.468,315.808 L175.844,315.808 L175.844,340 L173.396,340 L159.896,319.444 L159.896,340 L157.52,340 L157.52,315.808 L159.932,315.808 L173.468,336.4 L173.468,315.808 Z M181.848,340 L181.848,315.808 L187.32,315.808 C191.30402,315.808 194.471988,316.959988 196.824,319.264 C199.176012,321.568012 200.352,324.447983 200.352,327.904 C200.352,331.336017 199.170012,334.209988 196.806,336.526 C194.441988,338.842012 191.28002,340 187.32,340 L181.848,340 Z M184.224,337.732 L187.32,337.732 C190.488016,337.732 193.019991,336.802009 194.916,334.942 C196.812009,333.081991 197.76,330.736014 197.76,327.904 C197.76,325.071986 196.812009,322.726009 194.916,320.866 C193.019991,319.005991 190.488016,318.076 187.32,318.076 L184.224,318.076 L184.224,337.732 Z M218.804,337.624 L229.82,337.624 L229.82,340 L216.428,340 L216.428,315.808 L218.804,315.808 L218.804,337.624 Z M248.316,337.552 C246.515991,339.376009 244.332013,340.288 241.764,340.288 C239.195987,340.288 237.006009,339.382009 235.194,337.57 C233.381991,335.757991 232.476,333.568013 232.476,331 C232.476,328.431987 233.381991,326.242009 235.194,324.43 C237.006009,322.617991 239.195987,321.712 241.764,321.712 C244.332013,321.712 246.521991,322.617991 248.334,324.43 C250.146009,326.242009 251.052,328.431987 251.052,331 C251.052,333.544013 250.140009,335.727991 248.316,337.552 Z M241.8,338.02 C243.74401,338.02 245.381993,337.342007 246.714,335.986 C248.046007,334.629993 248.712,332.96801 248.712,331 C248.712,329.03199 248.046007,327.364007 246.714,325.996 C245.381993,324.627993 243.74401,323.944 241.8,323.944 C239.87999,323.944 238.248007,324.627993 236.904,325.996 C235.559993,327.364007 234.888,329.03199 234.888,331 C234.888,332.96801 235.559993,334.629993 236.904,335.986 C238.248007,337.342007 239.87999,338.02 241.8,338.02 Z M271.24,322.036 L273.652,322.036 L273.652,338.452 C273.628,341.068013 272.686009,343.257991 270.826,345.022 C268.965991,346.786009 266.812012,347.668 264.364,347.668 C262.131989,347.668 260.230008,347.074006 258.658,345.886 C257.085992,344.697994 256.024003,343.360007 255.472,341.872 L257.416,340.9 C257.872002,342.124006 258.735994,343.191995 260.008,344.104 C261.280006,345.016005 262.731992,345.472 264.364,345.472 C266.28401,345.472 267.909993,344.770007 269.242,343.366 C270.574007,341.961993 271.252,340.324009 271.276,338.452 L271.24,338.452 L271.24,337.12 C269.415991,339.256011 267.076014,340.324 264.22,340.324 C261.651987,340.324 259.462009,339.418009 257.65,337.606 C255.837991,335.793991 254.932,333.604013 254.932,331.036 C254.932,328.467987 255.837991,326.278009 257.65,324.466 C259.462009,322.653991 261.651987,321.748 264.22,321.748 C267.052014,321.748 269.391991,322.815989 271.24,324.952 L271.24,322.036 Z M264.256,338.092 C266.20001,338.092 267.837993,337.414007 269.17,336.058 C270.502007,334.701993 271.168,333.04001 271.168,331.072 C271.168,329.10399 270.502007,327.442007 269.17,326.086 C267.837993,324.729993 266.20001,324.052 264.256,324.052 C262.33599,324.052 260.704007,324.729993 259.36,326.086 C258.015993,327.442007 257.344,329.10399 257.344,331.072 C257.344,333.04001 258.015993,334.701993 259.36,336.058 C260.704007,337.414007 262.33599,338.092 264.256,338.092 Z M282.356,316.6 C282.091999,316.888001 281.756002,317.032 281.348,317.032 C280.939998,317.032 280.598001,316.888001 280.322,316.6 C280.045999,316.311999 279.908,315.976002 279.908,315.592 C279.908,315.207998 280.045999,314.872001 280.322,314.584 C280.598001,314.295999 280.939998,314.152 281.348,314.152 C281.756002,314.152 282.097999,314.295999 282.374,314.584 C282.650001,314.872001 282.788,315.207998 282.788,315.592 C282.788,315.976002 282.644001,316.311999 282.356,316.6 Z M280.16,340 L280.16,322 L282.536,322 L282.536,340 L280.16,340 Z M297.036,340.288 C294.467987,340.288 292.278009,339.382009 290.466,337.57 C288.653991,335.757991 287.748,333.568013 287.748,331 C287.748,328.431987 288.653991,326.242009 290.466,324.43 C292.278009,322.617991 294.467987,321.712 297.036,321.712 C298.668008,321.712 300.185993,322.113996 301.59,322.918 C302.994007,323.722004 304.103996,324.795993 304.92,326.14 L302.76,327.184 C302.111997,326.199995 301.284005,325.420003 300.276,324.844 C299.267995,324.267997 298.188006,323.98 297.036,323.98 C295.09199,323.98 293.454007,324.657993 292.122,326.014 C290.789993,327.370007 290.124,329.03199 290.124,331 C290.124,332.96801 290.789993,334.629993 292.122,335.986 C293.454007,337.342007 295.09199,338.02 297.036,338.02 C298.188006,338.02 299.267995,337.732003 300.276,337.156 C301.284005,336.579997 302.111997,335.800005 302.76,334.816 L304.92,335.86 C304.103996,337.204007 302.994007,338.277996 301.59,339.082 C300.185993,339.886004 298.668008,340.288 297.036,340.288 Z M331.76,340.288 C328.207982,340.288 325.370011,339.106012 323.246,336.742 C321.121989,334.377988 320.06,331.444018 320.06,327.94 C320.06,324.411982 321.121989,321.466012 323.246,319.102 C325.370011,316.737988 328.207982,315.556 331.76,315.556 C334.088012,315.556 336.127991,316.095995 337.88,317.176 C339.632009,318.256005 340.975995,319.731991 341.912,321.604 L339.68,322.9 C338.935996,321.339992 337.874007,320.104005 336.494,319.192 C335.113993,318.279995 333.536009,317.824 331.76,317.824 C329.023986,317.824 326.834008,318.77799 325.19,320.686 C323.545992,322.59401 322.724,325.011985 322.724,327.94 C322.724,330.844015 323.545992,333.25599 325.19,335.176 C326.834008,337.09601 329.023986,338.056 331.76,338.056 C334.160012,338.056 336.157992,337.258008 337.754,335.662 C339.350008,334.065992 340.291999,332.044012 340.58,329.596 L332.732,329.596 L332.732,327.472 L343.064,327.472 L343.064,340 L340.904,340 L340.904,335.14 C340.015996,336.748008 338.786008,338.007995 337.214,338.92 C335.641992,339.832005 333.82401,340.288 331.76,340.288 Z M363.828,322 L366.204,322 L366.204,340 L363.828,340 L363.828,337.084 C361.979991,339.220011 359.640014,340.288 356.808,340.288 C354.239987,340.288 352.050009,339.382009 350.238,337.57 C348.425991,335.757991 347.52,333.568013 347.52,331 C347.52,328.431987 348.425991,326.242009 350.238,324.43 C352.050009,322.617991 354.239987,321.712 356.808,321.712 C359.664014,321.712 362.003991,322.779989 363.828,324.916 L363.828,322 Z M356.844,338.02 C358.78801,338.02 360.425993,337.342007 361.758,335.986 C363.090007,334.629993 363.756,332.96801 363.756,331 C363.756,329.03199 363.090007,327.370007 361.758,326.014 C360.425993,324.657993 358.78801,323.98 356.844,323.98 C354.92399,323.98 353.286007,324.657993 351.93,326.014 C350.573993,327.370007 349.896,329.03199 349.896,331 C349.896,332.96801 350.573993,334.629993 351.93,335.986 C353.286007,337.342007 354.92399,338.02 356.844,338.02 Z M381.928,335.968 L383.116,337.804 C382.971999,337.996001 382.780001,338.223999 382.54,338.488 C382.299999,338.752001 381.760004,339.117998 380.92,339.586 C380.079996,340.054002 379.216004,340.288 378.328,340.288 C376.815992,340.288 375.550005,339.838005 374.53,338.938 C373.509995,338.037996 373,336.736009 373,335.032 L373,324.16 L370.12,324.16 L370.12,321.964 L373,321.964 L373,316.276 L375.376,315.988 L375.376,321.964 L380.812,321.964 L380.812,324.16 L375.376,324.16 L375.376,334.492 C375.376,335.596006 375.717997,336.471997 376.402,337.12 C377.086003,337.768003 377.871996,338.092 378.76,338.092 C379.312003,338.092 379.851997,337.924002 380.38,337.588 C380.908003,337.251998 381.297999,336.922002 381.55,336.598 C381.802001,336.273998 381.928,336.064 381.928,335.968 Z M396.428,337.912 C398.036008,337.912 399.475994,337.456005 400.748,336.544 C402.020006,335.631995 402.883998,334.564006 403.34,333.34 L405.356,334.06 C404.803997,335.572008 403.730008,336.963994 402.134,338.236 C400.537992,339.508006 398.636011,340.132 396.428,340.108 C394.41199,340.108 392.570008,339.484006 390.902,338.236 C389.233992,336.987994 388.100003,335.39201 387.5,333.448 C387.259999,332.655996 387.14,331.792005 387.14,330.856 C387.14,328.263987 388.039991,326.068009 389.84,324.268 C391.640009,322.467991 393.835987,321.556 396.428,321.532 C398.780012,321.556 400.831991,322.347992 402.584,323.908 C404.336009,325.468008 405.343999,327.399988 405.608,329.704 C405.632,329.824001 405.644,329.979999 405.644,330.172 L389.912,333.016 C390.320002,334.456007 391.135994,335.637995 392.36,336.562 C393.584006,337.486005 394.939993,337.936 396.428,337.912 Z M396.212,323.728 C394.411991,323.752 392.870006,324.399994 391.586,325.672 C390.301994,326.944006 389.612,328.467991 389.516,330.244 C389.516,330.316 389.522,330.441999 389.534,330.622 C389.546,330.802001 389.552,330.951999 389.552,331.072 L402.944,328.66 C402.487998,327.195993 401.636006,326.002005 400.388,325.078 C399.139994,324.153995 397.748008,323.704 396.212,323.728 Z" id="AND-Logic-Gate-Copy" fill="#23ABE3"></path>
        </g>
        <g id="OR_Gate" transform="translate(65.000000, 38.000000)">
            <g id="Components" transform="translate(92.000000, 0.000000)">
                <polyline id="Resistor-Copy" stroke="#3D3530" stroke-width="3" stroke-linejoin="round" transform="translate(101.000000, 137.000000) rotate(90.000000) translate(-101.000000, -137.000000) " points="66 137 71 137 76 124 86 150 96 124 106 150 116 124 126 150 131 137 136 137"></polyline>
                <g id="Schottky_Diode-Copy-2">
                    <polygon id="Path-2" fill="#3D3530" points="24.5 0 44 13 24.5 26"></polygon>
                    <path d="M44,13 L70,13" id="Path-2-Copy" stroke="#3D3530" stroke-width="3"></path>
                    <path d="M0,13 L24.5,13" id="Path-3" stroke="#3D3530" stroke-width="3"></path>
                    <polyline id="Path" stroke="#3D3530" stroke-width="3" stroke-linejoin="round" points="39 5 39 1 44 1 44 25 49 25 49 21"></polyline>
                </g>
                <g id="Schottky_Diode-Copy-3" transform="translate(0.000000, 64.000000)">
                    <polygon id="Path-2" fill="#3D3530" points="24.5 0 44 13 24.5 26"></polygon>
                    <path d="M44,13 L70,13" id="Path-2-Copy" stroke="#3D3530" stroke-width="3"></path>
                    <path d="M0,13 L24.5,13" id="Path-3" stroke="#3D3530" stroke-width="3"></path>
                    <polyline id="Path" stroke="#3D3530" stroke-width="3" stroke-linejoin="round" points="39 5 39 1 44 1 44 25 49 25 49 21"></polyline>
                </g>
                <g id="Ground" transform="translate(101.000000, 209.500000) rotate(-90.000000) translate(-101.000000, -209.500000) translate(63.500000, 176.500000)" stroke="#3D3530" stroke-width="3">
                    <path d="M25,33 L75,33" id="Path-2-Copy"></path>
                    <path d="M13,13 L13,53" id="Path-4"></path>
                    <path d="M1,27 L1,39" id="Path-4-Copy"></path>
                    <path d="M25,0 L25,66" id="Path-3-Copy"></path>
                </g>
            </g>
            <g id="Labels" fill="#1A80AA">
                <path d="M277.408,41.896 C278.368005,42.7440042 278.848,43.7759939 278.848,44.992 C278.848,46.2080061 278.372005,47.2479957 277.42,48.112 C276.467995,48.9760043 275.328007,49.408 274,49.408 C272.671993,49.408 271.532005,48.9760043 270.58,48.112 C269.627995,47.2479957 269.152,46.2080061 269.152,44.992 C269.152,43.7759939 269.627995,42.7400043 270.58,41.884 C271.532005,41.0279957 272.671993,40.6 274,40.6 C275.328007,40.6 276.463995,41.0319957 277.408,41.896 Z M276.16,47.512 C276.656002,46.8559967 276.904,46.0160051 276.904,44.992 C276.904,43.9679949 276.656002,43.1320032 276.16,42.484 C275.663998,41.8359968 274.944005,41.512 274,41.512 C273.055995,41.512 272.336002,41.8399967 271.84,42.496 C271.343998,43.1520033 271.096,43.983995 271.096,44.992 C271.096,46.000005 271.343998,46.8319967 271.84,47.488 C272.336002,48.1440033 273.055995,48.472 274,48.472 C274.944005,48.472 275.663998,48.1520032 276.16,47.512 Z M293.272,48.808 L290.056,49.408 C289.927999,49.1519987 289.800001,48.6400038 289.672,47.872 C288.679995,48.8960051 287.632006,49.408 286.528,49.408 C284.54399,49.408 283.552,48.208012 283.552,45.808 L283.552,44.296 C283.552,43.095994 283.436001,42.3280017 283.204,41.992 C282.971999,41.6559983 282.456004,41.488 281.656,41.488 L281.656,41.008 L285.256,41.008 L285.256,45.688 C285.256,47.4000086 285.863994,48.256 287.08,48.256 C287.624003,48.256 288.191997,48.0280023 288.784,47.572 C289.376003,47.1159977 289.672,46.5520034 289.672,45.88 L289.672,44.296 C289.672,43.095994 289.556001,42.3280017 289.324,41.992 C289.091999,41.6559983 288.568004,41.488 287.752,41.488 L287.752,41.008 L291.352,41.008 L291.352,45.496 C291.352,46.696006 291.467999,47.4639983 291.7,47.8 C291.932001,48.1360017 292.455996,48.304 293.272,48.304 L293.272,48.808 Z M296.848,41.848 L295.6,41.848 L295.6,41.272 C296.288003,41.1279993 296.791998,40.8160024 297.112,40.336 C297.432002,39.8559976 297.64,39.2000042 297.736,38.368 L298.552,38.368 L298.552,41.008 L300.64,41.008 L300.64,41.848 L298.552,41.848 L298.552,46.648 C298.552,47.8000058 298.911996,48.376 299.632,48.376 C300.096002,48.376 300.615997,48.1040027 301.192,47.56 L301.6,47.968 C301.263998,48.368002 300.860002,48.6959987 300.388,48.952 C299.915998,49.2080013 299.480002,49.336 299.08,49.336 C298.391997,49.336 297.848002,49.1120022 297.448,48.664 C297.047998,48.2159978 296.848,47.5440045 296.848,46.648 L296.848,41.848 Z M311.728,47.488 C312.192002,46.8319967 312.424,46.000005 312.424,44.992 C312.424,43.983995 312.192002,43.1600032 311.728,42.52 C311.263998,41.8799968 310.592004,41.56 309.712,41.56 C309.167997,41.56 308.684002,41.7279983 308.26,42.064 C307.835998,42.4000017 307.504001,42.8559971 307.264,43.432 L307.264,46.528 C307.504001,47.120003 307.835998,47.5879983 308.26,47.932 C308.684002,48.2760017 309.167997,48.448 309.712,48.448 C310.592004,48.448 311.263998,48.1280032 311.728,47.488 Z M307.264,51.712 C307.264,52.8960059 307.379999,53.6559983 307.612,53.992 C307.844001,54.3280017 308.359996,54.496 309.16,54.496 L309.16,55 L303.664,55 L303.664,54.496 C304.464004,54.496 304.979999,54.3320016 305.212,54.004 C305.444001,53.6759984 305.56,52.912006 305.56,51.712 L305.56,44.488 C305.56,43.287994 305.444001,42.5240016 305.212,42.196 C304.979999,41.8679984 304.464004,41.704 303.664,41.704 L303.664,41.2 L306.88,40.6 C306.976,40.7760009 307.095999,41.263996 307.24,42.064 C308.056004,41.0879951 309.047994,40.6 310.216,40.6 C311.352006,40.6 312.327996,41.0279957 313.144,41.884 C313.960004,42.7400043 314.368,43.7759939 314.368,44.992 C314.368,46.2080061 313.960004,47.2479957 313.144,48.112 C312.327996,48.9760043 311.352006,49.408 310.216,49.408 C309.031994,49.408 308.048004,48.9280048 307.264,47.968 L307.264,51.712 Z M328.792,48.808 L325.576,49.408 C325.447999,49.1519987 325.320001,48.6400038 325.192,47.872 C324.199995,48.8960051 323.152006,49.408 322.048,49.408 C320.06399,49.408 319.072,48.208012 319.072,45.808 L319.072,44.296 C319.072,43.095994 318.956001,42.3280017 318.724,41.992 C318.491999,41.6559983 317.976004,41.488 317.176,41.488 L317.176,41.008 L320.776,41.008 L320.776,45.688 C320.776,47.4000086 321.383994,48.256 322.6,48.256 C323.144003,48.256 323.711997,48.0280023 324.304,47.572 C324.896003,47.1159977 325.192,46.5520034 325.192,45.88 L325.192,44.296 C325.192,43.095994 325.076001,42.3280017 324.844,41.992 C324.611999,41.6559983 324.088004,41.488 323.272,41.488 L323.272,41.008 L326.872,41.008 L326.872,45.496 C326.872,46.696006 326.987999,47.4639983 327.22,47.8 C327.452001,48.1360017 327.975996,48.304 328.792,48.304 L328.792,48.808 Z M332.368,41.848 L331.12,41.848 L331.12,41.272 C331.808003,41.1279993 332.311998,40.8160024 332.632,40.336 C332.952002,39.8559976 333.16,39.2000042 333.256,38.368 L334.072,38.368 L334.072,41.008 L336.16,41.008 L336.16,41.848 L334.072,41.848 L334.072,46.648 C334.072,47.8000058 334.431996,48.376 335.152,48.376 C335.616002,48.376 336.135997,48.1040027 336.712,47.56 L337.12,47.968 C336.783998,48.368002 336.380002,48.6959987 335.908,48.952 C335.435998,49.2080013 335.000002,49.336 334.6,49.336 C333.911997,49.336 333.368002,49.1120022 332.968,48.664 C332.567998,48.2159978 332.368,47.5440045 332.368,46.648 L332.368,41.848 Z" id="output-copy"></path>
                <path d="M6.408,17 L0.912,17 L0.912,16.496 C1.712004,16.496 2.22799884,16.3280017 2.46,15.992 C2.69200116,15.6559983 2.808,14.888006 2.808,13.688 L2.808,12.488 C2.808,11.3039941 2.69200116,10.5440017 2.46,10.208 C2.22799884,9.87199832 1.712004,9.704 0.912,9.704 L0.912,9.2 L4.512,8.6 L4.512,13.688 C4.512,14.888006 4.62799884,15.6559983 4.86,15.992 C5.09200116,16.3280017 5.607996,16.496 6.408,16.496 L6.408,17 Z M4.704,5.168 C4.704,5.47200152 4.60000104,5.72799896 4.392,5.936 C4.18399896,6.14400104 3.93600144,6.248 3.648,6.248 C3.35999856,6.248 3.11200104,6.14400104 2.904,5.936 C2.69599896,5.72799896 2.592,5.47200152 2.592,5.168 C2.592,4.87999856 2.69599896,4.63200104 2.904,4.424 C3.11200104,4.21599896 3.35999856,4.112 3.648,4.112 C3.93600144,4.112 4.18399896,4.21599896 4.392,4.424 C4.60000104,4.63200104 4.704,4.87999856 4.704,5.168 Z M12.576,10.328 C13.4880046,9.17599424 14.5999934,8.6 15.912,8.6 C16.9520052,8.6 17.7319974,8.92799672 18.252,9.584 C18.7720026,10.2400033 19.032,11.1039946 19.032,12.176 L19.032,13.688 C19.032,14.888006 19.1479988,15.6559983 19.38,15.992 C19.6120012,16.3280017 20.127996,16.496 20.928,16.496 L20.928,17 L15.432,17 L15.432,16.496 C16.2160039,16.496 16.7279988,16.3240017 16.968,15.98 C17.2080012,15.6359983 17.328,14.8720059 17.328,13.688 L17.328,12.296 C17.328,10.5839914 16.6640066,9.728 15.336,9.728 C14.6479966,9.728 14.0160029,9.9679976 13.44,10.448 C12.8639971,10.9280024 12.576,11.4879968 12.576,12.128 L12.576,13.688 C12.576,14.9200062 12.671999,15.6959984 12.864,16.016 C13.056001,16.3360016 13.5199963,16.496 14.256,16.496 L14.256,17 L8.976,17 L8.976,16.496 C9.776004,16.496 10.2919988,16.3280017 10.524,15.992 C10.7560012,15.6559983 10.872,14.888006 10.872,13.688 L10.872,12.488 C10.872,11.3039941 10.7560012,10.5440017 10.524,10.208 C10.2919988,9.87199832 9.776004,9.704 8.976,9.704 L8.976,9.2 L12.168,8.6 C12.3120007,8.90400152 12.4479994,9.47999576 12.576,10.328 Z M31.104,15.488 C31.5680023,14.8319967 31.8,14.000005 31.8,12.992 C31.8,11.983995 31.5680023,11.1600032 31.104,10.52 C30.6399977,9.8799968 29.9680044,9.56 29.088,9.56 C28.5439973,9.56 28.0600021,9.72799832 27.636,10.064 C27.2119979,10.4000017 26.8800012,10.8559971 26.64,11.432 L26.64,14.528 C26.8800012,15.120003 27.2119979,15.5879983 27.636,15.932 C28.0600021,16.2760017 28.5439973,16.448 29.088,16.448 C29.9680044,16.448 30.6399977,16.1280032 31.104,15.488 Z M26.64,19.712 C26.64,20.8960059 26.7559988,21.6559983 26.988,21.992 C27.2200012,22.3280017 27.735996,22.496 28.536,22.496 L28.536,23 L23.04,23 L23.04,22.496 C23.840004,22.496 24.3559988,22.3320016 24.588,22.004 C24.8200012,21.6759984 24.936,20.912006 24.936,19.712 L24.936,12.488 C24.936,11.287994 24.8200012,10.5240016 24.588,10.196 C24.3559988,9.86799836 23.840004,9.704 23.04,9.704 L23.04,9.2 L26.256,8.6 C26.3520005,8.77600088 26.4719993,9.263996 26.616,10.064 C27.4320041,9.08799512 28.4239942,8.6 29.592,8.6 C30.7280057,8.6 31.7039959,9.02799572 32.52,9.884 C33.3360041,10.7400043 33.744,11.7759939 33.744,12.992 C33.744,14.2080061 33.3360041,15.2479957 32.52,16.112 C31.7039959,16.9760043 30.7280057,17.408 29.592,17.408 C28.4079941,17.408 27.4240039,16.9280048 26.64,15.968 L26.64,19.712 Z M48.168,16.808 L44.952,17.408 C44.8239994,17.1519987 44.6960006,16.6400038 44.568,15.872 C43.575995,16.8960051 42.5280055,17.408 41.424,17.408 C39.4399901,17.408 38.448,16.208012 38.448,13.808 L38.448,12.296 C38.448,11.095994 38.3320012,10.3280017 38.1,9.992 C37.8679988,9.65599832 37.352004,9.488 36.552,9.488 L36.552,9.008 L40.152,9.008 L40.152,13.688 C40.152,15.4000086 40.7599939,16.256 41.976,16.256 C42.5200027,16.256 43.087997,16.0280023 43.68,15.572 C44.272003,15.1159977 44.568,14.5520034 44.568,13.88 L44.568,12.296 C44.568,11.095994 44.4520012,10.3280017 44.22,9.992 C43.9879988,9.65599832 43.4640041,9.488 42.648,9.488 L42.648,9.008 L46.248,9.008 L46.248,13.496 C46.248,14.696006 46.3639988,15.4639983 46.596,15.8 C46.8280012,16.1360017 47.3519959,16.304 48.168,16.304 L48.168,16.808 Z M51.744,9.848 L50.496,9.848 L50.496,9.272 C51.1840034,9.12799928 51.6879984,8.8160024 52.008,8.336 C52.3280016,7.8559976 52.5359995,7.20000416 52.632,6.368 L53.448,6.368 L53.448,9.008 L55.536,9.008 L55.536,9.848 L53.448,9.848 L53.448,14.648 C53.448,15.8000058 53.8079964,16.376 54.528,16.376 C54.9920023,16.376 55.5119971,16.1040027 56.088,15.56 L56.496,15.968 C56.1599983,16.368002 55.7560024,16.6959987 55.284,16.952 C54.8119976,17.2080013 54.376002,17.336 53.976,17.336 C53.2879966,17.336 52.744002,17.1120022 52.344,16.664 C51.943998,16.2159978 51.744,15.5440045 51.744,14.648 L51.744,9.848 Z M74.184,16.52 C73.7199977,17.0160025 73.192003,17.264 72.6,17.264 C71.6399952,17.264 71.0960006,16.8000046 70.968,15.872 C69.8959946,16.8320048 68.8960046,17.312 67.968,17.312 C67.359997,17.312 66.8480021,17.1320018 66.432,16.772 C66.0159979,16.4119982 65.808,15.9200031 65.808,15.296 C65.808,13.6159916 67.511983,12.480003 70.92,11.888 C70.92,10.9439953 70.816001,10.2880018 70.608,9.92 C70.399999,9.55199816 69.9680033,9.368 69.312,9.368 C68.9919984,9.368 68.6840015,9.47199896 68.388,9.68 C68.0919985,9.88800104 67.944,10.1679982 67.944,10.52 C67.944,10.7600012 67.8640008,10.9599992 67.704,11.12 C67.5439992,11.2800008 67.3520011,11.36 67.128,11.36 C66.8879988,11.36 66.6880008,11.2800008 66.528,11.12 C66.3679992,10.9599992 66.288,10.7600012 66.288,10.52 C66.288,9.9599972 66.5959969,9.5000018 67.212,9.14 C67.8280031,8.7799982 68.535996,8.6 69.336,8.6 C70.5040058,8.6 71.3439974,8.85599744 71.856,9.368 C72.3680026,9.88000256 72.624,10.7119942 72.624,11.864 L72.624,15.488 C72.624,16.1120031 72.8079982,16.424 73.176,16.424 C73.384001,16.424 73.6079988,16.3040012 73.848,16.064 L74.184,16.52 Z M70.92,15.08 L70.92,12.632 C68.711989,13.1440026 67.608,13.9359946 67.608,15.008 C67.608,15.3760018 67.7159989,15.6719989 67.932,15.896 C68.1480011,16.1200011 68.4159984,16.232 68.736,16.232 C69.328003,16.232 70.0559957,15.8480038 70.92,15.08 Z" id="input-a-copy"></path>
                <path d="M6.408,83 L0.912,83 L0.912,82.496 C1.712004,82.496 2.22799884,82.3280017 2.46,81.992 C2.69200116,81.6559983 2.808,80.888006 2.808,79.688 L2.808,78.488 C2.808,77.3039941 2.69200116,76.5440017 2.46,76.208 C2.22799884,75.8719983 1.712004,75.704 0.912,75.704 L0.912,75.2 L4.512,74.6 L4.512,79.688 C4.512,80.888006 4.62799884,81.6559983 4.86,81.992 C5.09200116,82.3280017 5.607996,82.496 6.408,82.496 L6.408,83 Z M4.704,71.168 C4.704,71.4720015 4.60000104,71.727999 4.392,71.936 C4.18399896,72.144001 3.93600144,72.248 3.648,72.248 C3.35999856,72.248 3.11200104,72.144001 2.904,71.936 C2.69599896,71.727999 2.592,71.4720015 2.592,71.168 C2.592,70.8799986 2.69599896,70.632001 2.904,70.424 C3.11200104,70.215999 3.35999856,70.112 3.648,70.112 C3.93600144,70.112 4.18399896,70.215999 4.392,70.424 C4.60000104,70.632001 4.704,70.8799986 4.704,71.168 Z M12.576,76.328 C13.4880046,75.1759942 14.5999934,74.6 15.912,74.6 C16.9520052,74.6 17.7319974,74.9279967 18.252,75.584 C18.7720026,76.2400033 19.032,77.1039946 19.032,78.176 L19.032,79.688 C19.032,80.888006 19.1479988,81.6559983 19.38,81.992 C19.6120012,82.3280017 20.127996,82.496 20.928,82.496 L20.928,83 L15.432,83 L15.432,82.496 C16.2160039,82.496 16.7279988,82.3240017 16.968,81.98 C17.2080012,81.6359983 17.328,80.8720059 17.328,79.688 L17.328,78.296 C17.328,76.5839914 16.6640066,75.728 15.336,75.728 C14.6479966,75.728 14.0160029,75.9679976 13.44,76.448 C12.8639971,76.9280024 12.576,77.4879968 12.576,78.128 L12.576,79.688 C12.576,80.9200062 12.671999,81.6959984 12.864,82.016 C13.056001,82.3360016 13.5199963,82.496 14.256,82.496 L14.256,83 L8.976,83 L8.976,82.496 C9.776004,82.496 10.2919988,82.3280017 10.524,81.992 C10.7560012,81.6559983 10.872,80.888006 10.872,79.688 L10.872,78.488 C10.872,77.3039941 10.7560012,76.5440017 10.524,76.208 C10.2919988,75.8719983 9.776004,75.704 8.976,75.704 L8.976,75.2 L12.168,74.6 C12.3120007,74.9040015 12.4479994,75.4799958 12.576,76.328 Z M31.104,81.488 C31.5680023,80.8319967 31.8,80.000005 31.8,78.992 C31.8,77.983995 31.5680023,77.1600032 31.104,76.52 C30.6399977,75.8799968 29.9680044,75.56 29.088,75.56 C28.5439973,75.56 28.0600021,75.7279983 27.636,76.064 C27.2119979,76.4000017 26.8800012,76.8559971 26.64,77.432 L26.64,80.528 C26.8800012,81.120003 27.2119979,81.5879983 27.636,81.932 C28.0600021,82.2760017 28.5439973,82.448 29.088,82.448 C29.9680044,82.448 30.6399977,82.1280032 31.104,81.488 Z M26.64,85.712 C26.64,86.8960059 26.7559988,87.6559983 26.988,87.992 C27.2200012,88.3280017 27.735996,88.496 28.536,88.496 L28.536,89 L23.04,89 L23.04,88.496 C23.840004,88.496 24.3559988,88.3320016 24.588,88.004 C24.8200012,87.6759984 24.936,86.912006 24.936,85.712 L24.936,78.488 C24.936,77.287994 24.8200012,76.5240016 24.588,76.196 C24.3559988,75.8679984 23.840004,75.704 23.04,75.704 L23.04,75.2 L26.256,74.6 C26.3520005,74.7760009 26.4719993,75.263996 26.616,76.064 C27.4320041,75.0879951 28.4239942,74.6 29.592,74.6 C30.7280057,74.6 31.7039959,75.0279957 32.52,75.884 C33.3360041,76.7400043 33.744,77.7759939 33.744,78.992 C33.744,80.2080061 33.3360041,81.2479957 32.52,82.112 C31.7039959,82.9760043 30.7280057,83.408 29.592,83.408 C28.4079941,83.408 27.4240039,82.9280048 26.64,81.968 L26.64,85.712 Z M48.168,82.808 L44.952,83.408 C44.8239994,83.1519987 44.6960006,82.6400038 44.568,81.872 C43.575995,82.8960051 42.5280055,83.408 41.424,83.408 C39.4399901,83.408 38.448,82.208012 38.448,79.808 L38.448,78.296 C38.448,77.095994 38.3320012,76.3280017 38.1,75.992 C37.8679988,75.6559983 37.352004,75.488 36.552,75.488 L36.552,75.008 L40.152,75.008 L40.152,79.688 C40.152,81.4000086 40.7599939,82.256 41.976,82.256 C42.5200027,82.256 43.087997,82.0280023 43.68,81.572 C44.272003,81.1159977 44.568,80.5520034 44.568,79.88 L44.568,78.296 C44.568,77.095994 44.4520012,76.3280017 44.22,75.992 C43.9879988,75.6559983 43.4640041,75.488 42.648,75.488 L42.648,75.008 L46.248,75.008 L46.248,79.496 C46.248,80.696006 46.3639988,81.4639983 46.596,81.8 C46.8280012,82.1360017 47.3519959,82.304 48.168,82.304 L48.168,82.808 Z M51.744,75.848 L50.496,75.848 L50.496,75.272 C51.1840034,75.1279993 51.6879984,74.8160024 52.008,74.336 C52.3280016,73.8559976 52.5359995,73.2000042 52.632,72.368 L53.448,72.368 L53.448,75.008 L55.536,75.008 L55.536,75.848 L53.448,75.848 L53.448,80.648 C53.448,81.8000058 53.8079964,82.376 54.528,82.376 C54.9920023,82.376 55.5119971,82.1040027 56.088,81.56 L56.496,81.968 C56.1599983,82.368002 55.7560024,82.6959987 55.284,82.952 C54.8119976,83.2080013 54.376002,83.336 53.976,83.336 C53.2879966,83.336 52.744002,83.1120022 52.344,82.664 C51.943998,82.2159978 51.744,81.5440045 51.744,80.648 L51.744,75.848 Z M68.568,77.456 L68.568,80.528 C68.7920011,81.120003 69.1159979,81.5879983 69.54,81.932 C69.9640021,82.2760017 70.4479973,82.448 70.992,82.448 C71.8880045,82.448 72.5679977,82.1280032 73.032,81.488 C73.4960023,80.8479968 73.728,80.0160051 73.728,78.992 C73.728,77.983995 73.4960023,77.1600032 73.032,76.52 C72.5679977,75.8799968 71.8880045,75.56 70.992,75.56 C70.4479973,75.56 69.9640021,75.7319983 69.54,76.076 C69.1159979,76.4200017 68.7920011,76.8799971 68.568,77.456 Z M68.424,81.8 L67.368,83.408 L66.864,83.408 L66.864,72.104 C66.864,70.903994 66.7480012,70.1360017 66.516,69.8 C66.2839988,69.4639983 65.768004,69.296 64.968,69.296 L64.968,68.792 L68.568,68.192 L68.568,76.016 C69.3360038,75.0719953 70.3119941,74.6 71.496,74.6 C72.6320057,74.6 73.6079959,75.0279957 74.424,75.884 C75.2400041,76.7400043 75.648,77.7759939 75.648,78.992 C75.648,80.2080061 75.2400041,81.2479957 74.424,82.112 C73.6079959,82.9760043 72.6320057,83.408 71.496,83.408 C70.1999935,83.408 69.1760038,82.8720054 68.424,81.8 Z" id="input-b-copy"></path>
            </g>
            <g id="Wiring" transform="translate(162.000000, 12.000000)">
                <polyline id="Path-5" stroke="#3D3530" stroke-width="2" points="31 90 31 1 0 1"></polyline>
                <circle id="Connection-Copy-2" fill="#3D3530" cx="31" cy="65" r="5"></circle>
                <circle id="Connection-Copy-3" fill="#3D3530" cx="31" cy="33" r="5"></circle>
                <path d="M31,33 L94,33" id="Path-7" stroke="#3D3530" stroke-width="2"></path>
                <path d="M0,65 L31,65" id="Path-8" stroke="#3D3530" stroke-width="2"></path>
                <path d="" id="Path-9" stroke="#979797"></path>
            </g>
        </g>
        <path d="M197.558,352.76 C195.46999,355.112012 192.650018,356.288 189.098,356.288 C185.545982,356.288 182.72001,355.112012 180.62,352.76 C178.519989,350.407988 177.47,347.468018 177.47,343.94 C177.47,340.411982 178.519989,337.466012 180.62,335.102 C182.72001,332.737988 185.545982,331.556 189.098,331.556 C192.650018,331.556 195.46999,332.737988 197.558,335.102 C199.64601,337.466012 200.69,340.411982 200.69,343.94 C200.69,347.468018 199.64601,350.407988 197.558,352.76 Z M182.51,351.176 C184.166008,353.09601 186.361986,354.056 189.098,354.056 C191.834014,354.056 194.035992,353.09001 195.704,351.158 C197.372008,349.22599 198.206,346.820014 198.206,343.94 C198.206,341.035985 197.372008,338.62401 195.704,336.704 C194.035992,334.78399 191.834014,333.824 189.098,333.824 C186.361986,333.824 184.166008,334.78399 182.51,336.704 C180.853992,338.62401 180.026,341.035985 180.026,343.94 C180.026,346.844015 180.853992,349.25599 182.51,351.176 Z M205.362,356 L205.362,331.808 L213.57,331.808 C216.282014,331.808 218.441992,332.521993 220.05,333.95 C221.658008,335.378007 222.462,337.171989 222.462,339.332 C222.462,340.940008 221.988005,342.367994 221.04,343.616 C220.091995,344.864006 218.766009,345.751997 217.062,346.28 L222.462,356 L219.978,356 L214.83,346.784 L213.354,346.856 L207.738,346.856 L207.738,356 L205.362,356 Z M207.738,344.588 L213.57,344.588 C215.51401,344.588 217.073994,344.090005 218.25,343.094 C219.426006,342.097995 220.014,340.844008 220.014,339.332 C220.014,337.843993 219.426006,336.596005 218.25,335.588 C217.073994,334.579995 215.51401,334.076 213.57,334.076 L207.738,334.076 L207.738,344.588 Z M241.49,353.624 L252.506,353.624 L252.506,356 L239.114,356 L239.114,331.808 L241.49,331.808 L241.49,353.624 Z M271.002,353.552 C269.201991,355.376009 267.018013,356.288 264.45,356.288 C261.881987,356.288 259.692009,355.382009 257.88,353.57 C256.067991,351.757991 255.162,349.568013 255.162,347 C255.162,344.431987 256.067991,342.242009 257.88,340.43 C259.692009,338.617991 261.881987,337.712 264.45,337.712 C267.018013,337.712 269.207991,338.617991 271.02,340.43 C272.832009,342.242009 273.738,344.431987 273.738,347 C273.738,349.544013 272.826009,351.727991 271.002,353.552 Z M264.486,354.02 C266.43001,354.02 268.067993,353.342007 269.4,351.986 C270.732007,350.629993 271.398,348.96801 271.398,347 C271.398,345.03199 270.732007,343.364007 269.4,341.996 C268.067993,340.627993 266.43001,339.944 264.486,339.944 C262.56599,339.944 260.934007,340.627993 259.59,341.996 C258.245993,343.364007 257.574,345.03199 257.574,347 C257.574,348.96801 258.245993,350.629993 259.59,351.986 C260.934007,353.342007 262.56599,354.02 264.486,354.02 Z M293.926,338.036 L296.338,338.036 L296.338,354.452 C296.314,357.068013 295.372009,359.257991 293.512,361.022 C291.651991,362.786009 289.498012,363.668 287.05,363.668 C284.817989,363.668 282.916008,363.074006 281.344,361.886 C279.771992,360.697994 278.710003,359.360007 278.158,357.872 L280.102,356.9 C280.558002,358.124006 281.421994,359.191995 282.694,360.104 C283.966006,361.016005 285.417992,361.472 287.05,361.472 C288.97001,361.472 290.595993,360.770007 291.928,359.366 C293.260007,357.961993 293.938,356.324009 293.962,354.452 L293.926,354.452 L293.926,353.12 C292.101991,355.256011 289.762014,356.324 286.906,356.324 C284.337987,356.324 282.148009,355.418009 280.336,353.606 C278.523991,351.793991 277.618,349.604013 277.618,347.036 C277.618,344.467987 278.523991,342.278009 280.336,340.466 C282.148009,338.653991 284.337987,337.748 286.906,337.748 C289.738014,337.748 292.077991,338.815989 293.926,340.952 L293.926,338.036 Z M286.942,354.092 C288.88601,354.092 290.523993,353.414007 291.856,352.058 C293.188007,350.701993 293.854,349.04001 293.854,347.072 C293.854,345.10399 293.188007,343.442007 291.856,342.086 C290.523993,340.729993 288.88601,340.052 286.942,340.052 C285.02199,340.052 283.390007,340.729993 282.046,342.086 C280.701993,343.442007 280.03,345.10399 280.03,347.072 C280.03,349.04001 280.701993,350.701993 282.046,352.058 C283.390007,353.414007 285.02199,354.092 286.942,354.092 Z M305.042,332.6 C304.777999,332.888001 304.442002,333.032 304.034,333.032 C303.625998,333.032 303.284001,332.888001 303.008,332.6 C302.731999,332.311999 302.594,331.976002 302.594,331.592 C302.594,331.207998 302.731999,330.872001 303.008,330.584 C303.284001,330.295999 303.625998,330.152 304.034,330.152 C304.442002,330.152 304.783999,330.295999 305.06,330.584 C305.336001,330.872001 305.474,331.207998 305.474,331.592 C305.474,331.976002 305.330001,332.311999 305.042,332.6 Z M302.846,356 L302.846,338 L305.222,338 L305.222,356 L302.846,356 Z M319.722,356.288 C317.153987,356.288 314.964009,355.382009 313.152,353.57 C311.339991,351.757991 310.434,349.568013 310.434,347 C310.434,344.431987 311.339991,342.242009 313.152,340.43 C314.964009,338.617991 317.153987,337.712 319.722,337.712 C321.354008,337.712 322.871993,338.113996 324.276,338.918 C325.680007,339.722004 326.789996,340.795993 327.606,342.14 L325.446,343.184 C324.797997,342.199995 323.970005,341.420003 322.962,340.844 C321.953995,340.267997 320.874006,339.98 319.722,339.98 C317.77799,339.98 316.140007,340.657993 314.808,342.014 C313.475993,343.370007 312.81,345.03199 312.81,347 C312.81,348.96801 313.475993,350.629993 314.808,351.986 C316.140007,353.342007 317.77799,354.02 319.722,354.02 C320.874006,354.02 321.953995,353.732003 322.962,353.156 C323.970005,352.579997 324.797997,351.800005 325.446,350.816 L327.606,351.86 C326.789996,353.204007 325.680007,354.277996 324.276,355.082 C322.871993,355.886004 321.354008,356.288 319.722,356.288 Z M354.446,356.288 C350.893982,356.288 348.056011,355.106012 345.932,352.742 C343.807989,350.377988 342.746,347.444018 342.746,343.94 C342.746,340.411982 343.807989,337.466012 345.932,335.102 C348.056011,332.737988 350.893982,331.556 354.446,331.556 C356.774012,331.556 358.813991,332.095995 360.566,333.176 C362.318009,334.256005 363.661995,335.731991 364.598,337.604 L362.366,338.9 C361.621996,337.339992 360.560007,336.104005 359.18,335.192 C357.799993,334.279995 356.222009,333.824 354.446,333.824 C351.709986,333.824 349.520008,334.77799 347.876,336.686 C346.231992,338.59401 345.41,341.011985 345.41,343.94 C345.41,346.844015 346.231992,349.25599 347.876,351.176 C349.520008,353.09601 351.709986,354.056 354.446,354.056 C356.846012,354.056 358.843992,353.258008 360.44,351.662 C362.036008,350.065992 362.977999,348.044012 363.266,345.596 L355.418,345.596 L355.418,343.472 L365.75,343.472 L365.75,356 L363.59,356 L363.59,351.14 C362.701996,352.748008 361.472008,354.007995 359.9,354.92 C358.327992,355.832005 356.51001,356.288 354.446,356.288 Z M386.514,338 L388.89,338 L388.89,356 L386.514,356 L386.514,353.084 C384.665991,355.220011 382.326014,356.288 379.494,356.288 C376.925987,356.288 374.736009,355.382009 372.924,353.57 C371.111991,351.757991 370.206,349.568013 370.206,347 C370.206,344.431987 371.111991,342.242009 372.924,340.43 C374.736009,338.617991 376.925987,337.712 379.494,337.712 C382.350014,337.712 384.689991,338.779989 386.514,340.916 L386.514,338 Z M379.53,354.02 C381.47401,354.02 383.111993,353.342007 384.444,351.986 C385.776007,350.629993 386.442,348.96801 386.442,347 C386.442,345.03199 385.776007,343.370007 384.444,342.014 C383.111993,340.657993 381.47401,339.98 379.53,339.98 C377.60999,339.98 375.972007,340.657993 374.616,342.014 C373.259993,343.370007 372.582,345.03199 372.582,347 C372.582,348.96801 373.259993,350.629993 374.616,351.986 C375.972007,353.342007 377.60999,354.02 379.53,354.02 Z M404.614,351.968 L405.802,353.804 C405.657999,353.996001 405.466001,354.223999 405.226,354.488 C404.985999,354.752001 404.446004,355.117998 403.606,355.586 C402.765996,356.054002 401.902004,356.288 401.014,356.288 C399.501992,356.288 398.236005,355.838005 397.216,354.938 C396.195995,354.037996 395.686,352.736009 395.686,351.032 L395.686,340.16 L392.806,340.16 L392.806,337.964 L395.686,337.964 L395.686,332.276 L398.062,331.988 L398.062,337.964 L403.498,337.964 L403.498,340.16 L398.062,340.16 L398.062,350.492 C398.062,351.596006 398.403997,352.471997 399.088,353.12 C399.772003,353.768003 400.557996,354.092 401.446,354.092 C401.998003,354.092 402.537997,353.924002 403.066,353.588 C403.594003,353.251998 403.983999,352.922002 404.236,352.598 C404.488001,352.273998 404.614,352.064 404.614,351.968 Z M417.278,353.912 C418.886008,353.912 420.325994,353.456005 421.598,352.544 C422.870006,351.631995 423.733998,350.564006 424.19,349.34 L426.206,350.06 C425.653997,351.572008 424.580008,352.963994 422.984,354.236 C421.387992,355.508006 419.486011,356.132 417.278,356.108 C415.26199,356.108 413.420008,355.484006 411.752,354.236 C410.083992,352.987994 408.950003,351.39201 408.35,349.448 C408.109999,348.655996 407.99,347.792005 407.99,346.856 C407.99,344.263987 408.889991,342.068009 410.69,340.268 C412.490009,338.467991 414.685987,337.556 417.278,337.532 C419.630012,337.556 421.681991,338.347992 423.434,339.908 C425.186009,341.468008 426.193999,343.399988 426.458,345.704 C426.482,345.824001 426.494,345.979999 426.494,346.172 L410.762,349.016 C411.170002,350.456007 411.985994,351.637995 413.21,352.562 C414.434006,353.486005 415.789993,353.936 417.278,353.912 Z M417.062,339.728 C415.261991,339.752 413.720006,340.399994 412.436,341.672 C411.151994,342.944006 410.462,344.467991 410.366,346.244 C410.366,346.316 410.372,346.441999 410.384,346.622 C410.396,346.802001 410.402,346.951999 410.402,347.072 L423.794,344.66 C423.337998,343.195993 422.486006,342.002005 421.238,341.078 C419.989994,340.153995 418.598008,339.704 417.062,339.728 Z" id="OR-Logic-Gate-Copy" fill="#23ABE3"></path>
    </g>
</svg>