<?xml version="1.0"?>
<!DOCTYPE svg PUBLIC "-//W3C//DTD SVG 1.1//EN" "http://www.w3.org/Graphics/SVG/1.1/DTD/svg11.dtd">
<svg viewBox="88 32 784 426" preserveAspectRatio="xMinYMin meet" version="1.1" xmlns="http://www.w3.org/2000/svg">
<g class="Diode">
<line x1="256" y1="224" x2="233" y2="224" stroke="#000000" stroke-opacity="1" stroke-width="3" stroke-linecap="round" fill="none" />
<line x1="214" y1="224" x2="192" y2="224" stroke="#000000" stroke-opacity="1" stroke-width="3" stroke-linecap="round" fill="none" />
<polygon fill="#000000" fill-opacity="1" stroke="none" points="233,237 233,211 214,224 " />
<polygon stroke="#000000" stroke-opacity="1" stroke-width="2" fill="none" points="233,237 233,211 214,224 " />
<line x1="214" y1="237" x2="214" y2="211" stroke="#000000" stroke-opacity="1" stroke-width="3" stroke-linecap="round" fill="none" />
</g>
<g class="Diode">
<line x1="256" y1="288" x2="233" y2="288" stroke="#000000" stroke-opacity="1" stroke-width="3" stroke-linecap="round" fill="none" />
<line x1="214" y1="288" x2="192" y2="288" stroke="#000000" stroke-opacity="1" stroke-width="3" stroke-linecap="round" fill="none" />
<polygon fill="#000000" fill-opacity="1" stroke="none" points="233,301 233,275 214,288 " />
<polygon stroke="#000000" stroke-opacity="1" stroke-width="2" fill="none" points="233,301 233,275 214,288 " />
<line x1="214" y1="301" x2="214" y2="275" stroke="#000000" stroke-opacity="1" stroke-width="3" stroke-linecap="round" fill="none" />
</g>
<g class="DC Rail">
<line x1="278" y1="81" x2="298" y2="81" stroke="#000000" stroke-opacity="1" stroke-width="3" stroke-linecap="round" fill="none" />
<line x1="288" y1="128" x2="288" y2="81" stroke="#000000" stroke-opacity="1" stroke-width="3" stroke-linecap="round" fill="none" />
<text x="263" y="77" font-family="sans-serif" font-size="15">+3.3V</text>
</g>
<g class="Resistor">
<line x1="288" y1="128" x2="288" y2="144" stroke="#000000" stroke-opacity="1" stroke-width="3" stroke-linecap="round" fill="none" />
<line x1="288" y1="176" x2="288" y2="192" stroke="#000000" stroke-opacity="1" stroke-width="3" stroke-linecap="round" fill="none" />
<polyline stroke="#000000" stroke-opacity="1" stroke-linecap="round" stroke-linejoin="round" stroke-width="3" fill="none" points="288,144 296,146.6667 288,149.3333 280,152 288,154.6667 " />
<polyline stroke="#000000" stroke-opacity="1" stroke-linecap="round" stroke-linejoin="round" stroke-width="3" fill="none" points="288,154.6667 296,157.3333 288,160 280,162.6667 288,165.3333 " />
<polyline stroke="#000000" stroke-opacity="1" stroke-linecap="round" stroke-linejoin="round" stroke-width="3" fill="none" points="288,165.3333 296,168 288,170.6667 280,173.3333 288,176 " />
</g>
<g class="Wire">
<line x1="288" y1="224" x2="288" y2="192" stroke="#000000" stroke-opacity="1" stroke-width="1.5" stroke-linecap="round" fill="none" />
<ellipse cx="288" cy="224" rx="4" ry="4" fill="#000000" fill-opacity="1" stroke="none" />
</g>
<g class="Port">
<polygon fill="#FFFFFF" fill-opacity="0.831372549019608" stroke="none" points="352,256 360,246 416,246 416,266 360,266 " />
<polygon stroke="#000000" stroke-opacity="1" stroke-width="1" fill="none" points="352,256 360,246 416,246 416,266 360,266 " />
<text x="379" y="261" font-family="sans-serif" font-size="15">3</text>
<text x="424" y="261" font-family="sans-serif" font-size="15">Out</text>
</g>
<g class="Wire">
<line x1="288" y1="256" x2="288" y2="224" stroke="#000000" stroke-opacity="1" stroke-width="1.5" stroke-linecap="round" fill="none" />
<ellipse cx="288" cy="256" rx="4" ry="4" fill="#000000" fill-opacity="1" stroke="none" />
<ellipse cx="288" cy="224" rx="4" ry="4" fill="#000000" fill-opacity="1" stroke="none" />
</g>
<g class="Wire">
<line x1="352" y1="256" x2="288" y2="256" stroke="#000000" stroke-opacity="1" stroke-width="1.5" stroke-linecap="round" fill="none" />
<ellipse cx="288" cy="256" rx="4" ry="4" fill="#000000" fill-opacity="1" stroke="none" />
</g>
<g class="Wire">
<line x1="256" y1="224" x2="288" y2="224" stroke="#000000" stroke-opacity="1" stroke-width="1.5" stroke-linecap="round" fill="none" />
<ellipse cx="288" cy="224" rx="4" ry="4" fill="#000000" fill-opacity="1" stroke="none" />
</g>
<g class="Wire">
<line x1="256" y1="288" x2="288" y2="288" stroke="#000000" stroke-opacity="1" stroke-width="1.5" stroke-linecap="round" fill="none" />
</g>
<g class="Wire">
<line x1="288" y1="288" x2="288" y2="256" stroke="#000000" stroke-opacity="1" stroke-width="1.5" stroke-linecap="round" fill="none" />
<ellipse cx="288" cy="256" rx="4" ry="4" fill="#000000" fill-opacity="1" stroke="none" />
</g>
<g class="Logical  AND">
<rect x="152" y="120" width="96" height="44" fill="#FFFFFF" fill-opacity="0.831372549019608" stroke="none" />
<rect x="152" y="120" width="96" height="44" rx="5" ry="5" stroke="#000000" stroke-opacity="1" stroke-width="2" fill="none" />
<text x="160" y="138" font-family="sans-serif" font-size="15">Logical </text>
<text x="185" y="156" font-family="sans-serif" font-size="15">AND</text>
</g>
<g class="Diode">
<line x1="608" y1="224" x2="630" y2="224" stroke="#000000" stroke-opacity="1" stroke-width="3" stroke-linecap="round" fill="none" />
<line x1="649" y1="224" x2="672" y2="224" stroke="#000000" stroke-opacity="1" stroke-width="3" stroke-linecap="round" fill="none" />
<polygon fill="#000000" fill-opacity="1" stroke="none" points="630,211 630,237 649,224 " />
<polygon stroke="#000000" stroke-opacity="1" stroke-width="2" fill="none" points="630,211 630,237 649,224 " />
<line x1="649" y1="211" x2="649" y2="237" stroke="#000000" stroke-opacity="1" stroke-width="3" stroke-linecap="round" fill="none" />
</g>
<g class="Resistor">
<line x1="704" y1="288" x2="704" y2="304" stroke="#000000" stroke-opacity="1" stroke-width="3" stroke-linecap="round" fill="none" />
<line x1="704" y1="336" x2="704" y2="352" stroke="#000000" stroke-opacity="1" stroke-width="3" stroke-linecap="round" fill="none" />
<polyline stroke="#000000" stroke-opacity="1" stroke-linecap="round" stroke-linejoin="round" stroke-width="3" fill="none" points="704,304 712,306.6667 704,309.3333 696,312 704,314.6667 " />
<polyline stroke="#000000" stroke-opacity="1" stroke-linecap="round" stroke-linejoin="round" stroke-width="3" fill="none" points="704,314.6667 712,317.3333 704,320 696,322.6667 704,325.3333 " />
<polyline stroke="#000000" stroke-opacity="1" stroke-linecap="round" stroke-linejoin="round" stroke-width="3" fill="none" points="704,325.3333 712,328 704,330.6667 696,333.3333 704,336 " />
<ellipse cx="704" cy="288" rx="4" ry="4" fill="#000000" fill-opacity="1" stroke="none" />
</g>
<g class="Port">
<polygon fill="#FFFFFF" fill-opacity="0.831372549019608" stroke="none" points="768,256 776,246 832,246 832,266 776,266 " />
<polygon stroke="#000000" stroke-opacity="1" stroke-width="1" fill="none" points="768,256 776,246 832,246 832,266 776,266 " />
<text x="795" y="261" font-family="sans-serif" font-size="15">7</text>
</g>
<g class="Wire">
<line x1="768" y1="256" x2="704" y2="256" stroke="#000000" stroke-opacity="1" stroke-width="1.5" stroke-linecap="round" fill="none" />
<ellipse cx="704" cy="256" rx="4" ry="4" fill="#000000" fill-opacity="1" stroke="none" />
</g>
<g class="Wire">
<line x1="672" y1="288" x2="704" y2="288" stroke="#000000" stroke-opacity="1" stroke-width="1.5" stroke-linecap="round" fill="none" />
<ellipse cx="704" cy="288" rx="4" ry="4" fill="#000000" fill-opacity="1" stroke="none" />
</g>
<g class="Wire">
<line x1="704" y1="288" x2="704" y2="256" stroke="#000000" stroke-opacity="1" stroke-width="1.5" stroke-linecap="round" fill="none" />
<ellipse cx="704" cy="288" rx="4" ry="4" fill="#000000" fill-opacity="1" stroke="none" />
<ellipse cx="704" cy="256" rx="4" ry="4" fill="#000000" fill-opacity="1" stroke="none" />
</g>
<g class="Logical  OR">
<rect x="568" y="120" width="96" height="44" fill="#FFFFFF" fill-opacity="0.831372549019608" stroke="none" />
<rect x="568" y="120" width="96" height="44" rx="5" ry="5" stroke="#000000" stroke-opacity="1" stroke-width="2" fill="none" />
<text x="576" y="138" font-family="sans-serif" font-size="15">Logical </text>
<text x="606" y="156" font-family="sans-serif" font-size="15">OR</text>
</g>
<g class="Port">
<polygon fill="#FFFFFF" fill-opacity="0.831372549019608" stroke="none" points="192,224 184,234 128,234 128,214 184,214 " />
<polygon stroke="#000000" stroke-opacity="1" stroke-width="1" fill="none" points="192,224 184,234 128,234 128,214 184,214 " />
<text x="155" y="229" font-family="sans-serif" font-size="15">1</text>
</g>
<g class="Port">
<polygon fill="#FFFFFF" fill-opacity="0.831372549019608" stroke="none" points="192,288 184,298 128,298 128,278 184,278 " />
<polygon stroke="#000000" stroke-opacity="1" stroke-width="1" fill="none" points="192,288 184,298 128,298 128,278 184,278 " />
<text x="155" y="293" font-family="sans-serif" font-size="15">2</text>
</g>
<g class="Ground">
<line x1="704" y1="352" x2="704" y2="416" stroke="#000000" stroke-opacity="1" stroke-width="3" stroke-linecap="round" fill="none" />
<line x1="714" y1="416" x2="694" y2="416" stroke="#000000" stroke-opacity="1" stroke-width="3" stroke-linecap="round" fill="none" />
<line x1="710" y1="421" x2="698" y2="421" stroke="#000000" stroke-opacity="1" stroke-width="3" stroke-linecap="round" fill="none" />
<line x1="706" y1="426" x2="702" y2="426" stroke="#000000" stroke-opacity="1" stroke-width="3" stroke-linecap="round" fill="none" />
</g>
<g class="Wire">
<line x1="704" y1="224" x2="704" y2="256" stroke="#000000" stroke-opacity="1" stroke-width="1.5" stroke-linecap="round" fill="none" />
<ellipse cx="704" cy="256" rx="4" ry="4" fill="#000000" fill-opacity="1" stroke="none" />
</g>
<g class="Diode">
<line x1="608" y1="288" x2="630" y2="288" stroke="#000000" stroke-opacity="1" stroke-width="3" stroke-linecap="round" fill="none" />
<line x1="649" y1="288" x2="672" y2="288" stroke="#000000" stroke-opacity="1" stroke-width="3" stroke-linecap="round" fill="none" />
<polygon fill="#000000" fill-opacity="1" stroke="none" points="630,275 630,301 649,288 " />
<polygon stroke="#000000" stroke-opacity="1" stroke-width="2" fill="none" points="630,275 630,301 649,288 " />
<line x1="649" y1="275" x2="649" y2="301" stroke="#000000" stroke-opacity="1" stroke-width="3" stroke-linecap="round" fill="none" />
</g>
<g class="Wire">
<line x1="672" y1="224" x2="704" y2="224" stroke="#000000" stroke-opacity="1" stroke-width="1.5" stroke-linecap="round" fill="none" />
</g>
<g class="Port">
<polygon fill="#FFFFFF" fill-opacity="0.831372549019608" stroke="none" points="608,224 600,234 544,234 544,214 600,214 " />
<polygon stroke="#000000" stroke-opacity="1" stroke-width="1" fill="none" points="608,224 600,234 544,234 544,214 600,214 " />
<text x="571" y="229" font-family="sans-serif" font-size="15">4</text>
</g>
<g class="Port">
<polygon fill="#FFFFFF" fill-opacity="0.831372549019608" stroke="none" points="608,288 600,298 544,298 544,278 600,278 " />
<polygon stroke="#000000" stroke-opacity="1" stroke-width="1" fill="none" points="608,288 600,298 544,298 544,278 600,278 " />
<text x="571" y="293" font-family="sans-serif" font-size="15">5</text>
</g>
</svg>
