<?xml version="1.0" encoding="UTF-8"?>
<svg width="900px" height="380px" viewBox="0 0 900 380" version="1.1" xmlns="http://www.w3.org/2000/svg" xmlns:xlink="http://www.w3.org/1999/xlink">
    <!-- Generator: Sketch 52.5 (67469) - http://www.bohemiancoding.com/sketch -->
    <title>Logical_AND_OR_Gates</title>
    <desc>Created with Sketch.</desc>
    <g id="Logical_AND_OR_Gates" stroke="none" stroke-width="1" fill="none" fill-rule="evenodd">
        <rect id="Rectangle" stroke="#3D3530" stroke-width="2" fill="#EEEEEE" x="1" y="1" width="898" height="402"></rect>
        <rect id="Rectangle-Copy" stroke="#3D3530" stroke-width="2" x="1" y="317" width="449" height="62"></rect>
        <rect id="Rectangle-Copy-3" stroke="#3D3530" stroke-width="2" x="450" y="317" width="449" height="62"></rect>
        <rect id="Rectangle-Copy-4" stroke="#3D3530" stroke-width="2" x="450" y="1" width="449" height="378"></rect>
        <g id="AND_Gate" transform="translate(472.000000, 16.000000)">
            <polyline id="Resistor" stroke="#3D3530" stroke-width="3" stroke-linejoin="round" transform="translate(216.000000, 114.000000) rotate(90.000000) translate(-216.000000, -114.000000) " points="181 114 186 114 191 101 201 127 211 101 221 127 231 101 241 127 246 114 251 114"></polyline>
            <g id="Schottky_Diode" transform="translate(150.000000, 175.000000) rotate(-180.000000) translate(-150.000000, -175.000000) translate(115.000000, 162.000000)">
                <polygon id="Path-2" fill="#3D3530" points="24.5 0 44 13 24.5 26"></polygon>
                <path d="M44,13 L70,13" id="Path-2-Copy" stroke="#3D3530" stroke-width="3"></path>
                <path d="M0,13 L24.5,13" id="Path-3" stroke="#3D3530" stroke-width="3"></path>
                <polyline id="Path" stroke="#3D3530" stroke-width="3" stroke-linejoin="round" points="39 5 39 1 44 1 44 25 49 25 49 21"></polyline>
            </g>
            <g id="Schottky_Diode-Copy" transform="translate(150.000000, 239.000000) rotate(-180.000000) translate(-150.000000, -239.000000) translate(115.000000, 226.000000)">
                <polygon id="Path-2" fill="#3D3530" points="24.5 0 44 13 24.5 26"></polygon>
                <path d="M44,13 L70,13" id="Path-2-Copy" stroke="#3D3530" stroke-width="3"></path>
                <path d="M0,13 L24.5,13" id="Path-3" stroke="#3D3530" stroke-width="3"></path>
                <polyline id="Path" stroke="#3D3530" stroke-width="3" stroke-linejoin="round" points="39 5 39 1 44 1 44 25 49 25 49 21"></polyline>
            </g>
            <g id="DC_Rail" transform="translate(216.000000, 53.500000) rotate(-90.000000) translate(-216.000000, -53.500000) translate(190.500000, 38.500000)" stroke="#3D3530" stroke-width="3">
                <path d="M-5.32907052e-15,15 L50,15" id="Path-2-Copy"></path>
                <path d="M50,-4.26325641e-14 L50,30" id="Path-4"></path>
            </g>
            <g id="Labels">
                <rect id="Rectangle" stroke="#3D3530" stroke-width="2" fill="#F8FAE4" x="278" y="193" width="113" height="28" rx="5"></rect>
                <rect id="Rectangle-Copy" stroke="#3D3530" stroke-width="2" fill="#F8FAE4" x="1" y="226" width="113" height="28" rx="5"></rect>
                <rect id="Rectangle-Copy-2" stroke="#3D3530" stroke-width="2" fill="#F8FAE4" x="1" y="160" width="113" height="28" rx="5"></rect>
                <path d="M307.408,203.896 C308.368005,204.744004 308.848,205.775994 308.848,206.992 C308.848,208.208006 308.372005,209.247996 307.42,210.112 C306.467995,210.976004 305.328007,211.408 304,211.408 C302.671993,211.408 301.532005,210.976004 300.58,210.112 C299.627995,209.247996 299.152,208.208006 299.152,206.992 C299.152,205.775994 299.627995,204.740004 300.58,203.884 C301.532005,203.027996 302.671993,202.6 304,202.6 C305.328007,202.6 306.463995,203.031996 307.408,203.896 Z M306.16,209.512 C306.656002,208.855997 306.904,208.016005 306.904,206.992 C306.904,205.967995 306.656002,205.132003 306.16,204.484 C305.663998,203.835997 304.944005,203.512 304,203.512 C303.055995,203.512 302.336002,203.839997 301.84,204.496 C301.343998,205.152003 301.096,205.983995 301.096,206.992 C301.096,208.000005 301.343998,208.831997 301.84,209.488 C302.336002,210.144003 303.055995,210.472 304,210.472 C304.944005,210.472 305.663998,210.152003 306.16,209.512 Z M323.272,210.808 L320.056,211.408 C319.927999,211.151999 319.800001,210.640004 319.672,209.872 C318.679995,210.896005 317.632006,211.408 316.528,211.408 C314.54399,211.408 313.552,210.208012 313.552,207.808 L313.552,206.296 C313.552,205.095994 313.436001,204.328002 313.204,203.992 C312.971999,203.655998 312.456004,203.488 311.656,203.488 L311.656,203.008 L315.256,203.008 L315.256,207.688 C315.256,209.400009 315.863994,210.256 317.08,210.256 C317.624003,210.256 318.191997,210.028002 318.784,209.572 C319.376003,209.115998 319.672,208.552003 319.672,207.88 L319.672,206.296 C319.672,205.095994 319.556001,204.328002 319.324,203.992 C319.091999,203.655998 318.568004,203.488 317.752,203.488 L317.752,203.008 L321.352,203.008 L321.352,207.496 C321.352,208.696006 321.467999,209.463998 321.7,209.8 C321.932001,210.136002 322.455996,210.304 323.272,210.304 L323.272,210.808 Z M326.848,203.848 L325.6,203.848 L325.6,203.272 C326.288003,203.127999 326.791998,202.816002 327.112,202.336 C327.432002,201.855998 327.64,201.200004 327.736,200.368 L328.552,200.368 L328.552,203.008 L330.64,203.008 L330.64,203.848 L328.552,203.848 L328.552,208.648 C328.552,209.800006 328.911996,210.376 329.632,210.376 C330.096002,210.376 330.615997,210.104003 331.192,209.56 L331.6,209.968 C331.263998,210.368002 330.860002,210.695999 330.388,210.952 C329.915998,211.208001 329.480002,211.336 329.08,211.336 C328.391997,211.336 327.848002,211.112002 327.448,210.664 C327.047998,210.215998 326.848,209.544004 326.848,208.648 L326.848,203.848 Z M341.728,209.488 C342.192002,208.831997 342.424,208.000005 342.424,206.992 C342.424,205.983995 342.192002,205.160003 341.728,204.52 C341.263998,203.879997 340.592004,203.56 339.712,203.56 C339.167997,203.56 338.684002,203.727998 338.26,204.064 C337.835998,204.400002 337.504001,204.855997 337.264,205.432 L337.264,208.528 C337.504001,209.120003 337.835998,209.587998 338.26,209.932 C338.684002,210.276002 339.167997,210.448 339.712,210.448 C340.592004,210.448 341.263998,210.128003 341.728,209.488 Z M337.264,213.712 C337.264,214.896006 337.379999,215.655998 337.612,215.992 C337.844001,216.328002 338.359996,216.496 339.16,216.496 L339.16,217 L333.664,217 L333.664,216.496 C334.464004,216.496 334.979999,216.332002 335.212,216.004 C335.444001,215.675998 335.56,214.912006 335.56,213.712 L335.56,206.488 C335.56,205.287994 335.444001,204.524002 335.212,204.196 C334.979999,203.867998 334.464004,203.704 333.664,203.704 L333.664,203.2 L336.88,202.6 C336.976,202.776001 337.095999,203.263996 337.24,204.064 C338.056004,203.087995 339.047994,202.6 340.216,202.6 C341.352006,202.6 342.327996,203.027996 343.144,203.884 C343.960004,204.740004 344.368,205.775994 344.368,206.992 C344.368,208.208006 343.960004,209.247996 343.144,210.112 C342.327996,210.976004 341.352006,211.408 340.216,211.408 C339.031994,211.408 338.048004,210.928005 337.264,209.968 L337.264,213.712 Z M358.792,210.808 L355.576,211.408 C355.447999,211.151999 355.320001,210.640004 355.192,209.872 C354.199995,210.896005 353.152006,211.408 352.048,211.408 C350.06399,211.408 349.072,210.208012 349.072,207.808 L349.072,206.296 C349.072,205.095994 348.956001,204.328002 348.724,203.992 C348.491999,203.655998 347.976004,203.488 347.176,203.488 L347.176,203.008 L350.776,203.008 L350.776,207.688 C350.776,209.400009 351.383994,210.256 352.6,210.256 C353.144003,210.256 353.711997,210.028002 354.304,209.572 C354.896003,209.115998 355.192,208.552003 355.192,207.88 L355.192,206.296 C355.192,205.095994 355.076001,204.328002 354.844,203.992 C354.611999,203.655998 354.088004,203.488 353.272,203.488 L353.272,203.008 L356.872,203.008 L356.872,207.496 C356.872,208.696006 356.987999,209.463998 357.22,209.8 C357.452001,210.136002 357.975996,210.304 358.792,210.304 L358.792,210.808 Z M362.368,203.848 L361.12,203.848 L361.12,203.272 C361.808003,203.127999 362.311998,202.816002 362.632,202.336 C362.952002,201.855998 363.16,201.200004 363.256,200.368 L364.072,200.368 L364.072,203.008 L366.16,203.008 L366.16,203.848 L364.072,203.848 L364.072,208.648 C364.072,209.800006 364.431996,210.376 365.152,210.376 C365.616002,210.376 366.135997,210.104003 366.712,209.56 L367.12,209.968 C366.783998,210.368002 366.380002,210.695999 365.908,210.952 C365.435998,211.208001 365.000002,211.336 364.6,211.336 C363.911997,211.336 363.368002,211.112002 362.968,210.664 C362.567998,210.215998 362.368,209.544004 362.368,208.648 L362.368,203.848 Z" id="output-copy-2" fill="#1A80AA"></path>
                <path d="M29.408,179 L23.912,179 L23.912,178.496 C24.712004,178.496 25.2279988,178.328002 25.46,177.992 C25.6920012,177.655998 25.808,176.888006 25.808,175.688 L25.808,174.488 C25.808,173.303994 25.6920012,172.544002 25.46,172.208 C25.2279988,171.871998 24.712004,171.704 23.912,171.704 L23.912,171.2 L27.512,170.6 L27.512,175.688 C27.512,176.888006 27.6279988,177.655998 27.86,177.992 C28.0920012,178.328002 28.607996,178.496 29.408,178.496 L29.408,179 Z M27.704,167.168 C27.704,167.472002 27.600001,167.727999 27.392,167.936 C27.183999,168.144001 26.9360014,168.248 26.648,168.248 C26.3599986,168.248 26.112001,168.144001 25.904,167.936 C25.695999,167.727999 25.592,167.472002 25.592,167.168 C25.592,166.879999 25.695999,166.632001 25.904,166.424 C26.112001,166.215999 26.3599986,166.112 26.648,166.112 C26.9360014,166.112 27.183999,166.215999 27.392,166.424 C27.600001,166.632001 27.704,166.879999 27.704,167.168 Z M35.576,172.328 C36.4880046,171.175994 37.5999934,170.6 38.912,170.6 C39.9520052,170.6 40.7319974,170.927997 41.252,171.584 C41.7720026,172.240003 42.032,173.103995 42.032,174.176 L42.032,175.688 C42.032,176.888006 42.1479988,177.655998 42.38,177.992 C42.6120012,178.328002 43.127996,178.496 43.928,178.496 L43.928,179 L38.432,179 L38.432,178.496 C39.2160039,178.496 39.7279988,178.324002 39.968,177.98 C40.2080012,177.635998 40.328,176.872006 40.328,175.688 L40.328,174.296 C40.328,172.583991 39.6640066,171.728 38.336,171.728 C37.6479966,171.728 37.0160029,171.967998 36.44,172.448 C35.8639971,172.928002 35.576,173.487997 35.576,174.128 L35.576,175.688 C35.576,176.920006 35.671999,177.695998 35.864,178.016 C36.056001,178.336002 36.5199963,178.496 37.256,178.496 L37.256,179 L31.976,179 L31.976,178.496 C32.776004,178.496 33.2919988,178.328002 33.524,177.992 C33.7560012,177.655998 33.872,176.888006 33.872,175.688 L33.872,174.488 C33.872,173.303994 33.7560012,172.544002 33.524,172.208 C33.2919988,171.871998 32.776004,171.704 31.976,171.704 L31.976,171.2 L35.168,170.6 C35.3120007,170.904002 35.4479994,171.479996 35.576,172.328 Z M54.104,177.488 C54.5680023,176.831997 54.8,176.000005 54.8,174.992 C54.8,173.983995 54.5680023,173.160003 54.104,172.52 C53.6399977,171.879997 52.9680044,171.56 52.088,171.56 C51.5439973,171.56 51.0600021,171.727998 50.636,172.064 C50.2119979,172.400002 49.8800012,172.855997 49.64,173.432 L49.64,176.528 C49.8800012,177.120003 50.2119979,177.587998 50.636,177.932 C51.0600021,178.276002 51.5439973,178.448 52.088,178.448 C52.9680044,178.448 53.6399977,178.128003 54.104,177.488 Z M49.64,181.712 C49.64,182.896006 49.7559988,183.655998 49.988,183.992 C50.2200012,184.328002 50.735996,184.496 51.536,184.496 L51.536,185 L46.04,185 L46.04,184.496 C46.840004,184.496 47.3559988,184.332002 47.588,184.004 C47.8200012,183.675998 47.936,182.912006 47.936,181.712 L47.936,174.488 C47.936,173.287994 47.8200012,172.524002 47.588,172.196 C47.3559988,171.867998 46.840004,171.704 46.04,171.704 L46.04,171.2 L49.256,170.6 C49.3520005,170.776001 49.4719993,171.263996 49.616,172.064 C50.4320041,171.087995 51.4239942,170.6 52.592,170.6 C53.7280057,170.6 54.7039959,171.027996 55.52,171.884 C56.3360041,172.740004 56.744,173.775994 56.744,174.992 C56.744,176.208006 56.3360041,177.247996 55.52,178.112 C54.7039959,178.976004 53.7280057,179.408 52.592,179.408 C51.4079941,179.408 50.4240039,178.928005 49.64,177.968 L49.64,181.712 Z M71.168,178.808 L67.952,179.408 C67.8239994,179.151999 67.6960006,178.640004 67.568,177.872 C66.575995,178.896005 65.5280055,179.408 64.424,179.408 C62.4399901,179.408 61.448,178.208012 61.448,175.808 L61.448,174.296 C61.448,173.095994 61.3320012,172.328002 61.1,171.992 C60.8679988,171.655998 60.352004,171.488 59.552,171.488 L59.552,171.008 L63.152,171.008 L63.152,175.688 C63.152,177.400009 63.7599939,178.256 64.976,178.256 C65.5200027,178.256 66.087997,178.028002 66.68,177.572 C67.272003,177.115998 67.568,176.552003 67.568,175.88 L67.568,174.296 C67.568,173.095994 67.4520012,172.328002 67.22,171.992 C66.9879988,171.655998 66.4640041,171.488 65.648,171.488 L65.648,171.008 L69.248,171.008 L69.248,175.496 C69.248,176.696006 69.3639988,177.463998 69.596,177.8 C69.8280012,178.136002 70.3519959,178.304 71.168,178.304 L71.168,178.808 Z M74.744,171.848 L73.496,171.848 L73.496,171.272 C74.1840034,171.127999 74.6879984,170.816002 75.008,170.336 C75.3280016,169.855998 75.5359995,169.200004 75.632,168.368 L76.448,168.368 L76.448,171.008 L78.536,171.008 L78.536,171.848 L76.448,171.848 L76.448,176.648 C76.448,177.800006 76.8079964,178.376 77.528,178.376 C77.9920023,178.376 78.5119971,178.104003 79.088,177.56 L79.496,177.968 C79.1599983,178.368002 78.7560024,178.695999 78.284,178.952 C77.8119976,179.208001 77.376002,179.336 76.976,179.336 C76.2879966,179.336 75.744002,179.112002 75.344,178.664 C74.943998,178.215998 74.744,177.544004 74.744,176.648 L74.744,171.848 Z M97.184,178.52 C96.7199977,179.016002 96.192003,179.264 95.6,179.264 C94.6399952,179.264 94.0960006,178.800005 93.968,177.872 C92.8959946,178.832005 91.8960046,179.312 90.968,179.312 C90.359997,179.312 89.8480021,179.132002 89.432,178.772 C89.0159979,178.411998 88.808,177.920003 88.808,177.296 C88.808,175.615992 90.511983,174.480003 93.92,173.888 C93.92,172.943995 93.816001,172.288002 93.608,171.92 C93.399999,171.551998 92.9680033,171.368 92.312,171.368 C91.9919984,171.368 91.6840015,171.471999 91.388,171.68 C91.0919985,171.888001 90.944,172.167998 90.944,172.52 C90.944,172.760001 90.8640008,172.959999 90.704,173.12 C90.5439992,173.280001 90.3520011,173.36 90.128,173.36 C89.8879988,173.36 89.6880008,173.280001 89.528,173.12 C89.3679992,172.959999 89.288,172.760001 89.288,172.52 C89.288,171.959997 89.5959969,171.500002 90.212,171.14 C90.8280031,170.779998 91.535996,170.6 92.336,170.6 C93.5040058,170.6 94.3439974,170.855997 94.856,171.368 C95.3680026,171.880003 95.624,172.711994 95.624,173.864 L95.624,177.488 C95.624,178.112003 95.8079982,178.424 96.176,178.424 C96.384001,178.424 96.6079988,178.304001 96.848,178.064 L97.184,178.52 Z M93.92,177.08 L93.92,174.632 C91.711989,175.144003 90.608,175.935995 90.608,177.008 C90.608,177.376002 90.7159989,177.671999 90.932,177.896 C91.1480011,178.120001 91.4159984,178.232 91.736,178.232 C92.328003,178.232 93.0559957,177.848004 93.92,177.08 Z" id="input-a-copy-2" fill="#1A80AA"></path>
                <path d="M29.408,245 L23.912,245 L23.912,244.496 C24.712004,244.496 25.2279988,244.328002 25.46,243.992 C25.6920012,243.655998 25.808,242.888006 25.808,241.688 L25.808,240.488 C25.808,239.303994 25.6920012,238.544002 25.46,238.208 C25.2279988,237.871998 24.712004,237.704 23.912,237.704 L23.912,237.2 L27.512,236.6 L27.512,241.688 C27.512,242.888006 27.6279988,243.655998 27.86,243.992 C28.0920012,244.328002 28.607996,244.496 29.408,244.496 L29.408,245 Z M27.704,233.168 C27.704,233.472002 27.600001,233.727999 27.392,233.936 C27.183999,234.144001 26.9360014,234.248 26.648,234.248 C26.3599986,234.248 26.112001,234.144001 25.904,233.936 C25.695999,233.727999 25.592,233.472002 25.592,233.168 C25.592,232.879999 25.695999,232.632001 25.904,232.424 C26.112001,232.215999 26.3599986,232.112 26.648,232.112 C26.9360014,232.112 27.183999,232.215999 27.392,232.424 C27.600001,232.632001 27.704,232.879999 27.704,233.168 Z M35.576,238.328 C36.4880046,237.175994 37.5999934,236.6 38.912,236.6 C39.9520052,236.6 40.7319974,236.927997 41.252,237.584 C41.7720026,238.240003 42.032,239.103995 42.032,240.176 L42.032,241.688 C42.032,242.888006 42.1479988,243.655998 42.38,243.992 C42.6120012,244.328002 43.127996,244.496 43.928,244.496 L43.928,245 L38.432,245 L38.432,244.496 C39.2160039,244.496 39.7279988,244.324002 39.968,243.98 C40.2080012,243.635998 40.328,242.872006 40.328,241.688 L40.328,240.296 C40.328,238.583991 39.6640066,237.728 38.336,237.728 C37.6479966,237.728 37.0160029,237.967998 36.44,238.448 C35.8639971,238.928002 35.576,239.487997 35.576,240.128 L35.576,241.688 C35.576,242.920006 35.671999,243.695998 35.864,244.016 C36.056001,244.336002 36.5199963,244.496 37.256,244.496 L37.256,245 L31.976,245 L31.976,244.496 C32.776004,244.496 33.2919988,244.328002 33.524,243.992 C33.7560012,243.655998 33.872,242.888006 33.872,241.688 L33.872,240.488 C33.872,239.303994 33.7560012,238.544002 33.524,238.208 C33.2919988,237.871998 32.776004,237.704 31.976,237.704 L31.976,237.2 L35.168,236.6 C35.3120007,236.904002 35.4479994,237.479996 35.576,238.328 Z M54.104,243.488 C54.5680023,242.831997 54.8,242.000005 54.8,240.992 C54.8,239.983995 54.5680023,239.160003 54.104,238.52 C53.6399977,237.879997 52.9680044,237.56 52.088,237.56 C51.5439973,237.56 51.0600021,237.727998 50.636,238.064 C50.2119979,238.400002 49.8800012,238.855997 49.64,239.432 L49.64,242.528 C49.8800012,243.120003 50.2119979,243.587998 50.636,243.932 C51.0600021,244.276002 51.5439973,244.448 52.088,244.448 C52.9680044,244.448 53.6399977,244.128003 54.104,243.488 Z M49.64,247.712 C49.64,248.896006 49.7559988,249.655998 49.988,249.992 C50.2200012,250.328002 50.735996,250.496 51.536,250.496 L51.536,251 L46.04,251 L46.04,250.496 C46.840004,250.496 47.3559988,250.332002 47.588,250.004 C47.8200012,249.675998 47.936,248.912006 47.936,247.712 L47.936,240.488 C47.936,239.287994 47.8200012,238.524002 47.588,238.196 C47.3559988,237.867998 46.840004,237.704 46.04,237.704 L46.04,237.2 L49.256,236.6 C49.3520005,236.776001 49.4719993,237.263996 49.616,238.064 C50.4320041,237.087995 51.4239942,236.6 52.592,236.6 C53.7280057,236.6 54.7039959,237.027996 55.52,237.884 C56.3360041,238.740004 56.744,239.775994 56.744,240.992 C56.744,242.208006 56.3360041,243.247996 55.52,244.112 C54.7039959,244.976004 53.7280057,245.408 52.592,245.408 C51.4079941,245.408 50.4240039,244.928005 49.64,243.968 L49.64,247.712 Z M71.168,244.808 L67.952,245.408 C67.8239994,245.151999 67.6960006,244.640004 67.568,243.872 C66.575995,244.896005 65.5280055,245.408 64.424,245.408 C62.4399901,245.408 61.448,244.208012 61.448,241.808 L61.448,240.296 C61.448,239.095994 61.3320012,238.328002 61.1,237.992 C60.8679988,237.655998 60.352004,237.488 59.552,237.488 L59.552,237.008 L63.152,237.008 L63.152,241.688 C63.152,243.400009 63.7599939,244.256 64.976,244.256 C65.5200027,244.256 66.087997,244.028002 66.68,243.572 C67.272003,243.115998 67.568,242.552003 67.568,241.88 L67.568,240.296 C67.568,239.095994 67.4520012,238.328002 67.22,237.992 C66.9879988,237.655998 66.4640041,237.488 65.648,237.488 L65.648,237.008 L69.248,237.008 L69.248,241.496 C69.248,242.696006 69.3639988,243.463998 69.596,243.8 C69.8280012,244.136002 70.3519959,244.304 71.168,244.304 L71.168,244.808 Z M74.744,237.848 L73.496,237.848 L73.496,237.272 C74.1840034,237.127999 74.6879984,236.816002 75.008,236.336 C75.3280016,235.855998 75.5359995,235.200004 75.632,234.368 L76.448,234.368 L76.448,237.008 L78.536,237.008 L78.536,237.848 L76.448,237.848 L76.448,242.648 C76.448,243.800006 76.8079964,244.376 77.528,244.376 C77.9920023,244.376 78.5119971,244.104003 79.088,243.56 L79.496,243.968 C79.1599983,244.368002 78.7560024,244.695999 78.284,244.952 C77.8119976,245.208001 77.376002,245.336 76.976,245.336 C76.2879966,245.336 75.744002,245.112002 75.344,244.664 C74.943998,244.215998 74.744,243.544004 74.744,242.648 L74.744,237.848 Z M91.568,239.456 L91.568,242.528 C91.7920011,243.120003 92.1159979,243.587998 92.54,243.932 C92.9640021,244.276002 93.4479973,244.448 93.992,244.448 C94.8880045,244.448 95.5679977,244.128003 96.032,243.488 C96.4960023,242.847997 96.728,242.016005 96.728,240.992 C96.728,239.983995 96.4960023,239.160003 96.032,238.52 C95.5679977,237.879997 94.8880045,237.56 93.992,237.56 C93.4479973,237.56 92.9640021,237.731998 92.54,238.076 C92.1159979,238.420002 91.7920011,238.879997 91.568,239.456 Z M91.424,243.8 L90.368,245.408 L89.864,245.408 L89.864,234.104 C89.864,232.903994 89.7480012,232.136002 89.516,231.8 C89.2839988,231.463998 88.768004,231.296 87.968,231.296 L87.968,230.792 L91.568,230.192 L91.568,238.016 C92.3360038,237.071995 93.3119941,236.6 94.496,236.6 C95.6320057,236.6 96.6079959,237.027996 97.424,237.884 C98.2400041,238.740004 98.648,239.775994 98.648,240.992 C98.648,242.208006 98.2400041,243.247996 97.424,244.112 C96.6079959,244.976004 95.6320057,245.408 94.496,245.408 C93.1999935,245.408 92.1760038,244.872005 91.424,243.8 Z" id="input-b-copy-2" fill="#1A80AA"></path>
                <path d="M197.44,14.24 C197.327999,14.3360005 197.188001,14.483999 197.02,14.684 C196.851999,14.884001 196.696001,15.0439994 196.552,15.164 C196.407999,15.2840006 196.264001,15.344 196.12,15.344 C195.991999,15.344 195.876001,15.2920005 195.772,15.188 C195.667999,15.0839995 195.616,14.9520008 195.616,14.792 C195.616,14.5039986 195.823998,14.2080015 196.24,13.904 L198.016,12.488 C198.480002,12.1359982 198.859999,11.6840028 199.156,11.132 C199.452001,10.5799972 199.6,10.008003 199.6,9.416 C199.6,8.74399664 199.360002,8.208002 198.88,7.808 C198.399998,7.407998 197.768004,7.208 196.984,7.208 C196.151996,7.208 195.456003,7.55999648 194.896,8.264 C194.335997,8.96800352 194.343997,9.81599504 194.92,10.808 L194.2,11.552 C193.271995,10.9919972 192.772,10.2840043 192.7,9.428 C192.628,8.57199572 192.991996,7.82000324 193.792,7.172 C194.592004,6.52399676 195.655993,6.2 196.984,6.2 C198.216006,6.2 199.287995,6.49599704 200.2,7.088 C201.112005,7.68000296 201.568,8.4559952 201.568,9.416 C201.568,9.76800176 201.492001,10.1279982 201.34,10.496 C201.187999,10.8640018 201.004001,11.1759987 200.788,11.432 C200.571999,11.6880013 200.356001,11.9239989 200.14,12.14 C199.923999,12.3560011 199.744001,12.5199994 199.6,12.632 L199.36,12.776 L198.256,13.616 C199.408006,13.8560012 200.319997,14.3279965 200.992,15.032 C201.664003,15.7360035 202,16.5519954 202,17.48 C202,18.5840055 201.540005,19.5279961 200.62,20.312 C199.699995,21.0960039 198.568007,21.488 197.224,21.488 C195.927994,21.488 194.864004,21.1760031 194.032,20.552 C193.199996,19.9279969 192.784,19.3360028 192.784,18.776 C192.784,18.4079982 192.991998,18.224 193.408,18.224 C193.568001,18.224 193.707999,18.2959993 193.828,18.44 C193.948001,18.5840007 194.083999,18.7839987 194.236,19.04 C194.388001,19.2960013 194.535999,19.4959993 194.68,19.64 C195.272003,20.2640031 196.055995,20.576 197.032,20.576 C197.976005,20.576 198.683998,20.2920028 199.156,19.724 C199.628002,19.1559972 199.864,18.4080046 199.864,17.48 C199.864,16.7119962 199.668002,16.024003 199.276,15.416 C198.883998,14.807997 198.272004,14.4160009 197.44,14.24 Z M209.704,15.944 C209.704,16.2800017 209.568001,16.5719988 209.296,16.82 C209.023999,17.0680012 208.704002,17.192 208.336,17.192 C207.967998,17.192 207.656001,17.0680012 207.4,16.82 C207.143999,16.5719988 207.016,16.2800017 207.016,15.944 C207.016,15.5919982 207.143999,15.2920012 207.4,15.044 C207.656001,14.7959988 207.967998,14.672 208.336,14.672 C208.704002,14.672 209.023999,14.7959988 209.296,15.044 C209.568001,15.2920012 209.704,15.5919982 209.704,15.944 Z M219.544,14.24 C219.431999,14.3360005 219.292001,14.483999 219.124,14.684 C218.955999,14.884001 218.800001,15.0439994 218.656,15.164 C218.511999,15.2840006 218.368001,15.344 218.224,15.344 C218.095999,15.344 217.980001,15.2920005 217.876,15.188 C217.771999,15.0839995 217.72,14.9520008 217.72,14.792 C217.72,14.5039986 217.927998,14.2080015 218.344,13.904 L220.12,12.488 C220.584002,12.1359982 220.963999,11.6840028 221.26,11.132 C221.556001,10.5799972 221.704,10.008003 221.704,9.416 C221.704,8.74399664 221.464002,8.208002 220.984,7.808 C220.503998,7.407998 219.872004,7.208 219.088,7.208 C218.255996,7.208 217.560003,7.55999648 217,8.264 C216.439997,8.96800352 216.447997,9.81599504 217.024,10.808 L216.304,11.552 C215.375995,10.9919972 214.876,10.2840043 214.804,9.428 C214.732,8.57199572 215.095996,7.82000324 215.896,7.172 C216.696004,6.52399676 217.759993,6.2 219.088,6.2 C220.320006,6.2 221.391995,6.49599704 222.304,7.088 C223.216005,7.68000296 223.672,8.4559952 223.672,9.416 C223.672,9.76800176 223.596001,10.1279982 223.444,10.496 C223.291999,10.8640018 223.108001,11.1759987 222.892,11.432 C222.675999,11.6880013 222.460001,11.9239989 222.244,12.14 C222.027999,12.3560011 221.848001,12.5199994 221.704,12.632 L221.464,12.776 L220.36,13.616 C221.512006,13.8560012 222.423997,14.3279965 223.096,15.032 C223.768003,15.7360035 224.104,16.5519954 224.104,17.48 C224.104,18.5840055 223.644005,19.5279961 222.724,20.312 C221.803995,21.0960039 220.672007,21.488 219.328,21.488 C218.031994,21.488 216.968004,21.1760031 216.136,20.552 C215.303996,19.9279969 214.888,19.3360028 214.888,18.776 C214.888,18.4079982 215.095998,18.224 215.512,18.224 C215.672001,18.224 215.811999,18.2959993 215.932,18.44 C216.052001,18.5840007 216.187999,18.7839987 216.34,19.04 C216.492001,19.2960013 216.639999,19.4959993 216.784,19.64 C217.376003,20.2640031 218.159995,20.576 219.136,20.576 C220.080005,20.576 220.787998,20.2920028 221.26,19.724 C221.732002,19.1559972 221.968,18.4080046 221.968,17.48 C221.968,16.7119962 221.772002,16.024003 221.38,15.416 C220.987998,14.807997 220.376004,14.4160009 219.544,14.24 Z M242.44,3.104 C241.495995,3.104 240.884001,3.21999884 240.604,3.452 C240.323999,3.68400116 239.984002,4.26399536 239.584,5.192 L234.304,17.408 L233.992,17.408 L228.688,5.192 C228.287998,4.26399536 227.948001,3.68400116 227.668,3.452 C227.387999,3.21999884 226.776005,3.104 225.832,3.104 L225.832,2.6 L232.48,2.6 L232.48,3.104 C231.487995,3.104 230.852001,3.2439986 230.572,3.524 C230.291999,3.8040014 230.303998,4.27199672 230.608,4.928 L234.688,14.264 L238.72,4.928 C239.024002,4.27199672 239.036001,3.8040014 238.756,3.524 C238.475999,3.2439986 237.840005,3.104 236.848,3.104 L236.848,2.6 L242.44,2.6 L242.44,3.104 Z" id="3.3V-Copy" fill="#524740"></path>
            </g>
            <g id="Wiring" transform="translate(185.000000, 149.000000)">
                <polyline id="Path-5" stroke="#3D3530" stroke-width="2" points="0 90 31 90 31 0"></polyline>
                <circle id="Connection" fill="#3D3530" cx="31" cy="26" r="5"></circle>
                <circle id="Connection-Copy" fill="#3D3530" cx="31" cy="58" r="5"></circle>
                <path d="M31,26 L0,26" id="Path-6" stroke="#3D3530" stroke-width="2"></path>
                <path d="M31,58 L94,58" id="Path-7" stroke="#3D3530" stroke-width="2"></path>
            </g>
            <path d="M150.94,340 L147.844,332.44 L136.54,332.44 L133.444,340 L130.96,340 L141.04,315.808 L143.308,315.808 L153.388,340 L150.94,340 Z M137.512,330.064 L146.872,330.064 L142.192,318.58 L137.512,330.064 Z M173.468,315.808 L175.844,315.808 L175.844,340 L173.396,340 L159.896,319.444 L159.896,340 L157.52,340 L157.52,315.808 L159.932,315.808 L173.468,336.4 L173.468,315.808 Z M181.848,340 L181.848,315.808 L187.32,315.808 C191.30402,315.808 194.471988,316.959988 196.824,319.264 C199.176012,321.568012 200.352,324.447983 200.352,327.904 C200.352,331.336017 199.170012,334.209988 196.806,336.526 C194.441988,338.842012 191.28002,340 187.32,340 L181.848,340 Z M184.224,337.732 L187.32,337.732 C190.488016,337.732 193.019991,336.802009 194.916,334.942 C196.812009,333.081991 197.76,330.736014 197.76,327.904 C197.76,325.071986 196.812009,322.726009 194.916,320.866 C193.019991,319.005991 190.488016,318.076 187.32,318.076 L184.224,318.076 L184.224,337.732 Z M218.804,337.624 L229.82,337.624 L229.82,340 L216.428,340 L216.428,315.808 L218.804,315.808 L218.804,337.624 Z M248.316,337.552 C246.515991,339.376009 244.332013,340.288 241.764,340.288 C239.195987,340.288 237.006009,339.382009 235.194,337.57 C233.381991,335.757991 232.476,333.568013 232.476,331 C232.476,328.431987 233.381991,326.242009 235.194,324.43 C237.006009,322.617991 239.195987,321.712 241.764,321.712 C244.332013,321.712 246.521991,322.617991 248.334,324.43 C250.146009,326.242009 251.052,328.431987 251.052,331 C251.052,333.544013 250.140009,335.727991 248.316,337.552 Z M241.8,338.02 C243.74401,338.02 245.381993,337.342007 246.714,335.986 C248.046007,334.629993 248.712,332.96801 248.712,331 C248.712,329.03199 248.046007,327.364007 246.714,325.996 C245.381993,324.627993 243.74401,323.944 241.8,323.944 C239.87999,323.944 238.248007,324.627993 236.904,325.996 C235.559993,327.364007 234.888,329.03199 234.888,331 C234.888,332.96801 235.559993,334.629993 236.904,335.986 C238.248007,337.342007 239.87999,338.02 241.8,338.02 Z M271.24,322.036 L273.652,322.036 L273.652,338.452 C273.628,341.068013 272.686009,343.257991 270.826,345.022 C268.965991,346.786009 266.812012,347.668 264.364,347.668 C262.131989,347.668 260.230008,347.074006 258.658,345.886 C257.085992,344.697994 256.024003,343.360007 255.472,341.872 L257.416,340.9 C257.872002,342.124006 258.735994,343.191995 260.008,344.104 C261.280006,345.016005 262.731992,345.472 264.364,345.472 C266.28401,345.472 267.909993,344.770007 269.242,343.366 C270.574007,341.961993 271.252,340.324009 271.276,338.452 L271.24,338.452 L271.24,337.12 C269.415991,339.256011 267.076014,340.324 264.22,340.324 C261.651987,340.324 259.462009,339.418009 257.65,337.606 C255.837991,335.793991 254.932,333.604013 254.932,331.036 C254.932,328.467987 255.837991,326.278009 257.65,324.466 C259.462009,322.653991 261.651987,321.748 264.22,321.748 C267.052014,321.748 269.391991,322.815989 271.24,324.952 L271.24,322.036 Z M264.256,338.092 C266.20001,338.092 267.837993,337.414007 269.17,336.058 C270.502007,334.701993 271.168,333.04001 271.168,331.072 C271.168,329.10399 270.502007,327.442007 269.17,326.086 C267.837993,324.729993 266.20001,324.052 264.256,324.052 C262.33599,324.052 260.704007,324.729993 259.36,326.086 C258.015993,327.442007 257.344,329.10399 257.344,331.072 C257.344,333.04001 258.015993,334.701993 259.36,336.058 C260.704007,337.414007 262.33599,338.092 264.256,338.092 Z M282.356,316.6 C282.091999,316.888001 281.756002,317.032 281.348,317.032 C280.939998,317.032 280.598001,316.888001 280.322,316.6 C280.045999,316.311999 279.908,315.976002 279.908,315.592 C279.908,315.207998 280.045999,314.872001 280.322,314.584 C280.598001,314.295999 280.939998,314.152 281.348,314.152 C281.756002,314.152 282.097999,314.295999 282.374,314.584 C282.650001,314.872001 282.788,315.207998 282.788,315.592 C282.788,315.976002 282.644001,316.311999 282.356,316.6 Z M280.16,340 L280.16,322 L282.536,322 L282.536,340 L280.16,340 Z M297.036,340.288 C294.467987,340.288 292.278009,339.382009 290.466,337.57 C288.653991,335.757991 287.748,333.568013 287.748,331 C287.748,328.431987 288.653991,326.242009 290.466,324.43 C292.278009,322.617991 294.467987,321.712 297.036,321.712 C298.668008,321.712 300.185993,322.113996 301.59,322.918 C302.994007,323.722004 304.103996,324.795993 304.92,326.14 L302.76,327.184 C302.111997,326.199995 301.284005,325.420003 300.276,324.844 C299.267995,324.267997 298.188006,323.98 297.036,323.98 C295.09199,323.98 293.454007,324.657993 292.122,326.014 C290.789993,327.370007 290.124,329.03199 290.124,331 C290.124,332.96801 290.789993,334.629993 292.122,335.986 C293.454007,337.342007 295.09199,338.02 297.036,338.02 C298.188006,338.02 299.267995,337.732003 300.276,337.156 C301.284005,336.579997 302.111997,335.800005 302.76,334.816 L304.92,335.86 C304.103996,337.204007 302.994007,338.277996 301.59,339.082 C300.185993,339.886004 298.668008,340.288 297.036,340.288 Z M331.76,340.288 C328.207982,340.288 325.370011,339.106012 323.246,336.742 C321.121989,334.377988 320.06,331.444018 320.06,327.94 C320.06,324.411982 321.121989,321.466012 323.246,319.102 C325.370011,316.737988 328.207982,315.556 331.76,315.556 C334.088012,315.556 336.127991,316.095995 337.88,317.176 C339.632009,318.256005 340.975995,319.731991 341.912,321.604 L339.68,322.9 C338.935996,321.339992 337.874007,320.104005 336.494,319.192 C335.113993,318.279995 333.536009,317.824 331.76,317.824 C329.023986,317.824 326.834008,318.77799 325.19,320.686 C323.545992,322.59401 322.724,325.011985 322.724,327.94 C322.724,330.844015 323.545992,333.25599 325.19,335.176 C326.834008,337.09601 329.023986,338.056 331.76,338.056 C334.160012,338.056 336.157992,337.258008 337.754,335.662 C339.350008,334.065992 340.291999,332.044012 340.58,329.596 L332.732,329.596 L332.732,327.472 L343.064,327.472 L343.064,340 L340.904,340 L340.904,335.14 C340.015996,336.748008 338.786008,338.007995 337.214,338.92 C335.641992,339.832005 333.82401,340.288 331.76,340.288 Z M363.828,322 L366.204,322 L366.204,340 L363.828,340 L363.828,337.084 C361.979991,339.220011 359.640014,340.288 356.808,340.288 C354.239987,340.288 352.050009,339.382009 350.238,337.57 C348.425991,335.757991 347.52,333.568013 347.52,331 C347.52,328.431987 348.425991,326.242009 350.238,324.43 C352.050009,322.617991 354.239987,321.712 356.808,321.712 C359.664014,321.712 362.003991,322.779989 363.828,324.916 L363.828,322 Z M356.844,338.02 C358.78801,338.02 360.425993,337.342007 361.758,335.986 C363.090007,334.629993 363.756,332.96801 363.756,331 C363.756,329.03199 363.090007,327.370007 361.758,326.014 C360.425993,324.657993 358.78801,323.98 356.844,323.98 C354.92399,323.98 353.286007,324.657993 351.93,326.014 C350.573993,327.370007 349.896,329.03199 349.896,331 C349.896,332.96801 350.573993,334.629993 351.93,335.986 C353.286007,337.342007 354.92399,338.02 356.844,338.02 Z M381.928,335.968 L383.116,337.804 C382.971999,337.996001 382.780001,338.223999 382.54,338.488 C382.299999,338.752001 381.760004,339.117998 380.92,339.586 C380.079996,340.054002 379.216004,340.288 378.328,340.288 C376.815992,340.288 375.550005,339.838005 374.53,338.938 C373.509995,338.037996 373,336.736009 373,335.032 L373,324.16 L370.12,324.16 L370.12,321.964 L373,321.964 L373,316.276 L375.376,315.988 L375.376,321.964 L380.812,321.964 L380.812,324.16 L375.376,324.16 L375.376,334.492 C375.376,335.596006 375.717997,336.471997 376.402,337.12 C377.086003,337.768003 377.871996,338.092 378.76,338.092 C379.312003,338.092 379.851997,337.924002 380.38,337.588 C380.908003,337.251998 381.297999,336.922002 381.55,336.598 C381.802001,336.273998 381.928,336.064 381.928,335.968 Z M396.428,337.912 C398.036008,337.912 399.475994,337.456005 400.748,336.544 C402.020006,335.631995 402.883998,334.564006 403.34,333.34 L405.356,334.06 C404.803997,335.572008 403.730008,336.963994 402.134,338.236 C400.537992,339.508006 398.636011,340.132 396.428,340.108 C394.41199,340.108 392.570008,339.484006 390.902,338.236 C389.233992,336.987994 388.100003,335.39201 387.5,333.448 C387.259999,332.655996 387.14,331.792005 387.14,330.856 C387.14,328.263987 388.039991,326.068009 389.84,324.268 C391.640009,322.467991 393.835987,321.556 396.428,321.532 C398.780012,321.556 400.831991,322.347992 402.584,323.908 C404.336009,325.468008 405.343999,327.399988 405.608,329.704 C405.632,329.824001 405.644,329.979999 405.644,330.172 L389.912,333.016 C390.320002,334.456007 391.135994,335.637995 392.36,336.562 C393.584006,337.486005 394.939993,337.936 396.428,337.912 Z M396.212,323.728 C394.411991,323.752 392.870006,324.399994 391.586,325.672 C390.301994,326.944006 389.612,328.467991 389.516,330.244 C389.516,330.316 389.522,330.441999 389.534,330.622 C389.546,330.802001 389.552,330.951999 389.552,331.072 L402.944,328.66 C402.487998,327.195993 401.636006,326.002005 400.388,325.078 C399.139994,324.153995 397.748008,323.704 396.212,323.728 Z" id="AND-Logic-Gate-Copy" fill="#23ABE3"></path>
        </g>
        <g id="OR_Gate" transform="translate(42.000000, 36.000000)">
            <g id="Components" transform="translate(115.000000, 2.000000)">
                <polyline id="Resistor-Copy" stroke="#3D3530" stroke-width="3" stroke-linejoin="round" transform="translate(101.000000, 137.000000) rotate(90.000000) translate(-101.000000, -137.000000) " points="66 137 71 137 76 124 86 150 96 124 106 150 116 124 126 150 131 137 136 137"></polyline>
                <g id="Schottky_Diode-Copy-2">
                    <polygon id="Path-2" fill="#3D3530" points="24.5 0 44 13 24.5 26"></polygon>
                    <path d="M44,13 L70,13" id="Path-2-Copy" stroke="#3D3530" stroke-width="3"></path>
                    <path d="M0,13 L24.5,13" id="Path-3" stroke="#3D3530" stroke-width="3"></path>
                    <polyline id="Path" stroke="#3D3530" stroke-width="3" stroke-linejoin="round" points="39 5 39 1 44 1 44 25 49 25 49 21"></polyline>
                </g>
                <g id="Schottky_Diode-Copy-3" transform="translate(0.000000, 64.000000)">
                    <polygon id="Path-2" fill="#3D3530" points="24.5 0 44 13 24.5 26"></polygon>
                    <path d="M44,13 L70,13" id="Path-2-Copy" stroke="#3D3530" stroke-width="3"></path>
                    <path d="M0,13 L24.5,13" id="Path-3" stroke="#3D3530" stroke-width="3"></path>
                    <polyline id="Path" stroke="#3D3530" stroke-width="3" stroke-linejoin="round" points="39 5 39 1 44 1 44 25 49 25 49 21"></polyline>
                </g>
                <g id="Ground" transform="translate(101.000000, 209.500000) rotate(-90.000000) translate(-101.000000, -209.500000) translate(63.500000, 176.500000)" stroke="#3D3530" stroke-width="3">
                    <path d="M25,33 L75,33" id="Path-2-Copy"></path>
                    <path d="M13,13 L13,53" id="Path-4"></path>
                    <path d="M1,27 L1,39" id="Path-4-Copy"></path>
                    <path d="M25,0 L25,66" id="Path-3-Copy"></path>
                </g>
            </g>
            <g id="Labels">
                <rect id="Rectangle-Copy-2" stroke="#3D3530" stroke-width="2" fill="#F8FAE4" x="280" y="33" width="113" height="28" rx="5"></rect>
                <rect id="Rectangle-Copy-5" stroke="#3D3530" stroke-width="2" fill="#F8FAE4" x="1" y="1" width="113" height="28" rx="5"></rect>
                <rect id="Rectangle-Copy-6" stroke="#3D3530" stroke-width="2" fill="#F8FAE4" x="1" y="65" width="113" height="28" rx="5"></rect>
                <path d="M307.408,43.896 C308.368005,44.7440042 308.848,45.7759939 308.848,46.992 C308.848,48.2080061 308.372005,49.2479957 307.42,50.112 C306.467995,50.9760043 305.328007,51.408 304,51.408 C302.671993,51.408 301.532005,50.9760043 300.58,50.112 C299.627995,49.2479957 299.152,48.2080061 299.152,46.992 C299.152,45.7759939 299.627995,44.7400043 300.58,43.884 C301.532005,43.0279957 302.671993,42.6 304,42.6 C305.328007,42.6 306.463995,43.0319957 307.408,43.896 Z M306.16,49.512 C306.656002,48.8559967 306.904,48.0160051 306.904,46.992 C306.904,45.9679949 306.656002,45.1320032 306.16,44.484 C305.663998,43.8359968 304.944005,43.512 304,43.512 C303.055995,43.512 302.336002,43.8399967 301.84,44.496 C301.343998,45.1520033 301.096,45.983995 301.096,46.992 C301.096,48.000005 301.343998,48.8319967 301.84,49.488 C302.336002,50.1440033 303.055995,50.472 304,50.472 C304.944005,50.472 305.663998,50.1520032 306.16,49.512 Z M323.272,50.808 L320.056,51.408 C319.927999,51.1519987 319.800001,50.6400038 319.672,49.872 C318.679995,50.8960051 317.632006,51.408 316.528,51.408 C314.54399,51.408 313.552,50.208012 313.552,47.808 L313.552,46.296 C313.552,45.095994 313.436001,44.3280017 313.204,43.992 C312.971999,43.6559983 312.456004,43.488 311.656,43.488 L311.656,43.008 L315.256,43.008 L315.256,47.688 C315.256,49.4000086 315.863994,50.256 317.08,50.256 C317.624003,50.256 318.191997,50.0280023 318.784,49.572 C319.376003,49.1159977 319.672,48.5520034 319.672,47.88 L319.672,46.296 C319.672,45.095994 319.556001,44.3280017 319.324,43.992 C319.091999,43.6559983 318.568004,43.488 317.752,43.488 L317.752,43.008 L321.352,43.008 L321.352,47.496 C321.352,48.696006 321.467999,49.4639983 321.7,49.8 C321.932001,50.1360017 322.455996,50.304 323.272,50.304 L323.272,50.808 Z M326.848,43.848 L325.6,43.848 L325.6,43.272 C326.288003,43.1279993 326.791998,42.8160024 327.112,42.336 C327.432002,41.8559976 327.64,41.2000042 327.736,40.368 L328.552,40.368 L328.552,43.008 L330.64,43.008 L330.64,43.848 L328.552,43.848 L328.552,48.648 C328.552,49.8000058 328.911996,50.376 329.632,50.376 C330.096002,50.376 330.615997,50.1040027 331.192,49.56 L331.6,49.968 C331.263998,50.368002 330.860002,50.6959987 330.388,50.952 C329.915998,51.2080013 329.480002,51.336 329.08,51.336 C328.391997,51.336 327.848002,51.1120022 327.448,50.664 C327.047998,50.2159978 326.848,49.5440045 326.848,48.648 L326.848,43.848 Z M341.728,49.488 C342.192002,48.8319967 342.424,48.000005 342.424,46.992 C342.424,45.983995 342.192002,45.1600032 341.728,44.52 C341.263998,43.8799968 340.592004,43.56 339.712,43.56 C339.167997,43.56 338.684002,43.7279983 338.26,44.064 C337.835998,44.4000017 337.504001,44.8559971 337.264,45.432 L337.264,48.528 C337.504001,49.120003 337.835998,49.5879983 338.26,49.932 C338.684002,50.2760017 339.167997,50.448 339.712,50.448 C340.592004,50.448 341.263998,50.1280032 341.728,49.488 Z M337.264,53.712 C337.264,54.8960059 337.379999,55.6559983 337.612,55.992 C337.844001,56.3280017 338.359996,56.496 339.16,56.496 L339.16,57 L333.664,57 L333.664,56.496 C334.464004,56.496 334.979999,56.3320016 335.212,56.004 C335.444001,55.6759984 335.56,54.912006 335.56,53.712 L335.56,46.488 C335.56,45.287994 335.444001,44.5240016 335.212,44.196 C334.979999,43.8679984 334.464004,43.704 333.664,43.704 L333.664,43.2 L336.88,42.6 C336.976,42.7760009 337.095999,43.263996 337.24,44.064 C338.056004,43.0879951 339.047994,42.6 340.216,42.6 C341.352006,42.6 342.327996,43.0279957 343.144,43.884 C343.960004,44.7400043 344.368,45.7759939 344.368,46.992 C344.368,48.2080061 343.960004,49.2479957 343.144,50.112 C342.327996,50.9760043 341.352006,51.408 340.216,51.408 C339.031994,51.408 338.048004,50.9280048 337.264,49.968 L337.264,53.712 Z M358.792,50.808 L355.576,51.408 C355.447999,51.1519987 355.320001,50.6400038 355.192,49.872 C354.199995,50.8960051 353.152006,51.408 352.048,51.408 C350.06399,51.408 349.072,50.208012 349.072,47.808 L349.072,46.296 C349.072,45.095994 348.956001,44.3280017 348.724,43.992 C348.491999,43.6559983 347.976004,43.488 347.176,43.488 L347.176,43.008 L350.776,43.008 L350.776,47.688 C350.776,49.4000086 351.383994,50.256 352.6,50.256 C353.144003,50.256 353.711997,50.0280023 354.304,49.572 C354.896003,49.1159977 355.192,48.5520034 355.192,47.88 L355.192,46.296 C355.192,45.095994 355.076001,44.3280017 354.844,43.992 C354.611999,43.6559983 354.088004,43.488 353.272,43.488 L353.272,43.008 L356.872,43.008 L356.872,47.496 C356.872,48.696006 356.987999,49.4639983 357.22,49.8 C357.452001,50.1360017 357.975996,50.304 358.792,50.304 L358.792,50.808 Z M362.368,43.848 L361.12,43.848 L361.12,43.272 C361.808003,43.1279993 362.311998,42.8160024 362.632,42.336 C362.952002,41.8559976 363.16,41.2000042 363.256,40.368 L364.072,40.368 L364.072,43.008 L366.16,43.008 L366.16,43.848 L364.072,43.848 L364.072,48.648 C364.072,49.8000058 364.431996,50.376 365.152,50.376 C365.616002,50.376 366.135997,50.1040027 366.712,49.56 L367.12,49.968 C366.783998,50.368002 366.380002,50.6959987 365.908,50.952 C365.435998,51.2080013 365.000002,51.336 364.6,51.336 C363.911997,51.336 363.368002,51.1120022 362.968,50.664 C362.567998,50.2159978 362.368,49.5440045 362.368,48.648 L362.368,43.848 Z" id="output-copy" fill="#1A80AA"></path>
                <path d="M29.408,19 L23.912,19 L23.912,18.496 C24.712004,18.496 25.2279988,18.3280017 25.46,17.992 C25.6920012,17.6559983 25.808,16.888006 25.808,15.688 L25.808,14.488 C25.808,13.3039941 25.6920012,12.5440017 25.46,12.208 C25.2279988,11.8719983 24.712004,11.704 23.912,11.704 L23.912,11.2 L27.512,10.6 L27.512,15.688 C27.512,16.888006 27.6279988,17.6559983 27.86,17.992 C28.0920012,18.3280017 28.607996,18.496 29.408,18.496 L29.408,19 Z M27.704,7.168 C27.704,7.47200152 27.600001,7.72799896 27.392,7.936 C27.183999,8.14400104 26.9360014,8.248 26.648,8.248 C26.3599986,8.248 26.112001,8.14400104 25.904,7.936 C25.695999,7.72799896 25.592,7.47200152 25.592,7.168 C25.592,6.87999856 25.695999,6.63200104 25.904,6.424 C26.112001,6.21599896 26.3599986,6.112 26.648,6.112 C26.9360014,6.112 27.183999,6.21599896 27.392,6.424 C27.600001,6.63200104 27.704,6.87999856 27.704,7.168 Z M35.576,12.328 C36.4880046,11.1759942 37.5999934,10.6 38.912,10.6 C39.9520052,10.6 40.7319974,10.9279967 41.252,11.584 C41.7720026,12.2400033 42.032,13.1039946 42.032,14.176 L42.032,15.688 C42.032,16.888006 42.1479988,17.6559983 42.38,17.992 C42.6120012,18.3280017 43.127996,18.496 43.928,18.496 L43.928,19 L38.432,19 L38.432,18.496 C39.2160039,18.496 39.7279988,18.3240017 39.968,17.98 C40.2080012,17.6359983 40.328,16.8720059 40.328,15.688 L40.328,14.296 C40.328,12.5839914 39.6640066,11.728 38.336,11.728 C37.6479966,11.728 37.0160029,11.9679976 36.44,12.448 C35.8639971,12.9280024 35.576,13.4879968 35.576,14.128 L35.576,15.688 C35.576,16.9200062 35.671999,17.6959984 35.864,18.016 C36.056001,18.3360016 36.5199963,18.496 37.256,18.496 L37.256,19 L31.976,19 L31.976,18.496 C32.776004,18.496 33.2919988,18.3280017 33.524,17.992 C33.7560012,17.6559983 33.872,16.888006 33.872,15.688 L33.872,14.488 C33.872,13.3039941 33.7560012,12.5440017 33.524,12.208 C33.2919988,11.8719983 32.776004,11.704 31.976,11.704 L31.976,11.2 L35.168,10.6 C35.3120007,10.9040015 35.4479994,11.4799958 35.576,12.328 Z M54.104,17.488 C54.5680023,16.8319967 54.8,16.000005 54.8,14.992 C54.8,13.983995 54.5680023,13.1600032 54.104,12.52 C53.6399977,11.8799968 52.9680044,11.56 52.088,11.56 C51.5439973,11.56 51.0600021,11.7279983 50.636,12.064 C50.2119979,12.4000017 49.8800012,12.8559971 49.64,13.432 L49.64,16.528 C49.8800012,17.120003 50.2119979,17.5879983 50.636,17.932 C51.0600021,18.2760017 51.5439973,18.448 52.088,18.448 C52.9680044,18.448 53.6399977,18.1280032 54.104,17.488 Z M49.64,21.712 C49.64,22.8960059 49.7559988,23.6559983 49.988,23.992 C50.2200012,24.3280017 50.735996,24.496 51.536,24.496 L51.536,25 L46.04,25 L46.04,24.496 C46.840004,24.496 47.3559988,24.3320016 47.588,24.004 C47.8200012,23.6759984 47.936,22.912006 47.936,21.712 L47.936,14.488 C47.936,13.287994 47.8200012,12.5240016 47.588,12.196 C47.3559988,11.8679984 46.840004,11.704 46.04,11.704 L46.04,11.2 L49.256,10.6 C49.3520005,10.7760009 49.4719993,11.263996 49.616,12.064 C50.4320041,11.0879951 51.4239942,10.6 52.592,10.6 C53.7280057,10.6 54.7039959,11.0279957 55.52,11.884 C56.3360041,12.7400043 56.744,13.7759939 56.744,14.992 C56.744,16.2080061 56.3360041,17.2479957 55.52,18.112 C54.7039959,18.9760043 53.7280057,19.408 52.592,19.408 C51.4079941,19.408 50.4240039,18.9280048 49.64,17.968 L49.64,21.712 Z M71.168,18.808 L67.952,19.408 C67.8239994,19.1519987 67.6960006,18.6400038 67.568,17.872 C66.575995,18.8960051 65.5280055,19.408 64.424,19.408 C62.4399901,19.408 61.448,18.208012 61.448,15.808 L61.448,14.296 C61.448,13.095994 61.3320012,12.3280017 61.1,11.992 C60.8679988,11.6559983 60.352004,11.488 59.552,11.488 L59.552,11.008 L63.152,11.008 L63.152,15.688 C63.152,17.4000086 63.7599939,18.256 64.976,18.256 C65.5200027,18.256 66.087997,18.0280023 66.68,17.572 C67.272003,17.1159977 67.568,16.5520034 67.568,15.88 L67.568,14.296 C67.568,13.095994 67.4520012,12.3280017 67.22,11.992 C66.9879988,11.6559983 66.4640041,11.488 65.648,11.488 L65.648,11.008 L69.248,11.008 L69.248,15.496 C69.248,16.696006 69.3639988,17.4639983 69.596,17.8 C69.8280012,18.1360017 70.3519959,18.304 71.168,18.304 L71.168,18.808 Z M74.744,11.848 L73.496,11.848 L73.496,11.272 C74.1840034,11.1279993 74.6879984,10.8160024 75.008,10.336 C75.3280016,9.8559976 75.5359995,9.20000416 75.632,8.368 L76.448,8.368 L76.448,11.008 L78.536,11.008 L78.536,11.848 L76.448,11.848 L76.448,16.648 C76.448,17.8000058 76.8079964,18.376 77.528,18.376 C77.9920023,18.376 78.5119971,18.1040027 79.088,17.56 L79.496,17.968 C79.1599983,18.368002 78.7560024,18.6959987 78.284,18.952 C77.8119976,19.2080013 77.376002,19.336 76.976,19.336 C76.2879966,19.336 75.744002,19.1120022 75.344,18.664 C74.943998,18.2159978 74.744,17.5440045 74.744,16.648 L74.744,11.848 Z M97.184,18.52 C96.7199977,19.0160025 96.192003,19.264 95.6,19.264 C94.6399952,19.264 94.0960006,18.8000046 93.968,17.872 C92.8959946,18.8320048 91.8960046,19.312 90.968,19.312 C90.359997,19.312 89.8480021,19.1320018 89.432,18.772 C89.0159979,18.4119982 88.808,17.9200031 88.808,17.296 C88.808,15.6159916 90.511983,14.480003 93.92,13.888 C93.92,12.9439953 93.816001,12.2880018 93.608,11.92 C93.399999,11.5519982 92.9680033,11.368 92.312,11.368 C91.9919984,11.368 91.6840015,11.471999 91.388,11.68 C91.0919985,11.888001 90.944,12.1679982 90.944,12.52 C90.944,12.7600012 90.8640008,12.9599992 90.704,13.12 C90.5439992,13.2800008 90.3520011,13.36 90.128,13.36 C89.8879988,13.36 89.6880008,13.2800008 89.528,13.12 C89.3679992,12.9599992 89.288,12.7600012 89.288,12.52 C89.288,11.9599972 89.5959969,11.5000018 90.212,11.14 C90.8280031,10.7799982 91.535996,10.6 92.336,10.6 C93.5040058,10.6 94.3439974,10.8559974 94.856,11.368 C95.3680026,11.8800026 95.624,12.7119942 95.624,13.864 L95.624,17.488 C95.624,18.1120031 95.8079982,18.424 96.176,18.424 C96.384001,18.424 96.6079988,18.3040012 96.848,18.064 L97.184,18.52 Z M93.92,17.08 L93.92,14.632 C91.711989,15.1440026 90.608,15.9359946 90.608,17.008 C90.608,17.3760018 90.7159989,17.6719989 90.932,17.896 C91.1480011,18.1200011 91.4159984,18.232 91.736,18.232 C92.328003,18.232 93.0559957,17.8480038 93.92,17.08 Z" id="input-a-copy" fill="#1A80AA"></path>
                <path d="M29.408,84 L23.912,84 L23.912,83.496 C24.712004,83.496 25.2279988,83.3280017 25.46,82.992 C25.6920012,82.6559983 25.808,81.888006 25.808,80.688 L25.808,79.488 C25.808,78.3039941 25.6920012,77.5440017 25.46,77.208 C25.2279988,76.8719983 24.712004,76.704 23.912,76.704 L23.912,76.2 L27.512,75.6 L27.512,80.688 C27.512,81.888006 27.6279988,82.6559983 27.86,82.992 C28.0920012,83.3280017 28.607996,83.496 29.408,83.496 L29.408,84 Z M27.704,72.168 C27.704,72.4720015 27.600001,72.727999 27.392,72.936 C27.183999,73.144001 26.9360014,73.248 26.648,73.248 C26.3599986,73.248 26.112001,73.144001 25.904,72.936 C25.695999,72.727999 25.592,72.4720015 25.592,72.168 C25.592,71.8799986 25.695999,71.632001 25.904,71.424 C26.112001,71.215999 26.3599986,71.112 26.648,71.112 C26.9360014,71.112 27.183999,71.215999 27.392,71.424 C27.600001,71.632001 27.704,71.8799986 27.704,72.168 Z M35.576,77.328 C36.4880046,76.1759942 37.5999934,75.6 38.912,75.6 C39.9520052,75.6 40.7319974,75.9279967 41.252,76.584 C41.7720026,77.2400033 42.032,78.1039946 42.032,79.176 L42.032,80.688 C42.032,81.888006 42.1479988,82.6559983 42.38,82.992 C42.6120012,83.3280017 43.127996,83.496 43.928,83.496 L43.928,84 L38.432,84 L38.432,83.496 C39.2160039,83.496 39.7279988,83.3240017 39.968,82.98 C40.2080012,82.6359983 40.328,81.8720059 40.328,80.688 L40.328,79.296 C40.328,77.5839914 39.6640066,76.728 38.336,76.728 C37.6479966,76.728 37.0160029,76.9679976 36.44,77.448 C35.8639971,77.9280024 35.576,78.4879968 35.576,79.128 L35.576,80.688 C35.576,81.9200062 35.671999,82.6959984 35.864,83.016 C36.056001,83.3360016 36.5199963,83.496 37.256,83.496 L37.256,84 L31.976,84 L31.976,83.496 C32.776004,83.496 33.2919988,83.3280017 33.524,82.992 C33.7560012,82.6559983 33.872,81.888006 33.872,80.688 L33.872,79.488 C33.872,78.3039941 33.7560012,77.5440017 33.524,77.208 C33.2919988,76.8719983 32.776004,76.704 31.976,76.704 L31.976,76.2 L35.168,75.6 C35.3120007,75.9040015 35.4479994,76.4799958 35.576,77.328 Z M54.104,82.488 C54.5680023,81.8319967 54.8,81.000005 54.8,79.992 C54.8,78.983995 54.5680023,78.1600032 54.104,77.52 C53.6399977,76.8799968 52.9680044,76.56 52.088,76.56 C51.5439973,76.56 51.0600021,76.7279983 50.636,77.064 C50.2119979,77.4000017 49.8800012,77.8559971 49.64,78.432 L49.64,81.528 C49.8800012,82.120003 50.2119979,82.5879983 50.636,82.932 C51.0600021,83.2760017 51.5439973,83.448 52.088,83.448 C52.9680044,83.448 53.6399977,83.1280032 54.104,82.488 Z M49.64,86.712 C49.64,87.8960059 49.7559988,88.6559983 49.988,88.992 C50.2200012,89.3280017 50.735996,89.496 51.536,89.496 L51.536,90 L46.04,90 L46.04,89.496 C46.840004,89.496 47.3559988,89.3320016 47.588,89.004 C47.8200012,88.6759984 47.936,87.912006 47.936,86.712 L47.936,79.488 C47.936,78.287994 47.8200012,77.5240016 47.588,77.196 C47.3559988,76.8679984 46.840004,76.704 46.04,76.704 L46.04,76.2 L49.256,75.6 C49.3520005,75.7760009 49.4719993,76.263996 49.616,77.064 C50.4320041,76.0879951 51.4239942,75.6 52.592,75.6 C53.7280057,75.6 54.7039959,76.0279957 55.52,76.884 C56.3360041,77.7400043 56.744,78.7759939 56.744,79.992 C56.744,81.2080061 56.3360041,82.2479957 55.52,83.112 C54.7039959,83.9760043 53.7280057,84.408 52.592,84.408 C51.4079941,84.408 50.4240039,83.9280048 49.64,82.968 L49.64,86.712 Z M71.168,83.808 L67.952,84.408 C67.8239994,84.1519987 67.6960006,83.6400038 67.568,82.872 C66.575995,83.8960051 65.5280055,84.408 64.424,84.408 C62.4399901,84.408 61.448,83.208012 61.448,80.808 L61.448,79.296 C61.448,78.095994 61.3320012,77.3280017 61.1,76.992 C60.8679988,76.6559983 60.352004,76.488 59.552,76.488 L59.552,76.008 L63.152,76.008 L63.152,80.688 C63.152,82.4000086 63.7599939,83.256 64.976,83.256 C65.5200027,83.256 66.087997,83.0280023 66.68,82.572 C67.272003,82.1159977 67.568,81.5520034 67.568,80.88 L67.568,79.296 C67.568,78.095994 67.4520012,77.3280017 67.22,76.992 C66.9879988,76.6559983 66.4640041,76.488 65.648,76.488 L65.648,76.008 L69.248,76.008 L69.248,80.496 C69.248,81.696006 69.3639988,82.4639983 69.596,82.8 C69.8280012,83.1360017 70.3519959,83.304 71.168,83.304 L71.168,83.808 Z M74.744,76.848 L73.496,76.848 L73.496,76.272 C74.1840034,76.1279993 74.6879984,75.8160024 75.008,75.336 C75.3280016,74.8559976 75.5359995,74.2000042 75.632,73.368 L76.448,73.368 L76.448,76.008 L78.536,76.008 L78.536,76.848 L76.448,76.848 L76.448,81.648 C76.448,82.8000058 76.8079964,83.376 77.528,83.376 C77.9920023,83.376 78.5119971,83.1040027 79.088,82.56 L79.496,82.968 C79.1599983,83.368002 78.7560024,83.6959987 78.284,83.952 C77.8119976,84.2080013 77.376002,84.336 76.976,84.336 C76.2879966,84.336 75.744002,84.1120022 75.344,83.664 C74.943998,83.2159978 74.744,82.5440045 74.744,81.648 L74.744,76.848 Z M91.568,78.456 L91.568,81.528 C91.7920011,82.120003 92.1159979,82.5879983 92.54,82.932 C92.9640021,83.2760017 93.4479973,83.448 93.992,83.448 C94.8880045,83.448 95.5679977,83.1280032 96.032,82.488 C96.4960023,81.8479968 96.728,81.0160051 96.728,79.992 C96.728,78.983995 96.4960023,78.1600032 96.032,77.52 C95.5679977,76.8799968 94.8880045,76.56 93.992,76.56 C93.4479973,76.56 92.9640021,76.7319983 92.54,77.076 C92.1159979,77.4200017 91.7920011,77.8799971 91.568,78.456 Z M91.424,82.8 L90.368,84.408 L89.864,84.408 L89.864,73.104 C89.864,71.903994 89.7480012,71.1360017 89.516,70.8 C89.2839988,70.4639983 88.768004,70.296 87.968,70.296 L87.968,69.792 L91.568,69.192 L91.568,77.016 C92.3360038,76.0719953 93.3119941,75.6 94.496,75.6 C95.6320057,75.6 96.6079959,76.0279957 97.424,76.884 C98.2400041,77.7400043 98.648,78.7759939 98.648,79.992 C98.648,81.2080061 98.2400041,82.2479957 97.424,83.112 C96.6079959,83.9760043 95.6320057,84.408 94.496,84.408 C93.1999935,84.408 92.1760038,83.8720054 91.424,82.8 Z" id="input-b-copy" fill="#1A80AA"></path>
            </g>
            <g id="Wiring" transform="translate(185.000000, 14.000000)">
                <polyline id="Path-5" stroke="#3D3530" stroke-width="2" points="31 90 31 1 0 1"></polyline>
                <circle id="Connection-Copy-2" fill="#3D3530" cx="31" cy="65" r="5"></circle>
                <circle id="Connection-Copy-3" fill="#3D3530" cx="31" cy="33" r="5"></circle>
                <path d="M31,33 L94,33" id="Path-7" stroke="#3D3530" stroke-width="2"></path>
                <path d="M0,65 L31,65" id="Path-8" stroke="#3D3530" stroke-width="2"></path>
                <path d="" id="Path-9" stroke="#979797"></path>
            </g>
        </g>
        <path d="M197.558,352.76 C195.46999,355.112012 192.650018,356.288 189.098,356.288 C185.545982,356.288 182.72001,355.112012 180.62,352.76 C178.519989,350.407988 177.47,347.468018 177.47,343.94 C177.47,340.411982 178.519989,337.466012 180.62,335.102 C182.72001,332.737988 185.545982,331.556 189.098,331.556 C192.650018,331.556 195.46999,332.737988 197.558,335.102 C199.64601,337.466012 200.69,340.411982 200.69,343.94 C200.69,347.468018 199.64601,350.407988 197.558,352.76 Z M182.51,351.176 C184.166008,353.09601 186.361986,354.056 189.098,354.056 C191.834014,354.056 194.035992,353.09001 195.704,351.158 C197.372008,349.22599 198.206,346.820014 198.206,343.94 C198.206,341.035985 197.372008,338.62401 195.704,336.704 C194.035992,334.78399 191.834014,333.824 189.098,333.824 C186.361986,333.824 184.166008,334.78399 182.51,336.704 C180.853992,338.62401 180.026,341.035985 180.026,343.94 C180.026,346.844015 180.853992,349.25599 182.51,351.176 Z M205.362,356 L205.362,331.808 L213.57,331.808 C216.282014,331.808 218.441992,332.521993 220.05,333.95 C221.658008,335.378007 222.462,337.171989 222.462,339.332 C222.462,340.940008 221.988005,342.367994 221.04,343.616 C220.091995,344.864006 218.766009,345.751997 217.062,346.28 L222.462,356 L219.978,356 L214.83,346.784 L213.354,346.856 L207.738,346.856 L207.738,356 L205.362,356 Z M207.738,344.588 L213.57,344.588 C215.51401,344.588 217.073994,344.090005 218.25,343.094 C219.426006,342.097995 220.014,340.844008 220.014,339.332 C220.014,337.843993 219.426006,336.596005 218.25,335.588 C217.073994,334.579995 215.51401,334.076 213.57,334.076 L207.738,334.076 L207.738,344.588 Z M241.49,353.624 L252.506,353.624 L252.506,356 L239.114,356 L239.114,331.808 L241.49,331.808 L241.49,353.624 Z M271.002,353.552 C269.201991,355.376009 267.018013,356.288 264.45,356.288 C261.881987,356.288 259.692009,355.382009 257.88,353.57 C256.067991,351.757991 255.162,349.568013 255.162,347 C255.162,344.431987 256.067991,342.242009 257.88,340.43 C259.692009,338.617991 261.881987,337.712 264.45,337.712 C267.018013,337.712 269.207991,338.617991 271.02,340.43 C272.832009,342.242009 273.738,344.431987 273.738,347 C273.738,349.544013 272.826009,351.727991 271.002,353.552 Z M264.486,354.02 C266.43001,354.02 268.067993,353.342007 269.4,351.986 C270.732007,350.629993 271.398,348.96801 271.398,347 C271.398,345.03199 270.732007,343.364007 269.4,341.996 C268.067993,340.627993 266.43001,339.944 264.486,339.944 C262.56599,339.944 260.934007,340.627993 259.59,341.996 C258.245993,343.364007 257.574,345.03199 257.574,347 C257.574,348.96801 258.245993,350.629993 259.59,351.986 C260.934007,353.342007 262.56599,354.02 264.486,354.02 Z M293.926,338.036 L296.338,338.036 L296.338,354.452 C296.314,357.068013 295.372009,359.257991 293.512,361.022 C291.651991,362.786009 289.498012,363.668 287.05,363.668 C284.817989,363.668 282.916008,363.074006 281.344,361.886 C279.771992,360.697994 278.710003,359.360007 278.158,357.872 L280.102,356.9 C280.558002,358.124006 281.421994,359.191995 282.694,360.104 C283.966006,361.016005 285.417992,361.472 287.05,361.472 C288.97001,361.472 290.595993,360.770007 291.928,359.366 C293.260007,357.961993 293.938,356.324009 293.962,354.452 L293.926,354.452 L293.926,353.12 C292.101991,355.256011 289.762014,356.324 286.906,356.324 C284.337987,356.324 282.148009,355.418009 280.336,353.606 C278.523991,351.793991 277.618,349.604013 277.618,347.036 C277.618,344.467987 278.523991,342.278009 280.336,340.466 C282.148009,338.653991 284.337987,337.748 286.906,337.748 C289.738014,337.748 292.077991,338.815989 293.926,340.952 L293.926,338.036 Z M286.942,354.092 C288.88601,354.092 290.523993,353.414007 291.856,352.058 C293.188007,350.701993 293.854,349.04001 293.854,347.072 C293.854,345.10399 293.188007,343.442007 291.856,342.086 C290.523993,340.729993 288.88601,340.052 286.942,340.052 C285.02199,340.052 283.390007,340.729993 282.046,342.086 C280.701993,343.442007 280.03,345.10399 280.03,347.072 C280.03,349.04001 280.701993,350.701993 282.046,352.058 C283.390007,353.414007 285.02199,354.092 286.942,354.092 Z M305.042,332.6 C304.777999,332.888001 304.442002,333.032 304.034,333.032 C303.625998,333.032 303.284001,332.888001 303.008,332.6 C302.731999,332.311999 302.594,331.976002 302.594,331.592 C302.594,331.207998 302.731999,330.872001 303.008,330.584 C303.284001,330.295999 303.625998,330.152 304.034,330.152 C304.442002,330.152 304.783999,330.295999 305.06,330.584 C305.336001,330.872001 305.474,331.207998 305.474,331.592 C305.474,331.976002 305.330001,332.311999 305.042,332.6 Z M302.846,356 L302.846,338 L305.222,338 L305.222,356 L302.846,356 Z M319.722,356.288 C317.153987,356.288 314.964009,355.382009 313.152,353.57 C311.339991,351.757991 310.434,349.568013 310.434,347 C310.434,344.431987 311.339991,342.242009 313.152,340.43 C314.964009,338.617991 317.153987,337.712 319.722,337.712 C321.354008,337.712 322.871993,338.113996 324.276,338.918 C325.680007,339.722004 326.789996,340.795993 327.606,342.14 L325.446,343.184 C324.797997,342.199995 323.970005,341.420003 322.962,340.844 C321.953995,340.267997 320.874006,339.98 319.722,339.98 C317.77799,339.98 316.140007,340.657993 314.808,342.014 C313.475993,343.370007 312.81,345.03199 312.81,347 C312.81,348.96801 313.475993,350.629993 314.808,351.986 C316.140007,353.342007 317.77799,354.02 319.722,354.02 C320.874006,354.02 321.953995,353.732003 322.962,353.156 C323.970005,352.579997 324.797997,351.800005 325.446,350.816 L327.606,351.86 C326.789996,353.204007 325.680007,354.277996 324.276,355.082 C322.871993,355.886004 321.354008,356.288 319.722,356.288 Z M354.446,356.288 C350.893982,356.288 348.056011,355.106012 345.932,352.742 C343.807989,350.377988 342.746,347.444018 342.746,343.94 C342.746,340.411982 343.807989,337.466012 345.932,335.102 C348.056011,332.737988 350.893982,331.556 354.446,331.556 C356.774012,331.556 358.813991,332.095995 360.566,333.176 C362.318009,334.256005 363.661995,335.731991 364.598,337.604 L362.366,338.9 C361.621996,337.339992 360.560007,336.104005 359.18,335.192 C357.799993,334.279995 356.222009,333.824 354.446,333.824 C351.709986,333.824 349.520008,334.77799 347.876,336.686 C346.231992,338.59401 345.41,341.011985 345.41,343.94 C345.41,346.844015 346.231992,349.25599 347.876,351.176 C349.520008,353.09601 351.709986,354.056 354.446,354.056 C356.846012,354.056 358.843992,353.258008 360.44,351.662 C362.036008,350.065992 362.977999,348.044012 363.266,345.596 L355.418,345.596 L355.418,343.472 L365.75,343.472 L365.75,356 L363.59,356 L363.59,351.14 C362.701996,352.748008 361.472008,354.007995 359.9,354.92 C358.327992,355.832005 356.51001,356.288 354.446,356.288 Z M386.514,338 L388.89,338 L388.89,356 L386.514,356 L386.514,353.084 C384.665991,355.220011 382.326014,356.288 379.494,356.288 C376.925987,356.288 374.736009,355.382009 372.924,353.57 C371.111991,351.757991 370.206,349.568013 370.206,347 C370.206,344.431987 371.111991,342.242009 372.924,340.43 C374.736009,338.617991 376.925987,337.712 379.494,337.712 C382.350014,337.712 384.689991,338.779989 386.514,340.916 L386.514,338 Z M379.53,354.02 C381.47401,354.02 383.111993,353.342007 384.444,351.986 C385.776007,350.629993 386.442,348.96801 386.442,347 C386.442,345.03199 385.776007,343.370007 384.444,342.014 C383.111993,340.657993 381.47401,339.98 379.53,339.98 C377.60999,339.98 375.972007,340.657993 374.616,342.014 C373.259993,343.370007 372.582,345.03199 372.582,347 C372.582,348.96801 373.259993,350.629993 374.616,351.986 C375.972007,353.342007 377.60999,354.02 379.53,354.02 Z M404.614,351.968 L405.802,353.804 C405.657999,353.996001 405.466001,354.223999 405.226,354.488 C404.985999,354.752001 404.446004,355.117998 403.606,355.586 C402.765996,356.054002 401.902004,356.288 401.014,356.288 C399.501992,356.288 398.236005,355.838005 397.216,354.938 C396.195995,354.037996 395.686,352.736009 395.686,351.032 L395.686,340.16 L392.806,340.16 L392.806,337.964 L395.686,337.964 L395.686,332.276 L398.062,331.988 L398.062,337.964 L403.498,337.964 L403.498,340.16 L398.062,340.16 L398.062,350.492 C398.062,351.596006 398.403997,352.471997 399.088,353.12 C399.772003,353.768003 400.557996,354.092 401.446,354.092 C401.998003,354.092 402.537997,353.924002 403.066,353.588 C403.594003,353.251998 403.983999,352.922002 404.236,352.598 C404.488001,352.273998 404.614,352.064 404.614,351.968 Z M417.278,353.912 C418.886008,353.912 420.325994,353.456005 421.598,352.544 C422.870006,351.631995 423.733998,350.564006 424.19,349.34 L426.206,350.06 C425.653997,351.572008 424.580008,352.963994 422.984,354.236 C421.387992,355.508006 419.486011,356.132 417.278,356.108 C415.26199,356.108 413.420008,355.484006 411.752,354.236 C410.083992,352.987994 408.950003,351.39201 408.35,349.448 C408.109999,348.655996 407.99,347.792005 407.99,346.856 C407.99,344.263987 408.889991,342.068009 410.69,340.268 C412.490009,338.467991 414.685987,337.556 417.278,337.532 C419.630012,337.556 421.681991,338.347992 423.434,339.908 C425.186009,341.468008 426.193999,343.399988 426.458,345.704 C426.482,345.824001 426.494,345.979999 426.494,346.172 L410.762,349.016 C411.170002,350.456007 411.985994,351.637995 413.21,352.562 C414.434006,353.486005 415.789993,353.936 417.278,353.912 Z M417.062,339.728 C415.261991,339.752 413.720006,340.399994 412.436,341.672 C411.151994,342.944006 410.462,344.467991 410.366,346.244 C410.366,346.316 410.372,346.441999 410.384,346.622 C410.396,346.802001 410.402,346.951999 410.402,347.072 L423.794,344.66 C423.337998,343.195993 422.486006,342.002005 421.238,341.078 C419.989994,340.153995 418.598008,339.704 417.062,339.728 Z" id="OR-Logic-Gate-Copy" fill="#23ABE3"></path>
    </g>
</svg>