<?xml version="1.0" encoding="UTF-8"?>
<svg width="900px" height="360px" viewBox="0 0 900 360" version="1.1" xmlns="http://www.w3.org/2000/svg" xmlns:xlink="http://www.w3.org/1999/xlink">
    <!-- Generator: Sketch 52.5 (67469) - http://www.bohemiancoding.com/sketch -->
    <title>Logical_AND_OR_Gates</title>
    <desc>Created with Sketch.</desc>
    <g id="Logical_AND_OR_Gates" stroke="none" stroke-width="1" fill="none" fill-rule="evenodd">
        <rect id="Rectangle" stroke="#3D3530" stroke-width="2" fill="#EEEEEE" x="1" y="1" width="898" height="402"></rect>
        <rect id="Rectangle-Copy-4" stroke="#3D3530" stroke-width="2" x="450" y="1" width="449" height="358"></rect>
        <g id="AND_Gate" transform="translate(472.000000, 16.000000)">
            <polyline id="Resistor" stroke="#3D3530" stroke-width="3" stroke-linejoin="round" transform="translate(216.000000, 114.000000) rotate(90.000000) translate(-216.000000, -114.000000) " points="181 114 186 114 191 101 201 127 211 101 221 127 231 101 241 127 246 114 251 114"></polyline>
            <g id="Schottky_Diode" transform="translate(150.000000, 175.000000) rotate(-180.000000) translate(-150.000000, -175.000000) translate(115.000000, 162.000000)">
                <polygon id="Path-2" fill="#3D3530" points="24.5 0 44 13 24.5 26"></polygon>
                <path d="M44,13 L70,13" id="Path-2-Copy" stroke="#3D3530" stroke-width="3"></path>
                <path d="M0,13 L24.5,13" id="Path-3" stroke="#3D3530" stroke-width="3"></path>
                <polyline id="Path" stroke="#3D3530" stroke-width="3" stroke-linejoin="round" points="49 5 49 1 44 1 44 25 39 25 39 21"></polyline>
            </g>
            <g id="Schottky_Diode-Copy" transform="translate(150.000000, 239.000000) rotate(-180.000000) translate(-150.000000, -239.000000) translate(115.000000, 226.000000)">
                <polygon id="Path-2" fill="#3D3530" points="24.5 0 44 13 24.5 26"></polygon>
                <path d="M44,13 L70,13" id="Path-2-Copy" stroke="#3D3530" stroke-width="3"></path>
                <path d="M0,13 L24.5,13" id="Path-3" stroke="#3D3530" stroke-width="3"></path>
                <polyline id="Path" stroke="#3D3530" stroke-width="3" stroke-linejoin="round" points="49 5 49 1 44 1 44 25 39 25 39 21"></polyline>
            </g>
            <g id="DC_Rail" transform="translate(216.000000, 53.500000) rotate(-90.000000) translate(-216.000000, -53.500000) translate(190.500000, 38.500000)" stroke="#3D3530" stroke-width="3">
                <path d="M-5.32907052e-15,15 L50,15" id="Path-2-Copy"></path>
                <path d="M50,-4.26325641e-14 L50,30" id="Path-4"></path>
            </g>
            <g id="Labels">
                <rect id="Rectangle" stroke="#3D3530" stroke-width="2" fill="#E3F4FB" x="278" y="193" width="113" height="28" rx="5"></rect>
                <rect id="Rectangle-Copy" stroke="#3D3530" stroke-width="2" fill="#E3F4FB" x="1" y="226" width="113" height="28" rx="5"></rect>
                <rect id="Rectangle-Copy-2" stroke="#3D3530" stroke-width="2" fill="#E3F4FB" x="1" y="160" width="113" height="28" rx="5"></rect>
                <path d="M307.544,203.896 C308.504005,204.744004 308.984,205.775994 308.984,206.992 C308.984,208.208006 308.508005,209.247996 307.556,210.112 C306.603995,210.976004 305.464007,211.408 304.136,211.408 C302.807993,211.408 301.668005,210.976004 300.716,210.112 C299.763995,209.247996 299.288,208.208006 299.288,206.992 C299.288,205.775994 299.763995,204.740004 300.716,203.884 C301.668005,203.027996 302.807993,202.6 304.136,202.6 C305.464007,202.6 306.599995,203.031996 307.544,203.896 Z M306.296,209.512 C306.792002,208.855997 307.04,208.016005 307.04,206.992 C307.04,205.967995 306.792002,205.132003 306.296,204.484 C305.799998,203.835997 305.080005,203.512 304.136,203.512 C303.191995,203.512 302.472002,203.839997 301.976,204.496 C301.479998,205.152003 301.232,205.983995 301.232,206.992 C301.232,208.000005 301.479998,208.831997 301.976,209.488 C302.472002,210.144003 303.191995,210.472 304.136,210.472 C305.080005,210.472 305.799998,210.152003 306.296,209.512 Z M323.408,210.808 L320.192,211.408 C320.063999,211.151999 319.936001,210.640004 319.808,209.872 C318.815995,210.896005 317.768006,211.408 316.664,211.408 C314.67999,211.408 313.688,210.208012 313.688,207.808 L313.688,206.296 C313.688,205.095994 313.572001,204.328002 313.34,203.992 C313.107999,203.655998 312.592004,203.488 311.792,203.488 L311.792,203.008 L315.392,203.008 L315.392,207.688 C315.392,209.400009 315.999994,210.256 317.216,210.256 C317.760003,210.256 318.327997,210.028002 318.92,209.572 C319.512003,209.115998 319.808,208.552003 319.808,207.88 L319.808,206.296 C319.808,205.095994 319.692001,204.328002 319.46,203.992 C319.227999,203.655998 318.704004,203.488 317.888,203.488 L317.888,203.008 L321.488,203.008 L321.488,207.496 C321.488,208.696006 321.603999,209.463998 321.836,209.8 C322.068001,210.136002 322.591996,210.304 323.408,210.304 L323.408,210.808 Z M326.984,203.848 L325.736,203.848 L325.736,203.272 C326.424003,203.127999 326.927998,202.816002 327.248,202.336 C327.568002,201.855998 327.776,201.200004 327.872,200.368 L328.688,200.368 L328.688,203.008 L330.776,203.008 L330.776,203.848 L328.688,203.848 L328.688,208.648 C328.688,209.800006 329.047996,210.376 329.768,210.376 C330.232002,210.376 330.751997,210.104003 331.328,209.56 L331.736,209.968 C331.399998,210.368002 330.996002,210.695999 330.524,210.952 C330.051998,211.208001 329.616002,211.336 329.216,211.336 C328.527997,211.336 327.984002,211.112002 327.584,210.664 C327.183998,210.215998 326.984,209.544004 326.984,208.648 L326.984,203.848 Z M341.864,209.488 C342.328002,208.831997 342.56,208.000005 342.56,206.992 C342.56,205.983995 342.328002,205.160003 341.864,204.52 C341.399998,203.879997 340.728004,203.56 339.848,203.56 C339.303997,203.56 338.820002,203.727998 338.396,204.064 C337.971998,204.400002 337.640001,204.855997 337.4,205.432 L337.4,208.528 C337.640001,209.120003 337.971998,209.587998 338.396,209.932 C338.820002,210.276002 339.303997,210.448 339.848,210.448 C340.728004,210.448 341.399998,210.128003 341.864,209.488 Z M337.4,213.712 C337.4,214.896006 337.515999,215.655998 337.748,215.992 C337.980001,216.328002 338.495996,216.496 339.296,216.496 L339.296,217 L333.8,217 L333.8,216.496 C334.600004,216.496 335.115999,216.332002 335.348,216.004 C335.580001,215.675998 335.696,214.912006 335.696,213.712 L335.696,206.488 C335.696,205.287994 335.580001,204.524002 335.348,204.196 C335.115999,203.867998 334.600004,203.704 333.8,203.704 L333.8,203.2 L337.016,202.6 C337.112,202.776001 337.231999,203.263996 337.376,204.064 C338.192004,203.087995 339.183994,202.6 340.352,202.6 C341.488006,202.6 342.463996,203.027996 343.28,203.884 C344.096004,204.740004 344.504,205.775994 344.504,206.992 C344.504,208.208006 344.096004,209.247996 343.28,210.112 C342.463996,210.976004 341.488006,211.408 340.352,211.408 C339.167994,211.408 338.184004,210.928005 337.4,209.968 L337.4,213.712 Z M358.928,210.808 L355.712,211.408 C355.583999,211.151999 355.456001,210.640004 355.328,209.872 C354.335995,210.896005 353.288006,211.408 352.184,211.408 C350.19999,211.408 349.208,210.208012 349.208,207.808 L349.208,206.296 C349.208,205.095994 349.092001,204.328002 348.86,203.992 C348.627999,203.655998 348.112004,203.488 347.312,203.488 L347.312,203.008 L350.912,203.008 L350.912,207.688 C350.912,209.400009 351.519994,210.256 352.736,210.256 C353.280003,210.256 353.847997,210.028002 354.44,209.572 C355.032003,209.115998 355.328,208.552003 355.328,207.88 L355.328,206.296 C355.328,205.095994 355.212001,204.328002 354.98,203.992 C354.747999,203.655998 354.224004,203.488 353.408,203.488 L353.408,203.008 L357.008,203.008 L357.008,207.496 C357.008,208.696006 357.123999,209.463998 357.356,209.8 C357.588001,210.136002 358.111996,210.304 358.928,210.304 L358.928,210.808 Z M362.504,203.848 L361.256,203.848 L361.256,203.272 C361.944003,203.127999 362.447998,202.816002 362.768,202.336 C363.088002,201.855998 363.296,201.200004 363.392,200.368 L364.208,200.368 L364.208,203.008 L366.296,203.008 L366.296,203.848 L364.208,203.848 L364.208,208.648 C364.208,209.800006 364.567996,210.376 365.288,210.376 C365.752002,210.376 366.271997,210.104003 366.848,209.56 L367.256,209.968 C366.919998,210.368002 366.516002,210.695999 366.044,210.952 C365.571998,211.208001 365.136002,211.336 364.736,211.336 C364.047997,211.336 363.504002,211.112002 363.104,210.664 C362.703998,210.215998 362.504,209.544004 362.504,208.648 L362.504,203.848 Z" id="output-copy" fill="#B35E2C"></path>
                <path d="M29.524,179 L24.028,179 L24.028,178.496 C24.828004,178.496 25.3439988,178.328002 25.576,177.992 C25.8080012,177.655998 25.924,176.888006 25.924,175.688 L25.924,174.488 C25.924,173.303994 25.8080012,172.544002 25.576,172.208 C25.3439988,171.871998 24.828004,171.704 24.028,171.704 L24.028,171.2 L27.628,170.6 L27.628,175.688 C27.628,176.888006 27.7439988,177.655998 27.976,177.992 C28.2080012,178.328002 28.723996,178.496 29.524,178.496 L29.524,179 Z M27.82,167.168 C27.82,167.472002 27.716001,167.727999 27.508,167.936 C27.299999,168.144001 27.0520014,168.248 26.764,168.248 C26.4759986,168.248 26.228001,168.144001 26.02,167.936 C25.811999,167.727999 25.708,167.472002 25.708,167.168 C25.708,166.879999 25.811999,166.632001 26.02,166.424 C26.228001,166.215999 26.4759986,166.112 26.764,166.112 C27.0520014,166.112 27.299999,166.215999 27.508,166.424 C27.716001,166.632001 27.82,166.879999 27.82,167.168 Z M35.692,172.328 C36.6040046,171.175994 37.7159934,170.6 39.028,170.6 C40.0680052,170.6 40.8479974,170.927997 41.368,171.584 C41.8880026,172.240003 42.148,173.103995 42.148,174.176 L42.148,175.688 C42.148,176.888006 42.2639988,177.655998 42.496,177.992 C42.7280012,178.328002 43.243996,178.496 44.044,178.496 L44.044,179 L38.548,179 L38.548,178.496 C39.3320039,178.496 39.8439988,178.324002 40.084,177.98 C40.3240012,177.635998 40.444,176.872006 40.444,175.688 L40.444,174.296 C40.444,172.583991 39.7800066,171.728 38.452,171.728 C37.7639966,171.728 37.1320029,171.967998 36.556,172.448 C35.9799971,172.928002 35.692,173.487997 35.692,174.128 L35.692,175.688 C35.692,176.920006 35.787999,177.695998 35.98,178.016 C36.172001,178.336002 36.6359963,178.496 37.372,178.496 L37.372,179 L32.092,179 L32.092,178.496 C32.892004,178.496 33.4079988,178.328002 33.64,177.992 C33.8720012,177.655998 33.988,176.888006 33.988,175.688 L33.988,174.488 C33.988,173.303994 33.8720012,172.544002 33.64,172.208 C33.4079988,171.871998 32.892004,171.704 32.092,171.704 L32.092,171.2 L35.284,170.6 C35.4280007,170.904002 35.5639994,171.479996 35.692,172.328 Z M54.22,177.488 C54.6840023,176.831997 54.916,176.000005 54.916,174.992 C54.916,173.983995 54.6840023,173.160003 54.22,172.52 C53.7559977,171.879997 53.0840044,171.56 52.204,171.56 C51.6599973,171.56 51.1760021,171.727998 50.752,172.064 C50.3279979,172.400002 49.9960012,172.855997 49.756,173.432 L49.756,176.528 C49.9960012,177.120003 50.3279979,177.587998 50.752,177.932 C51.1760021,178.276002 51.6599973,178.448 52.204,178.448 C53.0840044,178.448 53.7559977,178.128003 54.22,177.488 Z M49.756,181.712 C49.756,182.896006 49.8719988,183.655998 50.104,183.992 C50.3360012,184.328002 50.851996,184.496 51.652,184.496 L51.652,185 L46.156,185 L46.156,184.496 C46.956004,184.496 47.4719988,184.332002 47.704,184.004 C47.9360012,183.675998 48.052,182.912006 48.052,181.712 L48.052,174.488 C48.052,173.287994 47.9360012,172.524002 47.704,172.196 C47.4719988,171.867998 46.956004,171.704 46.156,171.704 L46.156,171.2 L49.372,170.6 C49.4680005,170.776001 49.5879993,171.263996 49.732,172.064 C50.5480041,171.087995 51.5399942,170.6 52.708,170.6 C53.8440057,170.6 54.8199959,171.027996 55.636,171.884 C56.4520041,172.740004 56.86,173.775994 56.86,174.992 C56.86,176.208006 56.4520041,177.247996 55.636,178.112 C54.8199959,178.976004 53.8440057,179.408 52.708,179.408 C51.5239941,179.408 50.5400039,178.928005 49.756,177.968 L49.756,181.712 Z M71.284,178.808 L68.068,179.408 C67.9399994,179.151999 67.8120006,178.640004 67.684,177.872 C66.691995,178.896005 65.6440055,179.408 64.54,179.408 C62.5559901,179.408 61.564,178.208012 61.564,175.808 L61.564,174.296 C61.564,173.095994 61.4480012,172.328002 61.216,171.992 C60.9839988,171.655998 60.468004,171.488 59.668,171.488 L59.668,171.008 L63.268,171.008 L63.268,175.688 C63.268,177.400009 63.8759939,178.256 65.092,178.256 C65.6360027,178.256 66.203997,178.028002 66.796,177.572 C67.388003,177.115998 67.684,176.552003 67.684,175.88 L67.684,174.296 C67.684,173.095994 67.5680012,172.328002 67.336,171.992 C67.1039988,171.655998 66.5800041,171.488 65.764,171.488 L65.764,171.008 L69.364,171.008 L69.364,175.496 C69.364,176.696006 69.4799988,177.463998 69.712,177.8 C69.9440012,178.136002 70.4679959,178.304 71.284,178.304 L71.284,178.808 Z M74.86,171.848 L73.612,171.848 L73.612,171.272 C74.3000034,171.127999 74.8039984,170.816002 75.124,170.336 C75.4440016,169.855998 75.6519995,169.200004 75.748,168.368 L76.564,168.368 L76.564,171.008 L78.652,171.008 L78.652,171.848 L76.564,171.848 L76.564,176.648 C76.564,177.800006 76.9239964,178.376 77.644,178.376 C78.1080023,178.376 78.6279971,178.104003 79.204,177.56 L79.612,177.968 C79.2759983,178.368002 78.8720024,178.695999 78.4,178.952 C77.9279976,179.208001 77.492002,179.336 77.092,179.336 C76.4039966,179.336 75.860002,179.112002 75.46,178.664 C75.059998,178.215998 74.86,177.544004 74.86,176.648 L74.86,171.848 Z M97.3,178.52 C96.8359977,179.016002 96.308003,179.264 95.716,179.264 C94.7559952,179.264 94.2120006,178.800005 94.084,177.872 C93.0119946,178.832005 92.0120046,179.312 91.084,179.312 C90.475997,179.312 89.9640021,179.132002 89.548,178.772 C89.1319979,178.411998 88.924,177.920003 88.924,177.296 C88.924,175.615992 90.627983,174.480003 94.036,173.888 C94.036,172.943995 93.932001,172.288002 93.724,171.92 C93.515999,171.551998 93.0840033,171.368 92.428,171.368 C92.1079984,171.368 91.8000015,171.471999 91.504,171.68 C91.2079985,171.888001 91.06,172.167998 91.06,172.52 C91.06,172.760001 90.9800008,172.959999 90.82,173.12 C90.6599992,173.280001 90.4680011,173.36 90.244,173.36 C90.0039988,173.36 89.8040008,173.280001 89.644,173.12 C89.4839992,172.959999 89.404,172.760001 89.404,172.52 C89.404,171.959997 89.7119969,171.500002 90.328,171.14 C90.9440031,170.779998 91.651996,170.6 92.452,170.6 C93.6200058,170.6 94.4599974,170.855997 94.972,171.368 C95.4840026,171.880003 95.74,172.711994 95.74,173.864 L95.74,177.488 C95.74,178.112003 95.9239982,178.424 96.292,178.424 C96.500001,178.424 96.7239988,178.304001 96.964,178.064 L97.3,178.52 Z M94.036,177.08 L94.036,174.632 C91.827989,175.144003 90.724,175.935995 90.724,177.008 C90.724,177.376002 90.8319989,177.671999 91.048,177.896 C91.2640011,178.120001 91.5319984,178.232 91.852,178.232 C92.444003,178.232 93.1719957,177.848004 94.036,177.08 Z" id="input-a-copy" fill="#B35E2C"></path>
                <path d="M29.896,245 L24.4,245 L24.4,244.496 C25.200004,244.496 25.7159988,244.328002 25.948,243.992 C26.1800012,243.655998 26.296,242.888006 26.296,241.688 L26.296,240.488 C26.296,239.303994 26.1800012,238.544002 25.948,238.208 C25.7159988,237.871998 25.200004,237.704 24.4,237.704 L24.4,237.2 L28,236.6 L28,241.688 C28,242.888006 28.1159988,243.655998 28.348,243.992 C28.5800012,244.328002 29.095996,244.496 29.896,244.496 L29.896,245 Z M28.192,233.168 C28.192,233.472002 28.088001,233.727999 27.88,233.936 C27.671999,234.144001 27.4240014,234.248 27.136,234.248 C26.8479986,234.248 26.600001,234.144001 26.392,233.936 C26.183999,233.727999 26.08,233.472002 26.08,233.168 C26.08,232.879999 26.183999,232.632001 26.392,232.424 C26.600001,232.215999 26.8479986,232.112 27.136,232.112 C27.4240014,232.112 27.671999,232.215999 27.88,232.424 C28.088001,232.632001 28.192,232.879999 28.192,233.168 Z M36.064,238.328 C36.9760046,237.175994 38.0879934,236.6 39.4,236.6 C40.4400052,236.6 41.2199974,236.927997 41.74,237.584 C42.2600026,238.240003 42.52,239.103995 42.52,240.176 L42.52,241.688 C42.52,242.888006 42.6359988,243.655998 42.868,243.992 C43.1000012,244.328002 43.615996,244.496 44.416,244.496 L44.416,245 L38.92,245 L38.92,244.496 C39.7040039,244.496 40.2159988,244.324002 40.456,243.98 C40.6960012,243.635998 40.816,242.872006 40.816,241.688 L40.816,240.296 C40.816,238.583991 40.1520066,237.728 38.824,237.728 C38.1359966,237.728 37.5040029,237.967998 36.928,238.448 C36.3519971,238.928002 36.064,239.487997 36.064,240.128 L36.064,241.688 C36.064,242.920006 36.159999,243.695998 36.352,244.016 C36.544001,244.336002 37.0079963,244.496 37.744,244.496 L37.744,245 L32.464,245 L32.464,244.496 C33.264004,244.496 33.7799988,244.328002 34.012,243.992 C34.2440012,243.655998 34.36,242.888006 34.36,241.688 L34.36,240.488 C34.36,239.303994 34.2440012,238.544002 34.012,238.208 C33.7799988,237.871998 33.264004,237.704 32.464,237.704 L32.464,237.2 L35.656,236.6 C35.8000007,236.904002 35.9359994,237.479996 36.064,238.328 Z M54.592,243.488 C55.0560023,242.831997 55.288,242.000005 55.288,240.992 C55.288,239.983995 55.0560023,239.160003 54.592,238.52 C54.1279977,237.879997 53.4560044,237.56 52.576,237.56 C52.0319973,237.56 51.5480021,237.727998 51.124,238.064 C50.6999979,238.400002 50.3680012,238.855997 50.128,239.432 L50.128,242.528 C50.3680012,243.120003 50.6999979,243.587998 51.124,243.932 C51.5480021,244.276002 52.0319973,244.448 52.576,244.448 C53.4560044,244.448 54.1279977,244.128003 54.592,243.488 Z M50.128,247.712 C50.128,248.896006 50.2439988,249.655998 50.476,249.992 C50.7080012,250.328002 51.223996,250.496 52.024,250.496 L52.024,251 L46.528,251 L46.528,250.496 C47.328004,250.496 47.8439988,250.332002 48.076,250.004 C48.3080012,249.675998 48.424,248.912006 48.424,247.712 L48.424,240.488 C48.424,239.287994 48.3080012,238.524002 48.076,238.196 C47.8439988,237.867998 47.328004,237.704 46.528,237.704 L46.528,237.2 L49.744,236.6 C49.8400005,236.776001 49.9599993,237.263996 50.104,238.064 C50.9200041,237.087995 51.9119942,236.6 53.08,236.6 C54.2160057,236.6 55.1919959,237.027996 56.008,237.884 C56.8240041,238.740004 57.232,239.775994 57.232,240.992 C57.232,242.208006 56.8240041,243.247996 56.008,244.112 C55.1919959,244.976004 54.2160057,245.408 53.08,245.408 C51.8959941,245.408 50.9120039,244.928005 50.128,243.968 L50.128,247.712 Z M71.656,244.808 L68.44,245.408 C68.3119994,245.151999 68.1840006,244.640004 68.056,243.872 C67.063995,244.896005 66.0160055,245.408 64.912,245.408 C62.9279901,245.408 61.936,244.208012 61.936,241.808 L61.936,240.296 C61.936,239.095994 61.8200012,238.328002 61.588,237.992 C61.3559988,237.655998 60.840004,237.488 60.04,237.488 L60.04,237.008 L63.64,237.008 L63.64,241.688 C63.64,243.400009 64.2479939,244.256 65.464,244.256 C66.0080027,244.256 66.575997,244.028002 67.168,243.572 C67.760003,243.115998 68.056,242.552003 68.056,241.88 L68.056,240.296 C68.056,239.095994 67.9400012,238.328002 67.708,237.992 C67.4759988,237.655998 66.9520041,237.488 66.136,237.488 L66.136,237.008 L69.736,237.008 L69.736,241.496 C69.736,242.696006 69.8519988,243.463998 70.084,243.8 C70.3160012,244.136002 70.8399959,244.304 71.656,244.304 L71.656,244.808 Z M75.232,237.848 L73.984,237.848 L73.984,237.272 C74.6720034,237.127999 75.1759984,236.816002 75.496,236.336 C75.8160016,235.855998 76.0239995,235.200004 76.12,234.368 L76.936,234.368 L76.936,237.008 L79.024,237.008 L79.024,237.848 L76.936,237.848 L76.936,242.648 C76.936,243.800006 77.2959964,244.376 78.016,244.376 C78.4800023,244.376 78.9999971,244.104003 79.576,243.56 L79.984,243.968 C79.6479983,244.368002 79.2440024,244.695999 78.772,244.952 C78.2999976,245.208001 77.864002,245.336 77.464,245.336 C76.7759966,245.336 76.232002,245.112002 75.832,244.664 C75.431998,244.215998 75.232,243.544004 75.232,242.648 L75.232,237.848 Z M92.056,239.456 L92.056,242.528 C92.2800011,243.120003 92.6039979,243.587998 93.028,243.932 C93.4520021,244.276002 93.9359973,244.448 94.48,244.448 C95.3760045,244.448 96.0559977,244.128003 96.52,243.488 C96.9840023,242.847997 97.216,242.016005 97.216,240.992 C97.216,239.983995 96.9840023,239.160003 96.52,238.52 C96.0559977,237.879997 95.3760045,237.56 94.48,237.56 C93.9359973,237.56 93.4520021,237.731998 93.028,238.076 C92.6039979,238.420002 92.2800011,238.879997 92.056,239.456 Z M91.912,243.8 L90.856,245.408 L90.352,245.408 L90.352,234.104 C90.352,232.903994 90.2360012,232.136002 90.004,231.8 C89.7719988,231.463998 89.256004,231.296 88.456,231.296 L88.456,230.792 L92.056,230.192 L92.056,238.016 C92.8240038,237.071995 93.7999941,236.6 94.984,236.6 C96.1200057,236.6 97.0959959,237.027996 97.912,237.884 C98.7280041,238.740004 99.136,239.775994 99.136,240.992 C99.136,242.208006 98.7280041,243.247996 97.912,244.112 C97.0959959,244.976004 96.1200057,245.408 94.984,245.408 C93.6879935,245.408 92.6640038,244.872005 91.912,243.8 Z" id="input-b-copy" fill="#B35E2C"></path>
                <path d="M197.44,14.24 C197.327999,14.3360005 197.188001,14.483999 197.02,14.684 C196.851999,14.884001 196.696001,15.0439994 196.552,15.164 C196.407999,15.2840006 196.264001,15.344 196.12,15.344 C195.991999,15.344 195.876001,15.2920005 195.772,15.188 C195.667999,15.0839995 195.616,14.9520008 195.616,14.792 C195.616,14.5039986 195.823998,14.2080015 196.24,13.904 L198.016,12.488 C198.480002,12.1359982 198.859999,11.6840028 199.156,11.132 C199.452001,10.5799972 199.6,10.008003 199.6,9.416 C199.6,8.74399664 199.360002,8.208002 198.88,7.808 C198.399998,7.407998 197.768004,7.208 196.984,7.208 C196.151996,7.208 195.456003,7.55999648 194.896,8.264 C194.335997,8.96800352 194.343997,9.81599504 194.92,10.808 L194.2,11.552 C193.271995,10.9919972 192.772,10.2840043 192.7,9.428 C192.628,8.57199572 192.991996,7.82000324 193.792,7.172 C194.592004,6.52399676 195.655993,6.2 196.984,6.2 C198.216006,6.2 199.287995,6.49599704 200.2,7.088 C201.112005,7.68000296 201.568,8.4559952 201.568,9.416 C201.568,9.76800176 201.492001,10.1279982 201.34,10.496 C201.187999,10.8640018 201.004001,11.1759987 200.788,11.432 C200.571999,11.6880013 200.356001,11.9239989 200.14,12.14 C199.923999,12.3560011 199.744001,12.5199994 199.6,12.632 L199.36,12.776 L198.256,13.616 C199.408006,13.8560012 200.319997,14.3279965 200.992,15.032 C201.664003,15.7360035 202,16.5519954 202,17.48 C202,18.5840055 201.540005,19.5279961 200.62,20.312 C199.699995,21.0960039 198.568007,21.488 197.224,21.488 C195.927994,21.488 194.864004,21.1760031 194.032,20.552 C193.199996,19.9279969 192.784,19.3360028 192.784,18.776 C192.784,18.4079982 192.991998,18.224 193.408,18.224 C193.568001,18.224 193.707999,18.2959993 193.828,18.44 C193.948001,18.5840007 194.083999,18.7839987 194.236,19.04 C194.388001,19.2960013 194.535999,19.4959993 194.68,19.64 C195.272003,20.2640031 196.055995,20.576 197.032,20.576 C197.976005,20.576 198.683998,20.2920028 199.156,19.724 C199.628002,19.1559972 199.864,18.4080046 199.864,17.48 C199.864,16.7119962 199.668002,16.024003 199.276,15.416 C198.883998,14.807997 198.272004,14.4160009 197.44,14.24 Z M209.704,15.944 C209.704,16.2800017 209.568001,16.5719988 209.296,16.82 C209.023999,17.0680012 208.704002,17.192 208.336,17.192 C207.967998,17.192 207.656001,17.0680012 207.4,16.82 C207.143999,16.5719988 207.016,16.2800017 207.016,15.944 C207.016,15.5919982 207.143999,15.2920012 207.4,15.044 C207.656001,14.7959988 207.967998,14.672 208.336,14.672 C208.704002,14.672 209.023999,14.7959988 209.296,15.044 C209.568001,15.2920012 209.704,15.5919982 209.704,15.944 Z M219.544,14.24 C219.431999,14.3360005 219.292001,14.483999 219.124,14.684 C218.955999,14.884001 218.800001,15.0439994 218.656,15.164 C218.511999,15.2840006 218.368001,15.344 218.224,15.344 C218.095999,15.344 217.980001,15.2920005 217.876,15.188 C217.771999,15.0839995 217.72,14.9520008 217.72,14.792 C217.72,14.5039986 217.927998,14.2080015 218.344,13.904 L220.12,12.488 C220.584002,12.1359982 220.963999,11.6840028 221.26,11.132 C221.556001,10.5799972 221.704,10.008003 221.704,9.416 C221.704,8.74399664 221.464002,8.208002 220.984,7.808 C220.503998,7.407998 219.872004,7.208 219.088,7.208 C218.255996,7.208 217.560003,7.55999648 217,8.264 C216.439997,8.96800352 216.447997,9.81599504 217.024,10.808 L216.304,11.552 C215.375995,10.9919972 214.876,10.2840043 214.804,9.428 C214.732,8.57199572 215.095996,7.82000324 215.896,7.172 C216.696004,6.52399676 217.759993,6.2 219.088,6.2 C220.320006,6.2 221.391995,6.49599704 222.304,7.088 C223.216005,7.68000296 223.672,8.4559952 223.672,9.416 C223.672,9.76800176 223.596001,10.1279982 223.444,10.496 C223.291999,10.8640018 223.108001,11.1759987 222.892,11.432 C222.675999,11.6880013 222.460001,11.9239989 222.244,12.14 C222.027999,12.3560011 221.848001,12.5199994 221.704,12.632 L221.464,12.776 L220.36,13.616 C221.512006,13.8560012 222.423997,14.3279965 223.096,15.032 C223.768003,15.7360035 224.104,16.5519954 224.104,17.48 C224.104,18.5840055 223.644005,19.5279961 222.724,20.312 C221.803995,21.0960039 220.672007,21.488 219.328,21.488 C218.031994,21.488 216.968004,21.1760031 216.136,20.552 C215.303996,19.9279969 214.888,19.3360028 214.888,18.776 C214.888,18.4079982 215.095998,18.224 215.512,18.224 C215.672001,18.224 215.811999,18.2959993 215.932,18.44 C216.052001,18.5840007 216.187999,18.7839987 216.34,19.04 C216.492001,19.2960013 216.639999,19.4959993 216.784,19.64 C217.376003,20.2640031 218.159995,20.576 219.136,20.576 C220.080005,20.576 220.787998,20.2920028 221.26,19.724 C221.732002,19.1559972 221.968,18.4080046 221.968,17.48 C221.968,16.7119962 221.772002,16.024003 221.38,15.416 C220.987998,14.807997 220.376004,14.4160009 219.544,14.24 Z M242.44,3.104 C241.495995,3.104 240.884001,3.21999884 240.604,3.452 C240.323999,3.68400116 239.984002,4.26399536 239.584,5.192 L234.304,17.408 L233.992,17.408 L228.688,5.192 C228.287998,4.26399536 227.948001,3.68400116 227.668,3.452 C227.387999,3.21999884 226.776005,3.104 225.832,3.104 L225.832,2.6 L232.48,2.6 L232.48,3.104 C231.487995,3.104 230.852001,3.2439986 230.572,3.524 C230.291999,3.8040014 230.303998,4.27199672 230.608,4.928 L234.688,14.264 L238.72,4.928 C239.024002,4.27199672 239.036001,3.8040014 238.756,3.524 C238.475999,3.2439986 237.840005,3.104 236.848,3.104 L236.848,2.6 L242.44,2.6 L242.44,3.104 Z" id="3.3V-Copy" fill="#524740"></path>
            </g>
            <g id="Wiring" transform="translate(185.000000, 149.000000)">
                <polyline id="Path-5" stroke="#3D3530" stroke-width="2" points="0 90 31 90 31 0"></polyline>
                <circle id="Connection" fill="#3D3530" cx="31" cy="26" r="5"></circle>
                <circle id="Connection-Copy" fill="#3D3530" cx="31" cy="58" r="5"></circle>
                <path d="M31,26 L0,26" id="Path-6" stroke="#3D3530" stroke-width="2"></path>
                <path d="M31,58 L94,58" id="Path-7" stroke="#3D3530" stroke-width="2"></path>
            </g>
        </g>
        <g id="OR_Gate" transform="translate(42.000000, 36.000000)">
            <g id="Components" transform="translate(115.000000, 2.000000)">
                <polyline id="Resistor-Copy" stroke="#3D3530" stroke-width="3" stroke-linejoin="round" transform="translate(101.000000, 137.000000) rotate(90.000000) translate(-101.000000, -137.000000) " points="66 137 71 137 76 124 86 150 96 124 106 150 116 124 126 150 131 137 136 137"></polyline>
                <g id="Schottky_Diode" transform="translate(0.000000, 64.000000)">
                    <polygon id="Path-2" fill="#3D3530" points="24.5 0 44 13 24.5 26"></polygon>
                    <path d="M44,13 L70,13" id="Path-2-Copy" stroke="#3D3530" stroke-width="3"></path>
                    <path d="M0,13 L24.5,13" id="Path-3" stroke="#3D3530" stroke-width="3"></path>
                    <polyline id="Path" stroke="#3D3530" stroke-width="3" stroke-linejoin="round" points="49 5 49 1 44 1 44 25 39 25 39 21"></polyline>
                </g>
                <g id="Schottky_Diode-Copy-3">
                    <polygon id="Path-2" fill="#3D3530" points="24.5 0 44 13 24.5 26"></polygon>
                    <path d="M44,13 L70,13" id="Path-2-Copy" stroke="#3D3530" stroke-width="3"></path>
                    <path d="M0,13 L24.5,13" id="Path-3" stroke="#3D3530" stroke-width="3"></path>
                    <polyline id="Path" stroke="#3D3530" stroke-width="3" stroke-linejoin="round" points="49 5 49 1 44 1 44 25 39 25 39 21"></polyline>
                </g>
                <g id="Ground" transform="translate(101.000000, 209.500000) rotate(-90.000000) translate(-101.000000, -209.500000) translate(63.500000, 176.500000)" stroke="#3D3530" stroke-width="3">
                    <path d="M25,33 L75,33" id="Path-2-Copy"></path>
                    <path d="M13,13 L13,53" id="Path-4"></path>
                    <path d="M1,27 L1,39" id="Path-4-Copy"></path>
                    <path d="M25,0 L25,66" id="Path-3-Copy"></path>
                </g>
            </g>
            <g id="Labels">
                <rect id="Rectangle-Copy-2" stroke="#3D3530" stroke-width="2" fill="#E3F4FB" x="280" y="33" width="113" height="28" rx="5"></rect>
                <rect id="Rectangle-Copy-5" stroke="#3D3530" stroke-width="2" fill="#E3F4FB" x="1" y="1" width="113" height="28" rx="5"></rect>
                <rect id="Rectangle-Copy-6" stroke="#3D3530" stroke-width="2" fill="#E3F4FB" x="1" y="65" width="113" height="28" rx="5"></rect>
                <path d="M307.544,43.896 C308.504005,44.7440042 308.984,45.7759939 308.984,46.992 C308.984,48.2080061 308.508005,49.2479957 307.556,50.112 C306.603995,50.9760043 305.464007,51.408 304.136,51.408 C302.807993,51.408 301.668005,50.9760043 300.716,50.112 C299.763995,49.2479957 299.288,48.2080061 299.288,46.992 C299.288,45.7759939 299.763995,44.7400043 300.716,43.884 C301.668005,43.0279957 302.807993,42.6 304.136,42.6 C305.464007,42.6 306.599995,43.0319957 307.544,43.896 Z M306.296,49.512 C306.792002,48.8559967 307.04,48.0160051 307.04,46.992 C307.04,45.9679949 306.792002,45.1320032 306.296,44.484 C305.799998,43.8359968 305.080005,43.512 304.136,43.512 C303.191995,43.512 302.472002,43.8399967 301.976,44.496 C301.479998,45.1520033 301.232,45.983995 301.232,46.992 C301.232,48.000005 301.479998,48.8319967 301.976,49.488 C302.472002,50.1440033 303.191995,50.472 304.136,50.472 C305.080005,50.472 305.799998,50.1520032 306.296,49.512 Z M323.408,50.808 L320.192,51.408 C320.063999,51.1519987 319.936001,50.6400038 319.808,49.872 C318.815995,50.8960051 317.768006,51.408 316.664,51.408 C314.67999,51.408 313.688,50.208012 313.688,47.808 L313.688,46.296 C313.688,45.095994 313.572001,44.3280017 313.34,43.992 C313.107999,43.6559983 312.592004,43.488 311.792,43.488 L311.792,43.008 L315.392,43.008 L315.392,47.688 C315.392,49.4000086 315.999994,50.256 317.216,50.256 C317.760003,50.256 318.327997,50.0280023 318.92,49.572 C319.512003,49.1159977 319.808,48.5520034 319.808,47.88 L319.808,46.296 C319.808,45.095994 319.692001,44.3280017 319.46,43.992 C319.227999,43.6559983 318.704004,43.488 317.888,43.488 L317.888,43.008 L321.488,43.008 L321.488,47.496 C321.488,48.696006 321.603999,49.4639983 321.836,49.8 C322.068001,50.1360017 322.591996,50.304 323.408,50.304 L323.408,50.808 Z M326.984,43.848 L325.736,43.848 L325.736,43.272 C326.424003,43.1279993 326.927998,42.8160024 327.248,42.336 C327.568002,41.8559976 327.776,41.2000042 327.872,40.368 L328.688,40.368 L328.688,43.008 L330.776,43.008 L330.776,43.848 L328.688,43.848 L328.688,48.648 C328.688,49.8000058 329.047996,50.376 329.768,50.376 C330.232002,50.376 330.751997,50.1040027 331.328,49.56 L331.736,49.968 C331.399998,50.368002 330.996002,50.6959987 330.524,50.952 C330.051998,51.2080013 329.616002,51.336 329.216,51.336 C328.527997,51.336 327.984002,51.1120022 327.584,50.664 C327.183998,50.2159978 326.984,49.5440045 326.984,48.648 L326.984,43.848 Z M341.864,49.488 C342.328002,48.8319967 342.56,48.000005 342.56,46.992 C342.56,45.983995 342.328002,45.1600032 341.864,44.52 C341.399998,43.8799968 340.728004,43.56 339.848,43.56 C339.303997,43.56 338.820002,43.7279983 338.396,44.064 C337.971998,44.4000017 337.640001,44.8559971 337.4,45.432 L337.4,48.528 C337.640001,49.120003 337.971998,49.5879983 338.396,49.932 C338.820002,50.2760017 339.303997,50.448 339.848,50.448 C340.728004,50.448 341.399998,50.1280032 341.864,49.488 Z M337.4,53.712 C337.4,54.8960059 337.515999,55.6559983 337.748,55.992 C337.980001,56.3280017 338.495996,56.496 339.296,56.496 L339.296,57 L333.8,57 L333.8,56.496 C334.600004,56.496 335.115999,56.3320016 335.348,56.004 C335.580001,55.6759984 335.696,54.912006 335.696,53.712 L335.696,46.488 C335.696,45.287994 335.580001,44.5240016 335.348,44.196 C335.115999,43.8679984 334.600004,43.704 333.8,43.704 L333.8,43.2 L337.016,42.6 C337.112,42.7760009 337.231999,43.263996 337.376,44.064 C338.192004,43.0879951 339.183994,42.6 340.352,42.6 C341.488006,42.6 342.463996,43.0279957 343.28,43.884 C344.096004,44.7400043 344.504,45.7759939 344.504,46.992 C344.504,48.2080061 344.096004,49.2479957 343.28,50.112 C342.463996,50.9760043 341.488006,51.408 340.352,51.408 C339.167994,51.408 338.184004,50.9280048 337.4,49.968 L337.4,53.712 Z M358.928,50.808 L355.712,51.408 C355.583999,51.1519987 355.456001,50.6400038 355.328,49.872 C354.335995,50.8960051 353.288006,51.408 352.184,51.408 C350.19999,51.408 349.208,50.208012 349.208,47.808 L349.208,46.296 C349.208,45.095994 349.092001,44.3280017 348.86,43.992 C348.627999,43.6559983 348.112004,43.488 347.312,43.488 L347.312,43.008 L350.912,43.008 L350.912,47.688 C350.912,49.4000086 351.519994,50.256 352.736,50.256 C353.280003,50.256 353.847997,50.0280023 354.44,49.572 C355.032003,49.1159977 355.328,48.5520034 355.328,47.88 L355.328,46.296 C355.328,45.095994 355.212001,44.3280017 354.98,43.992 C354.747999,43.6559983 354.224004,43.488 353.408,43.488 L353.408,43.008 L357.008,43.008 L357.008,47.496 C357.008,48.696006 357.123999,49.4639983 357.356,49.8 C357.588001,50.1360017 358.111996,50.304 358.928,50.304 L358.928,50.808 Z M362.504,43.848 L361.256,43.848 L361.256,43.272 C361.944003,43.1279993 362.447998,42.8160024 362.768,42.336 C363.088002,41.8559976 363.296,41.2000042 363.392,40.368 L364.208,40.368 L364.208,43.008 L366.296,43.008 L366.296,43.848 L364.208,43.848 L364.208,48.648 C364.208,49.8000058 364.567996,50.376 365.288,50.376 C365.752002,50.376 366.271997,50.1040027 366.848,49.56 L367.256,49.968 C366.919998,50.368002 366.516002,50.6959987 366.044,50.952 C365.571998,51.2080013 365.136002,51.336 364.736,51.336 C364.047997,51.336 363.504002,51.1120022 363.104,50.664 C362.703998,50.2159978 362.504,49.5440045 362.504,48.648 L362.504,43.848 Z" id="output-copy-3" fill="#B35E2C"></path>
                <path d="M29.524,19 L24.028,19 L24.028,18.496 C24.828004,18.496 25.3439988,18.3280017 25.576,17.992 C25.8080012,17.6559983 25.924,16.888006 25.924,15.688 L25.924,14.488 C25.924,13.3039941 25.8080012,12.5440017 25.576,12.208 C25.3439988,11.8719983 24.828004,11.704 24.028,11.704 L24.028,11.2 L27.628,10.6 L27.628,15.688 C27.628,16.888006 27.7439988,17.6559983 27.976,17.992 C28.2080012,18.3280017 28.723996,18.496 29.524,18.496 L29.524,19 Z M27.82,7.168 C27.82,7.47200152 27.716001,7.72799896 27.508,7.936 C27.299999,8.14400104 27.0520014,8.248 26.764,8.248 C26.4759986,8.248 26.228001,8.14400104 26.02,7.936 C25.811999,7.72799896 25.708,7.47200152 25.708,7.168 C25.708,6.87999856 25.811999,6.63200104 26.02,6.424 C26.228001,6.21599896 26.4759986,6.112 26.764,6.112 C27.0520014,6.112 27.299999,6.21599896 27.508,6.424 C27.716001,6.63200104 27.82,6.87999856 27.82,7.168 Z M35.692,12.328 C36.6040046,11.1759942 37.7159934,10.6 39.028,10.6 C40.0680052,10.6 40.8479974,10.9279967 41.368,11.584 C41.8880026,12.2400033 42.148,13.1039946 42.148,14.176 L42.148,15.688 C42.148,16.888006 42.2639988,17.6559983 42.496,17.992 C42.7280012,18.3280017 43.243996,18.496 44.044,18.496 L44.044,19 L38.548,19 L38.548,18.496 C39.3320039,18.496 39.8439988,18.3240017 40.084,17.98 C40.3240012,17.6359983 40.444,16.8720059 40.444,15.688 L40.444,14.296 C40.444,12.5839914 39.7800066,11.728 38.452,11.728 C37.7639966,11.728 37.1320029,11.9679976 36.556,12.448 C35.9799971,12.9280024 35.692,13.4879968 35.692,14.128 L35.692,15.688 C35.692,16.9200062 35.787999,17.6959984 35.98,18.016 C36.172001,18.3360016 36.6359963,18.496 37.372,18.496 L37.372,19 L32.092,19 L32.092,18.496 C32.892004,18.496 33.4079988,18.3280017 33.64,17.992 C33.8720012,17.6559983 33.988,16.888006 33.988,15.688 L33.988,14.488 C33.988,13.3039941 33.8720012,12.5440017 33.64,12.208 C33.4079988,11.8719983 32.892004,11.704 32.092,11.704 L32.092,11.2 L35.284,10.6 C35.4280007,10.9040015 35.5639994,11.4799958 35.692,12.328 Z M54.22,17.488 C54.6840023,16.8319967 54.916,16.000005 54.916,14.992 C54.916,13.983995 54.6840023,13.1600032 54.22,12.52 C53.7559977,11.8799968 53.0840044,11.56 52.204,11.56 C51.6599973,11.56 51.1760021,11.7279983 50.752,12.064 C50.3279979,12.4000017 49.9960012,12.8559971 49.756,13.432 L49.756,16.528 C49.9960012,17.120003 50.3279979,17.5879983 50.752,17.932 C51.1760021,18.2760017 51.6599973,18.448 52.204,18.448 C53.0840044,18.448 53.7559977,18.1280032 54.22,17.488 Z M49.756,21.712 C49.756,22.8960059 49.8719988,23.6559983 50.104,23.992 C50.3360012,24.3280017 50.851996,24.496 51.652,24.496 L51.652,25 L46.156,25 L46.156,24.496 C46.956004,24.496 47.4719988,24.3320016 47.704,24.004 C47.9360012,23.6759984 48.052,22.912006 48.052,21.712 L48.052,14.488 C48.052,13.287994 47.9360012,12.5240016 47.704,12.196 C47.4719988,11.8679984 46.956004,11.704 46.156,11.704 L46.156,11.2 L49.372,10.6 C49.4680005,10.7760009 49.5879993,11.263996 49.732,12.064 C50.5480041,11.0879951 51.5399942,10.6 52.708,10.6 C53.8440057,10.6 54.8199959,11.0279957 55.636,11.884 C56.4520041,12.7400043 56.86,13.7759939 56.86,14.992 C56.86,16.2080061 56.4520041,17.2479957 55.636,18.112 C54.8199959,18.9760043 53.8440057,19.408 52.708,19.408 C51.5239941,19.408 50.5400039,18.9280048 49.756,17.968 L49.756,21.712 Z M71.284,18.808 L68.068,19.408 C67.9399994,19.1519987 67.8120006,18.6400038 67.684,17.872 C66.691995,18.8960051 65.6440055,19.408 64.54,19.408 C62.5559901,19.408 61.564,18.208012 61.564,15.808 L61.564,14.296 C61.564,13.095994 61.4480012,12.3280017 61.216,11.992 C60.9839988,11.6559983 60.468004,11.488 59.668,11.488 L59.668,11.008 L63.268,11.008 L63.268,15.688 C63.268,17.4000086 63.8759939,18.256 65.092,18.256 C65.6360027,18.256 66.203997,18.0280023 66.796,17.572 C67.388003,17.1159977 67.684,16.5520034 67.684,15.88 L67.684,14.296 C67.684,13.095994 67.5680012,12.3280017 67.336,11.992 C67.1039988,11.6559983 66.5800041,11.488 65.764,11.488 L65.764,11.008 L69.364,11.008 L69.364,15.496 C69.364,16.696006 69.4799988,17.4639983 69.712,17.8 C69.9440012,18.1360017 70.4679959,18.304 71.284,18.304 L71.284,18.808 Z M74.86,11.848 L73.612,11.848 L73.612,11.272 C74.3000034,11.1279993 74.8039984,10.8160024 75.124,10.336 C75.4440016,9.8559976 75.6519995,9.20000416 75.748,8.368 L76.564,8.368 L76.564,11.008 L78.652,11.008 L78.652,11.848 L76.564,11.848 L76.564,16.648 C76.564,17.8000058 76.9239964,18.376 77.644,18.376 C78.1080023,18.376 78.6279971,18.1040027 79.204,17.56 L79.612,17.968 C79.2759983,18.368002 78.8720024,18.6959987 78.4,18.952 C77.9279976,19.2080013 77.492002,19.336 77.092,19.336 C76.4039966,19.336 75.860002,19.1120022 75.46,18.664 C75.059998,18.2159978 74.86,17.5440045 74.86,16.648 L74.86,11.848 Z M97.3,18.52 C96.8359977,19.0160025 96.308003,19.264 95.716,19.264 C94.7559952,19.264 94.2120006,18.8000046 94.084,17.872 C93.0119946,18.8320048 92.0120046,19.312 91.084,19.312 C90.475997,19.312 89.9640021,19.1320018 89.548,18.772 C89.1319979,18.4119982 88.924,17.9200031 88.924,17.296 C88.924,15.6159916 90.627983,14.480003 94.036,13.888 C94.036,12.9439953 93.932001,12.2880018 93.724,11.92 C93.515999,11.5519982 93.0840033,11.368 92.428,11.368 C92.1079984,11.368 91.8000015,11.471999 91.504,11.68 C91.2079985,11.888001 91.06,12.1679982 91.06,12.52 C91.06,12.7600012 90.9800008,12.9599992 90.82,13.12 C90.6599992,13.2800008 90.4680011,13.36 90.244,13.36 C90.0039988,13.36 89.8040008,13.2800008 89.644,13.12 C89.4839992,12.9599992 89.404,12.7600012 89.404,12.52 C89.404,11.9599972 89.7119969,11.5000018 90.328,11.14 C90.9440031,10.7799982 91.651996,10.6 92.452,10.6 C93.6200058,10.6 94.4599974,10.8559974 94.972,11.368 C95.4840026,11.8800026 95.74,12.7119942 95.74,13.864 L95.74,17.488 C95.74,18.1120031 95.9239982,18.424 96.292,18.424 C96.500001,18.424 96.7239988,18.3040012 96.964,18.064 L97.3,18.52 Z M94.036,17.08 L94.036,14.632 C91.827989,15.1440026 90.724,15.9359946 90.724,17.008 C90.724,17.3760018 90.8319989,17.6719989 91.048,17.896 C91.2640011,18.1200011 91.5319984,18.232 91.852,18.232 C92.444003,18.232 93.1719957,17.8480038 94.036,17.08 Z" id="input-a-copy-3" fill="#B35E2C"></path>
                <path d="M29.896,84 L24.4,84 L24.4,83.496 C25.200004,83.496 25.7159988,83.3280017 25.948,82.992 C26.1800012,82.6559983 26.296,81.888006 26.296,80.688 L26.296,79.488 C26.296,78.3039941 26.1800012,77.5440017 25.948,77.208 C25.7159988,76.8719983 25.200004,76.704 24.4,76.704 L24.4,76.2 L28,75.6 L28,80.688 C28,81.888006 28.1159988,82.6559983 28.348,82.992 C28.5800012,83.3280017 29.095996,83.496 29.896,83.496 L29.896,84 Z M28.192,72.168 C28.192,72.4720015 28.088001,72.727999 27.88,72.936 C27.671999,73.144001 27.4240014,73.248 27.136,73.248 C26.8479986,73.248 26.600001,73.144001 26.392,72.936 C26.183999,72.727999 26.08,72.4720015 26.08,72.168 C26.08,71.8799986 26.183999,71.632001 26.392,71.424 C26.600001,71.215999 26.8479986,71.112 27.136,71.112 C27.4240014,71.112 27.671999,71.215999 27.88,71.424 C28.088001,71.632001 28.192,71.8799986 28.192,72.168 Z M36.064,77.328 C36.9760046,76.1759942 38.0879934,75.6 39.4,75.6 C40.4400052,75.6 41.2199974,75.9279967 41.74,76.584 C42.2600026,77.2400033 42.52,78.1039946 42.52,79.176 L42.52,80.688 C42.52,81.888006 42.6359988,82.6559983 42.868,82.992 C43.1000012,83.3280017 43.615996,83.496 44.416,83.496 L44.416,84 L38.92,84 L38.92,83.496 C39.7040039,83.496 40.2159988,83.3240017 40.456,82.98 C40.6960012,82.6359983 40.816,81.8720059 40.816,80.688 L40.816,79.296 C40.816,77.5839914 40.1520066,76.728 38.824,76.728 C38.1359966,76.728 37.5040029,76.9679976 36.928,77.448 C36.3519971,77.9280024 36.064,78.4879968 36.064,79.128 L36.064,80.688 C36.064,81.9200062 36.159999,82.6959984 36.352,83.016 C36.544001,83.3360016 37.0079963,83.496 37.744,83.496 L37.744,84 L32.464,84 L32.464,83.496 C33.264004,83.496 33.7799988,83.3280017 34.012,82.992 C34.2440012,82.6559983 34.36,81.888006 34.36,80.688 L34.36,79.488 C34.36,78.3039941 34.2440012,77.5440017 34.012,77.208 C33.7799988,76.8719983 33.264004,76.704 32.464,76.704 L32.464,76.2 L35.656,75.6 C35.8000007,75.9040015 35.9359994,76.4799958 36.064,77.328 Z M54.592,82.488 C55.0560023,81.8319967 55.288,81.000005 55.288,79.992 C55.288,78.983995 55.0560023,78.1600032 54.592,77.52 C54.1279977,76.8799968 53.4560044,76.56 52.576,76.56 C52.0319973,76.56 51.5480021,76.7279983 51.124,77.064 C50.6999979,77.4000017 50.3680012,77.8559971 50.128,78.432 L50.128,81.528 C50.3680012,82.120003 50.6999979,82.5879983 51.124,82.932 C51.5480021,83.2760017 52.0319973,83.448 52.576,83.448 C53.4560044,83.448 54.1279977,83.1280032 54.592,82.488 Z M50.128,86.712 C50.128,87.8960059 50.2439988,88.6559983 50.476,88.992 C50.7080012,89.3280017 51.223996,89.496 52.024,89.496 L52.024,90 L46.528,90 L46.528,89.496 C47.328004,89.496 47.8439988,89.3320016 48.076,89.004 C48.3080012,88.6759984 48.424,87.912006 48.424,86.712 L48.424,79.488 C48.424,78.287994 48.3080012,77.5240016 48.076,77.196 C47.8439988,76.8679984 47.328004,76.704 46.528,76.704 L46.528,76.2 L49.744,75.6 C49.8400005,75.7760009 49.9599993,76.263996 50.104,77.064 C50.9200041,76.0879951 51.9119942,75.6 53.08,75.6 C54.2160057,75.6 55.1919959,76.0279957 56.008,76.884 C56.8240041,77.7400043 57.232,78.7759939 57.232,79.992 C57.232,81.2080061 56.8240041,82.2479957 56.008,83.112 C55.1919959,83.9760043 54.2160057,84.408 53.08,84.408 C51.8959941,84.408 50.9120039,83.9280048 50.128,82.968 L50.128,86.712 Z M71.656,83.808 L68.44,84.408 C68.3119994,84.1519987 68.1840006,83.6400038 68.056,82.872 C67.063995,83.8960051 66.0160055,84.408 64.912,84.408 C62.9279901,84.408 61.936,83.208012 61.936,80.808 L61.936,79.296 C61.936,78.095994 61.8200012,77.3280017 61.588,76.992 C61.3559988,76.6559983 60.840004,76.488 60.04,76.488 L60.04,76.008 L63.64,76.008 L63.64,80.688 C63.64,82.4000086 64.2479939,83.256 65.464,83.256 C66.0080027,83.256 66.575997,83.0280023 67.168,82.572 C67.760003,82.1159977 68.056,81.5520034 68.056,80.88 L68.056,79.296 C68.056,78.095994 67.9400012,77.3280017 67.708,76.992 C67.4759988,76.6559983 66.9520041,76.488 66.136,76.488 L66.136,76.008 L69.736,76.008 L69.736,80.496 C69.736,81.696006 69.8519988,82.4639983 70.084,82.8 C70.3160012,83.1360017 70.8399959,83.304 71.656,83.304 L71.656,83.808 Z M75.232,76.848 L73.984,76.848 L73.984,76.272 C74.6720034,76.1279993 75.1759984,75.8160024 75.496,75.336 C75.8160016,74.8559976 76.0239995,74.2000042 76.12,73.368 L76.936,73.368 L76.936,76.008 L79.024,76.008 L79.024,76.848 L76.936,76.848 L76.936,81.648 C76.936,82.8000058 77.2959964,83.376 78.016,83.376 C78.4800023,83.376 78.9999971,83.1040027 79.576,82.56 L79.984,82.968 C79.6479983,83.368002 79.2440024,83.6959987 78.772,83.952 C78.2999976,84.2080013 77.864002,84.336 77.464,84.336 C76.7759966,84.336 76.232002,84.1120022 75.832,83.664 C75.431998,83.2159978 75.232,82.5440045 75.232,81.648 L75.232,76.848 Z M92.056,78.456 L92.056,81.528 C92.2800011,82.120003 92.6039979,82.5879983 93.028,82.932 C93.4520021,83.2760017 93.9359973,83.448 94.48,83.448 C95.3760045,83.448 96.0559977,83.1280032 96.52,82.488 C96.9840023,81.8479968 97.216,81.0160051 97.216,79.992 C97.216,78.983995 96.9840023,78.1600032 96.52,77.52 C96.0559977,76.8799968 95.3760045,76.56 94.48,76.56 C93.9359973,76.56 93.4520021,76.7319983 93.028,77.076 C92.6039979,77.4200017 92.2800011,77.8799971 92.056,78.456 Z M91.912,82.8 L90.856,84.408 L90.352,84.408 L90.352,73.104 C90.352,71.903994 90.2360012,71.1360017 90.004,70.8 C89.7719988,70.4639983 89.256004,70.296 88.456,70.296 L88.456,69.792 L92.056,69.192 L92.056,77.016 C92.8240038,76.0719953 93.7999941,75.6 94.984,75.6 C96.1200057,75.6 97.0959959,76.0279957 97.912,76.884 C98.7280041,77.7400043 99.136,78.7759939 99.136,79.992 C99.136,81.2080061 98.7280041,82.2479957 97.912,83.112 C97.0959959,83.9760043 96.1200057,84.408 94.984,84.408 C93.6879935,84.408 92.6640038,83.8720054 91.912,82.8 Z" id="input-b-copy-3" fill="#B35E2C"></path>
            </g>
            <g id="Wiring" transform="translate(185.000000, 14.000000)">
                <polyline id="Path-5" stroke="#3D3530" stroke-width="2" points="31 90 31 1 0 1"></polyline>
                <circle id="Connection-Copy-2" fill="#3D3530" cx="31" cy="65" r="5"></circle>
                <circle id="Connection-Copy-3" fill="#3D3530" cx="31" cy="33" r="5"></circle>
                <path d="M31,33 L94,33" id="Path-7" stroke="#3D3530" stroke-width="2"></path>
                <path d="M0,65 L31,65" id="Path-8" stroke="#3D3530" stroke-width="2"></path>
                <path d="" id="Path-9" stroke="#979797"></path>
            </g>
        </g>
        <rect id="Rectangle-Copy" stroke="#3D3530" stroke-width="2" fill="#F8FAE4" x="1" y="316" width="449" height="43"></rect>
        <rect id="Rectangle-Copy-3" stroke="#3D3530" stroke-width="2" fill="#F8FAE4" x="450" y="316" width="449" height="43"></rect>
        <path d="M709.102666,344 L707.038666,338.96 L699.502666,338.96 L697.438666,344 L695.782666,344 L702.502666,327.872 L704.014666,327.872 L710.734666,344 L709.102666,344 Z M700.150666,337.376 L706.390666,337.376 L703.270666,329.72 L700.150666,337.376 Z M724.121333,327.872 L725.705333,327.872 L725.705333,344 L724.073333,344 L715.073333,330.296 L715.073333,344 L713.489333,344 L713.489333,327.872 L715.097333,327.872 L724.121333,341.6 L724.121333,327.872 Z M729.708,344 L729.708,327.872 L733.356,327.872 C736.012013,327.872 738.123992,328.639992 739.692,330.176 C741.260008,331.712008 742.044,333.631988 742.044,335.936 C742.044,338.224011 741.256008,340.139992 739.68,341.684 C738.103992,343.228008 735.996013,344 733.356,344 L729.708,344 Z M731.292,342.488 L733.356,342.488 C735.46801,342.488 737.155993,341.868006 738.42,340.628 C739.684006,339.387994 740.316,337.824009 740.316,335.936 C740.316,334.047991 739.684006,332.484006 738.42,331.244 C737.155993,330.003994 735.46801,329.384 733.356,329.384 L731.292,329.384 L731.292,342.488 Z M754.345333,342.416 L761.689333,342.416 L761.689333,344 L752.761333,344 L752.761333,327.872 L754.345333,327.872 L754.345333,342.416 Z M774.02,342.368 C772.819994,343.584006 771.364008,344.192 769.652,344.192 C767.939991,344.192 766.480006,343.588006 765.272,342.38 C764.063994,341.171994 763.46,339.712009 763.46,338 C763.46,336.287991 764.063994,334.828006 765.272,333.62 C766.480006,332.411994 767.939991,331.808 769.652,331.808 C771.364008,331.808 772.823994,332.411994 774.032,333.62 C775.240006,334.828006 775.844,336.287991 775.844,338 C775.844,339.696008 775.236006,341.151994 774.02,342.368 Z M769.676,342.68 C770.972006,342.68 772.063995,342.228005 772.952,341.324 C773.840004,340.419995 774.284,339.312007 774.284,338 C774.284,336.687993 773.840004,335.576005 772.952,334.664 C772.063995,333.751995 770.972006,333.296 769.676,333.296 C768.395993,333.296 767.308004,333.751995 766.412,334.664 C765.515995,335.576005 765.068,336.687993 765.068,338 C765.068,339.312007 765.515995,340.419995 766.412,341.324 C767.308004,342.228005 768.395993,342.68 769.676,342.68 Z M789.302667,332.024 L790.910667,332.024 L790.910667,342.968 C790.894666,344.712009 790.266673,346.171994 789.026667,347.348 C787.78666,348.524006 786.350675,349.112 784.718667,349.112 C783.230659,349.112 781.962672,348.716004 780.914667,347.924 C779.866661,347.131996 779.158668,346.240005 778.790667,345.248 L780.086667,344.6 C780.390668,345.416004 780.966662,346.127997 781.814667,346.736 C782.662671,347.344003 783.630661,347.648 784.718667,347.648 C785.998673,347.648 787.082662,347.180005 787.970667,346.244 C788.858671,345.307995 789.310666,344.216006 789.326667,342.968 L789.302667,342.968 L789.302667,342.08 C788.08666,343.504007 786.526676,344.216 784.622667,344.216 C782.910658,344.216 781.450673,343.612006 780.242667,342.404 C779.03466,341.195994 778.430667,339.736009 778.430667,338.024 C778.430667,336.311991 779.03466,334.852006 780.242667,333.644 C781.450673,332.435994 782.910658,331.832 784.622667,331.832 C786.510676,331.832 788.07066,332.543993 789.302667,333.968 L789.302667,332.024 Z M784.646667,342.728 C785.942673,342.728 787.034662,342.276005 787.922667,341.372 C788.810671,340.467995 789.254667,339.360007 789.254667,338.048 C789.254667,336.735993 788.810671,335.628005 787.922667,334.724 C787.034662,333.819995 785.942673,333.368 784.646667,333.368 C783.36666,333.368 782.278671,333.819995 781.382667,334.724 C780.486662,335.628005 780.038667,336.735993 780.038667,338.048 C780.038667,339.360007 780.486662,340.467995 781.382667,341.372 C782.278671,342.276005 783.36666,342.728 784.646667,342.728 Z M796.713333,328.4 C796.537332,328.592001 796.313335,328.688 796.041333,328.688 C795.769332,328.688 795.541334,328.592001 795.357333,328.4 C795.173332,328.207999 795.081333,327.984001 795.081333,327.728 C795.081333,327.471999 795.173332,327.248001 795.357333,327.056 C795.541334,326.863999 795.769332,326.768 796.041333,326.768 C796.313335,326.768 796.541332,326.863999 796.725333,327.056 C796.909334,327.248001 797.001333,327.471999 797.001333,327.728 C797.001333,327.984001 796.905334,328.207999 796.713333,328.4 Z M795.249333,344 L795.249333,332 L796.833333,332 L796.833333,344 L795.249333,344 Z M806.5,344.192 C804.787991,344.192 803.328006,343.588006 802.12,342.38 C800.911994,341.171994 800.308,339.712009 800.308,338 C800.308,336.287991 800.911994,334.828006 802.12,333.62 C803.328006,332.411994 804.787991,331.808 806.5,331.808 C807.588005,331.808 808.599995,332.075997 809.536,332.612 C810.472005,333.148003 811.211997,333.863996 811.756,334.76 L810.316,335.456 C809.883998,334.799997 809.332003,334.280002 808.66,333.896 C807.987997,333.511998 807.268004,333.32 806.5,333.32 C805.203993,333.32 804.112004,333.771995 803.224,334.676 C802.335995,335.580005 801.892,336.687993 801.892,338 C801.892,339.312007 802.335995,340.419995 803.224,341.324 C804.112004,342.228005 805.203993,342.68 806.5,342.68 C807.268004,342.68 807.987997,342.488002 808.66,342.104 C809.332003,341.719998 809.883998,341.200003 810.316,340.544 L811.756,341.24 C811.211997,342.136004 810.472005,342.851997 809.536,343.388 C808.599995,343.924003 807.588005,344.192 806.5,344.192 Z M829.649333,344.192 C827.281321,344.192 825.38934,343.404008 823.973333,341.828 C822.557326,340.251992 821.849333,338.296012 821.849333,335.96 C821.849333,333.607988 822.557326,331.644008 823.973333,330.068 C825.38934,328.491992 827.281321,327.704 829.649333,327.704 C831.201341,327.704 832.561327,328.063996 833.729333,328.784 C834.897339,329.504004 835.79333,330.487994 836.417333,331.736 L834.929333,332.6 C834.433331,331.559995 833.725338,330.736003 832.805333,330.128 C831.885329,329.519997 830.833339,329.216 829.649333,329.216 C827.825324,329.216 826.365339,329.851994 825.269333,331.124 C824.173328,332.396006 823.625333,334.00799 823.625333,335.96 C823.625333,337.89601 824.173328,339.503994 825.269333,340.784 C826.365339,342.064006 827.825324,342.704 829.649333,342.704 C831.249341,342.704 832.581328,342.172005 833.645333,341.108 C834.709339,340.043995 835.337332,338.696008 835.529333,337.064 L830.297333,337.064 L830.297333,335.648 L837.185333,335.648 L837.185333,344 L835.745333,344 L835.745333,340.76 C835.15333,341.832005 834.333338,342.671997 833.285333,343.28 C832.237328,343.888003 831.02534,344.192 829.649333,344.192 Z M851.028,332 L852.612,332 L852.612,344 L851.028,344 L851.028,342.056 C849.795994,343.480007 848.236009,344.192 846.348,344.192 C844.635991,344.192 843.176006,343.588006 841.968,342.38 C840.759994,341.171994 840.156,339.712009 840.156,338 C840.156,336.287991 840.759994,334.828006 841.968,333.62 C843.176006,332.411994 844.635991,331.808 846.348,331.808 C848.252009,331.808 849.811994,332.519993 851.028,333.944 L851.028,332 Z M846.372,342.68 C847.668006,342.68 848.759996,342.228005 849.648,341.324 C850.536004,340.419995 850.98,339.312007 850.98,338 C850.98,336.687993 850.536004,335.580005 849.648,334.676 C848.759996,333.771995 847.668006,333.32 846.372,333.32 C845.091994,333.32 844.000004,333.771995 843.096,334.676 C842.191995,335.580005 841.74,336.687993 841.74,338 C841.74,339.312007 842.191995,340.419995 843.096,341.324 C844.000004,342.228005 845.091994,342.68 846.372,342.68 Z M863.094667,341.312 L863.886667,342.536 C863.790666,342.664001 863.662667,342.815999 863.502667,342.992 C863.342666,343.168001 862.982669,343.411998 862.422667,343.724 C861.862664,344.036002 861.28667,344.192 860.694667,344.192 C859.686662,344.192 858.84267,343.892003 858.162667,343.292 C857.482663,342.691997 857.142667,341.824006 857.142667,340.688 L857.142667,333.44 L855.222667,333.44 L855.222667,331.976 L857.142667,331.976 L857.142667,328.184 L858.726667,327.992 L858.726667,331.976 L862.350667,331.976 L862.350667,333.44 L858.726667,333.44 L858.726667,340.328 C858.726667,341.064004 858.954664,341.647998 859.410667,342.08 C859.866669,342.512002 860.390664,342.728 860.982667,342.728 C861.350668,342.728 861.710665,342.616001 862.062667,342.392 C862.414668,342.167999 862.674666,341.948001 862.842667,341.732 C863.010667,341.515999 863.094667,341.376 863.094667,341.312 Z M871.537333,342.608 C872.609339,342.608 873.569329,342.304003 874.417333,341.696 C875.265338,341.087997 875.841332,340.376004 876.145333,339.56 L877.489333,340.04 C877.121331,341.048005 876.405339,341.975996 875.341333,342.824 C874.277328,343.672004 873.009341,344.088 871.537333,344.072 C870.193327,344.072 868.965339,343.656004 867.853333,342.824 C866.741328,341.991996 865.985335,340.928006 865.585333,339.632 C865.425333,339.103997 865.345333,338.528003 865.345333,337.904 C865.345333,336.175991 865.945327,334.712006 867.145333,333.512 C868.345339,332.311994 869.809325,331.704 871.537333,331.688 C873.105341,331.704 874.473327,332.231995 875.641333,333.272 C876.809339,334.312005 877.481332,335.599992 877.657333,337.136 C877.673333,337.216 877.681333,337.319999 877.681333,337.448 L867.193333,339.344 C867.465335,340.304005 868.009329,341.091997 868.825333,341.708 C869.641337,342.324003 870.545328,342.624 871.537333,342.608 Z M871.393333,333.152 C870.193327,333.168 869.165338,333.599996 868.309333,334.448 C867.453329,335.296004 866.993334,336.311994 866.929333,337.496 C866.929333,337.544 866.933333,337.627999 866.941333,337.748 C866.949333,337.868001 866.953333,337.968 866.953333,338.048 L875.881333,336.44 C875.577332,335.463995 875.009337,334.668003 874.177333,334.052 C873.345329,333.435997 872.417338,333.136 871.393333,333.152 Z" id="AND-Logic-Gate-Copy" fill="#23ABE3"></path>
        <path d="M275.057333,341.84 C273.665326,343.408008 271.785345,344.192 269.417333,344.192 C267.049321,344.192 265.16534,343.408008 263.765333,341.84 C262.365326,340.271992 261.665333,338.312012 261.665333,335.96 C261.665333,333.607988 262.365326,331.644008 263.765333,330.068 C265.16534,328.491992 267.049321,327.704 269.417333,327.704 C271.785345,327.704 273.665326,328.491992 275.057333,330.068 C276.44934,331.644008 277.145333,333.607988 277.145333,335.96 C277.145333,338.312012 276.44934,340.271992 275.057333,341.84 Z M265.025333,340.784 C266.129339,342.064006 267.593324,342.704 269.417333,342.704 C271.241342,342.704 272.709328,342.060006 273.821333,340.772 C274.933339,339.483994 275.489333,337.88001 275.489333,335.96 C275.489333,334.02399 274.933339,332.416006 273.821333,331.136 C272.709328,329.855994 271.241342,329.216 269.417333,329.216 C267.593324,329.216 266.129339,329.855994 265.025333,331.136 C263.921328,332.416006 263.369333,334.02399 263.369333,335.96 C263.369333,337.89601 263.921328,339.503994 265.025333,340.784 Z M280.26,344 L280.26,327.872 L285.732,327.872 C287.540009,327.872 288.979994,328.347995 290.052,329.3 C291.124005,330.252005 291.66,331.447993 291.66,332.888 C291.66,333.960005 291.344003,334.911996 290.712,335.744 C290.079997,336.576004 289.196005,337.167998 288.06,337.52 L291.66,344 L290.004,344 L286.572,337.856 L285.588,337.904 L281.844,337.904 L281.844,344 L280.26,344 Z M281.844,336.392 L285.732,336.392 C287.028006,336.392 288.067996,336.060003 288.852,335.396 C289.636004,334.731997 290.028,333.896005 290.028,332.888 C290.028,331.895995 289.636004,331.064003 288.852,330.392 C288.067996,329.719997 287.028006,329.384 285.732,329.384 L281.844,329.384 L281.844,336.392 Z M304.345333,342.416 L311.689333,342.416 L311.689333,344 L302.761333,344 L302.761333,327.872 L304.345333,327.872 L304.345333,342.416 Z M324.02,342.368 C322.819994,343.584006 321.364008,344.192 319.652,344.192 C317.939991,344.192 316.480006,343.588006 315.272,342.38 C314.063994,341.171994 313.46,339.712009 313.46,338 C313.46,336.287991 314.063994,334.828006 315.272,333.62 C316.480006,332.411994 317.939991,331.808 319.652,331.808 C321.364008,331.808 322.823994,332.411994 324.032,333.62 C325.240006,334.828006 325.844,336.287991 325.844,338 C325.844,339.696008 325.236006,341.151994 324.02,342.368 Z M319.676,342.68 C320.972006,342.68 322.063995,342.228005 322.952,341.324 C323.840004,340.419995 324.284,339.312007 324.284,338 C324.284,336.687993 323.840004,335.576005 322.952,334.664 C322.063995,333.751995 320.972006,333.296 319.676,333.296 C318.395993,333.296 317.308004,333.751995 316.412,334.664 C315.515995,335.576005 315.068,336.687993 315.068,338 C315.068,339.312007 315.515995,340.419995 316.412,341.324 C317.308004,342.228005 318.395993,342.68 319.676,342.68 Z M339.302667,332.024 L340.910667,332.024 L340.910667,342.968 C340.894666,344.712009 340.266673,346.171994 339.026667,347.348 C337.78666,348.524006 336.350675,349.112 334.718667,349.112 C333.230659,349.112 331.962672,348.716004 330.914667,347.924 C329.866661,347.131996 329.158668,346.240005 328.790667,345.248 L330.086667,344.6 C330.390668,345.416004 330.966662,346.127997 331.814667,346.736 C332.662671,347.344003 333.630661,347.648 334.718667,347.648 C335.998673,347.648 337.082662,347.180005 337.970667,346.244 C338.858671,345.307995 339.310666,344.216006 339.326667,342.968 L339.302667,342.968 L339.302667,342.08 C338.08666,343.504007 336.526676,344.216 334.622667,344.216 C332.910658,344.216 331.450673,343.612006 330.242667,342.404 C329.03466,341.195994 328.430667,339.736009 328.430667,338.024 C328.430667,336.311991 329.03466,334.852006 330.242667,333.644 C331.450673,332.435994 332.910658,331.832 334.622667,331.832 C336.510676,331.832 338.07066,332.543993 339.302667,333.968 L339.302667,332.024 Z M334.646667,342.728 C335.942673,342.728 337.034662,342.276005 337.922667,341.372 C338.810671,340.467995 339.254667,339.360007 339.254667,338.048 C339.254667,336.735993 338.810671,335.628005 337.922667,334.724 C337.034662,333.819995 335.942673,333.368 334.646667,333.368 C333.36666,333.368 332.278671,333.819995 331.382667,334.724 C330.486662,335.628005 330.038667,336.735993 330.038667,338.048 C330.038667,339.360007 330.486662,340.467995 331.382667,341.372 C332.278671,342.276005 333.36666,342.728 334.646667,342.728 Z M346.713333,328.4 C346.537332,328.592001 346.313335,328.688 346.041333,328.688 C345.769332,328.688 345.541334,328.592001 345.357333,328.4 C345.173332,328.207999 345.081333,327.984001 345.081333,327.728 C345.081333,327.471999 345.173332,327.248001 345.357333,327.056 C345.541334,326.863999 345.769332,326.768 346.041333,326.768 C346.313335,326.768 346.541332,326.863999 346.725333,327.056 C346.909334,327.248001 347.001333,327.471999 347.001333,327.728 C347.001333,327.984001 346.905334,328.207999 346.713333,328.4 Z M345.249333,344 L345.249333,332 L346.833333,332 L346.833333,344 L345.249333,344 Z M356.5,344.192 C354.787991,344.192 353.328006,343.588006 352.12,342.38 C350.911994,341.171994 350.308,339.712009 350.308,338 C350.308,336.287991 350.911994,334.828006 352.12,333.62 C353.328006,332.411994 354.787991,331.808 356.5,331.808 C357.588005,331.808 358.599995,332.075997 359.536,332.612 C360.472005,333.148003 361.211997,333.863996 361.756,334.76 L360.316,335.456 C359.883998,334.799997 359.332003,334.280002 358.66,333.896 C357.987997,333.511998 357.268004,333.32 356.5,333.32 C355.203993,333.32 354.112004,333.771995 353.224,334.676 C352.335995,335.580005 351.892,336.687993 351.892,338 C351.892,339.312007 352.335995,340.419995 353.224,341.324 C354.112004,342.228005 355.203993,342.68 356.5,342.68 C357.268004,342.68 357.987997,342.488002 358.66,342.104 C359.332003,341.719998 359.883998,341.200003 360.316,340.544 L361.756,341.24 C361.211997,342.136004 360.472005,342.851997 359.536,343.388 C358.599995,343.924003 357.588005,344.192 356.5,344.192 Z M379.649333,344.192 C377.281321,344.192 375.38934,343.404008 373.973333,341.828 C372.557326,340.251992 371.849333,338.296012 371.849333,335.96 C371.849333,333.607988 372.557326,331.644008 373.973333,330.068 C375.38934,328.491992 377.281321,327.704 379.649333,327.704 C381.201341,327.704 382.561327,328.063996 383.729333,328.784 C384.897339,329.504004 385.79333,330.487994 386.417333,331.736 L384.929333,332.6 C384.433331,331.559995 383.725338,330.736003 382.805333,330.128 C381.885329,329.519997 380.833339,329.216 379.649333,329.216 C377.825324,329.216 376.365339,329.851994 375.269333,331.124 C374.173328,332.396006 373.625333,334.00799 373.625333,335.96 C373.625333,337.89601 374.173328,339.503994 375.269333,340.784 C376.365339,342.064006 377.825324,342.704 379.649333,342.704 C381.249341,342.704 382.581328,342.172005 383.645333,341.108 C384.709339,340.043995 385.337332,338.696008 385.529333,337.064 L380.297333,337.064 L380.297333,335.648 L387.185333,335.648 L387.185333,344 L385.745333,344 L385.745333,340.76 C385.15333,341.832005 384.333338,342.671997 383.285333,343.28 C382.237328,343.888003 381.02534,344.192 379.649333,344.192 Z M401.028,332 L402.612,332 L402.612,344 L401.028,344 L401.028,342.056 C399.795994,343.480007 398.236009,344.192 396.348,344.192 C394.635991,344.192 393.176006,343.588006 391.968,342.38 C390.759994,341.171994 390.156,339.712009 390.156,338 C390.156,336.287991 390.759994,334.828006 391.968,333.62 C393.176006,332.411994 394.635991,331.808 396.348,331.808 C398.252009,331.808 399.811994,332.519993 401.028,333.944 L401.028,332 Z M396.372,342.68 C397.668006,342.68 398.759996,342.228005 399.648,341.324 C400.536004,340.419995 400.98,339.312007 400.98,338 C400.98,336.687993 400.536004,335.580005 399.648,334.676 C398.759996,333.771995 397.668006,333.32 396.372,333.32 C395.091994,333.32 394.000004,333.771995 393.096,334.676 C392.191995,335.580005 391.74,336.687993 391.74,338 C391.74,339.312007 392.191995,340.419995 393.096,341.324 C394.000004,342.228005 395.091994,342.68 396.372,342.68 Z M413.094667,341.312 L413.886667,342.536 C413.790666,342.664001 413.662667,342.815999 413.502667,342.992 C413.342666,343.168001 412.982669,343.411998 412.422667,343.724 C411.862664,344.036002 411.28667,344.192 410.694667,344.192 C409.686662,344.192 408.84267,343.892003 408.162667,343.292 C407.482663,342.691997 407.142667,341.824006 407.142667,340.688 L407.142667,333.44 L405.222667,333.44 L405.222667,331.976 L407.142667,331.976 L407.142667,328.184 L408.726667,327.992 L408.726667,331.976 L412.350667,331.976 L412.350667,333.44 L408.726667,333.44 L408.726667,340.328 C408.726667,341.064004 408.954664,341.647998 409.410667,342.08 C409.866669,342.512002 410.390664,342.728 410.982667,342.728 C411.350668,342.728 411.710665,342.616001 412.062667,342.392 C412.414668,342.167999 412.674666,341.948001 412.842667,341.732 C413.010667,341.515999 413.094667,341.376 413.094667,341.312 Z M421.537333,342.608 C422.609339,342.608 423.569329,342.304003 424.417333,341.696 C425.265338,341.087997 425.841332,340.376004 426.145333,339.56 L427.489333,340.04 C427.121331,341.048005 426.405339,341.975996 425.341333,342.824 C424.277328,343.672004 423.009341,344.088 421.537333,344.072 C420.193327,344.072 418.965339,343.656004 417.853333,342.824 C416.741328,341.991996 415.985335,340.928006 415.585333,339.632 C415.425333,339.103997 415.345333,338.528003 415.345333,337.904 C415.345333,336.175991 415.945327,334.712006 417.145333,333.512 C418.345339,332.311994 419.809325,331.704 421.537333,331.688 C423.105341,331.704 424.473327,332.231995 425.641333,333.272 C426.809339,334.312005 427.481332,335.599992 427.657333,337.136 C427.673333,337.216 427.681333,337.319999 427.681333,337.448 L417.193333,339.344 C417.465335,340.304005 418.009329,341.091997 418.825333,341.708 C419.641337,342.324003 420.545328,342.624 421.537333,342.608 Z M421.393333,333.152 C420.193327,333.168 419.165338,333.599996 418.309333,334.448 C417.453329,335.296004 416.993334,336.311994 416.929333,337.496 C416.929333,337.544 416.933333,337.627999 416.941333,337.748 C416.949333,337.868001 416.953333,337.968 416.953333,338.048 L425.881333,336.44 C425.577332,335.463995 425.009337,334.668003 424.177333,334.052 C423.345329,333.435997 422.417338,333.136 421.393333,333.152 Z" id="OR-Logic-Gate-Copy" fill="#23ABE3"></path>
    </g>
</svg>