<?xml version="1.0" encoding="UTF-8"?>
<svg width="900px" height="450px" viewBox="0 0 900 450" version="1.1" xmlns="http://www.w3.org/2000/svg" xmlns:xlink="http://www.w3.org/1999/xlink">
    <!-- Generator: Sketch 52.5 (67469) - http://www.bohemiancoding.com/sketch -->
    <title>N-Type_Silicon_Crystal</title>
    <desc>Created with Sketch.</desc>
    <g id="N-Type_Silicon_Crystal" stroke="none" stroke-width="1" fill="none" fill-rule="evenodd">
        <rect id="Rectangle" stroke="#3D3530" stroke-width="2" fill="#EEEEEE" x="1" y="1" width="898" height="448"></rect>
        <rect id="Rectangle-Copy" stroke="#3D3530" stroke-width="2" x="1" y="387" width="898" height="62"></rect>
        <g id="Illustration" transform="translate(202.000000, 13.000000)">
            <ellipse id="Extra-Electron-Orbit" stroke="#524740" stroke-width="3" transform="translate(177.836448, 198.948956) rotate(-13.000000) translate(-177.836448, -198.948956) " cx="177.836448" cy="198.948956" rx="86" ry="43.5"></ellipse>
            <g id="Connectors" transform="translate(71.000000, 79.000000)" stroke="#524740" stroke-width="2">
                <path d="M0.576010071,34.4848177 L64,94.0891175" id="Path-4"></path>
                <path d="M6.98835279,165.073915 L64.8529269,132.18612" id="Path-4-Copy-2"></path>
                <path d="M31.5962499,198.487616 L82.1455016,152.235338" id="Path-4-Copy-3"></path>
                <path d="M178.665386,212.173625 L125.187513,152.554371" id="Path-4-Copy-4"></path>
                <path d="M190.995505,30.9978889 L142.066342,88.8923723" id="Path-4-Copy-6"></path>
                <path d="M161.308007,9.59776687 L120.120375,72.3425458" id="Path-4-Copy-7"></path>
                <path d="M204.484611,180.888471 L144.852894,132.07396" id="Path-4-Copy-5"></path>
                <path d="M39.0411794,0.146420176 L85.8642277,70.3959472" id="Path-4-Copy"></path>
            </g>
            <circle id="Oval-Copy-11" fill="#EF7D3B" cx="105" cy="113" r="12"></circle>
            <circle id="Oval-Copy-12" fill="#EF7D3B" cx="127" cy="137" r="12"></circle>
            <circle id="Oval-Copy-13" fill="#EF7D3B" cx="232" cy="120" r="12"></circle>
            <circle id="Oval-Copy-15" fill="#EF7D3B" cx="216" cy="142" r="12"></circle>
            <circle id="Oval-Copy-20" fill="#EF7D3B" cx="261" cy="183" r="12"></circle>
            <circle id="Oval-Copy-16" fill="#EF7D3B" cx="224" cy="239" r="12"></circle>
            <circle id="Oval-Copy-17" fill="#EF7D3B" cx="245" cy="258" r="12"></circle>
            <circle id="Oval-Copy-18" fill="#EF7D3B" cx="129" cy="233" r="12"></circle>
            <circle id="Oval-Copy-19" fill="#EF7D3B" cx="107" cy="249" r="12"></circle>
            <circle id="Oval-Copy-14" fill="#EF7D3B" cx="190" cy="166" r="12"></circle>
            <circle id="Oval" fill="#252525" cx="57.5" cy="57.5" r="57.5"></circle>
            <circle id="Oval-Copy" fill="#252525" cx="294" cy="304" r="53"></circle>
            <circle id="Oval-Copy-2" fill="#252525" cx="63.5" cy="281.5" r="41.5"></circle>
            <circle id="Oval-Copy-4" fill="#D7E465" cx="176.5" cy="192.5" r="47.5"></circle>
            <circle id="Oval-Copy-3" fill="#252525" cx="264.5" cy="71.5" r="40.5"></circle>
            <g id="Label" transform="translate(271.000000, 181.000000)">
                <polyline id="Path-5" stroke="#B09679" stroke-width="3" fill="#D8D8D8" points="0 4.05748672 52 11.7908666 89 11.7908666"></polyline>
                <path d="M103.944,17 L103.944,16.496 C104.936005,16.496 105.563999,16.3280017 105.828,15.992 C106.092001,15.6559983 106.224,14.888006 106.224,13.688 L106.224,5.888 C106.224,4.687994 106.092001,3.92400164 105.828,3.596 C105.563999,3.26799836 104.936005,3.104 103.944,3.104 L103.944,2.6 L114.888,2.6 L115.104,5.768 L114.6,5.768 L114.48,5.288 C114.287999,4.58399648 114.032002,4.10800124 113.712,3.86 C113.391998,3.61199876 112.720005,3.488 111.696,3.488 L108.144,3.488 L108.144,8.936 L109.344,8.936 C110.544006,8.936 111.307998,8.80400132 111.636,8.54 C111.964002,8.27599868 112.128,7.64000504 112.128,6.632 L112.632,6.632 L112.632,12.128 L112.128,12.128 C112.128,11.119995 111.964002,10.4840013 111.636,10.22 C111.307998,9.95599868 110.544006,9.824 109.344,9.824 L108.144,9.824 L108.144,13.328 C108.144,14.528006 108.275999,15.2919984 108.54,15.62 C108.804001,15.9480016 109.431995,16.112 110.424,16.112 L112.488,16.112 C113.208004,16.112 113.755998,16.0400007 114.132,15.896 C114.508002,15.7519993 114.763999,15.5680011 114.9,15.344 C115.036001,15.1199989 115.159999,14.7680024 115.272,14.288 L115.392,13.808 L115.896,13.808 L115.704,17 L103.944,17 Z M122.664,13.832 L121.464,15.104 C120.535995,16.0320046 120.703994,16.496 121.968,16.496 L121.968,17 L118.272,17 L118.272,16.496 C118.736002,16.496 119.431995,16.0320046 120.36,15.104 L122.184,13.184 L120.528,10.904 C120.095998,10.3439972 119.736001,9.96800096 119.448,9.776 C119.159999,9.58399904 118.816002,9.488 118.416,9.488 L118.416,9.008 L123.264,9.008 L123.264,9.488 C122.575997,9.488 122.184,9.587999 122.088,9.788 C121.992,9.988001 122.151998,10.3599973 122.568,10.904 L123.336,11.96 L124.344,10.904 C124.776002,10.4239976 124.928001,10.0680012 124.8,9.836 C124.671999,9.60399884 124.352003,9.488 123.84,9.488 L123.84,9.008 L127.752,9.008 L127.752,9.488 C127.111997,9.488 126.344004,9.95999528 125.448,10.904 L123.816,12.608 L125.616,15.104 C125.984002,15.6320026 126.331998,15.995999 126.66,16.196 C126.988002,16.396001 127.399998,16.496 127.896,16.496 L127.896,17 L122.856,17 L122.856,16.496 C123.480003,16.496 123.843999,16.3800012 123.948,16.148 C124.052001,15.9159988 123.928002,15.5680023 123.576,15.104 L122.664,13.832 Z M131.016,9.848 L129.768,9.848 L129.768,9.272 C130.456003,9.12799928 130.959998,8.8160024 131.28,8.336 C131.600002,7.8559976 131.808,7.20000416 131.904,6.368 L132.72,6.368 L132.72,9.008 L134.808,9.008 L134.808,9.848 L132.72,9.848 L132.72,14.648 C132.72,15.8000058 133.079996,16.376 133.8,16.376 C134.264002,16.376 134.783997,16.1040027 135.36,15.56 L135.768,15.968 C135.431998,16.368002 135.028002,16.6959987 134.556,16.952 C134.083998,17.2080013 133.648002,17.336 133.248,17.336 C132.559997,17.336 132.016002,17.1120022 131.616,16.664 C131.215998,16.2159978 131.016,15.5440045 131.016,14.648 L131.016,9.848 Z M146.304,10.088 C146.304,10.8400038 145.984003,11.216 145.344,11.216 C145.119999,11.216 144.924001,11.1280009 144.756,10.952 C144.587999,10.7759991 144.504,10.5760011 144.504,10.352 C144.504,9.82399736 144.248003,9.56 143.736,9.56 C143.367998,9.56 142.968002,9.81599744 142.536,10.328 C142.103998,10.8400026 141.888,11.5199958 141.888,12.368 L141.888,13.688 C141.888,14.888006 142.003999,15.6559983 142.236,15.992 C142.468001,16.3280017 142.983996,16.496 143.784,16.496 L143.784,17 L138.288,17 L138.288,16.496 C139.088004,16.496 139.603999,16.3280017 139.836,15.992 C140.068001,15.6559983 140.184,14.888006 140.184,13.688 L140.184,12.488 C140.184,11.3039941 140.068001,10.5440017 139.836,10.208 C139.603999,9.87199832 139.088004,9.704 138.288,9.704 L138.288,9.2 L141.48,8.6 C141.624001,8.90400152 141.759999,9.47999576 141.888,10.328 C142.128001,9.8479976 142.487998,9.44000168 142.968,9.104 C143.448002,8.76799832 143.927998,8.6 144.408,8.6 C145.016003,8.6 145.483998,8.7599984 145.812,9.08 C146.140002,9.4000016 146.304,9.73599824 146.304,10.088 Z M157.176,16.52 C156.711998,17.0160025 156.184003,17.264 155.592,17.264 C154.631995,17.264 154.088001,16.8000046 153.96,15.872 C152.887995,16.8320048 151.888005,17.312 150.96,17.312 C150.351997,17.312 149.840002,17.1320018 149.424,16.772 C149.007998,16.4119982 148.8,15.9200031 148.8,15.296 C148.8,13.6159916 150.503983,12.480003 153.912,11.888 C153.912,10.9439953 153.808001,10.2880018 153.6,9.92 C153.391999,9.55199816 152.960003,9.368 152.304,9.368 C151.983998,9.368 151.676001,9.47199896 151.38,9.68 C151.083999,9.88800104 150.936,10.1679982 150.936,10.52 C150.936,10.7600012 150.856001,10.9599992 150.696,11.12 C150.535999,11.2800008 150.344001,11.36 150.12,11.36 C149.879999,11.36 149.680001,11.2800008 149.52,11.12 C149.359999,10.9599992 149.28,10.7600012 149.28,10.52 C149.28,9.9599972 149.587997,9.5000018 150.204,9.14 C150.820003,8.7799982 151.527996,8.6 152.328,8.6 C153.496006,8.6 154.335997,8.85599744 154.848,9.368 C155.360003,9.88000256 155.616,10.7119942 155.616,11.864 L155.616,15.488 C155.616,16.1120031 155.799998,16.424 156.168,16.424 C156.376001,16.424 156.599999,16.3040012 156.84,16.064 L157.176,16.52 Z M153.912,15.08 L153.912,12.632 C151.703989,13.1440026 150.6,13.9359946 150.6,15.008 C150.6,15.3760018 150.707999,15.6719989 150.924,15.896 C151.140001,16.1200011 151.407998,16.232 151.728,16.232 C152.320003,16.232 153.047996,15.8480038 153.912,15.08 Z M166.464,17 L166.464,16.496 C167.456005,16.496 168.083999,16.3280017 168.348,15.992 C168.612001,15.6559983 168.744,14.888006 168.744,13.688 L168.744,5.888 C168.744,4.687994 168.612001,3.92400164 168.348,3.596 C168.083999,3.26799836 167.456005,3.104 166.464,3.104 L166.464,2.6 L177.408,2.6 L177.624,5.768 L177.12,5.768 L177,5.288 C176.807999,4.58399648 176.552002,4.10800124 176.232,3.86 C175.911998,3.61199876 175.240005,3.488 174.216,3.488 L170.664,3.488 L170.664,8.936 L171.864,8.936 C173.064006,8.936 173.827998,8.80400132 174.156,8.54 C174.484002,8.27599868 174.648,7.64000504 174.648,6.632 L175.152,6.632 L175.152,12.128 L174.648,12.128 C174.648,11.119995 174.484002,10.4840013 174.156,10.22 C173.827998,9.95599868 173.064006,9.824 171.864,9.824 L170.664,9.824 L170.664,13.328 C170.664,14.528006 170.795999,15.2919984 171.06,15.62 C171.324001,15.9480016 171.951995,16.112 172.944,16.112 L175.008,16.112 C175.728004,16.112 176.275998,16.0400007 176.652,15.896 C177.028002,15.7519993 177.283999,15.5680011 177.42,15.344 C177.556001,15.1199989 177.679999,14.7680024 177.792,14.288 L177.912,13.808 L178.416,13.808 L178.224,17 L166.464,17 Z M186.696,17 L181.2,17 L181.2,16.496 C182.000004,16.496 182.515999,16.3280017 182.748,15.992 C182.980001,15.6559983 183.096,14.888006 183.096,13.688 L183.096,6.104 C183.096,4.903994 182.980001,4.13600168 182.748,3.8 C182.515999,3.46399832 182.000004,3.296 181.2,3.296 L181.2,2.792 L184.8,2.192 L184.8,13.688 C184.8,14.888006 184.915999,15.6559983 185.148,15.992 C185.380001,16.3280017 185.895996,16.496 186.696,16.496 L186.696,17 Z M191.592,11.504 L195.576,11.504 C195.736001,11.0559978 195.668001,10.6200021 195.372,10.196 C195.075999,9.77199788 194.568004,9.56 193.848,9.56 C193.335997,9.56 192.876002,9.73599824 192.468,10.088 C192.059998,10.4400018 191.768001,10.911997 191.592,11.504 Z M191.448,12.392 C191.303999,13.5760059 191.491997,14.5399963 192.012,15.284 C192.532003,16.0280037 193.383994,16.4 194.568,16.4 C194.968002,16.4 195.423997,16.296001 195.936,16.088 C196.448003,15.879999 196.871998,15.6160016 197.208,15.296 L197.64,15.824 C197.207998,16.2880023 196.656003,16.6679985 195.984,16.964 C195.311997,17.2600015 194.640003,17.408 193.968,17.408 C192.671994,17.408 191.608004,16.9800043 190.776,16.124 C189.943996,15.2679957 189.528,14.2240062 189.528,12.992 C189.528,11.7599938 189.979995,10.7200042 190.884,9.872 C191.788005,9.02399576 192.815994,8.6 193.968,8.6 C195.056005,8.6 195.943997,8.9799962 196.632,9.74 C197.320003,10.5000038 197.520001,11.383995 197.232,12.392 L191.448,12.392 Z M205.104,9.368 C204.463997,9.368 203.920002,9.73599632 203.472,10.472 C203.023998,11.2080037 202.8,12.1199946 202.8,13.208 C202.8,14.200005 203.043998,14.9799972 203.532,15.548 C204.020002,16.1160028 204.743995,16.4 205.704,16.4 C206.632005,16.4 207.487996,16.0320037 208.272,15.296 L208.68,15.824 C207.703995,16.8800053 206.512007,17.408 205.104,17.408 C203.791993,17.408 202.756004,17.0160039 201.996,16.232 C201.235996,15.4479961 200.856,14.4400062 200.856,13.208 C200.856,11.8799934 201.303996,10.7800044 202.2,9.908 C203.096004,9.03599564 204.063995,8.6 205.104,8.6 C206.048005,8.6 206.759998,8.76799832 207.24,9.104 C207.720002,9.44000168 207.96,9.8479976 207.96,10.328 C207.96,10.5840013 207.876001,10.8199989 207.708,11.036 C207.539999,11.2520011 207.272002,11.36 206.904,11.36 C206.647999,11.36 206.428001,11.2680009 206.244,11.084 C206.059999,10.8999991 205.968,10.6720014 205.968,10.4 C205.968,9.71199656 205.680003,9.368 205.104,9.368 Z M212.256,9.848 L211.008,9.848 L211.008,9.272 C211.696003,9.12799928 212.199998,8.8160024 212.52,8.336 C212.840002,7.8559976 213.048,7.20000416 213.144,6.368 L213.96,6.368 L213.96,9.008 L216.048,9.008 L216.048,9.848 L213.96,9.848 L213.96,14.648 C213.96,15.8000058 214.319996,16.376 215.04,16.376 C215.504002,16.376 216.023997,16.1040027 216.6,15.56 L217.008,15.968 C216.671998,16.368002 216.268002,16.6959987 215.796,16.952 C215.323998,17.2080013 214.888002,17.336 214.488,17.336 C213.799997,17.336 213.256002,17.1120022 212.856,16.664 C212.455998,16.2159978 212.256,15.5440045 212.256,14.648 L212.256,9.848 Z M227.544,10.088 C227.544,10.8400038 227.224003,11.216 226.584,11.216 C226.359999,11.216 226.164001,11.1280009 225.996,10.952 C225.827999,10.7759991 225.744,10.5760011 225.744,10.352 C225.744,9.82399736 225.488003,9.56 224.976,9.56 C224.607998,9.56 224.208002,9.81599744 223.776,10.328 C223.343998,10.8400026 223.128,11.5199958 223.128,12.368 L223.128,13.688 C223.128,14.888006 223.243999,15.6559983 223.476,15.992 C223.708001,16.3280017 224.223996,16.496 225.024,16.496 L225.024,17 L219.528,17 L219.528,16.496 C220.328004,16.496 220.843999,16.3280017 221.076,15.992 C221.308001,15.6559983 221.424,14.888006 221.424,13.688 L221.424,12.488 C221.424,11.3039941 221.308001,10.5440017 221.076,10.208 C220.843999,9.87199832 220.328004,9.704 219.528,9.704 L219.528,9.2 L222.72,8.6 C222.864001,8.90400152 222.999999,9.47999576 223.128,10.328 C223.368001,9.8479976 223.727998,9.44000168 224.208,9.104 C224.688002,8.76799832 225.167998,8.6 225.648,8.6 C226.256003,8.6 226.723998,8.7599984 227.052,9.08 C227.380002,9.4000016 227.544,9.73599824 227.544,10.088 Z M238.656,9.896 C239.616005,10.7440042 240.096,11.7759939 240.096,12.992 C240.096,14.2080061 239.620005,15.2479957 238.668,16.112 C237.715995,16.9760043 236.576007,17.408 235.248,17.408 C233.919993,17.408 232.780005,16.9760043 231.828,16.112 C230.875995,15.2479957 230.4,14.2080061 230.4,12.992 C230.4,11.7759939 230.875995,10.7400043 231.828,9.884 C232.780005,9.02799572 233.919993,8.6 235.248,8.6 C236.576007,8.6 237.711995,9.03199568 238.656,9.896 Z M237.408,15.512 C237.904002,14.8559967 238.152,14.0160051 238.152,12.992 C238.152,11.9679949 237.904002,11.1320032 237.408,10.484 C236.911998,9.83599676 236.192005,9.512 235.248,9.512 C234.303995,9.512 233.584002,9.83999672 233.088,10.496 C232.591998,11.1520033 232.344,11.983995 232.344,12.992 C232.344,14.000005 232.591998,14.8319967 233.088,15.488 C233.584002,16.1440033 234.303995,16.472 235.248,16.472 C236.192005,16.472 236.911998,16.1520032 237.408,15.512 Z M246.96,10.328 C247.872005,9.17599424 248.983993,8.6 250.296,8.6 C251.336005,8.6 252.115997,8.92799672 252.636,9.584 C253.156003,10.2400033 253.416,11.1039946 253.416,12.176 L253.416,13.688 C253.416,14.888006 253.531999,15.6559983 253.764,15.992 C253.996001,16.3280017 254.511996,16.496 255.312,16.496 L255.312,17 L249.816,17 L249.816,16.496 C250.600004,16.496 251.111999,16.3240017 251.352,15.98 C251.592001,15.6359983 251.712,14.8720059 251.712,13.688 L251.712,12.296 C251.712,10.5839914 251.048007,9.728 249.72,9.728 C249.031997,9.728 248.400003,9.9679976 247.824,10.448 C247.247997,10.9280024 246.96,11.4879968 246.96,12.128 L246.96,13.688 C246.96,14.9200062 247.055999,15.6959984 247.248,16.016 C247.440001,16.3360016 247.903996,16.496 248.64,16.496 L248.64,17 L243.36,17 L243.36,16.496 C244.160004,16.496 244.675999,16.3280017 244.908,15.992 C245.140001,15.6559983 245.256,14.888006 245.256,13.688 L245.256,12.488 C245.256,11.3039941 245.140001,10.5440017 244.908,10.208 C244.675999,9.87199832 244.160004,9.704 243.36,9.704 L243.36,9.2 L246.552,8.6 C246.696001,8.90400152 246.831999,9.47999576 246.96,10.328 Z" id="Extra-Electron-Copy" fill="#524740"></path>
            </g>
            <polygon id="+-copy" fill="#524740" points="191.961999 191.844 191.961999 195.804 178.959999 195.804 178.959999 208.806 174.999999 208.806 174.999999 195.804 161.997999 195.804 161.997999 191.844 174.999999 191.844 174.999999 178.842 178.959999 178.842 178.959999 191.844"></polygon>
        </g>
        <path d="M265.628,429 L265.628,404.808 L273.836,404.808 C276.548014,404.808 278.707992,405.521993 280.316,406.95 C281.924008,408.378007 282.728,410.171989 282.728,412.332 C282.728,414.468011 281.924008,416.255993 280.316,417.696 C278.707992,419.136007 276.548014,419.856 273.836,419.856 L268.004,419.856 L268.004,429 L265.628,429 Z M268.004,417.588 L273.836,417.588 C275.78001,417.588 277.339994,417.090005 278.516,416.094 C279.692006,415.097995 280.28,413.844008 280.28,412.332 C280.28,410.843993 279.692006,409.596005 278.516,408.588 C277.339994,407.579995 275.78001,407.076 273.836,407.076 L268.004,407.076 L268.004,417.588 Z M293.240001,410.712 C295.328011,410.712 297.079994,411.461993 298.496001,412.962 C299.912008,414.462008 300.620001,416.291989 300.620001,418.452 L300.620001,429 L298.208001,429 L298.208001,418.488 C298.208001,416.927992 297.692006,415.614005 296.660001,414.546 C295.627995,413.477995 294.356008,412.944 292.844001,412.944 C291.355993,412.944 290.090006,413.477995 289.046001,414.546 C288.001995,415.614005 287.480001,416.915992 287.480001,418.452 L287.480001,429 L285.104001,429 L285.104001,402.216 L287.480001,402.216 L287.480001,413.664 C288.944008,411.69599 290.863989,410.712 293.240001,410.712 Z M317.684001,426.552 C315.883992,428.376009 313.700014,429.288 311.132001,429.288 C308.563988,429.288 306.37401,428.382009 304.562001,426.57 C302.749992,424.757991 301.844001,422.568013 301.844001,420 C301.844001,417.431987 302.749992,415.242009 304.562001,413.43 C306.37401,411.617991 308.563988,410.712 311.132001,410.712 C313.700014,410.712 315.889992,411.617991 317.702001,413.43 C319.51401,415.242009 320.420001,417.431987 320.420001,420 C320.420001,422.544013 319.50801,424.727991 317.684001,426.552 Z M311.168001,427.02 C313.112011,427.02 314.749995,426.342007 316.082001,424.986 C317.414008,423.629993 318.080001,421.96801 318.080001,420 C318.080001,418.03199 317.414008,416.364007 316.082001,414.996 C314.749995,413.627993 313.112011,412.944 311.168001,412.944 C309.247992,412.944 307.616008,413.627993 306.272001,414.996 C304.927995,416.364007 304.256001,418.03199 304.256001,420 C304.256001,421.96801 304.927995,423.629993 306.272001,424.986 C307.616008,426.342007 309.247992,427.02 311.168001,427.02 Z M328.232002,429.288 C327.415998,429.288 326.624006,429.186001 325.856002,428.982 C325.087998,428.777999 324.446004,428.538001 323.930002,428.262 C323.413999,427.985999 322.952004,427.704001 322.544002,427.416 C322.136,427.127999 321.836003,426.888001 321.644002,426.696 L321.356002,426.372 L323.048002,424.932 C323.216003,425.100001 323.45,425.303999 323.750002,425.544 C324.050003,425.784001 324.655997,426.107998 325.568002,426.516 C326.480006,426.924002 327.379997,427.128 328.268002,427.128 C329.588008,427.128 330.643998,426.876003 331.436002,426.372 C332.228006,425.867997 332.624002,425.160005 332.624002,424.248 C332.624002,423.599997 332.228006,423.042002 331.436002,422.574 C330.643998,422.105998 329.684008,421.704002 328.556002,421.368 C327.427996,421.031998 326.294008,420.660002 325.154002,420.252 C324.013996,419.843998 323.048006,419.268004 322.256002,418.524 C321.463998,417.779996 321.068002,416.868005 321.068002,415.788 C321.068002,414.299993 321.625996,413.082005 322.742002,412.134 C323.858007,411.185995 325.507991,410.712 327.692002,410.712 C328.988008,410.712 330.211996,410.951998 331.364002,411.432 C332.516008,411.912002 333.343999,412.391998 333.848002,412.872 L334.604002,413.592 L332.912002,415.068 C332.744001,414.899999 332.510003,414.696001 332.210002,414.456 C331.91,414.215999 331.304006,413.892002 330.392002,413.484 C329.479997,413.075998 328.568006,412.872 327.656002,412.872 C326.359995,412.872 325.310006,413.123997 324.506002,413.628 C323.701998,414.132003 323.300002,414.839995 323.300002,415.752 C323.300002,416.400003 323.695998,416.957998 324.488002,417.426 C325.280006,417.894002 326.239996,418.295998 327.368002,418.632 C328.496008,418.968002 329.629996,419.333998 330.770002,419.73 C331.910008,420.126002 332.875998,420.701996 333.668002,421.458 C334.460006,422.214004 334.856002,423.131995 334.856002,424.212 C334.856002,425.724008 334.304007,426.947995 333.200002,427.884 C332.095996,428.820005 330.440013,429.288 328.232002,429.288 Z M346.232003,410.676 C348.800015,410.676 350.989993,411.581991 352.802003,413.394 C354.614012,415.206009 355.520003,417.395987 355.520003,419.964 C355.520003,422.532013 354.614012,424.721991 352.802003,426.534 C350.989993,428.346009 348.800015,429.252 346.232003,429.252 C343.351988,429.252 341.000012,428.160011 339.176003,425.976 L339.176003,437.748 L336.800003,437.748 L336.800003,410.964 L339.176003,410.964 L339.176003,413.916 C341.024012,411.755989 343.375988,410.676 346.232003,410.676 Z M341.264003,424.968 C342.608009,426.312007 344.239993,426.984 346.160003,426.984 C348.080012,426.984 349.717996,426.306007 351.074003,424.95 C352.430009,423.593993 353.108003,421.93201 353.108003,419.964 C353.108003,417.99599 352.430009,416.328007 351.074003,414.96 C349.717996,413.591993 348.080012,412.908 346.160003,412.908 C344.239993,412.908 342.608009,413.591993 341.264003,414.96 C339.919996,416.328007 339.248003,417.99599 339.248003,419.964 C339.248003,421.93201 339.919996,423.599993 341.264003,424.968 Z M365.420003,410.712 C367.508014,410.712 369.259996,411.461993 370.676003,412.962 C372.09201,414.462008 372.800003,416.291989 372.800003,418.452 L372.800003,429 L370.388003,429 L370.388003,418.488 C370.388003,416.927992 369.872008,415.614005 368.840003,414.546 C367.807998,413.477995 366.536011,412.944 365.024003,412.944 C363.535996,412.944 362.270008,413.477995 361.226003,414.546 C360.181998,415.614005 359.660003,416.915992 359.660003,418.452 L359.660003,429 L357.284003,429 L357.284003,402.216 L359.660003,402.216 L359.660003,413.664 C361.12401,411.69599 363.043991,410.712 365.420003,410.712 Z M389.864004,426.552 C388.063995,428.376009 385.880017,429.288 383.312004,429.288 C380.743991,429.288 378.554013,428.382009 376.742004,426.57 C374.929995,424.757991 374.024004,422.568013 374.024004,420 C374.024004,417.431987 374.929995,415.242009 376.742004,413.43 C378.554013,411.617991 380.743991,410.712 383.312004,410.712 C385.880017,410.712 388.069995,411.617991 389.882004,413.43 C391.694013,415.242009 392.600004,417.431987 392.600004,420 C392.600004,422.544013 391.688013,424.727991 389.864004,426.552 Z M383.348004,427.02 C385.292013,427.02 386.929997,426.342007 388.262004,424.986 C389.59401,423.629993 390.260004,421.96801 390.260004,420 C390.260004,418.03199 389.59401,416.364007 388.262004,414.996 C386.929997,413.627993 385.292013,412.944 383.348004,412.944 C381.427994,412.944 379.79601,413.627993 378.452004,414.996 C377.107997,416.364007 376.436004,418.03199 376.436004,420 C376.436004,421.96801 377.107997,423.629993 378.452004,424.986 C379.79601,426.342007 381.427994,427.02 383.348004,427.02 Z M402.140004,410.712 C403.412011,410.712 404.575999,411.023997 405.632004,411.648 L404.804004,414.024 C403.795999,413.279996 402.77601,412.908 401.744004,412.908 C400.231997,412.908 398.96001,413.441995 397.928004,414.51 C396.895999,415.578005 396.380004,416.891992 396.380004,418.452 L396.380004,429 L394.004004,429 L394.004004,411 L396.380004,411 L396.380004,413.664 C397.844012,411.69599 399.763993,410.712 402.140004,410.712 Z M419.996005,426.552 C418.195996,428.376009 416.012018,429.288 413.444005,429.288 C410.875992,429.288 408.686014,428.382009 406.874005,426.57 C405.061996,424.757991 404.156005,422.568013 404.156005,420 C404.156005,417.431987 405.061996,415.242009 406.874005,413.43 C408.686014,411.617991 410.875992,410.712 413.444005,410.712 C416.012018,410.712 418.201996,411.617991 420.014005,413.43 C421.826014,415.242009 422.732005,417.431987 422.732005,420 C422.732005,422.544013 421.820014,424.727991 419.996005,426.552 Z M413.480005,427.02 C415.424015,427.02 417.061998,426.342007 418.394005,424.986 C419.726012,423.629993 420.392005,421.96801 420.392005,420 C420.392005,418.03199 419.726012,416.364007 418.394005,414.996 C417.061998,413.627993 415.424015,412.944 413.480005,412.944 C411.559995,412.944 409.928012,413.627993 408.584005,414.996 C407.239998,416.364007 406.568005,418.03199 406.568005,420 C406.568005,421.96801 407.239998,423.629993 408.584005,424.986 C409.928012,426.342007 411.559995,427.02 413.480005,427.02 Z M437.060006,411 L439.436006,411 L439.436006,429 L437.060006,429 L437.060006,426.336 C435.595998,428.30401 433.676018,429.288 431.300006,429.288 C429.211995,429.288 427.460013,428.550007 426.044006,427.074 C424.627999,425.597993 423.920006,423.780011 423.920006,421.62 L423.920006,411 L426.368006,411 L426.368006,421.548 C426.368006,423.084008 426.884001,424.385995 427.916006,425.454 C428.948011,426.522005 430.207998,427.056 431.696006,427.056 C433.208013,427.056 434.480001,426.522005 435.512006,425.454 C436.544011,424.385995 437.060006,423.084008 437.060006,421.548 L437.060006,411 Z M448.544006,429.288 C447.728002,429.288 446.93601,429.186001 446.168006,428.982 C445.400002,428.777999 444.758009,428.538001 444.242006,428.262 C443.726004,427.985999 443.264008,427.704001 442.856006,427.416 C442.448004,427.127999 442.148007,426.888001 441.956006,426.696 L441.668006,426.372 L443.360006,424.932 C443.528007,425.100001 443.762005,425.303999 444.062006,425.544 C444.362008,425.784001 444.968002,426.107998 445.880006,426.516 C446.792011,426.924002 447.692002,427.128 448.580006,427.128 C449.900013,427.128 450.956002,426.876003 451.748006,426.372 C452.54001,425.867997 452.936006,425.160005 452.936006,424.248 C452.936006,423.599997 452.54001,423.042002 451.748006,422.574 C450.956002,422.105998 449.996012,421.704002 448.868006,421.368 C447.740001,421.031998 446.606012,420.660002 445.466006,420.252 C444.326001,419.843998 443.36001,419.268004 442.568006,418.524 C441.776002,417.779996 441.380006,416.868005 441.380006,415.788 C441.380006,414.299993 441.938001,413.082005 443.054006,412.134 C444.170012,411.185995 445.819995,410.712 448.004006,410.712 C449.300013,410.712 450.524001,410.951998 451.676006,411.432 C452.828012,411.912002 453.656004,412.391998 454.160006,412.872 L454.916006,413.592 L453.224006,415.068 C453.056005,414.899999 452.822008,414.696001 452.522006,414.456 C452.222005,414.215999 451.616011,413.892002 450.704006,413.484 C449.792002,413.075998 448.880011,412.872 447.968006,412.872 C446.672,412.872 445.62201,413.123997 444.818006,413.628 C444.014002,414.132003 443.612006,414.839995 443.612006,415.752 C443.612006,416.400003 444.008002,416.957998 444.800006,417.426 C445.59201,417.894002 446.552001,418.295998 447.680006,418.632 C448.808012,418.968002 449.942001,419.333998 451.082006,419.73 C452.222012,420.126002 453.188002,420.701996 453.980006,421.458 C454.77201,422.214004 455.168006,423.131995 455.168006,424.212 C455.168006,425.724008 454.616012,426.947995 453.512006,427.884 C452.408001,428.820005 450.752017,429.288 448.544006,429.288 Z M465.860007,417.984 L456.176007,417.984 L456.176007,415.824 L465.860007,415.824 L465.860007,417.984 Z M468.020008,429 L468.020008,404.808 L473.492008,404.808 C477.476027,404.808 480.643996,405.959988 482.996008,408.264 C485.348019,410.568012 486.524008,413.447983 486.524008,416.904 C486.524008,420.336017 485.342019,423.209988 482.978008,425.526 C480.613996,427.842012 477.452027,429 473.492008,429 L468.020008,429 Z M470.396008,426.732 L473.492008,426.732 C476.660023,426.732 479.191998,425.802009 481.088008,423.942 C482.984017,422.081991 483.932008,419.736014 483.932008,416.904 C483.932008,414.071986 482.984017,411.726009 481.088008,409.866 C479.191998,408.005991 476.660023,407.076 473.492008,407.076 L470.396008,407.076 L470.396008,426.732 Z M502.616008,426.552 C500.815999,428.376009 498.632021,429.288 496.064008,429.288 C493.495995,429.288 491.306017,428.382009 489.494008,426.57 C487.681999,424.757991 486.776008,422.568013 486.776008,420 C486.776008,417.431987 487.681999,415.242009 489.494008,413.43 C491.306017,411.617991 493.495995,410.712 496.064008,410.712 C498.632021,410.712 500.821999,411.617991 502.634008,413.43 C504.446017,415.242009 505.352008,417.431987 505.352008,420 C505.352008,422.544013 504.440017,424.727991 502.616008,426.552 Z M496.100008,427.02 C498.044018,427.02 499.682002,426.342007 501.014008,424.986 C502.346015,423.629993 503.012008,421.96801 503.012008,420 C503.012008,418.03199 502.346015,416.364007 501.014008,414.996 C499.682002,413.627993 498.044018,412.944 496.100008,412.944 C494.179999,412.944 492.548015,413.627993 491.204008,414.996 C489.860001,416.364007 489.188008,418.03199 489.188008,420 C489.188008,421.96801 489.860001,423.629993 491.204008,424.986 C492.548015,426.342007 494.179999,427.02 496.100008,427.02 Z M516.656009,410.676 C519.224022,410.676 521.414,411.581991 523.226009,413.394 C525.038018,415.206009 525.944009,417.395987 525.944009,419.964 C525.944009,422.532013 525.038018,424.721991 523.226009,426.534 C521.414,428.346009 519.224022,429.252 516.656009,429.252 C513.775994,429.252 511.424018,428.160011 509.600009,425.976 L509.600009,437.748 L507.224009,437.748 L507.224009,410.964 L509.600009,410.964 L509.600009,413.916 C511.448018,411.755989 513.799995,410.676 516.656009,410.676 Z M511.688009,424.968 C513.032016,426.312007 514.663999,426.984 516.584009,426.984 C518.504018,426.984 520.142002,426.306007 521.498009,424.95 C522.854016,423.593993 523.532009,421.93201 523.532009,419.964 C523.532009,417.99599 522.854016,416.328007 521.498009,414.96 C520.142002,413.591993 518.504018,412.908 516.584009,412.908 C514.663999,412.908 513.032016,413.591993 511.688009,414.96 C510.344002,416.328007 509.672009,417.99599 509.672009,419.964 C509.672009,421.93201 510.344002,423.599993 511.688009,424.968 Z M535.700009,426.912 C537.308017,426.912 538.748003,426.456005 540.020009,425.544 C541.292016,424.631995 542.156007,423.564006 542.612009,422.34 L544.628009,423.06 C544.076007,424.572008 543.002017,425.963994 541.406009,427.236 C539.810001,428.508006 537.90802,429.132 535.700009,429.108 C533.683999,429.108 531.842018,428.484006 530.174009,427.236 C528.506001,425.987994 527.372012,424.39201 526.772009,422.448 C526.532008,421.655996 526.412009,420.792005 526.412009,419.856 C526.412009,417.263987 527.312,415.068009 529.112009,413.268 C530.912018,411.467991 533.107996,410.556 535.700009,410.532 C538.052021,410.556 540.104001,411.347992 541.856009,412.908 C543.608018,414.468008 544.616008,416.399988 544.880009,418.704 C544.90401,418.824001 544.916009,418.979999 544.916009,419.172 L529.184009,422.016 C529.592011,423.456007 530.408003,424.637995 531.632009,425.562 C532.856016,426.486005 534.212002,426.936 535.700009,426.912 Z M535.484009,412.728 C533.684,412.752 532.142016,413.399994 530.858009,414.672 C529.574003,415.944006 528.88401,417.467991 528.788009,419.244 C528.788009,419.316 528.794009,419.441999 528.806009,419.622 C528.81801,419.802001 528.824009,419.951999 528.824009,420.072 L542.216009,417.66 C541.760007,416.195993 540.908016,415.002005 539.660009,414.078 C538.412003,413.153995 537.020017,412.704 535.484009,412.728 Z M562.05201,402.216 L564.42801,402.216 L564.42801,429 L562.05201,429 L562.05201,426.084 C560.204001,428.220011 557.864024,429.288 555.03201,429.288 C552.463997,429.288 550.274019,428.382009 548.46201,426.57 C546.650001,424.757991 545.74401,422.568013 545.74401,420 C545.74401,417.431987 546.650001,415.242009 548.46201,413.43 C550.274019,411.617991 552.463997,410.712 555.03201,410.712 C557.888024,410.712 560.228001,411.779989 562.05201,413.916 L562.05201,402.216 Z M550.13601,425.004 C551.480017,426.348007 553.124,427.02 555.06801,427.02 C557.01202,427.02 558.650003,426.342007 559.98201,424.986 C561.314017,423.629993 561.98001,421.96801 561.98001,420 C561.98001,418.03199 561.314017,416.370007 559.98201,415.014 C558.650003,413.657993 557.01202,412.98 555.06801,412.98 C553.124,412.98 551.480017,413.657993 550.13601,415.014 C548.792003,416.370007 548.12001,418.03199 548.12001,420 C548.12001,421.96801 548.792003,423.635993 550.13601,425.004 Z M566.228011,430.728 L567.848011,425.004 L570.296011,425.004 L568.172011,430.728 L566.228011,430.728 Z M595.640012,404.808 L598.016012,404.808 L598.016012,429 L595.568012,429 L582.068012,408.444 L582.068012,429 L579.692012,429 L579.692012,404.808 L582.104012,404.808 L595.640012,425.4 L595.640012,404.808 Z M609.860013,417.984 L600.176013,417.984 L600.176013,415.824 L609.860013,415.824 L609.860013,417.984 Z M624.296013,404.808 L624.296013,407.184 L615.692013,407.184 L615.692013,429 L613.316013,429 L613.316013,407.184 L604.712013,407.184 L604.712013,404.808 L624.296013,404.808 Z M632.936014,411 L635.312014,411 L625.484014,436.668 L623.108014,436.668 L626.888014,426.804 L620.228014,411 L622.604014,411 L628.004014,423.852 L632.936014,411 Z M646.364014,410.676 C648.932027,410.676 651.122005,411.581991 652.934014,413.394 C654.746024,415.206009 655.652014,417.395987 655.652014,419.964 C655.652014,422.532013 654.746024,424.721991 652.934014,426.534 C651.122005,428.346009 648.932027,429.252 646.364014,429.252 C643.484,429.252 641.132024,428.160011 639.308014,425.976 L639.308014,437.748 L636.932014,437.748 L636.932014,410.964 L639.308014,410.964 L639.308014,413.916 C641.156024,411.755989 643.508,410.676 646.364014,410.676 Z M641.396014,424.968 C642.740021,426.312007 644.372005,426.984 646.292014,426.984 C648.212024,426.984 649.850008,426.306007 651.206014,424.95 C652.562021,423.593993 653.240014,421.93201 653.240014,419.964 C653.240014,417.99599 652.562021,416.328007 651.206014,414.96 C649.850008,413.591993 648.212024,412.908 646.292014,412.908 C644.372005,412.908 642.740021,413.591993 641.396014,414.96 C640.052008,416.328007 639.380014,417.99599 639.380014,419.964 C639.380014,421.93201 640.052008,423.599993 641.396014,424.968 Z M665.408015,426.912 C667.016023,426.912 668.456009,426.456005 669.728015,425.544 C671.000021,424.631995 671.864013,423.564006 672.320015,422.34 L674.336015,423.06 C673.784012,424.572008 672.710023,425.963994 671.114015,427.236 C669.518007,428.508006 667.616026,429.132 665.408015,429.108 C663.392005,429.108 661.550023,428.484006 659.882015,427.236 C658.214007,425.987994 657.080018,424.39201 656.480015,422.448 C656.240014,421.655996 656.120015,420.792005 656.120015,419.856 C656.120015,417.263987 657.020006,415.068009 658.820015,413.268 C660.620024,411.467991 662.816002,410.556 665.408015,410.532 C667.760027,410.556 669.812006,411.347992 671.564015,412.908 C673.316024,414.468008 674.324014,416.399988 674.588015,418.704 C674.612015,418.824001 674.624015,418.979999 674.624015,419.172 L658.892015,422.016 C659.300017,423.456007 660.116009,424.637995 661.340015,425.562 C662.564021,426.486005 663.920008,426.936 665.408015,426.912 Z M665.192015,412.728 C663.392006,412.752 661.850022,413.399994 660.566015,414.672 C659.282009,415.944006 658.592016,417.467991 658.496015,419.244 C658.496015,419.316 658.502015,419.441999 658.514015,419.622 C658.526015,419.802001 658.532015,419.951999 658.532015,420.072 L671.924015,417.66 C671.468013,416.195993 670.616021,415.002005 669.368015,414.078 C668.120009,413.153995 666.728023,412.704 665.192015,412.728 Z M691.652016,429.288 C690.044008,429.288 688.490024,428.880004 686.990016,428.064 C685.490009,427.247996 684.35602,426.432004 683.588016,425.616 L685.244016,423.996 C685.844019,424.644003 686.73201,425.309997 687.908016,425.994 C689.084022,426.678003 690.33201,427.02 691.652016,427.02 C693.260024,427.02 694.526012,426.666004 695.450016,425.958 C696.374021,425.249996 696.836016,424.284006 696.836016,423.06 C696.836016,422.027995 696.386021,421.128004 695.486016,420.36 C694.586012,419.591996 693.494023,418.944003 692.210016,418.416 C690.92601,417.887997 689.636023,417.330003 688.340016,416.742 C687.04401,416.153997 685.946021,415.356005 685.046016,414.348 C684.146012,413.339995 683.696016,412.152007 683.696016,410.784 C683.696016,409.031991 684.35601,407.556006 685.676016,406.356 C686.996023,405.155994 688.844004,404.556 691.220016,404.556 C692.828024,404.556 694.382009,404.963996 695.882016,405.78 C697.382024,406.596004 698.516013,407.411996 699.284016,408.228 L697.628016,409.848 C697.004013,409.175997 696.104022,408.504003 694.928016,407.832 C693.75201,407.159997 692.516023,406.824 691.220016,406.824 C689.612008,406.824 688.346021,407.177996 687.422016,407.886 C686.498012,408.594004 686.036016,409.559994 686.036016,410.784 C686.036016,411.816005 686.486012,412.721996 687.386016,413.502 C688.286021,414.282004 689.37801,414.935997 690.662016,415.464 C691.946023,415.992003 693.23601,416.543997 694.532016,417.12 C695.828023,417.696003 696.926012,418.487995 697.826016,419.496 C698.726021,420.504005 699.176016,421.691993 699.176016,423.06 C699.176016,424.812009 698.516023,426.287994 697.196016,427.488 C695.87601,428.688006 694.028028,429.288 691.652016,429.288 Z M704.000017,405.6 C703.736016,405.888001 703.400019,406.032 702.992017,406.032 C702.584015,406.032 702.242018,405.888001 701.966017,405.6 C701.690016,405.311999 701.552017,404.976002 701.552017,404.592 C701.552017,404.207998 701.690016,403.872001 701.966017,403.584 C702.242018,403.295999 702.584015,403.152 702.992017,403.152 C703.400019,403.152 703.742016,403.295999 704.018017,403.584 C704.294018,403.872001 704.432017,404.207998 704.432017,404.592 C704.432017,404.976002 704.288018,405.311999 704.000017,405.6 Z M701.804017,429 L701.804017,411 L704.180017,411 L704.180017,429 L701.804017,429 Z M707.528018,429 L707.528018,402.216 L709.904018,402.216 L709.904018,429 L707.528018,429 Z M715.448018,405.6 C715.184017,405.888001 714.84802,406.032 714.440018,406.032 C714.032016,406.032 713.69002,405.888001 713.414018,405.6 C713.138017,405.311999 713.000018,404.976002 713.000018,404.592 C713.000018,404.207998 713.138017,403.872001 713.414018,403.584 C713.69002,403.295999 714.032016,403.152 714.440018,403.152 C714.84802,403.152 715.190017,403.295999 715.466018,403.584 C715.74202,403.872001 715.880018,404.207998 715.880018,404.592 C715.880018,404.976002 715.73602,405.311999 715.448018,405.6 Z M713.252018,429 L713.252018,411 L715.628018,411 L715.628018,429 L713.252018,429 Z M726.968019,429.288 C724.400006,429.288 722.210028,428.382009 720.398019,426.57 C718.58601,424.757991 717.680019,422.568013 717.680019,420 C717.680019,417.431987 718.58601,415.242009 720.398019,413.43 C722.210028,411.617991 724.400006,410.712 726.968019,410.712 C728.600027,410.712 730.118012,411.113996 731.522019,411.918 C732.926026,412.722004 734.036015,413.795993 734.852019,415.14 L732.692019,416.184 C732.044016,415.199995 731.216024,414.420003 730.208019,413.844 C729.200014,413.267997 728.120025,412.98 726.968019,412.98 C725.024009,412.98 723.386026,413.657993 722.054019,415.014 C720.722012,416.370007 720.056019,418.03199 720.056019,420 C720.056019,421.96801 720.722012,423.629993 722.054019,424.986 C723.386026,426.342007 725.024009,427.02 726.968019,427.02 C728.120025,427.02 729.200014,426.732003 730.208019,426.156 C731.216024,425.579997 732.044016,424.800005 732.692019,423.816 L734.852019,424.86 C734.036015,426.204007 732.926026,427.277996 731.522019,428.082 C730.118012,428.886004 728.600027,429.288 726.968019,429.288 Z M751.08802,426.552 C749.288011,428.376009 747.104032,429.288 744.53602,429.288 C741.968007,429.288 739.778029,428.382009 737.96602,426.57 C736.15401,424.757991 735.24802,422.568013 735.24802,420 C735.24802,417.431987 736.15401,415.242009 737.96602,413.43 C739.778029,411.617991 741.968007,410.712 744.53602,410.712 C747.104032,410.712 749.29401,411.617991 751.10602,413.43 C752.918029,415.242009 753.82402,417.431987 753.82402,420 C753.82402,422.544013 752.912029,424.727991 751.08802,426.552 Z M744.57202,427.02 C746.516029,427.02 748.154013,426.342007 749.48602,424.986 C750.818026,423.629993 751.48402,421.96801 751.48402,420 C751.48402,418.03199 750.818026,416.364007 749.48602,414.996 C748.154013,413.627993 746.516029,412.944 744.57202,412.944 C742.65201,412.944 741.020026,413.627993 739.67602,414.996 C738.332013,416.364007 737.66002,418.03199 737.66002,420 C737.66002,421.96801 738.332013,423.629993 739.67602,424.986 C741.020026,426.342007 742.65201,427.02 744.57202,427.02 Z M763.36402,410.712 C765.452031,410.712 767.204013,411.449993 768.62002,412.926 C770.036027,414.402007 770.74402,416.219989 770.74402,418.38 L770.74402,429 L768.33202,429 L768.33202,418.452 C768.33202,416.915992 767.810025,415.608005 766.76602,414.528 C765.722015,413.447995 764.456028,412.908 762.96802,412.908 C761.480013,412.908 760.214025,413.447995 759.17002,414.528 C758.126015,415.608005 757.60402,416.915992 757.60402,418.452 L757.60402,429 L755.22802,429 L755.22802,411 L757.60402,411 L757.60402,413.664 C759.068027,411.69599 760.988008,410.712 763.36402,410.712 Z M791.876021,429.288 C788.324004,429.288 785.492032,428.106012 783.380021,425.742 C781.268011,423.377988 780.212021,420.444018 780.212021,416.94 C780.212021,413.411982 781.268011,410.466012 783.380021,408.102 C785.492032,405.737988 788.324004,404.556 791.876021,404.556 C794.228033,404.556 796.274013,405.095995 798.014021,406.176 C799.75403,407.256005 801.104017,408.731991 802.064021,410.604 L799.832021,411.9 C799.064018,410.339992 797.990028,409.104005 796.610021,408.192 C795.230015,407.279995 793.65203,406.824 791.876021,406.824 C789.140008,406.824 786.95003,407.77799 785.306021,409.686 C783.662013,411.59401 782.840021,414.011985 782.840021,416.94 C782.840021,419.844015 783.662013,422.25599 785.306021,424.176 C786.95003,426.09601 789.140008,427.056 791.876021,427.056 C793.67603,427.056 795.266015,426.594005 796.646021,425.67 C798.026028,424.745995 799.088018,423.504008 799.832021,421.944 L802.064021,423.276 C801.104017,425.148009 799.75403,426.617995 798.014021,427.686 C796.274013,428.754005 794.228033,429.288 791.876021,429.288 Z M812.144022,410.712 C813.416028,410.712 814.580017,411.023997 815.636022,411.648 L814.808022,414.024 C813.800017,413.279996 812.780027,412.908 811.748022,412.908 C810.236014,412.908 808.964027,413.441995 807.932022,414.51 C806.900017,415.578005 806.384022,416.891992 806.384022,418.452 L806.384022,429 L804.008022,429 L804.008022,411 L806.384022,411 L806.384022,413.664 C807.848029,411.69599 809.76801,410.712 812.144022,410.712 Z M828.668023,411 L831.044023,411 L821.216023,436.668 L818.840023,436.668 L822.620023,426.804 L815.960023,411 L818.336023,411 L823.736023,423.852 L828.668023,411 Z M837.740023,429.288 C836.924019,429.288 836.132027,429.186001 835.364023,428.982 C834.596019,428.777999 833.954026,428.538001 833.438023,428.262 C832.922021,427.985999 832.460025,427.704001 832.052023,427.416 C831.644021,427.127999 831.344024,426.888001 831.152023,426.696 L830.864023,426.372 L832.556023,424.932 C832.724024,425.100001 832.958022,425.303999 833.258023,425.544 C833.558025,425.784001 834.164019,426.107998 835.076023,426.516 C835.988028,426.924002 836.888019,427.128 837.776023,427.128 C839.09603,427.128 840.152019,426.876003 840.944023,426.372 C841.736027,425.867997 842.132023,425.160005 842.132023,424.248 C842.132023,423.599997 841.736027,423.042002 840.944023,422.574 C840.152019,422.105998 839.192029,421.704002 838.064023,421.368 C836.936018,421.031998 835.802029,420.660002 834.662023,420.252 C833.522018,419.843998 832.556027,419.268004 831.764023,418.524 C830.972019,417.779996 830.576023,416.868005 830.576023,415.788 C830.576023,414.299993 831.134018,413.082005 832.250023,412.134 C833.366029,411.185995 835.016012,410.712 837.200023,410.712 C838.49603,410.712 839.720018,410.951998 840.872023,411.432 C842.024029,411.912002 842.852021,412.391998 843.356023,412.872 L844.112023,413.592 L842.420023,415.068 C842.252022,414.899999 842.018025,414.696001 841.718023,414.456 C841.418022,414.215999 840.812028,413.892002 839.900023,413.484 C838.988019,413.075998 838.076028,412.872 837.164023,412.872 C835.868017,412.872 834.818027,413.123997 834.014023,413.628 C833.210019,414.132003 832.808023,414.839995 832.808023,415.752 C832.808023,416.400003 833.204019,416.957998 833.996023,417.426 C834.788027,417.894002 835.748018,418.295998 836.876023,418.632 C838.004029,418.968002 839.138018,419.333998 840.278023,419.73 C841.418029,420.126002 842.384019,420.701996 843.176023,421.458 C843.968027,422.214004 844.364023,423.131995 844.364023,424.212 C844.364023,425.724008 843.812029,426.947995 842.708023,427.884 C841.604018,428.820005 839.948034,429.288 837.740023,429.288 Z M855.704024,424.968 L856.892024,426.804 C856.748023,426.996001 856.556025,427.223999 856.316024,427.488 C856.076023,427.752001 855.536028,428.117998 854.696024,428.586 C853.85602,429.054002 852.992028,429.288 852.104024,429.288 C850.592016,429.288 849.326029,428.838005 848.306024,427.938 C847.286019,427.037996 846.776024,425.736009 846.776024,424.032 L846.776024,413.16 L843.896024,413.16 L843.896024,410.964 L846.776024,410.964 L846.776024,405.276 L849.152024,404.988 L849.152024,410.964 L854.588024,410.964 L854.588024,413.16 L849.152024,413.16 L849.152024,423.492 C849.152024,424.596006 849.49402,425.471997 850.178024,426.12 C850.862027,426.768003 851.648019,427.092 852.536024,427.092 C853.088027,427.092 853.628021,426.924002 854.156024,426.588 C854.684027,426.251998 855.074023,425.922002 855.326024,425.598 C855.578025,425.273998 855.704024,425.064 855.704024,424.968 Z M872.228025,411 L874.604025,411 L874.604025,429 L872.228025,429 L872.228025,426.084 C870.380015,428.220011 868.040039,429.288 865.208025,429.288 C862.640012,429.288 860.450034,428.382009 858.638025,426.57 C856.826015,424.757991 855.920025,422.568013 855.920025,420 C855.920025,417.431987 856.826015,415.242009 858.638025,413.43 C860.450034,411.617991 862.640012,410.712 865.208025,410.712 C868.064039,410.712 870.404015,411.779989 872.228025,413.916 L872.228025,411 Z M865.244025,427.02 C867.188034,427.02 868.826018,426.342007 870.158025,424.986 C871.490031,423.629993 872.156025,421.96801 872.156025,420 C872.156025,418.03199 871.490031,416.370007 870.158025,415.014 C868.826018,413.657993 867.188034,412.98 865.244025,412.98 C863.324015,412.98 861.686031,413.657993 860.330025,415.014 C858.974018,416.370007 858.296025,418.03199 858.296025,420 C858.296025,421.96801 858.974018,423.629993 860.330025,424.986 C861.686031,426.342007 863.324015,427.02 865.244025,427.02 Z M877.520025,429 L877.520025,402.216 L879.896025,402.216 L879.896025,429 L877.520025,429 Z" id="Phosphorous-Doped,-N-Copy" fill="#23ABE3"></path>
    </g>
</svg>