<?xml version="1.0" encoding="UTF-8"?>
<svg width="900px" height="430px" viewBox="0 0 900 430" version="1.1" xmlns="http://www.w3.org/2000/svg" xmlns:xlink="http://www.w3.org/1999/xlink">
    <!-- Generator: Sketch 52.5 (67469) - http://www.bohemiancoding.com/sketch -->
    <title>N-Type_Silicon_Crystal</title>
    <desc>Created with Sketch.</desc>
    <g id="N-Type_Silicon_Crystal" stroke="none" stroke-width="1" fill="none" fill-rule="evenodd">
        <rect id="Rectangle" fill="#EEEEEE" x="0" y="0" width="900" height="430"></rect>
        <g id="Illustration" transform="translate(202.000000, 61.000000)">
            <ellipse id="Extra-Electron-Orbit" stroke="#524740" stroke-width="3" transform="translate(177.836448, 198.948956) rotate(-13.000000) translate(-177.836448, -198.948956) " cx="177.836448" cy="198.948956" rx="86" ry="43.5"></ellipse>
            <g id="Connectors" transform="translate(71.000000, 79.000000)" stroke="#524740" stroke-width="2">
                <path d="M0.576010071,34.4848177 L64,94.0891175" id="Path-4"></path>
                <path d="M6.98835279,165.073915 L64.8529269,132.18612" id="Path-4-Copy-2"></path>
                <path d="M31.5962499,198.487616 L82.1455016,152.235338" id="Path-4-Copy-3"></path>
                <path d="M178.665386,212.173625 L125.187513,152.554371" id="Path-4-Copy-4"></path>
                <path d="M190.995505,30.9978889 L142.066342,88.8923723" id="Path-4-Copy-6"></path>
                <path d="M161.308007,9.59776687 L120.120375,72.3425458" id="Path-4-Copy-7"></path>
                <path d="M204.484611,180.888471 L144.852894,132.07396" id="Path-4-Copy-5"></path>
                <path d="M39.0411794,0.146420176 L85.8642277,70.3959472" id="Path-4-Copy"></path>
            </g>
            <circle id="Oval-Copy-11" fill="#EF7D3B" cx="105" cy="113" r="12"></circle>
            <circle id="Oval-Copy-12" fill="#EF7D3B" cx="127" cy="137" r="12"></circle>
            <circle id="Oval-Copy-13" fill="#EF7D3B" cx="232" cy="120" r="12"></circle>
            <circle id="Oval-Copy-15" fill="#EF7D3B" cx="216" cy="142" r="12"></circle>
            <circle id="Oval-Copy-20" fill="#EF7D3B" cx="261" cy="183" r="12"></circle>
            <circle id="Oval-Copy-16" fill="#EF7D3B" cx="224" cy="239" r="12"></circle>
            <circle id="Oval-Copy-17" fill="#EF7D3B" cx="245" cy="258" r="12"></circle>
            <circle id="Oval-Copy-18" fill="#EF7D3B" cx="129" cy="233" r="12"></circle>
            <circle id="Oval-Copy-19" fill="#EF7D3B" cx="107" cy="249" r="12"></circle>
            <circle id="Oval-Copy-14" fill="#EF7D3B" cx="190" cy="166" r="12"></circle>
            <circle id="Oval" fill="#252525" cx="57.5" cy="57.5" r="57.5"></circle>
            <circle id="Oval-Copy" fill="#252525" cx="294" cy="304" r="53"></circle>
            <circle id="Oval-Copy-2" fill="#252525" cx="63.5" cy="281.5" r="41.5"></circle>
            <circle id="Oval-Copy-4" fill="#D7E465" cx="176.5" cy="192.5" r="47.5"></circle>
            <circle id="Oval-Copy-3" fill="#252525" cx="264.5" cy="71.5" r="40.5"></circle>
            <g id="Label" transform="translate(271.000000, 176.000000)">
                <polyline id="Path-5" stroke="#B09679" stroke-width="3" fill="#D8D8D8" points="0 9.05748672 52 16.7908666 89 16.7908666"></polyline>
                <path d="M103.368,25 L103.368,24.244 C104.856007,24.244 105.797998,23.9920025 106.194,23.488 C106.590002,22.9839975 106.788,21.832009 106.788,20.032 L106.788,8.332 C106.788,6.531991 106.590002,5.38600246 106.194,4.894 C105.797998,4.40199754 104.856007,4.156 103.368,4.156 L103.368,3.4 L119.784,3.4 L120.108,8.152 L119.352,8.152 L119.172,7.432 C118.883999,6.37599472 118.500002,5.66200186 118.02,5.29 C117.539998,4.91799814 116.532008,4.732 114.996,4.732 L109.668,4.732 L109.668,12.904 L111.468,12.904 C113.268009,12.904 114.413998,12.706002 114.906,12.31 C115.398002,11.913998 115.644,10.9600076 115.644,9.448 L116.4,9.448 L116.4,17.692 L115.644,17.692 C115.644,16.1799924 115.398002,15.226002 114.906,14.83 C114.413998,14.433998 113.268009,14.236 111.468,14.236 L109.668,14.236 L109.668,19.492 C109.668,21.292009 109.865998,22.4379975 110.262,22.93 C110.658002,23.4220025 111.599993,23.668 113.088,23.668 L116.184,23.668 C117.264005,23.668 118.085997,23.5600011 118.65,23.344 C119.214003,23.1279989 119.597999,22.8520017 119.802,22.516 C120.006001,22.1799983 120.191999,21.6520036 120.36,20.932 L120.54,20.212 L121.296,20.212 L121.008,25 L103.368,25 Z M127.488001,20.248 L125.688001,22.156 C124.295994,23.548007 124.547992,24.244 126.444001,24.244 L126.444001,25 L120.900001,25 L120.900001,24.244 C121.596005,24.244 122.639994,23.548007 124.032001,22.156 L126.768001,19.276 L124.284001,15.856 C123.635998,15.0159958 123.096003,14.4520014 122.664001,14.164 C122.231999,13.8759986 121.716004,13.732 121.116001,13.732 L121.116001,13.012 L128.388001,13.012 L128.388001,13.732 C127.355996,13.732 126.768002,13.8819985 126.624001,14.182 C126.48,14.4820015 126.719998,15.0399959 127.344001,15.856 L128.496001,17.44 L130.008001,15.856 C130.656004,15.1359964 130.884002,14.6020017 130.692001,14.254 C130.5,13.9059983 130.020005,13.732 129.252001,13.732 L129.252001,13.012 L135.120001,13.012 L135.120001,13.732 C134.159996,13.732 133.008008,14.4399929 131.664001,15.856 L129.216001,18.412 L131.916001,22.156 C132.468004,22.948004 132.989999,23.4939985 133.482001,23.794 C133.974004,24.0940015 134.591997,24.244 135.336001,24.244 L135.336001,25 L127.776001,25 L127.776001,24.244 C128.712006,24.244 129.258,24.0700017 129.414001,23.722 C129.570002,23.3739983 129.384004,22.8520035 128.856001,22.156 L127.488001,20.248 Z M136.056002,14.272 L134.184002,14.272 L134.184002,13.408 C135.216007,13.1919989 135.972,12.7240036 136.452002,12.004 C136.932005,11.2839964 137.244001,10.3000062 137.388002,9.052 L138.612002,9.052 L138.612002,13.012 L141.744002,13.012 L141.744002,14.272 L138.612002,14.272 L138.612002,21.472 C138.612002,23.2000086 139.151997,24.064 140.232002,24.064 C140.928006,24.064 141.707998,23.6560041 142.572002,22.84 L143.184002,23.452 C142.68,24.052003 142.074006,24.5439981 141.366002,24.928 C140.657999,25.3120019 140.004005,25.504 139.404002,25.504 C138.371997,25.504 137.556005,25.1680034 136.956002,24.496 C136.355999,23.8239966 136.056002,22.8160067 136.056002,21.472 L136.056002,14.272 Z M155.028003,14.632 C155.028003,15.7600056 154.548008,16.324 153.588003,16.324 C153.252002,16.324 152.958005,16.1920013 152.706003,15.928 C152.454002,15.6639987 152.328003,15.3640017 152.328003,15.028 C152.328003,14.235996 151.944007,13.84 151.176003,13.84 C150.624001,13.84 150.024007,14.2239962 149.376003,14.992 C148.728,15.7600038 148.404003,16.7799936 148.404003,18.052 L148.404003,20.032 C148.404003,21.832009 148.578002,22.9839975 148.926003,23.488 C149.274005,23.9920025 150.047997,24.244 151.248003,24.244 L151.248003,25 L143.004003,25 L143.004003,24.244 C144.204009,24.244 144.978002,23.9920025 145.326003,23.488 C145.674005,22.9839975 145.848003,21.832009 145.848003,20.032 L145.848003,18.232 C145.848003,16.4559911 145.674005,15.3160025 145.326003,14.812 C144.978002,14.3079975 144.204009,14.056 143.004003,14.056 L143.004003,13.3 L147.792003,12.4 C148.008004,12.8560023 148.212002,13.7199936 148.404003,14.992 C148.764005,14.2719964 149.304,13.6600025 150.024003,13.156 C150.744007,12.6519975 151.464,12.4 152.184003,12.4 C153.096008,12.4 153.798001,12.6399976 154.290003,13.12 C154.782006,13.6000024 155.028003,14.1039974 155.028003,14.632 Z M167.376004,24.28 C166.680001,25.0240037 165.888009,25.396 165.000004,25.396 C163.559997,25.396 162.744005,24.700007 162.552004,23.308 C160.943996,24.7480072 159.444011,25.468 158.052004,25.468 C157.14,25.468 156.372008,25.1980027 155.748004,24.658 C155.124001,24.1179973 154.812004,23.3800047 154.812004,22.444 C154.812004,19.9239874 157.367979,18.2200044 162.480004,17.332 C162.480004,15.9159929 162.324006,14.9320028 162.012004,14.38 C161.700003,13.8279972 161.052009,13.552 160.068004,13.552 C159.588002,13.552 159.126007,13.7079984 158.682004,14.02 C158.238002,14.3320016 158.016004,14.7519974 158.016004,15.28 C158.016004,15.6400018 157.896006,15.9399988 157.656004,16.18 C157.416003,16.4200012 157.128006,16.54 156.792004,16.54 C156.432003,16.54 156.132006,16.4200012 155.892004,16.18 C155.652003,15.9399988 155.532004,15.6400018 155.532004,15.28 C155.532004,14.4399958 155.994,13.7500027 156.918004,13.21 C157.842009,12.6699973 158.903998,12.4 160.104004,12.4 C161.856013,12.4 163.116001,12.7839962 163.884004,13.552 C164.652008,14.3200038 165.036004,15.5679914 165.036004,17.296 L165.036004,22.732 C165.036004,23.6680047 165.312002,24.136 165.864004,24.136 C166.176006,24.136 166.512003,23.9560018 166.872004,23.596 L167.376004,24.28 Z M162.480004,22.12 L162.480004,18.448 C159.167988,19.2160038 157.512004,20.403992 157.512004,22.012 C157.512004,22.5640028 157.674003,23.0079983 157.998004,23.344 C158.322006,23.6800017 158.724002,23.848 159.204004,23.848 C160.092009,23.848 161.183998,23.2720058 162.480004,22.12 Z M173.388007,25 L173.388007,24.244 C174.876014,24.244 175.818005,23.9920025 176.214007,23.488 C176.610009,22.9839975 176.808007,21.832009 176.808007,20.032 L176.808007,8.332 C176.808007,6.531991 176.610009,5.38600246 176.214007,4.894 C175.818005,4.40199754 174.876014,4.156 173.388007,4.156 L173.388007,3.4 L189.804007,3.4 L190.128007,8.152 L189.372007,8.152 L189.192007,7.432 C188.904005,6.37599472 188.520009,5.66200186 188.040007,5.29 C187.560004,4.91799814 186.552014,4.732 185.016007,4.732 L179.688007,4.732 L179.688007,12.904 L181.488007,12.904 C183.288016,12.904 184.434004,12.706002 184.926007,12.31 C185.418009,11.913998 185.664007,10.9600076 185.664007,9.448 L186.420007,9.448 L186.420007,17.692 L185.664007,17.692 C185.664007,16.1799924 185.418009,15.226002 184.926007,14.83 C184.434004,14.433998 183.288016,14.236 181.488007,14.236 L179.688007,14.236 L179.688007,19.492 C179.688007,21.292009 179.886005,22.4379975 180.282007,22.93 C180.678009,23.4220025 181.619999,23.668 183.108007,23.668 L186.204007,23.668 C187.284012,23.668 188.106004,23.5600011 188.670007,23.344 C189.234009,23.1279989 189.618006,22.8520017 189.822007,22.516 C190.026008,22.1799983 190.212006,21.6520036 190.380007,20.932 L190.560007,20.212 L191.316007,20.212 L191.028007,25 L173.388007,25 Z M199.776008,25 L191.532008,25 L191.532008,24.244 C192.732014,24.244 193.506006,23.9920025 193.854008,23.488 C194.202009,22.9839975 194.376008,21.832009 194.376008,20.032 L194.376008,8.656 C194.376008,6.855991 194.202009,5.70400252 193.854008,5.2 C193.506006,4.69599748 192.732014,4.444 191.532008,4.444 L191.532008,3.688 L196.932008,2.788 L196.932008,20.032 C196.932008,21.832009 197.106006,22.9839975 197.454008,23.488 C197.802009,23.9920025 198.576002,24.244 199.776008,24.244 L199.776008,25 Z M203.160009,16.756 L209.136009,16.756 C209.37601,16.0839966 209.274011,15.4300032 208.830009,14.794 C208.386007,14.1579968 207.624014,13.84 206.544009,13.84 C205.776005,13.84 205.086012,14.1039974 204.474009,14.632 C203.862006,15.1600026 203.42401,15.8679956 203.160009,16.756 Z M202.944009,18.088 C202.728008,19.8640089 203.010005,21.3099944 203.790009,22.426 C204.570013,23.5420056 205.848,24.1 207.624009,24.1 C208.224012,24.1 208.908005,23.9440016 209.676009,23.632 C210.444013,23.3199984 211.080006,22.9240024 211.584009,22.444 L212.232009,23.236 C211.584006,23.9320035 210.756014,24.5019978 209.748009,24.946 C208.740004,25.3900022 207.732014,25.612 206.724009,25.612 C204.779999,25.612 203.184015,24.9700064 201.936009,23.686 C200.688003,22.4019936 200.064009,20.8360092 200.064009,18.988 C200.064009,17.1399908 200.742002,15.5800064 202.098009,14.308 C203.454016,13.0359936 204.996,12.4 206.724009,12.4 C208.356017,12.4 209.688004,12.9699943 210.720009,14.11 C211.752014,15.2500057 212.052011,16.5759924 211.620009,18.088 L202.944009,18.088 Z M219.46801,13.552 C218.508005,13.552 217.692013,14.1039945 217.02001,15.208 C216.348007,16.3120055 216.01201,17.6799918 216.01201,19.312 C216.01201,20.8000074 216.378006,21.9699957 217.11001,22.822 C217.842014,23.6740043 218.928003,24.1 220.36801,24.1 C221.760017,24.1 223.044004,23.5480055 224.22001,22.444 L224.83201,23.236 C223.368003,24.8200079 221.580021,25.612 219.46801,25.612 C217.5,25.612 215.946016,25.0240059 214.80601,23.848 C213.666004,22.6719941 213.09601,21.1600092 213.09601,19.312 C213.09601,17.31999 213.768003,15.6700065 215.11201,14.362 C216.456017,13.0539935 217.908002,12.4 219.46801,12.4 C220.884017,12.4 221.952006,12.6519975 222.67201,13.156 C223.392014,13.6600025 223.75201,14.2719964 223.75201,14.992 C223.75201,15.3760019 223.626011,15.7299984 223.37401,16.054 C223.122009,16.3780016 222.720013,16.54 222.16801,16.54 C221.784008,16.54 221.454011,16.4020014 221.17801,16.126 C220.902009,15.8499986 220.76401,15.508002 220.76401,15.1 C220.76401,14.0679948 220.332014,13.552 219.46801,13.552 Z M226.236011,14.272 L224.364011,14.272 L224.364011,13.408 C225.396016,13.1919989 226.152009,12.7240036 226.632011,12.004 C227.112013,11.2839964 227.42401,10.3000062 227.568011,9.052 L228.792011,9.052 L228.792011,13.012 L231.924011,13.012 L231.924011,14.272 L228.792011,14.272 L228.792011,21.472 C228.792011,23.2000086 229.332006,24.064 230.412011,24.064 C231.108015,24.064 231.888007,23.6560041 232.752011,22.84 L233.364011,23.452 C232.860009,24.052003 232.254015,24.5439981 231.546011,24.928 C230.838008,25.3120019 230.184014,25.504 229.584011,25.504 C228.552006,25.504 227.736014,25.1680034 227.136011,24.496 C226.536008,23.8239966 226.236011,22.8160067 226.236011,21.472 L226.236011,14.272 Z M245.208012,14.632 C245.208012,15.7600056 244.728017,16.324 243.768012,16.324 C243.43201,16.324 243.138013,16.1920013 242.886012,15.928 C242.634011,15.6639987 242.508012,15.3640017 242.508012,15.028 C242.508012,14.235996 242.124016,13.84 241.356012,13.84 C240.804009,13.84 240.204015,14.2239962 239.556012,14.992 C238.908009,15.7600038 238.584012,16.7799936 238.584012,18.052 L238.584012,20.032 C238.584012,21.832009 238.75801,22.9839975 239.106012,23.488 C239.454014,23.9920025 240.228006,24.244 241.428012,24.244 L241.428012,25 L233.184012,25 L233.184012,24.244 C234.384018,24.244 235.15801,23.9920025 235.506012,23.488 C235.854014,22.9839975 236.028012,21.832009 236.028012,20.032 L236.028012,18.232 C236.028012,16.4559911 235.854014,15.3160025 235.506012,14.812 C235.15801,14.3079975 234.384018,14.056 233.184012,14.056 L233.184012,13.3 L237.972012,12.4 C238.188013,12.8560023 238.392011,13.7199936 238.584012,14.992 C238.944014,14.2719964 239.484009,13.6600025 240.204012,13.156 C240.924016,12.6519975 241.644009,12.4 242.364012,12.4 C243.276017,12.4 243.97801,12.6399976 244.470012,13.12 C244.962015,13.6000024 245.208012,14.1039974 245.208012,14.632 Z M257.916013,14.344 C259.35602,15.6160064 260.076013,17.1639909 260.076013,18.988 C260.076013,20.8120091 259.36202,22.3719935 257.934013,23.668 C256.506006,24.9640065 254.796023,25.612 252.804013,25.612 C250.812003,25.612 249.10202,24.9640065 247.674013,23.668 C246.246006,22.3719935 245.532013,20.8120091 245.532013,18.988 C245.532013,17.1639909 246.246006,15.6100064 247.674013,14.326 C249.10202,13.0419936 250.812003,12.4 252.804013,12.4 C254.796023,12.4 256.500006,13.0479935 257.916013,14.344 Z M256.044013,22.768 C256.788017,21.7839951 257.160013,20.5240077 257.160013,18.988 C257.160013,17.4519923 256.788017,16.1980049 256.044013,15.226 C255.30001,14.2539951 254.22002,13.768 252.804013,13.768 C251.388006,13.768 250.308017,14.2599951 249.564013,15.244 C248.82001,16.2280049 248.448013,17.4759924 248.448013,18.988 C248.448013,20.5000076 248.82001,21.7479951 249.564013,22.732 C250.308017,23.7160049 251.388006,24.208 252.804013,24.208 C254.22002,24.208 255.30001,23.7280048 256.044013,22.768 Z M266.412014,14.992 C267.780021,13.2639914 269.448005,12.4 271.416014,12.4 C272.976022,12.4 274.14601,12.8919951 274.926014,13.876 C275.706018,14.8600049 276.096014,16.155992 276.096014,17.764 L276.096014,20.032 C276.096014,21.832009 276.270013,22.9839975 276.618014,23.488 C276.966016,23.9920025 277.740008,24.244 278.940014,24.244 L278.940014,25 L270.696014,25 L270.696014,24.244 C271.87202,24.244 272.640013,23.9860026 273.000014,23.47 C273.360016,22.9539974 273.540014,21.8080089 273.540014,20.032 L273.540014,17.944 C273.540014,15.3759872 272.544024,14.092 270.552014,14.092 C269.520009,14.092 268.572019,14.4519964 267.708014,15.172 C266.84401,15.8920036 266.412014,16.7319952 266.412014,17.692 L266.412014,20.032 C266.412014,21.8800092 266.556013,23.0439976 266.844014,23.524 C267.132016,24.0040024 267.828009,24.244 268.932014,24.244 L268.932014,25 L261.012014,25 L261.012014,24.244 C262.21202,24.244 262.986013,23.9920025 263.334014,23.488 C263.682016,22.9839975 263.856014,21.832009 263.856014,20.032 L263.856014,18.232 C263.856014,16.4559911 263.682016,15.3160025 263.334014,14.812 C262.986013,14.3079975 262.21202,14.056 261.012014,14.056 L261.012014,13.3 L265.800014,12.4 C266.016015,12.8560023 266.220013,13.7199936 266.412014,14.992 Z" id="Extra-Electron-Copy" fill="#524740"></path>
            </g>
            <polygon id="+-copy" fill="#524740" points="191.961999 191.844 191.961999 195.804 178.959999 195.804 178.959999 208.806 174.999999 208.806 174.999999 195.804 161.997999 195.804 161.997999 191.844 174.999999 191.844 174.999999 178.842 178.959999 178.842 178.959999 191.844"></polygon>
        </g>
        <path d="M15.628,44 L15.628,19.808 L23.836,19.808 C26.5480136,19.808 28.707992,20.5219929 30.316,21.95 C31.924008,23.3780071 32.728,25.1719892 32.728,27.332 C32.728,29.4680107 31.924008,31.2559928 30.316,32.696 C28.707992,34.1360072 26.5480136,34.856 23.836,34.856 L18.004,34.856 L18.004,44 L15.628,44 Z M18.004,32.588 L23.836,32.588 C25.7800097,32.588 27.3399941,32.090005 28.516,31.094 C29.6920059,30.097995 30.28,28.8440076 30.28,27.332 C30.28,25.8439926 29.6920059,24.596005 28.516,23.588 C27.3399941,22.579995 25.7800097,22.076 23.836,22.076 L18.004,22.076 L18.004,32.588 Z M43.2400006,25.712 C45.3280111,25.712 47.0799935,26.4619925 48.4960006,27.962 C49.9120077,29.4620075 50.6200006,31.2919892 50.6200006,33.452 L50.6200006,44 L48.2080006,44 L48.2080006,33.488 C48.2080006,31.9279922 47.6920058,30.6140053 46.6600006,29.546 C45.6279955,28.4779947 44.3560082,27.944 42.8440006,27.944 C41.3559932,27.944 40.0900058,28.4779947 39.0460006,29.546 C38.0019954,30.6140053 37.4800006,31.9159923 37.4800006,33.452 L37.4800006,44 L35.1040006,44 L35.1040006,17.216 L37.4800006,17.216 L37.4800006,28.664 C38.9440079,26.6959902 40.8639887,25.712 43.2400006,25.712 Z M67.6840013,41.552 C65.8839923,43.3760091 63.7000141,44.288 61.1320013,44.288 C58.5639884,44.288 56.3740103,43.3820091 54.5620013,41.57 C52.7499922,39.7579909 51.8440013,37.5680128 51.8440013,35 C51.8440013,32.4319872 52.7499922,30.2420091 54.5620013,28.43 C56.3740103,26.6179909 58.5639884,25.712 61.1320013,25.712 C63.7000141,25.712 65.8899922,26.6179909 67.7020013,28.43 C69.5140103,30.2420091 70.4200013,32.4319872 70.4200013,35 C70.4200013,37.5440127 69.5080104,39.7279909 67.6840013,41.552 Z M61.1680013,42.02 C63.112011,42.02 64.7499946,41.3420068 66.0820013,39.986 C67.4140079,38.6299932 68.0800013,36.9680098 68.0800013,35 C68.0800013,33.0319902 67.4140079,31.3640068 66.0820013,29.996 C64.7499946,28.6279932 63.112011,27.944 61.1680013,27.944 C59.2479917,27.944 57.616008,28.6279932 56.2720013,29.996 C54.9279945,31.3640068 54.2560013,33.0319902 54.2560013,35 C54.2560013,36.9680098 54.9279945,38.6299932 56.2720013,39.986 C57.616008,41.3420068 59.2479917,42.02 61.1680013,42.02 Z M78.2320019,44.288 C77.4159978,44.288 76.6240057,44.186001 75.8560019,43.982 C75.087998,43.777999 74.4460045,43.5380014 73.9300019,43.262 C73.4139993,42.9859986 72.9520039,42.7040014 72.5440019,42.416 C72.1359998,42.1279986 71.8360028,41.888001 71.6440019,41.696 L71.3560019,41.372 L73.0480019,39.932 C73.2160027,40.1000008 73.4500004,40.3039988 73.7500019,40.544 C74.0500034,40.7840012 74.6559973,41.107998 75.5680019,41.516 C76.4800064,41.924002 77.3799974,42.128 78.2680019,42.128 C79.5880085,42.128 80.6439979,41.8760025 81.4360019,41.372 C82.2280058,40.8679975 82.6240019,40.1600046 82.6240019,39.248 C82.6240019,38.5999968 82.2280058,38.0420023 81.4360019,37.574 C80.6439979,37.1059977 79.6840075,36.7040017 78.5560019,36.368 C77.4279962,36.0319983 76.2940076,35.660002 75.1540019,35.252 C74.0139962,34.843998 73.0480058,34.2680037 72.2560019,33.524 C71.4639979,32.7799963 71.0680019,31.8680054 71.0680019,30.788 C71.0680019,29.2999926 71.6259963,28.0820047 72.7420019,27.134 C73.8580075,26.1859953 75.507991,25.712 77.6920019,25.712 C78.9880084,25.712 80.2119961,25.9519976 81.3640019,26.432 C82.5160076,26.9120024 83.3439994,27.3919976 83.8480019,27.872 L84.6040019,28.592 L82.9120019,30.068 C82.744001,29.8999992 82.5100034,29.6960012 82.2100019,29.456 C81.9100004,29.2159988 81.3040064,28.892002 80.3920019,28.484 C79.4799973,28.075998 78.5680064,27.872 77.6560019,27.872 C76.3599954,27.872 75.3100059,28.1239975 74.5060019,28.628 C73.7019979,29.1320025 73.3000019,29.8399954 73.3000019,30.752 C73.3000019,31.4000032 73.6959979,31.9579977 74.4880019,32.426 C75.2800058,32.8940023 76.2399962,33.2959983 77.3680019,33.632 C78.4960075,33.9680017 79.6299962,34.333998 80.7700019,34.73 C81.9100076,35.126002 82.8759979,35.7019962 83.6680019,36.458 C84.4600058,37.2140038 84.8560019,38.1319946 84.8560019,39.212 C84.8560019,40.7240076 84.3040074,41.9479953 83.2000019,42.884 C82.0959964,43.8200047 80.4400129,44.288 78.2320019,44.288 Z M96.2320025,25.676 C98.8000154,25.676 100.989993,26.5819909 102.802003,28.394 C104.614012,30.2060091 105.520003,32.3959872 105.520003,34.964 C105.520003,37.5320128 104.614012,39.7219909 102.802003,41.534 C100.989993,43.3460091 98.8000154,44.252 96.2320025,44.252 C93.3519881,44.252 91.0000116,43.1600109 89.1760025,40.976 L89.1760025,52.748 L86.8000025,52.748 L86.8000025,25.964 L89.1760025,25.964 L89.1760025,28.916 C91.0240118,26.7559892 93.3759882,25.676 96.2320025,25.676 Z M91.2640025,39.968 C92.6080092,41.3120067 94.2399929,41.984 96.1600025,41.984 C98.0800121,41.984 99.7179957,41.3060068 101.074003,39.95 C102.430009,38.5939932 103.108003,36.9320098 103.108003,34.964 C103.108003,32.9959902 102.430009,31.3280068 101.074003,29.96 C99.7179957,28.5919932 98.0800121,27.908 96.1600025,27.908 C94.2399929,27.908 92.6080092,28.5919932 91.2640025,29.96 C89.9199958,31.3280068 89.2480025,32.9959902 89.2480025,34.964 C89.2480025,36.9320098 89.9199958,38.5999932 91.2640025,39.968 Z M115.420003,25.712 C117.508014,25.712 119.259996,26.4619925 120.676003,27.962 C122.09201,29.4620075 122.800003,31.2919892 122.800003,33.452 L122.800003,44 L120.388003,44 L120.388003,33.488 C120.388003,31.9279922 119.872008,30.6140053 118.840003,29.546 C117.807998,28.4779947 116.536011,27.944 115.024003,27.944 C113.535996,27.944 112.270008,28.4779947 111.226003,29.546 C110.181998,30.6140053 109.660003,31.9159923 109.660003,33.452 L109.660003,44 L107.284003,44 L107.284003,17.216 L109.660003,17.216 L109.660003,28.664 C111.12401,26.6959902 113.043991,25.712 115.420003,25.712 Z M139.864004,41.552 C138.063995,43.3760091 135.880017,44.288 133.312004,44.288 C130.743991,44.288 128.554013,43.3820091 126.742004,41.57 C124.929995,39.7579909 124.024004,37.5680128 124.024004,35 C124.024004,32.4319872 124.929995,30.2420091 126.742004,28.43 C128.554013,26.6179909 130.743991,25.712 133.312004,25.712 C135.880017,25.712 138.069995,26.6179909 139.882004,28.43 C141.694013,30.2420091 142.600004,32.4319872 142.600004,35 C142.600004,37.5440127 141.688013,39.7279909 139.864004,41.552 Z M133.348004,42.02 C135.292013,42.02 136.929997,41.3420068 138.262004,39.986 C139.59401,38.6299932 140.260004,36.9680098 140.260004,35 C140.260004,33.0319902 139.59401,31.3640068 138.262004,29.996 C136.929997,28.6279932 135.292013,27.944 133.348004,27.944 C131.427994,27.944 129.79601,28.6279932 128.452004,29.996 C127.107997,31.3640068 126.436004,33.0319902 126.436004,35 C126.436004,36.9680098 127.107997,38.6299932 128.452004,39.986 C129.79601,41.3420068 131.427994,42.02 133.348004,42.02 Z M152.140004,25.712 C153.412011,25.712 154.575999,26.0239969 155.632004,26.648 L154.804004,29.024 C153.795999,28.2799963 152.77601,27.908 151.744004,27.908 C150.231997,27.908 148.96001,28.4419947 147.928004,29.51 C146.895999,30.5780053 146.380004,31.8919922 146.380004,33.452 L146.380004,44 L144.004004,44 L144.004004,26 L146.380004,26 L146.380004,28.664 C147.844012,26.6959902 149.763993,25.712 152.140004,25.712 Z M169.996005,41.552 C168.195996,43.3760091 166.012018,44.288 163.444005,44.288 C160.875992,44.288 158.686014,43.3820091 156.874005,41.57 C155.061996,39.7579909 154.156005,37.5680128 154.156005,35 C154.156005,32.4319872 155.061996,30.2420091 156.874005,28.43 C158.686014,26.6179909 160.875992,25.712 163.444005,25.712 C166.012018,25.712 168.201996,26.6179909 170.014005,28.43 C171.826014,30.2420091 172.732005,32.4319872 172.732005,35 C172.732005,37.5440127 171.820014,39.7279909 169.996005,41.552 Z M163.480005,42.02 C165.424015,42.02 167.061998,41.3420068 168.394005,39.986 C169.726012,38.6299932 170.392005,36.9680098 170.392005,35 C170.392005,33.0319902 169.726012,31.3640068 168.394005,29.996 C167.061998,28.6279932 165.424015,27.944 163.480005,27.944 C161.559995,27.944 159.928012,28.6279932 158.584005,29.996 C157.239998,31.3640068 156.568005,33.0319902 156.568005,35 C156.568005,36.9680098 157.239998,38.6299932 158.584005,39.986 C159.928012,41.3420068 161.559995,42.02 163.480005,42.02 Z M187.060006,26 L189.436006,26 L189.436006,44 L187.060006,44 L187.060006,41.336 C185.595998,43.3040098 183.676018,44.288 181.300006,44.288 C179.211995,44.288 177.460013,43.5500074 176.044006,42.074 C174.627999,40.5979926 173.920006,38.7800108 173.920006,36.62 L173.920006,26 L176.368006,26 L176.368006,36.548 C176.368006,38.0840077 176.884001,39.3859947 177.916006,40.454 C178.948011,41.5220053 180.207998,42.056 181.696006,42.056 C183.208013,42.056 184.480001,41.5220053 185.512006,40.454 C186.544011,39.3859947 187.060006,38.0840077 187.060006,36.548 L187.060006,26 Z M198.544006,44.288 C197.728002,44.288 196.93601,44.186001 196.168006,43.982 C195.400002,43.777999 194.758009,43.5380014 194.242006,43.262 C193.726004,42.9859986 193.264008,42.7040014 192.856006,42.416 C192.448004,42.1279986 192.148007,41.888001 191.956006,41.696 L191.668006,41.372 L193.360006,39.932 C193.528007,40.1000008 193.762005,40.3039988 194.062006,40.544 C194.362008,40.7840012 194.968002,41.107998 195.880006,41.516 C196.792011,41.924002 197.692002,42.128 198.580006,42.128 C199.900013,42.128 200.956002,41.8760025 201.748006,41.372 C202.54001,40.8679975 202.936006,40.1600046 202.936006,39.248 C202.936006,38.5999968 202.54001,38.0420023 201.748006,37.574 C200.956002,37.1059977 199.996012,36.7040017 198.868006,36.368 C197.740001,36.0319983 196.606012,35.660002 195.466006,35.252 C194.326001,34.843998 193.36001,34.2680037 192.568006,33.524 C191.776002,32.7799963 191.380006,31.8680054 191.380006,30.788 C191.380006,29.2999926 191.938001,28.0820047 193.054006,27.134 C194.170012,26.1859953 195.819995,25.712 198.004006,25.712 C199.300013,25.712 200.524001,25.9519976 201.676006,26.432 C202.828012,26.9120024 203.656004,27.3919976 204.160006,27.872 L204.916006,28.592 L203.224006,30.068 C203.056005,29.8999992 202.822008,29.6960012 202.522006,29.456 C202.222005,29.2159988 201.616011,28.892002 200.704006,28.484 C199.792002,28.075998 198.880011,27.872 197.968006,27.872 C196.672,27.872 195.62201,28.1239975 194.818006,28.628 C194.014002,29.1320025 193.612006,29.8399954 193.612006,30.752 C193.612006,31.4000032 194.008002,31.9579977 194.800006,32.426 C195.59201,32.8940023 196.552001,33.2959983 197.680006,33.632 C198.808012,33.9680017 199.942001,34.333998 201.082006,34.73 C202.222012,35.126002 203.188002,35.7019962 203.980006,36.458 C204.77201,37.2140038 205.168006,38.1319946 205.168006,39.212 C205.168006,40.7240076 204.616012,41.9479953 203.512006,42.884 C202.408001,43.8200047 200.752017,44.288 198.544006,44.288 Z M215.860007,32.984 L206.176007,32.984 L206.176007,30.824 L215.860007,30.824 L215.860007,32.984 Z M218.020008,44 L218.020008,19.808 L223.492008,19.808 C227.476027,19.808 230.643996,20.9599885 232.996008,23.264 C235.348019,25.5680115 236.524008,28.4479827 236.524008,31.904 C236.524008,35.3360172 235.342019,38.2099884 232.978008,40.526 C230.613996,42.8420116 227.452027,44 223.492008,44 L218.020008,44 Z M220.396008,41.732 L223.492008,41.732 C226.660023,41.732 229.191998,40.8020093 231.088008,38.942 C232.984017,37.0819907 233.932008,34.7360142 233.932008,31.904 C233.932008,29.0719858 232.984017,26.7260093 231.088008,24.866 C229.191998,23.0059907 226.660023,22.076 223.492008,22.076 L220.396008,22.076 L220.396008,41.732 Z M252.616008,41.552 C250.815999,43.3760091 248.632021,44.288 246.064008,44.288 C243.495995,44.288 241.306017,43.3820091 239.494008,41.57 C237.681999,39.7579909 236.776008,37.5680128 236.776008,35 C236.776008,32.4319872 237.681999,30.2420091 239.494008,28.43 C241.306017,26.6179909 243.495995,25.712 246.064008,25.712 C248.632021,25.712 250.821999,26.6179909 252.634008,28.43 C254.446017,30.2420091 255.352008,32.4319872 255.352008,35 C255.352008,37.5440127 254.440017,39.7279909 252.616008,41.552 Z M246.100008,42.02 C248.044018,42.02 249.682002,41.3420068 251.014008,39.986 C252.346015,38.6299932 253.012008,36.9680098 253.012008,35 C253.012008,33.0319902 252.346015,31.3640068 251.014008,29.996 C249.682002,28.6279932 248.044018,27.944 246.100008,27.944 C244.179999,27.944 242.548015,28.6279932 241.204008,29.996 C239.860001,31.3640068 239.188008,33.0319902 239.188008,35 C239.188008,36.9680098 239.860001,38.6299932 241.204008,39.986 C242.548015,41.3420068 244.179999,42.02 246.100008,42.02 Z M266.656009,25.676 C269.224022,25.676 271.414,26.5819909 273.226009,28.394 C275.038018,30.2060091 275.944009,32.3959872 275.944009,34.964 C275.944009,37.5320128 275.038018,39.7219909 273.226009,41.534 C271.414,43.3460091 269.224022,44.252 266.656009,44.252 C263.775994,44.252 261.424018,43.1600109 259.600009,40.976 L259.600009,52.748 L257.224009,52.748 L257.224009,25.964 L259.600009,25.964 L259.600009,28.916 C261.448018,26.7559892 263.799995,25.676 266.656009,25.676 Z M261.688009,39.968 C263.032016,41.3120067 264.663999,41.984 266.584009,41.984 C268.504018,41.984 270.142002,41.3060068 271.498009,39.95 C272.854016,38.5939932 273.532009,36.9320098 273.532009,34.964 C273.532009,32.9959902 272.854016,31.3280068 271.498009,29.96 C270.142002,28.5919932 268.504018,27.908 266.584009,27.908 C264.663999,27.908 263.032016,28.5919932 261.688009,29.96 C260.344002,31.3280068 259.672009,32.9959902 259.672009,34.964 C259.672009,36.9320098 260.344002,38.5999932 261.688009,39.968 Z M285.700009,41.912 C287.308017,41.912 288.748003,41.4560046 290.020009,40.544 C291.292016,39.6319954 292.156007,38.5640061 292.612009,37.34 L294.628009,38.06 C294.076007,39.5720076 293.002017,40.9639936 291.406009,42.236 C289.810001,43.5080064 287.90802,44.1320001 285.700009,44.108 C283.683999,44.108 281.842018,43.4840062 280.174009,42.236 C278.506001,40.9879938 277.372012,39.3920097 276.772009,37.448 C276.532008,36.655996 276.412009,35.7920047 276.412009,34.856 C276.412009,32.263987 277.312,30.068009 279.112009,28.268 C280.912018,26.467991 283.107996,25.5560001 285.700009,25.532 C288.052021,25.5560001 290.104001,26.3479922 291.856009,27.908 C293.608018,29.4680078 294.616008,31.3999885 294.880009,33.704 C294.90401,33.8240006 294.916009,33.979999 294.916009,34.172 L279.184009,37.016 C279.592011,38.4560072 280.408003,39.6379954 281.632009,40.562 C282.856016,41.4860046 284.212002,41.9360001 285.700009,41.912 Z M285.484009,27.728 C283.684,27.7520001 282.142016,28.3999936 280.858009,29.672 C279.574003,30.9440064 278.88401,32.4679911 278.788009,34.244 C278.788009,34.3160004 278.794009,34.4419991 278.806009,34.622 C278.81801,34.8020009 278.824009,34.9519994 278.824009,35.072 L292.216009,32.66 C291.760007,31.1959927 290.908016,30.0020046 289.660009,29.078 C288.412003,28.1539954 287.020017,27.7039999 285.484009,27.728 Z M312.05201,17.216 L314.42801,17.216 L314.42801,44 L312.05201,44 L312.05201,41.084 C310.204001,43.2200107 307.864024,44.288 305.03201,44.288 C302.463997,44.288 300.274019,43.3820091 298.46201,41.57 C296.650001,39.7579909 295.74401,37.5680128 295.74401,35 C295.74401,32.4319872 296.650001,30.2420091 298.46201,28.43 C300.274019,26.6179909 302.463997,25.712 305.03201,25.712 C307.888024,25.712 310.228001,26.7799893 312.05201,28.916 L312.05201,17.216 Z M300.13601,40.004 C301.480017,41.3480067 303.124,42.02 305.06801,42.02 C307.01202,42.02 308.650003,41.3420068 309.98201,39.986 C311.314017,38.6299932 311.98001,36.9680098 311.98001,35 C311.98001,33.0319902 311.314017,31.3700068 309.98201,30.014 C308.650003,28.6579932 307.01202,27.98 305.06801,27.98 C303.124,27.98 301.480017,28.6579932 300.13601,30.014 C298.792003,31.3700068 298.12001,33.0319902 298.12001,35 C298.12001,36.9680098 298.792003,38.6359932 300.13601,40.004 Z M316.228011,45.728 L317.848011,40.004 L320.296011,40.004 L318.172011,45.728 L316.228011,45.728 Z M345.640012,19.808 L348.016012,19.808 L348.016012,44 L345.568012,44 L332.068012,23.444 L332.068012,44 L329.692012,44 L329.692012,19.808 L332.104012,19.808 L345.640012,40.4 L345.640012,19.808 Z M359.860013,32.984 L350.176013,32.984 L350.176013,30.824 L359.860013,30.824 L359.860013,32.984 Z M374.296013,19.808 L374.296013,22.184 L365.692013,22.184 L365.692013,44 L363.316013,44 L363.316013,22.184 L354.712013,22.184 L354.712013,19.808 L374.296013,19.808 Z M382.936014,26 L385.312014,26 L375.484014,51.668 L373.108014,51.668 L376.888014,41.804 L370.228014,26 L372.604014,26 L378.004014,38.852 L382.936014,26 Z M396.364014,25.676 C398.932027,25.676 401.122005,26.5819909 402.934014,28.394 C404.746024,30.2060091 405.652014,32.3959872 405.652014,34.964 C405.652014,37.5320128 404.746024,39.7219909 402.934014,41.534 C401.122005,43.3460091 398.932027,44.252 396.364014,44.252 C393.484,44.252 391.132024,43.1600109 389.308014,40.976 L389.308014,52.748 L386.932014,52.748 L386.932014,25.964 L389.308014,25.964 L389.308014,28.916 C391.156024,26.7559892 393.508,25.676 396.364014,25.676 Z M391.396014,39.968 C392.740021,41.3120067 394.372005,41.984 396.292014,41.984 C398.212024,41.984 399.850008,41.3060068 401.206014,39.95 C402.562021,38.5939932 403.240014,36.9320098 403.240014,34.964 C403.240014,32.9959902 402.562021,31.3280068 401.206014,29.96 C399.850008,28.5919932 398.212024,27.908 396.292014,27.908 C394.372005,27.908 392.740021,28.5919932 391.396014,29.96 C390.052008,31.3280068 389.380014,32.9959902 389.380014,34.964 C389.380014,36.9320098 390.052008,38.5999932 391.396014,39.968 Z M415.408015,41.912 C417.016023,41.912 418.456009,41.4560046 419.728015,40.544 C421.000021,39.6319954 421.864013,38.5640061 422.320015,37.34 L424.336015,38.06 C423.784012,39.5720076 422.710023,40.9639936 421.114015,42.236 C419.518007,43.5080064 417.616026,44.1320001 415.408015,44.108 C413.392005,44.108 411.550023,43.4840062 409.882015,42.236 C408.214007,40.9879938 407.080018,39.3920097 406.480015,37.448 C406.240014,36.655996 406.120015,35.7920047 406.120015,34.856 C406.120015,32.263987 407.020006,30.068009 408.820015,28.268 C410.620024,26.467991 412.816002,25.5560001 415.408015,25.532 C417.760027,25.5560001 419.812006,26.3479922 421.564015,27.908 C423.316024,29.4680078 424.324014,31.3999885 424.588015,33.704 C424.612015,33.8240006 424.624015,33.979999 424.624015,34.172 L408.892015,37.016 C409.300017,38.4560072 410.116009,39.6379954 411.340015,40.562 C412.564021,41.4860046 413.920008,41.9360001 415.408015,41.912 Z M415.192015,27.728 C413.392006,27.7520001 411.850022,28.3999936 410.566015,29.672 C409.282009,30.9440064 408.592016,32.4679911 408.496015,34.244 C408.496015,34.3160004 408.502015,34.4419991 408.514015,34.622 C408.526015,34.8020009 408.532015,34.9519994 408.532015,35.072 L421.924015,32.66 C421.468013,31.1959927 420.616021,30.0020046 419.368015,29.078 C418.120009,28.1539954 416.728023,27.7039999 415.192015,27.728 Z M441.652016,44.288 C440.044008,44.288 438.490024,43.8800041 436.990016,43.064 C435.490009,42.2479959 434.35602,41.4320041 433.588016,40.616 L435.244016,38.996 C435.844019,39.6440032 436.73201,40.3099966 437.908016,40.994 C439.084022,41.6780034 440.33201,42.02 441.652016,42.02 C443.260024,42.02 444.526012,41.6660035 445.450016,40.958 C446.374021,40.2499965 446.836016,39.2840061 446.836016,38.06 C446.836016,37.0279948 446.386021,36.1280038 445.486016,35.36 C444.586012,34.5919962 443.494023,33.9440026 442.210016,33.416 C440.92601,32.8879974 439.636023,32.3300029 438.340016,31.742 C437.04401,31.1539971 435.946021,30.356005 435.046016,29.348 C434.146012,28.339995 433.696016,27.1520068 433.696016,25.784 C433.696016,24.0319912 434.35601,22.556006 435.676016,21.356 C436.996023,20.155994 438.844004,19.556 441.220016,19.556 C442.828024,19.556 444.382009,19.9639959 445.882016,20.78 C447.382024,21.5960041 448.516013,22.4119959 449.284016,23.228 L447.628016,24.848 C447.004013,24.1759966 446.104022,23.5040034 444.928016,22.832 C443.75201,22.1599966 442.516023,21.824 441.220016,21.824 C439.612008,21.824 438.346021,22.1779965 437.422016,22.886 C436.498012,23.5940035 436.036016,24.5599939 436.036016,25.784 C436.036016,26.8160052 436.486012,27.7219961 437.386016,28.502 C438.286021,29.2820039 439.37801,29.9359974 440.662016,30.464 C441.946023,30.9920026 443.23601,31.5439971 444.532016,32.12 C445.828023,32.6960029 446.926012,33.487995 447.826016,34.496 C448.726021,35.504005 449.176016,36.6919932 449.176016,38.06 C449.176016,39.8120088 448.516023,41.287994 447.196016,42.488 C445.87601,43.688006 444.028028,44.288 441.652016,44.288 Z M454.000017,20.6 C453.736016,20.8880014 453.400019,21.032 452.992017,21.032 C452.584015,21.032 452.242018,20.8880014 451.966017,20.6 C451.690016,20.3119986 451.552017,19.9760019 451.552017,19.592 C451.552017,19.2079981 451.690016,18.8720014 451.966017,18.584 C452.242018,18.2959986 452.584015,18.152 452.992017,18.152 C453.400019,18.152 453.742016,18.2959986 454.018017,18.584 C454.294018,18.8720014 454.432017,19.2079981 454.432017,19.592 C454.432017,19.9760019 454.288018,20.3119986 454.000017,20.6 Z M451.804017,44 L451.804017,26 L454.180017,26 L454.180017,44 L451.804017,44 Z M457.528018,44 L457.528018,17.216 L459.904018,17.216 L459.904018,44 L457.528018,44 Z M465.448018,20.6 C465.184017,20.8880014 464.84802,21.032 464.440018,21.032 C464.032016,21.032 463.69002,20.8880014 463.414018,20.6 C463.138017,20.3119986 463.000018,19.9760019 463.000018,19.592 C463.000018,19.2079981 463.138017,18.8720014 463.414018,18.584 C463.69002,18.2959986 464.032016,18.152 464.440018,18.152 C464.84802,18.152 465.190017,18.2959986 465.466018,18.584 C465.74202,18.8720014 465.880018,19.2079981 465.880018,19.592 C465.880018,19.9760019 465.73602,20.3119986 465.448018,20.6 Z M463.252018,44 L463.252018,26 L465.628018,26 L465.628018,44 L463.252018,44 Z M476.968019,44.288 C474.400006,44.288 472.210028,43.3820091 470.398019,41.57 C468.58601,39.7579909 467.680019,37.5680128 467.680019,35 C467.680019,32.4319872 468.58601,30.2420091 470.398019,28.43 C472.210028,26.6179909 474.400006,25.712 476.968019,25.712 C478.600027,25.712 480.118012,26.113996 481.522019,26.918 C482.926026,27.722004 484.036015,28.7959933 484.852019,30.14 L482.692019,31.184 C482.044016,30.1999951 481.216024,29.4200029 480.208019,28.844 C479.200014,28.2679971 478.120025,27.98 476.968019,27.98 C475.024009,27.98 473.386026,28.6579932 472.054019,30.014 C470.722012,31.3700068 470.056019,33.0319902 470.056019,35 C470.056019,36.9680098 470.722012,38.6299932 472.054019,39.986 C473.386026,41.3420068 475.024009,42.02 476.968019,42.02 C478.120025,42.02 479.200014,41.7320029 480.208019,41.156 C481.216024,40.5799971 482.044016,39.8000049 482.692019,38.816 L484.852019,39.86 C484.036015,41.2040067 482.926026,42.277996 481.522019,43.082 C480.118012,43.886004 478.600027,44.288 476.968019,44.288 Z M501.08802,41.552 C499.288011,43.3760091 497.104032,44.288 494.53602,44.288 C491.968007,44.288 489.778029,43.3820091 487.96602,41.57 C486.15401,39.7579909 485.24802,37.5680128 485.24802,35 C485.24802,32.4319872 486.15401,30.2420091 487.96602,28.43 C489.778029,26.6179909 491.968007,25.712 494.53602,25.712 C497.104032,25.712 499.29401,26.6179909 501.10602,28.43 C502.918029,30.2420091 503.82402,32.4319872 503.82402,35 C503.82402,37.5440127 502.912029,39.7279909 501.08802,41.552 Z M494.57202,42.02 C496.516029,42.02 498.154013,41.3420068 499.48602,39.986 C500.818026,38.6299932 501.48402,36.9680098 501.48402,35 C501.48402,33.0319902 500.818026,31.3640068 499.48602,29.996 C498.154013,28.6279932 496.516029,27.944 494.57202,27.944 C492.65201,27.944 491.020026,28.6279932 489.67602,29.996 C488.332013,31.3640068 487.66002,33.0319902 487.66002,35 C487.66002,36.9680098 488.332013,38.6299932 489.67602,39.986 C491.020026,41.3420068 492.65201,42.02 494.57202,42.02 Z M513.36402,25.712 C515.452031,25.712 517.204013,26.4499926 518.62002,27.926 C520.036027,29.4020074 520.74402,31.2199892 520.74402,33.38 L520.74402,44 L518.33202,44 L518.33202,33.452 C518.33202,31.9159923 517.810025,30.6080054 516.76602,29.528 C515.722015,28.4479946 514.456028,27.908 512.96802,27.908 C511.480013,27.908 510.214025,28.4479946 509.17002,29.528 C508.126015,30.6080054 507.60402,31.9159923 507.60402,33.452 L507.60402,44 L505.22802,44 L505.22802,26 L507.60402,26 L507.60402,28.664 C509.068027,26.6959902 510.988008,25.712 513.36402,25.712 Z M541.876021,44.288 C538.324004,44.288 535.492032,43.1060118 533.380021,40.742 C531.268011,38.3779882 530.212021,35.4440175 530.212021,31.94 C530.212021,28.4119824 531.268011,25.4660118 533.380021,23.102 C535.492032,20.7379882 538.324004,19.556 541.876021,19.556 C544.228033,19.556 546.274013,20.0959946 548.014021,21.176 C549.75403,22.2560054 551.104017,23.7319906 552.064021,25.604 L549.832021,26.9 C549.064018,25.3399922 547.990028,24.1040046 546.610021,23.192 C545.230015,22.2799954 543.65203,21.824 541.876021,21.824 C539.140008,21.824 536.95003,22.7779905 535.306021,24.686 C533.662013,26.5940095 532.840021,29.0119854 532.840021,31.94 C532.840021,34.8440145 533.662013,37.2559904 535.306021,39.176 C536.95003,41.0960096 539.140008,42.056 541.876021,42.056 C543.67603,42.056 545.266015,41.5940046 546.646021,40.67 C548.026028,39.7459954 549.088018,38.5040078 549.832021,36.944 L552.064021,38.276 C551.104017,40.1480094 549.75403,41.6179947 548.014021,42.686 C546.274013,43.7540053 544.228033,44.288 541.876021,44.288 Z M562.144022,25.712 C563.416028,25.712 564.580017,26.0239969 565.636022,26.648 L564.808022,29.024 C563.800017,28.2799963 562.780027,27.908 561.748022,27.908 C560.236014,27.908 558.964027,28.4419947 557.932022,29.51 C556.900017,30.5780053 556.384022,31.8919922 556.384022,33.452 L556.384022,44 L554.008022,44 L554.008022,26 L556.384022,26 L556.384022,28.664 C557.848029,26.6959902 559.76801,25.712 562.144022,25.712 Z M578.668023,26 L581.044023,26 L571.216023,51.668 L568.840023,51.668 L572.620023,41.804 L565.960023,26 L568.336023,26 L573.736023,38.852 L578.668023,26 Z M587.740023,44.288 C586.924019,44.288 586.132027,44.186001 585.364023,43.982 C584.596019,43.777999 583.954026,43.5380014 583.438023,43.262 C582.922021,42.9859986 582.460025,42.7040014 582.052023,42.416 C581.644021,42.1279986 581.344024,41.888001 581.152023,41.696 L580.864023,41.372 L582.556023,39.932 C582.724024,40.1000008 582.958022,40.3039988 583.258023,40.544 C583.558025,40.7840012 584.164019,41.107998 585.076023,41.516 C585.988028,41.924002 586.888019,42.128 587.776023,42.128 C589.09603,42.128 590.152019,41.8760025 590.944023,41.372 C591.736027,40.8679975 592.132023,40.1600046 592.132023,39.248 C592.132023,38.5999968 591.736027,38.0420023 590.944023,37.574 C590.152019,37.1059977 589.192029,36.7040017 588.064023,36.368 C586.936018,36.0319983 585.802029,35.660002 584.662023,35.252 C583.522018,34.843998 582.556027,34.2680037 581.764023,33.524 C580.972019,32.7799963 580.576023,31.8680054 580.576023,30.788 C580.576023,29.2999926 581.134018,28.0820047 582.250023,27.134 C583.366029,26.1859953 585.016012,25.712 587.200023,25.712 C588.49603,25.712 589.720018,25.9519976 590.872023,26.432 C592.024029,26.9120024 592.852021,27.3919976 593.356023,27.872 L594.112023,28.592 L592.420023,30.068 C592.252022,29.8999992 592.018025,29.6960012 591.718023,29.456 C591.418022,29.2159988 590.812028,28.892002 589.900023,28.484 C588.988019,28.075998 588.076028,27.872 587.164023,27.872 C585.868017,27.872 584.818027,28.1239975 584.014023,28.628 C583.210019,29.1320025 582.808023,29.8399954 582.808023,30.752 C582.808023,31.4000032 583.204019,31.9579977 583.996023,32.426 C584.788027,32.8940023 585.748018,33.2959983 586.876023,33.632 C588.004029,33.9680017 589.138018,34.333998 590.278023,34.73 C591.418029,35.126002 592.384019,35.7019962 593.176023,36.458 C593.968027,37.2140038 594.364023,38.1319946 594.364023,39.212 C594.364023,40.7240076 593.812029,41.9479953 592.708023,42.884 C591.604018,43.8200047 589.948034,44.288 587.740023,44.288 Z M605.704024,39.968 L606.892024,41.804 C606.748023,41.996001 606.556025,42.2239987 606.316024,42.488 C606.076023,42.7520013 605.536028,43.1179977 604.696024,43.586 C603.85602,44.0540023 602.992028,44.288 602.104024,44.288 C600.592016,44.288 599.326029,43.8380045 598.306024,42.938 C597.286019,42.0379955 596.776024,40.7360085 596.776024,39.032 L596.776024,28.16 L593.896024,28.16 L593.896024,25.964 L596.776024,25.964 L596.776024,20.276 L599.152024,19.988 L599.152024,25.964 L604.588024,25.964 L604.588024,28.16 L599.152024,28.16 L599.152024,38.492 C599.152024,39.5960055 599.49402,40.4719968 600.178024,41.12 C600.862027,41.7680032 601.648019,42.092 602.536024,42.092 C603.088027,42.092 603.628021,41.9240017 604.156024,41.588 C604.684027,41.2519983 605.074023,40.9220016 605.326024,40.598 C605.578025,40.2739984 605.704024,40.0640005 605.704024,39.968 Z M622.228025,26 L624.604025,26 L624.604025,44 L622.228025,44 L622.228025,41.084 C620.380015,43.2200107 618.040039,44.288 615.208025,44.288 C612.640012,44.288 610.450034,43.3820091 608.638025,41.57 C606.826015,39.7579909 605.920025,37.5680128 605.920025,35 C605.920025,32.4319872 606.826015,30.2420091 608.638025,28.43 C610.450034,26.6179909 612.640012,25.712 615.208025,25.712 C618.064039,25.712 620.404015,26.7799893 622.228025,28.916 L622.228025,26 Z M615.244025,42.02 C617.188034,42.02 618.826018,41.3420068 620.158025,39.986 C621.490031,38.6299932 622.156025,36.9680098 622.156025,35 C622.156025,33.0319902 621.490031,31.3700068 620.158025,30.014 C618.826018,28.6579932 617.188034,27.98 615.244025,27.98 C613.324015,27.98 611.686031,28.6579932 610.330025,30.014 C608.974018,31.3700068 608.296025,33.0319902 608.296025,35 C608.296025,36.9680098 608.974018,38.6299932 610.330025,39.986 C611.686031,41.3420068 613.324015,42.02 615.244025,42.02 Z M627.520025,44 L627.520025,17.216 L629.896025,17.216 L629.896025,44 L627.520025,44 Z" id="Phosphorous-Doped,-N-Copy" fill="#23ABE3"></path>
    </g>
</svg>