<?xml version="1.0" encoding="UTF-8"?>
<svg width="900px" height="290px" viewBox="0 0 900 290" version="1.1" xmlns="http://www.w3.org/2000/svg" xmlns:xlink="http://www.w3.org/1999/xlink">
    <!-- Generator: Sketch 52.5 (67469) - http://www.bohemiancoding.com/sketch -->
    <title>N-Type_Silicon_Crystal_Lattice</title>
    <desc>Created with Sketch.</desc>
    <g id="N-Type_Silicon_Crystal_Lattice" stroke="none" stroke-width="1" fill="none" fill-rule="evenodd">
        <rect id="Rectangle" stroke="#3D3530" stroke-width="2" fill="#EEEEEE" x="1" y="1" width="898" height="428"></rect>
        <rect id="Rectangle-Copy" stroke="#3D3530" stroke-width="2" x="1" y="227" width="898" height="62"></rect>
        <g id="Illustration" transform="translate(60.000000, 36.000000)">
            <g id="Lattice">
                <g>
                    <rect id="Rectangle" stroke="#999999" stroke-width="2" fill="#7D7570" x="1" y="1" width="158" height="158"></rect>
                    <circle id="Oval-Copy-3" fill="#252525" cx="20.5" cy="18.5" r="10.5"></circle>
                    <circle id="Oval-Copy-5" fill="#252525" cx="20.5" cy="58.5" r="10.5"></circle>
                    <circle id="Oval-Copy-6" fill="#252525" cx="20.5" cy="98.5" r="10.5"></circle>
                    <circle id="Oval-Copy-10" fill="#252525" cx="50.5" cy="38.5" r="10.5"></circle>
                    <circle id="Oval-Copy-9" fill="#D7E465" cx="50.5" cy="78.5" r="10.5"></circle>
                    <circle id="Oval-Copy-8" fill="#252525" cx="50.5" cy="118.5" r="10.5"></circle>
                    <circle id="Oval-Copy-26" fill="#D7E465" cx="110.5" cy="38.5" r="10.5"></circle>
                    <circle id="Oval-Copy-25" fill="#252525" cx="110.5" cy="78.5" r="10.5"></circle>
                    <circle id="Oval-Copy-24" fill="#252525" cx="110.5" cy="118.5" r="10.5"></circle>
                    <circle id="Oval-Copy-7" fill="#D7E465" cx="20.5" cy="138.5" r="10.5"></circle>
                    <circle id="Oval-Copy-23" fill="#252525" cx="80.5" cy="18.5" r="10.5"></circle>
                    <circle id="Oval-Copy-22" fill="#252525" cx="80.5" cy="58.5" r="10.5"></circle>
                    <circle id="Oval-Copy-21" fill="#D7E465" cx="80.5" cy="98.5" r="10.5"></circle>
                    <circle id="Oval-Copy-20" fill="#252525" cx="80.5" cy="138.5" r="10.5"></circle>
                    <circle id="Oval-Copy-30" fill="#252525" cx="140.5" cy="18.5" r="10.5"></circle>
                    <circle id="Oval-Copy-29" fill="#252525" cx="140.5" cy="58.5" r="10.5"></circle>
                    <circle id="Oval-Copy-28" fill="#252525" cx="140.5" cy="98.5" r="10.5"></circle>
                    <circle id="Oval-Copy-27" fill="#252525" cx="140.5" cy="138.5" r="10.5"></circle>
                    <g id="Little-ones" transform="translate(4.000000, 8.000000)" fill="#EF7D3B">
                        <circle id="Oval-Copy-31" cx="25.25" cy="68.25" r="3.25"></circle>
                        <circle id="Oval-Copy-32" cx="38.25" cy="47.25" r="3.25"></circle>
                        <circle id="Oval-Copy-33" cx="28.25" cy="19.25" r="3.25"></circle>
                        <circle id="Oval-Copy-34" cx="69.25" cy="27.25" r="3.25"></circle>
                        <circle id="Oval-Copy-35" cx="79.25" cy="67.25" r="3.25"></circle>
                        <circle id="Oval-Copy-36" cx="60.25" cy="88.25" r="3.25"></circle>
                        <circle id="Oval-Copy-37" cx="35.25" cy="99.25" r="3.25"></circle>
                        <circle id="Oval-Copy-38" cx="31.25" cy="141.25" r="3.25"></circle>
                        <circle id="Oval-Copy-39" cx="3.25" cy="108.25" r="3.25"></circle>
                        <circle id="Oval-Copy-40" cx="55.25" cy="126.25" r="3.25"></circle>
                        <circle id="Oval-Copy-41" cx="115.25" cy="126.25" r="3.25"></circle>
                        <circle id="Oval-Copy-42" cx="90.25" cy="107.25" r="3.25"></circle>
                        <circle id="Oval-Copy-43" cx="90.25" cy="137.25" r="3.25"></circle>
                        <circle id="Oval-Copy-44" cx="130.25" cy="146.25" r="3.25"></circle>
                        <circle id="Oval-Copy-45" cx="150.25" cy="96.25" r="3.25"></circle>
                        <circle id="Oval-Copy-46" cx="119.25" cy="82.25" r="3.25"></circle>
                        <circle id="Oval-Copy-47" cx="129.25" cy="37.25" r="3.25"></circle>
                        <circle id="Oval-Copy-48" cx="119.25" cy="3.25" r="3.25"></circle>
                        <circle id="Oval-Copy-49" cx="96.25" cy="18.25" r="3.25"></circle>
                    </g>
                </g>
            </g>
            <g id="Index" transform="translate(201.000000, 15.000000)">
                <g id="Free-Hole" transform="translate(7.000000, 70.000000)">
                    <circle id="Oval-Copy-11" fill="#EF7D3B" cx="3.25" cy="12.25" r="3.25"></circle>
                    <path d="M31.112,3.488 L31.112,8.936 L32.312,8.936 C33.512006,8.936 34.2759984,8.80400132 34.604,8.54 C34.9320016,8.27599868 35.096,7.64000504 35.096,6.632 L35.6,6.632 L35.6,12.128 L35.096,12.128 C35.096,11.119995 34.9320016,10.4840013 34.604,10.22 C34.2759984,9.95599868 33.512006,9.824 32.312,9.824 L31.112,9.824 L31.112,13.688 C31.112,14.888006 31.2439987,15.6559983 31.508,15.992 C31.7720013,16.3280017 32.399995,16.496 33.392,16.496 L33.392,17 L26.912,17 L26.912,16.496 C27.904005,16.496 28.5319987,16.3280017 28.796,15.992 C29.0600013,15.6559983 29.192,14.888006 29.192,13.688 L29.192,5.888 C29.192,4.687994 29.0600013,3.92400164 28.796,3.596 C28.5319987,3.26799836 27.904005,3.104 26.912,3.104 L26.912,2.6 L38.264,2.6 L38.456,5.768 L37.952,5.768 L37.832,5.288 C37.6559991,4.59999656 37.4080016,4.12800128 37.088,3.872 C36.7679984,3.61599872 36.0960051,3.488 35.072,3.488 L31.112,3.488 Z M47.616,10.088 C47.616,10.8400038 47.2960032,11.216 46.656,11.216 C46.4319989,11.216 46.2360008,11.1280009 46.068,10.952 C45.8999992,10.7759991 45.816,10.5760011 45.816,10.352 C45.816,9.82399736 45.5600026,9.56 45.048,9.56 C44.6799982,9.56 44.2800022,9.81599744 43.848,10.328 C43.4159978,10.8400026 43.2,11.5199958 43.2,12.368 L43.2,13.688 C43.2,14.888006 43.3159988,15.6559983 43.548,15.992 C43.7800012,16.3280017 44.295996,16.496 45.096,16.496 L45.096,17 L39.6,17 L39.6,16.496 C40.400004,16.496 40.9159988,16.3280017 41.148,15.992 C41.3800012,15.6559983 41.496,14.888006 41.496,13.688 L41.496,12.488 C41.496,11.3039941 41.3800012,10.5440017 41.148,10.208 C40.9159988,9.87199832 40.400004,9.704 39.6,9.704 L39.6,9.2 L42.792,8.6 C42.9360007,8.90400152 43.0719994,9.47999576 43.2,10.328 C43.4400012,9.8479976 43.7999976,9.44000168 44.28,9.104 C44.7600024,8.76799832 45.2399976,8.6 45.72,8.6 C46.328003,8.6 46.7959984,8.7599984 47.124,9.08 C47.4520016,9.4000016 47.616,9.73599824 47.616,10.088 Z M51.928,11.504 L55.912,11.504 C56.0720008,11.0559978 56.0040015,10.6200021 55.708,10.196 C55.4119985,9.77199788 54.9040036,9.56 54.184,9.56 C53.6719974,9.56 53.212002,9.73599824 52.804,10.088 C52.395998,10.4400018 52.1040009,10.911997 51.928,11.504 Z M51.784,12.392 C51.6399993,13.5760059 51.8279974,14.5399963 52.348,15.284 C52.8680026,16.0280037 53.7199941,16.4 54.904,16.4 C55.304002,16.4 55.7599974,16.296001 56.272,16.088 C56.7840026,15.879999 57.2079983,15.6160016 57.544,15.296 L57.976,15.824 C57.5439978,16.2880023 56.9920034,16.6679985 56.32,16.964 C55.6479966,17.2600015 54.9760034,17.408 54.304,17.408 C53.0079935,17.408 51.9440042,16.9800043 51.112,16.124 C50.2799958,15.2679957 49.864,14.2240062 49.864,12.992 C49.864,11.7599938 50.3159955,10.7200042 51.22,9.872 C52.1240045,9.02399576 53.1519942,8.6 54.304,8.6 C55.3920054,8.6 56.2799966,8.9799962 56.968,9.74 C57.6560034,10.5000038 57.8560014,11.383995 57.568,12.392 L51.784,12.392 Z M63.056,11.504 L67.04,11.504 C67.2000008,11.0559978 67.1320015,10.6200021 66.836,10.196 C66.5399985,9.77199788 66.0320036,9.56 65.312,9.56 C64.7999974,9.56 64.340002,9.73599824 63.932,10.088 C63.523998,10.4400018 63.2320009,10.911997 63.056,11.504 Z M62.912,12.392 C62.7679993,13.5760059 62.9559974,14.5399963 63.476,15.284 C63.9960026,16.0280037 64.8479941,16.4 66.032,16.4 C66.432002,16.4 66.8879974,16.296001 67.4,16.088 C67.9120026,15.879999 68.3359983,15.6160016 68.672,15.296 L69.104,15.824 C68.6719978,16.2880023 68.1200034,16.6679985 67.448,16.964 C66.7759966,17.2600015 66.1040034,17.408 65.432,17.408 C64.1359935,17.408 63.0720042,16.9800043 62.24,16.124 C61.4079958,15.2679957 60.992,14.2240062 60.992,12.992 C60.992,11.7599938 61.4439955,10.7200042 62.348,9.872 C63.2520045,9.02399576 64.2799942,8.6 65.432,8.6 C66.5200054,8.6 67.4079966,8.9799962 68.096,9.74 C68.7840034,10.5000038 68.9840014,11.383995 68.696,12.392 L62.912,12.392 Z M78.472,17 L78.472,16.496 C79.464005,16.496 80.0919987,16.3280017 80.356,15.992 C80.6200013,15.6559983 80.752,14.888006 80.752,13.688 L80.752,5.888 C80.752,4.687994 80.6200013,3.92400164 80.356,3.596 C80.0919987,3.26799836 79.464005,3.104 78.472,3.104 L78.472,2.6 L89.416,2.6 L89.632,5.768 L89.128,5.768 L89.008,5.288 C88.815999,4.58399648 88.5600016,4.10800124 88.24,3.86 C87.9199984,3.61199876 87.2480051,3.488 86.224,3.488 L82.672,3.488 L82.672,8.936 L83.872,8.936 C85.072006,8.936 85.8359984,8.80400132 86.164,8.54 C86.4920016,8.27599868 86.656,7.64000504 86.656,6.632 L87.16,6.632 L87.16,12.128 L86.656,12.128 C86.656,11.119995 86.4920016,10.4840013 86.164,10.22 C85.8359984,9.95599868 85.072006,9.824 83.872,9.824 L82.672,9.824 L82.672,13.328 C82.672,14.528006 82.8039987,15.2919984 83.068,15.62 C83.3320013,15.9480016 83.959995,16.112 84.952,16.112 L87.016,16.112 C87.7360036,16.112 88.2839981,16.0400007 88.66,15.896 C89.0360019,15.7519993 89.2919993,15.5680011 89.428,15.344 C89.5640007,15.1199989 89.6879994,14.7680024 89.8,14.288 L89.92,13.808 L90.424,13.808 L90.232,17 L78.472,17 Z M98.504,17 L93.008,17 L93.008,16.496 C93.808004,16.496 94.3239988,16.3280017 94.556,15.992 C94.7880012,15.6559983 94.904,14.888006 94.904,13.688 L94.904,6.104 C94.904,4.903994 94.7880012,4.13600168 94.556,3.8 C94.3239988,3.46399832 93.808004,3.296 93.008,3.296 L93.008,2.792 L96.608,2.192 L96.608,13.688 C96.608,14.888006 96.7239988,15.6559983 96.956,15.992 C97.1880012,16.3280017 97.703996,16.496 98.504,16.496 L98.504,17 Z M103.2,11.504 L107.184,11.504 C107.344001,11.0559978 107.276001,10.6200021 106.98,10.196 C106.683999,9.77199788 106.176004,9.56 105.456,9.56 C104.943997,9.56 104.484002,9.73599824 104.076,10.088 C103.667998,10.4400018 103.376001,10.911997 103.2,11.504 Z M103.056,12.392 C102.911999,13.5760059 103.099997,14.5399963 103.62,15.284 C104.140003,16.0280037 104.991994,16.4 106.176,16.4 C106.576002,16.4 107.031997,16.296001 107.544,16.088 C108.056003,15.879999 108.479998,15.6160016 108.816,15.296 L109.248,15.824 C108.815998,16.2880023 108.264003,16.6679985 107.592,16.964 C106.919997,17.2600015 106.248003,17.408 105.576,17.408 C104.279994,17.408 103.216004,16.9800043 102.384,16.124 C101.551996,15.2679957 101.136,14.2240062 101.136,12.992 C101.136,11.7599938 101.587995,10.7200042 102.492,9.872 C103.396005,9.02399576 104.423994,8.6 105.576,8.6 C106.664005,8.6 107.551997,8.9799962 108.24,9.74 C108.928003,10.5000038 109.128001,11.383995 108.84,12.392 L103.056,12.392 Z M116.512,9.368 C115.871997,9.368 115.328002,9.73599632 114.88,10.472 C114.431998,11.2080037 114.208,12.1199946 114.208,13.208 C114.208,14.200005 114.451998,14.9799972 114.94,15.548 C115.428002,16.1160028 116.151995,16.4 117.112,16.4 C118.040005,16.4 118.895996,16.0320037 119.68,15.296 L120.088,15.824 C119.111995,16.8800053 117.920007,17.408 116.512,17.408 C115.199993,17.408 114.164004,17.0160039 113.404,16.232 C112.643996,15.4479961 112.264,14.4400062 112.264,13.208 C112.264,11.8799934 112.711996,10.7800044 113.608,9.908 C114.504004,9.03599564 115.471995,8.6 116.512,8.6 C117.456005,8.6 118.167998,8.76799832 118.648,9.104 C119.128002,9.44000168 119.368,9.8479976 119.368,10.328 C119.368,10.5840013 119.284001,10.8199989 119.116,11.036 C118.947999,11.2520011 118.680002,11.36 118.312,11.36 C118.055999,11.36 117.836001,11.2680009 117.652,11.084 C117.467999,10.8999991 117.376,10.6720014 117.376,10.4 C117.376,9.71199656 117.088003,9.368 116.512,9.368 Z M123.464,9.848 L122.216,9.848 L122.216,9.272 C122.904003,9.12799928 123.407998,8.8160024 123.728,8.336 C124.048002,7.8559976 124.256,7.20000416 124.352,6.368 L125.168,6.368 L125.168,9.008 L127.256,9.008 L127.256,9.848 L125.168,9.848 L125.168,14.648 C125.168,15.8000058 125.527996,16.376 126.248,16.376 C126.712002,16.376 127.231997,16.1040027 127.808,15.56 L128.216,15.968 C127.879998,16.368002 127.476002,16.6959987 127.004,16.952 C126.531998,17.2080013 126.096002,17.336 125.696,17.336 C125.007997,17.336 124.464002,17.1120022 124.064,16.664 C123.663998,16.2159978 123.464,15.5440045 123.464,14.648 L123.464,9.848 Z M138.552,10.088 C138.552,10.8400038 138.232003,11.216 137.592,11.216 C137.367999,11.216 137.172001,11.1280009 137.004,10.952 C136.835999,10.7759991 136.752,10.5760011 136.752,10.352 C136.752,9.82399736 136.496003,9.56 135.984,9.56 C135.615998,9.56 135.216002,9.81599744 134.784,10.328 C134.351998,10.8400026 134.136,11.5199958 134.136,12.368 L134.136,13.688 C134.136,14.888006 134.251999,15.6559983 134.484,15.992 C134.716001,16.3280017 135.231996,16.496 136.032,16.496 L136.032,17 L130.536,17 L130.536,16.496 C131.336004,16.496 131.851999,16.3280017 132.084,15.992 C132.316001,15.6559983 132.432,14.888006 132.432,13.688 L132.432,12.488 C132.432,11.3039941 132.316001,10.5440017 132.084,10.208 C131.851999,9.87199832 131.336004,9.704 130.536,9.704 L130.536,9.2 L133.728,8.6 C133.872001,8.90400152 134.007999,9.47999576 134.136,10.328 C134.376001,9.8479976 134.735998,9.44000168 135.216,9.104 C135.696002,8.76799832 136.175998,8.6 136.656,8.6 C137.264003,8.6 137.731998,8.7599984 138.06,9.08 C138.388002,9.4000016 138.552,9.73599824 138.552,10.088 Z M149.464,9.896 C150.424005,10.7440042 150.904,11.7759939 150.904,12.992 C150.904,14.2080061 150.428005,15.2479957 149.476,16.112 C148.523995,16.9760043 147.384007,17.408 146.056,17.408 C144.727993,17.408 143.588005,16.9760043 142.636,16.112 C141.683995,15.2479957 141.208,14.2080061 141.208,12.992 C141.208,11.7759939 141.683995,10.7400043 142.636,9.884 C143.588005,9.02799572 144.727993,8.6 146.056,8.6 C147.384007,8.6 148.519995,9.03199568 149.464,9.896 Z M148.216,15.512 C148.712002,14.8559967 148.96,14.0160051 148.96,12.992 C148.96,11.9679949 148.712002,11.1320032 148.216,10.484 C147.719998,9.83599676 147.000005,9.512 146.056,9.512 C145.111995,9.512 144.392002,9.83999672 143.896,10.496 C143.399998,11.1520033 143.152,11.983995 143.152,12.992 C143.152,14.000005 143.399998,14.8319967 143.896,15.488 C144.392002,16.1440033 145.111995,16.472 146.056,16.472 C147.000005,16.472 147.719998,16.1520032 148.216,15.512 Z M157.568,10.328 C158.480005,9.17599424 159.591993,8.6 160.904,8.6 C161.944005,8.6 162.723997,8.92799672 163.244,9.584 C163.764003,10.2400033 164.024,11.1039946 164.024,12.176 L164.024,13.688 C164.024,14.888006 164.139999,15.6559983 164.372,15.992 C164.604001,16.3280017 165.119996,16.496 165.92,16.496 L165.92,17 L160.424,17 L160.424,16.496 C161.208004,16.496 161.719999,16.3240017 161.96,15.98 C162.200001,15.6359983 162.32,14.8720059 162.32,13.688 L162.32,12.296 C162.32,10.5839914 161.656007,9.728 160.328,9.728 C159.639997,9.728 159.008003,9.9679976 158.432,10.448 C157.855997,10.9280024 157.568,11.4879968 157.568,12.128 L157.568,13.688 C157.568,14.9200062 157.663999,15.6959984 157.856,16.016 C158.048001,16.3360016 158.511996,16.496 159.248,16.496 L159.248,17 L153.968,17 L153.968,16.496 C154.768004,16.496 155.283999,16.3280017 155.516,15.992 C155.748001,15.6559983 155.864,14.888006 155.864,13.688 L155.864,12.488 C155.864,11.3039941 155.748001,10.5440017 155.516,10.208 C155.283999,9.87199832 154.768004,9.704 153.968,9.704 L153.968,9.2 L157.16,8.6 C157.304001,8.90400152 157.439999,9.47999576 157.568,10.328 Z" id="Free-Electron-Copy" fill="#524740"></path>
                </g>
                <g id="--Atom" transform="translate(0.000000, 34.000000)">
                    <circle id="Oval-Copy-11" fill="#D7E465" cx="10" cy="12" r="10"></circle>
                    <path d="M40.248,2.6 C41.8640081,2.6 43.1279954,2.98399616 44.04,3.752 C44.9520046,4.52000384 45.408,5.48799416 45.408,6.656 C45.408,7.82400584 44.9520046,8.7879962 44.04,9.548 C43.1279954,10.3080038 41.8640081,10.688 40.248,10.688 L38.112,10.688 L38.112,13.688 C38.112,14.888006 38.2439987,15.6559983 38.508,15.992 C38.7720013,16.3280017 39.399995,16.496 40.392,16.496 L40.392,17 L33.912,17 L33.912,16.496 C34.904005,16.496 35.5319987,16.3280017 35.796,15.992 C36.0600013,15.6559983 36.192,14.888006 36.192,13.688 L36.192,5.888 C36.192,4.687994 36.0600013,3.92400164 35.796,3.596 C35.5319987,3.26799836 34.904005,3.104 33.912,3.104 L33.912,2.6 L40.248,2.6 Z M40.224,9.824 C41.216005,9.824 41.9719974,9.52800296 42.492,8.936 C43.0120026,8.34399704 43.272,7.58400464 43.272,6.656 C43.272,5.72799536 43.0120026,4.96800296 42.492,4.376 C41.9719974,3.78399704 41.216005,3.488 40.224,3.488 L38.112,3.488 L38.112,9.824 L40.224,9.824 Z M55.504,9.896 C56.4640048,10.7440042 56.944,11.7759939 56.944,12.992 C56.944,14.2080061 56.4680048,15.2479957 55.516,16.112 C54.5639952,16.9760043 53.4240066,17.408 52.096,17.408 C50.7679934,17.408 49.6280048,16.9760043 48.676,16.112 C47.7239952,15.2479957 47.248,14.2080061 47.248,12.992 C47.248,11.7759939 47.7239952,10.7400043 48.676,9.884 C49.6280048,9.02799572 50.7679934,8.6 52.096,8.6 C53.4240066,8.6 54.5599953,9.03199568 55.504,9.896 Z M54.256,15.512 C54.7520025,14.8559967 55,14.0160051 55,12.992 C55,11.9679949 54.7520025,11.1320032 54.256,10.484 C53.7599975,9.83599676 53.0400047,9.512 52.096,9.512 C51.1519953,9.512 50.4320025,9.83999672 49.936,10.496 C49.4399975,11.1520033 49.192,11.983995 49.192,12.992 C49.192,14.000005 49.4399975,14.8319967 49.936,15.488 C50.4320025,16.1440033 51.1519953,16.472 52.096,16.472 C53.0400047,16.472 53.7599975,16.1520032 54.256,15.512 Z M66.176,14.792 C66.176,15.5600038 65.9000028,16.1879976 65.348,16.676 C64.7959972,17.1640024 64.120004,17.408 63.32,17.408 C63.0319986,17.408 62.7360015,17.3520006 62.432,17.24 C62.1279985,17.1279994 61.8840009,17.0200005 61.7,16.916 C61.5159991,16.8119995 61.3440008,16.7320003 61.184,16.676 C61.0239992,16.6199997 60.9120003,16.6479994 60.848,16.76 C60.7839997,16.8720006 60.752,17.0879984 60.752,17.408 L60.248,17.408 L60.248,13.904 L60.752,13.904 C60.752,14.5280031 60.9919976,15.1319971 61.472,15.716 C61.9520024,16.3000029 62.5839961,16.592 63.368,16.592 C63.7520019,16.592 64.0759987,16.4720012 64.34,16.232 C64.6040013,15.9919988 64.736,15.7040017 64.736,15.368 C64.736,14.8719975 64.2880045,14.3840024 63.392,13.904 L62.048,13.184 C60.9919947,12.6079971 60.464,11.8080051 60.464,10.784 C60.464,10.1599969 60.7079976,9.64000208 61.196,9.224 C61.6840024,8.80799792 62.2479968,8.6 62.888,8.6 C63.4320027,8.6 63.9919971,8.74399856 64.568,9.032 C64.760001,9.14400056 64.8919996,9.1800002 64.964,9.14 C65.0360004,9.0999998 65.072,8.9200016 65.072,8.6 L65.576,8.6 L65.576,11.384 L65.072,11.384 C65.072,10.8559974 64.8920018,10.388002 64.532,9.98 C64.1719982,9.57199796 63.7040029,9.368 63.128,9.368 C62.727998,9.368 62.424001,9.46399904 62.216,9.656 C62.007999,9.84800096 61.904,10.0959985 61.904,10.4 C61.904,10.6720014 62.007999,10.907999 62.216,11.108 C62.424001,11.308001 62.8079972,11.5599985 63.368,11.864 L64.52,12.488 C65.6240055,13.1120031 66.176,13.8799954 66.176,14.792 Z M74.664,17 L69.168,17 L69.168,16.496 C69.968004,16.496 70.4839988,16.3280017 70.716,15.992 C70.9480012,15.6559983 71.064,14.888006 71.064,13.688 L71.064,12.488 C71.064,11.3039941 70.9480012,10.5440017 70.716,10.208 C70.4839988,9.87199832 69.968004,9.704 69.168,9.704 L69.168,9.2 L72.768,8.6 L72.768,13.688 C72.768,14.888006 72.8839988,15.6559983 73.116,15.992 C73.3480012,16.3280017 73.863996,16.496 74.664,16.496 L74.664,17 Z M72.96,5.168 C72.96,5.47200152 72.856001,5.72799896 72.648,5.936 C72.439999,6.14400104 72.1920014,6.248 71.904,6.248 C71.6159986,6.248 71.368001,6.14400104 71.16,5.936 C70.951999,5.72799896 70.848,5.47200152 70.848,5.168 C70.848,4.87999856 70.951999,4.63200104 71.16,4.424 C71.368001,4.21599896 71.6159986,4.112 71.904,4.112 C72.1920014,4.112 72.439999,4.21599896 72.648,4.424 C72.856001,4.63200104 72.96,4.87999856 72.96,5.168 Z M78.04,9.848 L76.792,9.848 L76.792,9.272 C77.4800034,9.12799928 77.9839984,8.8160024 78.304,8.336 C78.6240016,7.8559976 78.8319995,7.20000416 78.928,6.368 L79.744,6.368 L79.744,9.008 L81.832,9.008 L81.832,9.848 L79.744,9.848 L79.744,14.648 C79.744,15.8000058 80.1039964,16.376 80.824,16.376 C81.2880023,16.376 81.8079971,16.1040027 82.384,15.56 L82.792,15.968 C82.4559983,16.368002 82.0520024,16.6959987 81.58,16.952 C81.1079976,17.2080013 80.672002,17.336 80.272,17.336 C79.5839966,17.336 79.040002,17.1120022 78.64,16.664 C78.239998,16.2159978 78.04,15.5440045 78.04,14.648 L78.04,9.848 Z M90.608,17 L85.112,17 L85.112,16.496 C85.912004,16.496 86.4279988,16.3280017 86.66,15.992 C86.8920012,15.6559983 87.008,14.888006 87.008,13.688 L87.008,12.488 C87.008,11.3039941 86.8920012,10.5440017 86.66,10.208 C86.4279988,9.87199832 85.912004,9.704 85.112,9.704 L85.112,9.2 L88.712,8.6 L88.712,13.688 C88.712,14.888006 88.8279988,15.6559983 89.06,15.992 C89.2920012,16.3280017 89.807996,16.496 90.608,16.496 L90.608,17 Z M88.904,5.168 C88.904,5.47200152 88.800001,5.72799896 88.592,5.936 C88.383999,6.14400104 88.1360014,6.248 87.848,6.248 C87.5599986,6.248 87.312001,6.14400104 87.104,5.936 C86.895999,5.72799896 86.792,5.47200152 86.792,5.168 C86.792,4.87999856 86.895999,4.63200104 87.104,4.424 C87.312001,4.21599896 87.5599986,4.112 87.848,4.112 C88.1360014,4.112 88.383999,4.21599896 88.592,4.424 C88.800001,4.63200104 88.904,4.87999856 88.904,5.168 Z M101.304,9.488 C100.887998,9.488 100.556001,9.59199896 100.308,9.8 C100.059999,10.008001 99.8240011,10.3759974 99.6,10.904 L96.888,17.432 L96.408,17.432 L93.48,10.904 C93.2399988,10.3759974 93.0040012,10.008001 92.772,9.8 C92.5399988,9.59199896 92.2320019,9.488 91.848,9.488 L91.848,9.008 L96.096,9.008 L96.096,9.488 C95.5519973,9.488 95.2320005,9.57999908 95.136,9.764 C95.0399995,9.94800092 95.1119988,10.3279971 95.352,10.904 L97.056,14.744 L98.64,10.904 C98.8800012,10.3919974 98.9520005,10.0280011 98.856,9.812 C98.7599995,9.59599892 98.4560026,9.488 97.944,9.488 L97.944,9.008 L101.304,9.008 L101.304,9.488 Z M105.232,11.504 L109.216,11.504 C109.376001,11.0559978 109.308001,10.6200021 109.012,10.196 C108.715999,9.77199788 108.208004,9.56 107.488,9.56 C106.975997,9.56 106.516002,9.73599824 106.108,10.088 C105.699998,10.4400018 105.408001,10.911997 105.232,11.504 Z M105.088,12.392 C104.943999,13.5760059 105.131997,14.5399963 105.652,15.284 C106.172003,16.0280037 107.023994,16.4 108.208,16.4 C108.608002,16.4 109.063997,16.296001 109.576,16.088 C110.088003,15.879999 110.511998,15.6160016 110.848,15.296 L111.28,15.824 C110.847998,16.2880023 110.296003,16.6679985 109.624,16.964 C108.951997,17.2600015 108.280003,17.408 107.608,17.408 C106.311994,17.408 105.248004,16.9800043 104.416,16.124 C103.583996,15.2679957 103.168,14.2240062 103.168,12.992 C103.168,11.7599938 103.619995,10.7200042 104.524,9.872 C105.428005,9.02399576 106.455994,8.6 107.608,8.6 C108.696005,8.6 109.583997,8.9799962 110.272,9.74 C110.960003,10.5000038 111.160001,11.383995 110.872,12.392 L105.088,12.392 Z M119.096,17 L113.6,17 L113.6,16.496 C114.400004,16.496 114.915999,16.3280017 115.148,15.992 C115.380001,15.6559983 115.496,14.888006 115.496,13.688 L115.496,6.104 C115.496,4.903994 115.380001,4.13600168 115.148,3.8 C114.915999,3.46399832 114.400004,3.296 113.6,3.296 L113.6,2.792 L117.2,2.192 L117.2,13.688 C117.2,14.888006 117.315999,15.6559983 117.548,15.992 C117.780001,16.3280017 118.295996,16.496 119.096,16.496 L119.096,17 Z M121.728,22.688 C121.728,22.4319987 121.823999,22.204001 122.016,22.004 C122.208001,21.803999 122.459998,21.5320017 122.772,21.188 C123.084002,20.8439983 123.343999,20.4080026 123.552,19.88 L124.752,16.88 L121.992,10.904 C121.735999,10.3599973 121.496001,9.988001 121.272,9.788 C121.047999,9.587999 120.752002,9.488 120.384,9.488 L120.384,9.008 L124.632,9.008 L124.632,9.488 C124.087997,9.488 123.760001,9.57599912 123.648,9.752 C123.535999,9.92800088 123.607999,10.311997 123.864,10.904 L125.616,14.744 L127.152,10.904 C127.376001,10.3599973 127.44,9.988001 127.344,9.788 C127.248,9.587999 126.952002,9.488 126.456,9.488 L126.456,9.008 L129.816,9.008 L129.816,9.488 C129.063996,9.488 128.496002,9.95999528 128.112,10.904 L123.432,22.592 C123.191999,23.184003 122.896002,23.48 122.544,23.48 C122.335999,23.48 122.148001,23.4160006 121.98,23.288 C121.811999,23.1599994 121.728,22.9600014 121.728,22.688 Z M151.952,16.736 L151.472,16.736 C151.343999,16.1119969 151.072002,15.6560014 150.656,15.368 C149.343993,16.7280068 147.856008,17.408 146.192,17.408 C144.15999,17.408 142.424007,16.6640074 140.984,15.176 C139.543993,13.6879926 138.824,11.8960105 138.824,9.8 C138.824,7.70398952 139.543993,5.91200744 140.984,4.424 C142.424007,2.93599256 144.15999,2.192 146.192,2.192 C147.888008,2.192 149.375994,2.8719932 150.656,4.232 C151.088002,3.89599832 151.359999,3.44000288 151.472,2.864 L151.952,2.864 L151.952,8.144 L151.472,8.144 C151.135998,6.55999208 150.516005,5.3280044 149.612,4.448 C148.707995,3.5679956 147.600007,3.128 146.288,3.128 C145.375995,3.128 144.568004,3.33199796 143.864,3.74 C143.159996,4.14800204 142.612002,4.68799664 142.22,5.36 C141.827998,6.03200336 141.536001,6.74399624 141.344,7.496 C141.151999,8.24800376 141.056,9.01599608 141.056,9.8 C141.056,10.5840039 141.151999,11.3519962 141.344,12.104 C141.536001,12.8560038 141.827998,13.5639967 142.22,14.228 C142.612002,14.8920033 143.159996,15.427998 143.864,15.836 C144.568004,16.244002 145.375995,16.448 146.288,16.448 C147.600007,16.448 148.707995,16.0040044 149.612,15.116 C150.516005,14.2279956 151.135998,13.0080078 151.472,11.456 L151.952,11.456 L151.952,16.736 Z M166.8,17 L161.496,17 L161.496,16.496 C162.248004,16.496 162.719999,16.3360016 162.912,16.016 C163.104001,15.6959984 163.2,14.9200062 163.2,13.688 L163.2,12.296 C163.2,10.5839914 162.592006,9.728 161.376,9.728 C160.735997,9.728 160.144003,9.96399764 159.6,10.436 C159.055997,10.9080024 158.784,11.4719967 158.784,12.128 L158.784,13.688 C158.784,14.9360062 158.871999,15.7159984 159.048,16.028 C159.224001,16.3400016 159.639997,16.496 160.296,16.496 L160.296,17 L155.184,17 L155.184,16.496 C155.984004,16.496 156.499999,16.3280017 156.732,15.992 C156.964001,15.6559983 157.08,14.888006 157.08,13.688 L157.08,6.104 C157.08,4.903994 156.964001,4.13600168 156.732,3.8 C156.499999,3.46399832 155.984004,3.296 155.184,3.296 L155.184,2.792 L158.784,2.192 L158.784,10.328 C159.728005,9.17599424 160.775994,8.6 161.928,8.6 C163.89601,8.6 164.88,9.79198808 164.88,12.176 L164.88,13.688 C164.88,14.888006 164.995999,15.6559983 165.228,15.992 C165.460001,16.3280017 165.983996,16.496 166.8,16.496 L166.8,17 Z M177.544,16.52 C177.079998,17.0160025 176.552003,17.264 175.96,17.264 C174.999995,17.264 174.456001,16.8000046 174.328,15.872 C173.255995,16.8320048 172.256005,17.312 171.328,17.312 C170.719997,17.312 170.208002,17.1320018 169.792,16.772 C169.375998,16.4119982 169.168,15.9200031 169.168,15.296 C169.168,13.6159916 170.871983,12.480003 174.28,11.888 C174.28,10.9439953 174.176001,10.2880018 173.968,9.92 C173.759999,9.55199816 173.328003,9.368 172.672,9.368 C172.351998,9.368 172.044001,9.47199896 171.748,9.68 C171.451999,9.88800104 171.304,10.1679982 171.304,10.52 C171.304,10.7600012 171.224001,10.9599992 171.064,11.12 C170.903999,11.2800008 170.712001,11.36 170.488,11.36 C170.247999,11.36 170.048001,11.2800008 169.888,11.12 C169.727999,10.9599992 169.648,10.7600012 169.648,10.52 C169.648,9.9599972 169.955997,9.5000018 170.572,9.14 C171.188003,8.7799982 171.895996,8.6 172.696,8.6 C173.864006,8.6 174.703997,8.85599744 175.216,9.368 C175.728003,9.88000256 175.984,10.7119942 175.984,11.864 L175.984,15.488 C175.984,16.1120031 176.167998,16.424 176.536,16.424 C176.744001,16.424 176.967999,16.3040012 177.208,16.064 L177.544,16.52 Z M174.28,15.08 L174.28,12.632 C172.071989,13.1440026 170.968,13.9359946 170.968,15.008 C170.968,15.3760018 171.075999,15.6719989 171.292,15.896 C171.508001,16.1200011 171.775998,16.232 172.096,16.232 C172.688003,16.232 173.415996,15.8480038 174.28,15.08 Z M187.856,10.088 C187.856,10.8400038 187.536003,11.216 186.896,11.216 C186.671999,11.216 186.476001,11.1280009 186.308,10.952 C186.139999,10.7759991 186.056,10.5760011 186.056,10.352 C186.056,9.82399736 185.800003,9.56 185.288,9.56 C184.919998,9.56 184.520002,9.81599744 184.088,10.328 C183.655998,10.8400026 183.44,11.5199958 183.44,12.368 L183.44,13.688 C183.44,14.888006 183.555999,15.6559983 183.788,15.992 C184.020001,16.3280017 184.535996,16.496 185.336,16.496 L185.336,17 L179.84,17 L179.84,16.496 C180.640004,16.496 181.155999,16.3280017 181.388,15.992 C181.620001,15.6559983 181.736,14.888006 181.736,13.688 L181.736,12.488 C181.736,11.3039941 181.620001,10.5440017 181.388,10.208 C181.155999,9.87199832 180.640004,9.704 179.84,9.704 L179.84,9.2 L183.032,8.6 C183.176001,8.90400152 183.311999,9.47999576 183.44,10.328 C183.680001,9.8479976 184.039998,9.44000168 184.52,9.104 C185.000002,8.76799832 185.479998,8.6 185.96,8.6 C186.568003,8.6 187.035998,8.7599984 187.364,9.08 C187.692002,9.4000016 187.856,9.73599824 187.856,10.088 Z M195.216,13.664 C195.520002,13.1999977 195.672,12.6000037 195.672,11.864 C195.672,11.1279963 195.524001,10.5280023 195.228,10.064 C194.931999,9.59999768 194.504003,9.368 193.944,9.368 C193.383997,9.368 192.952002,9.59999768 192.648,10.064 C192.343998,10.5280023 192.192,11.1279963 192.192,11.864 C192.192,12.6000037 192.343998,13.1959977 192.648,13.652 C192.952002,14.1080023 193.383997,14.336 193.944,14.336 C194.504003,14.336 194.927999,14.1120022 195.216,13.664 Z M191.712,16.136 C191.712,16.6160024 192.439993,16.9199994 193.896,17.048 C195.432008,17.1760006 196.543997,17.5279971 197.232,18.104 C197.920003,18.6800029 198.264,19.3759959 198.264,20.192 C198.264,21.1680049 197.860004,21.9479971 197.052,22.532 C196.243996,23.1160029 195.232006,23.408 194.016,23.408 C192.719994,23.408 191.676004,23.1400027 190.884,22.604 C190.091996,22.0679973 189.728,21.4400036 189.792,20.72 C189.856,19.9999964 190.367995,19.3920025 191.328,18.896 L191.76,19.16 C191.295998,19.6880026 191.048,20.1719978 191.016,20.612 C190.984,21.0520022 191.123998,21.3999987 191.436,21.656 C191.748002,21.9120013 192.131998,22.1119993 192.588,22.256 C193.044002,22.4000007 193.519998,22.472 194.016,22.472 C194.800004,22.472 195.491997,22.3000017 196.092,21.956 C196.692003,21.6119983 196.992,21.1680027 196.992,20.624 C196.992,20.0959974 196.732003,19.7120012 196.212,19.472 C195.691997,19.2319988 194.880006,19.0560006 193.776,18.944 C191.503989,18.7199989 190.368,17.9760063 190.368,16.712 C190.368,15.8479957 191.039993,15.2080021 192.384,14.792 C191.759997,14.5039986 191.268002,14.1040026 190.908,13.592 C190.547998,13.0799974 190.368,12.5040032 190.368,11.864 C190.368,10.9679955 190.715997,10.2000032 191.412,9.56 C192.108003,8.9199968 192.951995,8.6 193.944,8.6 C194.904005,8.6 195.727997,8.90399696 196.416,9.512 C196.624001,9.25599872 196.907998,9.04000088 197.268,8.864 C197.628002,8.68799912 197.943999,8.6 198.216,8.6 C198.920004,8.6 199.367999,8.89599704 199.56,9.488 C199.704001,9.93600224 199.632001,10.2719989 199.344,10.496 C199.248,10.5760004 199.136001,10.616 199.008,10.616 C198.767999,10.6320001 198.588001,10.5840006 198.468,10.472 C198.347999,10.3599994 198.276,10.2360007 198.252,10.1 C198.228,9.96399932 198.164001,9.8360006 198.06,9.716 C197.955999,9.5959994 197.792001,9.536 197.568,9.536 C197.327999,9.536 197.080001,9.66399872 196.824,9.92 C197.288002,10.4800028 197.52,11.1279963 197.52,11.864 C197.52,12.7120042 197.208003,13.439997 196.584,14.048 C195.959997,14.656003 195.232004,15.0159994 194.4,15.128 C192.607991,15.336001 191.712,15.6719977 191.712,16.136 Z M203.728,11.504 L207.712,11.504 C207.872001,11.0559978 207.804001,10.6200021 207.508,10.196 C207.211999,9.77199788 206.704004,9.56 205.984,9.56 C205.471997,9.56 205.012002,9.73599824 204.604,10.088 C204.195998,10.4400018 203.904001,10.911997 203.728,11.504 Z M203.584,12.392 C203.439999,13.5760059 203.627997,14.5399963 204.148,15.284 C204.668003,16.0280037 205.519994,16.4 206.704,16.4 C207.104002,16.4 207.559997,16.296001 208.072,16.088 C208.584003,15.879999 209.007998,15.6160016 209.344,15.296 L209.776,15.824 C209.343998,16.2880023 208.792003,16.6679985 208.12,16.964 C207.447997,17.2600015 206.776003,17.408 206.104,17.408 C204.807994,17.408 203.744004,16.9800043 202.912,16.124 C202.079996,15.2679957 201.664,14.2240062 201.664,12.992 C201.664,11.7599938 202.115995,10.7200042 203.02,9.872 C203.924005,9.02399576 204.951994,8.6 206.104,8.6 C207.192005,8.6 208.079997,8.9799962 208.768,9.74 C209.456003,10.5000038 209.656001,11.383995 209.368,12.392 L203.584,12.392 Z M219.896,14.552 L219.896,11.456 C219.671999,10.8799971 219.344002,10.4200017 218.912,10.076 C218.479998,9.73199828 218.000003,9.56 217.472,9.56 C216.575996,9.56 215.896002,9.8799968 215.432,10.52 C214.967998,11.1600032 214.736,11.983995 214.736,12.992 C214.736,14.0160051 214.967998,14.8479968 215.432,15.488 C215.896002,16.1280032 216.575996,16.448 217.472,16.448 C218.000003,16.448 218.479998,16.2760017 218.912,15.932 C219.344002,15.5879983 219.671999,15.1280029 219.896,14.552 Z M219.896,10.016 L219.896,6.104 C219.896,4.903994 219.780001,4.13600168 219.548,3.8 C219.315999,3.46399832 218.800004,3.296 218,3.296 L218,2.792 L221.6,2.192 L221.6,13.496 C221.6,14.696006 221.715999,15.4639983 221.948,15.8 C222.180001,16.1360017 222.695996,16.304 223.496,16.304 L223.496,16.808 L220.304,17.408 C220.191999,17.1679988 220.064001,16.6800037 219.92,15.944 C219.135996,16.9200049 218.152006,17.408 216.968,17.408 C215.831994,17.408 214.852004,16.9760043 214.028,16.112 C213.203996,15.2479957 212.792,14.2080061 212.792,12.992 C212.792,11.7759939 213.203996,10.7400043 214.028,9.884 C214.852004,9.02799572 215.831994,8.6 216.968,8.6 C218.152006,8.6 219.127996,9.07199528 219.896,10.016 Z M238.792,2.6 C240.408008,2.6 241.671995,2.98399616 242.584,3.752 C243.496005,4.52000384 243.952,5.48799416 243.952,6.656 C243.952,7.82400584 243.496005,8.7879962 242.584,9.548 C241.671995,10.3080038 240.408008,10.688 238.792,10.688 L236.656,10.688 L236.656,13.688 C236.656,14.888006 236.787999,15.6559983 237.052,15.992 C237.316001,16.3280017 237.943995,16.496 238.936,16.496 L238.936,17 L232.456,17 L232.456,16.496 C233.448005,16.496 234.075999,16.3280017 234.34,15.992 C234.604001,15.6559983 234.736,14.888006 234.736,13.688 L234.736,5.888 C234.736,4.687994 234.604001,3.92400164 234.34,3.596 C234.075999,3.26799836 233.448005,3.104 232.456,3.104 L232.456,2.6 L238.792,2.6 Z M238.768,9.824 C239.760005,9.824 240.515997,9.52800296 241.036,8.936 C241.556003,8.34399704 241.816,7.58400464 241.816,6.656 C241.816,5.72799536 241.556003,4.96800296 241.036,4.376 C240.515997,3.78399704 239.760005,3.488 238.768,3.488 L236.656,3.488 L236.656,9.824 L238.768,9.824 Z M257.816,17 L252.512,17 L252.512,16.496 C253.264004,16.496 253.735999,16.3360016 253.928,16.016 C254.120001,15.6959984 254.216,14.9200062 254.216,13.688 L254.216,12.296 C254.216,10.5839914 253.608006,9.728 252.392,9.728 C251.751997,9.728 251.160003,9.96399764 250.616,10.436 C250.071997,10.9080024 249.8,11.4719967 249.8,12.128 L249.8,13.688 C249.8,14.9360062 249.887999,15.7159984 250.064,16.028 C250.240001,16.3400016 250.655997,16.496 251.312,16.496 L251.312,17 L246.2,17 L246.2,16.496 C247.000004,16.496 247.515999,16.3280017 247.748,15.992 C247.980001,15.6559983 248.096,14.888006 248.096,13.688 L248.096,6.104 C248.096,4.903994 247.980001,4.13600168 247.748,3.8 C247.515999,3.46399832 247.000004,3.296 246.2,3.296 L246.2,2.792 L249.8,2.192 L249.8,10.328 C250.744005,9.17599424 251.791994,8.6 252.944,8.6 C254.91201,8.6 255.896,9.79198808 255.896,12.176 L255.896,13.688 C255.896,14.888006 256.011999,15.6559983 256.244,15.992 C256.476001,16.3280017 256.999996,16.496 257.816,16.496 L257.816,17 Z M268.68,9.896 C269.640005,10.7440042 270.12,11.7759939 270.12,12.992 C270.12,14.2080061 269.644005,15.2479957 268.692,16.112 C267.739995,16.9760043 266.600007,17.408 265.272,17.408 C263.943993,17.408 262.804005,16.9760043 261.852,16.112 C260.899995,15.2479957 260.424,14.2080061 260.424,12.992 C260.424,11.7759939 260.899995,10.7400043 261.852,9.884 C262.804005,9.02799572 263.943993,8.6 265.272,8.6 C266.600007,8.6 267.735995,9.03199568 268.68,9.896 Z M267.432,15.512 C267.928002,14.8559967 268.176,14.0160051 268.176,12.992 C268.176,11.9679949 267.928002,11.1320032 267.432,10.484 C266.935998,9.83599676 266.216005,9.512 265.272,9.512 C264.327995,9.512 263.608002,9.83999672 263.112,10.496 C262.615998,11.1520033 262.368,11.983995 262.368,12.992 C262.368,14.000005 262.615998,14.8319967 263.112,15.488 C263.608002,16.1440033 264.327995,16.472 265.272,16.472 C266.216005,16.472 266.935998,16.1520032 267.432,15.512 Z M279.352,14.792 C279.352,15.5600038 279.076003,16.1879976 278.524,16.676 C277.971997,17.1640024 277.296004,17.408 276.496,17.408 C276.207999,17.408 275.912002,17.3520006 275.608,17.24 C275.303998,17.1279994 275.060001,17.0200005 274.876,16.916 C274.691999,16.8119995 274.520001,16.7320003 274.36,16.676 C274.199999,16.6199997 274.088,16.6479994 274.024,16.76 C273.96,16.8720006 273.928,17.0879984 273.928,17.408 L273.424,17.408 L273.424,13.904 L273.928,13.904 C273.928,14.5280031 274.167998,15.1319971 274.648,15.716 C275.128002,16.3000029 275.759996,16.592 276.544,16.592 C276.928002,16.592 277.251999,16.4720012 277.516,16.232 C277.780001,15.9919988 277.912,15.7040017 277.912,15.368 C277.912,14.8719975 277.464004,14.3840024 276.568,13.904 L275.224,13.184 C274.167995,12.6079971 273.64,11.8080051 273.64,10.784 C273.64,10.1599969 273.883998,9.64000208 274.372,9.224 C274.860002,8.80799792 275.423997,8.6 276.064,8.6 C276.608003,8.6 277.167997,8.74399856 277.744,9.032 C277.936001,9.14400056 278.068,9.1800002 278.14,9.14 C278.212,9.0999998 278.248,8.9200016 278.248,8.6 L278.752,8.6 L278.752,11.384 L278.248,11.384 C278.248,10.8559974 278.068002,10.388002 277.708,9.98 C277.347998,9.57199796 276.880003,9.368 276.304,9.368 C275.903998,9.368 275.600001,9.46399904 275.392,9.656 C275.183999,9.84800096 275.08,10.0959985 275.08,10.4 C275.08,10.6720014 275.183999,10.907999 275.392,11.108 C275.600001,11.308001 275.983997,11.5599985 276.544,11.864 L277.696,12.488 C278.800006,13.1120031 279.352,13.8799954 279.352,14.792 Z M289.952,15.488 C290.416002,14.8319967 290.648,14.000005 290.648,12.992 C290.648,11.983995 290.416002,11.1600032 289.952,10.52 C289.487998,9.8799968 288.816004,9.56 287.936,9.56 C287.391997,9.56 286.908002,9.72799832 286.484,10.064 C286.059998,10.4000017 285.728001,10.8559971 285.488,11.432 L285.488,14.528 C285.728001,15.120003 286.059998,15.5879983 286.484,15.932 C286.908002,16.2760017 287.391997,16.448 287.936,16.448 C288.816004,16.448 289.487998,16.1280032 289.952,15.488 Z M285.488,19.712 C285.488,20.8960059 285.603999,21.6559983 285.836,21.992 C286.068001,22.3280017 286.583996,22.496 287.384,22.496 L287.384,23 L281.888,23 L281.888,22.496 C282.688004,22.496 283.203999,22.3320016 283.436,22.004 C283.668001,21.6759984 283.784,20.912006 283.784,19.712 L283.784,12.488 C283.784,11.287994 283.668001,10.5240016 283.436,10.196 C283.203999,9.86799836 282.688004,9.704 281.888,9.704 L281.888,9.2 L285.104,8.6 C285.2,8.77600088 285.319999,9.263996 285.464,10.064 C286.280004,9.08799512 287.271994,8.6 288.44,8.6 C289.576006,8.6 290.551996,9.02799572 291.368,9.884 C292.184004,10.7400043 292.592,11.7759939 292.592,12.992 C292.592,14.2080061 292.184004,15.2479957 291.368,16.112 C290.551996,16.9760043 289.576006,17.408 288.44,17.408 C287.255994,17.408 286.272004,16.9280048 285.488,15.968 L285.488,19.712 Z M306.816,17 L301.512,17 L301.512,16.496 C302.264004,16.496 302.735999,16.3360016 302.928,16.016 C303.120001,15.6959984 303.216,14.9200062 303.216,13.688 L303.216,12.296 C303.216,10.5839914 302.608006,9.728 301.392,9.728 C300.751997,9.728 300.160003,9.96399764 299.616,10.436 C299.071997,10.9080024 298.8,11.4719967 298.8,12.128 L298.8,13.688 C298.8,14.9360062 298.887999,15.7159984 299.064,16.028 C299.240001,16.3400016 299.655997,16.496 300.312,16.496 L300.312,17 L295.2,17 L295.2,16.496 C296.000004,16.496 296.515999,16.3280017 296.748,15.992 C296.980001,15.6559983 297.096,14.888006 297.096,13.688 L297.096,6.104 C297.096,4.903994 296.980001,4.13600168 296.748,3.8 C296.515999,3.46399832 296.000004,3.296 295.2,3.296 L295.2,2.792 L298.8,2.192 L298.8,10.328 C299.744005,9.17599424 300.791994,8.6 301.944,8.6 C303.91201,8.6 304.896,9.79198808 304.896,12.176 L304.896,13.688 C304.896,14.888006 305.011999,15.6559983 305.244,15.992 C305.476001,16.3280017 305.999996,16.496 306.816,16.496 L306.816,17 Z M317.68,9.896 C318.640005,10.7440042 319.12,11.7759939 319.12,12.992 C319.12,14.2080061 318.644005,15.2479957 317.692,16.112 C316.739995,16.9760043 315.600007,17.408 314.272,17.408 C312.943993,17.408 311.804005,16.9760043 310.852,16.112 C309.899995,15.2479957 309.424,14.2080061 309.424,12.992 C309.424,11.7759939 309.899995,10.7400043 310.852,9.884 C311.804005,9.02799572 312.943993,8.6 314.272,8.6 C315.600007,8.6 316.735995,9.03199568 317.68,9.896 Z M316.432,15.512 C316.928002,14.8559967 317.176,14.0160051 317.176,12.992 C317.176,11.9679949 316.928002,11.1320032 316.432,10.484 C315.935998,9.83599676 315.216005,9.512 314.272,9.512 C313.327995,9.512 312.608002,9.83999672 312.112,10.496 C311.615998,11.1520033 311.368,11.983995 311.368,12.992 C311.368,14.000005 311.615998,14.8319967 312.112,15.488 C312.608002,16.1440033 313.327995,16.472 314.272,16.472 C315.216005,16.472 315.935998,16.1520032 316.432,15.512 Z M330.2,10.088 C330.2,10.8400038 329.880003,11.216 329.24,11.216 C329.015999,11.216 328.820001,11.1280009 328.652,10.952 C328.483999,10.7759991 328.4,10.5760011 328.4,10.352 C328.4,9.82399736 328.144003,9.56 327.632,9.56 C327.263998,9.56 326.864002,9.81599744 326.432,10.328 C325.999998,10.8400026 325.784,11.5199958 325.784,12.368 L325.784,13.688 C325.784,14.888006 325.899999,15.6559983 326.132,15.992 C326.364001,16.3280017 326.879996,16.496 327.68,16.496 L327.68,17 L322.184,17 L322.184,16.496 C322.984004,16.496 323.499999,16.3280017 323.732,15.992 C323.964001,15.6559983 324.08,14.888006 324.08,13.688 L324.08,12.488 C324.08,11.3039941 323.964001,10.5440017 323.732,10.208 C323.499999,9.87199832 322.984004,9.704 322.184,9.704 L322.184,9.2 L325.376,8.6 C325.520001,8.90400152 325.655999,9.47999576 325.784,10.328 C326.024001,9.8479976 326.383998,9.44000168 326.864,9.104 C327.344002,8.76799832 327.823998,8.6 328.304,8.6 C328.912003,8.6 329.379998,8.7599984 329.708,9.08 C330.036002,9.4000016 330.2,9.73599824 330.2,10.088 Z M341.112,9.896 C342.072005,10.7440042 342.552,11.7759939 342.552,12.992 C342.552,14.2080061 342.076005,15.2479957 341.124,16.112 C340.171995,16.9760043 339.032007,17.408 337.704,17.408 C336.375993,17.408 335.236005,16.9760043 334.284,16.112 C333.331995,15.2479957 332.856,14.2080061 332.856,12.992 C332.856,11.7759939 333.331995,10.7400043 334.284,9.884 C335.236005,9.02799572 336.375993,8.6 337.704,8.6 C339.032007,8.6 340.167995,9.03199568 341.112,9.896 Z M339.864,15.512 C340.360002,14.8559967 340.608,14.0160051 340.608,12.992 C340.608,11.9679949 340.360002,11.1320032 339.864,10.484 C339.367998,9.83599676 338.648005,9.512 337.704,9.512 C336.759995,9.512 336.040002,9.83999672 335.544,10.496 C335.047998,11.1520033 334.8,11.983995 334.8,12.992 C334.8,14.000005 335.047998,14.8319967 335.544,15.488 C336.040002,16.1440033 336.759995,16.472 337.704,16.472 C338.648005,16.472 339.367998,16.1520032 339.864,15.512 Z M356.776,16.808 L353.56,17.408 C353.431999,17.1519987 353.304001,16.6400038 353.176,15.872 C352.183995,16.8960051 351.136006,17.408 350.032,17.408 C348.04799,17.408 347.056,16.208012 347.056,13.808 L347.056,12.296 C347.056,11.095994 346.940001,10.3280017 346.708,9.992 C346.475999,9.65599832 345.960004,9.488 345.16,9.488 L345.16,9.008 L348.76,9.008 L348.76,13.688 C348.76,15.4000086 349.367994,16.256 350.584,16.256 C351.128003,16.256 351.695997,16.0280023 352.288,15.572 C352.880003,15.1159977 353.176,14.5520034 353.176,13.88 L353.176,12.296 C353.176,11.095994 353.060001,10.3280017 352.828,9.992 C352.595999,9.65599832 352.072004,9.488 351.256,9.488 L351.256,9.008 L354.856,9.008 L354.856,13.496 C354.856,14.696006 354.971999,15.4639983 355.204,15.8 C355.436001,16.1360017 355.959996,16.304 356.776,16.304 L356.776,16.808 Z M365.312,14.792 C365.312,15.5600038 365.036003,16.1879976 364.484,16.676 C363.931997,17.1640024 363.256004,17.408 362.456,17.408 C362.167999,17.408 361.872002,17.3520006 361.568,17.24 C361.263998,17.1279994 361.020001,17.0200005 360.836,16.916 C360.651999,16.8119995 360.480001,16.7320003 360.32,16.676 C360.159999,16.6199997 360.048,16.6479994 359.984,16.76 C359.92,16.8720006 359.888,17.0879984 359.888,17.408 L359.384,17.408 L359.384,13.904 L359.888,13.904 C359.888,14.5280031 360.127998,15.1319971 360.608,15.716 C361.088002,16.3000029 361.719996,16.592 362.504,16.592 C362.888002,16.592 363.211999,16.4720012 363.476,16.232 C363.740001,15.9919988 363.872,15.7040017 363.872,15.368 C363.872,14.8719975 363.424004,14.3840024 362.528,13.904 L361.184,13.184 C360.127995,12.6079971 359.6,11.8080051 359.6,10.784 C359.6,10.1599969 359.843998,9.64000208 360.332,9.224 C360.820002,8.80799792 361.383997,8.6 362.024,8.6 C362.568003,8.6 363.127997,8.74399856 363.704,9.032 C363.896001,9.14400056 364.028,9.1800002 364.1,9.14 C364.172,9.0999998 364.208,8.9200016 364.208,8.6 L364.712,8.6 L364.712,11.384 L364.208,11.384 C364.208,10.8559974 364.028002,10.388002 363.668,9.98 C363.307998,9.57199796 362.840003,9.368 362.264,9.368 C361.863998,9.368 361.560001,9.46399904 361.352,9.656 C361.143999,9.84800096 361.04,10.0959985 361.04,10.4 C361.04,10.6720014 361.143999,10.907999 361.352,11.108 C361.560001,11.308001 361.943997,11.5599985 362.504,11.864 L363.656,12.488 C364.760006,13.1120031 365.312,13.8799954 365.312,14.792 Z M374.896,17 L374.896,16.496 C375.888005,16.496 376.515999,16.3280017 376.78,15.992 C377.044001,15.6559983 377.176,14.888006 377.176,13.688 L377.176,5.888 C377.176,4.687994 377.044001,3.92400164 376.78,3.596 C376.515999,3.26799836 375.888005,3.104 374.896,3.104 L374.896,2.6 L381.4,2.6 C384.056013,2.6 386.055993,3.27199328 387.4,4.616 C388.744007,5.96000672 389.416,7.68798944 389.416,9.8 C389.416,11.9120106 388.744007,13.6399933 387.4,14.984 C386.055993,16.3280067 384.056013,17 381.4,17 L374.896,17 Z M379.096,3.488 L379.096,13.328 C379.096,14.5440061 379.223999,15.3119984 379.48,15.632 C379.736001,15.9520016 380.351995,16.112 381.328,16.112 L381.424,16.112 C382.528006,16.112 383.475996,15.9200019 384.268,15.536 C385.060004,15.1519981 385.651998,14.6360032 386.044,13.988 C386.436002,13.3399968 386.711999,12.6760034 386.872,11.996 C387.032001,11.3159966 387.112,10.5840039 387.112,9.8 C387.112,9.01599608 387.032001,8.2840034 386.872,7.604 C386.711999,6.9239966 386.436002,6.26000324 386.044,5.612 C385.651998,4.96399676 385.060004,4.44800192 384.268,4.064 C383.475996,3.67999808 382.528006,3.488 381.424,3.488 L379.096,3.488 Z M401.504,9.896 C402.464005,10.7440042 402.944,11.7759939 402.944,12.992 C402.944,14.2080061 402.468005,15.2479957 401.516,16.112 C400.563995,16.9760043 399.424007,17.408 398.096,17.408 C396.767993,17.408 395.628005,16.9760043 394.676,16.112 C393.723995,15.2479957 393.248,14.2080061 393.248,12.992 C393.248,11.7759939 393.723995,10.7400043 394.676,9.884 C395.628005,9.02799572 396.767993,8.6 398.096,8.6 C399.424007,8.6 400.559995,9.03199568 401.504,9.896 Z M400.256,15.512 C400.752002,14.8559967 401,14.0160051 401,12.992 C401,11.9679949 400.752002,11.1320032 400.256,10.484 C399.759998,9.83599676 399.040005,9.512 398.096,9.512 C397.151995,9.512 396.432002,9.83999672 395.936,10.496 C395.439998,11.1520033 395.192,11.983995 395.192,12.992 C395.192,14.000005 395.439998,14.8319967 395.936,15.488 C396.432002,16.1440033 397.151995,16.472 398.096,16.472 C399.040005,16.472 399.759998,16.1520032 400.256,15.512 Z M409.608,10.328 C410.520005,9.17599424 411.631993,8.6 412.944,8.6 C413.984005,8.6 414.763997,8.92799672 415.284,9.584 C415.804003,10.2400033 416.064,11.1039946 416.064,12.176 L416.064,13.688 C416.064,14.888006 416.179999,15.6559983 416.412,15.992 C416.644001,16.3280017 417.159996,16.496 417.96,16.496 L417.96,17 L412.464,17 L412.464,16.496 C413.248004,16.496 413.759999,16.3240017 414,15.98 C414.240001,15.6359983 414.36,14.8720059 414.36,13.688 L414.36,12.296 C414.36,10.5839914 413.696007,9.728 412.368,9.728 C411.679997,9.728 411.048003,9.9679976 410.472,10.448 C409.895997,10.9280024 409.608,11.4879968 409.608,12.128 L409.608,13.688 C409.608,14.9200062 409.703999,15.6959984 409.896,16.016 C410.088001,16.3360016 410.551996,16.496 411.288,16.496 L411.288,17 L406.008,17 L406.008,16.496 C406.808004,16.496 407.323999,16.3280017 407.556,15.992 C407.788001,15.6559983 407.904,14.888006 407.904,13.688 L407.904,12.488 C407.904,11.3039941 407.788001,10.5440017 407.556,10.208 C407.323999,9.87199832 406.808004,9.704 406.008,9.704 L406.008,9.2 L409.2,8.6 C409.344001,8.90400152 409.479999,9.47999576 409.608,10.328 Z M428.824,9.896 C429.784005,10.7440042 430.264,11.7759939 430.264,12.992 C430.264,14.2080061 429.788005,15.2479957 428.836,16.112 C427.883995,16.9760043 426.744007,17.408 425.416,17.408 C424.087993,17.408 422.948005,16.9760043 421.996,16.112 C421.043995,15.2479957 420.568,14.2080061 420.568,12.992 C420.568,11.7759939 421.043995,10.7400043 421.996,9.884 C422.948005,9.02799572 424.087993,8.6 425.416,8.6 C426.744007,8.6 427.879995,9.03199568 428.824,9.896 Z M427.576,15.512 C428.072002,14.8559967 428.32,14.0160051 428.32,12.992 C428.32,11.9679949 428.072002,11.1320032 427.576,10.484 C427.079998,9.83599676 426.360005,9.512 425.416,9.512 C424.471995,9.512 423.752002,9.83999672 423.256,10.496 C422.759998,11.1520033 422.512,11.983995 422.512,12.992 C422.512,14.000005 422.759998,14.8319967 423.256,15.488 C423.752002,16.1440033 424.471995,16.472 425.416,16.472 C426.360005,16.472 427.079998,16.1520032 427.576,15.512 Z M441.344,10.088 C441.344,10.8400038 441.024003,11.216 440.384,11.216 C440.159999,11.216 439.964001,11.1280009 439.796,10.952 C439.627999,10.7759991 439.544,10.5760011 439.544,10.352 C439.544,9.82399736 439.288003,9.56 438.776,9.56 C438.407998,9.56 438.008002,9.81599744 437.576,10.328 C437.143998,10.8400026 436.928,11.5199958 436.928,12.368 L436.928,13.688 C436.928,14.888006 437.043999,15.6559983 437.276,15.992 C437.508001,16.3280017 438.023996,16.496 438.824,16.496 L438.824,17 L433.328,17 L433.328,16.496 C434.128004,16.496 434.643999,16.3280017 434.876,15.992 C435.108001,15.6559983 435.224,14.888006 435.224,13.688 L435.224,12.488 C435.224,11.3039941 435.108001,10.5440017 434.876,10.208 C434.643999,9.87199832 434.128004,9.704 433.328,9.704 L433.328,9.2 L436.52,8.6 C436.664001,8.90400152 436.799999,9.47999576 436.928,10.328 C437.168001,9.8479976 437.527998,9.44000168 438.008,9.104 C438.488002,8.76799832 438.967998,8.6 439.448,8.6 C440.056003,8.6 440.523998,8.7599984 440.852,9.08 C441.180002,9.4000016 441.344,9.73599824 441.344,10.088 Z M453.424,12.008 L452.272,14.672 C451.967998,15.3280033 451.955999,15.7959986 452.236,16.076 C452.516001,16.3560014 453.151995,16.496 454.144,16.496 L454.144,17 L448.528,17 L448.528,16.496 C449.040003,16.496 449.435999,16.4760002 449.716,16.436 C449.996001,16.3959998 450.243999,16.2680011 450.46,16.052 C450.676001,15.8359989 450.828,15.6400009 450.916,15.464 C451.004,15.2879991 451.167999,14.9360026 451.408,14.408 L456.688,2.192 L457,2.192 L462.304,14.408 C462.544001,14.9360026 462.708,15.2879991 462.796,15.464 C462.884,15.6400009 463.035999,15.8359989 463.252,16.052 C463.468001,16.2680011 463.711999,16.3959998 463.984,16.436 C464.256001,16.4760002 464.647997,16.496 465.16,16.496 L465.16,17 L458.512,17 L458.512,16.496 C459.504005,16.496 460.135999,16.3560014 460.408,16.076 C460.680001,15.7959986 460.672001,15.3280033 460.384,14.672 L459.232,12.008 L453.424,12.008 Z M458.824,11.12 L456.304,5.336 L453.808,11.12 L458.824,11.12 Z M467.168,9.848 L465.92,9.848 L465.92,9.272 C466.608003,9.12799928 467.111998,8.8160024 467.432,8.336 C467.752002,7.8559976 467.96,7.20000416 468.056,6.368 L468.872,6.368 L468.872,9.008 L470.96,9.008 L470.96,9.848 L468.872,9.848 L468.872,14.648 C468.872,15.8000058 469.231996,16.376 469.952,16.376 C470.416002,16.376 470.935997,16.1040027 471.512,15.56 L471.92,15.968 C471.583998,16.368002 471.180002,16.6959987 470.708,16.952 C470.235998,17.2080013 469.800002,17.336 469.4,17.336 C468.711997,17.336 468.168002,17.1120022 467.768,16.664 C467.367998,16.2159978 467.168,15.5440045 467.168,14.648 L467.168,9.848 Z M482.736,9.896 C483.696005,10.7440042 484.176,11.7759939 484.176,12.992 C484.176,14.2080061 483.700005,15.2479957 482.748,16.112 C481.795995,16.9760043 480.656007,17.408 479.328,17.408 C477.999993,17.408 476.860005,16.9760043 475.908,16.112 C474.955995,15.2479957 474.48,14.2080061 474.48,12.992 C474.48,11.7759939 474.955995,10.7400043 475.908,9.884 C476.860005,9.02799572 477.999993,8.6 479.328,8.6 C480.656007,8.6 481.791995,9.03199568 482.736,9.896 Z M481.488,15.512 C481.984002,14.8559967 482.232,14.0160051 482.232,12.992 C482.232,11.9679949 481.984002,11.1320032 481.488,10.484 C480.991998,9.83599676 480.272005,9.512 479.328,9.512 C478.383995,9.512 477.664002,9.83999672 477.168,10.496 C476.671998,11.1520033 476.424,11.983995 476.424,12.992 C476.424,14.000005 476.671998,14.8319967 477.168,15.488 C477.664002,16.1440033 478.383995,16.472 479.328,16.472 C480.272005,16.472 480.991998,16.1520032 481.488,15.512 Z M496.72,12.128 L496.72,13.688 C496.72,14.9520063 496.803999,15.7359985 496.972,16.04 C497.140001,16.3440015 497.559997,16.496 498.232,16.496 L498.232,17 L493.528,17 L493.528,16.496 C494.200003,16.496 494.619999,16.3440015 494.788,16.04 C494.956001,15.7359985 495.04,14.9520063 495.04,13.688 L495.04,12.296 C495.04,10.5839914 494.464006,9.728 493.312,9.728 C492.815998,9.728 492.280003,9.95999768 491.704,10.424 C491.127997,10.8880023 490.84,11.4559966 490.84,12.128 L490.84,13.688 C490.84,14.9360062 490.923999,15.7159984 491.092,16.028 C491.260001,16.3400016 491.671997,16.496 492.328,16.496 L492.328,17 L487.24,17 L487.24,16.496 C488.040004,16.496 488.555999,16.3280017 488.788,15.992 C489.020001,15.6559983 489.136,14.888006 489.136,13.688 L489.136,12.488 C489.136,11.3039941 489.020001,10.5440017 488.788,10.208 C488.555999,9.87199832 488.040004,9.704 487.24,9.704 L487.24,9.2 L490.432,8.6 C490.576001,8.90400152 490.711999,9.47999576 490.84,10.328 C491.752005,9.17599424 492.791994,8.6 493.96,8.6 C495.288007,8.6 496.135998,9.199994 496.504,10.4 C496.824002,9.95199776 497.299997,9.54000188 497.932,9.164 C498.564003,8.78799812 499.207997,8.6 499.864,8.6 C501.704009,8.6 502.624,9.79198808 502.624,12.176 L502.624,13.688 C502.624,14.888006 502.739999,15.6559983 502.972,15.992 C503.204001,16.3280017 503.719996,16.496 504.52,16.496 L504.52,17 L499.432,17 L499.432,16.496 C500.104003,16.496 500.519999,16.3440015 500.68,16.04 C500.840001,15.7359985 500.92,14.9520063 500.92,13.688 L500.92,12.296 C500.92,10.5839914 500.352006,9.728 499.216,9.728 C498.719998,9.728 498.180003,9.95999768 497.596,10.424 C497.011997,10.8880023 496.72,11.4559966 496.72,12.128 Z" id="Positively-Charged-P-Copy" fill="#524740"></path>
                </g>
                <g id="Silicon-Atom">
                    <circle id="Oval-Copy-5" fill="#252525" cx="10" cy="12" r="10"></circle>
                    <path d="M35.664,16.28 C35.2959982,16.5840015 35.0640005,16.9599978 34.968,17.408 L34.488,17.408 L34.488,12.128 L34.992,12.128 C34.992,12.1920003 34.996,12.2759995 35.004,12.38 C35.012,12.4840005 35.0439997,12.6839985 35.1,12.98 C35.1560003,13.2760015 35.2359995,13.5599986 35.34,13.832 C35.4440005,14.1040014 35.6079989,14.4079983 35.832,14.744 C36.0560011,15.0800017 36.3159985,15.3679988 36.612,15.608 C36.9080015,15.8480012 37.2999976,16.0479992 37.788,16.208 C38.2760024,16.3680008 38.815997,16.448 39.408,16.448 C40.2720043,16.448 40.9879972,16.2000025 41.556,15.704 C42.1240028,15.2079975 42.408,14.5760038 42.408,13.808 C42.408,12.8319951 41.4880092,11.8640048 39.648,10.904 L37.344,9.728 C36.5919962,9.327998 35.9600026,8.78400344 35.448,8.096 C34.9359974,7.40799656 34.68,6.63200432 34.68,5.768 C34.68,4.75999496 35.0559962,3.91200344 35.808,3.224 C36.5600038,2.53599656 37.5119942,2.192 38.664,2.192 C39.7200053,2.192 40.6959955,2.51999672 41.592,3.176 C41.9600018,2.87199848 42.1919995,2.50400216 42.288,2.072 L42.768,2.072 L42.768,7.352 L42.264,7.352 C42.0239988,4.551986 40.800011,3.152 38.592,3.152 C37.9199966,3.152 37.3640022,3.35599796 36.924,3.764 C36.4839978,4.17200204 36.264,4.67999696 36.264,5.288 C36.264,5.88000296 36.4759979,6.37999796 36.9,6.788 C37.3240021,7.19600204 38.0879945,7.68799712 39.192,8.264 L41.472,9.44 C43.1520084,10.2880042 43.992,11.5039921 43.992,13.088 C43.992,14.3680064 43.5480044,15.407996 42.66,16.208 C41.7719956,17.008004 40.6880064,17.408 39.408,17.408 C38.8639973,17.408 38.3440025,17.3280008 37.848,17.168 C37.3519975,17.0079992 36.904002,16.828001 36.504,16.628 C36.103998,16.427999 35.8240008,16.3120002 35.664,16.28 Z M52.576,17 L47.08,17 L47.08,16.496 C47.880004,16.496 48.3959988,16.3280017 48.628,15.992 C48.8600012,15.6559983 48.976,14.888006 48.976,13.688 L48.976,12.488 C48.976,11.3039941 48.8600012,10.5440017 48.628,10.208 C48.3959988,9.87199832 47.880004,9.704 47.08,9.704 L47.08,9.2 L50.68,8.6 L50.68,13.688 C50.68,14.888006 50.7959988,15.6559983 51.028,15.992 C51.2600012,16.3280017 51.775996,16.496 52.576,16.496 L52.576,17 Z M50.872,5.168 C50.872,5.47200152 50.768001,5.72799896 50.56,5.936 C50.351999,6.14400104 50.1040014,6.248 49.816,6.248 C49.5279986,6.248 49.280001,6.14400104 49.072,5.936 C48.863999,5.72799896 48.76,5.47200152 48.76,5.168 C48.76,4.87999856 48.863999,4.63200104 49.072,4.424 C49.280001,4.21599896 49.5279986,4.112 49.816,4.112 C50.1040014,4.112 50.351999,4.21599896 50.56,4.424 C50.768001,4.63200104 50.872,4.87999856 50.872,5.168 Z M59.984,17 L54.488,17 L54.488,16.496 C55.288004,16.496 55.8039988,16.3280017 56.036,15.992 C56.2680012,15.6559983 56.384,14.888006 56.384,13.688 L56.384,6.104 C56.384,4.903994 56.2680012,4.13600168 56.036,3.8 C55.8039988,3.46399832 55.288004,3.296 54.488,3.296 L54.488,2.792 L58.088,2.192 L58.088,13.688 C58.088,14.888006 58.2039988,15.6559983 58.436,15.992 C58.6680012,16.3280017 59.183996,16.496 59.984,16.496 L59.984,17 Z M67.872,17 L62.376,17 L62.376,16.496 C63.176004,16.496 63.6919988,16.3280017 63.924,15.992 C64.1560012,15.6559983 64.272,14.888006 64.272,13.688 L64.272,12.488 C64.272,11.3039941 64.1560012,10.5440017 63.924,10.208 C63.6919988,9.87199832 63.176004,9.704 62.376,9.704 L62.376,9.2 L65.976,8.6 L65.976,13.688 C65.976,14.888006 66.0919988,15.6559983 66.324,15.992 C66.5560012,16.3280017 67.071996,16.496 67.872,16.496 L67.872,17 Z M66.168,5.168 C66.168,5.47200152 66.064001,5.72799896 65.856,5.936 C65.647999,6.14400104 65.4000014,6.248 65.112,6.248 C64.8239986,6.248 64.576001,6.14400104 64.368,5.936 C64.159999,5.72799896 64.056,5.47200152 64.056,5.168 C64.056,4.87999856 64.159999,4.63200104 64.368,4.424 C64.576001,4.21599896 64.8239986,4.112 65.112,4.112 C65.4000014,4.112 65.647999,4.21599896 65.856,4.424 C66.064001,4.63200104 66.168,4.87999856 66.168,5.168 Z M74.728,9.368 C74.0879968,9.368 73.5440022,9.73599632 73.096,10.472 C72.6479978,11.2080037 72.424,12.1199946 72.424,13.208 C72.424,14.200005 72.6679976,14.9799972 73.156,15.548 C73.6440024,16.1160028 74.3679952,16.4 75.328,16.4 C76.2560046,16.4 77.1119961,16.0320037 77.896,15.296 L78.304,15.824 C77.3279951,16.8800053 76.136007,17.408 74.728,17.408 C73.4159934,17.408 72.3800038,17.0160039 71.62,16.232 C70.8599962,15.4479961 70.48,14.4400062 70.48,13.208 C70.48,11.8799934 70.9279955,10.7800044 71.824,9.908 C72.7200045,9.03599564 73.6879948,8.6 74.728,8.6 C75.6720047,8.6 76.3839976,8.76799832 76.864,9.104 C77.3440024,9.44000168 77.584,9.8479976 77.584,10.328 C77.584,10.5840013 77.5000008,10.8199989 77.332,11.036 C77.1639992,11.2520011 76.8960018,11.36 76.528,11.36 C76.2719987,11.36 76.0520009,11.2680009 75.868,11.084 C75.6839991,10.8999991 75.592,10.6720014 75.592,10.4 C75.592,9.71199656 75.3040029,9.368 74.728,9.368 Z M89.168,9.896 C90.1280048,10.7440042 90.608,11.7759939 90.608,12.992 C90.608,14.2080061 90.1320048,15.2479957 89.18,16.112 C88.2279952,16.9760043 87.0880066,17.408 85.76,17.408 C84.4319934,17.408 83.2920048,16.9760043 82.34,16.112 C81.3879952,15.2479957 80.912,14.2080061 80.912,12.992 C80.912,11.7759939 81.3879952,10.7400043 82.34,9.884 C83.2920048,9.02799572 84.4319934,8.6 85.76,8.6 C87.0880066,8.6 88.2239953,9.03199568 89.168,9.896 Z M87.92,15.512 C88.4160025,14.8559967 88.664,14.0160051 88.664,12.992 C88.664,11.9679949 88.4160025,11.1320032 87.92,10.484 C87.4239975,9.83599676 86.7040047,9.512 85.76,9.512 C84.8159953,9.512 84.0960025,9.83999672 83.6,10.496 C83.1039975,11.1520033 82.856,11.983995 82.856,12.992 C82.856,14.000005 83.1039975,14.8319967 83.6,15.488 C84.0960025,16.1440033 84.8159953,16.472 85.76,16.472 C86.7040047,16.472 87.4239975,16.1520032 87.92,15.512 Z M97.272,10.328 C98.1840046,9.17599424 99.2959934,8.6 100.608,8.6 C101.648005,8.6 102.427997,8.92799672 102.948,9.584 C103.468003,10.2400033 103.728,11.1039946 103.728,12.176 L103.728,13.688 C103.728,14.888006 103.843999,15.6559983 104.076,15.992 C104.308001,16.3280017 104.823996,16.496 105.624,16.496 L105.624,17 L100.128,17 L100.128,16.496 C100.912004,16.496 101.423999,16.3240017 101.664,15.98 C101.904001,15.6359983 102.024,14.8720059 102.024,13.688 L102.024,12.296 C102.024,10.5839914 101.360007,9.728 100.032,9.728 C99.3439966,9.728 98.7120029,9.9679976 98.136,10.448 C97.5599971,10.9280024 97.272,11.4879968 97.272,12.128 L97.272,13.688 C97.272,14.9200062 97.367999,15.6959984 97.56,16.016 C97.752001,16.3360016 98.2159963,16.496 98.952,16.496 L98.952,17 L93.672,17 L93.672,16.496 C94.472004,16.496 94.9879988,16.3280017 95.22,15.992 C95.4520012,15.6559983 95.568,14.888006 95.568,13.688 L95.568,12.488 C95.568,11.3039941 95.4520012,10.5440017 95.22,10.208 C94.9879988,9.87199832 94.472004,9.704 93.672,9.704 L93.672,9.2 L96.864,8.6 C97.0080007,8.90400152 97.1439994,9.47999576 97.272,10.328 Z M117.656,12.008 L116.504,14.672 C116.199998,15.3280033 116.187999,15.7959986 116.468,16.076 C116.748001,16.3560014 117.383995,16.496 118.376,16.496 L118.376,17 L112.76,17 L112.76,16.496 C113.272003,16.496 113.667999,16.4760002 113.948,16.436 C114.228001,16.3959998 114.475999,16.2680011 114.692,16.052 C114.908001,15.8359989 115.06,15.6400009 115.148,15.464 C115.236,15.2879991 115.399999,14.9360026 115.64,14.408 L120.92,2.192 L121.232,2.192 L126.536,14.408 C126.776001,14.9360026 126.94,15.2879991 127.028,15.464 C127.116,15.6400009 127.267999,15.8359989 127.484,16.052 C127.700001,16.2680011 127.943999,16.3959998 128.216,16.436 C128.488001,16.4760002 128.879997,16.496 129.392,16.496 L129.392,17 L122.744,17 L122.744,16.496 C123.736005,16.496 124.367999,16.3560014 124.64,16.076 C124.912001,15.7959986 124.904001,15.3280033 124.616,14.672 L123.464,12.008 L117.656,12.008 Z M123.056,11.12 L120.536,5.336 L118.04,11.12 L123.056,11.12 Z M131.4,9.848 L130.152,9.848 L130.152,9.272 C130.840003,9.12799928 131.343998,8.8160024 131.664,8.336 C131.984002,7.8559976 132.192,7.20000416 132.288,6.368 L133.104,6.368 L133.104,9.008 L135.192,9.008 L135.192,9.848 L133.104,9.848 L133.104,14.648 C133.104,15.8000058 133.463996,16.376 134.184,16.376 C134.648002,16.376 135.167997,16.1040027 135.744,15.56 L136.152,15.968 C135.815998,16.368002 135.412002,16.6959987 134.94,16.952 C134.467998,17.2080013 134.032002,17.336 133.632,17.336 C132.943997,17.336 132.400002,17.1120022 132,16.664 C131.599998,16.2159978 131.4,15.5440045 131.4,14.648 L131.4,9.848 Z M146.968,9.896 C147.928005,10.7440042 148.408,11.7759939 148.408,12.992 C148.408,14.2080061 147.932005,15.2479957 146.98,16.112 C146.027995,16.9760043 144.888007,17.408 143.56,17.408 C142.231993,17.408 141.092005,16.9760043 140.14,16.112 C139.187995,15.2479957 138.712,14.2080061 138.712,12.992 C138.712,11.7759939 139.187995,10.7400043 140.14,9.884 C141.092005,9.02799572 142.231993,8.6 143.56,8.6 C144.888007,8.6 146.023995,9.03199568 146.968,9.896 Z M145.72,15.512 C146.216002,14.8559967 146.464,14.0160051 146.464,12.992 C146.464,11.9679949 146.216002,11.1320032 145.72,10.484 C145.223998,9.83599676 144.504005,9.512 143.56,9.512 C142.615995,9.512 141.896002,9.83999672 141.4,10.496 C140.903998,11.1520033 140.656,11.983995 140.656,12.992 C140.656,14.000005 140.903998,14.8319967 141.4,15.488 C141.896002,16.1440033 142.615995,16.472 143.56,16.472 C144.504005,16.472 145.223998,16.1520032 145.72,15.512 Z M160.952,12.128 L160.952,13.688 C160.952,14.9520063 161.035999,15.7359985 161.204,16.04 C161.372001,16.3440015 161.791997,16.496 162.464,16.496 L162.464,17 L157.76,17 L157.76,16.496 C158.432003,16.496 158.851999,16.3440015 159.02,16.04 C159.188001,15.7359985 159.272,14.9520063 159.272,13.688 L159.272,12.296 C159.272,10.5839914 158.696006,9.728 157.544,9.728 C157.047998,9.728 156.512003,9.95999768 155.936,10.424 C155.359997,10.8880023 155.072,11.4559966 155.072,12.128 L155.072,13.688 C155.072,14.9360062 155.155999,15.7159984 155.324,16.028 C155.492001,16.3400016 155.903997,16.496 156.56,16.496 L156.56,17 L151.472,17 L151.472,16.496 C152.272004,16.496 152.787999,16.3280017 153.02,15.992 C153.252001,15.6559983 153.368,14.888006 153.368,13.688 L153.368,12.488 C153.368,11.3039941 153.252001,10.5440017 153.02,10.208 C152.787999,9.87199832 152.272004,9.704 151.472,9.704 L151.472,9.2 L154.664,8.6 C154.808001,8.90400152 154.943999,9.47999576 155.072,10.328 C155.984005,9.17599424 157.023994,8.6 158.192,8.6 C159.520007,8.6 160.367998,9.199994 160.736,10.4 C161.056002,9.95199776 161.531997,9.54000188 162.164,9.164 C162.796003,8.78799812 163.439997,8.6 164.096,8.6 C165.936009,8.6 166.856,9.79198808 166.856,12.176 L166.856,13.688 C166.856,14.888006 166.971999,15.6559983 167.204,15.992 C167.436001,16.3280017 167.951996,16.496 168.752,16.496 L168.752,17 L163.664,17 L163.664,16.496 C164.336003,16.496 164.751999,16.3440015 164.912,16.04 C165.072001,15.7359985 165.152,14.9520063 165.152,13.688 L165.152,12.296 C165.152,10.5839914 164.584006,9.728 163.448,9.728 C162.951998,9.728 162.412003,9.95999768 161.828,10.424 C161.243997,10.8880023 160.952,11.4559966 160.952,12.128 Z" id="Silicon-Atom-Copy" fill="#524740"></path>
                </g>
            </g>
        </g>
        <path d="M490.576,243.808 L492.952,243.808 L492.952,268 L490.504,268 L477.004,247.444 L477.004,268 L474.628,268 L474.628,243.808 L477.04,243.808 L490.576,264.4 L490.576,243.808 Z M504.796001,256.984 L495.112001,256.984 L495.112001,254.824 L504.796001,254.824 L504.796001,256.984 Z M519.232001,243.808 L519.232001,246.184 L510.628001,246.184 L510.628001,268 L508.252001,268 L508.252001,246.184 L499.648001,246.184 L499.648001,243.808 L519.232001,243.808 Z M527.872002,250 L530.248002,250 L520.420002,275.668 L518.044002,275.668 L521.824002,265.804 L515.164002,250 L517.540002,250 L522.940002,262.852 L527.872002,250 Z M541.300003,249.676 C543.868015,249.676 546.057993,250.581991 547.870003,252.394 C549.682012,254.206009 550.588003,256.395987 550.588003,258.964 C550.588003,261.532013 549.682012,263.721991 547.870003,265.534 C546.057993,267.346009 543.868015,268.252 541.300003,268.252 C538.419988,268.252 536.068012,267.160011 534.244003,264.976 L534.244003,276.748 L531.868003,276.748 L531.868003,249.964 L534.244003,249.964 L534.244003,252.916 C536.092012,250.755989 538.443988,249.676 541.300003,249.676 Z M536.332003,263.968 C537.676009,265.312007 539.307993,265.984 541.228003,265.984 C543.148012,265.984 544.785996,265.306007 546.142003,263.95 C547.498009,262.593993 548.176003,260.93201 548.176003,258.964 C548.176003,256.99599 547.498009,255.328007 546.142003,253.96 C544.785996,252.591993 543.148012,251.908 541.228003,251.908 C539.307993,251.908 537.676009,252.591993 536.332003,253.96 C534.987996,255.328007 534.316003,256.99599 534.316003,258.964 C534.316003,260.93201 534.987996,262.599993 536.332003,263.968 Z M560.344003,265.912 C561.952011,265.912 563.391997,265.456005 564.664003,264.544 C565.93601,263.631995 566.800001,262.564006 567.256003,261.34 L569.272003,262.06 C568.72,263.572008 567.646011,264.963994 566.050003,266.236 C564.453995,267.508006 562.552014,268.132 560.344003,268.108 C558.327993,268.108 556.486011,267.484006 554.818003,266.236 C553.149995,264.987994 552.016006,263.39201 551.416003,261.448 C551.176002,260.655996 551.056003,259.792005 551.056003,258.856 C551.056003,256.263987 551.955994,254.068009 553.756003,252.268 C555.556012,250.467991 557.75199,249.556 560.344003,249.532 C562.696015,249.556 564.747994,250.347992 566.500003,251.908 C568.252012,253.468008 569.260002,255.399988 569.524003,257.704 C569.548003,257.824001 569.560003,257.979999 569.560003,258.172 L553.828003,261.016 C554.236005,262.456007 555.051997,263.637995 556.276003,264.562 C557.500009,265.486005 558.855996,265.936 560.344003,265.912 Z M560.128003,251.728 C558.327994,251.752 556.78601,252.399994 555.502003,253.672 C554.217997,254.944006 553.528004,256.467991 553.432003,258.244 C553.432003,258.316 553.438003,258.441999 553.450003,258.622 C553.462003,258.802001 553.468003,258.951999 553.468003,259.072 L566.860003,256.66 C566.404001,255.195993 565.552009,254.002005 564.304003,253.078 C563.055997,252.153995 561.664011,251.704 560.128003,251.728 Z M586.588004,268.288 C584.979996,268.288 583.426012,267.880004 581.926004,267.064 C580.425997,266.247996 579.292008,265.432004 578.524004,264.616 L580.180004,262.996 C580.780007,263.644003 581.667999,264.309997 582.844004,264.994 C584.02001,265.678003 585.267998,266.02 586.588004,266.02 C588.196012,266.02 589.462,265.666004 590.386004,264.958 C591.310009,264.249996 591.772004,263.284006 591.772004,262.06 C591.772004,261.027995 591.322009,260.128004 590.422004,259.36 C589.522,258.591996 588.430011,257.944003 587.146004,257.416 C585.861998,256.887997 584.572011,256.330003 583.276004,255.742 C581.979998,255.153997 580.882009,254.356005 579.982004,253.348 C579.082,252.339995 578.632004,251.152007 578.632004,249.784 C578.632004,248.031991 579.291998,246.556006 580.612004,245.356 C581.932011,244.155994 583.779993,243.556 586.156004,243.556 C587.764012,243.556 589.317997,243.963996 590.818004,244.78 C592.318012,245.596004 593.452001,246.411996 594.220004,247.228 L592.564004,248.848 C591.940001,248.175997 591.04001,247.504003 589.864004,246.832 C588.687999,246.159997 587.452011,245.824 586.156004,245.824 C584.547996,245.824 583.282009,246.177996 582.358004,246.886 C581.434,247.594004 580.972004,248.559994 580.972004,249.784 C580.972004,250.816005 581.422,251.721996 582.322004,252.502 C583.222009,253.282004 584.313998,253.935997 585.598004,254.464 C586.882011,254.992003 588.171998,255.543997 589.468004,256.12 C590.764011,256.696003 591.862,257.487995 592.762004,258.496 C593.662009,259.504005 594.112004,260.691993 594.112004,262.06 C594.112004,263.812009 593.452011,265.287994 592.132004,266.488 C590.811998,267.688006 588.964016,268.288 586.588004,268.288 Z M598.936005,244.6 C598.672004,244.888001 598.336007,245.032 597.928005,245.032 C597.520003,245.032 597.178006,244.888001 596.902005,244.6 C596.626004,244.311999 596.488005,243.976002 596.488005,243.592 C596.488005,243.207998 596.626004,242.872001 596.902005,242.584 C597.178006,242.295999 597.520003,242.152 597.928005,242.152 C598.336007,242.152 598.678004,242.295999 598.954005,242.584 C599.230006,242.872001 599.368005,243.207998 599.368005,243.592 C599.368005,243.976002 599.224006,244.311999 598.936005,244.6 Z M596.740005,268 L596.740005,250 L599.116005,250 L599.116005,268 L596.740005,268 Z M602.464006,268 L602.464006,241.216 L604.840006,241.216 L604.840006,268 L602.464006,268 Z M610.384006,244.6 C610.120005,244.888001 609.784008,245.032 609.376006,245.032 C608.968004,245.032 608.626008,244.888001 608.350006,244.6 C608.074005,244.311999 607.936006,243.976002 607.936006,243.592 C607.936006,243.207998 608.074005,242.872001 608.350006,242.584 C608.626008,242.295999 608.968004,242.152 609.376006,242.152 C609.784008,242.152 610.126005,242.295999 610.402006,242.584 C610.678008,242.872001 610.816006,243.207998 610.816006,243.592 C610.816006,243.976002 610.672008,244.311999 610.384006,244.6 Z M608.188006,268 L608.188006,250 L610.564006,250 L610.564006,268 L608.188006,268 Z M621.904007,268.288 C619.335994,268.288 617.146016,267.382009 615.334007,265.57 C613.521998,263.757991 612.616007,261.568013 612.616007,259 C612.616007,256.431987 613.521998,254.242009 615.334007,252.43 C617.146016,250.617991 619.335994,249.712 621.904007,249.712 C623.536015,249.712 625.054,250.113996 626.458007,250.918 C627.862014,251.722004 628.972003,252.795993 629.788007,254.14 L627.628007,255.184 C626.980004,254.199995 626.152012,253.420003 625.144007,252.844 C624.136002,252.267997 623.056013,251.98 621.904007,251.98 C619.959997,251.98 618.322014,252.657993 616.990007,254.014 C615.658,255.370007 614.992007,257.03199 614.992007,259 C614.992007,260.96801 615.658,262.629993 616.990007,263.986 C618.322014,265.342007 619.959997,266.02 621.904007,266.02 C623.056013,266.02 624.136002,265.732003 625.144007,265.156 C626.152012,264.579997 626.980004,263.800005 627.628007,262.816 L629.788007,263.86 C628.972003,265.204007 627.862014,266.277996 626.458007,267.082 C625.054,267.886004 623.536015,268.288 621.904007,268.288 Z M646.024008,265.552 C644.223999,267.376009 642.04002,268.288 639.472008,268.288 C636.903995,268.288 634.714017,267.382009 632.902008,265.57 C631.089998,263.757991 630.184008,261.568013 630.184008,259 C630.184008,256.431987 631.089998,254.242009 632.902008,252.43 C634.714017,250.617991 636.903995,249.712 639.472008,249.712 C642.04002,249.712 644.229998,250.617991 646.042008,252.43 C647.854017,254.242009 648.760008,256.431987 648.760008,259 C648.760008,261.544013 647.848017,263.727991 646.024008,265.552 Z M639.508008,266.02 C641.452017,266.02 643.090001,265.342007 644.422008,263.986 C645.754014,262.629993 646.420008,260.96801 646.420008,259 C646.420008,257.03199 645.754014,255.364007 644.422008,253.996 C643.090001,252.627993 641.452017,251.944 639.508008,251.944 C637.587998,251.944 635.956014,252.627993 634.612008,253.996 C633.268001,255.364007 632.596008,257.03199 632.596008,259 C632.596008,260.96801 633.268001,262.629993 634.612008,263.986 C635.956014,265.342007 637.587998,266.02 639.508008,266.02 Z M658.300008,249.712 C660.388019,249.712 662.140001,250.449993 663.556008,251.926 C664.972015,253.402007 665.680008,255.219989 665.680008,257.38 L665.680008,268 L663.268008,268 L663.268008,257.452 C663.268008,255.915992 662.746013,254.608005 661.702008,253.528 C660.658003,252.447995 659.392016,251.908 657.904008,251.908 C656.416001,251.908 655.150013,252.447995 654.106008,253.528 C653.062003,254.608005 652.540008,255.915992 652.540008,257.452 L652.540008,268 L650.164008,268 L650.164008,250 L652.540008,250 L652.540008,252.664 C654.004016,250.69599 655.923996,249.712 658.300008,249.712 Z M686.812009,268.288 C683.259992,268.288 680.42802,267.106012 678.316009,264.742 C676.203999,262.377988 675.148009,259.444018 675.148009,255.94 C675.148009,252.411982 676.203999,249.466012 678.316009,247.102 C680.42802,244.737988 683.259992,243.556 686.812009,243.556 C689.164021,243.556 691.210001,244.095995 692.950009,245.176 C694.690018,246.256005 696.040005,247.731991 697.000009,249.604 L694.768009,250.9 C694.000006,249.339992 692.926016,248.104005 691.546009,247.192 C690.166003,246.279995 688.588018,245.824 686.812009,245.824 C684.075996,245.824 681.886018,246.77799 680.242009,248.686 C678.598001,250.59401 677.776009,253.011985 677.776009,255.94 C677.776009,258.844015 678.598001,261.25599 680.242009,263.176 C681.886018,265.09601 684.075996,266.056 686.812009,266.056 C688.612018,266.056 690.202003,265.594005 691.582009,264.67 C692.962016,263.745995 694.024006,262.504008 694.768009,260.944 L697.000009,262.276 C696.040005,264.148009 694.690018,265.617995 692.950009,266.686 C691.210001,267.754005 689.164021,268.288 686.812009,268.288 Z M707.08001,249.712 C708.352016,249.712 709.516005,250.023997 710.57201,250.648 L709.74401,253.024 C708.736005,252.279996 707.716015,251.908 706.68401,251.908 C705.172003,251.908 703.900015,252.441995 702.86801,253.51 C701.836005,254.578005 701.32001,255.891992 701.32001,257.452 L701.32001,268 L698.94401,268 L698.94401,250 L701.32001,250 L701.32001,252.664 C702.784017,250.69599 704.703998,249.712 707.08001,249.712 Z M723.604011,250 L725.980011,250 L716.152011,275.668 L713.776011,275.668 L717.556011,265.804 L710.896011,250 L713.272011,250 L718.672011,262.852 L723.604011,250 Z M732.676011,268.288 C731.860007,268.288 731.068015,268.186001 730.300011,267.982 C729.532007,267.777999 728.890014,267.538001 728.374011,267.262 C727.858009,266.985999 727.396013,266.704001 726.988011,266.416 C726.580009,266.127999 726.280012,265.888001 726.088011,265.696 L725.800011,265.372 L727.492011,263.932 C727.660012,264.100001 727.89401,264.303999 728.194011,264.544 C728.494013,264.784001 729.100007,265.107998 730.012011,265.516 C730.924016,265.924002 731.824007,266.128 732.712011,266.128 C734.032018,266.128 735.088007,265.876003 735.880011,265.372 C736.672015,264.867997 737.068011,264.160005 737.068011,263.248 C737.068011,262.599997 736.672015,262.042002 735.880011,261.574 C735.088007,261.105998 734.128017,260.704002 733.000011,260.368 C731.872006,260.031998 730.738017,259.660002 729.598011,259.252 C728.458006,258.843998 727.492015,258.268004 726.700011,257.524 C725.908007,256.779996 725.512011,255.868005 725.512011,254.788 C725.512011,253.299993 726.070006,252.082005 727.186011,251.134 C728.302017,250.185995 729.952,249.712 732.136011,249.712 C733.432018,249.712 734.656006,249.951998 735.808011,250.432 C736.960017,250.912002 737.788009,251.391998 738.292011,251.872 L739.048011,252.592 L737.356011,254.068 C737.18801,253.899999 736.954013,253.696001 736.654011,253.456 C736.35401,253.215999 735.748016,252.892002 734.836011,252.484 C733.924007,252.075998 733.012016,251.872 732.100011,251.872 C730.804005,251.872 729.754015,252.123997 728.950011,252.628 C728.146007,253.132003 727.744011,253.839995 727.744011,254.752 C727.744011,255.400003 728.140007,255.957998 728.932011,256.426 C729.724015,256.894002 730.684006,257.295998 731.812011,257.632 C732.940017,257.968002 734.074006,258.333998 735.214011,258.73 C736.354017,259.126002 737.320007,259.701996 738.112011,260.458 C738.904015,261.214004 739.300011,262.131995 739.300011,263.212 C739.300011,264.724008 738.748017,265.947995 737.644011,266.884 C736.540006,267.820005 734.884022,268.288 732.676011,268.288 Z M750.640012,263.968 L751.828012,265.804 C751.684011,265.996001 751.492013,266.223999 751.252012,266.488 C751.012011,266.752001 750.472016,267.117998 749.632012,267.586 C748.792008,268.054002 747.928016,268.288 747.040012,268.288 C745.528004,268.288 744.262017,267.838004 743.242012,266.938 C742.222007,266.037995 741.712012,264.736009 741.712012,263.032 L741.712012,252.16 L738.832012,252.16 L738.832012,249.964 L741.712012,249.964 L741.712012,244.276 L744.088012,243.988 L744.088012,249.964 L749.524012,249.964 L749.524012,252.16 L744.088012,252.16 L744.088012,262.492 C744.088012,263.596006 744.430009,264.471997 745.114012,265.12 C745.798015,265.768003 746.584008,266.092 747.472012,266.092 C748.024015,266.092 748.564009,265.924002 749.092012,265.588 C749.620015,265.251998 750.010011,264.922002 750.262012,264.598 C750.514013,264.273998 750.640012,264.064 750.640012,263.968 Z M767.164013,250 L769.540013,250 L769.540013,268 L767.164013,268 L767.164013,265.084 C765.316003,267.220011 762.976027,268.288 760.144013,268.288 C757.576,268.288 755.386022,267.382009 753.574013,265.57 C751.762004,263.757991 750.856013,261.568013 750.856013,259 C750.856013,256.431987 751.762004,254.242009 753.574013,252.43 C755.386022,250.617991 757.576,249.712 760.144013,249.712 C763.000027,249.712 765.340003,250.779989 767.164013,252.916 L767.164013,250 Z M760.180013,266.02 C762.124022,266.02 763.762006,265.342007 765.094013,263.986 C766.426019,262.629993 767.092013,260.96801 767.092013,259 C767.092013,257.03199 766.426019,255.370007 765.094013,254.014 C763.762006,252.657993 762.124022,251.98 760.180013,251.98 C758.260003,251.98 756.622019,252.657993 755.266013,254.014 C753.910006,255.370007 753.232013,257.03199 753.232013,259 C753.232013,260.96801 753.910006,262.629993 755.266013,263.986 C756.622019,265.342007 758.260003,266.02 760.180013,266.02 Z M772.456013,268 L772.456013,241.216 L774.832013,241.216 L774.832013,268 L772.456013,268 Z M787.900014,265.624 L798.916014,265.624 L798.916014,268 L785.524014,268 L785.524014,243.808 L787.900014,243.808 L787.900014,265.624 Z M814.720015,250 L817.096015,250 L817.096015,268 L814.720015,268 L814.720015,265.084 C812.872006,267.220011 810.532029,268.288 807.700015,268.288 C805.132002,268.288 802.942024,267.382009 801.130015,265.57 C799.318006,263.757991 798.412015,261.568013 798.412015,259 C798.412015,256.431987 799.318006,254.242009 801.130015,252.43 C802.942024,250.617991 805.132002,249.712 807.700015,249.712 C810.556029,249.712 812.896006,250.779989 814.720015,252.916 L814.720015,250 Z M807.736015,266.02 C809.680025,266.02 811.318008,265.342007 812.650015,263.986 C813.982022,262.629993 814.648015,260.96801 814.648015,259 C814.648015,257.03199 813.982022,255.370007 812.650015,254.014 C811.318008,252.657993 809.680025,251.98 807.736015,251.98 C805.816006,251.98 804.178022,252.657993 802.822015,254.014 C801.466008,255.370007 800.788015,257.03199 800.788015,259 C800.788015,260.96801 801.466008,262.629993 802.822015,263.986 C804.178022,265.342007 805.816006,266.02 807.736015,266.02 Z M829.660016,263.968 L830.848016,265.804 C830.704015,265.996001 830.512017,266.223999 830.272016,266.488 C830.032015,266.752001 829.49202,267.117998 828.652016,267.586 C827.812012,268.054002 826.94802,268.288 826.060016,268.288 C824.548008,268.288 823.282021,267.838004 822.262016,266.938 C821.242011,266.037995 820.732016,264.736009 820.732016,263.032 L820.732016,252.16 L817.852016,252.16 L817.852016,249.964 L820.732016,249.964 L820.732016,244.276 L823.108016,243.988 L823.108016,249.964 L828.544016,249.964 L828.544016,252.16 L823.108016,252.16 L823.108016,262.492 C823.108016,263.596006 823.450012,264.471997 824.134016,265.12 C824.818019,265.768003 825.604011,266.092 826.492016,266.092 C827.044018,266.092 827.584013,265.924002 828.112016,265.588 C828.640018,265.251998 829.030014,264.922002 829.282016,264.598 C829.534017,264.273998 829.660016,264.064 829.660016,263.968 Z M840.568016,263.968 L841.756016,265.804 C841.612016,265.996001 841.420018,266.223999 841.180016,266.488 C840.940015,266.752001 840.400021,267.117998 839.560016,267.586 C838.720012,268.054002 837.856021,268.288 836.968016,268.288 C835.456009,268.288 834.190021,267.838004 833.170016,266.938 C832.150011,266.037995 831.640016,264.736009 831.640016,263.032 L831.640016,252.16 L828.760016,252.16 L828.760016,249.964 L831.640016,249.964 L831.640016,244.276 L834.016016,243.988 L834.016016,249.964 L839.452016,249.964 L839.452016,252.16 L834.016016,252.16 L834.016016,262.492 C834.016016,263.596006 834.358013,264.471997 835.042016,265.12 C835.72602,265.768003 836.512012,266.092 837.400016,266.092 C837.952019,266.092 838.492014,265.924002 839.020016,265.588 C839.548019,265.251998 839.938015,264.922002 840.190016,264.598 C840.442018,264.273998 840.568016,264.064 840.568016,263.968 Z M845.248017,244.6 C844.984016,244.888001 844.648019,245.032 844.240017,245.032 C843.832015,245.032 843.490018,244.888001 843.214017,244.6 C842.938016,244.311999 842.800017,243.976002 842.800017,243.592 C842.800017,243.207998 842.938016,242.872001 843.214017,242.584 C843.490018,242.295999 843.832015,242.152 844.240017,242.152 C844.648019,242.152 844.990016,242.295999 845.266017,242.584 C845.542018,242.872001 845.680017,243.207998 845.680017,243.592 C845.680017,243.976002 845.536018,244.311999 845.248017,244.6 Z M843.052017,268 L843.052017,250 L845.428017,250 L845.428017,268 L843.052017,268 Z M856.768018,268.288 C854.200005,268.288 852.010027,267.382009 850.198018,265.57 C848.386009,263.757991 847.480018,261.568013 847.480018,259 C847.480018,256.431987 848.386009,254.242009 850.198018,252.43 C852.010027,250.617991 854.200005,249.712 856.768018,249.712 C858.400026,249.712 859.918011,250.113996 861.322018,250.918 C862.726025,251.722004 863.836014,252.795993 864.652018,254.14 L862.492018,255.184 C861.844014,254.199995 861.016023,253.420003 860.008018,252.844 C859.000013,252.267997 857.920023,251.98 856.768018,251.98 C854.824008,251.98 853.186024,252.657993 851.854018,254.014 C850.522011,255.370007 849.856018,257.03199 849.856018,259 C849.856018,260.96801 850.522011,262.629993 851.854018,263.986 C853.186024,265.342007 854.824008,266.02 856.768018,266.02 C857.920023,266.02 859.000013,265.732003 860.008018,265.156 C861.016023,264.579997 861.844014,263.800005 862.492018,262.816 L864.652018,263.86 C863.836014,265.204007 862.726025,266.277996 861.322018,267.082 C859.918011,267.886004 858.400026,268.288 856.768018,268.288 Z M874.336018,265.912 C875.944026,265.912 877.384012,265.456005 878.656018,264.544 C879.928025,263.631995 880.792016,262.564006 881.248018,261.34 L883.264018,262.06 C882.712015,263.572008 881.638026,264.963994 880.042018,266.236 C878.44601,267.508006 876.544029,268.132 874.336018,268.108 C872.320008,268.108 870.478027,267.484006 868.810018,266.236 C867.14201,264.987994 866.008021,263.39201 865.408018,261.448 C865.168017,260.655996 865.048018,259.792005 865.048018,258.856 C865.048018,256.263987 865.948009,254.068009 867.748018,252.268 C869.548027,250.467991 871.744005,249.556 874.336018,249.532 C876.68803,249.556 878.740009,250.347992 880.492018,251.908 C882.244027,253.468008 883.252017,255.399988 883.516018,257.704 C883.540018,257.824001 883.552018,257.979999 883.552018,258.172 L867.820018,261.016 C868.22802,262.456007 869.044012,263.637995 870.268018,264.562 C871.492024,265.486005 872.848011,265.936 874.336018,265.912 Z M874.120018,251.728 C872.320009,251.752 870.778025,252.399994 869.494018,253.672 C868.210012,254.944006 867.520019,256.467991 867.424018,258.244 C867.424018,258.316 867.430018,258.441999 867.442018,258.622 C867.454018,258.802001 867.460018,258.951999 867.460018,259.072 L880.852018,256.66 C880.396016,255.195993 879.544024,254.002005 878.296018,253.078 C877.048012,252.153995 875.656026,251.704 874.120018,251.728 Z" id="N-Type-Silicon-Cryst-Copy" fill="#23ABE3"></path>
    </g>
</svg>