<?xml version="1.0" encoding="UTF-8"?>
<svg width="900px" height="430px" viewBox="0 0 900 430" version="1.1" xmlns="http://www.w3.org/2000/svg" xmlns:xlink="http://www.w3.org/1999/xlink">
    <!-- Generator: Sketch 52.5 (67469) - http://www.bohemiancoding.com/sketch -->
    <title>N-Type_Silicon_Crystal</title>
    <desc>Created with Sketch.</desc>
    <g id="N-Type_Silicon_Crystal" stroke="none" stroke-width="1" fill="none" fill-rule="evenodd">
        <rect id="Rectangle" stroke="#3D3530" stroke-width="2" fill="#EEEEEE" x="1" y="1" width="898" height="448"></rect>
        <g id="Illustration" transform="translate(202.000000, 13.000000)">
            <ellipse id="Extra-Electron-Orbit" stroke="#524740" stroke-width="3" transform="translate(177.836448, 198.948956) rotate(-13.000000) translate(-177.836448, -198.948956) " cx="177.836448" cy="198.948956" rx="86" ry="43.5"></ellipse>
            <g id="Connectors" transform="translate(71.000000, 79.000000)" stroke="#524740" stroke-width="2">
                <path d="M0.576010071,34.4848177 L64,94.0891175" id="Path-4"></path>
                <path d="M6.98835279,165.073915 L64.8529269,132.18612" id="Path-4-Copy-2"></path>
                <path d="M31.5962499,198.487616 L82.1455016,152.235338" id="Path-4-Copy-3"></path>
                <path d="M178.665386,212.173625 L125.187513,152.554371" id="Path-4-Copy-4"></path>
                <path d="M190.995505,30.9978889 L142.066342,88.8923723" id="Path-4-Copy-6"></path>
                <path d="M161.308007,9.59776687 L120.120375,72.3425458" id="Path-4-Copy-7"></path>
                <path d="M204.484611,180.888471 L144.852894,132.07396" id="Path-4-Copy-5"></path>
                <path d="M39.0411794,0.146420176 L85.8642277,70.3959472" id="Path-4-Copy"></path>
            </g>
            <circle id="Oval-Copy-11" fill="#EF7D3B" cx="105" cy="113" r="12"></circle>
            <circle id="Oval-Copy-12" fill="#EF7D3B" cx="127" cy="137" r="12"></circle>
            <circle id="Oval-Copy-13" fill="#EF7D3B" cx="232" cy="120" r="12"></circle>
            <circle id="Oval-Copy-15" fill="#EF7D3B" cx="216" cy="142" r="12"></circle>
            <circle id="Oval-Copy-20" fill="#EF7D3B" cx="261" cy="183" r="12"></circle>
            <circle id="Oval-Copy-16" fill="#EF7D3B" cx="224" cy="239" r="12"></circle>
            <circle id="Oval-Copy-17" fill="#EF7D3B" cx="245" cy="258" r="12"></circle>
            <circle id="Oval-Copy-18" fill="#EF7D3B" cx="129" cy="233" r="12"></circle>
            <circle id="Oval-Copy-19" fill="#EF7D3B" cx="107" cy="249" r="12"></circle>
            <circle id="Oval-Copy-14" fill="#EF7D3B" cx="190" cy="166" r="12"></circle>
            <circle id="Oval" fill="#252525" cx="57.5" cy="57.5" r="57.5"></circle>
            <circle id="Oval-Copy" fill="#252525" cx="294" cy="304" r="53"></circle>
            <circle id="Oval-Copy-2" fill="#252525" cx="63.5" cy="281.5" r="41.5"></circle>
            <circle id="Oval-Copy-4" fill="#D7E465" cx="176.5" cy="192.5" r="47.5"></circle>
            <circle id="Oval-Copy-3" fill="#252525" cx="264.5" cy="71.5" r="40.5"></circle>
            <g id="Label" transform="translate(271.000000, 181.000000)">
                <polyline id="Path-5" stroke="#B09679" stroke-width="3" fill="#D8D8D8" points="0 4.05748672 52 11.7908666 89 11.7908666"></polyline>
                <path d="M103.944,17 L103.944,16.496 C104.936005,16.496 105.563999,16.3280017 105.828,15.992 C106.092001,15.6559983 106.224,14.888006 106.224,13.688 L106.224,5.888 C106.224,4.687994 106.092001,3.92400164 105.828,3.596 C105.563999,3.26799836 104.936005,3.104 103.944,3.104 L103.944,2.6 L114.888,2.6 L115.104,5.768 L114.6,5.768 L114.48,5.288 C114.287999,4.58399648 114.032002,4.10800124 113.712,3.86 C113.391998,3.61199876 112.720005,3.488 111.696,3.488 L108.144,3.488 L108.144,8.936 L109.344,8.936 C110.544006,8.936 111.307998,8.80400132 111.636,8.54 C111.964002,8.27599868 112.128,7.64000504 112.128,6.632 L112.632,6.632 L112.632,12.128 L112.128,12.128 C112.128,11.119995 111.964002,10.4840013 111.636,10.22 C111.307998,9.95599868 110.544006,9.824 109.344,9.824 L108.144,9.824 L108.144,13.328 C108.144,14.528006 108.275999,15.2919984 108.54,15.62 C108.804001,15.9480016 109.431995,16.112 110.424,16.112 L112.488,16.112 C113.208004,16.112 113.755998,16.0400007 114.132,15.896 C114.508002,15.7519993 114.763999,15.5680011 114.9,15.344 C115.036001,15.1199989 115.159999,14.7680024 115.272,14.288 L115.392,13.808 L115.896,13.808 L115.704,17 L103.944,17 Z M122.664,13.832 L121.464,15.104 C120.535995,16.0320046 120.703994,16.496 121.968,16.496 L121.968,17 L118.272,17 L118.272,16.496 C118.736002,16.496 119.431995,16.0320046 120.36,15.104 L122.184,13.184 L120.528,10.904 C120.095998,10.3439972 119.736001,9.96800096 119.448,9.776 C119.159999,9.58399904 118.816002,9.488 118.416,9.488 L118.416,9.008 L123.264,9.008 L123.264,9.488 C122.575997,9.488 122.184,9.587999 122.088,9.788 C121.992,9.988001 122.151998,10.3599973 122.568,10.904 L123.336,11.96 L124.344,10.904 C124.776002,10.4239976 124.928001,10.0680012 124.8,9.836 C124.671999,9.60399884 124.352003,9.488 123.84,9.488 L123.84,9.008 L127.752,9.008 L127.752,9.488 C127.111997,9.488 126.344004,9.95999528 125.448,10.904 L123.816,12.608 L125.616,15.104 C125.984002,15.6320026 126.331998,15.995999 126.66,16.196 C126.988002,16.396001 127.399998,16.496 127.896,16.496 L127.896,17 L122.856,17 L122.856,16.496 C123.480003,16.496 123.843999,16.3800012 123.948,16.148 C124.052001,15.9159988 123.928002,15.5680023 123.576,15.104 L122.664,13.832 Z M131.016,9.848 L129.768,9.848 L129.768,9.272 C130.456003,9.12799928 130.959998,8.8160024 131.28,8.336 C131.600002,7.8559976 131.808,7.20000416 131.904,6.368 L132.72,6.368 L132.72,9.008 L134.808,9.008 L134.808,9.848 L132.72,9.848 L132.72,14.648 C132.72,15.8000058 133.079996,16.376 133.8,16.376 C134.264002,16.376 134.783997,16.1040027 135.36,15.56 L135.768,15.968 C135.431998,16.368002 135.028002,16.6959987 134.556,16.952 C134.083998,17.2080013 133.648002,17.336 133.248,17.336 C132.559997,17.336 132.016002,17.1120022 131.616,16.664 C131.215998,16.2159978 131.016,15.5440045 131.016,14.648 L131.016,9.848 Z M146.304,10.088 C146.304,10.8400038 145.984003,11.216 145.344,11.216 C145.119999,11.216 144.924001,11.1280009 144.756,10.952 C144.587999,10.7759991 144.504,10.5760011 144.504,10.352 C144.504,9.82399736 144.248003,9.56 143.736,9.56 C143.367998,9.56 142.968002,9.81599744 142.536,10.328 C142.103998,10.8400026 141.888,11.5199958 141.888,12.368 L141.888,13.688 C141.888,14.888006 142.003999,15.6559983 142.236,15.992 C142.468001,16.3280017 142.983996,16.496 143.784,16.496 L143.784,17 L138.288,17 L138.288,16.496 C139.088004,16.496 139.603999,16.3280017 139.836,15.992 C140.068001,15.6559983 140.184,14.888006 140.184,13.688 L140.184,12.488 C140.184,11.3039941 140.068001,10.5440017 139.836,10.208 C139.603999,9.87199832 139.088004,9.704 138.288,9.704 L138.288,9.2 L141.48,8.6 C141.624001,8.90400152 141.759999,9.47999576 141.888,10.328 C142.128001,9.8479976 142.487998,9.44000168 142.968,9.104 C143.448002,8.76799832 143.927998,8.6 144.408,8.6 C145.016003,8.6 145.483998,8.7599984 145.812,9.08 C146.140002,9.4000016 146.304,9.73599824 146.304,10.088 Z M157.176,16.52 C156.711998,17.0160025 156.184003,17.264 155.592,17.264 C154.631995,17.264 154.088001,16.8000046 153.96,15.872 C152.887995,16.8320048 151.888005,17.312 150.96,17.312 C150.351997,17.312 149.840002,17.1320018 149.424,16.772 C149.007998,16.4119982 148.8,15.9200031 148.8,15.296 C148.8,13.6159916 150.503983,12.480003 153.912,11.888 C153.912,10.9439953 153.808001,10.2880018 153.6,9.92 C153.391999,9.55199816 152.960003,9.368 152.304,9.368 C151.983998,9.368 151.676001,9.47199896 151.38,9.68 C151.083999,9.88800104 150.936,10.1679982 150.936,10.52 C150.936,10.7600012 150.856001,10.9599992 150.696,11.12 C150.535999,11.2800008 150.344001,11.36 150.12,11.36 C149.879999,11.36 149.680001,11.2800008 149.52,11.12 C149.359999,10.9599992 149.28,10.7600012 149.28,10.52 C149.28,9.9599972 149.587997,9.5000018 150.204,9.14 C150.820003,8.7799982 151.527996,8.6 152.328,8.6 C153.496006,8.6 154.335997,8.85599744 154.848,9.368 C155.360003,9.88000256 155.616,10.7119942 155.616,11.864 L155.616,15.488 C155.616,16.1120031 155.799998,16.424 156.168,16.424 C156.376001,16.424 156.599999,16.3040012 156.84,16.064 L157.176,16.52 Z M153.912,15.08 L153.912,12.632 C151.703989,13.1440026 150.6,13.9359946 150.6,15.008 C150.6,15.3760018 150.707999,15.6719989 150.924,15.896 C151.140001,16.1200011 151.407998,16.232 151.728,16.232 C152.320003,16.232 153.047996,15.8480038 153.912,15.08 Z M166.464,17 L166.464,16.496 C167.456005,16.496 168.083999,16.3280017 168.348,15.992 C168.612001,15.6559983 168.744,14.888006 168.744,13.688 L168.744,5.888 C168.744,4.687994 168.612001,3.92400164 168.348,3.596 C168.083999,3.26799836 167.456005,3.104 166.464,3.104 L166.464,2.6 L177.408,2.6 L177.624,5.768 L177.12,5.768 L177,5.288 C176.807999,4.58399648 176.552002,4.10800124 176.232,3.86 C175.911998,3.61199876 175.240005,3.488 174.216,3.488 L170.664,3.488 L170.664,8.936 L171.864,8.936 C173.064006,8.936 173.827998,8.80400132 174.156,8.54 C174.484002,8.27599868 174.648,7.64000504 174.648,6.632 L175.152,6.632 L175.152,12.128 L174.648,12.128 C174.648,11.119995 174.484002,10.4840013 174.156,10.22 C173.827998,9.95599868 173.064006,9.824 171.864,9.824 L170.664,9.824 L170.664,13.328 C170.664,14.528006 170.795999,15.2919984 171.06,15.62 C171.324001,15.9480016 171.951995,16.112 172.944,16.112 L175.008,16.112 C175.728004,16.112 176.275998,16.0400007 176.652,15.896 C177.028002,15.7519993 177.283999,15.5680011 177.42,15.344 C177.556001,15.1199989 177.679999,14.7680024 177.792,14.288 L177.912,13.808 L178.416,13.808 L178.224,17 L166.464,17 Z M186.696,17 L181.2,17 L181.2,16.496 C182.000004,16.496 182.515999,16.3280017 182.748,15.992 C182.980001,15.6559983 183.096,14.888006 183.096,13.688 L183.096,6.104 C183.096,4.903994 182.980001,4.13600168 182.748,3.8 C182.515999,3.46399832 182.000004,3.296 181.2,3.296 L181.2,2.792 L184.8,2.192 L184.8,13.688 C184.8,14.888006 184.915999,15.6559983 185.148,15.992 C185.380001,16.3280017 185.895996,16.496 186.696,16.496 L186.696,17 Z M191.592,11.504 L195.576,11.504 C195.736001,11.0559978 195.668001,10.6200021 195.372,10.196 C195.075999,9.77199788 194.568004,9.56 193.848,9.56 C193.335997,9.56 192.876002,9.73599824 192.468,10.088 C192.059998,10.4400018 191.768001,10.911997 191.592,11.504 Z M191.448,12.392 C191.303999,13.5760059 191.491997,14.5399963 192.012,15.284 C192.532003,16.0280037 193.383994,16.4 194.568,16.4 C194.968002,16.4 195.423997,16.296001 195.936,16.088 C196.448003,15.879999 196.871998,15.6160016 197.208,15.296 L197.64,15.824 C197.207998,16.2880023 196.656003,16.6679985 195.984,16.964 C195.311997,17.2600015 194.640003,17.408 193.968,17.408 C192.671994,17.408 191.608004,16.9800043 190.776,16.124 C189.943996,15.2679957 189.528,14.2240062 189.528,12.992 C189.528,11.7599938 189.979995,10.7200042 190.884,9.872 C191.788005,9.02399576 192.815994,8.6 193.968,8.6 C195.056005,8.6 195.943997,8.9799962 196.632,9.74 C197.320003,10.5000038 197.520001,11.383995 197.232,12.392 L191.448,12.392 Z M205.104,9.368 C204.463997,9.368 203.920002,9.73599632 203.472,10.472 C203.023998,11.2080037 202.8,12.1199946 202.8,13.208 C202.8,14.200005 203.043998,14.9799972 203.532,15.548 C204.020002,16.1160028 204.743995,16.4 205.704,16.4 C206.632005,16.4 207.487996,16.0320037 208.272,15.296 L208.68,15.824 C207.703995,16.8800053 206.512007,17.408 205.104,17.408 C203.791993,17.408 202.756004,17.0160039 201.996,16.232 C201.235996,15.4479961 200.856,14.4400062 200.856,13.208 C200.856,11.8799934 201.303996,10.7800044 202.2,9.908 C203.096004,9.03599564 204.063995,8.6 205.104,8.6 C206.048005,8.6 206.759998,8.76799832 207.24,9.104 C207.720002,9.44000168 207.96,9.8479976 207.96,10.328 C207.96,10.5840013 207.876001,10.8199989 207.708,11.036 C207.539999,11.2520011 207.272002,11.36 206.904,11.36 C206.647999,11.36 206.428001,11.2680009 206.244,11.084 C206.059999,10.8999991 205.968,10.6720014 205.968,10.4 C205.968,9.71199656 205.680003,9.368 205.104,9.368 Z M212.256,9.848 L211.008,9.848 L211.008,9.272 C211.696003,9.12799928 212.199998,8.8160024 212.52,8.336 C212.840002,7.8559976 213.048,7.20000416 213.144,6.368 L213.96,6.368 L213.96,9.008 L216.048,9.008 L216.048,9.848 L213.96,9.848 L213.96,14.648 C213.96,15.8000058 214.319996,16.376 215.04,16.376 C215.504002,16.376 216.023997,16.1040027 216.6,15.56 L217.008,15.968 C216.671998,16.368002 216.268002,16.6959987 215.796,16.952 C215.323998,17.2080013 214.888002,17.336 214.488,17.336 C213.799997,17.336 213.256002,17.1120022 212.856,16.664 C212.455998,16.2159978 212.256,15.5440045 212.256,14.648 L212.256,9.848 Z M227.544,10.088 C227.544,10.8400038 227.224003,11.216 226.584,11.216 C226.359999,11.216 226.164001,11.1280009 225.996,10.952 C225.827999,10.7759991 225.744,10.5760011 225.744,10.352 C225.744,9.82399736 225.488003,9.56 224.976,9.56 C224.607998,9.56 224.208002,9.81599744 223.776,10.328 C223.343998,10.8400026 223.128,11.5199958 223.128,12.368 L223.128,13.688 C223.128,14.888006 223.243999,15.6559983 223.476,15.992 C223.708001,16.3280017 224.223996,16.496 225.024,16.496 L225.024,17 L219.528,17 L219.528,16.496 C220.328004,16.496 220.843999,16.3280017 221.076,15.992 C221.308001,15.6559983 221.424,14.888006 221.424,13.688 L221.424,12.488 C221.424,11.3039941 221.308001,10.5440017 221.076,10.208 C220.843999,9.87199832 220.328004,9.704 219.528,9.704 L219.528,9.2 L222.72,8.6 C222.864001,8.90400152 222.999999,9.47999576 223.128,10.328 C223.368001,9.8479976 223.727998,9.44000168 224.208,9.104 C224.688002,8.76799832 225.167998,8.6 225.648,8.6 C226.256003,8.6 226.723998,8.7599984 227.052,9.08 C227.380002,9.4000016 227.544,9.73599824 227.544,10.088 Z M238.656,9.896 C239.616005,10.7440042 240.096,11.7759939 240.096,12.992 C240.096,14.2080061 239.620005,15.2479957 238.668,16.112 C237.715995,16.9760043 236.576007,17.408 235.248,17.408 C233.919993,17.408 232.780005,16.9760043 231.828,16.112 C230.875995,15.2479957 230.4,14.2080061 230.4,12.992 C230.4,11.7759939 230.875995,10.7400043 231.828,9.884 C232.780005,9.02799572 233.919993,8.6 235.248,8.6 C236.576007,8.6 237.711995,9.03199568 238.656,9.896 Z M237.408,15.512 C237.904002,14.8559967 238.152,14.0160051 238.152,12.992 C238.152,11.9679949 237.904002,11.1320032 237.408,10.484 C236.911998,9.83599676 236.192005,9.512 235.248,9.512 C234.303995,9.512 233.584002,9.83999672 233.088,10.496 C232.591998,11.1520033 232.344,11.983995 232.344,12.992 C232.344,14.000005 232.591998,14.8319967 233.088,15.488 C233.584002,16.1440033 234.303995,16.472 235.248,16.472 C236.192005,16.472 236.911998,16.1520032 237.408,15.512 Z M246.96,10.328 C247.872005,9.17599424 248.983993,8.6 250.296,8.6 C251.336005,8.6 252.115997,8.92799672 252.636,9.584 C253.156003,10.2400033 253.416,11.1039946 253.416,12.176 L253.416,13.688 C253.416,14.888006 253.531999,15.6559983 253.764,15.992 C253.996001,16.3280017 254.511996,16.496 255.312,16.496 L255.312,17 L249.816,17 L249.816,16.496 C250.600004,16.496 251.111999,16.3240017 251.352,15.98 C251.592001,15.6359983 251.712,14.8720059 251.712,13.688 L251.712,12.296 C251.712,10.5839914 251.048007,9.728 249.72,9.728 C249.031997,9.728 248.400003,9.9679976 247.824,10.448 C247.247997,10.9280024 246.96,11.4879968 246.96,12.128 L246.96,13.688 C246.96,14.9200062 247.055999,15.6959984 247.248,16.016 C247.440001,16.3360016 247.903996,16.496 248.64,16.496 L248.64,17 L243.36,17 L243.36,16.496 C244.160004,16.496 244.675999,16.3280017 244.908,15.992 C245.140001,15.6559983 245.256,14.888006 245.256,13.688 L245.256,12.488 C245.256,11.3039941 245.140001,10.5440017 244.908,10.208 C244.675999,9.87199832 244.160004,9.704 243.36,9.704 L243.36,9.2 L246.552,8.6 C246.696001,8.90400152 246.831999,9.47999576 246.96,10.328 Z" id="Extra-Electron-Copy" fill="#524740"></path>
            </g>
            <polygon id="+-copy" fill="#524740" points="191.961999 191.844 191.961999 195.804 178.959999 195.804 178.959999 208.806 174.999999 208.806 174.999999 195.804 161.997999 195.804 161.997999 191.844 174.999999 191.844 174.999999 178.842 178.959999 178.842 178.959999 191.844"></polygon>
        </g>
        <rect id="Rectangle-Copy" stroke="#3D3530" stroke-width="2" fill="#F8FAE4" x="1" y="386" width="898" height="43"></rect>
        <path d="M387.802666,415 L387.802666,398.872 L393.274666,398.872 C395.082675,398.872 396.52266,399.347995 397.594666,400.3 C398.666671,401.252005 399.202666,402.447993 399.202666,403.888 C399.202666,405.312007 398.666671,406.503995 397.594666,407.464 C396.52266,408.424005 395.082675,408.904 393.274666,408.904 L389.386666,408.904 L389.386666,415 L387.802666,415 Z M389.386666,407.392 L393.274666,407.392 C394.570672,407.392 395.610662,407.060003 396.394666,406.396 C397.17867,405.731997 397.570666,404.896005 397.570666,403.888 C397.570666,402.895995 397.17867,402.064003 396.394666,401.392 C395.610662,400.719997 394.570672,400.384 393.274666,400.384 L389.386666,400.384 L389.386666,407.392 Z M408.317333,402.808 C409.709339,402.808 410.877328,403.307995 411.821333,404.308 C412.765337,405.308005 413.237333,406.527993 413.237333,407.968 L413.237333,415 L411.629333,415 L411.629333,407.992 C411.629333,406.951995 411.285336,406.076004 410.597333,405.364 C409.909329,404.651996 409.061338,404.296 408.053333,404.296 C407.061328,404.296 406.217336,404.651996 405.521333,405.364 C404.825329,406.076004 404.477333,406.943995 404.477333,407.968 L404.477333,415 L402.893333,415 L402.893333,397.144 L404.477333,397.144 L404.477333,404.776 C405.453337,403.463993 406.733325,402.808 408.317333,402.808 Z M426.719999,413.368 C425.519993,414.584006 424.064008,415.192 422.351999,415.192 C420.639991,415.192 419.180005,414.588006 417.971999,413.38 C416.763993,412.171994 416.159999,410.712009 416.159999,409 C416.159999,407.287991 416.763993,405.828006 417.971999,404.62 C419.180005,403.411994 420.639991,402.808 422.351999,402.808 C424.064008,402.808 425.523993,403.411994 426.731999,404.62 C427.940005,405.828006 428.543999,407.287991 428.543999,409 C428.543999,410.696008 427.936005,412.151994 426.719999,413.368 Z M422.375999,413.68 C423.672006,413.68 424.763995,413.228005 425.651999,412.324 C426.540004,411.419995 426.983999,410.312007 426.983999,409 C426.983999,407.687993 426.540004,406.576005 425.651999,405.664 C424.763995,404.751995 423.672006,404.296 422.375999,404.296 C421.095993,404.296 420.008004,404.751995 419.111999,405.664 C418.215995,406.576005 417.767999,407.687993 417.767999,409 C417.767999,410.312007 418.215995,411.419995 419.111999,412.324 C420.008004,413.228005 421.095993,413.68 422.375999,413.68 Z M435.858666,415.192 C435.314663,415.192 434.786668,415.124001 434.274666,414.988 C433.762663,414.851999 433.334668,414.692001 432.990666,414.508 C432.646664,414.323999 432.338667,414.136001 432.066666,413.944 C431.794665,413.751999 431.594667,413.592001 431.466666,413.464 L431.274666,413.248 L432.402666,412.288 C432.514666,412.400001 432.670665,412.535999 432.870666,412.696 C433.070667,412.856001 433.474663,413.071999 434.082666,413.344 C434.690669,413.616001 435.290663,413.752 435.882666,413.752 C436.76267,413.752 437.466663,413.584002 437.994666,413.248 C438.522669,412.911998 438.786666,412.440003 438.786666,411.832 C438.786666,411.399998 438.522669,411.028002 437.994666,410.716 C437.466663,410.403998 436.82667,410.136001 436.074666,409.912 C435.322662,409.687999 434.56667,409.440001 433.806666,409.168 C433.046662,408.895999 432.402669,408.512002 431.874666,408.016 C431.346663,407.519998 431.082666,406.912004 431.082666,406.192 C431.082666,405.199995 431.454662,404.388003 432.198666,403.756 C432.94267,403.123997 434.042659,402.808 435.498666,402.808 C436.36267,402.808 437.178662,402.967998 437.946666,403.288 C438.71467,403.608002 439.266664,403.927998 439.602666,404.248 L440.106666,404.728 L438.978666,405.712 C438.866665,405.599999 438.710667,405.464001 438.510666,405.304 C438.310665,405.143999 437.906669,404.928001 437.298666,404.656 C436.690663,404.383999 436.082669,404.248 435.474666,404.248 C434.610662,404.248 433.910669,404.415998 433.374666,404.752 C432.838663,405.088002 432.570666,405.559997 432.570666,406.168 C432.570666,406.600002 432.834663,406.971998 433.362666,407.284 C433.890669,407.596002 434.530662,407.863999 435.282666,408.088 C436.03467,408.312001 436.790662,408.555999 437.550666,408.82 C438.31067,409.084001 438.954663,409.467997 439.482666,409.972 C440.010669,410.476003 440.274666,411.087996 440.274666,411.808 C440.274666,412.816005 439.90667,413.631997 439.170666,414.256 C438.434662,414.880003 437.330673,415.192 435.858666,415.192 Z M449.965333,402.784 C451.677341,402.784 453.137327,403.387994 454.345333,404.596 C455.553339,405.804006 456.157333,407.263991 456.157333,408.976 C456.157333,410.688009 455.553339,412.147994 454.345333,413.356 C453.137327,414.564006 451.677341,415.168 449.965333,415.168 C448.045323,415.168 446.477339,414.440007 445.261333,412.984 L445.261333,420.832 L443.677333,420.832 L443.677333,402.976 L445.261333,402.976 L445.261333,404.944 C446.493339,403.503993 448.061323,402.784 449.965333,402.784 Z M446.653333,412.312 C447.549337,413.208004 448.637326,413.656 449.917333,413.656 C451.197339,413.656 452.289328,413.204005 453.193333,412.3 C454.097337,411.395995 454.549333,410.288007 454.549333,408.976 C454.549333,407.663993 454.097337,406.552005 453.193333,405.64 C452.289328,404.727995 451.197339,404.272 449.917333,404.272 C448.637326,404.272 447.549337,404.727995 446.653333,405.64 C445.757328,406.552005 445.309333,407.663993 445.309333,408.976 C445.309333,410.288007 445.757328,411.399995 446.653333,412.312 Z M464.863999,402.808 C466.256006,402.808 467.423995,403.307995 468.367999,404.308 C469.312004,405.308005 469.783999,406.527993 469.783999,407.968 L469.783999,415 L468.175999,415 L468.175999,407.992 C468.175999,406.951995 467.832003,406.076004 467.143999,405.364 C466.455996,404.651996 465.608004,404.296 464.599999,404.296 C463.607994,404.296 462.764003,404.651996 462.067999,405.364 C461.371996,406.076004 461.023999,406.943995 461.023999,407.968 L461.023999,415 L459.439999,415 L459.439999,397.144 L461.023999,397.144 L461.023999,404.776 C462.000004,403.463993 463.279991,402.808 464.863999,402.808 Z M483.266666,413.368 C482.06666,414.584006 480.610675,415.192 478.898666,415.192 C477.186657,415.192 475.726672,414.588006 474.518666,413.38 C473.31066,412.171994 472.706666,410.712009 472.706666,409 C472.706666,407.287991 473.31066,405.828006 474.518666,404.62 C475.726672,403.411994 477.186657,402.808 478.898666,402.808 C480.610675,402.808 482.07066,403.411994 483.278666,404.62 C484.486672,405.828006 485.090666,407.287991 485.090666,409 C485.090666,410.696008 484.482672,412.151994 483.266666,413.368 Z M478.922666,413.68 C480.218672,413.68 481.310662,413.228005 482.198666,412.324 C483.08667,411.419995 483.530666,410.312007 483.530666,409 C483.530666,407.687993 483.08667,406.576005 482.198666,405.664 C481.310662,404.751995 480.218672,404.296 478.922666,404.296 C477.64266,404.296 476.55467,404.751995 475.658666,405.664 C474.762661,406.576005 474.314666,407.687993 474.314666,409 C474.314666,410.312007 474.762661,411.419995 475.658666,412.324 C476.55467,413.228005 477.64266,413.68 478.922666,413.68 Z M493.557333,402.808 C494.405337,402.808 495.181329,403.015998 495.885333,403.432 L495.333333,405.016 C494.661329,404.519998 493.981336,404.272 493.293333,404.272 C492.285328,404.272 491.437336,404.627996 490.749333,405.34 C490.061329,406.052004 489.717333,406.927995 489.717333,407.968 L489.717333,415 L488.133333,415 L488.133333,403 L489.717333,403 L489.717333,404.776 C490.693338,403.463993 491.973325,402.808 493.557333,402.808 Z M507.567999,413.368 C506.367993,414.584006 504.912008,415.192 503.199999,415.192 C501.487991,415.192 500.028005,414.588006 498.819999,413.38 C497.611993,412.171994 497.007999,410.712009 497.007999,409 C497.007999,407.287991 497.611993,405.828006 498.819999,404.62 C500.028005,403.411994 501.487991,402.808 503.199999,402.808 C504.912008,402.808 506.371993,403.411994 507.579999,404.62 C508.788005,405.828006 509.391999,407.287991 509.391999,409 C509.391999,410.696008 508.784005,412.151994 507.567999,413.368 Z M503.223999,413.68 C504.520006,413.68 505.611995,413.228005 506.499999,412.324 C507.388004,411.419995 507.831999,410.312007 507.831999,409 C507.831999,407.687993 507.388004,406.576005 506.499999,405.664 C505.611995,404.751995 504.520006,404.296 503.223999,404.296 C501.943993,404.296 500.856004,404.751995 499.959999,405.664 C499.063995,406.576005 498.615999,407.687993 498.615999,409 C498.615999,410.312007 499.063995,411.419995 499.959999,412.324 C500.856004,413.228005 501.943993,413.68 503.223999,413.68 Z M521.050666,403 L522.634666,403 L522.634666,415 L521.050666,415 L521.050666,413.224 C520.074661,414.536007 518.794674,415.192 517.210666,415.192 C515.818659,415.192 514.650671,414.700005 513.706666,413.716 C512.762661,412.731995 512.290666,411.520007 512.290666,410.08 L512.290666,403 L513.922666,403 L513.922666,410.032 C513.922666,411.056005 514.266663,411.923996 514.954666,412.636 C515.642669,413.348004 516.482661,413.704 517.474666,413.704 C518.482671,413.704 519.330663,413.348004 520.018666,412.636 C520.706669,411.923996 521.050666,411.056005 521.050666,410.032 L521.050666,403 Z M530.813333,415.192 C530.26933,415.192 529.741335,415.124001 529.229333,414.988 C528.71733,414.851999 528.289334,414.692001 527.945333,414.508 C527.601331,414.323999 527.293334,414.136001 527.021333,413.944 C526.749331,413.751999 526.549333,413.592001 526.421333,413.464 L526.229333,413.248 L527.357333,412.288 C527.469333,412.400001 527.625332,412.535999 527.825333,412.696 C528.025334,412.856001 528.42933,413.071999 529.037333,413.344 C529.645336,413.616001 530.24533,413.752 530.837333,413.752 C531.717337,413.752 532.42133,413.584002 532.949333,413.248 C533.477335,412.911998 533.741333,412.440003 533.741333,411.832 C533.741333,411.399998 533.477335,411.028002 532.949333,410.716 C532.42133,410.403998 531.781336,410.136001 531.029333,409.912 C530.277329,409.687999 529.521337,409.440001 528.761333,409.168 C528.001329,408.895999 527.357335,408.512002 526.829333,408.016 C526.30133,407.519998 526.037333,406.912004 526.037333,406.192 C526.037333,405.199995 526.409329,404.388003 527.153333,403.756 C527.897336,403.123997 528.997325,402.808 530.453333,402.808 C531.317337,402.808 532.133329,402.967998 532.901333,403.288 C533.669337,403.608002 534.221331,403.927998 534.557333,404.248 L535.061333,404.728 L533.933333,405.712 C533.821332,405.599999 533.665334,405.464001 533.465333,405.304 C533.265332,405.143999 532.861336,404.928001 532.253333,404.656 C531.64533,404.383999 531.037336,404.248 530.429333,404.248 C529.565328,404.248 528.865335,404.415998 528.329333,404.752 C527.79333,405.088002 527.525333,405.559997 527.525333,406.168 C527.525333,406.600002 527.78933,406.971998 528.317333,407.284 C528.845335,407.596002 529.485329,407.863999 530.237333,408.088 C530.989336,408.312001 531.745329,408.555999 532.505333,408.82 C533.265337,409.084001 533.90933,409.467997 534.437333,409.972 C534.965335,410.476003 535.229333,411.087996 535.229333,411.808 C535.229333,412.816005 534.861336,413.631997 534.125333,414.256 C533.389329,414.880003 532.28534,415.192 530.813333,415.192 Z M544.463999,407.656 L538.007999,407.656 L538.007999,406.216 L544.463999,406.216 L544.463999,407.656 Z M548.010666,415 L548.010666,398.872 L551.658666,398.872 C554.314679,398.872 556.426658,399.639992 557.994666,401.176 C559.562674,402.712008 560.346666,404.631988 560.346666,406.936 C560.346666,409.224011 559.558674,411.139992 557.982666,412.684 C556.406658,414.228008 554.298679,415 551.658666,415 L548.010666,415 Z M549.594666,413.488 L551.658666,413.488 C553.770677,413.488 555.45866,412.868006 556.722666,411.628 C557.986672,410.387994 558.618666,408.824009 558.618666,406.936 C558.618666,405.047991 557.986672,403.484006 556.722666,402.244 C555.45866,401.003994 553.770677,400.384 551.658666,400.384 L549.594666,400.384 L549.594666,413.488 Z M573.181333,413.368 C571.981327,414.584006 570.525341,415.192 568.813333,415.192 C567.101324,415.192 565.641339,414.588006 564.433333,413.38 C563.225327,412.171994 562.621333,410.712009 562.621333,409 C562.621333,407.287991 563.225327,405.828006 564.433333,404.62 C565.641339,403.411994 567.101324,402.808 568.813333,402.808 C570.525341,402.808 571.985327,403.411994 573.193333,404.62 C574.401339,405.828006 575.005333,407.287991 575.005333,409 C575.005333,410.696008 574.397339,412.151994 573.181333,413.368 Z M568.837333,413.68 C570.133339,413.68 571.225328,413.228005 572.113333,412.324 C573.001337,411.419995 573.445333,410.312007 573.445333,409 C573.445333,407.687993 573.001337,406.576005 572.113333,405.664 C571.225328,404.751995 570.133339,404.296 568.837333,404.296 C567.557326,404.296 566.469337,404.751995 565.573333,405.664 C564.677328,406.576005 564.229333,407.687993 564.229333,409 C564.229333,410.312007 564.677328,411.419995 565.573333,412.324 C566.469337,413.228005 567.557326,413.68 568.837333,413.68 Z M584.647999,402.784 C586.360008,402.784 587.819993,403.387994 589.027999,404.596 C590.236006,405.804006 590.839999,407.263991 590.839999,408.976 C590.839999,410.688009 590.236006,412.147994 589.027999,413.356 C587.819993,414.564006 586.360008,415.168 584.647999,415.168 C582.72799,415.168 581.160006,414.440007 579.943999,412.984 L579.943999,420.832 L578.359999,420.832 L578.359999,402.976 L579.943999,402.976 L579.943999,404.944 C581.176006,403.503993 582.74399,402.784 584.647999,402.784 Z M581.335999,412.312 C582.232004,413.208004 583.319993,413.656 584.599999,413.656 C585.880006,413.656 586.971995,413.204005 587.875999,412.3 C588.780004,411.395995 589.231999,410.288007 589.231999,408.976 C589.231999,407.663993 588.780004,406.552005 587.875999,405.64 C586.971995,404.727995 585.880006,404.272 584.599999,404.272 C583.319993,404.272 582.232004,404.727995 581.335999,405.64 C580.439995,406.552005 579.991999,407.663993 579.991999,408.976 C579.991999,410.288007 580.439995,411.399995 581.335999,412.312 Z M599.450666,413.608 C600.522672,413.608 601.482662,413.304003 602.330666,412.696 C603.17867,412.087997 603.754665,411.376004 604.058666,410.56 L605.402666,411.04 C605.034664,412.048005 604.318671,412.975996 603.254666,413.824 C602.190661,414.672004 600.922674,415.088 599.450666,415.072 C598.106659,415.072 596.878672,414.656004 595.766666,413.824 C594.654661,412.991996 593.898668,411.928006 593.498666,410.632 C593.338665,410.103997 593.258666,409.528003 593.258666,408.904 C593.258666,407.175991 593.85866,405.712006 595.058666,404.512 C596.258672,403.311994 597.722658,402.704 599.450666,402.688 C601.018674,402.704 602.38666,403.231995 603.554666,404.272 C604.722672,405.312005 605.394665,406.599992 605.570666,408.136 C605.586666,408.216 605.594666,408.319999 605.594666,408.448 L595.106666,410.344 C595.378668,411.304005 595.922662,412.091997 596.738666,412.708 C597.55467,413.324003 598.458661,413.624 599.450666,413.608 Z M599.306666,404.152 C598.10666,404.168 597.07867,404.599996 596.222666,405.448 C595.366662,406.296004 594.906666,407.311994 594.842666,408.496 C594.842666,408.544 594.846666,408.627999 594.854666,408.748 C594.862666,408.868001 594.866666,408.968 594.866666,409.048 L603.794666,407.44 C603.490665,406.463995 602.92267,405.668003 602.090666,405.052 C601.258662,404.435997 600.330671,404.136 599.306666,404.152 Z M619.125333,397.144 L620.709333,397.144 L620.709333,415 L619.125333,415 L619.125333,413.056 C617.893327,414.480007 616.333342,415.192 614.445333,415.192 C612.733324,415.192 611.273339,414.588006 610.065333,413.38 C608.857327,412.171994 608.253333,410.712009 608.253333,409 C608.253333,407.287991 608.857327,405.828006 610.065333,404.62 C611.273339,403.411994 612.733324,402.808 614.445333,402.808 C616.349342,402.808 617.909327,403.519993 619.125333,404.944 L619.125333,397.144 Z M611.181333,412.336 C612.077337,413.232004 613.173326,413.68 614.469333,413.68 C615.765339,413.68 616.857328,413.228005 617.745333,412.324 C618.633337,411.419995 619.077333,410.312007 619.077333,409 C619.077333,407.687993 618.633337,406.580005 617.745333,405.676 C616.857328,404.771995 615.765339,404.32 614.469333,404.32 C613.173326,404.32 612.077337,404.771995 611.181333,405.676 C610.285328,406.580005 609.837333,407.687993 609.837333,409 C609.837333,410.312007 610.285328,411.423995 611.181333,412.336 Z M624.016,416.152 L625.096,412.336 L626.728,412.336 L625.312,416.152 L624.016,416.152 Z M647.837333,398.872 L649.421333,398.872 L649.421333,415 L647.789333,415 L638.789333,401.296 L638.789333,415 L637.205333,415 L637.205333,398.872 L638.813333,398.872 L647.837333,412.6 L647.837333,398.872 Z M659.424,407.656 L652.968,407.656 L652.968,406.216 L659.424,406.216 L659.424,407.656 Z M671.154666,398.872 L671.154666,400.456 L665.418666,400.456 L665.418666,415 L663.834666,415 L663.834666,400.456 L658.098666,400.456 L658.098666,398.872 L671.154666,398.872 Z M679.021333,403 L680.605333,403 L674.053333,420.112 L672.469333,420.112 L674.989333,413.536 L670.549333,403 L672.133333,403 L675.733333,411.568 L679.021333,403 Z M690.08,402.784 C691.792008,402.784 693.251994,403.387994 694.46,404.596 C695.668006,405.804006 696.272,407.263991 696.272,408.976 C696.272,410.688009 695.668006,412.147994 694.46,413.356 C693.251994,414.564006 691.792008,415.168 690.08,415.168 C688.15999,415.168 686.592006,414.440007 685.376,412.984 L685.376,420.832 L683.792,420.832 L683.792,402.976 L685.376,402.976 L685.376,404.944 C686.608006,403.503993 688.17599,402.784 690.08,402.784 Z M686.768,412.312 C687.664004,413.208004 688.751993,413.656 690.032,413.656 C691.312006,413.656 692.403995,413.204005 693.308,412.3 C694.212004,411.395995 694.664,410.288007 694.664,408.976 C694.664,407.663993 694.212004,406.552005 693.308,405.64 C692.403995,404.727995 691.312006,404.272 690.032,404.272 C688.751993,404.272 687.664004,404.727995 686.768,405.64 C685.871995,406.552005 685.424,407.663993 685.424,408.976 C685.424,410.288007 685.871995,411.399995 686.768,412.312 Z M704.882666,413.608 C705.954672,413.608 706.914662,413.304003 707.762666,412.696 C708.610671,412.087997 709.186665,411.376004 709.490666,410.56 L710.834666,411.04 C710.466664,412.048005 709.750672,412.975996 708.686666,413.824 C707.622661,414.672004 706.354674,415.088 704.882666,415.072 C703.53866,415.072 702.310672,414.656004 701.198666,413.824 C700.086661,412.991996 699.330668,411.928006 698.930666,410.632 C698.770666,410.103997 698.690666,409.528003 698.690666,408.904 C698.690666,407.175991 699.29066,405.712006 700.490666,404.512 C701.690672,403.311994 703.154658,402.704 704.882666,402.688 C706.450674,402.704 707.81866,403.231995 708.986666,404.272 C710.154672,405.312005 710.826665,406.599992 711.002666,408.136 C711.018666,408.216 711.026666,408.319999 711.026666,408.448 L700.538666,410.344 C700.810668,411.304005 701.354662,412.091997 702.170666,412.708 C702.98667,413.324003 703.890661,413.624 704.882666,413.608 Z M704.738666,404.152 C703.53866,404.168 702.510671,404.599996 701.654666,405.448 C700.798662,406.296004 700.338667,407.311994 700.274666,408.496 C700.274666,408.544 700.278666,408.627999 700.286666,408.748 C700.294666,408.868001 700.298666,408.968 700.298666,409.048 L709.226666,407.44 C708.922665,406.463995 708.35467,405.668003 707.522666,405.052 C706.690662,404.435997 705.762671,404.136 704.738666,404.152 Z M726.592,415.192 C725.519994,415.192 724.484005,414.920003 723.484,414.376 C722.483995,413.831997 721.728002,413.288003 721.216,412.744 L722.32,411.664 C722.720002,412.096002 723.311996,412.539998 724.096,412.996 C724.880004,413.452002 725.711995,413.68 726.592,413.68 C727.664005,413.68 728.507997,413.444002 729.124,412.972 C729.740003,412.499998 730.048,411.856004 730.048,411.04 C730.048,410.351997 729.748003,409.752003 729.148,409.24 C728.547997,408.727997 727.820004,408.296002 726.964,407.944 C726.107995,407.591998 725.248004,407.220002 724.384,406.828 C723.519995,406.435998 722.788003,405.904003 722.188,405.232 C721.587997,404.559997 721.288,403.768005 721.288,402.856 C721.288,401.687994 721.727995,400.704004 722.608,399.904 C723.488004,399.103996 724.719992,398.704 726.304,398.704 C727.376005,398.704 728.411995,398.975997 729.412,399.52 C730.412005,400.064003 731.167997,400.607997 731.68,401.152 L730.576,402.232 C730.159998,401.783998 729.560004,401.336002 728.776,400.888 C727.991996,400.439998 727.168004,400.216 726.304,400.216 C725.231994,400.216 724.388003,400.451998 723.772,400.924 C723.155997,401.396002 722.848,402.039996 722.848,402.856 C722.848,403.544003 723.147997,404.147997 723.748,404.668 C724.348003,405.188003 725.075995,405.623998 725.932,405.976 C726.788004,406.328002 727.647995,406.695998 728.512,407.08 C729.376004,407.464002 730.107997,407.991997 730.708,408.664 C731.308003,409.336003 731.608,410.127995 731.608,411.04 C731.608,412.208006 731.168004,413.191996 730.288,413.992 C729.407995,414.792004 728.176008,415.192 726.592,415.192 Z M736.930666,399.4 C736.754666,399.592001 736.530668,399.688 736.258666,399.688 C735.986665,399.688 735.758667,399.592001 735.574666,399.4 C735.390665,399.207999 735.298666,398.984001 735.298666,398.728 C735.298666,398.471999 735.390665,398.248001 735.574666,398.056 C735.758667,397.863999 735.986665,397.768 736.258666,397.768 C736.530668,397.768 736.758665,397.863999 736.942666,398.056 C737.126667,398.248001 737.218666,398.471999 737.218666,398.728 C737.218666,398.984001 737.122667,399.207999 736.930666,399.4 Z M735.466666,415 L735.466666,403 L737.050666,403 L737.050666,415 L735.466666,415 Z M741.389333,415 L741.389333,397.144 L742.973333,397.144 L742.973333,415 L741.389333,415 Z M748.776,399.4 C748.599999,399.592001 748.376001,399.688 748.104,399.688 C747.831998,399.688 747.604001,399.592001 747.42,399.4 C747.235999,399.207999 747.144,398.984001 747.144,398.728 C747.144,398.471999 747.235999,398.248001 747.42,398.056 C747.604001,397.863999 747.831998,397.768 748.104,397.768 C748.376001,397.768 748.603999,397.863999 748.788,398.056 C748.972001,398.248001 749.064,398.471999 749.064,398.728 C749.064,398.984001 748.968001,399.207999 748.776,399.4 Z M747.312,415 L747.312,403 L748.896,403 L748.896,415 L747.312,415 Z M758.562666,415.192 C756.850658,415.192 755.390672,414.588006 754.182666,413.38 C752.97466,412.171994 752.370666,410.712009 752.370666,409 C752.370666,407.287991 752.97466,405.828006 754.182666,404.62 C755.390672,403.411994 756.850658,402.808 758.562666,402.808 C759.650672,402.808 760.662662,403.075997 761.598666,403.612 C762.534671,404.148003 763.274664,404.863996 763.818666,405.76 L762.378666,406.456 C761.946664,405.799997 761.39467,405.280002 760.722666,404.896 C760.050663,404.511998 759.33067,404.32 758.562666,404.32 C757.26666,404.32 756.174671,404.771995 755.286666,405.676 C754.398662,406.580005 753.954666,407.687993 753.954666,409 C753.954666,410.312007 754.398662,411.419995 755.286666,412.324 C756.174671,413.228005 757.26666,413.68 758.562666,413.68 C759.33067,413.68 760.050663,413.488002 760.722666,413.104 C761.39467,412.719998 761.946664,412.200003 762.378666,411.544 L763.818666,412.24 C763.274664,413.136004 762.534671,413.851997 761.598666,414.388 C760.662662,414.924003 759.650672,415.192 758.562666,415.192 Z M776.749333,413.368 C775.549327,414.584006 774.093342,415.192 772.381333,415.192 C770.669325,415.192 769.209339,414.588006 768.001333,413.38 C766.793327,412.171994 766.189333,410.712009 766.189333,409 C766.189333,407.287991 766.793327,405.828006 768.001333,404.62 C769.209339,403.411994 770.669325,402.808 772.381333,402.808 C774.093342,402.808 775.553327,403.411994 776.761333,404.62 C777.969339,405.828006 778.573333,407.287991 778.573333,409 C778.573333,410.696008 777.965339,412.151994 776.749333,413.368 Z M772.405333,413.68 C773.70134,413.68 774.793329,413.228005 775.681333,412.324 C776.569338,411.419995 777.013333,410.312007 777.013333,409 C777.013333,407.687993 776.569338,406.576005 775.681333,405.664 C774.793329,404.751995 773.70134,404.296 772.405333,404.296 C771.125327,404.296 770.037338,404.751995 769.141333,405.664 C768.245329,406.576005 767.797333,407.687993 767.797333,409 C767.797333,410.312007 768.245329,411.419995 769.141333,412.324 C770.037338,413.228005 771.125327,413.68 772.405333,413.68 Z M787.04,402.808 C788.432007,402.808 789.599995,403.299995 790.544,404.284 C791.488005,405.268005 791.96,406.479993 791.96,407.92 L791.96,415 L790.352,415 L790.352,407.968 C790.352,406.943995 790.004003,406.072004 789.308,405.352 C788.611996,404.631996 787.768005,404.272 786.776,404.272 C785.783995,404.272 784.940003,404.631996 784.244,405.352 C783.547996,406.072004 783.2,406.943995 783.2,407.968 L783.2,415 L781.616,415 L781.616,403 L783.2,403 L783.2,404.776 C784.176005,403.463993 785.455992,402.808 787.04,402.808 Z M810.261333,415.192 C807.893321,415.192 806.00534,414.404008 804.597333,412.828 C803.189326,411.251992 802.485333,409.296012 802.485333,406.96 C802.485333,404.607988 803.189326,402.644008 804.597333,401.068 C806.00534,399.491992 807.893321,398.704 810.261333,398.704 C811.829341,398.704 813.193327,399.063996 814.353333,399.784 C815.513339,400.504004 816.41333,401.487994 817.053333,402.736 L815.565333,403.6 C815.053331,402.559995 814.337338,401.736003 813.417333,401.128 C812.497329,400.519997 811.445339,400.216 810.261333,400.216 C808.437324,400.216 806.977339,400.851994 805.881333,402.124 C804.785328,403.396006 804.237333,405.00799 804.237333,406.96 C804.237333,408.89601 804.785328,410.503994 805.881333,411.784 C806.977339,413.064006 808.437324,413.704 810.261333,413.704 C811.461339,413.704 812.521329,413.396003 813.441333,412.78 C814.361338,412.163997 815.069331,411.336005 815.565333,410.296 L817.053333,411.184 C816.41333,412.432006 815.513339,413.411996 814.353333,414.124 C813.193327,414.836004 811.829341,415.192 810.261333,415.192 Z M825.88,402.808 C826.728004,402.808 827.503996,403.015998 828.208,403.432 L827.656,405.016 C826.983997,404.519998 826.304003,404.272 825.616,404.272 C824.607995,404.272 823.760003,404.627996 823.072,405.34 C822.383996,406.052004 822.04,406.927995 822.04,407.968 L822.04,415 L820.456,415 L820.456,403 L822.04,403 L822.04,404.776 C823.016005,403.463993 824.295992,402.808 825.88,402.808 Z M839.002667,403 L840.586667,403 L834.034667,420.112 L832.450667,420.112 L834.970667,413.536 L830.530667,403 L832.114667,403 L835.714667,411.568 L839.002667,403 Z M847.157333,415.192 C846.613331,415.192 846.085336,415.124001 845.573333,414.988 C845.061331,414.851999 844.633335,414.692001 844.289333,414.508 C843.945332,414.323999 843.637335,414.136001 843.365333,413.944 C843.093332,413.751999 842.893334,413.592001 842.765333,413.464 L842.573333,413.248 L843.701333,412.288 C843.813334,412.400001 843.969332,412.535999 844.169333,412.696 C844.369334,412.856001 844.77333,413.071999 845.381333,413.344 C845.989336,413.616001 846.58933,413.752 847.181333,413.752 C848.061338,413.752 848.765331,413.584002 849.293333,413.248 C849.821336,412.911998 850.085333,412.440003 850.085333,411.832 C850.085333,411.399998 849.821336,411.028002 849.293333,410.716 C848.765331,410.403998 848.125337,410.136001 847.373333,409.912 C846.621329,409.687999 845.865337,409.440001 845.105333,409.168 C844.345329,408.895999 843.701336,408.512002 843.173333,408.016 C842.645331,407.519998 842.381333,406.912004 842.381333,406.192 C842.381333,405.199995 842.75333,404.388003 843.497333,403.756 C844.241337,403.123997 845.341326,402.808 846.797333,402.808 C847.661338,402.808 848.477329,402.967998 849.245333,403.288 C850.013337,403.608002 850.565332,403.927998 850.901333,404.248 L851.405333,404.728 L850.277333,405.712 C850.165333,405.599999 850.009334,405.464001 849.809333,405.304 C849.609332,405.143999 849.205336,404.928001 848.597333,404.656 C847.98933,404.383999 847.381336,404.248 846.773333,404.248 C845.909329,404.248 845.209336,404.415998 844.673333,404.752 C844.137331,405.088002 843.869333,405.559997 843.869333,406.168 C843.869333,406.600002 844.133331,406.971998 844.661333,407.284 C845.189336,407.596002 845.829329,407.863999 846.581333,408.088 C847.333337,408.312001 848.089329,408.555999 848.849333,408.82 C849.609337,409.084001 850.253331,409.467997 850.781333,409.972 C851.309336,410.476003 851.573333,411.087996 851.573333,411.808 C851.573333,412.816005 851.205337,413.631997 850.469333,414.256 C849.73333,414.880003 848.629341,415.192 847.157333,415.192 Z M861.24,412.312 L862.032,413.536 C861.935999,413.664001 861.808001,413.815999 861.648,413.992 C861.487999,414.168001 861.128003,414.411998 860.568,414.724 C860.007997,415.036002 859.432003,415.192 858.84,415.192 C857.831995,415.192 856.988003,414.892003 856.308,414.292 C855.627997,413.691997 855.288,412.824006 855.288,411.688 L855.288,404.44 L853.368,404.44 L853.368,402.976 L855.288,402.976 L855.288,399.184 L856.872,398.992 L856.872,402.976 L860.496,402.976 L860.496,404.44 L856.872,404.44 L856.872,411.328 C856.872,412.064004 857.099998,412.647998 857.556,413.08 C858.012002,413.512002 858.535997,413.728 859.128,413.728 C859.496002,413.728 859.855998,413.616001 860.208,413.392 C860.560002,413.167999 860.819999,412.948001 860.988,412.732 C861.156001,412.515999 861.24,412.376 861.24,412.312 Z M874.362667,403 L875.946667,403 L875.946667,415 L874.362667,415 L874.362667,413.056 C873.13066,414.480007 871.570676,415.192 869.682667,415.192 C867.970658,415.192 866.510673,414.588006 865.302667,413.38 C864.094661,412.171994 863.490667,410.712009 863.490667,409 C863.490667,407.287991 864.094661,405.828006 865.302667,404.62 C866.510673,403.411994 867.970658,402.808 869.682667,402.808 C871.586676,402.808 873.146661,403.519993 874.362667,404.944 L874.362667,403 Z M869.706667,413.68 C871.002673,413.68 872.094662,413.228005 872.982667,412.324 C873.870671,411.419995 874.314667,410.312007 874.314667,409 C874.314667,407.687993 873.870671,406.580005 872.982667,405.676 C872.094662,404.771995 871.002673,404.32 869.706667,404.32 C868.42666,404.32 867.334671,404.771995 866.430667,405.676 C865.526662,406.580005 865.074667,407.687993 865.074667,409 C865.074667,410.312007 865.526662,411.419995 866.430667,412.324 C867.334671,413.228005 868.42666,413.68 869.706667,413.68 Z M879.997333,415 L879.997333,397.144 L881.581333,397.144 L881.581333,415 L879.997333,415 Z" id="Phosphorous-Doped,-N-Copy" fill="#23ABE3"></path>
    </g>
</svg>