<?xml version="1.0" encoding="UTF-8"?>
<svg width="900px" height="270px" viewBox="0 0 900 270" version="1.1" xmlns="http://www.w3.org/2000/svg" xmlns:xlink="http://www.w3.org/1999/xlink">
    <!-- Generator: Sketch 52.5 (67469) - http://www.bohemiancoding.com/sketch -->
    <title>N-Type_Silicon_Crystal_Lattice</title>
    <desc>Created with Sketch.</desc>
    <g id="N-Type_Silicon_Crystal_Lattice" stroke="none" stroke-width="1" fill="none" fill-rule="evenodd">
        <rect id="Rectangle" fill="#EEEEEE" x="0" y="0" width="900" height="430"></rect>
        <g id="Illustration" transform="translate(60.000000, 77.000000)">
            <g id="Lattice">
                <g>
                    <rect id="Rectangle" stroke="#999999" stroke-width="2" fill="#7D7570" x="1" y="1" width="158" height="158"></rect>
                    <circle id="Oval-Copy-3" fill="#252525" cx="20.5" cy="18.5" r="10.5"></circle>
                    <circle id="Oval-Copy-5" fill="#252525" cx="20.5" cy="58.5" r="10.5"></circle>
                    <circle id="Oval-Copy-6" fill="#252525" cx="20.5" cy="98.5" r="10.5"></circle>
                    <circle id="Oval-Copy-10" fill="#252525" cx="50.5" cy="38.5" r="10.5"></circle>
                    <circle id="Oval-Copy-9" fill="#D7E465" cx="50.5" cy="78.5" r="10.5"></circle>
                    <circle id="Oval-Copy-31" fill="#EF7D3B" cx="29.25" cy="76.25" r="3.25"></circle>
                    <circle id="Oval-Copy-32" fill="#EF7D3B" cx="42.25" cy="55.25" r="3.25"></circle>
                    <circle id="Oval-Copy-33" fill="#EF7D3B" cx="32.25" cy="27.25" r="3.25"></circle>
                    <circle id="Oval-Copy-34" fill="#EF7D3B" cx="73.25" cy="35.25" r="3.25"></circle>
                    <circle id="Oval-Copy-35" fill="#EF7D3B" cx="83.25" cy="75.25" r="3.25"></circle>
                    <circle id="Oval-Copy-36" fill="#EF7D3B" cx="64.25" cy="96.25" r="3.25"></circle>
                    <circle id="Oval-Copy-37" fill="#EF7D3B" cx="39.25" cy="107.25" r="3.25"></circle>
                    <circle id="Oval-Copy-38" fill="#EF7D3B" cx="35.25" cy="149.25" r="3.25"></circle>
                    <circle id="Oval-Copy-39" fill="#EF7D3B" cx="7.25" cy="116.25" r="3.25"></circle>
                    <circle id="Oval-Copy-40" fill="#EF7D3B" cx="59.25" cy="134.25" r="3.25"></circle>
                    <circle id="Oval-Copy-41" fill="#EF7D3B" cx="119.25" cy="134.25" r="3.25"></circle>
                    <circle id="Oval-Copy-42" fill="#EF7D3B" cx="94.25" cy="115.25" r="3.25"></circle>
                    <circle id="Oval-Copy-43" fill="#EF7D3B" cx="94.25" cy="145.25" r="3.25"></circle>
                    <circle id="Oval-Copy-44" fill="#EF7D3B" cx="134.25" cy="154.25" r="3.25"></circle>
                    <circle id="Oval-Copy-45" fill="#EF7D3B" cx="154.25" cy="104.25" r="3.25"></circle>
                    <circle id="Oval-Copy-46" fill="#EF7D3B" cx="123.25" cy="90.25" r="3.25"></circle>
                    <circle id="Oval-Copy-47" fill="#EF7D3B" cx="133.25" cy="45.25" r="3.25"></circle>
                    <circle id="Oval-Copy-48" fill="#EF7D3B" cx="123.25" cy="11.25" r="3.25"></circle>
                    <circle id="Oval-Copy-49" fill="#EF7D3B" cx="100.25" cy="26.25" r="3.25"></circle>
                    <circle id="Oval-Copy-8" fill="#252525" cx="50.5" cy="118.5" r="10.5"></circle>
                    <circle id="Oval-Copy-26" fill="#D7E465" cx="110.5" cy="38.5" r="10.5"></circle>
                    <circle id="Oval-Copy-25" fill="#252525" cx="110.5" cy="78.5" r="10.5"></circle>
                    <circle id="Oval-Copy-24" fill="#252525" cx="110.5" cy="118.5" r="10.5"></circle>
                    <circle id="Oval-Copy-7" fill="#D7E465" cx="20.5" cy="138.5" r="10.5"></circle>
                    <circle id="Oval-Copy-23" fill="#252525" cx="80.5" cy="18.5" r="10.5"></circle>
                    <circle id="Oval-Copy-22" fill="#252525" cx="80.5" cy="58.5" r="10.5"></circle>
                    <circle id="Oval-Copy-21" fill="#D7E465" cx="80.5" cy="98.5" r="10.5"></circle>
                    <circle id="Oval-Copy-20" fill="#252525" cx="80.5" cy="138.5" r="10.5"></circle>
                    <circle id="Oval-Copy-30" fill="#252525" cx="140.5" cy="18.5" r="10.5"></circle>
                    <circle id="Oval-Copy-29" fill="#252525" cx="140.5" cy="58.5" r="10.5"></circle>
                    <circle id="Oval-Copy-28" fill="#252525" cx="140.5" cy="98.5" r="10.5"></circle>
                    <circle id="Oval-Copy-27" fill="#252525" cx="140.5" cy="138.5" r="10.5"></circle>
                </g>
            </g>
            <g id="Index" transform="translate(201.000000, 11.000000)">
                <g id="Free-Hole" transform="translate(7.000000, 70.000000)">
                    <circle id="Oval-Copy-11" fill="#EF7D3B" cx="3.25" cy="16.25" r="3.25"></circle>
                    <path d="M34.668,4.732 L34.668,12.904 L36.468,12.904 C38.268009,12.904 39.4139975,12.706002 39.906,12.31 C40.3980025,11.913998 40.644,10.9600076 40.644,9.448 L41.4,9.448 L41.4,17.692 L40.644,17.692 C40.644,16.1799924 40.3980025,15.226002 39.906,14.83 C39.4139975,14.433998 38.268009,14.236 36.468,14.236 L34.668,14.236 L34.668,20.032 C34.668,21.832009 34.865998,22.9839975 35.262,23.488 C35.658002,23.9920025 36.5999926,24.244 38.088,24.244 L38.088,25 L28.368,25 L28.368,24.244 C29.8560074,24.244 30.797998,23.9920025 31.194,23.488 C31.590002,22.9839975 31.788,21.832009 31.788,20.032 L31.788,8.332 C31.788,6.531991 31.590002,5.38600246 31.194,4.894 C30.797998,4.40199754 29.8560074,4.156 28.368,4.156 L28.368,3.4 L45.396,3.4 L45.684,8.152 L44.928,8.152 L44.748,7.432 C44.4839987,6.39999484 44.1120024,5.69200192 43.632,5.308 C43.1519976,4.92399808 42.1440077,4.732 40.608,4.732 L34.668,4.732 Z M55.764001,14.632 C55.764001,15.7600056 55.2840058,16.324 54.324001,16.324 C53.9879993,16.324 53.6940023,16.1920013 53.442001,15.928 C53.1899997,15.6639987 53.064001,15.3640017 53.064001,15.028 C53.064001,14.235996 52.6800048,13.84 51.912001,13.84 C51.3599982,13.84 50.7600042,14.2239962 50.112001,14.992 C49.4639978,15.7600038 49.140001,16.7799936 49.140001,18.052 L49.140001,20.032 C49.140001,21.832009 49.3139993,22.9839975 49.662001,23.488 C50.0100027,23.9920025 50.783995,24.244 51.984001,24.244 L51.984001,25 L43.740001,25 L43.740001,24.244 C44.940007,24.244 45.7139993,23.9920025 46.062001,23.488 C46.4100027,22.9839975 46.584001,21.832009 46.584001,20.032 L46.584001,18.232 C46.584001,16.4559911 46.4100027,15.3160025 46.062001,14.812 C45.7139993,14.3079975 44.940007,14.056 43.740001,14.056 L43.740001,13.3 L48.528001,12.4 C48.7440021,12.8560023 48.948,13.7199936 49.140001,14.992 C49.5000028,14.2719964 50.0399974,13.6600025 50.760001,13.156 C51.4800046,12.6519975 52.1999974,12.4 52.920001,12.4 C53.8320056,12.4 54.5339985,12.6399976 55.026001,13.12 C55.5180035,13.6000024 55.764001,14.1039974 55.764001,14.632 Z M58.572002,16.756 L64.548002,16.756 C64.7880032,16.0839966 64.6860042,15.4300032 64.242002,14.794 C63.7979998,14.1579968 63.0360074,13.84 61.956002,13.84 C61.1879982,13.84 60.4980051,14.1039974 59.886002,14.632 C59.2739989,15.1600026 58.8360033,15.8679956 58.572002,16.756 Z M58.356002,18.088 C58.1400009,19.8640089 58.4219981,21.3099944 59.202002,22.426 C59.9820059,23.5420056 61.2599931,24.1 63.036002,24.1 C63.636005,24.1 64.3199982,23.9440016 65.088002,23.632 C65.8560058,23.3199984 66.4919995,22.9240024 66.996002,22.444 L67.644002,23.236 C66.9959988,23.9320035 66.168007,24.5019978 65.160002,24.946 C64.151997,25.3900022 63.144007,25.612 62.136002,25.612 C60.1919923,25.612 58.5960082,24.9700064 57.348002,23.686 C56.0999958,22.4019936 55.476002,20.8360092 55.476002,18.988 C55.476002,17.1399908 56.1539952,15.5800064 57.510002,14.308 C58.8660088,13.0359936 60.4079934,12.4 62.136002,12.4 C63.7680102,12.4 65.0999968,12.9699943 66.132002,14.11 C67.1640072,15.2500057 67.4640042,16.5759924 67.032002,18.088 L58.356002,18.088 Z M71.604003,16.756 L77.580003,16.756 C77.8200042,16.0839966 77.7180052,15.4300032 77.274003,14.794 C76.8300008,14.1579968 76.0680084,13.84 74.988003,13.84 C74.2199992,13.84 73.5300061,14.1039974 72.918003,14.632 C72.3059999,15.1600026 71.8680043,15.8679956 71.604003,16.756 Z M71.388003,18.088 C71.1720019,19.8640089 71.4539991,21.3099944 72.234003,22.426 C73.0140069,23.5420056 74.2919941,24.1 76.068003,24.1 C76.668006,24.1 77.3519992,23.9440016 78.120003,23.632 C78.8880068,23.3199984 79.5240005,22.9240024 80.028003,22.444 L80.676003,23.236 C80.0279998,23.9320035 79.200008,24.5019978 78.192003,24.946 C77.183998,25.3900022 76.176008,25.612 75.168003,25.612 C73.2239933,25.612 71.6280092,24.9700064 70.380003,23.686 C69.1319968,22.4019936 68.508003,20.8360092 68.508003,18.988 C68.508003,17.1399908 69.1859962,15.5800064 70.542003,14.308 C71.8980098,13.0359936 73.4399944,12.4 75.168003,12.4 C76.8000112,12.4 78.1319978,12.9699943 79.164003,14.11 C80.1960082,15.2500057 80.4960052,16.5759924 80.064003,18.088 L71.388003,18.088 Z M87.408005,25 L87.408005,24.244 C88.8960124,24.244 89.838003,23.9920025 90.234005,23.488 C90.630007,22.9839975 90.828005,21.832009 90.828005,20.032 L90.828005,8.332 C90.828005,6.531991 90.630007,5.38600246 90.234005,4.894 C89.838003,4.40199754 88.8960124,4.156 87.408005,4.156 L87.408005,3.4 L103.824005,3.4 L104.148005,8.152 L103.392005,8.152 L103.212005,7.432 C102.924004,6.37599472 102.540007,5.66200186 102.060005,5.29 C101.580003,4.91799814 100.572013,4.732 99.036005,4.732 L93.708005,4.732 L93.708005,12.904 L95.508005,12.904 C97.308014,12.904 98.4540025,12.706002 98.946005,12.31 C99.4380075,11.913998 99.684005,10.9600076 99.684005,9.448 L100.440005,9.448 L100.440005,17.692 L99.684005,17.692 C99.684005,16.1799924 99.4380075,15.226002 98.946005,14.83 C98.4540025,14.433998 97.308014,14.236 95.508005,14.236 L93.708005,14.236 L93.708005,19.492 C93.708005,21.292009 93.906003,22.4379975 94.302005,22.93 C94.698007,23.4220025 95.6399976,23.668 97.128005,23.668 L100.224005,23.668 C101.30401,23.668 102.126002,23.5600011 102.690005,23.344 C103.254008,23.1279989 103.638004,22.8520017 103.842005,22.516 C104.046006,22.1799983 104.232004,21.6520036 104.400005,20.932 L104.580005,20.212 L105.336005,20.212 L105.048005,25 L87.408005,25 Z M113.796006,25 L105.552006,25 L105.552006,24.244 C106.752012,24.244 107.526004,23.9920025 107.874006,23.488 C108.222008,22.9839975 108.396006,21.832009 108.396006,20.032 L108.396006,8.656 C108.396006,6.855991 108.222008,5.70400252 107.874006,5.2 C107.526004,4.69599748 106.752012,4.444 105.552006,4.444 L105.552006,3.688 L110.952006,2.788 L110.952006,20.032 C110.952006,21.832009 111.126004,22.9839975 111.474006,23.488 C111.822008,23.9920025 112.596,24.244 113.796006,24.244 L113.796006,25 Z M117.180007,16.756 L123.156007,16.756 C123.396008,16.0839966 123.294009,15.4300032 122.850007,14.794 C122.406005,14.1579968 121.644012,13.84 120.564007,13.84 C119.796003,13.84 119.10601,14.1039974 118.494007,14.632 C117.882004,15.1600026 117.444008,15.8679956 117.180007,16.756 Z M116.964007,18.088 C116.748006,19.8640089 117.030003,21.3099944 117.810007,22.426 C118.590011,23.5420056 119.867998,24.1 121.644007,24.1 C122.24401,24.1 122.928003,23.9440016 123.696007,23.632 C124.464011,23.3199984 125.100004,22.9240024 125.604007,22.444 L126.252007,23.236 C125.604004,23.9320035 124.776012,24.5019978 123.768007,24.946 C122.760002,25.3900022 121.752012,25.612 120.744007,25.612 C118.799997,25.612 117.204013,24.9700064 115.956007,23.686 C114.708001,22.4019936 114.084007,20.8360092 114.084007,18.988 C114.084007,17.1399908 114.762,15.5800064 116.118007,14.308 C117.474014,13.0359936 119.015998,12.4 120.744007,12.4 C122.376015,12.4 123.708002,12.9699943 124.740007,14.11 C125.772012,15.2500057 126.072009,16.5759924 125.640007,18.088 L116.964007,18.088 Z M133.488008,13.552 C132.528003,13.552 131.712011,14.1039945 131.040008,15.208 C130.368005,16.3120055 130.032008,17.6799918 130.032008,19.312 C130.032008,20.8000074 130.398004,21.9699957 131.130008,22.822 C131.862012,23.6740043 132.948001,24.1 134.388008,24.1 C135.780015,24.1 137.064002,23.5480055 138.240008,22.444 L138.852008,23.236 C137.388001,24.8200079 135.600019,25.612 133.488008,25.612 C131.519998,25.612 129.966014,25.0240059 128.826008,23.848 C127.686002,22.6719941 127.116008,21.1600092 127.116008,19.312 C127.116008,17.31999 127.788001,15.6700065 129.132008,14.362 C130.476015,13.0539935 131.928,12.4 133.488008,12.4 C134.904015,12.4 135.972004,12.6519975 136.692008,13.156 C137.412012,13.6600025 137.772008,14.2719964 137.772008,14.992 C137.772008,15.3760019 137.646009,15.7299984 137.394008,16.054 C137.142007,16.3780016 136.740011,16.54 136.188008,16.54 C135.804006,16.54 135.474009,16.4020014 135.198008,16.126 C134.922007,15.8499986 134.784008,15.508002 134.784008,15.1 C134.784008,14.0679948 134.352012,13.552 133.488008,13.552 Z M140.256009,14.272 L138.384009,14.272 L138.384009,13.408 C139.416014,13.1919989 140.172007,12.7240036 140.652009,12.004 C141.132011,11.2839964 141.444008,10.3000062 141.588009,9.052 L142.812009,9.052 L142.812009,13.012 L145.944009,13.012 L145.944009,14.272 L142.812009,14.272 L142.812009,21.472 C142.812009,23.2000086 143.352004,24.064 144.432009,24.064 C145.128012,24.064 145.908005,23.6560041 146.772009,22.84 L147.384009,23.452 C146.880006,24.052003 146.274013,24.5439981 145.566009,24.928 C144.858005,25.3120019 144.204012,25.504 143.604009,25.504 C142.572004,25.504 141.756012,25.1680034 141.156009,24.496 C140.556006,23.8239966 140.256009,22.8160067 140.256009,21.472 L140.256009,14.272 Z M159.22801,14.632 C159.22801,15.7600056 158.748015,16.324 157.78801,16.324 C157.452008,16.324 157.158011,16.1920013 156.90601,15.928 C156.654009,15.6639987 156.52801,15.3640017 156.52801,15.028 C156.52801,14.235996 156.144014,13.84 155.37601,13.84 C154.824007,13.84 154.224013,14.2239962 153.57601,14.992 C152.928007,15.7600038 152.60401,16.7799936 152.60401,18.052 L152.60401,20.032 C152.60401,21.832009 152.778008,22.9839975 153.12601,23.488 C153.474012,23.9920025 154.248004,24.244 155.44801,24.244 L155.44801,25 L147.20401,25 L147.20401,24.244 C148.404016,24.244 149.178008,23.9920025 149.52601,23.488 C149.874012,22.9839975 150.04801,21.832009 150.04801,20.032 L150.04801,18.232 C150.04801,16.4559911 149.874012,15.3160025 149.52601,14.812 C149.178008,14.3079975 148.404016,14.056 147.20401,14.056 L147.20401,13.3 L151.99201,12.4 C152.208011,12.8560023 152.412009,13.7199936 152.60401,14.992 C152.964012,14.2719964 153.504006,13.6600025 154.22401,13.156 C154.944014,12.6519975 155.664006,12.4 156.38401,12.4 C157.296015,12.4 157.998008,12.6399976 158.49001,13.12 C158.982012,13.6000024 159.22801,14.1039974 159.22801,14.632 Z M171.936011,14.344 C173.376018,15.6160064 174.096011,17.1639909 174.096011,18.988 C174.096011,20.8120091 173.382018,22.3719935 171.954011,23.668 C170.526004,24.9640065 168.816021,25.612 166.824011,25.612 C164.832001,25.612 163.122018,24.9640065 161.694011,23.668 C160.266004,22.3719935 159.552011,20.8120091 159.552011,18.988 C159.552011,17.1639909 160.266004,15.6100064 161.694011,14.326 C163.122018,13.0419936 164.832001,12.4 166.824011,12.4 C168.816021,12.4 170.520004,13.0479935 171.936011,14.344 Z M170.064011,22.768 C170.808015,21.7839951 171.180011,20.5240077 171.180011,18.988 C171.180011,17.4519923 170.808015,16.1980049 170.064011,15.226 C169.320007,14.2539951 168.240018,13.768 166.824011,13.768 C165.408004,13.768 164.328015,14.2599951 163.584011,15.244 C162.840007,16.2280049 162.468011,17.4759924 162.468011,18.988 C162.468011,20.5000076 162.840007,21.7479951 163.584011,22.732 C164.328015,23.7160049 165.408004,24.208 166.824011,24.208 C168.240018,24.208 169.320007,23.7280048 170.064011,22.768 Z M180.432012,14.992 C181.800019,13.2639914 183.468002,12.4 185.436012,12.4 C186.99602,12.4 188.166008,12.8919951 188.946012,13.876 C189.726016,14.8600049 190.116012,16.155992 190.116012,17.764 L190.116012,20.032 C190.116012,21.832009 190.29001,22.9839975 190.638012,23.488 C190.986014,23.9920025 191.760006,24.244 192.960012,24.244 L192.960012,25 L184.716012,25 L184.716012,24.244 C185.892018,24.244 186.66001,23.9860026 187.020012,23.47 C187.380014,22.9539974 187.560012,21.8080089 187.560012,20.032 L187.560012,17.944 C187.560012,15.3759872 186.564022,14.092 184.572012,14.092 C183.540007,14.092 182.592016,14.4519964 181.728012,15.172 C180.864008,15.8920036 180.432012,16.7319952 180.432012,17.692 L180.432012,20.032 C180.432012,21.8800092 180.576011,23.0439976 180.864012,23.524 C181.152013,24.0040024 181.848006,24.244 182.952012,24.244 L182.952012,25 L175.032012,25 L175.032012,24.244 C176.232018,24.244 177.00601,23.9920025 177.354012,23.488 C177.702014,22.9839975 177.876012,21.832009 177.876012,20.032 L177.876012,18.232 C177.876012,16.4559911 177.702014,15.3160025 177.354012,14.812 C177.00601,14.3079975 176.232018,14.056 175.032012,14.056 L175.032012,13.3 L179.820012,12.4 C180.036013,12.8560023 180.240011,13.7199936 180.432012,14.992 Z" id="Free-Electron-Copy" fill="#524740"></path>
                </g>
                <g id="--Atom" transform="translate(0.000000, 34.000000)">
                    <circle id="Oval-Copy-11" fill="#D7E465" cx="10" cy="16" r="10"></circle>
                    <path d="M44.872,3.4 C47.2960121,3.4 49.1919932,3.97599424 50.56,5.128 C51.9280068,6.28000576 52.612,7.73199124 52.612,9.484 C52.612,11.2360088 51.9280068,12.6819943 50.56,13.822 C49.1919932,14.9620057 47.2960121,15.532 44.872,15.532 L41.668,15.532 L41.668,20.032 C41.668,21.832009 41.865998,22.9839975 42.262,23.488 C42.658002,23.9920025 43.5999926,24.244 45.088,24.244 L45.088,25 L35.368,25 L35.368,24.244 C36.8560074,24.244 37.797998,23.9920025 38.194,23.488 C38.590002,22.9839975 38.788,21.832009 38.788,20.032 L38.788,8.332 C38.788,6.531991 38.590002,5.38600246 38.194,4.894 C37.797998,4.40199754 36.8560074,4.156 35.368,4.156 L35.368,3.4 L44.872,3.4 Z M44.836,14.236 C46.3240074,14.236 47.4579961,13.7920044 48.238,12.904 C49.0180039,12.0159956 49.408,10.876007 49.408,9.484 C49.408,8.09199304 49.0180039,6.95200444 48.238,6.064 C47.4579961,5.17599556 46.3240074,4.732 44.836,4.732 L41.668,4.732 L41.668,14.236 L44.836,14.236 Z M64.096001,14.344 C65.5360082,15.6160064 66.256001,17.1639909 66.256001,18.988 C66.256001,20.8120091 65.5420081,22.3719935 64.114001,23.668 C62.6859939,24.9640065 60.976011,25.612 58.984001,25.612 C56.991991,25.612 55.2820081,24.9640065 53.854001,23.668 C52.4259939,22.3719935 51.712001,20.8120091 51.712001,18.988 C51.712001,17.1639909 52.4259939,15.6100064 53.854001,14.326 C55.2820081,13.0419936 56.991991,12.4 58.984001,12.4 C60.976011,12.4 62.6799939,13.0479935 64.096001,14.344 Z M62.224001,22.768 C62.9680047,21.7839951 63.340001,20.5240077 63.340001,18.988 C63.340001,17.4519923 62.9680047,16.1980049 62.224001,15.226 C61.4799973,14.2539951 60.4000081,13.768 58.984001,13.768 C57.5679939,13.768 56.4880047,14.2599951 55.744001,15.244 C54.9999973,16.2280049 54.628001,17.4759924 54.628001,18.988 C54.628001,20.5000076 54.9999973,21.7479951 55.744001,22.732 C56.4880047,23.7160049 57.5679939,24.208 58.984001,24.208 C60.4000081,24.208 61.4799973,23.7280048 62.224001,22.768 Z M76.444002,21.688 C76.444002,22.8400058 76.0300061,23.7819963 75.202002,24.514 C74.3739979,25.2460037 73.360008,25.612 72.160002,25.612 C71.7279998,25.612 71.2840043,25.5280008 70.828002,25.36 C70.3719997,25.1919992 70.0060034,25.0300008 69.730002,24.874 C69.4540006,24.7179992 69.1960032,24.5980004 68.956002,24.514 C68.7160008,24.4299996 68.5480025,24.4719992 68.452002,24.64 C68.3560015,24.8080008 68.308002,25.1319976 68.308002,25.612 L67.552002,25.612 L67.552002,20.356 L68.308002,20.356 C68.308002,21.2920047 68.6679984,22.1979956 69.388002,23.074 C70.1080056,23.9500044 71.0559961,24.388 72.232002,24.388 C72.8080049,24.388 73.294,24.2080018 73.690002,23.848 C74.086004,23.4879982 74.284002,23.0560025 74.284002,22.552 C74.284002,21.8079963 73.6120087,21.0760036 72.268002,20.356 L70.252002,19.276 C68.6679941,18.4119957 67.876002,17.2120077 67.876002,15.676 C67.876002,14.7399953 68.2419983,13.9600031 68.974002,13.336 C69.7060057,12.7119969 70.5519972,12.4 71.512002,12.4 C72.3280061,12.4 73.1679977,12.6159978 74.032002,13.048 C74.3200034,13.2160008 74.5180015,13.2700003 74.626002,13.21 C74.7340025,13.1499997 74.788002,12.8800024 74.788002,12.4 L75.544002,12.4 L75.544002,16.576 L74.788002,16.576 C74.788002,15.783996 74.5180047,15.0820031 73.978002,14.47 C73.4379993,13.8579969 72.7360063,13.552 71.872002,13.552 C71.271999,13.552 70.8160036,13.6959986 70.504002,13.984 C70.1920004,14.2720014 70.036002,14.6439977 70.036002,15.1 C70.036002,15.508002 70.1920004,15.8619985 70.504002,16.162 C70.8160036,16.4620015 71.3919978,16.8399977 72.232002,17.296 L73.960002,18.232 C75.6160103,19.1680047 76.444002,20.3199932 76.444002,21.688 Z M85.516003,25 L77.272003,25 L77.272003,24.244 C78.472009,24.244 79.2460013,23.9920025 79.594003,23.488 C79.9420047,22.9839975 80.116003,21.832009 80.116003,20.032 L80.116003,18.232 C80.116003,16.4559911 79.9420047,15.3160025 79.594003,14.812 C79.2460013,14.3079975 78.472009,14.056 77.272003,14.056 L77.272003,13.3 L82.672003,12.4 L82.672003,20.032 C82.672003,21.832009 82.8460013,22.9839975 83.194003,23.488 C83.5420047,23.9920025 84.315997,24.244 85.516003,24.244 L85.516003,25 Z M82.960003,7.252 C82.960003,7.70800228 82.8040046,8.09199844 82.492003,8.404 C82.1800014,8.71600156 81.8080052,8.872 81.376003,8.872 C80.9440008,8.872 80.5720046,8.71600156 80.260003,8.404 C79.9480014,8.09199844 79.792003,7.70800228 79.792003,7.252 C79.792003,6.81999784 79.9480014,6.44800156 80.260003,6.136 C80.5720046,5.82399844 80.9440008,5.668 81.376003,5.668 C81.8080052,5.668 82.1800014,5.82399844 82.492003,6.136 C82.8040046,6.44800156 82.960003,6.81999784 82.960003,7.252 Z M86.920004,14.272 L85.048004,14.272 L85.048004,13.408 C86.0800092,13.1919989 86.8360016,12.7240036 87.316004,12.004 C87.7960064,11.2839964 88.1080033,10.3000062 88.252004,9.052 L89.476004,9.052 L89.476004,13.012 L92.608004,13.012 L92.608004,14.272 L89.476004,14.272 L89.476004,21.472 C89.476004,23.2000086 90.0159986,24.064 91.096004,24.064 C91.7920075,24.064 92.5719997,23.6560041 93.436004,22.84 L94.048004,23.452 C93.5440015,24.052003 92.9380075,24.5439981 92.230004,24.928 C91.5220005,25.3120019 90.868007,25.504 90.268004,25.504 C89.2359988,25.504 88.420007,25.1680034 87.820004,24.496 C87.220001,23.8239966 86.920004,22.8160067 86.920004,21.472 L86.920004,14.272 Z M102.112005,25 L93.868005,25 L93.868005,24.244 C95.068011,24.244 95.8420033,23.9920025 96.190005,23.488 C96.5380067,22.9839975 96.712005,21.832009 96.712005,20.032 L96.712005,18.232 C96.712005,16.4559911 96.5380067,15.3160025 96.190005,14.812 C95.8420033,14.3079975 95.068011,14.056 93.868005,14.056 L93.868005,13.3 L99.268005,12.4 L99.268005,20.032 C99.268005,21.832009 99.4420033,22.9839975 99.790005,23.488 C100.138007,23.9920025 100.911999,24.244 102.112005,24.244 L102.112005,25 Z M99.556005,7.252 C99.556005,7.70800228 99.4000066,8.09199844 99.088005,8.404 C98.7760034,8.71600156 98.4040072,8.872 97.972005,8.872 C97.5400028,8.872 97.1680066,8.71600156 96.856005,8.404 C96.5440034,8.09199844 96.388005,7.70800228 96.388005,7.252 C96.388005,6.81999784 96.5440034,6.44800156 96.856005,6.136 C97.1680066,5.82399844 97.5400028,5.668 97.972005,5.668 C98.4040072,5.668 98.7760034,5.82399844 99.088005,6.136 C99.4000066,6.44800156 99.556005,6.81999784 99.556005,7.252 Z M114.496006,13.732 C113.872003,13.732 113.374008,13.8879984 113.002006,14.2 C112.630004,14.5120016 112.276008,15.063996 111.940006,15.856 L107.872006,25.648 L107.152006,25.648 L102.760006,15.856 C102.400004,15.063996 102.046008,14.5120016 101.698006,14.2 C101.350004,13.8879984 100.888009,13.732 100.312006,13.732 L100.312006,13.012 L106.684006,13.012 L106.684006,13.732 C105.868002,13.732 105.388007,13.8699986 105.244006,14.146 C105.100005,14.4220014 105.208004,14.9919957 105.568006,15.856 L108.124006,21.616 L110.500006,15.856 C110.860008,15.0879962 110.968007,14.5420016 110.824006,14.218 C110.680005,13.8939984 110.22401,13.732 109.456006,13.732 L109.456006,13.012 L114.496006,13.012 L114.496006,13.732 Z M116.728007,16.756 L122.704007,16.756 C122.944008,16.0839966 122.842009,15.4300032 122.398007,14.794 C121.954005,14.1579968 121.192012,13.84 120.112007,13.84 C119.344003,13.84 118.65401,14.1039974 118.042007,14.632 C117.430004,15.1600026 116.992008,15.8679956 116.728007,16.756 Z M116.512007,18.088 C116.296006,19.8640089 116.578003,21.3099944 117.358007,22.426 C118.138011,23.5420056 119.415998,24.1 121.192007,24.1 C121.79201,24.1 122.476003,23.9440016 123.244007,23.632 C124.012011,23.3199984 124.648004,22.9240024 125.152007,22.444 L125.800007,23.236 C125.152004,23.9320035 124.324012,24.5019978 123.316007,24.946 C122.308002,25.3900022 121.300012,25.612 120.292007,25.612 C118.347997,25.612 116.752013,24.9700064 115.504007,23.686 C114.256001,22.4019936 113.632007,20.8360092 113.632007,18.988 C113.632007,17.1399908 114.31,15.5800064 115.666007,14.308 C117.022014,13.0359936 118.563998,12.4 120.292007,12.4 C121.924015,12.4 123.256002,12.9699943 124.288007,14.11 C125.320012,15.2500057 125.620009,16.5759924 125.188007,18.088 L116.512007,18.088 Z M133.864008,25 L125.620008,25 L125.620008,24.244 C126.820014,24.244 127.594006,23.9920025 127.942008,23.488 C128.29001,22.9839975 128.464008,21.832009 128.464008,20.032 L128.464008,8.656 C128.464008,6.855991 128.29001,5.70400252 127.942008,5.2 C127.594006,4.69599748 126.820014,4.444 125.620008,4.444 L125.620008,3.688 L131.020008,2.788 L131.020008,20.032 C131.020008,21.832009 131.194006,22.9839975 131.542008,23.488 C131.89001,23.9920025 132.664002,24.244 133.864008,24.244 L133.864008,25 Z M134.152009,33.532 C134.152009,33.1479981 134.296008,32.8060015 134.584009,32.506 C134.87201,32.2059985 135.250007,31.7980026 135.718009,31.282 C136.186011,30.7659974 136.576007,30.112004 136.888009,29.32 L138.688009,24.82 L134.548009,15.856 C134.164007,15.0399959 133.804011,14.4820015 133.468009,14.182 C133.132007,13.8819985 132.688012,13.732 132.136009,13.732 L132.136009,13.012 L138.508009,13.012 L138.508009,13.732 C137.692005,13.732 137.20001,13.8639987 137.032009,14.128 C136.864008,14.3920013 136.972007,14.9679956 137.356009,15.856 L139.984009,21.616 L142.288009,15.856 C142.624011,15.0399959 142.72001,14.4820015 142.576009,14.182 C142.432008,13.8819985 141.988013,13.732 141.244009,13.732 L141.244009,13.012 L146.284009,13.012 L146.284009,13.732 C145.156003,13.732 144.304012,14.4399929 143.728009,15.856 L136.708009,33.388 C136.348007,34.2760044 135.904012,34.72 135.376009,34.72 C135.064007,34.72 134.78201,34.624001 134.530009,34.432 C134.278008,34.239999 134.152009,33.940002 134.152009,33.532 Z M172.168011,24.604 L171.448011,24.604 C171.25601,23.6679953 170.848014,22.9840022 170.224011,22.552 C168.256001,24.5920102 166.024023,25.612 163.528011,25.612 C160.479996,25.612 157.876022,24.4960112 155.716011,22.264 C153.556,20.0319888 152.476011,17.3440157 152.476011,14.2 C152.476011,11.0559843 153.556,8.36801116 155.716011,6.136 C157.876022,3.90398884 160.479996,2.788 163.528011,2.788 C166.072024,2.788 168.304001,3.8079898 170.224011,5.848 C170.872014,5.34399748 171.28001,4.66000432 171.448011,3.796 L172.168011,3.796 L172.168011,11.716 L171.448011,11.716 C170.944008,9.33998812 170.014018,7.4920066 168.658011,6.172 C167.302004,4.8519934 165.640021,4.192 163.672011,4.192 C162.304004,4.192 161.092016,4.49799694 160.036011,5.11 C158.980006,5.72200306 158.158014,6.53199496 157.570011,7.54 C156.982008,8.54800504 156.544012,9.61599436 156.256011,10.744 C155.96801,11.8720056 155.824011,13.0239941 155.824011,14.2 C155.824011,15.3760059 155.96801,16.5279944 156.256011,17.656 C156.544012,18.7840056 156.982008,19.845995 157.570011,20.842 C158.158014,21.838005 158.980006,22.6419969 160.036011,23.254 C161.092016,23.8660031 162.304004,24.172 163.672011,24.172 C165.640021,24.172 167.302004,23.5060067 168.658011,22.174 C170.014018,20.8419933 170.944008,19.0120116 171.448011,16.684 L172.168011,16.684 L172.168011,24.604 Z M190.780012,25 L182.824012,25 L182.824012,24.244 C183.952018,24.244 184.660011,24.0040024 184.948012,23.524 C185.236013,23.0439976 185.380012,21.8800092 185.380012,20.032 L185.380012,17.944 C185.380012,15.3759872 184.468021,14.092 182.644012,14.092 C181.684007,14.092 180.796016,14.4459965 179.980012,15.154 C179.164008,15.8620035 178.756012,16.7079951 178.756012,17.692 L178.756012,20.032 C178.756012,21.9040094 178.888011,23.0739977 179.152012,23.542 C179.416013,24.0100023 180.040007,24.244 181.024012,24.244 L181.024012,25 L173.356012,25 L173.356012,24.244 C174.556018,24.244 175.33001,23.9920025 175.678012,23.488 C176.026014,22.9839975 176.200012,21.832009 176.200012,20.032 L176.200012,8.656 C176.200012,6.855991 176.026014,5.70400252 175.678012,5.2 C175.33001,4.69599748 174.556018,4.444 173.356012,4.444 L173.356012,3.688 L178.756012,2.788 L178.756012,14.992 C180.172019,13.2639914 181.744003,12.4 183.472012,12.4 C186.424027,12.4 187.900012,14.1879821 187.900012,17.764 L187.900012,20.032 C187.900012,21.832009 188.07401,22.9839975 188.422012,23.488 C188.770014,23.9920025 189.556006,24.244 190.780012,24.244 L190.780012,25 Z M203.236013,24.28 C202.54001,25.0240037 201.748017,25.396 200.860013,25.396 C199.420006,25.396 198.604014,24.700007 198.412013,23.308 C196.804005,24.7480072 195.30402,25.468 193.912013,25.468 C193.000008,25.468 192.232016,25.1980027 191.608013,24.658 C190.98401,24.1179973 190.672013,23.3800047 190.672013,22.444 C190.672013,19.9239874 193.227987,18.2200044 198.340013,17.332 C198.340013,15.9159929 198.184015,14.9320028 197.872013,14.38 C197.560011,13.8279972 196.912018,13.552 195.928013,13.552 C195.448011,13.552 194.986015,13.7079984 194.542013,14.02 C194.098011,14.3320016 193.876013,14.7519974 193.876013,15.28 C193.876013,15.6400018 193.756014,15.9399988 193.516013,16.18 C193.276012,16.4200012 192.988015,16.54 192.652013,16.54 C192.292011,16.54 191.992014,16.4200012 191.752013,16.18 C191.512012,15.9399988 191.392013,15.6400018 191.392013,15.28 C191.392013,14.4399958 191.854008,13.7500027 192.778013,13.21 C193.702018,12.6699973 194.764007,12.4 195.964013,12.4 C197.716022,12.4 198.976009,12.7839962 199.744013,13.552 C200.512017,14.3200038 200.896013,15.5679914 200.896013,17.296 L200.896013,22.732 C200.896013,23.6680047 201.17201,24.136 201.724013,24.136 C202.036015,24.136 202.372011,23.9560018 202.732013,23.596 L203.236013,24.28 Z M198.340013,22.12 L198.340013,18.448 C195.027996,19.2160038 193.372013,20.403992 193.372013,22.012 C193.372013,22.5640028 193.534011,23.0079983 193.858013,23.344 C194.182015,23.6800017 194.584011,23.848 195.064013,23.848 C195.952017,23.848 197.044007,23.2720058 198.340013,22.12 Z M215.044014,14.632 C215.044014,15.7600056 214.564019,16.324 213.604014,16.324 C213.268012,16.324 212.974015,16.1920013 212.722014,15.928 C212.470013,15.6639987 212.344014,15.3640017 212.344014,15.028 C212.344014,14.235996 211.960018,13.84 211.192014,13.84 C210.640011,13.84 210.040017,14.2239962 209.392014,14.992 C208.744011,15.7600038 208.420014,16.7799936 208.420014,18.052 L208.420014,20.032 C208.420014,21.832009 208.594012,22.9839975 208.942014,23.488 C209.290016,23.9920025 210.064008,24.244 211.264014,24.244 L211.264014,25 L203.020014,25 L203.020014,24.244 C204.22002,24.244 204.994012,23.9920025 205.342014,23.488 C205.690016,22.9839975 205.864014,21.832009 205.864014,20.032 L205.864014,18.232 C205.864014,16.4559911 205.690016,15.3160025 205.342014,14.812 C204.994012,14.3079975 204.22002,14.056 203.020014,14.056 L203.020014,13.3 L207.808014,12.4 C208.024015,12.8560023 208.228013,13.7199936 208.420014,14.992 C208.780016,14.2719964 209.32001,13.6600025 210.040014,13.156 C210.760018,12.6519975 211.48001,12.4 212.200014,12.4 C213.112019,12.4 213.814012,12.6399976 214.306014,13.12 C214.798016,13.6000024 215.044014,14.1039974 215.044014,14.632 Z M222.424015,19.996 C222.880017,19.2999965 223.108015,18.4000055 223.108015,17.296 C223.108015,16.1919945 222.886017,15.2920035 222.442015,14.596 C221.998013,13.8999965 221.356019,13.552 220.516015,13.552 C219.676011,13.552 219.028017,13.8999965 218.572015,14.596 C218.116013,15.2920035 217.888015,16.1919945 217.888015,17.296 C217.888015,18.4000055 218.116013,19.2939966 218.572015,19.978 C219.028017,20.6620034 219.676011,21.004 220.516015,21.004 C221.356019,21.004 221.992013,20.6680034 222.424015,19.996 Z M217.168015,23.704 C217.168015,24.4240036 218.260004,24.879999 220.444015,25.072 C222.748027,25.264001 224.41601,25.7919957 225.448015,26.656 C226.48002,27.5200043 226.996015,28.5639939 226.996015,29.788 C226.996015,31.2520073 226.390021,32.4219956 225.178015,33.298 C223.966009,34.1740044 222.448024,34.612 220.624015,34.612 C218.680005,34.612 217.114021,34.210004 215.926015,33.406 C214.738009,32.601996 214.192015,31.6600054 214.288015,30.58 C214.384015,29.4999946 215.152008,28.5880037 216.592015,27.844 L217.240015,28.24 C216.544012,29.032004 216.172015,29.7579967 216.124015,30.418 C216.076015,31.0780033 216.286013,31.5999981 216.754015,31.984 C217.222017,32.3680019 217.798012,32.6679989 218.482015,32.884 C219.166018,33.1000011 219.880011,33.208 220.624015,33.208 C221.800021,33.208 222.83801,32.9500026 223.738015,32.434 C224.63802,31.9179974 225.088015,31.2520041 225.088015,30.436 C225.088015,29.643996 224.698019,29.0680018 223.918015,28.708 C223.138011,28.3479982 221.920023,28.0840008 220.264015,27.916 C216.855998,27.5799983 215.152015,26.4640095 215.152015,24.568 C215.152015,23.2719935 216.160005,22.3120031 218.176015,21.688 C217.24001,21.2559978 216.502018,20.6560038 215.962015,19.888 C215.422012,19.1199962 215.152015,18.2560048 215.152015,17.296 C215.152015,15.9519933 215.67401,14.8000048 216.718015,13.84 C217.76202,12.8799952 219.028008,12.4 220.516015,12.4 C221.956022,12.4 223.19201,12.8559954 224.224015,13.768 C224.536017,13.3839981 224.962012,13.0600013 225.502015,12.796 C226.042018,12.5319987 226.516013,12.4 226.924015,12.4 C227.98002,12.4 228.652014,12.8439956 228.940015,13.732 C229.156016,14.4040034 229.048017,14.9079983 228.616015,15.244 C228.472014,15.3640006 228.304016,15.424 228.112015,15.424 C227.752013,15.4480001 227.482016,15.3760008 227.302015,15.208 C227.122014,15.0399992 227.014015,14.854001 226.978015,14.65 C226.942015,14.445999 226.846016,14.2540009 226.690015,14.074 C226.534014,13.8939991 226.288017,13.804 225.952015,13.804 C225.592013,13.804 225.220017,13.9959981 224.836015,14.38 C225.532018,15.2200042 225.880015,16.1919945 225.880015,17.296 C225.880015,18.5680064 225.41202,19.6599954 224.476015,20.572 C223.54001,21.4840046 222.448021,22.0239992 221.200015,22.192 C218.512002,22.5040016 217.168015,23.0079965 217.168015,23.704 Z M231.532016,16.756 L237.508016,16.756 C237.748017,16.0839966 237.646018,15.4300032 237.202016,14.794 C236.758014,14.1579968 235.996021,13.84 234.916016,13.84 C234.148012,13.84 233.458019,14.1039974 232.846016,14.632 C232.234013,15.1600026 231.796017,15.8679956 231.532016,16.756 Z M231.316016,18.088 C231.100015,19.8640089 231.382012,21.3099944 232.162016,22.426 C232.94202,23.5420056 234.220007,24.1 235.996016,24.1 C236.596019,24.1 237.280012,23.9440016 238.048016,23.632 C238.81602,23.3199984 239.452013,22.9240024 239.956016,22.444 L240.604016,23.236 C239.956013,23.9320035 239.128021,24.5019978 238.120016,24.946 C237.112011,25.3900022 236.104021,25.612 235.096016,25.612 C233.152006,25.612 231.556022,24.9700064 230.308016,23.686 C229.06001,22.4019936 228.436016,20.8360092 228.436016,18.988 C228.436016,17.1399908 229.114009,15.5800064 230.470016,14.308 C231.826023,13.0359936 233.368007,12.4 235.096016,12.4 C236.728024,12.4 238.060011,12.9699943 239.092016,14.11 C240.124021,15.2500057 240.424018,16.5759924 239.992016,18.088 L231.316016,18.088 Z M252.124017,21.328 L252.124017,16.684 C251.788015,15.8199957 251.29602,15.1300026 250.648017,14.614 C250.000014,14.0979974 249.280021,13.84 248.488017,13.84 C247.14401,13.84 246.12402,14.3199952 245.428017,15.28 C244.732014,16.2400048 244.384017,17.4759924 244.384017,18.988 C244.384017,20.5240077 244.732014,21.7719952 245.428017,22.732 C246.12402,23.6920048 247.14401,24.172 248.488017,24.172 C249.280021,24.172 250.000014,23.9140026 250.648017,23.398 C251.29602,22.8819974 251.788015,22.1920043 252.124017,21.328 Z M252.124017,14.524 L252.124017,8.656 C252.124017,6.855991 251.950019,5.70400252 251.602017,5.2 C251.254015,4.69599748 250.480023,4.444 249.280017,4.444 L249.280017,3.688 L254.680017,2.788 L254.680017,19.744 C254.680017,21.544009 254.854015,22.6959975 255.202017,23.2 C255.550019,23.7040025 256.324011,23.956 257.524017,23.956 L257.524017,24.712 L252.736017,25.612 C252.568016,25.2519982 252.376018,24.5200055 252.160017,23.416 C250.984011,24.8800073 249.508026,25.612 247.732017,25.612 C246.028008,25.612 244.558023,24.9640065 243.322017,23.668 C242.086011,22.3719935 241.468017,20.8120091 241.468017,18.988 C241.468017,17.1639909 242.086011,15.6100064 243.322017,14.326 C244.558023,13.0419936 246.028008,12.4 247.732017,12.4 C249.508026,12.4 250.972011,13.1079929 252.124017,14.524 Z M273.148019,3.4 C275.572031,3.4 277.468012,3.97599424 278.836019,5.128 C280.204026,6.28000576 280.888019,7.73199124 280.888019,9.484 C280.888019,11.2360088 280.204026,12.6819943 278.836019,13.822 C277.468012,14.9620057 275.572031,15.532 273.148019,15.532 L269.944019,15.532 L269.944019,20.032 C269.944019,21.832009 270.142017,22.9839975 270.538019,23.488 C270.934021,23.9920025 271.876012,24.244 273.364019,24.244 L273.364019,25 L263.644019,25 L263.644019,24.244 C265.132026,24.244 266.074017,23.9920025 266.470019,23.488 C266.866021,22.9839975 267.064019,21.832009 267.064019,20.032 L267.064019,8.332 C267.064019,6.531991 266.866021,5.38600246 266.470019,4.894 C266.074017,4.40199754 265.132026,4.156 263.644019,4.156 L263.644019,3.4 L273.148019,3.4 Z M273.112019,14.236 C274.600026,14.236 275.734015,13.7920044 276.514019,12.904 C277.294023,12.0159956 277.684019,10.876007 277.684019,9.484 C277.684019,8.09199304 277.294023,6.95200444 276.514019,6.064 C275.734015,5.17599556 274.600026,4.732 273.112019,4.732 L269.944019,4.732 L269.944019,14.236 L273.112019,14.236 Z M298.02402,25 L290.06802,25 L290.06802,24.244 C291.196026,24.244 291.904019,24.0040024 292.19202,23.524 C292.480021,23.0439976 292.62402,21.8800092 292.62402,20.032 L292.62402,17.944 C292.62402,15.3759872 291.712029,14.092 289.88802,14.092 C288.928015,14.092 288.040024,14.4459965 287.22402,15.154 C286.408016,15.8620035 286.00002,16.7079951 286.00002,17.692 L286.00002,20.032 C286.00002,21.9040094 286.132019,23.0739977 286.39602,23.542 C286.660021,24.0100023 287.284015,24.244 288.26802,24.244 L288.26802,25 L280.60002,25 L280.60002,24.244 C281.800026,24.244 282.574018,23.9920025 282.92202,23.488 C283.270022,22.9839975 283.44402,21.832009 283.44402,20.032 L283.44402,8.656 C283.44402,6.855991 283.270022,5.70400252 282.92202,5.2 C282.574018,4.69599748 281.800026,4.444 280.60002,4.444 L280.60002,3.688 L286.00002,2.788 L286.00002,14.992 C287.416027,13.2639914 288.988011,12.4 290.71602,12.4 C293.668035,12.4 295.14402,14.1879821 295.14402,17.764 L295.14402,20.032 C295.14402,21.832009 295.318018,22.9839975 295.66602,23.488 C296.014022,23.9920025 296.800014,24.244 298.02402,24.244 L298.02402,25 Z M310.660021,14.344 C312.100028,15.6160064 312.820021,17.1639909 312.820021,18.988 C312.820021,20.8120091 312.106028,22.3719935 310.678021,23.668 C309.250014,24.9640065 307.540031,25.612 305.548021,25.612 C303.556011,25.612 301.846028,24.9640065 300.418021,23.668 C298.990014,22.3719935 298.276021,20.8120091 298.276021,18.988 C298.276021,17.1639909 298.990014,15.6100064 300.418021,14.326 C301.846028,13.0419936 303.556011,12.4 305.548021,12.4 C307.540031,12.4 309.244014,13.0479935 310.660021,14.344 Z M308.788021,22.768 C309.532025,21.7839951 309.904021,20.5240077 309.904021,18.988 C309.904021,17.4519923 309.532025,16.1980049 308.788021,15.226 C308.044017,14.2539951 306.964028,13.768 305.548021,13.768 C304.132014,13.768 303.052025,14.2599951 302.308021,15.244 C301.564017,16.2280049 301.192021,17.4759924 301.192021,18.988 C301.192021,20.5000076 301.564017,21.7479951 302.308021,22.732 C303.052025,23.7160049 304.132014,24.208 305.548021,24.208 C306.964028,24.208 308.044017,23.7280048 308.788021,22.768 Z M323.008022,21.688 C323.008022,22.8400058 322.594026,23.7819963 321.766022,24.514 C320.938018,25.2460037 319.924028,25.612 318.724022,25.612 C318.29202,25.612 317.848024,25.5280008 317.392022,25.36 C316.93602,25.1919992 316.570023,25.0300008 316.294022,24.874 C316.018021,24.7179992 315.760023,24.5980004 315.520022,24.514 C315.280021,24.4299996 315.112022,24.4719992 315.016022,24.64 C314.920022,24.8080008 314.872022,25.1319976 314.872022,25.612 L314.116022,25.612 L314.116022,20.356 L314.872022,20.356 C314.872022,21.2920047 315.232018,22.1979956 315.952022,23.074 C316.672026,23.9500044 317.620016,24.388 318.796022,24.388 C319.372025,24.388 319.85802,24.2080018 320.254022,23.848 C320.650024,23.4879982 320.848022,23.0560025 320.848022,22.552 C320.848022,21.8079963 320.176029,21.0760036 318.832022,20.356 L316.816022,19.276 C315.232014,18.4119957 314.440022,17.2120077 314.440022,15.676 C314.440022,14.7399953 314.806018,13.9600031 315.538022,13.336 C316.270026,12.7119969 317.116017,12.4 318.076022,12.4 C318.892026,12.4 319.732018,12.6159978 320.596022,13.048 C320.884023,13.2160008 321.082021,13.2700003 321.190022,13.21 C321.298023,13.1499997 321.352022,12.8800024 321.352022,12.4 L322.108022,12.4 L322.108022,16.576 L321.352022,16.576 C321.352022,15.783996 321.082025,15.0820031 320.542022,14.47 C320.002019,13.8579969 319.300026,13.552 318.436022,13.552 C317.836019,13.552 317.380024,13.6959986 317.068022,13.984 C316.75602,14.2720014 316.600022,14.6439977 316.600022,15.1 C316.600022,15.508002 316.75602,15.8619985 317.068022,16.162 C317.380024,16.4620015 317.956018,16.8399977 318.796022,17.296 L320.524022,18.232 C322.18003,19.1680047 323.008022,20.3199932 323.008022,21.688 Z M335.248023,22.732 C335.944026,21.7479951 336.292023,20.5000076 336.292023,18.988 C336.292023,17.4759924 335.944026,16.2400048 335.248023,15.28 C334.55202,14.3199952 333.54403,13.84 332.224023,13.84 C331.408019,13.84 330.682026,14.0919975 330.046023,14.596 C329.41002,15.1000025 328.912025,15.7839957 328.552023,16.648 L328.552023,21.292 C328.912025,22.1800044 329.41002,22.8819974 330.046023,23.398 C330.682026,23.9140026 331.408019,24.172 332.224023,24.172 C333.54403,24.172 334.55202,23.6920048 335.248023,22.732 Z M328.552023,29.068 C328.552023,30.8440089 328.726021,31.9839975 329.074023,32.488 C329.422025,32.9920025 330.196017,33.244 331.396023,33.244 L331.396023,34 L323.152023,34 L323.152023,33.244 C324.352029,33.244 325.126021,32.9980025 325.474023,32.506 C325.822025,32.0139975 325.996023,30.868009 325.996023,29.068 L325.996023,18.232 C325.996023,16.431991 325.822025,15.2860025 325.474023,14.794 C325.126021,14.3019975 324.352029,14.056 323.152023,14.056 L323.152023,13.3 L327.976023,12.4 C328.120024,12.6640013 328.300022,13.395994 328.516023,14.596 C329.740029,13.1319927 331.228014,12.4 332.980023,12.4 C334.684032,12.4 336.148017,13.0419936 337.372023,14.326 C338.596029,15.6100064 339.208023,17.1639909 339.208023,18.988 C339.208023,20.8120091 338.596029,22.3719935 337.372023,23.668 C336.148017,24.9640065 334.684032,25.612 332.980023,25.612 C331.204014,25.612 329.728029,24.8920072 328.552023,23.452 L328.552023,29.068 Z M356.884024,25 L348.928024,25 L348.928024,24.244 C350.05603,24.244 350.764023,24.0040024 351.052024,23.524 C351.340025,23.0439976 351.484024,21.8800092 351.484024,20.032 L351.484024,17.944 C351.484024,15.3759872 350.572033,14.092 348.748024,14.092 C347.788019,14.092 346.900028,14.4459965 346.084024,15.154 C345.26802,15.8620035 344.860024,16.7079951 344.860024,17.692 L344.860024,20.032 C344.860024,21.9040094 344.992023,23.0739977 345.256024,23.542 C345.520025,24.0100023 346.144019,24.244 347.128024,24.244 L347.128024,25 L339.460024,25 L339.460024,24.244 C340.66003,24.244 341.434022,23.9920025 341.782024,23.488 C342.130026,22.9839975 342.304024,21.832009 342.304024,20.032 L342.304024,8.656 C342.304024,6.855991 342.130026,5.70400252 341.782024,5.2 C341.434022,4.69599748 340.66003,4.444 339.460024,4.444 L339.460024,3.688 L344.860024,2.788 L344.860024,14.992 C346.276031,13.2639914 347.848015,12.4 349.576024,12.4 C352.528039,12.4 354.004024,14.1879821 354.004024,17.764 L354.004024,20.032 C354.004024,21.832009 354.178022,22.9839975 354.526024,23.488 C354.874026,23.9920025 355.660018,24.244 356.884024,24.244 L356.884024,25 Z M369.520025,14.344 C370.960032,15.6160064 371.680025,17.1639909 371.680025,18.988 C371.680025,20.8120091 370.966032,22.3719935 369.538025,23.668 C368.110018,24.9640065 366.400035,25.612 364.408025,25.612 C362.416015,25.612 360.706032,24.9640065 359.278025,23.668 C357.850018,22.3719935 357.136025,20.8120091 357.136025,18.988 C357.136025,17.1639909 357.850018,15.6100064 359.278025,14.326 C360.706032,13.0419936 362.416015,12.4 364.408025,12.4 C366.400035,12.4 368.104018,13.0479935 369.520025,14.344 Z M367.648025,22.768 C368.392029,21.7839951 368.764025,20.5240077 368.764025,18.988 C368.764025,17.4519923 368.392029,16.1980049 367.648025,15.226 C366.904021,14.2539951 365.824032,13.768 364.408025,13.768 C362.992018,13.768 361.912029,14.2599951 361.168025,15.244 C360.424021,16.2280049 360.052025,17.4759924 360.052025,18.988 C360.052025,20.5000076 360.424021,21.7479951 361.168025,22.732 C361.912029,23.7160049 362.992018,24.208 364.408025,24.208 C365.824032,24.208 366.904021,23.7280048 367.648025,22.768 Z M384.640026,14.632 C384.640026,15.7600056 384.160031,16.324 383.200026,16.324 C382.864024,16.324 382.570027,16.1920013 382.318026,15.928 C382.066025,15.6639987 381.940026,15.3640017 381.940026,15.028 C381.940026,14.235996 381.55603,13.84 380.788026,13.84 C380.236023,13.84 379.636029,14.2239962 378.988026,14.992 C378.340023,15.7600038 378.016026,16.7799936 378.016026,18.052 L378.016026,20.032 C378.016026,21.832009 378.190024,22.9839975 378.538026,23.488 C378.886028,23.9920025 379.66002,24.244 380.860026,24.244 L380.860026,25 L372.616026,25 L372.616026,24.244 C373.816032,24.244 374.590024,23.9920025 374.938026,23.488 C375.286028,22.9839975 375.460026,21.832009 375.460026,20.032 L375.460026,18.232 C375.460026,16.4559911 375.286028,15.3160025 374.938026,14.812 C374.590024,14.3079975 373.816032,14.056 372.616026,14.056 L372.616026,13.3 L377.404026,12.4 C377.620027,12.8560023 377.824025,13.7199936 378.016026,14.992 C378.376028,14.2719964 378.916022,13.6600025 379.636026,13.156 C380.35603,12.6519975 381.076022,12.4 381.796026,12.4 C382.708031,12.4 383.410024,12.6399976 383.902026,13.12 C384.394028,13.6000024 384.640026,14.1039974 384.640026,14.632 Z M397.348027,14.344 C398.788034,15.6160064 399.508027,17.1639909 399.508027,18.988 C399.508027,20.8120091 398.794034,22.3719935 397.366027,23.668 C395.93802,24.9640065 394.228037,25.612 392.236027,25.612 C390.244017,25.612 388.534034,24.9640065 387.106027,23.668 C385.67802,22.3719935 384.964027,20.8120091 384.964027,18.988 C384.964027,17.1639909 385.67802,15.6100064 387.106027,14.326 C388.534034,13.0419936 390.244017,12.4 392.236027,12.4 C394.228037,12.4 395.93202,13.0479935 397.348027,14.344 Z M395.476027,22.768 C396.220031,21.7839951 396.592027,20.5240077 396.592027,18.988 C396.592027,17.4519923 396.220031,16.1980049 395.476027,15.226 C394.732023,14.2539951 393.652034,13.768 392.236027,13.768 C390.82002,13.768 389.740031,14.2599951 388.996027,15.244 C388.252023,16.2280049 387.880027,17.4759924 387.880027,18.988 C387.880027,20.5000076 388.252023,21.7479951 388.996027,22.732 C389.740031,23.7160049 390.82002,24.208 392.236027,24.208 C393.652034,24.208 394.732023,23.7280048 395.476027,22.768 Z M417.184028,24.712 L412.360028,25.612 C412.168027,25.2279981 411.976029,24.4600058 411.784028,23.308 C410.296021,24.8440077 408.724036,25.612 407.068028,25.612 C404.092013,25.612 402.604028,23.812018 402.604028,20.212 L402.604028,17.944 C402.604028,16.143991 402.43003,14.9920025 402.082028,14.488 C401.734026,13.9839975 400.960034,13.732 399.760028,13.732 L399.760028,13.012 L405.160028,13.012 L405.160028,20.032 C405.160028,22.6000128 406.072019,23.884 407.896028,23.884 C408.712032,23.884 409.564024,23.5420034 410.452028,22.858 C411.340032,22.1739966 411.784028,21.328005 411.784028,20.32 L411.784028,17.944 C411.784028,16.143991 411.61003,14.9920025 411.262028,14.488 C410.914026,13.9839975 410.128034,13.732 408.904028,13.732 L408.904028,13.012 L414.304028,13.012 L414.304028,19.744 C414.304028,21.544009 414.478026,22.6959975 414.826028,23.2 C415.17403,23.7040025 415.960022,23.956 417.184028,23.956 L417.184028,24.712 Z M426.328029,21.688 C426.328029,22.8400058 425.914033,23.7819963 425.086029,24.514 C424.258025,25.2460037 423.244035,25.612 422.044029,25.612 C421.612027,25.612 421.168031,25.5280008 420.712029,25.36 C420.256027,25.1919992 419.89003,25.0300008 419.614029,24.874 C419.338028,24.7179992 419.08003,24.5980004 418.840029,24.514 C418.600028,24.4299996 418.432029,24.4719992 418.336029,24.64 C418.240029,24.8080008 418.192029,25.1319976 418.192029,25.612 L417.436029,25.612 L417.436029,20.356 L418.192029,20.356 C418.192029,21.2920047 418.552025,22.1979956 419.272029,23.074 C419.992033,23.9500044 420.940023,24.388 422.116029,24.388 C422.692032,24.388 423.178027,24.2080018 423.574029,23.848 C423.970031,23.4879982 424.168029,23.0560025 424.168029,22.552 C424.168029,21.8079963 423.496036,21.0760036 422.152029,20.356 L420.136029,19.276 C418.552021,18.4119957 417.760029,17.2120077 417.760029,15.676 C417.760029,14.7399953 418.126025,13.9600031 418.858029,13.336 C419.590033,12.7119969 420.436024,12.4 421.396029,12.4 C422.212033,12.4 423.052025,12.6159978 423.916029,13.048 C424.20403,13.2160008 424.402028,13.2700003 424.510029,13.21 C424.61803,13.1499997 424.672029,12.8800024 424.672029,12.4 L425.428029,12.4 L425.428029,16.576 L424.672029,16.576 C424.672029,15.783996 424.402032,15.0820031 423.862029,14.47 C423.322026,13.8579969 422.620033,13.552 421.756029,13.552 C421.156026,13.552 420.700031,13.6959986 420.388029,13.984 C420.076027,14.2720014 419.920029,14.6439977 419.920029,15.1 C419.920029,15.508002 420.076027,15.8619985 420.388029,16.162 C420.700031,16.4620015 421.276025,16.8399977 422.116029,17.296 L423.844029,18.232 C425.500037,19.1680047 426.328029,20.3199932 426.328029,21.688 Z M433.384031,25 L433.384031,24.244 C434.872038,24.244 435.814029,23.9920025 436.210031,23.488 C436.606033,22.9839975 436.804031,21.832009 436.804031,20.032 L436.804031,8.332 C436.804031,6.531991 436.606033,5.38600246 436.210031,4.894 C435.814029,4.40199754 434.872038,4.156 433.384031,4.156 L433.384031,3.4 L443.140031,3.4 C447.124051,3.4 450.124021,4.40798992 452.140031,6.424 C454.156041,8.44001008 455.164031,11.0319842 455.164031,14.2 C455.164031,17.3680158 454.156041,19.9599899 452.140031,21.976 C450.124021,23.9920101 447.124051,25 443.140031,25 L433.384031,25 Z M439.684031,4.732 L439.684031,19.492 C439.684031,21.3160091 439.876029,22.4679976 440.260031,22.948 C440.644033,23.4280024 441.568024,23.668 443.032031,23.668 L443.176031,23.668 C444.832039,23.668 446.254025,23.3800029 447.442031,22.804 C448.630037,22.2279971 449.518028,21.4540049 450.106031,20.482 C450.694034,19.5099951 451.10803,18.5140051 451.348031,17.494 C451.588032,16.4739949 451.708031,15.3760059 451.708031,14.2 C451.708031,13.0239941 451.588032,11.9260051 451.348031,10.906 C451.10803,9.8859949 450.694034,8.89000486 450.106031,7.918 C449.518028,6.94599514 448.630037,6.17200288 447.442031,5.596 C446.254025,5.01999712 444.832039,4.732 443.176031,4.732 L439.684031,4.732 Z M469.636032,14.344 C471.076039,15.6160064 471.796032,17.1639909 471.796032,18.988 C471.796032,20.8120091 471.082039,22.3719935 469.654032,23.668 C468.226025,24.9640065 466.516042,25.612 464.524032,25.612 C462.532022,25.612 460.822039,24.9640065 459.394032,23.668 C457.966025,22.3719935 457.252032,20.8120091 457.252032,18.988 C457.252032,17.1639909 457.966025,15.6100064 459.394032,14.326 C460.822039,13.0419936 462.532022,12.4 464.524032,12.4 C466.516042,12.4 468.220025,13.0479935 469.636032,14.344 Z M467.764032,22.768 C468.508036,21.7839951 468.880032,20.5240077 468.880032,18.988 C468.880032,17.4519923 468.508036,16.1980049 467.764032,15.226 C467.020028,14.2539951 465.940039,13.768 464.524032,13.768 C463.108025,13.768 462.028036,14.2599951 461.284032,15.244 C460.540028,16.2280049 460.168032,17.4759924 460.168032,18.988 C460.168032,20.5000076 460.540028,21.7479951 461.284032,22.732 C462.028036,23.7160049 463.108025,24.208 464.524032,24.208 C465.940039,24.208 467.020028,23.7280048 467.764032,22.768 Z M478.132033,14.992 C479.50004,13.2639914 481.168023,12.4 483.136033,12.4 C484.696041,12.4 485.866029,12.8919951 486.646033,13.876 C487.426037,14.8600049 487.816033,16.155992 487.816033,17.764 L487.816033,20.032 C487.816033,21.832009 487.990031,22.9839975 488.338033,23.488 C488.686035,23.9920025 489.460027,24.244 490.660033,24.244 L490.660033,25 L482.416033,25 L482.416033,24.244 C483.592039,24.244 484.360031,23.9860026 484.720033,23.47 C485.080035,22.9539974 485.260033,21.8080089 485.260033,20.032 L485.260033,17.944 C485.260033,15.3759872 484.264043,14.092 482.272033,14.092 C481.240028,14.092 480.292037,14.4519964 479.428033,15.172 C478.564029,15.8920036 478.132033,16.7319952 478.132033,17.692 L478.132033,20.032 C478.132033,21.8800092 478.276032,23.0439976 478.564033,23.524 C478.852034,24.0040024 479.548027,24.244 480.652033,24.244 L480.652033,25 L472.732033,25 L472.732033,24.244 C473.932039,24.244 474.706031,23.9920025 475.054033,23.488 C475.402035,22.9839975 475.576033,21.832009 475.576033,20.032 L475.576033,18.232 C475.576033,16.4559911 475.402035,15.3160025 475.054033,14.812 C474.706031,14.3079975 473.932039,14.056 472.732033,14.056 L472.732033,13.3 L477.520033,12.4 C477.736034,12.8560023 477.940032,13.7199936 478.132033,14.992 Z M503.296034,14.344 C504.736041,15.6160064 505.456034,17.1639909 505.456034,18.988 C505.456034,20.8120091 504.742041,22.3719935 503.314034,23.668 C501.886027,24.9640065 500.176044,25.612 498.184034,25.612 C496.192024,25.612 494.482041,24.9640065 493.054034,23.668 C491.626027,22.3719935 490.912034,20.8120091 490.912034,18.988 C490.912034,17.1639909 491.626027,15.6100064 493.054034,14.326 C494.482041,13.0419936 496.192024,12.4 498.184034,12.4 C500.176044,12.4 501.880027,13.0479935 503.296034,14.344 Z M501.424034,22.768 C502.168038,21.7839951 502.540034,20.5240077 502.540034,18.988 C502.540034,17.4519923 502.168038,16.1980049 501.424034,15.226 C500.68003,14.2539951 499.600041,13.768 498.184034,13.768 C496.768027,13.768 495.688038,14.2599951 494.944034,15.244 C494.20003,16.2280049 493.828034,17.4759924 493.828034,18.988 C493.828034,20.5000076 494.20003,21.7479951 494.944034,22.732 C495.688038,23.7160049 496.768027,24.208 498.184034,24.208 C499.600041,24.208 500.68003,23.7280048 501.424034,22.768 Z M518.416035,14.632 C518.416035,15.7600056 517.93604,16.324 516.976035,16.324 C516.640033,16.324 516.346036,16.1920013 516.094035,15.928 C515.842034,15.6639987 515.716035,15.3640017 515.716035,15.028 C515.716035,14.235996 515.332039,13.84 514.564035,13.84 C514.012032,13.84 513.412038,14.2239962 512.764035,14.992 C512.116032,15.7600038 511.792035,16.7799936 511.792035,18.052 L511.792035,20.032 C511.792035,21.832009 511.966033,22.9839975 512.314035,23.488 C512.662037,23.9920025 513.436029,24.244 514.636035,24.244 L514.636035,25 L506.392035,25 L506.392035,24.244 C507.592041,24.244 508.366033,23.9920025 508.714035,23.488 C509.062037,22.9839975 509.236035,21.832009 509.236035,20.032 L509.236035,18.232 C509.236035,16.4559911 509.062037,15.3160025 508.714035,14.812 C508.366033,14.3079975 507.592041,14.056 506.392035,14.056 L506.392035,13.3 L511.180035,12.4 C511.396036,12.8560023 511.600034,13.7199936 511.792035,14.992 C512.152037,14.2719964 512.692031,13.6600025 513.412035,13.156 C514.132039,12.6519975 514.852031,12.4 515.572035,12.4 C516.48404,12.4 517.186033,12.6399976 517.678035,13.12 C518.170037,13.6000024 518.416035,14.1039974 518.416035,14.632 Z M529.216037,17.512 L527.488037,21.508 C527.032035,22.4920049 527.014035,23.1939979 527.434037,23.614 C527.854039,24.0340021 528.80803,24.244 530.296037,24.244 L530.296037,25 L521.872037,25 L521.872037,24.244 C522.640041,24.244 523.234035,24.2140003 523.654037,24.154 C524.074039,24.0939997 524.446035,23.9020016 524.770037,23.578 C525.094039,23.2539984 525.322036,22.9600013 525.454037,22.696 C525.586038,22.4319987 525.832035,21.904004 526.192037,21.112 L534.112037,2.788 L534.580037,2.788 L542.536037,21.112 C542.896039,21.904004 543.142036,22.4319987 543.274037,22.696 C543.406038,22.9600013 543.634035,23.2539984 543.958037,23.578 C544.282039,23.9020016 544.648035,24.0939997 545.056037,24.154 C545.464039,24.2140003 546.052033,24.244 546.820037,24.244 L546.820037,25 L536.848037,25 L536.848037,24.244 C538.336044,24.244 539.284035,24.0340021 539.692037,23.614 C540.100039,23.1939979 540.088039,22.4920049 539.656037,21.508 L537.928037,17.512 L529.216037,17.512 Z M537.316037,16.18 L533.536037,7.504 L529.792037,16.18 L537.316037,16.18 Z M546.172038,14.272 L544.300038,14.272 L544.300038,13.408 C545.332043,13.1919989 546.088036,12.7240036 546.568038,12.004 C547.04804,11.2839964 547.360037,10.3000062 547.504038,9.052 L548.728038,9.052 L548.728038,13.012 L551.860038,13.012 L551.860038,14.272 L548.728038,14.272 L548.728038,21.472 C548.728038,23.2000086 549.268033,24.064 550.348038,24.064 C551.044041,24.064 551.824034,23.6560041 552.688038,22.84 L553.300038,23.452 C552.796035,24.052003 552.190042,24.5439981 551.482038,24.928 C550.774034,25.3120019 550.120041,25.504 549.520038,25.504 C548.488033,25.504 547.672041,25.1680034 547.072038,24.496 C546.472035,23.8239966 546.172038,22.8160067 546.172038,21.472 L546.172038,14.272 Z M565.864039,14.344 C567.304046,15.6160064 568.024039,17.1639909 568.024039,18.988 C568.024039,20.8120091 567.310046,22.3719935 565.882039,23.668 C564.454032,24.9640065 562.744049,25.612 560.752039,25.612 C558.760029,25.612 557.050046,24.9640065 555.622039,23.668 C554.194032,22.3719935 553.480039,20.8120091 553.480039,18.988 C553.480039,17.1639909 554.194032,15.6100064 555.622039,14.326 C557.050046,13.0419936 558.760029,12.4 560.752039,12.4 C562.744049,12.4 564.448032,13.0479935 565.864039,14.344 Z M563.992039,22.768 C564.736043,21.7839951 565.108039,20.5240077 565.108039,18.988 C565.108039,17.4519923 564.736043,16.1980049 563.992039,15.226 C563.248035,14.2539951 562.168046,13.768 560.752039,13.768 C559.336032,13.768 558.256043,14.2599951 557.512039,15.244 C556.768035,16.2280049 556.396039,17.4759924 556.396039,18.988 C556.396039,20.5000076 556.768035,21.7479951 557.512039,22.732 C558.256043,23.7160049 559.336032,24.208 560.752039,24.208 C562.168046,24.208 563.248035,23.7280048 563.992039,22.768 Z M583.18004,17.692 L583.18004,20.032 C583.18004,21.9280095 583.306039,23.1039977 583.55804,23.56 C583.810041,24.0160023 584.440035,24.244 585.44804,24.244 L585.44804,25 L578.39204,25 L578.39204,24.244 C579.400045,24.244 580.030039,24.0160023 580.28204,23.56 C580.534041,23.1039977 580.66004,21.9280095 580.66004,20.032 L580.66004,17.944 C580.66004,15.3759872 579.796049,14.092 578.06804,14.092 C577.324036,14.092 576.520044,14.4399965 575.65604,15.136 C574.792036,15.8320035 574.36004,16.683995 574.36004,17.692 L574.36004,20.032 C574.36004,21.9040094 574.486039,23.0739977 574.73804,23.542 C574.990041,24.0100023 575.608035,24.244 576.59204,24.244 L576.59204,25 L568.96004,25 L568.96004,24.244 C570.160046,24.244 570.934038,23.9920025 571.28204,23.488 C571.630042,22.9839975 571.80404,21.832009 571.80404,20.032 L571.80404,18.232 C571.80404,16.4559911 571.630042,15.3160025 571.28204,14.812 C570.934038,14.3079975 570.160046,14.056 568.96004,14.056 L568.96004,13.3 L573.74804,12.4 C573.964041,12.8560023 574.168039,13.7199936 574.36004,14.992 C575.728047,13.2639914 577.288031,12.4 579.04004,12.4 C581.03205,12.4 582.304037,13.299991 582.85604,15.1 C583.336042,14.4279966 584.050035,13.8100028 584.99804,13.246 C585.946045,12.6819972 586.912035,12.4 587.89604,12.4 C590.656054,12.4 592.03604,14.1879821 592.03604,17.764 L592.03604,20.032 C592.03604,21.832009 592.210038,22.9839975 592.55804,23.488 C592.906042,23.9920025 593.680034,24.244 594.88004,24.244 L594.88004,25 L587.24804,25 L587.24804,24.244 C588.256045,24.244 588.880039,24.0160023 589.12004,23.56 C589.360041,23.1039977 589.48004,21.9280095 589.48004,20.032 L589.48004,17.944 C589.48004,15.3759872 588.628049,14.092 586.92404,14.092 C586.180036,14.092 585.370044,14.4399965 584.49404,15.136 C583.618036,15.8320035 583.18004,16.683995 583.18004,17.692 Z" id="Positively-Charged-P-Copy" fill="#524740"></path>
                </g>
                <g id="Silicon-Atom">
                    <circle id="Oval-Copy-5" fill="#252525" cx="10" cy="16" r="10"></circle>
                    <path d="M37.996,23.92 C37.4439972,24.3760023 37.0960007,24.9399966 36.952,25.612 L36.232,25.612 L36.232,17.692 L36.988,17.692 C36.988,17.7880005 36.9939999,17.9139992 37.006,18.07 C37.0180001,18.2260008 37.0659996,18.5259978 37.15,18.97 C37.2340004,19.4140022 37.3539992,19.839998 37.51,20.248 C37.6660008,20.656002 37.9119983,21.1119975 38.248,21.616 C38.5840017,22.1200025 38.9739978,22.5519982 39.418,22.912 C39.8620022,23.2720018 40.4499963,23.5719988 41.182,23.812 C41.9140037,24.0520012 42.7239956,24.172 43.612,24.172 C44.9080065,24.172 45.9819957,23.8000037 46.834,23.056 C47.6860043,22.3119963 48.112,21.3640058 48.112,20.212 C48.112,18.7479927 46.7320138,17.2960072 43.972,15.856 L40.516,14.092 C39.3879944,13.491997 38.4400038,12.6760052 37.672,11.644 C36.9039962,10.6119948 36.52,9.44800648 36.52,8.152 C36.52,6.63999244 37.0839944,5.36800516 38.212,4.336 C39.3400056,3.30399484 40.7679914,2.788 42.496,2.788 C44.0800079,2.788 45.5439933,3.27999508 46.888,4.264 C47.4400028,3.80799772 47.7879993,3.25600324 47.932,2.608 L48.652,2.608 L48.652,10.528 L47.896,10.528 C47.5359982,6.327979 45.7000166,4.228 42.388,4.228 C41.379995,4.228 40.5460033,4.53399694 39.886,5.146 C39.2259967,5.75800306 38.896,6.51999544 38.896,7.432 C38.896,8.32000444 39.2139968,9.06999694 39.85,9.682 C40.4860032,10.2940031 41.6319917,11.0319957 43.288,11.896 L46.708,13.66 C49.2280126,14.9320064 50.488,16.7559881 50.488,19.132 C50.488,21.0520096 49.8220067,22.611994 48.49,23.812 C47.1579933,25.012006 45.5320096,25.612 43.612,25.612 C42.7959959,25.612 42.0160037,25.4920012 41.272,25.252 C40.5279963,25.0119988 39.856003,24.7420015 39.256,24.442 C38.655997,24.1419985 38.2360012,23.9680002 37.996,23.92 Z M59.704001,25 L51.460001,25 L51.460001,24.244 C52.660007,24.244 53.4339993,23.9920025 53.782001,23.488 C54.1300027,22.9839975 54.304001,21.832009 54.304001,20.032 L54.304001,18.232 C54.304001,16.4559911 54.1300027,15.3160025 53.782001,14.812 C53.4339993,14.3079975 52.660007,14.056 51.460001,14.056 L51.460001,13.3 L56.860001,12.4 L56.860001,20.032 C56.860001,21.832009 57.0339993,22.9839975 57.382001,23.488 C57.7300027,23.9920025 58.503995,24.244 59.704001,24.244 L59.704001,25 Z M57.148001,7.252 C57.148001,7.70800228 56.9920026,8.09199844 56.680001,8.404 C56.3679994,8.71600156 55.9960032,8.872 55.564001,8.872 C55.1319988,8.872 54.7600026,8.71600156 54.448001,8.404 C54.1359994,8.09199844 53.980001,7.70800228 53.980001,7.252 C53.980001,6.81999784 54.1359994,6.44800156 54.448001,6.136 C54.7600026,5.82399844 55.1319988,5.668 55.564001,5.668 C55.9960032,5.668 56.3679994,5.82399844 56.680001,6.136 C56.9920026,6.44800156 57.148001,6.81999784 57.148001,7.252 Z M67.156002,25 L58.912002,25 L58.912002,24.244 C60.112008,24.244 60.8860003,23.9920025 61.234002,23.488 C61.5820037,22.9839975 61.756002,21.832009 61.756002,20.032 L61.756002,8.656 C61.756002,6.855991 61.5820037,5.70400252 61.234002,5.2 C60.8860003,4.69599748 60.112008,4.444 58.912002,4.444 L58.912002,3.688 L64.312002,2.788 L64.312002,20.032 C64.312002,21.832009 64.4860003,22.9839975 64.834002,23.488 C65.1820037,23.9920025 65.955996,24.244 67.156002,24.244 L67.156002,25 Z M75.328003,25 L67.084003,25 L67.084003,24.244 C68.284009,24.244 69.0580013,23.9920025 69.406003,23.488 C69.7540047,22.9839975 69.928003,21.832009 69.928003,20.032 L69.928003,18.232 C69.928003,16.4559911 69.7540047,15.3160025 69.406003,14.812 C69.0580013,14.3079975 68.284009,14.056 67.084003,14.056 L67.084003,13.3 L72.484003,12.4 L72.484003,20.032 C72.484003,21.832009 72.6580013,22.9839975 73.006003,23.488 C73.3540047,23.9920025 74.127997,24.244 75.328003,24.244 L75.328003,25 Z M72.772003,7.252 C72.772003,7.70800228 72.6160046,8.09199844 72.304003,8.404 C71.9920014,8.71600156 71.6200052,8.872 71.188003,8.872 C70.7560008,8.872 70.3840046,8.71600156 70.072003,8.404 C69.7600014,8.09199844 69.604003,7.70800228 69.604003,7.252 C69.604003,6.81999784 69.7600014,6.44800156 70.072003,6.136 C70.3840046,5.82399844 70.7560008,5.668 71.188003,5.668 C71.6200052,5.668 71.9920014,5.82399844 72.304003,6.136 C72.6160046,6.44800156 72.772003,6.81999784 72.772003,7.252 Z M81.952004,13.552 C80.9919992,13.552 80.1760074,14.1039945 79.504004,15.208 C78.8320006,16.3120055 78.496004,17.6799918 78.496004,19.312 C78.496004,20.8000074 78.8620003,21.9699957 79.594004,22.822 C80.3260077,23.6740043 81.4119968,24.1 82.852004,24.1 C84.244011,24.1 85.5279981,23.5480055 86.704004,22.444 L87.316004,23.236 C85.8519967,24.8200079 84.0640146,25.612 81.952004,25.612 C79.9839942,25.612 78.4300097,25.0240059 77.290004,23.848 C76.1499983,22.6719941 75.580004,21.1600092 75.580004,19.312 C75.580004,17.31999 76.2519973,15.6700065 77.596004,14.362 C78.9400107,13.0539935 80.3919962,12.4 81.952004,12.4 C83.3680111,12.4 84.4360004,12.6519975 85.156004,13.156 C85.8760076,13.6600025 86.236004,14.2719964 86.236004,14.992 C86.236004,15.3760019 86.1100053,15.7299984 85.858004,16.054 C85.6060027,16.3780016 85.2040068,16.54 84.652004,16.54 C84.2680021,16.54 83.9380054,16.4020014 83.662004,16.126 C83.3860026,15.8499986 83.248004,15.508002 83.248004,15.1 C83.248004,14.0679948 82.8160083,13.552 81.952004,13.552 Z M99.952005,14.344 C101.392012,15.6160064 102.112005,17.1639909 102.112005,18.988 C102.112005,20.8120091 101.398012,22.3719935 99.970005,23.668 C98.5419979,24.9640065 96.832015,25.612 94.840005,25.612 C92.847995,25.612 91.1380121,24.9640065 89.710005,23.668 C88.2819979,22.3719935 87.568005,20.8120091 87.568005,18.988 C87.568005,17.1639909 88.2819979,15.6100064 89.710005,14.326 C91.1380121,13.0419936 92.847995,12.4 94.840005,12.4 C96.832015,12.4 98.5359979,13.0479935 99.952005,14.344 Z M98.080005,22.768 C98.8240087,21.7839951 99.196005,20.5240077 99.196005,18.988 C99.196005,17.4519923 98.8240087,16.1980049 98.080005,15.226 C97.3360013,14.2539951 96.2560121,13.768 94.840005,13.768 C93.4239979,13.768 92.3440087,14.2599951 91.600005,15.244 C90.8560013,16.2280049 90.484005,17.4759924 90.484005,18.988 C90.484005,20.5000076 90.8560013,21.7479951 91.600005,22.732 C92.3440087,23.7160049 93.4239979,24.208 94.840005,24.208 C96.2560121,24.208 97.3360013,23.7280048 98.080005,22.768 Z M108.448006,14.992 C109.816013,13.2639914 111.483996,12.4 113.452006,12.4 C115.012014,12.4 116.182002,12.8919951 116.962006,13.876 C117.74201,14.8600049 118.132006,16.155992 118.132006,17.764 L118.132006,20.032 C118.132006,21.832009 118.306004,22.9839975 118.654006,23.488 C119.002008,23.9920025 119.776,24.244 120.976006,24.244 L120.976006,25 L112.732006,25 L112.732006,24.244 C113.908012,24.244 114.676004,23.9860026 115.036006,23.47 C115.396008,22.9539974 115.576006,21.8080089 115.576006,20.032 L115.576006,17.944 C115.576006,15.3759872 114.580016,14.092 112.588006,14.092 C111.556001,14.092 110.60801,14.4519964 109.744006,15.172 C108.880002,15.8920036 108.448006,16.7319952 108.448006,17.692 L108.448006,20.032 C108.448006,21.8800092 108.592005,23.0439976 108.880006,23.524 C109.168007,24.0040024 109.864,24.244 110.968006,24.244 L110.968006,25 L103.048006,25 L103.048006,24.244 C104.248012,24.244 105.022004,23.9920025 105.370006,23.488 C105.718008,22.9839975 105.892006,21.832009 105.892006,20.032 L105.892006,18.232 C105.892006,16.4559911 105.718008,15.3160025 105.370006,14.812 C105.022004,14.3079975 104.248012,14.056 103.048006,14.056 L103.048006,13.3 L107.836006,12.4 C108.052007,12.8560023 108.256005,13.7199936 108.448006,14.992 Z M131.704008,17.512 L129.976008,21.508 C129.520006,22.4920049 129.502006,23.1939979 129.922008,23.614 C130.34201,24.0340021 131.296001,24.244 132.784008,24.244 L132.784008,25 L124.360008,25 L124.360008,24.244 C125.128012,24.244 125.722006,24.2140003 126.142008,24.154 C126.56201,24.0939997 126.934006,23.9020016 127.258008,23.578 C127.58201,23.2539984 127.810007,22.9600013 127.942008,22.696 C128.074009,22.4319987 128.320006,21.904004 128.680008,21.112 L136.600008,2.788 L137.068008,2.788 L145.024008,21.112 C145.38401,21.904004 145.630007,22.4319987 145.762008,22.696 C145.894009,22.9600013 146.122006,23.2539984 146.446008,23.578 C146.77001,23.9020016 147.136006,24.0939997 147.544008,24.154 C147.95201,24.2140003 148.540004,24.244 149.308008,24.244 L149.308008,25 L139.336008,25 L139.336008,24.244 C140.824015,24.244 141.772006,24.0340021 142.180008,23.614 C142.58801,23.1939979 142.57601,22.4920049 142.144008,21.508 L140.416008,17.512 L131.704008,17.512 Z M139.804008,16.18 L136.024008,7.504 L132.280008,16.18 L139.804008,16.18 Z M148.660009,14.272 L146.788009,14.272 L146.788009,13.408 C147.820014,13.1919989 148.576007,12.7240036 149.056009,12.004 C149.536011,11.2839964 149.848008,10.3000062 149.992009,9.052 L151.216009,9.052 L151.216009,13.012 L154.348009,13.012 L154.348009,14.272 L151.216009,14.272 L151.216009,21.472 C151.216009,23.2000086 151.756004,24.064 152.836009,24.064 C153.532012,24.064 154.312005,23.6560041 155.176009,22.84 L155.788009,23.452 C155.284006,24.052003 154.678013,24.5439981 153.970009,24.928 C153.262005,25.3120019 152.608012,25.504 152.008009,25.504 C150.976004,25.504 150.160012,25.1680034 149.560009,24.496 C148.960006,23.8239966 148.660009,22.8160067 148.660009,21.472 L148.660009,14.272 Z M168.35201,14.344 C169.792017,15.6160064 170.51201,17.1639909 170.51201,18.988 C170.51201,20.8120091 169.798017,22.3719935 168.37001,23.668 C166.942003,24.9640065 165.23202,25.612 163.24001,25.612 C161.248,25.612 159.538017,24.9640065 158.11001,23.668 C156.682003,22.3719935 155.96801,20.8120091 155.96801,18.988 C155.96801,17.1639909 156.682003,15.6100064 158.11001,14.326 C159.538017,13.0419936 161.248,12.4 163.24001,12.4 C165.23202,12.4 166.936003,13.0479935 168.35201,14.344 Z M166.48001,22.768 C167.224014,21.7839951 167.59601,20.5240077 167.59601,18.988 C167.59601,17.4519923 167.224014,16.1980049 166.48001,15.226 C165.736006,14.2539951 164.656017,13.768 163.24001,13.768 C161.824003,13.768 160.744014,14.2599951 160.00001,15.244 C159.256006,16.2280049 158.88401,17.4759924 158.88401,18.988 C158.88401,20.5000076 159.256006,21.7479951 160.00001,22.732 C160.744014,23.7160049 161.824003,24.208 163.24001,24.208 C164.656017,24.208 165.736006,23.7280048 166.48001,22.768 Z M185.668011,17.692 L185.668011,20.032 C185.668011,21.9280095 185.79401,23.1039977 186.046011,23.56 C186.298012,24.0160023 186.928006,24.244 187.936011,24.244 L187.936011,25 L180.880011,25 L180.880011,24.244 C181.888016,24.244 182.51801,24.0160023 182.770011,23.56 C183.022012,23.1039977 183.148011,21.9280095 183.148011,20.032 L183.148011,17.944 C183.148011,15.3759872 182.28402,14.092 180.556011,14.092 C179.812007,14.092 179.008015,14.4399965 178.144011,15.136 C177.280007,15.8320035 176.848011,16.683995 176.848011,17.692 L176.848011,20.032 C176.848011,21.9040094 176.97401,23.0739977 177.226011,23.542 C177.478012,24.0100023 178.096006,24.244 179.080011,24.244 L179.080011,25 L171.448011,25 L171.448011,24.244 C172.648017,24.244 173.422009,23.9920025 173.770011,23.488 C174.118013,22.9839975 174.292011,21.832009 174.292011,20.032 L174.292011,18.232 C174.292011,16.4559911 174.118013,15.3160025 173.770011,14.812 C173.422009,14.3079975 172.648017,14.056 171.448011,14.056 L171.448011,13.3 L176.236011,12.4 C176.452012,12.8560023 176.65601,13.7199936 176.848011,14.992 C178.216018,13.2639914 179.776002,12.4 181.528011,12.4 C183.520021,12.4 184.792008,13.299991 185.344011,15.1 C185.824013,14.4279966 186.538006,13.8100028 187.486011,13.246 C188.434016,12.6819972 189.400006,12.4 190.384011,12.4 C193.144025,12.4 194.524011,14.1879821 194.524011,17.764 L194.524011,20.032 C194.524011,21.832009 194.698009,22.9839975 195.046011,23.488 C195.394013,23.9920025 196.168005,24.244 197.368011,24.244 L197.368011,25 L189.736011,25 L189.736011,24.244 C190.744016,24.244 191.36801,24.0160023 191.608011,23.56 C191.848012,23.1039977 191.968011,21.9280095 191.968011,20.032 L191.968011,17.944 C191.968011,15.3759872 191.11602,14.092 189.412011,14.092 C188.668007,14.092 187.858015,14.4399965 186.982011,15.136 C186.106007,15.8320035 185.668011,16.683995 185.668011,17.692 Z" id="Silicon-Atom-Copy" fill="#524740"></path>
                </g>
            </g>
        </g>
        <path d="M31.576,19.808 L33.952,19.808 L33.952,44 L31.504,44 L18.004,23.444 L18.004,44 L15.628,44 L15.628,19.808 L18.04,19.808 L31.576,40.4 L31.576,19.808 Z M45.7960006,32.984 L36.1120006,32.984 L36.1120006,30.824 L45.7960006,30.824 L45.7960006,32.984 Z M60.2320013,19.808 L60.2320013,22.184 L51.6280013,22.184 L51.6280013,44 L49.2520013,44 L49.2520013,22.184 L40.6480013,22.184 L40.6480013,19.808 L60.2320013,19.808 Z M68.8720019,26 L71.2480019,26 L61.4200019,51.668 L59.0440019,51.668 L62.8240019,41.804 L56.1640019,26 L58.5400019,26 L63.9400019,38.852 L68.8720019,26 Z M82.3000025,25.676 C84.8680154,25.676 87.0579935,26.5819909 88.8700025,28.394 C90.6820116,30.2060091 91.5880025,32.3959872 91.5880025,34.964 C91.5880025,37.5320128 90.6820116,39.7219909 88.8700025,41.534 C87.0579935,43.3460091 84.8680154,44.252 82.3000025,44.252 C79.4199881,44.252 77.0680116,43.1600109 75.2440025,40.976 L75.2440025,52.748 L72.8680025,52.748 L72.8680025,25.964 L75.2440025,25.964 L75.2440025,28.916 C77.0920118,26.7559892 79.4439882,25.676 82.3000025,25.676 Z M77.3320025,39.968 C78.6760092,41.3120067 80.3079929,41.984 82.2280025,41.984 C84.1480121,41.984 85.7859957,41.3060068 87.1420025,39.95 C88.4980093,38.5939932 89.1760025,36.9320098 89.1760025,34.964 C89.1760025,32.9959902 88.4980093,31.3280068 87.1420025,29.96 C85.7859957,28.5919932 84.1480121,27.908 82.2280025,27.908 C80.3079929,27.908 78.6760092,28.5919932 77.3320025,29.96 C75.9879958,31.3280068 75.3160025,32.9959902 75.3160025,34.964 C75.3160025,36.9320098 75.9879958,38.5999932 77.3320025,39.968 Z M101.344003,41.912 C102.952011,41.912 104.391997,41.4560046 105.664003,40.544 C106.93601,39.6319954 107.800001,38.5640061 108.256003,37.34 L110.272003,38.06 C109.72,39.5720076 108.646011,40.9639936 107.050003,42.236 C105.453995,43.5080064 103.552014,44.1320001 101.344003,44.108 C99.3279931,44.108 97.4860115,43.4840062 95.8180031,42.236 C94.1499948,40.9879938 93.0160061,39.3920097 92.4160031,37.448 C92.1760019,36.655996 92.0560031,35.7920047 92.0560031,34.856 C92.0560031,32.263987 92.9559941,30.068009 94.7560031,28.268 C96.5560121,26.467991 98.7519902,25.5560001 101.344003,25.532 C103.696015,25.5560001 105.747994,26.3479922 107.500003,27.908 C109.252012,29.4680078 110.260002,31.3999885 110.524003,33.704 C110.548003,33.8240006 110.560003,33.979999 110.560003,34.172 L94.8280031,37.016 C95.2360052,38.4560072 96.051997,39.6379954 97.2760031,40.562 C98.5000093,41.4860046 99.8559957,41.9360001 101.344003,41.912 Z M101.128003,27.728 C99.3279941,27.7520001 97.7860096,28.3999936 96.5020031,29.672 C95.2179967,30.9440064 94.5280036,32.4679911 94.4320031,34.244 C94.4320031,34.3160004 94.4380031,34.4419991 94.4500031,34.622 C94.4620032,34.8020009 94.4680031,34.9519994 94.4680031,35.072 L107.860003,32.66 C107.404001,31.1959927 106.552009,30.0020046 105.304003,29.078 C104.055997,28.1539954 102.664011,27.7039999 101.128003,27.728 Z M127.588004,44.288 C125.979996,44.288 124.426012,43.8800041 122.926004,43.064 C121.425997,42.2479959 120.292008,41.4320041 119.524004,40.616 L121.180004,38.996 C121.780007,39.6440032 122.667999,40.3099966 123.844004,40.994 C125.02001,41.6780034 126.267998,42.02 127.588004,42.02 C129.196012,42.02 130.462,41.6660035 131.386004,40.958 C132.310009,40.2499965 132.772004,39.2840061 132.772004,38.06 C132.772004,37.0279948 132.322009,36.1280038 131.422004,35.36 C130.522,34.5919962 129.430011,33.9440026 128.146004,33.416 C126.861998,32.8879974 125.572011,32.3300029 124.276004,31.742 C122.979998,31.1539971 121.882009,30.356005 120.982004,29.348 C120.082,28.339995 119.632004,27.1520068 119.632004,25.784 C119.632004,24.0319912 120.291998,22.556006 121.612004,21.356 C122.932011,20.155994 124.779993,19.556 127.156004,19.556 C128.764012,19.556 130.317997,19.9639959 131.818004,20.78 C133.318012,21.5960041 134.452001,22.4119959 135.220004,23.228 L133.564004,24.848 C132.940001,24.1759966 132.04001,23.5040034 130.864004,22.832 C129.687999,22.1599966 128.452011,21.824 127.156004,21.824 C125.547996,21.824 124.282009,22.1779965 123.358004,22.886 C122.434,23.5940035 121.972004,24.5599939 121.972004,25.784 C121.972004,26.8160052 122.422,27.7219961 123.322004,28.502 C124.222009,29.2820039 125.313998,29.9359974 126.598004,30.464 C127.882011,30.9920026 129.171998,31.5439971 130.468004,32.12 C131.764011,32.6960029 132.862,33.487995 133.762004,34.496 C134.662009,35.504005 135.112004,36.6919932 135.112004,38.06 C135.112004,39.8120088 134.452011,41.287994 133.132004,42.488 C131.811998,43.688006 129.964016,44.288 127.588004,44.288 Z M139.936005,20.6 C139.672004,20.8880014 139.336007,21.032 138.928005,21.032 C138.520003,21.032 138.178006,20.8880014 137.902005,20.6 C137.626004,20.3119986 137.488005,19.9760019 137.488005,19.592 C137.488005,19.2079981 137.626004,18.8720014 137.902005,18.584 C138.178006,18.2959986 138.520003,18.152 138.928005,18.152 C139.336007,18.152 139.678004,18.2959986 139.954005,18.584 C140.230006,18.8720014 140.368005,19.2079981 140.368005,19.592 C140.368005,19.9760019 140.224006,20.3119986 139.936005,20.6 Z M137.740005,44 L137.740005,26 L140.116005,26 L140.116005,44 L137.740005,44 Z M143.464006,44 L143.464006,17.216 L145.840006,17.216 L145.840006,44 L143.464006,44 Z M151.384006,20.6 C151.120005,20.8880014 150.784008,21.032 150.376006,21.032 C149.968004,21.032 149.626008,20.8880014 149.350006,20.6 C149.074005,20.3119986 148.936006,19.9760019 148.936006,19.592 C148.936006,19.2079981 149.074005,18.8720014 149.350006,18.584 C149.626008,18.2959986 149.968004,18.152 150.376006,18.152 C150.784008,18.152 151.126005,18.2959986 151.402006,18.584 C151.678008,18.8720014 151.816006,19.2079981 151.816006,19.592 C151.816006,19.9760019 151.672008,20.3119986 151.384006,20.6 Z M149.188006,44 L149.188006,26 L151.564006,26 L151.564006,44 L149.188006,44 Z M162.904007,44.288 C160.335994,44.288 158.146016,43.3820091 156.334007,41.57 C154.521998,39.7579909 153.616007,37.5680128 153.616007,35 C153.616007,32.4319872 154.521998,30.2420091 156.334007,28.43 C158.146016,26.6179909 160.335994,25.712 162.904007,25.712 C164.536015,25.712 166.054,26.113996 167.458007,26.918 C168.862014,27.722004 169.972003,28.7959933 170.788007,30.14 L168.628007,31.184 C167.980004,30.1999951 167.152012,29.4200029 166.144007,28.844 C165.136002,28.2679971 164.056013,27.98 162.904007,27.98 C160.959997,27.98 159.322014,28.6579932 157.990007,30.014 C156.658,31.3700068 155.992007,33.0319902 155.992007,35 C155.992007,36.9680098 156.658,38.6299932 157.990007,39.986 C159.322014,41.3420068 160.959997,42.02 162.904007,42.02 C164.056013,42.02 165.136002,41.7320029 166.144007,41.156 C167.152012,40.5799971 167.980004,39.8000049 168.628007,38.816 L170.788007,39.86 C169.972003,41.2040067 168.862014,42.277996 167.458007,43.082 C166.054,43.886004 164.536015,44.288 162.904007,44.288 Z M187.024008,41.552 C185.223999,43.3760091 183.04002,44.288 180.472008,44.288 C177.903995,44.288 175.714017,43.3820091 173.902008,41.57 C172.089998,39.7579909 171.184008,37.5680128 171.184008,35 C171.184008,32.4319872 172.089998,30.2420091 173.902008,28.43 C175.714017,26.6179909 177.903995,25.712 180.472008,25.712 C183.04002,25.712 185.229998,26.6179909 187.042008,28.43 C188.854017,30.2420091 189.760008,32.4319872 189.760008,35 C189.760008,37.5440127 188.848017,39.7279909 187.024008,41.552 Z M180.508008,42.02 C182.452017,42.02 184.090001,41.3420068 185.422008,39.986 C186.754014,38.6299932 187.420008,36.9680098 187.420008,35 C187.420008,33.0319902 186.754014,31.3640068 185.422008,29.996 C184.090001,28.6279932 182.452017,27.944 180.508008,27.944 C178.587998,27.944 176.956014,28.6279932 175.612008,29.996 C174.268001,31.3640068 173.596008,33.0319902 173.596008,35 C173.596008,36.9680098 174.268001,38.6299932 175.612008,39.986 C176.956014,41.3420068 178.587998,42.02 180.508008,42.02 Z M199.300008,25.712 C201.388019,25.712 203.140001,26.4499926 204.556008,27.926 C205.972015,29.4020074 206.680008,31.2199892 206.680008,33.38 L206.680008,44 L204.268008,44 L204.268008,33.452 C204.268008,31.9159923 203.746013,30.6080054 202.702008,29.528 C201.658003,28.4479946 200.392016,27.908 198.904008,27.908 C197.416001,27.908 196.150013,28.4479946 195.106008,29.528 C194.062003,30.6080054 193.540008,31.9159923 193.540008,33.452 L193.540008,44 L191.164008,44 L191.164008,26 L193.540008,26 L193.540008,28.664 C195.004016,26.6959902 196.923996,25.712 199.300008,25.712 Z M227.812009,44.288 C224.259992,44.288 221.42802,43.1060118 219.316009,40.742 C217.203999,38.3779882 216.148009,35.4440175 216.148009,31.94 C216.148009,28.4119824 217.203999,25.4660118 219.316009,23.102 C221.42802,20.7379882 224.259992,19.556 227.812009,19.556 C230.164021,19.556 232.210001,20.0959946 233.950009,21.176 C235.690018,22.2560054 237.040005,23.7319906 238.000009,25.604 L235.768009,26.9 C235.000006,25.3399922 233.926016,24.1040046 232.546009,23.192 C231.166003,22.2799954 229.588018,21.824 227.812009,21.824 C225.075996,21.824 222.886018,22.7779905 221.242009,24.686 C219.598001,26.5940095 218.776009,29.0119854 218.776009,31.94 C218.776009,34.8440145 219.598001,37.2559904 221.242009,39.176 C222.886018,41.0960096 225.075996,42.056 227.812009,42.056 C229.612018,42.056 231.202003,41.5940046 232.582009,40.67 C233.962016,39.7459954 235.024006,38.5040078 235.768009,36.944 L238.000009,38.276 C237.040005,40.1480094 235.690018,41.6179947 233.950009,42.686 C232.210001,43.7540053 230.164021,44.288 227.812009,44.288 Z M248.08001,25.712 C249.352016,25.712 250.516005,26.0239969 251.57201,26.648 L250.74401,29.024 C249.736005,28.2799963 248.716015,27.908 247.68401,27.908 C246.172003,27.908 244.900015,28.4419947 243.86801,29.51 C242.836005,30.5780053 242.32001,31.8919922 242.32001,33.452 L242.32001,44 L239.94401,44 L239.94401,26 L242.32001,26 L242.32001,28.664 C243.784017,26.6959902 245.703998,25.712 248.08001,25.712 Z M264.604011,26 L266.980011,26 L257.152011,51.668 L254.776011,51.668 L258.556011,41.804 L251.896011,26 L254.272011,26 L259.672011,38.852 L264.604011,26 Z M273.676011,44.288 C272.860007,44.288 272.068015,44.186001 271.300011,43.982 C270.532007,43.777999 269.890014,43.5380014 269.374011,43.262 C268.858009,42.9859986 268.396013,42.7040014 267.988011,42.416 C267.580009,42.1279986 267.280012,41.888001 267.088011,41.696 L266.800011,41.372 L268.492011,39.932 C268.660012,40.1000008 268.89401,40.3039988 269.194011,40.544 C269.494013,40.7840012 270.100007,41.107998 271.012011,41.516 C271.924016,41.924002 272.824007,42.128 273.712011,42.128 C275.032018,42.128 276.088007,41.8760025 276.880011,41.372 C277.672015,40.8679975 278.068011,40.1600046 278.068011,39.248 C278.068011,38.5999968 277.672015,38.0420023 276.880011,37.574 C276.088007,37.1059977 275.128017,36.7040017 274.000011,36.368 C272.872006,36.0319983 271.738017,35.660002 270.598011,35.252 C269.458006,34.843998 268.492015,34.2680037 267.700011,33.524 C266.908007,32.7799963 266.512011,31.8680054 266.512011,30.788 C266.512011,29.2999926 267.070006,28.0820047 268.186011,27.134 C269.302017,26.1859953 270.952,25.712 273.136011,25.712 C274.432018,25.712 275.656006,25.9519976 276.808011,26.432 C277.960017,26.9120024 278.788009,27.3919976 279.292011,27.872 L280.048011,28.592 L278.356011,30.068 C278.18801,29.8999992 277.954013,29.6960012 277.654011,29.456 C277.35401,29.2159988 276.748016,28.892002 275.836011,28.484 C274.924007,28.075998 274.012016,27.872 273.100011,27.872 C271.804005,27.872 270.754015,28.1239975 269.950011,28.628 C269.146007,29.1320025 268.744011,29.8399954 268.744011,30.752 C268.744011,31.4000032 269.140007,31.9579977 269.932011,32.426 C270.724015,32.8940023 271.684006,33.2959983 272.812011,33.632 C273.940017,33.9680017 275.074006,34.333998 276.214011,34.73 C277.354017,35.126002 278.320007,35.7019962 279.112011,36.458 C279.904015,37.2140038 280.300011,38.1319946 280.300011,39.212 C280.300011,40.7240076 279.748017,41.9479953 278.644011,42.884 C277.540006,43.8200047 275.884022,44.288 273.676011,44.288 Z M291.640012,39.968 L292.828012,41.804 C292.684011,41.996001 292.492013,42.2239987 292.252012,42.488 C292.012011,42.7520013 291.472016,43.1179977 290.632012,43.586 C289.792008,44.0540023 288.928016,44.288 288.040012,44.288 C286.528004,44.288 285.262017,43.8380045 284.242012,42.938 C283.222007,42.0379955 282.712012,40.7360085 282.712012,39.032 L282.712012,28.16 L279.832012,28.16 L279.832012,25.964 L282.712012,25.964 L282.712012,20.276 L285.088012,19.988 L285.088012,25.964 L290.524012,25.964 L290.524012,28.16 L285.088012,28.16 L285.088012,38.492 C285.088012,39.5960055 285.430009,40.4719968 286.114012,41.12 C286.798015,41.7680032 287.584008,42.092 288.472012,42.092 C289.024015,42.092 289.564009,41.9240017 290.092012,41.588 C290.620015,41.2519983 291.010011,40.9220016 291.262012,40.598 C291.514013,40.2739984 291.640012,40.0640005 291.640012,39.968 Z M308.164013,26 L310.540013,26 L310.540013,44 L308.164013,44 L308.164013,41.084 C306.316003,43.2200107 303.976027,44.288 301.144013,44.288 C298.576,44.288 296.386022,43.3820091 294.574013,41.57 C292.762004,39.7579909 291.856013,37.5680128 291.856013,35 C291.856013,32.4319872 292.762004,30.2420091 294.574013,28.43 C296.386022,26.6179909 298.576,25.712 301.144013,25.712 C304.000027,25.712 306.340003,26.7799893 308.164013,28.916 L308.164013,26 Z M301.180013,42.02 C303.124022,42.02 304.762006,41.3420068 306.094013,39.986 C307.426019,38.6299932 308.092013,36.9680098 308.092013,35 C308.092013,33.0319902 307.426019,31.3700068 306.094013,30.014 C304.762006,28.6579932 303.124022,27.98 301.180013,27.98 C299.260003,27.98 297.622019,28.6579932 296.266013,30.014 C294.910006,31.3700068 294.232013,33.0319902 294.232013,35 C294.232013,36.9680098 294.910006,38.6299932 296.266013,39.986 C297.622019,41.3420068 299.260003,42.02 301.180013,42.02 Z M313.456013,44 L313.456013,17.216 L315.832013,17.216 L315.832013,44 L313.456013,44 Z M328.900014,41.624 L339.916014,41.624 L339.916014,44 L326.524014,44 L326.524014,19.808 L328.900014,19.808 L328.900014,41.624 Z M355.720015,26 L358.096015,26 L358.096015,44 L355.720015,44 L355.720015,41.084 C353.872006,43.2200107 351.532029,44.288 348.700015,44.288 C346.132002,44.288 343.942024,43.3820091 342.130015,41.57 C340.318006,39.7579909 339.412015,37.5680128 339.412015,35 C339.412015,32.4319872 340.318006,30.2420091 342.130015,28.43 C343.942024,26.6179909 346.132002,25.712 348.700015,25.712 C351.556029,25.712 353.896006,26.7799893 355.720015,28.916 L355.720015,26 Z M348.736015,42.02 C350.680025,42.02 352.318008,41.3420068 353.650015,39.986 C354.982022,38.6299932 355.648015,36.9680098 355.648015,35 C355.648015,33.0319902 354.982022,31.3700068 353.650015,30.014 C352.318008,28.6579932 350.680025,27.98 348.736015,27.98 C346.816006,27.98 345.178022,28.6579932 343.822015,30.014 C342.466008,31.3700068 341.788015,33.0319902 341.788015,35 C341.788015,36.9680098 342.466008,38.6299932 343.822015,39.986 C345.178022,41.3420068 346.816006,42.02 348.736015,42.02 Z M370.660016,39.968 L371.848016,41.804 C371.704015,41.996001 371.512017,42.2239987 371.272016,42.488 C371.032015,42.7520013 370.49202,43.1179977 369.652016,43.586 C368.812012,44.0540023 367.94802,44.288 367.060016,44.288 C365.548008,44.288 364.282021,43.8380045 363.262016,42.938 C362.242011,42.0379955 361.732016,40.7360085 361.732016,39.032 L361.732016,28.16 L358.852016,28.16 L358.852016,25.964 L361.732016,25.964 L361.732016,20.276 L364.108016,19.988 L364.108016,25.964 L369.544016,25.964 L369.544016,28.16 L364.108016,28.16 L364.108016,38.492 C364.108016,39.5960055 364.450012,40.4719968 365.134016,41.12 C365.818019,41.7680032 366.604011,42.092 367.492016,42.092 C368.044018,42.092 368.584013,41.9240017 369.112016,41.588 C369.640018,41.2519983 370.030014,40.9220016 370.282016,40.598 C370.534017,40.2739984 370.660016,40.0640005 370.660016,39.968 Z M381.568016,39.968 L382.756016,41.804 C382.612016,41.996001 382.420018,42.2239987 382.180016,42.488 C381.940015,42.7520013 381.400021,43.1179977 380.560016,43.586 C379.720012,44.0540023 378.856021,44.288 377.968016,44.288 C376.456009,44.288 375.190021,43.8380045 374.170016,42.938 C373.150011,42.0379955 372.640016,40.7360085 372.640016,39.032 L372.640016,28.16 L369.760016,28.16 L369.760016,25.964 L372.640016,25.964 L372.640016,20.276 L375.016016,19.988 L375.016016,25.964 L380.452016,25.964 L380.452016,28.16 L375.016016,28.16 L375.016016,38.492 C375.016016,39.5960055 375.358013,40.4719968 376.042016,41.12 C376.72602,41.7680032 377.512012,42.092 378.400016,42.092 C378.952019,42.092 379.492014,41.9240017 380.020016,41.588 C380.548019,41.2519983 380.938015,40.9220016 381.190016,40.598 C381.442018,40.2739984 381.568016,40.0640005 381.568016,39.968 Z M386.248017,20.6 C385.984016,20.8880014 385.648019,21.032 385.240017,21.032 C384.832015,21.032 384.490018,20.8880014 384.214017,20.6 C383.938016,20.3119986 383.800017,19.9760019 383.800017,19.592 C383.800017,19.2079981 383.938016,18.8720014 384.214017,18.584 C384.490018,18.2959986 384.832015,18.152 385.240017,18.152 C385.648019,18.152 385.990016,18.2959986 386.266017,18.584 C386.542018,18.8720014 386.680017,19.2079981 386.680017,19.592 C386.680017,19.9760019 386.536018,20.3119986 386.248017,20.6 Z M384.052017,44 L384.052017,26 L386.428017,26 L386.428017,44 L384.052017,44 Z M397.768018,44.288 C395.200005,44.288 393.010027,43.3820091 391.198018,41.57 C389.386009,39.7579909 388.480018,37.5680128 388.480018,35 C388.480018,32.4319872 389.386009,30.2420091 391.198018,28.43 C393.010027,26.6179909 395.200005,25.712 397.768018,25.712 C399.400026,25.712 400.918011,26.113996 402.322018,26.918 C403.726025,27.722004 404.836014,28.7959933 405.652018,30.14 L403.492018,31.184 C402.844014,30.1999951 402.016023,29.4200029 401.008018,28.844 C400.000013,28.2679971 398.920023,27.98 397.768018,27.98 C395.824008,27.98 394.186024,28.6579932 392.854018,30.014 C391.522011,31.3700068 390.856018,33.0319902 390.856018,35 C390.856018,36.9680098 391.522011,38.6299932 392.854018,39.986 C394.186024,41.3420068 395.824008,42.02 397.768018,42.02 C398.920023,42.02 400.000013,41.7320029 401.008018,41.156 C402.016023,40.5799971 402.844014,39.8000049 403.492018,38.816 L405.652018,39.86 C404.836014,41.2040067 403.726025,42.277996 402.322018,43.082 C400.918011,43.886004 399.400026,44.288 397.768018,44.288 Z M415.336018,41.912 C416.944026,41.912 418.384012,41.4560046 419.656018,40.544 C420.928025,39.6319954 421.792016,38.5640061 422.248018,37.34 L424.264018,38.06 C423.712015,39.5720076 422.638026,40.9639936 421.042018,42.236 C419.44601,43.5080064 417.544029,44.1320001 415.336018,44.108 C413.320008,44.108 411.478027,43.4840062 409.810018,42.236 C408.14201,40.9879938 407.008021,39.3920097 406.408018,37.448 C406.168017,36.655996 406.048018,35.7920047 406.048018,34.856 C406.048018,32.263987 406.948009,30.068009 408.748018,28.268 C410.548027,26.467991 412.744005,25.5560001 415.336018,25.532 C417.68803,25.5560001 419.740009,26.3479922 421.492018,27.908 C423.244027,29.4680078 424.252017,31.3999885 424.516018,33.704 C424.540018,33.8240006 424.552018,33.979999 424.552018,34.172 L408.820018,37.016 C409.22802,38.4560072 410.044012,39.6379954 411.268018,40.562 C412.492024,41.4860046 413.848011,41.9360001 415.336018,41.912 Z M415.120018,27.728 C413.320009,27.7520001 411.778025,28.3999936 410.494018,29.672 C409.210012,30.9440064 408.520019,32.4679911 408.424018,34.244 C408.424018,34.3160004 408.430018,34.4419991 408.442018,34.622 C408.454018,34.8020009 408.460018,34.9519994 408.460018,35.072 L421.852018,32.66 C421.396016,31.1959927 420.544024,30.0020046 419.296018,29.078 C418.048012,28.1539954 416.656026,27.7039999 415.120018,27.728 Z" id="N-Type-Silicon-Cryst-Copy" fill="#23ABE3"></path>
    </g>
</svg>