<?xml version="1.0" encoding="UTF-8"?>
<svg width="900px" height="350px" viewBox="0 0 900 350" version="1.1" xmlns="http://www.w3.org/2000/svg" xmlns:xlink="http://www.w3.org/1999/xlink">
    <!-- Generator: Sketch 52.5 (67469) - http://www.bohemiancoding.com/sketch -->
    <title>Ohms_Law_Behavior_Graph</title>
    <desc>Created with Sketch.</desc>
    <g id="Ohms_Law_Behavior_Graph" stroke="none" stroke-width="1" fill="none" fill-rule="evenodd">
        <rect id="Rectangle" stroke="#3D3530" stroke-width="2" fill="#EEEEEE" x="1" y="1" width="898" height="528"></rect>
        <g id="Illustration" transform="translate(112.000000, 22.000000)">
            <g id="Labels" transform="translate(171.000000, 0.000000)" fill="#524740">
                <path d="M14.832,16.736 L14.352,16.736 C14.2239994,16.1119969 13.9520021,15.6560014 13.536,15.368 C12.2239934,16.7280068 10.7360083,17.408 9.072,17.408 C7.03998984,17.408 5.3040072,16.6640074 3.864,15.176 C2.4239928,13.6879926 1.704,11.8960105 1.704,9.8 C1.704,7.70398952 2.4239928,5.91200744 3.864,4.424 C5.3040072,2.93599256 7.03998984,2.192 9.072,2.192 C10.7680085,2.192 12.2559936,2.8719932 13.536,4.232 C13.9680022,3.89599832 14.2399994,3.44000288 14.352,2.864 L14.832,2.864 L14.832,8.144 L14.352,8.144 C14.0159983,6.55999208 13.3960045,5.3280044 12.492,4.448 C11.5879955,3.5679956 10.4800066,3.128 9.168,3.128 C8.25599544,3.128 7.44800352,3.33199796 6.744,3.74 C6.03999648,4.14800204 5.49200196,4.68799664 5.1,5.36 C4.70799804,6.03200336 4.41600096,6.74399624 4.224,7.496 C4.03199904,8.24800376 3.936,9.01599608 3.936,9.8 C3.936,10.5840039 4.03199904,11.3519962 4.224,12.104 C4.41600096,12.8560038 4.70799804,13.5639967 5.1,14.228 C5.49200196,14.8920033 6.03999648,15.427998 6.744,15.836 C7.44800352,16.244002 8.25599544,16.448 9.168,16.448 C10.4800066,16.448 11.5879955,16.0040044 12.492,15.116 C13.3960045,14.2279956 14.0159983,13.0080078 14.352,11.456 L14.832,11.456 L14.832,16.736 Z M29.68,16.808 L26.464,17.408 C26.3359994,17.1519987 26.2080006,16.6400038 26.08,15.872 C25.087995,16.8960051 24.0400055,17.408 22.936,17.408 C20.9519901,17.408 19.96,16.208012 19.96,13.808 L19.96,12.296 C19.96,11.095994 19.8440012,10.3280017 19.612,9.992 C19.3799988,9.65599832 18.864004,9.488 18.064,9.488 L18.064,9.008 L21.664,9.008 L21.664,13.688 C21.664,15.4000086 22.2719939,16.256 23.488,16.256 C24.0320027,16.256 24.599997,16.0280023 25.192,15.572 C25.784003,15.1159977 26.08,14.5520034 26.08,13.88 L26.08,12.296 C26.08,11.095994 25.9640012,10.3280017 25.732,9.992 C25.4999988,9.65599832 24.9760041,9.488 24.16,9.488 L24.16,9.008 L27.76,9.008 L27.76,13.496 C27.76,14.696006 27.8759988,15.4639983 28.108,15.8 C28.3400012,16.1360017 28.8639959,16.304 29.68,16.304 L29.68,16.808 Z M40.064,10.088 C40.064,10.8400038 39.7440032,11.216 39.104,11.216 C38.8799989,11.216 38.6840008,11.1280009 38.516,10.952 C38.3479992,10.7759991 38.264,10.5760011 38.264,10.352 C38.264,9.82399736 38.0080026,9.56 37.496,9.56 C37.1279982,9.56 36.7280022,9.81599744 36.296,10.328 C35.8639978,10.8400026 35.648,11.5199958 35.648,12.368 L35.648,13.688 C35.648,14.888006 35.7639988,15.6559983 35.996,15.992 C36.2280012,16.3280017 36.743996,16.496 37.544,16.496 L37.544,17 L32.048,17 L32.048,16.496 C32.848004,16.496 33.3639988,16.3280017 33.596,15.992 C33.8280012,15.6559983 33.944,14.888006 33.944,13.688 L33.944,12.488 C33.944,11.3039941 33.8280012,10.5440017 33.596,10.208 C33.3639988,9.87199832 32.848004,9.704 32.048,9.704 L32.048,9.2 L35.24,8.6 C35.3840007,8.90400152 35.5199994,9.47999576 35.648,10.328 C35.8880012,9.8479976 36.2479976,9.44000168 36.728,9.104 C37.2080024,8.76799832 37.6879976,8.6 38.168,8.6 C38.776003,8.6 39.2439984,8.7599984 39.572,9.08 C39.9000016,9.4000016 40.064,9.73599824 40.064,10.088 Z M50.496,10.088 C50.496,10.8400038 50.1760032,11.216 49.536,11.216 C49.3119989,11.216 49.1160008,11.1280009 48.948,10.952 C48.7799992,10.7759991 48.696,10.5760011 48.696,10.352 C48.696,9.82399736 48.4400026,9.56 47.928,9.56 C47.5599982,9.56 47.1600022,9.81599744 46.728,10.328 C46.2959978,10.8400026 46.08,11.5199958 46.08,12.368 L46.08,13.688 C46.08,14.888006 46.1959988,15.6559983 46.428,15.992 C46.6600012,16.3280017 47.175996,16.496 47.976,16.496 L47.976,17 L42.48,17 L42.48,16.496 C43.280004,16.496 43.7959988,16.3280017 44.028,15.992 C44.2600012,15.6559983 44.376,14.888006 44.376,13.688 L44.376,12.488 C44.376,11.3039941 44.2600012,10.5440017 44.028,10.208 C43.7959988,9.87199832 43.280004,9.704 42.48,9.704 L42.48,9.2 L45.672,8.6 C45.8160007,8.90400152 45.9519994,9.47999576 46.08,10.328 C46.3200012,9.8479976 46.6799976,9.44000168 47.16,9.104 C47.6400024,8.76799832 48.1199976,8.6 48.6,8.6 C49.208003,8.6 49.6759984,8.7599984 50.004,9.08 C50.3320016,9.4000016 50.496,9.73599824 50.496,10.088 Z M54.808,11.504 L58.792,11.504 C58.9520008,11.0559978 58.8840015,10.6200021 58.588,10.196 C58.2919985,9.77199788 57.7840036,9.56 57.064,9.56 C56.5519974,9.56 56.092002,9.73599824 55.684,10.088 C55.275998,10.4400018 54.9840009,10.911997 54.808,11.504 Z M54.664,12.392 C54.5199993,13.5760059 54.7079974,14.5399963 55.228,15.284 C55.7480026,16.0280037 56.5999941,16.4 57.784,16.4 C58.184002,16.4 58.6399974,16.296001 59.152,16.088 C59.6640026,15.879999 60.0879983,15.6160016 60.424,15.296 L60.856,15.824 C60.4239978,16.2880023 59.8720034,16.6679985 59.2,16.964 C58.5279966,17.2600015 57.8560034,17.408 57.184,17.408 C55.8879935,17.408 54.8240042,16.9800043 53.992,16.124 C53.1599958,15.2679957 52.744,14.2240062 52.744,12.992 C52.744,11.7599938 53.1959955,10.7200042 54.1,9.872 C55.0040045,9.02399576 56.0319942,8.6 57.184,8.6 C58.2720054,8.6 59.1599966,8.9799962 59.848,9.74 C60.5360034,10.5000038 60.7360014,11.383995 60.448,12.392 L54.664,12.392 Z M67.232,10.328 C68.1440046,9.17599424 69.2559934,8.6 70.568,8.6 C71.6080052,8.6 72.3879974,8.92799672 72.908,9.584 C73.4280026,10.2400033 73.688,11.1039946 73.688,12.176 L73.688,13.688 C73.688,14.888006 73.8039988,15.6559983 74.036,15.992 C74.2680012,16.3280017 74.783996,16.496 75.584,16.496 L75.584,17 L70.088,17 L70.088,16.496 C70.8720039,16.496 71.3839988,16.3240017 71.624,15.98 C71.8640012,15.6359983 71.984,14.8720059 71.984,13.688 L71.984,12.296 C71.984,10.5839914 71.3200066,9.728 69.992,9.728 C69.3039966,9.728 68.6720029,9.9679976 68.096,10.448 C67.5199971,10.9280024 67.232,11.4879968 67.232,12.128 L67.232,13.688 C67.232,14.9200062 67.327999,15.6959984 67.52,16.016 C67.712001,16.3360016 68.1759963,16.496 68.912,16.496 L68.912,17 L63.632,17 L63.632,16.496 C64.432004,16.496 64.9479988,16.3280017 65.18,15.992 C65.4120012,15.6559983 65.528,14.888006 65.528,13.688 L65.528,12.488 C65.528,11.3039941 65.4120012,10.5440017 65.18,10.208 C64.9479988,9.87199832 64.432004,9.704 63.632,9.704 L63.632,9.2 L66.824,8.6 C66.9680007,8.90400152 67.1039994,9.47999576 67.232,10.328 Z M78.96,9.848 L77.712,9.848 L77.712,9.272 C78.4000034,9.12799928 78.9039984,8.8160024 79.224,8.336 C79.5440016,7.8559976 79.7519995,7.20000416 79.848,6.368 L80.664,6.368 L80.664,9.008 L82.752,9.008 L82.752,9.848 L80.664,9.848 L80.664,14.648 C80.664,15.8000058 81.0239964,16.376 81.744,16.376 C82.2080023,16.376 82.7279971,16.1040027 83.304,15.56 L83.712,15.968 C83.3759983,16.368002 82.9720024,16.6959987 82.5,16.952 C82.0279976,17.2080013 81.592002,17.336 81.192,17.336 C80.5039966,17.336 79.960002,17.1120022 79.56,16.664 C79.159998,16.2159978 78.96,15.5440045 78.96,14.648 L78.96,9.848 Z" id="Current-Copy"></path>
                <path d="M263.696,185.104 C262.751995,185.104 262.140001,185.219999 261.86,185.452 C261.579999,185.684001 261.240002,186.263995 260.84,187.192 L255.56,199.408 L255.248,199.408 L249.944,187.192 C249.543998,186.263995 249.204001,185.684001 248.924,185.452 C248.643999,185.219999 248.032005,185.104 247.088,185.104 L247.088,184.6 L253.736,184.6 L253.736,185.104 C252.743995,185.104 252.108001,185.243999 251.828,185.524 C251.547999,185.804001 251.559998,186.271997 251.864,186.928 L255.944,196.264 L259.976,186.928 C260.280002,186.271997 260.292001,185.804001 260.012,185.524 C259.731999,185.243999 259.096005,185.104 258.104,185.104 L258.104,184.6 L263.696,184.6 L263.696,185.104 Z M271.824,191.896 C272.784005,192.744004 273.264,193.775994 273.264,194.992 C273.264,196.208006 272.788005,197.247996 271.836,198.112 C270.883995,198.976004 269.744007,199.408 268.416,199.408 C267.087993,199.408 265.948005,198.976004 264.996,198.112 C264.043995,197.247996 263.568,196.208006 263.568,194.992 C263.568,193.775994 264.043995,192.740004 264.996,191.884 C265.948005,191.027996 267.087993,190.6 268.416,190.6 C269.744007,190.6 270.879995,191.031996 271.824,191.896 Z M270.576,197.512 C271.072002,196.855997 271.32,196.016005 271.32,194.992 C271.32,193.967995 271.072002,193.132003 270.576,192.484 C270.079998,191.835997 269.360005,191.512 268.416,191.512 C267.471995,191.512 266.752002,191.839997 266.256,192.496 C265.759998,193.152003 265.512,193.983995 265.512,194.992 C265.512,196.000005 265.759998,196.831997 266.256,197.488 C266.752002,198.144003 267.471995,198.472 268.416,198.472 C269.360005,198.472 270.079998,198.152003 270.576,197.512 Z M281.368,199 L275.872,199 L275.872,198.496 C276.672004,198.496 277.187999,198.328002 277.42,197.992 C277.652001,197.655998 277.768,196.888006 277.768,195.688 L277.768,188.104 C277.768,186.903994 277.652001,186.136002 277.42,185.8 C277.187999,185.463998 276.672004,185.296 275.872,185.296 L275.872,184.792 L279.472,184.192 L279.472,195.688 C279.472,196.888006 279.587999,197.655998 279.82,197.992 C280.052001,198.328002 280.567996,198.496 281.368,198.496 L281.368,199 Z M284.768,191.848 L283.52,191.848 L283.52,191.272 C284.208003,191.127999 284.711998,190.816002 285.032,190.336 C285.352002,189.855998 285.56,189.200004 285.656,188.368 L286.472,188.368 L286.472,191.008 L288.56,191.008 L288.56,191.848 L286.472,191.848 L286.472,196.648 C286.472,197.800006 286.831996,198.376 287.552,198.376 C288.016002,198.376 288.535997,198.104003 289.112,197.56 L289.52,197.968 C289.183998,198.368002 288.780002,198.695999 288.308,198.952 C287.835998,199.208001 287.400002,199.336 287,199.336 C286.311997,199.336 285.768002,199.112002 285.368,198.664 C284.967998,198.215998 284.768,197.544004 284.768,196.648 L284.768,191.848 Z M300.216,198.52 C299.751998,199.016002 299.224003,199.264 298.632,199.264 C297.671995,199.264 297.128001,198.800005 297,197.872 C295.927995,198.832005 294.928005,199.312 294,199.312 C293.391997,199.312 292.880002,199.132002 292.464,198.772 C292.047998,198.411998 291.84,197.920003 291.84,197.296 C291.84,195.615992 293.543983,194.480003 296.952,193.888 C296.952,192.943995 296.848001,192.288002 296.64,191.92 C296.431999,191.551998 296.000003,191.368 295.344,191.368 C295.023998,191.368 294.716001,191.471999 294.42,191.68 C294.123999,191.888001 293.976,192.167998 293.976,192.52 C293.976,192.760001 293.896001,192.959999 293.736,193.12 C293.575999,193.280001 293.384001,193.36 293.16,193.36 C292.919999,193.36 292.720001,193.280001 292.56,193.12 C292.399999,192.959999 292.32,192.760001 292.32,192.52 C292.32,191.959997 292.627997,191.500002 293.244,191.14 C293.860003,190.779998 294.567996,190.6 295.368,190.6 C296.536006,190.6 297.375997,190.855997 297.888,191.368 C298.400003,191.880003 298.656,192.711994 298.656,193.864 L298.656,197.488 C298.656,198.112003 298.839998,198.424 299.208,198.424 C299.416001,198.424 299.639999,198.304001 299.88,198.064 L300.216,198.52 Z M296.952,197.08 L296.952,194.632 C294.743989,195.144003 293.64,195.935995 293.64,197.008 C293.64,197.376002 293.747999,197.671999 293.964,197.896 C294.180001,198.120001 294.447998,198.232 294.768,198.232 C295.360003,198.232 296.087996,197.848004 296.952,197.08 Z M307.456,195.664 C307.760002,195.199998 307.912,194.600004 307.912,193.864 C307.912,193.127996 307.764001,192.528002 307.468,192.064 C307.171999,191.599998 306.744003,191.368 306.184,191.368 C305.623997,191.368 305.192002,191.599998 304.888,192.064 C304.583998,192.528002 304.432,193.127996 304.432,193.864 C304.432,194.600004 304.583998,195.195998 304.888,195.652 C305.192002,196.108002 305.623997,196.336 306.184,196.336 C306.744003,196.336 307.167999,196.112002 307.456,195.664 Z M303.952,198.136 C303.952,198.616002 304.679993,198.919999 306.136,199.048 C307.672008,199.176001 308.783997,199.527997 309.472,200.104 C310.160003,200.680003 310.504,201.375996 310.504,202.192 C310.504,203.168005 310.100004,203.947997 309.292,204.532 C308.483996,205.116003 307.472006,205.408 306.256,205.408 C304.959994,205.408 303.916004,205.140003 303.124,204.604 C302.331996,204.067997 301.968,203.440004 302.032,202.72 C302.096,201.999996 302.607995,201.392002 303.568,200.896 L304,201.16 C303.535998,201.688003 303.288,202.171998 303.256,202.612 C303.224,203.052002 303.363998,203.399999 303.676,203.656 C303.988002,203.912001 304.371998,204.111999 304.828,204.256 C305.284002,204.400001 305.759998,204.472 306.256,204.472 C307.040004,204.472 307.731997,204.300002 308.332,203.956 C308.932003,203.611998 309.232,203.168003 309.232,202.624 C309.232,202.095997 308.972003,201.712001 308.452,201.472 C307.931997,201.231999 307.120006,201.056001 306.016,200.944 C303.743989,200.719999 302.608,199.976006 302.608,198.712 C302.608,197.847996 303.279993,197.208002 304.624,196.792 C303.999997,196.503999 303.508002,196.104003 303.148,195.592 C302.787998,195.079997 302.608,194.504003 302.608,193.864 C302.608,192.967996 302.955997,192.200003 303.652,191.56 C304.348003,190.919997 305.191995,190.6 306.184,190.6 C307.144005,190.6 307.967997,190.903997 308.656,191.512 C308.864001,191.255999 309.147998,191.040001 309.508,190.864 C309.868002,190.687999 310.183999,190.6 310.456,190.6 C311.160004,190.6 311.607999,190.895997 311.8,191.488 C311.944001,191.936002 311.872001,192.271999 311.584,192.496 C311.488,192.576 311.376001,192.616 311.248,192.616 C311.007999,192.632 310.828001,192.584001 310.708,192.472 C310.587999,192.359999 310.516,192.236001 310.492,192.1 C310.468,191.963999 310.404001,191.836001 310.3,191.716 C310.195999,191.595999 310.032001,191.536 309.808,191.536 C309.567999,191.536 309.320001,191.663999 309.064,191.92 C309.528002,192.480003 309.76,193.127996 309.76,193.864 C309.76,194.712004 309.448003,195.439997 308.824,196.048 C308.199997,196.656003 307.472004,197.015999 306.64,197.128 C304.847991,197.336001 303.952,197.671998 303.952,198.136 Z M315.968,193.504 L319.952,193.504 C320.112001,193.055998 320.044001,192.620002 319.748,192.196 C319.451999,191.771998 318.944004,191.56 318.224,191.56 C317.711997,191.56 317.252002,191.735998 316.844,192.088 C316.435998,192.440002 316.144001,192.911997 315.968,193.504 Z M315.824,194.392 C315.679999,195.576006 315.867997,196.539996 316.388,197.284 C316.908003,198.028004 317.759994,198.4 318.944,198.4 C319.344002,198.4 319.799997,198.296001 320.312,198.088 C320.824003,197.879999 321.247998,197.616002 321.584,197.296 L322.016,197.824 C321.583998,198.288002 321.032003,198.667999 320.36,198.964 C319.687997,199.260001 319.016003,199.408 318.344,199.408 C317.047994,199.408 315.984004,198.980004 315.152,198.124 C314.319996,197.267996 313.904,196.224006 313.904,194.992 C313.904,193.759994 314.355995,192.720004 315.26,191.872 C316.164005,191.023996 317.191994,190.6 318.344,190.6 C319.432005,190.6 320.319997,190.979996 321.008,191.74 C321.696003,192.500004 321.896001,193.383995 321.608,194.392 L315.824,194.392 Z" id="Voltage-Copy"></path>
            </g>
            <g id="Graph-Lines" transform="translate(0.000000, 33.000000)">
                <path d="M187.634457,179.5 L392.521,179.5" id="Line-5" stroke="#3D3530" stroke-width="3" stroke-linecap="square"></path>
                <path d="M357,6 L357,0 L359,0 L359,6 L365,6 L365,8 L359,8 L359,14 L357,14 L357,8 L351,8 L351,6 L357,6 Z" id="Combined-Shape" fill="#23ABE3"></path>
                <rect id="Rectangle" fill="#23ABE3" x="181" y="195" width="13" height="2"></rect>
                <path d="M213.352001,3 L213.352001,234.912015" id="Line-6" stroke="#3D3530" stroke-width="3" stroke-linecap="square"></path>
                <path d="M392.521,3 L212.982714,178" id="Path-9" stroke="#EF7D3B" stroke-width="3"></path>
            </g>
        </g>
        <rect id="Rectangle-Copy" stroke="#3D3530" stroke-width="2" fill="#F8FAE4" x="1" y="306" width="898" height="43"></rect>
        <path d="M384.117333,332.84 C382.725326,334.408008 380.845344,335.192 378.477333,335.192 C376.109321,335.192 374.22534,334.408008 372.825333,332.84 C371.425326,331.271992 370.725333,329.312012 370.725333,326.96 C370.725333,324.607988 371.425326,322.644008 372.825333,321.068 C374.22534,319.491992 376.109321,318.704 378.477333,318.704 C380.845344,318.704 382.725326,319.491992 384.117333,321.068 C385.509339,322.644008 386.205333,324.607988 386.205333,326.96 C386.205333,329.312012 385.509339,331.271992 384.117333,332.84 Z M374.085333,331.784 C375.189338,333.064006 376.653323,333.704 378.477333,333.704 C380.301342,333.704 381.769327,333.060006 382.881333,331.772 C383.993338,330.483994 384.549333,328.88001 384.549333,326.96 C384.549333,325.02399 383.993338,323.416006 382.881333,322.136 C381.769327,320.855994 380.301342,320.216 378.477333,320.216 C376.653323,320.216 375.189338,320.855994 374.085333,322.136 C372.981327,323.416006 372.429333,325.02399 372.429333,326.96 C372.429333,328.89601 372.981327,330.503994 374.085333,331.784 Z M394.863999,322.808 C396.256006,322.808 397.423995,323.307995 398.367999,324.308 C399.312004,325.308005 399.783999,326.527993 399.783999,327.968 L399.783999,335 L398.175999,335 L398.175999,327.992 C398.175999,326.951995 397.832003,326.076004 397.143999,325.364 C396.455996,324.651996 395.608004,324.296 394.599999,324.296 C393.607994,324.296 392.764003,324.651996 392.067999,325.364 C391.371996,326.076004 391.023999,326.943995 391.023999,327.968 L391.023999,335 L389.439999,335 L389.439999,317.144 L391.023999,317.144 L391.023999,324.776 C392.000004,323.463993 393.279991,322.808 394.863999,322.808 Z M417.682666,322.808 C419.074673,322.808 420.242661,323.299995 421.186666,324.284 C422.130671,325.268005 422.602666,326.479993 422.602666,327.92 L422.602666,335 L420.970666,335 L420.970666,327.968 C420.970666,326.927995 420.630669,326.052004 419.950666,325.34 C419.270663,324.627996 418.426671,324.272 417.418666,324.272 C416.410661,324.272 415.562669,324.627996 414.874666,325.34 C414.186662,326.052004 413.842666,326.927995 413.842666,327.968 L413.842666,335 L412.234666,335 L412.234666,327.968 C412.234666,326.943995 411.886669,326.072004 411.190666,325.352 C410.494662,324.631996 409.650671,324.272 408.658666,324.272 C407.666661,324.272 406.822669,324.631996 406.126666,325.352 C405.430662,326.072004 405.082666,326.943995 405.082666,327.968 L405.082666,335 L403.498666,335 L403.498666,323 L405.082666,323 L405.082666,324.776 C406.058671,323.463993 407.338658,322.808 408.922666,322.808 C409.83467,322.808 410.670662,323.039998 411.430666,323.504 C412.19067,323.968002 412.786664,324.591996 413.218666,325.376 C413.634668,324.591996 414.234662,323.968002 415.018666,323.504 C415.80267,323.039998 416.690661,322.808 417.682666,322.808 Z M424.757333,322.736 L425.837333,318.896 L427.493333,318.896 L426.077333,322.736 L424.757333,322.736 Z M433.151999,335.192 C432.607997,335.192 432.080002,335.124001 431.567999,334.988 C431.055997,334.851999 430.628001,334.692001 430.283999,334.508 C429.939998,334.323999 429.632001,334.136001 429.359999,333.944 C429.087998,333.751999 428.888,333.592001 428.759999,333.464 L428.567999,333.248 L429.695999,332.288 C429.808,332.400001 429.963998,332.535999 430.163999,332.696 C430.364,332.856001 430.767996,333.071999 431.375999,333.344 C431.984002,333.616001 432.583996,333.752 433.175999,333.752 C434.056004,333.752 434.759997,333.584002 435.287999,333.248 C435.816002,332.911998 436.079999,332.440003 436.079999,331.832 C436.079999,331.399998 435.816002,331.028002 435.287999,330.716 C434.759997,330.403998 434.120003,330.136001 433.367999,329.912 C432.615996,329.687999 431.860003,329.440001 431.099999,329.168 C430.339995,328.895999 429.696002,328.512002 429.167999,328.016 C428.639997,327.519998 428.375999,326.912004 428.375999,326.192 C428.375999,325.199995 428.747996,324.388003 429.491999,323.756 C430.236003,323.123997 431.335992,322.808 432.791999,322.808 C433.656004,322.808 434.471995,322.967998 435.239999,323.288 C436.008003,323.608002 436.559998,323.927998 436.895999,324.248 L437.399999,324.728 L436.271999,325.712 C436.159999,325.599999 436.004,325.464001 435.803999,325.304 C435.603998,325.143999 435.200002,324.928001 434.591999,324.656 C433.983996,324.383999 433.376002,324.248 432.767999,324.248 C431.903995,324.248 431.204002,324.415998 430.667999,324.752 C430.131997,325.088002 429.863999,325.559997 429.863999,326.168 C429.863999,326.600002 430.127997,326.971998 430.655999,327.284 C431.184002,327.596002 431.823996,327.863999 432.575999,328.088 C433.328003,328.312001 434.083995,328.555999 434.843999,328.82 C435.604003,329.084001 436.247997,329.467997 436.775999,329.972 C437.304002,330.476003 437.567999,331.087996 437.567999,331.808 C437.567999,332.816005 437.200003,333.631997 436.463999,334.256 C435.727996,334.880003 434.624007,335.192 433.151999,335.192 Z M449.725333,333.416 L457.069333,333.416 L457.069333,335 L448.141333,335 L448.141333,318.872 L449.725333,318.872 L449.725333,333.416 Z M469.711999,323 L471.295999,323 L471.295999,335 L469.711999,335 L469.711999,333.056 C468.479993,334.480007 466.920009,335.192 465.031999,335.192 C463.319991,335.192 461.860005,334.588006 460.651999,333.38 C459.443993,332.171994 458.839999,330.712009 458.839999,329 C458.839999,327.287991 459.443993,325.828006 460.651999,324.62 C461.860005,323.411994 463.319991,322.808 465.031999,322.808 C466.936009,322.808 468.495993,323.519993 469.711999,324.944 L469.711999,323 Z M465.055999,333.68 C466.352006,333.68 467.443995,333.228005 468.331999,332.324 C469.220004,331.419995 469.663999,330.312007 469.663999,329 C469.663999,327.687993 469.220004,326.580005 468.331999,325.676 C467.443995,324.771995 466.352006,324.32 465.055999,324.32 C463.775993,324.32 462.684004,324.771995 461.779999,325.676 C460.875995,326.580005 460.423999,327.687993 460.423999,329 C460.423999,330.312007 460.875995,331.419995 461.779999,332.324 C462.684004,333.228005 463.775993,333.68 465.055999,333.68 Z M490.586666,323 L492.170666,323 L487.922666,335 L486.338666,335 L482.954666,325.112 L479.570666,335 L477.986666,335 L473.762666,323 L475.346666,323 L478.778666,332.768 L482.234666,323 L483.674666,323 L487.130666,332.768 L490.586666,323 Z M508.335999,327.656 L501.879999,327.656 L501.879999,326.216 L508.335999,326.216 L508.335999,327.656 Z M526.205333,335.192 C523.837321,335.192 521.94934,334.404008 520.541333,332.828 C519.133326,331.251992 518.429333,329.296012 518.429333,326.96 C518.429333,324.607988 519.133326,322.644008 520.541333,321.068 C521.94934,319.491992 523.837321,318.704 526.205333,318.704 C527.773341,318.704 529.137327,319.063996 530.297333,319.784 C531.457339,320.504004 532.35733,321.487994 532.997333,322.736 L531.509333,323.6 C530.99733,322.559995 530.281337,321.736003 529.361333,321.128 C528.441328,320.519997 527.389339,320.216 526.205333,320.216 C524.381324,320.216 522.921338,320.851994 521.825333,322.124 C520.729327,323.396006 520.181333,325.00799 520.181333,326.96 C520.181333,328.89601 520.729327,330.503994 521.825333,331.784 C522.921338,333.064006 524.381324,333.704 526.205333,333.704 C527.405339,333.704 528.465328,333.396003 529.385333,332.78 C530.305337,332.163997 531.01333,331.336005 531.509333,330.296 L532.997333,331.184 C532.35733,332.432006 531.457339,333.411996 530.297333,334.124 C529.137327,334.836004 527.773341,335.192 526.205333,335.192 Z M545.111999,323 L546.695999,323 L546.695999,335 L545.111999,335 L545.111999,333.224 C544.135995,334.536007 542.856007,335.192 541.271999,335.192 C539.879993,335.192 538.712004,334.700005 537.767999,333.716 C536.823995,332.731995 536.351999,331.520007 536.351999,330.08 L536.351999,323 L537.983999,323 L537.983999,330.032 C537.983999,331.056005 538.327996,331.923996 539.015999,332.636 C539.704003,333.348004 540.543995,333.704 541.535999,333.704 C542.544005,333.704 543.391996,333.348004 544.079999,332.636 C544.768003,331.923996 545.111999,331.056005 545.111999,330.032 L545.111999,323 Z M556.074666,322.808 C556.92267,322.808 557.698663,323.015998 558.402666,323.432 L557.850666,325.016 C557.178663,324.519998 556.49867,324.272 555.810666,324.272 C554.802661,324.272 553.95467,324.627996 553.266666,325.34 C552.578663,326.052004 552.234666,326.927995 552.234666,327.968 L552.234666,335 L550.650666,335 L550.650666,323 L552.234666,323 L552.234666,324.776 C553.210671,323.463993 554.490658,322.808 556.074666,322.808 Z M566.629333,322.808 C567.477337,322.808 568.253329,323.015998 568.957333,323.432 L568.405333,325.016 C567.733329,324.519998 567.053336,324.272 566.365333,324.272 C565.357328,324.272 564.509336,324.627996 563.821333,325.34 C563.133329,326.052004 562.789333,326.927995 562.789333,327.968 L562.789333,335 L561.205333,335 L561.205333,323 L562.789333,323 L562.789333,324.776 C563.765338,323.463993 565.045325,322.808 566.629333,322.808 Z M576.272,333.608 C577.344005,333.608 578.303995,333.304003 579.152,332.696 C580.000004,332.087997 580.575998,331.376004 580.88,330.56 L582.224,331.04 C581.855998,332.048005 581.140005,332.975996 580.076,333.824 C579.011994,334.672004 577.744007,335.088 576.272,335.072 C574.927993,335.072 573.700005,334.656004 572.588,333.824 C571.475994,332.991996 570.720002,331.928006 570.32,330.632 C570.159999,330.103997 570.08,329.528003 570.08,328.904 C570.08,327.175991 570.679994,325.712006 571.88,324.512 C573.080006,323.311994 574.543991,322.704 576.272,322.688 C577.840007,322.704 579.207994,323.231995 580.376,324.272 C581.544005,325.312005 582.215999,326.599992 582.392,328.136 C582.408,328.216 582.416,328.319999 582.416,328.448 L571.928,330.344 C572.200001,331.304005 572.743995,332.091997 573.56,332.708 C574.376004,333.324003 575.279995,333.624 576.272,333.608 Z M576.128,324.152 C574.927994,324.168 573.900004,324.599996 573.044,325.448 C572.187995,326.296004 571.728,327.311994 571.664,328.496 C571.664,328.544 571.667999,328.627999 571.676,328.748 C571.684,328.868001 571.688,328.968 571.688,329.048 L580.616,327.44 C580.311998,326.463995 579.744004,325.668003 578.912,325.052 C578.079995,324.435997 577.152005,324.136 576.128,324.152 Z M590.762666,322.808 C592.154673,322.808 593.322661,323.299995 594.266666,324.284 C595.210671,325.268005 595.682666,326.479993 595.682666,327.92 L595.682666,335 L594.074666,335 L594.074666,327.968 C594.074666,326.943995 593.72667,326.072004 593.030666,325.352 C592.334663,324.631996 591.490671,324.272 590.498666,324.272 C589.506661,324.272 588.66267,324.631996 587.966666,325.352 C587.270663,326.072004 586.922666,326.943995 586.922666,327.968 L586.922666,335 L585.338666,335 L585.338666,323 L586.922666,323 L586.922666,324.776 C587.898671,323.463993 589.178658,322.808 590.762666,322.808 Z M605.973333,332.312 L606.765333,333.536 C606.669332,333.664001 606.541334,333.815999 606.381333,333.992 C606.221332,334.168001 605.861336,334.411998 605.301333,334.724 C604.74133,335.036002 604.165336,335.192 603.573333,335.192 C602.565328,335.192 601.721336,334.892003 601.041333,334.292 C600.361329,333.691997 600.021333,332.824006 600.021333,331.688 L600.021333,324.44 L598.101333,324.44 L598.101333,322.976 L600.021333,322.976 L600.021333,319.184 L601.605333,318.992 L601.605333,322.976 L605.229333,322.976 L605.229333,324.44 L601.605333,324.44 L601.605333,331.328 C601.605333,332.064004 601.833331,332.647998 602.289333,333.08 C602.745335,333.512002 603.26933,333.728 603.861333,333.728 C604.229335,333.728 604.589331,333.616001 604.941333,333.392 C605.293335,333.167999 605.553332,332.948001 605.721333,332.732 C605.889334,332.515999 605.973333,332.376 605.973333,332.312 Z M627.490666,323 L629.074666,323 L629.074666,335 L627.490666,335 L627.490666,333.056 C626.25866,334.480007 624.698676,335.192 622.810666,335.192 C621.098658,335.192 619.638672,334.588006 618.430666,333.38 C617.22266,332.171994 616.618666,330.712009 616.618666,329 C616.618666,327.287991 617.22266,325.828006 618.430666,324.62 C619.638672,323.411994 621.098658,322.808 622.810666,322.808 C624.714676,322.808 626.27466,323.519993 627.490666,324.944 L627.490666,323 Z M622.834666,333.68 C624.130673,333.68 625.222662,333.228005 626.110666,332.324 C626.998671,331.419995 627.442666,330.312007 627.442666,329 C627.442666,327.687993 626.998671,326.580005 626.110666,325.676 C625.222662,324.771995 624.130673,324.32 622.834666,324.32 C621.55466,324.32 620.462671,324.771995 619.558666,325.676 C618.654662,326.580005 618.202666,327.687993 618.202666,329 C618.202666,330.312007 618.654662,331.419995 619.558666,332.324 C620.462671,333.228005 621.55466,333.68 622.834666,333.68 Z M638.405333,322.808 C639.79734,322.808 640.965328,323.299995 641.909333,324.284 C642.853338,325.268005 643.325333,326.479993 643.325333,327.92 L643.325333,335 L641.717333,335 L641.717333,327.968 C641.717333,326.943995 641.369336,326.072004 640.673333,325.352 C639.977329,324.631996 639.133338,324.272 638.141333,324.272 C637.149328,324.272 636.305336,324.631996 635.609333,325.352 C634.913329,326.072004 634.565333,326.943995 634.565333,327.968 L634.565333,335 L632.981333,335 L632.981333,323 L634.565333,323 L634.565333,324.776 C635.541338,323.463993 636.821325,322.808 638.405333,322.808 Z M657.12,317.144 L658.704,317.144 L658.704,335 L657.12,335 L657.12,333.056 C655.887993,334.480007 654.328009,335.192 652.44,335.192 C650.727991,335.192 649.268006,334.588006 648.06,333.38 C646.851994,332.171994 646.248,330.712009 646.248,329 C646.248,327.287991 646.851994,325.828006 648.06,324.62 C649.268006,323.411994 650.727991,322.808 652.44,322.808 C654.344009,322.808 655.903994,323.519993 657.12,324.944 L657.12,317.144 Z M649.176,332.336 C650.072004,333.232004 651.167993,333.68 652.464,333.68 C653.760006,333.68 654.851995,333.228005 655.74,332.324 C656.628004,331.419995 657.072,330.312007 657.072,329 C657.072,327.687993 656.628004,326.580005 655.74,325.676 C654.851995,324.771995 653.760006,324.32 652.464,324.32 C651.167993,324.32 650.072004,324.771995 649.176,325.676 C648.279995,326.580005 647.832,327.687993 647.832,329 C647.832,330.312007 648.279995,331.423995 649.176,332.336 Z M681.925333,318.872 L683.533333,318.872 L677.173333,335 L675.565333,335 L669.181333,318.872 L670.813333,318.872 L676.381333,332.96 L681.925333,318.872 Z M694.232,333.368 C693.031994,334.584006 691.576008,335.192 689.864,335.192 C688.151991,335.192 686.692006,334.588006 685.484,333.38 C684.275994,332.171994 683.672,330.712009 683.672,329 C683.672,327.287991 684.275994,325.828006 685.484,324.62 C686.692006,323.411994 688.151991,322.808 689.864,322.808 C691.576008,322.808 693.035994,323.411994 694.244,324.62 C695.452006,325.828006 696.056,327.287991 696.056,329 C696.056,330.696008 695.448006,332.151994 694.232,333.368 Z M689.888,333.68 C691.184006,333.68 692.275995,333.228005 693.164,332.324 C694.052004,331.419995 694.496,330.312007 694.496,329 C694.496,327.687993 694.052004,326.576005 693.164,325.664 C692.275995,324.751995 691.184006,324.296 689.888,324.296 C688.607993,324.296 687.520004,324.751995 686.624,325.664 C685.727995,326.576005 685.28,327.687993 685.28,329 C685.28,330.312007 685.727995,331.419995 686.624,332.324 C687.520004,333.228005 688.607993,333.68 689.888,333.68 Z M699.338666,335 L699.338666,317.144 L700.922666,317.144 L700.922666,335 L699.338666,335 Z M711.741333,332.312 L712.533333,333.536 C712.437333,333.664001 712.309334,333.815999 712.149333,333.992 C711.989332,334.168001 711.629336,334.411998 711.069333,334.724 C710.50933,335.036002 709.933336,335.192 709.341333,335.192 C708.333328,335.192 707.489336,334.892003 706.809333,334.292 C706.12933,333.691997 705.789333,332.824006 705.789333,331.688 L705.789333,324.44 L703.869333,324.44 L703.869333,322.976 L705.789333,322.976 L705.789333,319.184 L707.373333,318.992 L707.373333,322.976 L710.997333,322.976 L710.997333,324.44 L707.373333,324.44 L707.373333,331.328 C707.373333,332.064004 707.601331,332.647998 708.057333,333.08 C708.513335,333.512002 709.03733,333.728 709.629333,333.728 C709.997335,333.728 710.357331,333.616001 710.709333,333.392 C711.061335,333.167999 711.321332,332.948001 711.489333,332.732 C711.657334,332.515999 711.741333,332.376 711.741333,332.312 Z M724.864,323 L726.448,323 L726.448,335 L724.864,335 L724.864,333.056 C723.631994,334.480007 722.072009,335.192 720.184,335.192 C718.471991,335.192 717.012006,334.588006 715.804,333.38 C714.595994,332.171994 713.992,330.712009 713.992,329 C713.992,327.287991 714.595994,325.828006 715.804,324.62 C717.012006,323.411994 718.471991,322.808 720.184,322.808 C722.088009,322.808 723.647994,323.519993 724.864,324.944 L724.864,323 Z M720.208,333.68 C721.504006,333.68 722.595995,333.228005 723.484,332.324 C724.372004,331.419995 724.816,330.312007 724.816,329 C724.816,327.687993 724.372004,326.580005 723.484,325.676 C722.595995,324.771995 721.504006,324.32 720.208,324.32 C718.927993,324.32 717.836004,324.771995 716.932,325.676 C716.027995,326.580005 715.576,327.687993 715.576,329 C715.576,330.312007 716.027995,331.419995 716.932,332.324 C717.836004,333.228005 718.927993,333.68 720.208,333.68 Z M740.578666,323.024 L742.186666,323.024 L742.186666,333.968 C742.170666,335.712009 741.542673,337.171994 740.302666,338.348 C739.06266,339.524006 737.626675,340.112 735.994666,340.112 C734.506659,340.112 733.238672,339.716004 732.190666,338.924 C731.142661,338.131996 730.434668,337.240005 730.066666,336.248 L731.362666,335.6 C731.666668,336.416004 732.242662,337.127997 733.090666,337.736 C733.938671,338.344003 734.906661,338.648 735.994666,338.648 C737.274673,338.648 738.358662,338.180005 739.246666,337.244 C740.134671,336.307995 740.586666,335.216006 740.602666,333.968 L740.578666,333.968 L740.578666,333.08 C739.36266,334.504007 737.802676,335.216 735.898666,335.216 C734.186658,335.216 732.726672,334.612006 731.518666,333.404 C730.31066,332.195994 729.706666,330.736009 729.706666,329.024 C729.706666,327.311991 730.31066,325.852006 731.518666,324.644 C732.726672,323.435994 734.186658,322.832 735.898666,322.832 C737.786676,322.832 739.34666,323.543993 740.578666,324.968 L740.578666,323.024 Z M735.922666,333.728 C737.218673,333.728 738.310662,333.276005 739.198666,332.372 C740.086671,331.467995 740.530666,330.360007 740.530666,329.048 C740.530666,327.735993 740.086671,326.628005 739.198666,325.724 C738.310662,324.819995 737.218673,324.368 735.922666,324.368 C734.64266,324.368 733.554671,324.819995 732.658666,325.724 C731.762662,326.628005 731.314666,327.735993 731.314666,329.048 C731.314666,330.360007 731.762662,331.467995 732.658666,332.372 C733.554671,333.276005 734.64266,333.728 735.922666,333.728 Z M751.661333,333.608 C752.733338,333.608 753.693329,333.304003 754.541333,332.696 C755.389337,332.087997 755.965332,331.376004 756.269333,330.56 L757.613333,331.04 C757.245331,332.048005 756.529338,332.975996 755.465333,333.824 C754.401328,334.672004 753.13334,335.088 751.661333,335.072 C750.317326,335.072 749.089339,334.656004 747.977333,333.824 C746.865328,332.991996 746.109335,331.928006 745.709333,330.632 C745.549332,330.103997 745.469333,329.528003 745.469333,328.904 C745.469333,327.175991 746.069327,325.712006 747.269333,324.512 C748.469339,323.311994 749.933324,322.704 751.661333,322.688 C753.229341,322.704 754.597327,323.231995 755.765333,324.272 C756.933339,325.312005 757.605332,326.599992 757.781333,328.136 C757.797333,328.216 757.805333,328.319999 757.805333,328.448 L747.317333,330.344 C747.589334,331.304005 748.133329,332.091997 748.949333,332.708 C749.765337,333.324003 750.669328,333.624 751.661333,333.608 Z M751.517333,324.152 C750.317327,324.168 749.289337,324.599996 748.433333,325.448 C747.577329,326.296004 747.117333,327.311994 747.053333,328.496 C747.053333,328.544 747.057333,328.627999 747.065333,328.748 C747.073333,328.868001 747.077333,328.968 747.077333,329.048 L756.005333,327.44 C755.701332,326.463995 755.133337,325.668003 754.301333,325.052 C753.469329,324.435997 752.541338,324.136 751.517333,324.152 Z M768.546667,335 L768.546667,318.872 L774.018667,318.872 C775.826676,318.872 777.266661,319.347995 778.338667,320.3 C779.410672,321.252005 779.946667,322.447993 779.946667,323.888 C779.946667,324.960005 779.63067,325.911996 778.998667,326.744 C778.366663,327.576004 777.482672,328.167998 776.346667,328.52 L779.946667,335 L778.290667,335 L774.858667,328.856 L773.874667,328.904 L770.130667,328.904 L770.130667,335 L768.546667,335 Z M770.130667,327.392 L774.018667,327.392 C775.314673,327.392 776.354663,327.060003 777.138667,326.396 C777.92267,325.731997 778.314667,324.896005 778.314667,323.888 C778.314667,322.895995 777.92267,322.064003 777.138667,321.392 C776.354663,320.719997 775.314673,320.384 774.018667,320.384 L770.130667,320.384 L770.130667,327.392 Z M788.389333,333.608 C789.461339,333.608 790.421329,333.304003 791.269333,332.696 C792.117337,332.087997 792.693332,331.376004 792.997333,330.56 L794.341333,331.04 C793.973331,332.048005 793.257339,332.975996 792.193333,333.824 C791.129328,334.672004 789.861341,335.088 788.389333,335.072 C787.045326,335.072 785.817339,334.656004 784.705333,333.824 C783.593328,332.991996 782.837335,331.928006 782.437333,330.632 C782.277332,330.103997 782.197333,329.528003 782.197333,328.904 C782.197333,327.175991 782.797327,325.712006 783.997333,324.512 C785.197339,323.311994 786.661325,322.704 788.389333,322.688 C789.957341,322.704 791.325327,323.231995 792.493333,324.272 C793.661339,325.312005 794.333332,326.599992 794.509333,328.136 C794.525333,328.216 794.533333,328.319999 794.533333,328.448 L784.045333,330.344 C784.317335,331.304005 784.861329,332.091997 785.677333,332.708 C786.493337,333.324003 787.397328,333.624 788.389333,333.608 Z M788.245333,324.152 C787.045327,324.168 786.017337,324.599996 785.161333,325.448 C784.305329,326.296004 783.845334,327.311994 783.781333,328.496 C783.781333,328.544 783.785333,328.627999 783.793333,328.748 C783.801333,328.868001 783.805333,328.968 783.805333,329.048 L792.733333,327.44 C792.429332,326.463995 791.861337,325.668003 791.029333,325.052 C790.197329,324.435997 789.269338,324.136 788.245333,324.152 Z M801.656,335.192 C801.111997,335.192 800.584002,335.124001 800.072,334.988 C799.559997,334.851999 799.132002,334.692001 798.788,334.508 C798.443998,334.323999 798.136001,334.136001 797.864,333.944 C797.591999,333.751999 797.392001,333.592001 797.264,333.464 L797.072,333.248 L798.2,332.288 C798.312,332.400001 798.467999,332.535999 798.668,332.696 C798.868001,332.856001 799.271997,333.071999 799.88,333.344 C800.488003,333.616001 801.087997,333.752 801.68,333.752 C802.560004,333.752 803.263997,333.584002 803.792,333.248 C804.320003,332.911998 804.584,332.440003 804.584,331.832 C804.584,331.399998 804.320003,331.028002 803.792,330.716 C803.263997,330.403998 802.624004,330.136001 801.872,329.912 C801.119996,329.687999 800.364004,329.440001 799.604,329.168 C798.843996,328.895999 798.200003,328.512002 797.672,328.016 C797.143997,327.519998 796.88,326.912004 796.88,326.192 C796.88,325.199995 797.251996,324.388003 797.996,323.756 C798.740004,323.123997 799.839993,322.808 801.296,322.808 C802.160004,322.808 802.975996,322.967998 803.744,323.288 C804.512004,323.608002 805.063998,323.927998 805.4,324.248 L805.904,324.728 L804.776,325.712 C804.663999,325.599999 804.508001,325.464001 804.308,325.304 C804.107999,325.143999 803.704003,324.928001 803.096,324.656 C802.487997,324.383999 801.880003,324.248 801.272,324.248 C800.407996,324.248 799.708003,324.415998 799.172,324.752 C798.635997,325.088002 798.368,325.559997 798.368,326.168 C798.368,326.600002 798.631997,326.971998 799.16,327.284 C799.688003,327.596002 800.327996,327.863999 801.08,328.088 C801.832004,328.312001 802.587996,328.555999 803.348,328.82 C804.108004,329.084001 804.751997,329.467997 805.28,329.972 C805.808003,330.476003 806.072,331.087996 806.072,331.808 C806.072,332.816005 805.704004,333.631997 804.968,334.256 C804.231996,334.880003 803.128007,335.192 801.656,335.192 Z M815.762667,322.784 C817.474675,322.784 818.934661,323.387994 820.142667,324.596 C821.350673,325.804006 821.954667,327.263991 821.954667,328.976 C821.954667,330.688009 821.350673,332.147994 820.142667,333.356 C818.934661,334.564006 817.474675,335.168 815.762667,335.168 C813.842657,335.168 812.274673,334.440007 811.058667,332.984 L811.058667,340.832 L809.474667,340.832 L809.474667,322.976 L811.058667,322.976 L811.058667,324.944 C812.290673,323.503993 813.858657,322.784 815.762667,322.784 Z M812.450667,332.312 C813.346671,333.208004 814.43466,333.656 815.714667,333.656 C816.994673,333.656 818.086662,333.204005 818.990667,332.3 C819.894671,331.395995 820.346667,330.288007 820.346667,328.976 C820.346667,327.663993 819.894671,326.552005 818.990667,325.64 C818.086662,324.727995 816.994673,324.272 815.714667,324.272 C814.43466,324.272 813.346671,324.727995 812.450667,325.64 C811.554662,326.552005 811.106667,327.663993 811.106667,328.976 C811.106667,330.288007 811.554662,331.399995 812.450667,332.312 Z M834.933333,333.368 C833.733327,334.584006 832.277342,335.192 830.565333,335.192 C828.853325,335.192 827.393339,334.588006 826.185333,333.38 C824.977327,332.171994 824.373333,330.712009 824.373333,329 C824.373333,327.287991 824.977327,325.828006 826.185333,324.62 C827.393339,323.411994 828.853325,322.808 830.565333,322.808 C832.277342,322.808 833.737327,323.411994 834.945333,324.62 C836.153339,325.828006 836.757333,327.287991 836.757333,329 C836.757333,330.696008 836.149339,332.151994 834.933333,333.368 Z M830.589333,333.68 C831.88534,333.68 832.977329,333.228005 833.865333,332.324 C834.753338,331.419995 835.197333,330.312007 835.197333,329 C835.197333,327.687993 834.753338,326.576005 833.865333,325.664 C832.977329,324.751995 831.88534,324.296 830.589333,324.296 C829.309327,324.296 828.221338,324.751995 827.325333,325.664 C826.429329,326.576005 825.981333,327.687993 825.981333,329 C825.981333,330.312007 826.429329,331.419995 827.325333,332.324 C828.221338,333.228005 829.309327,333.68 830.589333,333.68 Z M845.224,322.808 C846.616007,322.808 847.783995,323.299995 848.728,324.284 C849.672005,325.268005 850.144,326.479993 850.144,327.92 L850.144,335 L848.536,335 L848.536,327.968 C848.536,326.943995 848.188003,326.072004 847.492,325.352 C846.795996,324.631996 845.952005,324.272 844.96,324.272 C843.967995,324.272 843.124003,324.631996 842.428,325.352 C841.731996,326.072004 841.384,326.943995 841.384,327.968 L841.384,335 L839.8,335 L839.8,323 L841.384,323 L841.384,324.776 C842.360005,323.463993 843.639992,322.808 845.224,322.808 Z M858.058667,335.192 C857.514664,335.192 856.986669,335.124001 856.474667,334.988 C855.962664,334.851999 855.534668,334.692001 855.190667,334.508 C854.846665,334.323999 854.538668,334.136001 854.266667,333.944 C853.994665,333.751999 853.794667,333.592001 853.666667,333.464 L853.474667,333.248 L854.602667,332.288 C854.714667,332.400001 854.870666,332.535999 855.070667,332.696 C855.270668,332.856001 855.674664,333.071999 856.282667,333.344 C856.89067,333.616001 857.490664,333.752 858.082667,333.752 C858.962671,333.752 859.666664,333.584002 860.194667,333.248 C860.722669,332.911998 860.986667,332.440003 860.986667,331.832 C860.986667,331.399998 860.722669,331.028002 860.194667,330.716 C859.666664,330.403998 859.02667,330.136001 858.274667,329.912 C857.522663,329.687999 856.76667,329.440001 856.006667,329.168 C855.246663,328.895999 854.602669,328.512002 854.074667,328.016 C853.546664,327.519998 853.282667,326.912004 853.282667,326.192 C853.282667,325.199995 853.654663,324.388003 854.398667,323.756 C855.14267,323.123997 856.242659,322.808 857.698667,322.808 C858.562671,322.808 859.378663,322.967998 860.146667,323.288 C860.91467,323.608002 861.466665,323.927998 861.802667,324.248 L862.306667,324.728 L861.178667,325.712 C861.066666,325.599999 860.910668,325.464001 860.710667,325.304 C860.510666,325.143999 860.10667,324.928001 859.498667,324.656 C858.890664,324.383999 858.28267,324.248 857.674667,324.248 C856.810662,324.248 856.110669,324.415998 855.574667,324.752 C855.038664,325.088002 854.770667,325.559997 854.770667,326.168 C854.770667,326.600002 855.034664,326.971998 855.562667,327.284 C856.090669,327.596002 856.730663,327.863999 857.482667,328.088 C858.23467,328.312001 858.990663,328.555999 859.750667,328.82 C860.51067,329.084001 861.154664,329.467997 861.682667,329.972 C862.210669,330.476003 862.474667,331.087996 862.474667,331.808 C862.474667,332.816005 862.10667,333.631997 861.370667,334.256 C860.634663,334.880003 859.530674,335.192 858.058667,335.192 Z M871.037333,333.608 C872.109339,333.608 873.069329,333.304003 873.917333,332.696 C874.765338,332.087997 875.341332,331.376004 875.645333,330.56 L876.989333,331.04 C876.621331,332.048005 875.905339,332.975996 874.841333,333.824 C873.777328,334.672004 872.509341,335.088 871.037333,335.072 C869.693327,335.072 868.465339,334.656004 867.353333,333.824 C866.241328,332.991996 865.485335,331.928006 865.085333,330.632 C864.925333,330.103997 864.845333,329.528003 864.845333,328.904 C864.845333,327.175991 865.445327,325.712006 866.645333,324.512 C867.845339,323.311994 869.309325,322.704 871.037333,322.688 C872.605341,322.704 873.973327,323.231995 875.141333,324.272 C876.309339,325.312005 876.981332,326.599992 877.157333,328.136 C877.173333,328.216 877.181333,328.319999 877.181333,328.448 L866.693333,330.344 C866.965335,331.304005 867.509329,332.091997 868.325333,332.708 C869.141337,333.324003 870.045328,333.624 871.037333,333.608 Z M870.893333,324.152 C869.693327,324.168 868.665338,324.599996 867.809333,325.448 C866.953329,326.296004 866.493334,327.311994 866.429333,328.496 C866.429333,328.544 866.433333,328.627999 866.441333,328.748 C866.449333,328.868001 866.453333,328.968 866.453333,329.048 L875.381333,327.44 C875.077332,326.463995 874.509337,325.668003 873.677333,325.052 C872.845329,324.435997 871.917338,324.136 870.893333,324.152 Z" id="Ohm’s-Law---Current-Copy" fill="#23ABE3"></path>
    </g>
</svg>