<?xml version="1.0" encoding="UTF-8"?>
<svg width="900px" height="350px" viewBox="0 0 900 350" version="1.1" xmlns="http://www.w3.org/2000/svg" xmlns:xlink="http://www.w3.org/1999/xlink">
    <!-- Generator: Sketch 52.5 (67469) - http://www.bohemiancoding.com/sketch -->
    <title>Ohms_Law_Behavior_Graph</title>
    <desc>Created with Sketch.</desc>
    <g id="Ohms_Law_Behavior_Graph" stroke="none" stroke-width="1" fill="none" fill-rule="evenodd">
        <rect id="Rectangle" stroke="#3D3530" stroke-width="2" fill="#EEEEEE" x="1" y="1" width="898" height="528"></rect>
        <g id="Illustration" transform="translate(112.000000, 30.000000)">
            <g id="Labels" transform="translate(171.000000, 0.000000)" fill="#524740">
                <path d="M14.832,16.736 L14.352,16.736 C14.2239994,16.1119969 13.9520021,15.6560014 13.536,15.368 C12.2239934,16.7280068 10.7360083,17.408 9.072,17.408 C7.03998984,17.408 5.3040072,16.6640074 3.864,15.176 C2.4239928,13.6879926 1.704,11.8960105 1.704,9.8 C1.704,7.70398952 2.4239928,5.91200744 3.864,4.424 C5.3040072,2.93599256 7.03998984,2.192 9.072,2.192 C10.7680085,2.192 12.2559936,2.8719932 13.536,4.232 C13.9680022,3.89599832 14.2399994,3.44000288 14.352,2.864 L14.832,2.864 L14.832,8.144 L14.352,8.144 C14.0159983,6.55999208 13.3960045,5.3280044 12.492,4.448 C11.5879955,3.5679956 10.4800066,3.128 9.168,3.128 C8.25599544,3.128 7.44800352,3.33199796 6.744,3.74 C6.03999648,4.14800204 5.49200196,4.68799664 5.1,5.36 C4.70799804,6.03200336 4.41600096,6.74399624 4.224,7.496 C4.03199904,8.24800376 3.936,9.01599608 3.936,9.8 C3.936,10.5840039 4.03199904,11.3519962 4.224,12.104 C4.41600096,12.8560038 4.70799804,13.5639967 5.1,14.228 C5.49200196,14.8920033 6.03999648,15.427998 6.744,15.836 C7.44800352,16.244002 8.25599544,16.448 9.168,16.448 C10.4800066,16.448 11.5879955,16.0040044 12.492,15.116 C13.3960045,14.2279956 14.0159983,13.0080078 14.352,11.456 L14.832,11.456 L14.832,16.736 Z M29.68,16.808 L26.464,17.408 C26.3359994,17.1519987 26.2080006,16.6400038 26.08,15.872 C25.087995,16.8960051 24.0400055,17.408 22.936,17.408 C20.9519901,17.408 19.96,16.208012 19.96,13.808 L19.96,12.296 C19.96,11.095994 19.8440012,10.3280017 19.612,9.992 C19.3799988,9.65599832 18.864004,9.488 18.064,9.488 L18.064,9.008 L21.664,9.008 L21.664,13.688 C21.664,15.4000086 22.2719939,16.256 23.488,16.256 C24.0320027,16.256 24.599997,16.0280023 25.192,15.572 C25.784003,15.1159977 26.08,14.5520034 26.08,13.88 L26.08,12.296 C26.08,11.095994 25.9640012,10.3280017 25.732,9.992 C25.4999988,9.65599832 24.9760041,9.488 24.16,9.488 L24.16,9.008 L27.76,9.008 L27.76,13.496 C27.76,14.696006 27.8759988,15.4639983 28.108,15.8 C28.3400012,16.1360017 28.8639959,16.304 29.68,16.304 L29.68,16.808 Z M40.064,10.088 C40.064,10.8400038 39.7440032,11.216 39.104,11.216 C38.8799989,11.216 38.6840008,11.1280009 38.516,10.952 C38.3479992,10.7759991 38.264,10.5760011 38.264,10.352 C38.264,9.82399736 38.0080026,9.56 37.496,9.56 C37.1279982,9.56 36.7280022,9.81599744 36.296,10.328 C35.8639978,10.8400026 35.648,11.5199958 35.648,12.368 L35.648,13.688 C35.648,14.888006 35.7639988,15.6559983 35.996,15.992 C36.2280012,16.3280017 36.743996,16.496 37.544,16.496 L37.544,17 L32.048,17 L32.048,16.496 C32.848004,16.496 33.3639988,16.3280017 33.596,15.992 C33.8280012,15.6559983 33.944,14.888006 33.944,13.688 L33.944,12.488 C33.944,11.3039941 33.8280012,10.5440017 33.596,10.208 C33.3639988,9.87199832 32.848004,9.704 32.048,9.704 L32.048,9.2 L35.24,8.6 C35.3840007,8.90400152 35.5199994,9.47999576 35.648,10.328 C35.8880012,9.8479976 36.2479976,9.44000168 36.728,9.104 C37.2080024,8.76799832 37.6879976,8.6 38.168,8.6 C38.776003,8.6 39.2439984,8.7599984 39.572,9.08 C39.9000016,9.4000016 40.064,9.73599824 40.064,10.088 Z M50.496,10.088 C50.496,10.8400038 50.1760032,11.216 49.536,11.216 C49.3119989,11.216 49.1160008,11.1280009 48.948,10.952 C48.7799992,10.7759991 48.696,10.5760011 48.696,10.352 C48.696,9.82399736 48.4400026,9.56 47.928,9.56 C47.5599982,9.56 47.1600022,9.81599744 46.728,10.328 C46.2959978,10.8400026 46.08,11.5199958 46.08,12.368 L46.08,13.688 C46.08,14.888006 46.1959988,15.6559983 46.428,15.992 C46.6600012,16.3280017 47.175996,16.496 47.976,16.496 L47.976,17 L42.48,17 L42.48,16.496 C43.280004,16.496 43.7959988,16.3280017 44.028,15.992 C44.2600012,15.6559983 44.376,14.888006 44.376,13.688 L44.376,12.488 C44.376,11.3039941 44.2600012,10.5440017 44.028,10.208 C43.7959988,9.87199832 43.280004,9.704 42.48,9.704 L42.48,9.2 L45.672,8.6 C45.8160007,8.90400152 45.9519994,9.47999576 46.08,10.328 C46.3200012,9.8479976 46.6799976,9.44000168 47.16,9.104 C47.6400024,8.76799832 48.1199976,8.6 48.6,8.6 C49.208003,8.6 49.6759984,8.7599984 50.004,9.08 C50.3320016,9.4000016 50.496,9.73599824 50.496,10.088 Z M54.808,11.504 L58.792,11.504 C58.9520008,11.0559978 58.8840015,10.6200021 58.588,10.196 C58.2919985,9.77199788 57.7840036,9.56 57.064,9.56 C56.5519974,9.56 56.092002,9.73599824 55.684,10.088 C55.275998,10.4400018 54.9840009,10.911997 54.808,11.504 Z M54.664,12.392 C54.5199993,13.5760059 54.7079974,14.5399963 55.228,15.284 C55.7480026,16.0280037 56.5999941,16.4 57.784,16.4 C58.184002,16.4 58.6399974,16.296001 59.152,16.088 C59.6640026,15.879999 60.0879983,15.6160016 60.424,15.296 L60.856,15.824 C60.4239978,16.2880023 59.8720034,16.6679985 59.2,16.964 C58.5279966,17.2600015 57.8560034,17.408 57.184,17.408 C55.8879935,17.408 54.8240042,16.9800043 53.992,16.124 C53.1599958,15.2679957 52.744,14.2240062 52.744,12.992 C52.744,11.7599938 53.1959955,10.7200042 54.1,9.872 C55.0040045,9.02399576 56.0319942,8.6 57.184,8.6 C58.2720054,8.6 59.1599966,8.9799962 59.848,9.74 C60.5360034,10.5000038 60.7360014,11.383995 60.448,12.392 L54.664,12.392 Z M67.232,10.328 C68.1440046,9.17599424 69.2559934,8.6 70.568,8.6 C71.6080052,8.6 72.3879974,8.92799672 72.908,9.584 C73.4280026,10.2400033 73.688,11.1039946 73.688,12.176 L73.688,13.688 C73.688,14.888006 73.8039988,15.6559983 74.036,15.992 C74.2680012,16.3280017 74.783996,16.496 75.584,16.496 L75.584,17 L70.088,17 L70.088,16.496 C70.8720039,16.496 71.3839988,16.3240017 71.624,15.98 C71.8640012,15.6359983 71.984,14.8720059 71.984,13.688 L71.984,12.296 C71.984,10.5839914 71.3200066,9.728 69.992,9.728 C69.3039966,9.728 68.6720029,9.9679976 68.096,10.448 C67.5199971,10.9280024 67.232,11.4879968 67.232,12.128 L67.232,13.688 C67.232,14.9200062 67.327999,15.6959984 67.52,16.016 C67.712001,16.3360016 68.1759963,16.496 68.912,16.496 L68.912,17 L63.632,17 L63.632,16.496 C64.432004,16.496 64.9479988,16.3280017 65.18,15.992 C65.4120012,15.6559983 65.528,14.888006 65.528,13.688 L65.528,12.488 C65.528,11.3039941 65.4120012,10.5440017 65.18,10.208 C64.9479988,9.87199832 64.432004,9.704 63.632,9.704 L63.632,9.2 L66.824,8.6 C66.9680007,8.90400152 67.1039994,9.47999576 67.232,10.328 Z M78.96,9.848 L77.712,9.848 L77.712,9.272 C78.4000034,9.12799928 78.9039984,8.8160024 79.224,8.336 C79.5440016,7.8559976 79.7519995,7.20000416 79.848,6.368 L80.664,6.368 L80.664,9.008 L82.752,9.008 L82.752,9.848 L80.664,9.848 L80.664,14.648 C80.664,15.8000058 81.0239964,16.376 81.744,16.376 C82.2080023,16.376 82.7279971,16.1040027 83.304,15.56 L83.712,15.968 C83.3759983,16.368002 82.9720024,16.6959987 82.5,16.952 C82.0279976,17.2080013 81.592002,17.336 81.192,17.336 C80.5039966,17.336 79.960002,17.1120022 79.56,16.664 C79.159998,16.2159978 78.96,15.5440045 78.96,14.648 L78.96,9.848 Z" id="Current-Copy"></path>
                <path d="M254.696,197.104 C253.751995,197.104 253.140001,197.219999 252.86,197.452 C252.579999,197.684001 252.240002,198.263995 251.84,199.192 L246.56,211.408 L246.248,211.408 L240.944,199.192 C240.543998,198.263995 240.204001,197.684001 239.924,197.452 C239.643999,197.219999 239.032005,197.104 238.088,197.104 L238.088,196.6 L244.736,196.6 L244.736,197.104 C243.743995,197.104 243.108001,197.243999 242.828,197.524 C242.547999,197.804001 242.559998,198.271997 242.864,198.928 L246.944,208.264 L250.976,198.928 C251.280002,198.271997 251.292001,197.804001 251.012,197.524 C250.731999,197.243999 250.096005,197.104 249.104,197.104 L249.104,196.6 L254.696,196.6 L254.696,197.104 Z M262.824,203.896 C263.784005,204.744004 264.264,205.775994 264.264,206.992 C264.264,208.208006 263.788005,209.247996 262.836,210.112 C261.883995,210.976004 260.744007,211.408 259.416,211.408 C258.087993,211.408 256.948005,210.976004 255.996,210.112 C255.043995,209.247996 254.568,208.208006 254.568,206.992 C254.568,205.775994 255.043995,204.740004 255.996,203.884 C256.948005,203.027996 258.087993,202.6 259.416,202.6 C260.744007,202.6 261.879995,203.031996 262.824,203.896 Z M261.576,209.512 C262.072002,208.855997 262.32,208.016005 262.32,206.992 C262.32,205.967995 262.072002,205.132003 261.576,204.484 C261.079998,203.835997 260.360005,203.512 259.416,203.512 C258.471995,203.512 257.752002,203.839997 257.256,204.496 C256.759998,205.152003 256.512,205.983995 256.512,206.992 C256.512,208.000005 256.759998,208.831997 257.256,209.488 C257.752002,210.144003 258.471995,210.472 259.416,210.472 C260.360005,210.472 261.079998,210.152003 261.576,209.512 Z M272.368,211 L266.872,211 L266.872,210.496 C267.672004,210.496 268.187999,210.328002 268.42,209.992 C268.652001,209.655998 268.768,208.888006 268.768,207.688 L268.768,200.104 C268.768,198.903994 268.652001,198.136002 268.42,197.8 C268.187999,197.463998 267.672004,197.296 266.872,197.296 L266.872,196.792 L270.472,196.192 L270.472,207.688 C270.472,208.888006 270.587999,209.655998 270.82,209.992 C271.052001,210.328002 271.567996,210.496 272.368,210.496 L272.368,211 Z M275.768,203.848 L274.52,203.848 L274.52,203.272 C275.208003,203.127999 275.711998,202.816002 276.032,202.336 C276.352002,201.855998 276.56,201.200004 276.656,200.368 L277.472,200.368 L277.472,203.008 L279.56,203.008 L279.56,203.848 L277.472,203.848 L277.472,208.648 C277.472,209.800006 277.831996,210.376 278.552,210.376 C279.016002,210.376 279.535997,210.104003 280.112,209.56 L280.52,209.968 C280.183998,210.368002 279.780002,210.695999 279.308,210.952 C278.835998,211.208001 278.400002,211.336 278,211.336 C277.311997,211.336 276.768002,211.112002 276.368,210.664 C275.967998,210.215998 275.768,209.544004 275.768,208.648 L275.768,203.848 Z M291.216,210.52 C290.751998,211.016002 290.224003,211.264 289.632,211.264 C288.671995,211.264 288.128001,210.800005 288,209.872 C286.927995,210.832005 285.928005,211.312 285,211.312 C284.391997,211.312 283.880002,211.132002 283.464,210.772 C283.047998,210.411998 282.84,209.920003 282.84,209.296 C282.84,207.615992 284.543983,206.480003 287.952,205.888 C287.952,204.943995 287.848001,204.288002 287.64,203.92 C287.431999,203.551998 287.000003,203.368 286.344,203.368 C286.023998,203.368 285.716001,203.471999 285.42,203.68 C285.123999,203.888001 284.976,204.167998 284.976,204.52 C284.976,204.760001 284.896001,204.959999 284.736,205.12 C284.575999,205.280001 284.384001,205.36 284.16,205.36 C283.919999,205.36 283.720001,205.280001 283.56,205.12 C283.399999,204.959999 283.32,204.760001 283.32,204.52 C283.32,203.959997 283.627997,203.500002 284.244,203.14 C284.860003,202.779998 285.567996,202.6 286.368,202.6 C287.536006,202.6 288.375997,202.855997 288.888,203.368 C289.400003,203.880003 289.656,204.711994 289.656,205.864 L289.656,209.488 C289.656,210.112003 289.839998,210.424 290.208,210.424 C290.416001,210.424 290.639999,210.304001 290.88,210.064 L291.216,210.52 Z M287.952,209.08 L287.952,206.632 C285.743989,207.144003 284.64,207.935995 284.64,209.008 C284.64,209.376002 284.747999,209.671999 284.964,209.896 C285.180001,210.120001 285.447998,210.232 285.768,210.232 C286.360003,210.232 287.087996,209.848004 287.952,209.08 Z M298.456,207.664 C298.760002,207.199998 298.912,206.600004 298.912,205.864 C298.912,205.127996 298.764001,204.528002 298.468,204.064 C298.171999,203.599998 297.744003,203.368 297.184,203.368 C296.623997,203.368 296.192002,203.599998 295.888,204.064 C295.583998,204.528002 295.432,205.127996 295.432,205.864 C295.432,206.600004 295.583998,207.195998 295.888,207.652 C296.192002,208.108002 296.623997,208.336 297.184,208.336 C297.744003,208.336 298.167999,208.112002 298.456,207.664 Z M294.952,210.136 C294.952,210.616002 295.679993,210.919999 297.136,211.048 C298.672008,211.176001 299.783997,211.527997 300.472,212.104 C301.160003,212.680003 301.504,213.375996 301.504,214.192 C301.504,215.168005 301.100004,215.947997 300.292,216.532 C299.483996,217.116003 298.472006,217.408 297.256,217.408 C295.959994,217.408 294.916004,217.140003 294.124,216.604 C293.331996,216.067997 292.968,215.440004 293.032,214.72 C293.096,213.999996 293.607995,213.392002 294.568,212.896 L295,213.16 C294.535998,213.688003 294.288,214.171998 294.256,214.612 C294.224,215.052002 294.363998,215.399999 294.676,215.656 C294.988002,215.912001 295.371998,216.111999 295.828,216.256 C296.284002,216.400001 296.759998,216.472 297.256,216.472 C298.040004,216.472 298.731997,216.300002 299.332,215.956 C299.932003,215.611998 300.232,215.168003 300.232,214.624 C300.232,214.095997 299.972003,213.712001 299.452,213.472 C298.931997,213.231999 298.120006,213.056001 297.016,212.944 C294.743989,212.719999 293.608,211.976006 293.608,210.712 C293.608,209.847996 294.279993,209.208002 295.624,208.792 C294.999997,208.503999 294.508002,208.104003 294.148,207.592 C293.787998,207.079997 293.608,206.504003 293.608,205.864 C293.608,204.967996 293.955997,204.200003 294.652,203.56 C295.348003,202.919997 296.191995,202.6 297.184,202.6 C298.144005,202.6 298.967997,202.903997 299.656,203.512 C299.864001,203.255999 300.147998,203.040001 300.508,202.864 C300.868002,202.687999 301.183999,202.6 301.456,202.6 C302.160004,202.6 302.607999,202.895997 302.8,203.488 C302.944001,203.936002 302.872001,204.271999 302.584,204.496 C302.488,204.576 302.376001,204.616 302.248,204.616 C302.007999,204.632 301.828001,204.584001 301.708,204.472 C301.587999,204.359999 301.516,204.236001 301.492,204.1 C301.468,203.963999 301.404001,203.836001 301.3,203.716 C301.195999,203.595999 301.032001,203.536 300.808,203.536 C300.567999,203.536 300.320001,203.663999 300.064,203.92 C300.528002,204.480003 300.76,205.127996 300.76,205.864 C300.76,206.712004 300.448003,207.439997 299.824,208.048 C299.199997,208.656003 298.472004,209.015999 297.64,209.128 C295.847991,209.336001 294.952,209.671998 294.952,210.136 Z M306.968,205.504 L310.952,205.504 C311.112001,205.055998 311.044001,204.620002 310.748,204.196 C310.451999,203.771998 309.944004,203.56 309.224,203.56 C308.711997,203.56 308.252002,203.735998 307.844,204.088 C307.435998,204.440002 307.144001,204.911997 306.968,205.504 Z M306.824,206.392 C306.679999,207.576006 306.867997,208.539996 307.388,209.284 C307.908003,210.028004 308.759994,210.4 309.944,210.4 C310.344002,210.4 310.799997,210.296001 311.312,210.088 C311.824003,209.879999 312.247998,209.616002 312.584,209.296 L313.016,209.824 C312.583998,210.288002 312.032003,210.667999 311.36,210.964 C310.687997,211.260001 310.016003,211.408 309.344,211.408 C308.047994,211.408 306.984004,210.980004 306.152,210.124 C305.319996,209.267996 304.904,208.224006 304.904,206.992 C304.904,205.759994 305.355995,204.720004 306.26,203.872 C307.164005,203.023996 308.191994,202.6 309.344,202.6 C310.432005,202.6 311.319997,202.979996 312.008,203.74 C312.696003,204.500004 312.896001,205.383995 312.608,206.392 L306.824,206.392 Z" id="Voltage-Copy"></path>
            </g>
            <g id="Graph-Lines" transform="translate(0.000000, 25.000000)">
                <path d="M187.634457,179.5 L392.521,179.5" id="Line-5" stroke="#3D3530" stroke-width="3" stroke-linecap="square"></path>
                <path d="M357,6 L357,0 L359,0 L359,6 L365,6 L365,8 L359,8 L359,14 L357,14 L357,8 L351,8 L351,6 L357,6 Z" id="Combined-Shape" fill="#3D3530"></path>
                <rect id="Rectangle" fill="#3D3530" x="181" y="195" width="13" height="2"></rect>
                <path d="M213.352001,3 L213.352001,234.912015" id="Line-6" stroke="#3D3530" stroke-width="3" stroke-linecap="square"></path>
                <path d="M392.521,3 L212.982714,178" id="Path-9" stroke="#EF7D3B" stroke-width="3"></path>
            </g>
        </g>
        <rect id="Rectangle-Copy" stroke="#3D3530" stroke-width="2" fill="#F8FAE4" x="1" y="306" width="898" height="43"></rect>
        <path d="M384.117333,332.84 C382.725326,334.408008 380.845344,335.192 378.477333,335.192 C376.109321,335.192 374.22534,334.408008 372.825333,332.84 C371.425326,331.271992 370.725333,329.312012 370.725333,326.96 C370.725333,324.607988 371.425326,322.644008 372.825333,321.068 C374.22534,319.491992 376.109321,318.704 378.477333,318.704 C380.845344,318.704 382.725326,319.491992 384.117333,321.068 C385.509339,322.644008 386.205333,324.607988 386.205333,326.96 C386.205333,329.312012 385.509339,331.271992 384.117333,332.84 Z M374.085333,331.784 C375.189338,333.064006 376.653323,333.704 378.477333,333.704 C380.301342,333.704 381.769327,333.060006 382.881333,331.772 C383.993338,330.483994 384.549333,328.88001 384.549333,326.96 C384.549333,325.02399 383.993338,323.416006 382.881333,322.136 C381.769327,320.855994 380.301342,320.216 378.477333,320.216 C376.653323,320.216 375.189338,320.855994 374.085333,322.136 C372.981327,323.416006 372.429333,325.02399 372.429333,326.96 C372.429333,328.89601 372.981327,330.503994 374.085333,331.784 Z M394.863999,322.808 C396.256006,322.808 397.423995,323.307995 398.367999,324.308 C399.312004,325.308005 399.783999,326.527993 399.783999,327.968 L399.783999,335 L398.175999,335 L398.175999,327.992 C398.175999,326.951995 397.832003,326.076004 397.143999,325.364 C396.455996,324.651996 395.608004,324.296 394.599999,324.296 C393.607994,324.296 392.764003,324.651996 392.067999,325.364 C391.371996,326.076004 391.023999,326.943995 391.023999,327.968 L391.023999,335 L389.439999,335 L389.439999,317.144 L391.023999,317.144 L391.023999,324.776 C392.000004,323.463993 393.279991,322.808 394.863999,322.808 Z M417.682666,322.808 C419.074673,322.808 420.242661,323.299995 421.186666,324.284 C422.130671,325.268005 422.602666,326.479993 422.602666,327.92 L422.602666,335 L420.970666,335 L420.970666,327.968 C420.970666,326.927995 420.630669,326.052004 419.950666,325.34 C419.270663,324.627996 418.426671,324.272 417.418666,324.272 C416.410661,324.272 415.562669,324.627996 414.874666,325.34 C414.186662,326.052004 413.842666,326.927995 413.842666,327.968 L413.842666,335 L412.234666,335 L412.234666,327.968 C412.234666,326.943995 411.886669,326.072004 411.190666,325.352 C410.494662,324.631996 409.650671,324.272 408.658666,324.272 C407.666661,324.272 406.822669,324.631996 406.126666,325.352 C405.430662,326.072004 405.082666,326.943995 405.082666,327.968 L405.082666,335 L403.498666,335 L403.498666,323 L405.082666,323 L405.082666,324.776 C406.058671,323.463993 407.338658,322.808 408.922666,322.808 C409.83467,322.808 410.670662,323.039998 411.430666,323.504 C412.19067,323.968002 412.786664,324.591996 413.218666,325.376 C413.634668,324.591996 414.234662,323.968002 415.018666,323.504 C415.80267,323.039998 416.690661,322.808 417.682666,322.808 Z M424.757333,322.736 L425.837333,318.896 L427.493333,318.896 L426.077333,322.736 L424.757333,322.736 Z M433.151999,335.192 C432.607997,335.192 432.080002,335.124001 431.567999,334.988 C431.055997,334.851999 430.628001,334.692001 430.283999,334.508 C429.939998,334.323999 429.632001,334.136001 429.359999,333.944 C429.087998,333.751999 428.888,333.592001 428.759999,333.464 L428.567999,333.248 L429.695999,332.288 C429.808,332.400001 429.963998,332.535999 430.163999,332.696 C430.364,332.856001 430.767996,333.071999 431.375999,333.344 C431.984002,333.616001 432.583996,333.752 433.175999,333.752 C434.056004,333.752 434.759997,333.584002 435.287999,333.248 C435.816002,332.911998 436.079999,332.440003 436.079999,331.832 C436.079999,331.399998 435.816002,331.028002 435.287999,330.716 C434.759997,330.403998 434.120003,330.136001 433.367999,329.912 C432.615996,329.687999 431.860003,329.440001 431.099999,329.168 C430.339995,328.895999 429.696002,328.512002 429.167999,328.016 C428.639997,327.519998 428.375999,326.912004 428.375999,326.192 C428.375999,325.199995 428.747996,324.388003 429.491999,323.756 C430.236003,323.123997 431.335992,322.808 432.791999,322.808 C433.656004,322.808 434.471995,322.967998 435.239999,323.288 C436.008003,323.608002 436.559998,323.927998 436.895999,324.248 L437.399999,324.728 L436.271999,325.712 C436.159999,325.599999 436.004,325.464001 435.803999,325.304 C435.603998,325.143999 435.200002,324.928001 434.591999,324.656 C433.983996,324.383999 433.376002,324.248 432.767999,324.248 C431.903995,324.248 431.204002,324.415998 430.667999,324.752 C430.131997,325.088002 429.863999,325.559997 429.863999,326.168 C429.863999,326.600002 430.127997,326.971998 430.655999,327.284 C431.184002,327.596002 431.823996,327.863999 432.575999,328.088 C433.328003,328.312001 434.083995,328.555999 434.843999,328.82 C435.604003,329.084001 436.247997,329.467997 436.775999,329.972 C437.304002,330.476003 437.567999,331.087996 437.567999,331.808 C437.567999,332.816005 437.200003,333.631997 436.463999,334.256 C435.727996,334.880003 434.624007,335.192 433.151999,335.192 Z M449.725333,333.416 L457.069333,333.416 L457.069333,335 L448.141333,335 L448.141333,318.872 L449.725333,318.872 L449.725333,333.416 Z M469.711999,323 L471.295999,323 L471.295999,335 L469.711999,335 L469.711999,333.056 C468.479993,334.480007 466.920009,335.192 465.031999,335.192 C463.319991,335.192 461.860005,334.588006 460.651999,333.38 C459.443993,332.171994 458.839999,330.712009 458.839999,329 C458.839999,327.287991 459.443993,325.828006 460.651999,324.62 C461.860005,323.411994 463.319991,322.808 465.031999,322.808 C466.936009,322.808 468.495993,323.519993 469.711999,324.944 L469.711999,323 Z M465.055999,333.68 C466.352006,333.68 467.443995,333.228005 468.331999,332.324 C469.220004,331.419995 469.663999,330.312007 469.663999,329 C469.663999,327.687993 469.220004,326.580005 468.331999,325.676 C467.443995,324.771995 466.352006,324.32 465.055999,324.32 C463.775993,324.32 462.684004,324.771995 461.779999,325.676 C460.875995,326.580005 460.423999,327.687993 460.423999,329 C460.423999,330.312007 460.875995,331.419995 461.779999,332.324 C462.684004,333.228005 463.775993,333.68 465.055999,333.68 Z M490.586666,323 L492.170666,323 L487.922666,335 L486.338666,335 L482.954666,325.112 L479.570666,335 L477.986666,335 L473.762666,323 L475.346666,323 L478.778666,332.768 L482.234666,323 L483.674666,323 L487.130666,332.768 L490.586666,323 Z M508.335999,327.656 L501.879999,327.656 L501.879999,326.216 L508.335999,326.216 L508.335999,327.656 Z M526.205333,335.192 C523.837321,335.192 521.94934,334.404008 520.541333,332.828 C519.133326,331.251992 518.429333,329.296012 518.429333,326.96 C518.429333,324.607988 519.133326,322.644008 520.541333,321.068 C521.94934,319.491992 523.837321,318.704 526.205333,318.704 C527.773341,318.704 529.137327,319.063996 530.297333,319.784 C531.457339,320.504004 532.35733,321.487994 532.997333,322.736 L531.509333,323.6 C530.99733,322.559995 530.281337,321.736003 529.361333,321.128 C528.441328,320.519997 527.389339,320.216 526.205333,320.216 C524.381324,320.216 522.921338,320.851994 521.825333,322.124 C520.729327,323.396006 520.181333,325.00799 520.181333,326.96 C520.181333,328.89601 520.729327,330.503994 521.825333,331.784 C522.921338,333.064006 524.381324,333.704 526.205333,333.704 C527.405339,333.704 528.465328,333.396003 529.385333,332.78 C530.305337,332.163997 531.01333,331.336005 531.509333,330.296 L532.997333,331.184 C532.35733,332.432006 531.457339,333.411996 530.297333,334.124 C529.137327,334.836004 527.773341,335.192 526.205333,335.192 Z M545.111999,323 L546.695999,323 L546.695999,335 L545.111999,335 L545.111999,333.224 C544.135995,334.536007 542.856007,335.192 541.271999,335.192 C539.879993,335.192 538.712004,334.700005 537.767999,333.716 C536.823995,332.731995 536.351999,331.520007 536.351999,330.08 L536.351999,323 L537.983999,323 L537.983999,330.032 C537.983999,331.056005 538.327996,331.923996 539.015999,332.636 C539.704003,333.348004 540.543995,333.704 541.535999,333.704 C542.544005,333.704 543.391996,333.348004 544.079999,332.636 C544.768003,331.923996 545.111999,331.056005 545.111999,330.032 L545.111999,323 Z M556.074666,322.808 C556.92267,322.808 557.698663,323.015998 558.402666,323.432 L557.850666,325.016 C557.178663,324.519998 556.49867,324.272 555.810666,324.272 C554.802661,324.272 553.95467,324.627996 553.266666,325.34 C552.578663,326.052004 552.234666,326.927995 552.234666,327.968 L552.234666,335 L550.650666,335 L550.650666,323 L552.234666,323 L552.234666,324.776 C553.210671,323.463993 554.490658,322.808 556.074666,322.808 Z M566.629333,322.808 C567.477337,322.808 568.253329,323.015998 568.957333,323.432 L568.405333,325.016 C567.733329,324.519998 567.053336,324.272 566.365333,324.272 C565.357328,324.272 564.509336,324.627996 563.821333,325.34 C563.133329,326.052004 562.789333,326.927995 562.789333,327.968 L562.789333,335 L561.205333,335 L561.205333,323 L562.789333,323 L562.789333,324.776 C563.765338,323.463993 565.045325,322.808 566.629333,322.808 Z M576.272,333.608 C577.344005,333.608 578.303995,333.304003 579.152,332.696 C580.000004,332.087997 580.575998,331.376004 580.88,330.56 L582.224,331.04 C581.855998,332.048005 581.140005,332.975996 580.076,333.824 C579.011994,334.672004 577.744007,335.088 576.272,335.072 C574.927993,335.072 573.700005,334.656004 572.588,333.824 C571.475994,332.991996 570.720002,331.928006 570.32,330.632 C570.159999,330.103997 570.08,329.528003 570.08,328.904 C570.08,327.175991 570.679994,325.712006 571.88,324.512 C573.080006,323.311994 574.543991,322.704 576.272,322.688 C577.840007,322.704 579.207994,323.231995 580.376,324.272 C581.544005,325.312005 582.215999,326.599992 582.392,328.136 C582.408,328.216 582.416,328.319999 582.416,328.448 L571.928,330.344 C572.200001,331.304005 572.743995,332.091997 573.56,332.708 C574.376004,333.324003 575.279995,333.624 576.272,333.608 Z M576.128,324.152 C574.927994,324.168 573.900004,324.599996 573.044,325.448 C572.187995,326.296004 571.728,327.311994 571.664,328.496 C571.664,328.544 571.667999,328.627999 571.676,328.748 C571.684,328.868001 571.688,328.968 571.688,329.048 L580.616,327.44 C580.311998,326.463995 579.744004,325.668003 578.912,325.052 C578.079995,324.435997 577.152005,324.136 576.128,324.152 Z M590.762666,322.808 C592.154673,322.808 593.322661,323.299995 594.266666,324.284 C595.210671,325.268005 595.682666,326.479993 595.682666,327.92 L595.682666,335 L594.074666,335 L594.074666,327.968 C594.074666,326.943995 593.72667,326.072004 593.030666,325.352 C592.334663,324.631996 591.490671,324.272 590.498666,324.272 C589.506661,324.272 588.66267,324.631996 587.966666,325.352 C587.270663,326.072004 586.922666,326.943995 586.922666,327.968 L586.922666,335 L585.338666,335 L585.338666,323 L586.922666,323 L586.922666,324.776 C587.898671,323.463993 589.178658,322.808 590.762666,322.808 Z M605.973333,332.312 L606.765333,333.536 C606.669332,333.664001 606.541334,333.815999 606.381333,333.992 C606.221332,334.168001 605.861336,334.411998 605.301333,334.724 C604.74133,335.036002 604.165336,335.192 603.573333,335.192 C602.565328,335.192 601.721336,334.892003 601.041333,334.292 C600.361329,333.691997 600.021333,332.824006 600.021333,331.688 L600.021333,324.44 L598.101333,324.44 L598.101333,322.976 L600.021333,322.976 L600.021333,319.184 L601.605333,318.992 L601.605333,322.976 L605.229333,322.976 L605.229333,324.44 L601.605333,324.44 L601.605333,331.328 C601.605333,332.064004 601.833331,332.647998 602.289333,333.08 C602.745335,333.512002 603.26933,333.728 603.861333,333.728 C604.229335,333.728 604.589331,333.616001 604.941333,333.392 C605.293335,333.167999 605.553332,332.948001 605.721333,332.732 C605.889334,332.515999 605.973333,332.376 605.973333,332.312 Z M627.490666,323 L629.074666,323 L629.074666,335 L627.490666,335 L627.490666,333.056 C626.25866,334.480007 624.698676,335.192 622.810666,335.192 C621.098658,335.192 619.638672,334.588006 618.430666,333.38 C617.22266,332.171994 616.618666,330.712009 616.618666,329 C616.618666,327.287991 617.22266,325.828006 618.430666,324.62 C619.638672,323.411994 621.098658,322.808 622.810666,322.808 C624.714676,322.808 626.27466,323.519993 627.490666,324.944 L627.490666,323 Z M622.834666,333.68 C624.130673,333.68 625.222662,333.228005 626.110666,332.324 C626.998671,331.419995 627.442666,330.312007 627.442666,329 C627.442666,327.687993 626.998671,326.580005 626.110666,325.676 C625.222662,324.771995 624.130673,324.32 622.834666,324.32 C621.55466,324.32 620.462671,324.771995 619.558666,325.676 C618.654662,326.580005 618.202666,327.687993 618.202666,329 C618.202666,330.312007 618.654662,331.419995 619.558666,332.324 C620.462671,333.228005 621.55466,333.68 622.834666,333.68 Z M638.405333,322.808 C639.79734,322.808 640.965328,323.299995 641.909333,324.284 C642.853338,325.268005 643.325333,326.479993 643.325333,327.92 L643.325333,335 L641.717333,335 L641.717333,327.968 C641.717333,326.943995 641.369336,326.072004 640.673333,325.352 C639.977329,324.631996 639.133338,324.272 638.141333,324.272 C637.149328,324.272 636.305336,324.631996 635.609333,325.352 C634.913329,326.072004 634.565333,326.943995 634.565333,327.968 L634.565333,335 L632.981333,335 L632.981333,323 L634.565333,323 L634.565333,324.776 C635.541338,323.463993 636.821325,322.808 638.405333,322.808 Z M657.12,317.144 L658.704,317.144 L658.704,335 L657.12,335 L657.12,333.056 C655.887993,334.480007 654.328009,335.192 652.44,335.192 C650.727991,335.192 649.268006,334.588006 648.06,333.38 C646.851994,332.171994 646.248,330.712009 646.248,329 C646.248,327.287991 646.851994,325.828006 648.06,324.62 C649.268006,323.411994 650.727991,322.808 652.44,322.808 C654.344009,322.808 655.903994,323.519993 657.12,324.944 L657.12,317.144 Z M649.176,332.336 C650.072004,333.232004 651.167993,333.68 652.464,333.68 C653.760006,333.68 654.851995,333.228005 655.74,332.324 C656.628004,331.419995 657.072,330.312007 657.072,329 C657.072,327.687993 656.628004,326.580005 655.74,325.676 C654.851995,324.771995 653.760006,324.32 652.464,324.32 C651.167993,324.32 650.072004,324.771995 649.176,325.676 C648.279995,326.580005 647.832,327.687993 647.832,329 C647.832,330.312007 648.279995,331.423995 649.176,332.336 Z M681.925333,318.872 L683.533333,318.872 L677.173333,335 L675.565333,335 L669.181333,318.872 L670.813333,318.872 L676.381333,332.96 L681.925333,318.872 Z M694.232,333.368 C693.031994,334.584006 691.576008,335.192 689.864,335.192 C688.151991,335.192 686.692006,334.588006 685.484,333.38 C684.275994,332.171994 683.672,330.712009 683.672,329 C683.672,327.287991 684.275994,325.828006 685.484,324.62 C686.692006,323.411994 688.151991,322.808 689.864,322.808 C691.576008,322.808 693.035994,323.411994 694.244,324.62 C695.452006,325.828006 696.056,327.287991 696.056,329 C696.056,330.696008 695.448006,332.151994 694.232,333.368 Z M689.888,333.68 C691.184006,333.68 692.275995,333.228005 693.164,332.324 C694.052004,331.419995 694.496,330.312007 694.496,329 C694.496,327.687993 694.052004,326.576005 693.164,325.664 C692.275995,324.751995 691.184006,324.296 689.888,324.296 C688.607993,324.296 687.520004,324.751995 686.624,325.664 C685.727995,326.576005 685.28,327.687993 685.28,329 C685.28,330.312007 685.727995,331.419995 686.624,332.324 C687.520004,333.228005 688.607993,333.68 689.888,333.68 Z M699.338666,335 L699.338666,317.144 L700.922666,317.144 L700.922666,335 L699.338666,335 Z M711.741333,332.312 L712.533333,333.536 C712.437333,333.664001 712.309334,333.815999 712.149333,333.992 C711.989332,334.168001 711.629336,334.411998 711.069333,334.724 C710.50933,335.036002 709.933336,335.192 709.341333,335.192 C708.333328,335.192 707.489336,334.892003 706.809333,334.292 C706.12933,333.691997 705.789333,332.824006 705.789333,331.688 L705.789333,324.44 L703.869333,324.44 L703.869333,322.976 L705.789333,322.976 L705.789333,319.184 L707.373333,318.992 L707.373333,322.976 L710.997333,322.976 L710.997333,324.44 L707.373333,324.44 L707.373333,331.328 C707.373333,332.064004 707.601331,332.647998 708.057333,333.08 C708.513335,333.512002 709.03733,333.728 709.629333,333.728 C709.997335,333.728 710.357331,333.616001 710.709333,333.392 C711.061335,333.167999 711.321332,332.948001 711.489333,332.732 C711.657334,332.515999 711.741333,332.376 711.741333,332.312 Z M724.864,323 L726.448,323 L726.448,335 L724.864,335 L724.864,333.056 C723.631994,334.480007 722.072009,335.192 720.184,335.192 C718.471991,335.192 717.012006,334.588006 715.804,333.38 C714.595994,332.171994 713.992,330.712009 713.992,329 C713.992,327.287991 714.595994,325.828006 715.804,324.62 C717.012006,323.411994 718.471991,322.808 720.184,322.808 C722.088009,322.808 723.647994,323.519993 724.864,324.944 L724.864,323 Z M720.208,333.68 C721.504006,333.68 722.595995,333.228005 723.484,332.324 C724.372004,331.419995 724.816,330.312007 724.816,329 C724.816,327.687993 724.372004,326.580005 723.484,325.676 C722.595995,324.771995 721.504006,324.32 720.208,324.32 C718.927993,324.32 717.836004,324.771995 716.932,325.676 C716.027995,326.580005 715.576,327.687993 715.576,329 C715.576,330.312007 716.027995,331.419995 716.932,332.324 C717.836004,333.228005 718.927993,333.68 720.208,333.68 Z M740.578666,323.024 L742.186666,323.024 L742.186666,333.968 C742.170666,335.712009 741.542673,337.171994 740.302666,338.348 C739.06266,339.524006 737.626675,340.112 735.994666,340.112 C734.506659,340.112 733.238672,339.716004 732.190666,338.924 C731.142661,338.131996 730.434668,337.240005 730.066666,336.248 L731.362666,335.6 C731.666668,336.416004 732.242662,337.127997 733.090666,337.736 C733.938671,338.344003 734.906661,338.648 735.994666,338.648 C737.274673,338.648 738.358662,338.180005 739.246666,337.244 C740.134671,336.307995 740.586666,335.216006 740.602666,333.968 L740.578666,333.968 L740.578666,333.08 C739.36266,334.504007 737.802676,335.216 735.898666,335.216 C734.186658,335.216 732.726672,334.612006 731.518666,333.404 C730.31066,332.195994 729.706666,330.736009 729.706666,329.024 C729.706666,327.311991 730.31066,325.852006 731.518666,324.644 C732.726672,323.435994 734.186658,322.832 735.898666,322.832 C737.786676,322.832 739.34666,323.543993 740.578666,324.968 L740.578666,323.024 Z M735.922666,333.728 C737.218673,333.728 738.310662,333.276005 739.198666,332.372 C740.086671,331.467995 740.530666,330.360007 740.530666,329.048 C740.530666,327.735993 740.086671,326.628005 739.198666,325.724 C738.310662,324.819995 737.218673,324.368 735.922666,324.368 C734.64266,324.368 733.554671,324.819995 732.658666,325.724 C731.762662,326.628005 731.314666,327.735993 731.314666,329.048 C731.314666,330.360007 731.762662,331.467995 732.658666,332.372 C733.554671,333.276005 734.64266,333.728 735.922666,333.728 Z M751.661333,333.608 C752.733338,333.608 753.693329,333.304003 754.541333,332.696 C755.389337,332.087997 755.965332,331.376004 756.269333,330.56 L757.613333,331.04 C757.245331,332.048005 756.529338,332.975996 755.465333,333.824 C754.401328,334.672004 753.13334,335.088 751.661333,335.072 C750.317326,335.072 749.089339,334.656004 747.977333,333.824 C746.865328,332.991996 746.109335,331.928006 745.709333,330.632 C745.549332,330.103997 745.469333,329.528003 745.469333,328.904 C745.469333,327.175991 746.069327,325.712006 747.269333,324.512 C748.469339,323.311994 749.933324,322.704 751.661333,322.688 C753.229341,322.704 754.597327,323.231995 755.765333,324.272 C756.933339,325.312005 757.605332,326.599992 757.781333,328.136 C757.797333,328.216 757.805333,328.319999 757.805333,328.448 L747.317333,330.344 C747.589334,331.304005 748.133329,332.091997 748.949333,332.708 C749.765337,333.324003 750.669328,333.624 751.661333,333.608 Z M751.517333,324.152 C750.317327,324.168 749.289337,324.599996 748.433333,325.448 C747.577329,326.296004 747.117333,327.311994 747.053333,328.496 C747.053333,328.544 747.057333,328.627999 747.065333,328.748 C747.073333,328.868001 747.077333,328.968 747.077333,329.048 L756.005333,327.44 C755.701332,326.463995 755.133337,325.668003 754.301333,325.052 C753.469329,324.435997 752.541338,324.136 751.517333,324.152 Z M768.546667,335 L768.546667,318.872 L774.018667,318.872 C775.826676,318.872 777.266661,319.347995 778.338667,320.3 C779.410672,321.252005 779.946667,322.447993 779.946667,323.888 C779.946667,324.960005 779.63067,325.911996 778.998667,326.744 C778.366663,327.576004 777.482672,328.167998 776.346667,328.52 L779.946667,335 L778.290667,335 L774.858667,328.856 L773.874667,328.904 L770.130667,328.904 L770.130667,335 L768.546667,335 Z M770.130667,327.392 L774.018667,327.392 C775.314673,327.392 776.354663,327.060003 777.138667,326.396 C777.92267,325.731997 778.314667,324.896005 778.314667,323.888 C778.314667,322.895995 777.92267,322.064003 777.138667,321.392 C776.354663,320.719997 775.314673,320.384 774.018667,320.384 L770.130667,320.384 L770.130667,327.392 Z M788.389333,333.608 C789.461339,333.608 790.421329,333.304003 791.269333,332.696 C792.117337,332.087997 792.693332,331.376004 792.997333,330.56 L794.341333,331.04 C793.973331,332.048005 793.257339,332.975996 792.193333,333.824 C791.129328,334.672004 789.861341,335.088 788.389333,335.072 C787.045326,335.072 785.817339,334.656004 784.705333,333.824 C783.593328,332.991996 782.837335,331.928006 782.437333,330.632 C782.277332,330.103997 782.197333,329.528003 782.197333,328.904 C782.197333,327.175991 782.797327,325.712006 783.997333,324.512 C785.197339,323.311994 786.661325,322.704 788.389333,322.688 C789.957341,322.704 791.325327,323.231995 792.493333,324.272 C793.661339,325.312005 794.333332,326.599992 794.509333,328.136 C794.525333,328.216 794.533333,328.319999 794.533333,328.448 L784.045333,330.344 C784.317335,331.304005 784.861329,332.091997 785.677333,332.708 C786.493337,333.324003 787.397328,333.624 788.389333,333.608 Z M788.245333,324.152 C787.045327,324.168 786.017337,324.599996 785.161333,325.448 C784.305329,326.296004 783.845334,327.311994 783.781333,328.496 C783.781333,328.544 783.785333,328.627999 783.793333,328.748 C783.801333,328.868001 783.805333,328.968 783.805333,329.048 L792.733333,327.44 C792.429332,326.463995 791.861337,325.668003 791.029333,325.052 C790.197329,324.435997 789.269338,324.136 788.245333,324.152 Z M801.656,335.192 C801.111997,335.192 800.584002,335.124001 800.072,334.988 C799.559997,334.851999 799.132002,334.692001 798.788,334.508 C798.443998,334.323999 798.136001,334.136001 797.864,333.944 C797.591999,333.751999 797.392001,333.592001 797.264,333.464 L797.072,333.248 L798.2,332.288 C798.312,332.400001 798.467999,332.535999 798.668,332.696 C798.868001,332.856001 799.271997,333.071999 799.88,333.344 C800.488003,333.616001 801.087997,333.752 801.68,333.752 C802.560004,333.752 803.263997,333.584002 803.792,333.248 C804.320003,332.911998 804.584,332.440003 804.584,331.832 C804.584,331.399998 804.320003,331.028002 803.792,330.716 C803.263997,330.403998 802.624004,330.136001 801.872,329.912 C801.119996,329.687999 800.364004,329.440001 799.604,329.168 C798.843996,328.895999 798.200003,328.512002 797.672,328.016 C797.143997,327.519998 796.88,326.912004 796.88,326.192 C796.88,325.199995 797.251996,324.388003 797.996,323.756 C798.740004,323.123997 799.839993,322.808 801.296,322.808 C802.160004,322.808 802.975996,322.967998 803.744,323.288 C804.512004,323.608002 805.063998,323.927998 805.4,324.248 L805.904,324.728 L804.776,325.712 C804.663999,325.599999 804.508001,325.464001 804.308,325.304 C804.107999,325.143999 803.704003,324.928001 803.096,324.656 C802.487997,324.383999 801.880003,324.248 801.272,324.248 C800.407996,324.248 799.708003,324.415998 799.172,324.752 C798.635997,325.088002 798.368,325.559997 798.368,326.168 C798.368,326.600002 798.631997,326.971998 799.16,327.284 C799.688003,327.596002 800.327996,327.863999 801.08,328.088 C801.832004,328.312001 802.587996,328.555999 803.348,328.82 C804.108004,329.084001 804.751997,329.467997 805.28,329.972 C805.808003,330.476003 806.072,331.087996 806.072,331.808 C806.072,332.816005 805.704004,333.631997 804.968,334.256 C804.231996,334.880003 803.128007,335.192 801.656,335.192 Z M815.762667,322.784 C817.474675,322.784 818.934661,323.387994 820.142667,324.596 C821.350673,325.804006 821.954667,327.263991 821.954667,328.976 C821.954667,330.688009 821.350673,332.147994 820.142667,333.356 C818.934661,334.564006 817.474675,335.168 815.762667,335.168 C813.842657,335.168 812.274673,334.440007 811.058667,332.984 L811.058667,340.832 L809.474667,340.832 L809.474667,322.976 L811.058667,322.976 L811.058667,324.944 C812.290673,323.503993 813.858657,322.784 815.762667,322.784 Z M812.450667,332.312 C813.346671,333.208004 814.43466,333.656 815.714667,333.656 C816.994673,333.656 818.086662,333.204005 818.990667,332.3 C819.894671,331.395995 820.346667,330.288007 820.346667,328.976 C820.346667,327.663993 819.894671,326.552005 818.990667,325.64 C818.086662,324.727995 816.994673,324.272 815.714667,324.272 C814.43466,324.272 813.346671,324.727995 812.450667,325.64 C811.554662,326.552005 811.106667,327.663993 811.106667,328.976 C811.106667,330.288007 811.554662,331.399995 812.450667,332.312 Z M834.933333,333.368 C833.733327,334.584006 832.277342,335.192 830.565333,335.192 C828.853325,335.192 827.393339,334.588006 826.185333,333.38 C824.977327,332.171994 824.373333,330.712009 824.373333,329 C824.373333,327.287991 824.977327,325.828006 826.185333,324.62 C827.393339,323.411994 828.853325,322.808 830.565333,322.808 C832.277342,322.808 833.737327,323.411994 834.945333,324.62 C836.153339,325.828006 836.757333,327.287991 836.757333,329 C836.757333,330.696008 836.149339,332.151994 834.933333,333.368 Z M830.589333,333.68 C831.88534,333.68 832.977329,333.228005 833.865333,332.324 C834.753338,331.419995 835.197333,330.312007 835.197333,329 C835.197333,327.687993 834.753338,326.576005 833.865333,325.664 C832.977329,324.751995 831.88534,324.296 830.589333,324.296 C829.309327,324.296 828.221338,324.751995 827.325333,325.664 C826.429329,326.576005 825.981333,327.687993 825.981333,329 C825.981333,330.312007 826.429329,331.419995 827.325333,332.324 C828.221338,333.228005 829.309327,333.68 830.589333,333.68 Z M845.224,322.808 C846.616007,322.808 847.783995,323.299995 848.728,324.284 C849.672005,325.268005 850.144,326.479993 850.144,327.92 L850.144,335 L848.536,335 L848.536,327.968 C848.536,326.943995 848.188003,326.072004 847.492,325.352 C846.795996,324.631996 845.952005,324.272 844.96,324.272 C843.967995,324.272 843.124003,324.631996 842.428,325.352 C841.731996,326.072004 841.384,326.943995 841.384,327.968 L841.384,335 L839.8,335 L839.8,323 L841.384,323 L841.384,324.776 C842.360005,323.463993 843.639992,322.808 845.224,322.808 Z M858.058667,335.192 C857.514664,335.192 856.986669,335.124001 856.474667,334.988 C855.962664,334.851999 855.534668,334.692001 855.190667,334.508 C854.846665,334.323999 854.538668,334.136001 854.266667,333.944 C853.994665,333.751999 853.794667,333.592001 853.666667,333.464 L853.474667,333.248 L854.602667,332.288 C854.714667,332.400001 854.870666,332.535999 855.070667,332.696 C855.270668,332.856001 855.674664,333.071999 856.282667,333.344 C856.89067,333.616001 857.490664,333.752 858.082667,333.752 C858.962671,333.752 859.666664,333.584002 860.194667,333.248 C860.722669,332.911998 860.986667,332.440003 860.986667,331.832 C860.986667,331.399998 860.722669,331.028002 860.194667,330.716 C859.666664,330.403998 859.02667,330.136001 858.274667,329.912 C857.522663,329.687999 856.76667,329.440001 856.006667,329.168 C855.246663,328.895999 854.602669,328.512002 854.074667,328.016 C853.546664,327.519998 853.282667,326.912004 853.282667,326.192 C853.282667,325.199995 853.654663,324.388003 854.398667,323.756 C855.14267,323.123997 856.242659,322.808 857.698667,322.808 C858.562671,322.808 859.378663,322.967998 860.146667,323.288 C860.91467,323.608002 861.466665,323.927998 861.802667,324.248 L862.306667,324.728 L861.178667,325.712 C861.066666,325.599999 860.910668,325.464001 860.710667,325.304 C860.510666,325.143999 860.10667,324.928001 859.498667,324.656 C858.890664,324.383999 858.28267,324.248 857.674667,324.248 C856.810662,324.248 856.110669,324.415998 855.574667,324.752 C855.038664,325.088002 854.770667,325.559997 854.770667,326.168 C854.770667,326.600002 855.034664,326.971998 855.562667,327.284 C856.090669,327.596002 856.730663,327.863999 857.482667,328.088 C858.23467,328.312001 858.990663,328.555999 859.750667,328.82 C860.51067,329.084001 861.154664,329.467997 861.682667,329.972 C862.210669,330.476003 862.474667,331.087996 862.474667,331.808 C862.474667,332.816005 862.10667,333.631997 861.370667,334.256 C860.634663,334.880003 859.530674,335.192 858.058667,335.192 Z M871.037333,333.608 C872.109339,333.608 873.069329,333.304003 873.917333,332.696 C874.765338,332.087997 875.341332,331.376004 875.645333,330.56 L876.989333,331.04 C876.621331,332.048005 875.905339,332.975996 874.841333,333.824 C873.777328,334.672004 872.509341,335.088 871.037333,335.072 C869.693327,335.072 868.465339,334.656004 867.353333,333.824 C866.241328,332.991996 865.485335,331.928006 865.085333,330.632 C864.925333,330.103997 864.845333,329.528003 864.845333,328.904 C864.845333,327.175991 865.445327,325.712006 866.645333,324.512 C867.845339,323.311994 869.309325,322.704 871.037333,322.688 C872.605341,322.704 873.973327,323.231995 875.141333,324.272 C876.309339,325.312005 876.981332,326.599992 877.157333,328.136 C877.173333,328.216 877.181333,328.319999 877.181333,328.448 L866.693333,330.344 C866.965335,331.304005 867.509329,332.091997 868.325333,332.708 C869.141337,333.324003 870.045328,333.624 871.037333,333.608 Z M870.893333,324.152 C869.693327,324.168 868.665338,324.599996 867.809333,325.448 C866.953329,326.296004 866.493334,327.311994 866.429333,328.496 C866.429333,328.544 866.433333,328.627999 866.441333,328.748 C866.449333,328.868001 866.453333,328.968 866.453333,329.048 L875.381333,327.44 C875.077332,326.463995 874.509337,325.668003 873.677333,325.052 C872.845329,324.435997 871.917338,324.136 870.893333,324.152 Z" id="Ohm’s-Law---Current-Copy" fill="#23ABE3"></path>
    </g>
</svg>