<?xml version="1.0" encoding="UTF-8"?>
<svg width="900px" height="370px" viewBox="0 0 900 370" version="1.1" xmlns="http://www.w3.org/2000/svg" xmlns:xlink="http://www.w3.org/1999/xlink">
    <!-- Generator: Sketch 52.5 (67469) - http://www.bohemiancoding.com/sketch -->
    <title>Ohms_Law_Behavior_Graph</title>
    <desc>Created with Sketch.</desc>
    <g id="Ohms_Law_Behavior_Graph" stroke="none" stroke-width="1" fill="none" fill-rule="evenodd">
        <rect id="Rectangle" stroke="#3D3530" stroke-width="2" fill="#EEEEEE" x="1" y="1" width="898" height="528"></rect>
        <g id="Illustration" transform="translate(112.000000, 22.000000)">
            <g id="Labels" transform="translate(171.000000, 0.000000)" fill="#524740">
                <path d="M14.832,16.736 L14.352,16.736 C14.2239994,16.1119969 13.9520021,15.6560014 13.536,15.368 C12.2239934,16.7280068 10.7360083,17.408 9.072,17.408 C7.03998984,17.408 5.3040072,16.6640074 3.864,15.176 C2.4239928,13.6879926 1.704,11.8960105 1.704,9.8 C1.704,7.70398952 2.4239928,5.91200744 3.864,4.424 C5.3040072,2.93599256 7.03998984,2.192 9.072,2.192 C10.7680085,2.192 12.2559936,2.8719932 13.536,4.232 C13.9680022,3.89599832 14.2399994,3.44000288 14.352,2.864 L14.832,2.864 L14.832,8.144 L14.352,8.144 C14.0159983,6.55999208 13.3960045,5.3280044 12.492,4.448 C11.5879955,3.5679956 10.4800066,3.128 9.168,3.128 C8.25599544,3.128 7.44800352,3.33199796 6.744,3.74 C6.03999648,4.14800204 5.49200196,4.68799664 5.1,5.36 C4.70799804,6.03200336 4.41600096,6.74399624 4.224,7.496 C4.03199904,8.24800376 3.936,9.01599608 3.936,9.8 C3.936,10.5840039 4.03199904,11.3519962 4.224,12.104 C4.41600096,12.8560038 4.70799804,13.5639967 5.1,14.228 C5.49200196,14.8920033 6.03999648,15.427998 6.744,15.836 C7.44800352,16.244002 8.25599544,16.448 9.168,16.448 C10.4800066,16.448 11.5879955,16.0040044 12.492,15.116 C13.3960045,14.2279956 14.0159983,13.0080078 14.352,11.456 L14.832,11.456 L14.832,16.736 Z M29.68,16.808 L26.464,17.408 C26.3359994,17.1519987 26.2080006,16.6400038 26.08,15.872 C25.087995,16.8960051 24.0400055,17.408 22.936,17.408 C20.9519901,17.408 19.96,16.208012 19.96,13.808 L19.96,12.296 C19.96,11.095994 19.8440012,10.3280017 19.612,9.992 C19.3799988,9.65599832 18.864004,9.488 18.064,9.488 L18.064,9.008 L21.664,9.008 L21.664,13.688 C21.664,15.4000086 22.2719939,16.256 23.488,16.256 C24.0320027,16.256 24.599997,16.0280023 25.192,15.572 C25.784003,15.1159977 26.08,14.5520034 26.08,13.88 L26.08,12.296 C26.08,11.095994 25.9640012,10.3280017 25.732,9.992 C25.4999988,9.65599832 24.9760041,9.488 24.16,9.488 L24.16,9.008 L27.76,9.008 L27.76,13.496 C27.76,14.696006 27.8759988,15.4639983 28.108,15.8 C28.3400012,16.1360017 28.8639959,16.304 29.68,16.304 L29.68,16.808 Z M40.064,10.088 C40.064,10.8400038 39.7440032,11.216 39.104,11.216 C38.8799989,11.216 38.6840008,11.1280009 38.516,10.952 C38.3479992,10.7759991 38.264,10.5760011 38.264,10.352 C38.264,9.82399736 38.0080026,9.56 37.496,9.56 C37.1279982,9.56 36.7280022,9.81599744 36.296,10.328 C35.8639978,10.8400026 35.648,11.5199958 35.648,12.368 L35.648,13.688 C35.648,14.888006 35.7639988,15.6559983 35.996,15.992 C36.2280012,16.3280017 36.743996,16.496 37.544,16.496 L37.544,17 L32.048,17 L32.048,16.496 C32.848004,16.496 33.3639988,16.3280017 33.596,15.992 C33.8280012,15.6559983 33.944,14.888006 33.944,13.688 L33.944,12.488 C33.944,11.3039941 33.8280012,10.5440017 33.596,10.208 C33.3639988,9.87199832 32.848004,9.704 32.048,9.704 L32.048,9.2 L35.24,8.6 C35.3840007,8.90400152 35.5199994,9.47999576 35.648,10.328 C35.8880012,9.8479976 36.2479976,9.44000168 36.728,9.104 C37.2080024,8.76799832 37.6879976,8.6 38.168,8.6 C38.776003,8.6 39.2439984,8.7599984 39.572,9.08 C39.9000016,9.4000016 40.064,9.73599824 40.064,10.088 Z M50.496,10.088 C50.496,10.8400038 50.1760032,11.216 49.536,11.216 C49.3119989,11.216 49.1160008,11.1280009 48.948,10.952 C48.7799992,10.7759991 48.696,10.5760011 48.696,10.352 C48.696,9.82399736 48.4400026,9.56 47.928,9.56 C47.5599982,9.56 47.1600022,9.81599744 46.728,10.328 C46.2959978,10.8400026 46.08,11.5199958 46.08,12.368 L46.08,13.688 C46.08,14.888006 46.1959988,15.6559983 46.428,15.992 C46.6600012,16.3280017 47.175996,16.496 47.976,16.496 L47.976,17 L42.48,17 L42.48,16.496 C43.280004,16.496 43.7959988,16.3280017 44.028,15.992 C44.2600012,15.6559983 44.376,14.888006 44.376,13.688 L44.376,12.488 C44.376,11.3039941 44.2600012,10.5440017 44.028,10.208 C43.7959988,9.87199832 43.280004,9.704 42.48,9.704 L42.48,9.2 L45.672,8.6 C45.8160007,8.90400152 45.9519994,9.47999576 46.08,10.328 C46.3200012,9.8479976 46.6799976,9.44000168 47.16,9.104 C47.6400024,8.76799832 48.1199976,8.6 48.6,8.6 C49.208003,8.6 49.6759984,8.7599984 50.004,9.08 C50.3320016,9.4000016 50.496,9.73599824 50.496,10.088 Z M54.808,11.504 L58.792,11.504 C58.9520008,11.0559978 58.8840015,10.6200021 58.588,10.196 C58.2919985,9.77199788 57.7840036,9.56 57.064,9.56 C56.5519974,9.56 56.092002,9.73599824 55.684,10.088 C55.275998,10.4400018 54.9840009,10.911997 54.808,11.504 Z M54.664,12.392 C54.5199993,13.5760059 54.7079974,14.5399963 55.228,15.284 C55.7480026,16.0280037 56.5999941,16.4 57.784,16.4 C58.184002,16.4 58.6399974,16.296001 59.152,16.088 C59.6640026,15.879999 60.0879983,15.6160016 60.424,15.296 L60.856,15.824 C60.4239978,16.2880023 59.8720034,16.6679985 59.2,16.964 C58.5279966,17.2600015 57.8560034,17.408 57.184,17.408 C55.8879935,17.408 54.8240042,16.9800043 53.992,16.124 C53.1599958,15.2679957 52.744,14.2240062 52.744,12.992 C52.744,11.7599938 53.1959955,10.7200042 54.1,9.872 C55.0040045,9.02399576 56.0319942,8.6 57.184,8.6 C58.2720054,8.6 59.1599966,8.9799962 59.848,9.74 C60.5360034,10.5000038 60.7360014,11.383995 60.448,12.392 L54.664,12.392 Z M67.232,10.328 C68.1440046,9.17599424 69.2559934,8.6 70.568,8.6 C71.6080052,8.6 72.3879974,8.92799672 72.908,9.584 C73.4280026,10.2400033 73.688,11.1039946 73.688,12.176 L73.688,13.688 C73.688,14.888006 73.8039988,15.6559983 74.036,15.992 C74.2680012,16.3280017 74.783996,16.496 75.584,16.496 L75.584,17 L70.088,17 L70.088,16.496 C70.8720039,16.496 71.3839988,16.3240017 71.624,15.98 C71.8640012,15.6359983 71.984,14.8720059 71.984,13.688 L71.984,12.296 C71.984,10.5839914 71.3200066,9.728 69.992,9.728 C69.3039966,9.728 68.6720029,9.9679976 68.096,10.448 C67.5199971,10.9280024 67.232,11.4879968 67.232,12.128 L67.232,13.688 C67.232,14.9200062 67.327999,15.6959984 67.52,16.016 C67.712001,16.3360016 68.1759963,16.496 68.912,16.496 L68.912,17 L63.632,17 L63.632,16.496 C64.432004,16.496 64.9479988,16.3280017 65.18,15.992 C65.4120012,15.6559983 65.528,14.888006 65.528,13.688 L65.528,12.488 C65.528,11.3039941 65.4120012,10.5440017 65.18,10.208 C64.9479988,9.87199832 64.432004,9.704 63.632,9.704 L63.632,9.2 L66.824,8.6 C66.9680007,8.90400152 67.1039994,9.47999576 67.232,10.328 Z M78.96,9.848 L77.712,9.848 L77.712,9.272 C78.4000034,9.12799928 78.9039984,8.8160024 79.224,8.336 C79.5440016,7.8559976 79.7519995,7.20000416 79.848,6.368 L80.664,6.368 L80.664,9.008 L82.752,9.008 L82.752,9.848 L80.664,9.848 L80.664,14.648 C80.664,15.8000058 81.0239964,16.376 81.744,16.376 C82.2080023,16.376 82.7279971,16.1040027 83.304,15.56 L83.712,15.968 C83.3759983,16.368002 82.9720024,16.6959987 82.5,16.952 C82.0279976,17.2080013 81.592002,17.336 81.192,17.336 C80.5039966,17.336 79.960002,17.1120022 79.56,16.664 C79.159998,16.2159978 78.96,15.5440045 78.96,14.648 L78.96,9.848 Z" id="Current-Copy"></path>
                <path d="M263.696,185.104 C262.751995,185.104 262.140001,185.219999 261.86,185.452 C261.579999,185.684001 261.240002,186.263995 260.84,187.192 L255.56,199.408 L255.248,199.408 L249.944,187.192 C249.543998,186.263995 249.204001,185.684001 248.924,185.452 C248.643999,185.219999 248.032005,185.104 247.088,185.104 L247.088,184.6 L253.736,184.6 L253.736,185.104 C252.743995,185.104 252.108001,185.243999 251.828,185.524 C251.547999,185.804001 251.559998,186.271997 251.864,186.928 L255.944,196.264 L259.976,186.928 C260.280002,186.271997 260.292001,185.804001 260.012,185.524 C259.731999,185.243999 259.096005,185.104 258.104,185.104 L258.104,184.6 L263.696,184.6 L263.696,185.104 Z M271.824,191.896 C272.784005,192.744004 273.264,193.775994 273.264,194.992 C273.264,196.208006 272.788005,197.247996 271.836,198.112 C270.883995,198.976004 269.744007,199.408 268.416,199.408 C267.087993,199.408 265.948005,198.976004 264.996,198.112 C264.043995,197.247996 263.568,196.208006 263.568,194.992 C263.568,193.775994 264.043995,192.740004 264.996,191.884 C265.948005,191.027996 267.087993,190.6 268.416,190.6 C269.744007,190.6 270.879995,191.031996 271.824,191.896 Z M270.576,197.512 C271.072002,196.855997 271.32,196.016005 271.32,194.992 C271.32,193.967995 271.072002,193.132003 270.576,192.484 C270.079998,191.835997 269.360005,191.512 268.416,191.512 C267.471995,191.512 266.752002,191.839997 266.256,192.496 C265.759998,193.152003 265.512,193.983995 265.512,194.992 C265.512,196.000005 265.759998,196.831997 266.256,197.488 C266.752002,198.144003 267.471995,198.472 268.416,198.472 C269.360005,198.472 270.079998,198.152003 270.576,197.512 Z M281.368,199 L275.872,199 L275.872,198.496 C276.672004,198.496 277.187999,198.328002 277.42,197.992 C277.652001,197.655998 277.768,196.888006 277.768,195.688 L277.768,188.104 C277.768,186.903994 277.652001,186.136002 277.42,185.8 C277.187999,185.463998 276.672004,185.296 275.872,185.296 L275.872,184.792 L279.472,184.192 L279.472,195.688 C279.472,196.888006 279.587999,197.655998 279.82,197.992 C280.052001,198.328002 280.567996,198.496 281.368,198.496 L281.368,199 Z M284.768,191.848 L283.52,191.848 L283.52,191.272 C284.208003,191.127999 284.711998,190.816002 285.032,190.336 C285.352002,189.855998 285.56,189.200004 285.656,188.368 L286.472,188.368 L286.472,191.008 L288.56,191.008 L288.56,191.848 L286.472,191.848 L286.472,196.648 C286.472,197.800006 286.831996,198.376 287.552,198.376 C288.016002,198.376 288.535997,198.104003 289.112,197.56 L289.52,197.968 C289.183998,198.368002 288.780002,198.695999 288.308,198.952 C287.835998,199.208001 287.400002,199.336 287,199.336 C286.311997,199.336 285.768002,199.112002 285.368,198.664 C284.967998,198.215998 284.768,197.544004 284.768,196.648 L284.768,191.848 Z M300.216,198.52 C299.751998,199.016002 299.224003,199.264 298.632,199.264 C297.671995,199.264 297.128001,198.800005 297,197.872 C295.927995,198.832005 294.928005,199.312 294,199.312 C293.391997,199.312 292.880002,199.132002 292.464,198.772 C292.047998,198.411998 291.84,197.920003 291.84,197.296 C291.84,195.615992 293.543983,194.480003 296.952,193.888 C296.952,192.943995 296.848001,192.288002 296.64,191.92 C296.431999,191.551998 296.000003,191.368 295.344,191.368 C295.023998,191.368 294.716001,191.471999 294.42,191.68 C294.123999,191.888001 293.976,192.167998 293.976,192.52 C293.976,192.760001 293.896001,192.959999 293.736,193.12 C293.575999,193.280001 293.384001,193.36 293.16,193.36 C292.919999,193.36 292.720001,193.280001 292.56,193.12 C292.399999,192.959999 292.32,192.760001 292.32,192.52 C292.32,191.959997 292.627997,191.500002 293.244,191.14 C293.860003,190.779998 294.567996,190.6 295.368,190.6 C296.536006,190.6 297.375997,190.855997 297.888,191.368 C298.400003,191.880003 298.656,192.711994 298.656,193.864 L298.656,197.488 C298.656,198.112003 298.839998,198.424 299.208,198.424 C299.416001,198.424 299.639999,198.304001 299.88,198.064 L300.216,198.52 Z M296.952,197.08 L296.952,194.632 C294.743989,195.144003 293.64,195.935995 293.64,197.008 C293.64,197.376002 293.747999,197.671999 293.964,197.896 C294.180001,198.120001 294.447998,198.232 294.768,198.232 C295.360003,198.232 296.087996,197.848004 296.952,197.08 Z M307.456,195.664 C307.760002,195.199998 307.912,194.600004 307.912,193.864 C307.912,193.127996 307.764001,192.528002 307.468,192.064 C307.171999,191.599998 306.744003,191.368 306.184,191.368 C305.623997,191.368 305.192002,191.599998 304.888,192.064 C304.583998,192.528002 304.432,193.127996 304.432,193.864 C304.432,194.600004 304.583998,195.195998 304.888,195.652 C305.192002,196.108002 305.623997,196.336 306.184,196.336 C306.744003,196.336 307.167999,196.112002 307.456,195.664 Z M303.952,198.136 C303.952,198.616002 304.679993,198.919999 306.136,199.048 C307.672008,199.176001 308.783997,199.527997 309.472,200.104 C310.160003,200.680003 310.504,201.375996 310.504,202.192 C310.504,203.168005 310.100004,203.947997 309.292,204.532 C308.483996,205.116003 307.472006,205.408 306.256,205.408 C304.959994,205.408 303.916004,205.140003 303.124,204.604 C302.331996,204.067997 301.968,203.440004 302.032,202.72 C302.096,201.999996 302.607995,201.392002 303.568,200.896 L304,201.16 C303.535998,201.688003 303.288,202.171998 303.256,202.612 C303.224,203.052002 303.363998,203.399999 303.676,203.656 C303.988002,203.912001 304.371998,204.111999 304.828,204.256 C305.284002,204.400001 305.759998,204.472 306.256,204.472 C307.040004,204.472 307.731997,204.300002 308.332,203.956 C308.932003,203.611998 309.232,203.168003 309.232,202.624 C309.232,202.095997 308.972003,201.712001 308.452,201.472 C307.931997,201.231999 307.120006,201.056001 306.016,200.944 C303.743989,200.719999 302.608,199.976006 302.608,198.712 C302.608,197.847996 303.279993,197.208002 304.624,196.792 C303.999997,196.503999 303.508002,196.104003 303.148,195.592 C302.787998,195.079997 302.608,194.504003 302.608,193.864 C302.608,192.967996 302.955997,192.200003 303.652,191.56 C304.348003,190.919997 305.191995,190.6 306.184,190.6 C307.144005,190.6 307.967997,190.903997 308.656,191.512 C308.864001,191.255999 309.147998,191.040001 309.508,190.864 C309.868002,190.687999 310.183999,190.6 310.456,190.6 C311.160004,190.6 311.607999,190.895997 311.8,191.488 C311.944001,191.936002 311.872001,192.271999 311.584,192.496 C311.488,192.576 311.376001,192.616 311.248,192.616 C311.007999,192.632 310.828001,192.584001 310.708,192.472 C310.587999,192.359999 310.516,192.236001 310.492,192.1 C310.468,191.963999 310.404001,191.836001 310.3,191.716 C310.195999,191.595999 310.032001,191.536 309.808,191.536 C309.567999,191.536 309.320001,191.663999 309.064,191.92 C309.528002,192.480003 309.76,193.127996 309.76,193.864 C309.76,194.712004 309.448003,195.439997 308.824,196.048 C308.199997,196.656003 307.472004,197.015999 306.64,197.128 C304.847991,197.336001 303.952,197.671998 303.952,198.136 Z M315.968,193.504 L319.952,193.504 C320.112001,193.055998 320.044001,192.620002 319.748,192.196 C319.451999,191.771998 318.944004,191.56 318.224,191.56 C317.711997,191.56 317.252002,191.735998 316.844,192.088 C316.435998,192.440002 316.144001,192.911997 315.968,193.504 Z M315.824,194.392 C315.679999,195.576006 315.867997,196.539996 316.388,197.284 C316.908003,198.028004 317.759994,198.4 318.944,198.4 C319.344002,198.4 319.799997,198.296001 320.312,198.088 C320.824003,197.879999 321.247998,197.616002 321.584,197.296 L322.016,197.824 C321.583998,198.288002 321.032003,198.667999 320.36,198.964 C319.687997,199.260001 319.016003,199.408 318.344,199.408 C317.047994,199.408 315.984004,198.980004 315.152,198.124 C314.319996,197.267996 313.904,196.224006 313.904,194.992 C313.904,193.759994 314.355995,192.720004 315.26,191.872 C316.164005,191.023996 317.191994,190.6 318.344,190.6 C319.432005,190.6 320.319997,190.979996 321.008,191.74 C321.696003,192.500004 321.896001,193.383995 321.608,194.392 L315.824,194.392 Z" id="Voltage-Copy"></path>
            </g>
            <g id="Graph-Lines" transform="translate(0.000000, 30.000000)">
                <path d="M187.634457,182.5 L392.521,182.5" id="Line-5" stroke="#3D3530" stroke-width="3" stroke-linecap="square"></path>
                <path d="M357.444444,8.44444444 L357.444444,0 L359.555556,0 L359.555556,8.44444444 L368,8.44444444 L368,10.5555556 L359.555556,10.5555556 L359.555556,19 L357.444444,19 L357.444444,10.5555556 L349,10.5555556 L349,8.44444444 L357.444444,8.44444444 Z" id="Combined-Shape" fill="#23ABE3"></path>
                <path d="M213.352001,6 L213.352001,237.912015" id="Line-6" stroke="#3D3530" stroke-width="3" stroke-linecap="square"></path>
                <path d="M392.521,6 L212.982714,181" id="Path-9" stroke="#EF7D3B" stroke-width="3"></path>
            </g>
        </g>
        <path d="M136.676,343.76 C134.58799,346.112012 131.768018,347.288 128.216,347.288 C124.663982,347.288 121.83801,346.112012 119.738,343.76 C117.637989,341.407988 116.588,338.468018 116.588,334.94 C116.588,331.411982 117.637989,328.466012 119.738,326.102 C121.83801,323.737988 124.663982,322.556 128.216,322.556 C131.768018,322.556 134.58799,323.737988 136.676,326.102 C138.76401,328.466012 139.808,331.411982 139.808,334.94 C139.808,338.468018 138.76401,341.407988 136.676,343.76 Z M121.628,342.176 C123.284008,344.09601 125.479986,345.056 128.216,345.056 C130.952014,345.056 133.153992,344.09001 134.822,342.158 C136.490008,340.22599 137.324,337.820014 137.324,334.94 C137.324,332.035985 136.490008,329.62401 134.822,327.704 C133.153992,325.78399 130.952014,324.824 128.216,324.824 C125.479986,324.824 123.284008,325.78399 121.628,327.704 C119.971992,329.62401 119.144,332.035985 119.144,334.94 C119.144,337.844015 119.971992,340.25599 121.628,342.176 Z M152.796,328.712 C154.88401,328.712 156.635993,329.461993 158.052,330.962 C159.468007,332.462008 160.176,334.291989 160.176,336.452 L160.176,347 L157.764,347 L157.764,336.488 C157.764,334.927992 157.248005,333.614005 156.216,332.546 C155.183995,331.477995 153.912008,330.944 152.4,330.944 C150.911993,330.944 149.646005,331.477995 148.602,332.546 C147.557995,333.614005 147.036,334.915992 147.036,336.452 L147.036,347 L144.66,347 L144.66,320.216 L147.036,320.216 L147.036,331.664 C148.500007,329.69599 150.419988,328.712 152.796,328.712 Z M187.024,328.712 C189.11201,328.712 190.863993,329.449993 192.28,330.926 C193.696007,332.402007 194.404,334.219989 194.404,336.38 L194.404,347 L191.956,347 L191.956,336.452 C191.956,334.891992 191.446005,333.578005 190.426,332.51 C189.405995,331.441995 188.140008,330.908 186.628,330.908 C185.115992,330.908 183.844005,331.441995 182.812,332.51 C181.779995,333.578005 181.264,334.891992 181.264,336.452 L181.264,347 L178.852,347 L178.852,336.452 C178.852,334.915992 178.330005,333.608005 177.286,332.528 C176.241995,331.447995 174.976007,330.908 173.488,330.908 C171.999993,330.908 170.734005,331.447995 169.69,332.528 C168.645995,333.608005 168.124,334.915992 168.124,336.452 L168.124,347 L165.748,347 L165.748,329 L168.124,329 L168.124,331.664 C169.588007,329.69599 171.507988,328.712 173.884,328.712 C175.252007,328.712 176.505994,329.059997 177.646,329.756 C178.786006,330.452003 179.679997,331.387994 180.328,332.564 C180.952003,331.387994 181.851994,330.452003 183.028,329.756 C184.204006,329.059997 185.535993,328.712 187.024,328.712 Z M197.636,328.604 L199.256,322.844 L201.74,322.844 L199.616,328.604 L197.636,328.604 Z M210.228,347.288 C209.411996,347.288 208.620004,347.186001 207.852,346.982 C207.083996,346.777999 206.442003,346.538001 205.926,346.262 C205.409997,345.985999 204.948002,345.704001 204.54,345.416 C204.131998,345.127999 203.832001,344.888001 203.64,344.696 L203.352,344.372 L205.044,342.932 C205.212001,343.100001 205.445998,343.303999 205.746,343.544 C206.046001,343.784001 206.651995,344.107998 207.564,344.516 C208.476005,344.924002 209.375996,345.128 210.264,345.128 C211.584007,345.128 212.639996,344.876003 213.432,344.372 C214.224004,343.867997 214.62,343.160005 214.62,342.248 C214.62,341.599997 214.224004,341.042002 213.432,340.574 C212.639996,340.105998 211.680006,339.704002 210.552,339.368 C209.423994,339.031998 208.290006,338.660002 207.15,338.252 C206.009994,337.843998 205.044004,337.268004 204.252,336.524 C203.459996,335.779996 203.064,334.868005 203.064,333.788 C203.064,332.299993 203.621994,331.082005 204.738,330.134 C205.854006,329.185995 207.503989,328.712 209.688,328.712 C210.984006,328.712 212.207994,328.951998 213.36,329.432 C214.512006,329.912002 215.339997,330.391998 215.844,330.872 L216.6,331.592 L214.908,333.068 C214.739999,332.899999 214.506001,332.696001 214.206,332.456 C213.905998,332.215999 213.300005,331.892002 212.388,331.484 C211.475995,331.075998 210.564005,330.872 209.652,330.872 C208.355994,330.872 207.306004,331.123997 206.502,331.628 C205.697996,332.132003 205.296,332.839995 205.296,333.752 C205.296,334.400003 205.691996,334.957998 206.484,335.426 C207.276004,335.894002 208.235994,336.295998 209.364,336.632 C210.492006,336.968002 211.625994,337.333998 212.766,337.73 C213.906006,338.126002 214.871996,338.701996 215.664,339.458 C216.456004,340.214004 216.852,341.131995 216.852,342.212 C216.852,343.724008 216.300006,344.947995 215.196,345.884 C214.091994,346.820005 212.436011,347.288 210.228,347.288 Z M235.088,344.624 L246.104,344.624 L246.104,347 L232.712,347 L232.712,322.808 L235.088,322.808 L235.088,344.624 Z M265.068,329 L267.444,329 L267.444,347 L265.068,347 L265.068,344.084 C263.219991,346.220011 260.880014,347.288 258.048,347.288 C255.479987,347.288 253.290009,346.382009 251.478,344.57 C249.665991,342.757991 248.76,340.568013 248.76,338 C248.76,335.431987 249.665991,333.242009 251.478,331.43 C253.290009,329.617991 255.479987,328.712 258.048,328.712 C260.904014,328.712 263.243991,329.779989 265.068,331.916 L265.068,329 Z M258.084,345.02 C260.02801,345.02 261.665993,344.342007 262.998,342.986 C264.330007,341.629993 264.996,339.96801 264.996,338 C264.996,336.03199 264.330007,334.370007 262.998,333.014 C261.665993,331.657993 260.02801,330.98 258.084,330.98 C256.16399,330.98 254.526007,331.657993 253.17,333.014 C251.813993,334.370007 251.136,336.03199 251.136,338 C251.136,339.96801 251.813993,341.629993 253.17,342.986 C254.526007,344.342007 256.16399,345.02 258.084,345.02 Z M296.38,329 L298.756,329 L292.384,347 L290.008,347 L284.932,332.168 L279.856,347 L277.48,347 L271.144,329 L273.52,329 L278.668,343.652 L283.852,329 L286.012,329 L291.196,343.652 L296.38,329 Z M323.004,335.984 L313.32,335.984 L313.32,333.824 L323.004,333.824 L323.004,335.984 Z M349.808,347.288 C346.255982,347.288 343.424011,346.106012 341.312,343.742 C339.199989,341.377988 338.144,338.444018 338.144,334.94 C338.144,331.411982 339.199989,328.466012 341.312,326.102 C343.424011,323.737988 346.255982,322.556 349.808,322.556 C352.160012,322.556 354.205991,323.095995 355.946,324.176 C357.686009,325.256005 359.035995,326.731991 359.996,328.604 L357.764,329.9 C356.995996,328.339992 355.922007,327.104005 354.542,326.192 C353.161993,325.279995 351.584009,324.824 349.808,324.824 C347.071986,324.824 344.882008,325.77799 343.238,327.686 C341.593992,329.59401 340.772,332.011985 340.772,334.94 C340.772,337.844015 341.593992,340.25599 343.238,342.176 C344.882008,344.09601 347.071986,345.056 349.808,345.056 C351.608009,345.056 353.197993,344.594005 354.578,343.67 C355.958007,342.745995 357.019996,341.504008 357.764,339.944 L359.996,341.276 C359.035995,343.148009 357.686009,344.617995 355.946,345.686 C354.205991,346.754005 352.160012,347.288 349.808,347.288 Z M378.168,329 L380.544,329 L380.544,347 L378.168,347 L378.168,344.336 C376.703993,346.30401 374.784012,347.288 372.408,347.288 C370.31999,347.288 368.568007,346.550007 367.152,345.074 C365.735993,343.597993 365.028,341.780011 365.028,339.62 L365.028,329 L367.476,329 L367.476,339.548 C367.476,341.084008 367.991995,342.385995 369.024,343.454 C370.056005,344.522005 371.315993,345.056 372.804,345.056 C374.316008,345.056 375.587995,344.522005 376.62,343.454 C377.652005,342.385995 378.168,341.084008 378.168,339.548 L378.168,329 Z M394.612,328.712 C395.884006,328.712 397.047995,329.023997 398.104,329.648 L397.276,332.024 C396.267995,331.279996 395.248005,330.908 394.216,330.908 C392.703992,330.908 391.432005,331.441995 390.4,332.51 C389.367995,333.578005 388.852,334.891992 388.852,336.452 L388.852,347 L386.476,347 L386.476,329 L388.852,329 L388.852,331.664 C390.316007,329.69599 392.235988,328.712 394.612,328.712 Z M410.444,328.712 C411.716006,328.712 412.879995,329.023997 413.936,329.648 L413.108,332.024 C412.099995,331.279996 411.080005,330.908 410.048,330.908 C408.535992,330.908 407.264005,331.441995 406.232,332.51 C405.199995,333.578005 404.684,334.891992 404.684,336.452 L404.684,347 L402.308,347 L402.308,329 L404.684,329 L404.684,331.664 C406.148007,329.69599 408.067988,328.712 410.444,328.712 Z M424.908,344.912 C426.516008,344.912 427.955994,344.456005 429.228,343.544 C430.500006,342.631995 431.363998,341.564006 431.82,340.34 L433.836,341.06 C433.283997,342.572008 432.210008,343.963994 430.614,345.236 C429.017992,346.508006 427.116011,347.132 424.908,347.108 C422.89199,347.108 421.050008,346.484006 419.382,345.236 C417.713992,343.987994 416.580003,342.39201 415.98,340.448 C415.739999,339.655996 415.62,338.792005 415.62,337.856 C415.62,335.263987 416.519991,333.068009 418.32,331.268 C420.120009,329.467991 422.315987,328.556 424.908,328.532 C427.260012,328.556 429.311991,329.347992 431.064,330.908 C432.816009,332.468008 433.823999,334.399988 434.088,336.704 C434.112,336.824001 434.124,336.979999 434.124,337.172 L418.392,340.016 C418.800002,341.456007 419.615994,342.637995 420.84,343.562 C422.064006,344.486005 423.419993,344.936 424.908,344.912 Z M424.692,330.728 C422.891991,330.752 421.350006,331.399994 420.066,332.672 C418.781994,333.944006 418.092,335.467991 417.996,337.244 C417.996,337.316 418.002,337.441999 418.014,337.622 C418.026,337.802001 418.032,337.951999 418.032,338.072 L431.424,335.66 C430.967998,334.195993 430.116006,333.002005 428.868,332.078 C427.619994,331.153995 426.228008,330.704 424.692,330.728 Z M446.644,328.712 C448.73201,328.712 450.483993,329.449993 451.9,330.926 C453.316007,332.402007 454.024,334.219989 454.024,336.38 L454.024,347 L451.612,347 L451.612,336.452 C451.612,334.915992 451.090005,333.608005 450.046,332.528 C449.001995,331.447995 447.736007,330.908 446.248,330.908 C444.759993,330.908 443.494005,331.447995 442.45,332.528 C441.405995,333.608005 440.884,334.915992 440.884,336.452 L440.884,347 L438.508,347 L438.508,329 L440.884,329 L440.884,331.664 C442.348007,329.69599 444.267988,328.712 446.644,328.712 Z M469.46,342.968 L470.648,344.804 C470.503999,344.996001 470.312001,345.223999 470.072,345.488 C469.831999,345.752001 469.292004,346.117998 468.452,346.586 C467.611996,347.054002 466.748004,347.288 465.86,347.288 C464.347992,347.288 463.082005,346.838005 462.062,345.938 C461.041995,345.037996 460.532,343.736009 460.532,342.032 L460.532,331.16 L457.652,331.16 L457.652,328.964 L460.532,328.964 L460.532,323.276 L462.908,322.988 L462.908,328.964 L468.344,328.964 L468.344,331.16 L462.908,331.16 L462.908,341.492 C462.908,342.596006 463.249997,343.471997 463.934,344.12 C464.618003,344.768003 465.403996,345.092 466.292,345.092 C466.844003,345.092 467.383997,344.924002 467.912,344.588 C468.440003,344.251998 468.829999,343.922002 469.082,343.598 C469.334001,343.273998 469.46,343.064 469.46,342.968 Z M501.736,329 L504.112,329 L504.112,347 L501.736,347 L501.736,344.084 C499.887991,346.220011 497.548014,347.288 494.716,347.288 C492.147987,347.288 489.958009,346.382009 488.146,344.57 C486.333991,342.757991 485.428,340.568013 485.428,338 C485.428,335.431987 486.333991,333.242009 488.146,331.43 C489.958009,329.617991 492.147987,328.712 494.716,328.712 C497.572014,328.712 499.911991,329.779989 501.736,331.916 L501.736,329 Z M494.752,345.02 C496.69601,345.02 498.333993,344.342007 499.666,342.986 C500.998007,341.629993 501.664,339.96801 501.664,338 C501.664,336.03199 500.998007,334.370007 499.666,333.014 C498.333993,331.657993 496.69601,330.98 494.752,330.98 C492.83199,330.98 491.194007,331.657993 489.838,333.014 C488.481993,334.370007 487.804,336.03199 487.804,338 C487.804,339.96801 488.481993,341.629993 489.838,342.986 C491.194007,344.342007 492.83199,345.02 494.752,345.02 Z M518.108,328.712 C520.19601,328.712 521.947993,329.449993 523.364,330.926 C524.780007,332.402007 525.488,334.219989 525.488,336.38 L525.488,347 L523.076,347 L523.076,336.452 C523.076,334.915992 522.554005,333.608005 521.51,332.528 C520.465995,331.447995 519.200007,330.908 517.712,330.908 C516.223993,330.908 514.958005,331.447995 513.914,332.528 C512.869995,333.608005 512.348,334.915992 512.348,336.452 L512.348,347 L509.972,347 L509.972,329 L512.348,329 L512.348,331.664 C513.812007,329.69599 515.731988,328.712 518.108,328.712 Z M546.18,320.216 L548.556,320.216 L548.556,347 L546.18,347 L546.18,344.084 C544.331991,346.220011 541.992014,347.288 539.16,347.288 C536.591987,347.288 534.402009,346.382009 532.59,344.57 C530.777991,342.757991 529.872,340.568013 529.872,338 C529.872,335.431987 530.777991,333.242009 532.59,331.43 C534.402009,329.617991 536.591987,328.712 539.16,328.712 C542.016014,328.712 544.355991,329.779989 546.18,331.916 L546.18,320.216 Z M534.264,343.004 C535.608007,344.348007 537.25199,345.02 539.196,345.02 C541.14001,345.02 542.777993,344.342007 544.11,342.986 C545.442007,341.629993 546.108,339.96801 546.108,338 C546.108,336.03199 545.442007,334.370007 544.11,333.014 C542.777993,331.657993 541.14001,330.98 539.196,330.98 C537.25199,330.98 535.608007,331.657993 534.264,333.014 C532.919993,334.370007 532.248,336.03199 532.248,338 C532.248,339.96801 532.919993,341.635993 534.264,343.004 Z M583.388,322.808 L585.8,322.808 L576.26,347 L573.848,347 L564.272,322.808 L566.72,322.808 L575.072,343.94 L583.388,322.808 Z M601.848,344.552 C600.047991,346.376009 597.864013,347.288 595.296,347.288 C592.727987,347.288 590.538009,346.382009 588.726,344.57 C586.913991,342.757991 586.008,340.568013 586.008,338 C586.008,335.431987 586.913991,333.242009 588.726,331.43 C590.538009,329.617991 592.727987,328.712 595.296,328.712 C597.864013,328.712 600.053991,329.617991 601.866,331.43 C603.678009,333.242009 604.584,335.431987 604.584,338 C604.584,340.544013 603.672009,342.727991 601.848,344.552 Z M595.332,345.02 C597.27601,345.02 598.913993,344.342007 600.246,342.986 C601.578007,341.629993 602.244,339.96801 602.244,338 C602.244,336.03199 601.578007,334.364007 600.246,332.996 C598.913993,331.627993 597.27601,330.944 595.332,330.944 C593.41199,330.944 591.780007,331.627993 590.436,332.996 C589.091993,334.364007 588.42,336.03199 588.42,338 C588.42,339.96801 589.091993,341.629993 590.436,342.986 C591.780007,344.342007 593.41199,345.02 595.332,345.02 Z M609.508,347 L609.508,320.216 L611.884,320.216 L611.884,347 L609.508,347 Z M628.112,342.968 L629.3,344.804 C629.155999,344.996001 628.964001,345.223999 628.724,345.488 C628.483999,345.752001 627.944004,346.117998 627.104,346.586 C626.263996,347.054002 625.400004,347.288 624.512,347.288 C622.999992,347.288 621.734005,346.838005 620.714,345.938 C619.693995,345.037996 619.184,343.736009 619.184,342.032 L619.184,331.16 L616.304,331.16 L616.304,328.964 L619.184,328.964 L619.184,323.276 L621.56,322.988 L621.56,328.964 L626.996,328.964 L626.996,331.16 L621.56,331.16 L621.56,341.492 C621.56,342.596006 621.901997,343.471997 622.586,344.12 C623.270003,344.768003 624.055996,345.092 624.944,345.092 C625.496003,345.092 626.035997,344.924002 626.564,344.588 C627.092003,344.251998 627.481999,343.922002 627.734,343.598 C627.986001,343.273998 628.112,343.064 628.112,342.968 Z M647.796,329 L650.172,329 L650.172,347 L647.796,347 L647.796,344.084 C645.947991,346.220011 643.608014,347.288 640.776,347.288 C638.207987,347.288 636.018009,346.382009 634.206,344.57 C632.393991,342.757991 631.488,340.568013 631.488,338 C631.488,335.431987 632.393991,333.242009 634.206,331.43 C636.018009,329.617991 638.207987,328.712 640.776,328.712 C643.632014,328.712 645.971991,329.779989 647.796,331.916 L647.796,329 Z M640.812,345.02 C642.75601,345.02 644.393993,344.342007 645.726,342.986 C647.058007,341.629993 647.724,339.96801 647.724,338 C647.724,336.03199 647.058007,334.370007 645.726,333.014 C644.393993,331.657993 642.75601,330.98 640.812,330.98 C638.89199,330.98 637.254007,331.657993 635.898,333.014 C634.541993,334.370007 633.864,336.03199 633.864,338 C633.864,339.96801 634.541993,341.629993 635.898,342.986 C637.254007,344.342007 638.89199,345.02 640.812,345.02 Z M671.368,329.036 L673.78,329.036 L673.78,345.452 C673.756,348.068013 672.814009,350.257991 670.954,352.022 C669.093991,353.786009 666.940012,354.668 664.492,354.668 C662.259989,354.668 660.358008,354.074006 658.786,352.886 C657.213992,351.697994 656.152003,350.360007 655.6,348.872 L657.544,347.9 C658.000002,349.124006 658.863994,350.191995 660.136,351.104 C661.408006,352.016005 662.859992,352.472 664.492,352.472 C666.41201,352.472 668.037993,351.770007 669.37,350.366 C670.702007,348.961993 671.38,347.324009 671.404,345.452 L671.368,345.452 L671.368,344.12 C669.543991,346.256011 667.204014,347.324 664.348,347.324 C661.779987,347.324 659.590009,346.418009 657.778,344.606 C655.965991,342.793991 655.06,340.604013 655.06,338.036 C655.06,335.467987 655.965991,333.278009 657.778,331.466 C659.590009,329.653991 661.779987,328.748 664.348,328.748 C667.180014,328.748 669.519991,329.815989 671.368,331.952 L671.368,329.036 Z M664.384,345.092 C666.32801,345.092 667.965993,344.414007 669.298,343.058 C670.630007,341.701993 671.296,340.04001 671.296,338.072 C671.296,336.10399 670.630007,334.442007 669.298,333.086 C667.965993,331.729993 666.32801,331.052 664.384,331.052 C662.46399,331.052 660.832007,331.729993 659.488,333.086 C658.143993,334.442007 657.472,336.10399 657.472,338.072 C657.472,340.04001 658.143993,341.701993 659.488,343.058 C660.832007,344.414007 662.46399,345.092 664.384,345.092 Z M687.992,344.912 C689.600008,344.912 691.039994,344.456005 692.312,343.544 C693.584006,342.631995 694.447998,341.564006 694.904,340.34 L696.92,341.06 C696.367997,342.572008 695.294008,343.963994 693.698,345.236 C692.101992,346.508006 690.200011,347.132 687.992,347.108 C685.97599,347.108 684.134008,346.484006 682.466,345.236 C680.797992,343.987994 679.664003,342.39201 679.064,340.448 C678.823999,339.655996 678.704,338.792005 678.704,337.856 C678.704,335.263987 679.603991,333.068009 681.404,331.268 C683.204009,329.467991 685.399987,328.556 687.992,328.532 C690.344012,328.556 692.395991,329.347992 694.148,330.908 C695.900009,332.468008 696.907999,334.399988 697.172,336.704 C697.196,336.824001 697.208,336.979999 697.208,337.172 L681.476,340.016 C681.884002,341.456007 682.699994,342.637995 683.924,343.562 C685.148006,344.486005 686.503993,344.936 687.992,344.912 Z M687.776,330.728 C685.975991,330.752 684.434006,331.399994 683.15,332.672 C681.865994,333.944006 681.176,335.467991 681.08,337.244 C681.08,337.316 681.086,337.441999 681.098,337.622 C681.11,337.802001 681.116,337.951999 681.116,338.072 L694.508,335.66 C694.051998,334.195993 693.200006,333.002005 691.952,332.078 C690.703994,331.153995 689.312008,330.704 687.776,330.728 Z M713.32,347 L713.32,322.808 L721.528,322.808 C724.240014,322.808 726.399992,323.521993 728.008,324.95 C729.616008,326.378007 730.42,328.171989 730.42,330.332 C730.42,331.940008 729.946005,333.367994 728.998,334.616 C728.049995,335.864006 726.724009,336.751997 725.02,337.28 L730.42,347 L727.936,347 L722.788,337.784 L721.312,337.856 L715.696,337.856 L715.696,347 L713.32,347 Z M715.696,335.588 L721.528,335.588 C723.47201,335.588 725.031994,335.090005 726.208,334.094 C727.384006,333.097995 727.972,331.844008 727.972,330.332 C727.972,328.843993 727.384006,327.596005 726.208,326.588 C725.031994,325.579995 723.47201,325.076 721.528,325.076 L715.696,325.076 L715.696,335.588 Z M743.084,344.912 C744.692008,344.912 746.131994,344.456005 747.404,343.544 C748.676006,342.631995 749.539998,341.564006 749.996,340.34 L752.012,341.06 C751.459997,342.572008 750.386008,343.963994 748.79,345.236 C747.193992,346.508006 745.292011,347.132 743.084,347.108 C741.06799,347.108 739.226008,346.484006 737.558,345.236 C735.889992,343.987994 734.756003,342.39201 734.156,340.448 C733.915999,339.655996 733.796,338.792005 733.796,337.856 C733.796,335.263987 734.695991,333.068009 736.496,331.268 C738.296009,329.467991 740.491987,328.556 743.084,328.532 C745.436012,328.556 747.487991,329.347992 749.24,330.908 C750.992009,332.468008 751.999999,334.399988 752.264,336.704 C752.288,336.824001 752.3,336.979999 752.3,337.172 L736.568,340.016 C736.976002,341.456007 737.791994,342.637995 739.016,343.562 C740.240006,344.486005 741.595993,344.936 743.084,344.912 Z M742.868,330.728 C741.067991,330.752 739.526006,331.399994 738.242,332.672 C736.957994,333.944006 736.268,335.467991 736.172,337.244 C736.172,337.316 736.178,337.441999 736.19,337.622 C736.202,337.802001 736.208,337.951999 736.208,338.072 L749.6,335.66 C749.143998,334.195993 748.292006,333.002005 747.044,332.078 C745.795994,331.153995 744.404008,330.704 742.868,330.728 Z M762.984,347.288 C762.167996,347.288 761.376004,347.186001 760.608,346.982 C759.839996,346.777999 759.198003,346.538001 758.682,346.262 C758.165997,345.985999 757.704002,345.704001 757.296,345.416 C756.887998,345.127999 756.588001,344.888001 756.396,344.696 L756.108,344.372 L757.8,342.932 C757.968001,343.100001 758.201998,343.303999 758.502,343.544 C758.802001,343.784001 759.407995,344.107998 760.32,344.516 C761.232005,344.924002 762.131996,345.128 763.02,345.128 C764.340007,345.128 765.395996,344.876003 766.188,344.372 C766.980004,343.867997 767.376,343.160005 767.376,342.248 C767.376,341.599997 766.980004,341.042002 766.188,340.574 C765.395996,340.105998 764.436006,339.704002 763.308,339.368 C762.179994,339.031998 761.046006,338.660002 759.906,338.252 C758.765994,337.843998 757.800004,337.268004 757.008,336.524 C756.215996,335.779996 755.82,334.868005 755.82,333.788 C755.82,332.299993 756.377994,331.082005 757.494,330.134 C758.610006,329.185995 760.259989,328.712 762.444,328.712 C763.740006,328.712 764.963994,328.951998 766.116,329.432 C767.268006,329.912002 768.095997,330.391998 768.6,330.872 L769.356,331.592 L767.664,333.068 C767.495999,332.899999 767.262001,332.696001 766.962,332.456 C766.661998,332.215999 766.056005,331.892002 765.144,331.484 C764.231995,331.075998 763.320005,330.872 762.408,330.872 C761.111994,330.872 760.062004,331.123997 759.258,331.628 C758.453996,332.132003 758.052,332.839995 758.052,333.752 C758.052,334.400003 758.447996,334.957998 759.24,335.426 C760.032004,335.894002 760.991994,336.295998 762.12,336.632 C763.248006,336.968002 764.381994,337.333998 765.522,337.73 C766.662006,338.126002 767.627996,338.701996 768.42,339.458 C769.212004,340.214004 769.608,341.131995 769.608,342.212 C769.608,343.724008 769.056006,344.947995 767.952,345.884 C766.847994,346.820005 765.192011,347.288 762.984,347.288 Z M784.144,328.676 C786.712013,328.676 788.901991,329.581991 790.714,331.394 C792.526009,333.206009 793.432,335.395987 793.432,337.964 C793.432,340.532013 792.526009,342.721991 790.714,344.534 C788.901991,346.346009 786.712013,347.252 784.144,347.252 C781.263986,347.252 778.912009,346.160011 777.088,343.976 L777.088,355.748 L774.712,355.748 L774.712,328.964 L777.088,328.964 L777.088,331.916 C778.936009,329.755989 781.287986,328.676 784.144,328.676 Z M779.176,342.968 C780.520007,344.312007 782.15199,344.984 784.072,344.984 C785.99201,344.984 787.629993,344.306007 788.986,342.95 C790.342007,341.593993 791.02,339.93201 791.02,337.964 C791.02,335.99599 790.342007,334.328007 788.986,332.96 C787.629993,331.591993 785.99201,330.908 784.072,330.908 C782.15199,330.908 780.520007,331.591993 779.176,332.96 C777.831993,334.328007 777.16,335.99599 777.16,337.964 C777.16,339.93201 777.831993,341.599993 779.176,342.968 Z M812.9,344.552 C811.099991,346.376009 808.916013,347.288 806.348,347.288 C803.779987,347.288 801.590009,346.382009 799.778,344.57 C797.965991,342.757991 797.06,340.568013 797.06,338 C797.06,335.431987 797.965991,333.242009 799.778,331.43 C801.590009,329.617991 803.779987,328.712 806.348,328.712 C808.916013,328.712 811.105991,329.617991 812.918,331.43 C814.730009,333.242009 815.636,335.431987 815.636,338 C815.636,340.544013 814.724009,342.727991 812.9,344.552 Z M806.384,345.02 C808.32801,345.02 809.965993,344.342007 811.298,342.986 C812.630007,341.629993 813.296,339.96801 813.296,338 C813.296,336.03199 812.630007,334.364007 811.298,332.996 C809.965993,331.627993 808.32801,330.944 806.384,330.944 C804.46399,330.944 802.832007,331.627993 801.488,332.996 C800.143993,334.364007 799.472,336.03199 799.472,338 C799.472,339.96801 800.143993,341.629993 801.488,342.986 C802.832007,344.342007 804.46399,345.02 806.384,345.02 Z M828.336,328.712 C830.42401,328.712 832.175993,329.449993 833.592,330.926 C835.008007,332.402007 835.716,334.219989 835.716,336.38 L835.716,347 L833.304,347 L833.304,336.452 C833.304,334.915992 832.782005,333.608005 831.738,332.528 C830.693995,331.447995 829.428007,330.908 827.94,330.908 C826.451993,330.908 825.186005,331.447995 824.142,332.528 C823.097995,333.608005 822.576,334.915992 822.576,336.452 L822.576,347 L820.2,347 L820.2,329 L822.576,329 L822.576,331.664 C824.040007,329.69599 825.959988,328.712 828.336,328.712 Z M847.588,347.288 C846.771996,347.288 845.980004,347.186001 845.212,346.982 C844.443996,346.777999 843.802003,346.538001 843.286,346.262 C842.769997,345.985999 842.308002,345.704001 841.9,345.416 C841.491998,345.127999 841.192001,344.888001 841,344.696 L840.712,344.372 L842.404,342.932 C842.572001,343.100001 842.805998,343.303999 843.106,343.544 C843.406001,343.784001 844.011995,344.107998 844.924,344.516 C845.836005,344.924002 846.735996,345.128 847.624,345.128 C848.944007,345.128 849.999996,344.876003 850.792,344.372 C851.584004,343.867997 851.98,343.160005 851.98,342.248 C851.98,341.599997 851.584004,341.042002 850.792,340.574 C849.999996,340.105998 849.040006,339.704002 847.912,339.368 C846.783994,339.031998 845.650006,338.660002 844.51,338.252 C843.369994,337.843998 842.404004,337.268004 841.612,336.524 C840.819996,335.779996 840.424,334.868005 840.424,333.788 C840.424,332.299993 840.981994,331.082005 842.098,330.134 C843.214006,329.185995 844.863989,328.712 847.048,328.712 C848.344006,328.712 849.567994,328.951998 850.72,329.432 C851.872006,329.912002 852.699997,330.391998 853.204,330.872 L853.96,331.592 L852.268,333.068 C852.099999,332.899999 851.866001,332.696001 851.566,332.456 C851.265998,332.215999 850.660005,331.892002 849.748,331.484 C848.835995,331.075998 847.924005,330.872 847.012,330.872 C845.715994,330.872 844.666004,331.123997 843.862,331.628 C843.057996,332.132003 842.656,332.839995 842.656,333.752 C842.656,334.400003 843.051996,334.957998 843.844,335.426 C844.636004,335.894002 845.595994,336.295998 846.724,336.632 C847.852006,336.968002 848.985994,337.333998 850.126,337.73 C851.266006,338.126002 852.231996,338.701996 853.024,339.458 C853.816004,340.214004 854.212,341.131995 854.212,342.212 C854.212,343.724008 853.660006,344.947995 852.556,345.884 C851.451994,346.820005 849.796011,347.288 847.588,347.288 Z M867.056,344.912 C868.664008,344.912 870.103994,344.456005 871.376,343.544 C872.648006,342.631995 873.511998,341.564006 873.968,340.34 L875.984,341.06 C875.431997,342.572008 874.358008,343.963994 872.762,345.236 C871.165992,346.508006 869.264011,347.132 867.056,347.108 C865.03999,347.108 863.198008,346.484006 861.53,345.236 C859.861992,343.987994 858.728003,342.39201 858.128,340.448 C857.887999,339.655996 857.768,338.792005 857.768,337.856 C857.768,335.263987 858.667991,333.068009 860.468,331.268 C862.268009,329.467991 864.463987,328.556 867.056,328.532 C869.408012,328.556 871.459991,329.347992 873.212,330.908 C874.964009,332.468008 875.971999,334.399988 876.236,336.704 C876.26,336.824001 876.272,336.979999 876.272,337.172 L860.54,340.016 C860.948002,341.456007 861.763994,342.637995 862.988,343.562 C864.212006,344.486005 865.567993,344.936 867.056,344.912 Z M866.84,330.728 C865.039991,330.752 863.498006,331.399994 862.214,332.672 C860.929994,333.944006 860.24,335.467991 860.144,337.244 C860.144,337.316 860.15,337.441999 860.162,337.622 C860.174,337.802001 860.18,337.951999 860.18,338.072 L873.572,335.66 C873.115998,334.195993 872.264006,333.002005 871.016,332.078 C869.767994,331.153995 868.376008,330.704 866.84,330.728 Z" id="Ohm’s-Law---Current-Copy" fill="#23ABE3"></path>
        <rect id="Rectangle-Copy" stroke="#3D3530" stroke-width="2" x="1" y="307" width="898" height="62"></rect>
        <rect id="Rectangle" fill="#23ABE3" x="293" y="250" width="19" height="2.11111111"></rect>
    </g>
</svg>