<?xml version="1.0" encoding="UTF-8"?>
<svg width="900px" height="362px" viewBox="0 0 900 362" version="1.1" xmlns="http://www.w3.org/2000/svg" xmlns:xlink="http://www.w3.org/1999/xlink">
    <!-- Generator: Sketch 52.5 (67469) - http://www.bohemiancoding.com/sketch -->
    <title>Oxygen_Atom</title>
    <desc>Created with Sketch.</desc>
    <g id="Oxygen_Atom" stroke="none" stroke-width="1" fill="none" fill-rule="evenodd">
        <rect id="Rectangle" stroke="#3D3530" stroke-width="2" fill="#EEEEEE" x="1" y="1" width="898" height="378"></rect>
        <g id="Illustration" transform="translate(213.000000, 8.000000)">
            <g id="Nucleus" transform="translate(128.000000, 125.000000)">
                <circle id="Oval-Copy-5" fill="#1A80AA" cx="33" cy="48" r="19"></circle>
                <circle id="Oval" fill="#1A80AA" cx="26" cy="19" r="19"></circle>
                <circle id="Oval-Copy" fill="#C9DB31" cx="19" cy="38" r="19"></circle>
                <circle id="Oval-Copy-4" fill="#C9DB31" cx="52" cy="40" r="19"></circle>
                <circle id="Oval-Copy-2" fill="#C9DB31" cx="51" cy="22" r="19"></circle>
                <circle id="Oval-Copy-3" fill="#1A80AA" cx="40" cy="36" r="19"></circle>
            </g>
            <g id="Inner-shells" transform="translate(66.000000, 74.000000)">
                <ellipse id="Oval" stroke="#524740" stroke-width="3" transform="translate(98.699413, 81.692441) rotate(-13.000000) translate(-98.699413, -81.692441) " cx="98.6994127" cy="81.6924408" rx="86" ry="63"></ellipse>
                <circle id="Oval-Copy-6" fill="#EF7D3B" cx="56" cy="28" r="12"></circle>
                <circle id="Oval-Copy-7" fill="#EF7D3B" cx="141" cy="130" r="12"></circle>
            </g>
            <g id="Valence-Shell">
                <ellipse id="Oval-Copy-8" stroke="#524740" stroke-width="3" transform="translate(163.135072, 154.442892) rotate(30.000000) translate(-163.135072, -154.442892) " cx="163.135072" cy="154.442892" rx="128.5" ry="103"></ellipse>
                <circle id="Oval-Copy-9" fill="#EF7D3B" cx="128" cy="44" r="12"></circle>
                <circle id="Oval-Copy-10" fill="#EF7D3B" cx="80" cy="61" r="12"></circle>
                <circle id="Oval-Copy-11" fill="#EF7D3B" cx="218" cy="66" r="12"></circle>
                <circle id="Oval-Copy-12" fill="#EF7D3B" cx="79" cy="223" r="12"></circle>
                <circle id="Oval-Copy-13" fill="#EF7D3B" cx="261" cy="237" r="12"></circle>
                <circle id="Oval-Copy-14" fill="#EF7D3B" cx="276" cy="127" r="12"></circle>
            </g>
            <g id="Labels" transform="translate(198.000000, 59.000000)">
                <g id="Nucleus">
                    <polyline id="Path" stroke="#B09679" stroke-width="3" points="0.31212875 73.4125764 56.3924368 11.5663788 125.794059 11.5663788"></polyline>
                    <path d="M149.008,14.024 L149.008,5.888 C149.008,4.687994 148.876001,3.92400164 148.612,3.596 C148.347999,3.26799836 147.720005,3.104 146.728,3.104 L146.728,2.6 L152.2,2.6 L152.2,3.104 C151.207995,3.104 150.576001,3.26799836 150.304,3.596 C150.031999,3.92400164 149.896,4.687994 149.896,5.888 L149.896,17.408 L149.344,17.408 L139.576,5.336 L139.576,13.688 C139.576,14.888006 139.711999,15.6559983 139.984,15.992 C140.256001,16.3280017 140.887995,16.496 141.88,16.496 L141.88,17 L136.408,17 L136.408,16.496 C137.400005,16.496 138.027999,16.3280017 138.292,15.992 C138.556001,15.6559983 138.688,14.888006 138.688,13.688 L138.688,5.888 C138.688,4.687994 138.556001,3.92400164 138.292,3.596 C138.027999,3.26799836 137.400005,3.104 136.408,3.104 L136.408,2.6 L139.792,2.6 L149.008,14.024 Z M166.168,16.808 L162.952,17.408 C162.823999,17.1519987 162.696001,16.6400038 162.568,15.872 C161.575995,16.8960051 160.528006,17.408 159.424,17.408 C157.43999,17.408 156.448,16.208012 156.448,13.808 L156.448,12.296 C156.448,11.095994 156.332001,10.3280017 156.1,9.992 C155.867999,9.65599832 155.352004,9.488 154.552,9.488 L154.552,9.008 L158.152,9.008 L158.152,13.688 C158.152,15.4000086 158.759994,16.256 159.976,16.256 C160.520003,16.256 161.087997,16.0280023 161.68,15.572 C162.272003,15.1159977 162.568,14.5520034 162.568,13.88 L162.568,12.296 C162.568,11.095994 162.452001,10.3280017 162.22,9.992 C161.987999,9.65599832 161.464004,9.488 160.648,9.488 L160.648,9.008 L164.248,9.008 L164.248,13.496 C164.248,14.696006 164.363999,15.4639983 164.596,15.8 C164.828001,16.1360017 165.351996,16.304 166.168,16.304 L166.168,16.808 Z M173.224,9.368 C172.583997,9.368 172.040002,9.73599632 171.592,10.472 C171.143998,11.2080037 170.92,12.1199946 170.92,13.208 C170.92,14.200005 171.163998,14.9799972 171.652,15.548 C172.140002,16.1160028 172.863995,16.4 173.824,16.4 C174.752005,16.4 175.607996,16.0320037 176.392,15.296 L176.8,15.824 C175.823995,16.8800053 174.632007,17.408 173.224,17.408 C171.911993,17.408 170.876004,17.0160039 170.116,16.232 C169.355996,15.4479961 168.976,14.4400062 168.976,13.208 C168.976,11.8799934 169.423996,10.7800044 170.32,9.908 C171.216004,9.03599564 172.183995,8.6 173.224,8.6 C174.168005,8.6 174.879998,8.76799832 175.36,9.104 C175.840002,9.44000168 176.08,9.8479976 176.08,10.328 C176.08,10.5840013 175.996001,10.8199989 175.828,11.036 C175.659999,11.2520011 175.392002,11.36 175.024,11.36 C174.767999,11.36 174.548001,11.2680009 174.364,11.084 C174.179999,10.8999991 174.088,10.6720014 174.088,10.4 C174.088,9.71199656 173.800003,9.368 173.224,9.368 Z M184.408,17 L178.912,17 L178.912,16.496 C179.712004,16.496 180.227999,16.3280017 180.46,15.992 C180.692001,15.6559983 180.808,14.888006 180.808,13.688 L180.808,6.104 C180.808,4.903994 180.692001,4.13600168 180.46,3.8 C180.227999,3.46399832 179.712004,3.296 178.912,3.296 L178.912,2.792 L182.512,2.192 L182.512,13.688 C182.512,14.888006 182.627999,15.6559983 182.86,15.992 C183.092001,16.3280017 183.607996,16.496 184.408,16.496 L184.408,17 Z M189.304,11.504 L193.288,11.504 C193.448001,11.0559978 193.380001,10.6200021 193.084,10.196 C192.787999,9.77199788 192.280004,9.56 191.56,9.56 C191.047997,9.56 190.588002,9.73599824 190.18,10.088 C189.771998,10.4400018 189.480001,10.911997 189.304,11.504 Z M189.16,12.392 C189.015999,13.5760059 189.203997,14.5399963 189.724,15.284 C190.244003,16.0280037 191.095994,16.4 192.28,16.4 C192.680002,16.4 193.135997,16.296001 193.648,16.088 C194.160003,15.879999 194.583998,15.6160016 194.92,15.296 L195.352,15.824 C194.919998,16.2880023 194.368003,16.6679985 193.696,16.964 C193.023997,17.2600015 192.352003,17.408 191.68,17.408 C190.383994,17.408 189.320004,16.9800043 188.488,16.124 C187.655996,15.2679957 187.24,14.2240062 187.24,12.992 C187.24,11.7599938 187.691995,10.7200042 188.596,9.872 C189.500005,9.02399576 190.527994,8.6 191.68,8.6 C192.768005,8.6 193.655997,8.9799962 194.344,9.74 C195.032003,10.5000038 195.232001,11.383995 194.944,12.392 L189.16,12.392 Z M209.488,16.808 L206.272,17.408 C206.143999,17.1519987 206.016001,16.6400038 205.888,15.872 C204.895995,16.8960051 203.848006,17.408 202.744,17.408 C200.75999,17.408 199.768,16.208012 199.768,13.808 L199.768,12.296 C199.768,11.095994 199.652001,10.3280017 199.42,9.992 C199.187999,9.65599832 198.672004,9.488 197.872,9.488 L197.872,9.008 L201.472,9.008 L201.472,13.688 C201.472,15.4000086 202.079994,16.256 203.296,16.256 C203.840003,16.256 204.407997,16.0280023 205,15.572 C205.592003,15.1159977 205.888,14.5520034 205.888,13.88 L205.888,12.296 C205.888,11.095994 205.772001,10.3280017 205.54,9.992 C205.307999,9.65599832 204.784004,9.488 203.968,9.488 L203.968,9.008 L207.568,9.008 L207.568,13.496 C207.568,14.696006 207.683999,15.4639983 207.916,15.8 C208.148001,16.1360017 208.671996,16.304 209.488,16.304 L209.488,16.808 Z M218.224,14.792 C218.224,15.5600038 217.948003,16.1879976 217.396,16.676 C216.843997,17.1640024 216.168004,17.408 215.368,17.408 C215.079999,17.408 214.784002,17.3520006 214.48,17.24 C214.175998,17.1279994 213.932001,17.0200005 213.748,16.916 C213.563999,16.8119995 213.392001,16.7320003 213.232,16.676 C213.071999,16.6199997 212.96,16.6479994 212.896,16.76 C212.832,16.8720006 212.8,17.0879984 212.8,17.408 L212.296,17.408 L212.296,13.904 L212.8,13.904 C212.8,14.5280031 213.039998,15.1319971 213.52,15.716 C214.000002,16.3000029 214.631996,16.592 215.416,16.592 C215.800002,16.592 216.123999,16.4720012 216.388,16.232 C216.652001,15.9919988 216.784,15.7040017 216.784,15.368 C216.784,14.8719975 216.336004,14.3840024 215.44,13.904 L214.096,13.184 C213.039995,12.6079971 212.512,11.8080051 212.512,10.784 C212.512,10.1599969 212.755998,9.64000208 213.244,9.224 C213.732002,8.80799792 214.295997,8.6 214.936,8.6 C215.480003,8.6 216.039997,8.74399856 216.616,9.032 C216.808001,9.14400056 216.94,9.1800002 217.012,9.14 C217.084,9.0999998 217.12,8.9200016 217.12,8.6 L217.624,8.6 L217.624,11.384 L217.12,11.384 C217.12,10.8559974 216.940002,10.388002 216.58,9.98 C216.219998,9.57199796 215.752003,9.368 215.176,9.368 C214.775998,9.368 214.472001,9.46399904 214.264,9.656 C214.055999,9.84800096 213.952,10.0959985 213.952,10.4 C213.952,10.6720014 214.055999,10.907999 214.264,11.108 C214.472001,11.308001 214.855997,11.5599985 215.416,11.864 L216.568,12.488 C217.672006,13.1120031 218.224,13.8799954 218.224,14.792 Z" id="Nucleus-Copy" fill="#524740"></path>
                </g>
                <g id="Electron" transform="translate(20.000000, 94.000000)">
                    <path d="M146.204,17 L146.204,16.496 C147.196005,16.496 147.823999,16.3280017 148.088,15.992 C148.352001,15.6559983 148.484,14.888006 148.484,13.688 L148.484,5.888 C148.484,4.687994 148.352001,3.92400164 148.088,3.596 C147.823999,3.26799836 147.196005,3.104 146.204,3.104 L146.204,2.6 L157.148,2.6 L157.364,5.768 L156.86,5.768 L156.74,5.288 C156.547999,4.58399648 156.292002,4.10800124 155.972,3.86 C155.651998,3.61199876 154.980005,3.488 153.956,3.488 L150.404,3.488 L150.404,8.936 L151.604,8.936 C152.804006,8.936 153.567998,8.80400132 153.896,8.54 C154.224002,8.27599868 154.388,7.64000504 154.388,6.632 L154.892,6.632 L154.892,12.128 L154.388,12.128 C154.388,11.119995 154.224002,10.4840013 153.896,10.22 C153.567998,9.95599868 152.804006,9.824 151.604,9.824 L150.404,9.824 L150.404,13.328 C150.404,14.528006 150.535999,15.2919984 150.8,15.62 C151.064001,15.9480016 151.691995,16.112 152.684,16.112 L154.748,16.112 C155.468004,16.112 156.015998,16.0400007 156.392,15.896 C156.768002,15.7519993 157.023999,15.5680011 157.16,15.344 C157.296001,15.1199989 157.419999,14.7680024 157.532,14.288 L157.652,13.808 L158.156,13.808 L157.964,17 L146.204,17 Z M166.436,17 L160.94,17 L160.94,16.496 C161.740004,16.496 162.255999,16.3280017 162.488,15.992 C162.720001,15.6559983 162.836,14.888006 162.836,13.688 L162.836,6.104 C162.836,4.903994 162.720001,4.13600168 162.488,3.8 C162.255999,3.46399832 161.740004,3.296 160.94,3.296 L160.94,2.792 L164.54,2.192 L164.54,13.688 C164.54,14.888006 164.655999,15.6559983 164.888,15.992 C165.120001,16.3280017 165.635996,16.496 166.436,16.496 L166.436,17 Z M171.332,11.504 L175.316,11.504 C175.476001,11.0559978 175.408001,10.6200021 175.112,10.196 C174.815999,9.77199788 174.308004,9.56 173.588,9.56 C173.075997,9.56 172.616002,9.73599824 172.208,10.088 C171.799998,10.4400018 171.508001,10.911997 171.332,11.504 Z M171.188,12.392 C171.043999,13.5760059 171.231997,14.5399963 171.752,15.284 C172.272003,16.0280037 173.123994,16.4 174.308,16.4 C174.708002,16.4 175.163997,16.296001 175.676,16.088 C176.188003,15.879999 176.611998,15.6160016 176.948,15.296 L177.38,15.824 C176.947998,16.2880023 176.396003,16.6679985 175.724,16.964 C175.051997,17.2600015 174.380003,17.408 173.708,17.408 C172.411994,17.408 171.348004,16.9800043 170.516,16.124 C169.683996,15.2679957 169.268,14.2240062 169.268,12.992 C169.268,11.7599938 169.719995,10.7200042 170.624,9.872 C171.528005,9.02399576 172.555994,8.6 173.708,8.6 C174.796005,8.6 175.683997,8.9799962 176.372,9.74 C177.060003,10.5000038 177.260001,11.383995 176.972,12.392 L171.188,12.392 Z M184.844,9.368 C184.203997,9.368 183.660002,9.73599632 183.212,10.472 C182.763998,11.2080037 182.54,12.1199946 182.54,13.208 C182.54,14.200005 182.783998,14.9799972 183.272,15.548 C183.760002,16.1160028 184.483995,16.4 185.444,16.4 C186.372005,16.4 187.227996,16.0320037 188.012,15.296 L188.42,15.824 C187.443995,16.8800053 186.252007,17.408 184.844,17.408 C183.531993,17.408 182.496004,17.0160039 181.736,16.232 C180.975996,15.4479961 180.596,14.4400062 180.596,13.208 C180.596,11.8799934 181.043996,10.7800044 181.94,9.908 C182.836004,9.03599564 183.803995,8.6 184.844,8.6 C185.788005,8.6 186.499998,8.76799832 186.98,9.104 C187.460002,9.44000168 187.7,9.8479976 187.7,10.328 C187.7,10.5840013 187.616001,10.8199989 187.448,11.036 C187.279999,11.2520011 187.012002,11.36 186.644,11.36 C186.387999,11.36 186.168001,11.2680009 185.984,11.084 C185.799999,10.8999991 185.708,10.6720014 185.708,10.4 C185.708,9.71199656 185.420003,9.368 184.844,9.368 Z M191.996,9.848 L190.748,9.848 L190.748,9.272 C191.436003,9.12799928 191.939998,8.8160024 192.26,8.336 C192.580002,7.8559976 192.788,7.20000416 192.884,6.368 L193.7,6.368 L193.7,9.008 L195.788,9.008 L195.788,9.848 L193.7,9.848 L193.7,14.648 C193.7,15.8000058 194.059996,16.376 194.78,16.376 C195.244002,16.376 195.763997,16.1040027 196.34,15.56 L196.748,15.968 C196.411998,16.368002 196.008002,16.6959987 195.536,16.952 C195.063998,17.2080013 194.628002,17.336 194.228,17.336 C193.539997,17.336 192.996002,17.1120022 192.596,16.664 C192.195998,16.2159978 191.996,15.5440045 191.996,14.648 L191.996,9.848 Z M207.284,10.088 C207.284,10.8400038 206.964003,11.216 206.324,11.216 C206.099999,11.216 205.904001,11.1280009 205.736,10.952 C205.567999,10.7759991 205.484,10.5760011 205.484,10.352 C205.484,9.82399736 205.228003,9.56 204.716,9.56 C204.347998,9.56 203.948002,9.81599744 203.516,10.328 C203.083998,10.8400026 202.868,11.5199958 202.868,12.368 L202.868,13.688 C202.868,14.888006 202.983999,15.6559983 203.216,15.992 C203.448001,16.3280017 203.963996,16.496 204.764,16.496 L204.764,17 L199.268,17 L199.268,16.496 C200.068004,16.496 200.583999,16.3280017 200.816,15.992 C201.048001,15.6559983 201.164,14.888006 201.164,13.688 L201.164,12.488 C201.164,11.3039941 201.048001,10.5440017 200.816,10.208 C200.583999,9.87199832 200.068004,9.704 199.268,9.704 L199.268,9.2 L202.46,8.6 C202.604001,8.90400152 202.739999,9.47999576 202.868,10.328 C203.108001,9.8479976 203.467998,9.44000168 203.948,9.104 C204.428002,8.76799832 204.907998,8.6 205.388,8.6 C205.996003,8.6 206.463998,8.7599984 206.792,9.08 C207.120002,9.4000016 207.284,9.73599824 207.284,10.088 Z M218.396,9.896 C219.356005,10.7440042 219.836,11.7759939 219.836,12.992 C219.836,14.2080061 219.360005,15.2479957 218.408,16.112 C217.455995,16.9760043 216.316007,17.408 214.988,17.408 C213.659993,17.408 212.520005,16.9760043 211.568,16.112 C210.615995,15.2479957 210.14,14.2080061 210.14,12.992 C210.14,11.7759939 210.615995,10.7400043 211.568,9.884 C212.520005,9.02799572 213.659993,8.6 214.988,8.6 C216.316007,8.6 217.451995,9.03199568 218.396,9.896 Z M217.148,15.512 C217.644002,14.8559967 217.892,14.0160051 217.892,12.992 C217.892,11.9679949 217.644002,11.1320032 217.148,10.484 C216.651998,9.83599676 215.932005,9.512 214.988,9.512 C214.043995,9.512 213.324002,9.83999672 212.828,10.496 C212.331998,11.1520033 212.084,11.983995 212.084,12.992 C212.084,14.000005 212.331998,14.8319967 212.828,15.488 C213.324002,16.1440033 214.043995,16.472 214.988,16.472 C215.932005,16.472 216.651998,16.1520032 217.148,15.512 Z M226.7,10.328 C227.612005,9.17599424 228.723993,8.6 230.036,8.6 C231.076005,8.6 231.855997,8.92799672 232.376,9.584 C232.896003,10.2400033 233.156,11.1039946 233.156,12.176 L233.156,13.688 C233.156,14.888006 233.271999,15.6559983 233.504,15.992 C233.736001,16.3280017 234.251996,16.496 235.052,16.496 L235.052,17 L229.556,17 L229.556,16.496 C230.340004,16.496 230.851999,16.3240017 231.092,15.98 C231.332001,15.6359983 231.452,14.8720059 231.452,13.688 L231.452,12.296 C231.452,10.5839914 230.788007,9.728 229.46,9.728 C228.771997,9.728 228.140003,9.9679976 227.564,10.448 C226.987997,10.9280024 226.7,11.4879968 226.7,12.128 L226.7,13.688 C226.7,14.9200062 226.795999,15.6959984 226.988,16.016 C227.180001,16.3360016 227.643996,16.496 228.38,16.496 L228.38,17 L223.1,17 L223.1,16.496 C223.900004,16.496 224.415999,16.3280017 224.648,15.992 C224.880001,15.6559983 224.996,14.888006 224.996,13.688 L224.996,12.488 C224.996,11.3039941 224.880001,10.5440017 224.648,10.208 C224.415999,9.87199832 223.900004,9.704 223.1,9.704 L223.1,9.2 L226.292,8.6 C226.436001,8.90400152 226.571999,9.47999576 226.7,10.328 Z" id="Electron-Copy" fill="#524740"></path>
                    <polyline id="Path-2" stroke="#B09679" stroke-width="3" points="0.277796982 49.941732 85.6797631 10.1992832 137.794264 10.1992832"></polyline>
                </g>
                <g id="Valence-Shell" transform="translate(84.000000, 144.000000)">
                    <polyline id="Path-3" stroke="#B09679" stroke-width="3" points="0.371064515 0.297860708 36.3832641 34.4572409 86.2511776 34.4572409"></polyline>
                    <path d="M109.196,27.104 C108.251995,27.104 107.640001,27.2199988 107.36,27.452 C107.079999,27.6840012 106.740002,28.2639954 106.34,29.192 L101.06,41.408 L100.748,41.408 L95.444,29.192 C95.043998,28.2639954 94.7040014,27.6840012 94.424,27.452 C94.1439986,27.2199988 93.5320047,27.104 92.588,27.104 L92.588,26.6 L99.236,26.6 L99.236,27.104 C98.243995,27.104 97.6080014,27.2439986 97.328,27.524 C97.0479986,27.8040014 97.0599985,28.2719967 97.364,28.928 L101.444,38.264 L105.476,28.928 C105.780002,28.2719967 105.792001,27.8040014 105.512,27.524 C105.231999,27.2439986 104.596005,27.104 103.604,27.104 L103.604,26.6 L109.196,26.6 L109.196,27.104 Z M116.996,40.52 C116.531998,41.0160025 116.004003,41.264 115.412,41.264 C114.451995,41.264 113.908001,40.8000046 113.78,39.872 C112.707995,40.8320048 111.708005,41.312 110.78,41.312 C110.171997,41.312 109.660002,41.1320018 109.244,40.772 C108.827998,40.4119982 108.62,39.9200031 108.62,39.296 C108.62,37.6159916 110.323983,36.480003 113.732,35.888 C113.732,34.9439953 113.628001,34.2880018 113.42,33.92 C113.211999,33.5519982 112.780003,33.368 112.124,33.368 C111.803998,33.368 111.496001,33.471999 111.2,33.68 C110.903999,33.888001 110.756,34.1679982 110.756,34.52 C110.756,34.7600012 110.676001,34.9599992 110.516,35.12 C110.355999,35.2800008 110.164001,35.36 109.94,35.36 C109.699999,35.36 109.500001,35.2800008 109.34,35.12 C109.179999,34.9599992 109.1,34.7600012 109.1,34.52 C109.1,33.9599972 109.407997,33.5000018 110.024,33.14 C110.640003,32.7799982 111.347996,32.6 112.148,32.6 C113.316006,32.6 114.155997,32.8559974 114.668,33.368 C115.180003,33.8800026 115.436,34.7119942 115.436,35.864 L115.436,39.488 C115.436,40.1120031 115.619998,40.424 115.988,40.424 C116.196001,40.424 116.419999,40.3040012 116.66,40.064 L116.996,40.52 Z M113.732,39.08 L113.732,36.632 C111.523989,37.1440026 110.42,37.9359946 110.42,39.008 C110.42,39.3760018 110.527999,39.6719989 110.744,39.896 C110.960001,40.1200011 111.227998,40.232 111.548,40.232 C112.140003,40.232 112.867996,39.8480038 113.732,39.08 Z M124.532,41 L119.036,41 L119.036,40.496 C119.836004,40.496 120.351999,40.3280017 120.584,39.992 C120.816001,39.6559983 120.932,38.888006 120.932,37.688 L120.932,30.104 C120.932,28.903994 120.816001,28.1360017 120.584,27.8 C120.351999,27.4639983 119.836004,27.296 119.036,27.296 L119.036,26.792 L122.636,26.192 L122.636,37.688 C122.636,38.888006 122.751999,39.6559983 122.984,39.992 C123.216001,40.3280017 123.731996,40.496 124.532,40.496 L124.532,41 Z M129.428,35.504 L133.412,35.504 C133.572001,35.0559978 133.504001,34.6200021 133.208,34.196 C132.911999,33.7719979 132.404004,33.56 131.684,33.56 C131.171997,33.56 130.712002,33.7359982 130.304,34.088 C129.895998,34.4400018 129.604001,34.911997 129.428,35.504 Z M129.284,36.392 C129.139999,37.5760059 129.327997,38.5399963 129.848,39.284 C130.368003,40.0280037 131.219994,40.4 132.404,40.4 C132.804002,40.4 133.259997,40.296001 133.772,40.088 C134.284003,39.879999 134.707998,39.6160016 135.044,39.296 L135.476,39.824 C135.043998,40.2880023 134.492003,40.6679985 133.82,40.964 C133.147997,41.2600015 132.476003,41.408 131.804,41.408 C130.507994,41.408 129.444004,40.9800043 128.612,40.124 C127.779996,39.2679957 127.364,38.2240062 127.364,36.992 C127.364,35.7599938 127.815995,34.7200042 128.72,33.872 C129.624005,33.0239958 130.651994,32.6 131.804,32.6 C132.892005,32.6 133.779997,32.9799962 134.468,33.74 C135.156003,34.5000038 135.356001,35.383995 135.068,36.392 L129.284,36.392 Z M142.052,34.328 C142.964005,33.1759942 144.075993,32.6 145.388,32.6 C146.428005,32.6 147.207997,32.9279967 147.728,33.584 C148.248003,34.2400033 148.508,35.1039946 148.508,36.176 L148.508,37.688 C148.508,38.888006 148.623999,39.6559983 148.856,39.992 C149.088001,40.3280017 149.603996,40.496 150.404,40.496 L150.404,41 L144.908,41 L144.908,40.496 C145.692004,40.496 146.203999,40.3240017 146.444,39.98 C146.684001,39.6359983 146.804,38.8720059 146.804,37.688 L146.804,36.296 C146.804,34.5839914 146.140007,33.728 144.812,33.728 C144.123997,33.728 143.492003,33.9679976 142.916,34.448 C142.339997,34.9280024 142.052,35.4879968 142.052,36.128 L142.052,37.688 C142.052,38.9200062 142.147999,39.6959984 142.34,40.016 C142.532001,40.3360016 142.995996,40.496 143.732,40.496 L143.732,41 L138.452,41 L138.452,40.496 C139.252004,40.496 139.767999,40.3280017 140,39.992 C140.232001,39.6559983 140.348,38.888006 140.348,37.688 L140.348,36.488 C140.348,35.3039941 140.232001,34.5440017 140,34.208 C139.767999,33.8719983 139.252004,33.704 138.452,33.704 L138.452,33.2 L141.644,32.6 C141.788001,32.9040015 141.923999,33.4799958 142.052,34.328 Z M157.46,33.368 C156.819997,33.368 156.276002,33.7359963 155.828,34.472 C155.379998,35.2080037 155.156,36.1199946 155.156,37.208 C155.156,38.200005 155.399998,38.9799972 155.888,39.548 C156.376002,40.1160028 157.099995,40.4 158.06,40.4 C158.988005,40.4 159.843996,40.0320037 160.628,39.296 L161.036,39.824 C160.059995,40.8800053 158.868007,41.408 157.46,41.408 C156.147993,41.408 155.112004,41.0160039 154.352,40.232 C153.591996,39.4479961 153.212,38.4400062 153.212,37.208 C153.212,35.8799934 153.659996,34.7800044 154.556,33.908 C155.452004,33.0359956 156.419995,32.6 157.46,32.6 C158.404005,32.6 159.115998,32.7679983 159.596,33.104 C160.076002,33.4400017 160.316,33.8479976 160.316,34.328 C160.316,34.5840013 160.232001,34.8199989 160.064,35.036 C159.895999,35.2520011 159.628002,35.36 159.26,35.36 C159.003999,35.36 158.784001,35.2680009 158.6,35.084 C158.415999,34.8999991 158.324,34.6720014 158.324,34.4 C158.324,33.7119966 158.036003,33.368 157.46,33.368 Z M165.908,35.504 L169.892,35.504 C170.052001,35.0559978 169.984001,34.6200021 169.688,34.196 C169.391999,33.7719979 168.884004,33.56 168.164,33.56 C167.651997,33.56 167.192002,33.7359982 166.784,34.088 C166.375998,34.4400018 166.084001,34.911997 165.908,35.504 Z M165.764,36.392 C165.619999,37.5760059 165.807997,38.5399963 166.328,39.284 C166.848003,40.0280037 167.699994,40.4 168.884,40.4 C169.284002,40.4 169.739997,40.296001 170.252,40.088 C170.764003,39.879999 171.187998,39.6160016 171.524,39.296 L171.956,39.824 C171.523998,40.2880023 170.972003,40.6679985 170.3,40.964 C169.627997,41.2600015 168.956003,41.408 168.284,41.408 C166.987994,41.408 165.924004,40.9800043 165.092,40.124 C164.259996,39.2679957 163.844,38.2240062 163.844,36.992 C163.844,35.7599938 164.295995,34.7200042 165.2,33.872 C166.104005,33.0239958 167.131994,32.6 168.284,32.6 C169.372005,32.6 170.259997,32.9799962 170.948,33.74 C171.636003,34.5000038 171.836001,35.383995 171.548,36.392 L165.764,36.392 Z M183.476,40.28 C183.107998,40.5840015 182.876,40.9599978 182.78,41.408 L182.3,41.408 L182.3,36.128 L182.804,36.128 C182.804,36.1920003 182.808,36.2759995 182.816,36.38 C182.824,36.4840005 182.856,36.6839985 182.912,36.98 C182.968,37.2760015 183.047999,37.5599986 183.152,37.832 C183.256001,38.1040014 183.419999,38.4079983 183.644,38.744 C183.868001,39.0800017 184.127999,39.3679988 184.424,39.608 C184.720001,39.8480012 185.111998,40.0479992 185.6,40.208 C186.088002,40.3680008 186.627997,40.448 187.22,40.448 C188.084004,40.448 188.799997,40.2000025 189.368,39.704 C189.936003,39.2079975 190.22,38.5760038 190.22,37.808 C190.22,36.8319951 189.300009,35.8640048 187.46,34.904 L185.156,33.728 C184.403996,33.327998 183.772003,32.7840034 183.26,32.096 C182.747997,31.4079966 182.492,30.6320043 182.492,29.768 C182.492,28.759995 182.867996,27.9120034 183.62,27.224 C184.372004,26.5359966 185.323994,26.192 186.476,26.192 C187.532005,26.192 188.507996,26.5199967 189.404,27.176 C189.772002,26.8719985 190.004,26.5040022 190.1,26.072 L190.58,26.072 L190.58,31.352 L190.076,31.352 C189.835999,28.551986 188.612011,27.152 186.404,27.152 C185.731997,27.152 185.176002,27.355998 184.736,27.764 C184.295998,28.172002 184.076,28.679997 184.076,29.288 C184.076,29.880003 184.287998,30.379998 184.712,30.788 C185.136002,31.196002 185.899994,31.6879971 187.004,32.264 L189.284,33.44 C190.964008,34.2880042 191.804,35.5039921 191.804,37.088 C191.804,38.3680064 191.360004,39.407996 190.472,40.208 C189.583996,41.008004 188.500006,41.408 187.22,41.408 C186.675997,41.408 186.156002,41.3280008 185.66,41.168 C185.163998,41.0079992 184.716002,40.828001 184.316,40.628 C183.915998,40.427999 183.636001,40.3120002 183.476,40.28 Z M206.252,41 L200.948,41 L200.948,40.496 C201.700004,40.496 202.171999,40.3360016 202.364,40.016 C202.556001,39.6959984 202.652,38.9200062 202.652,37.688 L202.652,36.296 C202.652,34.5839914 202.044006,33.728 200.828,33.728 C200.187997,33.728 199.596003,33.9639976 199.052,34.436 C198.507997,34.9080024 198.236,35.4719967 198.236,36.128 L198.236,37.688 C198.236,38.9360062 198.323999,39.7159984 198.5,40.028 C198.676001,40.3400016 199.091997,40.496 199.748,40.496 L199.748,41 L194.636,41 L194.636,40.496 C195.436004,40.496 195.951999,40.3280017 196.184,39.992 C196.416001,39.6559983 196.532,38.888006 196.532,37.688 L196.532,30.104 C196.532,28.903994 196.416001,28.1360017 196.184,27.8 C195.951999,27.4639983 195.436004,27.296 194.636,27.296 L194.636,26.792 L198.236,26.192 L198.236,34.328 C199.180005,33.1759942 200.227994,32.6 201.38,32.6 C203.34801,32.6 204.332,33.7919881 204.332,36.176 L204.332,37.688 C204.332,38.888006 204.447999,39.6559983 204.68,39.992 C204.912001,40.3280017 205.435996,40.496 206.252,40.496 L206.252,41 Z M211.124,35.504 L215.108,35.504 C215.268001,35.0559978 215.200001,34.6200021 214.904,34.196 C214.607999,33.7719979 214.100004,33.56 213.38,33.56 C212.867997,33.56 212.408002,33.7359982 212,34.088 C211.591998,34.4400018 211.300001,34.911997 211.124,35.504 Z M210.98,36.392 C210.835999,37.5760059 211.023997,38.5399963 211.544,39.284 C212.064003,40.0280037 212.915994,40.4 214.1,40.4 C214.500002,40.4 214.955997,40.296001 215.468,40.088 C215.980003,39.879999 216.403998,39.6160016 216.74,39.296 L217.172,39.824 C216.739998,40.2880023 216.188003,40.6679985 215.516,40.964 C214.843997,41.2600015 214.172003,41.408 213.5,41.408 C212.203994,41.408 211.140004,40.9800043 210.308,40.124 C209.475996,39.2679957 209.06,38.2240062 209.06,36.992 C209.06,35.7599938 209.511995,34.7200042 210.416,33.872 C211.320005,33.0239958 212.347994,32.6 213.5,32.6 C214.588005,32.6 215.475997,32.9799962 216.164,33.74 C216.852003,34.5000038 217.052001,35.383995 216.764,36.392 L210.98,36.392 Z M225.188,41 L219.692,41 L219.692,40.496 C220.492004,40.496 221.007999,40.3280017 221.24,39.992 C221.472001,39.6559983 221.588,38.888006 221.588,37.688 L221.588,30.104 C221.588,28.903994 221.472001,28.1360017 221.24,27.8 C221.007999,27.4639983 220.492004,27.296 219.692,27.296 L219.692,26.792 L223.292,26.192 L223.292,37.688 C223.292,38.888006 223.407999,39.6559983 223.64,39.992 C223.872001,40.3280017 224.387996,40.496 225.188,40.496 L225.188,41 Z M232.82,41 L227.324,41 L227.324,40.496 C228.124004,40.496 228.639999,40.3280017 228.872,39.992 C229.104001,39.6559983 229.22,38.888006 229.22,37.688 L229.22,30.104 C229.22,28.903994 229.104001,28.1360017 228.872,27.8 C228.639999,27.4639983 228.124004,27.296 227.324,27.296 L227.324,26.792 L230.924,26.192 L230.924,37.688 C230.924,38.888006 231.039999,39.6559983 231.272,39.992 C231.504001,40.3280017 232.019996,40.496 232.82,40.496 L232.82,41 Z" id="Valence-Shell-Copy" fill="#524740"></path>
                </g>
            </g>
        </g>
        <rect id="Rectangle-Copy" stroke="#3D3530" stroke-width="2" fill="#F8FAE4" x="1" y="317" width="898" height="44"></rect>
        <text id="Oxygen-Atom" font-family="Wavehaus-66Book, Wavehaus" font-size="24" font-weight="300" letter-spacing="0.666666687" fill="#23ABE3">
            <tspan x="729.422666" y="345">Oxygen Atom</tspan>
        </text>
        <path d="M743.942666,342.84 C742.550659,344.408008 740.670678,345.192 738.302666,345.192 C735.934655,345.192 734.050673,344.408008 732.650666,342.84 C731.250659,341.271992 730.550666,339.312012 730.550666,336.96 C730.550666,334.607988 731.250659,332.644008 732.650666,331.068 C734.050673,329.491992 735.934655,328.704 738.302666,328.704 C740.670678,328.704 742.550659,329.491992 743.942666,331.068 C745.334673,332.644008 746.030666,334.607988 746.030666,336.96 C746.030666,339.312012 745.334673,341.271992 743.942666,342.84 Z M733.910666,341.784 C735.014672,343.064006 736.478657,343.704 738.302666,343.704 C740.126676,343.704 741.594661,343.060006 742.706666,341.772 C743.818672,340.483994 744.374666,338.88001 744.374666,336.96 C744.374666,335.02399 743.818672,333.416006 742.706666,332.136 C741.594661,330.855994 740.126676,330.216 738.302666,330.216 C736.478657,330.216 735.014672,330.855994 733.910666,332.136 C732.806661,333.416006 732.254666,335.02399 732.254666,336.96 C732.254666,338.89601 732.806661,340.503994 733.910666,341.784 Z M758.529333,345 L756.729333,345 L753.369333,340.224 L749.985333,345 L748.209333,345 L752.481333,338.952 L748.281333,333 L750.057333,333 L753.369333,337.68 L756.657333,333 L758.457333,333 L754.257333,338.952 L758.529333,345 Z M769.18,333 L770.764,333 L764.212,350.112 L762.628,350.112 L765.148,343.536 L760.708,333 L762.292,333 L765.892,341.568 L769.18,333 Z M783.838667,333.024 L785.446667,333.024 L785.446667,343.968 C785.430666,345.712009 784.802673,347.171994 783.562667,348.348 C782.32266,349.524006 780.886675,350.112 779.254667,350.112 C777.766659,350.112 776.498672,349.716004 775.450667,348.924 C774.402661,348.131996 773.694668,347.240005 773.326667,346.248 L774.622667,345.6 C774.926668,346.416004 775.502662,347.127997 776.350667,347.736 C777.198671,348.344003 778.166661,348.648 779.254667,348.648 C780.534673,348.648 781.618662,348.180005 782.506667,347.244 C783.394671,346.307995 783.846666,345.216006 783.862667,343.968 L783.838667,343.968 L783.838667,343.08 C782.62266,344.504007 781.062676,345.216 779.158667,345.216 C777.446658,345.216 775.986673,344.612006 774.778667,343.404 C773.57066,342.195994 772.966667,340.736009 772.966667,339.024 C772.966667,337.311991 773.57066,335.852006 774.778667,334.644 C775.986673,333.435994 777.446658,332.832 779.158667,332.832 C781.046676,332.832 782.60666,333.543993 783.838667,334.968 L783.838667,333.024 Z M779.182667,343.728 C780.478673,343.728 781.570662,343.276005 782.458667,342.372 C783.346671,341.467995 783.790667,340.360007 783.790667,339.048 C783.790667,337.735993 783.346671,336.628005 782.458667,335.724 C781.570662,334.819995 780.478673,334.368 779.182667,334.368 C777.90266,334.368 776.814671,334.819995 775.918667,335.724 C775.022662,336.628005 774.574667,337.735993 774.574667,339.048 C774.574667,340.360007 775.022662,341.467995 775.918667,342.372 C776.814671,343.276005 777.90266,343.728 779.182667,343.728 Z M794.921333,343.608 C795.993339,343.608 796.953329,343.304003 797.801333,342.696 C798.649337,342.087997 799.225332,341.376004 799.529333,340.56 L800.873333,341.04 C800.505331,342.048005 799.789339,342.975996 798.725333,343.824 C797.661328,344.672004 796.393341,345.088 794.921333,345.072 C793.577326,345.072 792.349339,344.656004 791.237333,343.824 C790.125328,342.991996 789.369335,341.928006 788.969333,340.632 C788.809332,340.103997 788.729333,339.528003 788.729333,338.904 C788.729333,337.175991 789.329327,335.712006 790.529333,334.512 C791.729339,333.311994 793.193325,332.704 794.921333,332.688 C796.489341,332.704 797.857327,333.231995 799.025333,334.272 C800.193339,335.312005 800.865332,336.599992 801.041333,338.136 C801.057333,338.216 801.065333,338.319999 801.065333,338.448 L790.577333,340.344 C790.849335,341.304005 791.393329,342.091997 792.209333,342.708 C793.025337,343.324003 793.929328,343.624 794.921333,343.608 Z M794.777333,334.152 C793.577327,334.168 792.549337,334.599996 791.693333,335.448 C790.837329,336.296004 790.377334,337.311994 790.313333,338.496 C790.313333,338.544 790.317333,338.627999 790.325333,338.748 C790.333333,338.868001 790.337333,338.968 790.337333,339.048 L799.265333,337.44 C798.961332,336.463995 798.393337,335.668003 797.561333,335.052 C796.729329,334.435997 795.801338,334.136 794.777333,334.152 Z M809.412,332.808 C810.804007,332.808 811.971995,333.299995 812.916,334.284 C813.860005,335.268005 814.332,336.479993 814.332,337.92 L814.332,345 L812.724,345 L812.724,337.968 C812.724,336.943995 812.376003,336.072004 811.68,335.352 C810.983996,334.631996 810.140005,334.272 809.148,334.272 C808.155995,334.272 807.312003,334.631996 806.616,335.352 C805.919996,336.072004 805.572,336.943995 805.572,337.968 L805.572,345 L803.988,345 L803.988,333 L805.572,333 L805.572,334.776 C806.548005,333.463993 807.827992,332.808 809.412,332.808 Z M837.937333,345 L835.873333,339.96 L828.337333,339.96 L826.273333,345 L824.617333,345 L831.337333,328.872 L832.849333,328.872 L839.569333,345 L837.937333,345 Z M828.985333,338.376 L835.225333,338.376 L832.105333,330.72 L828.985333,338.376 Z M848.492,342.312 L849.284,343.536 C849.187999,343.664001 849.060001,343.815999 848.9,343.992 C848.739999,344.168001 848.380003,344.411998 847.82,344.724 C847.259997,345.036002 846.684003,345.192 846.092,345.192 C845.083995,345.192 844.240003,344.892003 843.56,344.292 C842.879997,343.691997 842.54,342.824006 842.54,341.688 L842.54,334.44 L840.62,334.44 L840.62,332.976 L842.54,332.976 L842.54,329.184 L844.124,328.992 L844.124,332.976 L847.748,332.976 L847.748,334.44 L844.124,334.44 L844.124,341.328 C844.124,342.064004 844.351998,342.647998 844.808,343.08 C845.264002,343.512002 845.787997,343.728 846.38,343.728 C846.748002,343.728 847.107998,343.616001 847.46,343.392 C847.812002,343.167999 848.071999,342.948001 848.24,342.732 C848.408001,342.515999 848.492,342.376 848.492,342.312 Z M861.302667,343.368 C860.102661,344.584006 858.646675,345.192 856.934667,345.192 C855.222658,345.192 853.762673,344.588006 852.554667,343.38 C851.346661,342.171994 850.742667,340.712009 850.742667,339 C850.742667,337.287991 851.346661,335.828006 852.554667,334.62 C853.762673,333.411994 855.222658,332.808 856.934667,332.808 C858.646675,332.808 860.106661,333.411994 861.314667,334.62 C862.522673,335.828006 863.126667,337.287991 863.126667,339 C863.126667,340.696008 862.518673,342.151994 861.302667,343.368 Z M856.958667,343.68 C858.254673,343.68 859.346662,343.228005 860.234667,342.324 C861.122671,341.419995 861.566667,340.312007 861.566667,339 C861.566667,337.687993 861.122671,336.576005 860.234667,335.664 C859.346662,334.751995 858.254673,334.296 856.958667,334.296 C855.67866,334.296 854.590671,334.751995 853.694667,335.664 C852.798662,336.576005 852.350667,337.687993 852.350667,339 C852.350667,340.312007 852.798662,341.419995 853.694667,342.324 C854.590671,343.228005 855.67866,343.68 856.958667,343.68 Z M880.353333,332.808 C881.74534,332.808 882.913329,333.299995 883.857333,334.284 C884.801338,335.268005 885.273333,336.479993 885.273333,337.92 L885.273333,345 L883.641333,345 L883.641333,337.968 C883.641333,336.927995 883.301337,336.052004 882.621333,335.34 C881.94133,334.627996 881.097338,334.272 880.089333,334.272 C879.081328,334.272 878.233337,334.627996 877.545333,335.34 C876.85733,336.052004 876.513333,336.927995 876.513333,337.968 L876.513333,345 L874.905333,345 L874.905333,337.968 C874.905333,336.943995 874.557337,336.072004 873.861333,335.352 C873.16533,334.631996 872.321338,334.272 871.329333,334.272 C870.337328,334.272 869.493337,334.631996 868.797333,335.352 C868.10133,336.072004 867.753333,336.943995 867.753333,337.968 L867.753333,345 L866.169333,345 L866.169333,333 L867.753333,333 L867.753333,334.776 C868.729338,333.463993 870.009325,332.808 871.593333,332.808 C872.505338,332.808 873.34133,333.039998 874.101333,333.504 C874.861337,333.968002 875.457331,334.591996 875.889333,335.376 C876.305335,334.591996 876.905329,333.968002 877.689333,333.504 C878.473337,333.039998 879.361328,332.808 880.353333,332.808 Z" id="Oxygen-Atom-Copy" fill="#23ABE3"></path>
    </g>
</svg>