<?xml version="1.0" encoding="UTF-8"?>
<svg width="900px" height="380px" viewBox="0 0 900 380" version="1.1" xmlns="http://www.w3.org/2000/svg" xmlns:xlink="http://www.w3.org/1999/xlink">
    <!-- Generator: Sketch 52.5 (67469) - http://www.bohemiancoding.com/sketch -->
    <title>Oxygen_Atom</title>
    <desc>Created with Sketch.</desc>
    <g id="Oxygen_Atom" stroke="none" stroke-width="1" fill="none" fill-rule="evenodd">
        <rect id="Rectangle" fill="#EEEEEE" x="0" y="0" width="900" height="380"></rect>
        <g id="Illustration" transform="translate(213.000000, 48.000000)">
            <g id="Nucleus" transform="translate(128.000000, 125.000000)">
                <circle id="Oval-Copy-5" fill="#1A80AA" cx="33" cy="48" r="19"></circle>
                <circle id="Oval" fill="#1A80AA" cx="26" cy="19" r="19"></circle>
                <circle id="Oval-Copy" fill="#C9DB31" cx="19" cy="38" r="19"></circle>
                <circle id="Oval-Copy-4" fill="#C9DB31" cx="52" cy="40" r="19"></circle>
                <circle id="Oval-Copy-2" fill="#C9DB31" cx="51" cy="22" r="19"></circle>
                <circle id="Oval-Copy-3" fill="#1A80AA" cx="40" cy="36" r="19"></circle>
            </g>
            <g id="Inner-shells" transform="translate(66.000000, 74.000000)">
                <ellipse id="Oval" stroke="#524740" stroke-width="3" transform="translate(98.699413, 81.692441) rotate(-13.000000) translate(-98.699413, -81.692441) " cx="98.6994127" cy="81.6924408" rx="86" ry="63"></ellipse>
                <circle id="Oval-Copy-6" fill="#EF7D3B" cx="56" cy="28" r="12"></circle>
                <circle id="Oval-Copy-7" fill="#EF7D3B" cx="141" cy="130" r="12"></circle>
            </g>
            <g id="Valence-Shell">
                <ellipse id="Oval-Copy-8" stroke="#524740" stroke-width="3" transform="translate(163.135072, 154.442892) rotate(30.000000) translate(-163.135072, -154.442892) " cx="163.135072" cy="154.442892" rx="128.5" ry="103"></ellipse>
                <circle id="Oval-Copy-9" fill="#EF7D3B" cx="128" cy="44" r="12"></circle>
                <circle id="Oval-Copy-10" fill="#EF7D3B" cx="80" cy="61" r="12"></circle>
                <circle id="Oval-Copy-11" fill="#EF7D3B" cx="51" cy="182" r="12"></circle>
                <circle id="Oval-Copy-12" fill="#EF7D3B" cx="79" cy="223" r="12"></circle>
                <circle id="Oval-Copy-13" fill="#EF7D3B" cx="261" cy="237" r="12"></circle>
                <circle id="Oval-Copy-14" fill="#EF7D3B" cx="276" cy="127" r="12"></circle>
            </g>
            <g id="Labels" transform="translate(198.000000, 57.000000)">
                <g id="Nucleus">
                    <polyline id="Path" stroke="#B09679" stroke-width="3" points="0.31212875 75.4125764 56.3924368 13.5663788 125.794059 13.5663788"></polyline>
                    <path d="M152.89,17.28 L152.89,7.11 C152.89,5.6099925 152.725002,4.65500205 152.395,4.245 C152.064998,3.83499795 151.280006,3.63 150.04,3.63 L150.04,3 L156.88,3 L156.88,3.63 C155.639994,3.63 154.850002,3.83499795 154.51,4.245 C154.169998,4.65500205 154,5.6099925 154,7.11 L154,21.51 L153.31,21.51 L141.1,6.42 L141.1,16.86 C141.1,18.3600075 141.269998,19.3199979 141.61,19.74 C141.950002,20.1600021 142.739994,20.37 143.98,20.37 L143.98,21 L137.14,21 L137.14,20.37 C138.380006,20.37 139.164998,20.1600021 139.495,19.74 C139.825002,19.3199979 139.99,18.3600075 139.99,16.86 L139.99,7.11 C139.99,5.6099925 139.825002,4.65500205 139.495,4.245 C139.164998,3.83499795 138.380006,3.63 137.14,3.63 L137.14,3 L141.37,3 L152.89,17.28 Z M171.040001,20.76 L167.020001,21.51 C166.86,21.1899984 166.700002,20.5500048 166.540001,19.59 C165.299995,20.8700064 163.990008,21.51 162.610001,21.51 C160.129988,21.51 158.890001,20.010015 158.890001,17.01 L158.890001,15.12 C158.890001,13.6199925 158.745002,12.6600021 158.455001,12.24 C158.164999,11.8199979 157.520006,11.61 156.520001,11.61 L156.520001,11.01 L161.020001,11.01 L161.020001,16.86 C161.020001,19.0000107 161.779993,20.07 163.300001,20.07 C163.980004,20.07 164.689997,19.7850028 165.430001,19.215 C166.170004,18.6449972 166.540001,17.9400042 166.540001,17.1 L166.540001,15.12 C166.540001,13.6199925 166.395002,12.6600021 166.105001,12.24 C165.814999,11.8199979 165.160006,11.61 164.140001,11.61 L164.140001,11.01 L168.640001,11.01 L168.640001,16.62 C168.640001,18.1200075 168.784999,19.0799979 169.075001,19.5 C169.365002,19.9200021 170.019996,20.13 171.040001,20.13 L171.040001,20.76 Z M176.560002,11.46 C175.759998,11.46 175.080004,11.9199954 174.520002,12.84 C173.959999,13.7600046 173.680002,14.8999932 173.680002,16.26 C173.680002,17.5000062 173.984998,18.4749964 174.595002,19.185 C175.205005,19.8950035 176.109996,20.25 177.310002,20.25 C178.470007,20.25 179.539997,19.7900046 180.520002,18.87 L181.030002,19.53 C179.809995,20.8500066 178.32001,21.51 176.560002,21.51 C174.919993,21.51 173.625006,21.0200049 172.675002,20.04 C171.724997,19.0599951 171.250002,17.8000077 171.250002,16.26 C171.250002,14.5999917 171.809996,13.2250054 172.930002,12.135 C174.050007,11.0449945 175.259995,10.5 176.560002,10.5 C177.740007,10.5 178.629999,10.7099979 179.230002,11.13 C179.830005,11.5500021 180.130002,12.059997 180.130002,12.66 C180.130002,12.9800016 180.025003,13.2749987 179.815002,13.545 C179.605,13.8150013 179.270004,13.95 178.810002,13.95 C178.49,13.95 178.215003,13.8350012 177.985002,13.605 C177.755,13.3749989 177.640002,13.0900017 177.640002,12.75 C177.640002,11.8899957 177.280005,11.46 176.560002,11.46 Z M187.240002,21 L180.370002,21 L180.370002,20.37 C181.370007,20.37 182.015001,20.1600021 182.305002,19.74 C182.595004,19.3199979 182.740002,18.3600075 182.740002,16.86 L182.740002,7.38 C182.740002,5.8799925 182.595004,4.9200021 182.305002,4.5 C182.015001,4.0799979 181.370007,3.87 180.370002,3.87 L180.370002,3.24 L184.870002,2.49 L184.870002,16.86 C184.870002,18.3600075 185.015001,19.3199979 185.305002,19.74 C185.595004,20.1600021 186.239997,20.37 187.240002,20.37 L187.240002,21 Z M190.060003,14.13 L195.040003,14.13 C195.240004,13.5699972 195.155005,13.0250027 194.785003,12.495 C194.415001,11.9649974 193.780008,11.7 192.880003,11.7 C192.24,11.7 191.665006,11.9199978 191.155003,12.36 C190.645001,12.8000022 190.280004,13.3899963 190.060003,14.13 Z M189.880003,15.24 C189.700002,16.7200074 189.935,17.9249953 190.585003,18.855 C191.235006,19.7850047 192.299996,20.25 193.780003,20.25 C194.280006,20.25 194.85,20.1200013 195.490003,19.86 C196.130006,19.5999987 196.660001,19.270002 197.080003,18.87 L197.620003,19.53 C197.08,20.1100029 196.390007,20.5849982 195.550003,20.955 C194.709999,21.3250018 193.870007,21.51 193.030003,21.51 C191.409995,21.51 190.080008,20.9750053 189.040003,19.905 C187.999998,18.8349946 187.480003,17.5300077 187.480003,15.99 C187.480003,14.4499923 188.044997,13.1500053 189.175003,12.09 C190.305009,11.0299947 191.589996,10.5 193.030003,10.5 C194.39001,10.5 195.499999,10.9749952 196.360003,11.925 C197.220007,12.8750048 197.470005,13.9799937 197.110003,15.24 L189.880003,15.24 Z M211.990004,20.76 L207.970004,21.51 C207.810003,21.1899984 207.650005,20.5500048 207.490004,19.59 C206.249998,20.8700064 204.940011,21.51 203.560004,21.51 C201.079991,21.51 199.840004,20.010015 199.840004,17.01 L199.840004,15.12 C199.840004,13.6199925 199.695005,12.6600021 199.405004,12.24 C199.115002,11.8199979 198.470009,11.61 197.470004,11.61 L197.470004,11.01 L201.970004,11.01 L201.970004,16.86 C201.970004,19.0000107 202.729996,20.07 204.250004,20.07 C204.930007,20.07 205.64,19.7850028 206.380004,19.215 C207.120008,18.6449972 207.490004,17.9400042 207.490004,17.1 L207.490004,15.12 C207.490004,13.6199925 207.345005,12.6600021 207.055004,12.24 C206.765002,11.8199979 206.110009,11.61 205.090004,11.61 L205.090004,11.01 L209.590004,11.01 L209.590004,16.62 C209.590004,18.1200075 209.735002,19.0799979 210.025004,19.5 C210.315005,19.9200021 210.969999,20.13 211.990004,20.13 L211.990004,20.76 Z M219.610005,18.24 C219.610005,19.2000048 219.265008,19.9849969 218.575005,20.595 C217.885001,21.2050031 217.04001,21.51 216.040005,21.51 C215.680003,21.51 215.310006,21.4400007 214.930005,21.3 C214.550003,21.1599993 214.245006,21.0250006 214.015005,20.895 C213.785003,20.7649994 213.570006,20.6650003 213.370005,20.595 C213.170004,20.5249996 213.030005,20.5599993 212.950005,20.7 C212.870004,20.8400007 212.830005,21.109998 212.830005,21.51 L212.200005,21.51 L212.200005,17.13 L212.830005,17.13 C212.830005,17.9100039 213.130002,18.6649964 213.730005,19.395 C214.330008,20.1250037 215.12,20.49 216.100005,20.49 C216.580007,20.49 216.985003,20.3400015 217.315005,20.04 C217.645006,19.7399985 217.810005,19.3800021 217.810005,18.96 C217.810005,18.3399969 217.25001,17.730003 216.130005,17.13 L214.450005,16.23 C213.129998,15.5099964 212.470005,14.5100064 212.470005,13.23 C212.470005,12.4499961 212.775002,11.8000026 213.385005,11.28 C213.995008,10.7599974 214.700001,10.5 215.500005,10.5 C216.180008,10.5 216.880001,10.6799982 217.600005,11.04 C217.840006,11.1800007 218.005004,11.2250003 218.095005,11.175 C218.185005,11.1249998 218.230005,10.900002 218.230005,10.5 L218.860005,10.5 L218.860005,13.98 L218.230005,13.98 C218.230005,13.3199967 218.005007,12.7350026 217.555005,12.225 C217.105002,11.7149975 216.520008,11.46 215.800005,11.46 C215.300002,11.46 214.920006,11.5799988 214.660005,11.82 C214.400003,12.0600012 214.270005,12.3699981 214.270005,12.75 C214.270005,13.0900017 214.400003,13.3849988 214.660005,13.635 C214.920006,13.8850013 215.400001,14.1999981 216.100005,14.58 L217.540005,15.36 C218.920011,16.1400039 219.610005,17.0999943 219.610005,18.24 Z" id="Nucleus-Copy" fill="#524740"></path>
                </g>
                <g id="Electron" transform="translate(20.000000, 93.000000)">
                    <path d="M144.14,21 L144.14,20.37 C145.380006,20.37 146.164998,20.1600021 146.495,19.74 C146.825002,19.3199979 146.99,18.3600075 146.99,16.86 L146.99,7.11 C146.99,5.6099925 146.825002,4.65500205 146.495,4.245 C146.164998,3.83499795 145.380006,3.63 144.14,3.63 L144.14,3 L157.82,3 L158.09,6.96 L157.46,6.96 L157.31,6.36 C157.069999,5.4799956 156.750002,4.88500155 156.35,4.575 C155.949998,4.26499845 155.110006,4.11 153.83,4.11 L149.39,4.11 L149.39,10.92 L150.89,10.92 C152.390007,10.92 153.344998,10.7550017 153.755,10.425 C154.165002,10.0949984 154.37,9.3000063 154.37,8.04 L155,8.04 L155,14.91 L154.37,14.91 C154.37,13.6499937 154.165002,12.8550016 153.755,12.525 C153.344998,12.1949983 152.390007,12.03 150.89,12.03 L149.39,12.03 L149.39,16.41 C149.39,17.9100075 149.554998,18.8649979 149.885,19.275 C150.215002,19.6850021 150.999994,19.89 152.24,19.89 L154.82,19.89 C155.720004,19.89 156.404998,19.8000009 156.875,19.62 C157.345002,19.4399991 157.664999,19.2100014 157.835,18.93 C158.005001,18.6499986 158.159999,18.210003 158.3,17.61 L158.45,17.01 L159.08,17.01 L158.84,21 L144.14,21 Z M166.130001,21 L159.260001,21 L159.260001,20.37 C160.260006,20.37 160.904999,20.1600021 161.195001,19.74 C161.485002,19.3199979 161.630001,18.3600075 161.630001,16.86 L161.630001,7.38 C161.630001,5.8799925 161.485002,4.9200021 161.195001,4.5 C160.904999,4.0799979 160.260006,3.87 159.260001,3.87 L159.260001,3.24 L163.760001,2.49 L163.760001,16.86 C163.760001,18.3600075 163.904999,19.3199979 164.195001,19.74 C164.485002,20.1600021 165.129996,20.37 166.130001,20.37 L166.130001,21 Z M168.950002,14.13 L173.930002,14.13 C174.130003,13.5699972 174.045003,13.0250027 173.675002,12.495 C173.305,11.9649974 172.670006,11.7 171.770002,11.7 C171.129998,11.7 170.555004,11.9199978 170.045002,12.36 C169.534999,12.8000022 169.170003,13.3899963 168.950002,14.13 Z M168.770002,15.24 C168.590001,16.7200074 168.824998,17.9249953 169.475002,18.855 C170.125005,19.7850047 171.189994,20.25 172.670002,20.25 C173.170004,20.25 173.739998,20.1200013 174.380002,19.86 C175.020005,19.5999987 175.549999,19.270002 175.970002,18.87 L176.510002,19.53 C175.969999,20.1100029 175.280006,20.5849982 174.440002,20.955 C173.599997,21.3250018 172.760006,21.51 171.920002,21.51 C170.299993,21.51 168.970007,20.9750053 167.930002,19.905 C166.889996,18.8349946 166.370002,17.5300077 166.370002,15.99 C166.370002,14.4499923 166.934996,13.1500053 168.065002,12.09 C169.195007,11.0299947 170.479994,10.5 171.920002,10.5 C173.280008,10.5 174.389997,10.9749952 175.250002,11.925 C176.110006,12.8750048 176.360003,13.9799937 176.000002,15.24 L168.770002,15.24 Z M182.540002,11.46 C181.739998,11.46 181.060005,11.9199954 180.500002,12.84 C179.939999,13.7600046 179.660002,14.8999932 179.660002,16.26 C179.660002,17.5000062 179.964999,18.4749964 180.575002,19.185 C181.185005,19.8950035 182.089996,20.25 183.290002,20.25 C184.450008,20.25 185.519997,19.7900046 186.500002,18.87 L187.010002,19.53 C185.789996,20.8500066 184.300011,21.51 182.540002,21.51 C180.899994,21.51 179.605007,21.0200049 178.655002,20.04 C177.704998,19.0599951 177.230002,17.8000077 177.230002,16.26 C177.230002,14.5999917 177.789997,13.2250054 178.910002,12.135 C180.030008,11.0449945 181.239996,10.5 182.540002,10.5 C183.720008,10.5 184.609999,10.7099979 185.210002,11.13 C185.810005,11.5500021 186.110002,12.059997 186.110002,12.66 C186.110002,12.9800016 186.005003,13.2749987 185.795002,13.545 C185.585001,13.8150013 185.250005,13.95 184.790002,13.95 C184.470001,13.95 184.195003,13.8350012 183.965002,13.605 C183.735001,13.3749989 183.620002,13.0900017 183.620002,12.75 C183.620002,11.8899957 183.260006,11.46 182.540002,11.46 Z M188.180003,12.06 L186.620003,12.06 L186.620003,11.34 C187.480007,11.1599991 188.110001,10.770003 188.510003,10.17 C188.910005,9.569997 189.170002,8.7500052 189.290003,7.71 L190.310003,7.71 L190.310003,11.01 L192.920003,11.01 L192.920003,12.06 L190.310003,12.06 L190.310003,18.06 C190.310003,19.5000072 190.759999,20.22 191.660003,20.22 C192.240006,20.22 192.889999,19.8800034 193.610003,19.2 L194.120003,19.71 C193.700001,20.2100025 193.195006,20.6199984 192.605003,20.94 C192.015,21.2600016 191.470006,21.42 190.970003,21.42 C190.109999,21.42 189.430006,21.1400028 188.930003,20.58 C188.430001,20.0199972 188.180003,19.1800056 188.180003,18.06 L188.180003,12.06 Z M203.990004,12.36 C203.990004,13.3000047 203.590008,13.77 202.790004,13.77 C202.510002,13.77 202.265005,13.6600011 202.055004,13.44 C201.845003,13.2199989 201.740004,12.9700014 201.740004,12.69 C201.740004,12.0299967 201.420007,11.7 200.780004,11.7 C200.320002,11.7 199.820007,12.0199968 199.280004,12.66 C198.740001,13.3000032 198.470004,14.1499947 198.470004,15.21 L198.470004,16.86 C198.470004,18.3600075 198.615002,19.3199979 198.905004,19.74 C199.195005,20.1600021 199.839999,20.37 200.840004,20.37 L200.840004,21 L193.970004,21 L193.970004,20.37 C194.970009,20.37 195.615002,20.1600021 195.905004,19.74 C196.195005,19.3199979 196.340004,18.3600075 196.340004,16.86 L196.340004,15.36 C196.340004,13.8799926 196.195005,12.9300021 195.905004,12.51 C195.615002,12.0899979 194.970009,11.88 193.970004,11.88 L193.970004,11.25 L197.960004,10.5 C198.140005,10.8800019 198.310003,11.5999947 198.470004,12.66 C198.770005,12.059997 199.220001,11.5500021 199.820004,11.13 C200.420007,10.7099979 201.020001,10.5 201.620004,10.5 C202.380008,10.5 202.965002,10.699998 203.375004,11.1 C203.785006,11.500002 203.990004,11.9199978 203.990004,12.36 Z M214.580005,12.12 C215.780011,13.1800053 216.380005,14.4699924 216.380005,15.99 C216.380005,17.5100076 215.785011,18.8099946 214.595005,19.89 C213.404999,20.9700054 211.980013,21.51 210.320005,21.51 C208.659996,21.51 207.235011,20.9700054 206.045005,19.89 C204.854999,18.8099946 204.260005,17.5100076 204.260005,15.99 C204.260005,14.4699924 204.854999,13.1750053 206.045005,12.105 C207.235011,11.0349947 208.659996,10.5 210.320005,10.5 C211.980013,10.5 213.399999,11.0399946 214.580005,12.12 Z M213.020005,19.14 C213.640008,18.3199959 213.950005,17.2700064 213.950005,15.99 C213.950005,14.7099936 213.640008,13.6650041 213.020005,12.855 C212.400001,12.044996 211.50001,11.64 210.320005,11.64 C209.139999,11.64 208.240008,12.0499959 207.620005,12.87 C207.000001,13.6900041 206.690005,14.7299937 206.690005,15.99 C206.690005,17.2500063 207.000001,18.2899959 207.620005,19.11 C208.240008,19.9300041 209.139999,20.34 210.320005,20.34 C211.50001,20.34 212.400001,19.940004 213.020005,19.14 Z M221.660005,12.66 C222.800011,11.2199928 224.189997,10.5 225.830005,10.5 C227.130012,10.5 228.105002,10.9099959 228.755005,11.73 C229.405009,12.5500041 229.730005,13.6299933 229.730005,14.97 L229.730005,16.86 C229.730005,18.3600075 229.875004,19.3199979 230.165005,19.74 C230.455007,20.1600021 231.1,20.37 232.100005,20.37 L232.100005,21 L225.230005,21 L225.230005,20.37 C226.21001,20.37 226.850004,20.1550022 227.150005,19.725 C227.450007,19.2949979 227.600005,18.3400074 227.600005,16.86 L227.600005,15.12 C227.600005,12.9799893 226.770014,11.91 225.110005,11.91 C224.250001,11.91 223.460009,12.209997 222.740005,12.81 C222.020002,13.410003 221.660005,14.109996 221.660005,14.91 L221.660005,16.86 C221.660005,18.4000077 221.780004,19.369998 222.020005,19.77 C222.260007,20.170002 222.840001,20.37 223.760005,20.37 L223.760005,21 L217.160005,21 L217.160005,20.37 C218.16001,20.37 218.805004,20.1600021 219.095005,19.74 C219.385007,19.3199979 219.530005,18.3600075 219.530005,16.86 L219.530005,15.36 C219.530005,13.8799926 219.385007,12.9300021 219.095005,12.51 C218.805004,12.0899979 218.16001,11.88 217.160005,11.88 L217.160005,11.25 L221.150005,10.5 C221.330006,10.8800019 221.500005,11.5999947 221.660005,12.66 Z" id="Electron-Copy" fill="#524740"></path>
                    <polyline id="Path-2" stroke="#B09679" stroke-width="3" points="0.277796982 52.941732 85.6797631 13.1992832 137.794264 13.1992832"></polyline>
                </g>
                <g id="Valence-Shell" transform="translate(84.000000, 146.000000)">
                    <polyline id="Path-3" stroke="#B09679" stroke-width="3" points="0.371064515 0.297860708 36.3832641 34.4572409 86.2511776 34.4572409"></polyline>
                    <path d="M111.62,24.63 C110.439994,24.63 109.675002,24.7749985 109.325,25.065 C108.974998,25.3550015 108.550003,26.0799942 108.05,27.24 L101.45,42.51 L101.06,42.51 L94.43,27.24 C93.9299975,26.0799942 93.5050018,25.3550015 93.155,25.065 C92.8049982,24.7749985 92.0400059,24.63 90.86,24.63 L90.86,24 L99.17,24 L99.17,24.63 C97.9299938,24.63 97.1350018,24.8049983 96.785,25.155 C96.4349983,25.5050017 96.4499981,26.0899959 96.83,26.91 L101.93,38.58 L106.97,26.91 C107.350002,26.0899959 107.365002,25.5050017 107.015,25.155 C106.664998,24.8049983 105.870006,24.63 104.63,24.63 L104.63,24 L111.62,24 L111.62,24.63 Z M118.070001,41.4 C117.489998,42.0200031 116.830004,42.33 116.090001,42.33 C114.889995,42.33 114.210002,41.7500058 114.050001,40.59 C112.709994,41.790006 111.460007,42.39 110.300001,42.39 C109.539997,42.39 108.900003,42.1650023 108.380001,41.715 C107.859998,41.2649977 107.600001,40.6500039 107.600001,39.87 C107.600001,37.7699895 109.729979,36.3500037 113.990001,35.61 C113.990001,34.4299941 113.860002,33.6100023 113.600001,33.15 C113.339999,32.6899977 112.800005,32.46 111.980001,32.46 C111.579999,32.46 111.195003,32.5899987 110.825001,32.85 C110.454999,33.1100013 110.270001,33.4599978 110.270001,33.9 C110.270001,34.2000015 110.170002,34.449999 109.970001,34.65 C109.77,34.850001 109.530002,34.95 109.250001,34.95 C108.949999,34.95 108.700002,34.850001 108.500001,34.65 C108.3,34.449999 108.200001,34.2000015 108.200001,33.9 C108.200001,33.1999965 108.584997,32.6250023 109.355001,32.175 C110.125005,31.7249977 111.009996,31.5 112.010001,31.5 C113.470008,31.5 114.519998,31.8199968 115.160001,32.46 C115.800004,33.1000032 116.120001,34.1399928 116.120001,35.58 L116.120001,40.11 C116.120001,40.8900039 116.349998,41.28 116.810001,41.28 C117.070002,41.28 117.349999,41.1300015 117.650001,40.83 L118.070001,41.4 Z M113.990001,39.6 L113.990001,36.54 C111.229987,37.1800032 109.850001,38.1699933 109.850001,39.51 C109.850001,39.9700023 109.984999,40.3399986 110.255001,40.62 C110.525002,40.9000014 110.859999,41.04 111.260001,41.04 C112.000004,41.04 112.909995,40.5600048 113.990001,39.6 Z M124.190002,42 L117.320002,42 L117.320002,41.37 C118.320007,41.37 118.965,41.1600021 119.255002,40.74 C119.545003,40.3199979 119.690002,39.3600075 119.690002,37.86 L119.690002,28.38 C119.690002,26.8799925 119.545003,25.9200021 119.255002,25.5 C118.965,25.0799979 118.320007,24.87 117.320002,24.87 L117.320002,24.24 L121.820002,23.49 L121.820002,37.86 C121.820002,39.3600075 121.965,40.3199979 122.255002,40.74 C122.545003,41.1600021 123.189997,41.37 124.190002,41.37 L124.190002,42 Z M127.010002,35.13 L131.990002,35.13 C132.190003,34.5699972 132.105004,34.0250027 131.735002,33.495 C131.365,32.9649974 130.730007,32.7 129.830002,32.7 C129.189999,32.7 128.615005,32.9199978 128.105002,33.36 C127.595,33.8000022 127.230003,34.3899963 127.010002,35.13 Z M126.830002,36.24 C126.650001,37.7200074 126.884999,38.9249954 127.535002,39.855 C128.185006,40.7850047 129.249995,41.25 130.730002,41.25 C131.230005,41.25 131.799999,41.1200013 132.440002,40.86 C133.080005,40.5999987 133.61,40.270002 134.030002,39.87 L134.570002,40.53 C134.03,41.1100029 133.340006,41.5849982 132.500002,41.955 C131.659998,42.3250018 130.820006,42.51 129.980002,42.51 C128.359994,42.51 127.030007,41.9750054 125.990002,40.905 C124.949997,39.8349946 124.430002,38.5300077 124.430002,36.99 C124.430002,35.4499923 124.994997,34.1500053 126.125002,33.09 C127.255008,32.0299947 128.539995,31.5 129.980002,31.5 C131.340009,31.5 132.449998,31.9749952 133.310002,32.925 C134.170007,33.8750048 134.420004,34.9799937 134.060002,36.24 L126.830002,36.24 Z M139.490003,33.66 C140.630009,32.2199928 142.019995,31.5 143.660003,31.5 C144.96001,31.5 145.935,31.9099959 146.585003,32.73 C147.235006,33.5500041 147.560003,34.6299933 147.560003,35.97 L147.560003,37.86 C147.560003,39.3600075 147.705002,40.3199979 147.995003,40.74 C148.285005,41.1600021 148.929998,41.37 149.930003,41.37 L149.930003,42 L143.060003,42 L143.060003,41.37 C144.040008,41.37 144.680002,41.1550022 144.980003,40.725 C145.280005,40.2949979 145.430003,39.3400074 145.430003,37.86 L145.430003,36.12 C145.430003,33.9799893 144.600011,32.91 142.940003,32.91 C142.079999,32.91 141.290007,33.209997 140.570003,33.81 C139.849999,34.410003 139.490003,35.109996 139.490003,35.91 L139.490003,37.86 C139.490003,39.4000077 139.610002,40.369998 139.850003,40.77 C140.090004,41.170002 140.669998,41.37 141.590003,41.37 L141.590003,42 L134.990003,42 L134.990003,41.37 C135.990008,41.37 136.635002,41.1600021 136.925003,40.74 C137.215005,40.3199979 137.360003,39.3600075 137.360003,37.86 L137.360003,36.36 C137.360003,34.8799926 137.215005,33.9300021 136.925003,33.51 C136.635002,33.0899979 135.990008,32.88 134.990003,32.88 L134.990003,32.25 L138.980003,31.5 C139.160004,31.8800019 139.330002,32.5999947 139.490003,33.66 Z M155.450004,32.46 C154.65,32.46 153.970007,32.9199954 153.410004,33.84 C152.850001,34.7600046 152.570004,35.8999932 152.570004,37.26 C152.570004,38.5000062 152.875001,39.4749964 153.485004,40.185 C154.095007,40.8950035 154.999998,41.25 156.200004,41.25 C157.36001,41.25 158.429999,40.7900046 159.410004,39.87 L159.920004,40.53 C158.699998,41.8500066 157.210013,42.51 155.450004,42.51 C153.809996,42.51 152.515009,42.0200049 151.565004,41.04 C150.614999,40.0599951 150.140004,38.8000077 150.140004,37.26 C150.140004,35.5999917 150.699998,34.2250054 151.820004,33.135 C152.940009,32.0449945 154.149997,31.5 155.450004,31.5 C156.63001,31.5 157.520001,31.7099979 158.120004,32.13 C158.720007,32.5500021 159.020004,33.059997 159.020004,33.66 C159.020004,33.9800016 158.915005,34.2749987 158.705004,34.545 C158.495003,34.8150014 158.160006,34.95 157.700004,34.95 C157.380002,34.95 157.105005,34.8350011 156.875004,34.605 C156.645003,34.3749988 156.530004,34.0900017 156.530004,33.75 C156.530004,32.8899957 156.170007,32.46 155.450004,32.46 Z M162.710005,35.13 L167.690005,35.13 C167.890006,34.5699972 167.805006,34.0250027 167.435005,33.495 C167.065003,32.9649974 166.430009,32.7 165.530005,32.7 C164.890001,32.7 164.315007,32.9199978 163.805005,33.36 C163.295002,33.8000022 162.930006,34.3899963 162.710005,35.13 Z M162.530005,36.24 C162.350004,37.7200074 162.585001,38.9249954 163.235005,39.855 C163.885008,40.7850047 164.949997,41.25 166.430005,41.25 C166.930007,41.25 167.500001,41.1200013 168.140005,40.86 C168.780008,40.5999987 169.310002,40.270002 169.730005,39.87 L170.270005,40.53 C169.730002,41.1100029 169.040009,41.5849982 168.200005,41.955 C167.36,42.3250018 166.520009,42.51 165.680005,42.51 C164.059996,42.51 162.73001,41.9750054 161.690005,40.905 C160.649999,39.8349946 160.130005,38.5300077 160.130005,36.99 C160.130005,35.4499923 160.694999,34.1500053 161.825005,33.09 C162.95501,32.0299947 164.239997,31.5 165.680005,31.5 C167.040011,31.5 168.15,31.9749952 169.010005,32.925 C169.870009,33.8750048 170.120006,34.9799937 169.760005,36.24 L162.530005,36.24 Z M178.070006,41.1 C177.610004,41.4800019 177.320007,41.9499972 177.200006,42.51 L176.600006,42.51 L176.600006,35.91 L177.230006,35.91 C177.230006,35.9900004 177.235006,36.0949994 177.245006,36.225 C177.255006,36.3550007 177.295006,36.6049982 177.365006,36.975 C177.435006,37.3450019 177.535005,37.6999983 177.665006,38.04 C177.795007,38.3800017 178.000005,38.7599979 178.280006,39.18 C178.560008,39.6000021 178.885004,39.9599985 179.255006,40.26 C179.625008,40.5600015 180.115003,40.809999 180.725006,41.01 C181.335009,41.210001 182.010002,41.31 182.750006,41.31 C183.830012,41.31 184.725003,41.0000031 185.435006,40.38 C186.14501,39.7599969 186.500006,38.9700048 186.500006,38.01 C186.500006,36.7899939 185.350018,35.580006 183.050006,34.38 L180.170006,32.91 C179.230001,32.4099975 178.440009,31.7300043 177.800006,30.87 C177.160003,30.0099957 176.840006,29.0400054 176.840006,27.96 C176.840006,26.6999937 177.310001,25.6400043 178.250006,24.78 C179.190011,23.9199957 180.379999,23.49 181.820006,23.49 C183.140013,23.49 184.360001,23.8999959 185.480006,24.72 C185.940008,24.3399981 186.230006,23.8800027 186.350006,23.34 L186.950006,23.34 L186.950006,29.94 L186.320006,29.94 C186.020005,26.4399825 184.49002,24.69 181.730006,24.69 C180.890002,24.69 180.195009,24.9449975 179.645006,25.455 C179.095003,25.9650025 178.820006,26.5999962 178.820006,27.36 C178.820006,28.1000037 179.085003,28.7249975 179.615006,29.235 C180.145009,29.7450026 181.099999,30.3599964 182.480006,31.08 L185.330006,32.55 C187.430017,33.6100053 188.480006,35.1299901 188.480006,37.11 C188.480006,38.710008 187.925012,40.009995 186.815006,41.01 C185.705001,42.010005 184.350014,42.51 182.750006,42.51 C182.070003,42.51 181.420009,42.410001 180.800006,42.21 C180.180003,42.009999 179.620009,41.7850013 179.120006,41.535 C178.620004,41.2849987 178.270007,41.1400002 178.070006,41.1 Z M203.240007,42 L196.610007,42 L196.610007,41.37 C197.550012,41.37 198.140006,41.170002 198.380007,40.77 C198.620008,40.369998 198.740007,39.4000077 198.740007,37.86 L198.740007,36.12 C198.740007,33.9799893 197.980014,32.91 196.460007,32.91 C195.660003,32.91 194.92001,33.2049971 194.240007,33.795 C193.560003,34.385003 193.220007,35.0899959 193.220007,35.91 L193.220007,37.86 C193.220007,39.4200078 193.330006,40.394998 193.550007,40.785 C193.770008,41.1750019 194.290003,41.37 195.110007,41.37 L195.110007,42 L188.720007,42 L188.720007,41.37 C189.720012,41.37 190.365005,41.1600021 190.655007,40.74 C190.945008,40.3199979 191.090007,39.3600075 191.090007,37.86 L191.090007,28.38 C191.090007,26.8799925 190.945008,25.9200021 190.655007,25.5 C190.365005,25.0799979 189.720012,24.87 188.720007,24.87 L188.720007,24.24 L193.220007,23.49 L193.220007,33.66 C194.400013,32.2199928 195.71,31.5 197.150007,31.5 C199.610019,31.5 200.840007,32.9899851 200.840007,35.97 L200.840007,37.86 C200.840007,39.3600075 200.985005,40.3199979 201.275007,40.74 C201.565008,41.1600021 202.220002,41.37 203.240007,41.37 L203.240007,42 Z M206.030008,35.13 L211.010008,35.13 C211.210009,34.5699972 211.125009,34.0250027 210.755008,33.495 C210.385006,32.9649974 209.750012,32.7 208.850008,32.7 C208.210004,32.7 207.63501,32.9199978 207.125008,33.36 C206.615005,33.8000022 206.250009,34.3899963 206.030008,35.13 Z M205.850008,36.24 C205.670007,37.7200074 205.905004,38.9249954 206.555008,39.855 C207.205011,40.7850047 208.27,41.25 209.750008,41.25 C210.25001,41.25 210.820004,41.1200013 211.460008,40.86 C212.100011,40.5999987 212.630006,40.270002 213.050008,39.87 L213.590008,40.53 C213.050005,41.1100029 212.360012,41.5849982 211.520008,41.955 C210.680003,42.3250018 209.840012,42.51 209.000008,42.51 C207.38,42.51 206.050013,41.9750054 205.010008,40.905 C203.970002,39.8349946 203.450008,38.5300077 203.450008,36.99 C203.450008,35.4499923 204.015002,34.1500053 205.145008,33.09 C206.275013,32.0299947 207.56,31.5 209.000008,31.5 C210.360014,31.5 211.470003,31.9749952 212.330008,32.925 C213.190012,33.8750048 213.440009,34.9799937 213.080008,36.24 L205.850008,36.24 Z M220.310008,42 L213.440008,42 L213.440008,41.37 C214.440013,41.37 215.085007,41.1600021 215.375008,40.74 C215.66501,40.3199979 215.810008,39.3600075 215.810008,37.86 L215.810008,28.38 C215.810008,26.8799925 215.66501,25.9200021 215.375008,25.5 C215.085007,25.0799979 214.440013,24.87 213.440008,24.87 L213.440008,24.24 L217.940008,23.49 L217.940008,37.86 C217.940008,39.3600075 218.085007,40.3199979 218.375008,40.74 C218.66501,41.1600021 219.310003,41.37 220.310008,41.37 L220.310008,42 Z M226.550009,42 L219.680009,42 L219.680009,41.37 C220.680014,41.37 221.325008,41.1600021 221.615009,40.74 C221.905011,40.3199979 222.050009,39.3600075 222.050009,37.86 L222.050009,28.38 C222.050009,26.8799925 221.905011,25.9200021 221.615009,25.5 C221.325008,25.0799979 220.680014,24.87 219.680009,24.87 L219.680009,24.24 L224.180009,23.49 L224.180009,37.86 C224.180009,39.3600075 224.325008,40.3199979 224.615009,40.74 C224.905011,41.1600021 225.550004,41.37 226.550009,41.37 L226.550009,42 Z" id="Valence-Shell-Copy" fill="#524740"></path>
                </g>
            </g>
        </g>
        <path d="M34.78,40.76 C32.6919896,43.1120118 29.8720178,44.288 26.32,44.288 C22.7679822,44.288 19.9420105,43.1120118 17.842,40.76 C15.7419895,38.4079882 14.692,35.4680176 14.692,31.94 C14.692,28.4119824 15.7419895,25.4660118 17.842,23.102 C19.9420105,20.7379882 22.7679822,19.556 26.32,19.556 C29.8720178,19.556 32.6919896,20.7379882 34.78,23.102 C36.8680104,25.4660118 37.912,28.4119824 37.912,31.94 C37.912,35.4680176 36.8680104,38.4079882 34.78,40.76 Z M19.732,39.176 C21.3880083,41.0960096 23.5839863,42.056 26.32,42.056 C29.0560137,42.056 31.2579917,41.0900097 32.926,39.158 C34.5940083,37.2259903 35.428,34.8200144 35.428,31.94 C35.428,29.0359855 34.5940083,26.6240096 32.926,24.704 C31.2579917,22.7839904 29.0560137,21.824 26.32,21.824 C23.5839863,21.824 21.3880083,22.7839904 19.732,24.704 C18.0759917,26.6240096 17.248,29.0359855 17.248,31.94 C17.248,34.8440145 18.0759917,37.2559904 19.732,39.176 Z M53.5000006,44 L50.8000006,44 L45.7600006,36.836 L40.6840006,44 L38.0200006,44 L44.4280006,34.928 L38.1280006,26 L40.7920006,26 L45.7600006,33.02 L50.6920006,26 L53.3920006,26 L47.0920006,34.928 L53.5000006,44 Z M66.3160013,26 L68.6920013,26 L58.8640013,51.668 L56.4880013,51.668 L60.2680013,41.804 L53.6080013,26 L55.9840013,26 L61.3840013,38.852 L66.3160013,26 Z M85.1440019,26.036 L87.5560019,26.036 L87.5560019,42.452 C87.5320018,45.0680131 86.5900112,47.2579912 84.7300019,49.022 C82.8699926,50.7860088 80.7160141,51.668 78.2680019,51.668 C76.0359907,51.668 74.1340097,51.0740059 72.5620019,49.886 C70.989994,48.6979941 69.9280046,47.3600074 69.3760019,45.872 L71.3200019,44.9 C71.7760042,46.1240061 72.6399955,47.1919954 73.9120019,48.104 C75.1840082,49.0160046 76.6359937,49.472 78.2680019,49.472 C80.1880115,49.472 81.8139952,48.770007 83.1460019,47.366 C84.4780085,45.961993 85.1560018,44.3240094 85.1800019,42.452 L85.1440019,42.452 L85.1440019,41.12 C83.3199928,43.2560107 80.9800162,44.324 78.1240019,44.324 C75.555989,44.324 73.3660109,43.4180091 71.5540019,41.606 C69.7419928,39.7939909 68.8360019,37.6040128 68.8360019,35.036 C68.8360019,32.4679872 69.7419928,30.2780091 71.5540019,28.466 C73.3660109,26.6539909 75.555989,25.748 78.1240019,25.748 C80.956016,25.748 83.2959926,26.8159893 85.1440019,28.952 L85.1440019,26.036 Z M78.1600019,42.092 C80.1040116,42.092 81.7419952,41.4140068 83.0740019,40.058 C84.4060085,38.7019932 85.0720019,37.0400098 85.0720019,35.072 C85.0720019,33.1039902 84.4060085,31.4420068 83.0740019,30.086 C81.7419952,28.7299932 80.1040116,28.052 78.1600019,28.052 C76.2399923,28.052 74.6080086,28.7299932 73.2640019,30.086 C71.9199952,31.4420068 71.2480019,33.1039902 71.2480019,35.072 C71.2480019,37.0400098 71.9199952,38.7019932 73.2640019,40.058 C74.6080086,41.4140068 76.2399923,42.092 78.1600019,42.092 Z M98.6080025,41.912 C100.216011,41.912 101.655996,41.4560046 102.928003,40.544 C104.200009,39.6319954 105.064,38.5640061 105.520003,37.34 L107.536003,38.06 C106.984,39.5720076 105.91001,40.9639936 104.314003,42.236 C102.717995,43.5080064 100.816014,44.1320001 98.6080025,44.108 C96.5919924,44.108 94.7500109,43.4840062 93.0820025,42.236 C91.4139942,40.9879938 90.2800055,39.3920097 89.6800025,37.448 C89.4400013,36.655996 89.3200025,35.7920047 89.3200025,34.856 C89.3200025,32.263987 90.2199935,30.068009 92.0200025,28.268 C93.8200115,26.467991 96.0159896,25.5560001 98.6080025,25.532 C100.960014,25.5560001 103.011994,26.3479922 104.764003,27.908 C106.516011,29.4680078 107.524001,31.3999885 107.788003,33.704 C107.812003,33.8240006 107.824003,33.979999 107.824003,34.172 L92.0920025,37.016 C92.5000046,38.4560072 93.3159964,39.6379954 94.5400025,40.562 C95.7640086,41.4860046 97.1199951,41.9360001 98.6080025,41.912 Z M98.3920025,27.728 C96.5919935,27.7520001 95.0500089,28.3999936 93.7660025,29.672 C92.4819961,30.9440064 91.792003,32.4679911 91.6960025,34.244 C91.6960025,34.3160004 91.7020025,34.4419991 91.7140025,34.622 C91.7260026,34.8020009 91.7320025,34.9519994 91.7320025,35.072 L105.124003,32.66 C104.668,31.1959927 103.816009,30.0020046 102.568003,29.078 C101.319996,28.1539954 99.9280102,27.7039999 98.3920025,27.728 Z M117.184003,25.712 C119.272014,25.712 121.023996,26.4499926 122.440003,27.926 C123.85601,29.4020074 124.564003,31.2199892 124.564003,33.38 L124.564003,44 L122.152003,44 L122.152003,33.452 C122.152003,31.9159923 121.630008,30.6080054 120.586003,29.528 C119.541998,28.4479946 118.276011,27.908 116.788003,27.908 C115.299996,27.908 114.034008,28.4479946 112.990003,29.528 C111.945998,30.6080054 111.424003,31.9159923 111.424003,33.452 L111.424003,44 L109.048003,44 L109.048003,26 L111.424003,26 L111.424003,28.664 C112.88801,26.6959902 114.807991,25.712 117.184003,25.712 Z M153.652004,44 L150.556004,36.44 L139.252004,36.44 L136.156004,44 L133.672004,44 L143.752004,19.808 L146.020004,19.808 L156.100004,44 L153.652004,44 Z M140.224004,34.064 L149.584004,34.064 L144.904004,22.58 L140.224004,34.064 Z M166.324005,39.968 L167.512005,41.804 C167.368004,41.996001 167.176006,42.2239987 166.936005,42.488 C166.696004,42.7520013 166.156009,43.1179977 165.316005,43.586 C164.476001,44.0540023 163.612009,44.288 162.724005,44.288 C161.211997,44.288 159.94601,43.8380045 158.926005,42.938 C157.906,42.0379955 157.396005,40.7360085 157.396005,39.032 L157.396005,28.16 L154.516005,28.16 L154.516005,25.964 L157.396005,25.964 L157.396005,20.276 L159.772005,19.988 L159.772005,25.964 L165.208005,25.964 L165.208005,28.16 L159.772005,28.16 L159.772005,38.492 C159.772005,39.5960055 160.114002,40.4719968 160.798005,41.12 C161.482008,41.7680032 162.268001,42.092 163.156005,42.092 C163.708008,42.092 164.248002,41.9240017 164.776005,41.588 C165.304008,41.2519983 165.694004,40.9220016 165.946005,40.598 C166.198006,40.2739984 166.324005,40.0640005 166.324005,39.968 Z M182.380006,41.552 C180.579997,43.3760091 178.396019,44.288 175.828006,44.288 C173.259993,44.288 171.070015,43.3820091 169.258006,41.57 C167.445997,39.7579909 166.540006,37.5680128 166.540006,35 C166.540006,32.4319872 167.445997,30.2420091 169.258006,28.43 C171.070015,26.6179909 173.259993,25.712 175.828006,25.712 C178.396019,25.712 180.585997,26.6179909 182.398006,28.43 C184.210015,30.2420091 185.116006,32.4319872 185.116006,35 C185.116006,37.5440127 184.204015,39.7279909 182.380006,41.552 Z M175.864006,42.02 C177.808015,42.02 179.445999,41.3420068 180.778006,39.986 C182.110012,38.6299932 182.776006,36.9680098 182.776006,35 C182.776006,33.0319902 182.110012,31.3640068 180.778006,29.996 C179.445999,28.6279932 177.808015,27.944 175.864006,27.944 C173.943996,27.944 172.312012,28.6279932 170.968006,29.996 C169.623999,31.3640068 168.952006,33.0319902 168.952006,35 C168.952006,36.9680098 169.623999,38.6299932 170.968006,39.986 C172.312012,41.3420068 173.943996,42.02 175.864006,42.02 Z M207.796006,25.712 C209.884017,25.712 211.635999,26.4499926 213.052006,27.926 C214.468013,29.4020074 215.176006,31.2199892 215.176006,33.38 L215.176006,44 L212.728006,44 L212.728006,33.452 C212.728006,31.8919922 212.218011,30.5780053 211.198006,29.51 C210.178001,28.4419947 208.912014,27.908 207.400006,27.908 C205.887999,27.908 204.616011,28.4419947 203.584006,29.51 C202.552001,30.5780053 202.036006,31.8919922 202.036006,33.452 L202.036006,44 L199.624006,44 L199.624006,33.452 C199.624006,31.9159923 199.102012,30.6080054 198.058006,29.528 C197.014001,28.4479946 195.748014,27.908 194.260006,27.908 C192.771999,27.908 191.506012,28.4479946 190.462006,29.528 C189.418001,30.6080054 188.896006,31.9159923 188.896006,33.452 L188.896006,44 L186.520006,44 L186.520006,26 L188.896006,26 L188.896006,28.664 C190.360014,26.6959902 192.279994,25.712 194.656006,25.712 C196.024013,25.712 197.278001,26.0599965 198.418006,26.756 C199.558012,27.4520035 200.452003,28.3879941 201.100006,29.564 C201.724009,28.3879941 202.624,27.4520035 203.800006,26.756 C204.976012,26.0599965 206.307999,25.712 207.796006,25.712 Z" id="Oxygen-Atom-Copy" fill="#23ABE3"></path>
    </g>
</svg>