<?xml version="1.0" encoding="UTF-8"?>
<svg width="900px" height="400px" viewBox="0 0 900 400" version="1.1" xmlns="http://www.w3.org/2000/svg" xmlns:xlink="http://www.w3.org/1999/xlink">
    <!-- Generator: Sketch 52.5 (67469) - http://www.bohemiancoding.com/sketch -->
    <title>P-N_Junction_Depletion_Region</title>
    <desc>Created with Sketch.</desc>
    <g id="P-N_Junction_Depletion_Region" stroke="none" stroke-width="1" fill="none" fill-rule="evenodd">
        <rect id="Rectangle" fill="#EEEEEE" x="0" y="0" width="900" height="430"></rect>
        <g id="Illustration" transform="translate(290.000000, 76.000000)">
            <g id="Lattice-Junction">
                <g id="P-Type-Lattice" transform="translate(0.000000, 41.000000)">
                    <rect id="Rectangle" stroke="#999999" stroke-width="2" fill="#D4D4D4" x="1" y="1" width="158" height="158"></rect>
                    <circle id="Oval-Copy-3" fill="#252525" cx="20.5" cy="18.5" r="10.5"></circle>
                    <circle id="Oval-Copy-5" fill="#252525" cx="20.5" cy="58.5" r="10.5"></circle>
                    <circle id="Oval-Copy-6" fill="#252525" cx="20.5" cy="98.5" r="10.5"></circle>
                    <circle id="Oval-Copy-10" fill="#252525" cx="50.5" cy="38.5" r="10.5"></circle>
                    <circle id="Oval-Copy-8" fill="#252525" cx="50.5" cy="118.5" r="10.5"></circle>
                    <g id="Negative-Ion" transform="translate(100.000000, 28.000000)">
                        <circle id="Oval-Copy-26" fill="#84D0EF" cx="10.5" cy="10.5" r="10.5"></circle>
                        <rect id="Rectangle" fill="#524740" x="6" y="10" width="9" height="1"></rect>
                    </g>
                    <circle id="Oval-Copy-25" fill="#252525" cx="110.5" cy="78.5" r="10.5"></circle>
                    <circle id="Oval-Copy-24" fill="#252525" cx="110.5" cy="118.5" r="10.5"></circle>
                    <g id="Negative-Ion" transform="translate(40.000000, 68.000000)">
                        <circle id="Oval-Copy-9" fill="#84D0EF" cx="10.5" cy="10.5" r="10.5"></circle>
                        <rect id="Rectangle" fill="#524740" x="6" y="10" width="9" height="1"></rect>
                    </g>
                    <g id="Negative-Ion" transform="translate(10.000000, 128.000000)">
                        <circle id="Oval-Copy-7" fill="#84D0EF" cx="10.5" cy="10.5" r="10.5"></circle>
                        <rect id="Rectangle" fill="#524740" x="6" y="10" width="9" height="1"></rect>
                    </g>
                    <circle id="Oval-Copy-23" fill="#252525" cx="80.5" cy="18.5" r="10.5"></circle>
                    <circle id="Oval-Copy-22" fill="#252525" cx="80.5" cy="58.5" r="10.5"></circle>
                    <g id="Negative-Ion" transform="translate(70.000000, 88.000000)">
                        <circle id="Oval-Copy-21" fill="#84D0EF" cx="10.5" cy="10.5" r="10.5"></circle>
                        <rect id="Rectangle" fill="#524740" x="6" y="10" width="9" height="1"></rect>
                    </g>
                    <circle id="Oval-Copy-20" fill="#252525" cx="80.5" cy="138.5" r="10.5"></circle>
                    <circle id="Oval-Copy-30" fill="#252525" cx="140.5" cy="18.5" r="10.5"></circle>
                    <circle id="Oval-Copy-29" fill="#252525" cx="140.5" cy="58.5" r="10.5"></circle>
                    <circle id="Oval-Copy-28" fill="#252525" cx="140.5" cy="98.5" r="10.5"></circle>
                    <circle id="Oval-Copy-27" fill="#252525" cx="140.5" cy="138.5" r="10.5"></circle>
                    <g id="Little-Ones" transform="translate(4.000000, 23.000000)" fill="#84D0EF">
                        <circle id="Oval-Copy-31" cx="25.25" cy="53.25" r="3.25"></circle>
                        <circle id="Oval-Copy-32" cx="38.25" cy="32.25" r="3.25"></circle>
                        <circle id="Oval-Copy-33" cx="28.25" cy="4.25" r="3.25"></circle>
                        <circle id="Oval-Copy-34" cx="69.25" cy="12.25" r="3.25"></circle>
                        <circle id="Oval-Copy-35" cx="79.25" cy="52.25" r="3.25"></circle>
                        <circle id="Oval-Copy-36" cx="60.25" cy="73.25" r="3.25"></circle>
                        <circle id="Oval-Copy-37" cx="35.25" cy="84.25" r="3.25"></circle>
                        <circle id="Oval-Copy-38" cx="31.25" cy="126.25" r="3.25"></circle>
                        <circle id="Oval-Copy-39" cx="3.25" cy="93.25" r="3.25"></circle>
                        <circle id="Oval-Copy-40" cx="55.25" cy="111.25" r="3.25"></circle>
                        <circle id="Oval-Copy-42" cx="90.25" cy="92.25" r="3.25"></circle>
                        <circle id="Oval-Copy-43" cx="90.25" cy="122.25" r="3.25"></circle>
                        <circle id="Oval-Copy-49" cx="96.25" cy="3.25" r="3.25"></circle>
                    </g>
                </g>
                <g id="N-Type-Lattice" transform="translate(158.000000, 41.000000)">
                    <rect id="Rectangle" stroke="#999999" stroke-width="2" fill="#7D7570" x="1" y="1" width="158" height="158"></rect>
                    <circle id="Oval-Copy-3" fill="#252525" cx="20.5" cy="18.5" r="10.5"></circle>
                    <circle id="Oval-Copy-5" fill="#252525" cx="20.5" cy="58.5" r="10.5"></circle>
                    <circle id="Oval-Copy-6" fill="#252525" cx="20.5" cy="98.5" r="10.5"></circle>
                    <circle id="Oval-Copy-10" fill="#252525" cx="50.5" cy="38.5" r="10.5"></circle>
                    <g id="Positive-Ion" transform="translate(40.000000, 68.000000)">
                        <circle id="Oval-Copy-9" fill="#D7E465" cx="10.5" cy="10.5" r="10.5"></circle>
                        <path d="M10,10 L10,6 L11,6 L11,10 L15,10 L15,11 L11,11 L11,15 L10,15 L10,11 L6,11 L6,10 L10,10 Z" id="Combined-Shape" fill="#524740"></path>
                    </g>
                    <circle id="Oval-Copy-8" fill="#252525" cx="50.5" cy="118.5" r="10.5"></circle>
                    <g id="Positive-Ion" transform="translate(100.000000, 28.000000)">
                        <circle id="Oval-Copy-26" fill="#D7E465" cx="10.5" cy="10.5" r="10.5"></circle>
                        <path d="M10,10 L10,6 L11,6 L11,10 L15,10 L15,11 L11,11 L11,15 L10,15 L10,11 L6,11 L6,10 L10,10 Z" id="Combined-Shape" fill="#524740"></path>
                    </g>
                    <circle id="Oval-Copy-25" fill="#252525" cx="110.5" cy="78.5" r="10.5"></circle>
                    <circle id="Oval-Copy-24" fill="#252525" cx="110.5" cy="118.5" r="10.5"></circle>
                    <g id="Positive-Ion" transform="translate(10.000000, 128.000000)">
                        <circle id="Oval-Copy-7" fill="#D7E465" cx="10.5" cy="10.5" r="10.5"></circle>
                        <path d="M10,10 L10,6 L11,6 L11,10 L15,10 L15,11 L11,11 L11,15 L10,15 L10,11 L6,11 L6,10 L10,10 Z" id="Combined-Shape" fill="#524740"></path>
                    </g>
                    <circle id="Oval-Copy-23" fill="#252525" cx="80.5" cy="18.5" r="10.5"></circle>
                    <circle id="Oval-Copy-22" fill="#252525" cx="80.5" cy="58.5" r="10.5"></circle>
                    <g id="Positive-Ion" transform="translate(70.000000, 88.000000)">
                        <circle id="Oval-Copy-21" fill="#D7E465" cx="10.5" cy="10.5" r="10.5"></circle>
                        <path d="M10,10 L10,6 L11,6 L11,10 L15,10 L15,11 L11,11 L11,15 L10,15 L10,11 L6,11 L6,10 L10,10 Z" id="Combined-Shape" fill="#524740"></path>
                    </g>
                    <circle id="Oval-Copy-20" fill="#252525" cx="80.5" cy="138.5" r="10.5"></circle>
                    <circle id="Oval-Copy-30" fill="#252525" cx="140.5" cy="18.5" r="10.5"></circle>
                    <circle id="Oval-Copy-29" fill="#252525" cx="140.5" cy="58.5" r="10.5"></circle>
                    <circle id="Oval-Copy-28" fill="#252525" cx="140.5" cy="98.5" r="10.5"></circle>
                    <circle id="Oval-Copy-27" fill="#252525" cx="140.5" cy="138.5" r="10.5"></circle>
                    <g id="Little-ones" transform="translate(56.000000, 8.000000)" fill="#EF7D3B">
                        <circle id="Oval-Copy-34" cx="17.25" cy="27.25" r="3.25"></circle>
                        <circle id="Oval-Copy-35" cx="27.25" cy="67.25" r="3.25"></circle>
                        <circle id="Oval-Copy-36" cx="8.25" cy="88.25" r="3.25"></circle>
                        <circle id="Oval-Copy-40" cx="3.25" cy="126.25" r="3.25"></circle>
                        <circle id="Oval-Copy-41" cx="63.25" cy="126.25" r="3.25"></circle>
                        <circle id="Oval-Copy-42" cx="38.25" cy="107.25" r="3.25"></circle>
                        <circle id="Oval-Copy-43" cx="38.25" cy="137.25" r="3.25"></circle>
                        <circle id="Oval-Copy-44" cx="78.25" cy="146.25" r="3.25"></circle>
                        <circle id="Oval-Copy-45" cx="98.25" cy="96.25" r="3.25"></circle>
                        <circle id="Oval-Copy-46" cx="67.25" cy="82.25" r="3.25"></circle>
                        <circle id="Oval-Copy-47" cx="77.25" cy="37.25" r="3.25"></circle>
                        <circle id="Oval-Copy-48" cx="67.25" cy="3.25" r="3.25"></circle>
                        <circle id="Oval-Copy-49" cx="44.25" cy="18.25" r="3.25"></circle>
                    </g>
                </g>
                <path d="M103.5,42.5 L104,201" id="Line" stroke="#979797" stroke-width="2" stroke-linecap="square" stroke-dasharray="8,8"></path>
                <path d="M213.5,42.5 L214,201" id="Line-Copy" stroke="#979797" stroke-width="2" stroke-linecap="square" stroke-dasharray="8,8"></path>
                <path d="M49.263997,3.4 C51.6880091,3.4 53.5839902,3.97599424 54.951997,5.128 C56.3200038,6.28000576 57.003997,7.73199124 57.003997,9.484 C57.003997,11.2360088 56.3200038,12.6819943 54.951997,13.822 C53.5839902,14.9620057 51.6880091,15.532 49.263997,15.532 L46.059997,15.532 L46.059997,20.032 C46.059997,21.832009 46.257995,22.9839975 46.653997,23.488 C47.049999,23.9920025 47.9919896,24.244 49.479997,24.244 L49.479997,25 L39.759997,25 L39.759997,24.244 C41.2480044,24.244 42.189995,23.9920025 42.585997,23.488 C42.981999,22.9839975 43.179997,21.832009 43.179997,20.032 L43.179997,8.332 C43.179997,6.531991 42.981999,5.38600246 42.585997,4.894 C42.189995,4.40199754 41.2480044,4.156 39.759997,4.156 L39.759997,3.4 L49.263997,3.4 Z M49.227997,14.236 C50.7160044,14.236 51.8499931,13.7920044 52.629997,12.904 C53.4100009,12.0159956 53.799997,10.876007 53.799997,9.484 C53.799997,8.09199304 53.4100009,6.95200444 52.629997,6.064 C51.8499931,5.17599556 50.7160044,4.732 49.227997,4.732 L46.059997,4.732 L46.059997,14.236 L49.227997,14.236 Z M69.531998,18.412 L59.019998,18.412 L59.019998,16.828 L69.531998,16.828 L69.531998,18.412 Z M91.635999,3.4 L91.959999,8.26 L91.203999,8.26 L91.023999,7.54 C90.7359976,6.4599946 90.3520014,5.73400186 89.871999,5.362 C89.3919966,4.98999814 88.3840067,4.804 86.847999,4.804 L82.131999,4.804 L82.131999,20.032 C82.131999,21.832009 82.335997,22.9839975 82.743999,23.488 C83.152001,23.9920025 84.0999916,24.244 85.587999,24.244 L85.587999,25 L75.831999,25 L75.831999,24.244 C77.3200064,24.244 78.267997,23.9920025 78.675999,23.488 C79.084001,22.9839975 79.287999,21.832009 79.287999,20.032 L79.287999,4.804 L74.571999,4.804 C73.0359913,4.804 72.0280014,4.98999814 71.547999,5.362 C71.0679966,5.73400186 70.6840004,6.4599946 70.395999,7.54 L70.215999,8.26 L69.459999,8.26 L69.783999,3.4 L91.635999,3.4 Z M89.728,33.532 C89.728,33.1479981 89.8719986,32.8060015 90.16,32.506 C90.4480014,32.2059985 90.8259977,31.7980026 91.294,31.282 C91.7620023,30.7659974 92.1519984,30.112004 92.464,29.32 L94.264,24.82 L90.124,15.856 C89.7399981,15.0399959 89.3800017,14.4820015 89.044,14.182 C88.7079983,13.8819985 88.2640028,13.732 87.712,13.732 L87.712,13.012 L94.084,13.012 L94.084,13.732 C93.2679959,13.732 92.7760008,13.8639987 92.608,14.128 C92.4399992,14.3920013 92.5479981,14.9679956 92.932,15.856 L95.56,21.616 L97.864,15.856 C98.2000017,15.0399959 98.2960007,14.4820015 98.152,14.182 C98.0079993,13.8819985 97.5640037,13.732 96.82,13.732 L96.82,13.012 L101.86,13.012 L101.86,13.732 C100.731994,13.732 99.8800029,14.4399929 99.304,15.856 L92.284,33.388 C91.9239982,34.2760044 91.4800026,34.72 90.952,34.72 C90.6399984,34.72 90.3580013,34.624001 90.106,34.432 C89.8539987,34.239999 89.728,33.940002 89.728,33.532 Z M112.048001,22.732 C112.744004,21.7479951 113.092001,20.5000076 113.092001,18.988 C113.092001,17.4759924 112.744004,16.2400048 112.048001,15.28 C111.351998,14.3199952 110.344008,13.84 109.024001,13.84 C108.207997,13.84 107.482004,14.0919975 106.846001,14.596 C106.209998,15.1000025 105.712003,15.7839957 105.352001,16.648 L105.352001,21.292 C105.712003,22.1800044 106.209998,22.8819974 106.846001,23.398 C107.482004,23.9140026 108.207997,24.172 109.024001,24.172 C110.344008,24.172 111.351998,23.6920048 112.048001,22.732 Z M105.352001,29.068 C105.352001,30.8440089 105.525999,31.9839975 105.874001,32.488 C106.222003,32.9920025 106.995995,33.244 108.196001,33.244 L108.196001,34 L99.952001,34 L99.952001,33.244 C101.152007,33.244 101.925999,32.9980025 102.274001,32.506 C102.622003,32.0139975 102.796001,30.868009 102.796001,29.068 L102.796001,18.232 C102.796001,16.431991 102.622003,15.2860025 102.274001,14.794 C101.925999,14.3019975 101.152007,14.056 99.952001,14.056 L99.952001,13.3 L104.776001,12.4 C104.920002,12.6640013 105.1,13.395994 105.316001,14.596 C106.540007,13.1319927 108.027992,12.4 109.780001,12.4 C111.48401,12.4 112.947995,13.0419936 114.172001,14.326 C115.396007,15.6100064 116.008001,17.1639909 116.008001,18.988 C116.008001,20.8120091 115.396007,22.3719935 114.172001,23.668 C112.947995,24.9640065 111.48401,25.612 109.780001,25.612 C108.003992,25.612 106.528007,24.8920072 105.352001,23.452 L105.352001,29.068 Z M120.400002,16.756 L126.376002,16.756 C126.616003,16.0839966 126.514004,15.4300032 126.070002,14.794 C125.626,14.1579968 124.864007,13.84 123.784002,13.84 C123.015998,13.84 122.326005,14.1039974 121.714002,14.632 C121.101999,15.1600026 120.664003,15.8679956 120.400002,16.756 Z M120.184002,18.088 C119.968001,19.8640089 120.249998,21.3099944 121.030002,22.426 C121.810006,23.5420056 123.087993,24.1 124.864002,24.1 C125.464005,24.1 126.147998,23.9440016 126.916002,23.632 C127.684006,23.3199984 128.319999,22.9240024 128.824002,22.444 L129.472002,23.236 C128.823999,23.9320035 127.996007,24.5019978 126.988002,24.946 C125.979997,25.3900022 124.972007,25.612 123.964002,25.612 C122.019992,25.612 120.424008,24.9700064 119.176002,23.686 C117.927996,22.4019936 117.304002,20.8360092 117.304002,18.988 C117.304002,17.1399908 117.981995,15.5800064 119.338002,14.308 C120.694009,13.0359936 122.235993,12.4 123.964002,12.4 C125.59601,12.4 126.927997,12.9699943 127.960002,14.11 C128.992007,15.2500057 129.292004,16.5759924 128.860002,18.088 L120.184002,18.088 Z" id="P-Type-Copy" fill="#524740"></path>
                <path d="M205.509997,20.536 L205.509997,8.332 C205.509997,6.531991 205.311999,5.38600246 204.915997,4.894 C204.519995,4.40199754 203.578004,4.156 202.089997,4.156 L202.089997,3.4 L210.297997,3.4 L210.297997,4.156 C208.80999,4.156 207.861999,4.40199754 207.453997,4.894 C207.045995,5.38600246 206.841997,6.531991 206.841997,8.332 L206.841997,25.612 L206.013997,25.612 L191.361997,7.504 L191.361997,20.032 C191.361997,21.832009 191.565995,22.9839975 191.973997,23.488 C192.381999,23.9920025 193.32999,24.244 194.817997,24.244 L194.817997,25 L186.609997,25 L186.609997,24.244 C188.098004,24.244 189.039995,23.9920025 189.435997,23.488 C189.831999,22.9839975 190.029997,21.832009 190.029997,20.032 L190.029997,8.332 C190.029997,6.531991 189.831999,5.38600246 189.435997,4.894 C189.039995,4.40199754 188.098004,4.156 186.609997,4.156 L186.609997,3.4 L191.685997,3.4 L205.509997,20.536 Z M222.681998,18.412 L212.169998,18.412 L212.169998,16.828 L222.681998,16.828 L222.681998,18.412 Z M244.785999,3.4 L245.109999,8.26 L244.353999,8.26 L244.173999,7.54 C243.885998,6.4599946 243.502001,5.73400186 243.021999,5.362 C242.541997,4.98999814 241.534007,4.804 239.997999,4.804 L235.281999,4.804 L235.281999,20.032 C235.281999,21.832009 235.485997,22.9839975 235.893999,23.488 C236.302001,23.9920025 237.249992,24.244 238.737999,24.244 L238.737999,25 L228.981999,25 L228.981999,24.244 C230.470006,24.244 231.417997,23.9920025 231.825999,23.488 C232.234001,22.9839975 232.437999,21.832009 232.437999,20.032 L232.437999,4.804 L227.721999,4.804 C226.185991,4.804 225.178001,4.98999814 224.697999,5.362 C224.217997,5.73400186 223.834,6.4599946 223.545999,7.54 L223.365999,8.26 L222.609999,8.26 L222.933999,3.4 L244.785999,3.4 Z M242.878,33.532 C242.878,33.1479981 243.021999,32.8060015 243.31,32.506 C243.598001,32.2059985 243.975998,31.7980026 244.444,31.282 C244.912002,30.7659974 245.301998,30.112004 245.614,29.32 L247.414,24.82 L243.274,15.856 C242.889998,15.0399959 242.530002,14.4820015 242.194,14.182 C241.857998,13.8819985 241.414003,13.732 240.862,13.732 L240.862,13.012 L247.234,13.012 L247.234,13.732 C246.417996,13.732 245.926001,13.8639987 245.758,14.128 C245.589999,14.3920013 245.697998,14.9679956 246.082,15.856 L248.71,21.616 L251.014,15.856 C251.350002,15.0399959 251.446001,14.4820015 251.302,14.182 C251.157999,13.8819985 250.714004,13.732 249.97,13.732 L249.97,13.012 L255.01,13.012 L255.01,13.732 C253.881994,13.732 253.030003,14.4399929 252.454,15.856 L245.434,33.388 C245.073998,34.2760044 244.630003,34.72 244.102,34.72 C243.789998,34.72 243.508001,34.624001 243.256,34.432 C243.003999,34.239999 242.878,33.940002 242.878,33.532 Z M265.198001,22.732 C265.894004,21.7479951 266.242001,20.5000076 266.242001,18.988 C266.242001,17.4759924 265.894004,16.2400048 265.198001,15.28 C264.501998,14.3199952 263.494008,13.84 262.174001,13.84 C261.357997,13.84 260.632004,14.0919975 259.996001,14.596 C259.359998,15.1000025 258.862003,15.7839957 258.502001,16.648 L258.502001,21.292 C258.862003,22.1800044 259.359998,22.8819974 259.996001,23.398 C260.632004,23.9140026 261.357997,24.172 262.174001,24.172 C263.494008,24.172 264.501998,23.6920048 265.198001,22.732 Z M258.502001,29.068 C258.502001,30.8440089 258.675999,31.9839975 259.024001,32.488 C259.372003,32.9920025 260.145995,33.244 261.346001,33.244 L261.346001,34 L253.102001,34 L253.102001,33.244 C254.302007,33.244 255.075999,32.9980025 255.424001,32.506 C255.772003,32.0139975 255.946001,30.868009 255.946001,29.068 L255.946001,18.232 C255.946001,16.431991 255.772003,15.2860025 255.424001,14.794 C255.075999,14.3019975 254.302007,14.056 253.102001,14.056 L253.102001,13.3 L257.926001,12.4 C258.070002,12.6640013 258.25,13.395994 258.466001,14.596 C259.690007,13.1319927 261.177992,12.4 262.930001,12.4 C264.63401,12.4 266.097995,13.0419936 267.322001,14.326 C268.546007,15.6100064 269.158001,17.1639909 269.158001,18.988 C269.158001,20.8120091 268.546007,22.3719935 267.322001,23.668 C266.097995,24.9640065 264.63401,25.612 262.930001,25.612 C261.153992,25.612 259.678007,24.8920072 258.502001,23.452 L258.502001,29.068 Z M273.550002,16.756 L279.526002,16.756 C279.766003,16.0839966 279.664004,15.4300032 279.220002,14.794 C278.776,14.1579968 278.014007,13.84 276.934002,13.84 C276.165998,13.84 275.476005,14.1039974 274.864002,14.632 C274.251999,15.1600026 273.814003,15.8679956 273.550002,16.756 Z M273.334002,18.088 C273.118001,19.8640089 273.399998,21.3099944 274.180002,22.426 C274.960006,23.5420056 276.237993,24.1 278.014002,24.1 C278.614005,24.1 279.297998,23.9440016 280.066002,23.632 C280.834006,23.3199984 281.469999,22.9240024 281.974002,22.444 L282.622002,23.236 C281.973999,23.9320035 281.146007,24.5019978 280.138002,24.946 C279.129997,25.3900022 278.122007,25.612 277.114002,25.612 C275.169992,25.612 273.574008,24.9700064 272.326002,23.686 C271.077996,22.4019936 270.454002,20.8360092 270.454002,18.988 C270.454002,17.1399908 271.131995,15.5800064 272.488002,14.308 C273.844009,13.0359936 275.385993,12.4 277.114002,12.4 C278.74601,12.4 280.077997,12.9699943 281.110002,14.11 C282.142007,15.2500057 282.442004,16.5759924 282.010002,18.088 L273.334002,18.088 Z" id="N-Type-Copy" fill="#524740"></path>
            </g>
            <path d="M54.413992,253 L54.413992,252.244 C55.9019994,252.244 56.84399,251.992003 57.239992,251.488 C57.635994,250.983997 57.833992,249.832009 57.833992,248.032 L57.833992,236.332 C57.833992,234.531991 57.635994,233.386002 57.239992,232.894 C56.84399,232.401998 55.9019994,232.156 54.413992,232.156 L54.413992,231.4 L64.169992,231.4 C68.1540119,231.4 71.1539819,232.40799 73.169992,234.424 C75.1860021,236.44001 76.193992,239.031984 76.193992,242.2 C76.193992,245.368016 75.1860021,247.95999 73.169992,249.976 C71.1539819,251.99201 68.1540119,253 64.169992,253 L54.413992,253 Z M60.713992,232.732 L60.713992,247.492 C60.713992,249.316009 60.9059901,250.467998 61.289992,250.948 C61.6739939,251.428002 62.5979847,251.668 64.061992,251.668 L64.205992,251.668 C65.8620003,251.668 67.2839861,251.380003 68.471992,250.804 C69.6599979,250.227997 70.5479891,249.454005 71.135992,248.482 C71.7239949,247.509995 72.1379908,246.514005 72.377992,245.494 C72.6179932,244.473995 72.737992,243.376006 72.737992,242.2 C72.737992,241.023994 72.6179932,239.926005 72.377992,238.906 C72.1379908,237.885995 71.7239949,236.890005 71.135992,235.918 C70.5479891,234.945995 69.6599979,234.172003 68.471992,233.596 C67.2839861,233.019997 65.8620003,232.732 64.205992,232.732 L60.713992,232.732 Z M81.377993,244.756 L87.353993,244.756 C87.5939942,244.083997 87.4919952,243.430003 87.047993,242.794 C86.6039908,242.157997 85.8419984,241.84 84.761993,241.84 C83.9939892,241.84 83.3039961,242.103997 82.691993,242.632 C82.0799899,243.160003 81.6419943,243.867996 81.377993,244.756 Z M81.161993,246.088 C80.9459919,247.864009 81.2279891,249.309994 82.007993,250.426 C82.7879969,251.542006 84.0659841,252.1 85.841993,252.1 C86.441996,252.1 87.1259892,251.944002 87.893993,251.632 C88.6619968,251.319998 89.2979905,250.924002 89.801993,250.444 L90.449993,251.236 C89.8019898,251.932003 88.973998,252.501998 87.965993,252.946 C86.957988,253.390002 85.949998,253.612 84.941993,253.612 C82.9979833,253.612 81.4019992,252.970006 80.153993,251.686 C78.9059868,250.401994 78.281993,248.836009 78.281993,246.988 C78.281993,245.139991 78.9599862,243.580006 80.315993,242.308 C81.6719998,241.035994 83.2139844,240.4 84.941993,240.4 C86.5740012,240.4 87.9059878,240.969994 88.937993,242.11 C89.9699982,243.250006 90.2699952,244.575992 89.837993,246.088 L81.161993,246.088 Z M102.365994,250.732 C103.061997,249.747995 103.409994,248.500008 103.409994,246.988 C103.409994,245.475992 103.061997,244.240005 102.365994,243.28 C101.669991,242.319995 100.662001,241.84 99.341994,241.84 C98.5259899,241.84 97.7999972,242.091997 97.163994,242.596 C96.5279908,243.100003 96.0299958,243.783996 95.669994,244.648 L95.669994,249.292 C96.0299958,250.180004 96.5279908,250.881997 97.163994,251.398 C97.7999972,251.914003 98.5259899,252.172 99.341994,252.172 C100.662001,252.172 101.669991,251.692005 102.365994,250.732 Z M95.669994,257.068 C95.669994,258.844009 95.8439923,259.983997 96.191994,260.488 C96.5399957,260.992003 97.313988,261.244 98.513994,261.244 L98.513994,262 L90.269994,262 L90.269994,261.244 C91.47,261.244 92.2439923,260.998002 92.591994,260.506 C92.9399957,260.013998 93.113994,258.868009 93.113994,257.068 L93.113994,246.232 C93.113994,244.431991 92.9399957,243.286002 92.591994,242.794 C92.2439923,242.301998 91.47,242.056 90.269994,242.056 L90.269994,241.3 L95.093994,240.4 C95.2379947,240.664001 95.4179929,241.395994 95.633994,242.596 C96.8580001,241.131993 98.3459852,240.4 100.097994,240.4 C101.802003,240.4 103.265988,241.041994 104.489994,242.326 C105.714,243.610006 106.325994,245.163991 106.325994,246.988 C106.325994,248.812009 105.714,250.371994 104.489994,251.668 C103.265988,252.964006 101.802003,253.612 100.097994,253.612 C98.3219851,253.612 96.8459999,252.892007 95.669994,251.452 L95.669994,257.068 Z M114.821995,253 L106.577995,253 L106.577995,252.244 C107.778001,252.244 108.551993,251.992003 108.899995,251.488 C109.247997,250.983997 109.421995,249.832009 109.421995,248.032 L109.421995,236.656 C109.421995,234.855991 109.247997,233.704003 108.899995,233.2 C108.551993,232.695997 107.778001,232.444 106.577995,232.444 L106.577995,231.688 L111.977995,230.788 L111.977995,248.032 C111.977995,249.832009 112.151993,250.983997 112.499995,251.488 C112.847997,251.992003 113.621989,252.244 114.821995,252.244 L114.821995,253 Z M118.205996,244.756 L124.181996,244.756 C124.421997,244.083997 124.319998,243.430003 123.875996,242.794 C123.431994,242.157997 122.670001,241.84 121.589996,241.84 C120.821992,241.84 120.131999,242.103997 119.519996,242.632 C118.907993,243.160003 118.469997,243.867996 118.205996,244.756 Z M117.989996,246.088 C117.773995,247.864009 118.055992,249.309994 118.835996,250.426 C119.616,251.542006 120.893987,252.1 122.669996,252.1 C123.269999,252.1 123.953992,251.944002 124.721996,251.632 C125.49,251.319998 126.125993,250.924002 126.629996,250.444 L127.277996,251.236 C126.629993,251.932003 125.802001,252.501998 124.793996,252.946 C123.785991,253.390002 122.778001,253.612 121.769996,253.612 C119.825986,253.612 118.230002,252.970006 116.981996,251.686 C115.73399,250.401994 115.109996,248.836009 115.109996,246.988 C115.109996,245.139991 115.787989,243.580006 117.143996,242.308 C118.500003,241.035994 120.041987,240.4 121.769996,240.4 C123.402004,240.4 124.733991,240.969994 125.765996,242.11 C126.798001,243.250006 127.097998,244.575992 126.665996,246.088 L117.989996,246.088 Z M129.293997,242.272 L127.421997,242.272 L127.421997,241.408 C128.454002,241.191999 129.209995,240.724004 129.689997,240.004 C130.169999,239.283996 130.481996,238.300006 130.625997,237.052 L131.849997,237.052 L131.849997,241.012 L134.981997,241.012 L134.981997,242.272 L131.849997,242.272 L131.849997,249.472 C131.849997,251.200009 132.389992,252.064 133.469997,252.064 C134.166,252.064 134.945993,251.656004 135.809997,250.84 L136.421997,251.452 C135.917994,252.052003 135.312001,252.543998 134.603997,252.928 C133.895993,253.312002 133.242,253.504 132.641997,253.504 C131.609992,253.504 130.794,253.168003 130.193997,252.496 C129.593994,251.823997 129.293997,250.816007 129.293997,249.472 L129.293997,242.272 Z M144.485998,253 L136.241998,253 L136.241998,252.244 C137.442004,252.244 138.215996,251.992003 138.563998,251.488 C138.912,250.983997 139.085998,249.832009 139.085998,248.032 L139.085998,246.232 C139.085998,244.455991 138.912,243.316003 138.563998,242.812 C138.215996,242.307997 137.442004,242.056 136.241998,242.056 L136.241998,241.3 L141.641998,240.4 L141.641998,248.032 C141.641998,249.832009 141.815996,250.983997 142.163998,251.488 C142.512,251.992003 143.285992,252.244 144.485998,252.244 L144.485998,253 Z M141.929998,235.252 C141.929998,235.708002 141.774,236.091998 141.461998,236.404 C141.149996,236.716002 140.778,236.872 140.345998,236.872 C139.913996,236.872 139.542,236.716002 139.229998,236.404 C138.917996,236.091998 138.761998,235.708002 138.761998,235.252 C138.761998,234.819998 138.917996,234.448002 139.229998,234.136 C139.542,233.823998 139.913996,233.668 140.345998,233.668 C140.778,233.668 141.149996,233.823998 141.461998,234.136 C141.774,234.448002 141.929998,234.819998 141.929998,235.252 Z M157.121999,242.344 C158.562006,243.616006 159.281999,245.163991 159.281999,246.988 C159.281999,248.812009 158.568006,250.371994 157.139999,251.668 C155.711992,252.964006 154.002009,253.612 152.009999,253.612 C150.017989,253.612 148.308006,252.964006 146.879999,251.668 C145.451992,250.371994 144.737999,248.812009 144.737999,246.988 C144.737999,245.163991 145.451992,243.610006 146.879999,242.326 C148.308006,241.041994 150.017989,240.4 152.009999,240.4 C154.002009,240.4 155.705992,241.047994 157.121999,242.344 Z M155.249999,250.768 C155.994003,249.783995 156.365999,248.524008 156.365999,246.988 C156.365999,245.451992 155.994003,244.198005 155.249999,243.226 C154.505995,242.253995 153.426006,241.768 152.009999,241.768 C150.593992,241.768 149.514003,242.259995 148.769999,243.244 C148.025995,244.228005 147.653999,245.475992 147.653999,246.988 C147.653999,248.500008 148.025995,249.747995 148.769999,250.732 C149.514003,251.716005 150.593992,252.208 152.009999,252.208 C153.426006,252.208 154.505995,251.728005 155.249999,250.768 Z M165.618,242.992 C166.986007,241.263991 168.65399,240.4 170.622,240.4 C172.182008,240.4 173.351996,240.891995 174.132,241.876 C174.912004,242.860005 175.302,244.155992 175.302,245.764 L175.302,248.032 C175.302,249.832009 175.475998,250.983997 175.824,251.488 C176.172002,251.992003 176.945994,252.244 178.146,252.244 L178.146,253 L169.902,253 L169.902,252.244 C171.078006,252.244 171.845998,251.986003 172.206,251.47 C172.566002,250.953997 172.746,249.808009 172.746,248.032 L172.746,245.944 C172.746,243.375987 171.75001,242.092 169.758,242.092 C168.725995,242.092 167.778004,242.451996 166.914,243.172 C166.049996,243.892004 165.618,244.731995 165.618,245.692 L165.618,248.032 C165.618,249.880009 165.761999,251.043998 166.05,251.524 C166.338001,252.004002 167.033994,252.244 168.138,252.244 L168.138,253 L160.218,253 L160.218,252.244 C161.418006,252.244 162.191998,251.992003 162.54,251.488 C162.888002,250.983997 163.062,249.832009 163.062,248.032 L163.062,246.232 C163.062,244.455991 162.888002,243.316003 162.54,242.812 C162.191998,242.307997 161.418006,242.056 160.218,242.056 L160.218,241.3 L165.006,240.4 C165.222001,240.856002 165.425999,241.719994 165.618,242.992 Z M193.734002,242.236 C195.222009,242.236 196.355998,241.792004 197.136002,240.904 C197.916006,240.015996 198.306002,238.876007 198.306002,237.484 C198.306002,236.091993 197.916006,234.952004 197.136002,234.064 C196.355998,233.175996 195.222009,232.732 193.734002,232.732 L190.566002,232.732 L190.566002,242.236 L193.734002,242.236 Z M195.102002,243.532 L198.630002,247.672 C200.982014,250.480014 203.213991,252.003999 205.326002,252.244 L205.326002,253 L199.386002,253 L192.258002,243.532 L190.566002,243.532 L190.566002,248.032 C190.566002,249.832009 190.764,250.983997 191.160002,251.488 C191.556004,251.992003 192.497995,252.244 193.986002,252.244 L193.986002,253 L184.266002,253 L184.266002,252.244 C185.754009,252.244 186.696,251.992003 187.092002,251.488 C187.488004,250.983997 187.686002,249.832009 187.686002,248.032 L187.686002,236.332 C187.686002,234.531991 187.488004,233.386002 187.092002,232.894 C186.696,232.401998 185.754009,232.156 184.266002,232.156 L184.266002,231.4 L193.770002,231.4 C196.194014,231.4 198.089995,231.975994 199.458002,233.128 C200.826009,234.280006 201.510002,235.731991 201.510002,237.484 C201.510002,239.092008 200.940008,240.447994 199.800002,241.552 C198.659996,242.656006 197.094012,243.315999 195.102002,243.532 Z M207.882003,244.756 L213.858003,244.756 C214.098004,244.083997 213.996005,243.430003 213.552003,242.794 C213.108001,242.157997 212.346008,241.84 211.266003,241.84 C210.497999,241.84 209.808006,242.103997 209.196003,242.632 C208.584,243.160003 208.146004,243.867996 207.882003,244.756 Z M207.666003,246.088 C207.450002,247.864009 207.731999,249.309994 208.512003,250.426 C209.292007,251.542006 210.569994,252.1 212.346003,252.1 C212.946006,252.1 213.629999,251.944002 214.398003,251.632 C215.166007,251.319998 215.802,250.924002 216.306003,250.444 L216.954003,251.236 C216.306,251.932003 215.478008,252.501998 214.470003,252.946 C213.461998,253.390002 212.454008,253.612 211.446003,253.612 C209.501993,253.612 207.906009,252.970006 206.658003,251.686 C205.409997,250.401994 204.786003,248.836009 204.786003,246.988 C204.786003,245.139991 205.463996,243.580006 206.820003,242.308 C208.17601,241.035994 209.717994,240.4 211.446003,240.4 C213.078011,240.4 214.409998,240.969994 215.442003,242.11 C216.474008,243.250006 216.774005,244.575992 216.342003,246.088 L207.666003,246.088 Z M224.874004,247.996 C225.330006,247.299997 225.558004,246.400006 225.558004,245.296 C225.558004,244.191994 225.336006,243.292003 224.892004,242.596 C224.448002,241.899997 223.806008,241.552 222.966004,241.552 C222.126,241.552 221.478006,241.899997 221.022004,242.596 C220.566002,243.292003 220.338004,244.191994 220.338004,245.296 C220.338004,246.400006 220.566002,247.293997 221.022004,247.978 C221.478006,248.662003 222.126,249.004 222.966004,249.004 C223.806008,249.004 224.442002,248.668003 224.874004,247.996 Z M219.618004,251.704 C219.618004,252.424004 220.709993,252.879999 222.894004,253.072 C225.198016,253.264001 226.865999,253.791996 227.898004,254.656 C228.930009,255.520004 229.446004,256.563994 229.446004,257.788 C229.446004,259.252007 228.84001,260.421996 227.628004,261.298 C226.415998,262.174004 224.898013,262.612 223.074004,262.612 C221.129994,262.612 219.56401,262.210004 218.376004,261.406 C217.187998,260.601996 216.642004,259.660005 216.738004,258.58 C216.834004,257.499995 217.601997,256.588004 219.042004,255.844 L219.690004,256.24 C218.994001,257.032004 218.622004,257.757997 218.574004,258.418 C218.526004,259.078003 218.736002,259.599998 219.204004,259.984 C219.672006,260.368002 220.248001,260.667999 220.932004,260.884 C221.616007,261.100001 222.33,261.208 223.074004,261.208 C224.25001,261.208 225.287999,260.950003 226.188004,260.434 C227.088009,259.917997 227.538004,259.252004 227.538004,258.436 C227.538004,257.643996 227.148008,257.068002 226.368004,256.708 C225.588,256.347998 224.370012,256.084001 222.714004,255.916 C219.305987,255.579998 217.602004,254.464009 217.602004,252.568 C217.602004,251.271994 218.609994,250.312003 220.626004,249.688 C219.689999,249.255998 218.952007,248.656004 218.412004,247.888 C217.872001,247.119996 217.602004,246.256005 217.602004,245.296 C217.602004,243.951993 218.123999,242.800005 219.168004,241.84 C220.212009,240.879995 221.477997,240.4 222.966004,240.4 C224.406011,240.4 225.641999,240.855995 226.674004,241.768 C226.986006,241.383998 227.412001,241.060001 227.952004,240.796 C228.492007,240.531999 228.966002,240.4 229.374004,240.4 C230.430009,240.4 231.102003,240.843996 231.390004,241.732 C231.606005,242.404003 231.498006,242.907998 231.066004,243.244 C230.922003,243.364001 230.754005,243.424 230.562004,243.424 C230.202002,243.448 229.932005,243.376001 229.752004,243.208 C229.572003,243.039999 229.464004,242.854001 229.428004,242.65 C229.392004,242.445999 229.296005,242.254001 229.140004,242.074 C228.984003,241.893999 228.738006,241.804 228.402004,241.804 C228.042002,241.804 227.670006,241.995998 227.286004,242.38 C227.982007,243.220004 228.330004,244.191994 228.330004,245.296 C228.330004,246.568006 227.862009,247.659995 226.926004,248.572 C225.989999,249.484005 224.89801,250.023999 223.650004,250.192 C220.961991,250.504002 219.618004,251.007997 219.618004,251.704 Z M238.770005,253 L230.526005,253 L230.526005,252.244 C231.726011,252.244 232.500003,251.992003 232.848005,251.488 C233.196007,250.983997 233.370005,249.832009 233.370005,248.032 L233.370005,246.232 C233.370005,244.455991 233.196007,243.316003 232.848005,242.812 C232.500003,242.307997 231.726011,242.056 230.526005,242.056 L230.526005,241.3 L235.926005,240.4 L235.926005,248.032 C235.926005,249.832009 236.100003,250.983997 236.448005,251.488 C236.796007,251.992003 237.569999,252.244 238.770005,252.244 L238.770005,253 Z M236.214005,235.252 C236.214005,235.708002 236.058007,236.091998 235.746005,236.404 C235.434003,236.716002 235.062007,236.872 234.630005,236.872 C234.198003,236.872 233.826007,236.716002 233.514005,236.404 C233.202003,236.091998 233.046005,235.708002 233.046005,235.252 C233.046005,234.819998 233.202003,234.448002 233.514005,234.136 C233.826007,233.823998 234.198003,233.668 234.630005,233.668 C235.062007,233.668 235.434003,233.823998 235.746005,234.136 C236.058007,234.448002 236.214005,234.819998 236.214005,235.252 Z M251.406006,242.344 C252.846013,243.616006 253.566006,245.163991 253.566006,246.988 C253.566006,248.812009 252.852013,250.371994 251.424006,251.668 C249.995999,252.964006 248.286016,253.612 246.294006,253.612 C244.301996,253.612 242.592013,252.964006 241.164006,251.668 C239.735999,250.371994 239.022006,248.812009 239.022006,246.988 C239.022006,245.163991 239.735999,243.610006 241.164006,242.326 C242.592013,241.041994 244.301996,240.4 246.294006,240.4 C248.286016,240.4 249.989999,241.047994 251.406006,242.344 Z M249.534006,250.768 C250.27801,249.783995 250.650006,248.524008 250.650006,246.988 C250.650006,245.451992 250.27801,244.198005 249.534006,243.226 C248.790002,242.253995 247.710013,241.768 246.294006,241.768 C244.877999,241.768 243.79801,242.259995 243.054006,243.244 C242.310002,244.228005 241.938006,245.475992 241.938006,246.988 C241.938006,248.500008 242.310002,249.747995 243.054006,250.732 C243.79801,251.716005 244.877999,252.208 246.294006,252.208 C247.710013,252.208 248.790002,251.728005 249.534006,250.768 Z M259.902007,242.992 C261.270014,241.263991 262.937997,240.4 264.906007,240.4 C266.466015,240.4 267.636003,240.891995 268.416007,241.876 C269.196011,242.860005 269.586007,244.155992 269.586007,245.764 L269.586007,248.032 C269.586007,249.832009 269.760005,250.983997 270.108007,251.488 C270.456009,251.992003 271.230001,252.244 272.430007,252.244 L272.430007,253 L264.186007,253 L264.186007,252.244 C265.362013,252.244 266.130005,251.986003 266.490007,251.47 C266.850009,250.953997 267.030007,249.808009 267.030007,248.032 L267.030007,245.944 C267.030007,243.375987 266.034017,242.092 264.042007,242.092 C263.010002,242.092 262.062011,242.451996 261.198007,243.172 C260.334003,243.892004 259.902007,244.731995 259.902007,245.692 L259.902007,248.032 C259.902007,249.880009 260.046006,251.043998 260.334007,251.524 C260.622008,252.004002 261.318001,252.244 262.422007,252.244 L262.422007,253 L254.502007,253 L254.502007,252.244 C255.702013,252.244 256.476005,251.992003 256.824007,251.488 C257.172009,250.983997 257.346007,249.832009 257.346007,248.032 L257.346007,246.232 C257.346007,244.455991 257.172009,243.316003 256.824007,242.812 C256.476005,242.307997 255.702013,242.056 254.502007,242.056 L254.502007,241.3 L259.290007,240.4 C259.506008,240.856002 259.710006,241.719994 259.902007,242.992 Z M27.323988,292.24 L26.531988,292.996 C21.131961,288.579978 18.431988,283.708027 18.431988,278.38 C18.431988,273.075973 21.1199611,268.204022 26.495988,263.764 L27.323988,264.52 C26.5559842,265.384004 25.9199905,266.133997 25.415988,266.77 C24.9119855,267.406003 24.257992,268.353994 23.453988,269.614 C22.649984,270.874006 22.0319902,272.247993 21.599988,273.736 C21.1679858,275.224007 20.951988,276.771992 20.951988,278.38 C20.951988,279.988008 21.1679858,281.535993 21.599988,283.024 C22.0319902,284.512007 22.649984,285.885994 23.453988,287.146 C24.257992,288.406006 24.9119855,289.353997 25.415988,289.99 C25.9199905,290.626003 26.5559842,291.375996 27.323988,292.24 Z M32.939989,278.992 C34.3079958,277.263991 35.9759792,276.4 37.943989,276.4 C39.5039968,276.4 40.6739851,276.891995 41.453989,277.876 C42.2339929,278.860005 42.623989,280.155992 42.623989,281.764 L42.623989,284.032 C42.623989,285.832009 42.7979873,286.983997 43.145989,287.488 C43.4939907,287.992003 44.267983,288.244 45.467989,288.244 L45.467989,289 L37.223989,289 L37.223989,288.244 C38.3999949,288.244 39.1679872,287.986003 39.527989,287.47 C39.8879908,286.953997 40.067989,285.808009 40.067989,284.032 L40.067989,281.944 C40.067989,279.375987 39.071999,278.092 37.079989,278.092 C36.0479838,278.092 35.0999933,278.451996 34.235989,279.172 C33.3719847,279.892004 32.939989,280.731995 32.939989,281.692 L32.939989,284.032 C32.939989,285.880009 33.0839876,287.043998 33.371989,287.524 C33.6599904,288.004002 34.3559835,288.244 35.459989,288.244 L35.459989,289 L27.539989,289 L27.539989,288.244 C28.739995,288.244 29.5139873,287.992003 29.861989,287.488 C30.2099907,286.983997 30.383989,285.832009 30.383989,284.032 L30.383989,282.232 C30.383989,280.455991 30.2099907,279.316003 29.861989,278.812 C29.5139873,278.307997 28.739995,278.056 27.539989,278.056 L27.539989,277.3 L32.327989,276.4 C32.5439901,276.856002 32.747988,277.719994 32.939989,278.992 Z M58.10399,278.344 C59.5439972,279.616006 60.26399,281.163991 60.26399,282.988 C60.26399,284.812009 59.5499971,286.371994 58.12199,287.668 C56.6939829,288.964006 54.984,289.612 52.99199,289.612 C50.99998,289.612 49.2899971,288.964006 47.86199,287.668 C46.4339829,286.371994 45.71999,284.812009 45.71999,282.988 C45.71999,281.163991 46.4339829,279.610006 47.86199,278.326 C49.2899971,277.041994 50.99998,276.4 52.99199,276.4 C54.984,276.4 56.6879829,277.047994 58.10399,278.344 Z M56.23199,286.768 C56.9759937,285.783995 57.34799,284.524008 57.34799,282.988 C57.34799,281.451992 56.9759937,280.198005 56.23199,279.226 C55.4879863,278.253995 54.4079971,277.768 52.99199,277.768 C51.5759829,277.768 50.4959937,278.259995 49.75199,279.244 C49.0079863,280.228005 48.63599,281.475992 48.63599,282.988 C48.63599,284.500008 49.0079863,285.747995 49.75199,286.732 C50.4959937,287.716005 51.5759829,288.208 52.99199,288.208 C54.4079971,288.208 55.4879863,287.728005 56.23199,286.768 Z M72.827992,277.012 L84.059992,277.012 L84.059992,278.992 C84.4439939,278.271996 84.9959884,277.660003 85.715992,277.156 C86.4359956,276.651997 87.1559884,276.4 87.875992,276.4 C88.7879966,276.4 89.4839896,276.639998 89.963992,277.12 C90.4439944,277.600002 90.683992,278.103997 90.683992,278.632 C90.683992,279.760006 90.2039968,280.324 89.243992,280.324 C88.9079903,280.324 88.6139933,280.192001 88.361992,279.928 C88.1099907,279.663999 87.983992,279.364002 87.983992,279.028 C87.983992,278.235996 87.6119957,277.84 86.867992,277.84 C86.2919891,277.84 85.6799952,278.223996 85.031992,278.992 C84.3839888,279.760004 84.059992,280.779994 84.059992,282.052 L84.059992,284.032 C84.059992,285.832009 84.2339903,286.983997 84.581992,287.488 C84.9299937,287.992003 85.703986,288.244 86.903992,288.244 L86.903992,289 L78.659992,289 L78.659992,288.244 C79.859998,288.244 80.6339903,287.992003 80.981992,287.488 C81.3299937,286.983997 81.503992,285.832009 81.503992,284.032 L81.503992,282.484 C81.503992,280.683991 81.3299937,279.532003 80.981992,279.028 C80.6339903,278.523997 79.859998,278.272 78.659992,278.272 L72.827992,278.272 L72.827992,284.032 C72.827992,285.832009 73.0019903,286.983997 73.349992,287.488 C73.6979937,287.992003 74.471986,288.244 75.671992,288.244 L75.671992,289 L67.427992,289 L67.427992,288.244 C68.627998,288.244 69.4019903,287.992003 69.749992,287.488 C70.0979937,286.983997 70.271992,285.832009 70.271992,284.032 L70.271992,278.272 L67.319992,278.272 L67.319992,277.012 L70.271992,277.012 L70.271992,273.556 C70.271992,271.275989 70.8419863,269.578006 71.981992,268.462 C73.1219977,267.345994 74.5199837,266.788 76.175992,266.788 C77.7359998,266.788 78.8279889,267.339994 79.451992,268.444 C79.9079943,269.236004 79.9199942,269.883997 79.487992,270.388 C79.295991,270.628001 78.995994,270.748 78.587992,270.748 C78.2039901,270.748 77.9039931,270.604001 77.687992,270.316 C77.4719909,270.027999 77.3279924,269.710002 77.255992,269.362 C77.1839916,269.013998 77.0039934,268.696001 76.715992,268.408 C76.4279906,268.119999 76.0319945,267.976 75.527992,267.976 C74.5919873,267.976 73.9079942,268.401996 73.475992,269.254 C73.0439898,270.106004 72.827992,271.53999 72.827992,273.556 L72.827992,277.012 Z M93.527993,280.756 L99.503993,280.756 C99.7439942,280.083997 99.6419952,279.430003 99.197993,278.794 C98.7539908,278.157997 97.9919984,277.84 96.911993,277.84 C96.1439892,277.84 95.4539961,278.103997 94.841993,278.632 C94.2299899,279.160003 93.7919943,279.867996 93.527993,280.756 Z M93.311993,282.088 C93.0959919,283.864009 93.3779891,285.309994 94.157993,286.426 C94.9379969,287.542006 96.2159841,288.1 97.991993,288.1 C98.591996,288.1 99.2759892,287.944002 100.043993,287.632 C100.811997,287.319998 101.44799,286.924002 101.951993,286.444 L102.599993,287.236 C101.95199,287.932003 101.123998,288.501998 100.115993,288.946 C99.107988,289.390002 98.099998,289.612 97.091993,289.612 C95.1479833,289.612 93.5519992,288.970006 92.303993,287.686 C91.0559868,286.401994 90.431993,284.836009 90.431993,282.988 C90.431993,281.139991 91.1099862,279.580006 92.465993,278.308 C93.8219998,277.035994 95.3639844,276.4 97.091993,276.4 C98.7240012,276.4 100.055988,276.969994 101.087993,278.11 C102.119998,279.250006 102.419995,280.575992 101.987993,282.088 L93.311993,282.088 Z M106.559994,280.756 L112.535994,280.756 C112.775995,280.083997 112.673996,279.430003 112.229994,278.794 C111.785992,278.157997 111.023999,277.84 109.943994,277.84 C109.17599,277.84 108.485997,278.103997 107.873994,278.632 C107.261991,279.160003 106.823995,279.867996 106.559994,280.756 Z M106.343994,282.088 C106.127993,283.864009 106.40999,285.309994 107.189994,286.426 C107.969998,287.542006 109.247985,288.1 111.023994,288.1 C111.623997,288.1 112.30799,287.944002 113.075994,287.632 C113.843998,287.319998 114.479991,286.924002 114.983994,286.444 L115.631994,287.236 C114.983991,287.932003 114.155999,288.501998 113.147994,288.946 C112.139989,289.390002 111.131999,289.612 110.123994,289.612 C108.179984,289.612 106.584,288.970006 105.335994,287.686 C104.087988,286.401994 103.463994,284.836009 103.463994,282.988 C103.463994,281.139991 104.141987,279.580006 105.497994,278.308 C106.854001,277.035994 108.395985,276.4 110.123994,276.4 C111.756002,276.4 113.087989,276.969994 114.119994,278.11 C115.151999,279.250006 115.451996,280.575992 115.019994,282.088 L106.343994,282.088 Z M129.095996,277.552 C128.135991,277.552 127.319999,278.103994 126.647996,279.208 C125.975993,280.312006 125.639996,281.679992 125.639996,283.312 C125.639996,284.800007 126.005992,285.969996 126.737996,286.822 C127.47,287.674004 128.555989,288.1 129.995996,288.1 C131.388003,288.1 132.67199,287.548006 133.847996,286.444 L134.459996,287.236 C132.995989,288.820008 131.208007,289.612 129.095996,289.612 C127.127986,289.612 125.574002,289.024006 124.433996,287.848 C123.29399,286.671994 122.723996,285.160009 122.723996,283.312 C122.723996,281.31999 123.395989,279.670007 124.739996,278.362 C126.084003,277.053993 127.535988,276.4 129.095996,276.4 C130.512003,276.4 131.579992,276.651997 132.299996,277.156 C133.02,277.660003 133.379996,278.271996 133.379996,278.992 C133.379996,279.376002 133.253997,279.729998 133.001996,280.054 C132.749995,280.378002 132.347999,280.54 131.795996,280.54 C131.411994,280.54 131.081997,280.402001 130.805996,280.126 C130.529995,279.849999 130.391996,279.508002 130.391996,279.1 C130.391996,278.067995 129.96,277.552 129.095996,277.552 Z M151.091997,289 L143.135997,289 L143.135997,288.244 C144.264003,288.244 144.971996,288.004002 145.259997,287.524 C145.547998,287.043998 145.691997,285.880009 145.691997,284.032 L145.691997,281.944 C145.691997,279.375987 144.780006,278.092 142.955997,278.092 C141.995992,278.092 141.108001,278.445996 140.291997,279.154 C139.475993,279.862004 139.067997,280.707995 139.067997,281.692 L139.067997,284.032 C139.067997,285.904009 139.199996,287.073998 139.463997,287.542 C139.727998,288.010002 140.351992,288.244 141.335997,288.244 L141.335997,289 L133.667997,289 L133.667997,288.244 C134.868003,288.244 135.641995,287.992003 135.989997,287.488 C136.337999,286.983997 136.511997,285.832009 136.511997,284.032 L136.511997,272.656 C136.511997,270.855991 136.337999,269.704003 135.989997,269.2 C135.641995,268.695997 134.868003,268.444 133.667997,268.444 L133.667997,267.688 L139.067997,266.788 L139.067997,278.992 C140.484004,277.263991 142.055988,276.4 143.783997,276.4 C146.736012,276.4 148.211997,278.187982 148.211997,281.764 L148.211997,284.032 C148.211997,285.832009 148.385995,286.983997 148.733997,287.488 C149.081999,287.992003 149.867991,288.244 151.091997,288.244 L151.091997,289 Z M163.547998,288.28 C162.851995,289.024004 162.060002,289.396 161.171998,289.396 C159.731991,289.396 158.915999,288.700007 158.723998,287.308 C157.11599,288.748007 155.616005,289.468 154.223998,289.468 C153.311993,289.468 152.544001,289.198003 151.919998,288.658 C151.295995,288.117997 150.983998,287.380005 150.983998,286.444 C150.983998,283.923987 153.539972,282.220004 158.651998,281.332 C158.651998,279.915993 158.496,278.932003 158.183998,278.38 C157.871996,277.827997 157.224003,277.552 156.239998,277.552 C155.759996,277.552 155.298,277.707998 154.853998,278.02 C154.409996,278.332002 154.187998,278.751997 154.187998,279.28 C154.187998,279.640002 154.067999,279.939999 153.827998,280.18 C153.587997,280.420001 153.3,280.54 152.963998,280.54 C152.603996,280.54 152.303999,280.420001 152.063998,280.18 C151.823997,279.939999 151.703998,279.640002 151.703998,279.28 C151.703998,278.439996 152.165993,277.750003 153.089998,277.21 C154.014003,276.669997 155.075992,276.4 156.275998,276.4 C158.028007,276.4 159.287994,276.783996 160.055998,277.552 C160.824002,278.320004 161.207998,279.567991 161.207998,281.296 L161.207998,286.732 C161.207998,287.668005 161.483995,288.136 162.035998,288.136 C162.348,288.136 162.683996,287.956002 163.043998,287.596 L163.547998,288.28 Z M158.651998,286.12 L158.651998,282.448 C155.339981,283.216004 153.683998,284.403992 153.683998,286.012 C153.683998,286.564003 153.845996,287.007998 154.169998,287.344 C154.494,287.680002 154.895996,287.848 155.375998,287.848 C156.264002,287.848 157.355992,287.272006 158.651998,286.12 Z M175.355999,278.632 C175.355999,279.760006 174.876004,280.324 173.915999,280.324 C173.579997,280.324 173.286,280.192001 173.033999,279.928 C172.781998,279.663999 172.655999,279.364002 172.655999,279.028 C172.655999,278.235996 172.272003,277.84 171.503999,277.84 C170.951996,277.84 170.352002,278.223996 169.703999,278.992 C169.055996,279.760004 168.731999,280.779994 168.731999,282.052 L168.731999,284.032 C168.731999,285.832009 168.905997,286.983997 169.253999,287.488 C169.602001,287.992003 170.375993,288.244 171.575999,288.244 L171.575999,289 L163.331999,289 L163.331999,288.244 C164.532005,288.244 165.305997,287.992003 165.653999,287.488 C166.002001,286.983997 166.175999,285.832009 166.175999,284.032 L166.175999,282.232 C166.175999,280.455991 166.002001,279.316003 165.653999,278.812 C165.305997,278.307997 164.532005,278.056 163.331999,278.056 L163.331999,277.3 L168.119999,276.4 C168.336,276.856002 168.539998,277.719994 168.731999,278.992 C169.092001,278.271996 169.631995,277.660003 170.351999,277.156 C171.072003,276.651997 171.791995,276.4 172.511999,276.4 C173.424004,276.4 174.125997,276.639998 174.617999,277.12 C175.110001,277.600002 175.355999,278.103997 175.355999,278.632 Z M182.736,283.996 C183.192002,283.299997 183.42,282.400006 183.42,281.296 C183.42,280.191994 183.198002,279.292003 182.754,278.596 C182.309998,277.899997 181.668004,277.552 180.828,277.552 C179.987996,277.552 179.340002,277.899997 178.884,278.596 C178.427998,279.292003 178.2,280.191994 178.2,281.296 C178.2,282.400006 178.427998,283.293997 178.884,283.978 C179.340002,284.662003 179.987996,285.004 180.828,285.004 C181.668004,285.004 182.303998,284.668003 182.736,283.996 Z M177.48,287.704 C177.48,288.424004 178.571989,288.879999 180.756,289.072 C183.060012,289.264001 184.727995,289.791996 185.76,290.656 C186.792005,291.520004 187.308,292.563994 187.308,293.788 C187.308,295.252007 186.702006,296.421996 185.49,297.298 C184.277994,298.174004 182.760009,298.612 180.936,298.612 C178.99199,298.612 177.426006,298.210004 176.238,297.406 C175.049994,296.601996 174.504,295.660005 174.6,294.58 C174.696,293.499995 175.463993,292.588004 176.904,291.844 L177.552,292.24 C176.855997,293.032004 176.484,293.757997 176.436,294.418 C176.388,295.078003 176.597998,295.599998 177.066,295.984 C177.534002,296.368002 178.109997,296.667999 178.794,296.884 C179.478003,297.100001 180.191996,297.208 180.936,297.208 C182.112006,297.208 183.149996,296.950003 184.05,296.434 C184.950005,295.917997 185.4,295.252004 185.4,294.436 C185.4,293.643996 185.010004,293.068002 184.23,292.708 C183.449996,292.347998 182.232008,292.084001 180.576,291.916 C177.167983,291.579998 175.464,290.464009 175.464,288.568 C175.464,287.271994 176.47199,286.312003 178.488,285.688 C177.551995,285.255998 176.814003,284.656004 176.274,283.888 C175.733997,283.119996 175.464,282.256005 175.464,281.296 C175.464,279.951993 175.985995,278.800005 177.03,277.84 C178.074005,276.879995 179.339993,276.4 180.828,276.4 C182.268007,276.4 183.503995,276.855995 184.536,277.768 C184.848002,277.383998 185.273997,277.060001 185.814,276.796 C186.354003,276.531999 186.827998,276.4 187.236,276.4 C188.292005,276.4 188.963999,276.843996 189.252,277.732 C189.468001,278.404003 189.360002,278.907998 188.928,279.244 C188.783999,279.364001 188.616001,279.424 188.424,279.424 C188.063998,279.448 187.794001,279.376001 187.614,279.208 C187.433999,279.039999 187.326,278.854001 187.29,278.65 C187.254,278.445999 187.158001,278.254001 187.002,278.074 C186.845999,277.893999 186.600002,277.804 186.264,277.804 C185.903998,277.804 185.532002,277.995998 185.148,278.38 C185.844003,279.220004 186.192,280.191994 186.192,281.296 C186.192,282.568006 185.724005,283.659995 184.788,284.572 C183.851995,285.484005 182.760006,286.023999 181.512,286.192 C178.823987,286.504002 177.48,287.007997 177.48,287.704 Z M191.844001,280.756 L197.820001,280.756 C198.060002,280.083997 197.958003,279.430003 197.514001,278.794 C197.069999,278.157997 196.308006,277.84 195.228001,277.84 C194.459997,277.84 193.770004,278.103997 193.158001,278.632 C192.545998,279.160003 192.108002,279.867996 191.844001,280.756 Z M191.628001,282.088 C191.412,283.864009 191.693997,285.309994 192.474001,286.426 C193.254005,287.542006 194.531992,288.1 196.308001,288.1 C196.908004,288.1 197.591997,287.944002 198.360001,287.632 C199.128005,287.319998 199.763998,286.924002 200.268001,286.444 L200.916001,287.236 C200.267998,287.932003 199.440006,288.501998 198.432001,288.946 C197.423996,289.390002 196.416006,289.612 195.408001,289.612 C193.463991,289.612 191.868007,288.970006 190.620001,287.686 C189.371995,286.401994 188.748001,284.836009 188.748001,282.988 C188.748001,281.139991 189.425994,279.580006 190.782001,278.308 C192.138008,277.035994 193.679992,276.4 195.408001,276.4 C197.040009,276.4 198.371996,276.969994 199.404001,278.11 C200.436006,279.250006 200.736003,280.575992 200.304001,282.088 L191.628001,282.088 Z M214.380003,277.552 C213.419998,277.552 212.604006,278.103994 211.932003,279.208 C211.26,280.312006 210.924003,281.679992 210.924003,283.312 C210.924003,284.800007 211.289999,285.969996 212.022003,286.822 C212.754007,287.674004 213.839996,288.1 215.280003,288.1 C216.67201,288.1 217.955997,287.548006 219.132003,286.444 L219.744003,287.236 C218.279996,288.820008 216.492014,289.612 214.380003,289.612 C212.411993,289.612 210.858009,289.024006 209.718003,287.848 C208.577997,286.671994 208.008003,285.160009 208.008003,283.312 C208.008003,281.31999 208.679996,279.670007 210.024003,278.362 C211.36801,277.053993 212.819995,276.4 214.380003,276.4 C215.79601,276.4 216.863999,276.651997 217.584003,277.156 C218.304007,277.660003 218.664003,278.271996 218.664003,278.992 C218.664003,279.376002 218.538004,279.729998 218.286003,280.054 C218.034002,280.378002 217.632006,280.54 217.080003,280.54 C216.696001,280.54 216.366004,280.402001 216.090003,280.126 C215.814002,279.849999 215.676003,279.508002 215.676003,279.1 C215.676003,278.067995 215.244007,277.552 214.380003,277.552 Z M232.200004,288.28 C231.504001,289.024004 230.712008,289.396 229.824004,289.396 C228.383997,289.396 227.568005,288.700007 227.376004,287.308 C225.767996,288.748007 224.268011,289.468 222.876004,289.468 C221.963999,289.468 221.196007,289.198003 220.572004,288.658 C219.948001,288.117997 219.636004,287.380005 219.636004,286.444 C219.636004,283.923987 222.191978,282.220004 227.304004,281.332 C227.304004,279.915993 227.148006,278.932003 226.836004,278.38 C226.524002,277.827997 225.876009,277.552 224.892004,277.552 C224.412002,277.552 223.950006,277.707998 223.506004,278.02 C223.062002,278.332002 222.840004,278.751997 222.840004,279.28 C222.840004,279.640002 222.720005,279.939999 222.480004,280.18 C222.240003,280.420001 221.952006,280.54 221.616004,280.54 C221.256002,280.54 220.956005,280.420001 220.716004,280.18 C220.476003,279.939999 220.356004,279.640002 220.356004,279.28 C220.356004,278.439996 220.817999,277.750003 221.742004,277.21 C222.666009,276.669997 223.727998,276.4 224.928004,276.4 C226.680013,276.4 227.94,276.783996 228.708004,277.552 C229.476008,278.320004 229.860004,279.567991 229.860004,281.296 L229.860004,286.732 C229.860004,287.668005 230.136001,288.136 230.688004,288.136 C231.000006,288.136 231.336002,287.956002 231.696004,287.596 L232.200004,288.28 Z M227.304004,286.12 L227.304004,282.448 C223.991987,283.216004 222.336004,284.403992 222.336004,286.012 C222.336004,286.564003 222.498002,287.007998 222.822004,287.344 C223.146006,287.680002 223.548002,287.848 224.028004,287.848 C224.916008,287.848 226.007998,287.272006 227.304004,286.12 Z M244.008005,278.632 C244.008005,279.760006 243.52801,280.324 242.568005,280.324 C242.232003,280.324 241.938006,280.192001 241.686005,279.928 C241.434004,279.663999 241.308005,279.364002 241.308005,279.028 C241.308005,278.235996 240.924009,277.84 240.156005,277.84 C239.604002,277.84 239.004008,278.223996 238.356005,278.992 C237.708002,279.760004 237.384005,280.779994 237.384005,282.052 L237.384005,284.032 C237.384005,285.832009 237.558003,286.983997 237.906005,287.488 C238.254007,287.992003 239.027999,288.244 240.228005,288.244 L240.228005,289 L231.984005,289 L231.984005,288.244 C233.184011,288.244 233.958003,287.992003 234.306005,287.488 C234.654007,286.983997 234.828005,285.832009 234.828005,284.032 L234.828005,282.232 C234.828005,280.455991 234.654007,279.316003 234.306005,278.812 C233.958003,278.307997 233.184011,278.056 231.984005,278.056 L231.984005,277.3 L236.772005,276.4 C236.988006,276.856002 237.192004,277.719994 237.384005,278.992 C237.744007,278.271996 238.284001,277.660003 239.004005,277.156 C239.724009,276.651997 240.444001,276.4 241.164005,276.4 C242.07601,276.4 242.778003,276.639998 243.270005,277.12 C243.762007,277.600002 244.008005,278.103997 244.008005,278.632 Z M255.996006,278.632 C255.996006,279.760006 255.516011,280.324 254.556006,280.324 C254.220004,280.324 253.926007,280.192001 253.674006,279.928 C253.422005,279.663999 253.296006,279.364002 253.296006,279.028 C253.296006,278.235996 252.91201,277.84 252.144006,277.84 C251.592003,277.84 250.992009,278.223996 250.344006,278.992 C249.696003,279.760004 249.372006,280.779994 249.372006,282.052 L249.372006,284.032 C249.372006,285.832009 249.546004,286.983997 249.894006,287.488 C250.242008,287.992003 251.016,288.244 252.216006,288.244 L252.216006,289 L243.972006,289 L243.972006,288.244 C245.172012,288.244 245.946004,287.992003 246.294006,287.488 C246.642008,286.983997 246.816006,285.832009 246.816006,284.032 L246.816006,282.232 C246.816006,280.455991 246.642008,279.316003 246.294006,278.812 C245.946004,278.307997 245.172012,278.056 243.972006,278.056 L243.972006,277.3 L248.760006,276.4 C248.976007,276.856002 249.180005,277.719994 249.372006,278.992 C249.732008,278.271996 250.272002,277.660003 250.992006,277.156 C251.71201,276.651997 252.432002,276.4 253.152006,276.4 C254.064011,276.4 254.766004,276.639998 255.258006,277.12 C255.750008,277.600002 255.996006,278.103997 255.996006,278.632 Z M264.204007,289 L255.960007,289 L255.960007,288.244 C257.160013,288.244 257.934005,287.992003 258.282007,287.488 C258.630009,286.983997 258.804007,285.832009 258.804007,284.032 L258.804007,282.232 C258.804007,280.455991 258.630009,279.316003 258.282007,278.812 C257.934005,278.307997 257.160013,278.056 255.960007,278.056 L255.960007,277.3 L261.360007,276.4 L261.360007,284.032 C261.360007,285.832009 261.534005,286.983997 261.882007,287.488 C262.230009,287.992003 263.004001,288.244 264.204007,288.244 L264.204007,289 Z M261.648007,271.252 C261.648007,271.708002 261.492009,272.091998 261.180007,272.404 C260.868005,272.716002 260.496009,272.872 260.064007,272.872 C259.632005,272.872 259.260009,272.716002 258.948007,272.404 C258.636005,272.091998 258.480007,271.708002 258.480007,271.252 C258.480007,270.819998 258.636005,270.448002 258.948007,270.136 C259.260009,269.823998 259.632005,269.668 260.064007,269.668 C260.496009,269.668 260.868005,269.823998 261.180007,270.136 C261.492009,270.448002 261.648007,270.819998 261.648007,271.252 Z M267.552008,280.756 L273.528008,280.756 C273.768009,280.083997 273.66601,279.430003 273.222008,278.794 C272.778006,278.157997 272.016013,277.84 270.936008,277.84 C270.168004,277.84 269.478011,278.103997 268.866008,278.632 C268.254005,279.160003 267.816009,279.867996 267.552008,280.756 Z M267.336008,282.088 C267.120007,283.864009 267.402004,285.309994 268.182008,286.426 C268.962012,287.542006 270.239999,288.1 272.016008,288.1 C272.616011,288.1 273.300004,287.944002 274.068008,287.632 C274.836012,287.319998 275.472005,286.924002 275.976008,286.444 L276.624008,287.236 C275.976005,287.932003 275.148013,288.501998 274.140008,288.946 C273.132003,289.390002 272.124013,289.612 271.116008,289.612 C269.171998,289.612 267.576014,288.970006 266.328008,287.686 C265.080002,286.401994 264.456008,284.836009 264.456008,282.988 C264.456008,281.139991 265.134001,279.580006 266.490008,278.308 C267.846015,277.035994 269.387999,276.4 271.116008,276.4 C272.748016,276.4 274.080003,276.969994 275.112008,278.11 C276.144013,279.250006 276.44401,280.575992 276.012008,282.088 L267.336008,282.088 Z M289.152009,278.632 C289.152009,279.760006 288.672014,280.324 287.712009,280.324 C287.376007,280.324 287.08201,280.192001 286.830009,279.928 C286.578008,279.663999 286.452009,279.364002 286.452009,279.028 C286.452009,278.235996 286.068013,277.84 285.300009,277.84 C284.748006,277.84 284.148012,278.223996 283.500009,278.992 C282.852006,279.760004 282.528009,280.779994 282.528009,282.052 L282.528009,284.032 C282.528009,285.832009 282.702007,286.983997 283.050009,287.488 C283.398011,287.992003 284.172003,288.244 285.372009,288.244 L285.372009,289 L277.128009,289 L277.128009,288.244 C278.328015,288.244 279.102007,287.992003 279.450009,287.488 C279.798011,286.983997 279.972009,285.832009 279.972009,284.032 L279.972009,282.232 C279.972009,280.455991 279.798011,279.316003 279.450009,278.812 C279.102007,278.307997 278.328015,278.056 277.128009,278.056 L277.128009,277.3 L281.916009,276.4 C282.13201,276.856002 282.336008,277.719994 282.528009,278.992 C282.888011,278.271996 283.428005,277.660003 284.148009,277.156 C284.868013,276.651997 285.588005,276.4 286.308009,276.4 C287.220014,276.4 287.922007,276.639998 288.414009,277.12 C288.906011,277.600002 289.152009,278.103997 289.152009,278.632 Z M298.36801,285.688 C298.36801,286.840006 297.954014,287.781996 297.12601,288.514 C296.298006,289.246004 295.284016,289.612 294.08401,289.612 C293.652008,289.612 293.208012,289.528001 292.75201,289.36 C292.296008,289.191999 291.930011,289.030001 291.65401,288.874 C291.378009,288.717999 291.120011,288.598 290.88001,288.514 C290.640009,288.43 290.47201,288.471999 290.37601,288.64 C290.28001,288.808001 290.23201,289.131998 290.23201,289.612 L289.47601,289.612 L289.47601,284.356 L290.23201,284.356 C290.23201,285.292005 290.592006,286.197996 291.31201,287.074 C292.032014,287.950004 292.980004,288.388 294.15601,288.388 C294.732013,288.388 295.218008,288.208002 295.61401,287.848 C296.010012,287.487998 296.20801,287.056003 296.20801,286.552 C296.20801,285.807996 295.536017,285.076004 294.19201,284.356 L292.17601,283.276 C290.592002,282.411996 289.80001,281.212008 289.80001,279.676 C289.80001,278.739995 290.166006,277.960003 290.89801,277.336 C291.630014,276.711997 292.476005,276.4 293.43601,276.4 C294.252014,276.4 295.092006,276.615998 295.95601,277.048 C296.244011,277.216001 296.442009,277.27 296.55001,277.21 C296.658011,277.15 296.71201,276.880002 296.71201,276.4 L297.46801,276.4 L297.46801,280.576 L296.71201,280.576 C296.71201,279.783996 296.442013,279.082003 295.90201,278.47 C295.362007,277.857997 294.660014,277.552 293.79601,277.552 C293.196007,277.552 292.740012,277.695999 292.42801,277.984 C292.116008,278.272001 291.96001,278.643998 291.96001,279.1 C291.96001,279.508002 292.116008,279.861999 292.42801,280.162 C292.740012,280.462001 293.316006,280.839998 294.15601,281.296 L295.88401,282.232 C297.540018,283.168005 298.36801,284.319993 298.36801,285.688 Z M307.728011,278.38 C307.728011,283.732027 305.040038,288.603978 299.664011,292.996 L298.836011,292.24 C299.628015,291.351996 300.270009,290.596003 300.762011,289.972 C301.254013,289.347997 301.908007,288.406006 302.724011,287.146 C303.540015,285.885994 304.164009,284.512007 304.596011,283.024 C305.028013,281.535993 305.244011,279.988008 305.244011,278.38 C305.244011,276.771992 305.028013,275.224007 304.596011,273.736 C304.164009,272.247993 303.540015,270.874006 302.724011,269.614 C301.908007,268.353994 301.254013,267.412003 300.762011,266.788 C300.270009,266.163997 299.628015,265.408004 298.836011,264.52 L299.700011,263.764 C305.052038,268.180022 307.728011,273.051973 307.728011,278.38 Z" id="Depletion-Region-(no-Copy" fill="#524740"></path>
        </g>
        <path d="M15.628,44 L15.628,19.808 L23.836,19.808 C26.5480136,19.808 28.707992,20.5219929 30.316,21.95 C31.924008,23.3780071 32.728,25.1719892 32.728,27.332 C32.728,29.4680107 31.924008,31.2559928 30.316,32.696 C28.707992,34.1360072 26.5480136,34.856 23.836,34.856 L18.004,34.856 L18.004,44 L15.628,44 Z M18.004,32.588 L23.836,32.588 C25.7800097,32.588 27.3399941,32.090005 28.516,31.094 C29.6920059,30.097995 30.28,28.8440076 30.28,27.332 C30.28,25.8439926 29.6920059,24.596005 28.516,23.588 C27.3399941,22.579995 25.7800097,22.076 23.836,22.076 L18.004,22.076 L18.004,32.588 Z M43.852001,32.984 L34.168001,32.984 L34.168001,30.824 L43.852001,30.824 L43.852001,32.984 Z M61.960002,19.808 L64.336002,19.808 L64.336002,44 L61.888002,44 L48.388002,23.444 L48.388002,44 L46.012002,44 L46.012002,19.808 L48.424002,19.808 L61.960002,40.4 L61.960002,19.808 Z M80.392004,44.288 C78.783996,44.288 77.4160096,43.7720052 76.288004,42.74 C75.1599984,41.7079948 74.4280057,40.5320066 74.092004,39.212 L76.180004,38.456 C76.3960051,39.3920047 76.8700003,40.2259963 77.602004,40.958 C78.3340077,41.6900037 79.2159988,42.056 80.248004,42.056 C81.5440105,42.056 82.5100008,41.6720038 83.146004,40.904 C83.7820072,40.1359962 84.100004,39.2000055 84.100004,38.096 L84.100004,19.952 L86.476004,19.952 L86.476004,37.952 C86.476004,39.8000092 85.9480093,41.3179941 84.892004,42.506 C83.8359987,43.6940059 82.3360137,44.288 80.392004,44.288 Z M102.424005,26 L104.800005,26 L104.800005,44 L102.424005,44 L102.424005,41.336 C100.959998,43.3040098 99.0400169,44.288 96.664005,44.288 C94.5759946,44.288 92.8240121,43.5500074 91.408005,42.074 C89.9919979,40.5979926 89.284005,38.7800108 89.284005,36.62 L89.284005,26 L91.732005,26 L91.732005,36.548 C91.732005,38.0840077 92.2479998,39.3859947 93.280005,40.454 C94.3120102,41.5220053 95.5719976,42.056 97.060005,42.056 C98.5720126,42.056 99.8439998,41.5220053 100.876005,40.454 C101.90801,39.3859947 102.424005,38.0840077 102.424005,36.548 L102.424005,26 Z M115.708006,25.712 C117.796016,25.712 119.547999,26.4499926 120.964006,27.926 C122.380013,29.4020074 123.088006,31.2199892 123.088006,33.38 L123.088006,44 L120.676006,44 L120.676006,33.452 C120.676006,31.9159923 120.154011,30.6080054 119.110006,29.528 C118.066001,28.4479946 116.800013,27.908 115.312006,27.908 C113.823999,27.908 112.558011,28.4479946 111.514006,29.528 C110.470001,30.6080054 109.948006,31.9159923 109.948006,33.452 L109.948006,44 L107.572006,44 L107.572006,26 L109.948006,26 L109.948006,28.664 C111.412013,26.6959902 113.331994,25.712 115.708006,25.712 Z M133.600007,44.288 C131.031994,44.288 128.842016,43.3820091 127.030007,41.57 C125.217998,39.7579909 124.312007,37.5680128 124.312007,35 C124.312007,32.4319872 125.217998,30.2420091 127.030007,28.43 C128.842016,26.6179909 131.031994,25.712 133.600007,25.712 C135.232015,25.712 136.75,26.113996 138.154007,26.918 C139.558014,27.722004 140.668003,28.7959933 141.484007,30.14 L139.324007,31.184 C138.676004,30.1999951 137.848012,29.4200029 136.840007,28.844 C135.832002,28.2679971 134.752013,27.98 133.600007,27.98 C131.655997,27.98 130.018014,28.6579932 128.686007,30.014 C127.354,31.3700068 126.688007,33.0319902 126.688007,35 C126.688007,36.9680098 127.354,38.6299932 128.686007,39.986 C130.018014,41.3420068 131.655997,42.02 133.600007,42.02 C134.752013,42.02 135.832002,41.7320029 136.840007,41.156 C137.848012,40.5799971 138.676004,39.8000049 139.324007,38.816 L141.484007,39.86 C140.668003,41.2040067 139.558014,42.277996 138.154007,43.082 C136.75,43.886004 135.232015,44.288 133.600007,44.288 Z M153.616008,39.968 L154.804008,41.804 C154.660007,41.996001 154.468009,42.2239987 154.228008,42.488 C153.988007,42.7520013 153.448012,43.1179977 152.608008,43.586 C151.768004,44.0540023 150.904012,44.288 150.016008,44.288 C148.504,44.288 147.238013,43.8380045 146.218008,42.938 C145.198003,42.0379955 144.688008,40.7360085 144.688008,39.032 L144.688008,28.16 L141.808008,28.16 L141.808008,25.964 L144.688008,25.964 L144.688008,20.276 L147.064008,19.988 L147.064008,25.964 L152.500008,25.964 L152.500008,28.16 L147.064008,28.16 L147.064008,38.492 C147.064008,39.5960055 147.406005,40.4719968 148.090008,41.12 C148.774011,41.7680032 149.560004,42.092 150.448008,42.092 C151.000011,42.092 151.540005,41.9240017 152.068008,41.588 C152.596011,41.2519983 152.986007,40.9220016 153.238008,40.598 C153.490009,40.2739984 153.616008,40.0640005 153.616008,39.968 Z M158.296009,20.6 C158.032008,20.8880014 157.696011,21.032 157.288009,21.032 C156.880007,21.032 156.53801,20.8880014 156.262009,20.6 C155.986008,20.3119986 155.848009,19.9760019 155.848009,19.592 C155.848009,19.2079981 155.986008,18.8720014 156.262009,18.584 C156.53801,18.2959986 156.880007,18.152 157.288009,18.152 C157.696011,18.152 158.038008,18.2959986 158.314009,18.584 C158.59001,18.8720014 158.728009,19.2079981 158.728009,19.592 C158.728009,19.9760019 158.58401,20.3119986 158.296009,20.6 Z M156.100009,44 L156.100009,26 L158.476009,26 L158.476009,44 L156.100009,44 Z M176.36801,41.552 C174.568001,43.3760091 172.384023,44.288 169.81601,44.288 C167.247997,44.288 165.058019,43.3820091 163.24601,41.57 C161.434001,39.7579909 160.52801,37.5680128 160.52801,35 C160.52801,32.4319872 161.434001,30.2420091 163.24601,28.43 C165.058019,26.6179909 167.247997,25.712 169.81601,25.712 C172.384023,25.712 174.574001,26.6179909 176.38601,28.43 C178.198019,30.2420091 179.10401,32.4319872 179.10401,35 C179.10401,37.5440127 178.192019,39.7279909 176.36801,41.552 Z M169.85201,42.02 C171.79602,42.02 173.434003,41.3420068 174.76601,39.986 C176.098017,38.6299932 176.76401,36.9680098 176.76401,35 C176.76401,33.0319902 176.098017,31.3640068 174.76601,29.996 C173.434003,28.6279932 171.79602,27.944 169.85201,27.944 C167.932,27.944 166.300017,28.6279932 164.95601,29.996 C163.612003,31.3640068 162.94001,33.0319902 162.94001,35 C162.94001,36.9680098 163.612003,38.6299932 164.95601,39.986 C166.300017,41.3420068 167.932,42.02 169.85201,42.02 Z M188.644011,25.712 C190.732021,25.712 192.484004,26.4499926 193.900011,27.926 C195.316018,29.4020074 196.024011,31.2199892 196.024011,33.38 L196.024011,44 L193.612011,44 L193.612011,33.452 C193.612011,31.9159923 193.090016,30.6080054 192.046011,29.528 C191.002006,28.4479946 189.736018,27.908 188.248011,27.908 C186.760004,27.908 185.494016,28.4479946 184.450011,29.528 C183.406006,30.6080054 182.884011,31.9159923 182.884011,33.452 L182.884011,44 L180.508011,44 L180.508011,26 L182.884011,26 L182.884011,28.664 C184.348018,26.6959902 186.267999,25.712 188.644011,25.712 Z M206.428013,44 L206.428013,19.808 L211.900013,19.808 C215.884033,19.808 219.052001,20.9599885 221.404013,23.264 C223.756025,25.5680115 224.932013,28.4479827 224.932013,31.904 C224.932013,35.3360172 223.750025,38.2099884 221.386013,40.526 C219.022001,42.8420116 215.860033,44 211.900013,44 L206.428013,44 Z M208.804013,41.732 L211.900013,41.732 C215.068029,41.732 217.600004,40.8020093 219.496013,38.942 C221.392022,37.0819907 222.340013,34.7360142 222.340013,31.904 C222.340013,29.0719858 221.392022,26.7260093 219.496013,24.866 C217.600004,23.0059907 215.068029,22.076 211.900013,22.076 L208.804013,22.076 L208.804013,41.732 Z M234.472014,41.912 C236.080022,41.912 237.520008,41.4560046 238.792014,40.544 C240.06402,39.6319954 240.928012,38.5640061 241.384014,37.34 L243.400014,38.06 C242.848011,39.5720076 241.774022,40.9639936 240.178014,42.236 C238.582006,43.5080064 236.680025,44.1320001 234.472014,44.108 C232.456004,44.108 230.614022,43.4840062 228.946014,42.236 C227.278006,40.9879938 226.144017,39.3920097 225.544014,37.448 C225.304013,36.655996 225.184014,35.7920047 225.184014,34.856 C225.184014,32.263987 226.084005,30.068009 227.884014,28.268 C229.684023,26.467991 231.880001,25.5560001 234.472014,25.532 C236.824026,25.5560001 238.876005,26.3479922 240.628014,27.908 C242.380023,29.4680078 243.388013,31.3999885 243.652014,33.704 C243.676014,33.8240006 243.688014,33.979999 243.688014,34.172 L227.956014,37.016 C228.364016,38.4560072 229.180008,39.6379954 230.404014,40.562 C231.62802,41.4860046 232.984007,41.9360001 234.472014,41.912 Z M234.256014,27.728 C232.456005,27.7520001 230.91402,28.3999936 229.630014,29.672 C228.346008,30.9440064 227.656014,32.4679911 227.560014,34.244 C227.560014,34.3160004 227.566014,34.4419991 227.578014,34.622 C227.590014,34.8020009 227.596014,34.9519994 227.596014,35.072 L240.988014,32.66 C240.532012,31.1959927 239.68002,30.0020046 238.432014,29.078 C237.184008,28.1539954 235.792022,27.7039999 234.256014,27.728 Z M254.956015,25.676 C257.524028,25.676 259.714006,26.5819909 261.526015,28.394 C263.338024,30.2060091 264.244015,32.3959872 264.244015,34.964 C264.244015,37.5320128 263.338024,39.7219909 261.526015,41.534 C259.714006,43.3460091 257.524028,44.252 254.956015,44.252 C252.076001,44.252 249.724024,43.1600109 247.900015,40.976 L247.900015,52.748 L245.524015,52.748 L245.524015,25.964 L247.900015,25.964 L247.900015,28.916 C249.748024,26.7559892 252.100001,25.676 254.956015,25.676 Z M249.988015,39.968 C251.332022,41.3120067 252.964005,41.984 254.884015,41.984 C256.804025,41.984 258.442008,41.3060068 259.798015,39.95 C261.154022,38.5939932 261.832015,36.9320098 261.832015,34.964 C261.832015,32.9959902 261.154022,31.3280068 259.798015,29.96 C258.442008,28.5919932 256.804025,27.908 254.884015,27.908 C252.964005,27.908 251.332022,28.5919932 249.988015,29.96 C248.644008,31.3280068 247.972015,32.9959902 247.972015,34.964 C247.972015,36.9320098 248.644008,38.5999932 249.988015,39.968 Z M266.008016,44 L266.008016,17.216 L268.384016,17.216 L268.384016,44 L266.008016,44 Z M279.364017,41.912 C280.972025,41.912 282.412011,41.4560046 283.684017,40.544 C284.956023,39.6319954 285.820015,38.5640061 286.276017,37.34 L288.292017,38.06 C287.740014,39.5720076 286.666025,40.9639936 285.070017,42.236 C283.474009,43.5080064 281.572028,44.1320001 279.364017,44.108 C277.348007,44.108 275.506025,43.4840062 273.838017,42.236 C272.170009,40.9879938 271.03602,39.3920097 270.436017,37.448 C270.196016,36.655996 270.076017,35.7920047 270.076017,34.856 C270.076017,32.263987 270.976008,30.068009 272.776017,28.268 C274.576026,26.467991 276.772004,25.5560001 279.364017,25.532 C281.716029,25.5560001 283.768008,26.3479922 285.520017,27.908 C287.272026,29.4680078 288.280016,31.3999885 288.544017,33.704 C288.568017,33.8240006 288.580017,33.979999 288.580017,34.172 L272.848017,37.016 C273.256019,38.4560072 274.072011,39.6379954 275.296017,40.562 C276.520023,41.4860046 277.87601,41.9360001 279.364017,41.912 Z M279.148017,27.728 C277.348008,27.7520001 275.806023,28.3999936 274.522017,29.672 C273.238011,30.9440064 272.548017,32.4679911 272.452017,34.244 C272.452017,34.3160004 272.458017,34.4419991 272.470017,34.622 C272.482017,34.8020009 272.488017,34.9519994 272.488017,35.072 L285.880017,32.66 C285.424015,31.1959927 284.572023,30.0020046 283.324017,29.078 C282.076011,28.1539954 280.684025,27.7039999 279.148017,27.728 Z M299.992018,39.968 L301.180018,41.804 C301.036017,41.996001 300.844019,42.2239987 300.604018,42.488 C300.364017,42.7520013 299.824022,43.1179977 298.984018,43.586 C298.144014,44.0540023 297.280022,44.288 296.392018,44.288 C294.88001,44.288 293.614023,43.8380045 292.594018,42.938 C291.574013,42.0379955 291.064018,40.7360085 291.064018,39.032 L291.064018,28.16 L288.184018,28.16 L288.184018,25.964 L291.064018,25.964 L291.064018,20.276 L293.440018,19.988 L293.440018,25.964 L298.876018,25.964 L298.876018,28.16 L293.440018,28.16 L293.440018,38.492 C293.440018,39.5960055 293.782015,40.4719968 294.466018,41.12 C295.150021,41.7680032 295.936014,42.092 296.824018,42.092 C297.376021,42.092 297.916015,41.9240017 298.444018,41.588 C298.972021,41.2519983 299.362017,40.9220016 299.614018,40.598 C299.866019,40.2739984 299.992018,40.0640005 299.992018,39.968 Z M304.672019,20.6 C304.408018,20.8880014 304.072021,21.032 303.664019,21.032 C303.256017,21.032 302.91402,20.8880014 302.638019,20.6 C302.362018,20.3119986 302.224019,19.9760019 302.224019,19.592 C302.224019,19.2079981 302.362018,18.8720014 302.638019,18.584 C302.91402,18.2959986 303.256017,18.152 303.664019,18.152 C304.072021,18.152 304.414018,18.2959986 304.690019,18.584 C304.96602,18.8720014 305.104019,19.2079981 305.104019,19.592 C305.104019,19.9760019 304.96002,20.3119986 304.672019,20.6 Z M302.476019,44 L302.476019,26 L304.852019,26 L304.852019,44 L302.476019,44 Z M322.74402,41.552 C320.944011,43.3760091 318.760033,44.288 316.19202,44.288 C313.624007,44.288 311.434029,43.3820091 309.62202,41.57 C307.810011,39.7579909 306.90402,37.5680128 306.90402,35 C306.90402,32.4319872 307.810011,30.2420091 309.62202,28.43 C311.434029,26.6179909 313.624007,25.712 316.19202,25.712 C318.760033,25.712 320.950011,26.6179909 322.76202,28.43 C324.574029,30.2420091 325.48002,32.4319872 325.48002,35 C325.48002,37.5440127 324.568029,39.7279909 322.74402,41.552 Z M316.22802,42.02 C318.17203,42.02 319.810013,41.3420068 321.14202,39.986 C322.474027,38.6299932 323.14002,36.9680098 323.14002,35 C323.14002,33.0319902 322.474027,31.3640068 321.14202,29.996 C319.810013,28.6279932 318.17203,27.944 316.22802,27.944 C314.30801,27.944 312.676027,28.6279932 311.33202,29.996 C309.988013,31.3640068 309.31602,33.0319902 309.31602,35 C309.31602,36.9680098 309.988013,38.6299932 311.33202,39.986 C312.676027,41.3420068 314.30801,42.02 316.22802,42.02 Z M335.020021,25.712 C337.108031,25.712 338.860014,26.4499926 340.276021,27.926 C341.692028,29.4020074 342.400021,31.2199892 342.400021,33.38 L342.400021,44 L339.988021,44 L339.988021,33.452 C339.988021,31.9159923 339.466026,30.6080054 338.422021,29.528 C337.378016,28.4479946 336.112028,27.908 334.624021,27.908 C333.136014,27.908 331.870026,28.4479946 330.826021,29.528 C329.782016,30.6080054 329.260021,31.9159923 329.260021,33.452 L329.260021,44 L326.884021,44 L326.884021,26 L329.260021,26 L329.260021,28.664 C330.724028,26.6959902 332.644009,25.712 335.020021,25.712 Z M352.804023,44 L352.804023,19.808 L361.012023,19.808 C363.724037,19.808 365.884015,20.5219929 367.492023,21.95 C369.100031,23.3780071 369.904023,25.1719892 369.904023,27.332 C369.904023,28.940008 369.430028,30.3679938 368.482023,31.616 C367.534018,32.8640062 366.208032,33.7519974 364.504023,34.28 L369.904023,44 L367.420023,44 L362.272023,34.784 L360.796023,34.856 L355.180023,34.856 L355.180023,44 L352.804023,44 Z M355.180023,32.588 L361.012023,32.588 C362.956033,32.588 364.516017,32.090005 365.692023,31.094 C366.868029,30.097995 367.456023,28.8440076 367.456023,27.332 C367.456023,25.8439926 366.868029,24.596005 365.692023,23.588 C364.516017,22.579995 362.956033,22.076 361.012023,22.076 L355.180023,22.076 L355.180023,32.588 Z M379.408024,41.912 C381.016032,41.912 382.456018,41.4560046 383.728024,40.544 C385.00003,39.6319954 385.864022,38.5640061 386.320024,37.34 L388.336024,38.06 C387.784021,39.5720076 386.710032,40.9639936 385.114024,42.236 C383.518016,43.5080064 381.616035,44.1320001 379.408024,44.108 C377.392014,44.108 375.550032,43.4840062 373.882024,42.236 C372.214016,40.9879938 371.080027,39.3920097 370.480024,37.448 C370.240023,36.655996 370.120024,35.7920047 370.120024,34.856 C370.120024,32.263987 371.020015,30.068009 372.820024,28.268 C374.620033,26.467991 376.816011,25.5560001 379.408024,25.532 C381.760036,25.5560001 383.812015,26.3479922 385.564024,27.908 C387.316033,29.4680078 388.324023,31.3999885 388.588024,33.704 C388.612024,33.8240006 388.624024,33.979999 388.624024,34.172 L372.892024,37.016 C373.300026,38.4560072 374.116018,39.6379954 375.340024,40.562 C376.56403,41.4860046 377.920017,41.9360001 379.408024,41.912 Z M379.192024,27.728 C377.392015,27.7520001 375.85003,28.3999936 374.566024,29.672 C373.282018,30.9440064 372.592024,32.4679911 372.496024,34.244 C372.496024,34.3160004 372.502024,34.4419991 372.514024,34.622 C372.526024,34.8020009 372.532024,34.9519994 372.532024,35.072 L385.924024,32.66 C385.468022,31.1959927 384.61603,30.0020046 383.368024,29.078 C382.120018,28.1539954 380.728032,27.7039999 379.192024,27.728 Z M406.048025,26.036 L408.460025,26.036 L408.460025,42.452 C408.436025,45.0680131 407.494034,47.2579912 405.634025,49.022 C403.774016,50.7860088 401.620037,51.668 399.172025,51.668 C396.940014,51.668 395.038033,51.0740059 393.466025,49.886 C391.894017,48.6979941 390.832028,47.3600074 390.280025,45.872 L392.224025,44.9 C392.680027,46.1240061 393.544019,47.1919954 394.816025,48.104 C396.088031,49.0160046 397.540017,49.472 399.172025,49.472 C401.092035,49.472 402.718018,48.770007 404.050025,47.366 C405.382032,45.961993 406.060025,44.3240094 406.084025,42.452 L406.048025,42.452 L406.048025,41.12 C404.224016,43.2560107 401.884039,44.324 399.028025,44.324 C396.460012,44.324 394.270034,43.4180091 392.458025,41.606 C390.646016,39.7939909 389.740025,37.6040128 389.740025,35.036 C389.740025,32.4679872 390.646016,30.2780091 392.458025,28.466 C394.270034,26.6539909 396.460012,25.748 399.028025,25.748 C401.860039,25.748 404.200016,26.8159893 406.048025,28.952 L406.048025,26.036 Z M399.064025,42.092 C401.008035,42.092 402.646018,41.4140068 403.978025,40.058 C405.310032,38.7019932 405.976025,37.0400098 405.976025,35.072 C405.976025,33.1039902 405.310032,31.4420068 403.978025,30.086 C402.646018,28.7299932 401.008035,28.052 399.064025,28.052 C397.144015,28.052 395.512032,28.7299932 394.168025,30.086 C392.824018,31.4420068 392.152025,33.1039902 392.152025,35.072 C392.152025,37.0400098 392.824018,38.7019932 394.168025,40.058 C395.512032,41.4140068 397.144015,42.092 399.064025,42.092 Z M414.004026,20.6 C413.740025,20.8880014 413.404028,21.032 412.996026,21.032 C412.588024,21.032 412.246027,20.8880014 411.970026,20.6 C411.694025,20.3119986 411.556026,19.9760019 411.556026,19.592 C411.556026,19.2079981 411.694025,18.8720014 411.970026,18.584 C412.246027,18.2959986 412.588024,18.152 412.996026,18.152 C413.404028,18.152 413.746025,18.2959986 414.022026,18.584 C414.298027,18.8720014 414.436026,19.2079981 414.436026,19.592 C414.436026,19.9760019 414.292027,20.3119986 414.004026,20.6 Z M411.808026,44 L411.808026,26 L414.184026,26 L414.184026,44 L411.808026,44 Z M432.076027,41.552 C430.276018,43.3760091 428.09204,44.288 425.524027,44.288 C422.956014,44.288 420.766036,43.3820091 418.954027,41.57 C417.142018,39.7579909 416.236027,37.5680128 416.236027,35 C416.236027,32.4319872 417.142018,30.2420091 418.954027,28.43 C420.766036,26.6179909 422.956014,25.712 425.524027,25.712 C428.09204,25.712 430.282018,26.6179909 432.094027,28.43 C433.906036,30.2420091 434.812027,32.4319872 434.812027,35 C434.812027,37.5440127 433.900036,39.7279909 432.076027,41.552 Z M425.560027,42.02 C427.504037,42.02 429.14202,41.3420068 430.474027,39.986 C431.806034,38.6299932 432.472027,36.9680098 432.472027,35 C432.472027,33.0319902 431.806034,31.3640068 430.474027,29.996 C429.14202,28.6279932 427.504037,27.944 425.560027,27.944 C423.640017,27.944 422.008034,28.6279932 420.664027,29.996 C419.32002,31.3640068 418.648027,33.0319902 418.648027,35 C418.648027,36.9680098 419.32002,38.6299932 420.664027,39.986 C422.008034,41.3420068 423.640017,42.02 425.560027,42.02 Z M444.352028,25.712 C446.440038,25.712 448.192021,26.4499926 449.608028,27.926 C451.024035,29.4020074 451.732028,31.2199892 451.732028,33.38 L451.732028,44 L449.320028,44 L449.320028,33.452 C449.320028,31.9159923 448.798033,30.6080054 447.754028,29.528 C446.710023,28.4479946 445.444035,27.908 443.956028,27.908 C442.468021,27.908 441.202033,28.4479946 440.158028,29.528 C439.114023,30.6080054 438.592028,31.9159923 438.592028,33.452 L438.592028,44 L436.216028,44 L436.216028,26 L438.592028,26 L438.592028,28.664 C440.056035,26.6959902 441.976016,25.712 444.352028,25.712 Z" id="P-N-Junction-Depleti-Copy" fill="#23ABE3"></path>
        <rect id="Rectangle" fill="#EF7D3B" opacity="0.149135045" x="394" y="119" width="110" height="156"></rect>
        <g id="Group" transform="translate(394.000000, 290.000000)" stroke="#524740" stroke-width="2">
            <path d="M0.132015736,0.62701595 C-0.133444038,6.25086722 16.155884,6.25086722 49,0.62701595 L54,7.21649533" id="Path-7"></path>
            <path d="M53.1320157,0.62701595 C52.866556,6.25086722 69.155884,6.25086722 102,0.62701595 L107,7.21649533" id="Path-7-Copy" transform="translate(80.064412, 3.921756) scale(-1, 1) translate(-80.064412, -3.921756) "></path>
        </g>
    </g>
</svg>