<?xml version="1.0" encoding="UTF-8"?>
<svg width="900px" height="320px" viewBox="0 0 900 320" version="1.1" xmlns="http://www.w3.org/2000/svg" xmlns:xlink="http://www.w3.org/1999/xlink">
    <!-- Generator: Sketch 52.5 (67469) - http://www.bohemiancoding.com/sketch -->
    <title>P-N_Junction_Electron_Diffusion</title>
    <desc>Created with Sketch.</desc>
    <g id="P-N_Junction_Electron_Diffusion" stroke="none" stroke-width="1" fill="none" fill-rule="evenodd">
        <rect id="Rectangle" fill="#EEEEEE" x="0" y="0" width="900" height="430"></rect>
        <g id="Illustration" transform="translate(290.000000, 76.000000)">
            <g id="Lattice-Junction">
                <g id="P-Type-Lattice" transform="translate(0.000000, 41.000000)">
                    <rect id="Rectangle" stroke="#999999" stroke-width="2" fill="#D4D4D4" x="1" y="1" width="158" height="158"></rect>
                    <circle id="Oval-Copy-3" fill="#252525" cx="20.5" cy="18.5" r="10.5"></circle>
                    <circle id="Oval-Copy-5" fill="#252525" cx="20.5" cy="58.5" r="10.5"></circle>
                    <circle id="Oval-Copy-6" fill="#252525" cx="20.5" cy="98.5" r="10.5"></circle>
                    <circle id="Oval-Copy-10" fill="#252525" cx="50.5" cy="38.5" r="10.5"></circle>
                    <circle id="Oval-Copy-8" fill="#252525" cx="50.5" cy="118.5" r="10.5"></circle>
                    <g id="Negative-Ion" transform="translate(100.000000, 28.000000)">
                        <circle id="Oval-Copy-26" fill="#84D0EF" cx="10.5" cy="10.5" r="10.5"></circle>
                        <rect id="Rectangle" fill="#524740" x="6" y="10" width="9" height="1"></rect>
                    </g>
                    <circle id="Oval-Copy-25" fill="#252525" cx="110.5" cy="78.5" r="10.5"></circle>
                    <circle id="Oval-Copy-24" fill="#252525" cx="110.5" cy="118.5" r="10.5"></circle>
                    <g id="Negative-Ion" transform="translate(40.000000, 68.000000)">
                        <circle id="Oval-Copy-9" fill="#84D0EF" cx="10.5" cy="10.5" r="10.5"></circle>
                        <rect id="Rectangle" fill="#524740" x="6" y="10" width="9" height="1"></rect>
                    </g>
                    <g id="Negative-Ion" transform="translate(10.000000, 128.000000)">
                        <circle id="Oval-Copy-7" fill="#84D0EF" cx="10.5" cy="10.5" r="10.5"></circle>
                        <rect id="Rectangle" fill="#524740" x="6" y="10" width="9" height="1"></rect>
                    </g>
                    <circle id="Oval-Copy-23" fill="#252525" cx="80.5" cy="18.5" r="10.5"></circle>
                    <circle id="Oval-Copy-22" fill="#252525" cx="80.5" cy="58.5" r="10.5"></circle>
                    <g id="Negative-Ion" transform="translate(70.000000, 88.000000)">
                        <circle id="Oval-Copy-21" fill="#84D0EF" cx="10.5" cy="10.5" r="10.5"></circle>
                        <rect id="Rectangle" fill="#524740" x="6" y="10" width="9" height="1"></rect>
                    </g>
                    <circle id="Oval-Copy-20" fill="#252525" cx="80.5" cy="138.5" r="10.5"></circle>
                    <circle id="Oval-Copy-30" fill="#252525" cx="140.5" cy="18.5" r="10.5"></circle>
                    <circle id="Oval-Copy-29" fill="#252525" cx="140.5" cy="58.5" r="10.5"></circle>
                    <circle id="Oval-Copy-28" fill="#252525" cx="140.5" cy="98.5" r="10.5"></circle>
                    <circle id="Oval-Copy-27" fill="#252525" cx="140.5" cy="138.5" r="10.5"></circle>
                    <g id="Little-Ones" transform="translate(4.000000, 8.000000)" fill="#84D0EF">
                        <circle id="Oval-Copy-31" cx="25.25" cy="68.25" r="3.25"></circle>
                        <circle id="Oval-Copy-32" cx="38.25" cy="47.25" r="3.25"></circle>
                        <circle id="Oval-Copy-33" cx="28.25" cy="19.25" r="3.25"></circle>
                        <circle id="Oval-Copy-34" cx="69.25" cy="27.25" r="3.25"></circle>
                        <circle id="Oval-Copy-35" cx="79.25" cy="67.25" r="3.25"></circle>
                        <circle id="Oval-Copy-36" cx="60.25" cy="88.25" r="3.25"></circle>
                        <circle id="Oval-Copy-37" cx="35.25" cy="99.25" r="3.25"></circle>
                        <circle id="Oval-Copy-38" cx="31.25" cy="141.25" r="3.25"></circle>
                        <circle id="Oval-Copy-39" cx="3.25" cy="108.25" r="3.25"></circle>
                        <circle id="Oval-Copy-40" cx="55.25" cy="126.25" r="3.25"></circle>
                        <circle id="Oval-Copy-41" cx="115.25" cy="126.25" r="3.25"></circle>
                        <circle id="Oval-Copy-42" cx="90.25" cy="107.25" r="3.25"></circle>
                        <circle id="Oval-Copy-43" cx="90.25" cy="137.25" r="3.25"></circle>
                        <circle id="Oval-Copy-44" cx="130.25" cy="146.25" r="3.25"></circle>
                        <circle id="Oval-Copy-45" cx="150.25" cy="96.25" r="3.25"></circle>
                        <circle id="Oval-Copy-46" cx="119.25" cy="82.25" r="3.25"></circle>
                        <circle id="Oval-Copy-47" cx="129.25" cy="37.25" r="3.25"></circle>
                        <circle id="Oval-Copy-48" cx="119.25" cy="3.25" r="3.25"></circle>
                        <circle id="Oval-Copy-49" cx="96.25" cy="18.25" r="3.25"></circle>
                    </g>
                </g>
                <g id="N-Type-Lattice" transform="translate(103.000000, 7.000000)">
                    <rect id="Rectangle" stroke="#999999" stroke-width="2" fill="#7D7570" x="56" y="35" width="158" height="158"></rect>
                    <circle id="Oval-Copy-3" fill="#252525" cx="75.5" cy="52.5" r="10.5"></circle>
                    <circle id="Oval-Copy-5" fill="#252525" cx="75.5" cy="92.5" r="10.5"></circle>
                    <circle id="Oval-Copy-6" fill="#252525" cx="75.5" cy="132.5" r="10.5"></circle>
                    <circle id="Oval-Copy-10" fill="#252525" cx="105.5" cy="72.5" r="10.5"></circle>
                    <g id="Positive-Ion" transform="translate(95.000000, 102.000000)">
                        <circle id="Oval-Copy-9" fill="#D7E465" cx="10.5" cy="10.5" r="10.5"></circle>
                        <path d="M10,10 L10,6 L11,6 L11,10 L15,10 L15,11 L11,11 L11,15 L10,15 L10,11 L6,11 L6,10 L10,10 Z" id="Combined-Shape" fill="#524740"></path>
                    </g>
                    <circle id="Oval-Copy-8" fill="#252525" cx="105.5" cy="152.5" r="10.5"></circle>
                    <g id="Positive-Ion" transform="translate(155.000000, 62.000000)">
                        <circle id="Oval-Copy-26" fill="#D7E465" cx="10.5" cy="10.5" r="10.5"></circle>
                        <path d="M10,10 L10,6 L11,6 L11,10 L15,10 L15,11 L11,11 L11,15 L10,15 L10,11 L6,11 L6,10 L10,10 Z" id="Combined-Shape" fill="#524740"></path>
                    </g>
                    <circle id="Oval-Copy-25" fill="#252525" cx="165.5" cy="112.5" r="10.5"></circle>
                    <circle id="Oval-Copy-24" fill="#252525" cx="165.5" cy="152.5" r="10.5"></circle>
                    <g id="Positive-Ion" transform="translate(65.000000, 162.000000)">
                        <circle id="Oval-Copy-7" fill="#D7E465" cx="10.5" cy="10.5" r="10.5"></circle>
                        <path d="M10,10 L10,6 L11,6 L11,10 L15,10 L15,11 L11,11 L11,15 L10,15 L10,11 L6,11 L6,10 L10,10 Z" id="Combined-Shape" fill="#524740"></path>
                    </g>
                    <circle id="Oval-Copy-23" fill="#252525" cx="135.5" cy="52.5" r="10.5"></circle>
                    <circle id="Oval-Copy-22" fill="#252525" cx="135.5" cy="92.5" r="10.5"></circle>
                    <g id="Positive-Ion" transform="translate(125.000000, 122.000000)">
                        <circle id="Oval-Copy-21" fill="#D7E465" cx="10.5" cy="10.5" r="10.5"></circle>
                        <path d="M10,10 L10,6 L11,6 L11,10 L15,10 L15,11 L11,11 L11,15 L10,15 L10,11 L6,11 L6,10 L10,10 Z" id="Combined-Shape" fill="#524740"></path>
                    </g>
                    <circle id="Oval-Copy-20" fill="#252525" cx="135.5" cy="172.5" r="10.5"></circle>
                    <circle id="Oval-Copy-30" fill="#252525" cx="195.5" cy="52.5" r="10.5"></circle>
                    <circle id="Oval-Copy-29" fill="#252525" cx="195.5" cy="92.5" r="10.5"></circle>
                    <circle id="Oval-Copy-28" fill="#252525" cx="195.5" cy="132.5" r="10.5"></circle>
                    <circle id="Oval-Copy-27" fill="#252525" cx="195.5" cy="172.5" r="10.5"></circle>
                    <g id="Little-ones" transform="translate(59.000000, 42.000000)" fill="#EF7D3B">
                        <circle id="Oval-Copy-31" cx="25.25" cy="68.25" r="3.25"></circle>
                        <circle id="Oval-Copy-32" cx="38.25" cy="47.25" r="3.25"></circle>
                        <circle id="Oval-Copy-33" cx="28.25" cy="19.25" r="3.25"></circle>
                        <circle id="Oval-Copy-34" cx="69.25" cy="27.25" r="3.25"></circle>
                        <circle id="Oval-Copy-35" cx="79.25" cy="67.25" r="3.25"></circle>
                        <circle id="Oval-Copy-36" cx="60.25" cy="88.25" r="3.25"></circle>
                        <circle id="Oval-Copy-37" cx="35.25" cy="99.25" r="3.25"></circle>
                        <circle id="Oval-Copy-38" cx="31.25" cy="141.25" r="3.25"></circle>
                        <circle id="Oval-Copy-39" cx="3.25" cy="108.25" r="3.25"></circle>
                        <circle id="Oval-Copy-40" cx="55.25" cy="126.25" r="3.25"></circle>
                        <circle id="Oval-Copy-41" cx="115.25" cy="126.25" r="3.25"></circle>
                        <circle id="Oval-Copy-42" cx="90.25" cy="107.25" r="3.25"></circle>
                        <circle id="Oval-Copy-43" cx="90.25" cy="137.25" r="3.25"></circle>
                        <circle id="Oval-Copy-44" cx="130.25" cy="146.25" r="3.25"></circle>
                        <circle id="Oval-Copy-45" cx="150.25" cy="96.25" r="3.25"></circle>
                        <circle id="Oval-Copy-46" cx="119.25" cy="82.25" r="3.25"></circle>
                        <circle id="Oval-Copy-47" cx="129.25" cy="37.25" r="3.25"></circle>
                        <circle id="Oval-Copy-48" cx="119.25" cy="3.25" r="3.25"></circle>
                        <circle id="Oval-Copy-49" cx="96.25" cy="18.25" r="3.25"></circle>
                    </g>
                    <g id="Group" transform="translate(45.000000, 132.000000)" stroke-width="2">
                        <path d="M1.71297536,1.21301067 C-1.42386297,4.29967814 2.56579826,9.98721355 7.54733679,15.477443 C12.5288753,20.9676724 18.5005466,26.7041429 22.1041712,23.4270169 C25.7077957,20.149891 20.8366098,14.3555409 15.4917809,8.46492357 C10.146952,2.57430628 4.84981368,-1.87365681 1.71297536,1.21301067 Z" id="Path-2" stroke="#EEF3BD"></path>
                        <polyline id="Path-6" stroke="#EF7D3B" points="10.9653115 14.591336 10 10.3177798 14.058558 11.3208313"></polyline>
                    </g>
                    <g id="Group-Copy" transform="translate(13.000000, 78.000000)" stroke-width="2">
                        <path d="M12.695592,10.8825368 C7.95028603,15.5519461 25.2427597,31.042079 37.9184799,45.0121831 C50.5942,58.9822872 61.1725397,72.4600808 65.8176757,68.0317226 C70.4628116,63.6033645 59.6228587,53.1646973 45.8629239,37.9996637 C32.1029892,22.8346301 17.4408981,6.21312764 12.695592,10.8825368 Z" id="Path-2" stroke="#EEF3BD" transform="translate(39.400899, 39.485455) rotate(-60.000000) translate(-39.400899, -39.485455) "></path>
                        <polyline id="Path-6" stroke="#EF7D3B" transform="translate(43.029279, 37.454558) rotate(-58.000000) translate(-43.029279, -37.454558) " points="41.9653115 39.591336 41 35.3177798 45.058558 36.3208313"></polyline>
                    </g>
                    <g id="Group-Copy-2" transform="translate(53.500000, 53.500000) rotate(27.000000) translate(-53.500000, -53.500000) translate(14.000000, 14.000000)" stroke-width="2">
                        <path d="M12.695592,10.8825368 C7.95028603,15.5519461 25.2427597,31.042079 37.9184799,45.0121831 C50.5942,58.9822872 61.1725397,72.4600808 65.8176757,68.0317226 C70.4628116,63.6033645 59.6228587,53.1646973 45.8629239,37.9996637 C32.1029892,22.8346301 17.4408981,6.21312764 12.695592,10.8825368 Z" id="Path-2" stroke="#EEF3BD" transform="translate(39.400899, 39.485455) rotate(-60.000000) translate(-39.400899, -39.485455) "></path>
                        <polyline id="Path-6" stroke="#EF7D3B" transform="translate(43.029279, 37.454558) rotate(-58.000000) translate(-43.029279, -37.454558) " points="41.9653115 39.591336 41 35.3177798 45.058558 36.3208313"></polyline>
                    </g>
                    <g id="Group-Copy-3" transform="translate(63.500000, 84.500000) rotate(22.000000) translate(-63.500000, -84.500000) translate(24.000000, 45.000000)" stroke-width="2">
                        <path d="M12.695592,10.8825368 C7.95028603,15.5519461 25.2427597,31.042079 37.9184799,45.0121831 C50.5942,58.9822872 61.1725397,72.4600808 65.8176757,68.0317226 C70.4628116,63.6033645 59.6228587,53.1646973 45.8629239,37.9996637 C32.1029892,22.8346301 17.4408981,6.21312764 12.695592,10.8825368 Z" id="Path-2" stroke="#EEF3BD" transform="translate(39.400899, 39.485455) rotate(-60.000000) translate(-39.400899, -39.485455) "></path>
                        <polyline id="Path-6" stroke="#EF7D3B" transform="translate(43.029279, 37.454558) rotate(-58.000000) translate(-43.029279, -37.454558) " points="41.9653115 39.591336 41 35.3177798 45.058558 36.3208313"></polyline>
                    </g>
                    <g id="Group-Copy-4" transform="translate(62.500000, 185.500000) rotate(7.000000) translate(-62.500000, -185.500000) translate(23.000000, 146.000000)" stroke-width="2">
                        <path d="M12.695592,10.8825368 C7.95028603,15.5519461 25.2427597,31.042079 37.9184799,45.0121831 C50.5942,58.9822872 61.1725397,72.4600808 65.8176757,68.0317226 C70.4628116,63.6033645 59.6228587,53.1646973 45.8629239,37.9996637 C32.1029892,22.8346301 17.4408981,6.21312764 12.695592,10.8825368 Z" id="Path-2" stroke="#EEF3BD" transform="translate(39.400899, 39.485455) rotate(-60.000000) translate(-39.400899, -39.485455) "></path>
                        <polyline id="Path-6" stroke="#EF7D3B" transform="translate(43.029279, 37.454558) rotate(-58.000000) translate(-43.029279, -37.454558) " points="41.9653115 39.591336 41 35.3177798 45.058558 36.3208313"></polyline>
                    </g>
                    <g id="Group-Copy-5" transform="translate(55.755288, 155.073107) rotate(-5.000000) translate(-55.755288, -155.073107) translate(8.755288, 108.573107)" stroke-width="2">
                        <path d="M14.7202493,12.1456617 C9.97494332,16.8150709 32.2976417,37.5800005 44.9733619,51.5501046 C57.649082,65.5202087 74.1524688,84.8828285 78.7976047,80.4544704 C83.4427407,76.0261123 66.6777407,59.7026188 52.9178059,44.5375852 C39.1578712,29.3725517 19.4655554,7.47625245 14.7202493,12.1456617 Z" id="Path-2" stroke="#EEF3BD" transform="translate(46.828512, 46.301945) rotate(-60.000000) translate(-46.828512, -46.301945) "></path>
                        <polyline id="Path-6" stroke="#EF7D3B" transform="translate(45.870189, 46.098324) rotate(-58.000000) translate(-45.870189, -46.098324) " points="44.8062212 48.2351025 43.8409097 43.9615462 47.8994677 44.9645978"></polyline>
                    </g>
                </g>
                <path d="M49.263997,3.4 C51.6880091,3.4 53.5839902,3.97599424 54.951997,5.128 C56.3200038,6.28000576 57.003997,7.73199124 57.003997,9.484 C57.003997,11.2360088 56.3200038,12.6819943 54.951997,13.822 C53.5839902,14.9620057 51.6880091,15.532 49.263997,15.532 L46.059997,15.532 L46.059997,20.032 C46.059997,21.832009 46.257995,22.9839975 46.653997,23.488 C47.049999,23.9920025 47.9919896,24.244 49.479997,24.244 L49.479997,25 L39.759997,25 L39.759997,24.244 C41.2480044,24.244 42.189995,23.9920025 42.585997,23.488 C42.981999,22.9839975 43.179997,21.832009 43.179997,20.032 L43.179997,8.332 C43.179997,6.531991 42.981999,5.38600246 42.585997,4.894 C42.189995,4.40199754 41.2480044,4.156 39.759997,4.156 L39.759997,3.4 L49.263997,3.4 Z M49.227997,14.236 C50.7160044,14.236 51.8499931,13.7920044 52.629997,12.904 C53.4100009,12.0159956 53.799997,10.876007 53.799997,9.484 C53.799997,8.09199304 53.4100009,6.95200444 52.629997,6.064 C51.8499931,5.17599556 50.7160044,4.732 49.227997,4.732 L46.059997,4.732 L46.059997,14.236 L49.227997,14.236 Z M69.531998,18.412 L59.019998,18.412 L59.019998,16.828 L69.531998,16.828 L69.531998,18.412 Z M91.635999,3.4 L91.959999,8.26 L91.203999,8.26 L91.023999,7.54 C90.7359976,6.4599946 90.3520014,5.73400186 89.871999,5.362 C89.3919966,4.98999814 88.3840067,4.804 86.847999,4.804 L82.131999,4.804 L82.131999,20.032 C82.131999,21.832009 82.335997,22.9839975 82.743999,23.488 C83.152001,23.9920025 84.0999916,24.244 85.587999,24.244 L85.587999,25 L75.831999,25 L75.831999,24.244 C77.3200064,24.244 78.267997,23.9920025 78.675999,23.488 C79.084001,22.9839975 79.287999,21.832009 79.287999,20.032 L79.287999,4.804 L74.571999,4.804 C73.0359913,4.804 72.0280014,4.98999814 71.547999,5.362 C71.0679966,5.73400186 70.6840004,6.4599946 70.395999,7.54 L70.215999,8.26 L69.459999,8.26 L69.783999,3.4 L91.635999,3.4 Z M89.728,33.532 C89.728,33.1479981 89.8719986,32.8060015 90.16,32.506 C90.4480014,32.2059985 90.8259977,31.7980026 91.294,31.282 C91.7620023,30.7659974 92.1519984,30.112004 92.464,29.32 L94.264,24.82 L90.124,15.856 C89.7399981,15.0399959 89.3800017,14.4820015 89.044,14.182 C88.7079983,13.8819985 88.2640028,13.732 87.712,13.732 L87.712,13.012 L94.084,13.012 L94.084,13.732 C93.2679959,13.732 92.7760008,13.8639987 92.608,14.128 C92.4399992,14.3920013 92.5479981,14.9679956 92.932,15.856 L95.56,21.616 L97.864,15.856 C98.2000017,15.0399959 98.2960007,14.4820015 98.152,14.182 C98.0079993,13.8819985 97.5640037,13.732 96.82,13.732 L96.82,13.012 L101.86,13.012 L101.86,13.732 C100.731994,13.732 99.8800029,14.4399929 99.304,15.856 L92.284,33.388 C91.9239982,34.2760044 91.4800026,34.72 90.952,34.72 C90.6399984,34.72 90.3580013,34.624001 90.106,34.432 C89.8539987,34.239999 89.728,33.940002 89.728,33.532 Z M112.048001,22.732 C112.744004,21.7479951 113.092001,20.5000076 113.092001,18.988 C113.092001,17.4759924 112.744004,16.2400048 112.048001,15.28 C111.351998,14.3199952 110.344008,13.84 109.024001,13.84 C108.207997,13.84 107.482004,14.0919975 106.846001,14.596 C106.209998,15.1000025 105.712003,15.7839957 105.352001,16.648 L105.352001,21.292 C105.712003,22.1800044 106.209998,22.8819974 106.846001,23.398 C107.482004,23.9140026 108.207997,24.172 109.024001,24.172 C110.344008,24.172 111.351998,23.6920048 112.048001,22.732 Z M105.352001,29.068 C105.352001,30.8440089 105.525999,31.9839975 105.874001,32.488 C106.222003,32.9920025 106.995995,33.244 108.196001,33.244 L108.196001,34 L99.952001,34 L99.952001,33.244 C101.152007,33.244 101.925999,32.9980025 102.274001,32.506 C102.622003,32.0139975 102.796001,30.868009 102.796001,29.068 L102.796001,18.232 C102.796001,16.431991 102.622003,15.2860025 102.274001,14.794 C101.925999,14.3019975 101.152007,14.056 99.952001,14.056 L99.952001,13.3 L104.776001,12.4 C104.920002,12.6640013 105.1,13.395994 105.316001,14.596 C106.540007,13.1319927 108.027992,12.4 109.780001,12.4 C111.48401,12.4 112.947995,13.0419936 114.172001,14.326 C115.396007,15.6100064 116.008001,17.1639909 116.008001,18.988 C116.008001,20.8120091 115.396007,22.3719935 114.172001,23.668 C112.947995,24.9640065 111.48401,25.612 109.780001,25.612 C108.003992,25.612 106.528007,24.8920072 105.352001,23.452 L105.352001,29.068 Z M120.400002,16.756 L126.376002,16.756 C126.616003,16.0839966 126.514004,15.4300032 126.070002,14.794 C125.626,14.1579968 124.864007,13.84 123.784002,13.84 C123.015998,13.84 122.326005,14.1039974 121.714002,14.632 C121.101999,15.1600026 120.664003,15.8679956 120.400002,16.756 Z M120.184002,18.088 C119.968001,19.8640089 120.249998,21.3099944 121.030002,22.426 C121.810006,23.5420056 123.087993,24.1 124.864002,24.1 C125.464005,24.1 126.147998,23.9440016 126.916002,23.632 C127.684006,23.3199984 128.319999,22.9240024 128.824002,22.444 L129.472002,23.236 C128.823999,23.9320035 127.996007,24.5019978 126.988002,24.946 C125.979997,25.3900022 124.972007,25.612 123.964002,25.612 C122.019992,25.612 120.424008,24.9700064 119.176002,23.686 C117.927996,22.4019936 117.304002,20.8360092 117.304002,18.988 C117.304002,17.1399908 117.981995,15.5800064 119.338002,14.308 C120.694009,13.0359936 122.235993,12.4 123.964002,12.4 C125.59601,12.4 126.927997,12.9699943 127.960002,14.11 C128.992007,15.2500057 129.292004,16.5759924 128.860002,18.088 L120.184002,18.088 Z" id="P-Type-Copy" fill="#524740"></path>
                <path d="M205.509997,20.536 L205.509997,8.332 C205.509997,6.531991 205.311999,5.38600246 204.915997,4.894 C204.519995,4.40199754 203.578004,4.156 202.089997,4.156 L202.089997,3.4 L210.297997,3.4 L210.297997,4.156 C208.80999,4.156 207.861999,4.40199754 207.453997,4.894 C207.045995,5.38600246 206.841997,6.531991 206.841997,8.332 L206.841997,25.612 L206.013997,25.612 L191.361997,7.504 L191.361997,20.032 C191.361997,21.832009 191.565995,22.9839975 191.973997,23.488 C192.381999,23.9920025 193.32999,24.244 194.817997,24.244 L194.817997,25 L186.609997,25 L186.609997,24.244 C188.098004,24.244 189.039995,23.9920025 189.435997,23.488 C189.831999,22.9839975 190.029997,21.832009 190.029997,20.032 L190.029997,8.332 C190.029997,6.531991 189.831999,5.38600246 189.435997,4.894 C189.039995,4.40199754 188.098004,4.156 186.609997,4.156 L186.609997,3.4 L191.685997,3.4 L205.509997,20.536 Z M222.681998,18.412 L212.169998,18.412 L212.169998,16.828 L222.681998,16.828 L222.681998,18.412 Z M244.785999,3.4 L245.109999,8.26 L244.353999,8.26 L244.173999,7.54 C243.885998,6.4599946 243.502001,5.73400186 243.021999,5.362 C242.541997,4.98999814 241.534007,4.804 239.997999,4.804 L235.281999,4.804 L235.281999,20.032 C235.281999,21.832009 235.485997,22.9839975 235.893999,23.488 C236.302001,23.9920025 237.249992,24.244 238.737999,24.244 L238.737999,25 L228.981999,25 L228.981999,24.244 C230.470006,24.244 231.417997,23.9920025 231.825999,23.488 C232.234001,22.9839975 232.437999,21.832009 232.437999,20.032 L232.437999,4.804 L227.721999,4.804 C226.185991,4.804 225.178001,4.98999814 224.697999,5.362 C224.217997,5.73400186 223.834,6.4599946 223.545999,7.54 L223.365999,8.26 L222.609999,8.26 L222.933999,3.4 L244.785999,3.4 Z M242.878,33.532 C242.878,33.1479981 243.021999,32.8060015 243.31,32.506 C243.598001,32.2059985 243.975998,31.7980026 244.444,31.282 C244.912002,30.7659974 245.301998,30.112004 245.614,29.32 L247.414,24.82 L243.274,15.856 C242.889998,15.0399959 242.530002,14.4820015 242.194,14.182 C241.857998,13.8819985 241.414003,13.732 240.862,13.732 L240.862,13.012 L247.234,13.012 L247.234,13.732 C246.417996,13.732 245.926001,13.8639987 245.758,14.128 C245.589999,14.3920013 245.697998,14.9679956 246.082,15.856 L248.71,21.616 L251.014,15.856 C251.350002,15.0399959 251.446001,14.4820015 251.302,14.182 C251.157999,13.8819985 250.714004,13.732 249.97,13.732 L249.97,13.012 L255.01,13.012 L255.01,13.732 C253.881994,13.732 253.030003,14.4399929 252.454,15.856 L245.434,33.388 C245.073998,34.2760044 244.630003,34.72 244.102,34.72 C243.789998,34.72 243.508001,34.624001 243.256,34.432 C243.003999,34.239999 242.878,33.940002 242.878,33.532 Z M265.198001,22.732 C265.894004,21.7479951 266.242001,20.5000076 266.242001,18.988 C266.242001,17.4759924 265.894004,16.2400048 265.198001,15.28 C264.501998,14.3199952 263.494008,13.84 262.174001,13.84 C261.357997,13.84 260.632004,14.0919975 259.996001,14.596 C259.359998,15.1000025 258.862003,15.7839957 258.502001,16.648 L258.502001,21.292 C258.862003,22.1800044 259.359998,22.8819974 259.996001,23.398 C260.632004,23.9140026 261.357997,24.172 262.174001,24.172 C263.494008,24.172 264.501998,23.6920048 265.198001,22.732 Z M258.502001,29.068 C258.502001,30.8440089 258.675999,31.9839975 259.024001,32.488 C259.372003,32.9920025 260.145995,33.244 261.346001,33.244 L261.346001,34 L253.102001,34 L253.102001,33.244 C254.302007,33.244 255.075999,32.9980025 255.424001,32.506 C255.772003,32.0139975 255.946001,30.868009 255.946001,29.068 L255.946001,18.232 C255.946001,16.431991 255.772003,15.2860025 255.424001,14.794 C255.075999,14.3019975 254.302007,14.056 253.102001,14.056 L253.102001,13.3 L257.926001,12.4 C258.070002,12.6640013 258.25,13.395994 258.466001,14.596 C259.690007,13.1319927 261.177992,12.4 262.930001,12.4 C264.63401,12.4 266.097995,13.0419936 267.322001,14.326 C268.546007,15.6100064 269.158001,17.1639909 269.158001,18.988 C269.158001,20.8120091 268.546007,22.3719935 267.322001,23.668 C266.097995,24.9640065 264.63401,25.612 262.930001,25.612 C261.153992,25.612 259.678007,24.8920072 258.502001,23.452 L258.502001,29.068 Z M273.550002,16.756 L279.526002,16.756 C279.766003,16.0839966 279.664004,15.4300032 279.220002,14.794 C278.776,14.1579968 278.014007,13.84 276.934002,13.84 C276.165998,13.84 275.476005,14.1039974 274.864002,14.632 C274.251999,15.1600026 273.814003,15.8679956 273.550002,16.756 Z M273.334002,18.088 C273.118001,19.8640089 273.399998,21.3099944 274.180002,22.426 C274.960006,23.5420056 276.237993,24.1 278.014002,24.1 C278.614005,24.1 279.297998,23.9440016 280.066002,23.632 C280.834006,23.3199984 281.469999,22.9240024 281.974002,22.444 L282.622002,23.236 C281.973999,23.9320035 281.146007,24.5019978 280.138002,24.946 C279.129997,25.3900022 278.122007,25.612 277.114002,25.612 C275.169992,25.612 273.574008,24.9700064 272.326002,23.686 C271.077996,22.4019936 270.454002,20.8360092 270.454002,18.988 C270.454002,17.1399908 271.131995,15.5800064 272.488002,14.308 C273.844009,13.0359936 275.385993,12.4 277.114002,12.4 C278.74601,12.4 280.077997,12.9699943 281.110002,14.11 C282.142007,15.2500057 282.442004,16.5759924 282.010002,18.088 L273.334002,18.088 Z" id="N-Type-Copy" fill="#524740"></path>
            </g>
        </g>
        <text id="P-N-Junction-Electro" font-family="Wavehaus-66Book, Wavehaus" font-size="36" font-weight="300" letter-spacing="-2.15999937" fill="#23ABE3">
            <tspan x="13" y="44">P-N Junction Electron Diffusion</tspan>
        </text>
        <path d="M15.628,44 L15.628,19.808 L23.836,19.808 C26.5480136,19.808 28.707992,20.5219929 30.316,21.95 C31.924008,23.3780071 32.728,25.1719892 32.728,27.332 C32.728,29.4680107 31.924008,31.2559928 30.316,32.696 C28.707992,34.1360072 26.5480136,34.856 23.836,34.856 L18.004,34.856 L18.004,44 L15.628,44 Z M18.004,32.588 L23.836,32.588 C25.7800097,32.588 27.3399941,32.090005 28.516,31.094 C29.6920059,30.097995 30.28,28.8440076 30.28,27.332 C30.28,25.8439926 29.6920059,24.596005 28.516,23.588 C27.3399941,22.579995 25.7800097,22.076 23.836,22.076 L18.004,22.076 L18.004,32.588 Z M43.8520006,32.984 L34.1680006,32.984 L34.1680006,30.824 L43.8520006,30.824 L43.8520006,32.984 Z M61.9600013,19.808 L64.3360013,19.808 L64.3360013,44 L61.8880013,44 L48.3880013,23.444 L48.3880013,44 L46.0120013,44 L46.0120013,19.808 L48.4240013,19.808 L61.9600013,40.4 L61.9600013,19.808 Z M80.3920025,44.288 C78.7839945,44.288 77.4160082,43.7720052 76.2880025,42.74 C75.1599969,41.7079948 74.4280042,40.5320066 74.0920025,39.212 L76.1800025,38.456 C76.3960036,39.3920047 76.8699989,40.2259963 77.6020025,40.958 C78.3340062,41.6900037 79.2159974,42.056 80.2480025,42.056 C81.544009,42.056 82.5099993,41.6720038 83.1460025,40.904 C83.7820057,40.1359962 84.1000025,39.2000055 84.1000025,38.096 L84.1000025,19.952 L86.4760025,19.952 L86.4760025,37.952 C86.4760025,39.8000092 85.9480078,41.3179941 84.8920025,42.506 C83.8359972,43.6940059 82.3360122,44.288 80.3920025,44.288 Z M102.424003,26 L104.800003,26 L104.800003,44 L102.424003,44 L102.424003,41.336 C100.959996,43.3040098 99.040015,44.288 96.6640031,44.288 C94.5759927,44.288 92.8240102,43.5500074 91.4080031,42.074 C89.9919961,40.5979926 89.2840031,38.7800108 89.2840031,36.62 L89.2840031,26 L91.7320031,26 L91.7320031,36.548 C91.7320031,38.0840077 92.247998,39.3859947 93.2800031,40.454 C94.3120083,41.5220053 95.5719957,42.056 97.0600031,42.056 C98.5720107,42.056 99.843998,41.5220053 100.876003,40.454 C101.908008,39.3859947 102.424003,38.0840077 102.424003,36.548 L102.424003,26 Z M115.708004,25.712 C117.796014,25.712 119.547997,26.4499926 120.964004,27.926 C122.380011,29.4020074 123.088004,31.2199892 123.088004,33.38 L123.088004,44 L120.676004,44 L120.676004,33.452 C120.676004,31.9159923 120.154009,30.6080054 119.110004,29.528 C118.065999,28.4479946 116.800011,27.908 115.312004,27.908 C113.823996,27.908 112.558009,28.4479946 111.514004,29.528 C110.469999,30.6080054 109.948004,31.9159923 109.948004,33.452 L109.948004,44 L107.572004,44 L107.572004,26 L109.948004,26 L109.948004,28.664 C111.412011,26.6959902 113.331992,25.712 115.708004,25.712 Z M133.600004,44.288 C131.031992,44.288 128.842013,43.3820091 127.030004,41.57 C125.217995,39.7579909 124.312004,37.5680128 124.312004,35 C124.312004,32.4319872 125.217995,30.2420091 127.030004,28.43 C128.842013,26.6179909 131.031992,25.712 133.600004,25.712 C135.232013,25.712 136.749997,26.113996 138.154004,26.918 C139.558011,27.722004 140.668,28.7959933 141.484004,30.14 L139.324004,31.184 C138.676001,30.1999951 137.848009,29.4200029 136.840004,28.844 C135.831999,28.2679971 134.75201,27.98 133.600004,27.98 C131.655995,27.98 130.018011,28.6579932 128.686004,30.014 C127.353998,31.3700068 126.688004,33.0319902 126.688004,35 C126.688004,36.9680098 127.353998,38.6299932 128.686004,39.986 C130.018011,41.3420068 131.655995,42.02 133.600004,42.02 C134.75201,42.02 135.831999,41.7320029 136.840004,41.156 C137.848009,40.5799971 138.676001,39.8000049 139.324004,38.816 L141.484004,39.86 C140.668,41.2040067 139.558011,42.277996 138.154004,43.082 C136.749997,43.886004 135.232013,44.288 133.600004,44.288 Z M153.616005,39.968 L154.804005,41.804 C154.660004,41.996001 154.468006,42.2239987 154.228005,42.488 C153.988004,42.7520013 153.448009,43.1179977 152.608005,43.586 C151.768001,44.0540023 150.904009,44.288 150.016005,44.288 C148.503997,44.288 147.23801,43.8380045 146.218005,42.938 C145.198,42.0379955 144.688005,40.7360085 144.688005,39.032 L144.688005,28.16 L141.808005,28.16 L141.808005,25.964 L144.688005,25.964 L144.688005,20.276 L147.064005,19.988 L147.064005,25.964 L152.500005,25.964 L152.500005,28.16 L147.064005,28.16 L147.064005,38.492 C147.064005,39.5960055 147.406002,40.4719968 148.090005,41.12 C148.774008,41.7680032 149.560001,42.092 150.448005,42.092 C151.000008,42.092 151.540002,41.9240017 152.068005,41.588 C152.596008,41.2519983 152.986004,40.9220016 153.238005,40.598 C153.490006,40.2739984 153.616005,40.0640005 153.616005,39.968 Z M158.296006,20.6 C158.032004,20.8880014 157.696008,21.032 157.288006,21.032 C156.880004,21.032 156.538007,20.8880014 156.262006,20.6 C155.986004,20.3119986 155.848006,19.9760019 155.848006,19.592 C155.848006,19.2079981 155.986004,18.8720014 156.262006,18.584 C156.538007,18.2959986 156.880004,18.152 157.288006,18.152 C157.696008,18.152 158.038004,18.2959986 158.314006,18.584 C158.590007,18.8720014 158.728006,19.2079981 158.728006,19.592 C158.728006,19.9760019 158.584007,20.3119986 158.296006,20.6 Z M156.100006,44 L156.100006,26 L158.476006,26 L158.476006,44 L156.100006,44 Z M176.368006,41.552 C174.567997,43.3760091 172.384019,44.288 169.816006,44.288 C167.247993,44.288 165.058015,43.3820091 163.246006,41.57 C161.433997,39.7579909 160.528006,37.5680128 160.528006,35 C160.528006,32.4319872 161.433997,30.2420091 163.246006,28.43 C165.058015,26.6179909 167.247993,25.712 169.816006,25.712 C172.384019,25.712 174.573997,26.6179909 176.386006,28.43 C178.198015,30.2420091 179.104006,32.4319872 179.104006,35 C179.104006,37.5440127 178.192015,39.7279909 176.368006,41.552 Z M169.852006,42.02 C171.796016,42.02 173.434,41.3420068 174.766006,39.986 C176.098013,38.6299932 176.764006,36.9680098 176.764006,35 C176.764006,33.0319902 176.098013,31.3640068 174.766006,29.996 C173.434,28.6279932 171.796016,27.944 169.852006,27.944 C167.931997,27.944 166.300013,28.6279932 164.956006,29.996 C163.612,31.3640068 162.940006,33.0319902 162.940006,35 C162.940006,36.9680098 163.612,38.6299932 164.956006,39.986 C166.300013,41.3420068 167.931997,42.02 169.852006,42.02 Z M188.644007,25.712 C190.732017,25.712 192.484,26.4499926 193.900007,27.926 C195.316014,29.4020074 196.024007,31.2199892 196.024007,33.38 L196.024007,44 L193.612007,44 L193.612007,33.452 C193.612007,31.9159923 193.090012,30.6080054 192.046007,29.528 C191.002002,28.4479946 189.736014,27.908 188.248007,27.908 C186.759999,27.908 185.494012,28.4479946 184.450007,29.528 C183.406002,30.6080054 182.884007,31.9159923 182.884007,33.452 L182.884007,44 L180.508007,44 L180.508007,26 L182.884007,26 L182.884007,28.664 C184.348014,26.6959902 186.267995,25.712 188.644007,25.712 Z" id="P-N-Junction-Copy" fill="#23ABE3"></path>
    </g>
</svg>