<?xml version="1.0" encoding="UTF-8"?>
<svg width="900px" height="400px" viewBox="0 0 900 400" version="1.1" xmlns="http://www.w3.org/2000/svg" xmlns:xlink="http://www.w3.org/1999/xlink">
    <!-- Generator: Sketch 52.5 (67469) - http://www.bohemiancoding.com/sketch -->
    <title>P-N_Junction_Electric_Field</title>
    <desc>Created with Sketch.</desc>
    <g id="P-N_Junction_Electric_Field" stroke="none" stroke-width="1" fill="none" fill-rule="evenodd">
        <rect id="Rectangle" fill="#EEEEEE" x="0" y="0" width="900" height="430"></rect>
        <g id="Illustration" transform="translate(290.000000, 66.000000)">
            <g id="Lattice-Junction">
                <g id="P-Type-Lattice" transform="translate(0.000000, 41.000000)">
                    <rect id="Rectangle" stroke="#999999" stroke-width="2" fill="#D4D4D4" x="1" y="1" width="158" height="158"></rect>
                    <circle id="Oval-Copy-3" fill="#252525" cx="20.5" cy="18.5" r="10.5"></circle>
                    <circle id="Oval-Copy-5" fill="#252525" cx="20.5" cy="58.5" r="10.5"></circle>
                    <circle id="Oval-Copy-6" fill="#252525" cx="20.5" cy="98.5" r="10.5"></circle>
                    <circle id="Oval-Copy-10" fill="#252525" cx="50.5" cy="38.5" r="10.5"></circle>
                    <circle id="Oval-Copy-8" fill="#252525" cx="50.5" cy="118.5" r="10.5"></circle>
                    <g id="Negative-Ion" transform="translate(100.000000, 28.000000)">
                        <circle id="Oval-Copy-26" fill="#84D0EF" cx="10.5" cy="10.5" r="10.5"></circle>
                        <rect id="Rectangle" fill="#524740" x="6" y="10" width="9" height="1"></rect>
                    </g>
                    <circle id="Oval-Copy-25" fill="#252525" cx="110.5" cy="78.5" r="10.5"></circle>
                    <circle id="Oval-Copy-24" fill="#252525" cx="110.5" cy="118.5" r="10.5"></circle>
                    <g id="Negative-Ion" transform="translate(40.000000, 68.000000)">
                        <circle id="Oval-Copy-9" fill="#84D0EF" cx="10.5" cy="10.5" r="10.5"></circle>
                        <rect id="Rectangle" fill="#524740" x="6" y="10" width="9" height="1"></rect>
                    </g>
                    <g id="Negative-Ion" transform="translate(10.000000, 128.000000)">
                        <circle id="Oval-Copy-7" fill="#84D0EF" cx="10.5" cy="10.5" r="10.5"></circle>
                        <rect id="Rectangle" fill="#524740" x="6" y="10" width="9" height="1"></rect>
                    </g>
                    <circle id="Oval-Copy-23" fill="#252525" cx="80.5" cy="18.5" r="10.5"></circle>
                    <circle id="Oval-Copy-22" fill="#252525" cx="80.5" cy="58.5" r="10.5"></circle>
                    <g id="Negative-Ion" transform="translate(70.000000, 88.000000)">
                        <circle id="Oval-Copy-21" fill="#84D0EF" cx="10.5" cy="10.5" r="10.5"></circle>
                        <rect id="Rectangle" fill="#524740" x="6" y="10" width="9" height="1"></rect>
                    </g>
                    <circle id="Oval-Copy-20" fill="#252525" cx="80.5" cy="138.5" r="10.5"></circle>
                    <circle id="Oval-Copy-30" fill="#252525" cx="140.5" cy="18.5" r="10.5"></circle>
                    <circle id="Oval-Copy-29" fill="#252525" cx="140.5" cy="58.5" r="10.5"></circle>
                    <circle id="Oval-Copy-28" fill="#252525" cx="140.5" cy="98.5" r="10.5"></circle>
                    <circle id="Oval-Copy-27" fill="#252525" cx="140.5" cy="138.5" r="10.5"></circle>
                    <g id="Little-Ones" transform="translate(4.000000, 23.000000)" fill="#84D0EF">
                        <circle id="Oval-Copy-31" cx="25.25" cy="53.25" r="3.25"></circle>
                        <circle id="Oval-Copy-32" cx="38.25" cy="32.25" r="3.25"></circle>
                        <circle id="Oval-Copy-33" cx="28.25" cy="4.25" r="3.25"></circle>
                        <circle id="Oval-Copy-34" cx="69.25" cy="12.25" r="3.25"></circle>
                        <circle id="Oval-Copy-35" cx="79.25" cy="52.25" r="3.25"></circle>
                        <circle id="Oval-Copy-36" cx="60.25" cy="73.25" r="3.25"></circle>
                        <circle id="Oval-Copy-37" cx="35.25" cy="84.25" r="3.25"></circle>
                        <circle id="Oval-Copy-38" cx="31.25" cy="126.25" r="3.25"></circle>
                        <circle id="Oval-Copy-39" cx="3.25" cy="93.25" r="3.25"></circle>
                        <circle id="Oval-Copy-40" cx="55.25" cy="111.25" r="3.25"></circle>
                        <circle id="Oval-Copy-42" cx="90.25" cy="92.25" r="3.25"></circle>
                        <circle id="Oval-Copy-43" cx="90.25" cy="122.25" r="3.25"></circle>
                        <circle id="Oval-Copy-49" cx="96.25" cy="3.25" r="3.25"></circle>
                    </g>
                </g>
                <g id="N-Type-Lattice" transform="translate(158.000000, 41.000000)">
                    <rect id="Rectangle" stroke="#999999" stroke-width="2" fill="#7D7570" x="1" y="1" width="158" height="158"></rect>
                    <circle id="Oval-Copy-3" fill="#252525" cx="20.5" cy="18.5" r="10.5"></circle>
                    <circle id="Oval-Copy-5" fill="#252525" cx="20.5" cy="58.5" r="10.5"></circle>
                    <circle id="Oval-Copy-6" fill="#252525" cx="20.5" cy="98.5" r="10.5"></circle>
                    <circle id="Oval-Copy-10" fill="#252525" cx="50.5" cy="38.5" r="10.5"></circle>
                    <g id="Positive-Ion" transform="translate(40.000000, 68.000000)">
                        <circle id="Oval-Copy-9" fill="#D7E465" cx="10.5" cy="10.5" r="10.5"></circle>
                        <path d="M10,10 L10,6 L11,6 L11,10 L15,10 L15,11 L11,11 L11,15 L10,15 L10,11 L6,11 L6,10 L10,10 Z" id="Combined-Shape" fill="#524740"></path>
                    </g>
                    <circle id="Oval-Copy-8" fill="#252525" cx="50.5" cy="118.5" r="10.5"></circle>
                    <g id="Positive-Ion" transform="translate(100.000000, 28.000000)">
                        <circle id="Oval-Copy-26" fill="#D7E465" cx="10.5" cy="10.5" r="10.5"></circle>
                        <path d="M10,10 L10,6 L11,6 L11,10 L15,10 L15,11 L11,11 L11,15 L10,15 L10,11 L6,11 L6,10 L10,10 Z" id="Combined-Shape" fill="#524740"></path>
                    </g>
                    <circle id="Oval-Copy-25" fill="#252525" cx="110.5" cy="78.5" r="10.5"></circle>
                    <circle id="Oval-Copy-24" fill="#252525" cx="110.5" cy="118.5" r="10.5"></circle>
                    <g id="Positive-Ion" transform="translate(10.000000, 128.000000)">
                        <circle id="Oval-Copy-7" fill="#D7E465" cx="10.5" cy="10.5" r="10.5"></circle>
                        <path d="M10,10 L10,6 L11,6 L11,10 L15,10 L15,11 L11,11 L11,15 L10,15 L10,11 L6,11 L6,10 L10,10 Z" id="Combined-Shape" fill="#524740"></path>
                    </g>
                    <circle id="Oval-Copy-23" fill="#252525" cx="80.5" cy="18.5" r="10.5"></circle>
                    <circle id="Oval-Copy-22" fill="#252525" cx="80.5" cy="58.5" r="10.5"></circle>
                    <g id="Positive-Ion" transform="translate(70.000000, 88.000000)">
                        <circle id="Oval-Copy-21" fill="#D7E465" cx="10.5" cy="10.5" r="10.5"></circle>
                        <path d="M10,10 L10,6 L11,6 L11,10 L15,10 L15,11 L11,11 L11,15 L10,15 L10,11 L6,11 L6,10 L10,10 Z" id="Combined-Shape" fill="#524740"></path>
                    </g>
                    <circle id="Oval-Copy-20" fill="#252525" cx="80.5" cy="138.5" r="10.5"></circle>
                    <circle id="Oval-Copy-30" fill="#252525" cx="140.5" cy="18.5" r="10.5"></circle>
                    <circle id="Oval-Copy-29" fill="#252525" cx="140.5" cy="58.5" r="10.5"></circle>
                    <circle id="Oval-Copy-28" fill="#252525" cx="140.5" cy="98.5" r="10.5"></circle>
                    <circle id="Oval-Copy-27" fill="#252525" cx="140.5" cy="138.5" r="10.5"></circle>
                    <g id="Little-ones" transform="translate(56.000000, 8.000000)" fill="#EF7D3B">
                        <circle id="Oval-Copy-34" cx="17.25" cy="27.25" r="3.25"></circle>
                        <circle id="Oval-Copy-35" cx="27.25" cy="67.25" r="3.25"></circle>
                        <circle id="Oval-Copy-36" cx="8.25" cy="88.25" r="3.25"></circle>
                        <circle id="Oval-Copy-40" cx="3.25" cy="126.25" r="3.25"></circle>
                        <circle id="Oval-Copy-41" cx="63.25" cy="126.25" r="3.25"></circle>
                        <circle id="Oval-Copy-42" cx="38.25" cy="107.25" r="3.25"></circle>
                        <circle id="Oval-Copy-43" cx="38.25" cy="137.25" r="3.25"></circle>
                        <circle id="Oval-Copy-44" cx="78.25" cy="146.25" r="3.25"></circle>
                        <circle id="Oval-Copy-45" cx="98.25" cy="96.25" r="3.25"></circle>
                        <circle id="Oval-Copy-46" cx="67.25" cy="82.25" r="3.25"></circle>
                        <circle id="Oval-Copy-47" cx="77.25" cy="37.25" r="3.25"></circle>
                        <circle id="Oval-Copy-48" cx="67.25" cy="3.25" r="3.25"></circle>
                        <circle id="Oval-Copy-49" cx="44.25" cy="18.25" r="3.25"></circle>
                    </g>
                </g>
                <path d="M103.5,42.5 L104,201" id="Line" stroke="#979797" stroke-width="2" stroke-linecap="square" stroke-dasharray="8,8"></path>
                <path d="M213.5,42.5 L214,201" id="Line-Copy" stroke="#979797" stroke-width="2" stroke-linecap="square" stroke-dasharray="8,8"></path>
                <path d="M49.263997,3.4 C51.6880091,3.4 53.5839902,3.97599424 54.951997,5.128 C56.3200038,6.28000576 57.003997,7.73199124 57.003997,9.484 C57.003997,11.2360088 56.3200038,12.6819943 54.951997,13.822 C53.5839902,14.9620057 51.6880091,15.532 49.263997,15.532 L46.059997,15.532 L46.059997,20.032 C46.059997,21.832009 46.257995,22.9839975 46.653997,23.488 C47.049999,23.9920025 47.9919896,24.244 49.479997,24.244 L49.479997,25 L39.759997,25 L39.759997,24.244 C41.2480044,24.244 42.189995,23.9920025 42.585997,23.488 C42.981999,22.9839975 43.179997,21.832009 43.179997,20.032 L43.179997,8.332 C43.179997,6.531991 42.981999,5.38600246 42.585997,4.894 C42.189995,4.40199754 41.2480044,4.156 39.759997,4.156 L39.759997,3.4 L49.263997,3.4 Z M49.227997,14.236 C50.7160044,14.236 51.8499931,13.7920044 52.629997,12.904 C53.4100009,12.0159956 53.799997,10.876007 53.799997,9.484 C53.799997,8.09199304 53.4100009,6.95200444 52.629997,6.064 C51.8499931,5.17599556 50.7160044,4.732 49.227997,4.732 L46.059997,4.732 L46.059997,14.236 L49.227997,14.236 Z M69.531998,18.412 L59.019998,18.412 L59.019998,16.828 L69.531998,16.828 L69.531998,18.412 Z M91.635999,3.4 L91.959999,8.26 L91.203999,8.26 L91.023999,7.54 C90.7359976,6.4599946 90.3520014,5.73400186 89.871999,5.362 C89.3919966,4.98999814 88.3840067,4.804 86.847999,4.804 L82.131999,4.804 L82.131999,20.032 C82.131999,21.832009 82.335997,22.9839975 82.743999,23.488 C83.152001,23.9920025 84.0999916,24.244 85.587999,24.244 L85.587999,25 L75.831999,25 L75.831999,24.244 C77.3200064,24.244 78.267997,23.9920025 78.675999,23.488 C79.084001,22.9839975 79.287999,21.832009 79.287999,20.032 L79.287999,4.804 L74.571999,4.804 C73.0359913,4.804 72.0280014,4.98999814 71.547999,5.362 C71.0679966,5.73400186 70.6840004,6.4599946 70.395999,7.54 L70.215999,8.26 L69.459999,8.26 L69.783999,3.4 L91.635999,3.4 Z M89.728,33.532 C89.728,33.1479981 89.8719986,32.8060015 90.16,32.506 C90.4480014,32.2059985 90.8259977,31.7980026 91.294,31.282 C91.7620023,30.7659974 92.1519984,30.112004 92.464,29.32 L94.264,24.82 L90.124,15.856 C89.7399981,15.0399959 89.3800017,14.4820015 89.044,14.182 C88.7079983,13.8819985 88.2640028,13.732 87.712,13.732 L87.712,13.012 L94.084,13.012 L94.084,13.732 C93.2679959,13.732 92.7760008,13.8639987 92.608,14.128 C92.4399992,14.3920013 92.5479981,14.9679956 92.932,15.856 L95.56,21.616 L97.864,15.856 C98.2000017,15.0399959 98.2960007,14.4820015 98.152,14.182 C98.0079993,13.8819985 97.5640037,13.732 96.82,13.732 L96.82,13.012 L101.86,13.012 L101.86,13.732 C100.731994,13.732 99.8800029,14.4399929 99.304,15.856 L92.284,33.388 C91.9239982,34.2760044 91.4800026,34.72 90.952,34.72 C90.6399984,34.72 90.3580013,34.624001 90.106,34.432 C89.8539987,34.239999 89.728,33.940002 89.728,33.532 Z M112.048001,22.732 C112.744004,21.7479951 113.092001,20.5000076 113.092001,18.988 C113.092001,17.4759924 112.744004,16.2400048 112.048001,15.28 C111.351998,14.3199952 110.344008,13.84 109.024001,13.84 C108.207997,13.84 107.482004,14.0919975 106.846001,14.596 C106.209998,15.1000025 105.712003,15.7839957 105.352001,16.648 L105.352001,21.292 C105.712003,22.1800044 106.209998,22.8819974 106.846001,23.398 C107.482004,23.9140026 108.207997,24.172 109.024001,24.172 C110.344008,24.172 111.351998,23.6920048 112.048001,22.732 Z M105.352001,29.068 C105.352001,30.8440089 105.525999,31.9839975 105.874001,32.488 C106.222003,32.9920025 106.995995,33.244 108.196001,33.244 L108.196001,34 L99.952001,34 L99.952001,33.244 C101.152007,33.244 101.925999,32.9980025 102.274001,32.506 C102.622003,32.0139975 102.796001,30.868009 102.796001,29.068 L102.796001,18.232 C102.796001,16.431991 102.622003,15.2860025 102.274001,14.794 C101.925999,14.3019975 101.152007,14.056 99.952001,14.056 L99.952001,13.3 L104.776001,12.4 C104.920002,12.6640013 105.1,13.395994 105.316001,14.596 C106.540007,13.1319927 108.027992,12.4 109.780001,12.4 C111.48401,12.4 112.947995,13.0419936 114.172001,14.326 C115.396007,15.6100064 116.008001,17.1639909 116.008001,18.988 C116.008001,20.8120091 115.396007,22.3719935 114.172001,23.668 C112.947995,24.9640065 111.48401,25.612 109.780001,25.612 C108.003992,25.612 106.528007,24.8920072 105.352001,23.452 L105.352001,29.068 Z M120.400002,16.756 L126.376002,16.756 C126.616003,16.0839966 126.514004,15.4300032 126.070002,14.794 C125.626,14.1579968 124.864007,13.84 123.784002,13.84 C123.015998,13.84 122.326005,14.1039974 121.714002,14.632 C121.101999,15.1600026 120.664003,15.8679956 120.400002,16.756 Z M120.184002,18.088 C119.968001,19.8640089 120.249998,21.3099944 121.030002,22.426 C121.810006,23.5420056 123.087993,24.1 124.864002,24.1 C125.464005,24.1 126.147998,23.9440016 126.916002,23.632 C127.684006,23.3199984 128.319999,22.9240024 128.824002,22.444 L129.472002,23.236 C128.823999,23.9320035 127.996007,24.5019978 126.988002,24.946 C125.979997,25.3900022 124.972007,25.612 123.964002,25.612 C122.019992,25.612 120.424008,24.9700064 119.176002,23.686 C117.927996,22.4019936 117.304002,20.8360092 117.304002,18.988 C117.304002,17.1399908 117.981995,15.5800064 119.338002,14.308 C120.694009,13.0359936 122.235993,12.4 123.964002,12.4 C125.59601,12.4 126.927997,12.9699943 127.960002,14.11 C128.992007,15.2500057 129.292004,16.5759924 128.860002,18.088 L120.184002,18.088 Z" id="P-Type-Copy" fill="#524740"></path>
                <path d="M205.509997,20.536 L205.509997,8.332 C205.509997,6.531991 205.311999,5.38600246 204.915997,4.894 C204.519995,4.40199754 203.578004,4.156 202.089997,4.156 L202.089997,3.4 L210.297997,3.4 L210.297997,4.156 C208.80999,4.156 207.861999,4.40199754 207.453997,4.894 C207.045995,5.38600246 206.841997,6.531991 206.841997,8.332 L206.841997,25.612 L206.013997,25.612 L191.361997,7.504 L191.361997,20.032 C191.361997,21.832009 191.565995,22.9839975 191.973997,23.488 C192.381999,23.9920025 193.32999,24.244 194.817997,24.244 L194.817997,25 L186.609997,25 L186.609997,24.244 C188.098004,24.244 189.039995,23.9920025 189.435997,23.488 C189.831999,22.9839975 190.029997,21.832009 190.029997,20.032 L190.029997,8.332 C190.029997,6.531991 189.831999,5.38600246 189.435997,4.894 C189.039995,4.40199754 188.098004,4.156 186.609997,4.156 L186.609997,3.4 L191.685997,3.4 L205.509997,20.536 Z M222.681998,18.412 L212.169998,18.412 L212.169998,16.828 L222.681998,16.828 L222.681998,18.412 Z M244.785999,3.4 L245.109999,8.26 L244.353999,8.26 L244.173999,7.54 C243.885998,6.4599946 243.502001,5.73400186 243.021999,5.362 C242.541997,4.98999814 241.534007,4.804 239.997999,4.804 L235.281999,4.804 L235.281999,20.032 C235.281999,21.832009 235.485997,22.9839975 235.893999,23.488 C236.302001,23.9920025 237.249992,24.244 238.737999,24.244 L238.737999,25 L228.981999,25 L228.981999,24.244 C230.470006,24.244 231.417997,23.9920025 231.825999,23.488 C232.234001,22.9839975 232.437999,21.832009 232.437999,20.032 L232.437999,4.804 L227.721999,4.804 C226.185991,4.804 225.178001,4.98999814 224.697999,5.362 C224.217997,5.73400186 223.834,6.4599946 223.545999,7.54 L223.365999,8.26 L222.609999,8.26 L222.933999,3.4 L244.785999,3.4 Z M242.878,33.532 C242.878,33.1479981 243.021999,32.8060015 243.31,32.506 C243.598001,32.2059985 243.975998,31.7980026 244.444,31.282 C244.912002,30.7659974 245.301998,30.112004 245.614,29.32 L247.414,24.82 L243.274,15.856 C242.889998,15.0399959 242.530002,14.4820015 242.194,14.182 C241.857998,13.8819985 241.414003,13.732 240.862,13.732 L240.862,13.012 L247.234,13.012 L247.234,13.732 C246.417996,13.732 245.926001,13.8639987 245.758,14.128 C245.589999,14.3920013 245.697998,14.9679956 246.082,15.856 L248.71,21.616 L251.014,15.856 C251.350002,15.0399959 251.446001,14.4820015 251.302,14.182 C251.157999,13.8819985 250.714004,13.732 249.97,13.732 L249.97,13.012 L255.01,13.012 L255.01,13.732 C253.881994,13.732 253.030003,14.4399929 252.454,15.856 L245.434,33.388 C245.073998,34.2760044 244.630003,34.72 244.102,34.72 C243.789998,34.72 243.508001,34.624001 243.256,34.432 C243.003999,34.239999 242.878,33.940002 242.878,33.532 Z M265.198001,22.732 C265.894004,21.7479951 266.242001,20.5000076 266.242001,18.988 C266.242001,17.4759924 265.894004,16.2400048 265.198001,15.28 C264.501998,14.3199952 263.494008,13.84 262.174001,13.84 C261.357997,13.84 260.632004,14.0919975 259.996001,14.596 C259.359998,15.1000025 258.862003,15.7839957 258.502001,16.648 L258.502001,21.292 C258.862003,22.1800044 259.359998,22.8819974 259.996001,23.398 C260.632004,23.9140026 261.357997,24.172 262.174001,24.172 C263.494008,24.172 264.501998,23.6920048 265.198001,22.732 Z M258.502001,29.068 C258.502001,30.8440089 258.675999,31.9839975 259.024001,32.488 C259.372003,32.9920025 260.145995,33.244 261.346001,33.244 L261.346001,34 L253.102001,34 L253.102001,33.244 C254.302007,33.244 255.075999,32.9980025 255.424001,32.506 C255.772003,32.0139975 255.946001,30.868009 255.946001,29.068 L255.946001,18.232 C255.946001,16.431991 255.772003,15.2860025 255.424001,14.794 C255.075999,14.3019975 254.302007,14.056 253.102001,14.056 L253.102001,13.3 L257.926001,12.4 C258.070002,12.6640013 258.25,13.395994 258.466001,14.596 C259.690007,13.1319927 261.177992,12.4 262.930001,12.4 C264.63401,12.4 266.097995,13.0419936 267.322001,14.326 C268.546007,15.6100064 269.158001,17.1639909 269.158001,18.988 C269.158001,20.8120091 268.546007,22.3719935 267.322001,23.668 C266.097995,24.9640065 264.63401,25.612 262.930001,25.612 C261.153992,25.612 259.678007,24.8920072 258.502001,23.452 L258.502001,29.068 Z M273.550002,16.756 L279.526002,16.756 C279.766003,16.0839966 279.664004,15.4300032 279.220002,14.794 C278.776,14.1579968 278.014007,13.84 276.934002,13.84 C276.165998,13.84 275.476005,14.1039974 274.864002,14.632 C274.251999,15.1600026 273.814003,15.8679956 273.550002,16.756 Z M273.334002,18.088 C273.118001,19.8640089 273.399998,21.3099944 274.180002,22.426 C274.960006,23.5420056 276.237993,24.1 278.014002,24.1 C278.614005,24.1 279.297998,23.9440016 280.066002,23.632 C280.834006,23.3199984 281.469999,22.9240024 281.974002,22.444 L282.622002,23.236 C281.973999,23.9320035 281.146007,24.5019978 280.138002,24.946 C279.129997,25.3900022 278.122007,25.612 277.114002,25.612 C275.169992,25.612 273.574008,24.9700064 272.326002,23.686 C271.077996,22.4019936 270.454002,20.8360092 270.454002,18.988 C270.454002,17.1399908 271.131995,15.5800064 272.488002,14.308 C273.844009,13.0359936 275.385993,12.4 277.114002,12.4 C278.74601,12.4 280.077997,12.9699943 281.110002,14.11 C282.142007,15.2500057 282.442004,16.5759924 282.010002,18.088 L273.334002,18.088 Z" id="N-Type-Copy" fill="#524740"></path>
                <rect id="Rectangle" fill="#EF7D3B" opacity="0.149135045" x="104" y="43" width="110" height="156"></rect>
            </g>
            <path d="M52.973991,308.948 C55.2540024,308.948 56.393991,307.292017 56.393991,303.98 L56.393991,285.332 C56.393991,283.531991 56.195993,282.386002 55.799991,281.894 C55.403989,281.401998 54.4619984,281.156 52.973991,281.156 L52.973991,280.4 L62.693991,280.4 L62.693991,281.156 C61.2059836,281.156 60.263993,281.401998 59.867991,281.894 C59.471989,282.386002 59.273991,283.531991 59.273991,285.332 L59.273991,303.584 C59.273991,304.808006 59.0819929,305.863996 58.697991,306.752 C58.3139891,307.640004 57.7979942,308.305998 57.149991,308.75 C56.5019878,309.194002 55.8359944,309.517999 55.151991,309.722 C54.4679876,309.926001 53.7419948,310.028 52.973991,310.028 C51.7499849,310.028 50.5619968,309.716003 49.409991,309.092 C48.2579852,308.467997 47.681991,307.640005 47.681991,306.608 C47.681991,306.271998 47.8019898,305.984001 48.041991,305.744 C48.2819922,305.503999 48.5819892,305.384 48.941991,305.384 C49.2779927,305.384 49.5659898,305.503999 49.805991,305.744 C50.0459922,305.984001 50.165991,306.271998 50.165991,306.608 C50.165991,307.208003 50.4179885,307.747998 50.921991,308.228 C51.4259935,308.708002 52.1099867,308.948 52.973991,308.948 Z M80.009992,301.712 L75.185992,302.612 C74.993991,302.227998 74.801993,301.460006 74.609992,300.308 C73.1219846,301.844008 71.5500003,302.612 69.893992,302.612 C66.9179771,302.612 65.429992,300.812018 65.429992,297.212 L65.429992,294.944 C65.429992,293.143991 65.2559937,291.992003 64.907992,291.488 C64.5599903,290.983997 63.785998,290.732 62.585992,290.732 L62.585992,290.012 L67.985992,290.012 L67.985992,297.032 C67.985992,299.600013 68.8979829,300.884 70.721992,300.884 C71.5379961,300.884 72.3899876,300.542003 73.277992,299.858 C74.1659964,299.173997 74.609992,298.328005 74.609992,297.32 L74.609992,294.944 C74.609992,293.143991 74.4359937,291.992003 74.087992,291.488 C73.7399903,290.983997 72.9539981,290.732 71.729992,290.732 L71.729992,290.012 L77.129992,290.012 L77.129992,296.744 C77.129992,298.544009 77.3039903,299.695997 77.651992,300.2 C77.9999937,300.704003 78.7859859,300.956 80.009992,300.956 L80.009992,301.712 Z M85.301993,291.992 C86.6699998,290.263991 88.3379832,289.4 90.305993,289.4 C91.8660008,289.4 93.0359891,289.891995 93.815993,290.876 C94.5959969,291.860005 94.985993,293.155992 94.985993,294.764 L94.985993,297.032 C94.985993,298.832009 95.1599913,299.983997 95.507993,300.488 C95.8559947,300.992003 96.629987,301.244 97.829993,301.244 L97.829993,302 L89.585993,302 L89.585993,301.244 C90.7619989,301.244 91.5299912,300.986003 91.889993,300.47 C92.2499948,299.953997 92.429993,298.808009 92.429993,297.032 L92.429993,294.944 C92.429993,292.375987 91.434003,291.092 89.441993,291.092 C88.4099878,291.092 87.4619973,291.451996 86.597993,292.172 C85.7339887,292.892004 85.301993,293.731995 85.301993,294.692 L85.301993,297.032 C85.301993,298.880009 85.4459916,300.043998 85.733993,300.524 C86.0219944,301.004002 86.7179875,301.244 87.821993,301.244 L87.821993,302 L79.901993,302 L79.901993,301.244 C81.101999,301.244 81.8759913,300.992003 82.223993,300.488 C82.5719947,299.983997 82.745993,298.832009 82.745993,297.032 L82.745993,295.232 C82.745993,293.455991 82.5719947,292.316003 82.223993,291.812 C81.8759913,291.307997 81.101999,291.056 79.901993,291.056 L79.901993,290.3 L84.689993,289.4 C84.9059941,289.856002 85.109992,290.719994 85.301993,291.992 Z M104.453994,290.552 C103.493989,290.552 102.677997,291.103994 102.005994,292.208 C101.333991,293.312006 100.997994,294.679992 100.997994,296.312 C100.997994,297.800007 101.36399,298.969996 102.095994,299.822 C102.827998,300.674004 103.913987,301.1 105.353994,301.1 C106.746001,301.1 108.029988,300.548006 109.205994,299.444 L109.817994,300.236 C108.353987,301.820008 106.566005,302.612 104.453994,302.612 C102.485984,302.612 100.932,302.024006 99.791994,300.848 C98.6519883,299.671994 98.081994,298.160009 98.081994,296.312 C98.081994,294.31999 98.7539873,292.670007 100.097994,291.362 C101.442001,290.053993 102.893986,289.4 104.453994,289.4 C105.870001,289.4 106.93799,289.651997 107.657994,290.156 C108.377998,290.660003 108.737994,291.271996 108.737994,291.992 C108.737994,292.376002 108.611995,292.729998 108.359994,293.054 C108.107993,293.378002 107.705997,293.54 107.153994,293.54 C106.769992,293.54 106.439995,293.402001 106.163994,293.126 C105.887993,292.849999 105.749994,292.508002 105.749994,292.1 C105.749994,291.067995 105.317998,290.552 104.453994,290.552 Z M111.221995,291.272 L109.349995,291.272 L109.349995,290.408 C110.382,290.191999 111.137993,289.724004 111.617995,289.004 C112.097997,288.283996 112.409994,287.300006 112.553995,286.052 L113.777995,286.052 L113.777995,290.012 L116.909995,290.012 L116.909995,291.272 L113.777995,291.272 L113.777995,298.472 C113.777995,300.200009 114.31799,301.064 115.397995,301.064 C116.093998,301.064 116.873991,300.656004 117.737995,299.84 L118.349995,300.452 C117.845992,301.052003 117.239999,301.543998 116.531995,301.928 C115.823991,302.312002 115.169998,302.504 114.569995,302.504 C113.53799,302.504 112.721998,302.168003 112.121995,301.496 C111.521992,300.823997 111.221995,299.816007 111.221995,298.472 L111.221995,291.272 Z M126.413996,302 L118.169996,302 L118.169996,301.244 C119.370002,301.244 120.143994,300.992003 120.491996,300.488 C120.839998,299.983997 121.013996,298.832009 121.013996,297.032 L121.013996,295.232 C121.013996,293.455991 120.839998,292.316003 120.491996,291.812 C120.143994,291.307997 119.370002,291.056 118.169996,291.056 L118.169996,290.3 L123.569996,289.4 L123.569996,297.032 C123.569996,298.832009 123.743994,299.983997 124.091996,300.488 C124.439998,300.992003 125.21399,301.244 126.413996,301.244 L126.413996,302 Z M123.857996,284.252 C123.857996,284.708002 123.701998,285.091998 123.389996,285.404 C123.077994,285.716002 122.705998,285.872 122.273996,285.872 C121.841994,285.872 121.469998,285.716002 121.157996,285.404 C120.845994,285.091998 120.689996,284.708002 120.689996,284.252 C120.689996,283.819998 120.845994,283.448002 121.157996,283.136 C121.469998,282.823998 121.841994,282.668 122.273996,282.668 C122.705998,282.668 123.077994,282.823998 123.389996,283.136 C123.701998,283.448002 123.857996,283.819998 123.857996,284.252 Z M139.049997,291.344 C140.490004,292.616006 141.209997,294.163991 141.209997,295.988 C141.209997,297.812009 140.496004,299.371994 139.067997,300.668 C137.63999,301.964006 135.930007,302.612 133.937997,302.612 C131.945987,302.612 130.236004,301.964006 128.807997,300.668 C127.37999,299.371994 126.665997,297.812009 126.665997,295.988 C126.665997,294.163991 127.37999,292.610006 128.807997,291.326 C130.236004,290.041994 131.945987,289.4 133.937997,289.4 C135.930007,289.4 137.63399,290.047994 139.049997,291.344 Z M137.177997,299.768 C137.922001,298.783995 138.293997,297.524008 138.293997,295.988 C138.293997,294.451992 137.922001,293.198005 137.177997,292.226 C136.433993,291.253995 135.354004,290.768 133.937997,290.768 C132.52199,290.768 131.442001,291.259995 130.697997,292.244 C129.953993,293.228005 129.581997,294.475992 129.581997,295.988 C129.581997,297.500008 129.953993,298.747995 130.697997,299.732 C131.442001,300.716005 132.52199,301.208 133.937997,301.208 C135.354004,301.208 136.433993,300.728005 137.177997,299.768 Z M147.545998,291.992 C148.914005,290.263991 150.581988,289.4 152.549998,289.4 C154.110006,289.4 155.279994,289.891995 156.059998,290.876 C156.840002,291.860005 157.229998,293.155992 157.229998,294.764 L157.229998,297.032 C157.229998,298.832009 157.403996,299.983997 157.751998,300.488 C158.1,300.992003 158.873992,301.244 160.073998,301.244 L160.073998,302 L151.829998,302 L151.829998,301.244 C153.006004,301.244 153.773996,300.986003 154.133998,300.47 C154.494,299.953997 154.673998,298.808009 154.673998,297.032 L154.673998,294.944 C154.673998,292.375987 153.678008,291.092 151.685998,291.092 C150.653993,291.092 149.706002,291.451996 148.841998,292.172 C147.977994,292.892004 147.545998,293.731995 147.545998,294.692 L147.545998,297.032 C147.545998,298.880009 147.689997,300.043998 147.977998,300.524 C148.265999,301.004002 148.961992,301.244 150.065998,301.244 L150.065998,302 L142.145998,302 L142.145998,301.244 C143.346004,301.244 144.119996,300.992003 144.467998,300.488 C144.816,299.983997 144.989998,298.832009 144.989998,297.032 L144.989998,295.232 C144.989998,293.455991 144.816,292.316003 144.467998,291.812 C144.119996,291.307997 143.346004,291.056 142.145998,291.056 L142.145998,290.3 L146.933998,289.4 C147.149999,289.856002 147.353997,290.719994 147.545998,291.992 Z M175.698,280.4 C178.122012,280.4 180.017993,280.975994 181.386,282.128 C182.754007,283.280006 183.438,284.731991 183.438,286.484 C183.438,288.236009 182.754007,289.681994 181.386,290.822 C180.017993,291.962006 178.122012,292.532 175.698,292.532 L172.494,292.532 L172.494,297.032 C172.494,298.832009 172.691998,299.983997 173.088,300.488 C173.484002,300.992003 174.425993,301.244 175.914,301.244 L175.914,302 L166.194,302 L166.194,301.244 C167.682007,301.244 168.623998,300.992003 169.02,300.488 C169.416002,299.983997 169.614,298.832009 169.614,297.032 L169.614,285.332 C169.614,283.531991 169.416002,282.386002 169.02,281.894 C168.623998,281.401998 167.682007,281.156 166.194,281.156 L166.194,280.4 L175.698,280.4 Z M175.662,291.236 C177.150007,291.236 178.283996,290.792004 179.064,289.904 C179.844004,289.015996 180.234,287.876007 180.234,286.484 C180.234,285.091993 179.844004,283.952004 179.064,283.064 C178.283996,282.175996 177.150007,281.732 175.662,281.732 L172.494,281.732 L172.494,291.236 L175.662,291.236 Z M194.922001,291.344 C196.362008,292.616006 197.082001,294.163991 197.082001,295.988 C197.082001,297.812009 196.368008,299.371994 194.940001,300.668 C193.511994,301.964006 191.802011,302.612 189.810001,302.612 C187.817991,302.612 186.108008,301.964006 184.680001,300.668 C183.251994,299.371994 182.538001,297.812009 182.538001,295.988 C182.538001,294.163991 183.251994,292.610006 184.680001,291.326 C186.108008,290.041994 187.817991,289.4 189.810001,289.4 C191.802011,289.4 193.505994,290.047994 194.922001,291.344 Z M193.050001,299.768 C193.794005,298.783995 194.166001,297.524008 194.166001,295.988 C194.166001,294.451992 193.794005,293.198005 193.050001,292.226 C192.305997,291.253995 191.226008,290.768 189.810001,290.768 C188.393994,290.768 187.314005,291.259995 186.570001,292.244 C185.825997,293.228005 185.454001,294.475992 185.454001,295.988 C185.454001,297.500008 185.825997,298.747995 186.570001,299.732 C187.314005,300.716005 188.393994,301.208 189.810001,301.208 C191.226008,301.208 192.305997,300.728005 193.050001,299.768 Z M199.530002,291.272 L197.658002,291.272 L197.658002,290.408 C198.690007,290.191999 199.446,289.724004 199.926002,289.004 C200.406004,288.283996 200.718001,287.300006 200.862002,286.052 L202.086002,286.052 L202.086002,290.012 L205.218002,290.012 L205.218002,291.272 L202.086002,291.272 L202.086002,298.472 C202.086002,300.200009 202.625997,301.064 203.706002,301.064 C204.402005,301.064 205.181998,300.656004 206.046002,299.84 L206.658002,300.452 C206.153999,301.052003 205.548006,301.543998 204.840002,301.928 C204.131998,302.312002 203.478005,302.504 202.878002,302.504 C201.845997,302.504 201.030005,302.168003 200.430002,301.496 C199.829999,300.823997 199.530002,299.816007 199.530002,298.472 L199.530002,291.272 Z M209.934003,293.756 L215.910003,293.756 C216.150004,293.083997 216.048005,292.430003 215.604003,291.794 C215.160001,291.157997 214.398008,290.84 213.318003,290.84 C212.549999,290.84 211.860006,291.103997 211.248003,291.632 C210.636,292.160003 210.198004,292.867996 209.934003,293.756 Z M209.718003,295.088 C209.502002,296.864009 209.783999,298.309994 210.564003,299.426 C211.344007,300.542006 212.621994,301.1 214.398003,301.1 C214.998006,301.1 215.681999,300.944002 216.450003,300.632 C217.218007,300.319998 217.854,299.924002 218.358003,299.444 L219.006003,300.236 C218.358,300.932003 217.530008,301.501998 216.522003,301.946 C215.513998,302.390002 214.506008,302.612 213.498003,302.612 C211.553993,302.612 209.958009,301.970006 208.710003,300.686 C207.461997,299.401994 206.838003,297.836009 206.838003,295.988 C206.838003,294.139991 207.515996,292.580006 208.872003,291.308 C210.22801,290.035994 211.769994,289.4 213.498003,289.4 C215.130011,289.4 216.461998,289.969994 217.494003,291.11 C218.526008,292.250006 218.826005,293.575992 218.394003,295.088 L209.718003,295.088 Z M224.910004,291.992 C226.278011,290.263991 227.945994,289.4 229.914004,289.4 C231.474012,289.4 232.644,289.891995 233.424004,290.876 C234.204008,291.860005 234.594004,293.155992 234.594004,294.764 L234.594004,297.032 C234.594004,298.832009 234.768002,299.983997 235.116004,300.488 C235.464006,300.992003 236.237998,301.244 237.438004,301.244 L237.438004,302 L229.194004,302 L229.194004,301.244 C230.37001,301.244 231.138002,300.986003 231.498004,300.47 C231.858006,299.953997 232.038004,298.808009 232.038004,297.032 L232.038004,294.944 C232.038004,292.375987 231.042014,291.092 229.050004,291.092 C228.017999,291.092 227.070008,291.451996 226.206004,292.172 C225.342,292.892004 224.910004,293.731995 224.910004,294.692 L224.910004,297.032 C224.910004,298.880009 225.054003,300.043998 225.342004,300.524 C225.630005,301.004002 226.325998,301.244 227.430004,301.244 L227.430004,302 L219.510004,302 L219.510004,301.244 C220.71001,301.244 221.484002,300.992003 221.832004,300.488 C222.180006,299.983997 222.354004,298.832009 222.354004,297.032 L222.354004,295.232 C222.354004,293.455991 222.180006,292.316003 221.832004,291.812 C221.484002,291.307997 220.71001,291.056 219.510004,291.056 L219.510004,290.3 L224.298004,289.4 C224.514005,289.856002 224.718003,290.719994 224.910004,291.992 Z M238.842005,291.272 L236.970005,291.272 L236.970005,290.408 C238.00201,290.191999 238.758003,289.724004 239.238005,289.004 C239.718007,288.283996 240.030004,287.300006 240.174005,286.052 L241.398005,286.052 L241.398005,290.012 L244.530005,290.012 L244.530005,291.272 L241.398005,291.272 L241.398005,298.472 C241.398005,300.200009 241.938,301.064 243.018005,301.064 C243.714008,301.064 244.494001,300.656004 245.358005,299.84 L245.970005,300.452 C245.466002,301.052003 244.860009,301.543998 244.152005,301.928 C243.444001,302.312002 242.790008,302.504 242.190005,302.504 C241.158,302.504 240.342008,302.168003 239.742005,301.496 C239.142002,300.823997 238.842005,299.816007 238.842005,298.472 L238.842005,291.272 Z M254.034006,302 L245.790006,302 L245.790006,301.244 C246.990012,301.244 247.764004,300.992003 248.112006,300.488 C248.460008,299.983997 248.634006,298.832009 248.634006,297.032 L248.634006,295.232 C248.634006,293.455991 248.460008,292.316003 248.112006,291.812 C247.764004,291.307997 246.990012,291.056 245.790006,291.056 L245.790006,290.3 L251.190006,289.4 L251.190006,297.032 C251.190006,298.832009 251.364004,299.983997 251.712006,300.488 C252.060008,300.992003 252.834,301.244 254.034006,301.244 L254.034006,302 Z M251.478006,284.252 C251.478006,284.708002 251.322008,285.091998 251.010006,285.404 C250.698004,285.716002 250.326008,285.872 249.894006,285.872 C249.462004,285.872 249.090008,285.716002 248.778006,285.404 C248.466004,285.091998 248.310006,284.708002 248.310006,284.252 C248.310006,283.819998 248.466004,283.448002 248.778006,283.136 C249.090008,282.823998 249.462004,282.668 249.894006,282.668 C250.326008,282.668 250.698004,282.823998 251.010006,283.136 C251.322008,283.448002 251.478006,283.819998 251.478006,284.252 Z M266.490007,301.28 C265.794004,302.024004 265.002011,302.396 264.114007,302.396 C262.674,302.396 261.858008,301.700007 261.666007,300.308 C260.057999,301.748007 258.558014,302.468 257.166007,302.468 C256.254002,302.468 255.48601,302.198003 254.862007,301.658 C254.238004,301.117997 253.926007,300.380005 253.926007,299.444 C253.926007,296.923987 256.481981,295.220004 261.594007,294.332 C261.594007,292.915993 261.438009,291.932003 261.126007,291.38 C260.814005,290.827997 260.166012,290.552 259.182007,290.552 C258.702005,290.552 258.240009,290.707998 257.796007,291.02 C257.352005,291.332002 257.130007,291.751997 257.130007,292.28 C257.130007,292.640002 257.010008,292.939999 256.770007,293.18 C256.530006,293.420001 256.242009,293.54 255.906007,293.54 C255.546005,293.54 255.246008,293.420001 255.006007,293.18 C254.766006,292.939999 254.646007,292.640002 254.646007,292.28 C254.646007,291.439996 255.108002,290.750003 256.032007,290.21 C256.956012,289.669997 258.018001,289.4 259.218007,289.4 C260.970016,289.4 262.230003,289.783996 262.998007,290.552 C263.766011,291.320004 264.150007,292.567991 264.150007,294.296 L264.150007,299.732 C264.150007,300.668005 264.426004,301.136 264.978007,301.136 C265.290009,301.136 265.626005,300.956002 265.986007,300.596 L266.490007,301.28 Z M261.594007,299.12 L261.594007,295.448 C258.28199,296.216004 256.626007,297.403992 256.626007,299.012 C256.626007,299.564003 256.788005,300.007998 257.112007,300.344 C257.436009,300.680002 257.838005,300.848 258.318007,300.848 C259.206011,300.848 260.298001,300.272006 261.594007,299.12 Z M273.834008,302 L265.590008,302 L265.590008,301.244 C266.790014,301.244 267.564006,300.992003 267.912008,300.488 C268.26001,299.983997 268.434008,298.832009 268.434008,297.032 L268.434008,285.656 C268.434008,283.855991 268.26001,282.704003 267.912008,282.2 C267.564006,281.695997 266.790014,281.444 265.590008,281.444 L265.590008,280.688 L270.990008,279.788 L270.990008,297.032 C270.990008,298.832009 271.164006,299.983997 271.512008,300.488 C271.86001,300.992003 272.634002,301.244 273.834008,301.244 L273.834008,302 Z" id="Junction-Potential-Copy" fill="#524740"></path>
            <g id="Potential-Plates" transform="translate(103.000000, 202.000000)">
                <g id="Positive-Plate-Copy">
                    <g id="Group" stroke="#3D3530" stroke-linecap="square" stroke-width="3">
                        <path d="M1,0.5 L1,36.5" id="Line-2"></path>
                        <path d="M41,20.5 L41,53.5" id="Line-2-Copy"></path>
                        <path d="M1,37 L41,37" id="Line-3"></path>
                    </g>
                    <rect id="Combined-Shape" fill="#524740" x="26" y="20" width="9" height="1"></rect>
                </g>
                <g id="Positive-Plate" transform="translate(70.000000, 0.000000)">
                    <g id="Group" stroke="#3D3530" stroke-linecap="square" stroke-width="3">
                        <path d="M41,0.5 L41,36.5" id="Line-2"></path>
                        <path d="M1,11.5 L1,60.5" id="Line-2-Copy"></path>
                        <path d="M1,37 L41,37" id="Line-3"></path>
                    </g>
                    <path d="M11,19 L11,15 L12,15 L12,19 L16,19 L16,20 L12,20 L12,24 L11,24 L11,20 L7,20 L7,19 L11,19 Z" id="Combined-Shape" fill="#524740"></path>
                </g>
            </g>
        </g>
        <path d="M15.628,44 L15.628,19.808 L23.836,19.808 C26.5480136,19.808 28.707992,20.5219929 30.316,21.95 C31.924008,23.3780071 32.728,25.1719892 32.728,27.332 C32.728,29.4680107 31.924008,31.2559928 30.316,32.696 C28.707992,34.1360072 26.5480136,34.856 23.836,34.856 L18.004,34.856 L18.004,44 L15.628,44 Z M18.004,32.588 L23.836,32.588 C25.7800097,32.588 27.3399941,32.090005 28.516,31.094 C29.6920059,30.097995 30.28,28.8440076 30.28,27.332 C30.28,25.8439926 29.6920059,24.596005 28.516,23.588 C27.3399941,22.579995 25.7800097,22.076 23.836,22.076 L18.004,22.076 L18.004,32.588 Z M43.852001,32.984 L34.168001,32.984 L34.168001,30.824 L43.852001,30.824 L43.852001,32.984 Z M61.960002,19.808 L64.336002,19.808 L64.336002,44 L61.888002,44 L48.388002,23.444 L48.388002,44 L46.012002,44 L46.012002,19.808 L48.424002,19.808 L61.960002,40.4 L61.960002,19.808 Z M80.392004,44.288 C78.783996,44.288 77.4160096,43.7720052 76.288004,42.74 C75.1599984,41.7079948 74.4280057,40.5320066 74.092004,39.212 L76.180004,38.456 C76.3960051,39.3920047 76.8700003,40.2259963 77.602004,40.958 C78.3340077,41.6900037 79.2159988,42.056 80.248004,42.056 C81.5440105,42.056 82.5100008,41.6720038 83.146004,40.904 C83.7820072,40.1359962 84.100004,39.2000055 84.100004,38.096 L84.100004,19.952 L86.476004,19.952 L86.476004,37.952 C86.476004,39.8000092 85.9480093,41.3179941 84.892004,42.506 C83.8359987,43.6940059 82.3360137,44.288 80.392004,44.288 Z M102.424005,26 L104.800005,26 L104.800005,44 L102.424005,44 L102.424005,41.336 C100.959998,43.3040098 99.0400169,44.288 96.664005,44.288 C94.5759946,44.288 92.8240121,43.5500074 91.408005,42.074 C89.9919979,40.5979926 89.284005,38.7800108 89.284005,36.62 L89.284005,26 L91.732005,26 L91.732005,36.548 C91.732005,38.0840077 92.2479998,39.3859947 93.280005,40.454 C94.3120102,41.5220053 95.5719976,42.056 97.060005,42.056 C98.5720126,42.056 99.8439998,41.5220053 100.876005,40.454 C101.90801,39.3859947 102.424005,38.0840077 102.424005,36.548 L102.424005,26 Z M115.708006,25.712 C117.796016,25.712 119.547999,26.4499926 120.964006,27.926 C122.380013,29.4020074 123.088006,31.2199892 123.088006,33.38 L123.088006,44 L120.676006,44 L120.676006,33.452 C120.676006,31.9159923 120.154011,30.6080054 119.110006,29.528 C118.066001,28.4479946 116.800013,27.908 115.312006,27.908 C113.823999,27.908 112.558011,28.4479946 111.514006,29.528 C110.470001,30.6080054 109.948006,31.9159923 109.948006,33.452 L109.948006,44 L107.572006,44 L107.572006,26 L109.948006,26 L109.948006,28.664 C111.412013,26.6959902 113.331994,25.712 115.708006,25.712 Z M133.600007,44.288 C131.031994,44.288 128.842016,43.3820091 127.030007,41.57 C125.217998,39.7579909 124.312007,37.5680128 124.312007,35 C124.312007,32.4319872 125.217998,30.2420091 127.030007,28.43 C128.842016,26.6179909 131.031994,25.712 133.600007,25.712 C135.232015,25.712 136.75,26.113996 138.154007,26.918 C139.558014,27.722004 140.668003,28.7959933 141.484007,30.14 L139.324007,31.184 C138.676004,30.1999951 137.848012,29.4200029 136.840007,28.844 C135.832002,28.2679971 134.752013,27.98 133.600007,27.98 C131.655997,27.98 130.018014,28.6579932 128.686007,30.014 C127.354,31.3700068 126.688007,33.0319902 126.688007,35 C126.688007,36.9680098 127.354,38.6299932 128.686007,39.986 C130.018014,41.3420068 131.655997,42.02 133.600007,42.02 C134.752013,42.02 135.832002,41.7320029 136.840007,41.156 C137.848012,40.5799971 138.676004,39.8000049 139.324007,38.816 L141.484007,39.86 C140.668003,41.2040067 139.558014,42.277996 138.154007,43.082 C136.75,43.886004 135.232015,44.288 133.600007,44.288 Z M153.616008,39.968 L154.804008,41.804 C154.660007,41.996001 154.468009,42.2239987 154.228008,42.488 C153.988007,42.7520013 153.448012,43.1179977 152.608008,43.586 C151.768004,44.0540023 150.904012,44.288 150.016008,44.288 C148.504,44.288 147.238013,43.8380045 146.218008,42.938 C145.198003,42.0379955 144.688008,40.7360085 144.688008,39.032 L144.688008,28.16 L141.808008,28.16 L141.808008,25.964 L144.688008,25.964 L144.688008,20.276 L147.064008,19.988 L147.064008,25.964 L152.500008,25.964 L152.500008,28.16 L147.064008,28.16 L147.064008,38.492 C147.064008,39.5960055 147.406005,40.4719968 148.090008,41.12 C148.774011,41.7680032 149.560004,42.092 150.448008,42.092 C151.000011,42.092 151.540005,41.9240017 152.068008,41.588 C152.596011,41.2519983 152.986007,40.9220016 153.238008,40.598 C153.490009,40.2739984 153.616008,40.0640005 153.616008,39.968 Z M158.296009,20.6 C158.032008,20.8880014 157.696011,21.032 157.288009,21.032 C156.880007,21.032 156.53801,20.8880014 156.262009,20.6 C155.986008,20.3119986 155.848009,19.9760019 155.848009,19.592 C155.848009,19.2079981 155.986008,18.8720014 156.262009,18.584 C156.53801,18.2959986 156.880007,18.152 157.288009,18.152 C157.696011,18.152 158.038008,18.2959986 158.314009,18.584 C158.59001,18.8720014 158.728009,19.2079981 158.728009,19.592 C158.728009,19.9760019 158.58401,20.3119986 158.296009,20.6 Z M156.100009,44 L156.100009,26 L158.476009,26 L158.476009,44 L156.100009,44 Z M176.36801,41.552 C174.568001,43.3760091 172.384023,44.288 169.81601,44.288 C167.247997,44.288 165.058019,43.3820091 163.24601,41.57 C161.434001,39.7579909 160.52801,37.5680128 160.52801,35 C160.52801,32.4319872 161.434001,30.2420091 163.24601,28.43 C165.058019,26.6179909 167.247997,25.712 169.81601,25.712 C172.384023,25.712 174.574001,26.6179909 176.38601,28.43 C178.198019,30.2420091 179.10401,32.4319872 179.10401,35 C179.10401,37.5440127 178.192019,39.7279909 176.36801,41.552 Z M169.85201,42.02 C171.79602,42.02 173.434003,41.3420068 174.76601,39.986 C176.098017,38.6299932 176.76401,36.9680098 176.76401,35 C176.76401,33.0319902 176.098017,31.3640068 174.76601,29.996 C173.434003,28.6279932 171.79602,27.944 169.85201,27.944 C167.932,27.944 166.300017,28.6279932 164.95601,29.996 C163.612003,31.3640068 162.94001,33.0319902 162.94001,35 C162.94001,36.9680098 163.612003,38.6299932 164.95601,39.986 C166.300017,41.3420068 167.932,42.02 169.85201,42.02 Z M188.644011,25.712 C190.732021,25.712 192.484004,26.4499926 193.900011,27.926 C195.316018,29.4020074 196.024011,31.2199892 196.024011,33.38 L196.024011,44 L193.612011,44 L193.612011,33.452 C193.612011,31.9159923 193.090016,30.6080054 192.046011,29.528 C191.002006,28.4479946 189.736018,27.908 188.248011,27.908 C186.760004,27.908 185.494016,28.4479946 184.450011,29.528 C183.406006,30.6080054 182.884011,31.9159923 182.884011,33.452 L182.884011,44 L180.508011,44 L180.508011,26 L182.884011,26 L182.884011,28.664 C184.348018,26.6959902 186.267999,25.712 188.644011,25.712 Z M222.304013,22.184 L208.804013,22.184 L208.804013,30.5 L216.400013,30.5 L216.400013,32.876 L208.804013,32.876 L208.804013,41.624 L222.304013,41.624 L222.304013,44 L206.428013,44 L206.428013,19.808 L222.304013,19.808 L222.304013,22.184 Z M224.392014,44 L224.392014,17.216 L226.768014,17.216 L226.768014,44 L224.392014,44 Z M237.748015,41.912 C239.356023,41.912 240.796009,41.4560046 242.068015,40.544 C243.340021,39.6319954 244.204013,38.5640061 244.660015,37.34 L246.676015,38.06 C246.124012,39.5720076 245.050023,40.9639936 243.454015,42.236 C241.858007,43.5080064 239.956026,44.1320001 237.748015,44.108 C235.732005,44.108 233.890023,43.4840062 232.222015,42.236 C230.554007,40.9879938 229.420018,39.3920097 228.820015,37.448 C228.580014,36.655996 228.460015,35.7920047 228.460015,34.856 C228.460015,32.263987 229.360006,30.068009 231.160015,28.268 C232.960024,26.467991 235.156002,25.5560001 237.748015,25.532 C240.100027,25.5560001 242.152006,26.3479922 243.904015,27.908 C245.656024,29.4680078 246.664014,31.3999885 246.928015,33.704 C246.952015,33.8240006 246.964015,33.979999 246.964015,34.172 L231.232015,37.016 C231.640017,38.4560072 232.456009,39.6379954 233.680015,40.562 C234.904021,41.4860046 236.260008,41.9360001 237.748015,41.912 Z M237.532015,27.728 C235.732006,27.7520001 234.190021,28.3999936 232.906015,29.672 C231.622009,30.9440064 230.932015,32.4679911 230.836015,34.244 C230.836015,34.3160004 230.842015,34.4419991 230.854015,34.622 C230.866015,34.8020009 230.872015,34.9519994 230.872015,35.072 L244.264015,32.66 C243.808013,31.1959927 242.956021,30.0020046 241.708015,29.078 C240.460009,28.1539954 239.068023,27.7039999 237.532015,27.728 Z M257.080016,44.288 C254.512003,44.288 252.322025,43.3820091 250.510016,41.57 C248.698007,39.7579909 247.792016,37.5680128 247.792016,35 C247.792016,32.4319872 248.698007,30.2420091 250.510016,28.43 C252.322025,26.6179909 254.512003,25.712 257.080016,25.712 C258.712024,25.712 260.230009,26.113996 261.634016,26.918 C263.038023,27.722004 264.148012,28.7959933 264.964016,30.14 L262.804016,31.184 C262.156013,30.1999951 261.328021,29.4200029 260.320016,28.844 C259.312011,28.2679971 258.232022,27.98 257.080016,27.98 C255.136006,27.98 253.498023,28.6579932 252.166016,30.014 C250.834009,31.3700068 250.168016,33.0319902 250.168016,35 C250.168016,36.9680098 250.834009,38.6299932 252.166016,39.986 C253.498023,41.3420068 255.136006,42.02 257.080016,42.02 C258.232022,42.02 259.312011,41.7320029 260.320016,41.156 C261.328021,40.5799971 262.156013,39.8000049 262.804016,38.816 L264.964016,39.86 C264.148012,41.2040067 263.038023,42.277996 261.634016,43.082 C260.230009,43.886004 258.712024,44.288 257.080016,44.288 Z M277.096017,39.968 L278.284017,41.804 C278.140016,41.996001 277.948018,42.2239987 277.708017,42.488 C277.468016,42.7520013 276.928021,43.1179977 276.088017,43.586 C275.248013,44.0540023 274.384021,44.288 273.496017,44.288 C271.984009,44.288 270.718022,43.8380045 269.698017,42.938 C268.678012,42.0379955 268.168017,40.7360085 268.168017,39.032 L268.168017,28.16 L265.288017,28.16 L265.288017,25.964 L268.168017,25.964 L268.168017,20.276 L270.544017,19.988 L270.544017,25.964 L275.980017,25.964 L275.980017,28.16 L270.544017,28.16 L270.544017,38.492 C270.544017,39.5960055 270.886014,40.4719968 271.570017,41.12 C272.25402,41.7680032 273.040013,42.092 273.928017,42.092 C274.48002,42.092 275.020014,41.9240017 275.548017,41.588 C276.07602,41.2519983 276.466016,40.9220016 276.718017,40.598 C276.970018,40.2739984 277.096017,40.0640005 277.096017,39.968 Z M287.932018,25.712 C289.204024,25.712 290.368013,26.0239969 291.424018,26.648 L290.596018,29.024 C289.588013,28.2799963 288.568023,27.908 287.536018,27.908 C286.02401,27.908 284.752023,28.4419947 283.720018,29.51 C282.688013,30.5780053 282.172018,31.8919922 282.172018,33.452 L282.172018,44 L279.796018,44 L279.796018,26 L282.172018,26 L282.172018,28.664 C283.636025,26.6959902 285.556006,25.712 287.932018,25.712 Z M294.916019,20.6 C294.652018,20.8880014 294.316021,21.032 293.908019,21.032 C293.500017,21.032 293.15802,20.8880014 292.882019,20.6 C292.606018,20.3119986 292.468019,19.9760019 292.468019,19.592 C292.468019,19.2079981 292.606018,18.8720014 292.882019,18.584 C293.15802,18.2959986 293.500017,18.152 293.908019,18.152 C294.316021,18.152 294.658018,18.2959986 294.934019,18.584 C295.21002,18.8720014 295.348019,19.2079981 295.348019,19.592 C295.348019,19.9760019 295.20402,20.3119986 294.916019,20.6 Z M292.720019,44 L292.720019,26 L295.096019,26 L295.096019,44 L292.720019,44 Z M306.43602,44.288 C303.868007,44.288 301.678029,43.3820091 299.86602,41.57 C298.054011,39.7579909 297.14802,37.5680128 297.14802,35 C297.14802,32.4319872 298.054011,30.2420091 299.86602,28.43 C301.678029,26.6179909 303.868007,25.712 306.43602,25.712 C308.068028,25.712 309.586013,26.113996 310.99002,26.918 C312.394027,27.722004 313.504016,28.7959933 314.32002,30.14 L312.16002,31.184 C311.512017,30.1999951 310.684025,29.4200029 309.67602,28.844 C308.668015,28.2679971 307.588026,27.98 306.43602,27.98 C304.49201,27.98 302.854027,28.6579932 301.52202,30.014 C300.190013,31.3700068 299.52402,33.0319902 299.52402,35 C299.52402,36.9680098 300.190013,38.6299932 301.52202,39.986 C302.854027,41.3420068 304.49201,42.02 306.43602,42.02 C307.588026,42.02 308.668015,41.7320029 309.67602,41.156 C310.684025,40.5799971 311.512017,39.8000049 312.16002,38.816 L314.32002,39.86 C313.504016,41.2040067 312.394027,42.277996 310.99002,43.082 C309.586013,43.886004 308.068028,44.288 306.43602,44.288 Z M337.468022,22.184 L326.452022,22.184 L326.452022,30.752 L334.048022,30.752 L334.048022,33.128 L326.452022,33.128 L326.452022,44 L324.076022,44 L324.076022,19.808 L337.468022,19.808 L337.468022,22.184 Z M339.988023,20.6 C339.724022,20.8880014 339.388025,21.032 338.980023,21.032 C338.572021,21.032 338.230024,20.8880014 337.954023,20.6 C337.678022,20.3119986 337.540023,19.9760019 337.540023,19.592 C337.540023,19.2079981 337.678022,18.8720014 337.954023,18.584 C338.230024,18.2959986 338.572021,18.152 338.980023,18.152 C339.388025,18.152 339.730022,18.2959986 340.006023,18.584 C340.282024,18.8720014 340.420023,19.2079981 340.420023,19.592 C340.420023,19.9760019 340.276024,20.3119986 339.988023,20.6 Z M337.792023,44 L337.792023,26 L340.168023,26 L340.168023,44 L337.792023,44 Z M351.508024,41.912 C353.116032,41.912 354.556018,41.4560046 355.828024,40.544 C357.10003,39.6319954 357.964022,38.5640061 358.420024,37.34 L360.436024,38.06 C359.884021,39.5720076 358.810032,40.9639936 357.214024,42.236 C355.618016,43.5080064 353.716035,44.1320001 351.508024,44.108 C349.492014,44.108 347.650032,43.4840062 345.982024,42.236 C344.314016,40.9879938 343.180027,39.3920097 342.580024,37.448 C342.340023,36.655996 342.220024,35.7920047 342.220024,34.856 C342.220024,32.263987 343.120015,30.068009 344.920024,28.268 C346.720033,26.467991 348.916011,25.5560001 351.508024,25.532 C353.860036,25.5560001 355.912015,26.3479922 357.664024,27.908 C359.416033,29.4680078 360.424023,31.3999885 360.688024,33.704 C360.712024,33.8240006 360.724024,33.979999 360.724024,34.172 L344.992024,37.016 C345.400026,38.4560072 346.216018,39.6379954 347.440024,40.562 C348.66403,41.4860046 350.020017,41.9360001 351.508024,41.912 Z M351.292024,27.728 C349.492015,27.7520001 347.95003,28.3999936 346.666024,29.672 C345.382018,30.9440064 344.692024,32.4679911 344.596024,34.244 C344.596024,34.3160004 344.602024,34.4419991 344.614024,34.622 C344.626024,34.8020009 344.632024,34.9519994 344.632024,35.072 L358.024024,32.66 C357.568022,31.1959927 356.71603,30.0020046 355.468024,29.078 C354.220018,28.1539954 352.828032,27.7039999 351.292024,27.728 Z M362.812025,44 L362.812025,17.216 L365.188025,17.216 L365.188025,44 L362.812025,44 Z M383.188026,17.216 L385.564026,17.216 L385.564026,44 L383.188026,44 L383.188026,41.084 C381.340017,43.2200107 379.00004,44.288 376.168026,44.288 C373.600013,44.288 371.410035,43.3820091 369.598026,41.57 C367.786017,39.7579909 366.880026,37.5680128 366.880026,35 C366.880026,32.4319872 367.786017,30.2420091 369.598026,28.43 C371.410035,26.6179909 373.600013,25.712 376.168026,25.712 C379.02404,25.712 381.364017,26.7799893 383.188026,28.916 L383.188026,17.216 Z M371.272026,40.004 C372.616033,41.3480067 374.260016,42.02 376.204026,42.02 C378.148036,42.02 379.786019,41.3420068 381.118026,39.986 C382.450033,38.6299932 383.116026,36.9680098 383.116026,35 C383.116026,33.0319902 382.450033,31.3700068 381.118026,30.014 C379.786019,28.6579932 378.148036,27.98 376.204026,27.98 C374.260016,27.98 372.616033,28.6579932 371.272026,30.014 C369.928019,31.3700068 369.256026,33.0319902 369.256026,35 C369.256026,36.9680098 369.928019,38.6359932 371.272026,40.004 Z" id="P-N-Junction-Electri-Copy" fill="#23ABE3"></path>
    </g>
</svg>