<?xml version="1.0" encoding="UTF-8"?>
<svg width="900px" height="380px" viewBox="0 0 900 380" version="1.1" xmlns="http://www.w3.org/2000/svg" xmlns:xlink="http://www.w3.org/1999/xlink">
    <!-- Generator: Sketch 52.5 (67469) - http://www.bohemiancoding.com/sketch -->
    <title>P-N_Junction_Electric_Field</title>
    <desc>Created with Sketch.</desc>
    <g id="P-N_Junction_Electric_Field" stroke="none" stroke-width="1" fill="none" fill-rule="evenodd">
        <rect id="Rectangle" stroke="#3D3530" stroke-width="2" fill="#EEEEEE" x="1" y="1" width="898" height="428"></rect>
        <g id="Illustration" transform="translate(290.000000, 25.000000)">
            <g id="Lattice-Junction">
                <g id="P-Type-Lattice" transform="translate(0.000000, 36.000000)">
                    <rect id="Rectangle" stroke="#999999" stroke-width="2" fill="#D4D4D4" x="1" y="1" width="158" height="158"></rect>
                    <circle id="Oval-Copy-3" fill="#252525" cx="20.5" cy="18.5" r="10.5"></circle>
                    <circle id="Oval-Copy-5" fill="#252525" cx="20.5" cy="58.5" r="10.5"></circle>
                    <circle id="Oval-Copy-6" fill="#252525" cx="20.5" cy="98.5" r="10.5"></circle>
                    <circle id="Oval-Copy-10" fill="#252525" cx="50.5" cy="38.5" r="10.5"></circle>
                    <circle id="Oval-Copy-8" fill="#252525" cx="50.5" cy="118.5" r="10.5"></circle>
                    <g id="Negative-Ion" transform="translate(100.000000, 28.000000)">
                        <circle id="Oval-Copy-26" fill="#84D0EF" cx="10.5" cy="10.5" r="10.5"></circle>
                        <rect id="Rectangle" fill="#524740" x="6" y="10" width="9" height="1"></rect>
                    </g>
                    <circle id="Oval-Copy-25" fill="#252525" cx="110.5" cy="78.5" r="10.5"></circle>
                    <circle id="Oval-Copy-24" fill="#252525" cx="110.5" cy="118.5" r="10.5"></circle>
                    <g id="Negative-Ion" transform="translate(40.000000, 68.000000)">
                        <circle id="Oval-Copy-9" fill="#84D0EF" cx="10.5" cy="10.5" r="10.5"></circle>
                        <rect id="Rectangle" fill="#524740" x="6" y="10" width="9" height="1"></rect>
                    </g>
                    <g id="Negative-Ion" transform="translate(10.000000, 128.000000)">
                        <circle id="Oval-Copy-7" fill="#84D0EF" cx="10.5" cy="10.5" r="10.5"></circle>
                        <rect id="Rectangle" fill="#524740" x="6" y="10" width="9" height="1"></rect>
                    </g>
                    <circle id="Oval-Copy-23" fill="#252525" cx="80.5" cy="18.5" r="10.5"></circle>
                    <circle id="Oval-Copy-22" fill="#252525" cx="80.5" cy="58.5" r="10.5"></circle>
                    <g id="Negative-Ion" transform="translate(70.000000, 88.000000)">
                        <circle id="Oval-Copy-21" fill="#84D0EF" cx="10.5" cy="10.5" r="10.5"></circle>
                        <rect id="Rectangle" fill="#524740" x="6" y="10" width="9" height="1"></rect>
                    </g>
                    <circle id="Oval-Copy-20" fill="#252525" cx="80.5" cy="138.5" r="10.5"></circle>
                    <circle id="Oval-Copy-30" fill="#252525" cx="140.5" cy="18.5" r="10.5"></circle>
                    <circle id="Oval-Copy-29" fill="#252525" cx="140.5" cy="58.5" r="10.5"></circle>
                    <circle id="Oval-Copy-28" fill="#252525" cx="140.5" cy="98.5" r="10.5"></circle>
                    <circle id="Oval-Copy-27" fill="#252525" cx="140.5" cy="138.5" r="10.5"></circle>
                    <g id="Little-Ones" transform="translate(4.000000, 23.000000)" fill="#84D0EF">
                        <circle id="Oval-Copy-31" cx="25.25" cy="53.25" r="3.25"></circle>
                        <circle id="Oval-Copy-32" cx="38.25" cy="32.25" r="3.25"></circle>
                        <circle id="Oval-Copy-33" cx="28.25" cy="4.25" r="3.25"></circle>
                        <circle id="Oval-Copy-34" cx="69.25" cy="12.25" r="3.25"></circle>
                        <circle id="Oval-Copy-35" cx="79.25" cy="52.25" r="3.25"></circle>
                        <circle id="Oval-Copy-36" cx="60.25" cy="73.25" r="3.25"></circle>
                        <circle id="Oval-Copy-37" cx="35.25" cy="84.25" r="3.25"></circle>
                        <circle id="Oval-Copy-38" cx="31.25" cy="126.25" r="3.25"></circle>
                        <circle id="Oval-Copy-39" cx="3.25" cy="93.25" r="3.25"></circle>
                        <circle id="Oval-Copy-40" cx="55.25" cy="111.25" r="3.25"></circle>
                        <circle id="Oval-Copy-42" cx="90.25" cy="92.25" r="3.25"></circle>
                        <circle id="Oval-Copy-43" cx="90.25" cy="122.25" r="3.25"></circle>
                        <circle id="Oval-Copy-49" cx="96.25" cy="3.25" r="3.25"></circle>
                    </g>
                </g>
                <g id="N-Type-Lattice" transform="translate(158.000000, 36.000000)">
                    <rect id="Rectangle" stroke="#999999" stroke-width="2" fill="#7D7570" x="1" y="1" width="158" height="158"></rect>
                    <circle id="Oval-Copy-3" fill="#252525" cx="20.5" cy="18.5" r="10.5"></circle>
                    <circle id="Oval-Copy-5" fill="#252525" cx="20.5" cy="58.5" r="10.5"></circle>
                    <circle id="Oval-Copy-6" fill="#252525" cx="20.5" cy="98.5" r="10.5"></circle>
                    <circle id="Oval-Copy-10" fill="#252525" cx="50.5" cy="38.5" r="10.5"></circle>
                    <g id="Positive-Ion" transform="translate(40.000000, 68.000000)">
                        <circle id="Oval-Copy-9" fill="#D7E465" cx="10.5" cy="10.5" r="10.5"></circle>
                        <path d="M10,10 L10,6 L11,6 L11,10 L15,10 L15,11 L11,11 L11,15 L10,15 L10,11 L6,11 L6,10 L10,10 Z" id="Combined-Shape" fill="#524740"></path>
                    </g>
                    <circle id="Oval-Copy-8" fill="#252525" cx="50.5" cy="118.5" r="10.5"></circle>
                    <g id="Positive-Ion" transform="translate(100.000000, 28.000000)">
                        <circle id="Oval-Copy-26" fill="#D7E465" cx="10.5" cy="10.5" r="10.5"></circle>
                        <path d="M10,10 L10,6 L11,6 L11,10 L15,10 L15,11 L11,11 L11,15 L10,15 L10,11 L6,11 L6,10 L10,10 Z" id="Combined-Shape" fill="#524740"></path>
                    </g>
                    <circle id="Oval-Copy-25" fill="#252525" cx="110.5" cy="78.5" r="10.5"></circle>
                    <circle id="Oval-Copy-24" fill="#252525" cx="110.5" cy="118.5" r="10.5"></circle>
                    <g id="Positive-Ion" transform="translate(10.000000, 128.000000)">
                        <circle id="Oval-Copy-7" fill="#D7E465" cx="10.5" cy="10.5" r="10.5"></circle>
                        <path d="M10,10 L10,6 L11,6 L11,10 L15,10 L15,11 L11,11 L11,15 L10,15 L10,11 L6,11 L6,10 L10,10 Z" id="Combined-Shape" fill="#524740"></path>
                    </g>
                    <circle id="Oval-Copy-23" fill="#252525" cx="80.5" cy="18.5" r="10.5"></circle>
                    <circle id="Oval-Copy-22" fill="#252525" cx="80.5" cy="58.5" r="10.5"></circle>
                    <g id="Positive-Ion" transform="translate(70.000000, 88.000000)">
                        <circle id="Oval-Copy-21" fill="#D7E465" cx="10.5" cy="10.5" r="10.5"></circle>
                        <path d="M10,10 L10,6 L11,6 L11,10 L15,10 L15,11 L11,11 L11,15 L10,15 L10,11 L6,11 L6,10 L10,10 Z" id="Combined-Shape" fill="#524740"></path>
                    </g>
                    <circle id="Oval-Copy-20" fill="#252525" cx="80.5" cy="138.5" r="10.5"></circle>
                    <circle id="Oval-Copy-30" fill="#252525" cx="140.5" cy="18.5" r="10.5"></circle>
                    <circle id="Oval-Copy-29" fill="#252525" cx="140.5" cy="58.5" r="10.5"></circle>
                    <circle id="Oval-Copy-28" fill="#252525" cx="140.5" cy="98.5" r="10.5"></circle>
                    <circle id="Oval-Copy-27" fill="#252525" cx="140.5" cy="138.5" r="10.5"></circle>
                    <g id="Little-ones" transform="translate(56.000000, 8.000000)" fill="#EF7D3B">
                        <circle id="Oval-Copy-34" cx="17.25" cy="27.25" r="3.25"></circle>
                        <circle id="Oval-Copy-35" cx="27.25" cy="67.25" r="3.25"></circle>
                        <circle id="Oval-Copy-36" cx="8.25" cy="88.25" r="3.25"></circle>
                        <circle id="Oval-Copy-40" cx="3.25" cy="126.25" r="3.25"></circle>
                        <circle id="Oval-Copy-41" cx="63.25" cy="126.25" r="3.25"></circle>
                        <circle id="Oval-Copy-42" cx="38.25" cy="107.25" r="3.25"></circle>
                        <circle id="Oval-Copy-43" cx="38.25" cy="137.25" r="3.25"></circle>
                        <circle id="Oval-Copy-44" cx="78.25" cy="146.25" r="3.25"></circle>
                        <circle id="Oval-Copy-45" cx="98.25" cy="96.25" r="3.25"></circle>
                        <circle id="Oval-Copy-46" cx="67.25" cy="82.25" r="3.25"></circle>
                        <circle id="Oval-Copy-47" cx="77.25" cy="37.25" r="3.25"></circle>
                        <circle id="Oval-Copy-48" cx="67.25" cy="3.25" r="3.25"></circle>
                        <circle id="Oval-Copy-49" cx="44.25" cy="18.25" r="3.25"></circle>
                    </g>
                </g>
                <path d="M103.5,37.5 L104,196" id="Line" stroke="#979797" stroke-width="2" stroke-linecap="square" stroke-dasharray="8,8"></path>
                <path d="M213.5,37.5 L214,196" id="Line-Copy" stroke="#979797" stroke-width="2" stroke-linecap="square" stroke-dasharray="8,8"></path>
                <path d="M55.248,2.6 C56.8640081,2.6 58.1279954,2.98399616 59.04,3.752 C59.9520046,4.52000384 60.408,5.48799416 60.408,6.656 C60.408,7.82400584 59.9520046,8.7879962 59.04,9.548 C58.1279954,10.3080038 56.8640081,10.688 55.248,10.688 L53.112,10.688 L53.112,13.688 C53.112,14.888006 53.2439987,15.6559983 53.508,15.992 C53.7720013,16.3280017 54.399995,16.496 55.392,16.496 L55.392,17 L48.912,17 L48.912,16.496 C49.904005,16.496 50.5319987,16.3280017 50.796,15.992 C51.0600013,15.6559983 51.192,14.888006 51.192,13.688 L51.192,5.888 C51.192,4.687994 51.0600013,3.92400164 50.796,3.596 C50.5319987,3.26799836 49.904005,3.104 48.912,3.104 L48.912,2.6 L55.248,2.6 Z M55.224,9.824 C56.216005,9.824 56.9719974,9.52800296 57.492,8.936 C58.0120026,8.34399704 58.272,7.58400464 58.272,6.656 C58.272,5.72799536 58.0120026,4.96800296 57.492,4.376 C56.9719974,3.78399704 56.216005,3.488 55.224,3.488 L53.112,3.488 L53.112,9.824 L55.224,9.824 Z M71.2,12.608 L64.192,12.608 L64.192,11.552 L71.2,11.552 L71.2,12.608 Z M88.376,2.6 L88.592,5.84 L88.088,5.84 L87.968,5.36 C87.775999,4.6399964 87.5200016,4.15600124 87.2,3.908 C86.8799984,3.65999876 86.2080051,3.536 85.184,3.536 L82.04,3.536 L82.04,13.688 C82.04,14.888006 82.1759986,15.6559983 82.448,15.992 C82.7200014,16.3280017 83.351995,16.496 84.344,16.496 L84.344,17 L77.84,17 L77.84,16.496 C78.832005,16.496 79.4639986,16.3280017 79.736,15.992 C80.0080014,15.6559983 80.144,14.888006 80.144,13.688 L80.144,3.536 L77,3.536 C75.9759949,3.536 75.3040016,3.65999876 74.984,3.908 C74.6639984,4.15600124 74.408001,4.6399964 74.216,5.36 L74.096,5.84 L73.592,5.84 L73.808,2.6 L88.376,2.6 Z M89.544,22.688 C89.544,22.4319987 89.639999,22.204001 89.832,22.004 C90.024001,21.803999 90.2759984,21.5320017 90.588,21.188 C90.9000016,20.8439983 91.159999,20.4080026 91.368,19.88 L92.568,16.88 L89.808,10.904 C89.5519987,10.3599973 89.3120011,9.988001 89.088,9.788 C88.8639989,9.587999 88.5680018,9.488 88.2,9.488 L88.2,9.008 L92.448,9.008 L92.448,9.488 C91.9039973,9.488 91.5760006,9.57599912 91.464,9.752 C91.3519994,9.92800088 91.4239987,10.311997 91.68,10.904 L93.432,14.744 L94.968,10.904 C95.1920011,10.3599973 95.2560005,9.988001 95.16,9.788 C95.0639995,9.587999 94.7680025,9.488 94.272,9.488 L94.272,9.008 L97.632,9.008 L97.632,9.488 C96.8799962,9.488 96.3120019,9.95999528 95.928,10.904 L91.248,22.592 C91.0079988,23.184003 90.7120018,23.48 90.36,23.48 C90.151999,23.48 89.9640008,23.4160006 89.796,23.288 C89.6279992,23.1599994 89.544,22.9600014 89.544,22.688 Z M106.864,15.488 C107.328002,14.8319967 107.56,14.000005 107.56,12.992 C107.56,11.983995 107.328002,11.1600032 106.864,10.52 C106.399998,9.8799968 105.728004,9.56 104.848,9.56 C104.303997,9.56 103.820002,9.72799832 103.396,10.064 C102.971998,10.4000017 102.640001,10.8559971 102.4,11.432 L102.4,14.528 C102.640001,15.120003 102.971998,15.5879983 103.396,15.932 C103.820002,16.2760017 104.303997,16.448 104.848,16.448 C105.728004,16.448 106.399998,16.1280032 106.864,15.488 Z M102.4,19.712 C102.4,20.8960059 102.515999,21.6559983 102.748,21.992 C102.980001,22.3280017 103.495996,22.496 104.296,22.496 L104.296,23 L98.8,23 L98.8,22.496 C99.600004,22.496 100.115999,22.3320016 100.348,22.004 C100.580001,21.6759984 100.696,20.912006 100.696,19.712 L100.696,12.488 C100.696,11.287994 100.580001,10.5240016 100.348,10.196 C100.115999,9.86799836 99.600004,9.704 98.8,9.704 L98.8,9.2 L102.016,8.6 C102.112,8.77600088 102.231999,9.263996 102.376,10.064 C103.192004,9.08799512 104.183994,8.6 105.352,8.6 C106.488006,8.6 107.463996,9.02799572 108.28,9.884 C109.096004,10.7400043 109.504,11.7759939 109.504,12.992 C109.504,14.2080061 109.096004,15.2479957 108.28,16.112 C107.463996,16.9760043 106.488006,17.408 105.352,17.408 C104.167994,17.408 103.184004,16.9280048 102.4,15.968 L102.4,19.712 Z M114.872,11.504 L118.856,11.504 C119.016001,11.0559978 118.948001,10.6200021 118.652,10.196 C118.355999,9.77199788 117.848004,9.56 117.128,9.56 C116.615997,9.56 116.156002,9.73599824 115.748,10.088 C115.339998,10.4400018 115.048001,10.911997 114.872,11.504 Z M114.728,12.392 C114.583999,13.5760059 114.771997,14.5399963 115.292,15.284 C115.812003,16.0280037 116.663994,16.4 117.848,16.4 C118.248002,16.4 118.703997,16.296001 119.216,16.088 C119.728003,15.879999 120.151998,15.6160016 120.488,15.296 L120.92,15.824 C120.487998,16.2880023 119.936003,16.6679985 119.264,16.964 C118.591997,17.2600015 117.920003,17.408 117.248,17.408 C115.951994,17.408 114.888004,16.9800043 114.056,16.124 C113.223996,15.2679957 112.808,14.2240062 112.808,12.992 C112.808,11.7599938 113.259995,10.7200042 114.164,9.872 C115.068005,9.02399576 116.095994,8.6 117.248,8.6 C118.336005,8.6 119.223997,8.9799962 119.912,9.74 C120.600003,10.5000038 120.800001,11.383995 120.512,12.392 L114.728,12.392 Z" id="P-Type-Copy" fill="#524740"></path>
                <path d="M208.512,14.024 L208.512,5.888 C208.512,4.687994 208.380001,3.92400164 208.116,3.596 C207.851999,3.26799836 207.224005,3.104 206.232,3.104 L206.232,2.6 L211.704,2.6 L211.704,3.104 C210.711995,3.104 210.080001,3.26799836 209.808,3.596 C209.535999,3.92400164 209.4,4.687994 209.4,5.888 L209.4,17.408 L208.848,17.408 L199.08,5.336 L199.08,13.688 C199.08,14.888006 199.215999,15.6559983 199.488,15.992 C199.760001,16.3280017 200.391995,16.496 201.384,16.496 L201.384,17 L195.912,17 L195.912,16.496 C196.904005,16.496 197.531999,16.3280017 197.796,15.992 C198.060001,15.6559983 198.192,14.888006 198.192,13.688 L198.192,5.888 C198.192,4.687994 198.060001,3.92400164 197.796,3.596 C197.531999,3.26799836 196.904005,3.104 195.912,3.104 L195.912,2.6 L199.296,2.6 L208.512,14.024 Z M222.4,12.608 L215.392,12.608 L215.392,11.552 L222.4,11.552 L222.4,12.608 Z M239.576,2.6 L239.792,5.84 L239.288,5.84 L239.168,5.36 C238.975999,4.6399964 238.720002,4.15600124 238.4,3.908 C238.079998,3.65999876 237.408005,3.536 236.384,3.536 L233.24,3.536 L233.24,13.688 C233.24,14.888006 233.375999,15.6559983 233.648,15.992 C233.920001,16.3280017 234.551995,16.496 235.544,16.496 L235.544,17 L229.04,17 L229.04,16.496 C230.032005,16.496 230.663999,16.3280017 230.936,15.992 C231.208001,15.6559983 231.344,14.888006 231.344,13.688 L231.344,3.536 L228.2,3.536 C227.175995,3.536 226.504002,3.65999876 226.184,3.908 C225.863998,4.15600124 225.608001,4.6399964 225.416,5.36 L225.296,5.84 L224.792,5.84 L225.008,2.6 L239.576,2.6 Z M240.744,22.688 C240.744,22.4319987 240.839999,22.204001 241.032,22.004 C241.224001,21.803999 241.475998,21.5320017 241.788,21.188 C242.100002,20.8439983 242.359999,20.4080026 242.568,19.88 L243.768,16.88 L241.008,10.904 C240.751999,10.3599973 240.512001,9.988001 240.288,9.788 C240.063999,9.587999 239.768002,9.488 239.4,9.488 L239.4,9.008 L243.648,9.008 L243.648,9.488 C243.103997,9.488 242.776001,9.57599912 242.664,9.752 C242.551999,9.92800088 242.623999,10.311997 242.88,10.904 L244.632,14.744 L246.168,10.904 C246.392001,10.3599973 246.456,9.988001 246.36,9.788 C246.264,9.587999 245.968002,9.488 245.472,9.488 L245.472,9.008 L248.832,9.008 L248.832,9.488 C248.079996,9.488 247.512002,9.95999528 247.128,10.904 L242.448,22.592 C242.207999,23.184003 241.912002,23.48 241.56,23.48 C241.351999,23.48 241.164001,23.4160006 240.996,23.288 C240.827999,23.1599994 240.744,22.9600014 240.744,22.688 Z M258.064,15.488 C258.528002,14.8319967 258.76,14.000005 258.76,12.992 C258.76,11.983995 258.528002,11.1600032 258.064,10.52 C257.599998,9.8799968 256.928004,9.56 256.048,9.56 C255.503997,9.56 255.020002,9.72799832 254.596,10.064 C254.171998,10.4000017 253.840001,10.8559971 253.6,11.432 L253.6,14.528 C253.840001,15.120003 254.171998,15.5879983 254.596,15.932 C255.020002,16.2760017 255.503997,16.448 256.048,16.448 C256.928004,16.448 257.599998,16.1280032 258.064,15.488 Z M253.6,19.712 C253.6,20.8960059 253.715999,21.6559983 253.948,21.992 C254.180001,22.3280017 254.695996,22.496 255.496,22.496 L255.496,23 L250,23 L250,22.496 C250.800004,22.496 251.315999,22.3320016 251.548,22.004 C251.780001,21.6759984 251.896,20.912006 251.896,19.712 L251.896,12.488 C251.896,11.287994 251.780001,10.5240016 251.548,10.196 C251.315999,9.86799836 250.800004,9.704 250,9.704 L250,9.2 L253.216,8.6 C253.312,8.77600088 253.431999,9.263996 253.576,10.064 C254.392004,9.08799512 255.383994,8.6 256.552,8.6 C257.688006,8.6 258.663996,9.02799572 259.48,9.884 C260.296004,10.7400043 260.704,11.7759939 260.704,12.992 C260.704,14.2080061 260.296004,15.2479957 259.48,16.112 C258.663996,16.9760043 257.688006,17.408 256.552,17.408 C255.367994,17.408 254.384004,16.9280048 253.6,15.968 L253.6,19.712 Z M266.072,11.504 L270.056,11.504 C270.216001,11.0559978 270.148001,10.6200021 269.852,10.196 C269.555999,9.77199788 269.048004,9.56 268.328,9.56 C267.815997,9.56 267.356002,9.73599824 266.948,10.088 C266.539998,10.4400018 266.248001,10.911997 266.072,11.504 Z M265.928,12.392 C265.783999,13.5760059 265.971997,14.5399963 266.492,15.284 C267.012003,16.0280037 267.863994,16.4 269.048,16.4 C269.448002,16.4 269.903997,16.296001 270.416,16.088 C270.928003,15.879999 271.351998,15.6160016 271.688,15.296 L272.12,15.824 C271.687998,16.2880023 271.136003,16.6679985 270.464,16.964 C269.791997,17.2600015 269.120003,17.408 268.448,17.408 C267.151994,17.408 266.088004,16.9800043 265.256,16.124 C264.423996,15.2679957 264.008,14.2240062 264.008,12.992 C264.008,11.7599938 264.459995,10.7200042 265.364,9.872 C266.268005,9.02399576 267.295994,8.6 268.448,8.6 C269.536005,8.6 270.423997,8.9799962 271.112,9.74 C271.800003,10.5000038 272.000001,11.383995 271.712,12.392 L265.928,12.392 Z" id="N-Type-Copy" fill="#524740"></path>
                <rect id="Rectangle" fill="#EF7D3B" opacity="0.149135045" x="104" y="38" width="110" height="156"></rect>
            </g>
            <path d="M64.856,293.632 C66.3760076,293.632 67.136,292.528011 67.136,290.32 L67.136,277.888 C67.136,276.687994 67.0040013,275.924002 66.74,275.596 C66.4759987,275.267998 65.848005,275.104 64.856,275.104 L64.856,274.6 L71.336,274.6 L71.336,275.104 C70.343995,275.104 69.7160013,275.267998 69.452,275.596 C69.1879987,275.924002 69.056,276.687994 69.056,277.888 L69.056,290.056 C69.056,290.872004 68.9280013,291.575997 68.672,292.168 C68.4159987,292.760003 68.0720022,293.203999 67.64,293.5 C67.2079978,293.796001 66.7640023,294.011999 66.308,294.148 C65.8519977,294.284001 65.3680026,294.352 64.856,294.352 C64.0399959,294.352 63.2480038,294.144002 62.48,293.728 C61.7119962,293.311998 61.328,292.760003 61.328,292.072 C61.328,291.847999 61.4079992,291.656001 61.568,291.496 C61.7280008,291.335999 61.9279988,291.256 62.168,291.256 C62.3920011,291.256 62.5839992,291.335999 62.744,291.496 C62.9040008,291.656001 62.984,291.847999 62.984,292.072 C62.984,292.472002 63.1519983,292.831998 63.488,293.152 C63.8240017,293.472002 64.2799971,293.632 64.856,293.632 Z M85.32,288.808 L82.104,289.408 C81.9759994,289.151999 81.8480006,288.640004 81.72,287.872 C80.727995,288.896005 79.6800055,289.408 78.576,289.408 C76.5919901,289.408 75.6,288.208012 75.6,285.808 L75.6,284.296 C75.6,283.095994 75.4840012,282.328002 75.252,281.992 C75.0199988,281.655998 74.504004,281.488 73.704,281.488 L73.704,281.008 L77.304,281.008 L77.304,285.688 C77.304,287.400009 77.9119939,288.256 79.128,288.256 C79.6720027,288.256 80.239997,288.028002 80.832,287.572 C81.424003,287.115998 81.72,286.552003 81.72,285.88 L81.72,284.296 C81.72,283.095994 81.6040012,282.328002 81.372,281.992 C81.1399988,281.655998 80.6160041,281.488 79.8,281.488 L79.8,281.008 L83.4,281.008 L83.4,285.496 C83.4,286.696006 83.5159988,287.463998 83.748,287.8 C83.9800012,288.136002 84.5039959,288.304 85.32,288.304 L85.32,288.808 Z M91.288,282.328 C92.2000046,281.175994 93.3119934,280.6 94.624,280.6 C95.6640052,280.6 96.4439974,280.927997 96.964,281.584 C97.4840026,282.240003 97.744,283.103995 97.744,284.176 L97.744,285.688 C97.744,286.888006 97.8599988,287.655998 98.092,287.992 C98.3240012,288.328002 98.839996,288.496 99.64,288.496 L99.64,289 L94.144,289 L94.144,288.496 C94.9280039,288.496 95.4399988,288.324002 95.68,287.98 C95.9200012,287.635998 96.04,286.872006 96.04,285.688 L96.04,284.296 C96.04,282.583991 95.3760066,281.728 94.048,281.728 C93.3599966,281.728 92.7280029,281.967998 92.152,282.448 C91.5759971,282.928002 91.288,283.487997 91.288,284.128 L91.288,285.688 C91.288,286.920006 91.383999,287.695998 91.576,288.016 C91.768001,288.336002 92.2319963,288.496 92.968,288.496 L92.968,289 L87.688,289 L87.688,288.496 C88.488004,288.496 89.0039988,288.328002 89.236,287.992 C89.4680012,287.655998 89.584,286.888006 89.584,285.688 L89.584,284.488 C89.584,283.303994 89.4680012,282.544002 89.236,282.208 C89.0039988,281.871998 88.488004,281.704 87.688,281.704 L87.688,281.2 L90.88,280.6 C91.0240007,280.904002 91.1599994,281.479996 91.288,282.328 Z M106.496,281.368 C105.855997,281.368 105.312002,281.735996 104.864,282.472 C104.415998,283.208004 104.192,284.119995 104.192,285.208 C104.192,286.200005 104.435998,286.979997 104.924,287.548 C105.412002,288.116003 106.135995,288.4 107.096,288.4 C108.024005,288.4 108.879996,288.032004 109.664,287.296 L110.072,287.824 C109.095995,288.880005 107.904007,289.408 106.496,289.408 C105.183993,289.408 104.148004,289.016004 103.388,288.232 C102.627996,287.447996 102.248,286.440006 102.248,285.208 C102.248,283.879993 102.695996,282.780004 103.592,281.908 C104.488004,281.035996 105.455995,280.6 106.496,280.6 C107.440005,280.6 108.151998,280.767998 108.632,281.104 C109.112002,281.440002 109.352,281.847998 109.352,282.328 C109.352,282.584001 109.268001,282.819999 109.1,283.036 C108.931999,283.252001 108.664002,283.36 108.296,283.36 C108.039999,283.36 107.820001,283.268001 107.636,283.084 C107.451999,282.899999 107.36,282.672001 107.36,282.4 C107.36,281.711997 107.072003,281.368 106.496,281.368 Z M113.448,281.848 L112.2,281.848 L112.2,281.272 C112.888003,281.127999 113.391998,280.816002 113.712,280.336 C114.032002,279.855998 114.24,279.200004 114.336,278.368 L115.152,278.368 L115.152,281.008 L117.24,281.008 L117.24,281.848 L115.152,281.848 L115.152,286.648 C115.152,287.800006 115.511996,288.376 116.232,288.376 C116.696002,288.376 117.215997,288.104003 117.792,287.56 L118.2,287.968 C117.863998,288.368002 117.460002,288.695999 116.988,288.952 C116.515998,289.208001 116.080002,289.336 115.68,289.336 C114.991997,289.336 114.448002,289.112002 114.048,288.664 C113.647998,288.215998 113.448,287.544004 113.448,286.648 L113.448,281.848 Z M126.016,289 L120.52,289 L120.52,288.496 C121.320004,288.496 121.835999,288.328002 122.068,287.992 C122.300001,287.655998 122.416,286.888006 122.416,285.688 L122.416,284.488 C122.416,283.303994 122.300001,282.544002 122.068,282.208 C121.835999,281.871998 121.320004,281.704 120.52,281.704 L120.52,281.2 L124.12,280.6 L124.12,285.688 C124.12,286.888006 124.235999,287.655998 124.468,287.992 C124.700001,288.328002 125.215996,288.496 126.016,288.496 L126.016,289 Z M124.312,277.168 C124.312,277.472002 124.208001,277.727999 124,277.936 C123.791999,278.144001 123.544001,278.248 123.256,278.248 C122.967999,278.248 122.720001,278.144001 122.512,277.936 C122.303999,277.727999 122.2,277.472002 122.2,277.168 C122.2,276.879999 122.303999,276.632001 122.512,276.424 C122.720001,276.215999 122.967999,276.112 123.256,276.112 C123.544001,276.112 123.791999,276.215999 124,276.424 C124.208001,276.632001 124.312,276.879999 124.312,277.168 Z M136.88,281.896 C137.840005,282.744004 138.32,283.775994 138.32,284.992 C138.32,286.208006 137.844005,287.247996 136.892,288.112 C135.939995,288.976004 134.800007,289.408 133.472,289.408 C132.143993,289.408 131.004005,288.976004 130.052,288.112 C129.099995,287.247996 128.624,286.208006 128.624,284.992 C128.624,283.775994 129.099995,282.740004 130.052,281.884 C131.004005,281.027996 132.143993,280.6 133.472,280.6 C134.800007,280.6 135.935995,281.031996 136.88,281.896 Z M135.632,287.512 C136.128002,286.855997 136.376,286.016005 136.376,284.992 C136.376,283.967995 136.128002,283.132003 135.632,282.484 C135.135998,281.835997 134.416005,281.512 133.472,281.512 C132.527995,281.512 131.808002,281.839997 131.312,282.496 C130.815998,283.152003 130.568,283.983995 130.568,284.992 C130.568,286.000005 130.815998,286.831997 131.312,287.488 C131.808002,288.144003 132.527995,288.472 133.472,288.472 C134.416005,288.472 135.135998,288.152003 135.632,287.512 Z M144.984,282.328 C145.896005,281.175994 147.007993,280.6 148.32,280.6 C149.360005,280.6 150.139997,280.927997 150.66,281.584 C151.180003,282.240003 151.44,283.103995 151.44,284.176 L151.44,285.688 C151.44,286.888006 151.555999,287.655998 151.788,287.992 C152.020001,288.328002 152.535996,288.496 153.336,288.496 L153.336,289 L147.84,289 L147.84,288.496 C148.624004,288.496 149.135999,288.324002 149.376,287.98 C149.616001,287.635998 149.736,286.872006 149.736,285.688 L149.736,284.296 C149.736,282.583991 149.072007,281.728 147.744,281.728 C147.055997,281.728 146.424003,281.967998 145.848,282.448 C145.271997,282.928002 144.984,283.487997 144.984,284.128 L144.984,285.688 C144.984,286.920006 145.079999,287.695998 145.272,288.016 C145.464001,288.336002 145.927996,288.496 146.664,288.496 L146.664,289 L141.384,289 L141.384,288.496 C142.184004,288.496 142.699999,288.328002 142.932,287.992 C143.164001,287.655998 143.28,286.888006 143.28,285.688 L143.28,284.488 C143.28,283.303994 143.164001,282.544002 142.932,282.208 C142.699999,281.871998 142.184004,281.704 141.384,281.704 L141.384,281.2 L144.576,280.6 C144.720001,280.904002 144.855999,281.479996 144.984,282.328 Z M168.632,274.6 C170.248008,274.6 171.511995,274.983996 172.424,275.752 C173.336005,276.520004 173.792,277.487994 173.792,278.656 C173.792,279.824006 173.336005,280.787996 172.424,281.548 C171.511995,282.308004 170.248008,282.688 168.632,282.688 L166.496,282.688 L166.496,285.688 C166.496,286.888006 166.627999,287.655998 166.892,287.992 C167.156001,288.328002 167.783995,288.496 168.776,288.496 L168.776,289 L162.296,289 L162.296,288.496 C163.288005,288.496 163.915999,288.328002 164.18,287.992 C164.444001,287.655998 164.576,286.888006 164.576,285.688 L164.576,277.888 C164.576,276.687994 164.444001,275.924002 164.18,275.596 C163.915999,275.267998 163.288005,275.104 162.296,275.104 L162.296,274.6 L168.632,274.6 Z M168.608,281.824 C169.600005,281.824 170.355997,281.528003 170.876,280.936 C171.396003,280.343997 171.656,279.584005 171.656,278.656 C171.656,277.727995 171.396003,276.968003 170.876,276.376 C170.355997,275.783997 169.600005,275.488 168.608,275.488 L166.496,275.488 L166.496,281.824 L168.608,281.824 Z M183.888,281.896 C184.848005,282.744004 185.328,283.775994 185.328,284.992 C185.328,286.208006 184.852005,287.247996 183.9,288.112 C182.947995,288.976004 181.808007,289.408 180.48,289.408 C179.151993,289.408 178.012005,288.976004 177.06,288.112 C176.107995,287.247996 175.632,286.208006 175.632,284.992 C175.632,283.775994 176.107995,282.740004 177.06,281.884 C178.012005,281.027996 179.151993,280.6 180.48,280.6 C181.808007,280.6 182.943995,281.031996 183.888,281.896 Z M182.64,287.512 C183.136002,286.855997 183.384,286.016005 183.384,284.992 C183.384,283.967995 183.136002,283.132003 182.64,282.484 C182.143998,281.835997 181.424005,281.512 180.48,281.512 C179.535995,281.512 178.816002,281.839997 178.32,282.496 C177.823998,283.152003 177.576,283.983995 177.576,284.992 C177.576,286.000005 177.823998,286.831997 178.32,287.488 C178.816002,288.144003 179.535995,288.472 180.48,288.472 C181.424005,288.472 182.143998,288.152003 182.64,287.512 Z M189.4,281.848 L188.152,281.848 L188.152,281.272 C188.840003,281.127999 189.343998,280.816002 189.664,280.336 C189.984002,279.855998 190.192,279.200004 190.288,278.368 L191.104,278.368 L191.104,281.008 L193.192,281.008 L193.192,281.848 L191.104,281.848 L191.104,286.648 C191.104,287.800006 191.463996,288.376 192.184,288.376 C192.648002,288.376 193.167997,288.104003 193.744,287.56 L194.152,287.968 C193.815998,288.368002 193.412002,288.695999 192.94,288.952 C192.467998,289.208001 192.032002,289.336 191.632,289.336 C190.943997,289.336 190.400002,289.112002 190,288.664 C189.599998,288.215998 189.4,287.544004 189.4,286.648 L189.4,281.848 Z M198.776,283.504 L202.76,283.504 C202.920001,283.055998 202.852001,282.620002 202.556,282.196 C202.259999,281.771998 201.752004,281.56 201.032,281.56 C200.519997,281.56 200.060002,281.735998 199.652,282.088 C199.243998,282.440002 198.952001,282.911997 198.776,283.504 Z M198.632,284.392 C198.487999,285.576006 198.675997,286.539996 199.196,287.284 C199.716003,288.028004 200.567994,288.4 201.752,288.4 C202.152002,288.4 202.607997,288.296001 203.12,288.088 C203.632003,287.879999 204.055998,287.616002 204.392,287.296 L204.824,287.824 C204.391998,288.288002 203.840003,288.667999 203.168,288.964 C202.495997,289.260001 201.824003,289.408 201.152,289.408 C199.855994,289.408 198.792004,288.980004 197.96,288.124 C197.127996,287.267996 196.712,286.224006 196.712,284.992 C196.712,283.759994 197.163995,282.720004 198.068,281.872 C198.972005,281.023996 199.999994,280.6 201.152,280.6 C202.240005,280.6 203.127997,280.979996 203.816,281.74 C204.504003,282.500004 204.704001,283.383995 204.416,284.392 L198.632,284.392 Z M211.2,282.328 C212.112005,281.175994 213.223993,280.6 214.536,280.6 C215.576005,280.6 216.355997,280.927997 216.876,281.584 C217.396003,282.240003 217.656,283.103995 217.656,284.176 L217.656,285.688 C217.656,286.888006 217.771999,287.655998 218.004,287.992 C218.236001,288.328002 218.751996,288.496 219.552,288.496 L219.552,289 L214.056,289 L214.056,288.496 C214.840004,288.496 215.351999,288.324002 215.592,287.98 C215.832001,287.635998 215.952,286.872006 215.952,285.688 L215.952,284.296 C215.952,282.583991 215.288007,281.728 213.96,281.728 C213.271997,281.728 212.640003,281.967998 212.064,282.448 C211.487997,282.928002 211.2,283.487997 211.2,284.128 L211.2,285.688 C211.2,286.920006 211.295999,287.695998 211.488,288.016 C211.680001,288.336002 212.143996,288.496 212.88,288.496 L212.88,289 L207.6,289 L207.6,288.496 C208.400004,288.496 208.915999,288.328002 209.148,287.992 C209.380001,287.655998 209.496,286.888006 209.496,285.688 L209.496,284.488 C209.496,283.303994 209.380001,282.544002 209.148,282.208 C208.915999,281.871998 208.400004,281.704 207.6,281.704 L207.6,281.2 L210.792,280.6 C210.936001,280.904002 211.071999,281.479996 211.2,282.328 Z M222.928,281.848 L221.68,281.848 L221.68,281.272 C222.368003,281.127999 222.871998,280.816002 223.192,280.336 C223.512002,279.855998 223.72,279.200004 223.816,278.368 L224.632,278.368 L224.632,281.008 L226.72,281.008 L226.72,281.848 L224.632,281.848 L224.632,286.648 C224.632,287.800006 224.991996,288.376 225.712,288.376 C226.176002,288.376 226.695997,288.104003 227.272,287.56 L227.68,287.968 C227.343998,288.368002 226.940002,288.695999 226.468,288.952 C225.995998,289.208001 225.560002,289.336 225.16,289.336 C224.471997,289.336 223.928002,289.112002 223.528,288.664 C223.127998,288.215998 222.928,287.544004 222.928,286.648 L222.928,281.848 Z M235.496,289 L230,289 L230,288.496 C230.800004,288.496 231.315999,288.328002 231.548,287.992 C231.780001,287.655998 231.896,286.888006 231.896,285.688 L231.896,284.488 C231.896,283.303994 231.780001,282.544002 231.548,282.208 C231.315999,281.871998 230.800004,281.704 230,281.704 L230,281.2 L233.6,280.6 L233.6,285.688 C233.6,286.888006 233.715999,287.655998 233.948,287.992 C234.180001,288.328002 234.695996,288.496 235.496,288.496 L235.496,289 Z M233.792,277.168 C233.792,277.472002 233.688001,277.727999 233.48,277.936 C233.271999,278.144001 233.024001,278.248 232.736,278.248 C232.447999,278.248 232.200001,278.144001 231.992,277.936 C231.783999,277.727999 231.68,277.472002 231.68,277.168 C231.68,276.879999 231.783999,276.632001 231.992,276.424 C232.200001,276.215999 232.447999,276.112 232.736,276.112 C233.024001,276.112 233.271999,276.215999 233.48,276.424 C233.688001,276.632001 233.792,276.879999 233.792,277.168 Z M246.24,288.52 C245.775998,289.016002 245.248003,289.264 244.656,289.264 C243.695995,289.264 243.152001,288.800005 243.024,287.872 C241.951995,288.832005 240.952005,289.312 240.024,289.312 C239.415997,289.312 238.904002,289.132002 238.488,288.772 C238.071998,288.411998 237.864,287.920003 237.864,287.296 C237.864,285.615992 239.567983,284.480003 242.976,283.888 C242.976,282.943995 242.872001,282.288002 242.664,281.92 C242.455999,281.551998 242.024003,281.368 241.368,281.368 C241.047998,281.368 240.740001,281.471999 240.444,281.68 C240.147999,281.888001 240,282.167998 240,282.52 C240,282.760001 239.920001,282.959999 239.76,283.12 C239.599999,283.280001 239.408001,283.36 239.184,283.36 C238.943999,283.36 238.744001,283.280001 238.584,283.12 C238.423999,282.959999 238.344,282.760001 238.344,282.52 C238.344,281.959997 238.651997,281.500002 239.268,281.14 C239.884003,280.779998 240.591996,280.6 241.392,280.6 C242.560006,280.6 243.399997,280.855997 243.912,281.368 C244.424003,281.880003 244.68,282.711994 244.68,283.864 L244.68,287.488 C244.68,288.112003 244.863998,288.424 245.232,288.424 C245.440001,288.424 245.663999,288.304001 245.904,288.064 L246.24,288.52 Z M242.976,287.08 L242.976,284.632 C240.767989,285.144003 239.664,285.935995 239.664,287.008 C239.664,287.376002 239.771999,287.671999 239.988,287.896 C240.204001,288.120001 240.471998,288.232 240.792,288.232 C241.384003,288.232 242.111996,287.848004 242.976,287.08 Z M253.576,289 L248.08,289 L248.08,288.496 C248.880004,288.496 249.395999,288.328002 249.628,287.992 C249.860001,287.655998 249.976,286.888006 249.976,285.688 L249.976,278.104 C249.976,276.903994 249.860001,276.136002 249.628,275.8 C249.395999,275.463998 248.880004,275.296 248.08,275.296 L248.08,274.792 L251.68,274.192 L251.68,285.688 C251.68,286.888006 251.795999,287.655998 252.028,287.992 C252.260001,288.328002 252.775996,288.496 253.576,288.496 L253.576,289 Z" id="Junction-Potential-Copy" fill="#524740"></path>
            <g id="Potential-Plates" transform="translate(103.000000, 197.000000)">
                <g id="Positive-Plate-Copy">
                    <g id="Group" stroke="#3D3530" stroke-linecap="square" stroke-width="3">
                        <path d="M1,0.5 L1,36.5" id="Line-2"></path>
                        <path d="M41,20.5 L41,53.5" id="Line-2-Copy"></path>
                        <path d="M1,37 L41,37" id="Line-3"></path>
                    </g>
                    <rect id="Combined-Shape" fill="#524740" x="26" y="20" width="9" height="1"></rect>
                </g>
                <g id="Positive-Plate" transform="translate(70.000000, 0.000000)">
                    <g id="Group" stroke="#3D3530" stroke-linecap="square" stroke-width="3">
                        <path d="M41,0.5 L41,36.5" id="Line-2"></path>
                        <path d="M1,11.5 L1,60.5" id="Line-2-Copy"></path>
                        <path d="M1,37 L41,37" id="Line-3"></path>
                    </g>
                    <path d="M11,19 L11,15 L12,15 L12,19 L16,19 L16,20 L12,20 L12,24 L11,24 L11,20 L7,20 L7,19 L11,19 Z" id="Combined-Shape" fill="#524740"></path>
                </g>
            </g>
        </g>
        <rect id="Rectangle-Copy" stroke="#3D3530" stroke-width="2" fill="#F8FAE4" x="1" y="336" width="898" height="43"></rect>
        <path d="M580.683999,365 L580.683999,348.872 L586.155999,348.872 C587.964009,348.872 589.403994,349.347995 590.475999,350.3 C591.548005,351.252005 592.083999,352.447993 592.083999,353.888 C592.083999,355.312007 591.548005,356.503995 590.475999,357.464 C589.403994,358.424005 587.964009,358.904 586.155999,358.904 L582.267999,358.904 L582.267999,365 L580.683999,365 Z M582.267999,357.392 L586.155999,357.392 C587.452006,357.392 588.491996,357.060003 589.275999,356.396 C590.060003,355.731997 590.451999,354.896005 590.451999,353.888 C590.451999,352.895995 590.060003,352.064003 589.275999,351.392 C588.491996,350.719997 587.452006,350.384 586.155999,350.384 L582.267999,350.384 L582.267999,357.392 Z M601.606666,357.656 L595.150666,357.656 L595.150666,356.216 L601.606666,356.216 L601.606666,357.656 Z M615.785333,348.872 L617.369333,348.872 L617.369333,365 L615.737333,365 L606.737333,351.296 L606.737333,365 L605.153333,365 L605.153333,348.872 L606.761333,348.872 L615.785333,362.6 L615.785333,348.872 Z M632.286666,365.192 C631.214661,365.192 630.30267,364.848003 629.550666,364.16 C628.798662,363.471997 628.310667,362.688004 628.086666,361.808 L629.478666,361.304 C629.622667,361.928003 629.938664,362.483998 630.426666,362.972 C630.914669,363.460002 631.502663,363.704 632.190666,363.704 C633.054671,363.704 633.698664,363.448003 634.122666,362.936 C634.546668,362.423997 634.758666,361.800004 634.758666,361.064 L634.758666,348.968 L636.342666,348.968 L636.342666,360.968 C636.342666,362.200006 635.99067,363.211996 635.286666,364.004 C634.582663,364.796004 633.582673,365.192 632.286666,365.192 Z M649.081333,353 L650.665333,353 L650.665333,365 L649.081333,365 L649.081333,363.224 C648.105328,364.536007 646.825341,365.192 645.241333,365.192 C643.849326,365.192 642.681338,364.700005 641.737333,363.716 C640.793328,362.731995 640.321333,361.520007 640.321333,360.08 L640.321333,353 L641.953333,353 L641.953333,360.032 C641.953333,361.056005 642.297329,361.923996 642.985333,362.636 C643.673336,363.348004 644.513328,363.704 645.505333,363.704 C646.513338,363.704 647.361329,363.348004 648.049333,362.636 C648.737336,361.923996 649.081333,361.056005 649.081333,360.032 L649.081333,353 Z M660.044,352.808 C661.436007,352.808 662.603995,353.299995 663.548,354.284 C664.492004,355.268005 664.964,356.479993 664.964,357.92 L664.964,365 L663.356,365 L663.356,357.968 C663.356,356.943995 663.008003,356.072004 662.312,355.352 C661.615996,354.631996 660.772005,354.272 659.78,354.272 C658.787995,354.272 657.944003,354.631996 657.248,355.352 C656.551996,356.072004 656.204,356.943995 656.204,357.968 L656.204,365 L654.62,365 L654.62,353 L656.204,353 L656.204,354.776 C657.180004,353.463993 658.459992,352.808 660.044,352.808 Z M674.078666,365.192 C672.366658,365.192 670.906672,364.588006 669.698666,363.38 C668.49066,362.171994 667.886666,360.712009 667.886666,359 C667.886666,357.287991 668.49066,355.828006 669.698666,354.62 C670.906672,353.411994 672.366658,352.808 674.078666,352.808 C675.166672,352.808 676.178662,353.075997 677.114666,353.612 C678.050671,354.148003 678.790664,354.863996 679.334666,355.76 L677.894666,356.456 C677.462664,355.799997 676.91067,355.280002 676.238666,354.896 C675.566663,354.511998 674.84667,354.32 674.078666,354.32 C672.78266,354.32 671.690671,354.771995 670.802666,355.676 C669.914662,356.580005 669.470666,357.687993 669.470666,359 C669.470666,360.312007 669.914662,361.419995 670.802666,362.324 C671.690671,363.228005 672.78266,363.68 674.078666,363.68 C674.84667,363.68 675.566663,363.488002 676.238666,363.104 C676.91067,362.719998 677.462664,362.200003 677.894666,361.544 L679.334666,362.24 C678.790664,363.136004 678.050671,363.851997 677.114666,364.388 C676.178662,364.924003 675.166672,365.192 674.078666,365.192 Z M689.529333,362.312 L690.321333,363.536 C690.225332,363.664001 690.097334,363.815999 689.937333,363.992 C689.777332,364.168001 689.417336,364.411998 688.857333,364.724 C688.29733,365.036002 687.721336,365.192 687.129333,365.192 C686.121328,365.192 685.277336,364.892003 684.597333,364.292 C683.91733,363.691997 683.577333,362.824006 683.577333,361.688 L683.577333,354.44 L681.657333,354.44 L681.657333,352.976 L683.577333,352.976 L683.577333,349.184 L685.161333,348.992 L685.161333,352.976 L688.785333,352.976 L688.785333,354.44 L685.161333,354.44 L685.161333,361.328 C685.161333,362.064004 685.389331,362.647998 685.845333,363.08 C686.301335,363.512002 686.82533,363.728 687.417333,363.728 C687.785335,363.728 688.145331,363.616001 688.497333,363.392 C688.849335,363.167999 689.109332,362.948001 689.277333,362.732 C689.445334,362.515999 689.529333,362.376 689.529333,362.312 Z M694.756,349.4 C694.579999,349.592001 694.356001,349.688 694.084,349.688 C693.811998,349.688 693.584001,349.592001 693.4,349.4 C693.215999,349.207999 693.124,348.984001 693.124,348.728 C693.124,348.471999 693.215999,348.248001 693.4,348.056 C693.584001,347.863999 693.811998,347.768 694.084,347.768 C694.356001,347.768 694.583999,347.863999 694.768,348.056 C694.952001,348.248001 695.044,348.471999 695.044,348.728 C695.044,348.984001 694.948001,349.207999 694.756,349.4 Z M693.292,365 L693.292,353 L694.876,353 L694.876,365 L693.292,365 Z M708.910666,363.368 C707.71066,364.584006 706.254675,365.192 704.542666,365.192 C702.830658,365.192 701.370672,364.588006 700.162666,363.38 C698.95466,362.171994 698.350666,360.712009 698.350666,359 C698.350666,357.287991 698.95466,355.828006 700.162666,354.62 C701.370672,353.411994 702.830658,352.808 704.542666,352.808 C706.254675,352.808 707.71466,353.411994 708.922666,354.62 C710.130672,355.828006 710.734666,357.287991 710.734666,359 C710.734666,360.696008 710.126672,362.151994 708.910666,363.368 Z M704.566666,363.68 C705.862673,363.68 706.954662,363.228005 707.842666,362.324 C708.730671,361.419995 709.174666,360.312007 709.174666,359 C709.174666,357.687993 708.730671,356.576005 707.842666,355.664 C706.954662,354.751995 705.862673,354.296 704.566666,354.296 C703.28666,354.296 702.198671,354.751995 701.302666,355.664 C700.406662,356.576005 699.958666,357.687993 699.958666,359 C699.958666,360.312007 700.406662,361.419995 701.302666,362.324 C702.198671,363.228005 703.28666,363.68 704.566666,363.68 Z M719.201333,352.808 C720.59334,352.808 721.761328,353.299995 722.705333,354.284 C723.649338,355.268005 724.121333,356.479993 724.121333,357.92 L724.121333,365 L722.513333,365 L722.513333,357.968 C722.513333,356.943995 722.165336,356.072004 721.469333,355.352 C720.77333,354.631996 719.929338,354.272 718.937333,354.272 C717.945328,354.272 717.101336,354.631996 716.405333,355.352 C715.70933,356.072004 715.361333,356.943995 715.361333,357.968 L715.361333,365 L713.777333,365 L713.777333,353 L715.361333,353 L715.361333,354.776 C716.337338,353.463993 717.617325,352.808 719.201333,352.808 Z M745.854666,350.456 L736.854666,350.456 L736.854666,356 L741.918666,356 L741.918666,357.584 L736.854666,357.584 L736.854666,363.416 L745.854666,363.416 L745.854666,365 L735.270666,365 L735.270666,348.872 L745.854666,348.872 L745.854666,350.456 Z M749.353333,365 L749.353333,347.144 L750.937333,347.144 L750.937333,365 L749.353333,365 Z M760.364,363.608 C761.436005,363.608 762.395996,363.304003 763.244,362.696 C764.092004,362.087997 764.667998,361.376004 764.972,360.56 L766.316,361.04 C765.947998,362.048005 765.232005,362.975996 764.168,363.824 C763.103994,364.672004 761.836007,365.088 760.364,365.072 C759.019993,365.072 757.792005,364.656004 756.68,363.824 C755.567994,362.991996 754.812002,361.928006 754.412,360.632 C754.251999,360.103997 754.172,359.528003 754.172,358.904 C754.172,357.175991 754.771994,355.712006 755.972,354.512 C757.172006,353.311994 758.635991,352.704 760.364,352.688 C761.932008,352.704 763.299994,353.231995 764.468,354.272 C765.636006,355.312005 766.307999,356.599992 766.484,358.136 C766.5,358.216 766.508,358.319999 766.508,358.448 L756.02,360.344 C756.292001,361.304005 756.835996,362.091997 757.652,362.708 C758.468004,363.324003 759.371995,363.624 760.364,363.608 Z M760.22,354.152 C759.019994,354.168 757.992004,354.599996 757.136,355.448 C756.279995,356.296004 755.82,357.311994 755.756,358.496 C755.756,358.544 755.76,358.627999 755.768,358.748 C755.776,358.868001 755.78,358.968 755.78,359.048 L764.708,357.44 C764.403998,356.463995 763.836004,355.668003 763.004,355.052 C762.171996,354.435997 761.244005,354.136 760.22,354.152 Z M775.358666,365.192 C773.646658,365.192 772.186672,364.588006 770.978666,363.38 C769.77066,362.171994 769.166666,360.712009 769.166666,359 C769.166666,357.287991 769.77066,355.828006 770.978666,354.62 C772.186672,353.411994 773.646658,352.808 775.358666,352.808 C776.446672,352.808 777.458662,353.075997 778.394666,353.612 C779.330671,354.148003 780.070664,354.863996 780.614666,355.76 L779.174666,356.456 C778.742664,355.799997 778.19067,355.280002 777.518666,354.896 C776.846663,354.511998 776.12667,354.32 775.358666,354.32 C774.06266,354.32 772.970671,354.771995 772.082666,355.676 C771.194662,356.580005 770.750666,357.687993 770.750666,359 C770.750666,360.312007 771.194662,361.419995 772.082666,362.324 C772.970671,363.228005 774.06266,363.68 775.358666,363.68 C776.12667,363.68 776.846663,363.488002 777.518666,363.104 C778.19067,362.719998 778.742664,362.200003 779.174666,361.544 L780.614666,362.24 C780.070664,363.136004 779.330671,363.851997 778.394666,364.388 C777.458662,364.924003 776.446672,365.192 775.358666,365.192 Z M790.809333,362.312 L791.601333,363.536 C791.505333,363.664001 791.377334,363.815999 791.217333,363.992 C791.057332,364.168001 790.697336,364.411998 790.137333,364.724 C789.57733,365.036002 789.001336,365.192 788.409333,365.192 C787.401328,365.192 786.557337,364.892003 785.877333,364.292 C785.19733,363.691997 784.857333,362.824006 784.857333,361.688 L784.857333,354.44 L782.937333,354.44 L782.937333,352.976 L784.857333,352.976 L784.857333,349.184 L786.441333,348.992 L786.441333,352.976 L790.065333,352.976 L790.065333,354.44 L786.441333,354.44 L786.441333,361.328 C786.441333,362.064004 786.669331,362.647998 787.125333,363.08 C787.581335,363.512002 788.10533,363.728 788.697333,363.728 C789.065335,363.728 789.425331,363.616001 789.777333,363.392 C790.129335,363.167999 790.389332,362.948001 790.557333,362.732 C790.725334,362.515999 790.809333,362.376 790.809333,362.312 Z M800.14,352.808 C800.988004,352.808 801.763996,353.015998 802.468,353.432 L801.916,355.016 C801.243996,354.519998 800.564003,354.272 799.876,354.272 C798.867995,354.272 798.020003,354.627996 797.332,355.34 C796.643996,356.052004 796.3,356.927995 796.3,357.968 L796.3,365 L794.716,365 L794.716,353 L796.3,353 L796.3,354.776 C797.276005,353.463993 798.555992,352.808 800.14,352.808 Z M806.902667,349.4 C806.726666,349.592001 806.502668,349.688 806.230667,349.688 C805.958665,349.688 805.730667,349.592001 805.546667,349.4 C805.362666,349.207999 805.270667,348.984001 805.270667,348.728 C805.270667,348.471999 805.362666,348.248001 805.546667,348.056 C805.730667,347.863999 805.958665,347.768 806.230667,347.768 C806.502668,347.768 806.730666,347.863999 806.914667,348.056 C807.098667,348.248001 807.190667,348.471999 807.190667,348.728 C807.190667,348.984001 807.094667,349.207999 806.902667,349.4 Z M805.438667,365 L805.438667,353 L807.022667,353 L807.022667,365 L805.438667,365 Z M816.689333,365.192 C814.977325,365.192 813.517339,364.588006 812.309333,363.38 C811.101327,362.171994 810.497333,360.712009 810.497333,359 C810.497333,357.287991 811.101327,355.828006 812.309333,354.62 C813.517339,353.411994 814.977325,352.808 816.689333,352.808 C817.777339,352.808 818.789329,353.075997 819.725333,353.612 C820.661338,354.148003 821.40133,354.863996 821.945333,355.76 L820.505333,356.456 C820.073331,355.799997 819.521337,355.280002 818.849333,354.896 C818.17733,354.511998 817.457337,354.32 816.689333,354.32 C815.393327,354.32 814.301338,354.771995 813.413333,355.676 C812.525329,356.580005 812.081333,357.687993 812.081333,359 C812.081333,360.312007 812.525329,361.419995 813.413333,362.324 C814.301338,363.228005 815.393327,363.68 816.689333,363.68 C817.457337,363.68 818.17733,363.488002 818.849333,363.104 C819.521337,362.719998 820.073331,362.200003 820.505333,361.544 L821.945333,362.24 C821.40133,363.136004 820.661338,363.851997 819.725333,364.388 C818.789329,364.924003 817.777339,365.192 816.689333,365.192 Z M841.590667,350.456 L834.246667,350.456 L834.246667,356.168 L839.310667,356.168 L839.310667,357.752 L834.246667,357.752 L834.246667,365 L832.662667,365 L832.662667,348.872 L841.590667,348.872 L841.590667,350.456 Z M845.377333,349.4 C845.201332,349.592001 844.977335,349.688 844.705333,349.688 C844.433332,349.688 844.205334,349.592001 844.021333,349.4 C843.837332,349.207999 843.745333,348.984001 843.745333,348.728 C843.745333,348.471999 843.837332,348.248001 844.021333,348.056 C844.205334,347.863999 844.433332,347.768 844.705333,347.768 C844.977335,347.768 845.205332,347.863999 845.389333,348.056 C845.573334,348.248001 845.665333,348.471999 845.665333,348.728 C845.665333,348.984001 845.569334,349.207999 845.377333,349.4 Z M843.913333,365 L843.913333,353 L845.497333,353 L845.497333,365 L843.913333,365 Z M855.164,363.608 C856.236005,363.608 857.195996,363.304003 858.044,362.696 C858.892004,362.087997 859.467998,361.376004 859.772,360.56 L861.116,361.04 C860.747998,362.048005 860.032005,362.975996 858.968,363.824 C857.903995,364.672004 856.636007,365.088 855.164,365.072 C853.819993,365.072 852.592006,364.656004 851.48,363.824 C850.367994,362.991996 849.612002,361.928006 849.212,360.632 C849.051999,360.103997 848.972,359.528003 848.972,358.904 C848.972,357.175991 849.571994,355.712006 850.772,354.512 C851.972006,353.311994 853.435991,352.704 855.164,352.688 C856.732008,352.704 858.099994,353.231995 859.268,354.272 C860.436006,355.312005 861.107999,356.599992 861.284,358.136 C861.3,358.216 861.308,358.319999 861.308,358.448 L850.82,360.344 C851.092001,361.304005 851.635996,362.091997 852.452,362.708 C853.268004,363.324003 854.171995,363.624 855.164,363.608 Z M855.02,354.152 C853.819994,354.168 852.792004,354.599996 851.936,355.448 C851.079996,356.296004 850.62,357.311994 850.556,358.496 C850.556,358.544 850.56,358.627999 850.568,358.748 C850.576,358.868001 850.58,358.968 850.58,359.048 L859.508,357.44 C859.203998,356.463995 858.636004,355.668003 857.804,355.052 C856.971996,354.435997 856.044005,354.136 855.02,354.152 Z M864.806667,365 L864.806667,347.144 L866.390667,347.144 L866.390667,365 L864.806667,365 Z M880.497333,347.144 L882.081333,347.144 L882.081333,365 L880.497333,365 L880.497333,363.056 C879.265327,364.480007 877.705343,365.192 875.817333,365.192 C874.105325,365.192 872.645339,364.588006 871.437333,363.38 C870.229327,362.171994 869.625333,360.712009 869.625333,359 C869.625333,357.287991 870.229327,355.828006 871.437333,354.62 C872.645339,353.411994 874.105325,352.808 875.817333,352.808 C877.721343,352.808 879.281327,353.519993 880.497333,354.944 L880.497333,347.144 Z M872.553333,362.336 C873.449338,363.232004 874.545327,363.68 875.841333,363.68 C877.13734,363.68 878.229329,363.228005 879.117333,362.324 C880.005338,361.419995 880.449333,360.312007 880.449333,359 C880.449333,357.687993 880.005338,356.580005 879.117333,355.676 C878.229329,354.771995 877.13734,354.32 875.841333,354.32 C874.545327,354.32 873.449338,354.771995 872.553333,355.676 C871.657329,356.580005 871.209333,357.687993 871.209333,359 C871.209333,360.312007 871.657329,361.423995 872.553333,362.336 Z" id="P-N-Junction-Electri-Copy" fill="#23ABE3"></path>
    </g>
</svg>