<?xml version="1.0" encoding="UTF-8"?>
<svg width="900px" height="300px" viewBox="0 0 900 300" version="1.1" xmlns="http://www.w3.org/2000/svg" xmlns:xlink="http://www.w3.org/1999/xlink">
    <!-- Generator: Sketch 52.5 (67469) - http://www.bohemiancoding.com/sketch -->
    <title>P-N_Junction_Electron_Diffusion</title>
    <desc>Created with Sketch.</desc>
    <g id="P-N_Junction_Electron_Diffusion" stroke="none" stroke-width="1" fill="none" fill-rule="evenodd">
        <rect id="Rectangle" stroke="#3D3530" stroke-width="2" fill="#EEEEEE" x="1" y="1" width="898" height="428"></rect>
        <g id="Illustration" transform="translate(290.000000, 27.000000)">
            <g id="Lattice-Junction">
                <g id="P-Type-Lattice" transform="translate(0.000000, 34.000000)">
                    <rect id="Rectangle" stroke="#999999" stroke-width="2" fill="#D4D4D4" x="1" y="1" width="158" height="158"></rect>
                    <circle id="Oval-Copy-3" fill="#252525" cx="20.5" cy="18.5" r="10.5"></circle>
                    <circle id="Oval-Copy-5" fill="#252525" cx="20.5" cy="58.5" r="10.5"></circle>
                    <circle id="Oval-Copy-6" fill="#252525" cx="20.5" cy="98.5" r="10.5"></circle>
                    <circle id="Oval-Copy-10" fill="#252525" cx="50.5" cy="38.5" r="10.5"></circle>
                    <circle id="Oval-Copy-8" fill="#252525" cx="50.5" cy="118.5" r="10.5"></circle>
                    <g id="Negative-Ion" transform="translate(100.000000, 28.000000)">
                        <circle id="Oval-Copy-26" fill="#84D0EF" cx="10.5" cy="10.5" r="10.5"></circle>
                        <rect id="Rectangle" fill="#524740" x="6" y="10" width="9" height="1"></rect>
                    </g>
                    <circle id="Oval-Copy-25" fill="#252525" cx="110.5" cy="78.5" r="10.5"></circle>
                    <circle id="Oval-Copy-24" fill="#252525" cx="110.5" cy="118.5" r="10.5"></circle>
                    <g id="Negative-Ion" transform="translate(40.000000, 68.000000)">
                        <circle id="Oval-Copy-9" fill="#84D0EF" cx="10.5" cy="10.5" r="10.5"></circle>
                        <rect id="Rectangle" fill="#524740" x="6" y="10" width="9" height="1"></rect>
                    </g>
                    <g id="Negative-Ion" transform="translate(10.000000, 128.000000)">
                        <circle id="Oval-Copy-7" fill="#84D0EF" cx="10.5" cy="10.5" r="10.5"></circle>
                        <rect id="Rectangle" fill="#524740" x="6" y="10" width="9" height="1"></rect>
                    </g>
                    <circle id="Oval-Copy-23" fill="#252525" cx="80.5" cy="18.5" r="10.5"></circle>
                    <circle id="Oval-Copy-22" fill="#252525" cx="80.5" cy="58.5" r="10.5"></circle>
                    <g id="Negative-Ion" transform="translate(70.000000, 88.000000)">
                        <circle id="Oval-Copy-21" fill="#84D0EF" cx="10.5" cy="10.5" r="10.5"></circle>
                        <rect id="Rectangle" fill="#524740" x="6" y="10" width="9" height="1"></rect>
                    </g>
                    <circle id="Oval-Copy-20" fill="#252525" cx="80.5" cy="138.5" r="10.5"></circle>
                    <circle id="Oval-Copy-30" fill="#252525" cx="140.5" cy="18.5" r="10.5"></circle>
                    <circle id="Oval-Copy-29" fill="#252525" cx="140.5" cy="58.5" r="10.5"></circle>
                    <circle id="Oval-Copy-28" fill="#252525" cx="140.5" cy="98.5" r="10.5"></circle>
                    <circle id="Oval-Copy-27" fill="#252525" cx="140.5" cy="138.5" r="10.5"></circle>
                    <g id="Little-Ones" transform="translate(4.000000, 8.000000)" fill="#84D0EF">
                        <circle id="Oval-Copy-31" cx="25.25" cy="68.25" r="3.25"></circle>
                        <circle id="Oval-Copy-32" cx="38.25" cy="47.25" r="3.25"></circle>
                        <circle id="Oval-Copy-33" cx="28.25" cy="19.25" r="3.25"></circle>
                        <circle id="Oval-Copy-34" cx="69.25" cy="27.25" r="3.25"></circle>
                        <circle id="Oval-Copy-35" cx="79.25" cy="67.25" r="3.25"></circle>
                        <circle id="Oval-Copy-36" cx="60.25" cy="88.25" r="3.25"></circle>
                        <circle id="Oval-Copy-37" cx="35.25" cy="99.25" r="3.25"></circle>
                        <circle id="Oval-Copy-38" cx="31.25" cy="141.25" r="3.25"></circle>
                        <circle id="Oval-Copy-39" cx="3.25" cy="108.25" r="3.25"></circle>
                        <circle id="Oval-Copy-40" cx="55.25" cy="126.25" r="3.25"></circle>
                        <circle id="Oval-Copy-41" cx="115.25" cy="126.25" r="3.25"></circle>
                        <circle id="Oval-Copy-42" cx="90.25" cy="107.25" r="3.25"></circle>
                        <circle id="Oval-Copy-43" cx="90.25" cy="137.25" r="3.25"></circle>
                        <circle id="Oval-Copy-44" cx="130.25" cy="146.25" r="3.25"></circle>
                        <circle id="Oval-Copy-45" cx="150.25" cy="96.25" r="3.25"></circle>
                        <circle id="Oval-Copy-46" cx="119.25" cy="82.25" r="3.25"></circle>
                        <circle id="Oval-Copy-47" cx="129.25" cy="37.25" r="3.25"></circle>
                        <circle id="Oval-Copy-48" cx="119.25" cy="3.25" r="3.25"></circle>
                        <circle id="Oval-Copy-49" cx="96.25" cy="18.25" r="3.25"></circle>
                    </g>
                </g>
                <g id="N-Type-Lattice" transform="translate(103.000000, 0.000000)">
                    <rect id="Rectangle" stroke="#999999" stroke-width="2" fill="#7D7570" x="56" y="35" width="158" height="158"></rect>
                    <circle id="Oval-Copy-3" fill="#252525" cx="75.5" cy="52.5" r="10.5"></circle>
                    <circle id="Oval-Copy-5" fill="#252525" cx="75.5" cy="92.5" r="10.5"></circle>
                    <circle id="Oval-Copy-6" fill="#252525" cx="75.5" cy="132.5" r="10.5"></circle>
                    <circle id="Oval-Copy-10" fill="#252525" cx="105.5" cy="72.5" r="10.5"></circle>
                    <g id="Positive-Ion" transform="translate(95.000000, 102.000000)">
                        <circle id="Oval-Copy-9" fill="#D7E465" cx="10.5" cy="10.5" r="10.5"></circle>
                        <path d="M10,10 L10,6 L11,6 L11,10 L15,10 L15,11 L11,11 L11,15 L10,15 L10,11 L6,11 L6,10 L10,10 Z" id="Combined-Shape" fill="#524740"></path>
                    </g>
                    <circle id="Oval-Copy-8" fill="#252525" cx="105.5" cy="152.5" r="10.5"></circle>
                    <g id="Positive-Ion" transform="translate(155.000000, 62.000000)">
                        <circle id="Oval-Copy-26" fill="#D7E465" cx="10.5" cy="10.5" r="10.5"></circle>
                        <path d="M10,10 L10,6 L11,6 L11,10 L15,10 L15,11 L11,11 L11,15 L10,15 L10,11 L6,11 L6,10 L10,10 Z" id="Combined-Shape" fill="#524740"></path>
                    </g>
                    <circle id="Oval-Copy-25" fill="#252525" cx="165.5" cy="112.5" r="10.5"></circle>
                    <circle id="Oval-Copy-24" fill="#252525" cx="165.5" cy="152.5" r="10.5"></circle>
                    <g id="Positive-Ion" transform="translate(65.000000, 162.000000)">
                        <circle id="Oval-Copy-7" fill="#D7E465" cx="10.5" cy="10.5" r="10.5"></circle>
                        <path d="M10,10 L10,6 L11,6 L11,10 L15,10 L15,11 L11,11 L11,15 L10,15 L10,11 L6,11 L6,10 L10,10 Z" id="Combined-Shape" fill="#524740"></path>
                    </g>
                    <circle id="Oval-Copy-23" fill="#252525" cx="135.5" cy="52.5" r="10.5"></circle>
                    <circle id="Oval-Copy-22" fill="#252525" cx="135.5" cy="92.5" r="10.5"></circle>
                    <g id="Positive-Ion" transform="translate(125.000000, 122.000000)">
                        <circle id="Oval-Copy-21" fill="#D7E465" cx="10.5" cy="10.5" r="10.5"></circle>
                        <path d="M10,10 L10,6 L11,6 L11,10 L15,10 L15,11 L11,11 L11,15 L10,15 L10,11 L6,11 L6,10 L10,10 Z" id="Combined-Shape" fill="#524740"></path>
                    </g>
                    <circle id="Oval-Copy-20" fill="#252525" cx="135.5" cy="172.5" r="10.5"></circle>
                    <circle id="Oval-Copy-30" fill="#252525" cx="195.5" cy="52.5" r="10.5"></circle>
                    <circle id="Oval-Copy-29" fill="#252525" cx="195.5" cy="92.5" r="10.5"></circle>
                    <circle id="Oval-Copy-28" fill="#252525" cx="195.5" cy="132.5" r="10.5"></circle>
                    <circle id="Oval-Copy-27" fill="#252525" cx="195.5" cy="172.5" r="10.5"></circle>
                    <g id="Little-ones" transform="translate(59.000000, 42.000000)" fill="#EF7D3B">
                        <circle id="Oval-Copy-31" cx="25.25" cy="68.25" r="3.25"></circle>
                        <circle id="Oval-Copy-32" cx="38.25" cy="47.25" r="3.25"></circle>
                        <circle id="Oval-Copy-33" cx="28.25" cy="19.25" r="3.25"></circle>
                        <circle id="Oval-Copy-34" cx="69.25" cy="27.25" r="3.25"></circle>
                        <circle id="Oval-Copy-35" cx="79.25" cy="67.25" r="3.25"></circle>
                        <circle id="Oval-Copy-36" cx="60.25" cy="88.25" r="3.25"></circle>
                        <circle id="Oval-Copy-37" cx="35.25" cy="99.25" r="3.25"></circle>
                        <circle id="Oval-Copy-38" cx="31.25" cy="141.25" r="3.25"></circle>
                        <circle id="Oval-Copy-39" cx="3.25" cy="108.25" r="3.25"></circle>
                        <circle id="Oval-Copy-40" cx="55.25" cy="126.25" r="3.25"></circle>
                        <circle id="Oval-Copy-41" cx="115.25" cy="126.25" r="3.25"></circle>
                        <circle id="Oval-Copy-42" cx="90.25" cy="107.25" r="3.25"></circle>
                        <circle id="Oval-Copy-43" cx="90.25" cy="137.25" r="3.25"></circle>
                        <circle id="Oval-Copy-44" cx="130.25" cy="146.25" r="3.25"></circle>
                        <circle id="Oval-Copy-45" cx="150.25" cy="96.25" r="3.25"></circle>
                        <circle id="Oval-Copy-46" cx="119.25" cy="82.25" r="3.25"></circle>
                        <circle id="Oval-Copy-47" cx="129.25" cy="37.25" r="3.25"></circle>
                        <circle id="Oval-Copy-48" cx="119.25" cy="3.25" r="3.25"></circle>
                        <circle id="Oval-Copy-49" cx="96.25" cy="18.25" r="3.25"></circle>
                    </g>
                    <g id="Group" transform="translate(45.000000, 132.000000)">
                        <path d="M1.71297536,1.21301067 C-1.42386297,4.29967814 2.56579826,9.98721355 7.54733679,15.477443 C12.5288753,20.9676724 18.5005466,26.7041429 22.1041712,23.4270169 C25.7077957,20.149891 20.8366098,14.3555409 15.4917809,8.46492357 C10.146952,2.57430628 4.84981368,-1.87365681 1.71297536,1.21301067 Z" id="Path-2" stroke="#EEF3BD" stroke-width="2"></path>
                        <polyline id="Path-6" stroke="#23ABE3" stroke-width="3" points="12.1545411 19.8562064 10 10.3177798 19.058558 12.5565554"></polyline>
                    </g>
                    <g id="Group-Copy" transform="translate(13.000000, 78.000000)">
                        <path d="M12.695592,10.8825368 C7.95028603,15.5519461 25.2427597,31.042079 37.9184799,45.0121831 C50.5942,58.9822872 61.1725397,72.4600808 65.8176757,68.0317226 C70.4628116,63.6033645 59.6228587,53.1646973 45.8629239,37.9996637 C32.1029892,22.8346301 17.4408981,6.21312764 12.695592,10.8825368 Z" id="Path-2" stroke="#EEF3BD" stroke-width="2" transform="translate(39.400899, 39.485455) rotate(-60.000000) translate(-39.400899, -39.485455) "></path>
                        <polyline id="Path-6" stroke="#23ABE3" stroke-width="3" transform="translate(44.529279, 38.086993) rotate(-58.000000) translate(-44.529279, -38.086993) " points="42.1545411 42.8562064 40 33.3177798 49.058558 35.5565554"></polyline>
                    </g>
                    <g id="Group-Copy-2" transform="translate(53.500000, 53.500000) rotate(27.000000) translate(-53.500000, -53.500000) translate(14.000000, 14.000000)">
                        <path d="M12.695592,10.8825368 C7.95028603,15.5519461 25.2427597,31.042079 37.9184799,45.0121831 C50.5942,58.9822872 61.1725397,72.4600808 65.8176757,68.0317226 C70.4628116,63.6033645 59.6228587,53.1646973 45.8629239,37.9996637 C32.1029892,22.8346301 17.4408981,6.21312764 12.695592,10.8825368 Z" id="Path-2" stroke="#EEF3BD" stroke-width="2" transform="translate(39.400899, 39.485455) rotate(-60.000000) translate(-39.400899, -39.485455) "></path>
                        <polyline id="Path-6" stroke="#23ABE3" stroke-width="3" transform="translate(45.529279, 40.086993) rotate(-58.000000) translate(-45.529279, -40.086993) " points="43.1545411 44.8562064 41 35.3177798 50.058558 37.5565554"></polyline>
                    </g>
                    <g id="Group-Copy-3" transform="translate(63.500000, 84.500000) rotate(22.000000) translate(-63.500000, -84.500000) translate(24.000000, 45.000000)">
                        <path d="M12.695592,10.8825368 C7.95028603,15.5519461 25.2427597,31.042079 37.9184799,45.0121831 C50.5942,58.9822872 61.1725397,72.4600808 65.8176757,68.0317226 C70.4628116,63.6033645 59.6228587,53.1646973 45.8629239,37.9996637 C32.1029892,22.8346301 17.4408981,6.21312764 12.695592,10.8825368 Z" id="Path-2" stroke="#EEF3BD" stroke-width="2" transform="translate(39.400899, 39.485455) rotate(-60.000000) translate(-39.400899, -39.485455) "></path>
                        <polyline id="Path-6" stroke="#23ABE3" stroke-width="3" transform="translate(41.623908, 38.429261) rotate(-58.000000) translate(-41.623908, -38.429261) " points="39.2491698 43.1984746 37.0946287 33.660048 46.1531867 35.8988236"></polyline>
                    </g>
                    <g id="Group-Copy-4" transform="translate(62.500000, 185.500000) rotate(7.000000) translate(-62.500000, -185.500000) translate(23.000000, 146.000000)">
                        <path d="M12.695592,10.8825368 C7.95028603,15.5519461 25.2427597,31.042079 37.9184799,45.0121831 C50.5942,58.9822872 61.1725397,72.4600808 65.8176757,68.0317226 C70.4628116,63.6033645 59.6228587,53.1646973 45.8629239,37.9996637 C32.1029892,22.8346301 17.4408981,6.21312764 12.695592,10.8825368 Z" id="Path-2" stroke="#EEF3BD" stroke-width="2" transform="translate(39.400899, 39.485455) rotate(-60.000000) translate(-39.400899, -39.485455) "></path>
                        <polyline id="Path-6" stroke="#23ABE3" stroke-width="3" transform="translate(45.529279, 40.086993) rotate(-58.000000) translate(-45.529279, -40.086993) " points="43.1545411 44.8562064 41 35.3177798 50.058558 37.5565554"></polyline>
                    </g>
                    <g id="Group-Copy-5" transform="translate(55.755288, 155.073107) rotate(-5.000000) translate(-55.755288, -155.073107) translate(8.755288, 108.573107)">
                        <path d="M14.7202493,12.1456617 C9.97494332,16.8150709 32.2976417,37.5800005 44.9733619,51.5501046 C57.649082,65.5202087 74.1524688,84.8828285 78.7976047,80.4544704 C83.4427407,76.0261123 66.6777407,59.7026188 52.9178059,44.5375852 C39.1578712,29.3725517 19.4655554,7.47625245 14.7202493,12.1456617 Z" id="Path-2" stroke="#EEF3BD" stroke-width="2" transform="translate(46.828512, 46.301945) rotate(-60.000000) translate(-46.828512, -46.301945) "></path>
                        <polyline id="Path-6" stroke="#23ABE3" stroke-width="3" transform="translate(48.370189, 48.730759) rotate(-58.000000) translate(-48.370189, -48.730759) " points="45.9954508 53.4999728 43.8409097 43.9615462 52.8994677 46.2003218"></polyline>
                    </g>
                </g>
                <path d="M55.248,2.6 C56.8640081,2.6 58.1279954,2.98399616 59.04,3.752 C59.9520046,4.52000384 60.408,5.48799416 60.408,6.656 C60.408,7.82400584 59.9520046,8.7879962 59.04,9.548 C58.1279954,10.3080038 56.8640081,10.688 55.248,10.688 L53.112,10.688 L53.112,13.688 C53.112,14.888006 53.2439987,15.6559983 53.508,15.992 C53.7720013,16.3280017 54.399995,16.496 55.392,16.496 L55.392,17 L48.912,17 L48.912,16.496 C49.904005,16.496 50.5319987,16.3280017 50.796,15.992 C51.0600013,15.6559983 51.192,14.888006 51.192,13.688 L51.192,5.888 C51.192,4.687994 51.0600013,3.92400164 50.796,3.596 C50.5319987,3.26799836 49.904005,3.104 48.912,3.104 L48.912,2.6 L55.248,2.6 Z M55.224,9.824 C56.216005,9.824 56.9719974,9.52800296 57.492,8.936 C58.0120026,8.34399704 58.272,7.58400464 58.272,6.656 C58.272,5.72799536 58.0120026,4.96800296 57.492,4.376 C56.9719974,3.78399704 56.216005,3.488 55.224,3.488 L53.112,3.488 L53.112,9.824 L55.224,9.824 Z M71.2,12.608 L64.192,12.608 L64.192,11.552 L71.2,11.552 L71.2,12.608 Z M88.376,2.6 L88.592,5.84 L88.088,5.84 L87.968,5.36 C87.775999,4.6399964 87.5200016,4.15600124 87.2,3.908 C86.8799984,3.65999876 86.2080051,3.536 85.184,3.536 L82.04,3.536 L82.04,13.688 C82.04,14.888006 82.1759986,15.6559983 82.448,15.992 C82.7200014,16.3280017 83.351995,16.496 84.344,16.496 L84.344,17 L77.84,17 L77.84,16.496 C78.832005,16.496 79.4639986,16.3280017 79.736,15.992 C80.0080014,15.6559983 80.144,14.888006 80.144,13.688 L80.144,3.536 L77,3.536 C75.9759949,3.536 75.3040016,3.65999876 74.984,3.908 C74.6639984,4.15600124 74.408001,4.6399964 74.216,5.36 L74.096,5.84 L73.592,5.84 L73.808,2.6 L88.376,2.6 Z M89.544,22.688 C89.544,22.4319987 89.639999,22.204001 89.832,22.004 C90.024001,21.803999 90.2759984,21.5320017 90.588,21.188 C90.9000016,20.8439983 91.159999,20.4080026 91.368,19.88 L92.568,16.88 L89.808,10.904 C89.5519987,10.3599973 89.3120011,9.988001 89.088,9.788 C88.8639989,9.587999 88.5680018,9.488 88.2,9.488 L88.2,9.008 L92.448,9.008 L92.448,9.488 C91.9039973,9.488 91.5760006,9.57599912 91.464,9.752 C91.3519994,9.92800088 91.4239987,10.311997 91.68,10.904 L93.432,14.744 L94.968,10.904 C95.1920011,10.3599973 95.2560005,9.988001 95.16,9.788 C95.0639995,9.587999 94.7680025,9.488 94.272,9.488 L94.272,9.008 L97.632,9.008 L97.632,9.488 C96.8799962,9.488 96.3120019,9.95999528 95.928,10.904 L91.248,22.592 C91.0079988,23.184003 90.7120018,23.48 90.36,23.48 C90.151999,23.48 89.9640008,23.4160006 89.796,23.288 C89.6279992,23.1599994 89.544,22.9600014 89.544,22.688 Z M106.864,15.488 C107.328002,14.8319967 107.56,14.000005 107.56,12.992 C107.56,11.983995 107.328002,11.1600032 106.864,10.52 C106.399998,9.8799968 105.728004,9.56 104.848,9.56 C104.303997,9.56 103.820002,9.72799832 103.396,10.064 C102.971998,10.4000017 102.640001,10.8559971 102.4,11.432 L102.4,14.528 C102.640001,15.120003 102.971998,15.5879983 103.396,15.932 C103.820002,16.2760017 104.303997,16.448 104.848,16.448 C105.728004,16.448 106.399998,16.1280032 106.864,15.488 Z M102.4,19.712 C102.4,20.8960059 102.515999,21.6559983 102.748,21.992 C102.980001,22.3280017 103.495996,22.496 104.296,22.496 L104.296,23 L98.8,23 L98.8,22.496 C99.600004,22.496 100.115999,22.3320016 100.348,22.004 C100.580001,21.6759984 100.696,20.912006 100.696,19.712 L100.696,12.488 C100.696,11.287994 100.580001,10.5240016 100.348,10.196 C100.115999,9.86799836 99.600004,9.704 98.8,9.704 L98.8,9.2 L102.016,8.6 C102.112,8.77600088 102.231999,9.263996 102.376,10.064 C103.192004,9.08799512 104.183994,8.6 105.352,8.6 C106.488006,8.6 107.463996,9.02799572 108.28,9.884 C109.096004,10.7400043 109.504,11.7759939 109.504,12.992 C109.504,14.2080061 109.096004,15.2479957 108.28,16.112 C107.463996,16.9760043 106.488006,17.408 105.352,17.408 C104.167994,17.408 103.184004,16.9280048 102.4,15.968 L102.4,19.712 Z M114.872,11.504 L118.856,11.504 C119.016001,11.0559978 118.948001,10.6200021 118.652,10.196 C118.355999,9.77199788 117.848004,9.56 117.128,9.56 C116.615997,9.56 116.156002,9.73599824 115.748,10.088 C115.339998,10.4400018 115.048001,10.911997 114.872,11.504 Z M114.728,12.392 C114.583999,13.5760059 114.771997,14.5399963 115.292,15.284 C115.812003,16.0280037 116.663994,16.4 117.848,16.4 C118.248002,16.4 118.703997,16.296001 119.216,16.088 C119.728003,15.879999 120.151998,15.6160016 120.488,15.296 L120.92,15.824 C120.487998,16.2880023 119.936003,16.6679985 119.264,16.964 C118.591997,17.2600015 117.920003,17.408 117.248,17.408 C115.951994,17.408 114.888004,16.9800043 114.056,16.124 C113.223996,15.2679957 112.808,14.2240062 112.808,12.992 C112.808,11.7599938 113.259995,10.7200042 114.164,9.872 C115.068005,9.02399576 116.095994,8.6 117.248,8.6 C118.336005,8.6 119.223997,8.9799962 119.912,9.74 C120.600003,10.5000038 120.800001,11.383995 120.512,12.392 L114.728,12.392 Z" id="P-Type-Copy" fill="#524740"></path>
                <path d="M208.512,14.024 L208.512,5.888 C208.512,4.687994 208.380001,3.92400164 208.116,3.596 C207.851999,3.26799836 207.224005,3.104 206.232,3.104 L206.232,2.6 L211.704,2.6 L211.704,3.104 C210.711995,3.104 210.080001,3.26799836 209.808,3.596 C209.535999,3.92400164 209.4,4.687994 209.4,5.888 L209.4,17.408 L208.848,17.408 L199.08,5.336 L199.08,13.688 C199.08,14.888006 199.215999,15.6559983 199.488,15.992 C199.760001,16.3280017 200.391995,16.496 201.384,16.496 L201.384,17 L195.912,17 L195.912,16.496 C196.904005,16.496 197.531999,16.3280017 197.796,15.992 C198.060001,15.6559983 198.192,14.888006 198.192,13.688 L198.192,5.888 C198.192,4.687994 198.060001,3.92400164 197.796,3.596 C197.531999,3.26799836 196.904005,3.104 195.912,3.104 L195.912,2.6 L199.296,2.6 L208.512,14.024 Z M222.4,12.608 L215.392,12.608 L215.392,11.552 L222.4,11.552 L222.4,12.608 Z M239.576,2.6 L239.792,5.84 L239.288,5.84 L239.168,5.36 C238.975999,4.6399964 238.720002,4.15600124 238.4,3.908 C238.079998,3.65999876 237.408005,3.536 236.384,3.536 L233.24,3.536 L233.24,13.688 C233.24,14.888006 233.375999,15.6559983 233.648,15.992 C233.920001,16.3280017 234.551995,16.496 235.544,16.496 L235.544,17 L229.04,17 L229.04,16.496 C230.032005,16.496 230.663999,16.3280017 230.936,15.992 C231.208001,15.6559983 231.344,14.888006 231.344,13.688 L231.344,3.536 L228.2,3.536 C227.175995,3.536 226.504002,3.65999876 226.184,3.908 C225.863998,4.15600124 225.608001,4.6399964 225.416,5.36 L225.296,5.84 L224.792,5.84 L225.008,2.6 L239.576,2.6 Z M240.744,22.688 C240.744,22.4319987 240.839999,22.204001 241.032,22.004 C241.224001,21.803999 241.475998,21.5320017 241.788,21.188 C242.100002,20.8439983 242.359999,20.4080026 242.568,19.88 L243.768,16.88 L241.008,10.904 C240.751999,10.3599973 240.512001,9.988001 240.288,9.788 C240.063999,9.587999 239.768002,9.488 239.4,9.488 L239.4,9.008 L243.648,9.008 L243.648,9.488 C243.103997,9.488 242.776001,9.57599912 242.664,9.752 C242.551999,9.92800088 242.623999,10.311997 242.88,10.904 L244.632,14.744 L246.168,10.904 C246.392001,10.3599973 246.456,9.988001 246.36,9.788 C246.264,9.587999 245.968002,9.488 245.472,9.488 L245.472,9.008 L248.832,9.008 L248.832,9.488 C248.079996,9.488 247.512002,9.95999528 247.128,10.904 L242.448,22.592 C242.207999,23.184003 241.912002,23.48 241.56,23.48 C241.351999,23.48 241.164001,23.4160006 240.996,23.288 C240.827999,23.1599994 240.744,22.9600014 240.744,22.688 Z M258.064,15.488 C258.528002,14.8319967 258.76,14.000005 258.76,12.992 C258.76,11.983995 258.528002,11.1600032 258.064,10.52 C257.599998,9.8799968 256.928004,9.56 256.048,9.56 C255.503997,9.56 255.020002,9.72799832 254.596,10.064 C254.171998,10.4000017 253.840001,10.8559971 253.6,11.432 L253.6,14.528 C253.840001,15.120003 254.171998,15.5879983 254.596,15.932 C255.020002,16.2760017 255.503997,16.448 256.048,16.448 C256.928004,16.448 257.599998,16.1280032 258.064,15.488 Z M253.6,19.712 C253.6,20.8960059 253.715999,21.6559983 253.948,21.992 C254.180001,22.3280017 254.695996,22.496 255.496,22.496 L255.496,23 L250,23 L250,22.496 C250.800004,22.496 251.315999,22.3320016 251.548,22.004 C251.780001,21.6759984 251.896,20.912006 251.896,19.712 L251.896,12.488 C251.896,11.287994 251.780001,10.5240016 251.548,10.196 C251.315999,9.86799836 250.800004,9.704 250,9.704 L250,9.2 L253.216,8.6 C253.312,8.77600088 253.431999,9.263996 253.576,10.064 C254.392004,9.08799512 255.383994,8.6 256.552,8.6 C257.688006,8.6 258.663996,9.02799572 259.48,9.884 C260.296004,10.7400043 260.704,11.7759939 260.704,12.992 C260.704,14.2080061 260.296004,15.2479957 259.48,16.112 C258.663996,16.9760043 257.688006,17.408 256.552,17.408 C255.367994,17.408 254.384004,16.9280048 253.6,15.968 L253.6,19.712 Z M266.072,11.504 L270.056,11.504 C270.216001,11.0559978 270.148001,10.6200021 269.852,10.196 C269.555999,9.77199788 269.048004,9.56 268.328,9.56 C267.815997,9.56 267.356002,9.73599824 266.948,10.088 C266.539998,10.4400018 266.248001,10.911997 266.072,11.504 Z M265.928,12.392 C265.783999,13.5760059 265.971997,14.5399963 266.492,15.284 C267.012003,16.0280037 267.863994,16.4 269.048,16.4 C269.448002,16.4 269.903997,16.296001 270.416,16.088 C270.928003,15.879999 271.351998,15.6160016 271.688,15.296 L272.12,15.824 C271.687998,16.2880023 271.136003,16.6679985 270.464,16.964 C269.791997,17.2600015 269.120003,17.408 268.448,17.408 C267.151994,17.408 266.088004,16.9800043 265.256,16.124 C264.423996,15.2679957 264.008,14.2240062 264.008,12.992 C264.008,11.7599938 264.459995,10.7200042 265.364,9.872 C266.268005,9.02399576 267.295994,8.6 268.448,8.6 C269.536005,8.6 270.423997,8.9799962 271.112,9.74 C271.800003,10.5000038 272.000001,11.383995 271.712,12.392 L265.928,12.392 Z" id="N-Type-Copy" fill="#524740"></path>
            </g>
        </g>
        <rect id="Rectangle-Copy" stroke="#3D3530" stroke-width="2" fill="#F8FAE4" x="1" y="256" width="898" height="43"></rect>
        <path d="M524.165333,285 L524.165333,268.872 L529.637333,268.872 C531.445342,268.872 532.885327,269.347995 533.957333,270.3 C535.029338,271.252005 535.565333,272.447993 535.565333,273.888 C535.565333,275.312007 535.029338,276.503995 533.957333,277.464 C532.885327,278.424005 531.445342,278.904 529.637333,278.904 L525.749333,278.904 L525.749333,285 L524.165333,285 Z M525.749333,277.392 L529.637333,277.392 C530.933339,277.392 531.973329,277.060003 532.757333,276.396 C533.541337,275.731997 533.933333,274.896005 533.933333,273.888 C533.933333,272.895995 533.541337,272.064003 532.757333,271.392 C531.973329,270.719997 530.933339,270.384 529.637333,270.384 L525.749333,270.384 L525.749333,277.392 Z M545.087999,277.656 L538.631999,277.656 L538.631999,276.216 L545.087999,276.216 L545.087999,277.656 Z M559.266666,268.872 L560.850666,268.872 L560.850666,285 L559.218666,285 L550.218666,271.296 L550.218666,285 L548.634666,285 L548.634666,268.872 L550.242666,268.872 L559.266666,282.6 L559.266666,268.872 Z M575.767999,285.192 C574.695994,285.192 573.784003,284.848003 573.031999,284.16 C572.279996,283.471997 571.792001,282.688004 571.567999,281.808 L572.959999,281.304 C573.104,281.928003 573.419997,282.483998 573.907999,282.972 C574.396002,283.460002 574.983996,283.704 575.671999,283.704 C576.536004,283.704 577.179997,283.448003 577.603999,282.936 C578.028002,282.423997 578.239999,281.800004 578.239999,281.064 L578.239999,268.968 L579.823999,268.968 L579.823999,280.968 C579.823999,282.200006 579.472003,283.211996 578.767999,284.004 C578.063996,284.796004 577.064006,285.192 575.767999,285.192 Z M592.562666,273 L594.146666,273 L594.146666,285 L592.562666,285 L592.562666,283.224 C591.586661,284.536007 590.306674,285.192 588.722666,285.192 C587.330659,285.192 586.162671,284.700005 585.218666,283.716 C584.274661,282.731995 583.802666,281.520007 583.802666,280.08 L583.802666,273 L585.434666,273 L585.434666,280.032 C585.434666,281.056005 585.778663,281.923996 586.466666,282.636 C587.15467,283.348004 587.994661,283.704 588.986666,283.704 C589.994671,283.704 590.842663,283.348004 591.530666,282.636 C592.21867,281.923996 592.562666,281.056005 592.562666,280.032 L592.562666,273 Z M603.525333,272.808 C604.91734,272.808 606.085328,273.299995 607.029333,274.284 C607.973338,275.268005 608.445333,276.479993 608.445333,277.92 L608.445333,285 L606.837333,285 L606.837333,277.968 C606.837333,276.943995 606.489336,276.072004 605.793333,275.352 C605.097329,274.631996 604.253338,274.272 603.261333,274.272 C602.269328,274.272 601.425336,274.631996 600.729333,275.352 C600.033329,276.072004 599.685333,276.943995 599.685333,277.968 L599.685333,285 L598.101333,285 L598.101333,273 L599.685333,273 L599.685333,274.776 C600.661338,273.463993 601.941325,272.808 603.525333,272.808 Z M617.56,285.192 C615.847991,285.192 614.388006,284.588006 613.18,283.38 C611.971993,282.171994 611.368,280.712009 611.368,279 C611.368,277.287991 611.971993,275.828006 613.18,274.62 C614.388006,273.411994 615.847991,272.808 617.56,272.808 C618.648005,272.808 619.659995,273.075997 620.596,273.612 C621.532004,274.148003 622.271997,274.863996 622.816,275.76 L621.376,276.456 C620.943997,275.799997 620.392003,275.280002 619.72,274.896 C619.047996,274.511998 618.328003,274.32 617.56,274.32 C616.263993,274.32 615.172004,274.771995 614.284,275.676 C613.395995,276.580005 612.952,277.687993 612.952,279 C612.952,280.312007 613.395995,281.419995 614.284,282.324 C615.172004,283.228005 616.263993,283.68 617.56,283.68 C618.328003,283.68 619.047996,283.488002 619.72,283.104 C620.392003,282.719998 620.943997,282.200003 621.376,281.544 L622.816,282.24 C622.271997,283.136004 621.532004,283.851997 620.596,284.388 C619.659995,284.924003 618.648005,285.192 617.56,285.192 Z M633.010666,282.312 L633.802666,283.536 C633.706666,283.664001 633.578667,283.815999 633.418666,283.992 C633.258665,284.168001 632.898669,284.411998 632.338666,284.724 C631.778663,285.036002 631.202669,285.192 630.610666,285.192 C629.602661,285.192 628.75867,284.892003 628.078666,284.292 C627.398663,283.691997 627.058666,282.824006 627.058666,281.688 L627.058666,274.44 L625.138666,274.44 L625.138666,272.976 L627.058666,272.976 L627.058666,269.184 L628.642666,268.992 L628.642666,272.976 L632.266666,272.976 L632.266666,274.44 L628.642666,274.44 L628.642666,281.328 C628.642666,282.064004 628.870664,282.647998 629.326666,283.08 C629.782668,283.512002 630.306663,283.728 630.898666,283.728 C631.266668,283.728 631.626664,283.616001 631.978666,283.392 C632.330668,283.167999 632.590665,282.948001 632.758666,282.732 C632.926667,282.515999 633.010666,282.376 633.010666,282.312 Z M638.237333,269.4 C638.061332,269.592001 637.837334,269.688 637.565333,269.688 C637.293332,269.688 637.065334,269.592001 636.881333,269.4 C636.697332,269.207999 636.605333,268.984001 636.605333,268.728 C636.605333,268.471999 636.697332,268.248001 636.881333,268.056 C637.065334,267.863999 637.293332,267.768 637.565333,267.768 C637.837334,267.768 638.065332,267.863999 638.249333,268.056 C638.433334,268.248001 638.525333,268.471999 638.525333,268.728 C638.525333,268.984001 638.429334,269.207999 638.237333,269.4 Z M636.773333,285 L636.773333,273 L638.357333,273 L638.357333,285 L636.773333,285 Z M652.392,283.368 C651.191994,284.584006 649.736008,285.192 648.024,285.192 C646.311991,285.192 644.852006,284.588006 643.644,283.38 C642.435994,282.171994 641.832,280.712009 641.832,279 C641.832,277.287991 642.435994,275.828006 643.644,274.62 C644.852006,273.411994 646.311991,272.808 648.024,272.808 C649.736008,272.808 651.195994,273.411994 652.404,274.62 C653.612006,275.828006 654.216,277.287991 654.216,279 C654.216,280.696008 653.608006,282.151994 652.392,283.368 Z M648.048,283.68 C649.344006,283.68 650.435995,283.228005 651.324,282.324 C652.212004,281.419995 652.656,280.312007 652.656,279 C652.656,277.687993 652.212004,276.576005 651.324,275.664 C650.435995,274.751995 649.344006,274.296 648.048,274.296 C646.767993,274.296 645.680004,274.751995 644.784,275.664 C643.887995,276.576005 643.44,277.687993 643.44,279 C643.44,280.312007 643.887995,281.419995 644.784,282.324 C645.680004,283.228005 646.767993,283.68 648.048,283.68 Z M662.682666,272.808 C664.074673,272.808 665.242662,273.299995 666.186666,274.284 C667.130671,275.268005 667.602666,276.479993 667.602666,277.92 L667.602666,285 L665.994666,285 L665.994666,277.968 C665.994666,276.943995 665.64667,276.072004 664.950666,275.352 C664.254663,274.631996 663.410671,274.272 662.418666,274.272 C661.426661,274.272 660.58267,274.631996 659.886666,275.352 C659.190663,276.072004 658.842666,276.943995 658.842666,277.968 L658.842666,285 L657.258666,285 L657.258666,273 L658.842666,273 L658.842666,274.776 C659.818671,273.463993 661.098658,272.808 662.682666,272.808 Z M689.336,270.456 L680.336,270.456 L680.336,276 L685.4,276 L685.4,277.584 L680.336,277.584 L680.336,283.416 L689.336,283.416 L689.336,285 L678.752,285 L678.752,268.872 L689.336,268.872 L689.336,270.456 Z M692.834666,285 L692.834666,267.144 L694.418666,267.144 L694.418666,285 L692.834666,285 Z M703.845333,283.608 C704.917338,283.608 705.877329,283.304003 706.725333,282.696 C707.573337,282.087997 708.149331,281.376004 708.453333,280.56 L709.797333,281.04 C709.429331,282.048005 708.713338,282.975996 707.649333,283.824 C706.585328,284.672004 705.31734,285.088 703.845333,285.072 C702.501326,285.072 701.273339,284.656004 700.161333,283.824 C699.049327,282.991996 698.293335,281.928006 697.893333,280.632 C697.733332,280.103997 697.653333,279.528003 697.653333,278.904 C697.653333,277.175991 698.253327,275.712006 699.453333,274.512 C700.653339,273.311994 702.117324,272.704 703.845333,272.688 C705.413341,272.704 706.781327,273.231995 707.949333,274.272 C709.117339,275.312005 709.789332,276.599992 709.965333,278.136 C709.981333,278.216 709.989333,278.319999 709.989333,278.448 L699.501333,280.344 C699.773334,281.304005 700.317329,282.091997 701.133333,282.708 C701.949337,283.324003 702.853328,283.624 703.845333,283.608 Z M703.701333,274.152 C702.501327,274.168 701.473337,274.599996 700.617333,275.448 C699.761329,276.296004 699.301333,277.311994 699.237333,278.496 C699.237333,278.544 699.241333,278.627999 699.249333,278.748 C699.257333,278.868001 699.261333,278.968 699.261333,279.048 L708.189333,277.44 C707.885331,276.463995 707.317337,275.668003 706.485333,275.052 C705.653329,274.435997 704.725338,274.136 703.701333,274.152 Z M718.84,285.192 C717.127991,285.192 715.668006,284.588006 714.46,283.38 C713.251994,282.171994 712.648,280.712009 712.648,279 C712.648,277.287991 713.251994,275.828006 714.46,274.62 C715.668006,273.411994 717.127991,272.808 718.84,272.808 C719.928005,272.808 720.939995,273.075997 721.876,273.612 C722.812004,274.148003 723.551997,274.863996 724.096,275.76 L722.656,276.456 C722.223998,275.799997 721.672003,275.280002 721,274.896 C720.327996,274.511998 719.608004,274.32 718.84,274.32 C717.543993,274.32 716.452004,274.771995 715.564,275.676 C714.675995,276.580005 714.232,277.687993 714.232,279 C714.232,280.312007 714.675995,281.419995 715.564,282.324 C716.452004,283.228005 717.543993,283.68 718.84,283.68 C719.608004,283.68 720.327996,283.488002 721,283.104 C721.672003,282.719998 722.223998,282.200003 722.656,281.544 L724.096,282.24 C723.551997,283.136004 722.812004,283.851997 721.876,284.388 C720.939995,284.924003 719.928005,285.192 718.84,285.192 Z M734.290666,282.312 L735.082666,283.536 C734.986666,283.664001 734.858667,283.815999 734.698666,283.992 C734.538666,284.168001 734.178669,284.411998 733.618666,284.724 C733.058664,285.036002 732.482669,285.192 731.890666,285.192 C730.882661,285.192 730.03867,284.892003 729.358666,284.292 C728.678663,283.691997 728.338666,282.824006 728.338666,281.688 L728.338666,274.44 L726.418666,274.44 L726.418666,272.976 L728.338666,272.976 L728.338666,269.184 L729.922666,268.992 L729.922666,272.976 L733.546666,272.976 L733.546666,274.44 L729.922666,274.44 L729.922666,281.328 C729.922666,282.064004 730.150664,282.647998 730.606666,283.08 C731.062669,283.512002 731.586663,283.728 732.178666,283.728 C732.546668,283.728 732.906665,283.616001 733.258666,283.392 C733.610668,283.167999 733.870666,282.948001 734.038666,282.732 C734.206667,282.515999 734.290666,282.376 734.290666,282.312 Z M743.621333,272.808 C744.469337,272.808 745.24533,273.015998 745.949333,273.432 L745.397333,275.016 C744.72533,274.519998 744.045337,274.272 743.357333,274.272 C742.349328,274.272 741.501337,274.627996 740.813333,275.34 C740.12533,276.052004 739.781333,276.927995 739.781333,277.968 L739.781333,285 L738.197333,285 L738.197333,273 L739.781333,273 L739.781333,274.776 C740.757338,273.463993 742.037325,272.808 743.621333,272.808 Z M757.632,283.368 C756.431994,284.584006 754.976008,285.192 753.264,285.192 C751.551991,285.192 750.092006,284.588006 748.884,283.38 C747.675994,282.171994 747.072,280.712009 747.072,279 C747.072,277.287991 747.675994,275.828006 748.884,274.62 C750.092006,273.411994 751.551991,272.808 753.264,272.808 C754.976008,272.808 756.435994,273.411994 757.644,274.62 C758.852006,275.828006 759.456,277.287991 759.456,279 C759.456,280.696008 758.848006,282.151994 757.632,283.368 Z M753.288,283.68 C754.584006,283.68 755.675995,283.228005 756.564,282.324 C757.452004,281.419995 757.896,280.312007 757.896,279 C757.896,277.687993 757.452004,276.576005 756.564,275.664 C755.675995,274.751995 754.584006,274.296 753.288,274.296 C752.007993,274.296 750.920004,274.751995 750.024,275.664 C749.127995,276.576005 748.68,277.687993 748.68,279 C748.68,280.312007 749.127995,281.419995 750.024,282.324 C750.920004,283.228005 752.007993,283.68 753.288,283.68 Z M767.922666,272.808 C769.314673,272.808 770.482662,273.299995 771.426666,274.284 C772.370671,275.268005 772.842666,276.479993 772.842666,277.92 L772.842666,285 L771.234666,285 L771.234666,277.968 C771.234666,276.943995 770.88667,276.072004 770.190666,275.352 C769.494663,274.631996 768.650671,274.272 767.658666,274.272 C766.666661,274.272 765.82267,274.631996 765.126666,275.352 C764.430663,276.072004 764.082666,276.943995 764.082666,277.968 L764.082666,285 L762.498666,285 L762.498666,273 L764.082666,273 L764.082666,274.776 C765.058671,273.463993 766.338659,272.808 767.922666,272.808 Z M783.992,285 L783.992,268.872 L787.64,268.872 C790.296013,268.872 792.407992,269.639992 793.976,271.176 C795.544008,272.712008 796.328,274.631988 796.328,276.936 C796.328,279.224011 795.540008,281.139992 793.964,282.684 C792.387992,284.228008 790.280013,285 787.64,285 L783.992,285 Z M785.576,283.488 L787.64,283.488 C789.75201,283.488 791.439994,282.868006 792.704,281.628 C793.968006,280.387994 794.6,278.824009 794.6,276.936 C794.6,275.047991 793.968006,273.484006 792.704,272.244 C791.439994,271.003994 789.75201,270.384 787.64,270.384 L785.576,270.384 L785.576,283.488 Z M801.434667,269.4 C801.258666,269.592001 801.034668,269.688 800.762667,269.688 C800.490665,269.688 800.262667,269.592001 800.078667,269.4 C799.894666,269.207999 799.802667,268.984001 799.802667,268.728 C799.802667,268.471999 799.894666,268.248001 800.078667,268.056 C800.262667,267.863999 800.490665,267.768 800.762667,267.768 C801.034668,267.768 801.262666,267.863999 801.446667,268.056 C801.630667,268.248001 801.722667,268.471999 801.722667,268.728 C801.722667,268.984001 801.626667,269.207999 801.434667,269.4 Z M799.970667,285 L799.970667,273 L801.554667,273 L801.554667,285 L799.970667,285 Z M810.357333,272.952 L810.357333,274.272 L808.005333,274.272 L808.005333,285 L806.445333,285 L806.445333,274.272 L805.029333,274.272 L805.029333,272.952 L806.445333,272.952 L806.445333,269.472 C806.445333,267.807992 807.101327,266.976 808.413333,266.976 C808.701335,266.976 808.993332,267 809.289333,267.048 C809.585335,267.096 809.805332,267.144 809.949333,267.192 L810.165333,267.264 L809.829333,268.488 C809.509332,268.408 809.189335,268.368 808.869333,268.368 C808.517331,268.368 808.285334,268.483999 808.173333,268.716 C808.061333,268.948001 808.005333,269.391997 808.005333,270.048 L808.005333,272.952 L810.357333,272.952 Z M818.224,272.952 L818.224,274.272 L815.872,274.272 L815.872,285 L814.312,285 L814.312,274.272 L812.896,274.272 L812.896,272.952 L814.312,272.952 L814.312,269.472 C814.312,267.807992 814.967993,266.976 816.28,266.976 C816.568001,266.976 816.859998,267 817.156,267.048 C817.452001,267.096 817.671999,267.144 817.816,267.192 L818.032,267.264 L817.696,268.488 C817.375998,268.408 817.056001,268.368 816.736,268.368 C816.383998,268.368 816.152,268.483999 816.04,268.716 C815.927999,268.948001 815.872,269.391997 815.872,270.048 L815.872,272.952 L818.224,272.952 Z M830.194667,273 L831.778667,273 L831.778667,285 L830.194667,285 L830.194667,283.224 C829.218662,284.536007 827.938674,285.192 826.354667,285.192 C824.96266,285.192 823.794671,284.700005 822.850667,283.716 C821.906662,282.731995 821.434667,281.520007 821.434667,280.08 L821.434667,273 L823.066667,273 L823.066667,280.032 C823.066667,281.056005 823.410663,281.923996 824.098667,282.636 C824.78667,283.348004 825.626662,283.704 826.618667,283.704 C827.626672,283.704 828.474663,283.348004 829.162667,282.636 C829.85067,281.923996 830.194667,281.056005 830.194667,280.032 L830.194667,273 Z M839.957333,285.192 C839.413331,285.192 838.885336,285.124001 838.373333,284.988 C837.861331,284.851999 837.433335,284.692001 837.089333,284.508 C836.745332,284.323999 836.437335,284.136001 836.165333,283.944 C835.893332,283.751999 835.693334,283.592001 835.565333,283.464 L835.373333,283.248 L836.501333,282.288 C836.613334,282.400001 836.769332,282.535999 836.969333,282.696 C837.169334,282.856001 837.57333,283.071999 838.181333,283.344 C838.789336,283.616001 839.38933,283.752 839.981333,283.752 C840.861338,283.752 841.565331,283.584002 842.093333,283.248 C842.621336,282.911998 842.885333,282.440003 842.885333,281.832 C842.885333,281.399998 842.621336,281.028002 842.093333,280.716 C841.565331,280.403998 840.925337,280.136001 840.173333,279.912 C839.421329,279.687999 838.665337,279.440001 837.905333,279.168 C837.145329,278.895999 836.501336,278.512002 835.973333,278.016 C835.445331,277.519998 835.181333,276.912004 835.181333,276.192 C835.181333,275.199995 835.55333,274.388003 836.297333,273.756 C837.041337,273.123997 838.141326,272.808 839.597333,272.808 C840.461338,272.808 841.277329,272.967998 842.045333,273.288 C842.813337,273.608002 843.365332,273.927998 843.701333,274.248 L844.205333,274.728 L843.077333,275.712 C842.965333,275.599999 842.809334,275.464001 842.609333,275.304 C842.409332,275.143999 842.005336,274.928001 841.397333,274.656 C840.78933,274.383999 840.181336,274.248 839.573333,274.248 C838.709329,274.248 838.009336,274.415998 837.473333,274.752 C836.937331,275.088002 836.669333,275.559997 836.669333,276.168 C836.669333,276.600002 836.933331,276.971998 837.461333,277.284 C837.989336,277.596002 838.629329,277.863999 839.381333,278.088 C840.133337,278.312001 840.889329,278.555999 841.649333,278.82 C842.409337,279.084001 843.053331,279.467997 843.581333,279.972 C844.109336,280.476003 844.373333,281.087996 844.373333,281.808 C844.373333,282.816005 844.005337,283.631997 843.269333,284.256 C842.53333,284.880003 841.429341,285.192 839.957333,285.192 Z M849.408,269.4 C849.231999,269.592001 849.008001,269.688 848.736,269.688 C848.463999,269.688 848.236001,269.592001 848.052,269.4 C847.867999,269.207999 847.776,268.984001 847.776,268.728 C847.776,268.471999 847.867999,268.248001 848.052,268.056 C848.236001,267.863999 848.463999,267.768 848.736,267.768 C849.008001,267.768 849.235999,267.863999 849.42,268.056 C849.604001,268.248001 849.696,268.471999 849.696,268.728 C849.696,268.984001 849.600001,269.207999 849.408,269.4 Z M847.944,285 L847.944,273 L849.528,273 L849.528,285 L847.944,285 Z M863.562667,283.368 C862.362661,284.584006 860.906675,285.192 859.194667,285.192 C857.482658,285.192 856.022673,284.588006 854.814667,283.38 C853.606661,282.171994 853.002667,280.712009 853.002667,279 C853.002667,277.287991 853.606661,275.828006 854.814667,274.62 C856.022673,273.411994 857.482658,272.808 859.194667,272.808 C860.906675,272.808 862.366661,273.411994 863.574667,274.62 C864.782673,275.828006 865.386667,277.287991 865.386667,279 C865.386667,280.696008 864.778673,282.151994 863.562667,283.368 Z M859.218667,283.68 C860.514673,283.68 861.606662,283.228005 862.494667,282.324 C863.382671,281.419995 863.826667,280.312007 863.826667,279 C863.826667,277.687993 863.382671,276.576005 862.494667,275.664 C861.606662,274.751995 860.514673,274.296 859.218667,274.296 C857.93866,274.296 856.850671,274.751995 855.954667,275.664 C855.058662,276.576005 854.610667,277.687993 854.610667,279 C854.610667,280.312007 855.058662,281.419995 855.954667,282.324 C856.850671,283.228005 857.93866,283.68 859.218667,283.68 Z M873.853333,272.808 C875.24534,272.808 876.413329,273.299995 877.357333,274.284 C878.301338,275.268005 878.773333,276.479993 878.773333,277.92 L878.773333,285 L877.165333,285 L877.165333,277.968 C877.165333,276.943995 876.817337,276.072004 876.121333,275.352 C875.42533,274.631996 874.581338,274.272 873.589333,274.272 C872.597328,274.272 871.753337,274.631996 871.057333,275.352 C870.36133,276.072004 870.013333,276.943995 870.013333,277.968 L870.013333,285 L868.429333,285 L868.429333,273 L870.013333,273 L870.013333,274.776 C870.989338,273.463993 872.269325,272.808 873.853333,272.808 Z" id="P-N-Junction-Electro-Copy" fill="#23ABE3"></path>
    </g>
</svg>