<?xml version="1.0" encoding="UTF-8"?>
<svg width="900px" height="400px" viewBox="0 0 900 400" version="1.1" xmlns="http://www.w3.org/2000/svg" xmlns:xlink="http://www.w3.org/1999/xlink">
    <!-- Generator: Sketch 52.5 (67469) - http://www.bohemiancoding.com/sketch -->
    <title>P-N_Junction_Electric_Field</title>
    <desc>Created with Sketch.</desc>
    <g id="P-N_Junction_Electric_Field" stroke="none" stroke-width="1" fill="none" fill-rule="evenodd">
        <rect id="Rectangle" stroke="#3D3530" stroke-width="2" fill="#EEEEEE" x="1" y="1" width="898" height="428"></rect>
        <g id="Illustration" transform="translate(290.000000, 25.000000)">
            <g id="Lattice-Junction">
                <g id="P-Type-Lattice" transform="translate(0.000000, 36.000000)">
                    <rect id="Rectangle" stroke="#999999" stroke-width="2" fill="#D4D4D4" x="1" y="1" width="158" height="158"></rect>
                    <circle id="Oval-Copy-3" fill="#252525" cx="20.5" cy="18.5" r="10.5"></circle>
                    <circle id="Oval-Copy-5" fill="#252525" cx="20.5" cy="58.5" r="10.5"></circle>
                    <circle id="Oval-Copy-6" fill="#252525" cx="20.5" cy="98.5" r="10.5"></circle>
                    <circle id="Oval-Copy-10" fill="#252525" cx="50.5" cy="38.5" r="10.5"></circle>
                    <circle id="Oval-Copy-8" fill="#252525" cx="50.5" cy="118.5" r="10.5"></circle>
                    <g id="Negative-Ion" transform="translate(100.000000, 28.000000)">
                        <circle id="Oval-Copy-26" fill="#84D0EF" cx="10.5" cy="10.5" r="10.5"></circle>
                        <rect id="Rectangle" fill="#524740" x="6" y="10" width="9" height="1"></rect>
                    </g>
                    <circle id="Oval-Copy-25" fill="#252525" cx="110.5" cy="78.5" r="10.5"></circle>
                    <circle id="Oval-Copy-24" fill="#252525" cx="110.5" cy="118.5" r="10.5"></circle>
                    <g id="Negative-Ion" transform="translate(40.000000, 68.000000)">
                        <circle id="Oval-Copy-9" fill="#84D0EF" cx="10.5" cy="10.5" r="10.5"></circle>
                        <rect id="Rectangle" fill="#524740" x="6" y="10" width="9" height="1"></rect>
                    </g>
                    <g id="Negative-Ion" transform="translate(10.000000, 128.000000)">
                        <circle id="Oval-Copy-7" fill="#84D0EF" cx="10.5" cy="10.5" r="10.5"></circle>
                        <rect id="Rectangle" fill="#524740" x="6" y="10" width="9" height="1"></rect>
                    </g>
                    <circle id="Oval-Copy-23" fill="#252525" cx="80.5" cy="18.5" r="10.5"></circle>
                    <circle id="Oval-Copy-22" fill="#252525" cx="80.5" cy="58.5" r="10.5"></circle>
                    <g id="Negative-Ion" transform="translate(70.000000, 88.000000)">
                        <circle id="Oval-Copy-21" fill="#84D0EF" cx="10.5" cy="10.5" r="10.5"></circle>
                        <rect id="Rectangle" fill="#524740" x="6" y="10" width="9" height="1"></rect>
                    </g>
                    <circle id="Oval-Copy-20" fill="#252525" cx="80.5" cy="138.5" r="10.5"></circle>
                    <circle id="Oval-Copy-30" fill="#252525" cx="140.5" cy="18.5" r="10.5"></circle>
                    <circle id="Oval-Copy-29" fill="#252525" cx="140.5" cy="58.5" r="10.5"></circle>
                    <circle id="Oval-Copy-28" fill="#252525" cx="140.5" cy="98.5" r="10.5"></circle>
                    <circle id="Oval-Copy-27" fill="#252525" cx="140.5" cy="138.5" r="10.5"></circle>
                    <g id="Little-Ones" transform="translate(4.000000, 23.000000)" fill="#84D0EF">
                        <circle id="Oval-Copy-31" cx="25.25" cy="53.25" r="3.25"></circle>
                        <circle id="Oval-Copy-32" cx="38.25" cy="32.25" r="3.25"></circle>
                        <circle id="Oval-Copy-33" cx="28.25" cy="4.25" r="3.25"></circle>
                        <circle id="Oval-Copy-34" cx="69.25" cy="12.25" r="3.25"></circle>
                        <circle id="Oval-Copy-35" cx="79.25" cy="52.25" r="3.25"></circle>
                        <circle id="Oval-Copy-36" cx="60.25" cy="73.25" r="3.25"></circle>
                        <circle id="Oval-Copy-37" cx="35.25" cy="84.25" r="3.25"></circle>
                        <circle id="Oval-Copy-38" cx="31.25" cy="126.25" r="3.25"></circle>
                        <circle id="Oval-Copy-39" cx="3.25" cy="93.25" r="3.25"></circle>
                        <circle id="Oval-Copy-40" cx="55.25" cy="111.25" r="3.25"></circle>
                        <circle id="Oval-Copy-42" cx="90.25" cy="92.25" r="3.25"></circle>
                        <circle id="Oval-Copy-43" cx="90.25" cy="122.25" r="3.25"></circle>
                        <circle id="Oval-Copy-49" cx="96.25" cy="3.25" r="3.25"></circle>
                    </g>
                </g>
                <g id="N-Type-Lattice" transform="translate(158.000000, 36.000000)">
                    <rect id="Rectangle" stroke="#999999" stroke-width="2" fill="#7D7570" x="1" y="1" width="158" height="158"></rect>
                    <circle id="Oval-Copy-3" fill="#252525" cx="20.5" cy="18.5" r="10.5"></circle>
                    <circle id="Oval-Copy-5" fill="#252525" cx="20.5" cy="58.5" r="10.5"></circle>
                    <circle id="Oval-Copy-6" fill="#252525" cx="20.5" cy="98.5" r="10.5"></circle>
                    <circle id="Oval-Copy-10" fill="#252525" cx="50.5" cy="38.5" r="10.5"></circle>
                    <g id="Positive-Ion" transform="translate(40.000000, 68.000000)">
                        <circle id="Oval-Copy-9" fill="#D7E465" cx="10.5" cy="10.5" r="10.5"></circle>
                        <path d="M10,10 L10,6 L11,6 L11,10 L15,10 L15,11 L11,11 L11,15 L10,15 L10,11 L6,11 L6,10 L10,10 Z" id="Combined-Shape" fill="#524740"></path>
                    </g>
                    <circle id="Oval-Copy-8" fill="#252525" cx="50.5" cy="118.5" r="10.5"></circle>
                    <g id="Positive-Ion" transform="translate(100.000000, 28.000000)">
                        <circle id="Oval-Copy-26" fill="#D7E465" cx="10.5" cy="10.5" r="10.5"></circle>
                        <path d="M10,10 L10,6 L11,6 L11,10 L15,10 L15,11 L11,11 L11,15 L10,15 L10,11 L6,11 L6,10 L10,10 Z" id="Combined-Shape" fill="#524740"></path>
                    </g>
                    <circle id="Oval-Copy-25" fill="#252525" cx="110.5" cy="78.5" r="10.5"></circle>
                    <circle id="Oval-Copy-24" fill="#252525" cx="110.5" cy="118.5" r="10.5"></circle>
                    <g id="Positive-Ion" transform="translate(10.000000, 128.000000)">
                        <circle id="Oval-Copy-7" fill="#D7E465" cx="10.5" cy="10.5" r="10.5"></circle>
                        <path d="M10,10 L10,6 L11,6 L11,10 L15,10 L15,11 L11,11 L11,15 L10,15 L10,11 L6,11 L6,10 L10,10 Z" id="Combined-Shape" fill="#524740"></path>
                    </g>
                    <circle id="Oval-Copy-23" fill="#252525" cx="80.5" cy="18.5" r="10.5"></circle>
                    <circle id="Oval-Copy-22" fill="#252525" cx="80.5" cy="58.5" r="10.5"></circle>
                    <g id="Positive-Ion" transform="translate(70.000000, 88.000000)">
                        <circle id="Oval-Copy-21" fill="#D7E465" cx="10.5" cy="10.5" r="10.5"></circle>
                        <path d="M10,10 L10,6 L11,6 L11,10 L15,10 L15,11 L11,11 L11,15 L10,15 L10,11 L6,11 L6,10 L10,10 Z" id="Combined-Shape" fill="#524740"></path>
                    </g>
                    <circle id="Oval-Copy-20" fill="#252525" cx="80.5" cy="138.5" r="10.5"></circle>
                    <circle id="Oval-Copy-30" fill="#252525" cx="140.5" cy="18.5" r="10.5"></circle>
                    <circle id="Oval-Copy-29" fill="#252525" cx="140.5" cy="58.5" r="10.5"></circle>
                    <circle id="Oval-Copy-28" fill="#252525" cx="140.5" cy="98.5" r="10.5"></circle>
                    <circle id="Oval-Copy-27" fill="#252525" cx="140.5" cy="138.5" r="10.5"></circle>
                    <g id="Little-ones" transform="translate(56.000000, 8.000000)" fill="#EF7D3B">
                        <circle id="Oval-Copy-34" cx="17.25" cy="27.25" r="3.25"></circle>
                        <circle id="Oval-Copy-35" cx="27.25" cy="67.25" r="3.25"></circle>
                        <circle id="Oval-Copy-36" cx="8.25" cy="88.25" r="3.25"></circle>
                        <circle id="Oval-Copy-40" cx="3.25" cy="126.25" r="3.25"></circle>
                        <circle id="Oval-Copy-41" cx="63.25" cy="126.25" r="3.25"></circle>
                        <circle id="Oval-Copy-42" cx="38.25" cy="107.25" r="3.25"></circle>
                        <circle id="Oval-Copy-43" cx="38.25" cy="137.25" r="3.25"></circle>
                        <circle id="Oval-Copy-44" cx="78.25" cy="146.25" r="3.25"></circle>
                        <circle id="Oval-Copy-45" cx="98.25" cy="96.25" r="3.25"></circle>
                        <circle id="Oval-Copy-46" cx="67.25" cy="82.25" r="3.25"></circle>
                        <circle id="Oval-Copy-47" cx="77.25" cy="37.25" r="3.25"></circle>
                        <circle id="Oval-Copy-48" cx="67.25" cy="3.25" r="3.25"></circle>
                        <circle id="Oval-Copy-49" cx="44.25" cy="18.25" r="3.25"></circle>
                    </g>
                </g>
                <path d="M103.5,37.5 L104,196" id="Line" stroke="#979797" stroke-width="2" stroke-linecap="square" stroke-dasharray="8,8"></path>
                <path d="M213.5,37.5 L214,196" id="Line-Copy" stroke="#979797" stroke-width="2" stroke-linecap="square" stroke-dasharray="8,8"></path>
                <path d="M55.248,2.6 C56.8640081,2.6 58.1279954,2.98399616 59.04,3.752 C59.9520046,4.52000384 60.408,5.48799416 60.408,6.656 C60.408,7.82400584 59.9520046,8.7879962 59.04,9.548 C58.1279954,10.3080038 56.8640081,10.688 55.248,10.688 L53.112,10.688 L53.112,13.688 C53.112,14.888006 53.2439987,15.6559983 53.508,15.992 C53.7720013,16.3280017 54.399995,16.496 55.392,16.496 L55.392,17 L48.912,17 L48.912,16.496 C49.904005,16.496 50.5319987,16.3280017 50.796,15.992 C51.0600013,15.6559983 51.192,14.888006 51.192,13.688 L51.192,5.888 C51.192,4.687994 51.0600013,3.92400164 50.796,3.596 C50.5319987,3.26799836 49.904005,3.104 48.912,3.104 L48.912,2.6 L55.248,2.6 Z M55.224,9.824 C56.216005,9.824 56.9719974,9.52800296 57.492,8.936 C58.0120026,8.34399704 58.272,7.58400464 58.272,6.656 C58.272,5.72799536 58.0120026,4.96800296 57.492,4.376 C56.9719974,3.78399704 56.216005,3.488 55.224,3.488 L53.112,3.488 L53.112,9.824 L55.224,9.824 Z M71.2,12.608 L64.192,12.608 L64.192,11.552 L71.2,11.552 L71.2,12.608 Z M88.376,2.6 L88.592,5.84 L88.088,5.84 L87.968,5.36 C87.775999,4.6399964 87.5200016,4.15600124 87.2,3.908 C86.8799984,3.65999876 86.2080051,3.536 85.184,3.536 L82.04,3.536 L82.04,13.688 C82.04,14.888006 82.1759986,15.6559983 82.448,15.992 C82.7200014,16.3280017 83.351995,16.496 84.344,16.496 L84.344,17 L77.84,17 L77.84,16.496 C78.832005,16.496 79.4639986,16.3280017 79.736,15.992 C80.0080014,15.6559983 80.144,14.888006 80.144,13.688 L80.144,3.536 L77,3.536 C75.9759949,3.536 75.3040016,3.65999876 74.984,3.908 C74.6639984,4.15600124 74.408001,4.6399964 74.216,5.36 L74.096,5.84 L73.592,5.84 L73.808,2.6 L88.376,2.6 Z M89.544,22.688 C89.544,22.4319987 89.639999,22.204001 89.832,22.004 C90.024001,21.803999 90.2759984,21.5320017 90.588,21.188 C90.9000016,20.8439983 91.159999,20.4080026 91.368,19.88 L92.568,16.88 L89.808,10.904 C89.5519987,10.3599973 89.3120011,9.988001 89.088,9.788 C88.8639989,9.587999 88.5680018,9.488 88.2,9.488 L88.2,9.008 L92.448,9.008 L92.448,9.488 C91.9039973,9.488 91.5760006,9.57599912 91.464,9.752 C91.3519994,9.92800088 91.4239987,10.311997 91.68,10.904 L93.432,14.744 L94.968,10.904 C95.1920011,10.3599973 95.2560005,9.988001 95.16,9.788 C95.0639995,9.587999 94.7680025,9.488 94.272,9.488 L94.272,9.008 L97.632,9.008 L97.632,9.488 C96.8799962,9.488 96.3120019,9.95999528 95.928,10.904 L91.248,22.592 C91.0079988,23.184003 90.7120018,23.48 90.36,23.48 C90.151999,23.48 89.9640008,23.4160006 89.796,23.288 C89.6279992,23.1599994 89.544,22.9600014 89.544,22.688 Z M106.864,15.488 C107.328002,14.8319967 107.56,14.000005 107.56,12.992 C107.56,11.983995 107.328002,11.1600032 106.864,10.52 C106.399998,9.8799968 105.728004,9.56 104.848,9.56 C104.303997,9.56 103.820002,9.72799832 103.396,10.064 C102.971998,10.4000017 102.640001,10.8559971 102.4,11.432 L102.4,14.528 C102.640001,15.120003 102.971998,15.5879983 103.396,15.932 C103.820002,16.2760017 104.303997,16.448 104.848,16.448 C105.728004,16.448 106.399998,16.1280032 106.864,15.488 Z M102.4,19.712 C102.4,20.8960059 102.515999,21.6559983 102.748,21.992 C102.980001,22.3280017 103.495996,22.496 104.296,22.496 L104.296,23 L98.8,23 L98.8,22.496 C99.600004,22.496 100.115999,22.3320016 100.348,22.004 C100.580001,21.6759984 100.696,20.912006 100.696,19.712 L100.696,12.488 C100.696,11.287994 100.580001,10.5240016 100.348,10.196 C100.115999,9.86799836 99.600004,9.704 98.8,9.704 L98.8,9.2 L102.016,8.6 C102.112,8.77600088 102.231999,9.263996 102.376,10.064 C103.192004,9.08799512 104.183994,8.6 105.352,8.6 C106.488006,8.6 107.463996,9.02799572 108.28,9.884 C109.096004,10.7400043 109.504,11.7759939 109.504,12.992 C109.504,14.2080061 109.096004,15.2479957 108.28,16.112 C107.463996,16.9760043 106.488006,17.408 105.352,17.408 C104.167994,17.408 103.184004,16.9280048 102.4,15.968 L102.4,19.712 Z M114.872,11.504 L118.856,11.504 C119.016001,11.0559978 118.948001,10.6200021 118.652,10.196 C118.355999,9.77199788 117.848004,9.56 117.128,9.56 C116.615997,9.56 116.156002,9.73599824 115.748,10.088 C115.339998,10.4400018 115.048001,10.911997 114.872,11.504 Z M114.728,12.392 C114.583999,13.5760059 114.771997,14.5399963 115.292,15.284 C115.812003,16.0280037 116.663994,16.4 117.848,16.4 C118.248002,16.4 118.703997,16.296001 119.216,16.088 C119.728003,15.879999 120.151998,15.6160016 120.488,15.296 L120.92,15.824 C120.487998,16.2880023 119.936003,16.6679985 119.264,16.964 C118.591997,17.2600015 117.920003,17.408 117.248,17.408 C115.951994,17.408 114.888004,16.9800043 114.056,16.124 C113.223996,15.2679957 112.808,14.2240062 112.808,12.992 C112.808,11.7599938 113.259995,10.7200042 114.164,9.872 C115.068005,9.02399576 116.095994,8.6 117.248,8.6 C118.336005,8.6 119.223997,8.9799962 119.912,9.74 C120.600003,10.5000038 120.800001,11.383995 120.512,12.392 L114.728,12.392 Z" id="P-Type-Copy" fill="#524740"></path>
                <path d="M208.512,14.024 L208.512,5.888 C208.512,4.687994 208.380001,3.92400164 208.116,3.596 C207.851999,3.26799836 207.224005,3.104 206.232,3.104 L206.232,2.6 L211.704,2.6 L211.704,3.104 C210.711995,3.104 210.080001,3.26799836 209.808,3.596 C209.535999,3.92400164 209.4,4.687994 209.4,5.888 L209.4,17.408 L208.848,17.408 L199.08,5.336 L199.08,13.688 C199.08,14.888006 199.215999,15.6559983 199.488,15.992 C199.760001,16.3280017 200.391995,16.496 201.384,16.496 L201.384,17 L195.912,17 L195.912,16.496 C196.904005,16.496 197.531999,16.3280017 197.796,15.992 C198.060001,15.6559983 198.192,14.888006 198.192,13.688 L198.192,5.888 C198.192,4.687994 198.060001,3.92400164 197.796,3.596 C197.531999,3.26799836 196.904005,3.104 195.912,3.104 L195.912,2.6 L199.296,2.6 L208.512,14.024 Z M222.4,12.608 L215.392,12.608 L215.392,11.552 L222.4,11.552 L222.4,12.608 Z M239.576,2.6 L239.792,5.84 L239.288,5.84 L239.168,5.36 C238.975999,4.6399964 238.720002,4.15600124 238.4,3.908 C238.079998,3.65999876 237.408005,3.536 236.384,3.536 L233.24,3.536 L233.24,13.688 C233.24,14.888006 233.375999,15.6559983 233.648,15.992 C233.920001,16.3280017 234.551995,16.496 235.544,16.496 L235.544,17 L229.04,17 L229.04,16.496 C230.032005,16.496 230.663999,16.3280017 230.936,15.992 C231.208001,15.6559983 231.344,14.888006 231.344,13.688 L231.344,3.536 L228.2,3.536 C227.175995,3.536 226.504002,3.65999876 226.184,3.908 C225.863998,4.15600124 225.608001,4.6399964 225.416,5.36 L225.296,5.84 L224.792,5.84 L225.008,2.6 L239.576,2.6 Z M240.744,22.688 C240.744,22.4319987 240.839999,22.204001 241.032,22.004 C241.224001,21.803999 241.475998,21.5320017 241.788,21.188 C242.100002,20.8439983 242.359999,20.4080026 242.568,19.88 L243.768,16.88 L241.008,10.904 C240.751999,10.3599973 240.512001,9.988001 240.288,9.788 C240.063999,9.587999 239.768002,9.488 239.4,9.488 L239.4,9.008 L243.648,9.008 L243.648,9.488 C243.103997,9.488 242.776001,9.57599912 242.664,9.752 C242.551999,9.92800088 242.623999,10.311997 242.88,10.904 L244.632,14.744 L246.168,10.904 C246.392001,10.3599973 246.456,9.988001 246.36,9.788 C246.264,9.587999 245.968002,9.488 245.472,9.488 L245.472,9.008 L248.832,9.008 L248.832,9.488 C248.079996,9.488 247.512002,9.95999528 247.128,10.904 L242.448,22.592 C242.207999,23.184003 241.912002,23.48 241.56,23.48 C241.351999,23.48 241.164001,23.4160006 240.996,23.288 C240.827999,23.1599994 240.744,22.9600014 240.744,22.688 Z M258.064,15.488 C258.528002,14.8319967 258.76,14.000005 258.76,12.992 C258.76,11.983995 258.528002,11.1600032 258.064,10.52 C257.599998,9.8799968 256.928004,9.56 256.048,9.56 C255.503997,9.56 255.020002,9.72799832 254.596,10.064 C254.171998,10.4000017 253.840001,10.8559971 253.6,11.432 L253.6,14.528 C253.840001,15.120003 254.171998,15.5879983 254.596,15.932 C255.020002,16.2760017 255.503997,16.448 256.048,16.448 C256.928004,16.448 257.599998,16.1280032 258.064,15.488 Z M253.6,19.712 C253.6,20.8960059 253.715999,21.6559983 253.948,21.992 C254.180001,22.3280017 254.695996,22.496 255.496,22.496 L255.496,23 L250,23 L250,22.496 C250.800004,22.496 251.315999,22.3320016 251.548,22.004 C251.780001,21.6759984 251.896,20.912006 251.896,19.712 L251.896,12.488 C251.896,11.287994 251.780001,10.5240016 251.548,10.196 C251.315999,9.86799836 250.800004,9.704 250,9.704 L250,9.2 L253.216,8.6 C253.312,8.77600088 253.431999,9.263996 253.576,10.064 C254.392004,9.08799512 255.383994,8.6 256.552,8.6 C257.688006,8.6 258.663996,9.02799572 259.48,9.884 C260.296004,10.7400043 260.704,11.7759939 260.704,12.992 C260.704,14.2080061 260.296004,15.2479957 259.48,16.112 C258.663996,16.9760043 257.688006,17.408 256.552,17.408 C255.367994,17.408 254.384004,16.9280048 253.6,15.968 L253.6,19.712 Z M266.072,11.504 L270.056,11.504 C270.216001,11.0559978 270.148001,10.6200021 269.852,10.196 C269.555999,9.77199788 269.048004,9.56 268.328,9.56 C267.815997,9.56 267.356002,9.73599824 266.948,10.088 C266.539998,10.4400018 266.248001,10.911997 266.072,11.504 Z M265.928,12.392 C265.783999,13.5760059 265.971997,14.5399963 266.492,15.284 C267.012003,16.0280037 267.863994,16.4 269.048,16.4 C269.448002,16.4 269.903997,16.296001 270.416,16.088 C270.928003,15.879999 271.351998,15.6160016 271.688,15.296 L272.12,15.824 C271.687998,16.2880023 271.136003,16.6679985 270.464,16.964 C269.791997,17.2600015 269.120003,17.408 268.448,17.408 C267.151994,17.408 266.088004,16.9800043 265.256,16.124 C264.423996,15.2679957 264.008,14.2240062 264.008,12.992 C264.008,11.7599938 264.459995,10.7200042 265.364,9.872 C266.268005,9.02399576 267.295994,8.6 268.448,8.6 C269.536005,8.6 270.423997,8.9799962 271.112,9.74 C271.800003,10.5000038 272.000001,11.383995 271.712,12.392 L265.928,12.392 Z" id="N-Type-Copy" fill="#524740"></path>
                <rect id="Rectangle" fill="#EF7D3B" opacity="0.149135045" x="104" y="38" width="110" height="156"></rect>
            </g>
            <path d="M64.856,293.632 C66.3760076,293.632 67.136,292.528011 67.136,290.32 L67.136,277.888 C67.136,276.687994 67.0040013,275.924002 66.74,275.596 C66.4759987,275.267998 65.848005,275.104 64.856,275.104 L64.856,274.6 L71.336,274.6 L71.336,275.104 C70.343995,275.104 69.7160013,275.267998 69.452,275.596 C69.1879987,275.924002 69.056,276.687994 69.056,277.888 L69.056,290.056 C69.056,290.872004 68.9280013,291.575997 68.672,292.168 C68.4159987,292.760003 68.0720022,293.203999 67.64,293.5 C67.2079978,293.796001 66.7640023,294.011999 66.308,294.148 C65.8519977,294.284001 65.3680026,294.352 64.856,294.352 C64.0399959,294.352 63.2480038,294.144002 62.48,293.728 C61.7119962,293.311998 61.328,292.760003 61.328,292.072 C61.328,291.847999 61.4079992,291.656001 61.568,291.496 C61.7280008,291.335999 61.9279988,291.256 62.168,291.256 C62.3920011,291.256 62.5839992,291.335999 62.744,291.496 C62.9040008,291.656001 62.984,291.847999 62.984,292.072 C62.984,292.472002 63.1519983,292.831998 63.488,293.152 C63.8240017,293.472002 64.2799971,293.632 64.856,293.632 Z M85.32,288.808 L82.104,289.408 C81.9759994,289.151999 81.8480006,288.640004 81.72,287.872 C80.727995,288.896005 79.6800055,289.408 78.576,289.408 C76.5919901,289.408 75.6,288.208012 75.6,285.808 L75.6,284.296 C75.6,283.095994 75.4840012,282.328002 75.252,281.992 C75.0199988,281.655998 74.504004,281.488 73.704,281.488 L73.704,281.008 L77.304,281.008 L77.304,285.688 C77.304,287.400009 77.9119939,288.256 79.128,288.256 C79.6720027,288.256 80.239997,288.028002 80.832,287.572 C81.424003,287.115998 81.72,286.552003 81.72,285.88 L81.72,284.296 C81.72,283.095994 81.6040012,282.328002 81.372,281.992 C81.1399988,281.655998 80.6160041,281.488 79.8,281.488 L79.8,281.008 L83.4,281.008 L83.4,285.496 C83.4,286.696006 83.5159988,287.463998 83.748,287.8 C83.9800012,288.136002 84.5039959,288.304 85.32,288.304 L85.32,288.808 Z M91.288,282.328 C92.2000046,281.175994 93.3119934,280.6 94.624,280.6 C95.6640052,280.6 96.4439974,280.927997 96.964,281.584 C97.4840026,282.240003 97.744,283.103995 97.744,284.176 L97.744,285.688 C97.744,286.888006 97.8599988,287.655998 98.092,287.992 C98.3240012,288.328002 98.839996,288.496 99.64,288.496 L99.64,289 L94.144,289 L94.144,288.496 C94.9280039,288.496 95.4399988,288.324002 95.68,287.98 C95.9200012,287.635998 96.04,286.872006 96.04,285.688 L96.04,284.296 C96.04,282.583991 95.3760066,281.728 94.048,281.728 C93.3599966,281.728 92.7280029,281.967998 92.152,282.448 C91.5759971,282.928002 91.288,283.487997 91.288,284.128 L91.288,285.688 C91.288,286.920006 91.383999,287.695998 91.576,288.016 C91.768001,288.336002 92.2319963,288.496 92.968,288.496 L92.968,289 L87.688,289 L87.688,288.496 C88.488004,288.496 89.0039988,288.328002 89.236,287.992 C89.4680012,287.655998 89.584,286.888006 89.584,285.688 L89.584,284.488 C89.584,283.303994 89.4680012,282.544002 89.236,282.208 C89.0039988,281.871998 88.488004,281.704 87.688,281.704 L87.688,281.2 L90.88,280.6 C91.0240007,280.904002 91.1599994,281.479996 91.288,282.328 Z M106.496,281.368 C105.855997,281.368 105.312002,281.735996 104.864,282.472 C104.415998,283.208004 104.192,284.119995 104.192,285.208 C104.192,286.200005 104.435998,286.979997 104.924,287.548 C105.412002,288.116003 106.135995,288.4 107.096,288.4 C108.024005,288.4 108.879996,288.032004 109.664,287.296 L110.072,287.824 C109.095995,288.880005 107.904007,289.408 106.496,289.408 C105.183993,289.408 104.148004,289.016004 103.388,288.232 C102.627996,287.447996 102.248,286.440006 102.248,285.208 C102.248,283.879993 102.695996,282.780004 103.592,281.908 C104.488004,281.035996 105.455995,280.6 106.496,280.6 C107.440005,280.6 108.151998,280.767998 108.632,281.104 C109.112002,281.440002 109.352,281.847998 109.352,282.328 C109.352,282.584001 109.268001,282.819999 109.1,283.036 C108.931999,283.252001 108.664002,283.36 108.296,283.36 C108.039999,283.36 107.820001,283.268001 107.636,283.084 C107.451999,282.899999 107.36,282.672001 107.36,282.4 C107.36,281.711997 107.072003,281.368 106.496,281.368 Z M113.448,281.848 L112.2,281.848 L112.2,281.272 C112.888003,281.127999 113.391998,280.816002 113.712,280.336 C114.032002,279.855998 114.24,279.200004 114.336,278.368 L115.152,278.368 L115.152,281.008 L117.24,281.008 L117.24,281.848 L115.152,281.848 L115.152,286.648 C115.152,287.800006 115.511996,288.376 116.232,288.376 C116.696002,288.376 117.215997,288.104003 117.792,287.56 L118.2,287.968 C117.863998,288.368002 117.460002,288.695999 116.988,288.952 C116.515998,289.208001 116.080002,289.336 115.68,289.336 C114.991997,289.336 114.448002,289.112002 114.048,288.664 C113.647998,288.215998 113.448,287.544004 113.448,286.648 L113.448,281.848 Z M126.016,289 L120.52,289 L120.52,288.496 C121.320004,288.496 121.835999,288.328002 122.068,287.992 C122.300001,287.655998 122.416,286.888006 122.416,285.688 L122.416,284.488 C122.416,283.303994 122.300001,282.544002 122.068,282.208 C121.835999,281.871998 121.320004,281.704 120.52,281.704 L120.52,281.2 L124.12,280.6 L124.12,285.688 C124.12,286.888006 124.235999,287.655998 124.468,287.992 C124.700001,288.328002 125.215996,288.496 126.016,288.496 L126.016,289 Z M124.312,277.168 C124.312,277.472002 124.208001,277.727999 124,277.936 C123.791999,278.144001 123.544001,278.248 123.256,278.248 C122.967999,278.248 122.720001,278.144001 122.512,277.936 C122.303999,277.727999 122.2,277.472002 122.2,277.168 C122.2,276.879999 122.303999,276.632001 122.512,276.424 C122.720001,276.215999 122.967999,276.112 123.256,276.112 C123.544001,276.112 123.791999,276.215999 124,276.424 C124.208001,276.632001 124.312,276.879999 124.312,277.168 Z M136.88,281.896 C137.840005,282.744004 138.32,283.775994 138.32,284.992 C138.32,286.208006 137.844005,287.247996 136.892,288.112 C135.939995,288.976004 134.800007,289.408 133.472,289.408 C132.143993,289.408 131.004005,288.976004 130.052,288.112 C129.099995,287.247996 128.624,286.208006 128.624,284.992 C128.624,283.775994 129.099995,282.740004 130.052,281.884 C131.004005,281.027996 132.143993,280.6 133.472,280.6 C134.800007,280.6 135.935995,281.031996 136.88,281.896 Z M135.632,287.512 C136.128002,286.855997 136.376,286.016005 136.376,284.992 C136.376,283.967995 136.128002,283.132003 135.632,282.484 C135.135998,281.835997 134.416005,281.512 133.472,281.512 C132.527995,281.512 131.808002,281.839997 131.312,282.496 C130.815998,283.152003 130.568,283.983995 130.568,284.992 C130.568,286.000005 130.815998,286.831997 131.312,287.488 C131.808002,288.144003 132.527995,288.472 133.472,288.472 C134.416005,288.472 135.135998,288.152003 135.632,287.512 Z M144.984,282.328 C145.896005,281.175994 147.007993,280.6 148.32,280.6 C149.360005,280.6 150.139997,280.927997 150.66,281.584 C151.180003,282.240003 151.44,283.103995 151.44,284.176 L151.44,285.688 C151.44,286.888006 151.555999,287.655998 151.788,287.992 C152.020001,288.328002 152.535996,288.496 153.336,288.496 L153.336,289 L147.84,289 L147.84,288.496 C148.624004,288.496 149.135999,288.324002 149.376,287.98 C149.616001,287.635998 149.736,286.872006 149.736,285.688 L149.736,284.296 C149.736,282.583991 149.072007,281.728 147.744,281.728 C147.055997,281.728 146.424003,281.967998 145.848,282.448 C145.271997,282.928002 144.984,283.487997 144.984,284.128 L144.984,285.688 C144.984,286.920006 145.079999,287.695998 145.272,288.016 C145.464001,288.336002 145.927996,288.496 146.664,288.496 L146.664,289 L141.384,289 L141.384,288.496 C142.184004,288.496 142.699999,288.328002 142.932,287.992 C143.164001,287.655998 143.28,286.888006 143.28,285.688 L143.28,284.488 C143.28,283.303994 143.164001,282.544002 142.932,282.208 C142.699999,281.871998 142.184004,281.704 141.384,281.704 L141.384,281.2 L144.576,280.6 C144.720001,280.904002 144.855999,281.479996 144.984,282.328 Z M168.632,274.6 C170.248008,274.6 171.511995,274.983996 172.424,275.752 C173.336005,276.520004 173.792,277.487994 173.792,278.656 C173.792,279.824006 173.336005,280.787996 172.424,281.548 C171.511995,282.308004 170.248008,282.688 168.632,282.688 L166.496,282.688 L166.496,285.688 C166.496,286.888006 166.627999,287.655998 166.892,287.992 C167.156001,288.328002 167.783995,288.496 168.776,288.496 L168.776,289 L162.296,289 L162.296,288.496 C163.288005,288.496 163.915999,288.328002 164.18,287.992 C164.444001,287.655998 164.576,286.888006 164.576,285.688 L164.576,277.888 C164.576,276.687994 164.444001,275.924002 164.18,275.596 C163.915999,275.267998 163.288005,275.104 162.296,275.104 L162.296,274.6 L168.632,274.6 Z M168.608,281.824 C169.600005,281.824 170.355997,281.528003 170.876,280.936 C171.396003,280.343997 171.656,279.584005 171.656,278.656 C171.656,277.727995 171.396003,276.968003 170.876,276.376 C170.355997,275.783997 169.600005,275.488 168.608,275.488 L166.496,275.488 L166.496,281.824 L168.608,281.824 Z M183.888,281.896 C184.848005,282.744004 185.328,283.775994 185.328,284.992 C185.328,286.208006 184.852005,287.247996 183.9,288.112 C182.947995,288.976004 181.808007,289.408 180.48,289.408 C179.151993,289.408 178.012005,288.976004 177.06,288.112 C176.107995,287.247996 175.632,286.208006 175.632,284.992 C175.632,283.775994 176.107995,282.740004 177.06,281.884 C178.012005,281.027996 179.151993,280.6 180.48,280.6 C181.808007,280.6 182.943995,281.031996 183.888,281.896 Z M182.64,287.512 C183.136002,286.855997 183.384,286.016005 183.384,284.992 C183.384,283.967995 183.136002,283.132003 182.64,282.484 C182.143998,281.835997 181.424005,281.512 180.48,281.512 C179.535995,281.512 178.816002,281.839997 178.32,282.496 C177.823998,283.152003 177.576,283.983995 177.576,284.992 C177.576,286.000005 177.823998,286.831997 178.32,287.488 C178.816002,288.144003 179.535995,288.472 180.48,288.472 C181.424005,288.472 182.143998,288.152003 182.64,287.512 Z M189.4,281.848 L188.152,281.848 L188.152,281.272 C188.840003,281.127999 189.343998,280.816002 189.664,280.336 C189.984002,279.855998 190.192,279.200004 190.288,278.368 L191.104,278.368 L191.104,281.008 L193.192,281.008 L193.192,281.848 L191.104,281.848 L191.104,286.648 C191.104,287.800006 191.463996,288.376 192.184,288.376 C192.648002,288.376 193.167997,288.104003 193.744,287.56 L194.152,287.968 C193.815998,288.368002 193.412002,288.695999 192.94,288.952 C192.467998,289.208001 192.032002,289.336 191.632,289.336 C190.943997,289.336 190.400002,289.112002 190,288.664 C189.599998,288.215998 189.4,287.544004 189.4,286.648 L189.4,281.848 Z M198.776,283.504 L202.76,283.504 C202.920001,283.055998 202.852001,282.620002 202.556,282.196 C202.259999,281.771998 201.752004,281.56 201.032,281.56 C200.519997,281.56 200.060002,281.735998 199.652,282.088 C199.243998,282.440002 198.952001,282.911997 198.776,283.504 Z M198.632,284.392 C198.487999,285.576006 198.675997,286.539996 199.196,287.284 C199.716003,288.028004 200.567994,288.4 201.752,288.4 C202.152002,288.4 202.607997,288.296001 203.12,288.088 C203.632003,287.879999 204.055998,287.616002 204.392,287.296 L204.824,287.824 C204.391998,288.288002 203.840003,288.667999 203.168,288.964 C202.495997,289.260001 201.824003,289.408 201.152,289.408 C199.855994,289.408 198.792004,288.980004 197.96,288.124 C197.127996,287.267996 196.712,286.224006 196.712,284.992 C196.712,283.759994 197.163995,282.720004 198.068,281.872 C198.972005,281.023996 199.999994,280.6 201.152,280.6 C202.240005,280.6 203.127997,280.979996 203.816,281.74 C204.504003,282.500004 204.704001,283.383995 204.416,284.392 L198.632,284.392 Z M211.2,282.328 C212.112005,281.175994 213.223993,280.6 214.536,280.6 C215.576005,280.6 216.355997,280.927997 216.876,281.584 C217.396003,282.240003 217.656,283.103995 217.656,284.176 L217.656,285.688 C217.656,286.888006 217.771999,287.655998 218.004,287.992 C218.236001,288.328002 218.751996,288.496 219.552,288.496 L219.552,289 L214.056,289 L214.056,288.496 C214.840004,288.496 215.351999,288.324002 215.592,287.98 C215.832001,287.635998 215.952,286.872006 215.952,285.688 L215.952,284.296 C215.952,282.583991 215.288007,281.728 213.96,281.728 C213.271997,281.728 212.640003,281.967998 212.064,282.448 C211.487997,282.928002 211.2,283.487997 211.2,284.128 L211.2,285.688 C211.2,286.920006 211.295999,287.695998 211.488,288.016 C211.680001,288.336002 212.143996,288.496 212.88,288.496 L212.88,289 L207.6,289 L207.6,288.496 C208.400004,288.496 208.915999,288.328002 209.148,287.992 C209.380001,287.655998 209.496,286.888006 209.496,285.688 L209.496,284.488 C209.496,283.303994 209.380001,282.544002 209.148,282.208 C208.915999,281.871998 208.400004,281.704 207.6,281.704 L207.6,281.2 L210.792,280.6 C210.936001,280.904002 211.071999,281.479996 211.2,282.328 Z M222.928,281.848 L221.68,281.848 L221.68,281.272 C222.368003,281.127999 222.871998,280.816002 223.192,280.336 C223.512002,279.855998 223.72,279.200004 223.816,278.368 L224.632,278.368 L224.632,281.008 L226.72,281.008 L226.72,281.848 L224.632,281.848 L224.632,286.648 C224.632,287.800006 224.991996,288.376 225.712,288.376 C226.176002,288.376 226.695997,288.104003 227.272,287.56 L227.68,287.968 C227.343998,288.368002 226.940002,288.695999 226.468,288.952 C225.995998,289.208001 225.560002,289.336 225.16,289.336 C224.471997,289.336 223.928002,289.112002 223.528,288.664 C223.127998,288.215998 222.928,287.544004 222.928,286.648 L222.928,281.848 Z M235.496,289 L230,289 L230,288.496 C230.800004,288.496 231.315999,288.328002 231.548,287.992 C231.780001,287.655998 231.896,286.888006 231.896,285.688 L231.896,284.488 C231.896,283.303994 231.780001,282.544002 231.548,282.208 C231.315999,281.871998 230.800004,281.704 230,281.704 L230,281.2 L233.6,280.6 L233.6,285.688 C233.6,286.888006 233.715999,287.655998 233.948,287.992 C234.180001,288.328002 234.695996,288.496 235.496,288.496 L235.496,289 Z M233.792,277.168 C233.792,277.472002 233.688001,277.727999 233.48,277.936 C233.271999,278.144001 233.024001,278.248 232.736,278.248 C232.447999,278.248 232.200001,278.144001 231.992,277.936 C231.783999,277.727999 231.68,277.472002 231.68,277.168 C231.68,276.879999 231.783999,276.632001 231.992,276.424 C232.200001,276.215999 232.447999,276.112 232.736,276.112 C233.024001,276.112 233.271999,276.215999 233.48,276.424 C233.688001,276.632001 233.792,276.879999 233.792,277.168 Z M246.24,288.52 C245.775998,289.016002 245.248003,289.264 244.656,289.264 C243.695995,289.264 243.152001,288.800005 243.024,287.872 C241.951995,288.832005 240.952005,289.312 240.024,289.312 C239.415997,289.312 238.904002,289.132002 238.488,288.772 C238.071998,288.411998 237.864,287.920003 237.864,287.296 C237.864,285.615992 239.567983,284.480003 242.976,283.888 C242.976,282.943995 242.872001,282.288002 242.664,281.92 C242.455999,281.551998 242.024003,281.368 241.368,281.368 C241.047998,281.368 240.740001,281.471999 240.444,281.68 C240.147999,281.888001 240,282.167998 240,282.52 C240,282.760001 239.920001,282.959999 239.76,283.12 C239.599999,283.280001 239.408001,283.36 239.184,283.36 C238.943999,283.36 238.744001,283.280001 238.584,283.12 C238.423999,282.959999 238.344,282.760001 238.344,282.52 C238.344,281.959997 238.651997,281.500002 239.268,281.14 C239.884003,280.779998 240.591996,280.6 241.392,280.6 C242.560006,280.6 243.399997,280.855997 243.912,281.368 C244.424003,281.880003 244.68,282.711994 244.68,283.864 L244.68,287.488 C244.68,288.112003 244.863998,288.424 245.232,288.424 C245.440001,288.424 245.663999,288.304001 245.904,288.064 L246.24,288.52 Z M242.976,287.08 L242.976,284.632 C240.767989,285.144003 239.664,285.935995 239.664,287.008 C239.664,287.376002 239.771999,287.671999 239.988,287.896 C240.204001,288.120001 240.471998,288.232 240.792,288.232 C241.384003,288.232 242.111996,287.848004 242.976,287.08 Z M253.576,289 L248.08,289 L248.08,288.496 C248.880004,288.496 249.395999,288.328002 249.628,287.992 C249.860001,287.655998 249.976,286.888006 249.976,285.688 L249.976,278.104 C249.976,276.903994 249.860001,276.136002 249.628,275.8 C249.395999,275.463998 248.880004,275.296 248.08,275.296 L248.08,274.792 L251.68,274.192 L251.68,285.688 C251.68,286.888006 251.795999,287.655998 252.028,287.992 C252.260001,288.328002 252.775996,288.496 253.576,288.496 L253.576,289 Z" id="Junction-Potential-Copy" fill="#524740"></path>
            <g id="Potential-Plates" transform="translate(103.000000, 197.000000)">
                <g id="Positive-Plate-Copy">
                    <g id="Group" stroke="#3D3530" stroke-linecap="square" stroke-width="3">
                        <path d="M1,0.5 L1,36.5" id="Line-2"></path>
                        <path d="M41,20.5 L41,53.5" id="Line-2-Copy"></path>
                        <path d="M1,37 L41,37" id="Line-3"></path>
                    </g>
                    <rect id="Combined-Shape" fill="#524740" x="26" y="20" width="9" height="1"></rect>
                </g>
                <g id="Positive-Plate" transform="translate(70.000000, 0.000000)">
                    <g id="Group" stroke="#3D3530" stroke-linecap="square" stroke-width="3">
                        <path d="M41,0.5 L41,36.5" id="Line-2"></path>
                        <path d="M1,11.5 L1,60.5" id="Line-2-Copy"></path>
                        <path d="M1,37 L41,37" id="Line-3"></path>
                    </g>
                    <path d="M11,19 L11,15 L12,15 L12,19 L16,19 L16,20 L12,20 L12,24 L11,24 L11,20 L7,20 L7,19 L11,19 Z" id="Combined-Shape" fill="#524740"></path>
                </g>
            </g>
        </g>
        <path d="M428.776,380 L428.776,355.808 L436.984,355.808 C439.696014,355.808 441.855992,356.521993 443.464,357.95 C445.072008,359.378007 445.876,361.171989 445.876,363.332 C445.876,365.468011 445.072008,367.255993 443.464,368.696 C441.855992,370.136007 439.696014,370.856 436.984,370.856 L431.152,370.856 L431.152,380 L428.776,380 Z M431.152,368.588 L436.984,368.588 C438.92801,368.588 440.487994,368.090005 441.664,367.094 C442.840006,366.097995 443.428,364.844008 443.428,363.332 C443.428,361.843993 442.840006,360.596005 441.664,359.588 C440.487994,358.579995 438.92801,358.076 436.984,358.076 L431.152,358.076 L431.152,368.588 Z M460.16,368.984 L450.476,368.984 L450.476,366.824 L460.16,366.824 L460.16,368.984 Z M481.428,355.808 L483.804,355.808 L483.804,380 L481.356,380 L467.856,359.444 L467.856,380 L465.48,380 L465.48,355.808 L467.892,355.808 L481.428,376.4 L481.428,355.808 Z M506.18,380.288 C504.571992,380.288 503.204006,379.772005 502.076,378.74 C500.947994,377.707995 500.216002,376.532007 499.88,375.212 L501.968,374.456 C502.184001,375.392005 502.657996,376.225996 503.39,376.958 C504.122004,377.690004 505.003995,378.056 506.036,378.056 C507.332006,378.056 508.297997,377.672004 508.934,376.904 C509.570003,376.135996 509.888,375.200006 509.888,374.096 L509.888,355.952 L512.264,355.952 L512.264,373.952 C512.264,375.800009 511.736005,377.317994 510.68,378.506 C509.623995,379.694006 508.12401,380.288 506.18,380.288 Z M531.372,362 L533.748,362 L533.748,380 L531.372,380 L531.372,377.336 C529.907993,379.30401 527.988012,380.288 525.612,380.288 C523.52399,380.288 521.772007,379.550007 520.356,378.074 C518.939993,376.597993 518.232,374.780011 518.232,372.62 L518.232,362 L520.68,362 L520.68,372.548 C520.68,374.084008 521.195995,375.385995 522.228,376.454 C523.260005,377.522005 524.519993,378.056 526.008,378.056 C527.520008,378.056 528.791995,377.522005 529.824,376.454 C530.856005,375.385995 531.372,374.084008 531.372,372.548 L531.372,362 Z M547.816,361.712 C549.90401,361.712 551.655993,362.449993 553.072,363.926 C554.488007,365.402007 555.196,367.219989 555.196,369.38 L555.196,380 L552.784,380 L552.784,369.452 C552.784,367.915992 552.262005,366.608005 551.218,365.528 C550.173995,364.447995 548.908007,363.908 547.42,363.908 C545.931993,363.908 544.666005,364.447995 543.622,365.528 C542.577995,366.608005 542.056,367.915992 542.056,369.452 L542.056,380 L539.68,380 L539.68,362 L542.056,362 L542.056,364.664 C543.520007,362.69599 545.439988,361.712 547.816,361.712 Z M568.868,380.288 C566.299987,380.288 564.110009,379.382009 562.298,377.57 C560.485991,375.757991 559.58,373.568013 559.58,371 C559.58,368.431987 560.485991,366.242009 562.298,364.43 C564.110009,362.617991 566.299987,361.712 568.868,361.712 C570.500008,361.712 572.017993,362.113996 573.422,362.918 C574.826007,363.722004 575.935996,364.795993 576.752,366.14 L574.592,367.184 C573.943997,366.199995 573.116005,365.420003 572.108,364.844 C571.099995,364.267997 570.020006,363.98 568.868,363.98 C566.92399,363.98 565.286007,364.657993 563.954,366.014 C562.621993,367.370007 561.956,369.03199 561.956,371 C561.956,372.96801 562.621993,374.629993 563.954,375.986 C565.286007,377.342007 566.92399,378.02 568.868,378.02 C570.020006,378.02 571.099995,377.732003 572.108,377.156 C573.116005,376.579997 573.943997,375.800005 574.592,374.816 L576.752,375.86 C575.935996,377.204007 574.826007,378.277996 573.422,379.082 C572.017993,379.886004 570.500008,380.288 568.868,380.288 Z M592.044,375.968 L593.232,377.804 C593.087999,377.996001 592.896001,378.223999 592.656,378.488 C592.415999,378.752001 591.876004,379.117998 591.036,379.586 C590.195996,380.054002 589.332004,380.288 588.444,380.288 C586.931992,380.288 585.666005,379.838005 584.646,378.938 C583.625995,378.037996 583.116,376.736009 583.116,375.032 L583.116,364.16 L580.236,364.16 L580.236,361.964 L583.116,361.964 L583.116,356.276 L585.492,355.988 L585.492,361.964 L590.928,361.964 L590.928,364.16 L585.492,364.16 L585.492,374.492 C585.492,375.596006 585.833997,376.471997 586.518,377.12 C587.202003,377.768003 587.987996,378.092 588.876,378.092 C589.428003,378.092 589.967997,377.924002 590.496,377.588 C591.024003,377.251998 591.413999,376.922002 591.666,376.598 C591.918001,376.273998 592.044,376.064 592.044,375.968 Z M599.884,356.6 C599.619999,356.888001 599.284002,357.032 598.876,357.032 C598.467998,357.032 598.126001,356.888001 597.85,356.6 C597.573999,356.311999 597.436,355.976002 597.436,355.592 C597.436,355.207998 597.573999,354.872001 597.85,354.584 C598.126001,354.295999 598.467998,354.152 598.876,354.152 C599.284002,354.152 599.625999,354.295999 599.902,354.584 C600.178001,354.872001 600.316,355.207998 600.316,355.592 C600.316,355.976002 600.172001,356.311999 599.884,356.6 Z M597.688,380 L597.688,362 L600.064,362 L600.064,380 L597.688,380 Z M621.116,377.552 C619.315991,379.376009 617.132013,380.288 614.564,380.288 C611.995987,380.288 609.806009,379.382009 607.994,377.57 C606.181991,375.757991 605.276,373.568013 605.276,371 C605.276,368.431987 606.181991,366.242009 607.994,364.43 C609.806009,362.617991 611.995987,361.712 614.564,361.712 C617.132013,361.712 619.321991,362.617991 621.134,364.43 C622.946009,366.242009 623.852,368.431987 623.852,371 C623.852,373.544013 622.940009,375.727991 621.116,377.552 Z M614.6,378.02 C616.54401,378.02 618.181993,377.342007 619.514,375.986 C620.846007,374.629993 621.512,372.96801 621.512,371 C621.512,369.03199 620.846007,367.364007 619.514,365.996 C618.181993,364.627993 616.54401,363.944 614.6,363.944 C612.67999,363.944 611.048007,364.627993 609.704,365.996 C608.359993,367.364007 607.688,369.03199 607.688,371 C607.688,372.96801 608.359993,374.629993 609.704,375.986 C611.048007,377.342007 612.67999,378.02 614.6,378.02 Z M636.552,361.712 C638.64001,361.712 640.391993,362.449993 641.808,363.926 C643.224007,365.402007 643.932,367.219989 643.932,369.38 L643.932,380 L641.52,380 L641.52,369.452 C641.52,367.915992 640.998005,366.608005 639.954,365.528 C638.909995,364.447995 637.644007,363.908 636.156,363.908 C634.667993,363.908 633.402005,364.447995 632.358,365.528 C631.313995,366.608005 630.792,367.915992 630.792,369.452 L630.792,380 L628.416,380 L628.416,362 L630.792,362 L630.792,364.664 C632.256007,362.69599 634.175988,361.712 636.552,361.712 Z M676.532,358.184 L663.032,358.184 L663.032,366.5 L670.628,366.5 L670.628,368.876 L663.032,368.876 L663.032,377.624 L676.532,377.624 L676.532,380 L660.656,380 L660.656,355.808 L676.532,355.808 L676.532,358.184 Z M681.78,380 L681.78,353.216 L684.156,353.216 L684.156,380 L681.78,380 Z M698.296,377.912 C699.904008,377.912 701.343994,377.456005 702.616,376.544 C703.888006,375.631995 704.751998,374.564006 705.208,373.34 L707.224,374.06 C706.671997,375.572008 705.598008,376.963994 704.002,378.236 C702.405992,379.508006 700.504011,380.132 698.296,380.108 C696.27999,380.108 694.438008,379.484006 692.77,378.236 C691.101992,376.987994 689.968003,375.39201 689.368,373.448 C689.127999,372.655996 689.008,371.792005 689.008,370.856 C689.008,368.263987 689.907991,366.068009 691.708,364.268 C693.508009,362.467991 695.703987,361.556 698.296,361.532 C700.648012,361.556 702.699991,362.347992 704.452,363.908 C706.204009,365.468008 707.211999,367.399988 707.476,369.704 C707.5,369.824001 707.512,369.979999 707.512,370.172 L691.78,373.016 C692.188002,374.456007 693.003994,375.637995 694.228,376.562 C695.452006,377.486005 696.807993,377.936 698.296,377.912 Z M698.08,363.728 C696.279991,363.752 694.738006,364.399994 693.454,365.672 C692.169994,366.944006 691.48,368.467991 691.384,370.244 C691.384,370.316 691.39,370.441999 691.402,370.622 C691.414,370.802001 691.42,370.951999 691.42,371.072 L704.812,368.66 C704.355998,367.195993 703.504006,366.002005 702.256,365.078 C701.007994,364.153995 699.616008,363.704 698.08,363.728 Z M720.788,380.288 C718.219987,380.288 716.030009,379.382009 714.218,377.57 C712.405991,375.757991 711.5,373.568013 711.5,371 C711.5,368.431987 712.405991,366.242009 714.218,364.43 C716.030009,362.617991 718.219987,361.712 720.788,361.712 C722.420008,361.712 723.937993,362.113996 725.342,362.918 C726.746007,363.722004 727.855996,364.795993 728.672,366.14 L726.512,367.184 C725.863997,366.199995 725.036005,365.420003 724.028,364.844 C723.019995,364.267997 721.940006,363.98 720.788,363.98 C718.84399,363.98 717.206007,364.657993 715.874,366.014 C714.541993,367.370007 713.876,369.03199 713.876,371 C713.876,372.96801 714.541993,374.629993 715.874,375.986 C717.206007,377.342007 718.84399,378.02 720.788,378.02 C721.940006,378.02 723.019995,377.732003 724.028,377.156 C725.036005,376.579997 725.863997,375.800005 726.512,374.816 L728.672,375.86 C727.855996,377.204007 726.746007,378.277996 725.342,379.082 C723.937993,379.886004 722.420008,380.288 720.788,380.288 Z M743.964,375.968 L745.152,377.804 C745.007999,377.996001 744.816001,378.223999 744.576,378.488 C744.335999,378.752001 743.796004,379.117998 742.956,379.586 C742.115996,380.054002 741.252004,380.288 740.364,380.288 C738.851992,380.288 737.586005,379.838005 736.566,378.938 C735.545995,378.037996 735.036,376.736009 735.036,375.032 L735.036,364.16 L732.156,364.16 L732.156,361.964 L735.036,361.964 L735.036,356.276 L737.412,355.988 L737.412,361.964 L742.848,361.964 L742.848,364.16 L737.412,364.16 L737.412,374.492 C737.412,375.596006 737.753997,376.471997 738.438,377.12 C739.122003,377.768003 739.907996,378.092 740.796,378.092 C741.348003,378.092 741.887997,377.924002 742.416,377.588 C742.944003,377.251998 743.333999,376.922002 743.586,376.598 C743.838001,376.273998 743.964,376.064 743.964,375.968 Z M757.96,361.712 C759.232006,361.712 760.395995,362.023997 761.452,362.648 L760.624,365.024 C759.615995,364.279996 758.596005,363.908 757.564,363.908 C756.051992,363.908 754.780005,364.441995 753.748,365.51 C752.715995,366.578005 752.2,367.891992 752.2,369.452 L752.2,380 L749.824,380 L749.824,362 L752.2,362 L752.2,364.664 C753.664007,362.69599 755.583988,361.712 757.96,361.712 Z M768.104,356.6 C767.839999,356.888001 767.504002,357.032 767.096,357.032 C766.687998,357.032 766.346001,356.888001 766.07,356.6 C765.793999,356.311999 765.656,355.976002 765.656,355.592 C765.656,355.207998 765.793999,354.872001 766.07,354.584 C766.346001,354.295999 766.687998,354.152 767.096,354.152 C767.504002,354.152 767.845999,354.295999 768.122,354.584 C768.398001,354.872001 768.536,355.207998 768.536,355.592 C768.536,355.976002 768.392001,356.311999 768.104,356.6 Z M765.908,380 L765.908,362 L768.284,362 L768.284,380 L765.908,380 Z M782.784,380.288 C780.215987,380.288 778.026009,379.382009 776.214,377.57 C774.401991,375.757991 773.496,373.568013 773.496,371 C773.496,368.431987 774.401991,366.242009 776.214,364.43 C778.026009,362.617991 780.215987,361.712 782.784,361.712 C784.416008,361.712 785.933993,362.113996 787.338,362.918 C788.742007,363.722004 789.851996,364.795993 790.668,366.14 L788.508,367.184 C787.859997,366.199995 787.032005,365.420003 786.024,364.844 C785.015995,364.267997 783.936006,363.98 782.784,363.98 C780.83999,363.98 779.202007,364.657993 777.87,366.014 C776.537993,367.370007 775.872,369.03199 775.872,371 C775.872,372.96801 776.537993,374.629993 777.87,375.986 C779.202007,377.342007 780.83999,378.02 782.784,378.02 C783.936006,378.02 785.015995,377.732003 786.024,377.156 C787.032005,376.579997 787.859997,375.800005 788.508,374.816 L790.668,375.86 C789.851996,377.204007 788.742007,378.277996 787.338,379.082 C785.933993,379.886004 784.416008,380.288 782.784,380.288 Z M820.136,358.184 L809.12,358.184 L809.12,366.752 L816.716,366.752 L816.716,369.128 L809.12,369.128 L809.12,380 L806.744,380 L806.744,355.808 L820.136,355.808 L820.136,358.184 Z M825.816,356.6 C825.551999,356.888001 825.216002,357.032 824.808,357.032 C824.399998,357.032 824.058001,356.888001 823.782,356.6 C823.505999,356.311999 823.368,355.976002 823.368,355.592 C823.368,355.207998 823.505999,354.872001 823.782,354.584 C824.058001,354.295999 824.399998,354.152 824.808,354.152 C825.216002,354.152 825.557999,354.295999 825.834,354.584 C826.110001,354.872001 826.248,355.207998 826.248,355.592 C826.248,355.976002 826.104001,356.311999 825.816,356.6 Z M823.62,380 L823.62,362 L825.996,362 L825.996,380 L823.62,380 Z M840.496,377.912 C842.104008,377.912 843.543994,377.456005 844.816,376.544 C846.088006,375.631995 846.951998,374.564006 847.408,373.34 L849.424,374.06 C848.871997,375.572008 847.798008,376.963994 846.202,378.236 C844.605992,379.508006 842.704011,380.132 840.496,380.108 C838.47999,380.108 836.638008,379.484006 834.97,378.236 C833.301992,376.987994 832.168003,375.39201 831.568,373.448 C831.327999,372.655996 831.208,371.792005 831.208,370.856 C831.208,368.263987 832.107991,366.068009 833.908,364.268 C835.708009,362.467991 837.903987,361.556 840.496,361.532 C842.848012,361.556 844.899991,362.347992 846.652,363.908 C848.404009,365.468008 849.411999,367.399988 849.676,369.704 C849.7,369.824001 849.712,369.979999 849.712,370.172 L833.98,373.016 C834.388002,374.456007 835.203994,375.637995 836.428,376.562 C837.652006,377.486005 839.007993,377.936 840.496,377.912 Z M840.28,363.728 C838.479991,363.752 836.938006,364.399994 835.654,365.672 C834.369994,366.944006 833.68,368.467991 833.584,370.244 C833.584,370.316 833.59,370.441999 833.602,370.622 C833.614,370.802001 833.62,370.951999 833.62,371.072 L847.012,368.66 C846.555998,367.195993 845.704006,366.002005 844.456,365.078 C843.207994,364.153995 841.816008,363.704 840.28,363.728 Z M854.96,380 L854.96,353.216 L857.336,353.216 L857.336,380 L854.96,380 Z M878.496,353.216 L880.872,353.216 L880.872,380 L878.496,380 L878.496,377.084 C876.647991,379.220011 874.308014,380.288 871.476,380.288 C868.907987,380.288 866.718009,379.382009 864.906,377.57 C863.093991,375.757991 862.188,373.568013 862.188,371 C862.188,368.431987 863.093991,366.242009 864.906,364.43 C866.718009,362.617991 868.907987,361.712 871.476,361.712 C874.332014,361.712 876.671991,362.779989 878.496,364.916 L878.496,353.216 Z M866.58,376.004 C867.924007,377.348007 869.56799,378.02 871.512,378.02 C873.45601,378.02 875.093993,377.342007 876.426,375.986 C877.758007,374.629993 878.424,372.96801 878.424,371 C878.424,369.03199 877.758007,367.370007 876.426,366.014 C875.093993,364.657993 873.45601,363.98 871.512,363.98 C869.56799,363.98 867.924007,364.657993 866.58,366.014 C865.235993,367.370007 864.564,369.03199 864.564,371 C864.564,372.96801 865.235993,374.635993 866.58,376.004 Z" id="P-N-Junction-Electri-Copy" fill="#23ABE3"></path>
        <rect id="Rectangle-Copy" stroke="#3D3530" stroke-width="2" x="1" y="337" width="898" height="62"></rect>
    </g>
</svg>