<?xml version="1.0" encoding="UTF-8"?>
<svg width="900px" height="360px" viewBox="0 0 900 360" version="1.1" xmlns="http://www.w3.org/2000/svg" xmlns:xlink="http://www.w3.org/1999/xlink">
    <!-- Generator: Sketch 52.5 (67469) - http://www.bohemiancoding.com/sketch -->
    <title>P-N_Junction_Depletion_Region</title>
    <desc>Created with Sketch.</desc>
    <g id="P-N_Junction_Depletion_Region" stroke="none" stroke-width="1" fill="none" fill-rule="evenodd">
        <rect id="Rectangle" stroke="#3D3530" stroke-width="2" fill="#EEEEEE" x="1" y="1" width="898" height="428"></rect>
        <g id="Illustration" transform="translate(290.000000, 25.000000)">
            <g id="Lattice-Junction">
                <g id="P-Type-Lattice" transform="translate(0.000000, 35.000000)">
                    <rect id="Rectangle" stroke="#999999" stroke-width="2" fill="#D4D4D4" x="1" y="1" width="158" height="158"></rect>
                    <circle id="Oval-Copy-3" fill="#252525" cx="20.5" cy="18.5" r="10.5"></circle>
                    <circle id="Oval-Copy-5" fill="#252525" cx="20.5" cy="58.5" r="10.5"></circle>
                    <circle id="Oval-Copy-6" fill="#252525" cx="20.5" cy="98.5" r="10.5"></circle>
                    <circle id="Oval-Copy-10" fill="#252525" cx="50.5" cy="38.5" r="10.5"></circle>
                    <circle id="Oval-Copy-8" fill="#252525" cx="50.5" cy="118.5" r="10.5"></circle>
                    <g id="Negative-Ion" transform="translate(100.000000, 28.000000)">
                        <circle id="Oval-Copy-26" fill="#84D0EF" cx="10.5" cy="10.5" r="10.5"></circle>
                        <rect id="Rectangle" fill="#524740" x="6" y="10" width="9" height="1"></rect>
                    </g>
                    <circle id="Oval-Copy-25" fill="#252525" cx="110.5" cy="78.5" r="10.5"></circle>
                    <circle id="Oval-Copy-24" fill="#252525" cx="110.5" cy="118.5" r="10.5"></circle>
                    <g id="Negative-Ion" transform="translate(40.000000, 68.000000)">
                        <circle id="Oval-Copy-9" fill="#84D0EF" cx="10.5" cy="10.5" r="10.5"></circle>
                        <rect id="Rectangle" fill="#524740" x="6" y="10" width="9" height="1"></rect>
                    </g>
                    <g id="Negative-Ion" transform="translate(10.000000, 128.000000)">
                        <circle id="Oval-Copy-7" fill="#84D0EF" cx="10.5" cy="10.5" r="10.5"></circle>
                        <rect id="Rectangle" fill="#524740" x="6" y="10" width="9" height="1"></rect>
                    </g>
                    <circle id="Oval-Copy-23" fill="#252525" cx="80.5" cy="18.5" r="10.5"></circle>
                    <circle id="Oval-Copy-22" fill="#252525" cx="80.5" cy="58.5" r="10.5"></circle>
                    <g id="Negative-Ion" transform="translate(70.000000, 88.000000)">
                        <circle id="Oval-Copy-21" fill="#84D0EF" cx="10.5" cy="10.5" r="10.5"></circle>
                        <rect id="Rectangle" fill="#524740" x="6" y="10" width="9" height="1"></rect>
                    </g>
                    <circle id="Oval-Copy-20" fill="#252525" cx="80.5" cy="138.5" r="10.5"></circle>
                    <circle id="Oval-Copy-30" fill="#252525" cx="140.5" cy="18.5" r="10.5"></circle>
                    <circle id="Oval-Copy-29" fill="#252525" cx="140.5" cy="58.5" r="10.5"></circle>
                    <circle id="Oval-Copy-28" fill="#252525" cx="140.5" cy="98.5" r="10.5"></circle>
                    <circle id="Oval-Copy-27" fill="#252525" cx="140.5" cy="138.5" r="10.5"></circle>
                    <g id="Little-Ones" transform="translate(4.000000, 23.000000)" fill="#84D0EF">
                        <circle id="Oval-Copy-31" cx="25.25" cy="53.25" r="3.25"></circle>
                        <circle id="Oval-Copy-32" cx="38.25" cy="32.25" r="3.25"></circle>
                        <circle id="Oval-Copy-33" cx="28.25" cy="4.25" r="3.25"></circle>
                        <circle id="Oval-Copy-34" cx="69.25" cy="12.25" r="3.25"></circle>
                        <circle id="Oval-Copy-35" cx="79.25" cy="52.25" r="3.25"></circle>
                        <circle id="Oval-Copy-36" cx="60.25" cy="73.25" r="3.25"></circle>
                        <circle id="Oval-Copy-37" cx="35.25" cy="84.25" r="3.25"></circle>
                        <circle id="Oval-Copy-38" cx="31.25" cy="126.25" r="3.25"></circle>
                        <circle id="Oval-Copy-39" cx="3.25" cy="93.25" r="3.25"></circle>
                        <circle id="Oval-Copy-40" cx="55.25" cy="111.25" r="3.25"></circle>
                        <circle id="Oval-Copy-42" cx="90.25" cy="92.25" r="3.25"></circle>
                        <circle id="Oval-Copy-43" cx="90.25" cy="122.25" r="3.25"></circle>
                        <circle id="Oval-Copy-49" cx="96.25" cy="3.25" r="3.25"></circle>
                    </g>
                </g>
                <g id="N-Type-Lattice" transform="translate(158.000000, 35.000000)">
                    <rect id="Rectangle" stroke="#999999" stroke-width="2" fill="#7D7570" x="1" y="1" width="158" height="158"></rect>
                    <circle id="Oval-Copy-3" fill="#252525" cx="20.5" cy="18.5" r="10.5"></circle>
                    <circle id="Oval-Copy-5" fill="#252525" cx="20.5" cy="58.5" r="10.5"></circle>
                    <circle id="Oval-Copy-6" fill="#252525" cx="20.5" cy="98.5" r="10.5"></circle>
                    <circle id="Oval-Copy-10" fill="#252525" cx="50.5" cy="38.5" r="10.5"></circle>
                    <g id="Positive-Ion" transform="translate(40.000000, 68.000000)">
                        <circle id="Oval-Copy-9" fill="#D7E465" cx="10.5" cy="10.5" r="10.5"></circle>
                        <path d="M10,10 L10,6 L11,6 L11,10 L15,10 L15,11 L11,11 L11,15 L10,15 L10,11 L6,11 L6,10 L10,10 Z" id="Combined-Shape" fill="#524740"></path>
                    </g>
                    <circle id="Oval-Copy-8" fill="#252525" cx="50.5" cy="118.5" r="10.5"></circle>
                    <g id="Positive-Ion" transform="translate(100.000000, 28.000000)">
                        <circle id="Oval-Copy-26" fill="#D7E465" cx="10.5" cy="10.5" r="10.5"></circle>
                        <path d="M10,10 L10,6 L11,6 L11,10 L15,10 L15,11 L11,11 L11,15 L10,15 L10,11 L6,11 L6,10 L10,10 Z" id="Combined-Shape" fill="#524740"></path>
                    </g>
                    <circle id="Oval-Copy-25" fill="#252525" cx="110.5" cy="78.5" r="10.5"></circle>
                    <circle id="Oval-Copy-24" fill="#252525" cx="110.5" cy="118.5" r="10.5"></circle>
                    <g id="Positive-Ion" transform="translate(10.000000, 128.000000)">
                        <circle id="Oval-Copy-7" fill="#D7E465" cx="10.5" cy="10.5" r="10.5"></circle>
                        <path d="M10,10 L10,6 L11,6 L11,10 L15,10 L15,11 L11,11 L11,15 L10,15 L10,11 L6,11 L6,10 L10,10 Z" id="Combined-Shape" fill="#524740"></path>
                    </g>
                    <circle id="Oval-Copy-23" fill="#252525" cx="80.5" cy="18.5" r="10.5"></circle>
                    <circle id="Oval-Copy-22" fill="#252525" cx="80.5" cy="58.5" r="10.5"></circle>
                    <g id="Positive-Ion" transform="translate(70.000000, 88.000000)">
                        <circle id="Oval-Copy-21" fill="#D7E465" cx="10.5" cy="10.5" r="10.5"></circle>
                        <path d="M10,10 L10,6 L11,6 L11,10 L15,10 L15,11 L11,11 L11,15 L10,15 L10,11 L6,11 L6,10 L10,10 Z" id="Combined-Shape" fill="#524740"></path>
                    </g>
                    <circle id="Oval-Copy-20" fill="#252525" cx="80.5" cy="138.5" r="10.5"></circle>
                    <circle id="Oval-Copy-30" fill="#252525" cx="140.5" cy="18.5" r="10.5"></circle>
                    <circle id="Oval-Copy-29" fill="#252525" cx="140.5" cy="58.5" r="10.5"></circle>
                    <circle id="Oval-Copy-28" fill="#252525" cx="140.5" cy="98.5" r="10.5"></circle>
                    <circle id="Oval-Copy-27" fill="#252525" cx="140.5" cy="138.5" r="10.5"></circle>
                    <g id="Little-ones" transform="translate(56.000000, 8.000000)" fill="#EF7D3B">
                        <circle id="Oval-Copy-34" cx="17.25" cy="27.25" r="3.25"></circle>
                        <circle id="Oval-Copy-35" cx="27.25" cy="67.25" r="3.25"></circle>
                        <circle id="Oval-Copy-36" cx="8.25" cy="88.25" r="3.25"></circle>
                        <circle id="Oval-Copy-40" cx="3.25" cy="126.25" r="3.25"></circle>
                        <circle id="Oval-Copy-41" cx="63.25" cy="126.25" r="3.25"></circle>
                        <circle id="Oval-Copy-42" cx="38.25" cy="107.25" r="3.25"></circle>
                        <circle id="Oval-Copy-43" cx="38.25" cy="137.25" r="3.25"></circle>
                        <circle id="Oval-Copy-44" cx="78.25" cy="146.25" r="3.25"></circle>
                        <circle id="Oval-Copy-45" cx="98.25" cy="96.25" r="3.25"></circle>
                        <circle id="Oval-Copy-46" cx="67.25" cy="82.25" r="3.25"></circle>
                        <circle id="Oval-Copy-47" cx="77.25" cy="37.25" r="3.25"></circle>
                        <circle id="Oval-Copy-48" cx="67.25" cy="3.25" r="3.25"></circle>
                        <circle id="Oval-Copy-49" cx="44.25" cy="18.25" r="3.25"></circle>
                    </g>
                </g>
                <path d="M103.5,36.5 L104,195" id="Line" stroke="#979797" stroke-width="2" stroke-linecap="square" stroke-dasharray="8,8"></path>
                <path d="M213.5,36.5 L214,195" id="Line-Copy" stroke="#979797" stroke-width="2" stroke-linecap="square" stroke-dasharray="8,8"></path>
                <path d="M57.248,2.6 C58.8640081,2.6 60.1279954,2.98399616 61.04,3.752 C61.9520046,4.52000384 62.408,5.48799416 62.408,6.656 C62.408,7.82400584 61.9520046,8.7879962 61.04,9.548 C60.1279954,10.3080038 58.8640081,10.688 57.248,10.688 L55.112,10.688 L55.112,13.688 C55.112,14.888006 55.2439987,15.6559983 55.508,15.992 C55.7720013,16.3280017 56.399995,16.496 57.392,16.496 L57.392,17 L50.912,17 L50.912,16.496 C51.904005,16.496 52.5319987,16.3280017 52.796,15.992 C53.0600013,15.6559983 53.192,14.888006 53.192,13.688 L53.192,5.888 C53.192,4.687994 53.0600013,3.92400164 52.796,3.596 C52.5319987,3.26799836 51.904005,3.104 50.912,3.104 L50.912,2.6 L57.248,2.6 Z M57.224,9.824 C58.216005,9.824 58.9719974,9.52800296 59.492,8.936 C60.0120026,8.34399704 60.272,7.58400464 60.272,6.656 C60.272,5.72799536 60.0120026,4.96800296 59.492,4.376 C58.9719974,3.78399704 58.216005,3.488 57.224,3.488 L55.112,3.488 L55.112,9.824 L57.224,9.824 Z M73.2,12.608 L66.192,12.608 L66.192,11.552 L73.2,11.552 L73.2,12.608 Z M90.376,2.6 L90.592,5.84 L90.088,5.84 L89.968,5.36 C89.775999,4.6399964 89.5200016,4.15600124 89.2,3.908 C88.8799984,3.65999876 88.2080051,3.536 87.184,3.536 L84.04,3.536 L84.04,13.688 C84.04,14.888006 84.1759986,15.6559983 84.448,15.992 C84.7200014,16.3280017 85.351995,16.496 86.344,16.496 L86.344,17 L79.84,17 L79.84,16.496 C80.832005,16.496 81.4639986,16.3280017 81.736,15.992 C82.0080014,15.6559983 82.144,14.888006 82.144,13.688 L82.144,3.536 L79,3.536 C77.9759949,3.536 77.3040016,3.65999876 76.984,3.908 C76.6639984,4.15600124 76.408001,4.6399964 76.216,5.36 L76.096,5.84 L75.592,5.84 L75.808,2.6 L90.376,2.6 Z M91.544,22.688 C91.544,22.4319987 91.639999,22.204001 91.832,22.004 C92.024001,21.803999 92.2759984,21.5320017 92.588,21.188 C92.9000016,20.8439983 93.159999,20.4080026 93.368,19.88 L94.568,16.88 L91.808,10.904 C91.5519987,10.3599973 91.3120011,9.988001 91.088,9.788 C90.8639989,9.587999 90.5680018,9.488 90.2,9.488 L90.2,9.008 L94.448,9.008 L94.448,9.488 C93.9039973,9.488 93.5760006,9.57599912 93.464,9.752 C93.3519994,9.92800088 93.4239987,10.311997 93.68,10.904 L95.432,14.744 L96.968,10.904 C97.1920011,10.3599973 97.2560005,9.988001 97.16,9.788 C97.0639995,9.587999 96.7680025,9.488 96.272,9.488 L96.272,9.008 L99.632,9.008 L99.632,9.488 C98.8799962,9.488 98.3120019,9.95999528 97.928,10.904 L93.248,22.592 C93.0079988,23.184003 92.7120018,23.48 92.36,23.48 C92.151999,23.48 91.9640008,23.4160006 91.796,23.288 C91.6279992,23.1599994 91.544,22.9600014 91.544,22.688 Z M108.864,15.488 C109.328002,14.8319967 109.56,14.000005 109.56,12.992 C109.56,11.983995 109.328002,11.1600032 108.864,10.52 C108.399998,9.8799968 107.728004,9.56 106.848,9.56 C106.303997,9.56 105.820002,9.72799832 105.396,10.064 C104.971998,10.4000017 104.640001,10.8559971 104.4,11.432 L104.4,14.528 C104.640001,15.120003 104.971998,15.5879983 105.396,15.932 C105.820002,16.2760017 106.303997,16.448 106.848,16.448 C107.728004,16.448 108.399998,16.1280032 108.864,15.488 Z M104.4,19.712 C104.4,20.8960059 104.515999,21.6559983 104.748,21.992 C104.980001,22.3280017 105.495996,22.496 106.296,22.496 L106.296,23 L100.8,23 L100.8,22.496 C101.600004,22.496 102.115999,22.3320016 102.348,22.004 C102.580001,21.6759984 102.696,20.912006 102.696,19.712 L102.696,12.488 C102.696,11.287994 102.580001,10.5240016 102.348,10.196 C102.115999,9.86799836 101.600004,9.704 100.8,9.704 L100.8,9.2 L104.016,8.6 C104.112,8.77600088 104.231999,9.263996 104.376,10.064 C105.192004,9.08799512 106.183994,8.6 107.352,8.6 C108.488006,8.6 109.463996,9.02799572 110.28,9.884 C111.096004,10.7400043 111.504,11.7759939 111.504,12.992 C111.504,14.2080061 111.096004,15.2479957 110.28,16.112 C109.463996,16.9760043 108.488006,17.408 107.352,17.408 C106.167994,17.408 105.184004,16.9280048 104.4,15.968 L104.4,19.712 Z M116.872,11.504 L120.856,11.504 C121.016001,11.0559978 120.948001,10.6200021 120.652,10.196 C120.355999,9.77199788 119.848004,9.56 119.128,9.56 C118.615997,9.56 118.156002,9.73599824 117.748,10.088 C117.339998,10.4400018 117.048001,10.911997 116.872,11.504 Z M116.728,12.392 C116.583999,13.5760059 116.771997,14.5399963 117.292,15.284 C117.812003,16.0280037 118.663994,16.4 119.848,16.4 C120.248002,16.4 120.703997,16.296001 121.216,16.088 C121.728003,15.879999 122.151998,15.6160016 122.488,15.296 L122.92,15.824 C122.487998,16.2880023 121.936003,16.6679985 121.264,16.964 C120.591997,17.2600015 119.920003,17.408 119.248,17.408 C117.951994,17.408 116.888004,16.9800043 116.056,16.124 C115.223996,15.2679957 114.808,14.2240062 114.808,12.992 C114.808,11.7599938 115.259995,10.7200042 116.164,9.872 C117.068005,9.02399576 118.095994,8.6 119.248,8.6 C120.336005,8.6 121.223997,8.9799962 121.912,9.74 C122.600003,10.5000038 122.800001,11.383995 122.512,12.392 L116.728,12.392 Z" id="P-Type-Copy" fill="#524740"></path>
                <path d="M210.512,14.024 L210.512,5.888 C210.512,4.687994 210.380001,3.92400164 210.116,3.596 C209.851999,3.26799836 209.224005,3.104 208.232,3.104 L208.232,2.6 L213.704,2.6 L213.704,3.104 C212.711995,3.104 212.080001,3.26799836 211.808,3.596 C211.535999,3.92400164 211.4,4.687994 211.4,5.888 L211.4,17.408 L210.848,17.408 L201.08,5.336 L201.08,13.688 C201.08,14.888006 201.215999,15.6559983 201.488,15.992 C201.760001,16.3280017 202.391995,16.496 203.384,16.496 L203.384,17 L197.912,17 L197.912,16.496 C198.904005,16.496 199.531999,16.3280017 199.796,15.992 C200.060001,15.6559983 200.192,14.888006 200.192,13.688 L200.192,5.888 C200.192,4.687994 200.060001,3.92400164 199.796,3.596 C199.531999,3.26799836 198.904005,3.104 197.912,3.104 L197.912,2.6 L201.296,2.6 L210.512,14.024 Z M224.4,12.608 L217.392,12.608 L217.392,11.552 L224.4,11.552 L224.4,12.608 Z M241.576,2.6 L241.792,5.84 L241.288,5.84 L241.168,5.36 C240.975999,4.6399964 240.720002,4.15600124 240.4,3.908 C240.079998,3.65999876 239.408005,3.536 238.384,3.536 L235.24,3.536 L235.24,13.688 C235.24,14.888006 235.375999,15.6559983 235.648,15.992 C235.920001,16.3280017 236.551995,16.496 237.544,16.496 L237.544,17 L231.04,17 L231.04,16.496 C232.032005,16.496 232.663999,16.3280017 232.936,15.992 C233.208001,15.6559983 233.344,14.888006 233.344,13.688 L233.344,3.536 L230.2,3.536 C229.175995,3.536 228.504002,3.65999876 228.184,3.908 C227.863998,4.15600124 227.608001,4.6399964 227.416,5.36 L227.296,5.84 L226.792,5.84 L227.008,2.6 L241.576,2.6 Z M242.744,22.688 C242.744,22.4319987 242.839999,22.204001 243.032,22.004 C243.224001,21.803999 243.475998,21.5320017 243.788,21.188 C244.100002,20.8439983 244.359999,20.4080026 244.568,19.88 L245.768,16.88 L243.008,10.904 C242.751999,10.3599973 242.512001,9.988001 242.288,9.788 C242.063999,9.587999 241.768002,9.488 241.4,9.488 L241.4,9.008 L245.648,9.008 L245.648,9.488 C245.103997,9.488 244.776001,9.57599912 244.664,9.752 C244.551999,9.92800088 244.623999,10.311997 244.88,10.904 L246.632,14.744 L248.168,10.904 C248.392001,10.3599973 248.456,9.988001 248.36,9.788 C248.264,9.587999 247.968002,9.488 247.472,9.488 L247.472,9.008 L250.832,9.008 L250.832,9.488 C250.079996,9.488 249.512002,9.95999528 249.128,10.904 L244.448,22.592 C244.207999,23.184003 243.912002,23.48 243.56,23.48 C243.351999,23.48 243.164001,23.4160006 242.996,23.288 C242.827999,23.1599994 242.744,22.9600014 242.744,22.688 Z M260.064,15.488 C260.528002,14.8319967 260.76,14.000005 260.76,12.992 C260.76,11.983995 260.528002,11.1600032 260.064,10.52 C259.599998,9.8799968 258.928004,9.56 258.048,9.56 C257.503997,9.56 257.020002,9.72799832 256.596,10.064 C256.171998,10.4000017 255.840001,10.8559971 255.6,11.432 L255.6,14.528 C255.840001,15.120003 256.171998,15.5879983 256.596,15.932 C257.020002,16.2760017 257.503997,16.448 258.048,16.448 C258.928004,16.448 259.599998,16.1280032 260.064,15.488 Z M255.6,19.712 C255.6,20.8960059 255.715999,21.6559983 255.948,21.992 C256.180001,22.3280017 256.695996,22.496 257.496,22.496 L257.496,23 L252,23 L252,22.496 C252.800004,22.496 253.315999,22.3320016 253.548,22.004 C253.780001,21.6759984 253.896,20.912006 253.896,19.712 L253.896,12.488 C253.896,11.287994 253.780001,10.5240016 253.548,10.196 C253.315999,9.86799836 252.800004,9.704 252,9.704 L252,9.2 L255.216,8.6 C255.312,8.77600088 255.431999,9.263996 255.576,10.064 C256.392004,9.08799512 257.383994,8.6 258.552,8.6 C259.688006,8.6 260.663996,9.02799572 261.48,9.884 C262.296004,10.7400043 262.704,11.7759939 262.704,12.992 C262.704,14.2080061 262.296004,15.2479957 261.48,16.112 C260.663996,16.9760043 259.688006,17.408 258.552,17.408 C257.367994,17.408 256.384004,16.9280048 255.6,15.968 L255.6,19.712 Z M268.072,11.504 L272.056,11.504 C272.216001,11.0559978 272.148001,10.6200021 271.852,10.196 C271.555999,9.77199788 271.048004,9.56 270.328,9.56 C269.815997,9.56 269.356002,9.73599824 268.948,10.088 C268.539998,10.4400018 268.248001,10.911997 268.072,11.504 Z M267.928,12.392 C267.783999,13.5760059 267.971997,14.5399963 268.492,15.284 C269.012003,16.0280037 269.863994,16.4 271.048,16.4 C271.448002,16.4 271.903997,16.296001 272.416,16.088 C272.928003,15.879999 273.351998,15.6160016 273.688,15.296 L274.12,15.824 C273.687998,16.2880023 273.136003,16.6679985 272.464,16.964 C271.791997,17.2600015 271.120003,17.408 270.448,17.408 C269.151994,17.408 268.088004,16.9800043 267.256,16.124 C266.423996,15.2679957 266.008,14.2240062 266.008,12.992 C266.008,11.7599938 266.459995,10.7200042 267.364,9.872 C268.268005,9.02399576 269.295994,8.6 270.448,8.6 C271.536005,8.6 272.423997,8.9799962 273.112,9.74 C273.800003,10.5000038 274.000001,11.383995 273.712,12.392 L267.928,12.392 Z" id="N-Type-Copy" fill="#524740"></path>
            </g>
            <path d="M66.756,240 L66.756,239.496 C67.748005,239.496 68.3759987,239.328002 68.64,238.992 C68.9040013,238.655998 69.036,237.888006 69.036,236.688 L69.036,228.888 C69.036,227.687994 68.9040013,226.924002 68.64,226.596 C68.3759987,226.267998 67.748005,226.104 66.756,226.104 L66.756,225.6 L73.26,225.6 C75.9160133,225.6 77.9159933,226.271993 79.26,227.616 C80.6040067,228.960007 81.276,230.687989 81.276,232.8 C81.276,234.912011 80.6040067,236.639993 79.26,237.984 C77.9159933,239.328007 75.9160133,240 73.26,240 L66.756,240 Z M70.956,226.488 L70.956,236.328 C70.956,237.544006 71.0839987,238.311998 71.34,238.632 C71.5960013,238.952002 72.2119951,239.112 73.188,239.112 L73.284,239.112 C74.3880055,239.112 75.335996,238.920002 76.128,238.536 C76.920004,238.151998 77.511998,237.636003 77.904,236.988 C78.296002,236.339997 78.5719992,235.676003 78.732,234.996 C78.8920008,234.315997 78.972,233.584004 78.972,232.8 C78.972,232.015996 78.8920008,231.284003 78.732,230.604 C78.5719992,229.923997 78.296002,229.260003 77.904,228.612 C77.511998,227.963997 76.920004,227.448002 76.128,227.064 C75.335996,226.679998 74.3880055,226.488 73.284,226.488 L70.956,226.488 Z M87.172,234.504 L91.156,234.504 C91.3160008,234.055998 91.2480015,233.620002 90.952,233.196 C90.6559985,232.771998 90.1480036,232.56 89.428,232.56 C88.9159974,232.56 88.456002,232.735998 88.048,233.088 C87.639998,233.440002 87.3480009,233.911997 87.172,234.504 Z M87.028,235.392 C86.8839993,236.576006 87.0719974,237.539996 87.592,238.284 C88.1120026,239.028004 88.9639941,239.4 90.148,239.4 C90.548002,239.4 91.0039974,239.296001 91.516,239.088 C92.0280026,238.879999 92.4519983,238.616002 92.788,238.296 L93.22,238.824 C92.7879978,239.288002 92.2360034,239.667999 91.564,239.964 C90.8919966,240.260001 90.2200034,240.408 89.548,240.408 C88.2519935,240.408 87.1880042,239.980004 86.356,239.124 C85.5239958,238.267996 85.108,237.224006 85.108,235.992 C85.108,234.759994 85.5599955,233.720004 86.464,232.872 C87.3680045,232.023996 88.3959942,231.6 89.548,231.6 C90.6360054,231.6 91.5239966,231.979996 92.212,232.74 C92.9000034,233.500004 93.1000014,234.383995 92.812,235.392 L87.028,235.392 Z M103.604,238.488 C104.068002,237.831997 104.3,237.000005 104.3,235.992 C104.3,234.983995 104.068002,234.160003 103.604,233.52 C103.139998,232.879997 102.468004,232.56 101.588,232.56 C101.043997,232.56 100.560002,232.727998 100.136,233.064 C99.7119979,233.400002 99.3800012,233.855997 99.14,234.432 L99.14,237.528 C99.3800012,238.120003 99.7119979,238.587998 100.136,238.932 C100.560002,239.276002 101.043997,239.448 101.588,239.448 C102.468004,239.448 103.139998,239.128003 103.604,238.488 Z M99.14,242.712 C99.14,243.896006 99.2559988,244.655998 99.488,244.992 C99.7200012,245.328002 100.235996,245.496 101.036,245.496 L101.036,246 L95.54,246 L95.54,245.496 C96.340004,245.496 96.8559988,245.332002 97.088,245.004 C97.3200012,244.675998 97.436,243.912006 97.436,242.712 L97.436,235.488 C97.436,234.287994 97.3200012,233.524002 97.088,233.196 C96.8559988,232.867998 96.340004,232.704 95.54,232.704 L95.54,232.2 L98.756,231.6 C98.8520005,231.776001 98.9719993,232.263996 99.116,233.064 C99.9320041,232.087995 100.923994,231.6 102.092,231.6 C103.228006,231.6 104.203996,232.027996 105.02,232.884 C105.836004,233.740004 106.244,234.775994 106.244,235.992 C106.244,237.208006 105.836004,238.247996 105.02,239.112 C104.203996,239.976004 103.228006,240.408 102.092,240.408 C100.907994,240.408 99.9240039,239.928005 99.14,238.968 L99.14,242.712 Z M114.348,240 L108.852,240 L108.852,239.496 C109.652004,239.496 110.167999,239.328002 110.4,238.992 C110.632001,238.655998 110.748,237.888006 110.748,236.688 L110.748,229.104 C110.748,227.903994 110.632001,227.136002 110.4,226.8 C110.167999,226.463998 109.652004,226.296 108.852,226.296 L108.852,225.792 L112.452,225.192 L112.452,236.688 C112.452,237.888006 112.567999,238.655998 112.8,238.992 C113.032001,239.328002 113.547996,239.496 114.348,239.496 L114.348,240 Z M119.044,234.504 L123.028,234.504 C123.188001,234.055998 123.120001,233.620002 122.824,233.196 C122.527999,232.771998 122.020004,232.56 121.3,232.56 C120.787997,232.56 120.328002,232.735998 119.92,233.088 C119.511998,233.440002 119.220001,233.911997 119.044,234.504 Z M118.9,235.392 C118.755999,236.576006 118.943997,237.539996 119.464,238.284 C119.984003,239.028004 120.835994,239.4 122.02,239.4 C122.420002,239.4 122.875997,239.296001 123.388,239.088 C123.900003,238.879999 124.323998,238.616002 124.66,238.296 L125.092,238.824 C124.659998,239.288002 124.108003,239.667999 123.436,239.964 C122.763997,240.260001 122.092003,240.408 121.42,240.408 C120.123994,240.408 119.060004,239.980004 118.228,239.124 C117.395996,238.267996 116.98,237.224006 116.98,235.992 C116.98,234.759994 117.431995,233.720004 118.336,232.872 C119.240005,232.023996 120.267994,231.6 121.42,231.6 C122.508005,231.6 123.395997,231.979996 124.084,232.74 C124.772003,233.500004 124.972001,234.383995 124.684,235.392 L118.9,235.392 Z M128.876,232.848 L127.628,232.848 L127.628,232.272 C128.316003,232.127999 128.819998,231.816002 129.14,231.336 C129.460002,230.855998 129.668,230.200004 129.764,229.368 L130.58,229.368 L130.58,232.008 L132.668,232.008 L132.668,232.848 L130.58,232.848 L130.58,237.648 C130.58,238.800006 130.939996,239.376 131.66,239.376 C132.124002,239.376 132.643997,239.104003 133.22,238.56 L133.628,238.968 C133.291998,239.368002 132.888002,239.695999 132.416,239.952 C131.943998,240.208001 131.508002,240.336 131.108,240.336 C130.419997,240.336 129.876002,240.112002 129.476,239.664 C129.075998,239.215998 128.876,238.544004 128.876,237.648 L128.876,232.848 Z M141.444,240 L135.948,240 L135.948,239.496 C136.748004,239.496 137.263999,239.328002 137.496,238.992 C137.728001,238.655998 137.844,237.888006 137.844,236.688 L137.844,235.488 C137.844,234.303994 137.728001,233.544002 137.496,233.208 C137.263999,232.871998 136.748004,232.704 135.948,232.704 L135.948,232.2 L139.548,231.6 L139.548,236.688 C139.548,237.888006 139.663999,238.655998 139.896,238.992 C140.128001,239.328002 140.643996,239.496 141.444,239.496 L141.444,240 Z M139.74,228.168 C139.74,228.472002 139.636001,228.727999 139.428,228.936 C139.219999,229.144001 138.972001,229.248 138.684,229.248 C138.395999,229.248 138.148001,229.144001 137.94,228.936 C137.731999,228.727999 137.628,228.472002 137.628,228.168 C137.628,227.879999 137.731999,227.632001 137.94,227.424 C138.148001,227.215999 138.395999,227.112 138.684,227.112 C138.972001,227.112 139.219999,227.215999 139.428,227.424 C139.636001,227.632001 139.74,227.879999 139.74,228.168 Z M152.308,232.896 C153.268005,233.744004 153.748,234.775994 153.748,235.992 C153.748,237.208006 153.272005,238.247996 152.32,239.112 C151.367995,239.976004 150.228007,240.408 148.9,240.408 C147.571993,240.408 146.432005,239.976004 145.48,239.112 C144.527995,238.247996 144.052,237.208006 144.052,235.992 C144.052,234.775994 144.527995,233.740004 145.48,232.884 C146.432005,232.027996 147.571993,231.6 148.9,231.6 C150.228007,231.6 151.363995,232.031996 152.308,232.896 Z M151.06,238.512 C151.556002,237.855997 151.804,237.016005 151.804,235.992 C151.804,234.967995 151.556002,234.132003 151.06,233.484 C150.563998,232.835997 149.844005,232.512 148.9,232.512 C147.955995,232.512 147.236002,232.839997 146.74,233.496 C146.243998,234.152003 145.996,234.983995 145.996,235.992 C145.996,237.000005 146.243998,237.831997 146.74,238.488 C147.236002,239.144003 147.955995,239.472 148.9,239.472 C149.844005,239.472 150.563998,239.152003 151.06,238.512 Z M160.412,233.328 C161.324005,232.175994 162.435993,231.6 163.748,231.6 C164.788005,231.6 165.567997,231.927997 166.088,232.584 C166.608003,233.240003 166.868,234.103995 166.868,235.176 L166.868,236.688 C166.868,237.888006 166.983999,238.655998 167.216,238.992 C167.448001,239.328002 167.963996,239.496 168.764,239.496 L168.764,240 L163.268,240 L163.268,239.496 C164.052004,239.496 164.563999,239.324002 164.804,238.98 C165.044001,238.635998 165.164,237.872006 165.164,236.688 L165.164,235.296 C165.164,233.583991 164.500007,232.728 163.172,232.728 C162.483997,232.728 161.852003,232.967998 161.276,233.448 C160.699997,233.928002 160.412,234.487997 160.412,235.128 L160.412,236.688 C160.412,237.920006 160.507999,238.695998 160.7,239.016 C160.892001,239.336002 161.355996,239.496 162.092,239.496 L162.092,240 L156.812,240 L156.812,239.496 C157.612004,239.496 158.127999,239.328002 158.36,238.992 C158.592001,238.655998 158.708,237.888006 158.708,236.688 L158.708,235.488 C158.708,234.303994 158.592001,233.544002 158.36,233.208 C158.127999,232.871998 157.612004,232.704 156.812,232.704 L156.812,232.2 L160.004,231.6 C160.148001,231.904002 160.283999,232.479996 160.412,233.328 Z M184.036,232.824 C185.028005,232.824 185.783997,232.528003 186.304,231.936 C186.824003,231.343997 187.084,230.584005 187.084,229.656 C187.084,228.727995 186.824003,227.968003 186.304,227.376 C185.783997,226.783997 185.028005,226.488 184.036,226.488 L181.924,226.488 L181.924,232.824 L184.036,232.824 Z M184.948,233.688 L187.3,236.448 C188.868008,238.320009 190.355993,239.335999 191.764,239.496 L191.764,240 L187.804,240 L183.052,233.688 L181.924,233.688 L181.924,236.688 C181.924,237.888006 182.055999,238.655998 182.32,238.992 C182.584001,239.328002 183.211995,239.496 184.204,239.496 L184.204,240 L177.724,240 L177.724,239.496 C178.716005,239.496 179.343999,239.328002 179.608,238.992 C179.872001,238.655998 180.004,237.888006 180.004,236.688 L180.004,228.888 C180.004,227.687994 179.872001,226.924002 179.608,226.596 C179.343999,226.267998 178.716005,226.104 177.724,226.104 L177.724,225.6 L184.06,225.6 C185.676008,225.6 186.939995,225.983996 187.852,226.752 C188.764005,227.520004 189.22,228.487994 189.22,229.656 C189.22,230.728005 188.840004,231.631996 188.08,232.368 C187.319996,233.104004 186.276007,233.543999 184.948,233.688 Z M195.908,234.504 L199.892,234.504 C200.052001,234.055998 199.984001,233.620002 199.688,233.196 C199.391999,232.771998 198.884004,232.56 198.164,232.56 C197.651997,232.56 197.192002,232.735998 196.784,233.088 C196.375998,233.440002 196.084001,233.911997 195.908,234.504 Z M195.764,235.392 C195.619999,236.576006 195.807997,237.539996 196.328,238.284 C196.848003,239.028004 197.699994,239.4 198.884,239.4 C199.284002,239.4 199.739997,239.296001 200.252,239.088 C200.764003,238.879999 201.187998,238.616002 201.524,238.296 L201.956,238.824 C201.523998,239.288002 200.972003,239.667999 200.3,239.964 C199.627997,240.260001 198.956003,240.408 198.284,240.408 C196.987994,240.408 195.924004,239.980004 195.092,239.124 C194.259996,238.267996 193.844,237.224006 193.844,235.992 C193.844,234.759994 194.295995,233.720004 195.2,232.872 C196.104005,232.023996 197.131994,231.6 198.284,231.6 C199.372005,231.6 200.259997,231.979996 200.948,232.74 C201.636003,233.500004 201.836001,234.383995 201.548,235.392 L195.764,235.392 Z M209.676,236.664 C209.980002,236.199998 210.132,235.600004 210.132,234.864 C210.132,234.127996 209.984001,233.528002 209.688,233.064 C209.391999,232.599998 208.964003,232.368 208.404,232.368 C207.843997,232.368 207.412002,232.599998 207.108,233.064 C206.803998,233.528002 206.652,234.127996 206.652,234.864 C206.652,235.600004 206.803998,236.195998 207.108,236.652 C207.412002,237.108002 207.843997,237.336 208.404,237.336 C208.964003,237.336 209.387999,237.112002 209.676,236.664 Z M206.172,239.136 C206.172,239.616002 206.899993,239.919999 208.356,240.048 C209.892008,240.176001 211.003997,240.527997 211.692,241.104 C212.380003,241.680003 212.724,242.375996 212.724,243.192 C212.724,244.168005 212.320004,244.947997 211.512,245.532 C210.703996,246.116003 209.692006,246.408 208.476,246.408 C207.179994,246.408 206.136004,246.140003 205.344,245.604 C204.551996,245.067997 204.188,244.440004 204.252,243.72 C204.316,242.999996 204.827995,242.392002 205.788,241.896 L206.22,242.16 C205.755998,242.688003 205.508,243.171998 205.476,243.612 C205.444,244.052002 205.583998,244.399999 205.896,244.656 C206.208002,244.912001 206.591998,245.111999 207.048,245.256 C207.504002,245.400001 207.979998,245.472 208.476,245.472 C209.260004,245.472 209.951997,245.300002 210.552,244.956 C211.152003,244.611998 211.452,244.168003 211.452,243.624 C211.452,243.095997 211.192003,242.712001 210.672,242.472 C210.151997,242.231999 209.340006,242.056001 208.236,241.944 C205.963989,241.719999 204.828,240.976006 204.828,239.712 C204.828,238.847996 205.499993,238.208002 206.844,237.792 C206.219997,237.503999 205.728002,237.104003 205.368,236.592 C205.007998,236.079997 204.828,235.504003 204.828,234.864 C204.828,233.967996 205.175997,233.200003 205.872,232.56 C206.568003,231.919997 207.411995,231.6 208.404,231.6 C209.364005,231.6 210.187997,231.903997 210.876,232.512 C211.084001,232.255999 211.367998,232.040001 211.728,231.864 C212.088002,231.687999 212.403999,231.6 212.676,231.6 C213.380004,231.6 213.827999,231.895997 214.02,232.488 C214.164001,232.936002 214.092001,233.271999 213.804,233.496 C213.708,233.576 213.596001,233.616 213.468,233.616 C213.227999,233.632 213.048001,233.584001 212.928,233.472 C212.807999,233.359999 212.736,233.236001 212.712,233.1 C212.688,232.963999 212.624001,232.836001 212.52,232.716 C212.415999,232.595999 212.252001,232.536 212.028,232.536 C211.787999,232.536 211.540001,232.663999 211.284,232.92 C211.748002,233.480003 211.98,234.127996 211.98,234.864 C211.98,235.712004 211.668003,236.439997 211.044,237.048 C210.419997,237.656003 209.692004,238.015999 208.86,238.128 C207.067991,238.336001 206.172,238.671998 206.172,239.136 Z M221.38,240 L215.884,240 L215.884,239.496 C216.684004,239.496 217.199999,239.328002 217.432,238.992 C217.664001,238.655998 217.78,237.888006 217.78,236.688 L217.78,235.488 C217.78,234.303994 217.664001,233.544002 217.432,233.208 C217.199999,232.871998 216.684004,232.704 215.884,232.704 L215.884,232.2 L219.484,231.6 L219.484,236.688 C219.484,237.888006 219.599999,238.655998 219.832,238.992 C220.064001,239.328002 220.579996,239.496 221.38,239.496 L221.38,240 Z M219.676,228.168 C219.676,228.472002 219.572001,228.727999 219.364,228.936 C219.155999,229.144001 218.908001,229.248 218.62,229.248 C218.331999,229.248 218.084001,229.144001 217.876,228.936 C217.667999,228.727999 217.564,228.472002 217.564,228.168 C217.564,227.879999 217.667999,227.632001 217.876,227.424 C218.084001,227.215999 218.331999,227.112 218.62,227.112 C218.908001,227.112 219.155999,227.215999 219.364,227.424 C219.572001,227.632001 219.676,227.879999 219.676,228.168 Z M232.244,232.896 C233.204005,233.744004 233.684,234.775994 233.684,235.992 C233.684,237.208006 233.208005,238.247996 232.256,239.112 C231.303995,239.976004 230.164007,240.408 228.836,240.408 C227.507993,240.408 226.368005,239.976004 225.416,239.112 C224.463995,238.247996 223.988,237.208006 223.988,235.992 C223.988,234.775994 224.463995,233.740004 225.416,232.884 C226.368005,232.027996 227.507993,231.6 228.836,231.6 C230.164007,231.6 231.299995,232.031996 232.244,232.896 Z M230.996,238.512 C231.492002,237.855997 231.74,237.016005 231.74,235.992 C231.74,234.967995 231.492002,234.132003 230.996,233.484 C230.499998,232.835997 229.780005,232.512 228.836,232.512 C227.891995,232.512 227.172002,232.839997 226.676,233.496 C226.179998,234.152003 225.932,234.983995 225.932,235.992 C225.932,237.000005 226.179998,237.831997 226.676,238.488 C227.172002,239.144003 227.891995,239.472 228.836,239.472 C229.780005,239.472 230.499998,239.152003 230.996,238.512 Z M240.348,233.328 C241.260005,232.175994 242.371993,231.6 243.684,231.6 C244.724005,231.6 245.503997,231.927997 246.024,232.584 C246.544003,233.240003 246.804,234.103995 246.804,235.176 L246.804,236.688 C246.804,237.888006 246.919999,238.655998 247.152,238.992 C247.384001,239.328002 247.899996,239.496 248.7,239.496 L248.7,240 L243.204,240 L243.204,239.496 C243.988004,239.496 244.499999,239.324002 244.74,238.98 C244.980001,238.635998 245.1,237.872006 245.1,236.688 L245.1,235.296 C245.1,233.583991 244.436007,232.728 243.108,232.728 C242.419997,232.728 241.788003,232.967998 241.212,233.448 C240.635997,233.928002 240.348,234.487997 240.348,235.128 L240.348,236.688 C240.348,237.920006 240.443999,238.695998 240.636,239.016 C240.828001,239.336002 241.291996,239.496 242.028,239.496 L242.028,240 L236.748,240 L236.748,239.496 C237.548004,239.496 238.063999,239.328002 238.296,238.992 C238.528001,238.655998 238.644,237.888006 238.644,236.688 L238.644,235.488 C238.644,234.303994 238.528001,233.544002 238.296,233.208 C238.063999,232.871998 237.548004,232.704 236.748,232.704 L236.748,232.2 L239.94,231.6 C240.084001,231.904002 240.219999,232.479996 240.348,233.328 Z M38.936,266.16 L38.408,266.664 C34.807982,263.719985 33.008,260.472018 33.008,256.92 C33.008,253.383982 34.7999821,250.136015 38.384,247.176 L38.936,247.68 C38.4239974,248.256003 38.0000017,248.755998 37.664,249.18 C37.3279983,249.604002 36.8920027,250.235996 36.356,251.076 C35.8199973,251.916004 35.4080014,252.831995 35.12,253.824 C34.8319986,254.816005 34.688,255.847995 34.688,256.92 C34.688,257.992005 34.8319986,259.023995 35.12,260.016 C35.4080014,261.008005 35.8199973,261.923996 36.356,262.764 C36.8920027,263.604004 37.3279983,264.235998 37.664,264.66 C38.0000017,265.084002 38.4239974,265.583997 38.936,266.16 Z M45.12,257.328 C46.0320046,256.175994 47.1439934,255.6 48.456,255.6 C49.4960052,255.6 50.2759974,255.927997 50.796,256.584 C51.3160026,257.240003 51.576,258.103995 51.576,259.176 L51.576,260.688 C51.576,261.888006 51.6919988,262.655998 51.924,262.992 C52.1560012,263.328002 52.671996,263.496 53.472,263.496 L53.472,264 L47.976,264 L47.976,263.496 C48.7600039,263.496 49.2719988,263.324002 49.512,262.98 C49.7520012,262.635998 49.872,261.872006 49.872,260.688 L49.872,259.296 C49.872,257.583991 49.2080066,256.728 47.88,256.728 C47.1919966,256.728 46.5600029,256.967998 45.984,257.448 C45.4079971,257.928002 45.12,258.487997 45.12,259.128 L45.12,260.688 C45.12,261.920006 45.215999,262.695998 45.408,263.016 C45.600001,263.336002 46.0639963,263.496 46.8,263.496 L46.8,264 L41.52,264 L41.52,263.496 C42.320004,263.496 42.8359988,263.328002 43.068,262.992 C43.3000012,262.655998 43.416,261.888006 43.416,260.688 L43.416,259.488 C43.416,258.303994 43.3000012,257.544002 43.068,257.208 C42.8359988,256.871998 42.320004,256.704 41.52,256.704 L41.52,256.2 L44.712,255.6 C44.8560007,255.904002 44.9919994,256.479996 45.12,257.328 Z M64.336,256.896 C65.2960048,257.744004 65.776,258.775994 65.776,259.992 C65.776,261.208006 65.3000048,262.247996 64.348,263.112 C63.3959952,263.976004 62.2560066,264.408 60.928,264.408 C59.5999934,264.408 58.4600048,263.976004 57.508,263.112 C56.5559952,262.247996 56.08,261.208006 56.08,259.992 C56.08,258.775994 56.5559952,257.740004 57.508,256.884 C58.4600048,256.027996 59.5999934,255.6 60.928,255.6 C62.2560066,255.6 63.3919953,256.031996 64.336,256.896 Z M63.088,262.512 C63.5840025,261.855997 63.832,261.016005 63.832,259.992 C63.832,258.967995 63.5840025,258.132003 63.088,257.484 C62.5919975,256.835997 61.8720047,256.512 60.928,256.512 C59.9839953,256.512 59.2640025,256.839997 58.768,257.496 C58.2719975,258.152003 58.024,258.983995 58.024,259.992 C58.024,261.000005 58.2719975,261.831997 58.768,262.488 C59.2640025,263.144003 59.9839953,263.472 60.928,263.472 C61.8720047,263.472 62.5919975,263.152003 63.088,262.512 Z M79.032,256.008 L86.52,256.008 L86.52,257.328 C86.7760013,256.847998 87.1439976,256.440002 87.624,256.104 C88.1040024,255.767998 88.5839976,255.6 89.064,255.6 C89.672003,255.6 90.1359984,255.759998 90.456,256.08 C90.7760016,256.400002 90.936,256.735998 90.936,257.088 C90.936,257.840004 90.6160032,258.216 89.976,258.216 C89.7519989,258.216 89.5560008,258.128001 89.388,257.952 C89.2199992,257.775999 89.136,257.576001 89.136,257.352 C89.136,256.823997 88.8880025,256.56 88.392,256.56 C88.0079981,256.56 87.6000022,256.815997 87.168,257.328 C86.7359978,257.840003 86.52,258.519996 86.52,259.368 L86.52,260.688 C86.52,261.888006 86.6359988,262.655998 86.868,262.992 C87.1000012,263.328002 87.615996,263.496 88.416,263.496 L88.416,264 L82.92,264 L82.92,263.496 C83.720004,263.496 84.2359988,263.328002 84.468,262.992 C84.7000012,262.655998 84.816,261.888006 84.816,260.688 L84.816,259.656 C84.816,258.455994 84.7000012,257.688002 84.468,257.352 C84.2359988,257.015998 83.720004,256.848 82.92,256.848 L79.032,256.848 L79.032,260.688 C79.032,261.888006 79.1479988,262.655998 79.38,262.992 C79.6120012,263.328002 80.127996,263.496 80.928,263.496 L80.928,264 L75.432,264 L75.432,263.496 C76.232004,263.496 76.7479988,263.328002 76.98,262.992 C77.2120012,262.655998 77.328,261.888006 77.328,260.688 L77.328,256.848 L75.36,256.848 L75.36,256.008 L77.328,256.008 L77.328,253.704 C77.328,252.183992 77.7079962,251.052004 78.468,250.308 C79.2280038,249.563996 80.1599945,249.192 81.264,249.192 C82.3040052,249.192 83.0319979,249.559996 83.448,250.296 C83.7520015,250.824003 83.7600014,251.255998 83.472,251.592 C83.3439994,251.752001 83.1440014,251.832 82.872,251.832 C82.6159987,251.832 82.4160007,251.736001 82.272,251.544 C82.1279993,251.351999 82.0320002,251.140001 81.984,250.908 C81.9359998,250.675999 81.816001,250.464001 81.624,250.272 C81.431999,250.079999 81.1680017,249.984 80.832,249.984 C80.2079969,249.984 79.7520014,250.267997 79.464,250.836 C79.1759986,251.404003 79.032,252.359993 79.032,253.704 L79.032,256.008 Z M95.272,258.504 L99.256,258.504 C99.4160008,258.055998 99.3480015,257.620002 99.052,257.196 C98.7559985,256.771998 98.2480036,256.56 97.528,256.56 C97.0159974,256.56 96.556002,256.735998 96.148,257.088 C95.739998,257.440002 95.4480009,257.911997 95.272,258.504 Z M95.128,259.392 C94.9839993,260.576006 95.1719974,261.539996 95.692,262.284 C96.2120026,263.028004 97.0639941,263.4 98.248,263.4 C98.648002,263.4 99.1039974,263.296001 99.616,263.088 C100.128003,262.879999 100.551998,262.616002 100.888,262.296 L101.32,262.824 C100.887998,263.288002 100.336003,263.667999 99.664,263.964 C98.9919966,264.260001 98.3200034,264.408 97.648,264.408 C96.3519935,264.408 95.2880042,263.980004 94.456,263.124 C93.6239958,262.267996 93.208,261.224006 93.208,259.992 C93.208,258.759994 93.6599955,257.720004 94.564,256.872 C95.4680045,256.023996 96.4959942,255.6 97.648,255.6 C98.7360054,255.6 99.6239966,255.979996 100.312,256.74 C101.000003,257.500004 101.200001,258.383995 100.912,259.392 L95.128,259.392 Z M106.4,258.504 L110.384,258.504 C110.544001,258.055998 110.476001,257.620002 110.18,257.196 C109.883999,256.771998 109.376004,256.56 108.656,256.56 C108.143997,256.56 107.684002,256.735998 107.276,257.088 C106.867998,257.440002 106.576001,257.911997 106.4,258.504 Z M106.256,259.392 C106.111999,260.576006 106.299997,261.539996 106.82,262.284 C107.340003,263.028004 108.191994,263.4 109.376,263.4 C109.776002,263.4 110.231997,263.296001 110.744,263.088 C111.256003,262.879999 111.679998,262.616002 112.016,262.296 L112.448,262.824 C112.015998,263.288002 111.464003,263.667999 110.792,263.964 C110.119997,264.260001 109.448003,264.408 108.776,264.408 C107.479994,264.408 106.416004,263.980004 105.584,263.124 C104.751996,262.267996 104.336,261.224006 104.336,259.992 C104.336,258.759994 104.787995,257.720004 105.692,256.872 C106.596005,256.023996 107.623994,255.6 108.776,255.6 C109.864005,255.6 110.751997,255.979996 111.44,256.74 C112.128003,257.500004 112.328001,258.383995 112.04,259.392 L106.256,259.392 Z M126.304,256.368 C125.663997,256.368 125.120002,256.735996 124.672,257.472 C124.223998,258.208004 124,259.119995 124,260.208 C124,261.200005 124.243998,261.979997 124.732,262.548 C125.220002,263.116003 125.943995,263.4 126.904,263.4 C127.832005,263.4 128.687996,263.032004 129.472,262.296 L129.88,262.824 C128.903995,263.880005 127.712007,264.408 126.304,264.408 C124.991993,264.408 123.956004,264.016004 123.196,263.232 C122.435996,262.447996 122.056,261.440006 122.056,260.208 C122.056,258.879993 122.503996,257.780004 123.4,256.908 C124.296004,256.035996 125.263995,255.6 126.304,255.6 C127.248005,255.6 127.959998,255.767998 128.44,256.104 C128.920002,256.440002 129.16,256.847998 129.16,257.328 C129.16,257.584001 129.076001,257.819999 128.908,258.036 C128.739999,258.252001 128.472002,258.36 128.104,258.36 C127.847999,258.36 127.628001,258.268001 127.444,258.084 C127.259999,257.899999 127.168,257.672001 127.168,257.4 C127.168,256.711997 126.880003,256.368 126.304,256.368 Z M143.408,264 L138.104,264 L138.104,263.496 C138.856004,263.496 139.327999,263.336002 139.52,263.016 C139.712001,262.695998 139.808,261.920006 139.808,260.688 L139.808,259.296 C139.808,257.583991 139.200006,256.728 137.984,256.728 C137.343997,256.728 136.752003,256.963998 136.208,257.436 C135.663997,257.908002 135.392,258.471997 135.392,259.128 L135.392,260.688 C135.392,261.936006 135.479999,262.715998 135.656,263.028 C135.832001,263.340002 136.247997,263.496 136.904,263.496 L136.904,264 L131.792,264 L131.792,263.496 C132.592004,263.496 133.107999,263.328002 133.34,262.992 C133.572001,262.655998 133.688,261.888006 133.688,260.688 L133.688,253.104 C133.688,251.903994 133.572001,251.136002 133.34,250.8 C133.107999,250.463998 132.592004,250.296 131.792,250.296 L131.792,249.792 L135.392,249.192 L135.392,257.328 C136.336005,256.175994 137.383994,255.6 138.536,255.6 C140.50401,255.6 141.488,256.791988 141.488,259.176 L141.488,260.688 C141.488,261.888006 141.603999,262.655998 141.836,262.992 C142.068001,263.328002 142.591996,263.496 143.408,263.496 L143.408,264 Z M154.152,263.52 C153.687998,264.016002 153.160003,264.264 152.568,264.264 C151.607995,264.264 151.064001,263.800005 150.936,262.872 C149.863995,263.832005 148.864005,264.312 147.936,264.312 C147.327997,264.312 146.816002,264.132002 146.4,263.772 C145.983998,263.411998 145.776,262.920003 145.776,262.296 C145.776,260.615992 147.479983,259.480003 150.888,258.888 C150.888,257.943995 150.784001,257.288002 150.576,256.92 C150.367999,256.551998 149.936003,256.368 149.28,256.368 C148.959998,256.368 148.652001,256.471999 148.356,256.68 C148.059999,256.888001 147.912,257.167998 147.912,257.52 C147.912,257.760001 147.832001,257.959999 147.672,258.12 C147.511999,258.280001 147.320001,258.36 147.096,258.36 C146.855999,258.36 146.656001,258.280001 146.496,258.12 C146.335999,257.959999 146.256,257.760001 146.256,257.52 C146.256,256.959997 146.563997,256.500002 147.18,256.14 C147.796003,255.779998 148.503996,255.6 149.304,255.6 C150.472006,255.6 151.311997,255.855997 151.824,256.368 C152.336003,256.880003 152.592,257.711994 152.592,258.864 L152.592,262.488 C152.592,263.112003 152.775998,263.424 153.144,263.424 C153.352001,263.424 153.575999,263.304001 153.816,263.064 L154.152,263.52 Z M150.888,262.08 L150.888,259.632 C148.679989,260.144003 147.576,260.935995 147.576,262.008 C147.576,262.376002 147.683999,262.671999 147.9,262.896 C148.116001,263.120001 148.383998,263.232 148.704,263.232 C149.296003,263.232 150.023996,262.848004 150.888,262.08 Z M164.464,257.088 C164.464,257.840004 164.144003,258.216 163.504,258.216 C163.279999,258.216 163.084001,258.128001 162.916,257.952 C162.747999,257.775999 162.664,257.576001 162.664,257.352 C162.664,256.823997 162.408003,256.56 161.896,256.56 C161.527998,256.56 161.128002,256.815997 160.696,257.328 C160.263998,257.840003 160.048,258.519996 160.048,259.368 L160.048,260.688 C160.048,261.888006 160.163999,262.655998 160.396,262.992 C160.628001,263.328002 161.143996,263.496 161.944,263.496 L161.944,264 L156.448,264 L156.448,263.496 C157.248004,263.496 157.763999,263.328002 157.996,262.992 C158.228001,262.655998 158.344,261.888006 158.344,260.688 L158.344,259.488 C158.344,258.303994 158.228001,257.544002 157.996,257.208 C157.763999,256.871998 157.248004,256.704 156.448,256.704 L156.448,256.2 L159.64,255.6 C159.784001,255.904002 159.919999,256.479996 160.048,257.328 C160.288001,256.847998 160.647998,256.440002 161.128,256.104 C161.608002,255.767998 162.087998,255.6 162.568,255.6 C163.176003,255.6 163.643998,255.759998 163.972,256.08 C164.300002,256.400002 164.464,256.735998 164.464,257.088 Z M171.824,260.664 C172.128002,260.199998 172.28,259.600004 172.28,258.864 C172.28,258.127996 172.132001,257.528002 171.836,257.064 C171.539999,256.599998 171.112003,256.368 170.552,256.368 C169.991997,256.368 169.560002,256.599998 169.256,257.064 C168.951998,257.528002 168.8,258.127996 168.8,258.864 C168.8,259.600004 168.951998,260.195998 169.256,260.652 C169.560002,261.108002 169.991997,261.336 170.552,261.336 C171.112003,261.336 171.535999,261.112002 171.824,260.664 Z M168.32,263.136 C168.32,263.616002 169.047993,263.919999 170.504,264.048 C172.040008,264.176001 173.151997,264.527997 173.84,265.104 C174.528003,265.680003 174.872,266.375996 174.872,267.192 C174.872,268.168005 174.468004,268.947997 173.66,269.532 C172.851996,270.116003 171.840006,270.408 170.624,270.408 C169.327994,270.408 168.284004,270.140003 167.492,269.604 C166.699996,269.067997 166.336,268.440004 166.4,267.72 C166.464,266.999996 166.975995,266.392002 167.936,265.896 L168.368,266.16 C167.903998,266.688003 167.656,267.171998 167.624,267.612 C167.592,268.052002 167.731998,268.399999 168.044,268.656 C168.356002,268.912001 168.739998,269.111999 169.196,269.256 C169.652002,269.400001 170.127998,269.472 170.624,269.472 C171.408004,269.472 172.099997,269.300002 172.7,268.956 C173.300003,268.611998 173.6,268.168003 173.6,267.624 C173.6,267.095997 173.340003,266.712001 172.82,266.472 C172.299997,266.231999 171.488006,266.056001 170.384,265.944 C168.111989,265.719999 166.976,264.976006 166.976,263.712 C166.976,262.847996 167.647993,262.208002 168.992,261.792 C168.367997,261.503999 167.876002,261.104003 167.516,260.592 C167.155998,260.079997 166.976,259.504003 166.976,258.864 C166.976,257.967996 167.323997,257.200003 168.02,256.56 C168.716003,255.919997 169.559995,255.6 170.552,255.6 C171.512005,255.6 172.335997,255.903997 173.024,256.512 C173.232001,256.255999 173.515998,256.040001 173.876,255.864 C174.236002,255.687999 174.551999,255.6 174.824,255.6 C175.528004,255.6 175.975999,255.895997 176.168,256.488 C176.312001,256.936002 176.240001,257.271999 175.952,257.496 C175.856,257.576 175.744001,257.616 175.616,257.616 C175.375999,257.632 175.196001,257.584001 175.076,257.472 C174.955999,257.359999 174.884,257.236001 174.86,257.1 C174.836,256.963999 174.772001,256.836001 174.668,256.716 C174.563999,256.595999 174.400001,256.536 174.176,256.536 C173.935999,256.536 173.688001,256.663999 173.432,256.92 C173.896002,257.480003 174.128,258.127996 174.128,258.864 C174.128,259.712004 173.816003,260.439997 173.192,261.048 C172.567997,261.656003 171.840004,262.015999 171.008,262.128 C169.215991,262.336001 168.32,262.671998 168.32,263.136 Z M180.336,258.504 L184.32,258.504 C184.480001,258.055998 184.412001,257.620002 184.116,257.196 C183.819999,256.771998 183.312004,256.56 182.592,256.56 C182.079997,256.56 181.620002,256.735998 181.212,257.088 C180.803998,257.440002 180.512001,257.911997 180.336,258.504 Z M180.192,259.392 C180.047999,260.576006 180.235997,261.539996 180.756,262.284 C181.276003,263.028004 182.127994,263.4 183.312,263.4 C183.712002,263.4 184.167997,263.296001 184.68,263.088 C185.192003,262.879999 185.615998,262.616002 185.952,262.296 L186.384,262.824 C185.951998,263.288002 185.400003,263.667999 184.728,263.964 C184.055997,264.260001 183.384003,264.408 182.712,264.408 C181.415994,264.408 180.352004,263.980004 179.52,263.124 C178.687996,262.267996 178.272,261.224006 178.272,259.992 C178.272,258.759994 178.723995,257.720004 179.628,256.872 C180.532005,256.023996 181.559994,255.6 182.712,255.6 C183.800005,255.6 184.687997,255.979996 185.376,256.74 C186.064003,257.500004 186.264001,258.383995 185.976,259.392 L180.192,259.392 Z M200.24,256.368 C199.599997,256.368 199.056002,256.735996 198.608,257.472 C198.159998,258.208004 197.936,259.119995 197.936,260.208 C197.936,261.200005 198.179998,261.979997 198.668,262.548 C199.156002,263.116003 199.879995,263.4 200.84,263.4 C201.768005,263.4 202.623996,263.032004 203.408,262.296 L203.816,262.824 C202.839995,263.880005 201.648007,264.408 200.24,264.408 C198.927993,264.408 197.892004,264.016004 197.132,263.232 C196.371996,262.447996 195.992,261.440006 195.992,260.208 C195.992,258.879993 196.439996,257.780004 197.336,256.908 C198.232004,256.035996 199.199995,255.6 200.24,255.6 C201.184005,255.6 201.895998,255.767998 202.376,256.104 C202.856002,256.440002 203.096,256.847998 203.096,257.328 C203.096,257.584001 203.012001,257.819999 202.844,258.036 C202.675999,258.252001 202.408002,258.36 202.04,258.36 C201.783999,258.36 201.564001,258.268001 201.38,258.084 C201.195999,257.899999 201.104,257.672001 201.104,257.4 C201.104,256.711997 200.816003,256.368 200.24,256.368 Z M214.56,263.52 C214.095998,264.016002 213.568003,264.264 212.976,264.264 C212.015995,264.264 211.472001,263.800005 211.344,262.872 C210.271995,263.832005 209.272005,264.312 208.344,264.312 C207.735997,264.312 207.224002,264.132002 206.808,263.772 C206.391998,263.411998 206.184,262.920003 206.184,262.296 C206.184,260.615992 207.887983,259.480003 211.296,258.888 C211.296,257.943995 211.192001,257.288002 210.984,256.92 C210.775999,256.551998 210.344003,256.368 209.688,256.368 C209.367998,256.368 209.060001,256.471999 208.764,256.68 C208.467999,256.888001 208.32,257.167998 208.32,257.52 C208.32,257.760001 208.240001,257.959999 208.08,258.12 C207.919999,258.280001 207.728001,258.36 207.504,258.36 C207.263999,258.36 207.064001,258.280001 206.904,258.12 C206.743999,257.959999 206.664,257.760001 206.664,257.52 C206.664,256.959997 206.971997,256.500002 207.588,256.14 C208.204003,255.779998 208.911996,255.6 209.712,255.6 C210.880006,255.6 211.719997,255.855997 212.232,256.368 C212.744003,256.880003 213,257.711994 213,258.864 L213,262.488 C213,263.112003 213.183998,263.424 213.552,263.424 C213.760001,263.424 213.983999,263.304001 214.224,263.064 L214.56,263.52 Z M211.296,262.08 L211.296,259.632 C209.087989,260.144003 207.984,260.935995 207.984,262.008 C207.984,262.376002 208.091999,262.671999 208.308,262.896 C208.524001,263.120001 208.791998,263.232 209.112,263.232 C209.704003,263.232 210.431996,262.848004 211.296,262.08 Z M224.872,257.088 C224.872,257.840004 224.552003,258.216 223.912,258.216 C223.687999,258.216 223.492001,258.128001 223.324,257.952 C223.155999,257.775999 223.072,257.576001 223.072,257.352 C223.072,256.823997 222.816003,256.56 222.304,256.56 C221.935998,256.56 221.536002,256.815997 221.104,257.328 C220.671998,257.840003 220.456,258.519996 220.456,259.368 L220.456,260.688 C220.456,261.888006 220.571999,262.655998 220.804,262.992 C221.036001,263.328002 221.551996,263.496 222.352,263.496 L222.352,264 L216.856,264 L216.856,263.496 C217.656004,263.496 218.171999,263.328002 218.404,262.992 C218.636001,262.655998 218.752,261.888006 218.752,260.688 L218.752,259.488 C218.752,258.303994 218.636001,257.544002 218.404,257.208 C218.171999,256.871998 217.656004,256.704 216.856,256.704 L216.856,256.2 L220.048,255.6 C220.192001,255.904002 220.327999,256.479996 220.456,257.328 C220.696001,256.847998 221.055998,256.440002 221.536,256.104 C222.016002,255.767998 222.495998,255.6 222.976,255.6 C223.584003,255.6 224.051998,255.759998 224.38,256.08 C224.708002,256.400002 224.872,256.735998 224.872,257.088 Z M235.304,257.088 C235.304,257.840004 234.984003,258.216 234.344,258.216 C234.119999,258.216 233.924001,258.128001 233.756,257.952 C233.587999,257.775999 233.504,257.576001 233.504,257.352 C233.504,256.823997 233.248003,256.56 232.736,256.56 C232.367998,256.56 231.968002,256.815997 231.536,257.328 C231.103998,257.840003 230.888,258.519996 230.888,259.368 L230.888,260.688 C230.888,261.888006 231.003999,262.655998 231.236,262.992 C231.468001,263.328002 231.983996,263.496 232.784,263.496 L232.784,264 L227.288,264 L227.288,263.496 C228.088004,263.496 228.603999,263.328002 228.836,262.992 C229.068001,262.655998 229.184,261.888006 229.184,260.688 L229.184,259.488 C229.184,258.303994 229.068001,257.544002 228.836,257.208 C228.603999,256.871998 228.088004,256.704 227.288,256.704 L227.288,256.2 L230.48,255.6 C230.624001,255.904002 230.759999,256.479996 230.888,257.328 C231.128001,256.847998 231.487998,256.440002 231.968,256.104 C232.448002,255.767998 232.927998,255.6 233.408,255.6 C234.016003,255.6 234.483998,255.759998 234.812,256.08 C235.140002,256.400002 235.304,256.735998 235.304,257.088 Z M243.216,264 L237.72,264 L237.72,263.496 C238.520004,263.496 239.035999,263.328002 239.268,262.992 C239.500001,262.655998 239.616,261.888006 239.616,260.688 L239.616,259.488 C239.616,258.303994 239.500001,257.544002 239.268,257.208 C239.035999,256.871998 238.520004,256.704 237.72,256.704 L237.72,256.2 L241.32,255.6 L241.32,260.688 C241.32,261.888006 241.435999,262.655998 241.668,262.992 C241.900001,263.328002 242.415996,263.496 243.216,263.496 L243.216,264 Z M241.512,252.168 C241.512,252.472002 241.408001,252.727999 241.2,252.936 C240.991999,253.144001 240.744001,253.248 240.456,253.248 C240.167999,253.248 239.920001,253.144001 239.712,252.936 C239.503999,252.727999 239.4,252.472002 239.4,252.168 C239.4,251.879999 239.503999,251.632001 239.712,251.424 C239.920001,251.215999 240.167999,251.112 240.456,251.112 C240.744001,251.112 240.991999,251.215999 241.2,251.424 C241.408001,251.632001 241.512,251.879999 241.512,252.168 Z M247.888,258.504 L251.872,258.504 C252.032001,258.055998 251.964001,257.620002 251.668,257.196 C251.371999,256.771998 250.864004,256.56 250.144,256.56 C249.631997,256.56 249.172002,256.735998 248.764,257.088 C248.355998,257.440002 248.064001,257.911997 247.888,258.504 Z M247.744,259.392 C247.599999,260.576006 247.787997,261.539996 248.308,262.284 C248.828003,263.028004 249.679994,263.4 250.864,263.4 C251.264002,263.4 251.719997,263.296001 252.232,263.088 C252.744003,262.879999 253.167998,262.616002 253.504,262.296 L253.936,262.824 C253.503998,263.288002 252.952003,263.667999 252.28,263.964 C251.607997,264.260001 250.936003,264.408 250.264,264.408 C248.967994,264.408 247.904004,263.980004 247.072,263.124 C246.239996,262.267996 245.824,261.224006 245.824,259.992 C245.824,258.759994 246.275995,257.720004 247.18,256.872 C248.084005,256.023996 249.111994,255.6 250.264,255.6 C251.352005,255.6 252.239997,255.979996 252.928,256.74 C253.616003,257.500004 253.816001,258.383995 253.528,259.392 L247.744,259.392 Z M264.728,257.088 C264.728,257.840004 264.408003,258.216 263.768,258.216 C263.543999,258.216 263.348001,258.128001 263.18,257.952 C263.011999,257.775999 262.928,257.576001 262.928,257.352 C262.928,256.823997 262.672003,256.56 262.16,256.56 C261.791998,256.56 261.392002,256.815997 260.96,257.328 C260.527998,257.840003 260.312,258.519996 260.312,259.368 L260.312,260.688 C260.312,261.888006 260.427999,262.655998 260.66,262.992 C260.892001,263.328002 261.407996,263.496 262.208,263.496 L262.208,264 L256.712,264 L256.712,263.496 C257.512004,263.496 258.027999,263.328002 258.26,262.992 C258.492001,262.655998 258.608,261.888006 258.608,260.688 L258.608,259.488 C258.608,258.303994 258.492001,257.544002 258.26,257.208 C258.027999,256.871998 257.512004,256.704 256.712,256.704 L256.712,256.2 L259.904,255.6 C260.048001,255.904002 260.183999,256.479996 260.312,257.328 C260.552001,256.847998 260.911998,256.440002 261.392,256.104 C261.872002,255.767998 262.351998,255.6 262.832,255.6 C263.440003,255.6 263.907998,255.759998 264.236,256.08 C264.564002,256.400002 264.728,256.735998 264.728,257.088 Z M273.312,261.792 C273.312,262.560004 273.036003,263.187998 272.484,263.676 C271.931997,264.164002 271.256004,264.408 270.456,264.408 C270.167999,264.408 269.872002,264.352001 269.568,264.24 C269.263998,264.127999 269.020001,264.020001 268.836,263.916 C268.651999,263.811999 268.480001,263.732 268.32,263.676 C268.159999,263.62 268.048,263.647999 267.984,263.76 C267.92,263.872001 267.888,264.087998 267.888,264.408 L267.384,264.408 L267.384,260.904 L267.888,260.904 C267.888,261.528003 268.127998,262.131997 268.608,262.716 C269.088002,263.300003 269.719996,263.592 270.504,263.592 C270.888002,263.592 271.211999,263.472001 271.476,263.232 C271.740001,262.991999 271.872,262.704002 271.872,262.368 C271.872,261.871998 271.424004,261.384002 270.528,260.904 L269.184,260.184 C268.127995,259.607997 267.6,258.808005 267.6,257.784 C267.6,257.159997 267.843998,256.640002 268.332,256.224 C268.820002,255.807998 269.383997,255.6 270.024,255.6 C270.568003,255.6 271.127997,255.743999 271.704,256.032 C271.896001,256.144001 272.028,256.18 272.1,256.14 C272.172,256.1 272.208,255.920002 272.208,255.6 L272.712,255.6 L272.712,258.384 L272.208,258.384 C272.208,257.855997 272.028002,257.388002 271.668,256.98 C271.307998,256.571998 270.840003,256.368 270.264,256.368 C269.863998,256.368 269.560001,256.463999 269.352,256.656 C269.143999,256.848001 269.04,257.095998 269.04,257.4 C269.04,257.672001 269.143999,257.907999 269.352,258.108 C269.560001,258.308001 269.943997,258.559998 270.504,258.864 L271.656,259.488 C272.760006,260.112003 273.312,260.879995 273.312,261.792 Z M281.992,256.92 C281.992,260.488018 280.200018,263.735985 276.616,266.664 L276.064,266.16 C276.592003,265.567997 277.019998,265.064002 277.348,264.648 C277.676002,264.231998 278.111997,263.604004 278.656,262.764 C279.200003,261.923996 279.615999,261.008005 279.904,260.016 C280.192001,259.023995 280.336,257.992005 280.336,256.92 C280.336,255.847995 280.192001,254.816005 279.904,253.824 C279.615999,252.831995 279.200003,251.916004 278.656,251.076 C278.111997,250.235996 277.676002,249.608002 277.348,249.192 C277.019998,248.775998 276.592003,248.272003 276.064,247.68 L276.64,247.176 C280.208018,250.120015 281.992,253.367982 281.992,256.92 Z" id="Depletion-Region-(no-Copy" fill="#524740"></path>
            <rect id="Rectangle" fill="#EF7D3B" opacity="0.149135045" x="104" y="37" width="110" height="156"></rect>
            <g id="Group" transform="translate(104.000000, 208.000000)" stroke="#524740" stroke-width="2">
                <path d="M0.132015736,0.62701595 C-0.133444038,6.25086722 16.155884,6.25086722 49,0.62701595 L54,7.21649533" id="Path-7"></path>
                <path d="M53.1320157,0.62701595 C52.866556,6.25086722 69.155884,6.25086722 102,0.62701595 L107,7.21649533" id="Path-7-Copy" transform="translate(80.064412, 3.921756) scale(-1, 1) translate(-80.064412, -3.921756) "></path>
            </g>
        </g>
        <rect id="Rectangle-Copy" stroke="#3D3530" stroke-width="2" fill="#F8FAE4" x="1" y="316" width="898" height="43"></rect>
        <path d="M525.050666,346 L525.050666,329.872 L530.522666,329.872 C532.330675,329.872 533.770661,330.347995 534.842666,331.3 C535.914671,332.252005 536.450666,333.447993 536.450666,334.888 C536.450666,336.312007 535.914671,337.503995 534.842666,338.464 C533.770661,339.424005 532.330675,339.904 530.522666,339.904 L526.634666,339.904 L526.634666,346 L525.050666,346 Z M526.634666,338.392 L530.522666,338.392 C531.818673,338.392 532.858662,338.060003 533.642666,337.396 C534.42667,336.731997 534.818666,335.896005 534.818666,334.888 C534.818666,333.895995 534.42667,333.064003 533.642666,332.392 C532.858662,331.719997 531.818673,331.384 530.522666,331.384 L526.634666,331.384 L526.634666,338.392 Z M545.973333,338.656 L539.517333,338.656 L539.517333,337.216 L545.973333,337.216 L545.973333,338.656 Z M560.151999,329.872 L561.735999,329.872 L561.735999,346 L560.103999,346 L551.103999,332.296 L551.103999,346 L549.519999,346 L549.519999,329.872 L551.127999,329.872 L560.151999,343.6 L560.151999,329.872 Z M576.653333,346.192 C575.581327,346.192 574.669337,345.848003 573.917333,345.16 C573.165329,344.471997 572.677334,343.688004 572.453333,342.808 L573.845333,342.304 C573.989334,342.928003 574.30533,343.483998 574.793333,343.972 C575.281335,344.460002 575.869329,344.704 576.557333,344.704 C577.421337,344.704 578.065331,344.448003 578.489333,343.936 C578.913335,343.423997 579.125333,342.800004 579.125333,342.064 L579.125333,329.968 L580.709333,329.968 L580.709333,341.968 C580.709333,343.200006 580.357336,344.211996 579.653333,345.004 C578.949329,345.796004 577.949339,346.192 576.653333,346.192 Z M593.448,334 L595.032,334 L595.032,346 L593.448,346 L593.448,344.224 C592.471995,345.536007 591.192007,346.192 589.608,346.192 C588.215993,346.192 587.048004,345.700005 586.104,344.716 C585.159995,343.731995 584.688,342.520007 584.688,341.08 L584.688,334 L586.32,334 L586.32,341.032 C586.32,342.056005 586.663996,342.923996 587.352,343.636 C588.040003,344.348004 588.879995,344.704 589.872,344.704 C590.880005,344.704 591.727996,344.348004 592.416,343.636 C593.104003,342.923996 593.448,342.056005 593.448,341.032 L593.448,334 Z M604.410666,333.808 C605.802673,333.808 606.970661,334.299995 607.914666,335.284 C608.858671,336.268005 609.330666,337.479993 609.330666,338.92 L609.330666,346 L607.722666,346 L607.722666,338.968 C607.722666,337.943995 607.37467,337.072004 606.678666,336.352 C605.982663,335.631996 605.138671,335.272 604.146666,335.272 C603.154661,335.272 602.31067,335.631996 601.614666,336.352 C600.918663,337.072004 600.570666,337.943995 600.570666,338.968 L600.570666,346 L598.986666,346 L598.986666,334 L600.570666,334 L600.570666,335.776 C601.546671,334.463993 602.826658,333.808 604.410666,333.808 Z M618.445333,346.192 C616.733324,346.192 615.273339,345.588006 614.065333,344.38 C612.857327,343.171994 612.253333,341.712009 612.253333,340 C612.253333,338.287991 612.857327,336.828006 614.065333,335.62 C615.273339,334.411994 616.733324,333.808 618.445333,333.808 C619.533338,333.808 620.545328,334.075997 621.481333,334.612 C622.417338,335.148003 623.15733,335.863996 623.701333,336.76 L622.261333,337.456 C621.829331,336.799997 621.277336,336.280002 620.605333,335.896 C619.93333,335.511998 619.213337,335.32 618.445333,335.32 C617.149326,335.32 616.057337,335.771995 615.169333,336.676 C614.281328,337.580005 613.837333,338.687993 613.837333,340 C613.837333,341.312007 614.281328,342.419995 615.169333,343.324 C616.057337,344.228005 617.149326,344.68 618.445333,344.68 C619.213337,344.68 619.93333,344.488002 620.605333,344.104 C621.277336,343.719998 621.829331,343.200003 622.261333,342.544 L623.701333,343.24 C623.15733,344.136004 622.417338,344.851997 621.481333,345.388 C620.545328,345.924003 619.533338,346.192 618.445333,346.192 Z M633.896,343.312 L634.688,344.536 C634.591999,344.664001 634.464,344.815999 634.304,344.992 C634.143999,345.168001 633.784002,345.411998 633.224,345.724 C632.663997,346.036002 632.088003,346.192 631.496,346.192 C630.487995,346.192 629.644003,345.892003 628.964,345.292 C628.283996,344.691997 627.944,343.824006 627.944,342.688 L627.944,335.44 L626.024,335.44 L626.024,333.976 L627.944,333.976 L627.944,330.184 L629.528,329.992 L629.528,333.976 L633.152,333.976 L633.152,335.44 L629.528,335.44 L629.528,342.328 C629.528,343.064004 629.755997,343.647998 630.212,344.08 C630.668002,344.512002 631.191997,344.728 631.784,344.728 C632.152001,344.728 632.511998,344.616001 632.864,344.392 C633.216001,344.167999 633.475999,343.948001 633.644,343.732 C633.812,343.515999 633.896,343.376 633.896,343.312 Z M639.122666,330.4 C638.946665,330.592001 638.722668,330.688 638.450666,330.688 C638.178665,330.688 637.950667,330.592001 637.766666,330.4 C637.582665,330.207999 637.490666,329.984001 637.490666,329.728 C637.490666,329.471999 637.582665,329.248001 637.766666,329.056 C637.950667,328.863999 638.178665,328.768 638.450666,328.768 C638.722668,328.768 638.950665,328.863999 639.134666,329.056 C639.318667,329.248001 639.410666,329.471999 639.410666,329.728 C639.410666,329.984001 639.314667,330.207999 639.122666,330.4 Z M637.658666,346 L637.658666,334 L639.242666,334 L639.242666,346 L637.658666,346 Z M653.277333,344.368 C652.077327,345.584006 650.621342,346.192 648.909333,346.192 C647.197324,346.192 645.737339,345.588006 644.529333,344.38 C643.321327,343.171994 642.717333,341.712009 642.717333,340 C642.717333,338.287991 643.321327,336.828006 644.529333,335.62 C645.737339,334.411994 647.197324,333.808 648.909333,333.808 C650.621342,333.808 652.081327,334.411994 653.289333,335.62 C654.497339,336.828006 655.101333,338.287991 655.101333,340 C655.101333,341.696008 654.493339,343.151994 653.277333,344.368 Z M648.933333,344.68 C650.229339,344.68 651.321329,344.228005 652.209333,343.324 C653.097337,342.419995 653.541333,341.312007 653.541333,340 C653.541333,338.687993 653.097337,337.576005 652.209333,336.664 C651.321329,335.751995 650.229339,335.296 648.933333,335.296 C647.653327,335.296 646.565337,335.751995 645.669333,336.664 C644.773328,337.576005 644.325333,338.687993 644.325333,340 C644.325333,341.312007 644.773328,342.419995 645.669333,343.324 C646.565337,344.228005 647.653327,344.68 648.933333,344.68 Z M663.568,333.808 C664.960007,333.808 666.127995,334.299995 667.072,335.284 C668.016004,336.268005 668.488,337.479993 668.488,338.92 L668.488,346 L666.88,346 L666.88,338.968 C666.88,337.943995 666.532003,337.072004 665.836,336.352 C665.139996,335.631996 664.296005,335.272 663.304,335.272 C662.311995,335.272 661.468003,335.631996 660.772,336.352 C660.075996,337.072004 659.728,337.943995 659.728,338.968 L659.728,346 L658.144,346 L658.144,334 L659.728,334 L659.728,335.776 C660.704005,334.463993 661.983992,333.808 663.568,333.808 Z M679.637333,346 L679.637333,329.872 L683.285333,329.872 C685.941346,329.872 688.053325,330.639992 689.621333,332.176 C691.189341,333.712008 691.973333,335.631988 691.973333,337.936 C691.973333,340.224011 691.185341,342.139992 689.609333,343.684 C688.033325,345.228008 685.925346,346 683.285333,346 L679.637333,346 Z M681.221333,344.488 L683.285333,344.488 C685.397344,344.488 687.085327,343.868006 688.349333,342.628 C689.613339,341.387994 690.245333,339.824009 690.245333,337.936 C690.245333,336.047991 689.613339,334.484006 688.349333,333.244 C687.085327,332.003994 685.397344,331.384 683.285333,331.384 L681.221333,331.384 L681.221333,344.488 Z M700.44,344.608 C701.512005,344.608 702.471995,344.304003 703.32,343.696 C704.168004,343.087997 704.743998,342.376004 705.048,341.56 L706.392,342.04 C706.023998,343.048005 705.308005,343.975996 704.244,344.824 C703.179994,345.672004 701.912007,346.088 700.44,346.072 C699.095993,346.072 697.868005,345.656004 696.756,344.824 C695.643994,343.991996 694.888002,342.928006 694.488,341.632 C694.327999,341.103997 694.248,340.528003 694.248,339.904 C694.248,338.175991 694.847994,336.712006 696.048,335.512 C697.248006,334.311994 698.711991,333.704 700.44,333.688 C702.008008,333.704 703.375994,334.231995 704.544,335.272 C705.712006,336.312005 706.383999,337.599992 706.56,339.136 C706.576,339.216 706.584,339.319999 706.584,339.448 L696.096,341.344 C696.368001,342.304005 696.911996,343.091997 697.728,343.708 C698.544004,344.324003 699.447995,344.624 700.44,344.608 Z M700.296,335.152 C699.095994,335.168 698.068004,335.599996 697.212,336.448 C696.355995,337.296004 695.896,338.311994 695.832,339.496 C695.832,339.544 695.836,339.627999 695.844,339.748 C695.852,339.868001 695.856,339.968 695.856,340.048 L704.784,338.44 C704.479998,337.463995 703.912004,336.668003 703.08,336.052 C702.247996,335.435997 701.320005,335.136 700.296,335.152 Z M716.202666,333.784 C717.914675,333.784 719.37466,334.387994 720.582666,335.596 C721.790672,336.804006 722.394666,338.263991 722.394666,339.976 C722.394666,341.688009 721.790672,343.147994 720.582666,344.356 C719.37466,345.564006 717.914675,346.168 716.202666,346.168 C714.282657,346.168 712.714672,345.440007 711.498666,343.984 L711.498666,351.832 L709.914666,351.832 L709.914666,333.976 L711.498666,333.976 L711.498666,335.944 C712.730673,334.503993 714.298657,333.784 716.202666,333.784 Z M712.890666,343.312 C713.786671,344.208004 714.87466,344.656 716.154666,344.656 C717.434673,344.656 718.526662,344.204005 719.430666,343.3 C720.334671,342.395995 720.786666,341.288007 720.786666,339.976 C720.786666,338.663993 720.334671,337.552005 719.430666,336.64 C718.526662,335.727995 717.434673,335.272 716.154666,335.272 C714.87466,335.272 713.786671,335.727995 712.890666,336.64 C711.994662,337.552005 711.546666,338.663993 711.546666,339.976 C711.546666,341.288007 711.994662,342.399995 712.890666,343.312 Z M725.677333,346 L725.677333,328.144 L727.261333,328.144 L727.261333,346 L725.677333,346 Z M736.688,344.608 C737.760005,344.608 738.719996,344.304003 739.568,343.696 C740.416004,343.087997 740.991998,342.376004 741.296,341.56 L742.64,342.04 C742.271998,343.048005 741.556005,343.975996 740.492,344.824 C739.427994,345.672004 738.160007,346.088 736.688,346.072 C735.343993,346.072 734.116005,345.656004 733.004,344.824 C731.891994,343.991996 731.136002,342.928006 730.736,341.632 C730.575999,341.103997 730.496,340.528003 730.496,339.904 C730.496,338.175991 731.095994,336.712006 732.296,335.512 C733.496006,334.311994 734.959991,333.704 736.688,333.688 C738.256008,333.704 739.623994,334.231995 740.792,335.272 C741.960006,336.312005 742.631999,337.599992 742.808,339.136 C742.824,339.216 742.832,339.319999 742.832,339.448 L732.344,341.344 C732.616001,342.304005 733.159996,343.091997 733.976,343.708 C734.792004,344.324003 735.695995,344.624 736.688,344.608 Z M736.544,335.152 C735.343994,335.168 734.316004,335.599996 733.46,336.448 C732.603995,337.296004 732.144,338.311994 732.08,339.496 C732.08,339.544 732.084,339.627999 732.092,339.748 C732.1,339.868001 732.104,339.968 732.104,340.048 L741.032,338.44 C740.727998,337.463995 740.160004,336.668003 739.328,336.052 C738.495996,335.435997 737.568005,335.136 736.544,335.152 Z M752.546666,343.312 L753.338666,344.536 C753.242666,344.664001 753.114667,344.815999 752.954666,344.992 C752.794666,345.168001 752.434669,345.411998 751.874666,345.724 C751.314664,346.036002 750.738669,346.192 750.146666,346.192 C749.138661,346.192 748.29467,345.892003 747.614666,345.292 C746.934663,344.691997 746.594666,343.824006 746.594666,342.688 L746.594666,335.44 L744.674666,335.44 L744.674666,333.976 L746.594666,333.976 L746.594666,330.184 L748.178666,329.992 L748.178666,333.976 L751.802666,333.976 L751.802666,335.44 L748.178666,335.44 L748.178666,342.328 C748.178666,343.064004 748.406664,343.647998 748.862666,344.08 C749.318669,344.512002 749.842663,344.728 750.434666,344.728 C750.802668,344.728 751.162665,344.616001 751.514666,344.392 C751.866668,344.167999 752.126666,343.948001 752.294666,343.732 C752.462667,343.515999 752.546666,343.376 752.546666,343.312 Z M757.773333,330.4 C757.597332,330.592001 757.373334,330.688 757.101333,330.688 C756.829332,330.688 756.601334,330.592001 756.417333,330.4 C756.233332,330.207999 756.141333,329.984001 756.141333,329.728 C756.141333,329.471999 756.233332,329.248001 756.417333,329.056 C756.601334,328.863999 756.829332,328.768 757.101333,328.768 C757.373334,328.768 757.601332,328.863999 757.785333,329.056 C757.969334,329.248001 758.061333,329.471999 758.061333,329.728 C758.061333,329.984001 757.965334,330.207999 757.773333,330.4 Z M756.309333,346 L756.309333,334 L757.893333,334 L757.893333,346 L756.309333,346 Z M771.928,344.368 C770.727994,345.584006 769.272008,346.192 767.56,346.192 C765.847991,346.192 764.388006,345.588006 763.18,344.38 C761.971994,343.171994 761.368,341.712009 761.368,340 C761.368,338.287991 761.971994,336.828006 763.18,335.62 C764.388006,334.411994 765.847991,333.808 767.56,333.808 C769.272008,333.808 770.731994,334.411994 771.94,335.62 C773.148006,336.828006 773.752,338.287991 773.752,340 C773.752,341.696008 773.144006,343.151994 771.928,344.368 Z M767.584,344.68 C768.880006,344.68 769.971995,344.228005 770.86,343.324 C771.748004,342.419995 772.192,341.312007 772.192,340 C772.192,338.687993 771.748004,337.576005 770.86,336.664 C769.971995,335.751995 768.880006,335.296 767.584,335.296 C766.303993,335.296 765.216004,335.751995 764.32,336.664 C763.423995,337.576005 762.976,338.687993 762.976,340 C762.976,341.312007 763.423995,342.419995 764.32,343.324 C765.216004,344.228005 766.303993,344.68 767.584,344.68 Z M782.218667,333.808 C783.610673,333.808 784.778662,334.299995 785.722667,335.284 C786.666671,336.268005 787.138667,337.479993 787.138667,338.92 L787.138667,346 L785.530667,346 L785.530667,338.968 C785.530667,337.943995 785.18267,337.072004 784.486667,336.352 C783.790663,335.631996 782.946671,335.272 781.954667,335.272 C780.962662,335.272 780.11867,335.631996 779.422667,336.352 C778.726663,337.072004 778.378667,337.943995 778.378667,338.968 L778.378667,346 L776.794667,346 L776.794667,334 L778.378667,334 L778.378667,335.776 C779.354671,334.463993 780.634659,333.808 782.218667,333.808 Z M798.288,346 L798.288,329.872 L803.76,329.872 C805.568009,329.872 807.007995,330.347995 808.08,331.3 C809.152005,332.252005 809.688,333.447993 809.688,334.888 C809.688,335.960005 809.372003,336.911996 808.74,337.744 C808.107997,338.576004 807.224006,339.167998 806.088,339.52 L809.688,346 L808.032,346 L804.6,339.856 L803.616,339.904 L799.872,339.904 L799.872,346 L798.288,346 Z M799.872,338.392 L803.76,338.392 C805.056006,338.392 806.095996,338.060003 806.88,337.396 C807.664004,336.731997 808.056,335.896005 808.056,334.888 C808.056,333.895995 807.664004,333.064003 806.88,332.392 C806.095996,331.719997 805.056006,331.384 803.76,331.384 L799.872,331.384 L799.872,338.392 Z M818.130667,344.608 C819.202672,344.608 820.162662,344.304003 821.010667,343.696 C821.858671,343.087997 822.434665,342.376004 822.738667,341.56 L824.082667,342.04 C823.714665,343.048005 822.998672,343.975996 821.934667,344.824 C820.870661,345.672004 819.602674,346.088 818.130667,346.072 C816.78666,346.072 815.558672,345.656004 814.446667,344.824 C813.334661,343.991996 812.578669,342.928006 812.178667,341.632 C812.018666,341.103997 811.938667,340.528003 811.938667,339.904 C811.938667,338.175991 812.538661,336.712006 813.738667,335.512 C814.938673,334.311994 816.402658,333.704 818.130667,333.688 C819.698674,333.704 821.066661,334.231995 822.234667,335.272 C823.402672,336.312005 824.074666,337.599992 824.250667,339.136 C824.266667,339.216 824.274667,339.319999 824.274667,339.448 L813.786667,341.344 C814.058668,342.304005 814.602662,343.091997 815.418667,343.708 C816.234671,344.324003 817.138662,344.624 818.130667,344.608 Z M817.986667,335.152 C816.786661,335.168 815.758671,335.599996 814.902667,336.448 C814.046662,337.296004 813.586667,338.311994 813.522667,339.496 C813.522667,339.544 813.526667,339.627999 813.534667,339.748 C813.542667,339.868001 813.546667,339.968 813.546667,340.048 L822.474667,338.44 C822.170665,337.463995 821.602671,336.668003 820.770667,336.052 C819.938662,335.435997 819.010672,335.136 817.986667,335.152 Z M837.997333,334.024 L839.605333,334.024 L839.605333,344.968 C839.589333,346.712009 838.961339,348.171994 837.721333,349.348 C836.481327,350.524006 835.045341,351.112 833.413333,351.112 C831.925326,351.112 830.657338,350.716004 829.609333,349.924 C828.561328,349.131996 827.853335,348.240005 827.485333,347.248 L828.781333,346.6 C829.085335,347.416004 829.661329,348.127997 830.509333,348.736 C831.357337,349.344003 832.325328,349.648 833.413333,349.648 C834.69334,349.648 835.777329,349.180005 836.665333,348.244 C837.553338,347.307995 838.005333,346.216006 838.021333,344.968 L837.997333,344.968 L837.997333,344.08 C836.781327,345.504007 835.221343,346.216 833.317333,346.216 C831.605325,346.216 830.145339,345.612006 828.937333,344.404 C827.729327,343.195994 827.125333,341.736009 827.125333,340.024 C827.125333,338.311991 827.729327,336.852006 828.937333,335.644 C830.145339,334.435994 831.605325,333.832 833.317333,333.832 C835.205343,333.832 836.765327,334.543993 837.997333,335.968 L837.997333,334.024 Z M833.341333,344.728 C834.63734,344.728 835.729329,344.276005 836.617333,343.372 C837.505338,342.467995 837.949333,341.360007 837.949333,340.048 C837.949333,338.735993 837.505338,337.628005 836.617333,336.724 C835.729329,335.819995 834.63734,335.368 833.341333,335.368 C832.061327,335.368 830.973338,335.819995 830.077333,336.724 C829.181329,337.628005 828.733333,338.735993 828.733333,340.048 C828.733333,341.360007 829.181329,342.467995 830.077333,343.372 C830.973338,344.276005 832.061327,344.728 833.341333,344.728 Z M845.408,330.4 C845.231999,330.592001 845.008001,330.688 844.736,330.688 C844.463999,330.688 844.236001,330.592001 844.052,330.4 C843.867999,330.207999 843.776,329.984001 843.776,329.728 C843.776,329.471999 843.867999,329.248001 844.052,329.056 C844.236001,328.863999 844.463999,328.768 844.736,328.768 C845.008001,328.768 845.235999,328.863999 845.42,329.056 C845.604001,329.248001 845.696,329.471999 845.696,329.728 C845.696,329.984001 845.600001,330.207999 845.408,330.4 Z M843.944,346 L843.944,334 L845.528,334 L845.528,346 L843.944,346 Z M859.562667,344.368 C858.362661,345.584006 856.906675,346.192 855.194667,346.192 C853.482658,346.192 852.022673,345.588006 850.814667,344.38 C849.606661,343.171994 849.002667,341.712009 849.002667,340 C849.002667,338.287991 849.606661,336.828006 850.814667,335.62 C852.022673,334.411994 853.482658,333.808 855.194667,333.808 C856.906675,333.808 858.366661,334.411994 859.574667,335.62 C860.782673,336.828006 861.386667,338.287991 861.386667,340 C861.386667,341.696008 860.778673,343.151994 859.562667,344.368 Z M855.218667,344.68 C856.514673,344.68 857.606662,344.228005 858.494667,343.324 C859.382671,342.419995 859.826667,341.312007 859.826667,340 C859.826667,338.687993 859.382671,337.576005 858.494667,336.664 C857.606662,335.751995 856.514673,335.296 855.218667,335.296 C853.93866,335.296 852.850671,335.751995 851.954667,336.664 C851.058662,337.576005 850.610667,338.687993 850.610667,340 C850.610667,341.312007 851.058662,342.419995 851.954667,343.324 C852.850671,344.228005 853.93866,344.68 855.218667,344.68 Z M869.853333,333.808 C871.24534,333.808 872.413329,334.299995 873.357333,335.284 C874.301338,336.268005 874.773333,337.479993 874.773333,338.92 L874.773333,346 L873.165333,346 L873.165333,338.968 C873.165333,337.943995 872.817337,337.072004 872.121333,336.352 C871.42533,335.631996 870.581338,335.272 869.589333,335.272 C868.597328,335.272 867.753337,335.631996 867.057333,336.352 C866.36133,337.072004 866.013333,337.943995 866.013333,338.968 L866.013333,346 L864.429333,346 L864.429333,334 L866.013333,334 L866.013333,335.776 C866.989338,334.463993 868.269325,333.808 869.853333,333.808 Z" id="P-N-Junction-Depleti-Copy" fill="#23ABE3"></path>
    </g>
</svg>