<?xml version="1.0" encoding="UTF-8"?>
<svg width="900px" height="320px" viewBox="0 0 900 320" version="1.1" xmlns="http://www.w3.org/2000/svg" xmlns:xlink="http://www.w3.org/1999/xlink">
    <!-- Generator: Sketch 52.5 (67469) - http://www.bohemiancoding.com/sketch -->
    <title>P-N_Junction_Electron_Diffusion</title>
    <desc>Created with Sketch.</desc>
    <g id="P-N_Junction_Electron_Diffusion" stroke="none" stroke-width="1" fill="none" fill-rule="evenodd">
        <rect id="Rectangle" stroke="#3D3530" stroke-width="2" fill="#EEEEEE" x="1" y="1" width="898" height="428"></rect>
        <rect id="Rectangle-Copy" stroke="#3D3530" stroke-width="2" x="1" y="257" width="898" height="62"></rect>
        <g id="Illustration" transform="translate(290.000000, 27.000000)">
            <g id="Lattice-Junction">
                <g id="P-Type-Lattice" transform="translate(0.000000, 34.000000)">
                    <rect id="Rectangle" stroke="#999999" stroke-width="2" fill="#D4D4D4" x="1" y="1" width="158" height="158"></rect>
                    <circle id="Oval-Copy-3" fill="#252525" cx="20.5" cy="18.5" r="10.5"></circle>
                    <circle id="Oval-Copy-5" fill="#252525" cx="20.5" cy="58.5" r="10.5"></circle>
                    <circle id="Oval-Copy-6" fill="#252525" cx="20.5" cy="98.5" r="10.5"></circle>
                    <circle id="Oval-Copy-10" fill="#252525" cx="50.5" cy="38.5" r="10.5"></circle>
                    <circle id="Oval-Copy-8" fill="#252525" cx="50.5" cy="118.5" r="10.5"></circle>
                    <g id="Negative-Ion" transform="translate(100.000000, 28.000000)">
                        <circle id="Oval-Copy-26" fill="#84D0EF" cx="10.5" cy="10.5" r="10.5"></circle>
                        <rect id="Rectangle" fill="#524740" x="6" y="10" width="9" height="1"></rect>
                    </g>
                    <circle id="Oval-Copy-25" fill="#252525" cx="110.5" cy="78.5" r="10.5"></circle>
                    <circle id="Oval-Copy-24" fill="#252525" cx="110.5" cy="118.5" r="10.5"></circle>
                    <g id="Negative-Ion" transform="translate(40.000000, 68.000000)">
                        <circle id="Oval-Copy-9" fill="#84D0EF" cx="10.5" cy="10.5" r="10.5"></circle>
                        <rect id="Rectangle" fill="#524740" x="6" y="10" width="9" height="1"></rect>
                    </g>
                    <g id="Negative-Ion" transform="translate(10.000000, 128.000000)">
                        <circle id="Oval-Copy-7" fill="#84D0EF" cx="10.5" cy="10.5" r="10.5"></circle>
                        <rect id="Rectangle" fill="#524740" x="6" y="10" width="9" height="1"></rect>
                    </g>
                    <circle id="Oval-Copy-23" fill="#252525" cx="80.5" cy="18.5" r="10.5"></circle>
                    <circle id="Oval-Copy-22" fill="#252525" cx="80.5" cy="58.5" r="10.5"></circle>
                    <g id="Negative-Ion" transform="translate(70.000000, 88.000000)">
                        <circle id="Oval-Copy-21" fill="#84D0EF" cx="10.5" cy="10.5" r="10.5"></circle>
                        <rect id="Rectangle" fill="#524740" x="6" y="10" width="9" height="1"></rect>
                    </g>
                    <circle id="Oval-Copy-20" fill="#252525" cx="80.5" cy="138.5" r="10.5"></circle>
                    <circle id="Oval-Copy-30" fill="#252525" cx="140.5" cy="18.5" r="10.5"></circle>
                    <circle id="Oval-Copy-29" fill="#252525" cx="140.5" cy="58.5" r="10.5"></circle>
                    <circle id="Oval-Copy-28" fill="#252525" cx="140.5" cy="98.5" r="10.5"></circle>
                    <circle id="Oval-Copy-27" fill="#252525" cx="140.5" cy="138.5" r="10.5"></circle>
                    <g id="Little-Ones" transform="translate(4.000000, 8.000000)" fill="#84D0EF">
                        <circle id="Oval-Copy-31" cx="25.25" cy="68.25" r="3.25"></circle>
                        <circle id="Oval-Copy-32" cx="38.25" cy="47.25" r="3.25"></circle>
                        <circle id="Oval-Copy-33" cx="28.25" cy="19.25" r="3.25"></circle>
                        <circle id="Oval-Copy-34" cx="69.25" cy="27.25" r="3.25"></circle>
                        <circle id="Oval-Copy-35" cx="79.25" cy="67.25" r="3.25"></circle>
                        <circle id="Oval-Copy-36" cx="60.25" cy="88.25" r="3.25"></circle>
                        <circle id="Oval-Copy-37" cx="35.25" cy="99.25" r="3.25"></circle>
                        <circle id="Oval-Copy-38" cx="31.25" cy="141.25" r="3.25"></circle>
                        <circle id="Oval-Copy-39" cx="3.25" cy="108.25" r="3.25"></circle>
                        <circle id="Oval-Copy-40" cx="55.25" cy="126.25" r="3.25"></circle>
                        <circle id="Oval-Copy-41" cx="115.25" cy="126.25" r="3.25"></circle>
                        <circle id="Oval-Copy-42" cx="90.25" cy="107.25" r="3.25"></circle>
                        <circle id="Oval-Copy-43" cx="90.25" cy="137.25" r="3.25"></circle>
                        <circle id="Oval-Copy-44" cx="130.25" cy="146.25" r="3.25"></circle>
                        <circle id="Oval-Copy-45" cx="150.25" cy="96.25" r="3.25"></circle>
                        <circle id="Oval-Copy-46" cx="119.25" cy="82.25" r="3.25"></circle>
                        <circle id="Oval-Copy-47" cx="129.25" cy="37.25" r="3.25"></circle>
                        <circle id="Oval-Copy-48" cx="119.25" cy="3.25" r="3.25"></circle>
                        <circle id="Oval-Copy-49" cx="96.25" cy="18.25" r="3.25"></circle>
                    </g>
                </g>
                <g id="N-Type-Lattice" transform="translate(103.000000, 0.000000)">
                    <rect id="Rectangle" stroke="#999999" stroke-width="2" fill="#7D7570" x="56" y="35" width="158" height="158"></rect>
                    <circle id="Oval-Copy-3" fill="#252525" cx="75.5" cy="52.5" r="10.5"></circle>
                    <circle id="Oval-Copy-5" fill="#252525" cx="75.5" cy="92.5" r="10.5"></circle>
                    <circle id="Oval-Copy-6" fill="#252525" cx="75.5" cy="132.5" r="10.5"></circle>
                    <circle id="Oval-Copy-10" fill="#252525" cx="105.5" cy="72.5" r="10.5"></circle>
                    <g id="Positive-Ion" transform="translate(95.000000, 102.000000)">
                        <circle id="Oval-Copy-9" fill="#D7E465" cx="10.5" cy="10.5" r="10.5"></circle>
                        <path d="M10,10 L10,6 L11,6 L11,10 L15,10 L15,11 L11,11 L11,15 L10,15 L10,11 L6,11 L6,10 L10,10 Z" id="Combined-Shape" fill="#524740"></path>
                    </g>
                    <circle id="Oval-Copy-8" fill="#252525" cx="105.5" cy="152.5" r="10.5"></circle>
                    <g id="Positive-Ion" transform="translate(155.000000, 62.000000)">
                        <circle id="Oval-Copy-26" fill="#D7E465" cx="10.5" cy="10.5" r="10.5"></circle>
                        <path d="M10,10 L10,6 L11,6 L11,10 L15,10 L15,11 L11,11 L11,15 L10,15 L10,11 L6,11 L6,10 L10,10 Z" id="Combined-Shape" fill="#524740"></path>
                    </g>
                    <circle id="Oval-Copy-25" fill="#252525" cx="165.5" cy="112.5" r="10.5"></circle>
                    <circle id="Oval-Copy-24" fill="#252525" cx="165.5" cy="152.5" r="10.5"></circle>
                    <g id="Positive-Ion" transform="translate(65.000000, 162.000000)">
                        <circle id="Oval-Copy-7" fill="#D7E465" cx="10.5" cy="10.5" r="10.5"></circle>
                        <path d="M10,10 L10,6 L11,6 L11,10 L15,10 L15,11 L11,11 L11,15 L10,15 L10,11 L6,11 L6,10 L10,10 Z" id="Combined-Shape" fill="#524740"></path>
                    </g>
                    <circle id="Oval-Copy-23" fill="#252525" cx="135.5" cy="52.5" r="10.5"></circle>
                    <circle id="Oval-Copy-22" fill="#252525" cx="135.5" cy="92.5" r="10.5"></circle>
                    <g id="Positive-Ion" transform="translate(125.000000, 122.000000)">
                        <circle id="Oval-Copy-21" fill="#D7E465" cx="10.5" cy="10.5" r="10.5"></circle>
                        <path d="M10,10 L10,6 L11,6 L11,10 L15,10 L15,11 L11,11 L11,15 L10,15 L10,11 L6,11 L6,10 L10,10 Z" id="Combined-Shape" fill="#524740"></path>
                    </g>
                    <circle id="Oval-Copy-20" fill="#252525" cx="135.5" cy="172.5" r="10.5"></circle>
                    <circle id="Oval-Copy-30" fill="#252525" cx="195.5" cy="52.5" r="10.5"></circle>
                    <circle id="Oval-Copy-29" fill="#252525" cx="195.5" cy="92.5" r="10.5"></circle>
                    <circle id="Oval-Copy-28" fill="#252525" cx="195.5" cy="132.5" r="10.5"></circle>
                    <circle id="Oval-Copy-27" fill="#252525" cx="195.5" cy="172.5" r="10.5"></circle>
                    <g id="Little-ones" transform="translate(59.000000, 42.000000)" fill="#EF7D3B">
                        <circle id="Oval-Copy-31" cx="25.25" cy="68.25" r="3.25"></circle>
                        <circle id="Oval-Copy-32" cx="38.25" cy="47.25" r="3.25"></circle>
                        <circle id="Oval-Copy-33" cx="28.25" cy="19.25" r="3.25"></circle>
                        <circle id="Oval-Copy-34" cx="69.25" cy="27.25" r="3.25"></circle>
                        <circle id="Oval-Copy-35" cx="79.25" cy="67.25" r="3.25"></circle>
                        <circle id="Oval-Copy-36" cx="60.25" cy="88.25" r="3.25"></circle>
                        <circle id="Oval-Copy-37" cx="35.25" cy="99.25" r="3.25"></circle>
                        <circle id="Oval-Copy-38" cx="31.25" cy="141.25" r="3.25"></circle>
                        <circle id="Oval-Copy-39" cx="3.25" cy="108.25" r="3.25"></circle>
                        <circle id="Oval-Copy-40" cx="55.25" cy="126.25" r="3.25"></circle>
                        <circle id="Oval-Copy-41" cx="115.25" cy="126.25" r="3.25"></circle>
                        <circle id="Oval-Copy-42" cx="90.25" cy="107.25" r="3.25"></circle>
                        <circle id="Oval-Copy-43" cx="90.25" cy="137.25" r="3.25"></circle>
                        <circle id="Oval-Copy-44" cx="130.25" cy="146.25" r="3.25"></circle>
                        <circle id="Oval-Copy-45" cx="150.25" cy="96.25" r="3.25"></circle>
                        <circle id="Oval-Copy-46" cx="119.25" cy="82.25" r="3.25"></circle>
                        <circle id="Oval-Copy-47" cx="129.25" cy="37.25" r="3.25"></circle>
                        <circle id="Oval-Copy-48" cx="119.25" cy="3.25" r="3.25"></circle>
                        <circle id="Oval-Copy-49" cx="96.25" cy="18.25" r="3.25"></circle>
                    </g>
                    <g id="Group" transform="translate(45.000000, 132.000000)">
                        <path d="M1.71297536,1.21301067 C-1.42386297,4.29967814 2.56579826,9.98721355 7.54733679,15.477443 C12.5288753,20.9676724 18.5005466,26.7041429 22.1041712,23.4270169 C25.7077957,20.149891 20.8366098,14.3555409 15.4917809,8.46492357 C10.146952,2.57430628 4.84981368,-1.87365681 1.71297536,1.21301067 Z" id="Path-2" stroke="#EEF3BD" stroke-width="2"></path>
                        <polyline id="Path-6" stroke="#23ABE3" stroke-width="3" points="12.1545411 19.8562064 10 10.3177798 19.058558 12.5565554"></polyline>
                    </g>
                    <g id="Group-Copy" transform="translate(13.000000, 78.000000)">
                        <path d="M12.695592,10.8825368 C7.95028603,15.5519461 25.2427597,31.042079 37.9184799,45.0121831 C50.5942,58.9822872 61.1725397,72.4600808 65.8176757,68.0317226 C70.4628116,63.6033645 59.6228587,53.1646973 45.8629239,37.9996637 C32.1029892,22.8346301 17.4408981,6.21312764 12.695592,10.8825368 Z" id="Path-2" stroke="#EEF3BD" stroke-width="2" transform="translate(39.400899, 39.485455) rotate(-60.000000) translate(-39.400899, -39.485455) "></path>
                        <polyline id="Path-6" stroke="#23ABE3" stroke-width="3" transform="translate(44.529279, 38.086993) rotate(-58.000000) translate(-44.529279, -38.086993) " points="42.1545411 42.8562064 40 33.3177798 49.058558 35.5565554"></polyline>
                    </g>
                    <g id="Group-Copy-2" transform="translate(53.500000, 53.500000) rotate(27.000000) translate(-53.500000, -53.500000) translate(14.000000, 14.000000)">
                        <path d="M12.695592,10.8825368 C7.95028603,15.5519461 25.2427597,31.042079 37.9184799,45.0121831 C50.5942,58.9822872 61.1725397,72.4600808 65.8176757,68.0317226 C70.4628116,63.6033645 59.6228587,53.1646973 45.8629239,37.9996637 C32.1029892,22.8346301 17.4408981,6.21312764 12.695592,10.8825368 Z" id="Path-2" stroke="#EEF3BD" stroke-width="2" transform="translate(39.400899, 39.485455) rotate(-60.000000) translate(-39.400899, -39.485455) "></path>
                        <polyline id="Path-6" stroke="#23ABE3" stroke-width="3" transform="translate(45.529279, 40.086993) rotate(-58.000000) translate(-45.529279, -40.086993) " points="43.1545411 44.8562064 41 35.3177798 50.058558 37.5565554"></polyline>
                    </g>
                    <g id="Group-Copy-3" transform="translate(63.500000, 84.500000) rotate(22.000000) translate(-63.500000, -84.500000) translate(24.000000, 45.000000)">
                        <path d="M12.695592,10.8825368 C7.95028603,15.5519461 25.2427597,31.042079 37.9184799,45.0121831 C50.5942,58.9822872 61.1725397,72.4600808 65.8176757,68.0317226 C70.4628116,63.6033645 59.6228587,53.1646973 45.8629239,37.9996637 C32.1029892,22.8346301 17.4408981,6.21312764 12.695592,10.8825368 Z" id="Path-2" stroke="#EEF3BD" stroke-width="2" transform="translate(39.400899, 39.485455) rotate(-60.000000) translate(-39.400899, -39.485455) "></path>
                        <polyline id="Path-6" stroke="#23ABE3" stroke-width="3" transform="translate(41.623908, 38.429261) rotate(-58.000000) translate(-41.623908, -38.429261) " points="39.2491698 43.1984746 37.0946287 33.660048 46.1531867 35.8988236"></polyline>
                    </g>
                    <g id="Group-Copy-4" transform="translate(62.500000, 185.500000) rotate(7.000000) translate(-62.500000, -185.500000) translate(23.000000, 146.000000)">
                        <path d="M12.695592,10.8825368 C7.95028603,15.5519461 25.2427597,31.042079 37.9184799,45.0121831 C50.5942,58.9822872 61.1725397,72.4600808 65.8176757,68.0317226 C70.4628116,63.6033645 59.6228587,53.1646973 45.8629239,37.9996637 C32.1029892,22.8346301 17.4408981,6.21312764 12.695592,10.8825368 Z" id="Path-2" stroke="#EEF3BD" stroke-width="2" transform="translate(39.400899, 39.485455) rotate(-60.000000) translate(-39.400899, -39.485455) "></path>
                        <polyline id="Path-6" stroke="#23ABE3" stroke-width="3" transform="translate(45.529279, 40.086993) rotate(-58.000000) translate(-45.529279, -40.086993) " points="43.1545411 44.8562064 41 35.3177798 50.058558 37.5565554"></polyline>
                    </g>
                    <g id="Group-Copy-5" transform="translate(55.755288, 155.073107) rotate(-5.000000) translate(-55.755288, -155.073107) translate(8.755288, 108.573107)">
                        <path d="M14.7202493,12.1456617 C9.97494332,16.8150709 32.2976417,37.5800005 44.9733619,51.5501046 C57.649082,65.5202087 74.1524688,84.8828285 78.7976047,80.4544704 C83.4427407,76.0261123 66.6777407,59.7026188 52.9178059,44.5375852 C39.1578712,29.3725517 19.4655554,7.47625245 14.7202493,12.1456617 Z" id="Path-2" stroke="#EEF3BD" stroke-width="2" transform="translate(46.828512, 46.301945) rotate(-60.000000) translate(-46.828512, -46.301945) "></path>
                        <polyline id="Path-6" stroke="#23ABE3" stroke-width="3" transform="translate(48.370189, 48.730759) rotate(-58.000000) translate(-48.370189, -48.730759) " points="45.9954508 53.4999728 43.8409097 43.9615462 52.8994677 46.2003218"></polyline>
                    </g>
                </g>
                <path d="M55.248,2.6 C56.8640081,2.6 58.1279954,2.98399616 59.04,3.752 C59.9520046,4.52000384 60.408,5.48799416 60.408,6.656 C60.408,7.82400584 59.9520046,8.7879962 59.04,9.548 C58.1279954,10.3080038 56.8640081,10.688 55.248,10.688 L53.112,10.688 L53.112,13.688 C53.112,14.888006 53.2439987,15.6559983 53.508,15.992 C53.7720013,16.3280017 54.399995,16.496 55.392,16.496 L55.392,17 L48.912,17 L48.912,16.496 C49.904005,16.496 50.5319987,16.3280017 50.796,15.992 C51.0600013,15.6559983 51.192,14.888006 51.192,13.688 L51.192,5.888 C51.192,4.687994 51.0600013,3.92400164 50.796,3.596 C50.5319987,3.26799836 49.904005,3.104 48.912,3.104 L48.912,2.6 L55.248,2.6 Z M55.224,9.824 C56.216005,9.824 56.9719974,9.52800296 57.492,8.936 C58.0120026,8.34399704 58.272,7.58400464 58.272,6.656 C58.272,5.72799536 58.0120026,4.96800296 57.492,4.376 C56.9719974,3.78399704 56.216005,3.488 55.224,3.488 L53.112,3.488 L53.112,9.824 L55.224,9.824 Z M71.2,12.608 L64.192,12.608 L64.192,11.552 L71.2,11.552 L71.2,12.608 Z M88.376,2.6 L88.592,5.84 L88.088,5.84 L87.968,5.36 C87.775999,4.6399964 87.5200016,4.15600124 87.2,3.908 C86.8799984,3.65999876 86.2080051,3.536 85.184,3.536 L82.04,3.536 L82.04,13.688 C82.04,14.888006 82.1759986,15.6559983 82.448,15.992 C82.7200014,16.3280017 83.351995,16.496 84.344,16.496 L84.344,17 L77.84,17 L77.84,16.496 C78.832005,16.496 79.4639986,16.3280017 79.736,15.992 C80.0080014,15.6559983 80.144,14.888006 80.144,13.688 L80.144,3.536 L77,3.536 C75.9759949,3.536 75.3040016,3.65999876 74.984,3.908 C74.6639984,4.15600124 74.408001,4.6399964 74.216,5.36 L74.096,5.84 L73.592,5.84 L73.808,2.6 L88.376,2.6 Z M89.544,22.688 C89.544,22.4319987 89.639999,22.204001 89.832,22.004 C90.024001,21.803999 90.2759984,21.5320017 90.588,21.188 C90.9000016,20.8439983 91.159999,20.4080026 91.368,19.88 L92.568,16.88 L89.808,10.904 C89.5519987,10.3599973 89.3120011,9.988001 89.088,9.788 C88.8639989,9.587999 88.5680018,9.488 88.2,9.488 L88.2,9.008 L92.448,9.008 L92.448,9.488 C91.9039973,9.488 91.5760006,9.57599912 91.464,9.752 C91.3519994,9.92800088 91.4239987,10.311997 91.68,10.904 L93.432,14.744 L94.968,10.904 C95.1920011,10.3599973 95.2560005,9.988001 95.16,9.788 C95.0639995,9.587999 94.7680025,9.488 94.272,9.488 L94.272,9.008 L97.632,9.008 L97.632,9.488 C96.8799962,9.488 96.3120019,9.95999528 95.928,10.904 L91.248,22.592 C91.0079988,23.184003 90.7120018,23.48 90.36,23.48 C90.151999,23.48 89.9640008,23.4160006 89.796,23.288 C89.6279992,23.1599994 89.544,22.9600014 89.544,22.688 Z M106.864,15.488 C107.328002,14.8319967 107.56,14.000005 107.56,12.992 C107.56,11.983995 107.328002,11.1600032 106.864,10.52 C106.399998,9.8799968 105.728004,9.56 104.848,9.56 C104.303997,9.56 103.820002,9.72799832 103.396,10.064 C102.971998,10.4000017 102.640001,10.8559971 102.4,11.432 L102.4,14.528 C102.640001,15.120003 102.971998,15.5879983 103.396,15.932 C103.820002,16.2760017 104.303997,16.448 104.848,16.448 C105.728004,16.448 106.399998,16.1280032 106.864,15.488 Z M102.4,19.712 C102.4,20.8960059 102.515999,21.6559983 102.748,21.992 C102.980001,22.3280017 103.495996,22.496 104.296,22.496 L104.296,23 L98.8,23 L98.8,22.496 C99.600004,22.496 100.115999,22.3320016 100.348,22.004 C100.580001,21.6759984 100.696,20.912006 100.696,19.712 L100.696,12.488 C100.696,11.287994 100.580001,10.5240016 100.348,10.196 C100.115999,9.86799836 99.600004,9.704 98.8,9.704 L98.8,9.2 L102.016,8.6 C102.112,8.77600088 102.231999,9.263996 102.376,10.064 C103.192004,9.08799512 104.183994,8.6 105.352,8.6 C106.488006,8.6 107.463996,9.02799572 108.28,9.884 C109.096004,10.7400043 109.504,11.7759939 109.504,12.992 C109.504,14.2080061 109.096004,15.2479957 108.28,16.112 C107.463996,16.9760043 106.488006,17.408 105.352,17.408 C104.167994,17.408 103.184004,16.9280048 102.4,15.968 L102.4,19.712 Z M114.872,11.504 L118.856,11.504 C119.016001,11.0559978 118.948001,10.6200021 118.652,10.196 C118.355999,9.77199788 117.848004,9.56 117.128,9.56 C116.615997,9.56 116.156002,9.73599824 115.748,10.088 C115.339998,10.4400018 115.048001,10.911997 114.872,11.504 Z M114.728,12.392 C114.583999,13.5760059 114.771997,14.5399963 115.292,15.284 C115.812003,16.0280037 116.663994,16.4 117.848,16.4 C118.248002,16.4 118.703997,16.296001 119.216,16.088 C119.728003,15.879999 120.151998,15.6160016 120.488,15.296 L120.92,15.824 C120.487998,16.2880023 119.936003,16.6679985 119.264,16.964 C118.591997,17.2600015 117.920003,17.408 117.248,17.408 C115.951994,17.408 114.888004,16.9800043 114.056,16.124 C113.223996,15.2679957 112.808,14.2240062 112.808,12.992 C112.808,11.7599938 113.259995,10.7200042 114.164,9.872 C115.068005,9.02399576 116.095994,8.6 117.248,8.6 C118.336005,8.6 119.223997,8.9799962 119.912,9.74 C120.600003,10.5000038 120.800001,11.383995 120.512,12.392 L114.728,12.392 Z" id="P-Type-Copy" fill="#524740"></path>
                <path d="M208.512,14.024 L208.512,5.888 C208.512,4.687994 208.380001,3.92400164 208.116,3.596 C207.851999,3.26799836 207.224005,3.104 206.232,3.104 L206.232,2.6 L211.704,2.6 L211.704,3.104 C210.711995,3.104 210.080001,3.26799836 209.808,3.596 C209.535999,3.92400164 209.4,4.687994 209.4,5.888 L209.4,17.408 L208.848,17.408 L199.08,5.336 L199.08,13.688 C199.08,14.888006 199.215999,15.6559983 199.488,15.992 C199.760001,16.3280017 200.391995,16.496 201.384,16.496 L201.384,17 L195.912,17 L195.912,16.496 C196.904005,16.496 197.531999,16.3280017 197.796,15.992 C198.060001,15.6559983 198.192,14.888006 198.192,13.688 L198.192,5.888 C198.192,4.687994 198.060001,3.92400164 197.796,3.596 C197.531999,3.26799836 196.904005,3.104 195.912,3.104 L195.912,2.6 L199.296,2.6 L208.512,14.024 Z M222.4,12.608 L215.392,12.608 L215.392,11.552 L222.4,11.552 L222.4,12.608 Z M239.576,2.6 L239.792,5.84 L239.288,5.84 L239.168,5.36 C238.975999,4.6399964 238.720002,4.15600124 238.4,3.908 C238.079998,3.65999876 237.408005,3.536 236.384,3.536 L233.24,3.536 L233.24,13.688 C233.24,14.888006 233.375999,15.6559983 233.648,15.992 C233.920001,16.3280017 234.551995,16.496 235.544,16.496 L235.544,17 L229.04,17 L229.04,16.496 C230.032005,16.496 230.663999,16.3280017 230.936,15.992 C231.208001,15.6559983 231.344,14.888006 231.344,13.688 L231.344,3.536 L228.2,3.536 C227.175995,3.536 226.504002,3.65999876 226.184,3.908 C225.863998,4.15600124 225.608001,4.6399964 225.416,5.36 L225.296,5.84 L224.792,5.84 L225.008,2.6 L239.576,2.6 Z M240.744,22.688 C240.744,22.4319987 240.839999,22.204001 241.032,22.004 C241.224001,21.803999 241.475998,21.5320017 241.788,21.188 C242.100002,20.8439983 242.359999,20.4080026 242.568,19.88 L243.768,16.88 L241.008,10.904 C240.751999,10.3599973 240.512001,9.988001 240.288,9.788 C240.063999,9.587999 239.768002,9.488 239.4,9.488 L239.4,9.008 L243.648,9.008 L243.648,9.488 C243.103997,9.488 242.776001,9.57599912 242.664,9.752 C242.551999,9.92800088 242.623999,10.311997 242.88,10.904 L244.632,14.744 L246.168,10.904 C246.392001,10.3599973 246.456,9.988001 246.36,9.788 C246.264,9.587999 245.968002,9.488 245.472,9.488 L245.472,9.008 L248.832,9.008 L248.832,9.488 C248.079996,9.488 247.512002,9.95999528 247.128,10.904 L242.448,22.592 C242.207999,23.184003 241.912002,23.48 241.56,23.48 C241.351999,23.48 241.164001,23.4160006 240.996,23.288 C240.827999,23.1599994 240.744,22.9600014 240.744,22.688 Z M258.064,15.488 C258.528002,14.8319967 258.76,14.000005 258.76,12.992 C258.76,11.983995 258.528002,11.1600032 258.064,10.52 C257.599998,9.8799968 256.928004,9.56 256.048,9.56 C255.503997,9.56 255.020002,9.72799832 254.596,10.064 C254.171998,10.4000017 253.840001,10.8559971 253.6,11.432 L253.6,14.528 C253.840001,15.120003 254.171998,15.5879983 254.596,15.932 C255.020002,16.2760017 255.503997,16.448 256.048,16.448 C256.928004,16.448 257.599998,16.1280032 258.064,15.488 Z M253.6,19.712 C253.6,20.8960059 253.715999,21.6559983 253.948,21.992 C254.180001,22.3280017 254.695996,22.496 255.496,22.496 L255.496,23 L250,23 L250,22.496 C250.800004,22.496 251.315999,22.3320016 251.548,22.004 C251.780001,21.6759984 251.896,20.912006 251.896,19.712 L251.896,12.488 C251.896,11.287994 251.780001,10.5240016 251.548,10.196 C251.315999,9.86799836 250.800004,9.704 250,9.704 L250,9.2 L253.216,8.6 C253.312,8.77600088 253.431999,9.263996 253.576,10.064 C254.392004,9.08799512 255.383994,8.6 256.552,8.6 C257.688006,8.6 258.663996,9.02799572 259.48,9.884 C260.296004,10.7400043 260.704,11.7759939 260.704,12.992 C260.704,14.2080061 260.296004,15.2479957 259.48,16.112 C258.663996,16.9760043 257.688006,17.408 256.552,17.408 C255.367994,17.408 254.384004,16.9280048 253.6,15.968 L253.6,19.712 Z M266.072,11.504 L270.056,11.504 C270.216001,11.0559978 270.148001,10.6200021 269.852,10.196 C269.555999,9.77199788 269.048004,9.56 268.328,9.56 C267.815997,9.56 267.356002,9.73599824 266.948,10.088 C266.539998,10.4400018 266.248001,10.911997 266.072,11.504 Z M265.928,12.392 C265.783999,13.5760059 265.971997,14.5399963 266.492,15.284 C267.012003,16.0280037 267.863994,16.4 269.048,16.4 C269.448002,16.4 269.903997,16.296001 270.416,16.088 C270.928003,15.879999 271.351998,15.6160016 271.688,15.296 L272.12,15.824 C271.687998,16.2880023 271.136003,16.6679985 270.464,16.964 C269.791997,17.2600015 269.120003,17.408 268.448,17.408 C267.151994,17.408 266.088004,16.9800043 265.256,16.124 C264.423996,15.2679957 264.008,14.2240062 264.008,12.992 C264.008,11.7599938 264.459995,10.7200042 265.364,9.872 C266.268005,9.02399576 267.295994,8.6 268.448,8.6 C269.536005,8.6 270.423997,8.9799962 271.112,9.74 C271.800003,10.5000038 272.000001,11.383995 271.712,12.392 L265.928,12.392 Z" id="N-Type-Copy" fill="#524740"></path>
            </g>
        </g>
        <path d="M345.748,300 L345.748,275.808 L353.956,275.808 C356.668014,275.808 358.827992,276.521993 360.436,277.95 C362.044008,279.378007 362.848,281.171989 362.848,283.332 C362.848,285.468011 362.044008,287.255993 360.436,288.696 C358.827992,290.136007 356.668014,290.856 353.956,290.856 L348.124,290.856 L348.124,300 L345.748,300 Z M348.124,288.588 L353.956,288.588 C355.90001,288.588 357.459994,288.090005 358.636,287.094 C359.812006,286.097995 360.4,284.844008 360.4,283.332 C360.4,281.843993 359.812006,280.596005 358.636,279.588 C357.459994,278.579995 355.90001,278.076 353.956,278.076 L348.124,278.076 L348.124,288.588 Z M377.132,288.984 L367.448,288.984 L367.448,286.824 L377.132,286.824 L377.132,288.984 Z M398.4,275.808 L400.776,275.808 L400.776,300 L398.328,300 L384.828,279.444 L384.828,300 L382.452,300 L382.452,275.808 L384.864,275.808 L398.4,296.4 L398.4,275.808 Z M423.152,300.288 C421.543992,300.288 420.176006,299.772005 419.048,298.74 C417.919994,297.707995 417.188002,296.532007 416.852,295.212 L418.94,294.456 C419.156001,295.392005 419.629996,296.225996 420.362,296.958 C421.094004,297.690004 421.975995,298.056 423.008,298.056 C424.304006,298.056 425.269997,297.672004 425.906,296.904 C426.542003,296.135996 426.86,295.200006 426.86,294.096 L426.86,275.952 L429.236,275.952 L429.236,293.952 C429.236,295.800009 428.708005,297.317994 427.652,298.506 C426.595995,299.694006 425.09601,300.288 423.152,300.288 Z M448.344,282 L450.72,282 L450.72,300 L448.344,300 L448.344,297.336 C446.879993,299.30401 444.960012,300.288 442.584,300.288 C440.49599,300.288 438.744007,299.550007 437.328,298.074 C435.911993,296.597993 435.204,294.780011 435.204,292.62 L435.204,282 L437.652,282 L437.652,292.548 C437.652,294.084008 438.167995,295.385995 439.2,296.454 C440.232005,297.522005 441.491993,298.056 442.98,298.056 C444.492008,298.056 445.763995,297.522005 446.796,296.454 C447.828005,295.385995 448.344,294.084008 448.344,292.548 L448.344,282 Z M464.788,281.712 C466.87601,281.712 468.627993,282.449993 470.044,283.926 C471.460007,285.402007 472.168,287.219989 472.168,289.38 L472.168,300 L469.756,300 L469.756,289.452 C469.756,287.915992 469.234005,286.608005 468.19,285.528 C467.145995,284.447995 465.880007,283.908 464.392,283.908 C462.903993,283.908 461.638005,284.447995 460.594,285.528 C459.549995,286.608005 459.028,287.915992 459.028,289.452 L459.028,300 L456.652,300 L456.652,282 L459.028,282 L459.028,284.664 C460.492007,282.69599 462.411988,281.712 464.788,281.712 Z M485.84,300.288 C483.271987,300.288 481.082009,299.382009 479.27,297.57 C477.457991,295.757991 476.552,293.568013 476.552,291 C476.552,288.431987 477.457991,286.242009 479.27,284.43 C481.082009,282.617991 483.271987,281.712 485.84,281.712 C487.472008,281.712 488.989993,282.113996 490.394,282.918 C491.798007,283.722004 492.907996,284.795993 493.724,286.14 L491.564,287.184 C490.915997,286.199995 490.088005,285.420003 489.08,284.844 C488.071995,284.267997 486.992006,283.98 485.84,283.98 C483.89599,283.98 482.258007,284.657993 480.926,286.014 C479.593993,287.370007 478.928,289.03199 478.928,291 C478.928,292.96801 479.593993,294.629993 480.926,295.986 C482.258007,297.342007 483.89599,298.02 485.84,298.02 C486.992006,298.02 488.071995,297.732003 489.08,297.156 C490.088005,296.579997 490.915997,295.800005 491.564,294.816 L493.724,295.86 C492.907996,297.204007 491.798007,298.277996 490.394,299.082 C488.989993,299.886004 487.472008,300.288 485.84,300.288 Z M509.016,295.968 L510.204,297.804 C510.059999,297.996001 509.868001,298.223999 509.628,298.488 C509.387999,298.752001 508.848004,299.117998 508.008,299.586 C507.167996,300.054002 506.304004,300.288 505.416,300.288 C503.903992,300.288 502.638005,299.838005 501.618,298.938 C500.597995,298.037996 500.088,296.736009 500.088,295.032 L500.088,284.16 L497.208,284.16 L497.208,281.964 L500.088,281.964 L500.088,276.276 L502.464,275.988 L502.464,281.964 L507.9,281.964 L507.9,284.16 L502.464,284.16 L502.464,294.492 C502.464,295.596006 502.805997,296.471997 503.49,297.12 C504.174003,297.768003 504.959996,298.092 505.848,298.092 C506.400003,298.092 506.939997,297.924002 507.468,297.588 C507.996003,297.251998 508.385999,296.922002 508.638,296.598 C508.890001,296.273998 509.016,296.064 509.016,295.968 Z M516.856,276.6 C516.591999,276.888001 516.256002,277.032 515.848,277.032 C515.439998,277.032 515.098001,276.888001 514.822,276.6 C514.545999,276.311999 514.408,275.976002 514.408,275.592 C514.408,275.207998 514.545999,274.872001 514.822,274.584 C515.098001,274.295999 515.439998,274.152 515.848,274.152 C516.256002,274.152 516.597999,274.295999 516.874,274.584 C517.150001,274.872001 517.288,275.207998 517.288,275.592 C517.288,275.976002 517.144001,276.311999 516.856,276.6 Z M514.66,300 L514.66,282 L517.036,282 L517.036,300 L514.66,300 Z M538.088,297.552 C536.287991,299.376009 534.104013,300.288 531.536,300.288 C528.967987,300.288 526.778009,299.382009 524.966,297.57 C523.153991,295.757991 522.248,293.568013 522.248,291 C522.248,288.431987 523.153991,286.242009 524.966,284.43 C526.778009,282.617991 528.967987,281.712 531.536,281.712 C534.104013,281.712 536.293991,282.617991 538.106,284.43 C539.918009,286.242009 540.824,288.431987 540.824,291 C540.824,293.544013 539.912009,295.727991 538.088,297.552 Z M531.572,298.02 C533.51601,298.02 535.153993,297.342007 536.486,295.986 C537.818007,294.629993 538.484,292.96801 538.484,291 C538.484,289.03199 537.818007,287.364007 536.486,285.996 C535.153993,284.627993 533.51601,283.944 531.572,283.944 C529.65199,283.944 528.020007,284.627993 526.676,285.996 C525.331993,287.364007 524.66,289.03199 524.66,291 C524.66,292.96801 525.331993,294.629993 526.676,295.986 C528.020007,297.342007 529.65199,298.02 531.572,298.02 Z M553.524,281.712 C555.61201,281.712 557.363993,282.449993 558.78,283.926 C560.196007,285.402007 560.904,287.219989 560.904,289.38 L560.904,300 L558.492,300 L558.492,289.452 C558.492,287.915992 557.970005,286.608005 556.926,285.528 C555.881995,284.447995 554.616007,283.908 553.128,283.908 C551.639993,283.908 550.374005,284.447995 549.33,285.528 C548.285995,286.608005 547.764,287.915992 547.764,289.452 L547.764,300 L545.388,300 L545.388,282 L547.764,282 L547.764,284.664 C549.228007,282.69599 551.147988,281.712 553.524,281.712 Z M593.504,278.184 L580.004,278.184 L580.004,286.5 L587.6,286.5 L587.6,288.876 L580.004,288.876 L580.004,297.624 L593.504,297.624 L593.504,300 L577.628,300 L577.628,275.808 L593.504,275.808 L593.504,278.184 Z M598.752,300 L598.752,273.216 L601.128,273.216 L601.128,300 L598.752,300 Z M615.268,297.912 C616.876008,297.912 618.315994,297.456005 619.588,296.544 C620.860006,295.631995 621.723998,294.564006 622.18,293.34 L624.196,294.06 C623.643997,295.572008 622.570008,296.963994 620.974,298.236 C619.377992,299.508006 617.476011,300.132 615.268,300.108 C613.25199,300.108 611.410008,299.484006 609.742,298.236 C608.073992,296.987994 606.940003,295.39201 606.34,293.448 C606.099999,292.655996 605.98,291.792005 605.98,290.856 C605.98,288.263987 606.879991,286.068009 608.68,284.268 C610.480009,282.467991 612.675987,281.556 615.268,281.532 C617.620012,281.556 619.671991,282.347992 621.424,283.908 C623.176009,285.468008 624.183999,287.399988 624.448,289.704 C624.472,289.824001 624.484,289.979999 624.484,290.172 L608.752,293.016 C609.160002,294.456007 609.975994,295.637995 611.2,296.562 C612.424006,297.486005 613.779993,297.936 615.268,297.912 Z M615.052,283.728 C613.251991,283.752 611.710006,284.399994 610.426,285.672 C609.141994,286.944006 608.452,288.467991 608.356,290.244 C608.356,290.316 608.362,290.441999 608.374,290.622 C608.386,290.802001 608.392,290.951999 608.392,291.072 L621.784,288.66 C621.327998,287.195993 620.476006,286.002005 619.228,285.078 C617.979994,284.153995 616.588008,283.704 615.052,283.728 Z M637.76,300.288 C635.191987,300.288 633.002009,299.382009 631.19,297.57 C629.377991,295.757991 628.472,293.568013 628.472,291 C628.472,288.431987 629.377991,286.242009 631.19,284.43 C633.002009,282.617991 635.191987,281.712 637.76,281.712 C639.392008,281.712 640.909993,282.113996 642.314,282.918 C643.718007,283.722004 644.827996,284.795993 645.644,286.14 L643.484,287.184 C642.835997,286.199995 642.008005,285.420003 641,284.844 C639.991995,284.267997 638.912006,283.98 637.76,283.98 C635.81599,283.98 634.178007,284.657993 632.846,286.014 C631.513993,287.370007 630.848,289.03199 630.848,291 C630.848,292.96801 631.513993,294.629993 632.846,295.986 C634.178007,297.342007 635.81599,298.02 637.76,298.02 C638.912006,298.02 639.991995,297.732003 641,297.156 C642.008005,296.579997 642.835997,295.800005 643.484,294.816 L645.644,295.86 C644.827996,297.204007 643.718007,298.277996 642.314,299.082 C640.909993,299.886004 639.392008,300.288 637.76,300.288 Z M660.936,295.968 L662.124,297.804 C661.979999,297.996001 661.788001,298.223999 661.548,298.488 C661.307999,298.752001 660.768004,299.117998 659.928,299.586 C659.087996,300.054002 658.224004,300.288 657.336,300.288 C655.823992,300.288 654.558005,299.838005 653.538,298.938 C652.517995,298.037996 652.008,296.736009 652.008,295.032 L652.008,284.16 L649.128,284.16 L649.128,281.964 L652.008,281.964 L652.008,276.276 L654.384,275.988 L654.384,281.964 L659.82,281.964 L659.82,284.16 L654.384,284.16 L654.384,294.492 C654.384,295.596006 654.725997,296.471997 655.41,297.12 C656.094003,297.768003 656.879996,298.092 657.768,298.092 C658.320003,298.092 658.859997,297.924002 659.388,297.588 C659.916003,297.251998 660.305999,296.922002 660.558,296.598 C660.810001,296.273998 660.936,296.064 660.936,295.968 Z M674.932,281.712 C676.204006,281.712 677.367995,282.023997 678.424,282.648 L677.596,285.024 C676.587995,284.279996 675.568005,283.908 674.536,283.908 C673.023992,283.908 671.752005,284.441995 670.72,285.51 C669.687995,286.578005 669.172,287.891992 669.172,289.452 L669.172,300 L666.796,300 L666.796,282 L669.172,282 L669.172,284.664 C670.636007,282.69599 672.555988,281.712 674.932,281.712 Z M695.948,297.552 C694.147991,299.376009 691.964013,300.288 689.396,300.288 C686.827987,300.288 684.638009,299.382009 682.826,297.57 C681.013991,295.757991 680.108,293.568013 680.108,291 C680.108,288.431987 681.013991,286.242009 682.826,284.43 C684.638009,282.617991 686.827987,281.712 689.396,281.712 C691.964013,281.712 694.153991,282.617991 695.966,284.43 C697.778009,286.242009 698.684,288.431987 698.684,291 C698.684,293.544013 697.772009,295.727991 695.948,297.552 Z M689.432,298.02 C691.37601,298.02 693.013993,297.342007 694.346,295.986 C695.678007,294.629993 696.344,292.96801 696.344,291 C696.344,289.03199 695.678007,287.364007 694.346,285.996 C693.013993,284.627993 691.37601,283.944 689.432,283.944 C687.51199,283.944 685.880007,284.627993 684.536,285.996 C683.191993,287.364007 682.52,289.03199 682.52,291 C682.52,292.96801 683.191993,294.629993 684.536,295.986 C685.880007,297.342007 687.51199,298.02 689.432,298.02 Z M711.384,281.712 C713.47201,281.712 715.223993,282.449993 716.64,283.926 C718.056007,285.402007 718.764,287.219989 718.764,289.38 L718.764,300 L716.352,300 L716.352,289.452 C716.352,287.915992 715.830005,286.608005 714.786,285.528 C713.741995,284.447995 712.476007,283.908 710.988,283.908 C709.499993,283.908 708.234005,284.447995 707.19,285.528 C706.145995,286.608005 705.624,287.915992 705.624,289.452 L705.624,300 L703.248,300 L703.248,282 L705.624,282 L705.624,284.664 C707.088007,282.69599 709.007988,281.712 711.384,281.712 Z M735.488,300 L735.488,275.808 L740.96,275.808 C744.94402,275.808 748.111988,276.959988 750.464,279.264 C752.816012,281.568012 753.992,284.447983 753.992,287.904 C753.992,291.336017 752.810012,294.209988 750.446,296.526 C748.081988,298.842012 744.92002,300 740.96,300 L735.488,300 Z M737.864,297.732 L740.96,297.732 C744.128016,297.732 746.659991,296.802009 748.556,294.942 C750.452009,293.081991 751.4,290.736014 751.4,287.904 C751.4,285.071986 750.452009,282.726009 748.556,280.866 C746.659991,279.005991 744.128016,278.076 740.96,278.076 L737.864,278.076 L737.864,297.732 Z M761.652,276.6 C761.387999,276.888001 761.052002,277.032 760.644,277.032 C760.235998,277.032 759.894001,276.888001 759.618,276.6 C759.341999,276.311999 759.204,275.976002 759.204,275.592 C759.204,275.207998 759.341999,274.872001 759.618,274.584 C759.894001,274.295999 760.235998,274.152 760.644,274.152 C761.052002,274.152 761.393999,274.295999 761.67,274.584 C761.946001,274.872001 762.084,275.207998 762.084,275.592 C762.084,275.976002 761.940001,276.311999 761.652,276.6 Z M759.456,300 L759.456,282 L761.832,282 L761.832,300 L759.456,300 Z M775.036,281.928 L775.036,283.908 L771.508,283.908 L771.508,300 L769.168,300 L769.168,283.908 L767.044,283.908 L767.044,281.928 L769.168,281.928 L769.168,276.708 C769.168,274.211988 770.15199,272.964 772.12,272.964 C772.552002,272.964 772.989998,273 773.434,273.072 C773.878002,273.144 774.207999,273.216 774.424,273.288 L774.748,273.396 L774.244,275.232 C773.763998,275.111999 773.284002,275.052 772.804,275.052 C772.275997,275.052 771.928001,275.225998 771.76,275.574 C771.591999,275.922002 771.508,276.587995 771.508,277.572 L771.508,281.928 L775.036,281.928 Z M786.836,281.928 L786.836,283.908 L783.308,283.908 L783.308,300 L780.968,300 L780.968,283.908 L778.844,283.908 L778.844,281.928 L780.968,281.928 L780.968,276.708 C780.968,274.211988 781.95199,272.964 783.92,272.964 C784.352002,272.964 784.789998,273 785.234,273.072 C785.678002,273.144 786.007999,273.216 786.224,273.288 L786.548,273.396 L786.044,275.232 C785.563998,275.111999 785.084002,275.052 784.604,275.052 C784.075997,275.052 783.728001,275.225998 783.56,275.574 C783.391999,275.922002 783.308,276.587995 783.308,277.572 L783.308,281.928 L786.836,281.928 Z M804.792,282 L807.168,282 L807.168,300 L804.792,300 L804.792,297.336 C803.327993,299.30401 801.408012,300.288 799.032,300.288 C796.94399,300.288 795.192007,299.550007 793.776,298.074 C792.359993,296.597993 791.652,294.780011 791.652,292.62 L791.652,282 L794.1,282 L794.1,292.548 C794.1,294.084008 794.615995,295.385995 795.648,296.454 C796.680005,297.522005 797.939993,298.056 799.428,298.056 C800.940008,298.056 802.211995,297.522005 803.244,296.454 C804.276005,295.385995 804.792,294.084008 804.792,292.548 L804.792,282 Z M819.436,300.288 C818.619996,300.288 817.828004,300.186001 817.06,299.982 C816.291996,299.777999 815.650003,299.538001 815.134,299.262 C814.617997,298.985999 814.156002,298.704001 813.748,298.416 C813.339998,298.127999 813.040001,297.888001 812.848,297.696 L812.56,297.372 L814.252,295.932 C814.420001,296.100001 814.653998,296.303999 814.954,296.544 C815.254001,296.784001 815.859995,297.107998 816.772,297.516 C817.684005,297.924002 818.583996,298.128 819.472,298.128 C820.792007,298.128 821.847996,297.876003 822.64,297.372 C823.432004,296.867997 823.828,296.160005 823.828,295.248 C823.828,294.599997 823.432004,294.042002 822.64,293.574 C821.847996,293.105998 820.888006,292.704002 819.76,292.368 C818.631994,292.031998 817.498006,291.660002 816.358,291.252 C815.217994,290.843998 814.252004,290.268004 813.46,289.524 C812.667996,288.779996 812.272,287.868005 812.272,286.788 C812.272,285.299993 812.829994,284.082005 813.946,283.134 C815.062006,282.185995 816.711989,281.712 818.896,281.712 C820.192006,281.712 821.415994,281.951998 822.568,282.432 C823.720006,282.912002 824.547997,283.391998 825.052,283.872 L825.808,284.592 L824.116,286.068 C823.947999,285.899999 823.714001,285.696001 823.414,285.456 C823.113998,285.215999 822.508005,284.892002 821.596,284.484 C820.683995,284.075998 819.772005,283.872 818.86,283.872 C817.563994,283.872 816.514004,284.123997 815.71,284.628 C814.905996,285.132003 814.504,285.839995 814.504,286.752 C814.504,287.400003 814.899996,287.957998 815.692,288.426 C816.484004,288.894002 817.443994,289.295998 818.572,289.632 C819.700006,289.968002 820.833994,290.333998 821.974,290.73 C823.114006,291.126002 824.079996,291.701996 824.872,292.458 C825.664004,293.214004 826.06,294.131995 826.06,295.212 C826.06,296.724008 825.508006,297.947995 824.404,298.884 C823.299994,299.820005 821.644011,300.288 819.436,300.288 Z M833.612,276.6 C833.347999,276.888001 833.012002,277.032 832.604,277.032 C832.195998,277.032 831.854001,276.888001 831.578,276.6 C831.301999,276.311999 831.164,275.976002 831.164,275.592 C831.164,275.207998 831.301999,274.872001 831.578,274.584 C831.854001,274.295999 832.195998,274.152 832.604,274.152 C833.012002,274.152 833.353999,274.295999 833.63,274.584 C833.906001,274.872001 834.044,275.207998 834.044,275.592 C834.044,275.976002 833.900001,276.311999 833.612,276.6 Z M831.416,300 L831.416,282 L833.792,282 L833.792,300 L831.416,300 Z M854.844,297.552 C853.043991,299.376009 850.860013,300.288 848.292,300.288 C845.723987,300.288 843.534009,299.382009 841.722,297.57 C839.909991,295.757991 839.004,293.568013 839.004,291 C839.004,288.431987 839.909991,286.242009 841.722,284.43 C843.534009,282.617991 845.723987,281.712 848.292,281.712 C850.860013,281.712 853.049991,282.617991 854.862,284.43 C856.674009,286.242009 857.58,288.431987 857.58,291 C857.58,293.544013 856.668009,295.727991 854.844,297.552 Z M848.328,298.02 C850.27201,298.02 851.909993,297.342007 853.242,295.986 C854.574007,294.629993 855.24,292.96801 855.24,291 C855.24,289.03199 854.574007,287.364007 853.242,285.996 C851.909993,284.627993 850.27201,283.944 848.328,283.944 C846.40799,283.944 844.776007,284.627993 843.432,285.996 C842.087993,287.364007 841.416,289.03199 841.416,291 C841.416,292.96801 842.087993,294.629993 843.432,295.986 C844.776007,297.342007 846.40799,298.02 848.328,298.02 Z M870.28,281.712 C872.36801,281.712 874.119993,282.449993 875.536,283.926 C876.952007,285.402007 877.66,287.219989 877.66,289.38 L877.66,300 L875.248,300 L875.248,289.452 C875.248,287.915992 874.726005,286.608005 873.682,285.528 C872.637995,284.447995 871.372007,283.908 869.884,283.908 C868.395993,283.908 867.130005,284.447995 866.086,285.528 C865.041995,286.608005 864.52,287.915992 864.52,289.452 L864.52,300 L862.144,300 L862.144,282 L864.52,282 L864.52,284.664 C865.984007,282.69599 867.903988,281.712 870.28,281.712 Z" id="P-N-Junction-Electro-Copy" fill="#23ABE3"></path>
    </g>
</svg>