<?xml version="1.0" encoding="UTF-8"?>
<svg width="900px" height="450px" viewBox="0 0 900 450" version="1.1" xmlns="http://www.w3.org/2000/svg" xmlns:xlink="http://www.w3.org/1999/xlink">
    <!-- Generator: Sketch 52.5 (67469) - http://www.bohemiancoding.com/sketch -->
    <title>P-Type_Silicon_Crystal</title>
    <desc>Created with Sketch.</desc>
    <g id="P-Type_Silicon_Crystal" stroke="none" stroke-width="1" fill="none" fill-rule="evenodd">
        <rect id="Rectangle" stroke="#3D3530" stroke-width="2" fill="#EEEEEE" x="1" y="1" width="898" height="448"></rect>
        <rect id="Rectangle-Copy" stroke="#3D3530" stroke-width="2" x="1" y="387" width="898" height="62"></rect>
        <g id="Illustration" transform="translate(202.000000, 15.000000)">
            <g id="Connectors" transform="translate(71.000000, 79.000000)" stroke="#524740" stroke-width="2">
                <path d="M0.576010071,34.4848177 L64,94.0891175" id="Path-4"></path>
                <path d="M6.98835279,165.073915 L64.8529269,132.18612" id="Path-4-Copy-2"></path>
                <path d="M31.5962499,198.487616 L82.1455016,152.235338" id="Path-4-Copy-3"></path>
                <path d="M178.665386,212.173625 L125.187513,152.554371" id="Path-4-Copy-4"></path>
                <path d="M190.995505,30.9978889 L142.066342,88.8923723" id="Path-4-Copy-6"></path>
                <path d="M161.308007,9.59776687 L120.120375,72.3425458" id="Path-4-Copy-7"></path>
                <path d="M204.484611,180.888471 L144.852894,132.07396" id="Path-4-Copy-5"></path>
                <path d="M39.0411794,0.146420176 L85.8642277,70.3959472" id="Path-4-Copy"></path>
            </g>
            <polyline id="Path-5" stroke="#B09679" stroke-width="3" fill="#D8D8D8" points="224 149.057487 276 156.790867 313 156.790867"></polyline>
            <circle id="Oval-Copy-11" fill="#EF7D3B" cx="105" cy="113" r="12"></circle>
            <circle id="Oval-Copy-12" fill="#EF7D3B" cx="127" cy="137" r="12"></circle>
            <circle id="Oval-Copy-13" fill="#EF7D3B" cx="232" cy="120" r="12"></circle>
            <circle id="Oval-Copy-15" stroke="#5AC0EA" stroke-width="3" fill="#EEEEEE" cx="214" cy="143" r="11"></circle>
            <circle id="Oval-Copy-16" fill="#EF7D3B" cx="224" cy="239" r="12"></circle>
            <circle id="Oval-Copy-17" fill="#EF7D3B" cx="245" cy="258" r="12"></circle>
            <circle id="Oval-Copy-18" fill="#EF7D3B" cx="129" cy="233" r="12"></circle>
            <circle id="Oval-Copy-19" fill="#EF7D3B" cx="107" cy="249" r="12"></circle>
            <circle id="Oval-Copy-14" fill="#EF7D3B" cx="190" cy="166" r="12"></circle>
            <circle id="Oval" fill="#252525" cx="57.5" cy="57.5" r="57.5"></circle>
            <circle id="Oval-Copy" fill="#252525" cx="294" cy="304" r="53"></circle>
            <circle id="Oval-Copy-2" fill="#252525" cx="63.5" cy="281.5" r="41.5"></circle>
            <circle id="Oval-Copy-4" fill="#84D0EF" cx="176.5" cy="192.5" r="47.5"></circle>
            <circle id="Oval-Copy-3" fill="#252525" cx="264.5" cy="71.5" r="40.5"></circle>
            <path d="M331.616,150.144 L331.616,158.688 C331.616,159.888006 331.751999,160.655998 332.024,160.992 C332.296001,161.328002 332.927995,161.496 333.92,161.496 L333.92,162 L328.448,162 L328.448,161.496 C329.440005,161.496 330.067999,161.328002 330.332,160.992 C330.596001,160.655998 330.728,159.888006 330.728,158.688 L330.728,150.888 C330.728,149.687994 330.596001,148.924002 330.332,148.596 C330.067999,148.267998 329.440005,148.104 328.448,148.104 L328.448,147.6 L332.528,147.6 L337.616,159.288 L342.68,147.6 L346.448,147.6 L346.448,148.104 C345.439995,148.104 344.804001,148.267998 344.54,148.596 C344.275999,148.924002 344.144,149.687994 344.144,150.888 L344.144,158.688 C344.144,159.904006 344.275999,160.675998 344.54,161.004 C344.804001,161.332002 345.439995,161.496 346.448,161.496 L346.448,162 L339.968,162 L339.968,161.496 C340.960005,161.496 341.587999,161.328002 341.852,160.992 C342.116001,160.655998 342.248,159.888006 342.248,158.688 L342.248,150.864 L337.256,162.408 L336.944,162.408 L331.616,150.144 Z M354.944,162 L349.448,162 L349.448,161.496 C350.248004,161.496 350.763999,161.328002 350.996,160.992 C351.228001,160.655998 351.344,159.888006 351.344,158.688 L351.344,157.488 C351.344,156.303994 351.228001,155.544002 350.996,155.208 C350.763999,154.871998 350.248004,154.704 349.448,154.704 L349.448,154.2 L353.048,153.6 L353.048,158.688 C353.048,159.888006 353.163999,160.655998 353.396,160.992 C353.628001,161.328002 354.143996,161.496 354.944,161.496 L354.944,162 Z M353.24,150.168 C353.24,150.472002 353.136001,150.727999 352.928,150.936 C352.719999,151.144001 352.472001,151.248 352.184,151.248 C351.895999,151.248 351.648001,151.144001 351.44,150.936 C351.231999,150.727999 351.128,150.472002 351.128,150.168 C351.128,149.879999 351.231999,149.632001 351.44,149.424 C351.648001,149.215999 351.895999,149.112 352.184,149.112 C352.472001,149.112 352.719999,149.215999 352.928,149.424 C353.136001,149.632001 353.24,149.879999 353.24,150.168 Z M363.68,159.792 C363.68,160.560004 363.404003,161.187998 362.852,161.676 C362.299997,162.164002 361.624004,162.408 360.824,162.408 C360.535999,162.408 360.240002,162.352001 359.936,162.24 C359.631998,162.127999 359.388001,162.020001 359.204,161.916 C359.019999,161.811999 358.848001,161.732 358.688,161.676 C358.527999,161.62 358.416,161.647999 358.352,161.76 C358.288,161.872001 358.256,162.087998 358.256,162.408 L357.752,162.408 L357.752,158.904 L358.256,158.904 C358.256,159.528003 358.495998,160.131997 358.976,160.716 C359.456002,161.300003 360.087996,161.592 360.872,161.592 C361.256002,161.592 361.579999,161.472001 361.844,161.232 C362.108001,160.991999 362.24,160.704002 362.24,160.368 C362.24,159.871998 361.792004,159.384002 360.896,158.904 L359.552,158.184 C358.495995,157.607997 357.968,156.808005 357.968,155.784 C357.968,155.159997 358.211998,154.640002 358.7,154.224 C359.188002,153.807998 359.751997,153.6 360.392,153.6 C360.936003,153.6 361.495997,153.743999 362.072,154.032 C362.264001,154.144001 362.396,154.18 362.468,154.14 C362.54,154.1 362.576,153.920002 362.576,153.6 L363.08,153.6 L363.08,156.384 L362.576,156.384 C362.576,155.855997 362.396002,155.388002 362.036,154.98 C361.675998,154.571998 361.208003,154.368 360.632,154.368 C360.231998,154.368 359.928001,154.463999 359.72,154.656 C359.511999,154.848001 359.408,155.095998 359.408,155.4 C359.408,155.672001 359.511999,155.907999 359.72,156.108 C359.928001,156.308001 360.311997,156.559998 360.872,156.864 L362.024,157.488 C363.128006,158.112003 363.68,158.879995 363.68,159.792 Z M373.04,159.792 C373.04,160.560004 372.764003,161.187998 372.212,161.676 C371.659997,162.164002 370.984004,162.408 370.184,162.408 C369.895999,162.408 369.600002,162.352001 369.296,162.24 C368.991998,162.127999 368.748001,162.020001 368.564,161.916 C368.379999,161.811999 368.208001,161.732 368.048,161.676 C367.887999,161.62 367.776,161.647999 367.712,161.76 C367.648,161.872001 367.616,162.087998 367.616,162.408 L367.112,162.408 L367.112,158.904 L367.616,158.904 C367.616,159.528003 367.855998,160.131997 368.336,160.716 C368.816002,161.300003 369.447996,161.592 370.232,161.592 C370.616002,161.592 370.939999,161.472001 371.204,161.232 C371.468001,160.991999 371.6,160.704002 371.6,160.368 C371.6,159.871998 371.152004,159.384002 370.256,158.904 L368.912,158.184 C367.855995,157.607997 367.328,156.808005 367.328,155.784 C367.328,155.159997 367.571998,154.640002 368.06,154.224 C368.548002,153.807998 369.111997,153.6 369.752,153.6 C370.296003,153.6 370.855997,153.743999 371.432,154.032 C371.624001,154.144001 371.756,154.18 371.828,154.14 C371.9,154.1 371.936,153.920002 371.936,153.6 L372.44,153.6 L372.44,156.384 L371.936,156.384 C371.936,155.855997 371.756002,155.388002 371.396,154.98 C371.035998,154.571998 370.568003,154.368 369.992,154.368 C369.591998,154.368 369.288001,154.463999 369.08,154.656 C368.871999,154.848001 368.768,155.095998 368.768,155.4 C368.768,155.672001 368.871999,155.907999 369.08,156.108 C369.288001,156.308001 369.671997,156.559998 370.232,156.864 L371.384,157.488 C372.488006,158.112003 373.04,158.879995 373.04,159.792 Z M381.728,162 L376.232,162 L376.232,161.496 C377.032004,161.496 377.547999,161.328002 377.78,160.992 C378.012001,160.655998 378.128,159.888006 378.128,158.688 L378.128,157.488 C378.128,156.303994 378.012001,155.544002 377.78,155.208 C377.547999,154.871998 377.032004,154.704 376.232,154.704 L376.232,154.2 L379.832,153.6 L379.832,158.688 C379.832,159.888006 379.947999,160.655998 380.18,160.992 C380.412001,161.328002 380.927996,161.496 381.728,161.496 L381.728,162 Z M380.024,150.168 C380.024,150.472002 379.920001,150.727999 379.712,150.936 C379.503999,151.144001 379.256001,151.248 378.968,151.248 C378.679999,151.248 378.432001,151.144001 378.224,150.936 C378.015999,150.727999 377.912,150.472002 377.912,150.168 C377.912,149.879999 378.015999,149.632001 378.224,149.424 C378.432001,149.215999 378.679999,149.112 378.968,149.112 C379.256001,149.112 379.503999,149.215999 379.712,149.424 C379.920001,149.632001 380.024,149.879999 380.024,150.168 Z M387.896,155.328 C388.808005,154.175994 389.919993,153.6 391.232,153.6 C392.272005,153.6 393.051997,153.927997 393.572,154.584 C394.092003,155.240003 394.352,156.103995 394.352,157.176 L394.352,158.688 C394.352,159.888006 394.467999,160.655998 394.7,160.992 C394.932001,161.328002 395.447996,161.496 396.248,161.496 L396.248,162 L390.752,162 L390.752,161.496 C391.536004,161.496 392.047999,161.324002 392.288,160.98 C392.528001,160.635998 392.648,159.872006 392.648,158.688 L392.648,157.296 C392.648,155.583991 391.984007,154.728 390.656,154.728 C389.967997,154.728 389.336003,154.967998 388.76,155.448 C388.183997,155.928002 387.896,156.487997 387.896,157.128 L387.896,158.688 C387.896,159.920006 387.991999,160.695998 388.184,161.016 C388.376001,161.336002 388.839996,161.496 389.576,161.496 L389.576,162 L384.296,162 L384.296,161.496 C385.096004,161.496 385.611999,161.328002 385.844,160.992 C386.076001,160.655998 386.192,159.888006 386.192,158.688 L386.192,157.488 C386.192,156.303994 386.076001,155.544002 385.844,155.208 C385.611999,154.871998 385.096004,154.704 384.296,154.704 L384.296,154.2 L387.488,153.6 C387.632001,153.904002 387.767999,154.479996 387.896,155.328 Z M403.76,158.664 C404.064002,158.199998 404.216,157.600004 404.216,156.864 C404.216,156.127996 404.068001,155.528002 403.772,155.064 C403.475999,154.599998 403.048003,154.368 402.488,154.368 C401.927997,154.368 401.496002,154.599998 401.192,155.064 C400.887998,155.528002 400.736,156.127996 400.736,156.864 C400.736,157.600004 400.887998,158.195998 401.192,158.652 C401.496002,159.108002 401.927997,159.336 402.488,159.336 C403.048003,159.336 403.471999,159.112002 403.76,158.664 Z M400.256,161.136 C400.256,161.616002 400.983993,161.919999 402.44,162.048 C403.976008,162.176001 405.087997,162.527997 405.776,163.104 C406.464003,163.680003 406.808,164.375996 406.808,165.192 C406.808,166.168005 406.404004,166.947997 405.596,167.532 C404.787996,168.116003 403.776006,168.408 402.56,168.408 C401.263994,168.408 400.220004,168.140003 399.428,167.604 C398.635996,167.067997 398.272,166.440004 398.336,165.72 C398.4,164.999996 398.911995,164.392002 399.872,163.896 L400.304,164.16 C399.839998,164.688003 399.592,165.171998 399.56,165.612 C399.528,166.052002 399.667998,166.399999 399.98,166.656 C400.292002,166.912001 400.675998,167.111999 401.132,167.256 C401.588002,167.400001 402.063998,167.472 402.56,167.472 C403.344004,167.472 404.035997,167.300002 404.636,166.956 C405.236003,166.611998 405.536,166.168003 405.536,165.624 C405.536,165.095997 405.276003,164.712001 404.756,164.472 C404.235997,164.231999 403.424006,164.056001 402.32,163.944 C400.047989,163.719999 398.912,162.976006 398.912,161.712 C398.912,160.847996 399.583993,160.208002 400.928,159.792 C400.303997,159.503999 399.812002,159.104003 399.452,158.592 C399.091998,158.079997 398.912,157.504003 398.912,156.864 C398.912,155.967996 399.259997,155.200003 399.956,154.56 C400.652003,153.919997 401.495995,153.6 402.488,153.6 C403.448005,153.6 404.271997,153.903997 404.96,154.512 C405.168001,154.255999 405.451998,154.040001 405.812,153.864 C406.172002,153.687999 406.487999,153.6 406.76,153.6 C407.464004,153.6 407.911999,153.895997 408.104,154.488 C408.248001,154.936002 408.176001,155.271999 407.888,155.496 C407.792,155.576 407.680001,155.616 407.552,155.616 C407.311999,155.632 407.132001,155.584001 407.012,155.472 C406.891999,155.359999 406.82,155.236001 406.796,155.1 C406.772,154.963999 406.708001,154.836001 406.604,154.716 C406.499999,154.595999 406.336001,154.536 406.112,154.536 C405.871999,154.536 405.624001,154.663999 405.368,154.92 C405.832002,155.480003 406.064,156.127996 406.064,156.864 C406.064,157.712004 405.752003,158.439997 405.128,159.048 C404.503997,159.656003 403.776004,160.015999 402.944,160.128 C401.151991,160.336001 400.256,160.671998 400.256,161.136 Z M416.96,162 L416.96,161.496 C417.952005,161.496 418.579999,161.328002 418.844,160.992 C419.108001,160.655998 419.24,159.888006 419.24,158.688 L419.24,150.888 C419.24,149.687994 419.108001,148.924002 418.844,148.596 C418.579999,148.267998 417.952005,148.104 416.96,148.104 L416.96,147.6 L427.904,147.6 L428.12,150.768 L427.616,150.768 L427.496,150.288 C427.303999,149.583996 427.048002,149.108001 426.728,148.86 C426.407998,148.611999 425.736005,148.488 424.712,148.488 L421.16,148.488 L421.16,153.936 L422.36,153.936 C423.560006,153.936 424.323998,153.804001 424.652,153.54 C424.980002,153.275999 425.144,152.640005 425.144,151.632 L425.648,151.632 L425.648,157.128 L425.144,157.128 C425.144,156.119995 424.980002,155.484001 424.652,155.22 C424.323998,154.955999 423.560006,154.824 422.36,154.824 L421.16,154.824 L421.16,158.328 C421.16,159.528006 421.291999,160.291998 421.556,160.62 C421.820001,160.948002 422.447995,161.112 423.44,161.112 L425.504,161.112 C426.224004,161.112 426.771998,161.040001 427.148,160.896 C427.524002,160.751999 427.779999,160.568001 427.916,160.344 C428.052001,160.119999 428.175999,159.768002 428.288,159.288 L428.408,158.808 L428.912,158.808 L428.72,162 L416.96,162 Z M437.192,162 L431.696,162 L431.696,161.496 C432.496004,161.496 433.011999,161.328002 433.244,160.992 C433.476001,160.655998 433.592,159.888006 433.592,158.688 L433.592,151.104 C433.592,149.903994 433.476001,149.136002 433.244,148.8 C433.011999,148.463998 432.496004,148.296 431.696,148.296 L431.696,147.792 L435.296,147.192 L435.296,158.688 C435.296,159.888006 435.411999,160.655998 435.644,160.992 C435.876001,161.328002 436.391996,161.496 437.192,161.496 L437.192,162 Z M442.088,156.504 L446.072,156.504 C446.232001,156.055998 446.164001,155.620002 445.868,155.196 C445.571999,154.771998 445.064004,154.56 444.344,154.56 C443.831997,154.56 443.372002,154.735998 442.964,155.088 C442.555998,155.440002 442.264001,155.911997 442.088,156.504 Z M441.944,157.392 C441.799999,158.576006 441.987997,159.539996 442.508,160.284 C443.028003,161.028004 443.879994,161.4 445.064,161.4 C445.464002,161.4 445.919997,161.296001 446.432,161.088 C446.944003,160.879999 447.367998,160.616002 447.704,160.296 L448.136,160.824 C447.703998,161.288002 447.152003,161.667999 446.48,161.964 C445.807997,162.260001 445.136003,162.408 444.464,162.408 C443.167994,162.408 442.104004,161.980004 441.272,161.124 C440.439996,160.267996 440.024,159.224006 440.024,157.992 C440.024,156.759994 440.475995,155.720004 441.38,154.872 C442.284005,154.023996 443.311994,153.6 444.464,153.6 C445.552005,153.6 446.439997,153.979996 447.128,154.74 C447.816003,155.500004 448.016001,156.383995 447.728,157.392 L441.944,157.392 Z M455.6,154.368 C454.959997,154.368 454.416002,154.735996 453.968,155.472 C453.519998,156.208004 453.296,157.119995 453.296,158.208 C453.296,159.200005 453.539998,159.979997 454.028,160.548 C454.516002,161.116003 455.239995,161.4 456.2,161.4 C457.128005,161.4 457.983996,161.032004 458.768,160.296 L459.176,160.824 C458.199995,161.880005 457.008007,162.408 455.6,162.408 C454.287993,162.408 453.252004,162.016004 452.492,161.232 C451.731996,160.447996 451.352,159.440006 451.352,158.208 C451.352,156.879993 451.799996,155.780004 452.696,154.908 C453.592004,154.035996 454.559995,153.6 455.6,153.6 C456.544005,153.6 457.255998,153.767998 457.736,154.104 C458.216002,154.440002 458.456,154.847998 458.456,155.328 C458.456,155.584001 458.372001,155.819999 458.204,156.036 C458.035999,156.252001 457.768002,156.36 457.4,156.36 C457.143999,156.36 456.924001,156.268001 456.74,156.084 C456.555999,155.899999 456.464,155.672001 456.464,155.4 C456.464,154.711997 456.176003,154.368 455.6,154.368 Z M462.752,154.848 L461.504,154.848 L461.504,154.272 C462.192003,154.127999 462.695998,153.816002 463.016,153.336 C463.336002,152.855998 463.544,152.200004 463.64,151.368 L464.456,151.368 L464.456,154.008 L466.544,154.008 L466.544,154.848 L464.456,154.848 L464.456,159.648 C464.456,160.800006 464.815996,161.376 465.536,161.376 C466.000002,161.376 466.519997,161.104003 467.096,160.56 L467.504,160.968 C467.167998,161.368002 466.764002,161.695999 466.292,161.952 C465.819998,162.208001 465.384002,162.336 464.984,162.336 C464.295997,162.336 463.752002,162.112002 463.352,161.664 C462.951998,161.215998 462.752,160.544004 462.752,159.648 L462.752,154.848 Z M478.04,155.088 C478.04,155.840004 477.720003,156.216 477.08,156.216 C476.855999,156.216 476.660001,156.128001 476.492,155.952 C476.323999,155.775999 476.24,155.576001 476.24,155.352 C476.24,154.823997 475.984003,154.56 475.472,154.56 C475.103998,154.56 474.704002,154.815997 474.272,155.328 C473.839998,155.840003 473.624,156.519996 473.624,157.368 L473.624,158.688 C473.624,159.888006 473.739999,160.655998 473.972,160.992 C474.204001,161.328002 474.719996,161.496 475.52,161.496 L475.52,162 L470.024,162 L470.024,161.496 C470.824004,161.496 471.339999,161.328002 471.572,160.992 C471.804001,160.655998 471.92,159.888006 471.92,158.688 L471.92,157.488 C471.92,156.303994 471.804001,155.544002 471.572,155.208 C471.339999,154.871998 470.824004,154.704 470.024,154.704 L470.024,154.2 L473.216,153.6 C473.360001,153.904002 473.495999,154.479996 473.624,155.328 C473.864001,154.847998 474.223998,154.440002 474.704,154.104 C475.184002,153.767998 475.663998,153.6 476.144,153.6 C476.752003,153.6 477.219998,153.759998 477.548,154.08 C477.876002,154.400002 478.04,154.735998 478.04,155.088 Z M489.152,154.896 C490.112005,155.744004 490.592,156.775994 490.592,157.992 C490.592,159.208006 490.116005,160.247996 489.164,161.112 C488.211995,161.976004 487.072007,162.408 485.744,162.408 C484.415993,162.408 483.276005,161.976004 482.324,161.112 C481.371995,160.247996 480.896,159.208006 480.896,157.992 C480.896,156.775994 481.371995,155.740004 482.324,154.884 C483.276005,154.027996 484.415993,153.6 485.744,153.6 C487.072007,153.6 488.207995,154.031996 489.152,154.896 Z M487.904,160.512 C488.400002,159.855997 488.648,159.016005 488.648,157.992 C488.648,156.967995 488.400002,156.132003 487.904,155.484 C487.407998,154.835997 486.688005,154.512 485.744,154.512 C484.799995,154.512 484.080002,154.839997 483.584,155.496 C483.087998,156.152003 482.84,156.983995 482.84,157.992 C482.84,159.000005 483.087998,159.831997 483.584,160.488 C484.080002,161.144003 484.799995,161.472 485.744,161.472 C486.688005,161.472 487.407998,161.152003 487.904,160.512 Z M497.456,155.328 C498.368005,154.175994 499.479993,153.6 500.792,153.6 C501.832005,153.6 502.611997,153.927997 503.132,154.584 C503.652003,155.240003 503.912,156.103995 503.912,157.176 L503.912,158.688 C503.912,159.888006 504.027999,160.655998 504.26,160.992 C504.492001,161.328002 505.007996,161.496 505.808,161.496 L505.808,162 L500.312,162 L500.312,161.496 C501.096004,161.496 501.607999,161.324002 501.848,160.98 C502.088001,160.635998 502.208,159.872006 502.208,158.688 L502.208,157.296 C502.208,155.583991 501.544007,154.728 500.216,154.728 C499.527997,154.728 498.896003,154.967998 498.32,155.448 C497.743997,155.928002 497.456,156.487997 497.456,157.128 L497.456,158.688 C497.456,159.920006 497.551999,160.695998 497.744,161.016 C497.936001,161.336002 498.399996,161.496 499.136,161.496 L499.136,162 L493.856,162 L493.856,161.496 C494.656004,161.496 495.171999,161.328002 495.404,160.992 C495.636001,160.655998 495.752,159.888006 495.752,158.688 L495.752,157.488 C495.752,156.303994 495.636001,155.544002 495.404,155.208 C495.171999,154.871998 494.656004,154.704 493.856,154.704 L493.856,154.2 L497.048,153.6 C497.192001,153.904002 497.327999,154.479996 497.456,155.328 Z" id="Missing-Electron-Copy" fill="#524740"></path>
            <polygon id="--copy" fill="#524740" points="186.501999 192.744 166.057999 192.744 166.057999 188.184 186.501999 188.184"></polygon>
        </g>
        <path d="M375.628,429 L375.628,404.808 L383.836,404.808 C386.548014,404.808 388.707992,405.443994 390.316,406.716 C391.924008,407.988006 392.728,409.571991 392.728,411.468 C392.728,412.644006 392.374004,413.711995 391.666,414.672 C390.957996,415.632005 389.968006,416.375997 388.696,416.904 C389.968006,417.432003 390.957996,418.175995 391.666,419.136 C392.374004,420.096005 392.728,421.175994 392.728,422.376 C392.728,424.272009 391.924008,425.849994 390.316,427.11 C388.707992,428.370006 386.548014,429 383.836,429 L375.628,429 Z M378.004,415.896 L383.836,415.896 C385.78001,415.896 387.339994,415.476004 388.516,414.636 C389.692006,413.795996 390.28,412.752006 390.28,411.504 C390.28,410.231994 389.692006,409.176004 388.516,408.336 C387.339994,407.495996 385.78001,407.076 383.836,407.076 L378.004,407.076 L378.004,415.896 Z M378.004,426.732 L383.836,426.732 C385.78001,426.732 387.339994,426.312004 388.516,425.472 C389.692006,424.631996 390.28,423.576006 390.28,422.304 C390.28,421.055994 389.692006,420.012004 388.516,419.172 C387.339994,418.331996 385.78001,417.912 383.836,417.912 L378.004,417.912 L378.004,426.732 Z M409.612001,426.552 C407.811992,428.376009 405.628013,429.288 403.060001,429.288 C400.491988,429.288 398.30201,428.382009 396.490001,426.57 C394.677992,424.757991 393.772001,422.568013 393.772001,420 C393.772001,417.431987 394.677992,415.242009 396.490001,413.43 C398.30201,411.617991 400.491988,410.712 403.060001,410.712 C405.628013,410.712 407.817992,411.617991 409.630001,413.43 C411.44201,415.242009 412.348001,417.431987 412.348001,420 C412.348001,422.544013 411.43601,424.727991 409.612001,426.552 Z M403.096001,427.02 C405.04001,427.02 406.677994,426.342007 408.010001,424.986 C409.342007,423.629993 410.008001,421.96801 410.008001,420 C410.008001,418.03199 409.342007,416.364007 408.010001,414.996 C406.677994,413.627993 405.04001,412.944 403.096001,412.944 C401.175991,412.944 399.544007,413.627993 398.200001,414.996 C396.855994,416.364007 396.184001,418.03199 396.184001,420 C396.184001,421.96801 396.855994,423.629993 398.200001,424.986 C399.544007,426.342007 401.175991,427.02 403.096001,427.02 Z M421.888001,410.712 C423.160008,410.712 424.323996,411.023997 425.380001,411.648 L424.552001,414.024 C423.543996,413.279996 422.524006,412.908 421.492001,412.908 C419.979994,412.908 418.708006,413.441995 417.676001,414.51 C416.643996,415.578005 416.128001,416.891992 416.128001,418.452 L416.128001,429 L413.752001,429 L413.752001,411 L416.128001,411 L416.128001,413.664 C417.592009,411.69599 419.511989,410.712 421.888001,410.712 Z M439.744002,426.552 C437.943993,428.376009 435.760015,429.288 433.192002,429.288 C430.623989,429.288 428.434011,428.382009 426.622002,426.57 C424.809993,424.757991 423.904002,422.568013 423.904002,420 C423.904002,417.431987 424.809993,415.242009 426.622002,413.43 C428.434011,411.617991 430.623989,410.712 433.192002,410.712 C435.760015,410.712 437.949993,411.617991 439.762002,413.43 C441.574011,415.242009 442.480002,417.431987 442.480002,420 C442.480002,422.544013 441.568011,424.727991 439.744002,426.552 Z M433.228002,427.02 C435.172012,427.02 436.809995,426.342007 438.142002,424.986 C439.474009,423.629993 440.140002,421.96801 440.140002,420 C440.140002,418.03199 439.474009,416.364007 438.142002,414.996 C436.809995,413.627993 435.172012,412.944 433.228002,412.944 C431.307992,412.944 429.676009,413.627993 428.332002,414.996 C426.987995,416.364007 426.316002,418.03199 426.316002,420 C426.316002,421.96801 426.987995,423.629993 428.332002,424.986 C429.676009,426.342007 431.307992,427.02 433.228002,427.02 Z M452.020003,410.712 C454.108013,410.712 455.859995,411.449993 457.276003,412.926 C458.69201,414.402007 459.400003,416.219989 459.400003,418.38 L459.400003,429 L456.988003,429 L456.988003,418.452 C456.988003,416.915992 456.466008,415.608005 455.422003,414.528 C454.377997,413.447995 453.11201,412.908 451.624003,412.908 C450.135995,412.908 448.870008,413.447995 447.826003,414.528 C446.781997,415.608005 446.260003,416.915992 446.260003,418.452 L446.260003,429 L443.884003,429 L443.884003,411 L446.260003,411 L446.260003,413.664 C447.72401,411.69599 449.643991,410.712 452.020003,410.712 Z M470.452003,417.984 L460.768003,417.984 L460.768003,415.824 L470.452003,415.824 L470.452003,417.984 Z M472.612004,429 L472.612004,404.808 L478.084004,404.808 C482.068024,404.808 485.235992,405.959988 487.588004,408.264 C489.940016,410.568012 491.116004,413.447983 491.116004,416.904 C491.116004,420.336017 489.934016,423.209988 487.570004,425.526 C485.205992,427.842012 482.044024,429 478.084004,429 L472.612004,429 Z M474.988004,426.732 L478.084004,426.732 C481.25202,426.732 483.783994,425.802009 485.680004,423.942 C487.576013,422.081991 488.524004,419.736014 488.524004,416.904 C488.524004,414.071986 487.576013,411.726009 485.680004,409.866 C483.783994,408.005991 481.25202,407.076 478.084004,407.076 L474.988004,407.076 L474.988004,426.732 Z M507.208004,426.552 C505.407995,428.376009 503.224017,429.288 500.656004,429.288 C498.087992,429.288 495.898013,428.382009 494.086004,426.57 C492.273995,424.757991 491.368004,422.568013 491.368004,420 C491.368004,417.431987 492.273995,415.242009 494.086004,413.43 C495.898013,411.617991 498.087992,410.712 500.656004,410.712 C503.224017,410.712 505.413995,411.617991 507.226004,413.43 C509.038013,415.242009 509.944004,417.431987 509.944004,420 C509.944004,422.544013 509.032014,424.727991 507.208004,426.552 Z M500.692004,427.02 C502.636014,427.02 504.273998,426.342007 505.606004,424.986 C506.938011,423.629993 507.604004,421.96801 507.604004,420 C507.604004,418.03199 506.938011,416.364007 505.606004,414.996 C504.273998,413.627993 502.636014,412.944 500.692004,412.944 C498.771995,412.944 497.140011,413.627993 495.796004,414.996 C494.451998,416.364007 493.780004,418.03199 493.780004,420 C493.780004,421.96801 494.451998,423.629993 495.796004,424.986 C497.140011,426.342007 498.771995,427.02 500.692004,427.02 Z M521.248005,410.676 C523.816018,410.676 526.005996,411.581991 527.818005,413.394 C529.630014,415.206009 530.536005,417.395987 530.536005,419.964 C530.536005,422.532013 529.630014,424.721991 527.818005,426.534 C526.005996,428.346009 523.816018,429.252 521.248005,429.252 C518.367991,429.252 516.016014,428.160011 514.192005,425.976 L514.192005,437.748 L511.816005,437.748 L511.816005,410.964 L514.192005,410.964 L514.192005,413.916 C516.040014,411.755989 518.391991,410.676 521.248005,410.676 Z M516.280005,424.968 C517.624012,426.312007 519.255995,426.984 521.176005,426.984 C523.096015,426.984 524.733998,426.306007 526.090005,424.95 C527.446012,423.593993 528.124005,421.93201 528.124005,419.964 C528.124005,417.99599 527.446012,416.328007 526.090005,414.96 C524.733998,413.591993 523.096015,412.908 521.176005,412.908 C519.255995,412.908 517.624012,413.591993 516.280005,414.96 C514.935998,416.328007 514.264005,417.99599 514.264005,419.964 C514.264005,421.93201 514.935998,423.599993 516.280005,424.968 Z M540.292006,426.912 C541.900014,426.912 543.339999,426.456005 544.612006,425.544 C545.884012,424.631995 546.748003,423.564006 547.204006,422.34 L549.220006,423.06 C548.668003,424.572008 547.594014,425.963994 545.998006,427.236 C544.401998,428.508006 542.500017,429.132 540.292006,429.108 C538.275996,429.108 536.434014,428.484006 534.766006,427.236 C533.097997,425.987994 531.964009,424.39201 531.364006,422.448 C531.124004,421.655996 531.004006,420.792005 531.004006,419.856 C531.004006,417.263987 531.903997,415.068009 533.704006,413.268 C535.504015,411.467991 537.699993,410.556 540.292006,410.532 C542.644017,410.556 544.695997,411.347992 546.448006,412.908 C548.200014,414.468008 549.208004,416.399988 549.472006,418.704 C549.496006,418.824001 549.508006,418.979999 549.508006,419.172 L533.776006,422.016 C534.184008,423.456007 535,424.637995 536.224006,425.562 C537.448012,426.486005 538.803998,426.936 540.292006,426.912 Z M540.076006,412.728 C538.275997,412.752 536.734012,413.399994 535.450006,414.672 C534.165999,415.944006 533.476006,417.467991 533.380006,419.244 C533.380006,419.316 533.386006,419.441999 533.398006,419.622 C533.410006,419.802001 533.416006,419.951999 533.416006,420.072 L546.808006,417.66 C546.352003,416.195993 545.500012,415.002005 544.252006,414.078 C543.003999,413.153995 541.612013,412.704 540.076006,412.728 Z M566.644006,402.216 L569.020006,402.216 L569.020006,429 L566.644006,429 L566.644006,426.084 C564.795997,428.220011 562.45602,429.288 559.624006,429.288 C557.055993,429.288 554.866015,428.382009 553.054006,426.57 C551.241997,424.757991 550.336006,422.568013 550.336006,420 C550.336006,417.431987 551.241997,415.242009 553.054006,413.43 C554.866015,411.617991 557.055993,410.712 559.624006,410.712 C562.480021,410.712 564.819997,411.779989 566.644006,413.916 L566.644006,402.216 Z M554.728006,425.004 C556.072013,426.348007 557.715997,427.02 559.660006,427.02 C561.604016,427.02 563.242,426.342007 564.574006,424.986 C565.906013,423.629993 566.572006,421.96801 566.572006,420 C566.572006,418.03199 565.906013,416.370007 564.574006,415.014 C563.242,413.657993 561.604016,412.98 559.660006,412.98 C557.715997,412.98 556.072013,413.657993 554.728006,415.014 C553.384,416.370007 552.712006,418.03199 552.712006,420 C552.712006,421.96801 553.384,423.635993 554.728006,425.004 Z M570.820007,430.728 L572.440007,425.004 L574.888007,425.004 L572.764007,430.728 L570.820007,430.728 Z M584.284008,429 L584.284008,404.808 L592.492008,404.808 C595.204022,404.808 597.364,405.521993 598.972008,406.95 C600.580016,408.378007 601.384008,410.171989 601.384008,412.332 C601.384008,414.468011 600.580016,416.255993 598.972008,417.696 C597.364,419.136007 595.204022,419.856 592.492008,419.856 L586.660008,419.856 L586.660008,429 L584.284008,429 Z M586.660008,417.588 L592.492008,417.588 C594.436018,417.588 595.996002,417.090005 597.172008,416.094 C598.348014,415.097995 598.936008,413.844008 598.936008,412.332 C598.936008,410.843993 598.348014,409.596005 597.172008,408.588 C595.996002,407.579995 594.436018,407.076 592.492008,407.076 L586.660008,407.076 L586.660008,417.588 Z M612.508009,417.984 L602.824009,417.984 L602.824009,415.824 L612.508009,415.824 L612.508009,417.984 Z M626.944009,404.808 L626.944009,407.184 L618.340009,407.184 L618.340009,429 L615.964009,429 L615.964009,407.184 L607.360009,407.184 L607.360009,404.808 L626.944009,404.808 Z M635.58401,411 L637.96001,411 L628.13201,436.668 L625.75601,436.668 L629.53601,426.804 L622.87601,411 L625.25201,411 L630.65201,423.852 L635.58401,411 Z M649.012011,410.676 C651.580024,410.676 653.770002,411.581991 655.582011,413.394 C657.39402,415.206009 658.300011,417.395987 658.300011,419.964 C658.300011,422.532013 657.39402,424.721991 655.582011,426.534 C653.770002,428.346009 651.580024,429.252 649.012011,429.252 C646.131996,429.252 643.78002,428.160011 641.956011,425.976 L641.956011,437.748 L639.580011,437.748 L639.580011,410.964 L641.956011,410.964 L641.956011,413.916 C643.80402,411.755989 646.155996,410.676 649.012011,410.676 Z M644.044011,424.968 C645.388017,426.312007 647.020001,426.984 648.940011,426.984 C650.86002,426.984 652.498004,426.306007 653.854011,424.95 C655.210017,423.593993 655.888011,421.93201 655.888011,419.964 C655.888011,417.99599 655.210017,416.328007 653.854011,414.96 C652.498004,413.591993 650.86002,412.908 648.940011,412.908 C647.020001,412.908 645.388017,413.591993 644.044011,414.96 C642.700004,416.328007 642.028011,417.99599 642.028011,419.964 C642.028011,421.93201 642.700004,423.599993 644.044011,424.968 Z M668.056011,426.912 C669.664019,426.912 671.104005,426.456005 672.376011,425.544 C673.648018,424.631995 674.512009,423.564006 674.968011,422.34 L676.984011,423.06 C676.432009,424.572008 675.358019,425.963994 673.762011,427.236 C672.166003,428.508006 670.264022,429.132 668.056011,429.108 C666.040001,429.108 664.19802,428.484006 662.530011,427.236 C660.862003,425.987994 659.728014,424.39201 659.128011,422.448 C658.88801,421.655996 658.768011,420.792005 658.768011,419.856 C658.768011,417.263987 659.668002,415.068009 661.468011,413.268 C663.26802,411.467991 665.463998,410.556 668.056011,410.532 C670.408023,410.556 672.460003,411.347992 674.212011,412.908 C675.96402,414.468008 676.97201,416.399988 677.236011,418.704 C677.260011,418.824001 677.272011,418.979999 677.272011,419.172 L661.540011,422.016 C661.948013,423.456007 662.764005,424.637995 663.988011,425.562 C665.212017,426.486005 666.568004,426.936 668.056011,426.912 Z M667.840011,412.728 C666.040002,412.752 664.498018,413.399994 663.214011,414.672 C661.930005,415.944006 661.240012,417.467991 661.144011,419.244 C661.144011,419.316 661.150011,419.441999 661.162011,419.622 C661.174011,419.802001 661.180011,419.951999 661.180011,420.072 L674.572011,417.66 C674.116009,416.195993 673.264018,415.002005 672.016011,414.078 C670.768005,413.153995 669.376019,412.704 667.840011,412.728 Z M694.300013,429.288 C692.692005,429.288 691.13802,428.880004 689.638013,428.064 C688.138005,427.247996 687.004016,426.432004 686.236013,425.616 L687.892013,423.996 C688.492016,424.644003 689.380007,425.309997 690.556013,425.994 C691.732018,426.678003 692.980006,427.02 694.300013,427.02 C695.908021,427.02 697.174008,426.666004 698.098013,425.958 C699.022017,425.249996 699.484013,424.284006 699.484013,423.06 C699.484013,422.027995 699.034017,421.128004 698.134013,420.36 C697.234008,419.591996 696.142019,418.944003 694.858013,418.416 C693.574006,417.887997 692.284019,417.330003 690.988013,416.742 C689.692006,416.153997 688.594017,415.356005 687.694013,414.348 C686.794008,413.339995 686.344013,412.152007 686.344013,410.784 C686.344013,409.031991 687.004006,407.556006 688.324013,406.356 C689.644019,405.155994 691.492001,404.556 693.868013,404.556 C695.476021,404.556 697.030005,404.963996 698.530013,405.78 C700.03002,406.596004 701.164009,407.411996 701.932013,408.228 L700.276013,409.848 C699.652009,409.175997 698.752018,408.504003 697.576013,407.832 C696.400007,407.159997 695.164019,406.824 693.868013,406.824 C692.260005,406.824 690.994017,407.177996 690.070013,407.886 C689.146008,408.594004 688.684013,409.559994 688.684013,410.784 C688.684013,411.816005 689.134008,412.721996 690.034013,413.502 C690.934017,414.282004 692.026006,414.935997 693.310013,415.464 C694.594019,415.992003 695.884006,416.543997 697.180013,417.12 C698.476019,417.696003 699.574008,418.487995 700.474013,419.496 C701.374017,420.504005 701.824013,421.691993 701.824013,423.06 C701.824013,424.812009 701.164019,426.287994 699.844013,427.488 C698.524006,428.688006 696.676024,429.288 694.300013,429.288 Z M706.648013,405.6 C706.384012,405.888001 706.048015,406.032 705.640013,406.032 C705.232011,406.032 704.890015,405.888001 704.614013,405.6 C704.338012,405.311999 704.200013,404.976002 704.200013,404.592 C704.200013,404.207998 704.338012,403.872001 704.614013,403.584 C704.890015,403.295999 705.232011,403.152 705.640013,403.152 C706.048015,403.152 706.390012,403.295999 706.666013,403.584 C706.942015,403.872001 707.080013,404.207998 707.080013,404.592 C707.080013,404.976002 706.936015,405.311999 706.648013,405.6 Z M704.452013,429 L704.452013,411 L706.828013,411 L706.828013,429 L704.452013,429 Z M710.176014,429 L710.176014,402.216 L712.552014,402.216 L712.552014,429 L710.176014,429 Z M718.096014,405.6 C717.832013,405.888001 717.496017,406.032 717.088014,406.032 C716.680012,406.032 716.338016,405.888001 716.062014,405.6 C715.786013,405.311999 715.648014,404.976002 715.648014,404.592 C715.648014,404.207998 715.786013,403.872001 716.062014,403.584 C716.338016,403.295999 716.680012,403.152 717.088014,403.152 C717.496017,403.152 717.838013,403.295999 718.114014,403.584 C718.390016,403.872001 718.528014,404.207998 718.528014,404.592 C718.528014,404.976002 718.384016,405.311999 718.096014,405.6 Z M715.900014,429 L715.900014,411 L718.276014,411 L718.276014,429 L715.900014,429 Z M729.616015,429.288 C727.048002,429.288 724.858024,428.382009 723.046015,426.57 C721.234006,424.757991 720.328015,422.568013 720.328015,420 C720.328015,417.431987 721.234006,415.242009 723.046015,413.43 C724.858024,411.617991 727.048002,410.712 729.616015,410.712 C731.248023,410.712 732.766008,411.113996 734.170015,411.918 C735.574022,412.722004 736.684011,413.795993 737.500015,415.14 L735.340015,416.184 C734.692012,415.199995 733.86402,414.420003 732.856015,413.844 C731.84801,413.267997 730.768021,412.98 729.616015,412.98 C727.672005,412.98 726.034022,413.657993 724.702015,415.014 C723.370008,416.370007 722.704015,418.03199 722.704015,420 C722.704015,421.96801 723.370008,423.629993 724.702015,424.986 C726.034022,426.342007 727.672005,427.02 729.616015,427.02 C730.768021,427.02 731.84801,426.732003 732.856015,426.156 C733.86402,425.579997 734.692012,424.800005 735.340015,423.816 L737.500015,424.86 C736.684011,426.204007 735.574022,427.277996 734.170015,428.082 C732.766008,428.886004 731.248023,429.288 729.616015,429.288 Z M753.736016,426.552 C751.936007,428.376009 749.752029,429.288 747.184016,429.288 C744.616003,429.288 742.426025,428.382009 740.614016,426.57 C738.802007,424.757991 737.896016,422.568013 737.896016,420 C737.896016,417.431987 738.802007,415.242009 740.614016,413.43 C742.426025,411.617991 744.616003,410.712 747.184016,410.712 C749.752029,410.712 751.942007,411.617991 753.754016,413.43 C755.566025,415.242009 756.472016,417.431987 756.472016,420 C756.472016,422.544013 755.560025,424.727991 753.736016,426.552 Z M747.220016,427.02 C749.164025,427.02 750.802009,426.342007 752.134016,424.986 C753.466022,423.629993 754.132016,421.96801 754.132016,420 C754.132016,418.03199 753.466022,416.364007 752.134016,414.996 C750.802009,413.627993 749.164025,412.944 747.220016,412.944 C745.300006,412.944 743.668022,413.627993 742.324016,414.996 C740.980009,416.364007 740.308016,418.03199 740.308016,420 C740.308016,421.96801 740.980009,423.629993 742.324016,424.986 C743.668022,426.342007 745.300006,427.02 747.220016,427.02 Z M766.012016,410.712 C768.100027,410.712 769.852009,411.449993 771.268016,412.926 C772.684023,414.402007 773.392016,416.219989 773.392016,418.38 L773.392016,429 L770.980016,429 L770.980016,418.452 C770.980016,416.915992 770.458022,415.608005 769.414016,414.528 C768.370011,413.447995 767.104024,412.908 765.616016,412.908 C764.128009,412.908 762.862022,413.447995 761.818016,414.528 C760.774011,415.608005 760.252016,416.915992 760.252016,418.452 L760.252016,429 L757.876016,429 L757.876016,411 L760.252016,411 L760.252016,413.664 C761.716024,411.69599 763.636004,410.712 766.012016,410.712 Z M794.524018,429.288 C790.972,429.288 788.140028,428.106012 786.028018,425.742 C783.916007,423.377988 782.860018,420.444018 782.860018,416.94 C782.860018,413.411982 783.916007,410.466012 786.028018,408.102 C788.140028,405.737988 790.972,404.556 794.524018,404.556 C796.876029,404.556 798.922009,405.095995 800.662018,406.176 C802.402026,407.256005 803.752013,408.731991 804.712018,410.604 L802.480018,411.9 C801.712014,410.339992 800.638025,409.104005 799.258018,408.192 C797.878011,407.279995 796.300027,406.824 794.524018,406.824 C791.788004,406.824 789.598026,407.77799 787.954018,409.686 C786.310009,411.59401 785.488018,414.011985 785.488018,416.94 C785.488018,419.844015 786.310009,422.25599 787.954018,424.176 C789.598026,426.09601 791.788004,427.056 794.524018,427.056 C796.324027,427.056 797.914011,426.594005 799.294018,425.67 C800.674025,424.745995 801.736014,423.504008 802.480018,421.944 L804.712018,423.276 C803.752013,425.148009 802.402026,426.617995 800.662018,427.686 C798.922009,428.754005 796.876029,429.288 794.524018,429.288 Z M814.792018,410.712 C816.064025,410.712 817.228013,411.023997 818.284018,411.648 L817.456018,414.024 C816.448013,413.279996 815.428023,412.908 814.396018,412.908 C812.884011,412.908 811.612023,413.441995 810.580018,414.51 C809.548013,415.578005 809.032018,416.891992 809.032018,418.452 L809.032018,429 L806.656018,429 L806.656018,411 L809.032018,411 L809.032018,413.664 C810.496026,411.69599 812.416006,410.712 814.792018,410.712 Z M831.316019,411 L833.692019,411 L823.864019,436.668 L821.488019,436.668 L825.268019,426.804 L818.608019,411 L820.984019,411 L826.384019,423.852 L831.316019,411 Z M840.38802,429.288 C839.572015,429.288 838.780023,429.186001 838.01202,428.982 C837.244016,428.777999 836.602022,428.538001 836.08602,428.262 C835.570017,427.985999 835.108022,427.704001 834.70002,427.416 C834.292017,427.127999 833.99202,426.888001 833.80002,426.696 L833.51202,426.372 L835.20402,424.932 C835.37202,425.100001 835.606018,425.303999 835.90602,425.544 C836.206021,425.784001 836.812015,426.107998 837.72402,426.516 C838.636024,426.924002 839.536015,427.128 840.42402,427.128 C841.744026,427.128 842.800016,426.876003 843.59202,426.372 C844.384023,425.867997 844.78002,425.160005 844.78002,424.248 C844.78002,423.599997 844.384023,423.042002 843.59202,422.574 C842.800016,422.105998 841.840025,421.704002 840.71202,421.368 C839.584014,421.031998 838.450025,420.660002 837.31002,420.252 C836.170014,419.843998 835.204023,419.268004 834.41202,418.524 C833.620016,417.779996 833.22402,416.868005 833.22402,415.788 C833.22402,414.299993 833.782014,413.082005 834.89802,412.134 C836.014025,411.185995 837.664009,410.712 839.84802,410.712 C841.144026,410.712 842.368014,410.951998 843.52002,411.432 C844.672025,411.912002 845.500017,412.391998 846.00402,412.872 L846.76002,413.592 L845.06802,415.068 C844.900019,414.899999 844.666021,414.696001 844.36602,414.456 C844.066018,414.215999 843.460024,413.892002 842.54802,413.484 C841.636015,413.075998 840.724024,412.872 839.81202,412.872 C838.516013,412.872 837.466024,413.123997 836.66202,413.628 C835.858015,414.132003 835.45602,414.839995 835.45602,415.752 C835.45602,416.400003 835.852016,416.957998 836.64402,417.426 C837.436023,417.894002 838.396014,418.295998 839.52402,418.632 C840.652025,418.968002 841.786014,419.333998 842.92602,419.73 C844.066025,420.126002 845.032016,420.701996 845.82402,421.458 C846.616023,422.214004 847.01202,423.131995 847.01202,424.212 C847.01202,425.724008 846.460025,426.947995 845.35602,427.884 C844.252014,428.820005 842.596031,429.288 840.38802,429.288 Z M858.35202,424.968 L859.54002,426.804 C859.396019,426.996001 859.204021,427.223999 858.96402,427.488 C858.724019,427.752001 858.184024,428.117998 857.34402,428.586 C856.504016,429.054002 855.640025,429.288 854.75202,429.288 C853.240013,429.288 851.974025,428.838005 850.95402,427.938 C849.934015,427.037996 849.42402,425.736009 849.42402,424.032 L849.42402,413.16 L846.54402,413.16 L846.54402,410.964 L849.42402,410.964 L849.42402,405.276 L851.80002,404.988 L851.80002,410.964 L857.23602,410.964 L857.23602,413.16 L851.80002,413.16 L851.80002,423.492 C851.80002,424.596006 852.142017,425.471997 852.82602,426.12 C853.510024,426.768003 854.296016,427.092 855.18402,427.092 C855.736023,427.092 856.276018,426.924002 856.80402,426.588 C857.332023,426.251998 857.722019,425.922002 857.97402,425.598 C858.226021,425.273998 858.35202,425.064 858.35202,424.968 Z M874.876021,411 L877.252021,411 L877.252021,429 L874.876021,429 L874.876021,426.084 C873.028012,428.220011 870.688035,429.288 867.856021,429.288 C865.288008,429.288 863.09803,428.382009 861.286021,426.57 C859.474012,424.757991 858.568021,422.568013 858.568021,420 C858.568021,417.431987 859.474012,415.242009 861.286021,413.43 C863.09803,411.617991 865.288008,410.712 867.856021,410.712 C870.712035,410.712 873.052012,411.779989 874.876021,413.916 L874.876021,411 Z M867.892021,427.02 C869.83603,427.02 871.474014,426.342007 872.806021,424.986 C874.138027,423.629993 874.804021,421.96801 874.804021,420 C874.804021,418.03199 874.138027,416.370007 872.806021,415.014 C871.474014,413.657993 869.83603,412.98 867.892021,412.98 C865.972011,412.98 864.334028,413.657993 862.978021,415.014 C861.622014,416.370007 860.944021,418.03199 860.944021,420 C860.944021,421.96801 861.622014,423.629993 862.978021,424.986 C864.334028,426.342007 865.972011,427.02 867.892021,427.02 Z M880.168021,429 L880.168021,402.216 L882.544021,402.216 L882.544021,429 L880.168021,429 Z" id="Boron-Doped,-P-Type-Copy" fill="#23ABE3"></path>
    </g>
</svg>