<?xml version="1.0" encoding="UTF-8"?>
<svg width="900px" height="270px" viewBox="0 0 900 270" version="1.1" xmlns="http://www.w3.org/2000/svg" xmlns:xlink="http://www.w3.org/1999/xlink">
    <!-- Generator: Sketch 52.5 (67469) - http://www.bohemiancoding.com/sketch -->
    <title>P-Type_Silicon_Crystal_Lattice</title>
    <desc>Created with Sketch.</desc>
    <g id="P-Type_Silicon_Crystal_Lattice" stroke="none" stroke-width="1" fill="none" fill-rule="evenodd">
        <rect id="Rectangle" fill="#EEEEEE" x="0" y="0" width="900" height="430"></rect>
        <g id="Illustration" transform="translate(60.000000, 77.000000)">
            <g id="Lattice">
                <g>
                    <rect id="Rectangle" stroke="#999999" stroke-width="2" fill="#DEDEDE" x="1" y="1" width="158" height="158"></rect>
                    <circle id="Oval-Copy-3" fill="#252525" cx="20.5" cy="18.5" r="10.5"></circle>
                    <circle id="Oval-Copy-5" fill="#252525" cx="20.5" cy="58.5" r="10.5"></circle>
                    <circle id="Oval-Copy-6" fill="#252525" cx="20.5" cy="98.5" r="10.5"></circle>
                    <circle id="Oval-Copy-10" fill="#252525" cx="50.5" cy="38.5" r="10.5"></circle>
                    <circle id="Oval-Copy-9" fill="#84D0EF" cx="50.5" cy="78.5" r="10.5"></circle>
                    <circle id="Oval-Copy-31" fill="#84D0EF" cx="29.25" cy="76.25" r="3.25"></circle>
                    <circle id="Oval-Copy-32" fill="#84D0EF" cx="42.25" cy="55.25" r="3.25"></circle>
                    <circle id="Oval-Copy-33" fill="#84D0EF" cx="32.25" cy="27.25" r="3.25"></circle>
                    <circle id="Oval-Copy-34" fill="#84D0EF" cx="73.25" cy="35.25" r="3.25"></circle>
                    <circle id="Oval-Copy-35" fill="#84D0EF" cx="83.25" cy="75.25" r="3.25"></circle>
                    <circle id="Oval-Copy-36" fill="#84D0EF" cx="64.25" cy="96.25" r="3.25"></circle>
                    <circle id="Oval-Copy-37" fill="#84D0EF" cx="39.25" cy="107.25" r="3.25"></circle>
                    <circle id="Oval-Copy-38" fill="#84D0EF" cx="35.25" cy="149.25" r="3.25"></circle>
                    <circle id="Oval-Copy-39" fill="#84D0EF" cx="7.25" cy="116.25" r="3.25"></circle>
                    <circle id="Oval-Copy-40" fill="#84D0EF" cx="59.25" cy="134.25" r="3.25"></circle>
                    <circle id="Oval-Copy-41" fill="#84D0EF" cx="119.25" cy="134.25" r="3.25"></circle>
                    <circle id="Oval-Copy-42" fill="#84D0EF" cx="94.25" cy="115.25" r="3.25"></circle>
                    <circle id="Oval-Copy-43" fill="#84D0EF" cx="94.25" cy="145.25" r="3.25"></circle>
                    <circle id="Oval-Copy-44" fill="#84D0EF" cx="134.25" cy="154.25" r="3.25"></circle>
                    <circle id="Oval-Copy-45" fill="#84D0EF" cx="154.25" cy="104.25" r="3.25"></circle>
                    <circle id="Oval-Copy-46" fill="#84D0EF" cx="123.25" cy="90.25" r="3.25"></circle>
                    <circle id="Oval-Copy-47" fill="#84D0EF" cx="133.25" cy="45.25" r="3.25"></circle>
                    <circle id="Oval-Copy-48" fill="#84D0EF" cx="123.25" cy="11.25" r="3.25"></circle>
                    <circle id="Oval-Copy-49" fill="#84D0EF" cx="100.25" cy="26.25" r="3.25"></circle>
                    <circle id="Oval-Copy-8" fill="#252525" cx="50.5" cy="118.5" r="10.5"></circle>
                    <circle id="Oval-Copy-26" fill="#84D0EF" cx="110.5" cy="38.5" r="10.5"></circle>
                    <circle id="Oval-Copy-25" fill="#252525" cx="110.5" cy="78.5" r="10.5"></circle>
                    <circle id="Oval-Copy-24" fill="#252525" cx="110.5" cy="118.5" r="10.5"></circle>
                    <circle id="Oval-Copy-7" fill="#84D0EF" cx="20.5" cy="138.5" r="10.5"></circle>
                    <circle id="Oval-Copy-23" fill="#252525" cx="80.5" cy="18.5" r="10.5"></circle>
                    <circle id="Oval-Copy-22" fill="#252525" cx="80.5" cy="58.5" r="10.5"></circle>
                    <circle id="Oval-Copy-21" fill="#84D0EF" cx="80.5" cy="98.5" r="10.5"></circle>
                    <circle id="Oval-Copy-20" fill="#252525" cx="80.5" cy="138.5" r="10.5"></circle>
                    <circle id="Oval-Copy-30" fill="#252525" cx="140.5" cy="18.5" r="10.5"></circle>
                    <circle id="Oval-Copy-29" fill="#252525" cx="140.5" cy="58.5" r="10.5"></circle>
                    <circle id="Oval-Copy-28" fill="#252525" cx="140.5" cy="98.5" r="10.5"></circle>
                    <circle id="Oval-Copy-27" fill="#252525" cx="140.5" cy="138.5" r="10.5"></circle>
                </g>
            </g>
            <g id="Index" transform="translate(201.000000, 11.000000)">
                <g id="Free-Hole" transform="translate(7.000000, 70.000000)">
                    <circle id="Oval-Copy-11" fill="#84D0EF" cx="3.25" cy="16.25" r="3.25"></circle>
                    <path d="M34.668,4.732 L34.668,12.904 L36.468,12.904 C38.268009,12.904 39.4139975,12.706002 39.906,12.31 C40.3980025,11.913998 40.644,10.9600076 40.644,9.448 L41.4,9.448 L41.4,17.692 L40.644,17.692 C40.644,16.1799924 40.3980025,15.226002 39.906,14.83 C39.4139975,14.433998 38.268009,14.236 36.468,14.236 L34.668,14.236 L34.668,20.032 C34.668,21.832009 34.865998,22.9839975 35.262,23.488 C35.658002,23.9920025 36.5999926,24.244 38.088,24.244 L38.088,25 L28.368,25 L28.368,24.244 C29.8560074,24.244 30.797998,23.9920025 31.194,23.488 C31.590002,22.9839975 31.788,21.832009 31.788,20.032 L31.788,8.332 C31.788,6.531991 31.590002,5.38600246 31.194,4.894 C30.797998,4.40199754 29.8560074,4.156 28.368,4.156 L28.368,3.4 L45.396,3.4 L45.684,8.152 L44.928,8.152 L44.748,7.432 C44.4839987,6.39999484 44.1120024,5.69200192 43.632,5.308 C43.1519976,4.92399808 42.1440077,4.732 40.608,4.732 L34.668,4.732 Z M55.764001,14.632 C55.764001,15.7600056 55.2840058,16.324 54.324001,16.324 C53.9879993,16.324 53.6940023,16.1920013 53.442001,15.928 C53.1899997,15.6639987 53.064001,15.3640017 53.064001,15.028 C53.064001,14.235996 52.6800048,13.84 51.912001,13.84 C51.3599982,13.84 50.7600042,14.2239962 50.112001,14.992 C49.4639978,15.7600038 49.140001,16.7799936 49.140001,18.052 L49.140001,20.032 C49.140001,21.832009 49.3139993,22.9839975 49.662001,23.488 C50.0100027,23.9920025 50.783995,24.244 51.984001,24.244 L51.984001,25 L43.740001,25 L43.740001,24.244 C44.940007,24.244 45.7139993,23.9920025 46.062001,23.488 C46.4100027,22.9839975 46.584001,21.832009 46.584001,20.032 L46.584001,18.232 C46.584001,16.4559911 46.4100027,15.3160025 46.062001,14.812 C45.7139993,14.3079975 44.940007,14.056 43.740001,14.056 L43.740001,13.3 L48.528001,12.4 C48.7440021,12.8560023 48.948,13.7199936 49.140001,14.992 C49.5000028,14.2719964 50.0399974,13.6600025 50.760001,13.156 C51.4800046,12.6519975 52.1999974,12.4 52.920001,12.4 C53.8320056,12.4 54.5339985,12.6399976 55.026001,13.12 C55.5180035,13.6000024 55.764001,14.1039974 55.764001,14.632 Z M58.572002,16.756 L64.548002,16.756 C64.7880032,16.0839966 64.6860042,15.4300032 64.242002,14.794 C63.7979998,14.1579968 63.0360074,13.84 61.956002,13.84 C61.1879982,13.84 60.4980051,14.1039974 59.886002,14.632 C59.2739989,15.1600026 58.8360033,15.8679956 58.572002,16.756 Z M58.356002,18.088 C58.1400009,19.8640089 58.4219981,21.3099944 59.202002,22.426 C59.9820059,23.5420056 61.2599931,24.1 63.036002,24.1 C63.636005,24.1 64.3199982,23.9440016 65.088002,23.632 C65.8560058,23.3199984 66.4919995,22.9240024 66.996002,22.444 L67.644002,23.236 C66.9959988,23.9320035 66.168007,24.5019978 65.160002,24.946 C64.151997,25.3900022 63.144007,25.612 62.136002,25.612 C60.1919923,25.612 58.5960082,24.9700064 57.348002,23.686 C56.0999958,22.4019936 55.476002,20.8360092 55.476002,18.988 C55.476002,17.1399908 56.1539952,15.5800064 57.510002,14.308 C58.8660088,13.0359936 60.4079934,12.4 62.136002,12.4 C63.7680102,12.4 65.0999968,12.9699943 66.132002,14.11 C67.1640072,15.2500057 67.4640042,16.5759924 67.032002,18.088 L58.356002,18.088 Z M71.604003,16.756 L77.580003,16.756 C77.8200042,16.0839966 77.7180052,15.4300032 77.274003,14.794 C76.8300008,14.1579968 76.0680084,13.84 74.988003,13.84 C74.2199992,13.84 73.5300061,14.1039974 72.918003,14.632 C72.3059999,15.1600026 71.8680043,15.8679956 71.604003,16.756 Z M71.388003,18.088 C71.1720019,19.8640089 71.4539991,21.3099944 72.234003,22.426 C73.0140069,23.5420056 74.2919941,24.1 76.068003,24.1 C76.668006,24.1 77.3519992,23.9440016 78.120003,23.632 C78.8880068,23.3199984 79.5240005,22.9240024 80.028003,22.444 L80.676003,23.236 C80.0279998,23.9320035 79.200008,24.5019978 78.192003,24.946 C77.183998,25.3900022 76.176008,25.612 75.168003,25.612 C73.2239933,25.612 71.6280092,24.9700064 70.380003,23.686 C69.1319968,22.4019936 68.508003,20.8360092 68.508003,18.988 C68.508003,17.1399908 69.1859962,15.5800064 70.542003,14.308 C71.8980098,13.0359936 73.4399944,12.4 75.168003,12.4 C76.8000112,12.4 78.1319978,12.9699943 79.164003,14.11 C80.1960082,15.2500057 80.4960052,16.5759924 80.064003,18.088 L71.388003,18.088 Z M93.708005,14.2 L93.708005,20.032 C93.708005,21.832009 93.906003,22.9839975 94.302005,23.488 C94.698007,23.9920025 95.6399976,24.244 97.128005,24.244 L97.128005,25 L87.408005,25 L87.408005,24.244 C88.8960124,24.244 89.838003,23.9920025 90.234005,23.488 C90.630007,22.9839975 90.828005,21.832009 90.828005,20.032 L90.828005,8.332 C90.828005,6.531991 90.630007,5.38600246 90.234005,4.894 C89.838003,4.40199754 88.8960124,4.156 87.408005,4.156 L87.408005,3.4 L97.128005,3.4 L97.128005,4.156 C95.6399976,4.156 94.698007,4.40199754 94.302005,4.894 C93.906003,5.38600246 93.708005,6.531991 93.708005,8.332 L93.708005,12.868 L105.948005,12.868 L105.948005,8.332 C105.948005,6.531991 105.744007,5.38600246 105.336005,4.894 C104.928003,4.40199754 103.980012,4.156 102.492005,4.156 L102.492005,3.4 L112.248005,3.4 L112.248005,4.156 C110.735997,4.156 109.782007,4.40199754 109.386005,4.894 C108.990003,5.38600246 108.792005,6.531991 108.792005,8.332 L108.792005,20.032 C108.792005,21.8560091 108.990003,23.0139975 109.386005,23.506 C109.782007,23.9980025 110.735997,24.244 112.248005,24.244 L112.248005,25 L102.492005,25 L102.492005,24.244 C103.980012,24.244 104.928003,23.9920025 105.336005,23.488 C105.744007,22.9839975 105.948005,21.832009 105.948005,20.032 L105.948005,14.2 L93.708005,14.2 Z M125.532006,14.344 C126.972013,15.6160064 127.692006,17.1639909 127.692006,18.988 C127.692006,20.8120091 126.978013,22.3719935 125.550006,23.668 C124.121999,24.9640065 122.412016,25.612 120.420006,25.612 C118.427996,25.612 116.718013,24.9640065 115.290006,23.668 C113.861999,22.3719935 113.148006,20.8120091 113.148006,18.988 C113.148006,17.1639909 113.861999,15.6100064 115.290006,14.326 C116.718013,13.0419936 118.427996,12.4 120.420006,12.4 C122.412016,12.4 124.115999,13.0479935 125.532006,14.344 Z M123.660006,22.768 C124.40401,21.7839951 124.776006,20.5240077 124.776006,18.988 C124.776006,17.4519923 124.40401,16.1980049 123.660006,15.226 C122.916002,14.2539951 121.836013,13.768 120.420006,13.768 C119.003999,13.768 117.92401,14.2599951 117.180006,15.244 C116.436002,16.2280049 116.064006,17.4759924 116.064006,18.988 C116.064006,20.5000076 116.436002,21.7479951 117.180006,22.732 C117.92401,23.7160049 119.003999,24.208 120.420006,24.208 C121.836013,24.208 122.916002,23.7280048 123.660006,22.768 Z M136.188007,25 L127.944007,25 L127.944007,24.244 C129.144013,24.244 129.918005,23.9920025 130.266007,23.488 C130.614009,22.9839975 130.788007,21.832009 130.788007,20.032 L130.788007,8.656 C130.788007,6.855991 130.614009,5.70400252 130.266007,5.2 C129.918005,4.69599748 129.144013,4.444 127.944007,4.444 L127.944007,3.688 L133.344007,2.788 L133.344007,20.032 C133.344007,21.832009 133.518005,22.9839975 133.866007,23.488 C134.214009,23.9920025 134.988001,24.244 136.188007,24.244 L136.188007,25 Z M139.572008,16.756 L145.548008,16.756 C145.788009,16.0839966 145.68601,15.4300032 145.242008,14.794 C144.798006,14.1579968 144.036013,13.84 142.956008,13.84 C142.188004,13.84 141.498011,14.1039974 140.886008,14.632 C140.274005,15.1600026 139.836009,15.8679956 139.572008,16.756 Z M139.356008,18.088 C139.140007,19.8640089 139.422004,21.3099944 140.202008,22.426 C140.982012,23.5420056 142.259999,24.1 144.036008,24.1 C144.636011,24.1 145.320004,23.9440016 146.088008,23.632 C146.856012,23.3199984 147.492005,22.9240024 147.996008,22.444 L148.644008,23.236 C147.996005,23.9320035 147.168013,24.5019978 146.160008,24.946 C145.152003,25.3900022 144.144013,25.612 143.136008,25.612 C141.191998,25.612 139.596014,24.9700064 138.348008,23.686 C137.100002,22.4019936 136.476008,20.8360092 136.476008,18.988 C136.476008,17.1399908 137.154001,15.5800064 138.510008,14.308 C139.866015,13.0359936 141.407999,12.4 143.136008,12.4 C144.768016,12.4 146.100003,12.9699943 147.132008,14.11 C148.164013,15.2500057 148.46401,16.5759924 148.032008,18.088 L139.356008,18.088 Z M159.948009,3.256 L149.580009,25.648 L148.140009,25.144 L158.508009,2.752 L159.948009,3.256 Z M164.26801,7.216 L164.26801,20.032 C164.26801,21.832009 164.472008,22.9839975 164.88001,23.488 C165.288012,23.9920025 166.236003,24.244 167.72401,24.244 L167.72401,25 L159.51601,25 L159.51601,24.244 C161.004017,24.244 161.946008,23.9920025 162.34201,23.488 C162.738012,22.9839975 162.93601,21.832009 162.93601,20.032 L162.93601,8.332 C162.93601,6.531991 162.738012,5.38600246 162.34201,4.894 C161.946008,4.40199754 161.004017,4.156 159.51601,4.156 L159.51601,3.4 L165.63601,3.4 L173.26801,20.932 L180.86401,3.4 L186.51601,3.4 L186.51601,4.156 C185.004002,4.156 184.050012,4.40199754 183.65401,4.894 C183.258008,5.38600246 183.06001,6.531991 183.06001,8.332 L183.06001,20.032 C183.06001,21.8560091 183.258008,23.0139975 183.65401,23.506 C184.050012,23.9980025 185.004002,24.244 186.51601,24.244 L186.51601,25 L176.79601,25 L176.79601,24.244 C178.284017,24.244 179.226008,23.9920025 179.62201,23.488 C180.018012,22.9839975 180.21601,21.832009 180.21601,20.032 L180.21601,8.296 L172.72801,25.612 L172.26001,25.612 L164.26801,7.216 Z M195.300011,25 L187.056011,25 L187.056011,24.244 C188.256017,24.244 189.030009,23.9920025 189.378011,23.488 C189.726013,22.9839975 189.900011,21.832009 189.900011,20.032 L189.900011,18.232 C189.900011,16.4559911 189.726013,15.3160025 189.378011,14.812 C189.030009,14.3079975 188.256017,14.056 187.056011,14.056 L187.056011,13.3 L192.456011,12.4 L192.456011,20.032 C192.456011,21.832009 192.630009,22.9839975 192.978011,23.488 C193.326013,23.9920025 194.100005,24.244 195.300011,24.244 L195.300011,25 Z M192.744011,7.252 C192.744011,7.70800228 192.588013,8.09199844 192.276011,8.404 C191.964009,8.71600156 191.592013,8.872 191.160011,8.872 C190.728009,8.872 190.356013,8.71600156 190.044011,8.404 C189.732009,8.09199844 189.576011,7.70800228 189.576011,7.252 C189.576011,6.81999784 189.732009,6.44800156 190.044011,6.136 C190.356013,5.82399844 190.728009,5.668 191.160011,5.668 C191.592013,5.668 191.964009,5.82399844 192.276011,6.136 C192.588013,6.44800156 192.744011,6.81999784 192.744011,7.252 Z M204.444012,21.688 C204.444012,22.8400058 204.030016,23.7819963 203.202012,24.514 C202.374008,25.2460037 201.360018,25.612 200.160012,25.612 C199.72801,25.612 199.284014,25.5280008 198.828012,25.36 C198.37201,25.1919992 198.006013,25.0300008 197.730012,24.874 C197.454011,24.7179992 197.196013,24.5980004 196.956012,24.514 C196.716011,24.4299996 196.548012,24.4719992 196.452012,24.64 C196.356012,24.8080008 196.308012,25.1319976 196.308012,25.612 L195.552012,25.612 L195.552012,20.356 L196.308012,20.356 C196.308012,21.2920047 196.668008,22.1979956 197.388012,23.074 C198.108016,23.9500044 199.056006,24.388 200.232012,24.388 C200.808015,24.388 201.29401,24.2080018 201.690012,23.848 C202.086014,23.4879982 202.284012,23.0560025 202.284012,22.552 C202.284012,21.8079963 201.612019,21.0760036 200.268012,20.356 L198.252012,19.276 C196.668004,18.4119957 195.876012,17.2120077 195.876012,15.676 C195.876012,14.7399953 196.242008,13.9600031 196.974012,13.336 C197.706016,12.7119969 198.552007,12.4 199.512012,12.4 C200.328016,12.4 201.168008,12.6159978 202.032012,13.048 C202.320013,13.2160008 202.518011,13.2700003 202.626012,13.21 C202.734013,13.1499997 202.788012,12.8800024 202.788012,12.4 L203.544012,12.4 L203.544012,16.576 L202.788012,16.576 C202.788012,15.783996 202.518015,15.0820031 201.978012,14.47 C201.438009,13.8579969 200.736016,13.552 199.872012,13.552 C199.272009,13.552 198.816014,13.6959986 198.504012,13.984 C198.19201,14.2720014 198.036012,14.6439977 198.036012,15.1 C198.036012,15.508002 198.19201,15.8619985 198.504012,16.162 C198.816014,16.4620015 199.392008,16.8399977 200.232012,17.296 L201.960012,18.232 C203.61602,19.1680047 204.444012,20.3199932 204.444012,21.688 Z M214.524013,21.688 C214.524013,22.8400058 214.110017,23.7819963 213.282013,24.514 C212.454009,25.2460037 211.440019,25.612 210.240013,25.612 C209.808011,25.612 209.364015,25.5280008 208.908013,25.36 C208.452011,25.1919992 208.086014,25.0300008 207.810013,24.874 C207.534012,24.7179992 207.276014,24.5980004 207.036013,24.514 C206.796012,24.4299996 206.628013,24.4719992 206.532013,24.64 C206.436013,24.8080008 206.388013,25.1319976 206.388013,25.612 L205.632013,25.612 L205.632013,20.356 L206.388013,20.356 C206.388013,21.2920047 206.748009,22.1979956 207.468013,23.074 C208.188017,23.9500044 209.136007,24.388 210.312013,24.388 C210.888016,24.388 211.374011,24.2080018 211.770013,23.848 C212.166015,23.4879982 212.364013,23.0560025 212.364013,22.552 C212.364013,21.8079963 211.69202,21.0760036 210.348013,20.356 L208.332013,19.276 C206.748005,18.4119957 205.956013,17.2120077 205.956013,15.676 C205.956013,14.7399953 206.322009,13.9600031 207.054013,13.336 C207.786017,12.7119969 208.632008,12.4 209.592013,12.4 C210.408017,12.4 211.248009,12.6159978 212.112013,13.048 C212.400014,13.2160008 212.598012,13.2700003 212.706013,13.21 C212.814014,13.1499997 212.868013,12.8800024 212.868013,12.4 L213.624013,12.4 L213.624013,16.576 L212.868013,16.576 C212.868013,15.783996 212.598016,15.0820031 212.058013,14.47 C211.51801,13.8579969 210.816017,13.552 209.952013,13.552 C209.35201,13.552 208.896015,13.6959986 208.584013,13.984 C208.272011,14.2720014 208.116013,14.6439977 208.116013,15.1 C208.116013,15.508002 208.272011,15.8619985 208.584013,16.162 C208.896015,16.4620015 209.472009,16.8399977 210.312013,17.296 L212.040013,18.232 C213.696021,19.1680047 214.524013,20.3199932 214.524013,21.688 Z M223.596014,25 L215.352014,25 L215.352014,24.244 C216.55202,24.244 217.326012,23.9920025 217.674014,23.488 C218.022016,22.9839975 218.196014,21.832009 218.196014,20.032 L218.196014,18.232 C218.196014,16.4559911 218.022016,15.3160025 217.674014,14.812 C217.326012,14.3079975 216.55202,14.056 215.352014,14.056 L215.352014,13.3 L220.752014,12.4 L220.752014,20.032 C220.752014,21.832009 220.926012,22.9839975 221.274014,23.488 C221.622016,23.9920025 222.396008,24.244 223.596014,24.244 L223.596014,25 Z M221.040014,7.252 C221.040014,7.70800228 220.884016,8.09199844 220.572014,8.404 C220.260012,8.71600156 219.888016,8.872 219.456014,8.872 C219.024012,8.872 218.652016,8.71600156 218.340014,8.404 C218.028012,8.09199844 217.872014,7.70800228 217.872014,7.252 C217.872014,6.81999784 218.028012,6.44800156 218.340014,6.136 C218.652016,5.82399844 219.024012,5.668 219.456014,5.668 C219.888016,5.668 220.260012,5.82399844 220.572014,6.136 C220.884016,6.44800156 221.040014,6.81999784 221.040014,7.252 Z M228.888015,14.992 C230.256022,13.2639914 231.924005,12.4 233.892015,12.4 C235.452023,12.4 236.622011,12.8919951 237.402015,13.876 C238.182019,14.8600049 238.572015,16.155992 238.572015,17.764 L238.572015,20.032 C238.572015,21.832009 238.746013,22.9839975 239.094015,23.488 C239.442017,23.9920025 240.216009,24.244 241.416015,24.244 L241.416015,25 L233.172015,25 L233.172015,24.244 C234.348021,24.244 235.116013,23.9860026 235.476015,23.47 C235.836017,22.9539974 236.016015,21.8080089 236.016015,20.032 L236.016015,17.944 C236.016015,15.3759872 235.020025,14.092 233.028015,14.092 C231.99601,14.092 231.048019,14.4519964 230.184015,15.172 C229.320011,15.8920036 228.888015,16.7319952 228.888015,17.692 L228.888015,20.032 C228.888015,21.8800092 229.032014,23.0439976 229.320015,23.524 C229.608016,24.0040024 230.304009,24.244 231.408015,24.244 L231.408015,25 L223.488015,25 L223.488015,24.244 C224.688021,24.244 225.462013,23.9920025 225.810015,23.488 C226.158017,22.9839975 226.332015,21.832009 226.332015,20.032 L226.332015,18.232 C226.332015,16.4559911 226.158017,15.3160025 225.810015,14.812 C225.462013,14.3079975 224.688021,14.056 223.488015,14.056 L223.488015,13.3 L228.276015,12.4 C228.492016,12.8560023 228.696014,13.7199936 228.888015,14.992 Z M248.724016,19.996 C249.180018,19.2999965 249.408016,18.4000055 249.408016,17.296 C249.408016,16.1919945 249.186018,15.2920035 248.742016,14.596 C248.298014,13.8999965 247.65602,13.552 246.816016,13.552 C245.976012,13.552 245.328018,13.8999965 244.872016,14.596 C244.416014,15.2920035 244.188016,16.1919945 244.188016,17.296 C244.188016,18.4000055 244.416014,19.2939966 244.872016,19.978 C245.328018,20.6620034 245.976012,21.004 246.816016,21.004 C247.65602,21.004 248.292014,20.6680034 248.724016,19.996 Z M243.468016,23.704 C243.468016,24.4240036 244.560005,24.879999 246.744016,25.072 C249.048028,25.264001 250.716011,25.7919957 251.748016,26.656 C252.780021,27.5200043 253.296016,28.5639939 253.296016,29.788 C253.296016,31.2520073 252.690022,32.4219956 251.478016,33.298 C250.26601,34.1740044 248.748025,34.612 246.924016,34.612 C244.980006,34.612 243.414022,34.210004 242.226016,33.406 C241.03801,32.601996 240.492016,31.6600054 240.588016,30.58 C240.684016,29.4999946 241.452009,28.5880037 242.892016,27.844 L243.540016,28.24 C242.844013,29.032004 242.472016,29.7579967 242.424016,30.418 C242.376016,31.0780033 242.586014,31.5999981 243.054016,31.984 C243.522018,32.3680019 244.098013,32.6679989 244.782016,32.884 C245.466019,33.1000011 246.180012,33.208 246.924016,33.208 C248.100022,33.208 249.138012,32.9500026 250.038016,32.434 C250.938021,31.9179974 251.388016,31.2520041 251.388016,30.436 C251.388016,29.643996 250.99802,29.0680018 250.218016,28.708 C249.438012,28.3479982 248.220024,28.0840008 246.564016,27.916 C243.155999,27.5799983 241.452016,26.4640095 241.452016,24.568 C241.452016,23.2719935 242.460006,22.3120031 244.476016,21.688 C243.540011,21.2559978 242.802019,20.6560038 242.262016,19.888 C241.722013,19.1199962 241.452016,18.2560048 241.452016,17.296 C241.452016,15.9519933 241.974011,14.8000048 243.018016,13.84 C244.062021,12.8799952 245.328009,12.4 246.816016,12.4 C248.256023,12.4 249.492011,12.8559954 250.524016,13.768 C250.836018,13.3839981 251.262013,13.0600013 251.802016,12.796 C252.342019,12.5319987 252.816014,12.4 253.224016,12.4 C254.280021,12.4 254.952015,12.8439956 255.240016,13.732 C255.456017,14.4040034 255.348018,14.9079983 254.916016,15.244 C254.772015,15.3640006 254.604017,15.424 254.412016,15.424 C254.052014,15.4480001 253.782017,15.3760008 253.602016,15.208 C253.422015,15.0399992 253.314016,14.854001 253.278016,14.65 C253.242016,14.445999 253.146017,14.2540009 252.990016,14.074 C252.834015,13.8939991 252.588018,13.804 252.252016,13.804 C251.892014,13.804 251.520018,13.9959981 251.136016,14.38 C251.832019,15.2200042 252.180016,16.1919945 252.180016,17.296 C252.180016,18.5680064 251.712021,19.6599954 250.776016,20.572 C249.840011,21.4840046 248.748022,22.0239992 247.500016,22.192 C244.812003,22.5040016 243.468016,23.0079965 243.468016,23.704 Z M260.604018,25 L260.604018,24.244 C262.092025,24.244 263.034016,23.9920025 263.430018,23.488 C263.82602,22.9839975 264.024018,21.832009 264.024018,20.032 L264.024018,8.332 C264.024018,6.531991 263.82602,5.38600246 263.430018,4.894 C263.034016,4.40199754 262.092025,4.156 260.604018,4.156 L260.604018,3.4 L277.020018,3.4 L277.344018,8.152 L276.588018,8.152 L276.408018,7.432 C276.120017,6.37599472 275.73602,5.66200186 275.256018,5.29 C274.776016,4.91799814 273.768026,4.732 272.232018,4.732 L266.904018,4.732 L266.904018,12.904 L268.704018,12.904 C270.504027,12.904 271.650016,12.706002 272.142018,12.31 C272.63402,11.913998 272.880018,10.9600076 272.880018,9.448 L273.636018,9.448 L273.636018,17.692 L272.880018,17.692 C272.880018,16.1799924 272.63402,15.226002 272.142018,14.83 C271.650016,14.433998 270.504027,14.236 268.704018,14.236 L266.904018,14.236 L266.904018,19.492 C266.904018,21.292009 267.102016,22.4379975 267.498018,22.93 C267.89402,23.4220025 268.836011,23.668 270.324018,23.668 L273.420018,23.668 C274.500023,23.668 275.322015,23.5600011 275.886018,23.344 C276.450021,23.1279989 276.834017,22.8520017 277.038018,22.516 C277.242019,22.1799983 277.428017,21.6520036 277.596018,20.932 L277.776018,20.212 L278.532018,20.212 L278.244018,25 L260.604018,25 Z M286.992019,25 L278.748019,25 L278.748019,24.244 C279.948025,24.244 280.722017,23.9920025 281.070019,23.488 C281.418021,22.9839975 281.592019,21.832009 281.592019,20.032 L281.592019,8.656 C281.592019,6.855991 281.418021,5.70400252 281.070019,5.2 C280.722017,4.69599748 279.948025,4.444 278.748019,4.444 L278.748019,3.688 L284.148019,2.788 L284.148019,20.032 C284.148019,21.832009 284.322017,22.9839975 284.670019,23.488 C285.018021,23.9920025 285.792013,24.244 286.992019,24.244 L286.992019,25 Z M290.37602,16.756 L296.35202,16.756 C296.592021,16.0839966 296.490022,15.4300032 296.04602,14.794 C295.602018,14.1579968 294.840025,13.84 293.76002,13.84 C292.992016,13.84 292.302023,14.1039974 291.69002,14.632 C291.078017,15.1600026 290.640021,15.8679956 290.37602,16.756 Z M290.16002,18.088 C289.944019,19.8640089 290.226016,21.3099944 291.00602,22.426 C291.786024,23.5420056 293.064011,24.1 294.84002,24.1 C295.440023,24.1 296.124016,23.9440016 296.89202,23.632 C297.660024,23.3199984 298.296017,22.9240024 298.80002,22.444 L299.44802,23.236 C298.800017,23.9320035 297.972025,24.5019978 296.96402,24.946 C295.956015,25.3900022 294.948025,25.612 293.94002,25.612 C291.99601,25.612 290.400026,24.9700064 289.15202,23.686 C287.904014,22.4019936 287.28002,20.8360092 287.28002,18.988 C287.28002,17.1399908 287.958013,15.5800064 289.31402,14.308 C290.670027,13.0359936 292.212011,12.4 293.94002,12.4 C295.572028,12.4 296.904015,12.9699943 297.93602,14.11 C298.968025,15.2500057 299.268022,16.5759924 298.83602,18.088 L290.16002,18.088 Z M306.684021,13.552 C305.724016,13.552 304.908024,14.1039945 304.236021,15.208 C303.564018,16.3120055 303.228021,17.6799918 303.228021,19.312 C303.228021,20.8000074 303.594017,21.9699957 304.326021,22.822 C305.058025,23.6740043 306.144014,24.1 307.584021,24.1 C308.976028,24.1 310.260015,23.5480055 311.436021,22.444 L312.048021,23.236 C310.584014,24.8200079 308.796032,25.612 306.684021,25.612 C304.716011,25.612 303.162027,25.0240059 302.022021,23.848 C300.882015,22.6719941 300.312021,21.1600092 300.312021,19.312 C300.312021,17.31999 300.984014,15.6700065 302.328021,14.362 C303.672028,13.0539935 305.124013,12.4 306.684021,12.4 C308.100028,12.4 309.168017,12.6519975 309.888021,13.156 C310.608025,13.6600025 310.968021,14.2719964 310.968021,14.992 C310.968021,15.3760019 310.842022,15.7299984 310.590021,16.054 C310.33802,16.3780016 309.936024,16.54 309.384021,16.54 C309.000019,16.54 308.670022,16.4020014 308.394021,16.126 C308.11802,15.8499986 307.980021,15.508002 307.980021,15.1 C307.980021,14.0679948 307.548025,13.552 306.684021,13.552 Z M323.964022,14.632 C323.964022,15.7600056 323.484027,16.324 322.524022,16.324 C322.18802,16.324 321.894023,16.1920013 321.642022,15.928 C321.390021,15.6639987 321.264022,15.3640017 321.264022,15.028 C321.264022,14.235996 320.880026,13.84 320.112022,13.84 C319.560019,13.84 318.960025,14.2239962 318.312022,14.992 C317.664019,15.7600038 317.340022,16.7799936 317.340022,18.052 L317.340022,20.032 C317.340022,21.832009 317.51402,22.9839975 317.862022,23.488 C318.210024,23.9920025 318.984016,24.244 320.184022,24.244 L320.184022,25 L311.940022,25 L311.940022,24.244 C313.140028,24.244 313.91402,23.9920025 314.262022,23.488 C314.610024,22.9839975 314.784022,21.832009 314.784022,20.032 L314.784022,18.232 C314.784022,16.4559911 314.610024,15.3160025 314.262022,14.812 C313.91402,14.3079975 313.140028,14.056 311.940022,14.056 L311.940022,13.3 L316.728022,12.4 C316.944023,12.8560023 317.148021,13.7199936 317.340022,14.992 C317.700024,14.2719964 318.240018,13.6600025 318.960022,13.156 C319.680026,12.6519975 320.400018,12.4 321.120022,12.4 C322.032027,12.4 322.73402,12.6399976 323.226022,13.12 C323.718024,13.6000024 323.964022,14.1039974 323.964022,14.632 Z M336.672023,14.344 C338.11203,15.6160064 338.832023,17.1639909 338.832023,18.988 C338.832023,20.8120091 338.11803,22.3719935 336.690023,23.668 C335.262016,24.9640065 333.552033,25.612 331.560023,25.612 C329.568013,25.612 327.85803,24.9640065 326.430023,23.668 C325.002016,22.3719935 324.288023,20.8120091 324.288023,18.988 C324.288023,17.1639909 325.002016,15.6100064 326.430023,14.326 C327.85803,13.0419936 329.568013,12.4 331.560023,12.4 C333.552033,12.4 335.256016,13.0479935 336.672023,14.344 Z M334.800023,22.768 C335.544027,21.7839951 335.916023,20.5240077 335.916023,18.988 C335.916023,17.4519923 335.544027,16.1980049 334.800023,15.226 C334.056019,14.2539951 332.97603,13.768 331.560023,13.768 C330.144016,13.768 329.064027,14.2599951 328.320023,15.244 C327.576019,16.2280049 327.204023,17.4759924 327.204023,18.988 C327.204023,20.5000076 327.576019,21.7479951 328.320023,22.732 C329.064027,23.7160049 330.144016,24.208 331.560023,24.208 C332.97603,24.208 334.056019,23.7280048 334.800023,22.768 Z M345.168024,14.992 C346.536031,13.2639914 348.204014,12.4 350.172024,12.4 C351.732032,12.4 352.90202,12.8919951 353.682024,13.876 C354.462028,14.8600049 354.852024,16.155992 354.852024,17.764 L354.852024,20.032 C354.852024,21.832009 355.026022,22.9839975 355.374024,23.488 C355.722026,23.9920025 356.496018,24.244 357.696024,24.244 L357.696024,25 L349.452024,25 L349.452024,24.244 C350.62803,24.244 351.396022,23.9860026 351.756024,23.47 C352.116026,22.9539974 352.296024,21.8080089 352.296024,20.032 L352.296024,17.944 C352.296024,15.3759872 351.300034,14.092 349.308024,14.092 C348.276019,14.092 347.328028,14.4519964 346.464024,15.172 C345.60002,15.8920036 345.168024,16.7319952 345.168024,17.692 L345.168024,20.032 C345.168024,21.8800092 345.312023,23.0439976 345.600024,23.524 C345.888025,24.0040024 346.584018,24.244 347.688024,24.244 L347.688024,25 L339.768024,25 L339.768024,24.244 C340.96803,24.244 341.742022,23.9920025 342.090024,23.488 C342.438026,22.9839975 342.612024,21.832009 342.612024,20.032 L342.612024,18.232 C342.612024,16.4559911 342.438026,15.3160025 342.090024,14.812 C341.742022,14.3079975 340.96803,14.056 339.768024,14.056 L339.768024,13.3 L344.556024,12.4 C344.772025,12.8560023 344.976023,13.7199936 345.168024,14.992 Z" id="Free-Hole/Missing-El-Copy" fill="#524740"></path>
                </g>
                <g id="--Atom" transform="translate(0.000000, 34.000000)">
                    <circle id="Oval-Copy-11" fill="#84D0EF" cx="10" cy="16" r="10"></circle>
                    <path d="M54.268,20.536 L54.268,8.332 C54.268,6.531991 54.070002,5.38600246 53.674,4.894 C53.277998,4.40199754 52.3360074,4.156 50.848,4.156 L50.848,3.4 L59.056,3.4 L59.056,4.156 C57.5679926,4.156 56.620002,4.40199754 56.212,4.894 C55.803998,5.38600246 55.6,6.531991 55.6,8.332 L55.6,25.612 L54.772,25.612 L40.12,7.504 L40.12,20.032 C40.12,21.832009 40.323998,22.9839975 40.732,23.488 C41.140002,23.9920025 42.0879926,24.244 43.576,24.244 L43.576,25 L35.368,25 L35.368,24.244 C36.8560074,24.244 37.797998,23.9920025 38.194,23.488 C38.590002,22.9839975 38.788,21.832009 38.788,20.032 L38.788,8.332 C38.788,6.531991 38.590002,5.38600246 38.194,4.894 C37.797998,4.40199754 36.8560074,4.156 35.368,4.156 L35.368,3.4 L40.444,3.4 L54.268,20.536 Z M62.764001,16.756 L68.740001,16.756 C68.9800022,16.0839966 68.8780032,15.4300032 68.434001,14.794 C67.9899988,14.1579968 67.2280064,13.84 66.148001,13.84 C65.3799972,13.84 64.6900041,14.1039974 64.078001,14.632 C63.4659979,15.1600026 63.0280023,15.8679956 62.764001,16.756 Z M62.548001,18.088 C62.3319999,19.8640089 62.6139971,21.3099944 63.394001,22.426 C64.1740049,23.5420056 65.4519921,24.1 67.228001,24.1 C67.828004,24.1 68.5119972,23.9440016 69.280001,23.632 C70.0480048,23.3199984 70.6839985,22.9240024 71.188001,22.444 L71.836001,23.236 C71.1879978,23.9320035 70.360006,24.5019978 69.352001,24.946 C68.343996,25.3900022 67.336006,25.612 66.328001,25.612 C64.3839913,25.612 62.7880072,24.9700064 61.540001,23.686 C60.2919948,22.4019936 59.668001,20.8360092 59.668001,18.988 C59.668001,17.1399908 60.3459942,15.5800064 61.702001,14.308 C63.0580078,13.0359936 64.5999924,12.4 66.328001,12.4 C67.9600092,12.4 69.2919958,12.9699943 70.324001,14.11 C71.3560062,15.2500057 71.6560032,16.5759924 71.224001,18.088 L62.548001,18.088 Z M79.756002,19.996 C80.2120043,19.2999965 80.440002,18.4000055 80.440002,17.296 C80.440002,16.1919945 80.2180042,15.2920035 79.774002,14.596 C79.3299998,13.8999965 78.6880062,13.552 77.848002,13.552 C77.0079978,13.552 76.3600043,13.8999965 75.904002,14.596 C75.4479997,15.2920035 75.220002,16.1919945 75.220002,17.296 C75.220002,18.4000055 75.4479997,19.2939966 75.904002,19.978 C76.3600043,20.6620034 77.0079978,21.004 77.848002,21.004 C78.6880062,21.004 79.3239998,20.6680034 79.756002,19.996 Z M74.500002,23.704 C74.500002,24.4240036 75.5919911,24.879999 77.776002,25.072 C80.0800135,25.264001 81.7479968,25.7919957 82.780002,26.656 C83.8120072,27.5200043 84.328002,28.5639939 84.328002,29.788 C84.328002,31.2520073 83.7220081,32.4219956 82.510002,33.298 C81.2979959,34.1740044 79.7800111,34.612 77.956002,34.612 C76.0119923,34.612 74.4460079,34.210004 73.258002,33.406 C72.0699961,32.601996 71.5240015,31.6600054 71.620002,30.58 C71.7160025,29.4999946 72.4839948,28.5880037 73.924002,27.844 L74.572002,28.24 C73.8759985,29.032004 73.5040022,29.7579967 73.456002,30.418 C73.4080018,31.0780033 73.6179997,31.5999981 74.086002,31.984 C74.5540043,32.3680019 75.1299986,32.6679989 75.814002,32.884 C76.4980054,33.1000011 77.2119983,33.208 77.956002,33.208 C79.1320079,33.208 80.1699975,32.9500026 81.070002,32.434 C81.9700065,31.9179974 82.420002,31.2520041 82.420002,30.436 C82.420002,29.643996 82.0300059,29.0680018 81.250002,28.708 C80.4699981,28.3479982 79.2520103,28.0840008 77.596002,27.916 C74.187985,27.5799983 72.484002,26.4640095 72.484002,24.568 C72.484002,23.2719935 73.4919919,22.3120031 75.508002,21.688 C74.5719973,21.2559978 73.8340047,20.6560038 73.294002,19.888 C72.7539993,19.1199962 72.484002,18.2560048 72.484002,17.296 C72.484002,15.9519933 73.0059968,14.8000048 74.050002,13.84 C75.0940072,12.8799952 76.3599946,12.4 77.848002,12.4 C79.2880092,12.4 80.5239968,12.8559954 81.556002,13.768 C81.8680036,13.3839981 82.2939993,13.0600013 82.834002,12.796 C83.3740047,12.5319987 83.848,12.4 84.256002,12.4 C85.3120073,12.4 85.9840006,12.8439956 86.272002,13.732 C86.4880031,14.4040034 86.3800042,14.9079983 85.948002,15.244 C85.8040013,15.3640006 85.636003,15.424 85.444002,15.424 C85.0840002,15.4480001 84.8140029,15.3760008 84.634002,15.208 C84.4540011,15.0399992 84.3460022,14.854001 84.310002,14.65 C84.2740018,14.445999 84.1780028,14.2540009 84.022002,14.074 C83.8660012,13.8939991 83.6200037,13.804 83.284002,13.804 C82.9240002,13.804 82.5520039,13.9959981 82.168002,14.38 C82.8640055,15.2200042 83.212002,16.1919945 83.212002,17.296 C83.212002,18.5680064 82.7440067,19.6599954 81.808002,20.572 C80.8719973,21.4840046 79.7800082,22.0239992 78.532002,22.192 C75.8439886,22.5040016 74.500002,23.0079965 74.500002,23.704 Z M97.972003,24.28 C97.2759995,25.0240037 96.4840074,25.396 95.596003,25.396 C94.1559958,25.396 93.340004,24.700007 93.148003,23.308 C91.539995,24.7480072 90.04001,25.468 88.648003,25.468 C87.7359984,25.468 86.9680061,25.1980027 86.344003,24.658 C85.7199999,24.1179973 85.408003,23.3800047 85.408003,22.444 C85.408003,19.9239874 87.9639774,18.2200044 93.076003,17.332 C93.076003,15.9159929 92.9200046,14.9320028 92.608003,14.38 C92.2960014,13.8279972 91.6480079,13.552 90.664003,13.552 C90.1840006,13.552 89.7220052,13.7079984 89.278003,14.02 C88.8340008,14.3320016 88.612003,14.7519974 88.612003,15.28 C88.612003,15.6400018 88.4920042,15.9399988 88.252003,16.18 C88.0120018,16.4200012 87.7240047,16.54 87.388003,16.54 C87.0280012,16.54 86.7280042,16.4200012 86.488003,16.18 C86.2480018,15.9399988 86.128003,15.6400018 86.128003,15.28 C86.128003,14.4399958 86.5899984,13.7500027 87.514003,13.21 C88.4380076,12.6699973 89.499997,12.4 90.700003,12.4 C92.4520118,12.4 93.7119992,12.7839962 94.480003,13.552 C95.2480068,14.3200038 95.632003,15.5679914 95.632003,17.296 L95.632003,22.732 C95.632003,23.6680047 95.9080002,24.136 96.460003,24.136 C96.7720046,24.136 97.1080012,23.9560018 97.468003,23.596 L97.972003,24.28 Z M93.076003,22.12 L93.076003,18.448 C89.7639864,19.2160038 88.108003,20.403992 88.108003,22.012 C88.108003,22.5640028 88.2700014,23.0079983 88.594003,23.344 C88.9180046,23.6800017 89.3200006,23.848 89.800003,23.848 C90.6880074,23.848 91.7799965,23.2720058 93.076003,22.12 Z M99.268004,14.272 L97.396004,14.272 L97.396004,13.408 C98.4280092,13.1919989 99.1840016,12.7240036 99.664004,12.004 C100.144006,11.2839964 100.456003,10.3000062 100.600004,9.052 L101.824004,9.052 L101.824004,13.012 L104.956004,13.012 L104.956004,14.272 L101.824004,14.272 L101.824004,21.472 C101.824004,23.2000086 102.363999,24.064 103.444004,24.064 C104.140007,24.064 104.92,23.6560041 105.784004,22.84 L106.396004,23.452 C105.892001,24.052003 105.286008,24.5439981 104.578004,24.928 C103.87,25.3120019 103.216007,25.504 102.616004,25.504 C101.583999,25.504 100.768007,25.1680034 100.168004,24.496 C99.568001,23.8239966 99.268004,22.8160067 99.268004,21.472 L99.268004,14.272 Z M114.460005,25 L106.216005,25 L106.216005,24.244 C107.416011,24.244 108.190003,23.9920025 108.538005,23.488 C108.886007,22.9839975 109.060005,21.832009 109.060005,20.032 L109.060005,18.232 C109.060005,16.4559911 108.886007,15.3160025 108.538005,14.812 C108.190003,14.3079975 107.416011,14.056 106.216005,14.056 L106.216005,13.3 L111.616005,12.4 L111.616005,20.032 C111.616005,21.832009 111.790003,22.9839975 112.138005,23.488 C112.486007,23.9920025 113.259999,24.244 114.460005,24.244 L114.460005,25 Z M111.904005,7.252 C111.904005,7.70800228 111.748007,8.09199844 111.436005,8.404 C111.124003,8.71600156 110.752007,8.872 110.320005,8.872 C109.888003,8.872 109.516007,8.71600156 109.204005,8.404 C108.892003,8.09199844 108.736005,7.70800228 108.736005,7.252 C108.736005,6.81999784 108.892003,6.44800156 109.204005,6.136 C109.516007,5.82399844 109.888003,5.668 110.320005,5.668 C110.752007,5.668 111.124003,5.82399844 111.436005,6.136 C111.748007,6.44800156 111.904005,6.81999784 111.904005,7.252 Z M126.844006,13.732 C126.220003,13.732 125.722008,13.8879984 125.350006,14.2 C124.978004,14.5120016 124.624008,15.063996 124.288006,15.856 L120.220006,25.648 L119.500006,25.648 L115.108006,15.856 C114.748004,15.063996 114.394008,14.5120016 114.046006,14.2 C113.698004,13.8879984 113.236009,13.732 112.660006,13.732 L112.660006,13.012 L119.032006,13.012 L119.032006,13.732 C118.216002,13.732 117.736007,13.8699986 117.592006,14.146 C117.448005,14.4220014 117.556004,14.9919957 117.916006,15.856 L120.472006,21.616 L122.848006,15.856 C123.208008,15.0879962 123.316007,14.5420016 123.172006,14.218 C123.028005,13.8939984 122.57201,13.732 121.804006,13.732 L121.804006,13.012 L126.844006,13.012 L126.844006,13.732 Z M129.076007,16.756 L135.052007,16.756 C135.292008,16.0839966 135.190009,15.4300032 134.746007,14.794 C134.302005,14.1579968 133.540012,13.84 132.460007,13.84 C131.692003,13.84 131.00201,14.1039974 130.390007,14.632 C129.778004,15.1600026 129.340008,15.8679956 129.076007,16.756 Z M128.860007,18.088 C128.644006,19.8640089 128.926003,21.3099944 129.706007,22.426 C130.486011,23.5420056 131.763998,24.1 133.540007,24.1 C134.14001,24.1 134.824003,23.9440016 135.592007,23.632 C136.360011,23.3199984 136.996004,22.9240024 137.500007,22.444 L138.148007,23.236 C137.500004,23.9320035 136.672012,24.5019978 135.664007,24.946 C134.656002,25.3900022 133.648012,25.612 132.640007,25.612 C130.695997,25.612 129.100013,24.9700064 127.852007,23.686 C126.604001,22.4019936 125.980007,20.8360092 125.980007,18.988 C125.980007,17.1399908 126.658,15.5800064 128.014007,14.308 C129.370014,13.0359936 130.911998,12.4 132.640007,12.4 C134.272015,12.4 135.604002,12.9699943 136.636007,14.11 C137.668012,15.2500057 137.968009,16.5759924 137.536007,18.088 L128.860007,18.088 Z M146.212008,25 L137.968008,25 L137.968008,24.244 C139.168014,24.244 139.942006,23.9920025 140.290008,23.488 C140.63801,22.9839975 140.812008,21.832009 140.812008,20.032 L140.812008,8.656 C140.812008,6.855991 140.63801,5.70400252 140.290008,5.2 C139.942006,4.69599748 139.168014,4.444 137.968008,4.444 L137.968008,3.688 L143.368008,2.788 L143.368008,20.032 C143.368008,21.832009 143.542006,22.9839975 143.890008,23.488 C144.23801,23.9920025 145.012002,24.244 146.212008,24.244 L146.212008,25 Z M146.500009,33.532 C146.500009,33.1479981 146.644008,32.8060015 146.932009,32.506 C147.22001,32.2059985 147.598007,31.7980026 148.066009,31.282 C148.534011,30.7659974 148.924007,30.112004 149.236009,29.32 L151.036009,24.82 L146.896009,15.856 C146.512007,15.0399959 146.152011,14.4820015 145.816009,14.182 C145.480007,13.8819985 145.036012,13.732 144.484009,13.732 L144.484009,13.012 L150.856009,13.012 L150.856009,13.732 C150.040005,13.732 149.54801,13.8639987 149.380009,14.128 C149.212008,14.3920013 149.320007,14.9679956 149.704009,15.856 L152.332009,21.616 L154.636009,15.856 C154.972011,15.0399959 155.06801,14.4820015 154.924009,14.182 C154.780008,13.8819985 154.336013,13.732 153.592009,13.732 L153.592009,13.012 L158.632009,13.012 L158.632009,13.732 C157.504003,13.732 156.652012,14.4399929 156.076009,15.856 L149.056009,33.388 C148.696007,34.2760044 148.252012,34.72 147.724009,34.72 C147.412007,34.72 147.13001,34.624001 146.878009,34.432 C146.626008,34.239999 146.500009,33.940002 146.500009,33.532 Z M184.516011,24.604 L183.796011,24.604 C183.60401,23.6679953 183.196014,22.9840022 182.572011,22.552 C180.604001,24.5920102 178.372023,25.612 175.876011,25.612 C172.827996,25.612 170.224022,24.4960112 168.064011,22.264 C165.904,20.0319888 164.824011,17.3440157 164.824011,14.2 C164.824011,11.0559843 165.904,8.36801116 168.064011,6.136 C170.224022,3.90398884 172.827996,2.788 175.876011,2.788 C178.420024,2.788 180.652001,3.8079898 182.572011,5.848 C183.220014,5.34399748 183.62801,4.66000432 183.796011,3.796 L184.516011,3.796 L184.516011,11.716 L183.796011,11.716 C183.292008,9.33998812 182.362018,7.4920066 181.006011,6.172 C179.650004,4.8519934 177.988021,4.192 176.020011,4.192 C174.652004,4.192 173.440016,4.49799694 172.384011,5.11 C171.328006,5.72200306 170.506014,6.53199496 169.918011,7.54 C169.330008,8.54800504 168.892012,9.61599436 168.604011,10.744 C168.31601,11.8720056 168.172011,13.0239941 168.172011,14.2 C168.172011,15.3760059 168.31601,16.5279944 168.604011,17.656 C168.892012,18.7840056 169.330008,19.845995 169.918011,20.842 C170.506014,21.838005 171.328006,22.6419969 172.384011,23.254 C173.440016,23.8660031 174.652004,24.172 176.020011,24.172 C177.988021,24.172 179.650004,23.5060067 181.006011,22.174 C182.362018,20.8419933 183.292008,19.0120116 183.796011,16.684 L184.516011,16.684 L184.516011,24.604 Z M203.128012,25 L195.172012,25 L195.172012,24.244 C196.300018,24.244 197.008011,24.0040024 197.296012,23.524 C197.584013,23.0439976 197.728012,21.8800092 197.728012,20.032 L197.728012,17.944 C197.728012,15.3759872 196.816021,14.092 194.992012,14.092 C194.032007,14.092 193.144016,14.4459965 192.328012,15.154 C191.512008,15.8620035 191.104012,16.7079951 191.104012,17.692 L191.104012,20.032 C191.104012,21.9040094 191.236011,23.0739977 191.500012,23.542 C191.764013,24.0100023 192.388007,24.244 193.372012,24.244 L193.372012,25 L185.704012,25 L185.704012,24.244 C186.904018,24.244 187.67801,23.9920025 188.026012,23.488 C188.374014,22.9839975 188.548012,21.832009 188.548012,20.032 L188.548012,8.656 C188.548012,6.855991 188.374014,5.70400252 188.026012,5.2 C187.67801,4.69599748 186.904018,4.444 185.704012,4.444 L185.704012,3.688 L191.104012,2.788 L191.104012,14.992 C192.520019,13.2639914 194.092003,12.4 195.820012,12.4 C198.772027,12.4 200.248012,14.1879821 200.248012,17.764 L200.248012,20.032 C200.248012,21.832009 200.42201,22.9839975 200.770012,23.488 C201.118014,23.9920025 201.904006,24.244 203.128012,24.244 L203.128012,25 Z M215.584013,24.28 C214.88801,25.0240037 214.096017,25.396 213.208013,25.396 C211.768006,25.396 210.952014,24.700007 210.760013,23.308 C209.152005,24.7480072 207.65202,25.468 206.260013,25.468 C205.348008,25.468 204.580016,25.1980027 203.956013,24.658 C203.33201,24.1179973 203.020013,23.3800047 203.020013,22.444 C203.020013,19.9239874 205.575987,18.2200044 210.688013,17.332 C210.688013,15.9159929 210.532015,14.9320028 210.220013,14.38 C209.908011,13.8279972 209.260018,13.552 208.276013,13.552 C207.796011,13.552 207.334015,13.7079984 206.890013,14.02 C206.446011,14.3320016 206.224013,14.7519974 206.224013,15.28 C206.224013,15.6400018 206.104014,15.9399988 205.864013,16.18 C205.624012,16.4200012 205.336015,16.54 205.000013,16.54 C204.640011,16.54 204.340014,16.4200012 204.100013,16.18 C203.860012,15.9399988 203.740013,15.6400018 203.740013,15.28 C203.740013,14.4399958 204.202008,13.7500027 205.126013,13.21 C206.050018,12.6699973 207.112007,12.4 208.312013,12.4 C210.064022,12.4 211.324009,12.7839962 212.092013,13.552 C212.860017,14.3200038 213.244013,15.5679914 213.244013,17.296 L213.244013,22.732 C213.244013,23.6680047 213.52001,24.136 214.072013,24.136 C214.384015,24.136 214.720011,23.9560018 215.080013,23.596 L215.584013,24.28 Z M210.688013,22.12 L210.688013,18.448 C207.375996,19.2160038 205.720013,20.403992 205.720013,22.012 C205.720013,22.5640028 205.882011,23.0079983 206.206013,23.344 C206.530015,23.6800017 206.932011,23.848 207.412013,23.848 C208.300017,23.848 209.392007,23.2720058 210.688013,22.12 Z M227.392014,14.632 C227.392014,15.7600056 226.912019,16.324 225.952014,16.324 C225.616012,16.324 225.322015,16.1920013 225.070014,15.928 C224.818013,15.6639987 224.692014,15.3640017 224.692014,15.028 C224.692014,14.235996 224.308018,13.84 223.540014,13.84 C222.988011,13.84 222.388017,14.2239962 221.740014,14.992 C221.092011,15.7600038 220.768014,16.7799936 220.768014,18.052 L220.768014,20.032 C220.768014,21.832009 220.942012,22.9839975 221.290014,23.488 C221.638016,23.9920025 222.412008,24.244 223.612014,24.244 L223.612014,25 L215.368014,25 L215.368014,24.244 C216.56802,24.244 217.342012,23.9920025 217.690014,23.488 C218.038016,22.9839975 218.212014,21.832009 218.212014,20.032 L218.212014,18.232 C218.212014,16.4559911 218.038016,15.3160025 217.690014,14.812 C217.342012,14.3079975 216.56802,14.056 215.368014,14.056 L215.368014,13.3 L220.156014,12.4 C220.372015,12.8560023 220.576013,13.7199936 220.768014,14.992 C221.128016,14.2719964 221.66801,13.6600025 222.388014,13.156 C223.108018,12.6519975 223.82801,12.4 224.548014,12.4 C225.460019,12.4 226.162012,12.6399976 226.654014,13.12 C227.146016,13.6000024 227.392014,14.1039974 227.392014,14.632 Z M234.772015,19.996 C235.228017,19.2999965 235.456015,18.4000055 235.456015,17.296 C235.456015,16.1919945 235.234017,15.2920035 234.790015,14.596 C234.346013,13.8999965 233.704019,13.552 232.864015,13.552 C232.024011,13.552 231.376017,13.8999965 230.920015,14.596 C230.464013,15.2920035 230.236015,16.1919945 230.236015,17.296 C230.236015,18.4000055 230.464013,19.2939966 230.920015,19.978 C231.376017,20.6620034 232.024011,21.004 232.864015,21.004 C233.704019,21.004 234.340013,20.6680034 234.772015,19.996 Z M229.516015,23.704 C229.516015,24.4240036 230.608004,24.879999 232.792015,25.072 C235.096027,25.264001 236.76401,25.7919957 237.796015,26.656 C238.82802,27.5200043 239.344015,28.5639939 239.344015,29.788 C239.344015,31.2520073 238.738021,32.4219956 237.526015,33.298 C236.314009,34.1740044 234.796024,34.612 232.972015,34.612 C231.028005,34.612 229.462021,34.210004 228.274015,33.406 C227.086009,32.601996 226.540015,31.6600054 226.636015,30.58 C226.732015,29.4999946 227.500008,28.5880037 228.940015,27.844 L229.588015,28.24 C228.892012,29.032004 228.520015,29.7579967 228.472015,30.418 C228.424015,31.0780033 228.634013,31.5999981 229.102015,31.984 C229.570017,32.3680019 230.146012,32.6679989 230.830015,32.884 C231.514018,33.1000011 232.228011,33.208 232.972015,33.208 C234.148021,33.208 235.186011,32.9500026 236.086015,32.434 C236.98602,31.9179974 237.436015,31.2520041 237.436015,30.436 C237.436015,29.643996 237.046019,29.0680018 236.266015,28.708 C235.486011,28.3479982 234.268023,28.0840008 232.612015,27.916 C229.203998,27.5799983 227.500015,26.4640095 227.500015,24.568 C227.500015,23.2719935 228.508005,22.3120031 230.524015,21.688 C229.58801,21.2559978 228.850018,20.6560038 228.310015,19.888 C227.770012,19.1199962 227.500015,18.2560048 227.500015,17.296 C227.500015,15.9519933 228.02201,14.8000048 229.066015,13.84 C230.11002,12.8799952 231.376008,12.4 232.864015,12.4 C234.304022,12.4 235.54001,12.8559954 236.572015,13.768 C236.884017,13.3839981 237.310012,13.0600013 237.850015,12.796 C238.390018,12.5319987 238.864013,12.4 239.272015,12.4 C240.32802,12.4 241.000014,12.8439956 241.288015,13.732 C241.504016,14.4040034 241.396017,14.9079983 240.964015,15.244 C240.820014,15.3640006 240.652016,15.424 240.460015,15.424 C240.100013,15.4480001 239.830016,15.3760008 239.650015,15.208 C239.470014,15.0399992 239.362015,14.854001 239.326015,14.65 C239.290015,14.445999 239.194016,14.2540009 239.038015,14.074 C238.882014,13.8939991 238.636017,13.804 238.300015,13.804 C237.940013,13.804 237.568017,13.9959981 237.184015,14.38 C237.880018,15.2200042 238.228015,16.1919945 238.228015,17.296 C238.228015,18.5680064 237.76002,19.6599954 236.824015,20.572 C235.88801,21.4840046 234.796021,22.0239992 233.548015,22.192 C230.860002,22.5040016 229.516015,23.0079965 229.516015,23.704 Z M243.880016,16.756 L249.856016,16.756 C250.096017,16.0839966 249.994018,15.4300032 249.550016,14.794 C249.106014,14.1579968 248.344021,13.84 247.264016,13.84 C246.496012,13.84 245.806019,14.1039974 245.194016,14.632 C244.582013,15.1600026 244.144017,15.8679956 243.880016,16.756 Z M243.664016,18.088 C243.448015,19.8640089 243.730012,21.3099944 244.510016,22.426 C245.29002,23.5420056 246.568007,24.1 248.344016,24.1 C248.944019,24.1 249.628012,23.9440016 250.396016,23.632 C251.16402,23.3199984 251.800013,22.9240024 252.304016,22.444 L252.952016,23.236 C252.304013,23.9320035 251.476021,24.5019978 250.468016,24.946 C249.460011,25.3900022 248.452021,25.612 247.444016,25.612 C245.500006,25.612 243.904022,24.9700064 242.656016,23.686 C241.40801,22.4019936 240.784016,20.8360092 240.784016,18.988 C240.784016,17.1399908 241.462009,15.5800064 242.818016,14.308 C244.174023,13.0359936 245.716007,12.4 247.444016,12.4 C249.076024,12.4 250.408011,12.9699943 251.440016,14.11 C252.472021,15.2500057 252.772018,16.5759924 252.340016,18.088 L243.664016,18.088 Z M264.472017,21.328 L264.472017,16.684 C264.136015,15.8199957 263.64402,15.1300026 262.996017,14.614 C262.348014,14.0979974 261.628021,13.84 260.836017,13.84 C259.49201,13.84 258.47202,14.3199952 257.776017,15.28 C257.080014,16.2400048 256.732017,17.4759924 256.732017,18.988 C256.732017,20.5240077 257.080014,21.7719952 257.776017,22.732 C258.47202,23.6920048 259.49201,24.172 260.836017,24.172 C261.628021,24.172 262.348014,23.9140026 262.996017,23.398 C263.64402,22.8819974 264.136015,22.1920043 264.472017,21.328 Z M264.472017,14.524 L264.472017,8.656 C264.472017,6.855991 264.298019,5.70400252 263.950017,5.2 C263.602015,4.69599748 262.828023,4.444 261.628017,4.444 L261.628017,3.688 L267.028017,2.788 L267.028017,19.744 C267.028017,21.544009 267.202015,22.6959975 267.550017,23.2 C267.898019,23.7040025 268.672011,23.956 269.872017,23.956 L269.872017,24.712 L265.084017,25.612 C264.916016,25.2519982 264.724018,24.5200055 264.508017,23.416 C263.332011,24.8800073 261.856026,25.612 260.080017,25.612 C258.376008,25.612 256.906023,24.9640065 255.670017,23.668 C254.434011,22.3719935 253.816017,20.8120091 253.816017,18.988 C253.816017,17.1639909 254.434011,15.6100064 255.670017,14.326 C256.906023,13.0419936 258.376008,12.4 260.080017,12.4 C261.856026,12.4 263.320011,13.1079929 264.472017,14.524 Z M286.648019,23.668 C288.136026,23.668 289.276015,23.2240044 290.068019,22.336 C290.860023,21.4479956 291.256019,20.3200068 291.256019,18.952 C291.256019,17.559993 290.860023,16.4140045 290.068019,15.514 C289.276015,14.6139955 288.136026,14.164 286.648019,14.164 L282.292019,14.164 L282.292019,19.492 C282.292019,21.292009 282.490017,22.4379975 282.886019,22.93 C283.282021,23.4220025 284.224012,23.668 285.712019,23.668 L286.648019,23.668 Z M282.292019,4.732 L282.292019,12.832 L285.496019,12.832 C286.792025,12.832 287.776016,12.4540038 288.448019,11.698 C289.120022,10.9419962 289.456019,9.97600588 289.456019,8.8 C289.456019,7.62399412 289.120022,6.65200384 288.448019,5.884 C287.776016,5.11599616 286.792025,4.732 285.496019,4.732 L282.292019,4.732 Z M289.816019,13.264 C291.208026,13.6960022 292.324015,14.4279948 293.164019,15.46 C294.004023,16.4920052 294.424019,17.6559935 294.424019,18.952 C294.424019,20.7040088 293.740026,22.1499943 292.372019,23.29 C291.004012,24.4300057 289.108031,25 286.684019,25 L275.992019,25 L275.992019,24.244 C277.480026,24.244 278.422017,23.9920025 278.818019,23.488 C279.214021,22.9839975 279.412019,21.832009 279.412019,20.032 L279.412019,8.332 C279.412019,6.531991 279.214021,5.38600246 278.818019,4.894 C278.422017,4.40199754 277.480026,4.156 275.992019,4.156 L275.992019,3.4 L285.676019,3.4 C287.88403,3.4 289.594013,3.9099949 290.806019,4.93 C292.018025,5.9500051 292.624019,7.2399922 292.624019,8.8 C292.624019,10.6720094 291.688028,12.1599945 289.816019,13.264 Z M308.46402,14.344 C309.904027,15.6160064 310.62402,17.1639909 310.62402,18.988 C310.62402,20.8120091 309.910027,22.3719935 308.48202,23.668 C307.054013,24.9640065 305.34403,25.612 303.35202,25.612 C301.36001,25.612 299.650027,24.9640065 298.22202,23.668 C296.794013,22.3719935 296.08002,20.8120091 296.08002,18.988 C296.08002,17.1639909 296.794013,15.6100064 298.22202,14.326 C299.650027,13.0419936 301.36001,12.4 303.35202,12.4 C305.34403,12.4 307.048013,13.0479935 308.46402,14.344 Z M306.59202,22.768 C307.336024,21.7839951 307.70802,20.5240077 307.70802,18.988 C307.70802,17.4519923 307.336024,16.1980049 306.59202,15.226 C305.848016,14.2539951 304.768027,13.768 303.35202,13.768 C301.936013,13.768 300.856024,14.2599951 300.11202,15.244 C299.368016,16.2280049 298.99602,17.4759924 298.99602,18.988 C298.99602,20.5000076 299.368016,21.7479951 300.11202,22.732 C300.856024,23.7160049 301.936013,24.208 303.35202,24.208 C304.768027,24.208 305.848016,23.7280048 306.59202,22.768 Z M323.584021,14.632 C323.584021,15.7600056 323.104026,16.324 322.144021,16.324 C321.808019,16.324 321.514022,16.1920013 321.262021,15.928 C321.01002,15.6639987 320.884021,15.3640017 320.884021,15.028 C320.884021,14.235996 320.500025,13.84 319.732021,13.84 C319.180018,13.84 318.580024,14.2239962 317.932021,14.992 C317.284018,15.7600038 316.960021,16.7799936 316.960021,18.052 L316.960021,20.032 C316.960021,21.832009 317.134019,22.9839975 317.482021,23.488 C317.830023,23.9920025 318.604015,24.244 319.804021,24.244 L319.804021,25 L311.560021,25 L311.560021,24.244 C312.760027,24.244 313.534019,23.9920025 313.882021,23.488 C314.230023,22.9839975 314.404021,21.832009 314.404021,20.032 L314.404021,18.232 C314.404021,16.4559911 314.230023,15.3160025 313.882021,14.812 C313.534019,14.3079975 312.760027,14.056 311.560021,14.056 L311.560021,13.3 L316.348021,12.4 C316.564022,12.8560023 316.76802,13.7199936 316.960021,14.992 C317.320023,14.2719964 317.860017,13.6600025 318.580021,13.156 C319.300025,12.6519975 320.020017,12.4 320.740021,12.4 C321.652026,12.4 322.354019,12.6399976 322.846021,13.12 C323.338023,13.6000024 323.584021,14.1039974 323.584021,14.632 Z M336.292022,14.344 C337.732029,15.6160064 338.452022,17.1639909 338.452022,18.988 C338.452022,20.8120091 337.738029,22.3719935 336.310022,23.668 C334.882015,24.9640065 333.172032,25.612 331.180022,25.612 C329.188012,25.612 327.478029,24.9640065 326.050022,23.668 C324.622015,22.3719935 323.908022,20.8120091 323.908022,18.988 C323.908022,17.1639909 324.622015,15.6100064 326.050022,14.326 C327.478029,13.0419936 329.188012,12.4 331.180022,12.4 C333.172032,12.4 334.876015,13.0479935 336.292022,14.344 Z M334.420022,22.768 C335.164026,21.7839951 335.536022,20.5240077 335.536022,18.988 C335.536022,17.4519923 335.164026,16.1980049 334.420022,15.226 C333.676018,14.2539951 332.596029,13.768 331.180022,13.768 C329.764015,13.768 328.684026,14.2599951 327.940022,15.244 C327.196018,16.2280049 326.824022,17.4759924 326.824022,18.988 C326.824022,20.5000076 327.196018,21.7479951 327.940022,22.732 C328.684026,23.7160049 329.764015,24.208 331.180022,24.208 C332.596029,24.208 333.676018,23.7280048 334.420022,22.768 Z M344.788023,14.992 C346.15603,13.2639914 347.824013,12.4 349.792023,12.4 C351.352031,12.4 352.522019,12.8919951 353.302023,13.876 C354.082027,14.8600049 354.472023,16.155992 354.472023,17.764 L354.472023,20.032 C354.472023,21.832009 354.646021,22.9839975 354.994023,23.488 C355.342025,23.9920025 356.116017,24.244 357.316023,24.244 L357.316023,25 L349.072023,25 L349.072023,24.244 C350.248029,24.244 351.016021,23.9860026 351.376023,23.47 C351.736025,22.9539974 351.916023,21.8080089 351.916023,20.032 L351.916023,17.944 C351.916023,15.3759872 350.920033,14.092 348.928023,14.092 C347.896018,14.092 346.948027,14.4519964 346.084023,15.172 C345.220019,15.8920036 344.788023,16.7319952 344.788023,17.692 L344.788023,20.032 C344.788023,21.8800092 344.932022,23.0439976 345.220023,23.524 C345.508024,24.0040024 346.204017,24.244 347.308023,24.244 L347.308023,25 L339.388023,25 L339.388023,24.244 C340.588029,24.244 341.362021,23.9920025 341.710023,23.488 C342.058025,22.9839975 342.232023,21.832009 342.232023,20.032 L342.232023,18.232 C342.232023,16.4559911 342.058025,15.3160025 341.710023,14.812 C341.362021,14.3079975 340.588029,14.056 339.388023,14.056 L339.388023,13.3 L344.176023,12.4 C344.392024,12.8560023 344.596022,13.7199936 344.788023,14.992 Z M368.044025,17.512 L366.316025,21.508 C365.860023,22.4920049 365.842023,23.1939979 366.262025,23.614 C366.682027,24.0340021 367.636018,24.244 369.124025,24.244 L369.124025,25 L360.700025,25 L360.700025,24.244 C361.468029,24.244 362.062023,24.2140003 362.482025,24.154 C362.902027,24.0939997 363.274023,23.9020016 363.598025,23.578 C363.922027,23.2539984 364.150024,22.9600013 364.282025,22.696 C364.414026,22.4319987 364.660023,21.904004 365.020025,21.112 L372.940025,2.788 L373.408025,2.788 L381.364025,21.112 C381.724027,21.904004 381.970024,22.4319987 382.102025,22.696 C382.234026,22.9600013 382.462023,23.2539984 382.786025,23.578 C383.110027,23.9020016 383.476023,24.0939997 383.884025,24.154 C384.292027,24.2140003 384.880021,24.244 385.648025,24.244 L385.648025,25 L375.676025,25 L375.676025,24.244 C377.164032,24.244 378.112023,24.0340021 378.520025,23.614 C378.928027,23.1939979 378.916027,22.4920049 378.484025,21.508 L376.756025,17.512 L368.044025,17.512 Z M376.144025,16.18 L372.364025,7.504 L368.620025,16.18 L376.144025,16.18 Z M390.220026,13.552 C389.260021,13.552 388.444029,14.1039945 387.772026,15.208 C387.100023,16.3120055 386.764026,17.6799918 386.764026,19.312 C386.764026,20.8000074 387.130022,21.9699957 387.862026,22.822 C388.59403,23.6740043 389.680019,24.1 391.120026,24.1 C392.512033,24.1 393.79602,23.5480055 394.972026,22.444 L395.584026,23.236 C394.120019,24.8200079 392.332037,25.612 390.220026,25.612 C388.252016,25.612 386.698032,25.0240059 385.558026,23.848 C384.41802,22.6719941 383.848026,21.1600092 383.848026,19.312 C383.848026,17.31999 384.520019,15.6700065 385.864026,14.362 C387.208033,13.0539935 388.660018,12.4 390.220026,12.4 C391.636033,12.4 392.704022,12.6519975 393.424026,13.156 C394.14403,13.6600025 394.504026,14.2719964 394.504026,14.992 C394.504026,15.3760019 394.378027,15.7299984 394.126026,16.054 C393.874025,16.3780016 393.472029,16.54 392.920026,16.54 C392.536024,16.54 392.206027,16.4020014 391.930026,16.126 C391.654025,15.8499986 391.516026,15.508002 391.516026,15.1 C391.516026,14.0679948 391.08403,13.552 390.220026,13.552 Z M402.208027,13.552 C401.248022,13.552 400.43203,14.1039945 399.760027,15.208 C399.088024,16.3120055 398.752027,17.6799918 398.752027,19.312 C398.752027,20.8000074 399.118023,21.9699957 399.850027,22.822 C400.582031,23.6740043 401.66802,24.1 403.108027,24.1 C404.500034,24.1 405.784021,23.5480055 406.960027,22.444 L407.572027,23.236 C406.10802,24.8200079 404.320038,25.612 402.208027,25.612 C400.240017,25.612 398.686033,25.0240059 397.546027,23.848 C396.406021,22.6719941 395.836027,21.1600092 395.836027,19.312 C395.836027,17.31999 396.50802,15.6700065 397.852027,14.362 C399.196034,13.0539935 400.648019,12.4 402.208027,12.4 C403.624034,12.4 404.692023,12.6519975 405.412027,13.156 C406.132031,13.6600025 406.492027,14.2719964 406.492027,14.992 C406.492027,15.3760019 406.366028,15.7299984 406.114027,16.054 C405.862026,16.3780016 405.46003,16.54 404.908027,16.54 C404.524025,16.54 404.194028,16.4020014 403.918027,16.126 C403.642026,15.8499986 403.504027,15.508002 403.504027,15.1 C403.504027,14.0679948 403.072031,13.552 402.208027,13.552 Z M410.920028,16.756 L416.896028,16.756 C417.136029,16.0839966 417.03403,15.4300032 416.590028,14.794 C416.146026,14.1579968 415.384033,13.84 414.304028,13.84 C413.536024,13.84 412.846031,14.1039974 412.234028,14.632 C411.622025,15.1600026 411.184029,15.8679956 410.920028,16.756 Z M410.704028,18.088 C410.488027,19.8640089 410.770024,21.3099944 411.550028,22.426 C412.330032,23.5420056 413.608019,24.1 415.384028,24.1 C415.984031,24.1 416.668024,23.9440016 417.436028,23.632 C418.204032,23.3199984 418.840025,22.9240024 419.344028,22.444 L419.992028,23.236 C419.344025,23.9320035 418.516033,24.5019978 417.508028,24.946 C416.500023,25.3900022 415.492033,25.612 414.484028,25.612 C412.540018,25.612 410.944034,24.9700064 409.696028,23.686 C408.448022,22.4019936 407.824028,20.8360092 407.824028,18.988 C407.824028,17.1399908 408.502021,15.5800064 409.858028,14.308 C411.214035,13.0359936 412.756019,12.4 414.484028,12.4 C416.116036,12.4 417.448023,12.9699943 418.480028,14.11 C419.512033,15.2500057 419.81203,16.5759924 419.380028,18.088 L410.704028,18.088 Z M431.908029,22.732 C432.604032,21.7479951 432.952029,20.5000076 432.952029,18.988 C432.952029,17.4759924 432.604032,16.2400048 431.908029,15.28 C431.212026,14.3199952 430.204036,13.84 428.884029,13.84 C428.068025,13.84 427.342032,14.0919975 426.706029,14.596 C426.070026,15.1000025 425.572031,15.7839957 425.212029,16.648 L425.212029,21.292 C425.572031,22.1800044 426.070026,22.8819974 426.706029,23.398 C427.342032,23.9140026 428.068025,24.172 428.884029,24.172 C430.204036,24.172 431.212026,23.6920048 431.908029,22.732 Z M425.212029,29.068 C425.212029,30.8440089 425.386027,31.9839975 425.734029,32.488 C426.082031,32.9920025 426.856023,33.244 428.056029,33.244 L428.056029,34 L419.812029,34 L419.812029,33.244 C421.012035,33.244 421.786027,32.9980025 422.134029,32.506 C422.482031,32.0139975 422.656029,30.868009 422.656029,29.068 L422.656029,18.232 C422.656029,16.431991 422.482031,15.2860025 422.134029,14.794 C421.786027,14.3019975 421.012035,14.056 419.812029,14.056 L419.812029,13.3 L424.636029,12.4 C424.78003,12.6640013 424.960028,13.395994 425.176029,14.596 C426.400035,13.1319927 427.88802,12.4 429.640029,12.4 C431.344038,12.4 432.808023,13.0419936 434.032029,14.326 C435.256035,15.6100064 435.868029,17.1639909 435.868029,18.988 C435.868029,20.8120091 435.256035,22.3719935 434.032029,23.668 C432.808023,24.9640065 431.344038,25.612 429.640029,25.612 C427.86402,25.612 426.388035,24.8920072 425.212029,23.452 L425.212029,29.068 Z M438.31603,14.272 L436.44403,14.272 L436.44403,13.408 C437.476035,13.1919989 438.232028,12.7240036 438.71203,12.004 C439.192032,11.2839964 439.504029,10.3000062 439.64803,9.052 L440.87203,9.052 L440.87203,13.012 L444.00403,13.012 L444.00403,14.272 L440.87203,14.272 L440.87203,21.472 C440.87203,23.2000086 441.412025,24.064 442.49203,24.064 C443.188033,24.064 443.968026,23.6560041 444.83203,22.84 L445.44403,23.452 C444.940027,24.052003 444.334034,24.5439981 443.62603,24.928 C442.918026,25.3120019 442.264033,25.504 441.66403,25.504 C440.632025,25.504 439.816033,25.1680034 439.21603,24.496 C438.616027,23.8239966 438.31603,22.8160067 438.31603,21.472 L438.31603,14.272 Z M458.008031,14.344 C459.448038,15.6160064 460.168031,17.1639909 460.168031,18.988 C460.168031,20.8120091 459.454038,22.3719935 458.026031,23.668 C456.598024,24.9640065 454.888041,25.612 452.896031,25.612 C450.904021,25.612 449.194038,24.9640065 447.766031,23.668 C446.338024,22.3719935 445.624031,20.8120091 445.624031,18.988 C445.624031,17.1639909 446.338024,15.6100064 447.766031,14.326 C449.194038,13.0419936 450.904021,12.4 452.896031,12.4 C454.888041,12.4 456.592024,13.0479935 458.008031,14.344 Z M456.136031,22.768 C456.880035,21.7839951 457.252031,20.5240077 457.252031,18.988 C457.252031,17.4519923 456.880035,16.1980049 456.136031,15.226 C455.392027,14.2539951 454.312038,13.768 452.896031,13.768 C451.480024,13.768 450.400035,14.2599951 449.656031,15.244 C448.912027,16.2280049 448.540031,17.4759924 448.540031,18.988 C448.540031,20.5000076 448.912027,21.7479951 449.656031,22.732 C450.400035,23.7160049 451.480024,24.208 452.896031,24.208 C454.312038,24.208 455.392027,23.7280048 456.136031,22.768 Z M473.128032,14.632 C473.128032,15.7600056 472.648037,16.324 471.688032,16.324 C471.35203,16.324 471.058033,16.1920013 470.806032,15.928 C470.554031,15.6639987 470.428032,15.3640017 470.428032,15.028 C470.428032,14.235996 470.044036,13.84 469.276032,13.84 C468.724029,13.84 468.124035,14.2239962 467.476032,14.992 C466.828029,15.7600038 466.504032,16.7799936 466.504032,18.052 L466.504032,20.032 C466.504032,21.832009 466.67803,22.9839975 467.026032,23.488 C467.374034,23.9920025 468.148026,24.244 469.348032,24.244 L469.348032,25 L461.104032,25 L461.104032,24.244 C462.304038,24.244 463.07803,23.9920025 463.426032,23.488 C463.774034,22.9839975 463.948032,21.832009 463.948032,20.032 L463.948032,18.232 C463.948032,16.4559911 463.774034,15.3160025 463.426032,14.812 C463.07803,14.3079975 462.304038,14.056 461.104032,14.056 L461.104032,13.3 L465.892032,12.4 C466.108033,12.8560023 466.312031,13.7199936 466.504032,14.992 C466.864034,14.2719964 467.404028,13.6600025 468.124032,13.156 C468.844036,12.6519975 469.564028,12.4 470.284032,12.4 C471.196037,12.4 471.89803,12.6399976 472.390032,13.12 C472.882034,13.6000024 473.128032,14.1039974 473.128032,14.632 Z M483.928034,17.512 L482.200034,21.508 C481.744032,22.4920049 481.726032,23.1939979 482.146034,23.614 C482.566036,24.0340021 483.520027,24.244 485.008034,24.244 L485.008034,25 L476.584034,25 L476.584034,24.244 C477.352038,24.244 477.946032,24.2140003 478.366034,24.154 C478.786036,24.0939997 479.158032,23.9020016 479.482034,23.578 C479.806036,23.2539984 480.034033,22.9600013 480.166034,22.696 C480.298035,22.4319987 480.544032,21.904004 480.904034,21.112 L488.824034,2.788 L489.292034,2.788 L497.248034,21.112 C497.608036,21.904004 497.854033,22.4319987 497.986034,22.696 C498.118035,22.9600013 498.346032,23.2539984 498.670034,23.578 C498.994036,23.9020016 499.360032,24.0939997 499.768034,24.154 C500.176036,24.2140003 500.76403,24.244 501.532034,24.244 L501.532034,25 L491.560034,25 L491.560034,24.244 C493.048041,24.244 493.996032,24.0340021 494.404034,23.614 C494.812036,23.1939979 494.800036,22.4920049 494.368034,21.508 L492.640034,17.512 L483.928034,17.512 Z M492.028034,16.18 L488.248034,7.504 L484.504034,16.18 L492.028034,16.18 Z M500.884035,14.272 L499.012035,14.272 L499.012035,13.408 C500.04404,13.1919989 500.800033,12.7240036 501.280035,12.004 C501.760037,11.2839964 502.072034,10.3000062 502.216035,9.052 L503.440035,9.052 L503.440035,13.012 L506.572035,13.012 L506.572035,14.272 L503.440035,14.272 L503.440035,21.472 C503.440035,23.2000086 503.98003,24.064 505.060035,24.064 C505.756038,24.064 506.536031,23.6560041 507.400035,22.84 L508.012035,23.452 C507.508032,24.052003 506.902039,24.5439981 506.194035,24.928 C505.486031,25.3120019 504.832038,25.504 504.232035,25.504 C503.20003,25.504 502.384038,25.1680034 501.784035,24.496 C501.184032,23.8239966 500.884035,22.8160067 500.884035,21.472 L500.884035,14.272 Z M520.576036,14.344 C522.016043,15.6160064 522.736036,17.1639909 522.736036,18.988 C522.736036,20.8120091 522.022043,22.3719935 520.594036,23.668 C519.166029,24.9640065 517.456046,25.612 515.464036,25.612 C513.472026,25.612 511.762043,24.9640065 510.334036,23.668 C508.906029,22.3719935 508.192036,20.8120091 508.192036,18.988 C508.192036,17.1639909 508.906029,15.6100064 510.334036,14.326 C511.762043,13.0419936 513.472026,12.4 515.464036,12.4 C517.456046,12.4 519.160029,13.0479935 520.576036,14.344 Z M518.704036,22.768 C519.44804,21.7839951 519.820036,20.5240077 519.820036,18.988 C519.820036,17.4519923 519.44804,16.1980049 518.704036,15.226 C517.960032,14.2539951 516.880043,13.768 515.464036,13.768 C514.048029,13.768 512.96804,14.2599951 512.224036,15.244 C511.480032,16.2280049 511.108036,17.4759924 511.108036,18.988 C511.108036,20.5000076 511.480032,21.7479951 512.224036,22.732 C512.96804,23.7160049 514.048029,24.208 515.464036,24.208 C516.880043,24.208 517.960032,23.7280048 518.704036,22.768 Z M537.892037,17.692 L537.892037,20.032 C537.892037,21.9280095 538.018036,23.1039977 538.270037,23.56 C538.522038,24.0160023 539.152032,24.244 540.160037,24.244 L540.160037,25 L533.104037,25 L533.104037,24.244 C534.112042,24.244 534.742036,24.0160023 534.994037,23.56 C535.246038,23.1039977 535.372037,21.9280095 535.372037,20.032 L535.372037,17.944 C535.372037,15.3759872 534.508046,14.092 532.780037,14.092 C532.036033,14.092 531.232041,14.4399965 530.368037,15.136 C529.504033,15.8320035 529.072037,16.683995 529.072037,17.692 L529.072037,20.032 C529.072037,21.9040094 529.198036,23.0739977 529.450037,23.542 C529.702038,24.0100023 530.320032,24.244 531.304037,24.244 L531.304037,25 L523.672037,25 L523.672037,24.244 C524.872043,24.244 525.646035,23.9920025 525.994037,23.488 C526.342039,22.9839975 526.516037,21.832009 526.516037,20.032 L526.516037,18.232 C526.516037,16.4559911 526.342039,15.3160025 525.994037,14.812 C525.646035,14.3079975 524.872043,14.056 523.672037,14.056 L523.672037,13.3 L528.460037,12.4 C528.676038,12.8560023 528.880036,13.7199936 529.072037,14.992 C530.440044,13.2639914 532.000028,12.4 533.752037,12.4 C535.744047,12.4 537.016034,13.299991 537.568037,15.1 C538.048039,14.4279966 538.762032,13.8100028 539.710037,13.246 C540.658042,12.6819972 541.624032,12.4 542.608037,12.4 C545.368051,12.4 546.748037,14.1879821 546.748037,17.764 L546.748037,20.032 C546.748037,21.832009 546.922035,22.9839975 547.270037,23.488 C547.618039,23.9920025 548.392031,24.244 549.592037,24.244 L549.592037,25 L541.960037,25 L541.960037,24.244 C542.968042,24.244 543.592036,24.0160023 543.832037,23.56 C544.072038,23.1039977 544.192037,21.9280095 544.192037,20.032 L544.192037,17.944 C544.192037,15.3759872 543.340046,14.092 541.636037,14.092 C540.892033,14.092 540.082041,14.4399965 539.206037,15.136 C538.330033,15.8320035 537.892037,16.683995 537.892037,17.692 Z" id="Negatively-Charged-B-Copy" fill="#524740"></path>
                </g>
                <g id="Silicon-Atom">
                    <circle id="Oval-Copy-5" fill="#252525" cx="10" cy="16" r="10"></circle>
                    <path d="M37.996,23.92 C37.4439972,24.3760023 37.0960007,24.9399966 36.952,25.612 L36.232,25.612 L36.232,17.692 L36.988,17.692 C36.988,17.7880005 36.9939999,17.9139992 37.006,18.07 C37.0180001,18.2260008 37.0659996,18.5259978 37.15,18.97 C37.2340004,19.4140022 37.3539992,19.839998 37.51,20.248 C37.6660008,20.656002 37.9119983,21.1119975 38.248,21.616 C38.5840017,22.1200025 38.9739978,22.5519982 39.418,22.912 C39.8620022,23.2720018 40.4499963,23.5719988 41.182,23.812 C41.9140037,24.0520012 42.7239956,24.172 43.612,24.172 C44.9080065,24.172 45.9819957,23.8000037 46.834,23.056 C47.6860043,22.3119963 48.112,21.3640058 48.112,20.212 C48.112,18.7479927 46.7320138,17.2960072 43.972,15.856 L40.516,14.092 C39.3879944,13.491997 38.4400038,12.6760052 37.672,11.644 C36.9039962,10.6119948 36.52,9.44800648 36.52,8.152 C36.52,6.63999244 37.0839944,5.36800516 38.212,4.336 C39.3400056,3.30399484 40.7679914,2.788 42.496,2.788 C44.0800079,2.788 45.5439933,3.27999508 46.888,4.264 C47.4400028,3.80799772 47.7879993,3.25600324 47.932,2.608 L48.652,2.608 L48.652,10.528 L47.896,10.528 C47.5359982,6.327979 45.7000166,4.228 42.388,4.228 C41.379995,4.228 40.5460033,4.53399694 39.886,5.146 C39.2259967,5.75800306 38.896,6.51999544 38.896,7.432 C38.896,8.32000444 39.2139968,9.06999694 39.85,9.682 C40.4860032,10.2940031 41.6319917,11.0319957 43.288,11.896 L46.708,13.66 C49.2280126,14.9320064 50.488,16.7559881 50.488,19.132 C50.488,21.0520096 49.8220067,22.611994 48.49,23.812 C47.1579933,25.012006 45.5320096,25.612 43.612,25.612 C42.7959959,25.612 42.0160037,25.4920012 41.272,25.252 C40.5279963,25.0119988 39.856003,24.7420015 39.256,24.442 C38.655997,24.1419985 38.2360012,23.9680002 37.996,23.92 Z M59.704001,25 L51.460001,25 L51.460001,24.244 C52.660007,24.244 53.4339993,23.9920025 53.782001,23.488 C54.1300027,22.9839975 54.304001,21.832009 54.304001,20.032 L54.304001,18.232 C54.304001,16.4559911 54.1300027,15.3160025 53.782001,14.812 C53.4339993,14.3079975 52.660007,14.056 51.460001,14.056 L51.460001,13.3 L56.860001,12.4 L56.860001,20.032 C56.860001,21.832009 57.0339993,22.9839975 57.382001,23.488 C57.7300027,23.9920025 58.503995,24.244 59.704001,24.244 L59.704001,25 Z M57.148001,7.252 C57.148001,7.70800228 56.9920026,8.09199844 56.680001,8.404 C56.3679994,8.71600156 55.9960032,8.872 55.564001,8.872 C55.1319988,8.872 54.7600026,8.71600156 54.448001,8.404 C54.1359994,8.09199844 53.980001,7.70800228 53.980001,7.252 C53.980001,6.81999784 54.1359994,6.44800156 54.448001,6.136 C54.7600026,5.82399844 55.1319988,5.668 55.564001,5.668 C55.9960032,5.668 56.3679994,5.82399844 56.680001,6.136 C56.9920026,6.44800156 57.148001,6.81999784 57.148001,7.252 Z M67.156002,25 L58.912002,25 L58.912002,24.244 C60.112008,24.244 60.8860003,23.9920025 61.234002,23.488 C61.5820037,22.9839975 61.756002,21.832009 61.756002,20.032 L61.756002,8.656 C61.756002,6.855991 61.5820037,5.70400252 61.234002,5.2 C60.8860003,4.69599748 60.112008,4.444 58.912002,4.444 L58.912002,3.688 L64.312002,2.788 L64.312002,20.032 C64.312002,21.832009 64.4860003,22.9839975 64.834002,23.488 C65.1820037,23.9920025 65.955996,24.244 67.156002,24.244 L67.156002,25 Z M75.328003,25 L67.084003,25 L67.084003,24.244 C68.284009,24.244 69.0580013,23.9920025 69.406003,23.488 C69.7540047,22.9839975 69.928003,21.832009 69.928003,20.032 L69.928003,18.232 C69.928003,16.4559911 69.7540047,15.3160025 69.406003,14.812 C69.0580013,14.3079975 68.284009,14.056 67.084003,14.056 L67.084003,13.3 L72.484003,12.4 L72.484003,20.032 C72.484003,21.832009 72.6580013,22.9839975 73.006003,23.488 C73.3540047,23.9920025 74.127997,24.244 75.328003,24.244 L75.328003,25 Z M72.772003,7.252 C72.772003,7.70800228 72.6160046,8.09199844 72.304003,8.404 C71.9920014,8.71600156 71.6200052,8.872 71.188003,8.872 C70.7560008,8.872 70.3840046,8.71600156 70.072003,8.404 C69.7600014,8.09199844 69.604003,7.70800228 69.604003,7.252 C69.604003,6.81999784 69.7600014,6.44800156 70.072003,6.136 C70.3840046,5.82399844 70.7560008,5.668 71.188003,5.668 C71.6200052,5.668 71.9920014,5.82399844 72.304003,6.136 C72.6160046,6.44800156 72.772003,6.81999784 72.772003,7.252 Z M81.952004,13.552 C80.9919992,13.552 80.1760074,14.1039945 79.504004,15.208 C78.8320006,16.3120055 78.496004,17.6799918 78.496004,19.312 C78.496004,20.8000074 78.8620003,21.9699957 79.594004,22.822 C80.3260077,23.6740043 81.4119968,24.1 82.852004,24.1 C84.244011,24.1 85.5279981,23.5480055 86.704004,22.444 L87.316004,23.236 C85.8519967,24.8200079 84.0640146,25.612 81.952004,25.612 C79.9839942,25.612 78.4300097,25.0240059 77.290004,23.848 C76.1499983,22.6719941 75.580004,21.1600092 75.580004,19.312 C75.580004,17.31999 76.2519973,15.6700065 77.596004,14.362 C78.9400107,13.0539935 80.3919962,12.4 81.952004,12.4 C83.3680111,12.4 84.4360004,12.6519975 85.156004,13.156 C85.8760076,13.6600025 86.236004,14.2719964 86.236004,14.992 C86.236004,15.3760019 86.1100053,15.7299984 85.858004,16.054 C85.6060027,16.3780016 85.2040068,16.54 84.652004,16.54 C84.2680021,16.54 83.9380054,16.4020014 83.662004,16.126 C83.3860026,15.8499986 83.248004,15.508002 83.248004,15.1 C83.248004,14.0679948 82.8160083,13.552 81.952004,13.552 Z M99.952005,14.344 C101.392012,15.6160064 102.112005,17.1639909 102.112005,18.988 C102.112005,20.8120091 101.398012,22.3719935 99.970005,23.668 C98.5419979,24.9640065 96.832015,25.612 94.840005,25.612 C92.847995,25.612 91.1380121,24.9640065 89.710005,23.668 C88.2819979,22.3719935 87.568005,20.8120091 87.568005,18.988 C87.568005,17.1639909 88.2819979,15.6100064 89.710005,14.326 C91.1380121,13.0419936 92.847995,12.4 94.840005,12.4 C96.832015,12.4 98.5359979,13.0479935 99.952005,14.344 Z M98.080005,22.768 C98.8240087,21.7839951 99.196005,20.5240077 99.196005,18.988 C99.196005,17.4519923 98.8240087,16.1980049 98.080005,15.226 C97.3360013,14.2539951 96.2560121,13.768 94.840005,13.768 C93.4239979,13.768 92.3440087,14.2599951 91.600005,15.244 C90.8560013,16.2280049 90.484005,17.4759924 90.484005,18.988 C90.484005,20.5000076 90.8560013,21.7479951 91.600005,22.732 C92.3440087,23.7160049 93.4239979,24.208 94.840005,24.208 C96.2560121,24.208 97.3360013,23.7280048 98.080005,22.768 Z M108.448006,14.992 C109.816013,13.2639914 111.483996,12.4 113.452006,12.4 C115.012014,12.4 116.182002,12.8919951 116.962006,13.876 C117.74201,14.8600049 118.132006,16.155992 118.132006,17.764 L118.132006,20.032 C118.132006,21.832009 118.306004,22.9839975 118.654006,23.488 C119.002008,23.9920025 119.776,24.244 120.976006,24.244 L120.976006,25 L112.732006,25 L112.732006,24.244 C113.908012,24.244 114.676004,23.9860026 115.036006,23.47 C115.396008,22.9539974 115.576006,21.8080089 115.576006,20.032 L115.576006,17.944 C115.576006,15.3759872 114.580016,14.092 112.588006,14.092 C111.556001,14.092 110.60801,14.4519964 109.744006,15.172 C108.880002,15.8920036 108.448006,16.7319952 108.448006,17.692 L108.448006,20.032 C108.448006,21.8800092 108.592005,23.0439976 108.880006,23.524 C109.168007,24.0040024 109.864,24.244 110.968006,24.244 L110.968006,25 L103.048006,25 L103.048006,24.244 C104.248012,24.244 105.022004,23.9920025 105.370006,23.488 C105.718008,22.9839975 105.892006,21.832009 105.892006,20.032 L105.892006,18.232 C105.892006,16.4559911 105.718008,15.3160025 105.370006,14.812 C105.022004,14.3079975 104.248012,14.056 103.048006,14.056 L103.048006,13.3 L107.836006,12.4 C108.052007,12.8560023 108.256005,13.7199936 108.448006,14.992 Z M131.704008,17.512 L129.976008,21.508 C129.520006,22.4920049 129.502006,23.1939979 129.922008,23.614 C130.34201,24.0340021 131.296001,24.244 132.784008,24.244 L132.784008,25 L124.360008,25 L124.360008,24.244 C125.128012,24.244 125.722006,24.2140003 126.142008,24.154 C126.56201,24.0939997 126.934006,23.9020016 127.258008,23.578 C127.58201,23.2539984 127.810007,22.9600013 127.942008,22.696 C128.074009,22.4319987 128.320006,21.904004 128.680008,21.112 L136.600008,2.788 L137.068008,2.788 L145.024008,21.112 C145.38401,21.904004 145.630007,22.4319987 145.762008,22.696 C145.894009,22.9600013 146.122006,23.2539984 146.446008,23.578 C146.77001,23.9020016 147.136006,24.0939997 147.544008,24.154 C147.95201,24.2140003 148.540004,24.244 149.308008,24.244 L149.308008,25 L139.336008,25 L139.336008,24.244 C140.824015,24.244 141.772006,24.0340021 142.180008,23.614 C142.58801,23.1939979 142.57601,22.4920049 142.144008,21.508 L140.416008,17.512 L131.704008,17.512 Z M139.804008,16.18 L136.024008,7.504 L132.280008,16.18 L139.804008,16.18 Z M148.660009,14.272 L146.788009,14.272 L146.788009,13.408 C147.820014,13.1919989 148.576007,12.7240036 149.056009,12.004 C149.536011,11.2839964 149.848008,10.3000062 149.992009,9.052 L151.216009,9.052 L151.216009,13.012 L154.348009,13.012 L154.348009,14.272 L151.216009,14.272 L151.216009,21.472 C151.216009,23.2000086 151.756004,24.064 152.836009,24.064 C153.532012,24.064 154.312005,23.6560041 155.176009,22.84 L155.788009,23.452 C155.284006,24.052003 154.678013,24.5439981 153.970009,24.928 C153.262005,25.3120019 152.608012,25.504 152.008009,25.504 C150.976004,25.504 150.160012,25.1680034 149.560009,24.496 C148.960006,23.8239966 148.660009,22.8160067 148.660009,21.472 L148.660009,14.272 Z M168.35201,14.344 C169.792017,15.6160064 170.51201,17.1639909 170.51201,18.988 C170.51201,20.8120091 169.798017,22.3719935 168.37001,23.668 C166.942003,24.9640065 165.23202,25.612 163.24001,25.612 C161.248,25.612 159.538017,24.9640065 158.11001,23.668 C156.682003,22.3719935 155.96801,20.8120091 155.96801,18.988 C155.96801,17.1639909 156.682003,15.6100064 158.11001,14.326 C159.538017,13.0419936 161.248,12.4 163.24001,12.4 C165.23202,12.4 166.936003,13.0479935 168.35201,14.344 Z M166.48001,22.768 C167.224014,21.7839951 167.59601,20.5240077 167.59601,18.988 C167.59601,17.4519923 167.224014,16.1980049 166.48001,15.226 C165.736006,14.2539951 164.656017,13.768 163.24001,13.768 C161.824003,13.768 160.744014,14.2599951 160.00001,15.244 C159.256006,16.2280049 158.88401,17.4759924 158.88401,18.988 C158.88401,20.5000076 159.256006,21.7479951 160.00001,22.732 C160.744014,23.7160049 161.824003,24.208 163.24001,24.208 C164.656017,24.208 165.736006,23.7280048 166.48001,22.768 Z M185.668011,17.692 L185.668011,20.032 C185.668011,21.9280095 185.79401,23.1039977 186.046011,23.56 C186.298012,24.0160023 186.928006,24.244 187.936011,24.244 L187.936011,25 L180.880011,25 L180.880011,24.244 C181.888016,24.244 182.51801,24.0160023 182.770011,23.56 C183.022012,23.1039977 183.148011,21.9280095 183.148011,20.032 L183.148011,17.944 C183.148011,15.3759872 182.28402,14.092 180.556011,14.092 C179.812007,14.092 179.008015,14.4399965 178.144011,15.136 C177.280007,15.8320035 176.848011,16.683995 176.848011,17.692 L176.848011,20.032 C176.848011,21.9040094 176.97401,23.0739977 177.226011,23.542 C177.478012,24.0100023 178.096006,24.244 179.080011,24.244 L179.080011,25 L171.448011,25 L171.448011,24.244 C172.648017,24.244 173.422009,23.9920025 173.770011,23.488 C174.118013,22.9839975 174.292011,21.832009 174.292011,20.032 L174.292011,18.232 C174.292011,16.4559911 174.118013,15.3160025 173.770011,14.812 C173.422009,14.3079975 172.648017,14.056 171.448011,14.056 L171.448011,13.3 L176.236011,12.4 C176.452012,12.8560023 176.65601,13.7199936 176.848011,14.992 C178.216018,13.2639914 179.776002,12.4 181.528011,12.4 C183.520021,12.4 184.792008,13.299991 185.344011,15.1 C185.824013,14.4279966 186.538006,13.8100028 187.486011,13.246 C188.434016,12.6819972 189.400006,12.4 190.384011,12.4 C193.144025,12.4 194.524011,14.1879821 194.524011,17.764 L194.524011,20.032 C194.524011,21.832009 194.698009,22.9839975 195.046011,23.488 C195.394013,23.9920025 196.168005,24.244 197.368011,24.244 L197.368011,25 L189.736011,25 L189.736011,24.244 C190.744016,24.244 191.36801,24.0160023 191.608011,23.56 C191.848012,23.1039977 191.968011,21.9280095 191.968011,20.032 L191.968011,17.944 C191.968011,15.3759872 191.11602,14.092 189.412011,14.092 C188.668007,14.092 187.858015,14.4399965 186.982011,15.136 C186.106007,15.8320035 185.668011,16.683995 185.668011,17.692 Z" id="Silicon-Atom-Copy" fill="#524740"></path>
                </g>
            </g>
        </g>
        <text id="P-Type-Silicon-Cryst" font-family="Wavehaus-66Book, Wavehaus" font-size="36" font-weight="300" letter-spacing="-2.15999937" fill="#23ABE3">
            <tspan x="13" y="44">P-Type Silicon Crystal Lattice</tspan>
        </text>
        <text id="P-Type-Silicon-Cryst-Copy" font-family="Wavehaus-66Book, Wavehaus" font-size="36" font-weight="300" letter-spacing="-2.15999937" fill="#23ABE3">
            <tspan x="13" y="44">P-Type Silicon Crystal Lattice</tspan>
        </text>
    </g>
</svg>