<?xml version="1.0" encoding="UTF-8"?>
<svg width="900px" height="430px" viewBox="0 0 900 430" version="1.1" xmlns="http://www.w3.org/2000/svg" xmlns:xlink="http://www.w3.org/1999/xlink">
    <!-- Generator: Sketch 52.5 (67469) - http://www.bohemiancoding.com/sketch -->
    <title>P-Type_Silicon_Crystal</title>
    <desc>Created with Sketch.</desc>
    <g id="P-Type_Silicon_Crystal" stroke="none" stroke-width="1" fill="none" fill-rule="evenodd">
        <rect id="Rectangle" fill="#EEEEEE" x="0" y="0" width="900" height="430"></rect>
        <g id="Illustration" transform="translate(202.000000, 61.000000)">
            <g id="Connectors" transform="translate(71.000000, 79.000000)" stroke="#524740" stroke-width="2">
                <path d="M0.576010071,34.4848177 L64,94.0891175" id="Path-4"></path>
                <path d="M6.98835279,165.073915 L64.8529269,132.18612" id="Path-4-Copy-2"></path>
                <path d="M31.5962499,198.487616 L82.1455016,152.235338" id="Path-4-Copy-3"></path>
                <path d="M178.665386,212.173625 L125.187513,152.554371" id="Path-4-Copy-4"></path>
                <path d="M190.995505,30.9978889 L142.066342,88.8923723" id="Path-4-Copy-6"></path>
                <path d="M161.308007,9.59776687 L120.120375,72.3425458" id="Path-4-Copy-7"></path>
                <path d="M204.484611,180.888471 L144.852894,132.07396" id="Path-4-Copy-5"></path>
                <path d="M39.0411794,0.146420176 L85.8642277,70.3959472" id="Path-4-Copy"></path>
            </g>
            <polyline id="Path-5" stroke="#B09679" stroke-width="3" fill="#D8D8D8" points="224 149.057487 276 156.790867 313 156.790867"></polyline>
            <circle id="Oval-Copy-11" fill="#EF7D3B" cx="105" cy="113" r="12"></circle>
            <circle id="Oval-Copy-12" fill="#EF7D3B" cx="127" cy="137" r="12"></circle>
            <circle id="Oval-Copy-13" fill="#EF7D3B" cx="232" cy="120" r="12"></circle>
            <circle id="Oval-Copy-15" stroke="#5AC0EA" stroke-width="3" fill="#EEEEEE" cx="214" cy="143" r="11"></circle>
            <circle id="Oval-Copy-16" fill="#EF7D3B" cx="224" cy="239" r="12"></circle>
            <circle id="Oval-Copy-17" fill="#EF7D3B" cx="245" cy="258" r="12"></circle>
            <circle id="Oval-Copy-18" fill="#EF7D3B" cx="129" cy="233" r="12"></circle>
            <circle id="Oval-Copy-19" fill="#EF7D3B" cx="107" cy="249" r="12"></circle>
            <circle id="Oval-Copy-14" fill="#EF7D3B" cx="190" cy="166" r="12"></circle>
            <circle id="Oval" fill="#252525" cx="57.5" cy="57.5" r="57.5"></circle>
            <circle id="Oval-Copy" fill="#252525" cx="294" cy="304" r="53"></circle>
            <circle id="Oval-Copy-2" fill="#252525" cx="63.5" cy="281.5" r="41.5"></circle>
            <circle id="Oval-Copy-4" fill="#84D0EF" cx="176.5" cy="192.5" r="47.5"></circle>
            <circle id="Oval-Copy-3" fill="#252525" cx="264.5" cy="71.5" r="40.5"></circle>
            <path d="M332.12,147.216 L332.12,160.032 C332.12,161.832009 332.323998,162.983997 332.732,163.488 C333.140002,163.992003 334.087993,164.244 335.576,164.244 L335.576,165 L327.368,165 L327.368,164.244 C328.856007,164.244 329.797998,163.992003 330.194,163.488 C330.590002,162.983997 330.788,161.832009 330.788,160.032 L330.788,148.332 C330.788,146.531991 330.590002,145.386002 330.194,144.894 C329.797998,144.401998 328.856007,144.156 327.368,144.156 L327.368,143.4 L333.488,143.4 L341.12,160.932 L348.716,143.4 L354.368,143.4 L354.368,144.156 C352.855992,144.156 351.902002,144.401998 351.506,144.894 C351.109998,145.386002 350.912,146.531991 350.912,148.332 L350.912,160.032 C350.912,161.856009 351.109998,163.013998 351.506,163.506 C351.902002,163.998002 352.855992,164.244 354.368,164.244 L354.368,165 L344.648,165 L344.648,164.244 C346.136007,164.244 347.077998,163.992003 347.474,163.488 C347.870002,162.983997 348.068,161.832009 348.068,160.032 L348.068,148.296 L340.58,165.612 L340.112,165.612 L332.12,147.216 Z M363.152001,165 L354.908001,165 L354.908001,164.244 C356.108007,164.244 356.881999,163.992003 357.230001,163.488 C357.578003,162.983997 357.752001,161.832009 357.752001,160.032 L357.752001,158.232 C357.752001,156.455991 357.578003,155.316003 357.230001,154.812 C356.881999,154.307997 356.108007,154.056 354.908001,154.056 L354.908001,153.3 L360.308001,152.4 L360.308001,160.032 C360.308001,161.832009 360.481999,162.983997 360.830001,163.488 C361.178003,163.992003 361.951995,164.244 363.152001,164.244 L363.152001,165 Z M360.596001,147.252 C360.596001,147.708002 360.440003,148.091998 360.128001,148.404 C359.816,148.716002 359.444003,148.872 359.012001,148.872 C358.579999,148.872 358.208003,148.716002 357.896001,148.404 C357.584,148.091998 357.428001,147.708002 357.428001,147.252 C357.428001,146.819998 357.584,146.448002 357.896001,146.136 C358.208003,145.823998 358.579999,145.668 359.012001,145.668 C359.444003,145.668 359.816,145.823998 360.128001,146.136 C360.440003,146.448002 360.596001,146.819998 360.596001,147.252 Z M372.296002,161.688 C372.296002,162.840006 371.882006,163.781996 371.054002,164.514 C370.225998,165.246004 369.212008,165.612 368.012002,165.612 C367.58,165.612 367.136004,165.528001 366.680002,165.36 C366.224,165.191999 365.858004,165.030001 365.582002,164.874 C365.306001,164.717999 365.048003,164.598 364.808002,164.514 C364.568001,164.43 364.400003,164.471999 364.304002,164.64 C364.208002,164.808001 364.160002,165.131998 364.160002,165.612 L363.404002,165.612 L363.404002,160.356 L364.160002,160.356 C364.160002,161.292005 364.519999,162.197996 365.240002,163.074 C365.960006,163.950004 366.907996,164.388 368.084002,164.388 C368.660005,164.388 369.146,164.208002 369.542002,163.848 C369.938004,163.487998 370.136002,163.056003 370.136002,162.552 C370.136002,161.807996 369.464009,161.076004 368.120002,160.356 L366.104002,159.276 C364.519994,158.411996 363.728002,157.212008 363.728002,155.676 C363.728002,154.739995 364.093999,153.960003 364.826002,153.336 C365.558006,152.711997 366.403997,152.4 367.364002,152.4 C368.180006,152.4 369.019998,152.615998 369.884002,153.048 C370.172004,153.216001 370.370002,153.27 370.478002,153.21 C370.586003,153.15 370.640002,152.880002 370.640002,152.4 L371.396002,152.4 L371.396002,156.576 L370.640002,156.576 C370.640002,155.783996 370.370005,155.082003 369.830002,154.47 C369.29,153.857997 368.588007,153.552 367.724002,153.552 C367.123999,153.552 366.668004,153.695999 366.356002,153.984 C366.044001,154.272001 365.888002,154.643998 365.888002,155.1 C365.888002,155.508002 366.044001,155.861998 366.356002,156.162 C366.668004,156.462001 367.243998,156.839998 368.084002,157.296 L369.812002,158.232 C371.46801,159.168005 372.296002,160.319993 372.296002,161.688 Z M382.376003,161.688 C382.376003,162.840006 381.962007,163.781996 381.134003,164.514 C380.305999,165.246004 379.292009,165.612 378.092003,165.612 C377.660001,165.612 377.216006,165.528001 376.760003,165.36 C376.304001,165.191999 375.938005,165.030001 375.662003,164.874 C375.386002,164.717999 375.128005,164.598 374.888003,164.514 C374.648002,164.43 374.480004,164.471999 374.384003,164.64 C374.288003,164.808001 374.240003,165.131998 374.240003,165.612 L373.484003,165.612 L373.484003,160.356 L374.240003,160.356 C374.240003,161.292005 374.6,162.197996 375.320003,163.074 C376.040007,163.950004 376.987997,164.388 378.164003,164.388 C378.740006,164.388 379.226001,164.208002 379.622003,163.848 C380.018005,163.487998 380.216003,163.056003 380.216003,162.552 C380.216003,161.807996 379.54401,161.076004 378.200003,160.356 L376.184003,159.276 C374.599995,158.411996 373.808003,157.212008 373.808003,155.676 C373.808003,154.739995 374.174,153.960003 374.906003,153.336 C375.638007,152.711997 376.483999,152.4 377.444003,152.4 C378.260007,152.4 379.099999,152.615998 379.964003,153.048 C380.252005,153.216001 380.450003,153.27 380.558003,153.21 C380.666004,153.15 380.720003,152.880002 380.720003,152.4 L381.476003,152.4 L381.476003,156.576 L380.720003,156.576 C380.720003,155.783996 380.450006,155.082003 379.910003,154.47 C379.370001,153.857997 378.668008,153.552 377.804003,153.552 C377.204,153.552 376.748005,153.695999 376.436003,153.984 C376.124002,154.272001 375.968003,154.643998 375.968003,155.1 C375.968003,155.508002 376.124002,155.861998 376.436003,156.162 C376.748005,156.462001 377.323999,156.839998 378.164003,157.296 L379.892003,158.232 C381.548012,159.168005 382.376003,160.319993 382.376003,161.688 Z M391.448004,165 L383.204004,165 L383.204004,164.244 C384.40401,164.244 385.178003,163.992003 385.526004,163.488 C385.874006,162.983997 386.048004,161.832009 386.048004,160.032 L386.048004,158.232 C386.048004,156.455991 385.874006,155.316003 385.526004,154.812 C385.178003,154.307997 384.40401,154.056 383.204004,154.056 L383.204004,153.3 L388.604004,152.4 L388.604004,160.032 C388.604004,161.832009 388.778003,162.983997 389.126004,163.488 C389.474006,163.992003 390.247998,164.244 391.448004,164.244 L391.448004,165 Z M388.892004,147.252 C388.892004,147.708002 388.736006,148.091998 388.424004,148.404 C388.112003,148.716002 387.740007,148.872 387.308004,148.872 C386.876002,148.872 386.504006,148.716002 386.192004,148.404 C385.880003,148.091998 385.724004,147.708002 385.724004,147.252 C385.724004,146.819998 385.880003,146.448002 386.192004,146.136 C386.504006,145.823998 386.876002,145.668 387.308004,145.668 C387.740007,145.668 388.112003,145.823998 388.424004,146.136 C388.736006,146.448002 388.892004,146.819998 388.892004,147.252 Z M396.740006,154.992 C398.108012,153.263991 399.775996,152.4 401.744006,152.4 C403.304013,152.4 404.474002,152.891995 405.254006,153.876 C406.034009,154.860005 406.424006,156.155992 406.424006,157.764 L406.424006,160.032 C406.424006,161.832009 406.598004,162.983997 406.946006,163.488 C407.294007,163.992003 408.068,164.244 409.268006,164.244 L409.268006,165 L401.024006,165 L401.024006,164.244 C402.200011,164.244 402.968004,163.986003 403.328006,163.47 C403.688007,162.953997 403.868006,161.808009 403.868006,160.032 L403.868006,157.944 C403.868006,155.375987 402.872015,154.092 400.880006,154.092 C399.848,154.092 398.90001,154.451996 398.036006,155.172 C397.172001,155.892004 396.740006,156.731995 396.740006,157.692 L396.740006,160.032 C396.740006,161.880009 396.884004,163.043998 397.172006,163.524 C397.460007,164.004002 398.156,164.244 399.260006,164.244 L399.260006,165 L391.340006,165 L391.340006,164.244 C392.540012,164.244 393.314004,163.992003 393.662006,163.488 C394.010007,162.983997 394.184006,161.832009 394.184006,160.032 L394.184006,158.232 C394.184006,156.455991 394.010007,155.316003 393.662006,154.812 C393.314004,154.307997 392.540012,154.056 391.340006,154.056 L391.340006,153.3 L396.128006,152.4 C396.344007,152.856002 396.548005,153.719994 396.740006,154.992 Z M416.576007,159.996 C417.032009,159.299997 417.260007,158.400006 417.260007,157.296 C417.260007,156.191994 417.038009,155.292003 416.594007,154.596 C416.150004,153.899997 415.508011,153.552 414.668007,153.552 C413.828002,153.552 413.180009,153.899997 412.724007,154.596 C412.268004,155.292003 412.040007,156.191994 412.040007,157.296 C412.040007,158.400006 412.268004,159.293997 412.724007,159.978 C413.180009,160.662003 413.828002,161.004 414.668007,161.004 C415.508011,161.004 416.144004,160.668003 416.576007,159.996 Z M411.320007,163.704 C411.320007,164.424004 412.411996,164.879999 414.596007,165.072 C416.900018,165.264001 418.568001,165.791996 419.600007,166.656 C420.632012,167.520004 421.148007,168.563994 421.148007,169.788 C421.148007,171.252007 420.542013,172.421996 419.330007,173.298 C418.118001,174.174004 416.600016,174.612 414.776007,174.612 C412.831997,174.612 411.266013,174.210004 410.078007,173.406 C408.890001,172.601996 408.344006,171.660005 408.440007,170.58 C408.536007,169.499995 409.303999,168.588004 410.744007,167.844 L411.392007,168.24 C410.696003,169.032004 410.324007,169.757997 410.276007,170.418 C410.228006,171.078003 410.438004,171.599998 410.906007,171.984 C411.374009,172.368002 411.950003,172.667999 412.634007,172.884 C413.31801,173.100001 414.032003,173.208 414.776007,173.208 C415.952013,173.208 416.990002,172.950003 417.890007,172.434 C418.790011,171.917997 419.240007,171.252004 419.240007,170.436 C419.240007,169.643996 418.850011,169.068002 418.070007,168.708 C417.290003,168.347998 416.072015,168.084001 414.416007,167.916 C411.00799,167.579998 409.304007,166.464009 409.304007,164.568 C409.304007,163.271994 410.311997,162.312003 412.328007,161.688 C411.392002,161.255998 410.654009,160.656004 410.114007,159.888 C409.574004,159.119996 409.304007,158.256005 409.304007,157.296 C409.304007,155.951993 409.826001,154.800005 410.870007,153.84 C411.914012,152.879995 413.179999,152.4 414.668007,152.4 C416.108014,152.4 417.344001,152.855995 418.376007,153.768 C418.688008,153.383998 419.114004,153.060001 419.654007,152.796 C420.194009,152.531999 420.668005,152.4 421.076007,152.4 C422.132012,152.4 422.804005,152.843996 423.092007,153.732 C423.308008,154.404003 423.200009,154.907998 422.768007,155.244 C422.624006,155.364001 422.456008,155.424 422.264007,155.424 C421.904005,155.448 421.634008,155.376001 421.454007,155.208 C421.274006,155.039999 421.166007,154.854001 421.130007,154.65 C421.094006,154.445999 420.998007,154.254001 420.842007,154.074 C420.686006,153.893999 420.440008,153.804 420.104007,153.804 C419.744005,153.804 419.372009,153.995998 418.988007,154.38 C419.68401,155.220004 420.032007,156.191994 420.032007,157.296 C420.032007,158.568006 419.564011,159.659995 418.628007,160.572 C417.692002,161.484005 416.600013,162.023999 415.352007,162.192 C412.663993,162.504002 411.320007,163.007997 411.320007,163.704 Z M428.456009,165 L428.456009,164.244 C429.944016,164.244 430.886007,163.992003 431.282009,163.488 C431.678011,162.983997 431.876009,161.832009 431.876009,160.032 L431.876009,148.332 C431.876009,146.531991 431.678011,145.386002 431.282009,144.894 C430.886007,144.401998 429.944016,144.156 428.456009,144.156 L428.456009,143.4 L444.872009,143.4 L445.196009,148.152 L444.440009,148.152 L444.260009,147.432 C443.972007,146.375995 443.588011,145.662002 443.108009,145.29 C442.628006,144.917998 441.620017,144.732 440.084009,144.732 L434.756009,144.732 L434.756009,152.904 L436.556009,152.904 C438.356018,152.904 439.502006,152.706002 439.994009,152.31 C440.486011,151.913998 440.732009,150.960008 440.732009,149.448 L441.488009,149.448 L441.488009,157.692 L440.732009,157.692 C440.732009,156.179992 440.486011,155.226002 439.994009,154.83 C439.502006,154.433998 438.356018,154.236 436.556009,154.236 L434.756009,154.236 L434.756009,159.492 C434.756009,161.292009 434.954007,162.437998 435.350009,162.93 C435.746011,163.422002 436.688001,163.668 438.176009,163.668 L441.272009,163.668 C442.352014,163.668 443.174006,163.560001 443.738009,163.344 C444.302012,163.127999 444.686008,162.852002 444.890009,162.516 C445.09401,162.179998 445.280008,161.652004 445.448009,160.932 L445.628009,160.212 L446.384009,160.212 L446.096009,165 L428.456009,165 Z M454.84401,165 L446.60001,165 L446.60001,164.244 C447.800016,164.244 448.574008,163.992003 448.92201,163.488 C449.270012,162.983997 449.44401,161.832009 449.44401,160.032 L449.44401,148.656 C449.44401,146.855991 449.270012,145.704003 448.92201,145.2 C448.574008,144.695997 447.800016,144.444 446.60001,144.444 L446.60001,143.688 L452.00001,142.788 L452.00001,160.032 C452.00001,161.832009 452.174008,162.983997 452.52201,163.488 C452.870012,163.992003 453.644004,164.244 454.84401,164.244 L454.84401,165 Z M458.228011,156.756 L464.204011,156.756 C464.444012,156.083997 464.342013,155.430003 463.898011,154.794 C463.454009,154.157997 462.692016,153.84 461.612011,153.84 C460.844007,153.84 460.154014,154.103997 459.542011,154.632 C458.930008,155.160003 458.492012,155.867996 458.228011,156.756 Z M458.012011,158.088 C457.79601,159.864009 458.078007,161.309994 458.858011,162.426 C459.638015,163.542006 460.916002,164.1 462.692011,164.1 C463.292014,164.1 463.976007,163.944002 464.744011,163.632 C465.512015,163.319998 466.148009,162.924002 466.652011,162.444 L467.300011,163.236 C466.652008,163.932003 465.824016,164.501998 464.816011,164.946 C463.808006,165.390002 462.800016,165.612 461.792011,165.612 C459.848001,165.612 458.252017,164.970006 457.004011,163.686 C455.756005,162.401994 455.132011,160.836009 455.132011,158.988 C455.132011,157.139991 455.810004,155.580006 457.166011,154.308 C458.522018,153.035994 460.064002,152.4 461.792011,152.4 C463.424019,152.4 464.756006,152.969994 465.788011,154.11 C466.820016,155.250006 467.120013,156.575992 466.688011,158.088 L458.012011,158.088 Z M474.536012,153.552 C473.576007,153.552 472.760016,154.103994 472.088012,155.208 C471.416009,156.312006 471.080012,157.679992 471.080012,159.312 C471.080012,160.800007 471.446009,161.969996 472.178012,162.822 C472.910016,163.674004 473.996005,164.1 475.436012,164.1 C476.828019,164.1 478.112006,163.548006 479.288012,162.444 L479.900012,163.236 C478.436005,164.820008 476.648023,165.612 474.536012,165.612 C472.568002,165.612 471.014018,165.024006 469.874012,163.848 C468.734006,162.671994 468.164012,161.160009 468.164012,159.312 C468.164012,157.31999 468.836005,155.670007 470.180012,154.362 C471.524019,153.053993 472.976004,152.4 474.536012,152.4 C475.952019,152.4 477.020009,152.651997 477.740012,153.156 C478.460016,153.660003 478.820012,154.271996 478.820012,154.992 C478.820012,155.376002 478.694013,155.729998 478.442012,156.054 C478.190011,156.378002 477.788015,156.54 477.236012,156.54 C476.85201,156.54 476.522014,156.402001 476.246012,156.126 C475.970011,155.849999 475.832012,155.508002 475.832012,155.1 C475.832012,154.067995 475.400016,153.552 474.536012,153.552 Z M481.304013,154.272 L479.432013,154.272 L479.432013,153.408 C480.464018,153.191999 481.220011,152.724004 481.700013,152.004 C482.180016,151.283996 482.492013,150.300006 482.636013,149.052 L483.860013,149.052 L483.860013,153.012 L486.992013,153.012 L486.992013,154.272 L483.860013,154.272 L483.860013,161.472 C483.860013,163.200009 484.400008,164.064 485.480013,164.064 C486.176017,164.064 486.956009,163.656004 487.820013,162.84 L488.432013,163.452 C487.928011,164.052003 487.322017,164.543998 486.614013,164.928 C485.90601,165.312002 485.252016,165.504 484.652013,165.504 C483.620008,165.504 482.804016,165.168003 482.204013,164.496 C481.60401,163.823997 481.304013,162.816007 481.304013,161.472 L481.304013,154.272 Z M500.276014,154.632 C500.276014,155.760006 499.796019,156.324 498.836014,156.324 C498.500013,156.324 498.206016,156.192001 497.954014,155.928 C497.702013,155.663999 497.576014,155.364002 497.576014,155.028 C497.576014,154.235996 497.192018,153.84 496.424014,153.84 C495.872012,153.84 495.272018,154.223996 494.624014,154.992 C493.976011,155.760004 493.652014,156.779994 493.652014,158.052 L493.652014,160.032 C493.652014,161.832009 493.826013,162.983997 494.174014,163.488 C494.522016,163.992003 495.296008,164.244 496.496014,164.244 L496.496014,165 L488.252014,165 L488.252014,164.244 C489.45202,164.244 490.226013,163.992003 490.574014,163.488 C490.922016,162.983997 491.096014,161.832009 491.096014,160.032 L491.096014,158.232 C491.096014,156.455991 490.922016,155.316003 490.574014,154.812 C490.226013,154.307997 489.45202,154.056 488.252014,154.056 L488.252014,153.3 L493.040014,152.4 C493.256015,152.856002 493.460013,153.719994 493.652014,154.992 C494.012016,154.271996 494.552011,153.660003 495.272014,153.156 C495.992018,152.651997 496.712011,152.4 497.432014,152.4 C498.344019,152.4 499.046012,152.639998 499.538014,153.12 C500.030017,153.600002 500.276014,154.103997 500.276014,154.632 Z M512.984015,154.344 C514.424023,155.616006 515.144015,157.163991 515.144015,158.988 C515.144015,160.812009 514.430023,162.371994 513.002015,163.668 C511.574008,164.964006 509.864025,165.612 507.872015,165.612 C505.880006,165.612 504.170023,164.964006 502.742015,163.668 C501.314008,162.371994 500.600015,160.812009 500.600015,158.988 C500.600015,157.163991 501.314008,155.610006 502.742015,154.326 C504.170023,153.041994 505.880006,152.4 507.872015,152.4 C509.864025,152.4 511.568008,153.047994 512.984015,154.344 Z M511.112015,162.768 C511.856019,161.783995 512.228015,160.524008 512.228015,158.988 C512.228015,157.451992 511.856019,156.198005 511.112015,155.226 C510.368012,154.253995 509.288023,153.768 507.872015,153.768 C506.456008,153.768 505.376019,154.259995 504.632015,155.244 C503.888012,156.228005 503.516015,157.475992 503.516015,158.988 C503.516015,160.500008 503.888012,161.747995 504.632015,162.732 C505.376019,163.716005 506.456008,164.208 507.872015,164.208 C509.288023,164.208 510.368012,163.728005 511.112015,162.768 Z M521.480017,154.992 C522.848023,153.263991 524.516007,152.4 526.484017,152.4 C528.044024,152.4 529.214013,152.891995 529.994017,153.876 C530.77402,154.860005 531.164017,156.155992 531.164017,157.764 L531.164017,160.032 C531.164017,161.832009 531.338015,162.983997 531.686017,163.488 C532.034018,163.992003 532.808011,164.244 534.008017,164.244 L534.008017,165 L525.764017,165 L525.764017,164.244 C526.940022,164.244 527.708015,163.986003 528.068017,163.47 C528.428018,162.953997 528.608017,161.808009 528.608017,160.032 L528.608017,157.944 C528.608017,155.375987 527.612027,154.092 525.620017,154.092 C524.588011,154.092 523.640021,154.451996 522.776017,155.172 C521.912012,155.892004 521.480017,156.731995 521.480017,157.692 L521.480017,160.032 C521.480017,161.880009 521.624015,163.043998 521.912017,163.524 C522.200018,164.004002 522.896011,164.244 524.000017,164.244 L524.000017,165 L516.080017,165 L516.080017,164.244 C517.280023,164.244 518.054015,163.992003 518.402017,163.488 C518.750018,162.983997 518.924017,161.832009 518.924017,160.032 L518.924017,158.232 C518.924017,156.455991 518.750018,155.316003 518.402017,154.812 C518.054015,154.307997 517.280023,154.056 516.080017,154.056 L516.080017,153.3 L520.868017,152.4 C521.084018,152.856002 521.288016,153.719994 521.480017,154.992 Z" id="Missing-Electron-Copy" fill="#524740"></path>
            <polygon id="--copy" fill="#524740" points="186.501999 192.744 166.057999 192.744 166.057999 188.184 186.501999 188.184"></polygon>
        </g>
        <path d="M15.628,44 L15.628,19.808 L23.836,19.808 C26.5480136,19.808 28.707992,20.4439936 30.316,21.716 C31.924008,22.9880064 32.728,24.5719905 32.728,26.468 C32.728,27.6440059 32.3740035,28.7119952 31.666,29.672 C30.9579965,30.6320048 29.9680064,31.3759974 28.696,31.904 C29.9680064,32.4320026 30.9579965,33.1759952 31.666,34.136 C32.3740035,35.0960048 32.728,36.175994 32.728,37.376 C32.728,39.2720095 31.924008,40.8499937 30.316,42.11 C28.707992,43.3700063 26.5480136,44 23.836,44 L15.628,44 Z M18.004,30.896 L23.836,30.896 C25.7800097,30.896 27.3399941,30.4760042 28.516,29.636 C29.6920059,28.7959958 30.28,27.7520062 30.28,26.504 C30.28,25.2319936 29.6920059,24.1760042 28.516,23.336 C27.3399941,22.4959958 25.7800097,22.076 23.836,22.076 L18.004,22.076 L18.004,30.896 Z M18.004,41.732 L23.836,41.732 C25.7800097,41.732 27.3399941,41.3120042 28.516,40.472 C29.6920059,39.6319958 30.28,38.5760064 30.28,37.304 C30.28,36.0559938 29.6920059,35.0120042 28.516,34.172 C27.3399941,33.3319958 25.7800097,32.912 23.836,32.912 L18.004,32.912 L18.004,41.732 Z M49.6120006,41.552 C47.8119916,43.3760091 45.6280135,44.288 43.0600006,44.288 C40.4919878,44.288 38.3020097,43.3820091 36.4900006,41.57 C34.6779916,39.7579909 33.7720006,37.5680128 33.7720006,35 C33.7720006,32.4319872 34.6779916,30.2420091 36.4900006,28.43 C38.3020097,26.6179909 40.4919878,25.712 43.0600006,25.712 C45.6280135,25.712 47.8179916,26.6179909 49.6300006,28.43 C51.4420097,30.2420091 52.3480006,32.4319872 52.3480006,35 C52.3480006,37.5440127 51.4360097,39.7279909 49.6120006,41.552 Z M43.0960006,42.02 C45.0400103,42.02 46.677994,41.3420068 48.0100006,39.986 C49.3420073,38.6299932 50.0080006,36.9680098 50.0080006,35 C50.0080006,33.0319902 49.3420073,31.3640068 48.0100006,29.996 C46.677994,28.6279932 45.0400103,27.944 43.0960006,27.944 C41.175991,27.944 39.5440073,28.6279932 38.2000006,29.996 C36.8559939,31.3640068 36.1840006,33.0319902 36.1840006,35 C36.1840006,36.9680098 36.8559939,38.6299932 38.2000006,39.986 C39.5440073,41.3420068 41.175991,42.02 43.0960006,42.02 Z M61.8880013,25.712 C63.1600076,25.712 64.323996,26.0239969 65.3800013,26.648 L64.5520013,29.024 C63.5439962,28.2799963 62.5240064,27.908 61.4920013,27.908 C59.9799937,27.908 58.7080064,28.4419947 57.6760013,29.51 C56.6439961,30.5780053 56.1280013,31.8919922 56.1280013,33.452 L56.1280013,44 L53.7520013,44 L53.7520013,26 L56.1280013,26 L56.1280013,28.664 C57.5920086,26.6959902 59.5119894,25.712 61.8880013,25.712 Z M79.7440019,41.552 C77.9439929,43.3760091 75.7600147,44.288 73.1920019,44.288 C70.623989,44.288 68.4340109,43.3820091 66.6220019,41.57 C64.8099928,39.7579909 63.9040019,37.5680128 63.9040019,35 C63.9040019,32.4319872 64.8099928,30.2420091 66.6220019,28.43 C68.4340109,26.6179909 70.623989,25.712 73.1920019,25.712 C75.7600147,25.712 77.9499928,26.6179909 79.7620019,28.43 C81.5740109,30.2420091 82.4800019,32.4319872 82.4800019,35 C82.4800019,37.5440127 81.568011,39.7279909 79.7440019,41.552 Z M73.2280019,42.02 C75.1720116,42.02 76.8099952,41.3420068 78.1420019,39.986 C79.4740085,38.6299932 80.1400019,36.9680098 80.1400019,35 C80.1400019,33.0319902 79.4740085,31.3640068 78.1420019,29.996 C76.8099952,28.6279932 75.1720116,27.944 73.2280019,27.944 C71.3079923,27.944 69.6760086,28.6279932 68.3320019,29.996 C66.9879952,31.3640068 66.3160019,33.0319902 66.3160019,35 C66.3160019,36.9680098 66.9879952,38.6299932 68.3320019,39.986 C69.6760086,41.3420068 71.3079923,42.02 73.2280019,42.02 Z M92.0200025,25.712 C94.108013,25.712 95.8599954,26.4499926 97.2760025,27.926 C98.6920096,29.4020074 99.4000025,31.2199892 99.4000025,33.38 L99.4000025,44 L96.9880025,44 L96.9880025,33.452 C96.9880025,31.9159923 96.4660077,30.6080054 95.4220025,29.528 C94.3779973,28.4479946 93.11201,27.908 91.6240025,27.908 C90.1359951,27.908 88.8700077,28.4479946 87.8260025,29.528 C86.7819973,30.6080054 86.2600025,31.9159923 86.2600025,33.452 L86.2600025,44 L83.8840025,44 L83.8840025,26 L86.2600025,26 L86.2600025,28.664 C87.7240098,26.6959902 89.6439906,25.712 92.0200025,25.712 Z M110.452003,32.984 L100.768003,32.984 L100.768003,30.824 L110.452003,30.824 L110.452003,32.984 Z M112.612004,44 L112.612004,19.808 L118.084004,19.808 C122.068024,19.808 125.235992,20.9599885 127.588004,23.264 C129.940016,25.5680115 131.116004,28.4479827 131.116004,31.904 C131.116004,35.3360172 129.934016,38.2099884 127.570004,40.526 C125.205992,42.8420116 122.044024,44 118.084004,44 L112.612004,44 Z M114.988004,41.732 L118.084004,41.732 C121.25202,41.732 123.783994,40.8020093 125.680004,38.942 C127.576013,37.0819907 128.524004,34.7360142 128.524004,31.904 C128.524004,29.0719858 127.576013,26.7260093 125.680004,24.866 C123.783994,23.0059907 121.25202,22.076 118.084004,22.076 L114.988004,22.076 L114.988004,41.732 Z M147.208004,41.552 C145.407995,43.3760091 143.224017,44.288 140.656004,44.288 C138.087992,44.288 135.898013,43.3820091 134.086004,41.57 C132.273995,39.7579909 131.368004,37.5680128 131.368004,35 C131.368004,32.4319872 132.273995,30.2420091 134.086004,28.43 C135.898013,26.6179909 138.087992,25.712 140.656004,25.712 C143.224017,25.712 145.413995,26.6179909 147.226004,28.43 C149.038013,30.2420091 149.944004,32.4319872 149.944004,35 C149.944004,37.5440127 149.032014,39.7279909 147.208004,41.552 Z M140.692004,42.02 C142.636014,42.02 144.273998,41.3420068 145.606004,39.986 C146.938011,38.6299932 147.604004,36.9680098 147.604004,35 C147.604004,33.0319902 146.938011,31.3640068 145.606004,29.996 C144.273998,28.6279932 142.636014,27.944 140.692004,27.944 C138.771995,27.944 137.140011,28.6279932 135.796004,29.996 C134.451998,31.3640068 133.780004,33.0319902 133.780004,35 C133.780004,36.9680098 134.451998,38.6299932 135.796004,39.986 C137.140011,41.3420068 138.771995,42.02 140.692004,42.02 Z M161.248005,25.676 C163.816018,25.676 166.005996,26.5819909 167.818005,28.394 C169.630014,30.2060091 170.536005,32.3959872 170.536005,34.964 C170.536005,37.5320128 169.630014,39.7219909 167.818005,41.534 C166.005996,43.3460091 163.816018,44.252 161.248005,44.252 C158.367991,44.252 156.016014,43.1600109 154.192005,40.976 L154.192005,52.748 L151.816005,52.748 L151.816005,25.964 L154.192005,25.964 L154.192005,28.916 C156.040014,26.7559892 158.391991,25.676 161.248005,25.676 Z M156.280005,39.968 C157.624012,41.3120067 159.255995,41.984 161.176005,41.984 C163.096015,41.984 164.733998,41.3060068 166.090005,39.95 C167.446012,38.5939932 168.124005,36.9320098 168.124005,34.964 C168.124005,32.9959902 167.446012,31.3280068 166.090005,29.96 C164.733998,28.5919932 163.096015,27.908 161.176005,27.908 C159.255995,27.908 157.624012,28.5919932 156.280005,29.96 C154.935998,31.3280068 154.264005,32.9959902 154.264005,34.964 C154.264005,36.9320098 154.935998,38.5999932 156.280005,39.968 Z M180.292006,41.912 C181.900014,41.912 183.339999,41.4560046 184.612006,40.544 C185.884012,39.6319954 186.748003,38.5640061 187.204006,37.34 L189.220006,38.06 C188.668003,39.5720076 187.594014,40.9639936 185.998006,42.236 C184.401998,43.5080064 182.500017,44.1320001 180.292006,44.108 C178.275996,44.108 176.434014,43.4840062 174.766006,42.236 C173.097997,40.9879938 171.964009,39.3920097 171.364006,37.448 C171.124004,36.655996 171.004006,35.7920047 171.004006,34.856 C171.004006,32.263987 171.903997,30.068009 173.704006,28.268 C175.504015,26.467991 177.699993,25.5560001 180.292006,25.532 C182.644017,25.5560001 184.695997,26.3479922 186.448006,27.908 C188.200014,29.4680078 189.208004,31.3999885 189.472006,33.704 C189.496006,33.8240006 189.508006,33.979999 189.508006,34.172 L173.776006,37.016 C174.184008,38.4560072 175,39.6379954 176.224006,40.562 C177.448012,41.4860046 178.803998,41.9360001 180.292006,41.912 Z M180.076006,27.728 C178.275997,27.7520001 176.734012,28.3999936 175.450006,29.672 C174.165999,30.9440064 173.476006,32.4679911 173.380006,34.244 C173.380006,34.3160004 173.386006,34.4419991 173.398006,34.622 C173.410006,34.8020009 173.416006,34.9519994 173.416006,35.072 L186.808006,32.66 C186.352003,31.1959927 185.500012,30.0020046 184.252006,29.078 C183.003999,28.1539954 181.612013,27.7039999 180.076006,27.728 Z M206.644006,17.216 L209.020006,17.216 L209.020006,44 L206.644006,44 L206.644006,41.084 C204.795997,43.2200107 202.45602,44.288 199.624006,44.288 C197.055993,44.288 194.866015,43.3820091 193.054006,41.57 C191.241997,39.7579909 190.336006,37.5680128 190.336006,35 C190.336006,32.4319872 191.241997,30.2420091 193.054006,28.43 C194.866015,26.6179909 197.055993,25.712 199.624006,25.712 C202.480021,25.712 204.819997,26.7799893 206.644006,28.916 L206.644006,17.216 Z M194.728006,40.004 C196.072013,41.3480067 197.715997,42.02 199.660006,42.02 C201.604016,42.02 203.242,41.3420068 204.574006,39.986 C205.906013,38.6299932 206.572006,36.9680098 206.572006,35 C206.572006,33.0319902 205.906013,31.3700068 204.574006,30.014 C203.242,28.6579932 201.604016,27.98 199.660006,27.98 C197.715997,27.98 196.072013,28.6579932 194.728006,30.014 C193.384,31.3700068 192.712006,33.0319902 192.712006,35 C192.712006,36.9680098 193.384,38.6359932 194.728006,40.004 Z M210.820007,45.728 L212.440007,40.004 L214.888007,40.004 L212.764007,45.728 L210.820007,45.728 Z M224.284008,44 L224.284008,19.808 L232.492008,19.808 C235.204022,19.808 237.364,20.5219929 238.972008,21.95 C240.580016,23.3780071 241.384008,25.1719892 241.384008,27.332 C241.384008,29.4680107 240.580016,31.2559928 238.972008,32.696 C237.364,34.1360072 235.204022,34.856 232.492008,34.856 L226.660008,34.856 L226.660008,44 L224.284008,44 Z M226.660008,32.588 L232.492008,32.588 C234.436018,32.588 235.996002,32.090005 237.172008,31.094 C238.348014,30.097995 238.936008,28.8440076 238.936008,27.332 C238.936008,25.8439926 238.348014,24.596005 237.172008,23.588 C235.996002,22.579995 234.436018,22.076 232.492008,22.076 L226.660008,22.076 L226.660008,32.588 Z M252.508009,32.984 L242.824009,32.984 L242.824009,30.824 L252.508009,30.824 L252.508009,32.984 Z M266.944009,19.808 L266.944009,22.184 L258.340009,22.184 L258.340009,44 L255.964009,44 L255.964009,22.184 L247.360009,22.184 L247.360009,19.808 L266.944009,19.808 Z M275.58401,26 L277.96001,26 L268.13201,51.668 L265.75601,51.668 L269.53601,41.804 L262.87601,26 L265.25201,26 L270.65201,38.852 L275.58401,26 Z M289.012011,25.676 C291.580024,25.676 293.770002,26.5819909 295.582011,28.394 C297.39402,30.2060091 298.300011,32.3959872 298.300011,34.964 C298.300011,37.5320128 297.39402,39.7219909 295.582011,41.534 C293.770002,43.3460091 291.580024,44.252 289.012011,44.252 C286.131996,44.252 283.78002,43.1600109 281.956011,40.976 L281.956011,52.748 L279.580011,52.748 L279.580011,25.964 L281.956011,25.964 L281.956011,28.916 C283.80402,26.7559892 286.155996,25.676 289.012011,25.676 Z M284.044011,39.968 C285.388017,41.3120067 287.020001,41.984 288.940011,41.984 C290.86002,41.984 292.498004,41.3060068 293.854011,39.95 C295.210017,38.5939932 295.888011,36.9320098 295.888011,34.964 C295.888011,32.9959902 295.210017,31.3280068 293.854011,29.96 C292.498004,28.5919932 290.86002,27.908 288.940011,27.908 C287.020001,27.908 285.388017,28.5919932 284.044011,29.96 C282.700004,31.3280068 282.028011,32.9959902 282.028011,34.964 C282.028011,36.9320098 282.700004,38.5999932 284.044011,39.968 Z M308.056011,41.912 C309.664019,41.912 311.104005,41.4560046 312.376011,40.544 C313.648018,39.6319954 314.512009,38.5640061 314.968011,37.34 L316.984011,38.06 C316.432009,39.5720076 315.358019,40.9639936 313.762011,42.236 C312.166003,43.5080064 310.264022,44.1320001 308.056011,44.108 C306.040001,44.108 304.19802,43.4840062 302.530011,42.236 C300.862003,40.9879938 299.728014,39.3920097 299.128011,37.448 C298.88801,36.655996 298.768011,35.7920047 298.768011,34.856 C298.768011,32.263987 299.668002,30.068009 301.468011,28.268 C303.26802,26.467991 305.463998,25.5560001 308.056011,25.532 C310.408023,25.5560001 312.460003,26.3479922 314.212011,27.908 C315.96402,29.4680078 316.97201,31.3999885 317.236011,33.704 C317.260011,33.8240006 317.272011,33.979999 317.272011,34.172 L301.540011,37.016 C301.948013,38.4560072 302.764005,39.6379954 303.988011,40.562 C305.212017,41.4860046 306.568004,41.9360001 308.056011,41.912 Z M307.840011,27.728 C306.040002,27.7520001 304.498018,28.3999936 303.214011,29.672 C301.930005,30.9440064 301.240012,32.4679911 301.144011,34.244 C301.144011,34.3160004 301.150011,34.4419991 301.162011,34.622 C301.174011,34.8020009 301.180011,34.9519994 301.180011,35.072 L314.572011,32.66 C314.116009,31.1959927 313.264018,30.0020046 312.016011,29.078 C310.768005,28.1539954 309.376019,27.7039999 307.840011,27.728 Z M334.300013,44.288 C332.692005,44.288 331.13802,43.8800041 329.638013,43.064 C328.138005,42.2479959 327.004016,41.4320041 326.236013,40.616 L327.892013,38.996 C328.492016,39.6440032 329.380007,40.3099966 330.556013,40.994 C331.732018,41.6780034 332.980006,42.02 334.300013,42.02 C335.908021,42.02 337.174008,41.6660035 338.098013,40.958 C339.022017,40.2499965 339.484013,39.2840061 339.484013,38.06 C339.484013,37.0279948 339.034017,36.1280038 338.134013,35.36 C337.234008,34.5919962 336.142019,33.9440026 334.858013,33.416 C333.574006,32.8879974 332.284019,32.3300029 330.988013,31.742 C329.692006,31.1539971 328.594017,30.356005 327.694013,29.348 C326.794008,28.339995 326.344013,27.1520068 326.344013,25.784 C326.344013,24.0319912 327.004006,22.556006 328.324013,21.356 C329.644019,20.155994 331.492001,19.556 333.868013,19.556 C335.476021,19.556 337.030005,19.9639959 338.530013,20.78 C340.03002,21.5960041 341.164009,22.4119959 341.932013,23.228 L340.276013,24.848 C339.652009,24.1759966 338.752018,23.5040034 337.576013,22.832 C336.400007,22.1599966 335.164019,21.824 333.868013,21.824 C332.260005,21.824 330.994017,22.1779965 330.070013,22.886 C329.146008,23.5940035 328.684013,24.5599939 328.684013,25.784 C328.684013,26.8160052 329.134008,27.7219961 330.034013,28.502 C330.934017,29.2820039 332.026006,29.9359974 333.310013,30.464 C334.594019,30.9920026 335.884006,31.5439971 337.180013,32.12 C338.476019,32.6960029 339.574008,33.487995 340.474013,34.496 C341.374017,35.504005 341.824013,36.6919932 341.824013,38.06 C341.824013,39.8120088 341.164019,41.287994 339.844013,42.488 C338.524006,43.688006 336.676024,44.288 334.300013,44.288 Z M346.648013,20.6 C346.384012,20.8880014 346.048015,21.032 345.640013,21.032 C345.232011,21.032 344.890015,20.8880014 344.614013,20.6 C344.338012,20.3119986 344.200013,19.9760019 344.200013,19.592 C344.200013,19.2079981 344.338012,18.8720014 344.614013,18.584 C344.890015,18.2959986 345.232011,18.152 345.640013,18.152 C346.048015,18.152 346.390012,18.2959986 346.666013,18.584 C346.942015,18.8720014 347.080013,19.2079981 347.080013,19.592 C347.080013,19.9760019 346.936015,20.3119986 346.648013,20.6 Z M344.452013,44 L344.452013,26 L346.828013,26 L346.828013,44 L344.452013,44 Z M350.176014,44 L350.176014,17.216 L352.552014,17.216 L352.552014,44 L350.176014,44 Z M358.096014,20.6 C357.832013,20.8880014 357.496017,21.032 357.088014,21.032 C356.680012,21.032 356.338016,20.8880014 356.062014,20.6 C355.786013,20.3119986 355.648014,19.9760019 355.648014,19.592 C355.648014,19.2079981 355.786013,18.8720014 356.062014,18.584 C356.338016,18.2959986 356.680012,18.152 357.088014,18.152 C357.496017,18.152 357.838013,18.2959986 358.114014,18.584 C358.390016,18.8720014 358.528014,19.2079981 358.528014,19.592 C358.528014,19.9760019 358.384016,20.3119986 358.096014,20.6 Z M355.900014,44 L355.900014,26 L358.276014,26 L358.276014,44 L355.900014,44 Z M369.616015,44.288 C367.048002,44.288 364.858024,43.3820091 363.046015,41.57 C361.234006,39.7579909 360.328015,37.5680128 360.328015,35 C360.328015,32.4319872 361.234006,30.2420091 363.046015,28.43 C364.858024,26.6179909 367.048002,25.712 369.616015,25.712 C371.248023,25.712 372.766008,26.113996 374.170015,26.918 C375.574022,27.722004 376.684011,28.7959933 377.500015,30.14 L375.340015,31.184 C374.692012,30.1999951 373.86402,29.4200029 372.856015,28.844 C371.84801,28.2679971 370.768021,27.98 369.616015,27.98 C367.672005,27.98 366.034022,28.6579932 364.702015,30.014 C363.370008,31.3700068 362.704015,33.0319902 362.704015,35 C362.704015,36.9680098 363.370008,38.6299932 364.702015,39.986 C366.034022,41.3420068 367.672005,42.02 369.616015,42.02 C370.768021,42.02 371.84801,41.7320029 372.856015,41.156 C373.86402,40.5799971 374.692012,39.8000049 375.340015,38.816 L377.500015,39.86 C376.684011,41.2040067 375.574022,42.277996 374.170015,43.082 C372.766008,43.886004 371.248023,44.288 369.616015,44.288 Z M393.736016,41.552 C391.936007,43.3760091 389.752029,44.288 387.184016,44.288 C384.616003,44.288 382.426025,43.3820091 380.614016,41.57 C378.802007,39.7579909 377.896016,37.5680128 377.896016,35 C377.896016,32.4319872 378.802007,30.2420091 380.614016,28.43 C382.426025,26.6179909 384.616003,25.712 387.184016,25.712 C389.752029,25.712 391.942007,26.6179909 393.754016,28.43 C395.566025,30.2420091 396.472016,32.4319872 396.472016,35 C396.472016,37.5440127 395.560025,39.7279909 393.736016,41.552 Z M387.220016,42.02 C389.164025,42.02 390.802009,41.3420068 392.134016,39.986 C393.466022,38.6299932 394.132016,36.9680098 394.132016,35 C394.132016,33.0319902 393.466022,31.3640068 392.134016,29.996 C390.802009,28.6279932 389.164025,27.944 387.220016,27.944 C385.300006,27.944 383.668022,28.6279932 382.324016,29.996 C380.980009,31.3640068 380.308016,33.0319902 380.308016,35 C380.308016,36.9680098 380.980009,38.6299932 382.324016,39.986 C383.668022,41.3420068 385.300006,42.02 387.220016,42.02 Z M406.012016,25.712 C408.100027,25.712 409.852009,26.4499926 411.268016,27.926 C412.684023,29.4020074 413.392016,31.2199892 413.392016,33.38 L413.392016,44 L410.980016,44 L410.980016,33.452 C410.980016,31.9159923 410.458022,30.6080054 409.414016,29.528 C408.370011,28.4479946 407.104024,27.908 405.616016,27.908 C404.128009,27.908 402.862022,28.4479946 401.818016,29.528 C400.774011,30.6080054 400.252016,31.9159923 400.252016,33.452 L400.252016,44 L397.876016,44 L397.876016,26 L400.252016,26 L400.252016,28.664 C401.716024,26.6959902 403.636004,25.712 406.012016,25.712 Z M434.524018,44.288 C430.972,44.288 428.140028,43.1060118 426.028018,40.742 C423.916007,38.3779882 422.860018,35.4440175 422.860018,31.94 C422.860018,28.4119824 423.916007,25.4660118 426.028018,23.102 C428.140028,20.7379882 430.972,19.556 434.524018,19.556 C436.876029,19.556 438.922009,20.0959946 440.662018,21.176 C442.402026,22.2560054 443.752013,23.7319906 444.712018,25.604 L442.480018,26.9 C441.712014,25.3399922 440.638025,24.1040046 439.258018,23.192 C437.878011,22.2799954 436.300027,21.824 434.524018,21.824 C431.788004,21.824 429.598026,22.7779905 427.954018,24.686 C426.310009,26.5940095 425.488018,29.0119854 425.488018,31.94 C425.488018,34.8440145 426.310009,37.2559904 427.954018,39.176 C429.598026,41.0960096 431.788004,42.056 434.524018,42.056 C436.324027,42.056 437.914011,41.5940046 439.294018,40.67 C440.674025,39.7459954 441.736014,38.5040078 442.480018,36.944 L444.712018,38.276 C443.752013,40.1480094 442.402026,41.6179947 440.662018,42.686 C438.922009,43.7540053 436.876029,44.288 434.524018,44.288 Z M454.792018,25.712 C456.064025,25.712 457.228013,26.0239969 458.284018,26.648 L457.456018,29.024 C456.448013,28.2799963 455.428023,27.908 454.396018,27.908 C452.884011,27.908 451.612023,28.4419947 450.580018,29.51 C449.548013,30.5780053 449.032018,31.8919922 449.032018,33.452 L449.032018,44 L446.656018,44 L446.656018,26 L449.032018,26 L449.032018,28.664 C450.496026,26.6959902 452.416006,25.712 454.792018,25.712 Z M471.316019,26 L473.692019,26 L463.864019,51.668 L461.488019,51.668 L465.268019,41.804 L458.608019,26 L460.984019,26 L466.384019,38.852 L471.316019,26 Z M480.38802,44.288 C479.572015,44.288 478.780023,44.186001 478.01202,43.982 C477.244016,43.777999 476.602022,43.5380014 476.08602,43.262 C475.570017,42.9859986 475.108022,42.7040014 474.70002,42.416 C474.292017,42.1279986 473.99202,41.888001 473.80002,41.696 L473.51202,41.372 L475.20402,39.932 C475.37202,40.1000008 475.606018,40.3039988 475.90602,40.544 C476.206021,40.7840012 476.812015,41.107998 477.72402,41.516 C478.636024,41.924002 479.536015,42.128 480.42402,42.128 C481.744026,42.128 482.800016,41.8760025 483.59202,41.372 C484.384023,40.8679975 484.78002,40.1600046 484.78002,39.248 C484.78002,38.5999968 484.384023,38.0420023 483.59202,37.574 C482.800016,37.1059977 481.840025,36.7040017 480.71202,36.368 C479.584014,36.0319983 478.450025,35.660002 477.31002,35.252 C476.170014,34.843998 475.204023,34.2680037 474.41202,33.524 C473.620016,32.7799963 473.22402,31.8680054 473.22402,30.788 C473.22402,29.2999926 473.782014,28.0820047 474.89802,27.134 C476.014025,26.1859953 477.664009,25.712 479.84802,25.712 C481.144026,25.712 482.368014,25.9519976 483.52002,26.432 C484.672025,26.9120024 485.500017,27.3919976 486.00402,27.872 L486.76002,28.592 L485.06802,30.068 C484.900019,29.8999992 484.666021,29.6960012 484.36602,29.456 C484.066018,29.2159988 483.460024,28.892002 482.54802,28.484 C481.636015,28.075998 480.724024,27.872 479.81202,27.872 C478.516013,27.872 477.466024,28.1239975 476.66202,28.628 C475.858015,29.1320025 475.45602,29.8399954 475.45602,30.752 C475.45602,31.4000032 475.852016,31.9579977 476.64402,32.426 C477.436023,32.8940023 478.396014,33.2959983 479.52402,33.632 C480.652025,33.9680017 481.786014,34.333998 482.92602,34.73 C484.066025,35.126002 485.032016,35.7019962 485.82402,36.458 C486.616023,37.2140038 487.01202,38.1319946 487.01202,39.212 C487.01202,40.7240076 486.460025,41.9479953 485.35602,42.884 C484.252014,43.8200047 482.596031,44.288 480.38802,44.288 Z M498.35202,39.968 L499.54002,41.804 C499.396019,41.996001 499.204021,42.2239987 498.96402,42.488 C498.724019,42.7520013 498.184024,43.1179977 497.34402,43.586 C496.504016,44.0540023 495.640025,44.288 494.75202,44.288 C493.240013,44.288 491.974025,43.8380045 490.95402,42.938 C489.934015,42.0379955 489.42402,40.7360085 489.42402,39.032 L489.42402,28.16 L486.54402,28.16 L486.54402,25.964 L489.42402,25.964 L489.42402,20.276 L491.80002,19.988 L491.80002,25.964 L497.23602,25.964 L497.23602,28.16 L491.80002,28.16 L491.80002,38.492 C491.80002,39.5960055 492.142017,40.4719968 492.82602,41.12 C493.510024,41.7680032 494.296016,42.092 495.18402,42.092 C495.736023,42.092 496.276018,41.9240017 496.80402,41.588 C497.332023,41.2519983 497.722019,40.9220016 497.97402,40.598 C498.226021,40.2739984 498.35202,40.0640005 498.35202,39.968 Z M514.876021,26 L517.252021,26 L517.252021,44 L514.876021,44 L514.876021,41.084 C513.028012,43.2200107 510.688035,44.288 507.856021,44.288 C505.288008,44.288 503.09803,43.3820091 501.286021,41.57 C499.474012,39.7579909 498.568021,37.5680128 498.568021,35 C498.568021,32.4319872 499.474012,30.2420091 501.286021,28.43 C503.09803,26.6179909 505.288008,25.712 507.856021,25.712 C510.712035,25.712 513.052012,26.7799893 514.876021,28.916 L514.876021,26 Z M507.892021,42.02 C509.83603,42.02 511.474014,41.3420068 512.806021,39.986 C514.138027,38.6299932 514.804021,36.9680098 514.804021,35 C514.804021,33.0319902 514.138027,31.3700068 512.806021,30.014 C511.474014,28.6579932 509.83603,27.98 507.892021,27.98 C505.972011,27.98 504.334028,28.6579932 502.978021,30.014 C501.622014,31.3700068 500.944021,33.0319902 500.944021,35 C500.944021,36.9680098 501.622014,38.6299932 502.978021,39.986 C504.334028,41.3420068 505.972011,42.02 507.892021,42.02 Z M520.168021,44 L520.168021,17.216 L522.544021,17.216 L522.544021,44 L520.168021,44 Z" id="Boron-Doped,-P-Type-Copy" fill="#23ABE3"></path>
    </g>
</svg>