<?xml version="1.0" encoding="UTF-8"?>
<svg width="900px" height="430px" viewBox="0 0 900 430" version="1.1" xmlns="http://www.w3.org/2000/svg" xmlns:xlink="http://www.w3.org/1999/xlink">
    <!-- Generator: Sketch 52.5 (67469) - http://www.bohemiancoding.com/sketch -->
    <title>P-Type_Silicon_Crystal</title>
    <desc>Created with Sketch.</desc>
    <g id="P-Type_Silicon_Crystal" stroke="none" stroke-width="1" fill="none" fill-rule="evenodd">
        <rect id="Rectangle" stroke="#3D3530" stroke-width="2" fill="#EEEEEE" x="1" y="1" width="898" height="448"></rect>
        <g id="Illustration" transform="translate(202.000000, 15.000000)">
            <g id="Connectors" transform="translate(71.000000, 79.000000)" stroke="#524740" stroke-width="2">
                <path d="M0.576010071,34.4848177 L64,94.0891175" id="Path-4"></path>
                <path d="M6.98835279,165.073915 L64.8529269,132.18612" id="Path-4-Copy-2"></path>
                <path d="M31.5962499,198.487616 L82.1455016,152.235338" id="Path-4-Copy-3"></path>
                <path d="M178.665386,212.173625 L125.187513,152.554371" id="Path-4-Copy-4"></path>
                <path d="M190.995505,30.9978889 L142.066342,88.8923723" id="Path-4-Copy-6"></path>
                <path d="M161.308007,9.59776687 L120.120375,72.3425458" id="Path-4-Copy-7"></path>
                <path d="M204.484611,180.888471 L144.852894,132.07396" id="Path-4-Copy-5"></path>
                <path d="M39.0411794,0.146420176 L85.8642277,70.3959472" id="Path-4-Copy"></path>
            </g>
            <polyline id="Path-5" stroke="#B09679" stroke-width="3" fill="#D8D8D8" points="224 149.057487 276 156.790867 313 156.790867"></polyline>
            <circle id="Oval-Copy-11" fill="#EF7D3B" cx="105" cy="113" r="12"></circle>
            <circle id="Oval-Copy-12" fill="#EF7D3B" cx="127" cy="137" r="12"></circle>
            <circle id="Oval-Copy-13" fill="#EF7D3B" cx="232" cy="120" r="12"></circle>
            <circle id="Oval-Copy-15" stroke="#5AC0EA" stroke-width="3" fill="#EEEEEE" cx="214" cy="143" r="11"></circle>
            <circle id="Oval-Copy-16" fill="#EF7D3B" cx="224" cy="239" r="12"></circle>
            <circle id="Oval-Copy-17" fill="#EF7D3B" cx="245" cy="258" r="12"></circle>
            <circle id="Oval-Copy-18" fill="#EF7D3B" cx="129" cy="233" r="12"></circle>
            <circle id="Oval-Copy-19" fill="#EF7D3B" cx="107" cy="249" r="12"></circle>
            <circle id="Oval-Copy-14" fill="#EF7D3B" cx="190" cy="166" r="12"></circle>
            <circle id="Oval" fill="#252525" cx="57.5" cy="57.5" r="57.5"></circle>
            <circle id="Oval-Copy" fill="#252525" cx="294" cy="304" r="53"></circle>
            <circle id="Oval-Copy-2" fill="#252525" cx="63.5" cy="281.5" r="41.5"></circle>
            <circle id="Oval-Copy-4" fill="#84D0EF" cx="176.5" cy="192.5" r="47.5"></circle>
            <circle id="Oval-Copy-3" fill="#252525" cx="264.5" cy="71.5" r="40.5"></circle>
            <path d="M331.616,150.144 L331.616,158.688 C331.616,159.888006 331.751999,160.655998 332.024,160.992 C332.296001,161.328002 332.927995,161.496 333.92,161.496 L333.92,162 L328.448,162 L328.448,161.496 C329.440005,161.496 330.067999,161.328002 330.332,160.992 C330.596001,160.655998 330.728,159.888006 330.728,158.688 L330.728,150.888 C330.728,149.687994 330.596001,148.924002 330.332,148.596 C330.067999,148.267998 329.440005,148.104 328.448,148.104 L328.448,147.6 L332.528,147.6 L337.616,159.288 L342.68,147.6 L346.448,147.6 L346.448,148.104 C345.439995,148.104 344.804001,148.267998 344.54,148.596 C344.275999,148.924002 344.144,149.687994 344.144,150.888 L344.144,158.688 C344.144,159.904006 344.275999,160.675998 344.54,161.004 C344.804001,161.332002 345.439995,161.496 346.448,161.496 L346.448,162 L339.968,162 L339.968,161.496 C340.960005,161.496 341.587999,161.328002 341.852,160.992 C342.116001,160.655998 342.248,159.888006 342.248,158.688 L342.248,150.864 L337.256,162.408 L336.944,162.408 L331.616,150.144 Z M354.944,162 L349.448,162 L349.448,161.496 C350.248004,161.496 350.763999,161.328002 350.996,160.992 C351.228001,160.655998 351.344,159.888006 351.344,158.688 L351.344,157.488 C351.344,156.303994 351.228001,155.544002 350.996,155.208 C350.763999,154.871998 350.248004,154.704 349.448,154.704 L349.448,154.2 L353.048,153.6 L353.048,158.688 C353.048,159.888006 353.163999,160.655998 353.396,160.992 C353.628001,161.328002 354.143996,161.496 354.944,161.496 L354.944,162 Z M353.24,150.168 C353.24,150.472002 353.136001,150.727999 352.928,150.936 C352.719999,151.144001 352.472001,151.248 352.184,151.248 C351.895999,151.248 351.648001,151.144001 351.44,150.936 C351.231999,150.727999 351.128,150.472002 351.128,150.168 C351.128,149.879999 351.231999,149.632001 351.44,149.424 C351.648001,149.215999 351.895999,149.112 352.184,149.112 C352.472001,149.112 352.719999,149.215999 352.928,149.424 C353.136001,149.632001 353.24,149.879999 353.24,150.168 Z M363.68,159.792 C363.68,160.560004 363.404003,161.187998 362.852,161.676 C362.299997,162.164002 361.624004,162.408 360.824,162.408 C360.535999,162.408 360.240002,162.352001 359.936,162.24 C359.631998,162.127999 359.388001,162.020001 359.204,161.916 C359.019999,161.811999 358.848001,161.732 358.688,161.676 C358.527999,161.62 358.416,161.647999 358.352,161.76 C358.288,161.872001 358.256,162.087998 358.256,162.408 L357.752,162.408 L357.752,158.904 L358.256,158.904 C358.256,159.528003 358.495998,160.131997 358.976,160.716 C359.456002,161.300003 360.087996,161.592 360.872,161.592 C361.256002,161.592 361.579999,161.472001 361.844,161.232 C362.108001,160.991999 362.24,160.704002 362.24,160.368 C362.24,159.871998 361.792004,159.384002 360.896,158.904 L359.552,158.184 C358.495995,157.607997 357.968,156.808005 357.968,155.784 C357.968,155.159997 358.211998,154.640002 358.7,154.224 C359.188002,153.807998 359.751997,153.6 360.392,153.6 C360.936003,153.6 361.495997,153.743999 362.072,154.032 C362.264001,154.144001 362.396,154.18 362.468,154.14 C362.54,154.1 362.576,153.920002 362.576,153.6 L363.08,153.6 L363.08,156.384 L362.576,156.384 C362.576,155.855997 362.396002,155.388002 362.036,154.98 C361.675998,154.571998 361.208003,154.368 360.632,154.368 C360.231998,154.368 359.928001,154.463999 359.72,154.656 C359.511999,154.848001 359.408,155.095998 359.408,155.4 C359.408,155.672001 359.511999,155.907999 359.72,156.108 C359.928001,156.308001 360.311997,156.559998 360.872,156.864 L362.024,157.488 C363.128006,158.112003 363.68,158.879995 363.68,159.792 Z M373.04,159.792 C373.04,160.560004 372.764003,161.187998 372.212,161.676 C371.659997,162.164002 370.984004,162.408 370.184,162.408 C369.895999,162.408 369.600002,162.352001 369.296,162.24 C368.991998,162.127999 368.748001,162.020001 368.564,161.916 C368.379999,161.811999 368.208001,161.732 368.048,161.676 C367.887999,161.62 367.776,161.647999 367.712,161.76 C367.648,161.872001 367.616,162.087998 367.616,162.408 L367.112,162.408 L367.112,158.904 L367.616,158.904 C367.616,159.528003 367.855998,160.131997 368.336,160.716 C368.816002,161.300003 369.447996,161.592 370.232,161.592 C370.616002,161.592 370.939999,161.472001 371.204,161.232 C371.468001,160.991999 371.6,160.704002 371.6,160.368 C371.6,159.871998 371.152004,159.384002 370.256,158.904 L368.912,158.184 C367.855995,157.607997 367.328,156.808005 367.328,155.784 C367.328,155.159997 367.571998,154.640002 368.06,154.224 C368.548002,153.807998 369.111997,153.6 369.752,153.6 C370.296003,153.6 370.855997,153.743999 371.432,154.032 C371.624001,154.144001 371.756,154.18 371.828,154.14 C371.9,154.1 371.936,153.920002 371.936,153.6 L372.44,153.6 L372.44,156.384 L371.936,156.384 C371.936,155.855997 371.756002,155.388002 371.396,154.98 C371.035998,154.571998 370.568003,154.368 369.992,154.368 C369.591998,154.368 369.288001,154.463999 369.08,154.656 C368.871999,154.848001 368.768,155.095998 368.768,155.4 C368.768,155.672001 368.871999,155.907999 369.08,156.108 C369.288001,156.308001 369.671997,156.559998 370.232,156.864 L371.384,157.488 C372.488006,158.112003 373.04,158.879995 373.04,159.792 Z M381.728,162 L376.232,162 L376.232,161.496 C377.032004,161.496 377.547999,161.328002 377.78,160.992 C378.012001,160.655998 378.128,159.888006 378.128,158.688 L378.128,157.488 C378.128,156.303994 378.012001,155.544002 377.78,155.208 C377.547999,154.871998 377.032004,154.704 376.232,154.704 L376.232,154.2 L379.832,153.6 L379.832,158.688 C379.832,159.888006 379.947999,160.655998 380.18,160.992 C380.412001,161.328002 380.927996,161.496 381.728,161.496 L381.728,162 Z M380.024,150.168 C380.024,150.472002 379.920001,150.727999 379.712,150.936 C379.503999,151.144001 379.256001,151.248 378.968,151.248 C378.679999,151.248 378.432001,151.144001 378.224,150.936 C378.015999,150.727999 377.912,150.472002 377.912,150.168 C377.912,149.879999 378.015999,149.632001 378.224,149.424 C378.432001,149.215999 378.679999,149.112 378.968,149.112 C379.256001,149.112 379.503999,149.215999 379.712,149.424 C379.920001,149.632001 380.024,149.879999 380.024,150.168 Z M387.896,155.328 C388.808005,154.175994 389.919993,153.6 391.232,153.6 C392.272005,153.6 393.051997,153.927997 393.572,154.584 C394.092003,155.240003 394.352,156.103995 394.352,157.176 L394.352,158.688 C394.352,159.888006 394.467999,160.655998 394.7,160.992 C394.932001,161.328002 395.447996,161.496 396.248,161.496 L396.248,162 L390.752,162 L390.752,161.496 C391.536004,161.496 392.047999,161.324002 392.288,160.98 C392.528001,160.635998 392.648,159.872006 392.648,158.688 L392.648,157.296 C392.648,155.583991 391.984007,154.728 390.656,154.728 C389.967997,154.728 389.336003,154.967998 388.76,155.448 C388.183997,155.928002 387.896,156.487997 387.896,157.128 L387.896,158.688 C387.896,159.920006 387.991999,160.695998 388.184,161.016 C388.376001,161.336002 388.839996,161.496 389.576,161.496 L389.576,162 L384.296,162 L384.296,161.496 C385.096004,161.496 385.611999,161.328002 385.844,160.992 C386.076001,160.655998 386.192,159.888006 386.192,158.688 L386.192,157.488 C386.192,156.303994 386.076001,155.544002 385.844,155.208 C385.611999,154.871998 385.096004,154.704 384.296,154.704 L384.296,154.2 L387.488,153.6 C387.632001,153.904002 387.767999,154.479996 387.896,155.328 Z M403.76,158.664 C404.064002,158.199998 404.216,157.600004 404.216,156.864 C404.216,156.127996 404.068001,155.528002 403.772,155.064 C403.475999,154.599998 403.048003,154.368 402.488,154.368 C401.927997,154.368 401.496002,154.599998 401.192,155.064 C400.887998,155.528002 400.736,156.127996 400.736,156.864 C400.736,157.600004 400.887998,158.195998 401.192,158.652 C401.496002,159.108002 401.927997,159.336 402.488,159.336 C403.048003,159.336 403.471999,159.112002 403.76,158.664 Z M400.256,161.136 C400.256,161.616002 400.983993,161.919999 402.44,162.048 C403.976008,162.176001 405.087997,162.527997 405.776,163.104 C406.464003,163.680003 406.808,164.375996 406.808,165.192 C406.808,166.168005 406.404004,166.947997 405.596,167.532 C404.787996,168.116003 403.776006,168.408 402.56,168.408 C401.263994,168.408 400.220004,168.140003 399.428,167.604 C398.635996,167.067997 398.272,166.440004 398.336,165.72 C398.4,164.999996 398.911995,164.392002 399.872,163.896 L400.304,164.16 C399.839998,164.688003 399.592,165.171998 399.56,165.612 C399.528,166.052002 399.667998,166.399999 399.98,166.656 C400.292002,166.912001 400.675998,167.111999 401.132,167.256 C401.588002,167.400001 402.063998,167.472 402.56,167.472 C403.344004,167.472 404.035997,167.300002 404.636,166.956 C405.236003,166.611998 405.536,166.168003 405.536,165.624 C405.536,165.095997 405.276003,164.712001 404.756,164.472 C404.235997,164.231999 403.424006,164.056001 402.32,163.944 C400.047989,163.719999 398.912,162.976006 398.912,161.712 C398.912,160.847996 399.583993,160.208002 400.928,159.792 C400.303997,159.503999 399.812002,159.104003 399.452,158.592 C399.091998,158.079997 398.912,157.504003 398.912,156.864 C398.912,155.967996 399.259997,155.200003 399.956,154.56 C400.652003,153.919997 401.495995,153.6 402.488,153.6 C403.448005,153.6 404.271997,153.903997 404.96,154.512 C405.168001,154.255999 405.451998,154.040001 405.812,153.864 C406.172002,153.687999 406.487999,153.6 406.76,153.6 C407.464004,153.6 407.911999,153.895997 408.104,154.488 C408.248001,154.936002 408.176001,155.271999 407.888,155.496 C407.792,155.576 407.680001,155.616 407.552,155.616 C407.311999,155.632 407.132001,155.584001 407.012,155.472 C406.891999,155.359999 406.82,155.236001 406.796,155.1 C406.772,154.963999 406.708001,154.836001 406.604,154.716 C406.499999,154.595999 406.336001,154.536 406.112,154.536 C405.871999,154.536 405.624001,154.663999 405.368,154.92 C405.832002,155.480003 406.064,156.127996 406.064,156.864 C406.064,157.712004 405.752003,158.439997 405.128,159.048 C404.503997,159.656003 403.776004,160.015999 402.944,160.128 C401.151991,160.336001 400.256,160.671998 400.256,161.136 Z M416.96,162 L416.96,161.496 C417.952005,161.496 418.579999,161.328002 418.844,160.992 C419.108001,160.655998 419.24,159.888006 419.24,158.688 L419.24,150.888 C419.24,149.687994 419.108001,148.924002 418.844,148.596 C418.579999,148.267998 417.952005,148.104 416.96,148.104 L416.96,147.6 L427.904,147.6 L428.12,150.768 L427.616,150.768 L427.496,150.288 C427.303999,149.583996 427.048002,149.108001 426.728,148.86 C426.407998,148.611999 425.736005,148.488 424.712,148.488 L421.16,148.488 L421.16,153.936 L422.36,153.936 C423.560006,153.936 424.323998,153.804001 424.652,153.54 C424.980002,153.275999 425.144,152.640005 425.144,151.632 L425.648,151.632 L425.648,157.128 L425.144,157.128 C425.144,156.119995 424.980002,155.484001 424.652,155.22 C424.323998,154.955999 423.560006,154.824 422.36,154.824 L421.16,154.824 L421.16,158.328 C421.16,159.528006 421.291999,160.291998 421.556,160.62 C421.820001,160.948002 422.447995,161.112 423.44,161.112 L425.504,161.112 C426.224004,161.112 426.771998,161.040001 427.148,160.896 C427.524002,160.751999 427.779999,160.568001 427.916,160.344 C428.052001,160.119999 428.175999,159.768002 428.288,159.288 L428.408,158.808 L428.912,158.808 L428.72,162 L416.96,162 Z M437.192,162 L431.696,162 L431.696,161.496 C432.496004,161.496 433.011999,161.328002 433.244,160.992 C433.476001,160.655998 433.592,159.888006 433.592,158.688 L433.592,151.104 C433.592,149.903994 433.476001,149.136002 433.244,148.8 C433.011999,148.463998 432.496004,148.296 431.696,148.296 L431.696,147.792 L435.296,147.192 L435.296,158.688 C435.296,159.888006 435.411999,160.655998 435.644,160.992 C435.876001,161.328002 436.391996,161.496 437.192,161.496 L437.192,162 Z M442.088,156.504 L446.072,156.504 C446.232001,156.055998 446.164001,155.620002 445.868,155.196 C445.571999,154.771998 445.064004,154.56 444.344,154.56 C443.831997,154.56 443.372002,154.735998 442.964,155.088 C442.555998,155.440002 442.264001,155.911997 442.088,156.504 Z M441.944,157.392 C441.799999,158.576006 441.987997,159.539996 442.508,160.284 C443.028003,161.028004 443.879994,161.4 445.064,161.4 C445.464002,161.4 445.919997,161.296001 446.432,161.088 C446.944003,160.879999 447.367998,160.616002 447.704,160.296 L448.136,160.824 C447.703998,161.288002 447.152003,161.667999 446.48,161.964 C445.807997,162.260001 445.136003,162.408 444.464,162.408 C443.167994,162.408 442.104004,161.980004 441.272,161.124 C440.439996,160.267996 440.024,159.224006 440.024,157.992 C440.024,156.759994 440.475995,155.720004 441.38,154.872 C442.284005,154.023996 443.311994,153.6 444.464,153.6 C445.552005,153.6 446.439997,153.979996 447.128,154.74 C447.816003,155.500004 448.016001,156.383995 447.728,157.392 L441.944,157.392 Z M455.6,154.368 C454.959997,154.368 454.416002,154.735996 453.968,155.472 C453.519998,156.208004 453.296,157.119995 453.296,158.208 C453.296,159.200005 453.539998,159.979997 454.028,160.548 C454.516002,161.116003 455.239995,161.4 456.2,161.4 C457.128005,161.4 457.983996,161.032004 458.768,160.296 L459.176,160.824 C458.199995,161.880005 457.008007,162.408 455.6,162.408 C454.287993,162.408 453.252004,162.016004 452.492,161.232 C451.731996,160.447996 451.352,159.440006 451.352,158.208 C451.352,156.879993 451.799996,155.780004 452.696,154.908 C453.592004,154.035996 454.559995,153.6 455.6,153.6 C456.544005,153.6 457.255998,153.767998 457.736,154.104 C458.216002,154.440002 458.456,154.847998 458.456,155.328 C458.456,155.584001 458.372001,155.819999 458.204,156.036 C458.035999,156.252001 457.768002,156.36 457.4,156.36 C457.143999,156.36 456.924001,156.268001 456.74,156.084 C456.555999,155.899999 456.464,155.672001 456.464,155.4 C456.464,154.711997 456.176003,154.368 455.6,154.368 Z M462.752,154.848 L461.504,154.848 L461.504,154.272 C462.192003,154.127999 462.695998,153.816002 463.016,153.336 C463.336002,152.855998 463.544,152.200004 463.64,151.368 L464.456,151.368 L464.456,154.008 L466.544,154.008 L466.544,154.848 L464.456,154.848 L464.456,159.648 C464.456,160.800006 464.815996,161.376 465.536,161.376 C466.000002,161.376 466.519997,161.104003 467.096,160.56 L467.504,160.968 C467.167998,161.368002 466.764002,161.695999 466.292,161.952 C465.819998,162.208001 465.384002,162.336 464.984,162.336 C464.295997,162.336 463.752002,162.112002 463.352,161.664 C462.951998,161.215998 462.752,160.544004 462.752,159.648 L462.752,154.848 Z M478.04,155.088 C478.04,155.840004 477.720003,156.216 477.08,156.216 C476.855999,156.216 476.660001,156.128001 476.492,155.952 C476.323999,155.775999 476.24,155.576001 476.24,155.352 C476.24,154.823997 475.984003,154.56 475.472,154.56 C475.103998,154.56 474.704002,154.815997 474.272,155.328 C473.839998,155.840003 473.624,156.519996 473.624,157.368 L473.624,158.688 C473.624,159.888006 473.739999,160.655998 473.972,160.992 C474.204001,161.328002 474.719996,161.496 475.52,161.496 L475.52,162 L470.024,162 L470.024,161.496 C470.824004,161.496 471.339999,161.328002 471.572,160.992 C471.804001,160.655998 471.92,159.888006 471.92,158.688 L471.92,157.488 C471.92,156.303994 471.804001,155.544002 471.572,155.208 C471.339999,154.871998 470.824004,154.704 470.024,154.704 L470.024,154.2 L473.216,153.6 C473.360001,153.904002 473.495999,154.479996 473.624,155.328 C473.864001,154.847998 474.223998,154.440002 474.704,154.104 C475.184002,153.767998 475.663998,153.6 476.144,153.6 C476.752003,153.6 477.219998,153.759998 477.548,154.08 C477.876002,154.400002 478.04,154.735998 478.04,155.088 Z M489.152,154.896 C490.112005,155.744004 490.592,156.775994 490.592,157.992 C490.592,159.208006 490.116005,160.247996 489.164,161.112 C488.211995,161.976004 487.072007,162.408 485.744,162.408 C484.415993,162.408 483.276005,161.976004 482.324,161.112 C481.371995,160.247996 480.896,159.208006 480.896,157.992 C480.896,156.775994 481.371995,155.740004 482.324,154.884 C483.276005,154.027996 484.415993,153.6 485.744,153.6 C487.072007,153.6 488.207995,154.031996 489.152,154.896 Z M487.904,160.512 C488.400002,159.855997 488.648,159.016005 488.648,157.992 C488.648,156.967995 488.400002,156.132003 487.904,155.484 C487.407998,154.835997 486.688005,154.512 485.744,154.512 C484.799995,154.512 484.080002,154.839997 483.584,155.496 C483.087998,156.152003 482.84,156.983995 482.84,157.992 C482.84,159.000005 483.087998,159.831997 483.584,160.488 C484.080002,161.144003 484.799995,161.472 485.744,161.472 C486.688005,161.472 487.407998,161.152003 487.904,160.512 Z M497.456,155.328 C498.368005,154.175994 499.479993,153.6 500.792,153.6 C501.832005,153.6 502.611997,153.927997 503.132,154.584 C503.652003,155.240003 503.912,156.103995 503.912,157.176 L503.912,158.688 C503.912,159.888006 504.027999,160.655998 504.26,160.992 C504.492001,161.328002 505.007996,161.496 505.808,161.496 L505.808,162 L500.312,162 L500.312,161.496 C501.096004,161.496 501.607999,161.324002 501.848,160.98 C502.088001,160.635998 502.208,159.872006 502.208,158.688 L502.208,157.296 C502.208,155.583991 501.544007,154.728 500.216,154.728 C499.527997,154.728 498.896003,154.967998 498.32,155.448 C497.743997,155.928002 497.456,156.487997 497.456,157.128 L497.456,158.688 C497.456,159.920006 497.551999,160.695998 497.744,161.016 C497.936001,161.336002 498.399996,161.496 499.136,161.496 L499.136,162 L493.856,162 L493.856,161.496 C494.656004,161.496 495.171999,161.328002 495.404,160.992 C495.636001,160.655998 495.752,159.888006 495.752,158.688 L495.752,157.488 C495.752,156.303994 495.636001,155.544002 495.404,155.208 C495.171999,154.871998 494.656004,154.704 493.856,154.704 L493.856,154.2 L497.048,153.6 C497.192001,153.904002 497.327999,154.479996 497.456,155.328 Z" id="Missing-Electron-Copy" fill="#524740"></path>
            <polygon id="--copy" fill="#524740" points="186.501999 192.744 166.057999 192.744 166.057999 188.184 186.501999 188.184"></polygon>
        </g>
        <rect id="Rectangle-Copy" stroke="#3D3530" stroke-width="2" fill="#F8FAE4" x="1" y="386" width="898" height="43"></rect>
        <path d="M470.010666,416 L470.010666,399.872 L475.482666,399.872 C477.290675,399.872 478.730661,400.295996 479.802666,401.144 C480.874671,401.992004 481.410666,403.047994 481.410666,404.312 C481.410666,405.096004 481.174668,405.807997 480.702666,406.448 C480.230664,407.088003 479.57067,407.583998 478.722666,407.936 C479.57067,408.288002 480.230664,408.783997 480.702666,409.424 C481.174668,410.064003 481.410666,410.783996 481.410666,411.584 C481.410666,412.848006 480.874671,413.899996 479.802666,414.74 C478.730661,415.580004 477.290675,416 475.482666,416 L470.010666,416 Z M471.594666,407.264 L475.482666,407.264 C476.778672,407.264 477.818662,406.984003 478.602666,406.424 C479.38667,405.863997 479.778666,405.168004 479.778666,404.336 C479.778666,403.487996 479.38667,402.784003 478.602666,402.224 C477.818662,401.663997 476.778672,401.384 475.482666,401.384 L471.594666,401.384 L471.594666,407.264 Z M471.594666,414.488 L475.482666,414.488 C476.778672,414.488 477.818662,414.208003 478.602666,413.648 C479.38667,413.087997 479.778666,412.384004 479.778666,411.536 C479.778666,410.703996 479.38667,410.008003 478.602666,409.448 C477.818662,408.887997 476.778672,408.608 475.482666,408.608 L471.594666,408.608 L471.594666,414.488 Z M494.773333,414.368 C493.573327,415.584006 492.117341,416.192 490.405333,416.192 C488.693324,416.192 487.233339,415.588006 486.025333,414.38 C484.817327,413.171994 484.213333,411.712009 484.213333,410 C484.213333,408.287991 484.817327,406.828006 486.025333,405.62 C487.233339,404.411994 488.693324,403.808 490.405333,403.808 C492.117341,403.808 493.577327,404.411994 494.785333,405.62 C495.993339,406.828006 496.597333,408.287991 496.597333,410 C496.597333,411.696008 495.989339,413.151994 494.773333,414.368 Z M490.429333,414.68 C491.725339,414.68 492.817328,414.228005 493.705333,413.324 C494.593337,412.419995 495.037333,411.312007 495.037333,410 C495.037333,408.687993 494.593337,407.576005 493.705333,406.664 C492.817328,405.751995 491.725339,405.296 490.429333,405.296 C489.149326,405.296 488.061337,405.751995 487.165333,406.664 C486.269328,407.576005 485.821333,408.687993 485.821333,410 C485.821333,411.312007 486.269328,412.419995 487.165333,413.324 C488.061337,414.228005 489.149326,414.68 490.429333,414.68 Z M505.063999,403.808 C505.912004,403.808 506.687996,404.015998 507.391999,404.432 L506.839999,406.016 C506.167996,405.519998 505.488003,405.272 504.799999,405.272 C503.791994,405.272 502.944003,405.627996 502.255999,406.34 C501.567996,407.052004 501.223999,407.927995 501.223999,408.968 L501.223999,416 L499.639999,416 L499.639999,404 L501.223999,404 L501.223999,405.776 C502.200004,404.463993 503.479991,403.808 505.063999,403.808 Z M519.074666,414.368 C517.87466,415.584006 516.418675,416.192 514.706666,416.192 C512.994657,416.192 511.534672,415.588006 510.326666,414.38 C509.11866,413.171994 508.514666,411.712009 508.514666,410 C508.514666,408.287991 509.11866,406.828006 510.326666,405.62 C511.534672,404.411994 512.994657,403.808 514.706666,403.808 C516.418675,403.808 517.87866,404.411994 519.086666,405.62 C520.294672,406.828006 520.898666,408.287991 520.898666,410 C520.898666,411.696008 520.290672,413.151994 519.074666,414.368 Z M514.730666,414.68 C516.026673,414.68 517.118662,414.228005 518.006666,413.324 C518.89467,412.419995 519.338666,411.312007 519.338666,410 C519.338666,408.687993 518.89467,407.576005 518.006666,406.664 C517.118662,405.751995 516.026673,405.296 514.730666,405.296 C513.45066,405.296 512.362671,405.751995 511.466666,406.664 C510.570662,407.576005 510.122666,408.687993 510.122666,410 C510.122666,411.312007 510.570662,412.419995 511.466666,413.324 C512.362671,414.228005 513.45066,414.68 514.730666,414.68 Z M529.365333,403.808 C530.75734,403.808 531.925328,404.299995 532.869333,405.284 C533.813337,406.268005 534.285333,407.479993 534.285333,408.92 L534.285333,416 L532.677333,416 L532.677333,408.968 C532.677333,407.943995 532.329336,407.072004 531.633333,406.352 C530.937329,405.631996 530.093338,405.272 529.101333,405.272 C528.109328,405.272 527.265336,405.631996 526.569333,406.352 C525.873329,407.072004 525.525333,407.943995 525.525333,408.968 L525.525333,416 L523.941333,416 L523.941333,404 L525.525333,404 L525.525333,405.776 C526.501338,404.463993 527.781325,403.808 529.365333,403.808 Z M543.759999,408.656 L537.303999,408.656 L537.303999,407.216 L543.759999,407.216 L543.759999,408.656 Z M547.306666,416 L547.306666,399.872 L550.954666,399.872 C553.610679,399.872 555.722658,400.639992 557.290666,402.176 C558.858674,403.712008 559.642666,405.631988 559.642666,407.936 C559.642666,410.224011 558.854674,412.139992 557.278666,413.684 C555.702658,415.228008 553.594679,416 550.954666,416 L547.306666,416 Z M548.890666,414.488 L550.954666,414.488 C553.066677,414.488 554.75466,413.868006 556.018666,412.628 C557.282672,411.387994 557.914666,409.824009 557.914666,407.936 C557.914666,406.047991 557.282672,404.484006 556.018666,403.244 C554.75466,402.003994 553.066677,401.384 550.954666,401.384 L548.890666,401.384 L548.890666,414.488 Z M572.477333,414.368 C571.277327,415.584006 569.821341,416.192 568.109333,416.192 C566.397324,416.192 564.937339,415.588006 563.729333,414.38 C562.521327,413.171994 561.917333,411.712009 561.917333,410 C561.917333,408.287991 562.521327,406.828006 563.729333,405.62 C564.937339,404.411994 566.397324,403.808 568.109333,403.808 C569.821341,403.808 571.281327,404.411994 572.489333,405.62 C573.697339,406.828006 574.301333,408.287991 574.301333,410 C574.301333,411.696008 573.693339,413.151994 572.477333,414.368 Z M568.133333,414.68 C569.429339,414.68 570.521328,414.228005 571.409333,413.324 C572.297337,412.419995 572.741333,411.312007 572.741333,410 C572.741333,408.687993 572.297337,407.576005 571.409333,406.664 C570.521328,405.751995 569.429339,405.296 568.133333,405.296 C566.853326,405.296 565.765337,405.751995 564.869333,406.664 C563.973328,407.576005 563.525333,408.687993 563.525333,410 C563.525333,411.312007 563.973328,412.419995 564.869333,413.324 C565.765337,414.228005 566.853326,414.68 568.133333,414.68 Z M583.943999,403.784 C585.656008,403.784 587.115993,404.387994 588.323999,405.596 C589.532006,406.804006 590.135999,408.263991 590.135999,409.976 C590.135999,411.688009 589.532006,413.147994 588.323999,414.356 C587.115993,415.564006 585.656008,416.168 583.943999,416.168 C582.02399,416.168 580.456006,415.440007 579.239999,413.984 L579.239999,421.832 L577.655999,421.832 L577.655999,403.976 L579.239999,403.976 L579.239999,405.944 C580.472006,404.503993 582.03999,403.784 583.943999,403.784 Z M580.631999,413.312 C581.528004,414.208004 582.615993,414.656 583.895999,414.656 C585.176006,414.656 586.267995,414.204005 587.171999,413.3 C588.076004,412.395995 588.527999,411.288007 588.527999,409.976 C588.527999,408.663993 588.076004,407.552005 587.171999,406.64 C586.267995,405.727995 585.176006,405.272 583.895999,405.272 C582.615993,405.272 581.528004,405.727995 580.631999,406.64 C579.735995,407.552005 579.287999,408.663993 579.287999,409.976 C579.287999,411.288007 579.735995,412.399995 580.631999,413.312 Z M598.746666,414.608 C599.818672,414.608 600.778662,414.304003 601.626666,413.696 C602.47467,413.087997 603.050665,412.376004 603.354666,411.56 L604.698666,412.04 C604.330664,413.048005 603.614671,413.975996 602.550666,414.824 C601.486661,415.672004 600.218674,416.088 598.746666,416.072 C597.402659,416.072 596.174672,415.656004 595.062666,414.824 C593.950661,413.991996 593.194668,412.928006 592.794666,411.632 C592.634665,411.103997 592.554666,410.528003 592.554666,409.904 C592.554666,408.175991 593.15466,406.712006 594.354666,405.512 C595.554672,404.311994 597.018658,403.704 598.746666,403.688 C600.314674,403.704 601.68266,404.231995 602.850666,405.272 C604.018672,406.312005 604.690665,407.599992 604.866666,409.136 C604.882666,409.216 604.890666,409.319999 604.890666,409.448 L594.402666,411.344 C594.674668,412.304005 595.218662,413.091997 596.034666,413.708 C596.85067,414.324003 597.754661,414.624 598.746666,414.608 Z M598.602666,405.152 C597.40266,405.168 596.37467,405.599996 595.518666,406.448 C594.662662,407.296004 594.202666,408.311994 594.138666,409.496 C594.138666,409.544 594.142666,409.627999 594.150666,409.748 C594.158666,409.868001 594.162666,409.968 594.162666,410.048 L603.090666,408.44 C602.786665,407.463995 602.21867,406.668003 601.386666,406.052 C600.554662,405.435997 599.626671,405.136 598.602666,405.152 Z M618.421333,398.144 L620.005333,398.144 L620.005333,416 L618.421333,416 L618.421333,414.056 C617.189327,415.480007 615.629342,416.192 613.741333,416.192 C612.029324,416.192 610.569339,415.588006 609.361333,414.38 C608.153327,413.171994 607.549333,411.712009 607.549333,410 C607.549333,408.287991 608.153327,406.828006 609.361333,405.62 C610.569339,404.411994 612.029324,403.808 613.741333,403.808 C615.645342,403.808 617.205327,404.519993 618.421333,405.944 L618.421333,398.144 Z M610.477333,413.336 C611.373337,414.232004 612.469326,414.68 613.765333,414.68 C615.061339,414.68 616.153328,414.228005 617.041333,413.324 C617.929337,412.419995 618.373333,411.312007 618.373333,410 C618.373333,408.687993 617.929337,407.580005 617.041333,406.676 C616.153328,405.771995 615.061339,405.32 613.765333,405.32 C612.469326,405.32 611.373337,405.771995 610.477333,406.676 C609.581328,407.580005 609.133333,408.687993 609.133333,410 C609.133333,411.312007 609.581328,412.423995 610.477333,413.336 Z M623.312,417.152 L624.392,413.336 L626.024,413.336 L624.608,417.152 L623.312,417.152 Z M636.501333,416 L636.501333,399.872 L641.973333,399.872 C643.781342,399.872 645.221328,400.347995 646.293333,401.3 C647.365338,402.252005 647.901333,403.447993 647.901333,404.888 C647.901333,406.312007 647.365338,407.503995 646.293333,408.464 C645.221328,409.424005 643.781342,409.904 641.973333,409.904 L638.085333,409.904 L638.085333,416 L636.501333,416 Z M638.085333,408.392 L641.973333,408.392 C643.269339,408.392 644.309329,408.060003 645.093333,407.396 C645.877337,406.731997 646.269333,405.896005 646.269333,404.888 C646.269333,403.895995 645.877337,403.064003 645.093333,402.392 C644.309329,401.719997 643.269339,401.384 641.973333,401.384 L638.085333,401.384 L638.085333,408.392 Z M657.424,408.656 L650.968,408.656 L650.968,407.216 L657.424,407.216 L657.424,408.656 Z M669.154666,399.872 L669.154666,401.456 L663.418666,401.456 L663.418666,416 L661.834666,416 L661.834666,401.456 L656.098666,401.456 L656.098666,399.872 L669.154666,399.872 Z M677.021333,404 L678.605333,404 L672.053333,421.112 L670.469333,421.112 L672.989333,414.536 L668.549333,404 L670.133333,404 L673.733333,412.568 L677.021333,404 Z M688.08,403.784 C689.792008,403.784 691.251994,404.387994 692.46,405.596 C693.668006,406.804006 694.272,408.263991 694.272,409.976 C694.272,411.688009 693.668006,413.147994 692.46,414.356 C691.251994,415.564006 689.792008,416.168 688.08,416.168 C686.15999,416.168 684.592006,415.440007 683.376,413.984 L683.376,421.832 L681.792,421.832 L681.792,403.976 L683.376,403.976 L683.376,405.944 C684.608006,404.503993 686.17599,403.784 688.08,403.784 Z M684.768,413.312 C685.664004,414.208004 686.751993,414.656 688.032,414.656 C689.312006,414.656 690.403995,414.204005 691.308,413.3 C692.212004,412.395995 692.664,411.288007 692.664,409.976 C692.664,408.663993 692.212004,407.552005 691.308,406.64 C690.403995,405.727995 689.312006,405.272 688.032,405.272 C686.751993,405.272 685.664004,405.727995 684.768,406.64 C683.871995,407.552005 683.424,408.663993 683.424,409.976 C683.424,411.288007 683.871995,412.399995 684.768,413.312 Z M702.882666,414.608 C703.954672,414.608 704.914662,414.304003 705.762666,413.696 C706.610671,413.087997 707.186665,412.376004 707.490666,411.56 L708.834666,412.04 C708.466664,413.048005 707.750672,413.975996 706.686666,414.824 C705.622661,415.672004 704.354674,416.088 702.882666,416.072 C701.53866,416.072 700.310672,415.656004 699.198666,414.824 C698.086661,413.991996 697.330668,412.928006 696.930666,411.632 C696.770666,411.103997 696.690666,410.528003 696.690666,409.904 C696.690666,408.175991 697.29066,406.712006 698.490666,405.512 C699.690672,404.311994 701.154658,403.704 702.882666,403.688 C704.450674,403.704 705.81866,404.231995 706.986666,405.272 C708.154672,406.312005 708.826665,407.599992 709.002666,409.136 C709.018666,409.216 709.026666,409.319999 709.026666,409.448 L698.538666,411.344 C698.810668,412.304005 699.354662,413.091997 700.170666,413.708 C700.98667,414.324003 701.890661,414.624 702.882666,414.608 Z M702.738666,405.152 C701.53866,405.168 700.510671,405.599996 699.654666,406.448 C698.798662,407.296004 698.338667,408.311994 698.274666,409.496 C698.274666,409.544 698.278666,409.627999 698.286666,409.748 C698.294666,409.868001 698.298666,409.968 698.298666,410.048 L707.226666,408.44 C706.922665,407.463995 706.35467,406.668003 705.522666,406.052 C704.690662,405.435997 703.762671,405.136 702.738666,405.152 Z M724.592,416.192 C723.519994,416.192 722.484005,415.920003 721.484,415.376 C720.483995,414.831997 719.728002,414.288003 719.216,413.744 L720.32,412.664 C720.720002,413.096002 721.311996,413.539998 722.096,413.996 C722.880004,414.452002 723.711995,414.68 724.592,414.68 C725.664005,414.68 726.507997,414.444002 727.124,413.972 C727.740003,413.499998 728.048,412.856004 728.048,412.04 C728.048,411.351997 727.748003,410.752003 727.148,410.24 C726.547997,409.727997 725.820004,409.296002 724.964,408.944 C724.107995,408.591998 723.248004,408.220002 722.384,407.828 C721.519995,407.435998 720.788003,406.904003 720.188,406.232 C719.587997,405.559997 719.288,404.768005 719.288,403.856 C719.288,402.687994 719.727995,401.704004 720.608,400.904 C721.488004,400.103996 722.719992,399.704 724.304,399.704 C725.376005,399.704 726.411995,399.975997 727.412,400.52 C728.412005,401.064003 729.167997,401.607997 729.68,402.152 L728.576,403.232 C728.159998,402.783998 727.560004,402.336002 726.776,401.888 C725.991996,401.439998 725.168004,401.216 724.304,401.216 C723.231994,401.216 722.388003,401.451998 721.772,401.924 C721.155997,402.396002 720.848,403.039996 720.848,403.856 C720.848,404.544003 721.147997,405.147997 721.748,405.668 C722.348003,406.188003 723.075995,406.623998 723.932,406.976 C724.788004,407.328002 725.647995,407.695998 726.512,408.08 C727.376004,408.464002 728.107997,408.991997 728.708,409.664 C729.308003,410.336003 729.608,411.127995 729.608,412.04 C729.608,413.208006 729.168004,414.191996 728.288,414.992 C727.407995,415.792004 726.176008,416.192 724.592,416.192 Z M734.930666,400.4 C734.754666,400.592001 734.530668,400.688 734.258666,400.688 C733.986665,400.688 733.758667,400.592001 733.574666,400.4 C733.390665,400.207999 733.298666,399.984001 733.298666,399.728 C733.298666,399.471999 733.390665,399.248001 733.574666,399.056 C733.758667,398.863999 733.986665,398.768 734.258666,398.768 C734.530668,398.768 734.758665,398.863999 734.942666,399.056 C735.126667,399.248001 735.218666,399.471999 735.218666,399.728 C735.218666,399.984001 735.122667,400.207999 734.930666,400.4 Z M733.466666,416 L733.466666,404 L735.050666,404 L735.050666,416 L733.466666,416 Z M739.389333,416 L739.389333,398.144 L740.973333,398.144 L740.973333,416 L739.389333,416 Z M746.776,400.4 C746.599999,400.592001 746.376001,400.688 746.104,400.688 C745.831998,400.688 745.604001,400.592001 745.42,400.4 C745.235999,400.207999 745.144,399.984001 745.144,399.728 C745.144,399.471999 745.235999,399.248001 745.42,399.056 C745.604001,398.863999 745.831998,398.768 746.104,398.768 C746.376001,398.768 746.603999,398.863999 746.788,399.056 C746.972001,399.248001 747.064,399.471999 747.064,399.728 C747.064,399.984001 746.968001,400.207999 746.776,400.4 Z M745.312,416 L745.312,404 L746.896,404 L746.896,416 L745.312,416 Z M756.562666,416.192 C754.850658,416.192 753.390672,415.588006 752.182666,414.38 C750.97466,413.171994 750.370666,411.712009 750.370666,410 C750.370666,408.287991 750.97466,406.828006 752.182666,405.62 C753.390672,404.411994 754.850658,403.808 756.562666,403.808 C757.650672,403.808 758.662662,404.075997 759.598666,404.612 C760.534671,405.148003 761.274664,405.863996 761.818666,406.76 L760.378666,407.456 C759.946664,406.799997 759.39467,406.280002 758.722666,405.896 C758.050663,405.511998 757.33067,405.32 756.562666,405.32 C755.26666,405.32 754.174671,405.771995 753.286666,406.676 C752.398662,407.580005 751.954666,408.687993 751.954666,410 C751.954666,411.312007 752.398662,412.419995 753.286666,413.324 C754.174671,414.228005 755.26666,414.68 756.562666,414.68 C757.33067,414.68 758.050663,414.488002 758.722666,414.104 C759.39467,413.719998 759.946664,413.200003 760.378666,412.544 L761.818666,413.24 C761.274664,414.136004 760.534671,414.851997 759.598666,415.388 C758.662662,415.924003 757.650672,416.192 756.562666,416.192 Z M774.749333,414.368 C773.549327,415.584006 772.093342,416.192 770.381333,416.192 C768.669325,416.192 767.209339,415.588006 766.001333,414.38 C764.793327,413.171994 764.189333,411.712009 764.189333,410 C764.189333,408.287991 764.793327,406.828006 766.001333,405.62 C767.209339,404.411994 768.669325,403.808 770.381333,403.808 C772.093342,403.808 773.553327,404.411994 774.761333,405.62 C775.969339,406.828006 776.573333,408.287991 776.573333,410 C776.573333,411.696008 775.965339,413.151994 774.749333,414.368 Z M770.405333,414.68 C771.70134,414.68 772.793329,414.228005 773.681333,413.324 C774.569338,412.419995 775.013333,411.312007 775.013333,410 C775.013333,408.687993 774.569338,407.576005 773.681333,406.664 C772.793329,405.751995 771.70134,405.296 770.405333,405.296 C769.125327,405.296 768.037338,405.751995 767.141333,406.664 C766.245329,407.576005 765.797333,408.687993 765.797333,410 C765.797333,411.312007 766.245329,412.419995 767.141333,413.324 C768.037338,414.228005 769.125327,414.68 770.405333,414.68 Z M785.04,403.808 C786.432007,403.808 787.599995,404.299995 788.544,405.284 C789.488005,406.268005 789.96,407.479993 789.96,408.92 L789.96,416 L788.352,416 L788.352,408.968 C788.352,407.943995 788.004003,407.072004 787.308,406.352 C786.611996,405.631996 785.768005,405.272 784.776,405.272 C783.783995,405.272 782.940003,405.631996 782.244,406.352 C781.547996,407.072004 781.2,407.943995 781.2,408.968 L781.2,416 L779.616,416 L779.616,404 L781.2,404 L781.2,405.776 C782.176005,404.463993 783.455992,403.808 785.04,403.808 Z M808.261333,416.192 C805.893321,416.192 804.00534,415.404008 802.597333,413.828 C801.189326,412.251992 800.485333,410.296012 800.485333,407.96 C800.485333,405.607988 801.189326,403.644008 802.597333,402.068 C804.00534,400.491992 805.893321,399.704 808.261333,399.704 C809.829341,399.704 811.193327,400.063996 812.353333,400.784 C813.513339,401.504004 814.41333,402.487994 815.053333,403.736 L813.565333,404.6 C813.053331,403.559995 812.337338,402.736003 811.417333,402.128 C810.497329,401.519997 809.445339,401.216 808.261333,401.216 C806.437324,401.216 804.977339,401.851994 803.881333,403.124 C802.785328,404.396006 802.237333,406.00799 802.237333,407.96 C802.237333,409.89601 802.785328,411.503994 803.881333,412.784 C804.977339,414.064006 806.437324,414.704 808.261333,414.704 C809.461339,414.704 810.521329,414.396003 811.441333,413.78 C812.361338,413.163997 813.069331,412.336005 813.565333,411.296 L815.053333,412.184 C814.41333,413.432006 813.513339,414.411996 812.353333,415.124 C811.193327,415.836004 809.829341,416.192 808.261333,416.192 Z M823.88,403.808 C824.728004,403.808 825.503996,404.015998 826.208,404.432 L825.656,406.016 C824.983997,405.519998 824.304003,405.272 823.616,405.272 C822.607995,405.272 821.760003,405.627996 821.072,406.34 C820.383996,407.052004 820.04,407.927995 820.04,408.968 L820.04,416 L818.456,416 L818.456,404 L820.04,404 L820.04,405.776 C821.016005,404.463993 822.295992,403.808 823.88,403.808 Z M837.002667,404 L838.586667,404 L832.034667,421.112 L830.450667,421.112 L832.970667,414.536 L828.530667,404 L830.114667,404 L833.714667,412.568 L837.002667,404 Z M845.157333,416.192 C844.613331,416.192 844.085336,416.124001 843.573333,415.988 C843.061331,415.851999 842.633335,415.692001 842.289333,415.508 C841.945332,415.323999 841.637335,415.136001 841.365333,414.944 C841.093332,414.751999 840.893334,414.592001 840.765333,414.464 L840.573333,414.248 L841.701333,413.288 C841.813334,413.400001 841.969332,413.535999 842.169333,413.696 C842.369334,413.856001 842.77333,414.071999 843.381333,414.344 C843.989336,414.616001 844.58933,414.752 845.181333,414.752 C846.061338,414.752 846.765331,414.584002 847.293333,414.248 C847.821336,413.911998 848.085333,413.440003 848.085333,412.832 C848.085333,412.399998 847.821336,412.028002 847.293333,411.716 C846.765331,411.403998 846.125337,411.136001 845.373333,410.912 C844.621329,410.687999 843.865337,410.440001 843.105333,410.168 C842.345329,409.895999 841.701336,409.512002 841.173333,409.016 C840.645331,408.519998 840.381333,407.912004 840.381333,407.192 C840.381333,406.199995 840.75333,405.388003 841.497333,404.756 C842.241337,404.123997 843.341326,403.808 844.797333,403.808 C845.661338,403.808 846.477329,403.967998 847.245333,404.288 C848.013337,404.608002 848.565332,404.927998 848.901333,405.248 L849.405333,405.728 L848.277333,406.712 C848.165333,406.599999 848.009334,406.464001 847.809333,406.304 C847.609332,406.143999 847.205336,405.928001 846.597333,405.656 C845.98933,405.383999 845.381336,405.248 844.773333,405.248 C843.909329,405.248 843.209336,405.415998 842.673333,405.752 C842.137331,406.088002 841.869333,406.559997 841.869333,407.168 C841.869333,407.600002 842.133331,407.971998 842.661333,408.284 C843.189336,408.596002 843.829329,408.863999 844.581333,409.088 C845.333337,409.312001 846.089329,409.555999 846.849333,409.82 C847.609337,410.084001 848.253331,410.467997 848.781333,410.972 C849.309336,411.476003 849.573333,412.087996 849.573333,412.808 C849.573333,413.816005 849.205337,414.631997 848.469333,415.256 C847.73333,415.880003 846.629341,416.192 845.157333,416.192 Z M859.24,413.312 L860.032,414.536 C859.935999,414.664001 859.808001,414.815999 859.648,414.992 C859.487999,415.168001 859.128003,415.411998 858.568,415.724 C858.007997,416.036002 857.432003,416.192 856.84,416.192 C855.831995,416.192 854.988003,415.892003 854.308,415.292 C853.627997,414.691997 853.288,413.824006 853.288,412.688 L853.288,405.44 L851.368,405.44 L851.368,403.976 L853.288,403.976 L853.288,400.184 L854.872,399.992 L854.872,403.976 L858.496,403.976 L858.496,405.44 L854.872,405.44 L854.872,412.328 C854.872,413.064004 855.099998,413.647998 855.556,414.08 C856.012002,414.512002 856.535997,414.728 857.128,414.728 C857.496002,414.728 857.855998,414.616001 858.208,414.392 C858.560002,414.167999 858.819999,413.948001 858.988,413.732 C859.156001,413.515999 859.24,413.376 859.24,413.312 Z M872.362667,404 L873.946667,404 L873.946667,416 L872.362667,416 L872.362667,414.056 C871.13066,415.480007 869.570676,416.192 867.682667,416.192 C865.970658,416.192 864.510673,415.588006 863.302667,414.38 C862.094661,413.171994 861.490667,411.712009 861.490667,410 C861.490667,408.287991 862.094661,406.828006 863.302667,405.62 C864.510673,404.411994 865.970658,403.808 867.682667,403.808 C869.586676,403.808 871.146661,404.519993 872.362667,405.944 L872.362667,404 Z M867.706667,414.68 C869.002673,414.68 870.094662,414.228005 870.982667,413.324 C871.870671,412.419995 872.314667,411.312007 872.314667,410 C872.314667,408.687993 871.870671,407.580005 870.982667,406.676 C870.094662,405.771995 869.002673,405.32 867.706667,405.32 C866.42666,405.32 865.334671,405.771995 864.430667,406.676 C863.526662,407.580005 863.074667,408.687993 863.074667,410 C863.074667,411.312007 863.526662,412.419995 864.430667,413.324 C865.334671,414.228005 866.42666,414.68 867.706667,414.68 Z M877.997333,416 L877.997333,398.144 L879.581333,398.144 L879.581333,416 L877.997333,416 Z" id="Boron-Doped,-P-Type-Copy" fill="#23ABE3"></path>
    </g>
</svg>