<?xml version="1.0" encoding="UTF-8"?>
<svg width="900px" height="270px" viewBox="0 0 900 270" version="1.1" xmlns="http://www.w3.org/2000/svg" xmlns:xlink="http://www.w3.org/1999/xlink">
    <!-- Generator: Sketch 52.5 (67469) - http://www.bohemiancoding.com/sketch -->
    <title>P-Type_Silicon_Crystal_Lattice</title>
    <desc>Created with Sketch.</desc>
    <g id="P-Type_Silicon_Crystal_Lattice" stroke="none" stroke-width="1" fill="none" fill-rule="evenodd">
        <rect id="Rectangle" stroke="#3D3530" stroke-width="2" fill="#EEEEEE" x="1" y="1" width="898" height="428"></rect>
        <g id="Illustration" transform="translate(60.000000, 37.000000)">
            <g id="Lattice">
                <g>
                    <rect id="Rectangle" stroke="#999999" stroke-width="2" fill="#D4D4D4" x="1" y="1" width="158" height="158"></rect>
                    <circle id="Oval-Copy-3" fill="#252525" cx="20.5" cy="18.5" r="10.5"></circle>
                    <circle id="Oval-Copy-5" fill="#252525" cx="20.5" cy="58.5" r="10.5"></circle>
                    <circle id="Oval-Copy-6" fill="#252525" cx="20.5" cy="98.5" r="10.5"></circle>
                    <circle id="Oval-Copy-10" fill="#252525" cx="50.5" cy="38.5" r="10.5"></circle>
                    <circle id="Oval-Copy-9" fill="#84D0EF" cx="50.5" cy="78.5" r="10.5"></circle>
                    <circle id="Oval-Copy-8" fill="#252525" cx="50.5" cy="118.5" r="10.5"></circle>
                    <circle id="Oval-Copy-26" fill="#84D0EF" cx="110.5" cy="38.5" r="10.5"></circle>
                    <circle id="Oval-Copy-25" fill="#252525" cx="110.5" cy="78.5" r="10.5"></circle>
                    <circle id="Oval-Copy-24" fill="#252525" cx="110.5" cy="118.5" r="10.5"></circle>
                    <circle id="Oval-Copy-7" fill="#84D0EF" cx="20.5" cy="138.5" r="10.5"></circle>
                    <circle id="Oval-Copy-23" fill="#252525" cx="80.5" cy="18.5" r="10.5"></circle>
                    <circle id="Oval-Copy-22" fill="#252525" cx="80.5" cy="58.5" r="10.5"></circle>
                    <circle id="Oval-Copy-21" fill="#84D0EF" cx="80.5" cy="98.5" r="10.5"></circle>
                    <circle id="Oval-Copy-20" fill="#252525" cx="80.5" cy="138.5" r="10.5"></circle>
                    <circle id="Oval-Copy-30" fill="#252525" cx="140.5" cy="18.5" r="10.5"></circle>
                    <circle id="Oval-Copy-29" fill="#252525" cx="140.5" cy="58.5" r="10.5"></circle>
                    <circle id="Oval-Copy-28" fill="#252525" cx="140.5" cy="98.5" r="10.5"></circle>
                    <circle id="Oval-Copy-27" fill="#252525" cx="140.5" cy="138.5" r="10.5"></circle>
                    <g id="Little-Ones" transform="translate(4.000000, 8.000000)" fill="#84D0EF">
                        <circle id="Oval-Copy-31" cx="25.25" cy="68.25" r="3.25"></circle>
                        <circle id="Oval-Copy-32" cx="38.25" cy="47.25" r="3.25"></circle>
                        <circle id="Oval-Copy-33" cx="28.25" cy="19.25" r="3.25"></circle>
                        <circle id="Oval-Copy-34" cx="69.25" cy="27.25" r="3.25"></circle>
                        <circle id="Oval-Copy-35" cx="79.25" cy="67.25" r="3.25"></circle>
                        <circle id="Oval-Copy-36" cx="60.25" cy="88.25" r="3.25"></circle>
                        <circle id="Oval-Copy-37" cx="35.25" cy="99.25" r="3.25"></circle>
                        <circle id="Oval-Copy-38" cx="31.25" cy="141.25" r="3.25"></circle>
                        <circle id="Oval-Copy-39" cx="3.25" cy="108.25" r="3.25"></circle>
                        <circle id="Oval-Copy-40" cx="55.25" cy="126.25" r="3.25"></circle>
                        <circle id="Oval-Copy-41" cx="115.25" cy="126.25" r="3.25"></circle>
                        <circle id="Oval-Copy-42" cx="90.25" cy="107.25" r="3.25"></circle>
                        <circle id="Oval-Copy-43" cx="90.25" cy="137.25" r="3.25"></circle>
                        <circle id="Oval-Copy-44" cx="130.25" cy="146.25" r="3.25"></circle>
                        <circle id="Oval-Copy-45" cx="150.25" cy="96.25" r="3.25"></circle>
                        <circle id="Oval-Copy-46" cx="119.25" cy="82.25" r="3.25"></circle>
                        <circle id="Oval-Copy-47" cx="129.25" cy="37.25" r="3.25"></circle>
                        <circle id="Oval-Copy-48" cx="119.25" cy="3.25" r="3.25"></circle>
                        <circle id="Oval-Copy-49" cx="96.25" cy="18.25" r="3.25"></circle>
                    </g>
                </g>
            </g>
            <g id="Index" transform="translate(201.000000, 17.000000)">
                <g id="Free-Hole" transform="translate(7.000000, 70.000000)">
                    <circle id="Oval-Copy-11" fill="#84D0EF" cx="3.25" cy="10.25" r="3.25"></circle>
                    <path d="M33.112,3.488 L33.112,8.936 L34.312,8.936 C35.512006,8.936 36.2759984,8.80400132 36.604,8.54 C36.9320016,8.27599868 37.096,7.64000504 37.096,6.632 L37.6,6.632 L37.6,12.128 L37.096,12.128 C37.096,11.119995 36.9320016,10.4840013 36.604,10.22 C36.2759984,9.95599868 35.512006,9.824 34.312,9.824 L33.112,9.824 L33.112,13.688 C33.112,14.888006 33.2439987,15.6559983 33.508,15.992 C33.7720013,16.3280017 34.399995,16.496 35.392,16.496 L35.392,17 L28.912,17 L28.912,16.496 C29.904005,16.496 30.5319987,16.3280017 30.796,15.992 C31.0600013,15.6559983 31.192,14.888006 31.192,13.688 L31.192,5.888 C31.192,4.687994 31.0600013,3.92400164 30.796,3.596 C30.5319987,3.26799836 29.904005,3.104 28.912,3.104 L28.912,2.6 L40.264,2.6 L40.456,5.768 L39.952,5.768 L39.832,5.288 C39.6559991,4.59999656 39.4080016,4.12800128 39.088,3.872 C38.7679984,3.61599872 38.0960051,3.488 37.072,3.488 L33.112,3.488 Z M49.616,10.088 C49.616,10.8400038 49.2960032,11.216 48.656,11.216 C48.4319989,11.216 48.2360008,11.1280009 48.068,10.952 C47.8999992,10.7759991 47.816,10.5760011 47.816,10.352 C47.816,9.82399736 47.5600026,9.56 47.048,9.56 C46.6799982,9.56 46.2800022,9.81599744 45.848,10.328 C45.4159978,10.8400026 45.2,11.5199958 45.2,12.368 L45.2,13.688 C45.2,14.888006 45.3159988,15.6559983 45.548,15.992 C45.7800012,16.3280017 46.295996,16.496 47.096,16.496 L47.096,17 L41.6,17 L41.6,16.496 C42.400004,16.496 42.9159988,16.3280017 43.148,15.992 C43.3800012,15.6559983 43.496,14.888006 43.496,13.688 L43.496,12.488 C43.496,11.3039941 43.3800012,10.5440017 43.148,10.208 C42.9159988,9.87199832 42.400004,9.704 41.6,9.704 L41.6,9.2 L44.792,8.6 C44.9360007,8.90400152 45.0719994,9.47999576 45.2,10.328 C45.4400012,9.8479976 45.7999976,9.44000168 46.28,9.104 C46.7600024,8.76799832 47.2399976,8.6 47.72,8.6 C48.328003,8.6 48.7959984,8.7599984 49.124,9.08 C49.4520016,9.4000016 49.616,9.73599824 49.616,10.088 Z M53.928,11.504 L57.912,11.504 C58.0720008,11.0559978 58.0040015,10.6200021 57.708,10.196 C57.4119985,9.77199788 56.9040036,9.56 56.184,9.56 C55.6719974,9.56 55.212002,9.73599824 54.804,10.088 C54.395998,10.4400018 54.1040009,10.911997 53.928,11.504 Z M53.784,12.392 C53.6399993,13.5760059 53.8279974,14.5399963 54.348,15.284 C54.8680026,16.0280037 55.7199941,16.4 56.904,16.4 C57.304002,16.4 57.7599974,16.296001 58.272,16.088 C58.7840026,15.879999 59.2079983,15.6160016 59.544,15.296 L59.976,15.824 C59.5439978,16.2880023 58.9920034,16.6679985 58.32,16.964 C57.6479966,17.2600015 56.9760034,17.408 56.304,17.408 C55.0079935,17.408 53.9440042,16.9800043 53.112,16.124 C52.2799958,15.2679957 51.864,14.2240062 51.864,12.992 C51.864,11.7599938 52.3159955,10.7200042 53.22,9.872 C54.1240045,9.02399576 55.1519942,8.6 56.304,8.6 C57.3920054,8.6 58.2799966,8.9799962 58.968,9.74 C59.6560034,10.5000038 59.8560014,11.383995 59.568,12.392 L53.784,12.392 Z M65.056,11.504 L69.04,11.504 C69.2000008,11.0559978 69.1320015,10.6200021 68.836,10.196 C68.5399985,9.77199788 68.0320036,9.56 67.312,9.56 C66.7999974,9.56 66.340002,9.73599824 65.932,10.088 C65.523998,10.4400018 65.2320009,10.911997 65.056,11.504 Z M64.912,12.392 C64.7679993,13.5760059 64.9559974,14.5399963 65.476,15.284 C65.9960026,16.0280037 66.8479941,16.4 68.032,16.4 C68.432002,16.4 68.8879974,16.296001 69.4,16.088 C69.9120026,15.879999 70.3359983,15.6160016 70.672,15.296 L71.104,15.824 C70.6719978,16.2880023 70.1200034,16.6679985 69.448,16.964 C68.7759966,17.2600015 68.1040034,17.408 67.432,17.408 C66.1359935,17.408 65.0720042,16.9800043 64.24,16.124 C63.4079958,15.2679957 62.992,14.2240062 62.992,12.992 C62.992,11.7599938 63.4439955,10.7200042 64.348,9.872 C65.2520045,9.02399576 66.2799942,8.6 67.432,8.6 C68.5200054,8.6 69.4079966,8.9799962 70.096,9.74 C70.7840034,10.5000038 70.9840014,11.383995 70.696,12.392 L64.912,12.392 Z M84.672,9.8 L84.672,13.688 C84.672,14.888006 84.8039987,15.6559983 85.068,15.992 C85.3320013,16.3280017 85.959995,16.496 86.952,16.496 L86.952,17 L80.472,17 L80.472,16.496 C81.464005,16.496 82.0919987,16.3280017 82.356,15.992 C82.6200013,15.6559983 82.752,14.888006 82.752,13.688 L82.752,5.888 C82.752,4.687994 82.6200013,3.92400164 82.356,3.596 C82.0919987,3.26799836 81.464005,3.104 80.472,3.104 L80.472,2.6 L86.952,2.6 L86.952,3.104 C85.959995,3.104 85.3320013,3.26799836 85.068,3.596 C84.8039987,3.92400164 84.672,4.687994 84.672,5.888 L84.672,8.912 L92.832,8.912 L92.832,5.888 C92.832,4.687994 92.6960014,3.92400164 92.424,3.596 C92.1519986,3.26799836 91.520005,3.104 90.528,3.104 L90.528,2.6 L97.032,2.6 L97.032,3.104 C96.023995,3.104 95.3880013,3.26799836 95.124,3.596 C94.8599987,3.92400164 94.728,4.687994 94.728,5.888 L94.728,13.688 C94.728,14.9040061 94.8599987,15.6759984 95.124,16.004 C95.3880013,16.3320016 96.023995,16.496 97.032,16.496 L97.032,17 L90.528,17 L90.528,16.496 C91.520005,16.496 92.1519986,16.3280017 92.424,15.992 C92.6960014,15.6559983 92.832,14.888006 92.832,13.688 L92.832,9.8 L84.672,9.8 Z M108.328,9.896 C109.288005,10.7440042 109.768,11.7759939 109.768,12.992 C109.768,14.2080061 109.292005,15.2479957 108.34,16.112 C107.387995,16.9760043 106.248007,17.408 104.92,17.408 C103.591993,17.408 102.452005,16.9760043 101.5,16.112 C100.547995,15.2479957 100.072,14.2080061 100.072,12.992 C100.072,11.7759939 100.547995,10.7400043 101.5,9.884 C102.452005,9.02799572 103.591993,8.6 104.92,8.6 C106.248007,8.6 107.383995,9.03199568 108.328,9.896 Z M107.08,15.512 C107.576002,14.8559967 107.824,14.0160051 107.824,12.992 C107.824,11.9679949 107.576002,11.1320032 107.08,10.484 C106.583998,9.83599676 105.864005,9.512 104.92,9.512 C103.975995,9.512 103.256002,9.83999672 102.76,10.496 C102.263998,11.1520033 102.016,11.983995 102.016,12.992 C102.016,14.000005 102.263998,14.8319967 102.76,15.488 C103.256002,16.1440033 103.975995,16.472 104.92,16.472 C105.864005,16.472 106.583998,16.1520032 107.08,15.512 Z M117.872,17 L112.376,17 L112.376,16.496 C113.176004,16.496 113.691999,16.3280017 113.924,15.992 C114.156001,15.6559983 114.272,14.888006 114.272,13.688 L114.272,6.104 C114.272,4.903994 114.156001,4.13600168 113.924,3.8 C113.691999,3.46399832 113.176004,3.296 112.376,3.296 L112.376,2.792 L115.976,2.192 L115.976,13.688 C115.976,14.888006 116.091999,15.6559983 116.324,15.992 C116.556001,16.3280017 117.071996,16.496 117.872,16.496 L117.872,17 Z M122.568,11.504 L126.552,11.504 C126.712001,11.0559978 126.644001,10.6200021 126.348,10.196 C126.051999,9.77199788 125.544004,9.56 124.824,9.56 C124.311997,9.56 123.852002,9.73599824 123.444,10.088 C123.035998,10.4400018 122.744001,10.911997 122.568,11.504 Z M122.424,12.392 C122.279999,13.5760059 122.467997,14.5399963 122.988,15.284 C123.508003,16.0280037 124.359994,16.4 125.544,16.4 C125.944002,16.4 126.399997,16.296001 126.912,16.088 C127.424003,15.879999 127.847998,15.6160016 128.184,15.296 L128.616,15.824 C128.183998,16.2880023 127.632003,16.6679985 126.96,16.964 C126.287997,17.2600015 125.616003,17.408 124.944,17.408 C123.647994,17.408 122.584004,16.9800043 121.752,16.124 C120.919996,15.2679957 120.504,14.2240062 120.504,12.992 C120.504,11.7599938 120.955995,10.7200042 121.86,9.872 C122.764005,9.02399576 123.791994,8.6 124.944,8.6 C126.032005,8.6 126.919997,8.9799962 127.608,9.74 C128.296003,10.5000038 128.496001,11.383995 128.208,12.392 L122.424,12.392 Z M138.592,2.504 L131.68,17.432 L130.72,17.096 L137.632,2.168 L138.592,2.504 Z M143.912,5.144 L143.912,13.688 C143.912,14.888006 144.047999,15.6559983 144.32,15.992 C144.592001,16.3280017 145.223995,16.496 146.216,16.496 L146.216,17 L140.744,17 L140.744,16.496 C141.736005,16.496 142.363999,16.3280017 142.628,15.992 C142.892001,15.6559983 143.024,14.888006 143.024,13.688 L143.024,5.888 C143.024,4.687994 142.892001,3.92400164 142.628,3.596 C142.363999,3.26799836 141.736005,3.104 140.744,3.104 L140.744,2.6 L144.824,2.6 L149.912,14.288 L154.976,2.6 L158.744,2.6 L158.744,3.104 C157.735995,3.104 157.100001,3.26799836 156.836,3.596 C156.571999,3.92400164 156.44,4.687994 156.44,5.888 L156.44,13.688 C156.44,14.9040061 156.571999,15.6759984 156.836,16.004 C157.100001,16.3320016 157.735995,16.496 158.744,16.496 L158.744,17 L152.264,17 L152.264,16.496 C153.256005,16.496 153.883999,16.3280017 154.148,15.992 C154.412001,15.6559983 154.544,14.888006 154.544,13.688 L154.544,5.864 L149.552,17.408 L149.24,17.408 L143.912,5.144 Z M167.04,17 L161.544,17 L161.544,16.496 C162.344004,16.496 162.859999,16.3280017 163.092,15.992 C163.324001,15.6559983 163.44,14.888006 163.44,13.688 L163.44,12.488 C163.44,11.3039941 163.324001,10.5440017 163.092,10.208 C162.859999,9.87199832 162.344004,9.704 161.544,9.704 L161.544,9.2 L165.144,8.6 L165.144,13.688 C165.144,14.888006 165.259999,15.6559983 165.492,15.992 C165.724001,16.3280017 166.239996,16.496 167.04,16.496 L167.04,17 Z M165.336,5.168 C165.336,5.47200152 165.232001,5.72799896 165.024,5.936 C164.815999,6.14400104 164.568001,6.248 164.28,6.248 C163.991999,6.248 163.744001,6.14400104 163.536,5.936 C163.327999,5.72799896 163.224,5.47200152 163.224,5.168 C163.224,4.87999856 163.327999,4.63200104 163.536,4.424 C163.744001,4.21599896 163.991999,4.112 164.28,4.112 C164.568001,4.112 164.815999,4.21599896 165.024,4.424 C165.232001,4.63200104 165.336,4.87999856 165.336,5.168 Z M175.576,14.792 C175.576,15.5600038 175.300003,16.1879976 174.748,16.676 C174.195997,17.1640024 173.520004,17.408 172.72,17.408 C172.431999,17.408 172.136002,17.3520006 171.832,17.24 C171.527998,17.1279994 171.284001,17.0200005 171.1,16.916 C170.915999,16.8119995 170.744001,16.7320003 170.584,16.676 C170.423999,16.6199997 170.312,16.6479994 170.248,16.76 C170.184,16.8720006 170.152,17.0879984 170.152,17.408 L169.648,17.408 L169.648,13.904 L170.152,13.904 C170.152,14.5280031 170.391998,15.1319971 170.872,15.716 C171.352002,16.3000029 171.983996,16.592 172.768,16.592 C173.152002,16.592 173.475999,16.4720012 173.74,16.232 C174.004001,15.9919988 174.136,15.7040017 174.136,15.368 C174.136,14.8719975 173.688004,14.3840024 172.792,13.904 L171.448,13.184 C170.391995,12.6079971 169.864,11.8080051 169.864,10.784 C169.864,10.1599969 170.107998,9.64000208 170.596,9.224 C171.084002,8.80799792 171.647997,8.6 172.288,8.6 C172.832003,8.6 173.391997,8.74399856 173.968,9.032 C174.160001,9.14400056 174.292,9.1800002 174.364,9.14 C174.436,9.0999998 174.472,8.9200016 174.472,8.6 L174.976,8.6 L174.976,11.384 L174.472,11.384 C174.472,10.8559974 174.292002,10.388002 173.932,9.98 C173.571998,9.57199796 173.104003,9.368 172.528,9.368 C172.127998,9.368 171.824001,9.46399904 171.616,9.656 C171.407999,9.84800096 171.304,10.0959985 171.304,10.4 C171.304,10.6720014 171.407999,10.907999 171.616,11.108 C171.824001,11.308001 172.207997,11.5599985 172.768,11.864 L173.92,12.488 C175.024006,13.1120031 175.576,13.8799954 175.576,14.792 Z M184.736,14.792 C184.736,15.5600038 184.460003,16.1879976 183.908,16.676 C183.355997,17.1640024 182.680004,17.408 181.88,17.408 C181.591999,17.408 181.296002,17.3520006 180.992,17.24 C180.687998,17.1279994 180.444001,17.0200005 180.26,16.916 C180.075999,16.8119995 179.904001,16.7320003 179.744,16.676 C179.583999,16.6199997 179.472,16.6479994 179.408,16.76 C179.344,16.8720006 179.312,17.0879984 179.312,17.408 L178.808,17.408 L178.808,13.904 L179.312,13.904 C179.312,14.5280031 179.551998,15.1319971 180.032,15.716 C180.512002,16.3000029 181.143996,16.592 181.928,16.592 C182.312002,16.592 182.635999,16.4720012 182.9,16.232 C183.164001,15.9919988 183.296,15.7040017 183.296,15.368 C183.296,14.8719975 182.848004,14.3840024 181.952,13.904 L180.608,13.184 C179.551995,12.6079971 179.024,11.8080051 179.024,10.784 C179.024,10.1599969 179.267998,9.64000208 179.756,9.224 C180.244002,8.80799792 180.807997,8.6 181.448,8.6 C181.992003,8.6 182.551997,8.74399856 183.128,9.032 C183.320001,9.14400056 183.452,9.1800002 183.524,9.14 C183.596,9.0999998 183.632,8.9200016 183.632,8.6 L184.136,8.6 L184.136,11.384 L183.632,11.384 C183.632,10.8559974 183.452002,10.388002 183.092,9.98 C182.731998,9.57199796 182.264003,9.368 181.688,9.368 C181.287998,9.368 180.984001,9.46399904 180.776,9.656 C180.567999,9.84800096 180.464,10.0959985 180.464,10.4 C180.464,10.6720014 180.567999,10.907999 180.776,11.108 C180.984001,11.308001 181.367997,11.5599985 181.928,11.864 L183.08,12.488 C184.184006,13.1120031 184.736,13.8799954 184.736,14.792 Z M193.224,17 L187.728,17 L187.728,16.496 C188.528004,16.496 189.043999,16.3280017 189.276,15.992 C189.508001,15.6559983 189.624,14.888006 189.624,13.688 L189.624,12.488 C189.624,11.3039941 189.508001,10.5440017 189.276,10.208 C189.043999,9.87199832 188.528004,9.704 187.728,9.704 L187.728,9.2 L191.328,8.6 L191.328,13.688 C191.328,14.888006 191.443999,15.6559983 191.676,15.992 C191.908001,16.3280017 192.423996,16.496 193.224,16.496 L193.224,17 Z M191.52,5.168 C191.52,5.47200152 191.416001,5.72799896 191.208,5.936 C190.999999,6.14400104 190.752001,6.248 190.464,6.248 C190.175999,6.248 189.928001,6.14400104 189.72,5.936 C189.511999,5.72799896 189.408,5.47200152 189.408,5.168 C189.408,4.87999856 189.511999,4.63200104 189.72,4.424 C189.928001,4.21599896 190.175999,4.112 190.464,4.112 C190.752001,4.112 190.999999,4.21599896 191.208,4.424 C191.416001,4.63200104 191.52,4.87999856 191.52,5.168 Z M199.192,10.328 C200.104005,9.17599424 201.215993,8.6 202.528,8.6 C203.568005,8.6 204.347997,8.92799672 204.868,9.584 C205.388003,10.2400033 205.648,11.1039946 205.648,12.176 L205.648,13.688 C205.648,14.888006 205.763999,15.6559983 205.996,15.992 C206.228001,16.3280017 206.743996,16.496 207.544,16.496 L207.544,17 L202.048,17 L202.048,16.496 C202.832004,16.496 203.343999,16.3240017 203.584,15.98 C203.824001,15.6359983 203.944,14.8720059 203.944,13.688 L203.944,12.296 C203.944,10.5839914 203.280007,9.728 201.952,9.728 C201.263997,9.728 200.632003,9.9679976 200.056,10.448 C199.479997,10.9280024 199.192,11.4879968 199.192,12.128 L199.192,13.688 C199.192,14.9200062 199.287999,15.6959984 199.48,16.016 C199.672001,16.3360016 200.135996,16.496 200.872,16.496 L200.872,17 L195.592,17 L195.592,16.496 C196.392004,16.496 196.907999,16.3280017 197.14,15.992 C197.372001,15.6559983 197.488,14.888006 197.488,13.688 L197.488,12.488 C197.488,11.3039941 197.372001,10.5440017 197.14,10.208 C196.907999,9.87199832 196.392004,9.704 195.592,9.704 L195.592,9.2 L198.784,8.6 C198.928001,8.90400152 199.063999,9.47999576 199.192,10.328 Z M214.856,13.664 C215.160002,13.1999977 215.312,12.6000037 215.312,11.864 C215.312,11.1279963 215.164001,10.5280023 214.868,10.064 C214.571999,9.59999768 214.144003,9.368 213.584,9.368 C213.023997,9.368 212.592002,9.59999768 212.288,10.064 C211.983998,10.5280023 211.832,11.1279963 211.832,11.864 C211.832,12.6000037 211.983998,13.1959977 212.288,13.652 C212.592002,14.1080023 213.023997,14.336 213.584,14.336 C214.144003,14.336 214.567999,14.1120022 214.856,13.664 Z M211.352,16.136 C211.352,16.6160024 212.079993,16.9199994 213.536,17.048 C215.072008,17.1760006 216.183997,17.5279971 216.872,18.104 C217.560003,18.6800029 217.904,19.3759959 217.904,20.192 C217.904,21.1680049 217.500004,21.9479971 216.692,22.532 C215.883996,23.1160029 214.872006,23.408 213.656,23.408 C212.359994,23.408 211.316004,23.1400027 210.524,22.604 C209.731996,22.0679973 209.368,21.4400036 209.432,20.72 C209.496,19.9999964 210.007995,19.3920025 210.968,18.896 L211.4,19.16 C210.935998,19.6880026 210.688,20.1719978 210.656,20.612 C210.624,21.0520022 210.763998,21.3999987 211.076,21.656 C211.388002,21.9120013 211.771998,22.1119993 212.228,22.256 C212.684002,22.4000007 213.159998,22.472 213.656,22.472 C214.440004,22.472 215.131997,22.3000017 215.732,21.956 C216.332003,21.6119983 216.632,21.1680027 216.632,20.624 C216.632,20.0959974 216.372003,19.7120012 215.852,19.472 C215.331997,19.2319988 214.520006,19.0560006 213.416,18.944 C211.143989,18.7199989 210.008,17.9760063 210.008,16.712 C210.008,15.8479957 210.679993,15.2080021 212.024,14.792 C211.399997,14.5039986 210.908002,14.1040026 210.548,13.592 C210.187998,13.0799974 210.008,12.5040032 210.008,11.864 C210.008,10.9679955 210.355997,10.2000032 211.052,9.56 C211.748003,8.9199968 212.591995,8.6 213.584,8.6 C214.544005,8.6 215.367997,8.90399696 216.056,9.512 C216.264001,9.25599872 216.547998,9.04000088 216.908,8.864 C217.268002,8.68799912 217.583999,8.6 217.856,8.6 C218.560004,8.6 219.007999,8.89599704 219.2,9.488 C219.344001,9.93600224 219.272001,10.2719989 218.984,10.496 C218.888,10.5760004 218.776001,10.616 218.648,10.616 C218.407999,10.6320001 218.228001,10.5840006 218.108,10.472 C217.987999,10.3599994 217.916,10.2360007 217.892,10.1 C217.868,9.96399932 217.804001,9.8360006 217.7,9.716 C217.595999,9.5959994 217.432001,9.536 217.208,9.536 C216.967999,9.536 216.720001,9.66399872 216.464,9.92 C216.928002,10.4800028 217.16,11.1279963 217.16,11.864 C217.16,12.7120042 216.848003,13.439997 216.224,14.048 C215.599997,14.656003 214.872004,15.0159994 214.04,15.128 C212.247991,15.336001 211.352,15.6719977 211.352,16.136 Z M227.656,17 L227.656,16.496 C228.648005,16.496 229.275999,16.3280017 229.54,15.992 C229.804001,15.6559983 229.936,14.888006 229.936,13.688 L229.936,5.888 C229.936,4.687994 229.804001,3.92400164 229.54,3.596 C229.275999,3.26799836 228.648005,3.104 227.656,3.104 L227.656,2.6 L238.6,2.6 L238.816,5.768 L238.312,5.768 L238.192,5.288 C237.999999,4.58399648 237.744002,4.10800124 237.424,3.86 C237.103998,3.61199876 236.432005,3.488 235.408,3.488 L231.856,3.488 L231.856,8.936 L233.056,8.936 C234.256006,8.936 235.019998,8.80400132 235.348,8.54 C235.676002,8.27599868 235.84,7.64000504 235.84,6.632 L236.344,6.632 L236.344,12.128 L235.84,12.128 C235.84,11.119995 235.676002,10.4840013 235.348,10.22 C235.019998,9.95599868 234.256006,9.824 233.056,9.824 L231.856,9.824 L231.856,13.328 C231.856,14.528006 231.987999,15.2919984 232.252,15.62 C232.516001,15.9480016 233.143995,16.112 234.136,16.112 L236.2,16.112 C236.920004,16.112 237.467998,16.0400007 237.844,15.896 C238.220002,15.7519993 238.475999,15.5680011 238.612,15.344 C238.748001,15.1199989 238.871999,14.7680024 238.984,14.288 L239.104,13.808 L239.608,13.808 L239.416,17 L227.656,17 Z M247.688,17 L242.192,17 L242.192,16.496 C242.992004,16.496 243.507999,16.3280017 243.74,15.992 C243.972001,15.6559983 244.088,14.888006 244.088,13.688 L244.088,6.104 C244.088,4.903994 243.972001,4.13600168 243.74,3.8 C243.507999,3.46399832 242.992004,3.296 242.192,3.296 L242.192,2.792 L245.792,2.192 L245.792,13.688 C245.792,14.888006 245.907999,15.6559983 246.14,15.992 C246.372001,16.3280017 246.887996,16.496 247.688,16.496 L247.688,17 Z M252.384,11.504 L256.368,11.504 C256.528001,11.0559978 256.460001,10.6200021 256.164,10.196 C255.867999,9.77199788 255.360004,9.56 254.64,9.56 C254.127997,9.56 253.668002,9.73599824 253.26,10.088 C252.851998,10.4400018 252.560001,10.911997 252.384,11.504 Z M252.24,12.392 C252.095999,13.5760059 252.283997,14.5399963 252.804,15.284 C253.324003,16.0280037 254.175994,16.4 255.36,16.4 C255.760002,16.4 256.215997,16.296001 256.728,16.088 C257.240003,15.879999 257.663998,15.6160016 258,15.296 L258.432,15.824 C257.999998,16.2880023 257.448003,16.6679985 256.776,16.964 C256.103997,17.2600015 255.432003,17.408 254.76,17.408 C253.463994,17.408 252.400004,16.9800043 251.568,16.124 C250.735996,15.2679957 250.32,14.2240062 250.32,12.992 C250.32,11.7599938 250.771995,10.7200042 251.676,9.872 C252.580005,9.02399576 253.607994,8.6 254.76,8.6 C255.848005,8.6 256.735997,8.9799962 257.424,9.74 C258.112003,10.5000038 258.312001,11.383995 258.024,12.392 L252.24,12.392 Z M265.696,9.368 C265.055997,9.368 264.512002,9.73599632 264.064,10.472 C263.615998,11.2080037 263.392,12.1199946 263.392,13.208 C263.392,14.200005 263.635998,14.9799972 264.124,15.548 C264.612002,16.1160028 265.335995,16.4 266.296,16.4 C267.224005,16.4 268.079996,16.0320037 268.864,15.296 L269.272,15.824 C268.295995,16.8800053 267.104007,17.408 265.696,17.408 C264.383993,17.408 263.348004,17.0160039 262.588,16.232 C261.827996,15.4479961 261.448,14.4400062 261.448,13.208 C261.448,11.8799934 261.895996,10.7800044 262.792,9.908 C263.688004,9.03599564 264.655995,8.6 265.696,8.6 C266.640005,8.6 267.351998,8.76799832 267.832,9.104 C268.312002,9.44000168 268.552,9.8479976 268.552,10.328 C268.552,10.5840013 268.468001,10.8199989 268.3,11.036 C268.131999,11.2520011 267.864002,11.36 267.496,11.36 C267.239999,11.36 267.020001,11.2680009 266.836,11.084 C266.651999,10.8999991 266.56,10.6720014 266.56,10.4 C266.56,9.71199656 266.272003,9.368 265.696,9.368 Z M279.656,10.088 C279.656,10.8400038 279.336003,11.216 278.696,11.216 C278.471999,11.216 278.276001,11.1280009 278.108,10.952 C277.939999,10.7759991 277.856,10.5760011 277.856,10.352 C277.856,9.82399736 277.600003,9.56 277.088,9.56 C276.719998,9.56 276.320002,9.81599744 275.888,10.328 C275.455998,10.8400026 275.24,11.5199958 275.24,12.368 L275.24,13.688 C275.24,14.888006 275.355999,15.6559983 275.588,15.992 C275.820001,16.3280017 276.335996,16.496 277.136,16.496 L277.136,17 L271.64,17 L271.64,16.496 C272.440004,16.496 272.955999,16.3280017 273.188,15.992 C273.420001,15.6559983 273.536,14.888006 273.536,13.688 L273.536,12.488 C273.536,11.3039941 273.420001,10.5440017 273.188,10.208 C272.955999,9.87199832 272.440004,9.704 271.64,9.704 L271.64,9.2 L274.832,8.6 C274.976001,8.90400152 275.111999,9.47999576 275.24,10.328 C275.480001,9.8479976 275.839998,9.44000168 276.32,9.104 C276.800002,8.76799832 277.279998,8.6 277.76,8.6 C278.368003,8.6 278.835998,8.7599984 279.164,9.08 C279.492002,9.4000016 279.656,9.73599824 279.656,10.088 Z M290.568,9.896 C291.528005,10.7440042 292.008,11.7759939 292.008,12.992 C292.008,14.2080061 291.532005,15.2479957 290.58,16.112 C289.627995,16.9760043 288.488007,17.408 287.16,17.408 C285.831993,17.408 284.692005,16.9760043 283.74,16.112 C282.787995,15.2479957 282.312,14.2080061 282.312,12.992 C282.312,11.7759939 282.787995,10.7400043 283.74,9.884 C284.692005,9.02799572 285.831993,8.6 287.16,8.6 C288.488007,8.6 289.623995,9.03199568 290.568,9.896 Z M289.32,15.512 C289.816002,14.8559967 290.064,14.0160051 290.064,12.992 C290.064,11.9679949 289.816002,11.1320032 289.32,10.484 C288.823998,9.83599676 288.104005,9.512 287.16,9.512 C286.215995,9.512 285.496002,9.83999672 285,10.496 C284.503998,11.1520033 284.256,11.983995 284.256,12.992 C284.256,14.000005 284.503998,14.8319967 285,15.488 C285.496002,16.1440033 286.215995,16.472 287.16,16.472 C288.104005,16.472 288.823998,16.1520032 289.32,15.512 Z M298.672,10.328 C299.584005,9.17599424 300.695993,8.6 302.008,8.6 C303.048005,8.6 303.827997,8.92799672 304.348,9.584 C304.868003,10.2400033 305.128,11.1039946 305.128,12.176 L305.128,13.688 C305.128,14.888006 305.243999,15.6559983 305.476,15.992 C305.708001,16.3280017 306.223996,16.496 307.024,16.496 L307.024,17 L301.528,17 L301.528,16.496 C302.312004,16.496 302.823999,16.3240017 303.064,15.98 C303.304001,15.6359983 303.424,14.8720059 303.424,13.688 L303.424,12.296 C303.424,10.5839914 302.760007,9.728 301.432,9.728 C300.743997,9.728 300.112003,9.9679976 299.536,10.448 C298.959997,10.9280024 298.672,11.4879968 298.672,12.128 L298.672,13.688 C298.672,14.9200062 298.767999,15.6959984 298.96,16.016 C299.152001,16.3360016 299.615996,16.496 300.352,16.496 L300.352,17 L295.072,17 L295.072,16.496 C295.872004,16.496 296.387999,16.3280017 296.62,15.992 C296.852001,15.6559983 296.968,14.888006 296.968,13.688 L296.968,12.488 C296.968,11.3039941 296.852001,10.5440017 296.62,10.208 C296.387999,9.87199832 295.872004,9.704 295.072,9.704 L295.072,9.2 L298.264,8.6 C298.408001,8.90400152 298.543999,9.47999576 298.672,10.328 Z" id="Free-Hole/Missing-El-Copy" fill="#524740"></path>
                </g>
                <g id="--Atom" transform="translate(0.000000, 34.000000)">
                    <circle id="Oval-Copy-11" fill="#84D0EF" cx="10" cy="10" r="10"></circle>
                    <path d="M47.512,14.024 L47.512,5.888 C47.512,4.687994 47.3800013,3.92400164 47.116,3.596 C46.8519987,3.26799836 46.224005,3.104 45.232,3.104 L45.232,2.6 L50.704,2.6 L50.704,3.104 C49.711995,3.104 49.0800014,3.26799836 48.808,3.596 C48.5359986,3.92400164 48.4,4.687994 48.4,5.888 L48.4,17.408 L47.848,17.408 L38.08,5.336 L38.08,13.688 C38.08,14.888006 38.2159986,15.6559983 38.488,15.992 C38.7600014,16.3280017 39.391995,16.496 40.384,16.496 L40.384,17 L34.912,17 L34.912,16.496 C35.904005,16.496 36.5319987,16.3280017 36.796,15.992 C37.0600013,15.6559983 37.192,14.888006 37.192,13.688 L37.192,5.888 C37.192,4.687994 37.0600013,3.92400164 36.796,3.596 C36.5319987,3.26799836 35.904005,3.104 34.912,3.104 L34.912,2.6 L38.296,2.6 L47.512,14.024 Z M55.616,11.504 L59.6,11.504 C59.7600008,11.0559978 59.6920015,10.6200021 59.396,10.196 C59.0999985,9.77199788 58.5920036,9.56 57.872,9.56 C57.3599974,9.56 56.900002,9.73599824 56.492,10.088 C56.083998,10.4400018 55.7920009,10.911997 55.616,11.504 Z M55.472,12.392 C55.3279993,13.5760059 55.5159974,14.5399963 56.036,15.284 C56.5560026,16.0280037 57.4079941,16.4 58.592,16.4 C58.992002,16.4 59.4479974,16.296001 59.96,16.088 C60.4720026,15.879999 60.8959983,15.6160016 61.232,15.296 L61.664,15.824 C61.2319978,16.2880023 60.6800034,16.6679985 60.008,16.964 C59.3359966,17.2600015 58.6640034,17.408 57.992,17.408 C56.6959935,17.408 55.6320042,16.9800043 54.8,16.124 C53.9679958,15.2679957 53.552,14.2240062 53.552,12.992 C53.552,11.7599938 54.0039955,10.7200042 54.908,9.872 C55.8120045,9.02399576 56.8399942,8.6 57.992,8.6 C59.0800054,8.6 59.9679966,8.9799962 60.656,9.74 C61.3440034,10.5000038 61.5440014,11.383995 61.256,12.392 L55.472,12.392 Z M69.384,13.664 C69.6880015,13.1999977 69.84,12.6000037 69.84,11.864 C69.84,11.1279963 69.6920015,10.5280023 69.396,10.064 C69.0999985,9.59999768 68.6720028,9.368 68.112,9.368 C67.5519972,9.368 67.1200015,9.59999768 66.816,10.064 C66.5119985,10.5280023 66.36,11.1279963 66.36,11.864 C66.36,12.6000037 66.5119985,13.1959977 66.816,13.652 C67.1200015,14.1080023 67.5519972,14.336 68.112,14.336 C68.6720028,14.336 69.0959986,14.1120022 69.384,13.664 Z M65.88,16.136 C65.88,16.6160024 66.6079927,16.9199994 68.064,17.048 C69.6000077,17.1760006 70.7119966,17.5279971 71.4,18.104 C72.0880034,18.6800029 72.432,19.3759959 72.432,20.192 C72.432,21.1680049 72.028004,21.9479971 71.22,22.532 C70.411996,23.1160029 69.4000061,23.408 68.184,23.408 C66.8879935,23.408 65.844004,23.1400027 65.052,22.604 C64.259996,22.0679973 63.8959997,21.4400036 63.96,20.72 C64.0240003,19.9999964 64.5359952,19.3920025 65.496,18.896 L65.928,19.16 C65.4639977,19.6880026 65.2160002,20.1719978 65.184,20.612 C65.1519998,21.0520022 65.2919984,21.3999987 65.604,21.656 C65.9160016,21.9120013 66.2999977,22.1119993 66.756,22.256 C67.2120023,22.4000007 67.6879975,22.472 68.184,22.472 C68.9680039,22.472 69.659997,22.3000017 70.26,21.956 C70.860003,21.6119983 71.16,21.1680027 71.16,20.624 C71.16,20.0959974 70.9000026,19.7120012 70.38,19.472 C69.8599974,19.2319988 69.0480055,19.0560006 67.944,18.944 C65.6719886,18.7199989 64.536,17.9760063 64.536,16.712 C64.536,15.8479957 65.2079933,15.2080021 66.552,14.792 C65.9279969,14.5039986 65.4360018,14.1040026 65.076,13.592 C64.7159982,13.0799974 64.536,12.5040032 64.536,11.864 C64.536,10.9679955 64.8839965,10.2000032 65.58,9.56 C66.2760035,8.9199968 67.119995,8.6 68.112,8.6 C69.0720048,8.6 69.8959966,8.90399696 70.584,9.512 C70.792001,9.25599872 71.0759982,9.04000088 71.436,8.864 C71.7960018,8.68799912 72.1119986,8.6 72.384,8.6 C73.0880035,8.6 73.535999,8.89599704 73.728,9.488 C73.8720007,9.93600224 73.8000014,10.2719989 73.512,10.496 C73.4159995,10.5760004 73.3040006,10.616 73.176,10.616 C72.9359988,10.6320001 72.7560006,10.5840006 72.636,10.472 C72.5159994,10.3599994 72.4440001,10.2360007 72.42,10.1 C72.3959999,9.96399932 72.3320005,9.8360006 72.228,9.716 C72.1239995,9.5959994 71.9600011,9.536 71.736,9.536 C71.4959988,9.536 71.2480013,9.66399872 70.992,9.92 C71.4560023,10.4800028 71.688,11.1279963 71.688,11.864 C71.688,12.7120042 71.3760031,13.439997 70.752,14.048 C70.1279969,14.656003 69.4000042,15.0159994 68.568,15.128 C66.775991,15.336001 65.88,15.6719977 65.88,16.136 Z M83.968,16.52 C83.5039977,17.0160025 82.976003,17.264 82.384,17.264 C81.4239952,17.264 80.8800006,16.8000046 80.752,15.872 C79.6799946,16.8320048 78.6800046,17.312 77.752,17.312 C77.143997,17.312 76.6320021,17.1320018 76.216,16.772 C75.7999979,16.4119982 75.592,15.9200031 75.592,15.296 C75.592,13.6159916 77.295983,12.480003 80.704,11.888 C80.704,10.9439953 80.600001,10.2880018 80.392,9.92 C80.183999,9.55199816 79.7520033,9.368 79.096,9.368 C78.7759984,9.368 78.4680015,9.47199896 78.172,9.68 C77.8759985,9.88800104 77.728,10.1679982 77.728,10.52 C77.728,10.7600012 77.6480008,10.9599992 77.488,11.12 C77.3279992,11.2800008 77.1360011,11.36 76.912,11.36 C76.6719988,11.36 76.4720008,11.2800008 76.312,11.12 C76.1519992,10.9599992 76.072,10.7600012 76.072,10.52 C76.072,9.9599972 76.3799969,9.5000018 76.996,9.14 C77.6120031,8.7799982 78.319996,8.6 79.12,8.6 C80.2880058,8.6 81.1279974,8.85599744 81.64,9.368 C82.1520026,9.88000256 82.408,10.7119942 82.408,11.864 L82.408,15.488 C82.408,16.1120031 82.5919982,16.424 82.96,16.424 C83.168001,16.424 83.3919988,16.3040012 83.632,16.064 L83.968,16.52 Z M80.704,15.08 L80.704,12.632 C78.495989,13.1440026 77.392,13.9359946 77.392,15.008 C77.392,15.3760018 77.4999989,15.6719989 77.716,15.896 C77.9320011,16.1200011 78.1999984,16.232 78.52,16.232 C79.112003,16.232 79.8399957,15.8480038 80.704,15.08 Z M87.272,9.848 L86.024,9.848 L86.024,9.272 C86.7120034,9.12799928 87.2159984,8.8160024 87.536,8.336 C87.8560016,7.8559976 88.0639995,7.20000416 88.16,6.368 L88.976,6.368 L88.976,9.008 L91.064,9.008 L91.064,9.848 L88.976,9.848 L88.976,14.648 C88.976,15.8000058 89.3359964,16.376 90.056,16.376 C90.5200023,16.376 91.0399971,16.1040027 91.616,15.56 L92.024,15.968 C91.6879983,16.368002 91.2840024,16.6959987 90.812,16.952 C90.3399976,17.2080013 89.904002,17.336 89.504,17.336 C88.8159966,17.336 88.272002,17.1120022 87.872,16.664 C87.471998,16.2159978 87.272,15.5440045 87.272,14.648 L87.272,9.848 Z M99.84,17 L94.344,17 L94.344,16.496 C95.144004,16.496 95.6599988,16.3280017 95.892,15.992 C96.1240012,15.6559983 96.24,14.888006 96.24,13.688 L96.24,12.488 C96.24,11.3039941 96.1240012,10.5440017 95.892,10.208 C95.6599988,9.87199832 95.144004,9.704 94.344,9.704 L94.344,9.2 L97.944,8.6 L97.944,13.688 C97.944,14.888006 98.0599988,15.6559983 98.292,15.992 C98.5240012,16.3280017 99.039996,16.496 99.84,16.496 L99.84,17 Z M98.136,5.168 C98.136,5.47200152 98.032001,5.72799896 97.824,5.936 C97.615999,6.14400104 97.3680014,6.248 97.08,6.248 C96.7919986,6.248 96.544001,6.14400104 96.336,5.936 C96.127999,5.72799896 96.024,5.47200152 96.024,5.168 C96.024,4.87999856 96.127999,4.63200104 96.336,4.424 C96.544001,4.21599896 96.7919986,4.112 97.08,4.112 C97.3680014,4.112 97.615999,4.21599896 97.824,4.424 C98.032001,4.63200104 98.136,4.87999856 98.136,5.168 Z M110.536,9.488 C110.119998,9.488 109.788001,9.59199896 109.54,9.8 C109.291999,10.008001 109.056001,10.3759974 108.832,10.904 L106.12,17.432 L105.64,17.432 L102.712,10.904 C102.471999,10.3759974 102.236001,10.008001 102.004,9.8 C101.771999,9.59199896 101.464002,9.488 101.08,9.488 L101.08,9.008 L105.328,9.008 L105.328,9.488 C104.783997,9.488 104.464,9.57999908 104.368,9.764 C104.272,9.94800092 104.343999,10.3279971 104.584,10.904 L106.288,14.744 L107.872,10.904 C108.112001,10.3919974 108.184,10.0280011 108.088,9.812 C107.992,9.59599892 107.688003,9.488 107.176,9.488 L107.176,9.008 L110.536,9.008 L110.536,9.488 Z M114.464,11.504 L118.448,11.504 C118.608001,11.0559978 118.540001,10.6200021 118.244,10.196 C117.947999,9.77199788 117.440004,9.56 116.72,9.56 C116.207997,9.56 115.748002,9.73599824 115.34,10.088 C114.931998,10.4400018 114.640001,10.911997 114.464,11.504 Z M114.32,12.392 C114.175999,13.5760059 114.363997,14.5399963 114.884,15.284 C115.404003,16.0280037 116.255994,16.4 117.44,16.4 C117.840002,16.4 118.295997,16.296001 118.808,16.088 C119.320003,15.879999 119.743998,15.6160016 120.08,15.296 L120.512,15.824 C120.079998,16.2880023 119.528003,16.6679985 118.856,16.964 C118.183997,17.2600015 117.512003,17.408 116.84,17.408 C115.543994,17.408 114.480004,16.9800043 113.648,16.124 C112.815996,15.2679957 112.4,14.2240062 112.4,12.992 C112.4,11.7599938 112.851995,10.7200042 113.756,9.872 C114.660005,9.02399576 115.687994,8.6 116.84,8.6 C117.928005,8.6 118.815997,8.9799962 119.504,9.74 C120.192003,10.5000038 120.392001,11.383995 120.104,12.392 L114.32,12.392 Z M128.328,17 L122.832,17 L122.832,16.496 C123.632004,16.496 124.147999,16.3280017 124.38,15.992 C124.612001,15.6559983 124.728,14.888006 124.728,13.688 L124.728,6.104 C124.728,4.903994 124.612001,4.13600168 124.38,3.8 C124.147999,3.46399832 123.632004,3.296 122.832,3.296 L122.832,2.792 L126.432,2.192 L126.432,13.688 C126.432,14.888006 126.547999,15.6559983 126.78,15.992 C127.012001,16.3280017 127.527996,16.496 128.328,16.496 L128.328,17 Z M130.96,22.688 C130.96,22.4319987 131.055999,22.204001 131.248,22.004 C131.440001,21.803999 131.691998,21.5320017 132.004,21.188 C132.316002,20.8439983 132.575999,20.4080026 132.784,19.88 L133.984,16.88 L131.224,10.904 C130.967999,10.3599973 130.728001,9.988001 130.504,9.788 C130.279999,9.587999 129.984002,9.488 129.616,9.488 L129.616,9.008 L133.864,9.008 L133.864,9.488 C133.319997,9.488 132.992001,9.57599912 132.88,9.752 C132.767999,9.92800088 132.839999,10.311997 133.096,10.904 L134.848,14.744 L136.384,10.904 C136.608001,10.3599973 136.672,9.988001 136.576,9.788 C136.48,9.587999 136.184002,9.488 135.688,9.488 L135.688,9.008 L139.048,9.008 L139.048,9.488 C138.295996,9.488 137.728002,9.95999528 137.344,10.904 L132.664,22.592 C132.423999,23.184003 132.128002,23.48 131.776,23.48 C131.567999,23.48 131.380001,23.4160006 131.212,23.288 C131.043999,23.1599994 130.96,22.9600014 130.96,22.688 Z M161.184,16.736 L160.704,16.736 C160.575999,16.1119969 160.304002,15.6560014 159.888,15.368 C158.575993,16.7280068 157.088008,17.408 155.424,17.408 C153.39199,17.408 151.656007,16.6640074 150.216,15.176 C148.775993,13.6879926 148.056,11.8960105 148.056,9.8 C148.056,7.70398952 148.775993,5.91200744 150.216,4.424 C151.656007,2.93599256 153.39199,2.192 155.424,2.192 C157.120008,2.192 158.607994,2.8719932 159.888,4.232 C160.320002,3.89599832 160.591999,3.44000288 160.704,2.864 L161.184,2.864 L161.184,8.144 L160.704,8.144 C160.367998,6.55999208 159.748005,5.3280044 158.844,4.448 C157.939995,3.5679956 156.832007,3.128 155.52,3.128 C154.607995,3.128 153.800004,3.33199796 153.096,3.74 C152.391996,4.14800204 151.844002,4.68799664 151.452,5.36 C151.059998,6.03200336 150.768001,6.74399624 150.576,7.496 C150.383999,8.24800376 150.288,9.01599608 150.288,9.8 C150.288,10.5840039 150.383999,11.3519962 150.576,12.104 C150.768001,12.8560038 151.059998,13.5639967 151.452,14.228 C151.844002,14.8920033 152.391996,15.427998 153.096,15.836 C153.800004,16.244002 154.607995,16.448 155.52,16.448 C156.832007,16.448 157.939995,16.0040044 158.844,15.116 C159.748005,14.2279956 160.367998,13.0080078 160.704,11.456 L161.184,11.456 L161.184,16.736 Z M176.032,17 L170.728,17 L170.728,16.496 C171.480004,16.496 171.951999,16.3360016 172.144,16.016 C172.336001,15.6959984 172.432,14.9200062 172.432,13.688 L172.432,12.296 C172.432,10.5839914 171.824006,9.728 170.608,9.728 C169.967997,9.728 169.376003,9.96399764 168.832,10.436 C168.287997,10.9080024 168.016,11.4719967 168.016,12.128 L168.016,13.688 C168.016,14.9360062 168.103999,15.7159984 168.28,16.028 C168.456001,16.3400016 168.871997,16.496 169.528,16.496 L169.528,17 L164.416,17 L164.416,16.496 C165.216004,16.496 165.731999,16.3280017 165.964,15.992 C166.196001,15.6559983 166.312,14.888006 166.312,13.688 L166.312,6.104 C166.312,4.903994 166.196001,4.13600168 165.964,3.8 C165.731999,3.46399832 165.216004,3.296 164.416,3.296 L164.416,2.792 L168.016,2.192 L168.016,10.328 C168.960005,9.17599424 170.007994,8.6 171.16,8.6 C173.12801,8.6 174.112,9.79198808 174.112,12.176 L174.112,13.688 C174.112,14.888006 174.227999,15.6559983 174.46,15.992 C174.692001,16.3280017 175.215996,16.496 176.032,16.496 L176.032,17 Z M186.776,16.52 C186.311998,17.0160025 185.784003,17.264 185.192,17.264 C184.231995,17.264 183.688001,16.8000046 183.56,15.872 C182.487995,16.8320048 181.488005,17.312 180.56,17.312 C179.951997,17.312 179.440002,17.1320018 179.024,16.772 C178.607998,16.4119982 178.4,15.9200031 178.4,15.296 C178.4,13.6159916 180.103983,12.480003 183.512,11.888 C183.512,10.9439953 183.408001,10.2880018 183.2,9.92 C182.991999,9.55199816 182.560003,9.368 181.904,9.368 C181.583998,9.368 181.276001,9.47199896 180.98,9.68 C180.683999,9.88800104 180.536,10.1679982 180.536,10.52 C180.536,10.7600012 180.456001,10.9599992 180.296,11.12 C180.135999,11.2800008 179.944001,11.36 179.72,11.36 C179.479999,11.36 179.280001,11.2800008 179.12,11.12 C178.959999,10.9599992 178.88,10.7600012 178.88,10.52 C178.88,9.9599972 179.187997,9.5000018 179.804,9.14 C180.420003,8.7799982 181.127996,8.6 181.928,8.6 C183.096006,8.6 183.935997,8.85599744 184.448,9.368 C184.960003,9.88000256 185.216,10.7119942 185.216,11.864 L185.216,15.488 C185.216,16.1120031 185.399998,16.424 185.768,16.424 C185.976001,16.424 186.199999,16.3040012 186.44,16.064 L186.776,16.52 Z M183.512,15.08 L183.512,12.632 C181.303989,13.1440026 180.2,13.9359946 180.2,15.008 C180.2,15.3760018 180.307999,15.6719989 180.524,15.896 C180.740001,16.1200011 181.007998,16.232 181.328,16.232 C181.920003,16.232 182.647996,15.8480038 183.512,15.08 Z M197.088,10.088 C197.088,10.8400038 196.768003,11.216 196.128,11.216 C195.903999,11.216 195.708001,11.1280009 195.54,10.952 C195.371999,10.7759991 195.288,10.5760011 195.288,10.352 C195.288,9.82399736 195.032003,9.56 194.52,9.56 C194.151998,9.56 193.752002,9.81599744 193.32,10.328 C192.887998,10.8400026 192.672,11.5199958 192.672,12.368 L192.672,13.688 C192.672,14.888006 192.787999,15.6559983 193.02,15.992 C193.252001,16.3280017 193.767996,16.496 194.568,16.496 L194.568,17 L189.072,17 L189.072,16.496 C189.872004,16.496 190.387999,16.3280017 190.62,15.992 C190.852001,15.6559983 190.968,14.888006 190.968,13.688 L190.968,12.488 C190.968,11.3039941 190.852001,10.5440017 190.62,10.208 C190.387999,9.87199832 189.872004,9.704 189.072,9.704 L189.072,9.2 L192.264,8.6 C192.408001,8.90400152 192.543999,9.47999576 192.672,10.328 C192.912001,9.8479976 193.271998,9.44000168 193.752,9.104 C194.232002,8.76799832 194.711998,8.6 195.192,8.6 C195.800003,8.6 196.267998,8.7599984 196.596,9.08 C196.924002,9.4000016 197.088,9.73599824 197.088,10.088 Z M204.448,13.664 C204.752002,13.1999977 204.904,12.6000037 204.904,11.864 C204.904,11.1279963 204.756001,10.5280023 204.46,10.064 C204.163999,9.59999768 203.736003,9.368 203.176,9.368 C202.615997,9.368 202.184002,9.59999768 201.88,10.064 C201.575998,10.5280023 201.424,11.1279963 201.424,11.864 C201.424,12.6000037 201.575998,13.1959977 201.88,13.652 C202.184002,14.1080023 202.615997,14.336 203.176,14.336 C203.736003,14.336 204.159999,14.1120022 204.448,13.664 Z M200.944,16.136 C200.944,16.6160024 201.671993,16.9199994 203.128,17.048 C204.664008,17.1760006 205.775997,17.5279971 206.464,18.104 C207.152003,18.6800029 207.496,19.3759959 207.496,20.192 C207.496,21.1680049 207.092004,21.9479971 206.284,22.532 C205.475996,23.1160029 204.464006,23.408 203.248,23.408 C201.951994,23.408 200.908004,23.1400027 200.116,22.604 C199.323996,22.0679973 198.96,21.4400036 199.024,20.72 C199.088,19.9999964 199.599995,19.3920025 200.56,18.896 L200.992,19.16 C200.527998,19.6880026 200.28,20.1719978 200.248,20.612 C200.216,21.0520022 200.355998,21.3999987 200.668,21.656 C200.980002,21.9120013 201.363998,22.1119993 201.82,22.256 C202.276002,22.4000007 202.751998,22.472 203.248,22.472 C204.032004,22.472 204.723997,22.3000017 205.324,21.956 C205.924003,21.6119983 206.224,21.1680027 206.224,20.624 C206.224,20.0959974 205.964003,19.7120012 205.444,19.472 C204.923997,19.2319988 204.112006,19.0560006 203.008,18.944 C200.735989,18.7199989 199.6,17.9760063 199.6,16.712 C199.6,15.8479957 200.271993,15.2080021 201.616,14.792 C200.991997,14.5039986 200.500002,14.1040026 200.14,13.592 C199.779998,13.0799974 199.6,12.5040032 199.6,11.864 C199.6,10.9679955 199.947997,10.2000032 200.644,9.56 C201.340003,8.9199968 202.183995,8.6 203.176,8.6 C204.136005,8.6 204.959997,8.90399696 205.648,9.512 C205.856001,9.25599872 206.139998,9.04000088 206.5,8.864 C206.860002,8.68799912 207.175999,8.6 207.448,8.6 C208.152004,8.6 208.599999,8.89599704 208.792,9.488 C208.936001,9.93600224 208.864001,10.2719989 208.576,10.496 C208.48,10.5760004 208.368001,10.616 208.24,10.616 C207.999999,10.6320001 207.820001,10.5840006 207.7,10.472 C207.579999,10.3599994 207.508,10.2360007 207.484,10.1 C207.46,9.96399932 207.396001,9.8360006 207.292,9.716 C207.187999,9.5959994 207.024001,9.536 206.8,9.536 C206.559999,9.536 206.312001,9.66399872 206.056,9.92 C206.520002,10.4800028 206.752,11.1279963 206.752,11.864 C206.752,12.7120042 206.440003,13.439997 205.816,14.048 C205.191997,14.656003 204.464004,15.0159994 203.632,15.128 C201.839991,15.336001 200.944,15.6719977 200.944,16.136 Z M212.96,11.504 L216.944,11.504 C217.104001,11.0559978 217.036001,10.6200021 216.74,10.196 C216.443999,9.77199788 215.936004,9.56 215.216,9.56 C214.703997,9.56 214.244002,9.73599824 213.836,10.088 C213.427998,10.4400018 213.136001,10.911997 212.96,11.504 Z M212.816,12.392 C212.671999,13.5760059 212.859997,14.5399963 213.38,15.284 C213.900003,16.0280037 214.751994,16.4 215.936,16.4 C216.336002,16.4 216.791997,16.296001 217.304,16.088 C217.816003,15.879999 218.239998,15.6160016 218.576,15.296 L219.008,15.824 C218.575998,16.2880023 218.024003,16.6679985 217.352,16.964 C216.679997,17.2600015 216.008003,17.408 215.336,17.408 C214.039994,17.408 212.976004,16.9800043 212.144,16.124 C211.311996,15.2679957 210.896,14.2240062 210.896,12.992 C210.896,11.7599938 211.347995,10.7200042 212.252,9.872 C213.156005,9.02399576 214.183994,8.6 215.336,8.6 C216.424005,8.6 217.311997,8.9799962 218,9.74 C218.688003,10.5000038 218.888001,11.383995 218.6,12.392 L212.816,12.392 Z M229.128,14.552 L229.128,11.456 C228.903999,10.8799971 228.576002,10.4200017 228.144,10.076 C227.711998,9.73199828 227.232003,9.56 226.704,9.56 C225.807996,9.56 225.128002,9.8799968 224.664,10.52 C224.199998,11.1600032 223.968,11.983995 223.968,12.992 C223.968,14.0160051 224.199998,14.8479968 224.664,15.488 C225.128002,16.1280032 225.807996,16.448 226.704,16.448 C227.232003,16.448 227.711998,16.2760017 228.144,15.932 C228.576002,15.5879983 228.903999,15.1280029 229.128,14.552 Z M229.128,10.016 L229.128,6.104 C229.128,4.903994 229.012001,4.13600168 228.78,3.8 C228.547999,3.46399832 228.032004,3.296 227.232,3.296 L227.232,2.792 L230.832,2.192 L230.832,13.496 C230.832,14.696006 230.947999,15.4639983 231.18,15.8 C231.412001,16.1360017 231.927996,16.304 232.728,16.304 L232.728,16.808 L229.536,17.408 C229.423999,17.1679988 229.296001,16.6800037 229.152,15.944 C228.367996,16.9200049 227.384006,17.408 226.2,17.408 C225.063994,17.408 224.084004,16.9760043 223.26,16.112 C222.435996,15.2479957 222.024,14.2080061 222.024,12.992 C222.024,11.7759939 222.435996,10.7400043 223.26,9.884 C224.084004,9.02799572 225.063994,8.6 226.2,8.6 C227.384006,8.6 228.359996,9.07199528 229.128,10.016 Z M248.792,16.112 C249.784005,16.112 250.543997,15.816003 251.072,15.224 C251.600003,14.631997 251.864,13.8800046 251.864,12.968 C251.864,12.0399954 251.600003,11.276003 251.072,10.676 C250.543997,10.075997 249.784005,9.776 248.792,9.776 L245.888,9.776 L245.888,13.328 C245.888,14.528006 246.019999,15.2919984 246.284,15.62 C246.548001,15.9480016 247.175995,16.112 248.168,16.112 L248.792,16.112 Z M245.888,3.488 L245.888,8.888 L248.024,8.888 C248.888004,8.888 249.543998,8.63600252 249.992,8.132 C250.440002,7.62799748 250.664,6.98400392 250.664,6.2 C250.664,5.41599608 250.440002,4.76800256 249.992,4.256 C249.543998,3.74399744 248.888004,3.488 248.024,3.488 L245.888,3.488 Z M250.904,9.176 C251.832005,9.46400144 252.575997,9.95199656 253.136,10.64 C253.696003,11.3280034 253.976,12.1039957 253.976,12.968 C253.976,14.1360058 253.520005,15.0999962 252.608,15.86 C251.695995,16.6200038 250.432008,17 248.816,17 L241.688,17 L241.688,16.496 C242.680005,16.496 243.307999,16.3280017 243.572,15.992 C243.836001,15.6559983 243.968,14.888006 243.968,13.688 L243.968,5.888 C243.968,4.687994 243.836001,3.92400164 243.572,3.596 C243.307999,3.26799836 242.680005,3.104 241.688,3.104 L241.688,2.6 L248.144,2.6 C249.616007,2.6 250.755996,2.9399966 251.564,3.62 C252.372004,4.3000034 252.776,5.1599948 252.776,6.2 C252.776,7.44800624 252.152006,8.43999632 250.904,9.176 Z M265.776,9.896 C266.736005,10.7440042 267.216,11.7759939 267.216,12.992 C267.216,14.2080061 266.740005,15.2479957 265.788,16.112 C264.835995,16.9760043 263.696007,17.408 262.368,17.408 C261.039993,17.408 259.900005,16.9760043 258.948,16.112 C257.995995,15.2479957 257.52,14.2080061 257.52,12.992 C257.52,11.7759939 257.995995,10.7400043 258.948,9.884 C259.900005,9.02799572 261.039993,8.6 262.368,8.6 C263.696007,8.6 264.831995,9.03199568 265.776,9.896 Z M264.528,15.512 C265.024002,14.8559967 265.272,14.0160051 265.272,12.992 C265.272,11.9679949 265.024002,11.1320032 264.528,10.484 C264.031998,9.83599676 263.312005,9.512 262.368,9.512 C261.423995,9.512 260.704002,9.83999672 260.208,10.496 C259.711998,11.1520033 259.464,11.983995 259.464,12.992 C259.464,14.000005 259.711998,14.8319967 260.208,15.488 C260.704002,16.1440033 261.423995,16.472 262.368,16.472 C263.312005,16.472 264.031998,16.1520032 264.528,15.512 Z M278.296,10.088 C278.296,10.8400038 277.976003,11.216 277.336,11.216 C277.111999,11.216 276.916001,11.1280009 276.748,10.952 C276.579999,10.7759991 276.496,10.5760011 276.496,10.352 C276.496,9.82399736 276.240003,9.56 275.728,9.56 C275.359998,9.56 274.960002,9.81599744 274.528,10.328 C274.095998,10.8400026 273.88,11.5199958 273.88,12.368 L273.88,13.688 C273.88,14.888006 273.995999,15.6559983 274.228,15.992 C274.460001,16.3280017 274.975996,16.496 275.776,16.496 L275.776,17 L270.28,17 L270.28,16.496 C271.080004,16.496 271.595999,16.3280017 271.828,15.992 C272.060001,15.6559983 272.176,14.888006 272.176,13.688 L272.176,12.488 C272.176,11.3039941 272.060001,10.5440017 271.828,10.208 C271.595999,9.87199832 271.080004,9.704 270.28,9.704 L270.28,9.2 L273.472,8.6 C273.616001,8.90400152 273.751999,9.47999576 273.88,10.328 C274.120001,9.8479976 274.479998,9.44000168 274.96,9.104 C275.440002,8.76799832 275.919998,8.6 276.4,8.6 C277.008003,8.6 277.475998,8.7599984 277.804,9.08 C278.132002,9.4000016 278.296,9.73599824 278.296,10.088 Z M289.208,9.896 C290.168005,10.7440042 290.648,11.7759939 290.648,12.992 C290.648,14.2080061 290.172005,15.2479957 289.22,16.112 C288.267995,16.9760043 287.128007,17.408 285.8,17.408 C284.471993,17.408 283.332005,16.9760043 282.38,16.112 C281.427995,15.2479957 280.952,14.2080061 280.952,12.992 C280.952,11.7759939 281.427995,10.7400043 282.38,9.884 C283.332005,9.02799572 284.471993,8.6 285.8,8.6 C287.128007,8.6 288.263995,9.03199568 289.208,9.896 Z M287.96,15.512 C288.456002,14.8559967 288.704,14.0160051 288.704,12.992 C288.704,11.9679949 288.456002,11.1320032 287.96,10.484 C287.463998,9.83599676 286.744005,9.512 285.8,9.512 C284.855995,9.512 284.136002,9.83999672 283.64,10.496 C283.143998,11.1520033 282.896,11.983995 282.896,12.992 C282.896,14.000005 283.143998,14.8319967 283.64,15.488 C284.136002,16.1440033 284.855995,16.472 285.8,16.472 C286.744005,16.472 287.463998,16.1520032 287.96,15.512 Z M297.312,10.328 C298.224005,9.17599424 299.335993,8.6 300.648,8.6 C301.688005,8.6 302.467997,8.92799672 302.988,9.584 C303.508003,10.2400033 303.768,11.1039946 303.768,12.176 L303.768,13.688 C303.768,14.888006 303.883999,15.6559983 304.116,15.992 C304.348001,16.3280017 304.863996,16.496 305.664,16.496 L305.664,17 L300.168,17 L300.168,16.496 C300.952004,16.496 301.463999,16.3240017 301.704,15.98 C301.944001,15.6359983 302.064,14.8720059 302.064,13.688 L302.064,12.296 C302.064,10.5839914 301.400007,9.728 300.072,9.728 C299.383997,9.728 298.752003,9.9679976 298.176,10.448 C297.599997,10.9280024 297.312,11.4879968 297.312,12.128 L297.312,13.688 C297.312,14.9200062 297.407999,15.6959984 297.6,16.016 C297.792001,16.3360016 298.255996,16.496 298.992,16.496 L298.992,17 L293.712,17 L293.712,16.496 C294.512004,16.496 295.027999,16.3280017 295.26,15.992 C295.492001,15.6559983 295.608,14.888006 295.608,13.688 L295.608,12.488 C295.608,11.3039941 295.492001,10.5440017 295.26,10.208 C295.027999,9.87199832 294.512004,9.704 293.712,9.704 L293.712,9.2 L296.904,8.6 C297.048001,8.90400152 297.183999,9.47999576 297.312,10.328 Z M317.696,12.008 L316.544,14.672 C316.239998,15.3280033 316.227999,15.7959986 316.508,16.076 C316.788001,16.3560014 317.423995,16.496 318.416,16.496 L318.416,17 L312.8,17 L312.8,16.496 C313.312003,16.496 313.707999,16.4760002 313.988,16.436 C314.268001,16.3959998 314.515999,16.2680011 314.732,16.052 C314.948001,15.8359989 315.1,15.6400009 315.188,15.464 C315.276,15.2879991 315.439999,14.9360026 315.68,14.408 L320.96,2.192 L321.272,2.192 L326.576,14.408 C326.816001,14.9360026 326.98,15.2879991 327.068,15.464 C327.156,15.6400009 327.307999,15.8359989 327.524,16.052 C327.740001,16.2680011 327.983999,16.3959998 328.256,16.436 C328.528001,16.4760002 328.919997,16.496 329.432,16.496 L329.432,17 L322.784,17 L322.784,16.496 C323.776005,16.496 324.407999,16.3560014 324.68,16.076 C324.952001,15.7959986 324.944001,15.3280033 324.656,14.672 L323.504,12.008 L317.696,12.008 Z M323.096,11.12 L320.576,5.336 L318.08,11.12 L323.096,11.12 Z M334.92,9.368 C334.279997,9.368 333.736002,9.73599632 333.288,10.472 C332.839998,11.2080037 332.616,12.1199946 332.616,13.208 C332.616,14.200005 332.859998,14.9799972 333.348,15.548 C333.836002,16.1160028 334.559995,16.4 335.52,16.4 C336.448005,16.4 337.303996,16.0320037 338.088,15.296 L338.496,15.824 C337.519995,16.8800053 336.328007,17.408 334.92,17.408 C333.607993,17.408 332.572004,17.0160039 331.812,16.232 C331.051996,15.4479961 330.672,14.4400062 330.672,13.208 C330.672,11.8799934 331.119996,10.7800044 332.016,9.908 C332.912004,9.03599564 333.879995,8.6 334.92,8.6 C335.864005,8.6 336.575998,8.76799832 337.056,9.104 C337.536002,9.44000168 337.776,9.8479976 337.776,10.328 C337.776,10.5840013 337.692001,10.8199989 337.524,11.036 C337.355999,11.2520011 337.088002,11.36 336.72,11.36 C336.463999,11.36 336.244001,11.2680009 336.06,11.084 C335.875999,10.8999991 335.784,10.6720014 335.784,10.4 C335.784,9.71199656 335.496003,9.368 334.92,9.368 Z M345.352,9.368 C344.711997,9.368 344.168002,9.73599632 343.72,10.472 C343.271998,11.2080037 343.048,12.1199946 343.048,13.208 C343.048,14.200005 343.291998,14.9799972 343.78,15.548 C344.268002,16.1160028 344.991995,16.4 345.952,16.4 C346.880005,16.4 347.735996,16.0320037 348.52,15.296 L348.928,15.824 C347.951995,16.8800053 346.760007,17.408 345.352,17.408 C344.039993,17.408 343.004004,17.0160039 342.244,16.232 C341.483996,15.4479961 341.104,14.4400062 341.104,13.208 C341.104,11.8799934 341.551996,10.7800044 342.448,9.908 C343.344004,9.03599564 344.311995,8.6 345.352,8.6 C346.296005,8.6 347.007998,8.76799832 347.488,9.104 C347.968002,9.44000168 348.208,9.8479976 348.208,10.328 C348.208,10.5840013 348.124001,10.8199989 347.956,11.036 C347.787999,11.2520011 347.520002,11.36 347.152,11.36 C346.895999,11.36 346.676001,11.2680009 346.492,11.084 C346.307999,10.8999991 346.216,10.6720014 346.216,10.4 C346.216,9.71199656 345.928003,9.368 345.352,9.368 Z M353.6,11.504 L357.584,11.504 C357.744001,11.0559978 357.676001,10.6200021 357.38,10.196 C357.083999,9.77199788 356.576004,9.56 355.856,9.56 C355.343997,9.56 354.884002,9.73599824 354.476,10.088 C354.067998,10.4400018 353.776001,10.911997 353.6,11.504 Z M353.456,12.392 C353.311999,13.5760059 353.499997,14.5399963 354.02,15.284 C354.540003,16.0280037 355.391994,16.4 356.576,16.4 C356.976002,16.4 357.431997,16.296001 357.944,16.088 C358.456003,15.879999 358.879998,15.6160016 359.216,15.296 L359.648,15.824 C359.215998,16.2880023 358.664003,16.6679985 357.992,16.964 C357.319997,17.2600015 356.648003,17.408 355.976,17.408 C354.679994,17.408 353.616004,16.9800043 352.784,16.124 C351.951996,15.2679957 351.536,14.2240062 351.536,12.992 C351.536,11.7599938 351.987995,10.7200042 352.892,9.872 C353.796005,9.02399576 354.823994,8.6 355.976,8.6 C357.064005,8.6 357.951997,8.9799962 358.64,9.74 C359.328003,10.5000038 359.528001,11.383995 359.24,12.392 L353.456,12.392 Z M370.032,15.488 C370.496002,14.8319967 370.728,14.000005 370.728,12.992 C370.728,11.983995 370.496002,11.1600032 370.032,10.52 C369.567998,9.8799968 368.896004,9.56 368.016,9.56 C367.471997,9.56 366.988002,9.72799832 366.564,10.064 C366.139998,10.4000017 365.808001,10.8559971 365.568,11.432 L365.568,14.528 C365.808001,15.120003 366.139998,15.5879983 366.564,15.932 C366.988002,16.2760017 367.471997,16.448 368.016,16.448 C368.896004,16.448 369.567998,16.1280032 370.032,15.488 Z M365.568,19.712 C365.568,20.8960059 365.683999,21.6559983 365.916,21.992 C366.148001,22.3280017 366.663996,22.496 367.464,22.496 L367.464,23 L361.968,23 L361.968,22.496 C362.768004,22.496 363.283999,22.3320016 363.516,22.004 C363.748001,21.6759984 363.864,20.912006 363.864,19.712 L363.864,12.488 C363.864,11.287994 363.748001,10.5240016 363.516,10.196 C363.283999,9.86799836 362.768004,9.704 361.968,9.704 L361.968,9.2 L365.184,8.6 C365.28,8.77600088 365.399999,9.263996 365.544,10.064 C366.360004,9.08799512 367.351994,8.6 368.52,8.6 C369.656006,8.6 370.631996,9.02799572 371.448,9.884 C372.264004,10.7400043 372.672,11.7759939 372.672,12.992 C372.672,14.2080061 372.264004,15.2479957 371.448,16.112 C370.631996,16.9760043 369.656006,17.408 368.52,17.408 C367.335994,17.408 366.352004,16.9280048 365.568,15.968 L365.568,19.712 Z M376.744,9.848 L375.496,9.848 L375.496,9.272 C376.184003,9.12799928 376.687998,8.8160024 377.008,8.336 C377.328002,7.8559976 377.536,7.20000416 377.632,6.368 L378.448,6.368 L378.448,9.008 L380.536,9.008 L380.536,9.848 L378.448,9.848 L378.448,14.648 C378.448,15.8000058 378.807996,16.376 379.528,16.376 C379.992002,16.376 380.511997,16.1040027 381.088,15.56 L381.496,15.968 C381.159998,16.368002 380.756002,16.6959987 380.284,16.952 C379.811998,17.2080013 379.376002,17.336 378.976,17.336 C378.287997,17.336 377.744002,17.1120022 377.344,16.664 C376.943998,16.2159978 376.744,15.5440045 376.744,14.648 L376.744,9.848 Z M392.312,9.896 C393.272005,10.7440042 393.752,11.7759939 393.752,12.992 C393.752,14.2080061 393.276005,15.2479957 392.324,16.112 C391.371995,16.9760043 390.232007,17.408 388.904,17.408 C387.575993,17.408 386.436005,16.9760043 385.484,16.112 C384.531995,15.2479957 384.056,14.2080061 384.056,12.992 C384.056,11.7759939 384.531995,10.7400043 385.484,9.884 C386.436005,9.02799572 387.575993,8.6 388.904,8.6 C390.232007,8.6 391.367995,9.03199568 392.312,9.896 Z M391.064,15.512 C391.560002,14.8559967 391.808,14.0160051 391.808,12.992 C391.808,11.9679949 391.560002,11.1320032 391.064,10.484 C390.567998,9.83599676 389.848005,9.512 388.904,9.512 C387.959995,9.512 387.240002,9.83999672 386.744,10.496 C386.247998,11.1520033 386,11.983995 386,12.992 C386,14.000005 386.247998,14.8319967 386.744,15.488 C387.240002,16.1440033 387.959995,16.472 388.904,16.472 C389.848005,16.472 390.567998,16.1520032 391.064,15.512 Z M404.832,10.088 C404.832,10.8400038 404.512003,11.216 403.872,11.216 C403.647999,11.216 403.452001,11.1280009 403.284,10.952 C403.115999,10.7759991 403.032,10.5760011 403.032,10.352 C403.032,9.82399736 402.776003,9.56 402.264,9.56 C401.895998,9.56 401.496002,9.81599744 401.064,10.328 C400.631998,10.8400026 400.416,11.5199958 400.416,12.368 L400.416,13.688 C400.416,14.888006 400.531999,15.6559983 400.764,15.992 C400.996001,16.3280017 401.511996,16.496 402.312,16.496 L402.312,17 L396.816,17 L396.816,16.496 C397.616004,16.496 398.131999,16.3280017 398.364,15.992 C398.596001,15.6559983 398.712,14.888006 398.712,13.688 L398.712,12.488 C398.712,11.3039941 398.596001,10.5440017 398.364,10.208 C398.131999,9.87199832 397.616004,9.704 396.816,9.704 L396.816,9.2 L400.008,8.6 C400.152001,8.90400152 400.287999,9.47999576 400.416,10.328 C400.656001,9.8479976 401.015998,9.44000168 401.496,9.104 C401.976002,8.76799832 402.455998,8.6 402.936,8.6 C403.544003,8.6 404.011998,8.7599984 404.34,9.08 C404.668002,9.4000016 404.832,9.73599824 404.832,10.088 Z M416.912,12.008 L415.76,14.672 C415.455998,15.3280033 415.443999,15.7959986 415.724,16.076 C416.004001,16.3560014 416.639995,16.496 417.632,16.496 L417.632,17 L412.016,17 L412.016,16.496 C412.528003,16.496 412.923999,16.4760002 413.204,16.436 C413.484001,16.3959998 413.731999,16.2680011 413.948,16.052 C414.164001,15.8359989 414.316,15.6400009 414.404,15.464 C414.492,15.2879991 414.655999,14.9360026 414.896,14.408 L420.176,2.192 L420.488,2.192 L425.792,14.408 C426.032001,14.9360026 426.196,15.2879991 426.284,15.464 C426.372,15.6400009 426.523999,15.8359989 426.74,16.052 C426.956001,16.2680011 427.199999,16.3959998 427.472,16.436 C427.744001,16.4760002 428.135997,16.496 428.648,16.496 L428.648,17 L422,17 L422,16.496 C422.992005,16.496 423.623999,16.3560014 423.896,16.076 C424.168001,15.7959986 424.160001,15.3280033 423.872,14.672 L422.72,12.008 L416.912,12.008 Z M422.312,11.12 L419.792,5.336 L417.296,11.12 L422.312,11.12 Z M430.656,9.848 L429.408,9.848 L429.408,9.272 C430.096003,9.12799928 430.599998,8.8160024 430.92,8.336 C431.240002,7.8559976 431.448,7.20000416 431.544,6.368 L432.36,6.368 L432.36,9.008 L434.448,9.008 L434.448,9.848 L432.36,9.848 L432.36,14.648 C432.36,15.8000058 432.719996,16.376 433.44,16.376 C433.904002,16.376 434.423997,16.1040027 435,15.56 L435.408,15.968 C435.071998,16.368002 434.668002,16.6959987 434.196,16.952 C433.723998,17.2080013 433.288002,17.336 432.888,17.336 C432.199997,17.336 431.656002,17.1120022 431.256,16.664 C430.855998,16.2159978 430.656,15.5440045 430.656,14.648 L430.656,9.848 Z M446.224,9.896 C447.184005,10.7440042 447.664,11.7759939 447.664,12.992 C447.664,14.2080061 447.188005,15.2479957 446.236,16.112 C445.283995,16.9760043 444.144007,17.408 442.816,17.408 C441.487993,17.408 440.348005,16.9760043 439.396,16.112 C438.443995,15.2479957 437.968,14.2080061 437.968,12.992 C437.968,11.7759939 438.443995,10.7400043 439.396,9.884 C440.348005,9.02799572 441.487993,8.6 442.816,8.6 C444.144007,8.6 445.279995,9.03199568 446.224,9.896 Z M444.976,15.512 C445.472002,14.8559967 445.72,14.0160051 445.72,12.992 C445.72,11.9679949 445.472002,11.1320032 444.976,10.484 C444.479998,9.83599676 443.760005,9.512 442.816,9.512 C441.871995,9.512 441.152002,9.83999672 440.656,10.496 C440.159998,11.1520033 439.912,11.983995 439.912,12.992 C439.912,14.000005 440.159998,14.8319967 440.656,15.488 C441.152002,16.1440033 441.871995,16.472 442.816,16.472 C443.760005,16.472 444.479998,16.1520032 444.976,15.512 Z M460.208,12.128 L460.208,13.688 C460.208,14.9520063 460.291999,15.7359985 460.46,16.04 C460.628001,16.3440015 461.047997,16.496 461.72,16.496 L461.72,17 L457.016,17 L457.016,16.496 C457.688003,16.496 458.107999,16.3440015 458.276,16.04 C458.444001,15.7359985 458.528,14.9520063 458.528,13.688 L458.528,12.296 C458.528,10.5839914 457.952006,9.728 456.8,9.728 C456.303998,9.728 455.768003,9.95999768 455.192,10.424 C454.615997,10.8880023 454.328,11.4559966 454.328,12.128 L454.328,13.688 C454.328,14.9360062 454.411999,15.7159984 454.58,16.028 C454.748001,16.3400016 455.159997,16.496 455.816,16.496 L455.816,17 L450.728,17 L450.728,16.496 C451.528004,16.496 452.043999,16.3280017 452.276,15.992 C452.508001,15.6559983 452.624,14.888006 452.624,13.688 L452.624,12.488 C452.624,11.3039941 452.508001,10.5440017 452.276,10.208 C452.043999,9.87199832 451.528004,9.704 450.728,9.704 L450.728,9.2 L453.92,8.6 C454.064001,8.90400152 454.199999,9.47999576 454.328,10.328 C455.240005,9.17599424 456.279994,8.6 457.448,8.6 C458.776007,8.6 459.623998,9.199994 459.992,10.4 C460.312002,9.95199776 460.787997,9.54000188 461.42,9.164 C462.052003,8.78799812 462.695997,8.6 463.352,8.6 C465.192009,8.6 466.112,9.79198808 466.112,12.176 L466.112,13.688 C466.112,14.888006 466.227999,15.6559983 466.46,15.992 C466.692001,16.3280017 467.207996,16.496 468.008,16.496 L468.008,17 L462.92,17 L462.92,16.496 C463.592003,16.496 464.007999,16.3440015 464.168,16.04 C464.328001,15.7359985 464.408,14.9520063 464.408,13.688 L464.408,12.296 C464.408,10.5839914 463.840006,9.728 462.704,9.728 C462.207998,9.728 461.668003,9.95999768 461.084,10.424 C460.499997,10.8880023 460.208,11.4559966 460.208,12.128 Z" id="Negatively-Charged-B-Copy" fill="#524740"></path>
                </g>
                <g id="Silicon-Atom">
                    <circle id="Oval-Copy-5" fill="#252525" cx="10" cy="10" r="10"></circle>
                    <path d="M37.664,16.28 C37.2959982,16.5840015 37.0640005,16.9599978 36.968,17.408 L36.488,17.408 L36.488,12.128 L36.992,12.128 C36.992,12.1920003 36.996,12.2759995 37.004,12.38 C37.012,12.4840005 37.0439997,12.6839985 37.1,12.98 C37.1560003,13.2760015 37.2359995,13.5599986 37.34,13.832 C37.4440005,14.1040014 37.6079989,14.4079983 37.832,14.744 C38.0560011,15.0800017 38.3159985,15.3679988 38.612,15.608 C38.9080015,15.8480012 39.2999976,16.0479992 39.788,16.208 C40.2760024,16.3680008 40.815997,16.448 41.408,16.448 C42.2720043,16.448 42.9879972,16.2000025 43.556,15.704 C44.1240028,15.2079975 44.408,14.5760038 44.408,13.808 C44.408,12.8319951 43.4880092,11.8640048 41.648,10.904 L39.344,9.728 C38.5919962,9.327998 37.9600026,8.78400344 37.448,8.096 C36.9359974,7.40799656 36.68,6.63200432 36.68,5.768 C36.68,4.75999496 37.0559962,3.91200344 37.808,3.224 C38.5600038,2.53599656 39.5119942,2.192 40.664,2.192 C41.7200053,2.192 42.6959955,2.51999672 43.592,3.176 C43.9600018,2.87199848 44.1919995,2.50400216 44.288,2.072 L44.768,2.072 L44.768,7.352 L44.264,7.352 C44.0239988,4.551986 42.800011,3.152 40.592,3.152 C39.9199966,3.152 39.3640022,3.35599796 38.924,3.764 C38.4839978,4.17200204 38.264,4.67999696 38.264,5.288 C38.264,5.88000296 38.4759979,6.37999796 38.9,6.788 C39.3240021,7.19600204 40.0879945,7.68799712 41.192,8.264 L43.472,9.44 C45.1520084,10.2880042 45.992,11.5039921 45.992,13.088 C45.992,14.3680064 45.5480044,15.407996 44.66,16.208 C43.7719956,17.008004 42.6880064,17.408 41.408,17.408 C40.8639973,17.408 40.3440025,17.3280008 39.848,17.168 C39.3519975,17.0079992 38.904002,16.828001 38.504,16.628 C38.103998,16.427999 37.8240008,16.3120002 37.664,16.28 Z M54.576,17 L49.08,17 L49.08,16.496 C49.880004,16.496 50.3959988,16.3280017 50.628,15.992 C50.8600012,15.6559983 50.976,14.888006 50.976,13.688 L50.976,12.488 C50.976,11.3039941 50.8600012,10.5440017 50.628,10.208 C50.3959988,9.87199832 49.880004,9.704 49.08,9.704 L49.08,9.2 L52.68,8.6 L52.68,13.688 C52.68,14.888006 52.7959988,15.6559983 53.028,15.992 C53.2600012,16.3280017 53.775996,16.496 54.576,16.496 L54.576,17 Z M52.872,5.168 C52.872,5.47200152 52.768001,5.72799896 52.56,5.936 C52.351999,6.14400104 52.1040014,6.248 51.816,6.248 C51.5279986,6.248 51.280001,6.14400104 51.072,5.936 C50.863999,5.72799896 50.76,5.47200152 50.76,5.168 C50.76,4.87999856 50.863999,4.63200104 51.072,4.424 C51.280001,4.21599896 51.5279986,4.112 51.816,4.112 C52.1040014,4.112 52.351999,4.21599896 52.56,4.424 C52.768001,4.63200104 52.872,4.87999856 52.872,5.168 Z M61.984,17 L56.488,17 L56.488,16.496 C57.288004,16.496 57.8039988,16.3280017 58.036,15.992 C58.2680012,15.6559983 58.384,14.888006 58.384,13.688 L58.384,6.104 C58.384,4.903994 58.2680012,4.13600168 58.036,3.8 C57.8039988,3.46399832 57.288004,3.296 56.488,3.296 L56.488,2.792 L60.088,2.192 L60.088,13.688 C60.088,14.888006 60.2039988,15.6559983 60.436,15.992 C60.6680012,16.3280017 61.183996,16.496 61.984,16.496 L61.984,17 Z M69.872,17 L64.376,17 L64.376,16.496 C65.176004,16.496 65.6919988,16.3280017 65.924,15.992 C66.1560012,15.6559983 66.272,14.888006 66.272,13.688 L66.272,12.488 C66.272,11.3039941 66.1560012,10.5440017 65.924,10.208 C65.6919988,9.87199832 65.176004,9.704 64.376,9.704 L64.376,9.2 L67.976,8.6 L67.976,13.688 C67.976,14.888006 68.0919988,15.6559983 68.324,15.992 C68.5560012,16.3280017 69.071996,16.496 69.872,16.496 L69.872,17 Z M68.168,5.168 C68.168,5.47200152 68.064001,5.72799896 67.856,5.936 C67.647999,6.14400104 67.4000014,6.248 67.112,6.248 C66.8239986,6.248 66.576001,6.14400104 66.368,5.936 C66.159999,5.72799896 66.056,5.47200152 66.056,5.168 C66.056,4.87999856 66.159999,4.63200104 66.368,4.424 C66.576001,4.21599896 66.8239986,4.112 67.112,4.112 C67.4000014,4.112 67.647999,4.21599896 67.856,4.424 C68.064001,4.63200104 68.168,4.87999856 68.168,5.168 Z M76.728,9.368 C76.0879968,9.368 75.5440022,9.73599632 75.096,10.472 C74.6479978,11.2080037 74.424,12.1199946 74.424,13.208 C74.424,14.200005 74.6679976,14.9799972 75.156,15.548 C75.6440024,16.1160028 76.3679952,16.4 77.328,16.4 C78.2560046,16.4 79.1119961,16.0320037 79.896,15.296 L80.304,15.824 C79.3279951,16.8800053 78.136007,17.408 76.728,17.408 C75.4159934,17.408 74.3800038,17.0160039 73.62,16.232 C72.8599962,15.4479961 72.48,14.4400062 72.48,13.208 C72.48,11.8799934 72.9279955,10.7800044 73.824,9.908 C74.7200045,9.03599564 75.6879948,8.6 76.728,8.6 C77.6720047,8.6 78.3839976,8.76799832 78.864,9.104 C79.3440024,9.44000168 79.584,9.8479976 79.584,10.328 C79.584,10.5840013 79.5000008,10.8199989 79.332,11.036 C79.1639992,11.2520011 78.8960018,11.36 78.528,11.36 C78.2719987,11.36 78.0520009,11.2680009 77.868,11.084 C77.6839991,10.8999991 77.592,10.6720014 77.592,10.4 C77.592,9.71199656 77.3040029,9.368 76.728,9.368 Z M91.168,9.896 C92.1280048,10.7440042 92.608,11.7759939 92.608,12.992 C92.608,14.2080061 92.1320048,15.2479957 91.18,16.112 C90.2279952,16.9760043 89.0880066,17.408 87.76,17.408 C86.4319934,17.408 85.2920048,16.9760043 84.34,16.112 C83.3879952,15.2479957 82.912,14.2080061 82.912,12.992 C82.912,11.7759939 83.3879952,10.7400043 84.34,9.884 C85.2920048,9.02799572 86.4319934,8.6 87.76,8.6 C89.0880066,8.6 90.2239953,9.03199568 91.168,9.896 Z M89.92,15.512 C90.4160025,14.8559967 90.664,14.0160051 90.664,12.992 C90.664,11.9679949 90.4160025,11.1320032 89.92,10.484 C89.4239975,9.83599676 88.7040047,9.512 87.76,9.512 C86.8159953,9.512 86.0960025,9.83999672 85.6,10.496 C85.1039975,11.1520033 84.856,11.983995 84.856,12.992 C84.856,14.000005 85.1039975,14.8319967 85.6,15.488 C86.0960025,16.1440033 86.8159953,16.472 87.76,16.472 C88.7040047,16.472 89.4239975,16.1520032 89.92,15.512 Z M99.272,10.328 C100.184005,9.17599424 101.295993,8.6 102.608,8.6 C103.648005,8.6 104.427997,8.92799672 104.948,9.584 C105.468003,10.2400033 105.728,11.1039946 105.728,12.176 L105.728,13.688 C105.728,14.888006 105.843999,15.6559983 106.076,15.992 C106.308001,16.3280017 106.823996,16.496 107.624,16.496 L107.624,17 L102.128,17 L102.128,16.496 C102.912004,16.496 103.423999,16.3240017 103.664,15.98 C103.904001,15.6359983 104.024,14.8720059 104.024,13.688 L104.024,12.296 C104.024,10.5839914 103.360007,9.728 102.032,9.728 C101.343997,9.728 100.712003,9.9679976 100.136,10.448 C99.5599971,10.9280024 99.272,11.4879968 99.272,12.128 L99.272,13.688 C99.272,14.9200062 99.367999,15.6959984 99.56,16.016 C99.752001,16.3360016 100.215996,16.496 100.952,16.496 L100.952,17 L95.672,17 L95.672,16.496 C96.472004,16.496 96.9879988,16.3280017 97.22,15.992 C97.4520012,15.6559983 97.568,14.888006 97.568,13.688 L97.568,12.488 C97.568,11.3039941 97.4520012,10.5440017 97.22,10.208 C96.9879988,9.87199832 96.472004,9.704 95.672,9.704 L95.672,9.2 L98.864,8.6 C99.0080007,8.90400152 99.1439994,9.47999576 99.272,10.328 Z M119.656,12.008 L118.504,14.672 C118.199998,15.3280033 118.187999,15.7959986 118.468,16.076 C118.748001,16.3560014 119.383995,16.496 120.376,16.496 L120.376,17 L114.76,17 L114.76,16.496 C115.272003,16.496 115.667999,16.4760002 115.948,16.436 C116.228001,16.3959998 116.475999,16.2680011 116.692,16.052 C116.908001,15.8359989 117.06,15.6400009 117.148,15.464 C117.236,15.2879991 117.399999,14.9360026 117.64,14.408 L122.92,2.192 L123.232,2.192 L128.536,14.408 C128.776001,14.9360026 128.94,15.2879991 129.028,15.464 C129.116,15.6400009 129.267999,15.8359989 129.484,16.052 C129.700001,16.2680011 129.943999,16.3959998 130.216,16.436 C130.488001,16.4760002 130.879997,16.496 131.392,16.496 L131.392,17 L124.744,17 L124.744,16.496 C125.736005,16.496 126.367999,16.3560014 126.64,16.076 C126.912001,15.7959986 126.904001,15.3280033 126.616,14.672 L125.464,12.008 L119.656,12.008 Z M125.056,11.12 L122.536,5.336 L120.04,11.12 L125.056,11.12 Z M133.4,9.848 L132.152,9.848 L132.152,9.272 C132.840003,9.12799928 133.343998,8.8160024 133.664,8.336 C133.984002,7.8559976 134.192,7.20000416 134.288,6.368 L135.104,6.368 L135.104,9.008 L137.192,9.008 L137.192,9.848 L135.104,9.848 L135.104,14.648 C135.104,15.8000058 135.463996,16.376 136.184,16.376 C136.648002,16.376 137.167997,16.1040027 137.744,15.56 L138.152,15.968 C137.815998,16.368002 137.412002,16.6959987 136.94,16.952 C136.467998,17.2080013 136.032002,17.336 135.632,17.336 C134.943997,17.336 134.400002,17.1120022 134,16.664 C133.599998,16.2159978 133.4,15.5440045 133.4,14.648 L133.4,9.848 Z M148.968,9.896 C149.928005,10.7440042 150.408,11.7759939 150.408,12.992 C150.408,14.2080061 149.932005,15.2479957 148.98,16.112 C148.027995,16.9760043 146.888007,17.408 145.56,17.408 C144.231993,17.408 143.092005,16.9760043 142.14,16.112 C141.187995,15.2479957 140.712,14.2080061 140.712,12.992 C140.712,11.7759939 141.187995,10.7400043 142.14,9.884 C143.092005,9.02799572 144.231993,8.6 145.56,8.6 C146.888007,8.6 148.023995,9.03199568 148.968,9.896 Z M147.72,15.512 C148.216002,14.8559967 148.464,14.0160051 148.464,12.992 C148.464,11.9679949 148.216002,11.1320032 147.72,10.484 C147.223998,9.83599676 146.504005,9.512 145.56,9.512 C144.615995,9.512 143.896002,9.83999672 143.4,10.496 C142.903998,11.1520033 142.656,11.983995 142.656,12.992 C142.656,14.000005 142.903998,14.8319967 143.4,15.488 C143.896002,16.1440033 144.615995,16.472 145.56,16.472 C146.504005,16.472 147.223998,16.1520032 147.72,15.512 Z M162.952,12.128 L162.952,13.688 C162.952,14.9520063 163.035999,15.7359985 163.204,16.04 C163.372001,16.3440015 163.791997,16.496 164.464,16.496 L164.464,17 L159.76,17 L159.76,16.496 C160.432003,16.496 160.851999,16.3440015 161.02,16.04 C161.188001,15.7359985 161.272,14.9520063 161.272,13.688 L161.272,12.296 C161.272,10.5839914 160.696006,9.728 159.544,9.728 C159.047998,9.728 158.512003,9.95999768 157.936,10.424 C157.359997,10.8880023 157.072,11.4559966 157.072,12.128 L157.072,13.688 C157.072,14.9360062 157.155999,15.7159984 157.324,16.028 C157.492001,16.3400016 157.903997,16.496 158.56,16.496 L158.56,17 L153.472,17 L153.472,16.496 C154.272004,16.496 154.787999,16.3280017 155.02,15.992 C155.252001,15.6559983 155.368,14.888006 155.368,13.688 L155.368,12.488 C155.368,11.3039941 155.252001,10.5440017 155.02,10.208 C154.787999,9.87199832 154.272004,9.704 153.472,9.704 L153.472,9.2 L156.664,8.6 C156.808001,8.90400152 156.943999,9.47999576 157.072,10.328 C157.984005,9.17599424 159.023994,8.6 160.192,8.6 C161.520007,8.6 162.367998,9.199994 162.736,10.4 C163.056002,9.95199776 163.531997,9.54000188 164.164,9.164 C164.796003,8.78799812 165.439997,8.6 166.096,8.6 C167.936009,8.6 168.856,9.79198808 168.856,12.176 L168.856,13.688 C168.856,14.888006 168.971999,15.6559983 169.204,15.992 C169.436001,16.3280017 169.951996,16.496 170.752,16.496 L170.752,17 L165.664,17 L165.664,16.496 C166.336003,16.496 166.751999,16.3440015 166.912,16.04 C167.072001,15.7359985 167.152,14.9520063 167.152,13.688 L167.152,12.296 C167.152,10.5839914 166.584006,9.728 165.448,9.728 C164.951998,9.728 164.412003,9.95999768 163.828,10.424 C163.243997,10.8880023 162.952,11.4559966 162.952,12.128 Z" id="Silicon-Atom-Copy" fill="#524740"></path>
                </g>
            </g>
        </g>
        <rect id="Rectangle-Copy" stroke="#3D3530" stroke-width="2" fill="#F8FAE4" x="1" y="226" width="898" height="43"></rect>
        <path d="M545.767999,254 L545.767999,237.872 L551.239999,237.872 C553.048008,237.872 554.487994,238.347995 555.559999,239.3 C556.632005,240.252005 557.167999,241.447993 557.167999,242.888 C557.167999,244.312007 556.632005,245.503995 555.559999,246.464 C554.487994,247.424005 553.048008,247.904 551.239999,247.904 L547.351999,247.904 L547.351999,254 L545.767999,254 Z M547.351999,246.392 L551.239999,246.392 C552.536006,246.392 553.575995,246.060003 554.359999,245.396 C555.144003,244.731997 555.535999,243.896005 555.535999,242.888 C555.535999,241.895995 555.144003,241.064003 554.359999,240.392 C553.575995,239.719997 552.536006,239.384 551.239999,239.384 L547.351999,239.384 L547.351999,246.392 Z M566.690666,246.656 L560.234666,246.656 L560.234666,245.216 L566.690666,245.216 L566.690666,246.656 Z M578.421333,237.872 L578.421333,239.456 L572.685333,239.456 L572.685333,254 L571.101333,254 L571.101333,239.456 L565.365333,239.456 L565.365333,237.872 L578.421333,237.872 Z M586.287999,242 L587.871999,242 L581.319999,259.112 L579.735999,259.112 L582.255999,252.536 L577.815999,242 L579.399999,242 L582.999999,250.568 L586.287999,242 Z M597.346666,241.784 C599.058675,241.784 600.51866,242.387994 601.726666,243.596 C602.934672,244.804006 603.538666,246.263991 603.538666,247.976 C603.538666,249.688009 602.934672,251.147994 601.726666,252.356 C600.51866,253.564006 599.058675,254.168 597.346666,254.168 C595.426657,254.168 593.858672,253.440007 592.642666,251.984 L592.642666,259.832 L591.058666,259.832 L591.058666,241.976 L592.642666,241.976 L592.642666,243.944 C593.874672,242.503993 595.442657,241.784 597.346666,241.784 Z M594.034666,251.312 C594.930671,252.208004 596.01866,252.656 597.298666,252.656 C598.578673,252.656 599.670662,252.204005 600.574666,251.3 C601.478671,250.395995 601.930666,249.288007 601.930666,247.976 C601.930666,246.663993 601.478671,245.552005 600.574666,244.64 C599.670662,243.727995 598.578673,243.272 597.298666,243.272 C596.01866,243.272 594.930671,243.727995 594.034666,244.64 C593.138662,245.552005 592.690666,246.663993 592.690666,247.976 C592.690666,249.288007 593.138662,250.399995 594.034666,251.312 Z M612.149333,252.608 C613.221338,252.608 614.181329,252.304003 615.029333,251.696 C615.877337,251.087997 616.453331,250.376004 616.757333,249.56 L618.101333,250.04 C617.733331,251.048005 617.017338,251.975996 615.953333,252.824 C614.889328,253.672004 613.62134,254.088 612.149333,254.072 C610.805326,254.072 609.577338,253.656004 608.465333,252.824 C607.353327,251.991996 606.597335,250.928006 606.197333,249.632 C606.037332,249.103997 605.957333,248.528003 605.957333,247.904 C605.957333,246.175991 606.557327,244.712006 607.757333,243.512 C608.957339,242.311994 610.421324,241.704 612.149333,241.688 C613.717341,241.704 615.085327,242.231995 616.253333,243.272 C617.421339,244.312005 618.093332,245.599992 618.269333,247.136 C618.285333,247.216 618.293333,247.319999 618.293333,247.448 L607.805333,249.344 C608.077334,250.304005 608.621329,251.091997 609.437333,251.708 C610.253337,252.324003 611.157328,252.624 612.149333,252.608 Z M612.005333,243.152 C610.805327,243.168 609.777337,243.599996 608.921333,244.448 C608.065329,245.296004 607.605333,246.311994 607.541333,247.496 C607.541333,247.544 607.545333,247.627999 607.553333,247.748 C607.561333,247.868001 607.565333,247.968 607.565333,248.048 L616.493333,246.44 C616.189331,245.463995 615.621337,244.668003 614.789333,244.052 C613.957329,243.435997 613.029338,243.136 612.005333,243.152 Z M633.858666,254.192 C632.786661,254.192 631.750671,253.920003 630.750666,253.376 C629.750661,252.831997 628.994669,252.288003 628.482666,251.744 L629.586666,250.664 C629.986668,251.096002 630.578662,251.539998 631.362666,251.996 C632.14667,252.452002 632.978662,252.68 633.858666,252.68 C634.930672,252.68 635.774663,252.444002 636.390666,251.972 C637.006669,251.499998 637.314666,250.856004 637.314666,250.04 C637.314666,249.351997 637.014669,248.752003 636.414666,248.24 C635.814663,247.727997 635.08667,247.296002 634.230666,246.944 C633.374662,246.591998 632.514671,246.220002 631.650666,245.828 C630.786662,245.435998 630.054669,244.904003 629.454666,244.232 C628.854663,243.559997 628.554666,242.768005 628.554666,241.856 C628.554666,240.687994 628.994662,239.704004 629.874666,238.904 C630.754671,238.103996 631.986658,237.704 633.570666,237.704 C634.642672,237.704 635.678661,237.975997 636.678666,238.52 C637.678671,239.064003 638.434664,239.607997 638.946666,240.152 L637.842666,241.232 C637.426664,240.783998 636.82667,240.336002 636.042666,239.888 C635.258662,239.439998 634.434671,239.216 633.570666,239.216 C632.498661,239.216 631.654669,239.451998 631.038666,239.924 C630.422663,240.396002 630.114666,241.039996 630.114666,241.856 C630.114666,242.544003 630.414663,243.147997 631.014666,243.668 C631.614669,244.188003 632.342662,244.623998 633.198666,244.976 C634.05467,245.328002 634.914662,245.695998 635.778666,246.08 C636.642671,246.464002 637.374663,246.991997 637.974666,247.664 C638.574669,248.336003 638.874666,249.127995 638.874666,250.04 C638.874666,251.208006 638.434671,252.191996 637.554666,252.992 C636.674662,253.792004 635.442674,254.192 633.858666,254.192 Z M644.197333,238.4 C644.021332,238.592001 643.797334,238.688 643.525333,238.688 C643.253332,238.688 643.025334,238.592001 642.841333,238.4 C642.657332,238.207999 642.565333,237.984001 642.565333,237.728 C642.565333,237.471999 642.657332,237.248001 642.841333,237.056 C643.025334,236.863999 643.253332,236.768 643.525333,236.768 C643.797334,236.768 644.025332,236.863999 644.209333,237.056 C644.393334,237.248001 644.485333,237.471999 644.485333,237.728 C644.485333,237.984001 644.389334,238.207999 644.197333,238.4 Z M642.733333,254 L642.733333,242 L644.317333,242 L644.317333,254 L642.733333,254 Z M648.656,254 L648.656,236.144 L650.24,236.144 L650.24,254 L648.656,254 Z M656.042666,238.4 C655.866665,238.592001 655.642668,238.688 655.370666,238.688 C655.098665,238.688 654.870667,238.592001 654.686666,238.4 C654.502665,238.207999 654.410666,237.984001 654.410666,237.728 C654.410666,237.471999 654.502665,237.248001 654.686666,237.056 C654.870667,236.863999 655.098665,236.768 655.370666,236.768 C655.642668,236.768 655.870665,236.863999 656.054666,237.056 C656.238667,237.248001 656.330666,237.471999 656.330666,237.728 C656.330666,237.984001 656.234667,238.207999 656.042666,238.4 Z M654.578666,254 L654.578666,242 L656.162666,242 L656.162666,254 L654.578666,254 Z M665.829333,254.192 C664.117324,254.192 662.657339,253.588006 661.449333,252.38 C660.241327,251.171994 659.637333,249.712009 659.637333,248 C659.637333,246.287991 660.241327,244.828006 661.449333,243.62 C662.657339,242.411994 664.117324,241.808 665.829333,241.808 C666.917338,241.808 667.929328,242.075997 668.865333,242.612 C669.801338,243.148003 670.54133,243.863996 671.085333,244.76 L669.645333,245.456 C669.213331,244.799997 668.661336,244.280002 667.989333,243.896 C667.31733,243.511998 666.597337,243.32 665.829333,243.32 C664.533326,243.32 663.441337,243.771995 662.553333,244.676 C661.665329,245.580005 661.221333,246.687993 661.221333,248 C661.221333,249.312007 661.665329,250.419995 662.553333,251.324 C663.441337,252.228005 664.533326,252.68 665.829333,252.68 C666.597337,252.68 667.31733,252.488002 667.989333,252.104 C668.661336,251.719998 669.213331,251.200003 669.645333,250.544 L671.085333,251.24 C670.54133,252.136004 669.801338,252.851997 668.865333,253.388 C667.929328,253.924003 666.917338,254.192 665.829333,254.192 Z M684.016,252.368 C682.815994,253.584006 681.360008,254.192 679.648,254.192 C677.935991,254.192 676.476006,253.588006 675.268,252.38 C674.059994,251.171994 673.456,249.712009 673.456,248 C673.456,246.287991 674.059994,244.828006 675.268,243.62 C676.476006,242.411994 677.935991,241.808 679.648,241.808 C681.360008,241.808 682.819994,242.411994 684.028,243.62 C685.236006,244.828006 685.84,246.287991 685.84,248 C685.84,249.696008 685.232006,251.151994 684.016,252.368 Z M679.672,252.68 C680.968006,252.68 682.059995,252.228005 682.948,251.324 C683.836004,250.419995 684.28,249.312007 684.28,248 C684.28,246.687993 683.836004,245.576005 682.948,244.664 C682.059995,243.751995 680.968006,243.296 679.672,243.296 C678.391993,243.296 677.304004,243.751995 676.408,244.664 C675.511995,245.576005 675.064,246.687993 675.064,248 C675.064,249.312007 675.511995,250.419995 676.408,251.324 C677.304004,252.228005 678.391993,252.68 679.672,252.68 Z M694.306666,241.808 C695.698673,241.808 696.866662,242.299995 697.810666,243.284 C698.754671,244.268005 699.226666,245.479993 699.226666,246.92 L699.226666,254 L697.618666,254 L697.618666,246.968 C697.618666,245.943995 697.27067,245.072004 696.574666,244.352 C695.878663,243.631996 695.034671,243.272 694.042666,243.272 C693.050661,243.272 692.20667,243.631996 691.510666,244.352 C690.814663,245.072004 690.466666,245.943995 690.466666,246.968 L690.466666,254 L688.882666,254 L688.882666,242 L690.466666,242 L690.466666,243.776 C691.442671,242.463993 692.722658,241.808 694.306666,241.808 Z M717.528,254.192 C715.159988,254.192 713.272007,253.404008 711.864,251.828 C710.455993,250.251992 709.752,248.296012 709.752,245.96 C709.752,243.607988 710.455993,241.644008 711.864,240.068 C713.272007,238.491992 715.159988,237.704 717.528,237.704 C719.096008,237.704 720.459994,238.063996 721.62,238.784 C722.780006,239.504004 723.679997,240.487994 724.32,241.736 L722.832,242.6 C722.319997,241.559995 721.604004,240.736003 720.684,240.128 C719.763995,239.519997 718.712006,239.216 717.528,239.216 C715.703991,239.216 714.244005,239.851994 713.148,241.124 C712.051994,242.396006 711.504,244.00799 711.504,245.96 C711.504,247.89601 712.051994,249.503994 713.148,250.784 C714.244005,252.064006 715.703991,252.704 717.528,252.704 C718.728006,252.704 719.787995,252.396003 720.708,251.78 C721.628004,251.163997 722.335997,250.336005 722.832,249.296 L724.32,250.184 C723.679997,251.432006 722.780006,252.411996 721.62,253.124 C720.459994,253.836004 719.096008,254.192 717.528,254.192 Z M733.146666,241.808 C733.994671,241.808 734.770663,242.015998 735.474666,242.432 L734.922666,244.016 C734.250663,243.519998 733.57067,243.272 732.882666,243.272 C731.874661,243.272 731.02667,243.627996 730.338666,244.34 C729.650663,245.052004 729.306666,245.927995 729.306666,246.968 L729.306666,254 L727.722666,254 L727.722666,242 L729.306666,242 L729.306666,243.776 C730.282671,242.463993 731.562658,241.808 733.146666,241.808 Z M746.269333,242 L747.853333,242 L741.301333,259.112 L739.717333,259.112 L742.237333,252.536 L737.797333,242 L739.381333,242 L742.981333,250.568 L746.269333,242 Z M754.424,254.192 C753.879997,254.192 753.352002,254.124001 752.84,253.988 C752.327997,253.851999 751.900001,253.692001 751.556,253.508 C751.211998,253.323999 750.904001,253.136001 750.632,252.944 C750.359998,252.751999 750.16,252.592001 750.032,252.464 L749.84,252.248 L750.968,251.288 C751.08,251.400001 751.235999,251.535999 751.436,251.696 C751.636001,251.856001 752.039997,252.071999 752.648,252.344 C753.256003,252.616001 753.855997,252.752 754.448,252.752 C755.328004,252.752 756.031997,252.584002 756.56,252.248 C757.088002,251.911998 757.352,251.440003 757.352,250.832 C757.352,250.399998 757.088002,250.028002 756.56,249.716 C756.031997,249.403998 755.392004,249.136001 754.64,248.912 C753.887996,248.687999 753.132004,248.440001 752.372,248.168 C751.611996,247.895999 750.968002,247.512002 750.44,247.016 C749.911997,246.519998 749.648,245.912004 749.648,245.192 C749.648,244.199995 750.019996,243.388003 750.764,242.756 C751.508003,242.123997 752.607992,241.808 754.064,241.808 C754.928004,241.808 755.743996,241.967998 756.512,242.288 C757.280004,242.608002 757.831998,242.927998 758.168,243.248 L758.672,243.728 L757.544,244.712 C757.431999,244.599999 757.276001,244.464001 757.076,244.304 C756.875999,244.143999 756.472003,243.928001 755.864,243.656 C755.255997,243.383999 754.648003,243.248 754.04,243.248 C753.175995,243.248 752.476002,243.415998 751.94,243.752 C751.403997,244.088002 751.136,244.559997 751.136,245.168 C751.136,245.600002 751.399997,245.971998 751.928,246.284 C752.456002,246.596002 753.095996,246.863999 753.848,247.088 C754.600004,247.312001 755.355996,247.555999 756.116,247.82 C756.876004,248.084001 757.519997,248.467997 758.048,248.972 C758.576002,249.476003 758.84,250.087996 758.84,250.808 C758.84,251.816005 758.472003,252.631997 757.736,253.256 C756.999996,253.880003 755.896007,254.192 754.424,254.192 Z M768.506666,251.312 L769.298666,252.536 C769.202666,252.664001 769.074667,252.815999 768.914666,252.992 C768.754666,253.168001 768.394669,253.411998 767.834666,253.724 C767.274664,254.036002 766.698669,254.192 766.106666,254.192 C765.098661,254.192 764.25467,253.892003 763.574666,253.292 C762.894663,252.691997 762.554666,251.824006 762.554666,250.688 L762.554666,243.44 L760.634666,243.44 L760.634666,241.976 L762.554666,241.976 L762.554666,238.184 L764.138666,237.992 L764.138666,241.976 L767.762666,241.976 L767.762666,243.44 L764.138666,243.44 L764.138666,250.328 C764.138666,251.064004 764.366664,251.647998 764.822666,252.08 C765.278669,252.512002 765.802663,252.728 766.394666,252.728 C766.762668,252.728 767.122665,252.616001 767.474666,252.392 C767.826668,252.167999 768.086666,251.948001 768.254666,251.732 C768.422667,251.515999 768.506666,251.376 768.506666,251.312 Z M781.629333,242 L783.213333,242 L783.213333,254 L781.629333,254 L781.629333,252.056 C780.397327,253.480007 778.837343,254.192 776.949333,254.192 C775.237325,254.192 773.777339,253.588006 772.569333,252.38 C771.361327,251.171994 770.757333,249.712009 770.757333,248 C770.757333,246.287991 771.361327,244.828006 772.569333,243.62 C773.777339,242.411994 775.237325,241.808 776.949333,241.808 C778.853343,241.808 780.413327,242.519993 781.629333,243.944 L781.629333,242 Z M776.973333,252.68 C778.26934,252.68 779.361329,252.228005 780.249333,251.324 C781.137338,250.419995 781.581333,249.312007 781.581333,248 C781.581333,246.687993 781.137338,245.580005 780.249333,244.676 C779.361329,243.771995 778.26934,243.32 776.973333,243.32 C775.693327,243.32 774.601338,243.771995 773.697333,244.676 C772.793329,245.580005 772.341333,246.687993 772.341333,248 C772.341333,249.312007 772.793329,250.419995 773.697333,251.324 C774.601338,252.228005 775.693327,252.68 776.973333,252.68 Z M787.264,254 L787.264,236.144 L788.848,236.144 L788.848,254 L787.264,254 Z M801.773333,252.416 L809.117333,252.416 L809.117333,254 L800.189333,254 L800.189333,237.872 L801.773333,237.872 L801.773333,252.416 Z M821.76,242 L823.344,242 L823.344,254 L821.76,254 L821.76,252.056 C820.527994,253.480007 818.968009,254.192 817.08,254.192 C815.367991,254.192 813.908006,253.588006 812.7,252.38 C811.491994,251.171994 810.888,249.712009 810.888,248 C810.888,246.287991 811.491994,244.828006 812.7,243.62 C813.908006,242.411994 815.367991,241.808 817.08,241.808 C818.984009,241.808 820.543994,242.519993 821.76,243.944 L821.76,242 Z M817.104,252.68 C818.400006,252.68 819.491995,252.228005 820.38,251.324 C821.268004,250.419995 821.712,249.312007 821.712,248 C821.712,246.687993 821.268004,245.580005 820.38,244.676 C819.491995,243.771995 818.400006,243.32 817.104,243.32 C815.823993,243.32 814.732004,243.771995 813.828,244.676 C812.923995,245.580005 812.472,246.687993 812.472,248 C812.472,249.312007 812.923995,250.419995 813.828,251.324 C814.732004,252.228005 815.823993,252.68 817.104,252.68 Z M833.826667,251.312 L834.618667,252.536 C834.522666,252.664001 834.394667,252.815999 834.234667,252.992 C834.074666,253.168001 833.714669,253.411998 833.154667,253.724 C832.594664,254.036002 832.01867,254.192 831.426667,254.192 C830.418662,254.192 829.57467,253.892003 828.894667,253.292 C828.214663,252.691997 827.874667,251.824006 827.874667,250.688 L827.874667,243.44 L825.954667,243.44 L825.954667,241.976 L827.874667,241.976 L827.874667,238.184 L829.458667,237.992 L829.458667,241.976 L833.082667,241.976 L833.082667,243.44 L829.458667,243.44 L829.458667,250.328 C829.458667,251.064004 829.686664,251.647998 830.142667,252.08 C830.598669,252.512002 831.122664,252.728 831.714667,252.728 C832.082668,252.728 832.442665,252.616001 832.794667,252.392 C833.146668,252.167999 833.406666,251.948001 833.574667,251.732 C833.742667,251.515999 833.826667,251.376 833.826667,251.312 Z M843.205333,251.312 L843.997333,252.536 C843.901333,252.664001 843.773334,252.815999 843.613333,252.992 C843.453332,253.168001 843.093336,253.411998 842.533333,253.724 C841.97333,254.036002 841.397336,254.192 840.805333,254.192 C839.797328,254.192 838.953337,253.892003 838.273333,253.292 C837.59333,252.691997 837.253333,251.824006 837.253333,250.688 L837.253333,243.44 L835.333333,243.44 L835.333333,241.976 L837.253333,241.976 L837.253333,238.184 L838.837333,237.992 L838.837333,241.976 L842.461333,241.976 L842.461333,243.44 L838.837333,243.44 L838.837333,250.328 C838.837333,251.064004 839.065331,251.647998 839.521333,252.08 C839.977336,252.512002 840.50133,252.728 841.093333,252.728 C841.461335,252.728 841.821331,252.616001 842.173333,252.392 C842.525335,252.167999 842.785332,251.948001 842.953333,251.732 C843.121334,251.515999 843.205333,251.376 843.205333,251.312 Z M848.432,238.4 C848.255999,238.592001 848.032001,238.688 847.76,238.688 C847.487999,238.688 847.260001,238.592001 847.076,238.4 C846.891999,238.207999 846.8,237.984001 846.8,237.728 C846.8,237.471999 846.891999,237.248001 847.076,237.056 C847.260001,236.863999 847.487999,236.768 847.76,236.768 C848.032001,236.768 848.259999,236.863999 848.444,237.056 C848.628001,237.248001 848.72,237.471999 848.72,237.728 C848.72,237.984001 848.624001,238.207999 848.432,238.4 Z M846.968,254 L846.968,242 L848.552,242 L848.552,254 L846.968,254 Z M858.218667,254.192 C856.506658,254.192 855.046673,253.588006 853.838667,252.38 C852.630661,251.171994 852.026667,249.712009 852.026667,248 C852.026667,246.287991 852.630661,244.828006 853.838667,243.62 C855.046673,242.411994 856.506658,241.808 858.218667,241.808 C859.306672,241.808 860.318662,242.075997 861.254667,242.612 C862.190671,243.148003 862.930664,243.863996 863.474667,244.76 L862.034667,245.456 C861.602664,244.799997 861.05067,244.280002 860.378667,243.896 C859.706663,243.511998 858.98667,243.32 858.218667,243.32 C856.92266,243.32 855.830671,243.771995 854.942667,244.676 C854.054662,245.580005 853.610667,246.687993 853.610667,248 C853.610667,249.312007 854.054662,250.419995 854.942667,251.324 C855.830671,252.228005 856.92266,252.68 858.218667,252.68 C858.98667,252.68 859.706663,252.488002 860.378667,252.104 C861.05067,251.719998 861.602664,251.200003 862.034667,250.544 L863.474667,251.24 C862.930664,252.136004 862.190671,252.851997 861.254667,253.388 C860.318662,253.924003 859.306672,254.192 858.218667,254.192 Z M872.037333,252.608 C873.109339,252.608 874.069329,252.304003 874.917333,251.696 C875.765338,251.087997 876.341332,250.376004 876.645333,249.56 L877.989333,250.04 C877.621331,251.048005 876.905339,251.975996 875.841333,252.824 C874.777328,253.672004 873.509341,254.088 872.037333,254.072 C870.693327,254.072 869.465339,253.656004 868.353333,252.824 C867.241328,251.991996 866.485335,250.928006 866.085333,249.632 C865.925333,249.103997 865.845333,248.528003 865.845333,247.904 C865.845333,246.175991 866.445327,244.712006 867.645333,243.512 C868.845339,242.311994 870.309325,241.704 872.037333,241.688 C873.605341,241.704 874.973327,242.231995 876.141333,243.272 C877.309339,244.312005 877.981332,245.599992 878.157333,247.136 C878.173333,247.216 878.181333,247.319999 878.181333,247.448 L867.693333,249.344 C867.965335,250.304005 868.509329,251.091997 869.325333,251.708 C870.141337,252.324003 871.045328,252.624 872.037333,252.608 Z M871.893333,243.152 C870.693327,243.168 869.665338,243.599996 868.809333,244.448 C867.953329,245.296004 867.493334,246.311994 867.429333,247.496 C867.429333,247.544 867.433333,247.627999 867.441333,247.748 C867.449333,247.868001 867.453333,247.968 867.453333,248.048 L876.381333,246.44 C876.077332,245.463995 875.509337,244.668003 874.677333,244.052 C873.845329,243.435997 872.917338,243.136 871.893333,243.152 Z" id="P-Type-Silicon-Cryst-Copy" fill="#23ABE3"></path>
    </g>
</svg>