<?xml version="1.0" encoding="UTF-8"?>
<svg width="900px" height="320px" viewBox="0 0 900 320" version="1.1" xmlns="http://www.w3.org/2000/svg" xmlns:xlink="http://www.w3.org/1999/xlink">
    <!-- Generator: Sketch 52.5 (67469) - http://www.bohemiancoding.com/sketch -->
    <title>Photon_Emission</title>
    <desc>Created with Sketch.</desc>
    <g id="Photon_Emission" stroke="none" stroke-width="1" fill="none" fill-rule="evenodd">
        <rect id="Rectangle" fill="#EEEEEE" x="0" y="0" width="900" height="430"></rect>
        <path d="M68,121 L68,248 L245.150368,248 L296,263.646041 L296,138.314207 L244.33689,121 L68,121 Z" id="Rectangle" stroke="#999999" stroke-width="2" fill="#D4D4D4"></path>
        <path d="M296,138.17757 L296,263.662876 L346.149497,279 L510,279 L510,152.046202 L340.347283,152.046202 L296,138.17757 Z" id="Rectangle" stroke="#999999" stroke-width="2" fill="#7D7570"></path>
        <polygon id="Rectangle" fill="#EF7D3B" opacity="0.149135045" points="244 120 346 153 346 279 244 249"></polygon>
        <text id="Photon-Emission" font-family="Wavehaus-66Book, Wavehaus" font-size="36" font-weight="300" letter-spacing="-2.159999" fill="#23ABE3">
            <tspan x="13" y="44">Photon Emission</tspan>
        </text>
        <g id="Illustration" transform="translate(38.000000, 74.000000)">
            <polyline id="Line-2" stroke="#3D3530" stroke-width="3" stroke-linecap="square" points="482.5 100.5 304 100.5 207 70.5 30 70.5"></polyline>
            <polyline id="Line-2-Copy-4" stroke="#3D3530" stroke-width="3" stroke-linecap="square" points="482.5 170.5 304 170.5 207 140.5 30 140.5"></polyline>
            <g id="Electrons" transform="translate(291.000000, 79.000000)" fill="#EF7D3B">
                <circle id="Oval-Copy-76" cx="179.25" cy="8.25" r="3.25"></circle>
                <circle id="Oval-Copy-77" cx="159.25" cy="8.25" r="3.25"></circle>
                <circle id="Oval-Copy-78" cx="139.25" cy="8.25" r="3.25"></circle>
                <circle id="Oval-Copy-79" cx="119.25" cy="8.25" r="3.25"></circle>
                <circle id="Oval-Copy-80" cx="99.25" cy="8.25" r="3.25"></circle>
                <circle id="Oval-Copy-81" cx="79.25" cy="8.25" r="3.25"></circle>
                <circle id="Oval-Copy-82" cx="59.25" cy="8.25" r="3.25"></circle>
                <circle id="Oval-Copy-83" cx="39.25" cy="8.25" r="3.25"></circle>
                <circle id="Oval-Copy-95" cx="21.25" cy="8.25" r="3.25"></circle>
                <circle id="Oval-Copy-99" cx="3.25" cy="3.25" r="3.25"></circle>
            </g>
            <g id="Valence-Charge-Carriers" transform="translate(37.000000, 154.000000)">
                <g id="Electrons" fill="#EF7D3B">
                    <circle id="Oval-Copy-74" cx="183.25" cy="7.25" r="3.25"></circle>
                    <circle id="Oval-Copy-75" cx="163.25" cy="3.25" r="3.25"></circle>
                    <circle id="Oval-Copy-76" cx="143.25" cy="3.25" r="3.25"></circle>
                    <circle id="Oval-Copy-77" cx="123.25" cy="3.25" r="3.25"></circle>
                    <circle id="Oval-Copy-78" cx="103.25" cy="3.25" r="3.25"></circle>
                    <circle id="Oval-Copy-79" cx="83.25" cy="3.25" r="3.25"></circle>
                    <circle id="Oval-Copy-80" cx="63.25" cy="3.25" r="3.25"></circle>
                    <circle id="Oval-Copy-81" cx="43.25" cy="3.25" r="3.25"></circle>
                    <circle id="Oval-Copy-82" cx="23.25" cy="3.25" r="3.25"></circle>
                    <circle id="Oval-Copy-94" cx="3.25" cy="3.25" r="3.25"></circle>
                </g>
                <g id="Holes" stroke="#84D0EF" stroke-width="2">
                    <circle id="Oval-Copy-74" cx="183.25" cy="7.25" r="4.25"></circle>
                    <circle id="Oval-Copy-97" cx="202.25" cy="14.25" r="4.25"></circle>
                    <circle id="Oval-Copy-75" cx="163.25" cy="3.25" r="4.25"></circle>
                    <circle id="Oval-Copy-76" cx="143.25" cy="3.25" r="4.25"></circle>
                    <circle id="Oval-Copy-77" cx="123.25" cy="3.25" r="4.25"></circle>
                    <circle id="Oval-Copy-78" cx="103.25" cy="3.25" r="4.25"></circle>
                    <circle id="Oval-Copy-79" cx="83.25" cy="3.25" r="4.25"></circle>
                    <circle id="Oval-Copy-80" cx="63.25" cy="3.25" r="4.25"></circle>
                    <circle id="Oval-Copy-81" cx="43.25" cy="3.25" r="4.25"></circle>
                    <circle id="Oval-Copy-82" cx="23.25" cy="3.25" r="4.25"></circle>
                    <circle id="Oval-Copy-96" cx="3.25" cy="3.25" r="4.25"></circle>
                </g>
            </g>
            <g id="Photon_Emission" transform="translate(158.000000, 37.000000)">
                <circle id="Oval-Copy-83" fill="#EF7D3B" cx="107.25" cy="87.25" r="3.25"></circle>
                <path d="M91.9948751,42.5789029 C90.3412506,42.7369219 88.9682304,42.0699774 87.5147287,40.7006834 C86.9230837,40.143315 84.8979769,37.9194747 84.8561087,37.8756216 C82.37721,35.2791999 80.1932538,34.0797556 76.9097436,34.0797556 C73.8918677,34.0797556 72.1942406,35.5728009 68.9397714,40.2625598 C68.852394,40.3884963 68.852394,40.3884963 68.7647038,40.5148891 C64.8521725,46.1533109 62.4565987,48.2397316 57.8465667,48.2397316 C53.2267262,48.2397316 50.5257274,45.9805577 46.6585573,40.5274496 C46.5815924,40.4189212 45.9147957,39.4745095 45.7212447,39.2028729 C43.0460171,35.4483592 41.4501388,34.0797556 39.2497676,34.0797556 C36.7210372,34.0797556 34.8691566,35.7790829 31.6227986,40.4373847 C31.5159986,40.5906354 31.3822724,40.7829792 31.1410005,41.1300078 C30.9473313,41.4083454 30.8000588,41.6191546 30.6559308,41.8239692 C27.5629803,46.2192396 25.5074998,48.0797556 22.4097436,48.0797556 C19.3016543,48.0797556 17.0221654,46.1886241 13.3685206,41.6868836 C13.2248832,41.5099045 13.0752445,41.3245516 12.8968161,41.102782 C12.7872366,40.9665852 12.6619751,40.810656 12.4279802,40.5193423 C8.59736386,35.752353 6.67586802,34.0797556 4.40974362,34.0797556 L4.40974362,31.0797556 C7.99778589,31.0797556 10.3050975,33.0881927 14.766507,38.640169 C15.0010692,38.9321886 15.1254605,39.0870344 15.2342067,39.2221956 C15.4101745,39.440907 15.5572697,39.6231093 15.6978802,39.7963588 C18.7623004,43.5721021 20.5795614,45.0797556 22.4097436,45.0797556 C24.140449,45.0797556 25.6720497,43.6934288 28.202507,40.0974955 C28.3430462,39.8977807 28.4875608,39.6909193 28.6784633,39.4165579 C28.9186618,39.0710723 29.053589,38.877001 29.1615205,38.7221266 C32.973843,33.2517047 35.3407739,31.0797556 39.2497676,31.0797556 C42.7679147,31.0797556 44.9507186,32.9516987 48.164465,37.4619896 C48.3625475,37.7399859 49.0321051,38.688308 49.1056668,38.7920376 C52.4461482,43.5024604 54.5231763,45.2397316 57.8465667,45.2397316 C61.1228911,45.2397316 62.9217459,43.6730223 66.2999716,38.8045981 C66.3874052,38.6785751 66.3874052,38.6785751 66.4750934,38.5521907 C70.268357,33.0860177 72.5495235,31.0797556 76.9097436,31.0797556 C81.1394655,31.0797556 84.0325802,32.6686748 87.0259682,35.8039773 C87.1392265,35.9226052 89.0791003,38.0528481 89.5718522,38.5170527 C90.4709956,39.3641048 91.0928276,39.6612932 91.7440963,39.58893 L91.8931537,39.5798474 C92.0539964,39.5780683 92.2143846,39.5762467 92.3743185,39.5743826 L92.1509535,31.6015714 L111.409548,40.5657532 L92.6830457,50.5941194 L92.4583442,42.5736055 C92.3042728,42.5754107 92.1497831,42.5771765 91.9948751,42.5789029 Z" id="Path-10" fill="#23ABE3" fill-rule="nonzero" transform="translate(57.909646, 40.836937) rotate(215.000000) translate(-57.909646, -40.836937) "></path>
                <circle id="Oval-Copy-93" stroke="#23ABE3" stroke-width="2" fill="#C9DB31" cx="3.25" cy="3.25" r="4.25"></circle>
            </g>
            <text id="Photon" font-family="MrsEavesOT-Roman, Mrs Eaves OT" font-size="36" font-weight="normal" letter-spacing="-2.159999" fill="#524740">
                <tspan x="87" y="25">Photon</tspan>
            </text>
            <text id="P-Type" font-family="MrsEavesOT-Roman, Mrs Eaves OT" font-size="36" font-weight="normal" letter-spacing="-2.159999" fill="#524740">
                <tspan x="77" y="115">P-Type</tspan>
            </text>
            <text id="Holes-+-Electrons" font-family="MrsEavesOT-Roman, Mrs Eaves OT" font-size="36" font-weight="normal" letter-spacing="-2.159999" fill="#524740">
                <tspan x="0.4359915" y="208">Holes + Electrons</tspan>
            </text>
            <text id="Free-Electrons" font-family="MrsEavesOT-Roman, Mrs Eaves OT" font-size="36" font-weight="normal" letter-spacing="-2.159999" fill="#524740">
                <tspan x="310.217993" y="69">Free Electrons</tspan>
            </text>
            <text id="N-Type" font-family="MrsEavesOT-Roman, Mrs Eaves OT" font-size="36" font-weight="normal" letter-spacing="-2.159999" fill="#EEEEEE">
                <tspan x="333.241997" y="146">N-Type</tspan>
            </text>
            <text id="Conduction-Energy-Ba" font-family="MrsEavesOT-Roman, Mrs Eaves OT" font-size="36" font-weight="normal" letter-spacing="-2.159999" fill="#524740">
                <tspan x="488" y="110">Conduction Energy Band</tspan>
            </text>
            <text id="Valence-Energy-Band" font-family="MrsEavesOT-Roman, Mrs Eaves OT" font-size="36" font-weight="normal" letter-spacing="-2.159999" fill="#524740">
                <tspan x="488" y="180">Valence Energy Band</tspan>
            </text>
            <path id="Line-8-Copy" d="M276.042935,137.78628 L288.109335,107.937816 L288.671519,106.547151 L291.452849,107.671519 L290.890665,109.062184 L278.824265,138.910648 L286.241145,141.908961 L270.312605,155.963555 L268.626054,134.787967 L276.042935,137.78628 Z" fill="#EF7D3B" fill-rule="nonzero"></path>
        </g>
    </g>
</svg>