<?xml version="1.0" encoding="UTF-8"?>
<svg width="900px" height="190px" viewBox="0 0 900 190" version="1.1" xmlns="http://www.w3.org/2000/svg" xmlns:xlink="http://www.w3.org/1999/xlink">
    <!-- Generator: Sketch 52.5 (67469) - http://www.bohemiancoding.com/sketch -->
    <title>Pushbutton_Wiring</title>
    <desc>Created with Sketch.</desc>
    <g id="Pushbutton_Wiring" stroke="none" stroke-width="1" fill="none" fill-rule="evenodd">
        <g id="Illustration_Frame">
            <rect id="Rectangle" stroke="#3D3530" stroke-width="2" fill="#EEEEEE" x="1" y="1" width="898" height="188"></rect>
            <rect id="Rectangle-Copy" stroke="#3D3530" stroke-width="2" fill="#F8FAE4" x="1" y="146" width="898" height="43"></rect>
            <path d="M639.578666,175 L639.578666,158.872 L645.050666,158.872 C646.858675,158.872 648.298661,159.347995 649.370666,160.3 C650.442671,161.252005 650.978666,162.447993 650.978666,163.888 C650.978666,165.312007 650.442671,166.503995 649.370666,167.464 C648.298661,168.424005 646.858675,168.904 645.050666,168.904 L641.162666,168.904 L641.162666,175 L639.578666,175 Z M641.162666,167.392 L645.050666,167.392 C646.346672,167.392 647.386662,167.060003 648.170666,166.396 C648.95467,165.731997 649.346666,164.896005 649.346666,163.888 C649.346666,162.895995 648.95467,162.064003 648.170666,161.392 C647.386662,160.719997 646.346672,160.384 645.050666,160.384 L641.162666,160.384 L641.162666,167.392 Z M663.237333,163 L664.821333,163 L664.821333,175 L663.237333,175 L663.237333,173.224 C662.261328,174.536007 660.981341,175.192 659.397333,175.192 C658.005326,175.192 656.837337,174.700005 655.893333,173.716 C654.949328,172.731995 654.477333,171.520007 654.477333,170.08 L654.477333,163 L656.109333,163 L656.109333,170.032 C656.109333,171.056005 656.453329,171.923996 657.141333,172.636 C657.829336,173.348004 658.669328,173.704 659.661333,173.704 C660.669338,173.704 661.517329,173.348004 662.205333,172.636 C662.893336,171.923996 663.237333,171.056005 663.237333,170.032 L663.237333,163 Z M672.999999,175.192 C672.455997,175.192 671.928002,175.124001 671.415999,174.988 C670.903997,174.851999 670.476001,174.692001 670.131999,174.508 C669.787998,174.323999 669.480001,174.136001 669.207999,173.944 C668.935998,173.751999 668.736,173.592001 668.607999,173.464 L668.415999,173.248 L669.543999,172.288 C669.656,172.400001 669.811998,172.535999 670.011999,172.696 C670.212,172.856001 670.615996,173.071999 671.223999,173.344 C671.832002,173.616001 672.431996,173.752 673.023999,173.752 C673.904004,173.752 674.607997,173.584002 675.135999,173.248 C675.664002,172.911998 675.927999,172.440003 675.927999,171.832 C675.927999,171.399998 675.664002,171.028002 675.135999,170.716 C674.607997,170.403998 673.968003,170.136001 673.215999,169.912 C672.463996,169.687999 671.708003,169.440001 670.947999,169.168 C670.187996,168.895999 669.544002,168.512002 669.015999,168.016 C668.487997,167.519998 668.223999,166.912004 668.223999,166.192 C668.223999,165.199995 668.595996,164.388003 669.339999,163.756 C670.084003,163.123997 671.183992,162.808 672.639999,162.808 C673.504004,162.808 674.319996,162.967998 675.087999,163.288 C675.856003,163.608002 676.407998,163.927998 676.743999,164.248 L677.247999,164.728 L676.119999,165.712 C676.007999,165.599999 675.852,165.464001 675.651999,165.304 C675.451998,165.143999 675.048002,164.928001 674.439999,164.656 C673.831996,164.383999 673.224002,164.248 672.615999,164.248 C671.751995,164.248 671.052002,164.415998 670.515999,164.752 C669.979997,165.088002 669.711999,165.559997 669.711999,166.168 C669.711999,166.600002 669.975997,166.971998 670.503999,167.284 C671.032002,167.596002 671.671996,167.863999 672.423999,168.088 C673.176003,168.312001 673.931996,168.555999 674.691999,168.82 C675.452003,169.084001 676.095997,169.467997 676.623999,169.972 C677.152002,170.476003 677.415999,171.087996 677.415999,171.808 C677.415999,172.816005 677.048003,173.631997 676.311999,174.256 C675.575996,174.880003 674.472007,175.192 672.999999,175.192 Z M686.242666,162.808 C687.634673,162.808 688.802661,163.307995 689.746666,164.308 C690.690671,165.308005 691.162666,166.527993 691.162666,167.968 L691.162666,175 L689.554666,175 L689.554666,167.992 C689.554666,166.951995 689.21067,166.076004 688.522666,165.364 C687.834663,164.651996 686.986671,164.296 685.978666,164.296 C684.986661,164.296 684.14267,164.651996 683.446666,165.364 C682.750663,166.076004 682.402666,166.943995 682.402666,167.968 L682.402666,175 L680.818666,175 L680.818666,157.144 L682.402666,157.144 L682.402666,164.776 C683.378671,163.463993 684.658658,162.808 686.242666,162.808 Z M701.309333,162.808 C703.021341,162.808 704.481327,163.411994 705.689333,164.62 C706.897339,165.828006 707.501333,167.287991 707.501333,169 C707.501333,170.712009 706.897339,172.171994 705.689333,173.38 C704.481327,174.588006 703.021341,175.192 701.309333,175.192 C699.389323,175.192 697.821339,174.464007 696.605333,173.008 L696.605333,175 L695.021333,175 L695.021333,157.144 L696.605333,157.144 L696.605333,164.968 C697.837339,163.527993 699.405323,162.808 701.309333,162.808 Z M697.997333,172.336 C698.893337,173.232004 699.981326,173.68 701.261333,173.68 C702.541339,173.68 703.629328,173.228005 704.525333,172.324 C705.421337,171.419995 705.869333,170.312007 705.869333,169 C705.869333,167.687993 705.421337,166.580005 704.525333,165.676 C703.629328,164.771995 702.541339,164.32 701.261333,164.32 C699.981326,164.32 698.893337,164.771995 697.997333,165.676 C697.101328,166.580005 696.653333,167.687993 696.653333,169 C696.653333,170.312007 697.101328,171.423995 697.997333,172.336 Z M719.159999,163 L720.743999,163 L720.743999,175 L719.159999,175 L719.159999,173.224 C718.183995,174.536007 716.904007,175.192 715.319999,175.192 C713.927993,175.192 712.760004,174.700005 711.815999,173.716 C710.871995,172.731995 710.399999,171.520007 710.399999,170.08 L710.399999,163 L712.031999,163 L712.031999,170.032 C712.031999,171.056005 712.375996,171.923996 713.063999,172.636 C713.752003,173.348004 714.591995,173.704 715.583999,173.704 C716.592005,173.704 717.439996,173.348004 718.127999,172.636 C718.816003,171.923996 719.159999,171.056005 719.159999,170.032 L719.159999,163 Z M731.418666,172.312 L732.210666,173.536 C732.114666,173.664001 731.986667,173.815999 731.826666,173.992 C731.666665,174.168001 731.306669,174.411998 730.746666,174.724 C730.186663,175.036002 729.610669,175.192 729.018666,175.192 C728.010661,175.192 727.16667,174.892003 726.486666,174.292 C725.806663,173.691997 725.466666,172.824006 725.466666,171.688 L725.466666,164.44 L723.546666,164.44 L723.546666,162.976 L725.466666,162.976 L725.466666,159.184 L727.050666,158.992 L727.050666,162.976 L730.674666,162.976 L730.674666,164.44 L727.050666,164.44 L727.050666,171.328 C727.050666,172.064004 727.278664,172.647998 727.734666,173.08 C728.190668,173.512002 728.714663,173.728 729.306666,173.728 C729.674668,173.728 730.034664,173.616001 730.386666,173.392 C730.738668,173.167999 730.998665,172.948001 731.166666,172.732 C731.334667,172.515999 731.418666,172.376 731.418666,172.312 Z M740.797333,172.312 L741.589333,173.536 C741.493332,173.664001 741.365334,173.815999 741.205333,173.992 C741.045332,174.168001 740.685336,174.411998 740.125333,174.724 C739.56533,175.036002 738.989336,175.192 738.397333,175.192 C737.389328,175.192 736.545336,174.892003 735.865333,174.292 C735.185329,173.691997 734.845333,172.824006 734.845333,171.688 L734.845333,164.44 L732.925333,164.44 L732.925333,162.976 L734.845333,162.976 L734.845333,159.184 L736.429333,158.992 L736.429333,162.976 L740.053333,162.976 L740.053333,164.44 L736.429333,164.44 L736.429333,171.328 C736.429333,172.064004 736.657331,172.647998 737.113333,173.08 C737.569335,173.512002 738.09333,173.728 738.685333,173.728 C739.053335,173.728 739.413331,173.616001 739.765333,173.392 C740.117335,173.167999 740.377332,172.948001 740.545333,172.732 C740.713334,172.515999 740.797333,172.376 740.797333,172.312 Z M753.608,173.368 C752.407994,174.584006 750.952008,175.192 749.24,175.192 C747.527991,175.192 746.068006,174.588006 744.86,173.38 C743.651994,172.171994 743.048,170.712009 743.048,169 C743.048,167.287991 743.651994,165.828006 744.86,164.62 C746.068006,163.411994 747.527991,162.808 749.24,162.808 C750.952008,162.808 752.411994,163.411994 753.62,164.62 C754.828006,165.828006 755.432,167.287991 755.432,169 C755.432,170.696008 754.824006,172.151994 753.608,173.368 Z M749.264,173.68 C750.560006,173.68 751.651995,173.228005 752.54,172.324 C753.428004,171.419995 753.872,170.312007 753.872,169 C753.872,167.687993 753.428004,166.576005 752.54,165.664 C751.651995,164.751995 750.560006,164.296 749.264,164.296 C747.983993,164.296 746.896004,164.751995 746,165.664 C745.103995,166.576005 744.656,167.687993 744.656,169 C744.656,170.312007 745.103995,171.419995 746,172.324 C746.896004,173.228005 747.983993,173.68 749.264,173.68 Z M763.898666,162.808 C765.290673,162.808 766.458662,163.299995 767.402666,164.284 C768.346671,165.268005 768.818666,166.479993 768.818666,167.92 L768.818666,175 L767.210666,175 L767.210666,167.968 C767.210666,166.943995 766.86267,166.072004 766.166666,165.352 C765.470663,164.631996 764.626671,164.272 763.634666,164.272 C762.642661,164.272 761.79867,164.631996 761.102666,165.352 C760.406663,166.072004 760.058666,166.943995 760.058666,167.968 L760.058666,175 L758.474666,175 L758.474666,163 L760.058666,163 L760.058666,164.776 C761.034671,163.463993 762.314658,162.808 763.898666,162.808 Z M779.968,175 L779.968,158.872 L781.552,158.872 L781.552,175 L779.968,175 Z M791.146666,162.808 C792.538673,162.808 793.706662,163.299995 794.650666,164.284 C795.594671,165.268005 796.066666,166.479993 796.066666,167.92 L796.066666,175 L794.458666,175 L794.458666,167.968 C794.458666,166.943995 794.11067,166.072004 793.414666,165.352 C792.718663,164.631996 791.874671,164.272 790.882666,164.272 C789.890661,164.272 789.04667,164.631996 788.350666,165.352 C787.654663,166.072004 787.306666,166.943995 787.306666,167.968 L787.306666,175 L785.722666,175 L785.722666,163 L787.306666,163 L787.306666,164.776 C788.282671,163.463993 789.562658,162.808 791.146666,162.808 Z M806.357333,172.312 L807.149333,173.536 C807.053333,173.664001 806.925334,173.815999 806.765333,173.992 C806.605332,174.168001 806.245336,174.411998 805.685333,174.724 C805.12533,175.036002 804.549336,175.192 803.957333,175.192 C802.949328,175.192 802.105336,174.892003 801.425333,174.292 C800.74533,173.691997 800.405333,172.824006 800.405333,171.688 L800.405333,164.44 L798.485333,164.44 L798.485333,162.976 L800.405333,162.976 L800.405333,159.184 L801.989333,158.992 L801.989333,162.976 L805.613333,162.976 L805.613333,164.44 L801.989333,164.44 L801.989333,171.328 C801.989333,172.064004 802.217331,172.647998 802.673333,173.08 C803.129335,173.512002 803.65333,173.728 804.245333,173.728 C804.613335,173.728 804.973331,173.616001 805.325333,173.392 C805.677335,173.167999 805.937332,172.948001 806.105333,172.732 C806.273334,172.515999 806.357333,172.376 806.357333,172.312 Z M814.8,173.608 C815.872005,173.608 816.831996,173.304003 817.68,172.696 C818.528004,172.087997 819.103998,171.376004 819.408,170.56 L820.752,171.04 C820.383998,172.048005 819.668005,172.975996 818.604,173.824 C817.539994,174.672004 816.272007,175.088 814.8,175.072 C813.455993,175.072 812.228005,174.656004 811.116,173.824 C810.003994,172.991996 809.248002,171.928006 808.848,170.632 C808.687999,170.103997 808.608,169.528003 808.608,168.904 C808.608,167.175991 809.207994,165.712006 810.408,164.512 C811.608006,163.311994 813.071991,162.704 814.8,162.688 C816.368008,162.704 817.735994,163.231995 818.904,164.272 C820.072006,165.312005 820.743999,166.599992 820.92,168.136 C820.936,168.216 820.944,168.319999 820.944,168.448 L810.456,170.344 C810.728001,171.304005 811.271996,172.091997 812.088,172.708 C812.904004,173.324003 813.807995,173.624 814.8,173.608 Z M814.656,164.152 C813.455994,164.168 812.428004,164.599996 811.572,165.448 C810.715996,166.296004 810.256,167.311994 810.192,168.496 C810.192,168.544 810.196,168.627999 810.204,168.748 C810.212,168.868001 810.216,168.968 810.216,169.048 L819.144,167.44 C818.839998,166.463995 818.272004,165.668003 817.44,165.052 C816.607996,164.435997 815.680005,164.136 814.656,164.152 Z M829.290666,162.808 C830.138671,162.808 830.914663,163.015998 831.618666,163.432 L831.066666,165.016 C830.394663,164.519998 829.71467,164.272 829.026666,164.272 C828.018661,164.272 827.17067,164.627996 826.482666,165.34 C825.794663,166.052004 825.450666,166.927995 825.450666,167.968 L825.450666,175 L823.866666,175 L823.866666,163 L825.450666,163 L825.450666,164.776 C826.426671,163.463993 827.706659,162.808 829.290666,162.808 Z M839.845333,162.808 C841.23734,162.808 842.405328,163.299995 843.349333,164.284 C844.293338,165.268005 844.765333,166.479993 844.765333,167.92 L844.765333,175 L843.157333,175 L843.157333,167.968 C843.157333,166.943995 842.809337,166.072004 842.113333,165.352 C841.41733,164.631996 840.573338,164.272 839.581333,164.272 C838.589328,164.272 837.745337,164.631996 837.049333,165.352 C836.35333,166.072004 836.005333,166.943995 836.005333,167.968 L836.005333,175 L834.421333,175 L834.421333,163 L836.005333,163 L836.005333,164.776 C836.981338,163.463993 838.261325,162.808 839.845333,162.808 Z M858.56,163 L860.144,163 L860.144,175 L858.56,175 L858.56,173.056 C857.327994,174.480007 855.768009,175.192 853.88,175.192 C852.167991,175.192 850.708006,174.588006 849.5,173.38 C848.291994,172.171994 847.688,170.712009 847.688,169 C847.688,167.287991 848.291994,165.828006 849.5,164.62 C850.708006,163.411994 852.167991,162.808 853.88,162.808 C855.784009,162.808 857.343994,163.519993 858.56,164.944 L858.56,163 Z M853.904,173.68 C855.200006,173.68 856.291995,173.228005 857.18,172.324 C858.068004,171.419995 858.512,170.312007 858.512,169 C858.512,167.687993 858.068004,166.580005 857.18,165.676 C856.291995,164.771995 855.200006,164.32 853.904,164.32 C852.623993,164.32 851.532004,164.771995 850.628,165.676 C849.723995,166.580005 849.272,167.687993 849.272,169 C849.272,170.312007 849.723995,171.419995 850.628,172.324 C851.532004,173.228005 852.623993,173.68 853.904,173.68 Z M864.194667,175 L864.194667,157.144 L865.778667,157.144 L865.778667,175 L864.194667,175 Z M873.933333,175.192 C873.389331,175.192 872.861336,175.124001 872.349333,174.988 C871.837331,174.851999 871.409335,174.692001 871.065333,174.508 C870.721332,174.323999 870.413335,174.136001 870.141333,173.944 C869.869332,173.751999 869.669334,173.592001 869.541333,173.464 L869.349333,173.248 L870.477333,172.288 C870.589334,172.400001 870.745332,172.535999 870.945333,172.696 C871.145334,172.856001 871.54933,173.071999 872.157333,173.344 C872.765336,173.616001 873.36533,173.752 873.957333,173.752 C874.837338,173.752 875.541331,173.584002 876.069333,173.248 C876.597336,172.911998 876.861333,172.440003 876.861333,171.832 C876.861333,171.399998 876.597336,171.028002 876.069333,170.716 C875.541331,170.403998 874.901337,170.136001 874.149333,169.912 C873.39733,169.687999 872.641337,169.440001 871.881333,169.168 C871.121329,168.895999 870.477336,168.512002 869.949333,168.016 C869.421331,167.519998 869.157333,166.912004 869.157333,166.192 C869.157333,165.199995 869.52933,164.388003 870.273333,163.756 C871.017337,163.123997 872.117326,162.808 873.573333,162.808 C874.437338,162.808 875.253329,162.967998 876.021333,163.288 C876.789337,163.608002 877.341332,163.927998 877.677333,164.248 L878.181333,164.728 L877.053333,165.712 C876.941333,165.599999 876.785334,165.464001 876.585333,165.304 C876.385332,165.143999 875.981336,164.928001 875.373333,164.656 C874.76533,164.383999 874.157336,164.248 873.549333,164.248 C872.685329,164.248 871.985336,164.415998 871.449333,164.752 C870.913331,165.088002 870.645333,165.559997 870.645333,166.168 C870.645333,166.600002 870.909331,166.971998 871.437333,167.284 C871.965336,167.596002 872.60533,167.863999 873.357333,168.088 C874.109337,168.312001 874.865329,168.555999 875.625333,168.82 C876.385337,169.084001 877.029331,169.467997 877.557333,169.972 C878.085336,170.476003 878.349333,171.087996 878.349333,171.808 C878.349333,172.816005 877.981337,173.631997 877.245333,174.256 C876.50933,174.880003 875.405341,175.192 873.933333,175.192 Z" id="Pushbutton-Internals-Copy" fill="#23ABE3"></path>
        </g>
        <g id="Button_Unpushed" transform="translate(313.000000, 24.798485)">
            <g id="Tactile_Switch" transform="translate(8.000000, 0.000000)">
                <g id="Lead">
                    <rect id="Rectangle" fill="#999999" x="0" y="0" width="13.1944444" height="5.28571429"></rect>
                    <rect id="Rectangle-7" fill="#B6B6B6" x="0" y="2.64285714" width="13.1944444" height="2.64285714"></rect>
                </g>
                <g id="Lead-Copy" transform="translate(81.805556, 0.000000)">
                    <rect id="Rectangle" fill="#999999" x="0" y="0" width="13.1944444" height="5.28571429"></rect>
                    <rect id="Rectangle-7" fill="#B6B6B6" x="0" y="2.64285714" width="13.1944444" height="2.64285714"></rect>
                </g>
                <g id="Lead-Copy-3" transform="translate(0.000000, 68.714286)">
                    <rect id="Rectangle" fill="#999999" x="0" y="0" width="13.1944444" height="5.28571429"></rect>
                    <rect id="Rectangle-7" fill="#B6B6B6" x="0" y="2.64285714" width="13.1944444" height="2.64285714"></rect>
                </g>
                <g id="Lead-Copy-2" transform="translate(81.805556, 68.714286)">
                    <rect id="Rectangle" fill="#999999" x="0" y="0" width="13.1944444" height="5.28571429"></rect>
                    <rect id="Rectangle-7" fill="#B6B6B6" x="0" y="2.64285714" width="13.1944444" height="2.64285714"></rect>
                </g>
                <rect id="Rectangle" fill="#E7E7E7" x="10.5555556" y="0" width="73.8888889" height="74"></rect>
                <polygon id="Rectangle-Copy" fill="#D4D4D4" points="10.5555556 0 84.4444444 0 10.5555556 74"></polygon>
                <ellipse id="Oval" fill="#2B2B2B" cx="17.1527778" cy="6.60714286" rx="3.95833333" ry="3.96428571"></ellipse>
                <ellipse id="Oval-Copy" fill="#2B2B2B" cx="77.8472222" cy="6.60714286" rx="3.95833333" ry="3.96428571"></ellipse>
                <ellipse id="Oval-Copy-3" fill="#2B2B2B" cx="17.1527778" cy="67.3928571" rx="3.95833333" ry="3.96428571"></ellipse>
                <ellipse id="Oval" fill="#2B2B2B" cx="47.5" cy="37" rx="29.0277778" ry="29.0714286"></ellipse>
                <path d="M44.8611111,63.4285714 C60.8927101,63.4285714 73.8888889,50.4128495 73.8888889,34.3571429 C73.8888889,18.3014362 28.8295121,63.4285714 44.8611111,63.4285714 Z" id="Oval-Copy-4" fill="#393939"></path>
                <ellipse id="Oval-Copy-2" fill="#2B2B2B" cx="77.8472222" cy="67.3928571" rx="3.95833333" ry="3.96428571"></ellipse>
            </g>
            <path d="M9,67 L103,67" id="Path" stroke="#23ABE3" stroke-width="4"></path>
            <path d="M9,7 L103,7" id="Path-Copy" stroke="#23ABE3" stroke-width="4"></path>
            <path d="M13.604,86.888 C13.604,85.687994 13.4680014,84.9240016 13.196,84.596 C12.9239986,84.2679984 12.292005,84.104 11.3,84.104 L11.3,83.6 L16.916,83.6 L16.916,84.104 C15.923995,84.104 15.2920014,84.2679984 15.02,84.596 C14.7479986,84.9240016 14.612,85.687994 14.612,86.888 L14.612,92.648 C14.612,94.4720091 14.0640055,95.887995 12.968,96.896 C11.8719945,97.904005 10.4920083,98.408 8.828,98.408 C7.16399168,98.408 5.78800544,97.9000051 4.7,96.884 C3.61199456,95.8679949 3.068,94.456009 3.068,92.648 L3.068,86.888 C3.068,85.687994 2.93600132,84.9240016 2.672,84.596 C2.40799868,84.2679984 1.78000496,84.104 0.788,84.104 L0.788,83.6 L7.268,83.6 L7.268,84.104 C6.27599504,84.104 5.64800132,84.2679984 5.384,84.596 C5.11999868,84.9240016 4.988,85.687994 4.988,86.888 L4.988,92.768 C4.988,94.2720075 5.37199616,95.4079962 6.14,96.176 C6.90800384,96.9440038 7.92399368,97.328 9.188,97.328 C10.5160066,97.328 11.583996,96.9440038 12.392,96.176 C13.200004,95.4079962 13.604,94.2720075 13.604,92.768 L13.604,86.888 Z M23.132,91.328 C24.0440046,90.1759942 25.1559934,89.6 26.468,89.6 C27.5080052,89.6 28.2879974,89.9279967 28.808,90.584 C29.3280026,91.2400033 29.588,92.1039946 29.588,93.176 L29.588,94.688 C29.588,95.888006 29.7039988,96.6559983 29.936,96.992 C30.1680012,97.3280017 30.683996,97.496 31.484,97.496 L31.484,98 L25.988,98 L25.988,97.496 C26.7720039,97.496 27.2839988,97.3240017 27.524,96.98 C27.7640012,96.6359983 27.884,95.8720059 27.884,94.688 L27.884,93.296 C27.884,91.5839914 27.2200066,90.728 25.892,90.728 C25.2039966,90.728 24.5720029,90.9679976 23.996,91.448 C23.4199971,91.9280024 23.132,92.4879968 23.132,93.128 L23.132,94.688 C23.132,95.9200062 23.227999,96.6959984 23.42,97.016 C23.612001,97.3360016 24.0759963,97.496 24.812,97.496 L24.812,98 L19.532,98 L19.532,97.496 C20.332004,97.496 20.8479988,97.3280017 21.08,96.992 C21.3120012,96.6559983 21.428,95.888006 21.428,94.688 L21.428,93.488 C21.428,92.3039941 21.3120012,91.5440017 21.08,91.208 C20.8479988,90.8719983 20.332004,90.704 19.532,90.704 L19.532,90.2 L22.724,89.6 C22.8680007,89.9040015 23.0039994,90.4799958 23.132,91.328 Z M41.66,96.488 C42.1240023,95.8319967 42.356,95.000005 42.356,93.992 C42.356,92.983995 42.1240023,92.1600032 41.66,91.52 C41.1959977,90.8799968 40.5240044,90.56 39.644,90.56 C39.0999973,90.56 38.6160021,90.7279983 38.192,91.064 C37.7679979,91.4000017 37.4360012,91.8559971 37.196,92.432 L37.196,95.528 C37.4360012,96.120003 37.7679979,96.5879983 38.192,96.932 C38.6160021,97.2760017 39.0999973,97.448 39.644,97.448 C40.5240044,97.448 41.1959977,97.1280032 41.66,96.488 Z M37.196,100.712 C37.196,101.896006 37.3119988,102.655998 37.544,102.992 C37.7760012,103.328002 38.291996,103.496 39.092,103.496 L39.092,104 L33.596,104 L33.596,103.496 C34.396004,103.496 34.9119988,103.332002 35.144,103.004 C35.3760012,102.675998 35.492,101.912006 35.492,100.712 L35.492,93.488 C35.492,92.287994 35.3760012,91.5240016 35.144,91.196 C34.9119988,90.8679984 34.396004,90.704 33.596,90.704 L33.596,90.2 L36.812,89.6 C36.9080005,89.7760009 37.0279993,90.263996 37.172,91.064 C37.9880041,90.0879951 38.9799942,89.6 40.148,89.6 C41.2840057,89.6 42.2599959,90.0279957 43.076,90.884 C43.8920041,91.7400043 44.3,92.7759939 44.3,93.992 C44.3,95.2080061 43.8920041,96.2479957 43.076,97.112 C42.2599959,97.9760043 41.2840057,98.408 40.148,98.408 C38.9639941,98.408 37.9800039,97.9280048 37.196,96.968 L37.196,100.712 Z M55.58,91.088 C55.58,91.8400038 55.2600032,92.216 54.62,92.216 C54.3959989,92.216 54.2000008,92.1280009 54.032,91.952 C53.8639992,91.7759991 53.78,91.5760011 53.78,91.352 C53.78,90.8239974 53.5240026,90.56 53.012,90.56 C52.6439982,90.56 52.2440022,90.8159974 51.812,91.328 C51.3799978,91.8400026 51.164,92.5199958 51.164,93.368 L51.164,94.688 C51.164,95.888006 51.2799988,96.6559983 51.512,96.992 C51.7440012,97.3280017 52.259996,97.496 53.06,97.496 L53.06,98 L47.564,98 L47.564,97.496 C48.364004,97.496 48.8799988,97.3280017 49.112,96.992 C49.3440012,96.6559983 49.46,95.888006 49.46,94.688 L49.46,93.488 C49.46,92.3039941 49.3440012,91.5440017 49.112,91.208 C48.8799988,90.8719983 48.364004,90.704 47.564,90.704 L47.564,90.2 L50.756,89.6 C50.9000007,89.9040015 51.0359994,90.4799958 51.164,91.328 C51.4040012,90.8479976 51.7639976,90.4400017 52.244,90.104 C52.7240024,89.7679983 53.2039976,89.6 53.684,89.6 C54.292003,89.6 54.7599984,89.7599984 55.088,90.08 C55.4160016,90.4000016 55.58,90.7359982 55.58,91.088 Z M60.092,92.504 L64.076,92.504 C64.2360008,92.0559978 64.1680015,91.6200021 63.872,91.196 C63.5759985,90.7719979 63.0680036,90.56 62.348,90.56 C61.8359974,90.56 61.376002,90.7359982 60.968,91.088 C60.559998,91.4400018 60.2680009,91.911997 60.092,92.504 Z M59.948,93.392 C59.8039993,94.5760059 59.9919974,95.5399963 60.512,96.284 C61.0320026,97.0280037 61.8839941,97.4 63.068,97.4 C63.468002,97.4 63.9239974,97.296001 64.436,97.088 C64.9480026,96.879999 65.3719983,96.6160016 65.708,96.296 L66.14,96.824 C65.7079978,97.2880023 65.1560034,97.6679985 64.484,97.964 C63.8119966,98.2600015 63.1400034,98.408 62.468,98.408 C61.1719935,98.408 60.1080042,97.9800043 59.276,97.124 C58.4439958,96.2679957 58.028,95.2240062 58.028,93.992 C58.028,92.7599938 58.4799955,91.7200042 59.384,90.872 C60.2880045,90.0239958 61.3159942,89.6 62.468,89.6 C63.5560054,89.6 64.4439966,89.9799962 65.132,90.74 C65.8200034,91.5000038 66.0200014,92.383995 65.732,93.392 L59.948,93.392 Z M75.284,95.792 C75.284,96.5600038 75.0080028,97.1879976 74.456,97.676 C73.9039972,98.1640024 73.228004,98.408 72.428,98.408 C72.1399986,98.408 71.8440015,98.3520006 71.54,98.24 C71.2359985,98.1279994 70.9920009,98.0200005 70.808,97.916 C70.6239991,97.8119995 70.4520008,97.7320003 70.292,97.676 C70.1319992,97.6199997 70.0200003,97.6479994 69.956,97.76 C69.8919997,97.8720006 69.86,98.0879984 69.86,98.408 L69.356,98.408 L69.356,94.904 L69.86,94.904 C69.86,95.5280031 70.0999976,96.1319971 70.58,96.716 C71.0600024,97.3000029 71.6919961,97.592 72.476,97.592 C72.8600019,97.592 73.1839987,97.4720012 73.448,97.232 C73.7120013,96.9919988 73.844,96.7040017 73.844,96.368 C73.844,95.8719975 73.3960045,95.3840024 72.5,94.904 L71.156,94.184 C70.0999947,93.6079971 69.572,92.8080051 69.572,91.784 C69.572,91.1599969 69.8159976,90.6400021 70.304,90.224 C70.7920024,89.8079979 71.3559968,89.6 71.996,89.6 C72.5400027,89.6 73.0999971,89.7439986 73.676,90.032 C73.868001,90.1440006 73.9999996,90.1800002 74.072,90.14 C74.1440004,90.0999998 74.18,89.9200016 74.18,89.6 L74.684,89.6 L74.684,92.384 L74.18,92.384 C74.18,91.8559974 74.0000018,91.388002 73.64,90.98 C73.2799982,90.571998 72.8120029,90.368 72.236,90.368 C71.835998,90.368 71.532001,90.463999 71.324,90.656 C71.115999,90.848001 71.012,91.0959985 71.012,91.4 C71.012,91.6720014 71.115999,91.907999 71.324,92.108 C71.532001,92.308001 71.9159972,92.5599985 72.476,92.864 L73.628,93.488 C74.7320055,94.1120031 75.284,94.8799954 75.284,95.792 Z M84.644,95.792 C84.644,96.5600038 84.3680028,97.1879976 83.816,97.676 C83.2639972,98.1640024 82.588004,98.408 81.788,98.408 C81.4999986,98.408 81.2040015,98.3520006 80.9,98.24 C80.5959985,98.1279994 80.3520009,98.0200005 80.168,97.916 C79.9839991,97.8119995 79.8120008,97.7320003 79.652,97.676 C79.4919992,97.6199997 79.3800003,97.6479994 79.316,97.76 C79.2519997,97.8720006 79.22,98.0879984 79.22,98.408 L78.716,98.408 L78.716,94.904 L79.22,94.904 C79.22,95.5280031 79.4599976,96.1319971 79.94,96.716 C80.4200024,97.3000029 81.0519961,97.592 81.836,97.592 C82.2200019,97.592 82.5439987,97.4720012 82.808,97.232 C83.0720013,96.9919988 83.204,96.7040017 83.204,96.368 C83.204,95.8719975 82.7560045,95.3840024 81.86,94.904 L80.516,94.184 C79.4599947,93.6079971 78.932,92.8080051 78.932,91.784 C78.932,91.1599969 79.1759976,90.6400021 79.664,90.224 C80.1520024,89.8079979 80.7159968,89.6 81.356,89.6 C81.9000027,89.6 82.4599971,89.7439986 83.036,90.032 C83.228001,90.1440006 83.3599996,90.1800002 83.432,90.14 C83.5040004,90.0999998 83.54,89.9200016 83.54,89.6 L84.044,89.6 L84.044,92.384 L83.54,92.384 C83.54,91.8559974 83.3600018,91.388002 83,90.98 C82.6399982,90.571998 82.1720029,90.368 81.596,90.368 C81.195998,90.368 80.892001,90.463999 80.684,90.656 C80.475999,90.848001 80.372,91.0959985 80.372,91.4 C80.372,91.6720014 80.475999,91.907999 80.684,92.108 C80.892001,92.308001 81.2759972,92.5599985 81.836,92.864 L82.988,93.488 C84.0920055,94.1120031 84.644,94.8799954 84.644,95.792 Z M90.14,92.504 L94.124,92.504 C94.2840008,92.0559978 94.2160015,91.6200021 93.92,91.196 C93.6239985,90.7719979 93.1160036,90.56 92.396,90.56 C91.8839974,90.56 91.424002,90.7359982 91.016,91.088 C90.607998,91.4400018 90.3160009,91.911997 90.14,92.504 Z M89.996,93.392 C89.8519993,94.5760059 90.0399974,95.5399963 90.56,96.284 C91.0800026,97.0280037 91.9319941,97.4 93.116,97.4 C93.516002,97.4 93.9719974,97.296001 94.484,97.088 C94.9960026,96.879999 95.4199983,96.6160016 95.756,96.296 L96.188,96.824 C95.7559978,97.2880023 95.2040034,97.6679985 94.532,97.964 C93.8599966,98.2600015 93.1880034,98.408 92.516,98.408 C91.2199935,98.408 90.1560042,97.9800043 89.324,97.124 C88.4919958,96.2679957 88.076,95.2240062 88.076,93.992 C88.076,92.7599938 88.5279955,91.7200042 89.432,90.872 C90.3360045,90.0239958 91.3639942,89.6 92.516,89.6 C93.6040054,89.6 94.4919966,89.9799962 95.18,90.74 C95.8680034,91.5000038 96.0680014,92.383995 95.78,93.392 L89.996,93.392 Z M106.508,95.552 L106.508,92.456 C106.283999,91.8799971 105.956002,91.4200017 105.524,91.076 C105.091998,90.7319983 104.612003,90.56 104.084,90.56 C103.187996,90.56 102.508002,90.8799968 102.044,91.52 C101.579998,92.1600032 101.348,92.983995 101.348,93.992 C101.348,95.0160051 101.579998,95.8479968 102.044,96.488 C102.508002,97.1280032 103.187996,97.448 104.084,97.448 C104.612003,97.448 105.091998,97.2760017 105.524,96.932 C105.956002,96.5879983 106.283999,96.1280029 106.508,95.552 Z M106.508,91.016 L106.508,87.104 C106.508,85.903994 106.392001,85.1360017 106.16,84.8 C105.927999,84.4639983 105.412004,84.296 104.612,84.296 L104.612,83.792 L108.212,83.192 L108.212,94.496 C108.212,95.696006 108.327999,96.4639983 108.56,96.8 C108.792001,97.1360017 109.307996,97.304 110.108,97.304 L110.108,97.808 L106.916,98.408 C106.803999,98.1679988 106.676001,97.6800037 106.532,96.944 C105.747996,97.9200049 104.764006,98.408 103.58,98.408 C102.443994,98.408 101.464004,97.9760043 100.64,97.112 C99.8159959,96.2479957 99.404,95.2080061 99.404,93.992 C99.404,92.7759939 99.8159959,91.7400043 100.64,90.884 C101.464004,90.0279957 102.443994,89.6 103.58,89.6 C104.764006,89.6 105.739996,90.0719953 106.508,91.016 Z" id="Unpressed-Copy" fill="#B35E2C"></path>
        </g>
        <g id="Button_Pressed" transform="translate(481.000000, 24.798485)">
            <g id="Tactile_Switch">
                <g id="Lead">
                    <rect id="Rectangle" fill="#999999" x="0" y="0" width="13.1944444" height="5.28571429"></rect>
                    <rect id="Rectangle-7" fill="#B6B6B6" x="0" y="2.64285714" width="13.1944444" height="2.64285714"></rect>
                </g>
                <g id="Lead-Copy" transform="translate(81.805556, 0.000000)">
                    <rect id="Rectangle" fill="#999999" x="0" y="0" width="13.1944444" height="5.28571429"></rect>
                    <rect id="Rectangle-7" fill="#B6B6B6" x="0" y="2.64285714" width="13.1944444" height="2.64285714"></rect>
                </g>
                <g id="Lead-Copy-3" transform="translate(0.000000, 68.714286)">
                    <rect id="Rectangle" fill="#999999" x="0" y="0" width="13.1944444" height="5.28571429"></rect>
                    <rect id="Rectangle-7" fill="#B6B6B6" x="0" y="2.64285714" width="13.1944444" height="2.64285714"></rect>
                </g>
                <g id="Lead-Copy-2" transform="translate(81.805556, 68.714286)">
                    <rect id="Rectangle" fill="#999999" x="0" y="0" width="13.1944444" height="5.28571429"></rect>
                    <rect id="Rectangle-7" fill="#B6B6B6" x="0" y="2.64285714" width="13.1944444" height="2.64285714"></rect>
                </g>
                <rect id="Rectangle" fill="#E7E7E7" x="10.5555556" y="0" width="73.8888889" height="74"></rect>
                <polygon id="Rectangle-Copy" fill="#D4D4D4" points="10.5555556 0 84.4444444 0 10.5555556 74"></polygon>
                <ellipse id="Oval" fill="#2B2B2B" cx="17.1527778" cy="6.60714286" rx="3.95833333" ry="3.96428571"></ellipse>
                <ellipse id="Oval-Copy" fill="#2B2B2B" cx="77.8472222" cy="6.60714286" rx="3.95833333" ry="3.96428571"></ellipse>
                <ellipse id="Oval-Copy-3" fill="#2B2B2B" cx="17.1527778" cy="67.3928571" rx="3.95833333" ry="3.96428571"></ellipse>
                <ellipse id="Oval" fill="#2B2B2B" cx="47.5" cy="37" rx="29.0277778" ry="29.0714286"></ellipse>
                <path d="M44.8611111,63.4285714 C60.8927101,63.4285714 73.8888889,50.4128495 73.8888889,34.3571429 C73.8888889,18.3014362 28.8295121,63.4285714 44.8611111,63.4285714 Z" id="Oval-Copy-4" fill="#393939"></path>
                <ellipse id="Oval-Copy-2" fill="#2B2B2B" cx="77.8472222" cy="67.3928571" rx="3.95833333" ry="3.96428571"></ellipse>
            </g>
            <path d="M1,67 L95,67" id="Path" stroke="#23ABE3" stroke-width="4"></path>
            <path d="M1,7 L95,7" id="Path-Copy" stroke="#23ABE3" stroke-width="4"></path>
            <path d="M15.292,83.6 C16.9080081,83.6 18.1719954,83.9839962 19.084,84.752 C19.9960046,85.5200038 20.452,86.4879942 20.452,87.656 C20.452,88.8240058 19.9960046,89.7879962 19.084,90.548 C18.1719954,91.3080038 16.9080081,91.688 15.292,91.688 L13.156,91.688 L13.156,94.688 C13.156,95.888006 13.2879987,96.6559983 13.552,96.992 C13.8160013,97.3280017 14.443995,97.496 15.436,97.496 L15.436,98 L8.956,98 L8.956,97.496 C9.94800496,97.496 10.5759987,97.3280017 10.84,96.992 C11.1040013,96.6559983 11.236,95.888006 11.236,94.688 L11.236,86.888 C11.236,85.687994 11.1040013,84.9240016 10.84,84.596 C10.5759987,84.2679984 9.94800496,84.104 8.956,84.104 L8.956,83.6 L15.292,83.6 Z M15.268,90.824 C16.260005,90.824 17.0159974,90.528003 17.536,89.936 C18.0560026,89.343997 18.316,88.5840046 18.316,87.656 C18.316,86.7279954 18.0560026,85.968003 17.536,85.376 C17.0159974,84.783997 16.260005,84.488 15.268,84.488 L13.156,84.488 L13.156,90.824 L15.268,90.824 Z M30.772,91.088 C30.772,91.8400038 30.4520032,92.216 29.812,92.216 C29.5879989,92.216 29.3920008,92.1280009 29.224,91.952 C29.0559992,91.7759991 28.972,91.5760011 28.972,91.352 C28.972,90.8239974 28.7160026,90.56 28.204,90.56 C27.8359982,90.56 27.4360022,90.8159974 27.004,91.328 C26.5719978,91.8400026 26.356,92.5199958 26.356,93.368 L26.356,94.688 C26.356,95.888006 26.4719988,96.6559983 26.704,96.992 C26.9360012,97.3280017 27.451996,97.496 28.252,97.496 L28.252,98 L22.756,98 L22.756,97.496 C23.556004,97.496 24.0719988,97.3280017 24.304,96.992 C24.5360012,96.6559983 24.652,95.888006 24.652,94.688 L24.652,93.488 C24.652,92.3039941 24.5360012,91.5440017 24.304,91.208 C24.0719988,90.8719983 23.556004,90.704 22.756,90.704 L22.756,90.2 L25.948,89.6 C26.0920007,89.9040015 26.2279994,90.4799958 26.356,91.328 C26.5960012,90.8479976 26.9559976,90.4400017 27.436,90.104 C27.9160024,89.7679983 28.3959976,89.6 28.876,89.6 C29.484003,89.6 29.9519984,89.7599984 30.28,90.08 C30.6080016,90.4000016 30.772,90.7359982 30.772,91.088 Z M35.284,92.504 L39.268,92.504 C39.4280008,92.0559978 39.3600015,91.6200021 39.064,91.196 C38.7679985,90.7719979 38.2600036,90.56 37.54,90.56 C37.0279974,90.56 36.568002,90.7359982 36.16,91.088 C35.751998,91.4400018 35.4600009,91.911997 35.284,92.504 Z M35.14,93.392 C34.9959993,94.5760059 35.1839974,95.5399963 35.704,96.284 C36.2240026,97.0280037 37.0759941,97.4 38.26,97.4 C38.660002,97.4 39.1159974,97.296001 39.628,97.088 C40.1400026,96.879999 40.5639983,96.6160016 40.9,96.296 L41.332,96.824 C40.8999978,97.2880023 40.3480034,97.6679985 39.676,97.964 C39.0039966,98.2600015 38.3320034,98.408 37.66,98.408 C36.3639935,98.408 35.3000042,97.9800043 34.468,97.124 C33.6359958,96.2679957 33.22,95.2240062 33.22,93.992 C33.22,92.7599938 33.6719955,91.7200042 34.576,90.872 C35.4800045,90.0239958 36.5079942,89.6 37.66,89.6 C38.7480054,89.6 39.6359966,89.9799962 40.324,90.74 C41.0120034,91.5000038 41.2120014,92.383995 40.924,93.392 L35.14,93.392 Z M50.476,95.792 C50.476,96.5600038 50.2000028,97.1879976 49.648,97.676 C49.0959972,98.1640024 48.420004,98.408 47.62,98.408 C47.3319986,98.408 47.0360015,98.3520006 46.732,98.24 C46.4279985,98.1279994 46.1840009,98.0200005 46,97.916 C45.8159991,97.8119995 45.6440008,97.7320003 45.484,97.676 C45.3239992,97.6199997 45.2120003,97.6479994 45.148,97.76 C45.0839997,97.8720006 45.052,98.0879984 45.052,98.408 L44.548,98.408 L44.548,94.904 L45.052,94.904 C45.052,95.5280031 45.2919976,96.1319971 45.772,96.716 C46.2520024,97.3000029 46.8839961,97.592 47.668,97.592 C48.0520019,97.592 48.3759987,97.4720012 48.64,97.232 C48.9040013,96.9919988 49.036,96.7040017 49.036,96.368 C49.036,95.8719975 48.5880045,95.3840024 47.692,94.904 L46.348,94.184 C45.2919947,93.6079971 44.764,92.8080051 44.764,91.784 C44.764,91.1599969 45.0079976,90.6400021 45.496,90.224 C45.9840024,89.8079979 46.5479968,89.6 47.188,89.6 C47.7320027,89.6 48.2919971,89.7439986 48.868,90.032 C49.060001,90.1440006 49.1919996,90.1800002 49.264,90.14 C49.3360004,90.0999998 49.372,89.9200016 49.372,89.6 L49.876,89.6 L49.876,92.384 L49.372,92.384 C49.372,91.8559974 49.1920018,91.388002 48.832,90.98 C48.4719982,90.571998 48.0040029,90.368 47.428,90.368 C47.027998,90.368 46.724001,90.463999 46.516,90.656 C46.307999,90.848001 46.204,91.0959985 46.204,91.4 C46.204,91.6720014 46.307999,91.907999 46.516,92.108 C46.724001,92.308001 47.1079972,92.5599985 47.668,92.864 L48.82,93.488 C49.9240055,94.1120031 50.476,94.8799954 50.476,95.792 Z M59.836,95.792 C59.836,96.5600038 59.5600028,97.1879976 59.008,97.676 C58.4559972,98.1640024 57.780004,98.408 56.98,98.408 C56.6919986,98.408 56.3960015,98.3520006 56.092,98.24 C55.7879985,98.1279994 55.5440009,98.0200005 55.36,97.916 C55.1759991,97.8119995 55.0040008,97.7320003 54.844,97.676 C54.6839992,97.6199997 54.5720003,97.6479994 54.508,97.76 C54.4439997,97.8720006 54.412,98.0879984 54.412,98.408 L53.908,98.408 L53.908,94.904 L54.412,94.904 C54.412,95.5280031 54.6519976,96.1319971 55.132,96.716 C55.6120024,97.3000029 56.2439961,97.592 57.028,97.592 C57.4120019,97.592 57.7359987,97.4720012 58,97.232 C58.2640013,96.9919988 58.396,96.7040017 58.396,96.368 C58.396,95.8719975 57.9480045,95.3840024 57.052,94.904 L55.708,94.184 C54.6519947,93.6079971 54.124,92.8080051 54.124,91.784 C54.124,91.1599969 54.3679976,90.6400021 54.856,90.224 C55.3440024,89.8079979 55.9079968,89.6 56.548,89.6 C57.0920027,89.6 57.6519971,89.7439986 58.228,90.032 C58.420001,90.1440006 58.5519996,90.1800002 58.624,90.14 C58.6960004,90.0999998 58.732,89.9200016 58.732,89.6 L59.236,89.6 L59.236,92.384 L58.732,92.384 C58.732,91.8559974 58.5520018,91.388002 58.192,90.98 C57.8319982,90.571998 57.3640029,90.368 56.788,90.368 C56.387998,90.368 56.084001,90.463999 55.876,90.656 C55.667999,90.848001 55.564,91.0959985 55.564,91.4 C55.564,91.6720014 55.667999,91.907999 55.876,92.108 C56.084001,92.308001 56.4679972,92.5599985 57.028,92.864 L58.18,93.488 C59.2840055,94.1120031 59.836,94.8799954 59.836,95.792 Z M65.332,92.504 L69.316,92.504 C69.4760008,92.0559978 69.4080015,91.6200021 69.112,91.196 C68.8159985,90.7719979 68.3080036,90.56 67.588,90.56 C67.0759974,90.56 66.616002,90.7359982 66.208,91.088 C65.799998,91.4400018 65.5080009,91.911997 65.332,92.504 Z M65.188,93.392 C65.0439993,94.5760059 65.2319974,95.5399963 65.752,96.284 C66.2720026,97.0280037 67.1239941,97.4 68.308,97.4 C68.708002,97.4 69.1639974,97.296001 69.676,97.088 C70.1880026,96.879999 70.6119983,96.6160016 70.948,96.296 L71.38,96.824 C70.9479978,97.2880023 70.3960034,97.6679985 69.724,97.964 C69.0519966,98.2600015 68.3800034,98.408 67.708,98.408 C66.4119935,98.408 65.3480042,97.9800043 64.516,97.124 C63.6839958,96.2679957 63.268,95.2240062 63.268,93.992 C63.268,92.7599938 63.7199955,91.7200042 64.624,90.872 C65.5280045,90.0239958 66.5559942,89.6 67.708,89.6 C68.7960054,89.6 69.6839966,89.9799962 70.372,90.74 C71.0600034,91.5000038 71.2600014,92.383995 70.972,93.392 L65.188,93.392 Z M81.7,95.552 L81.7,92.456 C81.4759989,91.8799971 81.1480022,91.4200017 80.716,91.076 C80.2839978,90.7319983 79.8040026,90.56 79.276,90.56 C78.3799955,90.56 77.7000023,90.8799968 77.236,91.52 C76.7719977,92.1600032 76.54,92.983995 76.54,93.992 C76.54,95.0160051 76.7719977,95.8479968 77.236,96.488 C77.7000023,97.1280032 78.3799955,97.448 79.276,97.448 C79.8040026,97.448 80.2839978,97.2760017 80.716,96.932 C81.1480022,96.5879983 81.4759989,96.1280029 81.7,95.552 Z M81.7,91.016 L81.7,87.104 C81.7,85.903994 81.5840012,85.1360017 81.352,84.8 C81.1199988,84.4639983 80.604004,84.296 79.804,84.296 L79.804,83.792 L83.404,83.192 L83.404,94.496 C83.404,95.696006 83.5199988,96.4639983 83.752,96.8 C83.9840012,97.1360017 84.499996,97.304 85.3,97.304 L85.3,97.808 L82.108,98.408 C81.9959994,98.1679988 81.8680007,97.6800037 81.724,96.944 C80.9399961,97.9200049 79.9560059,98.408 78.772,98.408 C77.6359943,98.408 76.6560041,97.9760043 75.832,97.112 C75.0079959,96.2479957 74.596,95.2080061 74.596,93.992 C74.596,92.7759939 75.0079959,91.7400043 75.832,90.884 C76.6560041,90.0279957 77.6359943,89.6 78.772,89.6 C79.9560059,89.6 80.9319962,90.0719953 81.7,91.016 Z" id="Pressed-Copy" fill="#B35E2C"></path>
            <path d="M47,5 L47,69" id="Path-2" stroke="#23ABE3" stroke-width="4"></path>
        </g>
    </g>
</svg>