<?xml version="1.0" encoding="UTF-8"?>
<svg width="900px" height="260px" viewBox="0 0 900 260" version="1.1" xmlns="http://www.w3.org/2000/svg" xmlns:xlink="http://www.w3.org/1999/xlink">
    <!-- Generator: Sketch 52.5 (67469) - http://www.bohemiancoding.com/sketch -->
    <title>PWM_25p_DutyCycle</title>
    <desc>Created with Sketch.</desc>
    <g id="PWM_25p_DutyCycle" stroke="none" stroke-width="1" fill="none" fill-rule="evenodd">
        <g id="Illustration_Frame">
            <rect id="Rectangle" stroke="#3D3530" stroke-width="2" fill="#EEEEEE" x="1" y="1" width="898" height="258"></rect>
            <rect id="Rectangle-Copy" stroke="#3D3530" stroke-width="2" fill="#F8FAE4" x="1" y="216" width="898" height="43"></rect>
            <path d="M443.698665,244.568 C442.930662,244.984002 442.034671,245.192 441.010665,245.192 C439.98666,245.192 439.086669,244.980002 438.310665,244.556 C437.534662,244.131998 436.910668,243.540004 436.438665,242.78 C435.966663,242.019996 435.614667,241.152005 435.382665,240.176 C435.150664,239.199995 435.034665,238.128006 435.034665,236.96 C435.034665,234.527988 435.530661,232.544008 436.522665,231.008 C437.51467,229.471992 439.010655,228.704 441.010665,228.704 C443.010675,228.704 444.506661,229.471992 445.498665,231.008 C446.49067,232.544008 446.986665,234.527988 446.986665,236.96 C446.986665,238.128006 446.870667,239.199995 446.638665,240.176 C446.406664,241.152005 446.054668,242.019996 445.582665,242.78 C445.110663,243.540004 444.482669,244.135998 443.698665,244.568 Z M437.698665,241.856 C438.434669,243.088006 439.538658,243.704 441.010665,243.704 C442.482673,243.704 443.582662,243.084006 444.310665,241.844 C445.038669,240.603994 445.402665,238.97601 445.402665,236.96 C445.402665,234.94399 445.038669,233.316006 444.310665,232.076 C443.582662,230.835994 442.482673,230.216 441.010665,230.216 C439.538658,230.216 438.438669,230.835994 437.710665,232.076 C436.982662,233.316006 436.618665,234.94399 436.618665,236.96 C436.618665,238.97601 436.978662,240.607994 437.698665,241.856 Z M448.397332,245 L448.397332,242.456 L450.101332,242.456 L450.101332,245 L448.397332,245 Z M462.191999,243.872 C461.183994,244.752004 459.832007,245.192 458.135999,245.192 C456.43999,245.192 455.088004,244.748004 454.079999,243.86 C453.071994,242.971996 452.567999,241.872007 452.567999,240.56 C452.567999,239.647995 452.819996,238.824004 453.323999,238.088 C453.828001,237.351996 454.535994,236.808002 455.447999,236.456 C454.695995,236.119998 454.112001,235.636003 453.695999,235.004 C453.279997,234.371997 453.071999,233.664004 453.071999,232.88 C453.071999,231.695994 453.527994,230.704004 454.439999,229.904 C455.352003,229.103996 456.583991,228.704 458.135999,228.704 C459.688007,228.704 460.923994,229.103996 461.843999,229.904 C462.764003,230.704004 463.223999,231.695994 463.223999,232.88 C463.223999,233.648004 463.016001,234.347997 462.599999,234.98 C462.183997,235.612003 461.592003,236.103998 460.823999,236.456 C461.752004,236.808002 462.467996,237.347996 462.971999,238.076 C463.476001,238.804004 463.727999,239.631995 463.727999,240.56 C463.727999,241.872007 463.216004,242.975996 462.191999,243.872 Z M455.663999,235.136 C456.288002,235.664003 457.119994,235.928 458.159999,235.928 C459.200004,235.928 460.023996,235.656003 460.631999,235.112 C461.240002,234.567997 461.535999,233.888004 461.519999,233.072 C461.535999,232.255996 461.236002,231.576003 460.619999,231.032 C460.003996,230.487997 459.184004,230.216 458.159999,230.216 C457.119994,230.216 456.292002,230.487997 455.675999,231.032 C455.059996,231.576003 454.751999,232.255996 454.751999,233.072 C454.751999,233.904004 455.055996,234.591997 455.663999,235.136 Z M455.351999,242.768 C456.056002,243.376003 456.991993,243.68 458.159999,243.68 C459.328005,243.68 460.255995,243.372003 460.943999,242.756 C461.632002,242.139997 461.975999,241.368005 461.975999,240.44 C461.975999,239.495995 461.628002,238.720003 460.931999,238.112 C460.235995,237.503997 459.304005,237.2 458.135999,237.2 C456.967993,237.2 456.040002,237.507997 455.351999,238.124 C454.663995,238.740003 454.319999,239.511995 454.319999,240.44 C454.319999,241.368005 454.663995,242.143997 455.351999,242.768 Z M479.178666,228.872 L480.786666,228.872 L474.426666,245 L472.818666,245 L466.434666,228.872 L468.066666,228.872 L473.634666,242.96 L479.178666,228.872 Z M491.287999,245 L491.287999,228.872 L496.759999,228.872 C498.568008,228.872 500.007994,229.347995 501.079999,230.3 C502.152004,231.252005 502.687999,232.447993 502.687999,233.888 C502.687999,235.312007 502.152004,236.503995 501.079999,237.464 C500.007994,238.424005 498.568008,238.904 496.759999,238.904 L492.871999,238.904 L492.871999,245 L491.287999,245 Z M492.871999,237.392 L496.759999,237.392 C498.056005,237.392 499.095995,237.060003 499.879999,236.396 C500.664003,235.731997 501.055999,234.896005 501.055999,233.888 C501.055999,232.895995 500.664003,232.064003 499.879999,231.392 C499.095995,230.719997 498.056005,230.384 496.759999,230.384 L492.871999,230.384 L492.871999,237.392 Z M527.810666,228.872 L529.442666,228.872 L523.874666,245 L522.242666,245 L517.490666,231.032 L512.714666,245 L511.106666,245 L505.514666,228.872 L507.146666,228.872 L511.922666,242.552 L516.746666,228.872 L518.210666,228.872 L523.058666,242.552 L527.810666,228.872 Z M550.629332,245 L549.045332,245 L545.949332,231.824 L541.773332,245 L540.717332,245 L536.565332,231.824 L533.469332,245 L531.885332,245 L535.605332,228.872 L537.045332,228.872 L541.269332,241.784 L545.445332,228.872 L546.909332,228.872 L550.629332,245 Z M565.570666,232.952 L565.570666,234.272 L563.218666,234.272 L563.218666,245 L561.658666,245 L561.658666,234.272 L560.242666,234.272 L560.242666,232.952 L561.658666,232.952 L561.658666,229.472 C561.658666,227.807992 562.314659,226.976 563.626666,226.976 C563.914667,226.976 564.206664,227 564.502666,227.048 C564.798667,227.096 565.018665,227.144 565.162666,227.192 L565.378666,227.264 L565.042666,228.488 C564.722664,228.408 564.402667,228.368 564.082666,228.368 C563.730664,228.368 563.498666,228.483999 563.386666,228.716 C563.274665,228.948001 563.218666,229.391997 563.218666,230.048 L563.218666,232.952 L565.570666,232.952 Z M573.893332,232.808 C574.741337,232.808 575.517329,233.015998 576.221332,233.432 L575.669332,235.016 C574.997329,234.519998 574.317336,234.272 573.629332,234.272 C572.621327,234.272 571.773336,234.627996 571.085332,235.34 C570.397329,236.052004 570.053332,236.927995 570.053332,237.968 L570.053332,245 L568.469332,245 L568.469332,233 L570.053332,233 L570.053332,234.776 C571.029337,233.463993 572.309325,232.808 573.893332,232.808 Z M587.903999,243.368 C586.703993,244.584006 585.248008,245.192 583.535999,245.192 C581.823991,245.192 580.364005,244.588006 579.155999,243.38 C577.947993,242.171994 577.343999,240.712009 577.343999,239 C577.343999,237.287991 577.947993,235.828006 579.155999,234.62 C580.364005,233.411994 581.823991,232.808 583.535999,232.808 C585.248008,232.808 586.707993,233.411994 587.915999,234.62 C589.124005,235.828006 589.727999,237.287991 589.727999,239 C589.727999,240.696008 589.120005,242.151994 587.903999,243.368 Z M583.559999,243.68 C584.856006,243.68 585.947995,243.228005 586.835999,242.324 C587.724004,241.419995 588.167999,240.312007 588.167999,239 C588.167999,237.687993 587.724004,236.576005 586.835999,235.664 C585.947995,234.751995 584.856006,234.296 583.559999,234.296 C582.279993,234.296 581.192004,234.751995 580.295999,235.664 C579.399995,236.576005 578.951999,237.687993 578.951999,239 C578.951999,240.312007 579.399995,241.419995 580.295999,242.324 C581.192004,243.228005 582.279993,243.68 583.559999,243.68 Z M606.954666,232.808 C608.346673,232.808 609.514661,233.299995 610.458666,234.284 C611.402671,235.268005 611.874666,236.479993 611.874666,237.92 L611.874666,245 L610.242666,245 L610.242666,237.968 C610.242666,236.927995 609.902669,236.052004 609.222666,235.34 C608.542662,234.627996 607.698671,234.272 606.690666,234.272 C605.682661,234.272 604.834669,234.627996 604.146666,235.34 C603.458662,236.052004 603.114666,236.927995 603.114666,237.968 L603.114666,245 L601.506666,245 L601.506666,237.968 C601.506666,236.943995 601.158669,236.072004 600.462666,235.352 C599.766662,234.631996 598.922671,234.272 597.930666,234.272 C596.938661,234.272 596.094669,234.631996 595.398666,235.352 C594.702662,236.072004 594.354666,236.943995 594.354666,237.968 L594.354666,245 L592.770666,245 L592.770666,233 L594.354666,233 L594.354666,234.776 C595.330671,233.463993 596.610658,232.808 598.194666,232.808 C599.10667,232.808 599.942662,233.039998 600.702666,233.504 C601.46267,233.968002 602.058664,234.591996 602.490666,235.376 C602.906668,234.591996 603.506662,233.968002 604.290666,233.504 C605.07467,233.039998 605.962661,232.808 606.954666,232.808 Z M627.895999,245.192 C626.647993,245.192 625.512004,244.868003 624.487999,244.22 C623.463994,243.571997 622.768001,242.928003 622.399999,242.288 L623.551999,241.208 C623.856001,241.752003 624.407995,242.299997 625.207999,242.852 C626.008003,243.404003 626.863995,243.68 627.775999,243.68 C628.768004,243.68 629.583996,243.412003 630.223999,242.876 C630.864002,242.339997 631.183999,241.656004 631.183999,240.824 C631.183999,239.943996 630.792003,239.184003 630.007999,238.544 C629.223995,237.903997 628.120006,237.584 626.695999,237.584 L625.783999,237.584 L625.783999,236.336 L626.695999,236.336 C628.120006,236.336 629.223995,236.016003 630.007999,235.376 C630.792003,234.735997 631.183999,233.976004 631.183999,233.096 C631.183999,232.263996 630.864002,231.580003 630.223999,231.044 C629.583996,230.507997 628.768004,230.24 627.775999,230.24 C627.007995,230.24 626.272003,230.451998 625.567999,230.876 C624.863996,231.300002 624.352001,231.695998 624.031999,232.064 C623.711998,232.432002 623.551999,232.648 623.551999,232.712 L622.399999,231.632 C622.784001,230.975997 623.479994,230.328003 624.487999,229.688 C625.496004,229.047997 626.631993,228.728 627.895999,228.728 C629.384007,228.728 630.571995,229.147996 631.459999,229.988 C632.348004,230.828004 632.791999,231.847994 632.791999,233.048 C632.791999,233.960005 632.508002,234.775996 631.939999,235.496 C631.371996,236.216004 630.720003,236.703999 629.983999,236.96 C630.720003,237.216001 631.371996,237.699996 631.939999,238.412 C632.508002,239.124004 632.791999,239.943995 632.791999,240.872 C632.791999,242.072006 632.348004,243.091996 631.459999,243.932 C630.571995,244.772004 629.384007,245.192 627.895999,245.192 Z M634.874666,245 L634.874666,242.456 L636.578666,242.456 L636.578666,245 L634.874666,245 Z M644.493333,245.192 C643.245326,245.192 642.109338,244.868003 641.085333,244.22 C640.061328,243.571997 639.365335,242.928003 638.997333,242.288 L640.149333,241.208 C640.453334,241.752003 641.005329,242.299997 641.805333,242.852 C642.605337,243.404003 643.461328,243.68 644.373333,243.68 C645.365338,243.68 646.181329,243.412003 646.821333,242.876 C647.461336,242.339997 647.781333,241.656004 647.781333,240.824 C647.781333,239.943996 647.389337,239.184003 646.605333,238.544 C645.821329,237.903997 644.71734,237.584 643.293333,237.584 L642.381333,237.584 L642.381333,236.336 L643.293333,236.336 C644.71734,236.336 645.821329,236.016003 646.605333,235.376 C647.389337,234.735997 647.781333,233.976004 647.781333,233.096 C647.781333,232.263996 647.461336,231.580003 646.821333,231.044 C646.181329,230.507997 645.365338,230.24 644.373333,230.24 C643.605329,230.24 642.869336,230.451998 642.165333,230.876 C641.461329,231.300002 640.949334,231.695998 640.629333,232.064 C640.309331,232.432002 640.149333,232.648 640.149333,232.712 L638.997333,231.632 C639.381335,230.975997 640.077328,230.328003 641.085333,229.688 C642.093338,229.047997 643.229326,228.728 644.493333,228.728 C645.98134,228.728 647.169328,229.147996 648.057333,229.988 C648.945337,230.828004 649.389333,231.847994 649.389333,233.048 C649.389333,233.960005 649.105336,234.775996 648.537333,235.496 C647.96933,236.216004 647.317336,236.703999 646.581333,236.96 C647.317336,237.216001 647.96933,237.699996 648.537333,238.412 C649.105336,239.124004 649.389333,239.943995 649.389333,240.872 C649.389333,242.072006 648.945337,243.091996 648.057333,243.932 C647.169328,244.772004 645.98134,245.192 644.493333,245.192 Z M664.455999,228.872 L666.063999,228.872 L659.703999,245 L658.095999,245 L651.711999,228.872 L653.343999,228.872 L658.911999,242.96 L664.455999,228.872 Z M684.605333,228.272 C686.253341,228.272 687.757326,228.703996 689.117333,229.568 C690.47734,230.432004 691.517329,231.511994 692.237333,232.808 C692.957336,234.104006 693.317333,235.439993 693.317333,236.816 C693.317333,238.016006 692.993336,239.107995 692.345333,240.092 C691.69733,241.076005 690.813338,241.568 689.693333,241.568 C689.11733,241.568 688.593335,241.392002 688.121333,241.04 C687.64933,240.687998 687.277334,240.224003 687.005333,239.648 C686.237329,240.736005 685.245339,241.28 684.029333,241.28 C682.973328,241.28 682.081336,240.832004 681.353333,239.936 C680.625329,239.039996 680.261333,238.024006 680.261333,236.888 C680.261333,235.719994 680.645329,234.728004 681.413333,233.912 C682.181337,233.095996 683.061328,232.688 684.053333,232.688 C685.189338,232.688 686.157329,233.191995 686.957333,234.2 L687.293333,232.832 L688.565333,233.12 C688.117331,235.16801 687.893333,236.671995 687.893333,237.632 C687.893333,238.384004 688.065331,239.007998 688.409333,239.504 C688.753335,240.000002 689.18933,240.248 689.717333,240.248 C690.357336,240.248 690.893331,239.920003 691.325333,239.264 C691.757335,238.607997 691.973333,237.792005 691.973333,236.816 C691.973333,234.927991 691.23334,233.248007 689.753333,231.776 C688.273325,230.303993 686.557343,229.568 684.605333,229.568 C682.525322,229.568 680.78134,230.299993 679.373333,231.764 C677.965326,233.228007 677.261333,234.839991 677.261333,236.6 C677.261333,238.920012 678.009325,240.783993 679.505333,242.192 C681.00134,243.600007 682.677324,244.304 684.533333,244.304 C685.333337,244.304 686.05333,244.196001 686.693333,243.98 C687.333336,243.763999 687.773332,243.552001 688.013333,243.344 L688.373333,243.032 L689.285333,243.992 C689.253333,244.04 689.205333,244.1 689.141333,244.172 C689.077332,244.244 688.913334,244.371999 688.649333,244.556 C688.385331,244.740001 688.097334,244.903999 687.785333,245.048 C687.473331,245.192001 687.037336,245.323999 686.477333,245.444 C685.91733,245.564001 685.317336,245.624 684.677333,245.624 C683.605327,245.624 682.553338,245.420002 681.521333,245.012 C680.489328,244.603998 679.557337,244.032004 678.725333,243.296 C677.893329,242.559996 677.221335,241.624006 676.709333,240.488 C676.19733,239.351994 675.941333,238.112007 675.941333,236.768 C675.941333,234.575989 676.769325,232.612009 678.425333,230.876 C680.081341,229.139991 682.14132,228.272 684.605333,228.272 Z M682.301333,239.096 C682.797335,239.672003 683.381329,239.96 684.053333,239.96 C684.725336,239.96 685.31333,239.664003 685.817333,239.072 C686.321335,238.479997 686.573333,237.784004 686.573333,236.984 C686.573333,236.151996 686.329335,235.452003 685.841333,234.884 C685.35333,234.315997 684.757336,234.032 684.053333,234.032 C683.365329,234.032 682.777335,234.311997 682.289333,234.872 C681.80133,235.432003 681.557333,236.135996 681.557333,236.984 C681.557333,237.800004 681.80533,238.503997 682.301333,239.096 Z M704.394666,245 L704.250666,243.656 C704.298666,243.608 704.758662,243.204004 705.630666,242.444 C706.502671,241.683996 707.274663,240.980003 707.946666,240.332 C708.61867,239.683997 709.378662,238.908005 710.226666,238.004 C711.07467,237.099995 711.738664,236.240004 712.218666,235.424 C712.698669,234.607996 712.938666,233.904003 712.938666,233.312 C712.938666,232.447996 712.60667,231.716003 711.942666,231.116 C711.278663,230.515997 710.450671,230.216 709.458666,230.216 C707.794658,230.216 706.434671,231.20799 705.378666,233.192 L704.298666,232.112 C704.442667,231.839999 704.630665,231.552002 704.862666,231.248 C705.094667,230.943998 705.426664,230.580002 705.858666,230.156 C706.290668,229.731998 706.838663,229.384001 707.502666,229.112 C708.16667,228.839999 708.874662,228.704 709.626666,228.704 C711.066673,228.704 712.250662,229.155995 713.178666,230.06 C714.106671,230.964005 714.570666,232.015994 714.570666,233.216 C714.570666,233.936004 714.358668,234.719996 713.934666,235.568 C713.510664,236.416004 712.92267,237.263996 712.170666,238.112 C711.418662,238.960004 710.742669,239.679997 710.142666,240.272 C709.542663,240.864003 708.83067,241.515996 708.006666,242.228 C707.182662,242.940004 706.730667,243.336 706.650666,243.416 L715.026666,243.416 L715.026666,245 L704.394666,245 Z M723.469333,245.192 C722.285327,245.192 721.189338,244.856003 720.181333,244.184 C719.173328,243.511997 718.501335,242.728004 718.165333,241.832 L719.557333,241.16 C719.733334,241.720003 720.197329,242.279997 720.949333,242.84 C721.701337,243.400003 722.541328,243.68 723.469333,243.68 C724.541338,243.68 725.473329,243.340003 726.265333,242.66 C727.057337,241.979997 727.453333,241.072006 727.453333,239.936 C727.453333,238.767994 727.069337,237.816004 726.301333,237.08 C725.533329,236.343996 724.637338,235.976 723.613333,235.976 C722.749329,235.976 721.937337,236.139998 721.177333,236.468 C720.417329,236.796002 719.925334,237.103999 719.701333,237.392 L718.357333,236.84 L718.357333,228.872 L728.653333,228.872 L728.653333,230.456 L719.941333,230.456 L719.941333,235.4 C720.869338,234.775997 722.093325,234.464 723.613333,234.464 C725.10134,234.464 726.377328,234.963995 727.441333,235.964 C728.505338,236.964005 729.037333,238.279992 729.037333,239.912 C729.037333,241.544008 728.509338,242.831995 727.453333,243.776 C726.397328,244.720005 725.069341,245.192 723.469333,245.192 Z M738.68,236.456 C737.991996,237.160004 737.152005,237.512 736.16,237.512 C735.167995,237.512 734.324003,237.160004 733.628,236.456 C732.931996,235.751996 732.584,234.912005 732.584,233.936 C732.584,232.959995 732.931996,232.120004 733.628,231.416 C734.324003,230.711996 735.167995,230.36 736.16,230.36 C737.152005,230.36 737.995996,230.711996 738.692,231.416 C739.388003,232.120004 739.736,232.959995 739.736,233.936 C739.736,234.912005 739.384003,235.751996 738.68,236.456 Z M734.12,245 L745.304,230.552 L746.84,230.552 L735.68,245 L734.12,245 Z M734.504,235.568 C734.968002,236.032002 735.519996,236.264 736.16,236.264 C736.800003,236.264 737.347997,236.036002 737.804,235.58 C738.260002,235.123998 738.488,234.576003 738.488,233.936 C738.488,233.295997 738.260002,232.748002 737.804,232.292 C737.347997,231.835998 736.800003,231.608 736.16,231.608 C735.519996,231.608 734.972002,231.843998 734.516,232.316 C734.059997,232.788002 733.832,233.327997 733.832,233.936 C733.832,234.560003 734.055997,235.103998 734.504,235.568 Z M744.8,245.192 C743.823995,245.192 742.988003,244.844003 742.292,244.148 C741.595996,243.451997 741.248,242.608005 741.248,241.616 C741.248,240.639995 741.591996,239.804003 742.28,239.108 C742.968003,238.411997 743.807995,238.064 744.8,238.064 C745.792005,238.064 746.635996,238.407997 747.332,239.096 C748.028003,239.784003 748.376,240.623995 748.376,241.616 C748.376,242.608005 748.028003,243.451997 747.332,244.148 C746.635996,244.844003 745.792005,245.192 744.8,245.192 Z M744.8,243.896 C745.424003,243.896 745.963997,243.672002 746.42,243.224 C746.876002,242.775998 747.104,242.240003 747.104,241.616 C747.104,240.975997 746.880002,240.436002 746.432,239.996 C745.983997,239.555998 745.440003,239.336 744.8,239.336 C744.159996,239.336 743.620002,239.559998 743.18,240.008 C742.739997,240.456002 742.52,240.991997 742.52,241.616 C742.52,242.240003 742.747997,242.775998 743.204,243.224 C743.660002,243.672002 744.191997,243.896 744.8,243.896 Z M759.093333,245 L759.093333,228.872 L762.741333,228.872 C765.397346,228.872 767.509325,229.639992 769.077333,231.176 C770.645341,232.712008 771.429333,234.631988 771.429333,236.936 C771.429333,239.224011 770.641341,241.139992 769.065333,242.684 C767.489325,244.228008 765.381346,245 762.741333,245 L759.093333,245 Z M760.677333,243.488 L762.741333,243.488 C764.853344,243.488 766.541327,242.868006 767.805333,241.628 C769.069339,240.387994 769.701333,238.824009 769.701333,236.936 C769.701333,235.047991 769.069339,233.484006 767.805333,232.244 C766.541327,231.003994 764.853344,230.384 762.741333,230.384 L760.677333,230.384 L760.677333,243.488 Z M783.184,233 L784.768,233 L784.768,245 L783.184,245 L783.184,243.224 C782.207995,244.536007 780.928008,245.192 779.344,245.192 C777.951993,245.192 776.784004,244.700005 775.84,243.716 C774.895995,242.731995 774.424,241.520007 774.424,240.08 L774.424,233 L776.056,233 L776.056,240.032 C776.056,241.056005 776.399996,241.923996 777.088,242.636 C777.776003,243.348004 778.615995,243.704 779.608,243.704 C780.616005,243.704 781.463996,243.348004 782.152,242.636 C782.840003,241.923996 783.184,241.056005 783.184,240.032 L783.184,233 Z M795.442666,242.312 L796.234666,243.536 C796.138666,243.664001 796.010667,243.815999 795.850666,243.992 C795.690666,244.168001 795.330669,244.411998 794.770666,244.724 C794.210664,245.036002 793.634669,245.192 793.042666,245.192 C792.034661,245.192 791.19067,244.892003 790.510666,244.292 C789.830663,243.691997 789.490666,242.824006 789.490666,241.688 L789.490666,234.44 L787.570666,234.44 L787.570666,232.976 L789.490666,232.976 L789.490666,229.184 L791.074666,228.992 L791.074666,232.976 L794.698666,232.976 L794.698666,234.44 L791.074666,234.44 L791.074666,241.328 C791.074666,242.064004 791.302664,242.647998 791.758666,243.08 C792.214669,243.512002 792.738663,243.728 793.330666,243.728 C793.698668,243.728 794.058665,243.616001 794.410666,243.392 C794.762668,243.167999 795.022666,242.948001 795.190666,242.732 C795.358667,242.515999 795.442666,242.376 795.442666,242.312 Z M806.189333,233 L807.773333,233 L801.221333,250.112 L799.637333,250.112 L802.157333,243.536 L797.717333,233 L799.301333,233 L802.901333,241.568 L806.189333,233 Z M825.282666,245.192 C822.914655,245.192 821.026674,244.404008 819.618666,242.828 C818.210659,241.251992 817.506666,239.296012 817.506666,236.96 C817.506666,234.607988 818.210659,232.644008 819.618666,231.068 C821.026674,229.491992 822.914655,228.704 825.282666,228.704 C826.850674,228.704 828.214661,229.063996 829.374666,229.784 C830.534672,230.504004 831.434663,231.487994 832.074666,232.736 L830.586666,233.6 C830.074664,232.559995 829.358671,231.736003 828.438666,231.128 C827.518662,230.519997 826.466672,230.216 825.282666,230.216 C823.458657,230.216 821.998672,230.851994 820.902666,232.124 C819.806661,233.396006 819.258666,235.00799 819.258666,236.96 C819.258666,238.89601 819.806661,240.503994 820.902666,241.784 C821.998672,243.064006 823.458657,243.704 825.282666,243.704 C826.482672,243.704 827.542662,243.396003 828.462666,242.78 C829.382671,242.163997 830.090664,241.336005 830.586666,240.296 L832.074666,241.184 C831.434663,242.432006 830.534672,243.411996 829.374666,244.124 C828.214661,244.836004 826.850674,245.192 825.282666,245.192 Z M842.821333,233 L844.405333,233 L837.853333,250.112 L836.269333,250.112 L838.789333,243.536 L834.349333,233 L835.933333,233 L839.533333,241.568 L842.821333,233 Z M852.296,245.192 C850.583991,245.192 849.124006,244.588006 847.916,243.38 C846.707994,242.171994 846.104,240.712009 846.104,239 C846.104,237.287991 846.707994,235.828006 847.916,234.62 C849.124006,233.411994 850.583991,232.808 852.296,232.808 C853.384005,232.808 854.395995,233.075997 855.332,233.612 C856.268005,234.148003 857.007997,234.863996 857.552,235.76 L856.112,236.456 C855.679998,235.799997 855.128003,235.280002 854.456,234.896 C853.783997,234.511998 853.064004,234.32 852.296,234.32 C850.999993,234.32 849.908004,234.771995 849.02,235.676 C848.131995,236.580005 847.688,237.687993 847.688,239 C847.688,240.312007 848.131995,241.419995 849.02,242.324 C849.908004,243.228005 850.999993,243.68 852.296,243.68 C853.064004,243.68 853.783997,243.488002 854.456,243.104 C855.128003,242.719998 855.679998,242.200003 856.112,241.544 L857.552,242.24 C857.007997,243.136004 856.268005,243.851997 855.332,244.388 C854.395995,244.924003 853.384005,245.192 852.296,245.192 Z M861.026667,245 L861.026667,227.144 L862.610667,227.144 L862.610667,245 L861.026667,245 Z M872.037333,243.608 C873.109339,243.608 874.069329,243.304003 874.917333,242.696 C875.765338,242.087997 876.341332,241.376004 876.645333,240.56 L877.989333,241.04 C877.621331,242.048005 876.905339,242.975996 875.841333,243.824 C874.777328,244.672004 873.509341,245.088 872.037333,245.072 C870.693327,245.072 869.465339,244.656004 868.353333,243.824 C867.241328,242.991996 866.485335,241.928006 866.085333,240.632 C865.925332,240.103997 865.845333,239.528003 865.845333,238.904 C865.845333,237.175991 866.445327,235.712006 867.645333,234.512 C868.845339,233.311994 870.309325,232.704 872.037333,232.688 C873.605341,232.704 874.973327,233.231995 876.141333,234.272 C877.309339,235.312005 877.981332,236.599992 878.157333,238.136 C878.173333,238.216 878.181333,238.319999 878.181333,238.448 L867.693333,240.344 C867.965335,241.304005 868.509329,242.091997 869.325333,242.708 C870.141337,243.324003 871.045328,243.624 872.037333,243.608 Z M871.893333,234.152 C870.693327,234.168 869.665338,234.599996 868.809333,235.448 C867.953329,236.296004 867.493334,237.311994 867.429333,238.496 C867.429333,238.544 867.433333,238.627999 867.441333,238.748 C867.449333,238.868001 867.453333,238.968 867.453333,239.048 L876.381333,237.44 C876.077332,236.463995 875.509337,235.668003 874.677333,235.052 C873.845329,234.435997 872.917338,234.136 871.893333,234.152 Z" id="0.8V-PWM-from-3.3V-@-Copy" fill="#23ABE3"></path>
        </g>
        <g id="PWM_50p_DutyCycle" transform="translate(28.000000, 22.000000)">
            <g id="Axis" transform="translate(0.000000, 40.000000)">
                <g id="Group" transform="translate(91.000000, 11.000000)" stroke="#3D3530" stroke-linecap="square" stroke-width="3">
                    <path d="M0.5,0 L0.5,80" id="Line"></path>
                    <path d="M2,80 L701,80" id="Line"></path>
                </g>
                <path d="M91.5,10.5 L81.5,10.5" id="Line" stroke="#3D3530" stroke-width="3" stroke-linecap="square"></path>
                <path d="M91.5,91 L81.5,91" id="Line-Copy-8" stroke="#3D3530" stroke-width="3" stroke-linecap="square"></path>
                <g id="Labels">
                    <path d="M35.344,14.24 C35.2319994,14.3360005 35.0920008,14.483999 34.924,14.684 C34.7559992,14.884001 34.6000007,15.0439994 34.456,15.164 C34.3119993,15.2840006 34.1680007,15.344 34.024,15.344 C33.8959994,15.344 33.7800005,15.2920005 33.676,15.188 C33.5719995,15.0839995 33.52,14.9520008 33.52,14.792 C33.52,14.5039986 33.7279979,14.2080015 34.144,13.904 L35.92,12.488 C36.3840023,12.1359982 36.7639985,11.6840028 37.06,11.132 C37.3560015,10.5799972 37.504,10.008003 37.504,9.416 C37.504,8.74399664 37.2640024,8.208002 36.784,7.808 C36.3039976,7.407998 35.6720039,7.208 34.888,7.208 C34.0559958,7.208 33.3600028,7.55999648 32.8,8.264 C32.2399972,8.96800352 32.2479971,9.81599504 32.824,10.808 L32.104,11.552 C31.1759954,10.9919972 30.6760004,10.2840043 30.604,9.428 C30.5319996,8.57199572 30.895996,7.82000324 31.696,7.172 C32.496004,6.52399676 33.5599934,6.2 34.888,6.2 C36.1200062,6.2 37.1919954,6.49599704 38.104,7.088 C39.0160046,7.68000296 39.472,8.4559952 39.472,9.416 C39.472,9.76800176 39.3960008,10.1279982 39.244,10.496 C39.0919992,10.8640018 38.9080011,11.1759987 38.692,11.432 C38.4759989,11.6880013 38.2600011,11.9239989 38.044,12.14 C37.8279989,12.3560011 37.6480007,12.5199994 37.504,12.632 L37.264,12.776 L36.16,13.616 C37.3120058,13.8560012 38.2239966,14.3279965 38.896,15.032 C39.5680034,15.7360035 39.904,16.5519954 39.904,17.48 C39.904,18.5840055 39.4440046,19.5279961 38.524,20.312 C37.6039954,21.0960039 36.4720067,21.488 35.128,21.488 C33.8319935,21.488 32.7680042,21.1760031 31.936,20.552 C31.1039958,19.9279969 30.688,19.3360028 30.688,18.776 C30.688,18.4079982 30.8959979,18.224 31.312,18.224 C31.4720008,18.224 31.6119994,18.2959993 31.732,18.44 C31.8520006,18.5840007 31.9879992,18.7839987 32.14,19.04 C32.2920008,19.2960013 32.4399993,19.4959993 32.584,19.64 C33.176003,20.2640031 33.9599951,20.576 34.936,20.576 C35.8800047,20.576 36.5879976,20.2920028 37.06,19.724 C37.5320024,19.1559972 37.768,18.4080046 37.768,17.48 C37.768,16.7119962 37.572002,16.024003 37.18,15.416 C36.787998,14.807997 36.1760042,14.4160009 35.344,14.24 Z M46.408,15.944 C46.408,16.2800017 46.2720014,16.5719988 46,16.82 C45.7279986,17.0680012 45.4080018,17.192 45.04,17.192 C44.6719982,17.192 44.3600013,17.0680012 44.104,16.82 C43.8479987,16.5719988 43.72,16.2800017 43.72,15.944 C43.72,15.5919982 43.8479987,15.2920012 44.104,15.044 C44.3600013,14.7959988 44.6719982,14.672 45.04,14.672 C45.4080018,14.672 45.7279986,14.7959988 46,15.044 C46.2720014,15.2920012 46.408,15.5919982 46.408,15.944 Z M55.048,14.24 C54.9359994,14.3360005 54.7960008,14.483999 54.628,14.684 C54.4599992,14.884001 54.3040007,15.0439994 54.16,15.164 C54.0159993,15.2840006 53.8720007,15.344 53.728,15.344 C53.5999994,15.344 53.4840005,15.2920005 53.38,15.188 C53.2759995,15.0839995 53.224,14.9520008 53.224,14.792 C53.224,14.5039986 53.4319979,14.2080015 53.848,13.904 L55.624,12.488 C56.0880023,12.1359982 56.4679985,11.6840028 56.764,11.132 C57.0600015,10.5799972 57.208,10.008003 57.208,9.416 C57.208,8.74399664 56.9680024,8.208002 56.488,7.808 C56.0079976,7.407998 55.3760039,7.208 54.592,7.208 C53.7599958,7.208 53.0640028,7.55999648 52.504,8.264 C51.9439972,8.96800352 51.9519971,9.81599504 52.528,10.808 L51.808,11.552 C50.8799954,10.9919972 50.3800004,10.2840043 50.308,9.428 C50.2359996,8.57199572 50.599996,7.82000324 51.4,7.172 C52.200004,6.52399676 53.2639934,6.2 54.592,6.2 C55.8240062,6.2 56.8959954,6.49599704 57.808,7.088 C58.7200046,7.68000296 59.176,8.4559952 59.176,9.416 C59.176,9.76800176 59.1000008,10.1279982 58.948,10.496 C58.7959992,10.8640018 58.6120011,11.1759987 58.396,11.432 C58.1799989,11.6880013 57.9640011,11.9239989 57.748,12.14 C57.5319989,12.3560011 57.3520007,12.5199994 57.208,12.632 L56.968,12.776 L55.864,13.616 C57.0160058,13.8560012 57.9279966,14.3279965 58.6,15.032 C59.2720034,15.7360035 59.608,16.5519954 59.608,17.48 C59.608,18.5840055 59.1480046,19.5279961 58.228,20.312 C57.3079954,21.0960039 56.1760067,21.488 54.832,21.488 C53.5359935,21.488 52.4720042,21.1760031 51.64,20.552 C50.8079958,19.9279969 50.392,19.3360028 50.392,18.776 C50.392,18.4079982 50.5999979,18.224 51.016,18.224 C51.1760008,18.224 51.3159994,18.2959993 51.436,18.44 C51.5560006,18.5840007 51.6919992,18.7839987 51.844,19.04 C51.9960008,19.2960013 52.1439993,19.4959993 52.288,19.64 C52.880003,20.2640031 53.6639951,20.576 54.64,20.576 C55.5840047,20.576 56.2919976,20.2920028 56.764,19.724 C57.2360024,19.1559972 57.472,18.4080046 57.472,17.48 C57.472,16.7119962 57.276002,16.024003 56.884,15.416 C56.491998,14.807997 55.8800042,14.4160009 55.048,14.24 Z M70.288,9.488 C69.8719979,9.488 69.5400012,9.59199896 69.292,9.8 C69.0439988,10.008001 68.8080011,10.3759974 68.584,10.904 L65.872,17.432 L65.392,17.432 L62.464,10.904 C62.2239988,10.3759974 61.9880012,10.008001 61.756,9.8 C61.5239988,9.59199896 61.2160019,9.488 60.832,9.488 L60.832,9.008 L65.08,9.008 L65.08,9.488 C64.5359973,9.488 64.2160005,9.57999908 64.12,9.764 C64.0239995,9.94800092 64.0959988,10.3279971 64.336,10.904 L66.04,14.744 L67.624,10.904 C67.8640012,10.3919974 67.9360005,10.0280011 67.84,9.812 C67.7439995,9.59599892 67.4400026,9.488 66.928,9.488 L66.928,9.008 L70.288,9.008 L70.288,9.488 Z" id="3.3v-copy" fill="#524740"></path>
                    <path d="M49.984,85.856 C51.0880055,84.7519945 52.4079923,84.2 53.944,84.2 C55.4800077,84.2 56.7959945,84.7479945 57.892,85.844 C58.9880055,86.9400055 59.536,88.2559923 59.536,89.792 C59.536,91.3440078 58.9880055,92.6679945 57.892,93.764 C56.7959945,94.8600055 55.4800077,95.408 53.944,95.408 C52.4079923,95.408 51.0920055,94.8600055 49.996,93.764 C48.8999945,92.6679945 48.352,91.3440078 48.352,89.792 C48.352,88.2559923 48.8959946,86.9440054 49.984,85.856 Z M53.944,85.568 C52.8239944,85.568 51.868004,85.9839958 51.076,86.816 C50.283996,87.6480042 49.888,88.6399942 49.888,89.792 C49.888,90.9600058 50.283996,91.9559959 51.076,92.78 C51.868004,93.6040041 52.8239944,94.016 53.944,94.016 C55.0480055,94.016 55.999996,93.6040041 56.8,92.78 C57.600004,91.9559959 58,90.9600058 58,89.792 C58,88.6399942 57.600004,87.6480042 56.8,86.816 C55.999996,85.9839958 55.0480055,85.568 53.944,85.568 Z M70.288,87.488 C69.8719979,87.488 69.5400012,87.591999 69.292,87.8 C69.0439988,88.008001 68.8080011,88.3759974 68.584,88.904 L65.872,95.432 L65.392,95.432 L62.464,88.904 C62.2239988,88.3759974 61.9880012,88.008001 61.756,87.8 C61.5239988,87.591999 61.2160019,87.488 60.832,87.488 L60.832,87.008 L65.08,87.008 L65.08,87.488 C64.5359973,87.488 64.2160005,87.5799991 64.12,87.764 C64.0239995,87.9480009 64.0959988,88.3279971 64.336,88.904 L66.04,92.744 L67.624,88.904 C67.8640012,88.3919974 67.9360005,88.0280011 67.84,87.812 C67.7439995,87.5959989 67.4400026,87.488 66.928,87.488 L66.928,87.008 L70.288,87.008 L70.288,87.488 Z" id="0v-copy" fill="#524740"></path>
                    <path d="M421.452,112.6 L421.668,115.84 L421.164,115.84 L421.044,115.36 C420.851999,114.639996 420.596002,114.156001 420.276,113.908 C419.955998,113.659999 419.284005,113.536 418.26,113.536 L415.116,113.536 L415.116,123.688 C415.116,124.888006 415.251999,125.655998 415.524,125.992 C415.796001,126.328002 416.427995,126.496 417.42,126.496 L417.42,127 L410.916,127 L410.916,126.496 C411.908005,126.496 412.539999,126.328002 412.812,125.992 C413.084001,125.655998 413.22,124.888006 413.22,123.688 L413.22,113.536 L410.076,113.536 C409.051995,113.536 408.380002,113.659999 408.06,113.908 C407.739998,114.156001 407.484001,114.639996 407.292,115.36 L407.172,115.84 L406.668,115.84 L406.884,112.6 L421.452,112.6 Z M428.268,127 L422.772,127 L422.772,126.496 C423.572004,126.496 424.087999,126.328002 424.32,125.992 C424.552001,125.655998 424.668,124.888006 424.668,123.688 L424.668,122.488 C424.668,121.303994 424.552001,120.544002 424.32,120.208 C424.087999,119.871998 423.572004,119.704 422.772,119.704 L422.772,119.2 L426.372,118.6 L426.372,123.688 C426.372,124.888006 426.487999,125.655998 426.72,125.992 C426.952001,126.328002 427.467996,126.496 428.268,126.496 L428.268,127 Z M426.564,115.168 C426.564,115.472002 426.460001,115.727999 426.252,115.936 C426.043999,116.144001 425.796001,116.248 425.508,116.248 C425.219999,116.248 424.972001,116.144001 424.764,115.936 C424.555999,115.727999 424.452,115.472002 424.452,115.168 C424.452,114.879999 424.555999,114.632001 424.764,114.424 C424.972001,114.215999 425.219999,114.112 425.508,114.112 C425.796001,114.112 426.043999,114.215999 426.252,114.424 C426.460001,114.632001 426.564,114.879999 426.564,115.168 Z M439.116,122.128 L439.116,123.688 C439.116,124.952006 439.199999,125.735998 439.368,126.04 C439.536001,126.344002 439.955997,126.496 440.628,126.496 L440.628,127 L435.924,127 L435.924,126.496 C436.596003,126.496 437.015999,126.344002 437.184,126.04 C437.352001,125.735998 437.436,124.952006 437.436,123.688 L437.436,122.296 C437.436,120.583991 436.860006,119.728 435.708,119.728 C435.211998,119.728 434.676003,119.959998 434.1,120.424 C433.523997,120.888002 433.236,121.455997 433.236,122.128 L433.236,123.688 C433.236,124.936006 433.319999,125.715998 433.488,126.028 C433.656001,126.340002 434.067997,126.496 434.724,126.496 L434.724,127 L429.636,127 L429.636,126.496 C430.436004,126.496 430.951999,126.328002 431.184,125.992 C431.416001,125.655998 431.532,124.888006 431.532,123.688 L431.532,122.488 C431.532,121.303994 431.416001,120.544002 431.184,120.208 C430.951999,119.871998 430.436004,119.704 429.636,119.704 L429.636,119.2 L432.828,118.6 C432.972001,118.904002 433.107999,119.479996 433.236,120.328 C434.148005,119.175994 435.187994,118.6 436.356,118.6 C437.684007,118.6 438.531998,119.199994 438.9,120.4 C439.220002,119.951998 439.695997,119.540002 440.328,119.164 C440.960003,118.787998 441.603997,118.6 442.26,118.6 C444.100009,118.6 445.02,119.791988 445.02,122.176 L445.02,123.688 C445.02,124.888006 445.135999,125.655998 445.368,125.992 C445.600001,126.328002 446.115996,126.496 446.916,126.496 L446.916,127 L441.828,127 L441.828,126.496 C442.500003,126.496 442.915999,126.344002 443.076,126.04 C443.236001,125.735998 443.316,124.952006 443.316,123.688 L443.316,122.296 C443.316,120.583991 442.748006,119.728 441.612,119.728 C441.115998,119.728 440.576003,119.959998 439.992,120.424 C439.407997,120.888002 439.116,121.455997 439.116,122.128 Z M450.612,121.504 L454.596,121.504 C454.756001,121.055998 454.688001,120.620002 454.392,120.196 C454.095999,119.771998 453.588004,119.56 452.868,119.56 C452.355997,119.56 451.896002,119.735998 451.488,120.088 C451.079998,120.440002 450.788001,120.911997 450.612,121.504 Z M450.468,122.392 C450.323999,123.576006 450.511997,124.539996 451.032,125.284 C451.552003,126.028004 452.403994,126.4 453.588,126.4 C453.988002,126.4 454.443997,126.296001 454.956,126.088 C455.468003,125.879999 455.891998,125.616002 456.228,125.296 L456.66,125.824 C456.227998,126.288002 455.676003,126.667999 455.004,126.964 C454.331997,127.260001 453.660003,127.408 452.988,127.408 C451.691994,127.408 450.628004,126.980004 449.796,126.124 C448.963996,125.267996 448.548,124.224006 448.548,122.992 C448.548,121.759994 448.999995,120.720004 449.904,119.872 C450.808005,119.023996 451.835994,118.6 452.988,118.6 C454.076005,118.6 454.963997,118.979996 455.652,119.74 C456.340003,120.500004 456.540001,121.383995 456.252,122.392 L450.468,122.392 Z" id="Time-Copy" fill="#524740"></path>
                    <path d="M-7.94,46.104 C-8.88400472,46.104 -9.4959986,46.2199988 -9.776,46.452 C-10.0560014,46.6840012 -10.395998,47.2639954 -10.796,48.192 L-16.076,60.408 L-16.388,60.408 L-21.692,48.192 C-22.092002,47.2639954 -22.4319986,46.6840012 -22.712,46.452 C-22.9920014,46.2199988 -23.6039953,46.104 -24.548,46.104 L-24.548,45.6 L-17.9,45.6 L-17.9,46.104 C-18.892005,46.104 -19.5279986,46.2439986 -19.808,46.524 C-20.0880014,46.8040014 -20.0760015,47.2719967 -19.772,47.928 L-15.692,57.264 L-11.66,47.928 C-11.3559985,47.2719967 -11.3439986,46.8040014 -11.624,46.524 C-11.9040014,46.2439986 -12.539995,46.104 -13.532,46.104 L-13.532,45.6 L-7.94,45.6 L-7.94,46.104 Z M0.58,52.896 C1.5400048,53.7440042 2.02,54.7759939 2.02,55.992 C2.02,57.2080061 1.54400476,58.2479957 0.592,59.112 C-0.36000476,59.9760043 -1.49999336,60.408 -2.828,60.408 C-4.15600664,60.408 -5.29599524,59.9760043 -6.248,59.112 C-7.20000476,58.2479957 -7.676,57.2080061 -7.676,55.992 C-7.676,54.7759939 -7.20000476,53.7400043 -6.248,52.884 C-5.29599524,52.0279957 -4.15600664,51.6 -2.828,51.6 C-1.49999336,51.6 -0.36400472,52.0319957 0.58,52.896 Z M-0.668,58.512 C-0.17199752,57.8559967 0.076,57.0160051 0.076,55.992 C0.076,54.9679949 -0.17199752,54.1320032 -0.668,53.484 C-1.16400248,52.8359968 -1.88399528,52.512 -2.828,52.512 C-3.77200472,52.512 -4.49199752,52.8399967 -4.988,53.496 C-5.48400248,54.1520033 -5.732,54.983995 -5.732,55.992 C-5.732,57.000005 -5.48400248,57.8319967 -4.988,58.488 C-4.49199752,59.1440033 -3.77200472,59.472 -2.828,59.472 C-1.88399528,59.472 -1.16400248,59.1520032 -0.668,58.512 Z M9.124,60 L3.628,60 L3.628,59.496 C4.428004,59.496 4.94399884,59.3280017 5.176,58.992 C5.40800116,58.6559983 5.524,57.888006 5.524,56.688 L5.524,49.104 C5.524,47.903994 5.40800116,47.1360017 5.176,46.8 C4.94399884,46.4639983 4.428004,46.296 3.628,46.296 L3.628,45.792 L7.228,45.192 L7.228,56.688 C7.228,57.888006 7.34399884,58.6559983 7.576,58.992 C7.80800116,59.3280017 8.323996,59.496 9.124,59.496 L9.124,60 Z M11.524,52.848 L10.276,52.848 L10.276,52.272 C10.9640034,52.1279993 11.4679984,51.8160024 11.788,51.336 C12.1080016,50.8559976 12.3159995,50.2000042 12.412,49.368 L13.228,49.368 L13.228,52.008 L15.316,52.008 L15.316,52.848 L13.228,52.848 L13.228,57.648 C13.228,58.8000058 13.5879964,59.376 14.308,59.376 C14.7720023,59.376 15.2919971,59.1040027 15.868,58.56 L16.276,58.968 C15.9399983,59.368002 15.5360024,59.6959987 15.064,59.952 C14.5919976,60.2080013 14.156002,60.336 13.756,60.336 C13.0679966,60.336 12.524002,60.1120022 12.124,59.664 C11.723998,59.2159978 11.524,58.5440045 11.524,57.648 L11.524,52.848 Z M25.972,59.52 C25.5079977,60.0160025 24.980003,60.264 24.388,60.264 C23.4279952,60.264 22.8840006,59.8000046 22.756,58.872 C21.6839946,59.8320048 20.6840046,60.312 19.756,60.312 C19.147997,60.312 18.6360021,60.1320018 18.22,59.772 C17.8039979,59.4119982 17.596,58.9200031 17.596,58.296 C17.596,56.6159916 19.299983,55.480003 22.708,54.888 C22.708,53.9439953 22.604001,53.2880018 22.396,52.92 C22.187999,52.5519982 21.7560033,52.368 21.1,52.368 C20.7799984,52.368 20.4720015,52.471999 20.176,52.68 C19.8799985,52.888001 19.732,53.1679982 19.732,53.52 C19.732,53.7600012 19.6520008,53.9599992 19.492,54.12 C19.3319992,54.2800008 19.1400011,54.36 18.916,54.36 C18.6759988,54.36 18.4760008,54.2800008 18.316,54.12 C18.1559992,53.9599992 18.076,53.7600012 18.076,53.52 C18.076,52.9599972 18.3839969,52.5000018 19,52.14 C19.6160031,51.7799982 20.323996,51.6 21.124,51.6 C22.2920058,51.6 23.1319974,51.8559974 23.644,52.368 C24.1560026,52.8800026 24.412,53.7119942 24.412,54.864 L24.412,58.488 C24.412,59.1120031 24.5959982,59.424 24.964,59.424 C25.172001,59.424 25.3959988,59.3040012 25.636,59.064 L25.972,59.52 Z M22.708,58.08 L22.708,55.632 C20.499989,56.1440026 19.396,56.9359946 19.396,58.008 C19.396,58.3760018 19.5039989,58.6719989 19.72,58.896 C19.9360011,59.1200011 20.2039984,59.232 20.524,59.232 C21.116003,59.232 21.8439957,58.8480038 22.708,58.08 Z M32.212,56.664 C32.5160015,56.1999977 32.668,55.6000037 32.668,54.864 C32.668,54.1279963 32.5200015,53.5280023 32.224,53.064 C31.9279985,52.5999977 31.5000028,52.368 30.94,52.368 C30.3799972,52.368 29.9480015,52.5999977 29.644,53.064 C29.3399985,53.5280023 29.188,54.1279963 29.188,54.864 C29.188,55.6000037 29.3399985,56.1959977 29.644,56.652 C29.9480015,57.1080023 30.3799972,57.336 30.94,57.336 C31.5000028,57.336 31.9239986,57.1120022 32.212,56.664 Z M28.708,59.136 C28.708,59.6160024 29.4359927,59.9199994 30.892,60.048 C32.4280077,60.1760006 33.5399966,60.5279971 34.228,61.104 C34.9160034,61.6800029 35.26,62.3759959 35.26,63.192 C35.26,64.1680049 34.856004,64.9479971 34.048,65.532 C33.239996,66.1160029 32.2280061,66.408 31.012,66.408 C29.7159935,66.408 28.672004,66.1400027 27.88,65.604 C27.087996,65.0679973 26.7239997,64.4400036 26.788,63.72 C26.8520003,62.9999964 27.3639952,62.3920025 28.324,61.896 L28.756,62.16 C28.2919977,62.6880026 28.0440002,63.1719978 28.012,63.612 C27.9799998,64.0520022 28.1199984,64.3999987 28.432,64.656 C28.7440016,64.9120013 29.1279977,65.1119993 29.584,65.256 C30.0400023,65.4000007 30.5159975,65.472 31.012,65.472 C31.7960039,65.472 32.487997,65.3000017 33.088,64.956 C33.688003,64.6119983 33.988,64.1680027 33.988,63.624 C33.988,63.0959974 33.7280026,62.7120012 33.208,62.472 C32.6879974,62.2319988 31.8760055,62.0560006 30.772,61.944 C28.4999886,61.7199989 27.364,60.9760063 27.364,59.712 C27.364,58.8479957 28.0359933,58.2080021 29.38,57.792 C28.7559969,57.5039986 28.2640018,57.1040026 27.904,56.592 C27.5439982,56.0799974 27.364,55.5040032 27.364,54.864 C27.364,53.9679955 27.7119965,53.2000032 28.408,52.56 C29.1040035,51.9199968 29.947995,51.6 30.94,51.6 C31.9000048,51.6 32.7239966,51.903997 33.412,52.512 C33.620001,52.2559987 33.9039982,52.0400009 34.264,51.864 C34.6240018,51.6879991 34.9399986,51.6 35.212,51.6 C35.9160035,51.6 36.363999,51.895997 36.556,52.488 C36.7000007,52.9360022 36.6280014,53.2719989 36.34,53.496 C36.2439995,53.5760004 36.1320006,53.616 36.004,53.616 C35.7639988,53.6320001 35.5840006,53.5840006 35.464,53.472 C35.3439994,53.3599994 35.2720001,53.2360007 35.248,53.1 C35.2239999,52.9639993 35.1600005,52.8360006 35.056,52.716 C34.9519995,52.5959994 34.7880011,52.536 34.564,52.536 C34.3239988,52.536 34.0760013,52.6639987 33.82,52.92 C34.2840023,53.4800028 34.516,54.1279963 34.516,54.864 C34.516,55.7120042 34.2040031,56.439997 33.58,57.048 C32.9559969,57.656003 32.2280042,58.0159994 31.396,58.128 C29.603991,58.336001 28.708,58.6719977 28.708,59.136 Z M39.724,54.504 L43.708,54.504 C43.8680008,54.0559978 43.8000015,53.6200021 43.504,53.196 C43.2079985,52.7719979 42.7000036,52.56 41.98,52.56 C41.4679974,52.56 41.008002,52.7359982 40.6,53.088 C40.191998,53.4400018 39.9000009,53.911997 39.724,54.504 Z M39.58,55.392 C39.4359993,56.5760059 39.6239974,57.5399963 40.144,58.284 C40.6640026,59.0280037 41.5159941,59.4 42.7,59.4 C43.100002,59.4 43.5559974,59.296001 44.068,59.088 C44.5800026,58.879999 45.0039983,58.6160016 45.34,58.296 L45.772,58.824 C45.3399978,59.2880023 44.7880034,59.6679985 44.116,59.964 C43.4439966,60.2600015 42.7720034,60.408 42.1,60.408 C40.8039935,60.408 39.7400042,59.9800043 38.908,59.124 C38.0759958,58.2679957 37.66,57.2240062 37.66,55.992 C37.66,54.7599938 38.1119955,53.7200042 39.016,52.872 C39.9200045,52.0239958 40.9479942,51.6 42.1,51.6 C43.1880054,51.6 44.0759966,51.9799962 44.764,52.74 C45.4520034,53.5000038 45.6520014,54.383995 45.364,55.392 L39.58,55.392 Z" id="Voltage-Copy" fill="#524740" transform="translate(10.612000, 55.800000) rotate(-90.000000) translate(-10.612000, -55.800000) "></path>
                    <path d="M752.644,7.856 C753.748006,6.75199448 755.067992,6.2 756.604,6.2 C758.140008,6.2 759.455995,6.74799452 760.552,7.844 C761.648005,8.94000548 762.196,10.2559923 762.196,11.792 C762.196,13.3440078 761.648005,14.6679945 760.552,15.764 C759.455995,16.8600055 758.140008,17.408 756.604,17.408 C755.067992,17.408 753.752005,16.8600055 752.656,15.764 C751.559995,14.6679945 751.012,13.3440078 751.012,11.792 C751.012,10.2559923 751.555995,8.94400544 752.644,7.856 Z M756.604,7.568 C755.483994,7.568 754.528004,7.98399584 753.736,8.816 C752.943996,9.64800416 752.548,10.6399942 752.548,11.792 C752.548,12.9600058 752.943996,13.9559959 753.736,14.78 C754.528004,15.6040041 755.483994,16.016 756.604,16.016 C757.708006,16.016 758.659996,15.6040041 759.46,14.78 C760.260004,13.9559959 760.66,12.9600058 760.66,11.792 C760.66,10.6399942 760.260004,9.64800416 759.46,8.816 C758.659996,7.98399584 757.708006,7.568 756.604,7.568 Z M769.972,15.944 C769.972,16.2800017 769.836001,16.5719988 769.564,16.82 C769.291999,17.0680012 768.972002,17.192 768.604,17.192 C768.235998,17.192 767.924001,17.0680012 767.668,16.82 C767.411999,16.5719988 767.284,16.2800017 767.284,15.944 C767.284,15.5919982 767.411999,15.2920012 767.668,15.044 C767.924001,14.7959988 768.235998,14.672 768.604,14.672 C768.972002,14.672 769.291999,14.7959988 769.564,15.044 C769.836001,15.2920012 769.972,15.5919982 769.972,15.944 Z M780.172,8.408 C780.764003,8.0879984 781.223998,7.6480028 781.552,7.088 C781.880002,6.5279972 782.044,5.92000328 782.044,5.264 C782.044,4.71999728 781.872002,4.2280022 781.528,3.788 C781.183998,3.3479978 780.660004,3.128 779.956,3.128 C779.251996,3.128 778.732002,3.34399784 778.396,3.776 C778.059998,4.20800216 777.892,4.7039972 777.892,5.264 C777.892,5.9840036 778.083998,6.5839976 778.468,7.064 C778.852002,7.5440024 779.419996,7.99199792 780.172,8.408 Z M779.404,9.56 C777.835992,10.4560045 777.052,11.7359917 777.052,13.4 C777.052,14.2160041 777.303997,14.9319969 777.808,15.548 C778.312003,16.1640031 779.027995,16.472 779.956,16.472 C780.884005,16.472 781.599997,16.172003 782.104,15.572 C782.608003,14.971997 782.86,14.3120036 782.86,13.592 C782.86,12.7119956 782.568003,11.9800029 781.984,11.396 C781.399997,10.8119971 780.540006,10.2000032 779.404,9.56 Z M780.916,8.792 C781.572003,9.12800168 782.055998,9.38799908 782.368,9.572 C782.680002,9.75600092 783.063998,10.0319982 783.52,10.4 C783.976002,10.7680018 784.303999,11.1799977 784.504,11.636 C784.704001,12.0920023 784.804,12.615997 784.804,13.208 C784.804,14.3920059 784.332005,15.387996 783.388,16.196 C782.443995,17.004004 781.300007,17.408 779.956,17.408 C778.627993,17.408 777.492005,17.0200039 776.548,16.244 C775.603995,15.4679961 775.132,14.5200056 775.132,13.4 C775.132,12.2799944 775.447997,11.4040032 776.08,10.772 C776.712003,10.1399968 777.563995,9.59200232 778.636,9.128 C777.771996,8.59999736 777.108002,8.07200264 776.644,7.544 C776.179998,7.01599736 775.948,6.38400368 775.948,5.648 C775.948,4.67199512 776.339996,3.85200332 777.124,3.188 C777.908004,2.52399668 778.851994,2.192 779.956,2.192 C781.060006,2.192 782.007996,2.5119968 782.8,3.152 C783.592004,3.7920032 783.988,4.55999552 783.988,5.456 C783.988,6.22400384 783.716003,6.85999748 783.172,7.364 C782.627997,7.86800252 781.876005,8.34399776 780.916,8.792 Z M803.188,3.104 C802.243995,3.104 801.632001,3.21999884 801.352,3.452 C801.071999,3.68400116 800.732002,4.26399536 800.332,5.192 L795.052,17.408 L794.74,17.408 L789.436,5.192 C789.035998,4.26399536 788.696001,3.68400116 788.416,3.452 C788.135999,3.21999884 787.524005,3.104 786.58,3.104 L786.58,2.6 L793.228,2.6 L793.228,3.104 C792.235995,3.104 791.600001,3.2439986 791.32,3.524 C791.039999,3.8040014 791.051998,4.27199672 791.356,4.928 L795.436,14.264 L799.468,4.928 C799.772002,4.27199672 799.784001,3.8040014 799.504,3.524 C799.223999,3.2439986 798.588005,3.104 797.596,3.104 L797.596,2.6 L803.188,2.6 L803.188,3.104 Z M721.072,32.008 L719.92,34.672 C719.615998,35.3280033 719.603999,35.7959986 719.884,36.076 C720.164001,36.3560014 720.799995,36.496 721.792,36.496 L721.792,37 L716.176,37 L716.176,36.496 C716.688003,36.496 717.083999,36.4760002 717.364,36.436 C717.644001,36.3959998 717.891999,36.2680011 718.108,36.052 C718.324001,35.8359989 718.476,35.6400009 718.564,35.464 C718.652,35.2879991 718.815999,34.9360026 719.056,34.408 L724.336,22.192 L724.648,22.192 L729.952,34.408 C730.192001,34.9360026 730.356,35.2879991 730.444,35.464 C730.532,35.6400009 730.683999,35.8359989 730.9,36.052 C731.116001,36.2680011 731.359999,36.3959998 731.632,36.436 C731.904001,36.4760002 732.295997,36.496 732.808,36.496 L732.808,37 L726.16,37 L726.16,36.496 C727.152005,36.496 727.783999,36.3560014 728.056,36.076 C728.328001,35.7959986 728.320001,35.3280033 728.032,34.672 L726.88,32.008 L721.072,32.008 Z M726.472,31.12 L723.952,25.336 L721.456,31.12 L726.472,31.12 Z M742.336,29.488 C741.919998,29.488 741.588001,29.591999 741.34,29.8 C741.091999,30.008001 740.856001,30.3759974 740.632,30.904 L737.92,37.432 L737.44,37.432 L734.512,30.904 C734.271999,30.3759974 734.036001,30.008001 733.804,29.8 C733.571999,29.591999 733.264002,29.488 732.88,29.488 L732.88,29.008 L737.128,29.008 L737.128,29.488 C736.583997,29.488 736.264,29.5799991 736.168,29.764 C736.072,29.9480009 736.143999,30.3279971 736.384,30.904 L738.088,34.744 L739.672,30.904 C739.912001,30.3919974 739.984,30.0280011 739.888,29.812 C739.792,29.5959989 739.488003,29.488 738.976,29.488 L738.976,29.008 L742.336,29.008 L742.336,29.488 Z M749.104,33.664 C749.408002,33.1999977 749.56,32.6000037 749.56,31.864 C749.56,31.1279963 749.412001,30.5280023 749.116,30.064 C748.819999,29.5999977 748.392003,29.368 747.832,29.368 C747.271997,29.368 746.840002,29.5999977 746.536,30.064 C746.231998,30.5280023 746.08,31.1279963 746.08,31.864 C746.08,32.6000037 746.231998,33.1959977 746.536,33.652 C746.840002,34.1080023 747.271997,34.336 747.832,34.336 C748.392003,34.336 748.815999,34.1120022 749.104,33.664 Z M745.6,36.136 C745.6,36.6160024 746.327993,36.9199994 747.784,37.048 C749.320008,37.1760006 750.431997,37.5279971 751.12,38.104 C751.808003,38.6800029 752.152,39.3759959 752.152,40.192 C752.152,41.1680049 751.748004,41.9479971 750.94,42.532 C750.131996,43.1160029 749.120006,43.408 747.904,43.408 C746.607994,43.408 745.564004,43.1400027 744.772,42.604 C743.979996,42.0679973 743.616,41.4400036 743.68,40.72 C743.744,39.9999964 744.255995,39.3920025 745.216,38.896 L745.648,39.16 C745.183998,39.6880026 744.936,40.1719978 744.904,40.612 C744.872,41.0520022 745.011998,41.3999987 745.324,41.656 C745.636002,41.9120013 746.019998,42.1119993 746.476,42.256 C746.932002,42.4000007 747.407998,42.472 747.904,42.472 C748.688004,42.472 749.379997,42.3000017 749.98,41.956 C750.580003,41.6119983 750.88,41.1680027 750.88,40.624 C750.88,40.0959974 750.620003,39.7120012 750.1,39.472 C749.579997,39.2319988 748.768006,39.0560006 747.664,38.944 C745.391989,38.7199989 744.256,37.9760063 744.256,36.712 C744.256,35.8479957 744.927993,35.2080021 746.272,34.792 C745.647997,34.5039986 745.156002,34.1040026 744.796,33.592 C744.435998,33.0799974 744.256,32.5040032 744.256,31.864 C744.256,30.9679955 744.603997,30.2000032 745.3,29.56 C745.996003,28.9199968 746.839995,28.6 747.832,28.6 C748.792005,28.6 749.615997,28.903997 750.304,29.512 C750.512001,29.2559987 750.795998,29.0400009 751.156,28.864 C751.516002,28.6879991 751.831999,28.6 752.104,28.6 C752.808004,28.6 753.255999,28.895997 753.448,29.488 C753.592001,29.9360022 753.520001,30.2719989 753.232,30.496 C753.136,30.5760004 753.024001,30.616 752.896,30.616 C752.655999,30.6320001 752.476001,30.5840006 752.356,30.472 C752.235999,30.3599994 752.164,30.2360007 752.14,30.1 C752.116,29.9639993 752.052001,29.8360006 751.948,29.716 C751.843999,29.5959994 751.680001,29.536 751.456,29.536 C751.215999,29.536 750.968001,29.6639987 750.712,29.92 C751.176002,30.4800028 751.408,31.1279963 751.408,31.864 C751.408,32.7120042 751.096003,33.439997 750.472,34.048 C749.847997,34.656003 749.120004,35.0159994 748.288,35.128 C746.495991,35.336001 745.6,35.6719977 745.6,36.136 Z M759.664,35.944 C759.664,36.2800017 759.528001,36.5719988 759.256,36.82 C758.983999,37.0680012 758.664002,37.192 758.296,37.192 C757.927998,37.192 757.616001,37.0680012 757.36,36.82 C757.103999,36.5719988 756.976,36.2800017 756.976,35.944 C756.976,35.5919982 757.103999,35.2920012 757.36,35.044 C757.616001,34.7959988 757.927998,34.672 758.296,34.672 C758.664002,34.672 758.983999,34.7959988 759.256,35.044 C759.528001,35.2920012 759.664,35.5919982 759.664,35.944 Z M772.768,36.28 C772.399998,36.5840015 772.168,36.9599978 772.072,37.408 L771.592,37.408 L771.592,32.128 L772.096,32.128 C772.096,32.1920003 772.1,32.2759995 772.108,32.38 C772.116,32.4840005 772.148,32.6839985 772.204,32.98 C772.26,33.2760015 772.339999,33.5599986 772.444,33.832 C772.548001,34.1040014 772.711999,34.4079983 772.936,34.744 C773.160001,35.0800017 773.419999,35.3679988 773.716,35.608 C774.012001,35.8480012 774.403998,36.0479992 774.892,36.208 C775.380002,36.3680008 775.919997,36.448 776.512,36.448 C777.376004,36.448 778.091997,36.2000025 778.66,35.704 C779.228003,35.2079975 779.512,34.5760038 779.512,33.808 C779.512,32.8319951 778.592009,31.8640048 776.752,30.904 L774.448,29.728 C773.695996,29.327998 773.064003,28.7840034 772.552,28.096 C772.039997,27.4079966 771.784,26.6320043 771.784,25.768 C771.784,24.759995 772.159996,23.9120034 772.912,23.224 C773.664004,22.5359966 774.615994,22.192 775.768,22.192 C776.824005,22.192 777.799996,22.5199967 778.696,23.176 C779.064002,22.8719985 779.296,22.5040022 779.392,22.072 L779.872,22.072 L779.872,27.352 L779.368,27.352 C779.127999,24.551986 777.904011,23.152 775.696,23.152 C775.023997,23.152 774.468002,23.355998 774.028,23.764 C773.587998,24.172002 773.368,24.679997 773.368,25.288 C773.368,25.880003 773.579998,26.379998 774.004,26.788 C774.428002,27.196002 775.191994,27.6879971 776.296,28.264 L778.576,29.44 C780.256008,30.2880042 781.096,31.5039921 781.096,33.088 C781.096,34.3680064 780.652004,35.407996 779.764,36.208 C778.875996,37.008004 777.792006,37.408 776.512,37.408 C775.967997,37.408 775.448002,37.3280008 774.952,37.168 C774.455998,37.0079992 774.008002,36.828001 773.608,36.628 C773.207998,36.427999 772.928001,36.3120002 772.768,36.28 Z M789.88,37 L784.384,37 L784.384,36.496 C785.184004,36.496 785.699999,36.3280017 785.932,35.992 C786.164001,35.6559983 786.28,34.888006 786.28,33.688 L786.28,32.488 C786.28,31.3039941 786.164001,30.5440017 785.932,30.208 C785.699999,29.8719983 785.184004,29.704 784.384,29.704 L784.384,29.2 L787.984,28.6 L787.984,33.688 C787.984,34.888006 788.099999,35.6559983 788.332,35.992 C788.564001,36.3280017 789.079996,36.496 789.88,36.496 L789.88,37 Z M788.176,25.168 C788.176,25.4720015 788.072001,25.727999 787.864,25.936 C787.655999,26.144001 787.408001,26.248 787.12,26.248 C786.831999,26.248 786.584001,26.144001 786.376,25.936 C786.167999,25.727999 786.064,25.4720015 786.064,25.168 C786.064,24.8799986 786.167999,24.632001 786.376,24.424 C786.584001,24.215999 786.831999,24.112 787.12,24.112 C787.408001,24.112 787.655999,24.215999 787.864,24.424 C788.072001,24.632001 788.176,24.8799986 788.176,25.168 Z M797.392,33.664 C797.696002,33.1999977 797.848,32.6000037 797.848,31.864 C797.848,31.1279963 797.700001,30.5280023 797.404,30.064 C797.107999,29.5999977 796.680003,29.368 796.12,29.368 C795.559997,29.368 795.128002,29.5999977 794.824,30.064 C794.519998,30.5280023 794.368,31.1279963 794.368,31.864 C794.368,32.6000037 794.519998,33.1959977 794.824,33.652 C795.128002,34.1080023 795.559997,34.336 796.12,34.336 C796.680003,34.336 797.103999,34.1120022 797.392,33.664 Z M793.888,36.136 C793.888,36.6160024 794.615993,36.9199994 796.072,37.048 C797.608008,37.1760006 798.719997,37.5279971 799.408,38.104 C800.096003,38.6800029 800.44,39.3759959 800.44,40.192 C800.44,41.1680049 800.036004,41.9479971 799.228,42.532 C798.419996,43.1160029 797.408006,43.408 796.192,43.408 C794.895994,43.408 793.852004,43.1400027 793.06,42.604 C792.267996,42.0679973 791.904,41.4400036 791.968,40.72 C792.032,39.9999964 792.543995,39.3920025 793.504,38.896 L793.936,39.16 C793.471998,39.6880026 793.224,40.1719978 793.192,40.612 C793.16,41.0520022 793.299998,41.3999987 793.612,41.656 C793.924002,41.9120013 794.307998,42.1119993 794.764,42.256 C795.220002,42.4000007 795.695998,42.472 796.192,42.472 C796.976004,42.472 797.667997,42.3000017 798.268,41.956 C798.868003,41.6119983 799.168,41.1680027 799.168,40.624 C799.168,40.0959974 798.908003,39.7120012 798.388,39.472 C797.867997,39.2319988 797.056006,39.0560006 795.952,38.944 C793.679989,38.7199989 792.544,37.9760063 792.544,36.712 C792.544,35.8479957 793.215993,35.2080021 794.56,34.792 C793.935997,34.5039986 793.444002,34.1040026 793.084,33.592 C792.723998,33.0799974 792.544,32.5040032 792.544,31.864 C792.544,30.9679955 792.891997,30.2000032 793.588,29.56 C794.284003,28.9199968 795.127995,28.6 796.12,28.6 C797.080005,28.6 797.903997,28.903997 798.592,29.512 C798.800001,29.2559987 799.083998,29.0400009 799.444,28.864 C799.804002,28.6879991 800.119999,28.6 800.392,28.6 C801.096004,28.6 801.543999,28.895997 801.736,29.488 C801.880001,29.9360022 801.808001,30.2719989 801.52,30.496 C801.424,30.5760004 801.312001,30.616 801.184,30.616 C800.943999,30.6320001 800.764001,30.5840006 800.644,30.472 C800.523999,30.3599994 800.452,30.2360007 800.428,30.1 C800.404,29.9639993 800.340001,29.8360006 800.236,29.716 C800.131999,29.5959994 799.968001,29.536 799.744,29.536 C799.503999,29.536 799.256001,29.6639987 799,29.92 C799.464002,30.4800028 799.696,31.1279963 799.696,31.864 C799.696,32.7120042 799.384003,33.439997 798.76,34.048 C798.135997,34.656003 797.408004,35.0159994 796.576,35.128 C794.783991,35.336001 793.888,35.6719977 793.888,36.136 Z M807.4,30.328 C808.312005,29.1759942 809.423993,28.6 810.736,28.6 C811.776005,28.6 812.555997,28.9279967 813.076,29.584 C813.596003,30.2400033 813.856,31.1039946 813.856,32.176 L813.856,33.688 C813.856,34.888006 813.971999,35.6559983 814.204,35.992 C814.436001,36.3280017 814.951996,36.496 815.752,36.496 L815.752,37 L810.256,37 L810.256,36.496 C811.040004,36.496 811.551999,36.3240017 811.792,35.98 C812.032001,35.6359983 812.152,34.8720059 812.152,33.688 L812.152,32.296 C812.152,30.5839914 811.488007,29.728 810.16,29.728 C809.471997,29.728 808.840003,29.9679976 808.264,30.448 C807.687997,30.9280024 807.4,31.4879968 807.4,32.128 L807.4,33.688 C807.4,34.9200062 807.495999,35.6959984 807.688,36.016 C807.880001,36.3360016 808.343996,36.496 809.08,36.496 L809.08,37 L803.8,37 L803.8,36.496 C804.600004,36.496 805.115999,36.3280017 805.348,35.992 C805.580001,35.6559983 805.696,34.888006 805.696,33.688 L805.696,32.488 C805.696,31.3039941 805.580001,30.5440017 805.348,30.208 C805.115999,29.8719983 804.600004,29.704 803.8,29.704 L803.8,29.2 L806.992,28.6 C807.136001,28.9040015 807.271999,29.4799958 807.4,30.328 Z M826.696,36.52 C826.231998,37.0160025 825.704003,37.264 825.112,37.264 C824.151995,37.264 823.608001,36.8000046 823.48,35.872 C822.407995,36.8320048 821.408005,37.312 820.48,37.312 C819.871997,37.312 819.360002,37.1320018 818.944,36.772 C818.527998,36.4119982 818.32,35.9200031 818.32,35.296 C818.32,33.6159916 820.023983,32.480003 823.432,31.888 C823.432,30.9439953 823.328001,30.2880018 823.12,29.92 C822.911999,29.5519982 822.480003,29.368 821.824,29.368 C821.503998,29.368 821.196001,29.471999 820.9,29.68 C820.603999,29.888001 820.456,30.1679982 820.456,30.52 C820.456,30.7600012 820.376001,30.9599992 820.216,31.12 C820.055999,31.2800008 819.864001,31.36 819.64,31.36 C819.399999,31.36 819.200001,31.2800008 819.04,31.12 C818.879999,30.9599992 818.8,30.7600012 818.8,30.52 C818.8,29.9599972 819.107997,29.5000018 819.724,29.14 C820.340003,28.7799982 821.047996,28.6 821.848,28.6 C823.016006,28.6 823.855997,28.8559974 824.368,29.368 C824.880003,29.8800026 825.136,30.7119942 825.136,31.864 L825.136,35.488 C825.136,36.1120031 825.319998,36.424 825.688,36.424 C825.896001,36.424 826.119999,36.3040012 826.36,36.064 L826.696,36.52 Z M823.432,35.08 L823.432,32.632 C821.223989,33.1440026 820.12,33.9359946 820.12,35.008 C820.12,35.3760018 820.227999,35.6719989 820.444,35.896 C820.660001,36.1200011 820.927998,36.232 821.248,36.232 C821.840003,36.232 822.567996,35.8480038 823.432,35.08 Z M834.232,37 L828.736,37 L828.736,36.496 C829.536004,36.496 830.051999,36.3280017 830.284,35.992 C830.516001,35.6559983 830.632,34.888006 830.632,33.688 L830.632,26.104 C830.632,24.903994 830.516001,24.1360017 830.284,23.8 C830.051999,23.4639983 829.536004,23.296 828.736,23.296 L828.736,22.792 L832.336,22.192 L832.336,33.688 C832.336,34.888006 832.451999,35.6559983 832.684,35.992 C832.916001,36.3280017 833.431996,36.496 834.232,36.496 L834.232,37 Z" id="0.8V-Avg.-Signal-Copy" fill="#B35E2C"></path>
                </g>
            </g>
            <path d="M365.096,12.776 L361.4,15.608 L367.616,15.608 L367.016,18.896 L366.512,18.896 C366.512,18.095996 366.344002,17.5800012 366.008,17.348 C365.671998,17.1159988 364.904006,17 363.704,17 L358.76,17 L358.76,16.424 L363.008,13.088 C364.544008,11.8719939 365.312,10.6560061 365.312,9.44 C365.312,8.75199656 365.076002,8.208002 364.604,7.808 C364.131998,7.407998 363.504004,7.208 362.72,7.208 C361.807995,7.208 361.104002,7.55999648 360.608,8.264 C360.111998,8.96800352 360.127997,9.81599504 360.656,10.808 L359.936,11.552 C359.007995,10.9919972 358.508,10.2840043 358.436,9.428 C358.364,8.57199572 358.727996,7.82000324 359.528,7.172 C360.328004,6.52399676 361.391993,6.2 362.72,6.2 C363.952006,6.2 365.023995,6.49599704 365.936,7.088 C366.848005,7.68000296 367.304,8.4559952 367.304,9.416 C367.304,9.76800176 367.228001,10.1279982 367.076,10.496 C366.923999,10.8640018 366.740001,11.1759987 366.524,11.432 C366.307999,11.6880013 366.092001,11.9239989 365.876,12.14 C365.659999,12.3560011 365.480001,12.5199994 365.336,12.632 L365.096,12.776 Z M372.464,12.536 C372.720001,12.2159984 373.103997,11.960001 373.616,11.768 C374.128003,11.575999 374.639997,11.48 375.152,11.48 C376.496007,11.48 377.603996,11.9599952 378.476,12.92 C379.348004,13.8800048 379.784,15.063993 379.784,16.472 C379.784,17.8480069 379.308005,19.0279951 378.356,20.012 C377.403995,20.9960049 376.264007,21.488 374.936,21.488 C373.783994,21.488 372.844004,21.192003 372.116,20.6 C371.387996,20.007997 371.024,19.4320028 371.024,18.872 C371.024,18.4399978 371.247998,18.224 371.696,18.224 C371.904001,18.224 372.087999,18.3479988 372.248,18.596 C372.408001,18.8440012 372.551999,19.1119986 372.68,19.4 C372.808001,19.6880014 373.067998,19.9559988 373.46,20.204 C373.852002,20.4520012 374.343997,20.576 374.936,20.576 C375.880005,20.576 376.591998,20.1960038 377.072,19.436 C377.552002,18.6759962 377.792,17.6880061 377.792,16.472 C377.792,15.2559939 377.556002,14.2880036 377.084,13.568 C376.611998,12.8479964 375.896005,12.488 374.936,12.488 C373.383992,12.488 372.488001,13.2719922 372.248,14.84 L371.36,14.84 L372.104,6.608 L376.16,6.608 C377.200005,6.608 377.879998,6.48400124 378.2,6.236 C378.520002,5.98799876 378.767999,5.5040036 378.944,4.784 L379.496,4.784 L378.896,8.288 L372.824,8.288 L372.464,12.536 Z M397.136,11.504 C397.840004,12.1760034 398.192,12.9839953 398.192,13.928 C398.192,14.8720047 397.840004,15.6839966 397.136,16.364 C396.431996,17.0440034 395.592005,17.384 394.616,17.384 C393.639995,17.384 392.800004,17.0440034 392.096,16.364 C391.391996,15.6839966 391.04,14.8720047 391.04,13.928 C391.04,12.9839953 391.391996,12.1760034 392.096,11.504 C392.800004,10.8319966 393.639995,10.496 394.616,10.496 C395.592005,10.496 396.431996,10.8319966 397.136,11.504 Z M395.48,2.6 L386.288,17.432 L385.424,17 L394.616,2.168 L395.48,2.6 Z M389.864,5.648 C389.864,6.57600464 389.512004,7.3799966 388.808,8.06 C388.103996,8.7400034 387.264005,9.08 386.288,9.08 C385.311995,9.08 384.468004,8.74400336 383.756,8.072 C383.043996,7.39999664 382.688,6.59200472 382.688,5.648 C382.688,4.70399528 383.039996,3.8920034 383.744,3.212 C384.448004,2.5319966 385.295995,2.192 386.288,2.192 C387.264005,2.192 388.103996,2.5319966 388.808,3.212 C389.512004,3.8920034 389.864,4.70399528 389.864,5.648 Z M396.608,13.928 C396.608,13.1599962 396.440002,12.5280025 396.104,12.032 C395.767998,11.5359975 395.272003,11.288 394.616,11.288 C393.959997,11.288 393.468002,11.5359975 393.14,12.032 C392.811998,12.5280025 392.648,13.1599962 392.648,13.928 C392.648,14.7120039 392.811998,15.3479976 393.14,15.836 C393.468002,16.3240024 393.959997,16.568 394.616,16.568 C395.272003,16.568 395.767998,16.3240024 396.104,15.836 C396.440002,15.3479976 396.608,14.7120039 396.608,13.928 Z M387.752,7.544 C388.088002,7.04799752 388.256,6.41600384 388.256,5.648 C388.256,4.87999616 388.088002,4.24800248 387.752,3.752 C387.415998,3.25599752 386.928003,3.008 386.288,3.008 C385.631997,3.008 385.136002,3.25199756 384.8,3.74 C384.463998,4.22800244 384.296,4.86399608 384.296,5.648 C384.296,6.41600384 384.463998,7.04799752 384.8,7.544 C385.136002,8.04000248 385.631997,8.288 386.288,8.288 C386.928003,8.288 387.415998,8.04000248 387.752,7.544 Z M406.112,17 L406.112,16.496 C407.104005,16.496 407.731999,16.3280017 407.996,15.992 C408.260001,15.6559983 408.392,14.888006 408.392,13.688 L408.392,5.888 C408.392,4.687994 408.260001,3.92400164 407.996,3.596 C407.731999,3.26799836 407.104005,3.104 406.112,3.104 L406.112,2.6 L412.616,2.6 C415.272013,2.6 417.271993,3.27199328 418.616,4.616 C419.960007,5.96000672 420.632,7.68798944 420.632,9.8 C420.632,11.9120106 419.960007,13.6399933 418.616,14.984 C417.271993,16.3280067 415.272013,17 412.616,17 L406.112,17 Z M410.312,3.488 L410.312,13.328 C410.312,14.5440061 410.439999,15.3119984 410.696,15.632 C410.952001,15.9520016 411.567995,16.112 412.544,16.112 L412.64,16.112 C413.744006,16.112 414.691996,15.9200019 415.484,15.536 C416.276004,15.1519981 416.867998,14.6360032 417.26,13.988 C417.652002,13.3399968 417.927999,12.6760034 418.088,11.996 C418.248001,11.3159966 418.328,10.5840039 418.328,9.8 C418.328,9.01599608 418.248001,8.2840034 418.088,7.604 C417.927999,6.9239966 417.652002,6.26000324 417.26,5.612 C416.867998,4.96399676 416.276004,4.44800192 415.484,4.064 C414.691996,3.67999808 413.744006,3.488 412.64,3.488 L410.312,3.488 Z M434.384,16.808 L431.168,17.408 C431.039999,17.1519987 430.912001,16.6400038 430.784,15.872 C429.791995,16.8960051 428.744006,17.408 427.64,17.408 C425.65599,17.408 424.664,16.208012 424.664,13.808 L424.664,12.296 C424.664,11.095994 424.548001,10.3280017 424.316,9.992 C424.083999,9.65599832 423.568004,9.488 422.768,9.488 L422.768,9.008 L426.368,9.008 L426.368,13.688 C426.368,15.4000086 426.975994,16.256 428.192,16.256 C428.736003,16.256 429.303997,16.0280023 429.896,15.572 C430.488003,15.1159977 430.784,14.5520034 430.784,13.88 L430.784,12.296 C430.784,11.095994 430.668001,10.3280017 430.436,9.992 C430.203999,9.65599832 429.680004,9.488 428.864,9.488 L428.864,9.008 L432.464,9.008 L432.464,13.496 C432.464,14.696006 432.579999,15.4639983 432.812,15.8 C433.044001,16.1360017 433.567996,16.304 434.384,16.304 L434.384,16.808 Z M436.76,9.848 L435.512,9.848 L435.512,9.272 C436.200003,9.12799928 436.703998,8.8160024 437.024,8.336 C437.344002,7.8559976 437.552,7.20000416 437.648,6.368 L438.464,6.368 L438.464,9.008 L440.552,9.008 L440.552,9.848 L438.464,9.848 L438.464,14.648 C438.464,15.8000058 438.823996,16.376 439.544,16.376 C440.008002,16.376 440.527997,16.1040027 441.104,15.56 L441.512,15.968 C441.175998,16.368002 440.772002,16.6959987 440.3,16.952 C439.827998,17.2080013 439.392002,17.336 438.992,17.336 C438.303997,17.336 437.760002,17.1120022 437.36,16.664 C436.959998,16.2159978 436.76,15.5440045 436.76,14.648 L436.76,9.848 Z M443.072,22.688 C443.072,22.4319987 443.167999,22.204001 443.36,22.004 C443.552001,21.803999 443.803998,21.5320017 444.116,21.188 C444.428002,20.8439983 444.687999,20.4080026 444.896,19.88 L446.096,16.88 L443.336,10.904 C443.079999,10.3599973 442.840001,9.988001 442.616,9.788 C442.391999,9.587999 442.096002,9.488 441.728,9.488 L441.728,9.008 L445.976,9.008 L445.976,9.488 C445.431997,9.488 445.104001,9.57599912 444.992,9.752 C444.879999,9.92800088 444.951999,10.311997 445.208,10.904 L446.96,14.744 L448.496,10.904 C448.720001,10.3599973 448.784,9.988001 448.688,9.788 C448.592,9.587999 448.296002,9.488 447.8,9.488 L447.8,9.008 L451.16,9.008 L451.16,9.488 C450.407996,9.488 449.840002,9.95999528 449.456,10.904 L444.776,22.592 C444.535999,23.184003 444.240002,23.48 443.888,23.48 C443.679999,23.48 443.492001,23.4160006 443.324,23.288 C443.155999,23.1599994 443.072,22.9600014 443.072,22.688 Z M471.296,16.736 L470.816,16.736 C470.687999,16.1119969 470.416002,15.6560014 470,15.368 C468.687993,16.7280068 467.200008,17.408 465.536,17.408 C463.50399,17.408 461.768007,16.6640074 460.328,15.176 C458.887993,13.6879926 458.168,11.8960105 458.168,9.8 C458.168,7.70398952 458.887993,5.91200744 460.328,4.424 C461.768007,2.93599256 463.50399,2.192 465.536,2.192 C467.232008,2.192 468.719994,2.8719932 470,4.232 C470.432002,3.89599832 470.703999,3.44000288 470.816,2.864 L471.296,2.864 L471.296,8.144 L470.816,8.144 C470.479998,6.55999208 469.860005,5.3280044 468.956,4.448 C468.051995,3.5679956 466.944007,3.128 465.632,3.128 C464.719995,3.128 463.912004,3.33199796 463.208,3.74 C462.503996,4.14800204 461.956002,4.68799664 461.564,5.36 C461.171998,6.03200336 460.880001,6.74399624 460.688,7.496 C460.495999,8.24800376 460.4,9.01599608 460.4,9.8 C460.4,10.5840039 460.495999,11.3519962 460.688,12.104 C460.880001,12.8560038 461.171998,13.5639967 461.564,14.228 C461.956002,14.8920033 462.503996,15.427998 463.208,15.836 C463.912004,16.244002 464.719995,16.448 465.632,16.448 C466.944007,16.448 468.051995,16.0040044 468.956,15.116 C469.860005,14.2279956 470.479998,13.0080078 470.816,11.456 L471.296,11.456 L471.296,16.736 Z M474.224,22.688 C474.224,22.4319987 474.319999,22.204001 474.512,22.004 C474.704001,21.803999 474.955998,21.5320017 475.268,21.188 C475.580002,20.8439983 475.839999,20.4080026 476.048,19.88 L477.248,16.88 L474.488,10.904 C474.231999,10.3599973 473.992001,9.988001 473.768,9.788 C473.543999,9.587999 473.248002,9.488 472.88,9.488 L472.88,9.008 L477.128,9.008 L477.128,9.488 C476.583997,9.488 476.256001,9.57599912 476.144,9.752 C476.031999,9.92800088 476.103999,10.311997 476.36,10.904 L478.112,14.744 L479.648,10.904 C479.872001,10.3599973 479.936,9.988001 479.84,9.788 C479.744,9.587999 479.448002,9.488 478.952,9.488 L478.952,9.008 L482.312,9.008 L482.312,9.488 C481.559996,9.488 480.992002,9.95999528 480.608,10.904 L475.928,22.592 C475.687999,23.184003 475.392002,23.48 475.04,23.48 C474.831999,23.48 474.644001,23.4160006 474.476,23.288 C474.307999,23.1599994 474.224,22.9600014 474.224,22.688 Z M487.424,9.368 C486.783997,9.368 486.240002,9.73599632 485.792,10.472 C485.343998,11.2080037 485.12,12.1199946 485.12,13.208 C485.12,14.200005 485.363998,14.9799972 485.852,15.548 C486.340002,16.1160028 487.063995,16.4 488.024,16.4 C488.952005,16.4 489.807996,16.0320037 490.592,15.296 L491,15.824 C490.023995,16.8800053 488.832007,17.408 487.424,17.408 C486.111993,17.408 485.076004,17.0160039 484.316,16.232 C483.555996,15.4479961 483.176,14.4400062 483.176,13.208 C483.176,11.8799934 483.623996,10.7800044 484.52,9.908 C485.416004,9.03599564 486.383995,8.6 487.424,8.6 C488.368005,8.6 489.079998,8.76799832 489.56,9.104 C490.040002,9.44000168 490.28,9.8479976 490.28,10.328 C490.28,10.5840013 490.196001,10.8199989 490.028,11.036 C489.859999,11.2520011 489.592002,11.36 489.224,11.36 C488.967999,11.36 488.748001,11.2680009 488.564,11.084 C488.379999,10.8999991 488.288,10.6720014 488.288,10.4 C488.288,9.71199656 488.000003,9.368 487.424,9.368 Z M497.408,17 L491.912,17 L491.912,16.496 C492.712004,16.496 493.227999,16.3280017 493.46,15.992 C493.692001,15.6559983 493.808,14.888006 493.808,13.688 L493.808,6.104 C493.808,4.903994 493.692001,4.13600168 493.46,3.8 C493.227999,3.46399832 492.712004,3.296 491.912,3.296 L491.912,2.792 L495.512,2.192 L495.512,13.688 C495.512,14.888006 495.627999,15.6559983 495.86,15.992 C496.092001,16.3280017 496.607996,16.496 497.408,16.496 L497.408,17 Z M501.104,11.504 L505.088,11.504 C505.248001,11.0559978 505.180001,10.6200021 504.884,10.196 C504.587999,9.77199788 504.080004,9.56 503.36,9.56 C502.847997,9.56 502.388002,9.73599824 501.98,10.088 C501.571998,10.4400018 501.280001,10.911997 501.104,11.504 Z M500.96,12.392 C500.815999,13.5760059 501.003997,14.5399963 501.524,15.284 C502.044003,16.0280037 502.895994,16.4 504.08,16.4 C504.480002,16.4 504.935997,16.296001 505.448,16.088 C505.960003,15.879999 506.383998,15.6160016 506.72,15.296 L507.152,15.824 C506.719998,16.2880023 506.168003,16.6679985 505.496,16.964 C504.823997,17.2600015 504.152003,17.408 503.48,17.408 C502.183994,17.408 501.120004,16.9800043 500.288,16.124 C499.455996,15.2679957 499.04,14.2240062 499.04,12.992 C499.04,11.7599938 499.491995,10.7200042 500.396,9.872 C501.300005,9.02399576 502.327994,8.6 503.48,8.6 C504.568005,8.6 505.455997,8.9799962 506.144,9.74 C506.832003,10.5000038 507.032001,11.383995 506.744,12.392 L500.96,12.392 Z" id="25%-Duty-Cycle-Copy" fill="#1A80AA"></path>
            <path d="M93,110 L791,110" id="Avg.-Signal" stroke="#1A80AA" stroke-width="3" stroke-linecap="square"></path>
            <polyline id="Signal" stroke="#EF7D3B" stroke-width="3" points="93 131 192 131 192 51 244 51 244 131 392 131 392 51 444 51 444 131 592 131 592 51 644 51 644 131 792 131"></polyline>
        </g>
    </g>
</svg>