<?xml version="1.0" encoding="UTF-8"?>
<svg width="900px" height="260px" viewBox="0 0 900 260" version="1.1" xmlns="http://www.w3.org/2000/svg" xmlns:xlink="http://www.w3.org/1999/xlink">
    <!-- Generator: Sketch 52.5 (67469) - http://www.bohemiancoding.com/sketch -->
    <title>PWM_50p_DutyCycle</title>
    <desc>Created with Sketch.</desc>
    <g id="PWM_50p_DutyCycle" stroke="none" stroke-width="1" fill="none" fill-rule="evenodd">
        <g id="Illustration_Frame">
            <rect id="Rectangle" stroke="#3D3530" stroke-width="2" fill="#EEEEEE" x="1" y="1" width="898" height="258"></rect>
            <rect id="Rectangle-Copy" stroke="#3D3530" stroke-width="2" fill="#F8FAE4" x="1" y="216" width="898" height="43"></rect>
            <path d="M444.394665,230.024889 L445.978665,230.024889 L445.978665,245.555556 L444.394665,245.555556 L444.394665,231.781333 L442.234665,233.191111 L441.466665,231.804444 L444.394665,230.024889 Z M449.021332,245.555556 L449.021332,243.105778 L450.725332,243.105778 L450.725332,245.555556 L449.021332,245.555556 Z M458.831999,235.340444 C460.352006,235.340444 461.635994,235.829625 462.683999,236.808 C463.732004,237.786375 464.255999,239.038215 464.255999,240.563556 C464.255999,242.088897 463.728004,243.333032 462.671999,244.296 C461.615994,245.258968 460.336006,245.740444 458.831999,245.740444 C456.815989,245.740444 455.232005,244.985489 454.079999,243.475556 C452.927993,241.965622 452.351999,240.078234 452.351999,237.813333 C452.351999,235.548433 452.939993,233.657193 454.115999,232.139556 C455.292005,230.621918 456.863989,229.863111 458.831999,229.863111 C460.080005,229.863111 461.215994,230.175108 462.239999,230.799111 C463.264004,231.423114 463.959997,232.043256 464.327999,232.659556 L463.175999,233.699556 C463.127999,233.637926 463.063999,233.553186 462.983999,233.445333 C462.903998,233.337481 462.728,233.14489 462.455999,232.867556 C462.183998,232.590221 461.892,232.347557 461.579999,232.139556 C461.267997,231.931555 460.864001,231.742816 460.367999,231.573333 C459.871996,231.403851 459.360002,231.319111 458.831999,231.319111 C457.359992,231.319111 456.188003,231.943105 455.315999,233.191111 C454.443995,234.439117 454.007999,235.979843 454.007999,237.813333 L454.007999,238.113778 C454.392001,237.235551 454.999995,236.55378 455.831999,236.068444 C456.664003,235.583109 457.663993,235.340444 458.831999,235.340444 Z M458.759999,244.307556 C459.832004,244.307556 460.747995,243.949337 461.507999,243.232889 C462.268003,242.516441 462.647999,241.626672 462.647999,240.563556 C462.647999,239.438809 462.284003,238.50667 461.555999,237.767111 C460.827995,237.027552 459.904004,236.657778 458.783999,236.657778 C457.615993,236.657778 456.660003,237.004441 455.915999,237.697778 C455.171995,238.391115 454.799999,239.338661 454.799999,240.540444 C454.799999,241.988748 455.391993,243.059552 456.575999,243.752889 C457.200002,244.122669 457.927995,244.307556 458.759999,244.307556 Z M479.538666,230.024889 L481.146666,230.024889 L474.786666,245.555556 L473.178666,245.555556 L466.794666,230.024889 L468.426666,230.024889 L473.994666,243.591111 L479.538666,230.024889 Z M491.647999,245.555556 L491.647999,230.024889 L497.119999,230.024889 C498.928008,230.024889 500.367994,230.483255 501.439999,231.4 C502.512004,232.316745 503.047999,233.468438 503.047999,234.855111 C503.047999,236.226377 502.512004,237.374218 501.439999,238.298667 C500.367994,239.223116 498.928008,239.685333 497.119999,239.685333 L493.231999,239.685333 L493.231999,245.555556 L491.647999,245.555556 Z M493.231999,238.229333 L497.119999,238.229333 C498.416005,238.229333 499.455995,237.909633 500.239999,237.270222 C501.024003,236.630812 501.415999,235.825783 501.415999,234.855111 C501.415999,233.899847 501.024003,233.09867 500.239999,232.451556 C499.455995,231.804441 498.416005,231.480889 497.119999,231.480889 L493.231999,231.480889 L493.231999,238.229333 Z M528.170666,230.024889 L529.802666,230.024889 L524.234666,245.555556 L522.602666,245.555556 L517.850666,232.104889 L513.074666,245.555556 L511.466666,245.555556 L505.874666,230.024889 L507.506666,230.024889 L512.282666,243.198222 L517.106666,230.024889 L518.570666,230.024889 L523.418666,243.198222 L528.170666,230.024889 Z M550.989332,245.555556 L549.405332,245.555556 L546.309332,232.867556 L542.133332,245.555556 L541.077332,245.555556 L536.925332,232.867556 L533.829332,245.555556 L532.245332,245.555556 L535.965332,230.024889 L537.405332,230.024889 L541.629332,242.458667 L545.805332,230.024889 L547.269332,230.024889 L550.989332,245.555556 Z M565.930666,233.953778 L565.930666,235.224889 L563.578666,235.224889 L563.578666,245.555556 L562.018666,245.555556 L562.018666,235.224889 L560.602666,235.224889 L560.602666,233.953778 L562.018666,233.953778 L562.018666,230.602667 C562.018666,229.000288 562.674659,228.199111 563.986666,228.199111 C564.274667,228.199111 564.566664,228.222222 564.862666,228.268444 C565.158667,228.314667 565.378665,228.360889 565.522666,228.407111 L565.738666,228.476444 L565.402666,229.655111 C565.082664,229.578074 564.762667,229.539556 564.442666,229.539556 C564.090664,229.539556 563.858666,229.651258 563.746666,229.874667 C563.634665,230.098075 563.578666,230.525626 563.578666,231.157333 L563.578666,233.953778 L565.930666,233.953778 Z M574.253332,233.815111 C575.101337,233.815111 575.877329,234.015405 576.581332,234.416 L576.029332,235.941333 C575.357329,235.463701 574.677336,235.224889 573.989332,235.224889 C572.981327,235.224889 572.133336,235.5677 571.445332,236.253333 C570.757329,236.938966 570.413332,237.782514 570.413332,238.784 L570.413332,245.555556 L568.829332,245.555556 L568.829332,234 L570.413332,234 L570.413332,235.710222 C571.389337,234.446808 572.669325,233.815111 574.253332,233.815111 Z M588.263999,243.984 C587.063993,245.154969 585.608008,245.740444 583.895999,245.740444 C582.183991,245.740444 580.724005,245.158821 579.515999,243.995556 C578.307993,242.83229 577.703999,241.426379 577.703999,239.777778 C577.703999,238.129177 578.307993,236.723265 579.515999,235.56 C580.724005,234.396735 582.183991,233.815111 583.895999,233.815111 C585.608008,233.815111 587.067993,234.396735 588.275999,235.56 C589.484005,236.723265 590.087999,238.129177 590.087999,239.777778 C590.087999,241.410971 589.480005,242.813031 588.263999,243.984 Z M583.919999,244.284444 C585.216006,244.284444 586.307995,243.84919 587.195999,242.978667 C588.084004,242.108144 588.527999,241.041192 588.527999,239.777778 C588.527999,238.514364 588.084004,237.44356 587.195999,236.565333 C586.307995,235.687107 585.216006,235.248 583.919999,235.248 C582.639993,235.248 581.552004,235.687107 580.655999,236.565333 C579.759995,237.44356 579.311999,238.514364 579.311999,239.777778 C579.311999,241.041192 579.759995,242.108144 580.655999,242.978667 C581.552004,243.84919 582.639993,244.284444 583.919999,244.284444 Z M607.314666,233.815111 C608.706673,233.815111 609.874661,234.288884 610.818666,235.236444 C611.762671,236.184005 612.234666,237.351104 612.234666,238.737778 L612.234666,245.555556 L610.602666,245.555556 L610.602666,238.784 C610.602666,237.782514 610.262669,236.938966 609.582666,236.253333 C608.902662,235.5677 608.058671,235.224889 607.050666,235.224889 C606.042661,235.224889 605.194669,235.5677 604.506666,236.253333 C603.818662,236.938966 603.474666,237.782514 603.474666,238.784 L603.474666,245.555556 L601.866666,245.555556 L601.866666,238.784 C601.866666,237.797921 601.518669,236.958226 600.822666,236.264889 C600.126662,235.571552 599.282671,235.224889 598.290666,235.224889 C597.298661,235.224889 596.454669,235.571552 595.758666,236.264889 C595.062662,236.958226 594.714666,237.797921 594.714666,238.784 L594.714666,245.555556 L593.130666,245.555556 L593.130666,234 L594.714666,234 L594.714666,235.710222 C595.690671,234.446808 596.970658,233.815111 598.554666,233.815111 C599.46667,233.815111 600.302662,234.038516 601.062666,234.485333 C601.82267,234.93215 602.418664,235.533033 602.850666,236.288 C603.266668,235.533033 603.866662,234.93215 604.650666,234.485333 C605.43467,234.038516 606.322661,233.815111 607.314666,233.815111 Z M628.255999,245.740444 C627.007993,245.740444 625.872004,245.428448 624.847999,244.804444 C623.823994,244.180441 623.128001,243.560299 622.759999,242.944 L623.911999,241.904 C624.216001,242.427854 624.767995,242.955553 625.567999,243.487111 C626.368003,244.018669 627.223995,244.284444 628.135999,244.284444 C629.128004,244.284444 629.943996,244.026373 630.583999,243.510222 C631.224002,242.994071 631.543999,242.335411 631.543999,241.534222 C631.543999,240.686811 631.152003,239.954966 630.367999,239.338667 C629.583995,238.722367 628.480006,238.414222 627.055999,238.414222 L626.143999,238.414222 L626.143999,237.212444 L627.055999,237.212444 C628.480006,237.212444 629.583995,236.904299 630.367999,236.288 C631.152003,235.671701 631.543999,234.939856 631.543999,234.092444 C631.543999,233.291255 631.224002,232.632595 630.583999,232.116444 C629.943996,231.600294 629.128004,231.342222 628.135999,231.342222 C627.367995,231.342222 626.632003,231.546368 625.927999,231.954667 C625.223996,232.362965 624.712001,232.744295 624.391999,233.098667 C624.071998,233.453039 623.911999,233.661037 623.911999,233.722667 L622.759999,232.682667 C623.144001,232.05096 623.839994,231.426966 624.847999,230.810667 C625.856004,230.194367 626.991993,229.886222 628.255999,229.886222 C629.744007,229.886222 630.931995,230.290663 631.819999,231.099556 C632.708004,231.908448 633.151999,232.890661 633.151999,234.046222 C633.151999,234.924449 632.868002,235.710219 632.299999,236.403556 C631.731996,237.096892 631.080003,237.566814 630.343999,237.813333 C631.080003,238.059853 631.731996,238.525922 632.299999,239.211556 C632.868002,239.897189 633.151999,240.68681 633.151999,241.580444 C633.151999,242.736006 632.708004,243.718218 631.819999,244.527111 C630.931995,245.336004 629.744007,245.740444 628.255999,245.740444 Z M635.234666,245.555556 L635.234666,243.105778 L636.938666,243.105778 L636.938666,245.555556 L635.234666,245.555556 Z M644.853333,245.740444 C643.605326,245.740444 642.469338,245.428448 641.445333,244.804444 C640.421328,244.180441 639.725335,243.560299 639.357333,242.944 L640.509333,241.904 C640.813334,242.427854 641.365329,242.955553 642.165333,243.487111 C642.965337,244.018669 643.821328,244.284444 644.733333,244.284444 C645.725338,244.284444 646.541329,244.026373 647.181333,243.510222 C647.821336,242.994071 648.141333,242.335411 648.141333,241.534222 C648.141333,240.686811 647.749337,239.954966 646.965333,239.338667 C646.181329,238.722367 645.07734,238.414222 643.653333,238.414222 L642.741333,238.414222 L642.741333,237.212444 L643.653333,237.212444 C645.07734,237.212444 646.181329,236.904299 646.965333,236.288 C647.749337,235.671701 648.141333,234.939856 648.141333,234.092444 C648.141333,233.291255 647.821336,232.632595 647.181333,232.116444 C646.541329,231.600294 645.725338,231.342222 644.733333,231.342222 C643.965329,231.342222 643.229336,231.546368 642.525333,231.954667 C641.821329,232.362965 641.309334,232.744295 640.989333,233.098667 C640.669331,233.453039 640.509333,233.661037 640.509333,233.722667 L639.357333,232.682667 C639.741335,232.05096 640.437328,231.426966 641.445333,230.810667 C642.453338,230.194367 643.589326,229.886222 644.853333,229.886222 C646.34134,229.886222 647.529328,230.290663 648.417333,231.099556 C649.305337,231.908448 649.749333,232.890661 649.749333,234.046222 C649.749333,234.924449 649.465336,235.710219 648.897333,236.403556 C648.32933,237.096892 647.677336,237.566814 646.941333,237.813333 C647.677336,238.059853 648.32933,238.525922 648.897333,239.211556 C649.465336,239.897189 649.749333,240.68681 649.749333,241.580444 C649.749333,242.736006 649.305337,243.718218 648.417333,244.527111 C647.529328,245.336004 646.34134,245.740444 644.853333,245.740444 Z M664.815999,230.024889 L666.423999,230.024889 L660.063999,245.555556 L658.455999,245.555556 L652.071999,230.024889 L653.703999,230.024889 L659.271999,243.591111 L664.815999,230.024889 Z M684.965333,229.447111 C686.613341,229.447111 688.117326,229.863107 689.477333,230.695111 C690.83734,231.527115 691.877329,232.567105 692.597333,233.815111 C693.317336,235.063117 693.677333,236.349623 693.677333,237.674667 C693.677333,238.830228 693.353336,239.881773 692.705333,240.829333 C692.05733,241.776894 691.173338,242.250667 690.053333,242.250667 C689.47733,242.250667 688.953335,242.081187 688.481333,241.742222 C688.00933,241.403258 687.637334,240.956447 687.365333,240.401778 C686.597329,241.449487 685.605339,241.973333 684.389333,241.973333 C683.333328,241.973333 682.441336,241.54193 681.713333,240.679111 C680.985329,239.816292 680.621333,238.837931 680.621333,237.744 C680.621333,236.619254 681.005329,235.664004 681.773333,234.878222 C682.541337,234.092441 683.421328,233.699556 684.413333,233.699556 C685.549338,233.699556 686.517329,234.184884 687.317333,235.155556 L687.653333,233.838222 L688.925333,234.115556 C688.477331,236.087714 688.253333,237.535995 688.253333,238.460444 C688.253333,239.184596 688.425331,239.785479 688.769333,240.263111 C689.113335,240.740743 689.54933,240.979556 690.077333,240.979556 C690.717336,240.979556 691.253331,240.663707 691.685333,240.032 C692.117335,239.400293 692.333333,238.614523 692.333333,237.674667 C692.333333,235.856584 691.59334,234.238822 690.113333,232.821333 C688.633325,231.403845 686.917343,230.695111 684.965333,230.695111 C682.885322,230.695111 681.14134,231.399993 679.733333,232.809778 C678.325326,234.219563 677.621333,235.771843 677.621333,237.466667 C677.621333,239.700752 678.369325,241.495697 679.865333,242.851556 C681.36134,244.207414 683.037324,244.885333 684.893333,244.885333 C685.693337,244.885333 686.41333,244.781334 687.053333,244.573333 C687.693336,244.365332 688.133332,244.161186 688.373333,243.960889 L688.733333,243.660444 L689.645333,244.584889 C689.613333,244.631111 689.565333,244.688889 689.501333,244.758222 C689.437332,244.827556 689.273334,244.950814 689.009333,245.128 C688.745331,245.305186 688.457334,245.46311 688.145333,245.601778 C687.833331,245.740445 687.397336,245.867555 686.837333,245.983111 C686.27733,246.098667 685.677336,246.156444 685.037333,246.156444 C683.965327,246.156444 682.913338,245.960002 681.881333,245.567111 C680.849328,245.17422 679.917337,244.623411 679.085333,243.914667 C678.253329,243.205922 677.581335,242.304598 677.069333,241.210667 C676.55733,240.116735 676.301333,238.922673 676.301333,237.628444 C676.301333,235.517619 677.129325,233.626379 678.785333,231.954667 C680.441341,230.282955 682.50132,229.447111 684.965333,229.447111 Z M682.661333,239.870222 C683.157335,240.424892 683.741329,240.702222 684.413333,240.702222 C685.085336,240.702222 685.67333,240.417188 686.177333,239.847111 C686.681335,239.277034 686.933333,238.606819 686.933333,237.836444 C686.933333,237.035255 686.689335,236.361188 686.201333,235.814222 C685.71333,235.267257 685.117336,234.993778 684.413333,234.993778 C683.725329,234.993778 683.137335,235.263405 682.649333,235.802667 C682.16133,236.341929 681.917333,237.019848 681.917333,237.836444 C681.917333,238.622226 682.16533,239.300145 682.661333,239.870222 Z M709.722666,245.740444 C708.53866,245.740444 707.442671,245.416892 706.434666,244.769778 C705.426661,244.122663 704.754668,243.367708 704.418666,242.504889 L705.810666,241.857778 C705.986667,242.39704 706.450662,242.936294 707.202666,243.475556 C707.95467,244.014818 708.794662,244.284444 709.722666,244.284444 C710.794672,244.284444 711.726662,243.95704 712.518666,243.302222 C713.31067,242.647404 713.706666,241.773043 713.706666,240.679111 C713.706666,239.554365 713.32267,238.637633 712.554666,237.928889 C711.786662,237.220145 710.890671,236.865778 709.866666,236.865778 C709.002662,236.865778 708.19067,237.023702 707.430666,237.339556 C706.670662,237.655409 706.178667,237.951999 705.954666,238.229333 L704.610666,237.697778 L704.610666,230.024889 L714.906666,230.024889 L714.906666,231.550222 L706.194666,231.550222 L706.194666,236.311111 C707.122671,235.710219 708.346659,235.409778 709.866666,235.409778 C711.354674,235.409778 712.630661,235.891254 713.694666,236.854222 C714.758672,237.81719 715.290666,239.084437 715.290666,240.656 C715.290666,242.227563 714.762671,243.467847 713.706666,244.376889 C712.650661,245.28593 711.322674,245.740444 709.722666,245.740444 Z M726.829333,245.139556 C726.061329,245.54015 725.165338,245.740444 724.141333,245.740444 C723.117328,245.740444 722.217337,245.536298 721.441333,245.128 C720.665329,244.719702 720.041335,244.149633 719.569333,243.417778 C719.097331,242.685922 718.745334,241.850079 718.513333,240.910222 C718.281332,239.970366 718.165333,238.93808 718.165333,237.813333 C718.165333,235.471396 718.661328,233.560896 719.653333,232.081778 C720.645338,230.602659 722.141323,229.863111 724.141333,229.863111 C726.141343,229.863111 727.637328,230.602659 728.629333,232.081778 C729.621338,233.560896 730.117333,235.471396 730.117333,237.813333 C730.117333,238.93808 730.001334,239.970366 729.769333,240.910222 C729.537332,241.850079 729.185335,242.685922 728.713333,243.417778 C728.241331,244.149633 727.613337,244.723553 726.829333,245.139556 Z M720.829333,242.528 C721.565337,243.714376 722.669326,244.307556 724.141333,244.307556 C725.61334,244.307556 726.713329,243.710524 727.441333,242.516444 C728.169337,241.322364 728.533333,239.754676 728.533333,237.813333 C728.533333,235.87199 728.169337,234.304302 727.441333,233.110222 C726.713329,231.916142 725.61334,231.319111 724.141333,231.319111 C722.669326,231.319111 721.569337,231.916142 720.841333,233.110222 C720.113329,234.304302 719.749333,235.87199 719.749333,237.813333 C719.749333,239.754676 720.109329,241.326216 720.829333,242.528 Z M738.68,237.328 C737.991996,238.005929 737.152005,238.344889 736.16,238.344889 C735.167995,238.344889 734.324003,238.005929 733.628,237.328 C732.931996,236.650071 732.584,235.84119 732.584,234.901333 C732.584,233.961477 732.931996,233.152596 733.628,232.474667 C734.324003,231.796737 735.167995,231.457778 736.16,231.457778 C737.152005,231.457778 737.995996,231.796737 738.692,232.474667 C739.388003,233.152596 739.736,233.961477 739.736,234.901333 C739.736,235.84119 739.384003,236.650071 738.68,237.328 Z M734.12,245.555556 L745.304,231.642667 L746.84,231.642667 L735.68,245.555556 L734.12,245.555556 Z M734.504,236.472889 C734.968002,236.919706 735.519996,237.143111 736.16,237.143111 C736.800003,237.143111 737.347997,236.923558 737.804,236.484444 C738.260002,236.045331 738.488,235.517633 738.488,234.901333 C738.488,234.285034 738.260002,233.757336 737.804,233.318222 C737.347997,232.879109 736.800003,232.659556 736.16,232.659556 C735.519996,232.659556 734.972002,232.886813 734.516,233.341333 C734.059997,233.795854 733.832,234.315849 733.832,234.901333 C733.832,235.502225 734.055997,236.026072 734.504,236.472889 Z M744.8,245.740444 C743.823995,245.740444 742.988003,245.405337 742.292,244.735111 C741.595996,244.064886 741.248,243.252153 741.248,242.296889 C741.248,241.357032 741.591996,240.552003 742.28,239.881778 C742.968003,239.211552 743.807995,238.876444 744.8,238.876444 C745.792005,238.876444 746.635996,239.2077 747.332,239.870222 C748.028003,240.532744 748.376,241.341625 748.376,242.296889 C748.376,243.252153 748.028003,244.064886 747.332,244.735111 C746.635996,245.405337 745.792005,245.740444 744.8,245.740444 Z M744.8,244.492444 C745.424003,244.492444 745.963997,244.276743 746.42,243.845333 C746.876002,243.413924 747.104,242.897781 747.104,242.296889 C747.104,241.68059 746.880002,241.160595 746.432,240.736889 C745.983997,240.313183 745.440003,240.101333 744.8,240.101333 C744.159996,240.101333 743.620002,240.317035 743.18,240.748444 C742.739997,241.179854 742.52,241.695997 742.52,242.296889 C742.52,242.897781 742.747997,243.413924 743.204,243.845333 C743.660002,244.276743 744.191997,244.492444 744.8,244.492444 Z M759.093333,245.555556 L759.093333,230.024889 L762.741333,230.024889 C765.397346,230.024889 767.509325,230.764437 769.077333,232.243556 C770.645341,233.722674 771.429333,235.571544 771.429333,237.790222 C771.429333,239.993492 770.641341,241.838511 769.065333,243.325333 C767.489325,244.812156 765.381346,245.555556 762.741333,245.555556 L759.093333,245.555556 Z M760.677333,244.099556 L762.741333,244.099556 C764.853344,244.099556 766.541327,243.502524 767.805333,242.308444 C769.069339,241.114364 769.701333,239.608305 769.701333,237.790222 C769.701333,235.972139 769.069339,234.46608 767.805333,233.272 C766.541327,232.07792 764.853344,231.480889 762.741333,231.480889 L760.677333,231.480889 L760.677333,244.099556 Z M783.184,234 L784.768,234 L784.768,245.555556 L783.184,245.555556 L783.184,243.845333 C782.207995,245.108747 780.928008,245.740444 779.344,245.740444 C777.951993,245.740444 776.784004,245.266671 775.84,244.319111 C774.895995,243.371551 774.424,242.204451 774.424,240.817778 L774.424,234 L776.056,234 L776.056,240.771556 C776.056,241.757635 776.399996,242.593478 777.088,243.279111 C777.776003,243.964744 778.615995,244.307556 779.608,244.307556 C780.616005,244.307556 781.463996,243.964744 782.152,243.279111 C782.840003,242.593478 783.184,241.757635 783.184,240.771556 L783.184,234 Z M795.442666,242.967111 L796.234666,244.145778 C796.138666,244.269038 796.010667,244.415407 795.850666,244.584889 C795.690666,244.754371 795.330669,244.989332 794.770666,245.289778 C794.210664,245.590224 793.634669,245.740444 793.042666,245.740444 C792.034661,245.740444 791.19067,245.451558 790.510666,244.873778 C789.830663,244.295997 789.490666,243.460154 789.490666,242.366222 L789.490666,235.386667 L787.570666,235.386667 L787.570666,233.976889 L789.490666,233.976889 L789.490666,230.325333 L791.074666,230.140444 L791.074666,233.976889 L794.698666,233.976889 L794.698666,235.386667 L791.074666,235.386667 L791.074666,242.019556 C791.074666,242.7283 791.302664,243.290665 791.758666,243.706667 C792.214669,244.122669 792.738663,244.330667 793.330666,244.330667 C793.698668,244.330667 794.058665,244.222816 794.410666,244.007111 C794.762668,243.791406 795.022666,243.579557 795.190666,243.371556 C795.358667,243.163555 795.442666,243.028741 795.442666,242.967111 Z M806.189333,234 L807.773333,234 L801.221333,250.478222 L799.637333,250.478222 L802.157333,244.145778 L797.717333,234 L799.301333,234 L802.901333,242.250667 L806.189333,234 Z M825.282667,245.740444 C822.914655,245.740444 821.026674,244.981637 819.618667,243.464 C818.210659,241.946363 817.506666,240.062826 817.506666,237.813333 C817.506666,235.548433 818.210659,233.657193 819.618667,232.139556 C821.026674,230.621918 822.914655,229.863111 825.282667,229.863111 C826.850674,229.863111 828.214661,230.209774 829.374666,230.903111 C830.534672,231.596448 831.434663,232.543994 832.074666,233.745778 L830.586666,234.577778 C830.074664,233.576291 829.358671,232.782818 828.438666,232.197333 C827.518662,231.611849 826.466672,231.319111 825.282667,231.319111 C823.458657,231.319111 821.998672,231.931549 820.902666,233.156444 C819.806661,234.381339 819.258666,235.93362 819.258666,237.813333 C819.258666,239.677639 819.806661,241.226068 820.902666,242.458667 C821.998672,243.691265 823.458657,244.307556 825.282667,244.307556 C826.482672,244.307556 827.542662,244.010966 828.462666,243.417778 C829.382671,242.82459 830.090664,242.027264 830.586666,241.025778 L832.074666,241.880889 C831.434663,243.082673 830.534672,244.026367 829.374666,244.712 C828.214661,245.397633 826.850674,245.740444 825.282667,245.740444 Z M842.821333,234 L844.405333,234 L837.853333,250.478222 L836.269333,250.478222 L838.789333,244.145778 L834.349333,234 L835.933333,234 L839.533333,242.250667 L842.821333,234 Z M852.296,245.740444 C850.583991,245.740444 849.124006,245.158821 847.916,243.995556 C846.707994,242.83229 846.104,241.426379 846.104,239.777778 C846.104,238.129177 846.707994,236.723265 847.916,235.56 C849.124006,234.396735 850.583991,233.815111 852.296,233.815111 C853.384005,233.815111 854.395995,234.073183 855.332,234.589333 C856.268005,235.105484 857.007997,235.794959 857.552,236.657778 L856.112,237.328 C855.679998,236.696293 855.128003,236.195557 854.456,235.825778 C853.783997,235.455998 853.064004,235.271111 852.296,235.271111 C850.999993,235.271111 849.908004,235.706366 849.02,236.576889 C848.131995,237.447412 847.688,238.514364 847.688,239.777778 C847.688,241.041192 848.131995,242.108144 849.02,242.978667 C849.908004,243.84919 850.999993,244.284444 852.296,244.284444 C853.064004,244.284444 853.783997,244.099557 854.456,243.729778 C855.128003,243.359998 855.679998,242.859262 856.112,242.227556 L857.552,242.897778 C857.007997,243.760597 856.268005,244.450071 855.332,244.966222 C854.395995,245.482373 853.384005,245.740444 852.296,245.740444 Z M861.026667,245.555556 L861.026667,228.360889 L862.610667,228.360889 L862.610667,245.555556 L861.026667,245.555556 Z M872.037333,244.215111 C873.109339,244.215111 874.069329,243.922373 874.917333,243.336889 C875.765338,242.751404 876.341332,242.065782 876.645333,241.28 L877.989333,241.742222 C877.621331,242.712894 876.905339,243.606514 875.841333,244.423111 C874.777328,245.239708 873.509341,245.640296 872.037333,245.624889 C870.693327,245.624889 869.465339,245.2243 868.353333,244.423111 C867.241328,243.621922 866.485335,242.59734 866.085333,241.349333 C865.925332,240.840886 865.845333,240.286225 865.845333,239.685333 C865.845333,238.021325 866.445327,236.611561 867.645333,235.456 C868.845339,234.300439 870.309325,233.714963 872.037333,233.699556 C873.605341,233.714963 874.973327,234.223402 876.141333,235.224889 C877.309339,236.226375 877.981332,237.466659 878.157333,238.945778 C878.173333,239.022815 878.181333,239.122962 878.181333,239.246222 L867.693333,241.072 C867.965335,241.996449 868.509329,242.755256 869.325333,243.348444 C870.141337,243.941633 871.045328,244.230519 872.037333,244.215111 Z M871.893333,235.109333 C870.693327,235.124741 869.665338,235.540737 868.809333,236.357333 C867.953329,237.17393 867.493334,238.152291 867.429333,239.292444 C867.429333,239.338667 867.433333,239.419555 867.441333,239.535111 C867.449333,239.650667 867.453333,239.746963 867.453333,239.824 L876.381333,238.275556 C876.077332,237.335699 875.509337,236.569188 874.677333,235.976 C873.845329,235.382812 872.917338,235.093926 871.893333,235.109333 Z" id="Illustration-Title-Copy" fill="#23ABE3"></path>
        </g>
        <g transform="translate(28.000000, 22.000000)">
            <g id="Axis" transform="translate(0.000000, 40.000000)">
                <g id="Group" transform="translate(91.000000, 11.000000)" stroke="#3D3530" stroke-linecap="square" stroke-width="3">
                    <path d="M0.5,0 L0.5,80" id="Line"></path>
                    <path d="M2,80 L701,80" id="Line"></path>
                </g>
                <path d="M91.5,10.5 L81.5,10.5" id="Line" stroke="#3D3530" stroke-width="3" stroke-linecap="square"></path>
                <path d="M91.5,91 L81.5,91" id="Line-Copy-8" stroke="#3D3530" stroke-width="3" stroke-linecap="square"></path>
                <g id="Labels">
                    <path d="M35.344,14.24 C35.2319994,14.3360005 35.0920008,14.483999 34.924,14.684 C34.7559992,14.884001 34.6000007,15.0439994 34.456,15.164 C34.3119993,15.2840006 34.1680007,15.344 34.024,15.344 C33.8959994,15.344 33.7800005,15.2920005 33.676,15.188 C33.5719995,15.0839995 33.52,14.9520008 33.52,14.792 C33.52,14.5039986 33.7279979,14.2080015 34.144,13.904 L35.92,12.488 C36.3840023,12.1359982 36.7639985,11.6840028 37.06,11.132 C37.3560015,10.5799972 37.504,10.008003 37.504,9.416 C37.504,8.74399664 37.2640024,8.208002 36.784,7.808 C36.3039976,7.407998 35.6720039,7.208 34.888,7.208 C34.0559958,7.208 33.3600028,7.55999648 32.8,8.264 C32.2399972,8.96800352 32.2479971,9.81599504 32.824,10.808 L32.104,11.552 C31.1759954,10.9919972 30.6760004,10.2840043 30.604,9.428 C30.5319996,8.57199572 30.895996,7.82000324 31.696,7.172 C32.496004,6.52399676 33.5599934,6.2 34.888,6.2 C36.1200062,6.2 37.1919954,6.49599704 38.104,7.088 C39.0160046,7.68000296 39.472,8.4559952 39.472,9.416 C39.472,9.76800176 39.3960008,10.1279982 39.244,10.496 C39.0919992,10.8640018 38.9080011,11.1759987 38.692,11.432 C38.4759989,11.6880013 38.2600011,11.9239989 38.044,12.14 C37.8279989,12.3560011 37.6480007,12.5199994 37.504,12.632 L37.264,12.776 L36.16,13.616 C37.3120058,13.8560012 38.2239966,14.3279965 38.896,15.032 C39.5680034,15.7360035 39.904,16.5519954 39.904,17.48 C39.904,18.5840055 39.4440046,19.5279961 38.524,20.312 C37.6039954,21.0960039 36.4720067,21.488 35.128,21.488 C33.8319935,21.488 32.7680042,21.1760031 31.936,20.552 C31.1039958,19.9279969 30.688,19.3360028 30.688,18.776 C30.688,18.4079982 30.8959979,18.224 31.312,18.224 C31.4720008,18.224 31.6119994,18.2959993 31.732,18.44 C31.8520006,18.5840007 31.9879992,18.7839987 32.14,19.04 C32.2920008,19.2960013 32.4399993,19.4959993 32.584,19.64 C33.176003,20.2640031 33.9599951,20.576 34.936,20.576 C35.8800047,20.576 36.5879976,20.2920028 37.06,19.724 C37.5320024,19.1559972 37.768,18.4080046 37.768,17.48 C37.768,16.7119962 37.572002,16.024003 37.18,15.416 C36.787998,14.807997 36.1760042,14.4160009 35.344,14.24 Z M46.408,15.944 C46.408,16.2800017 46.2720014,16.5719988 46,16.82 C45.7279986,17.0680012 45.4080018,17.192 45.04,17.192 C44.6719982,17.192 44.3600013,17.0680012 44.104,16.82 C43.8479987,16.5719988 43.72,16.2800017 43.72,15.944 C43.72,15.5919982 43.8479987,15.2920012 44.104,15.044 C44.3600013,14.7959988 44.6719982,14.672 45.04,14.672 C45.4080018,14.672 45.7279986,14.7959988 46,15.044 C46.2720014,15.2920012 46.408,15.5919982 46.408,15.944 Z M55.048,14.24 C54.9359994,14.3360005 54.7960008,14.483999 54.628,14.684 C54.4599992,14.884001 54.3040007,15.0439994 54.16,15.164 C54.0159993,15.2840006 53.8720007,15.344 53.728,15.344 C53.5999994,15.344 53.4840005,15.2920005 53.38,15.188 C53.2759995,15.0839995 53.224,14.9520008 53.224,14.792 C53.224,14.5039986 53.4319979,14.2080015 53.848,13.904 L55.624,12.488 C56.0880023,12.1359982 56.4679985,11.6840028 56.764,11.132 C57.0600015,10.5799972 57.208,10.008003 57.208,9.416 C57.208,8.74399664 56.9680024,8.208002 56.488,7.808 C56.0079976,7.407998 55.3760039,7.208 54.592,7.208 C53.7599958,7.208 53.0640028,7.55999648 52.504,8.264 C51.9439972,8.96800352 51.9519971,9.81599504 52.528,10.808 L51.808,11.552 C50.8799954,10.9919972 50.3800004,10.2840043 50.308,9.428 C50.2359996,8.57199572 50.599996,7.82000324 51.4,7.172 C52.200004,6.52399676 53.2639934,6.2 54.592,6.2 C55.8240062,6.2 56.8959954,6.49599704 57.808,7.088 C58.7200046,7.68000296 59.176,8.4559952 59.176,9.416 C59.176,9.76800176 59.1000008,10.1279982 58.948,10.496 C58.7959992,10.8640018 58.6120011,11.1759987 58.396,11.432 C58.1799989,11.6880013 57.9640011,11.9239989 57.748,12.14 C57.5319989,12.3560011 57.3520007,12.5199994 57.208,12.632 L56.968,12.776 L55.864,13.616 C57.0160058,13.8560012 57.9279966,14.3279965 58.6,15.032 C59.2720034,15.7360035 59.608,16.5519954 59.608,17.48 C59.608,18.5840055 59.1480046,19.5279961 58.228,20.312 C57.3079954,21.0960039 56.1760067,21.488 54.832,21.488 C53.5359935,21.488 52.4720042,21.1760031 51.64,20.552 C50.8079958,19.9279969 50.392,19.3360028 50.392,18.776 C50.392,18.4079982 50.5999979,18.224 51.016,18.224 C51.1760008,18.224 51.3159994,18.2959993 51.436,18.44 C51.5560006,18.5840007 51.6919992,18.7839987 51.844,19.04 C51.9960008,19.2960013 52.1439993,19.4959993 52.288,19.64 C52.880003,20.2640031 53.6639951,20.576 54.64,20.576 C55.5840047,20.576 56.2919976,20.2920028 56.764,19.724 C57.2360024,19.1559972 57.472,18.4080046 57.472,17.48 C57.472,16.7119962 57.276002,16.024003 56.884,15.416 C56.491998,14.807997 55.8800042,14.4160009 55.048,14.24 Z M70.288,9.488 C69.8719979,9.488 69.5400012,9.59199896 69.292,9.8 C69.0439988,10.008001 68.8080011,10.3759974 68.584,10.904 L65.872,17.432 L65.392,17.432 L62.464,10.904 C62.2239988,10.3759974 61.9880012,10.008001 61.756,9.8 C61.5239988,9.59199896 61.2160019,9.488 60.832,9.488 L60.832,9.008 L65.08,9.008 L65.08,9.488 C64.5359973,9.488 64.2160005,9.57999908 64.12,9.764 C64.0239995,9.94800092 64.0959988,10.3279971 64.336,10.904 L66.04,14.744 L67.624,10.904 C67.8640012,10.3919974 67.9360005,10.0280011 67.84,9.812 C67.7439995,9.59599892 67.4400026,9.488 66.928,9.488 L66.928,9.008 L70.288,9.008 L70.288,9.488 Z" id="3.3v-copy" fill="#524740"></path>
                    <path d="M49.984,85.856 C51.0880055,84.7519945 52.4079923,84.2 53.944,84.2 C55.4800077,84.2 56.7959945,84.7479945 57.892,85.844 C58.9880055,86.9400055 59.536,88.2559923 59.536,89.792 C59.536,91.3440078 58.9880055,92.6679945 57.892,93.764 C56.7959945,94.8600055 55.4800077,95.408 53.944,95.408 C52.4079923,95.408 51.0920055,94.8600055 49.996,93.764 C48.8999945,92.6679945 48.352,91.3440078 48.352,89.792 C48.352,88.2559923 48.8959946,86.9440054 49.984,85.856 Z M53.944,85.568 C52.8239944,85.568 51.868004,85.9839958 51.076,86.816 C50.283996,87.6480042 49.888,88.6399942 49.888,89.792 C49.888,90.9600058 50.283996,91.9559959 51.076,92.78 C51.868004,93.6040041 52.8239944,94.016 53.944,94.016 C55.0480055,94.016 55.999996,93.6040041 56.8,92.78 C57.600004,91.9559959 58,90.9600058 58,89.792 C58,88.6399942 57.600004,87.6480042 56.8,86.816 C55.999996,85.9839958 55.0480055,85.568 53.944,85.568 Z M70.288,87.488 C69.8719979,87.488 69.5400012,87.591999 69.292,87.8 C69.0439988,88.008001 68.8080011,88.3759974 68.584,88.904 L65.872,95.432 L65.392,95.432 L62.464,88.904 C62.2239988,88.3759974 61.9880012,88.008001 61.756,87.8 C61.5239988,87.591999 61.2160019,87.488 60.832,87.488 L60.832,87.008 L65.08,87.008 L65.08,87.488 C64.5359973,87.488 64.2160005,87.5799991 64.12,87.764 C64.0239995,87.9480009 64.0959988,88.3279971 64.336,88.904 L66.04,92.744 L67.624,88.904 C67.8640012,88.3919974 67.9360005,88.0280011 67.84,87.812 C67.7439995,87.5959989 67.4400026,87.488 66.928,87.488 L66.928,87.008 L70.288,87.008 L70.288,87.488 Z" id="0v-copy" fill="#524740"></path>
                    <path d="M421.452,112.6 L421.668,115.84 L421.164,115.84 L421.044,115.36 C420.851999,114.639996 420.596002,114.156001 420.276,113.908 C419.955998,113.659999 419.284005,113.536 418.26,113.536 L415.116,113.536 L415.116,123.688 C415.116,124.888006 415.251999,125.655998 415.524,125.992 C415.796001,126.328002 416.427995,126.496 417.42,126.496 L417.42,127 L410.916,127 L410.916,126.496 C411.908005,126.496 412.539999,126.328002 412.812,125.992 C413.084001,125.655998 413.22,124.888006 413.22,123.688 L413.22,113.536 L410.076,113.536 C409.051995,113.536 408.380002,113.659999 408.06,113.908 C407.739998,114.156001 407.484001,114.639996 407.292,115.36 L407.172,115.84 L406.668,115.84 L406.884,112.6 L421.452,112.6 Z M428.268,127 L422.772,127 L422.772,126.496 C423.572004,126.496 424.087999,126.328002 424.32,125.992 C424.552001,125.655998 424.668,124.888006 424.668,123.688 L424.668,122.488 C424.668,121.303994 424.552001,120.544002 424.32,120.208 C424.087999,119.871998 423.572004,119.704 422.772,119.704 L422.772,119.2 L426.372,118.6 L426.372,123.688 C426.372,124.888006 426.487999,125.655998 426.72,125.992 C426.952001,126.328002 427.467996,126.496 428.268,126.496 L428.268,127 Z M426.564,115.168 C426.564,115.472002 426.460001,115.727999 426.252,115.936 C426.043999,116.144001 425.796001,116.248 425.508,116.248 C425.219999,116.248 424.972001,116.144001 424.764,115.936 C424.555999,115.727999 424.452,115.472002 424.452,115.168 C424.452,114.879999 424.555999,114.632001 424.764,114.424 C424.972001,114.215999 425.219999,114.112 425.508,114.112 C425.796001,114.112 426.043999,114.215999 426.252,114.424 C426.460001,114.632001 426.564,114.879999 426.564,115.168 Z M439.116,122.128 L439.116,123.688 C439.116,124.952006 439.199999,125.735998 439.368,126.04 C439.536001,126.344002 439.955997,126.496 440.628,126.496 L440.628,127 L435.924,127 L435.924,126.496 C436.596003,126.496 437.015999,126.344002 437.184,126.04 C437.352001,125.735998 437.436,124.952006 437.436,123.688 L437.436,122.296 C437.436,120.583991 436.860006,119.728 435.708,119.728 C435.211998,119.728 434.676003,119.959998 434.1,120.424 C433.523997,120.888002 433.236,121.455997 433.236,122.128 L433.236,123.688 C433.236,124.936006 433.319999,125.715998 433.488,126.028 C433.656001,126.340002 434.067997,126.496 434.724,126.496 L434.724,127 L429.636,127 L429.636,126.496 C430.436004,126.496 430.951999,126.328002 431.184,125.992 C431.416001,125.655998 431.532,124.888006 431.532,123.688 L431.532,122.488 C431.532,121.303994 431.416001,120.544002 431.184,120.208 C430.951999,119.871998 430.436004,119.704 429.636,119.704 L429.636,119.2 L432.828,118.6 C432.972001,118.904002 433.107999,119.479996 433.236,120.328 C434.148005,119.175994 435.187994,118.6 436.356,118.6 C437.684007,118.6 438.531998,119.199994 438.9,120.4 C439.220002,119.951998 439.695997,119.540002 440.328,119.164 C440.960003,118.787998 441.603997,118.6 442.26,118.6 C444.100009,118.6 445.02,119.791988 445.02,122.176 L445.02,123.688 C445.02,124.888006 445.135999,125.655998 445.368,125.992 C445.600001,126.328002 446.115996,126.496 446.916,126.496 L446.916,127 L441.828,127 L441.828,126.496 C442.500003,126.496 442.915999,126.344002 443.076,126.04 C443.236001,125.735998 443.316,124.952006 443.316,123.688 L443.316,122.296 C443.316,120.583991 442.748006,119.728 441.612,119.728 C441.115998,119.728 440.576003,119.959998 439.992,120.424 C439.407997,120.888002 439.116,121.455997 439.116,122.128 Z M450.612,121.504 L454.596,121.504 C454.756001,121.055998 454.688001,120.620002 454.392,120.196 C454.095999,119.771998 453.588004,119.56 452.868,119.56 C452.355997,119.56 451.896002,119.735998 451.488,120.088 C451.079998,120.440002 450.788001,120.911997 450.612,121.504 Z M450.468,122.392 C450.323999,123.576006 450.511997,124.539996 451.032,125.284 C451.552003,126.028004 452.403994,126.4 453.588,126.4 C453.988002,126.4 454.443997,126.296001 454.956,126.088 C455.468003,125.879999 455.891998,125.616002 456.228,125.296 L456.66,125.824 C456.227998,126.288002 455.676003,126.667999 455.004,126.964 C454.331997,127.260001 453.660003,127.408 452.988,127.408 C451.691994,127.408 450.628004,126.980004 449.796,126.124 C448.963996,125.267996 448.548,124.224006 448.548,122.992 C448.548,121.759994 448.999995,120.720004 449.904,119.872 C450.808005,119.023996 451.835994,118.6 452.988,118.6 C454.076005,118.6 454.963997,118.979996 455.652,119.74 C456.340003,120.500004 456.540001,121.383995 456.252,122.392 L450.468,122.392 Z" id="Time-Copy" fill="#524740"></path>
                    <path d="M-7.94,46.104 C-8.88400472,46.104 -9.4959986,46.2199988 -9.776,46.452 C-10.0560014,46.6840012 -10.395998,47.2639954 -10.796,48.192 L-16.076,60.408 L-16.388,60.408 L-21.692,48.192 C-22.092002,47.2639954 -22.4319986,46.6840012 -22.712,46.452 C-22.9920014,46.2199988 -23.6039953,46.104 -24.548,46.104 L-24.548,45.6 L-17.9,45.6 L-17.9,46.104 C-18.892005,46.104 -19.5279986,46.2439986 -19.808,46.524 C-20.0880014,46.8040014 -20.0760015,47.2719967 -19.772,47.928 L-15.692,57.264 L-11.66,47.928 C-11.3559985,47.2719967 -11.3439986,46.8040014 -11.624,46.524 C-11.9040014,46.2439986 -12.539995,46.104 -13.532,46.104 L-13.532,45.6 L-7.94,45.6 L-7.94,46.104 Z M0.58,52.896 C1.5400048,53.7440042 2.02,54.7759939 2.02,55.992 C2.02,57.2080061 1.54400476,58.2479957 0.592,59.112 C-0.36000476,59.9760043 -1.49999336,60.408 -2.828,60.408 C-4.15600664,60.408 -5.29599524,59.9760043 -6.248,59.112 C-7.20000476,58.2479957 -7.676,57.2080061 -7.676,55.992 C-7.676,54.7759939 -7.20000476,53.7400043 -6.248,52.884 C-5.29599524,52.0279957 -4.15600664,51.6 -2.828,51.6 C-1.49999336,51.6 -0.36400472,52.0319957 0.58,52.896 Z M-0.668,58.512 C-0.17199752,57.8559967 0.076,57.0160051 0.076,55.992 C0.076,54.9679949 -0.17199752,54.1320032 -0.668,53.484 C-1.16400248,52.8359968 -1.88399528,52.512 -2.828,52.512 C-3.77200472,52.512 -4.49199752,52.8399967 -4.988,53.496 C-5.48400248,54.1520033 -5.732,54.983995 -5.732,55.992 C-5.732,57.000005 -5.48400248,57.8319967 -4.988,58.488 C-4.49199752,59.1440033 -3.77200472,59.472 -2.828,59.472 C-1.88399528,59.472 -1.16400248,59.1520032 -0.668,58.512 Z M9.124,60 L3.628,60 L3.628,59.496 C4.428004,59.496 4.94399884,59.3280017 5.176,58.992 C5.40800116,58.6559983 5.524,57.888006 5.524,56.688 L5.524,49.104 C5.524,47.903994 5.40800116,47.1360017 5.176,46.8 C4.94399884,46.4639983 4.428004,46.296 3.628,46.296 L3.628,45.792 L7.228,45.192 L7.228,56.688 C7.228,57.888006 7.34399884,58.6559983 7.576,58.992 C7.80800116,59.3280017 8.323996,59.496 9.124,59.496 L9.124,60 Z M11.524,52.848 L10.276,52.848 L10.276,52.272 C10.9640034,52.1279993 11.4679984,51.8160024 11.788,51.336 C12.1080016,50.8559976 12.3159995,50.2000042 12.412,49.368 L13.228,49.368 L13.228,52.008 L15.316,52.008 L15.316,52.848 L13.228,52.848 L13.228,57.648 C13.228,58.8000058 13.5879964,59.376 14.308,59.376 C14.7720023,59.376 15.2919971,59.1040027 15.868,58.56 L16.276,58.968 C15.9399983,59.368002 15.5360024,59.6959987 15.064,59.952 C14.5919976,60.2080013 14.156002,60.336 13.756,60.336 C13.0679966,60.336 12.524002,60.1120022 12.124,59.664 C11.723998,59.2159978 11.524,58.5440045 11.524,57.648 L11.524,52.848 Z M25.972,59.52 C25.5079977,60.0160025 24.980003,60.264 24.388,60.264 C23.4279952,60.264 22.8840006,59.8000046 22.756,58.872 C21.6839946,59.8320048 20.6840046,60.312 19.756,60.312 C19.147997,60.312 18.6360021,60.1320018 18.22,59.772 C17.8039979,59.4119982 17.596,58.9200031 17.596,58.296 C17.596,56.6159916 19.299983,55.480003 22.708,54.888 C22.708,53.9439953 22.604001,53.2880018 22.396,52.92 C22.187999,52.5519982 21.7560033,52.368 21.1,52.368 C20.7799984,52.368 20.4720015,52.471999 20.176,52.68 C19.8799985,52.888001 19.732,53.1679982 19.732,53.52 C19.732,53.7600012 19.6520008,53.9599992 19.492,54.12 C19.3319992,54.2800008 19.1400011,54.36 18.916,54.36 C18.6759988,54.36 18.4760008,54.2800008 18.316,54.12 C18.1559992,53.9599992 18.076,53.7600012 18.076,53.52 C18.076,52.9599972 18.3839969,52.5000018 19,52.14 C19.6160031,51.7799982 20.323996,51.6 21.124,51.6 C22.2920058,51.6 23.1319974,51.8559974 23.644,52.368 C24.1560026,52.8800026 24.412,53.7119942 24.412,54.864 L24.412,58.488 C24.412,59.1120031 24.5959982,59.424 24.964,59.424 C25.172001,59.424 25.3959988,59.3040012 25.636,59.064 L25.972,59.52 Z M22.708,58.08 L22.708,55.632 C20.499989,56.1440026 19.396,56.9359946 19.396,58.008 C19.396,58.3760018 19.5039989,58.6719989 19.72,58.896 C19.9360011,59.1200011 20.2039984,59.232 20.524,59.232 C21.116003,59.232 21.8439957,58.8480038 22.708,58.08 Z M32.212,56.664 C32.5160015,56.1999977 32.668,55.6000037 32.668,54.864 C32.668,54.1279963 32.5200015,53.5280023 32.224,53.064 C31.9279985,52.5999977 31.5000028,52.368 30.94,52.368 C30.3799972,52.368 29.9480015,52.5999977 29.644,53.064 C29.3399985,53.5280023 29.188,54.1279963 29.188,54.864 C29.188,55.6000037 29.3399985,56.1959977 29.644,56.652 C29.9480015,57.1080023 30.3799972,57.336 30.94,57.336 C31.5000028,57.336 31.9239986,57.1120022 32.212,56.664 Z M28.708,59.136 C28.708,59.6160024 29.4359927,59.9199994 30.892,60.048 C32.4280077,60.1760006 33.5399966,60.5279971 34.228,61.104 C34.9160034,61.6800029 35.26,62.3759959 35.26,63.192 C35.26,64.1680049 34.856004,64.9479971 34.048,65.532 C33.239996,66.1160029 32.2280061,66.408 31.012,66.408 C29.7159935,66.408 28.672004,66.1400027 27.88,65.604 C27.087996,65.0679973 26.7239997,64.4400036 26.788,63.72 C26.8520003,62.9999964 27.3639952,62.3920025 28.324,61.896 L28.756,62.16 C28.2919977,62.6880026 28.0440002,63.1719978 28.012,63.612 C27.9799998,64.0520022 28.1199984,64.3999987 28.432,64.656 C28.7440016,64.9120013 29.1279977,65.1119993 29.584,65.256 C30.0400023,65.4000007 30.5159975,65.472 31.012,65.472 C31.7960039,65.472 32.487997,65.3000017 33.088,64.956 C33.688003,64.6119983 33.988,64.1680027 33.988,63.624 C33.988,63.0959974 33.7280026,62.7120012 33.208,62.472 C32.6879974,62.2319988 31.8760055,62.0560006 30.772,61.944 C28.4999886,61.7199989 27.364,60.9760063 27.364,59.712 C27.364,58.8479957 28.0359933,58.2080021 29.38,57.792 C28.7559969,57.5039986 28.2640018,57.1040026 27.904,56.592 C27.5439982,56.0799974 27.364,55.5040032 27.364,54.864 C27.364,53.9679955 27.7119965,53.2000032 28.408,52.56 C29.1040035,51.9199968 29.947995,51.6 30.94,51.6 C31.9000048,51.6 32.7239966,51.903997 33.412,52.512 C33.620001,52.2559987 33.9039982,52.0400009 34.264,51.864 C34.6240018,51.6879991 34.9399986,51.6 35.212,51.6 C35.9160035,51.6 36.363999,51.895997 36.556,52.488 C36.7000007,52.9360022 36.6280014,53.2719989 36.34,53.496 C36.2439995,53.5760004 36.1320006,53.616 36.004,53.616 C35.7639988,53.6320001 35.5840006,53.5840006 35.464,53.472 C35.3439994,53.3599994 35.2720001,53.2360007 35.248,53.1 C35.2239999,52.9639993 35.1600005,52.8360006 35.056,52.716 C34.9519995,52.5959994 34.7880011,52.536 34.564,52.536 C34.3239988,52.536 34.0760013,52.6639987 33.82,52.92 C34.2840023,53.4800028 34.516,54.1279963 34.516,54.864 C34.516,55.7120042 34.2040031,56.439997 33.58,57.048 C32.9559969,57.656003 32.2280042,58.0159994 31.396,58.128 C29.603991,58.336001 28.708,58.6719977 28.708,59.136 Z M39.724,54.504 L43.708,54.504 C43.8680008,54.0559978 43.8000015,53.6200021 43.504,53.196 C43.2079985,52.7719979 42.7000036,52.56 41.98,52.56 C41.4679974,52.56 41.008002,52.7359982 40.6,53.088 C40.191998,53.4400018 39.9000009,53.911997 39.724,54.504 Z M39.58,55.392 C39.4359993,56.5760059 39.6239974,57.5399963 40.144,58.284 C40.6640026,59.0280037 41.5159941,59.4 42.7,59.4 C43.100002,59.4 43.5559974,59.296001 44.068,59.088 C44.5800026,58.879999 45.0039983,58.6160016 45.34,58.296 L45.772,58.824 C45.3399978,59.2880023 44.7880034,59.6679985 44.116,59.964 C43.4439966,60.2600015 42.7720034,60.408 42.1,60.408 C40.8039935,60.408 39.7400042,59.9800043 38.908,59.124 C38.0759958,58.2679957 37.66,57.2240062 37.66,55.992 C37.66,54.7599938 38.1119955,53.7200042 39.016,52.872 C39.9200045,52.0239958 40.9479942,51.6 42.1,51.6 C43.1880054,51.6 44.0759966,51.9799962 44.764,52.74 C45.4520034,53.5000038 45.6520014,54.383995 45.364,55.392 L39.58,55.392 Z" id="Voltage-Copy" fill="#524740" transform="translate(10.612000, 55.800000) rotate(-90.000000) translate(-10.612000, -55.800000) "></path>
                    <path d="M759.796,17 L753.484,17 L753.484,16.496 C754.476005,16.496 755.107999,16.3280017 755.38,15.992 C755.652001,15.6559983 755.788,14.888006 755.788,13.688 L755.788,9.896 C755.788,8.695994 755.652001,7.92800168 755.38,7.592 C755.107999,7.25599832 754.476005,7.088 753.484,7.088 L753.484,6.608 L759.796,6.608 L759.796,7.088 C758.787995,7.088 758.152001,7.25199836 757.888,7.58 C757.623999,7.90800164 757.492,8.67999392 757.492,9.896 L757.492,13.688 C757.492,14.9040061 757.623999,15.6759984 757.888,16.004 C758.152001,16.3320016 758.787995,16.496 759.796,16.496 L759.796,17 Z M767.26,15.944 C767.26,16.2800017 767.124001,16.5719988 766.852,16.82 C766.579999,17.0680012 766.260002,17.192 765.892,17.192 C765.523998,17.192 765.212001,17.0680012 764.956,16.82 C764.699999,16.5719988 764.572,16.2800017 764.572,15.944 C764.572,15.5919982 764.699999,15.2920012 764.956,15.044 C765.212001,14.7959988 765.523998,14.672 765.892,14.672 C766.260002,14.672 766.579999,14.7959988 766.852,15.044 C767.124001,15.2920012 767.26,15.5919982 767.26,15.944 Z M774.388,11.144 C774.42,12.2480055 774.543999,13.1799962 774.76,13.94 C774.976001,14.7000038 775.243998,15.2439984 775.564,15.572 C775.884002,15.9000016 776.179999,16.1279994 776.452,16.256 C776.724001,16.3840006 776.995999,16.448 777.268,16.448 C778.244005,16.448 778.963998,16.1040034 779.428,15.416 C779.892002,14.7279966 780.124,13.880005 780.124,12.872 C780.124,11.8959951 779.892002,11.0680034 779.428,10.388 C778.963998,9.7079966 778.244005,9.368 777.268,9.368 C776.563996,9.368 775.944003,9.53599832 775.408,9.872 C774.871997,10.2080017 774.532001,10.6319974 774.388,11.144 Z M774.412,9.824 C775.100003,8.87999528 776.051994,8.408 777.268,8.408 C778.596007,8.408 779.735995,8.8479956 780.688,9.728 C781.640005,10.6080044 782.116,11.6639938 782.116,12.896 C782.116,14.1280062 781.640005,15.1879956 780.688,16.076 C779.735995,16.9640044 778.596007,17.408 777.268,17.408 C776.867998,17.408 776.468002,17.3560005 776.068,17.252 C775.667998,17.1479995 775.240002,16.9400016 774.784,16.628 C774.327998,16.3159984 773.932002,15.9160024 773.596,15.428 C773.259998,14.9399976 772.980001,14.2840041 772.756,13.46 C772.531999,12.6359959 772.42,11.6880054 772.42,10.616 C772.42,9.19199288 772.615998,7.85200628 773.008,6.596 C773.400002,5.33999372 774.023996,4.28000432 774.88,3.416 C775.736004,2.55199568 776.755994,2.12 777.94,2.12 C778.884005,2.12 779.707996,2.319998 780.412,2.72 C781.116004,3.120002 781.468,3.52799792 781.468,3.944 C781.468,4.13600096 781.396001,4.28799944 781.252,4.4 C781.107999,4.51200056 780.964001,4.568 780.82,4.568 C780.627999,4.568 780.416001,4.4280014 780.184,4.148 C779.951999,3.8679986 779.648002,3.5880014 779.272,3.308 C778.895998,3.0279986 778.452003,2.888 777.94,2.888 C775.779989,2.888 774.604001,5.19997688 774.412,9.824 Z M800.404,3.104 C799.459995,3.104 798.848001,3.21999884 798.568,3.452 C798.287999,3.68400116 797.948002,4.26399536 797.548,5.192 L792.268,17.408 L791.956,17.408 L786.652,5.192 C786.251998,4.26399536 785.912001,3.68400116 785.632,3.452 C785.351999,3.21999884 784.740005,3.104 783.796,3.104 L783.796,2.6 L790.444,2.6 L790.444,3.104 C789.451995,3.104 788.816001,3.2439986 788.536,3.524 C788.255999,3.8040014 788.267998,4.27199672 788.572,4.928 L792.652,14.264 L796.684,4.928 C796.988002,4.27199672 797.000001,3.8040014 796.72,3.524 C796.439999,3.2439986 795.804005,3.104 794.812,3.104 L794.812,2.6 L800.404,2.6 L800.404,3.104 Z M721.072,32.008 L719.92,34.672 C719.615998,35.3280033 719.603999,35.7959986 719.884,36.076 C720.164001,36.3560014 720.799995,36.496 721.792,36.496 L721.792,37 L716.176,37 L716.176,36.496 C716.688003,36.496 717.083999,36.4760002 717.364,36.436 C717.644001,36.3959998 717.891999,36.2680011 718.108,36.052 C718.324001,35.8359989 718.476,35.6400009 718.564,35.464 C718.652,35.2879991 718.815999,34.9360026 719.056,34.408 L724.336,22.192 L724.648,22.192 L729.952,34.408 C730.192001,34.9360026 730.356,35.2879991 730.444,35.464 C730.532,35.6400009 730.683999,35.8359989 730.9,36.052 C731.116001,36.2680011 731.359999,36.3959998 731.632,36.436 C731.904001,36.4760002 732.295997,36.496 732.808,36.496 L732.808,37 L726.16,37 L726.16,36.496 C727.152005,36.496 727.783999,36.3560014 728.056,36.076 C728.328001,35.7959986 728.320001,35.3280033 728.032,34.672 L726.88,32.008 L721.072,32.008 Z M726.472,31.12 L723.952,25.336 L721.456,31.12 L726.472,31.12 Z M742.336,29.488 C741.919998,29.488 741.588001,29.591999 741.34,29.8 C741.091999,30.008001 740.856001,30.3759974 740.632,30.904 L737.92,37.432 L737.44,37.432 L734.512,30.904 C734.271999,30.3759974 734.036001,30.008001 733.804,29.8 C733.571999,29.591999 733.264002,29.488 732.88,29.488 L732.88,29.008 L737.128,29.008 L737.128,29.488 C736.583997,29.488 736.264,29.5799991 736.168,29.764 C736.072,29.9480009 736.143999,30.3279971 736.384,30.904 L738.088,34.744 L739.672,30.904 C739.912001,30.3919974 739.984,30.0280011 739.888,29.812 C739.792,29.5959989 739.488003,29.488 738.976,29.488 L738.976,29.008 L742.336,29.008 L742.336,29.488 Z M749.104,33.664 C749.408002,33.1999977 749.56,32.6000037 749.56,31.864 C749.56,31.1279963 749.412001,30.5280023 749.116,30.064 C748.819999,29.5999977 748.392003,29.368 747.832,29.368 C747.271997,29.368 746.840002,29.5999977 746.536,30.064 C746.231998,30.5280023 746.08,31.1279963 746.08,31.864 C746.08,32.6000037 746.231998,33.1959977 746.536,33.652 C746.840002,34.1080023 747.271997,34.336 747.832,34.336 C748.392003,34.336 748.815999,34.1120022 749.104,33.664 Z M745.6,36.136 C745.6,36.6160024 746.327993,36.9199994 747.784,37.048 C749.320008,37.1760006 750.431997,37.5279971 751.12,38.104 C751.808003,38.6800029 752.152,39.3759959 752.152,40.192 C752.152,41.1680049 751.748004,41.9479971 750.94,42.532 C750.131996,43.1160029 749.120006,43.408 747.904,43.408 C746.607994,43.408 745.564004,43.1400027 744.772,42.604 C743.979996,42.0679973 743.616,41.4400036 743.68,40.72 C743.744,39.9999964 744.255995,39.3920025 745.216,38.896 L745.648,39.16 C745.183998,39.6880026 744.936,40.1719978 744.904,40.612 C744.872,41.0520022 745.011998,41.3999987 745.324,41.656 C745.636002,41.9120013 746.019998,42.1119993 746.476,42.256 C746.932002,42.4000007 747.407998,42.472 747.904,42.472 C748.688004,42.472 749.379997,42.3000017 749.98,41.956 C750.580003,41.6119983 750.88,41.1680027 750.88,40.624 C750.88,40.0959974 750.620003,39.7120012 750.1,39.472 C749.579997,39.2319988 748.768006,39.0560006 747.664,38.944 C745.391989,38.7199989 744.256,37.9760063 744.256,36.712 C744.256,35.8479957 744.927993,35.2080021 746.272,34.792 C745.647997,34.5039986 745.156002,34.1040026 744.796,33.592 C744.435998,33.0799974 744.256,32.5040032 744.256,31.864 C744.256,30.9679955 744.603997,30.2000032 745.3,29.56 C745.996003,28.9199968 746.839995,28.6 747.832,28.6 C748.792005,28.6 749.615997,28.903997 750.304,29.512 C750.512001,29.2559987 750.795998,29.0400009 751.156,28.864 C751.516002,28.6879991 751.831999,28.6 752.104,28.6 C752.808004,28.6 753.255999,28.895997 753.448,29.488 C753.592001,29.9360022 753.520001,30.2719989 753.232,30.496 C753.136,30.5760004 753.024001,30.616 752.896,30.616 C752.655999,30.6320001 752.476001,30.5840006 752.356,30.472 C752.235999,30.3599994 752.164,30.2360007 752.14,30.1 C752.116,29.9639993 752.052001,29.8360006 751.948,29.716 C751.843999,29.5959994 751.680001,29.536 751.456,29.536 C751.215999,29.536 750.968001,29.6639987 750.712,29.92 C751.176002,30.4800028 751.408,31.1279963 751.408,31.864 C751.408,32.7120042 751.096003,33.439997 750.472,34.048 C749.847997,34.656003 749.120004,35.0159994 748.288,35.128 C746.495991,35.336001 745.6,35.6719977 745.6,36.136 Z M759.664,35.944 C759.664,36.2800017 759.528001,36.5719988 759.256,36.82 C758.983999,37.0680012 758.664002,37.192 758.296,37.192 C757.927998,37.192 757.616001,37.0680012 757.36,36.82 C757.103999,36.5719988 756.976,36.2800017 756.976,35.944 C756.976,35.5919982 757.103999,35.2920012 757.36,35.044 C757.616001,34.7959988 757.927998,34.672 758.296,34.672 C758.664002,34.672 758.983999,34.7959988 759.256,35.044 C759.528001,35.2920012 759.664,35.5919982 759.664,35.944 Z M772.768,36.28 C772.399998,36.5840015 772.168,36.9599978 772.072,37.408 L771.592,37.408 L771.592,32.128 L772.096,32.128 C772.096,32.1920003 772.1,32.2759995 772.108,32.38 C772.116,32.4840005 772.148,32.6839985 772.204,32.98 C772.26,33.2760015 772.339999,33.5599986 772.444,33.832 C772.548001,34.1040014 772.711999,34.4079983 772.936,34.744 C773.160001,35.0800017 773.419999,35.3679988 773.716,35.608 C774.012001,35.8480012 774.403998,36.0479992 774.892,36.208 C775.380002,36.3680008 775.919997,36.448 776.512,36.448 C777.376004,36.448 778.091997,36.2000025 778.66,35.704 C779.228003,35.2079975 779.512,34.5760038 779.512,33.808 C779.512,32.8319951 778.592009,31.8640048 776.752,30.904 L774.448,29.728 C773.695996,29.327998 773.064003,28.7840034 772.552,28.096 C772.039997,27.4079966 771.784,26.6320043 771.784,25.768 C771.784,24.759995 772.159996,23.9120034 772.912,23.224 C773.664004,22.5359966 774.615994,22.192 775.768,22.192 C776.824005,22.192 777.799996,22.5199967 778.696,23.176 C779.064002,22.8719985 779.296,22.5040022 779.392,22.072 L779.872,22.072 L779.872,27.352 L779.368,27.352 C779.127999,24.551986 777.904011,23.152 775.696,23.152 C775.023997,23.152 774.468002,23.355998 774.028,23.764 C773.587998,24.172002 773.368,24.679997 773.368,25.288 C773.368,25.880003 773.579998,26.379998 774.004,26.788 C774.428002,27.196002 775.191994,27.6879971 776.296,28.264 L778.576,29.44 C780.256008,30.2880042 781.096,31.5039921 781.096,33.088 C781.096,34.3680064 780.652004,35.407996 779.764,36.208 C778.875996,37.008004 777.792006,37.408 776.512,37.408 C775.967997,37.408 775.448002,37.3280008 774.952,37.168 C774.455998,37.0079992 774.008002,36.828001 773.608,36.628 C773.207998,36.427999 772.928001,36.3120002 772.768,36.28 Z M789.88,37 L784.384,37 L784.384,36.496 C785.184004,36.496 785.699999,36.3280017 785.932,35.992 C786.164001,35.6559983 786.28,34.888006 786.28,33.688 L786.28,32.488 C786.28,31.3039941 786.164001,30.5440017 785.932,30.208 C785.699999,29.8719983 785.184004,29.704 784.384,29.704 L784.384,29.2 L787.984,28.6 L787.984,33.688 C787.984,34.888006 788.099999,35.6559983 788.332,35.992 C788.564001,36.3280017 789.079996,36.496 789.88,36.496 L789.88,37 Z M788.176,25.168 C788.176,25.4720015 788.072001,25.727999 787.864,25.936 C787.655999,26.144001 787.408001,26.248 787.12,26.248 C786.831999,26.248 786.584001,26.144001 786.376,25.936 C786.167999,25.727999 786.064,25.4720015 786.064,25.168 C786.064,24.8799986 786.167999,24.632001 786.376,24.424 C786.584001,24.215999 786.831999,24.112 787.12,24.112 C787.408001,24.112 787.655999,24.215999 787.864,24.424 C788.072001,24.632001 788.176,24.8799986 788.176,25.168 Z M797.392,33.664 C797.696002,33.1999977 797.848,32.6000037 797.848,31.864 C797.848,31.1279963 797.700001,30.5280023 797.404,30.064 C797.107999,29.5999977 796.680003,29.368 796.12,29.368 C795.559997,29.368 795.128002,29.5999977 794.824,30.064 C794.519998,30.5280023 794.368,31.1279963 794.368,31.864 C794.368,32.6000037 794.519998,33.1959977 794.824,33.652 C795.128002,34.1080023 795.559997,34.336 796.12,34.336 C796.680003,34.336 797.103999,34.1120022 797.392,33.664 Z M793.888,36.136 C793.888,36.6160024 794.615993,36.9199994 796.072,37.048 C797.608008,37.1760006 798.719997,37.5279971 799.408,38.104 C800.096003,38.6800029 800.44,39.3759959 800.44,40.192 C800.44,41.1680049 800.036004,41.9479971 799.228,42.532 C798.419996,43.1160029 797.408006,43.408 796.192,43.408 C794.895994,43.408 793.852004,43.1400027 793.06,42.604 C792.267996,42.0679973 791.904,41.4400036 791.968,40.72 C792.032,39.9999964 792.543995,39.3920025 793.504,38.896 L793.936,39.16 C793.471998,39.6880026 793.224,40.1719978 793.192,40.612 C793.16,41.0520022 793.299998,41.3999987 793.612,41.656 C793.924002,41.9120013 794.307998,42.1119993 794.764,42.256 C795.220002,42.4000007 795.695998,42.472 796.192,42.472 C796.976004,42.472 797.667997,42.3000017 798.268,41.956 C798.868003,41.6119983 799.168,41.1680027 799.168,40.624 C799.168,40.0959974 798.908003,39.7120012 798.388,39.472 C797.867997,39.2319988 797.056006,39.0560006 795.952,38.944 C793.679989,38.7199989 792.544,37.9760063 792.544,36.712 C792.544,35.8479957 793.215993,35.2080021 794.56,34.792 C793.935997,34.5039986 793.444002,34.1040026 793.084,33.592 C792.723998,33.0799974 792.544,32.5040032 792.544,31.864 C792.544,30.9679955 792.891997,30.2000032 793.588,29.56 C794.284003,28.9199968 795.127995,28.6 796.12,28.6 C797.080005,28.6 797.903997,28.903997 798.592,29.512 C798.800001,29.2559987 799.083998,29.0400009 799.444,28.864 C799.804002,28.6879991 800.119999,28.6 800.392,28.6 C801.096004,28.6 801.543999,28.895997 801.736,29.488 C801.880001,29.9360022 801.808001,30.2719989 801.52,30.496 C801.424,30.5760004 801.312001,30.616 801.184,30.616 C800.943999,30.6320001 800.764001,30.5840006 800.644,30.472 C800.523999,30.3599994 800.452,30.2360007 800.428,30.1 C800.404,29.9639993 800.340001,29.8360006 800.236,29.716 C800.131999,29.5959994 799.968001,29.536 799.744,29.536 C799.503999,29.536 799.256001,29.6639987 799,29.92 C799.464002,30.4800028 799.696,31.1279963 799.696,31.864 C799.696,32.7120042 799.384003,33.439997 798.76,34.048 C798.135997,34.656003 797.408004,35.0159994 796.576,35.128 C794.783991,35.336001 793.888,35.6719977 793.888,36.136 Z M807.4,30.328 C808.312005,29.1759942 809.423993,28.6 810.736,28.6 C811.776005,28.6 812.555997,28.9279967 813.076,29.584 C813.596003,30.2400033 813.856,31.1039946 813.856,32.176 L813.856,33.688 C813.856,34.888006 813.971999,35.6559983 814.204,35.992 C814.436001,36.3280017 814.951996,36.496 815.752,36.496 L815.752,37 L810.256,37 L810.256,36.496 C811.040004,36.496 811.551999,36.3240017 811.792,35.98 C812.032001,35.6359983 812.152,34.8720059 812.152,33.688 L812.152,32.296 C812.152,30.5839914 811.488007,29.728 810.16,29.728 C809.471997,29.728 808.840003,29.9679976 808.264,30.448 C807.687997,30.9280024 807.4,31.4879968 807.4,32.128 L807.4,33.688 C807.4,34.9200062 807.495999,35.6959984 807.688,36.016 C807.880001,36.3360016 808.343996,36.496 809.08,36.496 L809.08,37 L803.8,37 L803.8,36.496 C804.600004,36.496 805.115999,36.3280017 805.348,35.992 C805.580001,35.6559983 805.696,34.888006 805.696,33.688 L805.696,32.488 C805.696,31.3039941 805.580001,30.5440017 805.348,30.208 C805.115999,29.8719983 804.600004,29.704 803.8,29.704 L803.8,29.2 L806.992,28.6 C807.136001,28.9040015 807.271999,29.4799958 807.4,30.328 Z M826.696,36.52 C826.231998,37.0160025 825.704003,37.264 825.112,37.264 C824.151995,37.264 823.608001,36.8000046 823.48,35.872 C822.407995,36.8320048 821.408005,37.312 820.48,37.312 C819.871997,37.312 819.360002,37.1320018 818.944,36.772 C818.527998,36.4119982 818.32,35.9200031 818.32,35.296 C818.32,33.6159916 820.023983,32.480003 823.432,31.888 C823.432,30.9439953 823.328001,30.2880018 823.12,29.92 C822.911999,29.5519982 822.480003,29.368 821.824,29.368 C821.503998,29.368 821.196001,29.471999 820.9,29.68 C820.603999,29.888001 820.456,30.1679982 820.456,30.52 C820.456,30.7600012 820.376001,30.9599992 820.216,31.12 C820.055999,31.2800008 819.864001,31.36 819.64,31.36 C819.399999,31.36 819.200001,31.2800008 819.04,31.12 C818.879999,30.9599992 818.8,30.7600012 818.8,30.52 C818.8,29.9599972 819.107997,29.5000018 819.724,29.14 C820.340003,28.7799982 821.047996,28.6 821.848,28.6 C823.016006,28.6 823.855997,28.8559974 824.368,29.368 C824.880003,29.8800026 825.136,30.7119942 825.136,31.864 L825.136,35.488 C825.136,36.1120031 825.319998,36.424 825.688,36.424 C825.896001,36.424 826.119999,36.3040012 826.36,36.064 L826.696,36.52 Z M823.432,35.08 L823.432,32.632 C821.223989,33.1440026 820.12,33.9359946 820.12,35.008 C820.12,35.3760018 820.227999,35.6719989 820.444,35.896 C820.660001,36.1200011 820.927998,36.232 821.248,36.232 C821.840003,36.232 822.567996,35.8480038 823.432,35.08 Z M834.232,37 L828.736,37 L828.736,36.496 C829.536004,36.496 830.051999,36.3280017 830.284,35.992 C830.516001,35.6559983 830.632,34.888006 830.632,33.688 L830.632,26.104 C830.632,24.903994 830.516001,24.1360017 830.284,23.8 C830.051999,23.4639983 829.536004,23.296 828.736,23.296 L828.736,22.792 L832.336,22.192 L832.336,33.688 C832.336,34.888006 832.451999,35.6559983 832.684,35.992 C832.916001,36.3280017 833.431996,36.496 834.232,36.496 L834.232,37 Z" id="1.6V-Avg.-Signal-Copy" fill="#B35E2C"></path>
                </g>
            </g>
            <path d="M359.12,12.536 C359.376001,12.2159984 359.759997,11.960001 360.272,11.768 C360.784003,11.575999 361.295997,11.48 361.808,11.48 C363.152007,11.48 364.259996,11.9599952 365.132,12.92 C366.004004,13.8800048 366.44,15.063993 366.44,16.472 C366.44,17.8480069 365.964005,19.0279951 365.012,20.012 C364.059995,20.9960049 362.920007,21.488 361.592,21.488 C360.439994,21.488 359.500004,21.192003 358.772,20.6 C358.043996,20.007997 357.68,19.4320028 357.68,18.872 C357.68,18.4399978 357.903998,18.224 358.352,18.224 C358.560001,18.224 358.743999,18.3479988 358.904,18.596 C359.064001,18.8440012 359.207999,19.1119986 359.336,19.4 C359.464001,19.6880014 359.723998,19.9559988 360.116,20.204 C360.508002,20.4520012 360.999997,20.576 361.592,20.576 C362.536005,20.576 363.247998,20.1960038 363.728,19.436 C364.208002,18.6759962 364.448,17.6880061 364.448,16.472 C364.448,15.2559939 364.212002,14.2880036 363.74,13.568 C363.267998,12.8479964 362.552005,12.488 361.592,12.488 C360.039992,12.488 359.144001,13.2719922 358.904,14.84 L358.016,14.84 L358.76,6.608 L362.816,6.608 C363.856005,6.608 364.535998,6.48400124 364.856,6.236 C365.176002,5.98799876 365.423999,5.5040036 365.6,4.784 L366.152,4.784 L365.552,8.288 L359.48,8.288 L359.12,12.536 Z M371.096,7.856 C372.200006,6.75199448 373.519992,6.2 375.056,6.2 C376.592008,6.2 377.907995,6.74799452 379.004,7.844 C380.100005,8.94000548 380.648,10.2559923 380.648,11.792 C380.648,13.3440078 380.100005,14.6679945 379.004,15.764 C377.907995,16.8600055 376.592008,17.408 375.056,17.408 C373.519992,17.408 372.204005,16.8600055 371.108,15.764 C370.011995,14.6679945 369.464,13.3440078 369.464,11.792 C369.464,10.2559923 370.007995,8.94400544 371.096,7.856 Z M375.056,7.568 C373.935994,7.568 372.980004,7.98399584 372.188,8.816 C371.395996,9.64800416 371,10.6399942 371,11.792 C371,12.9600058 371.395996,13.9559959 372.188,14.78 C372.980004,15.6040041 373.935994,16.016 375.056,16.016 C376.160006,16.016 377.111996,15.6040041 377.912,14.78 C378.712004,13.9559959 379.112,12.9600058 379.112,11.792 C379.112,10.6399942 378.712004,9.64800416 377.912,8.816 C377.111996,7.98399584 376.160006,7.568 375.056,7.568 Z M398,11.504 C398.704004,12.1760034 399.056,12.9839953 399.056,13.928 C399.056,14.8720047 398.704004,15.6839966 398,16.364 C397.295996,17.0440034 396.456005,17.384 395.48,17.384 C394.503995,17.384 393.664004,17.0440034 392.96,16.364 C392.255996,15.6839966 391.904,14.8720047 391.904,13.928 C391.904,12.9839953 392.255996,12.1760034 392.96,11.504 C393.664004,10.8319966 394.503995,10.496 395.48,10.496 C396.456005,10.496 397.295996,10.8319966 398,11.504 Z M396.344,2.6 L387.152,17.432 L386.288,17 L395.48,2.168 L396.344,2.6 Z M390.728,5.648 C390.728,6.57600464 390.376004,7.3799966 389.672,8.06 C388.967996,8.7400034 388.128005,9.08 387.152,9.08 C386.175995,9.08 385.332004,8.74400336 384.62,8.072 C383.907996,7.39999664 383.552,6.59200472 383.552,5.648 C383.552,4.70399528 383.903996,3.8920034 384.608,3.212 C385.312004,2.5319966 386.159995,2.192 387.152,2.192 C388.128005,2.192 388.967996,2.5319966 389.672,3.212 C390.376004,3.8920034 390.728,4.70399528 390.728,5.648 Z M397.472,13.928 C397.472,13.1599962 397.304002,12.5280025 396.968,12.032 C396.631998,11.5359975 396.136003,11.288 395.48,11.288 C394.823997,11.288 394.332002,11.5359975 394.004,12.032 C393.675998,12.5280025 393.512,13.1599962 393.512,13.928 C393.512,14.7120039 393.675998,15.3479976 394.004,15.836 C394.332002,16.3240024 394.823997,16.568 395.48,16.568 C396.136003,16.568 396.631998,16.3240024 396.968,15.836 C397.304002,15.3479976 397.472,14.7120039 397.472,13.928 Z M388.616,7.544 C388.952002,7.04799752 389.12,6.41600384 389.12,5.648 C389.12,4.87999616 388.952002,4.24800248 388.616,3.752 C388.279998,3.25599752 387.792003,3.008 387.152,3.008 C386.495997,3.008 386.000002,3.25199756 385.664,3.74 C385.327998,4.22800244 385.16,4.86399608 385.16,5.648 C385.16,6.41600384 385.327998,7.04799752 385.664,7.544 C386.000002,8.04000248 386.495997,8.288 387.152,8.288 C387.792003,8.288 388.279998,8.04000248 388.616,7.544 Z M406.976,17 L406.976,16.496 C407.968005,16.496 408.595999,16.3280017 408.86,15.992 C409.124001,15.6559983 409.256,14.888006 409.256,13.688 L409.256,5.888 C409.256,4.687994 409.124001,3.92400164 408.86,3.596 C408.595999,3.26799836 407.968005,3.104 406.976,3.104 L406.976,2.6 L413.48,2.6 C416.136013,2.6 418.135993,3.27199328 419.48,4.616 C420.824007,5.96000672 421.496,7.68798944 421.496,9.8 C421.496,11.9120106 420.824007,13.6399933 419.48,14.984 C418.135993,16.3280067 416.136013,17 413.48,17 L406.976,17 Z M411.176,3.488 L411.176,13.328 C411.176,14.5440061 411.303999,15.3119984 411.56,15.632 C411.816001,15.9520016 412.431995,16.112 413.408,16.112 L413.504,16.112 C414.608006,16.112 415.555996,15.9200019 416.348,15.536 C417.140004,15.1519981 417.731998,14.6360032 418.124,13.988 C418.516002,13.3399968 418.791999,12.6760034 418.952,11.996 C419.112001,11.3159966 419.192,10.5840039 419.192,9.8 C419.192,9.01599608 419.112001,8.2840034 418.952,7.604 C418.791999,6.9239966 418.516002,6.26000324 418.124,5.612 C417.731998,4.96399676 417.140004,4.44800192 416.348,4.064 C415.555996,3.67999808 414.608006,3.488 413.504,3.488 L411.176,3.488 Z M435.248,16.808 L432.032,17.408 C431.903999,17.1519987 431.776001,16.6400038 431.648,15.872 C430.655995,16.8960051 429.608006,17.408 428.504,17.408 C426.51999,17.408 425.528,16.208012 425.528,13.808 L425.528,12.296 C425.528,11.095994 425.412001,10.3280017 425.18,9.992 C424.947999,9.65599832 424.432004,9.488 423.632,9.488 L423.632,9.008 L427.232,9.008 L427.232,13.688 C427.232,15.4000086 427.839994,16.256 429.056,16.256 C429.600003,16.256 430.167997,16.0280023 430.76,15.572 C431.352003,15.1159977 431.648,14.5520034 431.648,13.88 L431.648,12.296 C431.648,11.095994 431.532001,10.3280017 431.3,9.992 C431.067999,9.65599832 430.544004,9.488 429.728,9.488 L429.728,9.008 L433.328,9.008 L433.328,13.496 C433.328,14.696006 433.443999,15.4639983 433.676,15.8 C433.908001,16.1360017 434.431996,16.304 435.248,16.304 L435.248,16.808 Z M437.624,9.848 L436.376,9.848 L436.376,9.272 C437.064003,9.12799928 437.567998,8.8160024 437.888,8.336 C438.208002,7.8559976 438.416,7.20000416 438.512,6.368 L439.328,6.368 L439.328,9.008 L441.416,9.008 L441.416,9.848 L439.328,9.848 L439.328,14.648 C439.328,15.8000058 439.687996,16.376 440.408,16.376 C440.872002,16.376 441.391997,16.1040027 441.968,15.56 L442.376,15.968 C442.039998,16.368002 441.636002,16.6959987 441.164,16.952 C440.691998,17.2080013 440.256002,17.336 439.856,17.336 C439.167997,17.336 438.624002,17.1120022 438.224,16.664 C437.823998,16.2159978 437.624,15.5440045 437.624,14.648 L437.624,9.848 Z M443.936,22.688 C443.936,22.4319987 444.031999,22.204001 444.224,22.004 C444.416001,21.803999 444.667998,21.5320017 444.98,21.188 C445.292002,20.8439983 445.551999,20.4080026 445.76,19.88 L446.96,16.88 L444.2,10.904 C443.943999,10.3599973 443.704001,9.988001 443.48,9.788 C443.255999,9.587999 442.960002,9.488 442.592,9.488 L442.592,9.008 L446.84,9.008 L446.84,9.488 C446.295997,9.488 445.968001,9.57599912 445.856,9.752 C445.743999,9.92800088 445.815999,10.311997 446.072,10.904 L447.824,14.744 L449.36,10.904 C449.584001,10.3599973 449.648,9.988001 449.552,9.788 C449.456,9.587999 449.160002,9.488 448.664,9.488 L448.664,9.008 L452.024,9.008 L452.024,9.488 C451.271996,9.488 450.704002,9.95999528 450.32,10.904 L445.64,22.592 C445.399999,23.184003 445.104002,23.48 444.752,23.48 C444.543999,23.48 444.356001,23.4160006 444.188,23.288 C444.019999,23.1599994 443.936,22.9600014 443.936,22.688 Z M472.16,16.736 L471.68,16.736 C471.551999,16.1119969 471.280002,15.6560014 470.864,15.368 C469.551993,16.7280068 468.064008,17.408 466.4,17.408 C464.36799,17.408 462.632007,16.6640074 461.192,15.176 C459.751993,13.6879926 459.032,11.8960105 459.032,9.8 C459.032,7.70398952 459.751993,5.91200744 461.192,4.424 C462.632007,2.93599256 464.36799,2.192 466.4,2.192 C468.096008,2.192 469.583994,2.8719932 470.864,4.232 C471.296002,3.89599832 471.567999,3.44000288 471.68,2.864 L472.16,2.864 L472.16,8.144 L471.68,8.144 C471.343998,6.55999208 470.724005,5.3280044 469.82,4.448 C468.915995,3.5679956 467.808007,3.128 466.496,3.128 C465.583995,3.128 464.776004,3.33199796 464.072,3.74 C463.367996,4.14800204 462.820002,4.68799664 462.428,5.36 C462.035998,6.03200336 461.744001,6.74399624 461.552,7.496 C461.359999,8.24800376 461.264,9.01599608 461.264,9.8 C461.264,10.5840039 461.359999,11.3519962 461.552,12.104 C461.744001,12.8560038 462.035998,13.5639967 462.428,14.228 C462.820002,14.8920033 463.367996,15.427998 464.072,15.836 C464.776004,16.244002 465.583995,16.448 466.496,16.448 C467.808007,16.448 468.915995,16.0040044 469.82,15.116 C470.724005,14.2279956 471.343998,13.0080078 471.68,11.456 L472.16,11.456 L472.16,16.736 Z M475.088,22.688 C475.088,22.4319987 475.183999,22.204001 475.376,22.004 C475.568001,21.803999 475.819998,21.5320017 476.132,21.188 C476.444002,20.8439983 476.703999,20.4080026 476.912,19.88 L478.112,16.88 L475.352,10.904 C475.095999,10.3599973 474.856001,9.988001 474.632,9.788 C474.407999,9.587999 474.112002,9.488 473.744,9.488 L473.744,9.008 L477.992,9.008 L477.992,9.488 C477.447997,9.488 477.120001,9.57599912 477.008,9.752 C476.895999,9.92800088 476.967999,10.311997 477.224,10.904 L478.976,14.744 L480.512,10.904 C480.736001,10.3599973 480.8,9.988001 480.704,9.788 C480.608,9.587999 480.312002,9.488 479.816,9.488 L479.816,9.008 L483.176,9.008 L483.176,9.488 C482.423996,9.488 481.856002,9.95999528 481.472,10.904 L476.792,22.592 C476.551999,23.184003 476.256002,23.48 475.904,23.48 C475.695999,23.48 475.508001,23.4160006 475.34,23.288 C475.171999,23.1599994 475.088,22.9600014 475.088,22.688 Z M488.288,9.368 C487.647997,9.368 487.104002,9.73599632 486.656,10.472 C486.207998,11.2080037 485.984,12.1199946 485.984,13.208 C485.984,14.200005 486.227998,14.9799972 486.716,15.548 C487.204002,16.1160028 487.927995,16.4 488.888,16.4 C489.816005,16.4 490.671996,16.0320037 491.456,15.296 L491.864,15.824 C490.887995,16.8800053 489.696007,17.408 488.288,17.408 C486.975993,17.408 485.940004,17.0160039 485.18,16.232 C484.419996,15.4479961 484.04,14.4400062 484.04,13.208 C484.04,11.8799934 484.487996,10.7800044 485.384,9.908 C486.280004,9.03599564 487.247995,8.6 488.288,8.6 C489.232005,8.6 489.943998,8.76799832 490.424,9.104 C490.904002,9.44000168 491.144,9.8479976 491.144,10.328 C491.144,10.5840013 491.060001,10.8199989 490.892,11.036 C490.723999,11.2520011 490.456002,11.36 490.088,11.36 C489.831999,11.36 489.612001,11.2680009 489.428,11.084 C489.243999,10.8999991 489.152,10.6720014 489.152,10.4 C489.152,9.71199656 488.864003,9.368 488.288,9.368 Z M498.272,17 L492.776,17 L492.776,16.496 C493.576004,16.496 494.091999,16.3280017 494.324,15.992 C494.556001,15.6559983 494.672,14.888006 494.672,13.688 L494.672,6.104 C494.672,4.903994 494.556001,4.13600168 494.324,3.8 C494.091999,3.46399832 493.576004,3.296 492.776,3.296 L492.776,2.792 L496.376,2.192 L496.376,13.688 C496.376,14.888006 496.491999,15.6559983 496.724,15.992 C496.956001,16.3280017 497.471996,16.496 498.272,16.496 L498.272,17 Z M501.968,11.504 L505.952,11.504 C506.112001,11.0559978 506.044001,10.6200021 505.748,10.196 C505.451999,9.77199788 504.944004,9.56 504.224,9.56 C503.711997,9.56 503.252002,9.73599824 502.844,10.088 C502.435998,10.4400018 502.144001,10.911997 501.968,11.504 Z M501.824,12.392 C501.679999,13.5760059 501.867997,14.5399963 502.388,15.284 C502.908003,16.0280037 503.759994,16.4 504.944,16.4 C505.344002,16.4 505.799997,16.296001 506.312,16.088 C506.824003,15.879999 507.247998,15.6160016 507.584,15.296 L508.016,15.824 C507.583998,16.2880023 507.032003,16.6679985 506.36,16.964 C505.687997,17.2600015 505.016003,17.408 504.344,17.408 C503.047994,17.408 501.984004,16.9800043 501.152,16.124 C500.319996,15.2679957 499.904,14.2240062 499.904,12.992 C499.904,11.7599938 500.355995,10.7200042 501.26,9.872 C502.164005,9.02399576 503.191994,8.6 504.344,8.6 C505.432005,8.6 506.319997,8.9799962 507.008,9.74 C507.696003,10.5000038 507.896001,11.383995 507.608,12.392 L501.824,12.392 Z" id="50%-Duty-Cycle-Copy" fill="#1A80AA"></path>
            <path d="M93,90 L791,90" id="Avg.-Signal" stroke="#1A80AA" stroke-width="3" stroke-linecap="square"></path>
            <polyline id="Signal" stroke="#EF7D3B" stroke-width="3" points="93 131 192 131 192 51 292 51 292 131 392 131 392 51 492 51 492 131 592 131 592 51 692 51 692 131 792 131"></polyline>
        </g>
    </g>
</svg>