<?xml version="1.0" encoding="UTF-8"?>
<svg width="900px" height="360px" viewBox="0 0 900 360" version="1.1" xmlns="http://www.w3.org/2000/svg" xmlns:xlink="http://www.w3.org/1999/xlink">
    <!-- Generator: Sketch 52.5 (67469) - http://www.bohemiancoding.com/sketch -->
    <title>Rectification_Circuit</title>
    <desc>Created with Sketch.</desc>
    <g id="Rectification_Circuit" stroke="none" stroke-width="1" fill="none" fill-rule="evenodd">
        <rect id="Rectangle" stroke="#3D3530" stroke-width="2" fill="#EEEEEE" x="1" y="1" width="898" height="358"></rect>
        <rect id="Rectangle-Copy" stroke="#3D3530" stroke-width="2" x="1" y="297" width="898" height="62"></rect>
        <g id="Circuit" transform="translate(239.000000, 26.000000)">
            <g id="Labels" transform="translate(71.000000, 0.000000)">
                <g id="+DC" transform="translate(298.000000, 0.000000)">
                    <rect id="Rectangle" stroke="#3D3530" stroke-width="2" fill="#F8FAE4" x="1" y="1" width="78" height="28" rx="5"></rect>
                    <path d="M20.524,14.168 L24.292,14.168 L24.292,15.224 L20.524,15.224 L20.524,18.992 L19.468,18.992 L19.468,15.224 L15.7,15.224 L15.7,14.168 L19.468,14.168 L19.468,10.4 L20.524,10.4 L20.524,14.168 Z M27.604,20 L27.604,19.496 C28.596005,19.496 29.2239987,19.3280017 29.488,18.992 C29.7520013,18.6559983 29.884,17.888006 29.884,16.688 L29.884,8.888 C29.884,7.687994 29.7520013,6.92400164 29.488,6.596 C29.2239987,6.26799836 28.596005,6.104 27.604,6.104 L27.604,5.6 L34.108,5.6 C36.7640133,5.6 38.7639933,6.27199328 40.108,7.616 C41.4520067,8.96000672 42.124,10.6879894 42.124,12.8 C42.124,14.9120106 41.4520067,16.6399933 40.108,17.984 C38.7639933,19.3280067 36.7640133,20 34.108,20 L27.604,20 Z M31.804,6.488 L31.804,16.328 C31.804,17.5440061 31.9319987,18.3119984 32.188,18.632 C32.4440013,18.9520016 33.0599951,19.112 34.036,19.112 L34.132,19.112 C35.2360055,19.112 36.183996,18.9200019 36.976,18.536 C37.768004,18.1519981 38.359998,17.6360032 38.752,16.988 C39.144002,16.3399968 39.4199992,15.6760034 39.58,14.996 C39.7400008,14.3159966 39.82,13.5840039 39.82,12.8 C39.82,12.0159961 39.7400008,11.2840034 39.58,10.604 C39.4199992,9.9239966 39.144002,9.26000324 38.752,8.612 C38.359998,7.96399676 37.768004,7.44800192 36.976,7.064 C36.183996,6.67999808 35.2360055,6.488 34.132,6.488 L31.804,6.488 Z M59.836,19.736 L59.356,19.736 C59.2279994,19.1119969 58.9560021,18.6560014 58.54,18.368 C57.2279934,19.7280068 55.7400083,20.408 54.076,20.408 C52.0439898,20.408 50.3080072,19.6640074 48.868,18.176 C47.4279928,16.6879926 46.708,14.8960105 46.708,12.8 C46.708,10.7039895 47.4279928,8.91200744 48.868,7.424 C50.3080072,5.93599256 52.0439898,5.192 54.076,5.192 C55.7720085,5.192 57.2599936,5.8719932 58.54,7.232 C58.9720022,6.89599832 59.2439994,6.44000288 59.356,5.864 L59.836,5.864 L59.836,11.144 L59.356,11.144 C59.0199983,9.55999208 58.4000045,8.3280044 57.496,7.448 C56.5919955,6.5679956 55.4840066,6.128 54.172,6.128 C53.2599954,6.128 52.4520035,6.33199796 51.748,6.74 C51.0439965,7.14800204 50.496002,7.68799664 50.104,8.36 C49.711998,9.03200336 49.420001,9.74399624 49.228,10.496 C49.035999,11.2480038 48.94,12.0159961 48.94,12.8 C48.94,13.5840039 49.035999,14.3519962 49.228,15.104 C49.420001,15.8560038 49.711998,16.5639967 50.104,17.228 C50.496002,17.8920033 51.0439965,18.427998 51.748,18.836 C52.4520035,19.244002 53.2599954,19.448 54.172,19.448 C55.4840066,19.448 56.5919955,19.0040044 57.496,18.116 C58.4000045,17.2279956 59.0199983,16.0080078 59.356,14.456 L59.836,14.456 L59.836,19.736 Z" id="+DC-Copy-2" fill="#1A80AA"></path>
                </g>
                <g id="+DC-Copy" transform="translate(298.000000, 164.000000)">
                    <rect id="Rectangle" stroke="#3D3530" stroke-width="2" fill="#F8FAE4" x="1" y="1" width="78" height="28" rx="5"></rect>
                    <path d="M23.5,15.608 L16.492,15.608 L16.492,14.552 L23.5,14.552 L23.5,15.608 Z M27.604,20 L27.604,19.496 C28.596005,19.496 29.2239987,19.3280017 29.488,18.992 C29.7520013,18.6559983 29.884,17.888006 29.884,16.688 L29.884,8.888 C29.884,7.687994 29.7520013,6.92400164 29.488,6.596 C29.2239987,6.26799836 28.596005,6.104 27.604,6.104 L27.604,5.6 L34.108,5.6 C36.7640133,5.6 38.7639933,6.27199328 40.108,7.616 C41.4520067,8.96000672 42.124,10.6879894 42.124,12.8 C42.124,14.9120106 41.4520067,16.6399933 40.108,17.984 C38.7639933,19.3280067 36.7640133,20 34.108,20 L27.604,20 Z M31.804,6.488 L31.804,16.328 C31.804,17.5440061 31.9319987,18.3119984 32.188,18.632 C32.4440013,18.9520016 33.0599951,19.112 34.036,19.112 L34.132,19.112 C35.2360055,19.112 36.183996,18.9200019 36.976,18.536 C37.768004,18.1519981 38.359998,17.6360032 38.752,16.988 C39.144002,16.3399968 39.4199992,15.6760034 39.58,14.996 C39.7400008,14.3159966 39.82,13.5840039 39.82,12.8 C39.82,12.0159961 39.7400008,11.2840034 39.58,10.604 C39.4199992,9.9239966 39.144002,9.26000324 38.752,8.612 C38.359998,7.96399676 37.768004,7.44800192 36.976,7.064 C36.183996,6.67999808 35.2360055,6.488 34.132,6.488 L31.804,6.488 Z M59.836,19.736 L59.356,19.736 C59.2279994,19.1119969 58.9560021,18.6560014 58.54,18.368 C57.2279934,19.7280068 55.7400083,20.408 54.076,20.408 C52.0439898,20.408 50.3080072,19.6640074 48.868,18.176 C47.4279928,16.6879926 46.708,14.8960105 46.708,12.8 C46.708,10.7039895 47.4279928,8.91200744 48.868,7.424 C50.3080072,5.93599256 52.0439898,5.192 54.076,5.192 C55.7720085,5.192 57.2599936,5.8719932 58.54,7.232 C58.9720022,6.89599832 59.2439994,6.44000288 59.356,5.864 L59.836,5.864 L59.836,11.144 L59.356,11.144 C59.0199983,9.55999208 58.4000045,8.3280044 57.496,7.448 C56.5919955,6.5679956 55.4840066,6.128 54.172,6.128 C53.2599954,6.128 52.4520035,6.33199796 51.748,6.74 C51.0439965,7.14800204 50.496002,7.68799664 50.104,8.36 C49.711998,9.03200336 49.420001,9.74399624 49.228,10.496 C49.035999,11.2480038 48.94,12.0159961 48.94,12.8 C48.94,13.5840039 49.035999,14.3519962 49.228,15.104 C49.420001,15.8560038 49.711998,16.5639967 50.104,17.228 C50.496002,17.8920033 51.0439965,18.427998 51.748,18.836 C52.4520035,19.244002 53.2599954,19.448 54.172,19.448 C55.4840066,19.448 56.5919955,19.0040044 57.496,18.116 C58.4000045,17.2279956 59.0199983,16.0080078 59.356,14.456 L59.836,14.456 L59.836,19.736 Z" id="-DC-Copy" fill="#1A80AA"></path>
                </g>
            </g>
            <g id="Wiring" transform="translate(40.000000, 15.000000)">
                <circle id="Connection" fill="#3D3530" cx="185" cy="36" r="5"></circle>
                <circle id="Connection-Copy-2" fill="#3D3530" cx="137" cy="83" r="5"></circle>
                <circle id="Connection-Copy-3" fill="#3D3530" cx="233" cy="83" r="5"></circle>
                <circle id="Connection-Copy" fill="#3D3530" cx="185" cy="130" r="5"></circle>
                <polyline id="Path-5-Copy-2" stroke="#3D3530" stroke-width="2" points="184.848 32 185 0.5 329.544 0.5"></polyline>
                <polyline id="Path-11" stroke="#3D3530" stroke-width="2" points="0 115 0 83 132.728 83"></polyline>
                <polyline id="Path" stroke="#3D3530" stroke-width="2" points="238 83 265 83 265 225 0 225 0 195"></polyline>
            </g>
            <g id="AC" transform="translate(0.000000, 129.000000)">
                <g id="AC_Power" stroke="#3D3530" stroke-width="3">
                    <circle id="Oval" cx="40" cy="40" r="40"></circle>
                    <path d="M17.3730469,40.2825859 C21.1573117,29.760862 24.9279491,24.5 28.6849589,24.5 C31.398915,24.5 34.0639684,27.2452248 36.6801192,32.7356743 C37.3504286,34.1424357 38.3486694,36.6580729 39.6748414,40.2825859 C43.6192824,51.2294893 47.4700078,56.702941 51.2270175,56.702941 C54.9840273,56.702941 58.7410371,51.2294893 62.4980469,40.2825859" id="Path-2"></path>
                </g>
                <path d="M88.98,41.144 C89.0120002,42.2480055 89.1359989,43.1799962 89.352,43.94 C89.5680011,44.7000038 89.8359984,45.2439984 90.156,45.572 C90.4760016,45.9000016 90.7719986,46.1279994 91.044,46.256 C91.3160014,46.3840006 91.5879986,46.448 91.86,46.448 C92.8360049,46.448 93.5559977,46.1040034 94.02,45.416 C94.4840023,44.7279966 94.716,43.880005 94.716,42.872 C94.716,41.8959951 94.4840023,41.0680034 94.02,40.388 C93.5559977,39.7079966 92.8360049,39.368 91.86,39.368 C91.1559965,39.368 90.5360027,39.5359983 90,39.872 C89.4639973,40.2080017 89.1240007,40.6319974 88.98,41.144 Z M89.004,39.824 C89.6920034,38.8799953 90.6439939,38.408 91.86,38.408 C93.1880066,38.408 94.3279952,38.8479956 95.28,39.728 C96.2320048,40.6080044 96.708,41.6639938 96.708,42.896 C96.708,44.1280062 96.2320048,45.1879956 95.28,46.076 C94.3279952,46.9640044 93.1880066,47.408 91.86,47.408 C91.459998,47.408 91.060002,47.3560005 90.66,47.252 C90.259998,47.1479995 89.8320023,46.9400016 89.376,46.628 C88.9199977,46.3159984 88.5240017,45.9160024 88.188,45.428 C87.8519983,44.9399976 87.5720011,44.2840041 87.348,43.46 C87.1239989,42.6359959 87.012,41.6880054 87.012,40.616 C87.012,39.1919929 87.207998,37.8520063 87.6,36.596 C87.992002,35.3399937 88.6159957,34.2800043 89.472,33.416 C90.3280043,32.5519957 91.3479941,32.12 92.532,32.12 C93.4760047,32.12 94.2999965,32.319998 95.004,32.72 C95.7080035,33.120002 96.06,33.5279979 96.06,33.944 C96.06,34.136001 95.9880007,34.2879994 95.844,34.4 C95.6999993,34.5120006 95.5560007,34.568 95.412,34.568 C95.219999,34.568 95.0080012,34.4280014 94.776,34.148 C94.5439988,33.8679986 94.2400019,33.5880014 93.864,33.308 C93.4879981,33.0279986 93.0440026,32.888 92.532,32.888 C90.3719892,32.888 89.196001,35.1999769 89.004,39.824 Z M102.444,37.856 C103.548006,36.7519945 104.867992,36.2 106.404,36.2 C107.940008,36.2 109.255995,36.7479945 110.352,37.844 C111.448005,38.9400055 111.996,40.2559923 111.996,41.792 C111.996,43.3440078 111.448005,44.6679945 110.352,45.764 C109.255995,46.8600055 107.940008,47.408 106.404,47.408 C104.867992,47.408 103.552005,46.8600055 102.456,45.764 C101.359995,44.6679945 100.812,43.3440078 100.812,41.792 C100.812,40.2559923 101.355995,38.9440054 102.444,37.856 Z M106.404,37.568 C105.283994,37.568 104.328004,37.9839958 103.536,38.816 C102.743996,39.6480042 102.348,40.6399942 102.348,41.792 C102.348,42.9600058 102.743996,43.9559959 103.536,44.78 C104.328004,45.6040041 105.283994,46.016 106.404,46.016 C107.508006,46.016 108.459996,45.6040041 109.26,44.78 C110.060004,43.9559959 110.46,42.9600058 110.46,41.792 C110.46,40.6399942 110.060004,39.6480042 109.26,38.816 C108.459996,37.9839958 107.508006,37.568 106.404,37.568 Z M119.82,39.8 L119.82,43.688 C119.82,44.888006 119.951999,45.6559983 120.216,45.992 C120.480001,46.3280017 121.107995,46.496 122.1,46.496 L122.1,47 L115.62,47 L115.62,46.496 C116.612005,46.496 117.239999,46.3280017 117.504,45.992 C117.768001,45.6559983 117.9,44.888006 117.9,43.688 L117.9,35.888 C117.9,34.687994 117.768001,33.9240016 117.504,33.596 C117.239999,33.2679984 116.612005,33.104 115.62,33.104 L115.62,32.6 L122.1,32.6 L122.1,33.104 C121.107995,33.104 120.480001,33.2679984 120.216,33.596 C119.951999,33.9240016 119.82,34.687994 119.82,35.888 L119.82,38.912 L127.98,38.912 L127.98,35.888 C127.98,34.687994 127.844001,33.9240016 127.572,33.596 C127.299999,33.2679984 126.668005,33.104 125.676,33.104 L125.676,32.6 L132.18,32.6 L132.18,33.104 C131.171995,33.104 130.536001,33.2679984 130.272,33.596 C130.007999,33.9240016 129.876,34.687994 129.876,35.888 L129.876,43.688 C129.876,44.9040061 130.007999,45.6759984 130.272,46.004 C130.536001,46.3320016 131.171995,46.496 132.18,46.496 L132.18,47 L125.676,47 L125.676,46.496 C126.668005,46.496 127.299999,46.3280017 127.572,45.992 C127.844001,45.6559983 127.98,44.888006 127.98,43.688 L127.98,39.8 L119.82,39.8 Z M142.044,39.008 L142.044,39.392 L137.46,46.232 L138.924,46.232 C139.964005,46.232 140.651998,46.132001 140.988,45.932 C141.324002,45.731999 141.555999,45.3600027 141.684,44.816 L141.804,44.336 L142.308,44.336 L142.14,47 L135.18,47 L135.18,46.592 L139.74,39.752 L138.612,39.752 C137.571995,39.752 136.884002,39.851999 136.548,40.052 C136.211998,40.252001 135.980001,40.6239973 135.852,41.168 L135.732,41.648 L135.228,41.648 L135.42,39.008 L142.044,39.008 Z" id="60Hz-Copy" fill="#524740"></path>
            </g>
            <g id="Diodes" transform="translate(167.000000, 40.000000)">
                <g id="Diode" transform="translate(34.000000, 34.000000) rotate(-45.000000) translate(-34.000000, -34.000000) translate(-1.000000, 21.000000)">
                    <polygon id="Path-2" fill="#3D3530" points="24.5 0 44 13 24.5 26"></polygon>
                    <path d="M44,13 L70,13" id="Path-2-Copy" stroke="#3D3530" stroke-width="3"></path>
                    <path d="M44,7.10542736e-15 L44,26" id="Path-4-Copy" stroke="#3D3530" stroke-width="3"></path>
                    <path d="M0,13 L24.5,13" id="Path-3" stroke="#3D3530" stroke-width="3"></path>
                </g>
                <g id="Diode-Copy" transform="translate(82.000000, 34.000000) rotate(-135.000000) translate(-82.000000, -34.000000) translate(47.000000, 21.000000)">
                    <polygon id="Path-2" fill="#3D3530" points="24.5 0 44 13 24.5 26"></polygon>
                    <path d="M44,13 L70,13" id="Path-2-Copy" stroke="#3D3530" stroke-width="3"></path>
                    <path d="M44,7.10542736e-15 L44,26" id="Path-4-Copy" stroke="#3D3530" stroke-width="3"></path>
                    <path d="M0,13 L24.5,13" id="Path-3" stroke="#3D3530" stroke-width="3"></path>
                </g>
                <g id="Diode-Copy-3" transform="translate(34.000000, 82.000000) rotate(-315.000000) translate(-34.000000, -82.000000) translate(-1.000000, 69.000000)">
                    <polygon id="Path-2" fill="#3D3530" points="24.5 0 44 13 24.5 26"></polygon>
                    <path d="M44,13 L70,13" id="Path-2-Copy" stroke="#3D3530" stroke-width="3"></path>
                    <path d="M44,7.10542736e-15 L44,26" id="Path-4-Copy" stroke="#3D3530" stroke-width="3"></path>
                    <path d="M0,13 L24.5,13" id="Path-3" stroke="#3D3530" stroke-width="3"></path>
                </g>
                <g id="Diode-Copy-2" transform="translate(82.000000, 82.000000) rotate(-225.000000) translate(-82.000000, -82.000000) translate(47.000000, 69.000000)">
                    <polygon id="Path-2" fill="#3D3530" points="24.5 0 44 13 24.5 26"></polygon>
                    <path d="M44,13 L70,13" id="Path-2-Copy" stroke="#3D3530" stroke-width="3"></path>
                    <path d="M44,7.10542736e-15 L44,26" id="Path-4-Copy" stroke="#3D3530" stroke-width="3"></path>
                    <path d="M0,13 L24.5,13" id="Path-3" stroke="#3D3530" stroke-width="3"></path>
                </g>
            </g>
            <polyline id="Path-4" stroke="#3D3530" stroke-width="2" points="370 180 225 180 225 149"></polyline>
        </g>
        <path d="M382.336,339 L379.24,331.44 L367.936,331.44 L364.84,339 L362.356,339 L372.436,314.808 L374.704,314.808 L384.784,339 L382.336,339 Z M368.908,329.064 L378.268,329.064 L373.588,317.58 L368.908,329.064 Z M397.88,339.288 C394.327982,339.288 391.496011,338.106012 389.384,335.742 C387.271989,333.377988 386.216,330.444018 386.216,326.94 C386.216,323.411982 387.271989,320.466012 389.384,318.102 C391.496011,315.737988 394.327982,314.556 397.88,314.556 C400.232012,314.556 402.277991,315.095995 404.018,316.176 C405.758009,317.256005 407.107995,318.731991 408.068,320.604 L405.836,321.9 C405.067996,320.339992 403.994007,319.104005 402.614,318.192 C401.233993,317.279995 399.656009,316.824 397.88,316.824 C395.143986,316.824 392.954008,317.77799 391.31,319.686 C389.665992,321.59401 388.844,324.011985 388.844,326.94 C388.844,329.844015 389.665992,332.25599 391.31,334.176 C392.954008,336.09601 395.143986,337.056 397.88,337.056 C399.680009,337.056 401.269993,336.594005 402.65,335.67 C404.030007,334.745995 405.091996,333.504008 405.836,331.944 L408.068,333.276 C407.107995,335.148009 405.758009,336.617995 404.018,337.686 C402.277991,338.754005 400.232012,339.288 397.88,339.288 Z M434.116,334.968 L435.304,336.804 C435.159999,336.996001 434.968001,337.223999 434.728,337.488 C434.487999,337.752001 433.948004,338.117998 433.108,338.586 C432.267996,339.054002 431.404004,339.288 430.516,339.288 C429.003992,339.288 427.738005,338.838005 426.718,337.938 C425.697995,337.037996 425.188,335.736009 425.188,334.032 L425.188,323.16 L422.308,323.16 L422.308,320.964 L425.188,320.964 L425.188,315.276 L427.564,314.988 L427.564,320.964 L433,320.964 L433,323.16 L427.564,323.16 L427.564,333.492 C427.564,334.596006 427.905997,335.471997 428.59,336.12 C429.274003,336.768003 430.059996,337.092 430.948,337.092 C431.500003,337.092 432.039997,336.924002 432.568,336.588 C433.096003,336.251998 433.485999,335.922002 433.738,335.598 C433.990001,335.273998 434.116,335.064 434.116,334.968 Z M453.332,336.552 C451.531991,338.376009 449.348013,339.288 446.78,339.288 C444.211987,339.288 442.022009,338.382009 440.21,336.57 C438.397991,334.757991 437.492,332.568013 437.492,330 C437.492,327.431987 438.397991,325.242009 440.21,323.43 C442.022009,321.617991 444.211987,320.712 446.78,320.712 C449.348013,320.712 451.537991,321.617991 453.35,323.43 C455.162009,325.242009 456.068,327.431987 456.068,330 C456.068,332.544013 455.156009,334.727991 453.332,336.552 Z M446.816,337.02 C448.76001,337.02 450.397993,336.342007 451.73,334.986 C453.062007,333.629993 453.728,331.96801 453.728,330 C453.728,328.03199 453.062007,326.364007 451.73,324.996 C450.397993,323.627993 448.76001,322.944 446.816,322.944 C444.89599,322.944 443.264007,323.627993 441.92,324.996 C440.575993,326.364007 439.904,328.03199 439.904,330 C439.904,331.96801 440.575993,333.629993 441.92,334.986 C443.264007,336.342007 444.89599,337.02 446.816,337.02 Z M472.108,339 L472.108,314.808 L477.58,314.808 C481.56402,314.808 484.731988,315.959988 487.084,318.264 C489.436012,320.568012 490.612,323.447983 490.612,326.904 C490.612,330.336017 489.430012,333.209988 487.066,335.526 C484.701988,337.842012 481.54002,339 477.58,339 L472.108,339 Z M474.484,336.732 L477.58,336.732 C480.748016,336.732 483.279991,335.802009 485.176,333.942 C487.072009,332.081991 488.02,329.736014 488.02,326.904 C488.02,324.071986 487.072009,321.726009 485.176,319.866 C483.279991,318.005991 480.748016,317.076 477.58,317.076 L474.484,317.076 L474.484,336.732 Z M506.444,339.288 C502.891982,339.288 500.060011,338.106012 497.948,335.742 C495.835989,333.377988 494.78,330.444018 494.78,326.94 C494.78,323.411982 495.835989,320.466012 497.948,318.102 C500.060011,315.737988 502.891982,314.556 506.444,314.556 C508.796012,314.556 510.841991,315.095995 512.582,316.176 C514.322009,317.256005 515.671995,318.731991 516.632,320.604 L514.4,321.9 C513.631996,320.339992 512.558007,319.104005 511.178,318.192 C509.797993,317.279995 508.220009,316.824 506.444,316.824 C503.707986,316.824 501.518008,317.77799 499.874,319.686 C498.229992,321.59401 497.408,324.011985 497.408,326.94 C497.408,329.844015 498.229992,332.25599 499.874,334.176 C501.518008,336.09601 503.707986,337.056 506.444,337.056 C508.244009,337.056 509.833993,336.594005 511.214,335.67 C512.594007,334.745995 513.655996,333.504008 514.4,331.944 L516.632,333.276 C515.671995,335.148009 514.322009,336.617995 512.582,337.686 C510.841991,338.754005 508.796012,339.288 506.444,339.288 Z M532.708,339 L532.708,314.808 L540.916,314.808 C543.628014,314.808 545.787992,315.521993 547.396,316.95 C549.004008,318.378007 549.808,320.171989 549.808,322.332 C549.808,323.940008 549.334005,325.367994 548.386,326.616 C547.437995,327.864006 546.112009,328.751997 544.408,329.28 L549.808,339 L547.324,339 L542.176,329.784 L540.7,329.856 L535.084,329.856 L535.084,339 L532.708,339 Z M535.084,327.588 L540.916,327.588 C542.86001,327.588 544.419994,327.090005 545.596,326.094 C546.772006,325.097995 547.36,323.844008 547.36,322.332 C547.36,320.843993 546.772006,319.596005 545.596,318.588 C544.419994,317.579995 542.86001,317.076 540.916,317.076 L535.084,317.076 L535.084,327.588 Z M562.472,336.912 C564.080008,336.912 565.519994,336.456005 566.792,335.544 C568.064006,334.631995 568.927998,333.564006 569.384,332.34 L571.4,333.06 C570.847997,334.572008 569.774008,335.963994 568.178,337.236 C566.581992,338.508006 564.680011,339.132 562.472,339.108 C560.45599,339.108 558.614008,338.484006 556.946,337.236 C555.277992,335.987994 554.144003,334.39201 553.544,332.448 C553.303999,331.655996 553.184,330.792005 553.184,329.856 C553.184,327.263987 554.083991,325.068009 555.884,323.268 C557.684009,321.467991 559.879987,320.556 562.472,320.532 C564.824012,320.556 566.875991,321.347992 568.628,322.908 C570.380009,324.468008 571.387999,326.399988 571.652,328.704 C571.676,328.824001 571.688,328.979999 571.688,329.172 L555.956,332.016 C556.364002,333.456007 557.179994,334.637995 558.404,335.562 C559.628006,336.486005 560.983993,336.936 562.472,336.912 Z M562.256,322.728 C560.455991,322.752 558.914006,323.399994 557.63,324.672 C556.345994,325.944006 555.656,327.467991 555.56,329.244 C555.56,329.316 555.566,329.441999 555.578,329.622 C555.59,329.802001 555.596,329.951999 555.596,330.072 L568.988,327.66 C568.531998,326.195993 567.680006,325.002005 566.432,324.078 C565.183994,323.153995 563.792008,322.704 562.256,322.728 Z M584.964,339.288 C582.395987,339.288 580.206009,338.382009 578.394,336.57 C576.581991,334.757991 575.676,332.568013 575.676,330 C575.676,327.431987 576.581991,325.242009 578.394,323.43 C580.206009,321.617991 582.395987,320.712 584.964,320.712 C586.596008,320.712 588.113993,321.113996 589.518,321.918 C590.922007,322.722004 592.031996,323.795993 592.848,325.14 L590.688,326.184 C590.039997,325.199995 589.212005,324.420003 588.204,323.844 C587.195995,323.267997 586.116006,322.98 584.964,322.98 C583.01999,322.98 581.382007,323.657993 580.05,325.014 C578.717993,326.370007 578.052,328.03199 578.052,330 C578.052,331.96801 578.717993,333.629993 580.05,334.986 C581.382007,336.342007 583.01999,337.02 584.964,337.02 C586.116006,337.02 587.195995,336.732003 588.204,336.156 C589.212005,335.579997 590.039997,334.800005 590.688,333.816 L592.848,334.86 C592.031996,336.204007 590.922007,337.277996 589.518,338.082 C588.113993,338.886004 586.596008,339.288 584.964,339.288 Z M608.14,334.968 L609.328,336.804 C609.183999,336.996001 608.992001,337.223999 608.752,337.488 C608.511999,337.752001 607.972004,338.117998 607.132,338.586 C606.291996,339.054002 605.428004,339.288 604.54,339.288 C603.027992,339.288 601.762005,338.838005 600.742,337.938 C599.721995,337.037996 599.212,335.736009 599.212,334.032 L599.212,323.16 L596.332,323.16 L596.332,320.964 L599.212,320.964 L599.212,315.276 L601.588,314.988 L601.588,320.964 L607.024,320.964 L607.024,323.16 L601.588,323.16 L601.588,333.492 C601.588,334.596006 601.929997,335.471997 602.614,336.12 C603.298003,336.768003 604.083996,337.092 604.972,337.092 C605.524003,337.092 606.063997,336.924002 606.592,336.588 C607.120003,336.251998 607.509999,335.922002 607.762,335.598 C608.014001,335.273998 608.14,335.064 608.14,334.968 Z M615.98,315.6 C615.715999,315.888001 615.380002,316.032 614.972,316.032 C614.563998,316.032 614.222001,315.888001 613.946,315.6 C613.669999,315.311999 613.532,314.976002 613.532,314.592 C613.532,314.207998 613.669999,313.872001 613.946,313.584 C614.222001,313.295999 614.563998,313.152 614.972,313.152 C615.380002,313.152 615.721999,313.295999 615.998,313.584 C616.274001,313.872001 616.412,314.207998 616.412,314.592 C616.412,314.976002 616.268001,315.311999 615.98,315.6 Z M613.784,339 L613.784,321 L616.16,321 L616.16,339 L613.784,339 Z M629.364,320.928 L629.364,322.908 L625.836,322.908 L625.836,339 L623.496,339 L623.496,322.908 L621.372,322.908 L621.372,320.928 L623.496,320.928 L623.496,315.708 C623.496,313.211988 624.47999,311.964 626.448,311.964 C626.880002,311.964 627.317998,312 627.762,312.072 C628.206002,312.144 628.535999,312.216 628.752,312.288 L629.076,312.396 L628.572,314.232 C628.091998,314.111999 627.612002,314.052 627.132,314.052 C626.603997,314.052 626.256001,314.225998 626.088,314.574 C625.919999,314.922002 625.836,315.587995 625.836,316.572 L625.836,320.928 L629.364,320.928 Z M636.412,315.6 C636.147999,315.888001 635.812002,316.032 635.404,316.032 C634.995998,316.032 634.654001,315.888001 634.378,315.6 C634.101999,315.311999 633.964,314.976002 633.964,314.592 C633.964,314.207998 634.101999,313.872001 634.378,313.584 C634.654001,313.295999 634.995998,313.152 635.404,313.152 C635.812002,313.152 636.153999,313.295999 636.43,313.584 C636.706001,313.872001 636.844,314.207998 636.844,314.592 C636.844,314.976002 636.700001,315.311999 636.412,315.6 Z M634.216,339 L634.216,321 L636.592,321 L636.592,339 L634.216,339 Z M651.092,339.288 C648.523987,339.288 646.334009,338.382009 644.522,336.57 C642.709991,334.757991 641.804,332.568013 641.804,330 C641.804,327.431987 642.709991,325.242009 644.522,323.43 C646.334009,321.617991 648.523987,320.712 651.092,320.712 C652.724008,320.712 654.241993,321.113996 655.646,321.918 C657.050007,322.722004 658.159996,323.795993 658.976,325.14 L656.816,326.184 C656.167997,325.199995 655.340005,324.420003 654.332,323.844 C653.323995,323.267997 652.244006,322.98 651.092,322.98 C649.14799,322.98 647.510007,323.657993 646.178,325.014 C644.845993,326.370007 644.18,328.03199 644.18,330 C644.18,331.96801 644.845993,333.629993 646.178,334.986 C647.510007,336.342007 649.14799,337.02 651.092,337.02 C652.244006,337.02 653.323995,336.732003 654.332,336.156 C655.340005,335.579997 656.167997,334.800005 656.816,333.816 L658.976,334.86 C658.159996,336.204007 657.050007,337.277996 655.646,338.082 C654.241993,338.886004 652.724008,339.288 651.092,339.288 Z M678.84,321 L681.216,321 L681.216,339 L678.84,339 L678.84,336.084 C676.991991,338.220011 674.652014,339.288 671.82,339.288 C669.251987,339.288 667.062009,338.382009 665.25,336.57 C663.437991,334.757991 662.532,332.568013 662.532,330 C662.532,327.431987 663.437991,325.242009 665.25,323.43 C667.062009,321.617991 669.251987,320.712 671.82,320.712 C674.676014,320.712 677.015991,321.779989 678.84,323.916 L678.84,321 Z M671.856,337.02 C673.80001,337.02 675.437993,336.342007 676.77,334.986 C678.102007,333.629993 678.768,331.96801 678.768,330 C678.768,328.03199 678.102007,326.370007 676.77,325.014 C675.437993,323.657993 673.80001,322.98 671.856,322.98 C669.93599,322.98 668.298007,323.657993 666.942,325.014 C665.585993,326.370007 664.908,328.03199 664.908,330 C664.908,331.96801 665.585993,333.629993 666.942,334.986 C668.298007,336.342007 669.93599,337.02 671.856,337.02 Z M696.94,334.968 L698.128,336.804 C697.983999,336.996001 697.792001,337.223999 697.552,337.488 C697.311999,337.752001 696.772004,338.117998 695.932,338.586 C695.091996,339.054002 694.228004,339.288 693.34,339.288 C691.827992,339.288 690.562005,338.838005 689.542,337.938 C688.521995,337.037996 688.012,335.736009 688.012,334.032 L688.012,323.16 L685.132,323.16 L685.132,320.964 L688.012,320.964 L688.012,315.276 L690.388,314.988 L690.388,320.964 L695.824,320.964 L695.824,323.16 L690.388,323.16 L690.388,333.492 C690.388,334.596006 690.729997,335.471997 691.414,336.12 C692.098003,336.768003 692.883996,337.092 693.772,337.092 C694.324003,337.092 694.863997,336.924002 695.392,336.588 C695.920003,336.251998 696.309999,335.922002 696.562,335.598 C696.814001,335.273998 696.94,335.064 696.94,334.968 Z M704.78,315.6 C704.515999,315.888001 704.180002,316.032 703.772,316.032 C703.363998,316.032 703.022001,315.888001 702.746,315.6 C702.469999,315.311999 702.332,314.976002 702.332,314.592 C702.332,314.207998 702.469999,313.872001 702.746,313.584 C703.022001,313.295999 703.363998,313.152 703.772,313.152 C704.180002,313.152 704.521999,313.295999 704.798,313.584 C705.074001,313.872001 705.212,314.207998 705.212,314.592 C705.212,314.976002 705.068001,315.311999 704.78,315.6 Z M702.584,339 L702.584,321 L704.96,321 L704.96,339 L702.584,339 Z M726.012,336.552 C724.211991,338.376009 722.028013,339.288 719.46,339.288 C716.891987,339.288 714.702009,338.382009 712.89,336.57 C711.077991,334.757991 710.172,332.568013 710.172,330 C710.172,327.431987 711.077991,325.242009 712.89,323.43 C714.702009,321.617991 716.891987,320.712 719.46,320.712 C722.028013,320.712 724.217991,321.617991 726.03,323.43 C727.842009,325.242009 728.748,327.431987 728.748,330 C728.748,332.544013 727.836009,334.727991 726.012,336.552 Z M719.496,337.02 C721.44001,337.02 723.077993,336.342007 724.41,334.986 C725.742007,333.629993 726.408,331.96801 726.408,330 C726.408,328.03199 725.742007,326.364007 724.41,324.996 C723.077993,323.627993 721.44001,322.944 719.496,322.944 C717.57599,322.944 715.944007,323.627993 714.6,324.996 C713.255993,326.364007 712.584,328.03199 712.584,330 C712.584,331.96801 713.255993,333.629993 714.6,334.986 C715.944007,336.342007 717.57599,337.02 719.496,337.02 Z M741.448,320.712 C743.53601,320.712 745.287993,321.449993 746.704,322.926 C748.120007,324.402007 748.828,326.219989 748.828,328.38 L748.828,339 L746.416,339 L746.416,328.452 C746.416,326.915992 745.894005,325.608005 744.85,324.528 C743.805995,323.447995 742.540007,322.908 741.052,322.908 C739.563993,322.908 738.298005,323.447995 737.254,324.528 C736.209995,325.608005 735.688,326.915992 735.688,328.452 L735.688,339 L733.312,339 L733.312,321 L735.688,321 L735.688,323.664 C737.152007,321.69599 739.071988,320.712 741.448,320.712 Z M776.28,339.288 C772.727982,339.288 769.896011,338.106012 767.784,335.742 C765.671989,333.377988 764.616,330.444018 764.616,326.94 C764.616,323.411982 765.671989,320.466012 767.784,318.102 C769.896011,315.737988 772.727982,314.556 776.28,314.556 C778.632012,314.556 780.677991,315.095995 782.418,316.176 C784.158009,317.256005 785.507995,318.731991 786.468,320.604 L784.236,321.9 C783.467996,320.339992 782.394007,319.104005 781.014,318.192 C779.633993,317.279995 778.056009,316.824 776.28,316.824 C773.543986,316.824 771.354008,317.77799 769.71,319.686 C768.065992,321.59401 767.244,324.011985 767.244,326.94 C767.244,329.844015 768.065992,332.25599 769.71,334.176 C771.354008,336.09601 773.543986,337.056 776.28,337.056 C778.080009,337.056 779.669993,336.594005 781.05,335.67 C782.430007,334.745995 783.491996,333.504008 784.236,331.944 L786.468,333.276 C785.507995,335.148009 784.158009,336.617995 782.418,337.686 C780.677991,338.754005 778.632012,339.288 776.28,339.288 Z M794.236,315.6 C793.971999,315.888001 793.636002,316.032 793.228,316.032 C792.819998,316.032 792.478001,315.888001 792.202,315.6 C791.925999,315.311999 791.788,314.976002 791.788,314.592 C791.788,314.207998 791.925999,313.872001 792.202,313.584 C792.478001,313.295999 792.819998,313.152 793.228,313.152 C793.636002,313.152 793.977999,313.295999 794.254,313.584 C794.530001,313.872001 794.668,314.207998 794.668,314.592 C794.668,314.976002 794.524001,315.311999 794.236,315.6 Z M792.04,339 L792.04,321 L794.416,321 L794.416,339 L792.04,339 Z M809.06,320.712 C810.332006,320.712 811.495995,321.023997 812.552,321.648 L811.724,324.024 C810.715995,323.279996 809.696005,322.908 808.664,322.908 C807.151992,322.908 805.880005,323.441995 804.848,324.51 C803.815995,325.578005 803.3,326.891992 803.3,328.452 L803.3,339 L800.924,339 L800.924,321 L803.3,321 L803.3,323.664 C804.764007,321.69599 806.683988,320.712 809.06,320.712 Z M823.524,339.288 C820.955987,339.288 818.766009,338.382009 816.954,336.57 C815.141991,334.757991 814.236,332.568013 814.236,330 C814.236,327.431987 815.141991,325.242009 816.954,323.43 C818.766009,321.617991 820.955987,320.712 823.524,320.712 C825.156008,320.712 826.673993,321.113996 828.078,321.918 C829.482007,322.722004 830.591996,323.795993 831.408,325.14 L829.248,326.184 C828.599997,325.199995 827.772005,324.420003 826.764,323.844 C825.755995,323.267997 824.676006,322.98 823.524,322.98 C821.57999,322.98 819.942007,323.657993 818.61,325.014 C817.277993,326.370007 816.612,328.03199 816.612,330 C816.612,331.96801 817.277993,333.629993 818.61,334.986 C819.942007,336.342007 821.57999,337.02 823.524,337.02 C824.676006,337.02 825.755995,336.732003 826.764,336.156 C827.772005,335.579997 828.599997,334.800005 829.248,333.816 L831.408,334.86 C830.591996,336.204007 829.482007,337.277996 828.078,338.082 C826.673993,338.886004 825.156008,339.288 823.524,339.288 Z M849.472,321 L851.848,321 L851.848,339 L849.472,339 L849.472,336.336 C848.007993,338.30401 846.088012,339.288 843.712,339.288 C841.62399,339.288 839.872007,338.550007 838.456,337.074 C837.039993,335.597993 836.332,333.780011 836.332,331.62 L836.332,321 L838.78,321 L838.78,331.548 C838.78,333.084008 839.295995,334.385995 840.328,335.454 C841.360005,336.522005 842.619993,337.056 844.108,337.056 C845.620008,337.056 846.891995,336.522005 847.924,335.454 C848.956005,334.385995 849.472,333.084008 849.472,331.548 L849.472,321 Z M860.552,315.6 C860.287999,315.888001 859.952002,316.032 859.544,316.032 C859.135998,316.032 858.794001,315.888001 858.518,315.6 C858.241999,315.311999 858.104,314.976002 858.104,314.592 C858.104,314.207998 858.241999,313.872001 858.518,313.584 C858.794001,313.295999 859.135998,313.152 859.544,313.152 C859.952002,313.152 860.293999,313.295999 860.57,313.584 C860.846001,313.872001 860.984,314.207998 860.984,314.592 C860.984,314.976002 860.840001,315.311999 860.552,315.6 Z M858.356,339 L858.356,321 L860.732,321 L860.732,339 L858.356,339 Z M876.456,334.968 L877.644,336.804 C877.499999,336.996001 877.308001,337.223999 877.068,337.488 C876.827999,337.752001 876.288004,338.117998 875.448,338.586 C874.607996,339.054002 873.744004,339.288 872.856,339.288 C871.343992,339.288 870.078005,338.838005 869.058,337.938 C868.037995,337.037996 867.528,335.736009 867.528,334.032 L867.528,323.16 L864.648,323.16 L864.648,320.964 L867.528,320.964 L867.528,315.276 L869.904,314.988 L869.904,320.964 L875.34,320.964 L875.34,323.16 L869.904,323.16 L869.904,333.492 C869.904,334.596006 870.245997,335.471997 870.93,336.12 C871.614003,336.768003 872.399996,337.092 873.288,337.092 C873.840003,337.092 874.379997,336.924002 874.908,336.588 C875.436003,336.251998 875.825999,335.922002 876.078,335.598 C876.330001,335.273998 876.456,335.064 876.456,334.968 Z" id="AC-to-DC-Rectificati-Copy" fill="#23ABE3"></path>
    </g>
</svg>