<?xml version="1.0" encoding="UTF-8"?>
<svg width="900px" height="340px" viewBox="0 0 900 340" version="1.1" xmlns="http://www.w3.org/2000/svg" xmlns:xlink="http://www.w3.org/1999/xlink">
    <!-- Generator: Sketch 52.5 (67469) - http://www.bohemiancoding.com/sketch -->
    <title>Rectification_Transform</title>
    <desc>Created with Sketch.</desc>
    <g id="Rectification_Transform" stroke="none" stroke-width="1" fill="none" fill-rule="evenodd">
        <rect id="Rectangle" stroke="#3D3530" stroke-width="2" fill="#EEEEEE" x="1" y="1" width="898" height="358"></rect>
        <rect id="Rectangle-Copy" stroke="#3D3530" stroke-width="2" fill="#F8FAE4" x="1" y="296" width="898" height="43"></rect>
        <g id="Illustration" transform="translate(18.000000, 38.000000)">
            <path d="M462.682666,287 L462.682666,270.872 L468.154666,270.872 C469.962675,270.872 471.40266,271.347995 472.474666,272.3 C473.546671,273.252005 474.082666,274.447993 474.082666,275.888 C474.082666,276.960005 473.766669,277.911996 473.134666,278.744 C472.502662,279.576004 471.618671,280.167998 470.482666,280.52 L474.082666,287 L472.426666,287 L468.994666,280.856 L468.010666,280.904 L464.266666,280.904 L464.266666,287 L462.682666,287 Z M464.266666,279.392 L468.154666,279.392 C469.450672,279.392 470.490662,279.060003 471.274666,278.396 C472.05867,277.731997 472.450666,276.896005 472.450666,275.888 C472.450666,274.895995 472.05867,274.064003 471.274666,273.392 C470.490662,272.719997 469.450672,272.384 468.154666,272.384 L464.266666,272.384 L464.266666,279.392 Z M482.525332,285.608 C483.597338,285.608 484.557328,285.304003 485.405332,284.696 C486.253337,284.087997 486.829331,283.376004 487.133332,282.56 L488.477332,283.04 C488.10933,284.048005 487.393338,284.975996 486.329332,285.824 C485.265327,286.672004 483.99734,287.088 482.525332,287.072 C481.181326,287.072 479.953338,286.656004 478.841332,285.824 C477.729327,284.991996 476.973334,283.928006 476.573332,282.632 C476.413331,282.103997 476.333332,281.528003 476.333332,280.904 C476.333332,279.175991 476.933326,277.712006 478.133332,276.512 C479.333338,275.311994 480.797324,274.704 482.525332,274.688 C484.09334,274.704 485.461326,275.231995 486.629332,276.272 C487.797338,277.312005 488.469331,278.599992 488.645332,280.136 C488.661332,280.216 488.669332,280.319999 488.669332,280.448 L478.181332,282.344 C478.453334,283.304005 478.997328,284.091997 479.813332,284.708 C480.629336,285.324003 481.533327,285.624 482.525332,285.608 Z M482.381332,276.152 C481.181326,276.168 480.153337,276.599996 479.297332,277.448 C478.441328,278.296004 477.981333,279.311994 477.917332,280.496 C477.917332,280.544 477.921332,280.627999 477.929332,280.748 C477.937332,280.868001 477.941332,280.968 477.941332,281.048 L486.869332,279.44 C486.565331,278.463995 485.997336,277.668003 485.165332,277.052 C484.333328,276.435997 483.405337,276.136 482.381332,276.152 Z M497.519999,287.192 C495.80799,287.192 494.348005,286.588006 493.139999,285.38 C491.931993,284.171994 491.327999,282.712009 491.327999,281 C491.327999,279.287991 491.931993,277.828006 493.139999,276.62 C494.348005,275.411994 495.80799,274.808 497.519999,274.808 C498.608004,274.808 499.619994,275.075997 500.555999,275.612 C501.492004,276.148003 502.231996,276.863996 502.775999,277.76 L501.335999,278.456 C500.903997,277.799997 500.352002,277.280002 499.679999,276.896 C499.007996,276.511998 498.288003,276.32 497.519999,276.32 C496.223993,276.32 495.132003,276.771995 494.243999,277.676 C493.355995,278.580005 492.911999,279.687993 492.911999,281 C492.911999,282.312007 493.355995,283.419995 494.243999,284.324 C495.132003,285.228005 496.223993,285.68 497.519999,285.68 C498.288003,285.68 499.007996,285.488002 499.679999,285.104 C500.352002,284.719998 500.903997,284.200003 501.335999,283.544 L502.775999,284.24 C502.231996,285.136004 501.492004,285.851997 500.555999,286.388 C499.619994,286.924003 498.608004,287.192 497.519999,287.192 Z M512.970666,284.312 L513.762666,285.536 C513.666665,285.664001 513.538666,285.815999 513.378666,285.992 C513.218665,286.168001 512.858668,286.411998 512.298666,286.724 C511.738663,287.036002 511.162669,287.192 510.570666,287.192 C509.562661,287.192 508.718669,286.892003 508.038666,286.292 C507.358662,285.691997 507.018666,284.824006 507.018666,283.688 L507.018666,276.44 L505.098666,276.44 L505.098666,274.976 L507.018666,274.976 L507.018666,271.184 L508.602666,270.992 L508.602666,274.976 L512.226666,274.976 L512.226666,276.44 L508.602666,276.44 L508.602666,283.328 C508.602666,284.064004 508.830663,284.647998 509.286666,285.08 C509.742668,285.512002 510.266663,285.728 510.858666,285.728 C511.226668,285.728 511.586664,285.616001 511.938666,285.392 C512.290667,285.167999 512.550665,284.948001 512.718666,284.732 C512.886667,284.515999 512.970666,284.376 512.970666,284.312 Z M518.197332,271.4 C518.021332,271.592001 517.797334,271.688 517.525332,271.688 C517.253331,271.688 517.025333,271.592001 516.841332,271.4 C516.657331,271.207999 516.565332,270.984001 516.565332,270.728 C516.565332,270.471999 516.657331,270.248001 516.841332,270.056 C517.025333,269.863999 517.253331,269.768 517.525332,269.768 C517.797334,269.768 518.025331,269.863999 518.209332,270.056 C518.393333,270.248001 518.485332,270.471999 518.485332,270.728 C518.485332,270.984001 518.389333,271.207999 518.197332,271.4 Z M516.733332,287 L516.733332,275 L518.317332,275 L518.317332,287 L516.733332,287 Z M527.119999,274.952 L527.119999,276.272 L524.767999,276.272 L524.767999,287 L523.207999,287 L523.207999,276.272 L521.791999,276.272 L521.791999,274.952 L523.207999,274.952 L523.207999,271.472 C523.207999,269.807992 523.863993,268.976 525.175999,268.976 C525.464001,268.976 525.755998,269 526.051999,269.048 C526.348001,269.096 526.567998,269.144 526.711999,269.192 L526.927999,269.264 L526.591999,270.488 C526.271997,270.408 525.952001,270.368 525.631999,270.368 C525.279997,270.368 525.048,270.483999 524.935999,270.716 C524.823999,270.948001 524.767999,271.391997 524.767999,272.048 L524.767999,274.952 L527.119999,274.952 Z M531.818666,271.4 C531.642665,271.592001 531.418667,271.688 531.146666,271.688 C530.874664,271.688 530.646667,271.592001 530.462666,271.4 C530.278665,271.207999 530.186666,270.984001 530.186666,270.728 C530.186666,270.471999 530.278665,270.248001 530.462666,270.056 C530.646667,269.863999 530.874664,269.768 531.146666,269.768 C531.418667,269.768 531.646665,269.863999 531.830666,270.056 C532.014667,270.248001 532.106666,270.471999 532.106666,270.728 C532.106666,270.984001 532.010667,271.207999 531.818666,271.4 Z M530.354666,287 L530.354666,275 L531.938666,275 L531.938666,287 L530.354666,287 Z M541.605332,287.192 C539.893324,287.192 538.433339,286.588006 537.225332,285.38 C536.017326,284.171994 535.413332,282.712009 535.413332,281 C535.413332,279.287991 536.017326,277.828006 537.225332,276.62 C538.433339,275.411994 539.893324,274.808 541.605332,274.808 C542.693338,274.808 543.705328,275.075997 544.641332,275.612 C545.577337,276.148003 546.31733,276.863996 546.861332,277.76 L545.421332,278.456 C544.98933,277.799997 544.437336,277.280002 543.765332,276.896 C543.093329,276.511998 542.373336,276.32 541.605332,276.32 C540.309326,276.32 539.217337,276.771995 538.329332,277.676 C537.441328,278.580005 536.997332,279.687993 536.997332,281 C536.997332,282.312007 537.441328,283.419995 538.329332,284.324 C539.217337,285.228005 540.309326,285.68 541.605332,285.68 C542.373336,285.68 543.093329,285.488002 543.765332,285.104 C544.437336,284.719998 544.98933,284.200003 545.421332,283.544 L546.861332,284.24 C546.31733,285.136004 545.577337,285.851997 544.641332,286.388 C543.705328,286.924003 542.693338,287.192 541.605332,287.192 Z M560.103999,275 L561.687999,275 L561.687999,287 L560.103999,287 L560.103999,285.056 C558.871993,286.480007 557.312009,287.192 555.423999,287.192 C553.711991,287.192 552.252005,286.588006 551.043999,285.38 C549.835993,284.171994 549.231999,282.712009 549.231999,281 C549.231999,279.287991 549.835993,277.828006 551.043999,276.62 C552.252005,275.411994 553.711991,274.808 555.423999,274.808 C557.328009,274.808 558.887993,275.519993 560.103999,276.944 L560.103999,275 Z M555.447999,285.68 C556.744006,285.68 557.835995,285.228005 558.723999,284.324 C559.612004,283.419995 560.055999,282.312007 560.055999,281 C560.055999,279.687993 559.612004,278.580005 558.723999,277.676 C557.835995,276.771995 556.744006,276.32 555.447999,276.32 C554.167993,276.32 553.076004,276.771995 552.171999,277.676 C551.267995,278.580005 550.815999,279.687993 550.815999,281 C550.815999,282.312007 551.267995,283.419995 552.171999,284.324 C553.076004,285.228005 554.167993,285.68 555.447999,285.68 Z M572.170666,284.312 L572.962666,285.536 C572.866665,285.664001 572.738667,285.815999 572.578666,285.992 C572.418665,286.168001 572.058669,286.411998 571.498666,286.724 C570.938663,287.036002 570.362669,287.192 569.770666,287.192 C568.762661,287.192 567.918669,286.892003 567.238666,286.292 C566.558662,285.691997 566.218666,284.824006 566.218666,283.688 L566.218666,276.44 L564.298666,276.44 L564.298666,274.976 L566.218666,274.976 L566.218666,271.184 L567.802666,270.992 L567.802666,274.976 L571.426666,274.976 L571.426666,276.44 L567.802666,276.44 L567.802666,283.328 C567.802666,284.064004 568.030664,284.647998 568.486666,285.08 C568.942668,285.512002 569.466663,285.728 570.058666,285.728 C570.426668,285.728 570.786664,285.616001 571.138666,285.392 C571.490668,285.167999 571.750665,284.948001 571.918666,284.732 C572.086667,284.515999 572.170666,284.376 572.170666,284.312 Z M577.397333,271.4 C577.221332,271.592001 576.997334,271.688 576.725333,271.688 C576.453331,271.688 576.225334,271.592001 576.041333,271.4 C575.857332,271.207999 575.765333,270.984001 575.765333,270.728 C575.765333,270.471999 575.857332,270.248001 576.041333,270.056 C576.225334,269.863999 576.453331,269.768 576.725333,269.768 C576.997334,269.768 577.225332,269.863999 577.409333,270.056 C577.593334,270.248001 577.685333,270.471999 577.685333,270.728 C577.685333,270.984001 577.589334,271.207999 577.397333,271.4 Z M575.933333,287 L575.933333,275 L577.517333,275 L577.517333,287 L575.933333,287 Z M591.551999,285.368 C590.351993,286.584006 588.896008,287.192 587.183999,287.192 C585.471991,287.192 584.012005,286.588006 582.803999,285.38 C581.595993,284.171994 580.991999,282.712009 580.991999,281 C580.991999,279.287991 581.595993,277.828006 582.803999,276.62 C584.012005,275.411994 585.471991,274.808 587.183999,274.808 C588.896008,274.808 590.355993,275.411994 591.563999,276.62 C592.772005,277.828006 593.375999,279.287991 593.375999,281 C593.375999,282.696008 592.768005,284.151994 591.551999,285.368 Z M587.207999,285.68 C588.504006,285.68 589.595995,285.228005 590.483999,284.324 C591.372004,283.419995 591.815999,282.312007 591.815999,281 C591.815999,279.687993 591.372004,278.576005 590.483999,277.664 C589.595995,276.751995 588.504006,276.296 587.207999,276.296 C585.927993,276.296 584.840004,276.751995 583.943999,277.664 C583.047995,278.576005 582.599999,279.687993 582.599999,281 C582.599999,282.312007 583.047995,283.419995 583.943999,284.324 C584.840004,285.228005 585.927993,285.68 587.207999,285.68 Z M601.842666,274.808 C603.234673,274.808 604.402661,275.299995 605.346666,276.284 C606.290671,277.268005 606.762666,278.479993 606.762666,279.92 L606.762666,287 L605.154666,287 L605.154666,279.968 C605.154666,278.943995 604.806669,278.072004 604.110666,277.352 C603.414663,276.631996 602.570671,276.272 601.578666,276.272 C600.586661,276.272 599.742669,276.631996 599.046666,277.352 C598.350663,278.072004 598.002666,278.943995 598.002666,279.968 L598.002666,287 L596.418666,287 L596.418666,275 L598.002666,275 L598.002666,276.776 C598.978671,275.463993 600.258658,274.808 601.842666,274.808 Z M639.343999,270.872 L640.975999,270.872 L635.407999,287 L633.775999,287 L629.023999,273.032 L624.247999,287 L622.639999,287 L617.047999,270.872 L618.679999,270.872 L623.455999,284.552 L628.279999,270.872 L629.743999,270.872 L634.591999,284.552 L639.343999,270.872 Z M651.962666,275 L653.546666,275 L653.546666,287 L651.962666,287 L651.962666,285.056 C650.73066,286.480007 649.170676,287.192 647.282666,287.192 C645.570658,287.192 644.110672,286.588006 642.902666,285.38 C641.69466,284.171994 641.090666,282.712009 641.090666,281 C641.090666,279.287991 641.69466,277.828006 642.902666,276.62 C644.110672,275.411994 645.570658,274.808 647.282666,274.808 C649.186676,274.808 650.74666,275.519993 651.962666,276.944 L651.962666,275 Z M647.306666,285.68 C648.602673,285.68 649.694662,285.228005 650.582666,284.324 C651.470671,283.419995 651.914666,282.312007 651.914666,281 C651.914666,279.687993 651.470671,278.580005 650.582666,277.676 C649.694662,276.771995 648.602673,276.32 647.306666,276.32 C646.02666,276.32 644.934671,276.771995 644.030666,277.676 C643.126662,278.580005 642.674666,279.687993 642.674666,281 C642.674666,282.312007 643.126662,283.419995 644.030666,284.324 C644.934671,285.228005 646.02666,285.68 647.306666,285.68 Z M664.485333,275 L666.069333,275 L661.821333,287 L660.237333,287 L656.013333,275 L657.597333,275 L661.029333,284.768 L664.485333,275 Z M673.743999,285.608 C674.816005,285.608 675.775995,285.304003 676.623999,284.696 C677.472004,284.087997 678.047998,283.376004 678.351999,282.56 L679.695999,283.04 C679.327998,284.048005 678.612005,284.975996 677.547999,285.824 C676.483994,286.672004 675.216007,287.088 673.743999,287.072 C672.399993,287.072 671.172005,286.656004 670.059999,285.824 C668.947994,284.991996 668.192001,283.928006 667.791999,282.632 C667.631999,282.103997 667.551999,281.528003 667.551999,280.904 C667.551999,279.175991 668.151993,277.712006 669.351999,276.512 C670.552005,275.311994 672.015991,274.704 673.743999,274.688 C675.312007,274.704 676.679994,275.231995 677.847999,276.272 C679.016005,277.312005 679.687999,278.599992 679.863999,280.136 C679.88,280.216 679.887999,280.319999 679.887999,280.448 L669.399999,282.344 C669.672001,283.304005 670.215995,284.091997 671.031999,284.708 C671.848004,285.324003 672.751995,285.624 673.743999,285.608 Z M673.599999,276.152 C672.399993,276.168 671.372004,276.599996 670.515999,277.448 C669.659995,278.296004 669.2,279.311994 669.135999,280.496 C669.135999,280.544 669.139999,280.627999 669.147999,280.748 C669.156,280.868001 669.159999,280.968 669.159999,281.048 L678.087999,279.44 C677.783998,278.463995 677.216004,277.668003 676.383999,277.052 C675.551995,276.435997 674.624005,276.136 673.599999,276.152 Z M687.226666,274.952 L687.226666,276.272 L684.874666,276.272 L684.874666,287 L683.314666,287 L683.314666,276.272 L681.898666,276.272 L681.898666,274.952 L683.314666,274.952 L683.314666,271.472 C683.314666,269.807992 683.97066,268.976 685.282666,268.976 C685.570668,268.976 685.862665,269 686.158666,269.048 C686.454668,269.096 686.674665,269.144 686.818666,269.192 L687.034666,269.264 L686.698666,270.488 C686.378665,270.408 686.058668,270.368 685.738666,270.368 C685.386664,270.368 685.154667,270.483999 685.042666,270.716 C684.930666,270.948001 684.874666,271.391997 684.874666,272.048 L684.874666,274.952 L687.226666,274.952 Z M699.677333,285.368 C698.477327,286.584006 697.021341,287.192 695.309333,287.192 C693.597324,287.192 692.137339,286.588006 690.929333,285.38 C689.721327,284.171994 689.117333,282.712009 689.117333,281 C689.117333,279.287991 689.721327,277.828006 690.929333,276.62 C692.137339,275.411994 693.597324,274.808 695.309333,274.808 C697.021341,274.808 698.481327,275.411994 699.689333,276.62 C700.897339,277.828006 701.501333,279.287991 701.501333,281 C701.501333,282.696008 700.893339,284.151994 699.677333,285.368 Z M695.333333,285.68 C696.629339,285.68 697.721328,285.228005 698.609333,284.324 C699.497337,283.419995 699.941333,282.312007 699.941333,281 C699.941333,279.687993 699.497337,278.576005 698.609333,277.664 C697.721328,276.751995 696.629339,276.296 695.333333,276.296 C694.053326,276.296 692.965337,276.751995 692.069333,277.664 C691.173328,278.576005 690.725333,279.687993 690.725333,281 C690.725333,282.312007 691.173328,283.419995 692.069333,284.324 C692.965337,285.228005 694.053326,285.68 695.333333,285.68 Z M709.968,274.808 C710.816004,274.808 711.591996,275.015998 712.296,275.432 L711.744,277.016 C711.071996,276.519998 710.392003,276.272 709.704,276.272 C708.695995,276.272 707.848003,276.627996 707.16,277.34 C706.471996,278.052004 706.128,278.927995 706.128,279.968 L706.128,287 L704.544,287 L704.544,275 L706.128,275 L706.128,276.776 C707.104004,275.463993 708.383992,274.808 709.968,274.808 Z M729.282666,274.808 C730.674673,274.808 731.842662,275.299995 732.786666,276.284 C733.730671,277.268005 734.202666,278.479993 734.202666,279.92 L734.202666,287 L732.570666,287 L732.570666,279.968 C732.570666,278.927995 732.23067,278.052004 731.550666,277.34 C730.870663,276.627996 730.026671,276.272 729.018666,276.272 C728.010661,276.272 727.16267,276.627996 726.474666,277.34 C725.786663,278.052004 725.442666,278.927995 725.442666,279.968 L725.442666,287 L723.834666,287 L723.834666,279.968 C723.834666,278.943995 723.48667,278.072004 722.790666,277.352 C722.094663,276.631996 721.250671,276.272 720.258666,276.272 C719.266661,276.272 718.42267,276.631996 717.726666,277.352 C717.030663,278.072004 716.682666,278.943995 716.682666,279.968 L716.682666,287 L715.098666,287 L715.098666,275 L716.682666,275 L716.682666,276.776 C717.658671,275.463993 718.938658,274.808 720.522666,274.808 C721.434671,274.808 722.270662,275.039998 723.030666,275.504 C723.79067,275.968002 724.386664,276.591996 724.818666,277.376 C725.234668,276.591996 725.834662,275.968002 726.618666,275.504 C727.40267,275.039998 728.290661,274.808 729.282666,274.808 Z M757.784,270.872 L757.784,272.456 L752.048,272.456 L752.048,287 L750.464,287 L750.464,272.456 L744.728,272.456 L744.728,270.872 L757.784,270.872 Z M763.442666,274.808 C764.290671,274.808 765.066663,275.015998 765.770666,275.432 L765.218666,277.016 C764.546663,276.519998 763.86667,276.272 763.178666,276.272 C762.170661,276.272 761.32267,276.627996 760.634666,277.34 C759.946663,278.052004 759.602666,278.927995 759.602666,279.968 L759.602666,287 L758.018666,287 L758.018666,275 L759.602666,275 L759.602666,276.776 C760.578671,275.463993 761.858658,274.808 763.442666,274.808 Z M777.765333,275 L779.349333,275 L779.349333,287 L777.765333,287 L777.765333,285.056 C776.533327,286.480007 774.973343,287.192 773.085333,287.192 C771.373325,287.192 769.913339,286.588006 768.705333,285.38 C767.497327,284.171994 766.893333,282.712009 766.893333,281 C766.893333,279.287991 767.497327,277.828006 768.705333,276.62 C769.913339,275.411994 771.373325,274.808 773.085333,274.808 C774.989343,274.808 776.549327,275.519993 777.765333,276.944 L777.765333,275 Z M773.109333,285.68 C774.40534,285.68 775.497329,285.228005 776.385333,284.324 C777.273338,283.419995 777.717333,282.312007 777.717333,281 C777.717333,279.687993 777.273338,278.580005 776.385333,277.676 C775.497329,276.771995 774.40534,276.32 773.109333,276.32 C771.829327,276.32 770.737338,276.771995 769.833333,277.676 C768.929329,278.580005 768.477333,279.687993 768.477333,281 C768.477333,282.312007 768.929329,283.419995 769.833333,284.324 C770.737338,285.228005 771.829327,285.68 773.109333,285.68 Z M788.68,274.808 C790.072007,274.808 791.239995,275.299995 792.184,276.284 C793.128005,277.268005 793.6,278.479993 793.6,279.92 L793.6,287 L791.992,287 L791.992,279.968 C791.992,278.943995 791.644003,278.072004 790.948,277.352 C790.251996,276.631996 789.408005,276.272 788.416,276.272 C787.423995,276.272 786.580003,276.631996 785.884,277.352 C785.187996,278.072004 784.84,278.943995 784.84,279.968 L784.84,287 L783.256,287 L783.256,275 L784.84,275 L784.84,276.776 C785.816005,275.463993 787.095992,274.808 788.68,274.808 Z M801.514666,287.192 C800.970664,287.192 800.442669,287.124001 799.930666,286.988 C799.418664,286.851999 798.990668,286.692001 798.646667,286.508 C798.302665,286.323999 797.994668,286.136001 797.722667,285.944 C797.450665,285.751999 797.250667,285.592001 797.122666,285.464 L796.930666,285.248 L798.058666,284.288 C798.170667,284.400001 798.326665,284.535999 798.526666,284.696 C798.726667,284.856001 799.130663,285.071999 799.738666,285.344 C800.34667,285.616001 800.946664,285.752 801.538666,285.752 C802.418671,285.752 803.122664,285.584002 803.650666,285.248 C804.178669,284.911998 804.442666,284.440003 804.442666,283.832 C804.442666,283.399998 804.178669,283.028002 803.650666,282.716 C803.122664,282.403998 802.48267,282.136001 801.730666,281.912 C800.978663,281.687999 800.22267,281.440001 799.462667,281.168 C798.702663,280.895999 798.058669,280.512002 797.530667,280.016 C797.002664,279.519998 796.738666,278.912004 796.738666,278.192 C796.738666,277.199995 797.110663,276.388003 797.854666,275.756 C798.59867,275.123997 799.698659,274.808 801.154666,274.808 C802.018671,274.808 802.834663,274.967998 803.602666,275.288 C804.37067,275.608002 804.922665,275.927998 805.258666,276.248 L805.762667,276.728 L804.634666,277.712 C804.522666,277.599999 804.366667,277.464001 804.166667,277.304 C803.966665,277.143999 803.56267,276.928001 802.954667,276.656 C802.346663,276.383999 801.73867,276.248 801.130666,276.248 C800.266662,276.248 799.566669,276.415998 799.030667,276.752 C798.494664,277.088002 798.226666,277.559997 798.226666,278.168 C798.226666,278.600002 798.490664,278.971998 799.018666,279.284 C799.546669,279.596002 800.186663,279.863999 800.938666,280.088 C801.69067,280.312001 802.446663,280.555999 803.206666,280.82 C803.96667,281.084001 804.610664,281.467997 805.138666,281.972 C805.666669,282.476003 805.930666,283.087996 805.930666,283.808 C805.930666,284.816005 805.56267,285.631997 804.826666,286.256 C804.090663,286.880003 802.986674,287.192 801.514666,287.192 Z M813.797333,274.952 L813.797333,276.272 L811.445333,276.272 L811.445333,287 L809.885333,287 L809.885333,276.272 L808.469333,276.272 L808.469333,274.952 L809.885333,274.952 L809.885333,271.472 C809.885333,269.807992 810.541327,268.976 811.853333,268.976 C812.141335,268.976 812.433332,269 812.729333,269.048 C813.025335,269.096 813.245332,269.144 813.389333,269.192 L813.605333,269.264 L813.269333,270.488 C812.949332,270.408 812.629335,270.368 812.309333,270.368 C811.957331,270.368 811.725334,270.483999 811.613333,270.716 C811.501333,270.948001 811.445333,271.391997 811.445333,272.048 L811.445333,274.952 L813.797333,274.952 Z M826.248,285.368 C825.047994,286.584006 823.592008,287.192 821.88,287.192 C820.167991,287.192 818.708006,286.588006 817.5,285.38 C816.291994,284.171994 815.688,282.712009 815.688,281 C815.688,279.287991 816.291994,277.828006 817.5,276.62 C818.708006,275.411994 820.167991,274.808 821.88,274.808 C823.592008,274.808 825.051994,275.411994 826.26,276.62 C827.468006,277.828006 828.072,279.287991 828.072,281 C828.072,282.696008 827.464006,284.151994 826.248,285.368 Z M821.904,285.68 C823.200006,285.68 824.291995,285.228005 825.18,284.324 C826.068004,283.419995 826.512,282.312007 826.512,281 C826.512,279.687993 826.068004,278.576005 825.18,277.664 C824.291995,276.751995 823.200006,276.296 821.904,276.296 C820.623993,276.296 819.536004,276.751995 818.64,277.664 C817.743995,278.576005 817.296,279.687993 817.296,281 C817.296,282.312007 817.743995,283.419995 818.64,284.324 C819.536004,285.228005 820.623993,285.68 821.904,285.68 Z M836.538667,274.808 C837.386671,274.808 838.162663,275.015998 838.866667,275.432 L838.314667,277.016 C837.642663,276.519998 836.96267,276.272 836.274667,276.272 C835.266662,276.272 834.41867,276.627996 833.730667,277.34 C833.042663,278.052004 832.698667,278.927995 832.698667,279.968 L832.698667,287 L831.114667,287 L831.114667,275 L832.698667,275 L832.698667,276.776 C833.674671,275.463993 834.954659,274.808 836.538667,274.808 Z M855.853333,274.808 C857.24534,274.808 858.413329,275.299995 859.357333,276.284 C860.301338,277.268005 860.773333,278.479993 860.773333,279.92 L860.773333,287 L859.141333,287 L859.141333,279.968 C859.141333,278.927995 858.801337,278.052004 858.121333,277.34 C857.44133,276.627996 856.597338,276.272 855.589333,276.272 C854.581328,276.272 853.733337,276.627996 853.045333,277.34 C852.35733,278.052004 852.013333,278.927995 852.013333,279.968 L852.013333,287 L850.405333,287 L850.405333,279.968 C850.405333,278.943995 850.057337,278.072004 849.361333,277.352 C848.66533,276.631996 847.821338,276.272 846.829333,276.272 C845.837328,276.272 844.993337,276.631996 844.297333,277.352 C843.60133,278.072004 843.253333,278.943995 843.253333,279.968 L843.253333,287 L841.669333,287 L841.669333,275 L843.253333,275 L843.253333,276.776 C844.229338,275.463993 845.509325,274.808 847.093333,274.808 C848.005338,274.808 848.841329,275.039998 849.601333,275.504 C850.361337,275.968002 850.957331,276.591996 851.389333,277.376 C851.805335,276.591996 852.405329,275.968002 853.189333,275.504 C853.973337,275.039998 854.861328,274.808 855.853333,274.808 Z" id="Rectification-Wavefo-Copy" fill="#23ABE3"></path>
            <g id="DC" transform="translate(467.000000, 0.000000)">
                <path d="M80,13 L80,213" id="Line-7-Copy-2" stroke="#3D3530" stroke-width="3" stroke-linecap="square"></path>
                <path d="M377,112 L64,112" id="Line-7-Copy-6" stroke="#3D3530" stroke-width="3" stroke-linecap="square"></path>
                <path d="M6,11 L6,5 L8,5 L8,11 L14,11 L14,13 L8,13 L8,19 L6,19 L6,13 L0,13 L0,11 L6,11 Z" id="Combined-Shape" fill="#524740"></path>
                <path d="M32.136,107.856 C33.2400055,106.751994 34.5599923,106.2 36.096,106.2 C37.6320077,106.2 38.9479945,106.747995 40.044,107.844 C41.1400055,108.940005 41.688,110.255992 41.688,111.792 C41.688,113.344008 41.1400055,114.667995 40.044,115.764 C38.9479945,116.860005 37.6320077,117.408 36.096,117.408 C34.5599923,117.408 33.2440055,116.860005 32.148,115.764 C31.0519945,114.667995 30.504,113.344008 30.504,111.792 C30.504,110.255992 31.0479946,108.944005 32.136,107.856 Z M36.096,107.568 C34.9759944,107.568 34.020004,107.983996 33.228,108.816 C32.435996,109.648004 32.04,110.639994 32.04,111.792 C32.04,112.960006 32.435996,113.955996 33.228,114.78 C34.020004,115.604004 34.9759944,116.016 36.096,116.016 C37.2000055,116.016 38.151996,115.604004 38.952,114.78 C39.752004,113.955996 40.152,112.960006 40.152,111.792 C40.152,110.639994 39.752004,109.648004 38.952,108.816 C38.151996,107.983996 37.2000055,107.568 36.096,107.568 Z M58.896,103.104 C57.9519953,103.104 57.3400014,103.219999 57.06,103.452 C56.7799986,103.684001 56.440002,104.263995 56.04,105.192 L50.76,117.408 L50.448,117.408 L45.144,105.192 C44.743998,104.263995 44.4040014,103.684001 44.124,103.452 C43.8439986,103.219999 43.2320047,103.104 42.288,103.104 L42.288,102.6 L48.936,102.6 L48.936,103.104 C47.943995,103.104 47.3080014,103.243999 47.028,103.524 C46.7479986,103.804001 46.7599985,104.271997 47.064,104.928 L51.144,114.264 L55.176,104.928 C55.4800015,104.271997 55.4920014,103.804001 55.212,103.524 C54.9319986,103.243999 54.296005,103.104 53.304,103.104 L53.304,102.6 L58.896,102.6 L58.896,103.104 Z" id="0V-Copy-2" fill="#524740"></path>
                <path d="M27.792,17 L21.48,17 L21.48,16.496 C22.472005,16.496 23.1039986,16.3280017 23.376,15.992 C23.6480014,15.6559983 23.784,14.888006 23.784,13.688 L23.784,9.896 C23.784,8.695994 23.6480014,7.92800168 23.376,7.592 C23.1039986,7.25599832 22.472005,7.088 21.48,7.088 L21.48,6.608 L27.792,6.608 L27.792,7.088 C26.783995,7.088 26.1480013,7.25199836 25.884,7.58 C25.6199987,7.90800164 25.488,8.67999392 25.488,9.896 L25.488,13.688 C25.488,14.9040061 25.6199987,15.6759984 25.884,16.004 C26.1480013,16.3320016 26.783995,16.496 27.792,16.496 L27.792,17 Z M36.504,17 L30.192,17 L30.192,16.496 C31.184005,16.496 31.8159986,16.3280017 32.088,15.992 C32.3600014,15.6559983 32.496,14.888006 32.496,13.688 L32.496,9.896 C32.496,8.695994 32.3600014,7.92800168 32.088,7.592 C31.8159986,7.25599832 31.184005,7.088 30.192,7.088 L30.192,6.608 L36.504,6.608 L36.504,7.088 C35.495995,7.088 34.8600013,7.25199836 34.596,7.58 C34.3319987,7.90800164 34.2,8.67999392 34.2,9.896 L34.2,13.688 C34.2,14.9040061 34.3319987,15.6759984 34.596,16.004 C34.8600013,16.3320016 35.495995,16.496 36.504,16.496 L36.504,17 Z M40.848,7.856 C41.9520055,6.75199448 43.2719923,6.2 44.808,6.2 C46.3440077,6.2 47.6599945,6.74799452 48.756,7.844 C49.8520055,8.94000548 50.4,10.2559923 50.4,11.792 C50.4,13.3440078 49.8520055,14.6679945 48.756,15.764 C47.6599945,16.8600055 46.3440077,17.408 44.808,17.408 C43.2719923,17.408 41.9560055,16.8600055 40.86,15.764 C39.7639945,14.6679945 39.216,13.3440078 39.216,11.792 C39.216,10.2559923 39.7599946,8.94400544 40.848,7.856 Z M44.808,7.568 C43.6879944,7.568 42.732004,7.98399584 41.94,8.816 C41.147996,9.64800416 40.752,10.6399942 40.752,11.792 C40.752,12.9600058 41.147996,13.9559959 41.94,14.78 C42.732004,15.6040041 43.6879944,16.016 44.808,16.016 C45.9120055,16.016 46.863996,15.6040041 47.664,14.78 C48.464004,13.9559959 48.864,12.9600058 48.864,11.792 C48.864,10.6399942 48.464004,9.64800416 47.664,8.816 C46.863996,7.98399584 45.9120055,7.568 44.808,7.568 Z M67.608,3.104 C66.6639953,3.104 66.0520014,3.21999884 65.772,3.452 C65.4919986,3.68400116 65.152002,4.26399536 64.752,5.192 L59.472,17.408 L59.16,17.408 L53.856,5.192 C53.455998,4.26399536 53.1160014,3.68400116 52.836,3.452 C52.5559986,3.21999884 51.9440047,3.104 51,3.104 L51,2.6 L57.648,2.6 L57.648,3.104 C56.655995,3.104 56.0200014,3.2439986 55.74,3.524 C55.4599986,3.8040014 55.4719985,4.27199672 55.776,4.928 L59.856,14.264 L63.888,4.928 C64.1920015,4.27199672 64.2040014,3.8040014 63.924,3.524 C63.6439986,3.2439986 63.008005,3.104 62.016,3.104 L62.016,2.6 L67.608,2.6 L67.608,3.104 Z" id="110V-Copy-3" fill="#524740"></path>
                <path d="M80.7460938,111.019531 C104.248698,45.6731771 127.666667,13 151,13 C167.855331,13 184.406946,30.0495283 200.654846,64.1485848 C204.817878,72.8854356 211.017565,88.5090844 219.253906,111.019531" id="Path-2" stroke="#EF7D3B" stroke-width="3"></path>
                <path d="M218.746094,111.019531 C242.248698,45.6731771 265.666667,13 289,13 C305.855331,13 322.406946,30.0495283 338.654846,64.1485848 C342.817878,72.8854356 349.017565,88.5090844 357.253906,111.019531" id="Path-2-Copy" stroke="#EF7D3B" stroke-width="3"></path>
            </g>
            <g id="Alternating_Current">
                <path d="M87,13 L87,213" id="Line-7-Copy-2" stroke="#3D3530" stroke-width="3" stroke-linecap="square"></path>
                <path d="M384,112 L71,112" id="Line-7-Copy-6" stroke="#3D3530" stroke-width="3" stroke-linecap="square"></path>
                <rect id="Rectangle" fill="#524740" x="8" y="212" width="13" height="2"></rect>
                <path d="M13,11 L13,5 L15,5 L15,11 L21,11 L21,13 L15,13 L15,19 L13,19 L13,13 L7,13 L7,11 L13,11 Z" id="Combined-Shape" fill="#524740"></path>
                <path d="M-7.94,104.104 C-8.88400472,104.104 -9.4959986,104.219999 -9.776,104.452 C-10.0560014,104.684001 -10.395998,105.263995 -10.796,106.192 L-16.076,118.408 L-16.388,118.408 L-21.692,106.192 C-22.092002,105.263995 -22.4319986,104.684001 -22.712,104.452 C-22.9920014,104.219999 -23.6039953,104.104 -24.548,104.104 L-24.548,103.6 L-17.9,103.6 L-17.9,104.104 C-18.892005,104.104 -19.5279986,104.243999 -19.808,104.524 C-20.0880014,104.804001 -20.0760015,105.271997 -19.772,105.928 L-15.692,115.264 L-11.66,105.928 C-11.3559985,105.271997 -11.3439986,104.804001 -11.624,104.524 C-11.9040014,104.243999 -12.539995,104.104 -13.532,104.104 L-13.532,103.6 L-7.94,103.6 L-7.94,104.104 Z M0.58,110.896 C1.5400048,111.744004 2.02,112.775994 2.02,113.992 C2.02,115.208006 1.54400476,116.247996 0.592,117.112 C-0.36000476,117.976004 -1.49999336,118.408 -2.828,118.408 C-4.15600664,118.408 -5.29599524,117.976004 -6.248,117.112 C-7.20000476,116.247996 -7.676,115.208006 -7.676,113.992 C-7.676,112.775994 -7.20000476,111.740004 -6.248,110.884 C-5.29599524,110.027996 -4.15600664,109.6 -2.828,109.6 C-1.49999336,109.6 -0.36400472,110.031996 0.58,110.896 Z M-0.668,116.512 C-0.17199752,115.855997 0.076,115.016005 0.076,113.992 C0.076,112.967995 -0.17199752,112.132003 -0.668,111.484 C-1.16400248,110.835997 -1.88399528,110.512 -2.828,110.512 C-3.77200472,110.512 -4.49199752,110.839997 -4.988,111.496 C-5.48400248,112.152003 -5.732,112.983995 -5.732,113.992 C-5.732,115.000005 -5.48400248,115.831997 -4.988,116.488 C-4.49199752,117.144003 -3.77200472,117.472 -2.828,117.472 C-1.88399528,117.472 -1.16400248,117.152003 -0.668,116.512 Z M9.124,118 L3.628,118 L3.628,117.496 C4.428004,117.496 4.94399884,117.328002 5.176,116.992 C5.40800116,116.655998 5.524,115.888006 5.524,114.688 L5.524,107.104 C5.524,105.903994 5.40800116,105.136002 5.176,104.8 C4.94399884,104.463998 4.428004,104.296 3.628,104.296 L3.628,103.792 L7.228,103.192 L7.228,114.688 C7.228,115.888006 7.34399884,116.655998 7.576,116.992 C7.80800116,117.328002 8.323996,117.496 9.124,117.496 L9.124,118 Z M11.524,110.848 L10.276,110.848 L10.276,110.272 C10.9640034,110.127999 11.4679984,109.816002 11.788,109.336 C12.1080016,108.855998 12.3159995,108.200004 12.412,107.368 L13.228,107.368 L13.228,110.008 L15.316,110.008 L15.316,110.848 L13.228,110.848 L13.228,115.648 C13.228,116.800006 13.5879964,117.376 14.308,117.376 C14.7720023,117.376 15.2919971,117.104003 15.868,116.56 L16.276,116.968 C15.9399983,117.368002 15.5360024,117.695999 15.064,117.952 C14.5919976,118.208001 14.156002,118.336 13.756,118.336 C13.0679966,118.336 12.524002,118.112002 12.124,117.664 C11.723998,117.215998 11.524,116.544004 11.524,115.648 L11.524,110.848 Z M25.972,117.52 C25.5079977,118.016002 24.980003,118.264 24.388,118.264 C23.4279952,118.264 22.8840006,117.800005 22.756,116.872 C21.6839946,117.832005 20.6840046,118.312 19.756,118.312 C19.147997,118.312 18.6360021,118.132002 18.22,117.772 C17.8039979,117.411998 17.596,116.920003 17.596,116.296 C17.596,114.615992 19.299983,113.480003 22.708,112.888 C22.708,111.943995 22.604001,111.288002 22.396,110.92 C22.187999,110.551998 21.7560033,110.368 21.1,110.368 C20.7799984,110.368 20.4720015,110.471999 20.176,110.68 C19.8799985,110.888001 19.732,111.167998 19.732,111.52 C19.732,111.760001 19.6520008,111.959999 19.492,112.12 C19.3319992,112.280001 19.1400011,112.36 18.916,112.36 C18.6759988,112.36 18.4760008,112.280001 18.316,112.12 C18.1559992,111.959999 18.076,111.760001 18.076,111.52 C18.076,110.959997 18.3839969,110.500002 19,110.14 C19.6160031,109.779998 20.323996,109.6 21.124,109.6 C22.2920058,109.6 23.1319974,109.855997 23.644,110.368 C24.1560026,110.880003 24.412,111.711994 24.412,112.864 L24.412,116.488 C24.412,117.112003 24.5959982,117.424 24.964,117.424 C25.172001,117.424 25.3959988,117.304001 25.636,117.064 L25.972,117.52 Z M22.708,116.08 L22.708,113.632 C20.499989,114.144003 19.396,114.935995 19.396,116.008 C19.396,116.376002 19.5039989,116.671999 19.72,116.896 C19.9360011,117.120001 20.2039984,117.232 20.524,117.232 C21.116003,117.232 21.8439957,116.848004 22.708,116.08 Z M32.212,114.664 C32.5160015,114.199998 32.668,113.600004 32.668,112.864 C32.668,112.127996 32.5200015,111.528002 32.224,111.064 C31.9279985,110.599998 31.5000028,110.368 30.94,110.368 C30.3799972,110.368 29.9480015,110.599998 29.644,111.064 C29.3399985,111.528002 29.188,112.127996 29.188,112.864 C29.188,113.600004 29.3399985,114.195998 29.644,114.652 C29.9480015,115.108002 30.3799972,115.336 30.94,115.336 C31.5000028,115.336 31.9239986,115.112002 32.212,114.664 Z M28.708,117.136 C28.708,117.616002 29.4359927,117.919999 30.892,118.048 C32.4280077,118.176001 33.5399966,118.527997 34.228,119.104 C34.9160034,119.680003 35.26,120.375996 35.26,121.192 C35.26,122.168005 34.856004,122.947997 34.048,123.532 C33.239996,124.116003 32.2280061,124.408 31.012,124.408 C29.7159935,124.408 28.672004,124.140003 27.88,123.604 C27.087996,123.067997 26.7239997,122.440004 26.788,121.72 C26.8520003,120.999996 27.3639952,120.392002 28.324,119.896 L28.756,120.16 C28.2919977,120.688003 28.0440002,121.171998 28.012,121.612 C27.9799998,122.052002 28.1199984,122.399999 28.432,122.656 C28.7440016,122.912001 29.1279977,123.111999 29.584,123.256 C30.0400023,123.400001 30.5159975,123.472 31.012,123.472 C31.7960039,123.472 32.487997,123.300002 33.088,122.956 C33.688003,122.611998 33.988,122.168003 33.988,121.624 C33.988,121.095997 33.7280026,120.712001 33.208,120.472 C32.6879974,120.231999 31.8760055,120.056001 30.772,119.944 C28.4999886,119.719999 27.364,118.976006 27.364,117.712 C27.364,116.847996 28.0359933,116.208002 29.38,115.792 C28.7559969,115.503999 28.2640018,115.104003 27.904,114.592 C27.5439982,114.079997 27.364,113.504003 27.364,112.864 C27.364,111.967996 27.7119965,111.200003 28.408,110.56 C29.1040035,109.919997 29.947995,109.6 30.94,109.6 C31.9000048,109.6 32.7239966,109.903997 33.412,110.512 C33.620001,110.255999 33.9039982,110.040001 34.264,109.864 C34.6240018,109.687999 34.9399986,109.6 35.212,109.6 C35.9160035,109.6 36.363999,109.895997 36.556,110.488 C36.7000007,110.936002 36.6280014,111.271999 36.34,111.496 C36.2439995,111.576 36.1320006,111.616 36.004,111.616 C35.7639988,111.632 35.5840006,111.584001 35.464,111.472 C35.3439994,111.359999 35.2720001,111.236001 35.248,111.1 C35.2239999,110.963999 35.1600005,110.836001 35.056,110.716 C34.9519995,110.595999 34.7880011,110.536 34.564,110.536 C34.3239988,110.536 34.0760013,110.663999 33.82,110.92 C34.2840023,111.480003 34.516,112.127996 34.516,112.864 C34.516,113.712004 34.2040031,114.439997 33.58,115.048 C32.9559969,115.656003 32.2280042,116.015999 31.396,116.128 C29.603991,116.336001 28.708,116.671998 28.708,117.136 Z M39.724,112.504 L43.708,112.504 C43.8680008,112.055998 43.8000015,111.620002 43.504,111.196 C43.2079985,110.771998 42.7000036,110.56 41.98,110.56 C41.4679974,110.56 41.008002,110.735998 40.6,111.088 C40.191998,111.440002 39.9000009,111.911997 39.724,112.504 Z M39.58,113.392 C39.4359993,114.576006 39.6239974,115.539996 40.144,116.284 C40.6640026,117.028004 41.5159941,117.4 42.7,117.4 C43.100002,117.4 43.5559974,117.296001 44.068,117.088 C44.5800026,116.879999 45.0039983,116.616002 45.34,116.296 L45.772,116.824 C45.3399978,117.288002 44.7880034,117.667999 44.116,117.964 C43.4439966,118.260001 42.7720034,118.408 42.1,118.408 C40.8039935,118.408 39.7400042,117.980004 38.908,117.124 C38.0759958,116.267996 37.66,115.224006 37.66,113.992 C37.66,112.759994 38.1119955,111.720004 39.016,110.872 C39.9200045,110.023996 40.9479942,109.6 42.1,109.6 C43.1880054,109.6 44.0759966,109.979996 44.764,110.74 C45.4520034,111.500004 45.6520014,112.383995 45.364,113.392 L39.58,113.392 Z" id="Voltage-Copy" fill="#524740" transform="translate(10.612000, 113.800000) rotate(-90.000000) translate(-10.612000, -113.800000) "></path>
                <path d="M39.136,107.856 C40.2400055,106.751994 41.5599923,106.2 43.096,106.2 C44.6320077,106.2 45.9479945,106.747995 47.044,107.844 C48.1400055,108.940005 48.688,110.255992 48.688,111.792 C48.688,113.344008 48.1400055,114.667995 47.044,115.764 C45.9479945,116.860005 44.6320077,117.408 43.096,117.408 C41.5599923,117.408 40.2440055,116.860005 39.148,115.764 C38.0519945,114.667995 37.504,113.344008 37.504,111.792 C37.504,110.255992 38.0479946,108.944005 39.136,107.856 Z M43.096,107.568 C41.9759944,107.568 41.020004,107.983996 40.228,108.816 C39.435996,109.648004 39.04,110.639994 39.04,111.792 C39.04,112.960006 39.435996,113.955996 40.228,114.78 C41.020004,115.604004 41.9759944,116.016 43.096,116.016 C44.2000055,116.016 45.151996,115.604004 45.952,114.78 C46.752004,113.955996 47.152,112.960006 47.152,111.792 C47.152,110.639994 46.752004,109.648004 45.952,108.816 C45.151996,107.983996 44.2000055,107.568 43.096,107.568 Z M65.896,103.104 C64.9519953,103.104 64.3400014,103.219999 64.06,103.452 C63.7799986,103.684001 63.440002,104.263995 63.04,105.192 L57.76,117.408 L57.448,117.408 L52.144,105.192 C51.743998,104.263995 51.4040014,103.684001 51.124,103.452 C50.8439986,103.219999 50.2320047,103.104 49.288,103.104 L49.288,102.6 L55.936,102.6 L55.936,103.104 C54.943995,103.104 54.3080014,103.243999 54.028,103.524 C53.7479986,103.804001 53.7599985,104.271997 54.064,104.928 L58.144,114.264 L62.176,104.928 C62.4800015,104.271997 62.4920014,103.804001 62.212,103.524 C61.9319986,103.243999 61.296005,103.104 60.304,103.104 L60.304,102.6 L65.896,102.6 L65.896,103.104 Z" id="0V-Copy" fill="#524740"></path>
                <path d="M34.792,17 L28.48,17 L28.48,16.496 C29.472005,16.496 30.1039986,16.3280017 30.376,15.992 C30.6480014,15.6559983 30.784,14.888006 30.784,13.688 L30.784,9.896 C30.784,8.695994 30.6480014,7.92800168 30.376,7.592 C30.1039986,7.25599832 29.472005,7.088 28.48,7.088 L28.48,6.608 L34.792,6.608 L34.792,7.088 C33.783995,7.088 33.1480013,7.25199836 32.884,7.58 C32.6199987,7.90800164 32.488,8.67999392 32.488,9.896 L32.488,13.688 C32.488,14.9040061 32.6199987,15.6759984 32.884,16.004 C33.1480013,16.3320016 33.783995,16.496 34.792,16.496 L34.792,17 Z M43.504,17 L37.192,17 L37.192,16.496 C38.184005,16.496 38.8159986,16.3280017 39.088,15.992 C39.3600014,15.6559983 39.496,14.888006 39.496,13.688 L39.496,9.896 C39.496,8.695994 39.3600014,7.92800168 39.088,7.592 C38.8159986,7.25599832 38.184005,7.088 37.192,7.088 L37.192,6.608 L43.504,6.608 L43.504,7.088 C42.495995,7.088 41.8600013,7.25199836 41.596,7.58 C41.3319987,7.90800164 41.2,8.67999392 41.2,9.896 L41.2,13.688 C41.2,14.9040061 41.3319987,15.6759984 41.596,16.004 C41.8600013,16.3320016 42.495995,16.496 43.504,16.496 L43.504,17 Z M47.848,7.856 C48.9520055,6.75199448 50.2719923,6.2 51.808,6.2 C53.3440077,6.2 54.6599945,6.74799452 55.756,7.844 C56.8520055,8.94000548 57.4,10.2559923 57.4,11.792 C57.4,13.3440078 56.8520055,14.6679945 55.756,15.764 C54.6599945,16.8600055 53.3440077,17.408 51.808,17.408 C50.2719923,17.408 48.9560055,16.8600055 47.86,15.764 C46.7639945,14.6679945 46.216,13.3440078 46.216,11.792 C46.216,10.2559923 46.7599946,8.94400544 47.848,7.856 Z M51.808,7.568 C50.6879944,7.568 49.732004,7.98399584 48.94,8.816 C48.147996,9.64800416 47.752,10.6399942 47.752,11.792 C47.752,12.9600058 48.147996,13.9559959 48.94,14.78 C49.732004,15.6040041 50.6879944,16.016 51.808,16.016 C52.9120055,16.016 53.863996,15.6040041 54.664,14.78 C55.464004,13.9559959 55.864,12.9600058 55.864,11.792 C55.864,10.6399942 55.464004,9.64800416 54.664,8.816 C53.863996,7.98399584 52.9120055,7.568 51.808,7.568 Z M74.608,3.104 C73.6639953,3.104 73.0520014,3.21999884 72.772,3.452 C72.4919986,3.68400116 72.152002,4.26399536 71.752,5.192 L66.472,17.408 L66.16,17.408 L60.856,5.192 C60.455998,4.26399536 60.1160014,3.68400116 59.836,3.452 C59.5559986,3.21999884 58.9440047,3.104 58,3.104 L58,2.6 L64.648,2.6 L64.648,3.104 C63.655995,3.104 63.0200014,3.2439986 62.74,3.524 C62.4599986,3.8040014 62.4719985,4.27199672 62.776,4.928 L66.856,14.264 L70.888,4.928 C71.1920015,4.27199672 71.2040014,3.8040014 70.924,3.524 C70.6439986,3.2439986 70.008005,3.104 69.016,3.104 L69.016,2.6 L74.608,2.6 L74.608,3.104 Z" id="110V-Copy-2" fill="#524740"></path>
                <path d="M34.792,217 L28.48,217 L28.48,216.496 C29.472005,216.496 30.1039986,216.328002 30.376,215.992 C30.6480014,215.655998 30.784,214.888006 30.784,213.688 L30.784,209.896 C30.784,208.695994 30.6480014,207.928002 30.376,207.592 C30.1039986,207.255998 29.472005,207.088 28.48,207.088 L28.48,206.608 L34.792,206.608 L34.792,207.088 C33.783995,207.088 33.1480013,207.251998 32.884,207.58 C32.6199987,207.908002 32.488,208.679994 32.488,209.896 L32.488,213.688 C32.488,214.904006 32.6199987,215.675998 32.884,216.004 C33.1480013,216.332002 33.783995,216.496 34.792,216.496 L34.792,217 Z M43.504,217 L37.192,217 L37.192,216.496 C38.184005,216.496 38.8159986,216.328002 39.088,215.992 C39.3600014,215.655998 39.496,214.888006 39.496,213.688 L39.496,209.896 C39.496,208.695994 39.3600014,207.928002 39.088,207.592 C38.8159986,207.255998 38.184005,207.088 37.192,207.088 L37.192,206.608 L43.504,206.608 L43.504,207.088 C42.495995,207.088 41.8600013,207.251998 41.596,207.58 C41.3319987,207.908002 41.2,208.679994 41.2,209.896 L41.2,213.688 C41.2,214.904006 41.3319987,215.675998 41.596,216.004 C41.8600013,216.332002 42.495995,216.496 43.504,216.496 L43.504,217 Z M47.848,207.856 C48.9520055,206.751994 50.2719923,206.2 51.808,206.2 C53.3440077,206.2 54.6599945,206.747995 55.756,207.844 C56.8520055,208.940005 57.4,210.255992 57.4,211.792 C57.4,213.344008 56.8520055,214.667995 55.756,215.764 C54.6599945,216.860005 53.3440077,217.408 51.808,217.408 C50.2719923,217.408 48.9560055,216.860005 47.86,215.764 C46.7639945,214.667995 46.216,213.344008 46.216,211.792 C46.216,210.255992 46.7599946,208.944005 47.848,207.856 Z M51.808,207.568 C50.6879944,207.568 49.732004,207.983996 48.94,208.816 C48.147996,209.648004 47.752,210.639994 47.752,211.792 C47.752,212.960006 48.147996,213.955996 48.94,214.78 C49.732004,215.604004 50.6879944,216.016 51.808,216.016 C52.9120055,216.016 53.863996,215.604004 54.664,214.78 C55.464004,213.955996 55.864,212.960006 55.864,211.792 C55.864,210.639994 55.464004,209.648004 54.664,208.816 C53.863996,207.983996 52.9120055,207.568 51.808,207.568 Z M74.608,203.104 C73.6639953,203.104 73.0520014,203.219999 72.772,203.452 C72.4919986,203.684001 72.152002,204.263995 71.752,205.192 L66.472,217.408 L66.16,217.408 L60.856,205.192 C60.455998,204.263995 60.1160014,203.684001 59.836,203.452 C59.5559986,203.219999 58.9440047,203.104 58,203.104 L58,202.6 L64.648,202.6 L64.648,203.104 C63.655995,203.104 63.0200014,203.243999 62.74,203.524 C62.4599986,203.804001 62.4719985,204.271997 62.776,204.928 L66.856,214.264 L70.888,204.928 C71.1920015,204.271997 71.2040014,203.804001 70.924,203.524 C70.6439986,203.243999 70.008005,203.104 69.016,203.104 L69.016,202.6 L74.608,202.6 L74.608,203.104 Z" id="110V-Copy" fill="#524740"></path>
                <path d="M87.7460938,111.019531 C111.248698,45.6731771 134.666667,13 158,13 C174.855331,13 191.406946,30.0495283 207.654846,64.1485848 C211.817878,72.8854356 218.017565,88.5090844 226.253906,111.019531 C250.751302,179.00651 274.666667,213 298,213 C321.333333,213 344.666667,179.00651 368,111.019531" id="Path-2" stroke="#EF7D3B" stroke-width="3"></path>
            </g>
            <path id="Line" d="M450,113.5 L412,113.5 L410.5,113.5 L410.5,110.5 L412,110.5 L450,110.5 L450,102.5 L469,112 L450,121.5 L450,113.5 Z" fill="#1A80AA" fill-rule="nonzero"></path>
            <path d="M548,111.171573 L824,111.171573" id="Path-12" stroke="#23ABE3" stroke-width="3"></path>
        </g>
    </g>
</svg>