<?xml version="1.0" encoding="UTF-8"?>
<svg width="900px" height="340px" viewBox="0 0 900 340" version="1.1" xmlns="http://www.w3.org/2000/svg" xmlns:xlink="http://www.w3.org/1999/xlink">
    <!-- Generator: Sketch 52.5 (67469) - http://www.bohemiancoding.com/sketch -->
    <title>Rectification_Transform</title>
    <desc>Created with Sketch.</desc>
    <g id="Rectification_Transform" stroke="none" stroke-width="1" fill="none" fill-rule="evenodd">
        <rect id="Rectangle" stroke="#3D3530" stroke-width="2" fill="#EEEEEE" x="1" y="1" width="898" height="358"></rect>
        <rect id="Rectangle-Copy" stroke="#3D3530" stroke-width="2" fill="#F8FAE4" x="1" y="296" width="898" height="43"></rect>
        <path d="M480.682666,325 L480.682666,308.872 L486.154666,308.872 C487.962675,308.872 489.40266,309.347995 490.474666,310.3 C491.546671,311.252005 492.082666,312.447993 492.082666,313.888 C492.082666,314.960005 491.766669,315.911996 491.134666,316.744 C490.502662,317.576004 489.618671,318.167998 488.482666,318.52 L492.082666,325 L490.426666,325 L486.994666,318.856 L486.010666,318.904 L482.266666,318.904 L482.266666,325 L480.682666,325 Z M482.266666,317.392 L486.154666,317.392 C487.450672,317.392 488.490662,317.060003 489.274666,316.396 C490.05867,315.731997 490.450666,314.896005 490.450666,313.888 C490.450666,312.895995 490.05867,312.064003 489.274666,311.392 C488.490662,310.719997 487.450672,310.384 486.154666,310.384 L482.266666,310.384 L482.266666,317.392 Z M500.525332,323.608 C501.597338,323.608 502.557328,323.304003 503.405332,322.696 C504.253337,322.087997 504.829331,321.376004 505.133332,320.56 L506.477332,321.04 C506.10933,322.048005 505.393338,322.975996 504.329332,323.824 C503.265327,324.672004 501.99734,325.088 500.525332,325.072 C499.181326,325.072 497.953338,324.656004 496.841332,323.824 C495.729327,322.991996 494.973334,321.928006 494.573332,320.632 C494.413331,320.103997 494.333332,319.528003 494.333332,318.904 C494.333332,317.175991 494.933326,315.712006 496.133332,314.512 C497.333338,313.311994 498.797324,312.704 500.525332,312.688 C502.09334,312.704 503.461326,313.231995 504.629332,314.272 C505.797338,315.312005 506.469331,316.599992 506.645332,318.136 C506.661332,318.216 506.669332,318.319999 506.669332,318.448 L496.181332,320.344 C496.453334,321.304005 496.997328,322.091997 497.813332,322.708 C498.629336,323.324003 499.533327,323.624 500.525332,323.608 Z M500.381332,314.152 C499.181326,314.168 498.153337,314.599996 497.297332,315.448 C496.441328,316.296004 495.981333,317.311994 495.917332,318.496 C495.917332,318.544 495.921332,318.627999 495.929332,318.748 C495.937332,318.868001 495.941332,318.968 495.941332,319.048 L504.869332,317.44 C504.565331,316.463995 503.997336,315.668003 503.165332,315.052 C502.333328,314.435997 501.405337,314.136 500.381332,314.152 Z M515.519999,325.192 C513.80799,325.192 512.348005,324.588006 511.139999,323.38 C509.931993,322.171994 509.327999,320.712009 509.327999,319 C509.327999,317.287991 509.931993,315.828006 511.139999,314.62 C512.348005,313.411994 513.80799,312.808 515.519999,312.808 C516.608004,312.808 517.619994,313.075997 518.555999,313.612 C519.492004,314.148003 520.231996,314.863996 520.775999,315.76 L519.335999,316.456 C518.903997,315.799997 518.352002,315.280002 517.679999,314.896 C517.007996,314.511998 516.288003,314.32 515.519999,314.32 C514.223993,314.32 513.132003,314.771995 512.243999,315.676 C511.355995,316.580005 510.911999,317.687993 510.911999,319 C510.911999,320.312007 511.355995,321.419995 512.243999,322.324 C513.132003,323.228005 514.223993,323.68 515.519999,323.68 C516.288003,323.68 517.007996,323.488002 517.679999,323.104 C518.352002,322.719998 518.903997,322.200003 519.335999,321.544 L520.775999,322.24 C520.231996,323.136004 519.492004,323.851997 518.555999,324.388 C517.619994,324.924003 516.608004,325.192 515.519999,325.192 Z M530.970666,322.312 L531.762666,323.536 C531.666665,323.664001 531.538666,323.815999 531.378666,323.992 C531.218665,324.168001 530.858668,324.411998 530.298666,324.724 C529.738663,325.036002 529.162669,325.192 528.570666,325.192 C527.562661,325.192 526.718669,324.892003 526.038666,324.292 C525.358662,323.691997 525.018666,322.824006 525.018666,321.688 L525.018666,314.44 L523.098666,314.44 L523.098666,312.976 L525.018666,312.976 L525.018666,309.184 L526.602666,308.992 L526.602666,312.976 L530.226666,312.976 L530.226666,314.44 L526.602666,314.44 L526.602666,321.328 C526.602666,322.064004 526.830663,322.647998 527.286666,323.08 C527.742668,323.512002 528.266663,323.728 528.858666,323.728 C529.226668,323.728 529.586664,323.616001 529.938666,323.392 C530.290667,323.167999 530.550665,322.948001 530.718666,322.732 C530.886667,322.515999 530.970666,322.376 530.970666,322.312 Z M536.197332,309.4 C536.021332,309.592001 535.797334,309.688 535.525332,309.688 C535.253331,309.688 535.025333,309.592001 534.841332,309.4 C534.657331,309.207999 534.565332,308.984001 534.565332,308.728 C534.565332,308.471999 534.657331,308.248001 534.841332,308.056 C535.025333,307.863999 535.253331,307.768 535.525332,307.768 C535.797334,307.768 536.025331,307.863999 536.209332,308.056 C536.393333,308.248001 536.485332,308.471999 536.485332,308.728 C536.485332,308.984001 536.389333,309.207999 536.197332,309.4 Z M534.733332,325 L534.733332,313 L536.317332,313 L536.317332,325 L534.733332,325 Z M545.119999,312.952 L545.119999,314.272 L542.767999,314.272 L542.767999,325 L541.207999,325 L541.207999,314.272 L539.791999,314.272 L539.791999,312.952 L541.207999,312.952 L541.207999,309.472 C541.207999,307.807992 541.863993,306.976 543.175999,306.976 C543.464001,306.976 543.755998,307 544.051999,307.048 C544.348001,307.096 544.567998,307.144 544.711999,307.192 L544.927999,307.264 L544.591999,308.488 C544.271997,308.408 543.952001,308.368 543.631999,308.368 C543.279997,308.368 543.048,308.483999 542.935999,308.716 C542.823999,308.948001 542.767999,309.391997 542.767999,310.048 L542.767999,312.952 L545.119999,312.952 Z M549.818666,309.4 C549.642665,309.592001 549.418667,309.688 549.146666,309.688 C548.874664,309.688 548.646667,309.592001 548.462666,309.4 C548.278665,309.207999 548.186666,308.984001 548.186666,308.728 C548.186666,308.471999 548.278665,308.248001 548.462666,308.056 C548.646667,307.863999 548.874664,307.768 549.146666,307.768 C549.418667,307.768 549.646665,307.863999 549.830666,308.056 C550.014667,308.248001 550.106666,308.471999 550.106666,308.728 C550.106666,308.984001 550.010667,309.207999 549.818666,309.4 Z M548.354666,325 L548.354666,313 L549.938666,313 L549.938666,325 L548.354666,325 Z M559.605332,325.192 C557.893324,325.192 556.433339,324.588006 555.225332,323.38 C554.017326,322.171994 553.413332,320.712009 553.413332,319 C553.413332,317.287991 554.017326,315.828006 555.225332,314.62 C556.433339,313.411994 557.893324,312.808 559.605332,312.808 C560.693338,312.808 561.705328,313.075997 562.641332,313.612 C563.577337,314.148003 564.31733,314.863996 564.861332,315.76 L563.421332,316.456 C562.98933,315.799997 562.437336,315.280002 561.765332,314.896 C561.093329,314.511998 560.373336,314.32 559.605332,314.32 C558.309326,314.32 557.217337,314.771995 556.329332,315.676 C555.441328,316.580005 554.997332,317.687993 554.997332,319 C554.997332,320.312007 555.441328,321.419995 556.329332,322.324 C557.217337,323.228005 558.309326,323.68 559.605332,323.68 C560.373336,323.68 561.093329,323.488002 561.765332,323.104 C562.437336,322.719998 562.98933,322.200003 563.421332,321.544 L564.861332,322.24 C564.31733,323.136004 563.577337,323.851997 562.641332,324.388 C561.705328,324.924003 560.693338,325.192 559.605332,325.192 Z M578.103999,313 L579.687999,313 L579.687999,325 L578.103999,325 L578.103999,323.056 C576.871993,324.480007 575.312009,325.192 573.423999,325.192 C571.711991,325.192 570.252005,324.588006 569.043999,323.38 C567.835993,322.171994 567.231999,320.712009 567.231999,319 C567.231999,317.287991 567.835993,315.828006 569.043999,314.62 C570.252005,313.411994 571.711991,312.808 573.423999,312.808 C575.328009,312.808 576.887993,313.519993 578.103999,314.944 L578.103999,313 Z M573.447999,323.68 C574.744006,323.68 575.835995,323.228005 576.723999,322.324 C577.612004,321.419995 578.055999,320.312007 578.055999,319 C578.055999,317.687993 577.612004,316.580005 576.723999,315.676 C575.835995,314.771995 574.744006,314.32 573.447999,314.32 C572.167993,314.32 571.076004,314.771995 570.171999,315.676 C569.267995,316.580005 568.815999,317.687993 568.815999,319 C568.815999,320.312007 569.267995,321.419995 570.171999,322.324 C571.076004,323.228005 572.167993,323.68 573.447999,323.68 Z M590.170666,322.312 L590.962666,323.536 C590.866665,323.664001 590.738667,323.815999 590.578666,323.992 C590.418665,324.168001 590.058669,324.411998 589.498666,324.724 C588.938663,325.036002 588.362669,325.192 587.770666,325.192 C586.762661,325.192 585.918669,324.892003 585.238666,324.292 C584.558662,323.691997 584.218666,322.824006 584.218666,321.688 L584.218666,314.44 L582.298666,314.44 L582.298666,312.976 L584.218666,312.976 L584.218666,309.184 L585.802666,308.992 L585.802666,312.976 L589.426666,312.976 L589.426666,314.44 L585.802666,314.44 L585.802666,321.328 C585.802666,322.064004 586.030664,322.647998 586.486666,323.08 C586.942668,323.512002 587.466663,323.728 588.058666,323.728 C588.426668,323.728 588.786664,323.616001 589.138666,323.392 C589.490668,323.167999 589.750665,322.948001 589.918666,322.732 C590.086667,322.515999 590.170666,322.376 590.170666,322.312 Z M595.397333,309.4 C595.221332,309.592001 594.997334,309.688 594.725333,309.688 C594.453331,309.688 594.225334,309.592001 594.041333,309.4 C593.857332,309.207999 593.765333,308.984001 593.765333,308.728 C593.765333,308.471999 593.857332,308.248001 594.041333,308.056 C594.225334,307.863999 594.453331,307.768 594.725333,307.768 C594.997334,307.768 595.225332,307.863999 595.409333,308.056 C595.593334,308.248001 595.685333,308.471999 595.685333,308.728 C595.685333,308.984001 595.589334,309.207999 595.397333,309.4 Z M593.933333,325 L593.933333,313 L595.517333,313 L595.517333,325 L593.933333,325 Z M609.551999,323.368 C608.351993,324.584006 606.896008,325.192 605.183999,325.192 C603.471991,325.192 602.012005,324.588006 600.803999,323.38 C599.595993,322.171994 598.991999,320.712009 598.991999,319 C598.991999,317.287991 599.595993,315.828006 600.803999,314.62 C602.012005,313.411994 603.471991,312.808 605.183999,312.808 C606.896008,312.808 608.355993,313.411994 609.563999,314.62 C610.772005,315.828006 611.375999,317.287991 611.375999,319 C611.375999,320.696008 610.768005,322.151994 609.551999,323.368 Z M605.207999,323.68 C606.504006,323.68 607.595995,323.228005 608.483999,322.324 C609.372004,321.419995 609.815999,320.312007 609.815999,319 C609.815999,317.687993 609.372004,316.576005 608.483999,315.664 C607.595995,314.751995 606.504006,314.296 605.207999,314.296 C603.927993,314.296 602.840004,314.751995 601.943999,315.664 C601.047995,316.576005 600.599999,317.687993 600.599999,319 C600.599999,320.312007 601.047995,321.419995 601.943999,322.324 C602.840004,323.228005 603.927993,323.68 605.207999,323.68 Z M619.842666,312.808 C621.234673,312.808 622.402661,313.299995 623.346666,314.284 C624.290671,315.268005 624.762666,316.479993 624.762666,317.92 L624.762666,325 L623.154666,325 L623.154666,317.968 C623.154666,316.943995 622.806669,316.072004 622.110666,315.352 C621.414663,314.631996 620.570671,314.272 619.578666,314.272 C618.586661,314.272 617.742669,314.631996 617.046666,315.352 C616.350663,316.072004 616.002666,316.943995 616.002666,317.968 L616.002666,325 L614.418666,325 L614.418666,313 L616.002666,313 L616.002666,314.776 C616.978671,313.463993 618.258658,312.808 619.842666,312.808 Z M657.343999,308.872 L658.975999,308.872 L653.407999,325 L651.775999,325 L647.023999,311.032 L642.247999,325 L640.639999,325 L635.047999,308.872 L636.679999,308.872 L641.455999,322.552 L646.279999,308.872 L647.743999,308.872 L652.591999,322.552 L657.343999,308.872 Z M669.962666,313 L671.546666,313 L671.546666,325 L669.962666,325 L669.962666,323.056 C668.73066,324.480007 667.170676,325.192 665.282666,325.192 C663.570658,325.192 662.110672,324.588006 660.902666,323.38 C659.69466,322.171994 659.090666,320.712009 659.090666,319 C659.090666,317.287991 659.69466,315.828006 660.902666,314.62 C662.110672,313.411994 663.570658,312.808 665.282666,312.808 C667.186676,312.808 668.74666,313.519993 669.962666,314.944 L669.962666,313 Z M665.306666,323.68 C666.602673,323.68 667.694662,323.228005 668.582666,322.324 C669.470671,321.419995 669.914666,320.312007 669.914666,319 C669.914666,317.687993 669.470671,316.580005 668.582666,315.676 C667.694662,314.771995 666.602673,314.32 665.306666,314.32 C664.02666,314.32 662.934671,314.771995 662.030666,315.676 C661.126662,316.580005 660.674666,317.687993 660.674666,319 C660.674666,320.312007 661.126662,321.419995 662.030666,322.324 C662.934671,323.228005 664.02666,323.68 665.306666,323.68 Z M682.485333,313 L684.069333,313 L679.821333,325 L678.237333,325 L674.013333,313 L675.597333,313 L679.029333,322.768 L682.485333,313 Z M691.743999,323.608 C692.816005,323.608 693.775995,323.304003 694.623999,322.696 C695.472004,322.087997 696.047998,321.376004 696.351999,320.56 L697.695999,321.04 C697.327998,322.048005 696.612005,322.975996 695.547999,323.824 C694.483994,324.672004 693.216007,325.088 691.743999,325.072 C690.399993,325.072 689.172005,324.656004 688.059999,323.824 C686.947994,322.991996 686.192001,321.928006 685.791999,320.632 C685.631999,320.103997 685.551999,319.528003 685.551999,318.904 C685.551999,317.175991 686.151993,315.712006 687.351999,314.512 C688.552005,313.311994 690.015991,312.704 691.743999,312.688 C693.312007,312.704 694.679994,313.231995 695.847999,314.272 C697.016005,315.312005 697.687999,316.599992 697.863999,318.136 C697.88,318.216 697.887999,318.319999 697.887999,318.448 L687.399999,320.344 C687.672001,321.304005 688.215995,322.091997 689.031999,322.708 C689.848004,323.324003 690.751995,323.624 691.743999,323.608 Z M691.599999,314.152 C690.399993,314.168 689.372004,314.599996 688.515999,315.448 C687.659995,316.296004 687.2,317.311994 687.135999,318.496 C687.135999,318.544 687.139999,318.627999 687.147999,318.748 C687.156,318.868001 687.159999,318.968 687.159999,319.048 L696.087999,317.44 C695.783998,316.463995 695.216004,315.668003 694.383999,315.052 C693.551995,314.435997 692.624005,314.136 691.599999,314.152 Z M705.226666,312.952 L705.226666,314.272 L702.874666,314.272 L702.874666,325 L701.314666,325 L701.314666,314.272 L699.898666,314.272 L699.898666,312.952 L701.314666,312.952 L701.314666,309.472 C701.314666,307.807992 701.97066,306.976 703.282666,306.976 C703.570668,306.976 703.862665,307 704.158666,307.048 C704.454668,307.096 704.674665,307.144 704.818666,307.192 L705.034666,307.264 L704.698666,308.488 C704.378665,308.408 704.058668,308.368 703.738666,308.368 C703.386664,308.368 703.154667,308.483999 703.042666,308.716 C702.930666,308.948001 702.874666,309.391997 702.874666,310.048 L702.874666,312.952 L705.226666,312.952 Z M717.677333,323.368 C716.477327,324.584006 715.021341,325.192 713.309333,325.192 C711.597324,325.192 710.137339,324.588006 708.929333,323.38 C707.721327,322.171994 707.117333,320.712009 707.117333,319 C707.117333,317.287991 707.721327,315.828006 708.929333,314.62 C710.137339,313.411994 711.597324,312.808 713.309333,312.808 C715.021341,312.808 716.481327,313.411994 717.689333,314.62 C718.897339,315.828006 719.501333,317.287991 719.501333,319 C719.501333,320.696008 718.893339,322.151994 717.677333,323.368 Z M713.333333,323.68 C714.629339,323.68 715.721328,323.228005 716.609333,322.324 C717.497337,321.419995 717.941333,320.312007 717.941333,319 C717.941333,317.687993 717.497337,316.576005 716.609333,315.664 C715.721328,314.751995 714.629339,314.296 713.333333,314.296 C712.053326,314.296 710.965337,314.751995 710.069333,315.664 C709.173328,316.576005 708.725333,317.687993 708.725333,319 C708.725333,320.312007 709.173328,321.419995 710.069333,322.324 C710.965337,323.228005 712.053326,323.68 713.333333,323.68 Z M727.968,312.808 C728.816004,312.808 729.591996,313.015998 730.296,313.432 L729.744,315.016 C729.071996,314.519998 728.392003,314.272 727.704,314.272 C726.695995,314.272 725.848003,314.627996 725.16,315.34 C724.471996,316.052004 724.128,316.927995 724.128,317.968 L724.128,325 L722.544,325 L722.544,313 L724.128,313 L724.128,314.776 C725.104004,313.463993 726.383992,312.808 727.968,312.808 Z M747.282666,312.808 C748.674673,312.808 749.842662,313.299995 750.786666,314.284 C751.730671,315.268005 752.202666,316.479993 752.202666,317.92 L752.202666,325 L750.570666,325 L750.570666,317.968 C750.570666,316.927995 750.23067,316.052004 749.550666,315.34 C748.870663,314.627996 748.026671,314.272 747.018666,314.272 C746.010661,314.272 745.16267,314.627996 744.474666,315.34 C743.786663,316.052004 743.442666,316.927995 743.442666,317.968 L743.442666,325 L741.834666,325 L741.834666,317.968 C741.834666,316.943995 741.48667,316.072004 740.790666,315.352 C740.094663,314.631996 739.250671,314.272 738.258666,314.272 C737.266661,314.272 736.42267,314.631996 735.726666,315.352 C735.030663,316.072004 734.682666,316.943995 734.682666,317.968 L734.682666,325 L733.098666,325 L733.098666,313 L734.682666,313 L734.682666,314.776 C735.658671,313.463993 736.938658,312.808 738.522666,312.808 C739.434671,312.808 740.270662,313.039998 741.030666,313.504 C741.79067,313.968002 742.386664,314.591996 742.818666,315.376 C743.234668,314.591996 743.834662,313.968002 744.618666,313.504 C745.40267,313.039998 746.290661,312.808 747.282666,312.808 Z M775.784,308.872 L775.784,310.456 L770.048,310.456 L770.048,325 L768.464,325 L768.464,310.456 L762.728,310.456 L762.728,308.872 L775.784,308.872 Z M781.442666,312.808 C782.290671,312.808 783.066663,313.015998 783.770666,313.432 L783.218666,315.016 C782.546663,314.519998 781.86667,314.272 781.178666,314.272 C780.170661,314.272 779.32267,314.627996 778.634666,315.34 C777.946663,316.052004 777.602666,316.927995 777.602666,317.968 L777.602666,325 L776.018666,325 L776.018666,313 L777.602666,313 L777.602666,314.776 C778.578671,313.463993 779.858658,312.808 781.442666,312.808 Z M795.765333,313 L797.349333,313 L797.349333,325 L795.765333,325 L795.765333,323.056 C794.533327,324.480007 792.973343,325.192 791.085333,325.192 C789.373325,325.192 787.913339,324.588006 786.705333,323.38 C785.497327,322.171994 784.893333,320.712009 784.893333,319 C784.893333,317.287991 785.497327,315.828006 786.705333,314.62 C787.913339,313.411994 789.373325,312.808 791.085333,312.808 C792.989343,312.808 794.549327,313.519993 795.765333,314.944 L795.765333,313 Z M791.109333,323.68 C792.40534,323.68 793.497329,323.228005 794.385333,322.324 C795.273338,321.419995 795.717333,320.312007 795.717333,319 C795.717333,317.687993 795.273338,316.580005 794.385333,315.676 C793.497329,314.771995 792.40534,314.32 791.109333,314.32 C789.829327,314.32 788.737338,314.771995 787.833333,315.676 C786.929329,316.580005 786.477333,317.687993 786.477333,319 C786.477333,320.312007 786.929329,321.419995 787.833333,322.324 C788.737338,323.228005 789.829327,323.68 791.109333,323.68 Z M806.68,312.808 C808.072007,312.808 809.239995,313.299995 810.184,314.284 C811.128005,315.268005 811.6,316.479993 811.6,317.92 L811.6,325 L809.992,325 L809.992,317.968 C809.992,316.943995 809.644003,316.072004 808.948,315.352 C808.251996,314.631996 807.408005,314.272 806.416,314.272 C805.423995,314.272 804.580003,314.631996 803.884,315.352 C803.187996,316.072004 802.84,316.943995 802.84,317.968 L802.84,325 L801.256,325 L801.256,313 L802.84,313 L802.84,314.776 C803.816005,313.463993 805.095992,312.808 806.68,312.808 Z M819.514666,325.192 C818.970664,325.192 818.442669,325.124001 817.930666,324.988 C817.418664,324.851999 816.990668,324.692001 816.646667,324.508 C816.302665,324.323999 815.994668,324.136001 815.722667,323.944 C815.450665,323.751999 815.250667,323.592001 815.122666,323.464 L814.930666,323.248 L816.058666,322.288 C816.170667,322.400001 816.326665,322.535999 816.526666,322.696 C816.726667,322.856001 817.130663,323.071999 817.738666,323.344 C818.34667,323.616001 818.946664,323.752 819.538666,323.752 C820.418671,323.752 821.122664,323.584002 821.650666,323.248 C822.178669,322.911998 822.442666,322.440003 822.442666,321.832 C822.442666,321.399998 822.178669,321.028002 821.650666,320.716 C821.122664,320.403998 820.48267,320.136001 819.730666,319.912 C818.978663,319.687999 818.22267,319.440001 817.462667,319.168 C816.702663,318.895999 816.058669,318.512002 815.530667,318.016 C815.002664,317.519998 814.738666,316.912004 814.738666,316.192 C814.738666,315.199995 815.110663,314.388003 815.854667,313.756 C816.59867,313.123997 817.698659,312.808 819.154666,312.808 C820.018671,312.808 820.834663,312.967998 821.602666,313.288 C822.37067,313.608002 822.922665,313.927998 823.258667,314.248 L823.762667,314.728 L822.634666,315.712 C822.522666,315.599999 822.366667,315.464001 822.166667,315.304 C821.966665,315.143999 821.56267,314.928001 820.954667,314.656 C820.346663,314.383999 819.73867,314.248 819.130666,314.248 C818.266662,314.248 817.566669,314.415998 817.030667,314.752 C816.494664,315.088002 816.226666,315.559997 816.226666,316.168 C816.226666,316.600002 816.490664,316.971998 817.018666,317.284 C817.546669,317.596002 818.186663,317.863999 818.938666,318.088 C819.69067,318.312001 820.446663,318.555999 821.206666,318.82 C821.96667,319.084001 822.610664,319.467997 823.138666,319.972 C823.666669,320.476003 823.930666,321.087996 823.930666,321.808 C823.930666,322.816005 823.56267,323.631997 822.826666,324.256 C822.090663,324.880003 820.986674,325.192 819.514666,325.192 Z M831.797333,312.952 L831.797333,314.272 L829.445333,314.272 L829.445333,325 L827.885333,325 L827.885333,314.272 L826.469333,314.272 L826.469333,312.952 L827.885333,312.952 L827.885333,309.472 C827.885333,307.807992 828.541327,306.976 829.853333,306.976 C830.141335,306.976 830.433332,307 830.729333,307.048 C831.025335,307.096 831.245332,307.144 831.389333,307.192 L831.605333,307.264 L831.269333,308.488 C830.949332,308.408 830.629335,308.368 830.309333,308.368 C829.957331,308.368 829.725334,308.483999 829.613333,308.716 C829.501333,308.948001 829.445333,309.391997 829.445333,310.048 L829.445333,312.952 L831.797333,312.952 Z M844.248,323.368 C843.047994,324.584006 841.592008,325.192 839.88,325.192 C838.167991,325.192 836.708006,324.588006 835.5,323.38 C834.291994,322.171994 833.688,320.712009 833.688,319 C833.688,317.287991 834.291994,315.828006 835.5,314.62 C836.708006,313.411994 838.167991,312.808 839.88,312.808 C841.592008,312.808 843.051994,313.411994 844.26,314.62 C845.468006,315.828006 846.072,317.287991 846.072,319 C846.072,320.696008 845.464006,322.151994 844.248,323.368 Z M839.904,323.68 C841.200006,323.68 842.291995,323.228005 843.18,322.324 C844.068004,321.419995 844.512,320.312007 844.512,319 C844.512,317.687993 844.068004,316.576005 843.18,315.664 C842.291995,314.751995 841.200006,314.296 839.904,314.296 C838.623993,314.296 837.536004,314.751995 836.64,315.664 C835.743995,316.576005 835.296,317.687993 835.296,319 C835.296,320.312007 835.743995,321.419995 836.64,322.324 C837.536004,323.228005 838.623993,323.68 839.904,323.68 Z M854.538667,312.808 C855.386671,312.808 856.162663,313.015998 856.866667,313.432 L856.314667,315.016 C855.642663,314.519998 854.96267,314.272 854.274667,314.272 C853.266662,314.272 852.41867,314.627996 851.730667,315.34 C851.042663,316.052004 850.698667,316.927995 850.698667,317.968 L850.698667,325 L849.114667,325 L849.114667,313 L850.698667,313 L850.698667,314.776 C851.674671,313.463993 852.954659,312.808 854.538667,312.808 Z M873.853333,312.808 C875.24534,312.808 876.413329,313.299995 877.357333,314.284 C878.301338,315.268005 878.773333,316.479993 878.773333,317.92 L878.773333,325 L877.141333,325 L877.141333,317.968 C877.141333,316.927995 876.801337,316.052004 876.121333,315.34 C875.44133,314.627996 874.597338,314.272 873.589333,314.272 C872.581328,314.272 871.733337,314.627996 871.045333,315.34 C870.35733,316.052004 870.013333,316.927995 870.013333,317.968 L870.013333,325 L868.405333,325 L868.405333,317.968 C868.405333,316.943995 868.057337,316.072004 867.361333,315.352 C866.66533,314.631996 865.821338,314.272 864.829333,314.272 C863.837328,314.272 862.993337,314.631996 862.297333,315.352 C861.60133,316.072004 861.253333,316.943995 861.253333,317.968 L861.253333,325 L859.669333,325 L859.669333,313 L861.253333,313 L861.253333,314.776 C862.229338,313.463993 863.509325,312.808 865.093333,312.808 C866.005338,312.808 866.841329,313.039998 867.601333,313.504 C868.361337,313.968002 868.957331,314.591996 869.389333,315.376 C869.805335,314.591996 870.405329,313.968002 871.189333,313.504 C871.973337,313.039998 872.861328,312.808 873.853333,312.808 Z" id="Rectification-Wavefo-Copy" fill="#23ABE3"></path>
        <g id="Illustration" transform="translate(18.000000, 38.000000)">
            <g id="DC" transform="translate(467.000000, 0.000000)">
                <path d="M80,13 L80,213" id="Line-7-Copy-2" stroke="#3D3530" stroke-width="3" stroke-linecap="square"></path>
                <path d="M377,112 L64,112" id="Line-7-Copy-6" stroke="#3D3530" stroke-width="3" stroke-linecap="square"></path>
                <path d="M6,11 L6,5 L8,5 L8,11 L14,11 L14,13 L8,13 L8,19 L6,19 L6,13 L0,13 L0,11 L6,11 Z" id="Combined-Shape" fill="#524740"></path>
                <path d="M32.136,107.856 C33.2400055,106.751994 34.5599923,106.2 36.096,106.2 C37.6320077,106.2 38.9479945,106.747995 40.044,107.844 C41.1400055,108.940005 41.688,110.255992 41.688,111.792 C41.688,113.344008 41.1400055,114.667995 40.044,115.764 C38.9479945,116.860005 37.6320077,117.408 36.096,117.408 C34.5599923,117.408 33.2440055,116.860005 32.148,115.764 C31.0519945,114.667995 30.504,113.344008 30.504,111.792 C30.504,110.255992 31.0479946,108.944005 32.136,107.856 Z M36.096,107.568 C34.9759944,107.568 34.020004,107.983996 33.228,108.816 C32.435996,109.648004 32.04,110.639994 32.04,111.792 C32.04,112.960006 32.435996,113.955996 33.228,114.78 C34.020004,115.604004 34.9759944,116.016 36.096,116.016 C37.2000055,116.016 38.151996,115.604004 38.952,114.78 C39.752004,113.955996 40.152,112.960006 40.152,111.792 C40.152,110.639994 39.752004,109.648004 38.952,108.816 C38.151996,107.983996 37.2000055,107.568 36.096,107.568 Z M58.896,103.104 C57.9519953,103.104 57.3400014,103.219999 57.06,103.452 C56.7799986,103.684001 56.440002,104.263995 56.04,105.192 L50.76,117.408 L50.448,117.408 L45.144,105.192 C44.743998,104.263995 44.4040014,103.684001 44.124,103.452 C43.8439986,103.219999 43.2320047,103.104 42.288,103.104 L42.288,102.6 L48.936,102.6 L48.936,103.104 C47.943995,103.104 47.3080014,103.243999 47.028,103.524 C46.7479986,103.804001 46.7599985,104.271997 47.064,104.928 L51.144,114.264 L55.176,104.928 C55.4800015,104.271997 55.4920014,103.804001 55.212,103.524 C54.9319986,103.243999 54.296005,103.104 53.304,103.104 L53.304,102.6 L58.896,102.6 L58.896,103.104 Z" id="0V-Copy-2" fill="#524740"></path>
                <path d="M27.792,17 L21.48,17 L21.48,16.496 C22.472005,16.496 23.1039986,16.3280017 23.376,15.992 C23.6480014,15.6559983 23.784,14.888006 23.784,13.688 L23.784,9.896 C23.784,8.695994 23.6480014,7.92800168 23.376,7.592 C23.1039986,7.25599832 22.472005,7.088 21.48,7.088 L21.48,6.608 L27.792,6.608 L27.792,7.088 C26.783995,7.088 26.1480013,7.25199836 25.884,7.58 C25.6199987,7.90800164 25.488,8.67999392 25.488,9.896 L25.488,13.688 C25.488,14.9040061 25.6199987,15.6759984 25.884,16.004 C26.1480013,16.3320016 26.783995,16.496 27.792,16.496 L27.792,17 Z M36.504,17 L30.192,17 L30.192,16.496 C31.184005,16.496 31.8159986,16.3280017 32.088,15.992 C32.3600014,15.6559983 32.496,14.888006 32.496,13.688 L32.496,9.896 C32.496,8.695994 32.3600014,7.92800168 32.088,7.592 C31.8159986,7.25599832 31.184005,7.088 30.192,7.088 L30.192,6.608 L36.504,6.608 L36.504,7.088 C35.495995,7.088 34.8600013,7.25199836 34.596,7.58 C34.3319987,7.90800164 34.2,8.67999392 34.2,9.896 L34.2,13.688 C34.2,14.9040061 34.3319987,15.6759984 34.596,16.004 C34.8600013,16.3320016 35.495995,16.496 36.504,16.496 L36.504,17 Z M40.848,7.856 C41.9520055,6.75199448 43.2719923,6.2 44.808,6.2 C46.3440077,6.2 47.6599945,6.74799452 48.756,7.844 C49.8520055,8.94000548 50.4,10.2559923 50.4,11.792 C50.4,13.3440078 49.8520055,14.6679945 48.756,15.764 C47.6599945,16.8600055 46.3440077,17.408 44.808,17.408 C43.2719923,17.408 41.9560055,16.8600055 40.86,15.764 C39.7639945,14.6679945 39.216,13.3440078 39.216,11.792 C39.216,10.2559923 39.7599946,8.94400544 40.848,7.856 Z M44.808,7.568 C43.6879944,7.568 42.732004,7.98399584 41.94,8.816 C41.147996,9.64800416 40.752,10.6399942 40.752,11.792 C40.752,12.9600058 41.147996,13.9559959 41.94,14.78 C42.732004,15.6040041 43.6879944,16.016 44.808,16.016 C45.9120055,16.016 46.863996,15.6040041 47.664,14.78 C48.464004,13.9559959 48.864,12.9600058 48.864,11.792 C48.864,10.6399942 48.464004,9.64800416 47.664,8.816 C46.863996,7.98399584 45.9120055,7.568 44.808,7.568 Z M67.608,3.104 C66.6639953,3.104 66.0520014,3.21999884 65.772,3.452 C65.4919986,3.68400116 65.152002,4.26399536 64.752,5.192 L59.472,17.408 L59.16,17.408 L53.856,5.192 C53.455998,4.26399536 53.1160014,3.68400116 52.836,3.452 C52.5559986,3.21999884 51.9440047,3.104 51,3.104 L51,2.6 L57.648,2.6 L57.648,3.104 C56.655995,3.104 56.0200014,3.2439986 55.74,3.524 C55.4599986,3.8040014 55.4719985,4.27199672 55.776,4.928 L59.856,14.264 L63.888,4.928 C64.1920015,4.27199672 64.2040014,3.8040014 63.924,3.524 C63.6439986,3.2439986 63.008005,3.104 62.016,3.104 L62.016,2.6 L67.608,2.6 L67.608,3.104 Z" id="110V-Copy-3" fill="#524740"></path>
                <path d="M80.7460938,111.019531 C104.248698,45.6731771 127.666667,13 151,13 C167.855331,13 184.406946,30.0495283 200.654846,64.1485848 C204.817878,72.8854356 211.017565,88.5090844 219.253906,111.019531" id="Path-2" stroke="#EF7D3B" stroke-width="3"></path>
                <path d="M218.746094,111.019531 C242.248698,45.6731771 265.666667,13 289,13 C305.855331,13 322.406946,30.0495283 338.654846,64.1485848 C342.817878,72.8854356 349.017565,88.5090844 357.253906,111.019531" id="Path-2-Copy" stroke="#EF7D3B" stroke-width="3"></path>
            </g>
            <g id="Alternating_Current">
                <path d="M87,13 L87,213" id="Line-7-Copy-2" stroke="#3D3530" stroke-width="3" stroke-linecap="square"></path>
                <path d="M384,112 L71,112" id="Line-7-Copy-6" stroke="#3D3530" stroke-width="3" stroke-linecap="square"></path>
                <rect id="Rectangle" fill="#524740" x="8" y="212" width="13" height="2"></rect>
                <path d="M13,11 L13,5 L15,5 L15,11 L21,11 L21,13 L15,13 L15,19 L13,19 L13,13 L7,13 L7,11 L13,11 Z" id="Combined-Shape" fill="#524740"></path>
                <path d="M-7.94,104.104 C-8.88400472,104.104 -9.4959986,104.219999 -9.776,104.452 C-10.0560014,104.684001 -10.395998,105.263995 -10.796,106.192 L-16.076,118.408 L-16.388,118.408 L-21.692,106.192 C-22.092002,105.263995 -22.4319986,104.684001 -22.712,104.452 C-22.9920014,104.219999 -23.6039953,104.104 -24.548,104.104 L-24.548,103.6 L-17.9,103.6 L-17.9,104.104 C-18.892005,104.104 -19.5279986,104.243999 -19.808,104.524 C-20.0880014,104.804001 -20.0760015,105.271997 -19.772,105.928 L-15.692,115.264 L-11.66,105.928 C-11.3559985,105.271997 -11.3439986,104.804001 -11.624,104.524 C-11.9040014,104.243999 -12.539995,104.104 -13.532,104.104 L-13.532,103.6 L-7.94,103.6 L-7.94,104.104 Z M0.58,110.896 C1.5400048,111.744004 2.02,112.775994 2.02,113.992 C2.02,115.208006 1.54400476,116.247996 0.592,117.112 C-0.36000476,117.976004 -1.49999336,118.408 -2.828,118.408 C-4.15600664,118.408 -5.29599524,117.976004 -6.248,117.112 C-7.20000476,116.247996 -7.676,115.208006 -7.676,113.992 C-7.676,112.775994 -7.20000476,111.740004 -6.248,110.884 C-5.29599524,110.027996 -4.15600664,109.6 -2.828,109.6 C-1.49999336,109.6 -0.36400472,110.031996 0.58,110.896 Z M-0.668,116.512 C-0.17199752,115.855997 0.076,115.016005 0.076,113.992 C0.076,112.967995 -0.17199752,112.132003 -0.668,111.484 C-1.16400248,110.835997 -1.88399528,110.512 -2.828,110.512 C-3.77200472,110.512 -4.49199752,110.839997 -4.988,111.496 C-5.48400248,112.152003 -5.732,112.983995 -5.732,113.992 C-5.732,115.000005 -5.48400248,115.831997 -4.988,116.488 C-4.49199752,117.144003 -3.77200472,117.472 -2.828,117.472 C-1.88399528,117.472 -1.16400248,117.152003 -0.668,116.512 Z M9.124,118 L3.628,118 L3.628,117.496 C4.428004,117.496 4.94399884,117.328002 5.176,116.992 C5.40800116,116.655998 5.524,115.888006 5.524,114.688 L5.524,107.104 C5.524,105.903994 5.40800116,105.136002 5.176,104.8 C4.94399884,104.463998 4.428004,104.296 3.628,104.296 L3.628,103.792 L7.228,103.192 L7.228,114.688 C7.228,115.888006 7.34399884,116.655998 7.576,116.992 C7.80800116,117.328002 8.323996,117.496 9.124,117.496 L9.124,118 Z M11.524,110.848 L10.276,110.848 L10.276,110.272 C10.9640034,110.127999 11.4679984,109.816002 11.788,109.336 C12.1080016,108.855998 12.3159995,108.200004 12.412,107.368 L13.228,107.368 L13.228,110.008 L15.316,110.008 L15.316,110.848 L13.228,110.848 L13.228,115.648 C13.228,116.800006 13.5879964,117.376 14.308,117.376 C14.7720023,117.376 15.2919971,117.104003 15.868,116.56 L16.276,116.968 C15.9399983,117.368002 15.5360024,117.695999 15.064,117.952 C14.5919976,118.208001 14.156002,118.336 13.756,118.336 C13.0679966,118.336 12.524002,118.112002 12.124,117.664 C11.723998,117.215998 11.524,116.544004 11.524,115.648 L11.524,110.848 Z M25.972,117.52 C25.5079977,118.016002 24.980003,118.264 24.388,118.264 C23.4279952,118.264 22.8840006,117.800005 22.756,116.872 C21.6839946,117.832005 20.6840046,118.312 19.756,118.312 C19.147997,118.312 18.6360021,118.132002 18.22,117.772 C17.8039979,117.411998 17.596,116.920003 17.596,116.296 C17.596,114.615992 19.299983,113.480003 22.708,112.888 C22.708,111.943995 22.604001,111.288002 22.396,110.92 C22.187999,110.551998 21.7560033,110.368 21.1,110.368 C20.7799984,110.368 20.4720015,110.471999 20.176,110.68 C19.8799985,110.888001 19.732,111.167998 19.732,111.52 C19.732,111.760001 19.6520008,111.959999 19.492,112.12 C19.3319992,112.280001 19.1400011,112.36 18.916,112.36 C18.6759988,112.36 18.4760008,112.280001 18.316,112.12 C18.1559992,111.959999 18.076,111.760001 18.076,111.52 C18.076,110.959997 18.3839969,110.500002 19,110.14 C19.6160031,109.779998 20.323996,109.6 21.124,109.6 C22.2920058,109.6 23.1319974,109.855997 23.644,110.368 C24.1560026,110.880003 24.412,111.711994 24.412,112.864 L24.412,116.488 C24.412,117.112003 24.5959982,117.424 24.964,117.424 C25.172001,117.424 25.3959988,117.304001 25.636,117.064 L25.972,117.52 Z M22.708,116.08 L22.708,113.632 C20.499989,114.144003 19.396,114.935995 19.396,116.008 C19.396,116.376002 19.5039989,116.671999 19.72,116.896 C19.9360011,117.120001 20.2039984,117.232 20.524,117.232 C21.116003,117.232 21.8439957,116.848004 22.708,116.08 Z M32.212,114.664 C32.5160015,114.199998 32.668,113.600004 32.668,112.864 C32.668,112.127996 32.5200015,111.528002 32.224,111.064 C31.9279985,110.599998 31.5000028,110.368 30.94,110.368 C30.3799972,110.368 29.9480015,110.599998 29.644,111.064 C29.3399985,111.528002 29.188,112.127996 29.188,112.864 C29.188,113.600004 29.3399985,114.195998 29.644,114.652 C29.9480015,115.108002 30.3799972,115.336 30.94,115.336 C31.5000028,115.336 31.9239986,115.112002 32.212,114.664 Z M28.708,117.136 C28.708,117.616002 29.4359927,117.919999 30.892,118.048 C32.4280077,118.176001 33.5399966,118.527997 34.228,119.104 C34.9160034,119.680003 35.26,120.375996 35.26,121.192 C35.26,122.168005 34.856004,122.947997 34.048,123.532 C33.239996,124.116003 32.2280061,124.408 31.012,124.408 C29.7159935,124.408 28.672004,124.140003 27.88,123.604 C27.087996,123.067997 26.7239997,122.440004 26.788,121.72 C26.8520003,120.999996 27.3639952,120.392002 28.324,119.896 L28.756,120.16 C28.2919977,120.688003 28.0440002,121.171998 28.012,121.612 C27.9799998,122.052002 28.1199984,122.399999 28.432,122.656 C28.7440016,122.912001 29.1279977,123.111999 29.584,123.256 C30.0400023,123.400001 30.5159975,123.472 31.012,123.472 C31.7960039,123.472 32.487997,123.300002 33.088,122.956 C33.688003,122.611998 33.988,122.168003 33.988,121.624 C33.988,121.095997 33.7280026,120.712001 33.208,120.472 C32.6879974,120.231999 31.8760055,120.056001 30.772,119.944 C28.4999886,119.719999 27.364,118.976006 27.364,117.712 C27.364,116.847996 28.0359933,116.208002 29.38,115.792 C28.7559969,115.503999 28.2640018,115.104003 27.904,114.592 C27.5439982,114.079997 27.364,113.504003 27.364,112.864 C27.364,111.967996 27.7119965,111.200003 28.408,110.56 C29.1040035,109.919997 29.947995,109.6 30.94,109.6 C31.9000048,109.6 32.7239966,109.903997 33.412,110.512 C33.620001,110.255999 33.9039982,110.040001 34.264,109.864 C34.6240018,109.687999 34.9399986,109.6 35.212,109.6 C35.9160035,109.6 36.363999,109.895997 36.556,110.488 C36.7000007,110.936002 36.6280014,111.271999 36.34,111.496 C36.2439995,111.576 36.1320006,111.616 36.004,111.616 C35.7639988,111.632 35.5840006,111.584001 35.464,111.472 C35.3439994,111.359999 35.2720001,111.236001 35.248,111.1 C35.2239999,110.963999 35.1600005,110.836001 35.056,110.716 C34.9519995,110.595999 34.7880011,110.536 34.564,110.536 C34.3239988,110.536 34.0760013,110.663999 33.82,110.92 C34.2840023,111.480003 34.516,112.127996 34.516,112.864 C34.516,113.712004 34.2040031,114.439997 33.58,115.048 C32.9559969,115.656003 32.2280042,116.015999 31.396,116.128 C29.603991,116.336001 28.708,116.671998 28.708,117.136 Z M39.724,112.504 L43.708,112.504 C43.8680008,112.055998 43.8000015,111.620002 43.504,111.196 C43.2079985,110.771998 42.7000036,110.56 41.98,110.56 C41.4679974,110.56 41.008002,110.735998 40.6,111.088 C40.191998,111.440002 39.9000009,111.911997 39.724,112.504 Z M39.58,113.392 C39.4359993,114.576006 39.6239974,115.539996 40.144,116.284 C40.6640026,117.028004 41.5159941,117.4 42.7,117.4 C43.100002,117.4 43.5559974,117.296001 44.068,117.088 C44.5800026,116.879999 45.0039983,116.616002 45.34,116.296 L45.772,116.824 C45.3399978,117.288002 44.7880034,117.667999 44.116,117.964 C43.4439966,118.260001 42.7720034,118.408 42.1,118.408 C40.8039935,118.408 39.7400042,117.980004 38.908,117.124 C38.0759958,116.267996 37.66,115.224006 37.66,113.992 C37.66,112.759994 38.1119955,111.720004 39.016,110.872 C39.9200045,110.023996 40.9479942,109.6 42.1,109.6 C43.1880054,109.6 44.0759966,109.979996 44.764,110.74 C45.4520034,111.500004 45.6520014,112.383995 45.364,113.392 L39.58,113.392 Z" id="Voltage-Copy" fill="#524740" transform="translate(10.612000, 113.800000) rotate(-90.000000) translate(-10.612000, -113.800000) "></path>
                <path d="M39.136,107.856 C40.2400055,106.751994 41.5599923,106.2 43.096,106.2 C44.6320077,106.2 45.9479945,106.747995 47.044,107.844 C48.1400055,108.940005 48.688,110.255992 48.688,111.792 C48.688,113.344008 48.1400055,114.667995 47.044,115.764 C45.9479945,116.860005 44.6320077,117.408 43.096,117.408 C41.5599923,117.408 40.2440055,116.860005 39.148,115.764 C38.0519945,114.667995 37.504,113.344008 37.504,111.792 C37.504,110.255992 38.0479946,108.944005 39.136,107.856 Z M43.096,107.568 C41.9759944,107.568 41.020004,107.983996 40.228,108.816 C39.435996,109.648004 39.04,110.639994 39.04,111.792 C39.04,112.960006 39.435996,113.955996 40.228,114.78 C41.020004,115.604004 41.9759944,116.016 43.096,116.016 C44.2000055,116.016 45.151996,115.604004 45.952,114.78 C46.752004,113.955996 47.152,112.960006 47.152,111.792 C47.152,110.639994 46.752004,109.648004 45.952,108.816 C45.151996,107.983996 44.2000055,107.568 43.096,107.568 Z M65.896,103.104 C64.9519953,103.104 64.3400014,103.219999 64.06,103.452 C63.7799986,103.684001 63.440002,104.263995 63.04,105.192 L57.76,117.408 L57.448,117.408 L52.144,105.192 C51.743998,104.263995 51.4040014,103.684001 51.124,103.452 C50.8439986,103.219999 50.2320047,103.104 49.288,103.104 L49.288,102.6 L55.936,102.6 L55.936,103.104 C54.943995,103.104 54.3080014,103.243999 54.028,103.524 C53.7479986,103.804001 53.7599985,104.271997 54.064,104.928 L58.144,114.264 L62.176,104.928 C62.4800015,104.271997 62.4920014,103.804001 62.212,103.524 C61.9319986,103.243999 61.296005,103.104 60.304,103.104 L60.304,102.6 L65.896,102.6 L65.896,103.104 Z" id="0V-Copy" fill="#524740"></path>
                <path d="M34.792,17 L28.48,17 L28.48,16.496 C29.472005,16.496 30.1039986,16.3280017 30.376,15.992 C30.6480014,15.6559983 30.784,14.888006 30.784,13.688 L30.784,9.896 C30.784,8.695994 30.6480014,7.92800168 30.376,7.592 C30.1039986,7.25599832 29.472005,7.088 28.48,7.088 L28.48,6.608 L34.792,6.608 L34.792,7.088 C33.783995,7.088 33.1480013,7.25199836 32.884,7.58 C32.6199987,7.90800164 32.488,8.67999392 32.488,9.896 L32.488,13.688 C32.488,14.9040061 32.6199987,15.6759984 32.884,16.004 C33.1480013,16.3320016 33.783995,16.496 34.792,16.496 L34.792,17 Z M43.504,17 L37.192,17 L37.192,16.496 C38.184005,16.496 38.8159986,16.3280017 39.088,15.992 C39.3600014,15.6559983 39.496,14.888006 39.496,13.688 L39.496,9.896 C39.496,8.695994 39.3600014,7.92800168 39.088,7.592 C38.8159986,7.25599832 38.184005,7.088 37.192,7.088 L37.192,6.608 L43.504,6.608 L43.504,7.088 C42.495995,7.088 41.8600013,7.25199836 41.596,7.58 C41.3319987,7.90800164 41.2,8.67999392 41.2,9.896 L41.2,13.688 C41.2,14.9040061 41.3319987,15.6759984 41.596,16.004 C41.8600013,16.3320016 42.495995,16.496 43.504,16.496 L43.504,17 Z M47.848,7.856 C48.9520055,6.75199448 50.2719923,6.2 51.808,6.2 C53.3440077,6.2 54.6599945,6.74799452 55.756,7.844 C56.8520055,8.94000548 57.4,10.2559923 57.4,11.792 C57.4,13.3440078 56.8520055,14.6679945 55.756,15.764 C54.6599945,16.8600055 53.3440077,17.408 51.808,17.408 C50.2719923,17.408 48.9560055,16.8600055 47.86,15.764 C46.7639945,14.6679945 46.216,13.3440078 46.216,11.792 C46.216,10.2559923 46.7599946,8.94400544 47.848,7.856 Z M51.808,7.568 C50.6879944,7.568 49.732004,7.98399584 48.94,8.816 C48.147996,9.64800416 47.752,10.6399942 47.752,11.792 C47.752,12.9600058 48.147996,13.9559959 48.94,14.78 C49.732004,15.6040041 50.6879944,16.016 51.808,16.016 C52.9120055,16.016 53.863996,15.6040041 54.664,14.78 C55.464004,13.9559959 55.864,12.9600058 55.864,11.792 C55.864,10.6399942 55.464004,9.64800416 54.664,8.816 C53.863996,7.98399584 52.9120055,7.568 51.808,7.568 Z M74.608,3.104 C73.6639953,3.104 73.0520014,3.21999884 72.772,3.452 C72.4919986,3.68400116 72.152002,4.26399536 71.752,5.192 L66.472,17.408 L66.16,17.408 L60.856,5.192 C60.455998,4.26399536 60.1160014,3.68400116 59.836,3.452 C59.5559986,3.21999884 58.9440047,3.104 58,3.104 L58,2.6 L64.648,2.6 L64.648,3.104 C63.655995,3.104 63.0200014,3.2439986 62.74,3.524 C62.4599986,3.8040014 62.4719985,4.27199672 62.776,4.928 L66.856,14.264 L70.888,4.928 C71.1920015,4.27199672 71.2040014,3.8040014 70.924,3.524 C70.6439986,3.2439986 70.008005,3.104 69.016,3.104 L69.016,2.6 L74.608,2.6 L74.608,3.104 Z" id="110V-Copy-2" fill="#524740"></path>
                <path d="M34.792,217 L28.48,217 L28.48,216.496 C29.472005,216.496 30.1039986,216.328002 30.376,215.992 C30.6480014,215.655998 30.784,214.888006 30.784,213.688 L30.784,209.896 C30.784,208.695994 30.6480014,207.928002 30.376,207.592 C30.1039986,207.255998 29.472005,207.088 28.48,207.088 L28.48,206.608 L34.792,206.608 L34.792,207.088 C33.783995,207.088 33.1480013,207.251998 32.884,207.58 C32.6199987,207.908002 32.488,208.679994 32.488,209.896 L32.488,213.688 C32.488,214.904006 32.6199987,215.675998 32.884,216.004 C33.1480013,216.332002 33.783995,216.496 34.792,216.496 L34.792,217 Z M43.504,217 L37.192,217 L37.192,216.496 C38.184005,216.496 38.8159986,216.328002 39.088,215.992 C39.3600014,215.655998 39.496,214.888006 39.496,213.688 L39.496,209.896 C39.496,208.695994 39.3600014,207.928002 39.088,207.592 C38.8159986,207.255998 38.184005,207.088 37.192,207.088 L37.192,206.608 L43.504,206.608 L43.504,207.088 C42.495995,207.088 41.8600013,207.251998 41.596,207.58 C41.3319987,207.908002 41.2,208.679994 41.2,209.896 L41.2,213.688 C41.2,214.904006 41.3319987,215.675998 41.596,216.004 C41.8600013,216.332002 42.495995,216.496 43.504,216.496 L43.504,217 Z M47.848,207.856 C48.9520055,206.751994 50.2719923,206.2 51.808,206.2 C53.3440077,206.2 54.6599945,206.747995 55.756,207.844 C56.8520055,208.940005 57.4,210.255992 57.4,211.792 C57.4,213.344008 56.8520055,214.667995 55.756,215.764 C54.6599945,216.860005 53.3440077,217.408 51.808,217.408 C50.2719923,217.408 48.9560055,216.860005 47.86,215.764 C46.7639945,214.667995 46.216,213.344008 46.216,211.792 C46.216,210.255992 46.7599946,208.944005 47.848,207.856 Z M51.808,207.568 C50.6879944,207.568 49.732004,207.983996 48.94,208.816 C48.147996,209.648004 47.752,210.639994 47.752,211.792 C47.752,212.960006 48.147996,213.955996 48.94,214.78 C49.732004,215.604004 50.6879944,216.016 51.808,216.016 C52.9120055,216.016 53.863996,215.604004 54.664,214.78 C55.464004,213.955996 55.864,212.960006 55.864,211.792 C55.864,210.639994 55.464004,209.648004 54.664,208.816 C53.863996,207.983996 52.9120055,207.568 51.808,207.568 Z M74.608,203.104 C73.6639953,203.104 73.0520014,203.219999 72.772,203.452 C72.4919986,203.684001 72.152002,204.263995 71.752,205.192 L66.472,217.408 L66.16,217.408 L60.856,205.192 C60.455998,204.263995 60.1160014,203.684001 59.836,203.452 C59.5559986,203.219999 58.9440047,203.104 58,203.104 L58,202.6 L64.648,202.6 L64.648,203.104 C63.655995,203.104 63.0200014,203.243999 62.74,203.524 C62.4599986,203.804001 62.4719985,204.271997 62.776,204.928 L66.856,214.264 L70.888,204.928 C71.1920015,204.271997 71.2040014,203.804001 70.924,203.524 C70.6439986,203.243999 70.008005,203.104 69.016,203.104 L69.016,202.6 L74.608,202.6 L74.608,203.104 Z" id="110V-Copy" fill="#524740"></path>
                <path d="M87.7460938,111.019531 C111.248698,45.6731771 134.666667,13 158,13 C174.855331,13 191.406946,30.0495283 207.654846,64.1485848 C211.817878,72.8854356 218.017565,88.5090844 226.253906,111.019531 C250.751302,179.00651 274.666667,213 298,213 C321.333333,213 344.666667,179.00651 368,111.019531" id="Path-2" stroke="#EF7D3B" stroke-width="3"></path>
            </g>
            <path id="Line" d="M450,113.5 L412,113.5 L410.5,113.5 L410.5,110.5 L412,110.5 L450,110.5 L450,102.5 L469,112 L450,121.5 L450,113.5 Z" fill="#1A80AA" fill-rule="nonzero"></path>
        </g>
    </g>
</svg>