<?xml version="1.0" encoding="UTF-8"?>
<svg width="900px" height="340px" viewBox="0 0 900 340" version="1.1" xmlns="http://www.w3.org/2000/svg" xmlns:xlink="http://www.w3.org/1999/xlink">
    <!-- Generator: Sketch 52.5 (67469) - http://www.bohemiancoding.com/sketch -->
    <title>Rectification_Circuit</title>
    <desc>Created with Sketch.</desc>
    <g id="Rectification_Circuit" stroke="none" stroke-width="1" fill="none" fill-rule="evenodd">
        <rect id="Rectangle" stroke="#3D3530" stroke-width="2" fill="#EEEEEE" x="1" y="1" width="898" height="358"></rect>
        <g id="Circuit" transform="translate(239.000000, 26.000000)">
            <g id="Labels" transform="translate(71.000000, 0.000000)">
                <g id="+DC" transform="translate(298.000000, 0.000000)">
                    <rect id="Rectangle" stroke="#3D3530" stroke-width="2" fill="#E3F4FB" x="1" y="1" width="78" height="28" rx="5"></rect>
                    <path d="M20.868,14.168 L24.636,14.168 L24.636,15.224 L20.868,15.224 L20.868,18.992 L19.812,18.992 L19.812,15.224 L16.044,15.224 L16.044,14.168 L19.812,14.168 L19.812,10.4 L20.868,10.4 L20.868,14.168 Z M27.948,20 L27.948,19.496 C28.940005,19.496 29.5679987,19.3280017 29.832,18.992 C30.0960013,18.6559983 30.228,17.888006 30.228,16.688 L30.228,8.888 C30.228,7.687994 30.0960013,6.92400164 29.832,6.596 C29.5679987,6.26799836 28.940005,6.104 27.948,6.104 L27.948,5.6 L34.452,5.6 C37.1080133,5.6 39.1079933,6.27199328 40.452,7.616 C41.7960067,8.96000672 42.468,10.6879894 42.468,12.8 C42.468,14.9120106 41.7960067,16.6399933 40.452,17.984 C39.1079933,19.3280067 37.1080133,20 34.452,20 L27.948,20 Z M32.148,6.488 L32.148,16.328 C32.148,17.5440061 32.2759987,18.3119984 32.532,18.632 C32.7880013,18.9520016 33.4039951,19.112 34.38,19.112 L34.476,19.112 C35.5800055,19.112 36.527996,18.9200019 37.32,18.536 C38.112004,18.1519981 38.703998,17.6360032 39.096,16.988 C39.488002,16.3399968 39.7639992,15.6760034 39.924,14.996 C40.0840008,14.3159966 40.164,13.5840039 40.164,12.8 C40.164,12.0159961 40.0840008,11.2840034 39.924,10.604 C39.7639992,9.9239966 39.488002,9.26000324 39.096,8.612 C38.703998,7.96399676 38.112004,7.44800192 37.32,7.064 C36.527996,6.67999808 35.5800055,6.488 34.476,6.488 L32.148,6.488 Z M60.18,19.736 L59.7,19.736 C59.5719994,19.1119969 59.3000021,18.6560014 58.884,18.368 C57.5719934,19.7280068 56.0840083,20.408 54.42,20.408 C52.3879898,20.408 50.6520072,19.6640074 49.212,18.176 C47.7719928,16.6879926 47.052,14.8960105 47.052,12.8 C47.052,10.7039895 47.7719928,8.91200744 49.212,7.424 C50.6520072,5.93599256 52.3879898,5.192 54.42,5.192 C56.1160085,5.192 57.6039936,5.8719932 58.884,7.232 C59.3160022,6.89599832 59.5879994,6.44000288 59.7,5.864 L60.18,5.864 L60.18,11.144 L59.7,11.144 C59.3639983,9.55999208 58.7440045,8.3280044 57.84,7.448 C56.9359955,6.5679956 55.8280066,6.128 54.516,6.128 C53.6039954,6.128 52.7960035,6.33199796 52.092,6.74 C51.3879965,7.14800204 50.840002,7.68799664 50.448,8.36 C50.055998,9.03200336 49.764001,9.74399624 49.572,10.496 C49.379999,11.2480038 49.284,12.0159961 49.284,12.8 C49.284,13.5840039 49.379999,14.3519962 49.572,15.104 C49.764001,15.8560038 50.055998,16.5639967 50.448,17.228 C50.840002,17.8920033 51.3879965,18.427998 52.092,18.836 C52.7960035,19.244002 53.6039954,19.448 54.516,19.448 C55.8280066,19.448 56.9359955,19.0040044 57.84,18.116 C58.7440045,17.2279956 59.3639983,16.0080078 59.7,14.456 L60.18,14.456 L60.18,19.736 Z" id="+DC-Copy-2" fill="#B35E2C"></path>
                </g>
                <g id="+DC-Copy" transform="translate(298.000000, 164.000000)">
                    <rect id="Rectangle" stroke="#3D3530" stroke-width="2" fill="#E3F4FB" x="1" y="1" width="78" height="28" rx="5"></rect>
                    <path d="M23.844,15.608 L16.836,15.608 L16.836,14.552 L23.844,14.552 L23.844,15.608 Z M27.948,20 L27.948,19.496 C28.940005,19.496 29.5679987,19.3280017 29.832,18.992 C30.0960013,18.6559983 30.228,17.888006 30.228,16.688 L30.228,8.888 C30.228,7.687994 30.0960013,6.92400164 29.832,6.596 C29.5679987,6.26799836 28.940005,6.104 27.948,6.104 L27.948,5.6 L34.452,5.6 C37.1080133,5.6 39.1079933,6.27199328 40.452,7.616 C41.7960067,8.96000672 42.468,10.6879894 42.468,12.8 C42.468,14.9120106 41.7960067,16.6399933 40.452,17.984 C39.1079933,19.3280067 37.1080133,20 34.452,20 L27.948,20 Z M32.148,6.488 L32.148,16.328 C32.148,17.5440061 32.2759987,18.3119984 32.532,18.632 C32.7880013,18.9520016 33.4039951,19.112 34.38,19.112 L34.476,19.112 C35.5800055,19.112 36.527996,18.9200019 37.32,18.536 C38.112004,18.1519981 38.703998,17.6360032 39.096,16.988 C39.488002,16.3399968 39.7639992,15.6760034 39.924,14.996 C40.0840008,14.3159966 40.164,13.5840039 40.164,12.8 C40.164,12.0159961 40.0840008,11.2840034 39.924,10.604 C39.7639992,9.9239966 39.488002,9.26000324 39.096,8.612 C38.703998,7.96399676 38.112004,7.44800192 37.32,7.064 C36.527996,6.67999808 35.5800055,6.488 34.476,6.488 L32.148,6.488 Z M60.18,19.736 L59.7,19.736 C59.5719994,19.1119969 59.3000021,18.6560014 58.884,18.368 C57.5719934,19.7280068 56.0840083,20.408 54.42,20.408 C52.3879898,20.408 50.6520072,19.6640074 49.212,18.176 C47.7719928,16.6879926 47.052,14.8960105 47.052,12.8 C47.052,10.7039895 47.7719928,8.91200744 49.212,7.424 C50.6520072,5.93599256 52.3879898,5.192 54.42,5.192 C56.1160085,5.192 57.6039936,5.8719932 58.884,7.232 C59.3160022,6.89599832 59.5879994,6.44000288 59.7,5.864 L60.18,5.864 L60.18,11.144 L59.7,11.144 C59.3639983,9.55999208 58.7440045,8.3280044 57.84,7.448 C56.9359955,6.5679956 55.8280066,6.128 54.516,6.128 C53.6039954,6.128 52.7960035,6.33199796 52.092,6.74 C51.3879965,7.14800204 50.840002,7.68799664 50.448,8.36 C50.055998,9.03200336 49.764001,9.74399624 49.572,10.496 C49.379999,11.2480038 49.284,12.0159961 49.284,12.8 C49.284,13.5840039 49.379999,14.3519962 49.572,15.104 C49.764001,15.8560038 50.055998,16.5639967 50.448,17.228 C50.840002,17.8920033 51.3879965,18.427998 52.092,18.836 C52.7960035,19.244002 53.6039954,19.448 54.516,19.448 C55.8280066,19.448 56.9359955,19.0040044 57.84,18.116 C58.7440045,17.2279956 59.3639983,16.0080078 59.7,14.456 L60.18,14.456 L60.18,19.736 Z" id="-DC-Copy" fill="#B35E2C"></path>
                </g>
            </g>
            <g id="Wiring" transform="translate(40.000000, 15.000000)">
                <circle id="Connection" fill="#3D3530" cx="185" cy="36" r="5"></circle>
                <circle id="Connection-Copy-2" fill="#3D3530" cx="137" cy="83" r="5"></circle>
                <circle id="Connection-Copy-3" fill="#3D3530" cx="233" cy="83" r="5"></circle>
                <circle id="Connection-Copy" fill="#3D3530" cx="185" cy="130" r="5"></circle>
                <polyline id="Path-5-Copy-2" stroke="#3D3530" stroke-width="2" points="184.848 32 185 0.5 329.544 0.5"></polyline>
                <polyline id="Path-11" stroke="#3D3530" stroke-width="2" points="0 115 0 83 132.728 83"></polyline>
                <polyline id="Path" stroke="#3D3530" stroke-width="2" points="238 83 265 83 265 225 0 225 0 195"></polyline>
            </g>
            <g id="AC" transform="translate(0.000000, 129.000000)">
                <g id="AC_Power" stroke="#3D3530" stroke-width="3">
                    <circle id="Oval" cx="40" cy="40" r="40"></circle>
                    <path d="M17.3730469,40.2825859 C21.1573117,29.760862 24.9279491,24.5 28.6849589,24.5 C31.398915,24.5 34.0639684,27.2452248 36.6801192,32.7356743 C37.3504286,34.1424357 38.3486694,36.6580729 39.6748414,40.2825859 C43.6192824,51.2294893 47.4700078,56.702941 51.2270175,56.702941 C54.9840273,56.702941 58.7410371,51.2294893 62.4980469,40.2825859" id="Path-2"></path>
                </g>
                <path d="M88.98,41.144 C89.0120002,42.2480055 89.1359989,43.1799962 89.352,43.94 C89.5680011,44.7000038 89.8359984,45.2439984 90.156,45.572 C90.4760016,45.9000016 90.7719986,46.1279994 91.044,46.256 C91.3160014,46.3840006 91.5879986,46.448 91.86,46.448 C92.8360049,46.448 93.5559977,46.1040034 94.02,45.416 C94.4840023,44.7279966 94.716,43.880005 94.716,42.872 C94.716,41.8959951 94.4840023,41.0680034 94.02,40.388 C93.5559977,39.7079966 92.8360049,39.368 91.86,39.368 C91.1559965,39.368 90.5360027,39.5359983 90,39.872 C89.4639973,40.2080017 89.1240007,40.6319974 88.98,41.144 Z M89.004,39.824 C89.6920034,38.8799953 90.6439939,38.408 91.86,38.408 C93.1880066,38.408 94.3279952,38.8479956 95.28,39.728 C96.2320048,40.6080044 96.708,41.6639938 96.708,42.896 C96.708,44.1280062 96.2320048,45.1879956 95.28,46.076 C94.3279952,46.9640044 93.1880066,47.408 91.86,47.408 C91.459998,47.408 91.060002,47.3560005 90.66,47.252 C90.259998,47.1479995 89.8320023,46.9400016 89.376,46.628 C88.9199977,46.3159984 88.5240017,45.9160024 88.188,45.428 C87.8519983,44.9399976 87.5720011,44.2840041 87.348,43.46 C87.1239989,42.6359959 87.012,41.6880054 87.012,40.616 C87.012,39.1919929 87.207998,37.8520063 87.6,36.596 C87.992002,35.3399937 88.6159957,34.2800043 89.472,33.416 C90.3280043,32.5519957 91.3479941,32.12 92.532,32.12 C93.4760047,32.12 94.2999965,32.319998 95.004,32.72 C95.7080035,33.120002 96.06,33.5279979 96.06,33.944 C96.06,34.136001 95.9880007,34.2879994 95.844,34.4 C95.6999993,34.5120006 95.5560007,34.568 95.412,34.568 C95.219999,34.568 95.0080012,34.4280014 94.776,34.148 C94.5439988,33.8679986 94.2400019,33.5880014 93.864,33.308 C93.4879981,33.0279986 93.0440026,32.888 92.532,32.888 C90.3719892,32.888 89.196001,35.1999769 89.004,39.824 Z M102.444,37.856 C103.548006,36.7519945 104.867992,36.2 106.404,36.2 C107.940008,36.2 109.255995,36.7479945 110.352,37.844 C111.448005,38.9400055 111.996,40.2559923 111.996,41.792 C111.996,43.3440078 111.448005,44.6679945 110.352,45.764 C109.255995,46.8600055 107.940008,47.408 106.404,47.408 C104.867992,47.408 103.552005,46.8600055 102.456,45.764 C101.359995,44.6679945 100.812,43.3440078 100.812,41.792 C100.812,40.2559923 101.355995,38.9440054 102.444,37.856 Z M106.404,37.568 C105.283994,37.568 104.328004,37.9839958 103.536,38.816 C102.743996,39.6480042 102.348,40.6399942 102.348,41.792 C102.348,42.9600058 102.743996,43.9559959 103.536,44.78 C104.328004,45.6040041 105.283994,46.016 106.404,46.016 C107.508006,46.016 108.459996,45.6040041 109.26,44.78 C110.060004,43.9559959 110.46,42.9600058 110.46,41.792 C110.46,40.6399942 110.060004,39.6480042 109.26,38.816 C108.459996,37.9839958 107.508006,37.568 106.404,37.568 Z M119.82,39.8 L119.82,43.688 C119.82,44.888006 119.951999,45.6559983 120.216,45.992 C120.480001,46.3280017 121.107995,46.496 122.1,46.496 L122.1,47 L115.62,47 L115.62,46.496 C116.612005,46.496 117.239999,46.3280017 117.504,45.992 C117.768001,45.6559983 117.9,44.888006 117.9,43.688 L117.9,35.888 C117.9,34.687994 117.768001,33.9240016 117.504,33.596 C117.239999,33.2679984 116.612005,33.104 115.62,33.104 L115.62,32.6 L122.1,32.6 L122.1,33.104 C121.107995,33.104 120.480001,33.2679984 120.216,33.596 C119.951999,33.9240016 119.82,34.687994 119.82,35.888 L119.82,38.912 L127.98,38.912 L127.98,35.888 C127.98,34.687994 127.844001,33.9240016 127.572,33.596 C127.299999,33.2679984 126.668005,33.104 125.676,33.104 L125.676,32.6 L132.18,32.6 L132.18,33.104 C131.171995,33.104 130.536001,33.2679984 130.272,33.596 C130.007999,33.9240016 129.876,34.687994 129.876,35.888 L129.876,43.688 C129.876,44.9040061 130.007999,45.6759984 130.272,46.004 C130.536001,46.3320016 131.171995,46.496 132.18,46.496 L132.18,47 L125.676,47 L125.676,46.496 C126.668005,46.496 127.299999,46.3280017 127.572,45.992 C127.844001,45.6559983 127.98,44.888006 127.98,43.688 L127.98,39.8 L119.82,39.8 Z M142.044,39.008 L142.044,39.392 L137.46,46.232 L138.924,46.232 C139.964005,46.232 140.651998,46.132001 140.988,45.932 C141.324002,45.731999 141.555999,45.3600027 141.684,44.816 L141.804,44.336 L142.308,44.336 L142.14,47 L135.18,47 L135.18,46.592 L139.74,39.752 L138.612,39.752 C137.571995,39.752 136.884002,39.851999 136.548,40.052 C136.211998,40.252001 135.980001,40.6239973 135.852,41.168 L135.732,41.648 L135.228,41.648 L135.42,39.008 L142.044,39.008 Z" id="60Hz-Copy" fill="#524740"></path>
            </g>
            <g id="Diodes" transform="translate(167.000000, 40.000000)">
                <g id="Diode" transform="translate(34.000000, 34.000000) rotate(-45.000000) translate(-34.000000, -34.000000) translate(-1.000000, 21.000000)">
                    <polygon id="Path-2" fill="#3D3530" points="24.5 0 44 13 24.5 26"></polygon>
                    <path d="M44,13 L70,13" id="Path-2-Copy" stroke="#3D3530" stroke-width="3"></path>
                    <path d="M44,7.10542736e-15 L44,26" id="Path-4-Copy" stroke="#3D3530" stroke-width="3"></path>
                    <path d="M0,13 L24.5,13" id="Path-3" stroke="#3D3530" stroke-width="3"></path>
                </g>
                <g id="Diode-Copy" transform="translate(82.000000, 34.000000) rotate(-135.000000) translate(-82.000000, -34.000000) translate(47.000000, 21.000000)">
                    <polygon id="Path-2" fill="#3D3530" points="24.5 0 44 13 24.5 26"></polygon>
                    <path d="M44,13 L70,13" id="Path-2-Copy" stroke="#3D3530" stroke-width="3"></path>
                    <path d="M44,7.10542736e-15 L44,26" id="Path-4-Copy" stroke="#3D3530" stroke-width="3"></path>
                    <path d="M0,13 L24.5,13" id="Path-3" stroke="#3D3530" stroke-width="3"></path>
                </g>
                <g id="Diode-Copy-3" transform="translate(34.000000, 82.000000) rotate(-315.000000) translate(-34.000000, -82.000000) translate(-1.000000, 69.000000)">
                    <polygon id="Path-2" fill="#3D3530" points="24.5 0 44 13 24.5 26"></polygon>
                    <path d="M44,13 L70,13" id="Path-2-Copy" stroke="#3D3530" stroke-width="3"></path>
                    <path d="M44,7.10542736e-15 L44,26" id="Path-4-Copy" stroke="#3D3530" stroke-width="3"></path>
                    <path d="M0,13 L24.5,13" id="Path-3" stroke="#3D3530" stroke-width="3"></path>
                </g>
                <g id="Diode-Copy-2" transform="translate(82.000000, 82.000000) rotate(-225.000000) translate(-82.000000, -82.000000) translate(47.000000, 69.000000)">
                    <polygon id="Path-2" fill="#3D3530" points="24.5 0 44 13 24.5 26"></polygon>
                    <path d="M44,13 L70,13" id="Path-2-Copy" stroke="#3D3530" stroke-width="3"></path>
                    <path d="M44,7.10542736e-15 L44,26" id="Path-4-Copy" stroke="#3D3530" stroke-width="3"></path>
                    <path d="M0,13 L24.5,13" id="Path-3" stroke="#3D3530" stroke-width="3"></path>
                </g>
            </g>
            <polyline id="Path-4" stroke="#3D3530" stroke-width="2" points="370 180 225 180 225 149"></polyline>
        </g>
        <rect id="Rectangle-Copy" stroke="#3D3530" stroke-width="2" fill="#F8FAE4" x="1" y="296" width="898" height="43"></rect>
        <path d="M549.239999,325 L547.175999,319.96 L539.639999,319.96 L537.575999,325 L535.919999,325 L542.639999,308.872 L544.151999,308.872 L550.871999,325 L549.239999,325 Z M540.287999,318.376 L546.527999,318.376 L543.407999,310.72 L540.287999,318.376 Z M559.602666,325.192 C557.234654,325.192 555.346673,324.404008 553.938666,322.828 C552.530659,321.251992 551.826666,319.296012 551.826666,316.96 C551.826666,314.607988 552.530659,312.644008 553.938666,311.068 C555.346673,309.491992 557.234654,308.704 559.602666,308.704 C561.170674,308.704 562.53466,309.063996 563.694666,309.784 C564.854672,310.504004 565.754663,311.487994 566.394666,312.736 L564.906666,313.6 C564.394664,312.559995 563.678671,311.736003 562.758666,311.128 C561.838661,310.519997 560.786672,310.216 559.602666,310.216 C557.778657,310.216 556.318672,310.851994 555.222666,312.124 C554.126661,313.396006 553.578666,315.00799 553.578666,316.96 C553.578666,318.89601 554.126661,320.503994 555.222666,321.784 C556.318672,323.064006 557.778657,323.704 559.602666,323.704 C560.802672,323.704 561.862661,323.396003 562.782666,322.78 C563.702671,322.163997 564.410664,321.336005 564.906666,320.296 L566.394666,321.184 C565.754663,322.432006 564.854672,323.411996 563.694666,324.124 C562.53466,324.836004 561.170674,325.192 559.602666,325.192 Z M583.759999,322.312 L584.551999,323.536 C584.455999,323.664001 584.328,323.815999 584.167999,323.992 C584.007999,324.168001 583.648002,324.411998 583.087999,324.724 C582.527997,325.036002 581.952002,325.192 581.359999,325.192 C580.351994,325.192 579.508003,324.892003 578.827999,324.292 C578.147996,323.691997 577.807999,322.824006 577.807999,321.688 L577.807999,314.44 L575.887999,314.44 L575.887999,312.976 L577.807999,312.976 L577.807999,309.184 L579.391999,308.992 L579.391999,312.976 L583.015999,312.976 L583.015999,314.44 L579.391999,314.44 L579.391999,321.328 C579.391999,322.064004 579.619997,322.647998 580.075999,323.08 C580.532002,323.512002 581.055997,323.728 581.647999,323.728 C582.016001,323.728 582.375998,323.616001 582.727999,323.392 C583.080001,323.167999 583.339999,322.948001 583.507999,322.732 C583.676,322.515999 583.759999,322.376 583.759999,322.312 Z M596.570666,323.368 C595.37066,324.584006 593.914675,325.192 592.202666,325.192 C590.490658,325.192 589.030672,324.588006 587.822666,323.38 C586.61466,322.171994 586.010666,320.712009 586.010666,319 C586.010666,317.287991 586.61466,315.828006 587.822666,314.62 C589.030672,313.411994 590.490658,312.808 592.202666,312.808 C593.914675,312.808 595.37466,313.411994 596.582666,314.62 C597.790672,315.828006 598.394666,317.287991 598.394666,319 C598.394666,320.696008 597.786672,322.151994 596.570666,323.368 Z M592.226666,323.68 C593.522673,323.68 594.614662,323.228005 595.502666,322.324 C596.390671,321.419995 596.834666,320.312007 596.834666,319 C596.834666,317.687993 596.390671,316.576005 595.502666,315.664 C594.614662,314.751995 593.522673,314.296 592.226666,314.296 C590.94666,314.296 589.858671,314.751995 588.962666,315.664 C588.066662,316.576005 587.618666,317.687993 587.618666,319 C587.618666,320.312007 588.066662,321.419995 588.962666,322.324 C589.858671,323.228005 590.94666,323.68 592.226666,323.68 Z M609.088,325 L609.088,308.872 L612.736,308.872 C615.392013,308.872 617.503992,309.639992 619.072,311.176 C620.640007,312.712008 621.424,314.631988 621.424,316.936 C621.424,319.224011 620.636007,321.139992 619.06,322.684 C617.483992,324.228008 615.376013,325 612.736,325 L609.088,325 Z M610.672,323.488 L612.736,323.488 C614.84801,323.488 616.535993,322.868006 617.8,321.628 C619.064006,320.387994 619.696,318.824009 619.696,316.936 C619.696,315.047991 619.064006,313.484006 617.8,312.244 C616.535993,311.003994 614.84801,310.384 612.736,310.384 L610.672,310.384 L610.672,323.488 Z M631.978666,325.192 C629.610654,325.192 627.722673,324.404008 626.314666,322.828 C624.906659,321.251992 624.202666,319.296012 624.202666,316.96 C624.202666,314.607988 624.906659,312.644008 626.314666,311.068 C627.722673,309.491992 629.610654,308.704 631.978666,308.704 C633.546674,308.704 634.91066,309.063996 636.070666,309.784 C637.230672,310.504004 638.130663,311.487994 638.770666,312.736 L637.282666,313.6 C636.770664,312.559995 636.054671,311.736003 635.134666,311.128 C634.214662,310.519997 633.162672,310.216 631.978666,310.216 C630.154657,310.216 628.694672,310.851994 627.598666,312.124 C626.502661,313.396006 625.954666,315.00799 625.954666,316.96 C625.954666,318.89601 626.502661,320.503994 627.598666,321.784 C628.694672,323.064006 630.154657,323.704 631.978666,323.704 C633.178672,323.704 634.238662,323.396003 635.158666,322.78 C636.078671,322.163997 636.786664,321.336005 637.282666,320.296 L638.770666,321.184 C638.130663,322.432006 637.230672,323.411996 636.070666,324.124 C634.91066,324.836004 633.546674,325.192 631.978666,325.192 Z M649.488,325 L649.488,308.872 L654.96,308.872 C656.768009,308.872 658.207994,309.347995 659.28,310.3 C660.352005,311.252005 660.888,312.447993 660.888,313.888 C660.888,314.960005 660.572003,315.911996 659.94,316.744 C659.307996,317.576004 658.424005,318.167998 657.288,318.52 L660.888,325 L659.232,325 L655.8,318.856 L654.816,318.904 L651.072,318.904 L651.072,325 L649.488,325 Z M651.072,317.392 L654.96,317.392 C656.256006,317.392 657.295996,317.060003 658.08,316.396 C658.864004,315.731997 659.256,314.896005 659.256,313.888 C659.256,312.895995 658.864004,312.064003 658.08,311.392 C657.295996,310.719997 656.256006,310.384 654.96,310.384 L651.072,310.384 L651.072,317.392 Z M669.330666,323.608 C670.402672,323.608 671.362662,323.304003 672.210666,322.696 C673.058671,322.087997 673.634665,321.376004 673.938666,320.56 L675.282666,321.04 C674.914664,322.048005 674.198672,322.975996 673.134666,323.824 C672.070661,324.672004 670.802674,325.088 669.330666,325.072 C667.98666,325.072 666.758672,324.656004 665.646666,323.824 C664.534661,322.991996 663.778668,321.928006 663.378666,320.632 C663.218665,320.103997 663.138666,319.528003 663.138666,318.904 C663.138666,317.175991 663.73866,315.712006 664.938666,314.512 C666.138672,313.311994 667.602658,312.704 669.330666,312.688 C670.898674,312.704 672.26666,313.231995 673.434666,314.272 C674.602672,315.312005 675.274665,316.599992 675.450666,318.136 C675.466666,318.216 675.474666,318.319999 675.474666,318.448 L664.986666,320.344 C665.258668,321.304005 665.802662,322.091997 666.618666,322.708 C667.43467,323.324003 668.338661,323.624 669.330666,323.608 Z M669.186666,314.152 C667.98666,314.168 666.958671,314.599996 666.102666,315.448 C665.246662,316.296004 664.786667,317.311994 664.722666,318.496 C664.722666,318.544 664.726666,318.627999 664.734666,318.748 C664.742666,318.868001 664.746666,318.968 664.746666,319.048 L673.674666,317.44 C673.370665,316.463995 672.80267,315.668003 671.970666,315.052 C671.138662,314.435997 670.210671,314.136 669.186666,314.152 Z M684.325333,325.192 C682.613324,325.192 681.153339,324.588006 679.945333,323.38 C678.737327,322.171994 678.133333,320.712009 678.133333,319 C678.133333,317.287991 678.737327,315.828006 679.945333,314.62 C681.153339,313.411994 682.613324,312.808 684.325333,312.808 C685.413338,312.808 686.425328,313.075997 687.361333,313.612 C688.297338,314.148003 689.03733,314.863996 689.581333,315.76 L688.141333,316.456 C687.709331,315.799997 687.157336,315.280002 686.485333,314.896 C685.81333,314.511998 685.093337,314.32 684.325333,314.32 C683.029326,314.32 681.937337,314.771995 681.049333,315.676 C680.161329,316.580005 679.717333,317.687993 679.717333,319 C679.717333,320.312007 680.161329,321.419995 681.049333,322.324 C681.937337,323.228005 683.029326,323.68 684.325333,323.68 C685.093337,323.68 685.81333,323.488002 686.485333,323.104 C687.157336,322.719998 687.709331,322.200003 688.141333,321.544 L689.581333,322.24 C689.03733,323.136004 688.297338,323.851997 687.361333,324.388 C686.425328,324.924003 685.413338,325.192 684.325333,325.192 Z M699.776,322.312 L700.568,323.536 C700.471999,323.664001 700.344,323.815999 700.184,323.992 C700.023999,324.168001 699.664002,324.411998 699.104,324.724 C698.543997,325.036002 697.968003,325.192 697.376,325.192 C696.367995,325.192 695.524003,324.892003 694.844,324.292 C694.163996,323.691997 693.824,322.824006 693.824,321.688 L693.824,314.44 L691.904,314.44 L691.904,312.976 L693.824,312.976 L693.824,309.184 L695.408,308.992 L695.408,312.976 L699.032,312.976 L699.032,314.44 L695.408,314.44 L695.408,321.328 C695.408,322.064004 695.635997,322.647998 696.092,323.08 C696.548002,323.512002 697.071997,323.728 697.664,323.728 C698.032001,323.728 698.391998,323.616001 698.744,323.392 C699.096001,323.167999 699.355999,322.948001 699.524,322.732 C699.692,322.515999 699.776,322.376 699.776,322.312 Z M705.002666,309.4 C704.826665,309.592001 704.602668,309.688 704.330666,309.688 C704.058665,309.688 703.830667,309.592001 703.646666,309.4 C703.462665,309.207999 703.370666,308.984001 703.370666,308.728 C703.370666,308.471999 703.462665,308.248001 703.646666,308.056 C703.830667,307.863999 704.058665,307.768 704.330666,307.768 C704.602668,307.768 704.830665,307.863999 705.014666,308.056 C705.198667,308.248001 705.290666,308.471999 705.290666,308.728 C705.290666,308.984001 705.194667,309.207999 705.002666,309.4 Z M703.538666,325 L703.538666,313 L705.122666,313 L705.122666,325 L703.538666,325 Z M713.925333,312.952 L713.925333,314.272 L711.573333,314.272 L711.573333,325 L710.013333,325 L710.013333,314.272 L708.597333,314.272 L708.597333,312.952 L710.013333,312.952 L710.013333,309.472 C710.013333,307.807992 710.669326,306.976 711.981333,306.976 C712.269334,306.976 712.561332,307 712.857333,307.048 C713.153334,307.096 713.373332,307.144 713.517333,307.192 L713.733333,307.264 L713.397333,308.488 C713.077331,308.408 712.757335,308.368 712.437333,308.368 C712.085331,308.368 711.853334,308.483999 711.741333,308.716 C711.629332,308.948001 711.573333,309.391997 711.573333,310.048 L711.573333,312.952 L713.925333,312.952 Z M718.624,309.4 C718.447999,309.592001 718.224001,309.688 717.952,309.688 C717.679998,309.688 717.452001,309.592001 717.268,309.4 C717.083999,309.207999 716.992,308.984001 716.992,308.728 C716.992,308.471999 717.083999,308.248001 717.268,308.056 C717.452001,307.863999 717.679998,307.768 717.952,307.768 C718.224001,307.768 718.451999,307.863999 718.636,308.056 C718.820001,308.248001 718.912,308.471999 718.912,308.728 C718.912,308.984001 718.816001,309.207999 718.624,309.4 Z M717.16,325 L717.16,313 L718.744,313 L718.744,325 L717.16,325 Z M728.410666,325.192 C726.698658,325.192 725.238672,324.588006 724.030666,323.38 C722.82266,322.171994 722.218666,320.712009 722.218666,319 C722.218666,317.287991 722.82266,315.828006 724.030666,314.62 C725.238672,313.411994 726.698658,312.808 728.410666,312.808 C729.498672,312.808 730.510662,313.075997 731.446666,313.612 C732.382671,314.148003 733.122664,314.863996 733.666666,315.76 L732.226666,316.456 C731.794664,315.799997 731.24267,315.280002 730.570666,314.896 C729.898663,314.511998 729.17867,314.32 728.410666,314.32 C727.11466,314.32 726.022671,314.771995 725.134666,315.676 C724.246662,316.580005 723.802666,317.687993 723.802666,319 C723.802666,320.312007 724.246662,321.419995 725.134666,322.324 C726.022671,323.228005 727.11466,323.68 728.410666,323.68 C729.17867,323.68 729.898663,323.488002 730.570666,323.104 C731.24267,322.719998 731.794664,322.200003 732.226666,321.544 L733.666666,322.24 C733.122664,323.136004 732.382671,323.851997 731.446666,324.388 C730.510662,324.924003 729.498672,325.192 728.410666,325.192 Z M746.909333,313 L748.493333,313 L748.493333,325 L746.909333,325 L746.909333,323.056 C745.677327,324.480007 744.117343,325.192 742.229333,325.192 C740.517325,325.192 739.057339,324.588006 737.849333,323.38 C736.641327,322.171994 736.037333,320.712009 736.037333,319 C736.037333,317.287991 736.641327,315.828006 737.849333,314.62 C739.057339,313.411994 740.517325,312.808 742.229333,312.808 C744.133343,312.808 745.693327,313.519993 746.909333,314.944 L746.909333,313 Z M742.253333,323.68 C743.54934,323.68 744.641329,323.228005 745.529333,322.324 C746.417338,321.419995 746.861333,320.312007 746.861333,319 C746.861333,317.687993 746.417338,316.580005 745.529333,315.676 C744.641329,314.771995 743.54934,314.32 742.253333,314.32 C740.973327,314.32 739.881338,314.771995 738.977333,315.676 C738.073329,316.580005 737.621333,317.687993 737.621333,319 C737.621333,320.312007 738.073329,321.419995 738.977333,322.324 C739.881338,323.228005 740.973327,323.68 742.253333,323.68 Z M758.976,322.312 L759.768,323.536 C759.671999,323.664001 759.544001,323.815999 759.384,323.992 C759.223999,324.168001 758.864003,324.411998 758.304,324.724 C757.743997,325.036002 757.168003,325.192 756.576,325.192 C755.567995,325.192 754.724003,324.892003 754.044,324.292 C753.363996,323.691997 753.024,322.824006 753.024,321.688 L753.024,314.44 L751.104,314.44 L751.104,312.976 L753.024,312.976 L753.024,309.184 L754.608,308.992 L754.608,312.976 L758.232,312.976 L758.232,314.44 L754.608,314.44 L754.608,321.328 C754.608,322.064004 754.835997,322.647998 755.292,323.08 C755.748002,323.512002 756.271997,323.728 756.864,323.728 C757.232002,323.728 757.591998,323.616001 757.944,323.392 C758.296002,323.167999 758.555999,322.948001 758.724,322.732 C758.892001,322.515999 758.976,322.376 758.976,322.312 Z M764.202666,309.4 C764.026666,309.592001 763.802668,309.688 763.530666,309.688 C763.258665,309.688 763.030667,309.592001 762.846666,309.4 C762.662666,309.207999 762.570666,308.984001 762.570666,308.728 C762.570666,308.471999 762.662666,308.248001 762.846666,308.056 C763.030667,307.863999 763.258665,307.768 763.530666,307.768 C763.802668,307.768 764.030666,307.863999 764.214666,308.056 C764.398667,308.248001 764.490666,308.471999 764.490666,308.728 C764.490666,308.984001 764.394667,309.207999 764.202666,309.4 Z M762.738666,325 L762.738666,313 L764.322666,313 L764.322666,325 L762.738666,325 Z M778.357333,323.368 C777.157327,324.584006 775.701342,325.192 773.989333,325.192 C772.277325,325.192 770.817339,324.588006 769.609333,323.38 C768.401327,322.171994 767.797333,320.712009 767.797333,319 C767.797333,317.287991 768.401327,315.828006 769.609333,314.62 C770.817339,313.411994 772.277325,312.808 773.989333,312.808 C775.701342,312.808 777.161327,313.411994 778.369333,314.62 C779.577339,315.828006 780.181333,317.287991 780.181333,319 C780.181333,320.696008 779.573339,322.151994 778.357333,323.368 Z M774.013333,323.68 C775.30934,323.68 776.401329,323.228005 777.289333,322.324 C778.177338,321.419995 778.621333,320.312007 778.621333,319 C778.621333,317.687993 778.177338,316.576005 777.289333,315.664 C776.401329,314.751995 775.30934,314.296 774.013333,314.296 C772.733327,314.296 771.645338,314.751995 770.749333,315.664 C769.853329,316.576005 769.405333,317.687993 769.405333,319 C769.405333,320.312007 769.853329,321.419995 770.749333,322.324 C771.645338,323.228005 772.733327,323.68 774.013333,323.68 Z M788.648,312.808 C790.040007,312.808 791.207995,313.299995 792.152,314.284 C793.096005,315.268005 793.568,316.479993 793.568,317.92 L793.568,325 L791.96,325 L791.96,317.968 C791.96,316.943995 791.612003,316.072004 790.916,315.352 C790.219996,314.631996 789.376005,314.272 788.384,314.272 C787.391995,314.272 786.548003,314.631996 785.852,315.352 C785.155996,316.072004 784.808,316.943995 784.808,317.968 L784.808,325 L783.224,325 L783.224,313 L784.808,313 L784.808,314.776 C785.784005,313.463993 787.063992,312.808 788.648,312.808 Z M811.869333,325.192 C809.501321,325.192 807.61334,324.404008 806.205333,322.828 C804.797326,321.251992 804.093333,319.296012 804.093333,316.96 C804.093333,314.607988 804.797326,312.644008 806.205333,311.068 C807.61334,309.491992 809.501321,308.704 811.869333,308.704 C813.437341,308.704 814.801327,309.063996 815.961333,309.784 C817.121339,310.504004 818.02133,311.487994 818.661333,312.736 L817.173333,313.6 C816.661331,312.559995 815.945338,311.736003 815.025333,311.128 C814.105329,310.519997 813.053339,310.216 811.869333,310.216 C810.045324,310.216 808.585339,310.851994 807.489333,312.124 C806.393328,313.396006 805.845333,315.00799 805.845333,316.96 C805.845333,318.89601 806.393328,320.503994 807.489333,321.784 C808.585339,323.064006 810.045324,323.704 811.869333,323.704 C813.069339,323.704 814.129329,323.396003 815.049333,322.78 C815.969338,322.163997 816.677331,321.336005 817.173333,320.296 L818.661333,321.184 C818.02133,322.432006 817.121339,323.411996 815.961333,324.124 C814.801327,324.836004 813.437341,325.192 811.869333,325.192 Z M823.84,309.4 C823.663999,309.592001 823.440001,309.688 823.168,309.688 C822.895999,309.688 822.668001,309.592001 822.484,309.4 C822.299999,309.207999 822.208,308.984001 822.208,308.728 C822.208,308.471999 822.299999,308.248001 822.484,308.056 C822.668001,307.863999 822.895999,307.768 823.168,307.768 C823.440001,307.768 823.667999,307.863999 823.852,308.056 C824.036001,308.248001 824.128,308.471999 824.128,308.728 C824.128,308.984001 824.032001,309.207999 823.84,309.4 Z M822.376,325 L822.376,313 L823.96,313 L823.96,325 L822.376,325 Z M833.722667,312.808 C834.570671,312.808 835.346663,313.015998 836.050667,313.432 L835.498667,315.016 C834.826663,314.519998 834.14667,314.272 833.458667,314.272 C832.450662,314.272 831.60267,314.627996 830.914667,315.34 C830.226663,316.052004 829.882667,316.927995 829.882667,317.968 L829.882667,325 L828.298667,325 L828.298667,313 L829.882667,313 L829.882667,314.776 C830.858671,313.463993 832.138659,312.808 833.722667,312.808 Z M843.365333,325.192 C841.653325,325.192 840.193339,324.588006 838.985333,323.38 C837.777327,322.171994 837.173333,320.712009 837.173333,319 C837.173333,317.287991 837.777327,315.828006 838.985333,314.62 C840.193339,313.411994 841.653325,312.808 843.365333,312.808 C844.453339,312.808 845.465329,313.075997 846.401333,313.612 C847.337338,314.148003 848.077331,314.863996 848.621333,315.76 L847.181333,316.456 C846.749331,315.799997 846.197337,315.280002 845.525333,314.896 C844.85333,314.511998 844.133337,314.32 843.365333,314.32 C842.069327,314.32 840.977338,314.771995 840.089333,315.676 C839.201329,316.580005 838.757333,317.687993 838.757333,319 C838.757333,320.312007 839.201329,321.419995 840.089333,322.324 C840.977338,323.228005 842.069327,323.68 843.365333,323.68 C844.133337,323.68 844.85333,323.488002 845.525333,323.104 C846.197337,322.719998 846.749331,322.200003 847.181333,321.544 L848.621333,322.24 C848.077331,323.136004 847.337338,323.851997 846.401333,324.388 C845.465329,324.924003 844.453339,325.192 843.365333,325.192 Z M860.664,313 L862.248,313 L862.248,325 L860.664,325 L860.664,323.224 C859.687995,324.536007 858.408008,325.192 856.824,325.192 C855.431993,325.192 854.264005,324.700005 853.32,323.716 C852.375995,322.731995 851.904,321.520007 851.904,320.08 L851.904,313 L853.536,313 L853.536,320.032 C853.536,321.056005 853.879997,321.923996 854.568,322.636 C855.256003,323.348004 856.095995,323.704 857.088,323.704 C858.096005,323.704 858.943997,323.348004 859.632,322.636 C860.320003,321.923996 860.664,321.056005 860.664,320.032 L860.664,313 Z M868.050667,309.4 C867.874666,309.592001 867.650668,309.688 867.378667,309.688 C867.106665,309.688 866.878668,309.592001 866.694667,309.4 C866.510666,309.207999 866.418667,308.984001 866.418667,308.728 C866.418667,308.471999 866.510666,308.248001 866.694667,308.056 C866.878668,307.863999 867.106665,307.768 867.378667,307.768 C867.650668,307.768 867.878666,307.863999 868.062667,308.056 C868.246668,308.248001 868.338667,308.471999 868.338667,308.728 C868.338667,308.984001 868.242668,309.207999 868.050667,309.4 Z M866.586667,325 L866.586667,313 L868.170667,313 L868.170667,325 L866.586667,325 Z M878.653333,322.312 L879.445333,323.536 C879.349333,323.664001 879.221334,323.815999 879.061333,323.992 C878.901333,324.168001 878.541336,324.411998 877.981333,324.724 C877.421331,325.036002 876.845336,325.192 876.253333,325.192 C875.245328,325.192 874.401337,324.892003 873.721333,324.292 C873.04133,323.691997 872.701333,322.824006 872.701333,321.688 L872.701333,314.44 L870.781333,314.44 L870.781333,312.976 L872.701333,312.976 L872.701333,309.184 L874.285333,308.992 L874.285333,312.976 L877.909333,312.976 L877.909333,314.44 L874.285333,314.44 L874.285333,321.328 C874.285333,322.064004 874.513331,322.647998 874.969333,323.08 C875.425336,323.512002 875.94933,323.728 876.541333,323.728 C876.909335,323.728 877.269332,323.616001 877.621333,323.392 C877.973335,323.167999 878.233332,322.948001 878.401333,322.732 C878.569334,322.515999 878.653333,322.376 878.653333,322.312 Z" id="AC-to-DC-Rectificati-Copy" fill="#23ABE3"></path>
    </g>
</svg>