<?xml version="1.0"?>
<!DOCTYPE svg PUBLIC "-//W3C//DTD SVG 1.1//EN" "http://www.w3.org/Graphics/SVG/1.1/DTD/svg11.dtd">
<svg viewBox="263 270 513 316" preserveAspectRatio="xMinYMin meet" version="1.1" xmlns="http://www.w3.org/2000/svg">
<g class="AC Source">
<line x1="320" y1="512" x2="320" y2="497" stroke="#000000" stroke-opacity="1" stroke-width="3" stroke-linecap="round" fill="none" />
<line x1="320" y1="463" x2="320" y2="448" stroke="#000000" stroke-opacity="1" stroke-width="3" stroke-linecap="round" fill="none" />
<ellipse cx="320" cy="480" rx="17" ry="17" fill="#FFFFFF" fill-opacity="0.831372549019608" stroke="none" />
<ellipse cx="320" cy="480" rx="17" ry="17" stroke="#000000" stroke-opacity="1" stroke-width="3" fill="none" />
<polyline stroke="#000000" stroke-opacity="1" stroke-linecap="round" stroke-linejoin="round" stroke-width="3" fill="none" points="310,480 311,477.6515 312,475.5328 313,473.8515 314,472.772 315,472.4 316,472.772 317,473.8515 318,475.5328 319,477.6515 320,480 321,482.3485 322,484.4672 323,486.1485 324,487.228 325,487.6 326,487.228 327,486.1485 328,484.4672 329,482.3485 330,480 " />
<text x="345" y="485" font-family="sans-serif" font-size="15">60Hz</text>
</g>
<g class="Diode">
<line x1="448" y1="416" x2="473" y2="391" stroke="#000000" stroke-opacity="1" stroke-width="3" stroke-linecap="round" fill="none" />
<line x1="487" y1="377" x2="512" y2="352" stroke="#000000" stroke-opacity="1" stroke-width="3" stroke-linecap="round" fill="none" />
<polygon fill="#000000" fill-opacity="1" stroke="none" points="464,382 482,400 487,377 " />
<polygon stroke="#000000" stroke-opacity="1" stroke-width="2" fill="none" points="464,382 482,400 487,377 " />
<line x1="478" y1="368" x2="496" y2="386" stroke="#000000" stroke-opacity="1" stroke-width="3" stroke-linecap="round" fill="none" />
<ellipse cx="448" cy="416" rx="4" ry="4" fill="#000000" fill-opacity="1" stroke="none" />
</g>
<g class="Diode">
<line x1="512" y1="480" x2="487" y2="455" stroke="#000000" stroke-opacity="1" stroke-width="3" stroke-linecap="round" fill="none" />
<line x1="473" y1="441" x2="448" y2="416" stroke="#000000" stroke-opacity="1" stroke-width="3" stroke-linecap="round" fill="none" />
<polygon fill="#000000" fill-opacity="1" stroke="none" points="478,464 496,446 473,441 " />
<polygon stroke="#000000" stroke-opacity="1" stroke-width="2" fill="none" points="478,464 496,446 473,441 " />
<line x1="464" y1="450" x2="482" y2="432" stroke="#000000" stroke-opacity="1" stroke-width="3" stroke-linecap="round" fill="none" />
<ellipse cx="448" cy="416" rx="4" ry="4" fill="#000000" fill-opacity="1" stroke="none" />
</g>
<g class="Diode">
<line x1="608" y1="416" x2="583" y2="391" stroke="#000000" stroke-opacity="1" stroke-width="3" stroke-linecap="round" fill="none" />
<line x1="569" y1="377" x2="544" y2="352" stroke="#000000" stroke-opacity="1" stroke-width="3" stroke-linecap="round" fill="none" />
<polygon fill="#000000" fill-opacity="1" stroke="none" points="574,400 592,382 569,377 " />
<polygon stroke="#000000" stroke-opacity="1" stroke-width="2" fill="none" points="574,400 592,382 569,377 " />
<line x1="560" y1="386" x2="578" y2="368" stroke="#000000" stroke-opacity="1" stroke-width="3" stroke-linecap="round" fill="none" />
<ellipse cx="608" cy="416" rx="4" ry="4" fill="#000000" fill-opacity="1" stroke="none" />
<ellipse cx="544" cy="352" rx="4" ry="4" fill="#000000" fill-opacity="1" stroke="none" />
</g>
<g class="Diode">
<line x1="544" y1="480" x2="569" y2="455" stroke="#000000" stroke-opacity="1" stroke-width="3" stroke-linecap="round" fill="none" />
<line x1="583" y1="441" x2="608" y2="416" stroke="#000000" stroke-opacity="1" stroke-width="3" stroke-linecap="round" fill="none" />
<polygon fill="#000000" fill-opacity="1" stroke="none" points="560,446 578,464 583,441 " />
<polygon stroke="#000000" stroke-opacity="1" stroke-width="2" fill="none" points="560,446 578,464 583,441 " />
<line x1="574" y1="432" x2="592" y2="450" stroke="#000000" stroke-opacity="1" stroke-width="3" stroke-linecap="round" fill="none" />
<ellipse cx="544" cy="480" rx="4" ry="4" fill="#000000" fill-opacity="1" stroke="none" />
<ellipse cx="608" cy="416" rx="4" ry="4" fill="#000000" fill-opacity="1" stroke="none" />
</g>
<g class="Wire">
<line x1="544" y1="480" x2="512" y2="480" stroke="#000000" stroke-opacity="1" stroke-width="1.5" stroke-linecap="round" fill="none" />
<ellipse cx="544" cy="480" rx="4" ry="4" fill="#000000" fill-opacity="1" stroke="none" />
</g>
<g class="Port">
<polygon fill="#FFFFFF" fill-opacity="0.831372549019608" stroke="none" points="672,320 680,310 736,310 736,330 680,330 " />
<polygon stroke="#000000" stroke-opacity="1" stroke-width="1" fill="none" points="672,320 680,310 736,310 736,330 680,330 " />
<text x="699" y="325" font-family="sans-serif" font-size="15">1</text>
<text x="744" y="325" font-family="sans-serif" font-size="15">+ DC OUT</text>
</g>
<g class="Port">
<polygon fill="#FFFFFF" fill-opacity="0.831372549019608" stroke="none" points="672,512 680,502 736,502 736,522 680,522 " />
<polygon stroke="#000000" stroke-opacity="1" stroke-width="1" fill="none" points="672,512 680,502 736,502 736,522 680,522 " />
<text x="699" y="517" font-family="sans-serif" font-size="15">2</text>
<text x="744" y="517" font-family="sans-serif" font-size="15">- DC OUT</text>
</g>
<g class="Wire">
<line x1="544" y1="352" x2="512" y2="352" stroke="#000000" stroke-opacity="1" stroke-width="1.5" stroke-linecap="round" fill="none" />
<ellipse cx="544" cy="352" rx="4" ry="4" fill="#000000" fill-opacity="1" stroke="none" />
</g>
<g class="Wire">
<line x1="544" y1="320" x2="672" y2="320" stroke="#000000" stroke-opacity="1" stroke-width="1.5" stroke-linecap="round" fill="none" />
</g>
<g class="Wire">
<line x1="544" y1="320" x2="544" y2="352" stroke="#000000" stroke-opacity="1" stroke-width="1.5" stroke-linecap="round" fill="none" />
<ellipse cx="544" cy="352" rx="4" ry="4" fill="#000000" fill-opacity="1" stroke="none" />
</g>
<g class="Wire">
<line x1="544" y1="512" x2="672" y2="512" stroke="#000000" stroke-opacity="1" stroke-width="1.5" stroke-linecap="round" fill="none" />
</g>
<g class="Wire">
<line x1="544" y1="512" x2="544" y2="480" stroke="#000000" stroke-opacity="1" stroke-width="1.5" stroke-linecap="round" fill="none" />
<ellipse cx="544" cy="480" rx="4" ry="4" fill="#000000" fill-opacity="1" stroke="none" />
</g>
<g class="Wire">
<line x1="320" y1="448" x2="320" y2="416" stroke="#000000" stroke-opacity="1" stroke-width="1.5" stroke-linecap="round" fill="none" />
</g>
<g class="Wire">
<line x1="320" y1="416" x2="448" y2="416" stroke="#000000" stroke-opacity="1" stroke-width="1.5" stroke-linecap="round" fill="none" />
<ellipse cx="448" cy="416" rx="4" ry="4" fill="#000000" fill-opacity="1" stroke="none" />
</g>
<g class="Wire">
<line x1="320" y1="512" x2="320" y2="544" stroke="#000000" stroke-opacity="1" stroke-width="1.5" stroke-linecap="round" fill="none" />
</g>
<g class="Wire">
<line x1="320" y1="544" x2="608" y2="544" stroke="#000000" stroke-opacity="1" stroke-width="1.5" stroke-linecap="round" fill="none" />
</g>
<g class="Wire">
<line x1="608" y1="544" x2="608" y2="416" stroke="#000000" stroke-opacity="1" stroke-width="1.5" stroke-linecap="round" fill="none" />
<ellipse cx="608" cy="416" rx="4" ry="4" fill="#000000" fill-opacity="1" stroke="none" />
</g>
</svg>
