<?xml version="1.0" encoding="UTF-8"?>
<svg width="900px" height="370px" viewBox="0 0 900 370" version="1.1" xmlns="http://www.w3.org/2000/svg" xmlns:xlink="http://www.w3.org/1999/xlink">
    <!-- Generator: Sketch 52.5 (67469) - http://www.bohemiancoding.com/sketch -->
    <title>RGB_LED_Wiring</title>
    <desc>Created with Sketch.</desc>
    <g id="RGB_LED_Wiring" stroke="none" stroke-width="1" fill="none" fill-rule="evenodd">
        <rect id="Rectangle" stroke="#3D3530" stroke-width="2" fill="#EEEEEE" x="1" y="1" width="898" height="428"></rect>
        <rect id="Rectangle-Copy" stroke="#3D3530" stroke-width="2" fill="#F8FAE4" x="1" y="326" width="898" height="43"></rect>
        <path d="M698.154666,352 L698.154666,335.872 L703.626666,335.872 C705.434675,335.872 706.874661,336.347995 707.946666,337.3 C709.018672,338.252005 709.554666,339.447993 709.554666,340.888 C709.554666,341.960005 709.23867,342.911996 708.606666,343.744 C707.974663,344.576004 707.090672,345.167998 705.954666,345.52 L709.554666,352 L707.898666,352 L704.466666,345.856 L703.482666,345.904 L699.738666,345.904 L699.738666,352 L698.154666,352 Z M699.738666,344.392 L703.626666,344.392 C704.922673,344.392 705.962662,344.060003 706.746666,343.396 C707.53067,342.731997 707.922666,341.896005 707.922666,340.888 C707.922666,339.895995 707.53067,339.064003 706.746666,338.392 C705.962662,337.719997 704.922673,337.384 703.626666,337.384 L699.738666,337.384 L699.738666,344.392 Z M720.157333,352.192 C717.789321,352.192 715.89734,351.404008 714.481333,349.828 C713.065326,348.251992 712.357333,346.296012 712.357333,343.96 C712.357333,341.607988 713.065326,339.644008 714.481333,338.068 C715.89734,336.491992 717.789321,335.704 720.157333,335.704 C721.709341,335.704 723.069327,336.063996 724.237333,336.784 C725.405339,337.504004 726.30133,338.487994 726.925333,339.736 L725.437333,340.6 C724.941331,339.559995 724.233338,338.736003 723.313333,338.128 C722.393328,337.519997 721.341339,337.216 720.157333,337.216 C718.333324,337.216 716.873339,337.851994 715.777333,339.124 C714.681328,340.396006 714.133333,342.00799 714.133333,343.96 C714.133333,345.89601 714.681328,347.503994 715.777333,348.784 C716.873339,350.064006 718.333324,350.704 720.157333,350.704 C721.757341,350.704 723.089328,350.172005 724.153333,349.108 C725.217338,348.043995 725.845332,346.696008 726.037333,345.064 L720.805333,345.064 L720.805333,343.648 L727.693333,343.648 L727.693333,352 L726.253333,352 L726.253333,348.76 C725.66133,349.832005 724.841338,350.671997 723.793333,351.28 C722.745328,351.888003 721.53334,352.192 720.157333,352.192 Z M731.696,352 L731.696,335.872 L737.168,335.872 C738.976009,335.872 740.415994,336.295996 741.488,337.144 C742.560005,337.992004 743.096,339.047994 743.096,340.312 C743.096,341.096004 742.860002,341.807997 742.388,342.448 C741.915997,343.088003 741.256004,343.583998 740.408,343.936 C741.256004,344.288002 741.915997,344.783997 742.388,345.424 C742.860002,346.064003 743.096,346.783996 743.096,347.584 C743.096,348.848006 742.560005,349.899996 741.488,350.74 C740.415994,351.580004 738.976009,352 737.168,352 L731.696,352 Z M733.28,343.264 L737.168,343.264 C738.464006,343.264 739.503996,342.984003 740.288,342.424 C741.072004,341.863997 741.464,341.168004 741.464,340.336 C741.464,339.487996 741.072004,338.784003 740.288,338.224 C739.503996,337.663997 738.464006,337.384 737.168,337.384 L733.28,337.384 L733.28,343.264 Z M733.28,350.488 L737.168,350.488 C738.464006,350.488 739.503996,350.208003 740.288,349.648 C741.072004,349.087997 741.464,348.384004 741.464,347.536 C741.464,346.703996 741.072004,346.008003 740.288,345.448 C739.503996,344.887997 738.464006,344.608 737.168,344.608 L733.28,344.608 L733.28,350.488 Z M755.781333,350.416 L763.125333,350.416 L763.125333,352 L754.197333,352 L754.197333,335.872 L755.781333,335.872 L755.781333,350.416 Z M776.344,337.456 L767.344,337.456 L767.344,343 L772.408,343 L772.408,344.584 L767.344,344.584 L767.344,350.416 L776.344,350.416 L776.344,352 L765.76,352 L765.76,335.872 L776.344,335.872 L776.344,337.456 Z M780.178667,352 L780.178667,335.872 L783.826667,335.872 C786.48268,335.872 788.594659,336.639992 790.162667,338.176 C791.730674,339.712008 792.514667,341.631988 792.514667,343.936 C792.514667,346.224011 791.726674,348.139992 790.150667,349.684 C788.574659,351.228008 786.46668,352 783.826667,352 L780.178667,352 Z M781.762667,350.488 L783.826667,350.488 C785.938677,350.488 787.62666,349.868006 788.890667,348.628 C790.154673,347.387994 790.786667,345.824009 790.786667,343.936 C790.786667,342.047991 790.154673,340.484006 788.890667,339.244 C787.62666,338.003994 785.938677,337.384 783.826667,337.384 L781.762667,337.384 L781.762667,350.488 Z M824.664,335.872 L826.296,335.872 L820.728,352 L819.096,352 L814.344,338.032 L809.568,352 L807.96,352 L802.368,335.872 L804,335.872 L808.776,349.552 L813.6,335.872 L815.064,335.872 L819.912,349.552 L824.664,335.872 Z M830.586667,336.4 C830.410666,336.592001 830.186668,336.688 829.914667,336.688 C829.642665,336.688 829.414667,336.592001 829.230667,336.4 C829.046666,336.207999 828.954667,335.984001 828.954667,335.728 C828.954667,335.471999 829.046666,335.248001 829.230667,335.056 C829.414667,334.863999 829.642665,334.768 829.914667,334.768 C830.186668,334.768 830.414666,334.863999 830.598667,335.056 C830.782667,335.248001 830.874667,335.471999 830.874667,335.728 C830.874667,335.984001 830.778668,336.207999 830.586667,336.4 Z M829.122667,352 L829.122667,340 L830.706667,340 L830.706667,352 L829.122667,352 Z M840.469333,339.808 C841.317337,339.808 842.09333,340.015998 842.797333,340.432 L842.245333,342.016 C841.57333,341.519998 840.893337,341.272 840.205333,341.272 C839.197328,341.272 838.349337,341.627996 837.661333,342.34 C836.97333,343.052004 836.629333,343.927995 836.629333,344.968 L836.629333,352 L835.045333,352 L835.045333,340 L836.629333,340 L836.629333,341.776 C837.605338,340.463993 838.885325,339.808 840.469333,339.808 Z M847.232,336.4 C847.055999,336.592001 846.832001,336.688 846.56,336.688 C846.287999,336.688 846.060001,336.592001 845.876,336.4 C845.691999,336.207999 845.6,335.984001 845.6,335.728 C845.6,335.471999 845.691999,335.248001 845.876,335.056 C846.060001,334.863999 846.287999,334.768 846.56,334.768 C846.832001,334.768 847.059999,334.863999 847.244,335.056 C847.428001,335.248001 847.52,335.471999 847.52,335.728 C847.52,335.984001 847.424001,336.207999 847.232,336.4 Z M845.768,352 L845.768,340 L847.352,340 L847.352,352 L845.768,352 Z M857.114667,339.808 C858.506674,339.808 859.674662,340.299995 860.618667,341.284 C861.562671,342.268005 862.034667,343.479993 862.034667,344.92 L862.034667,352 L860.426667,352 L860.426667,344.968 C860.426667,343.943995 860.07867,343.072004 859.382667,342.352 C858.686663,341.631996 857.842672,341.272 856.850667,341.272 C855.858662,341.272 855.01467,341.631996 854.318667,342.352 C853.622663,343.072004 853.274667,343.943995 853.274667,344.968 L853.274667,352 L851.690667,352 L851.690667,340 L853.274667,340 L853.274667,341.776 C854.250672,340.463993 855.530659,339.808 857.114667,339.808 Z M875.973333,340.024 L877.581333,340.024 L877.581333,350.968 C877.565333,352.712009 876.93734,354.171994 875.697333,355.348 C874.457327,356.524006 873.021341,357.112 871.389333,357.112 C869.901326,357.112 868.633339,356.716004 867.585333,355.924 C866.537328,355.131996 865.829335,354.240005 865.461333,353.248 L866.757333,352.6 C867.061335,353.416004 867.637329,354.127997 868.485333,354.736 C869.333338,355.344003 870.301328,355.648 871.389333,355.648 C872.66934,355.648 873.753329,355.180005 874.641333,354.244 C875.529338,353.307995 875.981333,352.216006 875.997333,350.968 L875.973333,350.968 L875.973333,350.08 C874.757327,351.504007 873.197343,352.216 871.293333,352.216 C869.581325,352.216 868.121339,351.612006 866.913333,350.404 C865.705327,349.195994 865.101333,347.736009 865.101333,346.024 C865.101333,344.311991 865.705327,342.852006 866.913333,341.644 C868.121339,340.435994 869.581325,339.832 871.293333,339.832 C873.181343,339.832 874.741327,340.543993 875.973333,341.968 L875.973333,340.024 Z M871.317333,350.728 C872.61334,350.728 873.705329,350.276005 874.593333,349.372 C875.481338,348.467995 875.925333,347.360007 875.925333,346.048 C875.925333,344.735993 875.481338,343.628005 874.593333,342.724 C873.705329,341.819995 872.61334,341.368 871.317333,341.368 C870.037327,341.368 868.949338,341.819995 868.053333,342.724 C867.157329,343.628005 866.709333,344.735993 866.709333,346.048 C866.709333,347.360007 867.157329,348.467995 868.053333,349.372 C868.949338,350.276005 870.037327,350.728 871.317333,350.728 Z" id="RGB-LED-Wiring-Copy" fill="#23ABE3"></path>
        <g id="Common_Anode" transform="translate(485.000000, 24.000000)">
            <g id="RGB-LED" transform="translate(127.000000, 44.000000)">
                <path d="M2.5,67 L2.5,32.4241021 C1.96053752,11.1413674 9.55627245,0.5 25.2872048,0.5 C41.0181371,0.5 48.4224022,11.1413674 47.5,32.4241021 L47.5,67 L2.5,67 Z" id="Path" stroke="#979797" fill="#EEEEEE"></path>
                <g id="Internals" transform="translate(5.000000, 33.000000)" fill="#B2B2B2" stroke="#979797">
                    <path d="M0.5,34 L0.5,0.5 C1.16666667,0.5 1.66666667,0.5 2,0.5 C3.10896727,3.98386034 3.91114972,7.61672458 4.5,8.5 C4.5,9.5 4.5,10.6666667 4.5,12 L3.25,12 L3.25,34 L0.5,34 Z" id="Path-2"></path>
                    <polygon id="Path-3" points="10.5 34 10.5 12 5 2 5 -1.0658141e-14 9.25 -1.0658141e-14 9.25 2 27.5 2 27.5 4 21 8 21 10 15.5 12 15.5 34"></polygon>
                    <polygon id="Path-4" points="23 34 23 12 30 5 30 2 34.5 2 34.5 5 27.5 12 27.5 34"></polygon>
                    <polygon id="Path-5" points="39.5 34 39.5 1.5 37.5 1.5 35.5 8 35.5 12 37 12 37 34"></polygon>
                </g>
                <rect id="Rectangle" stroke="#979797" fill="#EEEEEE" x="0.5" y="66.5" width="49" height="7"></rect>
                <g id="R-Leg" transform="translate(5.000000, 73.000000)">
                    <rect id="Rectangle" fill="#737373" x="0" y="0" width="4" height="63"></rect>
                    <rect id="Rectangle-Copy-4" fill="#D0021B" x="0" y="10" width="4" height="13"></rect>
                </g>
                <g id="CMN-Leg" transform="translate(16.000000, 73.000000)">
                    <rect id="Rectangle-Copy" fill="#737373" x="0" y="0" width="4" height="83"></rect>
                    <rect id="Rectangle-Copy-5" fill="#000000" x="0" y="10" width="4" height="13"></rect>
                </g>
                <g id="G-Leg" transform="translate(28.000000, 73.000000)">
                    <rect id="Rectangle-Copy-2" fill="#737373" x="0" y="0" width="4" height="73"></rect>
                    <rect id="Rectangle-Copy-6" fill="#7ED321" x="0" y="10" width="4" height="13"></rect>
                </g>
                <g id="B-Leg" transform="translate(40.000000, 73.000000)">
                    <rect id="Rectangle-Copy-3" fill="#737373" x="0" y="0" width="4" height="63"></rect>
                    <rect id="Rectangle-Copy-7" fill="#4A90E2" x="0" y="10" width="4" height="13"></rect>
                </g>
            </g>
            <path d="M62.116,274.736 L61.636,274.736 C61.5079994,274.111997 61.2360021,273.656001 60.82,273.368 C59.5079934,274.728007 58.0200083,275.408 56.356,275.408 C54.3239898,275.408 52.5880072,274.664007 51.148,273.176 C49.7079928,271.687993 48.988,269.89601 48.988,267.8 C48.988,265.70399 49.7079928,263.912007 51.148,262.424 C52.5880072,260.935993 54.3239898,260.192 56.356,260.192 C58.0520085,260.192 59.5399936,260.871993 60.82,262.232 C61.2520022,261.895998 61.5239994,261.440003 61.636,260.864 L62.116,260.864 L62.116,266.144 L61.636,266.144 C61.2999983,264.559992 60.6800045,263.328004 59.776,262.448 C58.8719955,261.567996 57.7640066,261.128 56.452,261.128 C55.5399954,261.128 54.7320035,261.331998 54.028,261.74 C53.3239965,262.148002 52.776002,262.687997 52.384,263.36 C51.991998,264.032003 51.700001,264.743996 51.508,265.496 C51.315999,266.248004 51.22,267.015996 51.22,267.8 C51.22,268.584004 51.315999,269.351996 51.508,270.104 C51.700001,270.856004 51.991998,271.563997 52.384,272.228 C52.776002,272.892003 53.3239965,273.427998 54.028,273.836 C54.7320035,274.244002 55.5399954,274.448 56.452,274.448 C57.7640066,274.448 58.8719955,274.004004 59.776,273.116 C60.6800045,272.227996 61.2999983,271.008008 61.636,269.456 L62.116,269.456 L62.116,274.736 Z M74.3,267.896 C75.2600048,268.744004 75.74,269.775994 75.74,270.992 C75.74,272.208006 75.2640048,273.247996 74.312,274.112 C73.3599952,274.976004 72.2200066,275.408 70.892,275.408 C69.5639934,275.408 68.4240048,274.976004 67.472,274.112 C66.5199952,273.247996 66.044,272.208006 66.044,270.992 C66.044,269.775994 66.5199952,268.740004 67.472,267.884 C68.4240048,267.027996 69.5639934,266.6 70.892,266.6 C72.2200066,266.6 73.3559953,267.031996 74.3,267.896 Z M73.052,273.512 C73.5480025,272.855997 73.796,272.016005 73.796,270.992 C73.796,269.967995 73.5480025,269.132003 73.052,268.484 C72.5559975,267.835997 71.8360047,267.512 70.892,267.512 C69.9479953,267.512 69.2280025,267.839997 68.732,268.496 C68.2359975,269.152003 67.988,269.983995 67.988,270.992 C67.988,272.000005 68.2359975,272.831997 68.732,273.488 C69.2280025,274.144003 69.9479953,274.472 70.892,274.472 C71.8360047,274.472 72.5559975,274.152003 73.052,273.512 Z M88.284,270.128 L88.284,271.688 C88.284,272.952006 88.3679992,273.735998 88.536,274.04 C88.7040008,274.344002 89.1239966,274.496 89.796,274.496 L89.796,275 L85.092,275 L85.092,274.496 C85.7640034,274.496 86.1839992,274.344002 86.352,274.04 C86.5200008,273.735998 86.604,272.952006 86.604,271.688 L86.604,270.296 C86.604,268.583991 86.0280058,267.728 84.876,267.728 C84.3799975,267.728 83.8440029,267.959998 83.268,268.424 C82.6919971,268.888002 82.404,269.455997 82.404,270.128 L82.404,271.688 C82.404,272.936006 82.4879992,273.715998 82.656,274.028 C82.8240008,274.340002 83.2359967,274.496 83.892,274.496 L83.892,275 L78.804,275 L78.804,274.496 C79.604004,274.496 80.1199988,274.328002 80.352,273.992 C80.5840012,273.655998 80.7,272.888006 80.7,271.688 L80.7,270.488 C80.7,269.303994 80.5840012,268.544002 80.352,268.208 C80.1199988,267.871998 79.604004,267.704 78.804,267.704 L78.804,267.2 L81.996,266.6 C82.1400007,266.904002 82.2759994,267.479996 82.404,268.328 C83.3160046,267.175994 84.3559942,266.6 85.524,266.6 C86.8520066,266.6 87.6999982,267.199994 88.068,268.4 C88.3880016,267.951998 88.8639968,267.540002 89.496,267.164 C90.1280032,266.787998 90.7719967,266.6 91.428,266.6 C93.2680092,266.6 94.188,267.791988 94.188,270.176 L94.188,271.688 C94.188,272.888006 94.3039988,273.655998 94.536,273.992 C94.7680012,274.328002 95.283996,274.496 96.084,274.496 L96.084,275 L90.996,275 L90.996,274.496 C91.6680034,274.496 92.0839992,274.344002 92.244,274.04 C92.4040008,273.735998 92.484,272.952006 92.484,271.688 L92.484,270.296 C92.484,268.583991 91.9160057,267.728 90.78,267.728 C90.2839975,267.728 89.7440029,267.959998 89.16,268.424 C88.5759971,268.888002 88.284,269.455997 88.284,270.128 Z M107.956,270.128 L107.956,271.688 C107.956,272.952006 108.039999,273.735998 108.208,274.04 C108.376001,274.344002 108.795997,274.496 109.468,274.496 L109.468,275 L104.764,275 L104.764,274.496 C105.436003,274.496 105.855999,274.344002 106.024,274.04 C106.192001,273.735998 106.276,272.952006 106.276,271.688 L106.276,270.296 C106.276,268.583991 105.700006,267.728 104.548,267.728 C104.051998,267.728 103.516003,267.959998 102.94,268.424 C102.363997,268.888002 102.076,269.455997 102.076,270.128 L102.076,271.688 C102.076,272.936006 102.159999,273.715998 102.328,274.028 C102.496001,274.340002 102.907997,274.496 103.564,274.496 L103.564,275 L98.476,275 L98.476,274.496 C99.276004,274.496 99.7919988,274.328002 100.024,273.992 C100.256001,273.655998 100.372,272.888006 100.372,271.688 L100.372,270.488 C100.372,269.303994 100.256001,268.544002 100.024,268.208 C99.7919988,267.871998 99.276004,267.704 98.476,267.704 L98.476,267.2 L101.668,266.6 C101.812001,266.904002 101.947999,267.479996 102.076,268.328 C102.988005,267.175994 104.027994,266.6 105.196,266.6 C106.524007,266.6 107.371998,267.199994 107.74,268.4 C108.060002,267.951998 108.535997,267.540002 109.168,267.164 C109.800003,266.787998 110.443997,266.6 111.1,266.6 C112.940009,266.6 113.86,267.791988 113.86,270.176 L113.86,271.688 C113.86,272.888006 113.975999,273.655998 114.208,273.992 C114.440001,274.328002 114.955996,274.496 115.756,274.496 L115.756,275 L110.668,275 L110.668,274.496 C111.340003,274.496 111.755999,274.344002 111.916,274.04 C112.076001,273.735998 112.156,272.952006 112.156,271.688 L112.156,270.296 C112.156,268.583991 111.588006,267.728 110.452,267.728 C109.955998,267.728 109.416003,267.959998 108.832,268.424 C108.247997,268.888002 107.956,269.455997 107.956,270.128 Z M126.644,267.896 C127.604005,268.744004 128.084,269.775994 128.084,270.992 C128.084,272.208006 127.608005,273.247996 126.656,274.112 C125.703995,274.976004 124.564007,275.408 123.236,275.408 C121.907993,275.408 120.768005,274.976004 119.816,274.112 C118.863995,273.247996 118.388,272.208006 118.388,270.992 C118.388,269.775994 118.863995,268.740004 119.816,267.884 C120.768005,267.027996 121.907993,266.6 123.236,266.6 C124.564007,266.6 125.699995,267.031996 126.644,267.896 Z M125.396,273.512 C125.892002,272.855997 126.14,272.016005 126.14,270.992 C126.14,269.967995 125.892002,269.132003 125.396,268.484 C124.899998,267.835997 124.180005,267.512 123.236,267.512 C122.291995,267.512 121.572002,267.839997 121.076,268.496 C120.579998,269.152003 120.332,269.983995 120.332,270.992 C120.332,272.000005 120.579998,272.831997 121.076,273.488 C121.572002,274.144003 122.291995,274.472 123.236,274.472 C124.180005,274.472 124.899998,274.152003 125.396,273.512 Z M134.748,268.328 C135.660005,267.175994 136.771993,266.6 138.084,266.6 C139.124005,266.6 139.903997,266.927997 140.424,267.584 C140.944003,268.240003 141.204,269.103995 141.204,270.176 L141.204,271.688 C141.204,272.888006 141.319999,273.655998 141.552,273.992 C141.784001,274.328002 142.299996,274.496 143.1,274.496 L143.1,275 L137.604,275 L137.604,274.496 C138.388004,274.496 138.899999,274.324002 139.14,273.98 C139.380001,273.635998 139.5,272.872006 139.5,271.688 L139.5,270.296 C139.5,268.583991 138.836007,267.728 137.508,267.728 C136.819997,267.728 136.188003,267.967998 135.612,268.448 C135.035997,268.928002 134.748,269.487997 134.748,270.128 L134.748,271.688 C134.748,272.920006 134.843999,273.695998 135.036,274.016 C135.228001,274.336002 135.691996,274.496 136.428,274.496 L136.428,275 L131.148,275 L131.148,274.496 C131.948004,274.496 132.463999,274.328002 132.696,273.992 C132.928001,273.655998 133.044,272.888006 133.044,271.688 L133.044,270.488 C133.044,269.303994 132.928001,268.544002 132.696,268.208 C132.463999,267.871998 131.948004,267.704 131.148,267.704 L131.148,267.2 L134.34,266.6 C134.484001,266.904002 134.619999,267.479996 134.748,268.328 Z M155.132,270.008 L153.98,272.672 C153.675998,273.328003 153.663999,273.795999 153.944,274.076 C154.224001,274.356001 154.859995,274.496 155.852,274.496 L155.852,275 L150.236,275 L150.236,274.496 C150.748003,274.496 151.143999,274.476 151.424,274.436 C151.704001,274.396 151.951999,274.268001 152.168,274.052 C152.384001,273.835999 152.536,273.640001 152.624,273.464 C152.712,273.287999 152.875999,272.936003 153.116,272.408 L158.396,260.192 L158.708,260.192 L164.012,272.408 C164.252001,272.936003 164.416,273.287999 164.504,273.464 C164.592,273.640001 164.743999,273.835999 164.96,274.052 C165.176001,274.268001 165.419999,274.396 165.692,274.436 C165.964001,274.476 166.355997,274.496 166.868,274.496 L166.868,275 L160.22,275 L160.22,274.496 C161.212005,274.496 161.843999,274.356001 162.116,274.076 C162.388001,273.795999 162.380001,273.328003 162.092,272.672 L160.94,270.008 L155.132,270.008 Z M160.532,269.12 L158.012,263.336 L155.516,269.12 L160.532,269.12 Z M171.468,268.328 C172.380005,267.175994 173.491993,266.6 174.804,266.6 C175.844005,266.6 176.623997,266.927997 177.144,267.584 C177.664003,268.240003 177.924,269.103995 177.924,270.176 L177.924,271.688 C177.924,272.888006 178.039999,273.655998 178.272,273.992 C178.504001,274.328002 179.019996,274.496 179.82,274.496 L179.82,275 L174.324,275 L174.324,274.496 C175.108004,274.496 175.619999,274.324002 175.86,273.98 C176.100001,273.635998 176.22,272.872006 176.22,271.688 L176.22,270.296 C176.22,268.583991 175.556007,267.728 174.228,267.728 C173.539997,267.728 172.908003,267.967998 172.332,268.448 C171.755997,268.928002 171.468,269.487997 171.468,270.128 L171.468,271.688 C171.468,272.920006 171.563999,273.695998 171.756,274.016 C171.948001,274.336002 172.411996,274.496 173.148,274.496 L173.148,275 L167.868,275 L167.868,274.496 C168.668004,274.496 169.183999,274.328002 169.416,273.992 C169.648001,273.655998 169.764,272.888006 169.764,271.688 L169.764,270.488 C169.764,269.303994 169.648001,268.544002 169.416,268.208 C169.183999,267.871998 168.668004,267.704 167.868,267.704 L167.868,267.2 L171.06,266.6 C171.204001,266.904002 171.339999,267.479996 171.468,268.328 Z M190.684,267.896 C191.644005,268.744004 192.124,269.775994 192.124,270.992 C192.124,272.208006 191.648005,273.247996 190.696,274.112 C189.743995,274.976004 188.604007,275.408 187.276,275.408 C185.947993,275.408 184.808005,274.976004 183.856,274.112 C182.903995,273.247996 182.428,272.208006 182.428,270.992 C182.428,269.775994 182.903995,268.740004 183.856,267.884 C184.808005,267.027996 185.947993,266.6 187.276,266.6 C188.604007,266.6 189.739995,267.031996 190.684,267.896 Z M189.436,273.512 C189.932002,272.855997 190.18,272.016005 190.18,270.992 C190.18,269.967995 189.932002,269.132003 189.436,268.484 C188.939998,267.835997 188.220005,267.512 187.276,267.512 C186.331995,267.512 185.612002,267.839997 185.116,268.496 C184.619998,269.152003 184.372,269.983995 184.372,270.992 C184.372,272.000005 184.619998,272.831997 185.116,273.488 C185.612002,274.144003 186.331995,274.472 187.276,274.472 C188.220005,274.472 188.939998,274.152003 189.436,273.512 Z M202.532,272.552 L202.532,269.456 C202.307999,268.879997 201.980002,268.420002 201.548,268.076 C201.115998,267.731998 200.636003,267.56 200.108,267.56 C199.211996,267.56 198.532002,267.879997 198.068,268.52 C197.603998,269.160003 197.372,269.983995 197.372,270.992 C197.372,272.016005 197.603998,272.847997 198.068,273.488 C198.532002,274.128003 199.211996,274.448 200.108,274.448 C200.636003,274.448 201.115998,274.276002 201.548,273.932 C201.980002,273.587998 202.307999,273.128003 202.532,272.552 Z M202.532,268.016 L202.532,264.104 C202.532,262.903994 202.416001,262.136002 202.184,261.8 C201.951999,261.463998 201.436004,261.296 200.636,261.296 L200.636,260.792 L204.236,260.192 L204.236,271.496 C204.236,272.696006 204.351999,273.463998 204.584,273.8 C204.816001,274.136002 205.331996,274.304 206.132,274.304 L206.132,274.808 L202.94,275.408 C202.827999,275.167999 202.700001,274.680004 202.556,273.944 C201.771996,274.920005 200.788006,275.408 199.604,275.408 C198.467994,275.408 197.488004,274.976004 196.664,274.112 C195.839996,273.247996 195.428,272.208006 195.428,270.992 C195.428,269.775994 195.839996,268.740004 196.664,267.884 C197.488004,267.027996 198.467994,266.6 199.604,266.6 C200.788006,266.6 201.763996,267.071995 202.532,268.016 Z M210.804,269.504 L214.788,269.504 C214.948001,269.055998 214.880001,268.620002 214.584,268.196 C214.287999,267.771998 213.780004,267.56 213.06,267.56 C212.547997,267.56 212.088002,267.735998 211.68,268.088 C211.271998,268.440002 210.980001,268.911997 210.804,269.504 Z M210.66,270.392 C210.515999,271.576006 210.703997,272.539996 211.224,273.284 C211.744003,274.028004 212.595994,274.4 213.78,274.4 C214.180002,274.4 214.635997,274.296001 215.148,274.088 C215.660003,273.879999 216.083998,273.616002 216.42,273.296 L216.852,273.824 C216.419998,274.288002 215.868003,274.667999 215.196,274.964 C214.523997,275.260001 213.852003,275.408 213.18,275.408 C211.883994,275.408 210.820004,274.980004 209.988,274.124 C209.155996,273.267996 208.74,272.224006 208.74,270.992 C208.74,269.759994 209.191995,268.720004 210.096,267.872 C211.000005,267.023996 212.027994,266.6 213.18,266.6 C214.268005,266.6 215.155997,266.979996 215.844,267.74 C216.532003,268.500004 216.732001,269.383995 216.444,270.392 L210.66,270.392 Z" id="Common-Anode-Copy" fill="#524740"></path>
            <g id="Circuit">
                <polyline id="Path-6" stroke="#EF7D3B" stroke-width="3" points="23 127 23 238 145 238 145 200"></polyline>
                <polyline id="Resistor-Copy-3" stroke="#3D3530" stroke-width="3" stroke-linejoin="bevel" transform="translate(202.965444, 133.562838) rotate(-270.000000) translate(-202.965444, -133.562838) " points="167.965444 133.562838 172.965444 133.562838 177.965444 120.562838 187.965444 146.562838 197.965444 120.562838 207.965444 146.562838 217.965444 120.562838 227.965444 146.562838 232.965444 133.562838 237.965444 133.562838"></polyline>
                <polyline id="Resistor-Copy-4" stroke="#3D3530" stroke-width="3" stroke-linejoin="bevel" transform="translate(92.965444, 133.562838) rotate(-270.000000) translate(-92.965444, -133.562838) " points="57.9654437 133.562838 62.9654437 133.562838 67.9654437 120.562838 77.9654437 146.562838 87.9654437 120.562838 97.9654437 146.562838 107.965444 120.562838 117.965444 146.562838 122.965444 133.562838 127.965444 133.562838"></polyline>
                <polyline id="Resistor-Copy-5" stroke="#3D3530" stroke-width="3" stroke-linejoin="bevel" transform="translate(237.965444, 133.562838) rotate(-270.000000) translate(-237.965444, -133.562838) " points="202.965444 133.562838 207.965444 133.562838 212.965444 120.562838 222.965444 146.562838 232.965444 120.562838 242.965444 146.562838 252.965444 120.562838 262.965444 146.562838 267.965444 133.562838 272.965444 133.562838"></polyline>
                <polyline id="Path-7" stroke="#3D3530" stroke-width="3" points="23 115.231149 23 5 238 5 238 99"></polyline>
                <path d="M93,99 L93,6" id="Path-8" stroke="#3D3530" stroke-width="3"></path>
                <path d="M203,99 L203,6" id="Path-9" stroke="#3D3530" stroke-width="3"></path>
                <polyline id="Path-10" stroke="#3D3530" stroke-width="3" points="203 168 203 205 169 205 169 180"></polyline>
                <polyline id="Path-11" stroke="#3D3530" stroke-width="3" points="238 168 238 237 157 237 157 190"></polyline>
                <polyline id="Path-12" stroke="#3D3530" stroke-width="3" points="93 168 93 205 134 205 134 180"></polyline>
                <circle id="Oval-2-Copy-4" fill="#3D3530" cx="93" cy="5" r="5"></circle>
                <circle id="Oval-2-Copy-5" fill="#3D3530" cx="203" cy="5" r="5"></circle>
                <g id="Voltage-Source" transform="translate(0.000000, 101.000000)">
                    <path d="M8,15 L38,15" id="Line-Copy-3" stroke="#3D3530" stroke-width="3" stroke-linecap="square"></path>
                    <path d="M0,25 L45,25" id="Line-Copy" stroke="#EF7D3B" stroke-width="3" stroke-linecap="square"></path>
                    <rect id="Combined-Shape" fill="#524740" x="37" y="0" width="9" height="1"></rect>
                    <path d="M41,38 L41,34 L42,34 L42,38 L46,38 L46,39 L42,39 L42,43 L41,43 L41,39 L37,39 L37,38 L41,38 Z" id="Combined-Shape" fill="#524740"></path>
                </g>
            </g>
        </g>
        <g id="Common_Cathode" transform="translate(135.000000, 24.000000)">
            <g id="RGB-LED" transform="translate(127.000000, 44.000000)">
                <path d="M2.5,67 L2.5,32.4241021 C1.96053752,11.1413674 9.55627245,0.5 25.2872048,0.5 C41.0181371,0.5 48.4224022,11.1413674 47.5,32.4241021 L47.5,67 L2.5,67 Z" id="Path" stroke="#979797" fill="#EEEEEE"></path>
                <g id="Internals" transform="translate(5.000000, 33.000000)" fill="#B2B2B2" stroke="#979797">
                    <path d="M0.5,34 L0.5,0.5 C1.16666667,0.5 1.66666667,0.5 2,0.5 C3.10896727,3.98386034 3.91114972,7.61672458 4.5,8.5 C4.5,9.5 4.5,10.6666667 4.5,12 L3.25,12 L3.25,34 L0.5,34 Z" id="Path-2"></path>
                    <polygon id="Path-3" points="10.5 34 10.5 12 5 2 5 -1.0658141e-14 9.25 -1.0658141e-14 9.25 2 27.5 2 27.5 4 21 8 21 10 15.5 12 15.5 34"></polygon>
                    <polygon id="Path-4" points="23 34 23 12 30 5 30 2 34.5 2 34.5 5 27.5 12 27.5 34"></polygon>
                    <polygon id="Path-5" points="39.5 34 39.5 1.5 37.5 1.5 35.5 8 35.5 12 37 12 37 34"></polygon>
                </g>
                <rect id="Rectangle" stroke="#979797" fill="#EEEEEE" x="0.5" y="66.5" width="49" height="7"></rect>
                <g id="R-Leg" transform="translate(5.000000, 73.000000)">
                    <rect id="Rectangle" fill="#737373" x="0" y="0" width="4" height="63"></rect>
                    <rect id="Rectangle-Copy-4" fill="#D0021B" x="0" y="10" width="4" height="13"></rect>
                </g>
                <g id="CMN-Leg" transform="translate(16.000000, 73.000000)">
                    <rect id="Rectangle-Copy" fill="#737373" x="0" y="0" width="4" height="83"></rect>
                    <rect id="Rectangle-Copy-5" fill="#000000" x="0" y="10" width="4" height="13"></rect>
                </g>
                <g id="G-Leg" transform="translate(28.000000, 73.000000)">
                    <rect id="Rectangle-Copy-2" fill="#737373" x="0" y="0" width="4" height="73"></rect>
                    <rect id="Rectangle-Copy-6" fill="#7ED321" x="0" y="10" width="4" height="13"></rect>
                </g>
                <g id="B-Leg" transform="translate(40.000000, 73.000000)">
                    <rect id="Rectangle-Copy-3" fill="#737373" x="0" y="0" width="4" height="63"></rect>
                    <rect id="Rectangle-Copy-7" fill="#4A90E2" x="0" y="10" width="4" height="13"></rect>
                </g>
            </g>
            <path d="M51.236,274.736 L50.756,274.736 C50.6279994,274.111997 50.3560021,273.656001 49.94,273.368 C48.6279934,274.728007 47.1400083,275.408 45.476,275.408 C43.4439898,275.408 41.7080072,274.664007 40.268,273.176 C38.8279928,271.687993 38.108,269.89601 38.108,267.8 C38.108,265.70399 38.8279928,263.912007 40.268,262.424 C41.7080072,260.935993 43.4439898,260.192 45.476,260.192 C47.1720085,260.192 48.6599936,260.871993 49.94,262.232 C50.3720022,261.895998 50.6439994,261.440003 50.756,260.864 L51.236,260.864 L51.236,266.144 L50.756,266.144 C50.4199983,264.559992 49.8000045,263.328004 48.896,262.448 C47.9919955,261.567996 46.8840066,261.128 45.572,261.128 C44.6599954,261.128 43.8520035,261.331998 43.148,261.74 C42.4439965,262.148002 41.896002,262.687997 41.504,263.36 C41.111998,264.032003 40.820001,264.743996 40.628,265.496 C40.435999,266.248004 40.34,267.015996 40.34,267.8 C40.34,268.584004 40.435999,269.351996 40.628,270.104 C40.820001,270.856004 41.111998,271.563997 41.504,272.228 C41.896002,272.892003 42.4439965,273.427998 43.148,273.836 C43.8520035,274.244002 44.6599954,274.448 45.572,274.448 C46.8840066,274.448 47.9919955,274.004004 48.896,273.116 C49.8000045,272.227996 50.4199983,271.008008 50.756,269.456 L51.236,269.456 L51.236,274.736 Z M63.42,267.896 C64.3800048,268.744004 64.86,269.775994 64.86,270.992 C64.86,272.208006 64.3840048,273.247996 63.432,274.112 C62.4799952,274.976004 61.3400066,275.408 60.012,275.408 C58.6839934,275.408 57.5440048,274.976004 56.592,274.112 C55.6399952,273.247996 55.164,272.208006 55.164,270.992 C55.164,269.775994 55.6399952,268.740004 56.592,267.884 C57.5440048,267.027996 58.6839934,266.6 60.012,266.6 C61.3400066,266.6 62.4759953,267.031996 63.42,267.896 Z M62.172,273.512 C62.6680025,272.855997 62.916,272.016005 62.916,270.992 C62.916,269.967995 62.6680025,269.132003 62.172,268.484 C61.6759975,267.835997 60.9560047,267.512 60.012,267.512 C59.0679953,267.512 58.3480025,267.839997 57.852,268.496 C57.3559975,269.152003 57.108,269.983995 57.108,270.992 C57.108,272.000005 57.3559975,272.831997 57.852,273.488 C58.3480025,274.144003 59.0679953,274.472 60.012,274.472 C60.9560047,274.472 61.6759975,274.152003 62.172,273.512 Z M77.404,270.128 L77.404,271.688 C77.404,272.952006 77.4879992,273.735998 77.656,274.04 C77.8240008,274.344002 78.2439966,274.496 78.916,274.496 L78.916,275 L74.212,275 L74.212,274.496 C74.8840034,274.496 75.3039992,274.344002 75.472,274.04 C75.6400008,273.735998 75.724,272.952006 75.724,271.688 L75.724,270.296 C75.724,268.583991 75.1480058,267.728 73.996,267.728 C73.4999975,267.728 72.9640029,267.959998 72.388,268.424 C71.8119971,268.888002 71.524,269.455997 71.524,270.128 L71.524,271.688 C71.524,272.936006 71.6079992,273.715998 71.776,274.028 C71.9440008,274.340002 72.3559967,274.496 73.012,274.496 L73.012,275 L67.924,275 L67.924,274.496 C68.724004,274.496 69.2399988,274.328002 69.472,273.992 C69.7040012,273.655998 69.82,272.888006 69.82,271.688 L69.82,270.488 C69.82,269.303994 69.7040012,268.544002 69.472,268.208 C69.2399988,267.871998 68.724004,267.704 67.924,267.704 L67.924,267.2 L71.116,266.6 C71.2600007,266.904002 71.3959994,267.479996 71.524,268.328 C72.4360046,267.175994 73.4759942,266.6 74.644,266.6 C75.9720066,266.6 76.8199982,267.199994 77.188,268.4 C77.5080016,267.951998 77.9839968,267.540002 78.616,267.164 C79.2480032,266.787998 79.8919967,266.6 80.548,266.6 C82.3880092,266.6 83.308,267.791988 83.308,270.176 L83.308,271.688 C83.308,272.888006 83.4239988,273.655998 83.656,273.992 C83.8880012,274.328002 84.403996,274.496 85.204,274.496 L85.204,275 L80.116,275 L80.116,274.496 C80.7880034,274.496 81.2039992,274.344002 81.364,274.04 C81.5240008,273.735998 81.604,272.952006 81.604,271.688 L81.604,270.296 C81.604,268.583991 81.0360057,267.728 79.9,267.728 C79.4039975,267.728 78.8640029,267.959998 78.28,268.424 C77.6959971,268.888002 77.404,269.455997 77.404,270.128 Z M97.076,270.128 L97.076,271.688 C97.076,272.952006 97.1599992,273.735998 97.328,274.04 C97.4960008,274.344002 97.9159966,274.496 98.588,274.496 L98.588,275 L93.884,275 L93.884,274.496 C94.5560034,274.496 94.9759992,274.344002 95.144,274.04 C95.3120008,273.735998 95.396,272.952006 95.396,271.688 L95.396,270.296 C95.396,268.583991 94.8200058,267.728 93.668,267.728 C93.1719975,267.728 92.6360029,267.959998 92.06,268.424 C91.4839971,268.888002 91.196,269.455997 91.196,270.128 L91.196,271.688 C91.196,272.936006 91.2799992,273.715998 91.448,274.028 C91.6160008,274.340002 92.0279967,274.496 92.684,274.496 L92.684,275 L87.596,275 L87.596,274.496 C88.396004,274.496 88.9119988,274.328002 89.144,273.992 C89.3760012,273.655998 89.492,272.888006 89.492,271.688 L89.492,270.488 C89.492,269.303994 89.3760012,268.544002 89.144,268.208 C88.9119988,267.871998 88.396004,267.704 87.596,267.704 L87.596,267.2 L90.788,266.6 C90.9320007,266.904002 91.0679994,267.479996 91.196,268.328 C92.1080046,267.175994 93.1479942,266.6 94.316,266.6 C95.6440066,266.6 96.4919982,267.199994 96.86,268.4 C97.1800016,267.951998 97.6559968,267.540002 98.288,267.164 C98.9200032,266.787998 99.5639967,266.6 100.22,266.6 C102.060009,266.6 102.98,267.791988 102.98,270.176 L102.98,271.688 C102.98,272.888006 103.095999,273.655998 103.328,273.992 C103.560001,274.328002 104.075996,274.496 104.876,274.496 L104.876,275 L99.788,275 L99.788,274.496 C100.460003,274.496 100.875999,274.344002 101.036,274.04 C101.196001,273.735998 101.276,272.952006 101.276,271.688 L101.276,270.296 C101.276,268.583991 100.708006,267.728 99.572,267.728 C99.0759975,267.728 98.5360029,267.959998 97.952,268.424 C97.3679971,268.888002 97.076,269.455997 97.076,270.128 Z M115.764,267.896 C116.724005,268.744004 117.204,269.775994 117.204,270.992 C117.204,272.208006 116.728005,273.247996 115.776,274.112 C114.823995,274.976004 113.684007,275.408 112.356,275.408 C111.027993,275.408 109.888005,274.976004 108.936,274.112 C107.983995,273.247996 107.508,272.208006 107.508,270.992 C107.508,269.775994 107.983995,268.740004 108.936,267.884 C109.888005,267.027996 111.027993,266.6 112.356,266.6 C113.684007,266.6 114.819995,267.031996 115.764,267.896 Z M114.516,273.512 C115.012002,272.855997 115.26,272.016005 115.26,270.992 C115.26,269.967995 115.012002,269.132003 114.516,268.484 C114.019998,267.835997 113.300005,267.512 112.356,267.512 C111.411995,267.512 110.692002,267.839997 110.196,268.496 C109.699998,269.152003 109.452,269.983995 109.452,270.992 C109.452,272.000005 109.699998,272.831997 110.196,273.488 C110.692002,274.144003 111.411995,274.472 112.356,274.472 C113.300005,274.472 114.019998,274.152003 114.516,273.512 Z M123.868,268.328 C124.780005,267.175994 125.891993,266.6 127.204,266.6 C128.244005,266.6 129.023997,266.927997 129.544,267.584 C130.064003,268.240003 130.324,269.103995 130.324,270.176 L130.324,271.688 C130.324,272.888006 130.439999,273.655998 130.672,273.992 C130.904001,274.328002 131.419996,274.496 132.22,274.496 L132.22,275 L126.724,275 L126.724,274.496 C127.508004,274.496 128.019999,274.324002 128.26,273.98 C128.500001,273.635998 128.62,272.872006 128.62,271.688 L128.62,270.296 C128.62,268.583991 127.956007,267.728 126.628,267.728 C125.939997,267.728 125.308003,267.967998 124.732,268.448 C124.155997,268.928002 123.868,269.487997 123.868,270.128 L123.868,271.688 C123.868,272.920006 123.963999,273.695998 124.156,274.016 C124.348001,274.336002 124.811996,274.496 125.548,274.496 L125.548,275 L120.268,275 L120.268,274.496 C121.068004,274.496 121.583999,274.328002 121.816,273.992 C122.048001,273.655998 122.164,272.888006 122.164,271.688 L122.164,270.488 C122.164,269.303994 122.048001,268.544002 121.816,268.208 C121.583999,267.871998 121.068004,267.704 120.268,267.704 L120.268,267.2 L123.46,266.6 C123.604001,266.904002 123.739999,267.479996 123.868,268.328 Z M155.1,274.736 L154.62,274.736 C154.491999,274.111997 154.220002,273.656001 153.804,273.368 C152.491993,274.728007 151.004008,275.408 149.34,275.408 C147.30799,275.408 145.572007,274.664007 144.132,273.176 C142.691993,271.687993 141.972,269.89601 141.972,267.8 C141.972,265.70399 142.691993,263.912007 144.132,262.424 C145.572007,260.935993 147.30799,260.192 149.34,260.192 C151.036008,260.192 152.523994,260.871993 153.804,262.232 C154.236002,261.895998 154.507999,261.440003 154.62,260.864 L155.1,260.864 L155.1,266.144 L154.62,266.144 C154.283998,264.559992 153.664005,263.328004 152.76,262.448 C151.855995,261.567996 150.748007,261.128 149.436,261.128 C148.523995,261.128 147.716004,261.331998 147.012,261.74 C146.307996,262.148002 145.760002,262.687997 145.368,263.36 C144.975998,264.032003 144.684001,264.743996 144.492,265.496 C144.299999,266.248004 144.204,267.015996 144.204,267.8 C144.204,268.584004 144.299999,269.351996 144.492,270.104 C144.684001,270.856004 144.975998,271.563997 145.368,272.228 C145.760002,272.892003 146.307996,273.427998 147.012,273.836 C147.716004,274.244002 148.523995,274.448 149.436,274.448 C150.748007,274.448 151.855995,274.004004 152.76,273.116 C153.664005,272.227996 154.283998,271.008008 154.62,269.456 L155.1,269.456 L155.1,274.736 Z M167.164,274.52 C166.699998,275.016002 166.172003,275.264 165.58,275.264 C164.619995,275.264 164.076001,274.800005 163.948,273.872 C162.875995,274.832005 161.876005,275.312 160.948,275.312 C160.339997,275.312 159.828002,275.132002 159.412,274.772 C158.995998,274.411998 158.788,273.920003 158.788,273.296 C158.788,271.615992 160.491983,270.480003 163.9,269.888 C163.9,268.943995 163.796001,268.288002 163.588,267.92 C163.379999,267.551998 162.948003,267.368 162.292,267.368 C161.971998,267.368 161.664001,267.471999 161.368,267.68 C161.071999,267.888001 160.924,268.167998 160.924,268.52 C160.924,268.760001 160.844001,268.959999 160.684,269.12 C160.523999,269.280001 160.332001,269.36 160.108,269.36 C159.867999,269.36 159.668001,269.280001 159.508,269.12 C159.347999,268.959999 159.268,268.760001 159.268,268.52 C159.268,267.959997 159.575997,267.500002 160.192,267.14 C160.808003,266.779998 161.515996,266.6 162.316,266.6 C163.484006,266.6 164.323997,266.855997 164.836,267.368 C165.348003,267.880003 165.604,268.711994 165.604,269.864 L165.604,273.488 C165.604,274.112003 165.787998,274.424 166.156,274.424 C166.364001,274.424 166.587999,274.304001 166.828,274.064 L167.164,274.52 Z M163.9,273.08 L163.9,270.632 C161.691989,271.144003 160.588,271.935995 160.588,273.008 C160.588,273.376002 160.695999,273.671999 160.912,273.896 C161.128001,274.120001 161.395998,274.232 161.716,274.232 C162.308003,274.232 163.035996,273.848004 163.9,273.08 Z M170.468,267.848 L169.22,267.848 L169.22,267.272 C169.908003,267.127999 170.411998,266.816002 170.732,266.336 C171.052002,265.855998 171.26,265.200004 171.356,264.368 L172.172,264.368 L172.172,267.008 L174.26,267.008 L174.26,267.848 L172.172,267.848 L172.172,272.648 C172.172,273.800006 172.531996,274.376 173.252,274.376 C173.716002,274.376 174.235997,274.104003 174.812,273.56 L175.22,273.968 C174.883998,274.368002 174.480002,274.695999 174.008,274.952 C173.535998,275.208001 173.100002,275.336 172.7,275.336 C172.011997,275.336 171.468002,275.112002 171.068,274.664 C170.667998,274.215998 170.468,273.544004 170.468,272.648 L170.468,267.848 Z M188.7,275 L183.396,275 L183.396,274.496 C184.148004,274.496 184.619999,274.336002 184.812,274.016 C185.004001,273.695998 185.1,272.920006 185.1,271.688 L185.1,270.296 C185.1,268.583991 184.492006,267.728 183.276,267.728 C182.635997,267.728 182.044003,267.963998 181.5,268.436 C180.955997,268.908002 180.684,269.471997 180.684,270.128 L180.684,271.688 C180.684,272.936006 180.771999,273.715998 180.948,274.028 C181.124001,274.340002 181.539997,274.496 182.196,274.496 L182.196,275 L177.084,275 L177.084,274.496 C177.884004,274.496 178.399999,274.328002 178.632,273.992 C178.864001,273.655998 178.98,272.888006 178.98,271.688 L178.98,264.104 C178.98,262.903994 178.864001,262.136002 178.632,261.8 C178.399999,261.463998 177.884004,261.296 177.084,261.296 L177.084,260.792 L180.684,260.192 L180.684,268.328 C181.628005,267.175994 182.675994,266.6 183.828,266.6 C185.79601,266.6 186.78,267.791988 186.78,270.176 L186.78,271.688 C186.78,272.888006 186.895999,273.655998 187.128,273.992 C187.360001,274.328002 187.883996,274.496 188.7,274.496 L188.7,275 Z M199.564,267.896 C200.524005,268.744004 201.004,269.775994 201.004,270.992 C201.004,272.208006 200.528005,273.247996 199.576,274.112 C198.623995,274.976004 197.484007,275.408 196.156,275.408 C194.827993,275.408 193.688005,274.976004 192.736,274.112 C191.783995,273.247996 191.308,272.208006 191.308,270.992 C191.308,269.775994 191.783995,268.740004 192.736,267.884 C193.688005,267.027996 194.827993,266.6 196.156,266.6 C197.484007,266.6 198.619995,267.031996 199.564,267.896 Z M198.316,273.512 C198.812002,272.855997 199.06,272.016005 199.06,270.992 C199.06,269.967995 198.812002,269.132003 198.316,268.484 C197.819998,267.835997 197.100005,267.512 196.156,267.512 C195.211995,267.512 194.492002,267.839997 193.996,268.496 C193.499998,269.152003 193.252,269.983995 193.252,270.992 C193.252,272.000005 193.499998,272.831997 193.996,273.488 C194.492002,274.144003 195.211995,274.472 196.156,274.472 C197.100005,274.472 197.819998,274.152003 198.316,273.512 Z M211.412,272.552 L211.412,269.456 C211.187999,268.879997 210.860002,268.420002 210.428,268.076 C209.995998,267.731998 209.516003,267.56 208.988,267.56 C208.091996,267.56 207.412002,267.879997 206.948,268.52 C206.483998,269.160003 206.252,269.983995 206.252,270.992 C206.252,272.016005 206.483998,272.847997 206.948,273.488 C207.412002,274.128003 208.091996,274.448 208.988,274.448 C209.516003,274.448 209.995998,274.276002 210.428,273.932 C210.860002,273.587998 211.187999,273.128003 211.412,272.552 Z M211.412,268.016 L211.412,264.104 C211.412,262.903994 211.296001,262.136002 211.064,261.8 C210.831999,261.463998 210.316004,261.296 209.516,261.296 L209.516,260.792 L213.116,260.192 L213.116,271.496 C213.116,272.696006 213.231999,273.463998 213.464,273.8 C213.696001,274.136002 214.211996,274.304 215.012,274.304 L215.012,274.808 L211.82,275.408 C211.707999,275.167999 211.580001,274.680004 211.436,273.944 C210.651996,274.920005 209.668006,275.408 208.484,275.408 C207.347994,275.408 206.368004,274.976004 205.544,274.112 C204.719996,273.247996 204.308,272.208006 204.308,270.992 C204.308,269.775994 204.719996,268.740004 205.544,267.884 C206.368004,267.027996 207.347994,266.6 208.484,266.6 C209.668006,266.6 210.643996,267.071995 211.412,268.016 Z M219.684,269.504 L223.668,269.504 C223.828001,269.055998 223.760001,268.620002 223.464,268.196 C223.167999,267.771998 222.660004,267.56 221.94,267.56 C221.427997,267.56 220.968002,267.735998 220.56,268.088 C220.151998,268.440002 219.860001,268.911997 219.684,269.504 Z M219.54,270.392 C219.395999,271.576006 219.583997,272.539996 220.104,273.284 C220.624003,274.028004 221.475994,274.4 222.66,274.4 C223.060002,274.4 223.515997,274.296001 224.028,274.088 C224.540003,273.879999 224.963998,273.616002 225.3,273.296 L225.732,273.824 C225.299998,274.288002 224.748003,274.667999 224.076,274.964 C223.403997,275.260001 222.732003,275.408 222.06,275.408 C220.763994,275.408 219.700004,274.980004 218.868,274.124 C218.035996,273.267996 217.62,272.224006 217.62,270.992 C217.62,269.759994 218.071995,268.720004 218.976,267.872 C219.880005,267.023996 220.907994,266.6 222.06,266.6 C223.148005,266.6 224.035997,266.979996 224.724,267.74 C225.412003,268.500004 225.612001,269.383995 225.324,270.392 L219.54,270.392 Z" id="Common-Cathode-Copy" fill="#524740"></path>
            <g id="Circuit">
                <polyline id="Path-6" stroke="#3D3530" stroke-width="3" points="23 127 23 238 145 238 145 200"></polyline>
                <polyline id="Resistor" stroke="#3D3530" stroke-width="3" stroke-linejoin="bevel" transform="translate(202.965444, 133.562838) rotate(-270.000000) translate(-202.965444, -133.562838) " points="167.965444 133.562838 172.965444 133.562838 177.965444 120.562838 187.965444 146.562838 197.965444 120.562838 207.965444 146.562838 217.965444 120.562838 227.965444 146.562838 232.965444 133.562838 237.965444 133.562838"></polyline>
                <polyline id="Resistor-Copy-2" stroke="#3D3530" stroke-width="3" stroke-linejoin="bevel" transform="translate(92.965444, 133.562838) rotate(-270.000000) translate(-92.965444, -133.562838) " points="57.9654437 133.562838 62.9654437 133.562838 67.9654437 120.562838 77.9654437 146.562838 87.9654437 120.562838 97.9654437 146.562838 107.965444 120.562838 117.965444 146.562838 122.965444 133.562838 127.965444 133.562838"></polyline>
                <polyline id="Resistor-Copy" stroke="#3D3530" stroke-width="3" stroke-linejoin="bevel" transform="translate(237.965444, 133.562838) rotate(-270.000000) translate(-237.965444, -133.562838) " points="202.965444 133.562838 207.965444 133.562838 212.965444 120.562838 222.965444 146.562838 232.965444 120.562838 242.965444 146.562838 252.965444 120.562838 262.965444 146.562838 267.965444 133.562838 272.965444 133.562838"></polyline>
                <polyline id="Path-7" stroke="#EF7D3B" stroke-width="3" points="23 115.231149 23 5 238 5 238 99"></polyline>
                <path d="M93,99 L93,6" id="Path-8" stroke="#EF7D3B" stroke-width="3"></path>
                <path d="M203,99 L203,6" id="Path-9" stroke="#EF7D3B" stroke-width="3"></path>
                <polyline id="Path-10" stroke="#EF7D3B" stroke-width="3" points="203 168 203 205 169 205 169 180"></polyline>
                <polyline id="Path-11" stroke="#EF7D3B" stroke-width="3" points="238 168 238 237 157 237 157 190"></polyline>
                <polyline id="Path-12" stroke="#EF7D3B" stroke-width="3" points="93 168 93 205 134 205 134 180"></polyline>
                <circle id="Oval-2-Copy-2" fill="#EF7D3B" cx="93" cy="5" r="5"></circle>
                <circle id="Oval-2-Copy-3" fill="#EF7D3B" cx="203" cy="5" r="5"></circle>
                <g id="Voltage-Source" transform="translate(0.000000, 97.000000)">
                    <path d="M8,29 L38,29" id="Line-Copy-3" stroke="#3D3530" stroke-width="3" stroke-linecap="square"></path>
                    <path d="M0,19 L45,19" id="Line-Copy" stroke="#EF7D3B" stroke-width="3" stroke-linecap="square"></path>
                    <rect id="Combined-Shape" fill="#524740" x="37" y="39" width="9" height="1"></rect>
                    <path d="M41,4 L41,0 L42,0 L42,4 L46,4 L46,5 L42,5 L42,9 L41,9 L41,5 L37,5 L37,4 L41,4 Z" id="Combined-Shape" fill="#524740"></path>
                </g>
            </g>
        </g>
    </g>
</svg>