<?xml version="1.0" encoding="UTF-8"?>
<svg width="900px" height="400px" viewBox="0 0 900 400" version="1.1" xmlns="http://www.w3.org/2000/svg" xmlns:xlink="http://www.w3.org/1999/xlink">
    <!-- Generator: Sketch 52.5 (67469) - http://www.bohemiancoding.com/sketch -->
    <title>RGB_LED_Wiring</title>
    <desc>Created with Sketch.</desc>
    <g id="RGB_LED_Wiring" stroke="none" stroke-width="1" fill="none" fill-rule="evenodd">
        <rect id="Rectangle" stroke="#3D3530" stroke-width="2" fill="#EEEEEE" x="1" y="1" width="898" height="428"></rect>
        <g id="Common_Anode" transform="translate(485.000000, 24.000000)">
            <g id="RGB-LED" transform="translate(127.000000, 44.000000)">
                <path d="M2.5,67 L2.5,32.4241021 C1.96053752,11.1413674 9.55627245,0.5 25.2872048,0.5 C41.0181371,0.5 48.4224022,11.1413674 47.5,32.4241021 L47.5,67 L2.5,67 Z" id="Path" stroke="#979797" fill="#EEEEEE"></path>
                <g id="Internals" transform="translate(5.000000, 33.000000)" fill="#B2B2B2" stroke="#979797">
                    <path d="M0.5,34 L0.5,0.5 C1.16666667,0.5 1.66666667,0.5 2,0.5 C3.10896727,3.98386034 3.91114972,7.61672458 4.5,8.5 C4.5,9.5 4.5,10.6666667 4.5,12 L3.25,12 L3.25,34 L0.5,34 Z" id="Path-2"></path>
                    <polygon id="Path-3" points="10.5 34 10.5 12 5 2 5 -1.0658141e-14 9.25 -1.0658141e-14 9.25 2 27.5 2 27.5 4 21 8 21 10 15.5 12 15.5 34"></polygon>
                    <polygon id="Path-4" points="23 34 23 12 30 5 30 2 34.5 2 34.5 5 27.5 12 27.5 34"></polygon>
                    <polygon id="Path-5" points="39.5 34 39.5 1.5 37.5 1.5 35.5 8 35.5 12 37 12 37 34"></polygon>
                </g>
                <rect id="Rectangle" stroke="#979797" fill="#EEEEEE" x="0.5" y="66.5" width="49" height="7"></rect>
                <g id="R-Leg" transform="translate(5.000000, 73.000000)">
                    <rect id="Rectangle" fill="#737373" x="0" y="0" width="4" height="63"></rect>
                    <rect id="Rectangle-Copy-4" fill="#D0021B" x="0" y="10" width="4" height="13"></rect>
                </g>
                <g id="CMN-Leg" transform="translate(16.000000, 73.000000)">
                    <rect id="Rectangle-Copy" fill="#737373" x="0" y="0" width="4" height="83"></rect>
                    <rect id="Rectangle-Copy-5" fill="#000000" x="0" y="10" width="4" height="13"></rect>
                </g>
                <g id="G-Leg" transform="translate(28.000000, 73.000000)">
                    <rect id="Rectangle-Copy-2" fill="#737373" x="0" y="0" width="4" height="73"></rect>
                    <rect id="Rectangle-Copy-6" fill="#7ED321" x="0" y="10" width="4" height="13"></rect>
                </g>
                <g id="B-Leg" transform="translate(40.000000, 73.000000)">
                    <rect id="Rectangle-Copy-3" fill="#737373" x="0" y="0" width="4" height="63"></rect>
                    <rect id="Rectangle-Copy-7" fill="#4A90E2" x="0" y="10" width="4" height="13"></rect>
                </g>
            </g>
            <text id="Common-Anode" font-family="MrsEavesOT-Roman, Mrs Eaves OT" font-size="24" font-weight="normal" letter-spacing="1" fill="#524740">
                <tspan x="47.284" y="275">Common Anode</tspan>
            </text>
            <g id="Circuit">
                <polyline id="Path-6" stroke="#EF7D3B" stroke-width="3" points="23 127 23 238 145 238 145 200"></polyline>
                <polyline id="Resistor-Copy-3" stroke="#3D3530" stroke-width="3" stroke-linejoin="bevel" transform="translate(202.965444, 133.562838) rotate(-270.000000) translate(-202.965444, -133.562838) " points="167.965444 133.562838 172.965444 133.562838 177.965444 120.562838 187.965444 146.562838 197.965444 120.562838 207.965444 146.562838 217.965444 120.562838 227.965444 146.562838 232.965444 133.562838 237.965444 133.562838"></polyline>
                <polyline id="Resistor-Copy-4" stroke="#3D3530" stroke-width="3" stroke-linejoin="bevel" transform="translate(92.965444, 133.562838) rotate(-270.000000) translate(-92.965444, -133.562838) " points="57.9654437 133.562838 62.9654437 133.562838 67.9654437 120.562838 77.9654437 146.562838 87.9654437 120.562838 97.9654437 146.562838 107.965444 120.562838 117.965444 146.562838 122.965444 133.562838 127.965444 133.562838"></polyline>
                <polyline id="Resistor-Copy-5" stroke="#3D3530" stroke-width="3" stroke-linejoin="bevel" transform="translate(237.965444, 133.562838) rotate(-270.000000) translate(-237.965444, -133.562838) " points="202.965444 133.562838 207.965444 133.562838 212.965444 120.562838 222.965444 146.562838 232.965444 120.562838 242.965444 146.562838 252.965444 120.562838 262.965444 146.562838 267.965444 133.562838 272.965444 133.562838"></polyline>
                <polyline id="Path-7" stroke="#3D3530" stroke-width="3" points="23 115.231149 23 5 238 5 238 99"></polyline>
                <path d="M93,99 L93,6" id="Path-8" stroke="#3D3530" stroke-width="3"></path>
                <path d="M203,99 L203,6" id="Path-9" stroke="#3D3530" stroke-width="3"></path>
                <polyline id="Path-10" stroke="#3D3530" stroke-width="3" points="203 168 203 205 169 205 169 180"></polyline>
                <polyline id="Path-11" stroke="#3D3530" stroke-width="3" points="238 168 238 237 157 237 157 190"></polyline>
                <polyline id="Path-12" stroke="#3D3530" stroke-width="3" points="93 168 93 205 134 205 134 180"></polyline>
                <circle id="Oval-2-Copy-4" fill="#3D3530" cx="93" cy="5" r="5"></circle>
                <circle id="Oval-2-Copy-5" fill="#3D3530" cx="203" cy="5" r="5"></circle>
                <g id="Voltage-Source" transform="translate(0.000000, 101.000000)">
                    <path d="M8,15 L38,15" id="Line-Copy-3" stroke="#3D3530" stroke-width="3" stroke-linecap="square"></path>
                    <path d="M0,25 L45,25" id="Line-Copy" stroke="#EF7D3B" stroke-width="3" stroke-linecap="square"></path>
                    <rect id="Combined-Shape" fill="#524740" x="37" y="0" width="9" height="1"></rect>
                    <path d="M41,38 L41,34 L42,34 L42,38 L46,38 L46,39 L42,39 L42,43 L41,43 L41,39 L37,39 L37,38 L41,38 Z" id="Combined-Shape" fill="#524740"></path>
                </g>
            </g>
        </g>
        <g id="Common_Cathode" transform="translate(135.000000, 24.000000)">
            <g id="RGB-LED" transform="translate(127.000000, 44.000000)">
                <path d="M2.5,67 L2.5,32.4241021 C1.96053752,11.1413674 9.55627245,0.5 25.2872048,0.5 C41.0181371,0.5 48.4224022,11.1413674 47.5,32.4241021 L47.5,67 L2.5,67 Z" id="Path" stroke="#979797" fill="#EEEEEE"></path>
                <g id="Internals" transform="translate(5.000000, 33.000000)" fill="#B2B2B2" stroke="#979797">
                    <path d="M0.5,34 L0.5,0.5 C1.16666667,0.5 1.66666667,0.5 2,0.5 C3.10896727,3.98386034 3.91114972,7.61672458 4.5,8.5 C4.5,9.5 4.5,10.6666667 4.5,12 L3.25,12 L3.25,34 L0.5,34 Z" id="Path-2"></path>
                    <polygon id="Path-3" points="10.5 34 10.5 12 5 2 5 -1.0658141e-14 9.25 -1.0658141e-14 9.25 2 27.5 2 27.5 4 21 8 21 10 15.5 12 15.5 34"></polygon>
                    <polygon id="Path-4" points="23 34 23 12 30 5 30 2 34.5 2 34.5 5 27.5 12 27.5 34"></polygon>
                    <polygon id="Path-5" points="39.5 34 39.5 1.5 37.5 1.5 35.5 8 35.5 12 37 12 37 34"></polygon>
                </g>
                <rect id="Rectangle" stroke="#979797" fill="#EEEEEE" x="0.5" y="66.5" width="49" height="7"></rect>
                <g id="R-Leg" transform="translate(5.000000, 73.000000)">
                    <rect id="Rectangle" fill="#737373" x="0" y="0" width="4" height="63"></rect>
                    <rect id="Rectangle-Copy-4" fill="#D0021B" x="0" y="10" width="4" height="13"></rect>
                </g>
                <g id="CMN-Leg" transform="translate(16.000000, 73.000000)">
                    <rect id="Rectangle-Copy" fill="#737373" x="0" y="0" width="4" height="83"></rect>
                    <rect id="Rectangle-Copy-5" fill="#000000" x="0" y="10" width="4" height="13"></rect>
                </g>
                <g id="G-Leg" transform="translate(28.000000, 73.000000)">
                    <rect id="Rectangle-Copy-2" fill="#737373" x="0" y="0" width="4" height="73"></rect>
                    <rect id="Rectangle-Copy-6" fill="#7ED321" x="0" y="10" width="4" height="13"></rect>
                </g>
                <g id="B-Leg" transform="translate(40.000000, 73.000000)">
                    <rect id="Rectangle-Copy-3" fill="#737373" x="0" y="0" width="4" height="63"></rect>
                    <rect id="Rectangle-Copy-7" fill="#4A90E2" x="0" y="10" width="4" height="13"></rect>
                </g>
            </g>
            <text id="Common-Cathode" font-family="MrsEavesOT-Roman, Mrs Eaves OT" font-size="24" font-weight="normal" letter-spacing="1" fill="#524740">
                <tspan x="36.404" y="275">Common Cathode</tspan>
            </text>
            <g id="Circuit">
                <polyline id="Path-6" stroke="#3D3530" stroke-width="3" points="23 127 23 238 145 238 145 200"></polyline>
                <polyline id="Resistor" stroke="#3D3530" stroke-width="3" stroke-linejoin="bevel" transform="translate(202.965444, 133.562838) rotate(-270.000000) translate(-202.965444, -133.562838) " points="167.965444 133.562838 172.965444 133.562838 177.965444 120.562838 187.965444 146.562838 197.965444 120.562838 207.965444 146.562838 217.965444 120.562838 227.965444 146.562838 232.965444 133.562838 237.965444 133.562838"></polyline>
                <polyline id="Resistor-Copy-2" stroke="#3D3530" stroke-width="3" stroke-linejoin="bevel" transform="translate(92.965444, 133.562838) rotate(-270.000000) translate(-92.965444, -133.562838) " points="57.9654437 133.562838 62.9654437 133.562838 67.9654437 120.562838 77.9654437 146.562838 87.9654437 120.562838 97.9654437 146.562838 107.965444 120.562838 117.965444 146.562838 122.965444 133.562838 127.965444 133.562838"></polyline>
                <polyline id="Resistor-Copy" stroke="#3D3530" stroke-width="3" stroke-linejoin="bevel" transform="translate(237.965444, 133.562838) rotate(-270.000000) translate(-237.965444, -133.562838) " points="202.965444 133.562838 207.965444 133.562838 212.965444 120.562838 222.965444 146.562838 232.965444 120.562838 242.965444 146.562838 252.965444 120.562838 262.965444 146.562838 267.965444 133.562838 272.965444 133.562838"></polyline>
                <polyline id="Path-7" stroke="#EF7D3B" stroke-width="3" points="23 115.231149 23 5 238 5 238 99"></polyline>
                <path d="M93,99 L93,6" id="Path-8" stroke="#EF7D3B" stroke-width="3"></path>
                <path d="M203,99 L203,6" id="Path-9" stroke="#EF7D3B" stroke-width="3"></path>
                <polyline id="Path-10" stroke="#EF7D3B" stroke-width="3" points="203 168 203 205 169 205 169 180"></polyline>
                <polyline id="Path-11" stroke="#EF7D3B" stroke-width="3" points="238 168 238 237 157 237 157 190"></polyline>
                <polyline id="Path-12" stroke="#EF7D3B" stroke-width="3" points="93 168 93 205 134 205 134 180"></polyline>
                <circle id="Oval-2-Copy-2" fill="#EF7D3B" cx="93" cy="5" r="5"></circle>
                <circle id="Oval-2-Copy-3" fill="#EF7D3B" cx="203" cy="5" r="5"></circle>
                <g id="Voltage-Source" transform="translate(0.000000, 97.000000)">
                    <path d="M8,29 L38,29" id="Line-Copy-3" stroke="#3D3530" stroke-width="3" stroke-linecap="square"></path>
                    <path d="M0,19 L45,19" id="Line-Copy" stroke="#EF7D3B" stroke-width="3" stroke-linecap="square"></path>
                    <rect id="Combined-Shape" fill="#524740" x="37" y="39" width="9" height="1"></rect>
                    <path d="M41,4 L41,0 L42,0 L42,4 L46,4 L46,5 L42,5 L42,9 L41,9 L41,5 L37,5 L37,4 L41,4 Z" id="Combined-Shape" fill="#524740"></path>
                </g>
            </g>
        </g>
        <text id="RGB-LED-Wiring" font-family="Wavehaus-66Book, Wavehaus" font-size="36" font-weight="300" letter-spacing="1" fill="#23ABE3">
            <tspan x="604.302" y="377">RGB LED Wiring</tspan>
        </text>
        <rect id="Rectangle-Copy" stroke="#3D3530" stroke-width="2" x="1" y="337" width="898" height="62"></rect>
    </g>
</svg>