<?xml version="1.0" encoding="UTF-8"?>
<svg width="900px" height="400px" viewBox="0 0 900 400" version="1.1" xmlns="http://www.w3.org/2000/svg" xmlns:xlink="http://www.w3.org/1999/xlink">
    <!-- Generator: Sketch 52.5 (67469) - http://www.bohemiancoding.com/sketch -->
    <title>RGB_LED_Wiring</title>
    <desc>Created with Sketch.</desc>
    <g id="RGB_LED_Wiring" stroke="none" stroke-width="1" fill="none" fill-rule="evenodd">
        <rect id="Rectangle" fill="#EEEEEE" x="0" y="0" width="900" height="430"></rect>
        <g id="Common_Anode" transform="translate(485.000000, 74.000000)">
            <g id="RGB-LED" transform="translate(127.000000, 44.000000)">
                <path d="M2.5,67 L2.5,32.4241021 C1.96053752,11.1413674 9.55627245,0.5 25.2872048,0.5 C41.0181371,0.5 48.4224022,11.1413674 47.5,32.4241021 L47.5,67 L2.5,67 Z" id="Path" stroke="#979797" fill="#EEEEEE"></path>
                <g id="Internals" transform="translate(5.000000, 33.000000)" fill="#B2B2B2" stroke="#979797">
                    <path d="M0.5,34 L0.5,0.5 C1.16666667,0.5 1.66666667,0.5 2,0.5 C3.10896727,3.98386034 3.91114972,7.61672458 4.5,8.5 C4.5,9.5 4.5,10.6666667 4.5,12 L3.25,12 L3.25,34 L0.5,34 Z" id="Path-2"></path>
                    <polygon id="Path-3" points="10.5 34 10.5 12 5 2 5 -1.0658141e-14 9.25 -1.0658141e-14 9.25 2 27.5 2 27.5 4 21 8 21 10 15.5 12 15.5 34"></polygon>
                    <polygon id="Path-4" points="23 34 23 12 30 5 30 2 34.5 2 34.5 5 27.5 12 27.5 34"></polygon>
                    <polygon id="Path-5" points="39.5 34 39.5 1.5 37.5 1.5 35.5 8 35.5 12 37 12 37 34"></polygon>
                </g>
                <rect id="Rectangle" stroke="#979797" fill="#EEEEEE" x="0.5" y="66.5" width="49" height="7"></rect>
                <g id="R-Leg" transform="translate(5.000000, 73.000000)">
                    <rect id="Rectangle" fill="#737373" x="0" y="0" width="4" height="63"></rect>
                    <rect id="Rectangle-Copy-4" fill="#D0021B" x="0" y="10" width="4" height="13"></rect>
                </g>
                <g id="CMN-Leg" transform="translate(16.000000, 73.000000)">
                    <rect id="Rectangle-Copy" fill="#737373" x="0" y="0" width="4" height="83"></rect>
                    <rect id="Rectangle-Copy-5" fill="#000000" x="0" y="10" width="4" height="13"></rect>
                </g>
                <g id="G-Leg" transform="translate(28.000000, 73.000000)">
                    <rect id="Rectangle-Copy-2" fill="#737373" x="0" y="0" width="4" height="73"></rect>
                    <rect id="Rectangle-Copy-6" fill="#7ED321" x="0" y="10" width="4" height="13"></rect>
                </g>
                <g id="B-Leg" transform="translate(40.000000, 73.000000)">
                    <rect id="Rectangle-Copy-3" fill="#737373" x="0" y="0" width="4" height="63"></rect>
                    <rect id="Rectangle-Copy-7" fill="#4A90E2" x="0" y="10" width="4" height="13"></rect>
                </g>
            </g>
            <path d="M45.633994,282.604 L44.913994,282.604 C44.721993,281.667995 44.3139971,280.984002 43.689994,280.552 C41.7219842,282.59201 39.4900065,283.612 36.993994,283.612 C33.9459788,283.612 31.3420048,282.496011 29.181994,280.264 C27.0219832,278.031989 25.941994,275.344016 25.941994,272.2 C25.941994,269.055984 27.0219832,266.368011 29.181994,264.136 C31.3420048,261.903989 33.9459788,260.788 36.993994,260.788 C39.5380067,260.788 41.7699844,261.80799 43.689994,263.848 C44.3379972,263.343997 44.7459932,262.660004 44.913994,261.796 L45.633994,261.796 L45.633994,269.716 L44.913994,269.716 C44.4099915,267.339988 43.4800008,265.492007 42.123994,264.172 C40.7679872,262.851993 39.1060038,262.192 37.137994,262.192 C35.7699872,262.192 34.5579993,262.497997 33.501994,263.11 C32.4459887,263.722003 31.6239969,264.531995 31.035994,265.54 C30.4479911,266.548005 30.0099954,267.615994 29.721994,268.744 C29.4339926,269.872006 29.289994,271.023994 29.289994,272.2 C29.289994,273.376006 29.4339926,274.527994 29.721994,275.656 C30.0099954,276.784006 30.4479911,277.845995 31.035994,278.842 C31.6239969,279.838005 32.4459887,280.641997 33.501994,281.254 C34.5579993,281.866003 35.7699872,282.172 37.137994,282.172 C39.1060038,282.172 40.7679872,281.506007 42.123994,280.174 C43.4800008,278.841993 44.4099915,277.012012 44.913994,274.684 L45.633994,274.684 L45.633994,282.604 Z M60.249995,272.344 C61.6900022,273.616006 62.409995,275.163991 62.409995,276.988 C62.409995,278.812009 61.6960021,280.371994 60.267995,281.668 C58.8399879,282.964006 57.130005,283.612 55.137995,283.612 C53.145985,283.612 51.4360021,282.964006 50.007995,281.668 C48.5799879,280.371994 47.865995,278.812009 47.865995,276.988 C47.865995,275.163991 48.5799879,273.610006 50.007995,272.326 C51.4360021,271.041994 53.145985,270.4 55.137995,270.4 C57.130005,270.4 58.8339879,271.047994 60.249995,272.344 Z M58.377995,280.768 C59.1219987,279.783995 59.493995,278.524008 59.493995,276.988 C59.493995,275.451992 59.1219987,274.198005 58.377995,273.226 C57.6339913,272.253995 56.5540021,271.768 55.137995,271.768 C53.7219879,271.768 52.6419987,272.259995 51.897995,273.244 C51.1539913,274.228005 50.781995,275.475992 50.781995,276.988 C50.781995,278.500008 51.1539913,279.747995 51.897995,280.732 C52.6419987,281.716005 53.7219879,282.208 55.137995,282.208 C56.5540021,282.208 57.6339913,281.728005 58.377995,280.768 Z M77.565996,275.692 L77.565996,278.032 C77.565996,279.928009 77.6919947,281.103998 77.943996,281.56 C78.1959973,282.016002 78.825991,282.244 79.833996,282.244 L79.833996,283 L72.777996,283 L72.777996,282.244 C73.786001,282.244 74.4159947,282.016002 74.667996,281.56 C74.9199973,281.103998 75.045996,279.928009 75.045996,278.032 L75.045996,275.944 C75.045996,273.375987 74.1820046,272.092 72.453996,272.092 C71.7099923,272.092 70.9060003,272.439997 70.041996,273.136 C69.1779917,273.832003 68.745996,274.683995 68.745996,275.692 L68.745996,278.032 C68.745996,279.904009 68.8719947,281.073998 69.123996,281.542 C69.3759973,282.010002 69.9939911,282.244 70.977996,282.244 L70.977996,283 L63.345996,283 L63.345996,282.244 C64.546002,282.244 65.3199943,281.992003 65.667996,281.488 C66.0159977,280.983997 66.189996,279.832009 66.189996,278.032 L66.189996,276.232 C66.189996,274.455991 66.0159977,273.316003 65.667996,272.812 C65.3199943,272.307997 64.546002,272.056 63.345996,272.056 L63.345996,271.3 L68.133996,270.4 C68.3499971,270.856002 68.553995,271.719994 68.745996,272.992 C70.1140028,271.263991 71.6739872,270.4 73.425996,270.4 C75.418006,270.4 76.6899932,271.299991 77.241996,273.1 C77.7219984,272.427997 78.4359913,271.810003 79.383996,271.246 C80.3320007,270.681997 81.2979911,270.4 82.281996,270.4 C85.0420098,270.4 86.421996,272.187982 86.421996,275.764 L86.421996,278.032 C86.421996,279.832009 86.5959943,280.983997 86.943996,281.488 C87.2919977,281.992003 88.06599,282.244 89.265996,282.244 L89.265996,283 L81.633996,283 L81.633996,282.244 C82.642001,282.244 83.2659948,282.016002 83.505996,281.56 C83.7459972,281.103998 83.865996,279.928009 83.865996,278.032 L83.865996,275.944 C83.865996,273.375987 83.0140045,272.092 81.309996,272.092 C80.5659923,272.092 79.7560004,272.439997 78.879996,273.136 C78.0039916,273.832003 77.565996,274.683995 77.565996,275.692 Z M103.413997,275.692 L103.413997,278.032 C103.413997,279.928009 103.539996,281.103998 103.791997,281.56 C104.043998,282.016002 104.673992,282.244 105.681997,282.244 L105.681997,283 L98.625997,283 L98.625997,282.244 C99.634002,282.244 100.263996,282.016002 100.515997,281.56 C100.767998,281.103998 100.893997,279.928009 100.893997,278.032 L100.893997,275.944 C100.893997,273.375987 100.030006,272.092 98.301997,272.092 C97.5579933,272.092 96.7540013,272.439997 95.889997,273.136 C95.0259927,273.832003 94.593997,274.683995 94.593997,275.692 L94.593997,278.032 C94.593997,279.904009 94.7199957,281.073998 94.971997,281.542 C95.2239983,282.010002 95.8419921,282.244 96.825997,282.244 L96.825997,283 L89.193997,283 L89.193997,282.244 C90.394003,282.244 91.1679953,281.992003 91.515997,281.488 C91.8639987,280.983997 92.037997,279.832009 92.037997,278.032 L92.037997,276.232 C92.037997,274.455991 91.8639987,273.316003 91.515997,272.812 C91.1679953,272.307997 90.394003,272.056 89.193997,272.056 L89.193997,271.3 L93.981997,270.4 C94.1979981,270.856002 94.401996,271.719994 94.593997,272.992 C95.9620038,271.263991 97.5219882,270.4 99.273997,270.4 C101.266007,270.4 102.537994,271.299991 103.089997,273.1 C103.569999,272.427997 104.283992,271.810003 105.231997,271.246 C106.180002,270.681997 107.145992,270.4 108.129997,270.4 C110.890011,270.4 112.269997,272.187982 112.269997,275.764 L112.269997,278.032 C112.269997,279.832009 112.443995,280.983997 112.791997,281.488 C113.139999,281.992003 113.913991,282.244 115.113997,282.244 L115.113997,283 L107.481997,283 L107.481997,282.244 C108.490002,282.244 109.113996,282.016002 109.353997,281.56 C109.593998,281.103998 109.713997,279.928009 109.713997,278.032 L109.713997,275.944 C109.713997,273.375987 108.862006,272.092 107.157997,272.092 C106.413993,272.092 105.604001,272.439997 104.727997,273.136 C103.851993,273.832003 103.413997,274.683995 103.413997,275.692 Z M127.785998,272.344 C129.226005,273.616006 129.945998,275.163991 129.945998,276.988 C129.945998,278.812009 129.232005,280.371994 127.803998,281.668 C126.375991,282.964006 124.666008,283.612 122.673998,283.612 C120.681988,283.612 118.972005,282.964006 117.543998,281.668 C116.115991,280.371994 115.401998,278.812009 115.401998,276.988 C115.401998,275.163991 116.115991,273.610006 117.543998,272.326 C118.972005,271.041994 120.681988,270.4 122.673998,270.4 C124.666008,270.4 126.369991,271.047994 127.785998,272.344 Z M125.913998,280.768 C126.658002,279.783995 127.029998,278.524008 127.029998,276.988 C127.029998,275.451992 126.658002,274.198005 125.913998,273.226 C125.169994,272.253995 124.090005,271.768 122.673998,271.768 C121.257991,271.768 120.178002,272.259995 119.433998,273.244 C118.689994,274.228005 118.317998,275.475992 118.317998,276.988 C118.317998,278.500008 118.689994,279.747995 119.433998,280.732 C120.178002,281.716005 121.257991,282.208 122.673998,282.208 C124.090005,282.208 125.169994,281.728005 125.913998,280.768 Z M136.281999,272.992 C137.650006,271.263991 139.317989,270.4 141.285999,270.4 C142.846007,270.4 144.015995,270.891995 144.795999,271.876 C145.576003,272.860005 145.965999,274.155992 145.965999,275.764 L145.965999,278.032 C145.965999,279.832009 146.139997,280.983997 146.487999,281.488 C146.836001,281.992003 147.609993,282.244 148.809999,282.244 L148.809999,283 L140.565999,283 L140.565999,282.244 C141.742005,282.244 142.509997,281.986003 142.869999,281.47 C143.230001,280.953997 143.409999,279.808009 143.409999,278.032 L143.409999,275.944 C143.409999,273.375987 142.414009,272.092 140.421999,272.092 C139.389994,272.092 138.442003,272.451996 137.577999,273.172 C136.713995,273.892004 136.281999,274.731995 136.281999,275.692 L136.281999,278.032 C136.281999,279.880009 136.425998,281.043998 136.713999,281.524 C137.002,282.004002 137.697993,282.244 138.801999,282.244 L138.801999,283 L130.881999,283 L130.881999,282.244 C132.082005,282.244 132.855997,281.992003 133.203999,281.488 C133.552001,280.983997 133.725999,279.832009 133.725999,278.032 L133.725999,276.232 C133.725999,274.455991 133.552001,273.316003 133.203999,272.812 C132.855997,272.307997 132.082005,272.056 130.881999,272.056 L130.881999,271.3 L135.669999,270.4 C135.886,270.856002 136.089998,271.719994 136.281999,272.992 Z M159.538001,275.512 L157.810001,279.508 C157.353999,280.492005 157.335999,281.193998 157.756001,281.614 C158.176003,282.034002 159.129994,282.244 160.618001,282.244 L160.618001,283 L152.194001,283 L152.194001,282.244 C152.962005,282.244 153.555999,282.214 153.976001,282.154 C154.396003,282.094 154.767999,281.902002 155.092001,281.578 C155.416003,281.253998 155.644,280.960001 155.776001,280.696 C155.908002,280.431999 156.153999,279.904004 156.514001,279.112 L164.434001,260.788 L164.902001,260.788 L172.858001,279.112 C173.218003,279.904004 173.464,280.431999 173.596001,280.696 C173.728002,280.960001 173.955999,281.253998 174.280001,281.578 C174.604003,281.902002 174.969999,282.094 175.378001,282.154 C175.786003,282.214 176.373997,282.244 177.142001,282.244 L177.142001,283 L167.170001,283 L167.170001,282.244 C168.658008,282.244 169.605999,282.034002 170.014001,281.614 C170.422003,281.193998 170.410003,280.492005 169.978001,279.508 L168.250001,275.512 L159.538001,275.512 Z M167.638001,274.18 L163.858001,265.504 L160.114001,274.18 L167.638001,274.18 Z M180.382002,272.992 C181.750009,271.263991 183.417992,270.4 185.386002,270.4 C186.94601,270.4 188.115998,270.891995 188.896002,271.876 C189.676006,272.860005 190.066002,274.155992 190.066002,275.764 L190.066002,278.032 C190.066002,279.832009 190.24,280.983997 190.588002,281.488 C190.936004,281.992003 191.709996,282.244 192.910002,282.244 L192.910002,283 L184.666002,283 L184.666002,282.244 C185.842008,282.244 186.61,281.986003 186.970002,281.47 C187.330004,280.953997 187.510002,279.808009 187.510002,278.032 L187.510002,275.944 C187.510002,273.375987 186.514012,272.092 184.522002,272.092 C183.489997,272.092 182.542006,272.451996 181.678002,273.172 C180.813998,273.892004 180.382002,274.731995 180.382002,275.692 L180.382002,278.032 C180.382002,279.880009 180.526001,281.043998 180.814002,281.524 C181.102003,282.004002 181.797996,282.244 182.902002,282.244 L182.902002,283 L174.982002,283 L174.982002,282.244 C176.182008,282.244 176.956,281.992003 177.304002,281.488 C177.652004,280.983997 177.826002,279.832009 177.826002,278.032 L177.826002,276.232 C177.826002,274.455991 177.652004,273.316003 177.304002,272.812 C176.956,272.307997 176.182008,272.056 174.982002,272.056 L174.982002,271.3 L179.770002,270.4 C179.986003,270.856002 180.190001,271.719994 180.382002,272.992 Z M205.546003,272.344 C206.98601,273.616006 207.706003,275.163991 207.706003,276.988 C207.706003,278.812009 206.99201,280.371994 205.564003,281.668 C204.135996,282.964006 202.426013,283.612 200.434003,283.612 C198.441993,283.612 196.73201,282.964006 195.304003,281.668 C193.875996,280.371994 193.162003,278.812009 193.162003,276.988 C193.162003,275.163991 193.875996,273.610006 195.304003,272.326 C196.73201,271.041994 198.441993,270.4 200.434003,270.4 C202.426013,270.4 204.129996,271.047994 205.546003,272.344 Z M203.674003,280.768 C204.418007,279.783995 204.790003,278.524008 204.790003,276.988 C204.790003,275.451992 204.418007,274.198005 203.674003,273.226 C202.929999,272.253995 201.85001,271.768 200.434003,271.768 C199.017996,271.768 197.938007,272.259995 197.194003,273.244 C196.449999,274.228005 196.078003,275.475992 196.078003,276.988 C196.078003,278.500008 196.449999,279.747995 197.194003,280.732 C197.938007,281.716005 199.017996,282.208 200.434003,282.208 C201.85001,282.208 202.929999,281.728005 203.674003,280.768 Z M219.658004,279.328 L219.658004,274.684 C219.322002,273.819996 218.830007,273.130003 218.182004,272.614 C217.534001,272.097997 216.814008,271.84 216.022004,271.84 C214.677997,271.84 213.658007,272.319995 212.962004,273.28 C212.266001,274.240005 211.918004,275.475992 211.918004,276.988 C211.918004,278.524008 212.266001,279.771995 212.962004,280.732 C213.658007,281.692005 214.677997,282.172 216.022004,282.172 C216.814008,282.172 217.534001,281.914003 218.182004,281.398 C218.830007,280.881997 219.322002,280.192004 219.658004,279.328 Z M219.658004,272.524 L219.658004,266.656 C219.658004,264.855991 219.484006,263.704003 219.136004,263.2 C218.788002,262.695997 218.01401,262.444 216.814004,262.444 L216.814004,261.688 L222.214004,260.788 L222.214004,277.744 C222.214004,279.544009 222.388002,280.695997 222.736004,281.2 C223.084006,281.704003 223.857998,281.956 225.058004,281.956 L225.058004,282.712 L220.270004,283.612 C220.102003,283.251998 219.910005,282.520006 219.694004,281.416 C218.517998,282.880007 217.042013,283.612 215.266004,283.612 C213.561995,283.612 212.09201,282.964006 210.856004,281.668 C209.619998,280.371994 209.002004,278.812009 209.002004,276.988 C209.002004,275.163991 209.619998,273.610006 210.856004,272.326 C212.09201,271.041994 213.561995,270.4 215.266004,270.4 C217.042013,270.4 218.505998,271.107993 219.658004,272.524 Z M228.406005,274.756 L234.382005,274.756 C234.622006,274.083997 234.520007,273.430003 234.076005,272.794 C233.632003,272.157997 232.87001,271.84 231.790005,271.84 C231.022001,271.84 230.332008,272.103997 229.720005,272.632 C229.108002,273.160003 228.670006,273.867996 228.406005,274.756 Z M228.190005,276.088 C227.974004,277.864009 228.256001,279.309994 229.036005,280.426 C229.816009,281.542006 231.093996,282.1 232.870005,282.1 C233.470008,282.1 234.154001,281.944002 234.922005,281.632 C235.690009,281.319998 236.326002,280.924002 236.830005,280.444 L237.478005,281.236 C236.830002,281.932003 236.00201,282.501998 234.994005,282.946 C233.986,283.390002 232.97801,283.612 231.970005,283.612 C230.025995,283.612 228.430011,282.970006 227.182005,281.686 C225.933999,280.401994 225.310005,278.836009 225.310005,276.988 C225.310005,275.139991 225.987998,273.580006 227.344005,272.308 C228.700012,271.035994 230.241996,270.4 231.970005,270.4 C233.602013,270.4 234.934,270.969994 235.966005,272.11 C236.99801,273.250006 237.298007,274.575992 236.866005,276.088 L228.190005,276.088 Z" id="Common-Anode-Copy" fill="#524740"></path>
            <g id="Circuit">
                <polyline id="Path-6" stroke="#EF7D3B" stroke-width="3" points="23 127 23 238 145 238 145 200"></polyline>
                <polyline id="Resistor-Copy-3" stroke="#3D3530" stroke-width="3" stroke-linejoin="bevel" transform="translate(202.965444, 133.562838) rotate(-270.000000) translate(-202.965444, -133.562838) " points="167.965444 133.562838 172.965444 133.562838 177.965444 120.562838 187.965444 146.562838 197.965444 120.562838 207.965444 146.562838 217.965444 120.562838 227.965444 146.562838 232.965444 133.562838 237.965444 133.562838"></polyline>
                <polyline id="Resistor-Copy-4" stroke="#3D3530" stroke-width="3" stroke-linejoin="bevel" transform="translate(92.965444, 133.562838) rotate(-270.000000) translate(-92.965444, -133.562838) " points="57.9654437 133.562838 62.9654437 133.562838 67.9654437 120.562838 77.9654437 146.562838 87.9654437 120.562838 97.9654437 146.562838 107.965444 120.562838 117.965444 146.562838 122.965444 133.562838 127.965444 133.562838"></polyline>
                <polyline id="Resistor-Copy-5" stroke="#3D3530" stroke-width="3" stroke-linejoin="bevel" transform="translate(237.965444, 133.562838) rotate(-270.000000) translate(-237.965444, -133.562838) " points="202.965444 133.562838 207.965444 133.562838 212.965444 120.562838 222.965444 146.562838 232.965444 120.562838 242.965444 146.562838 252.965444 120.562838 262.965444 146.562838 267.965444 133.562838 272.965444 133.562838"></polyline>
                <polyline id="Path-7" stroke="#3D3530" stroke-width="3" points="23 115.231149 23 5 238 5 238 99"></polyline>
                <path d="M93,99 L93,6" id="Path-8" stroke="#3D3530" stroke-width="3"></path>
                <path d="M203,99 L203,6" id="Path-9" stroke="#3D3530" stroke-width="3"></path>
                <polyline id="Path-10" stroke="#3D3530" stroke-width="3" points="203 168 203 205 169 205 169 180"></polyline>
                <polyline id="Path-11" stroke="#3D3530" stroke-width="3" points="238 168 238 237 157 237 157 190"></polyline>
                <polyline id="Path-12" stroke="#3D3530" stroke-width="3" points="93 168 93 205 134 205 134 180"></polyline>
                <circle id="Oval-2-Copy-4" fill="#3D3530" cx="93" cy="5" r="5"></circle>
                <circle id="Oval-2-Copy-5" fill="#3D3530" cx="203" cy="5" r="5"></circle>
                <g id="Voltage-Source" transform="translate(0.000000, 101.000000)">
                    <path d="M8,15 L38,15" id="Line-Copy-3" stroke="#3D3530" stroke-width="3" stroke-linecap="square"></path>
                    <path d="M0,25 L45,25" id="Line-Copy" stroke="#EF7D3B" stroke-width="3" stroke-linecap="square"></path>
                    <rect id="Combined-Shape" fill="#524740" x="37" y="0" width="9" height="1"></rect>
                    <path d="M41,38 L41,34 L42,34 L42,38 L46,38 L46,39 L42,39 L42,43 L41,43 L41,39 L37,39 L37,38 L41,38 Z" id="Combined-Shape" fill="#524740"></path>
                </g>
            </g>
        </g>
        <g id="Common_Cathode" transform="translate(135.000000, 74.000000)">
            <g id="RGB-LED" transform="translate(127.000000, 44.000000)">
                <path d="M2.5,67 L2.5,32.4241021 C1.96053752,11.1413674 9.55627245,0.5 25.2872048,0.5 C41.0181371,0.5 48.4224022,11.1413674 47.5,32.4241021 L47.5,67 L2.5,67 Z" id="Path" stroke="#979797" fill="#EEEEEE"></path>
                <g id="Internals" transform="translate(5.000000, 33.000000)" fill="#B2B2B2" stroke="#979797">
                    <path d="M0.5,34 L0.5,0.5 C1.16666667,0.5 1.66666667,0.5 2,0.5 C3.10896727,3.98386034 3.91114972,7.61672458 4.5,8.5 C4.5,9.5 4.5,10.6666667 4.5,12 L3.25,12 L3.25,34 L0.5,34 Z" id="Path-2"></path>
                    <polygon id="Path-3" points="10.5 34 10.5 12 5 2 5 -1.0658141e-14 9.25 -1.0658141e-14 9.25 2 27.5 2 27.5 4 21 8 21 10 15.5 12 15.5 34"></polygon>
                    <polygon id="Path-4" points="23 34 23 12 30 5 30 2 34.5 2 34.5 5 27.5 12 27.5 34"></polygon>
                    <polygon id="Path-5" points="39.5 34 39.5 1.5 37.5 1.5 35.5 8 35.5 12 37 12 37 34"></polygon>
                </g>
                <rect id="Rectangle" stroke="#979797" fill="#EEEEEE" x="0.5" y="66.5" width="49" height="7"></rect>
                <g id="R-Leg" transform="translate(5.000000, 73.000000)">
                    <rect id="Rectangle" fill="#737373" x="0" y="0" width="4" height="63"></rect>
                    <rect id="Rectangle-Copy-4" fill="#D0021B" x="0" y="10" width="4" height="13"></rect>
                </g>
                <g id="CMN-Leg" transform="translate(16.000000, 73.000000)">
                    <rect id="Rectangle-Copy" fill="#737373" x="0" y="0" width="4" height="83"></rect>
                    <rect id="Rectangle-Copy-5" fill="#000000" x="0" y="10" width="4" height="13"></rect>
                </g>
                <g id="G-Leg" transform="translate(28.000000, 73.000000)">
                    <rect id="Rectangle-Copy-2" fill="#737373" x="0" y="0" width="4" height="73"></rect>
                    <rect id="Rectangle-Copy-6" fill="#7ED321" x="0" y="10" width="4" height="13"></rect>
                </g>
                <g id="B-Leg" transform="translate(40.000000, 73.000000)">
                    <rect id="Rectangle-Copy-3" fill="#737373" x="0" y="0" width="4" height="63"></rect>
                    <rect id="Rectangle-Copy-7" fill="#4A90E2" x="0" y="10" width="4" height="13"></rect>
                </g>
            </g>
            <path d="M34.473993,282.604 L33.753993,282.604 C33.561992,281.667995 33.1539961,280.984002 32.529993,280.552 C30.5619832,282.59201 28.3300055,283.612 25.833993,283.612 C22.7859778,283.612 20.1820038,282.496011 18.021993,280.264 C15.8619822,278.031989 14.781993,275.344016 14.781993,272.2 C14.781993,269.055984 15.8619822,266.368011 18.021993,264.136 C20.1820038,261.903989 22.7859778,260.788 25.833993,260.788 C28.3780057,260.788 30.6099834,261.80799 32.529993,263.848 C33.1779962,263.343997 33.5859922,262.660004 33.753993,261.796 L34.473993,261.796 L34.473993,269.716 L33.753993,269.716 C33.2499905,267.339988 32.3199998,265.492007 30.963993,264.172 C29.6079862,262.851993 27.9460028,262.192 25.977993,262.192 C24.6099862,262.192 23.3979983,262.497997 22.341993,263.11 C21.2859877,263.722003 20.4639959,264.531995 19.875993,265.54 C19.2879901,266.548005 18.8499944,267.615994 18.561993,268.744 C18.2739916,269.872006 18.129993,271.023994 18.129993,272.2 C18.129993,273.376006 18.2739916,274.527994 18.561993,275.656 C18.8499944,276.784006 19.2879901,277.845995 19.875993,278.842 C20.4639959,279.838005 21.2859877,280.641997 22.341993,281.254 C23.3979983,281.866003 24.6099862,282.172 25.977993,282.172 C27.9460028,282.172 29.6079862,281.506007 30.963993,280.174 C32.3199998,278.841993 33.2499905,277.012012 33.753993,274.684 L34.473993,274.684 L34.473993,282.604 Z M49.089994,272.344 C50.5300012,273.616006 51.249994,275.163991 51.249994,276.988 C51.249994,278.812009 50.5360011,280.371994 49.107994,281.668 C47.6799869,282.964006 45.970004,283.612 43.977994,283.612 C41.985984,283.612 40.2760011,282.964006 38.847994,281.668 C37.4199869,280.371994 36.705994,278.812009 36.705994,276.988 C36.705994,275.163991 37.4199869,273.610006 38.847994,272.326 C40.2760011,271.041994 41.985984,270.4 43.977994,270.4 C45.970004,270.4 47.6739869,271.047994 49.089994,272.344 Z M47.217994,280.768 C47.9619977,279.783995 48.333994,278.524008 48.333994,276.988 C48.333994,275.451992 47.9619977,274.198005 47.217994,273.226 C46.4739903,272.253995 45.3940011,271.768 43.977994,271.768 C42.5619869,271.768 41.4819977,272.259995 40.737994,273.244 C39.9939903,274.228005 39.621994,275.475992 39.621994,276.988 C39.621994,278.500008 39.9939903,279.747995 40.737994,280.732 C41.4819977,281.716005 42.5619869,282.208 43.977994,282.208 C45.3940011,282.208 46.4739903,281.728005 47.217994,280.768 Z M66.405995,275.692 L66.405995,278.032 C66.405995,279.928009 66.5319937,281.103998 66.783995,281.56 C67.0359963,282.016002 67.66599,282.244 68.673995,282.244 L68.673995,283 L61.617995,283 L61.617995,282.244 C62.626,282.244 63.2559937,282.016002 63.507995,281.56 C63.7599963,281.103998 63.885995,279.928009 63.885995,278.032 L63.885995,275.944 C63.885995,273.375987 63.0220036,272.092 61.293995,272.092 C60.5499913,272.092 59.7459993,272.439997 58.881995,273.136 C58.0179907,273.832003 57.585995,274.683995 57.585995,275.692 L57.585995,278.032 C57.585995,279.904009 57.7119937,281.073998 57.963995,281.542 C58.2159963,282.010002 58.8339901,282.244 59.817995,282.244 L59.817995,283 L52.185995,283 L52.185995,282.244 C53.386001,282.244 54.1599933,281.992003 54.507995,281.488 C54.8559967,280.983997 55.029995,279.832009 55.029995,278.032 L55.029995,276.232 C55.029995,274.455991 54.8559967,273.316003 54.507995,272.812 C54.1599933,272.307997 53.386001,272.056 52.185995,272.056 L52.185995,271.3 L56.973995,270.4 C57.1899961,270.856002 57.393994,271.719994 57.585995,272.992 C58.9540018,271.263991 60.5139862,270.4 62.265995,270.4 C64.258005,270.4 65.5299922,271.299991 66.081995,273.1 C66.5619974,272.427997 67.2759903,271.810003 68.223995,271.246 C69.1719997,270.681997 70.1379901,270.4 71.121995,270.4 C73.8820088,270.4 75.261995,272.187982 75.261995,275.764 L75.261995,278.032 C75.261995,279.832009 75.4359933,280.983997 75.783995,281.488 C76.1319967,281.992003 76.905989,282.244 78.105995,282.244 L78.105995,283 L70.473995,283 L70.473995,282.244 C71.482,282.244 72.1059938,282.016002 72.345995,281.56 C72.5859962,281.103998 72.705995,279.928009 72.705995,278.032 L72.705995,275.944 C72.705995,273.375987 71.8540035,272.092 70.149995,272.092 C69.4059913,272.092 68.5959994,272.439997 67.719995,273.136 C66.8439906,273.832003 66.405995,274.683995 66.405995,275.692 Z M92.253996,275.692 L92.253996,278.032 C92.253996,279.928009 92.3799947,281.103998 92.631996,281.56 C92.8839973,282.016002 93.513991,282.244 94.521996,282.244 L94.521996,283 L87.465996,283 L87.465996,282.244 C88.474001,282.244 89.1039947,282.016002 89.355996,281.56 C89.6079973,281.103998 89.733996,279.928009 89.733996,278.032 L89.733996,275.944 C89.733996,273.375987 88.8700046,272.092 87.141996,272.092 C86.3979923,272.092 85.5940003,272.439997 84.729996,273.136 C83.8659917,273.832003 83.433996,274.683995 83.433996,275.692 L83.433996,278.032 C83.433996,279.904009 83.5599947,281.073998 83.811996,281.542 C84.0639973,282.010002 84.6819911,282.244 85.665996,282.244 L85.665996,283 L78.033996,283 L78.033996,282.244 C79.234002,282.244 80.0079943,281.992003 80.355996,281.488 C80.7039977,280.983997 80.877996,279.832009 80.877996,278.032 L80.877996,276.232 C80.877996,274.455991 80.7039977,273.316003 80.355996,272.812 C80.0079943,272.307997 79.234002,272.056 78.033996,272.056 L78.033996,271.3 L82.821996,270.4 C83.0379971,270.856002 83.241995,271.719994 83.433996,272.992 C84.8020028,271.263991 86.3619872,270.4 88.113996,270.4 C90.106006,270.4 91.3779932,271.299991 91.929996,273.1 C92.4099984,272.427997 93.1239913,271.810003 94.071996,271.246 C95.0200007,270.681997 95.9859911,270.4 96.969996,270.4 C99.7300098,270.4 101.109996,272.187982 101.109996,275.764 L101.109996,278.032 C101.109996,279.832009 101.283994,280.983997 101.631996,281.488 C101.979998,281.992003 102.75399,282.244 103.953996,282.244 L103.953996,283 L96.321996,283 L96.321996,282.244 C97.330001,282.244 97.9539948,282.016002 98.193996,281.56 C98.4339972,281.103998 98.553996,279.928009 98.553996,278.032 L98.553996,275.944 C98.553996,273.375987 97.7020045,272.092 95.997996,272.092 C95.2539923,272.092 94.4440004,272.439997 93.567996,273.136 C92.6919916,273.832003 92.253996,274.683995 92.253996,275.692 Z M116.625997,272.344 C118.066004,273.616006 118.785997,275.163991 118.785997,276.988 C118.785997,278.812009 118.072004,280.371994 116.643997,281.668 C115.21599,282.964006 113.506007,283.612 111.513997,283.612 C109.521987,283.612 107.812004,282.964006 106.383997,281.668 C104.95599,280.371994 104.241997,278.812009 104.241997,276.988 C104.241997,275.163991 104.95599,273.610006 106.383997,272.326 C107.812004,271.041994 109.521987,270.4 111.513997,270.4 C113.506007,270.4 115.20999,271.047994 116.625997,272.344 Z M114.753997,280.768 C115.498001,279.783995 115.869997,278.524008 115.869997,276.988 C115.869997,275.451992 115.498001,274.198005 114.753997,273.226 C114.009993,272.253995 112.930004,271.768 111.513997,271.768 C110.09799,271.768 109.018001,272.259995 108.273997,273.244 C107.529993,274.228005 107.157997,275.475992 107.157997,276.988 C107.157997,278.500008 107.529993,279.747995 108.273997,280.732 C109.018001,281.716005 110.09799,282.208 111.513997,282.208 C112.930004,282.208 114.009993,281.728005 114.753997,280.768 Z M125.121998,272.992 C126.490005,271.263991 128.157988,270.4 130.125998,270.4 C131.686006,270.4 132.855994,270.891995 133.635998,271.876 C134.416002,272.860005 134.805998,274.155992 134.805998,275.764 L134.805998,278.032 C134.805998,279.832009 134.979996,280.983997 135.327998,281.488 C135.676,281.992003 136.449992,282.244 137.649998,282.244 L137.649998,283 L129.405998,283 L129.405998,282.244 C130.582004,282.244 131.349996,281.986003 131.709998,281.47 C132.07,280.953997 132.249998,279.808009 132.249998,278.032 L132.249998,275.944 C132.249998,273.375987 131.254008,272.092 129.261998,272.092 C128.229993,272.092 127.282002,272.451996 126.417998,273.172 C125.553994,273.892004 125.121998,274.731995 125.121998,275.692 L125.121998,278.032 C125.121998,279.880009 125.265997,281.043998 125.553998,281.524 C125.841999,282.004002 126.537992,282.244 127.641998,282.244 L127.641998,283 L119.721998,283 L119.721998,282.244 C120.922004,282.244 121.695996,281.992003 122.043998,281.488 C122.392,280.983997 122.565998,279.832009 122.565998,278.032 L122.565998,276.232 C122.565998,274.455991 122.392,273.316003 122.043998,272.812 C121.695996,272.307997 120.922004,272.056 119.721998,272.056 L119.721998,271.3 L124.509998,270.4 C124.725999,270.856002 124.929997,271.719994 125.121998,272.992 Z M164.65,282.604 L163.93,282.604 C163.737999,281.667995 163.330003,280.984002 162.706,280.552 C160.73799,282.59201 158.506012,283.612 156.01,283.612 C152.961985,283.612 150.358011,282.496011 148.198,280.264 C146.037989,278.031989 144.958,275.344016 144.958,272.2 C144.958,269.055984 146.037989,266.368011 148.198,264.136 C150.358011,261.903989 152.961985,260.788 156.01,260.788 C158.554013,260.788 160.78599,261.80799 162.706,263.848 C163.354003,263.343997 163.761999,262.660004 163.93,261.796 L164.65,261.796 L164.65,269.716 L163.93,269.716 C163.425997,267.339988 162.496007,265.492007 161.14,264.172 C159.783993,262.851993 158.12201,262.192 156.154,262.192 C154.785993,262.192 153.574005,262.497997 152.518,263.11 C151.461995,263.722003 150.640003,264.531995 150.052,265.54 C149.463997,266.548005 149.026001,267.615994 148.738,268.744 C148.449999,269.872006 148.306,271.023994 148.306,272.2 C148.306,273.376006 148.449999,274.527994 148.738,275.656 C149.026001,276.784006 149.463997,277.845995 150.052,278.842 C150.640003,279.838005 151.461995,280.641997 152.518,281.254 C153.574005,281.866003 154.785993,282.172 156.154,282.172 C158.12201,282.172 159.783993,281.506007 161.14,280.174 C162.496007,278.841993 163.425997,277.012012 163.93,274.684 L164.65,274.684 L164.65,282.604 Z M179.086001,282.28 C178.389998,283.024004 177.598005,283.396 176.710001,283.396 C175.269994,283.396 174.454002,282.700007 174.262001,281.308 C172.653993,282.748007 171.154008,283.468 169.762001,283.468 C168.849996,283.468 168.082004,283.198003 167.458001,282.658 C166.833998,282.117997 166.522001,281.380005 166.522001,280.444 C166.522001,277.923987 169.077975,276.220004 174.190001,275.332 C174.190001,273.915993 174.034003,272.932003 173.722001,272.38 C173.409999,271.827997 172.762006,271.552 171.778001,271.552 C171.297999,271.552 170.836003,271.707998 170.392001,272.02 C169.947999,272.332002 169.726001,272.751997 169.726001,273.28 C169.726001,273.640002 169.606002,273.939999 169.366001,274.18 C169.126,274.420001 168.838003,274.54 168.502001,274.54 C168.141999,274.54 167.842002,274.420001 167.602001,274.18 C167.362,273.939999 167.242001,273.640002 167.242001,273.28 C167.242001,272.439996 167.703996,271.750003 168.628001,271.21 C169.552006,270.669997 170.613995,270.4 171.814001,270.4 C173.56601,270.4 174.825997,270.783996 175.594001,271.552 C176.362005,272.320004 176.746001,273.567991 176.746001,275.296 L176.746001,280.732 C176.746001,281.668005 177.021998,282.136 177.574001,282.136 C177.886003,282.136 178.221999,281.956002 178.582001,281.596 L179.086001,282.28 Z M174.190001,280.12 L174.190001,276.448 C170.877984,277.216004 169.222001,278.403992 169.222001,280.012 C169.222001,280.564003 169.383999,281.007998 169.708001,281.344 C170.032003,281.680002 170.433999,281.848 170.914001,281.848 C171.802005,281.848 172.893995,281.272006 174.190001,280.12 Z M180.382002,272.272 L178.510002,272.272 L178.510002,271.408 C179.542007,271.191999 180.298,270.724004 180.778002,270.004 C181.258004,269.283996 181.570001,268.300006 181.714002,267.052 L182.938002,267.052 L182.938002,271.012 L186.070002,271.012 L186.070002,272.272 L182.938002,272.272 L182.938002,279.472 C182.938002,281.200009 183.477997,282.064 184.558002,282.064 C185.254005,282.064 186.033998,281.656004 186.898002,280.84 L187.510002,281.452 C187.005999,282.052003 186.400006,282.543998 185.692002,282.928 C184.983998,283.312002 184.330005,283.504 183.730002,283.504 C182.697997,283.504 181.882005,283.168003 181.282002,282.496 C180.681999,281.823997 180.382002,280.816007 180.382002,279.472 L180.382002,272.272 Z M204.070003,283 L196.114003,283 L196.114003,282.244 C197.242009,282.244 197.950002,282.004002 198.238003,281.524 C198.526004,281.043998 198.670003,279.880009 198.670003,278.032 L198.670003,275.944 C198.670003,273.375987 197.758012,272.092 195.934003,272.092 C194.973998,272.092 194.086007,272.445996 193.270003,273.154 C192.453999,273.862004 192.046003,274.707995 192.046003,275.692 L192.046003,278.032 C192.046003,279.904009 192.178002,281.073998 192.442003,281.542 C192.706004,282.010002 193.329998,282.244 194.314003,282.244 L194.314003,283 L186.646003,283 L186.646003,282.244 C187.846009,282.244 188.620001,281.992003 188.968003,281.488 C189.316005,280.983997 189.490003,279.832009 189.490003,278.032 L189.490003,266.656 C189.490003,264.855991 189.316005,263.704003 188.968003,263.2 C188.620001,262.695997 187.846009,262.444 186.646003,262.444 L186.646003,261.688 L192.046003,260.788 L192.046003,272.992 C193.46201,271.263991 195.033994,270.4 196.762003,270.4 C199.714018,270.4 201.190003,272.187982 201.190003,275.764 L201.190003,278.032 C201.190003,279.832009 201.364001,280.983997 201.712003,281.488 C202.060005,281.992003 202.845997,282.244 204.070003,282.244 L204.070003,283 Z M216.706004,272.344 C218.146011,273.616006 218.866004,275.163991 218.866004,276.988 C218.866004,278.812009 218.152011,280.371994 216.724004,281.668 C215.295997,282.964006 213.586014,283.612 211.594004,283.612 C209.601994,283.612 207.892011,282.964006 206.464004,281.668 C205.035997,280.371994 204.322004,278.812009 204.322004,276.988 C204.322004,275.163991 205.035997,273.610006 206.464004,272.326 C207.892011,271.041994 209.601994,270.4 211.594004,270.4 C213.586014,270.4 215.289997,271.047994 216.706004,272.344 Z M214.834004,280.768 C215.578008,279.783995 215.950004,278.524008 215.950004,276.988 C215.950004,275.451992 215.578008,274.198005 214.834004,273.226 C214.09,272.253995 213.010011,271.768 211.594004,271.768 C210.177997,271.768 209.098008,272.259995 208.354004,273.244 C207.61,274.228005 207.238004,275.475992 207.238004,276.988 C207.238004,278.500008 207.61,279.747995 208.354004,280.732 C209.098008,281.716005 210.177997,282.208 211.594004,282.208 C213.010011,282.208 214.09,281.728005 214.834004,280.768 Z M230.818005,279.328 L230.818005,274.684 C230.482003,273.819996 229.990008,273.130003 229.342005,272.614 C228.694002,272.097997 227.974009,271.84 227.182005,271.84 C225.837998,271.84 224.818008,272.319995 224.122005,273.28 C223.426002,274.240005 223.078005,275.475992 223.078005,276.988 C223.078005,278.524008 223.426002,279.771995 224.122005,280.732 C224.818008,281.692005 225.837998,282.172 227.182005,282.172 C227.974009,282.172 228.694002,281.914003 229.342005,281.398 C229.990008,280.881997 230.482003,280.192004 230.818005,279.328 Z M230.818005,272.524 L230.818005,266.656 C230.818005,264.855991 230.644007,263.704003 230.296005,263.2 C229.948003,262.695997 229.174011,262.444 227.974005,262.444 L227.974005,261.688 L233.374005,260.788 L233.374005,277.744 C233.374005,279.544009 233.548003,280.695997 233.896005,281.2 C234.244007,281.704003 235.017999,281.956 236.218005,281.956 L236.218005,282.712 L231.430005,283.612 C231.262004,283.251998 231.070006,282.520006 230.854005,281.416 C229.677999,282.880007 228.202014,283.612 226.426005,283.612 C224.721996,283.612 223.252011,282.964006 222.016005,281.668 C220.779999,280.371994 220.162005,278.812009 220.162005,276.988 C220.162005,275.163991 220.779999,273.610006 222.016005,272.326 C223.252011,271.041994 224.721996,270.4 226.426005,270.4 C228.202014,270.4 229.665999,271.107993 230.818005,272.524 Z M239.566006,274.756 L245.542006,274.756 C245.782007,274.083997 245.680008,273.430003 245.236006,272.794 C244.792004,272.157997 244.030011,271.84 242.950006,271.84 C242.182002,271.84 241.492009,272.103997 240.880006,272.632 C240.268003,273.160003 239.830007,273.867996 239.566006,274.756 Z M239.350006,276.088 C239.134005,277.864009 239.416002,279.309994 240.196006,280.426 C240.97601,281.542006 242.253997,282.1 244.030006,282.1 C244.630009,282.1 245.314002,281.944002 246.082006,281.632 C246.85001,281.319998 247.486003,280.924002 247.990006,280.444 L248.638006,281.236 C247.990003,281.932003 247.162011,282.501998 246.154006,282.946 C245.146001,283.390002 244.138011,283.612 243.130006,283.612 C241.185996,283.612 239.590012,282.970006 238.342006,281.686 C237.094,280.401994 236.470006,278.836009 236.470006,276.988 C236.470006,275.139991 237.147999,273.580006 238.504006,272.308 C239.860013,271.035994 241.401997,270.4 243.130006,270.4 C244.762014,270.4 246.094001,270.969994 247.126006,272.11 C248.158011,273.250006 248.458008,274.575992 248.026006,276.088 L239.350006,276.088 Z" id="Common-Cathode-Copy" fill="#524740"></path>
            <g id="Circuit">
                <polyline id="Path-6" stroke="#3D3530" stroke-width="3" points="23 127 23 238 145 238 145 200"></polyline>
                <polyline id="Resistor" stroke="#3D3530" stroke-width="3" stroke-linejoin="bevel" transform="translate(202.965444, 133.562838) rotate(-270.000000) translate(-202.965444, -133.562838) " points="167.965444 133.562838 172.965444 133.562838 177.965444 120.562838 187.965444 146.562838 197.965444 120.562838 207.965444 146.562838 217.965444 120.562838 227.965444 146.562838 232.965444 133.562838 237.965444 133.562838"></polyline>
                <polyline id="Resistor-Copy-2" stroke="#3D3530" stroke-width="3" stroke-linejoin="bevel" transform="translate(92.965444, 133.562838) rotate(-270.000000) translate(-92.965444, -133.562838) " points="57.9654437 133.562838 62.9654437 133.562838 67.9654437 120.562838 77.9654437 146.562838 87.9654437 120.562838 97.9654437 146.562838 107.965444 120.562838 117.965444 146.562838 122.965444 133.562838 127.965444 133.562838"></polyline>
                <polyline id="Resistor-Copy" stroke="#3D3530" stroke-width="3" stroke-linejoin="bevel" transform="translate(237.965444, 133.562838) rotate(-270.000000) translate(-237.965444, -133.562838) " points="202.965444 133.562838 207.965444 133.562838 212.965444 120.562838 222.965444 146.562838 232.965444 120.562838 242.965444 146.562838 252.965444 120.562838 262.965444 146.562838 267.965444 133.562838 272.965444 133.562838"></polyline>
                <polyline id="Path-7" stroke="#EF7D3B" stroke-width="3" points="23 115.231149 23 5 238 5 238 99"></polyline>
                <path d="M93,99 L93,6" id="Path-8" stroke="#EF7D3B" stroke-width="3"></path>
                <path d="M203,99 L203,6" id="Path-9" stroke="#EF7D3B" stroke-width="3"></path>
                <polyline id="Path-10" stroke="#EF7D3B" stroke-width="3" points="203 168 203 205 169 205 169 180"></polyline>
                <polyline id="Path-11" stroke="#EF7D3B" stroke-width="3" points="238 168 238 237 157 237 157 190"></polyline>
                <polyline id="Path-12" stroke="#EF7D3B" stroke-width="3" points="93 168 93 205 134 205 134 180"></polyline>
                <circle id="Oval-2-Copy-2" fill="#EF7D3B" cx="93" cy="5" r="5"></circle>
                <circle id="Oval-2-Copy-3" fill="#EF7D3B" cx="203" cy="5" r="5"></circle>
                <g id="Voltage-Source" transform="translate(0.000000, 97.000000)">
                    <path d="M8,29 L38,29" id="Line-Copy-3" stroke="#3D3530" stroke-width="3" stroke-linecap="square"></path>
                    <path d="M0,19 L45,19" id="Line-Copy" stroke="#EF7D3B" stroke-width="3" stroke-linecap="square"></path>
                    <rect id="Combined-Shape" fill="#524740" x="37" y="39" width="9" height="1"></rect>
                    <path d="M41,4 L41,0 L42,0 L42,4 L46,4 L46,5 L42,5 L42,9 L41,9 L41,5 L37,5 L37,4 L41,4 Z" id="Combined-Shape" fill="#524740"></path>
                </g>
            </g>
        </g>
        <path d="M15.628,44 L15.628,19.808 L23.836,19.808 C26.5480136,19.808 28.707992,20.5219929 30.316,21.95 C31.924008,23.3780071 32.728,25.1719892 32.728,27.332 C32.728,28.940008 32.2540047,30.3679938 31.306,31.616 C30.3579953,32.8640062 29.0320085,33.7519974 27.328,34.28 L32.728,44 L30.244,44 L25.096,34.784 L23.62,34.856 L18.004,34.856 L18.004,44 L15.628,44 Z M18.004,32.588 L23.836,32.588 C25.7800097,32.588 27.3399941,32.090005 28.516,31.094 C29.6920059,30.097995 30.28,28.8440076 30.28,27.332 C30.28,25.8439926 29.6920059,24.596005 28.516,23.588 C27.3399941,22.579995 25.7800097,22.076 23.836,22.076 L18.004,22.076 L18.004,32.588 Z M45.472001,44.288 C41.9199832,44.288 39.0820116,43.1060118 36.958001,40.742 C34.8339904,38.3779882 33.772001,35.4440175 33.772001,31.94 C33.772001,28.4119824 34.8339904,25.4660118 36.958001,23.102 C39.0820116,20.7379882 41.9199832,19.556 45.472001,19.556 C47.8000126,19.556 49.8399922,20.0959946 51.592001,21.176 C53.3440098,22.2560054 54.6879963,23.7319906 55.624001,25.604 L53.392001,26.9 C52.6479973,25.3399922 51.5860079,24.1040046 50.206001,23.192 C48.8259941,22.2799954 47.2480099,21.824 45.472001,21.824 C42.7359873,21.824 40.5460092,22.7779905 38.902001,24.686 C37.2579928,26.5940095 36.436001,29.0119854 36.436001,31.94 C36.436001,34.8440145 37.2579928,37.2559904 38.902001,39.176 C40.5460092,41.0960096 42.7359873,42.056 45.472001,42.056 C47.872013,42.056 49.869993,41.258008 51.466001,39.662 C53.062009,38.065992 54.0039996,36.0440122 54.292001,33.596 L46.444001,33.596 L46.444001,31.472 L56.776001,31.472 L56.776001,44 L54.616001,44 L54.616001,39.14 C53.7279966,40.748008 52.4980089,42.0079954 50.926001,42.92 C49.3539931,43.8320046 47.5360113,44.288 45.472001,44.288 Z M59.620002,44 L59.620002,19.808 L67.828002,19.808 C70.5400156,19.808 72.699994,20.4439936 74.308002,21.716 C75.91601,22.9880064 76.720002,24.5719905 76.720002,26.468 C76.720002,27.6440059 76.3660055,28.7119952 75.658002,29.672 C74.9499985,30.6320048 73.9600084,31.3759974 72.688002,31.904 C73.9600084,32.4320026 74.9499985,33.1759952 75.658002,34.136 C76.3660055,35.0960048 76.720002,36.175994 76.720002,37.376 C76.720002,39.2720095 75.91601,40.8499937 74.308002,42.11 C72.699994,43.3700063 70.5400156,44 67.828002,44 L59.620002,44 Z M61.996002,30.896 L67.828002,30.896 C69.7720117,30.896 71.3319961,30.4760042 72.508002,29.636 C73.6840079,28.7959958 74.272002,27.7520062 74.272002,26.504 C74.272002,25.2319936 73.6840079,24.1760042 72.508002,23.336 C71.3319961,22.4959958 69.7720117,22.076 67.828002,22.076 L61.996002,22.076 L61.996002,30.896 Z M61.996002,41.732 L67.828002,41.732 C69.7720117,41.732 71.3319961,41.3120042 72.508002,40.472 C73.6840079,39.6319958 74.272002,38.5760064 74.272002,37.304 C74.272002,36.0559938 73.6840079,35.0120042 72.508002,34.172 C71.3319961,33.3319958 69.7720117,32.912 67.828002,32.912 L61.996002,32.912 L61.996002,41.732 Z M89.428004,41.624 L100.444004,41.624 L100.444004,44 L87.052004,44 L87.052004,19.808 L89.428004,19.808 L89.428004,41.624 Z M117.112005,22.184 L103.612005,22.184 L103.612005,30.5 L111.208005,30.5 L111.208005,32.876 L103.612005,32.876 L103.612005,41.624 L117.112005,41.624 L117.112005,44 L101.236005,44 L101.236005,19.808 L117.112005,19.808 L117.112005,22.184 Z M119.704006,44 L119.704006,19.808 L125.176006,19.808 C129.160026,19.808 132.327994,20.9599885 134.680006,23.264 C137.032018,25.5680115 138.208006,28.4479827 138.208006,31.904 C138.208006,35.3360172 137.026018,38.2099884 134.662006,40.526 C132.297994,42.8420116 129.136026,44 125.176006,44 L119.704006,44 Z M122.080006,41.732 L125.176006,41.732 C128.344022,41.732 130.875997,40.8020093 132.772006,38.942 C134.668015,37.0819907 135.616006,34.7360142 135.616006,31.904 C135.616006,29.0719858 134.668015,26.7260093 132.772006,24.866 C130.875997,23.0059907 128.344022,22.076 125.176006,22.076 L122.080006,22.076 L122.080006,41.732 Z M180.112008,19.808 L182.560008,19.808 L174.208008,44 L171.760008,44 L164.632008,23.048 L157.468008,44 L155.056008,44 L146.668008,19.808 L149.116008,19.808 L156.280008,40.328 L163.516008,19.808 L165.712008,19.808 L172.984008,40.328 L180.112008,19.808 Z M185.836009,20.6 C185.572008,20.8880014 185.236011,21.032 184.828009,21.032 C184.420007,21.032 184.07801,20.8880014 183.802009,20.6 C183.526008,20.3119986 183.388009,19.9760019 183.388009,19.592 C183.388009,19.2079981 183.526008,18.8720014 183.802009,18.584 C184.07801,18.2959986 184.420007,18.152 184.828009,18.152 C185.236011,18.152 185.578008,18.2959986 185.854009,18.584 C186.13001,18.8720014 186.268009,19.2079981 186.268009,19.592 C186.268009,19.9760019 186.12401,20.3119986 185.836009,20.6 Z M183.640009,44 L183.640009,26 L186.016009,26 L186.016009,44 L183.640009,44 Z M197.50001,25.712 C198.772016,25.712 199.936005,26.0239969 200.99201,26.648 L200.16401,29.024 C199.156005,28.2799963 198.136015,27.908 197.10401,27.908 C195.592002,27.908 194.320015,28.4419947 193.28801,29.51 C192.256005,30.5780053 191.74001,31.8919922 191.74001,33.452 L191.74001,44 L189.36401,44 L189.36401,26 L191.74001,26 L191.74001,28.664 C193.204017,26.6959902 195.123998,25.712 197.50001,25.712 Z M204.484011,20.6 C204.22001,20.8880014 203.884013,21.032 203.476011,21.032 C203.068009,21.032 202.726012,20.8880014 202.450011,20.6 C202.17401,20.3119986 202.036011,19.9760019 202.036011,19.592 C202.036011,19.2079981 202.17401,18.8720014 202.450011,18.584 C202.726012,18.2959986 203.068009,18.152 203.476011,18.152 C203.884013,18.152 204.22601,18.2959986 204.502011,18.584 C204.778012,18.8720014 204.916011,19.2079981 204.916011,19.592 C204.916011,19.9760019 204.772012,20.3119986 204.484011,20.6 Z M202.288011,44 L202.288011,26 L204.664011,26 L204.664011,44 L202.288011,44 Z M216.148012,25.712 C218.236022,25.712 219.988005,26.4499926 221.404012,27.926 C222.820019,29.4020074 223.528012,31.2199892 223.528012,33.38 L223.528012,44 L221.116012,44 L221.116012,33.452 C221.116012,31.9159923 220.594017,30.6080054 219.550012,29.528 C218.506007,28.4479946 217.240019,27.908 215.752012,27.908 C214.264005,27.908 212.998017,28.4479946 211.954012,29.528 C210.910007,30.6080054 210.388012,31.9159923 210.388012,33.452 L210.388012,44 L208.012012,44 L208.012012,26 L210.388012,26 L210.388012,28.664 C211.852019,26.6959902 213.772,25.712 216.148012,25.712 Z M241.276013,26.036 L243.688013,26.036 L243.688013,42.452 C243.664013,45.0680131 242.722022,47.2579912 240.862013,49.022 C239.002004,50.7860088 236.848025,51.668 234.400013,51.668 C232.168002,51.668 230.266021,51.0740059 228.694013,49.886 C227.122005,48.6979941 226.060016,47.3600074 225.508013,45.872 L227.452013,44.9 C227.908015,46.1240061 228.772007,47.1919954 230.044013,48.104 C231.316019,49.0160046 232.768005,49.472 234.400013,49.472 C236.320023,49.472 237.946006,48.770007 239.278013,47.366 C240.61002,45.961993 241.288013,44.3240094 241.312013,42.452 L241.276013,42.452 L241.276013,41.12 C239.452004,43.2560107 237.112027,44.324 234.256013,44.324 C231.688,44.324 229.498022,43.4180091 227.686013,41.606 C225.874004,39.7939909 224.968013,37.6040128 224.968013,35.036 C224.968013,32.4679872 225.874004,30.2780091 227.686013,28.466 C229.498022,26.6539909 231.688,25.748 234.256013,25.748 C237.088027,25.748 239.428004,26.8159893 241.276013,28.952 L241.276013,26.036 Z M234.292013,42.092 C236.236023,42.092 237.874006,41.4140068 239.206013,40.058 C240.53802,38.7019932 241.204013,37.0400098 241.204013,35.072 C241.204013,33.1039902 240.53802,31.4420068 239.206013,30.086 C237.874006,28.7299932 236.236023,28.052 234.292013,28.052 C232.372003,28.052 230.74002,28.7299932 229.396013,30.086 C228.052006,31.4420068 227.380013,33.1039902 227.380013,35.072 C227.380013,37.0400098 228.052006,38.7019932 229.396013,40.058 C230.74002,41.4140068 232.372003,42.092 234.292013,42.092 Z" id="RGB-LED-Wiring-Copy" fill="#23ABE3"></path>
    </g>
</svg>