<?xml version="1.0" encoding="UTF-8"?>
<svg width="200px" height="200px" viewBox="0 0 200 200" version="1.1" xmlns="http://www.w3.org/2000/svg" xmlns:xlink="http://www.w3.org/1999/xlink">
    <!-- Generator: Sketch 52.5 (67469) - http://www.bohemiancoding.com/sketch -->
    <title>Schottky_Diode</title>
    <desc>Created with Sketch.</desc>
    <g id="Schottky_Diode" stroke="none" stroke-width="1" fill="none" fill-rule="evenodd">
        <rect id="Rectangle" stroke="#3D3530" stroke-width="2" fill="#EEEEEE" x="1" y="1" width="198" height="198"></rect>
        <g id="TitleBlock" transform="translate(0.000000, 156.000000)">
            <rect id="Rectangle" stroke="#3D3530" stroke-width="2" fill="#F8FAE4" x="1" y="1" width="198" height="42"></rect>
            <path d="M22.5386662,28.192 C21.4666608,28.192 20.4306712,27.9200027 19.4306662,27.376 C18.4306612,26.8319973 17.6746688,26.2880027 17.1626662,25.744 L18.2666662,24.664 C18.6666682,25.0960022 19.2586623,25.5399977 20.0426662,25.996 C20.8266701,26.4520023 21.6586618,26.68 22.5386662,26.68 C23.6106716,26.68 24.4546631,26.4440024 25.0706662,25.972 C25.6866693,25.4999976 25.9946662,24.8560041 25.9946662,24.04 C25.9946662,23.3519966 25.6946692,22.7520026 25.0946662,22.24 C24.4946632,21.7279974 23.7666705,21.2960018 22.9106662,20.944 C22.0546619,20.5919982 21.1946705,20.220002 20.3306662,19.828 C19.4666619,19.435998 18.7346692,18.9040034 18.1346662,18.232 C17.5346632,17.5599966 17.2346662,16.7680046 17.2346662,15.856 C17.2346662,14.6879942 17.6746618,13.704004 18.5546662,12.904 C19.4346706,12.103996 20.6666583,11.704 22.2506662,11.704 C23.3226716,11.704 24.3586612,11.9759973 25.3586662,12.52 C26.3586712,13.0640027 27.1146636,13.6079973 27.6266662,14.152 L26.5226662,15.232 C26.1066641,14.7839978 25.5066701,14.3360022 24.7226662,13.888 C23.9386623,13.4399978 23.1146705,13.216 22.2506662,13.216 C21.1786608,13.216 20.3346693,13.4519976 19.7186662,13.924 C19.1026631,14.3960024 18.7946662,15.0399959 18.7946662,15.856 C18.7946662,16.5440034 19.0946632,17.1479974 19.6946662,17.668 C20.2946692,18.1880026 21.0226619,18.6239982 21.8786662,18.976 C22.7346705,19.3280018 23.5946619,19.6959981 24.4586662,20.08 C25.3226705,20.4640019 26.0546632,20.9919966 26.6546662,21.664 C27.2546692,22.3360034 27.5546662,23.1279954 27.5546662,24.04 C27.5546662,25.2080058 27.1146706,26.191996 26.2346662,26.992 C25.3546618,27.792004 24.1226741,28.192 22.5386662,28.192 Z M36.1413329,28.192 C34.4293243,28.192 32.9693389,27.588006 31.7613329,26.38 C30.5533269,25.171994 29.9493329,23.7120086 29.9493329,22 C29.9493329,20.2879914 30.5533269,18.828006 31.7613329,17.62 C32.9693389,16.411994 34.4293243,15.808 36.1413329,15.808 C37.2293383,15.808 38.2413282,16.0759973 39.1773329,16.612 C40.1133376,17.1480027 40.8533302,17.8639955 41.3973329,18.76 L39.9573329,19.456 C39.5253307,18.7999967 38.9733363,18.2800019 38.3013329,17.896 C37.6293295,17.5119981 36.9093367,17.32 36.1413329,17.32 C34.8453264,17.32 33.7533373,17.7719955 32.8653329,18.676 C31.9773285,19.5800045 31.5333329,20.6879934 31.5333329,22 C31.5333329,23.3120066 31.9773285,24.4199955 32.8653329,25.324 C33.7533373,26.2280045 34.8453264,26.68 36.1413329,26.68 C36.9093367,26.68 37.6293295,26.4880019 38.3013329,26.104 C38.9733363,25.7199981 39.5253307,25.2000033 39.9573329,24.544 L41.3973329,25.24 C40.8533302,26.1360045 40.1133376,26.8519973 39.1773329,27.388 C38.2413282,27.9240027 37.2293383,28.192 36.1413329,28.192 Z M50.2959996,15.808 C51.6880066,15.808 52.8559949,16.307995 53.7999996,17.308 C54.7440043,18.308005 55.2159996,19.5279928 55.2159996,20.968 L55.2159996,28 L53.6079996,28 L53.6079996,20.992 C53.6079996,19.9519948 53.264003,19.0760036 52.5759996,18.364 C51.8879962,17.6519964 51.0400046,17.296 50.0319996,17.296 C49.0399946,17.296 48.1960031,17.6519964 47.4999996,18.364 C46.8039961,19.0760036 46.4559996,19.9439949 46.4559996,20.968 L46.4559996,28 L44.8719996,28 L44.8719996,10.144 L46.4559996,10.144 L46.4559996,17.776 C47.4320045,16.4639934 48.7119917,15.808 50.2959996,15.808 Z M68.6986663,26.368 C67.4986603,27.5840061 66.0426749,28.192 64.3306663,28.192 C62.6186577,28.192 61.1586723,27.588006 59.9506663,26.38 C58.7426603,25.171994 58.1386663,23.7120086 58.1386663,22 C58.1386663,20.2879914 58.7426603,18.828006 59.9506663,17.62 C61.1586723,16.411994 62.6186577,15.808 64.3306663,15.808 C66.0426749,15.808 67.5026603,16.411994 68.7106663,17.62 C69.9186723,18.828006 70.5226663,20.2879914 70.5226663,22 C70.5226663,23.6960085 69.9146724,25.1519939 68.6986663,26.368 Z M64.3546663,26.68 C65.6506728,26.68 66.7426619,26.2280045 67.6306663,25.324 C68.5186707,24.4199955 68.9626663,23.3120066 68.9626663,22 C68.9626663,20.6879934 68.5186707,19.5760046 67.6306663,18.664 C66.7426619,17.7519954 65.6506728,17.296 64.3546663,17.296 C63.0746599,17.296 61.9866708,17.7519954 61.0906663,18.664 C60.1946618,19.5760046 59.7466663,20.6879934 59.7466663,22 C59.7466663,23.3120066 60.1946618,24.4199955 61.0906663,25.324 C61.9866708,26.2280045 63.0746599,26.68 64.3546663,26.68 Z M80.261333,25.312 L81.053333,26.536 C80.9573325,26.6640006 80.8293338,26.8159991 80.669333,26.992 C80.5093322,27.1680009 80.1493358,27.4119984 79.589333,27.724 C79.0293302,28.0360016 78.453336,28.192 77.861333,28.192 C76.853328,28.192 76.0093364,27.892003 75.329333,27.292 C74.6493296,26.691997 74.309333,25.8240057 74.309333,24.688 L74.309333,17.44 L72.389333,17.44 L72.389333,15.976 L74.309333,15.976 L74.309333,12.184 L75.893333,11.992 L75.893333,15.976 L79.517333,15.976 L79.517333,17.44 L75.893333,17.44 L75.893333,24.328 C75.893333,25.0640037 76.1213307,25.6479978 76.577333,26.08 C77.0333353,26.5120022 77.55733,26.728 78.149333,26.728 C78.5173348,26.728 78.8773312,26.6160011 79.229333,26.392 C79.5813348,26.1679989 79.8413322,25.9480011 80.009333,25.732 C80.1773338,25.5159989 80.261333,25.3760003 80.261333,25.312 Z M89.6399997,25.312 L90.4319997,26.536 C90.3359992,26.6640006 90.2080005,26.8159991 90.0479997,26.992 C89.8879989,27.1680009 89.5280025,27.4119984 88.9679997,27.724 C88.4079969,28.0360016 87.8320027,28.192 87.2399997,28.192 C86.2319947,28.192 85.3880031,27.892003 84.7079997,27.292 C84.0279963,26.691997 83.6879997,25.8240057 83.6879997,24.688 L83.6879997,17.44 L81.7679997,17.44 L81.7679997,15.976 L83.6879997,15.976 L83.6879997,12.184 L85.2719997,11.992 L85.2719997,15.976 L88.8959997,15.976 L88.8959997,17.44 L85.2719997,17.44 L85.2719997,24.328 C85.2719997,25.0640037 85.4999974,25.6479978 85.9559997,26.08 C86.412002,26.5120022 86.9359967,26.728 87.5279997,26.728 C87.8960015,26.728 88.2559979,26.6160011 88.6079997,26.392 C88.9600015,26.1679989 89.2199989,25.9480011 89.3879997,25.732 C89.5560005,25.5159989 89.6399997,25.3760003 89.6399997,25.312 Z M101.082666,16 L96.7386664,21.208 L101.082666,28 L99.4026664,28 L95.8026664,22.336 L94.6026664,23.776 L94.6026664,27.976 L93.0186664,27.976 L93.0186664,10.12 L94.6026664,10.12 L94.6026664,21.688 L99.3306664,16 L101.082666,16 Z M111.373333,16 L112.957333,16 L106.405333,33.112 L104.821333,33.112 L107.341333,26.536 L102.901333,16 L104.485333,16 L108.085333,24.568 L111.373333,16 Z M123.314666,28 L123.314666,11.872 L126.962666,11.872 C129.61868,11.872 131.730659,12.6399923 133.298666,14.176 C134.866674,15.7120077 135.650666,17.6319885 135.650666,19.936 C135.650666,22.2240114 134.862674,24.1399923 133.286666,25.684 C131.710659,27.2280077 129.60268,28 126.962666,28 L123.314666,28 Z M124.898666,26.488 L126.962666,26.488 C129.074677,26.488 130.76266,25.8680062 132.026666,24.628 C133.290673,23.3879938 133.922666,21.8240094 133.922666,19.936 C133.922666,18.0479906 133.290673,16.4840062 132.026666,15.244 C130.76266,14.0039938 129.074677,13.384 126.962666,13.384 L124.898666,13.384 L124.898666,26.488 Z M140.757333,12.4 C140.581332,12.592001 140.357335,12.688 140.085333,12.688 C139.813332,12.688 139.585334,12.592001 139.401333,12.4 C139.217332,12.207999 139.125333,11.9840013 139.125333,11.728 C139.125333,11.4719987 139.217332,11.248001 139.401333,11.056 C139.585334,10.863999 139.813332,10.768 140.085333,10.768 C140.357335,10.768 140.585332,10.863999 140.769333,11.056 C140.953334,11.248001 141.045333,11.4719987 141.045333,11.728 C141.045333,11.9840013 140.949334,12.207999 140.757333,12.4 Z M139.293333,28 L139.293333,16 L140.877333,16 L140.877333,28 L139.293333,28 Z M154.912,26.368 C153.711994,27.5840061 152.256008,28.192 150.544,28.192 C148.831991,28.192 147.372006,27.588006 146.164,26.38 C144.955994,25.171994 144.352,23.7120086 144.352,22 C144.352,20.2879914 144.955994,18.828006 146.164,17.62 C147.372006,16.411994 148.831991,15.808 150.544,15.808 C152.256008,15.808 153.715994,16.411994 154.924,17.62 C156.132006,18.828006 156.736,20.2879914 156.736,22 C156.736,23.6960085 156.128006,25.1519939 154.912,26.368 Z M150.568,26.68 C151.864006,26.68 152.955995,26.2280045 153.844,25.324 C154.732004,24.4199955 155.176,23.3120066 155.176,22 C155.176,20.6879934 154.732004,19.5760046 153.844,18.664 C152.955995,17.7519954 151.864006,17.296 150.568,17.296 C149.287993,17.296 148.200004,17.7519954 147.304,18.664 C146.407995,19.5760046 145.96,20.6879934 145.96,22 C145.96,23.3120066 146.407995,24.4199955 147.304,25.324 C148.200004,26.2280045 149.287993,26.68 150.568,26.68 Z M170.026667,10.144 L171.610667,10.144 L171.610667,28 L170.026667,28 L170.026667,26.056 C168.79466,27.4800071 167.234676,28.192 165.346667,28.192 C163.634658,28.192 162.174673,27.588006 160.966667,26.38 C159.758661,25.171994 159.154667,23.7120086 159.154667,22 C159.154667,20.2879914 159.758661,18.828006 160.966667,17.62 C162.174673,16.411994 163.634658,15.808 165.346667,15.808 C167.250676,15.808 168.810661,16.5199929 170.026667,17.944 L170.026667,10.144 Z M162.082667,25.336 C162.978671,26.2320045 164.07466,26.68 165.370667,26.68 C166.666673,26.68 167.758662,26.2280045 168.646667,25.324 C169.534671,24.4199955 169.978667,23.3120066 169.978667,22 C169.978667,20.6879934 169.534671,19.5800045 168.646667,18.676 C167.758662,17.7719955 166.666673,17.32 165.370667,17.32 C164.07466,17.32 162.978671,17.7719955 162.082667,18.676 C161.186662,19.5800045 160.738667,20.6879934 160.738667,22 C160.738667,23.3120066 161.186662,24.4239954 162.082667,25.336 Z M181.037333,26.608 C182.109339,26.608 183.069329,26.304003 183.917333,25.696 C184.765338,25.087997 185.341332,24.3760041 185.645333,23.56 L186.989333,24.04 C186.621331,25.048005 185.905339,25.9759958 184.841333,26.824 C183.777328,27.6720042 182.509341,28.0880001 181.037333,28.072 C179.693327,28.072 178.465339,27.6560042 177.353333,26.824 C176.241328,25.9919958 175.485335,24.9280065 175.085333,23.632 C174.925332,23.1039974 174.845333,22.5280031 174.845333,21.904 C174.845333,20.1759914 175.445327,18.712006 176.645333,17.512 C177.845339,16.311994 179.309325,15.7040001 181.037333,15.688 C182.605341,15.7040001 183.973327,16.2319948 185.141333,17.272 C186.309339,18.3120052 186.981332,19.5999923 187.157333,21.136 C187.173333,21.2160004 187.181333,21.3199994 187.181333,21.448 L176.693333,23.344 C176.965335,24.3040048 177.509329,25.0919969 178.325333,25.708 C179.141337,26.3240031 180.045328,26.6240001 181.037333,26.608 Z M180.893333,17.152 C179.693327,17.1680001 178.665338,17.5999958 177.809333,18.448 C176.953329,19.2960042 176.493334,20.3119941 176.429333,21.496 C176.429333,21.5440002 176.433333,21.6279994 176.441333,21.748 C176.449333,21.8680006 176.453333,21.9679996 176.453333,22.048 L185.381333,20.44 C185.077332,19.4639951 184.509337,18.6680031 183.677333,18.052 C182.845329,17.4359969 181.917338,17.1359999 180.893333,17.152 Z" id="Schottky-Diode-Copy" fill="#23ABE3"></path>
        </g>
        <g transform="translate(65.000000, 72.000000)">
            <polygon id="Path-2" fill="#3D3530" points="24.5 0 44 13 24.5 26"></polygon>
            <path d="M44,13 L70,13" id="Path-2-Copy" stroke="#3D3530" stroke-width="3"></path>
            <path d="M0,13 L24.5,13" id="Path-3" stroke="#3D3530" stroke-width="3"></path>
            <polyline id="Path" stroke="#3D3530" stroke-width="3" stroke-linejoin="round" points="49 5 49 1 44 1 44 25 39 25 39 21"></polyline>
        </g>
    </g>
</svg>