<?xml version="1.0" encoding="UTF-8"?>
<svg width="900px" height="430px" viewBox="0 0 900 430" version="1.1" xmlns="http://www.w3.org/2000/svg" xmlns:xlink="http://www.w3.org/1999/xlink">
    <!-- Generator: Sketch 52.5 (67469) - http://www.bohemiancoding.com/sketch -->
    <title>Silicon_Crystal</title>
    <desc>Created with Sketch.</desc>
    <g id="Silicon_Crystal" stroke="none" stroke-width="1" fill="none" fill-rule="evenodd">
        <rect id="Rectangle" stroke="#3D3530" stroke-width="2" fill="#EEEEEE" x="1" y="1" width="898" height="448"></rect>
        <g id="Illustration" transform="translate(212.000000, 15.000000)">
            <g id="Connectors" transform="translate(71.000000, 79.000000)" stroke="#524740" stroke-width="2">
                <path d="M0.576010071,34.4848177 L64,94.0891175" id="Path-4"></path>
                <path d="M6.98835279,165.073915 L64.8529269,132.18612" id="Path-4-Copy-2"></path>
                <path d="M31.5962499,198.487616 L82.1455016,152.235338" id="Path-4-Copy-3"></path>
                <path d="M178.665386,212.173625 L125.187513,152.554371" id="Path-4-Copy-4"></path>
                <path d="M190.995505,30.9978889 L142.066342,88.8923723" id="Path-4-Copy-6"></path>
                <path d="M161.308007,9.59776687 L120.120375,72.3425458" id="Path-4-Copy-7"></path>
                <path d="M204.484611,180.888471 L144.852894,132.07396" id="Path-4-Copy-5"></path>
                <path d="M39.0411794,0.146420176 L85.8642277,70.3959472" id="Path-4-Copy"></path>
            </g>
            <circle id="Oval-Copy-11" fill="#EF7D3B" cx="105" cy="113" r="12"></circle>
            <circle id="Oval-Copy-12" fill="#EF7D3B" cx="127" cy="137" r="12"></circle>
            <circle id="Oval-Copy-13" fill="#EF7D3B" cx="232" cy="120" r="12"></circle>
            <circle id="Oval-Copy-15" fill="#EF7D3B" cx="215" cy="143" r="12"></circle>
            <circle id="Oval-Copy-20" fill="#EF7D3B" cx="397" cy="88" r="12"></circle>
            <circle id="Oval-Copy-16" fill="#EF7D3B" cx="224" cy="239" r="12"></circle>
            <circle id="Oval-Copy-17" fill="#EF7D3B" cx="245" cy="258" r="12"></circle>
            <circle id="Oval-Copy-18" fill="#EF7D3B" cx="129" cy="233" r="12"></circle>
            <circle id="Oval-Copy-19" fill="#EF7D3B" cx="107" cy="249" r="12"></circle>
            <circle id="Oval-Copy-14" fill="#EF7D3B" cx="190" cy="166" r="12"></circle>
            <circle id="Oval" fill="#252525" cx="57.5" cy="57.5" r="57.5"></circle>
            <circle id="Oval-Copy" fill="#252525" cx="294" cy="304" r="53"></circle>
            <circle id="Oval-Copy-2" fill="#252525" cx="63.5" cy="281.5" r="41.5"></circle>
            <circle id="Oval-Copy-4" fill="#252525" cx="176.5" cy="192.5" r="47.5"></circle>
            <circle id="Oval-Copy-3" fill="#252525" cx="264.5" cy="71.5" r="40.5"></circle>
            <circle id="Oval-Copy-5" fill="#252525" cx="394" cy="140" r="20"></circle>
            <path d="M428.664,95.28 C428.295998,95.5840015 428.064,95.9599978 427.968,96.408 L427.488,96.408 L427.488,91.128 L427.992,91.128 C427.992,91.1920003 427.996,91.2759995 428.004,91.38 C428.012,91.4840005 428.044,91.6839985 428.1,91.98 C428.156,92.2760015 428.235999,92.5599986 428.34,92.832 C428.444001,93.1040014 428.607999,93.4079983 428.832,93.744 C429.056001,94.0800017 429.315999,94.3679988 429.612,94.608 C429.908001,94.8480012 430.299998,95.0479992 430.788,95.208 C431.276002,95.3680008 431.815997,95.448 432.408,95.448 C433.272004,95.448 433.987997,95.2000025 434.556,94.704 C435.124003,94.2079975 435.408,93.5760038 435.408,92.808 C435.408,91.8319951 434.488009,90.8640048 432.648,89.904 L430.344,88.728 C429.591996,88.327998 428.960003,87.7840034 428.448,87.096 C427.935997,86.4079966 427.68,85.6320043 427.68,84.768 C427.68,83.759995 428.055996,82.9120034 428.808,82.224 C429.560004,81.5359966 430.511994,81.192 431.664,81.192 C432.720005,81.192 433.695996,81.5199967 434.592,82.176 C434.960002,81.8719985 435.192,81.5040022 435.288,81.072 L435.768,81.072 L435.768,86.352 L435.264,86.352 C435.023999,83.551986 433.800011,82.152 431.592,82.152 C430.919997,82.152 430.364002,82.355998 429.924,82.764 C429.483998,83.172002 429.264,83.679997 429.264,84.288 C429.264,84.880003 429.475998,85.379998 429.9,85.788 C430.324002,86.196002 431.087994,86.6879971 432.192,87.264 L434.472,88.44 C436.152008,89.2880042 436.992,90.5039921 436.992,92.088 C436.992,93.3680064 436.548004,94.407996 435.66,95.208 C434.771996,96.008004 433.688006,96.408 432.408,96.408 C431.863997,96.408 431.344002,96.3280008 430.848,96.168 C430.351998,96.0079992 429.904002,95.828001 429.504,95.628 C429.103998,95.427999 428.824001,95.3120002 428.664,95.28 Z M451.44,96 L446.136,96 L446.136,95.496 C446.888004,95.496 447.359999,95.3360016 447.552,95.016 C447.744001,94.6959984 447.84,93.9200062 447.84,92.688 L447.84,91.296 C447.84,89.5839914 447.232006,88.728 446.016,88.728 C445.375997,88.728 444.784003,88.9639976 444.24,89.436 C443.695997,89.9080024 443.424,90.4719967 443.424,91.128 L443.424,92.688 C443.424,93.9360062 443.511999,94.7159984 443.688,95.028 C443.864001,95.3400016 444.279997,95.496 444.936,95.496 L444.936,96 L439.824,96 L439.824,95.496 C440.624004,95.496 441.139999,95.3280017 441.372,94.992 C441.604001,94.6559983 441.72,93.888006 441.72,92.688 L441.72,85.104 C441.72,83.903994 441.604001,83.1360017 441.372,82.8 C441.139999,82.4639983 440.624004,82.296 439.824,82.296 L439.824,81.792 L443.424,81.192 L443.424,89.328 C444.368005,88.1759942 445.415994,87.6 446.568,87.6 C448.53601,87.6 449.52,88.7919881 449.52,91.176 L449.52,92.688 C449.52,93.888006 449.635999,94.6559983 449.868,94.992 C450.100001,95.3280017 450.623996,95.496 451.44,95.496 L451.44,96 Z M462.384,95.52 C461.919998,96.0160025 461.392003,96.264 460.8,96.264 C459.839995,96.264 459.296001,95.8000046 459.168,94.872 C458.095995,95.8320048 457.096005,96.312 456.168,96.312 C455.559997,96.312 455.048002,96.1320018 454.632,95.772 C454.215998,95.4119982 454.008,94.9200031 454.008,94.296 C454.008,92.6159916 455.711983,91.480003 459.12,90.888 C459.12,89.9439953 459.016001,89.2880018 458.808,88.92 C458.599999,88.5519982 458.168003,88.368 457.512,88.368 C457.191998,88.368 456.884001,88.471999 456.588,88.68 C456.291999,88.888001 456.144,89.1679982 456.144,89.52 C456.144,89.7600012 456.064001,89.9599992 455.904,90.12 C455.743999,90.2800008 455.552001,90.36 455.328,90.36 C455.087999,90.36 454.888001,90.2800008 454.728,90.12 C454.567999,89.9599992 454.488,89.7600012 454.488,89.52 C454.488,88.9599972 454.795997,88.5000018 455.412,88.14 C456.028003,87.7799982 456.735996,87.6 457.536,87.6 C458.704006,87.6 459.543997,87.8559974 460.056,88.368 C460.568003,88.8800026 460.824,89.7119942 460.824,90.864 L460.824,94.488 C460.824,95.1120031 461.007998,95.424 461.376,95.424 C461.584001,95.424 461.807999,95.3040012 462.048,95.064 L462.384,95.52 Z M459.12,94.08 L459.12,91.632 C456.911989,92.1440026 455.808,92.9359946 455.808,94.008 C455.808,94.3760018 455.915999,94.6719989 456.132,94.896 C456.348001,95.1200011 456.615998,95.232 456.936,95.232 C457.528003,95.232 458.255996,94.8480038 459.12,94.08 Z M472.896,89.088 C472.896,89.8400038 472.576003,90.216 471.936,90.216 C471.711999,90.216 471.516001,90.1280009 471.348,89.952 C471.179999,89.7759991 471.096,89.5760011 471.096,89.352 C471.096,88.8239974 470.840003,88.56 470.328,88.56 C469.959998,88.56 469.560002,88.8159974 469.128,89.328 C468.695998,89.8400026 468.48,90.5199958 468.48,91.368 L468.48,92.688 C468.48,93.888006 468.595999,94.6559983 468.828,94.992 C469.060001,95.3280017 469.575996,95.496 470.376,95.496 L470.376,96 L464.88,96 L464.88,95.496 C465.680004,95.496 466.195999,95.3280017 466.428,94.992 C466.660001,94.6559983 466.776,93.888006 466.776,92.688 L466.776,91.488 C466.776,90.3039941 466.660001,89.5440017 466.428,89.208 C466.195999,88.8719983 465.680004,88.704 464.88,88.704 L464.88,88.2 L468.072,87.6 C468.216001,87.9040015 468.351999,88.4799958 468.48,89.328 C468.720001,88.8479976 469.079998,88.4400017 469.56,88.104 C470.040002,87.7679983 470.519998,87.6 471,87.6 C471.608003,87.6 472.075998,87.7599984 472.404,88.08 C472.732002,88.4000016 472.896,88.7359982 472.896,89.088 Z M477.408,90.504 L481.392,90.504 C481.552001,90.0559978 481.484001,89.6200021 481.188,89.196 C480.891999,88.7719979 480.384004,88.56 479.664,88.56 C479.151997,88.56 478.692002,88.7359982 478.284,89.088 C477.875998,89.4400018 477.584001,89.911997 477.408,90.504 Z M477.264,91.392 C477.119999,92.5760059 477.307997,93.5399963 477.828,94.284 C478.348003,95.0280037 479.199994,95.4 480.384,95.4 C480.784002,95.4 481.239997,95.296001 481.752,95.088 C482.264003,94.879999 482.687998,94.6160016 483.024,94.296 L483.456,94.824 C483.023998,95.2880023 482.472003,95.6679985 481.8,95.964 C481.127997,96.2600015 480.456003,96.408 479.784,96.408 C478.487994,96.408 477.424004,95.9800043 476.592,95.124 C475.759996,94.2679957 475.344,93.2240062 475.344,91.992 C475.344,90.7599938 475.795995,89.7200042 476.7,88.872 C477.604005,88.0239958 478.631994,87.6 479.784,87.6 C480.872005,87.6 481.759997,87.9799962 482.448,88.74 C483.136003,89.5000038 483.336001,90.383995 483.048,91.392 L477.264,91.392 Z M493.776,93.552 L493.776,90.456 C493.551999,89.8799971 493.224002,89.4200017 492.792,89.076 C492.359998,88.7319983 491.880003,88.56 491.352,88.56 C490.455996,88.56 489.776002,88.8799968 489.312,89.52 C488.847998,90.1600032 488.616,90.983995 488.616,91.992 C488.616,93.0160051 488.847998,93.8479968 489.312,94.488 C489.776002,95.1280032 490.455996,95.448 491.352,95.448 C491.880003,95.448 492.359998,95.2760017 492.792,94.932 C493.224002,94.5879983 493.551999,94.1280029 493.776,93.552 Z M493.776,89.016 L493.776,85.104 C493.776,83.903994 493.660001,83.1360017 493.428,82.8 C493.195999,82.4639983 492.680004,82.296 491.88,82.296 L491.88,81.792 L495.48,81.192 L495.48,92.496 C495.48,93.696006 495.595999,94.4639983 495.828,94.8 C496.060001,95.1360017 496.575996,95.304 497.376,95.304 L497.376,95.808 L494.184,96.408 C494.071999,96.1679988 493.944001,95.6800037 493.8,94.944 C493.015996,95.9200049 492.032006,96.408 490.848,96.408 C489.711994,96.408 488.732004,95.9760043 487.908,95.112 C487.083996,94.2479957 486.672,93.2080061 486.672,91.992 C486.672,90.7759939 487.083996,89.7400043 487.908,88.884 C488.732004,88.0279957 489.711994,87.6 490.848,87.6 C492.032006,87.6 493.007996,88.0719953 493.776,89.016 Z M506.736,96 L506.736,95.496 C507.728005,95.496 508.355999,95.3280017 508.62,94.992 C508.884001,94.6559983 509.016,93.888006 509.016,92.688 L509.016,84.888 C509.016,83.687994 508.884001,82.9240016 508.62,82.596 C508.355999,82.2679984 507.728005,82.104 506.736,82.104 L506.736,81.6 L517.68,81.6 L517.896,84.768 L517.392,84.768 L517.272,84.288 C517.079999,83.5839965 516.824002,83.1080012 516.504,82.86 C516.183998,82.6119988 515.512005,82.488 514.488,82.488 L510.936,82.488 L510.936,87.936 L512.136,87.936 C513.336006,87.936 514.099998,87.8040013 514.428,87.54 C514.756002,87.2759987 514.92,86.640005 514.92,85.632 L515.424,85.632 L515.424,91.128 L514.92,91.128 C514.92,90.119995 514.756002,89.4840013 514.428,89.22 C514.099998,88.9559987 513.336006,88.824 512.136,88.824 L510.936,88.824 L510.936,92.328 C510.936,93.528006 511.067999,94.2919984 511.332,94.62 C511.596001,94.9480016 512.223995,95.112 513.216,95.112 L515.28,95.112 C516.000004,95.112 516.547998,95.0400007 516.924,94.896 C517.300002,94.7519993 517.555999,94.5680011 517.692,94.344 C517.828001,94.1199989 517.951999,93.7680024 518.064,93.288 L518.184,92.808 L518.688,92.808 L518.496,96 L506.736,96 Z M526.968,96 L521.472,96 L521.472,95.496 C522.272004,95.496 522.787999,95.3280017 523.02,94.992 C523.252001,94.6559983 523.368,93.888006 523.368,92.688 L523.368,85.104 C523.368,83.903994 523.252001,83.1360017 523.02,82.8 C522.787999,82.4639983 522.272004,82.296 521.472,82.296 L521.472,81.792 L525.072,81.192 L525.072,92.688 C525.072,93.888006 525.187999,94.6559983 525.42,94.992 C525.652001,95.3280017 526.167996,95.496 526.968,95.496 L526.968,96 Z M531.864,90.504 L535.848,90.504 C536.008001,90.0559978 535.940001,89.6200021 535.644,89.196 C535.347999,88.7719979 534.840004,88.56 534.12,88.56 C533.607997,88.56 533.148002,88.7359982 532.74,89.088 C532.331998,89.4400018 532.040001,89.911997 531.864,90.504 Z M531.72,91.392 C531.575999,92.5760059 531.763997,93.5399963 532.284,94.284 C532.804003,95.0280037 533.655994,95.4 534.84,95.4 C535.240002,95.4 535.695997,95.296001 536.208,95.088 C536.720003,94.879999 537.143998,94.6160016 537.48,94.296 L537.912,94.824 C537.479998,95.2880023 536.928003,95.6679985 536.256,95.964 C535.583997,96.2600015 534.912003,96.408 534.24,96.408 C532.943994,96.408 531.880004,95.9800043 531.048,95.124 C530.215996,94.2679957 529.8,93.2240062 529.8,91.992 C529.8,90.7599938 530.251995,89.7200042 531.156,88.872 C532.060005,88.0239958 533.087994,87.6 534.24,87.6 C535.328005,87.6 536.215997,87.9799962 536.904,88.74 C537.592003,89.5000038 537.792001,90.383995 537.504,91.392 L531.72,91.392 Z M545.376,88.368 C544.735997,88.368 544.192002,88.7359963 543.744,89.472 C543.295998,90.2080037 543.072,91.1199946 543.072,92.208 C543.072,93.200005 543.315998,93.9799972 543.804,94.548 C544.292002,95.1160028 545.015995,95.4 545.976,95.4 C546.904005,95.4 547.759996,95.0320037 548.544,94.296 L548.952,94.824 C547.975995,95.8800053 546.784007,96.408 545.376,96.408 C544.063993,96.408 543.028004,96.0160039 542.268,95.232 C541.507996,94.4479961 541.128,93.4400062 541.128,92.208 C541.128,90.8799934 541.575996,89.7800044 542.472,88.908 C543.368004,88.0359956 544.335995,87.6 545.376,87.6 C546.320005,87.6 547.031998,87.7679983 547.512,88.104 C547.992002,88.4400017 548.232,88.8479976 548.232,89.328 C548.232,89.5840013 548.148001,89.8199989 547.98,90.036 C547.811999,90.2520011 547.544002,90.36 547.176,90.36 C546.919999,90.36 546.700001,90.2680009 546.516,90.084 C546.331999,89.8999991 546.24,89.6720014 546.24,89.4 C546.24,88.7119966 545.952003,88.368 545.376,88.368 Z M552.528,88.848 L551.28,88.848 L551.28,88.272 C551.968003,88.1279993 552.471998,87.8160024 552.792,87.336 C553.112002,86.8559976 553.32,86.2000042 553.416,85.368 L554.232,85.368 L554.232,88.008 L556.32,88.008 L556.32,88.848 L554.232,88.848 L554.232,93.648 C554.232,94.8000058 554.591996,95.376 555.312,95.376 C555.776002,95.376 556.295997,95.1040027 556.872,94.56 L557.28,94.968 C556.943998,95.368002 556.540002,95.6959987 556.068,95.952 C555.595998,96.2080013 555.160002,96.336 554.76,96.336 C554.071997,96.336 553.528002,96.1120022 553.128,95.664 C552.727998,95.2159978 552.528,94.5440045 552.528,93.648 L552.528,88.848 Z M567.816,89.088 C567.816,89.8400038 567.496003,90.216 566.856,90.216 C566.631999,90.216 566.436001,90.1280009 566.268,89.952 C566.099999,89.7759991 566.016,89.5760011 566.016,89.352 C566.016,88.8239974 565.760003,88.56 565.248,88.56 C564.879998,88.56 564.480002,88.8159974 564.048,89.328 C563.615998,89.8400026 563.4,90.5199958 563.4,91.368 L563.4,92.688 C563.4,93.888006 563.515999,94.6559983 563.748,94.992 C563.980001,95.3280017 564.495996,95.496 565.296,95.496 L565.296,96 L559.8,96 L559.8,95.496 C560.600004,95.496 561.115999,95.3280017 561.348,94.992 C561.580001,94.6559983 561.696,93.888006 561.696,92.688 L561.696,91.488 C561.696,90.3039941 561.580001,89.5440017 561.348,89.208 C561.115999,88.8719983 560.600004,88.704 559.8,88.704 L559.8,88.2 L562.992,87.6 C563.136001,87.9040015 563.271999,88.4799958 563.4,89.328 C563.640001,88.8479976 563.999998,88.4400017 564.48,88.104 C564.960002,87.7679983 565.439998,87.6 565.92,87.6 C566.528003,87.6 566.995998,87.7599984 567.324,88.08 C567.652002,88.4000016 567.816,88.7359982 567.816,89.088 Z M578.928,88.896 C579.888005,89.7440042 580.368,90.7759939 580.368,91.992 C580.368,93.2080061 579.892005,94.2479957 578.94,95.112 C577.987995,95.9760043 576.848007,96.408 575.52,96.408 C574.191993,96.408 573.052005,95.9760043 572.1,95.112 C571.147995,94.2479957 570.672,93.2080061 570.672,91.992 C570.672,90.7759939 571.147995,89.7400043 572.1,88.884 C573.052005,88.0279957 574.191993,87.6 575.52,87.6 C576.848007,87.6 577.983995,88.0319957 578.928,88.896 Z M577.68,94.512 C578.176002,93.8559967 578.424,93.0160051 578.424,91.992 C578.424,90.9679949 578.176002,90.1320032 577.68,89.484 C577.183998,88.8359968 576.464005,88.512 575.52,88.512 C574.575995,88.512 573.856002,88.8399967 573.36,89.496 C572.863998,90.1520033 572.616,90.983995 572.616,91.992 C572.616,93.000005 572.863998,93.8319967 573.36,94.488 C573.856002,95.1440033 574.575995,95.472 575.52,95.472 C576.464005,95.472 577.183998,95.1520032 577.68,94.512 Z M587.232,89.328 C588.144005,88.1759942 589.255993,87.6 590.568,87.6 C591.608005,87.6 592.387997,87.9279967 592.908,88.584 C593.428003,89.2400033 593.688,90.1039946 593.688,91.176 L593.688,92.688 C593.688,93.888006 593.803999,94.6559983 594.036,94.992 C594.268001,95.3280017 594.783996,95.496 595.584,95.496 L595.584,96 L590.088,96 L590.088,95.496 C590.872004,95.496 591.383999,95.3240017 591.624,94.98 C591.864001,94.6359983 591.984,93.8720059 591.984,92.688 L591.984,91.296 C591.984,89.5839914 591.320007,88.728 589.992,88.728 C589.303997,88.728 588.672003,88.9679976 588.096,89.448 C587.519997,89.9280024 587.232,90.4879968 587.232,91.128 L587.232,92.688 C587.232,93.9200062 587.327999,94.6959984 587.52,95.016 C587.712001,95.3360016 588.175996,95.496 588.912,95.496 L588.912,96 L583.632,96 L583.632,95.496 C584.432004,95.496 584.947999,95.3280017 585.18,94.992 C585.412001,94.6559983 585.528,93.888006 585.528,92.688 L585.528,91.488 C585.528,90.3039941 585.412001,89.5440017 585.18,89.208 C584.947999,88.8719983 584.432004,88.704 583.632,88.704 L583.632,88.2 L586.824,87.6 C586.968001,87.9040015 587.103999,88.4799958 587.232,89.328 Z" id="Shared-Electron-Copy" fill="#524740"></path>
            <path d="M428.664,146.28 C428.295998,146.584002 428.064,146.959998 427.968,147.408 L427.488,147.408 L427.488,142.128 L427.992,142.128 C427.992,142.192 427.996,142.275999 428.004,142.38 C428.012,142.484001 428.044,142.683999 428.1,142.98 C428.156,143.276001 428.235999,143.559999 428.34,143.832 C428.444001,144.104001 428.607999,144.407998 428.832,144.744 C429.056001,145.080002 429.315999,145.367999 429.612,145.608 C429.908001,145.848001 430.299998,146.047999 430.788,146.208 C431.276002,146.368001 431.815997,146.448 432.408,146.448 C433.272004,146.448 433.987997,146.200002 434.556,145.704 C435.124003,145.207998 435.408,144.576004 435.408,143.808 C435.408,142.831995 434.488009,141.864005 432.648,140.904 L430.344,139.728 C429.591996,139.327998 428.960003,138.784003 428.448,138.096 C427.935997,137.407997 427.68,136.632004 427.68,135.768 C427.68,134.759995 428.055996,133.912003 428.808,133.224 C429.560004,132.535997 430.511994,132.192 431.664,132.192 C432.720005,132.192 433.695996,132.519997 434.592,133.176 C434.960002,132.871998 435.192,132.504002 435.288,132.072 L435.768,132.072 L435.768,137.352 L435.264,137.352 C435.023999,134.551986 433.800011,133.152 431.592,133.152 C430.919997,133.152 430.364002,133.355998 429.924,133.764 C429.483998,134.172002 429.264,134.679997 429.264,135.288 C429.264,135.880003 429.475998,136.379998 429.9,136.788 C430.324002,137.196002 431.087994,137.687997 432.192,138.264 L434.472,139.44 C436.152008,140.288004 436.992,141.503992 436.992,143.088 C436.992,144.368006 436.548004,145.407996 435.66,146.208 C434.771996,147.008004 433.688006,147.408 432.408,147.408 C431.863997,147.408 431.344002,147.328001 430.848,147.168 C430.351998,147.007999 429.904002,146.828001 429.504,146.628 C429.103998,146.427999 428.824001,146.312 428.664,146.28 Z M445.776,147 L440.28,147 L440.28,146.496 C441.080004,146.496 441.595999,146.328002 441.828,145.992 C442.060001,145.655998 442.176,144.888006 442.176,143.688 L442.176,142.488 C442.176,141.303994 442.060001,140.544002 441.828,140.208 C441.595999,139.871998 441.080004,139.704 440.28,139.704 L440.28,139.2 L443.88,138.6 L443.88,143.688 C443.88,144.888006 443.995999,145.655998 444.228,145.992 C444.460001,146.328002 444.975996,146.496 445.776,146.496 L445.776,147 Z M444.072,135.168 C444.072,135.472002 443.968001,135.727999 443.76,135.936 C443.551999,136.144001 443.304001,136.248 443.016,136.248 C442.727999,136.248 442.480001,136.144001 442.272,135.936 C442.063999,135.727999 441.96,135.472002 441.96,135.168 C441.96,134.879999 442.063999,134.632001 442.272,134.424 C442.480001,134.215999 442.727999,134.112 443.016,134.112 C443.304001,134.112 443.551999,134.215999 443.76,134.424 C443.968001,134.632001 444.072,134.879999 444.072,135.168 Z M453.384,147 L447.888,147 L447.888,146.496 C448.688004,146.496 449.203999,146.328002 449.436,145.992 C449.668001,145.655998 449.784,144.888006 449.784,143.688 L449.784,136.104 C449.784,134.903994 449.668001,134.136002 449.436,133.8 C449.203999,133.463998 448.688004,133.296 447.888,133.296 L447.888,132.792 L451.488,132.192 L451.488,143.688 C451.488,144.888006 451.603999,145.655998 451.836,145.992 C452.068001,146.328002 452.583996,146.496 453.384,146.496 L453.384,147 Z M461.472,147 L455.976,147 L455.976,146.496 C456.776004,146.496 457.291999,146.328002 457.524,145.992 C457.756001,145.655998 457.872,144.888006 457.872,143.688 L457.872,142.488 C457.872,141.303994 457.756001,140.544002 457.524,140.208 C457.291999,139.871998 456.776004,139.704 455.976,139.704 L455.976,139.2 L459.576,138.6 L459.576,143.688 C459.576,144.888006 459.691999,145.655998 459.924,145.992 C460.156001,146.328002 460.671996,146.496 461.472,146.496 L461.472,147 Z M459.768,135.168 C459.768,135.472002 459.664001,135.727999 459.456,135.936 C459.247999,136.144001 459.000001,136.248 458.712,136.248 C458.423999,136.248 458.176001,136.144001 457.968,135.936 C457.759999,135.727999 457.656,135.472002 457.656,135.168 C457.656,134.879999 457.759999,134.632001 457.968,134.424 C458.176001,134.215999 458.423999,134.112 458.712,134.112 C459.000001,134.112 459.247999,134.215999 459.456,134.424 C459.664001,134.632001 459.768,134.879999 459.768,135.168 Z M468.528,139.368 C467.887997,139.368 467.344002,139.735996 466.896,140.472 C466.447998,141.208004 466.224,142.119995 466.224,143.208 C466.224,144.200005 466.467998,144.979997 466.956,145.548 C467.444002,146.116003 468.167995,146.4 469.128,146.4 C470.056005,146.4 470.911996,146.032004 471.696,145.296 L472.104,145.824 C471.127995,146.880005 469.936007,147.408 468.528,147.408 C467.215993,147.408 466.180004,147.016004 465.42,146.232 C464.659996,145.447996 464.28,144.440006 464.28,143.208 C464.28,141.879993 464.727996,140.780004 465.624,139.908 C466.520004,139.035996 467.487995,138.6 468.528,138.6 C469.472005,138.6 470.183998,138.767998 470.664,139.104 C471.144002,139.440002 471.384,139.847998 471.384,140.328 C471.384,140.584001 471.300001,140.819999 471.132,141.036 C470.963999,141.252001 470.696002,141.36 470.328,141.36 C470.071999,141.36 469.852001,141.268001 469.668,141.084 C469.483999,140.899999 469.392,140.672001 469.392,140.4 C469.392,139.711997 469.104003,139.368 468.528,139.368 Z M483.168,139.896 C484.128005,140.744004 484.608,141.775994 484.608,142.992 C484.608,144.208006 484.132005,145.247996 483.18,146.112 C482.227995,146.976004 481.088007,147.408 479.76,147.408 C478.431993,147.408 477.292005,146.976004 476.34,146.112 C475.387995,145.247996 474.912,144.208006 474.912,142.992 C474.912,141.775994 475.387995,140.740004 476.34,139.884 C477.292005,139.027996 478.431993,138.6 479.76,138.6 C481.088007,138.6 482.223995,139.031996 483.168,139.896 Z M481.92,145.512 C482.416002,144.855997 482.664,144.016005 482.664,142.992 C482.664,141.967995 482.416002,141.132003 481.92,140.484 C481.423998,139.835997 480.704005,139.512 479.76,139.512 C478.815995,139.512 478.096002,139.839997 477.6,140.496 C477.103998,141.152003 476.856,141.983995 476.856,142.992 C476.856,144.000005 477.103998,144.831997 477.6,145.488 C478.096002,146.144003 478.815995,146.472 479.76,146.472 C480.704005,146.472 481.423998,146.152003 481.92,145.512 Z M491.472,140.328 C492.384005,139.175994 493.495993,138.6 494.808,138.6 C495.848005,138.6 496.627997,138.927997 497.148,139.584 C497.668003,140.240003 497.928,141.103995 497.928,142.176 L497.928,143.688 C497.928,144.888006 498.043999,145.655998 498.276,145.992 C498.508001,146.328002 499.023996,146.496 499.824,146.496 L499.824,147 L494.328,147 L494.328,146.496 C495.112004,146.496 495.623999,146.324002 495.864,145.98 C496.104001,145.635998 496.224,144.872006 496.224,143.688 L496.224,142.296 C496.224,140.583991 495.560007,139.728 494.232,139.728 C493.543997,139.728 492.912003,139.967998 492.336,140.448 C491.759997,140.928002 491.472,141.487997 491.472,142.128 L491.472,143.688 C491.472,144.920006 491.567999,145.695998 491.76,146.016 C491.952001,146.336002 492.415996,146.496 493.152,146.496 L493.152,147 L487.872,147 L487.872,146.496 C488.672004,146.496 489.187999,146.328002 489.42,145.992 C489.652001,145.655998 489.768,144.888006 489.768,143.688 L489.768,142.488 C489.768,141.303994 489.652001,140.544002 489.42,140.208 C489.187999,139.871998 488.672004,139.704 487.872,139.704 L487.872,139.2 L491.064,138.6 C491.208001,138.904002 491.343999,139.479996 491.472,140.328 Z M512.256,142.008 L511.104,144.672 C510.799998,145.328003 510.787999,145.795999 511.068,146.076 C511.348001,146.356001 511.983995,146.496 512.976,146.496 L512.976,147 L507.36,147 L507.36,146.496 C507.872003,146.496 508.267999,146.476 508.548,146.436 C508.828001,146.396 509.075999,146.268001 509.292,146.052 C509.508001,145.835999 509.66,145.640001 509.748,145.464 C509.836,145.287999 509.999999,144.936003 510.24,144.408 L515.52,132.192 L515.832,132.192 L521.136,144.408 C521.376001,144.936003 521.54,145.287999 521.628,145.464 C521.716,145.640001 521.867999,145.835999 522.084,146.052 C522.300001,146.268001 522.543999,146.396 522.816,146.436 C523.088001,146.476 523.479997,146.496 523.992,146.496 L523.992,147 L517.344,147 L517.344,146.496 C518.336005,146.496 518.967999,146.356001 519.24,146.076 C519.512001,145.795999 519.504001,145.328003 519.216,144.672 L518.064,142.008 L512.256,142.008 Z M517.656,141.12 L515.136,135.336 L512.64,141.12 L517.656,141.12 Z M526.2,139.848 L524.952,139.848 L524.952,139.272 C525.640003,139.127999 526.143998,138.816002 526.464,138.336 C526.784002,137.855998 526.992,137.200004 527.088,136.368 L527.904,136.368 L527.904,139.008 L529.992,139.008 L529.992,139.848 L527.904,139.848 L527.904,144.648 C527.904,145.800006 528.263996,146.376 528.984,146.376 C529.448002,146.376 529.967997,146.104003 530.544,145.56 L530.952,145.968 C530.615998,146.368002 530.212002,146.695999 529.74,146.952 C529.267998,147.208001 528.832002,147.336 528.432,147.336 C527.743997,147.336 527.200002,147.112002 526.8,146.664 C526.399998,146.215998 526.2,145.544004 526.2,144.648 L526.2,139.848 Z M541.968,139.896 C542.928005,140.744004 543.408,141.775994 543.408,142.992 C543.408,144.208006 542.932005,145.247996 541.98,146.112 C541.027995,146.976004 539.888007,147.408 538.56,147.408 C537.231993,147.408 536.092005,146.976004 535.14,146.112 C534.187995,145.247996 533.712,144.208006 533.712,142.992 C533.712,141.775994 534.187995,140.740004 535.14,139.884 C536.092005,139.027996 537.231993,138.6 538.56,138.6 C539.888007,138.6 541.023995,139.031996 541.968,139.896 Z M540.72,145.512 C541.216002,144.855997 541.464,144.016005 541.464,142.992 C541.464,141.967995 541.216002,141.132003 540.72,140.484 C540.223998,139.835997 539.504005,139.512 538.56,139.512 C537.615995,139.512 536.896002,139.839997 536.4,140.496 C535.903998,141.152003 535.656,141.983995 535.656,142.992 C535.656,144.000005 535.903998,144.831997 536.4,145.488 C536.896002,146.144003 537.615995,146.472 538.56,146.472 C539.504005,146.472 540.223998,146.152003 540.72,145.512 Z M556.152,142.128 L556.152,143.688 C556.152,144.952006 556.235999,145.735998 556.404,146.04 C556.572001,146.344002 556.991997,146.496 557.664,146.496 L557.664,147 L552.96,147 L552.96,146.496 C553.632003,146.496 554.051999,146.344002 554.22,146.04 C554.388001,145.735998 554.472,144.952006 554.472,143.688 L554.472,142.296 C554.472,140.583991 553.896006,139.728 552.744,139.728 C552.247998,139.728 551.712003,139.959998 551.136,140.424 C550.559997,140.888002 550.272,141.455997 550.272,142.128 L550.272,143.688 C550.272,144.936006 550.355999,145.715998 550.524,146.028 C550.692001,146.340002 551.103997,146.496 551.76,146.496 L551.76,147 L546.672,147 L546.672,146.496 C547.472004,146.496 547.987999,146.328002 548.22,145.992 C548.452001,145.655998 548.568,144.888006 548.568,143.688 L548.568,142.488 C548.568,141.303994 548.452001,140.544002 548.22,140.208 C547.987999,139.871998 547.472004,139.704 546.672,139.704 L546.672,139.2 L549.864,138.6 C550.008001,138.904002 550.143999,139.479996 550.272,140.328 C551.184005,139.175994 552.223994,138.6 553.392,138.6 C554.720007,138.6 555.567998,139.199994 555.936,140.4 C556.256002,139.951998 556.731997,139.540002 557.364,139.164 C557.996003,138.787998 558.639997,138.6 559.296,138.6 C561.136009,138.6 562.056,139.791988 562.056,142.176 L562.056,143.688 C562.056,144.888006 562.171999,145.655998 562.404,145.992 C562.636001,146.328002 563.151996,146.496 563.952,146.496 L563.952,147 L558.864,147 L558.864,146.496 C559.536003,146.496 559.951999,146.344002 560.112,146.04 C560.272001,145.735998 560.352,144.952006 560.352,143.688 L560.352,142.296 C560.352,140.583991 559.784006,139.728 558.648,139.728 C558.151998,139.728 557.612003,139.959998 557.028,140.424 C556.443997,140.888002 556.152,141.455997 556.152,142.128 Z" id="Silicon-Atom-Copy" fill="#524740"></path>
        </g>
        <rect id="Rectangle-Copy" stroke="#3D3530" stroke-width="2" fill="#F8FAE4" x="1" y="386" width="898" height="43"></rect>
        <path d="M723.592,414.192 C722.519994,414.192 721.484005,413.920003 720.484,413.376 C719.483995,412.831997 718.728002,412.288003 718.216,411.744 L719.32,410.664 C719.720002,411.096002 720.311996,411.539998 721.096,411.996 C721.880004,412.452002 722.711995,412.68 723.592,412.68 C724.664005,412.68 725.507997,412.444002 726.124,411.972 C726.740003,411.499998 727.048,410.856004 727.048,410.04 C727.048,409.351997 726.748003,408.752003 726.148,408.24 C725.547997,407.727997 724.820004,407.296002 723.964,406.944 C723.107995,406.591998 722.248004,406.220002 721.384,405.828 C720.519995,405.435998 719.788003,404.904003 719.188,404.232 C718.587997,403.559997 718.288,402.768005 718.288,401.856 C718.288,400.687994 718.727995,399.704004 719.608,398.904 C720.488004,398.103996 721.719992,397.704 723.304,397.704 C724.376005,397.704 725.411995,397.975997 726.412,398.52 C727.412005,399.064003 728.167997,399.607997 728.68,400.152 L727.576,401.232 C727.159998,400.783998 726.560004,400.336002 725.776,399.888 C724.991996,399.439998 724.168004,399.216 723.304,399.216 C722.231994,399.216 721.388003,399.451998 720.772,399.924 C720.155997,400.396002 719.848,401.039996 719.848,401.856 C719.848,402.544003 720.147997,403.147997 720.748,403.668 C721.348003,404.188003 722.075995,404.623998 722.932,404.976 C723.788004,405.328002 724.647995,405.695998 725.512,406.08 C726.376004,406.464002 727.107997,406.991997 727.708,407.664 C728.308003,408.336003 728.608,409.127995 728.608,410.04 C728.608,411.208006 728.168004,412.191996 727.288,412.992 C726.407995,413.792004 725.176008,414.192 723.592,414.192 Z M733.930666,398.4 C733.754666,398.592001 733.530668,398.688 733.258666,398.688 C732.986665,398.688 732.758667,398.592001 732.574666,398.4 C732.390665,398.207999 732.298666,397.984001 732.298666,397.728 C732.298666,397.471999 732.390665,397.248001 732.574666,397.056 C732.758667,396.863999 732.986665,396.768 733.258666,396.768 C733.530668,396.768 733.758665,396.863999 733.942666,397.056 C734.126667,397.248001 734.218666,397.471999 734.218666,397.728 C734.218666,397.984001 734.122667,398.207999 733.930666,398.4 Z M732.466666,414 L732.466666,402 L734.050666,402 L734.050666,414 L732.466666,414 Z M738.389333,414 L738.389333,396.144 L739.973333,396.144 L739.973333,414 L738.389333,414 Z M745.776,398.4 C745.599999,398.592001 745.376001,398.688 745.104,398.688 C744.831998,398.688 744.604001,398.592001 744.42,398.4 C744.235999,398.207999 744.144,397.984001 744.144,397.728 C744.144,397.471999 744.235999,397.248001 744.42,397.056 C744.604001,396.863999 744.831998,396.768 745.104,396.768 C745.376001,396.768 745.603999,396.863999 745.788,397.056 C745.972001,397.248001 746.064,397.471999 746.064,397.728 C746.064,397.984001 745.968001,398.207999 745.776,398.4 Z M744.312,414 L744.312,402 L745.896,402 L745.896,414 L744.312,414 Z M755.562666,414.192 C753.850658,414.192 752.390672,413.588006 751.182666,412.38 C749.97466,411.171994 749.370666,409.712009 749.370666,408 C749.370666,406.287991 749.97466,404.828006 751.182666,403.62 C752.390672,402.411994 753.850658,401.808 755.562666,401.808 C756.650672,401.808 757.662662,402.075997 758.598666,402.612 C759.534671,403.148003 760.274664,403.863996 760.818666,404.76 L759.378666,405.456 C758.946664,404.799997 758.39467,404.280002 757.722666,403.896 C757.050663,403.511998 756.33067,403.32 755.562666,403.32 C754.26666,403.32 753.174671,403.771995 752.286666,404.676 C751.398662,405.580005 750.954666,406.687993 750.954666,408 C750.954666,409.312007 751.398662,410.419995 752.286666,411.324 C753.174671,412.228005 754.26666,412.68 755.562666,412.68 C756.33067,412.68 757.050663,412.488002 757.722666,412.104 C758.39467,411.719998 758.946664,411.200003 759.378666,410.544 L760.818666,411.24 C760.274664,412.136004 759.534671,412.851997 758.598666,413.388 C757.662662,413.924003 756.650672,414.192 755.562666,414.192 Z M773.749333,412.368 C772.549327,413.584006 771.093342,414.192 769.381333,414.192 C767.669325,414.192 766.209339,413.588006 765.001333,412.38 C763.793327,411.171994 763.189333,409.712009 763.189333,408 C763.189333,406.287991 763.793327,404.828006 765.001333,403.62 C766.209339,402.411994 767.669325,401.808 769.381333,401.808 C771.093342,401.808 772.553327,402.411994 773.761333,403.62 C774.969339,404.828006 775.573333,406.287991 775.573333,408 C775.573333,409.696008 774.965339,411.151994 773.749333,412.368 Z M769.405333,412.68 C770.70134,412.68 771.793329,412.228005 772.681333,411.324 C773.569338,410.419995 774.013333,409.312007 774.013333,408 C774.013333,406.687993 773.569338,405.576005 772.681333,404.664 C771.793329,403.751995 770.70134,403.296 769.405333,403.296 C768.125327,403.296 767.037338,403.751995 766.141333,404.664 C765.245329,405.576005 764.797333,406.687993 764.797333,408 C764.797333,409.312007 765.245329,410.419995 766.141333,411.324 C767.037338,412.228005 768.125327,412.68 769.405333,412.68 Z M784.04,401.808 C785.432007,401.808 786.599995,402.299995 787.544,403.284 C788.488005,404.268005 788.96,405.479993 788.96,406.92 L788.96,414 L787.352,414 L787.352,406.968 C787.352,405.943995 787.004003,405.072004 786.308,404.352 C785.611996,403.631996 784.768005,403.272 783.776,403.272 C782.783995,403.272 781.940003,403.631996 781.244,404.352 C780.547996,405.072004 780.2,405.943995 780.2,406.968 L780.2,414 L778.616,414 L778.616,402 L780.2,402 L780.2,403.776 C781.176005,402.463993 782.455992,401.808 784.04,401.808 Z M807.261333,414.192 C804.893321,414.192 803.00534,413.404008 801.597333,411.828 C800.189326,410.251992 799.485333,408.296012 799.485333,405.96 C799.485333,403.607988 800.189326,401.644008 801.597333,400.068 C803.00534,398.491992 804.893321,397.704 807.261333,397.704 C808.829341,397.704 810.193327,398.063996 811.353333,398.784 C812.513339,399.504004 813.41333,400.487994 814.053333,401.736 L812.565333,402.6 C812.053331,401.559995 811.337338,400.736003 810.417333,400.128 C809.497329,399.519997 808.445339,399.216 807.261333,399.216 C805.437324,399.216 803.977339,399.851994 802.881333,401.124 C801.785328,402.396006 801.237333,404.00799 801.237333,405.96 C801.237333,407.89601 801.785328,409.503994 802.881333,410.784 C803.977339,412.064006 805.437324,412.704 807.261333,412.704 C808.461339,412.704 809.521329,412.396003 810.441333,411.78 C811.361338,411.163997 812.069331,410.336005 812.565333,409.296 L814.053333,410.184 C813.41333,411.432006 812.513339,412.411996 811.353333,413.124 C810.193327,413.836004 808.829341,414.192 807.261333,414.192 Z M822.88,401.808 C823.728004,401.808 824.503996,402.015998 825.208,402.432 L824.656,404.016 C823.983997,403.519998 823.304003,403.272 822.616,403.272 C821.607995,403.272 820.760003,403.627996 820.072,404.34 C819.383996,405.052004 819.04,405.927995 819.04,406.968 L819.04,414 L817.456,414 L817.456,402 L819.04,402 L819.04,403.776 C820.016005,402.463993 821.295992,401.808 822.88,401.808 Z M836.002667,402 L837.586667,402 L831.034667,419.112 L829.450667,419.112 L831.970667,412.536 L827.530667,402 L829.114667,402 L832.714667,410.568 L836.002667,402 Z M844.157333,414.192 C843.613331,414.192 843.085336,414.124001 842.573333,413.988 C842.061331,413.851999 841.633335,413.692001 841.289333,413.508 C840.945332,413.323999 840.637335,413.136001 840.365333,412.944 C840.093332,412.751999 839.893334,412.592001 839.765333,412.464 L839.573333,412.248 L840.701333,411.288 C840.813334,411.400001 840.969332,411.535999 841.169333,411.696 C841.369334,411.856001 841.77333,412.071999 842.381333,412.344 C842.989336,412.616001 843.58933,412.752 844.181333,412.752 C845.061338,412.752 845.765331,412.584002 846.293333,412.248 C846.821336,411.911998 847.085333,411.440003 847.085333,410.832 C847.085333,410.399998 846.821336,410.028002 846.293333,409.716 C845.765331,409.403998 845.125337,409.136001 844.373333,408.912 C843.621329,408.687999 842.865337,408.440001 842.105333,408.168 C841.345329,407.895999 840.701336,407.512002 840.173333,407.016 C839.645331,406.519998 839.381333,405.912004 839.381333,405.192 C839.381333,404.199995 839.75333,403.388003 840.497333,402.756 C841.241337,402.123997 842.341326,401.808 843.797333,401.808 C844.661338,401.808 845.477329,401.967998 846.245333,402.288 C847.013337,402.608002 847.565332,402.927998 847.901333,403.248 L848.405333,403.728 L847.277333,404.712 C847.165333,404.599999 847.009334,404.464001 846.809333,404.304 C846.609332,404.143999 846.205336,403.928001 845.597333,403.656 C844.98933,403.383999 844.381336,403.248 843.773333,403.248 C842.909329,403.248 842.209336,403.415998 841.673333,403.752 C841.137331,404.088002 840.869333,404.559997 840.869333,405.168 C840.869333,405.600002 841.133331,405.971998 841.661333,406.284 C842.189336,406.596002 842.829329,406.863999 843.581333,407.088 C844.333337,407.312001 845.089329,407.555999 845.849333,407.82 C846.609337,408.084001 847.253331,408.467997 847.781333,408.972 C848.309336,409.476003 848.573333,410.087996 848.573333,410.808 C848.573333,411.816005 848.205337,412.631997 847.469333,413.256 C846.73333,413.880003 845.629341,414.192 844.157333,414.192 Z M858.24,411.312 L859.032,412.536 C858.935999,412.664001 858.808001,412.815999 858.648,412.992 C858.487999,413.168001 858.128003,413.411998 857.568,413.724 C857.007997,414.036002 856.432003,414.192 855.84,414.192 C854.831995,414.192 853.988003,413.892003 853.308,413.292 C852.627997,412.691997 852.288,411.824006 852.288,410.688 L852.288,403.44 L850.368,403.44 L850.368,401.976 L852.288,401.976 L852.288,398.184 L853.872,397.992 L853.872,401.976 L857.496,401.976 L857.496,403.44 L853.872,403.44 L853.872,410.328 C853.872,411.064004 854.099998,411.647998 854.556,412.08 C855.012002,412.512002 855.535997,412.728 856.128,412.728 C856.496002,412.728 856.855998,412.616001 857.208,412.392 C857.560002,412.167999 857.819999,411.948001 857.988,411.732 C858.156001,411.515999 858.24,411.376 858.24,411.312 Z M871.362667,402 L872.946667,402 L872.946667,414 L871.362667,414 L871.362667,412.056 C870.13066,413.480007 868.570676,414.192 866.682667,414.192 C864.970658,414.192 863.510673,413.588006 862.302667,412.38 C861.094661,411.171994 860.490667,409.712009 860.490667,408 C860.490667,406.287991 861.094661,404.828006 862.302667,403.62 C863.510673,402.411994 864.970658,401.808 866.682667,401.808 C868.586676,401.808 870.146661,402.519993 871.362667,403.944 L871.362667,402 Z M866.706667,412.68 C868.002673,412.68 869.094662,412.228005 869.982667,411.324 C870.870671,410.419995 871.314667,409.312007 871.314667,408 C871.314667,406.687993 870.870671,405.580005 869.982667,404.676 C869.094662,403.771995 868.002673,403.32 866.706667,403.32 C865.42666,403.32 864.334671,403.771995 863.430667,404.676 C862.526662,405.580005 862.074667,406.687993 862.074667,408 C862.074667,409.312007 862.526662,410.419995 863.430667,411.324 C864.334671,412.228005 865.42666,412.68 866.706667,412.68 Z M876.997333,414 L876.997333,396.144 L878.581333,396.144 L878.581333,414 L876.997333,414 Z" id="Silicon-Crystal-Copy" fill="#23ABE3"></path>
    </g>
</svg>