<?xml version="1.0" encoding="UTF-8"?>
<svg width="900px" height="450px" viewBox="0 0 900 450" version="1.1" xmlns="http://www.w3.org/2000/svg" xmlns:xlink="http://www.w3.org/1999/xlink">
    <!-- Generator: Sketch 52.5 (67469) - http://www.bohemiancoding.com/sketch -->
    <title>Silicon_Crystal</title>
    <desc>Created with Sketch.</desc>
    <g id="Silicon_Crystal" stroke="none" stroke-width="1" fill="none" fill-rule="evenodd">
        <rect id="Rectangle" stroke="#3D3530" stroke-width="2" fill="#EEEEEE" x="1" y="1" width="898" height="448"></rect>
        <rect id="Rectangle-Copy" stroke="#3D3530" stroke-width="2" x="1" y="387" width="898" height="62"></rect>
        <g id="Illustration" transform="translate(212.000000, 15.000000)">
            <g id="Connectors" transform="translate(71.000000, 79.000000)" stroke="#524740" stroke-width="2">
                <path d="M0.576010071,34.4848177 L64,94.0891175" id="Path-4"></path>
                <path d="M6.98835279,165.073915 L64.8529269,132.18612" id="Path-4-Copy-2"></path>
                <path d="M31.5962499,198.487616 L82.1455016,152.235338" id="Path-4-Copy-3"></path>
                <path d="M178.665386,212.173625 L125.187513,152.554371" id="Path-4-Copy-4"></path>
                <path d="M190.995505,30.9978889 L142.066342,88.8923723" id="Path-4-Copy-6"></path>
                <path d="M161.308007,9.59776687 L120.120375,72.3425458" id="Path-4-Copy-7"></path>
                <path d="M204.484611,180.888471 L144.852894,132.07396" id="Path-4-Copy-5"></path>
                <path d="M39.0411794,0.146420176 L85.8642277,70.3959472" id="Path-4-Copy"></path>
            </g>
            <circle id="Oval-Copy-11" fill="#EF7D3B" cx="105" cy="113" r="12"></circle>
            <circle id="Oval-Copy-12" fill="#EF7D3B" cx="127" cy="137" r="12"></circle>
            <circle id="Oval-Copy-13" fill="#EF7D3B" cx="232" cy="120" r="12"></circle>
            <circle id="Oval-Copy-15" fill="#EF7D3B" cx="215" cy="143" r="12"></circle>
            <circle id="Oval-Copy-20" fill="#EF7D3B" cx="397" cy="88" r="12"></circle>
            <circle id="Oval-Copy-16" fill="#EF7D3B" cx="224" cy="239" r="12"></circle>
            <circle id="Oval-Copy-17" fill="#EF7D3B" cx="245" cy="258" r="12"></circle>
            <circle id="Oval-Copy-18" fill="#EF7D3B" cx="129" cy="233" r="12"></circle>
            <circle id="Oval-Copy-19" fill="#EF7D3B" cx="107" cy="249" r="12"></circle>
            <circle id="Oval-Copy-14" fill="#EF7D3B" cx="190" cy="166" r="12"></circle>
            <circle id="Oval" fill="#252525" cx="57.5" cy="57.5" r="57.5"></circle>
            <circle id="Oval-Copy" fill="#252525" cx="294" cy="304" r="53"></circle>
            <circle id="Oval-Copy-2" fill="#252525" cx="63.5" cy="281.5" r="41.5"></circle>
            <circle id="Oval-Copy-4" fill="#252525" cx="176.5" cy="192.5" r="47.5"></circle>
            <circle id="Oval-Copy-3" fill="#252525" cx="264.5" cy="71.5" r="40.5"></circle>
            <circle id="Oval-Copy-5" fill="#252525" cx="394" cy="140" r="20"></circle>
            <path d="M428.664,95.28 C428.295998,95.5840015 428.064,95.9599978 427.968,96.408 L427.488,96.408 L427.488,91.128 L427.992,91.128 C427.992,91.1920003 427.996,91.2759995 428.004,91.38 C428.012,91.4840005 428.044,91.6839985 428.1,91.98 C428.156,92.2760015 428.235999,92.5599986 428.34,92.832 C428.444001,93.1040014 428.607999,93.4079983 428.832,93.744 C429.056001,94.0800017 429.315999,94.3679988 429.612,94.608 C429.908001,94.8480012 430.299998,95.0479992 430.788,95.208 C431.276002,95.3680008 431.815997,95.448 432.408,95.448 C433.272004,95.448 433.987997,95.2000025 434.556,94.704 C435.124003,94.2079975 435.408,93.5760038 435.408,92.808 C435.408,91.8319951 434.488009,90.8640048 432.648,89.904 L430.344,88.728 C429.591996,88.327998 428.960003,87.7840034 428.448,87.096 C427.935997,86.4079966 427.68,85.6320043 427.68,84.768 C427.68,83.759995 428.055996,82.9120034 428.808,82.224 C429.560004,81.5359966 430.511994,81.192 431.664,81.192 C432.720005,81.192 433.695996,81.5199967 434.592,82.176 C434.960002,81.8719985 435.192,81.5040022 435.288,81.072 L435.768,81.072 L435.768,86.352 L435.264,86.352 C435.023999,83.551986 433.800011,82.152 431.592,82.152 C430.919997,82.152 430.364002,82.355998 429.924,82.764 C429.483998,83.172002 429.264,83.679997 429.264,84.288 C429.264,84.880003 429.475998,85.379998 429.9,85.788 C430.324002,86.196002 431.087994,86.6879971 432.192,87.264 L434.472,88.44 C436.152008,89.2880042 436.992,90.5039921 436.992,92.088 C436.992,93.3680064 436.548004,94.407996 435.66,95.208 C434.771996,96.008004 433.688006,96.408 432.408,96.408 C431.863997,96.408 431.344002,96.3280008 430.848,96.168 C430.351998,96.0079992 429.904002,95.828001 429.504,95.628 C429.103998,95.427999 428.824001,95.3120002 428.664,95.28 Z M451.44,96 L446.136,96 L446.136,95.496 C446.888004,95.496 447.359999,95.3360016 447.552,95.016 C447.744001,94.6959984 447.84,93.9200062 447.84,92.688 L447.84,91.296 C447.84,89.5839914 447.232006,88.728 446.016,88.728 C445.375997,88.728 444.784003,88.9639976 444.24,89.436 C443.695997,89.9080024 443.424,90.4719967 443.424,91.128 L443.424,92.688 C443.424,93.9360062 443.511999,94.7159984 443.688,95.028 C443.864001,95.3400016 444.279997,95.496 444.936,95.496 L444.936,96 L439.824,96 L439.824,95.496 C440.624004,95.496 441.139999,95.3280017 441.372,94.992 C441.604001,94.6559983 441.72,93.888006 441.72,92.688 L441.72,85.104 C441.72,83.903994 441.604001,83.1360017 441.372,82.8 C441.139999,82.4639983 440.624004,82.296 439.824,82.296 L439.824,81.792 L443.424,81.192 L443.424,89.328 C444.368005,88.1759942 445.415994,87.6 446.568,87.6 C448.53601,87.6 449.52,88.7919881 449.52,91.176 L449.52,92.688 C449.52,93.888006 449.635999,94.6559983 449.868,94.992 C450.100001,95.3280017 450.623996,95.496 451.44,95.496 L451.44,96 Z M462.384,95.52 C461.919998,96.0160025 461.392003,96.264 460.8,96.264 C459.839995,96.264 459.296001,95.8000046 459.168,94.872 C458.095995,95.8320048 457.096005,96.312 456.168,96.312 C455.559997,96.312 455.048002,96.1320018 454.632,95.772 C454.215998,95.4119982 454.008,94.9200031 454.008,94.296 C454.008,92.6159916 455.711983,91.480003 459.12,90.888 C459.12,89.9439953 459.016001,89.2880018 458.808,88.92 C458.599999,88.5519982 458.168003,88.368 457.512,88.368 C457.191998,88.368 456.884001,88.471999 456.588,88.68 C456.291999,88.888001 456.144,89.1679982 456.144,89.52 C456.144,89.7600012 456.064001,89.9599992 455.904,90.12 C455.743999,90.2800008 455.552001,90.36 455.328,90.36 C455.087999,90.36 454.888001,90.2800008 454.728,90.12 C454.567999,89.9599992 454.488,89.7600012 454.488,89.52 C454.488,88.9599972 454.795997,88.5000018 455.412,88.14 C456.028003,87.7799982 456.735996,87.6 457.536,87.6 C458.704006,87.6 459.543997,87.8559974 460.056,88.368 C460.568003,88.8800026 460.824,89.7119942 460.824,90.864 L460.824,94.488 C460.824,95.1120031 461.007998,95.424 461.376,95.424 C461.584001,95.424 461.807999,95.3040012 462.048,95.064 L462.384,95.52 Z M459.12,94.08 L459.12,91.632 C456.911989,92.1440026 455.808,92.9359946 455.808,94.008 C455.808,94.3760018 455.915999,94.6719989 456.132,94.896 C456.348001,95.1200011 456.615998,95.232 456.936,95.232 C457.528003,95.232 458.255996,94.8480038 459.12,94.08 Z M472.896,89.088 C472.896,89.8400038 472.576003,90.216 471.936,90.216 C471.711999,90.216 471.516001,90.1280009 471.348,89.952 C471.179999,89.7759991 471.096,89.5760011 471.096,89.352 C471.096,88.8239974 470.840003,88.56 470.328,88.56 C469.959998,88.56 469.560002,88.8159974 469.128,89.328 C468.695998,89.8400026 468.48,90.5199958 468.48,91.368 L468.48,92.688 C468.48,93.888006 468.595999,94.6559983 468.828,94.992 C469.060001,95.3280017 469.575996,95.496 470.376,95.496 L470.376,96 L464.88,96 L464.88,95.496 C465.680004,95.496 466.195999,95.3280017 466.428,94.992 C466.660001,94.6559983 466.776,93.888006 466.776,92.688 L466.776,91.488 C466.776,90.3039941 466.660001,89.5440017 466.428,89.208 C466.195999,88.8719983 465.680004,88.704 464.88,88.704 L464.88,88.2 L468.072,87.6 C468.216001,87.9040015 468.351999,88.4799958 468.48,89.328 C468.720001,88.8479976 469.079998,88.4400017 469.56,88.104 C470.040002,87.7679983 470.519998,87.6 471,87.6 C471.608003,87.6 472.075998,87.7599984 472.404,88.08 C472.732002,88.4000016 472.896,88.7359982 472.896,89.088 Z M477.408,90.504 L481.392,90.504 C481.552001,90.0559978 481.484001,89.6200021 481.188,89.196 C480.891999,88.7719979 480.384004,88.56 479.664,88.56 C479.151997,88.56 478.692002,88.7359982 478.284,89.088 C477.875998,89.4400018 477.584001,89.911997 477.408,90.504 Z M477.264,91.392 C477.119999,92.5760059 477.307997,93.5399963 477.828,94.284 C478.348003,95.0280037 479.199994,95.4 480.384,95.4 C480.784002,95.4 481.239997,95.296001 481.752,95.088 C482.264003,94.879999 482.687998,94.6160016 483.024,94.296 L483.456,94.824 C483.023998,95.2880023 482.472003,95.6679985 481.8,95.964 C481.127997,96.2600015 480.456003,96.408 479.784,96.408 C478.487994,96.408 477.424004,95.9800043 476.592,95.124 C475.759996,94.2679957 475.344,93.2240062 475.344,91.992 C475.344,90.7599938 475.795995,89.7200042 476.7,88.872 C477.604005,88.0239958 478.631994,87.6 479.784,87.6 C480.872005,87.6 481.759997,87.9799962 482.448,88.74 C483.136003,89.5000038 483.336001,90.383995 483.048,91.392 L477.264,91.392 Z M493.776,93.552 L493.776,90.456 C493.551999,89.8799971 493.224002,89.4200017 492.792,89.076 C492.359998,88.7319983 491.880003,88.56 491.352,88.56 C490.455996,88.56 489.776002,88.8799968 489.312,89.52 C488.847998,90.1600032 488.616,90.983995 488.616,91.992 C488.616,93.0160051 488.847998,93.8479968 489.312,94.488 C489.776002,95.1280032 490.455996,95.448 491.352,95.448 C491.880003,95.448 492.359998,95.2760017 492.792,94.932 C493.224002,94.5879983 493.551999,94.1280029 493.776,93.552 Z M493.776,89.016 L493.776,85.104 C493.776,83.903994 493.660001,83.1360017 493.428,82.8 C493.195999,82.4639983 492.680004,82.296 491.88,82.296 L491.88,81.792 L495.48,81.192 L495.48,92.496 C495.48,93.696006 495.595999,94.4639983 495.828,94.8 C496.060001,95.1360017 496.575996,95.304 497.376,95.304 L497.376,95.808 L494.184,96.408 C494.071999,96.1679988 493.944001,95.6800037 493.8,94.944 C493.015996,95.9200049 492.032006,96.408 490.848,96.408 C489.711994,96.408 488.732004,95.9760043 487.908,95.112 C487.083996,94.2479957 486.672,93.2080061 486.672,91.992 C486.672,90.7759939 487.083996,89.7400043 487.908,88.884 C488.732004,88.0279957 489.711994,87.6 490.848,87.6 C492.032006,87.6 493.007996,88.0719953 493.776,89.016 Z M506.736,96 L506.736,95.496 C507.728005,95.496 508.355999,95.3280017 508.62,94.992 C508.884001,94.6559983 509.016,93.888006 509.016,92.688 L509.016,84.888 C509.016,83.687994 508.884001,82.9240016 508.62,82.596 C508.355999,82.2679984 507.728005,82.104 506.736,82.104 L506.736,81.6 L517.68,81.6 L517.896,84.768 L517.392,84.768 L517.272,84.288 C517.079999,83.5839965 516.824002,83.1080012 516.504,82.86 C516.183998,82.6119988 515.512005,82.488 514.488,82.488 L510.936,82.488 L510.936,87.936 L512.136,87.936 C513.336006,87.936 514.099998,87.8040013 514.428,87.54 C514.756002,87.2759987 514.92,86.640005 514.92,85.632 L515.424,85.632 L515.424,91.128 L514.92,91.128 C514.92,90.119995 514.756002,89.4840013 514.428,89.22 C514.099998,88.9559987 513.336006,88.824 512.136,88.824 L510.936,88.824 L510.936,92.328 C510.936,93.528006 511.067999,94.2919984 511.332,94.62 C511.596001,94.9480016 512.223995,95.112 513.216,95.112 L515.28,95.112 C516.000004,95.112 516.547998,95.0400007 516.924,94.896 C517.300002,94.7519993 517.555999,94.5680011 517.692,94.344 C517.828001,94.1199989 517.951999,93.7680024 518.064,93.288 L518.184,92.808 L518.688,92.808 L518.496,96 L506.736,96 Z M526.968,96 L521.472,96 L521.472,95.496 C522.272004,95.496 522.787999,95.3280017 523.02,94.992 C523.252001,94.6559983 523.368,93.888006 523.368,92.688 L523.368,85.104 C523.368,83.903994 523.252001,83.1360017 523.02,82.8 C522.787999,82.4639983 522.272004,82.296 521.472,82.296 L521.472,81.792 L525.072,81.192 L525.072,92.688 C525.072,93.888006 525.187999,94.6559983 525.42,94.992 C525.652001,95.3280017 526.167996,95.496 526.968,95.496 L526.968,96 Z M531.864,90.504 L535.848,90.504 C536.008001,90.0559978 535.940001,89.6200021 535.644,89.196 C535.347999,88.7719979 534.840004,88.56 534.12,88.56 C533.607997,88.56 533.148002,88.7359982 532.74,89.088 C532.331998,89.4400018 532.040001,89.911997 531.864,90.504 Z M531.72,91.392 C531.575999,92.5760059 531.763997,93.5399963 532.284,94.284 C532.804003,95.0280037 533.655994,95.4 534.84,95.4 C535.240002,95.4 535.695997,95.296001 536.208,95.088 C536.720003,94.879999 537.143998,94.6160016 537.48,94.296 L537.912,94.824 C537.479998,95.2880023 536.928003,95.6679985 536.256,95.964 C535.583997,96.2600015 534.912003,96.408 534.24,96.408 C532.943994,96.408 531.880004,95.9800043 531.048,95.124 C530.215996,94.2679957 529.8,93.2240062 529.8,91.992 C529.8,90.7599938 530.251995,89.7200042 531.156,88.872 C532.060005,88.0239958 533.087994,87.6 534.24,87.6 C535.328005,87.6 536.215997,87.9799962 536.904,88.74 C537.592003,89.5000038 537.792001,90.383995 537.504,91.392 L531.72,91.392 Z M545.376,88.368 C544.735997,88.368 544.192002,88.7359963 543.744,89.472 C543.295998,90.2080037 543.072,91.1199946 543.072,92.208 C543.072,93.200005 543.315998,93.9799972 543.804,94.548 C544.292002,95.1160028 545.015995,95.4 545.976,95.4 C546.904005,95.4 547.759996,95.0320037 548.544,94.296 L548.952,94.824 C547.975995,95.8800053 546.784007,96.408 545.376,96.408 C544.063993,96.408 543.028004,96.0160039 542.268,95.232 C541.507996,94.4479961 541.128,93.4400062 541.128,92.208 C541.128,90.8799934 541.575996,89.7800044 542.472,88.908 C543.368004,88.0359956 544.335995,87.6 545.376,87.6 C546.320005,87.6 547.031998,87.7679983 547.512,88.104 C547.992002,88.4400017 548.232,88.8479976 548.232,89.328 C548.232,89.5840013 548.148001,89.8199989 547.98,90.036 C547.811999,90.2520011 547.544002,90.36 547.176,90.36 C546.919999,90.36 546.700001,90.2680009 546.516,90.084 C546.331999,89.8999991 546.24,89.6720014 546.24,89.4 C546.24,88.7119966 545.952003,88.368 545.376,88.368 Z M552.528,88.848 L551.28,88.848 L551.28,88.272 C551.968003,88.1279993 552.471998,87.8160024 552.792,87.336 C553.112002,86.8559976 553.32,86.2000042 553.416,85.368 L554.232,85.368 L554.232,88.008 L556.32,88.008 L556.32,88.848 L554.232,88.848 L554.232,93.648 C554.232,94.8000058 554.591996,95.376 555.312,95.376 C555.776002,95.376 556.295997,95.1040027 556.872,94.56 L557.28,94.968 C556.943998,95.368002 556.540002,95.6959987 556.068,95.952 C555.595998,96.2080013 555.160002,96.336 554.76,96.336 C554.071997,96.336 553.528002,96.1120022 553.128,95.664 C552.727998,95.2159978 552.528,94.5440045 552.528,93.648 L552.528,88.848 Z M567.816,89.088 C567.816,89.8400038 567.496003,90.216 566.856,90.216 C566.631999,90.216 566.436001,90.1280009 566.268,89.952 C566.099999,89.7759991 566.016,89.5760011 566.016,89.352 C566.016,88.8239974 565.760003,88.56 565.248,88.56 C564.879998,88.56 564.480002,88.8159974 564.048,89.328 C563.615998,89.8400026 563.4,90.5199958 563.4,91.368 L563.4,92.688 C563.4,93.888006 563.515999,94.6559983 563.748,94.992 C563.980001,95.3280017 564.495996,95.496 565.296,95.496 L565.296,96 L559.8,96 L559.8,95.496 C560.600004,95.496 561.115999,95.3280017 561.348,94.992 C561.580001,94.6559983 561.696,93.888006 561.696,92.688 L561.696,91.488 C561.696,90.3039941 561.580001,89.5440017 561.348,89.208 C561.115999,88.8719983 560.600004,88.704 559.8,88.704 L559.8,88.2 L562.992,87.6 C563.136001,87.9040015 563.271999,88.4799958 563.4,89.328 C563.640001,88.8479976 563.999998,88.4400017 564.48,88.104 C564.960002,87.7679983 565.439998,87.6 565.92,87.6 C566.528003,87.6 566.995998,87.7599984 567.324,88.08 C567.652002,88.4000016 567.816,88.7359982 567.816,89.088 Z M578.928,88.896 C579.888005,89.7440042 580.368,90.7759939 580.368,91.992 C580.368,93.2080061 579.892005,94.2479957 578.94,95.112 C577.987995,95.9760043 576.848007,96.408 575.52,96.408 C574.191993,96.408 573.052005,95.9760043 572.1,95.112 C571.147995,94.2479957 570.672,93.2080061 570.672,91.992 C570.672,90.7759939 571.147995,89.7400043 572.1,88.884 C573.052005,88.0279957 574.191993,87.6 575.52,87.6 C576.848007,87.6 577.983995,88.0319957 578.928,88.896 Z M577.68,94.512 C578.176002,93.8559967 578.424,93.0160051 578.424,91.992 C578.424,90.9679949 578.176002,90.1320032 577.68,89.484 C577.183998,88.8359968 576.464005,88.512 575.52,88.512 C574.575995,88.512 573.856002,88.8399967 573.36,89.496 C572.863998,90.1520033 572.616,90.983995 572.616,91.992 C572.616,93.000005 572.863998,93.8319967 573.36,94.488 C573.856002,95.1440033 574.575995,95.472 575.52,95.472 C576.464005,95.472 577.183998,95.1520032 577.68,94.512 Z M587.232,89.328 C588.144005,88.1759942 589.255993,87.6 590.568,87.6 C591.608005,87.6 592.387997,87.9279967 592.908,88.584 C593.428003,89.2400033 593.688,90.1039946 593.688,91.176 L593.688,92.688 C593.688,93.888006 593.803999,94.6559983 594.036,94.992 C594.268001,95.3280017 594.783996,95.496 595.584,95.496 L595.584,96 L590.088,96 L590.088,95.496 C590.872004,95.496 591.383999,95.3240017 591.624,94.98 C591.864001,94.6359983 591.984,93.8720059 591.984,92.688 L591.984,91.296 C591.984,89.5839914 591.320007,88.728 589.992,88.728 C589.303997,88.728 588.672003,88.9679976 588.096,89.448 C587.519997,89.9280024 587.232,90.4879968 587.232,91.128 L587.232,92.688 C587.232,93.9200062 587.327999,94.6959984 587.52,95.016 C587.712001,95.3360016 588.175996,95.496 588.912,95.496 L588.912,96 L583.632,96 L583.632,95.496 C584.432004,95.496 584.947999,95.3280017 585.18,94.992 C585.412001,94.6559983 585.528,93.888006 585.528,92.688 L585.528,91.488 C585.528,90.3039941 585.412001,89.5440017 585.18,89.208 C584.947999,88.8719983 584.432004,88.704 583.632,88.704 L583.632,88.2 L586.824,87.6 C586.968001,87.9040015 587.103999,88.4799958 587.232,89.328 Z" id="Shared-Electron-Copy" fill="#524740"></path>
            <path d="M428.664,146.28 C428.295998,146.584002 428.064,146.959998 427.968,147.408 L427.488,147.408 L427.488,142.128 L427.992,142.128 C427.992,142.192 427.996,142.275999 428.004,142.38 C428.012,142.484001 428.044,142.683999 428.1,142.98 C428.156,143.276001 428.235999,143.559999 428.34,143.832 C428.444001,144.104001 428.607999,144.407998 428.832,144.744 C429.056001,145.080002 429.315999,145.367999 429.612,145.608 C429.908001,145.848001 430.299998,146.047999 430.788,146.208 C431.276002,146.368001 431.815997,146.448 432.408,146.448 C433.272004,146.448 433.987997,146.200002 434.556,145.704 C435.124003,145.207998 435.408,144.576004 435.408,143.808 C435.408,142.831995 434.488009,141.864005 432.648,140.904 L430.344,139.728 C429.591996,139.327998 428.960003,138.784003 428.448,138.096 C427.935997,137.407997 427.68,136.632004 427.68,135.768 C427.68,134.759995 428.055996,133.912003 428.808,133.224 C429.560004,132.535997 430.511994,132.192 431.664,132.192 C432.720005,132.192 433.695996,132.519997 434.592,133.176 C434.960002,132.871998 435.192,132.504002 435.288,132.072 L435.768,132.072 L435.768,137.352 L435.264,137.352 C435.023999,134.551986 433.800011,133.152 431.592,133.152 C430.919997,133.152 430.364002,133.355998 429.924,133.764 C429.483998,134.172002 429.264,134.679997 429.264,135.288 C429.264,135.880003 429.475998,136.379998 429.9,136.788 C430.324002,137.196002 431.087994,137.687997 432.192,138.264 L434.472,139.44 C436.152008,140.288004 436.992,141.503992 436.992,143.088 C436.992,144.368006 436.548004,145.407996 435.66,146.208 C434.771996,147.008004 433.688006,147.408 432.408,147.408 C431.863997,147.408 431.344002,147.328001 430.848,147.168 C430.351998,147.007999 429.904002,146.828001 429.504,146.628 C429.103998,146.427999 428.824001,146.312 428.664,146.28 Z M445.776,147 L440.28,147 L440.28,146.496 C441.080004,146.496 441.595999,146.328002 441.828,145.992 C442.060001,145.655998 442.176,144.888006 442.176,143.688 L442.176,142.488 C442.176,141.303994 442.060001,140.544002 441.828,140.208 C441.595999,139.871998 441.080004,139.704 440.28,139.704 L440.28,139.2 L443.88,138.6 L443.88,143.688 C443.88,144.888006 443.995999,145.655998 444.228,145.992 C444.460001,146.328002 444.975996,146.496 445.776,146.496 L445.776,147 Z M444.072,135.168 C444.072,135.472002 443.968001,135.727999 443.76,135.936 C443.551999,136.144001 443.304001,136.248 443.016,136.248 C442.727999,136.248 442.480001,136.144001 442.272,135.936 C442.063999,135.727999 441.96,135.472002 441.96,135.168 C441.96,134.879999 442.063999,134.632001 442.272,134.424 C442.480001,134.215999 442.727999,134.112 443.016,134.112 C443.304001,134.112 443.551999,134.215999 443.76,134.424 C443.968001,134.632001 444.072,134.879999 444.072,135.168 Z M453.384,147 L447.888,147 L447.888,146.496 C448.688004,146.496 449.203999,146.328002 449.436,145.992 C449.668001,145.655998 449.784,144.888006 449.784,143.688 L449.784,136.104 C449.784,134.903994 449.668001,134.136002 449.436,133.8 C449.203999,133.463998 448.688004,133.296 447.888,133.296 L447.888,132.792 L451.488,132.192 L451.488,143.688 C451.488,144.888006 451.603999,145.655998 451.836,145.992 C452.068001,146.328002 452.583996,146.496 453.384,146.496 L453.384,147 Z M461.472,147 L455.976,147 L455.976,146.496 C456.776004,146.496 457.291999,146.328002 457.524,145.992 C457.756001,145.655998 457.872,144.888006 457.872,143.688 L457.872,142.488 C457.872,141.303994 457.756001,140.544002 457.524,140.208 C457.291999,139.871998 456.776004,139.704 455.976,139.704 L455.976,139.2 L459.576,138.6 L459.576,143.688 C459.576,144.888006 459.691999,145.655998 459.924,145.992 C460.156001,146.328002 460.671996,146.496 461.472,146.496 L461.472,147 Z M459.768,135.168 C459.768,135.472002 459.664001,135.727999 459.456,135.936 C459.247999,136.144001 459.000001,136.248 458.712,136.248 C458.423999,136.248 458.176001,136.144001 457.968,135.936 C457.759999,135.727999 457.656,135.472002 457.656,135.168 C457.656,134.879999 457.759999,134.632001 457.968,134.424 C458.176001,134.215999 458.423999,134.112 458.712,134.112 C459.000001,134.112 459.247999,134.215999 459.456,134.424 C459.664001,134.632001 459.768,134.879999 459.768,135.168 Z M468.528,139.368 C467.887997,139.368 467.344002,139.735996 466.896,140.472 C466.447998,141.208004 466.224,142.119995 466.224,143.208 C466.224,144.200005 466.467998,144.979997 466.956,145.548 C467.444002,146.116003 468.167995,146.4 469.128,146.4 C470.056005,146.4 470.911996,146.032004 471.696,145.296 L472.104,145.824 C471.127995,146.880005 469.936007,147.408 468.528,147.408 C467.215993,147.408 466.180004,147.016004 465.42,146.232 C464.659996,145.447996 464.28,144.440006 464.28,143.208 C464.28,141.879993 464.727996,140.780004 465.624,139.908 C466.520004,139.035996 467.487995,138.6 468.528,138.6 C469.472005,138.6 470.183998,138.767998 470.664,139.104 C471.144002,139.440002 471.384,139.847998 471.384,140.328 C471.384,140.584001 471.300001,140.819999 471.132,141.036 C470.963999,141.252001 470.696002,141.36 470.328,141.36 C470.071999,141.36 469.852001,141.268001 469.668,141.084 C469.483999,140.899999 469.392,140.672001 469.392,140.4 C469.392,139.711997 469.104003,139.368 468.528,139.368 Z M483.168,139.896 C484.128005,140.744004 484.608,141.775994 484.608,142.992 C484.608,144.208006 484.132005,145.247996 483.18,146.112 C482.227995,146.976004 481.088007,147.408 479.76,147.408 C478.431993,147.408 477.292005,146.976004 476.34,146.112 C475.387995,145.247996 474.912,144.208006 474.912,142.992 C474.912,141.775994 475.387995,140.740004 476.34,139.884 C477.292005,139.027996 478.431993,138.6 479.76,138.6 C481.088007,138.6 482.223995,139.031996 483.168,139.896 Z M481.92,145.512 C482.416002,144.855997 482.664,144.016005 482.664,142.992 C482.664,141.967995 482.416002,141.132003 481.92,140.484 C481.423998,139.835997 480.704005,139.512 479.76,139.512 C478.815995,139.512 478.096002,139.839997 477.6,140.496 C477.103998,141.152003 476.856,141.983995 476.856,142.992 C476.856,144.000005 477.103998,144.831997 477.6,145.488 C478.096002,146.144003 478.815995,146.472 479.76,146.472 C480.704005,146.472 481.423998,146.152003 481.92,145.512 Z M491.472,140.328 C492.384005,139.175994 493.495993,138.6 494.808,138.6 C495.848005,138.6 496.627997,138.927997 497.148,139.584 C497.668003,140.240003 497.928,141.103995 497.928,142.176 L497.928,143.688 C497.928,144.888006 498.043999,145.655998 498.276,145.992 C498.508001,146.328002 499.023996,146.496 499.824,146.496 L499.824,147 L494.328,147 L494.328,146.496 C495.112004,146.496 495.623999,146.324002 495.864,145.98 C496.104001,145.635998 496.224,144.872006 496.224,143.688 L496.224,142.296 C496.224,140.583991 495.560007,139.728 494.232,139.728 C493.543997,139.728 492.912003,139.967998 492.336,140.448 C491.759997,140.928002 491.472,141.487997 491.472,142.128 L491.472,143.688 C491.472,144.920006 491.567999,145.695998 491.76,146.016 C491.952001,146.336002 492.415996,146.496 493.152,146.496 L493.152,147 L487.872,147 L487.872,146.496 C488.672004,146.496 489.187999,146.328002 489.42,145.992 C489.652001,145.655998 489.768,144.888006 489.768,143.688 L489.768,142.488 C489.768,141.303994 489.652001,140.544002 489.42,140.208 C489.187999,139.871998 488.672004,139.704 487.872,139.704 L487.872,139.2 L491.064,138.6 C491.208001,138.904002 491.343999,139.479996 491.472,140.328 Z M512.256,142.008 L511.104,144.672 C510.799998,145.328003 510.787999,145.795999 511.068,146.076 C511.348001,146.356001 511.983995,146.496 512.976,146.496 L512.976,147 L507.36,147 L507.36,146.496 C507.872003,146.496 508.267999,146.476 508.548,146.436 C508.828001,146.396 509.075999,146.268001 509.292,146.052 C509.508001,145.835999 509.66,145.640001 509.748,145.464 C509.836,145.287999 509.999999,144.936003 510.24,144.408 L515.52,132.192 L515.832,132.192 L521.136,144.408 C521.376001,144.936003 521.54,145.287999 521.628,145.464 C521.716,145.640001 521.867999,145.835999 522.084,146.052 C522.300001,146.268001 522.543999,146.396 522.816,146.436 C523.088001,146.476 523.479997,146.496 523.992,146.496 L523.992,147 L517.344,147 L517.344,146.496 C518.336005,146.496 518.967999,146.356001 519.24,146.076 C519.512001,145.795999 519.504001,145.328003 519.216,144.672 L518.064,142.008 L512.256,142.008 Z M517.656,141.12 L515.136,135.336 L512.64,141.12 L517.656,141.12 Z M526.2,139.848 L524.952,139.848 L524.952,139.272 C525.640003,139.127999 526.143998,138.816002 526.464,138.336 C526.784002,137.855998 526.992,137.200004 527.088,136.368 L527.904,136.368 L527.904,139.008 L529.992,139.008 L529.992,139.848 L527.904,139.848 L527.904,144.648 C527.904,145.800006 528.263996,146.376 528.984,146.376 C529.448002,146.376 529.967997,146.104003 530.544,145.56 L530.952,145.968 C530.615998,146.368002 530.212002,146.695999 529.74,146.952 C529.267998,147.208001 528.832002,147.336 528.432,147.336 C527.743997,147.336 527.200002,147.112002 526.8,146.664 C526.399998,146.215998 526.2,145.544004 526.2,144.648 L526.2,139.848 Z M541.968,139.896 C542.928005,140.744004 543.408,141.775994 543.408,142.992 C543.408,144.208006 542.932005,145.247996 541.98,146.112 C541.027995,146.976004 539.888007,147.408 538.56,147.408 C537.231993,147.408 536.092005,146.976004 535.14,146.112 C534.187995,145.247996 533.712,144.208006 533.712,142.992 C533.712,141.775994 534.187995,140.740004 535.14,139.884 C536.092005,139.027996 537.231993,138.6 538.56,138.6 C539.888007,138.6 541.023995,139.031996 541.968,139.896 Z M540.72,145.512 C541.216002,144.855997 541.464,144.016005 541.464,142.992 C541.464,141.967995 541.216002,141.132003 540.72,140.484 C540.223998,139.835997 539.504005,139.512 538.56,139.512 C537.615995,139.512 536.896002,139.839997 536.4,140.496 C535.903998,141.152003 535.656,141.983995 535.656,142.992 C535.656,144.000005 535.903998,144.831997 536.4,145.488 C536.896002,146.144003 537.615995,146.472 538.56,146.472 C539.504005,146.472 540.223998,146.152003 540.72,145.512 Z M556.152,142.128 L556.152,143.688 C556.152,144.952006 556.235999,145.735998 556.404,146.04 C556.572001,146.344002 556.991997,146.496 557.664,146.496 L557.664,147 L552.96,147 L552.96,146.496 C553.632003,146.496 554.051999,146.344002 554.22,146.04 C554.388001,145.735998 554.472,144.952006 554.472,143.688 L554.472,142.296 C554.472,140.583991 553.896006,139.728 552.744,139.728 C552.247998,139.728 551.712003,139.959998 551.136,140.424 C550.559997,140.888002 550.272,141.455997 550.272,142.128 L550.272,143.688 C550.272,144.936006 550.355999,145.715998 550.524,146.028 C550.692001,146.340002 551.103997,146.496 551.76,146.496 L551.76,147 L546.672,147 L546.672,146.496 C547.472004,146.496 547.987999,146.328002 548.22,145.992 C548.452001,145.655998 548.568,144.888006 548.568,143.688 L548.568,142.488 C548.568,141.303994 548.452001,140.544002 548.22,140.208 C547.987999,139.871998 547.472004,139.704 546.672,139.704 L546.672,139.2 L549.864,138.6 C550.008001,138.904002 550.143999,139.479996 550.272,140.328 C551.184005,139.175994 552.223994,138.6 553.392,138.6 C554.720007,138.6 555.567998,139.199994 555.936,140.4 C556.256002,139.951998 556.731997,139.540002 557.364,139.164 C557.996003,138.787998 558.639997,138.6 559.296,138.6 C561.136009,138.6 562.056,139.791988 562.056,142.176 L562.056,143.688 C562.056,144.888006 562.171999,145.655998 562.404,145.992 C562.636001,146.328002 563.151996,146.496 563.952,146.496 L563.952,147 L558.864,147 L558.864,146.496 C559.536003,146.496 559.951999,146.344002 560.112,146.04 C560.272001,145.735998 560.352,144.952006 560.352,143.688 L560.352,142.296 C560.352,140.583991 559.784006,139.728 558.648,139.728 C558.151998,139.728 557.612003,139.959998 557.028,140.424 C556.443997,140.888002 556.152,141.455997 556.152,142.128 Z" id="Silicon-Atom-Copy" fill="#524740"></path>
        </g>
        <path d="M688.864,427.288 C687.255992,427.288 685.702007,426.880004 684.202,426.064 C682.701992,425.247996 681.568004,424.432004 680.8,423.616 L682.456,421.996 C683.056003,422.644003 683.943994,423.309997 685.12,423.994 C686.296006,424.678003 687.543993,425.02 688.864,425.02 C690.472008,425.02 691.737995,424.666004 692.662,423.958 C693.586005,423.249996 694.048,422.284006 694.048,421.06 C694.048,420.027995 693.598005,419.128004 692.698,418.36 C691.797995,417.591996 690.706006,416.944003 689.422,416.416 C688.137994,415.887997 686.848006,415.330003 685.552,414.742 C684.255994,414.153997 683.158004,413.356005 682.258,412.348 C681.357995,411.339995 680.908,410.152007 680.908,408.784 C680.908,407.031991 681.567993,405.556006 682.888,404.356 C684.208007,403.155994 686.055988,402.556 688.432,402.556 C690.040008,402.556 691.593992,402.963996 693.094,403.78 C694.594007,404.596004 695.727996,405.411996 696.496,406.228 L694.84,407.848 C694.215997,407.175997 693.316006,406.504003 692.14,405.832 C690.963994,405.159997 689.728006,404.824 688.432,404.824 C686.823992,404.824 685.558005,405.177996 684.634,405.886 C683.709995,406.594004 683.248,407.559994 683.248,408.784 C683.248,409.816005 683.697995,410.721996 684.598,411.502 C685.498004,412.282004 686.589994,412.935997 687.874,413.464 C689.158006,413.992003 690.447994,414.543997 691.744,415.12 C693.040006,415.696003 694.137995,416.487995 695.038,417.496 C695.938004,418.504005 696.388,419.691993 696.388,421.06 C696.388,422.812009 695.728007,424.287994 694.408,425.488 C693.087993,426.688006 691.240012,427.288 688.864,427.288 Z M701.212001,403.6 C700.947999,403.888001 700.612003,404.032 700.204001,404.032 C699.795999,404.032 699.454002,403.888001 699.178001,403.6 C698.901999,403.311999 698.764001,402.976002 698.764001,402.592 C698.764001,402.207998 698.901999,401.872001 699.178001,401.584 C699.454002,401.295999 699.795999,401.152 700.204001,401.152 C700.612003,401.152 700.953999,401.295999 701.230001,401.584 C701.506002,401.872001 701.644001,402.207998 701.644001,402.592 C701.644001,402.976002 701.500002,403.311999 701.212001,403.6 Z M699.016001,427 L699.016001,409 L701.392001,409 L701.392001,427 L699.016001,427 Z M704.740001,427 L704.740001,400.216 L707.116001,400.216 L707.116001,427 L704.740001,427 Z M712.660002,403.6 C712.396001,403.888001 712.060004,404.032 711.652002,404.032 C711.244,404.032 710.902003,403.888001 710.626002,403.6 C710.350001,403.311999 710.212002,402.976002 710.212002,402.592 C710.212002,402.207998 710.350001,401.872001 710.626002,401.584 C710.902003,401.295999 711.244,401.152 711.652002,401.152 C712.060004,401.152 712.402001,401.295999 712.678002,401.584 C712.954003,401.872001 713.092002,402.207998 713.092002,402.592 C713.092002,402.976002 712.948003,403.311999 712.660002,403.6 Z M710.464002,427 L710.464002,409 L712.840002,409 L712.840002,427 L710.464002,427 Z M724.180003,427.288 C721.61199,427.288 719.422012,426.382009 717.610003,424.57 C715.797993,422.757991 714.892003,420.568013 714.892003,418 C714.892003,415.431987 715.797993,413.242009 717.610003,411.43 C719.422012,409.617991 721.61199,408.712 724.180003,408.712 C725.812011,408.712 727.329995,409.113996 728.734003,409.918 C730.13801,410.722004 731.247998,411.795993 732.064003,413.14 L729.904003,414.184 C729.255999,413.199995 728.428008,412.420003 727.420003,411.844 C726.411997,411.267997 725.332008,410.98 724.180003,410.98 C722.235993,410.98 720.598009,411.657993 719.266003,413.014 C717.933996,414.370007 717.268003,416.03199 717.268003,418 C717.268003,419.96801 717.933996,421.629993 719.266003,422.986 C720.598009,424.342007 722.235993,425.02 724.180003,425.02 C725.332008,425.02 726.411997,424.732003 727.420003,424.156 C728.428008,423.579997 729.255999,422.800005 729.904003,421.816 L732.064003,422.86 C731.247998,424.204007 730.13801,425.277996 728.734003,426.082 C727.329995,426.886004 725.812011,427.288 724.180003,427.288 Z M748.300003,424.552 C746.499994,426.376009 744.316016,427.288 741.748003,427.288 C739.17999,427.288 736.990012,426.382009 735.178003,424.57 C733.365994,422.757991 732.460003,420.568013 732.460003,418 C732.460003,415.431987 733.365994,413.242009 735.178003,411.43 C736.990012,409.617991 739.17999,408.712 741.748003,408.712 C744.316016,408.712 746.505994,409.617991 748.318003,411.43 C750.130012,413.242009 751.036003,415.431987 751.036003,418 C751.036003,420.544013 750.124012,422.727991 748.300003,424.552 Z M741.784003,425.02 C743.728013,425.02 745.365996,424.342007 746.698003,422.986 C748.03001,421.629993 748.696003,419.96801 748.696003,418 C748.696003,416.03199 748.03001,414.364007 746.698003,412.996 C745.365996,411.627993 743.728013,410.944 741.784003,410.944 C739.863994,410.944 738.23201,411.627993 736.888003,412.996 C735.543996,414.364007 734.872003,416.03199 734.872003,418 C734.872003,419.96801 735.543996,421.629993 736.888003,422.986 C738.23201,424.342007 739.863994,425.02 741.784003,425.02 Z M760.576004,408.712 C762.664014,408.712 764.415997,409.449993 765.832004,410.926 C767.248011,412.402007 767.956004,414.219989 767.956004,416.38 L767.956004,427 L765.544004,427 L765.544004,416.452 C765.544004,414.915992 765.022009,413.608005 763.978004,412.528 C762.933999,411.447995 761.668011,410.908 760.180004,410.908 C758.691996,410.908 757.426009,411.447995 756.382004,412.528 C755.337999,413.608005 754.816004,414.915992 754.816004,416.452 L754.816004,427 L752.440004,427 L752.440004,409 L754.816004,409 L754.816004,411.664 C756.280011,409.69599 758.199992,408.712 760.576004,408.712 Z M789.088005,427.288 C785.535987,427.288 782.704016,426.106012 780.592005,423.742 C778.479994,421.377988 777.424005,418.444018 777.424005,414.94 C777.424005,411.411982 778.479994,408.466012 780.592005,406.102 C782.704016,403.737988 785.535987,402.556 789.088005,402.556 C791.440017,402.556 793.485996,403.095995 795.226005,404.176 C796.966014,405.256005 798.316,406.731991 799.276005,408.604 L797.044005,409.9 C796.276001,408.339992 795.202012,407.104005 793.822005,406.192 C792.441998,405.279995 790.864014,404.824 789.088005,404.824 C786.351991,404.824 784.162013,405.77799 782.518005,407.686 C780.873997,409.59401 780.052005,412.011985 780.052005,414.94 C780.052005,417.844015 780.873997,420.25599 782.518005,422.176 C784.162013,424.09601 786.351991,425.056 789.088005,425.056 C790.888014,425.056 792.477998,424.594005 793.858005,423.67 C795.238012,422.745995 796.300001,421.504008 797.044005,419.944 L799.276005,421.276 C798.316,423.148009 796.966014,424.617995 795.226005,425.686 C793.485996,426.754005 791.440017,427.288 789.088005,427.288 Z M809.356006,408.712 C810.628012,408.712 811.792,409.023997 812.848006,409.648 L812.020006,412.024 C811.012001,411.279996 809.992011,410.908 808.960006,410.908 C807.447998,410.908 806.176011,411.441995 805.144006,412.51 C804.112001,413.578005 803.596006,414.891992 803.596006,416.452 L803.596006,427 L801.220006,427 L801.220006,409 L803.596006,409 L803.596006,411.664 C805.060013,409.69599 806.979994,408.712 809.356006,408.712 Z M825.880006,409 L828.256006,409 L818.428006,434.668 L816.052006,434.668 L819.832006,424.804 L813.172006,409 L815.548006,409 L820.948006,421.852 L825.880006,409 Z M834.952007,427.288 C834.136003,427.288 833.344011,427.186001 832.576007,426.982 C831.808003,426.777999 831.16601,426.538001 830.650007,426.262 C830.134004,425.985999 829.672009,425.704001 829.264007,425.416 C828.856005,425.127999 828.556008,424.888001 828.364007,424.696 L828.076007,424.372 L829.768007,422.932 C829.936008,423.100001 830.170005,423.303999 830.470007,423.544 C830.770008,423.784001 831.376002,424.107998 832.288007,424.516 C833.200011,424.924002 834.100002,425.128 834.988007,425.128 C836.308014,425.128 837.364003,424.876003 838.156007,424.372 C838.948011,423.867997 839.344007,423.160005 839.344007,422.248 C839.344007,421.599997 838.948011,421.042002 838.156007,420.574 C837.364003,420.105998 836.404013,419.704002 835.276007,419.368 C834.148001,419.031998 833.014013,418.660002 831.874007,418.252 C830.734001,417.843998 829.768011,417.268004 828.976007,416.524 C828.184003,415.779996 827.788007,414.868005 827.788007,413.788 C827.788007,412.299993 828.346001,411.082005 829.462007,410.134 C830.578013,409.185995 832.227996,408.712 834.412007,408.712 C835.708013,408.712 836.932001,408.951998 838.084007,409.432 C839.236013,409.912002 840.064004,410.391998 840.568007,410.872 L841.324007,411.592 L839.632007,413.068 C839.464006,412.899999 839.230008,412.696001 838.930007,412.456 C838.630005,412.215999 838.024011,411.892002 837.112007,411.484 C836.200002,411.075998 835.288011,410.872 834.376007,410.872 C833.08,410.872 832.030011,411.123997 831.226007,411.628 C830.422003,412.132003 830.020007,412.839995 830.020007,413.752 C830.020007,414.400003 830.416003,414.957998 831.208007,415.426 C832.000011,415.894002 832.960001,416.295998 834.088007,416.632 C835.216013,416.968002 836.350001,417.333998 837.490007,417.73 C838.630013,418.126002 839.596003,418.701996 840.388007,419.458 C841.180011,420.214004 841.576007,421.131995 841.576007,422.212 C841.576007,423.724008 841.024012,424.947995 839.920007,425.884 C838.816001,426.820005 837.160018,427.288 834.952007,427.288 Z M852.916008,422.968 L854.104008,424.804 C853.960007,424.996001 853.768009,425.223999 853.528008,425.488 C853.288006,425.752001 852.748012,426.117998 851.908008,426.586 C851.068003,427.054002 850.204012,427.288 849.316008,427.288 C847.804,427.288 846.538013,426.838005 845.518008,425.938 C844.498002,425.037996 843.988008,423.736009 843.988008,422.032 L843.988008,411.16 L841.108008,411.16 L841.108008,408.964 L843.988008,408.964 L843.988008,403.276 L846.364008,402.988 L846.364008,408.964 L851.800008,408.964 L851.800008,411.16 L846.364008,411.16 L846.364008,421.492 C846.364008,422.596006 846.706004,423.471997 847.390008,424.12 C848.074011,424.768003 848.860003,425.092 849.748008,425.092 C850.30001,425.092 850.840005,424.924002 851.368008,424.588 C851.89601,424.251998 852.286006,423.922002 852.538008,423.598 C852.790009,423.273998 852.916008,423.064 852.916008,422.968 Z M869.440008,409 L871.816008,409 L871.816008,427 L869.440008,427 L869.440008,424.084 C867.591999,426.220011 865.252022,427.288 862.420008,427.288 C859.851995,427.288 857.662017,426.382009 855.850008,424.57 C854.037999,422.757991 853.132008,420.568013 853.132008,418 C853.132008,415.431987 854.037999,413.242009 855.850008,411.43 C857.662017,409.617991 859.851995,408.712 862.420008,408.712 C865.276022,408.712 867.615999,409.779989 869.440008,411.916 L869.440008,409 Z M862.456008,425.02 C864.400018,425.02 866.038002,424.342007 867.370008,422.986 C868.702015,421.629993 869.368008,419.96801 869.368008,418 C869.368008,416.03199 868.702015,414.370007 867.370008,413.014 C866.038002,411.657993 864.400018,410.98 862.456008,410.98 C860.535999,410.98 858.898015,411.657993 857.542008,413.014 C856.186001,414.370007 855.508008,416.03199 855.508008,418 C855.508008,419.96801 856.186001,421.629993 857.542008,422.986 C858.898015,424.342007 860.535999,425.02 862.456008,425.02 Z M874.732009,427 L874.732009,400.216 L877.108009,400.216 L877.108009,427 L874.732009,427 Z" id="Silicon-Crystal-Copy" fill="#23ABE3"></path>
    </g>
</svg>