<?xml version="1.0" encoding="UTF-8"?>
<svg width="900px" height="410px" viewBox="0 0 900 410" version="1.1" xmlns="http://www.w3.org/2000/svg" xmlns:xlink="http://www.w3.org/1999/xlink">
    <!-- Generator: Sketch 52.5 (67469) - http://www.bohemiancoding.com/sketch -->
    <title>Silicon_Crystal</title>
    <desc>Created with Sketch.</desc>
    <g id="Silicon_Crystal" stroke="none" stroke-width="1" fill="none" fill-rule="evenodd">
        <rect id="Rectangle" fill="#EEEEEE" x="0" y="0" width="900" height="430"></rect>
        <g id="Illustration" transform="translate(212.000000, 45.000000)">
            <g id="Connectors" transform="translate(71.000000, 79.000000)" stroke="#524740" stroke-width="2">
                <path d="M0.576010071,34.4848177 L64,94.0891175" id="Path-4"></path>
                <path d="M6.98835279,165.073915 L64.8529269,132.18612" id="Path-4-Copy-2"></path>
                <path d="M31.5962499,198.487616 L82.1455016,152.235338" id="Path-4-Copy-3"></path>
                <path d="M178.665386,212.173625 L125.187513,152.554371" id="Path-4-Copy-4"></path>
                <path d="M190.995505,30.9978889 L142.066342,88.8923723" id="Path-4-Copy-6"></path>
                <path d="M161.308007,9.59776687 L120.120375,72.3425458" id="Path-4-Copy-7"></path>
                <path d="M204.484611,180.888471 L144.852894,132.07396" id="Path-4-Copy-5"></path>
                <path d="M39.0411794,0.146420176 L85.8642277,70.3959472" id="Path-4-Copy"></path>
            </g>
            <circle id="Oval-Copy-11" fill="#EF7D3B" cx="105" cy="113" r="12"></circle>
            <circle id="Oval-Copy-12" fill="#EF7D3B" cx="127" cy="137" r="12"></circle>
            <circle id="Oval-Copy-13" fill="#EF7D3B" cx="232" cy="120" r="12"></circle>
            <circle id="Oval-Copy-15" fill="#EF7D3B" cx="215" cy="143" r="12"></circle>
            <circle id="Oval-Copy-20" fill="#EF7D3B" cx="397" cy="88" r="12"></circle>
            <circle id="Oval-Copy-16" fill="#EF7D3B" cx="224" cy="239" r="12"></circle>
            <circle id="Oval-Copy-17" fill="#EF7D3B" cx="245" cy="258" r="12"></circle>
            <circle id="Oval-Copy-18" fill="#EF7D3B" cx="129" cy="233" r="12"></circle>
            <circle id="Oval-Copy-19" fill="#EF7D3B" cx="107" cy="249" r="12"></circle>
            <circle id="Oval-Copy-14" fill="#EF7D3B" cx="190" cy="166" r="12"></circle>
            <circle id="Oval" fill="#252525" cx="57.5" cy="57.5" r="57.5"></circle>
            <circle id="Oval-Copy" fill="#252525" cx="294" cy="304" r="53"></circle>
            <circle id="Oval-Copy-2" fill="#252525" cx="63.5" cy="281.5" r="41.5"></circle>
            <circle id="Oval-Copy-4" fill="#252525" cx="176.5" cy="192.5" r="47.5"></circle>
            <circle id="Oval-Copy-3" fill="#252525" cx="264.5" cy="71.5" r="40.5"></circle>
            <circle id="Oval-Copy-5" fill="#252525" cx="394" cy="140" r="20"></circle>
            <path d="M432.996,96.92 C432.443997,97.3760023 432.096001,97.9399966 431.952,98.612 L431.232,98.612 L431.232,90.692 L431.988,90.692 C431.988,90.7880005 431.994,90.9139992 432.006,91.07 C432.018,91.2260008 432.066,91.5259978 432.15,91.97 C432.234,92.4140022 432.353999,92.839998 432.51,93.248 C432.666001,93.656002 432.911998,94.1119975 433.248,94.616 C433.584002,95.1200025 433.973998,95.5519982 434.418,95.912 C434.862002,96.2720018 435.449996,96.5719988 436.182,96.812 C436.914004,97.0520012 437.723996,97.172 438.612,97.172 C439.908006,97.172 440.981996,96.8000037 441.834,96.056 C442.686004,95.3119963 443.112,94.3640058 443.112,93.212 C443.112,91.7479927 441.732014,90.2960072 438.972,88.856 L435.516,87.092 C434.387994,86.491997 433.440004,85.6760052 432.672,84.644 C431.903996,83.6119948 431.52,82.4480065 431.52,81.152 C431.52,79.6399924 432.083994,78.3680052 433.212,77.336 C434.340006,76.3039948 435.767991,75.788 437.496,75.788 C439.080008,75.788 440.543993,76.2799951 441.888,77.264 C442.440003,76.8079977 442.787999,76.2560032 442.932,75.608 L443.652,75.608 L443.652,83.528 L442.896,83.528 C442.535998,79.327979 440.700017,77.228 437.388,77.228 C436.379995,77.228 435.546003,77.5339969 434.886,78.146 C434.225997,78.7580031 433.896,79.5199954 433.896,80.432 C433.896,81.3200044 434.213997,82.0699969 434.85,82.682 C435.486003,83.2940031 436.631992,84.0319957 438.288,84.896 L441.708,86.66 C444.228013,87.9320064 445.488,89.7559881 445.488,92.132 C445.488,94.0520096 444.822007,95.611994 443.49,96.812 C442.157993,98.012006 440.53201,98.612 438.612,98.612 C437.795996,98.612 437.016004,98.4920012 436.272,98.252 C435.527996,98.0119988 434.856003,97.7420015 434.256,97.442 C433.655997,97.1419985 433.236001,96.9680002 432.996,96.92 Z M463.200001,98 L455.244001,98 L455.244001,97.244 C456.372007,97.244 457.08,97.0040024 457.368001,96.524 C457.656003,96.0439976 457.800001,94.8800092 457.800001,93.032 L457.800001,90.944 C457.800001,88.3759872 456.88801,87.092 455.064001,87.092 C454.103996,87.092 453.216005,87.4459965 452.400001,88.154 C451.583997,88.8620035 451.176001,89.7079951 451.176001,90.692 L451.176001,93.032 C451.176001,94.9040094 451.308,96.0739977 451.572001,96.542 C451.836002,97.0100023 452.459996,97.244 453.444001,97.244 L453.444001,98 L445.776001,98 L445.776001,97.244 C446.976007,97.244 447.749999,96.9920025 448.098001,96.488 C448.446003,95.9839975 448.620001,94.832009 448.620001,93.032 L448.620001,81.656 C448.620001,79.855991 448.446003,78.7040025 448.098001,78.2 C447.749999,77.6959975 446.976007,77.444 445.776001,77.444 L445.776001,76.688 L451.176001,75.788 L451.176001,87.992 C452.592008,86.2639914 454.163992,85.4 455.892001,85.4 C458.844016,85.4 460.320001,87.1879821 460.320001,90.764 L460.320001,93.032 C460.320001,94.832009 460.493999,95.9839975 460.842001,96.488 C461.190003,96.9920025 461.975995,97.244 463.200001,97.244 L463.200001,98 Z M475.656002,97.28 C474.959999,98.0240037 474.168007,98.396 473.280002,98.396 C471.839995,98.396 471.024003,97.700007 470.832002,96.308 C469.223994,97.7480072 467.724009,98.468 466.332002,98.468 C465.419998,98.468 464.652005,98.1980027 464.028002,97.658 C463.403999,97.1179973 463.092002,96.3800047 463.092002,95.444 C463.092002,92.9239874 465.647977,91.2200044 470.760002,90.332 C470.760002,88.9159929 470.604004,87.9320028 470.292002,87.38 C469.980001,86.8279972 469.332007,86.552 468.348002,86.552 C467.868,86.552 467.406004,86.7079984 466.962002,87.02 C466.518,87.3320016 466.296002,87.7519974 466.296002,88.28 C466.296002,88.6400018 466.176003,88.9399988 465.936002,89.18 C465.696001,89.4200012 465.408004,89.54 465.072002,89.54 C464.712,89.54 464.412003,89.4200012 464.172002,89.18 C463.932001,88.9399988 463.812002,88.6400018 463.812002,88.28 C463.812002,87.4399958 464.273998,86.7500027 465.198002,86.21 C466.122007,85.6699973 467.183996,85.4 468.384002,85.4 C470.136011,85.4 471.395998,85.7839962 472.164002,86.552 C472.932006,87.3200038 473.316002,88.5679914 473.316002,90.296 L473.316002,95.732 C473.316002,96.6680047 473.591999,97.136 474.144002,97.136 C474.456004,97.136 474.792,96.9560018 475.152002,96.596 L475.656002,97.28 Z M470.760002,95.12 L470.760002,91.448 C467.447986,92.2160038 465.792002,93.403992 465.792002,95.012 C465.792002,95.5640028 465.954001,96.0079983 466.278002,96.344 C466.602004,96.6800017 467.004,96.848 467.484002,96.848 C468.372007,96.848 469.463996,96.2720058 470.760002,95.12 Z M487.464003,87.632 C487.464003,88.7600056 486.984008,89.324 486.024003,89.324 C485.688002,89.324 485.394005,89.1920013 485.142003,88.928 C484.890002,88.6639987 484.764003,88.3640017 484.764003,88.028 C484.764003,87.235996 484.380007,86.84 483.612003,86.84 C483.060001,86.84 482.460007,87.2239962 481.812003,87.992 C481.164,88.7600038 480.840003,89.7799936 480.840003,91.052 L480.840003,93.032 C480.840003,94.832009 481.014002,95.9839975 481.362003,96.488 C481.710005,96.9920025 482.483997,97.244 483.684003,97.244 L483.684003,98 L475.440003,98 L475.440003,97.244 C476.640009,97.244 477.414002,96.9920025 477.762003,96.488 C478.110005,95.9839975 478.284003,94.832009 478.284003,93.032 L478.284003,91.232 C478.284003,89.4559911 478.110005,88.3160025 477.762003,87.812 C477.414002,87.3079975 476.640009,87.056 475.440003,87.056 L475.440003,86.3 L480.228003,85.4 C480.444004,85.8560023 480.648002,86.7199936 480.840003,87.992 C481.200005,87.2719964 481.74,86.6600025 482.460003,86.156 C483.180007,85.6519975 483.9,85.4 484.620003,85.4 C485.532008,85.4 486.234001,85.6399976 486.726003,86.12 C487.218006,86.6000024 487.464003,87.1039974 487.464003,87.632 Z M490.272004,89.756 L496.248004,89.756 C496.488006,89.0839966 496.386007,88.4300032 495.942004,87.794 C495.498002,87.1579968 494.73601,86.84 493.656004,86.84 C492.888001,86.84 492.198007,87.1039974 491.586004,87.632 C490.974001,88.1600026 490.536006,88.8679956 490.272004,89.756 Z M490.056004,91.088 C489.840003,92.8640089 490.122001,94.3099944 490.902004,95.426 C491.682008,96.5420056 492.959996,97.1 494.736004,97.1 C495.336007,97.1 496.020001,96.9440016 496.788004,96.632 C497.556008,96.3199984 498.192002,95.9240024 498.696004,95.444 L499.344004,96.236 C498.696001,96.9320035 497.868009,97.5019978 496.860004,97.946 C495.851999,98.3900022 494.844009,98.612 493.836004,98.612 C491.891995,98.612 490.296011,97.9700064 489.048004,96.686 C487.799998,95.4019936 487.176004,93.8360092 487.176004,91.988 C487.176004,90.1399908 487.853998,88.5800064 489.210004,87.308 C490.566011,86.0359936 492.107996,85.4 493.836004,85.4 C495.468013,85.4 496.799999,85.9699943 497.832004,87.11 C498.86401,88.2500057 499.164007,89.5759924 498.732004,91.088 L490.056004,91.088 Z M510.864006,94.328 L510.864006,89.684 C510.528004,88.8199957 510.036009,88.1300026 509.388006,87.614 C508.740002,87.0979974 508.020009,86.84 507.228006,86.84 C505.883999,86.84 504.864009,87.3199952 504.168006,88.28 C503.472002,89.2400048 503.124006,90.4759924 503.124006,91.988 C503.124006,93.5240077 503.472002,94.7719952 504.168006,95.732 C504.864009,96.6920048 505.883999,97.172 507.228006,97.172 C508.020009,97.172 508.740002,96.9140026 509.388006,96.398 C510.036009,95.8819974 510.528004,95.1920043 510.864006,94.328 Z M510.864006,87.524 L510.864006,81.656 C510.864006,79.855991 510.690007,78.7040025 510.342006,78.2 C509.994004,77.6959975 509.220012,77.444 508.020006,77.444 L508.020006,76.688 L513.420006,75.788 L513.420006,92.744 C513.420006,94.544009 513.594004,95.6959975 513.942006,96.2 C514.290007,96.7040025 515.064,96.956 516.264006,96.956 L516.264006,97.712 L511.476006,98.612 C511.308005,98.2519982 511.116007,97.5200055 510.900006,96.416 C509.724,97.8800073 508.248014,98.612 506.472006,98.612 C504.767997,98.612 503.298012,97.9640065 502.062006,96.668 C500.825999,95.3719935 500.208006,93.8120091 500.208006,91.988 C500.208006,90.1639909 500.825999,88.6100064 502.062006,87.326 C503.298012,86.0419936 504.767997,85.4 506.472006,85.4 C508.248014,85.4 509.712,86.1079929 510.864006,87.524 Z M522.384008,98 L522.384008,97.244 C523.872015,97.244 524.814006,96.9920025 525.210008,96.488 C525.60601,95.9839975 525.804008,94.832009 525.804008,93.032 L525.804008,81.332 C525.804008,79.531991 525.60601,78.3860025 525.210008,77.894 C524.814006,77.4019975 523.872015,77.156 522.384008,77.156 L522.384008,76.4 L538.800008,76.4 L539.124008,81.152 L538.368008,81.152 L538.188008,80.432 C537.900006,79.3759947 537.51601,78.6620019 537.036008,78.29 C536.556005,77.9179981 535.548015,77.732 534.012008,77.732 L528.684008,77.732 L528.684008,85.904 L530.484008,85.904 C532.284017,85.904 533.430005,85.706002 533.922008,85.31 C534.41401,84.913998 534.660008,83.9600076 534.660008,82.448 L535.416008,82.448 L535.416008,90.692 L534.660008,90.692 C534.660008,89.1799924 534.41401,88.226002 533.922008,87.83 C533.430005,87.433998 532.284017,87.236 530.484008,87.236 L528.684008,87.236 L528.684008,92.492 C528.684008,94.292009 528.882006,95.4379975 529.278008,95.93 C529.67401,96.4220025 530.616,96.668 532.104008,96.668 L535.200008,96.668 C536.280013,96.668 537.102005,96.5600011 537.666008,96.344 C538.230011,96.1279989 538.614007,95.8520017 538.818008,95.516 C539.022009,95.1799983 539.208007,94.6520036 539.376008,93.932 L539.556008,93.212 L540.312008,93.212 L540.024008,98 L522.384008,98 Z M548.772009,98 L540.528009,98 L540.528009,97.244 C541.728015,97.244 542.502007,96.9920025 542.850009,96.488 C543.198011,95.9839975 543.372009,94.832009 543.372009,93.032 L543.372009,81.656 C543.372009,79.855991 543.198011,78.7040025 542.850009,78.2 C542.502007,77.6959975 541.728015,77.444 540.528009,77.444 L540.528009,76.688 L545.928009,75.788 L545.928009,93.032 C545.928009,94.832009 546.102007,95.9839975 546.450009,96.488 C546.798011,96.9920025 547.572003,97.244 548.772009,97.244 L548.772009,98 Z M552.15601,89.756 L558.13201,89.756 C558.372011,89.0839966 558.270012,88.4300032 557.82601,87.794 C557.382008,87.1579968 556.620015,86.84 555.54001,86.84 C554.772006,86.84 554.082013,87.1039974 553.47001,87.632 C552.858007,88.1600026 552.420011,88.8679956 552.15601,89.756 Z M551.94001,91.088 C551.724009,92.8640089 552.006006,94.3099944 552.78601,95.426 C553.566014,96.5420056 554.844001,97.1 556.62001,97.1 C557.220013,97.1 557.904006,96.9440016 558.67201,96.632 C559.440014,96.3199984 560.076007,95.9240024 560.58001,95.444 L561.22801,96.236 C560.580007,96.9320035 559.752015,97.5019978 558.74401,97.946 C557.736005,98.3900022 556.728015,98.612 555.72001,98.612 C553.776,98.612 552.180016,97.9700064 550.93201,96.686 C549.684004,95.4019936 549.06001,93.8360092 549.06001,91.988 C549.06001,90.1399908 549.738003,88.5800064 551.09401,87.308 C552.450017,86.0359936 553.992001,85.4 555.72001,85.4 C557.352018,85.4 558.684005,85.9699943 559.71601,87.11 C560.748015,88.2500057 561.048012,89.5759924 560.61601,91.088 L551.94001,91.088 Z M568.464011,86.552 C567.504006,86.552 566.688014,87.1039945 566.016011,88.208 C565.344008,89.3120055 565.008011,90.6799918 565.008011,92.312 C565.008011,93.8000074 565.374007,94.9699957 566.106011,95.822 C566.838015,96.6740043 567.924004,97.1 569.364011,97.1 C570.756018,97.1 572.040005,96.5480055 573.216011,95.444 L573.828011,96.236 C572.364004,97.8200079 570.576022,98.612 568.464011,98.612 C566.496001,98.612 564.942017,98.0240059 563.802011,96.848 C562.662005,95.6719941 562.092011,94.1600092 562.092011,92.312 C562.092011,90.31999 562.764004,88.6700065 564.108011,87.362 C565.452018,86.0539935 566.904003,85.4 568.464011,85.4 C569.880018,85.4 570.948007,85.6519975 571.668011,86.156 C572.388015,86.6600025 572.748011,87.2719964 572.748011,87.992 C572.748011,88.3760019 572.622012,88.7299984 572.370011,89.054 C572.11801,89.3780016 571.716014,89.54 571.164011,89.54 C570.780009,89.54 570.450012,89.4020014 570.174011,89.126 C569.89801,88.8499986 569.760011,88.508002 569.760011,88.1 C569.760011,87.0679948 569.328015,86.552 568.464011,86.552 Z M575.232012,87.272 L573.360012,87.272 L573.360012,86.408 C574.392017,86.1919989 575.14801,85.7240036 575.628012,85.004 C576.108015,84.2839964 576.420011,83.3000062 576.564012,82.052 L577.788012,82.052 L577.788012,86.012 L580.920012,86.012 L580.920012,87.272 L577.788012,87.272 L577.788012,94.472 C577.788012,96.2000086 578.328007,97.064 579.408012,97.064 C580.104016,97.064 580.884008,96.6560041 581.748012,95.84 L582.360012,96.452 C581.85601,97.052003 581.250016,97.5439981 580.542012,97.928 C579.834009,98.3120019 579.180015,98.504 578.580012,98.504 C577.548007,98.504 576.732015,98.1680034 576.132012,97.496 C575.532009,96.8239966 575.232012,95.8160067 575.232012,94.472 L575.232012,87.272 Z M594.204013,87.632 C594.204013,88.7600056 593.724018,89.324 592.764013,89.324 C592.428012,89.324 592.134015,89.1920013 591.882013,88.928 C591.630012,88.6639987 591.504013,88.3640017 591.504013,88.028 C591.504013,87.235996 591.120017,86.84 590.352013,86.84 C589.800011,86.84 589.200017,87.2239962 588.552013,87.992 C587.90401,88.7600038 587.580013,89.7799936 587.580013,91.052 L587.580013,93.032 C587.580013,94.832009 587.754012,95.9839975 588.102013,96.488 C588.450015,96.9920025 589.224007,97.244 590.424013,97.244 L590.424013,98 L582.180013,98 L582.180013,97.244 C583.380019,97.244 584.154012,96.9920025 584.502013,96.488 C584.850015,95.9839975 585.024013,94.832009 585.024013,93.032 L585.024013,91.232 C585.024013,89.4559911 584.850015,88.3160025 584.502013,87.812 C584.154012,87.3079975 583.380019,87.056 582.180013,87.056 L582.180013,86.3 L586.968013,85.4 C587.184014,85.8560023 587.388012,86.7199936 587.580013,87.992 C587.940015,87.2719964 588.48001,86.6600025 589.200013,86.156 C589.920017,85.6519975 590.64001,85.4 591.360013,85.4 C592.272018,85.4 592.974011,85.6399976 593.466013,86.12 C593.958016,86.6000024 594.204013,87.1039974 594.204013,87.632 Z M606.912014,87.344 C608.352022,88.6160064 609.072014,90.1639909 609.072014,91.988 C609.072014,93.8120091 608.358022,95.3719935 606.930014,96.668 C605.502007,97.9640065 603.792024,98.612 601.800014,98.612 C599.808004,98.612 598.098022,97.9640065 596.670014,96.668 C595.242007,95.3719935 594.528014,93.8120091 594.528014,91.988 C594.528014,90.1639909 595.242007,88.6100064 596.670014,87.326 C598.098022,86.0419936 599.808004,85.4 601.800014,85.4 C603.792024,85.4 605.496007,86.0479935 606.912014,87.344 Z M605.040014,95.768 C605.784018,94.7839951 606.156014,93.5240077 606.156014,91.988 C606.156014,90.4519923 605.784018,89.1980049 605.040014,88.226 C604.296011,87.2539951 603.216021,86.768 601.800014,86.768 C600.384007,86.768 599.304018,87.2599951 598.560014,88.244 C597.816011,89.2280049 597.444014,90.4759924 597.444014,91.988 C597.444014,93.5000076 597.816011,94.7479951 598.560014,95.732 C599.304018,96.7160049 600.384007,97.208 601.800014,97.208 C603.216021,97.208 604.296011,96.7280048 605.040014,95.768 Z M615.408015,87.992 C616.776022,86.2639914 618.444006,85.4 620.412015,85.4 C621.972023,85.4 623.142012,85.8919951 623.922015,86.876 C624.702019,87.8600049 625.092015,89.155992 625.092015,90.764 L625.092015,93.032 C625.092015,94.832009 625.266014,95.9839975 625.614015,96.488 C625.962017,96.9920025 626.736009,97.244 627.936015,97.244 L627.936015,98 L619.692015,98 L619.692015,97.244 C620.868021,97.244 621.636014,96.9860026 621.996015,96.47 C622.356017,95.9539974 622.536015,94.8080089 622.536015,93.032 L622.536015,90.944 C622.536015,88.3759872 621.540025,87.092 619.548015,87.092 C618.51601,87.092 617.56802,87.4519964 616.704015,88.172 C615.840011,88.8920036 615.408015,89.7319952 615.408015,90.692 L615.408015,93.032 C615.408015,94.8800092 615.552014,96.0439976 615.840015,96.524 C616.128017,97.0040024 616.82401,97.244 617.928015,97.244 L617.928015,98 L610.008015,98 L610.008015,97.244 C611.208021,97.244 611.982014,96.9920025 612.330015,96.488 C612.678017,95.9839975 612.852015,94.832009 612.852015,93.032 L612.852015,91.232 C612.852015,89.4559911 612.678017,88.3160025 612.330015,87.812 C611.982014,87.3079975 611.208021,87.056 610.008015,87.056 L610.008015,86.3 L614.796015,85.4 C615.012017,85.8560023 615.216015,86.7199936 615.408015,87.992 Z" id="Shared-Electron-Copy" fill="#524740"></path>
            <path d="M432.996,146.92 C432.443997,147.376002 432.096001,147.939997 431.952,148.612 L431.232,148.612 L431.232,140.692 L431.988,140.692 C431.988,140.788 431.994,140.913999 432.006,141.07 C432.018,141.226001 432.066,141.525998 432.15,141.97 C432.234,142.414002 432.353999,142.839998 432.51,143.248 C432.666001,143.656002 432.911998,144.111997 433.248,144.616 C433.584002,145.120003 433.973998,145.551998 434.418,145.912 C434.862002,146.272002 435.449996,146.571999 436.182,146.812 C436.914004,147.052001 437.723996,147.172 438.612,147.172 C439.908006,147.172 440.981996,146.800004 441.834,146.056 C442.686004,145.311996 443.112,144.364006 443.112,143.212 C443.112,141.747993 441.732014,140.296007 438.972,138.856 L435.516,137.092 C434.387994,136.491997 433.440004,135.676005 432.672,134.644 C431.903996,133.611995 431.52,132.448006 431.52,131.152 C431.52,129.639992 432.083994,128.368005 433.212,127.336 C434.340006,126.303995 435.767991,125.788 437.496,125.788 C439.080008,125.788 440.543993,126.279995 441.888,127.264 C442.440003,126.807998 442.787999,126.256003 442.932,125.608 L443.652,125.608 L443.652,133.528 L442.896,133.528 C442.535998,129.327979 440.700017,127.228 437.388,127.228 C436.379995,127.228 435.546003,127.533997 434.886,128.146 C434.225997,128.758003 433.896,129.519995 433.896,130.432 C433.896,131.320004 434.213997,132.069997 434.85,132.682 C435.486003,133.294003 436.631992,134.031996 438.288,134.896 L441.708,136.66 C444.228013,137.932006 445.488,139.755988 445.488,142.132 C445.488,144.05201 444.822007,145.611994 443.49,146.812 C442.157993,148.012006 440.53201,148.612 438.612,148.612 C437.795996,148.612 437.016004,148.492001 436.272,148.252 C435.527996,148.011999 434.856003,147.742002 434.256,147.442 C433.655997,147.141998 433.236001,146.968 432.996,146.92 Z M454.704001,148 L446.460001,148 L446.460001,147.244 C447.660007,147.244 448.433999,146.992003 448.782001,146.488 C449.130003,145.983997 449.304001,144.832009 449.304001,143.032 L449.304001,141.232 C449.304001,139.455991 449.130003,138.316003 448.782001,137.812 C448.433999,137.307997 447.660007,137.056 446.460001,137.056 L446.460001,136.3 L451.860001,135.4 L451.860001,143.032 C451.860001,144.832009 452.033999,145.983997 452.382001,146.488 C452.730003,146.992003 453.503995,147.244 454.704001,147.244 L454.704001,148 Z M452.148001,130.252 C452.148001,130.708002 451.992003,131.091998 451.680001,131.404 C451.368,131.716002 450.996003,131.872 450.564001,131.872 C450.131999,131.872 449.760003,131.716002 449.448001,131.404 C449.136,131.091998 448.980001,130.708002 448.980001,130.252 C448.980001,129.819998 449.136,129.448002 449.448001,129.136 C449.760003,128.823998 450.131999,128.668 450.564001,128.668 C450.996003,128.668 451.368,128.823998 451.680001,129.136 C451.992003,129.448002 452.148001,129.819998 452.148001,130.252 Z M462.156002,148 L453.912002,148 L453.912002,147.244 C455.112008,147.244 455.886,146.992003 456.234002,146.488 C456.582004,145.983997 456.756002,144.832009 456.756002,143.032 L456.756002,131.656 C456.756002,129.855991 456.582004,128.704003 456.234002,128.2 C455.886,127.695997 455.112008,127.444 453.912002,127.444 L453.912002,126.688 L459.312002,125.788 L459.312002,143.032 C459.312002,144.832009 459.486,145.983997 459.834002,146.488 C460.182004,146.992003 460.955996,147.244 462.156002,147.244 L462.156002,148 Z M470.328003,148 L462.084003,148 L462.084003,147.244 C463.284009,147.244 464.058002,146.992003 464.406003,146.488 C464.754005,145.983997 464.928003,144.832009 464.928003,143.032 L464.928003,141.232 C464.928003,139.455991 464.754005,138.316003 464.406003,137.812 C464.058002,137.307997 463.284009,137.056 462.084003,137.056 L462.084003,136.3 L467.484003,135.4 L467.484003,143.032 C467.484003,144.832009 467.658002,145.983997 468.006003,146.488 C468.354005,146.992003 469.127997,147.244 470.328003,147.244 L470.328003,148 Z M467.772003,130.252 C467.772003,130.708002 467.616005,131.091998 467.304003,131.404 C466.992002,131.716002 466.620005,131.872 466.188003,131.872 C465.756001,131.872 465.384005,131.716002 465.072003,131.404 C464.760002,131.091998 464.604003,130.708002 464.604003,130.252 C464.604003,129.819998 464.760002,129.448002 465.072003,129.136 C465.384005,128.823998 465.756001,128.668 466.188003,128.668 C466.620005,128.668 466.992002,128.823998 467.304003,129.136 C467.616005,129.448002 467.772003,129.819998 467.772003,130.252 Z M476.952004,136.552 C475.992,136.552 475.176008,137.103994 474.504004,138.208 C473.832001,139.312006 473.496004,140.679992 473.496004,142.312 C473.496004,143.800007 473.862001,144.969996 474.594004,145.822 C475.326008,146.674004 476.411997,147.1 477.852004,147.1 C479.244011,147.1 480.527999,146.548006 481.704004,145.444 L482.316004,146.236 C480.851997,147.820008 479.064015,148.612 476.952004,148.612 C474.983995,148.612 473.43001,148.024006 472.290004,146.848 C471.149999,145.671994 470.580004,144.160009 470.580004,142.312 C470.580004,140.31999 471.251998,138.670007 472.596004,137.362 C473.940011,136.053993 475.391997,135.4 476.952004,135.4 C478.368012,135.4 479.436001,135.651997 480.156004,136.156 C480.876008,136.660003 481.236004,137.271996 481.236004,137.992 C481.236004,138.376002 481.110006,138.729998 480.858004,139.054 C480.606003,139.378002 480.204007,139.54 479.652004,139.54 C479.268003,139.54 478.938006,139.402001 478.662004,139.126 C478.386003,138.849999 478.248004,138.508002 478.248004,138.1 C478.248004,137.067995 477.816009,136.552 476.952004,136.552 Z M494.952006,137.344 C496.392013,138.616006 497.112006,140.163991 497.112006,141.988 C497.112006,143.812009 496.398013,145.371994 494.970006,146.668 C493.541998,147.964006 491.832015,148.612 489.840006,148.612 C487.847996,148.612 486.138013,147.964006 484.710006,146.668 C483.281998,145.371994 482.568006,143.812009 482.568006,141.988 C482.568006,140.163991 483.281998,138.610006 484.710006,137.326 C486.138013,136.041994 487.847996,135.4 489.840006,135.4 C491.832015,135.4 493.535998,136.047994 494.952006,137.344 Z M493.080006,145.768 C493.824009,144.783995 494.196006,143.524008 494.196006,141.988 C494.196006,140.451992 493.824009,139.198005 493.080006,138.226 C492.336002,137.253995 491.256013,136.768 489.840006,136.768 C488.423998,136.768 487.344009,137.259995 486.600006,138.244 C485.856002,139.228005 485.484006,140.475992 485.484006,141.988 C485.484006,143.500008 485.856002,144.747995 486.600006,145.732 C487.344009,146.716005 488.423998,147.208 489.840006,147.208 C491.256013,147.208 492.336002,146.728005 493.080006,145.768 Z M503.448007,137.992 C504.816013,136.263991 506.483997,135.4 508.452007,135.4 C510.012014,135.4 511.182003,135.891995 511.962007,136.876 C512.742011,137.860005 513.132007,139.155992 513.132007,140.764 L513.132007,143.032 C513.132007,144.832009 513.306005,145.983997 513.654007,146.488 C514.002008,146.992003 514.776001,147.244 515.976007,147.244 L515.976007,148 L507.732007,148 L507.732007,147.244 C508.908013,147.244 509.676005,146.986003 510.036007,146.47 C510.396008,145.953997 510.576007,144.808009 510.576007,143.032 L510.576007,140.944 C510.576007,138.375987 509.580017,137.092 507.588007,137.092 C506.556001,137.092 505.608011,137.451996 504.744007,138.172 C503.880002,138.892004 503.448007,139.731995 503.448007,140.692 L503.448007,143.032 C503.448007,144.880009 503.592005,146.043998 503.880007,146.524 C504.168008,147.004002 504.864001,147.244 505.968007,147.244 L505.968007,148 L498.048007,148 L498.048007,147.244 C499.248013,147.244 500.022005,146.992003 500.370007,146.488 C500.718008,145.983997 500.892007,144.832009 500.892007,143.032 L500.892007,141.232 C500.892007,139.455991 500.718008,138.316003 500.370007,137.812 C500.022005,137.307997 499.248013,137.056 498.048007,137.056 L498.048007,136.3 L502.836007,135.4 C503.052008,135.856002 503.256006,136.719994 503.448007,137.992 Z M526.704009,140.512 L524.976009,144.508 C524.520007,145.492005 524.502007,146.193998 524.922009,146.614 C525.342011,147.034002 526.296001,147.244 527.784009,147.244 L527.784009,148 L519.360009,148 L519.360009,147.244 C520.128013,147.244 520.722007,147.214 521.142009,147.154 C521.562011,147.094 521.934007,146.902002 522.258009,146.578 C522.58201,146.253998 522.810008,145.960001 522.942009,145.696 C523.07401,145.431999 523.320007,144.904004 523.680009,144.112 L531.600009,125.788 L532.068009,125.788 L540.024009,144.112 C540.384011,144.904004 540.630008,145.431999 540.762009,145.696 C540.89401,145.960001 541.122007,146.253998 541.446009,146.578 C541.77001,146.902002 542.136007,147.094 542.544009,147.154 C542.952011,147.214 543.540005,147.244 544.308009,147.244 L544.308009,148 L534.336009,148 L534.336009,147.244 C535.824016,147.244 536.772007,147.034002 537.180009,146.614 C537.588011,146.193998 537.576011,145.492005 537.144009,144.508 L535.416009,140.512 L526.704009,140.512 Z M534.804009,139.18 L531.024009,130.504 L527.280009,139.18 L534.804009,139.18 Z M543.66001,137.272 L541.78801,137.272 L541.78801,136.408 C542.820015,136.191999 543.576008,135.724004 544.05601,135.004 C544.536012,134.283996 544.848009,133.300006 544.99201,132.052 L546.21601,132.052 L546.21601,136.012 L549.34801,136.012 L549.34801,137.272 L546.21601,137.272 L546.21601,144.472 C546.21601,146.200009 546.756005,147.064 547.83601,147.064 C548.532013,147.064 549.312006,146.656004 550.17601,145.84 L550.78801,146.452 C550.284007,147.052003 549.678013,147.543998 548.97001,147.928 C548.262006,148.312002 547.608013,148.504 547.00801,148.504 C545.976005,148.504 545.160013,148.168003 544.56001,147.496 C543.960007,146.823997 543.66001,145.816007 543.66001,144.472 L543.66001,137.272 Z M563.352011,137.344 C564.792018,138.616006 565.512011,140.163991 565.512011,141.988 C565.512011,143.812009 564.798018,145.371994 563.370011,146.668 C561.942004,147.964006 560.232021,148.612 558.240011,148.612 C556.248001,148.612 554.538018,147.964006 553.110011,146.668 C551.682004,145.371994 550.968011,143.812009 550.968011,141.988 C550.968011,140.163991 551.682004,138.610006 553.110011,137.326 C554.538018,136.041994 556.248001,135.4 558.240011,135.4 C560.232021,135.4 561.936004,136.047994 563.352011,137.344 Z M561.480011,145.768 C562.224015,144.783995 562.596011,143.524008 562.596011,141.988 C562.596011,140.451992 562.224015,139.198005 561.480011,138.226 C560.736007,137.253995 559.656018,136.768 558.240011,136.768 C556.824004,136.768 555.744015,137.259995 555.000011,138.244 C554.256007,139.228005 553.884011,140.475992 553.884011,141.988 C553.884011,143.500008 554.256007,144.747995 555.000011,145.732 C555.744015,146.716005 556.824004,147.208 558.240011,147.208 C559.656018,147.208 560.736007,146.728005 561.480011,145.768 Z M580.668012,140.692 L580.668012,143.032 C580.668012,144.928009 580.794011,146.103998 581.046012,146.56 C581.298013,147.016002 581.928007,147.244 582.936012,147.244 L582.936012,148 L575.880012,148 L575.880012,147.244 C576.888017,147.244 577.518011,147.016002 577.770012,146.56 C578.022013,146.103998 578.148012,144.928009 578.148012,143.032 L578.148012,140.944 C578.148012,138.375987 577.284021,137.092 575.556012,137.092 C574.812008,137.092 574.008016,137.439997 573.144012,138.136 C572.280008,138.832003 571.848012,139.683995 571.848012,140.692 L571.848012,143.032 C571.848012,144.904009 571.974011,146.073998 572.226012,146.542 C572.478013,147.010002 573.096007,147.244 574.080012,147.244 L574.080012,148 L566.448012,148 L566.448012,147.244 C567.648018,147.244 568.42201,146.992003 568.770012,146.488 C569.118014,145.983997 569.292012,144.832009 569.292012,143.032 L569.292012,141.232 C569.292012,139.455991 569.118014,138.316003 568.770012,137.812 C568.42201,137.307997 567.648018,137.056 566.448012,137.056 L566.448012,136.3 L571.236012,135.4 C571.452013,135.856002 571.656011,136.719994 571.848012,137.992 C573.216019,136.263991 574.776003,135.4 576.528012,135.4 C578.520022,135.4 579.792009,136.299991 580.344012,138.1 C580.824015,137.427997 581.538007,136.810003 582.486012,136.246 C583.434017,135.681997 584.400007,135.4 585.384012,135.4 C588.144026,135.4 589.524012,137.187982 589.524012,140.764 L589.524012,143.032 C589.524012,144.832009 589.69801,145.983997 590.046012,146.488 C590.394014,146.992003 591.168006,147.244 592.368012,147.244 L592.368012,148 L584.736012,148 L584.736012,147.244 C585.744017,147.244 586.368011,147.016002 586.608012,146.56 C586.848013,146.103998 586.968012,144.928009 586.968012,143.032 L586.968012,140.944 C586.968012,138.375987 586.116021,137.092 584.412012,137.092 C583.668008,137.092 582.858017,137.439997 581.982012,138.136 C581.106008,138.832003 580.668012,139.683995 580.668012,140.692 Z" id="Silicon-Atom-Copy" fill="#524740"></path>
        </g>
        <text id="Silicon-Crystal" font-family="Wavehaus-66Book, Wavehaus" font-size="36" font-weight="300" letter-spacing="-2.15999937" fill="#23ABE3">
            <tspan x="13" y="44">Silicon Crystal</tspan>
        </text>
    </g>
</svg>