<?xml version="1.0" encoding="UTF-8"?>
<svg width="900px" height="211px" viewBox="0 0 900 211" version="1.1" xmlns="http://www.w3.org/2000/svg" xmlns:xlink="http://www.w3.org/1999/xlink">
    <!-- Generator: Sketch 52.5 (67469) - http://www.bohemiancoding.com/sketch -->
    <title>Single_LED_Circuit</title>
    <desc>Created with Sketch.</desc>
    <g id="Single_LED_Circuit" stroke="none" stroke-width="1" fill="none" fill-rule="evenodd">
        <rect id="Rectangle" stroke="#3D3530" stroke-width="2" fill="#EEEEEE" x="1" y="1" width="898" height="408"></rect>
        <text id="Single-LED-Circuit" font-family="Wavehaus-66Book, Wavehaus" font-size="24" font-weight="300" letter-spacing="0.666666687" fill="#23ABE3">
            <tspan x="675.352" y="195">Single LED Circuit</tspan>
        </text>
        <path d="M681.928,195.192 C680.855994,195.192 679.820005,194.920003 678.82,194.376 C677.819995,193.831997 677.064002,193.288003 676.552,192.744 L677.656,191.664 C678.056002,192.096002 678.647996,192.539998 679.432,192.996 C680.216004,193.452002 681.047995,193.68 681.928,193.68 C683.000005,193.68 683.843997,193.444002 684.46,192.972 C685.076003,192.499998 685.384,191.856004 685.384,191.04 C685.384,190.351997 685.084003,189.752003 684.484,189.24 C683.883997,188.727997 683.156004,188.296002 682.3,187.944 C681.443995,187.591998 680.584004,187.220002 679.72,186.828 C678.855995,186.435998 678.124003,185.904003 677.524,185.232 C676.923997,184.559997 676.624,183.768005 676.624,182.856 C676.624,181.687994 677.063995,180.704004 677.944,179.904 C678.824004,179.103996 680.055992,178.704 681.64,178.704 C682.712005,178.704 683.747995,178.975997 684.748,179.52 C685.748005,180.064003 686.503997,180.607997 687.016,181.152 L685.912,182.232 C685.495998,181.783998 684.896004,181.336002 684.112,180.888 C683.327996,180.439998 682.504004,180.216 681.64,180.216 C680.567994,180.216 679.724003,180.451998 679.108,180.924 C678.491997,181.396002 678.184,182.039996 678.184,182.856 C678.184,183.544003 678.483997,184.147997 679.084,184.668 C679.684003,185.188003 680.411995,185.623998 681.268,185.976 C682.124004,186.328002 682.983995,186.695998 683.848,187.08 C684.712004,187.464002 685.443997,187.991997 686.044,188.664 C686.644003,189.336003 686.944,190.127995 686.944,191.04 C686.944,192.208006 686.504004,193.191996 685.624,193.992 C684.743995,194.792004 683.512008,195.192 681.928,195.192 Z M692.266666,179.4 C692.090665,179.592001 691.866668,179.688 691.594666,179.688 C691.322665,179.688 691.094667,179.592001 690.910666,179.4 C690.726665,179.207999 690.634666,178.984001 690.634666,178.728 C690.634666,178.471999 690.726665,178.248001 690.910666,178.056 C691.094667,177.863999 691.322665,177.768 691.594666,177.768 C691.866668,177.768 692.094665,177.863999 692.278666,178.056 C692.462667,178.248001 692.554666,178.471999 692.554666,178.728 C692.554666,178.984001 692.458667,179.207999 692.266666,179.4 Z M690.802666,195 L690.802666,183 L692.386666,183 L692.386666,195 L690.802666,195 Z M702.149333,182.808 C703.54134,182.808 704.709328,183.299995 705.653333,184.284 C706.597338,185.268005 707.069333,186.479993 707.069333,187.92 L707.069333,195 L705.461333,195 L705.461333,187.968 C705.461333,186.943995 705.113336,186.072004 704.417333,185.352 C703.72133,184.631996 702.877338,184.272 701.885333,184.272 C700.893328,184.272 700.049336,184.631996 699.353333,185.352 C698.65733,186.072004 698.309333,186.943995 698.309333,187.968 L698.309333,195 L696.725333,195 L696.725333,183 L698.309333,183 L698.309333,184.776 C699.285338,183.463993 700.565325,182.808 702.149333,182.808 Z M721.008,183.024 L722.616,183.024 L722.616,193.968 C722.6,195.712009 721.972006,197.171994 720.732,198.348 C719.491994,199.524006 718.056008,200.112 716.424,200.112 C714.935992,200.112 713.668005,199.716004 712.62,198.924 C711.571994,198.131996 710.864002,197.240005 710.496,196.248 L711.792,195.6 C712.096001,196.416004 712.671995,197.127997 713.52,197.736 C714.368004,198.344003 715.335994,198.648 716.424,198.648 C717.704006,198.648 718.787995,198.180005 719.676,197.244 C720.564004,196.307995 721.016,195.216006 721.032,193.968 L721.008,193.968 L721.008,193.08 C719.791994,194.504007 718.232009,195.216 716.328,195.216 C714.615991,195.216 713.156006,194.612006 711.948,193.404 C710.739994,192.195994 710.136,190.736009 710.136,189.024 C710.136,187.311991 710.739994,185.852006 711.948,184.644 C713.156006,183.435994 714.615991,182.832 716.328,182.832 C718.216009,182.832 719.775994,183.543993 721.008,184.968 L721.008,183.024 Z M716.352,193.728 C717.648006,193.728 718.739995,193.276005 719.628,192.372 C720.516004,191.467995 720.96,190.360007 720.96,189.048 C720.96,187.735993 720.516004,186.628005 719.628,185.724 C718.739995,184.819995 717.648006,184.368 716.352,184.368 C715.071993,184.368 713.984004,184.819995 713.088,185.724 C712.191995,186.628005 711.744,187.735993 711.744,189.048 C711.744,190.360007 712.191995,191.467995 713.088,192.372 C713.984004,193.276005 715.071993,193.728 716.352,193.728 Z M726.786666,195 L726.786666,177.144 L728.370666,177.144 L728.370666,195 L726.786666,195 Z M737.797333,193.608 C738.869338,193.608 739.829329,193.304003 740.677333,192.696 C741.525337,192.087997 742.101332,191.376004 742.405333,190.56 L743.749333,191.04 C743.381331,192.048005 742.665338,192.975996 741.601333,193.824 C740.537328,194.672004 739.26934,195.088 737.797333,195.072 C736.453326,195.072 735.225339,194.656004 734.113333,193.824 C733.001328,192.991996 732.245335,191.928006 731.845333,190.632 C731.685332,190.103997 731.605333,189.528003 731.605333,188.904 C731.605333,187.175991 732.205327,185.712006 733.405333,184.512 C734.605339,183.311994 736.069324,182.704 737.797333,182.688 C739.365341,182.704 740.733327,183.231995 741.901333,184.272 C743.069339,185.312005 743.741332,186.599992 743.917333,188.136 C743.933333,188.216 743.941333,188.319999 743.941333,188.448 L733.453333,190.344 C733.725334,191.304005 734.269329,192.091997 735.085333,192.708 C735.901337,193.324003 736.805328,193.624 737.797333,193.608 Z M737.653333,184.152 C736.453327,184.168 735.425337,184.599996 734.569333,185.448 C733.713329,186.296004 733.253333,187.311994 733.189333,188.496 C733.189333,188.544 733.193333,188.627999 733.201333,188.748 C733.209333,188.868001 733.213333,188.968 733.213333,189.048 L742.141333,187.44 C741.837332,186.463995 741.269337,185.668003 740.437333,185.052 C739.605329,184.435997 738.677338,184.136 737.653333,184.152 Z M756.266666,193.416 L763.610666,193.416 L763.610666,195 L754.682666,195 L754.682666,178.872 L756.266666,178.872 L756.266666,193.416 Z M776.829333,180.456 L767.829333,180.456 L767.829333,186 L772.893333,186 L772.893333,187.584 L767.829333,187.584 L767.829333,193.416 L776.829333,193.416 L776.829333,195 L766.245333,195 L766.245333,178.872 L776.829333,178.872 L776.829333,180.456 Z M780.664,195 L780.664,178.872 L784.312,178.872 C786.968013,178.872 789.079992,179.639992 790.648,181.176 C792.216008,182.712008 793,184.631988 793,186.936 C793,189.224011 792.212008,191.139992 790.636,192.684 C789.059992,194.228008 786.952013,195 784.312,195 L780.664,195 Z M782.248,193.488 L784.312,193.488 C786.42401,193.488 788.111994,192.868006 789.376,191.628 C790.640006,190.387994 791.272,188.824009 791.272,186.936 C791.272,185.047991 790.640006,183.484006 789.376,182.244 C788.111994,181.003994 786.42401,180.384 784.312,180.384 L782.248,180.384 L782.248,193.488 Z M810.869333,195.192 C808.501321,195.192 806.61334,194.404008 805.205333,192.828 C803.797326,191.251992 803.093333,189.296012 803.093333,186.96 C803.093333,184.607988 803.797326,182.644008 805.205333,181.068 C806.61334,179.491992 808.501321,178.704 810.869333,178.704 C812.437341,178.704 813.801327,179.063996 814.961333,179.784 C816.121339,180.504004 817.02133,181.487994 817.661333,182.736 L816.173333,183.6 C815.661331,182.559995 814.945338,181.736003 814.025333,181.128 C813.105329,180.519997 812.053339,180.216 810.869333,180.216 C809.045324,180.216 807.585339,180.851994 806.489333,182.124 C805.393328,183.396006 804.845333,185.00799 804.845333,186.96 C804.845333,188.89601 805.393328,190.503994 806.489333,191.784 C807.585339,193.064006 809.045324,193.704 810.869333,193.704 C812.069339,193.704 813.129329,193.396003 814.049333,192.78 C814.969338,192.163997 815.677331,191.336005 816.173333,190.296 L817.661333,191.184 C817.02133,192.432006 816.121339,193.411996 814.961333,194.124 C813.801327,194.836004 812.437341,195.192 810.869333,195.192 Z M822.84,179.4 C822.663999,179.592001 822.440001,179.688 822.168,179.688 C821.895999,179.688 821.668001,179.592001 821.484,179.4 C821.299999,179.207999 821.208,178.984001 821.208,178.728 C821.208,178.471999 821.299999,178.248001 821.484,178.056 C821.668001,177.863999 821.895999,177.768 822.168,177.768 C822.440001,177.768 822.667999,177.863999 822.852,178.056 C823.036001,178.248001 823.128,178.471999 823.128,178.728 C823.128,178.984001 823.032001,179.207999 822.84,179.4 Z M821.376,195 L821.376,183 L822.96,183 L822.96,195 L821.376,195 Z M832.722667,182.808 C833.570671,182.808 834.346663,183.015998 835.050667,183.432 L834.498667,185.016 C833.826663,184.519998 833.14667,184.272 832.458667,184.272 C831.450662,184.272 830.60267,184.627996 829.914667,185.34 C829.226663,186.052004 828.882667,186.927995 828.882667,187.968 L828.882667,195 L827.298667,195 L827.298667,183 L828.882667,183 L828.882667,184.776 C829.858671,183.463993 831.138659,182.808 832.722667,182.808 Z M842.365333,195.192 C840.653325,195.192 839.193339,194.588006 837.985333,193.38 C836.777327,192.171994 836.173333,190.712009 836.173333,189 C836.173333,187.287991 836.777327,185.828006 837.985333,184.62 C839.193339,183.411994 840.653325,182.808 842.365333,182.808 C843.453339,182.808 844.465329,183.075997 845.401333,183.612 C846.337338,184.148003 847.077331,184.863996 847.621333,185.76 L846.181333,186.456 C845.749331,185.799997 845.197337,185.280002 844.525333,184.896 C843.85333,184.511998 843.133337,184.32 842.365333,184.32 C841.069327,184.32 839.977338,184.771995 839.089333,185.676 C838.201329,186.580005 837.757333,187.687993 837.757333,189 C837.757333,190.312007 838.201329,191.419995 839.089333,192.324 C839.977338,193.228005 841.069327,193.68 842.365333,193.68 C843.133337,193.68 843.85333,193.488002 844.525333,193.104 C845.197337,192.719998 845.749331,192.200003 846.181333,191.544 L847.621333,192.24 C847.077331,193.136004 846.337338,193.851997 845.401333,194.388 C844.465329,194.924003 843.453339,195.192 842.365333,195.192 Z M859.664,183 L861.248,183 L861.248,195 L859.664,195 L859.664,193.224 C858.687995,194.536007 857.408008,195.192 855.824,195.192 C854.431993,195.192 853.264005,194.700005 852.32,193.716 C851.375995,192.731995 850.904,191.520007 850.904,190.08 L850.904,183 L852.536,183 L852.536,190.032 C852.536,191.056005 852.879997,191.923996 853.568,192.636 C854.256003,193.348004 855.095995,193.704 856.088,193.704 C857.096005,193.704 857.943997,193.348004 858.632,192.636 C859.320003,191.923996 859.664,191.056005 859.664,190.032 L859.664,183 Z M867.050667,179.4 C866.874666,179.592001 866.650668,179.688 866.378667,179.688 C866.106665,179.688 865.878668,179.592001 865.694667,179.4 C865.510666,179.207999 865.418667,178.984001 865.418667,178.728 C865.418667,178.471999 865.510666,178.248001 865.694667,178.056 C865.878668,177.863999 866.106665,177.768 866.378667,177.768 C866.650668,177.768 866.878666,177.863999 867.062667,178.056 C867.246668,178.248001 867.338667,178.471999 867.338667,178.728 C867.338667,178.984001 867.242668,179.207999 867.050667,179.4 Z M865.586667,195 L865.586667,183 L867.170667,183 L867.170667,195 L865.586667,195 Z M877.653333,192.312 L878.445333,193.536 C878.349333,193.664001 878.221334,193.815999 878.061333,193.992 C877.901333,194.168001 877.541336,194.411998 876.981333,194.724 C876.421331,195.036002 875.845336,195.192 875.253333,195.192 C874.245328,195.192 873.401337,194.892003 872.721333,194.292 C872.04133,193.691997 871.701333,192.824006 871.701333,191.688 L871.701333,184.44 L869.781333,184.44 L869.781333,182.976 L871.701333,182.976 L871.701333,179.184 L873.285333,178.992 L873.285333,182.976 L876.909333,182.976 L876.909333,184.44 L873.285333,184.44 L873.285333,191.328 C873.285333,192.064004 873.513331,192.647998 873.969333,193.08 C874.425336,193.512002 874.94933,193.728 875.541333,193.728 C875.909335,193.728 876.269332,193.616001 876.621333,193.392 C876.973335,193.167999 877.233332,192.948001 877.401333,192.732 C877.569334,192.515999 877.653333,192.376 877.653333,192.312 Z" id="Single-LED-Circuit-Copy" fill="#23ABE3"></path>
        <rect id="Rectangle-Copy" stroke="#3D3530" stroke-width="2" x="1" y="167" width="898" height="43"></rect>
        <g id="Circuit" transform="translate(220.000000, 27.000000)">
            <g id="LED" transform="translate(229.500000, 63.000000) rotate(-270.000000) translate(-229.500000, -63.000000) translate(194.500000, 35.500000)">
                <polygon id="Path-2" fill="#3D3530" points="24.5 29 44 42 24.5 55"></polygon>
                <path d="M44,42 L70,42" id="Path-2-Copy" stroke="#3D3530" stroke-width="3"></path>
                <path d="M44,29 L44,55" id="Path-4-Copy" stroke="#3D3530" stroke-width="3"></path>
                <path d="M0,42 L24.5,42" id="Path-3" stroke="#3D3530" stroke-width="3"></path>
                <g id="Arrow" transform="translate(43.647114, 19.941343) rotate(-150.000000) translate(-43.647114, -19.941343) translate(39.147114, 6.441343)">
                    <polygon id="Triangle" fill="#3D3530" transform="translate(4.633975, 19.633975) scale(1, -1) translate(-4.633975, -19.633975) " points="4.6339746 13.1339746 8.6339746 26.1339746 0.633974596 26.1339746"></polygon>
                    <path d="M4.5,0 L4.5,20" id="Path-3" stroke="#3D3530" stroke-width="3"></path>
                </g>
                <g id="Arrow" transform="translate(33.647114, 13.941343) rotate(-150.000000) translate(-33.647114, -13.941343) translate(29.147114, 0.441343)">
                    <polygon id="Triangle" fill="#3D3530" transform="translate(4.633975, 19.633975) scale(1, -1) translate(-4.633975, -19.633975) " points="4.6339746 13.1339746 8.6339746 26.1339746 0.633974596 26.1339746"></polygon>
                    <path d="M4.5,1.13686838e-13 L4.5,20" id="Path-3" stroke="#3D3530" stroke-width="3"></path>
                </g>
            </g>
            <g id="Power" transform="translate(0.000000, 23.000000)"></g>
            <g id="DC_Power" transform="translate(40.000000, 23.000000)">
                <circle id="Oval" stroke="#3D3530" stroke-width="3" cx="40" cy="40" r="40"></circle>
                <g id="+" transform="translate(36.000000, 11.000000)" stroke="#3D3530" stroke-width="2">
                    <path d="M4,4 L0,4 L4,4 L4,8 L4,4 Z M4,4 L8,4 L4,4 L4,0 L4,4 Z" id="Combined-Shape"></path>
                </g>
                <g id="-" transform="translate(36.000000, 66.000000)" stroke="#3D3530" stroke-width="2">
                    <path d="M0,1 L8,1" id="Path"></path>
                </g>
                <path d="M102.196,33.104 C101.251995,33.104 100.640001,33.2199988 100.36,33.452 C100.079999,33.6840012 99.740002,34.2639954 99.34,35.192 L94.06,47.408 L93.748,47.408 L88.444,35.192 C88.043998,34.2639954 87.7040014,33.6840012 87.424,33.452 C87.1439986,33.2199988 86.5320047,33.104 85.588,33.104 L85.588,32.6 L92.236,32.6 L92.236,33.104 C91.243995,33.104 90.6080014,33.2439986 90.328,33.524 C90.0479986,33.8040014 90.0599985,34.2719967 90.364,34.928 L94.444,44.264 L98.476,34.928 C98.7800015,34.2719967 98.7920014,33.8040014 98.512,33.524 C98.2319986,33.2439986 97.596005,33.104 96.604,33.104 L96.604,32.6 L102.196,32.6 L102.196,33.104 Z M105.172,55.28 C104.803998,55.5840015 104.572,55.9599978 104.476,56.408 L103.996,56.408 L103.996,51.128 L104.5,51.128 C104.5,51.1920003 104.504,51.2759995 104.512,51.38 C104.52,51.4840005 104.552,51.6839985 104.608,51.98 C104.664,52.2760015 104.743999,52.5599986 104.848,52.832 C104.952001,53.1040014 105.115999,53.4079983 105.34,53.744 C105.564001,54.0800017 105.823999,54.3679988 106.12,54.608 C106.416001,54.8480012 106.807998,55.0479992 107.296,55.208 C107.784002,55.3680008 108.323997,55.448 108.916,55.448 C109.780004,55.448 110.495997,55.2000025 111.064,54.704 C111.632003,54.2079975 111.916,53.5760038 111.916,52.808 C111.916,51.8319951 110.996009,50.8640048 109.156,49.904 L106.852,48.728 C106.099996,48.327998 105.468003,47.7840034 104.956,47.096 C104.443997,46.4079966 104.188,45.6320043 104.188,44.768 C104.188,43.759995 104.563996,42.9120034 105.316,42.224 C106.068004,41.5359966 107.019994,41.192 108.172,41.192 C109.228005,41.192 110.203996,41.5199967 111.1,42.176 C111.468002,41.8719985 111.7,41.5040022 111.796,41.072 L112.276,41.072 L112.276,46.352 L111.772,46.352 C111.531999,43.551986 110.308011,42.152 108.1,42.152 C107.427997,42.152 106.872002,42.355998 106.432,42.764 C105.991998,43.172002 105.772,43.679997 105.772,44.288 C105.772,44.880003 105.983998,45.379998 106.408,45.788 C106.832002,46.196002 107.595994,46.6879971 108.7,47.264 L110.98,48.44 C112.660008,49.2880042 113.5,50.5039921 113.5,52.088 C113.5,53.3680064 113.056004,54.407996 112.168,55.208 C111.279996,56.008004 110.196006,56.408 108.916,56.408 C108.371997,56.408 107.852002,56.3280008 107.356,56.168 C106.859998,56.0079992 106.412002,55.828001 106.012,55.628 C105.611998,55.427999 105.332001,55.3120002 105.172,55.28 Z" id="VS-Copy" fill="#524740"></path>
            </g>
            <g id="Wiring" transform="translate(80.000000, 0.000000)" stroke="#3D3530">
                <polyline id="Resistor" stroke-width="3" stroke-linejoin="round" points="45 13 50 13 55 0 65 26 75 0 85 26 95 0 105 26 110 13 115 13"></polyline>
                <path d="M135,28 L135,13" id="Path-4" stroke-width="2"></path>
                <path d="M135,112 L135,97" id="Path-4-Copy-6" stroke-width="2"></path>
                <polyline id="Path-14" stroke-width="2" points="45 13 0 13 0 23"></polyline>
                <polyline id="Path-15" stroke-width="2" points="115 13 135 13 135 28"></polyline>
                <polyline id="Path-16" stroke-width="2" points="135 98 135 113 0 113 0 104"></polyline>
            </g>
            <path d="M310.54,65.824 C311.532005,65.824 312.287997,65.528003 312.808,64.936 C313.328003,64.343997 313.588,63.5840046 313.588,62.656 C313.588,61.7279954 313.328003,60.968003 312.808,60.376 C312.287997,59.783997 311.532005,59.488 310.54,59.488 L308.428,59.488 L308.428,65.824 L310.54,65.824 Z M311.452,66.688 L313.804,69.448 C315.372008,71.3200094 316.859993,72.3359992 318.268,72.496 L318.268,73 L314.308,73 L309.556,66.688 L308.428,66.688 L308.428,69.688 C308.428,70.888006 308.559999,71.6559983 308.824,71.992 C309.088001,72.3280017 309.715995,72.496 310.708,72.496 L310.708,73 L304.228,73 L304.228,72.496 C305.220005,72.496 305.847999,72.3280017 306.112,71.992 C306.376001,71.6559983 306.508,70.888006 306.508,69.688 L306.508,61.888 C306.508,60.687994 306.376001,59.9240016 306.112,59.596 C305.847999,59.2679984 305.220005,59.104 304.228,59.104 L304.228,58.6 L310.564,58.6 C312.180008,58.6 313.443995,58.9839962 314.356,59.752 C315.268005,60.5200038 315.724,61.4879942 315.724,62.656 C315.724,63.7280054 315.344004,64.6319963 314.584,65.368 C313.823996,66.1040037 312.780007,66.5439993 311.452,66.688 Z M327.196,66.808 L320.188,66.808 L320.188,65.728 L327.196,65.728 L327.196,66.808 Z M327.196,69.808 L320.188,69.808 L320.188,68.728 L327.196,68.728 L327.196,69.808 Z M337.108,75.16 L336.58,75.664 C332.979982,72.7199853 331.18,69.4720178 331.18,65.92 C331.18,62.3839823 332.971982,59.1360148 336.556,56.176 L337.108,56.68 C336.595997,57.2560029 336.172002,57.7559979 335.836,58.18 C335.499998,58.6040021 335.064003,59.2359958 334.528,60.076 C333.991997,60.9160042 333.580001,61.831995 333.292,62.824 C333.003999,63.816005 332.86,64.8479946 332.86,65.92 C332.86,66.9920054 333.003999,68.023995 333.292,69.016 C333.580001,70.008005 333.991997,70.9239958 334.528,71.764 C335.064003,72.6040042 335.499998,73.2359979 335.836,73.66 C336.172002,74.0840021 336.595997,74.5839971 337.108,75.16 Z M353.476,59.104 C352.531995,59.104 351.920001,59.2199988 351.64,59.452 C351.359999,59.6840012 351.020002,60.2639954 350.62,61.192 L345.34,73.408 L345.028,73.408 L339.724,61.192 C339.323998,60.2639954 338.984001,59.6840012 338.704,59.452 C338.423999,59.2199988 337.812005,59.104 336.868,59.104 L336.868,58.6 L343.516,58.6 L343.516,59.104 C342.523995,59.104 341.888001,59.2439986 341.608,59.524 C341.327999,59.8040014 341.339998,60.2719967 341.644,60.928 L345.724,70.264 L349.756,60.928 C350.060002,60.2719967 350.072001,59.8040014 349.792,59.524 C349.511999,59.2439986 348.876005,59.104 347.884,59.104 L347.884,58.6 L353.476,58.6 L353.476,59.104 Z M355.252,81.28 C354.883998,81.5840015 354.652,81.9599978 354.556,82.408 L354.076,82.408 L354.076,77.128 L354.58,77.128 C354.58,77.1920003 354.584,77.2759995 354.592,77.38 C354.6,77.4840005 354.632,77.6839985 354.688,77.98 C354.744,78.2760015 354.823999,78.5599986 354.928,78.832 C355.032001,79.1040014 355.195999,79.4079983 355.42,79.744 C355.644001,80.0800017 355.903999,80.3679988 356.2,80.608 C356.496001,80.8480012 356.887998,81.0479992 357.376,81.208 C357.864002,81.3680008 358.403997,81.448 358.996,81.448 C359.860004,81.448 360.575997,81.2000025 361.144,80.704 C361.712003,80.2079975 361.996,79.5760038 361.996,78.808 C361.996,77.8319951 361.076009,76.8640048 359.236,75.904 L356.932,74.728 C356.179996,74.327998 355.548003,73.7840034 355.036,73.096 C354.523997,72.4079966 354.268,71.6320043 354.268,70.768 C354.268,69.759995 354.643996,68.9120034 355.396,68.224 C356.148004,67.5359966 357.099994,67.192 358.252,67.192 C359.308005,67.192 360.283996,67.5199967 361.18,68.176 C361.548002,67.8719985 361.78,67.5040022 361.876,67.072 L362.356,67.072 L362.356,72.352 L361.852,72.352 C361.611999,69.551986 360.388011,68.152 358.18,68.152 C357.507997,68.152 356.952002,68.355998 356.512,68.764 C356.071998,69.172002 355.852,69.679997 355.852,70.288 C355.852,70.880003 356.063998,71.379998 356.488,71.788 C356.912002,72.196002 357.675994,72.6879971 358.78,73.264 L361.06,74.44 C362.740008,75.2880042 363.58,76.5039921 363.58,78.088 C363.58,79.3680064 363.136004,80.407996 362.248,81.208 C361.359996,82.008004 360.276006,82.408 358.996,82.408 C358.451997,82.408 357.932002,82.3280008 357.436,82.168 C356.939998,82.0079992 356.492002,81.828001 356.092,81.628 C355.691998,81.427999 355.412001,81.3120002 355.252,81.28 Z M379.348,68.608 L372.34,68.608 L372.34,67.552 L379.348,67.552 L379.348,68.608 Z M402.628,59.104 C401.683995,59.104 401.072001,59.2199988 400.792,59.452 C400.511999,59.6840012 400.172002,60.2639954 399.772,61.192 L394.492,73.408 L394.18,73.408 L388.876,61.192 C388.475998,60.2639954 388.136001,59.6840012 387.856,59.452 C387.575999,59.2199988 386.964005,59.104 386.02,59.104 L386.02,58.6 L392.668,58.6 L392.668,59.104 C391.675995,59.104 391.040001,59.2439986 390.76,59.524 C390.479999,59.8040014 390.491998,60.2719967 390.796,60.928 L394.876,70.264 L398.908,60.928 C399.212002,60.2719967 399.224001,59.8040014 398.944,59.524 C398.663999,59.2439986 398.028005,59.104 397.036,59.104 L397.036,58.6 L402.628,58.6 L402.628,59.104 Z M406.252,74.848 L406.252,78.688 C406.252,79.888006 406.367999,80.6559983 406.6,80.992 C406.832001,81.3280017 407.347996,81.496 408.148,81.496 L408.148,82 L402.652,82 L402.652,81.496 C403.452004,81.496 403.967999,81.3280017 404.2,80.992 C404.432001,80.6559983 404.548,79.888006 404.548,78.688 L404.548,74.848 L402.58,74.848 L402.58,74.008 L404.548,74.008 L404.548,71.704 C404.548,70.1839924 404.927996,69.0520037 405.688,68.308 C406.448004,67.5639963 407.379994,67.192 408.484,67.192 C409.220004,67.192 409.803998,67.3799981 410.236,67.756 C410.668002,68.1320019 410.884,68.5359978 410.884,68.968 C410.884,69.2240013 410.816001,69.4319992 410.68,69.592 C410.543999,69.7520008 410.348001,69.832 410.092,69.832 C409.835999,69.832 409.636001,69.736001 409.492,69.544 C409.347999,69.351999 409.252,69.1400012 409.204,68.908 C409.156,68.6759988 409.036001,68.464001 408.844,68.272 C408.651999,68.079999 408.388002,67.984 408.052,67.984 C407.427997,67.984 406.972001,68.2679972 406.684,68.836 C406.395999,69.4040028 406.252,70.3599933 406.252,71.704 L406.252,74.008 L408.652,74.008 L408.652,74.848 L406.252,74.848 Z M415.852,65.92 C415.852,69.4880178 414.060018,72.7359854 410.476,75.664 L409.924,75.16 C410.452003,74.567997 410.879998,74.0640021 411.208,73.648 C411.536002,73.2319979 411.971997,72.6040042 412.516,71.764 C413.060003,70.9239958 413.475999,70.008005 413.764,69.016 C414.052001,68.023995 414.196,66.9920054 414.196,65.92 C414.196,64.8479946 414.052001,63.816005 413.764,62.824 C413.475999,61.831995 413.060003,60.9160042 412.516,60.076 C411.971997,59.2359958 411.536002,58.6080021 411.208,58.192 C410.879998,57.7759979 410.452003,57.272003 409.924,56.68 L410.5,56.176 C414.068018,59.1200147 415.852,62.3679822 415.852,65.92 Z M431.548,58.504 L424.636,73.432 L423.676,73.096 L430.588,58.168 L431.548,58.504 Z M444.772,73 L438.292,73 L438.292,72.496 C439.284005,72.496 439.911999,72.3280017 440.176,71.992 C440.440001,71.6559983 440.572,70.888006 440.572,69.688 L440.572,61.888 C440.572,60.687994 440.440001,59.9240016 440.176,59.596 C439.911999,59.2679984 439.284005,59.104 438.292,59.104 L438.292,58.6 L444.772,58.6 L444.772,59.104 C443.779995,59.104 443.152001,59.2679984 442.888,59.596 C442.623999,59.9240016 442.492,60.687994 442.492,61.888 L442.492,69.688 C442.492,70.888006 442.623999,71.6559983 442.888,71.992 C443.152001,72.3280017 443.779995,72.496 444.772,72.496 L444.772,73 Z" id="R=(VS---Vf)-/-I-Copy" fill="#1A80AA"></path>
        </g>
    </g>
</svg>