<?xml version="1.0" encoding="UTF-8"?>
<svg width="900px" height="300px" viewBox="0 0 900 300" version="1.1" xmlns="http://www.w3.org/2000/svg" xmlns:xlink="http://www.w3.org/1999/xlink">
    <!-- Generator: Sketch 52.5 (67469) - http://www.bohemiancoding.com/sketch -->
    <title>Solar_Panel</title>
    <desc>Created with Sketch.</desc>
    <g id="Solar_Panel" stroke="none" stroke-width="1" fill="none" fill-rule="evenodd">
        <rect id="Rectangle" stroke="#3D3530" stroke-width="2" fill="#EEEEEE" x="1" y="1" width="898" height="318"></rect>
        <g id="Illustration" transform="translate(30.000000, 19.000000)">
            <g id="Structure" transform="translate(159.000000, 90.000000)">
                <rect id="Rectangle" fill="#3D3530" x="40" y="0" width="10" height="5"></rect>
                <rect id="Rectangle-Copy-5" fill="#3D3530" x="80" y="0" width="10" height="5"></rect>
                <rect id="Rectangle-Copy-6" fill="#3D3530" x="120" y="0" width="10" height="5"></rect>
                <rect id="Rectangle-Copy-7" fill="#3D3530" x="160" y="0" width="10" height="5"></rect>
                <rect id="Rectangle-Copy-8" fill="#3D3530" x="200" y="0" width="10" height="5"></rect>
                <rect id="Rectangle-Copy-9" fill="#3D3530" x="240" y="0" width="10" height="5"></rect>
                <rect id="Rectangle-Copy-10" fill="#3D3530" x="280" y="0" width="10" height="5"></rect>
                <rect id="Rectangle-Copy-11" fill="#3D3530" x="320" y="0" width="10" height="5"></rect>
                <rect id="Rectangle-Copy-12" fill="#3D3530" x="360" y="0" width="10" height="5"></rect>
                <rect id="Rectangle-Copy-13" fill="#3D3530" x="400" y="0" width="10" height="5"></rect>
                <rect id="Rectangle-Copy-14" fill="#3D3530" x="440" y="0" width="10" height="5"></rect>
                <rect id="Rectangle-Copy-2" fill="#3D3530" x="0" y="99" width="487" height="5"></rect>
                <rect id="Rectangle-Copy-3" fill="#7D7570" x="0" y="5" width="487" height="25"></rect>
                <rect id="Rectangle-Copy-4" fill="#D4D4D4" x="0" y="30" width="487" height="70"></rect>
            </g>
            <g id="Valence-Charge-Carriers-Copy" transform="translate(170.000000, 125.000000)">
                <g id="Electrons" fill="#EF7D3B">
                    <circle id="Oval-Copy-76" cx="143.25" cy="13.25" r="3.25"></circle>
                    <circle id="Oval-Copy-77" cx="123.25" cy="3.25" r="3.25"></circle>
                    <circle id="Oval-Copy-78" cx="103.25" cy="13.25" r="3.25"></circle>
                    <circle id="Oval-Copy-79" cx="83.25" cy="3.25" r="3.25"></circle>
                    <circle id="Oval-Copy-80" cx="63.25" cy="13.25" r="3.25"></circle>
                    <circle id="Oval-Copy-81" cx="43.25" cy="3.25" r="3.25"></circle>
                    <circle id="Oval-Copy-82" cx="23.25" cy="13.25" r="3.25"></circle>
                    <circle id="Oval-Copy-94" cx="3.25" cy="3.25" r="3.25"></circle>
                    <circle id="Oval-Copy-76" cx="143.25" cy="34.25" r="3.25"></circle>
                    <circle id="Oval-Copy-77" cx="123.25" cy="24.25" r="3.25"></circle>
                    <circle id="Oval-Copy-78" cx="103.25" cy="34.25" r="3.25"></circle>
                    <circle id="Oval-Copy-79" cx="83.25" cy="24.25" r="3.25"></circle>
                    <circle id="Oval-Copy-80" cx="63.25" cy="34.25" r="3.25"></circle>
                    <circle id="Oval-Copy-81" cx="43.25" cy="24.25" r="3.25"></circle>
                    <circle id="Oval-Copy-82" cx="23.25" cy="34.25" r="3.25"></circle>
                    <circle id="Oval-Copy-94" cx="3.25" cy="24.25" r="3.25"></circle>
                </g>
                <g id="Holes" stroke="#84D0EF" stroke-width="2">
                    <circle id="Oval-Copy-76" cx="143.25" cy="13.25" r="4.25"></circle>
                    <circle id="Oval-Copy-77" cx="123.25" cy="3.25" r="4.25"></circle>
                    <circle id="Oval-Copy-78" cx="103.25" cy="13.25" r="4.25"></circle>
                    <circle id="Oval-Copy-79" cx="83.25" cy="3.25" r="4.25"></circle>
                    <circle id="Oval-Copy-80" cx="63.25" cy="13.25" r="4.25"></circle>
                    <circle id="Oval-Copy-81" cx="43.25" cy="3.25" r="4.25"></circle>
                    <circle id="Oval-Copy-82" cx="23.25" cy="13.25" r="4.25"></circle>
                    <circle id="Oval-Copy-96" cx="3.25" cy="3.25" r="4.25"></circle>
                    <circle id="Oval-Copy-76" cx="143.25" cy="34.25" r="4.25"></circle>
                    <circle id="Oval-Copy-77" cx="123.25" cy="24.25" r="4.25"></circle>
                    <circle id="Oval-Copy-78" cx="103.25" cy="34.25" r="4.25"></circle>
                    <circle id="Oval-Copy-79" cx="83.25" cy="24.25" r="4.25"></circle>
                    <circle id="Oval-Copy-80" cx="63.25" cy="34.25" r="4.25"></circle>
                    <circle id="Oval-Copy-81" cx="43.25" cy="24.25" r="4.25"></circle>
                    <circle id="Oval-Copy-82" cx="23.25" cy="34.25" r="4.25"></circle>
                    <circle id="Oval-Copy-96" cx="3.25" cy="24.25" r="4.25"></circle>
                    <circle id="Oval-Copy-90" cx="143.25" cy="54.25" r="4.25"></circle>
                    <circle id="Oval-Copy-89" cx="123.25" cy="44.25" r="4.25"></circle>
                    <circle id="Oval-Copy-88" cx="103.25" cy="54.25" r="4.25"></circle>
                    <circle id="Oval-Copy-87" cx="83.25" cy="44.25" r="4.25"></circle>
                    <circle id="Oval-Copy-86" cx="63.25" cy="54.25" r="4.25"></circle>
                    <circle id="Oval-Copy-85" cx="43.25" cy="44.25" r="4.25"></circle>
                    <circle id="Oval-Copy-84" cx="23.25" cy="54.25" r="4.25"></circle>
                    <circle id="Oval-Copy-97" cx="3.25" cy="44.25" r="4.25"></circle>
                </g>
            </g>
            <g id="Valence-Charge-Carriers-Copy-2" transform="translate(330.000000, 91.000000)">
                <g id="Electrons" fill="#EF7D3B">
                    <circle id="Oval-Copy-76" cx="155.25" cy="3.25" r="3.25"></circle>
                    <circle id="Oval-Copy-77" cx="115.25" cy="3.25" r="3.25"></circle>
                    <circle id="Oval-Copy-78" cx="103.25" cy="47.25" r="3.25"></circle>
                    <circle id="Oval-Copy-79" cx="83.25" cy="37.25" r="3.25"></circle>
                    <circle id="Oval-Copy-80" cx="63.25" cy="47.25" r="3.25"></circle>
                    <circle id="Oval-Copy-81" cx="43.25" cy="37.25" r="3.25"></circle>
                    <circle id="Oval-Copy-82" cx="23.25" cy="47.25" r="3.25"></circle>
                    <circle id="Oval-Copy-94" cx="3.25" cy="37.25" r="3.25"></circle>
                    <circle id="Oval-Copy-76" cx="143.25" cy="68.25" r="3.25"></circle>
                    <circle id="Oval-Copy-77" cx="123.25" cy="58.25" r="3.25"></circle>
                    <circle id="Oval-Copy-78" cx="103.25" cy="68.25" r="3.25"></circle>
                    <circle id="Oval-Copy-94" cx="3.25" cy="58.25" r="3.25"></circle>
                </g>
                <g id="Holes" transform="translate(0.000000, 34.000000)" stroke="#84D0EF" stroke-width="2">
                    <circle id="Oval-Copy-76" cx="143.25" cy="13.25" r="4.25"></circle>
                    <circle id="Oval-Copy-77" cx="123.25" cy="3.25" r="4.25"></circle>
                    <circle id="Oval-Copy-78" cx="103.25" cy="13.25" r="4.25"></circle>
                    <circle id="Oval-Copy-79" cx="83.25" cy="3.25" r="4.25"></circle>
                    <circle id="Oval-Copy-80" cx="63.25" cy="13.25" r="4.25"></circle>
                    <circle id="Oval-Copy-81" cx="43.25" cy="3.25" r="4.25"></circle>
                    <circle id="Oval-Copy-82" cx="23.25" cy="13.25" r="4.25"></circle>
                    <circle id="Oval-Copy-96" cx="3.25" cy="3.25" r="4.25"></circle>
                    <circle id="Oval-Copy-76" cx="143.25" cy="34.25" r="4.25"></circle>
                    <circle id="Oval-Copy-77" cx="123.25" cy="24.25" r="4.25"></circle>
                    <circle id="Oval-Copy-78" cx="103.25" cy="34.25" r="4.25"></circle>
                    <circle id="Oval-Copy-96" cx="3.25" cy="24.25" r="4.25"></circle>
                    <circle id="Oval-Copy-90" cx="143.25" cy="54.25" r="4.25"></circle>
                    <circle id="Oval-Copy-89" cx="123.25" cy="44.25" r="4.25"></circle>
                    <circle id="Oval-Copy-88" cx="103.25" cy="54.25" r="4.25"></circle>
                    <circle id="Oval-Copy-87" cx="83.25" cy="44.25" r="4.25"></circle>
                    <circle id="Oval-Copy-86" cx="63.25" cy="54.25" r="4.25"></circle>
                    <circle id="Oval-Copy-85" cx="43.25" cy="44.25" r="4.25"></circle>
                    <circle id="Oval-Copy-84" cx="23.25" cy="54.25" r="4.25"></circle>
                    <circle id="Oval-Copy-97" cx="3.25" cy="44.25" r="4.25"></circle>
                </g>
            </g>
            <g id="Valence-Charge-Carriers-Copy-3" transform="translate(490.000000, 125.000000)">
                <g id="Electrons" fill="#EF7D3B">
                    <circle id="Oval-Copy-76" cx="143.25" cy="13.25" r="3.25"></circle>
                    <circle id="Oval-Copy-77" cx="123.25" cy="3.25" r="3.25"></circle>
                    <circle id="Oval-Copy-78" cx="103.25" cy="13.25" r="3.25"></circle>
                    <circle id="Oval-Copy-79" cx="83.25" cy="3.25" r="3.25"></circle>
                    <circle id="Oval-Copy-80" cx="63.25" cy="13.25" r="3.25"></circle>
                    <circle id="Oval-Copy-81" cx="43.25" cy="3.25" r="3.25"></circle>
                    <circle id="Oval-Copy-82" cx="23.25" cy="13.25" r="3.25"></circle>
                    <circle id="Oval-Copy-94" cx="3.25" cy="3.25" r="3.25"></circle>
                    <circle id="Oval-Copy-76" cx="143.25" cy="34.25" r="3.25"></circle>
                    <circle id="Oval-Copy-77" cx="123.25" cy="24.25" r="3.25"></circle>
                    <circle id="Oval-Copy-78" cx="103.25" cy="34.25" r="3.25"></circle>
                    <circle id="Oval-Copy-79" cx="83.25" cy="24.25" r="3.25"></circle>
                    <circle id="Oval-Copy-80" cx="63.25" cy="34.25" r="3.25"></circle>
                    <circle id="Oval-Copy-81" cx="43.25" cy="24.25" r="3.25"></circle>
                    <circle id="Oval-Copy-82" cx="23.25" cy="34.25" r="3.25"></circle>
                    <circle id="Oval-Copy-94" cx="3.25" cy="24.25" r="3.25"></circle>
                </g>
                <g id="Holes" stroke="#84D0EF" stroke-width="2">
                    <circle id="Oval-Copy-76" cx="143.25" cy="13.25" r="4.25"></circle>
                    <circle id="Oval-Copy-77" cx="123.25" cy="3.25" r="4.25"></circle>
                    <circle id="Oval-Copy-78" cx="103.25" cy="13.25" r="4.25"></circle>
                    <circle id="Oval-Copy-79" cx="83.25" cy="3.25" r="4.25"></circle>
                    <circle id="Oval-Copy-80" cx="63.25" cy="13.25" r="4.25"></circle>
                    <circle id="Oval-Copy-81" cx="43.25" cy="3.25" r="4.25"></circle>
                    <circle id="Oval-Copy-82" cx="23.25" cy="13.25" r="4.25"></circle>
                    <circle id="Oval-Copy-96" cx="3.25" cy="3.25" r="4.25"></circle>
                    <circle id="Oval-Copy-76" cx="143.25" cy="34.25" r="4.25"></circle>
                    <circle id="Oval-Copy-77" cx="123.25" cy="24.25" r="4.25"></circle>
                    <circle id="Oval-Copy-78" cx="103.25" cy="34.25" r="4.25"></circle>
                    <circle id="Oval-Copy-79" cx="83.25" cy="24.25" r="4.25"></circle>
                    <circle id="Oval-Copy-80" cx="63.25" cy="34.25" r="4.25"></circle>
                    <circle id="Oval-Copy-81" cx="43.25" cy="24.25" r="4.25"></circle>
                    <circle id="Oval-Copy-82" cx="23.25" cy="34.25" r="4.25"></circle>
                    <circle id="Oval-Copy-96" cx="3.25" cy="24.25" r="4.25"></circle>
                    <circle id="Oval-Copy-90" cx="143.25" cy="54.25" r="4.25"></circle>
                    <circle id="Oval-Copy-89" cx="123.25" cy="44.25" r="4.25"></circle>
                    <circle id="Oval-Copy-88" cx="103.25" cy="54.25" r="4.25"></circle>
                    <circle id="Oval-Copy-87" cx="83.25" cy="44.25" r="4.25"></circle>
                    <circle id="Oval-Copy-86" cx="63.25" cy="54.25" r="4.25"></circle>
                    <circle id="Oval-Copy-85" cx="43.25" cy="44.25" r="4.25"></circle>
                    <circle id="Oval-Copy-84" cx="23.25" cy="54.25" r="4.25"></circle>
                    <circle id="Oval-Copy-97" cx="3.25" cy="44.25" r="4.25"></circle>
                </g>
            </g>
            <g id="Photon" transform="translate(472.000000, 25.000000)">
                <path d="M67.5062732,58.420864 C65.8526487,58.5788829 64.4796285,57.9119385 63.0261268,56.5426445 C62.4344818,55.9852761 60.409375,53.7614358 60.3675068,53.7175826 C57.8886081,51.121161 55.7046519,49.9217167 52.4211417,49.9217167 C49.4032658,49.9217167 47.7056387,51.414762 44.4511695,56.1045209 C44.3637921,56.2304574 44.3637921,56.2304574 44.2761019,56.3568502 C40.3635706,61.9952719 37.9679968,64.0816927 33.3579648,64.0816927 C28.7381243,64.0816927 26.0371255,61.8225188 22.1699553,56.3694107 C22.0929905,56.2608823 21.4261938,55.3164706 21.2326428,55.044834 C18.5574152,51.2903203 16.9615369,49.9217167 14.7611657,49.9217167 C12.2324353,49.9217167 10.3805547,51.621044 7.13419667,56.2793458 C7.02739667,56.4325965 6.89367047,56.6249403 6.65239861,56.9719689 C6.45872941,57.2503065 6.31145686,57.4611157 6.16732891,57.6659302 C3.07437835,62.0612007 1.01889786,63.9217167 -2.07885829,63.9217167 C-5.18694765,63.9217167 -7.46643651,62.0305852 -11.1200813,57.5288447 C-11.2637187,57.3518656 -11.4133574,57.1665127 -11.5917859,56.9447431 C-11.7013653,56.8085462 -11.8266268,56.6526171 -12.0606217,56.3613034 C-15.8912381,51.5943141 -17.8127339,49.9217167 -20.0788583,49.9217167 L-20.0788583,46.9217167 C-16.490816,46.9217167 -14.1835044,48.9301538 -9.72209489,54.48213 C-9.48753271,54.7741496 -9.36314144,54.9289955 -9.25439523,55.0641567 C-9.07842742,55.282868 -8.93133223,55.4650704 -8.79072173,55.6383199 C-5.72630149,59.4140632 -3.90904053,60.9217167 -2.07885829,60.9217167 C-0.34815294,60.9217167 1.18344777,59.5353899 3.71390505,55.9394566 C3.85444432,55.7397417 3.99895891,55.5328804 4.18986137,55.258519 C4.43005984,54.9130333 4.56498705,54.7189621 4.67291862,54.5640877 C8.48524104,49.0936657 10.8521719,46.9217167 14.7611657,46.9217167 C18.2793128,46.9217167 20.4621167,48.7936598 23.6758631,53.3039507 C23.8739456,53.581947 24.5435032,54.5302691 24.6170649,54.6339987 C27.9575463,59.3444215 30.0345744,61.0816927 33.3579648,61.0816927 C36.6342891,61.0816927 38.4331439,59.5149833 41.8113697,54.6465592 C41.8988033,54.5205362 41.8988033,54.5205362 41.9864915,54.3941518 C45.7797551,48.9279788 48.0609216,46.9217167 52.4211417,46.9217167 C56.6508636,46.9217167 59.5439783,48.5106359 62.5373663,51.6459384 C62.6506246,51.7645662 64.5904984,53.8948092 65.0832503,54.3590138 C65.9823937,55.2060659 66.6042257,55.5032543 67.2554944,55.4308911 L67.4045517,55.4218085 C67.5653944,55.4200294 67.7257827,55.4182078 67.8857166,55.4163437 L67.6623516,47.4435325 L86.9209456,56.4077143 L68.1944437,66.4360805 L67.9697423,58.4155666 C67.8156709,58.4173718 67.6611811,58.4191376 67.5062732,58.420864 Z" id="Wave" fill="#23ABE3" fill-rule="nonzero" transform="translate(33.421044, 56.678899) rotate(117.000000) translate(-33.421044, -56.678899) "></path>
                <circle stroke="#23ABE3" stroke-width="2" fill="#C9DB31" cx="73.25" cy="3.25" r="4.25"></circle>
            </g>
            <g id="Photon-Copy" transform="translate(452.000000, 15.000000)">
                <path d="M67.5062732,58.420864 C65.8526487,58.5788829 64.4796285,57.9119385 63.0261268,56.5426445 C62.4344818,55.9852761 60.409375,53.7614358 60.3675068,53.7175826 C57.8886081,51.121161 55.7046519,49.9217167 52.4211417,49.9217167 C49.4032658,49.9217167 47.7056387,51.414762 44.4511695,56.1045209 C44.3637921,56.2304574 44.3637921,56.2304574 44.2761019,56.3568502 C40.3635706,61.9952719 37.9679968,64.0816927 33.3579648,64.0816927 C28.7381243,64.0816927 26.0371255,61.8225188 22.1699553,56.3694107 C22.0929905,56.2608823 21.4261938,55.3164706 21.2326428,55.044834 C18.5574152,51.2903203 16.9615369,49.9217167 14.7611657,49.9217167 C12.2324353,49.9217167 10.3805547,51.621044 7.13419667,56.2793458 C7.02739667,56.4325965 6.89367047,56.6249403 6.65239861,56.9719689 C6.45872941,57.2503065 6.31145686,57.4611157 6.16732891,57.6659302 C3.07437835,62.0612007 1.01889786,63.9217167 -2.07885829,63.9217167 C-5.18694765,63.9217167 -7.46643651,62.0305852 -11.1200813,57.5288447 C-11.2637187,57.3518656 -11.4133574,57.1665127 -11.5917859,56.9447431 C-11.7013653,56.8085462 -11.8266268,56.6526171 -12.0606217,56.3613034 C-15.8912381,51.5943141 -17.8127339,49.9217167 -20.0788583,49.9217167 L-20.0788583,46.9217167 C-16.490816,46.9217167 -14.1835044,48.9301538 -9.72209489,54.48213 C-9.48753271,54.7741496 -9.36314144,54.9289955 -9.25439523,55.0641567 C-9.07842742,55.282868 -8.93133223,55.4650704 -8.79072173,55.6383199 C-5.72630149,59.4140632 -3.90904053,60.9217167 -2.07885829,60.9217167 C-0.34815294,60.9217167 1.18344777,59.5353899 3.71390505,55.9394566 C3.85444432,55.7397417 3.99895891,55.5328804 4.18986137,55.258519 C4.43005984,54.9130333 4.56498705,54.7189621 4.67291862,54.5640877 C8.48524104,49.0936657 10.8521719,46.9217167 14.7611657,46.9217167 C18.2793128,46.9217167 20.4621167,48.7936598 23.6758631,53.3039507 C23.8739456,53.581947 24.5435032,54.5302691 24.6170649,54.6339987 C27.9575463,59.3444215 30.0345744,61.0816927 33.3579648,61.0816927 C36.6342891,61.0816927 38.4331439,59.5149833 41.8113697,54.6465592 C41.8988033,54.5205362 41.8988033,54.5205362 41.9864915,54.3941518 C45.7797551,48.9279788 48.0609216,46.9217167 52.4211417,46.9217167 C56.6508636,46.9217167 59.5439783,48.5106359 62.5373663,51.6459384 C62.6506246,51.7645662 64.5904984,53.8948092 65.0832503,54.3590138 C65.9823937,55.2060659 66.6042257,55.5032543 67.2554944,55.4308911 L67.4045517,55.4218085 C67.5653944,55.4200294 67.7257827,55.4182078 67.8857166,55.4163437 L67.6623516,47.4435325 L86.9209456,56.4077143 L68.1944437,66.4360805 L67.9697423,58.4155666 C67.8156709,58.4173718 67.6611811,58.4191376 67.5062732,58.420864 Z" id="Wave" fill="#23ABE3" fill-rule="nonzero" transform="translate(33.421044, 56.678899) rotate(117.000000) translate(-33.421044, -56.678899) "></path>
                <circle id="Photon" stroke="#23ABE3" stroke-width="2" fill="#C9DB31" cx="73.25" cy="3.25" r="4.25"></circle>
            </g>
            <g id="Labels" transform="translate(223.000000, 0.000000)">
                <path d="M0.912,223 L0.912,222.496 C1.90400496,222.496 2.53199868,222.328002 2.796,221.992 C3.06000132,221.655998 3.192,220.888006 3.192,219.688 L3.192,211.888 C3.192,210.687994 3.06000132,209.924002 2.796,209.596 C2.53199868,209.267998 1.90400496,209.104 0.912,209.104 L0.912,208.6 L11.856,208.6 L12.072,211.768 L11.568,211.768 L11.448,211.288 C11.255999,210.583996 11.0000016,210.108001 10.68,209.86 C10.3599984,209.611999 9.68800512,209.488 8.664,209.488 L5.112,209.488 L5.112,214.936 L6.312,214.936 C7.512006,214.936 8.27599836,214.804001 8.604,214.54 C8.93200164,214.275999 9.096,213.640005 9.096,212.632 L9.6,212.632 L9.6,218.128 L9.096,218.128 C9.096,217.119995 8.93200164,216.484001 8.604,216.22 C8.27599836,215.955999 7.512006,215.824 6.312,215.824 L5.112,215.824 L5.112,219.328 C5.112,220.528006 5.24399868,221.291998 5.508,221.62 C5.77200132,221.948002 6.39999504,222.112 7.392,222.112 L9.456,222.112 C10.1760036,222.112 10.7239981,222.040001 11.1,221.896 C11.4760019,221.751999 11.7319993,221.568001 11.868,221.344 C12.0040007,221.119999 12.1279994,220.768002 12.24,220.288 L12.36,219.808 L12.864,219.808 L12.672,223 L0.912,223 Z M20.944,223 L15.448,223 L15.448,222.496 C16.248004,222.496 16.7639988,222.328002 16.996,221.992 C17.2280012,221.655998 17.344,220.888006 17.344,219.688 L17.344,212.104 C17.344,210.903994 17.2280012,210.136002 16.996,209.8 C16.7639988,209.463998 16.248004,209.296 15.448,209.296 L15.448,208.792 L19.048,208.192 L19.048,219.688 C19.048,220.888006 19.1639988,221.655998 19.396,221.992 C19.6280012,222.328002 20.143996,222.496 20.944,222.496 L20.944,223 Z M25.64,217.504 L29.624,217.504 C29.7840008,217.055998 29.7160015,216.620002 29.42,216.196 C29.1239985,215.771998 28.6160036,215.56 27.896,215.56 C27.3839974,215.56 26.924002,215.735998 26.516,216.088 C26.107998,216.440002 25.8160009,216.911997 25.64,217.504 Z M25.496,218.392 C25.3519993,219.576006 25.5399974,220.539996 26.06,221.284 C26.5800026,222.028004 27.4319941,222.4 28.616,222.4 C29.016002,222.4 29.4719974,222.296001 29.984,222.088 C30.4960026,221.879999 30.9199983,221.616002 31.256,221.296 L31.688,221.824 C31.2559978,222.288002 30.7040034,222.667999 30.032,222.964 C29.3599966,223.260001 28.6880034,223.408 28.016,223.408 C26.7199935,223.408 25.6560042,222.980004 24.824,222.124 C23.9919958,221.267996 23.576,220.224006 23.576,218.992 C23.576,217.759994 24.0279955,216.720004 24.932,215.872 C25.8360045,215.023996 26.8639942,214.6 28.016,214.6 C29.1040054,214.6 29.9919966,214.979996 30.68,215.74 C31.3680034,216.500004 31.5680014,217.383995 31.28,218.392 L25.496,218.392 Z M38.952,215.368 C38.3119968,215.368 37.7680022,215.735996 37.32,216.472 C36.8719978,217.208004 36.648,218.119995 36.648,219.208 C36.648,220.200005 36.8919976,220.979997 37.38,221.548 C37.8680024,222.116003 38.5919952,222.4 39.552,222.4 C40.4800046,222.4 41.3359961,222.032004 42.12,221.296 L42.528,221.824 C41.5519951,222.880005 40.360007,223.408 38.952,223.408 C37.6399934,223.408 36.6040038,223.016004 35.844,222.232 C35.0839962,221.447996 34.704,220.440006 34.704,219.208 C34.704,217.879993 35.1519955,216.780004 36.048,215.908 C36.9440045,215.035996 37.9119948,214.6 38.952,214.6 C39.8960047,214.6 40.6079976,214.767998 41.088,215.104 C41.5680024,215.440002 41.808,215.847998 41.808,216.328 C41.808,216.584001 41.7240008,216.819999 41.556,217.036 C41.3879992,217.252001 41.1200018,217.36 40.752,217.36 C40.4959987,217.36 40.2760009,217.268001 40.092,217.084 C39.9079991,216.899999 39.816,216.672001 39.816,216.4 C39.816,215.711997 39.5280029,215.368 38.952,215.368 Z M45.904,215.848 L44.656,215.848 L44.656,215.272 C45.3440034,215.127999 45.8479984,214.816002 46.168,214.336 C46.4880016,213.855998 46.6959995,213.200004 46.792,212.368 L47.608,212.368 L47.608,215.008 L49.696,215.008 L49.696,215.848 L47.608,215.848 L47.608,220.648 C47.608,221.800006 47.9679964,222.376 48.688,222.376 C49.1520023,222.376 49.6719971,222.104003 50.248,221.56 L50.656,221.968 C50.3199983,222.368002 49.9160024,222.695999 49.444,222.952 C48.9719976,223.208001 48.536002,223.336 48.136,223.336 C47.4479966,223.336 46.904002,223.112002 46.504,222.664 C46.103998,222.215998 45.904,221.544004 45.904,220.648 L45.904,215.848 Z M60.992,216.088 C60.992,216.840004 60.6720032,217.216 60.032,217.216 C59.8079989,217.216 59.6120008,217.128001 59.444,216.952 C59.2759992,216.775999 59.192,216.576001 59.192,216.352 C59.192,215.823997 58.9360026,215.56 58.424,215.56 C58.0559982,215.56 57.6560022,215.815997 57.224,216.328 C56.7919978,216.840003 56.576,217.519996 56.576,218.368 L56.576,219.688 C56.576,220.888006 56.6919988,221.655998 56.924,221.992 C57.1560012,222.328002 57.671996,222.496 58.472,222.496 L58.472,223 L52.976,223 L52.976,222.496 C53.776004,222.496 54.2919988,222.328002 54.524,221.992 C54.7560012,221.655998 54.872,220.888006 54.872,219.688 L54.872,218.488 C54.872,217.303994 54.7560012,216.544002 54.524,216.208 C54.2919988,215.871998 53.776004,215.704 52.976,215.704 L52.976,215.2 L56.168,214.6 C56.3120007,214.904002 56.4479994,215.479996 56.576,216.328 C56.8160012,215.847998 57.1759976,215.440002 57.656,215.104 C58.1360024,214.767998 58.6159976,214.6 59.096,214.6 C59.704003,214.6 60.1719984,214.759998 60.5,215.08 C60.8280016,215.400002 60.992,215.735998 60.992,216.088 Z M71.904,215.896 C72.8640048,216.744004 73.344,217.775994 73.344,218.992 C73.344,220.208006 72.8680048,221.247996 71.916,222.112 C70.9639952,222.976004 69.8240066,223.408 68.496,223.408 C67.1679934,223.408 66.0280048,222.976004 65.076,222.112 C64.1239952,221.247996 63.648,220.208006 63.648,218.992 C63.648,217.775994 64.1239952,216.740004 65.076,215.884 C66.0280048,215.027996 67.1679934,214.6 68.496,214.6 C69.8240066,214.6 70.9599953,215.031996 71.904,215.896 Z M70.656,221.512 C71.1520025,220.855997 71.4,220.016005 71.4,218.992 C71.4,217.967995 71.1520025,217.132003 70.656,216.484 C70.1599975,215.835997 69.4400047,215.512 68.496,215.512 C67.5519953,215.512 66.8320025,215.839997 66.336,216.496 C65.8399975,217.152003 65.592,217.983995 65.592,218.992 C65.592,220.000005 65.8399975,220.831997 66.336,221.488 C66.8320025,222.144003 67.5519953,222.472 68.496,222.472 C69.4400047,222.472 70.1599975,222.152003 70.656,221.512 Z M80.008,216.328 C80.9200046,215.175994 82.0319934,214.6 83.344,214.6 C84.3840052,214.6 85.1639974,214.927997 85.684,215.584 C86.2040026,216.240003 86.464,217.103995 86.464,218.176 L86.464,219.688 C86.464,220.888006 86.5799988,221.655998 86.812,221.992 C87.0440012,222.328002 87.559996,222.496 88.36,222.496 L88.36,223 L82.864,223 L82.864,222.496 C83.6480039,222.496 84.1599988,222.324002 84.4,221.98 C84.6400012,221.635998 84.76,220.872006 84.76,219.688 L84.76,218.296 C84.76,216.583991 84.0960066,215.728 82.768,215.728 C82.0799966,215.728 81.4480029,215.967998 80.872,216.448 C80.2959971,216.928002 80.008,217.487997 80.008,218.128 L80.008,219.688 C80.008,220.920006 80.103999,221.695998 80.296,222.016 C80.488001,222.336002 80.9519963,222.496 81.688,222.496 L81.688,223 L76.408,223 L76.408,222.496 C77.208004,222.496 77.7239988,222.328002 77.956,221.992 C78.1880012,221.655998 78.304,220.888006 78.304,219.688 L78.304,218.488 C78.304,217.303994 78.1880012,216.544002 77.956,216.208 C77.7239988,215.871998 77.208004,215.704 76.408,215.704 L76.408,215.2 L79.6,214.6 C79.7440007,214.904002 79.8799994,215.479996 80.008,216.328 Z M102.432,217.168 L106.2,217.168 L106.2,218.224 L102.432,218.224 L102.432,221.992 L101.376,221.992 L101.376,218.224 L97.608,218.224 L97.608,217.168 L101.376,217.168 L101.376,213.4 L102.432,213.4 L102.432,217.168 Z M120.104,215.8 L120.104,219.688 C120.104,220.888006 120.235999,221.655998 120.5,221.992 C120.764001,222.328002 121.391995,222.496 122.384,222.496 L122.384,223 L115.904,223 L115.904,222.496 C116.896005,222.496 117.523999,222.328002 117.788,221.992 C118.052001,221.655998 118.184,220.888006 118.184,219.688 L118.184,211.888 C118.184,210.687994 118.052001,209.924002 117.788,209.596 C117.523999,209.267998 116.896005,209.104 115.904,209.104 L115.904,208.6 L122.384,208.6 L122.384,209.104 C121.391995,209.104 120.764001,209.267998 120.5,209.596 C120.235999,209.924002 120.104,210.687994 120.104,211.888 L120.104,214.912 L128.264,214.912 L128.264,211.888 C128.264,210.687994 128.128001,209.924002 127.856,209.596 C127.583999,209.267998 126.952005,209.104 125.96,209.104 L125.96,208.6 L132.464,208.6 L132.464,209.104 C131.455995,209.104 130.820001,209.267998 130.556,209.596 C130.291999,209.924002 130.16,210.687994 130.16,211.888 L130.16,219.688 C130.16,220.904006 130.291999,221.675998 130.556,222.004 C130.820001,222.332002 131.455995,222.496 132.464,222.496 L132.464,223 L125.96,223 L125.96,222.496 C126.952005,222.496 127.583999,222.328002 127.856,221.992 C128.128001,221.655998 128.264,220.888006 128.264,219.688 L128.264,215.8 L120.104,215.8 Z M143.76,215.896 C144.720005,216.744004 145.2,217.775994 145.2,218.992 C145.2,220.208006 144.724005,221.247996 143.772,222.112 C142.819995,222.976004 141.680007,223.408 140.352,223.408 C139.023993,223.408 137.884005,222.976004 136.932,222.112 C135.979995,221.247996 135.504,220.208006 135.504,218.992 C135.504,217.775994 135.979995,216.740004 136.932,215.884 C137.884005,215.027996 139.023993,214.6 140.352,214.6 C141.680007,214.6 142.815995,215.031996 143.76,215.896 Z M142.512,221.512 C143.008002,220.855997 143.256,220.016005 143.256,218.992 C143.256,217.967995 143.008002,217.132003 142.512,216.484 C142.015998,215.835997 141.296005,215.512 140.352,215.512 C139.407995,215.512 138.688002,215.839997 138.192,216.496 C137.695998,217.152003 137.448,217.983995 137.448,218.992 C137.448,220.000005 137.695998,220.831997 138.192,221.488 C138.688002,222.144003 139.407995,222.472 140.352,222.472 C141.296005,222.472 142.015998,222.152003 142.512,221.512 Z M153.304,223 L147.808,223 L147.808,222.496 C148.608004,222.496 149.123999,222.328002 149.356,221.992 C149.588001,221.655998 149.704,220.888006 149.704,219.688 L149.704,212.104 C149.704,210.903994 149.588001,210.136002 149.356,209.8 C149.123999,209.463998 148.608004,209.296 147.808,209.296 L147.808,208.792 L151.408,208.192 L151.408,219.688 C151.408,220.888006 151.523999,221.655998 151.756,221.992 C151.988001,222.328002 152.503996,222.496 153.304,222.496 L153.304,223 Z M158,217.504 L161.984,217.504 C162.144001,217.055998 162.076001,216.620002 161.78,216.196 C161.483999,215.771998 160.976004,215.56 160.256,215.56 C159.743997,215.56 159.284002,215.735998 158.876,216.088 C158.467998,216.440002 158.176001,216.911997 158,217.504 Z M157.856,218.392 C157.711999,219.576006 157.899997,220.539996 158.42,221.284 C158.940003,222.028004 159.791994,222.4 160.976,222.4 C161.376002,222.4 161.831997,222.296001 162.344,222.088 C162.856003,221.879999 163.279998,221.616002 163.616,221.296 L164.048,221.824 C163.615998,222.288002 163.064003,222.667999 162.392,222.964 C161.719997,223.260001 161.048003,223.408 160.376,223.408 C159.079994,223.408 158.016004,222.980004 157.184,222.124 C156.351996,221.267996 155.936,220.224006 155.936,218.992 C155.936,217.759994 156.387995,216.720004 157.292,215.872 C158.196005,215.023996 159.223994,214.6 160.376,214.6 C161.464005,214.6 162.351997,214.979996 163.04,215.74 C163.728003,216.500004 163.928001,217.383995 163.64,218.392 L157.856,218.392 Z M179.728,215.824 C180.720005,215.824 181.475997,215.528003 181.996,214.936 C182.516003,214.343997 182.776,213.584005 182.776,212.656 C182.776,211.727995 182.516003,210.968003 181.996,210.376 C181.475997,209.783997 180.720005,209.488 179.728,209.488 L177.616,209.488 L177.616,215.824 L179.728,215.824 Z M180.64,216.688 L182.992,219.448 C184.560008,221.320009 186.047993,222.335999 187.456,222.496 L187.456,223 L183.496,223 L178.744,216.688 L177.616,216.688 L177.616,219.688 C177.616,220.888006 177.747999,221.655998 178.012,221.992 C178.276001,222.328002 178.903995,222.496 179.896,222.496 L179.896,223 L173.416,223 L173.416,222.496 C174.408005,222.496 175.035999,222.328002 175.3,221.992 C175.564001,221.655998 175.696,220.888006 175.696,219.688 L175.696,211.888 C175.696,210.687994 175.564001,209.924002 175.3,209.596 C175.035999,209.267998 174.408005,209.104 173.416,209.104 L173.416,208.6 L179.752,208.6 C181.368008,208.6 182.631995,208.983996 183.544,209.752 C184.456005,210.520004 184.912,211.487994 184.912,212.656 C184.912,213.728005 184.532004,214.631996 183.772,215.368 C183.011996,216.104004 181.968007,216.543999 180.64,216.688 Z M191.6,217.504 L195.584,217.504 C195.744001,217.055998 195.676001,216.620002 195.38,216.196 C195.083999,215.771998 194.576004,215.56 193.856,215.56 C193.343997,215.56 192.884002,215.735998 192.476,216.088 C192.067998,216.440002 191.776001,216.911997 191.6,217.504 Z M191.456,218.392 C191.311999,219.576006 191.499997,220.539996 192.02,221.284 C192.540003,222.028004 193.391994,222.4 194.576,222.4 C194.976002,222.4 195.431997,222.296001 195.944,222.088 C196.456003,221.879999 196.879998,221.616002 197.216,221.296 L197.648,221.824 C197.215998,222.288002 196.664003,222.667999 195.992,222.964 C195.319997,223.260001 194.648003,223.408 193.976,223.408 C192.679994,223.408 191.616004,222.980004 190.784,222.124 C189.951996,221.267996 189.536,220.224006 189.536,218.992 C189.536,217.759994 189.987995,216.720004 190.892,215.872 C191.796005,215.023996 192.823994,214.6 193.976,214.6 C195.064005,214.6 195.951997,214.979996 196.64,215.74 C197.328003,216.500004 197.528001,217.383995 197.24,218.392 L191.456,218.392 Z M204.912,215.368 C204.271997,215.368 203.728002,215.735996 203.28,216.472 C202.831998,217.208004 202.608,218.119995 202.608,219.208 C202.608,220.200005 202.851998,220.979997 203.34,221.548 C203.828002,222.116003 204.551995,222.4 205.512,222.4 C206.440005,222.4 207.295996,222.032004 208.08,221.296 L208.488,221.824 C207.511995,222.880005 206.320007,223.408 204.912,223.408 C203.599993,223.408 202.564004,223.016004 201.804,222.232 C201.043996,221.447996 200.664,220.440006 200.664,219.208 C200.664,217.879993 201.111996,216.780004 202.008,215.908 C202.904004,215.035996 203.871995,214.6 204.912,214.6 C205.856005,214.6 206.567998,214.767998 207.048,215.104 C207.528002,215.440002 207.768,215.847998 207.768,216.328 C207.768,216.584001 207.684001,216.819999 207.516,217.036 C207.347999,217.252001 207.080002,217.36 206.712,217.36 C206.455999,217.36 206.236001,217.268001 206.052,217.084 C205.867999,216.899999 205.776,216.672001 205.776,216.4 C205.776,215.711997 205.488003,215.368 204.912,215.368 Z M219.352,215.896 C220.312005,216.744004 220.792,217.775994 220.792,218.992 C220.792,220.208006 220.316005,221.247996 219.364,222.112 C218.411995,222.976004 217.272007,223.408 215.944,223.408 C214.615993,223.408 213.476005,222.976004 212.524,222.112 C211.571995,221.247996 211.096,220.208006 211.096,218.992 C211.096,217.775994 211.571995,216.740004 212.524,215.884 C213.476005,215.027996 214.615993,214.6 215.944,214.6 C217.272007,214.6 218.407995,215.031996 219.352,215.896 Z M218.104,221.512 C218.600002,220.855997 218.848,220.016005 218.848,218.992 C218.848,217.967995 218.600002,217.132003 218.104,216.484 C217.607998,215.835997 216.888005,215.512 215.944,215.512 C214.999995,215.512 214.280002,215.839997 213.784,216.496 C213.287998,217.152003 213.04,217.983995 213.04,218.992 C213.04,220.000005 213.287998,220.831997 213.784,221.488 C214.280002,222.144003 214.999995,222.472 215.944,222.472 C216.888005,222.472 217.607998,222.152003 218.104,221.512 Z M233.336,218.128 L233.336,219.688 C233.336,220.952006 233.419999,221.735998 233.588,222.04 C233.756001,222.344002 234.175997,222.496 234.848,222.496 L234.848,223 L230.144,223 L230.144,222.496 C230.816003,222.496 231.235999,222.344002 231.404,222.04 C231.572001,221.735998 231.656,220.952006 231.656,219.688 L231.656,218.296 C231.656,216.583991 231.080006,215.728 229.928,215.728 C229.431998,215.728 228.896003,215.959998 228.32,216.424 C227.743997,216.888002 227.456,217.455997 227.456,218.128 L227.456,219.688 C227.456,220.936006 227.539999,221.715998 227.708,222.028 C227.876001,222.340002 228.287997,222.496 228.944,222.496 L228.944,223 L223.856,223 L223.856,222.496 C224.656004,222.496 225.171999,222.328002 225.404,221.992 C225.636001,221.655998 225.752,220.888006 225.752,219.688 L225.752,218.488 C225.752,217.303994 225.636001,216.544002 225.404,216.208 C225.171999,215.871998 224.656004,215.704 223.856,215.704 L223.856,215.2 L227.048,214.6 C227.192001,214.904002 227.327999,215.479996 227.456,216.328 C228.368005,215.175994 229.407994,214.6 230.576,214.6 C231.904007,214.6 232.751998,215.199994 233.12,216.4 C233.440002,215.951998 233.915997,215.540002 234.548,215.164 C235.180003,214.787998 235.823997,214.6 236.48,214.6 C238.320009,214.6 239.24,215.791988 239.24,218.176 L239.24,219.688 C239.24,220.888006 239.355999,221.655998 239.588,221.992 C239.820001,222.328002 240.335996,222.496 241.136,222.496 L241.136,223 L236.048,223 L236.048,222.496 C236.720003,222.496 237.135999,222.344002 237.296,222.04 C237.456001,221.735998 237.536,220.952006 237.536,219.688 L237.536,218.296 C237.536,216.583991 236.968006,215.728 235.832,215.728 C235.335998,215.728 234.796003,215.959998 234.212,216.424 C233.627997,216.888002 233.336,217.455997 233.336,218.128 Z M246.288,217.456 L246.288,220.528 C246.512001,221.120003 246.835998,221.587998 247.26,221.932 C247.684002,222.276002 248.167997,222.448 248.712,222.448 C249.608004,222.448 250.287998,222.128003 250.752,221.488 C251.216002,220.847997 251.448,220.016005 251.448,218.992 C251.448,217.983995 251.216002,217.160003 250.752,216.52 C250.287998,215.879997 249.608004,215.56 248.712,215.56 C248.167997,215.56 247.684002,215.731998 247.26,216.076 C246.835998,216.420002 246.512001,216.879997 246.288,217.456 Z M246.144,221.8 L245.088,223.408 L244.584,223.408 L244.584,212.104 C244.584,210.903994 244.468001,210.136002 244.236,209.8 C244.003999,209.463998 243.488004,209.296 242.688,209.296 L242.688,208.792 L246.288,208.192 L246.288,216.016 C247.056004,215.071995 248.031994,214.6 249.216,214.6 C250.352006,214.6 251.327996,215.027996 252.144,215.884 C252.960004,216.740004 253.368,217.775994 253.368,218.992 C253.368,220.208006 252.960004,221.247996 252.144,222.112 C251.327996,222.976004 250.352006,223.408 249.216,223.408 C247.919994,223.408 246.896004,222.872005 246.144,221.8 Z M261.952,223 L256.456,223 L256.456,222.496 C257.256004,222.496 257.771999,222.328002 258.004,221.992 C258.236001,221.655998 258.352,220.888006 258.352,219.688 L258.352,218.488 C258.352,217.303994 258.236001,216.544002 258.004,216.208 C257.771999,215.871998 257.256004,215.704 256.456,215.704 L256.456,215.2 L260.056,214.6 L260.056,219.688 C260.056,220.888006 260.171999,221.655998 260.404,221.992 C260.636001,222.328002 261.151996,222.496 261.952,222.496 L261.952,223 Z M260.248,211.168 C260.248,211.472002 260.144001,211.727999 259.936,211.936 C259.727999,212.144001 259.480001,212.248 259.192,212.248 C258.903999,212.248 258.656001,212.144001 258.448,211.936 C258.239999,211.727999 258.136,211.472002 258.136,211.168 C258.136,210.879999 258.239999,210.632001 258.448,210.424 C258.656001,210.215999 258.903999,210.112 259.192,210.112 C259.480001,210.112 259.727999,210.215999 259.936,210.424 C260.144001,210.632001 260.248,210.879999 260.248,211.168 Z M267.92,216.328 C268.832005,215.175994 269.943993,214.6 271.256,214.6 C272.296005,214.6 273.075997,214.927997 273.596,215.584 C274.116003,216.240003 274.376,217.103995 274.376,218.176 L274.376,219.688 C274.376,220.888006 274.491999,221.655998 274.724,221.992 C274.956001,222.328002 275.471996,222.496 276.272,222.496 L276.272,223 L270.776,223 L270.776,222.496 C271.560004,222.496 272.071999,222.324002 272.312,221.98 C272.552001,221.635998 272.672,220.872006 272.672,219.688 L272.672,218.296 C272.672,216.583991 272.008007,215.728 270.68,215.728 C269.991997,215.728 269.360003,215.967998 268.784,216.448 C268.207997,216.928002 267.92,217.487997 267.92,218.128 L267.92,219.688 C267.92,220.920006 268.015999,221.695998 268.208,222.016 C268.400001,222.336002 268.863996,222.496 269.6,222.496 L269.6,223 L264.32,223 L264.32,222.496 C265.120004,222.496 265.635999,222.328002 265.868,221.992 C266.100001,221.655998 266.216,220.888006 266.216,219.688 L266.216,218.488 C266.216,217.303994 266.100001,216.544002 265.868,216.208 C265.635999,215.871998 265.120004,215.704 264.32,215.704 L264.32,215.2 L267.512,214.6 C267.656001,214.904002 267.791999,215.479996 267.92,216.328 Z M287.016,222.52 C286.551998,223.016002 286.024003,223.264 285.432,223.264 C284.471995,223.264 283.928001,222.800005 283.8,221.872 C282.727995,222.832005 281.728005,223.312 280.8,223.312 C280.191997,223.312 279.680002,223.132002 279.264,222.772 C278.847998,222.411998 278.64,221.920003 278.64,221.296 C278.64,219.615992 280.343983,218.480003 283.752,217.888 C283.752,216.943995 283.648001,216.288002 283.44,215.92 C283.231999,215.551998 282.800003,215.368 282.144,215.368 C281.823998,215.368 281.516001,215.471999 281.22,215.68 C280.923999,215.888001 280.776,216.167998 280.776,216.52 C280.776,216.760001 280.696001,216.959999 280.536,217.12 C280.375999,217.280001 280.184001,217.36 279.96,217.36 C279.719999,217.36 279.520001,217.280001 279.36,217.12 C279.199999,216.959999 279.12,216.760001 279.12,216.52 C279.12,215.959997 279.427997,215.500002 280.044,215.14 C280.660003,214.779998 281.367996,214.6 282.168,214.6 C283.336006,214.6 284.175997,214.855997 284.688,215.368 C285.200003,215.880003 285.456,216.711994 285.456,217.864 L285.456,221.488 C285.456,222.112003 285.639998,222.424 286.008,222.424 C286.216001,222.424 286.439999,222.304001 286.68,222.064 L287.016,222.52 Z M283.752,221.08 L283.752,218.632 C281.543989,219.144003 280.44,219.935995 280.44,221.008 C280.44,221.376002 280.547999,221.671999 280.764,221.896 C280.980001,222.120001 281.247998,222.232 281.568,222.232 C282.160003,222.232 282.887996,221.848004 283.752,221.08 Z M290.32,215.848 L289.072,215.848 L289.072,215.272 C289.760003,215.127999 290.263998,214.816002 290.584,214.336 C290.904002,213.855998 291.112,213.200004 291.208,212.368 L292.024,212.368 L292.024,215.008 L294.112,215.008 L294.112,215.848 L292.024,215.848 L292.024,220.648 C292.024,221.800006 292.383996,222.376 293.104,222.376 C293.568002,222.376 294.087997,222.104003 294.664,221.56 L295.072,221.968 C294.735998,222.368002 294.332002,222.695999 293.86,222.952 C293.387998,223.208001 292.952002,223.336 292.552,223.336 C291.863997,223.336 291.320002,223.112002 290.92,222.664 C290.519998,222.215998 290.32,221.544004 290.32,220.648 L290.32,215.848 Z M302.888,223 L297.392,223 L297.392,222.496 C298.192004,222.496 298.707999,222.328002 298.94,221.992 C299.172001,221.655998 299.288,220.888006 299.288,219.688 L299.288,218.488 C299.288,217.303994 299.172001,216.544002 298.94,216.208 C298.707999,215.871998 298.192004,215.704 297.392,215.704 L297.392,215.2 L300.992,214.6 L300.992,219.688 C300.992,220.888006 301.107999,221.655998 301.34,221.992 C301.572001,222.328002 302.087996,222.496 302.888,222.496 L302.888,223 Z M301.184,211.168 C301.184,211.472002 301.080001,211.727999 300.872,211.936 C300.663999,212.144001 300.416001,212.248 300.128,212.248 C299.839999,212.248 299.592001,212.144001 299.384,211.936 C299.175999,211.727999 299.072,211.472002 299.072,211.168 C299.072,210.879999 299.175999,210.632001 299.384,210.424 C299.592001,210.215999 299.839999,210.112 300.128,210.112 C300.416001,210.112 300.663999,210.215999 300.872,210.424 C301.080001,210.632001 301.184,210.879999 301.184,211.168 Z M313.752,215.896 C314.712005,216.744004 315.192,217.775994 315.192,218.992 C315.192,220.208006 314.716005,221.247996 313.764,222.112 C312.811995,222.976004 311.672007,223.408 310.344,223.408 C309.015993,223.408 307.876005,222.976004 306.924,222.112 C305.971995,221.247996 305.496,220.208006 305.496,218.992 C305.496,217.775994 305.971995,216.740004 306.924,215.884 C307.876005,215.027996 309.015993,214.6 310.344,214.6 C311.672007,214.6 312.807995,215.031996 313.752,215.896 Z M312.504,221.512 C313.000002,220.855997 313.248,220.016005 313.248,218.992 C313.248,217.967995 313.000002,217.132003 312.504,216.484 C312.007998,215.835997 311.288005,215.512 310.344,215.512 C309.399995,215.512 308.680002,215.839997 308.184,216.496 C307.687998,217.152003 307.44,217.983995 307.44,218.992 C307.44,220.000005 307.687998,220.831997 308.184,221.488 C308.680002,222.144003 309.399995,222.472 310.344,222.472 C311.288005,222.472 312.007998,222.152003 312.504,221.512 Z M321.856,216.328 C322.768005,215.175994 323.879993,214.6 325.192,214.6 C326.232005,214.6 327.011997,214.927997 327.532,215.584 C328.052003,216.240003 328.312,217.103995 328.312,218.176 L328.312,219.688 C328.312,220.888006 328.427999,221.655998 328.66,221.992 C328.892001,222.328002 329.407996,222.496 330.208,222.496 L330.208,223 L324.712,223 L324.712,222.496 C325.496004,222.496 326.007999,222.324002 326.248,221.98 C326.488001,221.635998 326.608,220.872006 326.608,219.688 L326.608,218.296 C326.608,216.583991 325.944007,215.728 324.616,215.728 C323.927997,215.728 323.296003,215.967998 322.72,216.448 C322.143997,216.928002 321.856,217.487997 321.856,218.128 L321.856,219.688 C321.856,220.920006 321.951999,221.695998 322.144,222.016 C322.336001,222.336002 322.799996,222.496 323.536,222.496 L323.536,223 L318.256,223 L318.256,222.496 C319.056004,222.496 319.571999,222.328002 319.804,221.992 C320.036001,221.655998 320.152,220.888006 320.152,219.688 L320.152,218.488 C320.152,217.303994 320.036001,216.544002 319.804,216.208 C319.571999,215.871998 319.056004,215.704 318.256,215.704 L318.256,215.2 L321.448,214.6 C321.592001,214.904002 321.727999,215.479996 321.856,216.328 Z" id="Electron-+-Hole-Reco-Copy" fill="#524740"></path>
                <path d="M335.248,2.6 C336.864008,2.6 338.127995,2.98399616 339.04,3.752 C339.952005,4.52000384 340.408,5.48799416 340.408,6.656 C340.408,7.82400584 339.952005,8.7879962 339.04,9.548 C338.127995,10.3080038 336.864008,10.688 335.248,10.688 L333.112,10.688 L333.112,13.688 C333.112,14.888006 333.243999,15.6559983 333.508,15.992 C333.772001,16.3280017 334.399995,16.496 335.392,16.496 L335.392,17 L328.912,17 L328.912,16.496 C329.904005,16.496 330.531999,16.3280017 330.796,15.992 C331.060001,15.6559983 331.192,14.888006 331.192,13.688 L331.192,5.888 C331.192,4.687994 331.060001,3.92400164 330.796,3.596 C330.531999,3.26799836 329.904005,3.104 328.912,3.104 L328.912,2.6 L335.248,2.6 Z M335.224,9.824 C336.216005,9.824 336.971997,9.52800296 337.492,8.936 C338.012003,8.34399704 338.272,7.58400464 338.272,6.656 C338.272,5.72799536 338.012003,4.96800296 337.492,4.376 C336.971997,3.78399704 336.216005,3.488 335.224,3.488 L333.112,3.488 L333.112,9.824 L335.224,9.824 Z M354.272,17 L348.968,17 L348.968,16.496 C349.720004,16.496 350.191999,16.3360016 350.384,16.016 C350.576001,15.6959984 350.672,14.9200062 350.672,13.688 L350.672,12.296 C350.672,10.5839914 350.064006,9.728 348.848,9.728 C348.207997,9.728 347.616003,9.96399764 347.072,10.436 C346.527997,10.9080024 346.256,11.4719967 346.256,12.128 L346.256,13.688 C346.256,14.9360062 346.343999,15.7159984 346.52,16.028 C346.696001,16.3400016 347.111997,16.496 347.768,16.496 L347.768,17 L342.656,17 L342.656,16.496 C343.456004,16.496 343.971999,16.3280017 344.204,15.992 C344.436001,15.6559983 344.552,14.888006 344.552,13.688 L344.552,6.104 C344.552,4.903994 344.436001,4.13600168 344.204,3.8 C343.971999,3.46399832 343.456004,3.296 342.656,3.296 L342.656,2.792 L346.256,2.192 L346.256,10.328 C347.200005,9.17599424 348.247994,8.6 349.4,8.6 C351.36801,8.6 352.352,9.79198808 352.352,12.176 L352.352,13.688 C352.352,14.888006 352.467999,15.6559983 352.7,15.992 C352.932001,16.3280017 353.455996,16.496 354.272,16.496 L354.272,17 Z M365.136,9.896 C366.096005,10.7440042 366.576,11.7759939 366.576,12.992 C366.576,14.2080061 366.100005,15.2479957 365.148,16.112 C364.195995,16.9760043 363.056007,17.408 361.728,17.408 C360.399993,17.408 359.260005,16.9760043 358.308,16.112 C357.355995,15.2479957 356.88,14.2080061 356.88,12.992 C356.88,11.7759939 357.355995,10.7400043 358.308,9.884 C359.260005,9.02799572 360.399993,8.6 361.728,8.6 C363.056007,8.6 364.191995,9.03199568 365.136,9.896 Z M363.888,15.512 C364.384002,14.8559967 364.632,14.0160051 364.632,12.992 C364.632,11.9679949 364.384002,11.1320032 363.888,10.484 C363.391998,9.83599676 362.672005,9.512 361.728,9.512 C360.783995,9.512 360.064002,9.83999672 359.568,10.496 C359.071998,11.1520033 358.824,11.983995 358.824,12.992 C358.824,14.000005 359.071998,14.8319967 359.568,15.488 C360.064002,16.1440033 360.783995,16.472 361.728,16.472 C362.672005,16.472 363.391998,16.1520032 363.888,15.512 Z M370.648,9.848 L369.4,9.848 L369.4,9.272 C370.088003,9.12799928 370.591998,8.8160024 370.912,8.336 C371.232002,7.8559976 371.44,7.20000416 371.536,6.368 L372.352,6.368 L372.352,9.008 L374.44,9.008 L374.44,9.848 L372.352,9.848 L372.352,14.648 C372.352,15.8000058 372.711996,16.376 373.432,16.376 C373.896002,16.376 374.415997,16.1040027 374.992,15.56 L375.4,15.968 C375.063998,16.368002 374.660002,16.6959987 374.188,16.952 C373.715998,17.2080013 373.280002,17.336 372.88,17.336 C372.191997,17.336 371.648002,17.1120022 371.248,16.664 C370.847998,16.2159978 370.648,15.5440045 370.648,14.648 L370.648,9.848 Z M386.216,9.896 C387.176005,10.7440042 387.656,11.7759939 387.656,12.992 C387.656,14.2080061 387.180005,15.2479957 386.228,16.112 C385.275995,16.9760043 384.136007,17.408 382.808,17.408 C381.479993,17.408 380.340005,16.9760043 379.388,16.112 C378.435995,15.2479957 377.96,14.2080061 377.96,12.992 C377.96,11.7759939 378.435995,10.7400043 379.388,9.884 C380.340005,9.02799572 381.479993,8.6 382.808,8.6 C384.136007,8.6 385.271995,9.03199568 386.216,9.896 Z M384.968,15.512 C385.464002,14.8559967 385.712,14.0160051 385.712,12.992 C385.712,11.9679949 385.464002,11.1320032 384.968,10.484 C384.471998,9.83599676 383.752005,9.512 382.808,9.512 C381.863995,9.512 381.144002,9.83999672 380.648,10.496 C380.151998,11.1520033 379.904,11.983995 379.904,12.992 C379.904,14.000005 380.151998,14.8319967 380.648,15.488 C381.144002,16.1440033 381.863995,16.472 382.808,16.472 C383.752005,16.472 384.471998,16.1520032 384.968,15.512 Z M394.32,10.328 C395.232005,9.17599424 396.343993,8.6 397.656,8.6 C398.696005,8.6 399.475997,8.92799672 399.996,9.584 C400.516003,10.2400033 400.776,11.1039946 400.776,12.176 L400.776,13.688 C400.776,14.888006 400.891999,15.6559983 401.124,15.992 C401.356001,16.3280017 401.871996,16.496 402.672,16.496 L402.672,17 L397.176,17 L397.176,16.496 C397.960004,16.496 398.471999,16.3240017 398.712,15.98 C398.952001,15.6359983 399.072,14.8720059 399.072,13.688 L399.072,12.296 C399.072,10.5839914 398.408007,9.728 397.08,9.728 C396.391997,9.728 395.760003,9.9679976 395.184,10.448 C394.607997,10.9280024 394.32,11.4879968 394.32,12.128 L394.32,13.688 C394.32,14.9200062 394.415999,15.6959984 394.608,16.016 C394.800001,16.3360016 395.263996,16.496 396,16.496 L396,17 L390.72,17 L390.72,16.496 C391.520004,16.496 392.035999,16.3280017 392.268,15.992 C392.500001,15.6559983 392.616,14.888006 392.616,13.688 L392.616,12.488 C392.616,11.3039941 392.500001,10.5440017 392.268,10.208 C392.035999,9.87199832 391.520004,9.704 390.72,9.704 L390.72,9.2 L393.912,8.6 C394.056001,8.90400152 394.191999,9.47999576 394.32,10.328 Z M411.208,14.792 C411.208,15.5600038 410.932003,16.1879976 410.38,16.676 C409.827997,17.1640024 409.152004,17.408 408.352,17.408 C408.063999,17.408 407.768002,17.3520006 407.464,17.24 C407.159998,17.1279994 406.916001,17.0200005 406.732,16.916 C406.547999,16.8119995 406.376001,16.7320003 406.216,16.676 C406.055999,16.6199997 405.944,16.6479994 405.88,16.76 C405.816,16.8720006 405.784,17.0879984 405.784,17.408 L405.28,17.408 L405.28,13.904 L405.784,13.904 C405.784,14.5280031 406.023998,15.1319971 406.504,15.716 C406.984002,16.3000029 407.615996,16.592 408.4,16.592 C408.784002,16.592 409.107999,16.4720012 409.372,16.232 C409.636001,15.9919988 409.768,15.7040017 409.768,15.368 C409.768,14.8719975 409.320004,14.3840024 408.424,13.904 L407.08,13.184 C406.023995,12.6079971 405.496,11.8080051 405.496,10.784 C405.496,10.1599969 405.739998,9.64000208 406.228,9.224 C406.716002,8.80799792 407.279997,8.6 407.92,8.6 C408.464003,8.6 409.023997,8.74399856 409.6,9.032 C409.792001,9.14400056 409.924,9.1800002 409.996,9.14 C410.068,9.0999998 410.104,8.9200016 410.104,8.6 L410.608,8.6 L410.608,11.384 L410.104,11.384 C410.104,10.8559974 409.924002,10.388002 409.564,9.98 C409.203998,9.57199796 408.736003,9.368 408.16,9.368 C407.759998,9.368 407.456001,9.46399904 407.248,9.656 C407.039999,9.84800096 406.936,10.0959985 406.936,10.4 C406.936,10.6720014 407.039999,10.907999 407.248,11.108 C407.456001,11.308001 407.839997,11.5599985 408.4,11.864 L409.552,12.488 C410.656006,13.1120031 411.208,13.8799954 411.208,14.792 Z" id="Photons-Copy" fill="#524740"></path>
                <path d="M448.984,66.008 L447.832,68.672 C447.527998,69.3280033 447.515999,69.7959986 447.796,70.076 C448.076001,70.3560014 448.711995,70.496 449.704,70.496 L449.704,71 L444.088,71 L444.088,70.496 C444.600003,70.496 444.995999,70.4760002 445.276,70.436 C445.556001,70.3959998 445.803999,70.2680011 446.02,70.052 C446.236001,69.8359989 446.388,69.6400009 446.476,69.464 C446.564,69.2879991 446.727999,68.9360026 446.968,68.408 L452.248,56.192 L452.56,56.192 L457.864,68.408 C458.104001,68.9360026 458.268,69.2879991 458.356,69.464 C458.444,69.6400009 458.595999,69.8359989 458.812,70.052 C459.028001,70.2680011 459.271999,70.3959998 459.544,70.436 C459.816001,70.4760002 460.207997,70.496 460.72,70.496 L460.72,71 L454.072,71 L454.072,70.496 C455.064005,70.496 455.695999,70.3560014 455.968,70.076 C456.240001,69.7959986 456.232001,69.3280033 455.944,68.672 L454.792,66.008 L448.984,66.008 Z M454.384,65.12 L451.864,59.336 L449.368,65.12 L454.384,65.12 Z M465.32,64.328 C466.232005,63.1759942 467.343993,62.6 468.656,62.6 C469.696005,62.6 470.475997,62.9279967 470.996,63.584 C471.516003,64.2400033 471.776,65.1039946 471.776,66.176 L471.776,67.688 C471.776,68.888006 471.891999,69.6559983 472.124,69.992 C472.356001,70.3280017 472.871996,70.496 473.672,70.496 L473.672,71 L468.176,71 L468.176,70.496 C468.960004,70.496 469.471999,70.3240017 469.712,69.98 C469.952001,69.6359983 470.072,68.8720059 470.072,67.688 L470.072,66.296 C470.072,64.5839914 469.408007,63.728 468.08,63.728 C467.391997,63.728 466.760003,63.9679976 466.184,64.448 C465.607997,64.9280024 465.32,65.4879968 465.32,66.128 L465.32,67.688 C465.32,68.9200062 465.415999,69.6959984 465.608,70.016 C465.800001,70.3360016 466.263996,70.496 467,70.496 L467,71 L461.72,71 L461.72,70.496 C462.520004,70.496 463.035999,70.3280017 463.268,69.992 C463.500001,69.6559983 463.616,68.888006 463.616,67.688 L463.616,66.488 C463.616,65.3039941 463.500001,64.5440017 463.268,64.208 C463.035999,63.8719983 462.520004,63.704 461.72,63.704 L461.72,63.2 L464.912,62.6 C465.056001,62.9040015 465.191999,63.4799958 465.32,64.328 Z M484.536,63.896 C485.496005,64.7440042 485.976,65.7759939 485.976,66.992 C485.976,68.2080061 485.500005,69.2479957 484.548,70.112 C483.595995,70.9760043 482.456007,71.408 481.128,71.408 C479.799993,71.408 478.660005,70.9760043 477.708,70.112 C476.755995,69.2479957 476.28,68.2080061 476.28,66.992 C476.28,65.7759939 476.755995,64.7400043 477.708,63.884 C478.660005,63.0279957 479.799993,62.6 481.128,62.6 C482.456007,62.6 483.591995,63.0319957 484.536,63.896 Z M483.288,69.512 C483.784002,68.8559967 484.032,68.0160051 484.032,66.992 C484.032,65.9679949 483.784002,65.1320032 483.288,64.484 C482.791998,63.8359968 482.072005,63.512 481.128,63.512 C480.183995,63.512 479.464002,63.8399967 478.968,64.496 C478.471998,65.1520033 478.224,65.983995 478.224,66.992 C478.224,68.000005 478.471998,68.8319967 478.968,69.488 C479.464002,70.1440033 480.183995,70.472 481.128,70.472 C482.072005,70.472 482.791998,70.1520032 483.288,69.512 Z M496.384,68.552 L496.384,65.456 C496.159999,64.8799971 495.832002,64.4200017 495.4,64.076 C494.967998,63.7319983 494.488003,63.56 493.96,63.56 C493.063996,63.56 492.384002,63.8799968 491.92,64.52 C491.455998,65.1600032 491.224,65.983995 491.224,66.992 C491.224,68.0160051 491.455998,68.8479968 491.92,69.488 C492.384002,70.1280032 493.063996,70.448 493.96,70.448 C494.488003,70.448 494.967998,70.2760017 495.4,69.932 C495.832002,69.5879983 496.159999,69.1280029 496.384,68.552 Z M496.384,64.016 L496.384,60.104 C496.384,58.903994 496.268001,58.1360017 496.036,57.8 C495.803999,57.4639983 495.288004,57.296 494.488,57.296 L494.488,56.792 L498.088,56.192 L498.088,67.496 C498.088,68.696006 498.203999,69.4639983 498.436,69.8 C498.668001,70.1360017 499.183996,70.304 499.984,70.304 L499.984,70.808 L496.792,71.408 C496.679999,71.1679988 496.552001,70.6800037 496.408,69.944 C495.623996,70.9200049 494.640006,71.408 493.456,71.408 C492.319994,71.408 491.340004,70.9760043 490.516,70.112 C489.691996,69.2479957 489.28,68.2080061 489.28,66.992 C489.28,65.7759939 489.691996,64.7400043 490.516,63.884 C491.340004,63.0279957 492.319994,62.6 493.456,62.6 C494.640006,62.6 495.615996,63.0719953 496.384,64.016 Z M504.656,65.504 L508.64,65.504 C508.800001,65.0559978 508.732001,64.6200021 508.436,64.196 C508.139999,63.7719979 507.632004,63.56 506.912,63.56 C506.399997,63.56 505.940002,63.7359982 505.532,64.088 C505.123998,64.4400018 504.832001,64.911997 504.656,65.504 Z M504.512,66.392 C504.367999,67.5760059 504.555997,68.5399963 505.076,69.284 C505.596003,70.0280037 506.447994,70.4 507.632,70.4 C508.032002,70.4 508.487997,70.296001 509,70.088 C509.512003,69.879999 509.935998,69.6160016 510.272,69.296 L510.704,69.824 C510.271998,70.2880023 509.720003,70.6679985 509.048,70.964 C508.375997,71.2600015 507.704003,71.408 507.032,71.408 C505.735994,71.408 504.672004,70.9800043 503.84,70.124 C503.007996,69.2679957 502.592,68.2240062 502.592,66.992 C502.592,65.7599938 503.043995,64.7200042 503.948,63.872 C504.852005,63.0239958 505.879994,62.6 507.032,62.6 C508.120005,62.6 509.007997,62.9799962 509.696,63.74 C510.384003,64.5000038 510.584001,65.383995 510.296,66.392 L504.512,66.392 Z M526.408,56.6 C528.024008,56.6 529.287995,56.9839962 530.2,57.752 C531.112005,58.5200038 531.568,59.4879942 531.568,60.656 C531.568,61.8240058 531.112005,62.7879962 530.2,63.548 C529.287995,64.3080038 528.024008,64.688 526.408,64.688 L524.272,64.688 L524.272,67.688 C524.272,68.888006 524.403999,69.6559983 524.668,69.992 C524.932001,70.3280017 525.559995,70.496 526.552,70.496 L526.552,71 L520.072,71 L520.072,70.496 C521.064005,70.496 521.691999,70.3280017 521.956,69.992 C522.220001,69.6559983 522.352,68.888006 522.352,67.688 L522.352,59.888 C522.352,58.687994 522.220001,57.9240016 521.956,57.596 C521.691999,57.2679984 521.064005,57.104 520.072,57.104 L520.072,56.6 L526.408,56.6 Z M526.384,63.824 C527.376005,63.824 528.131997,63.528003 528.652,62.936 C529.172003,62.343997 529.432,61.5840046 529.432,60.656 C529.432,59.7279954 529.172003,58.968003 528.652,58.376 C528.131997,57.783997 527.376005,57.488 526.384,57.488 L524.272,57.488 L524.272,63.824 L526.384,63.824 Z M539.312,71 L533.816,71 L533.816,70.496 C534.616004,70.496 535.131999,70.3280017 535.364,69.992 C535.596001,69.6559983 535.712,68.888006 535.712,67.688 L535.712,60.104 C535.712,58.903994 535.596001,58.1360017 535.364,57.8 C535.131999,57.4639983 534.616004,57.296 533.816,57.296 L533.816,56.792 L537.416,56.192 L537.416,67.688 C537.416,68.888006 537.531999,69.6559983 537.764,69.992 C537.996001,70.3280017 538.511996,70.496 539.312,70.496 L539.312,71 Z M550.08,70.52 C549.615998,71.0160025 549.088003,71.264 548.496,71.264 C547.535995,71.264 546.992001,70.8000046 546.864,69.872 C545.791995,70.8320048 544.792005,71.312 543.864,71.312 C543.255997,71.312 542.744002,71.1320018 542.328,70.772 C541.911998,70.4119982 541.704,69.9200031 541.704,69.296 C541.704,67.6159916 543.407983,66.480003 546.816,65.888 C546.816,64.9439953 546.712001,64.2880018 546.504,63.92 C546.295999,63.5519982 545.864003,63.368 545.208,63.368 C544.887998,63.368 544.580001,63.471999 544.284,63.68 C543.987999,63.888001 543.84,64.1679982 543.84,64.52 C543.84,64.7600012 543.760001,64.9599992 543.6,65.12 C543.439999,65.2800008 543.248001,65.36 543.024,65.36 C542.783999,65.36 542.584001,65.2800008 542.424,65.12 C542.263999,64.9599992 542.184,64.7600012 542.184,64.52 C542.184,63.9599972 542.491997,63.5000018 543.108,63.14 C543.724003,62.7799982 544.431996,62.6 545.232,62.6 C546.400006,62.6 547.239997,62.8559974 547.752,63.368 C548.264003,63.8800026 548.52,64.7119942 548.52,65.864 L548.52,69.488 C548.52,70.1120031 548.703998,70.424 549.072,70.424 C549.280001,70.424 549.503999,70.3040012 549.744,70.064 L550.08,70.52 Z M546.816,69.08 L546.816,66.632 C544.607989,67.1440026 543.504,67.9359946 543.504,69.008 C543.504,69.3760018 543.611999,69.6719989 543.828,69.896 C544.044001,70.1200011 544.311998,70.232 544.632,70.232 C545.224003,70.232 545.951996,69.8480038 546.816,69.08 Z M553.384,63.848 L552.136,63.848 L552.136,63.272 C552.824003,63.1279993 553.327998,62.8160024 553.648,62.336 C553.968002,61.8559976 554.176,61.2000042 554.272,60.368 L555.088,60.368 L555.088,63.008 L557.176,63.008 L557.176,63.848 L555.088,63.848 L555.088,68.648 C555.088,69.8000058 555.447996,70.376 556.168,70.376 C556.632002,70.376 557.151997,70.1040027 557.728,69.56 L558.136,69.968 C557.799998,70.368002 557.396002,70.6959987 556.924,70.952 C556.451998,71.2080013 556.016002,71.336 555.616,71.336 C554.927997,71.336 554.384002,71.1120022 553.984,70.664 C553.583998,70.2159978 553.384,69.5440045 553.384,68.648 L553.384,63.848 Z M562.76,65.504 L566.744,65.504 C566.904001,65.0559978 566.836001,64.6200021 566.54,64.196 C566.243999,63.7719979 565.736004,63.56 565.016,63.56 C564.503997,63.56 564.044002,63.7359982 563.636,64.088 C563.227998,64.4400018 562.936001,64.911997 562.76,65.504 Z M562.616,66.392 C562.471999,67.5760059 562.659997,68.5399963 563.18,69.284 C563.700003,70.0280037 564.551994,70.4 565.736,70.4 C566.136002,70.4 566.591997,70.296001 567.104,70.088 C567.616003,69.879999 568.039998,69.6160016 568.376,69.296 L568.808,69.824 C568.375998,70.2880023 567.824003,70.6679985 567.152,70.964 C566.479997,71.2600015 565.808003,71.408 565.136,71.408 C563.839994,71.408 562.776004,70.9800043 561.944,70.124 C561.111996,69.2679957 560.696,68.2240062 560.696,66.992 C560.696,65.7599938 561.147995,64.7200042 562.052,63.872 C562.956005,63.0239958 563.983994,62.6 565.136,62.6 C566.224005,62.6 567.111997,62.9799962 567.8,63.74 C568.488003,64.5000038 568.688001,65.383995 568.4,66.392 L562.616,66.392 Z M577.752,68.792 C577.752,69.5600038 577.476003,70.1879976 576.924,70.676 C576.371997,71.1640024 575.696004,71.408 574.896,71.408 C574.607999,71.408 574.312002,71.3520006 574.008,71.24 C573.703998,71.1279994 573.460001,71.0200005 573.276,70.916 C573.091999,70.8119995 572.920001,70.7320003 572.76,70.676 C572.599999,70.6199997 572.488,70.6479994 572.424,70.76 C572.36,70.8720006 572.328,71.0879984 572.328,71.408 L571.824,71.408 L571.824,67.904 L572.328,67.904 C572.328,68.5280031 572.567998,69.1319971 573.048,69.716 C573.528002,70.3000029 574.159996,70.592 574.944,70.592 C575.328002,70.592 575.651999,70.4720012 575.916,70.232 C576.180001,69.9919988 576.312,69.7040017 576.312,69.368 C576.312,68.8719975 575.864004,68.3840024 574.968,67.904 L573.624,67.184 C572.567995,66.6079971 572.04,65.8080051 572.04,64.784 C572.04,64.1599969 572.283998,63.6400021 572.772,63.224 C573.260002,62.8079979 573.823997,62.6 574.464,62.6 C575.008003,62.6 575.567997,62.7439986 576.144,63.032 C576.336001,63.1440006 576.468,63.1800002 576.54,63.14 C576.612,63.0999998 576.648,62.9200016 576.648,62.6 L577.152,62.6 L577.152,65.384 L576.648,65.384 C576.648,64.8559974 576.468002,64.388002 576.108,63.98 C575.747998,63.571998 575.280003,63.368 574.704,63.368 C574.303998,63.368 574.000001,63.463999 573.792,63.656 C573.583999,63.848001 573.48,64.0959985 573.48,64.4 C573.48,64.6720014 573.583999,64.907999 573.792,65.108 C574.000001,65.308001 574.383997,65.5599985 574.944,65.864 L576.096,66.488 C577.200006,67.1120031 577.752,67.8799954 577.752,68.792 Z" id="Anode-Plates-Copy" fill="#524740"></path>
                <path d="M513.832,196.736 L513.352,196.736 C513.223999,196.111997 512.952002,195.656001 512.536,195.368 C511.223993,196.728007 509.736008,197.408 508.072,197.408 C506.03999,197.408 504.304007,196.664007 502.864,195.176 C501.423993,193.687993 500.704,191.89601 500.704,189.8 C500.704,187.70399 501.423993,185.912007 502.864,184.424 C504.304007,182.935993 506.03999,182.192 508.072,182.192 C509.768008,182.192 511.255994,182.871993 512.536,184.232 C512.968002,183.895998 513.239999,183.440003 513.352,182.864 L513.832,182.864 L513.832,188.144 L513.352,188.144 C513.015998,186.559992 512.396005,185.328004 511.492,184.448 C510.587995,183.567996 509.480007,183.128 508.168,183.128 C507.255995,183.128 506.448004,183.331998 505.744,183.74 C505.039996,184.148002 504.492002,184.687997 504.1,185.36 C503.707998,186.032003 503.416001,186.743996 503.224,187.496 C503.031999,188.248004 502.936,189.015996 502.936,189.8 C502.936,190.584004 503.031999,191.351996 503.224,192.104 C503.416001,192.856004 503.707998,193.563997 504.1,194.228 C504.492002,194.892003 505.039996,195.427998 505.744,195.836 C506.448004,196.244002 507.255995,196.448 508.168,196.448 C509.480007,196.448 510.587995,196.004004 511.492,195.116 C512.396005,194.227996 513.015998,193.008008 513.352,191.456 L513.832,191.456 L513.832,196.736 Z M525.896,196.52 C525.431998,197.016002 524.904003,197.264 524.312,197.264 C523.351995,197.264 522.808001,196.800005 522.68,195.872 C521.607995,196.832005 520.608005,197.312 519.68,197.312 C519.071997,197.312 518.560002,197.132002 518.144,196.772 C517.727998,196.411998 517.52,195.920003 517.52,195.296 C517.52,193.615992 519.223983,192.480003 522.632,191.888 C522.632,190.943995 522.528001,190.288002 522.32,189.92 C522.111999,189.551998 521.680003,189.368 521.024,189.368 C520.703998,189.368 520.396001,189.471999 520.1,189.68 C519.803999,189.888001 519.656,190.167998 519.656,190.52 C519.656,190.760001 519.576001,190.959999 519.416,191.12 C519.255999,191.280001 519.064001,191.36 518.84,191.36 C518.599999,191.36 518.400001,191.280001 518.24,191.12 C518.079999,190.959999 518,190.760001 518,190.52 C518,189.959997 518.307997,189.500002 518.924,189.14 C519.540003,188.779998 520.247996,188.6 521.048,188.6 C522.216006,188.6 523.055997,188.855997 523.568,189.368 C524.080003,189.880003 524.336,190.711994 524.336,191.864 L524.336,195.488 C524.336,196.112003 524.519998,196.424 524.888,196.424 C525.096001,196.424 525.319999,196.304001 525.56,196.064 L525.896,196.52 Z M522.632,195.08 L522.632,192.632 C520.423989,193.144003 519.32,193.935995 519.32,195.008 C519.32,195.376002 519.427999,195.671999 519.644,195.896 C519.860001,196.120001 520.127998,196.232 520.448,196.232 C521.040003,196.232 521.767996,195.848004 522.632,195.08 Z M529.2,189.848 L527.952,189.848 L527.952,189.272 C528.640003,189.127999 529.143998,188.816002 529.464,188.336 C529.784002,187.855998 529.992,187.200004 530.088,186.368 L530.904,186.368 L530.904,189.008 L532.992,189.008 L532.992,189.848 L530.904,189.848 L530.904,194.648 C530.904,195.800006 531.263996,196.376 531.984,196.376 C532.448002,196.376 532.967997,196.104003 533.544,195.56 L533.952,195.968 C533.615998,196.368002 533.212002,196.695999 532.74,196.952 C532.267998,197.208001 531.832002,197.336 531.432,197.336 C530.743997,197.336 530.200002,197.112002 529.8,196.664 C529.399998,196.215998 529.2,195.544004 529.2,194.648 L529.2,189.848 Z M547.432,197 L542.128,197 L542.128,196.496 C542.880004,196.496 543.351999,196.336002 543.544,196.016 C543.736001,195.695998 543.832,194.920006 543.832,193.688 L543.832,192.296 C543.832,190.583991 543.224006,189.728 542.008,189.728 C541.367997,189.728 540.776003,189.963998 540.232,190.436 C539.687997,190.908002 539.416,191.471997 539.416,192.128 L539.416,193.688 C539.416,194.936006 539.503999,195.715998 539.68,196.028 C539.856001,196.340002 540.271997,196.496 540.928,196.496 L540.928,197 L535.816,197 L535.816,196.496 C536.616004,196.496 537.131999,196.328002 537.364,195.992 C537.596001,195.655998 537.712,194.888006 537.712,193.688 L537.712,186.104 C537.712,184.903994 537.596001,184.136002 537.364,183.8 C537.131999,183.463998 536.616004,183.296 535.816,183.296 L535.816,182.792 L539.416,182.192 L539.416,190.328 C540.360005,189.175994 541.407994,188.6 542.56,188.6 C544.52801,188.6 545.512,189.791988 545.512,192.176 L545.512,193.688 C545.512,194.888006 545.627999,195.655998 545.86,195.992 C546.092001,196.328002 546.615996,196.496 547.432,196.496 L547.432,197 Z M558.296,189.896 C559.256005,190.744004 559.736,191.775994 559.736,192.992 C559.736,194.208006 559.260005,195.247996 558.308,196.112 C557.355995,196.976004 556.216007,197.408 554.888,197.408 C553.559993,197.408 552.420005,196.976004 551.468,196.112 C550.515995,195.247996 550.04,194.208006 550.04,192.992 C550.04,191.775994 550.515995,190.740004 551.468,189.884 C552.420005,189.027996 553.559993,188.6 554.888,188.6 C556.216007,188.6 557.351995,189.031996 558.296,189.896 Z M557.048,195.512 C557.544002,194.855997 557.792,194.016005 557.792,192.992 C557.792,191.967995 557.544002,191.132003 557.048,190.484 C556.551998,189.835997 555.832005,189.512 554.888,189.512 C553.943995,189.512 553.224002,189.839997 552.728,190.496 C552.231998,191.152003 551.984,191.983995 551.984,192.992 C551.984,194.000005 552.231998,194.831997 552.728,195.488 C553.224002,196.144003 553.943995,196.472 554.888,196.472 C555.832005,196.472 556.551998,196.152003 557.048,195.512 Z M570.144,194.552 L570.144,191.456 C569.919999,190.879997 569.592002,190.420002 569.16,190.076 C568.727998,189.731998 568.248003,189.56 567.72,189.56 C566.823996,189.56 566.144002,189.879997 565.68,190.52 C565.215998,191.160003 564.984,191.983995 564.984,192.992 C564.984,194.016005 565.215998,194.847997 565.68,195.488 C566.144002,196.128003 566.823996,196.448 567.72,196.448 C568.248003,196.448 568.727998,196.276002 569.16,195.932 C569.592002,195.587998 569.919999,195.128003 570.144,194.552 Z M570.144,190.016 L570.144,186.104 C570.144,184.903994 570.028001,184.136002 569.796,183.8 C569.563999,183.463998 569.048004,183.296 568.248,183.296 L568.248,182.792 L571.848,182.192 L571.848,193.496 C571.848,194.696006 571.963999,195.463998 572.196,195.8 C572.428001,196.136002 572.943996,196.304 573.744,196.304 L573.744,196.808 L570.552,197.408 C570.439999,197.167999 570.312001,196.680004 570.168,195.944 C569.383996,196.920005 568.400006,197.408 567.216,197.408 C566.079994,197.408 565.100004,196.976004 564.276,196.112 C563.451996,195.247996 563.04,194.208006 563.04,192.992 C563.04,191.775994 563.451996,190.740004 564.276,189.884 C565.100004,189.027996 566.079994,188.6 567.216,188.6 C568.400006,188.6 569.375996,189.071995 570.144,190.016 Z M578.416,191.504 L582.4,191.504 C582.560001,191.055998 582.492001,190.620002 582.196,190.196 C581.899999,189.771998 581.392004,189.56 580.672,189.56 C580.159997,189.56 579.700002,189.735998 579.292,190.088 C578.883998,190.440002 578.592001,190.911997 578.416,191.504 Z M578.272,192.392 C578.127999,193.576006 578.315997,194.539996 578.836,195.284 C579.356003,196.028004 580.207994,196.4 581.392,196.4 C581.792002,196.4 582.247997,196.296001 582.76,196.088 C583.272003,195.879999 583.695998,195.616002 584.032,195.296 L584.464,195.824 C584.031998,196.288002 583.480003,196.667999 582.808,196.964 C582.135997,197.260001 581.464003,197.408 580.792,197.408 C579.495994,197.408 578.432004,196.980004 577.6,196.124 C576.767996,195.267996 576.352,194.224006 576.352,192.992 C576.352,191.759994 576.803995,190.720004 577.708,189.872 C578.612005,189.023996 579.639994,188.6 580.792,188.6 C581.880005,188.6 582.767997,188.979996 583.456,189.74 C584.144003,190.500004 584.344001,191.383995 584.056,192.392 L578.272,192.392 Z" id="Cathode-Copy" fill="#524740"></path>
                <path d="M125.248,146.6 C126.864008,146.6 128.127995,146.983996 129.04,147.752 C129.952005,148.520004 130.408,149.487994 130.408,150.656 C130.408,151.824006 129.952005,152.787996 129.04,153.548 C128.127995,154.308004 126.864008,154.688 125.248,154.688 L123.112,154.688 L123.112,157.688 C123.112,158.888006 123.243999,159.655998 123.508,159.992 C123.772001,160.328002 124.399995,160.496 125.392,160.496 L125.392,161 L118.912,161 L118.912,160.496 C119.904005,160.496 120.531999,160.328002 120.796,159.992 C121.060001,159.655998 121.192,158.888006 121.192,157.688 L121.192,149.888 C121.192,148.687994 121.060001,147.924002 120.796,147.596 C120.531999,147.267998 119.904005,147.104 118.912,147.104 L118.912,146.6 L125.248,146.6 Z M125.224,153.824 C126.216005,153.824 126.971997,153.528003 127.492,152.936 C128.012003,152.343997 128.272,151.584005 128.272,150.656 C128.272,149.727995 128.012003,148.968003 127.492,148.376 C126.971997,147.783997 126.216005,147.488 125.224,147.488 L123.112,147.488 L123.112,153.824 L125.224,153.824 Z M141.2,156.608 L134.192,156.608 L134.192,155.552 L141.2,155.552 L141.2,156.608 Z M158.376,146.6 L158.592,149.84 L158.088,149.84 L157.968,149.36 C157.775999,148.639996 157.520002,148.156001 157.2,147.908 C156.879998,147.659999 156.208005,147.536 155.184,147.536 L152.04,147.536 L152.04,157.688 C152.04,158.888006 152.175999,159.655998 152.448,159.992 C152.720001,160.328002 153.351995,160.496 154.344,160.496 L154.344,161 L147.84,161 L147.84,160.496 C148.832005,160.496 149.463999,160.328002 149.736,159.992 C150.008001,159.655998 150.144,158.888006 150.144,157.688 L150.144,147.536 L147,147.536 C145.975995,147.536 145.304002,147.659999 144.984,147.908 C144.663998,148.156001 144.408001,148.639996 144.216,149.36 L144.096,149.84 L143.592,149.84 L143.808,146.6 L158.376,146.6 Z M159.544,166.688 C159.544,166.431999 159.639999,166.204001 159.832,166.004 C160.024001,165.803999 160.275998,165.532002 160.588,165.188 C160.900002,164.843998 161.159999,164.408003 161.368,163.88 L162.568,160.88 L159.808,154.904 C159.551999,154.359997 159.312001,153.988001 159.088,153.788 C158.863999,153.587999 158.568002,153.488 158.2,153.488 L158.2,153.008 L162.448,153.008 L162.448,153.488 C161.903997,153.488 161.576001,153.575999 161.464,153.752 C161.351999,153.928001 161.423999,154.311997 161.68,154.904 L163.432,158.744 L164.968,154.904 C165.192001,154.359997 165.256,153.988001 165.16,153.788 C165.064,153.587999 164.768002,153.488 164.272,153.488 L164.272,153.008 L167.632,153.008 L167.632,153.488 C166.879996,153.488 166.312002,153.959995 165.928,154.904 L161.248,166.592 C161.007999,167.184003 160.712002,167.48 160.36,167.48 C160.151999,167.48 159.964001,167.416001 159.796,167.288 C159.627999,167.159999 159.544,166.960001 159.544,166.688 Z M176.864,159.488 C177.328002,158.831997 177.56,158.000005 177.56,156.992 C177.56,155.983995 177.328002,155.160003 176.864,154.52 C176.399998,153.879997 175.728004,153.56 174.848,153.56 C174.303997,153.56 173.820002,153.727998 173.396,154.064 C172.971998,154.400002 172.640001,154.855997 172.4,155.432 L172.4,158.528 C172.640001,159.120003 172.971998,159.587998 173.396,159.932 C173.820002,160.276002 174.303997,160.448 174.848,160.448 C175.728004,160.448 176.399998,160.128003 176.864,159.488 Z M172.4,163.712 C172.4,164.896006 172.515999,165.655998 172.748,165.992 C172.980001,166.328002 173.495996,166.496 174.296,166.496 L174.296,167 L168.8,167 L168.8,166.496 C169.600004,166.496 170.115999,166.332002 170.348,166.004 C170.580001,165.675998 170.696,164.912006 170.696,163.712 L170.696,156.488 C170.696,155.287994 170.580001,154.524002 170.348,154.196 C170.115999,153.867998 169.600004,153.704 168.8,153.704 L168.8,153.2 L172.016,152.6 C172.112,152.776001 172.231999,153.263996 172.376,154.064 C173.192004,153.087995 174.183994,152.6 175.352,152.6 C176.488006,152.6 177.463996,153.027996 178.28,153.884 C179.096004,154.740004 179.504,155.775994 179.504,156.992 C179.504,158.208006 179.096004,159.247996 178.28,160.112 C177.463996,160.976004 176.488006,161.408 175.352,161.408 C174.167994,161.408 173.184004,160.928005 172.4,159.968 L172.4,163.712 Z M184.872,155.504 L188.856,155.504 C189.016001,155.055998 188.948001,154.620002 188.652,154.196 C188.355999,153.771998 187.848004,153.56 187.128,153.56 C186.615997,153.56 186.156002,153.735998 185.748,154.088 C185.339998,154.440002 185.048001,154.911997 184.872,155.504 Z M184.728,156.392 C184.583999,157.576006 184.771997,158.539996 185.292,159.284 C185.812003,160.028004 186.663994,160.4 187.848,160.4 C188.248002,160.4 188.703997,160.296001 189.216,160.088 C189.728003,159.879999 190.151998,159.616002 190.488,159.296 L190.92,159.824 C190.487998,160.288002 189.936003,160.667999 189.264,160.964 C188.591997,161.260001 187.920003,161.408 187.248,161.408 C185.951994,161.408 184.888004,160.980004 184.056,160.124 C183.223996,159.267996 182.808,158.224006 182.808,156.992 C182.808,155.759994 183.259995,154.720004 184.164,153.872 C185.068005,153.023996 186.095994,152.6 187.248,152.6 C188.336005,152.6 189.223997,152.979996 189.912,153.74 C190.600003,154.500004 190.800001,155.383995 190.512,156.392 L184.728,156.392 Z" id="P-Type-Copy" fill="#524740"></path>
                <path d="M131.512,109.024 L131.512,100.888 C131.512,99.687994 131.380001,98.9240016 131.116,98.596 C130.851999,98.2679984 130.224005,98.104 129.232,98.104 L129.232,97.6 L134.704,97.6 L134.704,98.104 C133.711995,98.104 133.080001,98.2679984 132.808,98.596 C132.535999,98.9240016 132.4,99.687994 132.4,100.888 L132.4,112.408 L131.848,112.408 L122.08,100.336 L122.08,108.688 C122.08,109.888006 122.215999,110.655998 122.488,110.992 C122.760001,111.328002 123.391995,111.496 124.384,111.496 L124.384,112 L118.912,112 L118.912,111.496 C119.904005,111.496 120.531999,111.328002 120.796,110.992 C121.060001,110.655998 121.192,109.888006 121.192,108.688 L121.192,100.888 C121.192,99.687994 121.060001,98.9240016 120.796,98.596 C120.531999,98.2679984 119.904005,98.104 118.912,98.104 L118.912,97.6 L122.296,97.6 L131.512,109.024 Z M145.4,107.608 L138.392,107.608 L138.392,106.552 L145.4,106.552 L145.4,107.608 Z M162.576,97.6 L162.792,100.84 L162.288,100.84 L162.168,100.36 C161.975999,99.6399964 161.720002,99.1560012 161.4,98.908 C161.079998,98.6599988 160.408005,98.536 159.384,98.536 L156.24,98.536 L156.24,108.688 C156.24,109.888006 156.375999,110.655998 156.648,110.992 C156.920001,111.328002 157.551995,111.496 158.544,111.496 L158.544,112 L152.04,112 L152.04,111.496 C153.032005,111.496 153.663999,111.328002 153.936,110.992 C154.208001,110.655998 154.344,109.888006 154.344,108.688 L154.344,98.536 L151.2,98.536 C150.175995,98.536 149.504002,98.6599988 149.184,98.908 C148.863998,99.1560012 148.608001,99.6399964 148.416,100.36 L148.296,100.84 L147.792,100.84 L148.008,97.6 L162.576,97.6 Z M163.744,117.688 C163.744,117.431999 163.839999,117.204001 164.032,117.004 C164.224001,116.803999 164.475998,116.532002 164.788,116.188 C165.100002,115.843998 165.359999,115.408003 165.568,114.88 L166.768,111.88 L164.008,105.904 C163.751999,105.359997 163.512001,104.988001 163.288,104.788 C163.063999,104.587999 162.768002,104.488 162.4,104.488 L162.4,104.008 L166.648,104.008 L166.648,104.488 C166.103997,104.488 165.776001,104.575999 165.664,104.752 C165.551999,104.928001 165.623999,105.311997 165.88,105.904 L167.632,109.744 L169.168,105.904 C169.392001,105.359997 169.456,104.988001 169.36,104.788 C169.264,104.587999 168.968002,104.488 168.472,104.488 L168.472,104.008 L171.832,104.008 L171.832,104.488 C171.079996,104.488 170.512002,104.959995 170.128,105.904 L165.448,117.592 C165.207999,118.184003 164.912002,118.48 164.56,118.48 C164.351999,118.48 164.164001,118.416001 163.996,118.288 C163.827999,118.159999 163.744,117.960001 163.744,117.688 Z M181.064,110.488 C181.528002,109.831997 181.76,109.000005 181.76,107.992 C181.76,106.983995 181.528002,106.160003 181.064,105.52 C180.599998,104.879997 179.928004,104.56 179.048,104.56 C178.503997,104.56 178.020002,104.727998 177.596,105.064 C177.171998,105.400002 176.840001,105.855997 176.6,106.432 L176.6,109.528 C176.840001,110.120003 177.171998,110.587998 177.596,110.932 C178.020002,111.276002 178.503997,111.448 179.048,111.448 C179.928004,111.448 180.599998,111.128003 181.064,110.488 Z M176.6,114.712 C176.6,115.896006 176.715999,116.655998 176.948,116.992 C177.180001,117.328002 177.695996,117.496 178.496,117.496 L178.496,118 L173,118 L173,117.496 C173.800004,117.496 174.315999,117.332002 174.548,117.004 C174.780001,116.675998 174.896,115.912006 174.896,114.712 L174.896,107.488 C174.896,106.287994 174.780001,105.524002 174.548,105.196 C174.315999,104.867998 173.800004,104.704 173,104.704 L173,104.2 L176.216,103.6 C176.312,103.776001 176.431999,104.263996 176.576,105.064 C177.392004,104.087995 178.383994,103.6 179.552,103.6 C180.688006,103.6 181.663996,104.027996 182.48,104.884 C183.296004,105.740004 183.704,106.775994 183.704,107.992 C183.704,109.208006 183.296004,110.247996 182.48,111.112 C181.663996,111.976004 180.688006,112.408 179.552,112.408 C178.367994,112.408 177.384004,111.928005 176.6,110.968 L176.6,114.712 Z M189.072,106.504 L193.056,106.504 C193.216001,106.055998 193.148001,105.620002 192.852,105.196 C192.555999,104.771998 192.048004,104.56 191.328,104.56 C190.815997,104.56 190.356002,104.735998 189.948,105.088 C189.539998,105.440002 189.248001,105.911997 189.072,106.504 Z M188.928,107.392 C188.783999,108.576006 188.971997,109.539996 189.492,110.284 C190.012003,111.028004 190.863994,111.4 192.048,111.4 C192.448002,111.4 192.903997,111.296001 193.416,111.088 C193.928003,110.879999 194.351998,110.616002 194.688,110.296 L195.12,110.824 C194.687998,111.288002 194.136003,111.667999 193.464,111.964 C192.791997,112.260001 192.120003,112.408 191.448,112.408 C190.151994,112.408 189.088004,111.980004 188.256,111.124 C187.423996,110.267996 187.008,109.224006 187.008,107.992 C187.008,106.759994 187.459995,105.720004 188.364,104.872 C189.268005,104.023996 190.295994,103.6 191.448,103.6 C192.536005,103.6 193.423997,103.979996 194.112,104.74 C194.800003,105.500004 195.000001,106.383995 194.712,107.392 L188.928,107.392 Z" id="N-Type-Copy" fill="#E0DEDD"></path>
            </g>
            <path id="Line" d="M481.138836,110.180764 L473.72142,131.166623 L473.554797,131.638043 L472.611957,131.304797 L472.77858,130.833377 L480.195995,109.847519 L476.424635,108.514538 L483.666623,101.52858 L484.910196,111.513745 L481.138836,110.180764 Z" fill="#EF7D3B" fill-rule="nonzero"></path>
            <path id="Line-Copy" d="M450.905776,108.667756 L453.737095,120.887136 L453.849959,121.374232 L452.875768,121.599959 L452.762905,121.112864 L449.931585,108.893483 L446.034823,109.796392 L448.387136,100.012905 L454.802538,107.764848 L450.905776,108.667756 Z" fill="#EF7D3B" fill-rule="nonzero"></path>
            <path id="Line-3" d="M621.124903,83.4943534 L656.520801,68.0831356 L657.437666,67.6839368 L658.236063,69.5176657 L657.319199,69.9168644 L621.923301,85.3280823 L624.318493,90.8292688 L608.688,90 L618.729711,77.9931668 L621.124903,83.4943534 Z" fill="#1A80AA" fill-rule="nonzero"></path>
            <path id="Line-3-Copy" d="M670.688,191 L702,191 L703,191 L703,193 L702,193 L670.688,193 L670.688,199 L656.688,192 L670.688,185 L670.688,191 Z" fill="#1A80AA" fill-rule="nonzero"></path>
            <g id="Load" transform="translate(0.000000, 101.000000)" stroke="#3D3530">
                <circle id="Oval" stroke-width="3" cx="40" cy="40" r="40"></circle>
                <g id="+" transform="translate(36.000000, 11.000000)" stroke-width="2">
                    <path d="M4,4 L0,4 L4,4 L4,8 L4,4 Z M4,4 L8,4 L4,4 L4,0 L4,4 Z" id="Combined-Shape"></path>
                </g>
                <g id="-" transform="translate(36.000000, 66.000000)" stroke-width="2">
                    <path d="M0,1 L8,1" id="Path"></path>
                </g>
            </g>
            <text id="Load" font-family="MrsEavesOT-Roman, Mrs Eaves OT" font-size="24" font-weight="normal" letter-spacing="1" fill="#524740">
                <tspan x="15" y="147">Load</tspan>
            </text>
            <polyline id="Path-2" stroke="#3D3530" stroke-width="2" points="203.656 90 203.656 70 40 70 40 100"></polyline>
            <g id="Anode-Electron-Flow" transform="translate(28.000000, 59.000000)" fill="#EF7D3B">
                <circle id="Oval-Copy-44" cx="23.25" cy="163.25" r="3.25"></circle>
                <circle id="Oval-Copy-66" cx="3.25" cy="163.25" r="3.25"></circle>
                <circle id="Oval-Copy-50" cx="43.25" cy="163.25" r="3.25"></circle>
                <circle id="Oval-Copy-51" cx="63.25" cy="163.25" r="3.25"></circle>
                <circle id="Oval-Copy-52" cx="83.25" cy="163.25" r="3.25"></circle>
                <circle id="Oval-Copy-53" cx="103.25" cy="163.25" r="3.25"></circle>
                <circle id="Oval-Copy-54" cx="123.25" cy="163.25" r="3.25"></circle>
                <circle id="Oval-Copy-55" cx="143.25" cy="163.25" r="3.25"></circle>
                <circle id="Oval-Copy-56" cx="163.25" cy="163.25" r="3.25"></circle>
                <circle id="Oval-Copy-57" cx="183.25" cy="163.25" r="3.25"></circle>
                <circle id="Oval-Copy-58" cx="183.25" cy="143.25" r="3.25"></circle>
                <circle id="Oval-Copy-59" cx="183.25" cy="23.25" r="3.25"></circle>
                <circle id="Oval-Copy-67" cx="3.25" cy="143.25" r="3.25"></circle>
                <circle id="Oval-Copy-73" cx="3.25" cy="23.25" r="3.25"></circle>
                <circle id="Oval-Copy-74" cx="183.25" cy="3.25" r="3.25"></circle>
                <circle id="Oval-Copy-75" cx="163.25" cy="3.25" r="3.25"></circle>
                <circle id="Oval-Copy-76" cx="143.25" cy="3.25" r="3.25"></circle>
                <circle id="Oval-Copy-77" cx="123.25" cy="3.25" r="3.25"></circle>
                <circle id="Oval-Copy-78" cx="103.25" cy="3.25" r="3.25"></circle>
                <circle id="Oval-Copy-79" cx="83.25" cy="3.25" r="3.25"></circle>
                <circle id="Oval-Copy-80" cx="63.25" cy="3.25" r="3.25"></circle>
                <circle id="Oval-Copy-81" cx="43.25" cy="3.25" r="3.25"></circle>
                <circle id="Oval-Copy-82" cx="23.25" cy="3.25" r="3.25"></circle>
                <circle id="Oval-Copy-83" cx="3.25" cy="3.25" r="3.25"></circle>
            </g>
            <polyline id="Path-3" stroke="#3D3530" stroke-width="2" points="38 181 38 215 204.656 215 204.656 192"></polyline>
            <path id="Line-4" d="M97.5,46.5 L159,46.5 L160,46.5 L160,48.5 L159,48.5 L97.5,48.5 L97.5,54.5 L83.5,47.5 L97.5,40.5 L97.5,46.5 Z" fill="#EF7D3B" fill-rule="nonzero"></path>
        </g>
        <g id="TitleBlock" transform="translate(0.000000, 255.000000)">
            <rect id="Rectangle-Copy" stroke="#3D3530" stroke-width="2" fill="#F8FAE4" x="1" y="1" width="898" height="43"></rect>
            <path d="M758.306666,30.192 C757.234661,30.192 756.198671,29.9200027 755.198666,29.376 C754.198661,28.8319973 753.442669,28.2880027 752.930666,27.744 L754.034666,26.664 C754.434668,27.0960022 755.026662,27.5399977 755.810666,27.996 C756.59467,28.4520023 757.426662,28.68 758.306666,28.68 C759.378672,28.68 760.222663,28.4440024 760.838666,27.972 C761.454669,27.4999976 761.762666,26.8560041 761.762666,26.04 C761.762666,25.3519966 761.462669,24.7520026 760.862666,24.24 C760.262663,23.7279974 759.534671,23.2960018 758.678666,22.944 C757.822662,22.5919982 756.962671,22.220002 756.098666,21.828 C755.234662,21.435998 754.502669,20.9040034 753.902666,20.232 C753.302663,19.5599966 753.002666,18.7680046 753.002666,17.856 C753.002666,16.6879942 753.442662,15.704004 754.322666,14.904 C755.202671,14.103996 756.434658,13.704 758.018666,13.704 C759.090672,13.704 760.126661,13.9759973 761.126666,14.52 C762.126671,15.0640027 762.882664,15.6079973 763.394666,16.152 L762.290666,17.232 C761.874664,16.7839978 761.27467,16.3360022 760.490666,15.888 C759.706662,15.4399978 758.882671,15.216 758.018666,15.216 C756.946661,15.216 756.102669,15.4519976 755.486666,15.924 C754.870663,16.3960024 754.562666,17.0399959 754.562666,17.856 C754.562666,18.5440034 754.862663,19.1479974 755.462666,19.668 C756.062669,20.1880026 756.790662,20.6239982 757.646666,20.976 C758.502671,21.3280018 759.362662,21.6959981 760.226666,22.08 C761.090671,22.4640019 761.822663,22.9919966 762.422666,23.664 C763.022669,24.3360034 763.322666,25.1279954 763.322666,26.04 C763.322666,27.2080058 762.882671,28.191996 762.002666,28.992 C761.122662,29.792004 759.890674,30.192 758.306666,30.192 Z M776.277333,28.368 C775.077327,29.5840061 773.621342,30.192 771.909333,30.192 C770.197324,30.192 768.737339,29.588006 767.529333,28.38 C766.321327,27.171994 765.717333,25.7120086 765.717333,24 C765.717333,22.2879914 766.321327,20.828006 767.529333,19.62 C768.737339,18.411994 770.197324,17.808 771.909333,17.808 C773.621342,17.808 775.081327,18.411994 776.289333,19.62 C777.497339,20.828006 778.101333,22.2879914 778.101333,24 C778.101333,25.6960085 777.493339,27.1519939 776.277333,28.368 Z M771.933333,28.68 C773.229339,28.68 774.321329,28.2280045 775.209333,27.324 C776.097337,26.4199955 776.541333,25.3120066 776.541333,24 C776.541333,22.6879934 776.097337,21.5760046 775.209333,20.664 C774.321329,19.7519954 773.229339,19.296 771.933333,19.296 C770.653327,19.296 769.565337,19.7519954 768.669333,20.664 C767.773329,21.5760046 767.325333,22.6879934 767.325333,24 C767.325333,25.3120066 767.773329,26.4199955 768.669333,27.324 C769.565337,28.2280045 770.653327,28.68 771.933333,28.68 Z M781.384,30 L781.384,12.144 L782.968,12.144 L782.968,30 L781.384,30 Z M797.074666,18 L798.658666,18 L798.658666,30 L797.074666,30 L797.074666,28.056 C795.84266,29.4800071 794.282676,30.192 792.394666,30.192 C790.682658,30.192 789.222672,29.588006 788.014666,28.38 C786.80666,27.171994 786.202666,25.7120086 786.202666,24 C786.202666,22.2879914 786.80666,20.828006 788.014666,19.62 C789.222672,18.411994 790.682658,17.808 792.394666,17.808 C794.298676,17.808 795.85866,18.5199929 797.074666,19.944 L797.074666,18 Z M792.418666,28.68 C793.714673,28.68 794.806662,28.2280045 795.694666,27.324 C796.582671,26.4199955 797.026666,25.3120066 797.026666,24 C797.026666,22.6879934 796.582671,21.5800045 795.694666,20.676 C794.806662,19.7719955 793.714673,19.32 792.418666,19.32 C791.13866,19.32 790.046671,19.7719955 789.142666,20.676 C788.238662,21.5800045 787.786666,22.6879934 787.786666,24 C787.786666,25.3120066 788.238662,26.4199955 789.142666,27.324 C790.046671,28.2280045 791.13866,28.68 792.418666,28.68 Z M807.989333,17.808 C808.837337,17.808 809.61333,18.0159979 810.317333,18.432 L809.765333,20.016 C809.09333,19.5199975 808.413337,19.272 807.725333,19.272 C806.717328,19.272 805.869337,19.6279964 805.181333,20.34 C804.49333,21.0520036 804.149333,21.9279948 804.149333,22.968 L804.149333,30 L802.565333,30 L802.565333,18 L804.149333,18 L804.149333,19.776 C805.125338,18.4639934 806.405325,17.808 807.989333,17.808 Z M820.290666,30 L820.290666,13.872 L825.762666,13.872 C827.570676,13.872 829.010661,14.3479952 830.082666,15.3 C831.154672,16.2520048 831.690666,17.4479928 831.690666,18.888 C831.690666,20.3120071 831.154672,21.5039952 830.082666,22.464 C829.010661,23.4240048 827.570676,23.904 825.762666,23.904 L821.874666,23.904 L821.874666,30 L820.290666,30 Z M821.874666,22.392 L825.762666,22.392 C827.058673,22.392 828.098663,22.0600033 828.882666,21.396 C829.66667,20.7319967 830.058666,19.896005 830.058666,18.888 C830.058666,17.895995 829.66667,17.0640034 828.882666,16.392 C828.098663,15.7199966 827.058673,15.384 825.762666,15.384 L821.874666,15.384 L821.874666,22.392 Z M844.405333,18 L845.989333,18 L845.989333,30 L844.405333,30 L844.405333,28.056 C843.173327,29.4800071 841.613343,30.192 839.725333,30.192 C838.013325,30.192 836.553339,29.588006 835.345333,28.38 C834.137327,27.171994 833.533333,25.7120086 833.533333,24 C833.533333,22.2879914 834.137327,20.828006 835.345333,19.62 C836.553339,18.411994 838.013325,17.808 839.725333,17.808 C841.629343,17.808 843.189327,18.5199929 844.405333,19.944 L844.405333,18 Z M839.749333,28.68 C841.04534,28.68 842.137329,28.2280045 843.025333,27.324 C843.913338,26.4199955 844.357333,25.3120066 844.357333,24 C844.357333,22.6879934 843.913338,21.5800045 843.025333,20.676 C842.137329,19.7719955 841.04534,19.32 839.749333,19.32 C838.469327,19.32 837.377338,19.7719955 836.473333,20.676 C835.569329,21.5800045 835.117333,22.6879934 835.117333,24 C835.117333,25.3120066 835.569329,26.4199955 836.473333,27.324 C837.377338,28.2280045 838.469327,28.68 839.749333,28.68 Z M855.32,17.808 C856.712007,17.808 857.879995,18.2999951 858.824,19.284 C859.768005,20.2680049 860.24,21.4799928 860.24,22.92 L860.24,30 L858.632,30 L858.632,22.968 C858.632,21.9439949 858.284003,21.0720036 857.588,20.352 C856.891996,19.6319964 856.048005,19.272 855.056,19.272 C854.063995,19.272 853.220003,19.6319964 852.524,20.352 C851.827996,21.0720036 851.48,21.9439949 851.48,22.968 L851.48,30 L849.896,30 L849.896,18 L851.48,18 L851.48,19.776 C852.456005,18.4639934 853.735992,17.808 855.32,17.808 Z M869.354667,28.608 C870.426672,28.608 871.386662,28.304003 872.234667,27.696 C873.082671,27.087997 873.658665,26.3760041 873.962667,25.56 L875.306667,26.04 C874.938665,27.048005 874.222672,27.9759958 873.158667,28.824 C872.094661,29.6720042 870.826674,30.0880001 869.354667,30.072 C868.01066,30.072 866.782672,29.6560042 865.670667,28.824 C864.558661,27.9919958 863.802669,26.9280065 863.402667,25.632 C863.242666,25.1039974 863.162667,24.5280031 863.162667,23.904 C863.162667,22.1759914 863.762661,20.712006 864.962667,19.512 C866.162673,18.311994 867.626658,17.7040001 869.354667,17.688 C870.922674,17.7040001 872.290661,18.2319948 873.458667,19.272 C874.626672,20.3120052 875.298666,21.5999923 875.474667,23.136 C875.490667,23.2160004 875.498667,23.3199994 875.498667,23.448 L865.010667,25.344 C865.282668,26.3040048 865.826663,27.0919969 866.642667,27.708 C867.458671,28.3240031 868.362662,28.6240001 869.354667,28.608 Z M869.210667,19.152 C868.010661,19.1680001 866.982671,19.5999958 866.126667,20.448 C865.270662,21.2960042 864.810667,22.3119941 864.746667,23.496 C864.746667,23.5440002 864.750667,23.6279994 864.758667,23.748 C864.766667,23.8680006 864.770667,23.9679996 864.770667,24.048 L873.698667,22.44 C873.394665,21.4639951 872.826671,20.6680031 871.994667,20.052 C871.162662,19.4359969 870.234672,19.1359999 869.210667,19.152 Z M878.997333,30 L878.997333,12.144 L880.581333,12.144 L880.581333,30 L878.997333,30 Z" id="Solar-Panel-Copy" fill="#23ABE3"></path>
        </g>
        <path id="Line-5" d="M242.45522,203.514575 L241.748976,214.531986 L241.71699,215.030962 L240.719038,214.96699 L240.751024,214.468014 L241.457268,203.450604 L237.465461,203.194719 L242.531986,194.501024 L246.447027,203.77046 L242.45522,203.514575 Z" fill="#EF7D3B" fill-rule="nonzero"></path>
        <path id="Line-2" d="M256.539014,214.279561 L245.444109,235.729711 L245.214397,236.17382 L244.32618,235.714397 L244.555891,235.270289 L255.650796,213.820139 L252.097926,211.982447 L260.229711,206.055891 L260.091885,216.117253 L256.539014,214.279561 Z" fill="#EF7D3B" fill-rule="nonzero"></path>
    </g>
</svg>