<?xml version="1.0" encoding="UTF-8"?>
<svg width="900px" height="362px" viewBox="0 0 900 362" version="1.1" xmlns="http://www.w3.org/2000/svg" xmlns:xlink="http://www.w3.org/1999/xlink">
    <!-- Generator: Sketch 52.5 (67469) - http://www.bohemiancoding.com/sketch -->
    <title>Structure_of_an_Atom</title>
    <desc>Created with Sketch.</desc>
    <g id="Structure_of_an_Atom" stroke="none" stroke-width="1" fill="none" fill-rule="evenodd">
        <rect id="Rectangle" stroke="#3D3530" stroke-width="2" fill="#EEEEEE" x="1" y="1" width="898" height="378"></rect>
        <g id="Illustration" transform="translate(213.000000, 8.000000)">
            <g id="Nucleus" transform="translate(128.000000, 125.000000)">
                <circle id="Oval-Copy-5" fill="#1A80AA" cx="33" cy="48" r="19"></circle>
                <circle id="Oval" fill="#1A80AA" cx="26" cy="19" r="19"></circle>
                <circle id="Oval-Copy" fill="#C9DB31" cx="19" cy="38" r="19"></circle>
                <circle id="Oval-Copy-4" fill="#C9DB31" cx="52" cy="40" r="19"></circle>
                <circle id="Oval-Copy-2" fill="#C9DB31" cx="51" cy="22" r="19"></circle>
                <circle id="Oval-Copy-3" fill="#1A80AA" cx="40" cy="36" r="19"></circle>
            </g>
            <g id="Inner-shells" transform="translate(66.000000, 74.000000)">
                <ellipse id="Oval" stroke="#524740" stroke-width="3" transform="translate(98.699413, 81.692441) rotate(-13.000000) translate(-98.699413, -81.692441) " cx="98.6994127" cy="81.6924408" rx="86" ry="63"></ellipse>
                <circle id="Oval-Copy-6" fill="#EF7D3B" cx="56" cy="28" r="12"></circle>
                <circle id="Oval-Copy-7" fill="#EF7D3B" cx="141" cy="130" r="12"></circle>
            </g>
            <g id="Valence-Shell">
                <ellipse id="Oval-Copy-8" stroke="#524740" stroke-width="3" transform="translate(163.135072, 154.442892) rotate(30.000000) translate(-163.135072, -154.442892) " cx="163.135072" cy="154.442892" rx="128.5" ry="103"></ellipse>
                <circle id="Oval-Copy-9" fill="#EF7D3B" cx="128" cy="44" r="12"></circle>
                <circle id="Oval-Copy-10" fill="#EF7D3B" cx="80" cy="61" r="12"></circle>
                <circle id="Oval-Copy-11" fill="#EF7D3B" cx="218" cy="66" r="12"></circle>
                <circle id="Oval-Copy-12" fill="#EF7D3B" cx="79" cy="223" r="12"></circle>
                <circle id="Oval-Copy-13" fill="#EF7D3B" cx="261" cy="237" r="12"></circle>
                <circle id="Oval-Copy-14" fill="#EF7D3B" cx="276" cy="127" r="12"></circle>
            </g>
            <g id="Labels" transform="translate(173.000000, 59.000000)">
                <g id="Nucleus">
                    <polyline id="Path" stroke="#B09679" stroke-width="3" points="25.3121288 73.4125764 81.3924368 11.5663788 150.794059 11.5663788"></polyline>
                    <path d="M173.512,14.024 L173.512,5.888 C173.512,4.687994 173.380001,3.92400164 173.116,3.596 C172.851999,3.26799836 172.224005,3.104 171.232,3.104 L171.232,2.6 L176.704,2.6 L176.704,3.104 C175.711995,3.104 175.080001,3.26799836 174.808,3.596 C174.535999,3.92400164 174.4,4.687994 174.4,5.888 L174.4,17.408 L173.848,17.408 L164.08,5.336 L164.08,13.688 C164.08,14.888006 164.215999,15.6559983 164.488,15.992 C164.760001,16.3280017 165.391995,16.496 166.384,16.496 L166.384,17 L160.912,17 L160.912,16.496 C161.904005,16.496 162.531999,16.3280017 162.796,15.992 C163.060001,15.6559983 163.192,14.888006 163.192,13.688 L163.192,5.888 C163.192,4.687994 163.060001,3.92400164 162.796,3.596 C162.531999,3.26799836 161.904005,3.104 160.912,3.104 L160.912,2.6 L164.296,2.6 L173.512,14.024 Z M190.472,16.808 L187.256,17.408 C187.127999,17.1519987 187.000001,16.6400038 186.872,15.872 C185.879995,16.8960051 184.832006,17.408 183.728,17.408 C181.74399,17.408 180.752,16.208012 180.752,13.808 L180.752,12.296 C180.752,11.095994 180.636001,10.3280017 180.404,9.992 C180.171999,9.65599832 179.656004,9.488 178.856,9.488 L178.856,9.008 L182.456,9.008 L182.456,13.688 C182.456,15.4000086 183.063994,16.256 184.28,16.256 C184.824003,16.256 185.391997,16.0280023 185.984,15.572 C186.576003,15.1159977 186.872,14.5520034 186.872,13.88 L186.872,12.296 C186.872,11.095994 186.756001,10.3280017 186.524,9.992 C186.291999,9.65599832 185.768004,9.488 184.952,9.488 L184.952,9.008 L188.552,9.008 L188.552,13.496 C188.552,14.696006 188.667999,15.4639983 188.9,15.8 C189.132001,16.1360017 189.655996,16.304 190.472,16.304 L190.472,16.808 Z M197.328,9.368 C196.687997,9.368 196.144002,9.73599632 195.696,10.472 C195.247998,11.2080037 195.024,12.1199946 195.024,13.208 C195.024,14.200005 195.267998,14.9799972 195.756,15.548 C196.244002,16.1160028 196.967995,16.4 197.928,16.4 C198.856005,16.4 199.711996,16.0320037 200.496,15.296 L200.904,15.824 C199.927995,16.8800053 198.736007,17.408 197.328,17.408 C196.015993,17.408 194.980004,17.0160039 194.22,16.232 C193.459996,15.4479961 193.08,14.4400062 193.08,13.208 C193.08,11.8799934 193.527996,10.7800044 194.424,9.908 C195.320004,9.03599564 196.287995,8.6 197.328,8.6 C198.272005,8.6 198.983998,8.76799832 199.464,9.104 C199.944002,9.44000168 200.184,9.8479976 200.184,10.328 C200.184,10.5840013 200.100001,10.8199989 199.932,11.036 C199.763999,11.2520011 199.496002,11.36 199.128,11.36 C198.871999,11.36 198.652001,11.2680009 198.468,11.084 C198.283999,10.8999991 198.192,10.6720014 198.192,10.4 C198.192,9.71199656 197.904003,9.368 197.328,9.368 Z M208.312,17 L202.816,17 L202.816,16.496 C203.616004,16.496 204.131999,16.3280017 204.364,15.992 C204.596001,15.6559983 204.712,14.888006 204.712,13.688 L204.712,6.104 C204.712,4.903994 204.596001,4.13600168 204.364,3.8 C204.131999,3.46399832 203.616004,3.296 202.816,3.296 L202.816,2.792 L206.416,2.192 L206.416,13.688 C206.416,14.888006 206.531999,15.6559983 206.764,15.992 C206.996001,16.3280017 207.511996,16.496 208.312,16.496 L208.312,17 Z M213.008,11.504 L216.992,11.504 C217.152001,11.0559978 217.084001,10.6200021 216.788,10.196 C216.491999,9.77199788 215.984004,9.56 215.264,9.56 C214.751997,9.56 214.292002,9.73599824 213.884,10.088 C213.475998,10.4400018 213.184001,10.911997 213.008,11.504 Z M212.864,12.392 C212.719999,13.5760059 212.907997,14.5399963 213.428,15.284 C213.948003,16.0280037 214.799994,16.4 215.984,16.4 C216.384002,16.4 216.839997,16.296001 217.352,16.088 C217.864003,15.879999 218.287998,15.6160016 218.624,15.296 L219.056,15.824 C218.623998,16.2880023 218.072003,16.6679985 217.4,16.964 C216.727997,17.2600015 216.056003,17.408 215.384,17.408 C214.087994,17.408 213.024004,16.9800043 212.192,16.124 C211.359996,15.2679957 210.944,14.2240062 210.944,12.992 C210.944,11.7599938 211.395995,10.7200042 212.3,9.872 C213.204005,9.02399576 214.231994,8.6 215.384,8.6 C216.472005,8.6 217.359997,8.9799962 218.048,9.74 C218.736003,10.5000038 218.936001,11.383995 218.648,12.392 L212.864,12.392 Z M232.992,16.808 L229.776,17.408 C229.647999,17.1519987 229.520001,16.6400038 229.392,15.872 C228.399995,16.8960051 227.352006,17.408 226.248,17.408 C224.26399,17.408 223.272,16.208012 223.272,13.808 L223.272,12.296 C223.272,11.095994 223.156001,10.3280017 222.924,9.992 C222.691999,9.65599832 222.176004,9.488 221.376,9.488 L221.376,9.008 L224.976,9.008 L224.976,13.688 C224.976,15.4000086 225.583994,16.256 226.8,16.256 C227.344003,16.256 227.911997,16.0280023 228.504,15.572 C229.096003,15.1159977 229.392,14.5520034 229.392,13.88 L229.392,12.296 C229.392,11.095994 229.276001,10.3280017 229.044,9.992 C228.811999,9.65599832 228.288004,9.488 227.472,9.488 L227.472,9.008 L231.072,9.008 L231.072,13.496 C231.072,14.696006 231.187999,15.4639983 231.42,15.8 C231.652001,16.1360017 232.175996,16.304 232.992,16.304 L232.992,16.808 Z M241.528,14.792 C241.528,15.5600038 241.252003,16.1879976 240.7,16.676 C240.147997,17.1640024 239.472004,17.408 238.672,17.408 C238.383999,17.408 238.088002,17.3520006 237.784,17.24 C237.479998,17.1279994 237.236001,17.0200005 237.052,16.916 C236.867999,16.8119995 236.696001,16.7320003 236.536,16.676 C236.375999,16.6199997 236.264,16.6479994 236.2,16.76 C236.136,16.8720006 236.104,17.0879984 236.104,17.408 L235.6,17.408 L235.6,13.904 L236.104,13.904 C236.104,14.5280031 236.343998,15.1319971 236.824,15.716 C237.304002,16.3000029 237.935996,16.592 238.72,16.592 C239.104002,16.592 239.427999,16.4720012 239.692,16.232 C239.956001,15.9919988 240.088,15.7040017 240.088,15.368 C240.088,14.8719975 239.640004,14.3840024 238.744,13.904 L237.4,13.184 C236.343995,12.6079971 235.816,11.8080051 235.816,10.784 C235.816,10.1599969 236.059998,9.64000208 236.548,9.224 C237.036002,8.80799792 237.599997,8.6 238.24,8.6 C238.784003,8.6 239.343997,8.74399856 239.92,9.032 C240.112001,9.14400056 240.244,9.1800002 240.316,9.14 C240.388,9.0999998 240.424,8.9200016 240.424,8.6 L240.928,8.6 L240.928,11.384 L240.424,11.384 C240.424,10.8559974 240.244002,10.388002 239.884,9.98 C239.523998,9.57199796 239.056003,9.368 238.48,9.368 C238.079998,9.368 237.776001,9.46399904 237.568,9.656 C237.359999,9.84800096 237.256,10.0959985 237.256,10.4 C237.256,10.6720014 237.359999,10.907999 237.568,11.108 C237.776001,11.308001 238.159997,11.5599985 238.72,11.864 L239.872,12.488 C240.976006,13.1120031 241.528,13.8799954 241.528,14.792 Z" id="Nucleus-Copy" fill="#524740"></path>
                    <g id="Proton" transform="translate(17.000000, 28.000000)">
                        <polyline id="Path-Copy" stroke="#B09679" stroke-width="3" points="0.12037453 57 85 10.6 138.250666 10.6"></polyline>
                        <path d="M155.248,2.6 C156.864008,2.6 158.127995,2.98399616 159.04,3.752 C159.952005,4.52000384 160.408,5.48799416 160.408,6.656 C160.408,7.82400584 159.952005,8.7879962 159.04,9.548 C158.127995,10.3080038 156.864008,10.688 155.248,10.688 L153.112,10.688 L153.112,13.688 C153.112,14.888006 153.243999,15.6559983 153.508,15.992 C153.772001,16.3280017 154.399995,16.496 155.392,16.496 L155.392,17 L148.912,17 L148.912,16.496 C149.904005,16.496 150.531999,16.3280017 150.796,15.992 C151.060001,15.6559983 151.192,14.888006 151.192,13.688 L151.192,5.888 C151.192,4.687994 151.060001,3.92400164 150.796,3.596 C150.531999,3.26799836 149.904005,3.104 148.912,3.104 L148.912,2.6 L155.248,2.6 Z M155.224,9.824 C156.216005,9.824 156.971997,9.52800296 157.492,8.936 C158.012003,8.34399704 158.272,7.58400464 158.272,6.656 C158.272,5.72799536 158.012003,4.96800296 157.492,4.376 C156.971997,3.78399704 156.216005,3.488 155.224,3.488 L153.112,3.488 L153.112,9.824 L155.224,9.824 Z M170.528,10.088 C170.528,10.8400038 170.208003,11.216 169.568,11.216 C169.343999,11.216 169.148001,11.1280009 168.98,10.952 C168.811999,10.7759991 168.728,10.5760011 168.728,10.352 C168.728,9.82399736 168.472003,9.56 167.96,9.56 C167.591998,9.56 167.192002,9.81599744 166.76,10.328 C166.327998,10.8400026 166.112,11.5199958 166.112,12.368 L166.112,13.688 C166.112,14.888006 166.227999,15.6559983 166.46,15.992 C166.692001,16.3280017 167.207996,16.496 168.008,16.496 L168.008,17 L162.512,17 L162.512,16.496 C163.312004,16.496 163.827999,16.3280017 164.06,15.992 C164.292001,15.6559983 164.408,14.888006 164.408,13.688 L164.408,12.488 C164.408,11.3039941 164.292001,10.5440017 164.06,10.208 C163.827999,9.87199832 163.312004,9.704 162.512,9.704 L162.512,9.2 L165.704,8.6 C165.848001,8.90400152 165.983999,9.47999576 166.112,10.328 C166.352001,9.8479976 166.711998,9.44000168 167.192,9.104 C167.672002,8.76799832 168.151998,8.6 168.632,8.6 C169.240003,8.6 169.707998,8.7599984 170.036,9.08 C170.364002,9.4000016 170.528,9.73599824 170.528,10.088 Z M181.44,9.896 C182.400005,10.7440042 182.88,11.7759939 182.88,12.992 C182.88,14.2080061 182.404005,15.2479957 181.452,16.112 C180.499995,16.9760043 179.360007,17.408 178.032,17.408 C176.703993,17.408 175.564005,16.9760043 174.612,16.112 C173.659995,15.2479957 173.184,14.2080061 173.184,12.992 C173.184,11.7759939 173.659995,10.7400043 174.612,9.884 C175.564005,9.02799572 176.703993,8.6 178.032,8.6 C179.360007,8.6 180.495995,9.03199568 181.44,9.896 Z M180.192,15.512 C180.688002,14.8559967 180.936,14.0160051 180.936,12.992 C180.936,11.9679949 180.688002,11.1320032 180.192,10.484 C179.695998,9.83599676 178.976005,9.512 178.032,9.512 C177.087995,9.512 176.368002,9.83999672 175.872,10.496 C175.375998,11.1520033 175.128,11.983995 175.128,12.992 C175.128,14.000005 175.375998,14.8319967 175.872,15.488 C176.368002,16.1440033 177.087995,16.472 178.032,16.472 C178.976005,16.472 179.695998,16.1520032 180.192,15.512 Z M186.952,9.848 L185.704,9.848 L185.704,9.272 C186.392003,9.12799928 186.895998,8.8160024 187.216,8.336 C187.536002,7.8559976 187.744,7.20000416 187.84,6.368 L188.656,6.368 L188.656,9.008 L190.744,9.008 L190.744,9.848 L188.656,9.848 L188.656,14.648 C188.656,15.8000058 189.015996,16.376 189.736,16.376 C190.200002,16.376 190.719997,16.1040027 191.296,15.56 L191.704,15.968 C191.367998,16.368002 190.964002,16.6959987 190.492,16.952 C190.019998,17.2080013 189.584002,17.336 189.184,17.336 C188.495997,17.336 187.952002,17.1120022 187.552,16.664 C187.151998,16.2159978 186.952,15.5440045 186.952,14.648 L186.952,9.848 Z M202.52,9.896 C203.480005,10.7440042 203.96,11.7759939 203.96,12.992 C203.96,14.2080061 203.484005,15.2479957 202.532,16.112 C201.579995,16.9760043 200.440007,17.408 199.112,17.408 C197.783993,17.408 196.644005,16.9760043 195.692,16.112 C194.739995,15.2479957 194.264,14.2080061 194.264,12.992 C194.264,11.7759939 194.739995,10.7400043 195.692,9.884 C196.644005,9.02799572 197.783993,8.6 199.112,8.6 C200.440007,8.6 201.575995,9.03199568 202.52,9.896 Z M201.272,15.512 C201.768002,14.8559967 202.016,14.0160051 202.016,12.992 C202.016,11.9679949 201.768002,11.1320032 201.272,10.484 C200.775998,9.83599676 200.056005,9.512 199.112,9.512 C198.167995,9.512 197.448002,9.83999672 196.952,10.496 C196.455998,11.1520033 196.208,11.983995 196.208,12.992 C196.208,14.000005 196.455998,14.8319967 196.952,15.488 C197.448002,16.1440033 198.167995,16.472 199.112,16.472 C200.056005,16.472 200.775998,16.1520032 201.272,15.512 Z M210.624,10.328 C211.536005,9.17599424 212.647993,8.6 213.96,8.6 C215.000005,8.6 215.779997,8.92799672 216.3,9.584 C216.820003,10.2400033 217.08,11.1039946 217.08,12.176 L217.08,13.688 C217.08,14.888006 217.195999,15.6559983 217.428,15.992 C217.660001,16.3280017 218.175996,16.496 218.976,16.496 L218.976,17 L213.48,17 L213.48,16.496 C214.264004,16.496 214.775999,16.3240017 215.016,15.98 C215.256001,15.6359983 215.376,14.8720059 215.376,13.688 L215.376,12.296 C215.376,10.5839914 214.712007,9.728 213.384,9.728 C212.695997,9.728 212.064003,9.9679976 211.488,10.448 C210.911997,10.9280024 210.624,11.4879968 210.624,12.128 L210.624,13.688 C210.624,14.9200062 210.719999,15.6959984 210.912,16.016 C211.104001,16.3360016 211.567996,16.496 212.304,16.496 L212.304,17 L207.024,17 L207.024,16.496 C207.824004,16.496 208.339999,16.3280017 208.572,15.992 C208.804001,15.6559983 208.92,14.888006 208.92,13.688 L208.92,12.488 C208.92,11.3039941 208.804001,10.5440017 208.572,10.208 C208.339999,9.87199832 207.824004,9.704 207.024,9.704 L207.024,9.2 L210.216,8.6 C210.360001,8.90400152 210.495999,9.47999576 210.624,10.328 Z M234.944,19.16 L234.416,19.664 C230.815982,16.7199853 229.016,13.4720178 229.016,9.92 C229.016,6.38398232 230.807982,3.1360148 234.392,0.176 L234.944,0.68 C234.431997,1.25600288 234.008002,1.75599788 233.672,2.18 C233.335998,2.60400212 232.900003,3.2359958 232.364,4.076 C231.827997,4.9160042 231.416001,5.83199504 231.128,6.824 C230.839999,7.81600496 230.696,8.84799464 230.696,9.92 C230.696,10.9920054 230.839999,12.023995 231.128,13.016 C231.416001,14.008005 231.827997,14.9239958 232.364,15.764 C232.900003,16.6040042 233.335998,17.2359979 233.672,17.66 C234.008002,18.0840021 234.431997,18.5839971 234.944,19.16 Z M242.64,11.168 L246.408,11.168 L246.408,12.224 L242.64,12.224 L242.64,15.992 L241.584,15.992 L241.584,12.224 L237.816,12.224 L237.816,11.168 L241.584,11.168 L241.584,7.4 L242.64,7.4 L242.64,11.168 Z M255.208,9.92 C255.208,13.4880178 253.416018,16.7359854 249.832,19.664 L249.28,19.16 C249.808003,18.567997 250.235998,18.0640021 250.564,17.648 C250.892002,17.2319979 251.327997,16.6040042 251.872,15.764 C252.416003,14.9239958 252.831999,14.008005 253.12,13.016 C253.408001,12.023995 253.552,10.9920054 253.552,9.92 C253.552,8.84799464 253.408001,7.81600496 253.12,6.824 C252.831999,5.83199504 252.416003,4.9160042 251.872,4.076 C251.327997,3.2359958 250.892002,2.60800208 250.564,2.192 C250.235998,1.77599792 249.808003,1.27200296 249.28,0.68 L249.856,0.176 C253.424018,3.12001472 255.208,6.36798224 255.208,9.92 Z" id="Proton-(+)-Copy" fill="#524740"></path>
                    </g>
                    <g id="Proton-Copy" transform="translate(0.000000, 78.000000)">
                        <polyline id="Path-Copy" stroke="#B09679" stroke-width="3" points="0 24.6 102 10.6 155.250666 10.6"></polyline>
                        <path d="M178.512,14.024 L178.512,5.888 C178.512,4.687994 178.380001,3.92400164 178.116,3.596 C177.851999,3.26799836 177.224005,3.104 176.232,3.104 L176.232,2.6 L181.704,2.6 L181.704,3.104 C180.711995,3.104 180.080001,3.26799836 179.808,3.596 C179.535999,3.92400164 179.4,4.687994 179.4,5.888 L179.4,17.408 L178.848,17.408 L169.08,5.336 L169.08,13.688 C169.08,14.888006 169.215999,15.6559983 169.488,15.992 C169.760001,16.3280017 170.391995,16.496 171.384,16.496 L171.384,17 L165.912,17 L165.912,16.496 C166.904005,16.496 167.531999,16.3280017 167.796,15.992 C168.060001,15.6559983 168.192,14.888006 168.192,13.688 L168.192,5.888 C168.192,4.687994 168.060001,3.92400164 167.796,3.596 C167.531999,3.26799836 166.904005,3.104 165.912,3.104 L165.912,2.6 L169.296,2.6 L178.512,14.024 Z M186.616,11.504 L190.6,11.504 C190.760001,11.0559978 190.692001,10.6200021 190.396,10.196 C190.099999,9.77199788 189.592004,9.56 188.872,9.56 C188.359997,9.56 187.900002,9.73599824 187.492,10.088 C187.083998,10.4400018 186.792001,10.911997 186.616,11.504 Z M186.472,12.392 C186.327999,13.5760059 186.515997,14.5399963 187.036,15.284 C187.556003,16.0280037 188.407994,16.4 189.592,16.4 C189.992002,16.4 190.447997,16.296001 190.96,16.088 C191.472003,15.879999 191.895998,15.6160016 192.232,15.296 L192.664,15.824 C192.231998,16.2880023 191.680003,16.6679985 191.008,16.964 C190.335997,17.2600015 189.664003,17.408 188.992,17.408 C187.695994,17.408 186.632004,16.9800043 185.8,16.124 C184.967996,15.2679957 184.552,14.2240062 184.552,12.992 C184.552,11.7599938 185.003995,10.7200042 185.908,9.872 C186.812005,9.02399576 187.839994,8.6 188.992,8.6 C190.080005,8.6 190.967997,8.9799962 191.656,9.74 C192.344003,10.5000038 192.544001,11.383995 192.256,12.392 L186.472,12.392 Z M206.6,16.808 L203.384,17.408 C203.255999,17.1519987 203.128001,16.6400038 203,15.872 C202.007995,16.8960051 200.960006,17.408 199.856,17.408 C197.87199,17.408 196.88,16.208012 196.88,13.808 L196.88,12.296 C196.88,11.095994 196.764001,10.3280017 196.532,9.992 C196.299999,9.65599832 195.784004,9.488 194.984,9.488 L194.984,9.008 L198.584,9.008 L198.584,13.688 C198.584,15.4000086 199.191994,16.256 200.408,16.256 C200.952003,16.256 201.519997,16.0280023 202.112,15.572 C202.704003,15.1159977 203,14.5520034 203,13.88 L203,12.296 C203,11.095994 202.884001,10.3280017 202.652,9.992 C202.419999,9.65599832 201.896004,9.488 201.08,9.488 L201.08,9.008 L204.68,9.008 L204.68,13.496 C204.68,14.696006 204.795999,15.4639983 205.028,15.8 C205.260001,16.1360017 205.783996,16.304 206.6,16.304 L206.6,16.808 Z M209.976,9.848 L208.728,9.848 L208.728,9.272 C209.416003,9.12799928 209.919998,8.8160024 210.24,8.336 C210.560002,7.8559976 210.768,7.20000416 210.864,6.368 L211.68,6.368 L211.68,9.008 L213.768,9.008 L213.768,9.848 L211.68,9.848 L211.68,14.648 C211.68,15.8000058 212.039996,16.376 212.76,16.376 C213.224002,16.376 213.743997,16.1040027 214.32,15.56 L214.728,15.968 C214.391998,16.368002 213.988002,16.6959987 213.516,16.952 C213.043998,17.2080013 212.608002,17.336 212.208,17.336 C211.519997,17.336 210.976002,17.1120022 210.576,16.664 C210.175998,16.2159978 209.976,15.5440045 209.976,14.648 L209.976,9.848 Z M225.064,10.088 C225.064,10.8400038 224.744003,11.216 224.104,11.216 C223.879999,11.216 223.684001,11.1280009 223.516,10.952 C223.347999,10.7759991 223.264,10.5760011 223.264,10.352 C223.264,9.82399736 223.008003,9.56 222.496,9.56 C222.127998,9.56 221.728002,9.81599744 221.296,10.328 C220.863998,10.8400026 220.648,11.5199958 220.648,12.368 L220.648,13.688 C220.648,14.888006 220.763999,15.6559983 220.996,15.992 C221.228001,16.3280017 221.743996,16.496 222.544,16.496 L222.544,17 L217.048,17 L217.048,16.496 C217.848004,16.496 218.363999,16.3280017 218.596,15.992 C218.828001,15.6559983 218.944,14.888006 218.944,13.688 L218.944,12.488 C218.944,11.3039941 218.828001,10.5440017 218.596,10.208 C218.363999,9.87199832 217.848004,9.704 217.048,9.704 L217.048,9.2 L220.24,8.6 C220.384001,8.90400152 220.519999,9.47999576 220.648,10.328 C220.888001,9.8479976 221.247998,9.44000168 221.728,9.104 C222.208002,8.76799832 222.687998,8.6 223.168,8.6 C223.776003,8.6 224.243998,8.7599984 224.572,9.08 C224.900002,9.4000016 225.064,9.73599824 225.064,10.088 Z M235.976,9.896 C236.936005,10.7440042 237.416,11.7759939 237.416,12.992 C237.416,14.2080061 236.940005,15.2479957 235.988,16.112 C235.035995,16.9760043 233.896007,17.408 232.568,17.408 C231.239993,17.408 230.100005,16.9760043 229.148,16.112 C228.195995,15.2479957 227.72,14.2080061 227.72,12.992 C227.72,11.7759939 228.195995,10.7400043 229.148,9.884 C230.100005,9.02799572 231.239993,8.6 232.568,8.6 C233.896007,8.6 235.031995,9.03199568 235.976,9.896 Z M234.728,15.512 C235.224002,14.8559967 235.472,14.0160051 235.472,12.992 C235.472,11.9679949 235.224002,11.1320032 234.728,10.484 C234.231998,9.83599676 233.512005,9.512 232.568,9.512 C231.623995,9.512 230.904002,9.83999672 230.408,10.496 C229.911998,11.1520033 229.664,11.983995 229.664,12.992 C229.664,14.000005 229.911998,14.8319967 230.408,15.488 C230.904002,16.1440033 231.623995,16.472 232.568,16.472 C233.512005,16.472 234.231998,16.1520032 234.728,15.512 Z M244.08,10.328 C244.992005,9.17599424 246.103993,8.6 247.416,8.6 C248.456005,8.6 249.235997,8.92799672 249.756,9.584 C250.276003,10.2400033 250.536,11.1039946 250.536,12.176 L250.536,13.688 C250.536,14.888006 250.651999,15.6559983 250.884,15.992 C251.116001,16.3280017 251.631996,16.496 252.432,16.496 L252.432,17 L246.936,17 L246.936,16.496 C247.720004,16.496 248.231999,16.3240017 248.472,15.98 C248.712001,15.6359983 248.832,14.8720059 248.832,13.688 L248.832,12.296 C248.832,10.5839914 248.168007,9.728 246.84,9.728 C246.151997,9.728 245.520003,9.9679976 244.944,10.448 C244.367997,10.9280024 244.08,11.4879968 244.08,12.128 L244.08,13.688 C244.08,14.9200062 244.175999,15.6959984 244.368,16.016 C244.560001,16.3360016 245.023996,16.496 245.76,16.496 L245.76,17 L240.48,17 L240.48,16.496 C241.280004,16.496 241.795999,16.3280017 242.028,15.992 C242.260001,15.6559983 242.376,14.888006 242.376,13.688 L242.376,12.488 C242.376,11.3039941 242.260001,10.5440017 242.028,10.208 C241.795999,9.87199832 241.280004,9.704 240.48,9.704 L240.48,9.2 L243.672,8.6 C243.816001,8.90400152 243.951999,9.47999576 244.08,10.328 Z" id="Neutron-Copy" fill="#524740"></path>
                    </g>
                </g>
                <g id="Electron" transform="translate(35.000000, 143.000000)">
                    <path d="M163.912,18 L163.912,17.496 C164.904005,17.496 165.531999,17.3280017 165.796,16.992 C166.060001,16.6559983 166.192,15.888006 166.192,14.688 L166.192,6.888 C166.192,5.687994 166.060001,4.92400164 165.796,4.596 C165.531999,4.26799836 164.904005,4.104 163.912,4.104 L163.912,3.6 L174.856,3.6 L175.072,6.768 L174.568,6.768 L174.448,6.288 C174.255999,5.58399648 174.000002,5.10800124 173.68,4.86 C173.359998,4.61199876 172.688005,4.488 171.664,4.488 L168.112,4.488 L168.112,9.936 L169.312,9.936 C170.512006,9.936 171.275998,9.80400132 171.604,9.54 C171.932002,9.27599868 172.096,8.64000504 172.096,7.632 L172.6,7.632 L172.6,13.128 L172.096,13.128 C172.096,12.119995 171.932002,11.4840013 171.604,11.22 C171.275998,10.9559987 170.512006,10.824 169.312,10.824 L168.112,10.824 L168.112,14.328 C168.112,15.528006 168.243999,16.2919984 168.508,16.62 C168.772001,16.9480016 169.399995,17.112 170.392,17.112 L172.456,17.112 C173.176004,17.112 173.723998,17.0400007 174.1,16.896 C174.476002,16.7519993 174.731999,16.5680011 174.868,16.344 C175.004001,16.1199989 175.127999,15.7680024 175.24,15.288 L175.36,14.808 L175.864,14.808 L175.672,18 L163.912,18 Z M183.944,18 L178.448,18 L178.448,17.496 C179.248004,17.496 179.763999,17.3280017 179.996,16.992 C180.228001,16.6559983 180.344,15.888006 180.344,14.688 L180.344,7.104 C180.344,5.903994 180.228001,5.13600168 179.996,4.8 C179.763999,4.46399832 179.248004,4.296 178.448,4.296 L178.448,3.792 L182.048,3.192 L182.048,14.688 C182.048,15.888006 182.163999,16.6559983 182.396,16.992 C182.628001,17.3280017 183.143996,17.496 183.944,17.496 L183.944,18 Z M188.64,12.504 L192.624,12.504 C192.784001,12.0559978 192.716001,11.6200021 192.42,11.196 C192.123999,10.7719979 191.616004,10.56 190.896,10.56 C190.383997,10.56 189.924002,10.7359982 189.516,11.088 C189.107998,11.4400018 188.816001,11.911997 188.64,12.504 Z M188.496,13.392 C188.351999,14.5760059 188.539997,15.5399963 189.06,16.284 C189.580003,17.0280037 190.431994,17.4 191.616,17.4 C192.016002,17.4 192.471997,17.296001 192.984,17.088 C193.496003,16.879999 193.919998,16.6160016 194.256,16.296 L194.688,16.824 C194.255998,17.2880023 193.704003,17.6679985 193.032,17.964 C192.359997,18.2600015 191.688003,18.408 191.016,18.408 C189.719994,18.408 188.656004,17.9800043 187.824,17.124 C186.991996,16.2679957 186.576,15.2240062 186.576,13.992 C186.576,12.7599938 187.027995,11.7200042 187.932,10.872 C188.836005,10.0239958 189.863994,9.6 191.016,9.6 C192.104005,9.6 192.991997,9.9799962 193.68,10.74 C194.368003,11.5000038 194.568001,12.383995 194.28,13.392 L188.496,13.392 Z M201.952,10.368 C201.311997,10.368 200.768002,10.7359963 200.32,11.472 C199.871998,12.2080037 199.648,13.1199946 199.648,14.208 C199.648,15.200005 199.891998,15.9799972 200.38,16.548 C200.868002,17.1160028 201.591995,17.4 202.552,17.4 C203.480005,17.4 204.335996,17.0320037 205.12,16.296 L205.528,16.824 C204.551995,17.8800053 203.360007,18.408 201.952,18.408 C200.639993,18.408 199.604004,18.0160039 198.844,17.232 C198.083996,16.4479961 197.704,15.4400062 197.704,14.208 C197.704,12.8799934 198.151996,11.7800044 199.048,10.908 C199.944004,10.0359956 200.911995,9.6 201.952,9.6 C202.896005,9.6 203.607998,9.76799832 204.088,10.104 C204.568002,10.4400017 204.808,10.8479976 204.808,11.328 C204.808,11.5840013 204.724001,11.8199989 204.556,12.036 C204.387999,12.2520011 204.120002,12.36 203.752,12.36 C203.495999,12.36 203.276001,12.2680009 203.092,12.084 C202.907999,11.8999991 202.816,11.6720014 202.816,11.4 C202.816,10.7119966 202.528003,10.368 201.952,10.368 Z M208.904,10.848 L207.656,10.848 L207.656,10.272 C208.344003,10.1279993 208.847998,9.8160024 209.168,9.336 C209.488002,8.8559976 209.696,8.20000416 209.792,7.368 L210.608,7.368 L210.608,10.008 L212.696,10.008 L212.696,10.848 L210.608,10.848 L210.608,15.648 C210.608,16.8000058 210.967996,17.376 211.688,17.376 C212.152002,17.376 212.671997,17.1040027 213.248,16.56 L213.656,16.968 C213.319998,17.368002 212.916002,17.6959987 212.444,17.952 C211.971998,18.2080013 211.536002,18.336 211.136,18.336 C210.447997,18.336 209.904002,18.1120022 209.504,17.664 C209.103998,17.2159978 208.904,16.5440045 208.904,15.648 L208.904,10.848 Z M223.992,11.088 C223.992,11.8400038 223.672003,12.216 223.032,12.216 C222.807999,12.216 222.612001,12.1280009 222.444,11.952 C222.275999,11.7759991 222.192,11.5760011 222.192,11.352 C222.192,10.8239974 221.936003,10.56 221.424,10.56 C221.055998,10.56 220.656002,10.8159974 220.224,11.328 C219.791998,11.8400026 219.576,12.5199958 219.576,13.368 L219.576,14.688 C219.576,15.888006 219.691999,16.6559983 219.924,16.992 C220.156001,17.3280017 220.671996,17.496 221.472,17.496 L221.472,18 L215.976,18 L215.976,17.496 C216.776004,17.496 217.291999,17.3280017 217.524,16.992 C217.756001,16.6559983 217.872,15.888006 217.872,14.688 L217.872,13.488 C217.872,12.3039941 217.756001,11.5440017 217.524,11.208 C217.291999,10.8719983 216.776004,10.704 215.976,10.704 L215.976,10.2 L219.168,9.6 C219.312001,9.90400152 219.447999,10.4799958 219.576,11.328 C219.816001,10.8479976 220.175998,10.4400017 220.656,10.104 C221.136002,9.76799832 221.615998,9.6 222.096,9.6 C222.704003,9.6 223.171998,9.7599984 223.5,10.08 C223.828002,10.4000016 223.992,10.7359982 223.992,11.088 Z M234.904,10.896 C235.864005,11.7440042 236.344,12.7759939 236.344,13.992 C236.344,15.2080061 235.868005,16.2479957 234.916,17.112 C233.963995,17.9760043 232.824007,18.408 231.496,18.408 C230.167993,18.408 229.028005,17.9760043 228.076,17.112 C227.123995,16.2479957 226.648,15.2080061 226.648,13.992 C226.648,12.7759939 227.123995,11.7400043 228.076,10.884 C229.028005,10.0279957 230.167993,9.6 231.496,9.6 C232.824007,9.6 233.959995,10.0319957 234.904,10.896 Z M233.656,16.512 C234.152002,15.8559967 234.4,15.0160051 234.4,13.992 C234.4,12.9679949 234.152002,12.1320032 233.656,11.484 C233.159998,10.8359968 232.440005,10.512 231.496,10.512 C230.551995,10.512 229.832002,10.8399967 229.336,11.496 C228.839998,12.1520033 228.592,12.983995 228.592,13.992 C228.592,15.000005 228.839998,15.8319967 229.336,16.488 C229.832002,17.1440033 230.551995,17.472 231.496,17.472 C232.440005,17.472 233.159998,17.1520032 233.656,16.512 Z M243.008,11.328 C243.920005,10.1759942 245.031993,9.6 246.344,9.6 C247.384005,9.6 248.163997,9.92799672 248.684,10.584 C249.204003,11.2400033 249.464,12.1039946 249.464,13.176 L249.464,14.688 C249.464,15.888006 249.579999,16.6559983 249.812,16.992 C250.044001,17.3280017 250.559996,17.496 251.36,17.496 L251.36,18 L245.864,18 L245.864,17.496 C246.648004,17.496 247.159999,17.3240017 247.4,16.98 C247.640001,16.6359983 247.76,15.8720059 247.76,14.688 L247.76,13.296 C247.76,11.5839914 247.096007,10.728 245.768,10.728 C245.079997,10.728 244.448003,10.9679976 243.872,11.448 C243.295997,11.9280024 243.008,12.4879968 243.008,13.128 L243.008,14.688 C243.008,15.9200062 243.103999,16.6959984 243.296,17.016 C243.488001,17.3360016 243.951996,17.496 244.688,17.496 L244.688,18 L239.408,18 L239.408,17.496 C240.208004,17.496 240.723999,17.3280017 240.956,16.992 C241.188001,16.6559983 241.304,15.888006 241.304,14.688 L241.304,13.488 C241.304,12.3039941 241.188001,11.5440017 240.956,11.208 C240.723999,10.8719983 240.208004,10.704 239.408,10.704 L239.408,10.2 L242.6,9.6 C242.744001,9.90400152 242.879999,10.4799958 243.008,11.328 Z M267.328,20.16 L266.8,20.664 C263.199982,17.7199853 261.4,14.4720178 261.4,10.92 C261.4,7.38398232 263.191982,4.1360148 266.776,1.176 L267.328,1.68 C266.815997,2.25600288 266.392002,2.75599788 266.056,3.18 C265.719998,3.60400212 265.284003,4.2359958 264.748,5.076 C264.211997,5.9160042 263.800001,6.83199504 263.512,7.824 C263.223999,8.81600496 263.08,9.84799464 263.08,10.92 C263.08,11.9920054 263.223999,13.023995 263.512,14.016 C263.800001,15.008005 264.211997,15.9239958 264.748,16.764 C265.284003,17.6040042 265.719998,18.2359979 266.056,18.66 C266.392002,19.0840021 266.815997,19.5839971 267.328,20.16 Z M278,13.608 L270.992,13.608 L270.992,12.552 L278,12.552 L278,13.608 Z M287.592,10.92 C287.592,14.4880178 285.800018,17.7359854 282.216,20.664 L281.664,20.16 C282.192003,19.567997 282.619998,19.0640021 282.948,18.648 C283.276002,18.2319979 283.711997,17.6040042 284.256,16.764 C284.800003,15.9239958 285.215999,15.008005 285.504,14.016 C285.792001,13.023995 285.936,11.9920054 285.936,10.92 C285.936,9.84799464 285.792001,8.81600496 285.504,7.824 C285.215999,6.83199504 284.800003,5.9160042 284.256,5.076 C283.711997,4.2359958 283.276002,3.60800208 282.948,3.192 C282.619998,2.77599792 282.192003,2.27200296 281.664,1.68 L282.24,1.176 C285.808018,4.12001472 287.592,7.36798224 287.592,10.92 Z" id="Electron-(-)-Copy" fill="#524740"></path>
                    <polyline id="Path-2" stroke="#B09679" stroke-width="3" points="0.277796982 0.94173204 100.679763 12.1992832 152.794264 12.1992832"></polyline>
                </g>
            </g>
        </g>
        <rect id="Rectangle-Copy" stroke="#3D3530" stroke-width="2" fill="#F8FAE4" x="1" y="317" width="898" height="44"></rect>
        <path d="M644.678666,345.192 C643.606661,345.192 642.570671,344.920003 641.570666,344.376 C640.570661,343.831997 639.814669,343.288003 639.302666,342.744 L640.406666,341.664 C640.806668,342.096002 641.398662,342.539998 642.182666,342.996 C642.96667,343.452002 643.798662,343.68 644.678666,343.68 C645.750671,343.68 646.594663,343.444002 647.210666,342.972 C647.826669,342.499998 648.134666,341.856004 648.134666,341.04 C648.134666,340.351997 647.834669,339.752003 647.234666,339.24 C646.634663,338.727997 645.90667,338.296002 645.050666,337.944 C644.194662,337.591998 643.33467,337.220002 642.470666,336.828 C641.606662,336.435998 640.874669,335.904003 640.274666,335.232 C639.674663,334.559997 639.374666,333.768005 639.374666,332.856 C639.374666,331.687994 639.814662,330.704004 640.694666,329.904 C641.57467,329.103996 642.806658,328.704 644.390666,328.704 C645.462671,328.704 646.498661,328.975997 647.498666,329.52 C648.498671,330.064003 649.254663,330.607997 649.766666,331.152 L648.662666,332.232 C648.246664,331.783998 647.64667,331.336002 646.862666,330.888 C646.078662,330.439998 645.25467,330.216 644.390666,330.216 C643.318661,330.216 642.474669,330.451998 641.858666,330.924 C641.242663,331.396002 640.934666,332.039996 640.934666,332.856 C640.934666,333.544003 641.234663,334.147997 641.834666,334.668 C642.434669,335.188003 643.162662,335.623998 644.018666,335.976 C644.87467,336.328002 645.734662,336.695998 646.598666,337.08 C647.46267,337.464002 648.194663,337.991997 648.794666,338.664 C649.394669,339.336003 649.694666,340.127995 649.694666,341.04 C649.694666,342.208006 649.25467,343.191996 648.374666,343.992 C647.494662,344.792004 646.262674,345.192 644.678666,345.192 Z M659.529333,342.312 L660.321333,343.536 C660.225332,343.664001 660.097333,343.815999 659.937333,343.992 C659.777332,344.168001 659.417335,344.411998 658.857333,344.724 C658.29733,345.036002 657.721336,345.192 657.129333,345.192 C656.121328,345.192 655.277336,344.892003 654.597333,344.292 C653.917329,343.691997 653.577333,342.824006 653.577333,341.688 L653.577333,334.44 L651.657333,334.44 L651.657333,332.976 L653.577333,332.976 L653.577333,329.184 L655.161333,328.992 L655.161333,332.976 L658.785333,332.976 L658.785333,334.44 L655.161333,334.44 L655.161333,341.328 C655.161333,342.064004 655.38933,342.647998 655.845333,343.08 C656.301335,343.512002 656.82533,343.728 657.417333,343.728 C657.785335,343.728 658.145331,343.616001 658.497333,343.392 C658.849334,343.167999 659.109332,342.948001 659.277333,342.732 C659.445334,342.515999 659.529333,342.376 659.529333,342.312 Z M668.859999,332.808 C669.708004,332.808 670.483996,333.015998 671.187999,333.432 L670.635999,335.016 C669.963996,334.519998 669.284003,334.272 668.595999,334.272 C667.587994,334.272 666.740003,334.627996 666.051999,335.34 C665.363996,336.052004 665.019999,336.927995 665.019999,337.968 L665.019999,345 L663.435999,345 L663.435999,333 L665.019999,333 L665.019999,334.776 C665.996004,333.463993 667.275991,332.808 668.859999,332.808 Z M682.486666,333 L684.070666,333 L684.070666,345 L682.486666,345 L682.486666,343.224 C681.510661,344.536007 680.230674,345.192 678.646666,345.192 C677.254659,345.192 676.086671,344.700005 675.142666,343.716 C674.198661,342.731995 673.726666,341.520007 673.726666,340.08 L673.726666,333 L675.358666,333 L675.358666,340.032 C675.358666,341.056005 675.702663,341.923996 676.390666,342.636 C677.07867,343.348004 677.918661,343.704 678.910666,343.704 C679.918671,343.704 680.766663,343.348004 681.454666,342.636 C682.14267,341.923996 682.486666,341.056005 682.486666,340.032 L682.486666,333 Z M693.521333,345.192 C691.809324,345.192 690.349339,344.588006 689.141333,343.38 C687.933327,342.171994 687.329333,340.712009 687.329333,339 C687.329333,337.287991 687.933327,335.828006 689.141333,334.62 C690.349339,333.411994 691.809324,332.808 693.521333,332.808 C694.609338,332.808 695.621328,333.075997 696.557333,333.612 C697.493337,334.148003 698.23333,334.863996 698.777333,335.76 L697.337333,336.456 C696.905331,335.799997 696.353336,335.280002 695.681333,334.896 C695.009329,334.511998 694.289337,334.32 693.521333,334.32 C692.225326,334.32 691.133337,334.771995 690.245333,335.676 C689.357328,336.580005 688.913333,337.687993 688.913333,339 C688.913333,340.312007 689.357328,341.419995 690.245333,342.324 C691.133337,343.228005 692.225326,343.68 693.521333,343.68 C694.289337,343.68 695.009329,343.488002 695.681333,343.104 C696.353336,342.719998 696.905331,342.200003 697.337333,341.544 L698.777333,342.24 C698.23333,343.136004 697.493337,343.851997 696.557333,344.388 C695.621328,344.924003 694.609338,345.192 693.521333,345.192 Z M708.971999,342.312 L709.763999,343.536 C709.667999,343.664001 709.54,343.815999 709.379999,343.992 C709.219999,344.168001 708.860002,344.411998 708.299999,344.724 C707.739997,345.036002 707.164002,345.192 706.571999,345.192 C705.563994,345.192 704.720003,344.892003 704.039999,344.292 C703.359996,343.691997 703.019999,342.824006 703.019999,341.688 L703.019999,334.44 L701.099999,334.44 L701.099999,332.976 L703.019999,332.976 L703.019999,329.184 L704.603999,328.992 L704.603999,332.976 L708.227999,332.976 L708.227999,334.44 L704.603999,334.44 L704.603999,341.328 C704.603999,342.064004 704.831997,342.647998 705.287999,343.08 C705.744002,343.512002 706.267997,343.728 706.859999,343.728 C707.228001,343.728 707.587998,343.616001 707.939999,343.392 C708.292001,343.167999 708.551999,342.948001 708.719999,342.732 C708.888,342.515999 708.971999,342.376 708.971999,342.312 Z M720.750666,333 L722.334666,333 L722.334666,345 L720.750666,345 L720.750666,343.224 C719.774661,344.536007 718.494674,345.192 716.910666,345.192 C715.518659,345.192 714.350671,344.700005 713.406666,343.716 C712.462661,342.731995 711.990666,341.520007 711.990666,340.08 L711.990666,333 L713.622666,333 L713.622666,340.032 C713.622666,341.056005 713.966663,341.923996 714.654666,342.636 C715.34267,343.348004 716.182661,343.704 717.174666,343.704 C718.182671,343.704 719.030663,343.348004 719.718666,342.636 C720.40667,341.923996 720.750666,341.056005 720.750666,340.032 L720.750666,333 Z M731.713333,332.808 C732.561337,332.808 733.337329,333.015998 734.041333,333.432 L733.489333,335.016 C732.81733,334.519998 732.137336,334.272 731.449333,334.272 C730.441328,334.272 729.593336,334.627996 728.905333,335.34 C728.217329,336.052004 727.873333,336.927995 727.873333,337.968 L727.873333,345 L726.289333,345 L726.289333,333 L727.873333,333 L727.873333,334.776 C728.849338,333.463993 730.129325,332.808 731.713333,332.808 Z M741.356,343.608 C742.428005,343.608 743.387995,343.304003 744.236,342.696 C745.084004,342.087997 745.659998,341.376004 745.964,340.56 L747.308,341.04 C746.939998,342.048005 746.224005,342.975996 745.16,343.824 C744.095994,344.672004 742.828007,345.088 741.356,345.072 C740.011993,345.072 738.784005,344.656004 737.672,343.824 C736.559994,342.991996 735.804002,341.928006 735.404,340.632 C735.243999,340.103997 735.164,339.528003 735.164,338.904 C735.164,337.175991 735.763994,335.712006 736.964,334.512 C738.164006,333.311994 739.627991,332.704 741.356,332.688 C742.924007,332.704 744.291994,333.231995 745.46,334.272 C746.628005,335.312005 747.299999,336.599992 747.476,338.136 C747.492,338.216 747.5,338.319999 747.5,338.448 L737.012,340.344 C737.284001,341.304005 737.827996,342.091997 738.644,342.708 C739.460004,343.324003 740.363995,343.624 741.356,343.608 Z M741.212,334.152 C740.011994,334.168 738.984004,334.599996 738.128,335.448 C737.271995,336.296004 736.812,337.311994 736.748,338.496 C736.748,338.544 736.752,338.627999 736.76,338.748 C736.768,338.868001 736.772,338.968 736.772,339.048 L745.7,337.44 C745.395998,336.463995 744.828004,335.668003 743.996,335.052 C743.163995,334.435997 742.236005,334.136 741.212,334.152 Z M768.177333,343.368 C766.977327,344.584006 765.521342,345.192 763.809333,345.192 C762.097324,345.192 760.637339,344.588006 759.429333,343.38 C758.221327,342.171994 757.617333,340.712009 757.617333,339 C757.617333,337.287991 758.221327,335.828006 759.429333,334.62 C760.637339,333.411994 762.097324,332.808 763.809333,332.808 C765.521342,332.808 766.981327,333.411994 768.189333,334.62 C769.397339,335.828006 770.001333,337.287991 770.001333,339 C770.001333,340.696008 769.393339,342.151994 768.177333,343.368 Z M763.833333,343.68 C765.129339,343.68 766.221329,343.228005 767.109333,342.324 C767.997337,341.419995 768.441333,340.312007 768.441333,339 C768.441333,337.687993 767.997337,336.576005 767.109333,335.664 C766.221329,334.751995 765.129339,334.296 763.833333,334.296 C762.553327,334.296 761.465337,334.751995 760.569333,335.664 C759.673329,336.576005 759.225333,337.687993 759.225333,339 C759.225333,340.312007 759.673329,341.419995 760.569333,342.324 C761.465337,343.228005 762.553327,343.68 763.833333,343.68 Z M777.676,332.952 L777.676,334.272 L775.324,334.272 L775.324,345 L773.764,345 L773.764,334.272 L772.348,334.272 L772.348,332.952 L773.764,332.952 L773.764,329.472 C773.764,327.807992 774.419993,326.976 775.732,326.976 C776.020001,326.976 776.311998,327 776.608,327.048 C776.904001,327.096 777.123999,327.144 777.268,327.192 L777.484,327.264 L777.148,328.488 C776.827998,328.408 776.508001,328.368 776.188,328.368 C775.835998,328.368 775.604,328.483999 775.492,328.716 C775.379999,328.948001 775.324,329.391997 775.324,330.048 L775.324,332.952 L777.676,332.952 Z M798.497333,333 L800.081333,333 L800.081333,345 L798.497333,345 L798.497333,343.056 C797.265327,344.480007 795.705343,345.192 793.817333,345.192 C792.105325,345.192 790.645339,344.588006 789.437333,343.38 C788.229327,342.171994 787.625333,340.712009 787.625333,339 C787.625333,337.287991 788.229327,335.828006 789.437333,334.62 C790.645339,333.411994 792.105325,332.808 793.817333,332.808 C795.721343,332.808 797.281327,333.519993 798.497333,334.944 L798.497333,333 Z M793.841333,343.68 C795.13734,343.68 796.229329,343.228005 797.117333,342.324 C798.005338,341.419995 798.449333,340.312007 798.449333,339 C798.449333,337.687993 798.005338,336.580005 797.117333,335.676 C796.229329,334.771995 795.13734,334.32 793.841333,334.32 C792.561327,334.32 791.469338,334.771995 790.565333,335.676 C789.661329,336.580005 789.209333,337.687993 789.209333,339 C789.209333,340.312007 789.661329,341.419995 790.565333,342.324 C791.469338,343.228005 792.561327,343.68 793.841333,343.68 Z M809.412,332.808 C810.804007,332.808 811.971995,333.299995 812.916,334.284 C813.860005,335.268005 814.332,336.479993 814.332,337.92 L814.332,345 L812.724,345 L812.724,337.968 C812.724,336.943995 812.376003,336.072004 811.68,335.352 C810.983996,334.631996 810.140005,334.272 809.148,334.272 C808.155995,334.272 807.312003,334.631996 806.616,335.352 C805.919996,336.072004 805.572,336.943995 805.572,337.968 L805.572,345 L803.988,345 L803.988,333 L805.572,333 L805.572,334.776 C806.548005,333.463993 807.827992,332.808 809.412,332.808 Z M837.937333,345 L835.873333,339.96 L828.337333,339.96 L826.273333,345 L824.617333,345 L831.337333,328.872 L832.849333,328.872 L839.569333,345 L837.937333,345 Z M828.985333,338.376 L835.225333,338.376 L832.105333,330.72 L828.985333,338.376 Z M848.492,342.312 L849.284,343.536 C849.187999,343.664001 849.060001,343.815999 848.9,343.992 C848.739999,344.168001 848.380003,344.411998 847.82,344.724 C847.259997,345.036002 846.684003,345.192 846.092,345.192 C845.083995,345.192 844.240003,344.892003 843.56,344.292 C842.879996,343.691997 842.54,342.824006 842.54,341.688 L842.54,334.44 L840.62,334.44 L840.62,332.976 L842.54,332.976 L842.54,329.184 L844.124,328.992 L844.124,332.976 L847.748,332.976 L847.748,334.44 L844.124,334.44 L844.124,341.328 C844.124,342.064004 844.351998,342.647998 844.808,343.08 C845.264002,343.512002 845.787997,343.728 846.38,343.728 C846.748002,343.728 847.107998,343.616001 847.46,343.392 C847.812002,343.167999 848.071999,342.948001 848.24,342.732 C848.408001,342.515999 848.492,342.376 848.492,342.312 Z M861.302667,343.368 C860.102661,344.584006 858.646675,345.192 856.934667,345.192 C855.222658,345.192 853.762673,344.588006 852.554667,343.38 C851.346661,342.171994 850.742667,340.712009 850.742667,339 C850.742667,337.287991 851.346661,335.828006 852.554667,334.62 C853.762673,333.411994 855.222658,332.808 856.934667,332.808 C858.646675,332.808 860.106661,333.411994 861.314667,334.62 C862.522673,335.828006 863.126667,337.287991 863.126667,339 C863.126667,340.696008 862.518673,342.151994 861.302667,343.368 Z M856.958667,343.68 C858.254673,343.68 859.346662,343.228005 860.234667,342.324 C861.122671,341.419995 861.566667,340.312007 861.566667,339 C861.566667,337.687993 861.122671,336.576005 860.234667,335.664 C859.346662,334.751995 858.254673,334.296 856.958667,334.296 C855.67866,334.296 854.590671,334.751995 853.694667,335.664 C852.798662,336.576005 852.350667,337.687993 852.350667,339 C852.350667,340.312007 852.798662,341.419995 853.694667,342.324 C854.590671,343.228005 855.67866,343.68 856.958667,343.68 Z M880.353333,332.808 C881.74534,332.808 882.913329,333.299995 883.857333,334.284 C884.801338,335.268005 885.273333,336.479993 885.273333,337.92 L885.273333,345 L883.641333,345 L883.641333,337.968 C883.641333,336.927995 883.301337,336.052004 882.621333,335.34 C881.94133,334.627996 881.097338,334.272 880.089333,334.272 C879.081328,334.272 878.233337,334.627996 877.545333,335.34 C876.85733,336.052004 876.513333,336.927995 876.513333,337.968 L876.513333,345 L874.905333,345 L874.905333,337.968 C874.905333,336.943995 874.557337,336.072004 873.861333,335.352 C873.16533,334.631996 872.321338,334.272 871.329333,334.272 C870.337328,334.272 869.493337,334.631996 868.797333,335.352 C868.10133,336.072004 867.753333,336.943995 867.753333,337.968 L867.753333,345 L866.169333,345 L866.169333,333 L867.753333,333 L867.753333,334.776 C868.729338,333.463993 870.009325,332.808 871.593333,332.808 C872.505338,332.808 873.34133,333.039998 874.101333,333.504 C874.861337,333.968002 875.457331,334.591996 875.889333,335.376 C876.305335,334.591996 876.905329,333.968002 877.689333,333.504 C878.473337,333.039998 879.361328,332.808 880.353333,332.808 Z" id="Structure-of-an-Atom-Copy" fill="#23ABE3"></path>
    </g>
</svg>