<?xml version="1.0" encoding="UTF-8"?>
<svg width="900px" height="390px" viewBox="0 0 900 390" version="1.1" xmlns="http://www.w3.org/2000/svg" xmlns:xlink="http://www.w3.org/1999/xlink">
    <!-- Generator: Sketch 52.5 (67469) - http://www.bohemiancoding.com/sketch -->
    <title>Voltage_Reference</title>
    <desc>Created with Sketch.</desc>
    <g id="Voltage_Reference" stroke="none" stroke-width="1" fill="none" fill-rule="evenodd">
        <rect id="Rectangle" fill="#EEEEEE" x="0" y="0" width="900" height="430"></rect>
        <g id="Illustration" transform="translate(39.000000, 62.000000)">
            <g id="Labels" transform="translate(7.000000, 0.000000)">
                <g id="Vf" transform="translate(90.000000, 151.000000)">
                    <text id="5V" font-family="MrsEavesOT-Roman, Mrs Eaves OT" font-size="36" font-weight="normal" letter-spacing="-2.159999" fill="#524740">
                        <tspan x="0" y="67">5V</tspan>
                    </text>
                    <path d="M4.5,60.304 C4.88400192,59.8239976 5.45999616,59.4400014 6.228,59.152 C6.99600384,58.8639986 7.76399616,58.72 8.532,58.72 C10.5480101,58.72 12.2099935,59.4399928 13.518,60.88 C14.8260065,62.3200072 15.48,64.0959894 15.48,66.208 C15.48,68.2720103 14.7660071,70.0419926 13.338,71.518 C11.9099929,72.9940074 10.20001,73.732 8.208,73.732 C6.47999136,73.732 5.07000546,73.2880044 3.978,72.4 C2.88599454,71.5119956 2.34,70.6480042 2.34,69.808 C2.34,69.1599968 2.67599664,68.836 3.348,68.836 C3.66000156,68.836 3.9359988,69.0219981 4.176,69.394 C4.4160012,69.7660019 4.63199904,70.1679978 4.824,70.6 C5.01600096,71.0320022 5.40599706,71.4339981 5.994,71.806 C6.58200294,72.1780019 7.31999556,72.364 8.208,72.364 C9.62400708,72.364 10.6919964,71.7940057 11.412,70.654 C12.1320036,69.5139943 12.492,68.0320091 12.492,66.208 C12.492,64.3839909 12.1380035,62.9320054 11.43,61.852 C10.7219965,60.7719946 9.6480072,60.232 8.208,60.232 C5.87998836,60.232 4.5360018,61.4079882 4.176,63.76 L2.844,63.76 L3.96,51.412 L10.044,51.412 C11.6040078,51.412 12.6239976,51.2260019 13.104,50.854 C13.5840024,50.4819981 13.9559987,49.7560054 14.22,48.676 L15.048,48.676 L14.148,53.932 L5.04,53.932 L4.5,60.304 Z M39.132001,46.156 C37.7159939,46.156 36.7980031,46.3299983 36.378001,46.678 C35.9579989,47.0260017 35.448004,47.895993 34.848001,49.288 L26.928001,67.612 L26.460001,67.612 L18.504001,49.288 C17.903998,47.895993 17.3940031,47.0260017 16.974001,46.678 C16.5539989,46.3299983 15.6360081,46.156 14.220001,46.156 L14.220001,45.4 L24.192001,45.4 L24.192001,46.156 C22.7039936,46.156 21.7500031,46.3659979 21.330001,46.786 C20.9099989,47.2060021 20.9279987,47.9079951 21.384001,48.892 L27.504001,62.896 L33.552001,48.892 C34.0080033,47.9079951 34.0260031,47.2060021 33.606001,46.786 C33.1859989,46.3659979 32.2320084,46.156 30.744001,46.156 L30.744001,45.4 L39.132001,45.4 L39.132001,46.156 Z" id="5V-Copy" fill="#524740"></path>
                    <path id="Line-10-Copy" d="M14.5,11.5 L14.5,0.144107069 L14.5,-1.35589293 L17.5,-1.35589293 L17.5,0.144107069 L17.5,11.5 L25.5,11.5 L16,30.5 L6.5,11.5 L14.5,11.5 Z" fill="#23ABE3" fill-rule="nonzero"></path>
                </g>
                <g id="VS" transform="translate(0.000000, 49.000000)">
                    <path d="M16.668,93.952 C16.668,96.0880107 16.3740029,98.1039905 15.786,100 C15.1979971,101.896009 14.2560065,103.491994 12.96,104.788 C11.6639935,106.084006 10.1400088,106.732 8.388,106.732 C6.97199292,106.732 5.73000534,106.432003 4.662,105.832 C3.59399466,105.231997 3.06,104.620003 3.06,103.996 C3.06,103.707999 3.16799892,103.474001 3.384,103.294 C3.60000108,103.113999 3.8279988,103.024 4.068,103.024 C4.3080012,103.024 4.55999868,103.155999 4.824,103.42 C5.08800132,103.684001 5.34599874,103.971998 5.598,104.284 C5.85000126,104.596002 6.22199754,104.883999 6.714,105.148 C7.20600246,105.412001 7.751997,105.544 8.352,105.544 C11.5920162,105.544 13.3559986,102.088035 13.644,95.176 C12.5879947,96.5920071 11.160009,97.3 9.36,97.3 C7.36799004,97.3 5.65800714,96.6400066 4.23,95.32 C2.80199286,93.9999934 2.088,92.4040094 2.088,90.532 C2.088,88.6839908 2.80199286,87.1000066 4.23,85.78 C5.65800714,84.4599934 7.36799004,83.8 9.36,83.8 C9.960003,83.8 10.5659969,83.8779992 11.178,84.034 C11.7900031,84.1900008 12.4319966,84.5019977 13.104,84.97 C13.7760034,85.4380023 14.3699974,86.0319964 14.886,86.752 C15.4020026,87.4720036 15.8279983,88.4559938 16.164,89.704 C16.5000017,90.9520062 16.668,92.3679921 16.668,93.952 Z M13.68,93.196 C13.6319998,91.5399917 13.4460016,90.1420057 13.122,89.002 C12.7979984,87.8619943 12.3960024,87.0460025 11.916,86.554 C11.4359976,86.0619975 10.992002,85.720001 10.584,85.528 C10.175998,85.335999 9.76800204,85.24 9.36,85.24 C7.89599268,85.24 6.81600348,85.7559948 6.12,86.788 C5.42399652,87.8200052 5.076,89.0799926 5.076,90.568 C5.076,92.0560074 5.42399652,93.3099949 6.12,94.33 C6.81600348,95.3500051 7.89599268,95.86 9.36,95.86 C10.3920052,95.86 11.3159959,95.6020026 12.132,95.086 C12.9480041,94.5699974 13.4639989,93.9400037 13.68,93.196 Z M40.284001,79.156 C38.8679939,79.156 37.9500031,79.3299983 37.530001,79.678 C37.1099989,80.0260017 36.600004,80.895993 36.000001,82.288 L28.080001,100.612 L27.612001,100.612 L19.656001,82.288 C19.055998,80.895993 18.5460031,80.0260017 18.126001,79.678 C17.7059989,79.3299983 16.7880081,79.156 15.372001,79.156 L15.372001,78.4 L25.344001,78.4 L25.344001,79.156 C23.8559936,79.156 22.9020031,79.3659979 22.482001,79.786 C22.0619989,80.2060021 22.0799987,80.9079951 22.536001,81.892 L28.656001,95.896 L34.704001,81.892 C35.1600033,80.9079951 35.1780031,80.2060021 34.758001,79.786 C34.3379989,79.3659979 33.3840084,79.156 31.896001,79.156 L31.896001,78.4 L40.284001,78.4 L40.284001,79.156 Z" id="9V-Copy" fill="#524740"></path>
                    <path id="Line-10-Copy-3" d="M17.5,18.5 L17.5,51.5790412 L17.5,53.0790412 L14.5,53.0790412 L14.5,51.5790412 L14.5,18.5 L6.5,18.5 L16,-0.5 L25.5,18.5 L17.5,18.5 Z" fill="#23ABE3" fill-rule="nonzero"></path>
                    <path id="Line-10-Copy-2" d="M14.5,169.5 L14.5,130.769596 L14.5,129.269596 L17.5,129.269596 L17.5,130.769596 L17.5,169.5 L25.5,169.5 L16,188.5 L6.5,169.5 L14.5,169.5 Z" fill="#23ABE3" fill-rule="nonzero"></path>
                </g>
                <path d="M632.544,63.156 C631.127993,63.156 630.210002,63.3299983 629.79,63.678 C629.369998,64.0260017 628.860003,64.895993 628.26,66.288 L620.34,84.612 L619.872,84.612 L611.916,66.288 C611.315997,64.895993 610.806002,64.0260017 610.386,63.678 C609.965998,63.3299983 609.048007,63.156 607.632,63.156 L607.632,62.4 L617.604,62.4 L617.604,63.156 C616.115993,63.156 615.162002,63.3659979 614.742,63.786 C614.321998,64.2060021 614.339998,64.9079951 614.796,65.892 L620.916,79.896 L626.964,65.892 C627.420002,64.9079951 627.438002,64.2060021 627.018,63.786 C626.597998,63.3659979 625.644007,63.156 624.156,63.156 L624.156,62.4 L632.544,62.4 L632.544,63.156 Z M641.076001,87.344 C642.516008,88.6160064 643.236001,90.1639909 643.236001,91.988 C643.236001,93.8120091 642.522008,95.3719935 641.094001,96.668 C639.665994,97.9640065 637.956011,98.612 635.964001,98.612 C633.971991,98.612 632.262008,97.9640065 630.834001,96.668 C629.405994,95.3719935 628.692001,93.8120091 628.692001,91.988 C628.692001,90.1639909 629.405994,88.6100064 630.834001,87.326 C632.262008,86.0419936 633.971991,85.4 635.964001,85.4 C637.956011,85.4 639.659994,86.0479935 641.076001,87.344 Z M639.204001,95.768 C639.948005,94.7839951 640.320001,93.5240077 640.320001,91.988 C640.320001,90.4519923 639.948005,89.1980049 639.204001,88.226 C638.459997,87.2539951 637.380008,86.768 635.964001,86.768 C634.547994,86.768 633.468005,87.2599951 632.724001,88.244 C631.979997,89.2280049 631.608001,90.4759924 631.608001,91.988 C631.608001,93.5000076 631.979997,94.7479951 632.724001,95.732 C633.468005,96.7160049 634.547994,97.208 635.964001,97.208 C637.380008,97.208 638.459997,96.7280048 639.204001,95.768 Z M660.912002,97.712 L656.088002,98.612 C655.896001,98.2279981 655.704003,97.4600058 655.512002,96.308 C654.023995,97.8440077 652.45201,98.612 650.796002,98.612 C647.819987,98.612 646.332002,96.812018 646.332002,93.212 L646.332002,90.944 C646.332002,89.143991 646.158004,87.9920025 645.810002,87.488 C645.462,86.9839975 644.688008,86.732 643.488002,86.732 L643.488002,86.012 L648.888002,86.012 L648.888002,93.032 C648.888002,95.6000128 649.799993,96.884 651.624002,96.884 C652.440006,96.884 653.291998,96.5420034 654.180002,95.858 C655.068006,95.1739966 655.512002,94.328005 655.512002,93.32 L655.512002,90.944 C655.512002,89.143991 655.338004,87.9920025 654.990002,87.488 C654.642,86.9839975 653.856008,86.732 652.632002,86.732 L652.632002,86.012 L658.032002,86.012 L658.032002,92.744 C658.032002,94.544009 658.206,95.6959975 658.554002,96.2 C658.902004,96.7040025 659.687996,96.956 660.912002,96.956 L660.912002,97.712 Z M662.316003,87.272 L660.444003,87.272 L660.444003,86.408 C661.476008,86.1919989 662.232001,85.7240036 662.712003,85.004 C663.192005,84.2839964 663.504002,83.3000062 663.648003,82.052 L664.872003,82.052 L664.872003,86.012 L668.004003,86.012 L668.004003,87.272 L664.872003,87.272 L664.872003,94.472 C664.872003,96.2000086 665.411998,97.064 666.492003,97.064 C667.188006,97.064 667.967999,96.6560041 668.832003,95.84 L669.444003,96.452 C668.94,97.052003 668.334007,97.5439981 667.626003,97.928 C666.917999,98.3120019 666.264006,98.504 665.664003,98.504 C664.631998,98.504 663.816006,98.1680034 663.216003,97.496 C662.616,96.8239966 662.316003,95.8160067 662.316003,94.472 L662.316003,87.272 Z M687.624005,74.712 L677.112005,74.712 L677.112005,73.092 L687.624005,73.092 L687.624005,74.712 Z M687.624005,79.212 L677.112005,79.212 L677.112005,77.592 L687.624005,77.592 L687.624005,79.212 Z M706.668007,66.288 L706.668007,81.192 L707.064007,81.192 C708.600015,81.192 709.614005,81.0000019 710.106007,80.616 C710.598009,80.2319981 710.976006,79.5120053 711.240007,78.456 L711.420007,77.736 L712.176007,77.736 L711.888007,82.488 L706.668007,82.488 L706.668007,85.188 C706.668007,86.988009 706.872005,88.1339975 707.280007,88.626 C707.688009,89.1180025 708.636,89.364 710.124007,89.364 L710.124007,90.12 L700.692007,90.12 L700.692007,89.364 C702.180014,89.364 703.128005,89.1180025 703.536007,88.626 C703.944009,88.1339975 704.148007,86.988009 704.148007,85.188 L704.148007,82.488 L695.976007,82.488 L695.976007,81.804 L706.020007,66.288 L706.668007,66.288 Z M704.148007,81.192 L704.148007,71.58 L697.920007,81.192 L704.148007,81.192 Z M735.504008,63.156 C734.088001,63.156 733.17001,63.3299983 732.750008,63.678 C732.330006,64.0260017 731.820011,64.895993 731.220008,66.288 L723.300008,84.612 L722.832008,84.612 L714.876008,66.288 C714.276005,64.895993 713.76601,64.0260017 713.346008,63.678 C712.926006,63.3299983 712.008015,63.156 710.592008,63.156 L710.592008,62.4 L720.564008,62.4 L720.564008,63.156 C719.076001,63.156 718.12201,63.3659979 717.702008,63.786 C717.282006,64.2060021 717.300006,64.9079951 717.756008,65.892 L723.876008,79.896 L729.924008,65.892 C730.38001,64.9079951 730.39801,64.2060021 729.978008,63.786 C729.558006,63.3659979 728.604015,63.156 727.116008,63.156 L727.116008,62.4 L735.504008,62.4 L735.504008,63.156 Z" id="Vout-=-4V-Copy" fill="#524740"></path>
                <g id="Vref" transform="translate(185.000000, 259.000000)">
                    <path d="M127.544,4.156 C126.127993,4.156 125.210002,4.32999826 124.79,4.678 C124.369998,5.02600174 123.860003,5.89599304 123.26,7.288 L115.34,25.612 L114.872,25.612 L106.916,7.288 C106.315997,5.89599304 105.806002,5.02600174 105.386,4.678 C104.965998,4.32999826 104.048007,4.156 102.632,4.156 L102.632,3.4 L112.604,3.4 L112.604,4.156 C111.115993,4.156 110.162002,4.3659979 109.742,4.786 C109.321998,5.2060021 109.339998,5.90799508 109.796,6.892 L115.916,20.896 L121.964,6.892 C122.420002,5.90799508 122.438002,5.2060021 122.018,4.786 C121.597998,4.3659979 120.644007,4.156 119.156,4.156 L119.156,3.4 L127.544,3.4 L127.544,4.156 Z M137.444001,28.632 C137.444001,29.7600056 136.964006,30.324 136.004001,30.324 C135.667999,30.324 135.374002,30.1920013 135.122001,29.928 C134.87,29.6639987 134.744001,29.3640017 134.744001,29.028 C134.744001,28.235996 134.360005,27.84 133.592001,27.84 C133.039998,27.84 132.440004,28.2239962 131.792001,28.992 C131.143998,29.7600038 130.820001,30.7799936 130.820001,32.052 L130.820001,34.032 C130.820001,35.832009 130.993999,36.9839975 131.342001,37.488 C131.690003,37.9920025 132.463995,38.244 133.664001,38.244 L133.664001,39 L125.420001,39 L125.420001,38.244 C126.620007,38.244 127.393999,37.9920025 127.742001,37.488 C128.090003,36.9839975 128.264001,35.832009 128.264001,34.032 L128.264001,32.232 C128.264001,30.4559911 128.090003,29.3160025 127.742001,28.812 C127.393999,28.3079975 126.620007,28.056 125.420001,28.056 L125.420001,27.3 L130.208001,26.4 C130.424002,26.8560023 130.628,27.7199936 130.820001,28.992 C131.180003,28.2719964 131.719997,27.6600025 132.440001,27.156 C133.160005,26.6519975 133.879997,26.4 134.600001,26.4 C135.512006,26.4 136.213999,26.6399976 136.706001,27.12 C137.198003,27.6000024 137.444001,28.1039974 137.444001,28.632 Z M140.252002,30.756 L146.228002,30.756 C146.468003,30.0839966 146.366004,29.4300032 145.922002,28.794 C145.478,28.1579968 144.716007,27.84 143.636002,27.84 C142.867998,27.84 142.178005,28.1039974 141.566002,28.632 C140.953999,29.1600026 140.516003,29.8679956 140.252002,30.756 Z M140.036002,32.088 C139.820001,33.8640089 140.101998,35.3099944 140.882002,36.426 C141.662006,37.5420056 142.939993,38.1 144.716002,38.1 C145.316005,38.1 145.999998,37.9440016 146.768002,37.632 C147.536006,37.3199984 148.171999,36.9240024 148.676002,36.444 L149.324002,37.236 C148.675999,37.9320035 147.848007,38.5019978 146.840002,38.946 C145.831997,39.3900022 144.824007,39.612 143.816002,39.612 C141.871992,39.612 140.276008,38.9700064 139.028002,37.686 C137.779996,36.4019936 137.156002,34.8360092 137.156002,32.988 C137.156002,31.1399908 137.833995,29.5800064 139.190002,28.308 C140.546009,27.0359936 142.087993,26.4 143.816002,26.4 C145.44801,26.4 146.779997,26.9699943 147.812002,28.11 C148.844007,29.2500057 149.144004,30.5759924 148.712002,32.088 L140.036002,32.088 Z M155.228003,28.272 L155.228003,34.032 C155.228003,35.832009 155.402001,36.9839975 155.750003,37.488 C156.098005,37.9920025 156.871997,38.244 158.072003,38.244 L158.072003,39 L149.828003,39 L149.828003,38.244 C151.028009,38.244 151.802001,37.9920025 152.150003,37.488 C152.498005,36.9839975 152.672003,35.832009 152.672003,34.032 L152.672003,28.272 L149.720003,28.272 L149.720003,27.012 L152.672003,27.012 L152.672003,23.556 C152.672003,21.2759886 153.241997,19.5780056 154.382003,18.462 C155.522009,17.3459944 156.919995,16.788 158.576003,16.788 C159.680009,16.788 160.556,17.0699972 161.204003,17.634 C161.852006,18.1980028 162.176003,18.8039968 162.176003,19.452 C162.176003,19.8360019 162.074004,20.1479988 161.870003,20.388 C161.666002,20.6280012 161.372005,20.748 160.988003,20.748 C160.604001,20.748 160.304004,20.6040014 160.088003,20.316 C159.872002,20.0279986 159.728003,19.7100017 159.656003,19.362 C159.584003,19.0139983 159.404004,18.6960014 159.116003,18.408 C158.828002,18.1199986 158.432006,17.976 157.928003,17.976 C156.991998,17.976 156.308005,18.4019957 155.876003,19.254 C155.444001,20.1060043 155.228003,21.5399899 155.228003,23.556 L155.228003,27.012 L158.828003,27.012 L158.828003,28.272 L155.228003,28.272 Z M177.296005,15.712 L166.784005,15.712 L166.784005,14.092 L177.296005,14.092 L177.296005,15.712 Z M177.296005,20.212 L166.784005,20.212 L166.784005,18.592 L177.296005,18.592 L177.296005,20.212 Z M188.852007,18.304 C189.236009,17.8239976 189.812003,17.4400014 190.580007,17.152 C191.348011,16.8639986 192.116003,16.72 192.884007,16.72 C194.900017,16.72 196.562,17.4399928 197.870007,18.88 C199.178014,20.3200072 199.832007,22.0959894 199.832007,24.208 C199.832007,26.2720103 199.118014,28.0419926 197.690007,29.518 C196.262,30.9940074 194.552017,31.732 192.560007,31.732 C190.831998,31.732 189.422012,31.2880044 188.330007,30.4 C187.238002,29.5119956 186.692007,28.6480042 186.692007,27.808 C186.692007,27.1599968 187.028004,26.836 187.700007,26.836 C188.012009,26.836 188.288006,27.0219981 188.528007,27.394 C188.768008,27.7660019 188.984006,28.1679978 189.176007,28.6 C189.368008,29.0320022 189.758004,29.4339981 190.346007,29.806 C190.93401,30.1780019 191.672003,30.364 192.560007,30.364 C193.976014,30.364 195.044003,29.7940057 195.764007,28.654 C196.484011,27.5139943 196.844007,26.0320091 196.844007,24.208 C196.844007,22.3839909 196.490011,20.9320054 195.782007,19.852 C195.074003,18.7719946 194.000014,18.232 192.560007,18.232 C190.231995,18.232 188.888009,19.4079882 188.528007,21.76 L187.196007,21.76 L188.312007,9.412 L194.396007,9.412 C195.956015,9.412 196.976005,9.22600186 197.456007,8.854 C197.936009,8.48199814 198.308006,7.7560054 198.572007,6.676 L199.400007,6.676 L198.500007,11.932 L189.392007,11.932 L188.852007,18.304 Z M223.484008,4.156 C222.068001,4.156 221.15001,4.32999826 220.730008,4.678 C220.310006,5.02600174 219.800011,5.89599304 219.200008,7.288 L211.280008,25.612 L210.812008,25.612 L202.856008,7.288 C202.256005,5.89599304 201.74601,5.02600174 201.326008,4.678 C200.906006,4.32999826 199.988015,4.156 198.572008,4.156 L198.572008,3.4 L208.544008,3.4 L208.544008,4.156 C207.056001,4.156 206.10201,4.3659979 205.682008,4.786 C205.262006,5.2060021 205.280006,5.90799508 205.736008,6.892 L211.856008,20.896 L217.904008,6.892 C218.36001,5.90799508 218.37801,5.2060021 217.958008,4.786 C217.538006,4.3659979 216.584015,4.156 215.096008,4.156 L215.096008,3.4 L223.484008,3.4 L223.484008,4.156 Z" id="Vref-=-5V-Copy" fill="#524740"></path>
                    <path id="Line-11-Copy" d="M19,20.5 L97.1662606,20.5 L98.6662606,20.5 L98.6662606,23.5 L97.1662606,23.5 L19,23.5 L19,31.5 L6.21724894e-15,22 L19,12.5 L19,20.5 Z" fill="#23ABE3" fill-rule="nonzero"></path>
                </g>
                <g id="Current" transform="translate(292.000000, 0.000000)">
                    <path d="M22.248,24.604 L21.528,24.604 C21.335999,23.6679953 20.9280031,22.9840022 20.304,22.552 C18.3359902,24.5920102 16.1040125,25.612 13.608,25.612 C10.5599848,25.612 7.9560108,24.4960112 5.796,22.264 C3.6359892,20.0319888 2.556,17.3440157 2.556,14.2 C2.556,11.0559843 3.6359892,8.36801116 5.796,6.136 C7.9560108,3.90398884 10.5599848,2.788 13.608,2.788 C16.1520127,2.788 18.3839904,3.8079898 20.304,5.848 C20.9520032,5.34399748 21.3599992,4.66000432 21.528,3.796 L22.248,3.796 L22.248,11.716 L21.528,11.716 C21.0239975,9.33998812 20.0940068,7.4920066 18.738,6.172 C17.3819932,4.8519934 15.7200098,4.192 13.752,4.192 C12.3839932,4.192 11.1720053,4.49799694 10.116,5.11 C9.05999472,5.72200306 8.23800294,6.53199496 7.65,7.54 C7.06199706,8.54800504 6.62400144,9.61599436 6.336,10.744 C6.04799856,11.8720056 5.904,13.0239941 5.904,14.2 C5.904,15.3760059 6.04799856,16.5279944 6.336,17.656 C6.62400144,18.7840056 7.06199706,19.845995 7.65,20.842 C8.23800294,21.838005 9.05999472,22.6419969 10.116,23.254 C11.1720053,23.8660031 12.3839932,24.172 13.752,24.172 C15.7200098,24.172 17.3819932,23.5060067 18.738,22.174 C20.0940068,20.8419933 21.0239975,19.0120116 21.528,16.684 L22.248,16.684 L22.248,24.604 Z M40.860001,24.712 L36.036001,25.612 C35.844,25.2279981 35.652002,24.4600058 35.460001,23.308 C33.9719936,24.8440077 32.4000093,25.612 30.744001,25.612 C27.7679861,25.612 26.280001,23.812018 26.280001,20.212 L26.280001,17.944 C26.280001,16.143991 26.1060027,14.9920025 25.758001,14.488 C25.4099993,13.9839975 24.636007,13.732 23.436001,13.732 L23.436001,13.012 L28.836001,13.012 L28.836001,20.032 C28.836001,22.6000128 29.7479919,23.884 31.572001,23.884 C32.3880051,23.884 33.2399966,23.5420034 34.128001,22.858 C35.0160054,22.1739966 35.460001,21.328005 35.460001,20.32 L35.460001,17.944 C35.460001,16.143991 35.2860027,14.9920025 34.938001,14.488 C34.5899993,13.9839975 33.8040071,13.732 32.580001,13.732 L32.580001,13.012 L37.980001,13.012 L37.980001,19.744 C37.980001,21.544009 38.1539993,22.6959975 38.502001,23.2 C38.8500027,23.7040025 39.6359949,23.956 40.860001,23.956 L40.860001,24.712 Z M52.776002,14.632 C52.776002,15.7600056 52.2960068,16.324 51.336002,16.324 C51.0000003,16.324 50.7060033,16.1920013 50.454002,15.928 C50.2020007,15.6639987 50.076002,15.3640017 50.076002,15.028 C50.076002,14.235996 49.6920058,13.84 48.924002,13.84 C48.3719992,13.84 47.7720052,14.2239962 47.124002,14.992 C46.4759988,15.7600038 46.152002,16.7799936 46.152002,18.052 L46.152002,20.032 C46.152002,21.832009 46.3260003,22.9839975 46.674002,23.488 C47.0220037,23.9920025 47.795996,24.244 48.996002,24.244 L48.996002,25 L40.752002,25 L40.752002,24.244 C41.952008,24.244 42.7260003,23.9920025 43.074002,23.488 C43.4220037,22.9839975 43.596002,21.832009 43.596002,20.032 L43.596002,18.232 C43.596002,16.4559911 43.4220037,15.3160025 43.074002,14.812 C42.7260003,14.3079975 41.952008,14.056 40.752002,14.056 L40.752002,13.3 L45.540002,12.4 C45.7560031,12.8560023 45.960001,13.7199936 46.152002,14.992 C46.5120038,14.2719964 47.0519984,13.6600025 47.772002,13.156 C48.4920056,12.6519975 49.2119984,12.4 49.932002,12.4 C50.8440066,12.4 51.5459995,12.6399976 52.038002,13.12 C52.5300045,13.6000024 52.776002,14.1039974 52.776002,14.632 Z M64.764003,14.632 C64.764003,15.7600056 64.2840078,16.324 63.324003,16.324 C62.9880013,16.324 62.6940043,16.1920013 62.442003,15.928 C62.1900017,15.6639987 62.064003,15.3640017 62.064003,15.028 C62.064003,14.235996 61.6800068,13.84 60.912003,13.84 C60.3600002,13.84 59.7600062,14.2239962 59.112003,14.992 C58.4639998,15.7600038 58.140003,16.7799936 58.140003,18.052 L58.140003,20.032 C58.140003,21.832009 58.3140013,22.9839975 58.662003,23.488 C59.0100047,23.9920025 59.783997,24.244 60.984003,24.244 L60.984003,25 L52.740003,25 L52.740003,24.244 C53.940009,24.244 54.7140013,23.9920025 55.062003,23.488 C55.4100047,22.9839975 55.584003,21.832009 55.584003,20.032 L55.584003,18.232 C55.584003,16.4559911 55.4100047,15.3160025 55.062003,14.812 C54.7140013,14.3079975 53.940009,14.056 52.740003,14.056 L52.740003,13.3 L57.528003,12.4 C57.7440041,12.8560023 57.948002,13.7199936 58.140003,14.992 C58.5000048,14.2719964 59.0399994,13.6600025 59.760003,13.156 C60.4800066,12.6519975 61.1999994,12.4 61.920003,12.4 C62.8320076,12.4 63.5340005,12.6399976 64.026003,13.12 C64.5180055,13.6000024 64.764003,14.1039974 64.764003,14.632 Z M67.572004,16.756 L73.548004,16.756 C73.7880052,16.0839966 73.6860062,15.4300032 73.242004,14.794 C72.7980018,14.1579968 72.0360094,13.84 70.956004,13.84 C70.1880002,13.84 69.4980071,14.1039974 68.886004,14.632 C68.2740009,15.1600026 67.8360053,15.8679956 67.572004,16.756 Z M67.356004,18.088 C67.1400029,19.8640089 67.4220001,21.3099944 68.202004,22.426 C68.9820079,23.5420056 70.2599951,24.1 72.036004,24.1 C72.636007,24.1 73.3200002,23.9440016 74.088004,23.632 C74.8560078,23.3199984 75.4920015,22.9240024 75.996004,22.444 L76.644004,23.236 C75.9960008,23.9320035 75.168009,24.5019978 74.160004,24.946 C73.151999,25.3900022 72.144009,25.612 71.136004,25.612 C69.1919943,25.612 67.5960102,24.9700064 66.348004,23.686 C65.0999978,22.4019936 64.476004,20.8360092 64.476004,18.988 C64.476004,17.1399908 65.1539972,15.5800064 66.510004,14.308 C67.8660108,13.0359936 69.4079954,12.4 71.136004,12.4 C72.7680122,12.4 74.0999988,12.9699943 75.132004,14.11 C76.1640092,15.2500057 76.4640062,16.5759924 76.032004,18.088 L67.356004,18.088 Z M82.548005,14.992 C83.9160118,13.2639914 85.5839952,12.4 87.552005,12.4 C89.1120128,12.4 90.2820011,12.8919951 91.062005,13.876 C91.8420089,14.8600049 92.232005,16.155992 92.232005,17.764 L92.232005,20.032 C92.232005,21.832009 92.4060033,22.9839975 92.754005,23.488 C93.1020067,23.9920025 93.875999,24.244 95.076005,24.244 L95.076005,25 L86.832005,25 L86.832005,24.244 C88.0080109,24.244 88.7760032,23.9860026 89.136005,23.47 C89.4960068,22.9539974 89.676005,21.8080089 89.676005,20.032 L89.676005,17.944 C89.676005,15.3759872 88.680015,14.092 86.688005,14.092 C85.6559998,14.092 84.7080093,14.4519964 83.844005,15.172 C82.9800007,15.8920036 82.548005,16.7319952 82.548005,17.692 L82.548005,20.032 C82.548005,21.8800092 82.6920036,23.0439976 82.980005,23.524 C83.2680064,24.0040024 83.9639995,24.244 85.068005,24.244 L85.068005,25 L77.148005,25 L77.148005,24.244 C78.348011,24.244 79.1220033,23.9920025 79.470005,23.488 C79.8180067,22.9839975 79.992005,21.832009 79.992005,20.032 L79.992005,18.232 C79.992005,16.4559911 79.8180067,15.3160025 79.470005,14.812 C79.1220033,14.3079975 78.348011,14.056 77.148005,14.056 L77.148005,13.3 L81.936005,12.4 C82.1520061,12.8560023 82.356004,13.7199936 82.548005,14.992 Z M96.480006,14.272 L94.608006,14.272 L94.608006,13.408 C95.6400112,13.1919989 96.3960036,12.7240036 96.876006,12.004 C97.3560084,11.2839964 97.6680053,10.3000062 97.812006,9.052 L99.036006,9.052 L99.036006,13.012 L102.168006,13.012 L102.168006,14.272 L99.036006,14.272 L99.036006,21.472 C99.036006,23.2000086 99.5760006,24.064 100.656006,24.064 C101.352009,24.064 102.132002,23.6560041 102.996006,22.84 L103.608006,23.452 C103.104003,24.052003 102.49801,24.5439981 101.790006,24.928 C101.082002,25.3120019 100.428009,25.504 99.828006,25.504 C98.7960008,25.504 97.980009,25.1680034 97.380006,24.496 C96.780003,23.8239966 96.480006,22.8160067 96.480006,21.472 L96.480006,14.272 Z" id="Current-Copy" fill="#524740"></path>
                    <path id="Line-11" d="M188,19.5 L116.058534,19.5 L114.558534,19.5 L114.558534,16.5 L116.058534,16.5 L188,16.5 L188,8.5 L207,18 L188,27.5 L188,19.5 Z" fill="#23ABE3" fill-rule="nonzero"></path>
                </g>
            </g>
            <g id="Dam" transform="translate(171.000000, 48.000000)">
                <polygon id="Path-11" fill="#999999" points="244.058534 192 407 191 312 146 311 133 261 133 255 180"></polygon>
                <polygon id="Path-12" fill="#23ABE3" points="244 192 0 192 0.000227000001 133 261 133 255 181"></polygon>
                <path d="M0,133 L311,133 C319.666667,133 328.666667,137.333333 338,146 C342.053997,149.764426 346,156 353,165 C361.666667,169.666667 379.666667,178.333333 407,191 L518,191 C517.844883,149.144106 517.844883,125.144106 518,119 C505,117 454.77431,107.038198 439,97 C428,90 404.342766,62.6101873 401,59 C376,32 357,7 261,5.20535004e-13 C251,5.20535004e-13 164,4.38584354e-14 0,-9.09494702e-13 L0,133 Z" id="Path-13" fill="#23ABE3"></path>
            </g>
            <g id="Level-Lines" transform="translate(0.000000, 47.000000)" stroke="#524740" stroke-linecap="square" stroke-width="2">
                <path d="M162.5,192 L0.5,192" id="Line-9"></path>
                <path d="M423.9375,135 L80.5,135" id="Line-9-Copy"></path>
                <path d="M162.5,1 L0.5,1" id="Line-9-Copy-2"></path>
            </g>
        </g>
        <path d="M33.448,19.808 L35.86,19.808 L26.32,44 L23.908,44 L14.332,19.808 L16.78,19.808 L25.132,40.94 L33.448,19.808 Z M48.748001,41.552 C46.947992,43.3760091 44.7640138,44.288 42.196001,44.288 C39.6279882,44.288 37.4380101,43.3820091 35.626001,41.57 C33.8139919,39.7579909 32.908001,37.5680128 32.908001,35 C32.908001,32.4319872 33.8139919,30.2420091 35.626001,28.43 C37.4380101,26.6179909 39.6279882,25.712 42.196001,25.712 C44.7640138,25.712 46.9539919,26.6179909 48.766001,28.43 C50.5780101,30.2420091 51.484001,32.4319872 51.484001,35 C51.484001,37.5440127 50.5720101,39.7279909 48.748001,41.552 Z M42.232001,42.02 C44.1760107,42.02 45.8139943,41.3420068 47.146001,39.986 C48.4780077,38.6299932 49.144001,36.9680098 49.144001,35 C49.144001,33.0319902 48.4780077,31.3640068 47.146001,29.996 C45.8139943,28.6279932 44.1760107,27.944 42.232001,27.944 C40.3119914,27.944 38.6800077,28.6279932 37.336001,29.996 C35.9919943,31.3640068 35.320001,33.0319902 35.320001,35 C35.320001,36.9680098 35.9919943,38.6299932 37.336001,39.986 C38.6800077,41.3420068 40.3119914,42.02 42.232001,42.02 Z M53.248002,44 L53.248002,17.216 L55.624002,17.216 L55.624002,44 L53.248002,44 Z M68.692003,39.968 L69.880003,41.804 C69.7360023,41.996001 69.5440042,42.2239987 69.304003,42.488 C69.0640018,42.7520013 68.5240072,43.1179977 67.684003,43.586 C66.8439988,44.0540023 65.9800074,44.288 65.092003,44.288 C63.5799954,44.288 62.3140081,43.8380045 61.294003,42.938 C60.2739979,42.0379955 59.764003,40.7360085 59.764003,39.032 L59.764003,28.16 L56.884003,28.16 L56.884003,25.964 L59.764003,25.964 L59.764003,20.276 L62.140003,19.988 L62.140003,25.964 L67.576003,25.964 L67.576003,28.16 L62.140003,28.16 L62.140003,38.492 C62.140003,39.5960055 62.4819996,40.4719968 63.166003,41.12 C63.8500064,41.7680032 64.6359986,42.092 65.524003,42.092 C66.0760058,42.092 66.6160004,41.9240017 67.144003,41.588 C67.6720056,41.2519983 68.0620017,40.9220016 68.314003,40.598 C68.5660043,40.2739984 68.692003,40.0640005 68.692003,39.968 Z M85.216004,26 L87.592004,26 L87.592004,44 L85.216004,44 L85.216004,41.084 C83.3679948,43.2200107 81.0280182,44.288 78.196004,44.288 C75.6279912,44.288 73.4380131,43.3820091 71.626004,41.57 C69.8139949,39.7579909 68.908004,37.5680128 68.908004,35 C68.908004,32.4319872 69.8139949,30.2420091 71.626004,28.43 C73.4380131,26.6179909 75.6279912,25.712 78.196004,25.712 C81.0520183,25.712 83.3919949,26.7799893 85.216004,28.916 L85.216004,26 Z M78.232004,42.02 C80.1760137,42.02 81.8139973,41.3420068 83.146004,39.986 C84.4780107,38.6299932 85.144004,36.9680098 85.144004,35 C85.144004,33.0319902 84.4780107,31.3700068 83.146004,30.014 C81.8139973,28.6579932 80.1760137,27.98 78.232004,27.98 C76.3119944,27.98 74.6740108,28.6579932 73.318004,30.014 C71.9619972,31.3700068 71.284004,33.0319902 71.284004,35 C71.284004,36.9680098 71.9619972,38.6299932 73.318004,39.986 C74.6740108,41.3420068 76.3119944,42.02 78.232004,42.02 Z M105.628005,26.036 L108.040005,26.036 L108.040005,42.452 C108.016005,45.0680131 107.074014,47.2579912 105.214005,49.022 C103.353996,50.7860088 101.200017,51.668 98.752005,51.668 C96.5199938,51.668 94.6180129,51.0740059 93.046005,49.886 C91.4739971,48.6979941 90.4120078,47.3600074 89.860005,45.872 L91.804005,44.9 C92.2600073,46.1240061 93.1239986,47.1919954 94.396005,48.104 C95.6680114,49.0160046 97.1199968,49.472 98.752005,49.472 C100.672015,49.472 102.297998,48.770007 103.630005,47.366 C104.962012,45.961993 105.640005,44.3240094 105.664005,42.452 L105.628005,42.452 L105.628005,41.12 C103.803996,43.2560107 101.464019,44.324 98.608005,44.324 C96.0399922,44.324 93.8500141,43.4180091 92.038005,41.606 C90.2259959,39.7939909 89.320005,37.6040128 89.320005,35.036 C89.320005,32.4679872 90.2259959,30.2780091 92.038005,28.466 C93.8500141,26.6539909 96.0399922,25.748 98.608005,25.748 C101.440019,25.748 103.779996,26.8159893 105.628005,28.952 L105.628005,26.036 Z M98.644005,42.092 C100.588015,42.092 102.225998,41.4140068 103.558005,40.058 C104.890012,38.7019932 105.556005,37.0400098 105.556005,35.072 C105.556005,33.1039902 104.890012,31.4420068 103.558005,30.086 C102.225998,28.7299932 100.588015,28.052 98.644005,28.052 C96.7239954,28.052 95.0920117,28.7299932 93.748005,30.086 C92.4039983,31.4420068 91.732005,33.1039902 91.732005,35.072 C91.732005,37.0400098 92.4039983,38.7019932 93.748005,40.058 C95.0920117,41.4140068 96.7239954,42.092 98.644005,42.092 Z M119.092006,41.912 C120.700014,41.912 122.14,41.4560046 123.412006,40.544 C124.684012,39.6319954 125.548004,38.5640061 126.004006,37.34 L128.020006,38.06 C127.468003,39.5720076 126.394014,40.9639936 124.798006,42.236 C123.201998,43.5080064 121.300017,44.1320001 119.092006,44.108 C117.075996,44.108 115.234014,43.4840062 113.566006,42.236 C111.897998,40.9879938 110.764009,39.3920097 110.164006,37.448 C109.924005,36.655996 109.804006,35.7920047 109.804006,34.856 C109.804006,32.263987 110.703997,30.068009 112.504006,28.268 C114.304015,26.467991 116.499993,25.5560001 119.092006,25.532 C121.444018,25.5560001 123.495997,26.3479922 125.248006,27.908 C127.000015,29.4680078 128.008005,31.3999885 128.272006,33.704 C128.296006,33.8240006 128.308006,33.979999 128.308006,34.172 L112.576006,37.016 C112.984008,38.4560072 113.8,39.6379954 115.024006,40.562 C116.248012,41.4860046 117.603999,41.9360001 119.092006,41.912 Z M118.876006,27.728 C117.075997,27.7520001 115.534012,28.3999936 114.250006,29.672 C112.966,30.9440064 112.276006,32.4679911 112.180006,34.244 C112.180006,34.3160004 112.186006,34.4419991 112.198006,34.622 C112.210006,34.8020009 112.216006,34.9519994 112.216006,35.072 L125.608006,32.66 C125.152004,31.1959927 124.300012,30.0020046 123.052006,29.078 C121.804,28.1539954 120.412014,27.7039999 118.876006,27.728 Z M138.100008,44 L138.100008,19.808 L146.308008,19.808 C149.020022,19.808 151.18,20.5219929 152.788008,21.95 C154.396016,23.3780071 155.200008,25.1719892 155.200008,27.332 C155.200008,28.940008 154.726013,30.3679938 153.778008,31.616 C152.830003,32.8640062 151.504017,33.7519974 149.800008,34.28 L155.200008,44 L152.716008,44 L147.568008,34.784 L146.092008,34.856 L140.476008,34.856 L140.476008,44 L138.100008,44 Z M140.476008,32.588 L146.308008,32.588 C148.252018,32.588 149.812002,32.090005 150.988008,31.094 C152.164014,30.097995 152.752008,28.8440076 152.752008,27.332 C152.752008,25.8439926 152.164014,24.596005 150.988008,23.588 C149.812002,22.579995 148.252018,22.076 146.308008,22.076 L140.476008,22.076 L140.476008,32.588 Z M164.704009,41.912 C166.312017,41.912 167.752003,41.4560046 169.024009,40.544 C170.296015,39.6319954 171.160007,38.5640061 171.616009,37.34 L173.632009,38.06 C173.080006,39.5720076 172.006017,40.9639936 170.410009,42.236 C168.814001,43.5080064 166.91202,44.1320001 164.704009,44.108 C162.687999,44.108 160.846017,43.4840062 159.178009,42.236 C157.510001,40.9879938 156.376012,39.3920097 155.776009,37.448 C155.536008,36.655996 155.416009,35.7920047 155.416009,34.856 C155.416009,32.263987 156.316,30.068009 158.116009,28.268 C159.916018,26.467991 162.111996,25.5560001 164.704009,25.532 C167.056021,25.5560001 169.108,26.3479922 170.860009,27.908 C172.612018,29.4680078 173.620008,31.3999885 173.884009,33.704 C173.908009,33.8240006 173.920009,33.979999 173.920009,34.172 L158.188009,37.016 C158.596011,38.4560072 159.412003,39.6379954 160.636009,40.562 C161.860015,41.4860046 163.216002,41.9360001 164.704009,41.912 Z M164.488009,27.728 C162.688,27.7520001 161.146015,28.3999936 159.862009,29.672 C158.578003,30.9440064 157.888009,32.4679911 157.792009,34.244 C157.792009,34.3160004 157.798009,34.4419991 157.810009,34.622 C157.822009,34.8020009 157.828009,34.9519994 157.828009,35.072 L171.220009,32.66 C170.764007,31.1959927 169.912015,30.0020046 168.664009,29.078 C167.416003,28.1539954 166.024017,27.7039999 164.488009,27.728 Z M181.76801,25.928 L181.76801,27.908 L178.24001,27.908 L178.24001,44 L175.90001,44 L175.90001,27.908 L173.77601,27.908 L173.77601,25.928 L175.90001,25.928 L175.90001,20.708 C175.90001,18.2119875 176.884,16.964 178.85201,16.964 C179.284012,16.964 179.722008,16.9999996 180.16601,17.072 C180.610012,17.1440004 180.940009,17.2159996 181.15601,17.288 L181.48001,17.396 L180.97601,19.232 C180.496008,19.1119994 180.016012,19.052 179.53601,19.052 C179.008007,19.052 178.660011,19.2259983 178.49201,19.574 C178.324009,19.9220017 178.24001,20.5879951 178.24001,21.572 L178.24001,25.928 L181.76801,25.928 Z M190.732011,41.912 C192.340019,41.912 193.780005,41.4560046 195.052011,40.544 C196.324017,39.6319954 197.188009,38.5640061 197.644011,37.34 L199.660011,38.06 C199.108008,39.5720076 198.034019,40.9639936 196.438011,42.236 C194.842003,43.5080064 192.940022,44.1320001 190.732011,44.108 C188.716001,44.108 186.874019,43.4840062 185.206011,42.236 C183.538003,40.9879938 182.404014,39.3920097 181.804011,37.448 C181.56401,36.655996 181.444011,35.7920047 181.444011,34.856 C181.444011,32.263987 182.344002,30.068009 184.144011,28.268 C185.94402,26.467991 188.139998,25.5560001 190.732011,25.532 C193.084023,25.5560001 195.136002,26.3479922 196.888011,27.908 C198.64002,29.4680078 199.64801,31.3999885 199.912011,33.704 C199.936011,33.8240006 199.948011,33.979999 199.948011,34.172 L184.216011,37.016 C184.624013,38.4560072 185.440005,39.6379954 186.664011,40.562 C187.888017,41.4860046 189.244004,41.9360001 190.732011,41.912 Z M190.516011,27.728 C188.716002,27.7520001 187.174017,28.3999936 185.890011,29.672 C184.606005,30.9440064 183.916011,32.4679911 183.820011,34.244 C183.820011,34.3160004 183.826011,34.4419991 183.838011,34.622 C183.850011,34.8020009 183.856011,34.9519994 183.856011,35.072 L197.248011,32.66 C196.792009,31.1959927 195.940017,30.0020046 194.692011,29.078 C193.444005,28.1539954 192.052019,27.7039999 190.516011,27.728 Z M209.308012,25.712 C210.580018,25.712 211.744007,26.0239969 212.800012,26.648 L211.972012,29.024 C210.964007,28.2799963 209.944017,27.908 208.912012,27.908 C207.400004,27.908 206.128017,28.4419947 205.096012,29.51 C204.064007,30.5780053 203.548012,31.8919922 203.548012,33.452 L203.548012,44 L201.172012,44 L201.172012,26 L203.548012,26 L203.548012,28.664 C205.012019,26.6959902 206.932,25.712 209.308012,25.712 Z M220.612013,41.912 C222.220021,41.912 223.660007,41.4560046 224.932013,40.544 C226.204019,39.6319954 227.068011,38.5640061 227.524013,37.34 L229.540013,38.06 C228.98801,39.5720076 227.914021,40.9639936 226.318013,42.236 C224.722005,43.5080064 222.820024,44.1320001 220.612013,44.108 C218.596003,44.108 216.754021,43.4840062 215.086013,42.236 C213.418005,40.9879938 212.284016,39.3920097 211.684013,37.448 C211.444012,36.655996 211.324013,35.7920047 211.324013,34.856 C211.324013,32.263987 212.224004,30.068009 214.024013,28.268 C215.824022,26.467991 218.02,25.5560001 220.612013,25.532 C222.964025,25.5560001 225.016004,26.3479922 226.768013,27.908 C228.520022,29.4680078 229.528012,31.3999885 229.792013,33.704 C229.816013,33.8240006 229.828013,33.979999 229.828013,34.172 L214.096013,37.016 C214.504015,38.4560072 215.320007,39.6379954 216.544013,40.562 C217.768019,41.4860046 219.124006,41.9360001 220.612013,41.912 Z M220.396013,27.728 C218.596004,27.7520001 217.054019,28.3999936 215.770013,29.672 C214.486007,30.9440064 213.796013,32.4679911 213.700013,34.244 C213.700013,34.3160004 213.706013,34.4419991 213.718013,34.622 C213.730013,34.8020009 213.736013,34.9519994 213.736013,35.072 L227.128013,32.66 C226.672011,31.1959927 225.820019,30.0020046 224.572013,29.078 C223.324007,28.1539954 221.932021,27.7039999 220.396013,27.728 Z M239.188014,25.712 C241.276024,25.712 243.028007,26.4499926 244.444014,27.926 C245.860021,29.4020074 246.568014,31.2199892 246.568014,33.38 L246.568014,44 L244.156014,44 L244.156014,33.452 C244.156014,31.9159923 243.634019,30.6080054 242.590014,29.528 C241.546009,28.4479946 240.280021,27.908 238.792014,27.908 C237.304007,27.908 236.038019,28.4479946 234.994014,29.528 C233.950009,30.6080054 233.428014,31.9159923 233.428014,33.452 L233.428014,44 L231.052014,44 L231.052014,26 L233.428014,26 L233.428014,28.664 C234.892021,26.6959902 236.812002,25.712 239.188014,25.712 Z M257.080015,44.288 C254.512002,44.288 252.322024,43.3820091 250.510015,41.57 C248.698006,39.7579909 247.792015,37.5680128 247.792015,35 C247.792015,32.4319872 248.698006,30.2420091 250.510015,28.43 C252.322024,26.6179909 254.512002,25.712 257.080015,25.712 C258.712023,25.712 260.230008,26.113996 261.634015,26.918 C263.038022,27.722004 264.148011,28.7959933 264.964015,30.14 L262.804015,31.184 C262.156012,30.1999951 261.32802,29.4200029 260.320015,28.844 C259.31201,28.2679971 258.232021,27.98 257.080015,27.98 C255.136005,27.98 253.498022,28.6579932 252.166015,30.014 C250.834008,31.3700068 250.168015,33.0319902 250.168015,35 C250.168015,36.9680098 250.834008,38.6299932 252.166015,39.986 C253.498022,41.3420068 255.136005,42.02 257.080015,42.02 C258.232021,42.02 259.31201,41.7320029 260.320015,41.156 C261.32802,40.5799971 262.156012,39.8000049 262.804015,38.816 L264.964015,39.86 C264.148011,41.2040067 263.038022,42.277996 261.634015,43.082 C260.230008,43.886004 258.712023,44.288 257.080015,44.288 Z M274.648016,41.912 C276.256024,41.912 277.69601,41.4560046 278.968016,40.544 C280.240022,39.6319954 281.104014,38.5640061 281.560016,37.34 L283.576016,38.06 C283.024013,39.5720076 281.950024,40.9639936 280.354016,42.236 C278.758008,43.5080064 276.856027,44.1320001 274.648016,44.108 C272.632006,44.108 270.790024,43.4840062 269.122016,42.236 C267.454008,40.9879938 266.320019,39.3920097 265.720016,37.448 C265.480015,36.655996 265.360016,35.7920047 265.360016,34.856 C265.360016,32.263987 266.260007,30.068009 268.060016,28.268 C269.860025,26.467991 272.056003,25.5560001 274.648016,25.532 C277.000028,25.5560001 279.052007,26.3479922 280.804016,27.908 C282.556025,29.4680078 283.564015,31.3999885 283.828016,33.704 C283.852016,33.8240006 283.864016,33.979999 283.864016,34.172 L268.132016,37.016 C268.540018,38.4560072 269.35601,39.6379954 270.580016,40.562 C271.804022,41.4860046 273.160009,41.9360001 274.648016,41.912 Z M274.432016,27.728 C272.632007,27.7520001 271.090022,28.3999936 269.806016,29.672 C268.52201,30.9440064 267.832016,32.4679911 267.736016,34.244 C267.736016,34.3160004 267.742016,34.4419991 267.754016,34.622 C267.766016,34.8020009 267.772016,34.9519994 267.772016,35.072 L281.164016,32.66 C280.708014,31.1959927 279.856022,30.0020046 278.608016,29.078 C277.36001,28.1539954 275.968024,27.7039999 274.432016,27.728 Z" id="Voltage-Reference-Copy" fill="#23ABE3"></path>
    </g>
</svg>