<?xml version="1.0" encoding="UTF-8"?>
<svg width="900px" height="400px" viewBox="0 0 900 400" version="1.1" xmlns="http://www.w3.org/2000/svg" xmlns:xlink="http://www.w3.org/1999/xlink">
    <!-- Generator: Sketch 52.5 (67469) - http://www.bohemiancoding.com/sketch -->
    <title>Voltage_Reference</title>
    <desc>Created with Sketch.</desc>
    <g id="Voltage_Reference" stroke="none" stroke-width="1" fill="none" fill-rule="evenodd">
        <rect id="Rectangle" stroke="#3D3530" stroke-width="2" fill="#EEEEEE" x="1" y="1" width="898" height="428"></rect>
        <g id="Illustration" transform="translate(39.000000, 27.000000)">
            <g id="Labels" transform="translate(7.000000, 0.000000)">
                <g id="Vf" transform="translate(90.000000, 146.000000)">
                    <text id="5V-Copy" font-family="MrsEavesOT-Roman, Mrs Eaves OT" font-size="24" font-weight="normal" letter-spacing="1" fill="#524740">
                        <tspan x="0" y="65">5V</tspan>
                    </text>
                    <path id="Line-10-Copy" d="M14.5,11.5 L14.5,0.144107069 L14.5,-1.35589293 L17.5,-1.35589293 L17.5,0.144107069 L17.5,11.5 L25.5,11.5 L16,30.5 L6.5,11.5 L14.5,11.5 Z" fill="#23ABE3" fill-rule="nonzero"></path>
                </g>
                <g id="VS" transform="translate(0.000000, 44.000000)">
                    <text id="9V-Copy" font-family="MrsEavesOT-Roman, Mrs Eaves OT" font-size="24" font-weight="normal" letter-spacing="1" fill="#524740">
                        <tspan x="0" y="98">9V</tspan>
                    </text>
                    <path id="Line-10-Copy-3" d="M17.5,18.5 L17.5,51.5790412 L17.5,53.0790412 L14.5,53.0790412 L14.5,51.5790412 L14.5,18.5 L6.5,18.5 L16,-0.5 L25.5,18.5 L17.5,18.5 Z" fill="#23ABE3" fill-rule="nonzero"></path>
                    <path id="Line-10-Copy-2" d="M14.5,169.5 L14.5,130.769596 L14.5,129.269596 L17.5,129.269596 L17.5,130.769596 L17.5,169.5 L25.5,169.5 L16,188.5 L6.5,169.5 L14.5,169.5 Z" fill="#23ABE3" fill-rule="nonzero"></path>
                </g>
                <path d="M624.696,57.104 C623.751995,57.104 623.140001,57.2199988 622.86,57.452 C622.579999,57.6840012 622.240002,58.2639954 621.84,59.192 L616.56,71.408 L616.248,71.408 L610.944,59.192 C610.543998,58.2639954 610.204001,57.6840012 609.924,57.452 C609.643999,57.2199988 609.032005,57.104 608.088,57.104 L608.088,56.6 L614.736,56.6 L614.736,57.104 C613.743995,57.104 613.108001,57.2439986 612.828,57.524 C612.547999,57.8040014 612.559998,58.2719967 612.864,58.928 L616.944,68.264 L620.976,58.928 C621.280002,58.2719967 621.292001,57.8040014 621.012,57.524 C620.731999,57.2439986 620.096005,57.104 619.104,57.104 L619.104,56.6 L624.696,56.6 L624.696,57.104 Z M632.824,72.896 C633.784005,73.7440042 634.264,74.7759939 634.264,75.992 C634.264,77.2080061 633.788005,78.2479957 632.836,79.112 C631.883995,79.9760043 630.744007,80.408 629.416,80.408 C628.087993,80.408 626.948005,79.9760043 625.996,79.112 C625.043995,78.2479957 624.568,77.2080061 624.568,75.992 C624.568,74.7759939 625.043995,73.7400043 625.996,72.884 C626.948005,72.0279957 628.087993,71.6 629.416,71.6 C630.744007,71.6 631.879995,72.0319957 632.824,72.896 Z M631.576,78.512 C632.072002,77.8559967 632.32,77.0160051 632.32,75.992 C632.32,74.9679949 632.072002,74.1320032 631.576,73.484 C631.079998,72.8359968 630.360005,72.512 629.416,72.512 C628.471995,72.512 627.752002,72.8399967 627.256,73.496 C626.759998,74.1520033 626.512,74.983995 626.512,75.992 C626.512,77.000005 626.759998,77.8319967 627.256,78.488 C627.752002,79.1440033 628.471995,79.472 629.416,79.472 C630.360005,79.472 631.079998,79.1520032 631.576,78.512 Z M648.488,79.808 L645.272,80.408 C645.143999,80.1519987 645.016001,79.6400038 644.888,78.872 C643.895995,79.8960051 642.848006,80.408 641.744,80.408 C639.75999,80.408 638.768,79.208012 638.768,76.808 L638.768,75.296 C638.768,74.095994 638.652001,73.3280017 638.42,72.992 C638.187999,72.6559983 637.672004,72.488 636.872,72.488 L636.872,72.008 L640.472,72.008 L640.472,76.688 C640.472,78.4000086 641.079994,79.256 642.296,79.256 C642.840003,79.256 643.407997,79.0280023 644,78.572 C644.592003,78.1159977 644.888,77.5520034 644.888,76.88 L644.888,75.296 C644.888,74.095994 644.772001,73.3280017 644.54,72.992 C644.307999,72.6559983 643.784004,72.488 642.968,72.488 L642.968,72.008 L646.568,72.008 L646.568,76.496 C646.568,77.696006 646.683999,78.4639983 646.916,78.8 C647.148001,79.1360017 647.671996,79.304 648.488,79.304 L648.488,79.808 Z M651.864,72.848 L650.616,72.848 L650.616,72.272 C651.304003,72.1279993 651.807998,71.8160024 652.128,71.336 C652.448002,70.8559976 652.656,70.2000042 652.752,69.368 L653.568,69.368 L653.568,72.008 L655.656,72.008 L655.656,72.848 L653.568,72.848 L653.568,77.648 C653.568,78.8000058 653.927996,79.376 654.648,79.376 C655.112002,79.376 655.631997,79.1040027 656.208,78.56 L656.616,78.968 C656.279998,79.368002 655.876002,79.6959987 655.404,79.952 C654.931998,80.2080013 654.496002,80.336 654.096,80.336 C653.407997,80.336 652.864002,80.1120022 652.464,79.664 C652.063998,79.2159978 651.864,78.5440045 651.864,77.648 L651.864,72.848 Z M673.616,64.808 L666.608,64.808 L666.608,63.728 L673.616,63.728 L673.616,64.808 Z M673.616,67.808 L666.608,67.808 L666.608,66.728 L673.616,66.728 L673.616,67.808 Z M691.192,59.192 L691.192,69.128 L691.456,69.128 C692.480005,69.128 693.155998,69.0000013 693.484,68.744 C693.812002,68.4879987 694.063999,68.0080035 694.24,67.304 L694.36,66.824 L694.864,66.824 L694.672,69.992 L691.192,69.992 L691.192,71.792 C691.192,72.992006 691.327999,73.7559984 691.6,74.084 C691.872001,74.4120016 692.503995,74.576 693.496,74.576 L693.496,75.08 L687.208,75.08 L687.208,74.576 C688.200005,74.576 688.831999,74.4120016 689.104,74.084 C689.376001,73.7559984 689.512,72.992006 689.512,71.792 L689.512,69.992 L684.064,69.992 L684.064,69.536 L690.76,59.192 L691.192,59.192 Z M689.512,69.128 L689.512,62.72 L685.36,69.128 L689.512,69.128 Z M712.856,57.104 C711.911995,57.104 711.300001,57.2199988 711.02,57.452 C710.739999,57.6840012 710.400002,58.2639954 710,59.192 L704.72,71.408 L704.408,71.408 L699.104,59.192 C698.703998,58.2639954 698.364001,57.6840012 698.084,57.452 C697.803999,57.2199988 697.192005,57.104 696.248,57.104 L696.248,56.6 L702.896,56.6 L702.896,57.104 C701.903995,57.104 701.268001,57.2439986 700.988,57.524 C700.707999,57.8040014 700.719998,58.2719967 701.024,58.928 L705.104,68.264 L709.136,58.928 C709.440002,58.2719967 709.452001,57.8040014 709.172,57.524 C708.891999,57.2439986 708.256005,57.104 707.264,57.104 L707.264,56.6 L712.856,56.6 L712.856,57.104 Z" id="Vout-=-4V-Copy" fill="#524740"></path>
                <g id="Vref" transform="translate(185.000000, 263.000000)">
                    <path d="M130.696,3.104 C129.751995,3.104 129.140001,3.21999884 128.86,3.452 C128.579999,3.68400116 128.240002,4.26399536 127.84,5.192 L122.56,17.408 L122.248,17.408 L116.944,5.192 C116.543998,4.26399536 116.204001,3.68400116 115.924,3.452 C115.643999,3.21999884 115.032005,3.104 114.088,3.104 L114.088,2.6 L120.736,2.6 L120.736,3.104 C119.743995,3.104 119.108001,3.2439986 118.828,3.524 C118.547999,3.8040014 118.559998,4.27199672 118.864,4.928 L122.944,14.264 L126.976,4.928 C127.280002,4.27199672 127.292001,3.8040014 127.012,3.524 C126.731999,3.2439986 126.096005,3.104 125.104,3.104 L125.104,2.6 L130.696,2.6 L130.696,3.104 Z M139.736,19.088 C139.736,19.8400038 139.416003,20.216 138.776,20.216 C138.551999,20.216 138.356001,20.1280009 138.188,19.952 C138.019999,19.7759991 137.936,19.5760011 137.936,19.352 C137.936,18.8239974 137.680003,18.56 137.168,18.56 C136.799998,18.56 136.400002,18.8159974 135.968,19.328 C135.535998,19.8400026 135.32,20.5199958 135.32,21.368 L135.32,22.688 C135.32,23.888006 135.435999,24.6559983 135.668,24.992 C135.900001,25.3280017 136.415996,25.496 137.216,25.496 L137.216,26 L131.72,26 L131.72,25.496 C132.520004,25.496 133.035999,25.3280017 133.268,24.992 C133.500001,24.6559983 133.616,23.888006 133.616,22.688 L133.616,21.488 C133.616,20.3039941 133.500001,19.5440017 133.268,19.208 C133.035999,18.8719983 132.520004,18.704 131.72,18.704 L131.72,18.2 L134.912,17.6 C135.056001,17.9040015 135.191999,18.4799958 135.32,19.328 C135.560001,18.8479976 135.919998,18.4400017 136.4,18.104 C136.880002,17.7679983 137.359998,17.6 137.84,17.6 C138.448003,17.6 138.915998,17.7599984 139.244,18.08 C139.572002,18.4000016 139.736,18.7359982 139.736,19.088 Z M144.048,20.504 L148.032,20.504 C148.192001,20.0559978 148.124001,19.6200021 147.828,19.196 C147.531999,18.7719979 147.024004,18.56 146.304,18.56 C145.791997,18.56 145.332002,18.7359982 144.924,19.088 C144.515998,19.4400018 144.224001,19.911997 144.048,20.504 Z M143.904,21.392 C143.759999,22.5760059 143.947997,23.5399963 144.468,24.284 C144.988003,25.0280037 145.839994,25.4 147.024,25.4 C147.424002,25.4 147.879997,25.296001 148.392,25.088 C148.904003,24.879999 149.327998,24.6160016 149.664,24.296 L150.096,24.824 C149.663998,25.2880023 149.112003,25.6679985 148.44,25.964 C147.767997,26.2600015 147.096003,26.408 146.424,26.408 C145.127994,26.408 144.064004,25.9800043 143.232,25.124 C142.399996,24.2679957 141.984,23.2240062 141.984,21.992 C141.984,20.7599938 142.435995,19.7200042 143.34,18.872 C144.244005,18.0239958 145.271994,17.6 146.424,17.6 C147.512005,17.6 148.399997,17.9799962 149.088,18.74 C149.776003,19.5000038 149.976001,20.383995 149.688,21.392 L143.904,21.392 Z M156.472,18.848 L156.472,22.688 C156.472,23.888006 156.587999,24.6559983 156.82,24.992 C157.052001,25.3280017 157.567996,25.496 158.368,25.496 L158.368,26 L152.872,26 L152.872,25.496 C153.672004,25.496 154.187999,25.3280017 154.42,24.992 C154.652001,24.6559983 154.768,23.888006 154.768,22.688 L154.768,18.848 L152.8,18.848 L152.8,18.008 L154.768,18.008 L154.768,15.704 C154.768,14.1839924 155.147996,13.0520037 155.908,12.308 C156.668004,11.5639963 157.599994,11.192 158.704,11.192 C159.440004,11.192 160.023998,11.3799981 160.456,11.756 C160.888002,12.1320019 161.104,12.5359978 161.104,12.968 C161.104,13.2240013 161.036001,13.4319992 160.9,13.592 C160.763999,13.7520008 160.568001,13.832 160.312,13.832 C160.055999,13.832 159.856001,13.736001 159.712,13.544 C159.567999,13.351999 159.472,13.1400012 159.424,12.908 C159.376,12.6759988 159.256001,12.464001 159.064,12.272 C158.871999,12.079999 158.608002,11.984 158.272,11.984 C157.647997,11.984 157.192001,12.2679972 156.904,12.836 C156.615999,13.4040028 156.472,14.3599933 156.472,15.704 L156.472,18.008 L158.872,18.008 L158.872,18.848 L156.472,18.848 Z M176.064,10.808 L169.056,10.808 L169.056,9.728 L176.064,9.728 L176.064,10.808 Z M176.064,13.808 L169.056,13.808 L169.056,12.728 L176.064,12.728 L176.064,13.808 Z M188.648,12.536 C188.904001,12.2159984 189.287997,11.960001 189.8,11.768 C190.312003,11.575999 190.823997,11.48 191.336,11.48 C192.680007,11.48 193.787996,11.9599952 194.66,12.92 C195.532004,13.8800048 195.968,15.063993 195.968,16.472 C195.968,17.8480069 195.492005,19.0279951 194.54,20.012 C193.587995,20.9960049 192.448007,21.488 191.12,21.488 C189.967994,21.488 189.028004,21.192003 188.3,20.6 C187.571996,20.007997 187.208,19.4320028 187.208,18.872 C187.208,18.4399978 187.431998,18.224 187.88,18.224 C188.088001,18.224 188.271999,18.3479988 188.432,18.596 C188.592001,18.8440012 188.735999,19.1119986 188.864,19.4 C188.992001,19.6880014 189.251998,19.9559988 189.644,20.204 C190.036002,20.4520012 190.527997,20.576 191.12,20.576 C192.064005,20.576 192.775998,20.1960038 193.256,19.436 C193.736002,18.6759962 193.976,17.6880061 193.976,16.472 C193.976,15.2559939 193.740002,14.2880036 193.268,13.568 C192.795998,12.8479964 192.080005,12.488 191.12,12.488 C189.567992,12.488 188.672001,13.2719922 188.432,14.84 L187.544,14.84 L188.288,6.608 L192.344,6.608 C193.384005,6.608 194.063998,6.48400124 194.384,6.236 C194.704002,5.98799876 194.951999,5.5040036 195.128,4.784 L195.68,4.784 L195.08,8.288 L189.008,8.288 L188.648,12.536 Z M214.176,3.104 C213.231995,3.104 212.620001,3.21999884 212.34,3.452 C212.059999,3.68400116 211.720002,4.26399536 211.32,5.192 L206.04,17.408 L205.728,17.408 L200.424,5.192 C200.023998,4.26399536 199.684001,3.68400116 199.404,3.452 C199.123999,3.21999884 198.512005,3.104 197.568,3.104 L197.568,2.6 L204.216,2.6 L204.216,3.104 C203.223995,3.104 202.588001,3.2439986 202.308,3.524 C202.027999,3.8040014 202.039998,4.27199672 202.344,4.928 L206.424,14.264 L210.456,4.928 C210.760002,4.27199672 210.772001,3.8040014 210.492,3.524 C210.211999,3.2439986 209.576005,3.104 208.584,3.104 L208.584,2.6 L214.176,2.6 L214.176,3.104 Z" id="Vref-=-5V-Copy" fill="#524740"></path>
                    <path id="Line-11-Copy" d="M19,11.5 L97.1662606,11.5 L98.6662606,11.5 L98.6662606,14.5 L97.1662606,14.5 L19,14.5 L19,22.5 L6.21724894e-15,13 L19,3.5 L19,11.5 Z" fill="#23ABE3" fill-rule="nonzero"></path>
                </g>
                <g id="Current" transform="translate(307.000000, 0.000000)">
                    <path d="M14.832,16.736 L14.352,16.736 C14.2239994,16.1119969 13.9520021,15.6560014 13.536,15.368 C12.2239934,16.7280068 10.7360083,17.408 9.072,17.408 C7.03998984,17.408 5.3040072,16.6640074 3.864,15.176 C2.4239928,13.6879926 1.704,11.8960105 1.704,9.8 C1.704,7.70398952 2.4239928,5.91200744 3.864,4.424 C5.3040072,2.93599256 7.03998984,2.192 9.072,2.192 C10.7680085,2.192 12.2559936,2.8719932 13.536,4.232 C13.9680022,3.89599832 14.2399994,3.44000288 14.352,2.864 L14.832,2.864 L14.832,8.144 L14.352,8.144 C14.0159983,6.55999208 13.3960045,5.3280044 12.492,4.448 C11.5879955,3.5679956 10.4800066,3.128 9.168,3.128 C8.25599544,3.128 7.44800352,3.33199796 6.744,3.74 C6.03999648,4.14800204 5.49200196,4.68799664 5.1,5.36 C4.70799804,6.03200336 4.41600096,6.74399624 4.224,7.496 C4.03199904,8.24800376 3.936,9.01599608 3.936,9.8 C3.936,10.5840039 4.03199904,11.3519962 4.224,12.104 C4.41600096,12.8560038 4.70799804,13.5639967 5.1,14.228 C5.49200196,14.8920033 6.03999648,15.427998 6.744,15.836 C7.44800352,16.244002 8.25599544,16.448 9.168,16.448 C10.4800066,16.448 11.5879955,16.0040044 12.492,15.116 C13.3960045,14.2279956 14.0159983,13.0080078 14.352,11.456 L14.832,11.456 L14.832,16.736 Z M29.68,16.808 L26.464,17.408 C26.3359994,17.1519987 26.2080006,16.6400038 26.08,15.872 C25.087995,16.8960051 24.0400055,17.408 22.936,17.408 C20.9519901,17.408 19.96,16.208012 19.96,13.808 L19.96,12.296 C19.96,11.095994 19.8440012,10.3280017 19.612,9.992 C19.3799988,9.65599832 18.864004,9.488 18.064,9.488 L18.064,9.008 L21.664,9.008 L21.664,13.688 C21.664,15.4000086 22.2719939,16.256 23.488,16.256 C24.0320027,16.256 24.599997,16.0280023 25.192,15.572 C25.784003,15.1159977 26.08,14.5520034 26.08,13.88 L26.08,12.296 C26.08,11.095994 25.9640012,10.3280017 25.732,9.992 C25.4999988,9.65599832 24.9760041,9.488 24.16,9.488 L24.16,9.008 L27.76,9.008 L27.76,13.496 C27.76,14.696006 27.8759988,15.4639983 28.108,15.8 C28.3400012,16.1360017 28.8639959,16.304 29.68,16.304 L29.68,16.808 Z M40.064,10.088 C40.064,10.8400038 39.7440032,11.216 39.104,11.216 C38.8799989,11.216 38.6840008,11.1280009 38.516,10.952 C38.3479992,10.7759991 38.264,10.5760011 38.264,10.352 C38.264,9.82399736 38.0080026,9.56 37.496,9.56 C37.1279982,9.56 36.7280022,9.81599744 36.296,10.328 C35.8639978,10.8400026 35.648,11.5199958 35.648,12.368 L35.648,13.688 C35.648,14.888006 35.7639988,15.6559983 35.996,15.992 C36.2280012,16.3280017 36.743996,16.496 37.544,16.496 L37.544,17 L32.048,17 L32.048,16.496 C32.848004,16.496 33.3639988,16.3280017 33.596,15.992 C33.8280012,15.6559983 33.944,14.888006 33.944,13.688 L33.944,12.488 C33.944,11.3039941 33.8280012,10.5440017 33.596,10.208 C33.3639988,9.87199832 32.848004,9.704 32.048,9.704 L32.048,9.2 L35.24,8.6 C35.3840007,8.90400152 35.5199994,9.47999576 35.648,10.328 C35.8880012,9.8479976 36.2479976,9.44000168 36.728,9.104 C37.2080024,8.76799832 37.6879976,8.6 38.168,8.6 C38.776003,8.6 39.2439984,8.7599984 39.572,9.08 C39.9000016,9.4000016 40.064,9.73599824 40.064,10.088 Z M50.496,10.088 C50.496,10.8400038 50.1760032,11.216 49.536,11.216 C49.3119989,11.216 49.1160008,11.1280009 48.948,10.952 C48.7799992,10.7759991 48.696,10.5760011 48.696,10.352 C48.696,9.82399736 48.4400026,9.56 47.928,9.56 C47.5599982,9.56 47.1600022,9.81599744 46.728,10.328 C46.2959978,10.8400026 46.08,11.5199958 46.08,12.368 L46.08,13.688 C46.08,14.888006 46.1959988,15.6559983 46.428,15.992 C46.6600012,16.3280017 47.175996,16.496 47.976,16.496 L47.976,17 L42.48,17 L42.48,16.496 C43.280004,16.496 43.7959988,16.3280017 44.028,15.992 C44.2600012,15.6559983 44.376,14.888006 44.376,13.688 L44.376,12.488 C44.376,11.3039941 44.2600012,10.5440017 44.028,10.208 C43.7959988,9.87199832 43.280004,9.704 42.48,9.704 L42.48,9.2 L45.672,8.6 C45.8160007,8.90400152 45.9519994,9.47999576 46.08,10.328 C46.3200012,9.8479976 46.6799976,9.44000168 47.16,9.104 C47.6400024,8.76799832 48.1199976,8.6 48.6,8.6 C49.208003,8.6 49.6759984,8.7599984 50.004,9.08 C50.3320016,9.4000016 50.496,9.73599824 50.496,10.088 Z M54.808,11.504 L58.792,11.504 C58.9520008,11.0559978 58.8840015,10.6200021 58.588,10.196 C58.2919985,9.77199788 57.7840036,9.56 57.064,9.56 C56.5519974,9.56 56.092002,9.73599824 55.684,10.088 C55.275998,10.4400018 54.9840009,10.911997 54.808,11.504 Z M54.664,12.392 C54.5199993,13.5760059 54.7079974,14.5399963 55.228,15.284 C55.7480026,16.0280037 56.5999941,16.4 57.784,16.4 C58.184002,16.4 58.6399974,16.296001 59.152,16.088 C59.6640026,15.879999 60.0879983,15.6160016 60.424,15.296 L60.856,15.824 C60.4239978,16.2880023 59.8720034,16.6679985 59.2,16.964 C58.5279966,17.2600015 57.8560034,17.408 57.184,17.408 C55.8879935,17.408 54.8240042,16.9800043 53.992,16.124 C53.1599958,15.2679957 52.744,14.2240062 52.744,12.992 C52.744,11.7599938 53.1959955,10.7200042 54.1,9.872 C55.0040045,9.02399576 56.0319942,8.6 57.184,8.6 C58.2720054,8.6 59.1599966,8.9799962 59.848,9.74 C60.5360034,10.5000038 60.7360014,11.383995 60.448,12.392 L54.664,12.392 Z M67.232,10.328 C68.1440046,9.17599424 69.2559934,8.6 70.568,8.6 C71.6080052,8.6 72.3879974,8.92799672 72.908,9.584 C73.4280026,10.2400033 73.688,11.1039946 73.688,12.176 L73.688,13.688 C73.688,14.888006 73.8039988,15.6559983 74.036,15.992 C74.2680012,16.3280017 74.783996,16.496 75.584,16.496 L75.584,17 L70.088,17 L70.088,16.496 C70.8720039,16.496 71.3839988,16.3240017 71.624,15.98 C71.8640012,15.6359983 71.984,14.8720059 71.984,13.688 L71.984,12.296 C71.984,10.5839914 71.3200066,9.728 69.992,9.728 C69.3039966,9.728 68.6720029,9.9679976 68.096,10.448 C67.5199971,10.9280024 67.232,11.4879968 67.232,12.128 L67.232,13.688 C67.232,14.9200062 67.327999,15.6959984 67.52,16.016 C67.712001,16.3360016 68.1759963,16.496 68.912,16.496 L68.912,17 L63.632,17 L63.632,16.496 C64.432004,16.496 64.9479988,16.3280017 65.18,15.992 C65.4120012,15.6559983 65.528,14.888006 65.528,13.688 L65.528,12.488 C65.528,11.3039941 65.4120012,10.5440017 65.18,10.208 C64.9479988,9.87199832 64.432004,9.704 63.632,9.704 L63.632,9.2 L66.824,8.6 C66.9680007,8.90400152 67.1039994,9.47999576 67.232,10.328 Z M78.96,9.848 L77.712,9.848 L77.712,9.272 C78.4000034,9.12799928 78.9039984,8.8160024 79.224,8.336 C79.5440016,7.8559976 79.7519995,7.20000416 79.848,6.368 L80.664,6.368 L80.664,9.008 L82.752,9.008 L82.752,9.848 L80.664,9.848 L80.664,14.648 C80.664,15.8000058 81.0239964,16.376 81.744,16.376 C82.2080023,16.376 82.7279971,16.1040027 83.304,15.56 L83.712,15.968 C83.3759983,16.368002 82.9720024,16.6959987 82.5,16.952 C82.0279976,17.2080013 81.592002,17.336 81.192,17.336 C80.5039966,17.336 79.960002,17.1120022 79.56,16.664 C79.159998,16.2159978 78.96,15.5440045 78.96,14.648 L78.96,9.848 Z" id="Current-Copy" fill="#524740"></path>
                    <path id="Line-11" d="M173,14.5 L101.058534,14.5 L99.5585341,14.5 L99.5585341,11.5 L101.058534,11.5 L173,11.5 L173,3.5 L192,13 L173,22.5 L173,14.5 Z" fill="#23ABE3" fill-rule="nonzero"></path>
                </g>
            </g>
            <g id="Dam" transform="translate(171.000000, 43.000000)">
                <polygon id="Path-11" fill="#999999" points="244.058534 192 407 191 312 146 311 133 261 133 255 180"></polygon>
                <polygon id="Path-12" fill="#23ABE3" points="244 192 0 192 0.000227000001 133 261 133 255 181"></polygon>
                <path d="M0,133 L311,133 C319.666667,133 328.666667,137.333333 338,146 C342.053997,149.764426 346,156 353,165 C361.666667,169.666667 379.666667,178.333333 407,191 L518,191 C517.844883,149.144106 517.844883,125.144106 518,119 C505,117 454.77431,107.038198 439,97 C428,90 404.342766,62.6101873 401,59 C376,32 357,7 261,5.20535004e-13 C251,5.20535004e-13 164,4.38584354e-14 0,-9.09494702e-13 L0,133 Z" id="Path-13" fill="#23ABE3"></path>
            </g>
            <g id="Level-Lines" transform="translate(0.000000, 42.000000)" stroke="#524740" stroke-linecap="square" stroke-width="2">
                <path d="M162.5,192 L0.5,192" id="Line-9"></path>
                <path d="M423.9375,135 L80.5,135" id="Line-9-Copy"></path>
                <path d="M162.5,1 L0.5,1" id="Line-9-Copy-2"></path>
            </g>
        </g>
        <text id="Voltage-Reference" font-family="Wavehaus-66Book, Wavehaus" font-size="36" font-weight="300" letter-spacing="1" fill="#23ABE3">
            <tspan x="559.848" y="377">Voltage Reference</tspan>
        </text>
        <rect id="Rectangle-Copy" stroke="#3D3530" stroke-width="2" x="1" y="337" width="898" height="62"></rect>
    </g>
</svg>