<?xml version="1.0" encoding="UTF-8"?>
<svg width="900px" height="380px" viewBox="0 0 900 380" version="1.1" xmlns="http://www.w3.org/2000/svg" xmlns:xlink="http://www.w3.org/1999/xlink">
    <!-- Generator: Sketch 52.5 (67469) - http://www.bohemiancoding.com/sketch -->
    <title>Voltage_Reference</title>
    <desc>Created with Sketch.</desc>
    <g id="Voltage_Reference" stroke="none" stroke-width="1" fill="none" fill-rule="evenodd">
        <rect id="Rectangle" stroke="#3D3530" stroke-width="2" fill="#EEEEEE" x="1" y="1" width="898" height="428"></rect>
        <g id="Illustration" transform="translate(39.000000, 27.000000)">
            <g id="Labels" transform="translate(7.000000, 0.000000)">
                <g id="Vf" transform="translate(90.000000, 146.000000)">
                    <text id="5V-Copy" font-family="MrsEavesOT-Roman, Mrs Eaves OT" font-size="24" font-weight="normal" letter-spacing="1" fill="#524740">
                        <tspan x="0" y="65">5V</tspan>
                    </text>
                    <path id="Line-10-Copy" d="M14.5,11.5 L14.5,0.144107069 L14.5,-1.35589293 L17.5,-1.35589293 L17.5,0.144107069 L17.5,11.5 L25.5,11.5 L16,30.5 L6.5,11.5 L14.5,11.5 Z" fill="#23ABE3" fill-rule="nonzero"></path>
                </g>
                <g id="VS" transform="translate(0.000000, 44.000000)">
                    <text id="9V-Copy" font-family="MrsEavesOT-Roman, Mrs Eaves OT" font-size="24" font-weight="normal" letter-spacing="1" fill="#524740">
                        <tspan x="0" y="98">9V</tspan>
                    </text>
                    <path id="Line-10-Copy-3" d="M17.5,18.5 L17.5,51.5790412 L17.5,53.0790412 L14.5,53.0790412 L14.5,51.5790412 L14.5,18.5 L6.5,18.5 L16,-0.5 L25.5,18.5 L17.5,18.5 Z" fill="#23ABE3" fill-rule="nonzero"></path>
                    <path id="Line-10-Copy-2" d="M14.5,169.5 L14.5,130.769596 L14.5,129.269596 L17.5,129.269596 L17.5,130.769596 L17.5,169.5 L25.5,169.5 L16,188.5 L6.5,169.5 L14.5,169.5 Z" fill="#23ABE3" fill-rule="nonzero"></path>
                </g>
                <path d="M624.696,57.104 C623.751995,57.104 623.140001,57.2199988 622.86,57.452 C622.579999,57.6840012 622.240002,58.2639954 621.84,59.192 L616.56,71.408 L616.248,71.408 L610.944,59.192 C610.543998,58.2639954 610.204001,57.6840012 609.924,57.452 C609.643999,57.2199988 609.032005,57.104 608.088,57.104 L608.088,56.6 L614.736,56.6 L614.736,57.104 C613.743995,57.104 613.108001,57.2439986 612.828,57.524 C612.547999,57.8040014 612.559998,58.2719967 612.864,58.928 L616.944,68.264 L620.976,58.928 C621.280002,58.2719967 621.292001,57.8040014 621.012,57.524 C620.731999,57.2439986 620.096005,57.104 619.104,57.104 L619.104,56.6 L624.696,56.6 L624.696,57.104 Z M632.824,72.896 C633.784005,73.7440042 634.264,74.7759939 634.264,75.992 C634.264,77.2080061 633.788005,78.2479957 632.836,79.112 C631.883995,79.9760043 630.744007,80.408 629.416,80.408 C628.087993,80.408 626.948005,79.9760043 625.996,79.112 C625.043995,78.2479957 624.568,77.2080061 624.568,75.992 C624.568,74.7759939 625.043995,73.7400043 625.996,72.884 C626.948005,72.0279957 628.087993,71.6 629.416,71.6 C630.744007,71.6 631.879995,72.0319957 632.824,72.896 Z M631.576,78.512 C632.072002,77.8559967 632.32,77.0160051 632.32,75.992 C632.32,74.9679949 632.072002,74.1320032 631.576,73.484 C631.079998,72.8359968 630.360005,72.512 629.416,72.512 C628.471995,72.512 627.752002,72.8399967 627.256,73.496 C626.759998,74.1520033 626.512,74.983995 626.512,75.992 C626.512,77.000005 626.759998,77.8319967 627.256,78.488 C627.752002,79.1440033 628.471995,79.472 629.416,79.472 C630.360005,79.472 631.079998,79.1520032 631.576,78.512 Z M648.488,79.808 L645.272,80.408 C645.143999,80.1519987 645.016001,79.6400038 644.888,78.872 C643.895995,79.8960051 642.848006,80.408 641.744,80.408 C639.75999,80.408 638.768,79.208012 638.768,76.808 L638.768,75.296 C638.768,74.095994 638.652001,73.3280017 638.42,72.992 C638.187999,72.6559983 637.672004,72.488 636.872,72.488 L636.872,72.008 L640.472,72.008 L640.472,76.688 C640.472,78.4000086 641.079994,79.256 642.296,79.256 C642.840003,79.256 643.407997,79.0280023 644,78.572 C644.592003,78.1159977 644.888,77.5520034 644.888,76.88 L644.888,75.296 C644.888,74.095994 644.772001,73.3280017 644.54,72.992 C644.307999,72.6559983 643.784004,72.488 642.968,72.488 L642.968,72.008 L646.568,72.008 L646.568,76.496 C646.568,77.696006 646.683999,78.4639983 646.916,78.8 C647.148001,79.1360017 647.671996,79.304 648.488,79.304 L648.488,79.808 Z M651.864,72.848 L650.616,72.848 L650.616,72.272 C651.304003,72.1279993 651.807998,71.8160024 652.128,71.336 C652.448002,70.8559976 652.656,70.2000042 652.752,69.368 L653.568,69.368 L653.568,72.008 L655.656,72.008 L655.656,72.848 L653.568,72.848 L653.568,77.648 C653.568,78.8000058 653.927996,79.376 654.648,79.376 C655.112002,79.376 655.631997,79.1040027 656.208,78.56 L656.616,78.968 C656.279998,79.368002 655.876002,79.6959987 655.404,79.952 C654.931998,80.2080013 654.496002,80.336 654.096,80.336 C653.407997,80.336 652.864002,80.1120022 652.464,79.664 C652.063998,79.2159978 651.864,78.5440045 651.864,77.648 L651.864,72.848 Z M673.616,64.808 L666.608,64.808 L666.608,63.728 L673.616,63.728 L673.616,64.808 Z M673.616,67.808 L666.608,67.808 L666.608,66.728 L673.616,66.728 L673.616,67.808 Z M691.192,59.192 L691.192,69.128 L691.456,69.128 C692.480005,69.128 693.155998,69.0000013 693.484,68.744 C693.812002,68.4879987 694.063999,68.0080035 694.24,67.304 L694.36,66.824 L694.864,66.824 L694.672,69.992 L691.192,69.992 L691.192,71.792 C691.192,72.992006 691.327999,73.7559984 691.6,74.084 C691.872001,74.4120016 692.503995,74.576 693.496,74.576 L693.496,75.08 L687.208,75.08 L687.208,74.576 C688.200005,74.576 688.831999,74.4120016 689.104,74.084 C689.376001,73.7559984 689.512,72.992006 689.512,71.792 L689.512,69.992 L684.064,69.992 L684.064,69.536 L690.76,59.192 L691.192,59.192 Z M689.512,69.128 L689.512,62.72 L685.36,69.128 L689.512,69.128 Z M712.856,57.104 C711.911995,57.104 711.300001,57.2199988 711.02,57.452 C710.739999,57.6840012 710.400002,58.2639954 710,59.192 L704.72,71.408 L704.408,71.408 L699.104,59.192 C698.703998,58.2639954 698.364001,57.6840012 698.084,57.452 C697.803999,57.2199988 697.192005,57.104 696.248,57.104 L696.248,56.6 L702.896,56.6 L702.896,57.104 C701.903995,57.104 701.268001,57.2439986 700.988,57.524 C700.707999,57.8040014 700.719998,58.2719967 701.024,58.928 L705.104,68.264 L709.136,58.928 C709.440002,58.2719967 709.452001,57.8040014 709.172,57.524 C708.891999,57.2439986 708.256005,57.104 707.264,57.104 L707.264,56.6 L712.856,56.6 L712.856,57.104 Z" id="Vout-=-4V-Copy" fill="#524740"></path>
                <g id="Vref" transform="translate(185.000000, 263.000000)">
                    <path d="M130.696,3.104 C129.751995,3.104 129.140001,3.21999884 128.86,3.452 C128.579999,3.68400116 128.240002,4.26399536 127.84,5.192 L122.56,17.408 L122.248,17.408 L116.944,5.192 C116.543998,4.26399536 116.204001,3.68400116 115.924,3.452 C115.643999,3.21999884 115.032005,3.104 114.088,3.104 L114.088,2.6 L120.736,2.6 L120.736,3.104 C119.743995,3.104 119.108001,3.2439986 118.828,3.524 C118.547999,3.8040014 118.559998,4.27199672 118.864,4.928 L122.944,14.264 L126.976,4.928 C127.280002,4.27199672 127.292001,3.8040014 127.012,3.524 C126.731999,3.2439986 126.096005,3.104 125.104,3.104 L125.104,2.6 L130.696,2.6 L130.696,3.104 Z M139.736,19.088 C139.736,19.8400038 139.416003,20.216 138.776,20.216 C138.551999,20.216 138.356001,20.1280009 138.188,19.952 C138.019999,19.7759991 137.936,19.5760011 137.936,19.352 C137.936,18.8239974 137.680003,18.56 137.168,18.56 C136.799998,18.56 136.400002,18.8159974 135.968,19.328 C135.535998,19.8400026 135.32,20.5199958 135.32,21.368 L135.32,22.688 C135.32,23.888006 135.435999,24.6559983 135.668,24.992 C135.900001,25.3280017 136.415996,25.496 137.216,25.496 L137.216,26 L131.72,26 L131.72,25.496 C132.520004,25.496 133.035999,25.3280017 133.268,24.992 C133.500001,24.6559983 133.616,23.888006 133.616,22.688 L133.616,21.488 C133.616,20.3039941 133.500001,19.5440017 133.268,19.208 C133.035999,18.8719983 132.520004,18.704 131.72,18.704 L131.72,18.2 L134.912,17.6 C135.056001,17.9040015 135.191999,18.4799958 135.32,19.328 C135.560001,18.8479976 135.919998,18.4400017 136.4,18.104 C136.880002,17.7679983 137.359998,17.6 137.84,17.6 C138.448003,17.6 138.915998,17.7599984 139.244,18.08 C139.572002,18.4000016 139.736,18.7359982 139.736,19.088 Z M144.048,20.504 L148.032,20.504 C148.192001,20.0559978 148.124001,19.6200021 147.828,19.196 C147.531999,18.7719979 147.024004,18.56 146.304,18.56 C145.791997,18.56 145.332002,18.7359982 144.924,19.088 C144.515998,19.4400018 144.224001,19.911997 144.048,20.504 Z M143.904,21.392 C143.759999,22.5760059 143.947997,23.5399963 144.468,24.284 C144.988003,25.0280037 145.839994,25.4 147.024,25.4 C147.424002,25.4 147.879997,25.296001 148.392,25.088 C148.904003,24.879999 149.327998,24.6160016 149.664,24.296 L150.096,24.824 C149.663998,25.2880023 149.112003,25.6679985 148.44,25.964 C147.767997,26.2600015 147.096003,26.408 146.424,26.408 C145.127994,26.408 144.064004,25.9800043 143.232,25.124 C142.399996,24.2679957 141.984,23.2240062 141.984,21.992 C141.984,20.7599938 142.435995,19.7200042 143.34,18.872 C144.244005,18.0239958 145.271994,17.6 146.424,17.6 C147.512005,17.6 148.399997,17.9799962 149.088,18.74 C149.776003,19.5000038 149.976001,20.383995 149.688,21.392 L143.904,21.392 Z M156.472,18.848 L156.472,22.688 C156.472,23.888006 156.587999,24.6559983 156.82,24.992 C157.052001,25.3280017 157.567996,25.496 158.368,25.496 L158.368,26 L152.872,26 L152.872,25.496 C153.672004,25.496 154.187999,25.3280017 154.42,24.992 C154.652001,24.6559983 154.768,23.888006 154.768,22.688 L154.768,18.848 L152.8,18.848 L152.8,18.008 L154.768,18.008 L154.768,15.704 C154.768,14.1839924 155.147996,13.0520037 155.908,12.308 C156.668004,11.5639963 157.599994,11.192 158.704,11.192 C159.440004,11.192 160.023998,11.3799981 160.456,11.756 C160.888002,12.1320019 161.104,12.5359978 161.104,12.968 C161.104,13.2240013 161.036001,13.4319992 160.9,13.592 C160.763999,13.7520008 160.568001,13.832 160.312,13.832 C160.055999,13.832 159.856001,13.736001 159.712,13.544 C159.567999,13.351999 159.472,13.1400012 159.424,12.908 C159.376,12.6759988 159.256001,12.464001 159.064,12.272 C158.871999,12.079999 158.608002,11.984 158.272,11.984 C157.647997,11.984 157.192001,12.2679972 156.904,12.836 C156.615999,13.4040028 156.472,14.3599933 156.472,15.704 L156.472,18.008 L158.872,18.008 L158.872,18.848 L156.472,18.848 Z M176.064,10.808 L169.056,10.808 L169.056,9.728 L176.064,9.728 L176.064,10.808 Z M176.064,13.808 L169.056,13.808 L169.056,12.728 L176.064,12.728 L176.064,13.808 Z M188.648,12.536 C188.904001,12.2159984 189.287997,11.960001 189.8,11.768 C190.312003,11.575999 190.823997,11.48 191.336,11.48 C192.680007,11.48 193.787996,11.9599952 194.66,12.92 C195.532004,13.8800048 195.968,15.063993 195.968,16.472 C195.968,17.8480069 195.492005,19.0279951 194.54,20.012 C193.587995,20.9960049 192.448007,21.488 191.12,21.488 C189.967994,21.488 189.028004,21.192003 188.3,20.6 C187.571996,20.007997 187.208,19.4320028 187.208,18.872 C187.208,18.4399978 187.431998,18.224 187.88,18.224 C188.088001,18.224 188.271999,18.3479988 188.432,18.596 C188.592001,18.8440012 188.735999,19.1119986 188.864,19.4 C188.992001,19.6880014 189.251998,19.9559988 189.644,20.204 C190.036002,20.4520012 190.527997,20.576 191.12,20.576 C192.064005,20.576 192.775998,20.1960038 193.256,19.436 C193.736002,18.6759962 193.976,17.6880061 193.976,16.472 C193.976,15.2559939 193.740002,14.2880036 193.268,13.568 C192.795998,12.8479964 192.080005,12.488 191.12,12.488 C189.567992,12.488 188.672001,13.2719922 188.432,14.84 L187.544,14.84 L188.288,6.608 L192.344,6.608 C193.384005,6.608 194.063998,6.48400124 194.384,6.236 C194.704002,5.98799876 194.951999,5.5040036 195.128,4.784 L195.68,4.784 L195.08,8.288 L189.008,8.288 L188.648,12.536 Z M214.176,3.104 C213.231995,3.104 212.620001,3.21999884 212.34,3.452 C212.059999,3.68400116 211.720002,4.26399536 211.32,5.192 L206.04,17.408 L205.728,17.408 L200.424,5.192 C200.023998,4.26399536 199.684001,3.68400116 199.404,3.452 C199.123999,3.21999884 198.512005,3.104 197.568,3.104 L197.568,2.6 L204.216,2.6 L204.216,3.104 C203.223995,3.104 202.588001,3.2439986 202.308,3.524 C202.027999,3.8040014 202.039998,4.27199672 202.344,4.928 L206.424,14.264 L210.456,4.928 C210.760002,4.27199672 210.772001,3.8040014 210.492,3.524 C210.211999,3.2439986 209.576005,3.104 208.584,3.104 L208.584,2.6 L214.176,2.6 L214.176,3.104 Z" id="Vref-=-5V-Copy" fill="#524740"></path>
                    <path id="Line-11-Copy" d="M19,11.5 L97.1662606,11.5 L98.6662606,11.5 L98.6662606,14.5 L97.1662606,14.5 L19,14.5 L19,22.5 L6.21724894e-15,13 L19,3.5 L19,11.5 Z" fill="#23ABE3" fill-rule="nonzero"></path>
                </g>
                <g id="Current" transform="translate(307.000000, 0.000000)">
                    <path d="M14.832,16.736 L14.352,16.736 C14.2239994,16.1119969 13.9520021,15.6560014 13.536,15.368 C12.2239934,16.7280068 10.7360083,17.408 9.072,17.408 C7.03998984,17.408 5.3040072,16.6640074 3.864,15.176 C2.4239928,13.6879926 1.704,11.8960105 1.704,9.8 C1.704,7.70398952 2.4239928,5.91200744 3.864,4.424 C5.3040072,2.93599256 7.03998984,2.192 9.072,2.192 C10.7680085,2.192 12.2559936,2.8719932 13.536,4.232 C13.9680022,3.89599832 14.2399994,3.44000288 14.352,2.864 L14.832,2.864 L14.832,8.144 L14.352,8.144 C14.0159983,6.55999208 13.3960045,5.3280044 12.492,4.448 C11.5879955,3.5679956 10.4800066,3.128 9.168,3.128 C8.25599544,3.128 7.44800352,3.33199796 6.744,3.74 C6.03999648,4.14800204 5.49200196,4.68799664 5.1,5.36 C4.70799804,6.03200336 4.41600096,6.74399624 4.224,7.496 C4.03199904,8.24800376 3.936,9.01599608 3.936,9.8 C3.936,10.5840039 4.03199904,11.3519962 4.224,12.104 C4.41600096,12.8560038 4.70799804,13.5639967 5.1,14.228 C5.49200196,14.8920033 6.03999648,15.427998 6.744,15.836 C7.44800352,16.244002 8.25599544,16.448 9.168,16.448 C10.4800066,16.448 11.5879955,16.0040044 12.492,15.116 C13.3960045,14.2279956 14.0159983,13.0080078 14.352,11.456 L14.832,11.456 L14.832,16.736 Z M29.68,16.808 L26.464,17.408 C26.3359994,17.1519987 26.2080006,16.6400038 26.08,15.872 C25.087995,16.8960051 24.0400055,17.408 22.936,17.408 C20.9519901,17.408 19.96,16.208012 19.96,13.808 L19.96,12.296 C19.96,11.095994 19.8440012,10.3280017 19.612,9.992 C19.3799988,9.65599832 18.864004,9.488 18.064,9.488 L18.064,9.008 L21.664,9.008 L21.664,13.688 C21.664,15.4000086 22.2719939,16.256 23.488,16.256 C24.0320027,16.256 24.599997,16.0280023 25.192,15.572 C25.784003,15.1159977 26.08,14.5520034 26.08,13.88 L26.08,12.296 C26.08,11.095994 25.9640012,10.3280017 25.732,9.992 C25.4999988,9.65599832 24.9760041,9.488 24.16,9.488 L24.16,9.008 L27.76,9.008 L27.76,13.496 C27.76,14.696006 27.8759988,15.4639983 28.108,15.8 C28.3400012,16.1360017 28.8639959,16.304 29.68,16.304 L29.68,16.808 Z M40.064,10.088 C40.064,10.8400038 39.7440032,11.216 39.104,11.216 C38.8799989,11.216 38.6840008,11.1280009 38.516,10.952 C38.3479992,10.7759991 38.264,10.5760011 38.264,10.352 C38.264,9.82399736 38.0080026,9.56 37.496,9.56 C37.1279982,9.56 36.7280022,9.81599744 36.296,10.328 C35.8639978,10.8400026 35.648,11.5199958 35.648,12.368 L35.648,13.688 C35.648,14.888006 35.7639988,15.6559983 35.996,15.992 C36.2280012,16.3280017 36.743996,16.496 37.544,16.496 L37.544,17 L32.048,17 L32.048,16.496 C32.848004,16.496 33.3639988,16.3280017 33.596,15.992 C33.8280012,15.6559983 33.944,14.888006 33.944,13.688 L33.944,12.488 C33.944,11.3039941 33.8280012,10.5440017 33.596,10.208 C33.3639988,9.87199832 32.848004,9.704 32.048,9.704 L32.048,9.2 L35.24,8.6 C35.3840007,8.90400152 35.5199994,9.47999576 35.648,10.328 C35.8880012,9.8479976 36.2479976,9.44000168 36.728,9.104 C37.2080024,8.76799832 37.6879976,8.6 38.168,8.6 C38.776003,8.6 39.2439984,8.7599984 39.572,9.08 C39.9000016,9.4000016 40.064,9.73599824 40.064,10.088 Z M50.496,10.088 C50.496,10.8400038 50.1760032,11.216 49.536,11.216 C49.3119989,11.216 49.1160008,11.1280009 48.948,10.952 C48.7799992,10.7759991 48.696,10.5760011 48.696,10.352 C48.696,9.82399736 48.4400026,9.56 47.928,9.56 C47.5599982,9.56 47.1600022,9.81599744 46.728,10.328 C46.2959978,10.8400026 46.08,11.5199958 46.08,12.368 L46.08,13.688 C46.08,14.888006 46.1959988,15.6559983 46.428,15.992 C46.6600012,16.3280017 47.175996,16.496 47.976,16.496 L47.976,17 L42.48,17 L42.48,16.496 C43.280004,16.496 43.7959988,16.3280017 44.028,15.992 C44.2600012,15.6559983 44.376,14.888006 44.376,13.688 L44.376,12.488 C44.376,11.3039941 44.2600012,10.5440017 44.028,10.208 C43.7959988,9.87199832 43.280004,9.704 42.48,9.704 L42.48,9.2 L45.672,8.6 C45.8160007,8.90400152 45.9519994,9.47999576 46.08,10.328 C46.3200012,9.8479976 46.6799976,9.44000168 47.16,9.104 C47.6400024,8.76799832 48.1199976,8.6 48.6,8.6 C49.208003,8.6 49.6759984,8.7599984 50.004,9.08 C50.3320016,9.4000016 50.496,9.73599824 50.496,10.088 Z M54.808,11.504 L58.792,11.504 C58.9520008,11.0559978 58.8840015,10.6200021 58.588,10.196 C58.2919985,9.77199788 57.7840036,9.56 57.064,9.56 C56.5519974,9.56 56.092002,9.73599824 55.684,10.088 C55.275998,10.4400018 54.9840009,10.911997 54.808,11.504 Z M54.664,12.392 C54.5199993,13.5760059 54.7079974,14.5399963 55.228,15.284 C55.7480026,16.0280037 56.5999941,16.4 57.784,16.4 C58.184002,16.4 58.6399974,16.296001 59.152,16.088 C59.6640026,15.879999 60.0879983,15.6160016 60.424,15.296 L60.856,15.824 C60.4239978,16.2880023 59.8720034,16.6679985 59.2,16.964 C58.5279966,17.2600015 57.8560034,17.408 57.184,17.408 C55.8879935,17.408 54.8240042,16.9800043 53.992,16.124 C53.1599958,15.2679957 52.744,14.2240062 52.744,12.992 C52.744,11.7599938 53.1959955,10.7200042 54.1,9.872 C55.0040045,9.02399576 56.0319942,8.6 57.184,8.6 C58.2720054,8.6 59.1599966,8.9799962 59.848,9.74 C60.5360034,10.5000038 60.7360014,11.383995 60.448,12.392 L54.664,12.392 Z M67.232,10.328 C68.1440046,9.17599424 69.2559934,8.6 70.568,8.6 C71.6080052,8.6 72.3879974,8.92799672 72.908,9.584 C73.4280026,10.2400033 73.688,11.1039946 73.688,12.176 L73.688,13.688 C73.688,14.888006 73.8039988,15.6559983 74.036,15.992 C74.2680012,16.3280017 74.783996,16.496 75.584,16.496 L75.584,17 L70.088,17 L70.088,16.496 C70.8720039,16.496 71.3839988,16.3240017 71.624,15.98 C71.8640012,15.6359983 71.984,14.8720059 71.984,13.688 L71.984,12.296 C71.984,10.5839914 71.3200066,9.728 69.992,9.728 C69.3039966,9.728 68.6720029,9.9679976 68.096,10.448 C67.5199971,10.9280024 67.232,11.4879968 67.232,12.128 L67.232,13.688 C67.232,14.9200062 67.327999,15.6959984 67.52,16.016 C67.712001,16.3360016 68.1759963,16.496 68.912,16.496 L68.912,17 L63.632,17 L63.632,16.496 C64.432004,16.496 64.9479988,16.3280017 65.18,15.992 C65.4120012,15.6559983 65.528,14.888006 65.528,13.688 L65.528,12.488 C65.528,11.3039941 65.4120012,10.5440017 65.18,10.208 C64.9479988,9.87199832 64.432004,9.704 63.632,9.704 L63.632,9.2 L66.824,8.6 C66.9680007,8.90400152 67.1039994,9.47999576 67.232,10.328 Z M78.96,9.848 L77.712,9.848 L77.712,9.272 C78.4000034,9.12799928 78.9039984,8.8160024 79.224,8.336 C79.5440016,7.8559976 79.7519995,7.20000416 79.848,6.368 L80.664,6.368 L80.664,9.008 L82.752,9.008 L82.752,9.848 L80.664,9.848 L80.664,14.648 C80.664,15.8000058 81.0239964,16.376 81.744,16.376 C82.2080023,16.376 82.7279971,16.1040027 83.304,15.56 L83.712,15.968 C83.3759983,16.368002 82.9720024,16.6959987 82.5,16.952 C82.0279976,17.2080013 81.592002,17.336 81.192,17.336 C80.5039966,17.336 79.960002,17.1120022 79.56,16.664 C79.159998,16.2159978 78.96,15.5440045 78.96,14.648 L78.96,9.848 Z" id="Current-Copy" fill="#524740"></path>
                    <path id="Line-11" d="M173,14.5 L101.058534,14.5 L99.5585341,14.5 L99.5585341,11.5 L101.058534,11.5 L173,11.5 L173,3.5 L192,13 L173,22.5 L173,14.5 Z" fill="#23ABE3" fill-rule="nonzero"></path>
                </g>
            </g>
            <g id="Dam" transform="translate(171.000000, 43.000000)">
                <polygon id="Path-11" fill="#999999" points="244.058534 192 407 191 312 146 311 133 261 133 255 180"></polygon>
                <polygon id="Path-12" fill="#23ABE3" points="244 192 0 192 0.000227000001 133 261 133 255 181"></polygon>
                <path d="M0,133 L311,133 C319.666667,133 328.666667,137.333333 338,146 C342.053997,149.764426 346,156 353,165 C361.666667,169.666667 379.666667,178.333333 407,191 L518,191 C517.844883,149.144106 517.844883,125.144106 518,119 C505,117 454.77431,107.038198 439,97 C428,90 404.342766,62.6101873 401,59 C376,32 357,7 261,5.20535004e-13 C251,5.20535004e-13 164,4.38584354e-14 0,-9.09494702e-13 L0,133 Z" id="Path-13" fill="#23ABE3"></path>
            </g>
            <g id="Level-Lines" transform="translate(0.000000, 42.000000)" stroke="#524740" stroke-linecap="square" stroke-width="2">
                <path d="M162.5,192 L0.5,192" id="Line-9"></path>
                <path d="M423.9375,135 L80.5,135" id="Line-9-Copy"></path>
                <path d="M162.5,1 L0.5,1" id="Line-9-Copy-2"></path>
            </g>
        </g>
        <rect id="Rectangle-Copy" stroke="#3D3530" stroke-width="2" fill="#F8FAE4" x="1" y="336" width="898" height="43"></rect>
        <path d="M681.530666,348.872 L683.138666,348.872 L676.778666,365 L675.170666,365 L668.786666,348.872 L670.418666,348.872 L675.986666,362.96 L681.530666,348.872 Z M693.837333,363.368 C692.637327,364.584006 691.181342,365.192 689.469333,365.192 C687.757324,365.192 686.297339,364.588006 685.089333,363.38 C683.881327,362.171994 683.277333,360.712009 683.277333,359 C683.277333,357.287991 683.881327,355.828006 685.089333,354.62 C686.297339,353.411994 687.757324,352.808 689.469333,352.808 C691.181342,352.808 692.641327,353.411994 693.849333,354.62 C695.057339,355.828006 695.661333,357.287991 695.661333,359 C695.661333,360.696008 695.053339,362.151994 693.837333,363.368 Z M689.493333,363.68 C690.789339,363.68 691.881329,363.228005 692.769333,362.324 C693.657337,361.419995 694.101333,360.312007 694.101333,359 C694.101333,357.687993 693.657337,356.576005 692.769333,355.664 C691.881329,354.751995 690.789339,354.296 689.493333,354.296 C688.213327,354.296 687.125337,354.751995 686.229333,355.664 C685.333329,356.576005 684.885333,357.687993 684.885333,359 C684.885333,360.312007 685.333329,361.419995 686.229333,362.324 C687.125337,363.228005 688.213327,363.68 689.493333,363.68 Z M698.944,365 L698.944,347.144 L700.528,347.144 L700.528,365 L698.944,365 Z M711.346666,362.312 L712.138666,363.536 C712.042666,363.664001 711.914667,363.815999 711.754666,363.992 C711.594666,364.168001 711.234669,364.411998 710.674666,364.724 C710.114664,365.036002 709.538669,365.192 708.946666,365.192 C707.938661,365.192 707.09467,364.892003 706.414666,364.292 C705.734663,363.691997 705.394666,362.824006 705.394666,361.688 L705.394666,354.44 L703.474666,354.44 L703.474666,352.976 L705.394666,352.976 L705.394666,349.184 L706.978666,348.992 L706.978666,352.976 L710.602666,352.976 L710.602666,354.44 L706.978666,354.44 L706.978666,361.328 C706.978666,362.064004 707.206664,362.647998 707.662666,363.08 C708.118669,363.512002 708.642663,363.728 709.234666,363.728 C709.602668,363.728 709.962665,363.616001 710.314666,363.392 C710.666668,363.167999 710.926666,362.948001 711.094666,362.732 C711.262667,362.515999 711.346666,362.376 711.346666,362.312 Z M724.469333,353 L726.053333,353 L726.053333,365 L724.469333,365 L724.469333,363.056 C723.237327,364.480007 721.677343,365.192 719.789333,365.192 C718.077325,365.192 716.617339,364.588006 715.409333,363.38 C714.201327,362.171994 713.597333,360.712009 713.597333,359 C713.597333,357.287991 714.201327,355.828006 715.409333,354.62 C716.617339,353.411994 718.077325,352.808 719.789333,352.808 C721.693343,352.808 723.253327,353.519993 724.469333,354.944 L724.469333,353 Z M719.813333,363.68 C721.10934,363.68 722.201329,363.228005 723.089333,362.324 C723.977338,361.419995 724.421333,360.312007 724.421333,359 C724.421333,357.687993 723.977338,356.580005 723.089333,355.676 C722.201329,354.771995 721.10934,354.32 719.813333,354.32 C718.533327,354.32 717.441338,354.771995 716.537333,355.676 C715.633329,356.580005 715.181333,357.687993 715.181333,359 C715.181333,360.312007 715.633329,361.419995 716.537333,362.324 C717.441338,363.228005 718.533327,363.68 719.813333,363.68 Z M740.184,353.024 L741.792,353.024 L741.792,363.968 C741.776,365.712009 741.148006,367.171994 739.908,368.348 C738.667994,369.524006 737.232008,370.112 735.6,370.112 C734.111992,370.112 732.844005,369.716004 731.796,368.924 C730.747995,368.131996 730.040002,367.240005 729.672,366.248 L730.968,365.6 C731.272001,366.416004 731.847996,367.127997 732.696,367.736 C733.544004,368.344003 734.511994,368.648 735.6,368.648 C736.880006,368.648 737.963995,368.180005 738.852,367.244 C739.740004,366.307995 740.192,365.216006 740.208,363.968 L740.184,363.968 L740.184,363.08 C738.967994,364.504007 737.408009,365.216 735.504,365.216 C733.791991,365.216 732.332006,364.612006 731.124,363.404 C729.915994,362.195994 729.312,360.736009 729.312,359.024 C729.312,357.311991 729.915994,355.852006 731.124,354.644 C732.332006,353.435994 733.791991,352.832 735.504,352.832 C737.392009,352.832 738.951994,353.543993 740.184,354.968 L740.184,353.024 Z M735.528,363.728 C736.824006,363.728 737.915995,363.276005 738.804,362.372 C739.692004,361.467995 740.136,360.360007 740.136,359.048 C740.136,357.735993 739.692004,356.628005 738.804,355.724 C737.915995,354.819995 736.824006,354.368 735.528,354.368 C734.247993,354.368 733.160004,354.819995 732.264,355.724 C731.367995,356.628005 730.92,357.735993 730.92,359.048 C730.92,360.360007 731.367995,361.467995 732.264,362.372 C733.160004,363.276005 734.247993,363.728 735.528,363.728 Z M751.266666,363.608 C752.338672,363.608 753.298662,363.304003 754.146666,362.696 C754.994671,362.087997 755.570665,361.376004 755.874666,360.56 L757.218666,361.04 C756.850665,362.048005 756.134672,362.975996 755.070666,363.824 C754.006661,364.672004 752.738674,365.088 751.266666,365.072 C749.92266,365.072 748.694672,364.656004 747.582666,363.824 C746.470661,362.991996 745.714668,361.928006 745.314666,360.632 C745.154666,360.103997 745.074666,359.528003 745.074666,358.904 C745.074666,357.175991 745.67466,355.712006 746.874666,354.512 C748.074672,353.311994 749.538658,352.704 751.266666,352.688 C752.834674,352.704 754.202661,353.231995 755.370666,354.272 C756.538672,355.312005 757.210666,356.599992 757.386666,358.136 C757.402667,358.216 757.410666,358.319999 757.410666,358.448 L746.922666,360.344 C747.194668,361.304005 747.738662,362.091997 748.554666,362.708 C749.370671,363.324003 750.274661,363.624 751.266666,363.608 Z M751.122666,354.152 C749.92266,354.168 748.894671,354.599996 748.038666,355.448 C747.182662,356.296004 746.722667,357.311994 746.658666,358.496 C746.658666,358.544 746.662666,358.627999 746.670666,358.748 C746.678666,358.868001 746.682666,358.968 746.682666,359.048 L755.610666,357.44 C755.306665,356.463995 754.738671,355.668003 753.906666,355.052 C753.074662,354.435997 752.146672,354.136 751.122666,354.152 Z M768.152,365 L768.152,348.872 L773.624,348.872 C775.432009,348.872 776.871994,349.347995 777.944,350.3 C779.016005,351.252005 779.552,352.447993 779.552,353.888 C779.552,354.960005 779.236003,355.911996 778.604,356.744 C777.971997,357.576004 777.088006,358.167998 775.952,358.52 L779.552,365 L777.896,365 L774.464,358.856 L773.48,358.904 L769.736,358.904 L769.736,365 L768.152,365 Z M769.736,357.392 L773.624,357.392 C774.920006,357.392 775.959996,357.060003 776.744,356.396 C777.528004,355.731997 777.92,354.896005 777.92,353.888 C777.92,352.895995 777.528004,352.064003 776.744,351.392 C775.959996,350.719997 774.920006,350.384 773.624,350.384 L769.736,350.384 L769.736,357.392 Z M787.994667,363.608 C789.066672,363.608 790.026662,363.304003 790.874667,362.696 C791.722671,362.087997 792.298665,361.376004 792.602667,360.56 L793.946667,361.04 C793.578665,362.048005 792.862672,362.975996 791.798667,363.824 C790.734661,364.672004 789.466674,365.088 787.994667,365.072 C786.65066,365.072 785.422672,364.656004 784.310667,363.824 C783.198661,362.991996 782.442669,361.928006 782.042667,360.632 C781.882666,360.103997 781.802667,359.528003 781.802667,358.904 C781.802667,357.175991 782.402661,355.712006 783.602667,354.512 C784.802673,353.311994 786.266658,352.704 787.994667,352.688 C789.562674,352.704 790.930661,353.231995 792.098667,354.272 C793.266672,355.312005 793.938666,356.599992 794.114667,358.136 C794.130667,358.216 794.138667,358.319999 794.138667,358.448 L783.650667,360.344 C783.922668,361.304005 784.466662,362.091997 785.282667,362.708 C786.098671,363.324003 787.002662,363.624 787.994667,363.608 Z M787.850667,354.152 C786.650661,354.168 785.622671,354.599996 784.766667,355.448 C783.910662,356.296004 783.450667,357.311994 783.386667,358.496 C783.386667,358.544 783.390666,358.627999 783.398667,358.748 C783.406667,358.868001 783.410667,358.968 783.410667,359.048 L792.338667,357.44 C792.034665,356.463995 791.466671,355.668003 790.634667,355.052 C789.802662,354.435997 788.874672,354.136 787.850667,354.152 Z M801.477333,352.952 L801.477333,354.272 L799.125333,354.272 L799.125333,365 L797.565333,365 L797.565333,354.272 L796.149333,354.272 L796.149333,352.952 L797.565333,352.952 L797.565333,349.472 C797.565333,347.807992 798.221327,346.976 799.533333,346.976 C799.821335,346.976 800.113332,347 800.409333,347.048 C800.705335,347.096 800.925332,347.144 801.069333,347.192 L801.285333,347.264 L800.949333,348.488 C800.629332,348.408 800.309335,348.368 799.989333,348.368 C799.637331,348.368 799.405334,348.483999 799.293333,348.716 C799.181333,348.948001 799.125333,349.391997 799.125333,350.048 L799.125333,352.952 L801.477333,352.952 Z M809.56,363.608 C810.632005,363.608 811.591996,363.304003 812.44,362.696 C813.288004,362.087997 813.863998,361.376004 814.168,360.56 L815.512,361.04 C815.143998,362.048005 814.428005,362.975996 813.364,363.824 C812.299995,364.672004 811.032007,365.088 809.56,365.072 C808.215993,365.072 806.988005,364.656004 805.876,363.824 C804.763994,362.991996 804.008002,361.928006 803.608,360.632 C803.447999,360.103997 803.368,359.528003 803.368,358.904 C803.368,357.175991 803.967994,355.712006 805.168,354.512 C806.368006,353.311994 807.831991,352.704 809.56,352.688 C811.128008,352.704 812.495994,353.231995 813.664,354.272 C814.832006,355.312005 815.503999,356.599992 815.68,358.136 C815.696,358.216 815.704,358.319999 815.704,358.448 L805.216,360.344 C805.488001,361.304005 806.031996,362.091997 806.848,362.708 C807.664004,363.324003 808.567995,363.624 809.56,363.608 Z M809.416,354.152 C808.215994,354.168 807.188004,354.599996 806.332,355.448 C805.475996,356.296004 805.016,357.311994 804.952,358.496 C804.952,358.544 804.956,358.627999 804.964,358.748 C804.972,358.868001 804.976,358.968 804.976,359.048 L813.904,357.44 C813.599998,356.463995 813.032004,355.668003 812.2,355.052 C811.367996,354.435997 810.440005,354.136 809.416,354.152 Z M824.050667,352.808 C824.898671,352.808 825.674663,353.015998 826.378667,353.432 L825.826667,355.016 C825.154663,354.519998 824.47467,354.272 823.786667,354.272 C822.778662,354.272 821.93067,354.627996 821.242667,355.34 C820.554663,356.052004 820.210667,356.927995 820.210667,357.968 L820.210667,365 L818.626667,365 L818.626667,353 L820.210667,353 L820.210667,354.776 C821.186671,353.463993 822.466659,352.808 824.050667,352.808 Z M833.693333,363.608 C834.765339,363.608 835.725329,363.304003 836.573333,362.696 C837.421337,362.087997 837.997332,361.376004 838.301333,360.56 L839.645333,361.04 C839.277331,362.048005 838.561339,362.975996 837.497333,363.824 C836.433328,364.672004 835.165341,365.088 833.693333,365.072 C832.349327,365.072 831.121339,364.656004 830.009333,363.824 C828.897328,362.991996 828.141335,361.928006 827.741333,360.632 C827.581332,360.103997 827.501333,359.528003 827.501333,358.904 C827.501333,357.175991 828.101327,355.712006 829.301333,354.512 C830.501339,353.311994 831.965325,352.704 833.693333,352.688 C835.261341,352.704 836.629327,353.231995 837.797333,354.272 C838.965339,355.312005 839.637332,356.599992 839.813333,358.136 C839.829333,358.216 839.837333,358.319999 839.837333,358.448 L829.349333,360.344 C829.621335,361.304005 830.165329,362.091997 830.981333,362.708 C831.797337,363.324003 832.701328,363.624 833.693333,363.608 Z M833.549333,354.152 C832.349327,354.168 831.321338,354.599996 830.465333,355.448 C829.609329,356.296004 829.149334,357.311994 829.085333,358.496 C829.085333,358.544 829.089333,358.627999 829.097333,358.748 C829.105333,358.868001 829.109333,358.968 829.109333,359.048 L838.037333,357.44 C837.733332,356.463995 837.165337,355.668003 836.333333,355.052 C835.501329,354.435997 834.573338,354.136 833.549333,354.152 Z M848.184,352.808 C849.576007,352.808 850.743995,353.299995 851.688,354.284 C852.632005,355.268005 853.104,356.479993 853.104,357.92 L853.104,365 L851.496,365 L851.496,357.968 C851.496,356.943995 851.148003,356.072004 850.452,355.352 C849.755996,354.631996 848.912005,354.272 847.92,354.272 C846.927995,354.272 846.084003,354.631996 845.388,355.352 C844.691996,356.072004 844.344,356.943995 844.344,357.968 L844.344,365 L842.76,365 L842.76,353 L844.344,353 L844.344,354.776 C845.320005,353.463993 846.599992,352.808 848.184,352.808 Z M862.218667,365.192 C860.506658,365.192 859.046673,364.588006 857.838667,363.38 C856.630661,362.171994 856.026667,360.712009 856.026667,359 C856.026667,357.287991 856.630661,355.828006 857.838667,354.62 C859.046673,353.411994 860.506658,352.808 862.218667,352.808 C863.306672,352.808 864.318662,353.075997 865.254667,353.612 C866.190671,354.148003 866.930664,354.863996 867.474667,355.76 L866.034667,356.456 C865.602664,355.799997 865.05067,355.280002 864.378667,354.896 C863.706663,354.511998 862.98667,354.32 862.218667,354.32 C860.92266,354.32 859.830671,354.771995 858.942667,355.676 C858.054662,356.580005 857.610667,357.687993 857.610667,359 C857.610667,360.312007 858.054662,361.419995 858.942667,362.324 C859.830671,363.228005 860.92266,363.68 862.218667,363.68 C862.98667,363.68 863.706663,363.488002 864.378667,363.104 C865.05067,362.719998 865.602664,362.200003 866.034667,361.544 L867.474667,362.24 C866.930664,363.136004 866.190671,363.851997 865.254667,364.388 C864.318662,364.924003 863.306672,365.192 862.218667,365.192 Z M876.037333,363.608 C877.109339,363.608 878.069329,363.304003 878.917333,362.696 C879.765338,362.087997 880.341332,361.376004 880.645333,360.56 L881.989333,361.04 C881.621331,362.048005 880.905339,362.975996 879.841333,363.824 C878.777328,364.672004 877.509341,365.088 876.037333,365.072 C874.693327,365.072 873.465339,364.656004 872.353333,363.824 C871.241328,362.991996 870.485335,361.928006 870.085333,360.632 C869.925333,360.103997 869.845333,359.528003 869.845333,358.904 C869.845333,357.175991 870.445327,355.712006 871.645333,354.512 C872.845339,353.311994 874.309325,352.704 876.037333,352.688 C877.605341,352.704 878.973327,353.231995 880.141333,354.272 C881.309339,355.312005 881.981332,356.599992 882.157333,358.136 C882.173333,358.216 882.181333,358.319999 882.181333,358.448 L871.693333,360.344 C871.965335,361.304005 872.509329,362.091997 873.325333,362.708 C874.141337,363.324003 875.045328,363.624 876.037333,363.608 Z M875.893333,354.152 C874.693327,354.168 873.665338,354.599996 872.809333,355.448 C871.953329,356.296004 871.493334,357.311994 871.429333,358.496 C871.429333,358.544 871.433333,358.627999 871.441333,358.748 C871.449333,358.868001 871.453333,358.968 871.453333,359.048 L880.381333,357.44 C880.077332,356.463995 879.509337,355.668003 878.677333,355.052 C877.845329,354.435997 876.917338,354.136 875.893333,354.152 Z" id="Voltage-Reference-Copy" fill="#23ABE3"></path>
    </g>
</svg>