<?xml version="1.0" encoding="UTF-8"?>
<svg width="900px" height="420px" viewBox="0 0 900 420" version="1.1" xmlns="http://www.w3.org/2000/svg" xmlns:xlink="http://www.w3.org/1999/xlink">
    <!-- Generator: Sketch 52.5 (67469) - http://www.bohemiancoding.com/sketch -->
    <title>Voltage_Drop_Dam</title>
    <desc>Created with Sketch.</desc>
    <g id="Voltage_Drop_Dam" stroke="none" stroke-width="1" fill="none" fill-rule="evenodd">
        <rect id="Rectangle" fill="#EEEEEE" x="0" y="0" width="900" height="430"></rect>
        <g id="Illustration" transform="translate(39.000000, 72.000000)">
            <g id="Labels" transform="translate(7.000000, 0.000000)">
                <g id="Vf" transform="translate(88.000000, 133.000000)">
                    <path d="M25.544,67.156 C24.1279929,67.156 23.2100021,67.3299983 22.79,67.678 C22.3699979,68.0260017 21.860003,68.895993 21.26,70.288 L13.34,88.612 L12.872,88.612 L4.916,70.288 C4.315997,68.895993 3.8060021,68.0260017 3.386,67.678 C2.9659979,67.3299983 2.04800708,67.156 0.632,67.156 L0.632,66.4 L10.604,66.4 L10.604,67.156 C9.11599256,67.156 8.1620021,67.3659979 7.742,67.786 C7.3219979,68.2060021 7.33999772,68.9079951 7.796,69.892 L13.916,83.896 L19.964,69.892 C20.4200023,68.9079951 20.4380021,68.2060021 20.018,67.786 C19.5979979,67.3659979 18.6440074,67.156 17.156,67.156 L17.156,66.4 L25.544,66.4 L25.544,67.156 Z M28.820001,91.272 L28.820001,97.032 C28.820001,98.832009 28.9939993,99.9839975 29.342001,100.488 C29.6900027,100.992003 30.463995,101.244 31.664001,101.244 L31.664001,102 L23.420001,102 L23.420001,101.244 C24.620007,101.244 25.3939993,100.992003 25.742001,100.488 C26.0900027,99.9839975 26.264001,98.832009 26.264001,97.032 L26.264001,91.272 L23.312001,91.272 L23.312001,90.012 L26.264001,90.012 L26.264001,86.556 C26.264001,84.2759886 26.8339953,82.5780056 27.974001,81.462 C29.1140067,80.3459944 30.5119927,79.788 32.168001,79.788 C33.2720065,79.788 34.1479978,80.0699972 34.796001,80.634 C35.4440042,81.1980028 35.768001,81.8039968 35.768001,82.452 C35.768001,82.8360019 35.666002,83.1479988 35.462001,83.388 C35.258,83.6280012 34.9640029,83.748 34.580001,83.748 C34.1959991,83.748 33.8960021,83.6040014 33.680001,83.316 C33.4639999,83.0279986 33.3200014,82.7100017 33.248001,82.362 C33.1760006,82.0139983 32.9960024,81.6960014 32.708001,81.408 C32.4199996,81.1199986 32.0240035,80.976 31.520001,80.976 C30.5839963,80.976 29.9000032,81.4019957 29.468001,82.254 C29.0359988,83.1060043 28.820001,84.5399899 28.820001,86.556 L28.820001,90.012 L32.420001,90.012 L32.420001,91.272 L28.820001,91.272 Z" id="Vf-Copy" fill="#524740"></path>
                    <path id="Line-10" d="M19.5,18.5 L19.5,48 L19.5,49.5 L16.5,49.5 L16.5,48 L16.5,18.5 L8.5,18.5 L18,-0.5 L27.5,18.5 L19.5,18.5 Z" fill="#23ABE3" fill-rule="nonzero"></path>
                    <path id="Line-10-Copy" d="M16.5,146.5 L16.5,116 L16.5,114.5 L19.5,114.5 L19.5,116 L19.5,146.5 L27.5,146.5 L18,165.5 L8.5,146.5 L16.5,146.5 Z" fill="#23ABE3" fill-rule="nonzero"></path>
                </g>
                <g id="VS" transform="translate(0.000000, 59.000000)">
                    <path d="M23.544,103.156 C22.1279929,103.156 21.2100021,103.329998 20.79,103.678 C20.3699979,104.026002 19.860003,104.895993 19.26,106.288 L11.34,124.612 L10.872,124.612 L2.916,106.288 C2.315997,104.895993 1.8060021,104.026002 1.386,103.678 C0.9659979,103.329998 0.04800708,103.156 -1.368,103.156 L-1.368,102.4 L8.604,102.4 L8.604,103.156 C7.11599256,103.156 6.1620021,103.365998 5.742,103.786 C5.3219979,104.206002 5.33999772,104.907995 5.796,105.892 L11.916,119.896 L17.964,105.892 C18.4200023,104.907995 18.4380021,104.206002 18.018,103.786 C17.5979979,103.365998 16.6440074,103.156 15.156,103.156 L15.156,102.4 L23.544,102.4 L23.544,103.156 Z M28.764001,138 L20.520001,138 L20.520001,137.244 C21.720007,137.244 22.4939993,136.992003 22.842001,136.488 C23.1900027,135.983997 23.364001,134.832009 23.364001,133.032 L23.364001,131.232 C23.364001,129.455991 23.1900027,128.316003 22.842001,127.812 C22.4939993,127.307997 21.720007,127.056 20.520001,127.056 L20.520001,126.3 L25.920001,125.4 L25.920001,133.032 C25.920001,134.832009 26.0939993,135.983997 26.442001,136.488 C26.7900027,136.992003 27.563995,137.244 28.764001,137.244 L28.764001,138 Z M26.208001,120.252 C26.208001,120.708002 26.0520026,121.091998 25.740001,121.404 C25.4279994,121.716002 25.0560032,121.872 24.624001,121.872 C24.1919988,121.872 23.8200026,121.716002 23.508001,121.404 C23.1959994,121.091998 23.040001,120.708002 23.040001,120.252 C23.040001,119.819998 23.1959994,119.448002 23.508001,119.136 C23.8200026,118.823998 24.1919988,118.668 24.624001,118.668 C25.0560032,118.668 25.4279994,118.823998 25.740001,119.136 C26.0520026,119.448002 26.208001,119.819998 26.208001,120.252 Z M34.056002,127.992 C35.4240088,126.263991 37.0919922,125.4 39.060002,125.4 C40.6200098,125.4 41.7899981,125.891995 42.570002,126.876 C43.3500059,127.860005 43.740002,129.155992 43.740002,130.764 L43.740002,133.032 C43.740002,134.832009 43.9140003,135.983997 44.262002,136.488 C44.6100037,136.992003 45.383996,137.244 46.584002,137.244 L46.584002,138 L38.340002,138 L38.340002,137.244 C39.5160079,137.244 40.2840002,136.986003 40.644002,136.47 C41.0040038,135.953997 41.184002,134.808009 41.184002,133.032 L41.184002,130.944 C41.184002,128.375987 40.188012,127.092 38.196002,127.092 C37.1639968,127.092 36.2160063,127.451996 35.352002,128.172 C34.4879977,128.892004 34.056002,129.731995 34.056002,130.692 L34.056002,133.032 C34.056002,134.880009 34.2000006,136.043998 34.488002,136.524 C34.7760034,137.004002 35.4719965,137.244 36.576002,137.244 L36.576002,138 L28.656002,138 L28.656002,137.244 C29.856008,137.244 30.6300003,136.992003 30.978002,136.488 C31.3260037,135.983997 31.500002,134.832009 31.500002,133.032 L31.500002,131.232 C31.500002,129.455991 31.3260037,128.316003 30.978002,127.812 C30.6300003,127.307997 29.856008,127.056 28.656002,127.056 L28.656002,126.3 L33.444002,125.4 C33.6600031,125.856002 33.864001,126.719994 34.056002,127.992 Z" id="Vin-Copy" fill="#524740"></path>
                    <path id="Line-10-Copy-3" d="M17.5,18.5 L17.5,78 L17.5,79.5 L14.5,79.5 L14.5,78 L14.5,18.5 L6.5,18.5 L16,-0.5 L25.5,18.5 L17.5,18.5 Z" fill="#23ABE3" fill-rule="nonzero"></path>
                    <path id="Line-10-Copy-2" d="M14.5,219.5 L14.5,160 L14.5,158.5 L17.5,158.5 L17.5,160 L17.5,219.5 L25.5,219.5 L16,238.5 L6.5,219.5 L14.5,219.5 Z" fill="#23ABE3" fill-rule="nonzero"></path>
                </g>
                <path d="M612.544,73.156 C611.127993,73.156 610.210002,73.3299983 609.79,73.678 C609.369998,74.0260017 608.860003,74.895993 608.26,76.288 L600.34,94.612 L599.872,94.612 L591.916,76.288 C591.315997,74.895993 590.806002,74.0260017 590.386,73.678 C589.965998,73.3299983 589.048007,73.156 587.632,73.156 L587.632,72.4 L597.604,72.4 L597.604,73.156 C596.115993,73.156 595.162002,73.3659979 594.742,73.786 C594.321998,74.2060021 594.339998,74.9079951 594.796,75.892 L600.916,89.896 L606.964,75.892 C607.420002,74.9079951 607.438002,74.2060021 607.018,73.786 C606.597998,73.3659979 605.644007,73.156 604.156,73.156 L604.156,72.4 L612.544,72.4 L612.544,73.156 Z M621.076001,97.344 C622.516008,98.6160064 623.236001,100.163991 623.236001,101.988 C623.236001,103.812009 622.522008,105.371994 621.094001,106.668 C619.665994,107.964006 617.956011,108.612 615.964001,108.612 C613.971991,108.612 612.262008,107.964006 610.834001,106.668 C609.405994,105.371994 608.692001,103.812009 608.692001,101.988 C608.692001,100.163991 609.405994,98.6100064 610.834001,97.326 C612.262008,96.0419936 613.971991,95.4 615.964001,95.4 C617.956011,95.4 619.659994,96.0479935 621.076001,97.344 Z M619.204001,105.768 C619.948005,104.783995 620.320001,103.524008 620.320001,101.988 C620.320001,100.451992 619.948005,99.1980049 619.204001,98.226 C618.459997,97.2539951 617.380008,96.768 615.964001,96.768 C614.547994,96.768 613.468005,97.2599951 612.724001,98.244 C611.979997,99.2280049 611.608001,100.475992 611.608001,101.988 C611.608001,103.500008 611.979997,104.747995 612.724001,105.732 C613.468005,106.716005 614.547994,107.208 615.964001,107.208 C617.380008,107.208 618.459997,106.728005 619.204001,105.768 Z M640.912002,107.712 L636.088002,108.612 C635.896001,108.227998 635.704003,107.460006 635.512002,106.308 C634.023995,107.844008 632.45201,108.612 630.796002,108.612 C627.819987,108.612 626.332002,106.812018 626.332002,103.212 L626.332002,100.944 C626.332002,99.143991 626.158004,97.9920025 625.810002,97.488 C625.462,96.9839975 624.688008,96.732 623.488002,96.732 L623.488002,96.012 L628.888002,96.012 L628.888002,103.032 C628.888002,105.600013 629.799993,106.884 631.624002,106.884 C632.440006,106.884 633.291998,106.542003 634.180002,105.858 C635.068006,105.173997 635.512002,104.328005 635.512002,103.32 L635.512002,100.944 C635.512002,99.143991 635.338004,97.9920025 634.990002,97.488 C634.642,96.9839975 633.856008,96.732 632.632002,96.732 L632.632002,96.012 L638.032002,96.012 L638.032002,102.744 C638.032002,104.544009 638.206,105.695997 638.554002,106.2 C638.902004,106.704003 639.687996,106.956 640.912002,106.956 L640.912002,107.712 Z M642.316003,97.272 L640.444003,97.272 L640.444003,96.408 C641.476008,96.1919989 642.232001,95.7240036 642.712003,95.004 C643.192005,94.2839964 643.504002,93.3000062 643.648003,92.052 L644.872003,92.052 L644.872003,96.012 L648.004003,96.012 L648.004003,97.272 L644.872003,97.272 L644.872003,104.472 C644.872003,106.200009 645.411998,107.064 646.492003,107.064 C647.188006,107.064 647.967999,106.656004 648.832003,105.84 L649.444003,106.452 C648.94,107.052003 648.334007,107.543998 647.626003,107.928 C646.917999,108.312002 646.264006,108.504 645.664003,108.504 C644.631998,108.504 643.816006,108.168003 643.216003,107.496 C642.616,106.823997 642.316003,105.816007 642.316003,104.472 L642.316003,97.272 Z M667.624005,84.712 L657.112005,84.712 L657.112005,83.092 L667.624005,83.092 L667.624005,84.712 Z M667.624005,89.212 L657.112005,89.212 L657.112005,87.592 L667.624005,87.592 L667.624005,89.212 Z M698.224007,73.156 C696.808,73.156 695.890009,73.3299983 695.470007,73.678 C695.050005,74.0260017 694.54001,74.895993 693.940007,76.288 L686.020007,94.612 L685.552007,94.612 L677.596007,76.288 C676.996004,74.895993 676.486009,74.0260017 676.066007,73.678 C675.646005,73.3299983 674.728014,73.156 673.312007,73.156 L673.312007,72.4 L683.284007,72.4 L683.284007,73.156 C681.796,73.156 680.842009,73.3659979 680.422007,73.786 C680.002005,74.2060021 680.020005,74.9079951 680.476007,75.892 L686.596007,89.896 L692.644007,75.892 C693.100009,74.9079951 693.118009,74.2060021 692.698007,73.786 C692.278005,73.3659979 691.324014,73.156 689.836007,73.156 L689.836007,72.4 L698.224007,72.4 L698.224007,73.156 Z M703.444008,108 L695.200008,108 L695.200008,107.244 C696.400014,107.244 697.174006,106.992003 697.522008,106.488 C697.87001,105.983997 698.044008,104.832009 698.044008,103.032 L698.044008,101.232 C698.044008,99.4559911 697.87001,98.3160025 697.522008,97.812 C697.174006,97.3079975 696.400014,97.056 695.200008,97.056 L695.200008,96.3 L700.600008,95.4 L700.600008,103.032 C700.600008,104.832009 700.774006,105.983997 701.122008,106.488 C701.47001,106.992003 702.244002,107.244 703.444008,107.244 L703.444008,108 Z M700.888008,90.252 C700.888008,90.7080023 700.73201,91.0919984 700.420008,91.404 C700.108006,91.7160016 699.73601,91.872 699.304008,91.872 C698.872006,91.872 698.50001,91.7160016 698.188008,91.404 C697.876006,91.0919984 697.720008,90.7080023 697.720008,90.252 C697.720008,89.8199978 697.876006,89.4480016 698.188008,89.136 C698.50001,88.8239984 698.872006,88.668 699.304008,88.668 C699.73601,88.668 700.108006,88.8239984 700.420008,89.136 C700.73201,89.4480016 700.888008,89.8199978 700.888008,90.252 Z M708.736009,97.992 C710.104016,96.2639914 711.771999,95.4 713.740009,95.4 C715.300017,95.4 716.470005,95.8919951 717.250009,96.876 C718.030013,97.8600049 718.420009,99.155992 718.420009,100.764 L718.420009,103.032 C718.420009,104.832009 718.594007,105.983997 718.942009,106.488 C719.290011,106.992003 720.064003,107.244 721.264009,107.244 L721.264009,108 L713.020009,108 L713.020009,107.244 C714.196015,107.244 714.964007,106.986003 715.324009,106.47 C715.684011,105.953997 715.864009,104.808009 715.864009,103.032 L715.864009,100.944 C715.864009,98.3759872 714.868019,97.092 712.876009,97.092 C711.844004,97.092 710.896013,97.4519964 710.032009,98.172 C709.168005,98.8920036 708.736009,99.7319952 708.736009,100.692 L708.736009,103.032 C708.736009,104.880009 708.880008,106.043998 709.168009,106.524 C709.45601,107.004002 710.152003,107.244 711.256009,107.244 L711.256009,108 L703.336009,108 L703.336009,107.244 C704.536015,107.244 705.310007,106.992003 705.658009,106.488 C706.006011,105.983997 706.180009,104.832009 706.180009,103.032 L706.180009,101.232 C706.180009,99.4559911 706.006011,98.3160025 705.658009,97.812 C705.310007,97.3079975 704.536015,97.056 703.336009,97.056 L703.336009,96.3 L708.124009,95.4 C708.34001,95.8560023 708.544008,96.7199936 708.736009,97.992 Z M739.516011,87.412 L729.004011,87.412 L729.004011,85.828 L739.516011,85.828 L739.516011,87.412 Z M770.116013,73.156 C768.700006,73.156 767.782015,73.3299983 767.362013,73.678 C766.942011,74.0260017 766.432016,74.895993 765.832013,76.288 L757.912013,94.612 L757.444013,94.612 L749.488013,76.288 C748.88801,74.895993 748.378015,74.0260017 747.958013,73.678 C747.538011,73.3299983 746.62002,73.156 745.204013,73.156 L745.204013,72.4 L755.176013,72.4 L755.176013,73.156 C753.688006,73.156 752.734015,73.3659979 752.314013,73.786 C751.894011,74.2060021 751.912011,74.9079951 752.368013,75.892 L758.488013,89.896 L764.536013,75.892 C764.992015,74.9079951 765.010015,74.2060021 764.590013,73.786 C764.170011,73.3659979 763.21602,73.156 761.728013,73.156 L761.728013,72.4 L770.116013,72.4 L770.116013,73.156 Z M773.392014,97.272 L773.392014,103.032 C773.392014,104.832009 773.566012,105.983997 773.914014,106.488 C774.262016,106.992003 775.036008,107.244 776.236014,107.244 L776.236014,108 L767.992014,108 L767.992014,107.244 C769.19202,107.244 769.966012,106.992003 770.314014,106.488 C770.662016,105.983997 770.836014,104.832009 770.836014,103.032 L770.836014,97.272 L767.884014,97.272 L767.884014,96.012 L770.836014,96.012 L770.836014,92.556 C770.836014,90.2759886 771.406008,88.5780056 772.546014,87.462 C773.68602,86.3459944 775.084006,85.788 776.740014,85.788 C777.84402,85.788 778.720011,86.0699972 779.368014,86.634 C780.016017,87.1980028 780.340014,87.8039968 780.340014,88.452 C780.340014,88.8360019 780.238015,89.1479988 780.034014,89.388 C779.830013,89.6280012 779.536016,89.748 779.152014,89.748 C778.768012,89.748 778.468015,89.6040014 778.252014,89.316 C778.036013,89.0279986 777.892014,88.7100017 777.820014,88.362 C777.748014,88.0139983 777.568015,87.6960014 777.280014,87.408 C776.992013,87.1199986 776.596017,86.976 776.092014,86.976 C775.156009,86.976 774.472016,87.4019957 774.040014,88.254 C773.608012,89.1060043 773.392014,90.5399899 773.392014,92.556 L773.392014,96.012 L776.992014,96.012 L776.992014,97.272 L773.392014,97.272 Z" id="Vout-=-Vin---Vf-Copy" fill="#524740"></path>
                <g id="Current" transform="translate(292.000000, 0.000000)">
                    <path d="M22.248,24.604 L21.528,24.604 C21.335999,23.6679953 20.9280031,22.9840022 20.304,22.552 C18.3359902,24.5920102 16.1040125,25.612 13.608,25.612 C10.5599848,25.612 7.9560108,24.4960112 5.796,22.264 C3.6359892,20.0319888 2.556,17.3440157 2.556,14.2 C2.556,11.0559843 3.6359892,8.36801116 5.796,6.136 C7.9560108,3.90398884 10.5599848,2.788 13.608,2.788 C16.1520127,2.788 18.3839904,3.8079898 20.304,5.848 C20.9520032,5.34399748 21.3599992,4.66000432 21.528,3.796 L22.248,3.796 L22.248,11.716 L21.528,11.716 C21.0239975,9.33998812 20.0940068,7.4920066 18.738,6.172 C17.3819932,4.8519934 15.7200098,4.192 13.752,4.192 C12.3839932,4.192 11.1720053,4.49799694 10.116,5.11 C9.05999472,5.72200306 8.23800294,6.53199496 7.65,7.54 C7.06199706,8.54800504 6.62400144,9.61599436 6.336,10.744 C6.04799856,11.8720056 5.904,13.0239941 5.904,14.2 C5.904,15.3760059 6.04799856,16.5279944 6.336,17.656 C6.62400144,18.7840056 7.06199706,19.845995 7.65,20.842 C8.23800294,21.838005 9.05999472,22.6419969 10.116,23.254 C11.1720053,23.8660031 12.3839932,24.172 13.752,24.172 C15.7200098,24.172 17.3819932,23.5060067 18.738,22.174 C20.0940068,20.8419933 21.0239975,19.0120116 21.528,16.684 L22.248,16.684 L22.248,24.604 Z M40.860001,24.712 L36.036001,25.612 C35.844,25.2279981 35.652002,24.4600058 35.460001,23.308 C33.9719936,24.8440077 32.4000093,25.612 30.744001,25.612 C27.7679861,25.612 26.280001,23.812018 26.280001,20.212 L26.280001,17.944 C26.280001,16.143991 26.1060027,14.9920025 25.758001,14.488 C25.4099993,13.9839975 24.636007,13.732 23.436001,13.732 L23.436001,13.012 L28.836001,13.012 L28.836001,20.032 C28.836001,22.6000128 29.7479919,23.884 31.572001,23.884 C32.3880051,23.884 33.2399966,23.5420034 34.128001,22.858 C35.0160054,22.1739966 35.460001,21.328005 35.460001,20.32 L35.460001,17.944 C35.460001,16.143991 35.2860027,14.9920025 34.938001,14.488 C34.5899993,13.9839975 33.8040071,13.732 32.580001,13.732 L32.580001,13.012 L37.980001,13.012 L37.980001,19.744 C37.980001,21.544009 38.1539993,22.6959975 38.502001,23.2 C38.8500027,23.7040025 39.6359949,23.956 40.860001,23.956 L40.860001,24.712 Z M52.776002,14.632 C52.776002,15.7600056 52.2960068,16.324 51.336002,16.324 C51.0000003,16.324 50.7060033,16.1920013 50.454002,15.928 C50.2020007,15.6639987 50.076002,15.3640017 50.076002,15.028 C50.076002,14.235996 49.6920058,13.84 48.924002,13.84 C48.3719992,13.84 47.7720052,14.2239962 47.124002,14.992 C46.4759988,15.7600038 46.152002,16.7799936 46.152002,18.052 L46.152002,20.032 C46.152002,21.832009 46.3260003,22.9839975 46.674002,23.488 C47.0220037,23.9920025 47.795996,24.244 48.996002,24.244 L48.996002,25 L40.752002,25 L40.752002,24.244 C41.952008,24.244 42.7260003,23.9920025 43.074002,23.488 C43.4220037,22.9839975 43.596002,21.832009 43.596002,20.032 L43.596002,18.232 C43.596002,16.4559911 43.4220037,15.3160025 43.074002,14.812 C42.7260003,14.3079975 41.952008,14.056 40.752002,14.056 L40.752002,13.3 L45.540002,12.4 C45.7560031,12.8560023 45.960001,13.7199936 46.152002,14.992 C46.5120038,14.2719964 47.0519984,13.6600025 47.772002,13.156 C48.4920056,12.6519975 49.2119984,12.4 49.932002,12.4 C50.8440066,12.4 51.5459995,12.6399976 52.038002,13.12 C52.5300045,13.6000024 52.776002,14.1039974 52.776002,14.632 Z M64.764003,14.632 C64.764003,15.7600056 64.2840078,16.324 63.324003,16.324 C62.9880013,16.324 62.6940043,16.1920013 62.442003,15.928 C62.1900017,15.6639987 62.064003,15.3640017 62.064003,15.028 C62.064003,14.235996 61.6800068,13.84 60.912003,13.84 C60.3600002,13.84 59.7600062,14.2239962 59.112003,14.992 C58.4639998,15.7600038 58.140003,16.7799936 58.140003,18.052 L58.140003,20.032 C58.140003,21.832009 58.3140013,22.9839975 58.662003,23.488 C59.0100047,23.9920025 59.783997,24.244 60.984003,24.244 L60.984003,25 L52.740003,25 L52.740003,24.244 C53.940009,24.244 54.7140013,23.9920025 55.062003,23.488 C55.4100047,22.9839975 55.584003,21.832009 55.584003,20.032 L55.584003,18.232 C55.584003,16.4559911 55.4100047,15.3160025 55.062003,14.812 C54.7140013,14.3079975 53.940009,14.056 52.740003,14.056 L52.740003,13.3 L57.528003,12.4 C57.7440041,12.8560023 57.948002,13.7199936 58.140003,14.992 C58.5000048,14.2719964 59.0399994,13.6600025 59.760003,13.156 C60.4800066,12.6519975 61.1999994,12.4 61.920003,12.4 C62.8320076,12.4 63.5340005,12.6399976 64.026003,13.12 C64.5180055,13.6000024 64.764003,14.1039974 64.764003,14.632 Z M67.572004,16.756 L73.548004,16.756 C73.7880052,16.0839966 73.6860062,15.4300032 73.242004,14.794 C72.7980018,14.1579968 72.0360094,13.84 70.956004,13.84 C70.1880002,13.84 69.4980071,14.1039974 68.886004,14.632 C68.2740009,15.1600026 67.8360053,15.8679956 67.572004,16.756 Z M67.356004,18.088 C67.1400029,19.8640089 67.4220001,21.3099944 68.202004,22.426 C68.9820079,23.5420056 70.2599951,24.1 72.036004,24.1 C72.636007,24.1 73.3200002,23.9440016 74.088004,23.632 C74.8560078,23.3199984 75.4920015,22.9240024 75.996004,22.444 L76.644004,23.236 C75.9960008,23.9320035 75.168009,24.5019978 74.160004,24.946 C73.151999,25.3900022 72.144009,25.612 71.136004,25.612 C69.1919943,25.612 67.5960102,24.9700064 66.348004,23.686 C65.0999978,22.4019936 64.476004,20.8360092 64.476004,18.988 C64.476004,17.1399908 65.1539972,15.5800064 66.510004,14.308 C67.8660108,13.0359936 69.4079954,12.4 71.136004,12.4 C72.7680122,12.4 74.0999988,12.9699943 75.132004,14.11 C76.1640092,15.2500057 76.4640062,16.5759924 76.032004,18.088 L67.356004,18.088 Z M82.548005,14.992 C83.9160118,13.2639914 85.5839952,12.4 87.552005,12.4 C89.1120128,12.4 90.2820011,12.8919951 91.062005,13.876 C91.8420089,14.8600049 92.232005,16.155992 92.232005,17.764 L92.232005,20.032 C92.232005,21.832009 92.4060033,22.9839975 92.754005,23.488 C93.1020067,23.9920025 93.875999,24.244 95.076005,24.244 L95.076005,25 L86.832005,25 L86.832005,24.244 C88.0080109,24.244 88.7760032,23.9860026 89.136005,23.47 C89.4960068,22.9539974 89.676005,21.8080089 89.676005,20.032 L89.676005,17.944 C89.676005,15.3759872 88.680015,14.092 86.688005,14.092 C85.6559998,14.092 84.7080093,14.4519964 83.844005,15.172 C82.9800007,15.8920036 82.548005,16.7319952 82.548005,17.692 L82.548005,20.032 C82.548005,21.8800092 82.6920036,23.0439976 82.980005,23.524 C83.2680064,24.0040024 83.9639995,24.244 85.068005,24.244 L85.068005,25 L77.148005,25 L77.148005,24.244 C78.348011,24.244 79.1220033,23.9920025 79.470005,23.488 C79.8180067,22.9839975 79.992005,21.832009 79.992005,20.032 L79.992005,18.232 C79.992005,16.4559911 79.8180067,15.3160025 79.470005,14.812 C79.1220033,14.3079975 78.348011,14.056 77.148005,14.056 L77.148005,13.3 L81.936005,12.4 C82.1520061,12.8560023 82.356004,13.7199936 82.548005,14.992 Z M96.480006,14.272 L94.608006,14.272 L94.608006,13.408 C95.6400112,13.1919989 96.3960036,12.7240036 96.876006,12.004 C97.3560084,11.2839964 97.6680053,10.3000062 97.812006,9.052 L99.036006,9.052 L99.036006,13.012 L102.168006,13.012 L102.168006,14.272 L99.036006,14.272 L99.036006,21.472 C99.036006,23.2000086 99.5760006,24.064 100.656006,24.064 C101.352009,24.064 102.132002,23.6560041 102.996006,22.84 L103.608006,23.452 C103.104003,24.052003 102.49801,24.5439981 101.790006,24.928 C101.082002,25.3120019 100.428009,25.504 99.828006,25.504 C98.7960008,25.504 97.980009,25.1680034 97.380006,24.496 C96.780003,23.8239966 96.480006,22.8160067 96.480006,21.472 L96.480006,14.272 Z" id="Current-Copy" fill="#524740"></path>
                    <path id="Line-11" d="M188,19.5 L116.058534,19.5 L114.558534,19.5 L114.558534,16.5 L116.058534,16.5 L188,16.5 L188,8.5 L207,18 L188,27.5 L188,19.5 Z" fill="#23ABE3" fill-rule="nonzero"></path>
                </g>
            </g>
            <g id="Level-Lines" transform="translate(0.000000, 57.000000)" stroke="#524740" stroke-linecap="square" stroke-width="2">
                <path d="M162.5,242 L0.5,242" id="Line-9"></path>
                <path d="M423.9375,75 L80.5,75" id="Line-9-Copy"></path>
                <path d="M162.5,1 L0.5,1" id="Line-9-Copy-2"></path>
            </g>
            <g id="Dam" transform="translate(171.000000, 58.000000)">
                <polygon id="Path-11" fill="#999999" points="244.058534 242 407 241 312 96 311 73 261 73 255 210"></polygon>
                <polygon id="Path-12" fill="#23ABE3" points="244 242 0 242 0.000227 73 261 73 255 211"></polygon>
                <path d="M5.05330146e-15,73 L311,73 C324.333333,81.6666667 333.333333,92.6666667 338,106 C345,126 362,158 368,182 C376,194 389,213.666667 407,241 L518,241 C517.844883,219.144106 517.844883,205.144106 518,199 C513.710203,195.323031 480.618836,181.755356 452,146 C433.919224,123.410522 414.342766,82.6101873 411,79 C386,52 357,7 261,-1.54724324e-13 C251,-1.54724324e-13 164,-3.35260176e-13 0,-6.96331881e-13 L5.05330146e-15,73 Z" id="Path-13" fill="#23ABE3"></path>
            </g>
        </g>
        <path d="M15.628,44 L15.628,19.808 L21.1,19.808 C25.0840199,19.808 28.2519882,20.9599885 30.604,23.264 C32.9560118,25.5680115 34.132,28.4479827 34.132,31.904 C34.132,35.3360172 32.9500118,38.2099884 30.586,40.526 C28.2219882,42.8420116 25.0600198,44 21.1,44 L15.628,44 Z M18.004,41.732 L21.1,41.732 C24.2680158,41.732 26.7999905,40.8020093 28.696,38.942 C30.5920095,37.0819907 31.54,34.7360142 31.54,31.904 C31.54,29.0719858 30.5920095,26.7260093 28.696,24.866 C26.7999905,23.0059907 24.2680158,22.076 21.1,22.076 L18.004,22.076 L18.004,41.732 Z M50.692001,26 L53.068001,26 L53.068001,44 L50.692001,44 L50.692001,41.084 C48.8439918,43.2200107 46.5040152,44.288 43.672001,44.288 C41.1039882,44.288 38.9140101,43.3820091 37.102001,41.57 C35.2899919,39.7579909 34.384001,37.5680128 34.384001,35 C34.384001,32.4319872 35.2899919,30.2420091 37.102001,28.43 C38.9140101,26.6179909 41.1039882,25.712 43.672001,25.712 C46.5280153,25.712 48.8679919,26.7799893 50.692001,28.916 L50.692001,26 Z M43.708001,42.02 C45.6520107,42.02 47.2899943,41.3420068 48.622001,39.986 C49.9540077,38.6299932 50.620001,36.9680098 50.620001,35 C50.620001,33.0319902 49.9540077,31.3700068 48.622001,30.014 C47.2899943,28.6579932 45.6520107,27.98 43.708001,27.98 C41.7879914,27.98 40.1500078,28.6579932 38.794001,30.014 C37.4379942,31.3700068 36.760001,33.0319902 36.760001,35 C36.760001,36.9680098 37.4379942,38.6299932 38.794001,39.986 C40.1500078,41.3420068 41.7879914,42.02 43.708001,42.02 Z M77.044002,25.712 C79.1320124,25.712 80.8839949,26.4499926 82.300002,27.926 C83.7160091,29.4020074 84.424002,31.2199892 84.424002,33.38 L84.424002,44 L81.976002,44 L81.976002,33.452 C81.976002,31.8919922 81.4660071,30.5780053 80.446002,29.51 C79.4259969,28.4419947 78.1600096,27.908 76.648002,27.908 C75.1359944,27.908 73.8640072,28.4419947 72.832002,29.51 C71.7999968,30.5780053 71.284002,31.8919922 71.284002,33.452 L71.284002,44 L68.872002,44 L68.872002,33.452 C68.872002,31.9159923 68.3500072,30.6080054 67.306002,29.528 C66.2619968,28.4479946 64.9960094,27.908 63.508002,27.908 C62.0199946,27.908 60.7540072,28.4479946 59.710002,29.528 C58.6659968,30.6080054 58.144002,31.9159923 58.144002,33.452 L58.144002,44 L55.768002,44 L55.768002,26 L58.144002,26 L58.144002,28.664 C59.6080093,26.6959902 61.5279901,25.712 63.904002,25.712 C65.2720088,25.712 66.5259963,26.0599965 67.666002,26.756 C68.8060077,27.4520035 69.6999988,28.3879941 70.348002,29.564 C70.9720051,28.3879941 71.8719961,27.4520035 73.048002,26.756 C74.2240079,26.0599965 75.5559946,25.712 77.044002,25.712 Z M113.512004,44 L110.416004,36.44 L99.112004,36.44 L96.016004,44 L93.532004,44 L103.612004,19.808 L105.880004,19.808 L115.960004,44 L113.512004,44 Z M100.084004,34.064 L109.444004,34.064 L104.764004,22.58 L100.084004,34.064 Z M124.492005,25.712 C126.580015,25.712 128.331998,26.4499926 129.748005,27.926 C131.164012,29.4020074 131.872005,31.2199892 131.872005,33.38 L131.872005,44 L129.460005,44 L129.460005,33.452 C129.460005,31.9159923 128.93801,30.6080054 127.894005,29.528 C126.85,28.4479946 125.584012,27.908 124.096005,27.908 C122.607998,27.908 121.34201,28.4479946 120.298005,29.528 C119.254,30.6080054 118.732005,31.9159923 118.732005,33.452 L118.732005,44 L116.356005,44 L116.356005,26 L118.732005,26 L118.732005,28.664 C120.196012,26.6959902 122.115993,25.712 124.492005,25.712 Z M149.404006,26 L151.780006,26 L151.780006,44 L149.404006,44 L149.404006,41.084 C147.555997,43.2200107 145.21602,44.288 142.384006,44.288 C139.815993,44.288 137.626015,43.3820091 135.814006,41.57 C134.001997,39.7579909 133.096006,37.5680128 133.096006,35 C133.096006,32.4319872 134.001997,30.2420091 135.814006,28.43 C137.626015,26.6179909 139.815993,25.712 142.384006,25.712 C145.24002,25.712 147.579997,26.7799893 149.404006,28.916 L149.404006,26 Z M142.420006,42.02 C144.364016,42.02 146.001999,41.3420068 147.334006,39.986 C148.666013,38.6299932 149.332006,36.9680098 149.332006,35 C149.332006,33.0319902 148.666013,31.3700068 147.334006,30.014 C146.001999,28.6579932 144.364016,27.98 142.420006,27.98 C140.499996,27.98 138.862013,28.6579932 137.506006,30.014 C136.149999,31.3700068 135.472006,33.0319902 135.472006,35 C135.472006,36.9680098 136.149999,38.6299932 137.506006,39.986 C138.862013,41.3420068 140.499996,42.02 142.420006,42.02 Z M154.696007,44 L154.696007,17.216 L157.072007,17.216 L157.072007,44 L154.696007,44 Z M174.604008,41.552 C172.803999,43.3760091 170.620021,44.288 168.052008,44.288 C165.483995,44.288 163.294017,43.3820091 161.482008,41.57 C159.669999,39.7579909 158.764008,37.5680128 158.764008,35 C158.764008,32.4319872 159.669999,30.2420091 161.482008,28.43 C163.294017,26.6179909 165.483995,25.712 168.052008,25.712 C170.620021,25.712 172.809999,26.6179909 174.622008,28.43 C176.434017,30.2420091 177.340008,32.4319872 177.340008,35 C177.340008,37.5440127 176.428017,39.7279909 174.604008,41.552 Z M168.088008,42.02 C170.032018,42.02 171.670001,41.3420068 173.002008,39.986 C174.334015,38.6299932 175.000008,36.9680098 175.000008,35 C175.000008,33.0319902 174.334015,31.3640068 173.002008,29.996 C171.670001,28.6279932 170.032018,27.944 168.088008,27.944 C166.167998,27.944 164.536015,28.6279932 163.192008,29.996 C161.848001,31.3640068 161.176008,33.0319902 161.176008,35 C161.176008,36.9680098 161.848001,38.6299932 163.192008,39.986 C164.536015,41.3420068 166.167998,42.02 168.088008,42.02 Z M194.368009,26.036 L196.780009,26.036 L196.780009,42.452 C196.756009,45.0680131 195.814018,47.2579912 193.954009,49.022 C192.094,50.7860088 189.940021,51.668 187.492009,51.668 C185.259998,51.668 183.358017,51.0740059 181.786009,49.886 C180.214001,48.6979941 179.152012,47.3600074 178.600009,45.872 L180.544009,44.9 C181.000011,46.1240061 181.864003,47.1919954 183.136009,48.104 C184.408015,49.0160046 185.860001,49.472 187.492009,49.472 C189.412019,49.472 191.038002,48.770007 192.370009,47.366 C193.702016,45.961993 194.380009,44.3240094 194.404009,42.452 L194.368009,42.452 L194.368009,41.12 C192.544,43.2560107 190.204023,44.324 187.348009,44.324 C184.779996,44.324 182.590018,43.4180091 180.778009,41.606 C178.966,39.7939909 178.060009,37.6040128 178.060009,35.036 C178.060009,32.4679872 178.966,30.2780091 180.778009,28.466 C182.590018,26.6539909 184.779996,25.748 187.348009,25.748 C190.180023,25.748 192.52,26.8159893 194.368009,28.952 L194.368009,26.036 Z M187.384009,42.092 C189.328019,42.092 190.966002,41.4140068 192.298009,40.058 C193.630016,38.7019932 194.296009,37.0400098 194.296009,35.072 C194.296009,33.1039902 193.630016,31.4420068 192.298009,30.086 C190.966002,28.7299932 189.328019,28.052 187.384009,28.052 C185.463999,28.052 183.832016,28.7299932 182.488009,30.086 C181.144002,31.4420068 180.472009,33.1039902 180.472009,35.072 C180.472009,37.0400098 181.144002,38.7019932 182.488009,40.058 C183.832016,41.4140068 185.463999,42.092 187.384009,42.092 Z M211.10801,26 L213.48401,26 L203.65601,51.668 L201.28001,51.668 L205.06001,41.804 L198.40001,26 L200.77601,26 L206.17601,38.852 L211.10801,26 Z" id="Dam-Analogy-Copy" fill="#23ABE3"></path>
    </g>
</svg>