<?xml version="1.0" encoding="UTF-8"?>
<svg width="900px" height="400px" viewBox="0 0 900 400" version="1.1" xmlns="http://www.w3.org/2000/svg" xmlns:xlink="http://www.w3.org/1999/xlink">
    <!-- Generator: Sketch 52.5 (67469) - http://www.bohemiancoding.com/sketch -->
    <title>Voltage_Drop_Dam</title>
    <desc>Created with Sketch.</desc>
    <g id="Voltage_Drop_Dam" stroke="none" stroke-width="1" fill="none" fill-rule="evenodd">
        <rect id="Rectangle" stroke="#3D3530" stroke-width="2" fill="#EEEEEE" x="1" y="1" width="898" height="428"></rect>
        <g id="Illustration" transform="translate(39.000000, 27.000000)">
            <g id="Labels" transform="translate(6.000000, 0.000000)">
                <g id="Vf" transform="translate(90.000000, 128.000000)">
                    <path d="M16.696,70.104 C15.7519953,70.104 15.1400014,70.2199988 14.86,70.452 C14.5799986,70.6840012 14.240002,71.2639954 13.84,72.192 L8.56,84.408 L8.248,84.408 L2.944,72.192 C2.543998,71.2639954 2.2040014,70.6840012 1.924,70.452 C1.6439986,70.2199988 1.03200472,70.104 0.088,70.104 L0.088,69.6 L6.736,69.6 L6.736,70.104 C5.74399504,70.104 5.1080014,70.2439986 4.828,70.524 C4.5479986,70.8040014 4.55999848,71.2719967 4.864,71.928 L8.944,81.264 L12.976,71.928 C13.2800015,71.2719967 13.2920014,70.8040014 13.012,70.524 C12.7319986,70.2439986 12.096005,70.104 11.104,70.104 L11.104,69.6 L16.696,69.6 L16.696,70.104 Z M21.32,85.848 L21.32,89.688 C21.32,90.888006 21.4359988,91.6559983 21.668,91.992 C21.9000012,92.3280017 22.415996,92.496 23.216,92.496 L23.216,93 L17.72,93 L17.72,92.496 C18.520004,92.496 19.0359988,92.3280017 19.268,91.992 C19.5000012,91.6559983 19.616,90.888006 19.616,89.688 L19.616,85.848 L17.648,85.848 L17.648,85.008 L19.616,85.008 L19.616,82.704 C19.616,81.1839924 19.9959962,80.0520037 20.756,79.308 C21.5160038,78.5639963 22.4479945,78.192 23.552,78.192 C24.2880037,78.192 24.8719978,78.3799981 25.304,78.756 C25.7360022,79.1320019 25.952,79.5359978 25.952,79.968 C25.952,80.2240013 25.8840007,80.4319992 25.748,80.592 C25.6119993,80.7520008 25.4160013,80.832 25.16,80.832 C24.9039987,80.832 24.7040007,80.736001 24.56,80.544 C24.4159993,80.351999 24.3200002,80.1400012 24.272,79.908 C24.2239998,79.6759988 24.104001,79.464001 23.912,79.272 C23.719999,79.079999 23.4560017,78.984 23.12,78.984 C22.4959969,78.984 22.0400014,79.2679972 21.752,79.836 C21.4639986,80.4040028 21.32,81.3599933 21.32,82.704 L21.32,85.008 L23.72,85.008 L23.72,85.848 L21.32,85.848 Z" id="Vf-Copy" fill="#524740"></path>
                    <path id="Line-10" d="M18.5,18.5 L18.5,48 L18.5,49.5 L15.5,49.5 L15.5,48 L15.5,18.5 L7.5,18.5 L17,-0.5 L26.5,18.5 L18.5,18.5 Z" fill="#23ABE3" fill-rule="nonzero"></path>
                    <path id="Line-10-Copy" d="M15.5,146.5 L15.5,116 L15.5,114.5 L18.5,114.5 L18.5,116 L18.5,146.5 L26.5,146.5 L17,165.5 L7.5,146.5 L15.5,146.5 Z" fill="#23ABE3" fill-rule="nonzero"></path>
                </g>
                <g id="VS" transform="translate(0.000000, 54.000000)">
                    <path d="M16.696,106.104 C15.7519953,106.104 15.1400014,106.219999 14.86,106.452 C14.5799986,106.684001 14.240002,107.263995 13.84,108.192 L8.56,120.408 L8.248,120.408 L2.944,108.192 C2.543998,107.263995 2.2040014,106.684001 1.924,106.452 C1.6439986,106.219999 1.03200472,106.104 0.088,106.104 L0.088,105.6 L6.736,105.6 L6.736,106.104 C5.74399504,106.104 5.1080014,106.243999 4.828,106.524 C4.5479986,106.804001 4.55999848,107.271997 4.864,107.928 L8.944,117.264 L12.976,107.928 C13.2800015,107.271997 13.2920014,106.804001 13.012,106.524 C12.7319986,106.243999 12.096005,106.104 11.104,106.104 L11.104,105.6 L16.696,105.6 L16.696,106.104 Z M22.616,129 L17.12,129 L17.12,128.496 C17.920004,128.496 18.4359988,128.328002 18.668,127.992 C18.9000012,127.655998 19.016,126.888006 19.016,125.688 L19.016,124.488 C19.016,123.303994 18.9000012,122.544002 18.668,122.208 C18.4359988,121.871998 17.920004,121.704 17.12,121.704 L17.12,121.2 L20.72,120.6 L20.72,125.688 C20.72,126.888006 20.8359988,127.655998 21.068,127.992 C21.3000012,128.328002 21.815996,128.496 22.616,128.496 L22.616,129 Z M20.912,117.168 C20.912,117.472002 20.808001,117.727999 20.6,117.936 C20.391999,118.144001 20.1440014,118.248 19.856,118.248 C19.5679986,118.248 19.320001,118.144001 19.112,117.936 C18.903999,117.727999 18.8,117.472002 18.8,117.168 C18.8,116.879999 18.903999,116.632001 19.112,116.424 C19.320001,116.215999 19.5679986,116.112 19.856,116.112 C20.1440014,116.112 20.391999,116.215999 20.6,116.424 C20.808001,116.632001 20.912,116.879999 20.912,117.168 Z M28.584,122.328 C29.4960046,121.175994 30.6079934,120.6 31.92,120.6 C32.9600052,120.6 33.7399974,120.927997 34.26,121.584 C34.7800026,122.240003 35.04,123.103995 35.04,124.176 L35.04,125.688 C35.04,126.888006 35.1559988,127.655998 35.388,127.992 C35.6200012,128.328002 36.135996,128.496 36.936,128.496 L36.936,129 L31.44,129 L31.44,128.496 C32.2240039,128.496 32.7359988,128.324002 32.976,127.98 C33.2160012,127.635998 33.336,126.872006 33.336,125.688 L33.336,124.296 C33.336,122.583991 32.6720066,121.728 31.344,121.728 C30.6559966,121.728 30.0240029,121.967998 29.448,122.448 C28.8719971,122.928002 28.584,123.487997 28.584,124.128 L28.584,125.688 C28.584,126.920006 28.679999,127.695998 28.872,128.016 C29.064001,128.336002 29.5279963,128.496 30.264,128.496 L30.264,129 L24.984,129 L24.984,128.496 C25.784004,128.496 26.2999988,128.328002 26.532,127.992 C26.7640012,127.655998 26.88,126.888006 26.88,125.688 L26.88,124.488 C26.88,123.303994 26.7640012,122.544002 26.532,122.208 C26.2999988,121.871998 25.784004,121.704 24.984,121.704 L24.984,121.2 L28.176,120.6 C28.3200007,120.904002 28.4559994,121.479996 28.584,122.328 Z" id="Vin-Copy" fill="#524740"></path>
                    <path id="Line-10-Copy-3" d="M18.5,18.5 L18.5,78 L18.5,79.5 L15.5,79.5 L15.5,78 L15.5,18.5 L7.5,18.5 L17,-0.5 L26.5,18.5 L18.5,18.5 Z" fill="#23ABE3" fill-rule="nonzero"></path>
                    <path id="Line-10-Copy-2" d="M15.5,219.5 L15.5,160 L15.5,158.5 L18.5,158.5 L18.5,160 L18.5,219.5 L26.5,219.5 L17,238.5 L7.5,219.5 L15.5,219.5 Z" fill="#23ABE3" fill-rule="nonzero"></path>
                </g>
                <path d="M605.696,67.104 C604.751995,67.104 604.140001,67.2199988 603.86,67.452 C603.579999,67.6840012 603.240002,68.2639954 602.84,69.192 L597.56,81.408 L597.248,81.408 L591.944,69.192 C591.543998,68.2639954 591.204001,67.6840012 590.924,67.452 C590.643999,67.2199988 590.032005,67.104 589.088,67.104 L589.088,66.6 L595.736,66.6 L595.736,67.104 C594.743995,67.104 594.108001,67.2439986 593.828,67.524 C593.547999,67.8040014 593.559998,68.2719967 593.864,68.928 L597.944,78.264 L601.976,68.928 C602.280002,68.2719967 602.292001,67.8040014 602.012,67.524 C601.731999,67.2439986 601.096005,67.104 600.104,67.104 L600.104,66.6 L605.696,66.6 L605.696,67.104 Z M613.824,82.896 C614.784005,83.7440042 615.264,84.7759939 615.264,85.992 C615.264,87.2080061 614.788005,88.2479957 613.836,89.112 C612.883995,89.9760043 611.744007,90.408 610.416,90.408 C609.087993,90.408 607.948005,89.9760043 606.996,89.112 C606.043995,88.2479957 605.568,87.2080061 605.568,85.992 C605.568,84.7759939 606.043995,83.7400043 606.996,82.884 C607.948005,82.0279957 609.087993,81.6 610.416,81.6 C611.744007,81.6 612.879995,82.0319957 613.824,82.896 Z M612.576,88.512 C613.072002,87.8559967 613.32,87.0160051 613.32,85.992 C613.32,84.9679949 613.072002,84.1320032 612.576,83.484 C612.079998,82.8359968 611.360005,82.512 610.416,82.512 C609.471995,82.512 608.752002,82.8399967 608.256,83.496 C607.759998,84.1520033 607.512,84.983995 607.512,85.992 C607.512,87.000005 607.759998,87.8319967 608.256,88.488 C608.752002,89.1440033 609.471995,89.472 610.416,89.472 C611.360005,89.472 612.079998,89.1520032 612.576,88.512 Z M629.488,89.808 L626.272,90.408 C626.143999,90.1519987 626.016001,89.6400038 625.888,88.872 C624.895995,89.8960051 623.848006,90.408 622.744,90.408 C620.75999,90.408 619.768,89.208012 619.768,86.808 L619.768,85.296 C619.768,84.095994 619.652001,83.3280017 619.42,82.992 C619.187999,82.6559983 618.672004,82.488 617.872,82.488 L617.872,82.008 L621.472,82.008 L621.472,86.688 C621.472,88.4000086 622.079994,89.256 623.296,89.256 C623.840003,89.256 624.407997,89.0280023 625,88.572 C625.592003,88.1159977 625.888,87.5520034 625.888,86.88 L625.888,85.296 C625.888,84.095994 625.772001,83.3280017 625.54,82.992 C625.307999,82.6559983 624.784004,82.488 623.968,82.488 L623.968,82.008 L627.568,82.008 L627.568,86.496 C627.568,87.696006 627.683999,88.4639983 627.916,88.8 C628.148001,89.1360017 628.671996,89.304 629.488,89.304 L629.488,89.808 Z M632.864,82.848 L631.616,82.848 L631.616,82.272 C632.304003,82.1279993 632.807998,81.8160024 633.128,81.336 C633.448002,80.8559976 633.656,80.2000042 633.752,79.368 L634.568,79.368 L634.568,82.008 L636.656,82.008 L636.656,82.848 L634.568,82.848 L634.568,87.648 C634.568,88.8000058 634.927996,89.376 635.648,89.376 C636.112002,89.376 636.631997,89.1040027 637.208,88.56 L637.616,88.968 C637.279998,89.368002 636.876002,89.6959987 636.404,89.952 C635.931998,90.2080013 635.496002,90.336 635.096,90.336 C634.407997,90.336 633.864002,90.1120022 633.464,89.664 C633.063998,89.2159978 632.864,88.5440045 632.864,87.648 L632.864,82.848 Z M654.616,74.808 L647.608,74.808 L647.608,73.728 L654.616,73.728 L654.616,74.808 Z M654.616,77.808 L647.608,77.808 L647.608,76.728 L654.616,76.728 L654.616,77.808 Z M679.896,67.104 C678.951995,67.104 678.340001,67.2199988 678.06,67.452 C677.779999,67.6840012 677.440002,68.2639954 677.04,69.192 L671.76,81.408 L671.448,81.408 L666.144,69.192 C665.743998,68.2639954 665.404001,67.6840012 665.124,67.452 C664.843999,67.2199988 664.232005,67.104 663.288,67.104 L663.288,66.6 L669.936,66.6 L669.936,67.104 C668.943995,67.104 668.308001,67.2439986 668.028,67.524 C667.747999,67.8040014 667.759998,68.2719967 668.064,68.928 L672.144,78.264 L676.176,68.928 C676.480002,68.2719967 676.492001,67.8040014 676.212,67.524 C675.931999,67.2439986 675.296005,67.104 674.304,67.104 L674.304,66.6 L679.896,66.6 L679.896,67.104 Z M685.816,90 L680.32,90 L680.32,89.496 C681.120004,89.496 681.635999,89.3280017 681.868,88.992 C682.100001,88.6559983 682.216,87.888006 682.216,86.688 L682.216,85.488 C682.216,84.3039941 682.100001,83.5440017 681.868,83.208 C681.635999,82.8719983 681.120004,82.704 680.32,82.704 L680.32,82.2 L683.92,81.6 L683.92,86.688 C683.92,87.888006 684.035999,88.6559983 684.268,88.992 C684.500001,89.3280017 685.015996,89.496 685.816,89.496 L685.816,90 Z M684.112,78.168 C684.112,78.4720015 684.008001,78.727999 683.8,78.936 C683.591999,79.144001 683.344001,79.248 683.056,79.248 C682.767999,79.248 682.520001,79.144001 682.312,78.936 C682.103999,78.727999 682,78.4720015 682,78.168 C682,77.8799986 682.103999,77.632001 682.312,77.424 C682.520001,77.215999 682.767999,77.112 683.056,77.112 C683.344001,77.112 683.591999,77.215999 683.8,77.424 C684.008001,77.632001 684.112,77.8799986 684.112,78.168 Z M691.784,83.328 C692.696005,82.1759942 693.807993,81.6 695.12,81.6 C696.160005,81.6 696.939997,81.9279967 697.46,82.584 C697.980003,83.2400033 698.24,84.1039946 698.24,85.176 L698.24,86.688 C698.24,87.888006 698.355999,88.6559983 698.588,88.992 C698.820001,89.3280017 699.335996,89.496 700.136,89.496 L700.136,90 L694.64,90 L694.64,89.496 C695.424004,89.496 695.935999,89.3240017 696.176,88.98 C696.416001,88.6359983 696.536,87.8720059 696.536,86.688 L696.536,85.296 C696.536,83.5839914 695.872007,82.728 694.544,82.728 C693.855997,82.728 693.224003,82.9679976 692.648,83.448 C692.071997,83.9280024 691.784,84.4879968 691.784,85.128 L691.784,86.688 C691.784,87.9200062 691.879999,88.6959984 692.072,89.016 C692.264001,89.3360016 692.727996,89.496 693.464,89.496 L693.464,90 L688.184,90 L688.184,89.496 C688.984004,89.496 689.499999,89.3280017 689.732,88.992 C689.964001,88.6559983 690.08,87.888006 690.08,86.688 L690.08,85.488 C690.08,84.3039941 689.964001,83.5440017 689.732,83.208 C689.499999,82.8719983 688.984004,82.704 688.184,82.704 L688.184,82.2 L691.376,81.6 C691.520001,81.9040015 691.655999,82.4799958 691.784,83.328 Z M717.184,76.608 L710.176,76.608 L710.176,75.552 L717.184,75.552 L717.184,76.608 Z M742.464,67.104 C741.519995,67.104 740.908001,67.2199988 740.628,67.452 C740.347999,67.6840012 740.008002,68.2639954 739.608,69.192 L734.328,81.408 L734.016,81.408 L728.712,69.192 C728.311998,68.2639954 727.972001,67.6840012 727.692,67.452 C727.411999,67.2199988 726.800005,67.104 725.856,67.104 L725.856,66.6 L732.504,66.6 L732.504,67.104 C731.511995,67.104 730.876001,67.2439986 730.596,67.524 C730.315999,67.8040014 730.327998,68.2719967 730.632,68.928 L734.712,78.264 L738.744,68.928 C739.048002,68.2719967 739.060001,67.8040014 738.78,67.524 C738.499999,67.2439986 737.864005,67.104 736.872,67.104 L736.872,66.6 L742.464,66.6 L742.464,67.104 Z M747.088,82.848 L747.088,86.688 C747.088,87.888006 747.203999,88.6559983 747.436,88.992 C747.668001,89.3280017 748.183996,89.496 748.984,89.496 L748.984,90 L743.488,90 L743.488,89.496 C744.288004,89.496 744.803999,89.3280017 745.036,88.992 C745.268001,88.6559983 745.384,87.888006 745.384,86.688 L745.384,82.848 L743.416,82.848 L743.416,82.008 L745.384,82.008 L745.384,79.704 C745.384,78.1839924 745.763996,77.0520037 746.524,76.308 C747.284004,75.5639963 748.215994,75.192 749.32,75.192 C750.056004,75.192 750.639998,75.3799981 751.072,75.756 C751.504002,76.1320019 751.72,76.5359978 751.72,76.968 C751.72,77.2240013 751.652001,77.4319992 751.516,77.592 C751.379999,77.7520008 751.184001,77.832 750.928,77.832 C750.671999,77.832 750.472001,77.736001 750.328,77.544 C750.183999,77.351999 750.088,77.1400012 750.04,76.908 C749.992,76.6759988 749.872001,76.464001 749.68,76.272 C749.487999,76.079999 749.224002,75.984 748.888,75.984 C748.263997,75.984 747.808001,76.2679972 747.52,76.836 C747.231999,77.4040028 747.088,78.3599933 747.088,79.704 L747.088,82.008 L749.488,82.008 L749.488,82.848 L747.088,82.848 Z" id="Vout-=-Vin---Vf-Copy" fill="#524740"></path>
                <g id="Current" transform="translate(303.000000, 0.000000)">
                    <path d="M14.832,16.736 L14.352,16.736 C14.2239994,16.1119969 13.9520021,15.6560014 13.536,15.368 C12.2239934,16.7280068 10.7360083,17.408 9.072,17.408 C7.03998984,17.408 5.3040072,16.6640074 3.864,15.176 C2.4239928,13.6879926 1.704,11.8960105 1.704,9.8 C1.704,7.70398952 2.4239928,5.91200744 3.864,4.424 C5.3040072,2.93599256 7.03998984,2.192 9.072,2.192 C10.7680085,2.192 12.2559936,2.8719932 13.536,4.232 C13.9680022,3.89599832 14.2399994,3.44000288 14.352,2.864 L14.832,2.864 L14.832,8.144 L14.352,8.144 C14.0159983,6.55999208 13.3960045,5.3280044 12.492,4.448 C11.5879955,3.5679956 10.4800066,3.128 9.168,3.128 C8.25599544,3.128 7.44800352,3.33199796 6.744,3.74 C6.03999648,4.14800204 5.49200196,4.68799664 5.1,5.36 C4.70799804,6.03200336 4.41600096,6.74399624 4.224,7.496 C4.03199904,8.24800376 3.936,9.01599608 3.936,9.8 C3.936,10.5840039 4.03199904,11.3519962 4.224,12.104 C4.41600096,12.8560038 4.70799804,13.5639967 5.1,14.228 C5.49200196,14.8920033 6.03999648,15.427998 6.744,15.836 C7.44800352,16.244002 8.25599544,16.448 9.168,16.448 C10.4800066,16.448 11.5879955,16.0040044 12.492,15.116 C13.3960045,14.2279956 14.0159983,13.0080078 14.352,11.456 L14.832,11.456 L14.832,16.736 Z M29.68,16.808 L26.464,17.408 C26.3359994,17.1519987 26.2080006,16.6400038 26.08,15.872 C25.087995,16.8960051 24.0400055,17.408 22.936,17.408 C20.9519901,17.408 19.96,16.208012 19.96,13.808 L19.96,12.296 C19.96,11.095994 19.8440012,10.3280017 19.612,9.992 C19.3799988,9.65599832 18.864004,9.488 18.064,9.488 L18.064,9.008 L21.664,9.008 L21.664,13.688 C21.664,15.4000086 22.2719939,16.256 23.488,16.256 C24.0320027,16.256 24.599997,16.0280023 25.192,15.572 C25.784003,15.1159977 26.08,14.5520034 26.08,13.88 L26.08,12.296 C26.08,11.095994 25.9640012,10.3280017 25.732,9.992 C25.4999988,9.65599832 24.9760041,9.488 24.16,9.488 L24.16,9.008 L27.76,9.008 L27.76,13.496 C27.76,14.696006 27.8759988,15.4639983 28.108,15.8 C28.3400012,16.1360017 28.8639959,16.304 29.68,16.304 L29.68,16.808 Z M40.064,10.088 C40.064,10.8400038 39.7440032,11.216 39.104,11.216 C38.8799989,11.216 38.6840008,11.1280009 38.516,10.952 C38.3479992,10.7759991 38.264,10.5760011 38.264,10.352 C38.264,9.82399736 38.0080026,9.56 37.496,9.56 C37.1279982,9.56 36.7280022,9.81599744 36.296,10.328 C35.8639978,10.8400026 35.648,11.5199958 35.648,12.368 L35.648,13.688 C35.648,14.888006 35.7639988,15.6559983 35.996,15.992 C36.2280012,16.3280017 36.743996,16.496 37.544,16.496 L37.544,17 L32.048,17 L32.048,16.496 C32.848004,16.496 33.3639988,16.3280017 33.596,15.992 C33.8280012,15.6559983 33.944,14.888006 33.944,13.688 L33.944,12.488 C33.944,11.3039941 33.8280012,10.5440017 33.596,10.208 C33.3639988,9.87199832 32.848004,9.704 32.048,9.704 L32.048,9.2 L35.24,8.6 C35.3840007,8.90400152 35.5199994,9.47999576 35.648,10.328 C35.8880012,9.8479976 36.2479976,9.44000168 36.728,9.104 C37.2080024,8.76799832 37.6879976,8.6 38.168,8.6 C38.776003,8.6 39.2439984,8.7599984 39.572,9.08 C39.9000016,9.4000016 40.064,9.73599824 40.064,10.088 Z M50.496,10.088 C50.496,10.8400038 50.1760032,11.216 49.536,11.216 C49.3119989,11.216 49.1160008,11.1280009 48.948,10.952 C48.7799992,10.7759991 48.696,10.5760011 48.696,10.352 C48.696,9.82399736 48.4400026,9.56 47.928,9.56 C47.5599982,9.56 47.1600022,9.81599744 46.728,10.328 C46.2959978,10.8400026 46.08,11.5199958 46.08,12.368 L46.08,13.688 C46.08,14.888006 46.1959988,15.6559983 46.428,15.992 C46.6600012,16.3280017 47.175996,16.496 47.976,16.496 L47.976,17 L42.48,17 L42.48,16.496 C43.280004,16.496 43.7959988,16.3280017 44.028,15.992 C44.2600012,15.6559983 44.376,14.888006 44.376,13.688 L44.376,12.488 C44.376,11.3039941 44.2600012,10.5440017 44.028,10.208 C43.7959988,9.87199832 43.280004,9.704 42.48,9.704 L42.48,9.2 L45.672,8.6 C45.8160007,8.90400152 45.9519994,9.47999576 46.08,10.328 C46.3200012,9.8479976 46.6799976,9.44000168 47.16,9.104 C47.6400024,8.76799832 48.1199976,8.6 48.6,8.6 C49.208003,8.6 49.6759984,8.7599984 50.004,9.08 C50.3320016,9.4000016 50.496,9.73599824 50.496,10.088 Z M54.808,11.504 L58.792,11.504 C58.9520008,11.0559978 58.8840015,10.6200021 58.588,10.196 C58.2919985,9.77199788 57.7840036,9.56 57.064,9.56 C56.5519974,9.56 56.092002,9.73599824 55.684,10.088 C55.275998,10.4400018 54.9840009,10.911997 54.808,11.504 Z M54.664,12.392 C54.5199993,13.5760059 54.7079974,14.5399963 55.228,15.284 C55.7480026,16.0280037 56.5999941,16.4 57.784,16.4 C58.184002,16.4 58.6399974,16.296001 59.152,16.088 C59.6640026,15.879999 60.0879983,15.6160016 60.424,15.296 L60.856,15.824 C60.4239978,16.2880023 59.8720034,16.6679985 59.2,16.964 C58.5279966,17.2600015 57.8560034,17.408 57.184,17.408 C55.8879935,17.408 54.8240042,16.9800043 53.992,16.124 C53.1599958,15.2679957 52.744,14.2240062 52.744,12.992 C52.744,11.7599938 53.1959955,10.7200042 54.1,9.872 C55.0040045,9.02399576 56.0319942,8.6 57.184,8.6 C58.2720054,8.6 59.1599966,8.9799962 59.848,9.74 C60.5360034,10.5000038 60.7360014,11.383995 60.448,12.392 L54.664,12.392 Z M67.232,10.328 C68.1440046,9.17599424 69.2559934,8.6 70.568,8.6 C71.6080052,8.6 72.3879974,8.92799672 72.908,9.584 C73.4280026,10.2400033 73.688,11.1039946 73.688,12.176 L73.688,13.688 C73.688,14.888006 73.8039988,15.6559983 74.036,15.992 C74.2680012,16.3280017 74.783996,16.496 75.584,16.496 L75.584,17 L70.088,17 L70.088,16.496 C70.8720039,16.496 71.3839988,16.3240017 71.624,15.98 C71.8640012,15.6359983 71.984,14.8720059 71.984,13.688 L71.984,12.296 C71.984,10.5839914 71.3200066,9.728 69.992,9.728 C69.3039966,9.728 68.6720029,9.9679976 68.096,10.448 C67.5199971,10.9280024 67.232,11.4879968 67.232,12.128 L67.232,13.688 C67.232,14.9200062 67.327999,15.6959984 67.52,16.016 C67.712001,16.3360016 68.1759963,16.496 68.912,16.496 L68.912,17 L63.632,17 L63.632,16.496 C64.432004,16.496 64.9479988,16.3280017 65.18,15.992 C65.4120012,15.6559983 65.528,14.888006 65.528,13.688 L65.528,12.488 C65.528,11.3039941 65.4120012,10.5440017 65.18,10.208 C64.9479988,9.87199832 64.432004,9.704 63.632,9.704 L63.632,9.2 L66.824,8.6 C66.9680007,8.90400152 67.1039994,9.47999576 67.232,10.328 Z M78.96,9.848 L77.712,9.848 L77.712,9.272 C78.4000034,9.12799928 78.9039984,8.8160024 79.224,8.336 C79.5440016,7.8559976 79.7519995,7.20000416 79.848,6.368 L80.664,6.368 L80.664,9.008 L82.752,9.008 L82.752,9.848 L80.664,9.848 L80.664,14.648 C80.664,15.8000058 81.0239964,16.376 81.744,16.376 C82.2080023,16.376 82.7279971,16.1040027 83.304,15.56 L83.712,15.968 C83.3759983,16.368002 82.9720024,16.6959987 82.5,16.952 C82.0279976,17.2080013 81.592002,17.336 81.192,17.336 C80.5039966,17.336 79.960002,17.1120022 79.56,16.664 C79.159998,16.2159978 78.96,15.5440045 78.96,14.648 L78.96,9.848 Z" id="Current-Copy" fill="#524740"></path>
                    <path id="Line-11" d="M178,14.5 L106.058534,14.5 L104.558534,14.5 L104.558534,11.5 L106.058534,11.5 L178,11.5 L178,3.5 L197,13 L178,22.5 L178,14.5 Z" fill="#23ABE3" fill-rule="nonzero"></path>
                </g>
            </g>
            <g id="Dam" transform="translate(171.000000, 53.000000)">
                <polygon id="Path-11" fill="#999999" points="244.058534 242 407 241 312 96 311 73 261 73 255 210"></polygon>
                <polygon id="Path-12" fill="#23ABE3" points="244 242 0 242 0.000227 73 261 73 255 211"></polygon>
                <path d="M5.05330146e-15,73 L311,73 C324.333333,81.6666667 333.333333,92.6666667 338,106 C345,126 362,158 368,182 C376,194 389,213.666667 407,241 L518,241 C517.844883,219.144106 517.844883,205.144106 518,199 C513.710203,195.323031 480.618836,181.755356 452,146 C433.919224,123.410522 414.342766,82.6101873 411,79 C386,52 357,7 261,-1.54724324e-13 C251,-1.54724324e-13 164,-3.35260176e-13 0,-6.96331881e-13 L5.05330146e-15,73 Z" id="Path-13" fill="#23ABE3"></path>
            </g>
            <g id="Level-Lines" transform="translate(0.000000, 52.000000)" stroke="#524740" stroke-linecap="square" stroke-width="2">
                <path d="M162.5,242 L0.5,242" id="Line-9"></path>
                <path d="M423.9375,75 L80.5,75" id="Line-9-Copy"></path>
                <path d="M162.5,1 L0.5,1" id="Line-9-Copy-2"></path>
            </g>
        </g>
        <rect id="Rectangle-Copy" stroke="#3D3530" stroke-width="2" fill="#F8FAE4" x="1" y="356" width="898" height="43"></rect>
        <path d="M726.594666,385 L726.594666,368.872 L730.242666,368.872 C732.89868,368.872 735.010659,369.639992 736.578666,371.176 C738.146674,372.712008 738.930666,374.631988 738.930666,376.936 C738.930666,379.224011 738.142674,381.139992 736.566666,382.684 C734.990659,384.228008 732.88268,385 730.242666,385 L726.594666,385 Z M728.178666,383.488 L730.242666,383.488 C732.354677,383.488 734.04266,382.868006 735.306666,381.628 C736.570673,380.387994 737.202666,378.824009 737.202666,376.936 C737.202666,375.047991 736.570673,373.484006 735.306666,372.244 C734.04266,371.003994 732.354677,370.384 730.242666,370.384 L728.178666,370.384 L728.178666,383.488 Z M752.077333,373 L753.661333,373 L753.661333,385 L752.077333,385 L752.077333,383.056 C750.845327,384.480007 749.285343,385.192 747.397333,385.192 C745.685325,385.192 744.225339,384.588006 743.017333,383.38 C741.809327,382.171994 741.205333,380.712009 741.205333,379 C741.205333,377.287991 741.809327,375.828006 743.017333,374.62 C744.225339,373.411994 745.685325,372.808 747.397333,372.808 C749.301343,372.808 750.861327,373.519993 752.077333,374.944 L752.077333,373 Z M747.421333,383.68 C748.71734,383.68 749.809329,383.228005 750.697333,382.324 C751.585338,381.419995 752.029333,380.312007 752.029333,379 C752.029333,377.687993 751.585338,376.580005 750.697333,375.676 C749.809329,374.771995 748.71734,374.32 747.421333,374.32 C746.141327,374.32 745.049338,374.771995 744.145333,375.676 C743.241329,376.580005 742.789333,377.687993 742.789333,379 C742.789333,380.312007 743.241329,381.419995 744.145333,382.324 C745.049338,383.228005 746.141327,383.68 747.421333,383.68 Z M771.752,372.808 C773.144007,372.808 774.311995,373.299995 775.256,374.284 C776.200005,375.268005 776.672,376.479993 776.672,377.92 L776.672,385 L775.04,385 L775.04,377.968 C775.04,376.927995 774.700003,376.052004 774.02,375.34 C773.339996,374.627996 772.496005,374.272 771.488,374.272 C770.479995,374.272 769.632003,374.627996 768.944,375.34 C768.255996,376.052004 767.912,376.927995 767.912,377.968 L767.912,385 L766.304,385 L766.304,377.968 C766.304,376.943995 765.956003,376.072004 765.26,375.352 C764.563996,374.631996 763.720005,374.272 762.728,374.272 C761.735995,374.272 760.892003,374.631996 760.196,375.352 C759.499996,376.072004 759.152,376.943995 759.152,377.968 L759.152,385 L757.568,385 L757.568,373 L759.152,373 L759.152,374.776 C760.128005,373.463993 761.407992,372.808 762.992,372.808 C763.904004,372.808 764.739996,373.039998 765.5,373.504 C766.260004,373.968002 766.855998,374.591996 767.288,375.376 C767.704002,374.591996 768.303996,373.968002 769.088,373.504 C769.872004,373.039998 770.759995,372.808 771.752,372.808 Z M800.277333,385 L798.213333,379.96 L790.677333,379.96 L788.613333,385 L786.957333,385 L793.677333,368.872 L795.189333,368.872 L801.909333,385 L800.277333,385 Z M791.325333,378.376 L797.565333,378.376 L794.445333,370.72 L791.325333,378.376 Z M809.704,372.808 C811.096007,372.808 812.263995,373.299995 813.208,374.284 C814.152005,375.268005 814.624,376.479993 814.624,377.92 L814.624,385 L813.016,385 L813.016,377.968 C813.016,376.943995 812.668003,376.072004 811.972,375.352 C811.275996,374.631996 810.432005,374.272 809.44,374.272 C808.447995,374.272 807.604003,374.631996 806.908,375.352 C806.211996,376.072004 805.864,376.943995 805.864,377.968 L805.864,385 L804.28,385 L804.28,373 L805.864,373 L805.864,374.776 C806.840005,373.463993 808.119992,372.808 809.704,372.808 Z M828.418667,373 L830.002667,373 L830.002667,385 L828.418667,385 L828.418667,383.056 C827.18666,384.480007 825.626676,385.192 823.738667,385.192 C822.026658,385.192 820.566673,384.588006 819.358667,383.38 C818.150661,382.171994 817.546667,380.712009 817.546667,379 C817.546667,377.287991 818.150661,375.828006 819.358667,374.62 C820.566673,373.411994 822.026658,372.808 823.738667,372.808 C825.642676,372.808 827.20266,373.519993 828.418667,374.944 L828.418667,373 Z M823.762667,383.68 C825.058673,383.68 826.150662,383.228005 827.038667,382.324 C827.926671,381.419995 828.370667,380.312007 828.370667,379 C828.370667,377.687993 827.926671,376.580005 827.038667,375.676 C826.150662,374.771995 825.058673,374.32 823.762667,374.32 C822.48266,374.32 821.390671,374.771995 820.486667,375.676 C819.582662,376.580005 819.130667,377.687993 819.130667,379 C819.130667,380.312007 819.582662,381.419995 820.486667,382.324 C821.390671,383.228005 822.48266,383.68 823.762667,383.68 Z M834.053333,385 L834.053333,367.144 L835.637333,367.144 L835.637333,385 L834.053333,385 Z M849.432,383.368 C848.231994,384.584006 846.776009,385.192 845.064,385.192 C843.351991,385.192 841.892006,384.588006 840.684,383.38 C839.475994,382.171994 838.872,380.712009 838.872,379 C838.872,377.287991 839.475994,375.828006 840.684,374.62 C841.892006,373.411994 843.351991,372.808 845.064,372.808 C846.776009,372.808 848.235994,373.411994 849.444,374.62 C850.652006,375.828006 851.256,377.287991 851.256,379 C851.256,380.696008 850.648006,382.151994 849.432,383.368 Z M845.088,383.68 C846.384006,383.68 847.475996,383.228005 848.364,382.324 C849.252004,381.419995 849.696,380.312007 849.696,379 C849.696,377.687993 849.252004,376.576005 848.364,375.664 C847.475996,374.751995 846.384006,374.296 845.088,374.296 C843.807994,374.296 842.720004,374.751995 841.824,375.664 C840.927995,376.576005 840.48,377.687993 840.48,379 C840.48,380.312007 840.927995,381.419995 841.824,382.324 C842.720004,383.228005 843.807994,383.68 845.088,383.68 Z M864.714667,373.024 L866.322667,373.024 L866.322667,383.968 C866.306667,385.712009 865.678673,387.171994 864.438667,388.348 C863.19866,389.524006 861.762675,390.112 860.130667,390.112 C858.642659,390.112 857.374672,389.716004 856.326667,388.924 C855.278661,388.131996 854.570668,387.240005 854.202667,386.248 L855.498667,385.6 C855.802668,386.416004 856.378662,387.127997 857.226667,387.736 C858.074671,388.344003 859.042661,388.648 860.130667,388.648 C861.410673,388.648 862.494662,388.180005 863.382667,387.244 C864.270671,386.307995 864.722667,385.216006 864.738667,383.968 L864.714667,383.968 L864.714667,383.08 C863.498661,384.504007 861.938676,385.216 860.034667,385.216 C858.322658,385.216 856.862673,384.612006 855.654667,383.404 C854.446661,382.195994 853.842667,380.736009 853.842667,379.024 C853.842667,377.311991 854.446661,375.852006 855.654667,374.644 C856.862673,373.435994 858.322658,372.832 860.034667,372.832 C861.922676,372.832 863.48266,373.543993 864.714667,374.968 L864.714667,373.024 Z M860.058667,383.728 C861.354673,383.728 862.446662,383.276005 863.334667,382.372 C864.222671,381.467995 864.666667,380.360007 864.666667,379.048 C864.666667,377.735993 864.222671,376.628005 863.334667,375.724 C862.446662,374.819995 861.354673,374.368 860.058667,374.368 C858.77866,374.368 857.690671,374.819995 856.794667,375.724 C855.898662,376.628005 855.450667,377.735993 855.450667,379.048 C855.450667,380.360007 855.898662,381.467995 856.794667,382.372 C857.690671,383.276005 858.77866,383.728 860.058667,383.728 Z M877.981333,373 L879.565333,373 L873.013333,390.112 L871.429333,390.112 L873.949333,383.536 L869.509333,373 L871.093333,373 L874.693333,381.568 L877.981333,373 Z" id="Dam-Analogy-Copy" fill="#23ABE3"></path>
    </g>
</svg>