<?xml version="1.0" encoding="UTF-8"?>
<svg width="900px" height="310px" viewBox="0 0 900 310" version="1.1" xmlns="http://www.w3.org/2000/svg" xmlns:xlink="http://www.w3.org/1999/xlink">
    <!-- Generator: Sketch 52.5 (67469) - http://www.bohemiancoding.com/sketch -->
    <title>Voltage_Clamping</title>
    <desc>Created with Sketch.</desc>
    <g id="Voltage_Clamping" stroke="none" stroke-width="1" fill="none" fill-rule="evenodd">
        <rect id="Rectangle" stroke="#3D3530" stroke-width="2" fill="#EEEEEE" x="1" y="1" width="898" height="358"></rect>
        <g id="Illustration" transform="translate(183.000000, 23.000000)">
            <g id="OUT" transform="translate(320.000000, 0.000000)">
                <path d="M52,8 L52,208" id="Line-7-Copy-2" stroke="#3D3530" stroke-width="3" stroke-linecap="square"></path>
                <path d="M216,107 L36,107" id="Line-7-Copy-6" stroke="#3D3530" stroke-width="3" stroke-linecap="square" transform="translate(126.000000, 107.000000) rotate(-180.000000) translate(-126.000000, -107.000000) "></path>
                <rect id="Rectangle" fill="#524740" x="13" y="207" width="13" height="2"></rect>
                <path d="M18,6 L18,0 L20,0 L20,6 L26,6 L26,8 L20,8 L20,14 L18,14 L18,8 L12,8 L12,6 L18,6 Z" id="Combined-Shape" fill="#524740"></path>
                <path d="M4.136,102.856 C5.24000552,101.751994 6.55999232,101.2 8.096,101.2 C9.63200768,101.2 10.9479945,101.747995 12.044,102.844 C13.1400055,103.940005 13.688,105.255992 13.688,106.792 C13.688,108.344008 13.1400055,109.667995 12.044,110.764 C10.9479945,111.860005 9.63200768,112.408 8.096,112.408 C6.55999232,112.408 5.24400548,111.860005 4.148,110.764 C3.05199452,109.667995 2.504,108.344008 2.504,106.792 C2.504,105.255992 3.04799456,103.944005 4.136,102.856 Z M8.096,102.568 C6.9759944,102.568 6.02000396,102.983996 5.228,103.816 C4.43599604,104.648004 4.04,105.639994 4.04,106.792 C4.04,107.960006 4.43599604,108.955996 5.228,109.78 C6.02000396,110.604004 6.9759944,111.016 8.096,111.016 C9.20000552,111.016 10.151996,110.604004 10.952,109.78 C11.752004,108.955996 12.152,107.960006 12.152,106.792 C12.152,105.639994 11.752004,104.648004 10.952,103.816 C10.151996,102.983996 9.20000552,102.568 8.096,102.568 Z M30.896,98.104 C29.9519953,98.104 29.3400014,98.2199988 29.06,98.452 C28.7799986,98.6840012 28.440002,99.2639954 28.04,100.192 L22.76,112.408 L22.448,112.408 L17.144,100.192 C16.743998,99.2639954 16.4040014,98.6840012 16.124,98.452 C15.8439986,98.2199988 15.2320047,98.104 14.288,98.104 L14.288,97.6 L20.936,97.6 L20.936,98.104 C19.943995,98.104 19.3080014,98.2439986 19.028,98.524 C18.7479986,98.8040014 18.7599985,99.2719967 19.064,99.928 L23.144,109.264 L27.176,99.928 C27.4800015,99.2719967 27.4920014,98.8040014 27.212,98.524 C26.9319986,98.2439986 26.296005,98.104 25.304,98.104 L25.304,97.6 L30.896,97.6 L30.896,98.104 Z" id="0V-Copy" fill="#524740"></path>
                <polyline id="Path-3" stroke="#EF7D3B" stroke-width="3" points="53 107 79 43 107 43 158 170 190.864 170 213 107"></polyline>
            </g>
            <g id="IN">
                <path d="M52,8 L52,208" id="Line-7-Copy-2" stroke="#3D3530" stroke-width="3" stroke-linecap="square"></path>
                <path d="M216,107 L36,107" id="Line-7-Copy-6" stroke="#3D3530" stroke-width="3" stroke-linecap="square" transform="translate(126.000000, 107.000000) rotate(-180.000000) translate(-126.000000, -107.000000) "></path>
                <rect id="Rectangle" fill="#524740" x="13" y="207" width="13" height="2"></rect>
                <path d="M18,6 L18,0 L20,0 L20,6 L26,6 L26,8 L20,8 L20,14 L18,14 L18,8 L12,8 L12,6 L18,6 Z" id="Combined-Shape" fill="#524740"></path>
                <path d="M4.136,102.856 C5.24000552,101.751994 6.55999232,101.2 8.096,101.2 C9.63200768,101.2 10.9479945,101.747995 12.044,102.844 C13.1400055,103.940005 13.688,105.255992 13.688,106.792 C13.688,108.344008 13.1400055,109.667995 12.044,110.764 C10.9479945,111.860005 9.63200768,112.408 8.096,112.408 C6.55999232,112.408 5.24400548,111.860005 4.148,110.764 C3.05199452,109.667995 2.504,108.344008 2.504,106.792 C2.504,105.255992 3.04799456,103.944005 4.136,102.856 Z M8.096,102.568 C6.9759944,102.568 6.02000396,102.983996 5.228,103.816 C4.43599604,104.648004 4.04,105.639994 4.04,106.792 C4.04,107.960006 4.43599604,108.955996 5.228,109.78 C6.02000396,110.604004 6.9759944,111.016 8.096,111.016 C9.20000552,111.016 10.151996,110.604004 10.952,109.78 C11.752004,108.955996 12.152,107.960006 12.152,106.792 C12.152,105.639994 11.752004,104.648004 10.952,103.816 C10.151996,102.983996 9.20000552,102.568 8.096,102.568 Z M30.896,98.104 C29.9519953,98.104 29.3400014,98.2199988 29.06,98.452 C28.7799986,98.6840012 28.440002,99.2639954 28.04,100.192 L22.76,112.408 L22.448,112.408 L17.144,100.192 C16.743998,99.2639954 16.4040014,98.6840012 16.124,98.452 C15.8439986,98.2199988 15.2320047,98.104 14.288,98.104 L14.288,97.6 L20.936,97.6 L20.936,98.104 C19.943995,98.104 19.3080014,98.2439986 19.028,98.524 C18.7479986,98.8040014 18.7599985,99.2719967 19.064,99.928 L23.144,109.264 L27.176,99.928 C27.4800015,99.2719967 27.4920014,98.8040014 27.212,98.524 C26.9319986,98.2439986 26.296005,98.104 25.304,98.104 L25.304,97.6 L30.896,97.6 L30.896,98.104 Z" id="0V-Copy" fill="#524740"></path>
                <polyline id="Path-2" stroke="#EF7D3B" stroke-width="3" points="52.7460938 106.019531 93 8 131.253906 106.019531 173 208 213 106"></polyline>
            </g>
            <path id="Line" d="M275,108.5 L237,108.5 L235.5,108.5 L235.5,105.5 L237,105.5 L275,105.5 L275,97.5 L294,107 L275,116.5 L275,108.5 Z" fill="#1A80AA" fill-rule="nonzero"></path>
        </g>
        <rect id="Rectangle-Copy" stroke="#3D3530" stroke-width="2" fill="#F8FAE4" x="1" y="266" width="898" height="43"></rect>
        <path d="M682.365333,278.872 L683.973333,278.872 L677.613333,295 L676.005333,295 L669.621333,278.872 L671.253333,278.872 L676.821333,292.96 L682.365333,278.872 Z M694.671999,293.368 C693.471993,294.584006 692.016008,295.192 690.303999,295.192 C688.591991,295.192 687.132006,294.588006 685.923999,293.38 C684.715993,292.171994 684.111999,290.712009 684.111999,289 C684.111999,287.287991 684.715993,285.828006 685.923999,284.62 C687.132006,283.411994 688.591991,282.808 690.303999,282.808 C692.016008,282.808 693.475993,283.411994 694.683999,284.62 C695.892006,285.828006 696.495999,287.287991 696.495999,289 C696.495999,290.696008 695.888006,292.151994 694.671999,293.368 Z M690.327999,293.68 C691.624006,293.68 692.715995,293.228005 693.603999,292.324 C694.492004,291.419995 694.935999,290.312007 694.935999,289 C694.935999,287.687993 694.492004,286.576005 693.603999,285.664 C692.715995,284.751995 691.624006,284.296 690.327999,284.296 C689.047993,284.296 687.960004,284.751995 687.063999,285.664 C686.167995,286.576005 685.719999,287.687993 685.719999,289 C685.719999,290.312007 686.167995,291.419995 687.063999,292.324 C687.960004,293.228005 689.047993,293.68 690.327999,293.68 Z M699.778666,295 L699.778666,277.144 L701.362666,277.144 L701.362666,295 L699.778666,295 Z M712.181333,292.312 L712.973333,293.536 C712.877332,293.664001 712.749334,293.815999 712.589333,293.992 C712.429332,294.168001 712.069336,294.411998 711.509333,294.724 C710.94933,295.036002 710.373336,295.192 709.781333,295.192 C708.773328,295.192 707.929336,294.892003 707.249333,294.292 C706.569329,293.691997 706.229333,292.824006 706.229333,291.688 L706.229333,284.44 L704.309333,284.44 L704.309333,282.976 L706.229333,282.976 L706.229333,279.184 L707.813333,278.992 L707.813333,282.976 L711.437333,282.976 L711.437333,284.44 L707.813333,284.44 L707.813333,291.328 C707.813333,292.064004 708.041331,292.647998 708.497333,293.08 C708.953335,293.512002 709.47733,293.728 710.069333,293.728 C710.437335,293.728 710.797331,293.616001 711.149333,293.392 C711.501335,293.167999 711.761332,292.948001 711.929333,292.732 C712.097334,292.515999 712.181333,292.376 712.181333,292.312 Z M725.304,283 L726.888,283 L726.888,295 L725.304,295 L725.304,293.056 C724.071993,294.480007 722.512009,295.192 720.624,295.192 C718.911991,295.192 717.452006,294.588006 716.244,293.38 C715.035994,292.171994 714.432,290.712009 714.432,289 C714.432,287.287991 715.035994,285.828006 716.244,284.62 C717.452006,283.411994 718.911991,282.808 720.624,282.808 C722.528009,282.808 724.087994,283.519993 725.304,284.944 L725.304,283 Z M720.648,293.68 C721.944006,293.68 723.035995,293.228005 723.924,292.324 C724.812004,291.419995 725.256,290.312007 725.256,289 C725.256,287.687993 724.812004,286.580005 723.924,285.676 C723.035995,284.771995 721.944006,284.32 720.648,284.32 C719.367993,284.32 718.276004,284.771995 717.372,285.676 C716.467995,286.580005 716.016,287.687993 716.016,289 C716.016,290.312007 716.467995,291.419995 717.372,292.324 C718.276004,293.228005 719.367993,293.68 720.648,293.68 Z M741.018666,283.024 L742.626666,283.024 L742.626666,293.968 C742.610666,295.712009 741.982672,297.171994 740.742666,298.348 C739.50266,299.524006 738.066674,300.112 736.434666,300.112 C734.946659,300.112 733.678672,299.716004 732.630666,298.924 C731.582661,298.131996 730.874668,297.240005 730.506666,296.248 L731.802666,295.6 C732.106668,296.416004 732.682662,297.127997 733.530666,297.736 C734.378671,298.344003 735.346661,298.648 736.434666,298.648 C737.714673,298.648 738.798662,298.180005 739.686666,297.244 C740.574671,296.307995 741.026666,295.216006 741.042666,293.968 L741.018666,293.968 L741.018666,293.08 C739.80266,294.504007 738.242676,295.216 736.338666,295.216 C734.626658,295.216 733.166672,294.612006 731.958666,293.404 C730.75066,292.195994 730.146666,290.736009 730.146666,289.024 C730.146666,287.311991 730.75066,285.852006 731.958666,284.644 C733.166672,283.435994 734.626658,282.832 736.338666,282.832 C738.226676,282.832 739.78666,283.543993 741.018666,284.968 L741.018666,283.024 Z M736.362666,293.728 C737.658673,293.728 738.750662,293.276005 739.638666,292.372 C740.526671,291.467995 740.970666,290.360007 740.970666,289.048 C740.970666,287.735993 740.526671,286.628005 739.638666,285.724 C738.750662,284.819995 737.658673,284.368 736.362666,284.368 C735.08266,284.368 733.994671,284.819995 733.098666,285.724 C732.202662,286.628005 731.754666,287.735993 731.754666,289.048 C731.754666,290.360007 732.202662,291.467995 733.098666,292.372 C733.994671,293.276005 735.08266,293.728 736.362666,293.728 Z M752.101333,293.608 C753.173338,293.608 754.133329,293.304003 754.981333,292.696 C755.829337,292.087997 756.405331,291.376004 756.709333,290.56 L758.053333,291.04 C757.685331,292.048005 756.969338,292.975996 755.905333,293.824 C754.841328,294.672004 753.57334,295.088 752.101333,295.072 C750.757326,295.072 749.529339,294.656004 748.417333,293.824 C747.305327,292.991996 746.549335,291.928006 746.149333,290.632 C745.989332,290.103997 745.909333,289.528003 745.909333,288.904 C745.909333,287.175991 746.509327,285.712006 747.709333,284.512 C748.909339,283.311994 750.373324,282.704 752.101333,282.688 C753.669341,282.704 755.037327,283.231995 756.205333,284.272 C757.373339,285.312005 758.045332,286.599992 758.221333,288.136 C758.237333,288.216 758.245333,288.319999 758.245333,288.448 L747.757333,290.344 C748.029334,291.304005 748.573329,292.091997 749.389333,292.708 C750.205337,293.324003 751.109328,293.624 752.101333,293.608 Z M751.957333,284.152 C750.757327,284.168 749.729337,284.599996 748.873333,285.448 C748.017329,286.296004 747.557333,287.311994 747.493333,288.496 C747.493333,288.544 747.497333,288.627999 747.505333,288.748 C747.513333,288.868001 747.517333,288.968 747.517333,289.048 L756.445333,287.44 C756.141331,286.463995 755.573337,285.668003 754.741333,285.052 C753.909329,284.435997 752.981338,284.136 751.957333,284.152 Z M776.138666,295.192 C773.770655,295.192 771.882673,294.404008 770.474666,292.828 C769.066659,291.251992 768.362666,289.296012 768.362666,286.96 C768.362666,284.607988 769.066659,282.644008 770.474666,281.068 C771.882673,279.491992 773.770655,278.704 776.138666,278.704 C777.706674,278.704 779.070661,279.063996 780.230666,279.784 C781.390672,280.504004 782.290663,281.487994 782.930666,282.736 L781.442666,283.6 C780.930664,282.559995 780.214671,281.736003 779.294666,281.128 C778.374662,280.519997 777.322672,280.216 776.138666,280.216 C774.314657,280.216 772.854672,280.851994 771.758666,282.124 C770.662661,283.396006 770.114666,285.00799 770.114666,286.96 C770.114666,288.89601 770.662661,290.503994 771.758666,291.784 C772.854672,293.064006 774.314657,293.704 776.138666,293.704 C777.338672,293.704 778.398662,293.396003 779.318666,292.78 C780.238671,292.163997 780.946664,291.336005 781.442666,290.296 L782.930666,291.184 C782.290663,292.432006 781.390672,293.411996 780.230666,294.124 C779.070661,294.836004 777.706674,295.192 776.138666,295.192 Z M786.405333,295 L786.405333,277.144 L787.989333,277.144 L787.989333,295 L786.405333,295 Z M802.096,283 L803.68,283 L803.68,295 L802.096,295 L802.096,293.056 C800.863994,294.480007 799.304009,295.192 797.416,295.192 C795.703991,295.192 794.244006,294.588006 793.036,293.38 C791.827994,292.171994 791.224,290.712009 791.224,289 C791.224,287.287991 791.827994,285.828006 793.036,284.62 C794.244006,283.411994 795.703991,282.808 797.416,282.808 C799.320009,282.808 800.879994,283.519993 802.096,284.944 L802.096,283 Z M797.44,293.68 C798.736006,293.68 799.827995,293.228005 800.716,292.324 C801.604004,291.419995 802.048,290.312007 802.048,289 C802.048,287.687993 801.604004,286.580005 800.716,285.676 C799.827995,284.771995 798.736006,284.32 797.44,284.32 C796.159993,284.32 795.068004,284.771995 794.164,285.676 C793.259995,286.580005 792.808,287.687993 792.808,289 C792.808,290.312007 793.259995,291.419995 794.164,292.324 C795.068004,293.228005 796.159993,293.68 797.44,293.68 Z M821.770666,282.808 C823.162673,282.808 824.330662,283.299995 825.274666,284.284 C826.218671,285.268005 826.690666,286.479993 826.690666,287.92 L826.690666,295 L825.058666,295 L825.058666,287.968 C825.058666,286.927995 824.71867,286.052004 824.038666,285.34 C823.358663,284.627996 822.514672,284.272 821.506666,284.272 C820.498661,284.272 819.65067,284.627996 818.962666,285.34 C818.274663,286.052004 817.930666,286.927995 817.930666,287.968 L817.930666,295 L816.322666,295 L816.322666,287.968 C816.322666,286.943995 815.97467,286.072004 815.278666,285.352 C814.582663,284.631996 813.738671,284.272 812.746666,284.272 C811.754662,284.272 810.91067,284.631996 810.214667,285.352 C809.518663,286.072004 809.170666,286.943995 809.170666,287.968 L809.170666,295 L807.586666,295 L807.586666,283 L809.170666,283 L809.170666,284.776 C810.146671,283.463993 811.426659,282.808 813.010666,282.808 C813.922671,282.808 814.758663,283.039998 815.518666,283.504 C816.27867,283.968002 816.874664,284.591996 817.306667,285.376 C817.722669,284.591996 818.322663,283.968002 819.106666,283.504 C819.89067,283.039998 820.778662,282.808 821.770666,282.808 Z M836.957333,282.784 C838.669342,282.784 840.129327,283.387994 841.337333,284.596 C842.545339,285.804006 843.149333,287.263991 843.149333,288.976 C843.149333,290.688009 842.545339,292.147994 841.337333,293.356 C840.129327,294.564006 838.669342,295.168 836.957333,295.168 C835.037324,295.168 833.469339,294.440007 832.253333,292.984 L832.253333,300.832 L830.669333,300.832 L830.669333,282.976 L832.253333,282.976 L832.253333,284.944 C833.485339,283.503993 835.053324,282.784 836.957333,282.784 Z M833.645333,292.312 C834.541338,293.208004 835.629327,293.656 836.909333,293.656 C838.18934,293.656 839.281329,293.204005 840.185333,292.3 C841.089338,291.395995 841.541333,290.288007 841.541333,288.976 C841.541333,287.663993 841.089338,286.552005 840.185333,285.64 C839.281329,284.727995 838.18934,284.272 836.909333,284.272 C835.629327,284.272 834.541338,284.727995 833.645333,285.64 C832.749329,286.552005 832.301333,287.663993 832.301333,288.976 C832.301333,290.288007 832.749329,291.399995 833.645333,292.312 Z M848.232,279.4 C848.055999,279.592001 847.832001,279.688 847.56,279.688 C847.287999,279.688 847.060001,279.592001 846.876,279.4 C846.691999,279.207999 846.6,278.984001 846.6,278.728 C846.6,278.471999 846.691999,278.248001 846.876,278.056 C847.060001,277.863999 847.287999,277.768 847.56,277.768 C847.832001,277.768 848.059999,277.863999 848.244,278.056 C848.428001,278.248001 848.52,278.471999 848.52,278.728 C848.52,278.984001 848.424001,279.207999 848.232,279.4 Z M846.768,295 L846.768,283 L848.352,283 L848.352,295 L846.768,295 Z M858.114667,282.808 C859.506674,282.808 860.674662,283.299995 861.618667,284.284 C862.562671,285.268005 863.034667,286.479993 863.034667,287.92 L863.034667,295 L861.426667,295 L861.426667,287.968 C861.426667,286.943995 861.07867,286.072004 860.382667,285.352 C859.686663,284.631996 858.842672,284.272 857.850667,284.272 C856.858662,284.272 856.01467,284.631996 855.318667,285.352 C854.622663,286.072004 854.274667,286.943995 854.274667,287.968 L854.274667,295 L852.690667,295 L852.690667,283 L854.274667,283 L854.274667,284.776 C855.250671,283.463993 856.530659,282.808 858.114667,282.808 Z M876.973333,283.024 L878.581333,283.024 L878.581333,293.968 C878.565333,295.712009 877.93734,297.171994 876.697333,298.348 C875.457327,299.524006 874.021341,300.112 872.389333,300.112 C870.901326,300.112 869.633339,299.716004 868.585333,298.924 C867.537328,298.131996 866.829335,297.240005 866.461333,296.248 L867.757333,295.6 C868.061335,296.416004 868.637329,297.127997 869.485333,297.736 C870.333338,298.344003 871.301328,298.648 872.389333,298.648 C873.66934,298.648 874.753329,298.180005 875.641333,297.244 C876.529338,296.307995 876.981333,295.216006 876.997333,293.968 L876.973333,293.968 L876.973333,293.08 C875.757327,294.504007 874.197343,295.216 872.293333,295.216 C870.581325,295.216 869.121339,294.612006 867.913333,293.404 C866.705327,292.195994 866.101333,290.736009 866.101333,289.024 C866.101333,287.311991 866.705327,285.852006 867.913333,284.644 C869.121339,283.435994 870.581325,282.832 872.293333,282.832 C874.181343,282.832 875.741327,283.543993 876.973333,284.968 L876.973333,283.024 Z M872.317333,293.728 C873.61334,293.728 874.705329,293.276005 875.593333,292.372 C876.481338,291.467995 876.925333,290.360007 876.925333,289.048 C876.925333,287.735993 876.481338,286.628005 875.593333,285.724 C874.705329,284.819995 873.61334,284.368 872.317333,284.368 C871.037327,284.368 869.949338,284.819995 869.053333,285.724 C868.157329,286.628005 867.709333,287.735993 867.709333,289.048 C867.709333,290.360007 868.157329,291.467995 869.053333,292.372 C869.949338,293.276005 871.037327,293.728 872.317333,293.728 Z" id="Voltage-Clamping-Copy" fill="#23ABE3"></path>
    </g>
</svg>