<?xml version="1.0" encoding="UTF-8"?>
<svg width="900px" height="430px" viewBox="0 0 900 430" version="1.1" xmlns="http://www.w3.org/2000/svg" xmlns:xlink="http://www.w3.org/1999/xlink">
    <!-- Generator: Sketch 52.5 (67469) - http://www.bohemiancoding.com/sketch -->
    <title>Water_Molecule</title>
    <desc>Created with Sketch.</desc>
    <g id="Water_Molecule" stroke="none" stroke-width="1" fill="none" fill-rule="evenodd">
        <rect id="Rectangle" stroke="#3D3530" stroke-width="2" fill="#EEEEEE" x="1" y="1" width="898" height="428"></rect>
        <rect id="Rectangle-Copy" stroke="#3D3530" stroke-width="2" x="1" y="367" width="898" height="62"></rect>
        <g id="Illustration" transform="translate(227.000000, -12.000000)">
            <g id="Inner-shells" transform="translate(192.000000, 74.000000)">
                <ellipse id="Oval" stroke="#524740" stroke-width="3" transform="translate(98.699413, 81.692441) rotate(-13.000000) translate(-98.699413, -81.692441) " cx="98.6994127" cy="81.6924408" rx="86" ry="63"></ellipse>
                <circle id="Oval-Copy-6" fill="#EF7D3B" cx="56" cy="28" r="12"></circle>
                <circle id="Oval-Copy-7" fill="#EF7D3B" cx="141" cy="130" r="12"></circle>
            </g>
            <g id="Labels" transform="translate(0.000000, 217.000000)" fill="#524740">
                <g id="Shared-electrons">
                    <path d="M2.864,16.28 C2.49599816,16.5840015 2.26400048,16.9599978 2.168,17.408 L1.688,17.408 L1.688,12.128 L2.192,12.128 C2.192,12.1920003 2.19599996,12.2759995 2.204,12.38 C2.21200004,12.4840005 2.24399972,12.6839985 2.3,12.98 C2.35600028,13.2760015 2.43599948,13.5599986 2.54,13.832 C2.64400052,14.1040014 2.80799888,14.4079983 3.032,14.744 C3.25600112,15.0800017 3.51599852,15.3679988 3.812,15.608 C4.10800148,15.8480012 4.49999756,16.0479992 4.988,16.208 C5.47600244,16.3680008 6.01599704,16.448 6.608,16.448 C7.47200432,16.448 8.18799716,16.2000025 8.756,15.704 C9.32400284,15.2079975 9.608,14.5760038 9.608,13.808 C9.608,12.8319951 8.6880092,11.8640048 6.848,10.904 L4.544,9.728 C3.79199624,9.327998 3.16000256,8.78400344 2.648,8.096 C2.13599744,7.40799656 1.88,6.63200432 1.88,5.768 C1.88,4.75999496 2.25599624,3.91200344 3.008,3.224 C3.76000376,2.53599656 4.71199424,2.192 5.864,2.192 C6.92000528,2.192 7.89599552,2.51999672 8.792,3.176 C9.16000184,2.87199848 9.39199952,2.50400216 9.488,2.072 L9.968,2.072 L9.968,7.352 L9.464,7.352 C9.2239988,4.551986 8.00001104,3.152 5.792,3.152 C5.11999664,3.152 4.5640022,3.35599796 4.124,3.764 C3.6839978,4.17200204 3.464,4.67999696 3.464,5.288 C3.464,5.88000296 3.67599788,6.37999796 4.1,6.788 C4.52400212,7.19600204 5.28799448,7.68799712 6.392,8.264 L8.672,9.44 C10.3520084,10.2880042 11.192,11.5039921 11.192,13.088 C11.192,14.3680064 10.7480044,15.407996 9.86,16.208 C8.97199556,17.008004 7.8880064,17.408 6.608,17.408 C6.06399728,17.408 5.54400248,17.3280008 5.048,17.168 C4.55199752,17.0079992 4.104002,16.828001 3.704,16.628 C3.303998,16.427999 3.0240008,16.3120002 2.864,16.28 Z M25.64,17 L20.336,17 L20.336,16.496 C21.0880038,16.496 21.559999,16.3360016 21.752,16.016 C21.944001,15.6959984 22.04,14.9200062 22.04,13.688 L22.04,12.296 C22.04,10.5839914 21.4320061,9.728 20.216,9.728 C19.5759968,9.728 18.9840027,9.96399764 18.44,10.436 C17.8959973,10.9080024 17.624,11.4719967 17.624,12.128 L17.624,13.688 C17.624,14.9360062 17.7119991,15.7159984 17.888,16.028 C18.0640009,16.3400016 18.4799967,16.496 19.136,16.496 L19.136,17 L14.024,17 L14.024,16.496 C14.824004,16.496 15.3399988,16.3280017 15.572,15.992 C15.8040012,15.6559983 15.92,14.888006 15.92,13.688 L15.92,6.104 C15.92,4.903994 15.8040012,4.13600168 15.572,3.8 C15.3399988,3.46399832 14.824004,3.296 14.024,3.296 L14.024,2.792 L17.624,2.192 L17.624,10.328 C18.5680047,9.17599424 19.6159942,8.6 20.768,8.6 C22.7360098,8.6 23.72,9.79198808 23.72,12.176 L23.72,13.688 C23.72,14.888006 23.8359988,15.6559983 24.068,15.992 C24.3000012,16.3280017 24.8239959,16.496 25.64,16.496 L25.64,17 Z M36.584,16.52 C36.1199977,17.0160025 35.592003,17.264 35,17.264 C34.0399952,17.264 33.4960006,16.8000046 33.368,15.872 C32.2959946,16.8320048 31.2960046,17.312 30.368,17.312 C29.759997,17.312 29.2480021,17.1320018 28.832,16.772 C28.4159979,16.4119982 28.208,15.9200031 28.208,15.296 C28.208,13.6159916 29.911983,12.480003 33.32,11.888 C33.32,10.9439953 33.216001,10.2880018 33.008,9.92 C32.799999,9.55199816 32.3680033,9.368 31.712,9.368 C31.3919984,9.368 31.0840015,9.47199896 30.788,9.68 C30.4919985,9.88800104 30.344,10.1679982 30.344,10.52 C30.344,10.7600012 30.2640008,10.9599992 30.104,11.12 C29.9439992,11.2800008 29.7520011,11.36 29.528,11.36 C29.2879988,11.36 29.0880008,11.2800008 28.928,11.12 C28.7679992,10.9599992 28.688,10.7600012 28.688,10.52 C28.688,9.9599972 28.9959969,9.5000018 29.612,9.14 C30.2280031,8.7799982 30.935996,8.6 31.736,8.6 C32.9040058,8.6 33.7439974,8.85599744 34.256,9.368 C34.7680026,9.88000256 35.024,10.7119942 35.024,11.864 L35.024,15.488 C35.024,16.1120031 35.2079982,16.424 35.576,16.424 C35.784001,16.424 36.0079988,16.3040012 36.248,16.064 L36.584,16.52 Z M33.32,15.08 L33.32,12.632 C31.111989,13.1440026 30.008,13.9359946 30.008,15.008 C30.008,15.3760018 30.1159989,15.6719989 30.332,15.896 C30.5480011,16.1200011 30.8159984,16.232 31.136,16.232 C31.728003,16.232 32.4559957,15.8480038 33.32,15.08 Z M47.096,10.088 C47.096,10.8400038 46.7760032,11.216 46.136,11.216 C45.9119989,11.216 45.7160008,11.1280009 45.548,10.952 C45.3799992,10.7759991 45.296,10.5760011 45.296,10.352 C45.296,9.82399736 45.0400026,9.56 44.528,9.56 C44.1599982,9.56 43.7600022,9.81599744 43.328,10.328 C42.8959978,10.8400026 42.68,11.5199958 42.68,12.368 L42.68,13.688 C42.68,14.888006 42.7959988,15.6559983 43.028,15.992 C43.2600012,16.3280017 43.775996,16.496 44.576,16.496 L44.576,17 L39.08,17 L39.08,16.496 C39.880004,16.496 40.3959988,16.3280017 40.628,15.992 C40.8600012,15.6559983 40.976,14.888006 40.976,13.688 L40.976,12.488 C40.976,11.3039941 40.8600012,10.5440017 40.628,10.208 C40.3959988,9.87199832 39.880004,9.704 39.08,9.704 L39.08,9.2 L42.272,8.6 C42.4160007,8.90400152 42.5519994,9.47999576 42.68,10.328 C42.9200012,9.8479976 43.2799976,9.44000168 43.76,9.104 C44.2400024,8.76799832 44.7199976,8.6 45.2,8.6 C45.808003,8.6 46.2759984,8.7599984 46.604,9.08 C46.9320016,9.4000016 47.096,9.73599824 47.096,10.088 Z M51.608,11.504 L55.592,11.504 C55.7520008,11.0559978 55.6840015,10.6200021 55.388,10.196 C55.0919985,9.77199788 54.5840036,9.56 53.864,9.56 C53.3519974,9.56 52.892002,9.73599824 52.484,10.088 C52.075998,10.4400018 51.7840009,10.911997 51.608,11.504 Z M51.464,12.392 C51.3199993,13.5760059 51.5079974,14.5399963 52.028,15.284 C52.5480026,16.0280037 53.3999941,16.4 54.584,16.4 C54.984002,16.4 55.4399974,16.296001 55.952,16.088 C56.4640026,15.879999 56.8879983,15.6160016 57.224,15.296 L57.656,15.824 C57.2239978,16.2880023 56.6720034,16.6679985 56,16.964 C55.3279966,17.2600015 54.6560034,17.408 53.984,17.408 C52.6879935,17.408 51.6240042,16.9800043 50.792,16.124 C49.9599958,15.2679957 49.544,14.2240062 49.544,12.992 C49.544,11.7599938 49.9959955,10.7200042 50.9,9.872 C51.8040045,9.02399576 52.8319942,8.6 53.984,8.6 C55.0720054,8.6 55.9599966,8.9799962 56.648,9.74 C57.3360034,10.5000038 57.5360014,11.383995 57.248,12.392 L51.464,12.392 Z M67.976,14.552 L67.976,11.456 C67.7519989,10.8799971 67.4240022,10.4200017 66.992,10.076 C66.5599978,9.73199828 66.0800026,9.56 65.552,9.56 C64.6559955,9.56 63.9760023,9.8799968 63.512,10.52 C63.0479977,11.1600032 62.816,11.983995 62.816,12.992 C62.816,14.0160051 63.0479977,14.8479968 63.512,15.488 C63.9760023,16.1280032 64.6559955,16.448 65.552,16.448 C66.0800026,16.448 66.5599978,16.2760017 66.992,15.932 C67.4240022,15.5879983 67.7519989,15.1280029 67.976,14.552 Z M67.976,10.016 L67.976,6.104 C67.976,4.903994 67.8600012,4.13600168 67.628,3.8 C67.3959988,3.46399832 66.880004,3.296 66.08,3.296 L66.08,2.792 L69.68,2.192 L69.68,13.496 C69.68,14.696006 69.7959988,15.4639983 70.028,15.8 C70.2600012,16.1360017 70.775996,16.304 71.576,16.304 L71.576,16.808 L68.384,17.408 C68.2719994,17.1679988 68.1440007,16.6800037 68,15.944 C67.2159961,16.9200049 66.2320059,17.408 65.048,17.408 C63.9119943,17.408 62.9320041,16.9760043 62.108,16.112 C61.2839959,15.2479957 60.872,14.2080061 60.872,12.992 C60.872,11.7759939 61.2839959,10.7400043 62.108,9.884 C62.9320041,9.02799572 63.9119943,8.6 65.048,8.6 C66.2320059,8.6 67.2079962,9.07199528 67.976,10.016 Z M80.936,17 L80.936,16.496 C81.928005,16.496 82.5559987,16.3280017 82.82,15.992 C83.0840013,15.6559983 83.216,14.888006 83.216,13.688 L83.216,5.888 C83.216,4.687994 83.0840013,3.92400164 82.82,3.596 C82.5559987,3.26799836 81.928005,3.104 80.936,3.104 L80.936,2.6 L91.88,2.6 L92.096,5.768 L91.592,5.768 L91.472,5.288 C91.279999,4.58399648 91.0240016,4.10800124 90.704,3.86 C90.3839984,3.61199876 89.7120051,3.488 88.688,3.488 L85.136,3.488 L85.136,8.936 L86.336,8.936 C87.536006,8.936 88.2999984,8.80400132 88.628,8.54 C88.9560016,8.27599868 89.12,7.64000504 89.12,6.632 L89.624,6.632 L89.624,12.128 L89.12,12.128 C89.12,11.119995 88.9560016,10.4840013 88.628,10.22 C88.2999984,9.95599868 87.536006,9.824 86.336,9.824 L85.136,9.824 L85.136,13.328 C85.136,14.528006 85.2679987,15.2919984 85.532,15.62 C85.7960013,15.9480016 86.423995,16.112 87.416,16.112 L89.48,16.112 C90.2000036,16.112 90.7479981,16.0400007 91.124,15.896 C91.5000019,15.7519993 91.7559993,15.5680011 91.892,15.344 C92.0280007,15.1199989 92.1519994,14.7680024 92.264,14.288 L92.384,13.808 L92.888,13.808 L92.696,17 L80.936,17 Z M101.168,17 L95.672,17 L95.672,16.496 C96.472004,16.496 96.9879988,16.3280017 97.22,15.992 C97.4520012,15.6559983 97.568,14.888006 97.568,13.688 L97.568,6.104 C97.568,4.903994 97.4520012,4.13600168 97.22,3.8 C96.9879988,3.46399832 96.472004,3.296 95.672,3.296 L95.672,2.792 L99.272,2.192 L99.272,13.688 C99.272,14.888006 99.3879988,15.6559983 99.62,15.992 C99.8520012,16.3280017 100.367996,16.496 101.168,16.496 L101.168,17 Z M106.064,11.504 L110.048,11.504 C110.208001,11.0559978 110.140001,10.6200021 109.844,10.196 C109.547999,9.77199788 109.040004,9.56 108.32,9.56 C107.807997,9.56 107.348002,9.73599824 106.94,10.088 C106.531998,10.4400018 106.240001,10.911997 106.064,11.504 Z M105.92,12.392 C105.775999,13.5760059 105.963997,14.5399963 106.484,15.284 C107.004003,16.0280037 107.855994,16.4 109.04,16.4 C109.440002,16.4 109.895997,16.296001 110.408,16.088 C110.920003,15.879999 111.343998,15.6160016 111.68,15.296 L112.112,15.824 C111.679998,16.2880023 111.128003,16.6679985 110.456,16.964 C109.783997,17.2600015 109.112003,17.408 108.44,17.408 C107.143994,17.408 106.080004,16.9800043 105.248,16.124 C104.415996,15.2679957 104,14.2240062 104,12.992 C104,11.7599938 104.451995,10.7200042 105.356,9.872 C106.260005,9.02399576 107.287994,8.6 108.44,8.6 C109.528005,8.6 110.415997,8.9799962 111.104,9.74 C111.792003,10.5000038 111.992001,11.383995 111.704,12.392 L105.92,12.392 Z M119.576,9.368 C118.935997,9.368 118.392002,9.73599632 117.944,10.472 C117.495998,11.2080037 117.272,12.1199946 117.272,13.208 C117.272,14.200005 117.515998,14.9799972 118.004,15.548 C118.492002,16.1160028 119.215995,16.4 120.176,16.4 C121.104005,16.4 121.959996,16.0320037 122.744,15.296 L123.152,15.824 C122.175995,16.8800053 120.984007,17.408 119.576,17.408 C118.263993,17.408 117.228004,17.0160039 116.468,16.232 C115.707996,15.4479961 115.328,14.4400062 115.328,13.208 C115.328,11.8799934 115.775996,10.7800044 116.672,9.908 C117.568004,9.03599564 118.535995,8.6 119.576,8.6 C120.520005,8.6 121.231998,8.76799832 121.712,9.104 C122.192002,9.44000168 122.432,9.8479976 122.432,10.328 C122.432,10.5840013 122.348001,10.8199989 122.18,11.036 C122.011999,11.2520011 121.744002,11.36 121.376,11.36 C121.119999,11.36 120.900001,11.2680009 120.716,11.084 C120.531999,10.8999991 120.44,10.6720014 120.44,10.4 C120.44,9.71199656 120.152003,9.368 119.576,9.368 Z M126.728,9.848 L125.48,9.848 L125.48,9.272 C126.168003,9.12799928 126.671998,8.8160024 126.992,8.336 C127.312002,7.8559976 127.52,7.20000416 127.616,6.368 L128.432,6.368 L128.432,9.008 L130.52,9.008 L130.52,9.848 L128.432,9.848 L128.432,14.648 C128.432,15.8000058 128.791996,16.376 129.512,16.376 C129.976002,16.376 130.495997,16.1040027 131.072,15.56 L131.48,15.968 C131.143998,16.368002 130.740002,16.6959987 130.268,16.952 C129.795998,17.2080013 129.360002,17.336 128.96,17.336 C128.271997,17.336 127.728002,17.1120022 127.328,16.664 C126.927998,16.2159978 126.728,15.5440045 126.728,14.648 L126.728,9.848 Z M142.016,10.088 C142.016,10.8400038 141.696003,11.216 141.056,11.216 C140.831999,11.216 140.636001,11.1280009 140.468,10.952 C140.299999,10.7759991 140.216,10.5760011 140.216,10.352 C140.216,9.82399736 139.960003,9.56 139.448,9.56 C139.079998,9.56 138.680002,9.81599744 138.248,10.328 C137.815998,10.8400026 137.6,11.5199958 137.6,12.368 L137.6,13.688 C137.6,14.888006 137.715999,15.6559983 137.948,15.992 C138.180001,16.3280017 138.695996,16.496 139.496,16.496 L139.496,17 L134,17 L134,16.496 C134.800004,16.496 135.315999,16.3280017 135.548,15.992 C135.780001,15.6559983 135.896,14.888006 135.896,13.688 L135.896,12.488 C135.896,11.3039941 135.780001,10.5440017 135.548,10.208 C135.315999,9.87199832 134.800004,9.704 134,9.704 L134,9.2 L137.192,8.6 C137.336001,8.90400152 137.471999,9.47999576 137.6,10.328 C137.840001,9.8479976 138.199998,9.44000168 138.68,9.104 C139.160002,8.76799832 139.639998,8.6 140.12,8.6 C140.728003,8.6 141.195998,8.7599984 141.524,9.08 C141.852002,9.4000016 142.016,9.73599824 142.016,10.088 Z M153.128,9.896 C154.088005,10.7440042 154.568,11.7759939 154.568,12.992 C154.568,14.2080061 154.092005,15.2479957 153.14,16.112 C152.187995,16.9760043 151.048007,17.408 149.72,17.408 C148.391993,17.408 147.252005,16.9760043 146.3,16.112 C145.347995,15.2479957 144.872,14.2080061 144.872,12.992 C144.872,11.7759939 145.347995,10.7400043 146.3,9.884 C147.252005,9.02799572 148.391993,8.6 149.72,8.6 C151.048007,8.6 152.183995,9.03199568 153.128,9.896 Z M151.88,15.512 C152.376002,14.8559967 152.624,14.0160051 152.624,12.992 C152.624,11.9679949 152.376002,11.1320032 151.88,10.484 C151.383998,9.83599676 150.664005,9.512 149.72,9.512 C148.775995,9.512 148.056002,9.83999672 147.56,10.496 C147.063998,11.1520033 146.816,11.983995 146.816,12.992 C146.816,14.000005 147.063998,14.8319967 147.56,15.488 C148.056002,16.1440033 148.775995,16.472 149.72,16.472 C150.664005,16.472 151.383998,16.1520032 151.88,15.512 Z M161.432,10.328 C162.344005,9.17599424 163.455993,8.6 164.768,8.6 C165.808005,8.6 166.587997,8.92799672 167.108,9.584 C167.628003,10.2400033 167.888,11.1039946 167.888,12.176 L167.888,13.688 C167.888,14.888006 168.003999,15.6559983 168.236,15.992 C168.468001,16.3280017 168.983996,16.496 169.784,16.496 L169.784,17 L164.288,17 L164.288,16.496 C165.072004,16.496 165.583999,16.3240017 165.824,15.98 C166.064001,15.6359983 166.184,14.8720059 166.184,13.688 L166.184,12.296 C166.184,10.5839914 165.520007,9.728 164.192,9.728 C163.503997,9.728 162.872003,9.9679976 162.296,10.448 C161.719997,10.9280024 161.432,11.4879968 161.432,12.128 L161.432,13.688 C161.432,14.9200062 161.527999,15.6959984 161.72,16.016 C161.912001,16.3360016 162.375996,16.496 163.112,16.496 L163.112,17 L157.832,17 L157.832,16.496 C158.632004,16.496 159.147999,16.3280017 159.38,15.992 C159.612001,15.6559983 159.728,14.888006 159.728,13.688 L159.728,12.488 C159.728,11.3039941 159.612001,10.5440017 159.38,10.208 C159.147999,9.87199832 158.632004,9.704 157.832,9.704 L157.832,9.2 L161.024,8.6 C161.168001,8.90400152 161.303999,9.47999576 161.432,10.328 Z M178.52,14.792 C178.52,15.5600038 178.244003,16.1879976 177.692,16.676 C177.139997,17.1640024 176.464004,17.408 175.664,17.408 C175.375999,17.408 175.080002,17.3520006 174.776,17.24 C174.471998,17.1279994 174.228001,17.0200005 174.044,16.916 C173.859999,16.8119995 173.688001,16.7320003 173.528,16.676 C173.367999,16.6199997 173.256,16.6479994 173.192,16.76 C173.128,16.8720006 173.096,17.0879984 173.096,17.408 L172.592,17.408 L172.592,13.904 L173.096,13.904 C173.096,14.5280031 173.335998,15.1319971 173.816,15.716 C174.296002,16.3000029 174.927996,16.592 175.712,16.592 C176.096002,16.592 176.419999,16.4720012 176.684,16.232 C176.948001,15.9919988 177.08,15.7040017 177.08,15.368 C177.08,14.8719975 176.632004,14.3840024 175.736,13.904 L174.392,13.184 C173.335995,12.6079971 172.808,11.8080051 172.808,10.784 C172.808,10.1599969 173.051998,9.64000208 173.54,9.224 C174.028002,8.80799792 174.591997,8.6 175.232,8.6 C175.776003,8.6 176.335997,8.74399856 176.912,9.032 C177.104001,9.14400056 177.236,9.1800002 177.308,9.14 C177.38,9.0999998 177.416,8.9200016 177.416,8.6 L177.92,8.6 L177.92,11.384 L177.416,11.384 C177.416,10.8559974 177.236002,10.388002 176.876,9.98 C176.515998,9.57199796 176.048003,9.368 175.472,9.368 C175.071998,9.368 174.768001,9.46399904 174.56,9.656 C174.351999,9.84800096 174.248,10.0959985 174.248,10.4 C174.248,10.6720014 174.351999,10.907999 174.56,11.108 C174.768001,11.308001 175.151997,11.5599985 175.712,11.864 L176.864,12.488 C177.968006,13.1120031 178.52,13.8799954 178.52,14.792 Z" id="Shared-Electrons-Copy"></path>
                </g>
            </g>
            <path d="M290.052,149.424 C291.620008,150.912007 292.404,152.70399 292.404,154.8 C292.404,156.89601 291.620008,158.687993 290.052,160.176 C288.483992,161.664007 286.604011,162.408 284.412,162.408 C282.203989,162.408 280.316008,161.664007 278.748,160.176 C277.179992,158.687993 276.396,156.89601 276.396,154.8 C276.396,152.70399 277.179992,150.912007 278.748,149.424 C280.316008,147.935993 282.203989,147.192 284.412,147.192 C286.604011,147.192 288.483992,147.935993 290.052,149.424 Z M287.028,148.752 C286.275996,148.335998 285.404005,148.128 284.412,148.128 C283.419995,148.128 282.540004,148.331998 281.772,148.74 C281.003996,149.148002 280.404002,149.687997 279.972,150.36 C279.539998,151.032003 279.216001,151.743996 279,152.496 C278.783999,153.248004 278.676,154.015996 278.676,154.8 C278.676,155.584004 278.783999,156.351996 279,157.104 C279.216001,157.856004 279.539998,158.563997 279.972,159.228 C280.404002,159.892003 281.003996,160.427998 281.772,160.836 C282.540004,161.244002 283.419995,161.448 284.412,161.448 C285.404005,161.448 286.279996,161.244002 287.04,160.836 C287.800004,160.427998 288.395998,159.892003 288.828,159.228 C289.260002,158.563997 289.583999,157.856004 289.8,157.104 C290.016001,156.351996 290.124,155.584004 290.124,154.8 C290.124,154.015996 290.016001,153.248004 289.8,152.496 C289.583999,151.743996 289.260002,151.032003 288.828,150.36 C288.395998,149.687997 287.796004,149.152002 287.028,148.752 Z" id="O-Copy" fill="#1A80AA"></path>
            <g id="Hydrogen-Copy" transform="translate(171.000000, 235.000000)">
                <ellipse id="Oval" stroke="#524740" stroke-width="3" transform="translate(71.026055, 67.249205) rotate(-30.000000) translate(-71.026055, -67.249205) " cx="71.0260545" cy="67.2492045" rx="56" ry="45"></ellipse>
                <path d="M66.332,69.8 L66.332,73.688 C66.332,74.888006 66.4639987,75.6559983 66.728,75.992 C66.9920013,76.3280017 67.619995,76.496 68.612,76.496 L68.612,77 L62.132,77 L62.132,76.496 C63.124005,76.496 63.7519987,76.3280017 64.016,75.992 C64.2800013,75.6559983 64.412,74.888006 64.412,73.688 L64.412,65.888 C64.412,64.687994 64.2800013,63.9240016 64.016,63.596 C63.7519987,63.2679984 63.124005,63.104 62.132,63.104 L62.132,62.6 L68.612,62.6 L68.612,63.104 C67.619995,63.104 66.9920013,63.2679984 66.728,63.596 C66.4639987,63.9240016 66.332,64.687994 66.332,65.888 L66.332,68.912 L74.492,68.912 L74.492,65.888 C74.492,64.687994 74.3560014,63.9240016 74.084,63.596 C73.8119986,63.2679984 73.180005,63.104 72.188,63.104 L72.188,62.6 L78.692,62.6 L78.692,63.104 C77.683995,63.104 77.0480013,63.2679984 76.784,63.596 C76.5199987,63.9240016 76.388,64.687994 76.388,65.888 L76.388,73.688 C76.388,74.9040061 76.5199987,75.6759984 76.784,76.004 C77.0480013,76.3320016 77.683995,76.496 78.692,76.496 L78.692,77 L72.188,77 L72.188,76.496 C73.180005,76.496 73.8119986,76.3280017 74.084,75.992 C74.3560014,75.6559983 74.492,74.888006 74.492,73.688 L74.492,69.8 L66.332,69.8 Z" id="H-Copy-2" fill="#1A80AA"></path>
            </g>
            <g id="Hydrogen" transform="translate(46.000000, 80.000000)">
                <ellipse id="Oval" stroke="#524740" stroke-width="3" transform="translate(65.026055, 56.249205) rotate(-12.000000) translate(-65.026055, -56.249205) " cx="65.0260545" cy="56.2492045" rx="56" ry="45"></ellipse>
                <path d="M56.332,54.8 L56.332,58.688 C56.332,59.888006 56.4639987,60.6559983 56.728,60.992 C56.9920013,61.3280017 57.619995,61.496 58.612,61.496 L58.612,62 L52.132,62 L52.132,61.496 C53.124005,61.496 53.7519987,61.3280017 54.016,60.992 C54.2800013,60.6559983 54.412,59.888006 54.412,58.688 L54.412,50.888 C54.412,49.687994 54.2800013,48.9240016 54.016,48.596 C53.7519987,48.2679984 53.124005,48.104 52.132,48.104 L52.132,47.6 L58.612,47.6 L58.612,48.104 C57.619995,48.104 56.9920013,48.2679984 56.728,48.596 C56.4639987,48.9240016 56.332,49.687994 56.332,50.888 L56.332,53.912 L64.492,53.912 L64.492,50.888 C64.492,49.687994 64.3560014,48.9240016 64.084,48.596 C63.8119986,48.2679984 63.180005,48.104 62.188,48.104 L62.188,47.6 L68.692,47.6 L68.692,48.104 C67.683995,48.104 67.0480013,48.2679984 66.784,48.596 C66.5199987,48.9240016 66.388,49.687994 66.388,50.888 L66.388,58.688 C66.388,59.9040061 66.5199987,60.6759984 66.784,61.004 C67.0480013,61.3320016 67.683995,61.496 68.692,61.496 L68.692,62 L62.188,62 L62.188,61.496 C63.180005,61.496 63.8119986,61.3280017 64.084,60.992 C64.3560014,60.6559983 64.492,59.888006 64.492,58.688 L64.492,54.8 L56.332,54.8 Z" id="H-Copy" fill="#1A80AA"></path>
            </g>
            <g id="Valence-Shell" transform="translate(126.000000, 0.000000)">
                <ellipse id="Oval-Copy-8" stroke="#524740" stroke-width="3" transform="translate(163.135072, 154.442892) rotate(30.000000) translate(-163.135072, -154.442892) " cx="163.135072" cy="154.442892" rx="128.5" ry="103"></ellipse>
                <circle id="Oval-Copy-9" fill="#EF7D3B" cx="128" cy="44" r="12"></circle>
                <circle id="Oval-Copy-10" fill="#EF7D3B" cx="38" cy="109" r="12"></circle>
                <circle id="Oval-Copy-11" fill="#EF7D3B" cx="218" cy="66" r="12"></circle>
                <circle id="Oval-Copy-12" fill="#EF7D3B" cx="123" cy="251" r="12"></circle>
                <circle id="Oval-Copy-15" fill="#EF7D3B" cx="43" cy="149" r="12"></circle>
                <circle id="Oval-Copy-16" fill="#EF7D3B" cx="160" cy="259" r="12"></circle>
                <circle id="Oval-Copy-13" fill="#EF7D3B" cx="261" cy="237" r="12"></circle>
                <circle id="Oval-Copy-14" fill="#EF7D3B" cx="276" cy="127" r="12"></circle>
            </g>
        </g>
        <path d="M598.776,378.808 L601.224,378.808 L592.872,403 L590.424,403 L583.296,382.048 L576.132,403 L573.72,403 L565.332,378.808 L567.78,378.808 L574.944,399.328 L582.18,378.808 L584.376,378.808 L591.648,399.328 L598.776,378.808 Z M614.544001,385 L616.920001,385 L616.920001,403 L614.544001,403 L614.544001,400.084 C612.695991,402.220011 610.356015,403.288 607.524001,403.288 C604.955988,403.288 602.76601,402.382009 600.954001,400.57 C599.141992,398.757991 598.236001,396.568013 598.236001,394 C598.236001,391.431987 599.141992,389.242009 600.954001,387.43 C602.76601,385.617991 604.955988,384.712 607.524001,384.712 C610.380015,384.712 612.719992,385.779989 614.544001,387.916 L614.544001,385 Z M607.560001,401.02 C609.50401,401.02 611.141994,400.342007 612.474001,398.986 C613.806007,397.629993 614.472001,395.96801 614.472001,394 C614.472001,392.03199 613.806007,390.370007 612.474001,389.014 C611.141994,387.657993 609.50401,386.98 607.560001,386.98 C605.639991,386.98 604.002007,387.657993 602.646001,389.014 C601.289994,390.370007 600.612001,392.03199 600.612001,394 C600.612001,395.96801 601.289994,397.629993 602.646001,398.986 C604.002007,400.342007 605.639991,401.02 607.560001,401.02 Z M629.484001,398.968 L630.672001,400.804 C630.528001,400.996001 630.336002,401.223999 630.096001,401.488 C629.856,401.752001 629.316005,402.117998 628.476001,402.586 C627.635997,403.054002 626.772006,403.288 625.884001,403.288 C624.371994,403.288 623.106006,402.838005 622.086001,401.938 C621.065996,401.037995 620.556001,399.736009 620.556001,398.032 L620.556001,387.16 L617.676001,387.16 L617.676001,384.964 L620.556001,384.964 L620.556001,379.276 L622.932001,378.988 L622.932001,384.964 L628.368001,384.964 L628.368001,387.16 L622.932001,387.16 L622.932001,397.492 C622.932001,398.596006 623.273998,399.471997 623.958001,400.12 C624.642005,400.768003 625.427997,401.092 626.316001,401.092 C626.868004,401.092 627.407999,400.924002 627.936001,400.588 C628.464004,400.251998 628.854,399.922002 629.106001,399.598 C629.358003,399.273998 629.484001,399.064 629.484001,398.968 Z M638.988002,400.912 C640.59601,400.912 642.035996,400.456005 643.308002,399.544 C644.580008,398.631995 645.444,397.564006 645.900002,396.34 L647.916002,397.06 C647.363999,398.572008 646.29001,399.963994 644.694002,401.236 C643.097994,402.508006 641.196013,403.132 638.988002,403.108 C636.971992,403.108 635.13001,402.484006 633.462002,401.236 C631.793994,399.987994 630.660005,398.39201 630.060002,396.448 C629.820001,395.655996 629.700002,394.792005 629.700002,393.856 C629.700002,391.263987 630.599993,389.068009 632.400002,387.268 C634.200011,385.467991 636.395989,384.556 638.988002,384.532 C641.340014,384.556 643.391993,385.347992 645.144002,386.908 C646.896011,388.468008 647.904001,390.399988 648.168002,392.704 C648.192002,392.824001 648.204002,392.979999 648.204002,393.172 L632.472002,396.016 C632.880004,397.456007 633.695996,398.637995 634.920002,399.562 C636.144008,400.486005 637.499994,400.936 638.988002,400.912 Z M638.772002,386.728 C636.971993,386.752 635.430008,387.399994 634.146002,388.672 C632.861995,389.944006 632.172002,391.467991 632.076002,393.244 C632.076002,393.316 632.082002,393.441999 632.094002,393.622 C632.106002,393.802001 632.112002,393.951999 632.112002,394.072 L645.504002,391.66 C645.048,390.195993 644.196008,389.002005 642.948002,388.078 C641.699996,387.153995 640.30801,386.704 638.772002,386.728 Z M657.564003,384.712 C658.836009,384.712 659.999997,385.023997 661.056003,385.648 L660.228003,388.024 C659.219997,387.279996 658.200008,386.908 657.168003,386.908 C655.655995,386.908 654.384008,387.441995 653.352003,388.51 C652.319997,389.578005 651.804003,390.891992 651.804003,392.452 L651.804003,403 L649.428003,403 L649.428003,385 L651.804003,385 L651.804003,387.664 C653.26801,385.69599 655.187991,384.712 657.564003,384.712 Z M696.516004,403 L694.140004,403 L689.496004,383.236 L683.232004,403 L681.648004,403 L675.420004,383.236 L670.776004,403 L668.400004,403 L673.980004,378.808 L676.140004,378.808 L682.476004,398.176 L688.740004,378.808 L690.936004,378.808 L696.516004,403 Z M712.032004,400.552 C710.231995,402.376009 708.048017,403.288 705.480004,403.288 C702.911992,403.288 700.722013,402.382009 698.910004,400.57 C697.097995,398.757991 696.192004,396.568013 696.192004,394 C696.192004,391.431987 697.097995,389.242009 698.910004,387.43 C700.722013,385.617991 702.911992,384.712 705.480004,384.712 C708.048017,384.712 710.237995,385.617991 712.050004,387.43 C713.862013,389.242009 714.768004,391.431987 714.768004,394 C714.768004,396.544013 713.856014,398.727991 712.032004,400.552 Z M705.516004,401.02 C707.460014,401.02 709.097998,400.342007 710.430004,398.986 C711.762011,397.629993 712.428004,395.96801 712.428004,394 C712.428004,392.03199 711.762011,390.364007 710.430004,388.996 C709.097998,387.627993 707.460014,386.944 705.516004,386.944 C703.595995,386.944 701.964011,387.627993 700.620004,388.996 C699.275998,390.364007 698.604004,392.03199 698.604004,394 C698.604004,395.96801 699.275998,397.629993 700.620004,398.986 C701.964011,400.342007 703.595995,401.02 705.516004,401.02 Z M716.532005,403 L716.532005,376.216 L718.908005,376.216 L718.908005,403 L716.532005,403 Z M729.888006,400.912 C731.496014,400.912 732.935999,400.456005 734.208006,399.544 C735.480012,398.631995 736.344003,397.564006 736.800006,396.34 L738.816006,397.06 C738.264003,398.572008 737.190014,399.963994 735.594006,401.236 C733.997998,402.508006 732.096017,403.132 729.888006,403.108 C727.871996,403.108 726.030014,402.484006 724.362006,401.236 C722.693997,399.987994 721.560009,398.39201 720.960006,396.448 C720.720004,395.655996 720.600006,394.792005 720.600006,393.856 C720.600006,391.263987 721.499997,389.068009 723.300006,387.268 C725.100015,385.467991 727.295993,384.556 729.888006,384.532 C732.240017,384.556 734.291997,385.347992 736.044006,386.908 C737.796014,388.468008 738.804004,390.399988 739.068006,392.704 C739.092006,392.824001 739.104006,392.979999 739.104006,393.172 L723.372006,396.016 C723.780008,397.456007 724.596,398.637995 725.820006,399.562 C727.044012,400.486005 728.399998,400.936 729.888006,400.912 Z M729.672006,386.728 C727.871997,386.752 726.330012,387.399994 725.046006,388.672 C723.761999,389.944006 723.072006,391.467991 722.976006,393.244 C722.976006,393.316 722.982006,393.441999 722.994006,393.622 C723.006006,393.802001 723.012006,393.951999 723.012006,394.072 L736.404006,391.66 C735.948003,390.195993 735.096012,389.002005 733.848006,388.078 C732.599999,387.153995 731.208013,386.704 729.672006,386.728 Z M749.220006,403.288 C746.651993,403.288 744.462015,402.382009 742.650006,400.57 C740.837997,398.757991 739.932006,396.568013 739.932006,394 C739.932006,391.431987 740.837997,389.242009 742.650006,387.43 C744.462015,385.617991 746.651993,384.712 749.220006,384.712 C750.852014,384.712 752.369999,385.113996 753.774006,385.918 C755.178013,386.722004 756.288002,387.795993 757.104006,389.14 L754.944006,390.184 C754.296003,389.199995 753.468011,388.420003 752.460006,387.844 C751.452001,387.267997 750.372012,386.98 749.220006,386.98 C747.275997,386.98 745.638013,387.657993 744.306006,389.014 C742.974,390.370007 742.308006,392.03199 742.308006,394 C742.308006,395.96801 742.974,397.629993 744.306006,398.986 C745.638013,400.342007 747.275997,401.02 749.220006,401.02 C750.372012,401.02 751.452001,400.732003 752.460006,400.156 C753.468011,399.579997 754.296003,398.800005 754.944006,397.816 L757.104006,398.86 C756.288002,400.204007 755.178013,401.277996 753.774006,402.082 C752.369999,402.886004 750.852014,403.288 749.220006,403.288 Z M772.008007,385 L774.384007,385 L774.384007,403 L772.008007,403 L772.008007,400.336 C770.544,402.30401 768.624019,403.288 766.248007,403.288 C764.159996,403.288 762.408014,402.550007 760.992007,401.074 C759.576,399.597993 758.868007,397.780011 758.868007,395.62 L758.868007,385 L761.316007,385 L761.316007,395.548 C761.316007,397.084008 761.832002,398.385995 762.864007,399.454 C763.896012,400.522005 765.155999,401.056 766.644007,401.056 C768.156014,401.056 769.428002,400.522005 770.460007,399.454 C771.492012,398.385995 772.008007,397.084008 772.008007,395.548 L772.008007,385 Z M777.480008,403 L777.480008,376.216 L779.856008,376.216 L779.856008,403 L777.480008,403 Z M790.836008,400.912 C792.444016,400.912 793.884002,400.456005 795.156008,399.544 C796.428015,398.631995 797.292006,397.564006 797.748008,396.34 L799.764008,397.06 C799.212005,398.572008 798.138016,399.963994 796.542008,401.236 C794.946,402.508006 793.044019,403.132 790.836008,403.108 C788.819998,403.108 786.978017,402.484006 785.310008,401.236 C783.642,399.987994 782.508011,398.39201 781.908008,396.448 C781.668007,395.655996 781.548008,394.792005 781.548008,393.856 C781.548008,391.263987 782.447999,389.068009 784.248008,387.268 C786.048017,385.467991 788.243995,384.556 790.836008,384.532 C793.18802,384.556 795.239999,385.347992 796.992008,386.908 C798.744017,388.468008 799.752007,390.399988 800.016008,392.704 C800.040008,392.824001 800.052008,392.979999 800.052008,393.172 L784.320008,396.016 C784.72801,397.456007 785.544002,398.637995 786.768008,399.562 C787.992014,400.486005 789.348001,400.936 790.836008,400.912 Z M790.620008,386.728 C788.819999,386.752 787.278015,387.399994 785.994008,388.672 C784.710002,389.944006 784.020009,391.467991 783.924008,393.244 C783.924008,393.316 783.930008,393.441999 783.942008,393.622 C783.954008,393.802001 783.960008,393.951999 783.960008,394.072 L797.352008,391.66 C796.896006,390.195993 796.044014,389.002005 794.796008,388.078 C793.548002,387.153995 792.156016,386.704 790.620008,386.728 Z M817.476009,407.752 C817.356009,407.68 817.19401,407.578001 816.990009,407.446 C816.786008,407.313999 816.384012,407.002002 815.784009,406.51 C815.184006,406.017998 814.614012,405.484003 814.074009,404.908 C813.534007,404.331997 812.940013,403.564005 812.292009,402.604 C811.644006,401.643995 811.080012,400.624005 810.600009,399.544 C810.120007,398.463995 809.718011,397.168008 809.394009,395.656 C809.070008,394.143992 808.908009,392.572008 808.908009,390.94 C808.908009,388.707989 809.202007,386.60201 809.790009,384.622 C810.378012,382.64199 811.092005,381.034006 811.932009,379.798 C812.772014,378.561994 813.612005,377.494004 814.452009,376.594 C815.292014,375.693995 816.000007,375.052002 816.576009,374.668 L817.476009,374.092 L818.736009,375.388 C818.520008,375.532001 818.238011,375.735999 817.890009,376 C817.542008,376.264001 816.924014,376.869995 816.036009,377.818 C815.148005,378.766005 814.362013,379.791994 813.678009,380.896 C812.994006,382.000006 812.376012,383.457991 811.824009,385.27 C811.272007,387.082009 810.996009,388.97199 810.996009,390.94 C810.996009,392.90801 811.260007,394.785991 811.788009,396.574 C812.316012,398.362009 812.964006,399.825994 813.732009,400.966 C814.500013,402.106006 815.268006,403.101996 816.036009,403.954 C816.804013,404.806004 817.452007,405.423998 817.980009,405.808 L818.772009,406.348 L817.476009,407.752 Z M832.20001,378.808 L834.57601,378.808 L834.57601,403 L832.20001,403 L832.20001,392.344 L820.28401,392.344 L820.28401,403 L817.90801,403 L817.90801,378.808 L820.28401,378.808 L820.28401,389.968 L832.20001,389.968 L832.20001,378.808 Z M837.960011,420 L837.744011,417.984 C837.816011,417.912 838.506004,417.306006 839.814011,416.166 C841.122017,415.025994 842.280006,413.970005 843.288011,412.998 C844.296016,412.025995 845.436004,410.862007 846.708011,409.506 C847.980017,408.149993 848.976007,406.860006 849.696011,405.636 C850.416014,404.411994 850.776011,403.356004 850.776011,402.468 C850.776011,401.171994 850.278016,400.074005 849.282011,399.174 C848.286006,398.273995 847.044018,397.824 845.556011,397.824 C843.059998,397.824 841.020019,399.311985 839.436011,402.288 L837.816011,400.668 C838.032012,400.259998 838.314009,399.828002 838.662011,399.372 C839.010012,398.915998 839.508007,398.370003 840.156011,397.734 C840.804014,397.097997 841.626006,396.576002 842.622011,396.168 C843.618016,395.759998 844.680005,395.556 845.808011,395.556 C847.968022,395.556 849.744004,396.233993 851.136011,397.59 C852.528018,398.946007 853.224011,400.523991 853.224011,402.324 C853.224011,403.404005 852.906014,404.579994 852.270011,405.852 C851.634008,407.124006 850.752016,408.395994 849.624011,409.668 C848.496005,410.940006 847.482015,412.019996 846.582011,412.908 C845.682006,413.796004 844.614017,414.773995 843.378011,415.842 C842.142005,416.910005 841.464011,417.503999 841.344011,417.624 L853.908011,417.624 L853.908011,420 L837.960011,420 Z M867.264011,402.352 C866.112006,402.976003 864.768019,403.288 863.232011,403.288 C861.696004,403.288 860.346017,402.970003 859.182011,402.334 C858.018006,401.697997 857.082015,400.810006 856.374011,399.67 C855.666008,398.529994 855.138013,397.228007 854.790011,395.764 C854.44201,394.299993 854.268011,392.692009 854.268011,390.94 C854.268011,387.291982 855.012004,384.316012 856.500011,382.012 C857.988019,379.707988 860.231996,378.556 863.232011,378.556 C866.232026,378.556 868.476004,379.707988 869.964011,382.012 C871.452019,384.316012 872.196011,387.291982 872.196011,390.94 C872.196011,392.692009 872.022013,394.299993 871.674011,395.764 C871.32601,397.228007 870.798015,398.529994 870.090011,399.67 C869.382008,400.810006 868.440017,401.703997 867.264011,402.352 Z M858.264011,398.284 C859.368017,400.132009 861.024,401.056 863.232011,401.056 C865.440022,401.056 867.090006,400.126009 868.182011,398.266 C869.274017,396.405991 869.820011,393.964015 869.820011,390.94 C869.820011,387.915985 869.274017,385.474009 868.182011,383.614 C867.090006,381.753991 865.440022,380.824 863.232011,380.824 C861.024,380.824 859.374017,381.753991 858.282011,383.614 C857.190006,385.474009 856.644011,387.915985 856.644011,390.94 C856.644011,393.964015 857.184006,396.411991 858.264011,398.284 Z M871.584012,407.752 L870.288012,406.348 C870.504013,406.227999 870.78601,406.036001 871.134012,405.772 C871.482014,405.507999 872.100008,404.908005 872.988012,403.972 C873.876016,403.035995 874.662009,402.022005 875.346012,400.93 C876.030015,399.837995 876.654009,398.392009 877.218012,396.592 C877.782015,394.791991 878.064012,392.90801 878.064012,390.94 C878.064012,388.97199 877.800015,387.094009 877.272012,385.306 C876.744009,383.517991 876.102016,382.048006 875.346012,380.896 C874.590008,379.743994 873.828016,378.730004 873.060012,377.854 C872.292008,376.977996 871.644015,376.348002 871.116012,375.964 L870.324012,375.388 L871.584012,374.092 C871.704013,374.164 871.866011,374.265999 872.070012,374.398 C872.274013,374.530001 872.676009,374.841998 873.276012,375.334 C873.876015,375.826002 874.446009,376.359997 874.986012,376.936 C875.526015,377.512003 876.120009,378.291995 876.768012,379.276 C877.416015,380.260005 877.98001,381.285995 878.460012,382.354 C878.940014,383.422005 879.34201,384.711992 879.666012,386.224 C879.990014,387.736008 880.152012,389.307992 880.152012,390.94 C880.152012,392.572008 879.996014,394.137992 879.684012,395.638 C879.37201,397.138007 878.964014,398.433995 878.460012,399.526 C877.956009,400.618005 877.398015,401.637995 876.786012,402.586 C876.174009,403.534005 875.562015,404.313997 874.950012,404.926 C874.338009,405.538003 873.780014,406.065998 873.276012,406.51 C872.772009,406.954002 872.364014,407.271999 872.052012,407.464 L871.584012,407.752 Z" id="Water-Molecule-(H20)-Copy" fill="#23ABE3"></path>
    </g>
</svg>