<?xml version="1.0" encoding="UTF-8"?>
<svg width="900px" height="430px" viewBox="0 0 900 430" version="1.1" xmlns="http://www.w3.org/2000/svg" xmlns:xlink="http://www.w3.org/1999/xlink">
    <!-- Generator: Sketch 52.5 (67469) - http://www.bohemiancoding.com/sketch -->
    <title>Water_Molecule</title>
    <desc>Created with Sketch.</desc>
    <g id="Water_Molecule" stroke="none" stroke-width="1" fill="none" fill-rule="evenodd">
        <rect id="Rectangle" fill="#EEEEEE" x="0" y="0" width="900" height="430"></rect>
        <g id="Illustration" transform="translate(133.000000, 48.000000)">
            <g id="Inner-shells" transform="translate(146.000000, 74.000000)">
                <ellipse id="Oval" stroke="#524740" stroke-width="3" transform="translate(98.699413, 81.692441) rotate(-13.000000) translate(-98.699413, -81.692441) " cx="98.6994127" cy="81.6924408" rx="86" ry="63"></ellipse>
                <circle id="Oval-Copy-6" fill="#EF7D3B" cx="56" cy="28" r="12"></circle>
                <circle id="Oval-Copy-7" fill="#EF7D3B" cx="141" cy="130" r="12"></circle>
            </g>
            <g id="Labels" transform="translate(278.000000, 57.000000)">
                <g id="Nucleus">
                    <polyline id="Path" stroke="#B09679" stroke-width="3" points="0.31212875 75.4125764 56.3924368 13.5663788 125.794059 13.5663788"></polyline>
                    <path d="M152.89,17.28 L152.89,7.11 C152.89,5.6099925 152.725002,4.65500205 152.395,4.245 C152.064998,3.83499795 151.280006,3.63 150.04,3.63 L150.04,3 L156.88,3 L156.88,3.63 C155.639994,3.63 154.850002,3.83499795 154.51,4.245 C154.169998,4.65500205 154,5.6099925 154,7.11 L154,21.51 L153.31,21.51 L141.1,6.42 L141.1,16.86 C141.1,18.3600075 141.269998,19.3199979 141.61,19.74 C141.950002,20.1600021 142.739994,20.37 143.98,20.37 L143.98,21 L137.14,21 L137.14,20.37 C138.380006,20.37 139.164998,20.1600021 139.495,19.74 C139.825002,19.3199979 139.99,18.3600075 139.99,16.86 L139.99,7.11 C139.99,5.6099925 139.825002,4.65500205 139.495,4.245 C139.164998,3.83499795 138.380006,3.63 137.14,3.63 L137.14,3 L141.37,3 L152.89,17.28 Z M171.040001,20.76 L167.020001,21.51 C166.86,21.1899984 166.700002,20.5500048 166.540001,19.59 C165.299995,20.8700064 163.990008,21.51 162.610001,21.51 C160.129988,21.51 158.890001,20.010015 158.890001,17.01 L158.890001,15.12 C158.890001,13.6199925 158.745002,12.6600021 158.455001,12.24 C158.164999,11.8199979 157.520006,11.61 156.520001,11.61 L156.520001,11.01 L161.020001,11.01 L161.020001,16.86 C161.020001,19.0000107 161.779993,20.07 163.300001,20.07 C163.980004,20.07 164.689997,19.7850028 165.430001,19.215 C166.170004,18.6449972 166.540001,17.9400042 166.540001,17.1 L166.540001,15.12 C166.540001,13.6199925 166.395002,12.6600021 166.105001,12.24 C165.814999,11.8199979 165.160006,11.61 164.140001,11.61 L164.140001,11.01 L168.640001,11.01 L168.640001,16.62 C168.640001,18.1200075 168.784999,19.0799979 169.075001,19.5 C169.365002,19.9200021 170.019996,20.13 171.040001,20.13 L171.040001,20.76 Z M176.560002,11.46 C175.759998,11.46 175.080004,11.9199954 174.520002,12.84 C173.959999,13.7600046 173.680002,14.8999932 173.680002,16.26 C173.680002,17.5000062 173.984998,18.4749964 174.595002,19.185 C175.205005,19.8950035 176.109996,20.25 177.310002,20.25 C178.470007,20.25 179.539997,19.7900046 180.520002,18.87 L181.030002,19.53 C179.809995,20.8500066 178.32001,21.51 176.560002,21.51 C174.919993,21.51 173.625006,21.0200049 172.675002,20.04 C171.724997,19.0599951 171.250002,17.8000077 171.250002,16.26 C171.250002,14.5999917 171.809996,13.2250054 172.930002,12.135 C174.050007,11.0449945 175.259995,10.5 176.560002,10.5 C177.740007,10.5 178.629999,10.7099979 179.230002,11.13 C179.830005,11.5500021 180.130002,12.059997 180.130002,12.66 C180.130002,12.9800016 180.025003,13.2749987 179.815002,13.545 C179.605,13.8150013 179.270004,13.95 178.810002,13.95 C178.49,13.95 178.215003,13.8350012 177.985002,13.605 C177.755,13.3749989 177.640002,13.0900017 177.640002,12.75 C177.640002,11.8899957 177.280005,11.46 176.560002,11.46 Z M187.240002,21 L180.370002,21 L180.370002,20.37 C181.370007,20.37 182.015001,20.1600021 182.305002,19.74 C182.595004,19.3199979 182.740002,18.3600075 182.740002,16.86 L182.740002,7.38 C182.740002,5.8799925 182.595004,4.9200021 182.305002,4.5 C182.015001,4.0799979 181.370007,3.87 180.370002,3.87 L180.370002,3.24 L184.870002,2.49 L184.870002,16.86 C184.870002,18.3600075 185.015001,19.3199979 185.305002,19.74 C185.595004,20.1600021 186.239997,20.37 187.240002,20.37 L187.240002,21 Z M190.060003,14.13 L195.040003,14.13 C195.240004,13.5699972 195.155005,13.0250027 194.785003,12.495 C194.415001,11.9649974 193.780008,11.7 192.880003,11.7 C192.24,11.7 191.665006,11.9199978 191.155003,12.36 C190.645001,12.8000022 190.280004,13.3899963 190.060003,14.13 Z M189.880003,15.24 C189.700002,16.7200074 189.935,17.9249953 190.585003,18.855 C191.235006,19.7850047 192.299996,20.25 193.780003,20.25 C194.280006,20.25 194.85,20.1200013 195.490003,19.86 C196.130006,19.5999987 196.660001,19.270002 197.080003,18.87 L197.620003,19.53 C197.08,20.1100029 196.390007,20.5849982 195.550003,20.955 C194.709999,21.3250018 193.870007,21.51 193.030003,21.51 C191.409995,21.51 190.080008,20.9750053 189.040003,19.905 C187.999998,18.8349946 187.480003,17.5300077 187.480003,15.99 C187.480003,14.4499923 188.044997,13.1500053 189.175003,12.09 C190.305009,11.0299947 191.589996,10.5 193.030003,10.5 C194.39001,10.5 195.499999,10.9749952 196.360003,11.925 C197.220007,12.8750048 197.470005,13.9799937 197.110003,15.24 L189.880003,15.24 Z M211.990004,20.76 L207.970004,21.51 C207.810003,21.1899984 207.650005,20.5500048 207.490004,19.59 C206.249998,20.8700064 204.940011,21.51 203.560004,21.51 C201.079991,21.51 199.840004,20.010015 199.840004,17.01 L199.840004,15.12 C199.840004,13.6199925 199.695005,12.6600021 199.405004,12.24 C199.115002,11.8199979 198.470009,11.61 197.470004,11.61 L197.470004,11.01 L201.970004,11.01 L201.970004,16.86 C201.970004,19.0000107 202.729996,20.07 204.250004,20.07 C204.930007,20.07 205.64,19.7850028 206.380004,19.215 C207.120008,18.6449972 207.490004,17.9400042 207.490004,17.1 L207.490004,15.12 C207.490004,13.6199925 207.345005,12.6600021 207.055004,12.24 C206.765002,11.8199979 206.110009,11.61 205.090004,11.61 L205.090004,11.01 L209.590004,11.01 L209.590004,16.62 C209.590004,18.1200075 209.735002,19.0799979 210.025004,19.5 C210.315005,19.9200021 210.969999,20.13 211.990004,20.13 L211.990004,20.76 Z M219.610005,18.24 C219.610005,19.2000048 219.265008,19.9849969 218.575005,20.595 C217.885001,21.2050031 217.04001,21.51 216.040005,21.51 C215.680003,21.51 215.310006,21.4400007 214.930005,21.3 C214.550003,21.1599993 214.245006,21.0250006 214.015005,20.895 C213.785003,20.7649994 213.570006,20.6650003 213.370005,20.595 C213.170004,20.5249996 213.030005,20.5599993 212.950005,20.7 C212.870004,20.8400007 212.830005,21.109998 212.830005,21.51 L212.200005,21.51 L212.200005,17.13 L212.830005,17.13 C212.830005,17.9100039 213.130002,18.6649964 213.730005,19.395 C214.330008,20.1250037 215.12,20.49 216.100005,20.49 C216.580007,20.49 216.985003,20.3400015 217.315005,20.04 C217.645006,19.7399985 217.810005,19.3800021 217.810005,18.96 C217.810005,18.3399969 217.25001,17.730003 216.130005,17.13 L214.450005,16.23 C213.129998,15.5099964 212.470005,14.5100064 212.470005,13.23 C212.470005,12.4499961 212.775002,11.8000026 213.385005,11.28 C213.995008,10.7599974 214.700001,10.5 215.500005,10.5 C216.180008,10.5 216.880001,10.6799982 217.600005,11.04 C217.840006,11.1800007 218.005004,11.2250003 218.095005,11.175 C218.185005,11.1249998 218.230005,10.900002 218.230005,10.5 L218.860005,10.5 L218.860005,13.98 L218.230005,13.98 C218.230005,13.3199967 218.005007,12.7350026 217.555005,12.225 C217.105002,11.7149975 216.520008,11.46 215.800005,11.46 C215.300002,11.46 214.920006,11.5799988 214.660005,11.82 C214.400003,12.0600012 214.270005,12.3699981 214.270005,12.75 C214.270005,13.0900017 214.400003,13.3849988 214.660005,13.635 C214.920006,13.8850013 215.400001,14.1999981 216.100005,14.58 L217.540005,15.36 C218.920011,16.1400039 219.610005,17.0999943 219.610005,18.24 Z" id="Nucleus-Copy" fill="#524740"></path>
                </g>
                <g id="Electron" transform="translate(20.000000, 93.000000)">
                    <path d="M144.14,21 L144.14,20.37 C145.380006,20.37 146.164998,20.1600021 146.495,19.74 C146.825002,19.3199979 146.99,18.3600075 146.99,16.86 L146.99,7.11 C146.99,5.6099925 146.825002,4.65500205 146.495,4.245 C146.164998,3.83499795 145.380006,3.63 144.14,3.63 L144.14,3 L157.82,3 L158.09,6.96 L157.46,6.96 L157.31,6.36 C157.069999,5.4799956 156.750002,4.88500155 156.35,4.575 C155.949998,4.26499845 155.110006,4.11 153.83,4.11 L149.39,4.11 L149.39,10.92 L150.89,10.92 C152.390007,10.92 153.344998,10.7550017 153.755,10.425 C154.165002,10.0949984 154.37,9.3000063 154.37,8.04 L155,8.04 L155,14.91 L154.37,14.91 C154.37,13.6499937 154.165002,12.8550016 153.755,12.525 C153.344998,12.1949983 152.390007,12.03 150.89,12.03 L149.39,12.03 L149.39,16.41 C149.39,17.9100075 149.554998,18.8649979 149.885,19.275 C150.215002,19.6850021 150.999994,19.89 152.24,19.89 L154.82,19.89 C155.720004,19.89 156.404998,19.8000009 156.875,19.62 C157.345002,19.4399991 157.664999,19.2100014 157.835,18.93 C158.005001,18.6499986 158.159999,18.210003 158.3,17.61 L158.45,17.01 L159.08,17.01 L158.84,21 L144.14,21 Z M166.130001,21 L159.260001,21 L159.260001,20.37 C160.260006,20.37 160.904999,20.1600021 161.195001,19.74 C161.485002,19.3199979 161.630001,18.3600075 161.630001,16.86 L161.630001,7.38 C161.630001,5.8799925 161.485002,4.9200021 161.195001,4.5 C160.904999,4.0799979 160.260006,3.87 159.260001,3.87 L159.260001,3.24 L163.760001,2.49 L163.760001,16.86 C163.760001,18.3600075 163.904999,19.3199979 164.195001,19.74 C164.485002,20.1600021 165.129996,20.37 166.130001,20.37 L166.130001,21 Z M168.950002,14.13 L173.930002,14.13 C174.130003,13.5699972 174.045003,13.0250027 173.675002,12.495 C173.305,11.9649974 172.670006,11.7 171.770002,11.7 C171.129998,11.7 170.555004,11.9199978 170.045002,12.36 C169.534999,12.8000022 169.170003,13.3899963 168.950002,14.13 Z M168.770002,15.24 C168.590001,16.7200074 168.824998,17.9249953 169.475002,18.855 C170.125005,19.7850047 171.189994,20.25 172.670002,20.25 C173.170004,20.25 173.739998,20.1200013 174.380002,19.86 C175.020005,19.5999987 175.549999,19.270002 175.970002,18.87 L176.510002,19.53 C175.969999,20.1100029 175.280006,20.5849982 174.440002,20.955 C173.599997,21.3250018 172.760006,21.51 171.920002,21.51 C170.299993,21.51 168.970007,20.9750053 167.930002,19.905 C166.889996,18.8349946 166.370002,17.5300077 166.370002,15.99 C166.370002,14.4499923 166.934996,13.1500053 168.065002,12.09 C169.195007,11.0299947 170.479994,10.5 171.920002,10.5 C173.280008,10.5 174.389997,10.9749952 175.250002,11.925 C176.110006,12.8750048 176.360003,13.9799937 176.000002,15.24 L168.770002,15.24 Z M182.540002,11.46 C181.739998,11.46 181.060005,11.9199954 180.500002,12.84 C179.939999,13.7600046 179.660002,14.8999932 179.660002,16.26 C179.660002,17.5000062 179.964999,18.4749964 180.575002,19.185 C181.185005,19.8950035 182.089996,20.25 183.290002,20.25 C184.450008,20.25 185.519997,19.7900046 186.500002,18.87 L187.010002,19.53 C185.789996,20.8500066 184.300011,21.51 182.540002,21.51 C180.899994,21.51 179.605007,21.0200049 178.655002,20.04 C177.704998,19.0599951 177.230002,17.8000077 177.230002,16.26 C177.230002,14.5999917 177.789997,13.2250054 178.910002,12.135 C180.030008,11.0449945 181.239996,10.5 182.540002,10.5 C183.720008,10.5 184.609999,10.7099979 185.210002,11.13 C185.810005,11.5500021 186.110002,12.059997 186.110002,12.66 C186.110002,12.9800016 186.005003,13.2749987 185.795002,13.545 C185.585001,13.8150013 185.250005,13.95 184.790002,13.95 C184.470001,13.95 184.195003,13.8350012 183.965002,13.605 C183.735001,13.3749989 183.620002,13.0900017 183.620002,12.75 C183.620002,11.8899957 183.260006,11.46 182.540002,11.46 Z M188.180003,12.06 L186.620003,12.06 L186.620003,11.34 C187.480007,11.1599991 188.110001,10.770003 188.510003,10.17 C188.910005,9.569997 189.170002,8.7500052 189.290003,7.71 L190.310003,7.71 L190.310003,11.01 L192.920003,11.01 L192.920003,12.06 L190.310003,12.06 L190.310003,18.06 C190.310003,19.5000072 190.759999,20.22 191.660003,20.22 C192.240006,20.22 192.889999,19.8800034 193.610003,19.2 L194.120003,19.71 C193.700001,20.2100025 193.195006,20.6199984 192.605003,20.94 C192.015,21.2600016 191.470006,21.42 190.970003,21.42 C190.109999,21.42 189.430006,21.1400028 188.930003,20.58 C188.430001,20.0199972 188.180003,19.1800056 188.180003,18.06 L188.180003,12.06 Z M203.990004,12.36 C203.990004,13.3000047 203.590008,13.77 202.790004,13.77 C202.510002,13.77 202.265005,13.6600011 202.055004,13.44 C201.845003,13.2199989 201.740004,12.9700014 201.740004,12.69 C201.740004,12.0299967 201.420007,11.7 200.780004,11.7 C200.320002,11.7 199.820007,12.0199968 199.280004,12.66 C198.740001,13.3000032 198.470004,14.1499947 198.470004,15.21 L198.470004,16.86 C198.470004,18.3600075 198.615002,19.3199979 198.905004,19.74 C199.195005,20.1600021 199.839999,20.37 200.840004,20.37 L200.840004,21 L193.970004,21 L193.970004,20.37 C194.970009,20.37 195.615002,20.1600021 195.905004,19.74 C196.195005,19.3199979 196.340004,18.3600075 196.340004,16.86 L196.340004,15.36 C196.340004,13.8799926 196.195005,12.9300021 195.905004,12.51 C195.615002,12.0899979 194.970009,11.88 193.970004,11.88 L193.970004,11.25 L197.960004,10.5 C198.140005,10.8800019 198.310003,11.5999947 198.470004,12.66 C198.770005,12.059997 199.220001,11.5500021 199.820004,11.13 C200.420007,10.7099979 201.020001,10.5 201.620004,10.5 C202.380008,10.5 202.965002,10.699998 203.375004,11.1 C203.785006,11.500002 203.990004,11.9199978 203.990004,12.36 Z M214.580005,12.12 C215.780011,13.1800053 216.380005,14.4699924 216.380005,15.99 C216.380005,17.5100076 215.785011,18.8099946 214.595005,19.89 C213.404999,20.9700054 211.980013,21.51 210.320005,21.51 C208.659996,21.51 207.235011,20.9700054 206.045005,19.89 C204.854999,18.8099946 204.260005,17.5100076 204.260005,15.99 C204.260005,14.4699924 204.854999,13.1750053 206.045005,12.105 C207.235011,11.0349947 208.659996,10.5 210.320005,10.5 C211.980013,10.5 213.399999,11.0399946 214.580005,12.12 Z M213.020005,19.14 C213.640008,18.3199959 213.950005,17.2700064 213.950005,15.99 C213.950005,14.7099936 213.640008,13.6650041 213.020005,12.855 C212.400001,12.044996 211.50001,11.64 210.320005,11.64 C209.139999,11.64 208.240008,12.0499959 207.620005,12.87 C207.000001,13.6900041 206.690005,14.7299937 206.690005,15.99 C206.690005,17.2500063 207.000001,18.2899959 207.620005,19.11 C208.240008,19.9300041 209.139999,20.34 210.320005,20.34 C211.50001,20.34 212.400001,19.940004 213.020005,19.14 Z M221.660005,12.66 C222.800011,11.2199928 224.189997,10.5 225.830005,10.5 C227.130012,10.5 228.105002,10.9099959 228.755005,11.73 C229.405009,12.5500041 229.730005,13.6299933 229.730005,14.97 L229.730005,16.86 C229.730005,18.3600075 229.875004,19.3199979 230.165005,19.74 C230.455007,20.1600021 231.1,20.37 232.100005,20.37 L232.100005,21 L225.230005,21 L225.230005,20.37 C226.21001,20.37 226.850004,20.1550022 227.150005,19.725 C227.450007,19.2949979 227.600005,18.3400074 227.600005,16.86 L227.600005,15.12 C227.600005,12.9799893 226.770014,11.91 225.110005,11.91 C224.250001,11.91 223.460009,12.209997 222.740005,12.81 C222.020002,13.410003 221.660005,14.109996 221.660005,14.91 L221.660005,16.86 C221.660005,18.4000077 221.780004,19.369998 222.020005,19.77 C222.260007,20.170002 222.840001,20.37 223.760005,20.37 L223.760005,21 L217.160005,21 L217.160005,20.37 C218.16001,20.37 218.805004,20.1600021 219.095005,19.74 C219.385007,19.3199979 219.530005,18.3600075 219.530005,16.86 L219.530005,15.36 C219.530005,13.8799926 219.385007,12.9300021 219.095005,12.51 C218.805004,12.0899979 218.16001,11.88 217.160005,11.88 L217.160005,11.25 L221.150005,10.5 C221.330006,10.8800019 221.500005,11.5999947 221.660005,12.66 Z" id="Electron-Copy" fill="#524740"></path>
                    <polyline id="Path-2" stroke="#B09679" stroke-width="3" points="0.277796982 52.941732 85.6797631 13.1992832 137.794264 13.1992832"></polyline>
                </g>
                <g id="Valence-Shell" transform="translate(84.000000, 146.000000)">
                    <polyline id="Path-3" stroke="#B09679" stroke-width="3" points="0.371064515 0.297860708 36.3832641 34.4572409 86.2511776 34.4572409"></polyline>
                    <path d="M111.62,24.63 C110.439994,24.63 109.675002,24.7749985 109.325,25.065 C108.974998,25.3550015 108.550003,26.0799942 108.05,27.24 L101.45,42.51 L101.06,42.51 L94.43,27.24 C93.9299975,26.0799942 93.5050018,25.3550015 93.155,25.065 C92.8049982,24.7749985 92.0400059,24.63 90.86,24.63 L90.86,24 L99.17,24 L99.17,24.63 C97.9299938,24.63 97.1350018,24.8049983 96.785,25.155 C96.4349983,25.5050017 96.4499981,26.0899959 96.83,26.91 L101.93,38.58 L106.97,26.91 C107.350002,26.0899959 107.365002,25.5050017 107.015,25.155 C106.664998,24.8049983 105.870006,24.63 104.63,24.63 L104.63,24 L111.62,24 L111.62,24.63 Z M118.070001,41.4 C117.489998,42.0200031 116.830004,42.33 116.090001,42.33 C114.889995,42.33 114.210002,41.7500058 114.050001,40.59 C112.709994,41.790006 111.460007,42.39 110.300001,42.39 C109.539997,42.39 108.900003,42.1650023 108.380001,41.715 C107.859998,41.2649977 107.600001,40.6500039 107.600001,39.87 C107.600001,37.7699895 109.729979,36.3500037 113.990001,35.61 C113.990001,34.4299941 113.860002,33.6100023 113.600001,33.15 C113.339999,32.6899977 112.800005,32.46 111.980001,32.46 C111.579999,32.46 111.195003,32.5899987 110.825001,32.85 C110.454999,33.1100013 110.270001,33.4599978 110.270001,33.9 C110.270001,34.2000015 110.170002,34.449999 109.970001,34.65 C109.77,34.850001 109.530002,34.95 109.250001,34.95 C108.949999,34.95 108.700002,34.850001 108.500001,34.65 C108.3,34.449999 108.200001,34.2000015 108.200001,33.9 C108.200001,33.1999965 108.584997,32.6250023 109.355001,32.175 C110.125005,31.7249977 111.009996,31.5 112.010001,31.5 C113.470008,31.5 114.519998,31.8199968 115.160001,32.46 C115.800004,33.1000032 116.120001,34.1399928 116.120001,35.58 L116.120001,40.11 C116.120001,40.8900039 116.349998,41.28 116.810001,41.28 C117.070002,41.28 117.349999,41.1300015 117.650001,40.83 L118.070001,41.4 Z M113.990001,39.6 L113.990001,36.54 C111.229987,37.1800032 109.850001,38.1699933 109.850001,39.51 C109.850001,39.9700023 109.984999,40.3399986 110.255001,40.62 C110.525002,40.9000014 110.859999,41.04 111.260001,41.04 C112.000004,41.04 112.909995,40.5600048 113.990001,39.6 Z M124.190002,42 L117.320002,42 L117.320002,41.37 C118.320007,41.37 118.965,41.1600021 119.255002,40.74 C119.545003,40.3199979 119.690002,39.3600075 119.690002,37.86 L119.690002,28.38 C119.690002,26.8799925 119.545003,25.9200021 119.255002,25.5 C118.965,25.0799979 118.320007,24.87 117.320002,24.87 L117.320002,24.24 L121.820002,23.49 L121.820002,37.86 C121.820002,39.3600075 121.965,40.3199979 122.255002,40.74 C122.545003,41.1600021 123.189997,41.37 124.190002,41.37 L124.190002,42 Z M127.010002,35.13 L131.990002,35.13 C132.190003,34.5699972 132.105004,34.0250027 131.735002,33.495 C131.365,32.9649974 130.730007,32.7 129.830002,32.7 C129.189999,32.7 128.615005,32.9199978 128.105002,33.36 C127.595,33.8000022 127.230003,34.3899963 127.010002,35.13 Z M126.830002,36.24 C126.650001,37.7200074 126.884999,38.9249954 127.535002,39.855 C128.185006,40.7850047 129.249995,41.25 130.730002,41.25 C131.230005,41.25 131.799999,41.1200013 132.440002,40.86 C133.080005,40.5999987 133.61,40.270002 134.030002,39.87 L134.570002,40.53 C134.03,41.1100029 133.340006,41.5849982 132.500002,41.955 C131.659998,42.3250018 130.820006,42.51 129.980002,42.51 C128.359994,42.51 127.030007,41.9750054 125.990002,40.905 C124.949997,39.8349946 124.430002,38.5300077 124.430002,36.99 C124.430002,35.4499923 124.994997,34.1500053 126.125002,33.09 C127.255008,32.0299947 128.539995,31.5 129.980002,31.5 C131.340009,31.5 132.449998,31.9749952 133.310002,32.925 C134.170007,33.8750048 134.420004,34.9799937 134.060002,36.24 L126.830002,36.24 Z M139.490003,33.66 C140.630009,32.2199928 142.019995,31.5 143.660003,31.5 C144.96001,31.5 145.935,31.9099959 146.585003,32.73 C147.235006,33.5500041 147.560003,34.6299933 147.560003,35.97 L147.560003,37.86 C147.560003,39.3600075 147.705002,40.3199979 147.995003,40.74 C148.285005,41.1600021 148.929998,41.37 149.930003,41.37 L149.930003,42 L143.060003,42 L143.060003,41.37 C144.040008,41.37 144.680002,41.1550022 144.980003,40.725 C145.280005,40.2949979 145.430003,39.3400074 145.430003,37.86 L145.430003,36.12 C145.430003,33.9799893 144.600011,32.91 142.940003,32.91 C142.079999,32.91 141.290007,33.209997 140.570003,33.81 C139.849999,34.410003 139.490003,35.109996 139.490003,35.91 L139.490003,37.86 C139.490003,39.4000077 139.610002,40.369998 139.850003,40.77 C140.090004,41.170002 140.669998,41.37 141.590003,41.37 L141.590003,42 L134.990003,42 L134.990003,41.37 C135.990008,41.37 136.635002,41.1600021 136.925003,40.74 C137.215005,40.3199979 137.360003,39.3600075 137.360003,37.86 L137.360003,36.36 C137.360003,34.8799926 137.215005,33.9300021 136.925003,33.51 C136.635002,33.0899979 135.990008,32.88 134.990003,32.88 L134.990003,32.25 L138.980003,31.5 C139.160004,31.8800019 139.330002,32.5999947 139.490003,33.66 Z M155.450004,32.46 C154.65,32.46 153.970007,32.9199954 153.410004,33.84 C152.850001,34.7600046 152.570004,35.8999932 152.570004,37.26 C152.570004,38.5000062 152.875001,39.4749964 153.485004,40.185 C154.095007,40.8950035 154.999998,41.25 156.200004,41.25 C157.36001,41.25 158.429999,40.7900046 159.410004,39.87 L159.920004,40.53 C158.699998,41.8500066 157.210013,42.51 155.450004,42.51 C153.809996,42.51 152.515009,42.0200049 151.565004,41.04 C150.614999,40.0599951 150.140004,38.8000077 150.140004,37.26 C150.140004,35.5999917 150.699998,34.2250054 151.820004,33.135 C152.940009,32.0449945 154.149997,31.5 155.450004,31.5 C156.63001,31.5 157.520001,31.7099979 158.120004,32.13 C158.720007,32.5500021 159.020004,33.059997 159.020004,33.66 C159.020004,33.9800016 158.915005,34.2749987 158.705004,34.545 C158.495003,34.8150014 158.160006,34.95 157.700004,34.95 C157.380002,34.95 157.105005,34.8350011 156.875004,34.605 C156.645003,34.3749988 156.530004,34.0900017 156.530004,33.75 C156.530004,32.8899957 156.170007,32.46 155.450004,32.46 Z M162.710005,35.13 L167.690005,35.13 C167.890006,34.5699972 167.805006,34.0250027 167.435005,33.495 C167.065003,32.9649974 166.430009,32.7 165.530005,32.7 C164.890001,32.7 164.315007,32.9199978 163.805005,33.36 C163.295002,33.8000022 162.930006,34.3899963 162.710005,35.13 Z M162.530005,36.24 C162.350004,37.7200074 162.585001,38.9249954 163.235005,39.855 C163.885008,40.7850047 164.949997,41.25 166.430005,41.25 C166.930007,41.25 167.500001,41.1200013 168.140005,40.86 C168.780008,40.5999987 169.310002,40.270002 169.730005,39.87 L170.270005,40.53 C169.730002,41.1100029 169.040009,41.5849982 168.200005,41.955 C167.36,42.3250018 166.520009,42.51 165.680005,42.51 C164.059996,42.51 162.73001,41.9750054 161.690005,40.905 C160.649999,39.8349946 160.130005,38.5300077 160.130005,36.99 C160.130005,35.4499923 160.694999,34.1500053 161.825005,33.09 C162.95501,32.0299947 164.239997,31.5 165.680005,31.5 C167.040011,31.5 168.15,31.9749952 169.010005,32.925 C169.870009,33.8750048 170.120006,34.9799937 169.760005,36.24 L162.530005,36.24 Z M178.070006,41.1 C177.610004,41.4800019 177.320007,41.9499972 177.200006,42.51 L176.600006,42.51 L176.600006,35.91 L177.230006,35.91 C177.230006,35.9900004 177.235006,36.0949994 177.245006,36.225 C177.255006,36.3550007 177.295006,36.6049982 177.365006,36.975 C177.435006,37.3450019 177.535005,37.6999983 177.665006,38.04 C177.795007,38.3800017 178.000005,38.7599979 178.280006,39.18 C178.560008,39.6000021 178.885004,39.9599985 179.255006,40.26 C179.625008,40.5600015 180.115003,40.809999 180.725006,41.01 C181.335009,41.210001 182.010002,41.31 182.750006,41.31 C183.830012,41.31 184.725003,41.0000031 185.435006,40.38 C186.14501,39.7599969 186.500006,38.9700048 186.500006,38.01 C186.500006,36.7899939 185.350018,35.580006 183.050006,34.38 L180.170006,32.91 C179.230001,32.4099975 178.440009,31.7300043 177.800006,30.87 C177.160003,30.0099957 176.840006,29.0400054 176.840006,27.96 C176.840006,26.6999937 177.310001,25.6400043 178.250006,24.78 C179.190011,23.9199957 180.379999,23.49 181.820006,23.49 C183.140013,23.49 184.360001,23.8999959 185.480006,24.72 C185.940008,24.3399981 186.230006,23.8800027 186.350006,23.34 L186.950006,23.34 L186.950006,29.94 L186.320006,29.94 C186.020005,26.4399825 184.49002,24.69 181.730006,24.69 C180.890002,24.69 180.195009,24.9449975 179.645006,25.455 C179.095003,25.9650025 178.820006,26.5999962 178.820006,27.36 C178.820006,28.1000037 179.085003,28.7249975 179.615006,29.235 C180.145009,29.7450026 181.099999,30.3599964 182.480006,31.08 L185.330006,32.55 C187.430017,33.6100053 188.480006,35.1299901 188.480006,37.11 C188.480006,38.710008 187.925012,40.009995 186.815006,41.01 C185.705001,42.010005 184.350014,42.51 182.750006,42.51 C182.070003,42.51 181.420009,42.410001 180.800006,42.21 C180.180003,42.009999 179.620009,41.7850013 179.120006,41.535 C178.620004,41.2849987 178.270007,41.1400002 178.070006,41.1 Z M203.240007,42 L196.610007,42 L196.610007,41.37 C197.550012,41.37 198.140006,41.170002 198.380007,40.77 C198.620008,40.369998 198.740007,39.4000077 198.740007,37.86 L198.740007,36.12 C198.740007,33.9799893 197.980014,32.91 196.460007,32.91 C195.660003,32.91 194.92001,33.2049971 194.240007,33.795 C193.560003,34.385003 193.220007,35.0899959 193.220007,35.91 L193.220007,37.86 C193.220007,39.4200078 193.330006,40.394998 193.550007,40.785 C193.770008,41.1750019 194.290003,41.37 195.110007,41.37 L195.110007,42 L188.720007,42 L188.720007,41.37 C189.720012,41.37 190.365005,41.1600021 190.655007,40.74 C190.945008,40.3199979 191.090007,39.3600075 191.090007,37.86 L191.090007,28.38 C191.090007,26.8799925 190.945008,25.9200021 190.655007,25.5 C190.365005,25.0799979 189.720012,24.87 188.720007,24.87 L188.720007,24.24 L193.220007,23.49 L193.220007,33.66 C194.400013,32.2199928 195.71,31.5 197.150007,31.5 C199.610019,31.5 200.840007,32.9899851 200.840007,35.97 L200.840007,37.86 C200.840007,39.3600075 200.985005,40.3199979 201.275007,40.74 C201.565008,41.1600021 202.220002,41.37 203.240007,41.37 L203.240007,42 Z M206.030008,35.13 L211.010008,35.13 C211.210009,34.5699972 211.125009,34.0250027 210.755008,33.495 C210.385006,32.9649974 209.750012,32.7 208.850008,32.7 C208.210004,32.7 207.63501,32.9199978 207.125008,33.36 C206.615005,33.8000022 206.250009,34.3899963 206.030008,35.13 Z M205.850008,36.24 C205.670007,37.7200074 205.905004,38.9249954 206.555008,39.855 C207.205011,40.7850047 208.27,41.25 209.750008,41.25 C210.25001,41.25 210.820004,41.1200013 211.460008,40.86 C212.100011,40.5999987 212.630006,40.270002 213.050008,39.87 L213.590008,40.53 C213.050005,41.1100029 212.360012,41.5849982 211.520008,41.955 C210.680003,42.3250018 209.840012,42.51 209.000008,42.51 C207.38,42.51 206.050013,41.9750054 205.010008,40.905 C203.970002,39.8349946 203.450008,38.5300077 203.450008,36.99 C203.450008,35.4499923 204.015002,34.1500053 205.145008,33.09 C206.275013,32.0299947 207.56,31.5 209.000008,31.5 C210.360014,31.5 211.470003,31.9749952 212.330008,32.925 C213.190012,33.8750048 213.440009,34.9799937 213.080008,36.24 L205.850008,36.24 Z M220.310008,42 L213.440008,42 L213.440008,41.37 C214.440013,41.37 215.085007,41.1600021 215.375008,40.74 C215.66501,40.3199979 215.810008,39.3600075 215.810008,37.86 L215.810008,28.38 C215.810008,26.8799925 215.66501,25.9200021 215.375008,25.5 C215.085007,25.0799979 214.440013,24.87 213.440008,24.87 L213.440008,24.24 L217.940008,23.49 L217.940008,37.86 C217.940008,39.3600075 218.085007,40.3199979 218.375008,40.74 C218.66501,41.1600021 219.310003,41.37 220.310008,41.37 L220.310008,42 Z M226.550009,42 L219.680009,42 L219.680009,41.37 C220.680014,41.37 221.325008,41.1600021 221.615009,40.74 C221.905011,40.3199979 222.050009,39.3600075 222.050009,37.86 L222.050009,28.38 C222.050009,26.8799925 221.905011,25.9200021 221.615009,25.5 C221.325008,25.0799979 220.680014,24.87 219.680009,24.87 L219.680009,24.24 L224.180009,23.49 L224.180009,37.86 C224.180009,39.3600075 224.325008,40.3199979 224.615009,40.74 C224.905011,41.1600021 225.550004,41.37 226.550009,41.37 L226.550009,42 Z" id="Valence-Shell-Copy" fill="#524740"></path>
                </g>
            </g>
            <path d="M249.428,143.136 C251.780012,145.368011 252.956,148.055984 252.956,151.2 C252.956,154.344016 251.780012,157.031989 249.428,159.264 C247.075988,161.496011 244.256016,162.612 240.968,162.612 C237.655983,162.612 234.824012,161.496011 232.472,159.264 C230.119988,157.031989 228.944,154.344016 228.944,151.2 C228.944,148.055984 230.119988,145.368011 232.472,143.136 C234.824012,140.903989 237.655983,139.788 240.968,139.788 C244.256016,139.788 247.075988,140.903989 249.428,143.136 Z M244.892,142.128 C243.763994,141.503997 242.456007,141.192 240.968,141.192 C239.479993,141.192 238.160006,141.497997 237.008,142.11 C235.855994,142.722003 234.956003,143.531995 234.308,144.54 C233.659997,145.548005 233.174002,146.615994 232.85,147.744 C232.525998,148.872006 232.364,150.023994 232.364,151.2 C232.364,152.376006 232.525998,153.527994 232.85,154.656 C233.174002,155.784006 233.659997,156.845995 234.308,157.842 C234.956003,158.838005 235.855994,159.641997 237.008,160.254 C238.160006,160.866003 239.479993,161.172 240.968,161.172 C242.456007,161.172 243.769994,160.866003 244.91,160.254 C246.050006,159.641997 246.943997,158.838005 247.592,157.842 C248.240003,156.845995 248.725998,155.784006 249.05,154.656 C249.374002,153.527994 249.536,152.376006 249.536,151.2 C249.536,150.023994 249.374002,148.872006 249.05,147.744 C248.725998,146.615994 248.240003,145.548005 247.592,144.54 C246.943997,143.531995 246.044006,142.728003 244.892,142.128 Z" id="O-Copy" fill="#23ABE3"></path>
            <g id="Hydrogen-Copy" transform="translate(125.000000, 235.000000)">
                <ellipse id="Oval" stroke="#524740" stroke-width="3" transform="translate(71.026055, 67.249205) rotate(-30.000000) translate(-71.026055, -67.249205) " cx="71.0260545" cy="67.2492045" rx="56" ry="45"></ellipse>
                <path d="M67.668,64.2 L67.668,70.032 C67.668,71.832009 67.865998,72.9839975 68.262,73.488 C68.658002,73.9920025 69.5999926,74.244 71.088,74.244 L71.088,75 L61.368,75 L61.368,74.244 C62.8560074,74.244 63.797998,73.9920025 64.194,73.488 C64.590002,72.9839975 64.788,71.832009 64.788,70.032 L64.788,58.332 C64.788,56.531991 64.590002,55.3860025 64.194,54.894 C63.797998,54.4019975 62.8560074,54.156 61.368,54.156 L61.368,53.4 L71.088,53.4 L71.088,54.156 C69.5999926,54.156 68.658002,54.4019975 68.262,54.894 C67.865998,55.3860025 67.668,56.531991 67.668,58.332 L67.668,62.868 L79.908,62.868 L79.908,58.332 C79.908,56.531991 79.704002,55.3860025 79.296,54.894 C78.887998,54.4019975 77.9400074,54.156 76.452,54.156 L76.452,53.4 L86.208,53.4 L86.208,54.156 C84.6959924,54.156 83.742002,54.4019975 83.346,54.894 C82.949998,55.3860025 82.752,56.531991 82.752,58.332 L82.752,70.032 C82.752,71.8560091 82.949998,73.0139975 83.346,73.506 C83.742002,73.9980025 84.6959924,74.244 86.208,74.244 L86.208,75 L76.452,75 L76.452,74.244 C77.9400074,74.244 78.887998,73.9920025 79.296,73.488 C79.704002,72.9839975 79.908,71.832009 79.908,70.032 L79.908,64.2 L67.668,64.2 Z" id="H-Copy-2" fill="#23ABE3"></path>
            </g>
            <g id="Hydrogen" transform="translate(0.000000, 80.000000)">
                <ellipse id="Oval" stroke="#524740" stroke-width="3" transform="translate(65.026055, 56.249205) rotate(-12.000000) translate(-65.026055, -56.249205) " cx="65.0260545" cy="56.2492045" rx="56" ry="45"></ellipse>
                <path d="M59.668,55.2 L59.668,61.032 C59.668,62.832009 59.865998,63.9839975 60.262,64.488 C60.658002,64.9920025 61.5999926,65.244 63.088,65.244 L63.088,66 L53.368,66 L53.368,65.244 C54.8560074,65.244 55.797998,64.9920025 56.194,64.488 C56.590002,63.9839975 56.788,62.832009 56.788,61.032 L56.788,49.332 C56.788,47.531991 56.590002,46.3860025 56.194,45.894 C55.797998,45.4019975 54.8560074,45.156 53.368,45.156 L53.368,44.4 L63.088,44.4 L63.088,45.156 C61.5999926,45.156 60.658002,45.4019975 60.262,45.894 C59.865998,46.3860025 59.668,47.531991 59.668,49.332 L59.668,53.868 L71.908,53.868 L71.908,49.332 C71.908,47.531991 71.704002,46.3860025 71.296,45.894 C70.887998,45.4019975 69.9400074,45.156 68.452,45.156 L68.452,44.4 L78.208,44.4 L78.208,45.156 C76.6959924,45.156 75.742002,45.4019975 75.346,45.894 C74.949998,46.3860025 74.752,47.531991 74.752,49.332 L74.752,61.032 C74.752,62.8560091 74.949998,64.0139975 75.346,64.506 C75.742002,64.9980025 76.6959924,65.244 78.208,65.244 L78.208,66 L68.452,66 L68.452,65.244 C69.9400074,65.244 70.887998,64.9920025 71.296,64.488 C71.704002,63.9839975 71.908,62.832009 71.908,61.032 L71.908,55.2 L59.668,55.2 Z" id="H-Copy" fill="#23ABE3"></path>
            </g>
            <g id="Valence-Shell" transform="translate(80.000000, 0.000000)">
                <ellipse id="Oval-Copy-8" stroke="#524740" stroke-width="3" transform="translate(163.135072, 154.442892) rotate(30.000000) translate(-163.135072, -154.442892) " cx="163.135072" cy="154.442892" rx="128.5" ry="103"></ellipse>
                <circle id="Oval-Copy-9" fill="#EF7D3B" cx="128" cy="44" r="12"></circle>
                <circle id="Oval-Copy-10" fill="#EF7D3B" cx="38" cy="109" r="12"></circle>
                <circle id="Oval-Copy-11" fill="#EF7D3B" cx="218" cy="66" r="12"></circle>
                <circle id="Oval-Copy-12" fill="#EF7D3B" cx="123" cy="251" r="12"></circle>
                <circle id="Oval-Copy-15" fill="#EF7D3B" cx="43" cy="149" r="12"></circle>
                <circle id="Oval-Copy-16" fill="#EF7D3B" cx="160" cy="259" r="12"></circle>
                <circle id="Oval-Copy-13" fill="#EF7D3B" cx="261" cy="237" r="12"></circle>
                <circle id="Oval-Copy-14" fill="#EF7D3B" cx="276" cy="127" r="12"></circle>
            </g>
        </g>
        <path d="M47.776,19.808 L50.224,19.808 L41.872,44 L39.424,44 L32.296,23.048 L25.132,44 L22.72,44 L14.332,19.808 L16.78,19.808 L23.944,40.328 L31.18,19.808 L33.376,19.808 L40.648,40.328 L47.776,19.808 Z M63.5440006,26 L65.9200006,26 L65.9200006,44 L63.5440006,44 L63.5440006,41.084 C61.6959914,43.2200107 59.3560148,44.288 56.5240006,44.288 C53.9559878,44.288 51.7660097,43.3820091 49.9540006,41.57 C48.1419916,39.7579909 47.2360006,37.5680128 47.2360006,35 C47.2360006,32.4319872 48.1419916,30.2420091 49.9540006,28.43 C51.7660097,26.6179909 53.9559878,25.712 56.5240006,25.712 C59.3800149,25.712 61.7199915,26.7799893 63.5440006,28.916 L63.5440006,26 Z M56.5600006,42.02 C58.5040103,42.02 60.141994,41.3420068 61.4740006,39.986 C62.8060073,38.6299932 63.4720006,36.9680098 63.4720006,35 C63.4720006,33.0319902 62.8060073,31.3700068 61.4740006,30.014 C60.141994,28.6579932 58.5040103,27.98 56.5600006,27.98 C54.639991,27.98 53.0020074,28.6579932 51.6460006,30.014 C50.2899938,31.3700068 49.6120006,33.0319902 49.6120006,35 C49.6120006,36.9680098 50.2899938,38.6299932 51.6460006,39.986 C53.0020074,41.3420068 54.639991,42.02 56.5600006,42.02 Z M78.4840013,39.968 L79.6720013,41.804 C79.5280005,41.996001 79.3360025,42.2239987 79.0960013,42.488 C78.8560001,42.7520013 78.3160055,43.1179977 77.4760013,43.586 C76.6359971,44.0540023 75.7720057,44.288 74.8840013,44.288 C73.3719937,44.288 72.1060064,43.8380045 71.0860013,42.938 C70.0659962,42.0379955 69.5560013,40.7360085 69.5560013,39.032 L69.5560013,28.16 L66.6760013,28.16 L66.6760013,25.964 L69.5560013,25.964 L69.5560013,20.276 L71.9320013,19.988 L71.9320013,25.964 L77.3680013,25.964 L77.3680013,28.16 L71.9320013,28.16 L71.9320013,38.492 C71.9320013,39.5960055 72.2739978,40.4719968 72.9580013,41.12 C73.6420047,41.7680032 74.4279968,42.092 75.3160013,42.092 C75.868004,42.092 76.4079986,41.9240017 76.9360013,41.588 C77.4640039,41.2519983 77.854,40.9220016 78.1060013,40.598 C78.3580025,40.2739984 78.4840013,40.0640005 78.4840013,39.968 Z M87.9880019,41.912 C89.5960099,41.912 91.0359955,41.4560046 92.3080019,40.544 C93.5800082,39.6319954 94.4439996,38.5640061 94.9000019,37.34 L96.9160019,38.06 C96.3639991,39.5720076 95.2900099,40.9639936 93.6940019,42.236 C92.0979939,43.5080064 90.1960129,44.1320001 87.9880019,44.108 C85.9719918,44.108 84.1300102,43.4840062 82.4620019,42.236 C80.7939935,40.9879938 79.6600049,39.3920097 79.0600019,37.448 C78.8200007,36.655996 78.7000019,35.7920047 78.7000019,34.856 C78.7000019,32.263987 79.5999929,30.068009 81.4000019,28.268 C83.2000109,26.467991 85.3959889,25.5560001 87.9880019,25.532 C90.3400136,25.5560001 92.3919931,26.3479922 94.1440019,27.908 C95.8960106,29.4680078 96.9040006,31.3999885 97.1680019,33.704 C97.192002,33.8240006 97.2040019,33.979999 97.2040019,34.172 L81.4720019,37.016 C81.8800039,38.4560072 82.6959958,39.6379954 83.9200019,40.562 C85.144008,41.4860046 86.4999944,41.9360001 87.9880019,41.912 Z M87.7720019,27.728 C85.9719929,27.7520001 84.4300083,28.3999936 83.1460019,29.672 C81.8619955,30.9440064 81.1720024,32.4679911 81.0760019,34.244 C81.0760019,34.3160004 81.0820018,34.4419991 81.0940019,34.622 C81.1060019,34.8020009 81.1120019,34.9519994 81.1120019,35.072 L94.5040019,32.66 C94.0479996,31.1959927 93.1960081,30.0020046 91.9480019,29.078 C90.6999956,28.1539954 89.3080096,27.7039999 87.7720019,27.728 Z M106.564003,25.712 C107.836009,25.712 108.999997,26.0239969 110.056003,26.648 L109.228003,29.024 C108.219997,28.2799963 107.200008,27.908 106.168003,27.908 C104.655995,27.908 103.384008,28.4419947 102.352003,29.51 C101.319997,30.5780053 100.804003,31.8919922 100.804003,33.452 L100.804003,44 L98.4280025,44 L98.4280025,26 L100.804003,26 L100.804003,28.664 C102.26801,26.6959902 104.187991,25.712 106.564003,25.712 Z M145.516004,44 L143.140004,44 L138.496004,24.236 L132.232004,44 L130.648004,44 L124.420004,24.236 L119.776004,44 L117.400004,44 L122.980004,19.808 L125.140004,19.808 L131.476004,39.176 L137.740004,19.808 L139.936004,19.808 L145.516004,44 Z M161.032004,41.552 C159.231995,43.3760091 157.048017,44.288 154.480004,44.288 C151.911992,44.288 149.722013,43.3820091 147.910004,41.57 C146.097995,39.7579909 145.192004,37.5680128 145.192004,35 C145.192004,32.4319872 146.097995,30.2420091 147.910004,28.43 C149.722013,26.6179909 151.911992,25.712 154.480004,25.712 C157.048017,25.712 159.237995,26.6179909 161.050004,28.43 C162.862013,30.2420091 163.768004,32.4319872 163.768004,35 C163.768004,37.5440127 162.856014,39.7279909 161.032004,41.552 Z M154.516004,42.02 C156.460014,42.02 158.097998,41.3420068 159.430004,39.986 C160.762011,38.6299932 161.428004,36.9680098 161.428004,35 C161.428004,33.0319902 160.762011,31.3640068 159.430004,29.996 C158.097998,28.6279932 156.460014,27.944 154.516004,27.944 C152.595995,27.944 150.964011,28.6279932 149.620004,29.996 C148.275998,31.3640068 147.604004,33.0319902 147.604004,35 C147.604004,36.9680098 148.275998,38.6299932 149.620004,39.986 C150.964011,41.3420068 152.595995,42.02 154.516004,42.02 Z M165.532005,44 L165.532005,17.216 L167.908005,17.216 L167.908005,44 L165.532005,44 Z M178.888006,41.912 C180.496014,41.912 181.935999,41.4560046 183.208006,40.544 C184.480012,39.6319954 185.344003,38.5640061 185.800006,37.34 L187.816006,38.06 C187.264003,39.5720076 186.190014,40.9639936 184.594006,42.236 C182.997998,43.5080064 181.096017,44.1320001 178.888006,44.108 C176.871996,44.108 175.030014,43.4840062 173.362006,42.236 C171.693997,40.9879938 170.560009,39.3920097 169.960006,37.448 C169.720004,36.655996 169.600006,35.7920047 169.600006,34.856 C169.600006,32.263987 170.499997,30.068009 172.300006,28.268 C174.100015,26.467991 176.295993,25.5560001 178.888006,25.532 C181.240017,25.5560001 183.291997,26.3479922 185.044006,27.908 C186.796014,29.4680078 187.804004,31.3999885 188.068006,33.704 C188.092006,33.8240006 188.104006,33.979999 188.104006,34.172 L172.372006,37.016 C172.780008,38.4560072 173.596,39.6379954 174.820006,40.562 C176.044012,41.4860046 177.399998,41.9360001 178.888006,41.912 Z M178.672006,27.728 C176.871997,27.7520001 175.330012,28.3999936 174.046006,29.672 C172.761999,30.9440064 172.072006,32.4679911 171.976006,34.244 C171.976006,34.3160004 171.982006,34.4419991 171.994006,34.622 C172.006006,34.8020009 172.012006,34.9519994 172.012006,35.072 L185.404006,32.66 C184.948003,31.1959927 184.096012,30.0020046 182.848006,29.078 C181.599999,28.1539954 180.208013,27.7039999 178.672006,27.728 Z M198.220006,44.288 C195.651993,44.288 193.462015,43.3820091 191.650006,41.57 C189.837997,39.7579909 188.932006,37.5680128 188.932006,35 C188.932006,32.4319872 189.837997,30.2420091 191.650006,28.43 C193.462015,26.6179909 195.651993,25.712 198.220006,25.712 C199.852014,25.712 201.369999,26.113996 202.774006,26.918 C204.178013,27.722004 205.288002,28.7959933 206.104006,30.14 L203.944006,31.184 C203.296003,30.1999951 202.468011,29.4200029 201.460006,28.844 C200.452001,28.2679971 199.372012,27.98 198.220006,27.98 C196.275997,27.98 194.638013,28.6579932 193.306006,30.014 C191.974,31.3700068 191.308006,33.0319902 191.308006,35 C191.308006,36.9680098 191.974,38.6299932 193.306006,39.986 C194.638013,41.3420068 196.275997,42.02 198.220006,42.02 C199.372012,42.02 200.452001,41.7320029 201.460006,41.156 C202.468011,40.5799971 203.296003,39.8000049 203.944006,38.816 L206.104006,39.86 C205.288002,41.2040067 204.178013,42.277996 202.774006,43.082 C201.369999,43.886004 199.852014,44.288 198.220006,44.288 Z M221.008007,26 L223.384007,26 L223.384007,44 L221.008007,44 L221.008007,41.336 C219.544,43.3040098 217.624019,44.288 215.248007,44.288 C213.159996,44.288 211.408014,43.5500074 209.992007,42.074 C208.576,40.5979926 207.868007,38.7800108 207.868007,36.62 L207.868007,26 L210.316007,26 L210.316007,36.548 C210.316007,38.0840077 210.832002,39.3859947 211.864007,40.454 C212.896012,41.5220053 214.155999,42.056 215.644007,42.056 C217.156014,42.056 218.428002,41.5220053 219.460007,40.454 C220.492012,39.3859947 221.008007,38.0840077 221.008007,36.548 L221.008007,26 Z M226.480008,44 L226.480008,17.216 L228.856008,17.216 L228.856008,44 L226.480008,44 Z M239.836008,41.912 C241.444016,41.912 242.884002,41.4560046 244.156008,40.544 C245.428015,39.6319954 246.292006,38.5640061 246.748008,37.34 L248.764008,38.06 C248.212005,39.5720076 247.138016,40.9639936 245.542008,42.236 C243.946,43.5080064 242.044019,44.1320001 239.836008,44.108 C237.819998,44.108 235.978017,43.4840062 234.310008,42.236 C232.642,40.9879938 231.508011,39.3920097 230.908008,37.448 C230.668007,36.655996 230.548008,35.7920047 230.548008,34.856 C230.548008,32.263987 231.447999,30.068009 233.248008,28.268 C235.048017,26.467991 237.243995,25.5560001 239.836008,25.532 C242.18802,25.5560001 244.239999,26.3479922 245.992008,27.908 C247.744017,29.4680078 248.752007,31.3999885 249.016008,33.704 C249.040008,33.8240006 249.052008,33.979999 249.052008,34.172 L233.320008,37.016 C233.72801,38.4560072 234.544002,39.6379954 235.768008,40.562 C236.992014,41.4860046 238.348001,41.9360001 239.836008,41.912 Z M239.620008,27.728 C237.819999,27.7520001 236.278015,28.3999936 234.994008,29.672 C233.710002,30.9440064 233.020009,32.4679911 232.924008,34.244 C232.924008,34.3160004 232.930008,34.4419991 232.942008,34.622 C232.954008,34.8020009 232.960008,34.9519994 232.960008,35.072 L246.352008,32.66 C245.896006,31.1959927 245.044014,30.0020046 243.796008,29.078 C242.548002,28.1539954 241.156016,27.7039999 239.620008,27.728 Z M266.476009,48.752 C266.356009,48.6799996 266.19401,48.5780007 265.990009,48.446 C265.786008,48.3139993 265.384012,48.0020025 264.784009,47.51 C264.184006,47.0179975 263.614012,46.4840029 263.074009,45.908 C262.534007,45.3319971 261.940013,44.5640048 261.292009,43.604 C260.644006,42.6439952 260.080012,41.6240054 259.600009,40.544 C259.120007,39.4639946 258.718011,38.1680076 258.394009,36.656 C258.070008,35.1439924 257.908009,33.5720082 257.908009,31.94 C257.908009,29.7079888 258.202007,27.6020099 258.790009,25.622 C259.378012,23.6419901 260.092005,22.0340062 260.932009,20.798 C261.772014,19.5619938 262.612005,18.4940045 263.452009,17.594 C264.292014,16.6939955 265.000007,16.0520019 265.576009,15.668 L266.476009,15.092 L267.736009,16.388 C267.520008,16.5320007 267.238011,16.7359987 266.890009,17 C266.542008,17.2640013 265.924014,17.8699953 265.036009,18.818 C264.148005,19.7660047 263.362013,20.7919945 262.678009,21.896 C261.994006,23.0000055 261.376012,24.4579909 260.824009,26.27 C260.272007,28.0820091 259.996009,29.9719902 259.996009,31.94 C259.996009,33.9080098 260.260007,35.7859911 260.788009,37.574 C261.316012,39.3620089 261.964006,40.8259943 262.732009,41.966 C263.500013,43.1060057 264.268006,44.1019957 265.036009,44.954 C265.804013,45.8060043 266.452007,46.4239981 266.980009,46.808 L267.772009,47.348 L266.476009,48.752 Z M281.20001,19.808 L283.57601,19.808 L283.57601,44 L281.20001,44 L281.20001,33.344 L269.28401,33.344 L269.28401,44 L266.90801,44 L266.90801,19.808 L269.28401,19.808 L269.28401,30.968 L281.20001,30.968 L281.20001,19.808 Z M286.960011,61 L286.744011,58.984 C286.816011,58.9119996 287.506004,58.3060057 288.814011,57.166 C290.122017,56.0259943 291.280006,54.9700049 292.288011,53.998 C293.296016,53.0259951 294.436004,51.8620068 295.708011,50.506 C296.980017,49.1499932 297.976007,47.8600061 298.696011,46.636 C299.416014,45.4119939 299.776011,44.3560044 299.776011,43.468 C299.776011,42.1719935 299.278016,41.0740045 298.282011,40.174 C297.286006,39.2739955 296.044018,38.824 294.556011,38.824 C292.059998,38.824 290.020019,40.3119851 288.436011,43.288 L286.816011,41.668 C287.032012,41.259998 287.314009,40.8280023 287.662011,40.372 C288.010012,39.9159977 288.508007,39.3700032 289.156011,38.734 C289.804014,38.0979968 290.626006,37.576002 291.622011,37.168 C292.618016,36.759998 293.680005,36.556 294.808011,36.556 C296.968022,36.556 298.744004,37.2339932 300.136011,38.59 C301.528018,39.9460068 302.224011,41.523991 302.224011,43.324 C302.224011,44.4040054 301.906014,45.5799936 301.270011,46.852 C300.634008,48.1240064 299.752016,49.3959936 298.624011,50.668 C297.496005,51.9400064 296.482015,53.0199956 295.582011,53.908 C294.682006,54.7960044 293.614017,55.7739947 292.378011,56.842 C291.142005,57.9100053 290.464011,58.5039994 290.344011,58.624 L302.908011,58.624 L302.908011,61 L286.960011,61 Z M316.264011,43.352 C315.112006,43.9760031 313.768019,44.288 312.232011,44.288 C310.696004,44.288 309.346017,43.9700032 308.182011,43.334 C307.018006,42.6979968 306.082015,41.8100057 305.374011,40.67 C304.666008,39.5299943 304.138013,38.2280073 303.790011,36.764 C303.44201,35.2999927 303.268011,33.6920088 303.268011,31.94 C303.268011,28.2919818 304.012004,25.3160115 305.500011,23.012 C306.988019,20.7079885 309.231996,19.556 312.232011,19.556 C315.232026,19.556 317.476004,20.7079885 318.964011,23.012 C320.452019,25.3160115 321.196011,28.2919818 321.196011,31.94 C321.196011,33.6920088 321.022013,35.2999927 320.674011,36.764 C320.32601,38.2280073 319.798015,39.5299943 319.090011,40.67 C318.382008,41.8100057 317.440017,42.7039968 316.264011,43.352 Z M307.264011,39.284 C308.368017,41.1320092 310.024,42.056 312.232011,42.056 C314.440022,42.056 316.090006,41.1260093 317.182011,39.266 C318.274017,37.4059907 318.820011,34.9640151 318.820011,31.94 C318.820011,28.9159849 318.274017,26.4740093 317.182011,24.614 C316.090006,22.7539907 314.440022,21.824 312.232011,21.824 C310.024,21.824 308.374017,22.7539907 307.282011,24.614 C306.190006,26.4740093 305.644011,28.9159849 305.644011,31.94 C305.644011,34.9640151 306.184006,37.4119906 307.264011,39.284 Z M320.584012,48.752 L319.288012,47.348 C319.504013,47.2279994 319.78601,47.0360013 320.134012,46.772 C320.482014,46.5079987 321.100008,45.9080047 321.988012,44.972 C322.876016,44.0359953 323.662009,43.0220055 324.346012,41.93 C325.030015,40.8379945 325.654009,39.392009 326.218012,37.592 C326.782015,35.791991 327.064012,33.9080098 327.064012,31.94 C327.064012,29.9719902 326.800015,28.0940089 326.272012,26.306 C325.744009,24.5179911 325.102016,23.0480058 324.346012,21.896 C323.590008,20.7439942 322.828016,19.7300044 322.060012,18.854 C321.292008,17.9779956 320.644015,17.3480019 320.116012,16.964 L319.324012,16.388 L320.584012,15.092 C320.704013,15.1640004 320.866011,15.2659993 321.070012,15.398 C321.274013,15.5300007 321.676009,15.8419975 322.276012,16.334 C322.876015,16.8260025 323.446009,17.3599971 323.986012,17.936 C324.526015,18.5120029 325.120009,19.2919951 325.768012,20.276 C326.416015,21.2600049 326.98001,22.2859947 327.460012,23.354 C327.940014,24.4220053 328.34201,25.7119924 328.666012,27.224 C328.990014,28.7360076 329.152012,30.3079918 329.152012,31.94 C329.152012,33.5720082 328.996014,35.1379925 328.684012,36.638 C328.37201,38.1380075 327.964014,39.4339945 327.460012,40.526 C326.956009,41.6180055 326.398015,42.6379953 325.786012,43.586 C325.174009,44.5340047 324.562015,45.3139969 323.950012,45.926 C323.338009,46.5380031 322.780014,47.0659978 322.276012,47.51 C321.772009,47.9540022 321.364014,48.271999 321.052012,48.464 L320.584012,48.752 Z" id="Water-Molecule-(H20)-Copy" fill="#23ABE3"></path>
    </g>
</svg>