<?xml version="1.0" encoding="UTF-8"?>
<svg width="900px" height="410px" viewBox="0 0 900 410" version="1.1" xmlns="http://www.w3.org/2000/svg" xmlns:xlink="http://www.w3.org/1999/xlink">
    <!-- Generator: Sketch 52.5 (67469) - http://www.bohemiancoding.com/sketch -->
    <title>Water_Molecule</title>
    <desc>Created with Sketch.</desc>
    <g id="Water_Molecule" stroke="none" stroke-width="1" fill="none" fill-rule="evenodd">
        <rect id="Rectangle" fill="#EEEEEE" x="0" y="0" width="900" height="430"></rect>
        <g id="Illustration" transform="translate(231.000000, 28.000000)">
            <g id="Inner-shells" transform="translate(188.000000, 74.000000)">
                <ellipse id="Oval" stroke="#524740" stroke-width="3" transform="translate(98.699413, 81.692441) rotate(-13.000000) translate(-98.699413, -81.692441) " cx="98.6994127" cy="81.6924408" rx="86" ry="63"></ellipse>
                <circle id="Oval-Copy-6" fill="#EF7D3B" cx="56" cy="28" r="12"></circle>
                <circle id="Oval-Copy-7" fill="#EF7D3B" cx="141" cy="130" r="12"></circle>
            </g>
            <g id="Labels" transform="translate(0.000000, 217.000000)" fill="#524740">
                <g id="Shared-electrons">
                    <path d="M3.33,20.1 C2.8699977,20.4800019 2.5800006,20.9499972 2.46,21.51 L1.86,21.51 L1.86,14.91 L2.49,14.91 C2.49,14.9900004 2.49499995,15.0949994 2.505,15.225 C2.51500005,15.3550007 2.55499965,15.6049982 2.625,15.975 C2.69500035,16.3450019 2.79499935,16.6999983 2.925,17.04 C3.05500065,17.3800017 3.2599986,17.7599979 3.54,18.18 C3.8200014,18.6000021 4.14499815,18.9599985 4.515,19.26 C4.88500185,19.5600015 5.37499695,19.809999 5.985,20.01 C6.59500305,20.210001 7.2699963,20.31 8.01,20.31 C9.0900054,20.31 9.98499645,20.0000031 10.695,19.38 C11.4050035,18.7599969 11.76,17.9700048 11.76,17.01 C11.76,15.7899939 10.6100115,14.580006 8.31,13.38 L5.43,11.91 C4.4899953,11.4099975 3.7000032,10.7300043 3.06,9.87 C2.4199968,9.0099957 2.1,8.0400054 2.1,6.96 C2.1,5.6999937 2.5699953,4.6400043 3.51,3.78 C4.4500047,2.9199957 5.6399928,2.49 7.08,2.49 C8.4000066,2.49 9.6199944,2.8999959 10.74,3.72 C11.2000023,3.3399981 11.4899994,2.8800027 11.61,2.34 L12.21,2.34 L12.21,8.94 L11.58,8.94 C11.2799985,5.4399825 9.7500138,3.69 6.99,3.69 C6.1499958,3.69 5.45500275,3.94499745 4.905,4.455 C4.35499725,4.96500255 4.08,5.5999962 4.08,6.36 C4.08,7.1000037 4.34499735,7.72499745 4.875,8.235 C5.40500265,8.74500255 6.3599931,9.3599964 7.74,10.08 L10.59,11.55 C12.6900105,12.6100053 13.74,14.1299901 13.74,16.11 C13.74,17.710008 13.1850055,19.009995 12.075,20.01 C10.9649944,21.010005 9.610008,21.51 8.01,21.51 C7.3299966,21.51 6.6800031,21.410001 6.06,21.21 C5.4399969,21.009999 4.8800025,20.7850013 4.38,20.535 C3.8799975,20.2849988 3.530001,20.1400002 3.33,20.1 Z M28.5000008,21 L21.8700008,21 L21.8700008,20.37 C22.8100055,20.37 23.3999996,20.170002 23.6400008,19.77 C23.880002,19.369998 24.0000008,18.4000077 24.0000008,16.86 L24.0000008,15.12 C24.0000008,12.9799893 23.2400084,11.91 21.7200008,11.91 C20.9199968,11.91 20.1800042,12.2049971 19.5000008,12.795 C18.8199974,13.385003 18.4800008,14.0899959 18.4800008,14.91 L18.4800008,16.86 C18.4800008,18.4200078 18.5899997,19.3949981 18.8100008,19.785 C19.0300019,20.175002 19.5499967,20.37 20.3700008,20.37 L20.3700008,21 L13.9800008,21 L13.9800008,20.37 C14.9800058,20.37 15.6249993,20.1600021 15.9150008,19.74 C16.2050022,19.3199979 16.3500008,18.3600075 16.3500008,16.86 L16.3500008,7.38 C16.3500008,5.8799925 16.2050022,4.9200021 15.9150008,4.5 C15.6249993,4.0799979 14.9800058,3.87 13.9800008,3.87 L13.9800008,3.24 L18.4800008,2.49 L18.4800008,12.66 C19.6600067,11.2199928 20.9699936,10.5 22.4100008,10.5 C24.8700131,10.5 26.1000008,11.9899851 26.1000008,14.97 L26.1000008,16.86 C26.1000008,18.3600075 26.2449993,19.3199979 26.5350008,19.74 C26.8250022,20.1600021 27.4799957,20.37 28.5000008,20.37 L28.5000008,21 Z M38.8800015,20.4 C38.2999986,21.0200031 37.6400052,21.33 36.9000015,21.33 C35.6999955,21.33 35.0200023,20.7500058 34.8600015,19.59 C33.5199948,20.790006 32.2700073,21.39 31.1100015,21.39 C30.3499977,21.39 29.7100041,21.1650023 29.1900015,20.715 C28.6699989,20.2649978 28.4100015,19.6500039 28.4100015,18.87 C28.4100015,16.7699895 30.5399802,15.3500037 34.8000015,14.61 C34.8000015,13.4299941 34.6700028,12.6100023 34.4100015,12.15 C34.1500002,11.6899977 33.6100056,11.46 32.7900015,11.46 C32.3899995,11.46 32.0050034,11.5899987 31.6350015,11.85 C31.2649997,12.1100013 31.0800015,12.4599978 31.0800015,12.9 C31.0800015,13.2000015 30.9800025,13.449999 30.7800015,13.65 C30.5800005,13.850001 30.3400029,13.95 30.0600015,13.95 C29.76,13.95 29.5100025,13.850001 29.3100015,13.65 C29.1100005,13.449999 29.0100015,13.2000015 29.0100015,12.9 C29.0100015,12.1999965 29.3949977,11.6250023 30.1650015,11.175 C30.9350054,10.7249978 31.8199965,10.5 32.8200015,10.5 C34.2800088,10.5 35.3299983,10.8199968 35.9700015,11.46 C36.6100047,12.1000032 36.9300015,13.1399928 36.9300015,14.58 L36.9300015,19.11 C36.9300015,19.8900039 37.1599992,20.28 37.6200015,20.28 C37.8800028,20.28 38.16,20.1300015 38.4600015,19.83 L38.8800015,20.4 Z M34.8000015,18.6 L34.8000015,15.54 C32.0399877,16.1800032 30.6600015,17.1699933 30.6600015,18.51 C30.6600015,18.9700023 30.7950002,19.3399986 31.0650015,19.62 C31.3350029,19.9000014 31.6699995,20.04 32.0700015,20.04 C32.8100052,20.04 33.7199961,19.5600048 34.8000015,18.6 Z M48.7200023,12.36 C48.7200023,13.3000047 48.3200063,13.77 47.5200023,13.77 C47.2400009,13.77 46.9950033,13.6600011 46.7850023,13.44 C46.5750012,13.2199989 46.4700023,12.9700014 46.4700023,12.69 C46.4700023,12.0299967 46.1500055,11.7 45.5100023,11.7 C45.05,11.7 44.550005,12.0199968 44.0100023,12.66 C43.4699996,13.3000032 43.2000023,14.1499947 43.2000023,15.21 L43.2000023,16.86 C43.2000023,18.3600075 43.3450008,19.3199979 43.6350023,19.74 C43.9250037,20.1600021 44.5699973,20.37 45.5700023,20.37 L45.5700023,21 L38.7000023,21 L38.7000023,20.37 C39.7000073,20.37 40.3450008,20.1600021 40.6350023,19.74 C40.9250037,19.3199979 41.0700023,18.3600075 41.0700023,16.86 L41.0700023,15.36 C41.0700023,13.8799926 40.9250037,12.9300021 40.6350023,12.51 C40.3450008,12.0899979 39.7000073,11.88 38.7000023,11.88 L38.7000023,11.25 L42.6900023,10.5 C42.8700032,10.8800019 43.0400015,11.5999947 43.2000023,12.66 C43.5000038,12.059997 43.9499993,11.5500021 44.5500023,11.13 C45.1500053,10.7099979 45.7499993,10.5 46.3500023,10.5 C47.1100061,10.5 47.6950002,10.699998 48.1050023,11.1 C48.5150043,11.500002 48.7200023,11.9199978 48.7200023,12.36 Z M51.0600031,14.13 L56.0400031,14.13 C56.2400041,13.5699972 56.1550049,13.0250027 55.7850031,12.495 C55.4150012,11.9649974 54.7800076,11.7 53.8800031,11.7 C53.2399999,11.7 52.6650056,11.9199978 52.1550031,12.36 C51.6450005,12.8000022 51.2800042,13.3899963 51.0600031,14.13 Z M50.8800031,15.24 C50.7000022,16.7200074 50.9349998,17.9249954 51.5850031,18.855 C52.2350063,19.7850047 53.2999957,20.25 54.7800031,20.25 C55.2800056,20.25 55.8499999,20.1200013 56.4900031,19.86 C57.1300063,19.5999987 57.660001,19.270002 58.0800031,18.87 L58.6200031,19.53 C58.0800004,20.1100029 57.3900073,20.5849982 56.5500031,20.955 C55.7099989,21.3250019 54.8700073,21.51 54.0300031,21.51 C52.409995,21.51 51.0800083,20.9750054 50.0400031,19.905 C48.9999979,18.8349947 48.4800031,17.5300077 48.4800031,15.99 C48.4800031,14.4499923 49.0449974,13.1500053 50.1750031,12.09 C51.3050087,11.0299947 52.5899959,10.5 54.0300031,10.5 C55.3900099,10.5 56.4999988,10.9749953 57.3600031,11.925 C58.2200074,12.8750048 58.4700049,13.9799937 58.1100031,15.24 L50.8800031,15.24 Z M68.2200038,17.94 L68.2200038,14.07 C67.9400024,13.3499964 67.5300065,12.7750022 66.9900038,12.345 C66.4500011,11.9149979 65.8500071,11.7 65.1900038,11.7 C64.0699982,11.7 63.2200067,12.099996 62.6400038,12.9 C62.0600009,13.700004 61.7700038,14.7299937 61.7700038,15.99 C61.7700038,17.2700064 62.0600009,18.309996 62.6400038,19.11 C63.2200067,19.910004 64.0699982,20.31 65.1900038,20.31 C65.8500071,20.31 66.4500011,20.0950022 66.9900038,19.665 C67.5300065,19.2349979 67.9400024,18.6600036 68.2200038,17.94 Z M68.2200038,12.27 L68.2200038,7.38 C68.2200038,5.8799925 68.0750053,4.9200021 67.7850038,4.5 C67.4950024,4.0799979 66.8500088,3.87 65.8500038,3.87 L65.8500038,3.24 L70.3500038,2.49 L70.3500038,16.62 C70.3500038,18.1200075 70.4950024,19.0799979 70.7850038,19.5 C71.0750053,19.9200021 71.7199988,20.13 72.7200038,20.13 L72.7200038,20.76 L68.7300038,21.51 C68.5900031,21.2099985 68.4300047,20.6000046 68.2500038,19.68 C67.2699989,20.9000061 66.0400112,21.51 64.5600038,21.51 C63.1399967,21.51 61.915009,20.9700054 60.8850038,19.89 C59.8549987,18.8099946 59.3400038,17.5100076 59.3400038,15.99 C59.3400038,14.4699924 59.8549987,13.1750054 60.8850038,12.105 C61.915009,11.0349947 63.1399967,10.5 64.5600038,10.5 C66.0400112,10.5 67.259999,11.0899941 68.2200038,12.27 Z M77.8200053,21 L77.8200053,20.37 C79.0600115,20.37 79.8450037,20.1600021 80.1750053,19.74 C80.505007,19.3199979 80.6700053,18.3600075 80.6700053,16.86 L80.6700053,7.11 C80.6700053,5.6099925 80.505007,4.65500205 80.1750053,4.245 C79.8450037,3.83499795 79.0600115,3.63 77.8200053,3.63 L77.8200053,3 L91.5000053,3 L91.7700053,6.96 L91.1400053,6.96 L90.9900053,6.36 C90.7500041,5.4799956 90.4300073,4.88500155 90.0300053,4.575 C89.6300033,4.26499845 88.7900117,4.11 87.5100053,4.11 L83.0700053,4.11 L83.0700053,10.92 L84.5700053,10.92 C86.0700128,10.92 87.0250033,10.7550017 87.4350053,10.425 C87.8450074,10.0949984 88.0500053,9.3000063 88.0500053,8.04 L88.6800053,8.04 L88.6800053,14.91 L88.0500053,14.91 C88.0500053,13.6499937 87.8450074,12.8550017 87.4350053,12.525 C87.0250033,12.1949984 86.0700128,12.03 84.5700053,12.03 L83.0700053,12.03 L83.0700053,16.41 C83.0700053,17.9100075 83.2350037,18.864998 83.5650053,19.275 C83.895007,19.6850021 84.6799991,19.89 85.9200053,19.89 L88.5000053,19.89 C89.4000098,19.89 90.085003,19.8000009 90.5550053,19.62 C91.0250077,19.4399991 91.3450045,19.2100014 91.5150053,18.93 C91.6850062,18.6499986 91.8400046,18.210003 91.9800053,17.61 L92.1300053,17.01 L92.7600053,17.01 L92.5200053,21 L77.8200053,21 Z M99.8100061,21 L92.9400061,21 L92.9400061,20.37 C93.9400111,20.37 94.5850047,20.1600021 94.8750061,19.74 C95.1650076,19.3199979 95.3100061,18.3600075 95.3100061,16.86 L95.3100061,7.38 C95.3100061,5.8799925 95.1650076,4.9200021 94.8750061,4.5 C94.5850047,4.0799979 93.9400111,3.87 92.9400061,3.87 L92.9400061,3.24 L97.4400061,2.49 L97.4400061,16.86 C97.4400061,18.3600075 97.5850047,19.3199979 97.8750061,19.74 C98.1650076,20.1600021 98.8100011,20.37 99.8100061,20.37 L99.8100061,21 Z M102.630007,14.13 L107.610007,14.13 C107.810008,13.5699972 107.725009,13.0250027 107.355007,12.495 C106.985005,11.9649974 106.350011,11.7 105.450007,11.7 C104.810004,11.7 104.235009,11.9199978 103.725007,12.36 C103.215004,12.8000022 102.850008,13.3899963 102.630007,14.13 Z M102.450007,15.24 C102.270006,16.7200074 102.505004,17.9249954 103.155007,18.855 C103.80501,19.7850047 104.869999,20.25 106.350007,20.25 C106.850009,20.25 107.420004,20.1200013 108.060007,19.86 C108.70001,19.5999987 109.230005,19.270002 109.650007,18.87 L110.190007,19.53 C109.650004,20.1100029 108.960011,20.5849982 108.120007,20.955 C107.280003,21.3250019 106.440011,21.51 105.600007,21.51 C103.979999,21.51 102.650012,20.9750054 101.610007,19.905 C100.570002,18.8349947 100.050007,17.5300077 100.050007,15.99 C100.050007,14.4499923 100.615001,13.1500053 101.745007,12.09 C102.875013,11.0299947 104.16,10.5 105.600007,10.5 C106.960014,10.5 108.070003,10.9749953 108.930007,11.925 C109.790011,12.8750048 110.040009,13.9799937 109.680007,15.24 L102.450007,15.24 Z M116.220008,11.46 C115.420004,11.46 114.74001,11.9199954 114.180008,12.84 C113.620005,13.7600046 113.340008,14.8999932 113.340008,16.26 C113.340008,17.5000062 113.645005,18.4749965 114.255008,19.185 C114.865011,19.8950036 115.770002,20.25 116.970008,20.25 C118.130013,20.25 119.200003,19.7900046 120.180008,18.87 L120.690008,19.53 C119.470002,20.8500066 117.980016,21.51 116.220008,21.51 C114.579999,21.51 113.285012,21.0200049 112.335008,20.04 C111.385003,19.0599951 110.910008,17.8000077 110.910008,16.26 C110.910008,14.5999917 111.470002,13.2250055 112.590008,12.135 C113.710013,11.0449946 114.920001,10.5 116.220008,10.5 C117.400014,10.5 118.290005,10.7099979 118.890008,11.13 C119.490011,11.5500021 119.790008,12.059997 119.790008,12.66 C119.790008,12.9800016 119.685009,13.2749987 119.475008,13.545 C119.265007,13.8150014 118.93001,13.95 118.470008,13.95 C118.150006,13.95 117.875009,13.8350012 117.645008,13.605 C117.415006,13.3749989 117.300008,13.0900017 117.300008,12.75 C117.300008,11.8899957 116.940011,11.46 116.220008,11.46 Z M121.860008,12.06 L120.300008,12.06 L120.300008,11.34 C121.160013,11.1599991 121.790006,10.770003 122.190008,10.17 C122.59001,9.569997 122.850008,8.7500052 122.970008,7.71 L123.990008,7.71 L123.990008,11.01 L126.600008,11.01 L126.600008,12.06 L123.990008,12.06 L123.990008,18.06 C123.990008,19.5000072 124.440004,20.22 125.340008,20.22 C125.920011,20.22 126.570005,19.8800034 127.290008,19.2 L127.800008,19.71 C127.380006,20.2100025 126.875011,20.6199984 126.285008,20.94 C125.695005,21.2600016 125.150011,21.42 124.650008,21.42 C123.790004,21.42 123.110011,21.1400028 122.610008,20.58 C122.110006,20.0199972 121.860008,19.1800056 121.860008,18.06 L121.860008,12.06 Z M137.670009,12.36 C137.670009,13.3000047 137.270013,13.77 136.470009,13.77 C136.190008,13.77 135.94501,13.6600011 135.735009,13.44 C135.525008,13.2199989 135.420009,12.9700014 135.420009,12.69 C135.420009,12.0299967 135.100012,11.7 134.460009,11.7 C134.000007,11.7 133.500012,12.0199968 132.960009,12.66 C132.420006,13.3000032 132.150009,14.1499947 132.150009,15.21 L132.150009,16.86 C132.150009,18.3600075 132.295008,19.3199979 132.585009,19.74 C132.875011,20.1600021 133.520004,20.37 134.520009,20.37 L134.520009,21 L127.650009,21 L127.650009,20.37 C128.650014,20.37 129.295008,20.1600021 129.585009,19.74 C129.875011,19.3199979 130.020009,18.3600075 130.020009,16.86 L130.020009,15.36 C130.020009,13.8799926 129.875011,12.9300021 129.585009,12.51 C129.295008,12.0899979 128.650014,11.88 127.650009,11.88 L127.650009,11.25 L131.640009,10.5 C131.82001,10.8800019 131.990008,11.5999947 132.150009,12.66 C132.450011,12.059997 132.900006,11.5500021 133.500009,11.13 C134.100012,10.7099979 134.700006,10.5 135.300009,10.5 C136.060013,10.5 136.645007,10.699998 137.055009,11.1 C137.465011,11.500002 137.670009,11.9199978 137.670009,12.36 Z M148.26001,12.12 C149.460016,13.1800053 150.06001,14.4699924 150.06001,15.99 C150.06001,17.5100076 149.465016,18.8099946 148.27501,19.89 C147.085004,20.9700054 145.660018,21.51 144.00001,21.51 C142.340002,21.51 140.915016,20.9700054 139.72501,19.89 C138.535004,18.8099946 137.94001,17.5100076 137.94001,15.99 C137.94001,14.4699924 138.535004,13.1750054 139.72501,12.105 C140.915016,11.0349947 142.340002,10.5 144.00001,10.5 C145.660018,10.5 147.080004,11.0399946 148.26001,12.12 Z M146.70001,19.14 C147.320013,18.3199959 147.63001,17.2700064 147.63001,15.99 C147.63001,14.7099936 147.320013,13.6650041 146.70001,12.855 C146.080007,12.044996 145.180016,11.64 144.00001,11.64 C142.820004,11.64 141.920013,12.0499959 141.30001,12.87 C140.680007,13.6900041 140.37001,14.7299937 140.37001,15.99 C140.37001,17.2500063 140.680007,18.2899959 141.30001,19.11 C141.920013,19.9300041 142.820004,20.34 144.00001,20.34 C145.180016,20.34 146.080007,19.940004 146.70001,19.14 Z M155.340011,12.66 C156.480016,11.2199928 157.870002,10.5 159.510011,10.5 C160.810017,10.5 161.785007,10.9099959 162.435011,11.73 C163.085014,12.5500041 163.410011,13.6299933 163.410011,14.97 L163.410011,16.86 C163.410011,18.3600075 163.555009,19.3199979 163.845011,19.74 C164.135012,20.1600021 164.780006,20.37 165.780011,20.37 L165.780011,21 L158.910011,21 L158.910011,20.37 C159.890016,20.37 160.530009,20.1550022 160.830011,19.725 C161.130012,19.2949979 161.280011,18.3400074 161.280011,16.86 L161.280011,15.12 C161.280011,12.9799893 160.450019,11.91 158.790011,11.91 C157.930006,11.91 157.140014,12.209997 156.420011,12.81 C155.700007,13.410003 155.340011,14.109996 155.340011,14.91 L155.340011,16.86 C155.340011,18.4000077 155.460009,19.369998 155.700011,19.77 C155.940012,20.170002 156.520006,20.37 157.440011,20.37 L157.440011,21 L150.840011,21 L150.840011,20.37 C151.840016,20.37 152.485009,20.1600021 152.775011,19.74 C153.065012,19.3199979 153.210011,18.3600075 153.210011,16.86 L153.210011,15.36 C153.210011,13.8799926 153.065012,12.9300021 152.775011,12.51 C152.485009,12.0899979 151.840016,11.88 150.840011,11.88 L150.840011,11.25 L154.830011,10.5 C155.010012,10.8800019 155.18001,11.5999947 155.340011,12.66 Z M173.400011,18.24 C173.400011,19.2000048 173.055015,19.984997 172.365011,20.595 C171.675008,21.2050031 170.830016,21.51 169.830011,21.51 C169.47001,21.51 169.100013,21.4400007 168.720011,21.3 C168.34001,21.1599993 168.035013,21.0250007 167.805011,20.895 C167.57501,20.7649994 167.360012,20.6650004 167.160011,20.595 C166.96001,20.5249997 166.820012,20.5599993 166.740011,20.7 C166.660011,20.8400007 166.620011,21.109998 166.620011,21.51 L165.990011,21.51 L165.990011,17.13 L166.620011,17.13 C166.620011,17.9100039 166.920008,18.6649964 167.520011,19.395 C168.120014,20.1250037 168.910007,20.49 169.890011,20.49 C170.370014,20.49 170.77501,20.3400015 171.105011,20.04 C171.435013,19.7399985 171.600011,19.3800021 171.600011,18.96 C171.600011,18.3399969 171.040017,17.730003 169.920011,17.13 L168.240011,16.23 C166.920005,15.5099964 166.260011,14.5100064 166.260011,13.23 C166.260011,12.4499961 166.565008,11.8000026 167.175011,11.28 C167.785014,10.7599974 168.490007,10.5 169.290011,10.5 C169.970015,10.5 170.670008,10.6799982 171.390011,11.04 C171.630013,11.1800007 171.795011,11.2250003 171.885011,11.175 C171.975012,11.1249998 172.020011,10.900002 172.020011,10.5 L172.650011,10.5 L172.650011,13.98 L172.020011,13.98 C172.020011,13.3199967 171.795014,12.7350026 171.345011,12.225 C170.895009,11.7149975 170.310015,11.46 169.590011,11.46 C169.090009,11.46 168.710013,11.5799988 168.450011,11.82 C168.19001,12.0600012 168.060011,12.3699981 168.060011,12.75 C168.060011,13.0900017 168.19001,13.3849988 168.450011,13.635 C168.710013,13.8850013 169.190008,14.1999981 169.890011,14.58 L171.330011,15.36 C172.710018,16.1400039 173.400011,17.0999943 173.400011,18.24 Z" id="Shared-Electrons-Copy"></path>
                </g>
            </g>
            <path d="M291.428,143.136 C293.780012,145.368011 294.956,148.055984 294.956,151.2 C294.956,154.344016 293.780012,157.031989 291.428,159.264 C289.075988,161.496011 286.256016,162.612 282.968,162.612 C279.655983,162.612 276.824012,161.496011 274.472,159.264 C272.119988,157.031989 270.944,154.344016 270.944,151.2 C270.944,148.055984 272.119988,145.368011 274.472,143.136 C276.824012,140.903989 279.655983,139.788 282.968,139.788 C286.256016,139.788 289.075988,140.903989 291.428,143.136 Z M286.892,142.128 C285.763994,141.503997 284.456007,141.192 282.968,141.192 C281.479993,141.192 280.160006,141.497997 279.008,142.11 C277.855994,142.722003 276.956003,143.531995 276.308,144.54 C275.659997,145.548005 275.174002,146.615994 274.85,147.744 C274.525998,148.872006 274.364,150.023994 274.364,151.2 C274.364,152.376006 274.525998,153.527994 274.85,154.656 C275.174002,155.784006 275.659997,156.845995 276.308,157.842 C276.956003,158.838005 277.855994,159.641997 279.008,160.254 C280.160006,160.866003 281.479993,161.172 282.968,161.172 C284.456007,161.172 285.769994,160.866003 286.91,160.254 C288.050006,159.641997 288.943997,158.838005 289.592,157.842 C290.240003,156.845995 290.725998,155.784006 291.05,154.656 C291.374002,153.527994 291.536,152.376006 291.536,151.2 C291.536,150.023994 291.374002,148.872006 291.05,147.744 C290.725998,146.615994 290.240003,145.548005 289.592,144.54 C288.943997,143.531995 288.044006,142.728003 286.892,142.128 Z" id="O-Copy" fill="#23ABE3"></path>
            <g id="Hydrogen-Copy" transform="translate(167.000000, 235.000000)">
                <ellipse id="Oval" stroke="#524740" stroke-width="3" transform="translate(71.026055, 67.249205) rotate(-30.000000) translate(-71.026055, -67.249205) " cx="71.0260545" cy="67.2492045" rx="56" ry="45"></ellipse>
                <path d="M67.668,64.2 L67.668,70.032 C67.668,71.832009 67.865998,72.9839975 68.262,73.488 C68.658002,73.9920025 69.5999926,74.244 71.088,74.244 L71.088,75 L61.368,75 L61.368,74.244 C62.8560074,74.244 63.797998,73.9920025 64.194,73.488 C64.590002,72.9839975 64.788,71.832009 64.788,70.032 L64.788,58.332 C64.788,56.531991 64.590002,55.3860025 64.194,54.894 C63.797998,54.4019975 62.8560074,54.156 61.368,54.156 L61.368,53.4 L71.088,53.4 L71.088,54.156 C69.5999926,54.156 68.658002,54.4019975 68.262,54.894 C67.865998,55.3860025 67.668,56.531991 67.668,58.332 L67.668,62.868 L79.908,62.868 L79.908,58.332 C79.908,56.531991 79.704002,55.3860025 79.296,54.894 C78.887998,54.4019975 77.9400074,54.156 76.452,54.156 L76.452,53.4 L86.208,53.4 L86.208,54.156 C84.6959924,54.156 83.742002,54.4019975 83.346,54.894 C82.949998,55.3860025 82.752,56.531991 82.752,58.332 L82.752,70.032 C82.752,71.8560091 82.949998,73.0139975 83.346,73.506 C83.742002,73.9980025 84.6959924,74.244 86.208,74.244 L86.208,75 L76.452,75 L76.452,74.244 C77.9400074,74.244 78.887998,73.9920025 79.296,73.488 C79.704002,72.9839975 79.908,71.832009 79.908,70.032 L79.908,64.2 L67.668,64.2 Z" id="H-Copy-2" fill="#23ABE3"></path>
            </g>
            <g id="Hydrogen" transform="translate(42.000000, 80.000000)">
                <ellipse id="Oval" stroke="#524740" stroke-width="3" transform="translate(65.026055, 56.249205) rotate(-12.000000) translate(-65.026055, -56.249205) " cx="65.0260545" cy="56.2492045" rx="56" ry="45"></ellipse>
                <path d="M59.668,55.2 L59.668,61.032 C59.668,62.832009 59.865998,63.9839975 60.262,64.488 C60.658002,64.9920025 61.5999926,65.244 63.088,65.244 L63.088,66 L53.368,66 L53.368,65.244 C54.8560074,65.244 55.797998,64.9920025 56.194,64.488 C56.590002,63.9839975 56.788,62.832009 56.788,61.032 L56.788,49.332 C56.788,47.531991 56.590002,46.3860025 56.194,45.894 C55.797998,45.4019975 54.8560074,45.156 53.368,45.156 L53.368,44.4 L63.088,44.4 L63.088,45.156 C61.5999926,45.156 60.658002,45.4019975 60.262,45.894 C59.865998,46.3860025 59.668,47.531991 59.668,49.332 L59.668,53.868 L71.908,53.868 L71.908,49.332 C71.908,47.531991 71.704002,46.3860025 71.296,45.894 C70.887998,45.4019975 69.9400074,45.156 68.452,45.156 L68.452,44.4 L78.208,44.4 L78.208,45.156 C76.6959924,45.156 75.742002,45.4019975 75.346,45.894 C74.949998,46.3860025 74.752,47.531991 74.752,49.332 L74.752,61.032 C74.752,62.8560091 74.949998,64.0139975 75.346,64.506 C75.742002,64.9980025 76.6959924,65.244 78.208,65.244 L78.208,66 L68.452,66 L68.452,65.244 C69.9400074,65.244 70.887998,64.9920025 71.296,64.488 C71.704002,63.9839975 71.908,62.832009 71.908,61.032 L71.908,55.2 L59.668,55.2 Z" id="H-Copy" fill="#23ABE3"></path>
            </g>
            <g id="Valence-Shell" transform="translate(122.000000, 0.000000)">
                <ellipse id="Oval-Copy-8" stroke="#524740" stroke-width="3" transform="translate(163.135072, 154.442892) rotate(30.000000) translate(-163.135072, -154.442892) " cx="163.135072" cy="154.442892" rx="128.5" ry="103"></ellipse>
                <circle id="Oval-Copy-9" fill="#EF7D3B" cx="128" cy="44" r="12"></circle>
                <circle id="Oval-Copy-10" fill="#EF7D3B" cx="38" cy="109" r="12"></circle>
                <circle id="Oval-Copy-11" fill="#EF7D3B" cx="218" cy="66" r="12"></circle>
                <circle id="Oval-Copy-12" fill="#EF7D3B" cx="123" cy="251" r="12"></circle>
                <circle id="Oval-Copy-15" fill="#EF7D3B" cx="43" cy="149" r="12"></circle>
                <circle id="Oval-Copy-16" fill="#EF7D3B" cx="160" cy="259" r="12"></circle>
                <circle id="Oval-Copy-13" fill="#EF7D3B" cx="261" cy="237" r="12"></circle>
                <circle id="Oval-Copy-14" fill="#EF7D3B" cx="276" cy="127" r="12"></circle>
            </g>
        </g>
        <path d="M47.776,19.808 L50.224,19.808 L41.872,44 L39.424,44 L32.296,23.048 L25.132,44 L22.72,44 L14.332,19.808 L16.78,19.808 L23.944,40.328 L31.18,19.808 L33.376,19.808 L40.648,40.328 L47.776,19.808 Z M63.5440006,26 L65.9200006,26 L65.9200006,44 L63.5440006,44 L63.5440006,41.084 C61.6959914,43.2200107 59.3560148,44.288 56.5240006,44.288 C53.9559878,44.288 51.7660097,43.3820091 49.9540006,41.57 C48.1419916,39.7579909 47.2360006,37.5680128 47.2360006,35 C47.2360006,32.4319872 48.1419916,30.2420091 49.9540006,28.43 C51.7660097,26.6179909 53.9559878,25.712 56.5240006,25.712 C59.3800149,25.712 61.7199915,26.7799893 63.5440006,28.916 L63.5440006,26 Z M56.5600006,42.02 C58.5040103,42.02 60.141994,41.3420068 61.4740006,39.986 C62.8060073,38.6299932 63.4720006,36.9680098 63.4720006,35 C63.4720006,33.0319902 62.8060073,31.3700068 61.4740006,30.014 C60.141994,28.6579932 58.5040103,27.98 56.5600006,27.98 C54.639991,27.98 53.0020074,28.6579932 51.6460006,30.014 C50.2899938,31.3700068 49.6120006,33.0319902 49.6120006,35 C49.6120006,36.9680098 50.2899938,38.6299932 51.6460006,39.986 C53.0020074,41.3420068 54.639991,42.02 56.5600006,42.02 Z M78.4840013,39.968 L79.6720013,41.804 C79.5280005,41.996001 79.3360025,42.2239987 79.0960013,42.488 C78.8560001,42.7520013 78.3160055,43.1179977 77.4760013,43.586 C76.6359971,44.0540023 75.7720057,44.288 74.8840013,44.288 C73.3719937,44.288 72.1060064,43.8380045 71.0860013,42.938 C70.0659962,42.0379955 69.5560013,40.7360085 69.5560013,39.032 L69.5560013,28.16 L66.6760013,28.16 L66.6760013,25.964 L69.5560013,25.964 L69.5560013,20.276 L71.9320013,19.988 L71.9320013,25.964 L77.3680013,25.964 L77.3680013,28.16 L71.9320013,28.16 L71.9320013,38.492 C71.9320013,39.5960055 72.2739978,40.4719968 72.9580013,41.12 C73.6420047,41.7680032 74.4279968,42.092 75.3160013,42.092 C75.868004,42.092 76.4079986,41.9240017 76.9360013,41.588 C77.4640039,41.2519983 77.854,40.9220016 78.1060013,40.598 C78.3580025,40.2739984 78.4840013,40.0640005 78.4840013,39.968 Z M87.9880019,41.912 C89.5960099,41.912 91.0359955,41.4560046 92.3080019,40.544 C93.5800082,39.6319954 94.4439996,38.5640061 94.9000019,37.34 L96.9160019,38.06 C96.3639991,39.5720076 95.2900099,40.9639936 93.6940019,42.236 C92.0979939,43.5080064 90.1960129,44.1320001 87.9880019,44.108 C85.9719918,44.108 84.1300102,43.4840062 82.4620019,42.236 C80.7939935,40.9879938 79.6600049,39.3920097 79.0600019,37.448 C78.8200007,36.655996 78.7000019,35.7920047 78.7000019,34.856 C78.7000019,32.263987 79.5999929,30.068009 81.4000019,28.268 C83.2000109,26.467991 85.3959889,25.5560001 87.9880019,25.532 C90.3400136,25.5560001 92.3919931,26.3479922 94.1440019,27.908 C95.8960106,29.4680078 96.9040006,31.3999885 97.1680019,33.704 C97.192002,33.8240006 97.2040019,33.979999 97.2040019,34.172 L81.4720019,37.016 C81.8800039,38.4560072 82.6959958,39.6379954 83.9200019,40.562 C85.144008,41.4860046 86.4999944,41.9360001 87.9880019,41.912 Z M87.7720019,27.728 C85.9719929,27.7520001 84.4300083,28.3999936 83.1460019,29.672 C81.8619955,30.9440064 81.1720024,32.4679911 81.0760019,34.244 C81.0760019,34.3160004 81.0820018,34.4419991 81.0940019,34.622 C81.1060019,34.8020009 81.1120019,34.9519994 81.1120019,35.072 L94.5040019,32.66 C94.0479996,31.1959927 93.1960081,30.0020046 91.9480019,29.078 C90.6999956,28.1539954 89.3080096,27.7039999 87.7720019,27.728 Z M106.564003,25.712 C107.836009,25.712 108.999997,26.0239969 110.056003,26.648 L109.228003,29.024 C108.219997,28.2799963 107.200008,27.908 106.168003,27.908 C104.655995,27.908 103.384008,28.4419947 102.352003,29.51 C101.319997,30.5780053 100.804003,31.8919922 100.804003,33.452 L100.804003,44 L98.4280025,44 L98.4280025,26 L100.804003,26 L100.804003,28.664 C102.26801,26.6959902 104.187991,25.712 106.564003,25.712 Z M145.516004,44 L143.140004,44 L138.496004,24.236 L132.232004,44 L130.648004,44 L124.420004,24.236 L119.776004,44 L117.400004,44 L122.980004,19.808 L125.140004,19.808 L131.476004,39.176 L137.740004,19.808 L139.936004,19.808 L145.516004,44 Z M161.032004,41.552 C159.231995,43.3760091 157.048017,44.288 154.480004,44.288 C151.911992,44.288 149.722013,43.3820091 147.910004,41.57 C146.097995,39.7579909 145.192004,37.5680128 145.192004,35 C145.192004,32.4319872 146.097995,30.2420091 147.910004,28.43 C149.722013,26.6179909 151.911992,25.712 154.480004,25.712 C157.048017,25.712 159.237995,26.6179909 161.050004,28.43 C162.862013,30.2420091 163.768004,32.4319872 163.768004,35 C163.768004,37.5440127 162.856014,39.7279909 161.032004,41.552 Z M154.516004,42.02 C156.460014,42.02 158.097998,41.3420068 159.430004,39.986 C160.762011,38.6299932 161.428004,36.9680098 161.428004,35 C161.428004,33.0319902 160.762011,31.3640068 159.430004,29.996 C158.097998,28.6279932 156.460014,27.944 154.516004,27.944 C152.595995,27.944 150.964011,28.6279932 149.620004,29.996 C148.275998,31.3640068 147.604004,33.0319902 147.604004,35 C147.604004,36.9680098 148.275998,38.6299932 149.620004,39.986 C150.964011,41.3420068 152.595995,42.02 154.516004,42.02 Z M165.532005,44 L165.532005,17.216 L167.908005,17.216 L167.908005,44 L165.532005,44 Z M178.888006,41.912 C180.496014,41.912 181.935999,41.4560046 183.208006,40.544 C184.480012,39.6319954 185.344003,38.5640061 185.800006,37.34 L187.816006,38.06 C187.264003,39.5720076 186.190014,40.9639936 184.594006,42.236 C182.997998,43.5080064 181.096017,44.1320001 178.888006,44.108 C176.871996,44.108 175.030014,43.4840062 173.362006,42.236 C171.693997,40.9879938 170.560009,39.3920097 169.960006,37.448 C169.720004,36.655996 169.600006,35.7920047 169.600006,34.856 C169.600006,32.263987 170.499997,30.068009 172.300006,28.268 C174.100015,26.467991 176.295993,25.5560001 178.888006,25.532 C181.240017,25.5560001 183.291997,26.3479922 185.044006,27.908 C186.796014,29.4680078 187.804004,31.3999885 188.068006,33.704 C188.092006,33.8240006 188.104006,33.979999 188.104006,34.172 L172.372006,37.016 C172.780008,38.4560072 173.596,39.6379954 174.820006,40.562 C176.044012,41.4860046 177.399998,41.9360001 178.888006,41.912 Z M178.672006,27.728 C176.871997,27.7520001 175.330012,28.3999936 174.046006,29.672 C172.761999,30.9440064 172.072006,32.4679911 171.976006,34.244 C171.976006,34.3160004 171.982006,34.4419991 171.994006,34.622 C172.006006,34.8020009 172.012006,34.9519994 172.012006,35.072 L185.404006,32.66 C184.948003,31.1959927 184.096012,30.0020046 182.848006,29.078 C181.599999,28.1539954 180.208013,27.7039999 178.672006,27.728 Z M198.220006,44.288 C195.651993,44.288 193.462015,43.3820091 191.650006,41.57 C189.837997,39.7579909 188.932006,37.5680128 188.932006,35 C188.932006,32.4319872 189.837997,30.2420091 191.650006,28.43 C193.462015,26.6179909 195.651993,25.712 198.220006,25.712 C199.852014,25.712 201.369999,26.113996 202.774006,26.918 C204.178013,27.722004 205.288002,28.7959933 206.104006,30.14 L203.944006,31.184 C203.296003,30.1999951 202.468011,29.4200029 201.460006,28.844 C200.452001,28.2679971 199.372012,27.98 198.220006,27.98 C196.275997,27.98 194.638013,28.6579932 193.306006,30.014 C191.974,31.3700068 191.308006,33.0319902 191.308006,35 C191.308006,36.9680098 191.974,38.6299932 193.306006,39.986 C194.638013,41.3420068 196.275997,42.02 198.220006,42.02 C199.372012,42.02 200.452001,41.7320029 201.460006,41.156 C202.468011,40.5799971 203.296003,39.8000049 203.944006,38.816 L206.104006,39.86 C205.288002,41.2040067 204.178013,42.277996 202.774006,43.082 C201.369999,43.886004 199.852014,44.288 198.220006,44.288 Z M221.008007,26 L223.384007,26 L223.384007,44 L221.008007,44 L221.008007,41.336 C219.544,43.3040098 217.624019,44.288 215.248007,44.288 C213.159996,44.288 211.408014,43.5500074 209.992007,42.074 C208.576,40.5979926 207.868007,38.7800108 207.868007,36.62 L207.868007,26 L210.316007,26 L210.316007,36.548 C210.316007,38.0840077 210.832002,39.3859947 211.864007,40.454 C212.896012,41.5220053 214.155999,42.056 215.644007,42.056 C217.156014,42.056 218.428002,41.5220053 219.460007,40.454 C220.492012,39.3859947 221.008007,38.0840077 221.008007,36.548 L221.008007,26 Z M226.480008,44 L226.480008,17.216 L228.856008,17.216 L228.856008,44 L226.480008,44 Z M239.836008,41.912 C241.444016,41.912 242.884002,41.4560046 244.156008,40.544 C245.428015,39.6319954 246.292006,38.5640061 246.748008,37.34 L248.764008,38.06 C248.212005,39.5720076 247.138016,40.9639936 245.542008,42.236 C243.946,43.5080064 242.044019,44.1320001 239.836008,44.108 C237.819998,44.108 235.978017,43.4840062 234.310008,42.236 C232.642,40.9879938 231.508011,39.3920097 230.908008,37.448 C230.668007,36.655996 230.548008,35.7920047 230.548008,34.856 C230.548008,32.263987 231.447999,30.068009 233.248008,28.268 C235.048017,26.467991 237.243995,25.5560001 239.836008,25.532 C242.18802,25.5560001 244.239999,26.3479922 245.992008,27.908 C247.744017,29.4680078 248.752007,31.3999885 249.016008,33.704 C249.040008,33.8240006 249.052008,33.979999 249.052008,34.172 L233.320008,37.016 C233.72801,38.4560072 234.544002,39.6379954 235.768008,40.562 C236.992014,41.4860046 238.348001,41.9360001 239.836008,41.912 Z M239.620008,27.728 C237.819999,27.7520001 236.278015,28.3999936 234.994008,29.672 C233.710002,30.9440064 233.020009,32.4679911 232.924008,34.244 C232.924008,34.3160004 232.930008,34.4419991 232.942008,34.622 C232.954008,34.8020009 232.960008,34.9519994 232.960008,35.072 L246.352008,32.66 C245.896006,31.1959927 245.044014,30.0020046 243.796008,29.078 C242.548002,28.1539954 241.156016,27.7039999 239.620008,27.728 Z M266.476009,48.752 C266.356009,48.6799996 266.19401,48.5780007 265.990009,48.446 C265.786008,48.3139993 265.384012,48.0020025 264.784009,47.51 C264.184006,47.0179975 263.614012,46.4840029 263.074009,45.908 C262.534007,45.3319971 261.940013,44.5640048 261.292009,43.604 C260.644006,42.6439952 260.080012,41.6240054 259.600009,40.544 C259.120007,39.4639946 258.718011,38.1680076 258.394009,36.656 C258.070008,35.1439924 257.908009,33.5720082 257.908009,31.94 C257.908009,29.7079888 258.202007,27.6020099 258.790009,25.622 C259.378012,23.6419901 260.092005,22.0340062 260.932009,20.798 C261.772014,19.5619938 262.612005,18.4940045 263.452009,17.594 C264.292014,16.6939955 265.000007,16.0520019 265.576009,15.668 L266.476009,15.092 L267.736009,16.388 C267.520008,16.5320007 267.238011,16.7359987 266.890009,17 C266.542008,17.2640013 265.924014,17.8699953 265.036009,18.818 C264.148005,19.7660047 263.362013,20.7919945 262.678009,21.896 C261.994006,23.0000055 261.376012,24.4579909 260.824009,26.27 C260.272007,28.0820091 259.996009,29.9719902 259.996009,31.94 C259.996009,33.9080098 260.260007,35.7859911 260.788009,37.574 C261.316012,39.3620089 261.964006,40.8259943 262.732009,41.966 C263.500013,43.1060057 264.268006,44.1019957 265.036009,44.954 C265.804013,45.8060043 266.452007,46.4239981 266.980009,46.808 L267.772009,47.348 L266.476009,48.752 Z M281.20001,19.808 L283.57601,19.808 L283.57601,44 L281.20001,44 L281.20001,33.344 L269.28401,33.344 L269.28401,44 L266.90801,44 L266.90801,19.808 L269.28401,19.808 L269.28401,30.968 L281.20001,30.968 L281.20001,19.808 Z M286.960011,61 L286.744011,58.984 C286.816011,58.9119996 287.506004,58.3060057 288.814011,57.166 C290.122017,56.0259943 291.280006,54.9700049 292.288011,53.998 C293.296016,53.0259951 294.436004,51.8620068 295.708011,50.506 C296.980017,49.1499932 297.976007,47.8600061 298.696011,46.636 C299.416014,45.4119939 299.776011,44.3560044 299.776011,43.468 C299.776011,42.1719935 299.278016,41.0740045 298.282011,40.174 C297.286006,39.2739955 296.044018,38.824 294.556011,38.824 C292.059998,38.824 290.020019,40.3119851 288.436011,43.288 L286.816011,41.668 C287.032012,41.259998 287.314009,40.8280023 287.662011,40.372 C288.010012,39.9159977 288.508007,39.3700032 289.156011,38.734 C289.804014,38.0979968 290.626006,37.576002 291.622011,37.168 C292.618016,36.759998 293.680005,36.556 294.808011,36.556 C296.968022,36.556 298.744004,37.2339932 300.136011,38.59 C301.528018,39.9460068 302.224011,41.523991 302.224011,43.324 C302.224011,44.4040054 301.906014,45.5799936 301.270011,46.852 C300.634008,48.1240064 299.752016,49.3959936 298.624011,50.668 C297.496005,51.9400064 296.482015,53.0199956 295.582011,53.908 C294.682006,54.7960044 293.614017,55.7739947 292.378011,56.842 C291.142005,57.9100053 290.464011,58.5039994 290.344011,58.624 L302.908011,58.624 L302.908011,61 L286.960011,61 Z M316.264011,43.352 C315.112006,43.9760031 313.768019,44.288 312.232011,44.288 C310.696004,44.288 309.346017,43.9700032 308.182011,43.334 C307.018006,42.6979968 306.082015,41.8100057 305.374011,40.67 C304.666008,39.5299943 304.138013,38.2280073 303.790011,36.764 C303.44201,35.2999927 303.268011,33.6920088 303.268011,31.94 C303.268011,28.2919818 304.012004,25.3160115 305.500011,23.012 C306.988019,20.7079885 309.231996,19.556 312.232011,19.556 C315.232026,19.556 317.476004,20.7079885 318.964011,23.012 C320.452019,25.3160115 321.196011,28.2919818 321.196011,31.94 C321.196011,33.6920088 321.022013,35.2999927 320.674011,36.764 C320.32601,38.2280073 319.798015,39.5299943 319.090011,40.67 C318.382008,41.8100057 317.440017,42.7039968 316.264011,43.352 Z M307.264011,39.284 C308.368017,41.1320092 310.024,42.056 312.232011,42.056 C314.440022,42.056 316.090006,41.1260093 317.182011,39.266 C318.274017,37.4059907 318.820011,34.9640151 318.820011,31.94 C318.820011,28.9159849 318.274017,26.4740093 317.182011,24.614 C316.090006,22.7539907 314.440022,21.824 312.232011,21.824 C310.024,21.824 308.374017,22.7539907 307.282011,24.614 C306.190006,26.4740093 305.644011,28.9159849 305.644011,31.94 C305.644011,34.9640151 306.184006,37.4119906 307.264011,39.284 Z M320.584012,48.752 L319.288012,47.348 C319.504013,47.2279994 319.78601,47.0360013 320.134012,46.772 C320.482014,46.5079987 321.100008,45.9080047 321.988012,44.972 C322.876016,44.0359953 323.662009,43.0220055 324.346012,41.93 C325.030015,40.8379945 325.654009,39.392009 326.218012,37.592 C326.782015,35.791991 327.064012,33.9080098 327.064012,31.94 C327.064012,29.9719902 326.800015,28.0940089 326.272012,26.306 C325.744009,24.5179911 325.102016,23.0480058 324.346012,21.896 C323.590008,20.7439942 322.828016,19.7300044 322.060012,18.854 C321.292008,17.9779956 320.644015,17.3480019 320.116012,16.964 L319.324012,16.388 L320.584012,15.092 C320.704013,15.1640004 320.866011,15.2659993 321.070012,15.398 C321.274013,15.5300007 321.676009,15.8419975 322.276012,16.334 C322.876015,16.8260025 323.446009,17.3599971 323.986012,17.936 C324.526015,18.5120029 325.120009,19.2919951 325.768012,20.276 C326.416015,21.2600049 326.98001,22.2859947 327.460012,23.354 C327.940014,24.4220053 328.34201,25.7119924 328.666012,27.224 C328.990014,28.7360076 329.152012,30.3079918 329.152012,31.94 C329.152012,33.5720082 328.996014,35.1379925 328.684012,36.638 C328.37201,38.1380075 327.964014,39.4339945 327.460012,40.526 C326.956009,41.6180055 326.398015,42.6379953 325.786012,43.586 C325.174009,44.5340047 324.562015,45.3139969 323.950012,45.926 C323.338009,46.5380031 322.780014,47.0659978 322.276012,47.51 C321.772009,47.9540022 321.364014,48.271999 321.052012,48.464 L320.584012,48.752 Z" id="Water-Molecule-(H20)-Copy" fill="#23ABE3"></path>
    </g>
</svg>