<?xml version="1.0" encoding="UTF-8"?>
<svg width="900px" height="410px" viewBox="0 0 900 410" version="1.1" xmlns="http://www.w3.org/2000/svg" xmlns:xlink="http://www.w3.org/1999/xlink">
    <!-- Generator: Sketch 52.5 (67469) - http://www.bohemiancoding.com/sketch -->
    <title>Water_Molecule</title>
    <desc>Created with Sketch.</desc>
    <g id="Water_Molecule" stroke="none" stroke-width="1" fill="none" fill-rule="evenodd">
        <rect id="Rectangle" stroke="#3D3530" stroke-width="2" fill="#EEEEEE" x="1" y="1" width="898" height="428"></rect>
        <g id="Illustration" transform="translate(227.000000, -12.000000)">
            <g id="Inner-shells" transform="translate(192.000000, 74.000000)">
                <ellipse id="Oval" stroke="#524740" stroke-width="3" transform="translate(98.699413, 81.692441) rotate(-13.000000) translate(-98.699413, -81.692441) " cx="98.6994127" cy="81.6924408" rx="86" ry="63"></ellipse>
                <circle id="Oval-Copy-6" fill="#EF7D3B" cx="56" cy="28" r="12"></circle>
                <circle id="Oval-Copy-7" fill="#EF7D3B" cx="141" cy="130" r="12"></circle>
            </g>
            <g id="Labels" transform="translate(0.000000, 217.000000)" fill="#524740">
                <g id="Shared-electrons">
                    <path d="M2.864,16.28 C2.49599816,16.5840015 2.26400048,16.9599978 2.168,17.408 L1.688,17.408 L1.688,12.128 L2.192,12.128 C2.192,12.1920003 2.19599996,12.2759995 2.204,12.38 C2.21200004,12.4840005 2.24399972,12.6839985 2.3,12.98 C2.35600028,13.2760015 2.43599948,13.5599986 2.54,13.832 C2.64400052,14.1040014 2.80799888,14.4079983 3.032,14.744 C3.25600112,15.0800017 3.51599852,15.3679988 3.812,15.608 C4.10800148,15.8480012 4.49999756,16.0479992 4.988,16.208 C5.47600244,16.3680008 6.01599704,16.448 6.608,16.448 C7.47200432,16.448 8.18799716,16.2000025 8.756,15.704 C9.32400284,15.2079975 9.608,14.5760038 9.608,13.808 C9.608,12.8319951 8.6880092,11.8640048 6.848,10.904 L4.544,9.728 C3.79199624,9.327998 3.16000256,8.78400344 2.648,8.096 C2.13599744,7.40799656 1.88,6.63200432 1.88,5.768 C1.88,4.75999496 2.25599624,3.91200344 3.008,3.224 C3.76000376,2.53599656 4.71199424,2.192 5.864,2.192 C6.92000528,2.192 7.89599552,2.51999672 8.792,3.176 C9.16000184,2.87199848 9.39199952,2.50400216 9.488,2.072 L9.968,2.072 L9.968,7.352 L9.464,7.352 C9.2239988,4.551986 8.00001104,3.152 5.792,3.152 C5.11999664,3.152 4.5640022,3.35599796 4.124,3.764 C3.6839978,4.17200204 3.464,4.67999696 3.464,5.288 C3.464,5.88000296 3.67599788,6.37999796 4.1,6.788 C4.52400212,7.19600204 5.28799448,7.68799712 6.392,8.264 L8.672,9.44 C10.3520084,10.2880042 11.192,11.5039921 11.192,13.088 C11.192,14.3680064 10.7480044,15.407996 9.86,16.208 C8.97199556,17.008004 7.8880064,17.408 6.608,17.408 C6.06399728,17.408 5.54400248,17.3280008 5.048,17.168 C4.55199752,17.0079992 4.104002,16.828001 3.704,16.628 C3.303998,16.427999 3.0240008,16.3120002 2.864,16.28 Z M25.64,17 L20.336,17 L20.336,16.496 C21.0880038,16.496 21.559999,16.3360016 21.752,16.016 C21.944001,15.6959984 22.04,14.9200062 22.04,13.688 L22.04,12.296 C22.04,10.5839914 21.4320061,9.728 20.216,9.728 C19.5759968,9.728 18.9840027,9.96399764 18.44,10.436 C17.8959973,10.9080024 17.624,11.4719967 17.624,12.128 L17.624,13.688 C17.624,14.9360062 17.7119991,15.7159984 17.888,16.028 C18.0640009,16.3400016 18.4799967,16.496 19.136,16.496 L19.136,17 L14.024,17 L14.024,16.496 C14.824004,16.496 15.3399988,16.3280017 15.572,15.992 C15.8040012,15.6559983 15.92,14.888006 15.92,13.688 L15.92,6.104 C15.92,4.903994 15.8040012,4.13600168 15.572,3.8 C15.3399988,3.46399832 14.824004,3.296 14.024,3.296 L14.024,2.792 L17.624,2.192 L17.624,10.328 C18.5680047,9.17599424 19.6159942,8.6 20.768,8.6 C22.7360098,8.6 23.72,9.79198808 23.72,12.176 L23.72,13.688 C23.72,14.888006 23.8359988,15.6559983 24.068,15.992 C24.3000012,16.3280017 24.8239959,16.496 25.64,16.496 L25.64,17 Z M36.584,16.52 C36.1199977,17.0160025 35.592003,17.264 35,17.264 C34.0399952,17.264 33.4960006,16.8000046 33.368,15.872 C32.2959946,16.8320048 31.2960046,17.312 30.368,17.312 C29.759997,17.312 29.2480021,17.1320018 28.832,16.772 C28.4159979,16.4119982 28.208,15.9200031 28.208,15.296 C28.208,13.6159916 29.911983,12.480003 33.32,11.888 C33.32,10.9439953 33.216001,10.2880018 33.008,9.92 C32.799999,9.55199816 32.3680033,9.368 31.712,9.368 C31.3919984,9.368 31.0840015,9.47199896 30.788,9.68 C30.4919985,9.88800104 30.344,10.1679982 30.344,10.52 C30.344,10.7600012 30.2640008,10.9599992 30.104,11.12 C29.9439992,11.2800008 29.7520011,11.36 29.528,11.36 C29.2879988,11.36 29.0880008,11.2800008 28.928,11.12 C28.7679992,10.9599992 28.688,10.7600012 28.688,10.52 C28.688,9.9599972 28.9959969,9.5000018 29.612,9.14 C30.2280031,8.7799982 30.935996,8.6 31.736,8.6 C32.9040058,8.6 33.7439974,8.85599744 34.256,9.368 C34.7680026,9.88000256 35.024,10.7119942 35.024,11.864 L35.024,15.488 C35.024,16.1120031 35.2079982,16.424 35.576,16.424 C35.784001,16.424 36.0079988,16.3040012 36.248,16.064 L36.584,16.52 Z M33.32,15.08 L33.32,12.632 C31.111989,13.1440026 30.008,13.9359946 30.008,15.008 C30.008,15.3760018 30.1159989,15.6719989 30.332,15.896 C30.5480011,16.1200011 30.8159984,16.232 31.136,16.232 C31.728003,16.232 32.4559957,15.8480038 33.32,15.08 Z M47.096,10.088 C47.096,10.8400038 46.7760032,11.216 46.136,11.216 C45.9119989,11.216 45.7160008,11.1280009 45.548,10.952 C45.3799992,10.7759991 45.296,10.5760011 45.296,10.352 C45.296,9.82399736 45.0400026,9.56 44.528,9.56 C44.1599982,9.56 43.7600022,9.81599744 43.328,10.328 C42.8959978,10.8400026 42.68,11.5199958 42.68,12.368 L42.68,13.688 C42.68,14.888006 42.7959988,15.6559983 43.028,15.992 C43.2600012,16.3280017 43.775996,16.496 44.576,16.496 L44.576,17 L39.08,17 L39.08,16.496 C39.880004,16.496 40.3959988,16.3280017 40.628,15.992 C40.8600012,15.6559983 40.976,14.888006 40.976,13.688 L40.976,12.488 C40.976,11.3039941 40.8600012,10.5440017 40.628,10.208 C40.3959988,9.87199832 39.880004,9.704 39.08,9.704 L39.08,9.2 L42.272,8.6 C42.4160007,8.90400152 42.5519994,9.47999576 42.68,10.328 C42.9200012,9.8479976 43.2799976,9.44000168 43.76,9.104 C44.2400024,8.76799832 44.7199976,8.6 45.2,8.6 C45.808003,8.6 46.2759984,8.7599984 46.604,9.08 C46.9320016,9.4000016 47.096,9.73599824 47.096,10.088 Z M51.608,11.504 L55.592,11.504 C55.7520008,11.0559978 55.6840015,10.6200021 55.388,10.196 C55.0919985,9.77199788 54.5840036,9.56 53.864,9.56 C53.3519974,9.56 52.892002,9.73599824 52.484,10.088 C52.075998,10.4400018 51.7840009,10.911997 51.608,11.504 Z M51.464,12.392 C51.3199993,13.5760059 51.5079974,14.5399963 52.028,15.284 C52.5480026,16.0280037 53.3999941,16.4 54.584,16.4 C54.984002,16.4 55.4399974,16.296001 55.952,16.088 C56.4640026,15.879999 56.8879983,15.6160016 57.224,15.296 L57.656,15.824 C57.2239978,16.2880023 56.6720034,16.6679985 56,16.964 C55.3279966,17.2600015 54.6560034,17.408 53.984,17.408 C52.6879935,17.408 51.6240042,16.9800043 50.792,16.124 C49.9599958,15.2679957 49.544,14.2240062 49.544,12.992 C49.544,11.7599938 49.9959955,10.7200042 50.9,9.872 C51.8040045,9.02399576 52.8319942,8.6 53.984,8.6 C55.0720054,8.6 55.9599966,8.9799962 56.648,9.74 C57.3360034,10.5000038 57.5360014,11.383995 57.248,12.392 L51.464,12.392 Z M67.976,14.552 L67.976,11.456 C67.7519989,10.8799971 67.4240022,10.4200017 66.992,10.076 C66.5599978,9.73199828 66.0800026,9.56 65.552,9.56 C64.6559955,9.56 63.9760023,9.8799968 63.512,10.52 C63.0479977,11.1600032 62.816,11.983995 62.816,12.992 C62.816,14.0160051 63.0479977,14.8479968 63.512,15.488 C63.9760023,16.1280032 64.6559955,16.448 65.552,16.448 C66.0800026,16.448 66.5599978,16.2760017 66.992,15.932 C67.4240022,15.5879983 67.7519989,15.1280029 67.976,14.552 Z M67.976,10.016 L67.976,6.104 C67.976,4.903994 67.8600012,4.13600168 67.628,3.8 C67.3959988,3.46399832 66.880004,3.296 66.08,3.296 L66.08,2.792 L69.68,2.192 L69.68,13.496 C69.68,14.696006 69.7959988,15.4639983 70.028,15.8 C70.2600012,16.1360017 70.775996,16.304 71.576,16.304 L71.576,16.808 L68.384,17.408 C68.2719994,17.1679988 68.1440007,16.6800037 68,15.944 C67.2159961,16.9200049 66.2320059,17.408 65.048,17.408 C63.9119943,17.408 62.9320041,16.9760043 62.108,16.112 C61.2839959,15.2479957 60.872,14.2080061 60.872,12.992 C60.872,11.7759939 61.2839959,10.7400043 62.108,9.884 C62.9320041,9.02799572 63.9119943,8.6 65.048,8.6 C66.2320059,8.6 67.2079962,9.07199528 67.976,10.016 Z M80.936,17 L80.936,16.496 C81.928005,16.496 82.5559987,16.3280017 82.82,15.992 C83.0840013,15.6559983 83.216,14.888006 83.216,13.688 L83.216,5.888 C83.216,4.687994 83.0840013,3.92400164 82.82,3.596 C82.5559987,3.26799836 81.928005,3.104 80.936,3.104 L80.936,2.6 L91.88,2.6 L92.096,5.768 L91.592,5.768 L91.472,5.288 C91.279999,4.58399648 91.0240016,4.10800124 90.704,3.86 C90.3839984,3.61199876 89.7120051,3.488 88.688,3.488 L85.136,3.488 L85.136,8.936 L86.336,8.936 C87.536006,8.936 88.2999984,8.80400132 88.628,8.54 C88.9560016,8.27599868 89.12,7.64000504 89.12,6.632 L89.624,6.632 L89.624,12.128 L89.12,12.128 C89.12,11.119995 88.9560016,10.4840013 88.628,10.22 C88.2999984,9.95599868 87.536006,9.824 86.336,9.824 L85.136,9.824 L85.136,13.328 C85.136,14.528006 85.2679987,15.2919984 85.532,15.62 C85.7960013,15.9480016 86.423995,16.112 87.416,16.112 L89.48,16.112 C90.2000036,16.112 90.7479981,16.0400007 91.124,15.896 C91.5000019,15.7519993 91.7559993,15.5680011 91.892,15.344 C92.0280007,15.1199989 92.1519994,14.7680024 92.264,14.288 L92.384,13.808 L92.888,13.808 L92.696,17 L80.936,17 Z M101.168,17 L95.672,17 L95.672,16.496 C96.472004,16.496 96.9879988,16.3280017 97.22,15.992 C97.4520012,15.6559983 97.568,14.888006 97.568,13.688 L97.568,6.104 C97.568,4.903994 97.4520012,4.13600168 97.22,3.8 C96.9879988,3.46399832 96.472004,3.296 95.672,3.296 L95.672,2.792 L99.272,2.192 L99.272,13.688 C99.272,14.888006 99.3879988,15.6559983 99.62,15.992 C99.8520012,16.3280017 100.367996,16.496 101.168,16.496 L101.168,17 Z M106.064,11.504 L110.048,11.504 C110.208001,11.0559978 110.140001,10.6200021 109.844,10.196 C109.547999,9.77199788 109.040004,9.56 108.32,9.56 C107.807997,9.56 107.348002,9.73599824 106.94,10.088 C106.531998,10.4400018 106.240001,10.911997 106.064,11.504 Z M105.92,12.392 C105.775999,13.5760059 105.963997,14.5399963 106.484,15.284 C107.004003,16.0280037 107.855994,16.4 109.04,16.4 C109.440002,16.4 109.895997,16.296001 110.408,16.088 C110.920003,15.879999 111.343998,15.6160016 111.68,15.296 L112.112,15.824 C111.679998,16.2880023 111.128003,16.6679985 110.456,16.964 C109.783997,17.2600015 109.112003,17.408 108.44,17.408 C107.143994,17.408 106.080004,16.9800043 105.248,16.124 C104.415996,15.2679957 104,14.2240062 104,12.992 C104,11.7599938 104.451995,10.7200042 105.356,9.872 C106.260005,9.02399576 107.287994,8.6 108.44,8.6 C109.528005,8.6 110.415997,8.9799962 111.104,9.74 C111.792003,10.5000038 111.992001,11.383995 111.704,12.392 L105.92,12.392 Z M119.576,9.368 C118.935997,9.368 118.392002,9.73599632 117.944,10.472 C117.495998,11.2080037 117.272,12.1199946 117.272,13.208 C117.272,14.200005 117.515998,14.9799972 118.004,15.548 C118.492002,16.1160028 119.215995,16.4 120.176,16.4 C121.104005,16.4 121.959996,16.0320037 122.744,15.296 L123.152,15.824 C122.175995,16.8800053 120.984007,17.408 119.576,17.408 C118.263993,17.408 117.228004,17.0160039 116.468,16.232 C115.707996,15.4479961 115.328,14.4400062 115.328,13.208 C115.328,11.8799934 115.775996,10.7800044 116.672,9.908 C117.568004,9.03599564 118.535995,8.6 119.576,8.6 C120.520005,8.6 121.231998,8.76799832 121.712,9.104 C122.192002,9.44000168 122.432,9.8479976 122.432,10.328 C122.432,10.5840013 122.348001,10.8199989 122.18,11.036 C122.011999,11.2520011 121.744002,11.36 121.376,11.36 C121.119999,11.36 120.900001,11.2680009 120.716,11.084 C120.531999,10.8999991 120.44,10.6720014 120.44,10.4 C120.44,9.71199656 120.152003,9.368 119.576,9.368 Z M126.728,9.848 L125.48,9.848 L125.48,9.272 C126.168003,9.12799928 126.671998,8.8160024 126.992,8.336 C127.312002,7.8559976 127.52,7.20000416 127.616,6.368 L128.432,6.368 L128.432,9.008 L130.52,9.008 L130.52,9.848 L128.432,9.848 L128.432,14.648 C128.432,15.8000058 128.791996,16.376 129.512,16.376 C129.976002,16.376 130.495997,16.1040027 131.072,15.56 L131.48,15.968 C131.143998,16.368002 130.740002,16.6959987 130.268,16.952 C129.795998,17.2080013 129.360002,17.336 128.96,17.336 C128.271997,17.336 127.728002,17.1120022 127.328,16.664 C126.927998,16.2159978 126.728,15.5440045 126.728,14.648 L126.728,9.848 Z M142.016,10.088 C142.016,10.8400038 141.696003,11.216 141.056,11.216 C140.831999,11.216 140.636001,11.1280009 140.468,10.952 C140.299999,10.7759991 140.216,10.5760011 140.216,10.352 C140.216,9.82399736 139.960003,9.56 139.448,9.56 C139.079998,9.56 138.680002,9.81599744 138.248,10.328 C137.815998,10.8400026 137.6,11.5199958 137.6,12.368 L137.6,13.688 C137.6,14.888006 137.715999,15.6559983 137.948,15.992 C138.180001,16.3280017 138.695996,16.496 139.496,16.496 L139.496,17 L134,17 L134,16.496 C134.800004,16.496 135.315999,16.3280017 135.548,15.992 C135.780001,15.6559983 135.896,14.888006 135.896,13.688 L135.896,12.488 C135.896,11.3039941 135.780001,10.5440017 135.548,10.208 C135.315999,9.87199832 134.800004,9.704 134,9.704 L134,9.2 L137.192,8.6 C137.336001,8.90400152 137.471999,9.47999576 137.6,10.328 C137.840001,9.8479976 138.199998,9.44000168 138.68,9.104 C139.160002,8.76799832 139.639998,8.6 140.12,8.6 C140.728003,8.6 141.195998,8.7599984 141.524,9.08 C141.852002,9.4000016 142.016,9.73599824 142.016,10.088 Z M153.128,9.896 C154.088005,10.7440042 154.568,11.7759939 154.568,12.992 C154.568,14.2080061 154.092005,15.2479957 153.14,16.112 C152.187995,16.9760043 151.048007,17.408 149.72,17.408 C148.391993,17.408 147.252005,16.9760043 146.3,16.112 C145.347995,15.2479957 144.872,14.2080061 144.872,12.992 C144.872,11.7759939 145.347995,10.7400043 146.3,9.884 C147.252005,9.02799572 148.391993,8.6 149.72,8.6 C151.048007,8.6 152.183995,9.03199568 153.128,9.896 Z M151.88,15.512 C152.376002,14.8559967 152.624,14.0160051 152.624,12.992 C152.624,11.9679949 152.376002,11.1320032 151.88,10.484 C151.383998,9.83599676 150.664005,9.512 149.72,9.512 C148.775995,9.512 148.056002,9.83999672 147.56,10.496 C147.063998,11.1520033 146.816,11.983995 146.816,12.992 C146.816,14.000005 147.063998,14.8319967 147.56,15.488 C148.056002,16.1440033 148.775995,16.472 149.72,16.472 C150.664005,16.472 151.383998,16.1520032 151.88,15.512 Z M161.432,10.328 C162.344005,9.17599424 163.455993,8.6 164.768,8.6 C165.808005,8.6 166.587997,8.92799672 167.108,9.584 C167.628003,10.2400033 167.888,11.1039946 167.888,12.176 L167.888,13.688 C167.888,14.888006 168.003999,15.6559983 168.236,15.992 C168.468001,16.3280017 168.983996,16.496 169.784,16.496 L169.784,17 L164.288,17 L164.288,16.496 C165.072004,16.496 165.583999,16.3240017 165.824,15.98 C166.064001,15.6359983 166.184,14.8720059 166.184,13.688 L166.184,12.296 C166.184,10.5839914 165.520007,9.728 164.192,9.728 C163.503997,9.728 162.872003,9.9679976 162.296,10.448 C161.719997,10.9280024 161.432,11.4879968 161.432,12.128 L161.432,13.688 C161.432,14.9200062 161.527999,15.6959984 161.72,16.016 C161.912001,16.3360016 162.375996,16.496 163.112,16.496 L163.112,17 L157.832,17 L157.832,16.496 C158.632004,16.496 159.147999,16.3280017 159.38,15.992 C159.612001,15.6559983 159.728,14.888006 159.728,13.688 L159.728,12.488 C159.728,11.3039941 159.612001,10.5440017 159.38,10.208 C159.147999,9.87199832 158.632004,9.704 157.832,9.704 L157.832,9.2 L161.024,8.6 C161.168001,8.90400152 161.303999,9.47999576 161.432,10.328 Z M178.52,14.792 C178.52,15.5600038 178.244003,16.1879976 177.692,16.676 C177.139997,17.1640024 176.464004,17.408 175.664,17.408 C175.375999,17.408 175.080002,17.3520006 174.776,17.24 C174.471998,17.1279994 174.228001,17.0200005 174.044,16.916 C173.859999,16.8119995 173.688001,16.7320003 173.528,16.676 C173.367999,16.6199997 173.256,16.6479994 173.192,16.76 C173.128,16.8720006 173.096,17.0879984 173.096,17.408 L172.592,17.408 L172.592,13.904 L173.096,13.904 C173.096,14.5280031 173.335998,15.1319971 173.816,15.716 C174.296002,16.3000029 174.927996,16.592 175.712,16.592 C176.096002,16.592 176.419999,16.4720012 176.684,16.232 C176.948001,15.9919988 177.08,15.7040017 177.08,15.368 C177.08,14.8719975 176.632004,14.3840024 175.736,13.904 L174.392,13.184 C173.335995,12.6079971 172.808,11.8080051 172.808,10.784 C172.808,10.1599969 173.051998,9.64000208 173.54,9.224 C174.028002,8.80799792 174.591997,8.6 175.232,8.6 C175.776003,8.6 176.335997,8.74399856 176.912,9.032 C177.104001,9.14400056 177.236,9.1800002 177.308,9.14 C177.38,9.0999998 177.416,8.9200016 177.416,8.6 L177.92,8.6 L177.92,11.384 L177.416,11.384 C177.416,10.8559974 177.236002,10.388002 176.876,9.98 C176.515998,9.57199796 176.048003,9.368 175.472,9.368 C175.071998,9.368 174.768001,9.46399904 174.56,9.656 C174.351999,9.84800096 174.248,10.0959985 174.248,10.4 C174.248,10.6720014 174.351999,10.907999 174.56,11.108 C174.768001,11.308001 175.151997,11.5599985 175.712,11.864 L176.864,12.488 C177.968006,13.1120031 178.52,13.8799954 178.52,14.792 Z" id="Shared-Electrons-Copy"></path>
                </g>
            </g>
            <path d="M290.052,149.424 C291.620008,150.912007 292.404,152.70399 292.404,154.8 C292.404,156.89601 291.620008,158.687993 290.052,160.176 C288.483992,161.664007 286.604011,162.408 284.412,162.408 C282.203989,162.408 280.316008,161.664007 278.748,160.176 C277.179992,158.687993 276.396,156.89601 276.396,154.8 C276.396,152.70399 277.179992,150.912007 278.748,149.424 C280.316008,147.935993 282.203989,147.192 284.412,147.192 C286.604011,147.192 288.483992,147.935993 290.052,149.424 Z M287.028,148.752 C286.275996,148.335998 285.404005,148.128 284.412,148.128 C283.419995,148.128 282.540004,148.331998 281.772,148.74 C281.003996,149.148002 280.404002,149.687997 279.972,150.36 C279.539998,151.032003 279.216001,151.743996 279,152.496 C278.783999,153.248004 278.676,154.015996 278.676,154.8 C278.676,155.584004 278.783999,156.351996 279,157.104 C279.216001,157.856004 279.539998,158.563997 279.972,159.228 C280.404002,159.892003 281.003996,160.427998 281.772,160.836 C282.540004,161.244002 283.419995,161.448 284.412,161.448 C285.404005,161.448 286.279996,161.244002 287.04,160.836 C287.800004,160.427998 288.395998,159.892003 288.828,159.228 C289.260002,158.563997 289.583999,157.856004 289.8,157.104 C290.016001,156.351996 290.124,155.584004 290.124,154.8 C290.124,154.015996 290.016001,153.248004 289.8,152.496 C289.583999,151.743996 289.260002,151.032003 288.828,150.36 C288.395998,149.687997 287.796004,149.152002 287.028,148.752 Z" id="O-Copy" fill="#1A80AA"></path>
            <g id="Hydrogen-Copy" transform="translate(171.000000, 235.000000)">
                <ellipse id="Oval" stroke="#524740" stroke-width="3" transform="translate(71.026055, 67.249205) rotate(-30.000000) translate(-71.026055, -67.249205) " cx="71.0260545" cy="67.2492045" rx="56" ry="45"></ellipse>
                <path d="M66.332,69.8 L66.332,73.688 C66.332,74.888006 66.4639987,75.6559983 66.728,75.992 C66.9920013,76.3280017 67.619995,76.496 68.612,76.496 L68.612,77 L62.132,77 L62.132,76.496 C63.124005,76.496 63.7519987,76.3280017 64.016,75.992 C64.2800013,75.6559983 64.412,74.888006 64.412,73.688 L64.412,65.888 C64.412,64.687994 64.2800013,63.9240016 64.016,63.596 C63.7519987,63.2679984 63.124005,63.104 62.132,63.104 L62.132,62.6 L68.612,62.6 L68.612,63.104 C67.619995,63.104 66.9920013,63.2679984 66.728,63.596 C66.4639987,63.9240016 66.332,64.687994 66.332,65.888 L66.332,68.912 L74.492,68.912 L74.492,65.888 C74.492,64.687994 74.3560014,63.9240016 74.084,63.596 C73.8119986,63.2679984 73.180005,63.104 72.188,63.104 L72.188,62.6 L78.692,62.6 L78.692,63.104 C77.683995,63.104 77.0480013,63.2679984 76.784,63.596 C76.5199987,63.9240016 76.388,64.687994 76.388,65.888 L76.388,73.688 C76.388,74.9040061 76.5199987,75.6759984 76.784,76.004 C77.0480013,76.3320016 77.683995,76.496 78.692,76.496 L78.692,77 L72.188,77 L72.188,76.496 C73.180005,76.496 73.8119986,76.3280017 74.084,75.992 C74.3560014,75.6559983 74.492,74.888006 74.492,73.688 L74.492,69.8 L66.332,69.8 Z" id="H-Copy-2" fill="#1A80AA"></path>
            </g>
            <g id="Hydrogen" transform="translate(46.000000, 80.000000)">
                <ellipse id="Oval" stroke="#524740" stroke-width="3" transform="translate(65.026055, 56.249205) rotate(-12.000000) translate(-65.026055, -56.249205) " cx="65.0260545" cy="56.2492045" rx="56" ry="45"></ellipse>
                <path d="M56.332,54.8 L56.332,58.688 C56.332,59.888006 56.4639987,60.6559983 56.728,60.992 C56.9920013,61.3280017 57.619995,61.496 58.612,61.496 L58.612,62 L52.132,62 L52.132,61.496 C53.124005,61.496 53.7519987,61.3280017 54.016,60.992 C54.2800013,60.6559983 54.412,59.888006 54.412,58.688 L54.412,50.888 C54.412,49.687994 54.2800013,48.9240016 54.016,48.596 C53.7519987,48.2679984 53.124005,48.104 52.132,48.104 L52.132,47.6 L58.612,47.6 L58.612,48.104 C57.619995,48.104 56.9920013,48.2679984 56.728,48.596 C56.4639987,48.9240016 56.332,49.687994 56.332,50.888 L56.332,53.912 L64.492,53.912 L64.492,50.888 C64.492,49.687994 64.3560014,48.9240016 64.084,48.596 C63.8119986,48.2679984 63.180005,48.104 62.188,48.104 L62.188,47.6 L68.692,47.6 L68.692,48.104 C67.683995,48.104 67.0480013,48.2679984 66.784,48.596 C66.5199987,48.9240016 66.388,49.687994 66.388,50.888 L66.388,58.688 C66.388,59.9040061 66.5199987,60.6759984 66.784,61.004 C67.0480013,61.3320016 67.683995,61.496 68.692,61.496 L68.692,62 L62.188,62 L62.188,61.496 C63.180005,61.496 63.8119986,61.3280017 64.084,60.992 C64.3560014,60.6559983 64.492,59.888006 64.492,58.688 L64.492,54.8 L56.332,54.8 Z" id="H-Copy" fill="#1A80AA"></path>
            </g>
            <g id="Valence-Shell" transform="translate(126.000000, 0.000000)">
                <ellipse id="Oval-Copy-8" stroke="#524740" stroke-width="3" transform="translate(163.135072, 154.442892) rotate(30.000000) translate(-163.135072, -154.442892) " cx="163.135072" cy="154.442892" rx="128.5" ry="103"></ellipse>
                <circle id="Oval-Copy-9" fill="#EF7D3B" cx="128" cy="44" r="12"></circle>
                <circle id="Oval-Copy-10" fill="#EF7D3B" cx="38" cy="109" r="12"></circle>
                <circle id="Oval-Copy-11" fill="#EF7D3B" cx="218" cy="66" r="12"></circle>
                <circle id="Oval-Copy-12" fill="#EF7D3B" cx="123" cy="251" r="12"></circle>
                <circle id="Oval-Copy-15" fill="#EF7D3B" cx="43" cy="149" r="12"></circle>
                <circle id="Oval-Copy-16" fill="#EF7D3B" cx="160" cy="259" r="12"></circle>
                <circle id="Oval-Copy-13" fill="#EF7D3B" cx="261" cy="237" r="12"></circle>
                <circle id="Oval-Copy-14" fill="#EF7D3B" cx="276" cy="127" r="12"></circle>
            </g>
        </g>
        <rect id="Rectangle-Copy" stroke="#3D3530" stroke-width="2" fill="#F8FAE4" x="1" y="366" width="898" height="43"></rect>
        <path d="M650.594666,377.872 L652.226666,377.872 L646.658666,394 L645.026666,394 L640.274666,380.032 L635.498666,394 L633.890666,394 L628.298666,377.872 L629.930666,377.872 L634.706666,391.552 L639.530666,377.872 L640.994666,377.872 L645.842666,391.552 L650.594666,377.872 Z M663.213333,382 L664.797333,382 L664.797333,394 L663.213333,394 L663.213333,392.056 C661.981327,393.480007 660.421342,394.192 658.533333,394.192 C656.821324,394.192 655.361339,393.588006 654.153333,392.38 C652.945327,391.171994 652.341333,389.712009 652.341333,388 C652.341333,386.287991 652.945327,384.828006 654.153333,383.62 C655.361339,382.411994 656.821324,381.808 658.533333,381.808 C660.437342,381.808 661.997327,382.519993 663.213333,383.944 L663.213333,382 Z M658.557333,392.68 C659.853339,392.68 660.945329,392.228005 661.833333,391.324 C662.721337,390.419995 663.165333,389.312007 663.165333,388 C663.165333,386.687993 662.721337,385.580005 661.833333,384.676 C660.945329,383.771995 659.853339,383.32 658.557333,383.32 C657.277327,383.32 656.185337,383.771995 655.281333,384.676 C654.377328,385.580005 653.925333,386.687993 653.925333,388 C653.925333,389.312007 654.377328,390.419995 655.281333,391.324 C656.185337,392.228005 657.277327,392.68 658.557333,392.68 Z M675.28,391.312 L676.072,392.536 C675.975999,392.664001 675.848,392.815999 675.688,392.992 C675.527999,393.168001 675.168002,393.411998 674.608,393.724 C674.047997,394.036002 673.472003,394.192 672.88,394.192 C671.871995,394.192 671.028003,393.892003 670.348,393.292 C669.667996,392.691997 669.328,391.824006 669.328,390.688 L669.328,383.44 L667.408,383.44 L667.408,381.976 L669.328,381.976 L669.328,378.184 L670.912,377.992 L670.912,381.976 L674.536,381.976 L674.536,383.44 L670.912,383.44 L670.912,390.328 C670.912,391.064004 671.139997,391.647998 671.596,392.08 C672.052002,392.512002 672.575997,392.728 673.168,392.728 C673.536001,392.728 673.895998,392.616001 674.248,392.392 C674.600001,392.167999 674.859999,391.948001 675.028,391.732 C675.196,391.515999 675.28,391.376 675.28,391.312 Z M683.722666,392.608 C684.794672,392.608 685.754662,392.304003 686.602666,391.696 C687.450671,391.087997 688.026665,390.376004 688.330666,389.56 L689.674666,390.04 C689.306664,391.048005 688.590672,391.975996 687.526666,392.824 C686.462661,393.672004 685.194674,394.088 683.722666,394.072 C682.37866,394.072 681.150672,393.656004 680.038666,392.824 C678.926661,391.991996 678.170668,390.928006 677.770666,389.632 C677.610666,389.103997 677.530666,388.528003 677.530666,387.904 C677.530666,386.175991 678.13066,384.712006 679.330666,383.512 C680.530672,382.311994 681.994658,381.704 683.722666,381.688 C685.290674,381.704 686.65866,382.231995 687.826666,383.272 C688.994672,384.312005 689.666665,385.599992 689.842666,387.136 C689.858666,387.216 689.866666,387.319999 689.866666,387.448 L679.378666,389.344 C679.650668,390.304005 680.194662,391.091997 681.010666,391.708 C681.82667,392.324003 682.730661,392.624 683.722666,392.608 Z M683.578666,383.152 C682.37866,383.168 681.350671,383.599996 680.494666,384.448 C679.638662,385.296004 679.178667,386.311994 679.114666,387.496 C679.114666,387.544 679.118666,387.627999 679.126666,387.748 C679.134666,387.868001 679.138666,387.968 679.138666,388.048 L688.066666,386.44 C687.762665,385.463995 687.19467,384.668003 686.362666,384.052 C685.530662,383.435997 684.602671,383.136 683.578666,383.152 Z M698.213333,381.808 C699.061337,381.808 699.837329,382.015998 700.541333,382.432 L699.989333,384.016 C699.31733,383.519998 698.637336,383.272 697.949333,383.272 C696.941328,383.272 696.093336,383.627996 695.405333,384.34 C694.71733,385.052004 694.373333,385.927995 694.373333,386.968 L694.373333,394 L692.789333,394 L692.789333,382 L694.373333,382 L694.373333,383.776 C695.349338,382.463993 696.629325,381.808 698.213333,381.808 Z M728.394666,394 L726.810666,394 L723.714666,380.824 L719.538666,394 L718.482666,394 L714.330666,380.824 L711.234666,394 L709.650666,394 L713.370666,377.872 L714.810666,377.872 L719.034666,390.784 L723.210666,377.872 L724.674666,377.872 L728.394666,394 Z M740.845333,392.368 C739.645327,393.584006 738.189342,394.192 736.477333,394.192 C734.765325,394.192 733.305339,393.588006 732.097333,392.38 C730.889327,391.171994 730.285333,389.712009 730.285333,388 C730.285333,386.287991 730.889327,384.828006 732.097333,383.62 C733.305339,382.411994 734.765325,381.808 736.477333,381.808 C738.189342,381.808 739.649327,382.411994 740.857333,383.62 C742.065339,384.828006 742.669333,386.287991 742.669333,388 C742.669333,389.696008 742.061339,391.151994 740.845333,392.368 Z M736.501333,392.68 C737.79734,392.68 738.889329,392.228005 739.777333,391.324 C740.665338,390.419995 741.109333,389.312007 741.109333,388 C741.109333,386.687993 740.665338,385.576005 739.777333,384.664 C738.889329,383.751995 737.79734,383.296 736.501333,383.296 C735.221327,383.296 734.133338,383.751995 733.237333,384.664 C732.341329,385.576005 731.893333,386.687993 731.893333,388 C731.893333,389.312007 732.341329,390.419995 733.237333,391.324 C734.133338,392.228005 735.221327,392.68 736.501333,392.68 Z M745.952,394 L745.952,376.144 L747.536,376.144 L747.536,394 L745.952,394 Z M756.962666,392.608 C758.034672,392.608 758.994662,392.304003 759.842666,391.696 C760.690671,391.087997 761.266665,390.376004 761.570666,389.56 L762.914666,390.04 C762.546665,391.048005 761.830672,391.975996 760.766666,392.824 C759.702661,393.672004 758.434674,394.088 756.962666,394.072 C755.61866,394.072 754.390672,393.656004 753.278666,392.824 C752.166661,391.991996 751.410668,390.928006 751.010666,389.632 C750.850666,389.103997 750.770666,388.528003 750.770666,387.904 C750.770666,386.175991 751.37066,384.712006 752.570666,383.512 C753.770672,382.311994 755.234658,381.704 756.962666,381.688 C758.530674,381.704 759.898661,382.231995 761.066666,383.272 C762.234672,384.312005 762.906666,385.599992 763.082666,387.136 C763.098667,387.216 763.106666,387.319999 763.106666,387.448 L752.618666,389.344 C752.890668,390.304005 753.434662,391.091997 754.250666,391.708 C755.066671,392.324003 755.970661,392.624 756.962666,392.608 Z M756.818666,383.152 C755.61866,383.168 754.590671,383.599996 753.734666,384.448 C752.878662,385.296004 752.418667,386.311994 752.354666,387.496 C752.354666,387.544 752.358666,387.627999 752.366666,387.748 C752.374666,387.868001 752.378666,387.968 752.378666,388.048 L761.306666,386.44 C761.002665,385.463995 760.434671,384.668003 759.602666,384.052 C758.770662,383.435997 757.842672,383.136 756.818666,383.152 Z M771.957333,394.192 C770.245325,394.192 768.785339,393.588006 767.577333,392.38 C766.369327,391.171994 765.765333,389.712009 765.765333,388 C765.765333,386.287991 766.369327,384.828006 767.577333,383.62 C768.785339,382.411994 770.245325,381.808 771.957333,381.808 C773.045339,381.808 774.057328,382.075997 774.993333,382.612 C775.929338,383.148003 776.66933,383.863996 777.213333,384.76 L775.773333,385.456 C775.341331,384.799997 774.789336,384.280002 774.117333,383.896 C773.44533,383.511998 772.725337,383.32 771.957333,383.32 C770.661327,383.32 769.569338,383.771995 768.681333,384.676 C767.793329,385.580005 767.349333,386.687993 767.349333,388 C767.349333,389.312007 767.793329,390.419995 768.681333,391.324 C769.569338,392.228005 770.661327,392.68 771.957333,392.68 C772.725337,392.68 773.44533,392.488002 774.117333,392.104 C774.789336,391.719998 775.341331,391.200003 775.773333,390.544 L777.213333,391.24 C776.66933,392.136004 775.929338,392.851997 774.993333,393.388 C774.057328,393.924003 773.045339,394.192 771.957333,394.192 Z M789.256,382 L790.84,382 L790.84,394 L789.256,394 L789.256,392.224 C788.279995,393.536007 787.000008,394.192 785.416,394.192 C784.023993,394.192 782.856005,393.700005 781.912,392.716 C780.967995,391.731995 780.496,390.520007 780.496,389.08 L780.496,382 L782.128,382 L782.128,389.032 C782.128,390.056005 782.471996,390.923996 783.16,391.636 C783.848003,392.348004 784.687995,392.704 785.68,392.704 C786.688005,392.704 787.535996,392.348004 788.224,391.636 C788.912003,390.923996 789.256,390.056005 789.256,389.032 L789.256,382 Z M795.010667,394 L795.010667,376.144 L796.594667,376.144 L796.594667,394 L795.010667,394 Z M806.021333,392.608 C807.093339,392.608 808.053329,392.304003 808.901333,391.696 C809.749337,391.087997 810.325332,390.376004 810.629333,389.56 L811.973333,390.04 C811.605331,391.048005 810.889339,391.975996 809.825333,392.824 C808.761328,393.672004 807.493341,394.088 806.021333,394.072 C804.677326,394.072 803.449339,393.656004 802.337333,392.824 C801.225328,391.991996 800.469335,390.928006 800.069333,389.632 C799.909332,389.103997 799.829333,388.528003 799.829333,387.904 C799.829333,386.175991 800.429327,384.712006 801.629333,383.512 C802.829339,382.311994 804.293325,381.704 806.021333,381.688 C807.589341,381.704 808.957327,382.231995 810.125333,383.272 C811.293339,384.312005 811.965332,385.599992 812.141333,387.136 C812.157333,387.216 812.165333,387.319999 812.165333,387.448 L801.677333,389.344 C801.949335,390.304005 802.493329,391.091997 803.309333,391.708 C804.125337,392.324003 805.029328,392.624 806.021333,392.608 Z M805.877333,383.152 C804.677327,383.168 803.649337,383.599996 802.793333,384.448 C801.937329,385.296004 801.477334,386.311994 801.413333,387.496 C801.413333,387.544 801.417333,387.627999 801.425333,387.748 C801.433333,387.868001 801.437333,387.968 801.437333,388.048 L810.365333,386.44 C810.061332,385.463995 809.493337,384.668003 808.661333,384.052 C807.829329,383.435997 806.901338,383.136 805.877333,383.152 Z M827.994667,397.168 C827.914666,397.12 827.806667,397.052 827.670667,396.964 C827.534666,396.876 827.266669,396.668002 826.866667,396.34 C826.466665,396.011998 826.086668,395.656002 825.726667,395.272 C825.366665,394.887998 824.970669,394.376003 824.538667,393.736 C824.106664,393.095997 823.730668,392.416004 823.410667,391.696 C823.090665,390.975996 822.822668,390.112005 822.606667,389.104 C822.390665,388.095995 822.282667,387.048005 822.282667,385.96 C822.282667,384.471993 822.478665,383.068007 822.870667,381.748 C823.262669,380.427993 823.738664,379.356004 824.298667,378.532 C824.858669,377.707996 825.418664,376.996003 825.978667,376.396 C826.538669,375.795997 827.010665,375.368001 827.394667,375.112 L827.994667,374.728 L828.834667,375.592 C828.690666,375.688 828.502668,375.823999 828.270667,376 C828.038665,376.176001 827.62667,376.579997 827.034667,377.212 C826.442664,377.844003 825.918669,378.527996 825.462667,379.264 C825.006664,380.000004 824.594668,380.971994 824.226667,382.18 C823.858665,383.388006 823.674667,384.647993 823.674667,385.96 C823.674667,387.272007 823.850665,388.523994 824.202667,389.716 C824.554668,390.908006 824.986664,391.883996 825.498667,392.644 C826.010669,393.404004 826.522664,394.067997 827.034667,394.636 C827.546669,395.204003 827.978665,395.615999 828.330667,395.872 L828.858667,396.232 L827.994667,397.168 Z M839.917333,377.872 L841.501333,377.872 L841.501333,394 L839.917333,394 L839.917333,386.896 L831.973333,386.896 L831.973333,394 L830.389333,394 L830.389333,377.872 L831.973333,377.872 L831.973333,385.312 L839.917333,385.312 L839.917333,377.872 Z M845.864,405 L845.72,403.656 C845.768,403.608 846.227996,403.204004 847.1,402.444 C847.972004,401.683996 848.743997,400.980003 849.416,400.332 C850.088003,399.683997 850.847996,398.908005 851.696,398.004 C852.544004,397.099995 853.207998,396.240004 853.688,395.424 C854.168002,394.607996 854.408,393.904003 854.408,393.312 C854.408,392.447996 854.076003,391.716003 853.412,391.116 C852.747997,390.515997 851.920005,390.216 850.928,390.216 C849.263992,390.216 847.904005,391.20799 846.848,393.192 L845.768,392.112 C845.912001,391.839999 846.099999,391.552002 846.332,391.248 C846.564001,390.943998 846.895998,390.580002 847.328,390.156 C847.760002,389.731998 848.307997,389.384001 848.972,389.112 C849.636003,388.839999 850.343996,388.704 851.096,388.704 C852.536007,388.704 853.719995,389.155995 854.648,390.06 C855.576005,390.964005 856.04,392.015994 856.04,393.216 C856.04,393.936004 855.828002,394.719996 855.404,395.568 C854.979998,396.416004 854.392004,397.263996 853.64,398.112 C852.887996,398.960004 852.212003,399.679997 851.612,400.272 C851.011997,400.864003 850.300004,401.515996 849.476,402.228 C848.651996,402.940004 848.2,403.336 848.12,403.416 L856.496,403.416 L856.496,405 L845.864,405 Z M867.506667,393.568 C866.738663,393.984002 865.842672,394.192 864.818667,394.192 C863.794662,394.192 862.894671,393.980002 862.118667,393.556 C861.342663,393.131998 860.718669,392.540004 860.246667,391.78 C859.774664,391.019996 859.422668,390.152005 859.190667,389.176 C858.958665,388.199995 858.842667,387.128006 858.842667,385.96 C858.842667,383.527988 859.338662,381.544008 860.330667,380.008 C861.322672,378.471992 862.818657,377.704 864.818667,377.704 C866.818677,377.704 868.314662,378.471992 869.306667,380.008 C870.298672,381.544008 870.794667,383.527988 870.794667,385.96 C870.794667,387.128006 870.678668,388.199995 870.446667,389.176 C870.214665,390.152005 869.862669,391.019996 869.390667,391.78 C868.918664,392.540004 868.290671,393.135998 867.506667,393.568 Z M861.506667,390.856 C862.24267,392.088006 863.346659,392.704 864.818667,392.704 C866.290674,392.704 867.390663,392.084006 868.118667,390.844 C868.84667,389.603994 869.210667,387.97601 869.210667,385.96 C869.210667,383.94399 868.84667,382.316006 868.118667,381.076 C867.390663,379.835994 866.290674,379.216 864.818667,379.216 C863.346659,379.216 862.24667,379.835994 861.518667,381.076 C860.790663,382.316006 860.426667,383.94399 860.426667,385.96 C860.426667,387.97601 860.786663,389.607994 861.506667,390.856 Z M872.493333,397.168 L871.629333,396.232 C871.773334,396.152 871.961332,396.024001 872.193333,395.848 C872.425334,395.671999 872.83733,395.272003 873.429333,394.648 C874.021336,394.023997 874.545331,393.348004 875.001333,392.62 C875.457336,391.891996 875.873331,390.928006 876.249333,389.728 C876.625335,388.527994 876.813333,387.272007 876.813333,385.96 C876.813333,384.647993 876.637335,383.396006 876.285333,382.204 C875.933332,381.011994 875.505336,380.032004 875.001333,379.264 C874.497331,378.495996 873.989336,377.820003 873.477333,377.236 C872.965331,376.651997 872.533335,376.232001 872.181333,375.976 L871.653333,375.592 L872.493333,374.728 C872.573334,374.776 872.681333,374.844 872.817333,374.932 C872.953334,375.02 873.221331,375.227998 873.621333,375.556 C874.021335,375.884002 874.401332,376.239998 874.761333,376.624 C875.121335,377.008002 875.517331,377.527997 875.949333,378.184 C876.381335,378.840003 876.757332,379.523996 877.077333,380.236 C877.397335,380.948004 877.665332,381.807995 877.881333,382.816 C878.097334,383.824005 878.205333,384.871995 878.205333,385.96 C878.205333,387.048005 878.101334,388.091995 877.893333,389.092 C877.685332,390.092005 877.413335,390.955996 877.077333,391.684 C876.741332,392.412004 876.369335,393.091997 875.961333,393.724 C875.553331,394.356003 875.145335,394.875998 874.737333,395.284 C874.329331,395.692002 873.957335,396.043999 873.621333,396.34 C873.285332,396.636001 873.013334,396.847999 872.805333,396.976 L872.493333,397.168 Z" id="Water-Molecule-(H20)-Copy" fill="#23ABE3"></path>
    </g>
</svg>