<?xml version="1.0" encoding="UTF-8"?>
<svg width="900px" height="260px" viewBox="0 0 900 260" version="1.1" xmlns="http://www.w3.org/2000/svg" xmlns:xlink="http://www.w3.org/1999/xlink">
    <!-- Generator: Sketch 52.5 (67469) - http://www.bohemiancoding.com/sketch -->
    <title>Zener_Voltage_Reference_Circuit</title>
    <desc>Created with Sketch.</desc>
    <g id="Zener_Voltage_Reference_Circuit" stroke="none" stroke-width="1" fill="none" fill-rule="evenodd">
        <rect id="Rectangle" stroke="#3D3530" stroke-width="2" fill="#EEEEEE" x="1" y="1" width="898" height="398"></rect>
        <g id="Circuit" transform="translate(230.000000, 21.000000)">
            <polyline id="Resistor" stroke="#3D3530" stroke-width="3" stroke-linejoin="round" points="139 64 144 64 149 51 159 77 169 51 179 77 189 51 199 77 204 64 209 64"></polyline>
            <g id="DC_Rail" transform="translate(73.500000, 64.000000) rotate(-180.000000) translate(-73.500000, -64.000000) translate(48.000000, 49.000000)" stroke="#3D3530" stroke-width="3">
                <path d="M-5.32907052e-15,15 L50,15" id="Path-2-Copy"></path>
                <path d="M50,-4.26325641e-14 L50,30" id="Path-4"></path>
            </g>
            <g id="Labels">
                <g id="5V-Reference" transform="translate(149.000000, 144.000000)">
                    <rect id="Rectangle" stroke="#3D3530" stroke-width="2" fill="#E3F4FB" x="1" y="1" width="168" height="28" rx="5"></rect>
                    <path d="M19.344,15.536 C19.6000013,15.2159984 19.9839974,14.960001 20.496,14.768 C21.0080026,14.575999 21.5199974,14.48 22.032,14.48 C23.3760067,14.48 24.4839956,14.9599952 25.356,15.92 C26.2280044,16.8800048 26.664,18.063993 26.664,19.472 C26.664,20.8480069 26.1880048,22.0279951 25.236,23.012 C24.2839952,23.9960049 23.1440066,24.488 21.816,24.488 C20.6639942,24.488 19.7240036,24.192003 18.996,23.6 C18.2679964,23.007997 17.904,22.4320028 17.904,21.872 C17.904,21.4399978 18.1279978,21.224 18.576,21.224 C18.784001,21.224 18.9679992,21.3479988 19.128,21.596 C19.2880008,21.8440012 19.4319994,22.1119986 19.56,22.4 C19.6880006,22.6880014 19.947998,22.9559988 20.34,23.204 C20.732002,23.4520012 21.223997,23.576 21.816,23.576 C22.7600047,23.576 23.4719976,23.1960038 23.952,22.436 C24.4320024,21.6759962 24.672,20.6880061 24.672,19.472 C24.672,18.2559939 24.4360024,17.2880036 23.964,16.568 C23.4919976,15.8479964 22.7760048,15.488 21.816,15.488 C20.2639922,15.488 19.3680012,16.2719922 19.128,17.84 L18.24,17.84 L18.984,9.608 L23.04,9.608 C24.0800052,9.608 24.7599984,9.48400124 25.08,9.236 C25.4000016,8.98799876 25.6479991,8.5040036 25.824,7.784 L26.376,7.784 L25.776,11.288 L19.704,11.288 L19.344,15.536 Z M45.072,6.104 C44.1279953,6.104 43.5160014,6.21999884 43.236,6.452 C42.9559986,6.68400116 42.616002,7.26399536 42.216,8.192 L36.936,20.408 L36.624,20.408 L31.32,8.192 C30.919998,7.26399536 30.5800014,6.68400116 30.3,6.452 C30.0199986,6.21999884 29.4080047,6.104 28.464,6.104 L28.464,5.6 L35.112,5.6 L35.112,6.104 C34.119995,6.104 33.4840014,6.2439986 33.204,6.524 C32.9239986,6.8040014 32.9359985,7.27199672 33.24,7.928 L37.32,17.264 L41.352,7.928 C41.6560015,7.27199672 41.6680014,6.8040014 41.388,6.524 C41.1079986,6.2439986 40.472005,6.104 39.48,6.104 L39.48,5.6 L45.072,5.6 L45.072,6.104 Z M59.4,12.824 C60.392005,12.824 61.1479974,12.528003 61.668,11.936 C62.1880026,11.343997 62.448,10.5840046 62.448,9.656 C62.448,8.72799536 62.1880026,7.96800296 61.668,7.376 C61.1479974,6.78399704 60.392005,6.488 59.4,6.488 L57.288,6.488 L57.288,12.824 L59.4,12.824 Z M60.312,13.688 L62.664,16.448 C64.2320078,18.3200094 65.719993,19.3359992 67.128,19.496 L67.128,20 L63.168,20 L58.416,13.688 L57.288,13.688 L57.288,16.688 C57.288,17.888006 57.4199987,18.6559983 57.684,18.992 C57.9480013,19.3280017 58.575995,19.496 59.568,19.496 L59.568,20 L53.088,20 L53.088,19.496 C54.080005,19.496 54.7079987,19.3280017 54.972,18.992 C55.2360013,18.6559983 55.368,17.888006 55.368,16.688 L55.368,8.888 C55.368,7.687994 55.2360013,6.92400164 54.972,6.596 C54.7079987,6.26799836 54.080005,6.104 53.088,6.104 L53.088,5.6 L59.424,5.6 C61.0400081,5.6 62.3039954,5.98399616 63.216,6.752 C64.1280046,7.52000384 64.584,8.48799416 64.584,9.656 C64.584,10.7280054 64.2040038,11.6319963 63.444,12.368 C62.6839962,13.1040037 61.6400066,13.5439993 60.312,13.688 Z M71.472,14.504 L75.456,14.504 C75.6160008,14.0559978 75.5480015,13.6200021 75.252,13.196 C74.9559985,12.7719979 74.4480036,12.56 73.728,12.56 C73.2159974,12.56 72.756002,12.7359982 72.348,13.088 C71.939998,13.4400018 71.6480009,13.911997 71.472,14.504 Z M71.328,15.392 C71.1839993,16.5760059 71.3719974,17.5399963 71.892,18.284 C72.4120026,19.0280037 73.2639941,19.4 74.448,19.4 C74.848002,19.4 75.3039974,19.296001 75.816,19.088 C76.3280026,18.879999 76.7519983,18.6160016 77.088,18.296 L77.52,18.824 C77.0879978,19.2880023 76.5360034,19.6679985 75.864,19.964 C75.1919966,20.2600015 74.5200034,20.408 73.848,20.408 C72.5519935,20.408 71.4880042,19.9800043 70.656,19.124 C69.8239958,18.2679957 69.408,17.2240062 69.408,15.992 C69.408,14.7599938 69.8599955,13.7200042 70.764,12.872 C71.6680045,12.0239958 72.6959942,11.6 73.848,11.6 C74.9360054,11.6 75.8239966,11.9799962 76.512,12.74 C77.2000034,13.5000038 77.4000014,14.383995 77.112,15.392 L71.328,15.392 Z M84.096,12.848 L84.096,16.688 C84.096,17.888006 84.2119988,18.6559983 84.444,18.992 C84.6760012,19.3280017 85.191996,19.496 85.992,19.496 L85.992,20 L80.496,20 L80.496,19.496 C81.296004,19.496 81.8119988,19.3280017 82.044,18.992 C82.2760012,18.6559983 82.392,17.888006 82.392,16.688 L82.392,12.848 L80.424,12.848 L80.424,12.008 L82.392,12.008 L82.392,9.704 C82.392,8.1839924 82.7719962,7.05200372 83.532,6.308 C84.2920038,5.56399628 85.2239945,5.192 86.328,5.192 C87.0640037,5.192 87.6479978,5.37999812 88.08,5.756 C88.5120022,6.13200188 88.728,6.53599784 88.728,6.968 C88.728,7.22400128 88.6600007,7.4319992 88.524,7.592 C88.3879993,7.7520008 88.1920013,7.832 87.936,7.832 C87.6799987,7.832 87.4800007,7.73600096 87.336,7.544 C87.1919993,7.35199904 87.0960002,7.14000116 87.048,6.908 C86.9999998,6.67599884 86.880001,6.46400096 86.688,6.272 C86.495999,6.07999904 86.2320017,5.984 85.896,5.984 C85.2719969,5.984 84.8160014,6.26799716 84.528,6.836 C84.2399986,7.40400284 84.096,8.35999328 84.096,9.704 L84.096,12.008 L86.496,12.008 L86.496,12.848 L84.096,12.848 Z M91.512,14.504 L95.496,14.504 C95.6560008,14.0559978 95.5880015,13.6200021 95.292,13.196 C94.9959985,12.7719979 94.4880036,12.56 93.768,12.56 C93.2559974,12.56 92.796002,12.7359982 92.388,13.088 C91.979998,13.4400018 91.6880009,13.911997 91.512,14.504 Z M91.368,15.392 C91.2239993,16.5760059 91.4119974,17.5399963 91.932,18.284 C92.4520026,19.0280037 93.3039941,19.4 94.488,19.4 C94.888002,19.4 95.3439974,19.296001 95.856,19.088 C96.3680026,18.879999 96.7919983,18.6160016 97.128,18.296 L97.56,18.824 C97.1279978,19.2880023 96.5760034,19.6679985 95.904,19.964 C95.2319966,20.2600015 94.5600034,20.408 93.888,20.408 C92.5919935,20.408 91.5280042,19.9800043 90.696,19.124 C89.8639958,18.2679957 89.448,17.2240062 89.448,15.992 C89.448,14.7599938 89.8999955,13.7200042 90.804,12.872 C91.7080045,12.0239958 92.7359942,11.6 93.888,11.6 C94.9760054,11.6 95.8639966,11.9799962 96.552,12.74 C97.2400034,13.5000038 97.4400014,14.383995 97.152,15.392 L91.368,15.392 Z M108.552,13.088 C108.552,13.8400038 108.232003,14.216 107.592,14.216 C107.367999,14.216 107.172001,14.1280009 107.004,13.952 C106.835999,13.7759991 106.752,13.5760011 106.752,13.352 C106.752,12.8239974 106.496003,12.56 105.984,12.56 C105.615998,12.56 105.216002,12.8159974 104.784,13.328 C104.351998,13.8400026 104.136,14.5199958 104.136,15.368 L104.136,16.688 C104.136,17.888006 104.251999,18.6559983 104.484,18.992 C104.716001,19.3280017 105.231996,19.496 106.032,19.496 L106.032,20 L100.536,20 L100.536,19.496 C101.336004,19.496 101.851999,19.3280017 102.084,18.992 C102.316001,18.6559983 102.432,17.888006 102.432,16.688 L102.432,15.488 C102.432,14.3039941 102.316001,13.5440017 102.084,13.208 C101.851999,12.8719983 101.336004,12.704 100.536,12.704 L100.536,12.2 L103.728,11.6 C103.872001,11.9040015 104.007999,12.4799958 104.136,13.328 C104.376001,12.8479976 104.735998,12.4400017 105.216,12.104 C105.696002,11.7679983 106.175998,11.6 106.656,11.6 C107.264003,11.6 107.731998,11.7599984 108.06,12.08 C108.388002,12.4000016 108.552,12.7359982 108.552,13.088 Z M113.064,14.504 L117.048,14.504 C117.208001,14.0559978 117.140001,13.6200021 116.844,13.196 C116.547999,12.7719979 116.040004,12.56 115.32,12.56 C114.807997,12.56 114.348002,12.7359982 113.94,13.088 C113.531998,13.4400018 113.240001,13.911997 113.064,14.504 Z M112.92,15.392 C112.775999,16.5760059 112.963997,17.5399963 113.484,18.284 C114.004003,19.0280037 114.855994,19.4 116.04,19.4 C116.440002,19.4 116.895997,19.296001 117.408,19.088 C117.920003,18.879999 118.343998,18.6160016 118.68,18.296 L119.112,18.824 C118.679998,19.2880023 118.128003,19.6679985 117.456,19.964 C116.783997,20.2600015 116.112003,20.408 115.44,20.408 C114.143994,20.408 113.080004,19.9800043 112.248,19.124 C111.415996,18.2679957 111,17.2240062 111,15.992 C111,14.7599938 111.451995,13.7200042 112.356,12.872 C113.260005,12.0239958 114.287994,11.6 115.44,11.6 C116.528005,11.6 117.415997,11.9799962 118.104,12.74 C118.792003,13.5000038 118.992001,14.383995 118.704,15.392 L112.92,15.392 Z M125.688,13.328 C126.600005,12.1759942 127.711993,11.6 129.024,11.6 C130.064005,11.6 130.843997,11.9279967 131.364,12.584 C131.884003,13.2400033 132.144,14.1039946 132.144,15.176 L132.144,16.688 C132.144,17.888006 132.259999,18.6559983 132.492,18.992 C132.724001,19.3280017 133.239996,19.496 134.04,19.496 L134.04,20 L128.544,20 L128.544,19.496 C129.328004,19.496 129.839999,19.3240017 130.08,18.98 C130.320001,18.6359983 130.44,17.8720059 130.44,16.688 L130.44,15.296 C130.44,13.5839914 129.776007,12.728 128.448,12.728 C127.759997,12.728 127.128003,12.9679976 126.552,13.448 C125.975997,13.9280024 125.688,14.4879968 125.688,15.128 L125.688,16.688 C125.688,17.9200062 125.783999,18.6959984 125.976,19.016 C126.168001,19.3360016 126.631996,19.496 127.368,19.496 L127.368,20 L122.088,20 L122.088,19.496 C122.888004,19.496 123.403999,19.3280017 123.636,18.992 C123.868001,18.6559983 123.984,17.888006 123.984,16.688 L123.984,15.488 C123.984,14.3039941 123.868001,13.5440017 123.636,13.208 C123.403999,12.8719983 122.888004,12.704 122.088,12.704 L122.088,12.2 L125.28,11.6 C125.424001,11.9040015 125.559999,12.4799958 125.688,13.328 Z M141.096,12.368 C140.455997,12.368 139.912002,12.7359963 139.464,13.472 C139.015998,14.2080037 138.792,15.1199946 138.792,16.208 C138.792,17.200005 139.035998,17.9799972 139.524,18.548 C140.012002,19.1160028 140.735995,19.4 141.696,19.4 C142.624005,19.4 143.479996,19.0320037 144.264,18.296 L144.672,18.824 C143.695995,19.8800053 142.504007,20.408 141.096,20.408 C139.783993,20.408 138.748004,20.0160039 137.988,19.232 C137.227996,18.4479961 136.848,17.4400062 136.848,16.208 C136.848,14.8799934 137.295996,13.7800044 138.192,12.908 C139.088004,12.0359956 140.055995,11.6 141.096,11.6 C142.040005,11.6 142.751998,11.7679983 143.232,12.104 C143.712002,12.4400017 143.952,12.8479976 143.952,13.328 C143.952,13.5840013 143.868001,13.8199989 143.7,14.036 C143.531999,14.2520011 143.264002,14.36 142.896,14.36 C142.639999,14.36 142.420001,14.2680009 142.236,14.084 C142.051999,13.8999991 141.96,13.6720014 141.96,13.4 C141.96,12.7119966 141.672003,12.368 141.096,12.368 Z M149.544,14.504 L153.528,14.504 C153.688001,14.0559978 153.620001,13.6200021 153.324,13.196 C153.027999,12.7719979 152.520004,12.56 151.8,12.56 C151.287997,12.56 150.828002,12.7359982 150.42,13.088 C150.011998,13.4400018 149.720001,13.911997 149.544,14.504 Z M149.4,15.392 C149.255999,16.5760059 149.443997,17.5399963 149.964,18.284 C150.484003,19.0280037 151.335994,19.4 152.52,19.4 C152.920002,19.4 153.375997,19.296001 153.888,19.088 C154.400003,18.879999 154.823998,18.6160016 155.16,18.296 L155.592,18.824 C155.159998,19.2880023 154.608003,19.6679985 153.936,19.964 C153.263997,20.2600015 152.592003,20.408 151.92,20.408 C150.623994,20.408 149.560004,19.9800043 148.728,19.124 C147.895996,18.2679957 147.48,17.2240062 147.48,15.992 C147.48,14.7599938 147.931995,13.7200042 148.836,12.872 C149.740005,12.0239958 150.767994,11.6 151.92,11.6 C153.008005,11.6 153.895997,11.9799962 154.584,12.74 C155.272003,13.5000038 155.472001,14.383995 155.184,15.392 L149.4,15.392 Z" id="5V-Reference-Copy" fill="#B35E2C"></path>
                </g>
                <path d="M248.728,3.488 L244.312,3.488 C243.591996,3.488 243.044002,3.55999928 242.668,3.704 C242.291998,3.84800072 242.036001,4.02799892 241.9,4.244 C241.763999,4.46000108 241.640001,4.8079976 241.528,5.288 L241.408,5.768 L240.904,5.768 L241.12,2.6 L251.344,2.6 L251.344,2.888 L243.064,16.112 L248.464,16.112 C249.184004,16.112 249.731998,16.0400007 250.108,15.896 C250.484002,15.7519993 250.739999,15.5680011 250.876,15.344 C251.012001,15.1199989 251.135999,14.7680024 251.248,14.288 L251.368,13.808 L251.872,13.808 L251.68,17 L240.64,17 L240.64,16.448 L248.728,3.488 Z M257.824,11.504 L261.808,11.504 C261.968001,11.0559978 261.900001,10.6200021 261.604,10.196 C261.307999,9.77199788 260.800004,9.56 260.08,9.56 C259.567997,9.56 259.108002,9.73599824 258.7,10.088 C258.291998,10.4400018 258.000001,10.911997 257.824,11.504 Z M257.68,12.392 C257.535999,13.5760059 257.723997,14.5399963 258.244,15.284 C258.764003,16.0280037 259.615994,16.4 260.8,16.4 C261.200002,16.4 261.655997,16.296001 262.168,16.088 C262.680003,15.879999 263.103998,15.6160016 263.44,15.296 L263.872,15.824 C263.439998,16.2880023 262.888003,16.6679985 262.216,16.964 C261.543997,17.2600015 260.872003,17.408 260.2,17.408 C258.903994,17.408 257.840004,16.9800043 257.008,16.124 C256.175996,15.2679957 255.76,14.2240062 255.76,12.992 C255.76,11.7599938 256.211995,10.7200042 257.116,9.872 C258.020005,9.02399576 259.047994,8.6 260.2,8.6 C261.288005,8.6 262.175997,8.9799962 262.864,9.74 C263.552003,10.5000038 263.752001,11.383995 263.464,12.392 L257.68,12.392 Z M270.448,10.328 C271.360005,9.17599424 272.471993,8.6 273.784,8.6 C274.824005,8.6 275.603997,8.92799672 276.124,9.584 C276.644003,10.2400033 276.904,11.1039946 276.904,12.176 L276.904,13.688 C276.904,14.888006 277.019999,15.6559983 277.252,15.992 C277.484001,16.3280017 277.999996,16.496 278.8,16.496 L278.8,17 L273.304,17 L273.304,16.496 C274.088004,16.496 274.599999,16.3240017 274.84,15.98 C275.080001,15.6359983 275.2,14.8720059 275.2,13.688 L275.2,12.296 C275.2,10.5839914 274.536007,9.728 273.208,9.728 C272.519997,9.728 271.888003,9.9679976 271.312,10.448 C270.735997,10.9280024 270.448,11.4879968 270.448,12.128 L270.448,13.688 C270.448,14.9200062 270.543999,15.6959984 270.736,16.016 C270.928001,16.3360016 271.391996,16.496 272.128,16.496 L272.128,17 L266.848,17 L266.848,16.496 C267.648004,16.496 268.163999,16.3280017 268.396,15.992 C268.628001,15.6559983 268.744,14.888006 268.744,13.688 L268.744,12.488 C268.744,11.3039941 268.628001,10.5440017 268.396,10.208 C268.163999,9.87199832 267.648004,9.704 266.848,9.704 L266.848,9.2 L270.04,8.6 C270.184001,8.90400152 270.319999,9.47999576 270.448,10.328 Z M283.672,11.504 L287.656,11.504 C287.816001,11.0559978 287.748001,10.6200021 287.452,10.196 C287.155999,9.77199788 286.648004,9.56 285.928,9.56 C285.415997,9.56 284.956002,9.73599824 284.548,10.088 C284.139998,10.4400018 283.848001,10.911997 283.672,11.504 Z M283.528,12.392 C283.383999,13.5760059 283.571997,14.5399963 284.092,15.284 C284.612003,16.0280037 285.463994,16.4 286.648,16.4 C287.048002,16.4 287.503997,16.296001 288.016,16.088 C288.528003,15.879999 288.951998,15.6160016 289.288,15.296 L289.72,15.824 C289.287998,16.2880023 288.736003,16.6679985 288.064,16.964 C287.391997,17.2600015 286.720003,17.408 286.048,17.408 C284.751994,17.408 283.688004,16.9800043 282.856,16.124 C282.023996,15.2679957 281.608,14.2240062 281.608,12.992 C281.608,11.7599938 282.059995,10.7200042 282.964,9.872 C283.868005,9.02399576 284.895994,8.6 286.048,8.6 C287.136005,8.6 288.023997,8.9799962 288.712,9.74 C289.400003,10.5000038 289.600001,11.383995 289.312,12.392 L283.528,12.392 Z M300.712,10.088 C300.712,10.8400038 300.392003,11.216 299.752,11.216 C299.527999,11.216 299.332001,11.1280009 299.164,10.952 C298.995999,10.7759991 298.912,10.5760011 298.912,10.352 C298.912,9.82399736 298.656003,9.56 298.144,9.56 C297.775998,9.56 297.376002,9.81599744 296.944,10.328 C296.511998,10.8400026 296.296,11.5199958 296.296,12.368 L296.296,13.688 C296.296,14.888006 296.411999,15.6559983 296.644,15.992 C296.876001,16.3280017 297.391996,16.496 298.192,16.496 L298.192,17 L292.696,17 L292.696,16.496 C293.496004,16.496 294.011999,16.3280017 294.244,15.992 C294.476001,15.6559983 294.592,14.888006 294.592,13.688 L294.592,12.488 C294.592,11.3039941 294.476001,10.5440017 294.244,10.208 C294.011999,9.87199832 293.496004,9.704 292.696,9.704 L292.696,9.2 L295.888,8.6 C296.032001,8.90400152 296.167999,9.47999576 296.296,10.328 C296.536001,9.8479976 296.895998,9.44000168 297.376,9.104 C297.856002,8.76799832 298.335998,8.6 298.816,8.6 C299.424003,8.6 299.891998,8.7599984 300.22,9.08 C300.548002,9.4000016 300.712,9.73599824 300.712,10.088 Z M315.976,11.888 L313.912,17.432 L313.432,17.432 L310.6,10.904 C310.375999,10.3759974 310.140001,10.008001 309.892,9.8 C309.643999,9.59199896 309.336002,9.488 308.968,9.488 L308.968,9.008 L313.312,9.008 L313.312,9.488 C312.319995,9.488 312.031998,9.95999528 312.448,10.904 L314.08,14.648 L316.024,9.008 L316.552,9.008 L319,14.648 L320.296,10.904 C320.632002,9.95999528 320.400004,9.488 319.6,9.488 L319.6,9.008 L322.96,9.008 L322.96,9.488 C322.527998,9.488 322.184001,9.59199896 321.928,9.8 C321.671999,10.008001 321.448001,10.3759974 321.256,10.904 L318.832,17.432 L318.352,17.432 L315.976,11.888 Z M331.912,2.504 L325,17.432 L324.04,17.096 L330.952,2.168 L331.912,2.504 Z M336.352,12.536 C336.608001,12.2159984 336.991997,11.960001 337.504,11.768 C338.016003,11.575999 338.527997,11.48 339.04,11.48 C340.384007,11.48 341.491996,11.9599952 342.364,12.92 C343.236004,13.8800048 343.672,15.063993 343.672,16.472 C343.672,17.8480069 343.196005,19.0279951 342.244,20.012 C341.291995,20.9960049 340.152007,21.488 338.824,21.488 C337.671994,21.488 336.732004,21.192003 336.004,20.6 C335.275996,20.007997 334.912,19.4320028 334.912,18.872 C334.912,18.4399978 335.135998,18.224 335.584,18.224 C335.792001,18.224 335.975999,18.3479988 336.136,18.596 C336.296001,18.8440012 336.439999,19.1119986 336.568,19.4 C336.696001,19.6880014 336.955998,19.9559988 337.348,20.204 C337.740002,20.4520012 338.231997,20.576 338.824,20.576 C339.768005,20.576 340.479998,20.1960038 340.96,19.436 C341.440002,18.6759962 341.68,17.6880061 341.68,16.472 C341.68,15.2559939 341.444002,14.2880036 340.972,13.568 C340.499998,12.8479964 339.784005,12.488 338.824,12.488 C337.271992,12.488 336.376001,13.2719922 336.136,14.84 L335.248,14.84 L335.992,6.608 L340.048,6.608 C341.088005,6.608 341.767998,6.48400124 342.088,6.236 C342.408002,5.98799876 342.655999,5.5040036 342.832,4.784 L343.384,4.784 L342.784,8.288 L336.712,8.288 L336.352,12.536 Z M362.08,3.104 C361.135995,3.104 360.524001,3.21999884 360.244,3.452 C359.963999,3.68400116 359.624002,4.26399536 359.224,5.192 L353.944,17.408 L353.632,17.408 L348.328,5.192 C347.927998,4.26399536 347.588001,3.68400116 347.308,3.452 C347.027999,3.21999884 346.416005,3.104 345.472,3.104 L345.472,2.6 L352.12,2.6 L352.12,3.104 C351.127995,3.104 350.492001,3.2439986 350.212,3.524 C349.931999,3.8040014 349.943998,4.27199672 350.248,4.928 L354.328,14.264 L358.36,4.928 C358.664002,4.27199672 358.676001,3.8040014 358.396,3.524 C358.115999,3.2439986 357.480005,3.104 356.488,3.104 L356.488,2.6 L362.08,2.6 L362.08,3.104 Z M251.116,36.112 C252.108005,36.112 252.867997,35.816003 253.396,35.224 C253.924003,34.631997 254.188,33.8800046 254.188,32.968 C254.188,32.0399954 253.924003,31.276003 253.396,30.676 C252.867997,30.075997 252.108005,29.776 251.116,29.776 L248.212,29.776 L248.212,33.328 C248.212,34.528006 248.343999,35.2919984 248.608,35.62 C248.872001,35.9480016 249.499995,36.112 250.492,36.112 L251.116,36.112 Z M248.212,23.488 L248.212,28.888 L250.348,28.888 C251.212004,28.888 251.867998,28.6360025 252.316,28.132 C252.764002,27.6279975 252.988,26.9840039 252.988,26.2 C252.988,25.4159961 252.764002,24.7680026 252.316,24.256 C251.867998,23.7439974 251.212004,23.488 250.348,23.488 L248.212,23.488 Z M253.228,29.176 C254.156005,29.4640014 254.899997,29.9519966 255.46,30.64 C256.020003,31.3280034 256.3,32.1039957 256.3,32.968 C256.3,34.1360058 255.844005,35.0999962 254.932,35.86 C254.019995,36.6200038 252.756008,37 251.14,37 L244.012,37 L244.012,36.496 C245.004005,36.496 245.631999,36.3280017 245.896,35.992 C246.160001,35.6559983 246.292,34.888006 246.292,33.688 L246.292,25.888 C246.292,24.687994 246.160001,23.9240016 245.896,23.596 C245.631999,23.2679984 245.004005,23.104 244.012,23.104 L244.012,22.6 L250.468,22.6 C251.940007,22.6 253.079996,22.9399966 253.888,23.62 C254.696004,24.3000034 255.1,25.1599948 255.1,26.2 C255.1,27.4480062 254.476006,28.4399963 253.228,29.176 Z M267.82,30.088 C267.82,30.8400038 267.500003,31.216 266.86,31.216 C266.635999,31.216 266.440001,31.1280009 266.272,30.952 C266.103999,30.7759991 266.02,30.5760011 266.02,30.352 C266.02,29.8239974 265.764003,29.56 265.252,29.56 C264.883998,29.56 264.484002,29.8159974 264.052,30.328 C263.619998,30.8400026 263.404,31.5199958 263.404,32.368 L263.404,33.688 C263.404,34.888006 263.519999,35.6559983 263.752,35.992 C263.984001,36.3280017 264.499996,36.496 265.3,36.496 L265.3,37 L259.804,37 L259.804,36.496 C260.604004,36.496 261.119999,36.3280017 261.352,35.992 C261.584001,35.6559983 261.7,34.888006 261.7,33.688 L261.7,32.488 C261.7,31.3039941 261.584001,30.5440017 261.352,30.208 C261.119999,29.8719983 260.604004,29.704 259.804,29.704 L259.804,29.2 L262.996,28.6 C263.140001,28.9040015 263.275999,29.4799958 263.404,30.328 C263.644001,29.8479976 264.003998,29.4400017 264.484,29.104 C264.964002,28.7679983 265.443998,28.6 265.924,28.6 C266.532003,28.6 266.999998,28.7599984 267.328,29.08 C267.656002,29.4000016 267.82,29.7359982 267.82,30.088 Z M272.332,31.504 L276.316,31.504 C276.476001,31.0559978 276.408001,30.6200021 276.112,30.196 C275.815999,29.7719979 275.308004,29.56 274.588,29.56 C274.075997,29.56 273.616002,29.7359982 273.208,30.088 C272.799998,30.4400018 272.508001,30.911997 272.332,31.504 Z M272.188,32.392 C272.043999,33.5760059 272.231997,34.5399963 272.752,35.284 C273.272003,36.0280037 274.123994,36.4 275.308,36.4 C275.708002,36.4 276.163997,36.296001 276.676,36.088 C277.188003,35.879999 277.611998,35.6160016 277.948,35.296 L278.38,35.824 C277.947998,36.2880023 277.396003,36.6679985 276.724,36.964 C276.051997,37.2600015 275.380003,37.408 274.708,37.408 C273.411994,37.408 272.348004,36.9800043 271.516,36.124 C270.683996,35.2679957 270.268,34.2240062 270.268,32.992 C270.268,31.7599938 270.719995,30.7200042 271.624,29.872 C272.528005,29.0239958 273.555994,28.6 274.708,28.6 C275.796005,28.6 276.683997,28.9799962 277.372,29.74 C278.060003,30.5000038 278.260001,31.383995 277.972,32.392 L272.188,32.392 Z M289.732,36.52 C289.267998,37.0160025 288.740003,37.264 288.148,37.264 C287.187995,37.264 286.644001,36.8000046 286.516,35.872 C285.443995,36.8320048 284.444005,37.312 283.516,37.312 C282.907997,37.312 282.396002,37.1320018 281.98,36.772 C281.563998,36.4119982 281.356,35.9200031 281.356,35.296 C281.356,33.6159916 283.059983,32.480003 286.468,31.888 C286.468,30.9439953 286.364001,30.2880018 286.156,29.92 C285.947999,29.5519982 285.516003,29.368 284.86,29.368 C284.539998,29.368 284.232001,29.471999 283.936,29.68 C283.639999,29.888001 283.492,30.1679982 283.492,30.52 C283.492,30.7600012 283.412001,30.9599992 283.252,31.12 C283.091999,31.2800008 282.900001,31.36 282.676,31.36 C282.435999,31.36 282.236001,31.2800008 282.076,31.12 C281.915999,30.9599992 281.836,30.7600012 281.836,30.52 C281.836,29.9599972 282.143997,29.5000018 282.76,29.14 C283.376003,28.7799982 284.083996,28.6 284.884,28.6 C286.052006,28.6 286.891997,28.8559974 287.404,29.368 C287.916003,29.8800026 288.172,30.7119942 288.172,31.864 L288.172,35.488 C288.172,36.1120031 288.355998,36.424 288.724,36.424 C288.932001,36.424 289.155999,36.3040012 289.396,36.064 L289.732,36.52 Z M286.468,35.08 L286.468,32.632 C284.259989,33.1440026 283.156,33.9359946 283.156,35.008 C283.156,35.3760018 283.263999,35.6719989 283.48,35.896 C283.696001,36.1200011 283.963998,36.232 284.284,36.232 C284.876003,36.232 285.603996,35.8480038 286.468,35.08 Z M296.908,32.032 L300.772,35.92 C301.156002,36.3040019 301.627997,36.496 302.188,36.496 L302.188,37 L299.524,37 L295.588,33.088 L295.372,33.256 L295.372,33.688 C295.372,34.888006 295.487999,35.6559983 295.72,35.992 C295.952001,36.3280017 296.467996,36.496 297.268,36.496 L297.268,37 L291.772,37 L291.772,36.496 C292.572004,36.496 293.087999,36.3280017 293.32,35.992 C293.552001,35.6559983 293.668,34.888006 293.668,33.688 L293.668,26.104 C293.668,24.903994 293.552001,24.1360017 293.32,23.8 C293.087999,23.4639983 292.572004,23.296 291.772,23.296 L291.772,22.792 L295.372,22.192 L295.372,32.392 L297.388,30.76 C297.788002,30.4399984 297.916001,30.1480013 297.772,29.884 C297.627999,29.6199987 297.260003,29.488 296.668,29.488 L296.668,29.008 L301.468,29.008 L301.468,29.488 C300.411995,29.5680004 299.572003,29.8559975 298.948,30.352 L296.908,32.032 Z M311.332,34.552 L311.332,31.456 C311.107999,30.8799971 310.780002,30.4200017 310.348,30.076 C309.915998,29.7319983 309.436003,29.56 308.908,29.56 C308.011996,29.56 307.332002,29.8799968 306.868,30.52 C306.403998,31.1600032 306.172,31.983995 306.172,32.992 C306.172,34.0160051 306.403998,34.8479968 306.868,35.488 C307.332002,36.1280032 308.011996,36.448 308.908,36.448 C309.436003,36.448 309.915998,36.2760017 310.348,35.932 C310.780002,35.5879983 311.107999,35.1280029 311.332,34.552 Z M311.332,30.016 L311.332,26.104 C311.332,24.903994 311.216001,24.1360017 310.984,23.8 C310.751999,23.4639983 310.236004,23.296 309.436,23.296 L309.436,22.792 L313.036,22.192 L313.036,33.496 C313.036,34.696006 313.151999,35.4639983 313.384,35.8 C313.616001,36.1360017 314.131996,36.304 314.932,36.304 L314.932,36.808 L311.74,37.408 C311.627999,37.1679988 311.500001,36.6800037 311.356,35.944 C310.571996,36.9200049 309.588006,37.408 308.404,37.408 C307.267994,37.408 306.288004,36.9760043 305.464,36.112 C304.639996,35.2479957 304.228,34.2080061 304.228,32.992 C304.228,31.7759939 304.639996,30.7400043 305.464,29.884 C306.288004,29.0279957 307.267994,28.6 308.404,28.6 C309.588006,28.6 310.563996,29.0719953 311.332,30.016 Z M325.996,29.896 C326.956005,30.7440042 327.436,31.7759939 327.436,32.992 C327.436,34.2080061 326.960005,35.2479957 326.008,36.112 C325.055995,36.9760043 323.916007,37.408 322.588,37.408 C321.259993,37.408 320.120005,36.9760043 319.168,36.112 C318.215995,35.2479957 317.74,34.2080061 317.74,32.992 C317.74,31.7759939 318.215995,30.7400043 319.168,29.884 C320.120005,29.0279957 321.259993,28.6 322.588,28.6 C323.916007,28.6 325.051995,29.0319957 325.996,29.896 Z M324.748,35.512 C325.244002,34.8559967 325.492,34.0160051 325.492,32.992 C325.492,31.9679949 325.244002,31.1320032 324.748,30.484 C324.251998,29.8359968 323.532005,29.512 322.588,29.512 C321.643995,29.512 320.924002,29.8399967 320.428,30.496 C319.931998,31.1520033 319.684,31.983995 319.684,32.992 C319.684,34.000005 319.931998,34.8319967 320.428,35.488 C320.924002,36.1440033 321.643995,36.472 322.588,36.472 C323.532005,36.472 324.251998,36.1520032 324.748,35.512 Z M336.556,31.888 L334.492,37.432 L334.012,37.432 L331.18,30.904 C330.955999,30.3759974 330.720001,30.008001 330.472,29.8 C330.223999,29.591999 329.916002,29.488 329.548,29.488 L329.548,29.008 L333.892,29.008 L333.892,29.488 C332.899995,29.488 332.611998,29.9599953 333.028,30.904 L334.66,34.648 L336.604,29.008 L337.132,29.008 L339.58,34.648 L340.876,30.904 C341.212002,29.9599953 340.980004,29.488 340.18,29.488 L340.18,29.008 L343.54,29.008 L343.54,29.488 C343.107998,29.488 342.764001,29.591999 342.508,29.8 C342.251999,30.008001 342.028001,30.3759974 341.836,30.904 L339.412,37.432 L338.932,37.432 L336.556,31.888 Z M348.892,30.328 C349.804005,29.1759942 350.915993,28.6 352.228,28.6 C353.268005,28.6 354.047997,28.9279967 354.568,29.584 C355.088003,30.2400033 355.348,31.1039946 355.348,32.176 L355.348,33.688 C355.348,34.888006 355.463999,35.6559983 355.696,35.992 C355.928001,36.3280017 356.443996,36.496 357.244,36.496 L357.244,37 L351.748,37 L351.748,36.496 C352.532004,36.496 353.043999,36.3240017 353.284,35.98 C353.524001,35.6359983 353.644,34.8720059 353.644,33.688 L353.644,32.296 C353.644,30.5839914 352.980007,29.728 351.652,29.728 C350.963997,29.728 350.332003,29.9679976 349.756,30.448 C349.179997,30.9280024 348.892,31.4879968 348.892,32.128 L348.892,33.688 C348.892,34.9200062 348.987999,35.6959984 349.18,36.016 C349.372001,36.3360016 349.835996,36.496 350.572,36.496 L350.572,37 L345.292,37 L345.292,36.496 C346.092004,36.496 346.607999,36.3280017 346.84,35.992 C347.072001,35.6559983 347.188,34.888006 347.188,33.688 L347.188,32.488 C347.188,31.3039941 347.072001,30.5440017 346.84,30.208 C346.607999,29.8719983 346.092004,29.704 345.292,29.704 L345.292,29.2 L348.484,28.6 C348.628001,28.9040015 348.763999,29.4799958 348.892,30.328 Z" id="Zener-w/5V-Breakdown-Copy" fill="#1A80AA"></path>
                <path d="M6.024,64.168 L9.792,64.168 L9.792,65.224 L6.024,65.224 L6.024,68.992 L4.968,68.992 L4.968,65.224 L1.2,65.224 L1.2,64.168 L4.968,64.168 L4.968,60.4 L6.024,60.4 L6.024,64.168 Z M23.304,65.968 C23.304,67.3920071 23.108002,68.7359937 22.716,70 C22.323998,71.2640063 21.6960043,72.3279957 20.832,73.192 C19.9679957,74.0560043 18.9520058,74.488 17.784,74.488 C16.8399953,74.488 16.0120036,74.288002 15.3,73.888 C14.5879964,73.487998 14.232,73.0800021 14.232,72.664 C14.232,72.471999 14.3039993,72.3160006 14.448,72.196 C14.5920007,72.0759994 14.7439992,72.016 14.904,72.016 C15.0640008,72.016 15.2319991,72.1039991 15.408,72.28 C15.5840009,72.4560009 15.7559992,72.647999 15.924,72.856 C16.0920008,73.064001 16.3399984,73.2559991 16.668,73.432 C16.9960016,73.6080009 17.359998,73.696 17.76,73.696 C19.9200108,73.696 21.095999,71.392023 21.288,66.784 C20.5839965,67.7280047 19.632006,68.2 18.432,68.2 C17.1039934,68.2 15.9640048,67.7600044 15.012,66.88 C14.0599952,65.9999956 13.584,64.9360062 13.584,63.688 C13.584,62.4559938 14.0599952,61.4000044 15.012,60.52 C15.9640048,59.6399956 17.1039934,59.2 18.432,59.2 C18.832002,59.2 19.235998,59.2519995 19.644,59.356 C20.052002,59.4600005 20.4799978,59.6679984 20.928,59.98 C21.3760022,60.2920016 21.7719983,60.6879976 22.116,61.168 C22.4600017,61.6480024 22.7439989,62.3039958 22.968,63.136 C23.1920011,63.9680042 23.304,64.9119947 23.304,65.968 Z M21.312,65.464 C21.2799998,64.3599945 21.1560011,63.4280038 20.94,62.668 C20.7239989,61.9079962 20.4560016,61.3640016 20.136,61.036 C19.8159984,60.7079984 19.5200014,60.4800006 19.248,60.352 C18.9759986,60.2239994 18.7040014,60.16 18.432,60.16 C17.4559951,60.16 16.7360023,60.5039966 16.272,61.192 C15.8079977,61.8800034 15.576,62.719995 15.576,63.712 C15.576,64.704005 15.8079977,65.5399966 16.272,66.22 C16.7360023,66.9000034 17.4559951,67.24 18.432,67.24 C19.1200034,67.24 19.7359973,67.0680017 20.28,66.724 C20.8240027,66.3799983 21.1679993,65.9600025 21.312,65.464 Z M41.688,56.104 C40.7439953,56.104 40.1320014,56.2199988 39.852,56.452 C39.5719986,56.6840012 39.232002,57.2639954 38.832,58.192 L33.552,70.408 L33.24,70.408 L27.936,58.192 C27.535998,57.2639954 27.1960014,56.6840012 26.916,56.452 C26.6359986,56.2199988 26.0240047,56.104 25.08,56.104 L25.08,55.6 L31.728,55.6 L31.728,56.104 C30.735995,56.104 30.1000014,56.2439986 29.82,56.524 C29.5399986,56.8040014 29.5519985,57.2719967 29.856,57.928 L33.936,67.264 L37.968,57.928 C38.2720015,57.2719967 38.2840014,56.8040014 38.004,56.524 C37.7239986,56.2439986 37.088005,56.104 36.096,56.104 L36.096,55.6 L41.688,55.6 L41.688,56.104 Z" id="+9V-Copy" fill="#524740"></path>
            </g>
            <g id="Wiring" transform="translate(99.000000, 59.000000)">
                <circle id="Connection" fill="#3D3530" cx="135" cy="5" r="5"></circle>
                <path d="M110,5 L160,5" id="Path-5" stroke="#3D3530" stroke-width="2"></path>
                <path d="M0,5 L40,5" id="Path-5-Copy" stroke="#3D3530" stroke-width="2"></path>
                <path d="M230,5 L270,5" id="Path-5-Copy-2" stroke="#3D3530" stroke-width="2"></path>
                <path d="M135,5 L135,85" id="Path-10" stroke="#3D3530" stroke-width="2"></path>
            </g>
            <g id="Zener_Diode" transform="translate(294.000000, 64.000000) rotate(-180.000000) translate(-294.000000, -64.000000) translate(259.000000, 48.000000)">
                <polygon id="Path-2" fill="#3D3530" points="24.5 3 44 16 24.5 29"></polygon>
                <path d="M44,16 L70,16" id="Path-2-Copy" stroke="#3D3530" stroke-width="3"></path>
                <path d="M0,16 L24.5,16" id="Path-3" stroke="#3D3530" stroke-width="3"></path>
                <polyline id="Path" stroke="#3D3530" stroke-width="3" stroke-linejoin="round" points="40 0 44 4 44 28 48 32"></polyline>
            </g>
            <g id="Ground" transform="translate(406.500000, 64.000000) rotate(-180.000000) translate(-406.500000, -64.000000) translate(369.000000, 31.000000)" stroke="#3D3530" stroke-width="3">
                <path d="M25,33 L75,33" id="Path-2-Copy"></path>
                <path d="M13,13 L13,53" id="Path-4"></path>
                <path d="M1,27 L1,39" id="Path-4-Copy"></path>
                <path d="M25,0 L25,66" id="Path-3-Copy"></path>
            </g>
        </g>
        <rect id="Rectangle-Copy" stroke="#3D3530" stroke-width="2" fill="#F8FAE4" x="1" y="216" width="898" height="43"></rect>
        <path d="M562.826666,229.872 L562.826666,230.928 L553.706666,244.512 L562.826666,244.512 L562.826666,246 L551.690666,246 L551.690666,244.944 L560.810666,231.36 L551.690666,231.36 L551.690666,229.872 L562.826666,229.872 Z M572.277333,244.608 C573.349338,244.608 574.309329,244.304003 575.157333,243.696 C576.005337,243.087997 576.581331,242.376004 576.885333,241.56 L578.229333,242.04 C577.861331,243.048005 577.145338,243.975996 576.081333,244.824 C575.017328,245.672004 573.74934,246.088 572.277333,246.072 C570.933326,246.072 569.705338,245.656004 568.593333,244.824 C567.481327,243.991996 566.725335,242.928006 566.325333,241.632 C566.165332,241.103997 566.085333,240.528003 566.085333,239.904 C566.085333,238.175991 566.685327,236.712006 567.885333,235.512 C569.085339,234.311994 570.549324,233.704 572.277333,233.688 C573.845341,233.704 575.213327,234.231995 576.381333,235.272 C577.549339,236.312005 578.221332,237.599992 578.397333,239.136 C578.413333,239.216 578.421333,239.319999 578.421333,239.448 L567.933333,241.344 C568.205334,242.304005 568.749329,243.091997 569.565333,243.708 C570.381337,244.324003 571.285328,244.624 572.277333,244.608 Z M572.133333,235.152 C570.933327,235.168 569.905337,235.599996 569.049333,236.448 C568.193329,237.296004 567.733333,238.311994 567.669333,239.496 C567.669333,239.544 567.673333,239.627999 567.681333,239.748 C567.689333,239.868001 567.693333,239.968 567.693333,240.048 L576.621333,238.44 C576.317331,237.463995 575.749337,236.668003 574.917333,236.052 C574.085329,235.435997 573.157338,235.136 572.133333,235.152 Z M586.768,233.808 C588.160006,233.808 589.327995,234.299995 590.272,235.284 C591.216004,236.268005 591.688,237.479993 591.688,238.92 L591.688,246 L590.08,246 L590.08,238.968 C590.08,237.943995 589.732003,237.072004 589.036,236.352 C588.339996,235.631996 587.496004,235.272 586.504,235.272 C585.511995,235.272 584.668003,235.631996 583.972,236.352 C583.275996,237.072004 582.928,237.943995 582.928,238.968 L582.928,246 L581.344,246 L581.344,234 L582.928,234 L582.928,235.776 C583.904004,234.463993 585.183992,233.808 586.768,233.808 Z M600.802666,244.608 C601.874672,244.608 602.834662,244.304003 603.682666,243.696 C604.53067,243.087997 605.106665,242.376004 605.410666,241.56 L606.754666,242.04 C606.386664,243.048005 605.670672,243.975996 604.606666,244.824 C603.542661,245.672004 602.274674,246.088 600.802666,246.072 C599.458659,246.072 598.230672,245.656004 597.118666,244.824 C596.006661,243.991996 595.250668,242.928006 594.850666,241.632 C594.690665,241.103997 594.610666,240.528003 594.610666,239.904 C594.610666,238.175991 595.21066,236.712006 596.410666,235.512 C597.610672,234.311994 599.074658,233.704 600.802666,233.688 C602.370674,233.704 603.73866,234.231995 604.906666,235.272 C606.074672,236.312005 606.746665,237.599992 606.922666,239.136 C606.938666,239.216 606.946666,239.319999 606.946666,239.448 L596.458666,241.344 C596.730668,242.304005 597.274662,243.091997 598.090666,243.708 C598.90667,244.324003 599.810661,244.624 600.802666,244.608 Z M600.658666,235.152 C599.45866,235.168 598.43067,235.599996 597.574666,236.448 C596.718662,237.296004 596.258667,238.311994 596.194666,239.496 C596.194666,239.544 596.198666,239.627999 596.206666,239.748 C596.214666,239.868001 596.218666,239.968 596.218666,240.048 L605.146666,238.44 C604.842665,237.463995 604.27467,236.668003 603.442666,236.052 C602.610662,235.435997 601.682671,235.136 600.658666,235.152 Z M615.293333,233.808 C616.141337,233.808 616.917329,234.015998 617.621333,234.432 L617.069333,236.016 C616.39733,235.519998 615.717336,235.272 615.029333,235.272 C614.021328,235.272 613.173336,235.627996 612.485333,236.34 C611.797329,237.052004 611.453333,237.927995 611.453333,238.968 L611.453333,246 L609.869333,246 L609.869333,234 L611.453333,234 L611.453333,235.776 C612.429338,234.463993 613.709325,233.808 615.293333,233.808 Z M632.922666,246.192 C631.73866,246.192 630.642671,245.856003 629.634666,245.184 C628.626661,244.511997 627.954668,243.728004 627.618666,242.832 L629.010666,242.16 C629.186667,242.720003 629.650663,243.279997 630.402666,243.84 C631.15467,244.400003 631.994662,244.68 632.922666,244.68 C633.994672,244.68 634.926662,244.340003 635.718666,243.66 C636.51067,242.979997 636.906666,242.072006 636.906666,240.936 C636.906666,239.767994 636.52267,238.816004 635.754666,238.08 C634.986662,237.343996 634.090671,236.976 633.066666,236.976 C632.202662,236.976 631.39067,237.139998 630.630666,237.468 C629.870662,237.796002 629.378667,238.103999 629.154666,238.392 L627.810666,237.84 L627.810666,229.872 L638.106666,229.872 L638.106666,231.456 L629.394666,231.456 L629.394666,236.4 C630.322671,235.775997 631.546659,235.464 633.066666,235.464 C634.554674,235.464 635.830661,235.963995 636.894666,236.964 C637.958672,237.964005 638.490666,239.279992 638.490666,240.912 C638.490666,242.544008 637.962672,243.831995 636.906666,244.776 C635.850661,245.720005 634.522674,246.192 632.922666,246.192 Z M654.541333,229.872 L656.149333,229.872 L649.789333,246 L648.181333,246 L641.797333,229.872 L643.429333,229.872 L648.997333,243.96 L654.541333,229.872 Z M678.530666,229.872 L680.138666,229.872 L673.778666,246 L672.170666,246 L665.786666,229.872 L667.418666,229.872 L672.986666,243.96 L678.530666,229.872 Z M690.837333,244.368 C689.637327,245.584006 688.181342,246.192 686.469333,246.192 C684.757324,246.192 683.297339,245.588006 682.089333,244.38 C680.881327,243.171994 680.277333,241.712009 680.277333,240 C680.277333,238.287991 680.881327,236.828006 682.089333,235.62 C683.297339,234.411994 684.757324,233.808 686.469333,233.808 C688.181342,233.808 689.641327,234.411994 690.849333,235.62 C692.057339,236.828006 692.661333,238.287991 692.661333,240 C692.661333,241.696008 692.053339,243.151994 690.837333,244.368 Z M686.493333,244.68 C687.789339,244.68 688.881329,244.228005 689.769333,243.324 C690.657337,242.419995 691.101333,241.312007 691.101333,240 C691.101333,238.687993 690.657337,237.576005 689.769333,236.664 C688.881329,235.751995 687.789339,235.296 686.493333,235.296 C685.213327,235.296 684.125337,235.751995 683.229333,236.664 C682.333329,237.576005 681.885333,238.687993 681.885333,240 C681.885333,241.312007 682.333329,242.419995 683.229333,243.324 C684.125337,244.228005 685.213327,244.68 686.493333,244.68 Z M695.944,246 L695.944,228.144 L697.528,228.144 L697.528,246 L695.944,246 Z M708.346666,243.312 L709.138666,244.536 C709.042666,244.664001 708.914667,244.815999 708.754666,244.992 C708.594666,245.168001 708.234669,245.411998 707.674666,245.724 C707.114664,246.036002 706.538669,246.192 705.946666,246.192 C704.938661,246.192 704.09467,245.892003 703.414666,245.292 C702.734663,244.691997 702.394666,243.824006 702.394666,242.688 L702.394666,235.44 L700.474666,235.44 L700.474666,233.976 L702.394666,233.976 L702.394666,230.184 L703.978666,229.992 L703.978666,233.976 L707.602666,233.976 L707.602666,235.44 L703.978666,235.44 L703.978666,242.328 C703.978666,243.064004 704.206664,243.647998 704.662666,244.08 C705.118669,244.512002 705.642663,244.728 706.234666,244.728 C706.602668,244.728 706.962665,244.616001 707.314666,244.392 C707.666668,244.167999 707.926666,243.948001 708.094666,243.732 C708.262667,243.515999 708.346666,243.376 708.346666,243.312 Z M721.469333,234 L723.053333,234 L723.053333,246 L721.469333,246 L721.469333,244.056 C720.237327,245.480007 718.677343,246.192 716.789333,246.192 C715.077325,246.192 713.617339,245.588006 712.409333,244.38 C711.201327,243.171994 710.597333,241.712009 710.597333,240 C710.597333,238.287991 711.201327,236.828006 712.409333,235.62 C713.617339,234.411994 715.077325,233.808 716.789333,233.808 C718.693343,233.808 720.253327,234.519993 721.469333,235.944 L721.469333,234 Z M716.813333,244.68 C718.10934,244.68 719.201329,244.228005 720.089333,243.324 C720.977338,242.419995 721.421333,241.312007 721.421333,240 C721.421333,238.687993 720.977338,237.580005 720.089333,236.676 C719.201329,235.771995 718.10934,235.32 716.813333,235.32 C715.533327,235.32 714.441338,235.771995 713.537333,236.676 C712.633329,237.580005 712.181333,238.687993 712.181333,240 C712.181333,241.312007 712.633329,242.419995 713.537333,243.324 C714.441338,244.228005 715.533327,244.68 716.813333,244.68 Z M737.184,234.024 L738.792,234.024 L738.792,244.968 C738.776,246.712009 738.148006,248.171994 736.908,249.348 C735.667994,250.524006 734.232008,251.112 732.6,251.112 C731.111992,251.112 729.844005,250.716004 728.796,249.924 C727.747995,249.131996 727.040002,248.240005 726.672,247.248 L727.968,246.6 C728.272001,247.416004 728.847996,248.127997 729.696,248.736 C730.544004,249.344003 731.511994,249.648 732.6,249.648 C733.880006,249.648 734.963995,249.180005 735.852,248.244 C736.740004,247.307995 737.192,246.216006 737.208,244.968 L737.184,244.968 L737.184,244.08 C735.967994,245.504007 734.408009,246.216 732.504,246.216 C730.791991,246.216 729.332006,245.612006 728.124,244.404 C726.915994,243.195994 726.312,241.736009 726.312,240.024 C726.312,238.311991 726.915994,236.852006 728.124,235.644 C729.332006,234.435994 730.791991,233.832 732.504,233.832 C734.392009,233.832 735.951994,234.543993 737.184,235.968 L737.184,234.024 Z M732.528,244.728 C733.824006,244.728 734.915995,244.276005 735.804,243.372 C736.692004,242.467995 737.136,241.360007 737.136,240.048 C737.136,238.735993 736.692004,237.628005 735.804,236.724 C734.915995,235.819995 733.824006,235.368 732.528,235.368 C731.247993,235.368 730.160004,235.819995 729.264,236.724 C728.367995,237.628005 727.92,238.735993 727.92,240.048 C727.92,241.360007 728.367995,242.467995 729.264,243.372 C730.160004,244.276005 731.247993,244.728 732.528,244.728 Z M748.266666,244.608 C749.338672,244.608 750.298662,244.304003 751.146666,243.696 C751.994671,243.087997 752.570665,242.376004 752.874666,241.56 L754.218666,242.04 C753.850665,243.048005 753.134672,243.975996 752.070666,244.824 C751.006661,245.672004 749.738674,246.088 748.266666,246.072 C746.92266,246.072 745.694672,245.656004 744.582666,244.824 C743.470661,243.991996 742.714668,242.928006 742.314666,241.632 C742.154666,241.103997 742.074666,240.528003 742.074666,239.904 C742.074666,238.175991 742.67466,236.712006 743.874666,235.512 C745.074672,234.311994 746.538658,233.704 748.266666,233.688 C749.834674,233.704 751.202661,234.231995 752.370666,235.272 C753.538672,236.312005 754.210666,237.599992 754.386666,239.136 C754.402667,239.216 754.410666,239.319999 754.410666,239.448 L743.922666,241.344 C744.194668,242.304005 744.738662,243.091997 745.554666,243.708 C746.370671,244.324003 747.274661,244.624 748.266666,244.608 Z M748.122666,235.152 C746.92266,235.168 745.894671,235.599996 745.038666,236.448 C744.182662,237.296004 743.722667,238.311994 743.658666,239.496 C743.658666,239.544 743.662666,239.627999 743.670666,239.748 C743.678666,239.868001 743.682666,239.968 743.682666,240.048 L752.610666,238.44 C752.306665,237.463995 751.738671,236.668003 750.906666,236.052 C750.074662,235.435997 749.146672,235.136 748.122666,235.152 Z M765.152,246 L765.152,229.872 L770.624,229.872 C772.432009,229.872 773.871994,230.347995 774.944,231.3 C776.016005,232.252005 776.552,233.447993 776.552,234.888 C776.552,235.960005 776.236003,236.911996 775.604,237.744 C774.971997,238.576004 774.088006,239.167998 772.952,239.52 L776.552,246 L774.896,246 L771.464,239.856 L770.48,239.904 L766.736,239.904 L766.736,246 L765.152,246 Z M766.736,238.392 L770.624,238.392 C771.920006,238.392 772.959996,238.060003 773.744,237.396 C774.528004,236.731997 774.92,235.896005 774.92,234.888 C774.92,233.895995 774.528004,233.064003 773.744,232.392 C772.959996,231.719997 771.920006,231.384 770.624,231.384 L766.736,231.384 L766.736,238.392 Z M784.994667,244.608 C786.066672,244.608 787.026662,244.304003 787.874667,243.696 C788.722671,243.087997 789.298665,242.376004 789.602667,241.56 L790.946667,242.04 C790.578665,243.048005 789.862672,243.975996 788.798667,244.824 C787.734661,245.672004 786.466674,246.088 784.994667,246.072 C783.65066,246.072 782.422672,245.656004 781.310667,244.824 C780.198661,243.991996 779.442669,242.928006 779.042667,241.632 C778.882666,241.103997 778.802667,240.528003 778.802667,239.904 C778.802667,238.175991 779.402661,236.712006 780.602667,235.512 C781.802673,234.311994 783.266658,233.704 784.994667,233.688 C786.562674,233.704 787.930661,234.231995 789.098667,235.272 C790.266672,236.312005 790.938666,237.599992 791.114667,239.136 C791.130667,239.216 791.138667,239.319999 791.138667,239.448 L780.650667,241.344 C780.922668,242.304005 781.466662,243.091997 782.282667,243.708 C783.098671,244.324003 784.002662,244.624 784.994667,244.608 Z M784.850667,235.152 C783.650661,235.168 782.622671,235.599996 781.766667,236.448 C780.910662,237.296004 780.450667,238.311994 780.386667,239.496 C780.386667,239.544 780.390666,239.627999 780.398667,239.748 C780.406667,239.868001 780.410667,239.968 780.410667,240.048 L789.338667,238.44 C789.034665,237.463995 788.466671,236.668003 787.634667,236.052 C786.802662,235.435997 785.874672,235.136 784.850667,235.152 Z M798.477333,233.952 L798.477333,235.272 L796.125333,235.272 L796.125333,246 L794.565333,246 L794.565333,235.272 L793.149333,235.272 L793.149333,233.952 L794.565333,233.952 L794.565333,230.472 C794.565333,228.807992 795.221327,227.976 796.533333,227.976 C796.821335,227.976 797.113332,228 797.409333,228.048 C797.705335,228.096 797.925332,228.144 798.069333,228.192 L798.285333,228.264 L797.949333,229.488 C797.629332,229.408 797.309335,229.368 796.989333,229.368 C796.637331,229.368 796.405334,229.483999 796.293333,229.716 C796.181333,229.948001 796.125333,230.391997 796.125333,231.048 L796.125333,233.952 L798.477333,233.952 Z M806.56,244.608 C807.632005,244.608 808.591996,244.304003 809.44,243.696 C810.288004,243.087997 810.863998,242.376004 811.168,241.56 L812.512,242.04 C812.143998,243.048005 811.428005,243.975996 810.364,244.824 C809.299995,245.672004 808.032007,246.088 806.56,246.072 C805.215993,246.072 803.988005,245.656004 802.876,244.824 C801.763994,243.991996 801.008002,242.928006 800.608,241.632 C800.447999,241.103997 800.368,240.528003 800.368,239.904 C800.368,238.175991 800.967994,236.712006 802.168,235.512 C803.368006,234.311994 804.831991,233.704 806.56,233.688 C808.128008,233.704 809.495994,234.231995 810.664,235.272 C811.832006,236.312005 812.503999,237.599992 812.68,239.136 C812.696,239.216 812.704,239.319999 812.704,239.448 L802.216,241.344 C802.488001,242.304005 803.031996,243.091997 803.848,243.708 C804.664004,244.324003 805.567995,244.624 806.56,244.608 Z M806.416,235.152 C805.215994,235.168 804.188004,235.599996 803.332,236.448 C802.475996,237.296004 802.016,238.311994 801.952,239.496 C801.952,239.544 801.956,239.627999 801.964,239.748 C801.972,239.868001 801.976,239.968 801.976,240.048 L810.904,238.44 C810.599998,237.463995 810.032004,236.668003 809.2,236.052 C808.367996,235.435997 807.440005,235.136 806.416,235.152 Z M821.050667,233.808 C821.898671,233.808 822.674663,234.015998 823.378667,234.432 L822.826667,236.016 C822.154663,235.519998 821.47467,235.272 820.786667,235.272 C819.778662,235.272 818.93067,235.627996 818.242667,236.34 C817.554663,237.052004 817.210667,237.927995 817.210667,238.968 L817.210667,246 L815.626667,246 L815.626667,234 L817.210667,234 L817.210667,235.776 C818.186671,234.463993 819.466659,233.808 821.050667,233.808 Z M830.693333,244.608 C831.765339,244.608 832.725329,244.304003 833.573333,243.696 C834.421337,243.087997 834.997332,242.376004 835.301333,241.56 L836.645333,242.04 C836.277331,243.048005 835.561339,243.975996 834.497333,244.824 C833.433328,245.672004 832.165341,246.088 830.693333,246.072 C829.349327,246.072 828.121339,245.656004 827.009333,244.824 C825.897328,243.991996 825.141335,242.928006 824.741333,241.632 C824.581332,241.103997 824.501333,240.528003 824.501333,239.904 C824.501333,238.175991 825.101327,236.712006 826.301333,235.512 C827.501339,234.311994 828.965325,233.704 830.693333,233.688 C832.261341,233.704 833.629327,234.231995 834.797333,235.272 C835.965339,236.312005 836.637332,237.599992 836.813333,239.136 C836.829333,239.216 836.837333,239.319999 836.837333,239.448 L826.349333,241.344 C826.621335,242.304005 827.165329,243.091997 827.981333,243.708 C828.797337,244.324003 829.701328,244.624 830.693333,244.608 Z M830.549333,235.152 C829.349327,235.168 828.321338,235.599996 827.465333,236.448 C826.609329,237.296004 826.149334,238.311994 826.085333,239.496 C826.085333,239.544 826.089333,239.627999 826.097333,239.748 C826.105333,239.868001 826.109333,239.968 826.109333,240.048 L835.037333,238.44 C834.733332,237.463995 834.165337,236.668003 833.333333,236.052 C832.501329,235.435997 831.573338,235.136 830.549333,235.152 Z M845.184,233.808 C846.576007,233.808 847.743995,234.299995 848.688,235.284 C849.632005,236.268005 850.104,237.479993 850.104,238.92 L850.104,246 L848.496,246 L848.496,238.968 C848.496,237.943995 848.148003,237.072004 847.452,236.352 C846.755996,235.631996 845.912005,235.272 844.92,235.272 C843.927995,235.272 843.084003,235.631996 842.388,236.352 C841.691996,237.072004 841.344,237.943995 841.344,238.968 L841.344,246 L839.76,246 L839.76,234 L841.344,234 L841.344,235.776 C842.320005,234.463993 843.599992,233.808 845.184,233.808 Z M859.218667,246.192 C857.506658,246.192 856.046673,245.588006 854.838667,244.38 C853.630661,243.171994 853.026667,241.712009 853.026667,240 C853.026667,238.287991 853.630661,236.828006 854.838667,235.62 C856.046673,234.411994 857.506658,233.808 859.218667,233.808 C860.306672,233.808 861.318662,234.075997 862.254667,234.612 C863.190671,235.148003 863.930664,235.863996 864.474667,236.76 L863.034667,237.456 C862.602664,236.799997 862.05067,236.280002 861.378667,235.896 C860.706663,235.511998 859.98667,235.32 859.218667,235.32 C857.92266,235.32 856.830671,235.771995 855.942667,236.676 C855.054662,237.580005 854.610667,238.687993 854.610667,240 C854.610667,241.312007 855.054662,242.419995 855.942667,243.324 C856.830671,244.228005 857.92266,244.68 859.218667,244.68 C859.98667,244.68 860.706663,244.488002 861.378667,244.104 C862.05067,243.719998 862.602664,243.200003 863.034667,242.544 L864.474667,243.24 C863.930664,244.136004 863.190671,244.851997 862.254667,245.388 C861.318662,245.924003 860.306672,246.192 859.218667,246.192 Z M873.037333,244.608 C874.109339,244.608 875.069329,244.304003 875.917333,243.696 C876.765338,243.087997 877.341332,242.376004 877.645333,241.56 L878.989333,242.04 C878.621331,243.048005 877.905339,243.975996 876.841333,244.824 C875.777328,245.672004 874.509341,246.088 873.037333,246.072 C871.693327,246.072 870.465339,245.656004 869.353333,244.824 C868.241328,243.991996 867.485335,242.928006 867.085333,241.632 C866.925333,241.103997 866.845333,240.528003 866.845333,239.904 C866.845333,238.175991 867.445327,236.712006 868.645333,235.512 C869.845339,234.311994 871.309325,233.704 873.037333,233.688 C874.605341,233.704 875.973327,234.231995 877.141333,235.272 C878.309339,236.312005 878.981332,237.599992 879.157333,239.136 C879.173333,239.216 879.181333,239.319999 879.181333,239.448 L868.693333,241.344 C868.965335,242.304005 869.509329,243.091997 870.325333,243.708 C871.141337,244.324003 872.045328,244.624 873.037333,244.608 Z M872.893333,235.152 C871.693327,235.168 870.665338,235.599996 869.809333,236.448 C868.953329,237.296004 868.493334,238.311994 868.429333,239.496 C868.429333,239.544 868.433333,239.627999 868.441333,239.748 C868.449333,239.868001 868.453333,239.968 868.453333,240.048 L877.381333,238.44 C877.077332,237.463995 876.509337,236.668003 875.677333,236.052 C874.845329,235.435997 873.917338,235.136 872.893333,235.152 Z" id="Zener-5V-Voltage-Ref-Copy" fill="#23ABE3"></path>
    </g>
</svg>