<?xml version="1.0" encoding="UTF-8"?>
<svg width="803px" height="404px" viewBox="0 0 803 404" version="1.1" xmlns="http://www.w3.org/2000/svg" xmlns:xlink="http://www.w3.org/1999/xlink">
    <!-- Generator: Sketch 52.5 (67469) - http://www.bohemiancoding.com/sketch -->
    <title>Zener_Voltage_Reference_Circuit</title>
    <desc>Created with Sketch.</desc>
    <g id="Zener_Voltage_Reference_Circuit" stroke="none" stroke-width="1" fill="none" fill-rule="evenodd">
        <g id="Group-2">
            <rect id="Rectangle" fill="#EEEEEE" x="0" y="0" width="803" height="404"></rect>
            <g id="Zener_Voltage_Reference_Circuit" transform="translate(234.000000, 30.000000)">
                <g id="Group" transform="translate(3.000000, 0.000000)">
                    <path d="M5,19 L25,19" id="Path" stroke="#000000" stroke-width="3" stroke-linecap="round"></path>
                    <path d="M15,66 L15,19" id="Path" stroke="#000000" stroke-width="3" stroke-linecap="round"></path>
                    <text id="+9V" fill="#000000" font-family="Helvetica" font-size="15" font-weight="normal">
                        <tspan x="0" y="15">+9V</tspan>
                    </text>
                </g>
                <g id="Group" transform="translate(10.000000, 66.000000)">
                    <path d="M8,0 L8,16" id="Path" stroke="#000000" stroke-width="3" stroke-linecap="round"></path>
                    <path d="M8,48 L8,64" id="Path" stroke="#000000" stroke-width="3" stroke-linecap="round"></path>
                    <polyline id="Path" stroke="#000000" stroke-width="3" stroke-linecap="round" stroke-linejoin="round" points="8 16 16 18.6667 8 21.3333 0 24 8 26.6667"></polyline>
                    <polyline id="Path" stroke="#000000" stroke-width="3" stroke-linecap="round" stroke-linejoin="round" points="8 26.6667 16 29.3333 8 32 0 34.6667 8 37.3333"></polyline>
                    <polyline id="Path" stroke="#000000" stroke-width="3" stroke-linecap="round" stroke-linejoin="round" points="8 37.3333 16 40 8 42.6667 0 45.3333 8 48"></polyline>
                    <text id="R1-=-680" fill="#000000" font-family="Helvetica" font-size="15" font-weight="normal">
                        <tspan x="23" y="37">R1 = 680</tspan>
                    </text>
                </g>
                <g id="Group" transform="translate(14.000000, 158.000000)">
                    <path d="M4,36 L4,4" id="Path" stroke="#000000" stroke-width="1.5" stroke-linecap="round"></path>
                    <circle id="Oval" fill="#000000" cx="4" cy="4" r="4"></circle>
                </g>
                <g id="Group" transform="translate(146.000000, 152.000000)">
                    <polygon id="Path" fill-opacity="0.831372549" fill="#FFFFFF" points="0 10 8 0 64 0 64 20 8 20"></polygon>
                    <polygon id="Path" stroke="#000000" points="0 10 8 0 64 0 64 20 8 20"></polygon>
                    <text id="1" fill="#000000" font-family="Helvetica" font-size="15" font-weight="normal">
                        <tspan x="27" y="15">1</tspan>
                    </text>
                    <text id="~5V-Reference" fill="#000000" font-family="Helvetica" font-size="15" font-weight="normal">
                        <tspan x="72" y="15">~5V Reference</tspan>
                    </text>
                </g>
                <g id="Group" transform="translate(14.000000, 130.000000)">
                    <path d="M4,32 L4,0" id="Path" stroke="#000000" stroke-width="1.5" stroke-linecap="round"></path>
                    <circle id="Oval" fill="#000000" cx="4" cy="32" r="4"></circle>
                </g>
                <g id="Group" transform="translate(14.000000, 132.000000)">
                    <path d="M132,30 L4,30" id="Path" stroke="#000000" stroke-width="1.5" stroke-linecap="round"></path>
                    <text id="5.01V" fill="#000000" font-family="Helvetica" font-size="15" font-weight="normal">
                        <tspan x="43" y="15">5.01V</tspan>
                    </text>
                    <circle id="Oval" fill="#000000" cx="4" cy="30" r="4"></circle>
                </g>
                <g id="Group" transform="translate(8.000000, 258.000000)" stroke="#000000" stroke-linecap="round" stroke-width="3">
                    <path d="M10,0 L10,64" id="Path"></path>
                    <path d="M20,64 L0,64" id="Path"></path>
                    <path d="M16,69 L4,69" id="Path"></path>
                    <path d="M12,74 L8,74" id="Path"></path>
                </g>
                <g id="Group" transform="translate(0.000000, 194.000000)">
                    <path d="M18,64 L18,41" id="Path" stroke="#000000" stroke-width="3" stroke-linecap="round"></path>
                    <path d="M18,22 L18,0" id="Path" stroke="#000000" stroke-width="3" stroke-linecap="round"></path>
                    <polygon id="Path" fill="#000000" points="5 41 31 41 18 22"></polygon>
                    <path d="M5,22 L31,22" id="Path" stroke="#000000" stroke-width="3" stroke-linecap="round"></path>
                    <path d="M0,35 L5,22" id="Path" stroke="#000000" stroke-width="3" stroke-linecap="round"></path>
                    <path d="M36,9 L31,22" id="Path" stroke="#000000" stroke-width="3" stroke-linecap="round"></path>
                    <text id="5V-Breakdown" fill="#000000" font-family="Helvetica" font-size="15" font-weight="normal">
                        <tspan x="36" y="37">5V Breakdown</tspan>
                    </text>
                </g>
            </g>
        </g>
    </g>
</svg>