<?xml version="1.0" encoding="UTF-8"?>
<svg width="900px" height="280px" viewBox="0 0 900 280" version="1.1" xmlns="http://www.w3.org/2000/svg" xmlns:xlink="http://www.w3.org/1999/xlink">
    <!-- Generator: Sketch 52.5 (67469) - http://www.bohemiancoding.com/sketch -->
    <title>Zener_Voltage_Reference_Circuit</title>
    <desc>Created with Sketch.</desc>
    <g id="Zener_Voltage_Reference_Circuit" stroke="none" stroke-width="1" fill="none" fill-rule="evenodd">
        <rect id="Rectangle" fill="#EEEEEE" x="0" y="0" width="900" height="404"></rect>
        <g id="Circuit" transform="translate(230.000000, 21.000000)">
            <polyline id="Resistor" stroke="#3D3530" stroke-width="3" stroke-linejoin="round" points="139 64 144 64 149 51 159 77 169 51 179 77 189 51 199 77 204 64 209 64"></polyline>
            <g id="DC_Rail" transform="translate(73.500000, 64.000000) rotate(-180.000000) translate(-73.500000, -64.000000) translate(48.000000, 49.000000)" stroke="#3D3530" stroke-width="3">
                <path d="M-5.32907052e-15,15 L50,15" id="Path-2-Copy"></path>
                <path d="M50,-4.26325641e-14 L50,30" id="Path-4"></path>
            </g>
            <g id="Labels">
                <g id="5V-Reference" transform="translate(149.000000, 144.000000)">
                    <rect id="Rectangle" stroke="#3D3530" stroke-width="2" fill="#F8FAE4" x="1" y="1" width="168" height="28" rx="5"></rect>
                    <path d="M19.344,15.536 C19.6000013,15.2159984 19.9839974,14.960001 20.496,14.768 C21.0080026,14.575999 21.5199974,14.48 22.032,14.48 C23.3760067,14.48 24.4839956,14.9599952 25.356,15.92 C26.2280044,16.8800048 26.664,18.063993 26.664,19.472 C26.664,20.8480069 26.1880048,22.0279951 25.236,23.012 C24.2839952,23.9960049 23.1440066,24.488 21.816,24.488 C20.6639942,24.488 19.7240036,24.192003 18.996,23.6 C18.2679964,23.007997 17.904,22.4320028 17.904,21.872 C17.904,21.4399978 18.1279978,21.224 18.576,21.224 C18.784001,21.224 18.9679992,21.3479988 19.128,21.596 C19.2880008,21.8440012 19.4319994,22.1119986 19.56,22.4 C19.6880006,22.6880014 19.947998,22.9559988 20.34,23.204 C20.732002,23.4520012 21.223997,23.576 21.816,23.576 C22.7600047,23.576 23.4719976,23.1960038 23.952,22.436 C24.4320024,21.6759962 24.672,20.6880061 24.672,19.472 C24.672,18.2559939 24.4360024,17.2880036 23.964,16.568 C23.4919976,15.8479964 22.7760048,15.488 21.816,15.488 C20.2639922,15.488 19.3680012,16.2719922 19.128,17.84 L18.24,17.84 L18.984,9.608 L23.04,9.608 C24.0800052,9.608 24.7599984,9.48400124 25.08,9.236 C25.4000016,8.98799876 25.6479991,8.5040036 25.824,7.784 L26.376,7.784 L25.776,11.288 L19.704,11.288 L19.344,15.536 Z M45.072,6.104 C44.1279953,6.104 43.5160014,6.21999884 43.236,6.452 C42.9559986,6.68400116 42.616002,7.26399536 42.216,8.192 L36.936,20.408 L36.624,20.408 L31.32,8.192 C30.919998,7.26399536 30.5800014,6.68400116 30.3,6.452 C30.0199986,6.21999884 29.4080047,6.104 28.464,6.104 L28.464,5.6 L35.112,5.6 L35.112,6.104 C34.119995,6.104 33.4840014,6.2439986 33.204,6.524 C32.9239986,6.8040014 32.9359985,7.27199672 33.24,7.928 L37.32,17.264 L41.352,7.928 C41.6560015,7.27199672 41.6680014,6.8040014 41.388,6.524 C41.1079986,6.2439986 40.472005,6.104 39.48,6.104 L39.48,5.6 L45.072,5.6 L45.072,6.104 Z M59.4,12.824 C60.392005,12.824 61.1479974,12.528003 61.668,11.936 C62.1880026,11.343997 62.448,10.5840046 62.448,9.656 C62.448,8.72799536 62.1880026,7.96800296 61.668,7.376 C61.1479974,6.78399704 60.392005,6.488 59.4,6.488 L57.288,6.488 L57.288,12.824 L59.4,12.824 Z M60.312,13.688 L62.664,16.448 C64.2320078,18.3200094 65.719993,19.3359992 67.128,19.496 L67.128,20 L63.168,20 L58.416,13.688 L57.288,13.688 L57.288,16.688 C57.288,17.888006 57.4199987,18.6559983 57.684,18.992 C57.9480013,19.3280017 58.575995,19.496 59.568,19.496 L59.568,20 L53.088,20 L53.088,19.496 C54.080005,19.496 54.7079987,19.3280017 54.972,18.992 C55.2360013,18.6559983 55.368,17.888006 55.368,16.688 L55.368,8.888 C55.368,7.687994 55.2360013,6.92400164 54.972,6.596 C54.7079987,6.26799836 54.080005,6.104 53.088,6.104 L53.088,5.6 L59.424,5.6 C61.0400081,5.6 62.3039954,5.98399616 63.216,6.752 C64.1280046,7.52000384 64.584,8.48799416 64.584,9.656 C64.584,10.7280054 64.2040038,11.6319963 63.444,12.368 C62.6839962,13.1040037 61.6400066,13.5439993 60.312,13.688 Z M71.472,14.504 L75.456,14.504 C75.6160008,14.0559978 75.5480015,13.6200021 75.252,13.196 C74.9559985,12.7719979 74.4480036,12.56 73.728,12.56 C73.2159974,12.56 72.756002,12.7359982 72.348,13.088 C71.939998,13.4400018 71.6480009,13.911997 71.472,14.504 Z M71.328,15.392 C71.1839993,16.5760059 71.3719974,17.5399963 71.892,18.284 C72.4120026,19.0280037 73.2639941,19.4 74.448,19.4 C74.848002,19.4 75.3039974,19.296001 75.816,19.088 C76.3280026,18.879999 76.7519983,18.6160016 77.088,18.296 L77.52,18.824 C77.0879978,19.2880023 76.5360034,19.6679985 75.864,19.964 C75.1919966,20.2600015 74.5200034,20.408 73.848,20.408 C72.5519935,20.408 71.4880042,19.9800043 70.656,19.124 C69.8239958,18.2679957 69.408,17.2240062 69.408,15.992 C69.408,14.7599938 69.8599955,13.7200042 70.764,12.872 C71.6680045,12.0239958 72.6959942,11.6 73.848,11.6 C74.9360054,11.6 75.8239966,11.9799962 76.512,12.74 C77.2000034,13.5000038 77.4000014,14.383995 77.112,15.392 L71.328,15.392 Z M84.096,12.848 L84.096,16.688 C84.096,17.888006 84.2119988,18.6559983 84.444,18.992 C84.6760012,19.3280017 85.191996,19.496 85.992,19.496 L85.992,20 L80.496,20 L80.496,19.496 C81.296004,19.496 81.8119988,19.3280017 82.044,18.992 C82.2760012,18.6559983 82.392,17.888006 82.392,16.688 L82.392,12.848 L80.424,12.848 L80.424,12.008 L82.392,12.008 L82.392,9.704 C82.392,8.1839924 82.7719962,7.05200372 83.532,6.308 C84.2920038,5.56399628 85.2239945,5.192 86.328,5.192 C87.0640037,5.192 87.6479978,5.37999812 88.08,5.756 C88.5120022,6.13200188 88.728,6.53599784 88.728,6.968 C88.728,7.22400128 88.6600007,7.4319992 88.524,7.592 C88.3879993,7.7520008 88.1920013,7.832 87.936,7.832 C87.6799987,7.832 87.4800007,7.73600096 87.336,7.544 C87.1919993,7.35199904 87.0960002,7.14000116 87.048,6.908 C86.9999998,6.67599884 86.880001,6.46400096 86.688,6.272 C86.495999,6.07999904 86.2320017,5.984 85.896,5.984 C85.2719969,5.984 84.8160014,6.26799716 84.528,6.836 C84.2399986,7.40400284 84.096,8.35999328 84.096,9.704 L84.096,12.008 L86.496,12.008 L86.496,12.848 L84.096,12.848 Z M91.512,14.504 L95.496,14.504 C95.6560008,14.0559978 95.5880015,13.6200021 95.292,13.196 C94.9959985,12.7719979 94.4880036,12.56 93.768,12.56 C93.2559974,12.56 92.796002,12.7359982 92.388,13.088 C91.979998,13.4400018 91.6880009,13.911997 91.512,14.504 Z M91.368,15.392 C91.2239993,16.5760059 91.4119974,17.5399963 91.932,18.284 C92.4520026,19.0280037 93.3039941,19.4 94.488,19.4 C94.888002,19.4 95.3439974,19.296001 95.856,19.088 C96.3680026,18.879999 96.7919983,18.6160016 97.128,18.296 L97.56,18.824 C97.1279978,19.2880023 96.5760034,19.6679985 95.904,19.964 C95.2319966,20.2600015 94.5600034,20.408 93.888,20.408 C92.5919935,20.408 91.5280042,19.9800043 90.696,19.124 C89.8639958,18.2679957 89.448,17.2240062 89.448,15.992 C89.448,14.7599938 89.8999955,13.7200042 90.804,12.872 C91.7080045,12.0239958 92.7359942,11.6 93.888,11.6 C94.9760054,11.6 95.8639966,11.9799962 96.552,12.74 C97.2400034,13.5000038 97.4400014,14.383995 97.152,15.392 L91.368,15.392 Z M108.552,13.088 C108.552,13.8400038 108.232003,14.216 107.592,14.216 C107.367999,14.216 107.172001,14.1280009 107.004,13.952 C106.835999,13.7759991 106.752,13.5760011 106.752,13.352 C106.752,12.8239974 106.496003,12.56 105.984,12.56 C105.615998,12.56 105.216002,12.8159974 104.784,13.328 C104.351998,13.8400026 104.136,14.5199958 104.136,15.368 L104.136,16.688 C104.136,17.888006 104.251999,18.6559983 104.484,18.992 C104.716001,19.3280017 105.231996,19.496 106.032,19.496 L106.032,20 L100.536,20 L100.536,19.496 C101.336004,19.496 101.851999,19.3280017 102.084,18.992 C102.316001,18.6559983 102.432,17.888006 102.432,16.688 L102.432,15.488 C102.432,14.3039941 102.316001,13.5440017 102.084,13.208 C101.851999,12.8719983 101.336004,12.704 100.536,12.704 L100.536,12.2 L103.728,11.6 C103.872001,11.9040015 104.007999,12.4799958 104.136,13.328 C104.376001,12.8479976 104.735998,12.4400017 105.216,12.104 C105.696002,11.7679983 106.175998,11.6 106.656,11.6 C107.264003,11.6 107.731998,11.7599984 108.06,12.08 C108.388002,12.4000016 108.552,12.7359982 108.552,13.088 Z M113.064,14.504 L117.048,14.504 C117.208001,14.0559978 117.140001,13.6200021 116.844,13.196 C116.547999,12.7719979 116.040004,12.56 115.32,12.56 C114.807997,12.56 114.348002,12.7359982 113.94,13.088 C113.531998,13.4400018 113.240001,13.911997 113.064,14.504 Z M112.92,15.392 C112.775999,16.5760059 112.963997,17.5399963 113.484,18.284 C114.004003,19.0280037 114.855994,19.4 116.04,19.4 C116.440002,19.4 116.895997,19.296001 117.408,19.088 C117.920003,18.879999 118.343998,18.6160016 118.68,18.296 L119.112,18.824 C118.679998,19.2880023 118.128003,19.6679985 117.456,19.964 C116.783997,20.2600015 116.112003,20.408 115.44,20.408 C114.143994,20.408 113.080004,19.9800043 112.248,19.124 C111.415996,18.2679957 111,17.2240062 111,15.992 C111,14.7599938 111.451995,13.7200042 112.356,12.872 C113.260005,12.0239958 114.287994,11.6 115.44,11.6 C116.528005,11.6 117.415997,11.9799962 118.104,12.74 C118.792003,13.5000038 118.992001,14.383995 118.704,15.392 L112.92,15.392 Z M125.688,13.328 C126.600005,12.1759942 127.711993,11.6 129.024,11.6 C130.064005,11.6 130.843997,11.9279967 131.364,12.584 C131.884003,13.2400033 132.144,14.1039946 132.144,15.176 L132.144,16.688 C132.144,17.888006 132.259999,18.6559983 132.492,18.992 C132.724001,19.3280017 133.239996,19.496 134.04,19.496 L134.04,20 L128.544,20 L128.544,19.496 C129.328004,19.496 129.839999,19.3240017 130.08,18.98 C130.320001,18.6359983 130.44,17.8720059 130.44,16.688 L130.44,15.296 C130.44,13.5839914 129.776007,12.728 128.448,12.728 C127.759997,12.728 127.128003,12.9679976 126.552,13.448 C125.975997,13.9280024 125.688,14.4879968 125.688,15.128 L125.688,16.688 C125.688,17.9200062 125.783999,18.6959984 125.976,19.016 C126.168001,19.3360016 126.631996,19.496 127.368,19.496 L127.368,20 L122.088,20 L122.088,19.496 C122.888004,19.496 123.403999,19.3280017 123.636,18.992 C123.868001,18.6559983 123.984,17.888006 123.984,16.688 L123.984,15.488 C123.984,14.3039941 123.868001,13.5440017 123.636,13.208 C123.403999,12.8719983 122.888004,12.704 122.088,12.704 L122.088,12.2 L125.28,11.6 C125.424001,11.9040015 125.559999,12.4799958 125.688,13.328 Z M141.096,12.368 C140.455997,12.368 139.912002,12.7359963 139.464,13.472 C139.015998,14.2080037 138.792,15.1199946 138.792,16.208 C138.792,17.200005 139.035998,17.9799972 139.524,18.548 C140.012002,19.1160028 140.735995,19.4 141.696,19.4 C142.624005,19.4 143.479996,19.0320037 144.264,18.296 L144.672,18.824 C143.695995,19.8800053 142.504007,20.408 141.096,20.408 C139.783993,20.408 138.748004,20.0160039 137.988,19.232 C137.227996,18.4479961 136.848,17.4400062 136.848,16.208 C136.848,14.8799934 137.295996,13.7800044 138.192,12.908 C139.088004,12.0359956 140.055995,11.6 141.096,11.6 C142.040005,11.6 142.751998,11.7679983 143.232,12.104 C143.712002,12.4400017 143.952,12.8479976 143.952,13.328 C143.952,13.5840013 143.868001,13.8199989 143.7,14.036 C143.531999,14.2520011 143.264002,14.36 142.896,14.36 C142.639999,14.36 142.420001,14.2680009 142.236,14.084 C142.051999,13.8999991 141.96,13.6720014 141.96,13.4 C141.96,12.7119966 141.672003,12.368 141.096,12.368 Z M149.544,14.504 L153.528,14.504 C153.688001,14.0559978 153.620001,13.6200021 153.324,13.196 C153.027999,12.7719979 152.520004,12.56 151.8,12.56 C151.287997,12.56 150.828002,12.7359982 150.42,13.088 C150.011998,13.4400018 149.720001,13.911997 149.544,14.504 Z M149.4,15.392 C149.255999,16.5760059 149.443997,17.5399963 149.964,18.284 C150.484003,19.0280037 151.335994,19.4 152.52,19.4 C152.920002,19.4 153.375997,19.296001 153.888,19.088 C154.400003,18.879999 154.823998,18.6160016 155.16,18.296 L155.592,18.824 C155.159998,19.2880023 154.608003,19.6679985 153.936,19.964 C153.263997,20.2600015 152.592003,20.408 151.92,20.408 C150.623994,20.408 149.560004,19.9800043 148.728,19.124 C147.895996,18.2679957 147.48,17.2240062 147.48,15.992 C147.48,14.7599938 147.931995,13.7200042 148.836,12.872 C149.740005,12.0239958 150.767994,11.6 151.92,11.6 C153.008005,11.6 153.895997,11.9799962 154.584,12.74 C155.272003,13.5000038 155.472001,14.383995 155.184,15.392 L149.4,15.392 Z" id="5V-Reference-Copy" fill="#1A80AA"></path>
                </g>
                <path d="M248.728,3.488 L244.312,3.488 C243.591996,3.488 243.044002,3.55999928 242.668,3.704 C242.291998,3.84800072 242.036001,4.02799892 241.9,4.244 C241.763999,4.46000108 241.640001,4.8079976 241.528,5.288 L241.408,5.768 L240.904,5.768 L241.12,2.6 L251.344,2.6 L251.344,2.888 L243.064,16.112 L248.464,16.112 C249.184004,16.112 249.731998,16.0400007 250.108,15.896 C250.484002,15.7519993 250.739999,15.5680011 250.876,15.344 C251.012001,15.1199989 251.135999,14.7680024 251.248,14.288 L251.368,13.808 L251.872,13.808 L251.68,17 L240.64,17 L240.64,16.448 L248.728,3.488 Z M257.824,11.504 L261.808,11.504 C261.968001,11.0559978 261.900001,10.6200021 261.604,10.196 C261.307999,9.77199788 260.800004,9.56 260.08,9.56 C259.567997,9.56 259.108002,9.73599824 258.7,10.088 C258.291998,10.4400018 258.000001,10.911997 257.824,11.504 Z M257.68,12.392 C257.535999,13.5760059 257.723997,14.5399963 258.244,15.284 C258.764003,16.0280037 259.615994,16.4 260.8,16.4 C261.200002,16.4 261.655997,16.296001 262.168,16.088 C262.680003,15.879999 263.103998,15.6160016 263.44,15.296 L263.872,15.824 C263.439998,16.2880023 262.888003,16.6679985 262.216,16.964 C261.543997,17.2600015 260.872003,17.408 260.2,17.408 C258.903994,17.408 257.840004,16.9800043 257.008,16.124 C256.175996,15.2679957 255.76,14.2240062 255.76,12.992 C255.76,11.7599938 256.211995,10.7200042 257.116,9.872 C258.020005,9.02399576 259.047994,8.6 260.2,8.6 C261.288005,8.6 262.175997,8.9799962 262.864,9.74 C263.552003,10.5000038 263.752001,11.383995 263.464,12.392 L257.68,12.392 Z M270.448,10.328 C271.360005,9.17599424 272.471993,8.6 273.784,8.6 C274.824005,8.6 275.603997,8.92799672 276.124,9.584 C276.644003,10.2400033 276.904,11.1039946 276.904,12.176 L276.904,13.688 C276.904,14.888006 277.019999,15.6559983 277.252,15.992 C277.484001,16.3280017 277.999996,16.496 278.8,16.496 L278.8,17 L273.304,17 L273.304,16.496 C274.088004,16.496 274.599999,16.3240017 274.84,15.98 C275.080001,15.6359983 275.2,14.8720059 275.2,13.688 L275.2,12.296 C275.2,10.5839914 274.536007,9.728 273.208,9.728 C272.519997,9.728 271.888003,9.9679976 271.312,10.448 C270.735997,10.9280024 270.448,11.4879968 270.448,12.128 L270.448,13.688 C270.448,14.9200062 270.543999,15.6959984 270.736,16.016 C270.928001,16.3360016 271.391996,16.496 272.128,16.496 L272.128,17 L266.848,17 L266.848,16.496 C267.648004,16.496 268.163999,16.3280017 268.396,15.992 C268.628001,15.6559983 268.744,14.888006 268.744,13.688 L268.744,12.488 C268.744,11.3039941 268.628001,10.5440017 268.396,10.208 C268.163999,9.87199832 267.648004,9.704 266.848,9.704 L266.848,9.2 L270.04,8.6 C270.184001,8.90400152 270.319999,9.47999576 270.448,10.328 Z M283.672,11.504 L287.656,11.504 C287.816001,11.0559978 287.748001,10.6200021 287.452,10.196 C287.155999,9.77199788 286.648004,9.56 285.928,9.56 C285.415997,9.56 284.956002,9.73599824 284.548,10.088 C284.139998,10.4400018 283.848001,10.911997 283.672,11.504 Z M283.528,12.392 C283.383999,13.5760059 283.571997,14.5399963 284.092,15.284 C284.612003,16.0280037 285.463994,16.4 286.648,16.4 C287.048002,16.4 287.503997,16.296001 288.016,16.088 C288.528003,15.879999 288.951998,15.6160016 289.288,15.296 L289.72,15.824 C289.287998,16.2880023 288.736003,16.6679985 288.064,16.964 C287.391997,17.2600015 286.720003,17.408 286.048,17.408 C284.751994,17.408 283.688004,16.9800043 282.856,16.124 C282.023996,15.2679957 281.608,14.2240062 281.608,12.992 C281.608,11.7599938 282.059995,10.7200042 282.964,9.872 C283.868005,9.02399576 284.895994,8.6 286.048,8.6 C287.136005,8.6 288.023997,8.9799962 288.712,9.74 C289.400003,10.5000038 289.600001,11.383995 289.312,12.392 L283.528,12.392 Z M300.712,10.088 C300.712,10.8400038 300.392003,11.216 299.752,11.216 C299.527999,11.216 299.332001,11.1280009 299.164,10.952 C298.995999,10.7759991 298.912,10.5760011 298.912,10.352 C298.912,9.82399736 298.656003,9.56 298.144,9.56 C297.775998,9.56 297.376002,9.81599744 296.944,10.328 C296.511998,10.8400026 296.296,11.5199958 296.296,12.368 L296.296,13.688 C296.296,14.888006 296.411999,15.6559983 296.644,15.992 C296.876001,16.3280017 297.391996,16.496 298.192,16.496 L298.192,17 L292.696,17 L292.696,16.496 C293.496004,16.496 294.011999,16.3280017 294.244,15.992 C294.476001,15.6559983 294.592,14.888006 294.592,13.688 L294.592,12.488 C294.592,11.3039941 294.476001,10.5440017 294.244,10.208 C294.011999,9.87199832 293.496004,9.704 292.696,9.704 L292.696,9.2 L295.888,8.6 C296.032001,8.90400152 296.167999,9.47999576 296.296,10.328 C296.536001,9.8479976 296.895998,9.44000168 297.376,9.104 C297.856002,8.76799832 298.335998,8.6 298.816,8.6 C299.424003,8.6 299.891998,8.7599984 300.22,9.08 C300.548002,9.4000016 300.712,9.73599824 300.712,10.088 Z M315.976,11.888 L313.912,17.432 L313.432,17.432 L310.6,10.904 C310.375999,10.3759974 310.140001,10.008001 309.892,9.8 C309.643999,9.59199896 309.336002,9.488 308.968,9.488 L308.968,9.008 L313.312,9.008 L313.312,9.488 C312.319995,9.488 312.031998,9.95999528 312.448,10.904 L314.08,14.648 L316.024,9.008 L316.552,9.008 L319,14.648 L320.296,10.904 C320.632002,9.95999528 320.400004,9.488 319.6,9.488 L319.6,9.008 L322.96,9.008 L322.96,9.488 C322.527998,9.488 322.184001,9.59199896 321.928,9.8 C321.671999,10.008001 321.448001,10.3759974 321.256,10.904 L318.832,17.432 L318.352,17.432 L315.976,11.888 Z M331.912,2.504 L325,17.432 L324.04,17.096 L330.952,2.168 L331.912,2.504 Z M336.352,12.536 C336.608001,12.2159984 336.991997,11.960001 337.504,11.768 C338.016003,11.575999 338.527997,11.48 339.04,11.48 C340.384007,11.48 341.491996,11.9599952 342.364,12.92 C343.236004,13.8800048 343.672,15.063993 343.672,16.472 C343.672,17.8480069 343.196005,19.0279951 342.244,20.012 C341.291995,20.9960049 340.152007,21.488 338.824,21.488 C337.671994,21.488 336.732004,21.192003 336.004,20.6 C335.275996,20.007997 334.912,19.4320028 334.912,18.872 C334.912,18.4399978 335.135998,18.224 335.584,18.224 C335.792001,18.224 335.975999,18.3479988 336.136,18.596 C336.296001,18.8440012 336.439999,19.1119986 336.568,19.4 C336.696001,19.6880014 336.955998,19.9559988 337.348,20.204 C337.740002,20.4520012 338.231997,20.576 338.824,20.576 C339.768005,20.576 340.479998,20.1960038 340.96,19.436 C341.440002,18.6759962 341.68,17.6880061 341.68,16.472 C341.68,15.2559939 341.444002,14.2880036 340.972,13.568 C340.499998,12.8479964 339.784005,12.488 338.824,12.488 C337.271992,12.488 336.376001,13.2719922 336.136,14.84 L335.248,14.84 L335.992,6.608 L340.048,6.608 C341.088005,6.608 341.767998,6.48400124 342.088,6.236 C342.408002,5.98799876 342.655999,5.5040036 342.832,4.784 L343.384,4.784 L342.784,8.288 L336.712,8.288 L336.352,12.536 Z M362.08,3.104 C361.135995,3.104 360.524001,3.21999884 360.244,3.452 C359.963999,3.68400116 359.624002,4.26399536 359.224,5.192 L353.944,17.408 L353.632,17.408 L348.328,5.192 C347.927998,4.26399536 347.588001,3.68400116 347.308,3.452 C347.027999,3.21999884 346.416005,3.104 345.472,3.104 L345.472,2.6 L352.12,2.6 L352.12,3.104 C351.127995,3.104 350.492001,3.2439986 350.212,3.524 C349.931999,3.8040014 349.943998,4.27199672 350.248,4.928 L354.328,14.264 L358.36,4.928 C358.664002,4.27199672 358.676001,3.8040014 358.396,3.524 C358.115999,3.2439986 357.480005,3.104 356.488,3.104 L356.488,2.6 L362.08,2.6 L362.08,3.104 Z M251.116,36.112 C252.108005,36.112 252.867997,35.816003 253.396,35.224 C253.924003,34.631997 254.188,33.8800046 254.188,32.968 C254.188,32.0399954 253.924003,31.276003 253.396,30.676 C252.867997,30.075997 252.108005,29.776 251.116,29.776 L248.212,29.776 L248.212,33.328 C248.212,34.528006 248.343999,35.2919984 248.608,35.62 C248.872001,35.9480016 249.499995,36.112 250.492,36.112 L251.116,36.112 Z M248.212,23.488 L248.212,28.888 L250.348,28.888 C251.212004,28.888 251.867998,28.6360025 252.316,28.132 C252.764002,27.6279975 252.988,26.9840039 252.988,26.2 C252.988,25.4159961 252.764002,24.7680026 252.316,24.256 C251.867998,23.7439974 251.212004,23.488 250.348,23.488 L248.212,23.488 Z M253.228,29.176 C254.156005,29.4640014 254.899997,29.9519966 255.46,30.64 C256.020003,31.3280034 256.3,32.1039957 256.3,32.968 C256.3,34.1360058 255.844005,35.0999962 254.932,35.86 C254.019995,36.6200038 252.756008,37 251.14,37 L244.012,37 L244.012,36.496 C245.004005,36.496 245.631999,36.3280017 245.896,35.992 C246.160001,35.6559983 246.292,34.888006 246.292,33.688 L246.292,25.888 C246.292,24.687994 246.160001,23.9240016 245.896,23.596 C245.631999,23.2679984 245.004005,23.104 244.012,23.104 L244.012,22.6 L250.468,22.6 C251.940007,22.6 253.079996,22.9399966 253.888,23.62 C254.696004,24.3000034 255.1,25.1599948 255.1,26.2 C255.1,27.4480062 254.476006,28.4399963 253.228,29.176 Z M267.82,30.088 C267.82,30.8400038 267.500003,31.216 266.86,31.216 C266.635999,31.216 266.440001,31.1280009 266.272,30.952 C266.103999,30.7759991 266.02,30.5760011 266.02,30.352 C266.02,29.8239974 265.764003,29.56 265.252,29.56 C264.883998,29.56 264.484002,29.8159974 264.052,30.328 C263.619998,30.8400026 263.404,31.5199958 263.404,32.368 L263.404,33.688 C263.404,34.888006 263.519999,35.6559983 263.752,35.992 C263.984001,36.3280017 264.499996,36.496 265.3,36.496 L265.3,37 L259.804,37 L259.804,36.496 C260.604004,36.496 261.119999,36.3280017 261.352,35.992 C261.584001,35.6559983 261.7,34.888006 261.7,33.688 L261.7,32.488 C261.7,31.3039941 261.584001,30.5440017 261.352,30.208 C261.119999,29.8719983 260.604004,29.704 259.804,29.704 L259.804,29.2 L262.996,28.6 C263.140001,28.9040015 263.275999,29.4799958 263.404,30.328 C263.644001,29.8479976 264.003998,29.4400017 264.484,29.104 C264.964002,28.7679983 265.443998,28.6 265.924,28.6 C266.532003,28.6 266.999998,28.7599984 267.328,29.08 C267.656002,29.4000016 267.82,29.7359982 267.82,30.088 Z M272.332,31.504 L276.316,31.504 C276.476001,31.0559978 276.408001,30.6200021 276.112,30.196 C275.815999,29.7719979 275.308004,29.56 274.588,29.56 C274.075997,29.56 273.616002,29.7359982 273.208,30.088 C272.799998,30.4400018 272.508001,30.911997 272.332,31.504 Z M272.188,32.392 C272.043999,33.5760059 272.231997,34.5399963 272.752,35.284 C273.272003,36.0280037 274.123994,36.4 275.308,36.4 C275.708002,36.4 276.163997,36.296001 276.676,36.088 C277.188003,35.879999 277.611998,35.6160016 277.948,35.296 L278.38,35.824 C277.947998,36.2880023 277.396003,36.6679985 276.724,36.964 C276.051997,37.2600015 275.380003,37.408 274.708,37.408 C273.411994,37.408 272.348004,36.9800043 271.516,36.124 C270.683996,35.2679957 270.268,34.2240062 270.268,32.992 C270.268,31.7599938 270.719995,30.7200042 271.624,29.872 C272.528005,29.0239958 273.555994,28.6 274.708,28.6 C275.796005,28.6 276.683997,28.9799962 277.372,29.74 C278.060003,30.5000038 278.260001,31.383995 277.972,32.392 L272.188,32.392 Z M289.732,36.52 C289.267998,37.0160025 288.740003,37.264 288.148,37.264 C287.187995,37.264 286.644001,36.8000046 286.516,35.872 C285.443995,36.8320048 284.444005,37.312 283.516,37.312 C282.907997,37.312 282.396002,37.1320018 281.98,36.772 C281.563998,36.4119982 281.356,35.9200031 281.356,35.296 C281.356,33.6159916 283.059983,32.480003 286.468,31.888 C286.468,30.9439953 286.364001,30.2880018 286.156,29.92 C285.947999,29.5519982 285.516003,29.368 284.86,29.368 C284.539998,29.368 284.232001,29.471999 283.936,29.68 C283.639999,29.888001 283.492,30.1679982 283.492,30.52 C283.492,30.7600012 283.412001,30.9599992 283.252,31.12 C283.091999,31.2800008 282.900001,31.36 282.676,31.36 C282.435999,31.36 282.236001,31.2800008 282.076,31.12 C281.915999,30.9599992 281.836,30.7600012 281.836,30.52 C281.836,29.9599972 282.143997,29.5000018 282.76,29.14 C283.376003,28.7799982 284.083996,28.6 284.884,28.6 C286.052006,28.6 286.891997,28.8559974 287.404,29.368 C287.916003,29.8800026 288.172,30.7119942 288.172,31.864 L288.172,35.488 C288.172,36.1120031 288.355998,36.424 288.724,36.424 C288.932001,36.424 289.155999,36.3040012 289.396,36.064 L289.732,36.52 Z M286.468,35.08 L286.468,32.632 C284.259989,33.1440026 283.156,33.9359946 283.156,35.008 C283.156,35.3760018 283.263999,35.6719989 283.48,35.896 C283.696001,36.1200011 283.963998,36.232 284.284,36.232 C284.876003,36.232 285.603996,35.8480038 286.468,35.08 Z M296.908,32.032 L300.772,35.92 C301.156002,36.3040019 301.627997,36.496 302.188,36.496 L302.188,37 L299.524,37 L295.588,33.088 L295.372,33.256 L295.372,33.688 C295.372,34.888006 295.487999,35.6559983 295.72,35.992 C295.952001,36.3280017 296.467996,36.496 297.268,36.496 L297.268,37 L291.772,37 L291.772,36.496 C292.572004,36.496 293.087999,36.3280017 293.32,35.992 C293.552001,35.6559983 293.668,34.888006 293.668,33.688 L293.668,26.104 C293.668,24.903994 293.552001,24.1360017 293.32,23.8 C293.087999,23.4639983 292.572004,23.296 291.772,23.296 L291.772,22.792 L295.372,22.192 L295.372,32.392 L297.388,30.76 C297.788002,30.4399984 297.916001,30.1480013 297.772,29.884 C297.627999,29.6199987 297.260003,29.488 296.668,29.488 L296.668,29.008 L301.468,29.008 L301.468,29.488 C300.411995,29.5680004 299.572003,29.8559975 298.948,30.352 L296.908,32.032 Z M311.332,34.552 L311.332,31.456 C311.107999,30.8799971 310.780002,30.4200017 310.348,30.076 C309.915998,29.7319983 309.436003,29.56 308.908,29.56 C308.011996,29.56 307.332002,29.8799968 306.868,30.52 C306.403998,31.1600032 306.172,31.983995 306.172,32.992 C306.172,34.0160051 306.403998,34.8479968 306.868,35.488 C307.332002,36.1280032 308.011996,36.448 308.908,36.448 C309.436003,36.448 309.915998,36.2760017 310.348,35.932 C310.780002,35.5879983 311.107999,35.1280029 311.332,34.552 Z M311.332,30.016 L311.332,26.104 C311.332,24.903994 311.216001,24.1360017 310.984,23.8 C310.751999,23.4639983 310.236004,23.296 309.436,23.296 L309.436,22.792 L313.036,22.192 L313.036,33.496 C313.036,34.696006 313.151999,35.4639983 313.384,35.8 C313.616001,36.1360017 314.131996,36.304 314.932,36.304 L314.932,36.808 L311.74,37.408 C311.627999,37.1679988 311.500001,36.6800037 311.356,35.944 C310.571996,36.9200049 309.588006,37.408 308.404,37.408 C307.267994,37.408 306.288004,36.9760043 305.464,36.112 C304.639996,35.2479957 304.228,34.2080061 304.228,32.992 C304.228,31.7759939 304.639996,30.7400043 305.464,29.884 C306.288004,29.0279957 307.267994,28.6 308.404,28.6 C309.588006,28.6 310.563996,29.0719953 311.332,30.016 Z M325.996,29.896 C326.956005,30.7440042 327.436,31.7759939 327.436,32.992 C327.436,34.2080061 326.960005,35.2479957 326.008,36.112 C325.055995,36.9760043 323.916007,37.408 322.588,37.408 C321.259993,37.408 320.120005,36.9760043 319.168,36.112 C318.215995,35.2479957 317.74,34.2080061 317.74,32.992 C317.74,31.7759939 318.215995,30.7400043 319.168,29.884 C320.120005,29.0279957 321.259993,28.6 322.588,28.6 C323.916007,28.6 325.051995,29.0319957 325.996,29.896 Z M324.748,35.512 C325.244002,34.8559967 325.492,34.0160051 325.492,32.992 C325.492,31.9679949 325.244002,31.1320032 324.748,30.484 C324.251998,29.8359968 323.532005,29.512 322.588,29.512 C321.643995,29.512 320.924002,29.8399967 320.428,30.496 C319.931998,31.1520033 319.684,31.983995 319.684,32.992 C319.684,34.000005 319.931998,34.8319967 320.428,35.488 C320.924002,36.1440033 321.643995,36.472 322.588,36.472 C323.532005,36.472 324.251998,36.1520032 324.748,35.512 Z M336.556,31.888 L334.492,37.432 L334.012,37.432 L331.18,30.904 C330.955999,30.3759974 330.720001,30.008001 330.472,29.8 C330.223999,29.591999 329.916002,29.488 329.548,29.488 L329.548,29.008 L333.892,29.008 L333.892,29.488 C332.899995,29.488 332.611998,29.9599953 333.028,30.904 L334.66,34.648 L336.604,29.008 L337.132,29.008 L339.58,34.648 L340.876,30.904 C341.212002,29.9599953 340.980004,29.488 340.18,29.488 L340.18,29.008 L343.54,29.008 L343.54,29.488 C343.107998,29.488 342.764001,29.591999 342.508,29.8 C342.251999,30.008001 342.028001,30.3759974 341.836,30.904 L339.412,37.432 L338.932,37.432 L336.556,31.888 Z M348.892,30.328 C349.804005,29.1759942 350.915993,28.6 352.228,28.6 C353.268005,28.6 354.047997,28.9279967 354.568,29.584 C355.088003,30.2400033 355.348,31.1039946 355.348,32.176 L355.348,33.688 C355.348,34.888006 355.463999,35.6559983 355.696,35.992 C355.928001,36.3280017 356.443996,36.496 357.244,36.496 L357.244,37 L351.748,37 L351.748,36.496 C352.532004,36.496 353.043999,36.3240017 353.284,35.98 C353.524001,35.6359983 353.644,34.8720059 353.644,33.688 L353.644,32.296 C353.644,30.5839914 352.980007,29.728 351.652,29.728 C350.963997,29.728 350.332003,29.9679976 349.756,30.448 C349.179997,30.9280024 348.892,31.4879968 348.892,32.128 L348.892,33.688 C348.892,34.9200062 348.987999,35.6959984 349.18,36.016 C349.372001,36.3360016 349.835996,36.496 350.572,36.496 L350.572,37 L345.292,37 L345.292,36.496 C346.092004,36.496 346.607999,36.3280017 346.84,35.992 C347.072001,35.6559983 347.188,34.888006 347.188,33.688 L347.188,32.488 C347.188,31.3039941 347.072001,30.5440017 346.84,30.208 C346.607999,29.8719983 346.092004,29.704 345.292,29.704 L345.292,29.2 L348.484,28.6 C348.628001,28.9040015 348.763999,29.4799958 348.892,30.328 Z" id="Zener-w/5V-Breakdown-Copy" fill="#1A80AA"></path>
                <path d="M6.024,64.168 L9.792,64.168 L9.792,65.224 L6.024,65.224 L6.024,68.992 L4.968,68.992 L4.968,65.224 L1.2,65.224 L1.2,64.168 L4.968,64.168 L4.968,60.4 L6.024,60.4 L6.024,64.168 Z M23.304,65.968 C23.304,67.3920071 23.108002,68.7359937 22.716,70 C22.323998,71.2640063 21.6960043,72.3279957 20.832,73.192 C19.9679957,74.0560043 18.9520058,74.488 17.784,74.488 C16.8399953,74.488 16.0120036,74.288002 15.3,73.888 C14.5879964,73.487998 14.232,73.0800021 14.232,72.664 C14.232,72.471999 14.3039993,72.3160006 14.448,72.196 C14.5920007,72.0759994 14.7439992,72.016 14.904,72.016 C15.0640008,72.016 15.2319991,72.1039991 15.408,72.28 C15.5840009,72.4560009 15.7559992,72.647999 15.924,72.856 C16.0920008,73.064001 16.3399984,73.2559991 16.668,73.432 C16.9960016,73.6080009 17.359998,73.696 17.76,73.696 C19.9200108,73.696 21.095999,71.392023 21.288,66.784 C20.5839965,67.7280047 19.632006,68.2 18.432,68.2 C17.1039934,68.2 15.9640048,67.7600044 15.012,66.88 C14.0599952,65.9999956 13.584,64.9360062 13.584,63.688 C13.584,62.4559938 14.0599952,61.4000044 15.012,60.52 C15.9640048,59.6399956 17.1039934,59.2 18.432,59.2 C18.832002,59.2 19.235998,59.2519995 19.644,59.356 C20.052002,59.4600005 20.4799978,59.6679984 20.928,59.98 C21.3760022,60.2920016 21.7719983,60.6879976 22.116,61.168 C22.4600017,61.6480024 22.7439989,62.3039958 22.968,63.136 C23.1920011,63.9680042 23.304,64.9119947 23.304,65.968 Z M21.312,65.464 C21.2799998,64.3599945 21.1560011,63.4280038 20.94,62.668 C20.7239989,61.9079962 20.4560016,61.3640016 20.136,61.036 C19.8159984,60.7079984 19.5200014,60.4800006 19.248,60.352 C18.9759986,60.2239994 18.7040014,60.16 18.432,60.16 C17.4559951,60.16 16.7360023,60.5039966 16.272,61.192 C15.8079977,61.8800034 15.576,62.719995 15.576,63.712 C15.576,64.704005 15.8079977,65.5399966 16.272,66.22 C16.7360023,66.9000034 17.4559951,67.24 18.432,67.24 C19.1200034,67.24 19.7359973,67.0680017 20.28,66.724 C20.8240027,66.3799983 21.1679993,65.9600025 21.312,65.464 Z M41.688,56.104 C40.7439953,56.104 40.1320014,56.2199988 39.852,56.452 C39.5719986,56.6840012 39.232002,57.2639954 38.832,58.192 L33.552,70.408 L33.24,70.408 L27.936,58.192 C27.535998,57.2639954 27.1960014,56.6840012 26.916,56.452 C26.6359986,56.2199988 26.0240047,56.104 25.08,56.104 L25.08,55.6 L31.728,55.6 L31.728,56.104 C30.735995,56.104 30.1000014,56.2439986 29.82,56.524 C29.5399986,56.8040014 29.5519985,57.2719967 29.856,57.928 L33.936,67.264 L37.968,57.928 C38.2720015,57.2719967 38.2840014,56.8040014 38.004,56.524 C37.7239986,56.2439986 37.088005,56.104 36.096,56.104 L36.096,55.6 L41.688,55.6 L41.688,56.104 Z" id="+9V-Copy" fill="#524740"></path>
            </g>
            <g id="Wiring" transform="translate(99.000000, 59.000000)">
                <circle id="Connection" fill="#3D3530" cx="135" cy="5" r="5"></circle>
                <path d="M110,5 L160,5" id="Path-5" stroke="#3D3530" stroke-width="2"></path>
                <path d="M0,5 L40,5" id="Path-5-Copy" stroke="#3D3530" stroke-width="2"></path>
                <path d="M230,5 L270,5" id="Path-5-Copy-2" stroke="#3D3530" stroke-width="2"></path>
                <path d="M135,5 L135,85" id="Path-10" stroke="#3D3530" stroke-width="2"></path>
            </g>
            <g id="Zener_Diode" transform="translate(294.000000, 64.000000) rotate(-180.000000) translate(-294.000000, -64.000000) translate(259.000000, 48.000000)">
                <polygon id="Path-2" fill="#3D3530" points="24.5 3 44 16 24.5 29"></polygon>
                <path d="M44,16 L70,16" id="Path-2-Copy" stroke="#3D3530" stroke-width="3"></path>
                <path d="M0,16 L24.5,16" id="Path-3" stroke="#3D3530" stroke-width="3"></path>
                <polyline id="Path" stroke="#3D3530" stroke-width="3" stroke-linejoin="round" points="40 0 44 4 44 28 48 32"></polyline>
            </g>
            <g id="Ground" transform="translate(406.500000, 64.000000) rotate(-180.000000) translate(-406.500000, -64.000000) translate(369.000000, 31.000000)" stroke="#3D3530" stroke-width="3">
                <path d="M25,33 L75,33" id="Path-2-Copy"></path>
                <path d="M13,13 L13,53" id="Path-4"></path>
                <path d="M1,27 L1,39" id="Path-4-Copy"></path>
                <path d="M25,0 L25,66" id="Path-3-Copy"></path>
            </g>
        </g>
        <path d="M231.536,221.808 L231.536,223.392 L217.856,243.768 L231.536,243.768 L231.536,246 L214.832,246 L214.832,244.416 L228.512,224.04 L214.832,224.04 L214.832,221.808 L231.536,221.808 Z M245.712,243.912 C247.320008,243.912 248.759994,243.456005 250.032,242.544 C251.304006,241.631995 252.167998,240.564006 252.624,239.34 L254.64,240.06 C254.087997,241.572008 253.014008,242.963994 251.418,244.236 C249.821992,245.508006 247.920011,246.132 245.712,246.108 C243.69599,246.108 241.854008,245.484006 240.186,244.236 C238.517992,242.987994 237.384003,241.39201 236.784,239.448 C236.543999,238.655996 236.424,237.792005 236.424,236.856 C236.424,234.263987 237.323991,232.068009 239.124,230.268 C240.924009,228.467991 243.119987,227.556 245.712,227.532 C248.064012,227.556 250.115991,228.347992 251.868,229.908 C253.620009,231.468008 254.627999,233.399988 254.892,235.704 C254.916,235.824001 254.928,235.979999 254.928,236.172 L239.196,239.016 C239.604002,240.456007 240.419994,241.637995 241.644,242.562 C242.868006,243.486005 244.223993,243.936 245.712,243.912 Z M245.496,229.728 C243.695991,229.752 242.154006,230.399994 240.87,231.672 C239.585994,232.944006 238.896,234.467991 238.8,236.244 C238.8,236.316 238.806,236.441999 238.818,236.622 C238.83,236.802001 238.836,236.951999 238.836,237.072 L252.228,234.66 C251.771998,233.195993 250.920006,232.002005 249.672,231.078 C248.423994,230.153995 247.032008,229.704 245.496,229.728 Z M267.448,227.712 C269.53601,227.712 271.287993,228.449993 272.704,229.926 C274.120007,231.402007 274.828,233.219989 274.828,235.38 L274.828,246 L272.416,246 L272.416,235.452 C272.416,233.915992 271.894005,232.608005 270.85,231.528 C269.805995,230.447995 268.540007,229.908 267.052,229.908 C265.563993,229.908 264.298005,230.447995 263.254,231.528 C262.209995,232.608005 261.688,233.915992 261.688,235.452 L261.688,246 L259.312,246 L259.312,228 L261.688,228 L261.688,230.664 C263.152007,228.69599 265.071988,227.712 267.448,227.712 Z M288.5,243.912 C290.108008,243.912 291.547994,243.456005 292.82,242.544 C294.092006,241.631995 294.955998,240.564006 295.412,239.34 L297.428,240.06 C296.875997,241.572008 295.802008,242.963994 294.206,244.236 C292.609992,245.508006 290.708011,246.132 288.5,246.108 C286.48399,246.108 284.642008,245.484006 282.974,244.236 C281.305992,242.987994 280.172003,241.39201 279.572,239.448 C279.331999,238.655996 279.212,237.792005 279.212,236.856 C279.212,234.263987 280.111991,232.068009 281.912,230.268 C283.712009,228.467991 285.907987,227.556 288.5,227.532 C290.852012,227.556 292.903991,228.347992 294.656,229.908 C296.408009,231.468008 297.415999,233.399988 297.68,235.704 C297.704,235.824001 297.716,235.979999 297.716,236.172 L281.984,239.016 C282.392002,240.456007 283.207994,241.637995 284.432,242.562 C285.656006,243.486005 287.011993,243.936 288.5,243.912 Z M288.284,229.728 C286.483991,229.752 284.942006,230.399994 283.658,231.672 C282.373994,232.944006 281.684,234.467991 281.588,236.244 C281.588,236.316 281.594,236.441999 281.606,236.622 C281.618,236.802001 281.624,236.951999 281.624,237.072 L295.016,234.66 C294.559998,233.195993 293.708006,232.002005 292.46,231.078 C291.211994,230.153995 289.820008,229.704 288.284,229.728 Z M310.236,227.712 C311.508006,227.712 312.671995,228.023997 313.728,228.648 L312.9,231.024 C311.891995,230.279996 310.872005,229.908 309.84,229.908 C308.327992,229.908 307.056005,230.441995 306.024,231.51 C304.991995,232.578005 304.476,233.891992 304.476,235.452 L304.476,246 L302.1,246 L302.1,228 L304.476,228 L304.476,230.664 C305.940007,228.69599 307.859988,227.712 310.236,227.712 Z M336.68,246.288 C334.903991,246.288 333.260008,245.784005 331.748,244.776 C330.235992,243.767995 329.228003,242.592007 328.724,241.248 L330.812,240.24 C331.076001,241.080004 331.771994,241.919996 332.9,242.76 C334.028006,243.600004 335.287993,244.02 336.68,244.02 C338.288008,244.02 339.685994,243.510005 340.874,242.49 C342.062006,241.469995 342.656,240.108009 342.656,238.404 C342.656,236.651991 342.080006,235.224006 340.928,234.12 C339.775994,233.015994 338.432008,232.464 336.896,232.464 C335.599994,232.464 334.382006,232.709998 333.242,233.202 C332.101994,233.694002 331.364002,234.155998 331.028,234.588 L329.012,233.76 L329.012,221.808 L344.456,221.808 L344.456,224.184 L331.388,224.184 L331.388,231.6 C332.780007,230.663995 334.615989,230.196 336.896,230.196 C339.128011,230.196 341.041992,230.945992 342.638,232.446 C344.234008,233.946008 345.032,235.919988 345.032,238.368 C345.032,240.816012 344.240008,242.747993 342.656,244.164 C341.071992,245.580007 339.080012,246.288 336.68,246.288 Z M369.108,221.808 L371.52,221.808 L361.98,246 L359.568,246 L349.992,221.808 L352.44,221.808 L360.792,242.94 L369.108,221.808 Z M405.092,221.808 L407.504,221.808 L397.964,246 L395.552,246 L385.976,221.808 L388.424,221.808 L396.776,242.94 L405.092,221.808 Z M423.552,243.552 C421.751991,245.376009 419.568013,246.288 417,246.288 C414.431987,246.288 412.242009,245.382009 410.43,243.57 C408.617991,241.757991 407.712,239.568013 407.712,237 C407.712,234.431987 408.617991,232.242009 410.43,230.43 C412.242009,228.617991 414.431987,227.712 417,227.712 C419.568013,227.712 421.757991,228.617991 423.57,230.43 C425.382009,232.242009 426.288,234.431987 426.288,237 C426.288,239.544013 425.376009,241.727991 423.552,243.552 Z M417.036,244.02 C418.98001,244.02 420.617993,243.342007 421.95,241.986 C423.282007,240.629993 423.948,238.96801 423.948,237 C423.948,235.03199 423.282007,233.364007 421.95,231.996 C420.617993,230.627993 418.98001,229.944 417.036,229.944 C415.11599,229.944 413.484007,230.627993 412.14,231.996 C410.795993,233.364007 410.124,235.03199 410.124,237 C410.124,238.96801 410.795993,240.629993 412.14,241.986 C413.484007,243.342007 415.11599,244.02 417.036,244.02 Z M431.212,246 L431.212,219.216 L433.588,219.216 L433.588,246 L431.212,246 Z M449.816,241.968 L451.004,243.804 C450.859999,243.996001 450.668001,244.223999 450.428,244.488 C450.187999,244.752001 449.648004,245.117998 448.808,245.586 C447.967996,246.054002 447.104004,246.288 446.216,246.288 C444.703992,246.288 443.438005,245.838005 442.418,244.938 C441.397995,244.037995 440.888,242.736009 440.888,241.032 L440.888,230.16 L438.008,230.16 L438.008,227.964 L440.888,227.964 L440.888,222.276 L443.264,221.988 L443.264,227.964 L448.7,227.964 L448.7,230.16 L443.264,230.16 L443.264,240.492 C443.264,241.596006 443.605997,242.471997 444.29,243.12 C444.974003,243.768003 445.759996,244.092 446.648,244.092 C447.200003,244.092 447.739997,243.924002 448.268,243.588 C448.796003,243.251998 449.185999,242.922002 449.438,242.598 C449.690001,242.273998 449.816,242.064 449.816,241.968 Z M469.5,228 L471.876,228 L471.876,246 L469.5,246 L469.5,243.084 C467.651991,245.220011 465.312014,246.288 462.48,246.288 C459.911987,246.288 457.722009,245.382009 455.91,243.57 C454.097991,241.757991 453.192,239.568013 453.192,237 C453.192,234.431987 454.097991,232.242009 455.91,230.43 C457.722009,228.617991 459.911987,227.712 462.48,227.712 C465.336014,227.712 467.675991,228.779989 469.5,230.916 L469.5,228 Z M462.516,244.02 C464.46001,244.02 466.097993,243.342007 467.43,241.986 C468.762007,240.629993 469.428,238.96801 469.428,237 C469.428,235.03199 468.762007,233.370007 467.43,232.014 C466.097993,230.657993 464.46001,229.98 462.516,229.98 C460.59599,229.98 458.958007,230.657993 457.602,232.014 C456.245993,233.370007 455.568,235.03199 455.568,237 C455.568,238.96801 456.245993,240.629993 457.602,241.986 C458.958007,243.342007 460.59599,244.02 462.516,244.02 Z M493.072,228.036 L495.484,228.036 L495.484,244.452 C495.46,247.068013 494.518009,249.257991 492.658,251.022 C490.797991,252.786009 488.644012,253.668 486.196,253.668 C483.963989,253.668 482.062008,253.074006 480.49,251.886 C478.917992,250.697994 477.856003,249.360007 477.304,247.872 L479.248,246.9 C479.704002,248.124006 480.567994,249.191995 481.84,250.104 C483.112006,251.016005 484.563992,251.472 486.196,251.472 C488.11601,251.472 489.741993,250.770007 491.074,249.366 C492.406007,247.961993 493.084,246.324009 493.108,244.452 L493.072,244.452 L493.072,243.12 C491.247991,245.256011 488.908014,246.324 486.052,246.324 C483.483987,246.324 481.294009,245.418009 479.482,243.606 C477.669991,241.793991 476.764,239.604013 476.764,237.036 C476.764,234.467987 477.669991,232.278009 479.482,230.466 C481.294009,228.653991 483.483987,227.748 486.052,227.748 C488.884014,227.748 491.223991,228.815989 493.072,230.952 L493.072,228.036 Z M486.088,244.092 C488.03201,244.092 489.669993,243.414007 491.002,242.058 C492.334007,240.701993 493,239.04001 493,237.072 C493,235.10399 492.334007,233.442007 491.002,232.086 C489.669993,230.729993 488.03201,230.052 486.088,230.052 C484.16799,230.052 482.536007,230.729993 481.192,232.086 C479.847993,233.442007 479.176,235.10399 479.176,237.072 C479.176,239.04001 479.847993,240.701993 481.192,242.058 C482.536007,243.414007 484.16799,244.092 486.088,244.092 Z M509.696,243.912 C511.304008,243.912 512.743994,243.456005 514.016,242.544 C515.288006,241.631995 516.151998,240.564006 516.608,239.34 L518.624,240.06 C518.071997,241.572008 516.998008,242.963994 515.402,244.236 C513.805992,245.508006 511.904011,246.132 509.696,246.108 C507.67999,246.108 505.838008,245.484006 504.17,244.236 C502.501992,242.987994 501.368003,241.39201 500.768,239.448 C500.527999,238.655996 500.408,237.792005 500.408,236.856 C500.408,234.263987 501.307991,232.068009 503.108,230.268 C504.908009,228.467991 507.103987,227.556 509.696,227.532 C512.048012,227.556 514.099991,228.347992 515.852,229.908 C517.604009,231.468008 518.611999,233.399988 518.876,235.704 C518.9,235.824001 518.912,235.979999 518.912,236.172 L503.18,239.016 C503.588002,240.456007 504.403994,241.637995 505.628,242.562 C506.852006,243.486005 508.207993,243.936 509.696,243.912 Z M509.48,229.728 C507.679991,229.752 506.138006,230.399994 504.854,231.672 C503.569994,232.944006 502.88,234.467991 502.784,236.244 C502.784,236.316 502.79,236.441999 502.802,236.622 C502.814,236.802001 502.82,236.951999 502.82,237.072 L516.212,234.66 C515.755998,233.195993 514.904006,232.002005 513.656,231.078 C512.407994,230.153995 511.016008,229.704 509.48,229.728 Z M535.024,246 L535.024,221.808 L543.232,221.808 C545.944014,221.808 548.103992,222.521993 549.712,223.95 C551.320008,225.378007 552.124,227.171989 552.124,229.332 C552.124,230.940008 551.650005,232.367994 550.702,233.616 C549.753995,234.864006 548.428009,235.751997 546.724,236.28 L552.124,246 L549.64,246 L544.492,236.784 L543.016,236.856 L537.4,236.856 L537.4,246 L535.024,246 Z M537.4,234.588 L543.232,234.588 C545.17601,234.588 546.735994,234.090005 547.912,233.094 C549.088006,232.097995 549.676,230.844008 549.676,229.332 C549.676,227.843993 549.088006,226.596005 547.912,225.588 C546.735994,224.579995 545.17601,224.076 543.232,224.076 L537.4,224.076 L537.4,234.588 Z M564.788,243.912 C566.396008,243.912 567.835994,243.456005 569.108,242.544 C570.380006,241.631995 571.243998,240.564006 571.7,239.34 L573.716,240.06 C573.163997,241.572008 572.090008,242.963994 570.494,244.236 C568.897992,245.508006 566.996011,246.132 564.788,246.108 C562.77199,246.108 560.930008,245.484006 559.262,244.236 C557.593992,242.987994 556.460003,241.39201 555.86,239.448 C555.619999,238.655996 555.5,237.792005 555.5,236.856 C555.5,234.263987 556.399991,232.068009 558.2,230.268 C560.000009,228.467991 562.195987,227.556 564.788,227.532 C567.140012,227.556 569.191991,228.347992 570.944,229.908 C572.696009,231.468008 573.703999,233.399988 573.968,235.704 C573.992,235.824001 574.004,235.979999 574.004,236.172 L558.272,239.016 C558.680002,240.456007 559.495994,241.637995 560.72,242.562 C561.944006,243.486005 563.299993,243.936 564.788,243.912 Z M564.572,229.728 C562.771991,229.752 561.230006,230.399994 559.946,231.672 C558.661994,232.944006 557.972,234.467991 557.876,236.244 C557.876,236.316 557.882,236.441999 557.894,236.622 C557.906,236.802001 557.912,236.951999 557.912,237.072 L571.304,234.66 C570.847998,233.195993 569.996006,232.002005 568.748,231.078 C567.499994,230.153995 566.108008,229.704 564.572,229.728 Z M585.012,227.928 L585.012,229.908 L581.484,229.908 L581.484,246 L579.144,246 L579.144,229.908 L577.02,229.908 L577.02,227.928 L579.144,227.928 L579.144,222.708 C579.144,220.211988 580.12799,218.964 582.096,218.964 C582.528002,218.964 582.965998,219 583.41,219.072 C583.854002,219.144 584.183999,219.216 584.4,219.288 L584.724,219.396 L584.22,221.232 C583.739998,221.111999 583.260002,221.052 582.78,221.052 C582.251997,221.052 581.904001,221.225998 581.736,221.574 C581.567999,221.922002 581.484,222.587995 581.484,223.572 L581.484,227.928 L585.012,227.928 Z M597.136,243.912 C598.744008,243.912 600.183994,243.456005 601.456,242.544 C602.728006,241.631995 603.591998,240.564006 604.048,239.34 L606.064,240.06 C605.511997,241.572008 604.438008,242.963994 602.842,244.236 C601.245992,245.508006 599.344011,246.132 597.136,246.108 C595.11999,246.108 593.278008,245.484006 591.61,244.236 C589.941992,242.987994 588.808003,241.39201 588.208,239.448 C587.967999,238.655996 587.848,237.792005 587.848,236.856 C587.848,234.263987 588.747991,232.068009 590.548,230.268 C592.348009,228.467991 594.543987,227.556 597.136,227.532 C599.488012,227.556 601.539991,228.347992 603.292,229.908 C605.044009,231.468008 606.051999,233.399988 606.316,235.704 C606.34,235.824001 606.352,235.979999 606.352,236.172 L590.62,239.016 C591.028002,240.456007 591.843994,241.637995 593.068,242.562 C594.292006,243.486005 595.647993,243.936 597.136,243.912 Z M596.92,229.728 C595.119991,229.752 593.578006,230.399994 592.294,231.672 C591.009994,232.944006 590.32,234.467991 590.224,236.244 C590.224,236.316 590.23,236.441999 590.242,236.622 C590.254,236.802001 590.26,236.951999 590.26,237.072 L603.652,234.66 C603.195998,233.195993 602.344006,232.002005 601.096,231.078 C599.847994,230.153995 598.456008,229.704 596.92,229.728 Z M618.872,227.712 C620.144006,227.712 621.307995,228.023997 622.364,228.648 L621.536,231.024 C620.527995,230.279996 619.508005,229.908 618.476,229.908 C616.963992,229.908 615.692005,230.441995 614.66,231.51 C613.627995,232.578005 613.112,233.891992 613.112,235.452 L613.112,246 L610.736,246 L610.736,228 L613.112,228 L613.112,230.664 C614.576007,228.69599 616.495988,227.712 618.872,227.712 Z M633.336,243.912 C634.944008,243.912 636.383994,243.456005 637.656,242.544 C638.928006,241.631995 639.791998,240.564006 640.248,239.34 L642.264,240.06 C641.711997,241.572008 640.638008,242.963994 639.042,244.236 C637.445992,245.508006 635.544011,246.132 633.336,246.108 C631.31999,246.108 629.478008,245.484006 627.81,244.236 C626.141992,242.987994 625.008003,241.39201 624.408,239.448 C624.167999,238.655996 624.048,237.792005 624.048,236.856 C624.048,234.263987 624.947991,232.068009 626.748,230.268 C628.548009,228.467991 630.743987,227.556 633.336,227.532 C635.688012,227.556 637.739991,228.347992 639.492,229.908 C641.244009,231.468008 642.251999,233.399988 642.516,235.704 C642.54,235.824001 642.552,235.979999 642.552,236.172 L626.82,239.016 C627.228002,240.456007 628.043994,241.637995 629.268,242.562 C630.492006,243.486005 631.847993,243.936 633.336,243.912 Z M633.12,229.728 C631.319991,229.752 629.778006,230.399994 628.494,231.672 C627.209994,232.944006 626.52,234.467991 626.424,236.244 C626.424,236.316 626.43,236.441999 626.442,236.622 C626.454,236.802001 626.46,236.951999 626.46,237.072 L639.852,234.66 C639.395998,233.195993 638.544006,232.002005 637.296,231.078 C636.047994,230.153995 634.656008,229.704 633.12,229.728 Z M655.072,227.712 C657.16001,227.712 658.911993,228.449993 660.328,229.926 C661.744007,231.402007 662.452,233.219989 662.452,235.38 L662.452,246 L660.04,246 L660.04,235.452 C660.04,233.915992 659.518005,232.608005 658.474,231.528 C657.429995,230.447995 656.164007,229.908 654.676,229.908 C653.187993,229.908 651.922005,230.447995 650.878,231.528 C649.833995,232.608005 649.312,233.915992 649.312,235.452 L649.312,246 L646.936,246 L646.936,228 L649.312,228 L649.312,230.664 C650.776007,228.69599 652.695988,227.712 655.072,227.712 Z M676.124,246.288 C673.555987,246.288 671.366009,245.382009 669.554,243.57 C667.741991,241.757991 666.836,239.568013 666.836,237 C666.836,234.431987 667.741991,232.242009 669.554,230.43 C671.366009,228.617991 673.555987,227.712 676.124,227.712 C677.756008,227.712 679.273993,228.113996 680.678,228.918 C682.082007,229.722004 683.191996,230.795993 684.008,232.14 L681.848,233.184 C681.199997,232.199995 680.372005,231.420003 679.364,230.844 C678.355995,230.267997 677.276006,229.98 676.124,229.98 C674.17999,229.98 672.542007,230.657993 671.21,232.014 C669.877993,233.370007 669.212,235.03199 669.212,237 C669.212,238.96801 669.877993,240.629993 671.21,241.986 C672.542007,243.342007 674.17999,244.02 676.124,244.02 C677.276006,244.02 678.355995,243.732003 679.364,243.156 C680.372005,242.579997 681.199997,241.800005 681.848,240.816 L684.008,241.86 C683.191996,243.204007 682.082007,244.277996 680.678,245.082 C679.273993,245.886004 677.756008,246.288 676.124,246.288 Z M696.852,243.912 C698.460008,243.912 699.899994,243.456005 701.172,242.544 C702.444006,241.631995 703.307998,240.564006 703.764,239.34 L705.78,240.06 C705.227997,241.572008 704.154008,242.963994 702.558,244.236 C700.961992,245.508006 699.060011,246.132 696.852,246.108 C694.83599,246.108 692.994008,245.484006 691.326,244.236 C689.657992,242.987994 688.524003,241.39201 687.924,239.448 C687.683999,238.655996 687.564,237.792005 687.564,236.856 C687.564,234.263987 688.463991,232.068009 690.264,230.268 C692.064009,228.467991 694.259987,227.556 696.852,227.532 C699.204012,227.556 701.255991,228.347992 703.008,229.908 C704.760009,231.468008 705.767999,233.399988 706.032,235.704 C706.056,235.824001 706.068,235.979999 706.068,236.172 L690.336,239.016 C690.744002,240.456007 691.559994,241.637995 692.784,242.562 C694.008006,243.486005 695.363993,243.936 696.852,243.912 Z M696.636,229.728 C694.835991,229.752 693.294006,230.399994 692.01,231.672 C690.725994,232.944006 690.036,234.467991 689.94,236.244 C689.94,236.316 689.946,236.441999 689.958,236.622 C689.97,236.802001 689.976,236.951999 689.976,237.072 L703.368,234.66 C702.911998,233.195993 702.060006,232.002005 700.812,231.078 C699.563994,230.153995 698.172008,229.704 696.636,229.728 Z" id="Zener-5V-Voltage-Ref-Copy" fill="#23ABE3"></path>
    </g>
</svg>