<?xml version="1.0" encoding="UTF-8"?>
<svg width="900px" height="280px" viewBox="0 0 900 280" version="1.1" xmlns="http://www.w3.org/2000/svg" xmlns:xlink="http://www.w3.org/1999/xlink">
    <!-- Generator: Sketch 52.5 (67469) - http://www.bohemiancoding.com/sketch -->
    <title>Zener_Voltage_Reference_Circuit</title>
    <desc>Created with Sketch.</desc>
    <g id="Zener_Voltage_Reference_Circuit" stroke="none" stroke-width="1" fill="none" fill-rule="evenodd">
        <rect id="Rectangle" stroke="#3D3530" stroke-width="2" fill="#EEEEEE" x="1" y="1" width="898" height="398"></rect>
        <rect id="Rectangle-Copy" stroke="#3D3530" stroke-width="2" x="1" y="217" width="898" height="62"></rect>
        <g id="Circuit" transform="translate(230.000000, 21.000000)">
            <polyline id="Resistor" stroke="#3D3530" stroke-width="3" stroke-linejoin="round" points="139 64 144 64 149 51 159 77 169 51 179 77 189 51 199 77 204 64 209 64"></polyline>
            <g id="DC_Rail" transform="translate(73.500000, 64.000000) rotate(-180.000000) translate(-73.500000, -64.000000) translate(48.000000, 49.000000)" stroke="#3D3530" stroke-width="3">
                <path d="M-5.32907052e-15,15 L50,15" id="Path-2-Copy"></path>
                <path d="M50,-4.26325641e-14 L50,30" id="Path-4"></path>
            </g>
            <g id="Labels">
                <g id="5V-Reference" transform="translate(149.000000, 144.000000)">
                    <rect id="Rectangle" stroke="#3D3530" stroke-width="2" fill="#F8FAE4" x="1" y="1" width="168" height="28" rx="5"></rect>
                    <path d="M19.344,15.536 C19.6000013,15.2159984 19.9839974,14.960001 20.496,14.768 C21.0080026,14.575999 21.5199974,14.48 22.032,14.48 C23.3760067,14.48 24.4839956,14.9599952 25.356,15.92 C26.2280044,16.8800048 26.664,18.063993 26.664,19.472 C26.664,20.8480069 26.1880048,22.0279951 25.236,23.012 C24.2839952,23.9960049 23.1440066,24.488 21.816,24.488 C20.6639942,24.488 19.7240036,24.192003 18.996,23.6 C18.2679964,23.007997 17.904,22.4320028 17.904,21.872 C17.904,21.4399978 18.1279978,21.224 18.576,21.224 C18.784001,21.224 18.9679992,21.3479988 19.128,21.596 C19.2880008,21.8440012 19.4319994,22.1119986 19.56,22.4 C19.6880006,22.6880014 19.947998,22.9559988 20.34,23.204 C20.732002,23.4520012 21.223997,23.576 21.816,23.576 C22.7600047,23.576 23.4719976,23.1960038 23.952,22.436 C24.4320024,21.6759962 24.672,20.6880061 24.672,19.472 C24.672,18.2559939 24.4360024,17.2880036 23.964,16.568 C23.4919976,15.8479964 22.7760048,15.488 21.816,15.488 C20.2639922,15.488 19.3680012,16.2719922 19.128,17.84 L18.24,17.84 L18.984,9.608 L23.04,9.608 C24.0800052,9.608 24.7599984,9.48400124 25.08,9.236 C25.4000016,8.98799876 25.6479991,8.5040036 25.824,7.784 L26.376,7.784 L25.776,11.288 L19.704,11.288 L19.344,15.536 Z M45.072,6.104 C44.1279953,6.104 43.5160014,6.21999884 43.236,6.452 C42.9559986,6.68400116 42.616002,7.26399536 42.216,8.192 L36.936,20.408 L36.624,20.408 L31.32,8.192 C30.919998,7.26399536 30.5800014,6.68400116 30.3,6.452 C30.0199986,6.21999884 29.4080047,6.104 28.464,6.104 L28.464,5.6 L35.112,5.6 L35.112,6.104 C34.119995,6.104 33.4840014,6.2439986 33.204,6.524 C32.9239986,6.8040014 32.9359985,7.27199672 33.24,7.928 L37.32,17.264 L41.352,7.928 C41.6560015,7.27199672 41.6680014,6.8040014 41.388,6.524 C41.1079986,6.2439986 40.472005,6.104 39.48,6.104 L39.48,5.6 L45.072,5.6 L45.072,6.104 Z M59.4,12.824 C60.392005,12.824 61.1479974,12.528003 61.668,11.936 C62.1880026,11.343997 62.448,10.5840046 62.448,9.656 C62.448,8.72799536 62.1880026,7.96800296 61.668,7.376 C61.1479974,6.78399704 60.392005,6.488 59.4,6.488 L57.288,6.488 L57.288,12.824 L59.4,12.824 Z M60.312,13.688 L62.664,16.448 C64.2320078,18.3200094 65.719993,19.3359992 67.128,19.496 L67.128,20 L63.168,20 L58.416,13.688 L57.288,13.688 L57.288,16.688 C57.288,17.888006 57.4199987,18.6559983 57.684,18.992 C57.9480013,19.3280017 58.575995,19.496 59.568,19.496 L59.568,20 L53.088,20 L53.088,19.496 C54.080005,19.496 54.7079987,19.3280017 54.972,18.992 C55.2360013,18.6559983 55.368,17.888006 55.368,16.688 L55.368,8.888 C55.368,7.687994 55.2360013,6.92400164 54.972,6.596 C54.7079987,6.26799836 54.080005,6.104 53.088,6.104 L53.088,5.6 L59.424,5.6 C61.0400081,5.6 62.3039954,5.98399616 63.216,6.752 C64.1280046,7.52000384 64.584,8.48799416 64.584,9.656 C64.584,10.7280054 64.2040038,11.6319963 63.444,12.368 C62.6839962,13.1040037 61.6400066,13.5439993 60.312,13.688 Z M71.472,14.504 L75.456,14.504 C75.6160008,14.0559978 75.5480015,13.6200021 75.252,13.196 C74.9559985,12.7719979 74.4480036,12.56 73.728,12.56 C73.2159974,12.56 72.756002,12.7359982 72.348,13.088 C71.939998,13.4400018 71.6480009,13.911997 71.472,14.504 Z M71.328,15.392 C71.1839993,16.5760059 71.3719974,17.5399963 71.892,18.284 C72.4120026,19.0280037 73.2639941,19.4 74.448,19.4 C74.848002,19.4 75.3039974,19.296001 75.816,19.088 C76.3280026,18.879999 76.7519983,18.6160016 77.088,18.296 L77.52,18.824 C77.0879978,19.2880023 76.5360034,19.6679985 75.864,19.964 C75.1919966,20.2600015 74.5200034,20.408 73.848,20.408 C72.5519935,20.408 71.4880042,19.9800043 70.656,19.124 C69.8239958,18.2679957 69.408,17.2240062 69.408,15.992 C69.408,14.7599938 69.8599955,13.7200042 70.764,12.872 C71.6680045,12.0239958 72.6959942,11.6 73.848,11.6 C74.9360054,11.6 75.8239966,11.9799962 76.512,12.74 C77.2000034,13.5000038 77.4000014,14.383995 77.112,15.392 L71.328,15.392 Z M84.096,12.848 L84.096,16.688 C84.096,17.888006 84.2119988,18.6559983 84.444,18.992 C84.6760012,19.3280017 85.191996,19.496 85.992,19.496 L85.992,20 L80.496,20 L80.496,19.496 C81.296004,19.496 81.8119988,19.3280017 82.044,18.992 C82.2760012,18.6559983 82.392,17.888006 82.392,16.688 L82.392,12.848 L80.424,12.848 L80.424,12.008 L82.392,12.008 L82.392,9.704 C82.392,8.1839924 82.7719962,7.05200372 83.532,6.308 C84.2920038,5.56399628 85.2239945,5.192 86.328,5.192 C87.0640037,5.192 87.6479978,5.37999812 88.08,5.756 C88.5120022,6.13200188 88.728,6.53599784 88.728,6.968 C88.728,7.22400128 88.6600007,7.4319992 88.524,7.592 C88.3879993,7.7520008 88.1920013,7.832 87.936,7.832 C87.6799987,7.832 87.4800007,7.73600096 87.336,7.544 C87.1919993,7.35199904 87.0960002,7.14000116 87.048,6.908 C86.9999998,6.67599884 86.880001,6.46400096 86.688,6.272 C86.495999,6.07999904 86.2320017,5.984 85.896,5.984 C85.2719969,5.984 84.8160014,6.26799716 84.528,6.836 C84.2399986,7.40400284 84.096,8.35999328 84.096,9.704 L84.096,12.008 L86.496,12.008 L86.496,12.848 L84.096,12.848 Z M91.512,14.504 L95.496,14.504 C95.6560008,14.0559978 95.5880015,13.6200021 95.292,13.196 C94.9959985,12.7719979 94.4880036,12.56 93.768,12.56 C93.2559974,12.56 92.796002,12.7359982 92.388,13.088 C91.979998,13.4400018 91.6880009,13.911997 91.512,14.504 Z M91.368,15.392 C91.2239993,16.5760059 91.4119974,17.5399963 91.932,18.284 C92.4520026,19.0280037 93.3039941,19.4 94.488,19.4 C94.888002,19.4 95.3439974,19.296001 95.856,19.088 C96.3680026,18.879999 96.7919983,18.6160016 97.128,18.296 L97.56,18.824 C97.1279978,19.2880023 96.5760034,19.6679985 95.904,19.964 C95.2319966,20.2600015 94.5600034,20.408 93.888,20.408 C92.5919935,20.408 91.5280042,19.9800043 90.696,19.124 C89.8639958,18.2679957 89.448,17.2240062 89.448,15.992 C89.448,14.7599938 89.8999955,13.7200042 90.804,12.872 C91.7080045,12.0239958 92.7359942,11.6 93.888,11.6 C94.9760054,11.6 95.8639966,11.9799962 96.552,12.74 C97.2400034,13.5000038 97.4400014,14.383995 97.152,15.392 L91.368,15.392 Z M108.552,13.088 C108.552,13.8400038 108.232003,14.216 107.592,14.216 C107.367999,14.216 107.172001,14.1280009 107.004,13.952 C106.835999,13.7759991 106.752,13.5760011 106.752,13.352 C106.752,12.8239974 106.496003,12.56 105.984,12.56 C105.615998,12.56 105.216002,12.8159974 104.784,13.328 C104.351998,13.8400026 104.136,14.5199958 104.136,15.368 L104.136,16.688 C104.136,17.888006 104.251999,18.6559983 104.484,18.992 C104.716001,19.3280017 105.231996,19.496 106.032,19.496 L106.032,20 L100.536,20 L100.536,19.496 C101.336004,19.496 101.851999,19.3280017 102.084,18.992 C102.316001,18.6559983 102.432,17.888006 102.432,16.688 L102.432,15.488 C102.432,14.3039941 102.316001,13.5440017 102.084,13.208 C101.851999,12.8719983 101.336004,12.704 100.536,12.704 L100.536,12.2 L103.728,11.6 C103.872001,11.9040015 104.007999,12.4799958 104.136,13.328 C104.376001,12.8479976 104.735998,12.4400017 105.216,12.104 C105.696002,11.7679983 106.175998,11.6 106.656,11.6 C107.264003,11.6 107.731998,11.7599984 108.06,12.08 C108.388002,12.4000016 108.552,12.7359982 108.552,13.088 Z M113.064,14.504 L117.048,14.504 C117.208001,14.0559978 117.140001,13.6200021 116.844,13.196 C116.547999,12.7719979 116.040004,12.56 115.32,12.56 C114.807997,12.56 114.348002,12.7359982 113.94,13.088 C113.531998,13.4400018 113.240001,13.911997 113.064,14.504 Z M112.92,15.392 C112.775999,16.5760059 112.963997,17.5399963 113.484,18.284 C114.004003,19.0280037 114.855994,19.4 116.04,19.4 C116.440002,19.4 116.895997,19.296001 117.408,19.088 C117.920003,18.879999 118.343998,18.6160016 118.68,18.296 L119.112,18.824 C118.679998,19.2880023 118.128003,19.6679985 117.456,19.964 C116.783997,20.2600015 116.112003,20.408 115.44,20.408 C114.143994,20.408 113.080004,19.9800043 112.248,19.124 C111.415996,18.2679957 111,17.2240062 111,15.992 C111,14.7599938 111.451995,13.7200042 112.356,12.872 C113.260005,12.0239958 114.287994,11.6 115.44,11.6 C116.528005,11.6 117.415997,11.9799962 118.104,12.74 C118.792003,13.5000038 118.992001,14.383995 118.704,15.392 L112.92,15.392 Z M125.688,13.328 C126.600005,12.1759942 127.711993,11.6 129.024,11.6 C130.064005,11.6 130.843997,11.9279967 131.364,12.584 C131.884003,13.2400033 132.144,14.1039946 132.144,15.176 L132.144,16.688 C132.144,17.888006 132.259999,18.6559983 132.492,18.992 C132.724001,19.3280017 133.239996,19.496 134.04,19.496 L134.04,20 L128.544,20 L128.544,19.496 C129.328004,19.496 129.839999,19.3240017 130.08,18.98 C130.320001,18.6359983 130.44,17.8720059 130.44,16.688 L130.44,15.296 C130.44,13.5839914 129.776007,12.728 128.448,12.728 C127.759997,12.728 127.128003,12.9679976 126.552,13.448 C125.975997,13.9280024 125.688,14.4879968 125.688,15.128 L125.688,16.688 C125.688,17.9200062 125.783999,18.6959984 125.976,19.016 C126.168001,19.3360016 126.631996,19.496 127.368,19.496 L127.368,20 L122.088,20 L122.088,19.496 C122.888004,19.496 123.403999,19.3280017 123.636,18.992 C123.868001,18.6559983 123.984,17.888006 123.984,16.688 L123.984,15.488 C123.984,14.3039941 123.868001,13.5440017 123.636,13.208 C123.403999,12.8719983 122.888004,12.704 122.088,12.704 L122.088,12.2 L125.28,11.6 C125.424001,11.9040015 125.559999,12.4799958 125.688,13.328 Z M141.096,12.368 C140.455997,12.368 139.912002,12.7359963 139.464,13.472 C139.015998,14.2080037 138.792,15.1199946 138.792,16.208 C138.792,17.200005 139.035998,17.9799972 139.524,18.548 C140.012002,19.1160028 140.735995,19.4 141.696,19.4 C142.624005,19.4 143.479996,19.0320037 144.264,18.296 L144.672,18.824 C143.695995,19.8800053 142.504007,20.408 141.096,20.408 C139.783993,20.408 138.748004,20.0160039 137.988,19.232 C137.227996,18.4479961 136.848,17.4400062 136.848,16.208 C136.848,14.8799934 137.295996,13.7800044 138.192,12.908 C139.088004,12.0359956 140.055995,11.6 141.096,11.6 C142.040005,11.6 142.751998,11.7679983 143.232,12.104 C143.712002,12.4400017 143.952,12.8479976 143.952,13.328 C143.952,13.5840013 143.868001,13.8199989 143.7,14.036 C143.531999,14.2520011 143.264002,14.36 142.896,14.36 C142.639999,14.36 142.420001,14.2680009 142.236,14.084 C142.051999,13.8999991 141.96,13.6720014 141.96,13.4 C141.96,12.7119966 141.672003,12.368 141.096,12.368 Z M149.544,14.504 L153.528,14.504 C153.688001,14.0559978 153.620001,13.6200021 153.324,13.196 C153.027999,12.7719979 152.520004,12.56 151.8,12.56 C151.287997,12.56 150.828002,12.7359982 150.42,13.088 C150.011998,13.4400018 149.720001,13.911997 149.544,14.504 Z M149.4,15.392 C149.255999,16.5760059 149.443997,17.5399963 149.964,18.284 C150.484003,19.0280037 151.335994,19.4 152.52,19.4 C152.920002,19.4 153.375997,19.296001 153.888,19.088 C154.400003,18.879999 154.823998,18.6160016 155.16,18.296 L155.592,18.824 C155.159998,19.2880023 154.608003,19.6679985 153.936,19.964 C153.263997,20.2600015 152.592003,20.408 151.92,20.408 C150.623994,20.408 149.560004,19.9800043 148.728,19.124 C147.895996,18.2679957 147.48,17.2240062 147.48,15.992 C147.48,14.7599938 147.931995,13.7200042 148.836,12.872 C149.740005,12.0239958 150.767994,11.6 151.92,11.6 C153.008005,11.6 153.895997,11.9799962 154.584,12.74 C155.272003,13.5000038 155.472001,14.383995 155.184,15.392 L149.4,15.392 Z" id="5V-Reference-Copy" fill="#1A80AA"></path>
                </g>
                <path d="M248.728,3.488 L244.312,3.488 C243.591996,3.488 243.044002,3.55999928 242.668,3.704 C242.291998,3.84800072 242.036001,4.02799892 241.9,4.244 C241.763999,4.46000108 241.640001,4.8079976 241.528,5.288 L241.408,5.768 L240.904,5.768 L241.12,2.6 L251.344,2.6 L251.344,2.888 L243.064,16.112 L248.464,16.112 C249.184004,16.112 249.731998,16.0400007 250.108,15.896 C250.484002,15.7519993 250.739999,15.5680011 250.876,15.344 C251.012001,15.1199989 251.135999,14.7680024 251.248,14.288 L251.368,13.808 L251.872,13.808 L251.68,17 L240.64,17 L240.64,16.448 L248.728,3.488 Z M257.824,11.504 L261.808,11.504 C261.968001,11.0559978 261.900001,10.6200021 261.604,10.196 C261.307999,9.77199788 260.800004,9.56 260.08,9.56 C259.567997,9.56 259.108002,9.73599824 258.7,10.088 C258.291998,10.4400018 258.000001,10.911997 257.824,11.504 Z M257.68,12.392 C257.535999,13.5760059 257.723997,14.5399963 258.244,15.284 C258.764003,16.0280037 259.615994,16.4 260.8,16.4 C261.200002,16.4 261.655997,16.296001 262.168,16.088 C262.680003,15.879999 263.103998,15.6160016 263.44,15.296 L263.872,15.824 C263.439998,16.2880023 262.888003,16.6679985 262.216,16.964 C261.543997,17.2600015 260.872003,17.408 260.2,17.408 C258.903994,17.408 257.840004,16.9800043 257.008,16.124 C256.175996,15.2679957 255.76,14.2240062 255.76,12.992 C255.76,11.7599938 256.211995,10.7200042 257.116,9.872 C258.020005,9.02399576 259.047994,8.6 260.2,8.6 C261.288005,8.6 262.175997,8.9799962 262.864,9.74 C263.552003,10.5000038 263.752001,11.383995 263.464,12.392 L257.68,12.392 Z M270.448,10.328 C271.360005,9.17599424 272.471993,8.6 273.784,8.6 C274.824005,8.6 275.603997,8.92799672 276.124,9.584 C276.644003,10.2400033 276.904,11.1039946 276.904,12.176 L276.904,13.688 C276.904,14.888006 277.019999,15.6559983 277.252,15.992 C277.484001,16.3280017 277.999996,16.496 278.8,16.496 L278.8,17 L273.304,17 L273.304,16.496 C274.088004,16.496 274.599999,16.3240017 274.84,15.98 C275.080001,15.6359983 275.2,14.8720059 275.2,13.688 L275.2,12.296 C275.2,10.5839914 274.536007,9.728 273.208,9.728 C272.519997,9.728 271.888003,9.9679976 271.312,10.448 C270.735997,10.9280024 270.448,11.4879968 270.448,12.128 L270.448,13.688 C270.448,14.9200062 270.543999,15.6959984 270.736,16.016 C270.928001,16.3360016 271.391996,16.496 272.128,16.496 L272.128,17 L266.848,17 L266.848,16.496 C267.648004,16.496 268.163999,16.3280017 268.396,15.992 C268.628001,15.6559983 268.744,14.888006 268.744,13.688 L268.744,12.488 C268.744,11.3039941 268.628001,10.5440017 268.396,10.208 C268.163999,9.87199832 267.648004,9.704 266.848,9.704 L266.848,9.2 L270.04,8.6 C270.184001,8.90400152 270.319999,9.47999576 270.448,10.328 Z M283.672,11.504 L287.656,11.504 C287.816001,11.0559978 287.748001,10.6200021 287.452,10.196 C287.155999,9.77199788 286.648004,9.56 285.928,9.56 C285.415997,9.56 284.956002,9.73599824 284.548,10.088 C284.139998,10.4400018 283.848001,10.911997 283.672,11.504 Z M283.528,12.392 C283.383999,13.5760059 283.571997,14.5399963 284.092,15.284 C284.612003,16.0280037 285.463994,16.4 286.648,16.4 C287.048002,16.4 287.503997,16.296001 288.016,16.088 C288.528003,15.879999 288.951998,15.6160016 289.288,15.296 L289.72,15.824 C289.287998,16.2880023 288.736003,16.6679985 288.064,16.964 C287.391997,17.2600015 286.720003,17.408 286.048,17.408 C284.751994,17.408 283.688004,16.9800043 282.856,16.124 C282.023996,15.2679957 281.608,14.2240062 281.608,12.992 C281.608,11.7599938 282.059995,10.7200042 282.964,9.872 C283.868005,9.02399576 284.895994,8.6 286.048,8.6 C287.136005,8.6 288.023997,8.9799962 288.712,9.74 C289.400003,10.5000038 289.600001,11.383995 289.312,12.392 L283.528,12.392 Z M300.712,10.088 C300.712,10.8400038 300.392003,11.216 299.752,11.216 C299.527999,11.216 299.332001,11.1280009 299.164,10.952 C298.995999,10.7759991 298.912,10.5760011 298.912,10.352 C298.912,9.82399736 298.656003,9.56 298.144,9.56 C297.775998,9.56 297.376002,9.81599744 296.944,10.328 C296.511998,10.8400026 296.296,11.5199958 296.296,12.368 L296.296,13.688 C296.296,14.888006 296.411999,15.6559983 296.644,15.992 C296.876001,16.3280017 297.391996,16.496 298.192,16.496 L298.192,17 L292.696,17 L292.696,16.496 C293.496004,16.496 294.011999,16.3280017 294.244,15.992 C294.476001,15.6559983 294.592,14.888006 294.592,13.688 L294.592,12.488 C294.592,11.3039941 294.476001,10.5440017 294.244,10.208 C294.011999,9.87199832 293.496004,9.704 292.696,9.704 L292.696,9.2 L295.888,8.6 C296.032001,8.90400152 296.167999,9.47999576 296.296,10.328 C296.536001,9.8479976 296.895998,9.44000168 297.376,9.104 C297.856002,8.76799832 298.335998,8.6 298.816,8.6 C299.424003,8.6 299.891998,8.7599984 300.22,9.08 C300.548002,9.4000016 300.712,9.73599824 300.712,10.088 Z M315.976,11.888 L313.912,17.432 L313.432,17.432 L310.6,10.904 C310.375999,10.3759974 310.140001,10.008001 309.892,9.8 C309.643999,9.59199896 309.336002,9.488 308.968,9.488 L308.968,9.008 L313.312,9.008 L313.312,9.488 C312.319995,9.488 312.031998,9.95999528 312.448,10.904 L314.08,14.648 L316.024,9.008 L316.552,9.008 L319,14.648 L320.296,10.904 C320.632002,9.95999528 320.400004,9.488 319.6,9.488 L319.6,9.008 L322.96,9.008 L322.96,9.488 C322.527998,9.488 322.184001,9.59199896 321.928,9.8 C321.671999,10.008001 321.448001,10.3759974 321.256,10.904 L318.832,17.432 L318.352,17.432 L315.976,11.888 Z M331.912,2.504 L325,17.432 L324.04,17.096 L330.952,2.168 L331.912,2.504 Z M336.352,12.536 C336.608001,12.2159984 336.991997,11.960001 337.504,11.768 C338.016003,11.575999 338.527997,11.48 339.04,11.48 C340.384007,11.48 341.491996,11.9599952 342.364,12.92 C343.236004,13.8800048 343.672,15.063993 343.672,16.472 C343.672,17.8480069 343.196005,19.0279951 342.244,20.012 C341.291995,20.9960049 340.152007,21.488 338.824,21.488 C337.671994,21.488 336.732004,21.192003 336.004,20.6 C335.275996,20.007997 334.912,19.4320028 334.912,18.872 C334.912,18.4399978 335.135998,18.224 335.584,18.224 C335.792001,18.224 335.975999,18.3479988 336.136,18.596 C336.296001,18.8440012 336.439999,19.1119986 336.568,19.4 C336.696001,19.6880014 336.955998,19.9559988 337.348,20.204 C337.740002,20.4520012 338.231997,20.576 338.824,20.576 C339.768005,20.576 340.479998,20.1960038 340.96,19.436 C341.440002,18.6759962 341.68,17.6880061 341.68,16.472 C341.68,15.2559939 341.444002,14.2880036 340.972,13.568 C340.499998,12.8479964 339.784005,12.488 338.824,12.488 C337.271992,12.488 336.376001,13.2719922 336.136,14.84 L335.248,14.84 L335.992,6.608 L340.048,6.608 C341.088005,6.608 341.767998,6.48400124 342.088,6.236 C342.408002,5.98799876 342.655999,5.5040036 342.832,4.784 L343.384,4.784 L342.784,8.288 L336.712,8.288 L336.352,12.536 Z M362.08,3.104 C361.135995,3.104 360.524001,3.21999884 360.244,3.452 C359.963999,3.68400116 359.624002,4.26399536 359.224,5.192 L353.944,17.408 L353.632,17.408 L348.328,5.192 C347.927998,4.26399536 347.588001,3.68400116 347.308,3.452 C347.027999,3.21999884 346.416005,3.104 345.472,3.104 L345.472,2.6 L352.12,2.6 L352.12,3.104 C351.127995,3.104 350.492001,3.2439986 350.212,3.524 C349.931999,3.8040014 349.943998,4.27199672 350.248,4.928 L354.328,14.264 L358.36,4.928 C358.664002,4.27199672 358.676001,3.8040014 358.396,3.524 C358.115999,3.2439986 357.480005,3.104 356.488,3.104 L356.488,2.6 L362.08,2.6 L362.08,3.104 Z M251.116,36.112 C252.108005,36.112 252.867997,35.816003 253.396,35.224 C253.924003,34.631997 254.188,33.8800046 254.188,32.968 C254.188,32.0399954 253.924003,31.276003 253.396,30.676 C252.867997,30.075997 252.108005,29.776 251.116,29.776 L248.212,29.776 L248.212,33.328 C248.212,34.528006 248.343999,35.2919984 248.608,35.62 C248.872001,35.9480016 249.499995,36.112 250.492,36.112 L251.116,36.112 Z M248.212,23.488 L248.212,28.888 L250.348,28.888 C251.212004,28.888 251.867998,28.6360025 252.316,28.132 C252.764002,27.6279975 252.988,26.9840039 252.988,26.2 C252.988,25.4159961 252.764002,24.7680026 252.316,24.256 C251.867998,23.7439974 251.212004,23.488 250.348,23.488 L248.212,23.488 Z M253.228,29.176 C254.156005,29.4640014 254.899997,29.9519966 255.46,30.64 C256.020003,31.3280034 256.3,32.1039957 256.3,32.968 C256.3,34.1360058 255.844005,35.0999962 254.932,35.86 C254.019995,36.6200038 252.756008,37 251.14,37 L244.012,37 L244.012,36.496 C245.004005,36.496 245.631999,36.3280017 245.896,35.992 C246.160001,35.6559983 246.292,34.888006 246.292,33.688 L246.292,25.888 C246.292,24.687994 246.160001,23.9240016 245.896,23.596 C245.631999,23.2679984 245.004005,23.104 244.012,23.104 L244.012,22.6 L250.468,22.6 C251.940007,22.6 253.079996,22.9399966 253.888,23.62 C254.696004,24.3000034 255.1,25.1599948 255.1,26.2 C255.1,27.4480062 254.476006,28.4399963 253.228,29.176 Z M267.82,30.088 C267.82,30.8400038 267.500003,31.216 266.86,31.216 C266.635999,31.216 266.440001,31.1280009 266.272,30.952 C266.103999,30.7759991 266.02,30.5760011 266.02,30.352 C266.02,29.8239974 265.764003,29.56 265.252,29.56 C264.883998,29.56 264.484002,29.8159974 264.052,30.328 C263.619998,30.8400026 263.404,31.5199958 263.404,32.368 L263.404,33.688 C263.404,34.888006 263.519999,35.6559983 263.752,35.992 C263.984001,36.3280017 264.499996,36.496 265.3,36.496 L265.3,37 L259.804,37 L259.804,36.496 C260.604004,36.496 261.119999,36.3280017 261.352,35.992 C261.584001,35.6559983 261.7,34.888006 261.7,33.688 L261.7,32.488 C261.7,31.3039941 261.584001,30.5440017 261.352,30.208 C261.119999,29.8719983 260.604004,29.704 259.804,29.704 L259.804,29.2 L262.996,28.6 C263.140001,28.9040015 263.275999,29.4799958 263.404,30.328 C263.644001,29.8479976 264.003998,29.4400017 264.484,29.104 C264.964002,28.7679983 265.443998,28.6 265.924,28.6 C266.532003,28.6 266.999998,28.7599984 267.328,29.08 C267.656002,29.4000016 267.82,29.7359982 267.82,30.088 Z M272.332,31.504 L276.316,31.504 C276.476001,31.0559978 276.408001,30.6200021 276.112,30.196 C275.815999,29.7719979 275.308004,29.56 274.588,29.56 C274.075997,29.56 273.616002,29.7359982 273.208,30.088 C272.799998,30.4400018 272.508001,30.911997 272.332,31.504 Z M272.188,32.392 C272.043999,33.5760059 272.231997,34.5399963 272.752,35.284 C273.272003,36.0280037 274.123994,36.4 275.308,36.4 C275.708002,36.4 276.163997,36.296001 276.676,36.088 C277.188003,35.879999 277.611998,35.6160016 277.948,35.296 L278.38,35.824 C277.947998,36.2880023 277.396003,36.6679985 276.724,36.964 C276.051997,37.2600015 275.380003,37.408 274.708,37.408 C273.411994,37.408 272.348004,36.9800043 271.516,36.124 C270.683996,35.2679957 270.268,34.2240062 270.268,32.992 C270.268,31.7599938 270.719995,30.7200042 271.624,29.872 C272.528005,29.0239958 273.555994,28.6 274.708,28.6 C275.796005,28.6 276.683997,28.9799962 277.372,29.74 C278.060003,30.5000038 278.260001,31.383995 277.972,32.392 L272.188,32.392 Z M289.732,36.52 C289.267998,37.0160025 288.740003,37.264 288.148,37.264 C287.187995,37.264 286.644001,36.8000046 286.516,35.872 C285.443995,36.8320048 284.444005,37.312 283.516,37.312 C282.907997,37.312 282.396002,37.1320018 281.98,36.772 C281.563998,36.4119982 281.356,35.9200031 281.356,35.296 C281.356,33.6159916 283.059983,32.480003 286.468,31.888 C286.468,30.9439953 286.364001,30.2880018 286.156,29.92 C285.947999,29.5519982 285.516003,29.368 284.86,29.368 C284.539998,29.368 284.232001,29.471999 283.936,29.68 C283.639999,29.888001 283.492,30.1679982 283.492,30.52 C283.492,30.7600012 283.412001,30.9599992 283.252,31.12 C283.091999,31.2800008 282.900001,31.36 282.676,31.36 C282.435999,31.36 282.236001,31.2800008 282.076,31.12 C281.915999,30.9599992 281.836,30.7600012 281.836,30.52 C281.836,29.9599972 282.143997,29.5000018 282.76,29.14 C283.376003,28.7799982 284.083996,28.6 284.884,28.6 C286.052006,28.6 286.891997,28.8559974 287.404,29.368 C287.916003,29.8800026 288.172,30.7119942 288.172,31.864 L288.172,35.488 C288.172,36.1120031 288.355998,36.424 288.724,36.424 C288.932001,36.424 289.155999,36.3040012 289.396,36.064 L289.732,36.52 Z M286.468,35.08 L286.468,32.632 C284.259989,33.1440026 283.156,33.9359946 283.156,35.008 C283.156,35.3760018 283.263999,35.6719989 283.48,35.896 C283.696001,36.1200011 283.963998,36.232 284.284,36.232 C284.876003,36.232 285.603996,35.8480038 286.468,35.08 Z M296.908,32.032 L300.772,35.92 C301.156002,36.3040019 301.627997,36.496 302.188,36.496 L302.188,37 L299.524,37 L295.588,33.088 L295.372,33.256 L295.372,33.688 C295.372,34.888006 295.487999,35.6559983 295.72,35.992 C295.952001,36.3280017 296.467996,36.496 297.268,36.496 L297.268,37 L291.772,37 L291.772,36.496 C292.572004,36.496 293.087999,36.3280017 293.32,35.992 C293.552001,35.6559983 293.668,34.888006 293.668,33.688 L293.668,26.104 C293.668,24.903994 293.552001,24.1360017 293.32,23.8 C293.087999,23.4639983 292.572004,23.296 291.772,23.296 L291.772,22.792 L295.372,22.192 L295.372,32.392 L297.388,30.76 C297.788002,30.4399984 297.916001,30.1480013 297.772,29.884 C297.627999,29.6199987 297.260003,29.488 296.668,29.488 L296.668,29.008 L301.468,29.008 L301.468,29.488 C300.411995,29.5680004 299.572003,29.8559975 298.948,30.352 L296.908,32.032 Z M311.332,34.552 L311.332,31.456 C311.107999,30.8799971 310.780002,30.4200017 310.348,30.076 C309.915998,29.7319983 309.436003,29.56 308.908,29.56 C308.011996,29.56 307.332002,29.8799968 306.868,30.52 C306.403998,31.1600032 306.172,31.983995 306.172,32.992 C306.172,34.0160051 306.403998,34.8479968 306.868,35.488 C307.332002,36.1280032 308.011996,36.448 308.908,36.448 C309.436003,36.448 309.915998,36.2760017 310.348,35.932 C310.780002,35.5879983 311.107999,35.1280029 311.332,34.552 Z M311.332,30.016 L311.332,26.104 C311.332,24.903994 311.216001,24.1360017 310.984,23.8 C310.751999,23.4639983 310.236004,23.296 309.436,23.296 L309.436,22.792 L313.036,22.192 L313.036,33.496 C313.036,34.696006 313.151999,35.4639983 313.384,35.8 C313.616001,36.1360017 314.131996,36.304 314.932,36.304 L314.932,36.808 L311.74,37.408 C311.627999,37.1679988 311.500001,36.6800037 311.356,35.944 C310.571996,36.9200049 309.588006,37.408 308.404,37.408 C307.267994,37.408 306.288004,36.9760043 305.464,36.112 C304.639996,35.2479957 304.228,34.2080061 304.228,32.992 C304.228,31.7759939 304.639996,30.7400043 305.464,29.884 C306.288004,29.0279957 307.267994,28.6 308.404,28.6 C309.588006,28.6 310.563996,29.0719953 311.332,30.016 Z M325.996,29.896 C326.956005,30.7440042 327.436,31.7759939 327.436,32.992 C327.436,34.2080061 326.960005,35.2479957 326.008,36.112 C325.055995,36.9760043 323.916007,37.408 322.588,37.408 C321.259993,37.408 320.120005,36.9760043 319.168,36.112 C318.215995,35.2479957 317.74,34.2080061 317.74,32.992 C317.74,31.7759939 318.215995,30.7400043 319.168,29.884 C320.120005,29.0279957 321.259993,28.6 322.588,28.6 C323.916007,28.6 325.051995,29.0319957 325.996,29.896 Z M324.748,35.512 C325.244002,34.8559967 325.492,34.0160051 325.492,32.992 C325.492,31.9679949 325.244002,31.1320032 324.748,30.484 C324.251998,29.8359968 323.532005,29.512 322.588,29.512 C321.643995,29.512 320.924002,29.8399967 320.428,30.496 C319.931998,31.1520033 319.684,31.983995 319.684,32.992 C319.684,34.000005 319.931998,34.8319967 320.428,35.488 C320.924002,36.1440033 321.643995,36.472 322.588,36.472 C323.532005,36.472 324.251998,36.1520032 324.748,35.512 Z M336.556,31.888 L334.492,37.432 L334.012,37.432 L331.18,30.904 C330.955999,30.3759974 330.720001,30.008001 330.472,29.8 C330.223999,29.591999 329.916002,29.488 329.548,29.488 L329.548,29.008 L333.892,29.008 L333.892,29.488 C332.899995,29.488 332.611998,29.9599953 333.028,30.904 L334.66,34.648 L336.604,29.008 L337.132,29.008 L339.58,34.648 L340.876,30.904 C341.212002,29.9599953 340.980004,29.488 340.18,29.488 L340.18,29.008 L343.54,29.008 L343.54,29.488 C343.107998,29.488 342.764001,29.591999 342.508,29.8 C342.251999,30.008001 342.028001,30.3759974 341.836,30.904 L339.412,37.432 L338.932,37.432 L336.556,31.888 Z M348.892,30.328 C349.804005,29.1759942 350.915993,28.6 352.228,28.6 C353.268005,28.6 354.047997,28.9279967 354.568,29.584 C355.088003,30.2400033 355.348,31.1039946 355.348,32.176 L355.348,33.688 C355.348,34.888006 355.463999,35.6559983 355.696,35.992 C355.928001,36.3280017 356.443996,36.496 357.244,36.496 L357.244,37 L351.748,37 L351.748,36.496 C352.532004,36.496 353.043999,36.3240017 353.284,35.98 C353.524001,35.6359983 353.644,34.8720059 353.644,33.688 L353.644,32.296 C353.644,30.5839914 352.980007,29.728 351.652,29.728 C350.963997,29.728 350.332003,29.9679976 349.756,30.448 C349.179997,30.9280024 348.892,31.4879968 348.892,32.128 L348.892,33.688 C348.892,34.9200062 348.987999,35.6959984 349.18,36.016 C349.372001,36.3360016 349.835996,36.496 350.572,36.496 L350.572,37 L345.292,37 L345.292,36.496 C346.092004,36.496 346.607999,36.3280017 346.84,35.992 C347.072001,35.6559983 347.188,34.888006 347.188,33.688 L347.188,32.488 C347.188,31.3039941 347.072001,30.5440017 346.84,30.208 C346.607999,29.8719983 346.092004,29.704 345.292,29.704 L345.292,29.2 L348.484,28.6 C348.628001,28.9040015 348.763999,29.4799958 348.892,30.328 Z" id="Zener-w/5V-Breakdown-Copy" fill="#1A80AA"></path>
                <path d="M6.024,64.168 L9.792,64.168 L9.792,65.224 L6.024,65.224 L6.024,68.992 L4.968,68.992 L4.968,65.224 L1.2,65.224 L1.2,64.168 L4.968,64.168 L4.968,60.4 L6.024,60.4 L6.024,64.168 Z M23.304,65.968 C23.304,67.3920071 23.108002,68.7359937 22.716,70 C22.323998,71.2640063 21.6960043,72.3279957 20.832,73.192 C19.9679957,74.0560043 18.9520058,74.488 17.784,74.488 C16.8399953,74.488 16.0120036,74.288002 15.3,73.888 C14.5879964,73.487998 14.232,73.0800021 14.232,72.664 C14.232,72.471999 14.3039993,72.3160006 14.448,72.196 C14.5920007,72.0759994 14.7439992,72.016 14.904,72.016 C15.0640008,72.016 15.2319991,72.1039991 15.408,72.28 C15.5840009,72.4560009 15.7559992,72.647999 15.924,72.856 C16.0920008,73.064001 16.3399984,73.2559991 16.668,73.432 C16.9960016,73.6080009 17.359998,73.696 17.76,73.696 C19.9200108,73.696 21.095999,71.392023 21.288,66.784 C20.5839965,67.7280047 19.632006,68.2 18.432,68.2 C17.1039934,68.2 15.9640048,67.7600044 15.012,66.88 C14.0599952,65.9999956 13.584,64.9360062 13.584,63.688 C13.584,62.4559938 14.0599952,61.4000044 15.012,60.52 C15.9640048,59.6399956 17.1039934,59.2 18.432,59.2 C18.832002,59.2 19.235998,59.2519995 19.644,59.356 C20.052002,59.4600005 20.4799978,59.6679984 20.928,59.98 C21.3760022,60.2920016 21.7719983,60.6879976 22.116,61.168 C22.4600017,61.6480024 22.7439989,62.3039958 22.968,63.136 C23.1920011,63.9680042 23.304,64.9119947 23.304,65.968 Z M21.312,65.464 C21.2799998,64.3599945 21.1560011,63.4280038 20.94,62.668 C20.7239989,61.9079962 20.4560016,61.3640016 20.136,61.036 C19.8159984,60.7079984 19.5200014,60.4800006 19.248,60.352 C18.9759986,60.2239994 18.7040014,60.16 18.432,60.16 C17.4559951,60.16 16.7360023,60.5039966 16.272,61.192 C15.8079977,61.8800034 15.576,62.719995 15.576,63.712 C15.576,64.704005 15.8079977,65.5399966 16.272,66.22 C16.7360023,66.9000034 17.4559951,67.24 18.432,67.24 C19.1200034,67.24 19.7359973,67.0680017 20.28,66.724 C20.8240027,66.3799983 21.1679993,65.9600025 21.312,65.464 Z M41.688,56.104 C40.7439953,56.104 40.1320014,56.2199988 39.852,56.452 C39.5719986,56.6840012 39.232002,57.2639954 38.832,58.192 L33.552,70.408 L33.24,70.408 L27.936,58.192 C27.535998,57.2639954 27.1960014,56.6840012 26.916,56.452 C26.6359986,56.2199988 26.0240047,56.104 25.08,56.104 L25.08,55.6 L31.728,55.6 L31.728,56.104 C30.735995,56.104 30.1000014,56.2439986 29.82,56.524 C29.5399986,56.8040014 29.5519985,57.2719967 29.856,57.928 L33.936,67.264 L37.968,57.928 C38.2720015,57.2719967 38.2840014,56.8040014 38.004,56.524 C37.7239986,56.2439986 37.088005,56.104 36.096,56.104 L36.096,55.6 L41.688,55.6 L41.688,56.104 Z" id="+9V-Copy" fill="#524740"></path>
            </g>
            <g id="Wiring" transform="translate(99.000000, 59.000000)">
                <circle id="Connection" fill="#3D3530" cx="135" cy="5" r="5"></circle>
                <path d="M110,5 L160,5" id="Path-5" stroke="#3D3530" stroke-width="2"></path>
                <path d="M0,5 L40,5" id="Path-5-Copy" stroke="#3D3530" stroke-width="2"></path>
                <path d="M230,5 L270,5" id="Path-5-Copy-2" stroke="#3D3530" stroke-width="2"></path>
                <path d="M135,5 L135,85" id="Path-10" stroke="#3D3530" stroke-width="2"></path>
            </g>
            <g id="Zener_Diode" transform="translate(294.000000, 64.000000) rotate(-180.000000) translate(-294.000000, -64.000000) translate(259.000000, 48.000000)">
                <polygon id="Path-2" fill="#3D3530" points="24.5 3 44 16 24.5 29"></polygon>
                <path d="M44,16 L70,16" id="Path-2-Copy" stroke="#3D3530" stroke-width="3"></path>
                <path d="M0,16 L24.5,16" id="Path-3" stroke="#3D3530" stroke-width="3"></path>
                <polyline id="Path" stroke="#3D3530" stroke-width="3" stroke-linejoin="round" points="40 0 44 4 44 28 48 32"></polyline>
            </g>
            <g id="Ground" transform="translate(406.500000, 64.000000) rotate(-180.000000) translate(-406.500000, -64.000000) translate(369.000000, 31.000000)" stroke="#3D3530" stroke-width="3">
                <path d="M25,33 L75,33" id="Path-2-Copy"></path>
                <path d="M13,13 L13,53" id="Path-4"></path>
                <path d="M1,27 L1,39" id="Path-4-Copy"></path>
                <path d="M25,0 L25,66" id="Path-3-Copy"></path>
            </g>
        </g>
        <path d="M401.536,234.808 L401.536,236.392 L387.856,256.768 L401.536,256.768 L401.536,259 L384.832,259 L384.832,257.416 L398.512,237.04 L384.832,237.04 L384.832,234.808 L401.536,234.808 Z M415.712,256.912 C417.320008,256.912 418.759994,256.456005 420.032,255.544 C421.304006,254.631995 422.167998,253.564006 422.624,252.34 L424.64,253.06 C424.087997,254.572008 423.014008,255.963994 421.418,257.236 C419.821992,258.508006 417.920011,259.132 415.712,259.108 C413.69599,259.108 411.854008,258.484006 410.186,257.236 C408.517992,255.987994 407.384003,254.39201 406.784,252.448 C406.543999,251.655996 406.424,250.792005 406.424,249.856 C406.424,247.263987 407.323991,245.068009 409.124,243.268 C410.924009,241.467991 413.119987,240.556 415.712,240.532 C418.064012,240.556 420.115991,241.347992 421.868,242.908 C423.620009,244.468008 424.627999,246.399988 424.892,248.704 C424.916,248.824001 424.928,248.979999 424.928,249.172 L409.196,252.016 C409.604002,253.456007 410.419994,254.637995 411.644,255.562 C412.868006,256.486005 414.223993,256.936 415.712,256.912 Z M415.496,242.728 C413.695991,242.752 412.154006,243.399994 410.87,244.672 C409.585994,245.944006 408.896,247.467991 408.8,249.244 C408.8,249.316 408.806,249.441999 408.818,249.622 C408.83,249.802001 408.836,249.951999 408.836,250.072 L422.228,247.66 C421.771998,246.195993 420.920006,245.002005 419.672,244.078 C418.423994,243.153995 417.032008,242.704 415.496,242.728 Z M437.448,240.712 C439.53601,240.712 441.287993,241.449993 442.704,242.926 C444.120007,244.402007 444.828,246.219989 444.828,248.38 L444.828,259 L442.416,259 L442.416,248.452 C442.416,246.915992 441.894005,245.608005 440.85,244.528 C439.805995,243.447995 438.540007,242.908 437.052,242.908 C435.563993,242.908 434.298005,243.447995 433.254,244.528 C432.209995,245.608005 431.688,246.915992 431.688,248.452 L431.688,259 L429.312,259 L429.312,241 L431.688,241 L431.688,243.664 C433.152007,241.69599 435.071988,240.712 437.448,240.712 Z M458.5,256.912 C460.108008,256.912 461.547994,256.456005 462.82,255.544 C464.092006,254.631995 464.955998,253.564006 465.412,252.34 L467.428,253.06 C466.875997,254.572008 465.802008,255.963994 464.206,257.236 C462.609992,258.508006 460.708011,259.132 458.5,259.108 C456.48399,259.108 454.642008,258.484006 452.974,257.236 C451.305992,255.987994 450.172003,254.39201 449.572,252.448 C449.331999,251.655996 449.212,250.792005 449.212,249.856 C449.212,247.263987 450.111991,245.068009 451.912,243.268 C453.712009,241.467991 455.907987,240.556 458.5,240.532 C460.852012,240.556 462.903991,241.347992 464.656,242.908 C466.408009,244.468008 467.415999,246.399988 467.68,248.704 C467.704,248.824001 467.716,248.979999 467.716,249.172 L451.984,252.016 C452.392002,253.456007 453.207994,254.637995 454.432,255.562 C455.656006,256.486005 457.011993,256.936 458.5,256.912 Z M458.284,242.728 C456.483991,242.752 454.942006,243.399994 453.658,244.672 C452.373994,245.944006 451.684,247.467991 451.588,249.244 C451.588,249.316 451.594,249.441999 451.606,249.622 C451.618,249.802001 451.624,249.951999 451.624,250.072 L465.016,247.66 C464.559998,246.195993 463.708006,245.002005 462.46,244.078 C461.211994,243.153995 459.820008,242.704 458.284,242.728 Z M480.236,240.712 C481.508006,240.712 482.671995,241.023997 483.728,241.648 L482.9,244.024 C481.891995,243.279996 480.872005,242.908 479.84,242.908 C478.327992,242.908 477.056005,243.441995 476.024,244.51 C474.991995,245.578005 474.476,246.891992 474.476,248.452 L474.476,259 L472.1,259 L472.1,241 L474.476,241 L474.476,243.664 C475.940007,241.69599 477.859988,240.712 480.236,240.712 Z M506.68,259.288 C504.903991,259.288 503.260008,258.784005 501.748,257.776 C500.235992,256.767995 499.228003,255.592007 498.724,254.248 L500.812,253.24 C501.076001,254.080004 501.771994,254.919996 502.9,255.76 C504.028006,256.600004 505.287993,257.02 506.68,257.02 C508.288008,257.02 509.685994,256.510005 510.874,255.49 C512.062006,254.469995 512.656,253.108009 512.656,251.404 C512.656,249.651991 512.080006,248.224006 510.928,247.12 C509.775994,246.015994 508.432008,245.464 506.896,245.464 C505.599994,245.464 504.382006,245.709998 503.242,246.202 C502.101994,246.694002 501.364002,247.155998 501.028,247.588 L499.012,246.76 L499.012,234.808 L514.456,234.808 L514.456,237.184 L501.388,237.184 L501.388,244.6 C502.780007,243.663995 504.615989,243.196 506.896,243.196 C509.128011,243.196 511.041992,243.945992 512.638,245.446 C514.234008,246.946008 515.032,248.919988 515.032,251.368 C515.032,253.816012 514.240008,255.747993 512.656,257.164 C511.071992,258.580007 509.080012,259.288 506.68,259.288 Z M539.108,234.808 L541.52,234.808 L531.98,259 L529.568,259 L519.992,234.808 L522.44,234.808 L530.792,255.94 L539.108,234.808 Z M575.092,234.808 L577.504,234.808 L567.964,259 L565.552,259 L555.976,234.808 L558.424,234.808 L566.776,255.94 L575.092,234.808 Z M593.552,256.552 C591.751991,258.376009 589.568013,259.288 587,259.288 C584.431987,259.288 582.242009,258.382009 580.43,256.57 C578.617991,254.757991 577.712,252.568013 577.712,250 C577.712,247.431987 578.617991,245.242009 580.43,243.43 C582.242009,241.617991 584.431987,240.712 587,240.712 C589.568013,240.712 591.757991,241.617991 593.57,243.43 C595.382009,245.242009 596.288,247.431987 596.288,250 C596.288,252.544013 595.376009,254.727991 593.552,256.552 Z M587.036,257.02 C588.98001,257.02 590.617993,256.342007 591.95,254.986 C593.282007,253.629993 593.948,251.96801 593.948,250 C593.948,248.03199 593.282007,246.364007 591.95,244.996 C590.617993,243.627993 588.98001,242.944 587.036,242.944 C585.11599,242.944 583.484007,243.627993 582.14,244.996 C580.795993,246.364007 580.124,248.03199 580.124,250 C580.124,251.96801 580.795993,253.629993 582.14,254.986 C583.484007,256.342007 585.11599,257.02 587.036,257.02 Z M601.212,259 L601.212,232.216 L603.588,232.216 L603.588,259 L601.212,259 Z M619.816,254.968 L621.004,256.804 C620.859999,256.996001 620.668001,257.223999 620.428,257.488 C620.187999,257.752001 619.648004,258.117998 618.808,258.586 C617.967996,259.054002 617.104004,259.288 616.216,259.288 C614.703992,259.288 613.438005,258.838005 612.418,257.938 C611.397995,257.037995 610.888,255.736009 610.888,254.032 L610.888,243.16 L608.008,243.16 L608.008,240.964 L610.888,240.964 L610.888,235.276 L613.264,234.988 L613.264,240.964 L618.7,240.964 L618.7,243.16 L613.264,243.16 L613.264,253.492 C613.264,254.596006 613.605997,255.471997 614.29,256.12 C614.974003,256.768003 615.759996,257.092 616.648,257.092 C617.200003,257.092 617.739997,256.924002 618.268,256.588 C618.796003,256.251998 619.185999,255.922002 619.438,255.598 C619.690001,255.273998 619.816,255.064 619.816,254.968 Z M639.5,241 L641.876,241 L641.876,259 L639.5,259 L639.5,256.084 C637.651991,258.220011 635.312014,259.288 632.48,259.288 C629.911987,259.288 627.722009,258.382009 625.91,256.57 C624.097991,254.757991 623.192,252.568013 623.192,250 C623.192,247.431987 624.097991,245.242009 625.91,243.43 C627.722009,241.617991 629.911987,240.712 632.48,240.712 C635.336014,240.712 637.675991,241.779989 639.5,243.916 L639.5,241 Z M632.516,257.02 C634.46001,257.02 636.097993,256.342007 637.43,254.986 C638.762007,253.629993 639.428,251.96801 639.428,250 C639.428,248.03199 638.762007,246.370007 637.43,245.014 C636.097993,243.657993 634.46001,242.98 632.516,242.98 C630.59599,242.98 628.958007,243.657993 627.602,245.014 C626.245993,246.370007 625.568,248.03199 625.568,250 C625.568,251.96801 626.245993,253.629993 627.602,254.986 C628.958007,256.342007 630.59599,257.02 632.516,257.02 Z M663.072,241.036 L665.484,241.036 L665.484,257.452 C665.46,260.068013 664.518009,262.257991 662.658,264.022 C660.797991,265.786009 658.644012,266.668 656.196,266.668 C653.963989,266.668 652.062008,266.074006 650.49,264.886 C648.917992,263.697994 647.856003,262.360007 647.304,260.872 L649.248,259.9 C649.704002,261.124006 650.567994,262.191995 651.84,263.104 C653.112006,264.016005 654.563992,264.472 656.196,264.472 C658.11601,264.472 659.741993,263.770007 661.074,262.366 C662.406007,260.961993 663.084,259.324009 663.108,257.452 L663.072,257.452 L663.072,256.12 C661.247991,258.256011 658.908014,259.324 656.052,259.324 C653.483987,259.324 651.294009,258.418009 649.482,256.606 C647.669991,254.793991 646.764,252.604013 646.764,250.036 C646.764,247.467987 647.669991,245.278009 649.482,243.466 C651.294009,241.653991 653.483987,240.748 656.052,240.748 C658.884014,240.748 661.223991,241.815989 663.072,243.952 L663.072,241.036 Z M656.088,257.092 C658.03201,257.092 659.669993,256.414007 661.002,255.058 C662.334007,253.701993 663,252.04001 663,250.072 C663,248.10399 662.334007,246.442007 661.002,245.086 C659.669993,243.729993 658.03201,243.052 656.088,243.052 C654.16799,243.052 652.536007,243.729993 651.192,245.086 C649.847993,246.442007 649.176,248.10399 649.176,250.072 C649.176,252.04001 649.847993,253.701993 651.192,255.058 C652.536007,256.414007 654.16799,257.092 656.088,257.092 Z M679.696,256.912 C681.304008,256.912 682.743994,256.456005 684.016,255.544 C685.288006,254.631995 686.151998,253.564006 686.608,252.34 L688.624,253.06 C688.071997,254.572008 686.998008,255.963994 685.402,257.236 C683.805992,258.508006 681.904011,259.132 679.696,259.108 C677.67999,259.108 675.838008,258.484006 674.17,257.236 C672.501992,255.987994 671.368003,254.39201 670.768,252.448 C670.527999,251.655996 670.408,250.792005 670.408,249.856 C670.408,247.263987 671.307991,245.068009 673.108,243.268 C674.908009,241.467991 677.103987,240.556 679.696,240.532 C682.048012,240.556 684.099991,241.347992 685.852,242.908 C687.604009,244.468008 688.611999,246.399988 688.876,248.704 C688.9,248.824001 688.912,248.979999 688.912,249.172 L673.18,252.016 C673.588002,253.456007 674.403994,254.637995 675.628,255.562 C676.852006,256.486005 678.207993,256.936 679.696,256.912 Z M679.48,242.728 C677.679991,242.752 676.138006,243.399994 674.854,244.672 C673.569994,245.944006 672.88,247.467991 672.784,249.244 C672.784,249.316 672.79,249.441999 672.802,249.622 C672.814,249.802001 672.82,249.951999 672.82,250.072 L686.212,247.66 C685.755998,246.195993 684.904006,245.002005 683.656,244.078 C682.407994,243.153995 681.016008,242.704 679.48,242.728 Z M705.024,259 L705.024,234.808 L713.232,234.808 C715.944014,234.808 718.103992,235.521993 719.712,236.95 C721.320008,238.378007 722.124,240.171989 722.124,242.332 C722.124,243.940008 721.650005,245.367994 720.702,246.616 C719.753995,247.864006 718.428009,248.751997 716.724,249.28 L722.124,259 L719.64,259 L714.492,249.784 L713.016,249.856 L707.4,249.856 L707.4,259 L705.024,259 Z M707.4,247.588 L713.232,247.588 C715.17601,247.588 716.735994,247.090005 717.912,246.094 C719.088006,245.097995 719.676,243.844008 719.676,242.332 C719.676,240.843993 719.088006,239.596005 717.912,238.588 C716.735994,237.579995 715.17601,237.076 713.232,237.076 L707.4,237.076 L707.4,247.588 Z M734.788,256.912 C736.396008,256.912 737.835994,256.456005 739.108,255.544 C740.380006,254.631995 741.243998,253.564006 741.7,252.34 L743.716,253.06 C743.163997,254.572008 742.090008,255.963994 740.494,257.236 C738.897992,258.508006 736.996011,259.132 734.788,259.108 C732.77199,259.108 730.930008,258.484006 729.262,257.236 C727.593992,255.987994 726.460003,254.39201 725.86,252.448 C725.619999,251.655996 725.5,250.792005 725.5,249.856 C725.5,247.263987 726.399991,245.068009 728.2,243.268 C730.000009,241.467991 732.195987,240.556 734.788,240.532 C737.140012,240.556 739.191991,241.347992 740.944,242.908 C742.696009,244.468008 743.703999,246.399988 743.968,248.704 C743.992,248.824001 744.004,248.979999 744.004,249.172 L728.272,252.016 C728.680002,253.456007 729.495994,254.637995 730.72,255.562 C731.944006,256.486005 733.299993,256.936 734.788,256.912 Z M734.572,242.728 C732.771991,242.752 731.230006,243.399994 729.946,244.672 C728.661994,245.944006 727.972,247.467991 727.876,249.244 C727.876,249.316 727.882,249.441999 727.894,249.622 C727.906,249.802001 727.912,249.951999 727.912,250.072 L741.304,247.66 C740.847998,246.195993 739.996006,245.002005 738.748,244.078 C737.499994,243.153995 736.108008,242.704 734.572,242.728 Z M755.012,240.928 L755.012,242.908 L751.484,242.908 L751.484,259 L749.144,259 L749.144,242.908 L747.02,242.908 L747.02,240.928 L749.144,240.928 L749.144,235.708 C749.144,233.211988 750.12799,231.964 752.096,231.964 C752.528002,231.964 752.965998,232 753.41,232.072 C753.854002,232.144 754.183999,232.216 754.4,232.288 L754.724,232.396 L754.22,234.232 C753.739998,234.111999 753.260002,234.052 752.78,234.052 C752.251997,234.052 751.904001,234.225998 751.736,234.574 C751.567999,234.922002 751.484,235.587995 751.484,236.572 L751.484,240.928 L755.012,240.928 Z M767.136,256.912 C768.744008,256.912 770.183994,256.456005 771.456,255.544 C772.728006,254.631995 773.591998,253.564006 774.048,252.34 L776.064,253.06 C775.511997,254.572008 774.438008,255.963994 772.842,257.236 C771.245992,258.508006 769.344011,259.132 767.136,259.108 C765.11999,259.108 763.278008,258.484006 761.61,257.236 C759.941992,255.987994 758.808003,254.39201 758.208,252.448 C757.967999,251.655996 757.848,250.792005 757.848,249.856 C757.848,247.263987 758.747991,245.068009 760.548,243.268 C762.348009,241.467991 764.543987,240.556 767.136,240.532 C769.488012,240.556 771.539991,241.347992 773.292,242.908 C775.044009,244.468008 776.051999,246.399988 776.316,248.704 C776.34,248.824001 776.352,248.979999 776.352,249.172 L760.62,252.016 C761.028002,253.456007 761.843994,254.637995 763.068,255.562 C764.292006,256.486005 765.647993,256.936 767.136,256.912 Z M766.92,242.728 C765.119991,242.752 763.578006,243.399994 762.294,244.672 C761.009994,245.944006 760.32,247.467991 760.224,249.244 C760.224,249.316 760.23,249.441999 760.242,249.622 C760.254,249.802001 760.26,249.951999 760.26,250.072 L773.652,247.66 C773.195998,246.195993 772.344006,245.002005 771.096,244.078 C769.847994,243.153995 768.456008,242.704 766.92,242.728 Z M788.872,240.712 C790.144006,240.712 791.307995,241.023997 792.364,241.648 L791.536,244.024 C790.527995,243.279996 789.508005,242.908 788.476,242.908 C786.963992,242.908 785.692005,243.441995 784.66,244.51 C783.627995,245.578005 783.112,246.891992 783.112,248.452 L783.112,259 L780.736,259 L780.736,241 L783.112,241 L783.112,243.664 C784.576007,241.69599 786.495988,240.712 788.872,240.712 Z M803.336,256.912 C804.944008,256.912 806.383994,256.456005 807.656,255.544 C808.928006,254.631995 809.791998,253.564006 810.248,252.34 L812.264,253.06 C811.711997,254.572008 810.638008,255.963994 809.042,257.236 C807.445992,258.508006 805.544011,259.132 803.336,259.108 C801.31999,259.108 799.478008,258.484006 797.81,257.236 C796.141992,255.987994 795.008003,254.39201 794.408,252.448 C794.167999,251.655996 794.048,250.792005 794.048,249.856 C794.048,247.263987 794.947991,245.068009 796.748,243.268 C798.548009,241.467991 800.743987,240.556 803.336,240.532 C805.688012,240.556 807.739991,241.347992 809.492,242.908 C811.244009,244.468008 812.251999,246.399988 812.516,248.704 C812.54,248.824001 812.552,248.979999 812.552,249.172 L796.82,252.016 C797.228002,253.456007 798.043994,254.637995 799.268,255.562 C800.492006,256.486005 801.847993,256.936 803.336,256.912 Z M803.12,242.728 C801.319991,242.752 799.778006,243.399994 798.494,244.672 C797.209994,245.944006 796.52,247.467991 796.424,249.244 C796.424,249.316 796.43,249.441999 796.442,249.622 C796.454,249.802001 796.46,249.951999 796.46,250.072 L809.852,247.66 C809.395998,246.195993 808.544006,245.002005 807.296,244.078 C806.047994,243.153995 804.656008,242.704 803.12,242.728 Z M825.072,240.712 C827.16001,240.712 828.911993,241.449993 830.328,242.926 C831.744007,244.402007 832.452,246.219989 832.452,248.38 L832.452,259 L830.04,259 L830.04,248.452 C830.04,246.915992 829.518005,245.608005 828.474,244.528 C827.429995,243.447995 826.164007,242.908 824.676,242.908 C823.187993,242.908 821.922005,243.447995 820.878,244.528 C819.833995,245.608005 819.312,246.915992 819.312,248.452 L819.312,259 L816.936,259 L816.936,241 L819.312,241 L819.312,243.664 C820.776007,241.69599 822.695988,240.712 825.072,240.712 Z M846.124,259.288 C843.555987,259.288 841.366009,258.382009 839.554,256.57 C837.741991,254.757991 836.836,252.568013 836.836,250 C836.836,247.431987 837.741991,245.242009 839.554,243.43 C841.366009,241.617991 843.555987,240.712 846.124,240.712 C847.756008,240.712 849.273993,241.113996 850.678,241.918 C852.082007,242.722004 853.191996,243.795993 854.008,245.14 L851.848,246.184 C851.199997,245.199995 850.372005,244.420003 849.364,243.844 C848.355995,243.267997 847.276006,242.98 846.124,242.98 C844.17999,242.98 842.542007,243.657993 841.21,245.014 C839.877993,246.370007 839.212,248.03199 839.212,250 C839.212,251.96801 839.877993,253.629993 841.21,254.986 C842.542007,256.342007 844.17999,257.02 846.124,257.02 C847.276006,257.02 848.355995,256.732003 849.364,256.156 C850.372005,255.579997 851.199997,254.800005 851.848,253.816 L854.008,254.86 C853.191996,256.204007 852.082007,257.277996 850.678,258.082 C849.273993,258.886004 847.756008,259.288 846.124,259.288 Z M866.852,256.912 C868.460008,256.912 869.899994,256.456005 871.172,255.544 C872.444006,254.631995 873.307998,253.564006 873.764,252.34 L875.78,253.06 C875.227997,254.572008 874.154008,255.963994 872.558,257.236 C870.961992,258.508006 869.060011,259.132 866.852,259.108 C864.83599,259.108 862.994008,258.484006 861.326,257.236 C859.657992,255.987994 858.524003,254.39201 857.924,252.448 C857.683999,251.655996 857.564,250.792005 857.564,249.856 C857.564,247.263987 858.463991,245.068009 860.264,243.268 C862.064009,241.467991 864.259987,240.556 866.852,240.532 C869.204012,240.556 871.255991,241.347992 873.008,242.908 C874.760009,244.468008 875.767999,246.399988 876.032,248.704 C876.056,248.824001 876.068,248.979999 876.068,249.172 L860.336,252.016 C860.744002,253.456007 861.559994,254.637995 862.784,255.562 C864.008006,256.486005 865.363993,256.936 866.852,256.912 Z M866.636,242.728 C864.835991,242.752 863.294006,243.399994 862.01,244.672 C860.725994,245.944006 860.036,247.467991 859.94,249.244 C859.94,249.316 859.946,249.441999 859.958,249.622 C859.97,249.802001 859.976,249.951999 859.976,250.072 L873.368,247.66 C872.911998,246.195993 872.060006,245.002005 870.812,244.078 C869.563994,243.153995 868.172008,242.704 866.636,242.728 Z" id="Zener-5V-Voltage-Ref-Copy" fill="#23ABE3"></path>
    </g>
</svg>