<?xml version="1.0" encoding="UTF-8"?>
<svg width="800px" height="280px" viewBox="0 0 800 280" version="1.1" xmlns="http://www.w3.org/2000/svg" xmlns:xlink="http://www.w3.org/1999/xlink">
    <!-- Generator: Sketch 52.5 (67469) - http://www.bohemiancoding.com/sketch -->
    <title>Zener_Voltage_Reference_Circuit</title>
    <desc>Created with Sketch.</desc>
    <g id="Zener_Voltage_Reference_Circuit" stroke="none" stroke-width="1" fill="none" fill-rule="evenodd">
        <rect id="Rectangle" fill="#EEEEEE" x="0" y="0" width="803" height="404"></rect>
        <g id="Circuit" transform="translate(170.000000, 21.000000)">
            <polyline id="Resistor" stroke="#3D3530" stroke-width="3" stroke-linejoin="round" points="139 64 144 64 149 51 159 77 169 51 179 77 189 51 199 77 204 64 209 64"></polyline>
            <g id="DC_Rail" transform="translate(73.500000, 64.000000) rotate(-180.000000) translate(-73.500000, -64.000000) translate(48.000000, 49.000000)" stroke="#3D3530" stroke-width="3">
                <path d="M-5.32907052e-15,15 L50,15" id="Path-2-Copy"></path>
                <path d="M50,-4.26325641e-14 L50,30" id="Path-4"></path>
            </g>
            <g id="Labels">
                <g id="5V-Reference" transform="translate(149.000000, 144.000000)">
                    <rect id="Rectangle" stroke="#3D3530" stroke-width="2" fill="#F8FAE4" x="1" y="1" width="168" height="28" rx="5"></rect>
                    <path d="M19.344,15.536 C19.6000013,15.2159984 19.9839974,14.960001 20.496,14.768 C21.0080026,14.575999 21.5199974,14.48 22.032,14.48 C23.3760067,14.48 24.4839956,14.9599952 25.356,15.92 C26.2280044,16.8800048 26.664,18.063993 26.664,19.472 C26.664,20.8480069 26.1880048,22.0279951 25.236,23.012 C24.2839952,23.9960049 23.1440066,24.488 21.816,24.488 C20.6639942,24.488 19.7240036,24.192003 18.996,23.6 C18.2679964,23.007997 17.904,22.4320028 17.904,21.872 C17.904,21.4399978 18.1279978,21.224 18.576,21.224 C18.784001,21.224 18.9679992,21.3479988 19.128,21.596 C19.2880008,21.8440012 19.4319994,22.1119986 19.56,22.4 C19.6880006,22.6880014 19.947998,22.9559988 20.34,23.204 C20.732002,23.4520012 21.223997,23.576 21.816,23.576 C22.7600047,23.576 23.4719976,23.1960038 23.952,22.436 C24.4320024,21.6759962 24.672,20.6880061 24.672,19.472 C24.672,18.2559939 24.4360024,17.2880036 23.964,16.568 C23.4919976,15.8479964 22.7760048,15.488 21.816,15.488 C20.2639922,15.488 19.3680012,16.2719922 19.128,17.84 L18.24,17.84 L18.984,9.608 L23.04,9.608 C24.0800052,9.608 24.7599984,9.48400124 25.08,9.236 C25.4000016,8.98799876 25.6479991,8.5040036 25.824,7.784 L26.376,7.784 L25.776,11.288 L19.704,11.288 L19.344,15.536 Z M45.072,6.104 C44.1279953,6.104 43.5160014,6.21999884 43.236,6.452 C42.9559986,6.68400116 42.616002,7.26399536 42.216,8.192 L36.936,20.408 L36.624,20.408 L31.32,8.192 C30.919998,7.26399536 30.5800014,6.68400116 30.3,6.452 C30.0199986,6.21999884 29.4080047,6.104 28.464,6.104 L28.464,5.6 L35.112,5.6 L35.112,6.104 C34.119995,6.104 33.4840014,6.2439986 33.204,6.524 C32.9239986,6.8040014 32.9359985,7.27199672 33.24,7.928 L37.32,17.264 L41.352,7.928 C41.6560015,7.27199672 41.6680014,6.8040014 41.388,6.524 C41.1079986,6.2439986 40.472005,6.104 39.48,6.104 L39.48,5.6 L45.072,5.6 L45.072,6.104 Z M59.4,12.824 C60.392005,12.824 61.1479974,12.528003 61.668,11.936 C62.1880026,11.343997 62.448,10.5840046 62.448,9.656 C62.448,8.72799536 62.1880026,7.96800296 61.668,7.376 C61.1479974,6.78399704 60.392005,6.488 59.4,6.488 L57.288,6.488 L57.288,12.824 L59.4,12.824 Z M60.312,13.688 L62.664,16.448 C64.2320078,18.3200094 65.719993,19.3359992 67.128,19.496 L67.128,20 L63.168,20 L58.416,13.688 L57.288,13.688 L57.288,16.688 C57.288,17.888006 57.4199987,18.6559983 57.684,18.992 C57.9480013,19.3280017 58.575995,19.496 59.568,19.496 L59.568,20 L53.088,20 L53.088,19.496 C54.080005,19.496 54.7079987,19.3280017 54.972,18.992 C55.2360013,18.6559983 55.368,17.888006 55.368,16.688 L55.368,8.888 C55.368,7.687994 55.2360013,6.92400164 54.972,6.596 C54.7079987,6.26799836 54.080005,6.104 53.088,6.104 L53.088,5.6 L59.424,5.6 C61.0400081,5.6 62.3039954,5.98399616 63.216,6.752 C64.1280046,7.52000384 64.584,8.48799416 64.584,9.656 C64.584,10.7280054 64.2040038,11.6319963 63.444,12.368 C62.6839962,13.1040037 61.6400066,13.5439993 60.312,13.688 Z M71.472,14.504 L75.456,14.504 C75.6160008,14.0559978 75.5480015,13.6200021 75.252,13.196 C74.9559985,12.7719979 74.4480036,12.56 73.728,12.56 C73.2159974,12.56 72.756002,12.7359982 72.348,13.088 C71.939998,13.4400018 71.6480009,13.911997 71.472,14.504 Z M71.328,15.392 C71.1839993,16.5760059 71.3719974,17.5399963 71.892,18.284 C72.4120026,19.0280037 73.2639941,19.4 74.448,19.4 C74.848002,19.4 75.3039974,19.296001 75.816,19.088 C76.3280026,18.879999 76.7519983,18.6160016 77.088,18.296 L77.52,18.824 C77.0879978,19.2880023 76.5360034,19.6679985 75.864,19.964 C75.1919966,20.2600015 74.5200034,20.408 73.848,20.408 C72.5519935,20.408 71.4880042,19.9800043 70.656,19.124 C69.8239958,18.2679957 69.408,17.2240062 69.408,15.992 C69.408,14.7599938 69.8599955,13.7200042 70.764,12.872 C71.6680045,12.0239958 72.6959942,11.6 73.848,11.6 C74.9360054,11.6 75.8239966,11.9799962 76.512,12.74 C77.2000034,13.5000038 77.4000014,14.383995 77.112,15.392 L71.328,15.392 Z M84.096,12.848 L84.096,16.688 C84.096,17.888006 84.2119988,18.6559983 84.444,18.992 C84.6760012,19.3280017 85.191996,19.496 85.992,19.496 L85.992,20 L80.496,20 L80.496,19.496 C81.296004,19.496 81.8119988,19.3280017 82.044,18.992 C82.2760012,18.6559983 82.392,17.888006 82.392,16.688 L82.392,12.848 L80.424,12.848 L80.424,12.008 L82.392,12.008 L82.392,9.704 C82.392,8.1839924 82.7719962,7.05200372 83.532,6.308 C84.2920038,5.56399628 85.2239945,5.192 86.328,5.192 C87.0640037,5.192 87.6479978,5.37999812 88.08,5.756 C88.5120022,6.13200188 88.728,6.53599784 88.728,6.968 C88.728,7.22400128 88.6600007,7.4319992 88.524,7.592 C88.3879993,7.7520008 88.1920013,7.832 87.936,7.832 C87.6799987,7.832 87.4800007,7.73600096 87.336,7.544 C87.1919993,7.35199904 87.0960002,7.14000116 87.048,6.908 C86.9999998,6.67599884 86.880001,6.46400096 86.688,6.272 C86.495999,6.07999904 86.2320017,5.984 85.896,5.984 C85.2719969,5.984 84.8160014,6.26799716 84.528,6.836 C84.2399986,7.40400284 84.096,8.35999328 84.096,9.704 L84.096,12.008 L86.496,12.008 L86.496,12.848 L84.096,12.848 Z M91.512,14.504 L95.496,14.504 C95.6560008,14.0559978 95.5880015,13.6200021 95.292,13.196 C94.9959985,12.7719979 94.4880036,12.56 93.768,12.56 C93.2559974,12.56 92.796002,12.7359982 92.388,13.088 C91.979998,13.4400018 91.6880009,13.911997 91.512,14.504 Z M91.368,15.392 C91.2239993,16.5760059 91.4119974,17.5399963 91.932,18.284 C92.4520026,19.0280037 93.3039941,19.4 94.488,19.4 C94.888002,19.4 95.3439974,19.296001 95.856,19.088 C96.3680026,18.879999 96.7919983,18.6160016 97.128,18.296 L97.56,18.824 C97.1279978,19.2880023 96.5760034,19.6679985 95.904,19.964 C95.2319966,20.2600015 94.5600034,20.408 93.888,20.408 C92.5919935,20.408 91.5280042,19.9800043 90.696,19.124 C89.8639958,18.2679957 89.448,17.2240062 89.448,15.992 C89.448,14.7599938 89.8999955,13.7200042 90.804,12.872 C91.7080045,12.0239958 92.7359942,11.6 93.888,11.6 C94.9760054,11.6 95.8639966,11.9799962 96.552,12.74 C97.2400034,13.5000038 97.4400014,14.383995 97.152,15.392 L91.368,15.392 Z M108.552,13.088 C108.552,13.8400038 108.232003,14.216 107.592,14.216 C107.367999,14.216 107.172001,14.1280009 107.004,13.952 C106.835999,13.7759991 106.752,13.5760011 106.752,13.352 C106.752,12.8239974 106.496003,12.56 105.984,12.56 C105.615998,12.56 105.216002,12.8159974 104.784,13.328 C104.351998,13.8400026 104.136,14.5199958 104.136,15.368 L104.136,16.688 C104.136,17.888006 104.251999,18.6559983 104.484,18.992 C104.716001,19.3280017 105.231996,19.496 106.032,19.496 L106.032,20 L100.536,20 L100.536,19.496 C101.336004,19.496 101.851999,19.3280017 102.084,18.992 C102.316001,18.6559983 102.432,17.888006 102.432,16.688 L102.432,15.488 C102.432,14.3039941 102.316001,13.5440017 102.084,13.208 C101.851999,12.8719983 101.336004,12.704 100.536,12.704 L100.536,12.2 L103.728,11.6 C103.872001,11.9040015 104.007999,12.4799958 104.136,13.328 C104.376001,12.8479976 104.735998,12.4400017 105.216,12.104 C105.696002,11.7679983 106.175998,11.6 106.656,11.6 C107.264003,11.6 107.731998,11.7599984 108.06,12.08 C108.388002,12.4000016 108.552,12.7359982 108.552,13.088 Z M113.064,14.504 L117.048,14.504 C117.208001,14.0559978 117.140001,13.6200021 116.844,13.196 C116.547999,12.7719979 116.040004,12.56 115.32,12.56 C114.807997,12.56 114.348002,12.7359982 113.94,13.088 C113.531998,13.4400018 113.240001,13.911997 113.064,14.504 Z M112.92,15.392 C112.775999,16.5760059 112.963997,17.5399963 113.484,18.284 C114.004003,19.0280037 114.855994,19.4 116.04,19.4 C116.440002,19.4 116.895997,19.296001 117.408,19.088 C117.920003,18.879999 118.343998,18.6160016 118.68,18.296 L119.112,18.824 C118.679998,19.2880023 118.128003,19.6679985 117.456,19.964 C116.783997,20.2600015 116.112003,20.408 115.44,20.408 C114.143994,20.408 113.080004,19.9800043 112.248,19.124 C111.415996,18.2679957 111,17.2240062 111,15.992 C111,14.7599938 111.451995,13.7200042 112.356,12.872 C113.260005,12.0239958 114.287994,11.6 115.44,11.6 C116.528005,11.6 117.415997,11.9799962 118.104,12.74 C118.792003,13.5000038 118.992001,14.383995 118.704,15.392 L112.92,15.392 Z M125.688,13.328 C126.600005,12.1759942 127.711993,11.6 129.024,11.6 C130.064005,11.6 130.843997,11.9279967 131.364,12.584 C131.884003,13.2400033 132.144,14.1039946 132.144,15.176 L132.144,16.688 C132.144,17.888006 132.259999,18.6559983 132.492,18.992 C132.724001,19.3280017 133.239996,19.496 134.04,19.496 L134.04,20 L128.544,20 L128.544,19.496 C129.328004,19.496 129.839999,19.3240017 130.08,18.98 C130.320001,18.6359983 130.44,17.8720059 130.44,16.688 L130.44,15.296 C130.44,13.5839914 129.776007,12.728 128.448,12.728 C127.759997,12.728 127.128003,12.9679976 126.552,13.448 C125.975997,13.9280024 125.688,14.4879968 125.688,15.128 L125.688,16.688 C125.688,17.9200062 125.783999,18.6959984 125.976,19.016 C126.168001,19.3360016 126.631996,19.496 127.368,19.496 L127.368,20 L122.088,20 L122.088,19.496 C122.888004,19.496 123.403999,19.3280017 123.636,18.992 C123.868001,18.6559983 123.984,17.888006 123.984,16.688 L123.984,15.488 C123.984,14.3039941 123.868001,13.5440017 123.636,13.208 C123.403999,12.8719983 122.888004,12.704 122.088,12.704 L122.088,12.2 L125.28,11.6 C125.424001,11.9040015 125.559999,12.4799958 125.688,13.328 Z M141.096,12.368 C140.455997,12.368 139.912002,12.7359963 139.464,13.472 C139.015998,14.2080037 138.792,15.1199946 138.792,16.208 C138.792,17.200005 139.035998,17.9799972 139.524,18.548 C140.012002,19.1160028 140.735995,19.4 141.696,19.4 C142.624005,19.4 143.479996,19.0320037 144.264,18.296 L144.672,18.824 C143.695995,19.8800053 142.504007,20.408 141.096,20.408 C139.783993,20.408 138.748004,20.0160039 137.988,19.232 C137.227996,18.4479961 136.848,17.4400062 136.848,16.208 C136.848,14.8799934 137.295996,13.7800044 138.192,12.908 C139.088004,12.0359956 140.055995,11.6 141.096,11.6 C142.040005,11.6 142.751998,11.7679983 143.232,12.104 C143.712002,12.4400017 143.952,12.8479976 143.952,13.328 C143.952,13.5840013 143.868001,13.8199989 143.7,14.036 C143.531999,14.2520011 143.264002,14.36 142.896,14.36 C142.639999,14.36 142.420001,14.2680009 142.236,14.084 C142.051999,13.8999991 141.96,13.6720014 141.96,13.4 C141.96,12.7119966 141.672003,12.368 141.096,12.368 Z M149.544,14.504 L153.528,14.504 C153.688001,14.0559978 153.620001,13.6200021 153.324,13.196 C153.027999,12.7719979 152.520004,12.56 151.8,12.56 C151.287997,12.56 150.828002,12.7359982 150.42,13.088 C150.011998,13.4400018 149.720001,13.911997 149.544,14.504 Z M149.4,15.392 C149.255999,16.5760059 149.443997,17.5399963 149.964,18.284 C150.484003,19.0280037 151.335994,19.4 152.52,19.4 C152.920002,19.4 153.375997,19.296001 153.888,19.088 C154.400003,18.879999 154.823998,18.6160016 155.16,18.296 L155.592,18.824 C155.159998,19.2880023 154.608003,19.6679985 153.936,19.964 C153.263997,20.2600015 152.592003,20.408 151.92,20.408 C150.623994,20.408 149.560004,19.9800043 148.728,19.124 C147.895996,18.2679957 147.48,17.2240062 147.48,15.992 C147.48,14.7599938 147.931995,13.7200042 148.836,12.872 C149.740005,12.0239958 150.767994,11.6 151.92,11.6 C153.008005,11.6 153.895997,11.9799962 154.584,12.74 C155.272003,13.5000038 155.472001,14.383995 155.184,15.392 L149.4,15.392 Z" id="5V-Reference-Copy" fill="#1A80AA"></path>
                </g>
                <path d="M248.728,3.488 L244.312,3.488 C243.591996,3.488 243.044002,3.55999928 242.668,3.704 C242.291998,3.84800072 242.036001,4.02799892 241.9,4.244 C241.763999,4.46000108 241.640001,4.8079976 241.528,5.288 L241.408,5.768 L240.904,5.768 L241.12,2.6 L251.344,2.6 L251.344,2.888 L243.064,16.112 L248.464,16.112 C249.184004,16.112 249.731998,16.0400007 250.108,15.896 C250.484002,15.7519993 250.739999,15.5680011 250.876,15.344 C251.012001,15.1199989 251.135999,14.7680024 251.248,14.288 L251.368,13.808 L251.872,13.808 L251.68,17 L240.64,17 L240.64,16.448 L248.728,3.488 Z M257.824,11.504 L261.808,11.504 C261.968001,11.0559978 261.900001,10.6200021 261.604,10.196 C261.307999,9.77199788 260.800004,9.56 260.08,9.56 C259.567997,9.56 259.108002,9.73599824 258.7,10.088 C258.291998,10.4400018 258.000001,10.911997 257.824,11.504 Z M257.68,12.392 C257.535999,13.5760059 257.723997,14.5399963 258.244,15.284 C258.764003,16.0280037 259.615994,16.4 260.8,16.4 C261.200002,16.4 261.655997,16.296001 262.168,16.088 C262.680003,15.879999 263.103998,15.6160016 263.44,15.296 L263.872,15.824 C263.439998,16.2880023 262.888003,16.6679985 262.216,16.964 C261.543997,17.2600015 260.872003,17.408 260.2,17.408 C258.903994,17.408 257.840004,16.9800043 257.008,16.124 C256.175996,15.2679957 255.76,14.2240062 255.76,12.992 C255.76,11.7599938 256.211995,10.7200042 257.116,9.872 C258.020005,9.02399576 259.047994,8.6 260.2,8.6 C261.288005,8.6 262.175997,8.9799962 262.864,9.74 C263.552003,10.5000038 263.752001,11.383995 263.464,12.392 L257.68,12.392 Z M270.448,10.328 C271.360005,9.17599424 272.471993,8.6 273.784,8.6 C274.824005,8.6 275.603997,8.92799672 276.124,9.584 C276.644003,10.2400033 276.904,11.1039946 276.904,12.176 L276.904,13.688 C276.904,14.888006 277.019999,15.6559983 277.252,15.992 C277.484001,16.3280017 277.999996,16.496 278.8,16.496 L278.8,17 L273.304,17 L273.304,16.496 C274.088004,16.496 274.599999,16.3240017 274.84,15.98 C275.080001,15.6359983 275.2,14.8720059 275.2,13.688 L275.2,12.296 C275.2,10.5839914 274.536007,9.728 273.208,9.728 C272.519997,9.728 271.888003,9.9679976 271.312,10.448 C270.735997,10.9280024 270.448,11.4879968 270.448,12.128 L270.448,13.688 C270.448,14.9200062 270.543999,15.6959984 270.736,16.016 C270.928001,16.3360016 271.391996,16.496 272.128,16.496 L272.128,17 L266.848,17 L266.848,16.496 C267.648004,16.496 268.163999,16.3280017 268.396,15.992 C268.628001,15.6559983 268.744,14.888006 268.744,13.688 L268.744,12.488 C268.744,11.3039941 268.628001,10.5440017 268.396,10.208 C268.163999,9.87199832 267.648004,9.704 266.848,9.704 L266.848,9.2 L270.04,8.6 C270.184001,8.90400152 270.319999,9.47999576 270.448,10.328 Z M283.672,11.504 L287.656,11.504 C287.816001,11.0559978 287.748001,10.6200021 287.452,10.196 C287.155999,9.77199788 286.648004,9.56 285.928,9.56 C285.415997,9.56 284.956002,9.73599824 284.548,10.088 C284.139998,10.4400018 283.848001,10.911997 283.672,11.504 Z M283.528,12.392 C283.383999,13.5760059 283.571997,14.5399963 284.092,15.284 C284.612003,16.0280037 285.463994,16.4 286.648,16.4 C287.048002,16.4 287.503997,16.296001 288.016,16.088 C288.528003,15.879999 288.951998,15.6160016 289.288,15.296 L289.72,15.824 C289.287998,16.2880023 288.736003,16.6679985 288.064,16.964 C287.391997,17.2600015 286.720003,17.408 286.048,17.408 C284.751994,17.408 283.688004,16.9800043 282.856,16.124 C282.023996,15.2679957 281.608,14.2240062 281.608,12.992 C281.608,11.7599938 282.059995,10.7200042 282.964,9.872 C283.868005,9.02399576 284.895994,8.6 286.048,8.6 C287.136005,8.6 288.023997,8.9799962 288.712,9.74 C289.400003,10.5000038 289.600001,11.383995 289.312,12.392 L283.528,12.392 Z M300.712,10.088 C300.712,10.8400038 300.392003,11.216 299.752,11.216 C299.527999,11.216 299.332001,11.1280009 299.164,10.952 C298.995999,10.7759991 298.912,10.5760011 298.912,10.352 C298.912,9.82399736 298.656003,9.56 298.144,9.56 C297.775998,9.56 297.376002,9.81599744 296.944,10.328 C296.511998,10.8400026 296.296,11.5199958 296.296,12.368 L296.296,13.688 C296.296,14.888006 296.411999,15.6559983 296.644,15.992 C296.876001,16.3280017 297.391996,16.496 298.192,16.496 L298.192,17 L292.696,17 L292.696,16.496 C293.496004,16.496 294.011999,16.3280017 294.244,15.992 C294.476001,15.6559983 294.592,14.888006 294.592,13.688 L294.592,12.488 C294.592,11.3039941 294.476001,10.5440017 294.244,10.208 C294.011999,9.87199832 293.496004,9.704 292.696,9.704 L292.696,9.2 L295.888,8.6 C296.032001,8.90400152 296.167999,9.47999576 296.296,10.328 C296.536001,9.8479976 296.895998,9.44000168 297.376,9.104 C297.856002,8.76799832 298.335998,8.6 298.816,8.6 C299.424003,8.6 299.891998,8.7599984 300.22,9.08 C300.548002,9.4000016 300.712,9.73599824 300.712,10.088 Z M315.976,11.888 L313.912,17.432 L313.432,17.432 L310.6,10.904 C310.375999,10.3759974 310.140001,10.008001 309.892,9.8 C309.643999,9.59199896 309.336002,9.488 308.968,9.488 L308.968,9.008 L313.312,9.008 L313.312,9.488 C312.319995,9.488 312.031998,9.95999528 312.448,10.904 L314.08,14.648 L316.024,9.008 L316.552,9.008 L319,14.648 L320.296,10.904 C320.632002,9.95999528 320.400004,9.488 319.6,9.488 L319.6,9.008 L322.96,9.008 L322.96,9.488 C322.527998,9.488 322.184001,9.59199896 321.928,9.8 C321.671999,10.008001 321.448001,10.3759974 321.256,10.904 L318.832,17.432 L318.352,17.432 L315.976,11.888 Z M331.912,2.504 L325,17.432 L324.04,17.096 L330.952,2.168 L331.912,2.504 Z M336.352,12.536 C336.608001,12.2159984 336.991997,11.960001 337.504,11.768 C338.016003,11.575999 338.527997,11.48 339.04,11.48 C340.384007,11.48 341.491996,11.9599952 342.364,12.92 C343.236004,13.8800048 343.672,15.063993 343.672,16.472 C343.672,17.8480069 343.196005,19.0279951 342.244,20.012 C341.291995,20.9960049 340.152007,21.488 338.824,21.488 C337.671994,21.488 336.732004,21.192003 336.004,20.6 C335.275996,20.007997 334.912,19.4320028 334.912,18.872 C334.912,18.4399978 335.135998,18.224 335.584,18.224 C335.792001,18.224 335.975999,18.3479988 336.136,18.596 C336.296001,18.8440012 336.439999,19.1119986 336.568,19.4 C336.696001,19.6880014 336.955998,19.9559988 337.348,20.204 C337.740002,20.4520012 338.231997,20.576 338.824,20.576 C339.768005,20.576 340.479998,20.1960038 340.96,19.436 C341.440002,18.6759962 341.68,17.6880061 341.68,16.472 C341.68,15.2559939 341.444002,14.2880036 340.972,13.568 C340.499998,12.8479964 339.784005,12.488 338.824,12.488 C337.271992,12.488 336.376001,13.2719922 336.136,14.84 L335.248,14.84 L335.992,6.608 L340.048,6.608 C341.088005,6.608 341.767998,6.48400124 342.088,6.236 C342.408002,5.98799876 342.655999,5.5040036 342.832,4.784 L343.384,4.784 L342.784,8.288 L336.712,8.288 L336.352,12.536 Z M362.08,3.104 C361.135995,3.104 360.524001,3.21999884 360.244,3.452 C359.963999,3.68400116 359.624002,4.26399536 359.224,5.192 L353.944,17.408 L353.632,17.408 L348.328,5.192 C347.927998,4.26399536 347.588001,3.68400116 347.308,3.452 C347.027999,3.21999884 346.416005,3.104 345.472,3.104 L345.472,2.6 L352.12,2.6 L352.12,3.104 C351.127995,3.104 350.492001,3.2439986 350.212,3.524 C349.931999,3.8040014 349.943998,4.27199672 350.248,4.928 L354.328,14.264 L358.36,4.928 C358.664002,4.27199672 358.676001,3.8040014 358.396,3.524 C358.115999,3.2439986 357.480005,3.104 356.488,3.104 L356.488,2.6 L362.08,2.6 L362.08,3.104 Z M251.116,36.112 C252.108005,36.112 252.867997,35.816003 253.396,35.224 C253.924003,34.631997 254.188,33.8800046 254.188,32.968 C254.188,32.0399954 253.924003,31.276003 253.396,30.676 C252.867997,30.075997 252.108005,29.776 251.116,29.776 L248.212,29.776 L248.212,33.328 C248.212,34.528006 248.343999,35.2919984 248.608,35.62 C248.872001,35.9480016 249.499995,36.112 250.492,36.112 L251.116,36.112 Z M248.212,23.488 L248.212,28.888 L250.348,28.888 C251.212004,28.888 251.867998,28.6360025 252.316,28.132 C252.764002,27.6279975 252.988,26.9840039 252.988,26.2 C252.988,25.4159961 252.764002,24.7680026 252.316,24.256 C251.867998,23.7439974 251.212004,23.488 250.348,23.488 L248.212,23.488 Z M253.228,29.176 C254.156005,29.4640014 254.899997,29.9519966 255.46,30.64 C256.020003,31.3280034 256.3,32.1039957 256.3,32.968 C256.3,34.1360058 255.844005,35.0999962 254.932,35.86 C254.019995,36.6200038 252.756008,37 251.14,37 L244.012,37 L244.012,36.496 C245.004005,36.496 245.631999,36.3280017 245.896,35.992 C246.160001,35.6559983 246.292,34.888006 246.292,33.688 L246.292,25.888 C246.292,24.687994 246.160001,23.9240016 245.896,23.596 C245.631999,23.2679984 245.004005,23.104 244.012,23.104 L244.012,22.6 L250.468,22.6 C251.940007,22.6 253.079996,22.9399966 253.888,23.62 C254.696004,24.3000034 255.1,25.1599948 255.1,26.2 C255.1,27.4480062 254.476006,28.4399963 253.228,29.176 Z M267.82,30.088 C267.82,30.8400038 267.500003,31.216 266.86,31.216 C266.635999,31.216 266.440001,31.1280009 266.272,30.952 C266.103999,30.7759991 266.02,30.5760011 266.02,30.352 C266.02,29.8239974 265.764003,29.56 265.252,29.56 C264.883998,29.56 264.484002,29.8159974 264.052,30.328 C263.619998,30.8400026 263.404,31.5199958 263.404,32.368 L263.404,33.688 C263.404,34.888006 263.519999,35.6559983 263.752,35.992 C263.984001,36.3280017 264.499996,36.496 265.3,36.496 L265.3,37 L259.804,37 L259.804,36.496 C260.604004,36.496 261.119999,36.3280017 261.352,35.992 C261.584001,35.6559983 261.7,34.888006 261.7,33.688 L261.7,32.488 C261.7,31.3039941 261.584001,30.5440017 261.352,30.208 C261.119999,29.8719983 260.604004,29.704 259.804,29.704 L259.804,29.2 L262.996,28.6 C263.140001,28.9040015 263.275999,29.4799958 263.404,30.328 C263.644001,29.8479976 264.003998,29.4400017 264.484,29.104 C264.964002,28.7679983 265.443998,28.6 265.924,28.6 C266.532003,28.6 266.999998,28.7599984 267.328,29.08 C267.656002,29.4000016 267.82,29.7359982 267.82,30.088 Z M272.332,31.504 L276.316,31.504 C276.476001,31.0559978 276.408001,30.6200021 276.112,30.196 C275.815999,29.7719979 275.308004,29.56 274.588,29.56 C274.075997,29.56 273.616002,29.7359982 273.208,30.088 C272.799998,30.4400018 272.508001,30.911997 272.332,31.504 Z M272.188,32.392 C272.043999,33.5760059 272.231997,34.5399963 272.752,35.284 C273.272003,36.0280037 274.123994,36.4 275.308,36.4 C275.708002,36.4 276.163997,36.296001 276.676,36.088 C277.188003,35.879999 277.611998,35.6160016 277.948,35.296 L278.38,35.824 C277.947998,36.2880023 277.396003,36.6679985 276.724,36.964 C276.051997,37.2600015 275.380003,37.408 274.708,37.408 C273.411994,37.408 272.348004,36.9800043 271.516,36.124 C270.683996,35.2679957 270.268,34.2240062 270.268,32.992 C270.268,31.7599938 270.719995,30.7200042 271.624,29.872 C272.528005,29.0239958 273.555994,28.6 274.708,28.6 C275.796005,28.6 276.683997,28.9799962 277.372,29.74 C278.060003,30.5000038 278.260001,31.383995 277.972,32.392 L272.188,32.392 Z M289.732,36.52 C289.267998,37.0160025 288.740003,37.264 288.148,37.264 C287.187995,37.264 286.644001,36.8000046 286.516,35.872 C285.443995,36.8320048 284.444005,37.312 283.516,37.312 C282.907997,37.312 282.396002,37.1320018 281.98,36.772 C281.563998,36.4119982 281.356,35.9200031 281.356,35.296 C281.356,33.6159916 283.059983,32.480003 286.468,31.888 C286.468,30.9439953 286.364001,30.2880018 286.156,29.92 C285.947999,29.5519982 285.516003,29.368 284.86,29.368 C284.539998,29.368 284.232001,29.471999 283.936,29.68 C283.639999,29.888001 283.492,30.1679982 283.492,30.52 C283.492,30.7600012 283.412001,30.9599992 283.252,31.12 C283.091999,31.2800008 282.900001,31.36 282.676,31.36 C282.435999,31.36 282.236001,31.2800008 282.076,31.12 C281.915999,30.9599992 281.836,30.7600012 281.836,30.52 C281.836,29.9599972 282.143997,29.5000018 282.76,29.14 C283.376003,28.7799982 284.083996,28.6 284.884,28.6 C286.052006,28.6 286.891997,28.8559974 287.404,29.368 C287.916003,29.8800026 288.172,30.7119942 288.172,31.864 L288.172,35.488 C288.172,36.1120031 288.355998,36.424 288.724,36.424 C288.932001,36.424 289.155999,36.3040012 289.396,36.064 L289.732,36.52 Z M286.468,35.08 L286.468,32.632 C284.259989,33.1440026 283.156,33.9359946 283.156,35.008 C283.156,35.3760018 283.263999,35.6719989 283.48,35.896 C283.696001,36.1200011 283.963998,36.232 284.284,36.232 C284.876003,36.232 285.603996,35.8480038 286.468,35.08 Z M296.908,32.032 L300.772,35.92 C301.156002,36.3040019 301.627997,36.496 302.188,36.496 L302.188,37 L299.524,37 L295.588,33.088 L295.372,33.256 L295.372,33.688 C295.372,34.888006 295.487999,35.6559983 295.72,35.992 C295.952001,36.3280017 296.467996,36.496 297.268,36.496 L297.268,37 L291.772,37 L291.772,36.496 C292.572004,36.496 293.087999,36.3280017 293.32,35.992 C293.552001,35.6559983 293.668,34.888006 293.668,33.688 L293.668,26.104 C293.668,24.903994 293.552001,24.1360017 293.32,23.8 C293.087999,23.4639983 292.572004,23.296 291.772,23.296 L291.772,22.792 L295.372,22.192 L295.372,32.392 L297.388,30.76 C297.788002,30.4399984 297.916001,30.1480013 297.772,29.884 C297.627999,29.6199987 297.260003,29.488 296.668,29.488 L296.668,29.008 L301.468,29.008 L301.468,29.488 C300.411995,29.5680004 299.572003,29.8559975 298.948,30.352 L296.908,32.032 Z M311.332,34.552 L311.332,31.456 C311.107999,30.8799971 310.780002,30.4200017 310.348,30.076 C309.915998,29.7319983 309.436003,29.56 308.908,29.56 C308.011996,29.56 307.332002,29.8799968 306.868,30.52 C306.403998,31.1600032 306.172,31.983995 306.172,32.992 C306.172,34.0160051 306.403998,34.8479968 306.868,35.488 C307.332002,36.1280032 308.011996,36.448 308.908,36.448 C309.436003,36.448 309.915998,36.2760017 310.348,35.932 C310.780002,35.5879983 311.107999,35.1280029 311.332,34.552 Z M311.332,30.016 L311.332,26.104 C311.332,24.903994 311.216001,24.1360017 310.984,23.8 C310.751999,23.4639983 310.236004,23.296 309.436,23.296 L309.436,22.792 L313.036,22.192 L313.036,33.496 C313.036,34.696006 313.151999,35.4639983 313.384,35.8 C313.616001,36.1360017 314.131996,36.304 314.932,36.304 L314.932,36.808 L311.74,37.408 C311.627999,37.1679988 311.500001,36.6800037 311.356,35.944 C310.571996,36.9200049 309.588006,37.408 308.404,37.408 C307.267994,37.408 306.288004,36.9760043 305.464,36.112 C304.639996,35.2479957 304.228,34.2080061 304.228,32.992 C304.228,31.7759939 304.639996,30.7400043 305.464,29.884 C306.288004,29.0279957 307.267994,28.6 308.404,28.6 C309.588006,28.6 310.563996,29.0719953 311.332,30.016 Z M325.996,29.896 C326.956005,30.7440042 327.436,31.7759939 327.436,32.992 C327.436,34.2080061 326.960005,35.2479957 326.008,36.112 C325.055995,36.9760043 323.916007,37.408 322.588,37.408 C321.259993,37.408 320.120005,36.9760043 319.168,36.112 C318.215995,35.2479957 317.74,34.2080061 317.74,32.992 C317.74,31.7759939 318.215995,30.7400043 319.168,29.884 C320.120005,29.0279957 321.259993,28.6 322.588,28.6 C323.916007,28.6 325.051995,29.0319957 325.996,29.896 Z M324.748,35.512 C325.244002,34.8559967 325.492,34.0160051 325.492,32.992 C325.492,31.9679949 325.244002,31.1320032 324.748,30.484 C324.251998,29.8359968 323.532005,29.512 322.588,29.512 C321.643995,29.512 320.924002,29.8399967 320.428,30.496 C319.931998,31.1520033 319.684,31.983995 319.684,32.992 C319.684,34.000005 319.931998,34.8319967 320.428,35.488 C320.924002,36.1440033 321.643995,36.472 322.588,36.472 C323.532005,36.472 324.251998,36.1520032 324.748,35.512 Z M336.556,31.888 L334.492,37.432 L334.012,37.432 L331.18,30.904 C330.955999,30.3759974 330.720001,30.008001 330.472,29.8 C330.223999,29.591999 329.916002,29.488 329.548,29.488 L329.548,29.008 L333.892,29.008 L333.892,29.488 C332.899995,29.488 332.611998,29.9599953 333.028,30.904 L334.66,34.648 L336.604,29.008 L337.132,29.008 L339.58,34.648 L340.876,30.904 C341.212002,29.9599953 340.980004,29.488 340.18,29.488 L340.18,29.008 L343.54,29.008 L343.54,29.488 C343.107998,29.488 342.764001,29.591999 342.508,29.8 C342.251999,30.008001 342.028001,30.3759974 341.836,30.904 L339.412,37.432 L338.932,37.432 L336.556,31.888 Z M348.892,30.328 C349.804005,29.1759942 350.915993,28.6 352.228,28.6 C353.268005,28.6 354.047997,28.9279967 354.568,29.584 C355.088003,30.2400033 355.348,31.1039946 355.348,32.176 L355.348,33.688 C355.348,34.888006 355.463999,35.6559983 355.696,35.992 C355.928001,36.3280017 356.443996,36.496 357.244,36.496 L357.244,37 L351.748,37 L351.748,36.496 C352.532004,36.496 353.043999,36.3240017 353.284,35.98 C353.524001,35.6359983 353.644,34.8720059 353.644,33.688 L353.644,32.296 C353.644,30.5839914 352.980007,29.728 351.652,29.728 C350.963997,29.728 350.332003,29.9679976 349.756,30.448 C349.179997,30.9280024 348.892,31.4879968 348.892,32.128 L348.892,33.688 C348.892,34.9200062 348.987999,35.6959984 349.18,36.016 C349.372001,36.3360016 349.835996,36.496 350.572,36.496 L350.572,37 L345.292,37 L345.292,36.496 C346.092004,36.496 346.607999,36.3280017 346.84,35.992 C347.072001,35.6559983 347.188,34.888006 347.188,33.688 L347.188,32.488 C347.188,31.3039941 347.072001,30.5440017 346.84,30.208 C346.607999,29.8719983 346.092004,29.704 345.292,29.704 L345.292,29.2 L348.484,28.6 C348.628001,28.9040015 348.763999,29.4799958 348.892,30.328 Z" id="Zener-w/5V-Breakdown-Copy" fill="#1A80AA"></path>
                <path d="M6.024,64.168 L9.792,64.168 L9.792,65.224 L6.024,65.224 L6.024,68.992 L4.968,68.992 L4.968,65.224 L1.2,65.224 L1.2,64.168 L4.968,64.168 L4.968,60.4 L6.024,60.4 L6.024,64.168 Z M23.304,65.968 C23.304,67.3920071 23.108002,68.7359937 22.716,70 C22.323998,71.2640063 21.6960043,72.3279957 20.832,73.192 C19.9679957,74.0560043 18.9520058,74.488 17.784,74.488 C16.8399953,74.488 16.0120036,74.288002 15.3,73.888 C14.5879964,73.487998 14.232,73.0800021 14.232,72.664 C14.232,72.471999 14.3039993,72.3160006 14.448,72.196 C14.5920007,72.0759994 14.7439992,72.016 14.904,72.016 C15.0640008,72.016 15.2319991,72.1039991 15.408,72.28 C15.5840009,72.4560009 15.7559992,72.647999 15.924,72.856 C16.0920008,73.064001 16.3399984,73.2559991 16.668,73.432 C16.9960016,73.6080009 17.359998,73.696 17.76,73.696 C19.9200108,73.696 21.095999,71.392023 21.288,66.784 C20.5839965,67.7280047 19.632006,68.2 18.432,68.2 C17.1039934,68.2 15.9640048,67.7600044 15.012,66.88 C14.0599952,65.9999956 13.584,64.9360062 13.584,63.688 C13.584,62.4559938 14.0599952,61.4000044 15.012,60.52 C15.9640048,59.6399956 17.1039934,59.2 18.432,59.2 C18.832002,59.2 19.235998,59.2519995 19.644,59.356 C20.052002,59.4600005 20.4799978,59.6679984 20.928,59.98 C21.3760022,60.2920016 21.7719983,60.6879976 22.116,61.168 C22.4600017,61.6480024 22.7439989,62.3039958 22.968,63.136 C23.1920011,63.9680042 23.304,64.9119947 23.304,65.968 Z M21.312,65.464 C21.2799998,64.3599945 21.1560011,63.4280038 20.94,62.668 C20.7239989,61.9079962 20.4560016,61.3640016 20.136,61.036 C19.8159984,60.7079984 19.5200014,60.4800006 19.248,60.352 C18.9759986,60.2239994 18.7040014,60.16 18.432,60.16 C17.4559951,60.16 16.7360023,60.5039966 16.272,61.192 C15.8079977,61.8800034 15.576,62.719995 15.576,63.712 C15.576,64.704005 15.8079977,65.5399966 16.272,66.22 C16.7360023,66.9000034 17.4559951,67.24 18.432,67.24 C19.1200034,67.24 19.7359973,67.0680017 20.28,66.724 C20.8240027,66.3799983 21.1679993,65.9600025 21.312,65.464 Z M41.688,56.104 C40.7439953,56.104 40.1320014,56.2199988 39.852,56.452 C39.5719986,56.6840012 39.232002,57.2639954 38.832,58.192 L33.552,70.408 L33.24,70.408 L27.936,58.192 C27.535998,57.2639954 27.1960014,56.6840012 26.916,56.452 C26.6359986,56.2199988 26.0240047,56.104 25.08,56.104 L25.08,55.6 L31.728,55.6 L31.728,56.104 C30.735995,56.104 30.1000014,56.2439986 29.82,56.524 C29.5399986,56.8040014 29.5519985,57.2719967 29.856,57.928 L33.936,67.264 L37.968,57.928 C38.2720015,57.2719967 38.2840014,56.8040014 38.004,56.524 C37.7239986,56.2439986 37.088005,56.104 36.096,56.104 L36.096,55.6 L41.688,55.6 L41.688,56.104 Z" id="+9V-Copy" fill="#524740"></path>
            </g>
            <g id="Wiring" transform="translate(99.000000, 59.000000)">
                <circle id="Connection" fill="#3D3530" cx="135" cy="5" r="5"></circle>
                <path d="M110,5 L160,5" id="Path-5" stroke="#3D3530" stroke-width="2"></path>
                <path d="M0,5 L40,5" id="Path-5-Copy" stroke="#3D3530" stroke-width="2"></path>
                <path d="M230,5 L270,5" id="Path-5-Copy-2" stroke="#3D3530" stroke-width="2"></path>
                <path d="M135,5 L135,85" id="Path-10" stroke="#3D3530" stroke-width="2"></path>
            </g>
            <g id="Zener_Diode" transform="translate(294.000000, 64.000000) rotate(-180.000000) translate(-294.000000, -64.000000) translate(259.000000, 48.000000)">
                <polygon id="Path-2" fill="#3D3530" points="24.5 3 44 16 24.5 29"></polygon>
                <path d="M44,16 L70,16" id="Path-2-Copy" stroke="#3D3530" stroke-width="3"></path>
                <path d="M0,16 L24.5,16" id="Path-3" stroke="#3D3530" stroke-width="3"></path>
                <polyline id="Path" stroke="#3D3530" stroke-width="3" stroke-linejoin="round" points="40 0 44 4 44 28 48 32"></polyline>
            </g>
            <g id="Ground" transform="translate(406.500000, 64.000000) rotate(-180.000000) translate(-406.500000, -64.000000) translate(369.000000, 31.000000)" stroke="#3D3530" stroke-width="3">
                <path d="M25,33 L75,33" id="Path-2-Copy"></path>
                <path d="M13,13 L13,53" id="Path-4"></path>
                <path d="M1,27 L1,39" id="Path-4-Copy"></path>
                <path d="M25,0 L25,66" id="Path-3-Copy"></path>
            </g>
        </g>
        <text id="Zener-5V-Voltage-Ref" font-family="Wavehaus-66Book, Wavehaus" font-size="36" font-weight="300" letter-spacing="1" fill="#23ABE3">
            <tspan x="152.204" y="246">Zener 5V Voltage Reference</tspan>
        </text>
        <path d="M171.536,221.808 L171.536,223.392 L157.856,243.768 L171.536,243.768 L171.536,246 L154.832,246 L154.832,244.416 L168.512,224.04 L154.832,224.04 L154.832,221.808 L171.536,221.808 Z M185.712,243.912 C187.320008,243.912 188.759994,243.456005 190.032,242.544 C191.304006,241.631995 192.167998,240.564006 192.624,239.34 L194.64,240.06 C194.087997,241.572008 193.014008,242.963994 191.418,244.236 C189.821992,245.508006 187.920011,246.132 185.712,246.108 C183.69599,246.108 181.854008,245.484006 180.186,244.236 C178.517992,242.987994 177.384003,241.39201 176.784,239.448 C176.543999,238.655996 176.424,237.792005 176.424,236.856 C176.424,234.263987 177.323991,232.068009 179.124,230.268 C180.924009,228.467991 183.119987,227.556 185.712,227.532 C188.064012,227.556 190.115991,228.347992 191.868,229.908 C193.620009,231.468008 194.627999,233.399988 194.892,235.704 C194.916,235.824001 194.928,235.979999 194.928,236.172 L179.196,239.016 C179.604002,240.456007 180.419994,241.637995 181.644,242.562 C182.868006,243.486005 184.223993,243.936 185.712,243.912 Z M185.496,229.728 C183.695991,229.752 182.154006,230.399994 180.87,231.672 C179.585994,232.944006 178.896,234.467991 178.8,236.244 C178.8,236.316 178.806,236.441999 178.818,236.622 C178.83,236.802001 178.836,236.951999 178.836,237.072 L192.228,234.66 C191.771998,233.195993 190.920006,232.002005 189.672,231.078 C188.423994,230.153995 187.032008,229.704 185.496,229.728 Z M207.448,227.712 C209.53601,227.712 211.287993,228.449993 212.704,229.926 C214.120007,231.402007 214.828,233.219989 214.828,235.38 L214.828,246 L212.416,246 L212.416,235.452 C212.416,233.915992 211.894005,232.608005 210.85,231.528 C209.805995,230.447995 208.540007,229.908 207.052,229.908 C205.563993,229.908 204.298005,230.447995 203.254,231.528 C202.209995,232.608005 201.688,233.915992 201.688,235.452 L201.688,246 L199.312,246 L199.312,228 L201.688,228 L201.688,230.664 C203.152007,228.69599 205.071988,227.712 207.448,227.712 Z M228.5,243.912 C230.108008,243.912 231.547994,243.456005 232.82,242.544 C234.092006,241.631995 234.955998,240.564006 235.412,239.34 L237.428,240.06 C236.875997,241.572008 235.802008,242.963994 234.206,244.236 C232.609992,245.508006 230.708011,246.132 228.5,246.108 C226.48399,246.108 224.642008,245.484006 222.974,244.236 C221.305992,242.987994 220.172003,241.39201 219.572,239.448 C219.331999,238.655996 219.212,237.792005 219.212,236.856 C219.212,234.263987 220.111991,232.068009 221.912,230.268 C223.712009,228.467991 225.907987,227.556 228.5,227.532 C230.852012,227.556 232.903991,228.347992 234.656,229.908 C236.408009,231.468008 237.415999,233.399988 237.68,235.704 C237.704,235.824001 237.716,235.979999 237.716,236.172 L221.984,239.016 C222.392002,240.456007 223.207994,241.637995 224.432,242.562 C225.656006,243.486005 227.011993,243.936 228.5,243.912 Z M228.284,229.728 C226.483991,229.752 224.942006,230.399994 223.658,231.672 C222.373994,232.944006 221.684,234.467991 221.588,236.244 C221.588,236.316 221.594,236.441999 221.606,236.622 C221.618,236.802001 221.624,236.951999 221.624,237.072 L235.016,234.66 C234.559998,233.195993 233.708006,232.002005 232.46,231.078 C231.211994,230.153995 229.820008,229.704 228.284,229.728 Z M250.236,227.712 C251.508006,227.712 252.671995,228.023997 253.728,228.648 L252.9,231.024 C251.891995,230.279996 250.872005,229.908 249.84,229.908 C248.327992,229.908 247.056005,230.441995 246.024,231.51 C244.991995,232.578005 244.476,233.891992 244.476,235.452 L244.476,246 L242.1,246 L242.1,228 L244.476,228 L244.476,230.664 C245.940007,228.69599 247.859988,227.712 250.236,227.712 Z M276.68,246.288 C274.903991,246.288 273.260008,245.784005 271.748,244.776 C270.235992,243.767995 269.228003,242.592007 268.724,241.248 L270.812,240.24 C271.076001,241.080004 271.771994,241.919996 272.9,242.76 C274.028006,243.600004 275.287993,244.02 276.68,244.02 C278.288008,244.02 279.685994,243.510005 280.874,242.49 C282.062006,241.469995 282.656,240.108009 282.656,238.404 C282.656,236.651991 282.080006,235.224006 280.928,234.12 C279.775994,233.015994 278.432008,232.464 276.896,232.464 C275.599994,232.464 274.382006,232.709998 273.242,233.202 C272.101994,233.694002 271.364002,234.155998 271.028,234.588 L269.012,233.76 L269.012,221.808 L284.456,221.808 L284.456,224.184 L271.388,224.184 L271.388,231.6 C272.780007,230.663995 274.615989,230.196 276.896,230.196 C279.128011,230.196 281.041992,230.945992 282.638,232.446 C284.234008,233.946008 285.032,235.919988 285.032,238.368 C285.032,240.816012 284.240008,242.747993 282.656,244.164 C281.071992,245.580007 279.080012,246.288 276.68,246.288 Z M309.108,221.808 L311.52,221.808 L301.98,246 L299.568,246 L289.992,221.808 L292.44,221.808 L300.792,242.94 L309.108,221.808 Z M345.092,221.808 L347.504,221.808 L337.964,246 L335.552,246 L325.976,221.808 L328.424,221.808 L336.776,242.94 L345.092,221.808 Z M363.552,243.552 C361.751991,245.376009 359.568013,246.288 357,246.288 C354.431987,246.288 352.242009,245.382009 350.43,243.57 C348.617991,241.757991 347.712,239.568013 347.712,237 C347.712,234.431987 348.617991,232.242009 350.43,230.43 C352.242009,228.617991 354.431987,227.712 357,227.712 C359.568013,227.712 361.757991,228.617991 363.57,230.43 C365.382009,232.242009 366.288,234.431987 366.288,237 C366.288,239.544013 365.376009,241.727991 363.552,243.552 Z M357.036,244.02 C358.98001,244.02 360.617993,243.342007 361.95,241.986 C363.282007,240.629993 363.948,238.96801 363.948,237 C363.948,235.03199 363.282007,233.364007 361.95,231.996 C360.617993,230.627993 358.98001,229.944 357.036,229.944 C355.11599,229.944 353.484007,230.627993 352.14,231.996 C350.795993,233.364007 350.124,235.03199 350.124,237 C350.124,238.96801 350.795993,240.629993 352.14,241.986 C353.484007,243.342007 355.11599,244.02 357.036,244.02 Z M371.212,246 L371.212,219.216 L373.588,219.216 L373.588,246 L371.212,246 Z M389.816,241.968 L391.004,243.804 C390.859999,243.996001 390.668001,244.223999 390.428,244.488 C390.187999,244.752001 389.648004,245.117998 388.808,245.586 C387.967996,246.054002 387.104004,246.288 386.216,246.288 C384.703992,246.288 383.438005,245.838005 382.418,244.938 C381.397995,244.037995 380.888,242.736009 380.888,241.032 L380.888,230.16 L378.008,230.16 L378.008,227.964 L380.888,227.964 L380.888,222.276 L383.264,221.988 L383.264,227.964 L388.7,227.964 L388.7,230.16 L383.264,230.16 L383.264,240.492 C383.264,241.596006 383.605997,242.471997 384.29,243.12 C384.974003,243.768003 385.759996,244.092 386.648,244.092 C387.200003,244.092 387.739997,243.924002 388.268,243.588 C388.796003,243.251998 389.185999,242.922002 389.438,242.598 C389.690001,242.273998 389.816,242.064 389.816,241.968 Z M409.5,228 L411.876,228 L411.876,246 L409.5,246 L409.5,243.084 C407.651991,245.220011 405.312014,246.288 402.48,246.288 C399.911987,246.288 397.722009,245.382009 395.91,243.57 C394.097991,241.757991 393.192,239.568013 393.192,237 C393.192,234.431987 394.097991,232.242009 395.91,230.43 C397.722009,228.617991 399.911987,227.712 402.48,227.712 C405.336014,227.712 407.675991,228.779989 409.5,230.916 L409.5,228 Z M402.516,244.02 C404.46001,244.02 406.097993,243.342007 407.43,241.986 C408.762007,240.629993 409.428,238.96801 409.428,237 C409.428,235.03199 408.762007,233.370007 407.43,232.014 C406.097993,230.657993 404.46001,229.98 402.516,229.98 C400.59599,229.98 398.958007,230.657993 397.602,232.014 C396.245993,233.370007 395.568,235.03199 395.568,237 C395.568,238.96801 396.245993,240.629993 397.602,241.986 C398.958007,243.342007 400.59599,244.02 402.516,244.02 Z M433.072,228.036 L435.484,228.036 L435.484,244.452 C435.46,247.068013 434.518009,249.257991 432.658,251.022 C430.797991,252.786009 428.644012,253.668 426.196,253.668 C423.963989,253.668 422.062008,253.074006 420.49,251.886 C418.917992,250.697994 417.856003,249.360007 417.304,247.872 L419.248,246.9 C419.704002,248.124006 420.567994,249.191995 421.84,250.104 C423.112006,251.016005 424.563992,251.472 426.196,251.472 C428.11601,251.472 429.741993,250.770007 431.074,249.366 C432.406007,247.961993 433.084,246.324009 433.108,244.452 L433.072,244.452 L433.072,243.12 C431.247991,245.256011 428.908014,246.324 426.052,246.324 C423.483987,246.324 421.294009,245.418009 419.482,243.606 C417.669991,241.793991 416.764,239.604013 416.764,237.036 C416.764,234.467987 417.669991,232.278009 419.482,230.466 C421.294009,228.653991 423.483987,227.748 426.052,227.748 C428.884014,227.748 431.223991,228.815989 433.072,230.952 L433.072,228.036 Z M426.088,244.092 C428.03201,244.092 429.669993,243.414007 431.002,242.058 C432.334007,240.701993 433,239.04001 433,237.072 C433,235.10399 432.334007,233.442007 431.002,232.086 C429.669993,230.729993 428.03201,230.052 426.088,230.052 C424.16799,230.052 422.536007,230.729993 421.192,232.086 C419.847993,233.442007 419.176,235.10399 419.176,237.072 C419.176,239.04001 419.847993,240.701993 421.192,242.058 C422.536007,243.414007 424.16799,244.092 426.088,244.092 Z M449.696,243.912 C451.304008,243.912 452.743994,243.456005 454.016,242.544 C455.288006,241.631995 456.151998,240.564006 456.608,239.34 L458.624,240.06 C458.071997,241.572008 456.998008,242.963994 455.402,244.236 C453.805992,245.508006 451.904011,246.132 449.696,246.108 C447.67999,246.108 445.838008,245.484006 444.17,244.236 C442.501992,242.987994 441.368003,241.39201 440.768,239.448 C440.527999,238.655996 440.408,237.792005 440.408,236.856 C440.408,234.263987 441.307991,232.068009 443.108,230.268 C444.908009,228.467991 447.103987,227.556 449.696,227.532 C452.048012,227.556 454.099991,228.347992 455.852,229.908 C457.604009,231.468008 458.611999,233.399988 458.876,235.704 C458.9,235.824001 458.912,235.979999 458.912,236.172 L443.18,239.016 C443.588002,240.456007 444.403994,241.637995 445.628,242.562 C446.852006,243.486005 448.207993,243.936 449.696,243.912 Z M449.48,229.728 C447.679991,229.752 446.138006,230.399994 444.854,231.672 C443.569994,232.944006 442.88,234.467991 442.784,236.244 C442.784,236.316 442.79,236.441999 442.802,236.622 C442.814,236.802001 442.82,236.951999 442.82,237.072 L456.212,234.66 C455.755998,233.195993 454.904006,232.002005 453.656,231.078 C452.407994,230.153995 451.016008,229.704 449.48,229.728 Z M475.024,246 L475.024,221.808 L483.232,221.808 C485.944014,221.808 488.103992,222.521993 489.712,223.95 C491.320008,225.378007 492.124,227.171989 492.124,229.332 C492.124,230.940008 491.650005,232.367994 490.702,233.616 C489.753995,234.864006 488.428009,235.751997 486.724,236.28 L492.124,246 L489.64,246 L484.492,236.784 L483.016,236.856 L477.4,236.856 L477.4,246 L475.024,246 Z M477.4,234.588 L483.232,234.588 C485.17601,234.588 486.735994,234.090005 487.912,233.094 C489.088006,232.097995 489.676,230.844008 489.676,229.332 C489.676,227.843993 489.088006,226.596005 487.912,225.588 C486.735994,224.579995 485.17601,224.076 483.232,224.076 L477.4,224.076 L477.4,234.588 Z M504.788,243.912 C506.396008,243.912 507.835994,243.456005 509.108,242.544 C510.380006,241.631995 511.243998,240.564006 511.7,239.34 L513.716,240.06 C513.163997,241.572008 512.090008,242.963994 510.494,244.236 C508.897992,245.508006 506.996011,246.132 504.788,246.108 C502.77199,246.108 500.930008,245.484006 499.262,244.236 C497.593992,242.987994 496.460003,241.39201 495.86,239.448 C495.619999,238.655996 495.5,237.792005 495.5,236.856 C495.5,234.263987 496.399991,232.068009 498.2,230.268 C500.000009,228.467991 502.195987,227.556 504.788,227.532 C507.140012,227.556 509.191991,228.347992 510.944,229.908 C512.696009,231.468008 513.703999,233.399988 513.968,235.704 C513.992,235.824001 514.004,235.979999 514.004,236.172 L498.272,239.016 C498.680002,240.456007 499.495994,241.637995 500.72,242.562 C501.944006,243.486005 503.299993,243.936 504.788,243.912 Z M504.572,229.728 C502.771991,229.752 501.230006,230.399994 499.946,231.672 C498.661994,232.944006 497.972,234.467991 497.876,236.244 C497.876,236.316 497.882,236.441999 497.894,236.622 C497.906,236.802001 497.912,236.951999 497.912,237.072 L511.304,234.66 C510.847998,233.195993 509.996006,232.002005 508.748,231.078 C507.499994,230.153995 506.108008,229.704 504.572,229.728 Z M525.012,227.928 L525.012,229.908 L521.484,229.908 L521.484,246 L519.144,246 L519.144,229.908 L517.02,229.908 L517.02,227.928 L519.144,227.928 L519.144,222.708 C519.144,220.211988 520.12799,218.964 522.096,218.964 C522.528002,218.964 522.965998,219 523.41,219.072 C523.854002,219.144 524.183999,219.216 524.4,219.288 L524.724,219.396 L524.22,221.232 C523.739998,221.111999 523.260002,221.052 522.78,221.052 C522.251997,221.052 521.904001,221.225998 521.736,221.574 C521.567999,221.922002 521.484,222.587995 521.484,223.572 L521.484,227.928 L525.012,227.928 Z M537.136,243.912 C538.744008,243.912 540.183994,243.456005 541.456,242.544 C542.728006,241.631995 543.591998,240.564006 544.048,239.34 L546.064,240.06 C545.511997,241.572008 544.438008,242.963994 542.842,244.236 C541.245992,245.508006 539.344011,246.132 537.136,246.108 C535.11999,246.108 533.278008,245.484006 531.61,244.236 C529.941992,242.987994 528.808003,241.39201 528.208,239.448 C527.967999,238.655996 527.848,237.792005 527.848,236.856 C527.848,234.263987 528.747991,232.068009 530.548,230.268 C532.348009,228.467991 534.543987,227.556 537.136,227.532 C539.488012,227.556 541.539991,228.347992 543.292,229.908 C545.044009,231.468008 546.051999,233.399988 546.316,235.704 C546.34,235.824001 546.352,235.979999 546.352,236.172 L530.62,239.016 C531.028002,240.456007 531.843994,241.637995 533.068,242.562 C534.292006,243.486005 535.647993,243.936 537.136,243.912 Z M536.92,229.728 C535.119991,229.752 533.578006,230.399994 532.294,231.672 C531.009994,232.944006 530.32,234.467991 530.224,236.244 C530.224,236.316 530.23,236.441999 530.242,236.622 C530.254,236.802001 530.26,236.951999 530.26,237.072 L543.652,234.66 C543.195998,233.195993 542.344006,232.002005 541.096,231.078 C539.847994,230.153995 538.456008,229.704 536.92,229.728 Z M558.872,227.712 C560.144006,227.712 561.307995,228.023997 562.364,228.648 L561.536,231.024 C560.527995,230.279996 559.508005,229.908 558.476,229.908 C556.963992,229.908 555.692005,230.441995 554.66,231.51 C553.627995,232.578005 553.112,233.891992 553.112,235.452 L553.112,246 L550.736,246 L550.736,228 L553.112,228 L553.112,230.664 C554.576007,228.69599 556.495988,227.712 558.872,227.712 Z M573.336,243.912 C574.944008,243.912 576.383994,243.456005 577.656,242.544 C578.928006,241.631995 579.791998,240.564006 580.248,239.34 L582.264,240.06 C581.711997,241.572008 580.638008,242.963994 579.042,244.236 C577.445992,245.508006 575.544011,246.132 573.336,246.108 C571.31999,246.108 569.478008,245.484006 567.81,244.236 C566.141992,242.987994 565.008003,241.39201 564.408,239.448 C564.167999,238.655996 564.048,237.792005 564.048,236.856 C564.048,234.263987 564.947991,232.068009 566.748,230.268 C568.548009,228.467991 570.743987,227.556 573.336,227.532 C575.688012,227.556 577.739991,228.347992 579.492,229.908 C581.244009,231.468008 582.251999,233.399988 582.516,235.704 C582.54,235.824001 582.552,235.979999 582.552,236.172 L566.82,239.016 C567.228002,240.456007 568.043994,241.637995 569.268,242.562 C570.492006,243.486005 571.847993,243.936 573.336,243.912 Z M573.12,229.728 C571.319991,229.752 569.778006,230.399994 568.494,231.672 C567.209994,232.944006 566.52,234.467991 566.424,236.244 C566.424,236.316 566.43,236.441999 566.442,236.622 C566.454,236.802001 566.46,236.951999 566.46,237.072 L579.852,234.66 C579.395998,233.195993 578.544006,232.002005 577.296,231.078 C576.047994,230.153995 574.656008,229.704 573.12,229.728 Z M595.072,227.712 C597.16001,227.712 598.911993,228.449993 600.328,229.926 C601.744007,231.402007 602.452,233.219989 602.452,235.38 L602.452,246 L600.04,246 L600.04,235.452 C600.04,233.915992 599.518005,232.608005 598.474,231.528 C597.429995,230.447995 596.164007,229.908 594.676,229.908 C593.187993,229.908 591.922005,230.447995 590.878,231.528 C589.833995,232.608005 589.312,233.915992 589.312,235.452 L589.312,246 L586.936,246 L586.936,228 L589.312,228 L589.312,230.664 C590.776007,228.69599 592.695988,227.712 595.072,227.712 Z M616.124,246.288 C613.555987,246.288 611.366009,245.382009 609.554,243.57 C607.741991,241.757991 606.836,239.568013 606.836,237 C606.836,234.431987 607.741991,232.242009 609.554,230.43 C611.366009,228.617991 613.555987,227.712 616.124,227.712 C617.756008,227.712 619.273993,228.113996 620.678,228.918 C622.082007,229.722004 623.191996,230.795993 624.008,232.14 L621.848,233.184 C621.199997,232.199995 620.372005,231.420003 619.364,230.844 C618.355995,230.267997 617.276006,229.98 616.124,229.98 C614.17999,229.98 612.542007,230.657993 611.21,232.014 C609.877993,233.370007 609.212,235.03199 609.212,237 C609.212,238.96801 609.877993,240.629993 611.21,241.986 C612.542007,243.342007 614.17999,244.02 616.124,244.02 C617.276006,244.02 618.355995,243.732003 619.364,243.156 C620.372005,242.579997 621.199997,241.800005 621.848,240.816 L624.008,241.86 C623.191996,243.204007 622.082007,244.277996 620.678,245.082 C619.273993,245.886004 617.756008,246.288 616.124,246.288 Z M636.852,243.912 C638.460008,243.912 639.899994,243.456005 641.172,242.544 C642.444006,241.631995 643.307998,240.564006 643.764,239.34 L645.78,240.06 C645.227997,241.572008 644.154008,242.963994 642.558,244.236 C640.961992,245.508006 639.060011,246.132 636.852,246.108 C634.83599,246.108 632.994008,245.484006 631.326,244.236 C629.657992,242.987994 628.524003,241.39201 627.924,239.448 C627.683999,238.655996 627.564,237.792005 627.564,236.856 C627.564,234.263987 628.463991,232.068009 630.264,230.268 C632.064009,228.467991 634.259987,227.556 636.852,227.532 C639.204012,227.556 641.255991,228.347992 643.008,229.908 C644.760009,231.468008 645.767999,233.399988 646.032,235.704 C646.056,235.824001 646.068,235.979999 646.068,236.172 L630.336,239.016 C630.744002,240.456007 631.559994,241.637995 632.784,242.562 C634.008006,243.486005 635.363993,243.936 636.852,243.912 Z M636.636,229.728 C634.835991,229.752 633.294006,230.399994 632.01,231.672 C630.725994,232.944006 630.036,234.467991 629.94,236.244 C629.94,236.316 629.946,236.441999 629.958,236.622 C629.97,236.802001 629.976,236.951999 629.976,237.072 L643.368,234.66 C642.911998,233.195993 642.060006,232.002005 640.812,231.078 C639.563994,230.153995 638.172008,229.704 636.636,229.728 Z" id="Zener-5V-Voltage-Ref-Copy" fill="#23ABE3"></path>
    </g>
</svg>