<?xml version="1.0" encoding="UTF-8"?>
<svg width="200px" height="200px" viewBox="0 0 200 200" version="1.1" xmlns="http://www.w3.org/2000/svg" xmlns:xlink="http://www.w3.org/1999/xlink">
    <!-- Generator: Sketch 60.1 (88133) - https://sketch.com -->
    <title>DC_Power</title>
    <desc>Created with Sketch.</desc>
    <g id="DC_Power" stroke="none" stroke-width="1" fill="none" fill-rule="evenodd">
        <g id="Circuit_Symbol_Frame">
            <rect id="Rectangle" stroke="#3D3530" stroke-width="2" fill="#EEEEEE" x="1" y="1" width="198" height="198"></rect>
            <rect id="Rectangle-Copy" stroke="#3D3530" stroke-width="2" fill="#F8FAE4" x="1" y="156" width="198" height="43"></rect>
            <path d="M76.2106664,184 C78.8506664,184 80.9586664,183.228 82.5346664,181.684 C84.1106664,180.14 84.8986664,178.224 84.8986664,175.936 C84.8986664,173.632 84.1146664,171.712 82.5466664,170.176 C80.9786664,168.64 78.8666664,167.872 76.2106664,167.872 L76.2106664,167.872 L72.5626664,167.872 L72.5626664,184 L76.2106664,184 Z M76.2106664,182.488 L74.1466664,182.488 L74.1466664,169.384 L76.2106664,169.384 C78.3226664,169.384 80.0106664,170.004 81.2746664,171.244 C82.5386664,172.484 83.1706664,174.048 83.1706664,175.936 C83.1706664,177.824 82.5386664,179.388 81.2746664,180.628 C80.0106664,181.868 78.3226664,182.488 76.2106664,182.488 L76.2106664,182.488 Z M95.4533331,184.192 C97.0213331,184.192 98.3853331,183.836 99.5453331,183.124 C100.705333,182.412 101.605333,181.432 102.245333,180.184 L102.245333,180.184 L100.757333,179.296 C100.261333,180.336 99.5533331,181.164 98.6333331,181.78 C97.7133331,182.396 96.6533331,182.704 95.4533331,182.704 C93.6293331,182.704 92.1693331,182.064 91.0733331,180.784 C89.9773331,179.504 89.4293331,177.896 89.4293331,175.96 C89.4293331,174.008 89.9773331,172.396 91.0733331,171.124 C92.1693331,169.852 93.6293331,169.216 95.4533331,169.216 C96.6373331,169.216 97.6893331,169.52 98.6093331,170.128 C99.5293331,170.736 100.245333,171.56 100.757333,172.6 L100.757333,172.6 L102.245333,171.736 C101.605333,170.488 100.705333,169.504 99.5453331,168.784 C98.3853331,168.064 97.0213331,167.704 95.4533331,167.704 C93.0853331,167.704 91.1973331,168.492 89.7893331,170.068 C88.3813331,171.644 87.6773331,173.608 87.6773331,175.96 C87.6773331,178.296 88.3813331,180.252 89.7893331,181.828 C91.1973331,183.404 93.0853331,184.192 95.4533331,184.192 Z M114.546666,184 L114.546666,177.904 L118.434666,177.904 C120.242666,177.904 121.682666,177.424 122.754666,176.464 C123.826666,175.504 124.362666,174.312 124.362666,172.888 C124.362666,171.448 123.826666,170.252 122.754666,169.3 C121.682666,168.348 120.242666,167.872 118.434666,167.872 L118.434666,167.872 L112.962666,167.872 L112.962666,184 L114.546666,184 Z M118.434666,176.392 L114.546666,176.392 L114.546666,169.384 L118.434666,169.384 C119.730666,169.384 120.770666,169.72 121.554666,170.392 C122.338666,171.064 122.730666,171.896 122.730666,172.888 C122.730666,173.896 122.338666,174.732 121.554666,175.396 C120.770666,176.06 119.730666,176.392 118.434666,176.392 L118.434666,176.392 Z M132.397333,184.192 C134.109333,184.192 135.565333,183.584 136.765333,182.368 C137.981333,181.152 138.589333,179.696 138.589333,178 C138.589333,176.288 137.985333,174.828 136.777333,173.62 C135.569333,172.412 134.109333,171.808 132.397333,171.808 C130.685333,171.808 129.225333,172.412 128.017333,173.62 C126.809333,174.828 126.205333,176.288 126.205333,178 C126.205333,179.712 126.809333,181.172 128.017333,182.38 C129.225333,183.588 130.685333,184.192 132.397333,184.192 Z M132.421333,182.68 C131.141333,182.68 130.053333,182.228 129.157333,181.324 C128.261333,180.42 127.813333,179.312 127.813333,178 C127.813333,176.688 128.261333,175.576 129.157333,174.664 C130.053333,173.752 131.141333,173.296 132.421333,173.296 C133.717333,173.296 134.809333,173.752 135.697333,174.664 C136.585333,175.576 137.029333,176.688 137.029333,178 C137.029333,179.312 136.585333,180.42 135.697333,181.324 C134.809333,182.228 133.717333,182.68 132.421333,182.68 Z M145.88,184 L149.264,174.112 L152.648,184 L154.232,184 L158.48,172 L156.896,172 L153.44,181.768 L149.984,172 L148.544,172 L145.088,181.768 L141.656,172 L140.072,172 L144.296,184 L145.88,184 Z M166.130667,184.072 C167.602667,184.088 168.870667,183.672 169.934667,182.824 C170.998667,181.976 171.714667,181.048 172.082667,180.04 L172.082667,180.04 L170.738667,179.56 C170.434667,180.376 169.858667,181.088 169.010667,181.696 C168.162667,182.304 167.202667,182.608 166.130667,182.608 C165.138667,182.624 164.234667,182.324 163.418667,181.708 C162.602667,181.092 162.058667,180.304 161.786667,179.344 L161.786667,179.344 L172.274667,177.448 C172.274667,177.32 172.266667,177.216 172.250667,177.136 C172.074667,175.6 171.402667,174.312 170.234667,173.272 C169.066667,172.232 167.698667,171.704 166.130667,171.688 C164.402667,171.704 162.938667,172.312 161.738667,173.512 C160.538667,174.712 159.938667,176.176 159.938667,177.904 C159.938667,178.528 160.018667,179.104 160.178667,179.632 C160.578667,180.928 161.334667,181.992 162.446667,182.824 C163.558667,183.656 164.786667,184.072 166.130667,184.072 Z M161.546667,178.048 C161.546667,177.968 161.542667,177.868 161.534667,177.748 C161.526667,177.628 161.522667,177.544 161.522667,177.496 C161.586667,176.312 162.046667,175.296 162.902667,174.448 C163.758667,173.6 164.786667,173.168 165.986667,173.152 C167.010667,173.136 167.938667,173.436 168.770667,174.052 C169.602667,174.668 170.170667,175.464 170.474667,176.44 L170.474667,176.44 L161.546667,178.048 Z M176.781333,184 L176.781333,176.968 C176.781333,175.928 177.125333,175.052 177.813333,174.34 C178.501333,173.628 179.349333,173.272 180.357333,173.272 C181.045333,173.272 181.725333,173.52 182.397333,174.016 L182.397333,174.016 L182.949333,172.432 C182.245333,172.016 181.469333,171.808 180.621333,171.808 C179.037333,171.808 177.757333,172.464 176.781333,173.776 L176.781333,173.776 L176.781333,172 L175.197333,172 L175.197333,184 L176.781333,184 Z" id="DCPower" fill="#23ABE3" fill-rule="nonzero"></path>
        </g>
        <g transform="translate(59.000000, 40.000000)" stroke="#3D3530">
            <g>
                <circle id="Oval" stroke-width="3" cx="40" cy="40" r="40"></circle>
                <g id="+" transform="translate(36.000000, 11.000000)" stroke-width="2">
                    <path d="M0,4 L8,4 M4,8 L4,0" id="Combined-Shape"></path>
                </g>
                <g id="-" transform="translate(36.000000, 66.000000)" stroke-width="2">
                    <line x1="0" y1="1" x2="8" y2="1" id="Path"></line>
                </g>
            </g>
        </g>
        <path d="M153.708,82.968 C153.708,84.3920071 153.512002,85.7359937 153.12,87 C152.727998,88.2640063 152.100004,89.3279957 151.236,90.192 C150.371996,91.0560043 149.356006,91.488 148.188,91.488 C147.243995,91.488 146.416004,91.288002 145.704,90.888 C144.991996,90.487998 144.636,90.0800021 144.636,89.664 C144.636,89.471999 144.707999,89.3160006 144.852,89.196 C144.996001,89.0759994 145.147999,89.016 145.308,89.016 C145.468001,89.016 145.635999,89.1039991 145.812,89.28 C145.988,89.4560009 146.159999,89.647999 146.328,89.856 C146.496001,90.064001 146.743998,90.2559991 147.072,90.432 C147.400002,90.6080009 147.763998,90.696 148.164,90.696 C150.324011,90.696 151.499999,88.392023 151.692,83.784 C150.988,84.7280047 150.036006,85.2 148.836,85.2 C147.507993,85.2 146.368005,84.7600044 145.416,83.88 C144.463995,82.9999956 143.988,81.9360062 143.988,80.688 C143.988,79.4559938 144.463995,78.4000044 145.416,77.52 C146.368005,76.6399956 147.507993,76.2 148.836,76.2 C149.236002,76.2 149.639998,76.2519995 150.048,76.356 C150.456002,76.4600005 150.883998,76.6679984 151.332,76.98 C151.780002,77.2920016 152.175998,77.6879976 152.52,78.168 C152.864002,78.6480024 153.147999,79.3039958 153.372,80.136 C153.596001,80.9680042 153.708,81.9119947 153.708,82.968 Z M151.716,82.464 C151.684,81.3599945 151.560001,80.4280038 151.344,79.668 C151.127999,78.9079962 150.860002,78.3640016 150.54,78.036 C150.219998,77.7079984 149.924001,77.4800006 149.652,77.352 C149.379999,77.2239994 149.108001,77.16 148.836,77.16 C147.859995,77.16 147.140002,77.5039966 146.676,78.192 C146.211998,78.8800034 145.98,79.719995 145.98,80.712 C145.98,81.704005 146.211998,82.5399966 146.676,83.22 C147.140002,83.9000034 147.859995,84.24 148.836,84.24 C149.524003,84.24 150.139997,84.0680017 150.684,83.724 C151.228003,83.3799983 151.571999,82.9600025 151.716,82.464 Z M172.092,73.104 C171.147995,73.104 170.536001,73.2199988 170.256,73.452 C169.975999,73.6840012 169.636002,74.2639954 169.236,75.192 L163.956,87.408 L163.644,87.408 L158.34,75.192 C157.939998,74.2639954 157.600001,73.6840012 157.32,73.452 C157.039999,73.2199988 156.428005,73.104 155.484,73.104 L155.484,72.6 L162.132,72.6 L162.132,73.104 C161.139995,73.104 160.504001,73.2439986 160.224,73.524 C159.943999,73.8040014 159.955998,74.2719967 160.26,74.928 L164.34,84.264 L168.372,74.928 C168.676002,74.2719967 168.688001,73.8040014 168.408,73.524 C168.127999,73.2439986 167.492005,73.104 166.5,73.104 L166.5,72.6 L172.092,72.6 L172.092,73.104 Z" id="9V-Copy" fill="#524740"></path>
    </g>
</svg>