<?xml version="1.0" encoding="UTF-8"?>
<svg width="200px" height="200px" viewBox="0 0 200 200" version="1.1" xmlns="http://www.w3.org/2000/svg" xmlns:xlink="http://www.w3.org/1999/xlink">
    <!-- Generator: Sketch 52.5 (67469) - http://www.bohemiancoding.com/sketch -->
    <title>Pushbutton</title>
    <desc>Created with Sketch.</desc>
    <g id="Pushbutton" stroke="none" stroke-width="1" fill="none" fill-rule="evenodd">
        <g id="Circuit_Symbol_Frame">
            <rect id="Rectangle" stroke="#3D3530" stroke-width="2" fill="#EEEEEE" x="1" y="1" width="198" height="198"></rect>
            <rect id="Rectangle-Copy" stroke="#3D3530" stroke-width="2" fill="#F8FAE4" x="1" y="156" width="198" height="43"></rect>
            <path d="M52.533333,184 L52.533333,167.872 L58.005333,167.872 C59.813342,167.872 61.2533276,168.347995 62.325333,169.3 C63.3973384,170.252005 63.933333,171.447993 63.933333,172.888 C63.933333,174.312007 63.3973384,175.503995 62.325333,176.464 C61.2533276,177.424005 59.813342,177.904 58.005333,177.904 L54.117333,177.904 L54.117333,184 L52.533333,184 Z M54.117333,176.392 L58.005333,176.392 C59.3013395,176.392 60.3413291,176.060003 61.125333,175.396 C61.9093369,174.731997 62.301333,173.896005 62.301333,172.888 C62.301333,171.895995 61.9093369,171.064003 61.125333,170.392 C60.3413291,169.719997 59.3013395,169.384 58.005333,169.384 L54.117333,169.384 L54.117333,176.392 Z M76.1919997,172 L77.7759997,172 L77.7759997,184 L76.1919997,184 L76.1919997,182.224 C75.2159948,183.536007 73.9360076,184.192 72.3519997,184.192 C70.9599927,184.192 69.7920044,183.700005 68.8479997,182.716 C67.903995,181.731995 67.4319997,180.520007 67.4319997,179.08 L67.4319997,172 L69.0639997,172 L69.0639997,179.032 C69.0639997,180.056005 69.4079963,180.923996 70.0959997,181.636 C70.7840031,182.348004 71.6239947,182.704 72.6159997,182.704 C73.6240047,182.704 74.4719963,182.348004 75.1599997,181.636 C75.8480031,180.923996 76.1919997,180.056005 76.1919997,179.032 L76.1919997,172 Z M85.9546664,184.192 C85.4106637,184.192 84.882669,184.124001 84.3706664,183.988 C83.8586638,183.851999 83.4306681,183.692001 83.0866664,183.508 C82.7426647,183.323999 82.4346678,183.136001 82.1626664,182.944 C81.890665,182.751999 81.690667,182.592001 81.5626664,182.464 L81.3706664,182.248 L82.4986664,181.288 C82.610667,181.400001 82.7666654,181.535999 82.9666664,181.696 C83.1666674,181.856001 83.5706634,182.071999 84.1786664,182.344 C84.7866694,182.616001 85.3866634,182.752 85.9786664,182.752 C86.8586708,182.752 87.5626638,182.584002 88.0906664,182.248 C88.618669,181.911998 88.8826664,181.440003 88.8826664,180.832 C88.8826664,180.399998 88.618669,180.028002 88.0906664,179.716 C87.5626638,179.403998 86.9226702,179.136001 86.1706664,178.912 C85.4186626,178.687999 84.6626702,178.440001 83.9026664,178.168 C83.1426626,177.895999 82.498669,177.512002 81.9706664,177.016 C81.4426638,176.519998 81.1786664,175.912004 81.1786664,175.192 C81.1786664,174.199995 81.5506627,173.388003 82.2946664,172.756 C83.0386701,172.123997 84.1386591,171.808 85.5946664,171.808 C86.4586707,171.808 87.2746626,171.967998 88.0426664,172.288 C88.8106702,172.608002 89.3626647,172.927998 89.6986664,173.248 L90.2026664,173.728 L89.0746664,174.712 C88.9626658,174.599999 88.8066674,174.464001 88.6066664,174.304 C88.4066654,174.143999 88.0026694,173.928001 87.3946664,173.656 C86.7866634,173.383999 86.1786694,173.248 85.5706664,173.248 C84.7066621,173.248 84.0066691,173.415998 83.4706664,173.752 C82.9346637,174.088002 82.6666664,174.559997 82.6666664,175.168 C82.6666664,175.600002 82.9306638,175.971998 83.4586664,176.284 C83.986669,176.596002 84.6266626,176.863999 85.3786664,177.088 C86.1306702,177.312001 86.8866626,177.555999 87.6466664,177.82 C88.4066702,178.084001 89.0506638,178.467997 89.5786664,178.972 C90.106669,179.476003 90.3706664,180.087996 90.3706664,180.808 C90.3706664,181.816005 90.0026701,182.631997 89.2666664,183.256 C88.5306627,183.880003 87.4266738,184.192 85.9546664,184.192 Z M99.1973331,171.808 C100.58934,171.808 101.757328,172.307995 102.701333,173.308 C103.645338,174.308005 104.117333,175.527993 104.117333,176.968 L104.117333,184 L102.509333,184 L102.509333,176.992 C102.509333,175.951995 102.165337,175.076004 101.477333,174.364 C100.78933,173.651996 99.9413381,173.296 98.9333331,173.296 C97.9413281,173.296 97.0973366,173.651996 96.4013331,174.364 C95.7053296,175.076004 95.3573331,175.943995 95.3573331,176.968 L95.3573331,184 L93.7733331,184 L93.7733331,166.144 L95.3573331,166.144 L95.3573331,173.776 C96.333338,172.463993 97.6133252,171.808 99.1973331,171.808 Z M114.264,171.808 C115.976008,171.808 117.435994,172.411994 118.644,173.62 C119.852006,174.828006 120.456,176.287991 120.456,178 C120.456,179.712009 119.852006,181.171994 118.644,182.38 C117.435994,183.588006 115.976008,184.192 114.264,184.192 C112.34399,184.192 110.776006,183.464007 109.56,182.008 L109.56,184 L107.976,184 L107.976,166.144 L109.56,166.144 L109.56,173.968 C110.792006,172.527993 112.35999,171.808 114.264,171.808 Z M110.952,181.336 C111.848004,182.232004 112.935993,182.68 114.216,182.68 C115.496006,182.68 116.583995,182.228005 117.48,181.324 C118.376004,180.419995 118.824,179.312007 118.824,178 C118.824,176.687993 118.376004,175.580005 117.48,174.676 C116.583995,173.771995 115.496006,173.32 114.216,173.32 C112.935993,173.32 111.848004,173.771995 110.952,174.676 C110.055995,175.580005 109.608,176.687993 109.608,178 C109.608,179.312007 110.055995,180.423995 110.952,181.336 Z M132.114666,172 L133.698666,172 L133.698666,184 L132.114666,184 L132.114666,182.224 C131.138662,183.536007 129.858674,184.192 128.274666,184.192 C126.88266,184.192 125.714671,183.700005 124.770666,182.716 C123.826662,181.731995 123.354666,180.520007 123.354666,179.08 L123.354666,172 L124.986666,172 L124.986666,179.032 C124.986666,180.056005 125.330663,180.923996 126.018666,181.636 C126.70667,182.348004 127.546662,182.704 128.538666,182.704 C129.546672,182.704 130.394663,182.348004 131.082666,181.636 C131.77067,180.923996 132.114666,180.056005 132.114666,179.032 L132.114666,172 Z M144.373333,181.312 L145.165333,182.536 C145.069333,182.664001 144.941334,182.815999 144.781333,182.992 C144.621332,183.168001 144.261336,183.411998 143.701333,183.724 C143.14133,184.036002 142.565336,184.192 141.973333,184.192 C140.965328,184.192 140.121337,183.892003 139.441333,183.292 C138.76133,182.691997 138.421333,181.824006 138.421333,180.688 L138.421333,173.44 L136.501333,173.44 L136.501333,171.976 L138.421333,171.976 L138.421333,168.184 L140.005333,167.992 L140.005333,171.976 L143.629333,171.976 L143.629333,173.44 L140.005333,173.44 L140.005333,180.328 C140.005333,181.064004 140.233331,181.647998 140.689333,182.08 C141.145335,182.512002 141.66933,182.728 142.261333,182.728 C142.629335,182.728 142.989331,182.616001 143.341333,182.392 C143.693335,182.167999 143.953332,181.948001 144.121333,181.732 C144.289334,181.515999 144.373333,181.376 144.373333,181.312 Z M153.752,181.312 L154.544,182.536 C154.447999,182.664001 154.320001,182.815999 154.16,182.992 C153.999999,183.168001 153.640003,183.411998 153.08,183.724 C152.519997,184.036002 151.944003,184.192 151.352,184.192 C150.343995,184.192 149.500003,183.892003 148.82,183.292 C148.139996,182.691997 147.8,181.824006 147.8,180.688 L147.8,173.44 L145.88,173.44 L145.88,171.976 L147.8,171.976 L147.8,168.184 L149.384,167.992 L149.384,171.976 L153.008,171.976 L153.008,173.44 L149.384,173.44 L149.384,180.328 C149.384,181.064004 149.611998,181.647998 150.068,182.08 C150.524002,182.512002 151.047997,182.728 151.64,182.728 C152.008002,182.728 152.367998,182.616001 152.72,182.392 C153.072002,182.167999 153.331999,181.948001 153.5,181.732 C153.668001,181.515999 153.752,181.376 153.752,181.312 Z M166.562667,182.368 C165.362661,183.584006 163.906675,184.192 162.194667,184.192 C160.482658,184.192 159.022673,183.588006 157.814667,182.38 C156.606661,181.171994 156.002667,179.712009 156.002667,178 C156.002667,176.287991 156.606661,174.828006 157.814667,173.62 C159.022673,172.411994 160.482658,171.808 162.194667,171.808 C163.906675,171.808 165.366661,172.411994 166.574667,173.62 C167.782673,174.828006 168.386667,176.287991 168.386667,178 C168.386667,179.696008 167.778673,181.151994 166.562667,182.368 Z M162.218667,182.68 C163.514673,182.68 164.606662,182.228005 165.494667,181.324 C166.382671,180.419995 166.826667,179.312007 166.826667,178 C166.826667,176.687993 166.382671,175.576005 165.494667,174.664 C164.606662,173.751995 163.514673,173.296 162.218667,173.296 C160.93866,173.296 159.850671,173.751995 158.954667,174.664 C158.058662,175.576005 157.610667,176.687993 157.610667,178 C157.610667,179.312007 158.058662,180.419995 158.954667,181.324 C159.850671,182.228005 160.93866,182.68 162.218667,182.68 Z M176.853333,171.808 C178.24534,171.808 179.413329,172.299995 180.357333,173.284 C181.301338,174.268005 181.773333,175.479993 181.773333,176.92 L181.773333,184 L180.165333,184 L180.165333,176.968 C180.165333,175.943995 179.817337,175.072004 179.121333,174.352 C178.42533,173.631996 177.581338,173.272 176.589333,173.272 C175.597328,173.272 174.753337,173.631996 174.057333,174.352 C173.36133,175.072004 173.013333,175.943995 173.013333,176.968 L173.013333,184 L171.429333,184 L171.429333,172 L173.013333,172 L173.013333,173.776 C173.989338,172.463993 175.269325,171.808 176.853333,171.808 Z" id="Title-Copy" fill="#23ABE3"></path>
        </g>
        <g transform="translate(65.000000, 72.000000)">
            <g>
                <g id="Connection" transform="translate(0.000000, 13.000000)" fill="#3D3530">
                    <circle cx="5" cy="5" r="5"></circle>
                </g>
                <g id="Connection" transform="translate(60.000000, 13.000000)" fill="#3D3530">
                    <circle cx="5" cy="5" r="5"></circle>
                </g>
                <path d="M5,8 L65,8" id="Path" stroke="#3D3530" stroke-width="3"></path>
                <rect id="Rectangle" fill="#3D3530" x="26" y="0" width="18" height="7"></rect>
            </g>
        </g>
    </g>
</svg>