<?xml version="1.0" encoding="UTF-8"?>
<svg width="36px" height="36px" viewBox="0 0 36 36" version="1.1" xmlns="http://www.w3.org/2000/svg" xmlns:xlink="http://www.w3.org/1999/xlink">
    <!-- Generator: Sketch 48.2 (47327) - http://www.bohemiancoding.com/sketch -->
    <title>Facebook_FooterLogo</title>
    <desc>Created with Sketch.</desc>
    <defs></defs>
    <g id="Developer.WildernessLabs.co-Home" stroke="none" stroke-width="1" fill="none" fill-rule="evenodd" transform="translate(-1194.000000, -2138.000000)">
        <g id="Footer" transform="translate(0.000000, 2100.000000)" fill="#EEEEEE">
            <g id="Connect" transform="translate(1073.000000, 38.000000)">
                <path d="M157,18 C157,8.0585 148.941,0 139,0 C129.059,0 121,8.0585 121,18 C121,27.271 128.0105,34.9025 137.018,35.889 L137.018,22.1665 L133.9505,22.1665 L133.9505,17.003 L137.018,17.003 L137.018,12.7785 C137.018,12.0045 136.8625,6.835 143.478,6.835 L148.1475,6.835 L148.1475,12.2125 L144.7125,12.2125 C144.034,12.2125 143.3465,12.923 143.3465,13.4515 L143.3465,16.9825 L148.14,16.9825 C147.948,19.6905 147.5525,22.1665 147.5525,22.1665 L143.322,22.1665 L143.322,35.474 C151.175,33.538 157,26.4505 157,18 L157,18 Z" id="Facebook_FooterLogo"></path>
            </g>
        </g>
    </g>
</svg>