<?xml version="1.0" encoding="UTF-8"?>
<svg width="36px" height="36px" viewBox="0 0 36 36" version="1.1" xmlns="http://www.w3.org/2000/svg" xmlns:xlink="http://www.w3.org/1999/xlink">
    <!-- Generator: Sketch 48.2 (47327) - http://www.bohemiancoding.com/sketch -->
    <title>GitHub_FooterLogo</title>
    <desc>Created with Sketch.</desc>
    <defs></defs>
    <g id="Developer.WildernessLabs.co-Home" stroke="none" stroke-width="1" fill="none" fill-rule="evenodd" transform="translate(-1073.000000, -2138.000000)">
        <g id="Footer" transform="translate(0.000000, 2100.000000)" fill="#EEEEEE">
            <g id="Connect" transform="translate(1073.000000, 38.000000)">
                <path d="M18,0 C8.055,0 0,8.055 0,18 C0,25.965 5.1525,32.6925 12.3075,35.0775 C13.2075,35.235 13.545,34.695 13.545,34.2225 C13.545,33.795 13.5225,32.3775 13.5225,30.87 C9,31.7025 7.83,29.7675 7.47,28.755 C7.2675,28.2375 6.39,26.64 5.625,26.2125 C4.995,25.875 4.095,25.0425 5.6025,25.02 C7.02,24.9975 8.0325,26.325 8.37,26.865 C9.99,29.5875 12.5775,28.8225 13.6125,28.35 C13.77,27.18 14.2425,26.3925 14.76,25.9425 C10.755,25.4925 6.57,23.94 6.57,17.055 C6.57,15.0975 7.2675,13.4775 8.415,12.2175 C8.235,11.7675 7.605,9.9225 8.595,7.4475 C8.595,7.4475 10.1025,6.975 13.545,9.2925 C14.985,8.8875 16.515,8.685 18.045,8.685 C19.575,8.685 21.105,8.8875 22.545,9.2925 C25.9875,6.9525 27.495,7.4475 27.495,7.4475 C28.485,9.9225 27.855,11.7675 27.675,12.2175 C28.8225,13.4775 29.52,15.075 29.52,17.055 C29.52,23.9625 25.3125,25.4925 21.3075,25.9425 C21.96,26.505 22.5225,27.585 22.5225,29.2725 C22.5225,31.68 22.5,33.615 22.5,34.2225 C22.5,34.695 22.8375,35.2575 23.7375,35.0775 C30.8475,32.6925 36,25.9425 36,18 C36,8.055 27.945,0 18,0 L18,0 Z" id="GitHub_FooterLogo"></path>
            </g>
        </g>
    </g>
</svg>