<?xml version="1.0" encoding="UTF-8"?>
<svg width="702px" height="124px" viewBox="0 0 702 124" version="1.1" xmlns="http://www.w3.org/2000/svg" xmlns:xlink="http://www.w3.org/1999/xlink">
    <!-- Generator: Sketch 48.2 (47327) - http://www.bohemiancoding.com/sketch -->
    <title>Netduino_Foundation_Banner_Logo</title>
    <desc>Created with Sketch.</desc>
    <defs></defs>
    <g id="Developer.WildernessLabs.co-Home" stroke="none" stroke-width="1" fill="none" fill-rule="evenodd" transform="translate(-101.000000, -568.000000)">
        <g id="Netduino.Foundation" transform="translate(0.000000, 520.000000)">
            <g id="Netduino_Foundation_Banner_Logo" transform="translate(105.000000, 44.000000)">
                <text id="beta" font-family="Roboto-Light, Roboto" font-size="31" font-weight="300" fill="#EEEEEE">
                    <tspan x="639.5" y="36">beta</tspan>
                </text>
                <path d="M15.2714844,69 L8.94335938,69 L8.94335938,25.4414062 C8.94335938,23.0742069 9.417964,21.2578188 10.3671875,19.9921875 C11.316411,18.7265562 12.6699131,18.09375 14.4277344,18.09375 C15.6699281,18.09375 16.7890575,18.5039021 17.7851562,19.3242188 C18.781255,20.1445354 19.7011677,21.4101477 20.5449219,23.1210938 L38.6855469,60.8085938 L38.6855469,18.65625 L45.0839844,18.65625 L45.0839844,62.390625 C45.0839844,64.6875115 44.6152391,66.4804623 43.6777344,67.7695312 C42.7402297,69.0586002 41.4394614,69.703125 39.7753906,69.703125 C38.4628841,69.703125 37.2851615,69.2871135 36.2421875,68.4550781 C35.1992135,67.6230427 34.2793009,66.3632897 33.4824219,64.6757812 L15.2714844,26.7421875 L15.2714844,69 Z M86.6386719,53.7421875 C85.77148,58.6640871 83.7793125,62.5546732 80.6621094,65.4140625 C77.5449063,68.2734518 73.7480693,69.703125 69.2714844,69.703125 C67.7480393,69.703125 66.2421949,69.4980489 64.7539062,69.0878906 C63.2656176,68.6777323 61.8652409,68.0742227 60.5527344,67.2773438 C57.7870955,65.5898353 55.6425857,63.3867323 54.1191406,60.6679688 C52.5956955,57.9492052 51.8339844,54.9609538 51.8339844,51.703125 C51.8339844,49.312488 52.2734331,47.0390733 53.1523438,44.8828125 C54.0312544,42.7265517 55.3027261,40.7812587 56.9667969,39.046875 C58.6308677,37.3359289 60.5234269,36.0351607 62.6445313,35.1445312 C64.7656356,34.2539018 66.9980352,33.8085938 69.3417969,33.8085938 C72.8340018,33.8085938 75.9570175,34.7285064 78.7109375,36.5683594 C81.4648575,38.4082123 83.6972571,41.0859199 85.4082031,44.6015625 L62.8027344,57.1171875 L60.2011719,52.4414062 L76.9707031,43.0898438 C75.939448,41.9414005 74.7793033,41.0742217 73.4902344,40.4882812 C72.2011654,39.9023408 70.7949295,39.609375 69.2714844,39.609375 C66.1777189,39.609375 63.5703231,40.7636603 61.4492188,43.0722656 C59.3281144,45.3808709 58.2675781,48.234358 58.2675781,51.6328125 C58.2675781,55.0078294 59.3339737,57.8554571 61.4667969,60.1757812 C63.59962,62.4961054 66.2011565,63.65625 69.2714844,63.65625 C72.2011865,63.65625 74.6562401,62.6894628 76.6367188,60.7558594 C78.6171974,58.822256 79.8535132,56.1679856 80.3457031,52.7929688 L86.6386719,53.7421875 Z M92.5449219,25.3710938 L98.7324219,25.3710938 L98.7324219,34.5117188 L109.173828,34.5117188 L109.173828,40.3476562 L98.7324219,40.3476562 L98.7324219,55.1132812 C98.7324219,57.8789201 99.4062433,59.9003842 100.753906,61.1777344 C102.101569,62.4550845 104.251938,63.09375 107.205078,63.09375 L109.173828,63.09375 L109.173828,69 L107.134766,69 C102.259741,69 98.6093871,67.9336044 96.1835938,65.8007812 C93.7578004,63.6679581 92.5449219,60.4570527 92.5449219,56.1679688 L92.5449219,25.3710938 Z M148.337891,18.65625 L148.337891,48.9960938 C148.337891,52.0898592 148.191408,54.4101485 147.898438,55.9570312 C147.605467,57.503914 147.119144,58.9218686 146.439453,60.2109375 C144.986321,63.1640773 142.888686,65.4726479 140.146484,67.1367188 C137.404283,68.8007896 134.369157,69.6328125 131.041016,69.6328125 C126.025366,69.6328125 121.882829,67.9394701 118.613281,64.5527344 C115.343734,61.1659987 113.708984,56.8828384 113.708984,51.703125 C113.708984,49.3828009 114.107418,47.1679793 114.904297,45.0585938 C115.701176,42.9492082 116.861321,41.0625083 118.384766,39.3984375 C119.931648,37.6640538 121.783192,36.3222704 123.939453,35.3730469 C126.095714,34.4238234 128.345691,33.9492188 130.689453,33.9492188 C132.400399,33.9492188 134.035148,34.1425762 135.59375,34.5292969 C137.152352,34.9160176 138.634759,35.5078085 140.041016,36.3046875 L140.041016,42.9492188 C138.611321,41.8710884 137.187507,41.0742213 135.769531,40.5585938 C134.351555,40.0429662 132.892586,39.7851562 131.392578,39.7851562 C128.087874,39.7851562 125.369151,40.9218636 123.236328,43.1953125 C121.103505,45.4687614 120.037109,48.3867009 120.037109,51.9492188 C120.037109,55.4414237 121.074208,58.2949108 123.148438,60.5097656 C125.222667,62.7246204 127.876937,63.8320312 131.111328,63.8320312 C134.369157,63.8320312 137.017568,62.7129018 139.056641,60.4746094 C141.095713,58.2363169 142.115234,55.312518 142.115234,51.703125 L142.115234,18.65625 L148.337891,18.65625 Z M184.900391,34.5117188 L184.900391,53.3203125 C184.900391,58.3359626 183.570326,62.3085791 180.910156,65.2382812 C178.249987,68.1679834 174.681663,69.6328125 170.205078,69.6328125 C165.751931,69.6328125 162.201185,68.1679834 159.552734,65.2382812 C156.904284,62.3085791 155.580078,58.3359626 155.580078,53.3203125 L155.580078,34.5117188 L161.732422,34.5117188 L161.732422,54.4453125 C161.732422,57.1640761 162.535148,59.3788977 164.140625,61.0898438 C165.746102,62.8007898 167.791003,63.65625 170.275391,63.65625 C172.783216,63.65625 174.828117,62.8007898 176.410156,61.0898438 C177.992195,59.3788977 178.783203,57.1640761 178.783203,54.4453125 L178.783203,34.5117188 L184.900391,34.5117188 Z M192.986328,69 L192.986328,34.5117188 L199.173828,34.5117188 L199.173828,69 L192.986328,69 Z M192.318359,24.703125 C192.318359,23.6718698 192.681637,22.7929724 193.408203,22.0664062 C194.134769,21.3398401 195.025385,20.9765625 196.080078,20.9765625 C197.134771,20.9765625 198.019528,21.3339808 198.734375,22.0488281 C199.449222,22.7636754 199.806641,23.6484322 199.806641,24.703125 C199.806641,25.7812554 199.449222,26.6894494 198.734375,27.4277344 C198.019528,28.1660193 197.134771,28.5351562 196.080078,28.5351562 C195.048823,28.5351562 194.164066,28.16016 193.425781,27.4101562 C192.687496,26.6601525 192.318359,25.7578178 192.318359,24.703125 Z M207.154297,69 L207.154297,50.1914062 C207.154297,45.1757562 208.490221,41.2031396 211.162109,38.2734375 C213.833998,35.3437354 217.396462,33.8789062 221.849609,33.8789062 C226.302757,33.8789062 229.853502,35.3437354 232.501953,38.2734375 C235.150404,41.2031396 236.474609,45.1757562 236.474609,50.1914062 L236.474609,69 L230.357422,69 L230.357422,49.0664062 C230.357422,46.3476427 229.566414,44.1328211 227.984375,42.421875 C226.402336,40.7109289 224.357434,39.8554688 221.849609,39.8554688 C219.365222,39.8554688 217.320321,40.7109289 215.714844,42.421875 C214.109367,44.1328211 213.306641,46.3476427 213.306641,49.0664062 L213.306641,69 L207.154297,69 Z M248.884766,51.6328125 C248.884766,54.9843918 249.957021,57.8261602 252.101563,60.1582031 C254.246104,62.490246 256.841782,63.65625 259.888672,63.65625 C262.935562,63.65625 265.531239,62.490246 267.675781,60.1582031 C269.820323,57.8261602 270.892578,54.9843918 270.892578,51.6328125 C270.892578,48.3046709 269.826183,45.4804804 267.693359,43.1601562 C265.560536,40.8398321 262.959,39.6796875 259.888672,39.6796875 C256.841782,39.6796875 254.246104,40.8398321 252.101563,43.1601562 C249.957021,45.4804804 248.884766,48.3046709 248.884766,51.6328125 Z M242.451172,51.703125 C242.451172,49.312488 242.89648,47.0390733 243.787109,44.8828125 C244.677739,42.7265517 245.966788,40.7812587 247.654297,39.046875 C249.318368,37.3593666 251.18749,36.0761763 253.261719,35.1972656 C255.335948,34.318355 257.54491,33.8789062 259.888672,33.8789062 C262.232434,33.8789062 264.458974,34.318355 266.568359,35.1972656 C268.677745,36.0761763 270.552726,37.3593666 272.193359,39.046875 C273.85743,40.7343834 275.128902,42.6679579 276.007812,44.8476562 C276.886723,47.0273546 277.326172,49.312488 277.326172,51.703125 C277.326172,54.1406372 276.886723,56.4550672 276.007812,58.6464844 C275.128902,60.8379016 273.85743,62.7773353 272.193359,64.4648438 C270.552726,66.1523522 268.677745,67.4355425 266.568359,68.3144531 C264.458974,69.1933638 262.232434,69.6328125 259.888672,69.6328125 C257.54491,69.6328125 255.335948,69.1933638 253.261719,68.3144531 C251.18749,67.4355425 249.318368,66.1523522 247.654297,64.4648438 C245.966788,62.7538977 244.677739,60.8086046 243.787109,58.6289062 C242.89648,56.4492079 242.451172,54.1406372 242.451172,51.703125 Z M285.095703,65.4140625 C285.095703,64.2421816 285.494137,63.2519572 286.291016,62.4433594 C287.087895,61.6347616 288.083978,61.2304688 289.279297,61.2304688 C290.451178,61.2304688 291.435543,61.6347616 292.232422,62.4433594 C293.029301,63.2519572 293.427734,64.2421816 293.427734,65.4140625 C293.427734,66.5390681 293.023442,67.499996 292.214844,68.296875 C291.406246,69.093754 290.42774,69.4921875 289.279297,69.4921875 C288.107416,69.4921875 287.117192,69.093754 286.308594,68.296875 C285.499996,67.499996 285.095703,66.5390681 285.095703,65.4140625 Z M303.166016,69 L303.166016,36.1640625 C303.166016,30.257783 304.630845,25.8632957 307.560547,22.9804688 C310.490249,20.0976418 314.955048,18.65625 320.955078,18.65625 L328.126953,18.65625 L328.126953,24.8789062 L319.794922,24.8789062 C316.583968,24.8789062 314.111337,25.763663 312.376953,27.5332031 C310.642569,29.3027432 309.775391,31.8398272 309.775391,35.1445312 L309.775391,40.7695312 L328.126953,40.7695312 L328.126953,46.9570312 L309.775391,46.9570312 L309.775391,69 L303.166016,69 Z M339.974609,51.6328125 C339.974609,54.9843918 341.046864,57.8261602 343.191406,60.1582031 C345.335948,62.490246 347.931625,63.65625 350.978516,63.65625 C354.025406,63.65625 356.621083,62.490246 358.765625,60.1582031 C360.910167,57.8261602 361.982422,54.9843918 361.982422,51.6328125 C361.982422,48.3046709 360.916026,45.4804804 358.783203,43.1601562 C356.65038,40.8398321 354.048843,39.6796875 350.978516,39.6796875 C347.931625,39.6796875 345.335948,40.8398321 343.191406,43.1601562 C341.046864,45.4804804 339.974609,48.3046709 339.974609,51.6328125 Z M333.541016,51.703125 C333.541016,49.312488 333.986324,47.0390733 334.876953,44.8828125 C335.767583,42.7265517 337.056632,40.7812587 338.744141,39.046875 C340.408211,37.3593666 342.277333,36.0761763 344.351563,35.1972656 C346.425792,34.318355 348.634754,33.8789062 350.978516,33.8789062 C353.322277,33.8789062 355.548818,34.318355 357.658203,35.1972656 C359.767589,36.0761763 361.64257,37.3593666 363.283203,39.046875 C364.947274,40.7343834 366.218746,42.6679579 367.097656,44.8476562 C367.976567,47.0273546 368.416016,49.312488 368.416016,51.703125 C368.416016,54.1406372 367.976567,56.4550672 367.097656,58.6464844 C366.218746,60.8379016 364.947274,62.7773353 363.283203,64.4648438 C361.64257,66.1523522 359.767589,67.4355425 357.658203,68.3144531 C355.548818,69.1933638 353.322277,69.6328125 350.978516,69.6328125 C348.634754,69.6328125 346.425792,69.1933638 344.351563,68.3144531 C342.277333,67.4355425 340.408211,66.1523522 338.744141,64.4648438 C337.056632,62.7538977 335.767583,60.8086046 334.876953,58.6289062 C333.986324,56.4492079 333.541016,54.1406372 333.541016,51.703125 Z M403.607422,34.5117188 L403.607422,53.3203125 C403.607422,58.3359626 402.277357,62.3085791 399.617188,65.2382812 C396.957018,68.1679834 393.388694,69.6328125 388.912109,69.6328125 C384.458962,69.6328125 380.908216,68.1679834 378.259766,65.2382812 C375.611315,62.3085791 374.287109,58.3359626 374.287109,53.3203125 L374.287109,34.5117188 L380.439453,34.5117188 L380.439453,54.4453125 C380.439453,57.1640761 381.242179,59.3788977 382.847656,61.0898438 C384.453133,62.8007898 386.498034,63.65625 388.982422,63.65625 C391.490247,63.65625 393.535148,62.8007898 395.117188,61.0898438 C396.699227,59.3788977 397.490234,57.1640761 397.490234,54.4453125 L397.490234,34.5117188 L403.607422,34.5117188 Z M411.166016,69 L411.166016,50.1914062 C411.166016,45.1757562 412.50194,41.2031396 415.173828,38.2734375 C417.845716,35.3437354 421.408181,33.8789062 425.861328,33.8789062 C430.314475,33.8789062 433.865221,35.3437354 436.513672,38.2734375 C439.162123,41.2031396 440.486328,45.1757562 440.486328,50.1914062 L440.486328,69 L434.369141,69 L434.369141,49.0664062 C434.369141,46.3476427 433.578133,44.1328211 431.996094,42.421875 C430.414055,40.7109289 428.369153,39.8554688 425.861328,39.8554688 C423.376941,39.8554688 421.332039,40.7109289 419.726563,42.421875 C418.121086,44.1328211 417.318359,46.3476427 417.318359,49.0664062 L417.318359,69 L411.166016,69 Z M481.267578,18.65625 L481.267578,48.9960938 C481.267578,52.0898592 481.121095,54.4101485 480.828125,55.9570312 C480.535155,57.503914 480.048832,58.9218686 479.369141,60.2109375 C477.916008,63.1640773 475.818373,65.4726479 473.076172,67.1367188 C470.333971,68.8007896 467.298845,69.6328125 463.970703,69.6328125 C458.955053,69.6328125 454.812516,67.9394701 451.542969,64.5527344 C448.273421,61.1659987 446.638672,56.8828384 446.638672,51.703125 C446.638672,49.3828009 447.037105,47.1679793 447.833984,45.0585938 C448.630863,42.9492082 449.791008,41.0625083 451.314453,39.3984375 C452.861336,37.6640538 454.71288,36.3222704 456.869141,35.3730469 C459.025401,34.4238234 461.275379,33.9492188 463.619141,33.9492188 C465.330087,33.9492188 466.964836,34.1425762 468.523438,34.5292969 C470.082039,34.9160176 471.564446,35.5078085 472.970703,36.3046875 L472.970703,42.9492188 C471.541008,41.8710884 470.117195,41.0742213 468.699219,40.5585938 C467.281243,40.0429662 465.822273,39.7851562 464.322266,39.7851562 C461.017562,39.7851562 458.298839,40.9218636 456.166016,43.1953125 C454.033192,45.4687614 452.966797,48.3867009 452.966797,51.9492188 C452.966797,55.4414237 454.003896,58.2949108 456.078125,60.5097656 C458.152354,62.7246204 460.806624,63.8320312 464.041016,63.8320312 C467.298844,63.8320312 469.947255,62.7129018 471.986328,60.4746094 C474.025401,58.2363169 475.044922,55.312518 475.044922,51.703125 L475.044922,18.65625 L481.267578,18.65625 Z M515.369141,69 L515.369141,51.8085938 C515.369141,48.1992007 514.34962,45.2754018 512.310547,43.0371094 C510.271474,40.7988169 507.623063,39.6796875 504.365234,39.6796875 C501.130843,39.6796875 498.476573,40.7870983 496.402344,43.0019531 C494.328115,45.2168079 493.291016,48.070295 493.291016,51.5625 C493.291016,55.1250178 494.357411,58.0429574 496.490234,60.3164062 C498.623058,62.5898551 501.34178,63.7265625 504.646484,63.7265625 C506.146492,63.7265625 507.605462,63.4687526 509.023438,62.953125 C510.441413,62.4374974 511.865227,61.6406304 513.294922,60.5625 L513.294922,67.2070312 C511.888665,68.0039102 510.406258,68.5957012 508.847656,68.9824219 C507.289055,69.3691426 505.654305,69.5625 503.943359,69.5625 C502.302726,69.5625 500.673836,69.3105494 499.056641,68.8066406 C497.439445,68.3027319 495.974616,67.5937546 494.662109,66.6796875 C492.177722,64.9687414 490.279303,62.830091 488.966797,60.2636719 C487.65429,57.6972528 486.998047,54.8437657 486.998047,51.703125 C486.998047,46.5468492 488.626937,42.2871262 491.884766,38.9238281 C495.142594,35.5605301 499.279272,33.8789062 504.294922,33.8789062 C507.599626,33.8789062 510.623033,34.7109292 513.365234,36.375 C516.107436,38.0390708 518.216789,40.3242042 519.693359,43.2304688 C520.37305,44.5429753 520.859374,45.9785078 521.152344,47.5371094 C521.445314,49.0957109 521.591797,51.4218595 521.591797,54.515625 L521.591797,69 L515.369141,69 Z M529.080078,25.3710938 L535.267578,25.3710938 L535.267578,34.5117188 L545.708984,34.5117188 L545.708984,40.3476562 L535.267578,40.3476562 L535.267578,55.1132812 C535.267578,57.8789201 535.9414,59.9003842 537.289062,61.1777344 C538.636725,62.4550845 540.787095,63.09375 543.740234,63.09375 L545.708984,63.09375 L545.708984,69 L543.669922,69 C538.794898,69 535.144543,67.9336044 532.71875,65.8007812 C530.292957,63.6679581 529.080078,60.4570527 529.080078,56.1679688 L529.080078,25.3710938 Z M552.177734,69 L552.177734,34.5117188 L558.365234,34.5117188 L558.365234,69 L552.177734,69 Z M551.509766,24.703125 C551.509766,23.6718698 551.873043,22.7929724 552.599609,22.0664062 C553.326176,21.3398401 554.216792,20.9765625 555.271484,20.9765625 C556.326177,20.9765625 557.210934,21.3339808 557.925781,22.0488281 C558.640629,22.7636754 558.998047,23.6484322 558.998047,24.703125 C558.998047,25.7812554 558.640629,26.6894494 557.925781,27.4277344 C557.210934,28.1660193 556.326177,28.5351562 555.271484,28.5351562 C554.240229,28.5351562 553.355472,28.16016 552.617188,27.4101562 C551.878903,26.6601525 551.509766,25.7578178 551.509766,24.703125 Z M571.197266,51.6328125 C571.197266,54.9843918 572.269521,57.8261602 574.414062,60.1582031 C576.558604,62.490246 579.154282,63.65625 582.201172,63.65625 C585.248062,63.65625 587.843739,62.490246 589.988281,60.1582031 C592.132823,57.8261602 593.205078,54.9843918 593.205078,51.6328125 C593.205078,48.3046709 592.138683,45.4804804 590.005859,43.1601562 C587.873036,40.8398321 585.2715,39.6796875 582.201172,39.6796875 C579.154282,39.6796875 576.558604,40.8398321 574.414062,43.1601562 C572.269521,45.4804804 571.197266,48.3046709 571.197266,51.6328125 Z M564.763672,51.703125 C564.763672,49.312488 565.20898,47.0390733 566.099609,44.8828125 C566.990239,42.7265517 568.279288,40.7812587 569.966797,39.046875 C571.630868,37.3593666 573.49999,36.0761763 575.574219,35.1972656 C577.648448,34.318355 579.85741,33.8789062 582.201172,33.8789062 C584.544934,33.8789062 586.771474,34.318355 588.880859,35.1972656 C590.990245,36.0761763 592.865226,37.3593666 594.505859,39.046875 C596.16993,40.7343834 597.441402,42.6679579 598.320312,44.8476562 C599.199223,47.0273546 599.638672,49.312488 599.638672,51.703125 C599.638672,54.1406372 599.199223,56.4550672 598.320312,58.6464844 C597.441402,60.8379016 596.16993,62.7773353 594.505859,64.4648438 C592.865226,66.1523522 590.990245,67.4355425 588.880859,68.3144531 C586.771474,69.1933638 584.544934,69.6328125 582.201172,69.6328125 C579.85741,69.6328125 577.648448,69.1933638 575.574219,68.3144531 C573.49999,67.4355425 571.630868,66.1523522 569.966797,64.4648438 C568.279288,62.7538977 566.990239,60.8086046 566.099609,58.6289062 C565.20898,56.4492079 564.763672,54.1406372 564.763672,51.703125 Z M605.509766,69 L605.509766,50.1914062 C605.509766,45.1757562 606.84569,41.2031396 609.517578,38.2734375 C612.189466,35.3437354 615.751931,33.8789062 620.205078,33.8789062 C624.658225,33.8789062 628.208971,35.3437354 630.857422,38.2734375 C633.505873,41.2031396 634.830078,45.1757562 634.830078,50.1914062 L634.830078,69 L628.712891,69 L628.712891,49.0664062 C628.712891,46.3476427 627.921883,44.1328211 626.339844,42.421875 C624.757805,40.7109289 622.712903,39.8554688 620.205078,39.8554688 C617.720691,39.8554688 615.675789,40.7109289 614.070312,42.421875 C612.464836,44.1328211 611.662109,46.3476427 611.662109,49.0664062 L611.662109,69 L605.509766,69 Z" id="Netduino.Foundation-Copy" fill="#EEEEEE"></path>
                <path d="M12.0234375,67.7773438 C12.1747857,70.8518845 12.9278277,73.2633001 14.2825634,75.0115903 C15.6372992,76.7598806 17.8673301,77.6974234 20.9726562,77.8242188 L640.933884,77.8242188" id="Path-2" stroke="#EEEEEE" stroke-width="6.5"></path>
                <path d="M41.8546134,18.8571739 C41.7625615,16.3720296 40.7444701,14.0153819 38.8003391,11.7872308 C36.8562082,9.5590797 34.344099,8.34642249 31.2640116,8.14925918 L11.9837052,8.14925918 C8.87367398,8.51633299 6.10432989,9.99935369 3.6756729,12.5983213 C1.24701591,15.1972889 0.0971592259,17.2416379 0.226102857,18.7313684 L0.226102857,70.2194775 C0.306536537,77.5116897 1.33242225,82.5907808 3.30375998,85.4567508 C5.27509772,88.3227207 8.16841279,90.2747747 11.9837052,91.312913 L567.979303,90.0800195 C573.237222,90.3369258 576.673573,91.3173037 578.288355,93.0211533 C579.903136,94.725003 580.574874,96.6912128 580.303568,98.9197829" id="Path-3" stroke="#EEEEEE" stroke-width="6.5"></path>
                <circle id="Oval" stroke="#EEEEEE" stroke-width="6.5" cx="652" cy="78" r="11"></circle>
                <circle id="Oval-Copy" stroke="#EEEEEE" stroke-width="6.5" cx="580" cy="113" r="11"></circle>
            </g>
        </g>
    </g>
</svg>