<?xml version="1.0" encoding="UTF-8"?>
<svg width="37px" height="31px" viewBox="0 0 37 31" version="1.1" xmlns="http://www.w3.org/2000/svg" xmlns:xlink="http://www.w3.org/1999/xlink">
    <!-- Generator: Sketch 48.2 (47327) - http://www.bohemiancoding.com/sketch -->
    <title>Twitter_FooterLogo</title>
    <desc>Created with Sketch.</desc>
    <defs></defs>
    <g id="Developer.WildernessLabs.co-Home" stroke="none" stroke-width="1" fill="none" fill-rule="evenodd" transform="translate(-1133.000000, -2142.000000)">
        <g id="Footer" transform="translate(0.000000, 2100.000000)" fill="#EEEEEE" fill-rule="nonzero">
            <g id="Connect" transform="translate(1073.000000, 38.000000)">
                <path d="M71.63576,34.0646742 C85.59808,34.0646742 93.23488,22.4969942 93.23488,12.4655542 C93.23488,12.1369942 93.23488,11.8099142 93.21268,11.4843142 C94.6983504,10.4097022 95.9808061,9.07913567 97,7.55491417 C95.614541,8.16882079 94.1448273,8.57142057 92.63992,8.74927417 C94.2246211,7.80056761 95.4106628,6.3084167 95.97732,4.55051417 C94.4871931,5.43474803 92.8569562,6.05791196 91.15696,6.39311417 C88.8038825,3.8910177 85.0648646,3.27862079 82.0365329,4.89932046 C79.0082012,6.52002013 77.443687,9.97075625 78.22028,13.3165542 C72.1166057,13.0105635 66.4298242,10.1276326 62.5752,5.38523417 C60.5603617,8.85382836 61.5895021,13.2911862 64.92544,15.5187942 C63.717377,15.4829893 62.5356535,15.1571017 61.48,14.5686342 C61.48,14.5997142 61.48,14.6322742 61.48,14.6648342 C61.4809888,18.2783918 64.0281922,21.3907462 67.5702,22.1062742 C66.452607,22.4110654 65.2800193,22.4556197 64.14252,22.2365142 C65.1370029,25.32886 67.9869304,27.4472743 71.23468,27.5082742 C68.5466079,29.6208734 65.2259681,30.7677192 61.80708,30.7642742 C61.2030973,30.7631147 60.599702,30.7265452 60,30.6547542 C63.4715412,32.8825635 67.5108718,34.0642552 71.63576,34.0587542" id="Twitter_FooterLogo"></path>
            </g>
        </g>
    </g>
</svg>