<?xml version="1.0" encoding="UTF-8"?>
<svg width="92px" height="49px" viewBox="0 0 92 49" version="1.1" xmlns="http://www.w3.org/2000/svg" xmlns:xlink="http://www.w3.org/1999/xlink">
    <!-- Generator: Sketch 48.2 (47327) - http://www.bohemiancoding.com/sketch -->
    <title>WLabs_Footer_logo</title>
    <desc>Created with Sketch.</desc>
    <defs></defs>
    <g id="Developer.WildernessLabs.co-Home" stroke="none" stroke-width="1" fill="none" fill-rule="evenodd" transform="translate(-231.000000, -2117.000000)">
        <g id="Footer" transform="translate(0.000000, 2100.000000)">
            <g id="WLabs_Footer_logo" transform="translate(231.000000, 17.000000)">
                <g id="MountainLogo-Copy" transform="translate(0.626667, 0.480000)">
                    <g id="MountainTree-Copy-2" transform="translate(-0.000000, 0.000000)">
                        <path d="M64.1163179,32.5622999 L62.8718539,35.6485205 L57.9229703,27.291708 L43.0923584,24.1487944 L38.8039038,27.840559 C38.8039038,27.840559 38.2885448,28.3410378 37.8075816,28.3332501 C37.3266185,28.3254623 36.6978272,27.8017129 36.6978272,27.8017129 L33.2183715,25.3295194 L27.7321794,35.6498648 L26.304657,32.7429015 L42.8443556,1.49784401 C42.8443556,1.49784401 43.2653461,0.367136808 44.2507399,0.365653427 C45.2361337,0.364170046 45.6928181,1.51365129 45.6928181,1.51365129 L64.1163179,32.5622999 Z" id="Path-3" fill="#EEEEEE"></path>
                        <path d="M44.3059031,4.40179418 L56.0672606,24.1840015 L42.9444838,21.4196978 C42.9444838,21.4196978 42.6230073,21.3925797 42.3993181,21.4312403 C42.1756289,21.469901 41.9512212,21.647165 41.9512212,21.647165 L37.7099566,25.3049972 L34.4647593,22.9604903 L44.3059031,4.40179418 Z" id="Path-4" fill="#EEEEEE"></path>
                        <path d="M29.5053065,43.4973678 C29.5053065,43.4973678 30.2570794,43.4920369 30.6166139,42.834505 C30.9761484,42.1769732 30.6931934,41.6361186 30.6931934,41.6361186 L15.4842962,10.7421588 C15.4842962,10.7421588 15.2271382,10.0856236 14.3212559,10.0856236 C13.4153737,10.0856236 13.1697814,10.7421588 13.1697814,10.7421588 L0.413747422,41.4594572 C0.413747422,41.4594572 0.13375925,42.2555229 0.520504501,42.861345 C0.907249753,43.467167 1.58837661,43.4938911 1.58837661,43.4938911 L13.9282063,43.4909475 L13.9282063,46.4574546 C13.9282063,46.4574546 13.9664729,47.761532 15.2801691,47.7694588 C16.5938652,47.7773856 16.5938652,46.4435248 16.5938652,46.4435248 L16.5938652,43.4960466 L29.5053065,43.4973678 Z" id="Path-5" fill="#EEEEEE"></path>
                        <polygon id="Path-2" fill="#555555" points="14.438698 14.6291502 27.3368816 40.8388244 3.54697267 40.8388244"></polygon>
                        <path d="M89.505103,43.4973678 C89.505103,43.4973678 90.2568758,43.4920369 90.6164103,42.834505 C90.9759448,42.1769732 90.6929899,41.6361186 90.6929899,41.6361186 L75.4840926,10.7421588 C75.4840926,10.7421588 75.2269346,10.0856236 74.3210524,10.0856236 C73.4151701,10.0856236 73.1695778,10.7421588 73.1695778,10.7421588 L60.4135439,41.4594572 C60.4135439,41.4594572 60.1335557,42.2555229 60.5203009,42.861345 C60.9070462,43.467167 61.588173,43.4938911 61.588173,43.4938911 L73.9280027,43.4909475 L73.9280027,46.4574546 C73.9280027,46.4574546 73.9662693,47.761532 75.2799655,47.7694588 C76.5936617,47.7773856 76.5936617,46.4435248 76.5936617,46.4435248 L76.5936617,43.4960466 L89.505103,43.4973678 Z" id="Path-5" fill="#EEEEEE"></path>
                        <polygon id="Path-2" fill="#555555" points="74.4384944 14.6291502 87.336678 40.8388244 63.5467691 40.8388244"></polygon>
                    </g>
                </g>
            </g>
        </g>
    </g>
</svg>