<?xml version="1.0"?>
<!DOCTYPE svg PUBLIC "-//W3C//DTD SVG 1.1//EN" "http://www.w3.org/Graphics/SVG/1.1/DTD/svg11.dtd">
<svg viewBox="88 110 420 316" preserveAspectRatio="xMinYMin meet" version="1.1" xmlns="http://www.w3.org/2000/svg">
<g class="Port">
<polygon fill="#FFFFFF" stroke="none" points="192,160 184,170 128,170 128,150 184,150 " />
<polygon stroke="#000000" stroke-width="1" fill="none" points="192,160 184,170 128,170 128,150 184,150 " />
<text x="155" y="165" font-family="sans-serif">1</text>
<text x="50" y="165" font-family="sans-serif">Input A</text>
</g>
<g class="Port">
<polygon fill="#FFFFFF" stroke="none" points="192,224 184,234 128,234 128,214 184,214 " />
<polygon stroke="#000000" stroke-width="1" fill="none" points="192,224 184,234 128,234 128,214 184,214 " />
<text x="155" y="229" font-family="sans-serif">2</text>
<text x="50" y="229" font-family="sans-serif">Input B</text>
</g>
<g class="Diode">
<line x1="224" y1="160" x2="246" y2="160" stroke="#877777" stroke-width="3" stroke-linecap="round" fill="none" />
<line x1="265" y1="160" x2="288" y2="160" stroke="#877777" stroke-width="3" stroke-linecap="round" fill="none" />
<polygon fill="#877777" stroke="none" points="246,147 246,173 265,160 " />
<polygon stroke="#877777" stroke-width="2" fill="none" points="246,147 246,173 265,160 " />
<line x1="265" y1="147" x2="265" y2="173" stroke="#877777" stroke-width="3" stroke-linecap="round" fill="none" />
</g>
<g class="Diode">
<line x1="224" y1="224" x2="246" y2="224" stroke="#877777" stroke-width="3" stroke-linecap="round" fill="none" />
<line x1="265" y1="224" x2="288" y2="224" stroke="#877777" stroke-width="3" stroke-linecap="round" fill="none" />
<polygon fill="#877777" stroke="none" points="246,211 246,237 265,224 " />
<polygon stroke="#877777" stroke-width="2" fill="none" points="246,211 246,237 265,224 " />
<line x1="265" y1="211" x2="265" y2="237" stroke="#877777" stroke-width="3" stroke-linecap="round" fill="none" />
<ellipse cx="288" cy="224" rx="4" ry="4" fill="#877777" stroke="none" />
</g>
<g class="Wire">
<line x1="192" y1="160" x2="224" y2="160" stroke="#877777" stroke-width="1.5" stroke-linecap="round" fill="none" />
</g>
<g class="Wire">
<line x1="192" y1="224" x2="224" y2="224" stroke="#877777" stroke-width="1.5" stroke-linecap="round" fill="none" />
</g>
<g class="Wire">
<line x1="288" y1="160" x2="288" y2="192" stroke="#877777" stroke-width="1.5" stroke-linecap="round" fill="none" />
<ellipse cx="288" cy="192" rx="4" ry="4" fill="#877777" stroke="none" />
</g>
<g class="Ground">
<line x1="288" y1="352" x2="288" y2="384" stroke="#877777" stroke-width="3" stroke-linecap="round" fill="none" />
<line x1="298" y1="384" x2="278" y2="384" stroke="#877777" stroke-width="3" stroke-linecap="round" fill="none" />
<line x1="294" y1="389" x2="282" y2="389" stroke="#877777" stroke-width="3" stroke-linecap="round" fill="none" />
<line x1="290" y1="394" x2="286" y2="394" stroke="#877777" stroke-width="3" stroke-linecap="round" fill="none" />
</g>
<g class="Port">
<polygon fill="#FFFFFF" stroke="none" points="384,192 392,182 448,182 448,202 392,202 " />
<polygon stroke="#000000" stroke-width="1" fill="none" points="384,192 392,182 448,182 448,202 392,202 " />
<text x="411" y="197" font-family="sans-serif">3</text>
<text x="456" y="197" font-family="sans-serif">Out</text>
</g>
<g class="Wire">
<line x1="288" y1="192" x2="288" y2="224" stroke="#877777" stroke-width="1.5" stroke-linecap="round" fill="none" />
<ellipse cx="288" cy="192" rx="4" ry="4" fill="#877777" stroke="none" />
<ellipse cx="288" cy="224" rx="4" ry="4" fill="#877777" stroke="none" />
</g>
<g class="Wire">
<line x1="288" y1="192" x2="384" y2="192" stroke="#877777" stroke-width="1.5" stroke-linecap="round" fill="none" />
<ellipse cx="288" cy="192" rx="4" ry="4" fill="#877777" stroke="none" />
</g>
<g class="OR Gate">
<rect x="376" y="280" width="86" height="26" fill="#FFFFFF" stroke="none" />
<rect x="376" y="280" width="86" height="26" rx="5" ry="5" stroke="#000000" stroke-width="2" fill="none" />
<text x="384" y="298" font-family="sans-serif">OR Gate</text>
</g>
<g class="Resistor">
<line x1="288" y1="256" x2="288" y2="272" stroke="#877777" stroke-width="3" stroke-linecap="round" fill="none" />
<line x1="288" y1="304" x2="288" y2="320" stroke="#877777" stroke-width="3" stroke-linecap="round" fill="none" />
<polyline stroke="#877777" stroke-linecap="round" stroke-linejoin="round" stroke-width="3" fill="none" points="288,272 296,274.6667 288,277.3333 280,280 288,282.6667 " />
<polyline stroke="#877777" stroke-linecap="round" stroke-linejoin="round" stroke-width="3" fill="none" points="288,282.6667 296,285.3333 288,288 280,290.6667 288,293.3333 " />
<polyline stroke="#877777" stroke-linecap="round" stroke-linejoin="round" stroke-width="3" fill="none" points="288,293.3333 296,296 288,298.6667 280,301.3333 288,304 " />
<text x="303" y="293" font-family="sans-serif">10k</text>
</g>
<g class="Wire">
<line x1="288" y1="224" x2="288" y2="256" stroke="#877777" stroke-width="1.5" stroke-linecap="round" fill="none" />
<ellipse cx="288" cy="224" rx="4" ry="4" fill="#877777" stroke="none" />
</g>
<g class="Wire">
<line x1="288" y1="320" x2="288" y2="352" stroke="#877777" stroke-width="1.5" stroke-linecap="round" fill="none" />
</g>
</svg>
