<svg id="Layer_1" data-name="Layer 1" xmlns="http://www.w3.org/2000/svg" viewBox="0 0 183.04 124"><defs><style>.cls-1{fill:#7cc08f;}</style></defs><title>arduino-logo</title><g id="Arduino_Logo" data-name="Arduino Logo"><g id="g4"><g id="path6"><path class="cls-1" d="M144.55,94.93c-22.33,0-34.63-14.27-44.5-29.43-9.87,15.16-22.18,29.43-44.5,29.43-.87,0-1.76,0-2.66-.06C28.41,94.76,8.53,75.44,8.53,51.72s20-43.16,44.56-43.16c23.56,0,36.73,13.45,47,28.44,10.23-15,23.39-28.44,47-28.44,24.57,0,44.56,19.36,44.56,43.16s-19.88,43-44.36,43.15C146.31,94.91,145.42,94.93,144.55,94.93ZM109,51.14c11.37,18.36,19.75,29.45,37.61,28.51h.4c16.17,0,29.33-12.53,29.33-27.92S163.18,23.79,147,23.79C128.11,23.79,118.56,35.94,109,51.14ZM53.09,23.79c-16.17,0-29.33,12.53-29.33,27.93S36.92,79.64,53.09,79.64h.4c17.83.94,26.24-10.15,37.61-28.51C81.54,35.94,72,23.79,53.09,23.79Z" transform="translate(-8.53 -8.56)"/></g></g><polygon class="cls-1" points="140.49 37.62 140.49 29.36 131.9 29.36 131.9 37.62 123.64 37.62 123.64 46.17 131.9 46.17 131.9 54.49 140.49 54.49 140.49 46.17 148.75 46.17 148.75 37.62 140.49 37.62"/><g id="g14"><g id="text16"><path id="path3072" class="cls-1" d="M181.92,16V12.56h-1.31V12h3.31v.6H182.6V16Zm2.45,0V12h1l1,3.22,1-3.22h1v4h-.62V12.61l-1,3.39h-.61L185,12.56V16Z" transform="translate(-8.53 -8.56)"/></g></g><g id="g18"><g id="text20"><path id="path3057" class="cls-1" d="M30.42,132.05l-1.65-5.73H18.29l-1.7,5.73H11l8.9-29h7.9l8.89,29Zm-6.82-23.7-4,13.51H27.5Z" transform="translate(-8.53 -8.56)"/><path id="path3059" class="cls-1" d="M54.92,132.05l-4.23-9.33a4.56,4.56,0,0,0-1.66-2,4.65,4.65,0,0,0-2.52-.67H45.43v12H39.78V103h8.75a23,23,0,0,1,4.51.41,9.62,9.62,0,0,1,3.44,1.37,6.52,6.52,0,0,1,2.2,2.49,8.32,8.32,0,0,1,.77,3.75,7.58,7.58,0,0,1-.49,2.84A6.34,6.34,0,0,1,57.61,116a6.87,6.87,0,0,1-2.08,1.45,10,10,0,0,1-2.63.78,3.79,3.79,0,0,1,2,1.21,12.11,12.11,0,0,1,1.84,2.85l4.8,9.73Zm-1.4-20.48a3.41,3.41,0,0,0-1.4-3.06,7.7,7.7,0,0,0-4.21-.93H45.43v8.19h2.3a10.33,10.33,0,0,0,2.38-.26,5.52,5.52,0,0,0,1.82-.8,3.63,3.63,0,0,0,1.17-1.33,3.75,3.75,0,0,0,.42-1.81Z" transform="translate(-8.53 -8.56)"/><path id="path3061" class="cls-1" d="M87.39,117.17a20.59,20.59,0,0,1-.86,6.13,11.52,11.52,0,0,1-7.37,7.7,19.75,19.75,0,0,1-6.82,1.05H64.71V103H73.6a19.63,19.63,0,0,1,6,.84,10.42,10.42,0,0,1,4.3,2.56,10.92,10.92,0,0,1,2.59,4.4,20.88,20.88,0,0,1,.86,6.35Zm-6.07.36a20.42,20.42,0,0,0-.39-4.2,8,8,0,0,0-1.32-3.12,5.92,5.92,0,0,0-2.49-1.95,10,10,0,0,0-3.88-.66H70.36v19.88h2.48c2.78,0,4.88-.8,6.32-2.4s2.16-4.12,2.16-7.55Z" transform="translate(-8.53 -8.56)"/><path id="path3063" class="cls-1" d="M112.53,121.37a14.14,14.14,0,0,1-.77,4.87,9.26,9.26,0,0,1-2.2,3.5,9.14,9.14,0,0,1-3.51,2.11,14,14,0,0,1-4.64.71,15.12,15.12,0,0,1-5-.71,8.29,8.29,0,0,1-3.36-2,7.79,7.79,0,0,1-1.86-3.24,15,15,0,0,1-.58-4.29V103h5.66V122a12,12,0,0,0,.26,2.6,4.64,4.64,0,0,0,.92,1.92,4.26,4.26,0,0,0,1.64,1.19,6.83,6.83,0,0,0,2.49.4,7,7,0,0,0,2.36-.35,3.65,3.65,0,0,0,1.61-1.11,5.12,5.12,0,0,0,1-2,11.48,11.48,0,0,0,.32-2.91V103h5.65Z" transform="translate(-8.53 -8.56)"/><path id="path3065" class="cls-1" d="M118,107.49V103h19v4.47h-6.62v20.05H137v4.51H118v-4.51h6.62V107.49Z" transform="translate(-8.53 -8.56)"/><path id="path3067" class="cls-1" d="M157.5,132.05l-8-17.32L147.81,111v21.05h-5.15V103h6.94l8.2,17.44,1.45,3.4V103h5.15v29Z" transform="translate(-8.53 -8.56)"/><path id="path3069" class="cls-1" d="M191.45,117.42a21.51,21.51,0,0,1-1,6.81,13,13,0,0,1-2.62,4.71,10.45,10.45,0,0,1-3.9,2.74,13,13,0,0,1-4.8.88q-5.92,0-8.91-3.81c-2-2.53-3-6.23-3-11.07a21.89,21.89,0,0,1,.95-6.82,13.17,13.17,0,0,1,2.62-4.71,10.58,10.58,0,0,1,3.91-2.73,12.91,12.91,0,0,1,4.79-.89q5.93,0,8.92,3.8T191.45,117.42Zm-6,.26q0-5.15-1.42-7.68a5,5,0,0,0-4.69-2.53,5.47,5.47,0,0,0-2.78.65,5.22,5.22,0,0,0-1.9,1.92,9.61,9.61,0,0,0-1.09,3.12,23.57,23.57,0,0,0-.34,4.26c0,3.43.47,6,1.43,7.68a5,5,0,0,0,4.68,2.53,5.64,5.64,0,0,0,2.79-.65,5.15,5.15,0,0,0,1.9-1.92,9.85,9.85,0,0,0,1.08-3.12,23.57,23.57,0,0,0,.34-4.26Z" transform="translate(-8.53 -8.56)"/></g></g><rect class="cls-1" x="32.19" y="37.51" width="27.14" height="8.82"/></g></svg>