<svg xmlns="http://www.w3.org/2000/svg" viewBox="0 0 32 32"><defs><style>.cls-1{fill:#eee;}</style></defs><title>Asset 1</title><g id="Layer_2" data-name="Layer 2"><g id="Footer_Content" data-name="Footer Content"><g id="Social_Link" data-name="Social Link"><path id="Facebook" class="cls-1" d="M27.08,0H5.32A5.09,5.09,0,0,0,0,4.88V26.64A5.5,5.5,0,0,0,5.32,32H18.79c0-4.19,0-8.86,0-12.92-.86,0-1.72-.06-2.58-.07V14.68l2.58,0c0-1.4,0-2.8,0-4.19a4.49,4.49,0,0,1,1.33-3,5.62,5.62,0,0,1,3.75-1.31h4.25c0,1.49,0,3,0,4.48H25.4a1.27,1.27,0,0,0-1.29,1c0,1,0,2,0,3h4c-.1,1.45-.28,2.89-.49,4.32-1.19,0-2.37.12-3.56.13,0,4.05,0,8.73,0,12.92h3A5.16,5.16,0,0,0,32,26.64V4.88A4.75,4.75,0,0,0,27.08,0Z"/></g></g></g></svg>