<svg xmlns="http://www.w3.org/2000/svg" xmlns:xlink="http://www.w3.org/1999/xlink" viewBox="0 0 251.42 154.48"><defs><style>.cls-1,.cls-4,.cls-5{fill:#eee;}.cls-1{clip-rule:evenodd;}.cls-2{isolation:isolate;}.cls-3{mix-blend-mode:screen;}.cls-5{fill-rule:evenodd;}.cls-6{clip-path:url(#clip-path);}.cls-7{clip-path:url(#clip-path-2);}.cls-8{clip-path:url(#clip-path-3);}</style><clipPath id="clip-path"><path class="cls-1" d="M170.3,80.44l-2.94,7.28L155.69,68l-35-7.41L110.58,69.3a4.13,4.13,0,0,1-2.35,1.16,5.67,5.67,0,0,1-2.62-1.25l-8.2-5.84-13,24.35-3.37-6.86,39-73.71s1-2.67,3.31-2.67,3.41,2.71,3.41,2.71L170.3,80.44ZM123.56,14l27.75,46.67-31-6.52a6.39,6.39,0,0,0-1.28,0,2.8,2.8,0,0,0-1.06.51l-10,8.63-7.65-5.53L123.56,14Z"/></clipPath><clipPath id="clip-path-2"><path class="cls-1" d="M88.65,106.24a3.21,3.21,0,0,0,2.62-1.57,3.11,3.11,0,0,0,.18-2.82L55.57,29a2.83,2.83,0,0,0-2.75-1.55A2.75,2.75,0,0,0,50.11,29L20,101.43a4.26,4.26,0,0,0,.25,3.31,3.37,3.37,0,0,0,2.52,1.49H51.9v7a3.15,3.15,0,0,0,3.19,3.1,3,3,0,0,0,3.09-3.13v-7ZM53.1,38.13,83.53,100H27.4L53.1,38.13Z"/></clipPath><clipPath id="clip-path-3"><path class="cls-1" d="M230.2,106.24a3.21,3.21,0,0,0,2.62-1.57,3.11,3.11,0,0,0,.18-2.82L197.12,29a2.82,2.82,0,0,0-2.74-1.55A2.76,2.76,0,0,0,191.66,29l-30.09,72.47a4.21,4.21,0,0,0,.25,3.31,3.36,3.36,0,0,0,2.52,1.49h29.11v7a3.15,3.15,0,0,0,3.19,3.1,3.05,3.05,0,0,0,3.1-3.13v-7ZM194.65,38.13,225.08,100H169l25.69-61.83Z"/></clipPath></defs><title>Asset 1</title><g class="cls-2"><g id="Layer_2" data-name="Layer 2"><g id="Footer_Content" data-name="Footer Content"><g id="Brandmark"><g class="cls-3"><path class="cls-4" d="M0,125.93H3.71L5.61,139l.3,1.94c.15,1,.27,2,.34,2.88l.19,2.4a8.07,8.07,0,0,1,.11.9l.07-.9c.3-3.14.64-5.84,1-8.12l2-12.2h2.91l1.91,11.86c.56,3.48,1,6.44,1.16,9.17.27-2.88.6-5.54.9-8.12l.3-1.87,1.61-11h3.63l-5,28.22h-3l-2-12.21c0-.11-.15-.78-.33-2.09L11.45,137c0-.41-.15-1.27-.3-2.61l-.07-1.2c0,.6-.11,1-.15,1.27-.11,1.61-.19,2.51-.23,2.66l-.37,2.73c-.19,1.23-.26,1.94-.3,2.09l-2.1,12.21h-3Z"/><path class="cls-4" d="M27.3,125.93h3.82v28.22H27.3Z"/><path class="cls-4" d="M37.44,125.93h3.82v25h6.21v3.22h-10Z"/><path class="cls-4" d="M52.71,125.93h4.68a11,11,0,0,1,3.59.48A5.47,5.47,0,0,1,63.41,128a10.28,10.28,0,0,1,2.25,4.57,32.37,32.37,0,0,1,.67,7.82,32.66,32.66,0,0,1-.74,7.6,8.49,8.49,0,0,1-2.4,4.3c-1.38,1.24-3.85,1.84-7.41,1.84H52.71Zm3.82,24.88c2.28,0,3.85-.71,4.64-2.09s1.2-4.12,1.2-8.16c0-4.38-.38-7.37-1.16-9A4.28,4.28,0,0,0,57,129.15h-.45Z"/><path class="cls-4" d="M72.46,125.93h10.1v3.22H76.28v8.94h5.57v3.22H76.28v9.62h6.28v3.22H72.46Z"/><path class="cls-4" d="M88.33,125.93h5A6.27,6.27,0,0,1,98,127.42c1.31,1.28,1.94,3.22,1.94,5.84,0,4-1.42,6.59-3.93,7.15l5.2,13.74H97.31l-5.16-13.81v13.81H88.33Zm3.82,12.5c2.95,0,4-1.24,4-4.49,0-3.52-1-4.87-3.41-4.87h-.63Z"/><path class="cls-4" d="M106.66,125.93h3.56L114,137.19c1.08,3.18,2.06,6.59,2.92,10.18a74.2,74.2,0,0,1-.9-10.93V125.93h3.82v28.22h-3.6L112,141.46A66.32,66.32,0,0,1,110,133.9c0-.34-.19-.82-.34-1.46a8.54,8.54,0,0,1,.15,1.38l.19,2.89.22,3.48c0,.41,0,.93,0,1.64l.19,12.32h-3.75Z"/><path class="cls-4" d="M126.52,125.93h10.1v3.22h-6.29v8.94h5.58v3.22h-5.58v9.62h6.29v3.22h-10.1Z"/><path class="cls-4" d="M152,130.23a5.64,5.64,0,0,0-3.14-1.23,3.05,3.05,0,0,0-2.43,1,3.79,3.79,0,0,0-1,2.7,4.68,4.68,0,0,0,.68,2.54,24.47,24.47,0,0,0,3.22,3.6,15.93,15.93,0,0,1,3.14,4.08,9,9,0,0,1,.86,4.07,7.94,7.94,0,0,1-1.87,5.39,6,6,0,0,1-4.72,2.06,6.78,6.78,0,0,1-4.15-1.31v-3.78a6.34,6.34,0,0,0,3.7,1.5c2.06,0,3.3-1.5,3.3-3.86a5.67,5.67,0,0,0-.68-2.76,16.85,16.85,0,0,0-2.5-3,20.8,20.8,0,0,1-3.82-4.41,8.81,8.81,0,0,1-.86-4.08,7.56,7.56,0,0,1,1.72-5.24,5.86,5.86,0,0,1,4.64-2,8.37,8.37,0,0,1,3.89,1Z"/><path class="cls-4" d="M168.27,130.23a5.64,5.64,0,0,0-3.14-1.23,3.09,3.09,0,0,0-2.44,1,3.83,3.83,0,0,0-1,2.7,4.76,4.76,0,0,0,.67,2.54,25.76,25.76,0,0,0,3.22,3.6,15.78,15.78,0,0,1,3.15,4.08,9,9,0,0,1,.86,4.07,7.94,7.94,0,0,1-1.87,5.39,6,6,0,0,1-4.72,2.06,6.78,6.78,0,0,1-4.15-1.31v-3.78a6.32,6.32,0,0,0,3.7,1.5c2.06,0,3.29-1.5,3.29-3.86a5.67,5.67,0,0,0-.67-2.76,17,17,0,0,0-2.51-3,21,21,0,0,1-3.81-4.41,8.81,8.81,0,0,1-.86-4.08,7.56,7.56,0,0,1,1.72-5.24,5.86,5.86,0,0,1,4.64-2,8.37,8.37,0,0,1,3.89,1Z"/><path class="cls-4" d="M187.88,125.93h3.81v25h6.22v3.22h-10Z"/><path class="cls-4" d="M209.58,125.93h3l6,28.22h-3.74l-1.08-5.51h-5.58l-1.09,5.51h-3.66Zm3.63,19.76-.86-4.49q-.84-4.6-1.35-9.77c-.33,3.33-.89,6.77-1.61,10.66l-.71,3.6Z"/><path class="cls-4" d="M223.24,125.93h5.17c4,0,6,2.5,6,7.52,0,3.78-.9,5.43-3.55,6.36a6.12,6.12,0,0,1,3.14,2.32,8.44,8.44,0,0,1,.86,4.23c0,5.2-2.21,7.79-6.66,7.79h-5Zm3.59,12.42a3.85,3.85,0,0,0,3.07-1,6.31,6.31,0,0,0,.86-3.78c0-3-1.08-4.56-3.29-4.56h-.64Zm0,12.54c3.11,0,4.12-1.16,4.12-4.64,0-1.8-.3-3.07-.94-3.78a4,4,0,0,0-3.18-1.09Z"/><path class="cls-4" d="M250.07,130.23a5.64,5.64,0,0,0-3.14-1.23,3.05,3.05,0,0,0-2.43,1,3.79,3.79,0,0,0-1,2.7,4.68,4.68,0,0,0,.68,2.54,24.83,24.83,0,0,0,3.21,3.6,15.78,15.78,0,0,1,3.15,4.08,9,9,0,0,1,.86,4.07,7.94,7.94,0,0,1-1.87,5.39,6,6,0,0,1-4.72,2.06,6.78,6.78,0,0,1-4.15-1.31v-3.78a6.34,6.34,0,0,0,3.7,1.5c2.06,0,3.3-1.5,3.3-3.86a5.67,5.67,0,0,0-.68-2.76,17.3,17.3,0,0,0-2.5-3,20.8,20.8,0,0,1-3.82-4.41,8.81,8.81,0,0,1-.86-4.08,7.56,7.56,0,0,1,1.72-5.24,5.86,5.86,0,0,1,4.64-2,8.37,8.37,0,0,1,3.89,1Z"/></g><path class="cls-5" d="M170.3,80.44l-2.94,7.28L155.69,68l-35-7.41L110.58,69.3a4.13,4.13,0,0,1-2.35,1.16,5.67,5.67,0,0,1-2.62-1.25l-8.2-5.84-13,24.35-3.37-6.86,39-73.71s1-2.67,3.31-2.67,3.41,2.71,3.41,2.71L170.3,80.44ZM123.56,14l27.75,46.67-31-6.52a6.39,6.39,0,0,0-1.28,0,2.8,2.8,0,0,0-1.06.51l-10,8.63-7.65-5.53L123.56,14Z"/><g class="cls-6"><rect class="cls-4" x="76.61" width="98.17" height="92.2"/></g><path class="cls-5" d="M88.65,106.24a3.21,3.21,0,0,0,2.62-1.57,3.11,3.11,0,0,0,.18-2.82L55.57,29a2.83,2.83,0,0,0-2.75-1.55A2.75,2.75,0,0,0,50.11,29L20,101.43a4.26,4.26,0,0,0,.25,3.31,3.37,3.37,0,0,0,2.52,1.49H51.9v7a3.15,3.15,0,0,0,3.19,3.1,3,3,0,0,0,3.09-3.13v-7ZM53.1,38.13,83.53,100H27.4L53.1,38.13Z"/><g class="cls-7"><rect class="cls-4" x="15.3" y="22.93" width="80.88" height="97.86"/></g><path class="cls-5" d="M230.2,106.24a3.21,3.21,0,0,0,2.62-1.57,3.11,3.11,0,0,0,.18-2.82L197.12,29a2.82,2.82,0,0,0-2.74-1.55A2.76,2.76,0,0,0,191.66,29l-30.09,72.47a4.21,4.21,0,0,0,.25,3.31,3.36,3.36,0,0,0,2.52,1.49h29.11v7a3.15,3.15,0,0,0,3.19,3.1,3.05,3.05,0,0,0,3.1-3.13v-7ZM194.65,38.13,225.08,100H169l25.69-61.83Z"/><g class="cls-8"><rect class="cls-4" x="156.85" y="22.93" width="80.88" height="97.86"/></g></g></g></g></g></svg>