<svg xmlns="http://www.w3.org/2000/svg" viewBox="0 0 32.81 32"><defs><style>.cls-1{fill:#eee;}</style></defs><title>Asset 3</title><g id="Layer_2" data-name="Layer 2"><g id="Footer_Content" data-name="Footer Content"><g id="Social_Link" data-name="Social Link"><g id="GitHub"><path id="GitHub_FooterLogo" data-name="GitHub FooterLogo" class="cls-1" d="M16.4,0a16.41,16.41,0,0,0-5.18,32c.82.14,1.12-.35,1.12-.78s0-1.68,0-3.06c-4.12.76-5.18-1-5.51-1.92a6,6,0,0,0-1.68-2.32c-.58-.31-1.4-1.07,0-1.09a3.29,3.29,0,0,1,2.52,1.68,3.5,3.5,0,0,0,4.78,1.36,3.45,3.45,0,0,1,1-2.2C9.8,23.23,6,21.82,6,15.54a6.38,6.38,0,0,1,1.68-4.41,5.9,5.9,0,0,1,.16-4.34s1.38-.43,4.51,1.68a15.59,15.59,0,0,1,8.21,0c3.13-2.13,4.51-1.68,4.51-1.68a5.85,5.85,0,0,1,.16,4.34,6.34,6.34,0,0,1,1.68,4.41c0,6.3-3.83,7.69-7.48,8.1a3.92,3.92,0,0,1,1.11,3c0,2.19,0,4,0,4.51s.3.94,1.12.78A16.41,16.41,0,0,0,16.4,0Z"/></g></g></g></g></svg>