<svg xmlns="http://www.w3.org/2000/svg" xmlns:xlink="http://www.w3.org/1999/xlink" viewBox="0 0 281.34 40.99"><defs><style>.cls-1,.cls-2,.cls-4{fill:#28aae1;}.cls-1{clip-rule:evenodd;}.cls-2{fill-rule:evenodd;}.cls-3{clip-path:url(#clip-path);}.cls-5{clip-path:url(#clip-path-2);}.cls-6{clip-path:url(#clip-path-3);}</style><clipPath id="clip-path"><path class="cls-1" d="M54.27,27.33l-1,2.47-4.09-6.7L36.9,20.58l-3.54,3a1.53,1.53,0,0,1-.82.4,2,2,0,0,1-.92-.43l-2.87-2L24.21,29.8,23,27.47l13.66-25s.35-.91,1.16-.91,1.19.92,1.19.92L54.27,27.33Z"/></clipPath><clipPath id="clip-path-2"><path class="cls-1" d="M25.68,36a1.12,1.12,0,0,0,.92-.53,1.08,1.08,0,0,0,.06-1L14.1,9.64a1,1,0,0,0-1-.53,1,1,0,0,0-1,.53L1.65,34.38a1.42,1.42,0,0,0,.09,1.13,1.18,1.18,0,0,0,.88.51H12.81v2.39a1.08,1.08,0,0,0,1.12,1.05A1,1,0,0,0,15,38.39V36ZM13.23,12.77,23.89,33.88H4.24l9-21.11Z"/></clipPath><clipPath id="clip-path-3"><path class="cls-1" d="M75.24,36a1.12,1.12,0,0,0,.92-.53,1,1,0,0,0,.06-1L63.66,9.64a1,1,0,0,0-1-.53,1,1,0,0,0-1,.53L51.21,34.38a1.42,1.42,0,0,0,.09,1.13,1.18,1.18,0,0,0,.88.51H62.37v2.39a1.08,1.08,0,0,0,1.12,1.05,1,1,0,0,0,1.09-1.07V36ZM62.79,12.77,73.45,33.88H53.8l9-21.11Z"/></clipPath></defs><title>Asset 1</title><g id="Layer_2" data-name="Layer 2"><g id="BrandMark"><path class="cls-2" d="M54.27,27.33l-1,2.47-4.09-6.7L36.9,20.58l-3.54,3a1.53,1.53,0,0,1-.82.4,2,2,0,0,1-.92-.43l-2.87-2L24.21,29.8,23,27.47l13.66-25s.35-.91,1.16-.91,1.19.92,1.19.92L54.27,27.33Z"/><g class="cls-3"><rect class="cls-4" x="21.47" width="34.37" height="31.32"/></g><path class="cls-2" d="M25.68,36a1.12,1.12,0,0,0,.92-.53,1.08,1.08,0,0,0,.06-1L14.1,9.64a1,1,0,0,0-1-.53,1,1,0,0,0-1,.53L1.65,34.38a1.42,1.42,0,0,0,.09,1.13,1.18,1.18,0,0,0,.88.51H12.81v2.39a1.08,1.08,0,0,0,1.12,1.05A1,1,0,0,0,15,38.39V36ZM13.23,12.77,23.89,33.88H4.24l9-21.11Z"/><g class="cls-5"><rect class="cls-4" y="7.58" width="28.32" height="33.41"/></g><path class="cls-2" d="M75.24,36a1.12,1.12,0,0,0,.92-.53,1,1,0,0,0,.06-1L63.66,9.64a1,1,0,0,0-1-.53,1,1,0,0,0-1,.53L51.21,34.38a1.42,1.42,0,0,0,.09,1.13,1.18,1.18,0,0,0,.88.51H62.37v2.39a1.08,1.08,0,0,0,1.12,1.05,1,1,0,0,0,1.09-1.07V36ZM62.79,12.77,73.45,33.88H53.8l9-21.11Z"/><g class="cls-6"><rect class="cls-4" x="49.56" y="7.58" width="28.32" height="33.41"/></g><path class="cls-4" d="M80.38,13.3h3l1.52,10.2L85.11,25c.12.78.21,1.54.27,2.24l.15,1.87a4.64,4.64,0,0,1,.09.7l.06-.7c.24-2.45.51-4.55.81-6.33l1.61-9.5h2.33L92,22.54c.45,2.71.78,5,.93,7.14.21-2.24.48-4.31.72-6.33l.23-1.45,1.29-8.6H98l-4,22H91.69l-1.58-9.51c0-.08-.12-.61-.27-1.63l-.3-2.21c0-.32-.12-1-.24-2L89.24,19c0,.47-.09.76-.12,1C89,21.2,89,21.9,88.94,22l-.3,2.13c-.15,1-.21,1.52-.24,1.63l-1.67,9.51H84.3Z"/><path class="cls-4" d="M102.21,13.3h3.05v22h-3.05Z"/><path class="cls-4" d="M110.31,13.3h3V32.77h5v2.51h-8Z"/><path class="cls-4" d="M122.51,13.3h3.74a8.59,8.59,0,0,1,2.87.38,4.36,4.36,0,0,1,1.95,1.25,7.79,7.79,0,0,1,1.79,3.56,24.63,24.63,0,0,1,.54,6.09,24.46,24.46,0,0,1-.6,5.92,6.45,6.45,0,0,1-1.91,3.35c-1.11,1-3.08,1.43-5.92,1.43h-2.46Zm3.06,19.38c1.82,0,3.08-.55,3.7-1.63s1-3.21,1-6.35c0-3.41-.3-5.75-.93-7a3.43,3.43,0,0,0-3.38-1.9h-.35Z"/><path class="cls-4" d="M138.3,13.3h8.07v2.5h-5v7h4.46v2.51h-4.46v7.49h5v2.51H138.3Z"/><path class="cls-4" d="M151,13.3h4a5.11,5.11,0,0,1,3.68,1.16A6,6,0,0,1,160.22,19c0,3.15-1.13,5.13-3.14,5.57l4.16,10.7h-3.08L154,24.52V35.28H151ZM154,23c2.37,0,3.23-1,3.23-3.49,0-2.74-.83-3.79-2.72-3.79H154Z"/><path class="cls-4" d="M165.64,13.3h2.84l3,8.77c.87,2.48,1.65,5.13,2.33,7.93a56.38,56.38,0,0,1-.71-8.51V13.3h3v22h-2.88l-3.38-9.88a54,54,0,0,1-1.64-5.89c0-.27-.15-.64-.27-1.14a6.37,6.37,0,0,1,.12,1.08l.15,2.24.18,2.71c0,.32,0,.73,0,1.29l.15,9.59h-3Z"/><path class="cls-4" d="M181.5,13.3h8.08v2.5h-5v7H189v2.51h-4.45v7.49h5v2.51H181.5Z"/><path class="cls-4" d="M201.87,16.65a4.59,4.59,0,0,0-2.52-1,2.49,2.49,0,0,0-1.94.81,2.91,2.91,0,0,0-.78,2.1,3.62,3.62,0,0,0,.54,2,20.29,20.29,0,0,0,2.57,2.79,12.77,12.77,0,0,1,2.52,3.18,7,7,0,0,1,.68,3.18,6.08,6.08,0,0,1-1.49,4.2,4.86,4.86,0,0,1-3.77,1.6,5.52,5.52,0,0,1-3.32-1V31.58a5.17,5.17,0,0,0,3,1.16c1.65,0,2.63-1.16,2.63-3a4.36,4.36,0,0,0-.54-2.16,12.82,12.82,0,0,0-2-2.36,16.14,16.14,0,0,1-3-3.44,6.65,6.65,0,0,1-.69-3.18,5.78,5.78,0,0,1,1.38-4.08A4.73,4.73,0,0,1,198.76,13a7,7,0,0,1,3.11.75Z"/><path class="cls-4" d="M214.88,16.65a4.59,4.59,0,0,0-2.52-1,2.49,2.49,0,0,0-1.94.81,2.91,2.91,0,0,0-.78,2.1,3.62,3.62,0,0,0,.54,2,20.29,20.29,0,0,0,2.57,2.79,12.77,12.77,0,0,1,2.52,3.18,7,7,0,0,1,.68,3.18,6.08,6.08,0,0,1-1.49,4.2,4.86,4.86,0,0,1-3.77,1.6,5.52,5.52,0,0,1-3.32-1V31.58a5.17,5.17,0,0,0,3,1.16c1.65,0,2.63-1.16,2.63-3a4.36,4.36,0,0,0-.54-2.16,12.82,12.82,0,0,0-2-2.36,16.14,16.14,0,0,1-3-3.44,6.65,6.65,0,0,1-.69-3.18,5.78,5.78,0,0,1,1.38-4.08A4.73,4.73,0,0,1,211.77,13a7,7,0,0,1,3.11.75Z"/><path class="cls-4" d="M230.55,13.3h3V32.77h5v2.51h-8Z"/><path class="cls-4" d="M247.9,13.3h2.36l4.81,22h-3L251.22,31h-4.46l-.87,4.29H243Zm2.9,15.39-.69-3.5q-.68-3.59-1.08-7.61c-.27,2.6-.72,5.28-1.28,8.31l-.57,2.8Z"/><path class="cls-4" d="M258.81,13.3h4.13c3.2,0,4.82,1.95,4.82,5.86,0,2.94-.72,4.22-2.85,4.95a4.88,4.88,0,0,1,2.52,1.81,6.41,6.41,0,0,1,.69,3.3c0,4.05-1.77,6.06-5.33,6.06h-4ZM261.68,23a3.18,3.18,0,0,0,2.46-.79,4.84,4.84,0,0,0,.68-3c0-2.36-.86-3.55-2.63-3.55h-.51Zm0,9.76c2.49,0,3.29-.9,3.29-3.61a4.42,4.42,0,0,0-.74-2.95,3.25,3.25,0,0,0-2.55-.84Z"/><path class="cls-4" d="M280.26,16.65a4.59,4.59,0,0,0-2.51-1,2.5,2.5,0,0,0-1.95.81,2.91,2.91,0,0,0-.78,2.1,3.62,3.62,0,0,0,.54,2,20.29,20.29,0,0,0,2.57,2.79,12.77,12.77,0,0,1,2.52,3.18,6.88,6.88,0,0,1,.69,3.18,6.09,6.09,0,0,1-1.5,4.2,4.86,4.86,0,0,1-3.77,1.6,5.52,5.52,0,0,1-3.32-1V31.58a5.17,5.17,0,0,0,3,1.16c1.65,0,2.63-1.16,2.63-3a4.46,4.46,0,0,0-.53-2.16,13.39,13.39,0,0,0-2-2.36,16.44,16.44,0,0,1-3.05-3.44,6.65,6.65,0,0,1-.69-3.18,5.78,5.78,0,0,1,1.38-4.08A4.74,4.74,0,0,1,277.15,13a7,7,0,0,1,3.11.75Z"/></g></g></svg>