<svg id="Layer_1" data-name="Layer 1" xmlns="http://www.w3.org/2000/svg" viewBox="0 0 209.91 126.5"><defs><style>.cls-1{fill:#ececed;}</style></defs><title>meadow-logo-table</title><g id="Meadow_Logo" data-name="Meadow Logo"><path class="cls-1" d="M44.47,127v14.45H41.11V127.13a7.35,7.35,0,1,0-14.69,0v14.35H23.1V127.13a7.37,7.37,0,1,0-14.74,0v14.35H5.09V117H8.36v3.63a9.94,9.94,0,0,1,7.91-4,10.05,10.05,0,0,1,8.86,5.24A10.34,10.34,0,0,1,44.47,127Z" transform="translate(-5.09 -15.37)"/><path class="cls-1" d="M73.54,132.42l2.77,1A13.31,13.31,0,0,1,64,141.63a13,13,0,0,1-12.27-9.07,12.32,12.32,0,0,1-.49-3.52,12.74,12.74,0,0,1,25.37-1.57,2.9,2.9,0,0,1,0,.63L55.09,132a9.32,9.32,0,0,0,9,6.66A10.34,10.34,0,0,0,73.54,132.42Zm-19-4.22c0,.3.05.64.05,1.13L73,126.05a9.65,9.65,0,0,0-9.25-6.71A9.39,9.39,0,0,0,54.54,128.2Z" transform="translate(-5.09 -15.37)"/><path class="cls-1" d="M108,117v24.5h-3.26v-4a12.84,12.84,0,0,1-9.65,4.36A12.64,12.64,0,1,1,104.74,121v-4Zm-3.36,12.25a9.53,9.53,0,1,0-9.5,9.55A9.43,9.43,0,0,0,104.64,129.23Z" transform="translate(-5.09 -15.37)"/><path class="cls-1" d="M140.8,105v36.45h-3.27v-4a12.79,12.79,0,0,1-22.41-8.28A12.79,12.79,0,0,1,137.53,121V105Zm-3.37,24.2a9.52,9.52,0,1,0-9.49,9.55A9.42,9.42,0,0,0,137.43,129.23Z" transform="translate(-5.09 -15.37)"/><path class="cls-1" d="M147.92,129.23a12.77,12.77,0,1,1,12.76,12.64A12.67,12.67,0,0,1,147.92,129.23Zm22.31,0a9.5,9.5,0,1,0-9.5,9.55A9.47,9.47,0,0,0,170.23,129.23Z" transform="translate(-5.09 -15.37)"/><path class="cls-1" d="M215,117l-8.76,24.5H203l-7-20.18-7,20.18h-3.27l-8.7-24.5h3.26l7.08,19.94L194.52,117h3l7.12,19.94L211.73,117Z" transform="translate(-5.09 -15.37)"/><g id="Meadow_Logo-2" data-name="Meadow Logo"><path class="cls-1" d="M81,99.31H25a3.34,3.34,0,0,1-3-1.85,3.39,3.39,0,0,1,.3-3.51L79.2,16.73a3.34,3.34,0,0,1,2.68-1.36h0a3.36,3.36,0,0,1,2.69,1.36l28,38a3.38,3.38,0,0,1-.7,4.71,3.33,3.33,0,0,1-4.67-.7L81.88,24.38,31.67,92.59H81a3.36,3.36,0,0,1,0,6.72Z" transform="translate(-5.09 -15.37)"/><path class="cls-1" d="M194.69,99.31A3.31,3.31,0,0,1,192,98L137.85,24.38,83.68,98a3.32,3.32,0,0,1-4.67.7,3.37,3.37,0,0,1-.69-4.7l56.84-77.22a3.33,3.33,0,0,1,5.37,0L197.38,94a3.38,3.38,0,0,1-.7,4.7A3.28,3.28,0,0,1,194.69,99.31Z" transform="translate(-5.09 -15.37)"/><path class="cls-1" d="M117,88.58a1.59,1.59,0,0,0-2.25-.07l-.07.07-7.82,7.76a1.59,1.59,0,0,0-.11,2.23,1.14,1.14,0,0,0,.11.11,1.55,1.55,0,0,0,2.2.13l.12-.13,6.66-6.63,6.66,6.63a1.59,1.59,0,0,0,1.16.47,1.68,1.68,0,0,0,1.16-.47,1.58,1.58,0,0,0,.11-2.23,1.14,1.14,0,0,0-.11-.11Z" transform="translate(-5.09 -15.37)"/><path class="cls-1" d="M117,80a1.59,1.59,0,0,0-2.25-.08l-.07.08-7.82,7.81a1.59,1.59,0,0,0-.11,2.23,1.14,1.14,0,0,0,.11.11,1.55,1.55,0,0,0,2.2.13l.12-.13,6.66-6.63,6.66,6.63a1.5,1.5,0,0,0,1.16.47,1.66,1.66,0,0,0,1.16-.47,1.58,1.58,0,0,0,.11-2.23,1.14,1.14,0,0,0-.11-.11Z" transform="translate(-5.09 -15.37)"/><path class="cls-1" d="M117,72a1.58,1.58,0,0,0-2.25-.07l-.07.07-7.82,7.83a1.67,1.67,0,0,0,0,2.34,1.64,1.64,0,0,0,2.32,0l6.66-6.64,6.66,6.64a1.54,1.54,0,0,0,1.16.45,1.66,1.66,0,0,0,1.16-.45A1.58,1.58,0,0,0,125,80a.57.57,0,0,0-.11-.11Z" transform="translate(-5.09 -15.37)"/><path class="cls-1" d="M139,88.58a1.57,1.57,0,0,0-2.22-.1l-.1.1-7.78,7.76a1.59,1.59,0,0,0-.11,2.23,1.14,1.14,0,0,0,.11.11,1.59,1.59,0,0,0,1.16.47,1.7,1.7,0,0,0,1.17-.47l6.64-6.63,6.66,6.63a1.62,1.62,0,0,0,2.32,0,1.65,1.65,0,0,0,0-2.34Z" transform="translate(-5.09 -15.37)"/><path class="cls-1" d="M139,80a1.56,1.56,0,0,0-2.22-.11l-.1.11-7.78,7.81a1.62,1.62,0,0,0,0,2.28,1.57,1.57,0,0,0,1.17.48,1.62,1.62,0,0,0,1.17-.47l6.64-6.63,6.66,6.63a1.56,1.56,0,0,0,2.22.11l.1-.11a1.64,1.64,0,0,0,0-2.33h0Z" transform="translate(-5.09 -15.37)"/><path class="cls-1" d="M139,72a1.57,1.57,0,0,0-2.22-.11l-.1.11-7.78,7.83a1.59,1.59,0,0,0-.11,2.23l.11.11a1.57,1.57,0,0,0,1.16.45,1.7,1.7,0,0,0,1.17-.45l6.51-6.64,6.66,6.64a1.65,1.65,0,0,0,2.33-2.34Z" transform="translate(-5.09 -15.37)"/><path class="cls-1" d="M161,88.58a1.56,1.56,0,0,0-2.21-.1l-.11.1-7.76,7.76a1.58,1.58,0,0,0-.11,2.23.57.57,0,0,0,.11.11,1.55,1.55,0,0,0,2.2.13l.12-.13,6.66-6.63,6.59,6.7a1.58,1.58,0,0,0,1.16.46,1.67,1.67,0,0,0,1.16-.46,1.6,1.6,0,0,0,.09-2.25l-.09-.09Z" transform="translate(-5.09 -15.37)"/><path class="cls-1" d="M161,80a1.55,1.55,0,0,0-2.21-.11l-.11.11-7.76,7.81A1.58,1.58,0,0,0,150.8,90l.11.11a1.59,1.59,0,0,0,2.28,0l0,0,6.66-6.63,6.59,6.63a1.56,1.56,0,0,0,1.16.47,1.64,1.64,0,0,0,1.27-2.7l-.11-.11Z" transform="translate(-5.09 -15.37)"/><path class="cls-1" d="M161,72a1.56,1.56,0,0,0-2.21-.11,1.14,1.14,0,0,0-.11.11l-7.76,7.83a1.65,1.65,0,0,0,2.32,2.34l6.66-6.64,6.59,6.64a1.57,1.57,0,0,0,1.16.45,1.61,1.61,0,0,0,1.16-.45,1.59,1.59,0,0,0,.11-2.23l-.11-.11Z" transform="translate(-5.09 -15.37)"/></g></g></svg>