<?xml version="1.0" encoding="utf-8"?>
<!-- Generator: Adobe Illustrator 22.1.0, SVG Export Plug-In . SVG Version: 6.00 Build 0)  -->
<svg version="1.1" id="Layer_1" xmlns="http://www.w3.org/2000/svg" xmlns:xlink="http://www.w3.org/1999/xlink" x="0px" y="0px"
	 viewBox="0 0 762 388.8" style="enable-background:new 0 0 762 388.8;" xml:space="preserve">
<style type="text/css">
	.st0{fill:#393027;fill-opacity:0;}
	.st1{opacity:0.75;}
	.st2{fill:#F8F9F9;}
</style>
<title>meadow-intro-overlay</title>
<g>
	<g id="Banner">
		<rect x="-371" y="917.4" class="st0" width="1280" height="600"/>
		<g class="st1">
			<path class="st2" d="M264.7,360.4H32.4c-5.3,0-10-3-12.4-7.7c-2.3-4.7-1.9-10.3,1.3-14.6L257.2,17.7c2.6-3.5,6.7-5.6,11.1-5.6
				l0,0c4.4,0,8.5,2.1,11.1,5.6l116.1,157.8c4.6,6.2,3.3,14.9-2.9,19.5c-6.1,4.6-14.8,3.3-19.3-2.8c0,0-0.1-0.1-0.1-0.1l-105-142.6
				L59.9,332.5h204.7c7.7,0.6,13.5,7.3,12.9,15C277,354.4,271.6,359.9,264.7,360.4z"/>
			<path class="st2" d="M736.6,360.4c-4.4,0-8.5-2.1-11.2-5.7L500.6,49.4L275.8,354.8c-4.5,6.1-13.1,7.5-19.3,3c0,0-0.1-0.1-0.1-0.1
				c-6.2-4.6-7.5-13.3-2.9-19.5L489.5,17.7c4.5-6.2,13.1-7.5,19.3-3c1.1,0.8,2.1,1.8,3,3l235.9,320.5c4.6,6.2,3.3,14.9-2.9,19.5
				C742.4,359.5,739.5,360.4,736.6,360.4z"/>
			<path class="st2" d="M414.3,315.9c-2.5-2.7-6.6-2.8-9.3-0.3c0,0,0,0,0,0l-0.3,0.3l-32.5,32.2c-2.7,2.4-2.9,6.6-0.5,9.3
				c0.2,0.2,0.3,0.3,0.5,0.5c2.4,2.7,6.4,2.9,9.1,0.6c0,0,0,0,0,0c0.2-0.2,0.3-0.3,0.5-0.5l27.6-27.5l27.6,27.5c1.3,1.3,3,2,4.8,1.9
				c1.8,0,3.5-0.7,4.8-1.9c2.7-2.4,2.9-6.6,0.4-9.3c-0.1-0.2-0.3-0.3-0.4-0.5L414.3,315.9z"/>
			<path class="st2" d="M414.3,280.2c-2.5-2.7-6.6-2.8-9.3-0.3c0,0,0,0,0,0l-0.3,0.3l-32.5,32.4c-2.7,2.4-2.9,6.6-0.5,9.3l0.5,0.5
				c2.4,2.7,6.4,2.9,9.1,0.5c0,0,0,0,0,0c0.2-0.2,0.3-0.3,0.5-0.5l27.6-27.5l27.6,27.5c1.3,1.3,3,2,4.8,1.9c1.8,0,3.5-0.7,4.8-1.9
				c2.7-2.4,2.9-6.6,0.4-9.3c-0.1-0.2-0.3-0.3-0.4-0.5L414.3,280.2z"/>
			<path class="st2" d="M414.3,247.2c-2.5-2.7-6.6-2.8-9.3-0.3c0,0,0,0,0,0c-0.1,0.1-0.2,0.2-0.3,0.3l-32.5,32.5
				c-2.7,2.7-2.7,7,0,9.7c2.6,2.7,7,2.7,9.6,0c0,0,0,0,0,0l27.6-27.5l27.6,27.5c1.3,1.3,3,2,4.8,1.9c1.8,0,3.5-0.7,4.8-1.9
				c2.7-2.4,2.9-6.6,0.4-9.3c-0.1-0.2-0.3-0.3-0.4-0.5L414.3,247.2z"/>
			<path class="st2" d="M505.5,315.9c-2.4-2.7-6.5-2.9-9.2-0.5c0,0,0,0,0,0c-0.2,0.1-0.3,0.3-0.5,0.5l-32.3,32.2
				c-2.7,2.4-2.9,6.6-0.5,9.3c0.1,0.2,0.3,0.3,0.5,0.5c1.3,1.3,3,2,4.8,1.9c1.8,0,3.5-0.7,4.8-1.9l27.6-27.5l27.6,27.5
				c2.6,2.7,6.9,2.7,9.6,0.1c0,0,0,0,0.1-0.1c2.7-2.7,2.7-7,0-9.7L505.5,315.9z"/>
			<path class="st2" d="M505.5,280.2c-2.4-2.7-6.5-2.9-9.2-0.5c0,0,0,0,0,0c-0.2,0.1-0.3,0.3-0.5,0.5l-32.3,32.4
				c-2.6,2.6-2.7,6.8,0,9.5c1.3,1.3,3,2,4.9,2c1.8,0,3.5-0.7,4.8-2l27.6-27.5l27.6,27.5c2.4,2.7,6.5,2.9,9.1,0.5c0,0,0,0,0.1,0
				c0.2-0.1,0.3-0.3,0.5-0.5c2.7-2.7,2.7-7,0-9.7l0,0L505.5,280.2z"/>
			<path class="st2" d="M505.5,247.2c-2.4-2.7-6.5-2.9-9.2-0.5c0,0,0,0,0,0c-0.2,0.1-0.3,0.3-0.5,0.5l-32.3,32.5
				c-2.7,2.4-2.9,6.6-0.5,9.3c0.1,0.2,0.3,0.3,0.5,0.5c1.3,1.3,3,1.9,4.8,1.9c1.8,0,3.5-0.7,4.8-1.9l27.1-27.5l27.6,27.5
				c2.6,2.7,7,2.7,9.6,0c0,0,0,0,0,0c2.7-2.7,2.7-7,0-9.7L505.5,247.2z"/>
			<path class="st2" d="M596.7,315.9c-2.4-2.7-6.5-2.9-9.2-0.5c0,0,0,0,0,0c-0.2,0.1-0.3,0.3-0.4,0.5l-32.2,32.2
				c-2.7,2.4-2.9,6.6-0.5,9.3c0.1,0.2,0.3,0.3,0.5,0.5c2.4,2.7,6.4,2.9,9.1,0.6c0,0,0,0,0,0c0.2-0.2,0.4-0.3,0.5-0.5l27.6-27.5
				l27.4,27.8c1.3,1.3,3,2,4.8,1.9c1.8,0,3.5-0.7,4.8-1.9c2.7-2.5,2.8-6.6,0.4-9.3c-0.1-0.1-0.2-0.3-0.4-0.4L596.7,315.9z"/>
			<path class="st2" d="M596.7,280.2c-2.4-2.7-6.5-2.9-9.2-0.5c0,0,0,0,0,0c-0.2,0.1-0.3,0.3-0.4,0.5l-32.2,32.4
				c-2.7,2.4-2.9,6.6-0.5,9.3l0.5,0.5c2.6,2.7,6.8,2.8,9.4,0.2c0,0,0,0,0,0l0.2-0.2l27.6-27.5l27.4,27.5c1.3,1.3,3,2,4.8,1.9
				c1.8,0,3.5-0.7,4.8-1.9c2.7-2.4,2.9-6.6,0.4-9.3c-0.1-0.2-0.3-0.3-0.4-0.5L596.7,280.2z"/>
			<path class="st2" d="M596.7,247.2c-2.4-2.7-6.5-2.9-9.2-0.5c0,0,0,0,0,0c-0.2,0.1-0.3,0.3-0.4,0.5l-32.2,32.5
				c-2.7,2.7-2.7,7,0,9.7c2.6,2.7,6.9,2.7,9.6,0.1c0,0,0,0,0.1-0.1l27.6-27.5l27.4,27.5c1.3,1.3,3,2,4.8,1.9c1.8,0,3.5-0.7,4.8-1.9
				c2.7-2.4,2.9-6.6,0.4-9.3c-0.1-0.2-0.3-0.3-0.4-0.5L596.7,247.2z"/>
		</g>
	</g>
</g>
</svg>
