<svg id="Layer_1" data-name="Layer 1" xmlns="http://www.w3.org/2000/svg" viewBox="0 0 700.77 122.3"><defs><style>.cls-1{fill:#eee;}</style></defs><title>netduino-logo</title><path class="cls-1" d="M659.1,24.3a9.61,9.61,0,0,1-1.7,5.9,5.3,5.3,0,0,1-4.6,2.2,6.17,6.17,0,0,1-3.1-.7,5.3,5.3,0,0,1-2.1-2.1l-.2,2.5h-1.6V8.4h1.8v9.8a5.3,5.3,0,0,1,2.1-2.1,5.79,5.79,0,0,1,3-.7,5.23,5.23,0,0,1,4.6,2.4,10.92,10.92,0,0,1,1.7,6.3l.1.2Zm-1.8-.4a9.63,9.63,0,0,0-1.2-5.1,4,4,0,0,0-3.6-2,4.48,4.48,0,0,0-3,.9,5.27,5.27,0,0,0-1.7,2.4v7.4a5.17,5.17,0,0,0,1.8,2.3,4.82,4.82,0,0,0,3,.8,4,4,0,0,0,3.6-1.8,8.41,8.41,0,0,0,1.2-4.7l-.1-.2Z" transform="translate(-1.03 -0.95)"/><path class="cls-1" d="M669.3,32.3a6.61,6.61,0,0,1-5.1-2.3,8,8,0,0,1-2-5.8v-.8a8.69,8.69,0,0,1,2-5.8,6.36,6.36,0,0,1,4.9-2.3,5.83,5.83,0,0,1,4.7,1.9,7.65,7.65,0,0,1,1.7,5.1v1.5H664v.4a7.07,7.07,0,0,0,1.5,4.6,4.93,4.93,0,0,0,3.9,1.9,8.36,8.36,0,0,0,2.9-.5,5.78,5.78,0,0,0,2-1.3l.8,1.2a6.13,6.13,0,0,1-2.3,1.5A8.12,8.12,0,0,1,669.3,32.3Zm-.2-15.4a4.48,4.48,0,0,0-3.4,1.5,6.9,6.9,0,0,0-1.6,3.8v.1h9.6v-.5a5.15,5.15,0,0,0-1.3-3.6A4.16,4.16,0,0,0,669.1,16.9Z" transform="translate(-1.03 -0.95)"/><path class="cls-1" d="M682,11.4v4.2h3.6v1.5H682V27.8a3.52,3.52,0,0,0,.6,2.3,2.18,2.18,0,0,0,1.6.7h.9c.3,0,.6-.1,1-.1l.3,1.3c-.3.1-.7.2-1.1.3a5.7,5.7,0,0,1-1.3.1,3.53,3.53,0,0,1-2.7-1.1,4.89,4.89,0,0,1-1-3.5V17.1h-2.8V15.6h2.8V11.4Z" transform="translate(-1.03 -0.95)"/><path class="cls-1" d="M699.8,32c-.1-.6-.2-1-.3-1.4a4.87,4.87,0,0,1-.1-1.2,6.11,6.11,0,0,1-2.4,2.1,6.35,6.35,0,0,1-3.4.8,4.92,4.92,0,0,1-3.7-1.3,4.38,4.38,0,0,1-1.3-3.4,4.23,4.23,0,0,1,2-3.6,9.25,9.25,0,0,1,5.3-1.4h3.6v-2a3.76,3.76,0,0,0-1.1-2.8,4.55,4.55,0,0,0-3.2-1,4.45,4.45,0,0,0-3.1,1,2.8,2.8,0,0,0-1.2,2.3h-1.7V20a3.89,3.89,0,0,1,1.7-3.3,6.73,6.73,0,0,1,4.5-1.4,6.82,6.82,0,0,1,4.4,1.4,4.8,4.8,0,0,1,1.6,4v8.1a9.7,9.7,0,0,0,.1,1.7c.1.5.2,1.1.3,1.6h-2V32Zm-6-1.3a6.76,6.76,0,0,0,3.5-.9,6,6,0,0,0,2.2-2.3V24h-3.6a6.45,6.45,0,0,0-3.9,1.1,3.14,3.14,0,0,0-1.5,2.6,2.94,2.94,0,0,0,.9,2.2A3.46,3.46,0,0,0,693.8,30.7Z" transform="translate(-1.03 -0.95)"/><g id="Netduino.Foundation-Copy"><path class="cls-1" d="M19.3,65H13V21.4A8.93,8.93,0,0,1,14.4,16a4.9,4.9,0,0,1,4.1-1.9,5.43,5.43,0,0,1,3.4,1.2,12.07,12.07,0,0,1,2.8,3.8L42.8,56.8V14.7h6.4V58.4a9.37,9.37,0,0,1-1.4,5.4,4.41,4.41,0,0,1-3.9,1.9,5.5,5.5,0,0,1-3.5-1.2,10.72,10.72,0,0,1-2.8-3.8l-18.3-38ZM90.6,49.7a20.58,20.58,0,0,1-6,11.7,16,16,0,0,1-11.4,4.3,17.4,17.4,0,0,1-4.5-.6,15.67,15.67,0,0,1-4.2-1.8,17.59,17.59,0,0,1-6.4-6.6,18.25,18.25,0,0,1-2.3-9,17.16,17.16,0,0,1,1.3-6.8,20.07,20.07,0,0,1,3.8-5.8,18.11,18.11,0,0,1,5.7-3.9,17,17,0,0,1,6.7-1.3,16.25,16.25,0,0,1,9.4,2.8,19.73,19.73,0,0,1,6.7,8L66.8,53.1l-2.6-4.7L81,39.1a11,11,0,0,0-3.5-2.6,9.9,9.9,0,0,0-4.2-.9,10.19,10.19,0,0,0-7.8,3.5,12.37,12.37,0,0,0-3.2,8.6,12.12,12.12,0,0,0,3.2,8.5,10.19,10.19,0,0,0,7.8,3.5,10.43,10.43,0,0,0,7.4-2.9,13.33,13.33,0,0,0,3.7-8Zm5.9-28.3h6.2v9.1h10.4v5.8H102.7V51.1c0,2.8.7,4.8,2,6.1s3.5,1.9,6.5,1.9h2V65h-2c-4.9,0-8.5-1.1-11-3.2s-3.6-5.3-3.6-9.6l-.1-30.8Zm55.8-6.7V45a41.56,41.56,0,0,1-.4,7,14.59,14.59,0,0,1-1.5,4.3,16.24,16.24,0,0,1-6.3,6.9,17.76,17.76,0,0,1-9.1,2.5,16.36,16.36,0,0,1-12.4-5.1,18.08,18.08,0,0,1-4.9-12.8,18.38,18.38,0,0,1,1.2-6.6,18.66,18.66,0,0,1,3.5-5.7,15.12,15.12,0,0,1,5.6-4,17.6,17.6,0,0,1,6.8-1.4,19.93,19.93,0,0,1,4.9.6,17,17,0,0,1,4.4,1.8v6.6a15.5,15.5,0,0,0-4.3-2.4,13.17,13.17,0,0,0-4.4-.8,10.79,10.79,0,0,0-8.2,3.4,12.52,12.52,0,0,0-3.2,8.8,12.13,12.13,0,0,0,3.1,8.6,10.48,10.48,0,0,0,8,3.3,9.87,9.87,0,0,0,7.9-3.4,12.93,12.93,0,0,0,3.1-8.8v-33l6.2-.1Zm36.6,15.8V49.3c0,5-1.3,9-4,11.9a15.21,15.21,0,0,1-21.4,0c-2.7-2.9-4-6.9-4-11.9V30.5h6.2V50.4a9.24,9.24,0,0,0,2.4,6.6,8.16,8.16,0,0,0,6.1,2.6,7.85,7.85,0,0,0,6.1-2.6,9.24,9.24,0,0,0,2.4-6.6V30.5ZM197,65V30.5h6.2V65Zm-.7-44.3a3.63,3.63,0,0,1,1.1-2.6,3.69,3.69,0,0,1,2.7-1.1,3.86,3.86,0,0,1,2.7,1.1,3.34,3.34,0,0,1,1.1,2.7,3.76,3.76,0,0,1-3.8,3.8,4,4,0,0,1-2.7-1.1A3.55,3.55,0,0,1,196.3,20.7ZM211.2,65V46.2c0-5,1.3-9,4-11.9a15.21,15.21,0,0,1,21.4,0c2.7,2.9,4,6.9,4,11.9V65h-6.1V45.1a9.24,9.24,0,0,0-2.4-6.6,8.46,8.46,0,0,0-12.2,0,9.24,9.24,0,0,0-2.4,6.6V65Zm41.7-17.4a12.12,12.12,0,0,0,3.2,8.5,10.19,10.19,0,0,0,7.8,3.5,10.34,10.34,0,0,0,7.8-3.5,11.85,11.85,0,0,0,3.2-8.5,12.3,12.3,0,0,0-3.2-8.5,10.19,10.19,0,0,0-7.8-3.5,10.49,10.49,0,0,0-7.8,3.5A12.47,12.47,0,0,0,252.9,47.6Zm-6.4.1a17.16,17.16,0,0,1,1.3-6.8,18.52,18.52,0,0,1,3.9-5.8,15.93,15.93,0,0,1,5.6-3.8,16.54,16.54,0,0,1,6.6-1.3,17,17,0,0,1,6.7,1.3,17.91,17.91,0,0,1,5.6,3.8,17.17,17.17,0,0,1,3.8,5.8,18,18,0,0,1,1.3,6.9,17.66,17.66,0,0,1-1.3,6.9,20.07,20.07,0,0,1-3.8,5.8,15.08,15.08,0,0,1-5.6,3.8,18.58,18.58,0,0,1-6.7,1.3,15.88,15.88,0,0,1-6.6-1.3,19.14,19.14,0,0,1-5.6-3.8,18.52,18.52,0,0,1-3.9-5.8A18.15,18.15,0,0,1,246.5,47.7Zm42.6,13.7a4.2,4.2,0,1,1,8.4,0,4.1,4.1,0,0,1-4.1,4.1,4.27,4.27,0,0,1-4.3-4.1ZM307.2,65V32.2c0-5.9,1.5-10.3,4.4-13.2s7.4-4.3,13.4-4.3h7.2v6.2h-8.3c-3.2,0-5.7.9-7.4,2.7s-2.6,4.3-2.6,7.6v5.6h18.4V43H313.9V65ZM344,47.6a12.12,12.12,0,0,0,3.2,8.5,10.19,10.19,0,0,0,7.8,3.5,10.34,10.34,0,0,0,7.8-3.5,11.85,11.85,0,0,0,3.2-8.5,12.3,12.3,0,0,0-3.2-8.5,10.19,10.19,0,0,0-7.8-3.5,10.49,10.49,0,0,0-7.8,3.5A11.85,11.85,0,0,0,344,47.6Zm-6.5.1a17.16,17.16,0,0,1,1.3-6.8,18.52,18.52,0,0,1,3.9-5.8,15.93,15.93,0,0,1,5.6-3.8,18.47,18.47,0,0,1,6.6-1.3,17,17,0,0,1,6.7,1.3,17.91,17.91,0,0,1,5.6,3.8,17.17,17.17,0,0,1,3.8,5.8,18,18,0,0,1,1.3,6.9,17.66,17.66,0,0,1-1.3,6.9,20.07,20.07,0,0,1-3.8,5.8,15.08,15.08,0,0,1-5.6,3.8,18.58,18.58,0,0,1-6.7,1.3,15.88,15.88,0,0,1-6.6-1.3,20.55,20.55,0,0,1-5.6-3.8,18.52,18.52,0,0,1-3.9-5.8A18.15,18.15,0,0,1,337.5,47.7Zm70.1-17.2V49.3c0,5-1.3,9-4,11.9a15.21,15.21,0,0,1-21.4,0c-2.7-2.9-4-6.9-4-11.9V30.5h6.2V50.4a9.24,9.24,0,0,0,2.4,6.6,8.16,8.16,0,0,0,6.1,2.6A7.85,7.85,0,0,0,399,57a9.7,9.7,0,0,0,2.4-6.6V30.5ZM415.2,65V46.2c0-5,1.3-9,4-11.9a15.21,15.21,0,0,1,21.4,0c2.7,2.9,4,6.9,4,11.9V65h-6.1V45.1a9.24,9.24,0,0,0-2.4-6.6,8.46,8.46,0,0,0-12.2,0,9.24,9.24,0,0,0-2.4,6.6V65Zm70.1-50.3V45a41.56,41.56,0,0,1-.4,7,14.59,14.59,0,0,1-1.5,4.3,16.24,16.24,0,0,1-6.3,6.9,17.76,17.76,0,0,1-9.1,2.5,16.36,16.36,0,0,1-12.4-5.1,18.08,18.08,0,0,1-4.9-12.8,18.38,18.38,0,0,1,1.2-6.6,18.66,18.66,0,0,1,3.5-5.7,15.12,15.12,0,0,1,5.6-4,17.6,17.6,0,0,1,6.8-1.4,19.93,19.93,0,0,1,4.9.6,17,17,0,0,1,4.4,1.8v6.6a15.5,15.5,0,0,0-4.3-2.4,13.17,13.17,0,0,0-4.4-.8,10.79,10.79,0,0,0-8.2,3.4,12.09,12.09,0,0,0-3.2,8.8,12.13,12.13,0,0,0,3.1,8.6,10.14,10.14,0,0,0,8,3.3,9.87,9.87,0,0,0,7.9-3.4,12.93,12.93,0,0,0,3.1-8.8v-33l6.2-.1ZM519.4,65V47.8a12.46,12.46,0,0,0-3.1-8.8,10.16,10.16,0,0,0-7.9-3.4,10.63,10.63,0,0,0-8,3.3,12,12,0,0,0-3.1,8.6,12.52,12.52,0,0,0,3.2,8.8,10.65,10.65,0,0,0,8.2,3.4,13.17,13.17,0,0,0,4.4-.8,17,17,0,0,0,4.3-2.4v6.6a18.54,18.54,0,0,1-4.4,1.8,19.35,19.35,0,0,1-4.9.6,16.74,16.74,0,0,1-4.9-.8,16.25,16.25,0,0,1-4.4-2.1,16.66,16.66,0,0,1-5.7-6.4,18.79,18.79,0,0,1-2-8.6A17.49,17.49,0,0,1,496,34.8a16.43,16.43,0,0,1,12.4-5,17.09,17.09,0,0,1,9.1,2.5,15.59,15.59,0,0,1,6.3,6.9,14.59,14.59,0,0,1,1.5,4.3,41.56,41.56,0,0,1,.4,7V65Zm13.7-43.6h6.2v9.1h10.4v5.8H539.3V51.1c0,2.8.7,4.8,2,6.1s3.5,1.9,6.5,1.9h2V65h-2c-4.9,0-8.5-1.1-11-3.2s-3.6-5.3-3.6-9.6V21.4ZM556.2,65V30.5h6.2V65Zm-.7-44.3a3.63,3.63,0,0,1,1.1-2.6,3.69,3.69,0,0,1,2.7-1.1,3.86,3.86,0,0,1,2.7,1.1,3.34,3.34,0,0,1,1.1,2.7,3.76,3.76,0,0,1-3.8,3.8,4,4,0,0,1-2.7-1.1A3.55,3.55,0,0,1,555.5,20.7Zm19.7,26.9a12.12,12.12,0,0,0,3.2,8.5,10.19,10.19,0,0,0,7.8,3.5,10.34,10.34,0,0,0,7.8-3.5,11.85,11.85,0,0,0,3.2-8.5,12.3,12.3,0,0,0-3.2-8.5,10.19,10.19,0,0,0-7.8-3.5,10.49,10.49,0,0,0-7.8,3.5A11.85,11.85,0,0,0,575.2,47.6Zm-6.4.1a17.16,17.16,0,0,1,1.3-6.8,18.52,18.52,0,0,1,3.9-5.8,15.93,15.93,0,0,1,5.6-3.8,18.47,18.47,0,0,1,6.6-1.3,17,17,0,0,1,6.7,1.3,17.91,17.91,0,0,1,5.6,3.8,17.17,17.17,0,0,1,3.8,5.8,18,18,0,0,1,1.3,6.9,17.66,17.66,0,0,1-1.3,6.9,20.07,20.07,0,0,1-3.8,5.8,15.08,15.08,0,0,1-5.6,3.8,18.58,18.58,0,0,1-6.7,1.3,15.88,15.88,0,0,1-6.6-1.3,20.55,20.55,0,0,1-5.6-3.8,18.52,18.52,0,0,1-3.9-5.8A18.15,18.15,0,0,1,568.8,47.7ZM609.5,65V46.2c0-5,1.3-9,4-11.9a15.21,15.21,0,0,1,21.4,0c2.7,2.9,4,6.9,4,11.9V65h-6.1V45.1a9.24,9.24,0,0,0-2.4-6.6,8.46,8.46,0,0,0-12.2,0,9.24,9.24,0,0,0-2.4,6.6V65Z" transform="translate(-1.03 -0.95)"/></g><g id="Path-2"><path class="cls-1" d="M645,77.05H24.9c-4.95-.16-7.68-2.26-9.11-4C14,70.89,13,67.93,12.76,64l6.48-.42c.17,2.51.68,4.26,1.57,5.34s2.25,1.55,4.25,1.62H645Z" transform="translate(-1.03 -0.95)"/></g><g id="Path-3"><path class="cls-1" d="M587.62,95.34l-6.44-.88A3.72,3.72,0,0,0,580,91.23c-.42-.45-2-1.53-8-1.88L15.64,90.55l-.44-.13A18.55,18.55,0,0,1,4.72,83.25c-2.35-3.3-3.56-8.87-3.67-17V14.87c-.27-3.1,2-6,4.26-8.47A16,16,0,0,1,15.69,1L16,1H35.52a13.61,13.61,0,0,1,9.73,4.71,14.45,14.45,0,0,1,3.9,9.1l-6.5.26a8.16,8.16,0,0,0-2.3-5.1,7.17,7.17,0,0,0-5.16-2.48h-19a9.77,9.77,0,0,0-6.08,3.35c-2.16,2.35-2.5,3.36-2.56,3.57l0,.33V66.2C7.66,74.47,9,78,10,79.51a11.87,11.87,0,0,0,6.54,4.54l555.61-1.2h.09c6.43.37,10.28,1.58,12.49,3.92A10.21,10.21,0,0,1,587.62,95.34ZM7.53,14.41Z" transform="translate(-1.03 -0.95)"/></g><g id="Oval"><path class="cls-1" d="M656,88.25A14.25,14.25,0,1,1,670.25,74,14.26,14.26,0,0,1,656,88.25Zm0-22A7.75,7.75,0,1,0,663.75,74,7.76,7.76,0,0,0,656,66.25Z" transform="translate(-1.03 -0.95)"/></g><g id="Oval-Copy"><path class="cls-1" d="M584,123.25A14.25,14.25,0,1,1,598.25,109,14.26,14.26,0,0,1,584,123.25Zm0-22a7.75,7.75,0,1,0,7.75,7.75A7.76,7.76,0,0,0,584,101.25Z" transform="translate(-1.03 -0.95)"/></g></svg>