<svg id="Layer_1" data-name="Layer 1" xmlns="http://www.w3.org/2000/svg" viewBox="0 0 197.54 139.03"><defs><style>.cls-1{fill:#7cc08e;}</style></defs><title>raspberrypi</title><g id="Raspberry_Logo" data-name="Raspberry Logo"><g id="g1003"><g id="g972"><path id="path36" class="cls-1" d="M13.5,108.52a14.29,14.29,0,0,1,1.69.4,7.95,7.95,0,0,1,2.93,13.44l-.21.19h0a6.3,6.3,0,0,1,1.77,2.23,7.15,7.15,0,0,1,.71,3,16.63,16.63,0,0,0,.13,2.09.55.55,0,0,0,.25.35,2,2,0,0,1-.92,3.81,3.05,3.05,0,0,1-2.94-2,8.93,8.93,0,0,1-.62-2.93,11.48,11.48,0,0,0-.1-1.86,3.38,3.38,0,0,0-2.08-2.49,4.5,4.5,0,0,0-2.29-.54H8.24v8a2.1,2.1,0,0,1-1.92,2.08,2.07,2.07,0,0,1-2.08-1.58V110.14a2.34,2.34,0,0,1,1.62-1.62H13.5Zm-5.33,8v3.46c0,.33,0,.43.42.43h4a4.24,4.24,0,0,0,1-.1,3.8,3.8,0,0,0,3-4.16,3.89,3.89,0,0,0-3.87-3.42H8.57c-.33,0-.38.13-.38.4,0,1.1,0,2.21,0,3.41Z" transform="translate(-4.24 -2.56)"/><path id="path38" class="cls-1" d="M88.39,108.52A2.09,2.09,0,0,1,90,110a3.79,3.79,0,0,1,.1,1v6.6a8.9,8.9,0,0,1,12.14,2.08,9.5,9.5,0,0,1,0,11.37,9.2,9.2,0,0,1-3.46,2.85,8.7,8.7,0,0,1-4.47.75A9.74,9.74,0,0,1,90.09,133a2,2,0,0,1-4-.25.34.34,0,0,1,0-.1V111a2.28,2.28,0,0,1,1.64-2.5h.77Zm11.67,16.65a5.62,5.62,0,0,0-.23-1.33,5,5,0,0,0-6-3.64,5.34,5.34,0,0,0-3.57,6.67,5.52,5.52,0,0,0,.47,1.09,4.93,4.93,0,0,0,5.14,2.52,5.24,5.24,0,0,0,4.2-5.31Z" transform="translate(-4.24 -2.56)"/><path id="path40" class="cls-1" d="M64.76,141.59a8.29,8.29,0,0,1-1-.75,1.74,1.74,0,0,1-.45-1.31V118.05a2,2,0,0,1,4-.75v.11a9,9,0,0,1,8.33-.88,8.88,8.88,0,0,1,4.33,3.65,9.41,9.41,0,0,1-.77,11.17,8.66,8.66,0,0,1-5.56,3A8.86,8.86,0,0,1,67.32,133v6.41a2.09,2.09,0,0,1-1.49,2.08H64.76Zm12.49-16.27a5.72,5.72,0,0,0-.85-3,4.84,4.84,0,0,0-6.64-1.62,5.72,5.72,0,0,0-.65.48,5.64,5.64,0,0,0-.37,7.82,4.78,4.78,0,0,0,4.79,1.4,5.19,5.19,0,0,0,3.78-5.1Z" transform="translate(-4.24 -2.56)"/><path id="path42" class="cls-1" d="M187.69,108.52a13.68,13.68,0,0,1,1.68.4,7.72,7.72,0,0,1,5.54,6.76,7.89,7.89,0,0,1-6.54,8.66,10,10,0,0,1-1.45.14h-4.56v8.1a2.08,2.08,0,0,1-2.19,2,2.06,2.06,0,0,1-1.74-1.14,2,2,0,0,1-.17-.81v-22a2.07,2.07,0,0,1,1.5-1.93h8Zm-5.33,7.93V120c0,.21,0,.35.27.33h4.87a3.7,3.7,0,0,0,3.33-3.78,3.86,3.86,0,0,0-3.89-3.83h-4.16c-.32,0-.36.1-.36.37-.06,1.06-.06,2.19-.06,3.37Z" transform="translate(-4.24 -2.56)"/><path id="path44" class="cls-1" d="M201.78,132.69a.65.65,0,0,1-.13.47,2.08,2.08,0,0,1-3.93-.54V118.05a2.08,2.08,0,0,1,4-.2v14.84Z" transform="translate(-4.24 -2.56)"/><path id="path46" class="cls-1" d="M201.78,111.39a6.57,6.57,0,0,1-.23.79,2,2,0,0,1-3.81-.77,6.09,6.09,0,0,1,0-1.35,2.08,2.08,0,0,1,1.6-1.54h.77a2.07,2.07,0,0,1,1.44,1.21,2.39,2.39,0,0,0,.21.73v.93Z" transform="translate(-4.24 -2.56)"/><path id="path48" class="cls-1" d="M167.52,133.85a23.34,23.34,0,0,1-2.46.63,7.38,7.38,0,0,1-6.24-2.09,7.69,7.69,0,0,1-2.5-5.89v-8.59a2.1,2.1,0,0,1,1.46-1.92,1.88,1.88,0,0,1,2.2.94,2.91,2.91,0,0,1,.25,1.23v8.55a3.75,3.75,0,0,0,2.61,3.69,3.9,3.9,0,0,0,4.28-1.52,3.63,3.63,0,0,0,.65-2.08V118a2,2,0,0,1,1.37-2,2.1,2.1,0,0,1,2.29.92,2.29,2.29,0,0,1,.25,1v14.22a8.83,8.83,0,0,1-8.93,8.72A8.92,8.92,0,0,1,159,140a1.91,1.91,0,0,1,.7-3.68,2.16,2.16,0,0,1,1,.23,4.93,4.93,0,0,0,6.54-2.33Z" transform="translate(-4.24 -2.56)"/><path id="path50" class="cls-1" d="M37.4,117.57a6.76,6.76,0,0,1,.56-.87,1.87,1.87,0,0,1,2.08-.6,2.08,2.08,0,0,1,1.35,1.83v14.59a2,2,0,0,1-1.73,2.08,1.92,1.92,0,0,1-1.95-1c0-.17-.17-.33-.25-.54A8.67,8.67,0,0,1,25.39,131a9.11,9.11,0,0,1-1.15-2.29,9.43,9.43,0,0,1,1.23-9.22,8.34,8.34,0,0,1,8-3.44A8.1,8.1,0,0,1,37,117.35Zm-9.85,8.12a9.85,9.85,0,0,0,.25,1.44,4.6,4.6,0,0,0,3.5,3.35,4.69,4.69,0,0,0,4.58-1.35,5.78,5.78,0,0,0,0-7.6,4.71,4.71,0,0,0-6.1-.77A5.56,5.56,0,0,0,27.55,125.69Z" transform="translate(-4.24 -2.56)"/><path id="path52" class="cls-1" d="M111.68,126.65a4.76,4.76,0,0,0,2.41,3.35,6.07,6.07,0,0,0,5.66.21,3.29,3.29,0,0,0,.77-.5,1.9,1.9,0,0,1,2.68.12,2,2,0,0,1,.47.94,1.44,1.44,0,0,1-.5,1.39,9.39,9.39,0,1,1-9.74-15.67,8.89,8.89,0,0,1,11.46,5.14,8.35,8.35,0,0,1,.48,1.81,9.65,9.65,0,0,1,.15,1,1.87,1.87,0,0,1-1.59,2.09,2,2,0,0,1-.49,0H111.68Zm10.4-3.18a6,6,0,0,0-5.82-4,5.06,5.06,0,0,0-4.73,3.91h10.41Z" transform="translate(-4.24 -2.56)"/><path id="path54" class="cls-1" d="M52.71,116a8.65,8.65,0,0,1,4.4,1.27c.41.25.81.5,1.2.77A2,2,0,0,1,56,121.28,8,8,0,0,0,53.48,120a3.77,3.77,0,0,0-3.12.58,2.13,2.13,0,0,0-.31.29.69.69,0,0,0-.11,1,.65.65,0,0,0,.26.2,6.41,6.41,0,0,0,2.33.85,16,16,0,0,1,4.66,1.54,4.94,4.94,0,0,1,2.64,3.73,4.88,4.88,0,0,1-1.43,4.16,7.32,7.32,0,0,1-4.17,2.08,10,10,0,0,1-8.32-2.49,2.09,2.09,0,0,1-.27-2.59,1.94,1.94,0,0,1,2.66-.62l.06,0a4.07,4.07,0,0,1,.48.33,6.72,6.72,0,0,0,3.69,1.54,4.73,4.73,0,0,0,2.7-.62,1.57,1.57,0,0,0,.42-.35.94.94,0,0,0,.23-1.31,1,1,0,0,0-.44-.34,9.24,9.24,0,0,0-3.27-1.1,10.89,10.89,0,0,1-4-1.5,4.7,4.7,0,0,1-.55-7.53,7,7,0,0,1,4.17-1.81Z" transform="translate(-4.24 -2.56)"/><path id="path56" class="cls-1" d="M132.89,118.1a6.73,6.73,0,0,1,3.45-1.84,9.71,9.71,0,0,1,2.08-.2,1.87,1.87,0,0,1,1.75,1.91,1.94,1.94,0,0,1-1.75,1.94,4.66,4.66,0,0,0-3.85,2.08,10.76,10.76,0,0,0-1.6,2.89,3.81,3.81,0,0,0-.27,1.42v6.34a2.08,2.08,0,0,1-2.41,1.69,2.05,2.05,0,0,1-1.52-1.17,2,2,0,0,1,0-.6V118a1.91,1.91,0,0,1,1.45-2,2.1,2.1,0,0,1,2.25.88A6.42,6.42,0,0,1,132.89,118.1Z" transform="translate(-4.24 -2.56)"/><path id="path58" class="cls-1" d="M147.31,118.16a7,7,0,0,1,3.93-2.08,6.05,6.05,0,0,1,2.08,0A1.8,1.8,0,0,1,154.7,118a2,2,0,0,1-1.9,1.83,4.61,4.61,0,0,0-3.7,2.08,10.54,10.54,0,0,0-1.69,3.15,2.83,2.83,0,0,0-.14.87v6.43a2.09,2.09,0,0,1-1.79,2.19,2,2,0,0,1-2.2-1.64s0-.06,0-.09V117.7a1.68,1.68,0,0,1,1.13-1.54,2.08,2.08,0,0,1,2.74,1.07A2.26,2.26,0,0,1,147.31,118.16Z" transform="translate(-4.24 -2.56)"/></g></g><path class="cls-1" d="M135.27,48l-.77-1.16c0-9.24-4.24-12.71-8.86-15.4,1.54-.39,3.08-.77,3.47-2.7,2.69-.77,3.08-1.92,3.47-3.08a4.45,4.45,0,0,0,2.69-3.85,3.1,3.1,0,0,0,1.54-3.47c1.16-1.54,1.54-2.69,1.16-3.85,1.54-1.92.77-3.08.38-4.24,1.16-2.31,0-4.62-3.08-4.23C134.12,4.11,131,4.5,130.65,4.5c-.39-.77-1.16-1.16-3.08-.77a4.78,4.78,0,0,0-5-.39c-1.92-1.54-3.08-.38-4.23,0-2.32-.77-2.7.39-3.86.77-2.31-.38-3.08.77-4.23,1.93h-1.16c-3.46,1.92-5.39,6.55-6.16,8.47C102.15,12.2,100.61,8,96.76,6H95.6c-1.15-1.16-1.92-2.31-4.23-1.93-1.16-.38-1.54-1.54-3.85-.77a5.66,5.66,0,0,0-2.7-.77h0c-.39,0-.77.39-1.54.77A3.45,3.45,0,0,0,79,3.73,3,3,0,0,0,76,4.5c-.38,0-3.46-.39-4.62,1.54-3.47-.39-4.62,1.92-3.47,4.23-.77,1.16-1.15,1.93.39,4.24-.77.77-.39,2.31,1.15,3.47-.38,1.54,0,2.69,1.54,3.85-.38,1.92,1.93,3.08,2.32,3.85.38,1.16.77,2.31,3.46,3.08.39,1.93,1.93,2.31,3.47,2.7-5,2.69-8.86,6.54-8.86,15.4L70.57,48c-5.39,3.46-10.4,14.25-2.7,23.1a36.81,36.81,0,0,0,1.93,6.94C71,86.92,78.27,91.15,80.2,91.54a31,31,0,0,0,10,5.77,17,17,0,0,0,12.33,5.4h0a17,17,0,0,0,12.32-5.4,31,31,0,0,0,10-5.77c1.93-.39,9.25-4.62,10.4-13.48.77-2.31,1.54-4.24,2.31-6.94A14.84,14.84,0,0,0,135.27,48Zm-5-1.54c-.38,3.85-18.87-12.71-15.79-13.1C123.33,31.84,130.65,36.85,130.26,46.48ZM109.85,8.35c0,.77.39,1.15.39,1.54,1.15-1.16,1.92-2.31,3.08-3.47,0,.77-.39,1.16.38,1.93a7.11,7.11,0,0,1,3.08-2.7c-.77,1.16,0,1.54.39,1.93A17.06,17.06,0,0,1,121,5.27c-.38.77-1.15,1.15-.38,1.92a13.5,13.5,0,0,1,4.62-1.92c-.39.77-1.54,1.15-1.16,1.92,1.16-.38,2.7-.77,4.24-1.15-.77.77-1.54,1.15-.77,1.54,1.54-.39,3.08-1.16,5-.39l-1.16,1.16H136a9.89,9.89,0,0,0-1.92,3.47H136c-.77,2.31-2.31,2.69-2.69,3.46q.57.59,2.31,0c-.77,1.54-1.93,2.31-3.08,3.47.38.38.77.38,1.92,0-1.15,1.15-2.31,1.92-3.47,3.08a2.94,2.94,0,0,0,1.93.38,18.15,18.15,0,0,1-4.62,2.7c.38.77,1.15.38,1.54.38a16.29,16.29,0,0,1-4.62,1.93,2,2,0,0,0,1.54.77c-1.93,1.16-4.62.39-5.39,1.16,0,.38.77.77,1.15,1.15-3.08,0-11.17,0-12.71-6.16,3.08-3.47,8.48-7.32,18.1-12.32-7.31,2.69-14.25,5.77-19.64,10.39C102.15,19.13,106.39,11.43,109.85,8.35Zm-6.93,22.34c4.62,0,10.4,3.46,10.4,6.93,0,3.08-4.24,5.39-10.4,5.39s-10.4-3.08-10.4-5.78,5-6.54,10.4-6.54ZM79.43,28.38A2,2,0,0,0,81,27.61c-1.93-.77-3.85-1.16-5-2.32a3.53,3.53,0,0,0,1.93-.38,28.39,28.39,0,0,1-4.62-2.7,2.89,2.89,0,0,0,1.92-.38c-1.15-.77-2.31-1.93-3.46-2.7h1.92c-1.15-1.54-2.31-2.31-3.08-3.85a2.43,2.43,0,0,0,2.31,0c-.38-.77-2.31-1.15-3.08-3.08h1.93a15.1,15.1,0,0,0-1.55-3.47h4.63L73.65,7.19a10.22,10.22,0,0,1,5,.39c.77-.39,0-1.16-.77-1.54,1.54.38,3.08.77,4.23,1.15C82.89,6.42,81.74,6,81,5.27a8.68,8.68,0,0,1,4.62,1.92c.77-.77,0-1.15-.39-1.92a16.93,16.93,0,0,1,3.86,2.31,1.54,1.54,0,0,0,.38-1.93,17.62,17.62,0,0,1,2.7,2.7c.77-.39.38-1.16.38-1.93A24.61,24.61,0,0,1,95.6,9.89c.39,0,.39-.77.39-1.54,3.08,3.08,7.7,10.78,1.15,13.86A56.42,56.42,0,0,0,77.5,11.82c9.63,5,15,8.85,18.1,12.32C94.06,30.3,86,30.69,82.89,30.3c.77-.38,1.16-.77,1.16-1.15C83.66,28.76,81.35,29.15,79.43,28.38ZM90.21,33c3.08.38-15.4,16.94-15.79,13.09C74,36.85,81.35,31.46,90.21,33ZM70.57,69.58C66,65.73,64.41,55.33,72.88,50.33,77.89,48.79,74.81,71.12,70.57,69.58ZM88.29,88.84c-2.7,1.54-8.86.77-13.1-5.39-3.08-5.39-2.69-10.78-.38-12.33,3.08-1.92,8.08.78,11.55,5C89.44,79.6,91,86.53,88.29,88.84Zm-5-23.49c-4.62-3.08-5.39-10-1.93-15.79,3.85-5.39,10.4-7.7,15-4.62s5.4,10,1.93,15.79S87.9,68.43,83.28,65.35Zm19.64,34.27C97.14,100,91.75,95,91.75,93.46c0-2.31,6.93-4.23,11.56-4.23,4.62-.39,10.78,1.54,10.78,3.85C114.09,94.62,108.31,99.62,102.92,99.62ZM114.47,75c0,5.77-5,10.39-11.16,10.39S91.75,80.75,91.75,75h0c0-5.78,5-10.4,11.17-10.4,6.55,0,11.55,4.62,11.55,10.4Zm-6.93-14.64c-3.85-5.39-2.69-12.71,1.93-15.79s11.55-1.15,15,4.62,2.69,12.71-1.93,15.79C117.94,67.66,111,65.73,107.54,60.34Zm23.11,23.11c-5,6.93-11.55,6.93-13.87,5-2.69-2.32-.77-10,3.09-14.25h0c3.85-4.63,8.47-7.71,11.16-5.4C133,71.51,134.12,78.83,130.65,83.45Zm3.47-14.25c-4.24,1.92-7.71-20.41-2.32-19.26C140.28,54.56,138.74,65.35,134.12,69.2Z" transform="translate(-4.24 -2.56)"/></g></svg>