<?xml version="1.0" encoding="UTF-8"?>
<svg width="126px" height="126px" viewBox="0 0 126 126" version="1.1" xmlns="http://www.w3.org/2000/svg" xmlns:xlink="http://www.w3.org/1999/xlink">
    <!-- Generator: Sketch 51.3 (57544) - http://www.bohemiancoding.com/sketch -->
    <title>slack</title>
    <desc>Created with Sketch.</desc>
    <defs></defs>
    <g id="Page-1" stroke="none" stroke-width="1" fill="none" fill-rule="evenodd">
        <g id="slack" fill="#FFFFFF" fill-rule="nonzero">
            <rect id="Rectangle-path" transform="translate(63.298240, 62.795680) rotate(-18.518296) translate(-63.298240, -62.795680) " x="54.4984468" y="54.2958798" width="17.5995864" height="16.9996005"></rect>
            <g id="Group">
                <rect id="Rectangle-path" transform="translate(63.298240, 62.795680) rotate(-18.518296) translate(-63.298240, -62.795680) " x="54.4984468" y="54.2958798" width="17.5995864" height="16.9996005"></rect>
                <path d="M120.6,45.5 C107.7,2.5 89.1,-7.5 46.1,5.4 C3.1,18.3 -6.9,36.9 6,79.9 C18.9,122.9 37.5,132.9 80.5,120 C123.5,107.1 133.5,88.5 120.6,45.5 Z M98.9,73.4 L90.8,76.1 L93.6,84.5 C94.7,87.9 92.9,91.6 89.5,92.7 C88.8,92.9 88,93.1 87.3,93 C84.7,92.9 82.2,91.2 81.3,88.6 L78.5,80.2 L61.8,85.8 L64.6,94.2 C65.7,97.6 63.9,101.3 60.5,102.4 C59.8,102.6 59,102.8 58.3,102.7 C55.7,102.6 53.2,100.9 52.3,98.3 L49.5,89.9 L41.4,92.6 C40.7,92.8 39.9,93 39.2,92.9 C36.6,92.8 34.1,91.1 33.2,88.5 C32.1,85.1 33.9,81.4 37.3,80.3 L45.4,77.6 L40,61.5 L31.9,64.2 C31.2,64.4 30.4,64.6 29.7,64.5 C27.1,64.4 24.6,62.7 23.7,60.1 C22.6,56.7 24.4,53 27.8,51.9 L35.9,49.2 L33.1,40.8 C32,37.4 33.8,33.7 37.2,32.6 C40.6,31.5 44.3,33.3 45.4,36.7 L48.2,45.1 L64.9,39.5 L62.1,31.1 C61,27.7 62.8,24 66.2,22.9 C69.6,21.8 73.3,23.6 74.4,27 L77.2,35.4 L85.3,32.7 C88.7,31.6 92.4,33.4 93.5,36.8 C94.6,40.2 92.8,43.9 89.4,45 L81.3,47.7 L86.7,63.8 L94.8,61.1 C98.2,60 101.9,61.8 103,65.2 C104.1,68.6 102.3,72.3 98.9,73.4 Z" id="Shape"></path>
            </g>
        </g>
    </g>
</svg>