<svg xmlns="http://www.w3.org/2000/svg" viewBox="0 0 39.38 32"><defs><style>.cls-1{fill:#eee;}</style></defs><title>Asset 2</title><g id="Layer_2" data-name="Layer 2"><g id="Footer_Content" data-name="Footer Content"><g id="Social_Link" data-name="Social Link"><g id="Twitter"><path id="Twitter_FooterLogo" data-name="Twitter FooterLogo" class="cls-1" d="M12.38,32c14.87,0,23-12.31,23-23,0-.35,0-.7,0-1a16.38,16.38,0,0,0,4-4.19,15.61,15.61,0,0,1-4.64,1.27A8,8,0,0,0,38.29.59a16.23,16.23,0,0,1-5.13,2A8.09,8.09,0,0,0,19.39,9.92,23,23,0,0,1,2.74,1.47a8.09,8.09,0,0,0,2.5,10.79,8,8,0,0,1-3.66-1v.1a8.07,8.07,0,0,0,6.48,7.92,8,8,0,0,1-3.65.14A8.08,8.08,0,0,0,12,25a16.24,16.24,0,0,1-10,3.47A15.47,15.47,0,0,1,0,28.37,22.84,22.84,0,0,0,12.38,32"/></g></g></g></g></svg>