<?xml version="1.0" encoding="UTF-8"?>
<svg width="449px" height="227px" viewBox="0 0 449 227" version="1.1" xmlns="http://www.w3.org/2000/svg" xmlns:xlink="http://www.w3.org/1999/xlink">
    <!-- Generator: Sketch 45.2 (43514) - http://www.bohemiancoding.com/sketch -->
    <title>Source_Load_Ground</title>
    <desc>Created with Sketch.</desc>
    <defs>
        <path d="M1.60634936e-28,161.052908 C5.35878101e-14,165.64713 13.407669,169.371482 29.9468668,169.371482 C46.4860647,169.371482 59.8937336,165.64713 59.8937336,161.052908 L59.8937336,11.3185741 L0,11.3185741 L0,161.052908 Z" id="path-1"></path>
        <ellipse id="path-2" cx="29.9468668" cy="11.3185741" rx="29.9468668" ry="8.31857412"></ellipse>
        <path d="M19.9645779,9.65485929 C19.9645779,11.0331258 24.4338009,12.1504315 29.9468668,12.1504315 C35.4599328,12.1504315 39.9291558,11.0331258 39.9291558,9.65485929 L39.9291558,3 L19.9645779,3 L19.9645779,9.65485929 Z" id="path-3"></path>
        <ellipse id="path-4" cx="29.9468668" cy="3" rx="9.98228894" ry="2.49557223"></ellipse>
    </defs>
    <g id="Page-1" stroke="none" stroke-width="1" fill="none" fill-rule="evenodd">
        <g id="Letter" transform="translate(-1779.000000, -845.000000)">
            <g id="Source_Load_Ground" transform="translate(1778.000000, 841.000000)">
                <g id="Battery" transform="translate(133.000000, 22.000000)">
                    <g id="Combined-Shape">
                        <use fill="#EEEEEE" fill-rule="evenodd" xlink:href="#path-1"></use>
                        <path stroke="#23ABE3" stroke-width="1" d="M59.3937336,11.8185741 L0.5,11.8185741 L0.5,161.052908 C0.5,165.200591 13.7152079,168.871482 29.9468668,168.871482 C46.1785258,168.871482 59.3937336,165.200591 59.3937336,161.052908 L59.3937336,11.8185741 Z"></path>
                    </g>
                    <g id="Oval">
                        <use fill="#EEEEEE" fill-rule="evenodd" xlink:href="#path-2"></use>
                        <ellipse stroke="#23ABE3" stroke-width="1" cx="29.9468668" cy="11.3185741" rx="29.4468668" ry="7.81857412"></ellipse>
                    </g>
                    <g id="Combined-Shape">
                        <use fill="#F8E71C" fill-rule="evenodd" xlink:href="#path-3"></use>
                        <path stroke="#979797" stroke-width="1" d="M39.4291558,3.5 L20.4645779,3.5 L20.4645779,9.65485929 C20.4645779,9.9889054 21.3713385,10.5248611 23.0095904,10.9344241 C24.826757,11.3887157 27.3018196,11.6504315 29.9468668,11.6504315 C32.5919141,11.6504315 35.0669767,11.3887157 36.8841432,10.9344241 C38.5223952,10.5248611 39.4291558,9.9889054 39.4291558,9.65485929 L39.4291558,3.5 Z"></path>
                    </g>
                    <g id="Oval-2">
                        <use fill="#F8E71C" fill-rule="evenodd" xlink:href="#path-4"></use>
                        <ellipse stroke="#979797" stroke-width="1" cx="29.9468668" cy="3" rx="9.48228894" ry="1.99557223"></ellipse>
                    </g>
                    <text id="+" font-family="Lato-Regular, Lato" font-size="24" font-weight="normal" letter-spacing="0.926732957" fill="#555555">
                        <tspan x="4.55892246" y="41">+</tspan>
                    </text>
                    <text id="-" font-family="Lato-Regular, Lato" font-size="24" font-weight="normal" letter-spacing="0.926732957" fill="#555555">
                        <tspan x="6.73349281" y="162">-</tspan>
                    </text>
                </g>
                <text id="Source" font-family="Lato-Regular, Lato" font-size="18" font-weight="normal" letter-spacing="0.695049524" fill="#555555">
                    <tspan x="39.3788514" y="18">Source</tspan>
                </text>
                <text id="Ground/Common" font-family="Lato-Regular, Lato" font-size="18" font-weight="normal" letter-spacing="0.695049524" fill="#555555">
                    <tspan x="0.763678092" y="230">Ground/Common</tspan>
                </text>
                <path d="M344.5,141 L400,112" id="Line-7" stroke="#B09679" stroke-width="2" stroke-linecap="square"></path>
                <path d="M118,15 L150,27" id="Line-7-Copy-6" stroke="#B09679" stroke-width="2" stroke-linecap="square"></path>
                <path d="M135,213 L149,196" id="Line-7-Copy-7" stroke="#B09679" stroke-width="2" stroke-linecap="square"></path>
                <path d="M162.5,184.5 L162.5,39.5" id="Line-8" stroke="#B09679" stroke-width="3" stroke-linecap="square"></path>
                <path id="Line-8-decoration-1" d="M162.5,39.5 L159.5,50.3 L165.5,50.3 L162.5,39.5 Z" stroke="#B09679" stroke-width="3" stroke-linecap="square"></path>
                <path d="M336,200.5 L191,200.5" id="Line-8-Copy-2" stroke="#B09679" stroke-width="3" stroke-linecap="square"></path>
                <path id="Line-8-Copy-2-decoration-1" d="M191,200.5 L201.8,203.5 L201.8,197.5 L191,200.5 Z" stroke="#B09679" stroke-width="3" stroke-linecap="square"></path>
                <path d="M199,20.5 L344,20.5" id="Line-8-Copy-3" stroke="#B09679" stroke-width="3" stroke-linecap="square"></path>
                <path id="Line-8-Copy-3-decoration-1" d="M344,20.5 L333.2,17.5 L333.2,23.5 L344,20.5 Z" stroke="#B09679" stroke-width="3" stroke-linecap="square"></path>
                <g id="Potential" transform="translate(411.000000, 100.000000)" font-size="18" font-family="Lato-Regular, Lato" letter-spacing="0.695049524" fill="#555555" font-weight="normal">
                    <text id="Load">
                        <tspan x="0.200900951" y="18">Load</tspan>
                    </text>
                </g>
                <g id="Charge-Carriers" transform="translate(174.000000, 34.000000)" fill="#23ABE3">
                    <circle id="Oval-3-Copy-14" cx="18.5" cy="5.5" r="5.5"></circle>
                    <circle id="Oval-3-Copy" cx="5.5" cy="5.5" r="5.5"></circle>
                    <circle id="Oval-3-Copy-16" cx="44.5" cy="5.5" r="5.5"></circle>
                    <circle id="Oval-3-Copy-15" cx="31.5" cy="5.5" r="5.5"></circle>
                    <circle id="Oval-3-Copy-20" cx="70.5" cy="5.5" r="5.5"></circle>
                    <circle id="Oval-3-Copy-19" cx="57.5" cy="5.5" r="5.5"></circle>
                    <circle id="Oval-3-Copy-18" cx="96.5" cy="5.5" r="5.5"></circle>
                    <circle id="Oval-3-Copy-17" cx="83.5" cy="5.5" r="5.5"></circle>
                    <circle id="Oval-3-Copy-29" cx="109.5" cy="5.5" r="5.5"></circle>
                    <circle id="Oval-3-Copy-28" cx="135.5" cy="5.5" r="5.5"></circle>
                    <circle id="Oval-3-Copy-27" cx="122.5" cy="5.5" r="5.5"></circle>
                    <circle id="Oval-3-Copy-26" cx="161.5" cy="5.5" r="5.5"></circle>
                    <circle id="Oval-3-Copy-25" cx="148.5" cy="5.5" r="5.5"></circle>
                    <circle id="Oval-3-Copy-24" cx="187.5" cy="5.5" r="5.5"></circle>
                    <circle id="Oval-3-Copy-23" cx="174.5" cy="5.5" r="5.5"></circle>
                    <circle id="Oval-3-Copy-40" cx="70.5" cy="148.5" r="5.5"></circle>
                    <circle id="Oval-3-Copy-39" cx="57.5" cy="148.5" r="5.5"></circle>
                    <circle id="Oval-3-Copy-38" cx="96.5" cy="148.5" r="5.5"></circle>
                    <circle id="Oval-3-Copy-37" cx="83.5" cy="148.5" r="5.5"></circle>
                    <circle id="Oval-3-Copy-36" cx="109.5" cy="148.5" r="5.5"></circle>
                    <circle id="Oval-3-Copy-35" cx="135.5" cy="148.5" r="5.5"></circle>
                    <circle id="Oval-3-Copy-34" cx="122.5" cy="148.5" r="5.5"></circle>
                    <circle id="Oval-3-Copy-33" cx="161.5" cy="148.5" r="5.5"></circle>
                    <circle id="Oval-3-Copy-32" cx="148.5" cy="148.5" r="5.5"></circle>
                    <circle id="Oval-3-Copy-30" cx="174.5" cy="145.5" r="5.5"></circle>
                    <circle id="Oval-3-Copy-2" cx="5.5" cy="18.5" r="5.5"></circle>
                    <circle id="Oval-3-Copy-5" cx="5.5" cy="31.5" r="5.5"></circle>
                    <circle id="Oval-3-Copy-4" cx="5.5" cy="44.5" r="5.5"></circle>
                    <circle id="Oval-3-Copy-3" cx="5.5" cy="57.5" r="5.5"></circle>
                    <circle id="Oval-3-Copy-11" cx="5.5" cy="70.5" r="5.5"></circle>
                    <circle id="Oval-3-Copy-10" cx="5.5" cy="83.5" r="5.5"></circle>
                    <circle id="Oval-3-Copy-9" cx="5.5" cy="96.5" r="5.5"></circle>
                    <circle id="Oval-3-Copy-8" cx="5.5" cy="109.5" r="5.5"></circle>
                    <circle id="Oval-3-Copy-7" cx="5.5" cy="122.5" r="5.5"></circle>
                    <circle id="Oval-3-Copy-6" cx="5.5" cy="135.5" r="5.5"></circle>
                    <circle id="Oval-3-Copy-50" cx="187.5" cy="18.5" r="5.5"></circle>
                    <circle id="Oval-3-Copy-49" cx="187.5" cy="31.5" r="5.5"></circle>
                    <circle id="Oval-3-Copy-48" cx="187.5" cy="44.5" r="5.5"></circle>
                    <circle id="Oval-3-Copy-47" cx="187.5" cy="57.5" r="5.5"></circle>
                    <circle id="Oval-3-Copy-46" cx="187.5" cy="70.5" r="5.5"></circle>
                    <circle id="Oval-3-Copy-45" cx="187.5" cy="83.5" r="5.5"></circle>
                    <circle id="Oval-3-Copy-44" cx="187.5" cy="96.5" r="5.5"></circle>
                    <circle id="Oval-3-Copy-43" cx="187.5" cy="109.5" r="5.5"></circle>
                    <circle id="Oval-3-Copy-42" cx="187.5" cy="122.5" r="5.5"></circle>
                    <circle id="Oval-3-Copy-41" cx="184.5" cy="135.5" r="5.5"></circle>
                    <circle id="Oval-3-Copy-13" cx="5.5" cy="148.5" r="5.5"></circle>
                    <circle id="Oval-3-Copy-12" cx="18.5" cy="148.5" r="5.5"></circle>
                    <circle id="Oval-3-Copy-22" cx="31.5" cy="148.5" r="5.5"></circle>
                    <circle id="Oval-3-Copy-21" cx="44.5" cy="148.5" r="5.5"></circle>
                </g>
                <g id="Water-Wheel" transform="translate(291.000000, 112.000000)">
                    <path d="M40,0.5 L40,78.5" id="Line-5" stroke="#B09679" stroke-width="4" stroke-linecap="square"></path>
                    <path d="M40,0.5 L40,78.5" id="Line-5-Copy" stroke="#B09679" stroke-width="4" stroke-linecap="square" transform="translate(40.000000, 39.500000) rotate(-270.000000) translate(-40.000000, -39.500000) "></path>
                    <path d="M40,0.5 L40,78.5" id="Line-5-Copy-2" stroke="#B09679" stroke-width="4" stroke-linecap="square" transform="translate(40.000000, 39.500000) rotate(-225.000000) translate(-40.000000, -39.500000) "></path>
                    <path d="M11.9228355,67.0771645 L67.0771645,11.9228355" id="Line-5-Copy-3" stroke="#B09679" stroke-width="4" stroke-linecap="square"></path>
                    <circle id="Oval-Copy-2" stroke="#555555" stroke-width="2" cx="39.5" cy="39.5" r="38.5"></circle>
                    <circle id="Oval" fill="#B09679" cx="39.5" cy="39.5" r="22.5"></circle>
                    <circle id="Oval-Copy" fill="#555555" cx="39.5" cy="39.5" r="7.5"></circle>
                </g>
            </g>
        </g>
    </g>
</svg>